<?xml version="1.0" encoding="UTF-8" standalone="no"?>
<svg xmlns:ffdec="https://www.free-decompiler.com/flash" xmlns:xlink="http://www.w3.org/1999/xlink" ffdec:objectType="morphshape" height="47.45px" width="155.0px" xmlns="http://www.w3.org/2000/svg">
  <g transform="matrix(1.0, 0.0, 0.0, 1.0, 49.0, 22.0)">
    <path d="M-20.85 -6.0 Q-21.0 -5.2 -20.8 -4.6 L-20.55 -3.95 Q-19.55 -2.25 -17.3 -2.25 L-15.3 -2.25 Q-12.35 -2.3 -9.45 -2.35 -7.2 -2.4 -4.95 -2.45 -3.4 -2.45 -1.9 -2.45 L-1.1 -2.45 Q0.45 -2.4 1.95 -2.35 L2.05 -2.35 Q3.35 -2.25 4.25 -1.35 L4.3 -1.0 Q4.4 0.3 4.0 1.5 L3.8 2.0 Q3.55 2.5 3.65 3.0 3.85 4.4 5.3 4.35 L8.2 4.45 13.1 4.35 13.6 4.35 14.2 4.35 Q17.55 4.2 20.85 4.1 25.85 3.85 30.85 3.65 35.0 3.35 39.15 3.1 L40.95 3.0 41.85 2.9 43.15 2.8 Q46.95 2.2 50.75 1.6 L52.25 1.3 Q53.4 1.05 53.9 0.05 L53.8 -0.2 53.8 -0.2 Q53.2 -0.9 52.65 -1.55 52.4 -1.75 52.15 -1.95 49.6 -4.2 46.05 -4.35 L42.7 -4.8 41.9 -4.95 Q39.5 -5.05 37.7 -6.6 L35.5 -8.6 Q33.5 -10.3 31.15 -11.0 L27.3 -11.45 Q21.2 -11.3 15.1 -11.2 L6.6 -11.0 Q4.75 -10.95 2.9 -10.9 0.2 -10.85 -2.5 -10.8 -5.2 -10.75 -7.85 -10.7 -8.75 -10.7 -9.65 -10.7 L-10.35 -10.7 Q-12.7 -10.45 -15.05 -10.2 L-15.5 -10.1 -17.4 -9.4 Q-18.55 -8.95 -19.5 -8.15 -20.55 -7.4 -20.85 -6.0" fill="#cc0000" fill-rule="evenodd" stroke="none">
      <animate attributeName="fill" dur="2s" repeatCount="indefinite" values="#cc0000;#cc0001"/>
      <animate attributeName="fill-opacity" dur="2s" repeatCount="indefinite" values="1.0;1.0"/>
      <animate attributeName="d" dur="2s" repeatCount="indefinite" values="M-20.85 -6.0 Q-21.0 -5.2 -20.8 -4.6 L-20.55 -3.95 Q-19.55 -2.25 -17.3 -2.25 L-15.3 -2.25 Q-12.35 -2.3 -9.45 -2.35 -7.2 -2.4 -4.95 -2.45 -3.4 -2.45 -1.9 -2.45 L-1.1 -2.45 Q0.45 -2.4 1.95 -2.35 L2.05 -2.35 Q3.35 -2.25 4.25 -1.35 L4.3 -1.0 Q4.4 0.3 4.0 1.5 L3.8 2.0 Q3.55 2.5 3.65 3.0 3.85 4.4 5.3 4.35 L8.2 4.45 13.1 4.35 13.6 4.35 14.2 4.35 Q17.55 4.2 20.85 4.1 25.85 3.85 30.85 3.65 35.0 3.35 39.15 3.1 L40.95 3.0 41.85 2.9 43.15 2.8 Q46.95 2.2 50.75 1.6 L52.25 1.3 Q53.4 1.05 53.9 0.05 L53.8 -0.2 53.8 -0.2 Q53.2 -0.9 52.65 -1.55 52.4 -1.75 52.15 -1.95 49.6 -4.2 46.05 -4.35 L42.7 -4.8 41.9 -4.95 Q39.5 -5.05 37.7 -6.6 L35.5 -8.6 Q33.5 -10.3 31.15 -11.0 L27.3 -11.45 Q21.2 -11.3 15.1 -11.2 L6.6 -11.0 Q4.75 -10.95 2.9 -10.9 0.2 -10.85 -2.5 -10.8 -5.2 -10.75 -7.85 -10.7 -8.75 -10.7 -9.65 -10.7 L-10.35 -10.7 Q-12.7 -10.45 -15.05 -10.2 L-15.5 -10.1 -17.4 -9.4 Q-18.55 -8.95 -19.5 -8.15 -20.55 -7.4 -20.85 -6.0;M-49.0 -5.85 Q-49.0 -4.3 -49.0 -2.8 L-48.2 -1.6 Q-46.05 1.1 -41.7 2.9 L-37.95 4.15 Q-29.7 6.4 -24.85 6.25 -19.3 7.45 -15.65 9.4 -12.95 10.8 -10.3 13.35 L-9.2 14.4 Q-6.2 17.5 -4.1 18.6 L-3.9 18.7 Q-1.75 19.7 1.5 20.1 L2.3 20.2 Q4.65 20.35 7.0 20.45 L8.3 20.3 Q9.4 20.15 10.45 20.0 13.2 19.65 15.95 19.35 L22.4 18.85 32.5 18.45 33.55 18.45 35.0 18.45 Q44.35 18.75 49.05 21.45 54.4 24.45 69.7 25.35 85.0 26.25 82.2 17.4 L82.2 13.5 82.05 11.5 82.0 8.85 Q82.0 4.65 94.0 -0.4 L97.15 -1.75 Q99.4 -2.75 101.65 -3.7 L102.15 -3.95 102.25 -4.0 Q104.5 -5.15 105.4 -6.1 106.0 -6.75 106.0 -7.35 106.0 -10.8 95.6 -14.75 L89.0 -16.95 87.3 -17.45 Q82.3 -18.9 77.65 -19.95 L70.9 -21.15 Q65.7 -21.6 60.5 -22.0 L52.4 -21.8 Q40.7 -21.2 26.6 -18.95 L8.5 -15.95 Q7.2 -15.95 1.2 -18.45 -4.75 -21.0 -10.0 -21.0 -18.3 -21.0 -21.5 -19.15 -22.65 -18.55 -24.2 -16.3 L-25.05 -14.95 Q-26.9 -11.9 -33.85 -11.1 L-34.8 -11.0 -38.6 -10.4 Q-41.45 -9.8 -44.1 -8.65 -46.65 -7.5 -49.0 -5.85"/>
    </path>
    <path d="M-20.85 -6.0 Q-20.55 -7.4 -19.5 -8.15 -18.55 -8.95 -17.4 -9.4 L-15.5 -10.1 -15.05 -10.2 Q-12.7 -10.45 -10.35 -10.7 L-9.65 -10.7 Q-8.75 -10.7 -7.85 -10.7 -5.2 -10.75 -2.5 -10.8 0.2 -10.85 2.9 -10.9 4.75 -10.95 6.6 -11.0 L15.1 -11.2 Q21.2 -11.3 27.3 -11.45 L31.15 -11.0 Q33.5 -10.3 35.5 -8.6 L37.7 -6.6 Q39.5 -5.05 41.9 -4.95 L42.7 -4.8 46.05 -4.35 Q49.6 -4.2 52.15 -1.95 52.4 -1.75 52.65 -1.55 53.2 -0.9 53.8 -0.2 L53.8 -0.2 53.9 0.05 Q53.4 1.05 52.25 1.3 L50.75 1.6 Q46.95 2.2 43.15 2.8 L41.85 2.9 40.95 3.0 39.15 3.1 Q35.0 3.35 30.85 3.65 25.85 3.85 20.85 4.1 17.55 4.2 14.2 4.35 L13.6 4.35 13.1 4.35 8.2 4.45 5.3 4.35 Q3.85 4.4 3.65 3.0 3.55 2.5 3.8 2.0 L4.0 1.5 Q4.4 0.3 4.3 -1.0 L4.25 -1.35 Q3.35 -2.25 2.05 -2.35 L1.95 -2.35 Q0.45 -2.4 -1.1 -2.45 L-1.9 -2.45 Q-3.4 -2.45 -4.95 -2.45 -7.2 -2.4 -9.45 -2.35 -12.35 -2.3 -15.3 -2.25 L-17.3 -2.25 Q-19.55 -2.25 -20.55 -3.95 L-20.8 -4.6 Q-21.0 -5.2 -20.85 -6.0 Z" fill="none" stroke="#000000" stroke-linecap="round" stroke-linejoin="round" stroke-opacity="0.0" stroke-width="0.0">
      <animate attributeName="stroke" dur="2s" repeatCount="indefinite" values="#000000;#000001"/>
      <animate attributeName="stroke-width" dur="2s" repeatCount="indefinite" values="0.0;0.0"/>
      <animate attributeName="fill-opacity" dur="2s" repeatCount="indefinite" values="0.0;0.0"/>
      <animate attributeName="d" dur="2s" repeatCount="indefinite" values="M-20.85 -6.0 Q-20.55 -7.4 -19.5 -8.15 -18.55 -8.95 -17.4 -9.4 L-15.5 -10.1 -15.05 -10.2 Q-12.7 -10.45 -10.35 -10.7 L-9.65 -10.7 Q-8.75 -10.7 -7.85 -10.7 -5.2 -10.75 -2.5 -10.8 0.2 -10.85 2.9 -10.9 4.75 -10.95 6.6 -11.0 L15.1 -11.2 Q21.2 -11.3 27.3 -11.45 L31.15 -11.0 Q33.5 -10.3 35.5 -8.6 L37.7 -6.6 Q39.5 -5.05 41.9 -4.95 L42.7 -4.8 46.05 -4.35 Q49.6 -4.2 52.15 -1.95 52.4 -1.75 52.65 -1.55 53.2 -0.9 53.8 -0.2 L53.8 -0.2 53.9 0.05 Q53.4 1.05 52.25 1.3 L50.75 1.6 Q46.95 2.2 43.15 2.8 L41.85 2.9 40.95 3.0 39.15 3.1 Q35.0 3.35 30.85 3.65 25.85 3.85 20.85 4.1 17.55 4.2 14.2 4.35 L13.6 4.35 13.1 4.35 8.2 4.45 5.3 4.35 Q3.85 4.4 3.65 3.0 3.55 2.5 3.8 2.0 L4.0 1.5 Q4.4 0.3 4.3 -1.0 L4.25 -1.35 Q3.35 -2.25 2.05 -2.35 L1.95 -2.35 Q0.45 -2.4 -1.1 -2.45 L-1.9 -2.45 Q-3.4 -2.45 -4.95 -2.45 -7.2 -2.4 -9.45 -2.35 -12.35 -2.3 -15.3 -2.25 L-17.3 -2.25 Q-19.55 -2.25 -20.55 -3.95 L-20.8 -4.6 Q-21.0 -5.2 -20.85 -6.0 Z;M-49.0 -5.85 Q-46.65 -7.5 -44.1 -8.65 -41.45 -9.8 -38.6 -10.4 L-34.8 -11.0 -33.85 -11.1 Q-26.9 -11.9 -25.05 -14.95 L-24.2 -16.3 Q-22.65 -18.55 -21.5 -19.15 -18.3 -21.0 -10.0 -21.0 -4.75 -21.0 1.2 -18.45 7.2 -15.95 8.5 -15.95 L26.6 -18.95 Q40.7 -21.2 52.4 -21.8 L60.5 -22.0 Q65.7 -21.6 70.9 -21.15 L77.65 -19.95 Q82.3 -18.9 87.3 -17.45 L89.0 -16.95 95.6 -14.75 Q106.0 -10.8 106.0 -7.35 106.0 -6.75 105.4 -6.1 104.5 -5.15 102.25 -4.0 L102.15 -3.95 101.65 -3.7 Q99.4 -2.75 97.15 -1.75 L94.0 -0.4 Q82.0 4.65 82.0 8.85 L82.05 11.5 82.2 13.5 82.2 17.4 Q85.0 26.25 69.7 25.35 54.4 24.45 49.05 21.45 44.35 18.75 35.0 18.45 L33.55 18.45 32.5 18.45 22.4 18.85 15.95 19.35 Q13.2 19.65 10.45 20.0 9.4 20.15 8.3 20.3 L7.0 20.45 Q4.65 20.35 2.3 20.2 L1.5 20.1 Q-1.75 19.7 -3.9 18.7 L-4.1 18.6 Q-6.2 17.5 -9.2 14.4 L-10.3 13.35 Q-12.95 10.8 -15.65 9.4 -19.3 7.45 -24.85 6.25 -29.7 6.4 -37.95 4.15 L-41.7 2.9 Q-46.05 1.1 -48.2 -1.6 L-49.0 -2.8 Q-49.0 -4.3 -49.0 -5.85 Z"/>
    </path>
  </g>
</svg>
