<?xml version="1.0" encoding="UTF-8" standalone="no"?>
<svg xmlns:ffdec="https://www.free-decompiler.com/flash" xmlns:xlink="http://www.w3.org/1999/xlink" ffdec:objectType="morphshape" height="66.2px" width="214.85px" xmlns="http://www.w3.org/2000/svg">
  <g transform="matrix(1.0, 0.0, 0.0, 1.0, 81.65, 22.95)">
    <path d="M-49.0 -5.85 L-49.0 -5.8 Q-49.0 -4.3 -49.0 -2.8 -47.3 0.1 -43.4 2.1 -41.05 3.3 -37.95 4.15 -29.7 6.4 -24.85 6.25 L-21.7 7.05 Q-18.85 7.85 -16.6 8.9 L-15.65 9.4 -15.35 9.5 Q-13.05 10.8 -10.75 12.9 -9.95 13.65 -9.2 14.4 -7.55 15.9 -5.95 17.4 -4.85 18.25 -3.9 18.7 -2.7 19.25 -1.1 19.65 2.95 20.05 7.0 20.45 18.05 19.45 29.1 18.5 L32.5 18.45 33.55 18.45 35.0 18.45 Q44.35 18.75 49.05 21.45 L52.05 22.75 Q56.2 24.1 63.25 24.85 66.5 25.1 69.7 25.35 72.75 25.55 75.05 25.35 77.0 24.95 78.9 24.6 80.0 24.2 80.8 23.6 82.75 22.15 82.6 19.55 L82.2 17.4 Q82.2 15.45 82.2 13.5 82.0 12.9 82.0 8.85 82.0 6.7 85.15 4.35 87.35 2.7 91.1 0.9 L94.0 -0.4 96.9 -1.65 Q98.25 -2.25 99.55 -2.8 100.9 -3.4 102.25 -4.0 L104.1 -5.05 Q105.5 -6.0 105.85 -6.8 L106.0 -7.35 Q106.0 -8.15 105.4 -9.0 103.75 -11.4 97.15 -14.1 93.75 -15.5 89.0 -16.95 72.55 -22.0 60.5 -22.0 45.8 -22.0 26.6 -18.95 L19.45 -17.85 12.35 -16.65 8.5 -15.95 Q7.2 -15.95 1.2 -18.45 L0.05 -18.9 Q-5.25 -21.0 -10.0 -21.0 -17.95 -21.0 -21.2 -19.3 L-21.5 -19.15 Q-22.95 -18.4 -25.05 -14.95 -26.75 -12.15 -32.8 -11.25 L-34.8 -11.0 Q-38.05 -10.7 -41.05 -9.75 -45.3 -8.4 -49.0 -5.85" fill="#cc0000" fill-rule="evenodd" stroke="none">
      <animate attributeName="fill" dur="2s" repeatCount="indefinite" values="#cc0000;#cc0001"/>
      <animate attributeName="fill-opacity" dur="2s" repeatCount="indefinite" values="1.0;0.0"/>
      <animate attributeName="d" dur="2s" repeatCount="indefinite" values="M-49.0 -5.85 L-49.0 -5.8 Q-49.0 -4.3 -49.0 -2.8 -47.3 0.1 -43.4 2.1 -41.05 3.3 -37.95 4.15 -29.7 6.4 -24.85 6.25 L-21.7 7.05 Q-18.85 7.85 -16.6 8.9 L-15.65 9.4 -15.35 9.5 Q-13.05 10.8 -10.75 12.9 -9.95 13.65 -9.2 14.4 -7.55 15.9 -5.95 17.4 -4.85 18.25 -3.9 18.7 -2.7 19.25 -1.1 19.65 2.95 20.05 7.0 20.45 18.05 19.45 29.1 18.5 L32.5 18.45 33.55 18.45 35.0 18.45 Q44.35 18.75 49.05 21.45 L52.05 22.75 Q56.2 24.1 63.25 24.85 66.5 25.1 69.7 25.35 72.75 25.55 75.05 25.35 77.0 24.95 78.9 24.6 80.0 24.2 80.8 23.6 82.75 22.15 82.6 19.55 L82.2 17.4 Q82.2 15.45 82.2 13.5 82.0 12.9 82.0 8.85 82.0 6.7 85.15 4.35 87.35 2.7 91.1 0.9 L94.0 -0.4 96.9 -1.65 Q98.25 -2.25 99.55 -2.8 100.9 -3.4 102.25 -4.0 L104.1 -5.05 Q105.5 -6.0 105.85 -6.8 L106.0 -7.35 Q106.0 -8.15 105.4 -9.0 103.75 -11.4 97.15 -14.1 93.75 -15.5 89.0 -16.95 72.55 -22.0 60.5 -22.0 45.8 -22.0 26.6 -18.95 L19.45 -17.85 12.35 -16.65 8.5 -15.95 Q7.2 -15.95 1.2 -18.45 L0.05 -18.9 Q-5.25 -21.0 -10.0 -21.0 -17.95 -21.0 -21.2 -19.3 L-21.5 -19.15 Q-22.95 -18.4 -25.05 -14.95 -26.75 -12.15 -32.8 -11.25 L-34.8 -11.0 Q-38.05 -10.7 -41.05 -9.75 -45.3 -8.4 -49.0 -5.85;M-81.65 -2.25 L-81.65 -2.25 Q-81.75 -0.2 -81.4 1.9 -80.55 6.65 -77.25 11.5 -74.9 14.95 -71.55 17.4 -65.05 22.1 -54.85 22.95 L-50.5 23.1 Q-46.6 22.7 -42.75 22.35 L-41.05 22.2 -40.65 22.2 Q-35.9 22.2 -33.0 24.55 -31.85 25.4 -30.85 26.55 -29.05 28.55 -27.5 31.35 -26.6 32.8 -25.75 34.25 -24.3 36.35 -22.95 37.4 -19.85 39.8 -12.55 41.2 -1.95 43.25 17.5 43.25 L21.35 42.35 22.85 41.9 24.6 41.25 Q31.0 38.95 42.8 34.0 L47.25 32.1 Q55.65 34.1 64.0 36.05 69.15 36.0 73.2 34.35 76.6 32.95 79.25 30.45 82.05 29.2 82.55 26.55 83.3 25.55 84.0 24.6 86.55 21.05 88.25 19.5 L90.75 17.55 Q92.95 16.1 95.75 15.25 98.7 14.35 102.25 14.1 106.4 14.25 110.55 14.35 112.55 14.55 119.8 12.2 L124.4 10.9 128.35 11.05 Q129.65 12.35 131.35 9.3 132.3 7.5 132.7 5.75 L133.0 3.15 Q133.1 1.45 133.2 -0.25 L133.2 -1.05 Q133.1 -2.85 132.55 -4.3 130.65 -9.3 122.0 -12.9 117.65 -14.65 111.55 -16.1 97.0 -19.6 72.3 -21.3 48.6 -22.1 24.9 -22.9 L15.0 -22.95 4.75 -22.5 -0.1 -22.2 Q-4.35 -21.5 -10.9 -19.5 L-12.55 -19.0 Q-19.05 -16.95 -26.6 -16.3 -33.9 -15.7 -42.25 -16.35 L-42.75 -16.35 Q-46.75 -16.65 -50.7 -16.9 -60.45 -17.3 -63.75 -16.15 L-66.4 -15.25 Q-70.6 -13.55 -74.8 -11.85 -81.3 -9.1 -81.65 -2.25"/>
    </path>
    <path d="M-49.0 -5.85 Q-45.3 -8.4 -41.05 -9.75 -38.05 -10.7 -34.8 -11.0 L-32.8 -11.25 Q-26.75 -12.15 -25.05 -14.95 -22.95 -18.4 -21.5 -19.15 L-21.2 -19.3 Q-17.95 -21.0 -10.0 -21.0 -5.25 -21.0 0.05 -18.9 L1.2 -18.45 Q7.2 -15.95 8.5 -15.95 L12.35 -16.65 19.45 -17.85 26.6 -18.95 Q45.8 -22.0 60.5 -22.0 72.55 -22.0 89.0 -16.95 93.75 -15.5 97.15 -14.1 103.75 -11.4 105.4 -9.0 106.0 -8.15 106.0 -7.35 L105.85 -6.8 Q105.5 -6.0 104.1 -5.05 L102.25 -4.0 Q100.9 -3.4 99.55 -2.8 98.25 -2.25 96.9 -1.65 L94.0 -0.4 91.1 0.9 Q87.35 2.7 85.15 4.35 82.0 6.7 82.0 8.85 82.0 12.9 82.2 13.5 82.2 15.45 82.2 17.4 L82.6 19.55 Q82.75 22.15 80.8 23.6 80.0 24.2 78.9 24.6 77.0 24.95 75.05 25.35 72.75 25.55 69.7 25.35 66.5 25.1 63.25 24.85 56.2 24.1 52.05 22.75 L49.05 21.45 Q44.35 18.75 35.0 18.45 L33.55 18.45 32.5 18.45 29.1 18.5 Q18.05 19.45 7.0 20.45 2.95 20.05 -1.1 19.65 -2.7 19.25 -3.9 18.7 -4.85 18.25 -5.95 17.4 -7.55 15.9 -9.2 14.4 -9.95 13.65 -10.75 12.9 -13.05 10.8 -15.35 9.5 L-15.65 9.4 -16.6 8.9 Q-18.85 7.85 -21.7 7.05 L-24.85 6.25 Q-29.7 6.4 -37.95 4.15 -41.05 3.3 -43.4 2.1 -47.3 0.1 -49.0 -2.8 -49.0 -4.3 -49.0 -5.8 L-49.0 -5.85 Z" fill="none" stroke="#000000" stroke-linecap="round" stroke-linejoin="round" stroke-opacity="0.0" stroke-width="0.0">
      <animate attributeName="stroke" dur="2s" repeatCount="indefinite" values="#000000;#000001"/>
      <animate attributeName="stroke-width" dur="2s" repeatCount="indefinite" values="0.0;0.0"/>
      <animate attributeName="fill-opacity" dur="2s" repeatCount="indefinite" values="0.0;0.0"/>
      <animate attributeName="d" dur="2s" repeatCount="indefinite" values="M-49.0 -5.85 Q-45.3 -8.4 -41.05 -9.75 -38.05 -10.7 -34.8 -11.0 L-32.8 -11.25 Q-26.75 -12.15 -25.05 -14.95 -22.95 -18.4 -21.5 -19.15 L-21.2 -19.3 Q-17.95 -21.0 -10.0 -21.0 -5.25 -21.0 0.05 -18.9 L1.2 -18.45 Q7.2 -15.95 8.5 -15.95 L12.35 -16.65 19.45 -17.85 26.6 -18.95 Q45.8 -22.0 60.5 -22.0 72.55 -22.0 89.0 -16.95 93.75 -15.5 97.15 -14.1 103.75 -11.4 105.4 -9.0 106.0 -8.15 106.0 -7.35 L105.85 -6.8 Q105.5 -6.0 104.1 -5.05 L102.25 -4.0 Q100.9 -3.4 99.55 -2.8 98.25 -2.25 96.9 -1.65 L94.0 -0.4 91.1 0.9 Q87.35 2.7 85.15 4.35 82.0 6.7 82.0 8.85 82.0 12.9 82.2 13.5 82.2 15.45 82.2 17.4 L82.6 19.55 Q82.75 22.15 80.8 23.6 80.0 24.2 78.9 24.6 77.0 24.95 75.05 25.35 72.75 25.55 69.7 25.35 66.5 25.1 63.25 24.85 56.2 24.1 52.05 22.75 L49.05 21.45 Q44.35 18.75 35.0 18.45 L33.55 18.45 32.5 18.45 29.1 18.5 Q18.05 19.45 7.0 20.45 2.95 20.05 -1.1 19.65 -2.7 19.25 -3.9 18.7 -4.85 18.25 -5.95 17.4 -7.55 15.9 -9.2 14.4 -9.95 13.65 -10.75 12.9 -13.05 10.8 -15.35 9.5 L-15.65 9.4 -16.6 8.9 Q-18.85 7.85 -21.7 7.05 L-24.85 6.25 Q-29.7 6.4 -37.95 4.15 -41.05 3.3 -43.4 2.1 -47.3 0.1 -49.0 -2.8 -49.0 -4.3 -49.0 -5.8 L-49.0 -5.85 Z;M-81.65 -2.25 Q-81.3 -9.1 -74.8 -11.85 -70.6 -13.55 -66.4 -15.25 L-63.75 -16.15 Q-60.45 -17.3 -50.7 -16.9 -46.75 -16.65 -42.75 -16.35 L-42.25 -16.35 Q-33.9 -15.7 -26.6 -16.3 -19.05 -16.95 -12.55 -19.0 L-10.9 -19.5 Q-4.35 -21.5 -0.1 -22.2 L4.75 -22.5 15.0 -22.95 24.9 -22.9 Q48.6 -22.1 72.3 -21.3 97.0 -19.6 111.55 -16.1 117.65 -14.65 122.0 -12.9 130.65 -9.3 132.55 -4.3 133.1 -2.85 133.2 -1.05 L133.2 -0.25 Q133.1 1.45 133.0 3.15 L132.7 5.75 Q132.3 7.5 131.35 9.3 129.65 12.35 128.35 11.05 L124.4 10.9 119.8 12.2 Q112.55 14.55 110.55 14.35 106.4 14.25 102.25 14.1 98.7 14.35 95.75 15.25 92.95 16.1 90.75 17.55 L88.25 19.5 Q86.55 21.05 84.0 24.6 83.3 25.55 82.55 26.55 82.05 29.2 79.25 30.45 76.6 32.95 73.2 34.35 69.15 36.0 64.0 36.05 55.65 34.1 47.25 32.1 L42.8 34.0 Q31.0 38.95 24.6 41.25 L22.85 41.9 21.35 42.35 17.5 43.25 Q-1.95 43.25 -12.55 41.2 -19.85 39.8 -22.95 37.4 -24.3 36.35 -25.75 34.25 -26.6 32.8 -27.5 31.35 -29.05 28.55 -30.85 26.55 -31.85 25.4 -33.0 24.55 -35.9 22.2 -40.65 22.2 L-41.05 22.2 -42.75 22.35 Q-46.6 22.7 -50.5 23.1 L-54.85 22.95 Q-65.05 22.1 -71.55 17.4 -74.9 14.95 -77.25 11.5 -80.55 6.65 -81.4 1.9 -81.75 -0.2 -81.65 -2.25 L-81.65 -2.25 Z"/>
    </path>
  </g>
</svg>
