<?xml version="1.0" encoding="UTF-8" standalone="no"?>
<svg xmlns:ffdec="https://www.free-decompiler.com/flash" xmlns:xlink="http://www.w3.org/1999/xlink" ffdec:objectType="morphshape" height="20.85px" width="26.85px" xmlns="http://www.w3.org/2000/svg">
  <g transform="matrix(1.0, 0.0, 0.0, 1.0, -1.25, -0.9)">
    <path d="M1.3 9.35 Q1.15 9.75 1.45 10.0 L1.55 10.0 5.15 9.25 5.45 9.25 5.7 9.45 5.75 9.75 Q5.25 14.8 8.4 18.35 11.45 21.8 16.9 21.75 22.35 21.7 25.25 18.65 28.1 15.55 28.1 11.5 28.05 7.45 26.55 5.2 25.05 3.0 22.5 2.3 L19.05 2.1 Q21.95 2.55 23.3 4.45 25.0 6.8 25.3 9.9 25.55 13.05 23.2 15.5 20.85 17.9 17.35 17.75 13.75 17.6 12.05 14.95 10.6 12.85 11.2 10.2 L11.4 9.9 11.7 9.8 11.85 9.8 12.1 9.9 15.4 11.75 15.75 11.85 15.7 11.3 15.75 11.35 Q14.25 6.75 12.6 3.9 11.0 1.2 10.2 0.9 9.4 0.75 5.45 4.75 3.3 7.0 1.3 9.35" fill="#b13a34" fill-rule="evenodd" stroke="none">
      <animate attributeName="fill" dur="2s" repeatCount="indefinite" values="#b13a34;#d9453e"/>
      <animate attributeName="fill-opacity" dur="2s" repeatCount="indefinite" values="1.0;1.0"/>
      <animate attributeName="d" dur="2s" repeatCount="indefinite" values="M1.3 9.35 Q1.15 9.75 1.45 10.0 L1.55 10.0 5.15 9.25 5.45 9.25 5.7 9.45 5.75 9.75 Q5.25 14.8 8.4 18.35 11.45 21.8 16.9 21.75 22.35 21.7 25.25 18.65 28.1 15.55 28.1 11.5 28.05 7.45 26.55 5.2 25.05 3.0 22.5 2.3 L19.05 2.1 Q21.95 2.55 23.3 4.45 25.0 6.8 25.3 9.9 25.55 13.05 23.2 15.5 20.85 17.9 17.35 17.75 13.75 17.6 12.05 14.95 10.6 12.85 11.2 10.2 L11.4 9.9 11.7 9.8 11.85 9.8 12.1 9.9 15.4 11.75 15.75 11.85 15.7 11.3 15.75 11.35 Q14.25 6.75 12.6 3.9 11.0 1.2 10.2 0.9 9.4 0.75 5.45 4.75 3.3 7.0 1.3 9.35;M1.3 9.35 Q1.15 9.75 1.45 10.0 L1.55 10.0 5.15 9.25 5.45 9.25 5.7 9.45 5.75 9.75 Q5.25 14.8 8.4 18.35 11.45 21.8 16.9 21.75 22.35 21.7 25.25 18.65 28.1 15.55 28.1 11.5 28.05 7.45 26.55 5.2 25.05 3.0 22.5 2.3 L19.05 2.1 Q21.95 2.55 23.3 4.45 25.0 6.8 25.3 9.9 25.55 13.05 23.2 15.5 20.85 17.9 17.35 17.75 13.75 17.6 12.05 14.95 10.6 12.85 11.2 10.2 L11.4 9.9 11.7 9.8 11.85 9.8 12.1 9.9 15.4 11.75 15.75 11.85 15.7 11.3 15.75 11.35 Q14.25 6.75 12.6 3.9 11.0 1.2 10.2 0.9 9.4 0.75 5.45 4.75 3.3 7.0 1.3 9.35"/>
    </path>
    <path d="M1.3 9.35 Q3.3 7.0 5.45 4.75 9.4 0.75 10.2 0.9 11.0 1.2 12.6 3.9 14.25 6.75 15.75 11.35 L15.7 11.3 15.75 11.85 15.4 11.75 12.1 9.9 11.85 9.8 11.7 9.8 11.4 9.9 11.2 10.2 Q10.6 12.85 12.05 14.95 13.75 17.6 17.35 17.75 20.85 17.9 23.2 15.5 25.55 13.05 25.3 9.9 25.0 6.8 23.3 4.45 21.95 2.55 19.05 2.1 L22.5 2.3 Q25.05 3.0 26.55 5.2 28.05 7.45 28.1 11.5 28.1 15.55 25.25 18.65 22.35 21.7 16.9 21.75 11.45 21.8 8.4 18.35 5.25 14.8 5.75 9.75 L5.7 9.45 5.45 9.25 5.15 9.25 1.55 10.0 1.45 10.0 Q1.15 9.75 1.3 9.35 Z" fill="none" stroke="#000000" stroke-linecap="round" stroke-linejoin="round" stroke-opacity="0.0" stroke-width="0.0">
      <animate attributeName="stroke" dur="2s" repeatCount="indefinite" values="#000000;#000001"/>
      <animate attributeName="stroke-width" dur="2s" repeatCount="indefinite" values="0.0;0.0"/>
      <animate attributeName="fill-opacity" dur="2s" repeatCount="indefinite" values="0.0;0.0"/>
      <animate attributeName="d" dur="2s" repeatCount="indefinite" values="M1.3 9.35 Q3.3 7.0 5.45 4.75 9.4 0.75 10.2 0.9 11.0 1.2 12.6 3.9 14.25 6.75 15.75 11.35 L15.7 11.3 15.75 11.85 15.4 11.75 12.1 9.9 11.85 9.8 11.7 9.8 11.4 9.9 11.2 10.2 Q10.6 12.85 12.05 14.95 13.75 17.6 17.35 17.75 20.85 17.9 23.2 15.5 25.55 13.05 25.3 9.9 25.0 6.8 23.3 4.45 21.95 2.55 19.05 2.1 L22.5 2.3 Q25.05 3.0 26.55 5.2 28.05 7.45 28.1 11.5 28.1 15.55 25.25 18.65 22.35 21.7 16.9 21.75 11.45 21.8 8.4 18.35 5.25 14.8 5.75 9.75 L5.7 9.45 5.45 9.25 5.15 9.25 1.55 10.0 1.45 10.0 Q1.15 9.75 1.3 9.35 Z;M1.3 9.35 Q3.3 7.0 5.45 4.75 9.4 0.75 10.2 0.9 11.0 1.2 12.6 3.9 14.25 6.75 15.75 11.35 L15.7 11.3 15.75 11.85 15.4 11.75 12.1 9.9 11.85 9.8 11.7 9.8 11.4 9.9 11.2 10.2 Q10.6 12.85 12.05 14.95 13.75 17.6 17.35 17.75 20.85 17.9 23.2 15.5 25.55 13.05 25.3 9.9 25.0 6.8 23.3 4.45 21.95 2.55 19.05 2.1 L22.5 2.3 Q25.05 3.0 26.55 5.2 28.05 7.45 28.1 11.5 28.1 15.55 25.25 18.65 22.35 21.7 16.9 21.75 11.45 21.8 8.4 18.35 5.25 14.8 5.75 9.75 L5.7 9.45 5.45 9.25 5.15 9.25 1.55 10.0 1.45 10.0 Q1.15 9.75 1.3 9.35 Z"/>
    </path>
  </g>
</svg>
