<?xml version="1.0" encoding="UTF-8" standalone="no"?>
<svg xmlns:ffdec="https://www.free-decompiler.com/flash" xmlns:xlink="http://www.w3.org/1999/xlink" ffdec:objectType="morphshape" height="18.75px" width="5.95px" xmlns="http://www.w3.org/2000/svg">
  <g transform="matrix(1.0, 0.0, 0.0, 1.0, 0.0, 0.0)">
    <path d="M0.0 6.9 Q0.0 7.65 0.7 8.35 1.35 9.1 1.35 9.75 1.3 10.45 1.25 11.15 1.25 11.8 1.85 12.95 L2.4 14.55 Q2.1 18.1 3.1 18.1 3.7 18.1 4.1 16.8 4.3 16.0 4.45 15.2 L5.0 13.6 Q5.2 12.8 5.4 12.05 5.25 11.25 5.15 10.45 5.0 9.8 4.85 9.2 4.85 8.2 5.4 7.1 5.95 5.95 5.95 5.2 5.8 4.5 5.7 3.85 5.25 3.15 4.85 2.5 L4.5 1.25 Q3.95 0.0 2.9 0.0 1.65 0.0 1.05 1.15 0.65 1.85 0.65 2.5 0.65 3.15 0.95 3.75 1.1 4.15 1.25 4.5 1.25 5.0 0.65 5.7 0.0 6.45 0.0 6.9" fill="#7bd8e7" fill-opacity="0.36078432" fill-rule="evenodd" stroke="none">
      <animate attributeName="fill" dur="2s" repeatCount="indefinite" values="#7bd8e7;#7bd8e8"/>
      <animate attributeName="fill-opacity" dur="2s" repeatCount="indefinite" values="0.36078432;0.36078432"/>
      <animate attributeName="d" dur="2s" repeatCount="indefinite" values="M0.0 6.9 Q0.0 7.65 0.7 8.35 1.35 9.1 1.35 9.75 1.3 10.45 1.25 11.15 1.25 11.8 1.85 12.95 L2.4 14.55 Q2.1 18.1 3.1 18.1 3.7 18.1 4.1 16.8 4.3 16.0 4.45 15.2 L5.0 13.6 Q5.2 12.8 5.4 12.05 5.25 11.25 5.15 10.45 5.0 9.8 4.85 9.2 4.85 8.2 5.4 7.1 5.95 5.95 5.95 5.2 5.8 4.5 5.7 3.85 5.25 3.15 4.85 2.5 L4.5 1.25 Q3.95 0.0 2.9 0.0 1.65 0.0 1.05 1.15 0.65 1.85 0.65 2.5 0.65 3.15 0.95 3.75 1.1 4.15 1.25 4.5 1.25 5.0 0.65 5.7 0.0 6.45 0.0 6.9;M0.3 3.85 Q0.45 4.25 0.55 4.6 0.8 5.0 0.5 6.05 0.2 7.1 0.8 8.1 1.35 9.1 1.35 9.75 L1.25 11.15 Q1.2 11.75 2.3 13.1 3.35 14.45 3.0 16.8 2.65 19.15 3.2 18.65 L4.1 16.8 Q4.4 15.4 4.2 14.7 4.0 13.95 4.4 12.4 4.75 10.8 5.05 10.65 5.3 10.45 4.85 9.9 4.4 9.35 4.4 8.8 4.4 8.2 5.2 7.1 5.95 5.95 5.95 5.2 L5.7 3.85 Q5.25 3.15 4.85 2.5 4.65 1.85 4.5 1.25 3.95 0.0 2.9 0.0 1.65 0.0 1.05 1.15 0.65 1.85 0.65 2.5 0.55 2.95 0.5 3.35 0.4 3.6 0.3 3.85"/>
    </path>
    <path d="M0.0 6.9 Q0.0 6.45 0.65 5.7 1.25 5.0 1.25 4.5 1.1 4.15 0.95 3.75 0.65 3.15 0.65 2.5 0.65 1.85 1.05 1.15 1.65 0.0 2.9 0.0 3.95 0.0 4.5 1.25 L4.85 2.5 Q5.25 3.15 5.7 3.85 5.8 4.5 5.95 5.2 5.95 5.95 5.4 7.1 4.85 8.2 4.85 9.2 5.0 9.8 5.15 10.45 5.25 11.25 5.4 12.05 5.2 12.8 5.0 13.6 L4.45 15.2 Q4.3 16.0 4.1 16.8 3.7 18.1 3.1 18.1 2.1 18.1 2.4 14.55 L1.85 12.95 Q1.25 11.8 1.25 11.15 1.3 10.45 1.35 9.75 1.35 9.1 0.7 8.35 0.0 7.65 0.0 6.9 Z" fill="none" stroke="#000000" stroke-linecap="round" stroke-linejoin="round" stroke-opacity="0.0" stroke-width="0.0">
      <animate attributeName="stroke" dur="2s" repeatCount="indefinite" values="#000000;#000001"/>
      <animate attributeName="stroke-width" dur="2s" repeatCount="indefinite" values="0.0;0.0"/>
      <animate attributeName="fill-opacity" dur="2s" repeatCount="indefinite" values="0.0;0.0"/>
      <animate attributeName="d" dur="2s" repeatCount="indefinite" values="M0.0 6.9 Q0.0 6.45 0.65 5.7 1.25 5.0 1.25 4.5 1.1 4.15 0.95 3.75 0.65 3.15 0.65 2.5 0.65 1.85 1.05 1.15 1.65 0.0 2.9 0.0 3.95 0.0 4.5 1.25 L4.85 2.5 Q5.25 3.15 5.7 3.85 5.8 4.5 5.95 5.2 5.95 5.95 5.4 7.1 4.85 8.2 4.85 9.2 5.0 9.8 5.15 10.45 5.25 11.25 5.4 12.05 5.2 12.8 5.0 13.6 L4.45 15.2 Q4.3 16.0 4.1 16.8 3.7 18.1 3.1 18.1 2.1 18.1 2.4 14.55 L1.85 12.95 Q1.25 11.8 1.25 11.15 1.3 10.45 1.35 9.75 1.35 9.1 0.7 8.35 0.0 7.65 0.0 6.9 Z;M0.3 3.85 Q0.4 3.6 0.5 3.35 0.55 2.95 0.65 2.5 0.65 1.85 1.05 1.15 1.65 0.0 2.9 0.0 3.95 0.0 4.5 1.25 4.65 1.85 4.85 2.5 5.25 3.15 5.7 3.85 L5.95 5.2 Q5.95 5.95 5.2 7.1 4.4 8.2 4.4 8.8 4.4 9.35 4.85 9.9 5.3 10.45 5.05 10.65 4.75 10.8 4.4 12.4 4.0 13.95 4.2 14.7 4.4 15.4 4.1 16.8 L3.2 18.65 Q2.65 19.15 3.0 16.8 3.35 14.45 2.3 13.1 1.2 11.75 1.25 11.15 L1.35 9.75 Q1.35 9.1 0.8 8.1 0.2 7.1 0.5 6.05 0.8 5.0 0.55 4.6 0.45 4.25 0.3 3.85 Z"/>
    </path>
  </g>
</svg>
