<?xml version="1.0" encoding="UTF-8" standalone="no"?>
<svg xmlns:ffdec="https://www.free-decompiler.com/flash" xmlns:xlink="http://www.w3.org/1999/xlink" ffdec:objectType="morphshape" height="14.1px" width="4.7px" xmlns="http://www.w3.org/2000/svg">
  <g transform="matrix(1.0, 0.0, 0.0, 1.0, -0.75, -0.6)">
    <path d="M1.25 5.65 Q0.2 7.1 1.4 8.0 2.55 8.8 1.9 9.4 1.25 10.0 2.45 11.15 3.3 11.75 3.3 13.0 3.25 15.85 3.95 13.9 5.5 11.7 4.5 10.7 3.5 9.65 4.0 8.55 4.45 7.45 4.95 6.85 5.2 6.25 5.45 5.7 5.5 4.0 4.45 3.0 3.85 0.7 3.0 0.6 2.1 0.5 1.5 1.05 0.9 1.55 1.6 2.85 2.25 4.15 1.25 5.65" fill="#ffffff" fill-rule="evenodd" stroke="none">
      <animate attributeName="fill" dur="2s" repeatCount="indefinite" values="#ffffff;#ffffff"/>
      <animate attributeName="fill-opacity" dur="2s" repeatCount="indefinite" values="1.0;1.0"/>
      <animate attributeName="d" dur="2s" repeatCount="indefinite" values="M1.25 5.65 Q0.2 7.1 1.4 8.0 2.55 8.8 1.9 9.4 1.25 10.0 2.45 11.15 3.3 11.75 3.3 13.0 3.25 15.85 3.95 13.9 5.5 11.7 4.5 10.7 3.5 9.65 4.0 8.55 4.45 7.45 4.95 6.85 5.2 6.25 5.45 5.7 5.5 4.0 4.45 3.0 3.85 0.7 3.0 0.6 2.1 0.5 1.5 1.05 0.9 1.55 1.6 2.85 2.25 4.15 1.25 5.65;M1.4 2.65 Q1.85 3.75 1.85 5.15 1.7 6.0 1.6 6.8 1.4 7.05 1.5 8.15 1.65 9.25 2.6 10.3 3.5 11.35 3.4 12.5 3.3 13.65 3.7 12.8 4.05 11.9 3.8 10.8 3.5 9.65 4.0 8.55 4.45 7.45 4.95 6.85 5.2 6.25 5.45 5.7 5.5 4.0 4.45 3.0 3.85 0.7 3.0 0.6 2.1 0.5 1.5 1.05 0.9 1.55 1.4 2.65"/>
    </path>
    <path d="M1.25 5.65 Q2.25 4.15 1.6 2.85 0.9 1.55 1.5 1.05 2.1 0.5 3.0 0.6 3.85 0.7 4.45 3.0 5.5 4.0 5.45 5.7 5.2 6.25 4.95 6.85 4.45 7.45 4.0 8.55 3.5 9.65 4.5 10.7 5.5 11.7 3.95 13.9 3.25 15.85 3.3 13.0 3.3 11.75 2.45 11.15 1.25 10.0 1.9 9.4 2.55 8.8 1.4 8.0 0.2 7.1 1.25 5.65 Z" fill="none" stroke="#000000" stroke-linecap="round" stroke-linejoin="round" stroke-opacity="0.0" stroke-width="0.0">
      <animate attributeName="stroke" dur="2s" repeatCount="indefinite" values="#000000;#000001"/>
      <animate attributeName="stroke-width" dur="2s" repeatCount="indefinite" values="0.0;0.0"/>
      <animate attributeName="fill-opacity" dur="2s" repeatCount="indefinite" values="0.0;0.0"/>
      <animate attributeName="d" dur="2s" repeatCount="indefinite" values="M1.25 5.65 Q2.25 4.15 1.6 2.85 0.9 1.55 1.5 1.05 2.1 0.5 3.0 0.6 3.85 0.7 4.45 3.0 5.5 4.0 5.45 5.7 5.2 6.25 4.95 6.85 4.45 7.45 4.0 8.55 3.5 9.65 4.5 10.7 5.5 11.7 3.95 13.9 3.25 15.85 3.3 13.0 3.3 11.75 2.45 11.15 1.25 10.0 1.9 9.4 2.55 8.8 1.4 8.0 0.2 7.1 1.25 5.65 Z;M1.4 2.65 Q0.9 1.55 1.5 1.05 2.1 0.5 3.0 0.6 3.85 0.7 4.45 3.0 5.5 4.0 5.45 5.7 5.2 6.25 4.95 6.85 4.45 7.45 4.0 8.55 3.5 9.65 3.8 10.8 4.05 11.9 3.7 12.8 3.3 13.65 3.4 12.5 3.5 11.35 2.6 10.3 1.65 9.25 1.5 8.15 1.4 7.05 1.6 6.8 1.7 6.0 1.85 5.15 1.85 3.75 1.4 2.65 Z"/>
    </path>
  </g>
</svg>
