<?xml version="1.0" encoding="UTF-8" standalone="no"?>
<svg xmlns:ffdec="https://www.free-decompiler.com/flash" xmlns:xlink="http://www.w3.org/1999/xlink" ffdec:objectType="morphshape" height="18.75px" width="5.65px" xmlns="http://www.w3.org/2000/svg">
  <g transform="matrix(1.0, 0.0, 0.0, 1.0, -0.3, 0.0)">
    <path d="M0.3 3.85 Q0.45 4.25 0.55 4.6 0.8 5.0 0.5 6.05 0.2 7.1 0.8 8.1 1.35 9.1 1.35 9.75 1.3 10.45 1.25 11.15 1.2 11.75 2.3 13.1 3.35 14.45 3.0 16.8 2.65 19.15 3.2 18.65 3.65 17.7 4.1 16.8 4.4 15.4 4.2 14.7 4.0 13.95 4.4 12.4 4.75 10.8 5.05 10.65 5.3 10.45 4.85 9.9 4.4 9.35 4.4 8.8 4.4 8.2 5.2 7.1 5.95 5.95 5.95 5.2 5.8 4.5 5.7 3.85 5.25 3.15 4.85 2.5 L4.5 1.25 Q3.95 0.0 2.9 0.0 1.65 0.0 1.05 1.15 0.65 1.85 0.65 2.5 0.55 2.95 0.5 3.35 0.4 3.6 0.3 3.85" fill="#7bd8e7" fill-opacity="0.36078432" fill-rule="evenodd" stroke="none">
      <animate attributeName="fill" dur="2s" repeatCount="indefinite" values="#7bd8e7;#7bd8e8"/>
      <animate attributeName="fill-opacity" dur="2s" repeatCount="indefinite" values="0.36078432;0.36078432"/>
      <animate attributeName="d" dur="2s" repeatCount="indefinite" values="M0.3 3.85 Q0.45 4.25 0.55 4.6 0.8 5.0 0.5 6.05 0.2 7.1 0.8 8.1 1.35 9.1 1.35 9.75 1.3 10.45 1.25 11.15 1.2 11.75 2.3 13.1 3.35 14.45 3.0 16.8 2.65 19.15 3.2 18.65 3.65 17.7 4.1 16.8 4.4 15.4 4.2 14.7 4.0 13.95 4.4 12.4 4.75 10.8 5.05 10.65 5.3 10.45 4.85 9.9 4.4 9.35 4.4 8.8 4.4 8.2 5.2 7.1 5.95 5.95 5.95 5.2 5.8 4.5 5.7 3.85 5.25 3.15 4.85 2.5 L4.5 1.25 Q3.95 0.0 2.9 0.0 1.65 0.0 1.05 1.15 0.65 1.85 0.65 2.5 0.55 2.95 0.5 3.35 0.4 3.6 0.3 3.85;M0.65 2.5 Q0.65 3.15 0.95 3.75 1.1 4.15 1.25 4.5 1.1 5.15 0.95 5.75 0.65 6.5 0.65 7.1 0.65 7.7 1.0 8.4 1.35 9.1 1.35 9.75 1.3 10.45 1.25 11.15 1.5 12.05 2.2 12.0 2.9 11.9 2.9 13.7 2.9 15.5 3.65 17.1 4.35 18.7 4.55 16.95 4.65 15.8 4.75 14.65 4.7 14.1 5.15 13.0 5.55 11.9 5.4 11.4 5.75 10.75 5.45 10.25 5.15 9.7 4.85 9.2 4.85 8.2 5.4 7.1 5.95 5.95 5.95 5.2 L5.7 3.85 Q5.25 3.15 4.85 2.5 4.65 1.85 4.5 1.25 3.95 0.0 2.9 0.0 1.65 0.0 1.05 1.15 0.65 1.85 0.65 2.5"/>
    </path>
    <path d="M0.3 3.85 Q0.4 3.6 0.5 3.35 0.55 2.95 0.65 2.5 0.65 1.85 1.05 1.15 1.65 0.0 2.9 0.0 3.95 0.0 4.5 1.25 L4.85 2.5 Q5.25 3.15 5.7 3.85 5.8 4.5 5.95 5.2 5.95 5.95 5.2 7.1 4.4 8.2 4.4 8.8 4.4 9.35 4.85 9.9 5.3 10.45 5.05 10.65 4.75 10.8 4.4 12.4 4.0 13.95 4.2 14.7 4.4 15.4 4.1 16.8 3.65 17.7 3.2 18.65 2.65 19.15 3.0 16.8 3.35 14.45 2.3 13.1 1.2 11.75 1.25 11.15 1.3 10.45 1.35 9.75 1.35 9.1 0.8 8.1 0.2 7.1 0.5 6.05 0.8 5.0 0.55 4.6 0.45 4.25 0.3 3.85 Z" fill="none" stroke="#000000" stroke-linecap="round" stroke-linejoin="round" stroke-opacity="0.0" stroke-width="0.0">
      <animate attributeName="stroke" dur="2s" repeatCount="indefinite" values="#000000;#000001"/>
      <animate attributeName="stroke-width" dur="2s" repeatCount="indefinite" values="0.0;0.0"/>
      <animate attributeName="fill-opacity" dur="2s" repeatCount="indefinite" values="0.0;0.0"/>
      <animate attributeName="d" dur="2s" repeatCount="indefinite" values="M0.3 3.85 Q0.4 3.6 0.5 3.35 0.55 2.95 0.65 2.5 0.65 1.85 1.05 1.15 1.65 0.0 2.9 0.0 3.95 0.0 4.5 1.25 L4.85 2.5 Q5.25 3.15 5.7 3.85 5.8 4.5 5.95 5.2 5.95 5.95 5.2 7.1 4.4 8.2 4.4 8.8 4.4 9.35 4.85 9.9 5.3 10.45 5.05 10.65 4.75 10.8 4.4 12.4 4.0 13.95 4.2 14.7 4.4 15.4 4.1 16.8 3.65 17.7 3.2 18.65 2.65 19.15 3.0 16.8 3.35 14.45 2.3 13.1 1.2 11.75 1.25 11.15 1.3 10.45 1.35 9.75 1.35 9.1 0.8 8.1 0.2 7.1 0.5 6.05 0.8 5.0 0.55 4.6 0.45 4.25 0.3 3.85 Z;M0.65 2.5 Q0.65 1.85 1.05 1.15 1.65 0.0 2.9 0.0 3.95 0.0 4.5 1.25 4.65 1.85 4.85 2.5 5.25 3.15 5.7 3.85 L5.95 5.2 Q5.95 5.95 5.4 7.1 4.85 8.2 4.85 9.2 5.15 9.7 5.45 10.25 5.75 10.75 5.4 11.4 5.55 11.9 5.15 13.0 4.7 14.1 4.75 14.65 4.65 15.8 4.55 16.95 4.35 18.7 3.65 17.1 2.9 15.5 2.9 13.7 2.9 11.9 2.2 12.0 1.5 12.05 1.25 11.15 1.3 10.45 1.35 9.75 1.35 9.1 1.0 8.4 0.65 7.7 0.65 7.1 0.65 6.5 0.95 5.75 1.1 5.15 1.25 4.5 1.1 4.15 0.95 3.75 0.65 3.15 0.65 2.5 Z"/>
    </path>
  </g>
</svg>
