<?xml version="1.0" encoding="UTF-8" standalone="no"?>
<svg xmlns:ffdec="https://www.free-decompiler.com/flash" xmlns:xlink="http://www.w3.org/1999/xlink" ffdec:objectType="morphshape" height="16.25px" width="4.3px" xmlns="http://www.w3.org/2000/svg">
  <g transform="matrix(1.0, 0.0, 0.0, 1.0, -1.15, -0.55)">
    <path d="M1.4 2.65 L1.4 2.65 Q1.65 3.65 1.85 4.65 L1.85 5.15 1.8 6.0 Q1.7 6.4 1.6 6.8 L1.6 6.9 Q1.4 7.2 1.5 8.15 L1.5 8.25 Q1.6 9.1 2.3 9.9 L2.6 10.3 Q3.5 11.35 3.4 12.5 L3.4 12.85 Q3.4 13.5 3.7 12.8 L3.9 11.35 3.8 10.8 Q3.5 9.65 4.0 8.55 L4.25 8.0 Q4.6 7.4 4.95 6.85 L5.4 6.1 5.45 5.7 Q5.4 5.3 5.4 4.95 5.3 4.1 4.8 3.45 L4.45 3.0 4.1 1.95 Q3.6 0.65 3.0 0.6 L2.45 0.6 Q1.9 0.65 1.5 1.05 L1.3 1.35 Q1.05 1.85 1.4 2.65" fill="#ffffff" fill-rule="evenodd" stroke="none">
      <animate attributeName="fill" dur="2s" repeatCount="indefinite" values="#ffffff;#ffffff"/>
      <animate attributeName="fill-opacity" dur="2s" repeatCount="indefinite" values="1.0;1.0"/>
      <animate attributeName="d" dur="2s" repeatCount="indefinite" values="M1.4 2.65 L1.4 2.65 Q1.65 3.65 1.85 4.65 L1.85 5.15 1.8 6.0 Q1.7 6.4 1.6 6.8 L1.6 6.9 Q1.4 7.2 1.5 8.15 L1.5 8.25 Q1.6 9.1 2.3 9.9 L2.6 10.3 Q3.5 11.35 3.4 12.5 L3.4 12.85 Q3.4 13.5 3.7 12.8 L3.9 11.35 3.8 10.8 Q3.5 9.65 4.0 8.55 L4.25 8.0 Q4.6 7.4 4.95 6.85 L5.4 6.1 5.45 5.7 Q5.4 5.3 5.4 4.95 5.3 4.1 4.8 3.45 L4.45 3.0 4.1 1.95 Q3.6 0.65 3.0 0.6 L2.45 0.6 Q1.9 0.65 1.5 1.05 L1.3 1.35 Q1.05 1.85 1.4 2.65;M1.4 2.65 L1.4 2.75 Q1.85 3.8 1.85 5.15 L1.85 5.8 1.6 6.8 Q1.4 7.05 1.55 7.7 L1.55 7.8 Q1.8 8.75 2.0 9.65 L2.05 9.85 Q2.5 10.95 2.95 12.05 L2.95 12.65 Q2.9 14.55 3.2 15.7 L3.3 16.1 Q3.6 17.05 3.8 16.7 L4.1 14.75 4.15 14.2 Q4.3 12.35 4.1 11.4 L3.95 10.6 Q3.65 10.0 3.75 9.3 L4.0 8.55 4.15 8.05 Q4.3 7.3 3.85 6.85 3.2 6.2 3.9 5.1 L4.2 4.5 4.45 3.0 Q4.1 1.6 3.65 1.05 L3.0 0.6 Q2.4 0.7 1.85 0.8 L1.5 1.05 Q0.9 1.55 1.4 2.65"/>
    </path>
    <path d="M1.4 2.65 Q1.05 1.85 1.3 1.35 L1.5 1.05 Q1.9 0.65 2.45 0.6 L3.0 0.6 Q3.6 0.65 4.1 1.95 L4.45 3.0 4.8 3.45 Q5.3 4.1 5.4 4.95 5.4 5.3 5.45 5.7 L5.4 6.1 4.95 6.85 Q4.6 7.4 4.25 8.0 L4.0 8.55 Q3.5 9.65 3.8 10.8 L3.9 11.35 3.7 12.8 Q3.4 13.5 3.4 12.85 L3.4 12.5 Q3.5 11.35 2.6 10.3 L2.3 9.9 Q1.6 9.1 1.5 8.25 L1.5 8.15 Q1.4 7.2 1.6 6.9 L1.6 6.8 Q1.7 6.4 1.8 6.0 L1.85 5.15 1.85 4.65 Q1.65 3.65 1.4 2.65 L1.4 2.65 Z" fill="none" stroke="#000000" stroke-linecap="round" stroke-linejoin="round" stroke-opacity="0.0" stroke-width="0.0">
      <animate attributeName="stroke" dur="2s" repeatCount="indefinite" values="#000000;#000001"/>
      <animate attributeName="stroke-width" dur="2s" repeatCount="indefinite" values="0.0;0.0"/>
      <animate attributeName="fill-opacity" dur="2s" repeatCount="indefinite" values="0.0;0.0"/>
      <animate attributeName="d" dur="2s" repeatCount="indefinite" values="M1.4 2.65 Q1.05 1.85 1.3 1.35 L1.5 1.05 Q1.9 0.65 2.45 0.6 L3.0 0.6 Q3.6 0.65 4.1 1.95 L4.45 3.0 4.8 3.45 Q5.3 4.1 5.4 4.95 5.4 5.3 5.45 5.7 L5.4 6.1 4.95 6.85 Q4.6 7.4 4.25 8.0 L4.0 8.55 Q3.5 9.65 3.8 10.8 L3.9 11.35 3.7 12.8 Q3.4 13.5 3.4 12.85 L3.4 12.5 Q3.5 11.35 2.6 10.3 L2.3 9.9 Q1.6 9.1 1.5 8.25 L1.5 8.15 Q1.4 7.2 1.6 6.9 L1.6 6.8 Q1.7 6.4 1.8 6.0 L1.85 5.15 1.85 4.65 Q1.65 3.65 1.4 2.65 L1.4 2.65 Z;M1.4 2.65 Q0.9 1.55 1.5 1.05 L1.85 0.8 Q2.4 0.7 3.0 0.6 L3.65 1.05 Q4.1 1.6 4.45 3.0 L4.2 4.5 3.9 5.1 Q3.2 6.2 3.85 6.85 4.3 7.3 4.15 8.05 L4.0 8.55 3.75 9.3 Q3.65 10.0 3.95 10.6 L4.1 11.4 Q4.3 12.35 4.15 14.2 L4.1 14.75 3.8 16.7 Q3.6 17.05 3.3 16.1 L3.2 15.7 Q2.9 14.55 2.95 12.65 L2.95 12.05 Q2.5 10.95 2.05 9.85 L2.0 9.65 Q1.8 8.75 1.55 7.8 L1.55 7.7 Q1.4 7.05 1.6 6.8 L1.85 5.8 1.85 5.15 Q1.85 3.8 1.4 2.75 L1.4 2.65 Z"/>
    </path>
  </g>
</svg>
