<?xml version="1.0" encoding="UTF-8" standalone="no"?>
<svg xmlns:ffdec="https://www.free-decompiler.com/flash" xmlns:xlink="http://www.w3.org/1999/xlink" ffdec:objectType="morphshape" height="16.2px" width="4.7px" xmlns="http://www.w3.org/2000/svg">
  <g transform="matrix(1.0, 0.0, 0.0, 1.0, -0.75, -0.6)">
    <path d="M1.4 2.65 Q1.85 3.75 1.85 5.15 L1.8 5.85 1.6 6.8 1.5 7.45 1.55 7.8 Q1.8 8.85 2.05 9.85 L2.2 10.4 Q2.5 11.4 2.95 12.05 L2.95 12.9 Q2.95 14.9 3.3 16.1 L3.3 16.1 Q3.85 17.95 4.1 14.75 L4.15 13.55 Q4.25 11.35 3.95 10.6 L3.85 10.4 Q3.55 9.55 4.0 8.55 L4.1 8.35 Q4.35 7.55 4.0 7.05 L3.85 6.85 Q3.2 6.2 3.9 5.1 4.45 4.15 4.45 3.3 L4.45 3.0 Q3.85 0.7 3.0 0.6 L2.65 0.6 Q2.1 0.6 1.7 0.85 L1.6 1.05 1.5 1.05 Q1.2 1.3 1.2 1.7 1.15 2.1 1.4 2.65" fill="#ffffff" fill-rule="evenodd" stroke="none">
      <animate attributeName="fill" dur="2s" repeatCount="indefinite" values="#ffffff;#ffffff"/>
      <animate attributeName="fill-opacity" dur="2s" repeatCount="indefinite" values="1.0;1.0"/>
      <animate attributeName="d" dur="2s" repeatCount="indefinite" values="M1.4 2.65 Q1.85 3.75 1.85 5.15 L1.8 5.85 1.6 6.8 1.5 7.45 1.55 7.8 Q1.8 8.85 2.05 9.85 L2.2 10.4 Q2.5 11.4 2.95 12.05 L2.95 12.9 Q2.95 14.9 3.3 16.1 L3.3 16.1 Q3.85 17.95 4.1 14.75 L4.15 13.55 Q4.25 11.35 3.95 10.6 L3.85 10.4 Q3.55 9.55 4.0 8.55 L4.1 8.35 Q4.35 7.55 4.0 7.05 L3.85 6.85 Q3.2 6.2 3.9 5.1 4.45 4.15 4.45 3.3 L4.45 3.0 Q3.85 0.7 3.0 0.6 L2.65 0.6 Q2.1 0.6 1.7 0.85 L1.6 1.05 1.5 1.05 Q1.2 1.3 1.2 1.7 1.15 2.1 1.4 2.65;M1.25 5.65 Q0.4 6.8 1.0 7.6 L1.4 8.0 2.15 8.85 1.9 9.4 1.8 9.5 Q1.45 10.05 2.2 10.85 L2.45 11.15 Q3.1 11.6 3.25 12.45 L3.3 13.0 Q3.25 15.85 3.95 13.9 L4.05 13.8 Q4.95 12.45 4.9 11.55 L4.5 10.7 Q3.55 9.7 3.95 8.65 L4.0 8.55 Q4.4 7.5 4.85 6.95 L4.95 6.85 Q5.2 6.25 5.45 5.7 L5.45 5.6 Q5.35 4.9 5.25 4.2 4.85 3.6 4.45 3.0 L4.45 2.9 Q3.95 1.2 3.35 0.7 L3.0 0.6 Q2.5 0.7 2.05 0.75 L1.5 1.05 1.3 1.4 Q1.1 1.9 1.6 2.85 2.25 4.15 1.25 5.65"/>
    </path>
    <path d="M1.4 2.65 Q1.15 2.1 1.2 1.7 1.2 1.3 1.5 1.05 L1.6 1.05 1.7 0.85 Q2.1 0.6 2.65 0.6 L3.0 0.6 Q3.85 0.7 4.45 3.0 L4.45 3.3 Q4.45 4.15 3.9 5.1 3.2 6.2 3.85 6.85 L4.0 7.05 Q4.35 7.55 4.1 8.35 L4.0 8.55 Q3.55 9.55 3.85 10.4 L3.95 10.6 Q4.25 11.35 4.15 13.55 L4.1 14.75 Q3.85 17.95 3.3 16.1 L3.3 16.1 Q2.95 14.9 2.95 12.9 L2.95 12.05 Q2.5 11.4 2.2 10.4 L2.05 9.85 Q1.8 8.85 1.55 7.8 L1.5 7.45 1.6 6.8 1.8 5.85 1.85 5.15 Q1.85 3.75 1.4 2.65 Z" fill="none" stroke="#000000" stroke-linecap="round" stroke-linejoin="round" stroke-opacity="0.0" stroke-width="0.0">
      <animate attributeName="stroke" dur="2s" repeatCount="indefinite" values="#000000;#000001"/>
      <animate attributeName="stroke-width" dur="2s" repeatCount="indefinite" values="0.0;0.0"/>
      <animate attributeName="fill-opacity" dur="2s" repeatCount="indefinite" values="0.0;0.0"/>
      <animate attributeName="d" dur="2s" repeatCount="indefinite" values="M1.4 2.65 Q1.15 2.1 1.2 1.7 1.2 1.3 1.5 1.05 L1.6 1.05 1.7 0.85 Q2.1 0.6 2.65 0.6 L3.0 0.6 Q3.85 0.7 4.45 3.0 L4.45 3.3 Q4.45 4.15 3.9 5.1 3.2 6.2 3.85 6.85 L4.0 7.05 Q4.35 7.55 4.1 8.35 L4.0 8.55 Q3.55 9.55 3.85 10.4 L3.95 10.6 Q4.25 11.35 4.15 13.55 L4.1 14.75 Q3.85 17.95 3.3 16.1 L3.3 16.1 Q2.95 14.9 2.95 12.9 L2.95 12.05 Q2.5 11.4 2.2 10.4 L2.05 9.85 Q1.8 8.85 1.55 7.8 L1.5 7.45 1.6 6.8 1.8 5.85 1.85 5.15 Q1.85 3.75 1.4 2.65 Z;M1.25 5.65 Q2.25 4.15 1.6 2.85 1.1 1.9 1.3 1.4 L1.5 1.05 2.05 0.75 Q2.5 0.7 3.0 0.6 L3.35 0.7 Q3.95 1.2 4.45 2.9 L4.45 3.0 Q4.85 3.6 5.25 4.2 5.35 4.9 5.45 5.6 L5.45 5.7 Q5.2 6.25 4.95 6.85 L4.85 6.95 Q4.4 7.5 4.0 8.55 L3.95 8.65 Q3.55 9.7 4.5 10.7 L4.9 11.55 Q4.95 12.45 4.05 13.8 L3.95 13.9 Q3.25 15.85 3.3 13.0 L3.25 12.45 Q3.1 11.6 2.45 11.15 L2.2 10.85 Q1.45 10.05 1.8 9.5 L1.9 9.4 2.15 8.85 1.4 8.0 1.0 7.6 Q0.4 6.8 1.25 5.65 Z"/>
    </path>
  </g>
</svg>
