<?xml version="1.0" encoding="UTF-8" standalone="no"?>
<svg xmlns:ffdec="https://www.free-decompiler.com/flash" xmlns:xlink="http://www.w3.org/1999/xlink" ffdec:objectType="morphshape" height="18.1px" width="5.95px" xmlns="http://www.w3.org/2000/svg">
  <g transform="matrix(1.0, 0.0, 0.0, 1.0, 0.0, 0.0)">
    <path d="M0.65 2.5 Q0.65 3.15 0.95 3.75 L1.25 4.4 1.25 4.5 0.95 5.75 0.75 6.5 0.65 7.1 0.9 8.3 1.0 8.4 Q1.35 9.1 1.35 9.75 L1.25 11.05 1.25 11.15 Q1.5 12.05 2.2 12.0 2.65 11.95 2.8 12.7 L2.9 13.7 Q2.9 15.5 3.65 17.1 L4.05 17.8 Q4.4 18.1 4.55 16.95 L4.55 16.85 4.7 15.55 4.75 14.65 4.8 14.2 5.15 13.0 5.15 13.0 5.45 11.75 5.4 11.4 5.6 10.75 5.45 10.25 Q5.15 9.7 4.85 9.2 L4.85 9.2 Q4.85 8.4 5.2 7.6 L5.4 7.1 5.65 6.55 5.95 5.3 5.95 5.2 5.85 4.3 5.7 3.85 Q5.25 3.15 4.85 2.5 L4.85 2.5 Q4.65 1.85 4.5 1.25 L4.1 0.55 Q3.7 0.05 3.1 0.0 L2.9 0.0 2.2 0.1 Q1.85 0.2 1.6 0.45 1.3 0.8 1.05 1.15 L1.05 1.25 Q0.65 1.9 0.65 2.5" fill="#7bd8e7" fill-opacity="0.36078432" fill-rule="evenodd" stroke="none">
      <animate attributeName="fill" dur="2s" repeatCount="indefinite" values="#7bd8e7;#7bd8e8"/>
      <animate attributeName="fill-opacity" dur="2s" repeatCount="indefinite" values="0.36078432;0.36078432"/>
      <animate attributeName="d" dur="2s" repeatCount="indefinite" values="M0.65 2.5 Q0.65 3.15 0.95 3.75 L1.25 4.4 1.25 4.5 0.95 5.75 0.75 6.5 0.65 7.1 0.9 8.3 1.0 8.4 Q1.35 9.1 1.35 9.75 L1.25 11.05 1.25 11.15 Q1.5 12.05 2.2 12.0 2.65 11.95 2.8 12.7 L2.9 13.7 Q2.9 15.5 3.65 17.1 L4.05 17.8 Q4.4 18.1 4.55 16.95 L4.55 16.85 4.7 15.55 4.75 14.65 4.8 14.2 5.15 13.0 5.15 13.0 5.45 11.75 5.4 11.4 5.6 10.75 5.45 10.25 Q5.15 9.7 4.85 9.2 L4.85 9.2 Q4.85 8.4 5.2 7.6 L5.4 7.1 5.65 6.55 5.95 5.3 5.95 5.2 5.85 4.3 5.7 3.85 Q5.25 3.15 4.85 2.5 L4.85 2.5 Q4.65 1.85 4.5 1.25 L4.1 0.55 Q3.7 0.05 3.1 0.0 L2.9 0.0 2.2 0.1 Q1.85 0.2 1.6 0.45 1.3 0.8 1.05 1.15 L1.05 1.25 Q0.65 1.9 0.65 2.5;M0.0 6.9 Q0.0 7.45 0.4 8.0 L0.7 8.35 0.8 8.45 1.3 9.35 1.35 9.75 1.35 10.25 1.25 11.15 1.25 11.15 Q1.4 11.65 1.5 12.15 L1.85 12.95 1.85 12.95 Q2.05 13.4 2.25 13.8 2.35 14.2 2.4 14.55 L2.35 15.45 Q2.3 17.3 2.65 17.85 L3.1 18.1 Q3.7 18.1 4.1 16.9 L4.1 16.8 4.45 15.2 4.8 14.15 5.0 13.6 5.4 12.05 5.4 12.05 5.15 10.45 5.05 10.0 4.85 9.2 4.9 8.7 Q4.95 8.05 5.3 7.3 L5.4 7.1 Q5.95 5.95 5.95 5.2 L5.9 4.55 5.7 3.85 4.85 2.5 4.85 2.5 4.5 1.25 4.3 0.9 Q3.8 0.05 3.0 0.0 L2.9 0.0 Q2.2 0.0 1.7 0.35 L1.05 1.15 Q0.65 1.85 0.65 2.5 L0.65 2.7 0.95 3.75 Q1.1 4.15 1.25 4.5 1.25 5.0 0.65 5.7 L0.65 5.7 Q0.0 6.45 0.0 6.9"/>
    </path>
    <path d="M0.65 2.5 Q0.65 1.9 1.05 1.25 L1.05 1.15 Q1.3 0.8 1.6 0.45 1.85 0.2 2.2 0.1 L2.9 0.0 3.1 0.0 Q3.7 0.05 4.1 0.55 L4.5 1.25 Q4.65 1.85 4.85 2.5 L4.85 2.5 Q5.25 3.15 5.7 3.85 L5.85 4.3 5.95 5.2 5.95 5.3 5.65 6.55 5.4 7.1 5.2 7.6 Q4.85 8.4 4.85 9.2 L4.85 9.2 Q5.15 9.7 5.45 10.25 L5.6 10.75 5.4 11.4 5.45 11.75 5.15 13.0 5.15 13.0 4.8 14.2 4.75 14.65 4.7 15.55 4.55 16.85 4.55 16.95 Q4.4 18.1 4.05 17.8 L3.65 17.1 Q2.9 15.5 2.9 13.7 L2.8 12.7 Q2.65 11.95 2.2 12.0 1.5 12.05 1.25 11.15 L1.25 11.05 1.35 9.75 Q1.35 9.1 1.0 8.4 L0.9 8.3 0.65 7.1 0.75 6.5 0.95 5.75 1.25 4.5 1.25 4.4 0.95 3.75 Q0.65 3.15 0.65 2.5 Z" fill="none" stroke="#000000" stroke-linecap="round" stroke-linejoin="round" stroke-opacity="0.0" stroke-width="0.0">
      <animate attributeName="stroke" dur="2s" repeatCount="indefinite" values="#000000;#000001"/>
      <animate attributeName="stroke-width" dur="2s" repeatCount="indefinite" values="0.0;0.0"/>
      <animate attributeName="fill-opacity" dur="2s" repeatCount="indefinite" values="0.0;0.0"/>
      <animate attributeName="d" dur="2s" repeatCount="indefinite" values="M0.65 2.5 Q0.65 1.9 1.05 1.25 L1.05 1.15 Q1.3 0.8 1.6 0.45 1.85 0.2 2.2 0.1 L2.9 0.0 3.1 0.0 Q3.7 0.05 4.1 0.55 L4.5 1.25 Q4.65 1.85 4.85 2.5 L4.85 2.5 Q5.25 3.15 5.7 3.85 L5.85 4.3 5.95 5.2 5.95 5.3 5.65 6.55 5.4 7.1 5.2 7.6 Q4.85 8.4 4.85 9.2 L4.85 9.2 Q5.15 9.7 5.45 10.25 L5.6 10.75 5.4 11.4 5.45 11.75 5.15 13.0 5.15 13.0 4.8 14.2 4.75 14.65 4.7 15.55 4.55 16.85 4.55 16.95 Q4.4 18.1 4.05 17.8 L3.65 17.1 Q2.9 15.5 2.9 13.7 L2.8 12.7 Q2.65 11.95 2.2 12.0 1.5 12.05 1.25 11.15 L1.25 11.05 1.35 9.75 Q1.35 9.1 1.0 8.4 L0.9 8.3 0.65 7.1 0.75 6.5 0.95 5.75 1.25 4.5 1.25 4.4 0.95 3.75 Q0.65 3.15 0.65 2.5 Z;M0.0 6.9 Q0.0 6.45 0.65 5.7 L0.65 5.7 Q1.25 5.0 1.25 4.5 1.1 4.15 0.95 3.75 L0.65 2.7 0.65 2.5 Q0.65 1.85 1.05 1.15 L1.7 0.35 Q2.2 0.0 2.9 0.0 L3.0 0.0 Q3.8 0.05 4.3 0.9 L4.5 1.25 4.85 2.5 4.85 2.5 5.7 3.85 5.9 4.55 5.95 5.2 Q5.95 5.95 5.4 7.1 L5.3 7.3 Q4.95 8.05 4.9 8.7 L4.85 9.2 5.05 10.0 5.15 10.45 5.4 12.05 5.4 12.05 5.0 13.6 4.8 14.15 4.45 15.2 4.1 16.8 4.1 16.9 Q3.7 18.1 3.1 18.1 L2.65 17.85 Q2.3 17.3 2.35 15.45 L2.4 14.55 Q2.35 14.2 2.25 13.8 2.05 13.4 1.85 12.95 L1.85 12.95 1.5 12.15 Q1.4 11.65 1.25 11.15 L1.25 11.15 1.35 10.25 1.35 9.75 1.3 9.35 0.8 8.45 0.7 8.35 0.4 8.0 Q0.0 7.45 0.0 6.9 Z"/>
    </path>
  </g>
</svg>
