<?xml version="1.0" encoding="UTF-8" standalone="no"?>
<svg xmlns:ffdec="https://www.free-decompiler.com/flash" xmlns:xlink="http://www.w3.org/1999/xlink" ffdec:objectType="morphshape" height="31.0px" width="87.05px" xmlns="http://www.w3.org/2000/svg">
  <g transform="matrix(1.0, 0.0, 0.0, 1.0, 12.25, 4.05)">
    <path d="M-8.6 9.75 L-8.6 9.75 -1.75 12.0 Q-0.5 12.4 -1.3 12.8 L-2.1 13.1 Q-4.55 13.8 -4.45 14.0 -3.7 14.25 -3.0 14.5 -2.0 14.75 -1.0 15.0 L-0.7 15.1 Q1.7 15.7 0.05 16.15 -3.3 17.0 -3.1 18.6 L-2.6 19.75 -2.8 19.75 -2.7 19.75 Q2.45 20.0 5.7 21.4 L7.45 21.95 Q12.1 22.3 16.7 22.6 L19.75 22.8 20.45 22.9 20.65 23.05 20.8 23.75 Q20.8 24.45 19.8 25.3 L19.6 25.4 19.2 25.65 18.9 25.85 Q18.05 26.3 17.2 26.75 L17.2 26.85 17.4 26.85 17.8 26.95 19.55 26.75 19.65 26.75 20.15 26.65 37.65 24.1 38.8 23.95 Q52.6 22.15 60.1 22.1 L60.45 22.1 Q63.4 22.1 68.4 18.85 L69.2 18.3 Q73.15 15.6 74.3 13.7 74.55 12.95 74.8 12.25 74.8 9.8 70.6 6.6 L68.95 5.35 Q63.55 1.65 56.95 0.3 L55.1 -0.05 53.75 -0.25 55.7 0.1 53.65 -0.1 49.8 -0.6 36.75 -1.95 31.9 -2.4 30.45 -2.7 24.35 -3.6 22.5 -3.7 21.7 -3.6 21.4 -3.6 20.5 -3.5 19.75 -3.4 19.55 -3.3 19.35 -2.6 18.85 -2.1 18.65 -2.0 18.1 -1.6 Q16.85 -0.6 16.85 -0.25 L16.75 -0.05 14.0 -0.7 13.85 -0.7 Q12.5 -0.85 11.2 -0.95 L10.75 -0.95 7.7 -0.3 7.4 -0.2 3.95 0.65 2.6 1.2 1.75 1.5 -0.7 1.8 Q-2.2 2.05 -3.65 2.25 -7.1 3.05 -4.8 4.3 L-3.15 4.3 0.6 4.5 1.2 4.6 Q1.8 4.8 1.55 5.2 2.0 5.7 1.85 6.35 1.05 7.65 -1.0 8.25 L-1.9 8.5 -8.5 9.65 -8.6 9.75" fill="#023e5d" fill-opacity="0.6784314" fill-rule="evenodd" stroke="none">
      <animate attributeName="fill" dur="2s" repeatCount="indefinite" values="#023e5d;#023e5e"/>
      <animate attributeName="fill-opacity" dur="2s" repeatCount="indefinite" values="0.6784314;0.6784314"/>
      <animate attributeName="d" dur="2s" repeatCount="indefinite" values="M-8.6 9.75 L-8.6 9.75 -1.75 12.0 Q-0.5 12.4 -1.3 12.8 L-2.1 13.1 Q-4.55 13.8 -4.45 14.0 -3.7 14.25 -3.0 14.5 -2.0 14.75 -1.0 15.0 L-0.7 15.1 Q1.7 15.7 0.05 16.15 -3.3 17.0 -3.1 18.6 L-2.6 19.75 -2.8 19.75 -2.7 19.75 Q2.45 20.0 5.7 21.4 L7.45 21.95 Q12.1 22.3 16.7 22.6 L19.75 22.8 20.45 22.9 20.65 23.05 20.8 23.75 Q20.8 24.45 19.8 25.3 L19.6 25.4 19.2 25.65 18.9 25.85 Q18.05 26.3 17.2 26.75 L17.2 26.85 17.4 26.85 17.8 26.95 19.55 26.75 19.65 26.75 20.15 26.65 37.65 24.1 38.8 23.95 Q52.6 22.15 60.1 22.1 L60.45 22.1 Q63.4 22.1 68.4 18.85 L69.2 18.3 Q73.15 15.6 74.3 13.7 74.55 12.95 74.8 12.25 74.8 9.8 70.6 6.6 L68.95 5.35 Q63.55 1.65 56.95 0.3 L55.1 -0.05 53.75 -0.25 55.7 0.1 53.65 -0.1 49.8 -0.6 36.75 -1.95 31.9 -2.4 30.45 -2.7 24.35 -3.6 22.5 -3.7 21.7 -3.6 21.4 -3.6 20.5 -3.5 19.75 -3.4 19.55 -3.3 19.35 -2.6 18.85 -2.1 18.65 -2.0 18.1 -1.6 Q16.85 -0.6 16.85 -0.25 L16.75 -0.05 14.0 -0.7 13.85 -0.7 Q12.5 -0.85 11.2 -0.95 L10.75 -0.95 7.7 -0.3 7.4 -0.2 3.95 0.65 2.6 1.2 1.75 1.5 -0.7 1.8 Q-2.2 2.05 -3.65 2.25 -7.1 3.05 -4.8 4.3 L-3.15 4.3 0.6 4.5 1.2 4.6 Q1.8 4.8 1.55 5.2 2.0 5.7 1.85 6.35 1.05 7.65 -1.0 8.25 L-1.9 8.5 -8.5 9.65 -8.6 9.75;M-12.25 9.0 L-11.95 9.1 -4.6 11.1 Q-3.8 11.25 -3.05 11.4 L-2.1 11.6 Q-1.0 12.0 0.1 12.35 1.25 12.9 1.25 13.5 1.25 14.25 -0.1 15.2 L-0.3 15.35 Q-1.2 15.9 -2.1 16.45 -4.1 17.55 -6.1 18.6 L-7.4 19.15 -7.6 19.25 -7.7 19.25 Q-3.5 19.45 1.25 20.6 L3.25 21.15 Q7.35 22.3 13.4 22.55 L16.7 22.6 17.5 22.65 17.7 22.65 18.55 22.7 Q19.5 22.8 20.45 22.9 L20.65 23.05 20.8 23.4 20.8 23.75 Q20.8 24.55 19.5 25.45 L19.4 25.55 19.2 25.65 18.85 25.85 17.2 26.75 17.2 26.85 17.8 26.95 36.45 24.3 37.65 24.1 Q52.65 22.1 60.45 22.1 L60.85 22.1 Q64.0 21.85 69.2 18.3 L70.1 17.7 Q74.8 14.3 74.8 12.25 74.8 11.5 74.4 10.7 73.3 8.3 68.95 5.35 L67.1 4.2 Q61.1 0.65 53.75 -0.25 L55.7 0.1 54.15 -0.1 52.0 -0.3 49.8 -0.6 46.1 -1.0 31.9 -2.4 26.8 -3.25 25.2 -3.45 18.9 -4.05 17.0 -3.85 16.15 -3.75 15.95 -3.65 15.75 -2.95 16.1 -2.25 16.25 -1.95 16.65 -1.0 16.85 -0.25 16.75 -0.05 16.1 -0.3 Q15.05 -0.7 14.05 -1.05 L13.85 -1.15 10.85 -1.95 10.65 -1.95 Q9.75 -1.85 8.0 -1.0 L7.5 -0.8 4.35 0.55 3.95 0.65 0.45 1.4 -1.15 1.8 -2.1 2.05 -4.8 2.9 Q-7.45 3.8 -7.3 4.5 -6.05 5.25 -3.45 5.7 L-1.95 5.95 1.85 6.35 1.75 6.5 Q1.4 6.8 1.05 7.1 0.35 7.35 -0.3 7.6 -2.0 7.85 -3.7 8.1 L-4.65 8.2 -12.15 8.9 -12.25 9.0"/>
    </path>
    <path d="M-8.6 9.75 L-8.5 9.65 -1.9 8.5 -1.0 8.25 Q1.05 7.65 1.85 6.35 2.0 5.7 1.55 5.2 1.8 4.8 1.2 4.6 L0.6 4.5 -3.15 4.3 -4.8 4.3 Q-7.1 3.05 -3.65 2.25 -2.2 2.05 -0.7 1.8 L1.75 1.5 2.6 1.2 3.95 0.65 7.4 -0.2 7.7 -0.3 10.75 -0.95 11.2 -0.95 Q12.5 -0.85 13.85 -0.7 L14.0 -0.7 16.75 -0.05 16.85 -0.25 Q16.85 -0.6 18.1 -1.6 L18.65 -2.0 18.85 -2.1 19.35 -2.6 19.55 -3.3 19.75 -3.4 20.5 -3.5 21.4 -3.6 21.7 -3.6 22.5 -3.7 24.35 -3.6 30.45 -2.7 31.9 -2.4 36.75 -1.95 49.8 -0.6 53.65 -0.1 55.7 0.1 53.75 -0.25 55.1 -0.05 56.95 0.3 Q63.55 1.65 68.95 5.35 L70.6 6.6 Q74.8 9.8 74.8 12.25 74.55 12.95 74.3 13.7 73.15 15.6 69.2 18.3 L68.4 18.85 Q63.4 22.1 60.45 22.1 L60.1 22.1 Q52.6 22.15 38.8 23.95 L37.65 24.1 20.15 26.65 19.65 26.75 19.55 26.75 17.8 26.95 17.4 26.85 17.2 26.85 17.2 26.75 Q18.05 26.3 18.9 25.85 L19.2 25.65 19.6 25.4 19.8 25.3 Q20.8 24.45 20.8 23.75 L20.65 23.05 20.45 22.9 19.75 22.8 16.7 22.6 Q12.1 22.3 7.45 21.95 L5.7 21.4 Q2.45 20.0 -2.7 19.75 L-2.8 19.75 -2.6 19.75 -3.1 18.6 Q-3.3 17.0 0.05 16.15 1.7 15.7 -0.7 15.1 L-1.0 15.0 Q-2.0 14.75 -3.0 14.5 -3.7 14.25 -4.45 14.0 -4.55 13.8 -2.1 13.1 L-1.3 12.8 Q-0.5 12.4 -1.75 12.0 L-8.6 9.75 -8.6 9.75 Z" fill="none" stroke="#000000" stroke-linecap="round" stroke-linejoin="round" stroke-opacity="0.0" stroke-width="0.0">
      <animate attributeName="stroke" dur="2s" repeatCount="indefinite" values="#000000;#000001"/>
      <animate attributeName="stroke-width" dur="2s" repeatCount="indefinite" values="0.0;0.0"/>
      <animate attributeName="fill-opacity" dur="2s" repeatCount="indefinite" values="0.0;0.0"/>
      <animate attributeName="d" dur="2s" repeatCount="indefinite" values="M-8.6 9.75 L-8.5 9.65 -1.9 8.5 -1.0 8.25 Q1.05 7.65 1.85 6.35 2.0 5.7 1.55 5.2 1.8 4.8 1.2 4.6 L0.6 4.5 -3.15 4.3 -4.8 4.3 Q-7.1 3.05 -3.65 2.25 -2.2 2.05 -0.7 1.8 L1.75 1.5 2.6 1.2 3.95 0.65 7.4 -0.2 7.7 -0.3 10.75 -0.95 11.2 -0.95 Q12.5 -0.85 13.85 -0.7 L14.0 -0.7 16.75 -0.05 16.85 -0.25 Q16.85 -0.6 18.1 -1.6 L18.65 -2.0 18.85 -2.1 19.35 -2.6 19.55 -3.3 19.75 -3.4 20.5 -3.5 21.4 -3.6 21.7 -3.6 22.5 -3.7 24.35 -3.6 30.45 -2.7 31.9 -2.4 36.75 -1.95 49.8 -0.6 53.65 -0.1 55.7 0.1 53.75 -0.25 55.1 -0.05 56.95 0.3 Q63.55 1.65 68.95 5.35 L70.6 6.6 Q74.8 9.8 74.8 12.25 74.55 12.95 74.3 13.7 73.15 15.6 69.2 18.3 L68.4 18.85 Q63.4 22.1 60.45 22.1 L60.1 22.1 Q52.6 22.15 38.8 23.95 L37.65 24.1 20.15 26.65 19.65 26.75 19.55 26.75 17.8 26.95 17.4 26.85 17.2 26.85 17.2 26.75 Q18.05 26.3 18.9 25.85 L19.2 25.65 19.6 25.4 19.8 25.3 Q20.8 24.45 20.8 23.75 L20.65 23.05 20.45 22.9 19.75 22.8 16.7 22.6 Q12.1 22.3 7.45 21.95 L5.7 21.4 Q2.45 20.0 -2.7 19.75 L-2.8 19.75 -2.6 19.75 -3.1 18.6 Q-3.3 17.0 0.05 16.15 1.7 15.7 -0.7 15.1 L-1.0 15.0 Q-2.0 14.75 -3.0 14.5 -3.7 14.25 -4.45 14.0 -4.55 13.8 -2.1 13.1 L-1.3 12.8 Q-0.5 12.4 -1.75 12.0 L-8.6 9.75 -8.6 9.75 Z;M-12.25 9.0 L-12.15 8.9 -4.65 8.2 -3.7 8.1 Q-2.0 7.85 -0.3 7.6 0.35 7.35 1.05 7.1 1.4 6.8 1.75 6.5 L1.85 6.35 -1.95 5.95 -3.45 5.7 Q-6.05 5.25 -7.3 4.5 -7.45 3.8 -4.8 2.9 L-2.1 2.05 -1.15 1.8 0.45 1.4 3.95 0.65 4.35 0.55 7.5 -0.8 8.0 -1.0 Q9.75 -1.85 10.65 -1.95 L10.85 -1.95 13.85 -1.15 14.05 -1.05 Q15.05 -0.7 16.1 -0.3 L16.75 -0.05 16.85 -0.25 16.65 -1.0 16.25 -1.95 16.1 -2.25 15.75 -2.95 15.95 -3.65 16.15 -3.75 17.0 -3.85 18.9 -4.05 25.2 -3.45 26.8 -3.25 31.9 -2.4 46.1 -1.0 49.8 -0.6 52.0 -0.3 54.15 -0.1 55.7 0.1 53.75 -0.25 Q61.1 0.65 67.1 4.2 L68.95 5.35 Q73.3 8.3 74.4 10.7 74.8 11.5 74.8 12.25 74.8 14.3 70.1 17.7 L69.2 18.3 Q64.0 21.85 60.85 22.1 L60.45 22.1 Q52.65 22.1 37.65 24.1 L36.45 24.3 17.8 26.95 17.2 26.85 17.2 26.75 18.85 25.85 19.2 25.65 19.4 25.55 19.5 25.45 Q20.8 24.55 20.8 23.75 L20.8 23.4 20.65 23.05 20.45 22.9 Q19.5 22.8 18.55 22.7 L17.7 22.65 17.5 22.65 16.7 22.6 13.4 22.55 Q7.35 22.3 3.25 21.15 L1.25 20.6 Q-3.5 19.45 -7.7 19.25 L-7.6 19.25 -7.4 19.15 -6.1 18.6 Q-4.1 17.55 -2.1 16.45 -1.2 15.9 -0.3 15.35 L-0.1 15.2 Q1.25 14.25 1.25 13.5 1.25 12.9 0.1 12.35 -1.0 12.0 -2.1 11.6 L-3.05 11.4 Q-3.8 11.25 -4.6 11.1 L-11.95 9.1 -12.25 9.0 Z"/>
    </path>
  </g>
</svg>
