<?xml version="1.0" encoding="UTF-8" standalone="no"?>
<svg xmlns:ffdec="https://www.free-decompiler.com/flash" xmlns:xlink="http://www.w3.org/1999/xlink" ffdec:objectType="morphshape" height="31.0px" width="87.05px" xmlns="http://www.w3.org/2000/svg">
  <g transform="matrix(1.0, 0.0, 0.0, 1.0, 12.25, 4.05)">
    <path d="M-8.6 9.75 L-8.6 9.75 -2.8 11.7 -1.75 12.0 Q-0.1 12.5 -2.1 13.1 -2.85 13.35 -3.55 13.55 -4.5 13.9 -4.45 14.0 -2.7 14.5 -1.0 15.0 L-0.9 15.0 Q1.8 15.7 0.05 16.15 -1.65 16.6 -2.4 17.25 L-2.6 17.35 Q-3.7 18.3 -2.6 19.75 L-2.8 19.75 Q1.45 19.95 4.4 20.95 L5.7 21.4 Q8.45 22.55 16.2 22.6 L16.7 22.6 19.65 22.8 19.85 22.8 20.45 22.9 20.55 23.0 20.65 23.05 20.8 23.75 Q20.8 24.3 20.15 24.9 L19.2 25.65 18.5 26.05 18.4 26.15 17.85 26.45 17.2 26.75 17.2 26.85 17.8 26.95 34.5 24.55 37.65 24.1 Q46.4 23.2 55.1 22.3 57.8 22.2 60.45 22.1 62.0 22.1 64.05 21.25 66.3 20.3 69.2 18.3 L70.4 17.45 Q74.8 14.25 74.8 12.25 74.8 11.45 74.35 10.6 73.2 8.25 68.95 5.35 66.0 3.3 62.65 2.0 L60.95 1.35 55.85 0.1 53.75 -0.25 55.7 0.1 49.8 -0.6 43.1 -1.35 36.95 -1.95 31.9 -2.4 31.4 -2.5 28.9 -3.0 28.6 -3.05 27.7 -3.2 Q26.35 -3.4 25.05 -3.55 L24.85 -3.55 22.5 -3.7 19.75 -3.4 19.55 -3.3 19.45 -3.25 19.35 -2.6 18.1 -1.6 17.6 -1.15 16.85 -0.25 16.75 -0.05 14.6 -0.6 13.85 -0.7 11.2 -0.95 7.7 -0.3 4.75 0.5 3.95 0.65 2.6 1.2 Q0.95 1.5 -0.7 1.8 L-1.2 1.9 Q-7.8 2.65 -4.8 4.3 L-0.3 4.4 Q0.35 4.45 0.95 4.5 L1.2 4.6 Q1.8 4.8 1.55 5.2 2.0 5.7 1.85 6.35 1.05 7.7 -1.2 8.3 L-1.9 8.5 -8.5 9.65 -8.6 9.75" fill="#023e5d" fill-opacity="0.6784314" fill-rule="evenodd" stroke="none">
      <animate attributeName="fill" dur="2s" repeatCount="indefinite" values="#023e5d;#023e5e"/>
      <animate attributeName="fill-opacity" dur="2s" repeatCount="indefinite" values="0.6784314;0.6784314"/>
      <animate attributeName="d" dur="2s" repeatCount="indefinite" values="M-8.6 9.75 L-8.6 9.75 -2.8 11.7 -1.75 12.0 Q-0.1 12.5 -2.1 13.1 -2.85 13.35 -3.55 13.55 -4.5 13.9 -4.45 14.0 -2.7 14.5 -1.0 15.0 L-0.9 15.0 Q1.8 15.7 0.05 16.15 -1.65 16.6 -2.4 17.25 L-2.6 17.35 Q-3.7 18.3 -2.6 19.75 L-2.8 19.75 Q1.45 19.95 4.4 20.95 L5.7 21.4 Q8.45 22.55 16.2 22.6 L16.7 22.6 19.65 22.8 19.85 22.8 20.45 22.9 20.55 23.0 20.65 23.05 20.8 23.75 Q20.8 24.3 20.15 24.9 L19.2 25.65 18.5 26.05 18.4 26.15 17.85 26.45 17.2 26.75 17.2 26.85 17.8 26.95 34.5 24.55 37.65 24.1 Q46.4 23.2 55.1 22.3 57.8 22.2 60.45 22.1 62.0 22.1 64.05 21.25 66.3 20.3 69.2 18.3 L70.4 17.45 Q74.8 14.25 74.8 12.25 74.8 11.45 74.35 10.6 73.2 8.25 68.95 5.35 66.0 3.3 62.65 2.0 L60.95 1.35 55.85 0.1 53.75 -0.25 55.7 0.1 49.8 -0.6 43.1 -1.35 36.95 -1.95 31.9 -2.4 31.4 -2.5 28.9 -3.0 28.6 -3.05 27.7 -3.2 Q26.35 -3.4 25.05 -3.55 L24.85 -3.55 22.5 -3.7 19.75 -3.4 19.55 -3.3 19.45 -3.25 19.35 -2.6 18.1 -1.6 17.6 -1.15 16.85 -0.25 16.75 -0.05 14.6 -0.6 13.85 -0.7 11.2 -0.95 7.7 -0.3 4.75 0.5 3.95 0.65 2.6 1.2 Q0.95 1.5 -0.7 1.8 L-1.2 1.9 Q-7.8 2.65 -4.8 4.3 L-0.3 4.4 Q0.35 4.45 0.95 4.5 L1.2 4.6 Q1.8 4.8 1.55 5.2 2.0 5.7 1.85 6.35 1.05 7.7 -1.2 8.3 L-1.9 8.5 -8.5 9.65 -8.6 9.75;M-12.25 9.0 L-11.85 9.1 -5.4 11.25 -4.35 11.55 Q-3.1 12.05 -1.9 12.5 -0.9 13.0 -0.75 13.45 -0.6 13.8 -1.1 14.2 -1.95 14.9 -4.75 15.65 L-4.85 15.65 Q-6.6 16.1 -7.4 16.75 -8.65 17.75 -7.5 19.25 L-7.7 19.25 Q-6.15 19.4 -4.6 19.55 L-4.4 19.55 Q-0.8 20.0 3.25 21.15 L4.8 21.55 Q10.75 22.1 16.7 22.6 L17.3 22.6 20.45 22.9 20.65 23.05 20.8 23.65 20.8 23.75 20.8 23.95 20.3 24.8 Q19.75 25.25 19.2 25.65 L18.15 26.25 17.2 26.75 17.2 26.85 17.8 26.95 18.6 26.85 18.65 26.85 19.3 26.75 37.65 24.1 41.3 23.65 Q53.65 22.1 60.45 22.1 62.6 22.1 65.8 20.4 67.5 19.35 69.2 18.3 73.1 15.65 74.3 13.75 L74.8 12.25 Q74.8 9.75 70.45 6.45 69.7 5.9 68.95 5.35 65.55 3.05 61.65 1.65 57.9 0.25 53.75 -0.25 L55.7 0.1 49.8 -0.6 47.9 -0.8 45.75 -1.05 39.6 -1.65 31.9 -2.4 25.2 -3.45 19.6 -4.05 18.9 -4.05 16.15 -3.75 15.95 -3.65 15.75 -2.95 Q16.85 -0.85 16.85 -0.25 L16.75 -0.05 14.55 -0.85 11.45 -1.9 11.05 -1.95 10.85 -1.95 9.95 -1.8 8.2 -1.1 7.5 -0.8 6.45 -0.35 6.25 -0.25 3.95 0.65 3.4 0.75 0.5 1.2 -3.6 1.8 -6.6 2.15 -7.45 2.25 -9.15 2.5 Q-12.8 3.25 -11.15 4.4 L-10.7 4.65 Q-7.15 4.7 -3.6 4.7 L1.55 5.2 Q2.0 5.7 1.85 6.35 L1.8 6.45 Q1.5 6.75 1.25 7.0 0.6 7.3 0.0 7.55 -1.85 7.85 -3.7 8.1 L-4.45 8.15 -12.15 8.9 -12.25 9.0"/>
    </path>
    <path d="M-8.6 9.75 L-8.5 9.65 -1.9 8.5 -1.2 8.3 Q1.05 7.7 1.85 6.35 2.0 5.7 1.55 5.2 1.8 4.8 1.2 4.6 L0.95 4.5 Q0.35 4.45 -0.3 4.4 L-4.8 4.3 Q-7.8 2.65 -1.2 1.9 L-0.7 1.8 Q0.95 1.5 2.6 1.2 L3.95 0.65 4.75 0.5 7.7 -0.3 11.2 -0.95 13.85 -0.7 14.6 -0.6 16.75 -0.05 16.85 -0.25 17.6 -1.15 18.1 -1.6 19.35 -2.6 19.45 -3.25 19.55 -3.3 19.75 -3.4 22.5 -3.7 24.85 -3.55 25.05 -3.55 Q26.35 -3.4 27.7 -3.2 L28.6 -3.05 28.9 -3.0 31.4 -2.5 31.9 -2.4 36.95 -1.95 43.1 -1.35 49.8 -0.6 55.7 0.1 53.75 -0.25 55.85 0.1 60.95 1.35 62.65 2.0 Q66.0 3.3 68.95 5.35 73.2 8.25 74.35 10.6 74.8 11.45 74.8 12.25 74.8 14.25 70.4 17.45 L69.2 18.3 Q66.3 20.3 64.05 21.25 62.0 22.1 60.45 22.1 57.8 22.2 55.1 22.3 46.4 23.2 37.65 24.1 L34.5 24.55 17.8 26.95 17.2 26.85 17.2 26.75 17.85 26.45 18.4 26.15 18.5 26.05 19.2 25.65 20.15 24.9 Q20.8 24.3 20.8 23.75 L20.65 23.05 20.55 23.0 20.45 22.9 19.85 22.8 19.65 22.8 16.7 22.6 16.2 22.6 Q8.45 22.55 5.7 21.4 L4.4 20.95 Q1.45 19.95 -2.8 19.75 L-2.6 19.75 Q-3.7 18.3 -2.6 17.35 L-2.4 17.25 Q-1.65 16.6 0.05 16.15 1.8 15.7 -0.9 15.0 L-1.0 15.0 Q-2.7 14.5 -4.45 14.0 -4.5 13.9 -3.55 13.55 -2.85 13.35 -2.1 13.1 -0.1 12.5 -1.75 12.0 L-2.8 11.7 -8.6 9.75 -8.6 9.75 Z" fill="none" stroke="#000000" stroke-linecap="round" stroke-linejoin="round" stroke-opacity="0.0" stroke-width="0.0">
      <animate attributeName="stroke" dur="2s" repeatCount="indefinite" values="#000000;#000001"/>
      <animate attributeName="stroke-width" dur="2s" repeatCount="indefinite" values="0.0;0.0"/>
      <animate attributeName="fill-opacity" dur="2s" repeatCount="indefinite" values="0.0;0.0"/>
      <animate attributeName="d" dur="2s" repeatCount="indefinite" values="M-8.6 9.75 L-8.5 9.65 -1.9 8.5 -1.2 8.3 Q1.05 7.7 1.85 6.35 2.0 5.7 1.55 5.2 1.8 4.8 1.2 4.6 L0.95 4.5 Q0.35 4.45 -0.3 4.4 L-4.8 4.3 Q-7.8 2.65 -1.2 1.9 L-0.7 1.8 Q0.95 1.5 2.6 1.2 L3.95 0.65 4.75 0.5 7.7 -0.3 11.2 -0.95 13.85 -0.7 14.6 -0.6 16.75 -0.05 16.85 -0.25 17.6 -1.15 18.1 -1.6 19.35 -2.6 19.45 -3.25 19.55 -3.3 19.75 -3.4 22.5 -3.7 24.85 -3.55 25.05 -3.55 Q26.35 -3.4 27.7 -3.2 L28.6 -3.05 28.9 -3.0 31.4 -2.5 31.9 -2.4 36.95 -1.95 43.1 -1.35 49.8 -0.6 55.7 0.1 53.75 -0.25 55.85 0.1 60.95 1.35 62.65 2.0 Q66.0 3.3 68.95 5.35 73.2 8.25 74.35 10.6 74.8 11.45 74.8 12.25 74.8 14.25 70.4 17.45 L69.2 18.3 Q66.3 20.3 64.05 21.25 62.0 22.1 60.45 22.1 57.8 22.2 55.1 22.3 46.4 23.2 37.65 24.1 L34.5 24.55 17.8 26.95 17.2 26.85 17.2 26.75 17.85 26.45 18.4 26.15 18.5 26.05 19.2 25.65 20.15 24.9 Q20.8 24.3 20.8 23.75 L20.65 23.05 20.55 23.0 20.45 22.9 19.85 22.8 19.65 22.8 16.7 22.6 16.2 22.6 Q8.45 22.55 5.7 21.4 L4.4 20.95 Q1.45 19.95 -2.8 19.75 L-2.6 19.75 Q-3.7 18.3 -2.6 17.35 L-2.4 17.25 Q-1.65 16.6 0.05 16.15 1.8 15.7 -0.9 15.0 L-1.0 15.0 Q-2.7 14.5 -4.45 14.0 -4.5 13.9 -3.55 13.55 -2.85 13.35 -2.1 13.1 -0.1 12.5 -1.75 12.0 L-2.8 11.7 -8.6 9.75 -8.6 9.75 Z;M-12.25 9.0 L-12.15 8.9 -4.45 8.15 -3.7 8.1 Q-1.85 7.85 0.0 7.55 0.6 7.3 1.25 7.0 1.5 6.75 1.8 6.45 L1.85 6.35 Q2.0 5.7 1.55 5.2 L-3.6 4.7 Q-7.15 4.7 -10.7 4.65 L-11.15 4.4 Q-12.8 3.25 -9.15 2.5 L-7.45 2.25 -6.6 2.15 -3.6 1.8 0.5 1.2 3.4 0.75 3.95 0.65 6.25 -0.25 6.45 -0.35 7.5 -0.8 8.2 -1.1 9.95 -1.8 10.85 -1.95 11.05 -1.95 11.45 -1.9 14.55 -0.85 16.75 -0.05 16.85 -0.25 Q16.85 -0.85 15.75 -2.95 L15.95 -3.65 16.15 -3.75 18.9 -4.05 19.6 -4.05 25.2 -3.45 31.9 -2.4 39.6 -1.65 45.75 -1.05 47.9 -0.8 49.8 -0.6 55.7 0.1 53.75 -0.25 Q57.9 0.25 61.65 1.65 65.55 3.05 68.95 5.35 69.7 5.9 70.45 6.45 74.8 9.75 74.8 12.25 L74.3 13.75 Q73.1 15.65 69.2 18.3 67.5 19.35 65.8 20.4 62.6 22.1 60.45 22.1 53.65 22.1 41.3 23.65 L37.65 24.1 19.3 26.75 18.65 26.85 18.6 26.85 17.8 26.95 17.2 26.85 17.2 26.75 18.15 26.25 19.2 25.65 Q19.75 25.25 20.3 24.8 L20.8 23.95 20.8 23.75 20.8 23.65 20.65 23.05 20.45 22.9 17.3 22.6 16.7 22.6 Q10.75 22.1 4.8 21.55 L3.25 21.15 Q-0.8 20.0 -4.4 19.55 L-4.6 19.55 Q-6.15 19.4 -7.7 19.25 L-7.5 19.25 Q-8.65 17.75 -7.4 16.75 -6.6 16.1 -4.85 15.65 L-4.75 15.65 Q-1.95 14.9 -1.1 14.2 -0.6 13.8 -0.75 13.45 -0.9 13.0 -1.9 12.5 -3.1 12.05 -4.35 11.55 L-5.4 11.25 -11.85 9.1 -12.25 9.0 Z"/>
    </path>
  </g>
</svg>
