<?xml version="1.0" encoding="UTF-8" standalone="no"?>
<svg xmlns:ffdec="https://www.free-decompiler.com/flash" xmlns:xlink="http://www.w3.org/1999/xlink" ffdec:objectType="morphshape" height="18.1px" width="62.0px" xmlns="http://www.w3.org/2000/svg">
  <g transform="matrix(1.0, 0.0, 0.0, 1.0, 8.75, -2.35)">
    <path d="M-7.2 12.5 L-7.2 12.5 -6.55 13.3 -5.9 13.6 -5.15 13.9 -2.1 15.0 -1.65 15.2 Q-0.6 15.7 -0.95 16.25 -1.2 16.55 -1.95 16.9 L-2.05 16.9 Q-4.45 17.85 -4.45 18.3 -4.45 18.7 -2.45 18.95 L-1.65 19.05 0.2 19.2 5.2 19.35 9.15 19.3 10.75 19.2 14.35 19.8 24.65 20.45 27.35 20.4 Q37.25 20.1 44.55 17.5 L45.7 17.1 Q52.8 14.3 52.8 10.45 L52.8 10.45 Q52.8 6.75 37.55 3.05 L34.6 2.35 18.0 2.35 15.4 2.35 12.75 2.8 9.05 3.35 Q7.75 3.5 6.45 3.65 L3.05 4.15 2.25 4.35 0.45 4.45 -1.7 4.8 -1.9 4.8 Q-2.5 5.0 -3.05 5.2 -3.8 5.55 -3.8 5.95 L-2.9 6.75 -1.9 7.05 -1.4 7.75 Q-0.8 8.7 -1.05 9.2 L-1.15 9.5 Q-2.1 11.2 -3.85 11.55 L-4.6 11.7 Q-7.2 11.85 -7.2 12.5" fill="#023e5d" fill-opacity="0.6784314" fill-rule="evenodd" stroke="none">
      <animate attributeName="fill" dur="2s" repeatCount="indefinite" values="#023e5d;#023e5e"/>
      <animate attributeName="fill-opacity" dur="2s" repeatCount="indefinite" values="0.6784314;0.6784314"/>
      <animate attributeName="d" dur="2s" repeatCount="indefinite" values="M-7.2 12.5 L-7.2 12.5 -6.55 13.3 -5.9 13.6 -5.15 13.9 -2.1 15.0 -1.65 15.2 Q-0.6 15.7 -0.95 16.25 -1.2 16.55 -1.95 16.9 L-2.05 16.9 Q-4.45 17.85 -4.45 18.3 -4.45 18.7 -2.45 18.95 L-1.65 19.05 0.2 19.2 5.2 19.35 9.15 19.3 10.75 19.2 14.35 19.8 24.65 20.45 27.35 20.4 Q37.25 20.1 44.55 17.5 L45.7 17.1 Q52.8 14.3 52.8 10.45 L52.8 10.45 Q52.8 6.75 37.55 3.05 L34.6 2.35 18.0 2.35 15.4 2.35 12.75 2.8 9.05 3.35 Q7.75 3.5 6.45 3.65 L3.05 4.15 2.25 4.35 0.45 4.45 -1.7 4.8 -1.9 4.8 Q-2.5 5.0 -3.05 5.2 -3.8 5.55 -3.8 5.95 L-2.9 6.75 -1.9 7.05 -1.4 7.75 Q-0.8 8.7 -1.05 9.2 L-1.15 9.5 Q-2.1 11.2 -3.85 11.55 L-4.6 11.7 Q-7.2 11.85 -7.2 12.5;M-8.75 12.6 L-8.7 12.7 -7.75 13.15 -6.95 13.35 -6.1 13.6 -2.9 14.8 -2.3 15.0 Q-1.05 15.45 -1.0 16.1 -0.9 16.65 -2.0 16.9 L-2.1 16.9 Q-3.55 17.15 -4.95 17.4 -7.25 17.9 -7.25 18.35 L-6.4 18.8 -4.45 19.1 0.9 19.3 5.15 19.35 6.9 19.35 10.75 19.2 22.0 20.4 24.75 20.45 Q35.6 20.45 43.65 17.9 L44.9 17.5 Q53.0 14.7 53.25 10.75 L53.25 10.45 Q53.25 6.55 36.45 2.6 L33.15 2.6 14.95 2.6 12.0 3.05 9.0 3.35 4.9 3.8 Q2.75 4.1 2.15 4.35 L-1.4 4.55 -2.25 4.65 -4.6 4.9 -6.85 5.7 -7.0 5.8 Q-8.1 6.3 -8.1 6.6 -8.1 7.2 -7.3 7.5 L-6.2 7.7 -4.95 7.85 -3.95 8.0 Q-2.85 8.3 -2.6 9.05 L-2.6 9.15 Q-2.0 11.45 -4.8 11.7 L-5.55 11.8 Q-8.75 12.0 -8.75 12.6"/>
    </path>
    <path d="M-7.2 12.5 Q-7.2 11.85 -4.6 11.7 L-3.85 11.55 Q-2.1 11.2 -1.15 9.5 L-1.05 9.2 Q-0.8 8.7 -1.4 7.75 L-1.9 7.05 -2.9 6.75 -3.8 5.95 Q-3.8 5.55 -3.05 5.2 -2.5 5.0 -1.9 4.8 L-1.7 4.8 0.45 4.45 2.25 4.35 3.05 4.15 6.45 3.65 Q7.75 3.5 9.05 3.35 L12.75 2.8 15.4 2.35 18.0 2.35 34.6 2.35 37.55 3.05 Q52.8 6.75 52.8 10.45 L52.8 10.45 Q52.8 14.3 45.7 17.1 L44.55 17.5 Q37.25 20.1 27.35 20.4 L24.65 20.45 14.35 19.8 10.75 19.2 9.15 19.3 5.2 19.35 0.2 19.2 -1.65 19.05 -2.45 18.95 Q-4.45 18.7 -4.45 18.3 -4.45 17.85 -2.05 16.9 L-1.95 16.9 Q-1.2 16.55 -0.95 16.25 -0.6 15.7 -1.65 15.2 L-2.1 15.0 -5.15 13.9 -5.9 13.6 -6.55 13.3 -7.2 12.5 -7.2 12.5 Z" fill="none" stroke="#000000" stroke-linecap="round" stroke-linejoin="round" stroke-opacity="0.0" stroke-width="0.0">
      <animate attributeName="stroke" dur="2s" repeatCount="indefinite" values="#000000;#000001"/>
      <animate attributeName="stroke-width" dur="2s" repeatCount="indefinite" values="0.0;0.0"/>
      <animate attributeName="fill-opacity" dur="2s" repeatCount="indefinite" values="0.0;0.0"/>
      <animate attributeName="d" dur="2s" repeatCount="indefinite" values="M-7.2 12.5 Q-7.2 11.85 -4.6 11.7 L-3.85 11.55 Q-2.1 11.2 -1.15 9.5 L-1.05 9.2 Q-0.8 8.7 -1.4 7.75 L-1.9 7.05 -2.9 6.75 -3.8 5.95 Q-3.8 5.55 -3.05 5.2 -2.5 5.0 -1.9 4.8 L-1.7 4.8 0.45 4.45 2.25 4.35 3.05 4.15 6.45 3.65 Q7.75 3.5 9.05 3.35 L12.75 2.8 15.4 2.35 18.0 2.35 34.6 2.35 37.55 3.05 Q52.8 6.75 52.8 10.45 L52.8 10.45 Q52.8 14.3 45.7 17.1 L44.55 17.5 Q37.25 20.1 27.35 20.4 L24.65 20.45 14.35 19.8 10.75 19.2 9.15 19.3 5.2 19.35 0.2 19.2 -1.65 19.05 -2.45 18.95 Q-4.45 18.7 -4.45 18.3 -4.45 17.85 -2.05 16.9 L-1.95 16.9 Q-1.2 16.55 -0.95 16.25 -0.6 15.7 -1.65 15.2 L-2.1 15.0 -5.15 13.9 -5.9 13.6 -6.55 13.3 -7.2 12.5 -7.2 12.5 Z;M-8.75 12.6 Q-8.75 12.0 -5.55 11.8 L-4.8 11.7 Q-2.0 11.45 -2.6 9.15 L-2.6 9.05 Q-2.85 8.3 -3.95 8.0 L-4.95 7.85 -6.2 7.7 -7.3 7.5 Q-8.1 7.2 -8.1 6.6 -8.1 6.3 -7.0 5.8 L-6.85 5.7 -4.6 4.9 -2.25 4.65 -1.4 4.55 2.15 4.35 Q2.75 4.1 4.9 3.8 L9.0 3.35 12.0 3.05 14.95 2.6 33.15 2.6 36.45 2.6 Q53.25 6.55 53.25 10.45 L53.25 10.75 Q53.0 14.7 44.9 17.5 L43.65 17.9 Q35.6 20.45 24.75 20.45 L22.0 20.4 10.75 19.2 6.9 19.35 5.15 19.35 0.9 19.3 -4.45 19.1 -6.4 18.8 -7.25 18.35 Q-7.25 17.9 -4.95 17.4 -3.55 17.15 -2.1 16.9 L-2.0 16.9 Q-0.9 16.65 -1.0 16.1 -1.05 15.45 -2.3 15.0 L-2.9 14.8 -6.1 13.6 -6.95 13.35 -7.75 13.15 -8.7 12.7 -8.75 12.6 Z"/>
    </path>
  </g>
</svg>
