<?xml version="1.0" encoding="UTF-8" standalone="no"?>
<svg xmlns:ffdec="https://www.free-decompiler.com/flash" xmlns:xlink="http://www.w3.org/1999/xlink" ffdec:objectType="morphshape" height="17.95px" width="67.15px" xmlns="http://www.w3.org/2000/svg">
  <g transform="matrix(1.0, 0.0, 0.0, 1.0, 13.9, -2.5)">
    <path d="M-8.75 12.6 L-8.75 12.6 Q-8.75 12.9 -7.75 13.15 L-7.3 13.25 -6.1 13.6 -4.5 14.2 -2.3 15.0 -1.55 15.3 Q-1.05 15.65 -1.0 16.1 -0.9 16.7 -2.1 16.9 L-3.3 17.1 Q-4.8 17.45 -6.3 17.75 -7.25 18.05 -7.25 18.35 -7.25 18.7 -5.8 18.95 L-4.75 19.1 -4.45 19.1 -2.0 19.25 5.15 19.35 7.25 19.35 10.75 19.2 12.6 19.55 24.75 20.45 26.0 20.45 Q36.9 20.3 44.9 17.5 L45.0 17.5 Q53.1 14.65 53.25 10.65 L53.25 10.45 Q53.25 6.6 36.85 2.7 L36.45 2.6 14.95 2.6 12.6 2.95 9.0 3.35 5.95 3.65 2.15 4.35 -1.4 4.55 -2.5 4.65 Q-3.45 4.8 -4.4 4.9 L-4.6 4.9 -5.75 5.25 -6.85 5.7 -7.05 5.8 Q-8.1 6.35 -8.1 6.6 L-7.95 7.05 -7.05 7.55 -6.3 7.7 -6.2 7.7 Q-5.3 7.8 -4.45 7.9 L-3.95 8.0 Q-2.9 8.25 -2.65 9.0 L-2.6 9.15 Q-2.0 11.45 -4.8 11.7 L-5.0 11.7 Q-8.75 11.95 -8.75 12.6" fill="#023e5d" fill-opacity="0.6784314" fill-rule="evenodd" stroke="none">
      <animate attributeName="fill" dur="2s" repeatCount="indefinite" values="#023e5d;#023e5e"/>
      <animate attributeName="fill-opacity" dur="2s" repeatCount="indefinite" values="0.6784314;0.6784314"/>
      <animate attributeName="d" dur="2s" repeatCount="indefinite" values="M-8.75 12.6 L-8.75 12.6 Q-8.75 12.9 -7.75 13.15 L-7.3 13.25 -6.1 13.6 -4.5 14.2 -2.3 15.0 -1.55 15.3 Q-1.05 15.65 -1.0 16.1 -0.9 16.7 -2.1 16.9 L-3.3 17.1 Q-4.8 17.45 -6.3 17.75 -7.25 18.05 -7.25 18.35 -7.25 18.7 -5.8 18.95 L-4.75 19.1 -4.45 19.1 -2.0 19.25 5.15 19.35 7.25 19.35 10.75 19.2 12.6 19.55 24.75 20.45 26.0 20.45 Q36.9 20.3 44.9 17.5 L45.0 17.5 Q53.1 14.65 53.25 10.65 L53.25 10.45 Q53.25 6.6 36.85 2.7 L36.45 2.6 14.95 2.6 12.6 2.95 9.0 3.35 5.95 3.65 2.15 4.35 -1.4 4.55 -2.5 4.65 Q-3.45 4.8 -4.4 4.9 L-4.6 4.9 -5.75 5.25 -6.85 5.7 -7.05 5.8 Q-8.1 6.35 -8.1 6.6 L-7.95 7.05 -7.05 7.55 -6.3 7.7 -6.2 7.7 Q-5.3 7.8 -4.45 7.9 L-3.95 8.0 Q-2.9 8.25 -2.65 9.0 L-2.6 9.15 Q-2.0 11.45 -4.8 11.7 L-5.0 11.7 Q-8.75 11.95 -8.75 12.6;M-13.9 12.95 L-13.4 13.25 Q-12.9 13.4 -12.4 13.5 L-12.0 13.6 -10.7 13.8 -8.9 13.85 -6.55 14.15 -5.9 14.25 Q-5.4 14.35 -4.95 14.45 -4.2 14.6 -3.5 14.75 L-2.4 15.15 Q-0.3 15.95 -3.0 16.4 -3.6 16.5 -4.15 16.6 -5.7 17.0 -5.55 17.55 L-4.75 18.35 -4.45 18.65 -2.05 19.1 5.0 19.35 7.1 19.35 10.65 19.3 12.45 19.2 24.7 20.45 25.9 20.45 Q36.85 20.45 44.8 17.6 L45.1 17.5 Q53.1 14.6 53.1 10.45 L53.1 10.3 Q52.8 6.4 36.55 2.5 L35.65 2.5 13.45 3.2 10.8 3.35 7.3 3.75 4.25 4.35 0.45 4.5 -3.35 4.75 -4.4 4.95 Q-5.3 5.2 -6.15 5.85 L-6.25 5.95 -6.95 6.85 -6.35 7.7 -6.15 7.8 Q-5.5 8.1 -4.9 8.4 L-4.4 8.5 -3.35 8.45 -3.15 9.25 -3.15 9.45 Q-2.9 10.4 -3.7 10.75 L-4.25 10.95 Q-5.05 11.05 -5.8 11.15 L-6.1 11.15 Q-8.15 11.3 -10.2 11.45 L-10.55 11.45 Q-14.0 11.9 -13.9 12.95"/>
    </path>
    <path d="M-8.75 12.6 Q-8.75 11.95 -5.0 11.7 L-4.8 11.7 Q-2.0 11.45 -2.6 9.15 L-2.65 9.0 Q-2.9 8.25 -3.95 8.0 L-4.45 7.9 Q-5.3 7.8 -6.2 7.7 L-6.3 7.7 -7.05 7.55 -7.95 7.05 -8.1 6.6 Q-8.1 6.35 -7.05 5.8 L-6.85 5.7 -5.75 5.25 -4.6 4.9 -4.4 4.9 Q-3.45 4.8 -2.5 4.65 L-1.4 4.55 2.15 4.35 5.95 3.65 9.0 3.35 12.6 2.95 14.95 2.6 36.45 2.6 36.85 2.7 Q53.25 6.6 53.25 10.45 L53.25 10.65 Q53.1 14.65 45.0 17.5 L44.9 17.5 Q36.9 20.3 26.0 20.45 L24.75 20.45 12.6 19.55 10.75 19.2 7.25 19.35 5.15 19.35 -2.0 19.25 -4.45 19.1 -4.75 19.1 -5.8 18.95 Q-7.25 18.7 -7.25 18.35 -7.25 18.05 -6.3 17.75 -4.8 17.45 -3.3 17.1 L-2.1 16.9 Q-0.9 16.7 -1.0 16.1 -1.05 15.65 -1.55 15.3 L-2.3 15.0 -4.5 14.2 -6.1 13.6 -7.3 13.25 -7.75 13.15 Q-8.75 12.9 -8.75 12.6 L-8.75 12.6 Z" fill="none" stroke="#000000" stroke-linecap="round" stroke-linejoin="round" stroke-opacity="0.0" stroke-width="0.0">
      <animate attributeName="stroke" dur="2s" repeatCount="indefinite" values="#000000;#000001"/>
      <animate attributeName="stroke-width" dur="2s" repeatCount="indefinite" values="0.0;0.0"/>
      <animate attributeName="fill-opacity" dur="2s" repeatCount="indefinite" values="0.0;0.0"/>
      <animate attributeName="d" dur="2s" repeatCount="indefinite" values="M-8.75 12.6 Q-8.75 11.95 -5.0 11.7 L-4.8 11.7 Q-2.0 11.45 -2.6 9.15 L-2.65 9.0 Q-2.9 8.25 -3.95 8.0 L-4.45 7.9 Q-5.3 7.8 -6.2 7.7 L-6.3 7.7 -7.05 7.55 -7.95 7.05 -8.1 6.6 Q-8.1 6.35 -7.05 5.8 L-6.85 5.7 -5.75 5.25 -4.6 4.9 -4.4 4.9 Q-3.45 4.8 -2.5 4.65 L-1.4 4.55 2.15 4.35 5.95 3.65 9.0 3.35 12.6 2.95 14.95 2.6 36.45 2.6 36.85 2.7 Q53.25 6.6 53.25 10.45 L53.25 10.65 Q53.1 14.65 45.0 17.5 L44.9 17.5 Q36.9 20.3 26.0 20.45 L24.75 20.45 12.6 19.55 10.75 19.2 7.25 19.35 5.15 19.35 -2.0 19.25 -4.45 19.1 -4.75 19.1 -5.8 18.95 Q-7.25 18.7 -7.25 18.35 -7.25 18.05 -6.3 17.75 -4.8 17.45 -3.3 17.1 L-2.1 16.9 Q-0.9 16.7 -1.0 16.1 -1.05 15.65 -1.55 15.3 L-2.3 15.0 -4.5 14.2 -6.1 13.6 -7.3 13.25 -7.75 13.15 Q-8.75 12.9 -8.75 12.6 L-8.75 12.6 Z;M-13.9 12.95 Q-14.0 11.9 -10.55 11.45 L-10.2 11.45 Q-8.15 11.3 -6.1 11.15 L-5.8 11.15 Q-5.05 11.05 -4.25 10.95 L-3.7 10.75 Q-2.9 10.4 -3.15 9.45 L-3.15 9.25 -3.35 8.45 -4.4 8.5 -4.9 8.4 Q-5.5 8.1 -6.15 7.8 L-6.35 7.7 -6.95 6.85 -6.25 5.95 -6.15 5.85 Q-5.3 5.2 -4.4 4.95 L-3.35 4.75 0.45 4.5 4.25 4.35 7.3 3.75 10.8 3.35 13.45 3.2 35.65 2.5 36.55 2.5 Q52.8 6.4 53.1 10.3 L53.1 10.45 Q53.1 14.6 45.1 17.5 L44.8 17.6 Q36.85 20.45 25.9 20.45 L24.7 20.45 12.45 19.2 10.65 19.3 7.1 19.35 5.0 19.35 -2.05 19.1 -4.45 18.65 -4.75 18.35 -5.55 17.55 Q-5.7 17.0 -4.15 16.6 -3.6 16.5 -3.0 16.4 -0.3 15.95 -2.4 15.15 L-3.5 14.75 Q-4.2 14.6 -4.95 14.45 -5.4 14.35 -5.9 14.25 L-6.55 14.15 -8.9 13.85 -10.7 13.8 -12.0 13.6 -12.4 13.5 Q-12.9 13.4 -13.4 13.25 L-13.9 12.95 Z"/>
    </path>
  </g>
</svg>
