<?xml version="1.0" encoding="UTF-8" standalone="no"?>
<svg xmlns:ffdec="https://www.free-decompiler.com/flash" xmlns:xlink="http://www.w3.org/1999/xlink" ffdec:objectType="morphshape" height="18.1px" width="67.0px" xmlns="http://www.w3.org/2000/svg">
  <g transform="matrix(1.0, 0.0, 0.0, 1.0, 13.9, -2.35)">
    <path d="M-13.9 12.95 L-13.7 13.15 Q-12.85 13.4 -12.0 13.6 L-11.9 13.6 -8.9 13.85 -7.4 14.0 -5.9 14.25 Q-4.85 14.5 -3.8 14.75 L-2.4 15.15 Q-1.1 15.65 -1.65 16.05 L-3.0 16.4 -5.1 16.95 Q-5.65 17.2 -5.55 17.55 L-4.75 18.35 Q-4.75 18.8 -2.05 19.1 L0.6 19.25 6.5 19.35 7.1 19.35 12.45 19.2 21.75 20.35 25.9 20.45 Q35.9 20.45 43.45 18.05 L45.1 17.5 Q52.9 14.65 53.1 10.65 L53.1 10.45 Q53.1 6.5 36.55 2.5 L33.55 2.6 11.2 3.35 10.8 3.35 Q5.2 3.9 4.25 4.35 L3.1 4.35 Q-0.55 4.65 -4.2 4.95 L-4.4 4.95 Q-5.3 5.2 -6.15 5.85 -6.95 6.5 -6.95 6.85 L-6.15 7.8 -6.15 7.8 Q-5.3 8.4 -4.4 8.5 -3.95 8.45 -3.55 8.45 L-3.35 8.45 -3.15 9.25 Q-2.95 10.05 -3.3 10.5 L-3.7 10.75 Q-4.75 10.95 -5.8 11.15 L-5.9 11.15 Q-8.25 11.3 -10.55 11.45 L-11.1 11.55 Q-14.0 12.0 -13.9 12.95" fill="#023e5d" fill-opacity="0.6784314" fill-rule="evenodd" stroke="none">
      <animate attributeName="fill" dur="2s" repeatCount="indefinite" values="#023e5d;#023e5e"/>
      <animate attributeName="fill-opacity" dur="2s" repeatCount="indefinite" values="0.6784314;0.6784314"/>
      <animate attributeName="d" dur="2s" repeatCount="indefinite" values="M-13.9 12.95 L-13.7 13.15 Q-12.85 13.4 -12.0 13.6 L-11.9 13.6 -8.9 13.85 -7.4 14.0 -5.9 14.25 Q-4.85 14.5 -3.8 14.75 L-2.4 15.15 Q-1.1 15.65 -1.65 16.05 L-3.0 16.4 -5.1 16.95 Q-5.65 17.2 -5.55 17.55 L-4.75 18.35 Q-4.75 18.8 -2.05 19.1 L0.6 19.25 6.5 19.35 7.1 19.35 12.45 19.2 21.75 20.35 25.9 20.45 Q35.9 20.45 43.45 18.05 L45.1 17.5 Q52.9 14.65 53.1 10.65 L53.1 10.45 Q53.1 6.5 36.55 2.5 L33.55 2.6 11.2 3.35 10.8 3.35 Q5.2 3.9 4.25 4.35 L3.1 4.35 Q-0.55 4.65 -4.2 4.95 L-4.4 4.95 Q-5.3 5.2 -6.15 5.85 -6.95 6.5 -6.95 6.85 L-6.15 7.8 -6.15 7.8 Q-5.3 8.4 -4.4 8.5 -3.95 8.45 -3.55 8.45 L-3.35 8.45 -3.15 9.25 Q-2.95 10.05 -3.3 10.5 L-3.7 10.75 Q-4.75 10.95 -5.8 11.15 L-5.9 11.15 Q-8.25 11.3 -10.55 11.45 L-11.1 11.55 Q-14.0 12.0 -13.9 12.95;M-7.2 12.5 L-7.2 12.5 Q-7.2 13.15 -5.9 13.6 L-5.9 13.6 -3.3 14.55 -2.1 15.0 -0.9 15.75 Q-0.6 16.3 -1.95 16.9 L-3.35 17.5 Q-3.9 17.9 -4.45 18.3 L-3.3 18.85 -1.65 19.05 Q-1.2 19.1 -0.8 19.1 L0.15 19.2 Q1.4 19.25 2.65 19.3 L5.2 19.35 10.75 19.2 11.3 19.3 16.2 20.0 24.65 20.45 28.6 20.35 Q37.75 19.95 44.55 17.5 L46.05 16.9 Q52.8 14.2 52.8 10.45 L52.8 10.45 Q52.7 6.7 37.8 2.95 L35.4 2.35 16.15 2.35 15.85 2.35 Q12.9 2.8 10.0 3.25 L9.05 3.35 Q3.4 3.85 2.25 4.35 L2.25 4.35 Q1.4 4.4 0.55 4.45 -0.1 4.5 -0.7 4.55 L-1.9 4.8 -1.9 4.8 Q-2.7 5.1 -3.45 5.4 -3.8 5.65 -3.8 5.95 L-3.7 6.25 -3.0 6.7 Q-2.45 6.9 -1.9 7.05 L-1.55 7.55 Q-0.8 8.65 -1.05 9.2 L-1.05 9.2 Q-2.0 11.25 -4.1 11.65 L-4.6 11.7 Q-7.2 11.85 -7.2 12.5"/>
    </path>
    <path d="M-13.9 12.95 Q-14.0 12.0 -11.1 11.55 L-10.55 11.45 Q-8.25 11.3 -5.9 11.15 L-5.8 11.15 Q-4.75 10.95 -3.7 10.75 L-3.3 10.5 Q-2.95 10.05 -3.15 9.25 L-3.35 8.45 -3.55 8.45 Q-3.95 8.45 -4.4 8.5 -5.3 8.4 -6.15 7.8 L-6.15 7.8 -6.95 6.85 Q-6.95 6.5 -6.15 5.85 -5.3 5.2 -4.4 4.95 L-4.2 4.95 Q-0.55 4.65 3.1 4.35 L4.25 4.35 Q5.2 3.9 10.8 3.35 L11.2 3.35 33.55 2.6 36.55 2.5 Q53.1 6.5 53.1 10.45 L53.1 10.65 Q52.9 14.65 45.1 17.5 L43.45 18.05 Q35.9 20.45 25.9 20.45 L21.75 20.35 12.45 19.2 7.1 19.35 6.5 19.35 0.6 19.25 -2.05 19.1 Q-4.75 18.8 -4.75 18.35 L-5.55 17.55 Q-5.65 17.2 -5.1 16.95 L-3.0 16.4 -1.65 16.05 Q-1.1 15.65 -2.4 15.15 L-3.8 14.75 Q-4.85 14.5 -5.9 14.25 L-7.4 14.0 -8.9 13.85 -11.9 13.6 -12.0 13.6 Q-12.85 13.4 -13.7 13.15 L-13.9 12.95 Z" fill="none" stroke="#000000" stroke-linecap="round" stroke-linejoin="round" stroke-opacity="0.0" stroke-width="0.0">
      <animate attributeName="stroke" dur="2s" repeatCount="indefinite" values="#000000;#000001"/>
      <animate attributeName="stroke-width" dur="2s" repeatCount="indefinite" values="0.0;0.0"/>
      <animate attributeName="fill-opacity" dur="2s" repeatCount="indefinite" values="0.0;0.0"/>
      <animate attributeName="d" dur="2s" repeatCount="indefinite" values="M-13.9 12.95 Q-14.0 12.0 -11.1 11.55 L-10.55 11.45 Q-8.25 11.3 -5.9 11.15 L-5.8 11.15 Q-4.75 10.95 -3.7 10.75 L-3.3 10.5 Q-2.95 10.05 -3.15 9.25 L-3.35 8.45 -3.55 8.45 Q-3.95 8.45 -4.4 8.5 -5.3 8.4 -6.15 7.8 L-6.15 7.8 -6.95 6.85 Q-6.95 6.5 -6.15 5.85 -5.3 5.2 -4.4 4.95 L-4.2 4.95 Q-0.55 4.65 3.1 4.35 L4.25 4.35 Q5.2 3.9 10.8 3.35 L11.2 3.35 33.55 2.6 36.55 2.5 Q53.1 6.5 53.1 10.45 L53.1 10.65 Q52.9 14.65 45.1 17.5 L43.45 18.05 Q35.9 20.45 25.9 20.45 L21.75 20.35 12.45 19.2 7.1 19.35 6.5 19.35 0.6 19.25 -2.05 19.1 Q-4.75 18.8 -4.75 18.35 L-5.55 17.55 Q-5.65 17.2 -5.1 16.95 L-3.0 16.4 -1.65 16.05 Q-1.1 15.65 -2.4 15.15 L-3.8 14.75 Q-4.85 14.5 -5.9 14.25 L-7.4 14.0 -8.9 13.85 -11.9 13.6 -12.0 13.6 Q-12.85 13.4 -13.7 13.15 L-13.9 12.95 Z;M-7.2 12.5 Q-7.2 11.85 -4.6 11.7 L-4.1 11.65 Q-2.0 11.25 -1.05 9.2 L-1.05 9.2 Q-0.8 8.65 -1.55 7.55 L-1.9 7.05 Q-2.45 6.9 -3.0 6.7 L-3.7 6.25 -3.8 5.95 Q-3.8 5.65 -3.45 5.4 -2.7 5.1 -1.9 4.8 L-1.9 4.8 -0.7 4.55 Q-0.1 4.5 0.55 4.45 1.4 4.4 2.25 4.35 L2.25 4.35 Q3.4 3.85 9.05 3.35 L10.0 3.25 Q12.9 2.8 15.85 2.35 L16.15 2.35 35.4 2.35 37.8 2.95 Q52.7 6.7 52.8 10.45 L52.8 10.45 Q52.8 14.2 46.05 16.9 L44.55 17.5 Q37.75 19.95 28.6 20.35 L24.65 20.45 16.2 20.0 11.3 19.3 10.75 19.2 5.2 19.35 2.65 19.3 Q1.4 19.25 0.15 19.2 L-0.8 19.1 Q-1.2 19.1 -1.65 19.05 L-3.3 18.85 -4.45 18.3 Q-3.9 17.9 -3.35 17.5 L-1.95 16.9 Q-0.6 16.3 -0.9 15.75 L-2.1 15.0 -3.3 14.55 -5.9 13.6 -5.9 13.6 Q-7.2 13.15 -7.2 12.5 L-7.2 12.5 Z"/>
    </path>
  </g>
</svg>
