<?xml version="1.0" encoding="UTF-8" standalone="no"?>
<svg xmlns:ffdec="https://www.free-decompiler.com/flash" xmlns:xlink="http://www.w3.org/1999/xlink" ffdec:objectType="morphshape" height="10.25px" width="35.55px" xmlns="http://www.w3.org/2000/svg">
  <g transform="matrix(1.0, 0.0, 0.0, 1.0, -7.6, 6.85)">
    <path d="M29.0 -2.8 Q30.75 -1.0 36.2 -0.4 41.65 0.15 42.95 -3.7 44.2 -7.6 36.85 -6.65 L33.65 -4.95 Q31.7 -4.15 34.45 -3.5 35.25 -2.95 29.0 -2.8 M7.6 -1.85 Q7.4 -1.4 11.0 -1.35 10.8 -0.9 14.0 -0.65 10.85 1.55 16.6 2.05 23.35 2.6 24.8 -1.75 26.2 -6.15 18.85 -5.2 L11.4 -5.4 Q7.8 -4.8 13.35 -3.4 7.85 -2.5 7.6 -1.85" fill="#c1ebfb" fill-rule="evenodd" stroke="none">
      <animate attributeName="fill" dur="2s" repeatCount="indefinite" values="#c1ebfb;#c1ebfc"/>
      <animate attributeName="fill-opacity" dur="2s" repeatCount="indefinite" values="1.0;0.4392157"/>
      <animate attributeName="d" dur="2s" repeatCount="indefinite" values="M29.0 -2.8 Q30.75 -1.0 36.2 -0.4 41.65 0.15 42.95 -3.7 44.2 -7.6 36.85 -6.65 L33.65 -4.95 Q31.7 -4.15 34.45 -3.5 35.25 -2.95 29.0 -2.8 M7.6 -1.85 Q7.4 -1.4 11.0 -1.35 10.8 -0.9 14.0 -0.65 10.85 1.55 16.6 2.05 23.35 2.6 24.8 -1.75 26.2 -6.15 18.85 -5.2 L11.4 -5.4 Q7.8 -4.8 13.35 -3.4 7.85 -2.5 7.6 -1.85;M32.65 -2.3 Q33.35 -1.7 35.6 -1.5 37.85 -1.35 38.4 -2.65 38.9 -3.95 35.85 -3.65 L34.55 -3.05 Q33.75 -2.8 34.9 -2.55 33.75 -2.4 32.65 -2.3 M12.45 1.65 Q13.2 1.75 13.95 1.85 14.65 2.05 15.3 2.2 13.9 3.15 16.45 3.35 19.45 3.6 20.05 1.7 20.7 -0.25 17.45 0.15 L14.15 0.05 Q12.55 0.35 15.0 0.95 12.55 1.35 12.45 1.65"/>
    </path>
    <path d="M7.6 -1.85 Q7.85 -2.5 13.35 -3.4 7.8 -4.8 11.4 -5.4 L18.85 -5.2 Q26.2 -6.15 24.8 -1.75 23.35 2.6 16.6 2.05 10.85 1.55 14.0 -0.65 10.8 -0.9 11.0 -1.35 7.4 -1.4 7.6 -1.85 M29.0 -2.8 Q35.25 -2.95 34.45 -3.5 31.7 -4.15 33.65 -4.95 L36.85 -6.65 Q44.2 -7.6 42.95 -3.7 41.65 0.15 36.2 -0.4 30.75 -1.0 29.0 -2.8 Z" fill="none" stroke="#000000" stroke-linecap="round" stroke-linejoin="round" stroke-opacity="0.0" stroke-width="0.0">
      <animate attributeName="stroke" dur="2s" repeatCount="indefinite" values="#000000;#000001"/>
      <animate attributeName="stroke-width" dur="2s" repeatCount="indefinite" values="0.0;0.0"/>
      <animate attributeName="fill-opacity" dur="2s" repeatCount="indefinite" values="0.0;0.0"/>
      <animate attributeName="d" dur="2s" repeatCount="indefinite" values="M7.6 -1.85 Q7.85 -2.5 13.35 -3.4 7.8 -4.8 11.4 -5.4 L18.85 -5.2 Q26.2 -6.15 24.8 -1.75 23.35 2.6 16.6 2.05 10.85 1.55 14.0 -0.65 10.8 -0.9 11.0 -1.35 7.4 -1.4 7.6 -1.85 M29.0 -2.8 Q35.25 -2.95 34.45 -3.5 31.7 -4.15 33.65 -4.95 L36.85 -6.65 Q44.2 -7.6 42.95 -3.7 41.65 0.15 36.2 -0.4 30.75 -1.0 29.0 -2.8 Z;M12.45 1.65 Q12.55 1.35 15.0 0.95 12.55 0.35 14.15 0.05 L17.45 0.15 Q20.7 -0.25 20.05 1.7 19.45 3.6 16.45 3.35 13.9 3.15 15.3 2.2 14.65 2.05 13.95 1.85 13.2 1.75 12.45 1.65 M32.65 -2.3 Q33.75 -2.4 34.9 -2.55 33.75 -2.8 34.55 -3.05 L35.85 -3.65 Q38.9 -3.95 38.4 -2.65 37.85 -1.35 35.6 -1.5 33.35 -1.7 32.65 -2.3 Z"/>
    </path>
  </g>
</svg>
