<?xml version="1.0" encoding="UTF-8" standalone="no"?>
<svg xmlns:ffdec="https://www.free-decompiler.com/flash" xmlns:xlink="http://www.w3.org/1999/xlink" ffdec:objectType="morphshape" height="7.95px" width="62.95px" xmlns="http://www.w3.org/2000/svg">
  <g transform="matrix(1.0, 0.0, 0.0, 1.0, -6.95, -81.35)">
    <path d="M51.1 85.0 Q57.35 85.15 55.75 87.15 57.7 88.0 58.95 88.85 66.3 89.8 65.05 85.9 63.75 82.05 58.3 82.6 52.85 83.2 51.1 85.0 M28.5 84.75 Q34.75 84.9 33.15 86.9 35.1 87.75 36.35 88.6 43.7 89.55 42.45 85.65 41.15 81.8 35.7 82.35 30.25 82.95 28.5 84.75 M6.95 85.3 Q7.2 85.95 12.7 86.85 7.15 88.25 10.75 88.85 L18.2 88.65 Q25.55 89.6 24.15 85.2 22.7 80.85 15.95 81.4 10.2 81.9 13.35 84.1 10.15 84.35 10.35 84.8 6.75 84.85 6.95 85.3" fill="#c1ebfb" fill-rule="evenodd" stroke="none">
      <animate attributeName="fill" dur="2s" repeatCount="indefinite" values="#c1ebfb;#c1ebfc"/>
      <animate attributeName="fill-opacity" dur="2s" repeatCount="indefinite" values="1.0;0.4392157"/>
      <animate attributeName="d" dur="2s" repeatCount="indefinite" values="M51.1 85.0 Q57.35 85.15 55.75 87.15 57.7 88.0 58.95 88.85 66.3 89.8 65.05 85.9 63.75 82.05 58.3 82.6 52.85 83.2 51.1 85.0 M28.5 84.75 Q34.75 84.9 33.15 86.9 35.1 87.75 36.35 88.6 43.7 89.55 42.45 85.65 41.15 81.8 35.7 82.35 30.25 82.95 28.5 84.75 M6.95 85.3 Q7.2 85.95 12.7 86.85 7.15 88.25 10.75 88.85 L18.2 88.65 Q25.55 89.6 24.15 85.2 22.7 80.85 15.95 81.4 10.2 81.9 13.35 84.1 10.15 84.35 10.35 84.8 6.75 84.85 6.95 85.3;M64.1 83.5 Q66.65 83.55 66.0 84.25 66.65 84.55 67.3 84.85 70.35 85.15 69.85 83.85 69.3 82.55 67.05 82.7 64.8 82.9 64.1 83.5 M32.0 83.5 Q34.55 83.55 33.9 84.25 34.55 84.55 35.2 84.85 38.25 85.15 37.75 83.85 37.2 82.55 34.95 82.7 32.7 82.9 32.0 83.5 M11.8 84.05 Q11.9 84.35 14.35 84.75 11.9 85.35 13.5 85.65 L16.8 85.55 Q20.05 85.95 19.4 84.0 18.8 82.1 15.8 82.35 13.25 82.55 14.65 83.5 13.2 83.65 13.3 83.85 12.55 83.95 11.8 84.05"/>
    </path>
    <path d="M6.95 85.3 Q6.75 84.85 10.35 84.8 10.15 84.35 13.35 84.1 10.2 81.9 15.95 81.4 22.7 80.85 24.15 85.2 25.55 89.6 18.2 88.65 L10.75 88.85 Q7.15 88.25 12.7 86.85 7.2 85.95 6.95 85.3 M28.5 84.75 Q30.25 82.95 35.7 82.35 41.15 81.8 42.45 85.65 43.7 89.55 36.35 88.6 35.1 87.75 33.15 86.9 34.75 84.9 28.5 84.75 M51.1 85.0 Q52.85 83.2 58.3 82.6 63.75 82.05 65.05 85.9 66.3 89.8 58.95 88.85 57.7 88.0 55.75 87.15 57.35 85.15 51.1 85.0 Z" fill="none" stroke="#000000" stroke-linecap="round" stroke-linejoin="round" stroke-opacity="0.0" stroke-width="0.0">
      <animate attributeName="stroke" dur="2s" repeatCount="indefinite" values="#000000;#000001"/>
      <animate attributeName="stroke-width" dur="2s" repeatCount="indefinite" values="0.0;0.0"/>
      <animate attributeName="fill-opacity" dur="2s" repeatCount="indefinite" values="0.0;0.0"/>
      <animate attributeName="d" dur="2s" repeatCount="indefinite" values="M6.95 85.3 Q6.75 84.85 10.35 84.8 10.15 84.35 13.35 84.1 10.2 81.9 15.95 81.4 22.7 80.85 24.15 85.2 25.55 89.6 18.2 88.65 L10.75 88.85 Q7.15 88.25 12.7 86.85 7.2 85.95 6.95 85.3 M28.5 84.75 Q30.25 82.95 35.7 82.35 41.15 81.8 42.45 85.65 43.7 89.55 36.35 88.6 35.1 87.75 33.15 86.9 34.75 84.9 28.5 84.75 M51.1 85.0 Q52.85 83.2 58.3 82.6 63.75 82.05 65.05 85.9 66.3 89.8 58.95 88.85 57.7 88.0 55.75 87.15 57.35 85.15 51.1 85.0 Z;M11.8 84.05 Q12.55 83.95 13.3 83.85 13.2 83.65 14.65 83.5 13.25 82.55 15.8 82.35 18.8 82.1 19.4 84.0 20.05 85.95 16.8 85.55 L13.5 85.65 Q11.9 85.35 14.35 84.75 11.9 84.35 11.8 84.05 M32.0 83.5 Q32.7 82.9 34.95 82.7 37.2 82.55 37.75 83.85 38.25 85.15 35.2 84.85 34.55 84.55 33.9 84.25 34.55 83.55 32.0 83.5 M64.1 83.5 Q64.8 82.9 67.05 82.7 69.3 82.55 69.85 83.85 70.35 85.15 67.3 84.85 66.65 84.55 66.0 84.25 66.65 83.55 64.1 83.5 Z"/>
    </path>
  </g>
</svg>
