<?xml version="1.0" encoding="UTF-8" standalone="no"?>
<svg xmlns:ffdec="https://www.free-decompiler.com/flash" xmlns:xlink="http://www.w3.org/1999/xlink" ffdec:objectType="morphshape" height="13.15px" width="56.85px" xmlns="http://www.w3.org/2000/svg">
  <g transform="matrix(1.0, 0.0, 0.0, 1.0, -24.1, 7.75)">
    <path d="M69.35 -0.7 Q70.75 0.6 75.25 1.05 79.7 1.45 80.8 -1.4 81.8 -4.25 75.8 -3.55 74.75 -2.9 73.15 -2.3 71.55 -1.7 73.8 -1.25 74.45 -0.85 69.35 -0.7 M47.5 -1.4 Q49.25 0.4 54.7 1.0 60.15 1.55 61.45 -2.3 62.7 -6.2 55.35 -5.25 54.1 -4.4 52.15 -3.55 50.2 -2.75 52.95 -2.1 53.75 -1.55 47.5 -1.4 M28.1 1.5 L28.1 1.5 Q27.9 1.95 31.5 2.0 28.6 4.8 33.55 5.35 L33.55 5.35 Q38.2 5.8 41.4 3.25 L43.1 1.6 Q45.75 -1.65 42.5 -2.0 L39.35 -1.85 31.9 -2.05 Q30.2 -1.75 30.55 -1.3 30.85 -0.9 32.9 -0.3 33.4 -0.15 33.85 -0.05 28.35 0.85 28.1 1.5" fill="#c1ebfb" fill-rule="evenodd" stroke="none">
      <animate attributeName="fill" dur="2s" repeatCount="indefinite" values="#c1ebfb;#c1ebfc"/>
      <animate attributeName="fill-opacity" dur="2s" repeatCount="indefinite" values="1.0;1.0"/>
      <animate attributeName="d" dur="2s" repeatCount="indefinite" values="M69.35 -0.7 Q70.75 0.6 75.25 1.05 79.7 1.45 80.8 -1.4 81.8 -4.25 75.8 -3.55 74.75 -2.9 73.15 -2.3 71.55 -1.7 73.8 -1.25 74.45 -0.85 69.35 -0.7 M47.5 -1.4 Q49.25 0.4 54.7 1.0 60.15 1.55 61.45 -2.3 62.7 -6.2 55.35 -5.25 54.1 -4.4 52.15 -3.55 50.2 -2.75 52.95 -2.1 53.75 -1.55 47.5 -1.4 M28.1 1.5 L28.1 1.5 Q27.9 1.95 31.5 2.0 28.6 4.8 33.55 5.35 L33.55 5.35 Q38.2 5.8 41.4 3.25 L43.1 1.6 Q45.75 -1.65 42.5 -2.0 L39.35 -1.85 31.9 -2.05 Q30.2 -1.75 30.55 -1.3 30.85 -0.9 32.9 -0.3 33.4 -0.15 33.85 -0.05 28.35 0.85 28.1 1.5;M61.95 -2.75 Q63.7 -1.65 69.15 -1.3 74.6 -0.95 75.9 -3.3 77.15 -5.65 69.8 -5.1 69.0 -4.75 71.4 -4.2 67.3 -4.25 67.4 -3.15 64.65 -2.95 61.95 -2.75 M39.75 -3.7 Q41.5 -1.9 46.95 -1.3 52.4 -0.75 53.7 -4.6 54.95 -8.5 47.6 -7.55 46.8 -7.0 49.2 -6.05 45.1 -6.15 45.2 -4.4 46.0 -3.85 39.75 -3.7 M24.1 -0.4 L24.2 -0.4 Q25.45 -0.35 26.7 -0.3 29.2 0.05 30.6 1.4 L30.6 1.4 Q32.7 3.3 35.45 -0.3 L36.45 -1.85 Q37.55 -4.05 35.3 -4.35 L33.15 -3.85 27.7 -2.7 Q27.05 -2.55 26.45 -2.45 28.3 -2.2 28.5 -1.7 28.55 -1.5 27.9 -1.25 26.0 -0.8 24.1 -0.4"/>
    </path>
    <path d="M28.1 1.5 Q28.35 0.85 33.85 -0.05 33.4 -0.15 32.9 -0.3 30.85 -0.9 30.55 -1.3 30.2 -1.75 31.9 -2.05 L39.35 -1.85 42.5 -2.0 Q45.75 -1.65 43.1 1.6 L41.4 3.25 Q38.2 5.8 33.55 5.35 L33.55 5.35 Q28.6 4.8 31.5 2.0 27.9 1.95 28.1 1.5 L28.1 1.5 M47.5 -1.4 Q53.75 -1.55 52.95 -2.1 50.2 -2.75 52.15 -3.55 54.1 -4.4 55.35 -5.25 62.7 -6.2 61.45 -2.3 60.15 1.55 54.7 1.0 49.25 0.4 47.5 -1.4 M69.35 -0.7 Q74.45 -0.85 73.8 -1.25 71.55 -1.7 73.15 -2.3 74.75 -2.9 75.8 -3.55 81.8 -4.25 80.8 -1.4 79.7 1.45 75.25 1.05 70.75 0.6 69.35 -0.7 Z" fill="none" stroke="#000000" stroke-linecap="round" stroke-linejoin="round" stroke-opacity="0.0" stroke-width="0.0">
      <animate attributeName="stroke" dur="2s" repeatCount="indefinite" values="#000000;#000001"/>
      <animate attributeName="stroke-width" dur="2s" repeatCount="indefinite" values="0.0;0.0"/>
      <animate attributeName="fill-opacity" dur="2s" repeatCount="indefinite" values="0.0;0.0"/>
      <animate attributeName="d" dur="2s" repeatCount="indefinite" values="M28.1 1.5 Q28.35 0.85 33.85 -0.05 33.4 -0.15 32.9 -0.3 30.85 -0.9 30.55 -1.3 30.2 -1.75 31.9 -2.05 L39.35 -1.85 42.5 -2.0 Q45.75 -1.65 43.1 1.6 L41.4 3.25 Q38.2 5.8 33.55 5.35 L33.55 5.35 Q28.6 4.8 31.5 2.0 27.9 1.95 28.1 1.5 L28.1 1.5 M47.5 -1.4 Q53.75 -1.55 52.95 -2.1 50.2 -2.75 52.15 -3.55 54.1 -4.4 55.35 -5.25 62.7 -6.2 61.45 -2.3 60.15 1.55 54.7 1.0 49.25 0.4 47.5 -1.4 M69.35 -0.7 Q74.45 -0.85 73.8 -1.25 71.55 -1.7 73.15 -2.3 74.75 -2.9 75.8 -3.55 81.8 -4.25 80.8 -1.4 79.7 1.45 75.25 1.05 70.75 0.6 69.35 -0.7 Z;M24.1 -0.4 Q26.0 -0.8 27.9 -1.25 28.55 -1.5 28.5 -1.7 28.3 -2.2 26.45 -2.45 27.05 -2.55 27.7 -2.7 L33.15 -3.85 35.3 -4.35 Q37.55 -4.05 36.45 -1.85 L35.45 -0.3 Q32.7 3.3 30.6 1.4 L30.6 1.4 Q29.2 0.05 26.7 -0.3 25.45 -0.35 24.2 -0.4 L24.1 -0.4 M39.75 -3.7 Q46.0 -3.85 45.2 -4.4 45.1 -6.15 49.2 -6.05 46.8 -7.0 47.6 -7.55 54.95 -8.5 53.7 -4.6 52.4 -0.75 46.95 -1.3 41.5 -1.9 39.75 -3.7 M61.95 -2.75 Q64.65 -2.95 67.4 -3.15 67.3 -4.25 71.4 -4.2 69.0 -4.75 69.8 -5.1 77.15 -5.65 75.9 -3.3 74.6 -0.95 69.15 -1.3 63.7 -1.65 61.95 -2.75 Z"/>
    </path>
  </g>
</svg>
