<?xml version="1.0" encoding="UTF-8" standalone="no"?>
<svg xmlns:ffdec="https://www.free-decompiler.com/flash" xmlns:xlink="http://www.w3.org/1999/xlink" ffdec:objectType="morphshape" height="8.6px" width="56.35px" xmlns="http://www.w3.org/2000/svg">
  <g transform="matrix(1.0, 0.0, 0.0, 1.0, -30.55, -78.7)">
    <path d="M75.5 82.2 L75.5 82.2 Q80.6 82.3 79.45 83.0 78.95 83.15 78.5 83.25 77.75 83.3 79.25 83.95 80.3 84.4 81.9 85.35 87.3 86.05 86.85 82.95 85.8 79.85 81.35 80.25 76.9 80.7 75.5 82.2 M54.6 82.75 L54.6 82.75 Q59.7 82.85 59.0 83.3 58.3 83.55 57.6 83.8 56.85 83.85 58.35 84.5 59.45 84.95 61.0 85.9 66.6 86.6 65.95 83.5 64.9 80.35 60.45 80.8 56.0 81.25 54.6 82.75 M35.85 82.35 Q36.0 82.8 39.75 83.45 L39.75 83.45 39.85 83.45 Q37.4 84.05 37.5 84.5 L38.3 84.85 38.5 84.85 Q41.1 84.75 43.65 84.7 L43.65 84.7 45.95 84.8 Q48.1 84.5 46.3 82.3 L46.15 82.1 45.05 81.1 Q42.8 79.35 39.65 79.7 L39.65 79.7 39.55 79.7 Q36.3 80.1 38.2 82.0 L38.2 82.0 35.85 82.35" fill="#c1ebfb" fill-rule="evenodd" stroke="none">
      <animate attributeName="fill" dur="2s" repeatCount="indefinite" values="#c1ebfb;#c1ebfc"/>
      <animate attributeName="fill-opacity" dur="2s" repeatCount="indefinite" values="1.0;1.0"/>
      <animate attributeName="d" dur="2s" repeatCount="indefinite" values="M75.5 82.2 L75.5 82.2 Q80.6 82.3 79.45 83.0 78.95 83.15 78.5 83.25 77.75 83.3 79.25 83.95 80.3 84.4 81.9 85.35 87.3 86.05 86.85 82.95 85.8 79.85 81.35 80.25 76.9 80.7 75.5 82.2 M54.6 82.75 L54.6 82.75 Q59.7 82.85 59.0 83.3 58.3 83.55 57.6 83.8 56.85 83.85 58.35 84.5 59.45 84.95 61.0 85.9 66.6 86.6 65.95 83.5 64.9 80.35 60.45 80.8 56.0 81.25 54.6 82.75 M35.85 82.35 Q36.0 82.8 39.75 83.45 L39.75 83.45 39.85 83.45 Q37.4 84.05 37.5 84.5 L38.3 84.85 38.5 84.85 Q41.1 84.75 43.65 84.7 L43.65 84.7 45.95 84.8 Q48.1 84.5 46.3 82.3 L46.15 82.1 45.05 81.1 Q42.8 79.35 39.65 79.7 L39.65 79.7 39.55 79.7 Q36.3 80.1 38.2 82.0 L38.2 82.0 35.85 82.35;M71.75 82.85 L71.95 82.85 Q77.2 83.0 75.7 84.15 75.35 84.2 76.5 84.45 77.25 84.7 78.0 84.9 78.65 85.55 80.85 86.2 86.85 86.6 85.45 83.1 83.95 80.45 78.65 80.85 73.45 81.4 71.75 82.85 M49.25 83.25 L49.45 83.25 Q54.6 83.4 53.65 84.45 53.5 84.6 54.0 85.15 54.75 85.45 55.45 85.7 56.1 86.45 58.25 87.25 64.35 87.75 63.05 83.75 61.65 80.35 56.35 80.85 51.0 81.45 49.25 83.25 M30.55 82.15 Q32.1 82.85 35.9 83.6 L35.85 83.6 35.75 83.6 Q33.45 84.35 32.95 84.85 L34.35 85.35 34.45 85.35 Q38.9 86.2 41.2 85.5 L41.2 85.5 44.1 85.75 Q46.95 85.4 44.9 82.6 L44.75 82.4 43.4 80.95 Q40.4 78.1 36.7 78.85 L36.5 78.85 36.3 78.9 Q32.35 79.65 33.7 81.75 L33.6 81.75 30.55 82.15"/>
    </path>
    <path d="M35.85 82.35 L38.2 82.0 38.2 82.0 Q36.3 80.1 39.55 79.7 L39.65 79.7 39.65 79.7 Q42.8 79.35 45.05 81.1 L46.15 82.1 46.3 82.3 Q48.1 84.5 45.95 84.8 L43.65 84.7 43.65 84.7 Q41.1 84.75 38.5 84.85 L38.3 84.85 37.5 84.5 Q37.4 84.05 39.85 83.45 L39.75 83.45 39.75 83.45 Q36.0 82.8 35.85 82.35 M54.6 82.75 Q56.0 81.25 60.45 80.8 64.9 80.35 65.95 83.5 66.6 86.6 61.0 85.9 59.45 84.95 58.35 84.5 56.85 83.85 57.6 83.8 58.3 83.55 59.0 83.3 59.7 82.85 54.6 82.75 L54.6 82.75 M75.5 82.2 Q76.9 80.7 81.35 80.25 85.8 79.85 86.85 82.95 87.3 86.05 81.9 85.35 80.3 84.4 79.25 83.95 77.75 83.3 78.5 83.25 78.95 83.15 79.45 83.0 80.6 82.3 75.5 82.2 L75.5 82.2 Z" fill="none" stroke="#000000" stroke-linecap="round" stroke-linejoin="round" stroke-opacity="0.0" stroke-width="0.0">
      <animate attributeName="stroke" dur="2s" repeatCount="indefinite" values="#000000;#000001"/>
      <animate attributeName="stroke-width" dur="2s" repeatCount="indefinite" values="0.0;0.0"/>
      <animate attributeName="fill-opacity" dur="2s" repeatCount="indefinite" values="0.0;0.0"/>
      <animate attributeName="d" dur="2s" repeatCount="indefinite" values="M35.85 82.35 L38.2 82.0 38.2 82.0 Q36.3 80.1 39.55 79.7 L39.65 79.7 39.65 79.7 Q42.8 79.35 45.05 81.1 L46.15 82.1 46.3 82.3 Q48.1 84.5 45.95 84.8 L43.65 84.7 43.65 84.7 Q41.1 84.75 38.5 84.85 L38.3 84.85 37.5 84.5 Q37.4 84.05 39.85 83.45 L39.75 83.45 39.75 83.45 Q36.0 82.8 35.85 82.35 M54.6 82.75 Q56.0 81.25 60.45 80.8 64.9 80.35 65.95 83.5 66.6 86.6 61.0 85.9 59.45 84.95 58.35 84.5 56.85 83.85 57.6 83.8 58.3 83.55 59.0 83.3 59.7 82.85 54.6 82.75 L54.6 82.75 M75.5 82.2 Q76.9 80.7 81.35 80.25 85.8 79.85 86.85 82.95 87.3 86.05 81.9 85.35 80.3 84.4 79.25 83.95 77.75 83.3 78.5 83.25 78.95 83.15 79.45 83.0 80.6 82.3 75.5 82.2 L75.5 82.2 Z;M30.55 82.15 L33.6 81.75 33.7 81.75 Q32.35 79.65 36.3 78.9 L36.5 78.85 36.7 78.85 Q40.4 78.1 43.4 80.95 L44.75 82.4 44.9 82.6 Q46.95 85.4 44.1 85.75 L41.2 85.5 41.2 85.5 Q38.9 86.2 34.45 85.35 L34.35 85.35 32.95 84.85 Q33.45 84.35 35.75 83.6 L35.85 83.6 35.9 83.6 Q32.1 82.85 30.55 82.15 M49.25 83.25 Q51.0 81.45 56.35 80.85 61.65 80.35 63.05 83.75 64.35 87.75 58.25 87.25 56.1 86.45 55.45 85.7 54.75 85.45 54.0 85.15 53.5 84.6 53.65 84.45 54.6 83.4 49.45 83.25 L49.25 83.25 M71.75 82.85 Q73.45 81.4 78.65 80.85 83.95 80.45 85.45 83.1 86.85 86.6 80.85 86.2 78.65 85.55 78.0 84.9 77.25 84.7 76.5 84.45 75.35 84.2 75.7 84.15 77.2 83.0 71.95 82.85 L71.75 82.85 Z"/>
    </path>
  </g>
</svg>
