<?xml version="1.0" encoding="UTF-8" standalone="no"?>
<svg xmlns:ffdec="https://www.free-decompiler.com/flash" xmlns:xlink="http://www.w3.org/1999/xlink" ffdec:objectType="morphshape" height="10.3px" width="62.45px" xmlns="http://www.w3.org/2000/svg">
  <g transform="matrix(1.0, 0.0, 0.0, 1.0, -23.45, -78.65)">
    <path d="M71.75 82.85 L71.75 82.85 Q77.2 83.0 76.15 83.9 L75.7 84.15 Q75.25 84.25 77.3 84.6 L77.75 84.7 Q78.45 85.45 81.0 86.25 82.05 86.25 83.05 86.25 86.6 85.95 85.7 83.6 85.25 82.55 84.35 81.9 82.55 80.55 77.75 80.95 73.3 81.5 71.75 82.85 M49.25 83.25 Q54.7 83.4 53.65 84.5 L53.2 84.8 Q54.25 85.15 55.25 85.45 55.95 86.35 58.45 87.25 59.5 87.25 60.55 87.25 64.1 86.95 63.2 84.15 62.85 83.05 62.15 82.3 60.35 80.45 55.4 80.95 50.85 81.65 49.25 83.25 M30.55 82.15 L30.65 82.15 Q32.2 82.85 35.9 83.6 L35.85 83.6 35.85 83.6 Q33.55 84.35 32.95 84.85 L32.95 84.85 34.35 85.35 Q38.9 86.2 41.2 85.5 L43.85 85.75 44.1 85.75 Q47.05 85.4 44.75 82.4 L43.7 81.25 43.4 80.95 Q40.55 78.25 37.0 78.75 L36.5 78.85 36.3 78.9 Q32.35 79.65 33.7 81.75 L30.55 82.15" fill="#c1ebfb" fill-rule="evenodd" stroke="none">
      <animate attributeName="fill" dur="2s" repeatCount="indefinite" values="#c1ebfb;#c1ebfc"/>
      <animate attributeName="fill-opacity" dur="2s" repeatCount="indefinite" values="1.0;1.0"/>
      <animate attributeName="d" dur="2s" repeatCount="indefinite" values="M71.75 82.85 L71.75 82.85 Q77.2 83.0 76.15 83.9 L75.7 84.15 Q75.25 84.25 77.3 84.6 L77.75 84.7 Q78.45 85.45 81.0 86.25 82.05 86.25 83.05 86.25 86.6 85.95 85.7 83.6 85.25 82.55 84.35 81.9 82.55 80.55 77.75 80.95 73.3 81.5 71.75 82.85 M49.25 83.25 Q54.7 83.4 53.65 84.5 L53.2 84.8 Q54.25 85.15 55.25 85.45 55.95 86.35 58.45 87.25 59.5 87.25 60.55 87.25 64.1 86.95 63.2 84.15 62.85 83.05 62.15 82.3 60.35 80.45 55.4 80.95 50.85 81.65 49.25 83.25 M30.55 82.15 L30.65 82.15 Q32.2 82.85 35.9 83.6 L35.85 83.6 35.85 83.6 Q33.55 84.35 32.95 84.85 L32.95 84.85 34.35 85.35 Q38.9 86.2 41.2 85.5 L43.85 85.75 44.1 85.75 Q47.05 85.4 44.75 82.4 L43.7 81.25 43.4 80.95 Q40.55 78.25 37.0 78.75 L36.5 78.85 36.3 78.9 Q32.35 79.65 33.7 81.75 L30.55 82.15;M64.65 84.9 L64.75 84.9 Q70.9 85.05 70.1 85.6 L69.4 85.8 Q67.65 86.35 69.3 87.05 L70.0 87.2 Q72.05 87.25 74.1 87.25 71.7 88.2 72.5 88.75 76.65 89.3 78.05 88.3 79.15 87.5 78.6 85.8 77.45 82.45 71.85 82.5 66.4 83.1 64.65 84.9 M39.1 84.9 Q45.35 85.05 44.55 85.6 L43.85 85.8 Q42.1 86.35 44.5 87.2 46.55 87.25 48.55 87.25 46.15 88.2 46.95 88.75 51.5 89.35 52.75 88.1 53.55 87.3 53.05 85.8 51.9 82.4 46.3 82.5 40.85 83.1 39.1 84.9 M23.45 81.6 L23.45 81.6 Q27.55 82.35 27.85 82.8 L27.85 82.8 27.85 82.9 Q27.65 83.4 25.8 83.65 L25.8 83.65 26.85 83.85 Q29.75 84.5 32.6 85.1 L34.65 85.55 34.85 85.55 Q37.05 85.1 35.55 82.6 L34.8 81.5 34.6 81.3 Q31.95 77.9 29.95 79.8 L29.75 80.0 29.65 80.1 Q28.25 81.25 26.0 81.5 L23.45 81.6"/>
    </path>
    <path d="M30.55 82.15 L33.7 81.75 Q32.35 79.65 36.3 78.9 L36.5 78.85 37.0 78.75 Q40.55 78.25 43.4 80.95 L43.7 81.25 44.75 82.4 Q47.05 85.4 44.1 85.75 L43.85 85.75 41.2 85.5 Q38.9 86.2 34.35 85.35 L32.95 84.85 32.95 84.85 Q33.55 84.35 35.85 83.6 L35.85 83.6 35.9 83.6 Q32.2 82.85 30.65 82.15 L30.55 82.15 M49.25 83.25 Q50.85 81.65 55.4 80.95 60.35 80.45 62.15 82.3 62.85 83.05 63.2 84.15 64.1 86.95 60.55 87.25 59.5 87.25 58.45 87.25 55.95 86.35 55.25 85.45 54.25 85.15 53.2 84.8 L53.65 84.5 Q54.7 83.4 49.25 83.25 M71.75 82.85 Q73.3 81.5 77.75 80.95 82.55 80.55 84.35 81.9 85.25 82.55 85.7 83.6 86.6 85.95 83.05 86.25 82.05 86.25 81.0 86.25 78.45 85.45 77.75 84.7 L77.3 84.6 Q75.25 84.25 75.7 84.15 L76.15 83.9 Q77.2 83.0 71.75 82.85 L71.75 82.85 Z" fill="none" stroke="#000000" stroke-linecap="round" stroke-linejoin="round" stroke-opacity="0.0" stroke-width="0.0">
      <animate attributeName="stroke" dur="2s" repeatCount="indefinite" values="#000000;#000001"/>
      <animate attributeName="stroke-width" dur="2s" repeatCount="indefinite" values="0.0;0.0"/>
      <animate attributeName="fill-opacity" dur="2s" repeatCount="indefinite" values="0.0;0.0"/>
      <animate attributeName="d" dur="2s" repeatCount="indefinite" values="M30.55 82.15 L33.7 81.75 Q32.35 79.65 36.3 78.9 L36.5 78.85 37.0 78.75 Q40.55 78.25 43.4 80.95 L43.7 81.25 44.75 82.4 Q47.05 85.4 44.1 85.75 L43.85 85.75 41.2 85.5 Q38.9 86.2 34.35 85.35 L32.95 84.85 32.95 84.85 Q33.55 84.35 35.85 83.6 L35.85 83.6 35.9 83.6 Q32.2 82.85 30.65 82.15 L30.55 82.15 M49.25 83.25 Q50.85 81.65 55.4 80.95 60.35 80.45 62.15 82.3 62.85 83.05 63.2 84.15 64.1 86.95 60.55 87.25 59.5 87.25 58.45 87.25 55.95 86.35 55.25 85.45 54.25 85.15 53.2 84.8 L53.65 84.5 Q54.7 83.4 49.25 83.25 M71.75 82.85 Q73.3 81.5 77.75 80.95 82.55 80.55 84.35 81.9 85.25 82.55 85.7 83.6 86.6 85.95 83.05 86.25 82.05 86.25 81.0 86.25 78.45 85.45 77.75 84.7 L77.3 84.6 Q75.25 84.25 75.7 84.15 L76.15 83.9 Q77.2 83.0 71.75 82.85 L71.75 82.85 Z;M23.45 81.6 L26.0 81.5 Q28.25 81.25 29.65 80.1 L29.75 80.0 29.95 79.8 Q31.95 77.9 34.6 81.3 L34.8 81.5 35.55 82.6 Q37.05 85.1 34.85 85.55 L34.65 85.55 32.6 85.1 Q29.75 84.5 26.85 83.85 L25.8 83.65 25.8 83.65 Q27.65 83.4 27.85 82.9 L27.85 82.8 27.85 82.8 Q27.55 82.35 23.45 81.6 L23.45 81.6 M39.1 84.9 Q40.85 83.1 46.3 82.5 51.9 82.4 53.05 85.8 53.55 87.3 52.75 88.1 51.5 89.35 46.95 88.75 46.15 88.2 48.55 87.25 46.55 87.25 44.5 87.2 42.1 86.35 43.85 85.8 L44.55 85.6 Q45.35 85.05 39.1 84.9 M64.65 84.9 Q66.4 83.1 71.85 82.5 77.45 82.45 78.6 85.8 79.15 87.5 78.05 88.3 76.65 89.3 72.5 88.75 71.7 88.2 74.1 87.25 72.05 87.25 70.0 87.2 L69.3 87.05 Q67.65 86.35 69.4 85.8 L70.1 85.6 Q70.9 85.05 64.75 84.9 L64.65 84.9 Z"/>
    </path>
  </g>
</svg>
