<?xml version="1.0" encoding="UTF-8" standalone="no"?>
<svg xmlns:ffdec="https://www.free-decompiler.com/flash" xmlns:xlink="http://www.w3.org/1999/xlink" ffdec:objectType="morphshape" height="9.85px" width="68.5px" xmlns="http://www.w3.org/2000/svg">
  <g transform="matrix(1.0, 0.0, 0.0, 1.0, -7.6, 7.75)">
    <path d="M61.95 -2.75 Q63.7 -1.65 69.15 -1.3 74.6 -0.95 75.9 -3.3 77.15 -5.65 71.4 -4.2 67.3 -4.25 67.4 -3.15 L61.95 -2.75 M39.75 -3.7 Q41.5 -1.9 46.95 -1.3 52.4 -0.75 53.7 -4.6 54.95 -8.5 47.6 -7.55 46.8 -7.0 49.2 -6.05 45.1 -6.15 45.2 -4.4 46.0 -3.85 39.75 -3.7 M24.1 -0.4 L24.1 -0.4 Q25.3 -0.35 26.5 -0.3 27.6 -0.05 28.65 0.2 29.65 0.8 30.6 1.4 31.4 2.15 32.3 2.05 33.75 1.95 35.45 -0.3 36.1 -1.4 36.7 -2.45 37.25 -4.1 35.3 -4.35 L32.45 -3.7 27.35 -2.65 26.45 -2.45 Q28.3 -2.2 28.5 -1.7 28.55 -1.5 27.7 -1.2 25.9 -0.8 24.1 -0.4" fill="#c1ebfb" fill-rule="evenodd" stroke="none">
      <animate attributeName="fill" dur="2s" repeatCount="indefinite" values="#c1ebfb;#c1ebfc"/>
      <animate attributeName="fill-opacity" dur="2s" repeatCount="indefinite" values="1.0;1.0"/>
      <animate attributeName="d" dur="2s" repeatCount="indefinite" values="M61.95 -2.75 Q63.7 -1.65 69.15 -1.3 74.6 -0.95 75.9 -3.3 77.15 -5.65 71.4 -4.2 67.3 -4.25 67.4 -3.15 L61.95 -2.75 M39.75 -3.7 Q41.5 -1.9 46.95 -1.3 52.4 -0.75 53.7 -4.6 54.95 -8.5 47.6 -7.55 46.8 -7.0 49.2 -6.05 45.1 -6.15 45.2 -4.4 46.0 -3.85 39.75 -3.7 M24.1 -0.4 L24.1 -0.4 Q25.3 -0.35 26.5 -0.3 27.6 -0.05 28.65 0.2 29.65 0.8 30.6 1.4 31.4 2.15 32.3 2.05 33.75 1.95 35.45 -0.3 36.1 -1.4 36.7 -2.45 37.25 -4.1 35.3 -4.35 L32.45 -3.7 27.35 -2.65 26.45 -2.45 Q28.3 -2.2 28.5 -1.7 28.55 -1.5 27.7 -1.2 25.9 -0.8 24.1 -0.4;M50.2 -3.4 Q51.95 -2.3 57.4 -1.95 62.85 -1.6 64.15 -3.95 65.4 -6.3 59.65 -4.85 55.55 -4.9 55.65 -3.8 L50.2 -3.4 M29.0 -2.8 Q30.75 -1.0 36.2 -0.4 41.65 0.15 42.95 -3.7 44.2 -7.6 36.85 -6.65 35.25 -5.8 33.65 -4.95 31.7 -4.15 34.45 -3.5 35.25 -2.95 29.0 -2.8 M7.6 -1.85 L7.6 -1.75 Q7.65 -1.4 11.0 -1.35 10.8 -0.9 14.0 -0.65 11.7 0.95 14.2 1.65 15.4 1.85 16.6 2.05 20.7 2.4 22.85 0.9 24.25 -0.05 24.8 -1.75 25.65 -4.45 23.25 -5.1 L18.85 -5.2 11.4 -5.4 10.2 -5.05 Q9.3 -4.55 12.1 -3.7 12.75 -3.55 13.35 -3.4 7.85 -2.5 7.6 -1.85"/>
    </path>
    <path d="M24.1 -0.4 Q25.9 -0.8 27.7 -1.2 28.55 -1.5 28.5 -1.7 28.3 -2.2 26.45 -2.45 L27.35 -2.65 32.45 -3.7 35.3 -4.35 Q37.25 -4.1 36.7 -2.45 36.1 -1.4 35.45 -0.3 33.75 1.95 32.3 2.05 31.4 2.15 30.6 1.4 29.65 0.8 28.65 0.2 27.6 -0.05 26.5 -0.3 25.3 -0.35 24.1 -0.4 L24.1 -0.4 M39.75 -3.7 Q46.0 -3.85 45.2 -4.4 45.1 -6.15 49.2 -6.05 46.8 -7.0 47.6 -7.55 54.95 -8.5 53.7 -4.6 52.4 -0.75 46.95 -1.3 41.5 -1.9 39.75 -3.7 M61.95 -2.75 L67.4 -3.15 Q67.3 -4.25 71.4 -4.2 77.15 -5.65 75.9 -3.3 74.6 -0.95 69.15 -1.3 63.7 -1.65 61.95 -2.75 Z" fill="none" stroke="#000000" stroke-linecap="round" stroke-linejoin="round" stroke-opacity="0.0" stroke-width="0.0">
      <animate attributeName="stroke" dur="2s" repeatCount="indefinite" values="#000000;#000001"/>
      <animate attributeName="stroke-width" dur="2s" repeatCount="indefinite" values="0.0;0.0"/>
      <animate attributeName="fill-opacity" dur="2s" repeatCount="indefinite" values="0.0;0.0"/>
      <animate attributeName="d" dur="2s" repeatCount="indefinite" values="M24.1 -0.4 Q25.9 -0.8 27.7 -1.2 28.55 -1.5 28.5 -1.7 28.3 -2.2 26.45 -2.45 L27.35 -2.65 32.45 -3.7 35.3 -4.35 Q37.25 -4.1 36.7 -2.45 36.1 -1.4 35.45 -0.3 33.75 1.95 32.3 2.05 31.4 2.15 30.6 1.4 29.65 0.8 28.65 0.2 27.6 -0.05 26.5 -0.3 25.3 -0.35 24.1 -0.4 L24.1 -0.4 M39.75 -3.7 Q46.0 -3.85 45.2 -4.4 45.1 -6.15 49.2 -6.05 46.8 -7.0 47.6 -7.55 54.95 -8.5 53.7 -4.6 52.4 -0.75 46.95 -1.3 41.5 -1.9 39.75 -3.7 M61.95 -2.75 L67.4 -3.15 Q67.3 -4.25 71.4 -4.2 77.15 -5.65 75.9 -3.3 74.6 -0.95 69.15 -1.3 63.7 -1.65 61.95 -2.75 Z;M7.6 -1.85 Q7.85 -2.5 13.35 -3.4 12.75 -3.55 12.1 -3.7 9.3 -4.55 10.2 -5.05 L11.4 -5.4 18.85 -5.2 23.25 -5.1 Q25.65 -4.45 24.8 -1.75 24.25 -0.05 22.85 0.9 20.7 2.4 16.6 2.05 15.4 1.85 14.2 1.65 11.7 0.95 14.0 -0.65 10.8 -0.9 11.0 -1.35 7.65 -1.4 7.6 -1.75 L7.6 -1.85 M29.0 -2.8 Q35.25 -2.95 34.45 -3.5 31.7 -4.15 33.65 -4.95 35.25 -5.8 36.85 -6.65 44.2 -7.6 42.95 -3.7 41.65 0.15 36.2 -0.4 30.75 -1.0 29.0 -2.8 M50.2 -3.4 L55.65 -3.8 Q55.55 -4.9 59.65 -4.85 65.4 -6.3 64.15 -3.95 62.85 -1.6 57.4 -1.95 51.95 -2.3 50.2 -3.4 Z"/>
    </path>
  </g>
</svg>
