<?xml version="1.0" encoding="UTF-8" standalone="no"?>
<svg xmlns:ffdec="https://www.free-decompiler.com/flash" xmlns:xlink="http://www.w3.org/1999/xlink" ffdec:objectType="morphshape" height="10.2px" width="71.85px" xmlns="http://www.w3.org/2000/svg">
  <g transform="matrix(1.0, 0.0, 0.0, 1.0, -6.95, -79.1)">
    <path d="M64.65 84.9 Q70.9 85.05 69.3 87.05 71.7 87.15 74.1 87.25 71.7 88.2 72.5 88.75 79.85 89.7 78.6 85.8 77.3 81.95 71.85 82.5 66.4 83.1 64.65 84.9 M39.1 84.9 Q45.35 85.05 43.75 87.05 46.15 87.15 48.55 87.25 46.15 88.2 46.95 88.75 54.3 89.7 53.05 85.8 51.75 81.95 46.3 82.5 40.85 83.1 39.1 84.9 M23.45 81.6 L23.55 81.6 Q27.15 82.25 27.75 82.7 L27.85 82.9 Q27.65 83.4 25.8 83.65 L26.7 83.85 31.75 84.9 34.65 85.55 Q36.7 85.25 35.95 83.4 35.35 82.45 34.8 81.5 32.85 78.95 31.25 79.1 30.55 79.2 29.95 79.8 29.15 80.6 27.95 81.0 26.9 81.25 25.85 81.5 24.65 81.55 23.45 81.6" fill="#c1ebfb" fill-rule="evenodd" stroke="none">
      <animate attributeName="fill" dur="2s" repeatCount="indefinite" values="#c1ebfb;#c1ebfc"/>
      <animate attributeName="fill-opacity" dur="2s" repeatCount="indefinite" values="1.0;1.0"/>
      <animate attributeName="d" dur="2s" repeatCount="indefinite" values="M64.65 84.9 Q70.9 85.05 69.3 87.05 71.7 87.15 74.1 87.25 71.7 88.2 72.5 88.75 79.85 89.7 78.6 85.8 77.3 81.95 71.85 82.5 66.4 83.1 64.65 84.9 M39.1 84.9 Q45.35 85.05 43.75 87.05 46.15 87.15 48.55 87.25 46.15 88.2 46.95 88.75 54.3 89.7 53.05 85.8 51.75 81.95 46.3 82.5 40.85 83.1 39.1 84.9 M23.45 81.6 L23.55 81.6 Q27.15 82.25 27.75 82.7 L27.85 82.9 Q27.65 83.4 25.8 83.65 L26.7 83.85 31.75 84.9 34.65 85.55 Q36.7 85.25 35.95 83.4 35.35 82.45 34.8 81.5 32.85 78.95 31.25 79.1 30.55 79.2 29.95 79.8 29.15 80.6 27.95 81.0 26.9 81.25 25.85 81.5 24.65 81.55 23.45 81.6;M51.1 85.0 Q57.35 85.15 54.8 86.3 53.8 86.35 55.75 87.15 57.7 88.0 58.95 88.85 66.3 89.8 65.05 85.9 63.75 82.05 58.3 82.6 52.85 83.2 51.1 85.0 M28.5 84.75 Q34.75 84.9 32.2 86.05 31.2 86.1 33.15 86.9 35.1 87.75 36.35 88.6 43.7 89.55 42.45 85.65 41.15 81.8 35.7 82.35 30.25 82.95 28.5 84.75 M6.95 85.3 L6.95 85.3 Q7.2 85.95 12.7 86.85 L12.5 86.95 Q8.5 87.9 9.55 88.5 L10.75 88.85 18.2 88.65 22.6 88.55 Q25.0 87.9 24.15 85.2 23.55 83.45 22.15 82.5 20.0 81.05 15.95 81.4 14.7 81.6 13.5 81.8 11.05 82.5 13.35 84.1 10.15 84.35 10.35 84.8 6.75 84.85 6.95 85.3"/>
    </path>
    <path d="M23.45 81.6 Q24.65 81.55 25.85 81.5 26.9 81.25 27.95 81.0 29.15 80.6 29.95 79.8 30.55 79.2 31.25 79.1 32.85 78.95 34.8 81.5 35.35 82.45 35.95 83.4 36.7 85.25 34.65 85.55 L31.75 84.9 26.7 83.85 25.8 83.65 Q27.65 83.4 27.85 82.9 L27.75 82.7 Q27.15 82.25 23.55 81.6 L23.45 81.6 M39.1 84.9 Q40.85 83.1 46.3 82.5 51.75 81.95 53.05 85.8 54.3 89.7 46.95 88.75 46.15 88.2 48.55 87.25 46.15 87.15 43.75 87.05 45.35 85.05 39.1 84.9 M64.65 84.9 Q66.4 83.1 71.85 82.5 77.3 81.95 78.6 85.8 79.85 89.7 72.5 88.75 71.7 88.2 74.1 87.25 71.7 87.15 69.3 87.05 70.9 85.05 64.65 84.9 Z" fill="none" stroke="#000000" stroke-linecap="round" stroke-linejoin="round" stroke-opacity="0.0" stroke-width="0.0">
      <animate attributeName="stroke" dur="2s" repeatCount="indefinite" values="#000000;#000001"/>
      <animate attributeName="stroke-width" dur="2s" repeatCount="indefinite" values="0.0;0.0"/>
      <animate attributeName="fill-opacity" dur="2s" repeatCount="indefinite" values="0.0;0.0"/>
      <animate attributeName="d" dur="2s" repeatCount="indefinite" values="M23.45 81.6 Q24.65 81.55 25.85 81.5 26.9 81.25 27.95 81.0 29.15 80.6 29.95 79.8 30.55 79.2 31.25 79.1 32.85 78.95 34.8 81.5 35.35 82.45 35.95 83.4 36.7 85.25 34.65 85.55 L31.75 84.9 26.7 83.85 25.8 83.65 Q27.65 83.4 27.85 82.9 L27.75 82.7 Q27.15 82.25 23.55 81.6 L23.45 81.6 M39.1 84.9 Q40.85 83.1 46.3 82.5 51.75 81.95 53.05 85.8 54.3 89.7 46.95 88.75 46.15 88.2 48.55 87.25 46.15 87.15 43.75 87.05 45.35 85.05 39.1 84.9 M64.65 84.9 Q66.4 83.1 71.85 82.5 77.3 81.95 78.6 85.8 79.85 89.7 72.5 88.75 71.7 88.2 74.1 87.25 71.7 87.15 69.3 87.05 70.9 85.05 64.65 84.9 Z;M6.95 85.3 Q6.75 84.85 10.35 84.8 10.15 84.35 13.35 84.1 11.05 82.5 13.5 81.8 14.7 81.6 15.95 81.4 20.0 81.05 22.15 82.5 23.55 83.45 24.15 85.2 25.0 87.9 22.6 88.55 L18.2 88.65 10.75 88.85 9.55 88.5 Q8.5 87.9 12.5 86.95 L12.7 86.85 Q7.2 85.95 6.95 85.3 L6.95 85.3 M28.5 84.75 Q30.25 82.95 35.7 82.35 41.15 81.8 42.45 85.65 43.7 89.55 36.35 88.6 35.1 87.75 33.15 86.9 31.2 86.1 32.2 86.05 34.75 84.9 28.5 84.75 M51.1 85.0 Q52.85 83.2 58.3 82.6 63.75 82.05 65.05 85.9 66.3 89.8 58.95 88.85 57.7 88.0 55.75 87.15 53.8 86.35 54.8 86.3 57.35 85.15 51.1 85.0 Z"/>
    </path>
  </g>
</svg>
