<?xml version="1.0" encoding="UTF-8" standalone="no"?>
<svg xmlns:ffdec="https://www.free-decompiler.com/flash" xmlns:xlink="http://www.w3.org/1999/xlink" ffdec:objectType="morphshape" height="7.8px" width="28.4px" xmlns="http://www.w3.org/2000/svg">
  <g transform="matrix(1.0, 0.0, 0.0, 1.0, 10.2, 35.9)">
    <path d="M8.25 -33.5 Q8.0 -32.75 8.2 -32.25 8.7 -31.05 11.75 -31.3 L12.85 -31.5 Q13.7 -32.05 15.5 -32.85 16.1 -33.2 14.3 -33.75 16.25 -33.95 18.2 -34.15 16.95 -35.45 12.85 -35.85 9.15 -36.2 8.25 -33.5 M-3.3 -32.05 Q-5.15 -29.8 -1.85 -30.05 L-1.15 -30.1 3.1 -29.95 Q4.8 -30.25 2.95 -30.8 L2.0 -31.1 2.55 -31.2 Q5.1 -31.65 5.25 -32.0 L4.1 -32.25 3.3 -32.25 Q4.95 -33.85 2.15 -34.2 L0.7 -34.2 Q-1.7 -33.95 -3.3 -32.05" fill="#c1ebfb" fill-rule="evenodd" stroke="none">
      <animate attributeName="fill" dur="2s" repeatCount="indefinite" values="#c1ebfb;#c1ebfc"/>
      <animate attributeName="fill-opacity" dur="2s" repeatCount="indefinite" values="1.0;1.0"/>
      <animate attributeName="d" dur="2s" repeatCount="indefinite" values="M8.25 -33.5 Q8.0 -32.75 8.2 -32.25 8.7 -31.05 11.75 -31.3 L12.85 -31.5 Q13.7 -32.05 15.5 -32.85 16.1 -33.2 14.3 -33.75 16.25 -33.95 18.2 -34.15 16.95 -35.45 12.85 -35.85 9.15 -36.2 8.25 -33.5 M-3.3 -32.05 Q-5.15 -29.8 -1.85 -30.05 L-1.15 -30.1 3.1 -29.95 Q4.8 -30.25 2.95 -30.8 L2.0 -31.1 2.55 -31.2 Q5.1 -31.65 5.25 -32.0 L4.1 -32.25 3.3 -32.25 Q4.95 -33.85 2.15 -34.2 L0.7 -34.2 Q-1.7 -33.95 -3.3 -32.05;M2.9 -31.35 Q2.5 -30.15 3.1 -29.5 5.45 -29.5 7.8 -29.5 L6.6 -30.15 Q8.55 -30.25 10.5 -30.3 11.2 -30.6 9.85 -31.5 9.2 -31.95 14.35 -32.05 12.95 -33.5 8.45 -34.05 3.95 -34.5 2.9 -31.35 M-9.15 -31.3 Q-11.35 -28.45 -9.0 -28.1 L-8.25 -28.3 -3.9 -29.2 Q-2.95 -29.4 -2.0 -29.6 L-3.15 -29.85 -3.65 -30.2 Q-3.75 -30.5 -1.5 -30.95 L-0.15 -31.25 -0.65 -31.25 Q-2.75 -31.25 -4.1 -31.85 L-5.3 -32.65 Q-6.9 -34.2 -9.15 -31.3"/>
    </path>
    <path d="M-3.3 -32.05 Q-1.7 -33.95 0.7 -34.2 L2.15 -34.2 Q4.95 -33.85 3.3 -32.25 L4.1 -32.25 5.25 -32.0 Q5.1 -31.65 2.55 -31.2 L2.0 -31.1 2.95 -30.8 Q4.8 -30.25 3.1 -29.95 L-1.15 -30.1 -1.85 -30.05 Q-5.15 -29.8 -3.3 -32.05 M8.25 -33.5 Q9.15 -36.2 12.85 -35.85 16.95 -35.45 18.2 -34.15 16.25 -33.95 14.3 -33.75 16.1 -33.2 15.5 -32.85 13.7 -32.05 12.85 -31.5 L11.75 -31.3 Q8.7 -31.05 8.2 -32.25 8.0 -32.75 8.25 -33.5 Z" fill="none" stroke="#000000" stroke-linecap="round" stroke-linejoin="round" stroke-opacity="0.0" stroke-width="0.0">
      <animate attributeName="stroke" dur="2s" repeatCount="indefinite" values="#000000;#000001"/>
      <animate attributeName="stroke-width" dur="2s" repeatCount="indefinite" values="0.0;0.0"/>
      <animate attributeName="fill-opacity" dur="2s" repeatCount="indefinite" values="0.0;0.0"/>
      <animate attributeName="d" dur="2s" repeatCount="indefinite" values="M-3.3 -32.05 Q-1.7 -33.95 0.7 -34.2 L2.15 -34.2 Q4.95 -33.85 3.3 -32.25 L4.1 -32.25 5.25 -32.0 Q5.1 -31.65 2.55 -31.2 L2.0 -31.1 2.95 -30.8 Q4.8 -30.25 3.1 -29.95 L-1.15 -30.1 -1.85 -30.05 Q-5.15 -29.8 -3.3 -32.05 M8.25 -33.5 Q9.15 -36.2 12.85 -35.85 16.95 -35.45 18.2 -34.15 16.25 -33.95 14.3 -33.75 16.1 -33.2 15.5 -32.85 13.7 -32.05 12.85 -31.5 L11.75 -31.3 Q8.7 -31.05 8.2 -32.25 8.0 -32.75 8.25 -33.5 Z;M-9.15 -31.3 Q-6.9 -34.2 -5.3 -32.65 L-4.1 -31.85 Q-2.75 -31.25 -0.65 -31.25 L-0.15 -31.25 -1.5 -30.95 Q-3.75 -30.5 -3.65 -30.2 L-3.15 -29.85 -2.0 -29.6 Q-2.95 -29.4 -3.9 -29.2 L-8.25 -28.3 -9.0 -28.1 Q-11.35 -28.45 -9.15 -31.3 M2.9 -31.35 Q3.95 -34.5 8.45 -34.05 12.95 -33.5 14.35 -32.05 9.2 -31.95 9.85 -31.5 11.2 -30.6 10.5 -30.3 8.55 -30.25 6.6 -30.15 L7.8 -29.5 Q5.45 -29.5 3.1 -29.5 2.5 -30.15 2.9 -31.35 Z"/>
    </path>
  </g>
</svg>
