<?xml version="1.0" encoding="UTF-8" standalone="no"?>
<svg xmlns:ffdec="https://www.free-decompiler.com/flash" xmlns:xlink="http://www.w3.org/1999/xlink" ffdec:objectType="morphshape" height="5.8px" width="25.9px" xmlns="http://www.w3.org/2000/svg">
  <g transform="matrix(1.0, 0.0, 0.0, 1.0, 3.9, -27.05)">
    <path d="M12.0 29.2 L12.0 29.2 12.5 30.1 Q13.7 31.9 16.85 31.55 L16.85 31.55 Q18.3 31.3 19.75 31.05 21.05 30.65 21.75 30.05 L22.0 29.85 18.65 29.65 Q17.8 29.55 18.1 29.35 L19.1 28.95 19.35 28.9 Q19.8 28.9 18.65 28.3 17.25 27.7 16.35 27.1 L13.35 27.05 Q11.45 27.45 12.0 29.2 M-2.2 30.2 Q0.25 32.75 3.95 32.0 L4.4 31.9 Q6.8 31.3 5.0 29.85 7.25 29.65 7.1 29.35 7.0 29.15 6.25 29.0 L3.45 28.7 Q5.35 28.05 5.45 27.7 5.55 27.45 4.55 27.35 L3.7 27.3 1.8 27.35 Q0.65 27.45 -0.05 27.85 -4.65 27.65 -2.2 30.2" fill="#c1ebfb" fill-rule="evenodd" stroke="none">
      <animate attributeName="fill" dur="2s" repeatCount="indefinite" values="#c1ebfb;#c1ebfc"/>
      <animate attributeName="fill-opacity" dur="2s" repeatCount="indefinite" values="1.0;1.0"/>
      <animate attributeName="d" dur="2s" repeatCount="indefinite" values="M12.0 29.2 L12.0 29.2 12.5 30.1 Q13.7 31.9 16.85 31.55 L16.85 31.55 Q18.3 31.3 19.75 31.05 21.05 30.65 21.75 30.05 L22.0 29.85 18.65 29.65 Q17.8 29.55 18.1 29.35 L19.1 28.95 19.35 28.9 Q19.8 28.9 18.65 28.3 17.25 27.7 16.35 27.1 L13.35 27.05 Q11.45 27.45 12.0 29.2 M-2.2 30.2 Q0.25 32.75 3.95 32.0 L4.4 31.9 Q6.8 31.3 5.0 29.85 7.25 29.65 7.1 29.35 7.0 29.15 6.25 29.0 L3.45 28.7 Q5.35 28.05 5.45 27.7 5.55 27.45 4.55 27.35 L3.7 27.3 1.8 27.35 Q0.65 27.45 -0.05 27.85 -4.65 27.65 -2.2 30.2;M10.55 30.15 L10.65 30.3 11.55 31.2 Q13.75 33.3 16.5 32.7 L16.65 32.65 Q19.55 32.15 18.55 30.6 19.7 30.45 20.85 30.35 L20.5 30.2 17.0 29.3 Q17.45 29.15 17.85 29.0 L19.1 28.4 18.7 28.2 Q17.9 28.05 17.15 27.9 15.7 27.8 14.25 27.75 L11.0 27.75 Q8.9 28.0 10.55 30.15 M-3.75 30.15 Q-2.9 32.75 0.7 32.5 L1.0 32.5 Q2.4 32.25 3.8 32.0 4.65 31.65 5.45 31.3 5.8 31.05 6.1 30.8 L3.55 30.55 Q2.3 30.3 3.3 29.7 3.55 29.65 2.55 29.4 L1.85 29.25 0.55 28.1 Q-0.25 28.05 -1.0 28.0 -4.5 27.9 -3.75 30.15"/>
    </path>
    <path d="M-2.2 30.2 Q-4.65 27.65 -0.05 27.85 0.65 27.45 1.8 27.35 L3.7 27.3 4.55 27.35 Q5.55 27.45 5.45 27.7 5.35 28.05 3.45 28.7 L6.25 29.0 Q7.0 29.15 7.1 29.35 7.25 29.65 5.0 29.85 6.8 31.3 4.4 31.9 L3.95 32.0 Q0.25 32.75 -2.2 30.2 M12.0 29.2 Q11.45 27.45 13.35 27.05 L16.35 27.1 Q17.25 27.7 18.65 28.3 19.8 28.9 19.35 28.9 L19.1 28.95 18.1 29.35 Q17.8 29.55 18.65 29.65 L22.0 29.85 21.75 30.05 Q21.05 30.65 19.75 31.05 18.3 31.3 16.85 31.55 L16.85 31.55 Q13.7 31.9 12.5 30.1 L12.0 29.2 12.0 29.2 Z" fill="none" stroke="#000000" stroke-linecap="round" stroke-linejoin="round" stroke-opacity="0.0" stroke-width="0.0">
      <animate attributeName="stroke" dur="2s" repeatCount="indefinite" values="#000000;#000001"/>
      <animate attributeName="stroke-width" dur="2s" repeatCount="indefinite" values="0.0;0.0"/>
      <animate attributeName="fill-opacity" dur="2s" repeatCount="indefinite" values="0.0;0.0"/>
      <animate attributeName="d" dur="2s" repeatCount="indefinite" values="M-2.2 30.2 Q-4.65 27.65 -0.05 27.85 0.65 27.45 1.8 27.35 L3.7 27.3 4.55 27.35 Q5.55 27.45 5.45 27.7 5.35 28.05 3.45 28.7 L6.25 29.0 Q7.0 29.15 7.1 29.35 7.25 29.65 5.0 29.85 6.8 31.3 4.4 31.9 L3.95 32.0 Q0.25 32.75 -2.2 30.2 M12.0 29.2 Q11.45 27.45 13.35 27.05 L16.35 27.1 Q17.25 27.7 18.65 28.3 19.8 28.9 19.35 28.9 L19.1 28.95 18.1 29.35 Q17.8 29.55 18.65 29.65 L22.0 29.85 21.75 30.05 Q21.05 30.65 19.75 31.05 18.3 31.3 16.85 31.55 L16.85 31.55 Q13.7 31.9 12.5 30.1 L12.0 29.2 12.0 29.2 Z;M-3.75 30.15 Q-4.5 27.9 -1.0 28.0 -0.25 28.05 0.55 28.1 L1.85 29.25 2.55 29.4 Q3.55 29.65 3.3 29.7 2.3 30.3 3.55 30.55 L6.1 30.8 Q5.8 31.05 5.45 31.3 4.65 31.65 3.8 32.0 2.4 32.25 1.0 32.5 L0.7 32.5 Q-2.9 32.75 -3.75 30.15 M10.55 30.15 Q8.9 28.0 11.0 27.75 L14.25 27.75 Q15.7 27.8 17.15 27.9 17.9 28.05 18.7 28.2 L19.1 28.4 17.85 29.0 Q17.45 29.15 17.0 29.3 L20.5 30.2 20.85 30.35 Q19.7 30.45 18.55 30.6 19.55 32.15 16.65 32.65 L16.5 32.7 Q13.75 33.3 11.55 31.2 L10.65 30.3 10.55 30.15 Z"/>
    </path>
  </g>
</svg>
