<?xml version="1.0" encoding="UTF-8" standalone="no"?>
<svg xmlns:ffdec="https://www.free-decompiler.com/flash" xmlns:xlink="http://www.w3.org/1999/xlink" ffdec:objectType="morphshape" height="5.45px" width="30.2px" xmlns="http://www.w3.org/2000/svg">
  <g transform="matrix(1.0, 0.0, 0.0, 1.0, 9.35, -27.7)">
    <path d="M10.55 30.15 L10.7 30.35 11.55 31.2 Q13.1 32.65 14.9 32.8 L16.65 32.65 Q19.55 32.15 18.55 30.6 L19.8 30.55 20.85 30.35 Q19.5 29.95 18.2 29.55 17.6 29.4 17.0 29.3 L17.8 29.05 Q18.85 28.65 18.1 28.05 14.8 27.45 13.1 27.95 L11.0 27.75 Q8.9 28.0 10.55 30.15 M-3.75 30.15 L-3.75 30.15 Q-3.0 32.45 -0.1 32.55 L1.0 32.5 3.35 32.1 4.6 31.7 5.6 31.2 6.1 30.8 Q5.25 30.75 4.45 30.7 2.65 30.55 2.85 30.1 2.95 29.9 3.3 29.7 3.65 29.65 1.85 29.25 L1.25 28.65 0.55 28.1 Q0.2 28.05 -0.15 28.0 -4.6 27.65 -3.75 30.15" fill="#c1ebfb" fill-rule="evenodd" stroke="none">
      <animate attributeName="fill" dur="2s" repeatCount="indefinite" values="#c1ebfb;#c1ebfc"/>
      <animate attributeName="fill-opacity" dur="2s" repeatCount="indefinite" values="1.0;1.0"/>
      <animate attributeName="d" dur="2s" repeatCount="indefinite" values="M10.55 30.15 L10.7 30.35 11.55 31.2 Q13.1 32.65 14.9 32.8 L16.65 32.65 Q19.55 32.15 18.55 30.6 L19.8 30.55 20.85 30.35 Q19.5 29.95 18.2 29.55 17.6 29.4 17.0 29.3 L17.8 29.05 Q18.85 28.65 18.1 28.05 14.8 27.45 13.1 27.95 L11.0 27.75 Q8.9 28.0 10.55 30.15 M-3.75 30.15 L-3.75 30.15 Q-3.0 32.45 -0.1 32.55 L1.0 32.5 3.35 32.1 4.6 31.7 5.6 31.2 6.1 30.8 Q5.25 30.75 4.45 30.7 2.65 30.55 2.85 30.1 2.95 29.9 3.3 29.7 3.65 29.65 1.85 29.25 L1.25 28.65 0.55 28.1 Q0.2 28.05 -0.15 28.0 -4.6 27.65 -3.75 30.15;M6.15 31.45 L6.15 31.45 6.75 32.15 Q8.35 33.85 9.6 32.7 L10.7 31.95 Q11.75 31.45 13.3 31.4 L14.25 31.4 13.35 31.2 Q11.0 30.75 11.1 30.45 11.2 30.2 12.0 30.05 L12.6 29.95 Q11.65 29.75 10.7 29.55 8.7 29.1 6.7 28.7 L5.2 29.25 Q5.0 29.95 6.15 31.45 M-9.2 30.45 L-9.2 30.55 Q-8.2 33.25 -4.25 32.85 L-2.85 32.65 -0.3 31.95 1.0 31.1 -0.3 31.05 -1.15 31.0 Q-3.45 30.85 -3.0 30.55 -1.0 30.1 -2.4 29.5 -2.7 29.45 -3.0 29.4 -4.05 29.35 -5.05 29.35 L-5.9 29.35 -5.0 28.9 Q-4.35 28.5 -4.75 28.25 -10.1 27.6 -9.2 30.45"/>
    </path>
    <path d="M-3.75 30.15 Q-4.6 27.65 -0.15 28.0 0.2 28.05 0.55 28.1 L1.25 28.65 1.85 29.25 Q3.65 29.65 3.3 29.7 2.95 29.9 2.85 30.1 2.65 30.55 4.45 30.7 5.25 30.75 6.1 30.8 L5.6 31.2 4.6 31.7 3.35 32.1 1.0 32.5 -0.1 32.55 Q-3.0 32.45 -3.75 30.15 L-3.75 30.15 M10.55 30.15 Q8.9 28.0 11.0 27.75 L13.1 27.95 Q14.8 27.45 18.1 28.05 18.85 28.65 17.8 29.05 L17.0 29.3 Q17.6 29.4 18.2 29.55 19.5 29.95 20.85 30.35 L19.8 30.55 18.55 30.6 Q19.55 32.15 16.65 32.65 L14.9 32.8 Q13.1 32.65 11.55 31.2 L10.7 30.35 10.55 30.15 Z" fill="none" stroke="#000000" stroke-linecap="round" stroke-linejoin="round" stroke-opacity="0.0" stroke-width="0.0">
      <animate attributeName="stroke" dur="2s" repeatCount="indefinite" values="#000000;#000001"/>
      <animate attributeName="stroke-width" dur="2s" repeatCount="indefinite" values="0.0;0.0"/>
      <animate attributeName="fill-opacity" dur="2s" repeatCount="indefinite" values="0.0;0.0"/>
      <animate attributeName="d" dur="2s" repeatCount="indefinite" values="M-3.75 30.15 Q-4.6 27.65 -0.15 28.0 0.2 28.05 0.55 28.1 L1.25 28.65 1.85 29.25 Q3.65 29.65 3.3 29.7 2.95 29.9 2.85 30.1 2.65 30.55 4.45 30.7 5.25 30.75 6.1 30.8 L5.6 31.2 4.6 31.7 3.35 32.1 1.0 32.5 -0.1 32.55 Q-3.0 32.45 -3.75 30.15 L-3.75 30.15 M10.55 30.15 Q8.9 28.0 11.0 27.75 L13.1 27.95 Q14.8 27.45 18.1 28.05 18.85 28.65 17.8 29.05 L17.0 29.3 Q17.6 29.4 18.2 29.55 19.5 29.95 20.85 30.35 L19.8 30.55 18.55 30.6 Q19.55 32.15 16.65 32.65 L14.9 32.8 Q13.1 32.65 11.55 31.2 L10.7 30.35 10.55 30.15 Z;M-9.2 30.45 Q-10.1 27.6 -4.75 28.25 -4.35 28.5 -5.0 28.9 L-5.9 29.35 -5.05 29.35 Q-4.05 29.35 -3.0 29.4 -2.7 29.45 -2.4 29.5 -1.0 30.1 -3.0 30.55 -3.45 30.85 -1.15 31.0 L-0.3 31.05 1.0 31.1 -0.3 31.95 -2.85 32.65 -4.25 32.85 Q-8.2 33.25 -9.2 30.55 L-9.2 30.45 M6.15 31.45 Q5.0 29.95 5.2 29.25 L6.7 28.7 Q8.7 29.1 10.7 29.55 11.65 29.75 12.6 29.95 L12.0 30.05 Q11.2 30.2 11.1 30.45 11.0 30.75 13.35 31.2 L14.25 31.4 13.3 31.4 Q11.75 31.45 10.7 31.95 L9.6 32.7 Q8.35 33.85 6.75 32.15 L6.15 31.45 6.15 31.45 Z"/>
    </path>
  </g>
</svg>
