<?xml version="1.0" encoding="UTF-8" standalone="no"?>
<svg xmlns:ffdec="https://www.free-decompiler.com/flash" xmlns:xlink="http://www.w3.org/1999/xlink" ffdec:objectType="morphshape" height="9.1px" width="31.7px" xmlns="http://www.w3.org/2000/svg">
  <g transform="matrix(1.0, 0.0, 0.0, 1.0, 17.35, 34.1)">
    <path d="M2.9 -31.35 Q2.5 -30.15 3.1 -29.5 5.45 -29.5 7.8 -29.5 L6.6 -30.15 Q8.55 -30.25 10.5 -30.3 11.2 -30.6 9.85 -31.5 9.2 -31.95 14.35 -32.05 12.95 -33.5 8.45 -34.05 3.95 -34.5 2.9 -31.35 M-9.15 -31.3 Q-11.35 -28.45 -9.0 -28.1 L-8.25 -28.3 -3.9 -29.2 Q-2.95 -29.4 -2.0 -29.6 L-3.15 -29.85 -3.65 -30.2 Q-3.75 -30.5 -1.5 -30.95 L-0.15 -31.25 -0.65 -31.25 Q-2.75 -31.25 -4.1 -31.85 L-5.3 -32.65 Q-6.9 -34.2 -9.15 -31.3" fill="#c1ebfb" fill-rule="evenodd" stroke="none">
      <animate attributeName="fill" dur="2s" repeatCount="indefinite" values="#c1ebfb;#c1ebfc"/>
      <animate attributeName="fill-opacity" dur="2s" repeatCount="indefinite" values="1.0;0.0"/>
      <animate attributeName="d" dur="2s" repeatCount="indefinite" values="M2.9 -31.35 Q2.5 -30.15 3.1 -29.5 5.45 -29.5 7.8 -29.5 L6.6 -30.15 Q8.55 -30.25 10.5 -30.3 11.2 -30.6 9.85 -31.5 9.2 -31.95 14.35 -32.05 12.95 -33.5 8.45 -34.05 3.95 -34.5 2.9 -31.35 M-9.15 -31.3 Q-11.35 -28.45 -9.0 -28.1 L-8.25 -28.3 -3.9 -29.2 Q-2.95 -29.4 -2.0 -29.6 L-3.15 -29.85 -3.65 -30.2 Q-3.75 -30.5 -1.5 -30.95 L-0.15 -31.25 -0.65 -31.25 Q-2.75 -31.25 -4.1 -31.85 L-5.3 -32.65 Q-6.9 -34.2 -9.15 -31.3;M-3.8 -28.8 Q-3.85 -28.15 -3.85 -27.55 -3.35 -26.35 -0.3 -26.6 L0.8 -26.8 Q1.65 -27.35 3.45 -28.15 4.05 -28.5 2.25 -29.05 4.2 -29.25 6.15 -29.45 4.9 -30.75 0.8 -31.15 -2.9 -31.5 -3.8 -28.8 M-16.7 -27.35 Q-18.55 -25.1 -15.25 -25.35 L-14.55 -25.4 -10.3 -25.25 Q-8.6 -25.55 -10.45 -26.1 L-11.4 -26.4 -10.85 -26.5 Q-8.3 -26.95 -8.15 -27.3 L-9.3 -27.55 -10.1 -27.55 Q-8.45 -29.15 -11.25 -29.5 L-12.7 -29.5 Q-15.1 -29.25 -16.7 -27.35"/>
    </path>
    <path d="M-9.15 -31.3 Q-6.9 -34.2 -5.3 -32.65 L-4.1 -31.85 Q-2.75 -31.25 -0.65 -31.25 L-0.15 -31.25 -1.5 -30.95 Q-3.75 -30.5 -3.65 -30.2 L-3.15 -29.85 -2.0 -29.6 Q-2.95 -29.4 -3.9 -29.2 L-8.25 -28.3 -9.0 -28.1 Q-11.35 -28.45 -9.15 -31.3 M2.9 -31.35 Q3.95 -34.5 8.45 -34.05 12.95 -33.5 14.35 -32.05 9.2 -31.95 9.85 -31.5 11.2 -30.6 10.5 -30.3 8.55 -30.25 6.6 -30.15 L7.8 -29.5 Q5.45 -29.5 3.1 -29.5 2.5 -30.15 2.9 -31.35 Z" fill="none" stroke="#000000" stroke-linecap="round" stroke-linejoin="round" stroke-opacity="0.0" stroke-width="0.0">
      <animate attributeName="stroke" dur="2s" repeatCount="indefinite" values="#000000;#000001"/>
      <animate attributeName="stroke-width" dur="2s" repeatCount="indefinite" values="0.0;0.0"/>
      <animate attributeName="fill-opacity" dur="2s" repeatCount="indefinite" values="0.0;0.0"/>
      <animate attributeName="d" dur="2s" repeatCount="indefinite" values="M-9.15 -31.3 Q-6.9 -34.2 -5.3 -32.65 L-4.1 -31.85 Q-2.75 -31.25 -0.65 -31.25 L-0.15 -31.25 -1.5 -30.95 Q-3.75 -30.5 -3.65 -30.2 L-3.15 -29.85 -2.0 -29.6 Q-2.95 -29.4 -3.9 -29.2 L-8.25 -28.3 -9.0 -28.1 Q-11.35 -28.45 -9.15 -31.3 M2.9 -31.35 Q3.95 -34.5 8.45 -34.05 12.95 -33.5 14.35 -32.05 9.2 -31.95 9.85 -31.5 11.2 -30.6 10.5 -30.3 8.55 -30.25 6.6 -30.15 L7.8 -29.5 Q5.45 -29.5 3.1 -29.5 2.5 -30.15 2.9 -31.35 Z;M-16.7 -27.35 Q-15.1 -29.25 -12.7 -29.5 L-11.25 -29.5 Q-8.45 -29.15 -10.1 -27.55 L-9.3 -27.55 -8.15 -27.3 Q-8.3 -26.95 -10.85 -26.5 L-11.4 -26.4 -10.45 -26.1 Q-8.6 -25.55 -10.3 -25.25 L-14.55 -25.4 -15.25 -25.35 Q-18.55 -25.1 -16.7 -27.35 M-3.8 -28.8 Q-2.9 -31.5 0.8 -31.15 4.9 -30.75 6.15 -29.45 4.2 -29.25 2.25 -29.05 4.05 -28.5 3.45 -28.15 1.65 -27.35 0.8 -26.8 L-0.3 -26.6 Q-3.35 -26.35 -3.85 -27.55 -3.85 -28.15 -3.8 -28.8 Z"/>
    </path>
  </g>
</svg>
