<?xml version="1.0" encoding="UTF-8" standalone="no"?>
<svg xmlns:ffdec="https://www.free-decompiler.com/flash" xmlns:xlink="http://www.w3.org/1999/xlink" ffdec:objectType="morphshape" height="8.0px" width="32.05px" xmlns="http://www.w3.org/2000/svg">
  <g transform="matrix(1.0, 0.0, 0.0, 1.0, 17.8, -25.15)">
    <path d="M-9.2 30.45 L-9.2 30.45 Q-8.35 32.95 -5.05 32.9 L-4.25 32.85 -0.6 32.05 -0.3 31.95 Q0.35 31.5 1.0 31.1 L-0.3 31.05 -0.4 31.05 Q-3.5 30.9 -3.0 30.55 L-2.35 30.35 Q-1.3 30.0 -2.4 29.5 L-2.9 29.4 Q-3.85 29.35 -4.8 29.35 -5.35 29.35 -5.9 29.35 -4.15 28.65 -4.75 28.25 L-5.25 28.2 Q-10.05 27.75 -9.2 30.45 M6.15 31.45 Q8.15 34.05 9.6 32.7 10.1 32.2 10.8 31.9 12.0 31.65 13.2 31.4 13.75 31.4 14.25 31.4 L13.25 31.2 Q11.0 30.75 11.1 30.45 11.25 30.1 12.6 29.95 9.4 29.25 6.25 28.6 4.15 28.85 6.15 31.45" fill="#c1ebfb" fill-rule="evenodd" stroke="none">
      <animate attributeName="fill" dur="2s" repeatCount="indefinite" values="#c1ebfb;#c1ebfc"/>
      <animate attributeName="fill-opacity" dur="2s" repeatCount="indefinite" values="1.0;0.0"/>
      <animate attributeName="d" dur="2s" repeatCount="indefinite" values="M-9.2 30.45 L-9.2 30.45 Q-8.35 32.95 -5.05 32.9 L-4.25 32.85 -0.6 32.05 -0.3 31.95 Q0.35 31.5 1.0 31.1 L-0.3 31.05 -0.4 31.05 Q-3.5 30.9 -3.0 30.55 L-2.35 30.35 Q-1.3 30.0 -2.4 29.5 L-2.9 29.4 Q-3.85 29.35 -4.8 29.35 -5.35 29.35 -5.9 29.35 -4.15 28.65 -4.75 28.25 L-5.25 28.2 Q-10.05 27.75 -9.2 30.45 M6.15 31.45 Q8.15 34.05 9.6 32.7 10.1 32.2 10.8 31.9 12.0 31.65 13.2 31.4 13.75 31.4 14.25 31.4 L13.25 31.2 Q11.0 30.75 11.1 30.45 11.25 30.1 12.6 29.95 9.4 29.25 6.25 28.6 4.15 28.85 6.15 31.45;M-17.65 28.15 L-17.65 28.25 Q-18.45 30.75 -14.15 30.2 L-13.35 30.45 -9.75 30.3 -9.55 30.3 Q-8.15 30.0 -9.65 29.5 L-10.8 29.15 -10.9 29.15 Q-9.5 28.85 -8.1 28.55 L-7.5 28.2 Q-7.4 28.0 -8.8 27.95 L-9.5 27.95 Q-9.4 27.65 -11.3 27.5 -10.4 26.9 -10.7 26.5 -11.0 26.15 -12.3 26.0 L-12.8 25.95 Q-16.8 25.6 -17.65 28.15 M-4.5 28.2 Q-5.3 30.7 -1.55 30.6 -0.7 30.55 0.15 30.5 1.1 29.85 2.6 29.2 4.05 28.55 3.3 28.55 L2.0 28.05 Q1.5 27.75 4.15 27.6 5.15 27.55 6.15 27.55 4.8 26.15 -0.9 25.65 -3.7 25.85 -4.5 28.2"/>
    </path>
    <path d="M-9.2 30.45 Q-10.05 27.75 -5.25 28.2 L-4.75 28.25 Q-4.15 28.65 -5.9 29.35 -5.35 29.35 -4.8 29.35 -3.85 29.35 -2.9 29.4 L-2.4 29.5 Q-1.3 30.0 -2.35 30.35 L-3.0 30.55 Q-3.5 30.9 -0.4 31.05 L-0.3 31.05 1.0 31.1 Q0.35 31.5 -0.3 31.95 L-0.6 32.05 -4.25 32.85 -5.05 32.9 Q-8.35 32.95 -9.2 30.45 L-9.2 30.45" fill="none" stroke="#000000" stroke-linecap="round" stroke-linejoin="round" stroke-opacity="0.0" stroke-width="0.0">
      <animate attributeName="stroke" dur="2s" repeatCount="indefinite" values="#000000;#000001"/>
      <animate attributeName="stroke-width" dur="2s" repeatCount="indefinite" values="0.0;0.0"/>
      <animate attributeName="fill-opacity" dur="2s" repeatCount="indefinite" values="0.0;0.0"/>
      <animate attributeName="d" dur="2s" repeatCount="indefinite" values="M-9.2 30.45 Q-10.05 27.75 -5.25 28.2 L-4.75 28.25 Q-4.15 28.65 -5.9 29.35 -5.35 29.35 -4.8 29.35 -3.85 29.35 -2.9 29.4 L-2.4 29.5 Q-1.3 30.0 -2.35 30.35 L-3.0 30.55 Q-3.5 30.9 -0.4 31.05 L-0.3 31.05 1.0 31.1 Q0.35 31.5 -0.3 31.95 L-0.6 32.05 -4.25 32.85 -5.05 32.9 Q-8.35 32.95 -9.2 30.45 L-9.2 30.45;M-17.65 28.15 Q-16.8 25.6 -12.8 25.95 L-12.3 26.0 Q-11.0 26.15 -10.7 26.5 -10.4 26.9 -11.3 27.5 -9.4 27.65 -9.5 27.95 L-8.8 27.95 Q-7.4 28.0 -7.5 28.2 L-8.1 28.55 Q-9.5 28.85 -10.9 29.15 L-10.8 29.15 -9.65 29.5 Q-8.15 30.0 -9.55 30.3 L-9.75 30.3 -13.35 30.45 -14.15 30.2 Q-18.45 30.75 -17.65 28.25 L-17.65 28.15"/>
    </path>
    <path d="M6.15 31.45 Q4.15 28.85 6.25 28.6 9.4 29.25 12.6 29.95 11.25 30.1 11.1 30.45 11.0 30.75 13.25 31.2 L14.25 31.4 Q13.75 31.4 13.2 31.4 12.0 31.65 10.8 31.9 10.1 32.2 9.6 32.7 8.15 34.05 6.15 31.45 4.15 28.85 6.25 28.6 9.4 29.25 12.6 29.95 11.25 30.1 11.1 30.45 11.0 30.75 13.25 31.2 L14.25 31.4 Q13.75 31.4 13.2 31.4 12.0 31.65 10.8 31.9 10.1 32.2 9.6 32.7 8.15 34.05 6.15 31.45 Z" fill="none" stroke="#000000" stroke-linecap="round" stroke-linejoin="round" stroke-opacity="0.0" stroke-width="0.0">
      <animate attributeName="stroke" dur="2s" repeatCount="indefinite" values="#000000;#ffffff"/>
      <animate attributeName="stroke-width" dur="2s" repeatCount="indefinite" values="0.0;1.0"/>
      <animate attributeName="fill-opacity" dur="2s" repeatCount="indefinite" values="0.0;0.0"/>
      <animate attributeName="d" dur="2s" repeatCount="indefinite" values="M6.15 31.45 Q4.15 28.85 6.25 28.6 9.4 29.25 12.6 29.95 11.25 30.1 11.1 30.45 11.0 30.75 13.25 31.2 L14.25 31.4 Q13.75 31.4 13.2 31.4 12.0 31.65 10.8 31.9 10.1 32.2 9.6 32.7 8.15 34.05 6.15 31.45 4.15 28.85 6.25 28.6 9.4 29.25 12.6 29.95 11.25 30.1 11.1 30.45 11.0 30.75 13.25 31.2 L14.25 31.4 Q13.75 31.4 13.2 31.4 12.0 31.65 10.8 31.9 10.1 32.2 9.6 32.7 8.15 34.05 6.15 31.45 Z;M-4.5 28.2 Q-3.7 25.85 -0.9 25.65 4.8 26.15 6.15 27.55 5.15 27.55 4.15 27.6 1.5 27.75 2.0 28.05 L3.3 28.55 Q4.05 28.55 2.6 29.2 1.1 29.85 0.15 30.5 -0.7 30.55 -1.55 30.6 -5.3 30.7 -4.5 28.2 -3.7 25.85 -0.9 25.65 4.8 26.15 6.15 27.55 5.15 27.55 4.15 27.6 1.5 27.75 2.0 28.05 L3.3 28.55 Q4.05 28.55 2.6 29.2 1.1 29.85 0.15 30.5 -0.7 30.55 -1.55 30.6 -5.3 30.7 -4.5 28.2 Z"/>
    </path>
  </g>
</svg>
