<?xml version="1.0" encoding="UTF-8" standalone="no"?>
<svg xmlns:ffdec="https://www.free-decompiler.com/flash" xmlns:xlink="http://www.w3.org/1999/xlink" ffdec:objectType="morphshape" height="100.95px" width="273.55px" xmlns="http://www.w3.org/2000/svg">
  <g transform="matrix(1.0, 0.0, 0.0, 1.0, -6.9, -8.5)">
    <path d="M189.35 87.9 L199.55 89.6 211.85 13.45 201.7 11.65 189.35 87.9 M223.75 71.1 L230.3 72.75 232.05 46.7 223.75 71.1 M205.7 91.15 L216.15 93.45 220.1 81.5 229.35 83.35 228.5 94.1 238.35 96.05 244.9 20.55 231.9 18.8 205.7 91.15 M241.2 100.4 L265.2 109.45 269.6 98.45 255.3 93.95 280.45 34.65 271.15 30.6 241.2 100.4 M151.55 83.6 L162.2 83.95 163.7 44.55 173.85 85.25 184.0 85.9 187.75 9.35 177.05 9.1 175.2 48.45 165.85 9.6 155.75 9.45 151.55 83.6 M6.95 46.1 Q7.35 56.0 12.9 73.75 18.45 91.45 23.7 99.9 28.95 108.35 39.35 105.9 49.15 102.45 48.9 92.25 48.65 84.8 45.55 73.1 L35.35 75.85 Q37.15 82.3 37.9 86.55 39.1 93.3 36.05 94.4 32.85 95.0 30.1 88.8 27.35 82.7 23.55 70.45 19.75 58.2 18.6 51.6 17.35 45.0 20.3 43.5 23.45 42.7 26.2 49.0 27.95 52.9 30.15 59.1 L39.75 54.8 Q35.85 44.15 32.0 38.05 26.45 29.45 16.45 32.25 6.4 36.05 6.95 46.1 M54.1 39.35 Q55.05 46.0 58.5 58.4 61.9 70.75 64.45 77.0 67.0 83.2 70.3 82.85 73.35 81.75 72.3 75.0 71.3 68.2 67.9 55.85 64.45 43.45 61.95 37.05 59.3 30.75 56.2 31.4 53.05 32.75 54.1 39.35 M42.75 33.5 Q42.8 43.4 47.65 61.3 52.6 79.25 57.65 87.9 62.7 96.5 73.2 94.4 83.1 91.25 83.05 81.05 83.1 70.9 78.2 53.0 73.25 35.0 68.05 26.25 62.85 17.5 52.75 20.05 42.65 23.45 42.75 33.5 M79.65 14.4 L90.75 89.65 116.0 84.75 113.9 73.1 99.35 76.75 89.7 13.1 79.65 14.4 M126.05 27.7 Q125.7 34.45 126.8 47.2 127.95 59.95 129.35 66.6 130.7 73.2 134.0 73.45 137.25 72.9 137.45 66.05 137.6 59.2 136.55 46.4 135.45 33.65 134.05 26.95 132.7 20.2 129.5 20.3 126.15 21.05 126.05 27.7 M115.65 48.15 Q117.3 66.7 120.65 76.05 124.0 85.45 134.75 85.3 L134.75 85.35 Q145.05 84.05 146.9 74.05 148.75 64.05 147.15 45.45 L147.2 45.45 Q145.6 26.95 142.05 17.35 138.55 7.95 127.9 8.55 117.55 10.1 115.85 19.95 114.1 29.65 115.7 48.15 L115.65 48.15" fill="url(#gradient0)" fill-rule="evenodd" stroke="none">
      <animate attributeName="d" dur="2s" repeatCount="indefinite" values="M189.35 87.9 L199.55 89.6 211.85 13.45 201.7 11.65 189.35 87.9 M223.75 71.1 L230.3 72.75 232.05 46.7 223.75 71.1 M205.7 91.15 L216.15 93.45 220.1 81.5 229.35 83.35 228.5 94.1 238.35 96.05 244.9 20.55 231.9 18.8 205.7 91.15 M241.2 100.4 L265.2 109.45 269.6 98.45 255.3 93.95 280.45 34.65 271.15 30.6 241.2 100.4 M151.55 83.6 L162.2 83.95 163.7 44.55 173.85 85.25 184.0 85.9 187.75 9.35 177.05 9.1 175.2 48.45 165.85 9.6 155.75 9.45 151.55 83.6 M6.95 46.1 Q7.35 56.0 12.9 73.75 18.45 91.45 23.7 99.9 28.95 108.35 39.35 105.9 49.15 102.45 48.9 92.25 48.65 84.8 45.55 73.1 L35.35 75.85 Q37.15 82.3 37.9 86.55 39.1 93.3 36.05 94.4 32.85 95.0 30.1 88.8 27.35 82.7 23.55 70.45 19.75 58.2 18.6 51.6 17.35 45.0 20.3 43.5 23.45 42.7 26.2 49.0 27.95 52.9 30.15 59.1 L39.75 54.8 Q35.85 44.15 32.0 38.05 26.45 29.45 16.45 32.25 6.4 36.05 6.95 46.1 M54.1 39.35 Q55.05 46.0 58.5 58.4 61.9 70.75 64.45 77.0 67.0 83.2 70.3 82.85 73.35 81.75 72.3 75.0 71.3 68.2 67.9 55.85 64.45 43.45 61.95 37.05 59.3 30.75 56.2 31.4 53.05 32.75 54.1 39.35 M42.75 33.5 Q42.8 43.4 47.65 61.3 52.6 79.25 57.65 87.9 62.7 96.5 73.2 94.4 83.1 91.25 83.05 81.05 83.1 70.9 78.2 53.0 73.25 35.0 68.05 26.25 62.85 17.5 52.75 20.05 42.65 23.45 42.75 33.5 M79.65 14.4 L90.75 89.65 116.0 84.75 113.9 73.1 99.35 76.75 89.7 13.1 79.65 14.4 M126.05 27.7 Q125.7 34.45 126.8 47.2 127.95 59.95 129.35 66.6 130.7 73.2 134.0 73.45 137.25 72.9 137.45 66.05 137.6 59.2 136.55 46.4 135.45 33.65 134.05 26.95 132.7 20.2 129.5 20.3 126.15 21.05 126.05 27.7 M115.65 48.15 Q117.3 66.7 120.65 76.05 124.0 85.45 134.75 85.3 L134.75 85.35 Q145.05 84.05 146.9 74.05 148.75 64.05 147.15 45.45 L147.2 45.45 Q145.6 26.95 142.05 17.35 138.55 7.95 127.9 8.55 117.55 10.1 115.85 19.95 114.1 29.65 115.7 48.15 L115.65 48.15;M189.35 87.9 L199.55 89.6 211.85 13.45 201.7 11.65 189.35 87.9 M223.75 71.1 L230.3 72.75 232.05 46.7 223.75 71.1 M205.7 91.15 L216.15 93.45 220.1 81.5 229.35 83.35 228.5 94.1 238.35 96.05 244.9 20.55 231.9 18.8 205.7 91.15 M241.2 100.4 L265.2 109.45 269.6 98.45 255.3 93.95 280.45 34.65 271.15 30.6 241.2 100.4 M151.55 83.6 L162.2 83.95 163.7 44.55 173.85 85.25 184.0 85.9 187.75 9.35 177.05 9.1 175.2 48.45 165.85 9.6 155.75 9.45 151.55 83.6 M6.95 46.1 Q7.35 56.0 12.9 73.75 18.45 91.45 23.7 99.9 28.95 108.35 39.35 105.9 49.15 102.45 48.9 92.25 48.65 84.8 45.55 73.1 L35.35 75.85 Q37.15 82.3 37.9 86.55 39.1 93.3 36.05 94.4 32.85 95.0 30.1 88.8 27.35 82.7 23.55 70.45 19.75 58.2 18.6 51.6 17.35 45.0 20.3 43.5 23.45 42.7 26.2 49.0 27.95 52.9 30.15 59.1 L39.75 54.8 Q35.85 44.15 32.0 38.05 26.45 29.45 16.45 32.25 6.4 36.05 6.95 46.1 M54.1 39.35 Q55.05 46.0 58.5 58.4 61.9 70.75 64.45 77.0 67.0 83.2 70.3 82.85 73.35 81.75 72.3 75.0 71.3 68.2 67.9 55.85 64.45 43.45 61.95 37.05 59.3 30.75 56.2 31.4 53.05 32.75 54.1 39.35 M42.75 33.5 Q42.8 43.4 47.65 61.3 52.6 79.25 57.65 87.9 62.7 96.5 73.2 94.4 83.1 91.25 83.05 81.05 83.1 70.9 78.2 53.0 73.25 35.0 68.05 26.25 62.85 17.5 52.75 20.05 42.65 23.45 42.75 33.5 M79.65 14.4 L90.75 89.65 116.0 84.75 113.9 73.1 99.35 76.75 89.7 13.1 79.65 14.4 M126.05 27.7 Q125.7 34.45 126.8 47.2 127.95 59.95 129.35 66.6 130.7 73.2 134.0 73.45 137.25 72.9 137.45 66.05 137.6 59.2 136.55 46.4 135.45 33.65 134.05 26.95 132.7 20.2 129.5 20.3 126.15 21.05 126.05 27.7 M115.65 48.15 Q117.3 66.7 120.65 76.05 124.0 85.45 134.75 85.3 L134.75 85.35 Q145.05 84.05 146.9 74.05 148.75 64.05 147.15 45.45 L147.2 45.45 Q145.6 26.95 142.05 17.35 138.55 7.95 127.9 8.55 117.55 10.1 115.85 19.95 114.1 29.65 115.7 48.15 L115.65 48.15"/>
    </path>
    <path d="M115.65 48.15 L115.7 48.15 Q114.1 29.65 115.85 19.95 117.55 10.1 127.9 8.55 138.55 7.95 142.05 17.35 145.6 26.95 147.2 45.45 L147.15 45.45 Q148.75 64.05 146.9 74.05 145.05 84.05 134.75 85.35 L134.75 85.3 Q124.0 85.45 120.65 76.05 117.3 66.7 115.65 48.15 M126.05 27.7 Q126.15 21.05 129.5 20.3 132.7 20.2 134.05 26.95 135.45 33.65 136.55 46.4 137.6 59.2 137.45 66.05 137.25 72.9 134.0 73.45 130.7 73.2 129.35 66.6 127.95 59.95 126.8 47.2 125.7 34.45 126.05 27.7 M79.65 14.4 L89.7 13.1 99.35 76.75 113.9 73.1 116.0 84.75 90.75 89.65 79.65 14.4 M42.75 33.5 Q42.65 23.45 52.75 20.05 62.85 17.5 68.05 26.25 73.25 35.0 78.2 53.0 83.1 70.9 83.05 81.05 83.1 91.25 73.2 94.4 62.7 96.5 57.65 87.9 52.6 79.25 47.65 61.3 42.8 43.4 42.75 33.5 M54.1 39.35 Q53.05 32.75 56.2 31.4 59.3 30.75 61.95 37.05 64.45 43.45 67.9 55.85 71.3 68.2 72.3 75.0 73.35 81.75 70.3 82.85 67.0 83.2 64.45 77.0 61.9 70.75 58.5 58.4 55.05 46.0 54.1 39.35 M6.95 46.1 Q6.4 36.05 16.45 32.25 26.45 29.45 32.0 38.05 35.85 44.15 39.75 54.8 L30.15 59.1 Q27.95 52.9 26.2 49.0 23.45 42.7 20.3 43.5 17.35 45.0 18.6 51.6 19.75 58.2 23.55 70.45 27.35 82.7 30.1 88.8 32.85 95.0 36.05 94.4 39.1 93.3 37.9 86.55 37.15 82.3 35.35 75.85 L45.55 73.1 Q48.65 84.8 48.9 92.25 49.15 102.45 39.35 105.9 28.95 108.35 23.7 99.9 18.45 91.45 12.9 73.75 7.35 56.0 6.95 46.1 M151.55 83.6 L155.75 9.45 165.85 9.6 175.2 48.45 177.05 9.1 187.75 9.35 184.0 85.9 173.85 85.25 163.7 44.55 162.2 83.95 151.55 83.6 M241.2 100.4 L271.15 30.6 280.45 34.65 255.3 93.95 269.6 98.45 265.2 109.45 241.2 100.4 M205.7 91.15 L231.9 18.8 244.9 20.55 238.35 96.05 228.5 94.1 229.35 83.35 220.1 81.5 216.15 93.45 205.7 91.15 M223.75 71.1 L232.05 46.7 230.3 72.75 223.75 71.1 M189.35 87.9 L201.7 11.65 211.85 13.45 199.55 89.6 189.35 87.9 Z" fill="none" stroke="#000000" stroke-linecap="round" stroke-linejoin="round" stroke-opacity="0.0" stroke-width="0.0">
      <animate attributeName="stroke" dur="2s" repeatCount="indefinite" values="#000000;#000001"/>
      <animate attributeName="stroke-width" dur="2s" repeatCount="indefinite" values="0.0;0.0"/>
      <animate attributeName="fill-opacity" dur="2s" repeatCount="indefinite" values="0.0;0.0"/>
      <animate attributeName="d" dur="2s" repeatCount="indefinite" values="M115.65 48.15 L115.7 48.15 Q114.1 29.65 115.85 19.95 117.55 10.1 127.9 8.55 138.55 7.95 142.05 17.35 145.6 26.95 147.2 45.45 L147.15 45.45 Q148.75 64.05 146.9 74.05 145.05 84.05 134.75 85.35 L134.75 85.3 Q124.0 85.45 120.65 76.05 117.3 66.7 115.65 48.15 M126.05 27.7 Q126.15 21.05 129.5 20.3 132.7 20.2 134.05 26.95 135.45 33.65 136.55 46.4 137.6 59.2 137.45 66.05 137.25 72.9 134.0 73.45 130.7 73.2 129.35 66.6 127.95 59.95 126.8 47.2 125.7 34.45 126.05 27.7 M79.65 14.4 L89.7 13.1 99.35 76.75 113.9 73.1 116.0 84.75 90.75 89.65 79.65 14.4 M42.75 33.5 Q42.65 23.45 52.75 20.05 62.85 17.5 68.05 26.25 73.25 35.0 78.2 53.0 83.1 70.9 83.05 81.05 83.1 91.25 73.2 94.4 62.7 96.5 57.65 87.9 52.6 79.25 47.65 61.3 42.8 43.4 42.75 33.5 M54.1 39.35 Q53.05 32.75 56.2 31.4 59.3 30.75 61.95 37.05 64.45 43.45 67.9 55.85 71.3 68.2 72.3 75.0 73.35 81.75 70.3 82.85 67.0 83.2 64.45 77.0 61.9 70.75 58.5 58.4 55.05 46.0 54.1 39.35 M6.95 46.1 Q6.4 36.05 16.45 32.25 26.45 29.45 32.0 38.05 35.85 44.15 39.75 54.8 L30.15 59.1 Q27.95 52.9 26.2 49.0 23.45 42.7 20.3 43.5 17.35 45.0 18.6 51.6 19.75 58.2 23.55 70.45 27.35 82.7 30.1 88.8 32.85 95.0 36.05 94.4 39.1 93.3 37.9 86.55 37.15 82.3 35.35 75.85 L45.55 73.1 Q48.65 84.8 48.9 92.25 49.15 102.45 39.35 105.9 28.95 108.35 23.7 99.9 18.45 91.45 12.9 73.75 7.35 56.0 6.95 46.1 M151.55 83.6 L155.75 9.45 165.85 9.6 175.2 48.45 177.05 9.1 187.75 9.35 184.0 85.9 173.85 85.25 163.7 44.55 162.2 83.95 151.55 83.6 M241.2 100.4 L271.15 30.6 280.45 34.65 255.3 93.95 269.6 98.45 265.2 109.45 241.2 100.4 M205.7 91.15 L231.9 18.8 244.9 20.55 238.35 96.05 228.5 94.1 229.35 83.35 220.1 81.5 216.15 93.45 205.7 91.15 M223.75 71.1 L232.05 46.7 230.3 72.75 223.75 71.1 M189.35 87.9 L201.7 11.65 211.85 13.45 199.55 89.6 189.35 87.9 Z;M115.65 48.15 L115.7 48.15 Q114.1 29.65 115.85 19.95 117.55 10.1 127.9 8.55 138.55 7.95 142.05 17.35 145.6 26.95 147.2 45.45 L147.15 45.45 Q148.75 64.05 146.9 74.05 145.05 84.05 134.75 85.35 L134.75 85.3 Q124.0 85.45 120.65 76.05 117.3 66.7 115.65 48.15 M126.05 27.7 Q126.15 21.05 129.5 20.3 132.7 20.2 134.05 26.95 135.45 33.65 136.55 46.4 137.6 59.2 137.45 66.05 137.25 72.9 134.0 73.45 130.7 73.2 129.35 66.6 127.95 59.95 126.8 47.2 125.7 34.45 126.05 27.7 M79.65 14.4 L89.7 13.1 99.35 76.75 113.9 73.1 116.0 84.75 90.75 89.65 79.65 14.4 M42.75 33.5 Q42.65 23.45 52.75 20.05 62.85 17.5 68.05 26.25 73.25 35.0 78.2 53.0 83.1 70.9 83.05 81.05 83.1 91.25 73.2 94.4 62.7 96.5 57.65 87.9 52.6 79.25 47.65 61.3 42.8 43.4 42.75 33.5 M54.1 39.35 Q53.05 32.75 56.2 31.4 59.3 30.75 61.95 37.05 64.45 43.45 67.9 55.85 71.3 68.2 72.3 75.0 73.35 81.75 70.3 82.85 67.0 83.2 64.45 77.0 61.9 70.75 58.5 58.4 55.05 46.0 54.1 39.35 M6.95 46.1 Q6.4 36.05 16.45 32.25 26.45 29.45 32.0 38.05 35.85 44.15 39.75 54.8 L30.15 59.1 Q27.95 52.9 26.2 49.0 23.45 42.7 20.3 43.5 17.35 45.0 18.6 51.6 19.75 58.2 23.55 70.45 27.35 82.7 30.1 88.8 32.85 95.0 36.05 94.4 39.1 93.3 37.9 86.55 37.15 82.3 35.35 75.85 L45.55 73.1 Q48.65 84.8 48.9 92.25 49.15 102.45 39.35 105.9 28.95 108.35 23.7 99.9 18.45 91.45 12.9 73.75 7.35 56.0 6.95 46.1 M151.55 83.6 L155.75 9.45 165.85 9.6 175.2 48.45 177.05 9.1 187.75 9.35 184.0 85.9 173.85 85.25 163.7 44.55 162.2 83.95 151.55 83.6 M241.2 100.4 L271.15 30.6 280.45 34.65 255.3 93.95 269.6 98.45 265.2 109.45 241.2 100.4 M205.7 91.15 L231.9 18.8 244.9 20.55 238.35 96.05 228.5 94.1 229.35 83.35 220.1 81.5 216.15 93.45 205.7 91.15 M223.75 71.1 L232.05 46.7 230.3 72.75 223.75 71.1 M189.35 87.9 L201.7 11.65 211.85 13.45 199.55 89.6 189.35 87.9 Z"/>
    </path>
  </g>
  <defs>
    <linearGradient gradientTransform="matrix(-0.0452, 0.0121, -0.005, -0.0187, -167.15, -459.05)" gradientUnits="userSpaceOnUse" id="gradient0" spreadMethod="pad" x1="-819.2" x2="819.2">
      <animateTransform additive="replace" attributeName="gradientTransform" dur="2s" from="1" repeatCount="indefinite" to="1" type="scale"/>
      <animateTransform additive="sum" attributeName="gradientTransform" dur="2s" from="-167.15 -459.05" repeatCount="indefinite" to="612.95 -365.2" type="translate"/>
      <animateTransform additive="sum" attributeName="gradientTransform" dur="2s" from="164.9904" repeatCount="indefinite" to="-149.905" type="rotate"/>
      <animateTransform additive="sum" attributeName="gradientTransform" dur="2s" from="0.0468 0.0194" repeatCount="indefinite" to="0.0468 0.0194" type="scale"/>
      <animateTransform additive="sum" attributeName="gradientTransform" dur="2s" from="0.0133" repeatCount="indefinite" to="0.022" type="skewX"/>
      <stop offset="0.011764705882352941" stop-color="#ffe053" stop-opacity="0.11764706">
        <animate attributeName="offset" dur="2s" repeatCount="indefinite" values="0.011764705882352941;0.011764705882352941"/>
        <animate attributeName="stop-color" dur="2s" repeatCount="indefinite" values="#ffe053;#ffe054"/>
        <animate attributeName="stop-opacity" dur="2s" repeatCount="indefinite" values="0.11764706;0.11764706"/>
      </stop>
      <stop offset="0.396078431372549" stop-color="#ffde43" stop-opacity="0.98039216">
        <animate attributeName="offset" dur="2s" repeatCount="indefinite" values="0.396078431372549;0.396078431372549"/>
        <animate attributeName="stop-color" dur="2s" repeatCount="indefinite" values="#ffde43;#ffde44"/>
        <animate attributeName="stop-opacity" dur="2s" repeatCount="indefinite" values="0.98039216;0.98039216"/>
      </stop>
      <stop offset="0.5333333333333333" stop-color="#fff0aa" stop-opacity="0.8862745">
        <animate attributeName="offset" dur="2s" repeatCount="indefinite" values="0.5333333333333333;0.5333333333333333"/>
        <animate attributeName="stop-color" dur="2s" repeatCount="indefinite" values="#fff0aa;#fff0ab"/>
        <animate attributeName="stop-opacity" dur="2s" repeatCount="indefinite" values="0.8862745;0.8862745"/>
      </stop>
      <stop offset="0.7490196078431373" stop-color="#ffde47" stop-opacity="0.7372549">
        <animate attributeName="offset" dur="2s" repeatCount="indefinite" values="0.7490196078431373;0.7490196078431373"/>
        <animate attributeName="stop-color" dur="2s" repeatCount="indefinite" values="#ffde47;#ffde48"/>
        <animate attributeName="stop-opacity" dur="2s" repeatCount="indefinite" values="0.7372549;0.7372549"/>
      </stop>
      <stop offset="1.0" stop-color="#ffe156" stop-opacity="0.019607844">
        <animate attributeName="offset" dur="2s" repeatCount="indefinite" values="1.0;1.0"/>
        <animate attributeName="stop-color" dur="2s" repeatCount="indefinite" values="#ffe156;#ffe157"/>
        <animate attributeName="stop-opacity" dur="2s" repeatCount="indefinite" values="0.019607844;0.019607844"/>
      </stop>
    </linearGradient>
  </defs>
</svg>
