<?xml version="1.0" encoding="UTF-8" standalone="no"?>
<svg xmlns:ffdec="https://www.free-decompiler.com/flash" xmlns:xlink="http://www.w3.org/1999/xlink" ffdec:objectType="morphshape" height="49.15px" width="207.65px" xmlns="http://www.w3.org/2000/svg">
  <g transform="matrix(1.0, 0.0, 0.0, 1.0, 12.2, -78.9)">
    <path d="M-12.2 104.1 Q-12.2 114.4 0.55 119.35 8.3 122.65 15.5 122.65 22.7 122.65 29.35 120.2 36.0 117.7 37.7 117.7 43.2 117.7 51.0 122.65 59.3 128.05 64.3 128.05 72.6 128.05 80.35 122.25 88.65 116.9 95.85 116.9 L111.4 117.7 Q118.6 117.7 131.35 112.75 144.1 107.8 149.05 108.2 188.4 110.7 188.4 102.45 188.4 97.45 174.0 94.15 165.1 92.7 156.25 91.25 151.3 90.45 138.55 86.75 128.0 83.4 121.35 83.4 115.25 83.4 103.6 85.5 96.65 86.75 89.75 87.95 78.7 87.95 66.5 83.4 53.75 78.9 45.45 78.9 36.0 78.9 30.45 80.95 23.25 84.65 15.5 87.95 8.3 88.8 1.65 90.85 -12.2 95.4 -12.2 104.1" fill="#7bd8e7" fill-opacity="0.36078432" fill-rule="evenodd" stroke="none">
      <animate attributeName="fill" dur="2s" repeatCount="indefinite" values="#7bd8e7;#7bd8e8"/>
      <animate attributeName="fill-opacity" dur="2s" repeatCount="indefinite" values="0.36078432;0.36078432"/>
      <animate attributeName="d" dur="2s" repeatCount="indefinite" values="M-12.2 104.1 Q-12.2 114.4 0.55 119.35 8.3 122.65 15.5 122.65 22.7 122.65 29.35 120.2 36.0 117.7 37.7 117.7 43.2 117.7 51.0 122.65 59.3 128.05 64.3 128.05 72.6 128.05 80.35 122.25 88.65 116.9 95.85 116.9 L111.4 117.7 Q118.6 117.7 131.35 112.75 144.1 107.8 149.05 108.2 188.4 110.7 188.4 102.45 188.4 97.45 174.0 94.15 165.1 92.7 156.25 91.25 151.3 90.45 138.55 86.75 128.0 83.4 121.35 83.4 115.25 83.4 103.6 85.5 96.65 86.75 89.75 87.95 78.7 87.95 66.5 83.4 53.75 78.9 45.45 78.9 36.0 78.9 30.45 80.95 23.25 84.65 15.5 87.95 8.3 88.8 1.65 90.85 -12.2 95.4 -12.2 104.1;M-12.2 104.1 Q-12.2 114.4 0.55 119.35 8.3 122.65 15.5 122.65 22.7 122.65 24.95 123.9 26.6 125.55 30.45 125.55 33.8 125.55 38.8 123.5 43.2 121.45 54.85 123.9 66.5 126.4 77.6 121.45 88.65 116.9 95.85 116.9 L111.4 117.7 Q118.05 118.1 133.0 109.05 147.95 100.35 174.0 103.25 200.05 106.15 194.5 101.6 188.4 97.45 174.0 94.15 158.5 91.7 150.75 93.35 142.4 95.0 125.25 91.7 107.5 88.8 105.85 86.3 103.6 84.25 97.55 87.95 91.45 91.7 85.35 91.7 78.7 91.7 66.5 85.05 53.75 78.9 45.45 78.9 36.0 78.9 30.45 80.95 23.25 84.65 15.5 87.95 8.3 88.8 1.65 90.85 -12.2 95.4 -12.2 104.1"/>
    </path>
    <path d="M-12.2 104.1 Q-12.2 95.4 1.65 90.85 8.3 88.8 15.5 87.95 23.25 84.65 30.45 80.95 36.0 78.9 45.45 78.9 53.75 78.9 66.5 83.4 78.7 87.95 89.75 87.95 96.65 86.75 103.6 85.5 115.25 83.4 121.35 83.4 128.0 83.4 138.55 86.75 151.3 90.45 156.25 91.25 165.1 92.7 174.0 94.15 188.4 97.45 188.4 102.45 188.4 110.7 149.05 108.2 144.1 107.8 131.35 112.75 118.6 117.7 111.4 117.7 L95.85 116.9 Q88.65 116.9 80.35 122.25 72.6 128.05 64.3 128.05 59.3 128.05 51.0 122.65 43.2 117.7 37.7 117.7 36.0 117.7 29.35 120.2 22.7 122.65 15.5 122.65 8.3 122.65 0.55 119.35 -12.2 114.4 -12.2 104.1 Z" fill="none" stroke="#000000" stroke-linecap="round" stroke-linejoin="round" stroke-opacity="0.0" stroke-width="0.0">
      <animate attributeName="stroke" dur="2s" repeatCount="indefinite" values="#000000;#000001"/>
      <animate attributeName="stroke-width" dur="2s" repeatCount="indefinite" values="0.0;0.0"/>
      <animate attributeName="fill-opacity" dur="2s" repeatCount="indefinite" values="0.0;0.0"/>
      <animate attributeName="d" dur="2s" repeatCount="indefinite" values="M-12.2 104.1 Q-12.2 95.4 1.65 90.85 8.3 88.8 15.5 87.95 23.25 84.65 30.45 80.95 36.0 78.9 45.45 78.9 53.75 78.9 66.5 83.4 78.7 87.95 89.75 87.95 96.65 86.75 103.6 85.5 115.25 83.4 121.35 83.4 128.0 83.4 138.55 86.75 151.3 90.45 156.25 91.25 165.1 92.7 174.0 94.15 188.4 97.45 188.4 102.45 188.4 110.7 149.05 108.2 144.1 107.8 131.35 112.75 118.6 117.7 111.4 117.7 L95.85 116.9 Q88.65 116.9 80.35 122.25 72.6 128.05 64.3 128.05 59.3 128.05 51.0 122.65 43.2 117.7 37.7 117.7 36.0 117.7 29.35 120.2 22.7 122.65 15.5 122.65 8.3 122.65 0.55 119.35 -12.2 114.4 -12.2 104.1 Z;M-12.2 104.1 Q-12.2 95.4 1.65 90.85 8.3 88.8 15.5 87.95 23.25 84.65 30.45 80.95 36.0 78.9 45.45 78.9 53.75 78.9 66.5 85.05 78.7 91.7 85.35 91.7 91.45 91.7 97.55 87.95 103.6 84.25 105.85 86.3 107.5 88.8 125.25 91.7 142.4 95.0 150.75 93.35 158.5 91.7 174.0 94.15 188.4 97.45 194.5 101.6 200.05 106.15 174.0 103.25 147.95 100.35 133.0 109.05 118.05 118.1 111.4 117.7 L95.85 116.9 Q88.65 116.9 77.6 121.45 66.5 126.4 54.85 123.9 43.2 121.45 38.8 123.5 33.8 125.55 30.45 125.55 26.6 125.55 24.95 123.9 22.7 122.65 15.5 122.65 8.3 122.65 0.55 119.35 -12.2 114.4 -12.2 104.1 Z"/>
    </path>
  </g>
</svg>
