<?xml version="1.0" encoding="UTF-8" standalone="no"?>
<svg xmlns:ffdec="https://www.free-decompiler.com/flash" xmlns:xlink="http://www.w3.org/1999/xlink" ffdec:objectType="morphshape" height="38.75px" width="156.35px" xmlns="http://www.w3.org/2000/svg">
  <g transform="matrix(1.0, 0.0, 0.0, 1.0, 5.7, -82.95)">
    <path d="M-5.55 103.2 Q-6.65 110.65 -0.55 115.6 5.0 120.55 19.4 114.75 33.8 109.4 50.4 117.65 66.5 126.35 76.45 116.4 85.35 106.9 92.0 112.3 98.65 117.65 111.4 107.75 118.05 100.7 131.9 100.7 163.45 101.15 141.85 95.35 117.5 82.55 106.4 90.8 94.75 99.05 82.55 94.95 70.35 91.2 63.7 87.1 56.5 82.95 51.0 82.95 32.15 82.55 21.05 91.2 -4.45 96.15 -5.55 103.2" fill="#ffffff" fill-rule="evenodd" stroke="none">
      <animate attributeName="fill" dur="2s" repeatCount="indefinite" values="#ffffff;#ffffff"/>
      <animate attributeName="fill-opacity" dur="2s" repeatCount="indefinite" values="1.0;1.0"/>
      <animate attributeName="d" dur="2s" repeatCount="indefinite" values="M-5.55 103.2 Q-6.65 110.65 -0.55 115.6 5.0 120.55 19.4 114.75 33.8 109.4 50.4 117.65 66.5 126.35 76.45 116.4 85.35 106.9 92.0 112.3 98.65 117.65 111.4 107.75 118.05 100.7 131.9 100.7 163.45 101.15 141.85 95.35 117.5 82.55 106.4 90.8 94.75 99.05 82.55 94.95 70.35 91.2 63.7 87.1 56.5 82.95 51.0 82.95 32.15 82.55 21.05 91.2 -4.45 96.15 -5.55 103.2;M-5.5 103.2 Q-6.6 110.65 -0.5 115.6 5.05 120.55 17.2 116.45 29.4 112.7 44.95 112.7 59.9 113.15 63.2 114.8 66.0 116.45 78.2 115.6 90.35 114.35 102.0 106.5 113.65 99.1 126.4 99.9 139.15 100.75 129.7 97.45 119.75 94.55 107.55 96.6 94.8 99.1 82.6 94.95 70.4 91.25 63.75 87.1 56.55 82.95 51.0 82.95 32.2 82.55 21.1 91.25 -4.4 96.2 -5.5 103.2"/>
    </path>
    <path d="M-5.55 103.2 Q-4.45 96.15 21.05 91.2 32.15 82.55 51.0 82.95 56.5 82.95 63.7 87.1 70.35 91.2 82.55 94.95 94.75 99.05 106.4 90.8 117.5 82.55 141.85 95.35 163.45 101.15 131.9 100.7 118.05 100.7 111.4 107.75 98.65 117.65 92.0 112.3 85.35 106.9 76.45 116.4 66.5 126.35 50.4 117.65 33.8 109.4 19.4 114.75 5.0 120.55 -0.55 115.6 -6.65 110.65 -5.55 103.2 Z" fill="none" stroke="#000000" stroke-linecap="round" stroke-linejoin="round" stroke-opacity="0.0" stroke-width="0.0">
      <animate attributeName="stroke" dur="2s" repeatCount="indefinite" values="#000000;#000001"/>
      <animate attributeName="stroke-width" dur="2s" repeatCount="indefinite" values="0.0;0.0"/>
      <animate attributeName="fill-opacity" dur="2s" repeatCount="indefinite" values="0.0;0.0"/>
      <animate attributeName="d" dur="2s" repeatCount="indefinite" values="M-5.55 103.2 Q-4.45 96.15 21.05 91.2 32.15 82.55 51.0 82.95 56.5 82.95 63.7 87.1 70.35 91.2 82.55 94.95 94.75 99.05 106.4 90.8 117.5 82.55 141.85 95.35 163.45 101.15 131.9 100.7 118.05 100.7 111.4 107.75 98.65 117.65 92.0 112.3 85.35 106.9 76.45 116.4 66.5 126.35 50.4 117.65 33.8 109.4 19.4 114.75 5.0 120.55 -0.55 115.6 -6.65 110.65 -5.55 103.2 Z;M-5.5 103.2 Q-4.4 96.2 21.1 91.25 32.2 82.55 51.0 82.95 56.55 82.95 63.75 87.1 70.4 91.25 82.6 94.95 94.8 99.1 107.55 96.6 119.75 94.55 129.7 97.45 139.15 100.75 126.4 99.9 113.65 99.1 102.0 106.5 90.35 114.35 78.2 115.6 66.0 116.45 63.2 114.8 59.9 113.15 44.95 112.7 29.4 112.7 17.2 116.45 5.05 120.55 -0.5 115.6 -6.6 110.65 -5.5 103.2 Z"/>
    </path>
  </g>
</svg>
