<?xml version="1.0" encoding="UTF-8" standalone="no"?>
<svg xmlns:ffdec="https://www.free-decompiler.com/flash" xmlns:xlink="http://www.w3.org/1999/xlink" ffdec:objectType="morphshape" height="35.4px" width="179.45px" xmlns="http://www.w3.org/2000/svg">
  <g transform="matrix(1.0, 0.0, 0.0, 1.0, 5.65, -82.95)">
    <path d="M-5.5 103.2 L-5.5 103.2 Q-6.4 109.25 -2.55 113.6 -1.5 114.6 -0.5 115.6 3.45 119.15 10.75 118.05 14.0 117.25 17.2 116.45 24.25 114.3 32.4 113.4 38.7 113.05 44.95 112.7 L46.4 112.75 Q51.05 113.05 55.65 113.3 61.3 113.85 63.2 114.8 65.5 116.15 74.25 115.8 L78.2 115.6 Q85.95 114.8 93.5 111.3 97.8 109.35 102.0 106.5 113.4 99.25 125.9 99.9 L126.4 99.9 Q139.15 100.75 129.7 97.45 123.55 95.65 116.55 95.75 L107.55 96.6 Q94.8 99.1 82.6 94.95 L81.3 94.55 Q70.35 91.15 64.05 87.3 L63.75 87.1 Q56.55 82.95 51.0 82.95 50.0 82.95 49.0 82.95 39.85 83.0 32.55 85.3 26.05 87.35 21.1 91.25 18.05 91.9 15.0 92.55 -4.55 97.1 -5.5 103.2" fill="#ffffff" fill-rule="evenodd" stroke="none">
      <animate attributeName="fill" dur="2s" repeatCount="indefinite" values="#ffffff;#ffffff"/>
      <animate attributeName="fill-opacity" dur="2s" repeatCount="indefinite" values="1.0;1.0"/>
      <animate attributeName="d" dur="2s" repeatCount="indefinite" values="M-5.5 103.2 L-5.5 103.2 Q-6.4 109.25 -2.55 113.6 -1.5 114.6 -0.5 115.6 3.45 119.15 10.75 118.05 14.0 117.25 17.2 116.45 24.25 114.3 32.4 113.4 38.7 113.05 44.95 112.7 L46.4 112.75 Q51.05 113.05 55.65 113.3 61.3 113.85 63.2 114.8 65.5 116.15 74.25 115.8 L78.2 115.6 Q85.95 114.8 93.5 111.3 97.8 109.35 102.0 106.5 113.4 99.25 125.9 99.9 L126.4 99.9 Q139.15 100.75 129.7 97.45 123.55 95.65 116.55 95.75 L107.55 96.6 Q94.8 99.1 82.6 94.95 L81.3 94.55 Q70.35 91.15 64.05 87.3 L63.75 87.1 Q56.55 82.95 51.0 82.95 50.0 82.95 49.0 82.95 39.85 83.0 32.55 85.3 26.05 87.35 21.1 91.25 18.05 91.9 15.0 92.55 -4.55 97.1 -5.5 103.2;M-5.5 103.2 L-5.5 103.3 Q-6.55 110.7 -0.5 115.6 0.9 116.85 2.7 117.55 8.1 119.55 17.2 116.45 21.15 115.25 25.45 114.4 34.45 112.7 44.95 112.7 57.1 113.05 61.55 114.25 L63.2 114.8 Q66.0 116.45 74.3 115.2 78.8 114.4 83.3 113.65 90.15 112.35 97.0 111.05 L102.05 110.0 Q113.65 107.35 121.4 103.65 127.8 103.75 134.15 103.8 154.3 103.6 166.3 100.75 L166.9 100.65 Q180.65 97.45 167.05 95.5 159.2 94.8 151.35 94.1 L139.85 93.55 Q116.4 92.7 107.1 94.9 L105.35 95.35 Q94.8 99.1 82.6 94.95 L82.2 94.85 Q71.9 91.8 65.55 95.05 64.6 95.55 63.75 96.2 56.55 101.55 44.35 95.8 36.3 92.2 28.7 91.35 24.85 90.95 21.1 91.25 -4.4 96.2 -5.5 103.2"/>
    </path>
    <path d="M-5.5 103.2 Q-4.55 97.1 15.0 92.55 18.05 91.9 21.1 91.25 26.05 87.35 32.55 85.3 39.85 83.0 49.0 82.95 50.0 82.95 51.0 82.95 56.55 82.95 63.75 87.1 L64.05 87.3 Q70.35 91.15 81.3 94.55 L82.6 94.95 Q94.8 99.1 107.55 96.6 L116.55 95.75 Q123.55 95.65 129.7 97.45 139.15 100.75 126.4 99.9 L125.9 99.9 Q113.4 99.25 102.0 106.5 97.8 109.35 93.5 111.3 85.95 114.8 78.2 115.6 L74.25 115.8 Q65.5 116.15 63.2 114.8 61.3 113.85 55.65 113.3 51.05 113.05 46.4 112.75 L44.95 112.7 Q38.7 113.05 32.4 113.4 24.25 114.3 17.2 116.45 14.0 117.25 10.75 118.05 3.45 119.15 -0.5 115.6 -1.5 114.6 -2.55 113.6 -6.4 109.25 -5.5 103.2 L-5.5 103.2 Z" fill="none" stroke="#000000" stroke-linecap="round" stroke-linejoin="round" stroke-opacity="0.0" stroke-width="0.0">
      <animate attributeName="stroke" dur="2s" repeatCount="indefinite" values="#000000;#000001"/>
      <animate attributeName="stroke-width" dur="2s" repeatCount="indefinite" values="0.0;0.0"/>
      <animate attributeName="fill-opacity" dur="2s" repeatCount="indefinite" values="0.0;0.0"/>
      <animate attributeName="d" dur="2s" repeatCount="indefinite" values="M-5.5 103.2 Q-4.55 97.1 15.0 92.55 18.05 91.9 21.1 91.25 26.05 87.35 32.55 85.3 39.85 83.0 49.0 82.95 50.0 82.95 51.0 82.95 56.55 82.95 63.75 87.1 L64.05 87.3 Q70.35 91.15 81.3 94.55 L82.6 94.95 Q94.8 99.1 107.55 96.6 L116.55 95.75 Q123.55 95.65 129.7 97.45 139.15 100.75 126.4 99.9 L125.9 99.9 Q113.4 99.25 102.0 106.5 97.8 109.35 93.5 111.3 85.95 114.8 78.2 115.6 L74.25 115.8 Q65.5 116.15 63.2 114.8 61.3 113.85 55.65 113.3 51.05 113.05 46.4 112.75 L44.95 112.7 Q38.7 113.05 32.4 113.4 24.25 114.3 17.2 116.45 14.0 117.25 10.75 118.05 3.45 119.15 -0.5 115.6 -1.5 114.6 -2.55 113.6 -6.4 109.25 -5.5 103.2 L-5.5 103.2 Z;M-5.5 103.2 Q-4.4 96.2 21.1 91.25 24.85 90.95 28.7 91.35 36.3 92.2 44.35 95.8 56.55 101.55 63.75 96.2 64.6 95.55 65.55 95.05 71.9 91.8 82.2 94.85 L82.6 94.95 Q94.8 99.1 105.35 95.35 L107.1 94.9 Q116.4 92.7 139.85 93.55 L151.35 94.1 Q159.2 94.8 167.05 95.5 180.65 97.45 166.9 100.65 L166.3 100.75 Q154.3 103.6 134.15 103.8 127.8 103.75 121.4 103.65 113.65 107.35 102.05 110.0 L97.0 111.05 Q90.15 112.35 83.3 113.65 78.8 114.4 74.3 115.2 66.0 116.45 63.2 114.8 L61.55 114.25 Q57.1 113.05 44.95 112.7 34.45 112.7 25.45 114.4 21.15 115.25 17.2 116.45 8.1 119.55 2.7 117.55 0.9 116.85 -0.5 115.6 -6.55 110.7 -5.5 103.3 L-5.5 103.2 Z"/>
    </path>
  </g>
</svg>
