<?xml version="1.0" encoding="UTF-8" standalone="no"?>
<svg xmlns:ffdec="https://www.free-decompiler.com/flash" xmlns:xlink="http://www.w3.org/1999/xlink" ffdec:objectType="morphshape" height="6.4px" width="44.65px" xmlns="http://www.w3.org/2000/svg">
  <g transform="matrix(1.0, 0.0, 0.0, 1.0, -37.55, -104.45)">
    <path d="M37.55 110.1 L50.05 110.45 51.35 110.7 51.55 110.7 52.1 110.8 51.9 110.65 53.25 110.4 55.1 110.1 57.2 110.35 62.45 110.85 71.0 110.85 72.25 109.85 Q72.6 109.45 72.6 108.8 72.6 106.35 69.0 105.2 65.8 104.2 61.0 104.5 56.4 104.8 53.05 106.05 50.1 107.1 37.55 110.1" fill="#ffffff" fill-rule="evenodd" stroke="none">
      <animate attributeName="fill" dur="2s" repeatCount="indefinite" values="#ffffff;#ffffff"/>
      <animate attributeName="fill-opacity" dur="2s" repeatCount="indefinite" values="1.0;1.0"/>
      <animate attributeName="d" dur="2s" repeatCount="indefinite" values="M37.55 110.1 L50.05 110.45 51.35 110.7 51.55 110.7 52.1 110.8 51.9 110.65 53.25 110.4 55.1 110.1 57.2 110.35 62.45 110.85 71.0 110.85 72.25 109.85 Q72.6 109.45 72.6 108.8 72.6 106.35 69.0 105.2 65.8 104.2 61.0 104.5 56.4 104.8 53.05 106.05 50.1 107.1 37.55 110.1;M47.15 110.1 L59.65 110.45 60.95 110.7 61.15 110.7 61.7 110.8 61.5 110.65 62.85 110.4 64.7 110.1 66.8 110.35 72.05 110.85 80.6 110.85 81.85 109.85 Q82.2 109.45 82.2 108.8 82.2 106.35 78.6 105.2 75.4 104.2 70.6 104.5 66.0 104.8 62.65 106.05 59.7 107.1 47.15 110.1"/>
    </path>
    <path d="M37.55 110.1 Q50.1 107.1 53.05 106.05 56.4 104.8 61.0 104.5 65.8 104.2 69.0 105.2 72.6 106.35 72.6 108.8 72.6 109.45 72.25 109.85 L71.0 110.85 62.45 110.85 57.2 110.35 55.1 110.1 53.25 110.4 51.9 110.65 52.1 110.8 51.55 110.7 51.35 110.7 50.05 110.45 37.55 110.1 Z" fill="none" stroke="#000000" stroke-linecap="round" stroke-linejoin="round" stroke-opacity="0.0" stroke-width="0.0">
      <animate attributeName="stroke" dur="2s" repeatCount="indefinite" values="#000000;#000001"/>
      <animate attributeName="stroke-width" dur="2s" repeatCount="indefinite" values="0.0;0.0"/>
      <animate attributeName="fill-opacity" dur="2s" repeatCount="indefinite" values="0.0;0.0"/>
      <animate attributeName="d" dur="2s" repeatCount="indefinite" values="M37.55 110.1 Q50.1 107.1 53.05 106.05 56.4 104.8 61.0 104.5 65.8 104.2 69.0 105.2 72.6 106.35 72.6 108.8 72.6 109.45 72.25 109.85 L71.0 110.85 62.45 110.85 57.2 110.35 55.1 110.1 53.25 110.4 51.9 110.65 52.1 110.8 51.55 110.7 51.35 110.7 50.05 110.45 37.55 110.1 Z;M47.15 110.1 Q59.7 107.1 62.65 106.05 66.0 104.8 70.6 104.5 75.4 104.2 78.6 105.2 82.2 106.35 82.2 108.8 82.2 109.45 81.85 109.85 L80.6 110.85 72.05 110.85 66.8 110.35 64.7 110.1 62.85 110.4 61.5 110.65 61.7 110.8 61.15 110.7 60.95 110.7 59.65 110.45 47.15 110.1 Z"/>
    </path>
  </g>
</svg>
