<?xml version="1.0" encoding="UTF-8" standalone="no"?>
<svg xmlns:ffdec="https://www.free-decompiler.com/flash" xmlns:xlink="http://www.w3.org/1999/xlink" ffdec:objectType="morphshape" height="7.5px" width="46.15px" xmlns="http://www.w3.org/2000/svg">
  <g transform="matrix(1.0, 0.0, 0.0, 1.0, -47.15, -104.45)">
    <path d="M47.15 110.1 L59.65 110.45 60.95 110.7 61.15 110.7 61.7 110.8 61.5 110.65 62.85 110.4 64.7 110.1 66.8 110.35 72.05 110.85 80.6 110.85 81.85 109.85 Q82.2 109.45 82.2 108.8 82.2 106.35 78.6 105.2 75.4 104.2 70.6 104.5 66.0 104.8 62.65 106.05 59.7 107.1 47.15 110.1" fill="#ffffff" fill-rule="evenodd" stroke="none">
      <animate attributeName="fill" dur="2s" repeatCount="indefinite" values="#ffffff;#ffffff"/>
      <animate attributeName="fill-opacity" dur="2s" repeatCount="indefinite" values="1.0;1.0"/>
      <animate attributeName="d" dur="2s" repeatCount="indefinite" values="M47.15 110.1 L59.65 110.45 60.95 110.7 61.15 110.7 61.7 110.8 61.5 110.65 62.85 110.4 64.7 110.1 66.8 110.35 72.05 110.85 80.6 110.85 81.85 109.85 Q82.2 109.45 82.2 108.8 82.2 106.35 78.6 105.2 75.4 104.2 70.6 104.5 66.0 104.8 62.65 106.05 59.7 107.1 47.15 110.1;M58.4 111.2 L70.9 111.55 72.2 111.8 72.4 111.8 72.95 111.9 72.75 111.75 74.1 111.5 75.95 111.2 78.05 111.45 83.3 111.95 91.85 111.95 93.1 110.95 Q93.45 110.55 93.15 109.95 92.85 109.35 90.1 109.25 86.5 108.85 82.9 108.45 78.8 108.2 74.75 108.0 70.95 108.2 58.4 111.2"/>
    </path>
    <path d="M47.15 110.1 Q59.7 107.1 62.65 106.05 66.0 104.8 70.6 104.5 75.4 104.2 78.6 105.2 82.2 106.35 82.2 108.8 82.2 109.45 81.85 109.85 L80.6 110.85 72.05 110.85 66.8 110.35 64.7 110.1 62.85 110.4 61.5 110.65 61.7 110.8 61.15 110.7 60.95 110.7 59.65 110.45 47.15 110.1 Z" fill="none" stroke="#000000" stroke-linecap="round" stroke-linejoin="round" stroke-opacity="0.0" stroke-width="0.0">
      <animate attributeName="stroke" dur="2s" repeatCount="indefinite" values="#000000;#000001"/>
      <animate attributeName="stroke-width" dur="2s" repeatCount="indefinite" values="0.0;0.0"/>
      <animate attributeName="fill-opacity" dur="2s" repeatCount="indefinite" values="0.0;0.0"/>
      <animate attributeName="d" dur="2s" repeatCount="indefinite" values="M47.15 110.1 Q59.7 107.1 62.65 106.05 66.0 104.8 70.6 104.5 75.4 104.2 78.6 105.2 82.2 106.35 82.2 108.8 82.2 109.45 81.85 109.85 L80.6 110.85 72.05 110.85 66.8 110.35 64.7 110.1 62.85 110.4 61.5 110.65 61.7 110.8 61.15 110.7 60.95 110.7 59.65 110.45 47.15 110.1 Z;M58.4 111.2 Q70.95 108.2 74.75 108.0 78.8 108.2 82.9 108.45 86.5 108.85 90.1 109.25 92.85 109.35 93.15 109.95 93.45 110.55 93.1 110.95 L91.85 111.95 83.3 111.95 78.05 111.45 75.95 111.2 74.1 111.5 72.75 111.75 72.95 111.9 72.4 111.8 72.2 111.8 70.9 111.55 58.4 111.2 Z"/>
    </path>
  </g>
</svg>
