<?xml version="1.0" encoding="UTF-8" standalone="no"?>
<svg xmlns:ffdec="https://www.free-decompiler.com/flash" xmlns:xlink="http://www.w3.org/1999/xlink" ffdec:objectType="morphshape" height="38.75px" width="179.5px" xmlns="http://www.w3.org/2000/svg">
  <g transform="matrix(1.0, 0.0, 0.0, 1.0, 5.7, -82.95)">
    <path d="M-5.5 103.2 Q-6.6 110.65 -0.5 115.6 L0.65 116.45 Q6.2 120.15 17.2 116.45 L23.2 114.85 Q33.1 112.7 44.95 112.7 51.85 113.2 58.75 113.65 61.9 114.15 63.2 114.8 66.0 116.45 74.3 115.2 81.55 113.9 88.8 112.6 92.9 111.8 97.0 111.05 102.45 109.8 107.85 108.55 115.65 106.4 121.4 103.65 126.7 103.75 132.0 103.8 144.65 103.05 157.25 102.35 L166.3 100.75 Q183.6 96.9 161.1 94.85 156.2 94.45 151.35 94.1 132.3 93.0 120.45 93.45 110.2 93.8 105.35 95.35 99.1 97.55 92.3 97.0 87.6 96.65 82.6 94.95 75.5 92.8 70.3 93.6 66.55 94.15 63.75 96.2 60.8 98.4 57.0 98.75 51.55 99.2 44.35 95.8 33.85 91.15 24.15 91.15 L21.1 91.25 Q-4.4 96.2 -5.5 103.2" fill="#ffffff" fill-rule="evenodd" stroke="none">
      <animate attributeName="fill" dur="2s" repeatCount="indefinite" values="#ffffff;#ffffff"/>
      <animate attributeName="fill-opacity" dur="2s" repeatCount="indefinite" values="1.0;1.0"/>
      <animate attributeName="d" dur="2s" repeatCount="indefinite" values="M-5.5 103.2 Q-6.6 110.65 -0.5 115.6 L0.65 116.45 Q6.2 120.15 17.2 116.45 L23.2 114.85 Q33.1 112.7 44.95 112.7 51.85 113.2 58.75 113.65 61.9 114.15 63.2 114.8 66.0 116.45 74.3 115.2 81.55 113.9 88.8 112.6 92.9 111.8 97.0 111.05 102.45 109.8 107.85 108.55 115.65 106.4 121.4 103.65 126.7 103.75 132.0 103.8 144.65 103.05 157.25 102.35 L166.3 100.75 Q183.6 96.9 161.1 94.85 156.2 94.45 151.35 94.1 132.3 93.0 120.45 93.45 110.2 93.8 105.35 95.35 99.1 97.55 92.3 97.0 87.6 96.65 82.6 94.95 75.5 92.8 70.3 93.6 66.55 94.15 63.75 96.2 60.8 98.4 57.0 98.75 51.55 99.2 44.35 95.8 33.85 91.15 24.15 91.15 L21.1 91.25 Q-4.4 96.2 -5.5 103.2;M-5.55 103.2 Q-6.55 110.1 -1.4 114.85 L-0.55 115.6 Q3.95 119.6 14.15 116.55 L19.4 114.75 Q28.85 111.25 39.25 113.6 44.7 114.8 50.4 117.65 52.3 118.6 54.2 119.5 59.7 121.8 64.4 121.7 71.25 121.6 76.45 116.4 79.75 112.85 82.75 111.4 87.8 108.9 92.0 112.3 96.55 115.95 103.95 112.5 107.35 110.9 111.4 107.75 118.05 100.7 131.9 100.7 L140.7 100.65 Q160.0 100.2 141.85 95.35 137.35 93.0 133.3 91.35 115.45 84.1 106.4 90.8 100.45 95.0 94.35 96.0 88.5 96.95 82.55 94.95 78.25 93.45 73.95 92.0 67.8 89.6 63.7 87.1 60.6 85.3 57.8 84.3 54.1 82.95 51.0 82.95 44.75 83.4 38.55 83.8 28.2 85.65 21.05 91.2 L18.3 91.75 Q-4.5 96.55 -5.55 103.2"/>
    </path>
    <path d="M-5.5 103.2 Q-4.4 96.2 21.1 91.25 L24.15 91.15 Q33.85 91.15 44.35 95.8 51.55 99.2 57.0 98.75 60.8 98.4 63.75 96.2 66.55 94.15 70.3 93.6 75.5 92.8 82.6 94.95 87.6 96.65 92.3 97.0 99.1 97.55 105.35 95.35 110.2 93.8 120.45 93.45 132.3 93.0 151.35 94.1 156.2 94.45 161.1 94.85 183.6 96.9 166.3 100.75 L157.25 102.35 Q144.65 103.05 132.0 103.8 126.7 103.75 121.4 103.65 115.65 106.4 107.85 108.55 102.45 109.8 97.0 111.05 92.9 111.8 88.8 112.6 81.55 113.9 74.3 115.2 66.0 116.45 63.2 114.8 61.9 114.15 58.75 113.65 51.85 113.2 44.95 112.7 33.1 112.7 23.2 114.85 L17.2 116.45 Q6.2 120.15 0.65 116.45 L-0.5 115.6 Q-6.6 110.65 -5.5 103.2 Z" fill="none" stroke="#000000" stroke-linecap="round" stroke-linejoin="round" stroke-opacity="0.0" stroke-width="0.0">
      <animate attributeName="stroke" dur="2s" repeatCount="indefinite" values="#000000;#000001"/>
      <animate attributeName="stroke-width" dur="2s" repeatCount="indefinite" values="0.0;0.0"/>
      <animate attributeName="fill-opacity" dur="2s" repeatCount="indefinite" values="0.0;0.0"/>
      <animate attributeName="d" dur="2s" repeatCount="indefinite" values="M-5.5 103.2 Q-4.4 96.2 21.1 91.25 L24.15 91.15 Q33.85 91.15 44.35 95.8 51.55 99.2 57.0 98.75 60.8 98.4 63.75 96.2 66.55 94.15 70.3 93.6 75.5 92.8 82.6 94.95 87.6 96.65 92.3 97.0 99.1 97.55 105.35 95.35 110.2 93.8 120.45 93.45 132.3 93.0 151.35 94.1 156.2 94.45 161.1 94.85 183.6 96.9 166.3 100.75 L157.25 102.35 Q144.65 103.05 132.0 103.8 126.7 103.75 121.4 103.65 115.65 106.4 107.85 108.55 102.45 109.8 97.0 111.05 92.9 111.8 88.8 112.6 81.55 113.9 74.3 115.2 66.0 116.45 63.2 114.8 61.9 114.15 58.75 113.65 51.85 113.2 44.95 112.7 33.1 112.7 23.2 114.85 L17.2 116.45 Q6.2 120.15 0.65 116.45 L-0.5 115.6 Q-6.6 110.65 -5.5 103.2 Z;M-5.55 103.2 Q-4.5 96.55 18.3 91.75 L21.05 91.2 Q28.2 85.65 38.55 83.8 44.75 83.4 51.0 82.95 54.1 82.95 57.8 84.3 60.6 85.3 63.7 87.1 67.8 89.6 73.95 92.0 78.25 93.45 82.55 94.95 88.5 96.95 94.35 96.0 100.45 95.0 106.4 90.8 115.45 84.1 133.3 91.35 137.35 93.0 141.85 95.35 160.0 100.2 140.7 100.65 L131.9 100.7 Q118.05 100.7 111.4 107.75 107.35 110.9 103.95 112.5 96.55 115.95 92.0 112.3 87.8 108.9 82.75 111.4 79.75 112.85 76.45 116.4 71.25 121.6 64.4 121.7 59.7 121.8 54.2 119.5 52.3 118.6 50.4 117.65 44.7 114.8 39.25 113.6 28.85 111.25 19.4 114.75 L14.15 116.55 Q3.95 119.6 -0.55 115.6 L-1.4 114.85 Q-6.55 110.1 -5.55 103.2 Z"/>
    </path>
  </g>
</svg>
