<?xml version="1.0" encoding="UTF-8" standalone="no"?>
<svg xmlns:ffdec="https://www.free-decompiler.com/flash" xmlns:xlink="http://www.w3.org/1999/xlink" ffdec:objectType="morphshape" height="49.2px" width="200.6px" xmlns="http://www.w3.org/2000/svg">
  <g transform="matrix(1.0, 0.0, 0.0, 1.0, 12.15, -78.8)">
    <path d="M-12.15 104.05 Q-12.15 114.35 0.6 119.3 L0.6 119.3 Q8.25 122.6 15.35 122.65 L15.55 122.65 Q22.65 122.65 29.25 120.25 L29.45 120.15 Q35.55 117.9 37.45 117.7 L37.75 117.7 Q43.3 117.7 51.55 120.15 L51.55 120.15 Q59.2 122.45 65.4 122.65 L66.5 122.65 Q73.2 122.65 80.95 119.7 L82.3 119.2 Q89.35 116.85 95.9 116.85 L98.6 117.0 111.4 117.7 113.95 117.05 Q121.35 114.8 120.85 109.8 120.15 106.15 127.9 104.8 133.8 104.4 139.7 104.05 L145.0 103.95 Q162.0 103.2 177.4 97.85 181.75 96.45 183.85 95.25 190.35 91.65 175.7 90.35 L171.85 90.05 154.85 88.9 150.25 88.75 Q145.35 89.05 136.45 86.7 L131.9 85.4 Q124.55 83.45 119.6 83.1 L114.2 83.4 Q107.25 80.55 101.85 82.75 L101.45 82.95 Q91.5 87.9 89.8 87.9 L89.2 87.9 Q78.4 87.75 66.5 83.4 L66.0 83.2 Q53.65 78.8 45.5 78.8 L45.1 78.8 Q35.95 78.85 30.55 80.9 L30.25 81.0 Q23.15 84.7 15.55 87.9 L15.35 87.9 Q8.25 88.8 1.7 90.8 L1.6 90.8 Q-12.15 95.45 -12.15 104.05" fill="#7bd8e7" fill-opacity="0.36078432" fill-rule="evenodd" stroke="none">
      <animate attributeName="fill" dur="2s" repeatCount="indefinite" values="#7bd8e7;#7bd8e8"/>
      <animate attributeName="fill-opacity" dur="2s" repeatCount="indefinite" values="0.36078432;0.36078432"/>
      <animate attributeName="d" dur="2s" repeatCount="indefinite" values="M-12.15 104.05 Q-12.15 114.35 0.6 119.3 L0.6 119.3 Q8.25 122.6 15.35 122.65 L15.55 122.65 Q22.65 122.65 29.25 120.25 L29.45 120.15 Q35.55 117.9 37.45 117.7 L37.75 117.7 Q43.3 117.7 51.55 120.15 L51.55 120.15 Q59.2 122.45 65.4 122.65 L66.5 122.65 Q73.2 122.65 80.95 119.7 L82.3 119.2 Q89.35 116.85 95.9 116.85 L98.6 117.0 111.4 117.7 113.95 117.05 Q121.35 114.8 120.85 109.8 120.15 106.15 127.9 104.8 133.8 104.4 139.7 104.05 L145.0 103.95 Q162.0 103.2 177.4 97.85 181.75 96.45 183.85 95.25 190.35 91.65 175.7 90.35 L171.85 90.05 154.85 88.9 150.25 88.75 Q145.35 89.05 136.45 86.7 L131.9 85.4 Q124.55 83.45 119.6 83.1 L114.2 83.4 Q107.25 80.55 101.85 82.75 L101.45 82.95 Q91.5 87.9 89.8 87.9 L89.2 87.9 Q78.4 87.75 66.5 83.4 L66.0 83.2 Q53.65 78.8 45.5 78.8 L45.1 78.8 Q35.95 78.85 30.55 80.9 L30.25 81.0 Q23.15 84.7 15.55 87.9 L15.35 87.9 Q8.25 88.8 1.7 90.8 L1.6 90.8 Q-12.15 95.45 -12.15 104.05;M-12.15 104.05 Q-12.15 114.35 0.6 119.3 L0.6 119.3 Q8.35 122.65 15.55 122.65 L15.75 122.65 Q22.85 122.6 29.45 120.15 L29.75 120.05 Q36.1 117.7 37.75 117.7 L38.05 117.7 Q43.5 117.85 51.05 122.65 L51.05 122.65 Q59.35 128.0 64.3 128.0 L65.6 127.95 Q72.65 127.6 79.3 123.0 L80.4 122.2 Q87.15 117.85 93.25 117.05 L95.9 116.85 108.8 117.6 111.4 117.7 Q115.75 117.7 122.1 115.95 126.3 114.75 131.4 112.75 138.8 109.85 143.6 108.75 L149.1 108.15 Q175.05 109.8 183.9 106.75 188.45 105.2 188.45 102.35 188.45 98.0 177.35 94.95 L174.05 94.15 156.3 91.2 152.25 90.35 Q145.4 88.5 138.6 86.65 L133.9 85.3 Q126.5 83.4 121.45 83.4 L116.2 83.65 Q109.9 84.55 103.65 85.4 L103.05 85.5 Q96.8 86.7 90.55 87.85 L89.8 87.9 Q78.95 87.9 67.0 83.6 L66.5 83.4 Q54.1 78.9 45.9 78.8 L45.5 78.8 Q36.3 78.8 30.85 80.8 L30.55 80.9 Q23.4 84.6 15.75 87.8 L15.55 87.9 Q8.4 88.75 1.8 90.8 L1.7 90.8 Q-12.15 95.4 -12.15 104.05"/>
    </path>
    <path d="M-12.15 104.05 Q-12.15 95.45 1.6 90.8 L1.7 90.8 Q8.25 88.8 15.35 87.9 L15.55 87.9 Q23.15 84.7 30.25 81.0 L30.55 80.9 Q35.95 78.85 45.1 78.8 L45.5 78.8 Q53.65 78.8 66.0 83.2 L66.5 83.4 Q78.4 87.75 89.2 87.9 L89.8 87.9 Q91.5 87.9 101.45 82.95 L101.85 82.75 Q107.25 80.55 114.2 83.4 L119.6 83.1 Q124.55 83.45 131.9 85.4 L136.45 86.7 Q145.35 89.05 150.25 88.75 L154.85 88.9 171.85 90.05 175.7 90.35 Q190.35 91.65 183.85 95.25 181.75 96.45 177.4 97.85 162.0 103.2 145.0 103.95 L139.7 104.05 Q133.8 104.4 127.9 104.8 120.15 106.15 120.85 109.8 121.35 114.8 113.95 117.05 L111.4 117.7 98.6 117.0 95.9 116.85 Q89.35 116.85 82.3 119.2 L80.95 119.7 Q73.2 122.65 66.5 122.65 L65.4 122.65 Q59.2 122.45 51.55 120.15 L51.55 120.15 Q43.3 117.7 37.75 117.7 L37.45 117.7 Q35.55 117.9 29.45 120.15 L29.25 120.25 Q22.65 122.65 15.55 122.65 L15.35 122.65 Q8.25 122.6 0.6 119.3 L0.6 119.3 Q-12.15 114.35 -12.15 104.05 Z" fill="none" stroke="#000000" stroke-linecap="round" stroke-linejoin="round" stroke-opacity="0.0" stroke-width="0.0">
      <animate attributeName="stroke" dur="2s" repeatCount="indefinite" values="#000000;#000001"/>
      <animate attributeName="stroke-width" dur="2s" repeatCount="indefinite" values="0.0;0.0"/>
      <animate attributeName="fill-opacity" dur="2s" repeatCount="indefinite" values="0.0;0.0"/>
      <animate attributeName="d" dur="2s" repeatCount="indefinite" values="M-12.15 104.05 Q-12.15 95.45 1.6 90.8 L1.7 90.8 Q8.25 88.8 15.35 87.9 L15.55 87.9 Q23.15 84.7 30.25 81.0 L30.55 80.9 Q35.95 78.85 45.1 78.8 L45.5 78.8 Q53.65 78.8 66.0 83.2 L66.5 83.4 Q78.4 87.75 89.2 87.9 L89.8 87.9 Q91.5 87.9 101.45 82.95 L101.85 82.75 Q107.25 80.55 114.2 83.4 L119.6 83.1 Q124.55 83.45 131.9 85.4 L136.45 86.7 Q145.35 89.05 150.25 88.75 L154.85 88.9 171.85 90.05 175.7 90.35 Q190.35 91.65 183.85 95.25 181.75 96.45 177.4 97.85 162.0 103.2 145.0 103.95 L139.7 104.05 Q133.8 104.4 127.9 104.8 120.15 106.15 120.85 109.8 121.35 114.8 113.95 117.05 L111.4 117.7 98.6 117.0 95.9 116.85 Q89.35 116.85 82.3 119.2 L80.95 119.7 Q73.2 122.65 66.5 122.65 L65.4 122.65 Q59.2 122.45 51.55 120.15 L51.55 120.15 Q43.3 117.7 37.75 117.7 L37.45 117.7 Q35.55 117.9 29.45 120.15 L29.25 120.25 Q22.65 122.65 15.55 122.65 L15.35 122.65 Q8.25 122.6 0.6 119.3 L0.6 119.3 Q-12.15 114.35 -12.15 104.05 Z;M-12.15 104.05 Q-12.15 95.4 1.7 90.8 L1.8 90.8 Q8.4 88.75 15.55 87.9 L15.75 87.8 Q23.4 84.6 30.55 80.9 L30.85 80.8 Q36.3 78.8 45.5 78.8 L45.9 78.8 Q54.1 78.9 66.5 83.4 L67.0 83.6 Q78.95 87.9 89.8 87.9 L90.55 87.85 Q96.8 86.7 103.05 85.5 L103.65 85.4 Q109.9 84.55 116.2 83.65 L121.45 83.4 Q126.5 83.4 133.9 85.3 L138.6 86.65 Q145.4 88.5 152.25 90.35 L156.3 91.2 174.05 94.15 177.35 94.95 Q188.45 98.0 188.45 102.35 188.45 105.2 183.9 106.75 175.05 109.8 149.1 108.15 L143.6 108.75 Q138.8 109.85 131.4 112.75 126.3 114.75 122.1 115.95 115.75 117.7 111.4 117.7 L108.8 117.6 95.9 116.85 93.25 117.05 Q87.15 117.85 80.4 122.2 L79.3 123.0 Q72.65 127.6 65.6 127.95 L64.3 128.0 Q59.35 128.0 51.05 122.65 L51.05 122.65 Q43.5 117.85 38.05 117.7 L37.75 117.7 Q36.1 117.7 29.75 120.05 L29.45 120.15 Q22.85 122.6 15.75 122.65 L15.55 122.65 Q8.35 122.65 0.6 119.3 L0.6 119.3 Q-12.15 114.35 -12.15 104.05 Z"/>
    </path>
  </g>
</svg>
