<?xml version="1.0" encoding="UTF-8" standalone="no"?>
<svg xmlns:ffdec="https://www.free-decompiler.com/flash" xmlns:xlink="http://www.w3.org/1999/xlink" ffdec:objectType="morphshape" height="86.0px" width="86.0px" xmlns="http://www.w3.org/2000/svg">
  <g transform="matrix(1.0, 0.0, 0.0, 1.0, 43.0, 43.0)">
    <path d="M-31.05 0.0 Q-31.05 12.9 -22.0 21.85 -12.75 31.05 0.0 31.05 12.9 31.05 22.0 21.85 31.05 12.9 31.05 0.0 31.05 -12.75 22.0 -22.0 12.9 -31.05 0.0 -31.05 -12.75 -31.05 -22.0 -22.0 -31.05 -12.75 -31.05 0.0 M-43.0 0.0 Q-43.0 17.8 -30.45 30.3 -17.8 43.0 0.0 43.0 17.8 43.0 30.3 30.3 43.0 17.8 43.0 0.0 43.0 -17.8 30.3 -30.45 17.8 -43.0 0.0 -43.0 -17.8 -43.0 -30.45 -30.45 -43.0 -17.8 -43.0 0.0" fill="#ffffff" fill-opacity="0.0" fill-rule="evenodd" stroke="none">
      <animate attributeName="fill" dur="2s" repeatCount="indefinite" values="#ffffff;#ff0001"/>
      <animate attributeName="fill-opacity" dur="2s" repeatCount="indefinite" values="0.0;1.0"/>
      <animate attributeName="d" dur="2s" repeatCount="indefinite" values="M-31.05 0.0 Q-31.05 12.9 -22.0 21.85 -12.75 31.05 0.0 31.05 12.9 31.05 22.0 21.85 31.05 12.9 31.05 0.0 31.05 -12.75 22.0 -22.0 12.9 -31.05 0.0 -31.05 -12.75 -31.05 -22.0 -22.0 -31.05 -12.75 -31.05 0.0 M-43.0 0.0 Q-43.0 17.8 -30.45 30.3 -17.8 43.0 0.0 43.0 17.8 43.0 30.3 30.3 43.0 17.8 43.0 0.0 43.0 -17.8 30.3 -30.45 17.8 -43.0 0.0 -43.0 -17.8 -43.0 -30.45 -30.45 -43.0 -17.8 -43.0 0.0;M-10.85 0.0 Q-10.85 4.5 -7.65 7.6 -4.45 10.85 0.0 10.85 4.5 10.85 7.65 7.6 10.85 4.5 10.85 0.0 10.85 -4.45 7.65 -7.65 4.5 -10.85 0.0 -10.85 -4.45 -10.85 -7.65 -7.65 -10.85 -4.45 -10.85 0.0 M-15.0 0.0 Q-15.0 6.2 -10.6 10.6 -6.2 15.0 0.0 15.0 6.2 15.0 10.6 10.6 15.0 6.2 15.0 0.0 15.0 -6.2 10.6 -10.6 6.2 -15.0 0.0 -15.0 -6.2 -15.0 -10.6 -10.6 -15.0 -6.2 -15.0 0.0"/>
    </path>
    <path d="M-43.0 0.0 Q-43.0 -17.8 -30.45 -30.45 -17.8 -43.0 0.0 -43.0 17.8 -43.0 30.3 -30.45 43.0 -17.8 43.0 0.0 43.0 17.8 30.3 30.3 17.8 43.0 0.0 43.0 -17.8 43.0 -30.45 30.3 -43.0 17.8 -43.0 0.0 M-31.05 0.0 Q-31.05 -12.75 -22.0 -22.0 -12.75 -31.05 0.0 -31.05 12.9 -31.05 22.0 -22.0 31.05 -12.75 31.05 0.0 31.05 12.9 22.0 21.85 12.9 31.05 0.0 31.05 -12.75 31.05 -22.0 21.85 -31.05 12.9 -31.05 0.0 Z" fill="none" stroke="#000000" stroke-linecap="round" stroke-linejoin="round" stroke-opacity="0.0" stroke-width="0.0">
      <animate attributeName="stroke" dur="2s" repeatCount="indefinite" values="#000000;#000001"/>
      <animate attributeName="stroke-width" dur="2s" repeatCount="indefinite" values="0.0;0.0"/>
      <animate attributeName="fill-opacity" dur="2s" repeatCount="indefinite" values="0.0;0.0"/>
      <animate attributeName="d" dur="2s" repeatCount="indefinite" values="M-43.0 0.0 Q-43.0 -17.8 -30.45 -30.45 -17.8 -43.0 0.0 -43.0 17.8 -43.0 30.3 -30.45 43.0 -17.8 43.0 0.0 43.0 17.8 30.3 30.3 17.8 43.0 0.0 43.0 -17.8 43.0 -30.45 30.3 -43.0 17.8 -43.0 0.0 M-31.05 0.0 Q-31.05 -12.75 -22.0 -22.0 -12.75 -31.05 0.0 -31.05 12.9 -31.05 22.0 -22.0 31.05 -12.75 31.05 0.0 31.05 12.9 22.0 21.85 12.9 31.05 0.0 31.05 -12.75 31.05 -22.0 21.85 -31.05 12.9 -31.05 0.0 Z;M-15.0 0.0 Q-15.0 -6.2 -10.6 -10.6 -6.2 -15.0 0.0 -15.0 6.2 -15.0 10.6 -10.6 15.0 -6.2 15.0 0.0 15.0 6.2 10.6 10.6 6.2 15.0 0.0 15.0 -6.2 15.0 -10.6 10.6 -15.0 6.2 -15.0 0.0 M-10.85 0.0 Q-10.85 -4.45 -7.65 -7.65 -4.45 -10.85 0.0 -10.85 4.5 -10.85 7.65 -7.65 10.85 -4.45 10.85 0.0 10.85 4.5 7.65 7.6 4.5 10.85 0.0 10.85 -4.45 10.85 -7.65 7.6 -10.85 4.5 -10.85 0.0 Z"/>
    </path>
  </g>
</svg>
