<?xml version="1.0" encoding="UTF-8" standalone="no"?>
<svg xmlns:ffdec="https://www.free-decompiler.com/flash" xmlns:xlink="http://www.w3.org/1999/xlink" ffdec:objectType="morphshape" height="30.0px" width="30.0px" xmlns="http://www.w3.org/2000/svg">
  <g transform="matrix(1.0, 0.0, 0.0, 1.0, 15.0, 15.0)">
    <path d="M-10.85 0.0 Q-10.85 4.5 -7.65 7.6 -4.45 10.85 0.0 10.85 4.5 10.85 7.65 7.6 10.85 4.5 10.85 0.0 10.85 -4.45 7.65 -7.65 4.5 -10.85 0.0 -10.85 -4.45 -10.85 -7.65 -7.65 -10.85 -4.45 -10.85 0.0 M-15.0 0.0 Q-15.0 6.2 -10.6 10.6 -6.2 15.0 0.0 15.0 6.2 15.0 10.6 10.6 15.0 6.2 15.0 0.0 15.0 -6.2 10.6 -10.6 6.2 -15.0 0.0 -15.0 -6.2 -15.0 -10.6 -10.6 -15.0 -6.2 -15.0 0.0" fill="#ff0000" fill-rule="evenodd" stroke="none">
      <animate attributeName="fill" dur="2s" repeatCount="indefinite" values="#ff0000;#ff0001"/>
      <animate attributeName="fill-opacity" dur="2s" repeatCount="indefinite" values="1.0;1.0"/>
      <animate attributeName="d" dur="2s" repeatCount="indefinite" values="M-10.85 0.0 Q-10.85 4.5 -7.65 7.6 -4.45 10.85 0.0 10.85 4.5 10.85 7.65 7.6 10.85 4.5 10.85 0.0 10.85 -4.45 7.65 -7.65 4.5 -10.85 0.0 -10.85 -4.45 -10.85 -7.65 -7.65 -10.85 -4.45 -10.85 0.0 M-15.0 0.0 Q-15.0 6.2 -10.6 10.6 -6.2 15.0 0.0 15.0 6.2 15.0 10.6 10.6 15.0 6.2 15.0 0.0 15.0 -6.2 10.6 -10.6 6.2 -15.0 0.0 -15.0 -6.2 -15.0 -10.6 -10.6 -15.0 -6.2 -15.0 0.0;M-7.25 0.0 Q-7.25 3.0 -5.1 5.05 -2.95 7.25 0.0 7.25 3.0 7.25 5.1 5.05 7.25 3.0 7.25 0.0 7.25 -2.95 5.1 -5.1 3.0 -7.25 0.0 -7.25 -2.95 -7.25 -5.1 -5.1 -7.25 -2.95 -7.25 0.0 M-10.0 0.0 Q-10.0 4.15 -7.05 7.05 -4.15 10.0 0.0 10.0 4.15 10.0 7.05 7.05 10.0 4.15 10.0 0.0 10.0 -4.15 7.05 -7.05 4.15 -10.0 0.0 -10.0 -4.15 -10.0 -7.05 -7.05 -10.0 -4.15 -10.0 0.0"/>
    </path>
    <path d="M-15.0 0.0 Q-15.0 -6.2 -10.6 -10.6 -6.2 -15.0 0.0 -15.0 6.2 -15.0 10.6 -10.6 15.0 -6.2 15.0 0.0 15.0 6.2 10.6 10.6 6.2 15.0 0.0 15.0 -6.2 15.0 -10.6 10.6 -15.0 6.2 -15.0 0.0 M-10.85 0.0 Q-10.85 -4.45 -7.65 -7.65 -4.45 -10.85 0.0 -10.85 4.5 -10.85 7.65 -7.65 10.85 -4.45 10.85 0.0 10.85 4.5 7.65 7.6 4.5 10.85 0.0 10.85 -4.45 10.85 -7.65 7.6 -10.85 4.5 -10.85 0.0 Z" fill="none" stroke="#000000" stroke-linecap="round" stroke-linejoin="round" stroke-opacity="0.0" stroke-width="0.0">
      <animate attributeName="stroke" dur="2s" repeatCount="indefinite" values="#000000;#000001"/>
      <animate attributeName="stroke-width" dur="2s" repeatCount="indefinite" values="0.0;0.0"/>
      <animate attributeName="fill-opacity" dur="2s" repeatCount="indefinite" values="0.0;0.0"/>
      <animate attributeName="d" dur="2s" repeatCount="indefinite" values="M-15.0 0.0 Q-15.0 -6.2 -10.6 -10.6 -6.2 -15.0 0.0 -15.0 6.2 -15.0 10.6 -10.6 15.0 -6.2 15.0 0.0 15.0 6.2 10.6 10.6 6.2 15.0 0.0 15.0 -6.2 15.0 -10.6 10.6 -15.0 6.2 -15.0 0.0 M-10.85 0.0 Q-10.85 -4.45 -7.65 -7.65 -4.45 -10.85 0.0 -10.85 4.5 -10.85 7.65 -7.65 10.85 -4.45 10.85 0.0 10.85 4.5 7.65 7.6 4.5 10.85 0.0 10.85 -4.45 10.85 -7.65 7.6 -10.85 4.5 -10.85 0.0 Z;M-10.0 0.0 Q-10.0 -4.15 -7.05 -7.05 -4.15 -10.0 0.0 -10.0 4.15 -10.0 7.05 -7.05 10.0 -4.15 10.0 0.0 10.0 4.15 7.05 7.05 4.15 10.0 0.0 10.0 -4.15 10.0 -7.05 7.05 -10.0 4.15 -10.0 0.0 M-7.25 0.0 Q-7.25 -2.95 -5.1 -5.1 -2.95 -7.25 0.0 -7.25 3.0 -7.25 5.1 -5.1 7.25 -2.95 7.25 0.0 7.25 3.0 5.1 5.05 3.0 7.25 0.0 7.25 -2.95 7.25 -5.1 5.05 -7.25 3.0 -7.25 0.0 Z"/>
    </path>
  </g>
</svg>
