<?xml version="1.0" encoding="UTF-8" standalone="no"?>
<svg xmlns:ffdec="https://www.free-decompiler.com/flash" xmlns:xlink="http://www.w3.org/1999/xlink" ffdec:objectType="morphshape" height="182.3px" width="182.3px" xmlns="http://www.w3.org/2000/svg">
  <g transform="matrix(1.0, 0.0, 0.0, 1.0, 91.15, 91.15)">
    <path d="M-3.0 0.0 Q-3.0 1.25 -2.1 2.1 -1.25 3.0 0.0 3.0 1.25 3.0 2.1 2.1 3.0 1.25 3.0 0.0 3.0 -1.25 2.1 -2.1 1.25 -3.0 0.0 -3.0 -1.25 -3.0 -2.1 -2.1 -3.0 -1.25 -3.0 0.0 M-28.4 0.0 Q-28.4 11.8 -20.1 20.1 -11.8 28.4 0.0 28.4 11.8 28.4 20.1 20.1 28.4 11.8 28.4 0.0 28.4 -11.8 20.1 -20.1 11.8 -28.4 0.0 -28.4 -11.8 -28.4 -20.1 -20.1 -28.4 -11.8 -28.4 0.0" fill="#ffffff" fill-rule="evenodd" stroke="none">
      <animate attributeName="fill" dur="2s" repeatCount="indefinite" values="#ffffff;#aeaeaf"/>
      <animate attributeName="fill-opacity" dur="2s" repeatCount="indefinite" values="1.0;1.0"/>
      <animate attributeName="d" dur="2s" repeatCount="indefinite" values="M-3.0 0.0 Q-3.0 1.25 -2.1 2.1 -1.25 3.0 0.0 3.0 1.25 3.0 2.1 2.1 3.0 1.25 3.0 0.0 3.0 -1.25 2.1 -2.1 1.25 -3.0 0.0 -3.0 -1.25 -3.0 -2.1 -2.1 -3.0 -1.25 -3.0 0.0 M-28.4 0.0 Q-28.4 11.8 -20.1 20.1 -11.8 28.4 0.0 28.4 11.8 28.4 20.1 20.1 28.4 11.8 28.4 0.0 28.4 -11.8 20.1 -20.1 11.8 -28.4 0.0 -28.4 -11.8 -28.4 -20.1 -20.1 -28.4 -11.8 -28.4 0.0;M-88.25 0.0 Q-88.25 36.3 -62.1 62.1 -36.3 88.25 0.0 88.25 36.3 88.25 62.1 62.1 88.25 36.3 88.25 0.0 88.25 -36.3 62.1 -62.1 36.3 -88.25 0.0 -88.25 -36.3 -88.25 -62.1 -62.1 -88.25 -36.3 -88.25 0.0 M-91.15 0.0 Q-91.15 37.8 -64.45 64.45 -37.8 91.15 0.0 91.15 37.8 91.15 64.45 64.45 91.15 37.8 91.15 0.0 91.15 -37.8 64.45 -64.45 37.8 -91.15 0.0 -91.15 -37.8 -91.15 -64.45 -64.45 -91.15 -37.8 -91.15 0.0"/>
    </path>
    <path d="M-28.4 0.0 Q-28.4 -11.8 -20.1 -20.1 -11.8 -28.4 0.0 -28.4 11.8 -28.4 20.1 -20.1 28.4 -11.8 28.4 0.0 28.4 11.8 20.1 20.1 11.8 28.4 0.0 28.4 -11.8 28.4 -20.1 20.1 -28.4 11.8 -28.4 0.0 M-3.0 0.0 Q-3.0 -1.25 -2.1 -2.1 -1.25 -3.0 0.0 -3.0 1.25 -3.0 2.1 -2.1 3.0 -1.25 3.0 0.0 3.0 1.25 2.1 2.1 1.25 3.0 0.0 3.0 -1.25 3.0 -2.1 2.1 -3.0 1.25 -3.0 0.0 Z" fill="none" stroke="#000000" stroke-linecap="round" stroke-linejoin="round" stroke-opacity="0.0" stroke-width="0.0">
      <animate attributeName="stroke" dur="2s" repeatCount="indefinite" values="#000000;#000001"/>
      <animate attributeName="stroke-width" dur="2s" repeatCount="indefinite" values="0.0;0.0"/>
      <animate attributeName="fill-opacity" dur="2s" repeatCount="indefinite" values="0.0;0.0"/>
      <animate attributeName="d" dur="2s" repeatCount="indefinite" values="M-28.4 0.0 Q-28.4 -11.8 -20.1 -20.1 -11.8 -28.4 0.0 -28.4 11.8 -28.4 20.1 -20.1 28.4 -11.8 28.4 0.0 28.4 11.8 20.1 20.1 11.8 28.4 0.0 28.4 -11.8 28.4 -20.1 20.1 -28.4 11.8 -28.4 0.0 M-3.0 0.0 Q-3.0 -1.25 -2.1 -2.1 -1.25 -3.0 0.0 -3.0 1.25 -3.0 2.1 -2.1 3.0 -1.25 3.0 0.0 3.0 1.25 2.1 2.1 1.25 3.0 0.0 3.0 -1.25 3.0 -2.1 2.1 -3.0 1.25 -3.0 0.0 Z;M-91.15 0.0 Q-91.15 -37.8 -64.45 -64.45 -37.8 -91.15 0.0 -91.15 37.8 -91.15 64.45 -64.45 91.15 -37.8 91.15 0.0 91.15 37.8 64.45 64.45 37.8 91.15 0.0 91.15 -37.8 91.15 -64.45 64.45 -91.15 37.8 -91.15 0.0 M-88.25 0.0 Q-88.25 -36.3 -62.1 -62.1 -36.3 -88.25 0.0 -88.25 36.3 -88.25 62.1 -62.1 88.25 -36.3 88.25 0.0 88.25 36.3 62.1 62.1 36.3 88.25 0.0 88.25 -36.3 88.25 -62.1 62.1 -88.25 36.3 -88.25 0.0 Z"/>
    </path>
  </g>
</svg>
