<?xml version="1.0" encoding="UTF-8" standalone="no"?>
<svg xmlns:ffdec="https://www.free-decompiler.com/flash" xmlns:xlink="http://www.w3.org/1999/xlink" ffdec:objectType="morphshape" height="1.9px" width="21.35px" xmlns="http://www.w3.org/2000/svg">
  <g transform="matrix(1.0, 0.0, 0.0, 1.0, 0.5, 1.0)">
    <path d="M-0.3 -0.65 L-0.3 -0.55 Q-0.3 -0.35 -0.3 -0.2 L-0.3 0.15 Q-0.2 0.85 0.2 0.6 L0.3 0.5 0.4 0.45 0.4 0.45 0.95 0.15 1.05 0.25 2.35 0.35 2.6 0.35 3.1 0.35 3.2 0.4 3.45 0.55 3.55 0.55 3.55 0.55 3.65 0.25 1.75 -0.8 1.45 -1.0 -0.2 -0.65 -0.3 -0.65" fill="#000000" fill-rule="evenodd" stroke="none">
      <animate attributeName="fill" dur="2s" repeatCount="indefinite" values="#000000;#000001"/>
      <animate attributeName="fill-opacity" dur="2s" repeatCount="indefinite" values="1.0;1.0"/>
      <animate attributeName="d" dur="2s" repeatCount="indefinite" values="M-0.3 -0.65 L-0.3 -0.55 Q-0.3 -0.35 -0.3 -0.2 L-0.3 0.15 Q-0.2 0.85 0.2 0.6 L0.3 0.5 0.4 0.45 0.4 0.45 0.95 0.15 1.05 0.25 2.35 0.35 2.6 0.35 3.1 0.35 3.2 0.4 3.45 0.55 3.55 0.55 3.55 0.55 3.65 0.25 1.75 -0.8 1.45 -1.0 -0.2 -0.65 -0.3 -0.65;M-0.5 -0.25 L-0.5 -0.25 Q-0.45 0.55 1.1 0.65 L2.4 0.65 Q4.05 0.5 5.65 0.35 L6.35 0.25 6.75 0.4 6.75 0.4 9.7 0.45 10.1 0.45 15.25 0.6 16.75 0.55 18.55 0.7 19.15 0.8 20.5 0.9 20.75 0.75 20.85 0.6 18.65 0.3 8.8 -0.85 6.95 -0.8 -0.45 -0.65 -0.5 -0.25"/>
    </path>
    <path d="M-0.3 -0.65 L-0.2 -0.65 1.45 -1.0 1.75 -0.8 3.65 0.25 3.55 0.55 3.55 0.55 3.45 0.55 3.2 0.4 3.1 0.35 2.6 0.35 2.35 0.35 1.05 0.25 0.95 0.15 0.4 0.45 0.4 0.45 0.3 0.5 0.2 0.6 Q-0.2 0.85 -0.3 0.15 L-0.3 -0.2 Q-0.3 -0.35 -0.3 -0.55 L-0.3 -0.65 Z" fill="none" stroke="#000000" stroke-linecap="round" stroke-linejoin="round" stroke-opacity="0.0" stroke-width="0.0">
      <animate attributeName="stroke" dur="2s" repeatCount="indefinite" values="#000000;#000001"/>
      <animate attributeName="stroke-width" dur="2s" repeatCount="indefinite" values="0.0;0.0"/>
      <animate attributeName="fill-opacity" dur="2s" repeatCount="indefinite" values="0.0;0.0"/>
      <animate attributeName="d" dur="2s" repeatCount="indefinite" values="M-0.3 -0.65 L-0.2 -0.65 1.45 -1.0 1.75 -0.8 3.65 0.25 3.55 0.55 3.55 0.55 3.45 0.55 3.2 0.4 3.1 0.35 2.6 0.35 2.35 0.35 1.05 0.25 0.95 0.15 0.4 0.45 0.4 0.45 0.3 0.5 0.2 0.6 Q-0.2 0.85 -0.3 0.15 L-0.3 -0.2 Q-0.3 -0.35 -0.3 -0.55 L-0.3 -0.65 Z;M-0.5 -0.25 L-0.45 -0.65 6.95 -0.8 8.8 -0.85 18.65 0.3 20.85 0.6 20.75 0.75 20.5 0.9 19.15 0.8 18.55 0.7 16.75 0.55 15.25 0.6 10.1 0.45 9.7 0.45 6.75 0.4 6.75 0.4 6.35 0.25 5.65 0.35 Q4.05 0.5 2.4 0.65 L1.1 0.65 Q-0.45 0.55 -0.5 -0.25 L-0.5 -0.25 Z"/>
    </path>
  </g>
</svg>
