<?xml version="1.0" encoding="UTF-8" standalone="no"?>
<svg xmlns:ffdec="https://www.free-decompiler.com/flash" xmlns:xlink="http://www.w3.org/1999/xlink" ffdec:objectType="shape" height="125.0px" width="79.0px" xmlns="http://www.w3.org/2000/svg">
  <g transform="matrix(1.0, 0.0, 0.0, 1.0, 39.5, 62.5)">
    <path d="M-31.0 -1.5 L-31.0 -62.0 36.5 -62.0 36.5 -1.5 -31.0 -1.5" fill="#66cccc" fill-rule="evenodd" stroke="none"/>
    <path d="M36.5 -1.5 L36.5 62.0 -31.0 62.0 -31.0 -1.5 36.5 -1.5" fill="#ff9933" fill-rule="evenodd" stroke="none"/>
    <path d="M36.5 -1.5 L39.0 -1.5 M-31.0 -1.5 L-31.0 -62.0 36.5 -62.0 36.5 -1.5 36.5 62.0 -31.0 62.0 -31.0 -1.5 -39.0 -1.5 M36.5 -1.5 L-31.0 -1.5" fill="none" stroke="#ffffff" stroke-linecap="round" stroke-linejoin="round" stroke-width="1.0"/>
    <path d="M-4.1 -9.15 L11.25 -9.15 11.25 6.2 -4.1 6.2 -4.1 -9.15 Z" fill="none" stroke="#ffffff" stroke-linecap="round" stroke-linejoin="round" stroke-width="1.0"/>
  </g>
</svg>
