<?xml version="1.0" encoding="UTF-8" standalone="no"?>
<svg xmlns:ffdec="https://www.free-decompiler.com/flash" xmlns:xlink="http://www.w3.org/1999/xlink" ffdec:objectType="shape" height="128.0px" width="128.0px" xmlns="http://www.w3.org/2000/svg">
  <g transform="matrix(1.0, 0.0, 0.0, 1.0, 64.15, 91.45)">
    <path d="M60.65 -20.7 Q61.0 -24.0 61.0 -27.45 61.0 -52.8 43.1 -70.7 25.15 -88.6 -0.15 -88.6 -25.5 -88.6 -43.4 -70.7 -61.35 -52.8 -61.35 -27.45 -61.35 -24.0 -61.0 -20.7 -58.9 0.35 -43.4 15.8 -25.5 33.75 -0.15 33.75 25.15 33.75 43.1 15.8 58.55 0.35 60.65 -20.7 M63.0 -20.45 Q60.8 1.4 44.75 17.45 26.15 36.05 -0.15 36.05 -26.45 36.05 -45.05 17.45 -61.1 1.4 -63.3 -20.45 -63.65 -23.9 -63.65 -27.45 -63.65 -53.75 -45.05 -72.35 -26.45 -90.95 -0.15 -90.95 26.15 -90.95 44.75 -72.35 63.35 -53.75 63.35 -27.45 63.35 -23.9 63.0 -20.45" fill="#000000" fill-rule="evenodd" stroke="none"/>
    <path d="M57.05 -21.1 Q57.4 -24.2 57.4 -27.45 57.4 -51.35 40.55 -68.2 23.7 -85.0 -0.15 -85.0 -23.95 -85.0 -40.85 -68.2 -57.75 -51.35 -57.75 -27.45 -57.75 -24.2 -57.4 -21.1 -55.4 -1.3 -40.85 13.25 -23.95 30.15 -0.15 30.15 23.7 30.15 40.55 13.25 55.1 -1.3 57.05 -21.1 M58.9 -20.9 Q56.85 -0.45 41.85 14.55 24.45 32.0 -0.15 32.0 -24.75 32.0 -42.15 14.55 -57.2 -0.45 -59.25 -20.9 -59.6 -24.1 -59.6 -27.45 -59.6 -52.1 -42.15 -69.5 -24.75 -86.85 -0.15 -86.85 24.45 -86.85 41.85 -69.5 59.25 -52.1 59.25 -27.45 59.25 -24.1 58.9 -20.9" fill="#66cc00" fill-rule="evenodd" stroke="none"/>
    <path d="M53.75 -21.45 Q54.1 -24.4 54.1 -27.45 54.1 -49.95 38.2 -65.85 22.3 -81.65 -0.15 -81.65 -22.6 -81.65 -38.45 -65.85 -54.4 -49.95 -54.4 -27.45 -54.4 -24.4 -54.05 -21.45 -52.2 -2.8 -38.45 10.9 -22.6 26.8 -0.15 26.8 22.3 26.8 38.2 10.9 51.9 -2.8 53.75 -21.45 M55.35 -21.3 Q53.4 -2.05 39.35 12.0 23.0 28.4 -0.15 28.4 -23.25 28.4 -39.6 12.0 -53.75 -2.05 -55.65 -21.3 -56.0 -24.3 -56.0 -27.45 -56.0 -50.6 -39.6 -66.95 -23.25 -83.25 -0.15 -83.25 23.0 -83.25 39.35 -66.95 55.7 -50.6 55.7 -27.45 55.7 -24.3 55.35 -21.3" fill="#336600" fill-rule="evenodd" stroke="none"/>
    <path d="M52.05 -21.65 Q50.25 -3.6 37.0 9.65 21.6 25.05 -0.1 25.05 -21.85 25.05 -37.25 9.65 -50.5 -3.6 -52.35 -21.65 L-52.65 -27.45 Q-52.65 -49.2 -37.25 -64.6 -21.85 -79.9 -0.1 -79.9 21.6 -79.9 37.0 -64.6 52.35 -49.2 52.35 -27.45 L52.05 -21.65" fill="#666600" fill-rule="evenodd" stroke="none"/>
    <path d="M63.0 -20.45 Q60.8 1.4 44.75 17.45 26.15 36.05 -0.15 36.05 -26.45 36.05 -45.05 17.45 -61.1 1.4 -63.3 -20.45 -63.65 -23.9 -63.65 -27.45 -63.65 -53.75 -45.05 -72.35 -26.45 -90.95 -0.15 -90.95 26.15 -90.95 44.75 -72.35 63.35 -53.75 63.35 -27.45 63.35 -23.9 63.0 -20.45 Z" fill="none" stroke="#ffffff" stroke-linecap="round" stroke-linejoin="round" stroke-width="1.0"/>
  </g>
</svg>
