<?xml version="1.0" encoding="UTF-8" standalone="no"?>
<svg xmlns:ffdec="https://www.free-decompiler.com/flash" xmlns:xlink="http://www.w3.org/1999/xlink" ffdec:objectType="shape" height="33.0px" width="25.65px" xmlns="http://www.w3.org/2000/svg">
  <g transform="matrix(1.0, 0.0, 0.0, 1.0, 46.4, 48.2)">
    <path d="M-24.95 -16.5 Q-24.0 -17.35 -24.0 -17.9 L-24.15 -18.35 -24.6 -19.6 -24.85 -20.3 -25.05 -21.05 -24.75 -21.75 Q-24.5 -22.1 -24.5 -22.5 L-24.6 -22.8 -24.1 -23.2 -24.05 -23.25 -23.8 -22.55 -23.8 -22.5 -24.45 -20.5 -24.4 -19.95 -24.1 -20.0 -24.1 -20.35 -23.85 -19.5 Q-23.35 -18.9 -23.35 -17.95 -23.35 -17.2 -24.4 -16.2 -25.35 -15.25 -25.95 -15.25 L-26.15 -15.3 -26.15 -15.4 -26.0 -15.45 Q-24.7 -15.7 -24.7 -16.05 L-24.95 -16.5 M-24.85 -23.3 L-25.1 -23.75 Q-25.7 -25.05 -25.7 -25.6 L-25.7 -25.65 -25.5 -25.65 -25.1 -25.9 -25.15 -25.8 Q-25.15 -25.25 -24.45 -24.05 L-24.3 -23.8 -24.85 -23.3 M-25.65 -25.85 L-25.55 -26.15 -25.15 -26.6 -25.25 -26.4 -25.65 -25.85" fill="url(#gradient0)" fill-rule="evenodd" stroke="none"/>
    <path d="M-41.1 -37.85 L-40.9 -37.75 -40.5 -37.85 -40.15 -37.5 -39.8 -36.8 -39.9 -36.0 -39.7 -35.25 Q-39.4 -34.65 -38.95 -34.65 -38.8 -34.65 -38.5 -34.9 L-38.1 -35.3 Q-37.65 -35.35 -37.65 -35.9 L-37.65 -36.15 -37.5 -36.65 Q-37.4 -37.25 -36.75 -37.35 L-36.7 -37.35 -36.15 -36.95 Q-35.95 -36.95 -35.95 -37.3 L-36.0 -37.45 -35.85 -37.6 Q-35.65 -37.8 -35.65 -38.6 L-35.95 -39.9 -36.25 -41.2 -36.25 -41.65 -35.75 -41.9 Q-34.45 -41.9 -33.05 -39.05 L-32.6 -37.55 -31.95 -36.2 -30.7 -36.2 -30.85 -35.55 -32.15 -35.55 Q-32.95 -36.1 -33.15 -36.95 L-33.55 -38.4 -34.4 -39.75 -35.55 -41.1 Q-34.95 -39.8 -34.95 -38.6 -34.95 -37.65 -35.15 -37.3 -35.3 -36.9 -36.05 -36.7 L-36.9 -36.3 -37.45 -35.0 Q-37.5 -34.65 -38.1 -34.3 -38.65 -33.95 -38.85 -33.95 -39.65 -33.95 -40.2 -34.85 -40.6 -35.5 -40.6 -36.05 L-40.5 -36.75 -41.4 -37.45 -41.4 -34.95 Q-41.4 -34.3 -41.55 -33.9 L-42.0 -32.7 -42.3 -31.6 -43.1 -30.55 -43.15 -30.85 Q-42.75 -30.9 -42.65 -31.1 L-42.6 -31.5 -42.9 -32.3 Q-42.35 -33.55 -42.15 -35.25 L-42.15 -37.5 -42.05 -37.5 Q-41.6 -37.5 -41.1 -37.85 M-43.9 -29.25 Q-44.2 -28.7 -44.65 -28.45 L-45.1 -27.85 -45.3 -27.45 Q-45.7 -27.05 -45.7 -26.35 L-45.15 -23.2 Q-45.05 -22.25 -43.9 -21.65 L-42.15 -21.0 -40.4 -20.3 Q-39.3 -19.7 -37.1 -19.15 L-34.15 -18.3 -31.65 -16.95 -30.85 -16.6 -30.55 -16.4 -30.4 -16.4 -28.0 -15.95 -25.3 -16.4 -25.65 -17.0 -25.5 -17.1 Q-25.2 -17.1 -24.95 -16.55 L-24.95 -16.5 -24.7 -16.05 Q-24.7 -15.7 -26.0 -15.45 L-26.15 -15.4 -27.85 -15.2 Q-29.75 -15.2 -32.1 -16.35 L-34.5 -17.65 -37.9 -18.45 -41.2 -19.95 -44.7 -21.45 Q-45.75 -22.5 -45.8 -23.1 L-46.4 -26.35 -46.15 -27.35 Q-45.8 -27.95 -45.6 -28.7 L-45.2 -29.05 Q-44.8 -29.15 -44.8 -29.2 L-44.4 -29.75 -44.1 -30.3 -43.9 -29.25 M-25.7 -25.65 L-25.8 -25.65 -25.85 -25.7 -25.65 -25.85 -25.25 -26.4 -25.15 -26.6 -25.0 -27.15 -25.0 -27.7 Q-26.6 -27.5 -26.95 -29.4 L-27.3 -30.95 -27.1 -30.95 Q-26.95 -31.15 -26.95 -31.65 -26.95 -32.2 -27.95 -32.7 L-28.0 -32.85 -28.0 -32.95 -27.95 -33.1 -27.95 -33.25 -27.9 -33.8 Q-27.0 -32.7 -26.9 -32.15 L-26.5 -29.95 -26.45 -28.8 Q-26.3 -28.15 -25.05 -28.15 -24.65 -28.15 -24.6 -27.8 L-24.6 -27.4 -24.8 -26.45 -25.1 -25.9 -25.5 -25.65 -25.7 -25.65 M-27.35 -31.15 L-27.45 -31.5 -27.55 -31.9 -27.4 -31.7 -27.35 -31.15 M-29.7 -35.6 L-29.75 -35.6 -29.75 -35.65 -29.7 -35.6" fill="url(#gradient1)" fill-rule="evenodd" stroke="none"/>
    <path d="M-24.6 -22.8 Q-24.8 -22.7 -24.85 -22.7 L-25.25 -23.0 -24.85 -23.3 -24.3 -23.8 -23.85 -24.3 -23.5 -24.25 -22.9 -24.45 -22.85 -24.4 -22.8 -23.85 Q-22.8 -23.35 -23.55 -21.85 L-24.1 -20.35 -24.1 -20.0 -24.4 -19.95 -24.45 -20.5 -23.8 -22.5 -23.3 -23.5 -23.3 -23.95 -24.05 -23.25 -24.1 -23.2 -24.6 -22.8" fill="url(#gradient2)" fill-rule="evenodd" stroke="none"/>
    <path d="M-27.3 -30.95 L-27.35 -30.95 -27.35 -31.15 -27.4 -31.7 -27.55 -31.9 -27.75 -32.05 -27.95 -32.7 Q-26.95 -32.2 -26.95 -31.65 -26.95 -31.15 -27.1 -30.95 L-27.3 -30.95 M-28.6 -31.55 L-28.7 -31.55 Q-29.0 -31.55 -29.2 -32.15 L-29.3 -31.95 Q-29.8 -32.2 -29.8 -32.8 L-29.8 -33.1 -29.75 -33.05 Q-28.65 -32.15 -28.6 -31.55 M-29.75 -35.6 L-29.7 -35.6 -29.7 -35.0 -29.65 -34.4 -29.9 -35.05 -29.75 -35.6 M-28.0 -32.95 L-27.95 -33.25 -27.95 -33.1 -28.0 -32.95" fill="url(#gradient3)" fill-rule="evenodd" stroke="none"/>
    <path d="M-43.1 -30.55 L-42.3 -31.6 -42.0 -32.7 -41.55 -33.9 Q-41.4 -34.3 -41.4 -34.95 L-41.4 -37.45 -40.5 -36.75 -40.6 -36.05 Q-40.6 -35.5 -40.2 -34.85 -39.65 -33.95 -38.85 -33.95 -38.65 -33.95 -38.1 -34.3 -37.5 -34.65 -37.45 -35.0 L-36.9 -36.3 -36.05 -36.7 Q-35.3 -36.9 -35.15 -37.3 -34.95 -37.65 -34.95 -38.6 -34.95 -39.8 -35.55 -41.1 L-34.4 -39.75 -33.55 -38.4 -33.15 -36.95 Q-32.95 -36.1 -32.15 -35.55 L-30.85 -35.55 -30.9 -35.0 Q-30.9 -34.05 -29.8 -33.1 L-29.8 -32.8 Q-29.8 -32.2 -29.3 -31.95 L-29.2 -32.15 Q-29.0 -31.55 -28.7 -31.55 L-28.6 -31.55 -28.6 -31.5 -28.7 -31.3 -28.5 -30.75 -28.15 -30.2 Q-27.95 -30.2 -27.8 -30.85 L-27.7 -31.55 -27.75 -32.05 -27.55 -31.9 -27.45 -31.5 -27.35 -31.15 -27.35 -30.95 -27.3 -30.95 -26.95 -29.4 Q-26.6 -27.5 -25.0 -27.7 L-25.0 -27.15 -25.15 -26.6 -25.55 -26.15 -25.65 -25.85 -25.85 -25.7 -25.8 -25.65 -25.7 -25.65 -25.7 -25.6 Q-25.7 -25.05 -25.1 -23.75 L-24.85 -23.3 -25.25 -23.0 -24.85 -22.7 Q-24.8 -22.7 -24.6 -22.8 L-24.5 -22.5 Q-24.5 -22.1 -24.75 -21.75 L-25.05 -21.05 -24.85 -20.3 -24.6 -19.6 -24.15 -18.35 -24.0 -17.9 Q-24.0 -17.35 -24.95 -16.5 L-24.95 -16.55 Q-25.2 -17.1 -25.5 -17.1 L-25.65 -17.0 -25.3 -16.4 -28.0 -15.95 -30.4 -16.4 -29.85 -17.0 -29.45 -17.75 Q-29.45 -18.65 -30.15 -17.9 L-30.9 -16.75 -30.85 -16.6 -31.65 -16.95 -34.15 -18.3 -37.1 -19.15 Q-39.3 -19.7 -40.4 -20.3 L-42.15 -21.0 -43.9 -21.65 Q-45.05 -22.25 -45.15 -23.2 L-45.7 -26.35 Q-45.7 -27.05 -45.3 -27.45 L-45.1 -27.85 -44.65 -28.45 Q-44.2 -28.7 -43.9 -29.25 L-43.45 -28.75 Q-43.15 -28.75 -43.05 -29.3 L-43.0 -29.85 -43.1 -30.55 M-44.0 -23.35 L-44.0 -23.8 -43.85 -23.95 -43.85 -23.35 -44.0 -23.35 M-44.1 -26.0 Q-44.45 -26.05 -44.8 -24.95 L-45.15 -23.55 Q-45.0 -21.95 -43.85 -21.95 -43.15 -21.95 -42.7 -22.4 -42.2 -22.85 -42.2 -23.7 -42.2 -24.4 -42.8 -25.15 -43.4 -25.9 -44.1 -26.0 M-33.8 -31.55 L-33.6 -30.95 -33.4 -30.45 Q-33.2 -29.35 -32.3 -29.35 -32.05 -29.35 -31.85 -29.6 -31.6 -29.8 -31.6 -30.05 L-32.05 -31.3 Q-32.6 -32.45 -33.15 -32.45 -33.8 -32.45 -33.8 -31.55 M-38.7 -29.6 Q-39.5 -29.6 -39.5 -28.55 -39.5 -27.7 -39.1 -27.0 -38.55 -26.05 -37.65 -26.05 -37.2 -26.05 -36.95 -26.8 L-36.75 -27.7 Q-36.75 -28.3 -37.7 -29.55 -38.65 -30.8 -38.7 -29.6 M-38.6 -28.6 L-38.25 -28.65 -38.2 -28.5 -38.6 -28.45 -38.6 -28.6 M-34.95 -27.3 Q-34.95 -26.75 -34.5 -26.75 -34.0 -26.75 -34.0 -27.5 L-33.9 -27.45 -33.7 -27.2 -33.55 -27.35 Q-34.15 -29.1 -34.6 -28.6 -34.95 -28.15 -34.95 -27.3 M-29.0 -26.2 Q-29.8 -26.9 -31.9 -26.5 -33.85 -26.1 -33.85 -23.25 L-33.4 -21.5 Q-32.7 -19.85 -31.55 -19.85 L-31.05 -19.8 Q-30.75 -19.8 -30.0 -20.65 L-29.0 -21.9 -28.4 -23.1 -28.35 -24.2 Q-28.35 -25.65 -29.0 -26.2 M-31.9 -21.45 L-31.7 -21.5 -31.0 -21.7 -31.2 -21.25 Q-31.35 -20.95 -31.55 -20.95 L-31.8 -21.15 -31.9 -21.45 M-30.05 -24.6 L-30.05 -24.4 -30.15 -24.5 -30.15 -24.6 -30.05 -24.6" fill="url(#gradient4)" fill-rule="evenodd" stroke="none"/>
    <path d="M-31.5 -44.8 Q-31.95 -44.8 -32.4 -45.55 -32.8 -46.2 -32.8 -46.7 -32.8 -47.35 -32.45 -47.05 L-32.0 -46.35 -31.25 -45.1 Q-31.25 -44.8 -31.5 -44.8" fill="url(#gradient5)" fill-rule="evenodd" stroke="none"/>
    <path d="M-26.4 -40.65 L-25.7 -40.5 Q-25.2 -40.5 -25.1 -41.35 L-25.1 -41.3 -25.1 -40.8 Q-25.1 -39.45 -25.85 -39.45 -26.4 -39.45 -26.4 -40.2 L-26.7 -40.2 -26.4 -40.65" fill="url(#gradient6)" fill-rule="evenodd" stroke="none"/>
    <path d="M-22.45 -32.3 Q-23.1 -32.3 -22.95 -33.55 -22.95 -34.95 -22.4 -34.7 -21.9 -34.45 -21.9 -33.7 -21.9 -32.3 -22.45 -32.3" fill="url(#gradient7)" fill-rule="evenodd" stroke="none"/>
    <path d="M-34.15 -42.65 L-34.15 -42.6 -34.15 -42.65 M-34.85 -42.15 L-35.0 -42.4 -35.05 -42.6 -34.8 -42.45 -34.85 -42.15" fill="url(#gradient8)" fill-rule="evenodd" stroke="none"/>
    <path d="M-37.4 -47.35 L-37.7 -47.9 Q-37.7 -48.3 -37.4 -48.15 L-36.95 -47.7 -36.7 -48.1 -36.35 -47.85 -36.35 -47.7 -36.6 -47.75 -36.95 -47.7 -37.4 -47.35" fill="url(#gradient9)" fill-rule="evenodd" stroke="none"/>
    <path d="M-41.4 -46.55 Q-41.4 -45.95 -41.7 -45.95 -42.2 -45.95 -42.1 -46.45 -42.1 -47.1 -41.75 -47.2 -41.4 -47.35 -41.4 -46.55" fill="url(#gradient10)" fill-rule="evenodd" stroke="none"/>
    <path d="M-44.9 -37.85 Q-44.55 -38.0 -44.55 -37.6 -44.55 -36.75 -44.95 -36.75 -45.25 -36.75 -45.3 -37.35 -45.3 -37.75 -44.9 -37.85" fill="url(#gradient11)" fill-rule="evenodd" stroke="none"/>
    <path d="M-23.85 -24.3 Q-24.3 -24.45 -24.3 -25.0 L-24.15 -25.9 -23.15 -27.0 -22.05 -27.95 -21.65 -28.45 Q-21.5 -28.65 -21.1 -28.65 L-20.8 -28.35 -20.75 -28.0 -20.85 -26.9 -21.1 -26.0 -21.8 -25.05 -21.95 -24.55 -22.45 -24.15 -22.85 -24.4 -22.9 -24.45 -23.5 -24.25 -23.85 -24.3" fill="url(#gradient12)" fill-rule="evenodd" stroke="none"/>
    <path d="M-30.85 -35.55 L-30.7 -36.2 Q-30.4 -37.0 -29.4 -36.65 -27.9 -36.15 -27.9 -34.25 L-27.9 -33.8 -27.95 -33.25 -28.0 -32.95 -28.0 -32.85 -27.95 -32.7 -27.75 -32.05 -27.7 -31.55 -27.8 -30.85 Q-27.95 -30.2 -28.15 -30.2 L-28.5 -30.75 -28.7 -31.3 -28.6 -31.5 -28.6 -31.55 Q-28.65 -32.15 -29.75 -33.05 L-29.8 -33.1 Q-30.9 -34.05 -30.9 -35.0 L-30.85 -35.55 M-29.7 -35.6 L-29.75 -35.65 -29.75 -35.6 -29.9 -35.05 -29.65 -34.4 -29.7 -35.0 -29.7 -35.6" fill="url(#gradient13)" fill-rule="evenodd" stroke="none"/>
    <path d="M-31.25 -41.2 Q-30.6 -41.7 -30.6 -40.95 L-30.9 -39.85 Q-30.55 -39.4 -30.55 -39.0 -30.55 -38.7 -31.0 -38.3 L-31.1 -37.85 Q-31.2 -37.6 -31.5 -37.6 L-31.85 -37.85 -31.95 -38.1 -31.7 -39.7 -31.95 -40.3 Q-31.95 -40.75 -31.25 -41.2" fill="url(#gradient14)" fill-rule="evenodd" stroke="none"/>
    <path d="M-36.0 -37.45 L-35.95 -37.3 Q-35.95 -36.95 -36.15 -36.95 L-36.7 -37.35 -37.0 -38.3 Q-37.0 -39.0 -36.6 -39.0 -35.9 -39.0 -35.9 -38.35 L-36.05 -37.6 -36.0 -37.45" fill="url(#gradient15)" fill-rule="evenodd" stroke="none"/>
    <path d="M-37.65 -36.15 L-37.65 -35.9 Q-37.65 -35.35 -38.1 -35.3 L-38.2 -35.3 Q-38.8 -35.3 -38.65 -35.75 -38.65 -36.8 -38.15 -36.65 -37.75 -36.55 -37.65 -36.15" fill="url(#gradient16)" fill-rule="evenodd" stroke="none"/>
    <path d="M-41.1 -37.85 L-41.05 -37.9 Q-40.55 -38.3 -40.55 -38.6 L-40.8 -39.05 -40.5 -39.55 Q-40.25 -39.3 -40.25 -38.65 -40.25 -38.05 -40.5 -37.85 L-40.9 -37.75 -41.1 -37.85" fill="url(#gradient17)" fill-rule="evenodd" stroke="none"/>
    <path d="M-44.1 -30.3 L-44.2 -32.15 Q-44.35 -33.7 -43.65 -33.7 -43.45 -33.7 -43.0 -32.6 L-42.9 -32.3 -42.6 -31.5 -42.65 -31.1 Q-42.75 -30.9 -43.15 -30.85 L-43.1 -30.55 -43.0 -29.85 -43.05 -29.3 Q-43.15 -28.75 -43.45 -28.75 L-43.9 -29.25 -44.1 -30.3" fill="url(#gradient18)" fill-rule="evenodd" stroke="none"/>
    <path d="M-44.1 -26.0 Q-43.4 -25.9 -42.8 -25.15 -42.2 -24.4 -42.2 -23.7 -42.2 -22.85 -42.7 -22.4 -43.15 -21.95 -43.85 -21.95 -45.0 -21.95 -45.15 -23.55 L-44.8 -24.95 Q-44.45 -26.05 -44.1 -26.0 M-44.0 -23.35 L-43.85 -23.35 -43.85 -23.95 -44.0 -23.8 -44.0 -23.35" fill="url(#gradient19)" fill-rule="evenodd" stroke="none"/>
    <path d="M-29.0 -26.2 Q-28.35 -25.65 -28.35 -24.2 L-28.4 -23.1 -29.0 -21.9 -30.0 -20.65 Q-30.75 -19.8 -31.05 -19.8 L-31.55 -19.85 Q-32.7 -19.85 -33.4 -21.5 L-33.85 -23.25 Q-33.85 -26.1 -31.9 -26.5 -29.8 -26.9 -29.0 -26.2 M-30.05 -24.6 L-30.15 -24.6 -30.15 -24.5 -30.05 -24.4 -30.05 -24.6 M-31.9 -21.45 L-31.8 -21.15 -31.55 -20.95 Q-31.35 -20.95 -31.2 -21.25 L-31.0 -21.7 -31.7 -21.5 -31.9 -21.45" fill="url(#gradient20)" fill-rule="evenodd" stroke="none"/>
    <path d="M-30.85 -16.6 L-30.9 -16.75 -30.15 -17.9 Q-29.45 -18.65 -29.45 -17.75 L-29.85 -17.0 -30.4 -16.4 -30.55 -16.4 -30.85 -16.6" fill="url(#gradient21)" fill-rule="evenodd" stroke="none"/>
    <path d="M-38.6 -28.6 L-38.6 -28.45 -38.2 -28.5 -38.25 -28.65 -38.6 -28.6 M-38.7 -29.6 Q-38.65 -30.8 -37.7 -29.55 -36.75 -28.3 -36.75 -27.7 L-36.95 -26.8 Q-37.2 -26.05 -37.65 -26.05 -38.55 -26.05 -39.1 -27.0 -39.5 -27.7 -39.5 -28.55 -39.5 -29.6 -38.7 -29.6" fill="url(#gradient22)" fill-rule="evenodd" stroke="none"/>
    <path d="M-34.95 -27.3 Q-34.95 -28.15 -34.6 -28.6 -34.15 -29.1 -33.55 -27.35 L-33.7 -27.2 -33.9 -27.45 -34.0 -27.5 Q-34.0 -26.75 -34.5 -26.75 -34.95 -26.75 -34.95 -27.3" fill="url(#gradient23)" fill-rule="evenodd" stroke="none"/>
    <path d="M-33.8 -31.55 Q-33.8 -32.45 -33.15 -32.45 -32.6 -32.45 -32.05 -31.3 L-31.6 -30.05 Q-31.6 -29.8 -31.85 -29.6 -32.05 -29.35 -32.3 -29.35 -33.2 -29.35 -33.4 -30.45 L-33.6 -30.95 -33.8 -31.55" fill="url(#gradient24)" fill-rule="evenodd" stroke="none"/>
    <path d="M-36.35 -47.7 Q-35.4 -47.6 -34.85 -46.25 L-34.4 -44.65 -34.55 -43.95 -34.15 -42.8 -34.15 -42.65 -34.15 -42.6 -34.3 -42.3 Q-34.45 -41.85 -34.7 -41.85 L-34.9 -42.1 -34.85 -42.15 -34.8 -42.45 -35.05 -42.6 Q-36.15 -43.25 -36.8 -44.35 -37.5 -45.5 -37.5 -46.55 L-37.45 -47.25 -37.4 -47.35 -36.95 -47.7 -36.6 -47.75 -36.35 -47.7" fill="url(#gradient25)" fill-rule="evenodd" stroke="none"/>
    <path d="M-40.5 -39.55 L-40.8 -39.05 -40.55 -38.6 Q-40.55 -38.3 -41.05 -37.9 L-41.1 -37.85 Q-41.6 -37.5 -42.05 -37.5 L-42.15 -37.5 Q-42.7 -37.6 -42.55 -38.45 L-42.2 -40.65 Q-41.6 -42.7 -40.45 -42.7 -40.0 -42.7 -39.85 -42.35 L-39.8 -41.95 -40.2 -40.35 -40.5 -39.55" fill="url(#gradient26)" fill-rule="evenodd" stroke="none"/>
    <path d="M-25.1 -41.35 Q-25.2 -40.5 -25.7 -40.5 L-26.4 -40.65 Q-27.15 -41.05 -27.2 -42.5 -27.2 -43.55 -26.45 -43.55 -25.65 -43.55 -25.3 -42.7 L-25.1 -41.75 -25.1 -41.35" fill="url(#gradient27)" fill-rule="evenodd" stroke="none"/>
  </g>
  <defs>
    <radialGradient cx="0" cy="0" gradientTransform="matrix(0.0072, 0.0, 0.0, 0.0072, -24.75, -21.05)" gradientUnits="userSpaceOnUse" id="gradient0" r="819.2" spreadMethod="pad">
      <stop offset="0.0" stop-color="#ffffff"/>
      <stop offset="0.3803921568627451" stop-color="#f0d66c"/>
      <stop offset="0.7450980392156863" stop-color="#945b21" stop-opacity="0.5803922"/>
      <stop offset="1.0" stop-color="#26372b" stop-opacity="0.18039216"/>
    </radialGradient>
    <radialGradient cx="0" cy="0" gradientTransform="matrix(0.0203, 0.0, 0.0, 0.0203, -35.5, -28.55)" gradientUnits="userSpaceOnUse" id="gradient1" r="819.2" spreadMethod="pad">
      <stop offset="0.0" stop-color="#ffffff"/>
      <stop offset="0.3803921568627451" stop-color="#f0d66c"/>
      <stop offset="0.7450980392156863" stop-color="#945b21" stop-opacity="0.5803922"/>
      <stop offset="1.0" stop-color="#26372b" stop-opacity="0.18039216"/>
    </radialGradient>
    <radialGradient cx="0" cy="0" gradientTransform="matrix(0.0035, 0.0, 0.0, 0.0035, -24.0, -22.35)" gradientUnits="userSpaceOnUse" id="gradient2" r="819.2" spreadMethod="pad">
      <stop offset="0.0" stop-color="#ffffff"/>
      <stop offset="0.3803921568627451" stop-color="#f0d66c"/>
      <stop offset="0.7450980392156863" stop-color="#945b21" stop-opacity="0.5803922"/>
      <stop offset="1.0" stop-color="#26372b" stop-opacity="0.18039216"/>
    </radialGradient>
    <radialGradient cx="0" cy="0" gradientTransform="matrix(0.0043, 0.0, 0.0, 0.0043, -28.75, -33.65)" gradientUnits="userSpaceOnUse" id="gradient3" r="819.2" spreadMethod="pad">
      <stop offset="0.0" stop-color="#ffffff"/>
      <stop offset="0.3803921568627451" stop-color="#f0d66c"/>
      <stop offset="0.7450980392156863" stop-color="#945b21" stop-opacity="0.5803922"/>
      <stop offset="1.0" stop-color="#26372b" stop-opacity="0.18039216"/>
    </radialGradient>
    <radialGradient cx="0" cy="0" gradientTransform="matrix(0.02, 0.0, 0.0, 0.02, -33.5, -29.75)" gradientUnits="userSpaceOnUse" id="gradient4" r="819.2" spreadMethod="pad">
      <stop offset="0.0" stop-color="#ffffff"/>
      <stop offset="0.3803921568627451" stop-color="#f0d66c"/>
      <stop offset="0.7450980392156863" stop-color="#945b21" stop-opacity="0.5803922"/>
      <stop offset="1.0" stop-color="#26372b" stop-opacity="0.18039216"/>
    </radialGradient>
    <radialGradient cx="0" cy="0" gradientTransform="matrix(0.002, 0.0, 0.0, 0.002, -32.0, -45.95)" gradientUnits="userSpaceOnUse" id="gradient5" r="819.2" spreadMethod="pad">
      <stop offset="0.0" stop-color="#ffffff"/>
      <stop offset="0.3803921568627451" stop-color="#f0d66c"/>
      <stop offset="0.7450980392156863" stop-color="#945b21" stop-opacity="0.5803922"/>
      <stop offset="1.0" stop-color="#26372b" stop-opacity="0.18039216"/>
    </radialGradient>
    <radialGradient cx="0" cy="0" gradientTransform="matrix(0.0023, 0.0, 0.0, 0.0023, -25.9, -40.55)" gradientUnits="userSpaceOnUse" id="gradient6" r="819.2" spreadMethod="pad">
      <stop offset="0.0" stop-color="#ffffff"/>
      <stop offset="0.3803921568627451" stop-color="#f0d66c"/>
      <stop offset="0.7450980392156863" stop-color="#945b21" stop-opacity="0.5803922"/>
      <stop offset="1.0" stop-color="#26372b" stop-opacity="0.18039216"/>
    </radialGradient>
    <radialGradient cx="0" cy="0" gradientTransform="matrix(0.0018, 0.0, 0.0, 0.0018, -22.45, -33.5)" gradientUnits="userSpaceOnUse" id="gradient7" r="819.2" spreadMethod="pad">
      <stop offset="0.0" stop-color="#ffffff"/>
      <stop offset="0.3803921568627451" stop-color="#f0d66c"/>
      <stop offset="0.7450980392156863" stop-color="#945b21" stop-opacity="0.5803922"/>
      <stop offset="1.0" stop-color="#26372b" stop-opacity="0.18039216"/>
    </radialGradient>
    <radialGradient cx="0" cy="0" gradientTransform="matrix(0.0017, 0.0, 0.0, 0.0017, -34.8, -42.85)" gradientUnits="userSpaceOnUse" id="gradient8" r="819.2" spreadMethod="pad">
      <stop offset="0.0" stop-color="#ffffff"/>
      <stop offset="0.3803921568627451" stop-color="#f0d66c"/>
      <stop offset="0.7450980392156863" stop-color="#945b21" stop-opacity="0.5803922"/>
      <stop offset="1.0" stop-color="#26372b" stop-opacity="0.18039216"/>
    </radialGradient>
    <radialGradient cx="0" cy="0" gradientTransform="matrix(0.0017, 0.0, 0.0, 0.0017, -37.0, -47.5)" gradientUnits="userSpaceOnUse" id="gradient9" r="819.2" spreadMethod="pad">
      <stop offset="0.0" stop-color="#ffffff"/>
      <stop offset="0.3803921568627451" stop-color="#f0d66c"/>
      <stop offset="0.7450980392156863" stop-color="#945b21" stop-opacity="0.5803922"/>
      <stop offset="1.0" stop-color="#26372b" stop-opacity="0.18039216"/>
    </radialGradient>
    <radialGradient cx="0" cy="0" gradientTransform="matrix(0.0016, 0.0, 0.0, 0.0016, -41.75, -46.6)" gradientUnits="userSpaceOnUse" id="gradient10" r="819.2" spreadMethod="pad">
      <stop offset="0.0" stop-color="#ffffff"/>
      <stop offset="0.3803921568627451" stop-color="#f0d66c"/>
      <stop offset="0.7450980392156863" stop-color="#945b21" stop-opacity="0.5803922"/>
      <stop offset="1.0" stop-color="#26372b" stop-opacity="0.18039216"/>
    </radialGradient>
    <radialGradient cx="0" cy="0" gradientTransform="matrix(0.0013, 0.0, 0.0, 0.0013, -44.9, -37.3)" gradientUnits="userSpaceOnUse" id="gradient11" r="819.2" spreadMethod="pad">
      <stop offset="0.0" stop-color="#ffffff"/>
      <stop offset="0.3803921568627451" stop-color="#f0d66c"/>
      <stop offset="0.7450980392156863" stop-color="#945b21" stop-opacity="0.5803922"/>
      <stop offset="1.0" stop-color="#26372b" stop-opacity="0.18039216"/>
    </radialGradient>
    <radialGradient cx="0" cy="0" gradientTransform="matrix(0.0035, 0.0, 0.0, 0.0035, -22.5, -26.4)" gradientUnits="userSpaceOnUse" id="gradient12" r="819.2" spreadMethod="pad">
      <stop offset="0.0" stop-color="#ffffff"/>
      <stop offset="0.3803921568627451" stop-color="#f0d66c"/>
      <stop offset="0.7450980392156863" stop-color="#945b21" stop-opacity="0.5803922"/>
      <stop offset="1.0" stop-color="#26372b" stop-opacity="0.18039216"/>
    </radialGradient>
    <radialGradient cx="0" cy="0" gradientTransform="matrix(0.0051, 0.0, 0.0, 0.0051, -29.3, -33.5)" gradientUnits="userSpaceOnUse" id="gradient13" r="819.2" spreadMethod="pad">
      <stop offset="0.0" stop-color="#ffffff"/>
      <stop offset="0.3803921568627451" stop-color="#f0d66c"/>
      <stop offset="0.7450980392156863" stop-color="#945b21" stop-opacity="0.5803922"/>
      <stop offset="1.0" stop-color="#26372b" stop-opacity="0.18039216"/>
    </radialGradient>
    <radialGradient cx="0" cy="0" gradientTransform="matrix(0.0026, 0.0, 0.0, 0.0026, -31.25, -39.5)" gradientUnits="userSpaceOnUse" id="gradient14" r="819.2" spreadMethod="pad">
      <stop offset="0.0" stop-color="#ffffff"/>
      <stop offset="0.3803921568627451" stop-color="#f0d66c"/>
      <stop offset="0.7450980392156863" stop-color="#945b21" stop-opacity="0.5803922"/>
      <stop offset="1.0" stop-color="#26372b" stop-opacity="0.18039216"/>
    </radialGradient>
    <radialGradient cx="0" cy="0" gradientTransform="matrix(0.0023, 0.0, 0.0, 0.0023, -36.45, -37.95)" gradientUnits="userSpaceOnUse" id="gradient15" r="819.2" spreadMethod="pad">
      <stop offset="0.0" stop-color="#ffffff"/>
      <stop offset="0.3803921568627451" stop-color="#f0d66c"/>
      <stop offset="0.7450980392156863" stop-color="#945b21" stop-opacity="0.5803922"/>
      <stop offset="1.0" stop-color="#26372b" stop-opacity="0.18039216"/>
    </radialGradient>
    <radialGradient cx="0" cy="0" gradientTransform="matrix(0.0018, 0.0, 0.0, 0.0018, -38.15, -36.0)" gradientUnits="userSpaceOnUse" id="gradient16" r="819.2" spreadMethod="pad">
      <stop offset="0.0" stop-color="#ffffff"/>
      <stop offset="0.3803921568627451" stop-color="#f0d66c"/>
      <stop offset="0.7450980392156863" stop-color="#945b21" stop-opacity="0.5803922"/>
      <stop offset="1.0" stop-color="#26372b" stop-opacity="0.18039216"/>
    </radialGradient>
    <radialGradient cx="0" cy="0" gradientTransform="matrix(0.0016, 0.0, 0.0, 0.0016, -40.8, -38.75)" gradientUnits="userSpaceOnUse" id="gradient17" r="819.2" spreadMethod="pad">
      <stop offset="0.0" stop-color="#ffffff"/>
      <stop offset="0.3803921568627451" stop-color="#f0d66c"/>
      <stop offset="0.7450980392156863" stop-color="#945b21" stop-opacity="0.5803922"/>
      <stop offset="1.0" stop-color="#26372b" stop-opacity="0.18039216"/>
    </radialGradient>
    <radialGradient cx="0" cy="0" gradientTransform="matrix(0.0037, 0.0, 0.0, 0.0037, -43.4, -31.2)" gradientUnits="userSpaceOnUse" id="gradient18" r="819.2" spreadMethod="pad">
      <stop offset="0.0" stop-color="#ffffff"/>
      <stop offset="0.3803921568627451" stop-color="#f0d66c"/>
      <stop offset="0.7450980392156863" stop-color="#945b21" stop-opacity="0.5803922"/>
      <stop offset="1.0" stop-color="#26372b" stop-opacity="0.18039216"/>
    </radialGradient>
    <radialGradient cx="0" cy="0" gradientTransform="matrix(0.0031, 0.0, 0.0, 0.0031, -43.65, -24.0)" gradientUnits="userSpaceOnUse" id="gradient19" r="819.2" spreadMethod="pad">
      <stop offset="0.0" stop-color="#ffffff"/>
      <stop offset="0.3803921568627451" stop-color="#f0d66c"/>
      <stop offset="0.7450980392156863" stop-color="#945b21" stop-opacity="0.5803922"/>
      <stop offset="1.0" stop-color="#26372b" stop-opacity="0.18039216"/>
    </radialGradient>
    <radialGradient cx="0" cy="0" gradientTransform="matrix(0.0045, 0.0, 0.0, 0.0045, -31.1, -23.2)" gradientUnits="userSpaceOnUse" id="gradient20" r="819.2" spreadMethod="pad">
      <stop offset="0.0" stop-color="#ffffff"/>
      <stop offset="0.3803921568627451" stop-color="#f0d66c"/>
      <stop offset="0.7450980392156863" stop-color="#945b21" stop-opacity="0.5803922"/>
      <stop offset="1.0" stop-color="#26372b" stop-opacity="0.18039216"/>
    </radialGradient>
    <radialGradient cx="0" cy="0" gradientTransform="matrix(0.002, 0.0, 0.0, 0.002, -30.15, -17.3)" gradientUnits="userSpaceOnUse" id="gradient21" r="819.2" spreadMethod="pad">
      <stop offset="0.0" stop-color="#ffffff"/>
      <stop offset="0.3803921568627451" stop-color="#f0d66c"/>
      <stop offset="0.7450980392156863" stop-color="#945b21" stop-opacity="0.5803922"/>
      <stop offset="1.0" stop-color="#26372b" stop-opacity="0.18039216"/>
    </radialGradient>
    <radialGradient cx="0" cy="0" gradientTransform="matrix(0.0035, 0.0, 0.0, 0.0035, -38.1, -28.1)" gradientUnits="userSpaceOnUse" id="gradient22" r="819.2" spreadMethod="pad">
      <stop offset="0.0" stop-color="#ffffff"/>
      <stop offset="0.3803921568627451" stop-color="#f0d66c"/>
      <stop offset="0.7450980392156863" stop-color="#945b21" stop-opacity="0.5803922"/>
      <stop offset="1.0" stop-color="#26372b" stop-opacity="0.18039216"/>
    </radialGradient>
    <radialGradient cx="0" cy="0" gradientTransform="matrix(0.0021, 0.0, 0.0, 0.0021, -34.25, -27.75)" gradientUnits="userSpaceOnUse" id="gradient23" r="819.2" spreadMethod="pad">
      <stop offset="0.0" stop-color="#ffffff"/>
      <stop offset="0.3803921568627451" stop-color="#f0d66c"/>
      <stop offset="0.7450980392156863" stop-color="#945b21" stop-opacity="0.5803922"/>
      <stop offset="1.0" stop-color="#26372b" stop-opacity="0.18039216"/>
    </radialGradient>
    <radialGradient cx="0" cy="0" gradientTransform="matrix(0.0026, 0.0, 0.0, 0.0026, -32.7, -30.9)" gradientUnits="userSpaceOnUse" id="gradient24" r="819.2" spreadMethod="pad">
      <stop offset="0.0" stop-color="#ffffff"/>
      <stop offset="0.3803921568627451" stop-color="#f0d66c"/>
      <stop offset="0.7450980392156863" stop-color="#945b21" stop-opacity="0.5803922"/>
      <stop offset="1.0" stop-color="#26372b" stop-opacity="0.18039216"/>
    </radialGradient>
    <radialGradient cx="0" cy="0" gradientTransform="matrix(0.0045, 0.0, 0.0, 0.0045, -35.8, -44.8)" gradientUnits="userSpaceOnUse" id="gradient25" r="819.2" spreadMethod="pad">
      <stop offset="0.0" stop-color="#ffffff"/>
      <stop offset="0.3803921568627451" stop-color="#f0d66c"/>
      <stop offset="0.7450980392156863" stop-color="#945b21" stop-opacity="0.5803922"/>
      <stop offset="1.0" stop-color="#26372b" stop-opacity="0.18039216"/>
    </radialGradient>
    <radialGradient cx="0" cy="0" gradientTransform="matrix(0.0038, 0.0, 0.0, 0.0038, -41.2, -40.1)" gradientUnits="userSpaceOnUse" id="gradient26" r="819.2" spreadMethod="pad">
      <stop offset="0.0" stop-color="#ffffff"/>
      <stop offset="0.3803921568627451" stop-color="#f0d66c"/>
      <stop offset="0.7450980392156863" stop-color="#945b21" stop-opacity="0.5803922"/>
      <stop offset="1.0" stop-color="#26372b" stop-opacity="0.18039216"/>
    </radialGradient>
    <radialGradient cx="0" cy="0" gradientTransform="matrix(0.002, 0.0, 0.0, 0.002, -26.15, -42.0)" gradientUnits="userSpaceOnUse" id="gradient27" r="819.2" spreadMethod="pad">
      <stop offset="0.0" stop-color="#ffffff"/>
      <stop offset="0.3803921568627451" stop-color="#f0d66c"/>
      <stop offset="0.7450980392156863" stop-color="#945b21" stop-opacity="0.5803922"/>
      <stop offset="1.0" stop-color="#26372b" stop-opacity="0.18039216"/>
    </radialGradient>
  </defs>
</svg>
