<?xml version="1.0" encoding="UTF-8" standalone="no"?>
<svg xmlns:ffdec="https://www.free-decompiler.com/flash" xmlns:xlink="http://www.w3.org/1999/xlink" ffdec:objectType="shape" height="36.45px" width="27.25px" xmlns="http://www.w3.org/2000/svg">
  <g transform="matrix(1.0, 0.0, 0.0, 1.0, 46.95, 50.95)">
    <path d="M-46.35 -28.65 L-46.15 -29.7 -45.35 -30.55 -44.3 -31.2 -43.3 -31.55 Q-42.8 -31.8 -42.8 -32.75 L-42.65 -34.4 -41.85 -37.85 Q-41.85 -38.45 -41.1 -38.45 -40.7 -38.45 -40.2 -37.4 -39.7 -36.25 -39.25 -36.0 L-37.3 -34.85 -36.85 -34.5 -37.55 -34.05 -38.4 -34.4 -38.6 -34.6 -39.45 -34.95 Q-39.55 -36.35 -40.2 -35.55 -40.35 -36.15 -40.7 -35.7 L-41.05 -36.3 -41.45 -34.7 -41.75 -33.2 -41.7 -32.8 -42.4 -31.3 -42.7 -30.6 -43.5 -30.3 Q-45.0 -29.85 -45.3 -29.15 -46.0 -29.0 -46.35 -28.65 M-35.15 -34.8 Q-34.85 -35.4 -35.0 -36.0 L-34.85 -36.75 -34.4 -35.0 -34.4 -34.95 Q-34.65 -34.8 -34.95 -34.8 L-35.15 -34.8 M-35.05 -39.25 L-35.35 -39.9 Q-36.0 -41.0 -36.0 -42.35 -36.0 -44.35 -35.15 -44.0 -34.35 -43.65 -34.35 -41.5 -34.35 -40.8 -32.95 -39.2 -31.35 -37.4 -30.9 -35.95 -30.55 -36.3 -30.5 -37.15 -30.2 -37.75 -28.35 -37.75 -26.95 -37.75 -26.8 -35.45 L-26.9 -32.6 Q-26.75 -31.7 -25.5 -30.05 L-25.45 -30.0 -25.7 -29.5 -25.45 -28.7 -25.15 -27.85 -24.8 -26.95 -24.6 -26.55 -24.65 -26.45 -24.75 -26.8 -24.85 -26.8 -25.1 -25.55 -25.45 -24.95 -25.45 -24.9 -25.5 -24.85 -25.75 -25.1 -25.9 -25.05 -25.9 -25.65 -25.95 -26.0 -25.75 -26.35 Q-25.25 -27.25 -25.25 -27.65 -25.25 -28.2 -25.9 -29.25 L-26.2 -29.7 -26.6 -30.25 -26.65 -30.15 -27.05 -30.3 Q-27.8 -30.3 -27.7 -33.5 -27.65 -36.75 -28.6 -36.75 L-29.9 -36.7 -29.85 -36.45 -30.35 -35.75 -30.45 -35.3 -30.5 -35.25 -30.8 -35.6 -32.3 -37.35 -32.95 -38.45 -33.7 -38.9 -33.85 -39.1 -33.8 -38.95 -34.45 -39.4 -35.05 -39.25 M-23.85 -23.2 L-23.4 -22.55 Q-23.4 -22.1 -23.7 -21.35 L-23.95 -21.7 -23.9 -22.6 -23.85 -23.2 M-23.8 -17.9 L-23.8 -17.7 Q-23.8 -16.95 -24.4 -15.95 -25.25 -14.5 -26.85 -14.5 L-31.1 -15.1 -37.0 -16.35 -39.25 -17.65 -41.15 -19.0 -42.7 -19.55 -44.25 -20.25 Q-44.8 -20.7 -45.05 -21.65 -45.5 -23.3 -46.3 -23.4 -46.9 -23.55 -46.9 -24.3 L-46.85 -24.7 Q-46.6 -23.4 -45.6 -23.4 L-44.65 -23.5 -44.55 -23.3 -44.05 -21.85 Q-43.65 -20.9 -42.0 -20.25 L-39.9 -19.55 Q-36.9 -17.65 -35.0 -17.4 L-30.75 -16.5 Q-30.55 -16.25 -30.1 -16.25 L-29.85 -16.3 Q-27.8 -15.8 -27.5 -15.55 L-26.25 -15.55 -24.9 -16.85 Q-24.3 -17.1 -23.8 -17.9 M-36.95 -33.15 L-37.25 -33.7 -36.85 -33.5 -35.45 -33.3 -34.95 -33.3 Q-35.3 -32.95 -35.8 -32.95 L-36.95 -33.15 M-24.8 -18.9 L-24.85 -19.05 -24.9 -19.3 -24.65 -19.25 -24.8 -18.9 M-25.15 -23.3 L-25.15 -23.25 -25.15 -23.3" fill="url(#gradient0)" fill-rule="evenodd" stroke="none"/>
    <path d="M-19.75 -28.6 Q-19.85 -28.0 -20.65 -28.0 -21.7 -28.0 -22.15 -28.8 L-22.4 -29.6 -22.15 -30.45 -21.9 -31.2 -22.4 -32.25 -22.9 -33.55 Q-22.9 -34.95 -21.8 -34.45 -20.75 -33.95 -20.55 -32.65 L-19.95 -30.8 -19.75 -29.5 -19.75 -28.6 M-20.7 -30.95 Q-21.05 -31.7 -21.55 -31.5 L-21.7 -30.6 -21.85 -29.85 Q-21.95 -29.25 -21.15 -29.25 -20.5 -29.25 -20.5 -29.95 L-20.7 -30.95" fill="url(#gradient1)" fill-rule="evenodd" stroke="none"/>
    <path d="M-20.7 -30.95 L-20.5 -29.95 Q-20.5 -29.25 -21.15 -29.25 -21.95 -29.25 -21.85 -29.85 L-21.7 -30.6 -21.55 -31.5 Q-21.05 -31.7 -20.7 -30.95" fill="url(#gradient2)" fill-rule="evenodd" stroke="none"/>
    <path d="M-25.85 -41.2 Q-25.15 -41.05 -25.15 -39.35 L-25.5 -38.8 Q-24.85 -38.25 -24.85 -37.9 -24.85 -37.2 -25.5 -37.0 L-25.9 -37.05 -25.8 -37.6 -26.55 -39.75 Q-26.55 -41.35 -25.85 -41.2" fill="url(#gradient3)" fill-rule="evenodd" stroke="none"/>
    <path d="M-30.5 -42.2 L-30.5 -42.35 -30.4 -43.75 -29.9 -43.8 -29.4 -43.55 -29.3 -43.25 -29.45 -42.5 Q-29.6 -41.95 -29.85 -41.8 L-30.35 -42.15 -30.5 -42.2" fill="url(#gradient4)" fill-rule="evenodd" stroke="none"/>
    <path d="M-29.85 -41.8 Q-29.55 -41.5 -29.55 -40.85 -29.55 -40.45 -30.25 -40.0 L-31.0 -40.7 -31.2 -41.25 Q-31.2 -42.3 -30.5 -42.2 L-30.35 -42.15 -29.85 -41.8" fill="url(#gradient5)" fill-rule="evenodd" stroke="none"/>
    <path d="M-32.75 -40.45 L-33.1 -40.15 Q-33.55 -40.15 -33.65 -40.9 -33.65 -41.45 -33.1 -41.5 -32.55 -41.55 -32.55 -40.95 L-32.75 -40.45" fill="url(#gradient6)" fill-rule="evenodd" stroke="none"/>
    <path d="M-35.15 -37.75 Q-35.2 -36.95 -36.05 -36.95 -37.0 -36.95 -37.35 -38.05 L-37.5 -39.0 Q-37.5 -40.35 -36.65 -40.1 -35.8 -39.9 -36.05 -38.7 L-35.35 -38.35 -35.15 -37.75" fill="url(#gradient7)" fill-rule="evenodd" stroke="none"/>
    <path d="M-38.0 -37.85 Q-37.4 -37.85 -37.4 -37.2 -37.4 -36.3 -37.9 -36.3 -38.6 -36.3 -38.65 -37.2 -38.65 -37.85 -38.0 -37.85" fill="url(#gradient8)" fill-rule="evenodd" stroke="none"/>
    <path d="M-41.05 -40.4 L-40.8 -40.7 -41.4 -41.25 -41.5 -41.55 Q-41.5 -42.45 -40.8 -42.3 -40.1 -42.15 -40.1 -41.3 L-40.25 -40.15 -40.5 -40.05 -41.0 -40.15 -41.05 -40.4" fill="url(#gradient9)" fill-rule="evenodd" stroke="none"/>
    <path d="M-43.15 -34.8 L-43.15 -33.9 Q-43.2 -33.15 -43.65 -33.15 -44.35 -33.15 -44.6 -34.1 -44.6 -36.15 -43.85 -36.45 -43.15 -36.75 -43.15 -34.8" fill="url(#gradient10)" fill-rule="evenodd" stroke="none"/>
    <path d="M-45.3 -29.15 Q-45.0 -29.85 -43.5 -30.3 L-42.7 -30.6 -43.1 -29.25 -44.0 -29.3 -45.3 -29.15 M-41.7 -32.8 L-41.75 -33.2 -41.45 -34.7 -41.05 -36.3 -40.7 -35.7 -40.85 -35.55 Q-41.3 -34.85 -41.5 -33.4 L-41.7 -32.8 M-39.45 -34.95 L-38.6 -34.6 -38.4 -34.4 -39.05 -34.3 -39.4 -34.15 -39.4 -34.35 -39.45 -34.7 -39.45 -34.95 M-39.25 -27.35 Q-38.35 -25.55 -37.55 -25.55 -37.0 -25.55 -36.5 -26.3 L-36.05 -27.2 -35.1 -25.4 -34.2 -23.05 -35.1 -21.9 Q-34.75 -21.55 -34.15 -21.55 -33.6 -21.55 -33.15 -21.85 L-32.15 -21.55 -31.45 -21.7 Q-30.9 -21.9 -30.9 -22.25 L-30.9 -22.8 -30.7 -22.9 -30.6 -20.5 -30.35 -19.2 -30.55 -18.65 -31.0 -17.25 -30.75 -16.5 -35.0 -17.4 Q-36.9 -17.65 -39.9 -19.55 L-42.0 -20.25 Q-43.65 -20.9 -44.05 -21.85 L-44.55 -23.3 -44.65 -23.5 -43.15 -24.3 -42.95 -23.15 Q-42.85 -22.6 -41.65 -21.4 -40.35 -20.1 -39.5 -20.1 L-38.8 -20.5 -38.6 -21.05 Q-38.6 -21.55 -39.45 -22.05 L-40.25 -22.6 Q-39.5 -22.65 -39.5 -23.25 L-39.7 -23.8 -39.85 -24.15 -39.75 -24.5 Q-39.3 -26.05 -39.25 -27.35 M-36.35 -28.4 Q-36.65 -28.8 -36.65 -29.9 L-36.7 -32.4 -36.95 -33.15 -35.8 -32.95 Q-35.3 -32.95 -34.95 -33.3 L-34.8 -33.35 -35.0 -32.85 -35.35 -32.0 -35.8 -31.65 Q-36.15 -31.3 -36.35 -28.55 L-36.35 -28.4 M-41.2 -28.65 L-41.2 -28.2 -41.15 -25.9 -41.35 -25.05 -41.4 -25.2 -41.55 -26.4 -41.2 -28.65 M-43.8 -27.2 Q-43.65 -26.1 -44.15 -25.8 L-44.15 -26.5 -43.8 -27.2 M-45.05 -27.75 L-45.0 -27.8 -45.1 -27.3 -45.3 -27.0 -45.05 -27.75 M-33.75 -38.9 L-33.8 -38.95 -33.85 -39.1 -33.7 -38.9 -33.75 -38.9 M-30.5 -35.25 L-30.45 -35.3 -30.45 -35.2 -30.5 -35.25 M-29.85 -36.45 L-29.9 -36.7 -28.6 -36.75 Q-27.65 -36.75 -27.7 -33.5 -27.8 -30.3 -27.05 -30.3 L-26.65 -30.15 Q-27.9 -28.5 -27.9 -27.25 L-27.6 -26.35 -27.3 -25.5 -27.2 -23.6 -25.75 -21.8 -25.25 -21.15 -25.3 -20.5 Q-25.35 -19.5 -24.9 -19.3 L-24.85 -19.05 -24.8 -18.9 -25.2 -18.35 -25.9 -17.35 Q-25.95 -16.8 -25.35 -16.8 L-24.9 -16.85 -26.25 -15.55 -27.5 -15.55 Q-27.8 -15.8 -29.85 -16.3 -29.05 -16.6 -28.45 -18.9 -28.05 -20.2 -27.9 -21.65 -27.9 -23.8 -28.5 -26.2 -28.9 -27.9 -29.5 -28.95 L-29.45 -29.15 -29.15 -30.3 Q-28.35 -30.7 -28.05 -31.5 -27.9 -31.85 -27.9 -33.1 L-28.0 -34.45 Q-28.25 -35.2 -29.35 -35.05 -29.6 -36.45 -29.85 -36.45 M-26.2 -29.7 L-25.9 -29.25 Q-25.25 -28.2 -25.25 -27.65 -25.25 -27.25 -25.75 -26.35 L-25.95 -26.0 -26.4 -26.9 -26.85 -27.65 -26.5 -28.5 -26.2 -29.45 -26.2 -29.7 M-38.25 -29.9 L-38.05 -29.9 -38.05 -29.35 -38.1 -29.3 -38.15 -29.3 -38.25 -29.9 M-33.0 -25.35 L-33.2 -25.55 -32.95 -25.9 -32.95 -25.55 -33.0 -25.35 M-29.15 -32.95 L-29.15 -33.0 -29.05 -32.3 -29.15 -32.95 M-31.8 -22.8 L-31.3 -22.75 -31.25 -22.75 -31.4 -22.35 -31.8 -22.8" fill="url(#gradient11)" fill-rule="evenodd" stroke="none"/>
    <path d="M-40.2 -35.55 Q-39.55 -36.35 -39.45 -34.95 L-39.45 -34.7 Q-39.6 -35.1 -40.1 -35.0 L-40.2 -35.55" fill="url(#gradient12)" fill-rule="evenodd" stroke="none"/>
    <path d="M-40.7 -35.7 Q-40.35 -36.15 -40.2 -35.55 L-40.1 -35.0 -40.2 -35.0 Q-41.0 -34.9 -41.4 -33.75 L-41.5 -33.4 Q-41.3 -34.85 -40.85 -35.55 L-40.7 -35.7" fill="url(#gradient13)" fill-rule="evenodd" stroke="none"/>
    <path d="M-40.55 -31.15 L-40.55 -31.1 -40.55 -31.15 M-40.35 -30.4 L-40.1 -29.65 -40.2 -29.5 -40.5 -26.3 -41.05 -23.55 -41.35 -25.05 -41.15 -25.9 -41.2 -28.2 -41.2 -28.65 -41.05 -29.4 -40.8 -30.3 -40.8 -30.25 -40.75 -30.1 -40.7 -30.1 -40.5 -30.15 -40.35 -30.4 M-40.25 -22.6 L-40.3 -22.7 -39.85 -24.15 -39.7 -23.8 -39.5 -23.25 Q-39.5 -22.65 -40.25 -22.6" fill="url(#gradient14)" fill-rule="evenodd" stroke="none"/>
    <path d="M-42.7 -30.6 L-42.4 -31.3 -41.7 -32.8 -41.5 -33.4 -41.4 -33.75 Q-41.0 -34.9 -40.2 -35.0 L-40.1 -35.0 Q-39.6 -35.1 -39.45 -34.7 L-39.4 -34.35 -39.4 -34.15 Q-40.65 -33.55 -40.65 -31.6 L-40.55 -31.15 -40.55 -31.1 -40.55 -31.15 -40.35 -30.4 -40.5 -30.15 -40.7 -30.1 -40.75 -30.1 -40.8 -30.25 -40.8 -30.3 -41.05 -29.4 -41.2 -28.65 -41.55 -26.4 -41.4 -25.2 -41.35 -25.05 -41.05 -23.55 -40.5 -26.3 -40.2 -29.5 -40.1 -29.65 -39.75 -28.55 -39.25 -27.35 Q-39.3 -26.05 -39.75 -24.5 L-39.85 -24.15 -40.3 -22.7 -40.25 -22.6 -39.45 -22.05 Q-38.6 -21.55 -38.6 -21.05 L-38.8 -20.5 -39.5 -20.1 Q-40.35 -20.1 -41.65 -21.4 -42.85 -22.6 -42.95 -23.15 L-43.15 -24.3 -42.65 -25.15 Q-42.2 -26.05 -42.2 -27.3 -42.2 -28.65 -42.4 -28.9 -42.55 -29.15 -43.1 -29.25 L-42.7 -30.6" fill="url(#gradient15)" fill-rule="evenodd" stroke="none"/>
    <path d="M-36.85 -34.5 L-35.6 -35.05 -35.15 -34.8 -34.95 -34.8 Q-34.65 -34.8 -34.4 -34.95 L-34.55 -34.0 -34.8 -33.35 -34.95 -33.3 -35.45 -33.3 -36.85 -33.5 -37.25 -33.7 -37.55 -34.05 -36.85 -34.5 M-33.75 -38.9 L-33.7 -38.9 -32.95 -38.45 -32.3 -37.35 -33.75 -38.9" fill="url(#gradient16)" fill-rule="evenodd" stroke="none"/>
    <path d="M-30.35 -19.2 L-30.6 -20.5 -30.7 -22.9 -30.35 -23.15 -30.1 -21.15 -30.35 -19.2 M-30.45 -35.3 L-30.35 -35.75 -29.85 -36.45 Q-29.6 -36.45 -29.35 -35.05 -28.25 -35.2 -28.0 -34.45 L-27.9 -33.1 Q-27.9 -31.85 -28.05 -31.5 -28.35 -30.7 -29.15 -30.3 L-29.05 -31.6 -29.05 -32.3 -29.15 -33.0 -29.15 -32.95 -29.3 -33.45 -30.45 -35.2 -30.45 -35.3" fill="url(#gradient17)" fill-rule="evenodd" stroke="none"/>
    <path d="M-30.75 -16.5 L-31.0 -17.25 -30.55 -18.65 -30.35 -19.2 -30.1 -21.15 -30.35 -23.15 -29.6 -24.05 Q-28.75 -25.2 -28.75 -25.75 L-28.8 -26.05 Q-28.9 -26.4 -29.45 -26.4 L-30.25 -26.1 Q-30.25 -26.9 -30.5 -27.35 -29.9 -27.85 -29.5 -28.95 -28.9 -27.9 -28.5 -26.2 -27.9 -23.8 -27.9 -21.65 -28.05 -20.2 -28.45 -18.9 -29.05 -16.6 -29.85 -16.3 L-30.1 -16.25 Q-30.55 -16.25 -30.75 -16.5" fill="url(#gradient18)" fill-rule="evenodd" stroke="none"/>
    <path d="M-30.9 -22.8 L-30.9 -22.25 Q-30.9 -21.9 -31.45 -21.7 L-32.15 -21.55 -33.15 -21.85 Q-32.65 -22.2 -32.25 -22.9 L-31.8 -22.8 -31.4 -22.35 -31.25 -22.75 -30.9 -22.8 M-34.2 -23.05 L-35.1 -25.4 -34.9 -25.15 -33.75 -23.8 -34.2 -23.05 M-34.85 -32.2 L-35.35 -32.0 -35.0 -32.85 -34.8 -33.35 -34.55 -34.0 -34.6 -33.85 -34.85 -32.2 M-34.75 -30.6 Q-34.6 -30.45 -34.6 -30.05 L-34.8 -29.5 -34.8 -30.4 -34.75 -30.55 -34.75 -30.6" fill="url(#gradient19)" fill-rule="evenodd" stroke="none"/>
    <path d="M-33.15 -21.85 Q-33.6 -21.55 -34.15 -21.55 -34.75 -21.55 -35.1 -21.9 L-34.2 -23.05 -33.75 -23.8 Q-33.0 -23.15 -32.25 -22.9 -32.65 -22.2 -33.15 -21.85 M-32.95 -25.55 L-33.0 -25.35 -32.95 -25.55" fill="url(#gradient20)" fill-rule="evenodd" stroke="none"/>
    <path d="M-23.7 -21.35 Q-23.15 -20.5 -23.15 -19.9 -23.15 -19.3 -23.65 -18.25 L-23.8 -17.9 Q-24.3 -17.1 -24.9 -16.85 L-25.35 -16.8 Q-25.95 -16.8 -25.9 -17.35 L-25.2 -18.35 -24.8 -18.9 -24.65 -19.25 Q-24.35 -19.25 -24.1 -20.7 L-23.95 -21.7 -23.7 -21.35 M-26.65 -30.15 L-26.6 -30.25 -26.2 -29.7 -26.2 -29.45 -26.5 -28.5 -26.85 -27.65 -26.4 -26.9 -25.95 -26.0 -25.9 -25.65 -25.9 -25.05 -26.0 -24.95 -25.95 -24.0 Q-25.8 -23.3 -25.15 -23.3 L-25.15 -23.25 -25.25 -21.15 -25.75 -21.8 -27.2 -23.6 -27.3 -25.5 -27.6 -26.35 -27.9 -27.25 Q-27.9 -28.5 -26.65 -30.15" fill="url(#gradient21)" fill-rule="evenodd" stroke="none"/>
    <path d="M-25.45 -30.0 L-25.05 -30.3 Q-24.4 -30.75 -24.4 -31.25 L-24.9 -31.7 -24.9 -31.9 -24.25 -31.9 Q-23.55 -31.9 -23.25 -31.4 L-23.05 -30.8 Q-23.05 -30.1 -24.25 -29.15 L-23.3 -27.45 -23.25 -26.2 Q-23.25 -25.5 -23.55 -24.4 L-23.85 -23.2 -23.9 -22.6 -23.95 -21.7 -24.1 -20.7 Q-24.35 -19.25 -24.65 -19.25 L-24.9 -19.3 Q-25.35 -19.5 -25.3 -20.5 L-25.25 -21.15 -25.15 -23.25 -25.15 -23.3 Q-24.45 -23.3 -24.45 -24.75 L-24.5 -25.8 -24.5 -26.0 -24.6 -26.55 -24.8 -26.95 -25.15 -27.85 -25.45 -28.7 -25.7 -29.5 -25.45 -30.0" fill="url(#gradient22)" fill-rule="evenodd" stroke="none"/>
    <path d="M-25.9 -25.05 L-25.75 -25.1 -25.5 -24.85 -25.45 -24.9 -25.1 -25.55 -24.85 -26.8 -24.75 -26.8 -24.65 -26.45 -24.5 -25.8 -24.45 -24.75 Q-24.45 -23.3 -25.15 -23.3 -25.8 -23.3 -25.95 -24.0 L-26.0 -24.95 -25.9 -25.05" fill="url(#gradient23)" fill-rule="evenodd" stroke="none"/>
    <path d="M-23.25 -37.2 L-23.4 -36.5 -23.75 -37.05 -23.5 -37.6 -23.25 -37.2" fill="url(#gradient24)" fill-rule="evenodd" stroke="none"/>
    <path d="M-31.65 -50.05 L-32.0 -49.75 -32.4 -49.9 -32.4 -50.75 -31.8 -50.9 -31.5 -50.55 -31.65 -50.05" fill="url(#gradient25)" fill-rule="evenodd" stroke="none"/>
    <path d="M-38.4 -34.4 L-37.55 -34.05 -37.25 -33.7 -36.95 -33.15 -36.7 -32.4 -36.65 -29.9 Q-36.65 -28.8 -36.35 -28.4 L-36.05 -27.2 -36.5 -26.3 Q-37.0 -25.55 -37.55 -25.55 -38.35 -25.55 -39.25 -27.35 L-39.75 -28.55 -40.1 -29.65 -40.35 -30.4 -40.55 -31.15 -40.65 -31.6 Q-40.65 -33.55 -39.4 -34.15 L-39.05 -34.3 -38.4 -34.4 M-38.25 -29.9 L-38.15 -29.3 -38.1 -29.3 -38.05 -29.35 -38.05 -29.9 -38.25 -29.9" fill="url(#gradient26)" fill-rule="evenodd" stroke="none"/>
    <path d="M-46.85 -24.7 L-46.9 -24.8 -46.9 -26.2 -46.8 -28.1 -46.35 -28.65 Q-46.0 -29.0 -45.3 -29.15 L-44.0 -29.3 -43.1 -29.25 Q-42.55 -29.15 -42.4 -28.9 -42.2 -28.65 -42.2 -27.3 -42.2 -26.05 -42.65 -25.15 L-43.15 -24.3 -44.65 -23.5 -45.6 -23.4 Q-46.6 -23.4 -46.85 -24.7 M-45.05 -27.75 L-45.3 -27.0 -45.1 -27.3 -45.0 -27.8 -45.05 -27.75 M-43.8 -27.2 L-44.15 -26.5 -44.15 -25.8 Q-43.65 -26.1 -43.8 -27.2" fill="url(#gradient27)" fill-rule="evenodd" stroke="none"/>
    <path d="M-34.85 -36.75 L-35.15 -37.75 -35.35 -38.35 -35.4 -38.55 Q-35.4 -39.05 -35.05 -39.25 L-34.45 -39.4 -33.8 -38.95 -33.75 -38.9 -32.3 -37.35 -30.8 -35.6 -30.5 -35.25 -30.45 -35.2 -29.3 -33.45 -29.15 -32.95 -29.05 -32.3 -29.05 -31.6 -29.15 -30.3 -29.45 -29.15 -29.5 -28.95 Q-29.9 -27.85 -30.5 -27.35 -30.85 -27.95 -31.6 -27.95 L-32.5 -27.65 -32.5 -27.7 -32.5 -28.65 Q-32.65 -29.25 -33.4 -29.3 L-33.4 -29.9 Q-33.25 -30.75 -33.8 -31.65 -34.2 -32.35 -34.85 -32.2 L-34.6 -33.85 -34.55 -34.0 -34.4 -34.95 -34.4 -35.0 -34.85 -36.75" fill="url(#gradient28)" fill-rule="evenodd" stroke="none"/>
    <path d="M-36.05 -27.2 L-36.35 -28.4 -36.35 -28.55 Q-36.15 -31.3 -35.8 -31.65 L-35.35 -32.0 -34.85 -32.2 Q-34.2 -32.35 -33.8 -31.65 -33.25 -30.75 -33.4 -29.9 L-33.4 -29.3 Q-32.65 -29.25 -32.5 -28.65 L-32.5 -27.7 -32.5 -27.65 -31.6 -27.95 Q-30.85 -27.95 -30.5 -27.35 -30.25 -26.9 -30.25 -26.1 L-29.45 -26.4 Q-28.9 -26.4 -28.8 -26.05 L-28.75 -25.75 Q-28.75 -25.2 -29.6 -24.05 L-30.35 -23.15 -30.7 -22.9 -30.9 -22.8 -31.25 -22.75 -31.3 -22.75 -31.8 -22.8 -32.25 -22.9 Q-33.0 -23.15 -33.75 -23.8 L-34.9 -25.15 -35.1 -25.4 -36.05 -27.2 M-34.75 -30.6 L-34.75 -30.55 -34.8 -30.4 -34.8 -29.5 -34.6 -30.05 Q-34.6 -30.45 -34.75 -30.6 M-32.95 -25.55 L-32.95 -25.9 -33.2 -25.55 -33.0 -25.35 -32.95 -25.55" fill="url(#gradient29)" fill-rule="evenodd" stroke="none"/>
    <path d="M-36.8 -47.25 L-37.65 -47.7 -37.95 -47.75 -38.25 -48.0 -38.45 -49.0 Q-38.45 -50.25 -37.4 -49.25 -36.35 -48.3 -36.35 -47.75 -36.35 -47.25 -36.8 -47.25" fill="url(#gradient30)" fill-rule="evenodd" stroke="none"/>
  </g>
  <defs>
    <radialGradient cx="0" cy="0" gradientTransform="matrix(0.0213, 0.0, 0.0, 0.0213, -35.15, -29.3)" gradientUnits="userSpaceOnUse" id="gradient0" r="819.2" spreadMethod="pad">
      <stop offset="0.0" stop-color="#ffffff"/>
      <stop offset="0.3803921568627451" stop-color="#f0d66c"/>
      <stop offset="0.7450980392156863" stop-color="#945b21" stop-opacity="0.5803922"/>
      <stop offset="1.0" stop-color="#26372b" stop-opacity="0.18039216"/>
    </radialGradient>
    <radialGradient cx="0" cy="0" gradientTransform="matrix(0.0051, 0.0, 0.0, 0.0051, -21.3, -31.3)" gradientUnits="userSpaceOnUse" id="gradient1" r="819.2" spreadMethod="pad">
      <stop offset="0.0" stop-color="#ffffff"/>
      <stop offset="0.3803921568627451" stop-color="#f0d66c"/>
      <stop offset="0.7450980392156863" stop-color="#945b21" stop-opacity="0.5803922"/>
      <stop offset="1.0" stop-color="#26372b" stop-opacity="0.18039216"/>
    </radialGradient>
    <radialGradient cx="0" cy="0" gradientTransform="matrix(0.0024, 0.0, 0.0, 0.0024, -21.2, -30.4)" gradientUnits="userSpaceOnUse" id="gradient2" r="819.2" spreadMethod="pad">
      <stop offset="0.0" stop-color="#ffffff"/>
      <stop offset="0.3803921568627451" stop-color="#f0d66c"/>
      <stop offset="0.7450980392156863" stop-color="#945b21" stop-opacity="0.5803922"/>
      <stop offset="1.0" stop-color="#26372b" stop-opacity="0.18039216"/>
    </radialGradient>
    <radialGradient cx="0" cy="0" gradientTransform="matrix(0.0034, 0.0, 0.0, 0.0034, -25.7, -39.1)" gradientUnits="userSpaceOnUse" id="gradient3" r="819.2" spreadMethod="pad">
      <stop offset="0.0" stop-color="#ffffff"/>
      <stop offset="0.3803921568627451" stop-color="#f0d66c"/>
      <stop offset="0.7450980392156863" stop-color="#945b21" stop-opacity="0.5803922"/>
      <stop offset="1.0" stop-color="#26372b" stop-opacity="0.18039216"/>
    </radialGradient>
    <radialGradient cx="0" cy="0" gradientTransform="matrix(0.0021, 0.0, 0.0, 0.0021, -29.9, -42.8)" gradientUnits="userSpaceOnUse" id="gradient4" r="819.2" spreadMethod="pad">
      <stop offset="0.0" stop-color="#ffffff"/>
      <stop offset="0.3803921568627451" stop-color="#f0d66c"/>
      <stop offset="0.7450980392156863" stop-color="#945b21" stop-opacity="0.5803922"/>
      <stop offset="1.0" stop-color="#26372b" stop-opacity="0.18039216"/>
    </radialGradient>
    <radialGradient cx="0" cy="0" gradientTransform="matrix(0.002, 0.0, 0.0, 0.002, -30.35, -41.1)" gradientUnits="userSpaceOnUse" id="gradient5" r="819.2" spreadMethod="pad">
      <stop offset="0.0" stop-color="#ffffff"/>
      <stop offset="0.3803921568627451" stop-color="#f0d66c"/>
      <stop offset="0.7450980392156863" stop-color="#945b21" stop-opacity="0.5803922"/>
      <stop offset="1.0" stop-color="#26372b" stop-opacity="0.18039216"/>
    </radialGradient>
    <radialGradient cx="0" cy="0" gradientTransform="matrix(0.0016, 0.0, 0.0, 0.0016, -33.1, -40.85)" gradientUnits="userSpaceOnUse" id="gradient6" r="819.2" spreadMethod="pad">
      <stop offset="0.0" stop-color="#ffffff"/>
      <stop offset="0.3803921568627451" stop-color="#f0d66c"/>
      <stop offset="0.7450980392156863" stop-color="#945b21" stop-opacity="0.5803922"/>
      <stop offset="1.0" stop-color="#26372b" stop-opacity="0.18039216"/>
    </radialGradient>
    <radialGradient cx="0" cy="0" gradientTransform="matrix(0.0021, 0.0, 0.0, 0.0021, -36.3, -38.55)" gradientUnits="userSpaceOnUse" id="gradient7" r="819.2" spreadMethod="pad">
      <stop offset="0.0" stop-color="#ffffff"/>
      <stop offset="0.3803921568627451" stop-color="#f0d66c"/>
      <stop offset="0.7450980392156863" stop-color="#945b21" stop-opacity="0.5803922"/>
      <stop offset="1.0" stop-color="#26372b" stop-opacity="0.18039216"/>
    </radialGradient>
    <radialGradient cx="0" cy="0" gradientTransform="matrix(0.002, 0.0, 0.0, 0.002, -38.0, -37.05)" gradientUnits="userSpaceOnUse" id="gradient8" r="819.2" spreadMethod="pad">
      <stop offset="0.0" stop-color="#ffffff"/>
      <stop offset="0.3803921568627451" stop-color="#f0d66c"/>
      <stop offset="0.7450980392156863" stop-color="#945b21" stop-opacity="0.5803922"/>
      <stop offset="1.0" stop-color="#26372b" stop-opacity="0.18039216"/>
    </radialGradient>
    <radialGradient cx="0" cy="0" gradientTransform="matrix(0.002, 0.0, 0.0, 0.002, -40.8, -41.2)" gradientUnits="userSpaceOnUse" id="gradient9" r="819.2" spreadMethod="pad">
      <stop offset="0.0" stop-color="#ffffff"/>
      <stop offset="0.3803921568627451" stop-color="#f0d66c"/>
      <stop offset="0.7450980392156863" stop-color="#945b21" stop-opacity="0.5803922"/>
      <stop offset="1.0" stop-color="#26372b" stop-opacity="0.18039216"/>
    </radialGradient>
    <radialGradient cx="0" cy="0" gradientTransform="matrix(0.003, 0.0, 0.0, 0.003, -43.85, -34.8)" gradientUnits="userSpaceOnUse" id="gradient10" r="819.2" spreadMethod="pad">
      <stop offset="0.0" stop-color="#ffffff"/>
      <stop offset="0.3803921568627451" stop-color="#f0d66c"/>
      <stop offset="0.7450980392156863" stop-color="#945b21" stop-opacity="0.5803922"/>
      <stop offset="1.0" stop-color="#26372b" stop-opacity="0.18039216"/>
    </radialGradient>
    <radialGradient cx="0" cy="0" gradientTransform="matrix(0.0192, 0.0, 0.0, 0.0192, -31.5, -23.75)" gradientUnits="userSpaceOnUse" id="gradient11" r="819.2" spreadMethod="pad">
      <stop offset="0.0" stop-color="#ffffff"/>
      <stop offset="0.3803921568627451" stop-color="#f0d66c"/>
      <stop offset="0.7450980392156863" stop-color="#945b21" stop-opacity="0.5803922"/>
      <stop offset="1.0" stop-color="#26372b" stop-opacity="0.18039216"/>
    </radialGradient>
    <radialGradient cx="0" cy="0" gradientTransform="matrix(0.0029, 0.0, 0.0, 0.0029, -40.2, -34.2)" gradientUnits="userSpaceOnUse" id="gradient12" r="819.2" spreadMethod="pad">
      <stop offset="0.0" stop-color="#ffffff"/>
      <stop offset="0.3803921568627451" stop-color="#f0d66c"/>
      <stop offset="0.7450980392156863" stop-color="#945b21" stop-opacity="0.5803922"/>
      <stop offset="1.0" stop-color="#26372b" stop-opacity="0.18039216"/>
    </radialGradient>
    <radialGradient cx="0" cy="0" gradientTransform="matrix(0.0043, 0.0, 0.0, 0.0043, -40.85, -32.5)" gradientUnits="userSpaceOnUse" id="gradient13" r="819.2" spreadMethod="pad">
      <stop offset="0.0" stop-color="#ffffff"/>
      <stop offset="0.3803921568627451" stop-color="#f0d66c"/>
      <stop offset="0.7450980392156863" stop-color="#945b21" stop-opacity="0.5803922"/>
      <stop offset="1.0" stop-color="#26372b" stop-opacity="0.18039216"/>
    </radialGradient>
    <radialGradient cx="0" cy="0" gradientTransform="matrix(0.0078, 0.0, 0.0, 0.0078, -40.5, -28.3)" gradientUnits="userSpaceOnUse" id="gradient14" r="819.2" spreadMethod="pad">
      <stop offset="0.0" stop-color="#ffffff"/>
      <stop offset="0.3803921568627451" stop-color="#f0d66c"/>
      <stop offset="0.7450980392156863" stop-color="#945b21" stop-opacity="0.5803922"/>
      <stop offset="1.0" stop-color="#26372b" stop-opacity="0.18039216"/>
    </radialGradient>
    <radialGradient cx="0" cy="0" gradientTransform="matrix(0.0098, 0.0, 0.0, 0.0098, -41.0, -27.55)" gradientUnits="userSpaceOnUse" id="gradient15" r="819.2" spreadMethod="pad">
      <stop offset="0.0" stop-color="#ffffff"/>
      <stop offset="0.3803921568627451" stop-color="#f0d66c"/>
      <stop offset="0.7450980392156863" stop-color="#945b21" stop-opacity="0.5803922"/>
      <stop offset="1.0" stop-color="#26372b" stop-opacity="0.18039216"/>
    </radialGradient>
    <radialGradient cx="0" cy="0" gradientTransform="matrix(0.0071, 0.0, 0.0, 0.0071, -33.95, -33.5)" gradientUnits="userSpaceOnUse" id="gradient16" r="819.2" spreadMethod="pad">
      <stop offset="0.0" stop-color="#ffffff"/>
      <stop offset="0.3803921568627451" stop-color="#f0d66c"/>
      <stop offset="0.7450980392156863" stop-color="#945b21" stop-opacity="0.5803922"/>
      <stop offset="1.0" stop-color="#26372b" stop-opacity="0.18039216"/>
    </radialGradient>
    <radialGradient cx="0" cy="0" gradientTransform="matrix(0.011, 0.0, 0.0, 0.011, -29.8, -27.45)" gradientUnits="userSpaceOnUse" id="gradient17" r="819.2" spreadMethod="pad">
      <stop offset="0.0" stop-color="#ffffff"/>
      <stop offset="0.3803921568627451" stop-color="#f0d66c"/>
      <stop offset="0.7450980392156863" stop-color="#945b21" stop-opacity="0.5803922"/>
      <stop offset="1.0" stop-color="#26372b" stop-opacity="0.18039216"/>
    </radialGradient>
    <radialGradient cx="0" cy="0" gradientTransform="matrix(0.0091, 0.0, 0.0, 0.0091, -31.05, -23.65)" gradientUnits="userSpaceOnUse" id="gradient18" r="819.2" spreadMethod="pad">
      <stop offset="0.0" stop-color="#ffffff"/>
      <stop offset="0.3803921568627451" stop-color="#f0d66c"/>
      <stop offset="0.7450980392156863" stop-color="#945b21" stop-opacity="0.5803922"/>
      <stop offset="1.0" stop-color="#26372b" stop-opacity="0.18039216"/>
    </radialGradient>
    <radialGradient cx="0" cy="0" gradientTransform="matrix(0.0096, 0.0, 0.0, 0.0096, -33.35, -29.05)" gradientUnits="userSpaceOnUse" id="gradient19" r="819.2" spreadMethod="pad">
      <stop offset="0.0" stop-color="#ffffff"/>
      <stop offset="0.3803921568627451" stop-color="#f0d66c"/>
      <stop offset="0.7450980392156863" stop-color="#945b21" stop-opacity="0.5803922"/>
      <stop offset="1.0" stop-color="#26372b" stop-opacity="0.18039216"/>
    </radialGradient>
    <radialGradient cx="0" cy="0" gradientTransform="matrix(0.0065, 0.0, 0.0, 0.0065, -33.05, -26.35)" gradientUnits="userSpaceOnUse" id="gradient20" r="819.2" spreadMethod="pad">
      <stop offset="0.0" stop-color="#ffffff"/>
      <stop offset="0.3803921568627451" stop-color="#f0d66c"/>
      <stop offset="0.7450980392156863" stop-color="#945b21" stop-opacity="0.5803922"/>
      <stop offset="1.0" stop-color="#26372b" stop-opacity="0.18039216"/>
    </radialGradient>
    <radialGradient cx="0" cy="0" gradientTransform="matrix(0.0084, 0.0, 0.0, 0.0084, -25.5, -23.5)" gradientUnits="userSpaceOnUse" id="gradient21" r="819.2" spreadMethod="pad">
      <stop offset="0.0" stop-color="#ffffff"/>
      <stop offset="0.3803921568627451" stop-color="#f0d66c"/>
      <stop offset="0.7450980392156863" stop-color="#945b21" stop-opacity="0.5803922"/>
      <stop offset="1.0" stop-color="#26372b" stop-opacity="0.18039216"/>
    </radialGradient>
    <radialGradient cx="0" cy="0" gradientTransform="matrix(0.0079, 0.0, 0.0, 0.0079, -24.35, -25.55)" gradientUnits="userSpaceOnUse" id="gradient22" r="819.2" spreadMethod="pad">
      <stop offset="0.0" stop-color="#ffffff"/>
      <stop offset="0.3803921568627451" stop-color="#f0d66c"/>
      <stop offset="0.7450980392156863" stop-color="#945b21" stop-opacity="0.5803922"/>
      <stop offset="1.0" stop-color="#26372b" stop-opacity="0.18039216"/>
    </radialGradient>
    <radialGradient cx="0" cy="0" gradientTransform="matrix(0.0028, 0.0, 0.0, 0.0028, -25.2, -25.05)" gradientUnits="userSpaceOnUse" id="gradient23" r="819.2" spreadMethod="pad">
      <stop offset="0.0" stop-color="#ffffff"/>
      <stop offset="0.3803921568627451" stop-color="#f0d66c"/>
      <stop offset="0.7450980392156863" stop-color="#945b21" stop-opacity="0.5803922"/>
      <stop offset="1.0" stop-color="#26372b" stop-opacity="0.18039216"/>
    </radialGradient>
    <radialGradient cx="0" cy="0" gradientTransform="matrix(9.0E-4, 0.0, 0.0, 9.0E-4, -23.5, -37.05)" gradientUnits="userSpaceOnUse" id="gradient24" r="819.2" spreadMethod="pad">
      <stop offset="0.0" stop-color="#ffffff"/>
      <stop offset="0.3803921568627451" stop-color="#f0d66c"/>
      <stop offset="0.7450980392156863" stop-color="#945b21" stop-opacity="0.5803922"/>
      <stop offset="1.0" stop-color="#26372b" stop-opacity="0.18039216"/>
    </radialGradient>
    <radialGradient cx="0" cy="0" gradientTransform="matrix(0.0012, 0.0, 0.0, 0.0012, -31.95, -50.35)" gradientUnits="userSpaceOnUse" id="gradient25" r="819.2" spreadMethod="pad">
      <stop offset="0.0" stop-color="#ffffff"/>
      <stop offset="0.3803921568627451" stop-color="#f0d66c"/>
      <stop offset="0.7450980392156863" stop-color="#945b21" stop-opacity="0.5803922"/>
      <stop offset="1.0" stop-color="#26372b" stop-opacity="0.18039216"/>
    </radialGradient>
    <radialGradient cx="0" cy="0" gradientTransform="matrix(0.0064, 0.0, 0.0, 0.0064, -38.35, -30.0)" gradientUnits="userSpaceOnUse" id="gradient26" r="819.2" spreadMethod="pad">
      <stop offset="0.0" stop-color="#ffffff"/>
      <stop offset="0.3803921568627451" stop-color="#f0d66c"/>
      <stop offset="0.7450980392156863" stop-color="#945b21" stop-opacity="0.5803922"/>
      <stop offset="1.0" stop-color="#26372b" stop-opacity="0.18039216"/>
    </radialGradient>
    <radialGradient cx="0" cy="0" gradientTransform="matrix(0.0042, 0.0, 0.0, 0.0042, -44.55, -26.35)" gradientUnits="userSpaceOnUse" id="gradient27" r="819.2" spreadMethod="pad">
      <stop offset="0.0" stop-color="#ffffff"/>
      <stop offset="0.3803921568627451" stop-color="#f0d66c"/>
      <stop offset="0.7450980392156863" stop-color="#945b21" stop-opacity="0.5803922"/>
      <stop offset="1.0" stop-color="#26372b" stop-opacity="0.18039216"/>
    </radialGradient>
    <radialGradient cx="0" cy="0" gradientTransform="matrix(0.0084, 0.0, 0.0, 0.0084, -32.2, -33.2)" gradientUnits="userSpaceOnUse" id="gradient28" r="819.2" spreadMethod="pad">
      <stop offset="0.0" stop-color="#ffffff"/>
      <stop offset="0.3803921568627451" stop-color="#f0d66c"/>
      <stop offset="0.7450980392156863" stop-color="#945b21" stop-opacity="0.5803922"/>
      <stop offset="1.0" stop-color="#26372b" stop-opacity="0.18039216"/>
    </radialGradient>
    <radialGradient cx="0" cy="0" gradientTransform="matrix(0.0065, 0.0, 0.0, 0.0065, -32.55, -27.5)" gradientUnits="userSpaceOnUse" id="gradient29" r="819.2" spreadMethod="pad">
      <stop offset="0.0" stop-color="#ffffff"/>
      <stop offset="0.3803921568627451" stop-color="#f0d66c"/>
      <stop offset="0.7450980392156863" stop-color="#945b21" stop-opacity="0.5803922"/>
      <stop offset="1.0" stop-color="#26372b" stop-opacity="0.18039216"/>
    </radialGradient>
    <radialGradient cx="0" cy="0" gradientTransform="matrix(0.0024, 0.0, 0.0, 0.0024, -37.4, -48.45)" gradientUnits="userSpaceOnUse" id="gradient30" r="819.2" spreadMethod="pad">
      <stop offset="0.0" stop-color="#ffffff"/>
      <stop offset="0.3803921568627451" stop-color="#f0d66c"/>
      <stop offset="0.7450980392156863" stop-color="#945b21" stop-opacity="0.5803922"/>
      <stop offset="1.0" stop-color="#26372b" stop-opacity="0.18039216"/>
    </radialGradient>
  </defs>
</svg>
