<?xml version="1.0" encoding="UTF-8" standalone="no"?>
<svg xmlns:ffdec="https://www.free-decompiler.com/flash" xmlns:xlink="http://www.w3.org/1999/xlink" ffdec:objectType="shape" height="38.8px" width="26.2px" xmlns="http://www.w3.org/2000/svg">
  <g transform="matrix(1.0, 0.0, 0.0, 1.0, 47.0, 52.8)">
    <path d="M-40.85 -41.25 Q-40.35 -41.1 -40.1 -40.5 L-39.8 -39.3 -39.4 -38.05 -38.9 -37.05 -39.25 -36.25 Q-39.25 -35.75 -38.85 -35.4 L-37.3 -34.3 -36.65 -33.15 -36.2 -32.5 Q-36.9 -32.55 -37.05 -32.8 L-37.35 -33.45 -38.0 -33.7 Q-38.3 -35.3 -39.45 -35.7 L-39.55 -36.3 -40.35 -38.0 Q-40.2 -38.25 -40.2 -38.65 -40.2 -40.05 -40.85 -41.25 M-35.6 -34.1 L-34.85 -35.95 Q-34.3 -37.85 -33.65 -37.85 -32.5 -37.85 -32.1 -36.8 L-31.9 -35.65 -30.95 -36.5 -31.05 -34.85 -31.1 -34.9 Q-31.35 -34.7 -31.85 -34.6 L-32.1 -34.25 -31.9 -33.7 -31.7 -33.3 -31.75 -33.3 -31.85 -33.3 Q-32.3 -33.9 -32.85 -34.1 L-32.9 -34.25 Q-33.05 -36.0 -33.45 -36.75 L-33.85 -34.3 -33.85 -34.2 Q-34.55 -34.05 -34.95 -32.95 L-35.6 -34.1 M-30.85 -37.25 L-30.85 -37.4 -31.1 -38.9 -31.0 -40.1 -30.6 -40.2 Q-29.85 -40.2 -28.75 -38.15 -28.15 -37.1 -28.15 -36.2 -28.15 -34.9 -28.7 -33.55 -29.25 -32.15 -29.25 -30.15 -29.25 -28.95 -28.8 -28.35 L-27.15 -26.05 -26.75 -26.45 -26.2 -26.65 Q-25.5 -26.65 -24.9 -23.5 L-24.45 -20.35 -24.6 -18.55 -24.75 -17.1 Q-24.9 -16.35 -25.5 -15.25 -26.2 -14.0 -26.75 -14.0 L-28.1 -14.5 -30.25 -15.4 -31.55 -16.25 -32.9 -16.95 Q-35.25 -17.4 -37.1 -18.65 -38.85 -19.85 -40.05 -20.0 -44.25 -20.5 -45.85 -22.6 -47.0 -24.1 -47.0 -26.7 -47.0 -27.45 -45.75 -29.55 L-45.8 -29.3 Q-45.9 -28.8 -45.25 -28.7 -46.0 -27.65 -46.0 -26.55 -46.0 -23.0 -43.75 -22.15 -40.65 -21.65 -38.85 -20.65 -36.35 -19.7 -35.75 -19.25 -35.0 -18.65 -33.75 -18.3 L-32.35 -18.0 -29.8 -16.6 Q-28.3 -15.75 -26.9 -15.75 -26.2 -15.75 -25.8 -17.7 L-25.8 -17.75 Q-25.3 -18.0 -25.0 -18.65 -24.65 -19.35 -24.65 -20.2 -24.65 -21.35 -25.25 -22.55 L-25.9 -24.0 Q-26.4 -25.05 -26.85 -25.05 -27.25 -25.05 -27.4 -24.2 L-28.15 -25.35 -29.25 -27.15 Q-30.05 -28.1 -30.2 -28.75 L-30.25 -30.15 Q-30.25 -31.7 -29.8 -33.05 L-29.45 -33.65 -29.4 -34.2 Q-29.05 -35.35 -29.05 -36.1 -29.05 -36.8 -29.65 -37.9 -29.95 -39.6 -30.85 -37.25 M-45.45 -30.7 L-45.7 -31.25 -46.0 -32.55 -46.0 -33.15 -45.4 -33.6 -44.75 -33.35 -44.55 -33.1 -44.3 -33.2 -44.25 -33.25 -44.2 -33.1 -44.0 -33.15 -43.9 -33.25 -43.15 -33.1 -42.5 -35.6 -42.5 -40.5 -41.75 -41.15 -41.75 -41.1 -41.65 -37.2 -41.75 -34.15 -42.85 -33.0 -43.55 -31.9 -43.65 -32.05 -44.15 -31.9 Q-44.2 -32.85 -44.95 -31.65 L-45.45 -30.7 M-40.6 -38.75 L-40.55 -38.8 -40.5 -38.7 -40.55 -38.4 -40.6 -38.75 M-44.45 -31.0 L-44.35 -30.2 -44.55 -29.75 -44.8 -29.8 -44.45 -31.0" fill="url(#gradient0)" fill-rule="evenodd" stroke="none"/>
    <path d="M-21.35 -32.75 Q-22.6 -32.75 -23.5 -36.25 -23.5 -38.2 -22.15 -36.75 -20.8 -35.35 -20.8 -34.15 -20.8 -32.75 -21.35 -32.75" fill="url(#gradient1)" fill-rule="evenodd" stroke="none"/>
    <path d="M-26.45 -29.25 Q-26.45 -34.95 -25.2 -35.25 -24.0 -35.5 -24.0 -29.0 L-24.0 -28.25 Q-24.1 -27.75 -24.6 -27.75 -26.15 -27.75 -26.45 -28.35 L-26.45 -29.25" fill="url(#gradient2)" fill-rule="evenodd" stroke="none"/>
    <path d="M-25.8 -17.75 L-26.65 -17.55 Q-27.3 -17.55 -28.6 -20.95 L-30.25 -26.15 -30.05 -26.2 -29.0 -24.4 -29.2 -23.7 -28.5 -22.3 Q-27.85 -21.15 -27.85 -20.5 L-27.9 -20.05 -27.6 -20.0 Q-27.45 -20.0 -27.35 -20.1 L-26.9 -18.5 Q-26.1 -18.85 -25.9 -19.25 L-25.85 -20.05 Q-25.85 -21.3 -26.8 -22.9 L-27.45 -22.15 -27.75 -22.75 -27.45 -23.95 -27.4 -24.2 Q-27.25 -25.05 -26.85 -25.05 -26.4 -25.05 -25.9 -24.0 L-25.25 -22.55 Q-24.65 -21.35 -24.65 -20.2 -24.65 -19.35 -25.0 -18.65 -25.3 -18.0 -25.8 -17.75" fill="url(#gradient3)" fill-rule="evenodd" stroke="none"/>
    <path d="M-41.65 -37.2 Q-41.4 -35.55 -40.75 -35.55 L-40.5 -35.6 Q-41.0 -35.2 -41.2 -33.9 -41.3 -34.45 -41.75 -34.15 L-41.65 -37.2 M-40.3 -35.75 L-40.25 -36.05 -40.55 -37.1 -40.85 -38.55 -40.6 -38.75 -40.55 -38.4 -40.65 -37.95 -40.5 -37.9 -40.35 -38.0 -39.55 -36.3 -39.45 -35.7 -39.6 -35.75 -40.3 -35.75 M-44.45 -31.0 L-44.15 -31.85 -44.15 -31.9 -43.65 -32.05 -43.55 -31.9 -44.35 -29.75 -44.5 -29.75 -44.55 -29.75 -44.35 -30.2 -44.45 -31.0 M-41.3 -32.35 L-41.3 -32.45 -41.3 -32.35 M-41.05 -30.35 L-40.95 -29.6 -40.75 -29.65 -40.65 -29.75 -40.35 -31.2 -40.0 -30.5 Q-39.7 -30.0 -39.1 -30.0 -37.9 -30.0 -37.9 -32.5 L-38.0 -33.7 -37.35 -33.45 -37.05 -32.8 Q-36.9 -32.55 -36.2 -32.5 -35.9 -32.2 -35.6 -32.2 L-35.2 -32.3 -35.25 -32.05 -35.55 -29.75 Q-35.55 -26.9 -32.95 -26.9 -30.6 -26.9 -30.6 -29.1 L-31.1 -31.75 Q-31.4 -32.7 -31.85 -33.3 L-31.75 -33.3 -31.7 -33.3 -31.55 -33.15 -31.45 -33.25 -31.2 -33.9 -31.1 -34.0 -30.75 -32.05 -29.8 -33.05 Q-30.25 -31.7 -30.25 -30.15 L-30.2 -28.75 Q-30.05 -28.1 -29.25 -27.15 L-28.15 -25.35 -27.4 -24.2 -27.45 -23.95 -27.75 -22.75 -27.8 -22.8 -28.6 -24.6 -29.0 -24.4 -30.05 -26.2 -30.25 -26.15 -28.6 -20.95 Q-27.3 -17.55 -26.65 -17.55 L-25.8 -17.75 -25.8 -17.7 Q-26.2 -15.75 -26.9 -15.75 -28.3 -15.75 -29.8 -16.6 L-32.35 -18.0 -33.75 -18.3 Q-35.0 -18.65 -35.75 -19.25 -36.35 -19.7 -38.85 -20.65 -40.65 -21.65 -43.75 -22.15 -46.0 -23.0 -46.0 -26.55 -46.0 -27.65 -45.25 -28.7 L-45.05 -28.7 -44.55 -28.75 -44.6 -27.8 Q-44.6 -26.2 -43.95 -24.5 L-43.7 -24.55 -43.65 -24.8 -43.6 -24.8 Q-42.95 -24.8 -42.9 -26.4 -42.9 -28.2 -42.35 -28.65 L-42.35 -27.8 -42.0 -27.0 -41.8 -27.1 -41.55 -29.15 -41.15 -30.2 -41.05 -30.35 M-29.4 -34.2 L-29.4 -35.15 -29.6 -37.55 -29.65 -37.9 Q-29.05 -36.8 -29.05 -36.1 -29.05 -35.35 -29.4 -34.2 M-33.85 -34.2 L-33.85 -34.3 -33.45 -36.75 Q-33.05 -36.0 -32.9 -34.25 L-32.85 -34.1 -33.6 -34.25 -33.85 -34.2 M-27.45 -22.15 L-26.8 -22.9 Q-25.85 -21.3 -25.85 -20.05 L-25.9 -19.25 Q-26.1 -18.85 -26.9 -18.5 L-27.35 -20.1 Q-27.1 -20.35 -27.1 -21.2 L-27.45 -22.15" fill="url(#gradient4)" fill-rule="evenodd" stroke="none"/>
    <path d="M-29.0 -24.4 L-28.6 -24.6 -27.8 -22.8 -27.75 -22.75 -27.45 -22.15 -27.1 -21.2 Q-27.1 -20.35 -27.35 -20.1 -27.45 -20.0 -27.6 -20.0 L-27.9 -20.05 -27.85 -20.5 Q-27.85 -21.15 -28.5 -22.3 L-29.2 -23.7 -29.0 -24.4" fill="url(#gradient5)" fill-rule="evenodd" stroke="none"/>
    <path d="M-31.1 -34.0 L-31.2 -33.9 -31.45 -33.25 -31.55 -33.15 -31.7 -33.3 -31.9 -33.7 -32.1 -34.25 -31.85 -34.6 Q-31.35 -34.7 -31.1 -34.9 L-31.05 -34.85 -31.1 -34.65 -31.1 -34.0" fill="url(#gradient6)" fill-rule="evenodd" stroke="none"/>
    <path d="M-30.95 -36.5 L-30.95 -37.0 -30.85 -37.25 Q-29.95 -39.6 -29.65 -37.9 L-29.6 -37.55 -29.4 -35.15 -29.4 -34.2 -29.45 -33.65 -29.8 -33.05 -30.75 -32.05 -31.1 -34.0 -31.1 -34.65 -31.05 -34.85 -30.95 -36.5" fill="url(#gradient7)" fill-rule="evenodd" stroke="none"/>
    <path d="M-30.3 -42.6 Q-30.95 -42.6 -31.0 -44.35 L-30.9 -45.3 Q-29.85 -45.55 -29.85 -43.0 -29.85 -42.6 -30.3 -42.6" fill="url(#gradient8)" fill-rule="evenodd" stroke="none"/>
    <path d="M-33.5 -52.4 L-33.6 -51.8 Q-34.1 -51.9 -34.05 -52.4 L-34.0 -52.75 -33.75 -52.8 -33.5 -52.4" fill="url(#gradient9)" fill-rule="evenodd" stroke="none"/>
    <path d="M-26.8 -42.45 L-26.8 -43.05 Q-26.15 -43.05 -26.15 -42.55 L-26.55 -42.6 -26.8 -42.45" fill="url(#gradient10)" fill-rule="evenodd" stroke="none"/>
    <path d="M-26.15 -42.55 Q-25.8 -42.3 -25.8 -41.2 -25.8 -40.8 -26.5 -39.65 -27.3 -40.15 -27.3 -40.6 -27.3 -42.05 -26.8 -42.45 L-26.55 -42.6 -26.15 -42.55" fill="url(#gradient11)" fill-rule="evenodd" stroke="none"/>
    <path d="M-32.25 -41.15 L-32.6 -40.8 -33.1 -40.9 -33.15 -41.0 Q-32.0 -43.45 -32.0 -41.7 L-32.25 -41.15" fill="url(#gradient12)" fill-rule="evenodd" stroke="none"/>
    <path d="M-33.65 -41.25 Q-33.75 -40.45 -34.4 -40.45 -35.3 -40.45 -35.2 -42.5 -35.2 -44.5 -34.4 -44.6 -33.65 -44.75 -33.65 -42.25 L-33.65 -41.25" fill="url(#gradient13)" fill-rule="evenodd" stroke="none"/>
    <path d="M-35.8 -38.65 Q-35.85 -38.25 -36.35 -38.25 -36.85 -38.25 -37.25 -39.85 -37.25 -40.4 -36.5 -40.2 -35.8 -40.0 -35.8 -39.25 L-35.8 -38.65" fill="url(#gradient14)" fill-rule="evenodd" stroke="none"/>
    <path d="M-41.25 -42.25 Q-41.85 -42.25 -41.8 -43.3 -41.8 -44.1 -41.25 -44.1 -40.75 -44.1 -40.75 -43.15 L-40.8 -42.55 Q-40.9 -42.25 -41.25 -42.25" fill="url(#gradient15)" fill-rule="evenodd" stroke="none"/>
    <path d="M-41.75 -41.15 Q-41.75 -42.6 -40.95 -41.4 L-40.85 -41.25 Q-40.2 -40.05 -40.2 -38.65 -40.2 -38.25 -40.35 -38.0 L-40.5 -37.9 -40.65 -37.95 -40.55 -38.4 -40.5 -38.7 -40.55 -38.8 -40.6 -38.75 -40.85 -38.55 -40.55 -37.1 -40.25 -36.05 -40.3 -35.75 -40.5 -35.6 -40.75 -35.55 Q-41.4 -35.55 -41.65 -37.2 L-41.75 -41.1 -41.75 -41.15" fill="url(#gradient16)" fill-rule="evenodd" stroke="none"/>
    <path d="M-44.25 -33.25 Q-44.65 -34.35 -45.1 -34.75 -45.45 -35.0 -45.45 -35.8 -45.45 -36.8 -45.15 -37.05 L-44.75 -36.3 -44.35 -36.9 Q-43.8 -36.55 -43.8 -35.9 L-44.05 -35.1 -43.85 -34.1 -43.9 -33.25 -44.0 -33.15 -44.2 -33.1 -44.25 -33.25" fill="url(#gradient17)" fill-rule="evenodd" stroke="none"/>
    <path d="M-45.15 -37.05 L-45.15 -37.15 Q-45.15 -37.5 -44.75 -37.5 -44.35 -37.5 -44.35 -37.15 L-44.35 -36.9 -44.75 -36.3 -45.15 -37.05" fill="url(#gradient18)" fill-rule="evenodd" stroke="none"/>
    <path d="M-38.9 -37.05 L-38.3 -37.7 -38.55 -37.05 -37.9 -36.1 -37.0 -35.65 Q-36.35 -35.35 -36.2 -35.1 L-35.6 -34.1 -34.95 -32.95 -35.2 -32.3 -35.6 -32.2 Q-35.9 -32.2 -36.2 -32.5 L-36.65 -33.15 -37.3 -34.3 -38.85 -35.4 Q-39.25 -35.75 -39.25 -36.25 L-38.9 -37.05" fill="url(#gradient19)" fill-rule="evenodd" stroke="none"/>
    <path d="M-40.5 -35.6 L-40.3 -35.75 -39.6 -35.75 -39.45 -35.7 Q-38.3 -35.3 -38.0 -33.7 L-37.9 -32.5 Q-37.9 -30.0 -39.1 -30.0 -39.7 -30.0 -40.0 -30.5 L-40.35 -31.2 -40.65 -29.75 -40.75 -29.65 -40.95 -29.6 -41.05 -30.35 -40.8 -31.2 Q-40.8 -32.25 -41.3 -32.35 L-41.3 -32.45 -41.15 -33.35 -41.2 -33.9 Q-41.0 -35.2 -40.5 -35.6" fill="url(#gradient20)" fill-rule="evenodd" stroke="none"/>
    <path d="M-43.65 -24.8 L-43.05 -28.25 Q-42.7 -30.45 -41.95 -31.75 L-41.9 -31.3 -42.1 -30.3 -42.05 -30.15 -42.0 -30.2 -41.4 -32.0 -41.3 -32.35 Q-40.8 -32.25 -40.8 -31.2 L-41.05 -30.35 -41.15 -30.2 -41.55 -29.15 -41.8 -27.1 -42.0 -27.0 -42.35 -27.8 -42.35 -28.65 Q-42.9 -28.2 -42.9 -26.4 -42.95 -24.8 -43.6 -24.8 L-43.65 -24.8" fill="url(#gradient21)" fill-rule="evenodd" stroke="none"/>
    <path d="M-44.35 -29.75 L-43.55 -31.9 -42.85 -33.0 -41.75 -34.15 Q-41.3 -34.45 -41.2 -33.9 L-41.15 -33.35 -41.3 -32.45 -41.3 -32.35 -41.4 -32.0 -42.0 -30.2 -42.05 -30.15 -42.1 -30.3 -41.9 -31.3 -41.95 -31.75 Q-42.7 -30.45 -43.05 -28.25 L-43.65 -24.8 -43.7 -24.55 -43.95 -24.5 Q-44.6 -26.2 -44.6 -27.8 L-44.55 -28.75 -44.15 -29.0 -43.75 -29.85 -44.35 -29.75" fill="url(#gradient22)" fill-rule="evenodd" stroke="none"/>
    <path d="M-45.75 -29.55 L-45.45 -30.7 -44.95 -31.65 Q-44.2 -32.85 -44.15 -31.9 L-44.15 -31.85 -44.45 -31.0 -44.8 -29.8 -44.55 -29.75 -44.5 -29.75 -44.35 -29.75 -43.75 -29.85 -44.15 -29.0 -44.55 -28.75 -45.05 -28.7 -45.25 -28.7 Q-45.9 -28.8 -45.8 -29.3 L-45.75 -29.55" fill="url(#gradient23)" fill-rule="evenodd" stroke="none"/>
    <path d="M-31.85 -33.3 Q-31.4 -32.7 -31.1 -31.75 L-30.6 -29.1 Q-30.6 -26.9 -32.95 -26.9 -35.55 -26.9 -35.55 -29.75 L-35.25 -32.05 -35.2 -32.3 -34.95 -32.95 Q-34.55 -34.05 -33.85 -34.2 L-33.6 -34.25 -32.85 -34.1 Q-32.3 -33.9 -31.85 -33.3" fill="url(#gradient24)" fill-rule="evenodd" stroke="none"/>
  </g>
  <defs>
    <radialGradient cx="0" cy="0" gradientTransform="matrix(0.0199, 0.0, 0.0, 0.0199, -35.7, -27.65)" gradientUnits="userSpaceOnUse" id="gradient0" r="819.2" spreadMethod="pad">
      <stop offset="0.0" stop-color="#ffffff"/>
      <stop offset="0.3803921568627451" stop-color="#f0d66c"/>
      <stop offset="0.7450980392156863" stop-color="#945b21" stop-opacity="0.5803922"/>
      <stop offset="1.0" stop-color="#26372b" stop-opacity="0.18039216"/>
    </radialGradient>
    <radialGradient cx="0" cy="0" gradientTransform="matrix(0.0032, 0.0, 0.0, 0.0032, -22.15, -35.05)" gradientUnits="userSpaceOnUse" id="gradient1" r="819.2" spreadMethod="pad">
      <stop offset="0.0" stop-color="#ffffff"/>
      <stop offset="0.3803921568627451" stop-color="#f0d66c"/>
      <stop offset="0.7450980392156863" stop-color="#945b21" stop-opacity="0.5803922"/>
      <stop offset="1.0" stop-color="#26372b" stop-opacity="0.18039216"/>
    </radialGradient>
    <radialGradient cx="0" cy="0" gradientTransform="matrix(0.0055, 0.0, 0.0, 0.0055, -25.2, -31.5)" gradientUnits="userSpaceOnUse" id="gradient2" r="819.2" spreadMethod="pad">
      <stop offset="0.0" stop-color="#ffffff"/>
      <stop offset="0.3803921568627451" stop-color="#f0d66c"/>
      <stop offset="0.7450980392156863" stop-color="#945b21" stop-opacity="0.5803922"/>
      <stop offset="1.0" stop-color="#26372b" stop-opacity="0.18039216"/>
    </radialGradient>
    <radialGradient cx="0" cy="0" gradientTransform="matrix(0.0074, 0.0, 0.0, 0.0074, -27.45, -21.85)" gradientUnits="userSpaceOnUse" id="gradient3" r="819.2" spreadMethod="pad">
      <stop offset="0.0" stop-color="#ffffff"/>
      <stop offset="0.3803921568627451" stop-color="#f0d66c"/>
      <stop offset="0.7450980392156863" stop-color="#945b21" stop-opacity="0.5803922"/>
      <stop offset="1.0" stop-color="#26372b" stop-opacity="0.18039216"/>
    </radialGradient>
    <radialGradient cx="0" cy="0" gradientTransform="matrix(0.0215, 0.0, 0.0, 0.0215, -35.1, -24.1)" gradientUnits="userSpaceOnUse" id="gradient4" r="819.2" spreadMethod="pad">
      <stop offset="0.0" stop-color="#ffffff"/>
      <stop offset="0.3803921568627451" stop-color="#f0d66c"/>
      <stop offset="0.7450980392156863" stop-color="#945b21" stop-opacity="0.5803922"/>
      <stop offset="1.0" stop-color="#26372b" stop-opacity="0.18039216"/>
    </radialGradient>
    <radialGradient cx="0" cy="0" gradientTransform="matrix(0.0029, 0.0, 0.0, 0.0029, -28.15, -22.3)" gradientUnits="userSpaceOnUse" id="gradient5" r="819.2" spreadMethod="pad">
      <stop offset="0.0" stop-color="#ffffff"/>
      <stop offset="0.3803921568627451" stop-color="#f0d66c"/>
      <stop offset="0.7450980392156863" stop-color="#945b21" stop-opacity="0.5803922"/>
      <stop offset="1.0" stop-color="#26372b" stop-opacity="0.18039216"/>
    </radialGradient>
    <radialGradient cx="0" cy="0" gradientTransform="matrix(0.0013, 0.0, 0.0, 0.0013, -31.45, -34.0)" gradientUnits="userSpaceOnUse" id="gradient6" r="819.2" spreadMethod="pad">
      <stop offset="0.0" stop-color="#ffffff"/>
      <stop offset="0.3803921568627451" stop-color="#f0d66c"/>
      <stop offset="0.7450980392156863" stop-color="#945b21" stop-opacity="0.5803922"/>
      <stop offset="1.0" stop-color="#26372b" stop-opacity="0.18039216"/>
    </radialGradient>
    <radialGradient cx="0" cy="0" gradientTransform="matrix(0.0044, 0.0, 0.0, 0.0044, -30.25, -35.35)" gradientUnits="userSpaceOnUse" id="gradient7" r="819.2" spreadMethod="pad">
      <stop offset="0.0" stop-color="#ffffff"/>
      <stop offset="0.3803921568627451" stop-color="#f0d66c"/>
      <stop offset="0.7450980392156863" stop-color="#945b21" stop-opacity="0.5803922"/>
      <stop offset="1.0" stop-color="#26372b" stop-opacity="0.18039216"/>
    </radialGradient>
    <radialGradient cx="0" cy="0" gradientTransform="matrix(0.0023, 0.0, 0.0, 0.0023, -30.4, -43.95)" gradientUnits="userSpaceOnUse" id="gradient8" r="819.2" spreadMethod="pad">
      <stop offset="0.0" stop-color="#ffffff"/>
      <stop offset="0.3803921568627451" stop-color="#f0d66c"/>
      <stop offset="0.7450980392156863" stop-color="#945b21" stop-opacity="0.5803922"/>
      <stop offset="1.0" stop-color="#26372b" stop-opacity="0.18039216"/>
    </radialGradient>
    <radialGradient cx="0" cy="0" gradientTransform="matrix(0.001, 0.0, 0.0, 0.001, -33.8, -52.3)" gradientUnits="userSpaceOnUse" id="gradient9" r="819.2" spreadMethod="pad">
      <stop offset="0.0" stop-color="#ffffff"/>
      <stop offset="0.3803921568627451" stop-color="#f0d66c"/>
      <stop offset="0.7450980392156863" stop-color="#945b21" stop-opacity="0.5803922"/>
      <stop offset="1.0" stop-color="#26372b" stop-opacity="0.18039216"/>
    </radialGradient>
    <radialGradient cx="0" cy="0" gradientTransform="matrix(0.0013, 0.0, 0.0, 0.0013, -26.45, -42.55)" gradientUnits="userSpaceOnUse" id="gradient10" r="819.2" spreadMethod="pad">
      <stop offset="0.0" stop-color="#ffffff"/>
      <stop offset="0.3803921568627451" stop-color="#f0d66c"/>
      <stop offset="0.7450980392156863" stop-color="#945b21" stop-opacity="0.5803922"/>
      <stop offset="1.0" stop-color="#26372b" stop-opacity="0.18039216"/>
    </radialGradient>
    <radialGradient cx="0" cy="0" gradientTransform="matrix(0.0021, 0.0, 0.0, 0.0021, -26.55, -41.15)" gradientUnits="userSpaceOnUse" id="gradient11" r="819.2" spreadMethod="pad">
      <stop offset="0.0" stop-color="#ffffff"/>
      <stop offset="0.3803921568627451" stop-color="#f0d66c"/>
      <stop offset="0.7450980392156863" stop-color="#945b21" stop-opacity="0.5803922"/>
      <stop offset="1.0" stop-color="#26372b" stop-opacity="0.18039216"/>
    </radialGradient>
    <radialGradient cx="0" cy="0" gradientTransform="matrix(0.0014, 0.0, 0.0, 0.0014, -32.55, -41.6)" gradientUnits="userSpaceOnUse" id="gradient12" r="819.2" spreadMethod="pad">
      <stop offset="0.0" stop-color="#ffffff"/>
      <stop offset="0.3803921568627451" stop-color="#f0d66c"/>
      <stop offset="0.7450980392156863" stop-color="#945b21" stop-opacity="0.5803922"/>
      <stop offset="1.0" stop-color="#26372b" stop-opacity="0.18039216"/>
    </radialGradient>
    <radialGradient cx="0" cy="0" gradientTransform="matrix(0.0036, 0.0, 0.0, 0.0036, -34.45, -42.55)" gradientUnits="userSpaceOnUse" id="gradient13" r="819.2" spreadMethod="pad">
      <stop offset="0.0" stop-color="#ffffff"/>
      <stop offset="0.3803921568627451" stop-color="#f0d66c"/>
      <stop offset="0.7450980392156863" stop-color="#945b21" stop-opacity="0.5803922"/>
      <stop offset="1.0" stop-color="#26372b" stop-opacity="0.18039216"/>
    </radialGradient>
    <radialGradient cx="0" cy="0" gradientTransform="matrix(0.0023, 0.0, 0.0, 0.0023, -36.5, -39.25)" gradientUnits="userSpaceOnUse" id="gradient14" r="819.2" spreadMethod="pad">
      <stop offset="0.0" stop-color="#ffffff"/>
      <stop offset="0.3803921568627451" stop-color="#f0d66c"/>
      <stop offset="0.7450980392156863" stop-color="#945b21" stop-opacity="0.5803922"/>
      <stop offset="1.0" stop-color="#26372b" stop-opacity="0.18039216"/>
    </radialGradient>
    <radialGradient cx="0" cy="0" gradientTransform="matrix(0.0016, 0.0, 0.0, 0.0016, -41.3, -43.15)" gradientUnits="userSpaceOnUse" id="gradient15" r="819.2" spreadMethod="pad">
      <stop offset="0.0" stop-color="#ffffff"/>
      <stop offset="0.3803921568627451" stop-color="#f0d66c"/>
      <stop offset="0.7450980392156863" stop-color="#945b21" stop-opacity="0.5803922"/>
      <stop offset="1.0" stop-color="#26372b" stop-opacity="0.18039216"/>
    </radialGradient>
    <radialGradient cx="0" cy="0" gradientTransform="matrix(0.0039, 0.0, 0.0, 0.0039, -41.0, -38.75)" gradientUnits="userSpaceOnUse" id="gradient16" r="819.2" spreadMethod="pad">
      <stop offset="0.0" stop-color="#ffffff"/>
      <stop offset="0.3803921568627451" stop-color="#f0d66c"/>
      <stop offset="0.7450980392156863" stop-color="#945b21" stop-opacity="0.5803922"/>
      <stop offset="1.0" stop-color="#26372b" stop-opacity="0.18039216"/>
    </radialGradient>
    <radialGradient cx="0" cy="0" gradientTransform="matrix(0.0031, 0.0, 0.0, 0.0031, -44.6, -35.1)" gradientUnits="userSpaceOnUse" id="gradient17" r="819.2" spreadMethod="pad">
      <stop offset="0.0" stop-color="#ffffff"/>
      <stop offset="0.3803921568627451" stop-color="#f0d66c"/>
      <stop offset="0.7450980392156863" stop-color="#945b21" stop-opacity="0.5803922"/>
      <stop offset="1.0" stop-color="#26372b" stop-opacity="0.18039216"/>
    </radialGradient>
    <radialGradient cx="0" cy="0" gradientTransform="matrix(0.0013, 0.0, 0.0, 0.0013, -44.75, -36.9)" gradientUnits="userSpaceOnUse" id="gradient18" r="819.2" spreadMethod="pad">
      <stop offset="0.0" stop-color="#ffffff"/>
      <stop offset="0.3803921568627451" stop-color="#f0d66c"/>
      <stop offset="0.7450980392156863" stop-color="#945b21" stop-opacity="0.5803922"/>
      <stop offset="1.0" stop-color="#26372b" stop-opacity="0.18039216"/>
    </radialGradient>
    <radialGradient cx="0" cy="0" gradientTransform="matrix(0.0049, 0.0, 0.0, 0.0049, -37.1, -34.95)" gradientUnits="userSpaceOnUse" id="gradient19" r="819.2" spreadMethod="pad">
      <stop offset="0.0" stop-color="#ffffff"/>
      <stop offset="0.3803921568627451" stop-color="#f0d66c"/>
      <stop offset="0.7450980392156863" stop-color="#945b21" stop-opacity="0.5803922"/>
      <stop offset="1.0" stop-color="#26372b" stop-opacity="0.18039216"/>
    </radialGradient>
    <radialGradient cx="0" cy="0" gradientTransform="matrix(0.0047, 0.0, 0.0, 0.0047, -39.6, -32.7)" gradientUnits="userSpaceOnUse" id="gradient20" r="819.2" spreadMethod="pad">
      <stop offset="0.0" stop-color="#ffffff"/>
      <stop offset="0.3803921568627451" stop-color="#f0d66c"/>
      <stop offset="0.7450980392156863" stop-color="#945b21" stop-opacity="0.5803922"/>
      <stop offset="1.0" stop-color="#26372b" stop-opacity="0.18039216"/>
    </radialGradient>
    <radialGradient cx="0" cy="0" gradientTransform="matrix(0.0051, 0.0, 0.0, 0.0051, -42.6, -28.6)" gradientUnits="userSpaceOnUse" id="gradient21" r="819.2" spreadMethod="pad">
      <stop offset="0.0" stop-color="#ffffff"/>
      <stop offset="0.3803921568627451" stop-color="#f0d66c"/>
      <stop offset="0.7450980392156863" stop-color="#945b21" stop-opacity="0.5803922"/>
      <stop offset="1.0" stop-color="#26372b" stop-opacity="0.18039216"/>
    </radialGradient>
    <radialGradient cx="0" cy="0" gradientTransform="matrix(0.0062, 0.0, 0.0, 0.0062, -42.85, -29.4)" gradientUnits="userSpaceOnUse" id="gradient22" r="819.2" spreadMethod="pad">
      <stop offset="0.0" stop-color="#ffffff"/>
      <stop offset="0.3803921568627451" stop-color="#f0d66c"/>
      <stop offset="0.7450980392156863" stop-color="#945b21" stop-opacity="0.5803922"/>
      <stop offset="1.0" stop-color="#26372b" stop-opacity="0.18039216"/>
    </radialGradient>
    <radialGradient cx="0" cy="0" gradientTransform="matrix(0.0031, 0.0, 0.0, 0.0031, -44.8, -30.5)" gradientUnits="userSpaceOnUse" id="gradient23" r="819.2" spreadMethod="pad">
      <stop offset="0.0" stop-color="#ffffff"/>
      <stop offset="0.3803921568627451" stop-color="#f0d66c"/>
      <stop offset="0.7450980392156863" stop-color="#945b21" stop-opacity="0.5803922"/>
      <stop offset="1.0" stop-color="#26372b" stop-opacity="0.18039216"/>
    </radialGradient>
    <radialGradient cx="0" cy="0" gradientTransform="matrix(0.0056, 0.0, 0.0, 0.0056, -33.05, -30.55)" gradientUnits="userSpaceOnUse" id="gradient24" r="819.2" spreadMethod="pad">
      <stop offset="0.0" stop-color="#ffffff"/>
      <stop offset="0.3803921568627451" stop-color="#f0d66c"/>
      <stop offset="0.7450980392156863" stop-color="#945b21" stop-opacity="0.5803922"/>
      <stop offset="1.0" stop-color="#26372b" stop-opacity="0.18039216"/>
    </radialGradient>
  </defs>
</svg>
