<?xml version="1.0" encoding="UTF-8" standalone="no"?>
<svg xmlns:ffdec="https://www.free-decompiler.com/flash" xmlns:xlink="http://www.w3.org/1999/xlink" ffdec:objectType="shape" height="32.3px" width="24.8px" xmlns="http://www.w3.org/2000/svg">
  <g transform="matrix(1.0, 0.0, 0.0, 1.0, 46.2, 48.1)">
    <path d="M-23.5 -36.05 L-23.5 -35.55 -24.2 -32.65 Q-24.9 -29.9 -25.15 -29.9 -26.1 -29.9 -26.15 -32.3 -26.15 -34.3 -24.8 -35.85 L-23.95 -36.55 Q-23.6 -36.6 -23.5 -36.05" fill="url(#gradient0)" fill-rule="evenodd" stroke="none"/>
    <path d="M-40.2 -34.8 L-39.5 -34.65 -39.05 -34.8 -38.95 -34.5 -38.5 -33.45 Q-38.8 -33.25 -39.0 -33.25 L-40.35 -33.5 -40.9 -32.35 Q-41.4 -31.2 -42.55 -31.2 L-43.1 -31.3 -44.05 -31.7 -44.1 -31.45 -44.05 -31.3 -44.3 -31.15 Q-45.0 -30.55 -45.0 -29.55 -45.0 -27.65 -44.45 -27.15 -44.1 -27.25 -43.85 -28.55 L-43.8 -28.85 -43.75 -28.2 Q-43.75 -26.5 -44.3 -25.75 -44.9 -24.95 -44.9 -23.8 L-44.8 -22.8 -44.75 -22.75 -42.55 -22.55 -40.55 -22.1 -40.0 -21.85 -38.4 -21.5 Q-37.4 -21.35 -36.35 -20.6 L-34.75 -19.6 Q-31.05 -18.4 -27.75 -17.85 L-27.8 -17.8 -26.9 -17.65 -26.6 -17.65 -25.8 -17.55 -25.75 -17.9 -25.1 -18.5 -24.35 -19.45 -24.35 -19.4 -24.3 -19.2 -24.3 -19.1 -24.55 -18.75 -25.05 -18.0 -24.75 -17.5 -24.3 -17.95 -24.4 -17.35 Q-24.65 -15.8 -25.55 -15.8 -27.6 -15.8 -34.5 -18.0 -35.7 -18.25 -36.55 -18.85 L-38.0 -19.85 -40.25 -20.55 Q-41.4 -20.85 -41.95 -21.25 -44.5 -20.9 -45.6 -21.6 -46.2 -22.0 -46.2 -22.55 L-45.7 -26.6 -45.75 -28.65 -45.5 -29.65 -45.25 -30.6 -45.5 -32.35 -45.55 -32.8 -45.0 -32.15 -44.3 -33.35 Q-44.0 -33.85 -44.0 -34.4 -44.0 -35.9 -44.85 -35.6 -45.7 -35.3 -45.7 -33.85 L-45.7 -33.55 -45.75 -34.25 Q-45.75 -36.1 -45.1 -36.1 -44.2 -36.1 -43.9 -35.25 L-43.7 -34.25 -42.5 -32.65 -41.7 -34.0 -41.4 -34.45 -41.45 -34.0 Q-41.55 -33.35 -40.75 -33.35 -40.3 -33.35 -40.2 -34.05 L-40.2 -34.8 M-35.7 -37.05 L-35.75 -37.95 Q-35.2 -43.5 -33.65 -40.4 L-33.45 -38.9 -33.8 -39.95 Q-34.4 -41.1 -35.3 -39.75 L-35.65 -37.1 -35.7 -37.05 M-32.65 -34.25 L-31.65 -34.4 Q-30.35 -34.4 -29.85 -31.9 L-29.55 -29.1 Q-28.9 -29.15 -28.65 -28.8 L-28.3 -28.3 -28.8 -27.35 -28.8 -27.1 -29.05 -27.3 Q-29.45 -27.7 -29.8 -27.7 -30.7 -27.7 -30.8 -28.85 L-30.75 -30.55 Q-30.75 -31.6 -31.45 -33.3 L-32.0 -33.25 -32.1 -33.3 Q-32.6 -33.55 -32.65 -34.25 M-27.4 -28.75 L-26.25 -29.4 Q-25.65 -29.4 -25.4 -27.2 L-25.05 -24.3 -24.75 -23.2 -26.0 -21.0 -26.1 -21.3 -26.5 -22.7 -26.4 -22.7 Q-25.7 -22.7 -25.7 -23.35 L-26.15 -25.45 -26.0 -27.15 Q-26.0 -27.75 -26.85 -27.95 L-26.9 -28.35 Q-27.0 -28.65 -27.4 -28.75 M-36.25 -32.75 L-36.85 -33.15 -37.7 -34.0 -37.75 -34.3 Q-36.9 -33.85 -36.15 -34.3 L-36.25 -33.4 -36.25 -32.75" fill="url(#gradient1)" fill-rule="evenodd" stroke="none"/>
    <path d="M-44.05 -31.3 L-44.1 -31.45 -44.05 -31.7 -43.1 -31.3 -42.55 -31.2 Q-41.4 -31.2 -40.9 -32.35 L-40.35 -33.5 -39.0 -33.25 Q-38.8 -33.25 -38.5 -33.45 L-38.1 -32.55 Q-37.6 -32.85 -37.6 -33.3 L-37.7 -34.0 -36.85 -33.15 -36.25 -32.75 -35.95 -31.4 Q-35.25 -29.4 -33.35 -29.4 -32.7 -29.4 -32.0 -30.65 L-31.4 -32.15 Q-31.4 -32.9 -32.0 -33.25 L-31.45 -33.3 Q-30.75 -31.6 -30.75 -30.55 L-30.8 -28.85 Q-30.7 -27.7 -29.8 -27.7 -29.45 -27.7 -29.05 -27.3 L-28.8 -27.1 -28.9 -25.5 -28.75 -23.9 Q-28.4 -22.2 -27.6 -22.2 L-27.3 -22.3 -27.2 -23.05 -26.5 -22.7 -26.1 -21.3 -26.0 -21.0 -26.5 -19.95 -26.25 -19.3 Q-26.25 -19.1 -26.85 -18.6 L-27.75 -17.85 Q-31.05 -18.4 -34.75 -19.6 L-36.35 -20.6 Q-37.4 -21.35 -38.4 -21.5 L-40.0 -21.85 -40.55 -22.1 -42.55 -22.55 -44.75 -22.75 -44.8 -22.8 -44.9 -23.8 Q-44.9 -24.95 -44.3 -25.75 -43.75 -26.5 -43.75 -28.2 L-43.8 -28.85 -43.65 -30.3 Q-43.65 -31.5 -44.05 -31.3 M-25.75 -17.9 L-25.8 -17.55 -26.6 -17.65 -25.75 -17.9" fill="url(#gradient2)" fill-rule="evenodd" stroke="none"/>
    <path d="M-23.95 -36.55 L-24.25 -37.75 -24.35 -39.5 Q-24.35 -41.25 -23.35 -39.85 -22.4 -38.45 -22.4 -36.85 -22.4 -35.95 -23.2 -35.95 L-23.5 -36.05 Q-23.6 -36.6 -23.95 -36.55" fill="url(#gradient3)" fill-rule="evenodd" stroke="none"/>
    <path d="M-24.75 -23.2 L-23.35 -25.0 -23.5 -24.3 Q-23.55 -23.1 -24.55 -21.85 L-25.55 -20.4 -25.25 -19.8 -24.35 -20.3 -24.35 -19.45 -25.1 -18.5 -25.75 -17.9 -26.6 -17.65 -26.9 -17.65 -27.8 -17.8 -27.75 -17.85 -26.85 -18.6 Q-26.25 -19.1 -26.25 -19.3 L-26.5 -19.95 -26.0 -21.0 -24.75 -23.2 M-22.2 -25.35 Q-21.55 -25.25 -21.4 -24.65 L-21.4 -23.85 Q-21.4 -23.3 -22.65 -20.75 L-23.2 -19.65 -22.8 -21.15 -22.2 -23.8 -22.1 -24.8 -22.2 -25.35 M-23.75 -18.75 L-24.3 -17.95 -24.75 -17.5 -25.05 -18.0 -24.55 -18.75 -24.3 -19.1 -24.25 -19.1 Q-24.15 -18.75 -23.75 -18.75" fill="url(#gradient4)" fill-rule="evenodd" stroke="none"/>
    <path d="M-23.35 -25.0 L-23.35 -25.6 Q-23.2 -26.4 -22.45 -25.75 L-22.2 -25.35 -22.1 -24.8 -22.2 -23.8 -22.8 -21.15 -23.2 -19.65 Q-23.55 -18.75 -23.75 -18.75 -24.15 -18.75 -24.25 -19.1 L-24.3 -19.2 -24.35 -19.4 -24.35 -19.45 -24.35 -20.3 -25.25 -19.8 -25.55 -20.4 -24.55 -21.85 Q-23.55 -23.1 -23.5 -24.3 L-23.35 -25.0" fill="url(#gradient5)" fill-rule="evenodd" stroke="none"/>
    <path d="M-45.6 -39.3 Q-45.3 -39.8 -44.35 -39.75 L-44.25 -39.05 -44.6 -38.3 -44.95 -37.5 -44.95 -37.45 -45.1 -37.4 Q-45.8 -37.4 -45.8 -38.3 L-45.6 -39.3" fill="url(#gradient6)" fill-rule="evenodd" stroke="none"/>
    <path d="M-45.55 -32.8 L-45.7 -33.55 -45.7 -33.85 Q-45.7 -35.3 -44.85 -35.6 -44.0 -35.9 -44.0 -34.4 -44.0 -33.85 -44.3 -33.35 L-45.0 -32.15 -45.55 -32.8" fill="url(#gradient7)" fill-rule="evenodd" stroke="none"/>
    <path d="M-43.8 -28.85 L-43.85 -28.55 Q-44.1 -27.25 -44.45 -27.15 -45.0 -27.65 -45.0 -29.55 -45.0 -30.55 -44.3 -31.15 L-44.05 -31.3 Q-43.65 -31.5 -43.65 -30.3 L-43.8 -28.85" fill="url(#gradient8)" fill-rule="evenodd" stroke="none"/>
    <path d="M-41.4 -34.45 L-41.35 -36.0 Q-40.5 -36.2 -40.25 -35.7 L-40.2 -34.8 -40.2 -34.05 Q-40.3 -33.35 -40.75 -33.35 -41.55 -33.35 -41.45 -34.0 L-41.4 -34.45" fill="url(#gradient9)" fill-rule="evenodd" stroke="none"/>
    <path d="M-41.05 -37.8 L-41.05 -37.75 -41.1 -37.75 Q-41.95 -37.75 -42.55 -38.8 L-43.0 -40.15 Q-43.0 -45.05 -41.55 -43.5 -40.15 -41.95 -40.15 -39.6 -40.15 -38.75 -40.6 -38.2 L-41.05 -37.8" fill="url(#gradient10)" fill-rule="evenodd" stroke="none"/>
    <path d="M-41.55 -47.05 L-41.5 -46.75 -41.6 -46.0 -41.85 -45.85 -42.5 -46.45 Q-42.2 -47.45 -41.55 -47.05" fill="url(#gradient11)" fill-rule="evenodd" stroke="none"/>
    <path d="M-34.85 -44.25 Q-35.3 -44.25 -35.4 -46.3 -35.4 -47.65 -34.45 -48.05 -33.5 -48.4 -33.5 -46.5 -33.5 -44.25 -34.85 -44.25" fill="url(#gradient12)" fill-rule="evenodd" stroke="none"/>
    <path d="M-39.05 -34.8 L-39.55 -36.75 -39.45 -38.15 Q-38.5 -38.05 -38.25 -37.05 L-38.0 -35.55 -36.85 -35.55 -36.15 -36.5 -35.7 -37.05 -35.65 -37.1 -35.65 -36.6 -35.35 -35.05 Q-35.95 -35.1 -36.15 -34.3 -36.9 -33.85 -37.75 -34.3 L-37.7 -34.0 -37.6 -33.3 Q-37.6 -32.85 -38.1 -32.55 L-38.5 -33.45 -38.95 -34.5 -39.05 -34.8" fill="url(#gradient13)" fill-rule="evenodd" stroke="none"/>
    <path d="M-28.15 -43.8 L-28.25 -43.75 -28.5 -44.2 -28.6 -44.7 -28.55 -45.15 -28.05 -45.15 -27.9 -44.7 -28.15 -43.8" fill="url(#gradient14)" fill-rule="evenodd" stroke="none"/>
    <path d="M-31.95 -43.25 Q-31.05 -43.25 -30.6 -41.5 L-30.3 -39.7 -30.4 -37.85 -30.4 -37.0 Q-30.5 -36.15 -31.1 -36.15 -31.95 -36.15 -32.35 -38.35 L-32.0 -39.3 -32.65 -41.7 Q-32.65 -43.25 -31.95 -43.25" fill="url(#gradient15)" fill-rule="evenodd" stroke="none"/>
    <path d="M-28.3 -28.3 L-27.5 -28.8 -27.4 -28.75 Q-27.0 -28.65 -26.9 -28.35 L-26.85 -27.95 Q-26.0 -27.75 -26.0 -27.15 L-26.15 -25.45 -25.7 -23.35 Q-25.7 -22.7 -26.4 -22.7 L-26.5 -22.7 -27.2 -23.05 -27.3 -22.3 -27.6 -22.2 Q-28.4 -22.2 -28.75 -23.9 L-28.9 -25.5 -28.8 -27.1 -28.8 -27.35 -28.3 -28.3" fill="url(#gradient16)" fill-rule="evenodd" stroke="none"/>
    <path d="M-33.45 -38.9 L-33.3 -38.25 Q-32.55 -35.95 -32.65 -35.05 L-32.65 -34.25 Q-32.6 -33.55 -32.1 -33.3 L-32.0 -33.25 Q-31.4 -32.9 -31.4 -32.15 L-32.0 -30.65 Q-32.7 -29.4 -33.35 -29.4 -35.25 -29.4 -35.95 -31.4 L-36.25 -32.75 -36.25 -33.4 -36.15 -34.3 Q-35.95 -35.1 -35.35 -35.05 L-35.65 -36.6 -35.65 -37.1 -35.3 -39.75 Q-34.4 -41.1 -33.8 -39.95 L-33.45 -38.9" fill="url(#gradient17)" fill-rule="evenodd" stroke="none"/>
  </g>
  <defs>
    <radialGradient cx="0" cy="0" gradientTransform="matrix(0.0043, 0.0, 0.0, 0.0043, -24.8, -33.25)" gradientUnits="userSpaceOnUse" id="gradient0" r="819.2" spreadMethod="pad">
      <stop offset="0.0" stop-color="#ffffff"/>
      <stop offset="0.3803921568627451" stop-color="#f0d66c"/>
      <stop offset="0.7450980392156863" stop-color="#945b21" stop-opacity="0.5803922"/>
      <stop offset="1.0" stop-color="#26372b" stop-opacity="0.18039216"/>
    </radialGradient>
    <radialGradient cx="0" cy="0" gradientTransform="matrix(0.0201, 0.0, 0.0, 0.0201, -35.25, -28.65)" gradientUnits="userSpaceOnUse" id="gradient1" r="819.2" spreadMethod="pad">
      <stop offset="0.0" stop-color="#ffffff"/>
      <stop offset="0.3803921568627451" stop-color="#f0d66c"/>
      <stop offset="0.7450980392156863" stop-color="#945b21" stop-opacity="0.5803922"/>
      <stop offset="1.0" stop-color="#26372b" stop-opacity="0.18039216"/>
    </radialGradient>
    <radialGradient cx="0" cy="0" gradientTransform="matrix(0.0182, 0.0, 0.0, 0.0182, -36.5, -27.75)" gradientUnits="userSpaceOnUse" id="gradient2" r="819.2" spreadMethod="pad">
      <stop offset="0.0" stop-color="#ffffff"/>
      <stop offset="0.3803921568627451" stop-color="#f0d66c"/>
      <stop offset="0.7450980392156863" stop-color="#945b21" stop-opacity="0.5803922"/>
      <stop offset="1.0" stop-color="#26372b" stop-opacity="0.18039216"/>
    </radialGradient>
    <radialGradient cx="0" cy="0" gradientTransform="matrix(0.003, 0.0, 0.0, 0.003, -23.35, -38.2)" gradientUnits="userSpaceOnUse" id="gradient3" r="819.2" spreadMethod="pad">
      <stop offset="0.0" stop-color="#ffffff"/>
      <stop offset="0.3803921568627451" stop-color="#f0d66c"/>
      <stop offset="0.7450980392156863" stop-color="#945b21" stop-opacity="0.5803922"/>
      <stop offset="1.0" stop-color="#26372b" stop-opacity="0.18039216"/>
    </radialGradient>
    <radialGradient cx="0" cy="0" gradientTransform="matrix(0.0068, 0.0, 0.0, 0.0068, -24.6, -21.45)" gradientUnits="userSpaceOnUse" id="gradient4" r="819.2" spreadMethod="pad">
      <stop offset="0.0" stop-color="#ffffff"/>
      <stop offset="0.3803921568627451" stop-color="#f0d66c"/>
      <stop offset="0.7450980392156863" stop-color="#945b21" stop-opacity="0.5803922"/>
      <stop offset="1.0" stop-color="#26372b" stop-opacity="0.18039216"/>
    </radialGradient>
    <radialGradient cx="0" cy="0" gradientTransform="matrix(0.0055, 0.0, 0.0, 0.0055, -23.8, -22.4)" gradientUnits="userSpaceOnUse" id="gradient5" r="819.2" spreadMethod="pad">
      <stop offset="0.0" stop-color="#ffffff"/>
      <stop offset="0.3803921568627451" stop-color="#f0d66c"/>
      <stop offset="0.7450980392156863" stop-color="#945b21" stop-opacity="0.5803922"/>
      <stop offset="1.0" stop-color="#26372b" stop-opacity="0.18039216"/>
    </radialGradient>
    <radialGradient cx="0" cy="0" gradientTransform="matrix(0.0021, 0.0, 0.0, 0.0021, -45.0, -38.6)" gradientUnits="userSpaceOnUse" id="gradient6" r="819.2" spreadMethod="pad">
      <stop offset="0.0" stop-color="#ffffff"/>
      <stop offset="0.3803921568627451" stop-color="#f0d66c"/>
      <stop offset="0.7450980392156863" stop-color="#945b21" stop-opacity="0.5803922"/>
      <stop offset="1.0" stop-color="#26372b" stop-opacity="0.18039216"/>
    </radialGradient>
    <radialGradient cx="0" cy="0" gradientTransform="matrix(0.0027, 0.0, 0.0, 0.0027, -44.85, -33.9)" gradientUnits="userSpaceOnUse" id="gradient7" r="819.2" spreadMethod="pad">
      <stop offset="0.0" stop-color="#ffffff"/>
      <stop offset="0.3803921568627451" stop-color="#f0d66c"/>
      <stop offset="0.7450980392156863" stop-color="#945b21" stop-opacity="0.5803922"/>
      <stop offset="1.0" stop-color="#26372b" stop-opacity="0.18039216"/>
    </radialGradient>
    <radialGradient cx="0" cy="0" gradientTransform="matrix(0.0029, 0.0, 0.0, 0.0029, -44.3, -29.25)" gradientUnits="userSpaceOnUse" id="gradient8" r="819.2" spreadMethod="pad">
      <stop offset="0.0" stop-color="#ffffff"/>
      <stop offset="0.3803921568627451" stop-color="#f0d66c"/>
      <stop offset="0.7450980392156863" stop-color="#945b21" stop-opacity="0.5803922"/>
      <stop offset="1.0" stop-color="#26372b" stop-opacity="0.18039216"/>
    </radialGradient>
    <radialGradient cx="0" cy="0" gradientTransform="matrix(0.0026, 0.0, 0.0, 0.0026, -40.8, -34.7)" gradientUnits="userSpaceOnUse" id="gradient9" r="819.2" spreadMethod="pad">
      <stop offset="0.0" stop-color="#ffffff"/>
      <stop offset="0.3803921568627451" stop-color="#f0d66c"/>
      <stop offset="0.7450980392156863" stop-color="#945b21" stop-opacity="0.5803922"/>
      <stop offset="1.0" stop-color="#26372b" stop-opacity="0.18039216"/>
    </radialGradient>
    <radialGradient cx="0" cy="0" gradientTransform="matrix(0.0041, 0.0, 0.0, 0.0041, -41.55, -40.8)" gradientUnits="userSpaceOnUse" id="gradient10" r="819.2" spreadMethod="pad">
      <stop offset="0.0" stop-color="#ffffff"/>
      <stop offset="0.3803921568627451" stop-color="#f0d66c"/>
      <stop offset="0.7450980392156863" stop-color="#945b21" stop-opacity="0.5803922"/>
      <stop offset="1.0" stop-color="#26372b" stop-opacity="0.18039216"/>
    </radialGradient>
    <radialGradient cx="0" cy="0" gradientTransform="matrix(0.001, 0.0, 0.0, 0.001, -42.0, -46.5)" gradientUnits="userSpaceOnUse" id="gradient11" r="819.2" spreadMethod="pad">
      <stop offset="0.0" stop-color="#ffffff"/>
      <stop offset="0.3803921568627451" stop-color="#f0d66c"/>
      <stop offset="0.7450980392156863" stop-color="#945b21" stop-opacity="0.5803922"/>
      <stop offset="1.0" stop-color="#26372b" stop-opacity="0.18039216"/>
    </radialGradient>
    <radialGradient cx="0" cy="0" gradientTransform="matrix(0.0033, 0.0, 0.0, 0.0033, -34.45, -46.2)" gradientUnits="userSpaceOnUse" id="gradient12" r="819.2" spreadMethod="pad">
      <stop offset="0.0" stop-color="#ffffff"/>
      <stop offset="0.3803921568627451" stop-color="#f0d66c"/>
      <stop offset="0.7450980392156863" stop-color="#945b21" stop-opacity="0.5803922"/>
      <stop offset="1.0" stop-color="#26372b" stop-opacity="0.18039216"/>
    </radialGradient>
    <radialGradient cx="0" cy="0" gradientTransform="matrix(0.0045, 0.0, 0.0, 0.0045, -37.1, -35.35)" gradientUnits="userSpaceOnUse" id="gradient13" r="819.2" spreadMethod="pad">
      <stop offset="0.0" stop-color="#ffffff"/>
      <stop offset="0.3803921568627451" stop-color="#f0d66c"/>
      <stop offset="0.7450980392156863" stop-color="#945b21" stop-opacity="0.5803922"/>
      <stop offset="1.0" stop-color="#26372b" stop-opacity="0.18039216"/>
    </radialGradient>
    <radialGradient cx="0" cy="0" gradientTransform="matrix(9.0E-4, 0.0, 0.0, 9.0E-4, -28.25, -44.45)" gradientUnits="userSpaceOnUse" id="gradient14" r="819.2" spreadMethod="pad">
      <stop offset="0.0" stop-color="#ffffff"/>
      <stop offset="0.3803921568627451" stop-color="#f0d66c"/>
      <stop offset="0.7450980392156863" stop-color="#945b21" stop-opacity="0.5803922"/>
      <stop offset="1.0" stop-color="#26372b" stop-opacity="0.18039216"/>
    </radialGradient>
    <radialGradient cx="0" cy="0" gradientTransform="matrix(0.0046, 0.0, 0.0, 0.0046, -31.45, -39.7)" gradientUnits="userSpaceOnUse" id="gradient15" r="819.2" spreadMethod="pad">
      <stop offset="0.0" stop-color="#ffffff"/>
      <stop offset="0.3803921568627451" stop-color="#f0d66c"/>
      <stop offset="0.7450980392156863" stop-color="#945b21" stop-opacity="0.5803922"/>
      <stop offset="1.0" stop-color="#26372b" stop-opacity="0.18039216"/>
    </radialGradient>
    <radialGradient cx="0" cy="0" gradientTransform="matrix(0.0046, 0.0, 0.0, 0.0046, -27.3, -25.5)" gradientUnits="userSpaceOnUse" id="gradient16" r="819.2" spreadMethod="pad">
      <stop offset="0.0" stop-color="#ffffff"/>
      <stop offset="0.3803921568627451" stop-color="#f0d66c"/>
      <stop offset="0.7450980392156863" stop-color="#945b21" stop-opacity="0.5803922"/>
      <stop offset="1.0" stop-color="#26372b" stop-opacity="0.18039216"/>
    </radialGradient>
    <radialGradient cx="0" cy="0" gradientTransform="matrix(0.0068, 0.0, 0.0, 0.0068, -33.85, -34.95)" gradientUnits="userSpaceOnUse" id="gradient17" r="819.2" spreadMethod="pad">
      <stop offset="0.0" stop-color="#ffffff"/>
      <stop offset="0.3803921568627451" stop-color="#f0d66c"/>
      <stop offset="0.7450980392156863" stop-color="#945b21" stop-opacity="0.5803922"/>
      <stop offset="1.0" stop-color="#26372b" stop-opacity="0.18039216"/>
    </radialGradient>
  </defs>
</svg>
