<?xml version="1.0" encoding="UTF-8" standalone="no"?>
<svg xmlns:ffdec="https://www.free-decompiler.com/flash" xmlns:xlink="http://www.w3.org/1999/xlink" ffdec:objectType="shape" height="36.25px" width="24.85px" xmlns="http://www.w3.org/2000/svg">
  <g transform="matrix(1.0, 0.0, 0.0, 1.0, 46.05, 50.6)">
    <path d="M-39.15 -36.45 L-38.8 -36.45 -37.9 -36.2 -37.05 -36.0 Q-36.4 -36.0 -36.4 -37.2 L-36.4 -37.95 Q-36.05 -36.9 -35.3 -36.45 -35.5 -35.05 -36.85 -35.05 L-37.85 -35.3 -38.5 -35.5 -39.05 -36.3 -39.15 -36.45 M-33.15 -36.95 L-32.85 -35.9 Q-32.65 -35.15 -31.35 -34.25 -29.95 -33.4 -29.75 -32.8 L-29.75 -28.7 -29.25 -28.3 Q-28.75 -28.3 -28.4 -28.85 L-27.55 -29.4 -27.1 -29.35 -26.4 -29.1 Q-26.05 -28.85 -26.05 -28.4 L-26.3 -27.25 -25.65 -26.05 -24.7 -24.9 -23.3 -24.9 Q-23.2 -25.1 -23.25 -25.9 -23.15 -26.6 -22.4 -26.6 -21.7 -26.6 -21.5 -26.0 L-21.4 -25.4 -21.6 -24.05 -21.9 -22.6 Q-21.95 -21.95 -22.4 -21.35 L-23.65 -19.8 -24.25 -18.45 Q-24.55 -17.6 -25.35 -17.0 L-27.7 -14.85 Q-28.3 -14.35 -29.6 -14.35 -32.0 -14.35 -32.95 -15.55 L-33.95 -17.25 -38.05 -20.15 -44.85 -23.2 Q-45.6 -23.5 -45.6 -25.35 L-45.8 -26.55 -46.05 -28.2 Q-46.05 -30.05 -45.15 -29.7 L-44.5 -29.7 -44.3 -29.8 -44.35 -29.05 -44.3 -28.55 -45.15 -28.55 -45.15 -27.65 -44.5 -25.05 Q-44.5 -24.7 -44.75 -24.45 -42.65 -24.0 -39.75 -22.65 -37.2 -21.45 -35.65 -20.35 L-32.5 -18.0 -31.85 -16.75 Q-31.3 -15.9 -29.6 -15.9 -28.15 -15.9 -26.55 -17.55 -25.3 -18.85 -25.0 -19.75 L-23.55 -21.7 Q-22.55 -22.95 -22.95 -23.65 -24.8 -22.75 -26.4 -25.0 -27.85 -27.1 -27.3 -28.2 L-27.35 -28.25 -27.7 -27.55 Q-27.8 -27.2 -28.35 -27.2 -29.8 -27.2 -30.3 -27.65 L-30.75 -28.3 -30.75 -32.55 Q-30.8 -33.4 -31.85 -33.75 L-33.15 -34.2 -33.85 -35.9 -33.95 -36.3 Q-33.5 -36.45 -33.15 -36.95 M-44.15 -30.5 Q-44.25 -31.35 -44.8 -32.3 L-45.45 -33.8 -45.25 -33.8 Q-44.85 -33.8 -44.65 -34.75 L-44.5 -35.75 -44.5 -36.15 Q-43.9 -37.25 -43.4 -37.25 L-42.7 -36.55 -42.7 -35.5 -42.7 -34.6 -42.8 -34.7 -43.45 -35.55 Q-44.5 -34.85 -44.5 -34.15 L-43.75 -32.8 Q-43.05 -31.5 -43.05 -30.25 -43.05 -29.35 -43.2 -29.15 L-43.55 -28.8 -43.75 -30.3 -43.7 -31.05 Q-44.0 -31.15 -44.15 -30.5 M-41.2 -34.05 L-41.25 -34.45 -41.2 -34.45 -41.05 -34.15 -41.2 -34.05" fill="url(#gradient0)" fill-rule="evenodd" stroke="none"/>
    <path d="M-42.7 -34.6 Q-42.8 -31.8 -42.0 -31.8 -41.2 -31.8 -41.15 -32.8 L-41.2 -34.05 -41.05 -34.15 -38.55 -29.75 -37.8 -31.25 -37.55 -31.95 -37.35 -32.55 Q-37.35 -33.65 -37.65 -34.25 L-38.5 -35.5 -37.85 -35.3 -36.85 -35.05 Q-35.5 -35.05 -35.3 -36.45 L-34.4 -36.25 -33.95 -36.3 -33.85 -35.9 -33.15 -34.2 -31.85 -33.75 Q-30.8 -33.4 -30.75 -32.55 L-30.75 -28.3 -30.3 -27.65 Q-29.8 -27.2 -28.35 -27.2 -27.8 -27.2 -27.7 -27.55 L-27.35 -28.25 -27.3 -28.2 Q-27.85 -27.1 -26.4 -25.0 -24.8 -22.75 -22.95 -23.65 -22.55 -22.95 -23.55 -21.7 L-25.0 -19.75 Q-25.3 -18.85 -26.55 -17.55 -28.15 -15.9 -29.6 -15.9 -31.3 -15.9 -31.85 -16.75 L-32.5 -18.0 -35.65 -20.35 Q-37.2 -21.45 -39.75 -22.65 -42.65 -24.0 -44.75 -24.45 -44.5 -24.7 -44.5 -25.05 L-45.15 -27.65 -45.15 -28.55 -44.3 -28.55 -43.85 -28.45 -43.6 -28.5 -43.55 -28.8 -43.2 -29.15 Q-43.05 -29.35 -43.05 -30.25 -43.05 -31.5 -43.75 -32.8 L-44.5 -34.15 Q-44.5 -34.85 -43.45 -35.55 L-42.8 -34.7 -42.7 -34.6 M-30.1 -22.35 L-29.9 -22.9 Q-29.9 -23.7 -30.45 -23.5 -32.25 -26.15 -32.25 -23.7 L-32.2 -22.75 Q-31.9 -21.95 -30.75 -21.95 -30.35 -21.95 -30.1 -22.35" fill="url(#gradient1)" fill-rule="evenodd" stroke="none"/>
    <path d="M-36.4 -37.95 L-36.5 -38.2 -36.8 -40.15 -36.75 -42.25 Q-36.45 -44.0 -35.35 -44.05 L-35.3 -43.75 -35.15 -43.9 -35.1 -44.05 Q-33.75 -43.95 -33.0 -42.6 -32.45 -41.65 -32.45 -41.0 -32.45 -39.3 -32.6 -38.5 -32.8 -37.5 -33.15 -36.95 -33.5 -36.45 -33.95 -36.3 L-34.4 -36.25 -35.3 -36.45 Q-36.05 -36.9 -36.4 -37.95" fill="url(#gradient2)" fill-rule="evenodd" stroke="none"/>
    <path d="M-35.35 -44.05 L-35.5 -45.25 Q-36.2 -45.3 -36.35 -45.7 L-36.4 -46.4 Q-36.4 -47.6 -35.65 -47.5 -34.95 -47.4 -34.95 -46.25 L-35.1 -44.05 -35.15 -43.9 -35.3 -43.75 -35.35 -44.05" fill="url(#gradient3)" fill-rule="evenodd" stroke="none"/>
    <path d="M-32.0 -46.35 Q-30.9 -45.7 -30.85 -44.3 L-30.65 -42.4 -30.4 -40.85 -30.65 -40.15 Q-31.75 -41.1 -33.05 -45.6 -33.05 -47.05 -32.0 -46.35" fill="url(#gradient4)" fill-rule="evenodd" stroke="none"/>
    <path d="M-35.9 -50.05 L-36.25 -49.85 -36.5 -50.25 -36.35 -50.35 Q-36.25 -50.4 -36.25 -50.6 -35.9 -50.4 -35.9 -50.05" fill="url(#gradient5)" fill-rule="evenodd" stroke="none"/>
    <path d="M-25.65 -41.6 Q-24.75 -41.3 -24.75 -39.45 L-25.15 -37.85 -24.95 -37.4 -24.75 -37.0 -24.95 -36.55 -25.35 -36.3 Q-26.15 -36.3 -26.45 -38.05 L-26.55 -39.75 Q-26.55 -41.95 -25.65 -41.6" fill="url(#gradient6)" fill-rule="evenodd" stroke="none"/>
    <path d="M-24.75 -43.65 L-24.5 -43.0 -24.75 -42.8 -25.05 -43.25 -24.9 -43.4 Q-24.75 -43.45 -24.75 -43.65" fill="url(#gradient7)" fill-rule="evenodd" stroke="none"/>
    <path d="M-27.1 -29.35 L-28.05 -30.75 -28.3 -32.3 Q-28.3 -33.8 -27.4 -33.9 L-27.45 -33.35 Q-27.45 -32.9 -26.8 -32.9 L-26.25 -33.3 -26.05 -33.5 Q-25.1 -32.85 -25.1 -31.1 L-25.1 -30.0 Q-25.25 -29.1 -26.1 -29.1 L-26.4 -29.1 -27.1 -29.35" fill="url(#gradient8)" fill-rule="evenodd" stroke="none"/>
    <path d="M-23.6 -33.75 Q-23.6 -35.1 -22.85 -34.75 -22.2 -34.4 -21.55 -32.9 -21.2 -31.3 -21.2 -29.65 -21.2 -29.0 -21.75 -28.65 L-23.15 -31.35 Q-23.6 -32.4 -23.6 -33.75" fill="url(#gradient9)" fill-rule="evenodd" stroke="none"/>
    <path d="M-27.4 -33.9 Q-27.3 -35.4 -26.55 -35.55 L-26.4 -35.25 -26.65 -34.4 Q-25.9 -34.4 -25.9 -34.0 L-26.05 -33.5 -26.25 -33.3 -26.8 -32.9 Q-27.45 -32.9 -27.45 -33.35 L-27.4 -33.9" fill="url(#gradient10)" fill-rule="evenodd" stroke="none"/>
    <path d="M-41.25 -45.0 Q-41.4 -43.8 -42.1 -43.8 -42.5 -43.8 -42.6 -45.4 -42.6 -46.4 -41.9 -46.75 -41.2 -47.1 -41.2 -46.35 -41.15 -45.6 -41.25 -45.0" fill="url(#gradient11)" fill-rule="evenodd" stroke="none"/>
    <path d="M-42.7 -36.55 L-42.7 -37.8 Q-42.45 -40.0 -41.3 -40.0 -40.2 -40.0 -40.1 -39.2 L-40.2 -38.2 -39.15 -36.45 -39.05 -36.3 -38.5 -35.5 -37.65 -34.25 Q-37.35 -33.65 -37.35 -32.55 L-37.55 -31.95 -37.8 -31.25 -38.55 -29.75 -41.05 -34.15 -41.2 -34.45 -41.25 -34.45 -41.2 -34.05 -41.15 -32.8 Q-41.2 -31.8 -42.0 -31.8 -42.8 -31.8 -42.7 -34.6 L-42.7 -35.5 -42.7 -36.55" fill="url(#gradient12)" fill-rule="evenodd" stroke="none"/>
    <path d="M-45.45 -33.8 Q-46.0 -34.0 -45.85 -35.0 -45.85 -35.9 -45.15 -36.4 -44.65 -36.75 -44.5 -36.15 L-44.5 -35.75 -44.65 -34.75 Q-44.85 -33.8 -45.25 -33.8 L-45.45 -33.8" fill="url(#gradient13)" fill-rule="evenodd" stroke="none"/>
    <path d="M-44.3 -29.8 L-44.2 -30.35 -44.15 -30.5 Q-44.0 -31.15 -43.7 -31.05 L-43.75 -30.3 -43.55 -28.8 -43.6 -28.5 -43.85 -28.45 -44.3 -28.55 -44.35 -29.05 -44.3 -29.8" fill="url(#gradient14)" fill-rule="evenodd" stroke="none"/>
    <path d="M-30.1 -22.35 Q-30.35 -21.95 -30.75 -21.95 -31.9 -21.95 -32.2 -22.75 L-32.25 -23.7 Q-32.25 -26.15 -30.45 -23.5 -29.9 -23.7 -29.9 -22.9 L-30.1 -22.35" fill="url(#gradient15)" fill-rule="evenodd" stroke="none"/>
  </g>
  <defs>
    <radialGradient cx="0" cy="0" gradientTransform="matrix(0.0177, 0.0, 0.0, 0.0177, -33.7, -27.55)" gradientUnits="userSpaceOnUse" id="gradient0" r="819.2" spreadMethod="pad">
      <stop offset="0.0" stop-color="#ffffff"/>
      <stop offset="0.3803921568627451" stop-color="#f0d66c"/>
      <stop offset="0.7450980392156863" stop-color="#945b21" stop-opacity="0.5803922"/>
      <stop offset="1.0" stop-color="#26372b" stop-opacity="0.18039216"/>
    </radialGradient>
    <radialGradient cx="0" cy="0" gradientTransform="matrix(0.017, 0.0, 0.0, 0.017, -33.1, -26.5)" gradientUnits="userSpaceOnUse" id="gradient1" r="819.2" spreadMethod="pad">
      <stop offset="0.0" stop-color="#ffffff"/>
      <stop offset="0.3803921568627451" stop-color="#f0d66c"/>
      <stop offset="0.7450980392156863" stop-color="#945b21" stop-opacity="0.5803922"/>
      <stop offset="1.0" stop-color="#26372b" stop-opacity="0.18039216"/>
    </radialGradient>
    <radialGradient cx="0" cy="0" gradientTransform="matrix(0.0056, 0.0, 0.0, 0.0056, -34.6, -40.15)" gradientUnits="userSpaceOnUse" id="gradient2" r="819.2" spreadMethod="pad">
      <stop offset="0.0" stop-color="#ffffff"/>
      <stop offset="0.3803921568627451" stop-color="#f0d66c"/>
      <stop offset="0.7450980392156863" stop-color="#945b21" stop-opacity="0.5803922"/>
      <stop offset="1.0" stop-color="#26372b" stop-opacity="0.18039216"/>
    </radialGradient>
    <radialGradient cx="0" cy="0" gradientTransform="matrix(0.0024, 0.0, 0.0, 0.0024, -35.65, -45.65)" gradientUnits="userSpaceOnUse" id="gradient3" r="819.2" spreadMethod="pad">
      <stop offset="0.0" stop-color="#ffffff"/>
      <stop offset="0.3803921568627451" stop-color="#f0d66c"/>
      <stop offset="0.7450980392156863" stop-color="#945b21" stop-opacity="0.5803922"/>
      <stop offset="1.0" stop-color="#26372b" stop-opacity="0.18039216"/>
    </radialGradient>
    <radialGradient cx="0" cy="0" gradientTransform="matrix(0.0045, 0.0, 0.0, 0.0045, -31.7, -43.35)" gradientUnits="userSpaceOnUse" id="gradient4" r="819.2" spreadMethod="pad">
      <stop offset="0.0" stop-color="#ffffff"/>
      <stop offset="0.3803921568627451" stop-color="#f0d66c"/>
      <stop offset="0.7450980392156863" stop-color="#945b21" stop-opacity="0.5803922"/>
      <stop offset="1.0" stop-color="#26372b" stop-opacity="0.18039216"/>
    </radialGradient>
    <radialGradient cx="0" cy="0" gradientTransform="matrix(8.0E-4, 0.0, 0.0, 8.0E-4, -36.2, -50.2)" gradientUnits="userSpaceOnUse" id="gradient5" r="819.2" spreadMethod="pad">
      <stop offset="0.0" stop-color="#ffffff"/>
      <stop offset="0.3803921568627451" stop-color="#f0d66c"/>
      <stop offset="0.7450980392156863" stop-color="#945b21" stop-opacity="0.5803922"/>
      <stop offset="1.0" stop-color="#26372b" stop-opacity="0.18039216"/>
    </radialGradient>
    <radialGradient cx="0" cy="0" gradientTransform="matrix(0.0035, 0.0, 0.0, 0.0035, -25.65, -38.95)" gradientUnits="userSpaceOnUse" id="gradient6" r="819.2" spreadMethod="pad">
      <stop offset="0.0" stop-color="#ffffff"/>
      <stop offset="0.3803921568627451" stop-color="#f0d66c"/>
      <stop offset="0.7450980392156863" stop-color="#945b21" stop-opacity="0.5803922"/>
      <stop offset="1.0" stop-color="#26372b" stop-opacity="0.18039216"/>
    </radialGradient>
    <radialGradient cx="0" cy="0" gradientTransform="matrix(8.0E-4, 0.0, 0.0, 8.0E-4, -24.75, -43.2)" gradientUnits="userSpaceOnUse" id="gradient7" r="819.2" spreadMethod="pad">
      <stop offset="0.0" stop-color="#ffffff"/>
      <stop offset="0.3803921568627451" stop-color="#f0d66c"/>
      <stop offset="0.7450980392156863" stop-color="#945b21" stop-opacity="0.5803922"/>
      <stop offset="1.0" stop-color="#26372b" stop-opacity="0.18039216"/>
    </radialGradient>
    <radialGradient cx="0" cy="0" gradientTransform="matrix(0.0031, 0.0, 0.0, 0.0031, -26.65, -31.5)" gradientUnits="userSpaceOnUse" id="gradient8" r="819.2" spreadMethod="pad">
      <stop offset="0.0" stop-color="#ffffff"/>
      <stop offset="0.3803921568627451" stop-color="#f0d66c"/>
      <stop offset="0.7450980392156863" stop-color="#945b21" stop-opacity="0.5803922"/>
      <stop offset="1.0" stop-color="#26372b" stop-opacity="0.18039216"/>
    </radialGradient>
    <radialGradient cx="0" cy="0" gradientTransform="matrix(0.0044, 0.0, 0.0, 0.0044, -22.4, -31.75)" gradientUnits="userSpaceOnUse" id="gradient9" r="819.2" spreadMethod="pad">
      <stop offset="0.0" stop-color="#ffffff"/>
      <stop offset="0.3803921568627451" stop-color="#f0d66c"/>
      <stop offset="0.7450980392156863" stop-color="#945b21" stop-opacity="0.5803922"/>
      <stop offset="1.0" stop-color="#26372b" stop-opacity="0.18039216"/>
    </radialGradient>
    <radialGradient cx="0" cy="0" gradientTransform="matrix(0.0024, 0.0, 0.0, 0.0024, -26.65, -34.2)" gradientUnits="userSpaceOnUse" id="gradient10" r="819.2" spreadMethod="pad">
      <stop offset="0.0" stop-color="#ffffff"/>
      <stop offset="0.3803921568627451" stop-color="#f0d66c"/>
      <stop offset="0.7450980392156863" stop-color="#945b21" stop-opacity="0.5803922"/>
      <stop offset="1.0" stop-color="#26372b" stop-opacity="0.18039216"/>
    </radialGradient>
    <radialGradient cx="0" cy="0" gradientTransform="matrix(0.0026, 0.0, 0.0, 0.0026, -41.9, -45.35)" gradientUnits="userSpaceOnUse" id="gradient11" r="819.2" spreadMethod="pad">
      <stop offset="0.0" stop-color="#ffffff"/>
      <stop offset="0.3803921568627451" stop-color="#f0d66c"/>
      <stop offset="0.7450980392156863" stop-color="#945b21" stop-opacity="0.5803922"/>
      <stop offset="1.0" stop-color="#26372b" stop-opacity="0.18039216"/>
    </radialGradient>
    <radialGradient cx="0" cy="0" gradientTransform="matrix(0.0072, 0.0, 0.0, 0.0072, -40.05, -34.85)" gradientUnits="userSpaceOnUse" id="gradient12" r="819.2" spreadMethod="pad">
      <stop offset="0.0" stop-color="#ffffff"/>
      <stop offset="0.3803921568627451" stop-color="#f0d66c"/>
      <stop offset="0.7450980392156863" stop-color="#945b21" stop-opacity="0.5803922"/>
      <stop offset="1.0" stop-color="#26372b" stop-opacity="0.18039216"/>
    </radialGradient>
    <radialGradient cx="0" cy="0" gradientTransform="matrix(0.0021, 0.0, 0.0, 0.0021, -45.2, -35.15)" gradientUnits="userSpaceOnUse" id="gradient13" r="819.2" spreadMethod="pad">
      <stop offset="0.0" stop-color="#ffffff"/>
      <stop offset="0.3803921568627451" stop-color="#f0d66c"/>
      <stop offset="0.7450980392156863" stop-color="#945b21" stop-opacity="0.5803922"/>
      <stop offset="1.0" stop-color="#26372b" stop-opacity="0.18039216"/>
    </radialGradient>
    <radialGradient cx="0" cy="0" gradientTransform="matrix(0.0016, 0.0, 0.0, 0.0016, -43.95, -29.75)" gradientUnits="userSpaceOnUse" id="gradient14" r="819.2" spreadMethod="pad">
      <stop offset="0.0" stop-color="#ffffff"/>
      <stop offset="0.3803921568627451" stop-color="#f0d66c"/>
      <stop offset="0.7450980392156863" stop-color="#945b21" stop-opacity="0.5803922"/>
      <stop offset="1.0" stop-color="#26372b" stop-opacity="0.18039216"/>
    </radialGradient>
    <radialGradient cx="0" cy="0" gradientTransform="matrix(0.0024, 0.0, 0.0, 0.0024, -31.05, -23.4)" gradientUnits="userSpaceOnUse" id="gradient15" r="819.2" spreadMethod="pad">
      <stop offset="0.0" stop-color="#ffffff"/>
      <stop offset="0.3803921568627451" stop-color="#f0d66c"/>
      <stop offset="0.7450980392156863" stop-color="#945b21" stop-opacity="0.5803922"/>
      <stop offset="1.0" stop-color="#26372b" stop-opacity="0.18039216"/>
    </radialGradient>
  </defs>
</svg>
