<?xml version="1.0" encoding="UTF-8" standalone="no"?>
<svg xmlns:ffdec="https://www.free-decompiler.com/flash" xmlns:xlink="http://www.w3.org/1999/xlink" ffdec:objectType="shape" height="38.25px" width="86.65px" xmlns="http://www.w3.org/2000/svg">
  <g transform="matrix(1.0, 0.0, 0.0, 1.0, 65.1, 44.35)">
    <path d="M-10.45 -29.0 L-5.9 -24.1 Q-4.8 -22.5 -4.8 -19.8 L-4.85 -17.65 Q-5.0 -16.35 -5.5 -15.4 -6.0 -14.45 -7.15 -13.2 -8.75 -11.4 -9.8 -11.4 L-9.9 -11.4 -10.4 -10.95 -11.3 -10.2 -11.55 -9.1 Q-11.65 -8.35 -11.9 -8.15 -12.1 -7.9 -12.75 -8.0 L-14.65 -8.1 -16.05 -7.65 -17.0 -6.8 Q-17.65 -6.1 -17.95 -6.1 -18.3 -6.1 -19.65 -6.75 -21.0 -7.4 -21.55 -7.8 -22.15 -8.25 -22.15 -8.8 L-22.25 -9.75 -23.4 -11.65 Q-24.65 -13.25 -25.65 -13.25 -26.05 -13.25 -26.65 -12.65 -27.2 -12.1 -27.5 -12.1 L-29.55 -12.8 -31.65 -13.65 -31.9 -13.8 -31.75 -14.05 Q-33.6 -14.5 -35.5 -19.25 -35.5 -20.4 -35.05 -20.95 -34.4 -21.75 -34.0 -23.25 -33.9 -25.85 -33.05 -27.05 L-32.15 -27.05 Q-31.9 -26.7 -31.9 -25.9 L-31.95 -24.75 -29.8 -24.8 Q-29.1 -24.95 -28.15 -25.75 L-26.95 -27.05 -26.95 -27.9 -27.05 -28.1 Q-27.65 -27.95 -28.75 -27.0 L-29.5 -27.0 -29.75 -27.3 Q-29.75 -29.85 -28.8 -31.7 -27.45 -34.4 -24.25 -35.25 L-21.25 -35.25 Q-19.25 -35.05 -15.95 -33.35 -12.45 -31.55 -12.45 -30.4 -12.45 -29.9 -12.8 -29.6 L-13.2 -29.0 Q-13.2 -28.65 -12.05 -27.5 L-11.15 -27.5 -11.3 -28.15 -11.45 -28.55 -11.25 -29.05 -10.45 -29.0" fill="url(#gradient0)" fill-rule="evenodd" stroke="none"/>
    <path d="M-42.95 -27.3 L-43.1 -27.8 -42.8 -28.9 -42.9 -29.2 -42.75 -29.95 Q-42.4 -28.65 -41.8 -28.65 L-41.1 -28.95 -41.0 -28.9 -41.05 -28.9 -40.9 -26.9 -42.15 -27.25 -42.95 -27.3 M-39.6 -30.5 L-39.05 -30.45 -38.5 -30.3 Q-37.75 -30.1 -37.05 -29.6 L-37.4 -28.3 Q-37.4 -27.7 -37.0 -27.25 L-36.65 -26.35 -37.1 -27.15 -37.15 -26.55 -36.75 -25.8 -36.8 -25.65 -37.35 -26.45 -37.45 -26.55 Q-37.45 -28.7 -39.5 -30.25 L-39.6 -30.5 M-34.35 -26.25 L-34.2 -25.9 -34.1 -25.65 -34.25 -25.6 -34.25 -25.2 -34.6 -24.95 -34.3 -24.9 -34.4 -23.8 -35.0 -23.8 -35.5 -23.95 -35.55 -24.0 -36.3 -25.7 -36.25 -26.0 -36.1 -26.85 -36.55 -27.85 -36.2 -28.85 -35.55 -28.15 -35.35 -27.2 Q-35.05 -26.5 -34.35 -26.25 M-36.0 -24.1 L-36.55 -25.2 -36.5 -25.3 -35.95 -24.1 -36.0 -24.1 M-38.95 -23.8 L-39.15 -23.8 Q-39.75 -23.8 -39.95 -24.25 L-40.35 -24.85 -39.7 -24.35 -38.95 -23.8 M-40.8 -25.2 L-41.05 -25.3 -41.05 -25.4 -40.8 -25.2 M-33.95 -22.65 L-34.45 -22.45 -34.6 -22.25 -34.9 -22.35 -34.95 -22.45 Q-34.4 -22.6 -34.1 -22.85 L-33.95 -22.65 M-33.65 -24.0 L-33.65 -24.55 -33.65 -24.7 -33.4 -24.1 -33.65 -24.0" fill="url(#gradient1)" fill-rule="evenodd" stroke="none"/>
    <path d="M-42.8 -30.0 L-43.0 -30.35 -42.95 -30.65 -42.8 -30.0 M-37.45 -26.55 L-38.45 -27.3 Q-38.95 -27.55 -39.05 -28.05 L-39.2 -29.1 -39.5 -30.25 Q-37.45 -28.7 -37.45 -26.55" fill="url(#gradient2)" fill-rule="evenodd" stroke="none"/>
    <path d="M-42.75 -29.95 L-42.8 -30.0 -42.95 -30.65 -43.15 -31.7 Q-42.4 -31.8 -42.4 -32.65 -42.4 -33.3 -43.15 -33.95 L-42.9 -34.25 -41.35 -34.35 -40.7 -33.55 -40.5 -32.65 -39.75 -30.85 -39.6 -30.5 -39.5 -30.25 -39.2 -29.1 -39.05 -28.05 Q-38.95 -27.55 -38.45 -27.3 L-37.45 -26.55 -37.35 -26.45 -36.8 -25.65 -36.85 -25.45 -36.6 -25.2 -36.55 -25.2 -36.0 -24.1 Q-37.15 -24.6 -38.85 -25.7 L-39.8 -26.3 -39.75 -26.3 -39.8 -26.5 -40.15 -26.5 -40.9 -26.9 -41.05 -28.9 -41.0 -28.9 -41.1 -28.95 -41.8 -28.65 Q-42.4 -28.65 -42.75 -29.95 M-37.45 -22.3 L-37.6 -23.0 Q-36.5 -22.4 -35.75 -22.4 L-37.45 -22.3" fill="url(#gradient3)" fill-rule="evenodd" stroke="none"/>
    <path d="M-43.15 -31.7 L-43.3 -31.7 Q-43.95 -31.7 -45.4 -33.95 -45.4 -35.55 -43.9 -34.55 L-43.15 -33.95 Q-42.4 -33.3 -42.4 -32.65 -42.4 -31.8 -43.15 -31.7" fill="url(#gradient4)" fill-rule="evenodd" stroke="none"/>
    <path d="M-45.5 -39.15 L-45.15 -39.2 Q-44.25 -39.1 -44.25 -37.7 L-44.3 -36.9 Q-44.45 -36.25 -45.15 -36.25 L-45.75 -36.4 -45.7 -36.55 -46.0 -36.8 -46.1 -37.7 -46.05 -38.2 -45.95 -38.25 Q-45.8 -38.25 -45.65 -38.05 L-45.35 -37.85 -45.1 -38.05 -44.95 -38.45 Q-44.95 -38.7 -45.5 -39.15" fill="url(#gradient5)" fill-rule="evenodd" stroke="none"/>
    <path d="M-39.05 -30.45 Q-39.5 -30.65 -39.55 -31.15 L-39.4 -32.65 -39.65 -34.8 Q-39.65 -36.2 -38.95 -35.5 -39.35 -35.35 -39.35 -35.0 -39.35 -34.15 -38.25 -32.7 L-37.85 -32.2 -37.85 -31.65 -37.2 -31.6 -36.65 -31.25 -37.0 -30.4 -38.25 -30.3 -38.5 -30.3 -39.05 -30.45 M-36.55 -25.2 L-36.6 -25.2 -36.85 -25.45 -36.8 -25.65 -36.75 -25.8 -36.65 -26.2 -36.65 -26.35 -37.0 -27.25 Q-37.4 -27.7 -37.4 -28.3 L-37.05 -29.6 -37.0 -29.75 -36.6 -29.25 -36.15 -28.95 -36.2 -28.85 -36.55 -27.85 -36.1 -26.85 -36.25 -26.0 -36.3 -25.7 -36.5 -25.3 -36.55 -25.2 M-36.4 -31.15 L-36.15 -31.05 -36.25 -30.6 Q-36.25 -30.1 -35.85 -29.9 L-36.55 -30.1 -36.6 -30.5 -36.4 -31.15" fill="url(#gradient6)" fill-rule="evenodd" stroke="none"/>
    <path d="M-41.25 -36.7 Q-41.25 -37.25 -40.75 -37.1 L-40.35 -35.9 -40.55 -35.7 -41.25 -36.7" fill="url(#gradient7)" fill-rule="evenodd" stroke="none"/>
    <path d="M-44.15 -29.7 Q-45.1 -29.7 -45.1 -30.65 -45.1 -32.1 -43.2 -30.4 -43.2 -29.7 -44.15 -29.7" fill="url(#gradient8)" fill-rule="evenodd" stroke="none"/>
    <path d="M-47.15 -35.25 Q-46.6 -35.25 -46.6 -34.3 -46.6 -33.45 -47.05 -33.45 -47.85 -33.45 -47.75 -34.35 -47.75 -35.25 -47.15 -35.25" fill="url(#gradient9)" fill-rule="evenodd" stroke="none"/>
    <path d="M-46.05 -38.2 L-46.2 -38.1 Q-46.3 -38.0 -46.45 -38.0 -47.25 -38.0 -47.05 -39.2 L-47.0 -40.15 -45.8 -39.4 -45.5 -39.15 Q-44.95 -38.7 -44.95 -38.45 L-45.1 -38.05 -45.35 -37.85 -45.65 -38.05 Q-45.8 -38.25 -45.95 -38.25 L-46.05 -38.2" fill="url(#gradient10)" fill-rule="evenodd" stroke="none"/>
    <path d="M-48.35 -42.7 Q-47.4 -42.5 -47.35 -41.3 L-47.3 -39.4 -47.7 -39.5 Q-48.45 -39.5 -48.4 -40.75 L-48.35 -42.7" fill="url(#gradient11)" fill-rule="evenodd" stroke="none"/>
    <path d="M-45.75 -36.4 Q-45.85 -36.25 -46.0 -36.25 -46.65 -36.25 -46.85 -36.45 L-46.85 -36.7 -46.1 -36.8 -46.0 -36.8 -45.7 -36.55 -45.75 -36.4" fill="url(#gradient12)" fill-rule="evenodd" stroke="none"/>
    <path d="M-36.05 -31.85 L-35.7 -32.1 -35.9 -31.7 -36.05 -31.85 M-31.45 -28.85 Q-31.05 -28.45 -31.05 -27.85 -31.05 -27.3 -31.2 -27.15 L-32.35 -26.45 -32.75 -26.85 -32.4 -27.15 Q-32.05 -27.4 -32.05 -27.55 L-32.15 -27.9 -32.75 -28.4 Q-32.6 -28.1 -32.75 -27.25 -32.9 -26.2 -33.8 -26.2 L-34.35 -26.25 Q-35.05 -26.5 -35.35 -27.2 L-35.55 -28.15 -35.55 -28.75 -36.15 -28.95 -36.6 -29.25 -37.0 -29.75 -37.05 -29.8 -37.0 -30.4 -36.65 -31.25 -36.4 -31.15 -36.6 -30.5 -36.55 -30.1 -35.85 -29.9 Q-36.25 -30.1 -36.25 -30.6 L-36.15 -31.05 -36.05 -31.0 -36.05 -30.75 -35.6 -29.95 Q-35.1 -29.55 -34.15 -29.55 -33.65 -29.55 -33.25 -29.95 L-33.1 -30.1 -32.9 -30.05 -32.6 -30.05 -32.55 -29.6 Q-32.35 -28.85 -31.5 -28.85 L-31.45 -28.85 M-32.9 -31.6 L-34.45 -31.8 -34.75 -31.8 -33.45 -32.05 -32.35 -31.9 -32.45 -31.3 -32.7 -31.5 -32.6 -31.8 -32.85 -31.85 -32.9 -31.6 M-34.95 -31.3 L-34.65 -31.15 -34.05 -30.85 -34.25 -30.85 -34.9 -31.05 -34.95 -31.3" fill="url(#gradient13)" fill-rule="evenodd" stroke="none"/>
    <path d="M-32.4 -33.25 L-32.7 -33.9 -32.25 -35.1 Q-31.6 -36.0 -30.4 -36.0 L-27.9 -35.7 -27.75 -35.0 -24.9 -38.0 Q-26.8 -32.25 -29.65 -32.15 L-30.0 -32.45 Q-30.75 -33.25 -32.4 -33.25 M-31.55 -34.1 Q-30.75 -33.55 -30.3 -33.55 -29.1 -33.55 -28.75 -33.85 L-28.25 -34.45 -28.35 -34.5 -29.2 -34.3 -29.9 -34.3 -30.15 -34.45 -29.9 -34.75 -29.0 -34.85 -29.0 -34.9 -31.1 -34.7 Q-31.65 -34.4 -31.55 -34.1" fill="url(#gradient14)" fill-rule="evenodd" stroke="none"/>
    <path d="M-11.6 -39.85 L-14.7 -40.15 -15.6 -39.95 -16.75 -39.8 -18.6 -38.9 -18.85 -39.2 -18.9 -39.15 Q-18.9 -39.95 -16.65 -40.65 L-13.3 -41.15 -11.6 -39.85 M-11.0 -40.95 L-8.55 -40.15 Q-7.0 -39.45 -6.0 -38.5 L-2.4 -34.95 Q-1.1 -33.35 -1.1 -31.65 L-1.5 -31.15 -2.0 -31.25 Q-1.75 -32.15 -2.55 -33.2 L-4.65 -35.1 -4.5 -35.25 -2.95 -34.1 -6.4 -37.5 -8.8 -38.95 -11.0 -40.95" fill="url(#gradient15)" fill-rule="evenodd" stroke="none"/>
    <path d="M-1.85 -20.4 Q-2.05 -22.1 -3.3 -25.75 L-2.35 -25.1 -1.75 -24.5 Q-1.3 -22.25 -1.3 -20.6 L-1.4 -20.6 -1.85 -20.4 M-3.5 -26.4 L-3.8 -27.2 Q-5.5 -32.1 -6.1 -33.05 L-8.15 -36.25 Q-9.5 -38.05 -11.25 -39.55 L-11.6 -39.85 -13.3 -41.15 -13.35 -41.2 Q-14.85 -42.25 -16.35 -42.7 L-21.75 -43.45 -24.8 -43.65 Q-27.2 -43.45 -30.8 -42.4 -18.75 -46.95 -11.0 -40.95 L-8.8 -38.95 -7.0 -36.75 Q-4.15 -32.75 -2.5 -27.3 L-2.0 -25.45 -3.5 -26.4" fill="url(#gradient16)" fill-rule="evenodd" stroke="none"/>
    <path d="M4.75 -25.35 L4.65 -25.25 4.55 -25.1 4.85 -24.8 4.95 -23.65 Q4.95 -22.5 4.1 -21.7 3.1 -20.75 1.35 -20.75 L0.8 -20.75 Q0.45 -20.85 0.35 -21.0 L0.3 -21.35 0.55 -22.5 Q0.9 -23.45 1.4 -23.45 2.0 -23.45 2.05 -22.85 L2.0 -22.1 2.0 -22.05 Q3.9 -22.25 4.25 -23.55 L4.5 -25.75 4.7 -25.75 4.75 -25.35 M1.2 -21.85 L1.45 -21.85 1.45 -22.65 1.35 -22.65 1.2 -21.95 1.2 -21.85" fill="url(#gradient17)" fill-rule="evenodd" stroke="none"/>
    <path d="M4.85 -24.8 L4.55 -25.1 4.65 -25.25 4.75 -25.35 4.85 -25.4 6.1 -24.9 6.15 -26.8 Q6.15 -28.1 6.65 -28.9 7.75 -30.7 9.45 -31.25 L10.25 -31.4 10.4 -31.2 10.5 -30.3 10.5 -29.9 9.95 -30.05 Q7.6 -30.05 7.05 -27.0 L6.4 -24.0 5.65 -24.3 4.85 -24.8" fill="url(#gradient18)" fill-rule="evenodd" stroke="none"/>
    <path d="M10.5 -29.9 L10.5 -30.3 10.4 -31.2 10.25 -31.4 8.75 -31.75 Q10.85 -33.2 11.7 -32.15 11.9 -31.8 11.9 -30.35 L11.7 -28.35 9.8 -25.85 10.2 -28.0 10.5 -29.9" fill="url(#gradient19)" fill-rule="evenodd" stroke="none"/>
    <path d="M11.75 -23.45 Q10.9 -22.85 9.95 -22.85 L9.75 -22.9 9.65 -23.1 10.4 -23.45 Q11.25 -23.85 11.65 -24.9 L11.85 -25.8 11.75 -26.55 Q11.75 -27.85 12.6 -27.15 L13.25 -26.45 Q12.65 -26.15 12.45 -24.85 L11.9 -23.7 11.75 -23.45 M13.35 -26.3 L13.45 -25.9 Q13.45 -25.3 12.65 -24.3 L12.65 -24.35 13.35 -26.3" fill="url(#gradient20)" fill-rule="evenodd" stroke="none"/>
    <path d="M9.6 -20.15 L12.5 -20.25 13.95 -20.45 Q15.05 -20.45 15.0 -19.7 15.0 -19.15 14.5 -19.0 L12.75 -18.75 10.85 -18.3 8.85 -18.05 7.65 -18.25 7.3 -18.5 6.05 -18.35 6.55 -18.8 6.55 -18.75 6.6 -18.6 6.8 -18.65 9.6 -20.15 M3.75 -17.1 L2.45 -16.05 Q2.15 -16.05 2.1 -16.4 L3.75 -17.1" fill="url(#gradient21)" fill-rule="evenodd" stroke="none"/>
    <path d="M0.35 -21.0 Q0.45 -20.85 0.8 -20.75 L1.05 -20.5 2.75 -20.75 2.85 -20.75 Q1.15 -20.0 -3.4 -18.4 -3.0 -18.65 -3.0 -19.1 -3.0 -19.7 -3.55 -19.95 L-3.0 -19.9 -1.85 -20.4 -1.4 -20.6 -1.3 -20.6 0.35 -21.0 M6.65 -18.95 L6.65 -19.0 6.45 -19.35 5.95 -19.65 Q5.9 -18.9 3.9 -17.9 L2.05 -17.05 2.0 -17.1 -0.95 -16.0 -1.95 -16.0 -2.35 -16.3 -2.55 -16.2 -2.4 -16.0 -3.05 -16.0 -3.75 -16.7 Q-5.3 -17.45 -5.2 -17.95 L-3.95 -18.15 -3.45 -18.35 -2.75 -18.35 Q-1.6 -18.55 0.9 -19.5 2.7 -20.15 3.35 -20.6 L3.65 -19.95 3.2 -19.25 2.0 -18.4 5.85 -20.45 Q8.9 -21.9 9.2 -21.25 L9.15 -21.2 Q7.05 -19.6 6.65 -18.95 M-1.4 -17.7 Q-0.6 -18.15 -0.4 -18.7 L-1.65 -18.35 -2.85 -18.15 -3.15 -18.1 -2.25 -17.35 Q-2.05 -17.35 -1.4 -17.7" fill="url(#gradient22)" fill-rule="evenodd" stroke="none"/>
    <path d="M-40.25 -15.8 L-41.15 -16.0 Q-41.8 -16.1 -42.3 -16.75 L-42.85 -17.45 -44.2 -17.8 -44.1 -18.1 Q-44.1 -18.5 -45.85 -19.6 L-44.7 -20.45 -43.2 -20.65 Q-43.0 -20.25 -42.35 -20.2 -43.1 -19.8 -43.25 -19.35 L-43.9 -19.05 -43.35 -18.9 Q-43.25 -18.1 -42.0 -17.75 -41.5 -16.85 -40.25 -15.8 M-41.05 -21.75 L-37.45 -22.3 -35.75 -22.4 -35.6 -22.4 -35.5 -22.4 -34.9 -22.35 -34.6 -22.25 -34.8 -21.65 -36.75 -21.05 -37.7 -21.15 -40.5 -20.85 -41.05 -21.6 -41.05 -21.75 M-41.9 -21.05 L-41.6 -20.8 -41.5 -20.8 -41.35 -20.65 -41.9 -20.45 -42.2 -20.9 -41.9 -21.05 M-41.7 -17.65 L-39.25 -17.45 -36.7 -17.65 -36.1 -17.4 Q-34.8 -16.85 -33.5 -16.85 L-31.15 -16.95 -31.85 -16.7 -29.2 -16.4 -30.4 -16.25 -30.35 -16.1 -28.85 -15.75 -27.2 -15.55 -28.0 -15.3 -28.5 -15.15 -32.7 -15.0 -32.65 -14.8 -33.45 -14.9 -36.25 -15.8 -37.7 -16.15 -38.05 -16.05 Q-38.45 -16.05 -38.65 -16.3 L-38.8 -16.3 -37.05 -15.3 -39.2 -15.65 -41.7 -17.65 M-39.6 -19.2 L-40.15 -19.2 -39.95 -19.4 -39.3 -19.55 -39.6 -19.2" fill="url(#gradient23)" fill-rule="evenodd" stroke="none"/>
    <path d="M1.7 -16.2 L1.05 -15.6 Q0.15 -14.8 -1.05 -14.5 L-2.15 -14.5 -1.85 -14.75 0.3 -15.65 1.7 -16.2 M-3.05 -16.0 L-2.4 -16.0 -2.3 -15.7 Q-2.3 -15.15 -3.9 -14.5 L-6.55 -15.3 -8.0 -15.55 Q-7.1 -16.1 -6.6 -16.7 L-6.3 -16.65 -4.0 -16.0 -3.05 -16.0 M-1.95 -16.0 L-0.95 -16.0 2.0 -17.1 2.05 -17.05 0.5 -16.35 -1.7 -15.25 -1.95 -16.0 M-28.5 -15.15 L-27.1 -15.2 -24.95 -15.55 Q-18.5 -15.7 -13.6 -16.95 L-10.55 -17.05 -8.3 -16.95 Q-9.15 -16.35 -10.6 -15.8 L-12.4 -15.85 -22.75 -15.1 -27.15 -14.25 -31.9 -14.45 -32.65 -14.65 -32.65 -14.8 -32.7 -15.0 -28.5 -15.15" fill="url(#gradient24)" fill-rule="evenodd" stroke="none"/>
    <path d="M-7.95 -20.85 L-7.55 -20.85 -7.95 -20.65 -7.95 -20.85 M-5.0 -20.1 L-3.55 -19.95 Q-3.0 -19.7 -3.0 -19.1 -3.0 -18.65 -3.4 -18.4 L-3.5 -18.35 -3.45 -18.35 -3.95 -18.15 -5.2 -17.95 -6.0 -17.85 -5.95 -18.3 Q-5.95 -19.0 -6.35 -19.45 L-6.05 -19.6 -5.0 -20.1 M-16.1 -18.1 L-17.55 -18.4 Q-21.6 -19.25 -21.6 -20.45 -21.6 -21.35 -20.8 -21.35 L-18.4 -21.2 Q-17.65 -21.0 -17.35 -20.65 -16.65 -19.9 -15.3 -19.9 -14.8 -19.9 -14.8 -20.55 L-15.25 -21.1 -9.0 -20.85 -8.5 -20.4 -8.8 -20.3 -10.5 -20.5 -10.5 -20.25 -9.7 -19.9 Q-12.25 -18.9 -14.15 -18.45 L-16.1 -18.1 M-10.85 -17.75 L-7.3 -19.0 -7.15 -18.6 Q-7.15 -18.15 -7.45 -17.75 L-10.85 -17.75" fill="url(#gradient25)" fill-rule="evenodd" stroke="none"/>
    <path d="M-18.4 -21.2 L-20.75 -21.45 -22.25 -21.4 -22.15 -21.0 Q-22.15 -20.45 -22.55 -20.15 L-23.25 -20.5 -28.65 -20.95 -29.1 -21.55 -26.4 -21.65 -20.5 -21.7 -30.8 -22.3 -32.5 -23.05 -32.3 -23.1 -31.45 -23.2 -27.85 -23.2 -24.0 -22.7 -21.0 -22.7 Q-19.0 -22.9 -16.75 -21.9 L-15.25 -21.1 -14.8 -20.55 Q-14.8 -19.9 -15.3 -19.9 -16.65 -19.9 -17.35 -20.65 -17.65 -21.0 -18.4 -21.2 M-31.8 -21.75 L-34.2 -21.75 -34.8 -21.65 -34.6 -22.25 -34.45 -22.45 -33.95 -22.65 Q-33.55 -22.25 -32.55 -21.95 L-31.8 -21.75" fill="url(#gradient26)" fill-rule="evenodd" stroke="none"/>
    <path d="M-36.7 -17.65 L-33.6 -18.55 -30.1 -19.95 Q-30.7 -20.55 -31.55 -20.55 L-34.9 -19.85 Q-37.15 -19.2 -37.95 -19.2 L-38.5 -19.25 -38.25 -19.3 -38.05 -19.45 -36.3 -19.65 Q-35.95 -19.8 -35.95 -20.25 -35.95 -20.85 -36.75 -21.05 L-34.8 -21.65 -34.2 -21.75 -31.8 -21.75 -30.2 -21.5 -29.75 -21.35 -28.8 -20.95 -28.65 -20.95 -23.25 -20.5 -22.55 -20.15 -22.45 -19.7 Q-22.45 -19.2 -22.95 -19.0 L-24.55 -18.2 Q-25.55 -17.4 -26.35 -17.4 L-26.85 -17.3 -30.25 -17.3 -30.9 -17.05 -31.15 -16.95 -33.5 -16.85 Q-34.8 -16.85 -36.1 -17.4 L-36.7 -17.65 M-39.6 -19.2 L-39.3 -19.55 -39.1 -19.6 Q-39.1 -19.35 -38.9 -19.25 L-39.6 -19.2" fill="url(#gradient27)" fill-rule="evenodd" stroke="none"/>
    <path d="M-43.35 -18.9 L-43.35 -19.05 -43.25 -19.35 Q-43.1 -19.8 -42.35 -20.2 L-42.1 -20.2 Q-41.95 -20.2 -41.9 -20.3 L-41.9 -20.45 -41.35 -20.65 Q-40.7 -19.7 -40.1 -19.7 L-39.75 -20.0 -40.5 -20.85 -37.7 -21.15 -36.75 -21.05 Q-35.95 -20.85 -35.95 -20.25 -35.95 -19.8 -36.3 -19.65 L-38.05 -19.45 -38.25 -19.3 -38.5 -19.25 -37.95 -19.2 Q-37.15 -19.2 -34.9 -19.85 L-31.55 -20.55 Q-30.7 -20.55 -30.1 -19.95 L-33.6 -18.55 -36.7 -17.65 -39.25 -17.45 -41.7 -17.65 -42.1 -18.2 -42.25 -18.2 -42.0 -17.75 Q-43.25 -18.1 -43.35 -18.9 M-40.15 -19.2 L-39.6 -19.2 -38.9 -19.25 Q-39.1 -19.35 -39.1 -19.6 L-39.3 -19.55 -39.95 -19.4 -40.65 -19.25 -40.15 -19.2" fill="url(#gradient28)" fill-rule="evenodd" stroke="none"/>
    <path d="M-23.45 -25.7 L-21.6 -26.0 -16.85 -26.0 Q-14.9 -26.1 -12.9 -25.3 L-23.45 -25.7 M-9.15 -22.95 Q-7.95 -21.9 -7.95 -20.95 L-7.95 -20.85 -7.95 -20.65 -8.5 -20.4 -9.0 -20.85 -9.7 -21.55 -10.8 -22.55 -9.15 -22.95 M-31.45 -24.7 L-24.85 -24.2 -27.4 -23.8 -31.45 -23.2 -32.3 -23.1 -32.5 -23.05 -30.8 -22.3 -20.5 -21.7 -26.4 -21.65 -29.1 -21.55 -29.3 -21.5 -29.3 -21.45 -30.2 -21.5 -31.8 -21.75 -32.55 -21.95 Q-33.55 -22.25 -33.95 -22.65 L-34.1 -22.85 -33.8 -23.25 -33.65 -24.0 -33.4 -24.1 -31.45 -24.7 M-12.8 -23.75 L-10.1 -23.75 -9.55 -23.3 -11.2 -22.95 -11.4 -23.05 -12.8 -23.75" fill="url(#gradient29)" fill-rule="evenodd" stroke="none"/>
    <path d="M-33.8 -25.4 L-27.85 -25.85 -23.45 -25.7 -12.9 -25.3 -10.15 -25.2 -7.7 -24.45 -6.8 -23.6 Q-6.8 -23.0 -7.4 -23.0 L-7.95 -23.2 -9.15 -22.95 -10.8 -22.55 -14.9 -21.55 -15.2 -21.85 -11.2 -22.95 -9.55 -23.3 -8.9 -23.45 -8.7 -23.6 -9.3 -23.75 -10.1 -23.75 -12.8 -23.75 -18.75 -23.75 -24.85 -24.2 -31.45 -24.7 -33.65 -24.85 -33.8 -25.4 M-34.3 -24.9 L-34.6 -24.95 -34.25 -25.2 -34.3 -24.9" fill="url(#gradient30)" fill-rule="evenodd" stroke="none"/>
    <path d="M-7.55 -20.85 L-3.9 -22.65 -3.9 -22.7 -4.75 -22.65 -5.15 -22.7 -5.2 -23.0 Q-2.55 -24.2 -2.55 -22.4 -2.55 -21.45 -5.0 -20.1 L-6.05 -19.6 -6.35 -19.45 -6.9 -19.8 -8.8 -20.3 -8.5 -20.4 -7.95 -20.65 -7.55 -20.85 M-29.2 -16.4 L-16.1 -18.1 -14.15 -18.45 Q-12.25 -18.9 -9.7 -19.9 L-8.0 -19.4 -7.3 -19.0 -10.85 -17.75 -12.8 -17.2 -13.6 -16.95 Q-18.5 -15.7 -24.95 -15.55 L-26.35 -15.55 -27.2 -15.55 -28.85 -15.75 -30.35 -16.1 -30.4 -16.25 -29.2 -16.4" fill="url(#gradient31)" fill-rule="evenodd" stroke="none"/>
    <path d="M-7.3 -19.0 L-8.0 -19.4 -9.7 -19.9 -10.5 -20.25 -10.5 -20.5 -8.8 -20.3 -6.9 -19.8 -6.35 -19.45 Q-5.95 -19.0 -5.95 -18.3 L-6.0 -17.85 Q-6.1 -17.25 -6.6 -16.7 -7.1 -16.1 -8.0 -15.55 -9.35 -14.7 -11.6 -13.9 -15.0 -12.7 -18.9 -12.2 L-21.15 -12.2 -22.1 -12.3 -27.2 -13.55 -24.5 -13.55 Q-19.5 -13.25 -13.45 -14.9 L-10.6 -15.8 Q-9.15 -16.35 -8.3 -16.95 L-7.45 -17.75 Q-7.15 -18.15 -7.15 -18.6 L-7.3 -19.0" fill="url(#gradient32)" fill-rule="evenodd" stroke="none"/>
    <path d="M-2.15 -14.5 L-3.05 -13.9 -4.1 -13.7 -5.25 -13.45 -1.85 -14.75 -2.15 -14.5 M-13.6 -10.9 L-15.35 -10.7 -16.05 -10.7 -13.6 -10.9 M-2.4 -16.0 L-2.55 -16.2 -2.35 -16.3 -1.95 -16.0 -1.7 -15.25 -3.25 -14.6 -6.15 -13.3 -9.65 -12.7 -20.05 -11.7 -20.4 -11.7 -22.1 -12.3 -21.15 -12.2 -18.9 -12.2 -15.05 -12.2 Q-13.15 -12.3 -8.35 -13.35 -5.45 -13.95 -3.9 -14.5 -2.3 -15.15 -2.3 -15.7 L-2.4 -16.0 M-31.9 -14.45 L-31.65 -14.4 -30.8 -14.15 -35.8 -14.85 -36.2 -14.85 -37.05 -15.3 -38.8 -16.3 -38.65 -16.3 Q-38.45 -16.05 -38.05 -16.05 L-37.7 -16.15 -36.25 -15.8 -33.45 -14.9 -32.65 -14.65 -31.9 -14.45" fill="url(#gradient33)" fill-rule="evenodd" stroke="none"/>
    <path d="M3.35 -20.6 Q2.7 -20.15 0.9 -19.5 -1.6 -18.55 -2.75 -18.35 L-3.45 -18.35 -3.5 -18.35 -3.4 -18.4 Q1.15 -20.0 2.85 -20.75 L3.65 -21.2 3.75 -21.05 3.35 -20.6" fill="url(#gradient34)" fill-rule="evenodd" stroke="none"/>
    <path d="M6.05 -18.35 L3.75 -17.1 2.1 -16.4 1.7 -16.2 0.3 -15.65 -1.85 -14.75 -5.25 -13.45 -6.15 -13.3 -3.25 -14.6 -1.7 -15.25 0.5 -16.35 2.05 -17.05 3.9 -17.9 Q5.9 -18.9 5.95 -19.65 L6.45 -19.35 6.65 -19.0 6.65 -18.95 6.55 -18.8 6.05 -18.35" fill="url(#gradient35)" fill-rule="evenodd" stroke="none"/>
    <path d="M-3.05 -13.9 L1.6 -15.25 Q6.5 -16.7 6.5 -17.3 L6.3 -18.0 6.5 -18.25 Q6.9 -18.1 6.9 -17.25 6.9 -16.05 2.35 -14.35 L0.3 -13.65 -4.6 -12.85 -8.8 -12.05 -12.55 -11.75 -15.2 -11.35 -12.75 -10.95 -13.6 -10.9 -16.05 -10.7 -19.3 -10.45 -19.3 -10.6 Q-19.3 -11.15 -20.4 -11.7 L-20.05 -11.7 -9.65 -12.7 -6.15 -13.3 -5.25 -13.45 -4.1 -13.7 -3.05 -13.9 M-20.9 -10.45 L-21.2 -10.45 -21.15 -10.5 -20.9 -10.45 M-23.15 -10.55 L-25.85 -10.6 -26.2 -10.75 -28.85 -10.75 -29.15 -10.9 -31.85 -10.95 -31.9 -11.1 -31.85 -11.25 -29.15 -11.3 -28.85 -11.4 -28.0 -11.4 -23.15 -10.55" fill="url(#gradient36)" fill-rule="evenodd" stroke="none"/>
    <path d="M-39.4 -15.15 L-39.5 -15.2 -40.25 -15.8 Q-41.5 -16.85 -42.0 -17.75 L-42.25 -18.2 -42.1 -18.2 -41.7 -17.65 -39.2 -15.65 -39.15 -15.6 -38.3 -15.05 -39.4 -15.15" fill="url(#gradient37)" fill-rule="evenodd" stroke="none"/>
    <path d="M-42.8 -23.6 L-43.0 -24.05 Q-43.0 -25.1 -42.55 -25.2 L-42.6 -24.75 -42.45 -24.0 -42.8 -23.6 M-41.5 -20.8 Q-41.15 -20.9 -41.05 -21.6 L-40.5 -20.85 -39.75 -20.0 -40.1 -19.7 Q-40.7 -19.7 -41.35 -20.65 L-41.5 -20.8" fill="url(#gradient38)" fill-rule="evenodd" stroke="none"/>
    <path d="M-41.95 -24.35 L-41.85 -24.9 -41.5 -25.75 -41.05 -25.4 -41.05 -25.3 -41.1 -25.2 -41.1 -24.7 -41.95 -24.35 M-40.15 -26.5 L-39.8 -26.5 -39.75 -26.3 -39.8 -26.3 -40.15 -26.5 M-41.15 -24.0 L-41.15 -23.7 -41.05 -22.0 -41.05 -21.75 -41.05 -21.6 Q-41.15 -20.9 -41.5 -20.8 L-41.6 -20.8 -41.9 -21.05 Q-41.2 -21.35 -41.2 -21.75 -41.2 -22.4 -42.0 -22.75 L-41.6 -23.4 -41.15 -24.0" fill="url(#gradient39)" fill-rule="evenodd" stroke="none"/>
    <path d="M-43.1 -23.1 L-43.0 -23.35 -42.8 -23.6 -42.45 -24.0 -41.95 -24.35 -41.1 -24.7 -41.0 -24.75 -40.9 -24.45 -41.15 -24.0 -41.6 -23.4 -42.0 -22.75 -42.85 -23.05 -43.1 -23.1 M-43.2 -20.65 L-42.5 -20.85 -42.2 -20.9 -41.9 -20.45 -41.9 -20.3 Q-41.95 -20.2 -42.1 -20.2 L-42.35 -20.2 Q-43.0 -20.25 -43.2 -20.65" fill="url(#gradient40)" fill-rule="evenodd" stroke="none"/>
    <path d="M-3.3 -25.75 Q-4.5 -26.5 -6.2 -27.1 -5.05 -27.2 -3.5 -26.4 L-2.0 -25.45 Q0.35 -23.8 0.35 -22.9 0.35 -22.4 -0.05 -22.4 -0.95 -22.4 -0.95 -22.9 L-0.6 -23.3 -1.75 -24.5 -2.35 -25.1 -3.3 -25.75" fill="url(#gradient41)" fill-rule="evenodd" stroke="none"/>
    <path d="M-8.1 -26.35 L-7.85 -25.05 -8.05 -24.85 -10.1 -26.55 -10.1 -26.65 -9.9 -26.75 -9.15 -26.25 -8.5 -25.65 -8.9 -27.35 -8.65 -27.65 Q-8.3 -27.1 -8.1 -26.35" fill="url(#gradient42)" fill-rule="evenodd" stroke="none"/>
    <path d="M-35.7 -32.1 Q-35.1 -33.1 -33.4 -33.25 L-32.4 -33.25 Q-30.75 -33.25 -30.0 -32.45 L-29.65 -32.15 -27.65 -30.4 Q-26.7 -29.35 -26.7 -28.35 L-26.75 -27.8 Q-26.85 -27.3 -27.25 -27.3 -27.55 -27.3 -28.4 -28.05 L-29.3 -29.1 -29.05 -29.15 Q-28.7 -29.15 -28.25 -28.75 L-27.65 -28.25 Q-27.65 -29.65 -29.55 -30.8 -29.55 -30.6 -30.1 -29.8 -30.75 -28.9 -31.45 -28.85 L-31.5 -28.85 Q-32.35 -28.85 -32.55 -29.6 L-32.6 -30.05 -32.55 -30.4 -32.45 -31.3 -32.35 -31.9 -33.45 -32.05 -34.75 -31.8 -34.95 -31.5 -34.95 -31.3 -34.9 -31.05 -34.25 -30.85 -34.05 -30.85 Q-33.6 -30.9 -33.2 -31.25 L-32.9 -31.6 -32.85 -31.85 -32.6 -31.8 -32.7 -31.5 -32.75 -31.15 -32.9 -30.6 -33.1 -30.1 -33.25 -29.95 Q-33.65 -29.55 -34.15 -29.55 -35.1 -29.55 -35.6 -29.95 L-36.05 -30.75 -36.05 -31.0 -35.45 -30.95 -35.2 -31.05 -35.25 -31.15 -35.9 -31.7 -35.7 -32.1" fill="url(#gradient43)" fill-rule="evenodd" stroke="none"/>
    <path d="M-38.95 -35.5 L-36.65 -35.65 Q-34.0 -35.45 -34.0 -34.65 -34.0 -33.85 -35.65 -33.85 L-37.3 -34.15 -38.25 -34.3 -36.9 -32.7 -36.05 -31.85 -35.9 -31.7 -35.25 -31.15 -35.2 -31.05 -35.45 -30.95 -36.05 -31.0 -36.15 -31.05 -36.4 -31.15 -36.65 -31.25 -37.2 -31.6 -37.85 -32.2 -38.25 -32.7 Q-39.35 -34.15 -39.35 -35.0 -39.35 -35.35 -38.95 -35.5" fill="url(#gradient44)" fill-rule="evenodd" stroke="none"/>
    <path d="M-41.5 -25.75 L-43.05 -27.05 -43.05 -27.3 -42.95 -27.3 -42.15 -27.25 -40.9 -26.9 -40.15 -26.5 -39.8 -26.3 -38.85 -25.7 Q-37.15 -24.6 -36.0 -24.1 L-35.95 -24.1 -35.5 -23.95 -35.0 -23.8 -34.4 -23.8 -34.3 -24.9 -34.25 -25.2 -34.25 -25.6 -34.1 -25.65 -33.95 -25.75 -33.8 -25.4 -33.65 -24.85 -33.65 -24.7 -33.65 -24.55 -33.65 -24.0 -33.8 -23.25 -34.1 -22.85 Q-34.4 -22.6 -34.95 -22.45 L-35.5 -22.4 -35.6 -22.4 -35.75 -22.4 Q-36.5 -22.4 -37.6 -23.0 L-37.7 -23.0 -38.4 -23.45 -38.95 -23.8 -39.7 -24.35 -40.35 -24.85 -40.8 -25.2 -41.05 -25.4 -41.5 -25.75" fill="url(#gradient45)" fill-rule="evenodd" stroke="none"/>
    <path d="M-44.2 -17.8 L-44.25 -17.75 Q-44.45 -17.5 -44.7 -17.5 -45.2 -17.5 -46.55 -18.3 L-46.5 -18.7 Q-46.5 -19.3 -47.15 -19.75 L-46.8 -19.95 -46.6 -20.05 -46.1 -19.75 -45.85 -19.6 Q-44.1 -18.5 -44.1 -18.1 L-44.2 -17.8 M-51.05 -20.75 L-51.6 -21.4 Q-51.6 -22.0 -50.8 -22.05 L-50.4 -22.0 Q-49.85 -21.95 -49.1 -21.5 L-49.3 -20.65 -51.05 -20.75" fill="url(#gradient46)" fill-rule="evenodd" stroke="none"/>
    <path d="M-50.4 -22.0 L-51.05 -22.65 Q-51.05 -23.05 -50.6 -23.05 L-48.4 -22.4 -48.3 -22.35 -49.1 -21.5 Q-49.85 -21.95 -50.4 -22.0 M-45.9 -22.95 L-45.9 -23.2 -43.1 -23.1 -42.85 -23.05 -42.0 -22.75 Q-41.2 -22.4 -41.2 -21.75 -41.2 -21.35 -41.9 -21.05 L-42.2 -20.9 -42.5 -20.85 -43.2 -20.65 -44.7 -20.45 -45.6 -20.55 Q-45.35 -20.95 -45.35 -21.75 L-44.1 -21.85 -43.9 -21.9 -45.6 -22.7 -45.9 -22.95 M-47.2 -21.55 Q-47.35 -21.3 -47.6 -21.3 L-47.45 -21.4 -47.15 -21.6 -47.2 -21.55" fill="url(#gradient47)" fill-rule="evenodd" stroke="none"/>
    <path d="M-48.3 -22.35 L-47.45 -22.8 -45.9 -22.95 -45.6 -22.7 Q-45.35 -22.4 -45.35 -21.75 -45.35 -20.95 -45.6 -20.55 -45.85 -20.25 -46.25 -20.25 L-46.6 -20.05 -46.8 -19.95 -47.15 -19.75 -49.0 -20.55 -49.3 -20.65 -49.1 -21.5 -48.3 -22.35 M-47.2 -21.55 L-47.15 -21.6 -47.45 -21.4 -47.6 -21.3 Q-47.35 -21.3 -47.2 -21.55" fill="url(#gradient48)" fill-rule="evenodd" stroke="none"/>
    <path d="M-46.55 -18.3 Q-46.8 -17.7 -47.8 -17.7 -48.25 -17.7 -48.25 -18.1 L-48.05 -18.3 -47.4 -18.7 -47.35 -18.75 -48.25 -19.3 -49.1 -19.55 -50.5 -19.2 Q-51.45 -19.2 -51.5 -20.1 -51.5 -20.6 -51.05 -20.75 L-49.3 -20.65 -49.0 -20.55 -47.15 -19.75 Q-46.5 -19.3 -46.5 -18.7 L-46.55 -18.3" fill="url(#gradient49)" fill-rule="evenodd" stroke="none"/>
    <path d="M14.95 -32.7 Q14.35 -31.85 14.4 -31.45 L14.3 -31.4 14.25 -31.75 13.85 -32.1 13.8 -32.25 14.2 -32.55 14.85 -32.9 14.95 -32.7" fill="url(#gradient50)" fill-rule="evenodd" stroke="none"/>
    <path d="M15.25 -30.95 L15.25 -31.35 15.05 -31.7 14.85 -32.1 15.1 -33.0 15.55 -33.75 Q16.25 -34.15 16.85 -32.7 16.5 -31.9 16.5 -31.1 L15.4 -29.8 14.1 -28.6 13.85 -28.65 13.8 -28.8 14.7 -29.6 Q15.6 -30.45 15.6 -30.8 L15.55 -31.35 15.25 -30.95" fill="url(#gradient51)" fill-rule="evenodd" stroke="none"/>
    <path d="M13.25 -26.45 L13.35 -26.3 12.65 -24.35 12.65 -24.3 12.1 -23.1 11.55 -22.8 11.5 -23.0 11.75 -23.45 11.9 -23.7 12.45 -24.85 Q12.65 -26.15 13.25 -26.45" fill="url(#gradient52)" fill-rule="evenodd" stroke="none"/>
    <path d="M12.1 -23.1 L13.55 -23.7 13.65 -23.45 Q13.65 -22.55 9.6 -20.15 L6.8 -18.65 6.6 -18.6 6.55 -18.75 6.55 -18.8 6.65 -18.95 Q7.05 -19.6 9.15 -21.2 L9.2 -21.25 11.55 -22.8 12.1 -23.1" fill="url(#gradient53)" fill-rule="evenodd" stroke="none"/>
    <path d="M-21.2 -10.45 Q-21.3 -10.3 -21.5 -10.3 L-22.85 -10.5 -23.15 -10.55 -28.0 -11.4 -34.35 -12.6 -39.25 -13.55 -36.95 -13.35 -21.15 -10.5 -21.2 -10.45 M-51.15 -16.1 L-52.35 -16.4 -52.4 -16.65 -48.85 -16.2 -45.55 -15.65 -51.15 -16.1" fill="url(#gradient54)" fill-rule="evenodd" stroke="none"/>
    <path d="M0.3 -13.65 L5.6 -14.5 14.1 -16.3 21.25 -17.8 21.55 -17.75 Q14.9 -14.05 7.5 -13.2 L-11.2 -10.95 -12.75 -10.95 -15.2 -11.35 -12.55 -11.75 -8.8 -12.05 -4.6 -12.85 0.3 -13.65" fill="url(#gradient55)" fill-rule="evenodd" stroke="none"/>
    <path d="M-19.3 -10.45 L-19.35 -10.3 -19.55 -10.2 -20.9 -10.45 -21.15 -10.5 -36.95 -13.35 -39.25 -13.55 -55.6 -14.8 Q-57.25 -14.95 -59.4 -16.0 -60.95 -16.7 -61.5 -17.3 L-60.0 -16.9 Q-59.6 -16.9 -59.6 -17.3 L-61.7 -18.55 -60.95 -18.65 -58.65 -17.5 -54.25 -16.35 -51.15 -16.1 -45.55 -15.65 -39.4 -15.15 -38.3 -15.05 -36.2 -14.85 -35.8 -14.85 -30.8 -14.15 -27.45 -13.6 -27.2 -13.55 -22.1 -12.3 -20.4 -11.7 Q-19.3 -11.15 -19.3 -10.6 L-19.3 -10.45" fill="url(#gradient56)" fill-rule="evenodd" stroke="none"/>
    <path d="M-61.5 -17.3 L-63.05 -18.25 Q-65.0 -19.55 -65.1 -20.25 -64.65 -20.25 -61.7 -18.55 L-59.6 -17.3 Q-59.6 -16.9 -60.0 -16.9 L-61.5 -17.3" fill="url(#gradient57)" fill-rule="evenodd" stroke="none"/>
  </g>
  <defs>
    <radialGradient cx="0" cy="0" gradientTransform="matrix(0.0195, 0.0, 0.0, 0.0195, -20.15, -20.65)" gradientUnits="userSpaceOnUse" id="gradient0" r="819.2" spreadMethod="pad">
      <stop offset="0.0" stop-color="#ffffff"/>
      <stop offset="0.3803921568627451" stop-color="#f0d66c"/>
      <stop offset="0.7450980392156863" stop-color="#945b21" stop-opacity="0.5803922"/>
      <stop offset="1.0" stop-color="#26372b" stop-opacity="0.18039216"/>
    </radialGradient>
    <radialGradient cx="0" cy="0" gradientTransform="matrix(0.0195, 0.0, 0.0, 0.0195, -20.15, -20.65)" gradientUnits="userSpaceOnUse" id="gradient1" r="819.2" spreadMethod="pad">
      <stop offset="0.0" stop-color="#ffffff"/>
      <stop offset="0.3803921568627451" stop-color="#f0d66c"/>
      <stop offset="0.7450980392156863" stop-color="#945b21" stop-opacity="0.5803922"/>
      <stop offset="1.0" stop-color="#26372b" stop-opacity="0.18039216"/>
    </radialGradient>
    <radialGradient cx="0" cy="0" gradientTransform="matrix(0.0056, 0.0, 0.0, 0.0056, -40.2, -28.05)" gradientUnits="userSpaceOnUse" id="gradient2" r="819.2" spreadMethod="pad">
      <stop offset="0.0" stop-color="#ffffff"/>
      <stop offset="0.3803921568627451" stop-color="#f0d66c"/>
      <stop offset="0.7450980392156863" stop-color="#945b21" stop-opacity="0.5803922"/>
      <stop offset="1.0" stop-color="#26372b" stop-opacity="0.18039216"/>
    </radialGradient>
    <radialGradient cx="0" cy="0" gradientTransform="matrix(0.0104, 0.0, 0.0, 0.0104, -39.45, -27.5)" gradientUnits="userSpaceOnUse" id="gradient3" r="819.2" spreadMethod="pad">
      <stop offset="0.0" stop-color="#ffffff"/>
      <stop offset="0.3803921568627451" stop-color="#f0d66c"/>
      <stop offset="0.7450980392156863" stop-color="#945b21" stop-opacity="0.5803922"/>
      <stop offset="1.0" stop-color="#26372b" stop-opacity="0.18039216"/>
    </radialGradient>
    <radialGradient cx="0" cy="0" gradientTransform="matrix(0.0024, 0.0, 0.0, 0.0024, -43.9, -33.3)" gradientUnits="userSpaceOnUse" id="gradient4" r="819.2" spreadMethod="pad">
      <stop offset="0.0" stop-color="#ffffff"/>
      <stop offset="0.3803921568627451" stop-color="#f0d66c"/>
      <stop offset="0.7450980392156863" stop-color="#945b21" stop-opacity="0.5803922"/>
      <stop offset="1.0" stop-color="#26372b" stop-opacity="0.18039216"/>
    </radialGradient>
    <radialGradient cx="0" cy="0" gradientTransform="matrix(0.0027, 0.0, 0.0, 0.0027, -45.2, -37.75)" gradientUnits="userSpaceOnUse" id="gradient5" r="819.2" spreadMethod="pad">
      <stop offset="0.0" stop-color="#ffffff"/>
      <stop offset="0.3803921568627451" stop-color="#f0d66c"/>
      <stop offset="0.7450980392156863" stop-color="#945b21" stop-opacity="0.5803922"/>
      <stop offset="1.0" stop-color="#26372b" stop-opacity="0.18039216"/>
    </radialGradient>
    <radialGradient cx="0" cy="0" gradientTransform="matrix(0.0071, 0.0, 0.0, 0.0071, -37.65, -30.45)" gradientUnits="userSpaceOnUse" id="gradient6" r="819.2" spreadMethod="pad">
      <stop offset="0.0" stop-color="#ffffff"/>
      <stop offset="0.3803921568627451" stop-color="#f0d66c"/>
      <stop offset="0.7450980392156863" stop-color="#945b21" stop-opacity="0.5803922"/>
      <stop offset="1.0" stop-color="#26372b" stop-opacity="0.18039216"/>
    </radialGradient>
    <radialGradient cx="0" cy="0" gradientTransform="matrix(0.0018, 0.0, 0.0, 0.0018, -40.8, -36.4)" gradientUnits="userSpaceOnUse" id="gradient7" r="819.2" spreadMethod="pad">
      <stop offset="0.0" stop-color="#ffffff"/>
      <stop offset="0.3803921568627451" stop-color="#f0d66c"/>
      <stop offset="0.7450980392156863" stop-color="#945b21" stop-opacity="0.5803922"/>
      <stop offset="1.0" stop-color="#26372b" stop-opacity="0.18039216"/>
    </radialGradient>
    <radialGradient cx="0" cy="0" gradientTransform="matrix(0.002, 0.0, 0.0, 0.002, -44.15, -30.5)" gradientUnits="userSpaceOnUse" id="gradient8" r="819.2" spreadMethod="pad">
      <stop offset="0.0" stop-color="#ffffff"/>
      <stop offset="0.3803921568627451" stop-color="#f0d66c"/>
      <stop offset="0.7450980392156863" stop-color="#945b21" stop-opacity="0.5803922"/>
      <stop offset="1.0" stop-color="#26372b" stop-opacity="0.18039216"/>
    </radialGradient>
    <radialGradient cx="0" cy="0" gradientTransform="matrix(0.0016, 0.0, 0.0, 0.0016, -47.2, -34.35)" gradientUnits="userSpaceOnUse" id="gradient9" r="819.2" spreadMethod="pad">
      <stop offset="0.0" stop-color="#ffffff"/>
      <stop offset="0.3803921568627451" stop-color="#f0d66c"/>
      <stop offset="0.7450980392156863" stop-color="#945b21" stop-opacity="0.5803922"/>
      <stop offset="1.0" stop-color="#26372b" stop-opacity="0.18039216"/>
    </radialGradient>
    <radialGradient cx="0" cy="0" gradientTransform="matrix(0.0018, 0.0, 0.0, 0.0018, -46.0, -39.0)" gradientUnits="userSpaceOnUse" id="gradient10" r="819.2" spreadMethod="pad">
      <stop offset="0.0" stop-color="#ffffff"/>
      <stop offset="0.3803921568627451" stop-color="#f0d66c"/>
      <stop offset="0.7450980392156863" stop-color="#945b21" stop-opacity="0.5803922"/>
      <stop offset="1.0" stop-color="#26372b" stop-opacity="0.18039216"/>
    </radialGradient>
    <radialGradient cx="0" cy="0" gradientTransform="matrix(0.0022, 0.0, 0.0, 0.0022, -47.85, -41.05)" gradientUnits="userSpaceOnUse" id="gradient11" r="819.2" spreadMethod="pad">
      <stop offset="0.0" stop-color="#ffffff"/>
      <stop offset="0.3803921568627451" stop-color="#f0d66c"/>
      <stop offset="0.7450980392156863" stop-color="#945b21" stop-opacity="0.5803922"/>
      <stop offset="1.0" stop-color="#26372b" stop-opacity="0.18039216"/>
    </radialGradient>
    <radialGradient cx="0" cy="0" gradientTransform="matrix(0.0013, 0.0, 0.0, 0.0013, -46.25, -36.55)" gradientUnits="userSpaceOnUse" id="gradient12" r="819.2" spreadMethod="pad">
      <stop offset="0.0" stop-color="#ffffff"/>
      <stop offset="0.3803921568627451" stop-color="#f0d66c"/>
      <stop offset="0.7450980392156863" stop-color="#945b21" stop-opacity="0.5803922"/>
      <stop offset="1.0" stop-color="#26372b" stop-opacity="0.18039216"/>
    </radialGradient>
    <radialGradient cx="0" cy="0" gradientTransform="matrix(0.0053, 0.0, 0.0, 0.0053, -33.6, -29.4)" gradientUnits="userSpaceOnUse" id="gradient13" r="819.2" spreadMethod="pad">
      <stop offset="0.0" stop-color="#ffffff"/>
      <stop offset="0.3803921568627451" stop-color="#f0d66c"/>
      <stop offset="0.7450980392156863" stop-color="#945b21" stop-opacity="0.5803922"/>
      <stop offset="1.0" stop-color="#26372b" stop-opacity="0.18039216"/>
    </radialGradient>
    <radialGradient cx="0" cy="0" gradientTransform="matrix(0.0062, 0.0, 0.0, 0.0062, -28.8, -35.05)" gradientUnits="userSpaceOnUse" id="gradient14" r="819.2" spreadMethod="pad">
      <stop offset="0.0" stop-color="#ffffff"/>
      <stop offset="0.3803921568627451" stop-color="#f0d66c"/>
      <stop offset="0.7450980392156863" stop-color="#945b21" stop-opacity="0.5803922"/>
      <stop offset="1.0" stop-color="#26372b" stop-opacity="0.18039216"/>
    </radialGradient>
    <radialGradient cx="0" cy="0" gradientTransform="matrix(0.0125, 0.0, 0.0, 0.0125, -10.0, -36.15)" gradientUnits="userSpaceOnUse" id="gradient15" r="819.2" spreadMethod="pad">
      <stop offset="0.0" stop-color="#ffffff"/>
      <stop offset="0.3803921568627451" stop-color="#f0d66c"/>
      <stop offset="0.7450980392156863" stop-color="#945b21" stop-opacity="0.5803922"/>
      <stop offset="1.0" stop-color="#26372b" stop-opacity="0.18039216"/>
    </radialGradient>
    <radialGradient cx="0" cy="0" gradientTransform="matrix(0.0241, 0.0, 0.0, 0.0241, -16.05, -31.55)" gradientUnits="userSpaceOnUse" id="gradient16" r="819.2" spreadMethod="pad">
      <stop offset="0.0" stop-color="#ffffff"/>
      <stop offset="0.3803921568627451" stop-color="#f0d66c"/>
      <stop offset="0.7450980392156863" stop-color="#945b21" stop-opacity="0.5803922"/>
      <stop offset="1.0" stop-color="#26372b" stop-opacity="0.18039216"/>
    </radialGradient>
    <radialGradient cx="0" cy="0" gradientTransform="matrix(0.0048, 0.0, 0.0, 0.0048, 2.65, -23.25)" gradientUnits="userSpaceOnUse" id="gradient17" r="819.2" spreadMethod="pad">
      <stop offset="0.0" stop-color="#ffffff"/>
      <stop offset="0.3803921568627451" stop-color="#f0d66c"/>
      <stop offset="0.7450980392156863" stop-color="#945b21" stop-opacity="0.5803922"/>
      <stop offset="1.0" stop-color="#26372b" stop-opacity="0.18039216"/>
    </radialGradient>
    <radialGradient cx="0" cy="0" gradientTransform="matrix(0.0059, 0.0, 0.0, 0.0059, 7.85, -27.7)" gradientUnits="userSpaceOnUse" id="gradient18" r="819.2" spreadMethod="pad">
      <stop offset="0.0" stop-color="#ffffff"/>
      <stop offset="0.3803921568627451" stop-color="#f0d66c"/>
      <stop offset="0.7450980392156863" stop-color="#945b21" stop-opacity="0.5803922"/>
      <stop offset="1.0" stop-color="#26372b" stop-opacity="0.18039216"/>
    </radialGradient>
    <radialGradient cx="0" cy="0" gradientTransform="matrix(0.0048, 0.0, 0.0, 0.0048, 10.35, -29.2)" gradientUnits="userSpaceOnUse" id="gradient19" r="819.2" spreadMethod="pad">
      <stop offset="0.0" stop-color="#ffffff"/>
      <stop offset="0.3803921568627451" stop-color="#f0d66c"/>
      <stop offset="0.7450980392156863" stop-color="#945b21" stop-opacity="0.5803922"/>
      <stop offset="1.0" stop-color="#26372b" stop-opacity="0.18039216"/>
    </radialGradient>
    <radialGradient cx="0" cy="0" gradientTransform="matrix(0.0037, 0.0, 0.0, 0.0037, 11.55, -25.1)" gradientUnits="userSpaceOnUse" id="gradient20" r="819.2" spreadMethod="pad">
      <stop offset="0.0" stop-color="#ffffff"/>
      <stop offset="0.3803921568627451" stop-color="#f0d66c"/>
      <stop offset="0.7450980392156863" stop-color="#945b21" stop-opacity="0.5803922"/>
      <stop offset="1.0" stop-color="#26372b" stop-opacity="0.18039216"/>
    </radialGradient>
    <radialGradient cx="0" cy="0" gradientTransform="matrix(0.0085, 0.0, 0.0, 0.0085, 8.5, -18.25)" gradientUnits="userSpaceOnUse" id="gradient21" r="819.2" spreadMethod="pad">
      <stop offset="0.0" stop-color="#ffffff"/>
      <stop offset="0.3803921568627451" stop-color="#f0d66c"/>
      <stop offset="0.7450980392156863" stop-color="#945b21" stop-opacity="0.5803922"/>
      <stop offset="1.0" stop-color="#26372b" stop-opacity="0.18039216"/>
    </radialGradient>
    <radialGradient cx="0" cy="0" gradientTransform="matrix(0.0101, 0.0, 0.0, 0.0101, 1.6, -18.5)" gradientUnits="userSpaceOnUse" id="gradient22" r="819.2" spreadMethod="pad">
      <stop offset="0.0" stop-color="#ffffff"/>
      <stop offset="0.3803921568627451" stop-color="#f0d66c"/>
      <stop offset="0.7450980392156863" stop-color="#945b21" stop-opacity="0.5803922"/>
      <stop offset="1.0" stop-color="#26372b" stop-opacity="0.18039216"/>
    </radialGradient>
    <radialGradient cx="0" cy="0" gradientTransform="matrix(0.0128, 0.0, 0.0, 0.0128, -36.35, -18.55)" gradientUnits="userSpaceOnUse" id="gradient23" r="819.2" spreadMethod="pad">
      <stop offset="0.0" stop-color="#ffffff"/>
      <stop offset="0.3803921568627451" stop-color="#f0d66c"/>
      <stop offset="0.7450980392156863" stop-color="#945b21" stop-opacity="0.5803922"/>
      <stop offset="1.0" stop-color="#26372b" stop-opacity="0.18039216"/>
    </radialGradient>
    <radialGradient cx="0" cy="0" gradientTransform="matrix(0.0214, 0.0, 0.0, 0.0214, -15.25, -15.65)" gradientUnits="userSpaceOnUse" id="gradient24" r="819.2" spreadMethod="pad">
      <stop offset="0.0" stop-color="#ffffff"/>
      <stop offset="0.3803921568627451" stop-color="#f0d66c"/>
      <stop offset="0.7450980392156863" stop-color="#945b21" stop-opacity="0.5803922"/>
      <stop offset="1.0" stop-color="#26372b" stop-opacity="0.18039216"/>
    </radialGradient>
    <radialGradient cx="0" cy="0" gradientTransform="matrix(0.0115, 0.0, 0.0, 0.0115, -12.3, -19.55)" gradientUnits="userSpaceOnUse" id="gradient25" r="819.2" spreadMethod="pad">
      <stop offset="0.0" stop-color="#ffffff"/>
      <stop offset="0.3803921568627451" stop-color="#f0d66c"/>
      <stop offset="0.7450980392156863" stop-color="#945b21" stop-opacity="0.5803922"/>
      <stop offset="1.0" stop-color="#26372b" stop-opacity="0.18039216"/>
    </radialGradient>
    <radialGradient cx="0" cy="0" gradientTransform="matrix(0.0131, 0.0, 0.0, 0.0131, -24.8, -21.35)" gradientUnits="userSpaceOnUse" id="gradient26" r="819.2" spreadMethod="pad">
      <stop offset="0.0" stop-color="#ffffff"/>
      <stop offset="0.3803921568627451" stop-color="#f0d66c"/>
      <stop offset="0.7450980392156863" stop-color="#945b21" stop-opacity="0.5803922"/>
      <stop offset="1.0" stop-color="#26372b" stop-opacity="0.18039216"/>
    </radialGradient>
    <radialGradient cx="0" cy="0" gradientTransform="matrix(0.0117, 0.0, 0.0, 0.0117, -31.15, -19.3)" gradientUnits="userSpaceOnUse" id="gradient27" r="819.2" spreadMethod="pad">
      <stop offset="0.0" stop-color="#ffffff"/>
      <stop offset="0.3803921568627451" stop-color="#f0d66c"/>
      <stop offset="0.7450980392156863" stop-color="#945b21" stop-opacity="0.5803922"/>
      <stop offset="1.0" stop-color="#26372b" stop-opacity="0.18039216"/>
    </radialGradient>
    <radialGradient cx="0" cy="0" gradientTransform="matrix(0.0085, 0.0, 0.0, 0.0085, -36.7, -19.3)" gradientUnits="userSpaceOnUse" id="gradient28" r="819.2" spreadMethod="pad">
      <stop offset="0.0" stop-color="#ffffff"/>
      <stop offset="0.3803921568627451" stop-color="#f0d66c"/>
      <stop offset="0.7450980392156863" stop-color="#945b21" stop-opacity="0.5803922"/>
      <stop offset="1.0" stop-color="#26372b" stop-opacity="0.18039216"/>
    </radialGradient>
    <radialGradient cx="0" cy="0" gradientTransform="matrix(0.0166, 0.0, 0.0, 0.0166, -21.1, -23.15)" gradientUnits="userSpaceOnUse" id="gradient29" r="819.2" spreadMethod="pad">
      <stop offset="0.0" stop-color="#ffffff"/>
      <stop offset="0.3803921568627451" stop-color="#f0d66c"/>
      <stop offset="0.7450980392156863" stop-color="#945b21" stop-opacity="0.5803922"/>
      <stop offset="1.0" stop-color="#26372b" stop-opacity="0.18039216"/>
    </radialGradient>
    <radialGradient cx="0" cy="0" gradientTransform="matrix(0.0175, 0.0, 0.0, 0.0175, -20.7, -23.75)" gradientUnits="userSpaceOnUse" id="gradient30" r="819.2" spreadMethod="pad">
      <stop offset="0.0" stop-color="#ffffff"/>
      <stop offset="0.3803921568627451" stop-color="#f0d66c"/>
      <stop offset="0.7450980392156863" stop-color="#945b21" stop-opacity="0.5803922"/>
      <stop offset="1.0" stop-color="#26372b" stop-opacity="0.18039216"/>
    </radialGradient>
    <radialGradient cx="0" cy="0" gradientTransform="matrix(0.0175, 0.0, 0.0, 0.0175, -16.45, -19.5)" gradientUnits="userSpaceOnUse" id="gradient31" r="819.2" spreadMethod="pad">
      <stop offset="0.0" stop-color="#ffffff"/>
      <stop offset="0.3803921568627451" stop-color="#f0d66c"/>
      <stop offset="0.7450980392156863" stop-color="#945b21" stop-opacity="0.5803922"/>
      <stop offset="1.0" stop-color="#26372b" stop-opacity="0.18039216"/>
    </radialGradient>
    <radialGradient cx="0" cy="0" gradientTransform="matrix(0.0209, 0.0, 0.0, 0.0209, -22.55, -16.2)" gradientUnits="userSpaceOnUse" id="gradient32" r="819.2" spreadMethod="pad">
      <stop offset="0.0" stop-color="#ffffff"/>
      <stop offset="0.3803921568627451" stop-color="#f0d66c"/>
      <stop offset="0.7450980392156863" stop-color="#945b21" stop-opacity="0.5803922"/>
      <stop offset="1.0" stop-color="#26372b" stop-opacity="0.18039216"/>
    </radialGradient>
    <radialGradient cx="0" cy="0" gradientTransform="matrix(0.0233, 0.0, 0.0, 0.0233, -20.25, -13.45)" gradientUnits="userSpaceOnUse" id="gradient33" r="819.2" spreadMethod="pad">
      <stop offset="0.0" stop-color="#ffffff"/>
      <stop offset="0.3803921568627451" stop-color="#f0d66c"/>
      <stop offset="0.7450980392156863" stop-color="#945b21" stop-opacity="0.5803922"/>
      <stop offset="1.0" stop-color="#26372b" stop-opacity="0.18039216"/>
    </radialGradient>
    <radialGradient cx="0" cy="0" gradientTransform="matrix(0.0049, 0.0, 0.0, 0.0049, 0.15, -19.8)" gradientUnits="userSpaceOnUse" id="gradient34" r="819.2" spreadMethod="pad">
      <stop offset="0.0" stop-color="#ffffff"/>
      <stop offset="0.3803921568627451" stop-color="#f0d66c"/>
      <stop offset="0.7450980392156863" stop-color="#945b21" stop-opacity="0.5803922"/>
      <stop offset="1.0" stop-color="#26372b" stop-opacity="0.18039216"/>
    </radialGradient>
    <radialGradient cx="0" cy="0" gradientTransform="matrix(0.0091, 0.0, 0.0, 0.0091, 0.0, -16.35)" gradientUnits="userSpaceOnUse" id="gradient35" r="819.2" spreadMethod="pad">
      <stop offset="0.0" stop-color="#ffffff"/>
      <stop offset="0.3803921568627451" stop-color="#f0d66c"/>
      <stop offset="0.7450980392156863" stop-color="#945b21" stop-opacity="0.5803922"/>
      <stop offset="1.0" stop-color="#26372b" stop-opacity="0.18039216"/>
    </radialGradient>
    <radialGradient cx="0" cy="0" gradientTransform="matrix(0.0246, 0.0, 0.0, 0.0246, -12.5, -14.35)" gradientUnits="userSpaceOnUse" id="gradient36" r="819.2" spreadMethod="pad">
      <stop offset="0.0" stop-color="#ffffff"/>
      <stop offset="0.3803921568627451" stop-color="#f0d66c"/>
      <stop offset="0.7450980392156863" stop-color="#945b21" stop-opacity="0.5803922"/>
      <stop offset="1.0" stop-color="#26372b" stop-opacity="0.18039216"/>
    </radialGradient>
    <radialGradient cx="0" cy="0" gradientTransform="matrix(0.0056, 0.0, 0.0, 0.0056, -38.75, -15.65)" gradientUnits="userSpaceOnUse" id="gradient37" r="819.2" spreadMethod="pad">
      <stop offset="0.0" stop-color="#ffffff"/>
      <stop offset="0.3803921568627451" stop-color="#f0d66c"/>
      <stop offset="0.7450980392156863" stop-color="#945b21" stop-opacity="0.5803922"/>
      <stop offset="1.0" stop-color="#26372b" stop-opacity="0.18039216"/>
    </radialGradient>
    <radialGradient cx="0" cy="0" gradientTransform="matrix(0.004, 0.0, 0.0, 0.004, -41.35, -22.45)" gradientUnits="userSpaceOnUse" id="gradient38" r="819.2" spreadMethod="pad">
      <stop offset="0.0" stop-color="#ffffff"/>
      <stop offset="0.3803921568627451" stop-color="#f0d66c"/>
      <stop offset="0.7450980392156863" stop-color="#945b21" stop-opacity="0.5803922"/>
      <stop offset="1.0" stop-color="#26372b" stop-opacity="0.18039216"/>
    </radialGradient>
    <radialGradient cx="0" cy="0" gradientTransform="matrix(0.0045, 0.0, 0.0, 0.0045, -40.9, -23.65)" gradientUnits="userSpaceOnUse" id="gradient39" r="819.2" spreadMethod="pad">
      <stop offset="0.0" stop-color="#ffffff"/>
      <stop offset="0.3803921568627451" stop-color="#f0d66c"/>
      <stop offset="0.7450980392156863" stop-color="#945b21" stop-opacity="0.5803922"/>
      <stop offset="1.0" stop-color="#26372b" stop-opacity="0.18039216"/>
    </radialGradient>
    <radialGradient cx="0" cy="0" gradientTransform="matrix(0.004, 0.0, 0.0, 0.004, -42.15, -22.45)" gradientUnits="userSpaceOnUse" id="gradient40" r="819.2" spreadMethod="pad">
      <stop offset="0.0" stop-color="#ffffff"/>
      <stop offset="0.3803921568627451" stop-color="#f0d66c"/>
      <stop offset="0.7450980392156863" stop-color="#945b21" stop-opacity="0.5803922"/>
      <stop offset="1.0" stop-color="#26372b" stop-opacity="0.18039216"/>
    </radialGradient>
    <radialGradient cx="0" cy="0" gradientTransform="matrix(0.0059, 0.0, 0.0, 0.0059, -2.9, -24.75)" gradientUnits="userSpaceOnUse" id="gradient41" r="819.2" spreadMethod="pad">
      <stop offset="0.0" stop-color="#ffffff"/>
      <stop offset="0.3803921568627451" stop-color="#f0d66c"/>
      <stop offset="0.7450980392156863" stop-color="#945b21" stop-opacity="0.5803922"/>
      <stop offset="1.0" stop-color="#26372b" stop-opacity="0.18039216"/>
    </radialGradient>
    <radialGradient cx="0" cy="0" gradientTransform="matrix(0.0024, 0.0, 0.0, 0.0024, -9.0, -26.25)" gradientUnits="userSpaceOnUse" id="gradient42" r="819.2" spreadMethod="pad">
      <stop offset="0.0" stop-color="#ffffff"/>
      <stop offset="0.3803921568627451" stop-color="#f0d66c"/>
      <stop offset="0.7450980392156863" stop-color="#945b21" stop-opacity="0.5803922"/>
      <stop offset="1.0" stop-color="#26372b" stop-opacity="0.18039216"/>
    </radialGradient>
    <radialGradient cx="0" cy="0" gradientTransform="matrix(0.0068, 0.0, 0.0, 0.0068, -31.35, -30.3)" gradientUnits="userSpaceOnUse" id="gradient43" r="819.2" spreadMethod="pad">
      <stop offset="0.0" stop-color="#ffffff"/>
      <stop offset="0.3803921568627451" stop-color="#f0d66c"/>
      <stop offset="0.7450980392156863" stop-color="#945b21" stop-opacity="0.5803922"/>
      <stop offset="1.0" stop-color="#26372b" stop-opacity="0.18039216"/>
    </radialGradient>
    <radialGradient cx="0" cy="0" gradientTransform="matrix(0.004, 0.0, 0.0, 0.004, -36.65, -33.35)" gradientUnits="userSpaceOnUse" id="gradient44" r="819.2" spreadMethod="pad">
      <stop offset="0.0" stop-color="#ffffff"/>
      <stop offset="0.3803921568627451" stop-color="#f0d66c"/>
      <stop offset="0.7450980392156863" stop-color="#945b21" stop-opacity="0.5803922"/>
      <stop offset="1.0" stop-color="#26372b" stop-opacity="0.18039216"/>
    </radialGradient>
    <radialGradient cx="0" cy="0" gradientTransform="matrix(0.0065, 0.0, 0.0, 0.0065, -38.35, -24.85)" gradientUnits="userSpaceOnUse" id="gradient45" r="819.2" spreadMethod="pad">
      <stop offset="0.0" stop-color="#ffffff"/>
      <stop offset="0.3803921568627451" stop-color="#f0d66c"/>
      <stop offset="0.7450980392156863" stop-color="#945b21" stop-opacity="0.5803922"/>
      <stop offset="1.0" stop-color="#26372b" stop-opacity="0.18039216"/>
    </radialGradient>
    <radialGradient cx="0" cy="0" gradientTransform="matrix(0.0059, 0.0, 0.0, 0.0059, -47.85, -19.8)" gradientUnits="userSpaceOnUse" id="gradient46" r="819.2" spreadMethod="pad">
      <stop offset="0.0" stop-color="#ffffff"/>
      <stop offset="0.3803921568627451" stop-color="#f0d66c"/>
      <stop offset="0.7450980392156863" stop-color="#945b21" stop-opacity="0.5803922"/>
      <stop offset="1.0" stop-color="#26372b" stop-opacity="0.18039216"/>
    </radialGradient>
    <radialGradient cx="0" cy="0" gradientTransform="matrix(0.0063, 0.0, 0.0, 0.0063, -46.1, -21.85)" gradientUnits="userSpaceOnUse" id="gradient47" r="819.2" spreadMethod="pad">
      <stop offset="0.0" stop-color="#ffffff"/>
      <stop offset="0.3803921568627451" stop-color="#f0d66c"/>
      <stop offset="0.7450980392156863" stop-color="#945b21" stop-opacity="0.5803922"/>
      <stop offset="1.0" stop-color="#26372b" stop-opacity="0.18039216"/>
    </radialGradient>
    <radialGradient cx="0" cy="0" gradientTransform="matrix(0.0031, 0.0, 0.0, 0.0031, -47.35, -21.35)" gradientUnits="userSpaceOnUse" id="gradient48" r="819.2" spreadMethod="pad">
      <stop offset="0.0" stop-color="#ffffff"/>
      <stop offset="0.3803921568627451" stop-color="#f0d66c"/>
      <stop offset="0.7450980392156863" stop-color="#945b21" stop-opacity="0.5803922"/>
      <stop offset="1.0" stop-color="#26372b" stop-opacity="0.18039216"/>
    </radialGradient>
    <radialGradient cx="0" cy="0" gradientTransform="matrix(0.0034, 0.0, 0.0, 0.0034, -49.0, -19.25)" gradientUnits="userSpaceOnUse" id="gradient49" r="819.2" spreadMethod="pad">
      <stop offset="0.0" stop-color="#ffffff"/>
      <stop offset="0.3803921568627451" stop-color="#f0d66c"/>
      <stop offset="0.7450980392156863" stop-color="#945b21" stop-opacity="0.5803922"/>
      <stop offset="1.0" stop-color="#26372b" stop-opacity="0.18039216"/>
    </radialGradient>
    <radialGradient cx="0" cy="0" gradientTransform="matrix(0.0016, 0.0, 0.0, 0.0016, 14.4, -32.15)" gradientUnits="userSpaceOnUse" id="gradient50" r="819.2" spreadMethod="pad">
      <stop offset="0.0" stop-color="#ffffff"/>
      <stop offset="0.3803921568627451" stop-color="#f0d66c"/>
      <stop offset="0.7450980392156863" stop-color="#945b21" stop-opacity="0.5803922"/>
      <stop offset="1.0" stop-color="#26372b" stop-opacity="0.18039216"/>
    </radialGradient>
    <radialGradient cx="0" cy="0" gradientTransform="matrix(0.0038, 0.0, 0.0, 0.0038, 15.35, -31.2)" gradientUnits="userSpaceOnUse" id="gradient51" r="819.2" spreadMethod="pad">
      <stop offset="0.0" stop-color="#ffffff"/>
      <stop offset="0.3803921568627451" stop-color="#f0d66c"/>
      <stop offset="0.7450980392156863" stop-color="#945b21" stop-opacity="0.5803922"/>
      <stop offset="1.0" stop-color="#26372b" stop-opacity="0.18039216"/>
    </radialGradient>
    <radialGradient cx="0" cy="0" gradientTransform="matrix(0.0029, 0.0, 0.0, 0.0029, 12.45, -24.6)" gradientUnits="userSpaceOnUse" id="gradient52" r="819.2" spreadMethod="pad">
      <stop offset="0.0" stop-color="#ffffff"/>
      <stop offset="0.3803921568627451" stop-color="#f0d66c"/>
      <stop offset="0.7450980392156863" stop-color="#945b21" stop-opacity="0.5803922"/>
      <stop offset="1.0" stop-color="#26372b" stop-opacity="0.18039216"/>
    </radialGradient>
    <radialGradient cx="0" cy="0" gradientTransform="matrix(0.0054, 0.0, 0.0, 0.0054, 10.1, -21.15)" gradientUnits="userSpaceOnUse" id="gradient53" r="819.2" spreadMethod="pad">
      <stop offset="0.0" stop-color="#ffffff"/>
      <stop offset="0.3803921568627451" stop-color="#f0d66c"/>
      <stop offset="0.7450980392156863" stop-color="#945b21" stop-opacity="0.5803922"/>
      <stop offset="1.0" stop-color="#26372b" stop-opacity="0.18039216"/>
    </radialGradient>
    <radialGradient cx="0" cy="0" gradientTransform="matrix(0.0204, 0.0, 0.0, 0.0204, -36.75, -13.45)" gradientUnits="userSpaceOnUse" id="gradient54" r="819.2" spreadMethod="pad">
      <stop offset="0.0" stop-color="#ffffff"/>
      <stop offset="0.3803921568627451" stop-color="#f0d66c"/>
      <stop offset="0.7450980392156863" stop-color="#945b21" stop-opacity="0.5803922"/>
      <stop offset="1.0" stop-color="#26372b" stop-opacity="0.18039216"/>
    </radialGradient>
    <radialGradient cx="0" cy="0" gradientTransform="matrix(0.0228, 0.0, 0.0, 0.0228, 3.2, -14.35)" gradientUnits="userSpaceOnUse" id="gradient55" r="819.2" spreadMethod="pad">
      <stop offset="0.0" stop-color="#ffffff"/>
      <stop offset="0.3803921568627451" stop-color="#f0d66c"/>
      <stop offset="0.7450980392156863" stop-color="#945b21" stop-opacity="0.5803922"/>
      <stop offset="1.0" stop-color="#26372b" stop-opacity="0.18039216"/>
    </radialGradient>
    <radialGradient cx="0" cy="0" gradientTransform="matrix(0.0269, 0.0, 0.0, 0.0269, -40.55, -14.45)" gradientUnits="userSpaceOnUse" id="gradient56" r="819.2" spreadMethod="pad">
      <stop offset="0.0" stop-color="#ffffff"/>
      <stop offset="0.3803921568627451" stop-color="#f0d66c"/>
      <stop offset="0.7450980392156863" stop-color="#945b21" stop-opacity="0.5803922"/>
      <stop offset="1.0" stop-color="#26372b" stop-opacity="0.18039216"/>
    </radialGradient>
    <radialGradient cx="0" cy="0" gradientTransform="matrix(0.0046, 0.0, 0.0, 0.0046, -62.35, -18.55)" gradientUnits="userSpaceOnUse" id="gradient57" r="819.2" spreadMethod="pad">
      <stop offset="0.0" stop-color="#ffffff"/>
      <stop offset="0.3803921568627451" stop-color="#f0d66c"/>
      <stop offset="0.7450980392156863" stop-color="#945b21" stop-opacity="0.5803922"/>
      <stop offset="1.0" stop-color="#26372b" stop-opacity="0.18039216"/>
    </radialGradient>
  </defs>
</svg>
