<?xml version="1.0" encoding="UTF-8" standalone="no"?>
<svg xmlns:ffdec="https://www.free-decompiler.com/flash" xmlns:xlink="http://www.w3.org/1999/xlink" ffdec:objectType="shape" height="50.75px" width="98.55px" xmlns="http://www.w3.org/2000/svg">
  <g transform="matrix(1.0, 0.0, 0.0, 1.0, 74.55, 56.15)">
    <path d="M10.05 -27.3 Q7.6 -24.95 6.1 -24.5 L4.75 -24.5 4.5 -24.9 6.6 -26.7 8.9 -28.3 Q9.75 -28.3 10.0 -27.9 L10.05 -27.3" fill="url(#gradient0)" fill-rule="evenodd" stroke="none"/>
    <path d="M1.8 -35.35 Q1.8 -31.4 -0.05 -27.3 L-1.95 -23.35 -1.9 -22.8 -1.65 -22.75 Q-0.95 -22.75 -0.1 -23.5 0.7 -24.3 1.45 -24.3 3.0 -24.3 2.95 -22.8 2.95 -21.6 1.45 -20.65 L-1.7 -18.15 -5.55 -13.65 -6.05 -13.0 -7.6 -11.35 -9.5 -9.15 Q-9.45 -8.3 -9.55 -7.9 -9.75 -7.1 -11.0 -7.0 L-13.75 -6.65 -14.65 -6.3 Q-15.9 -5.4 -16.45 -5.4 -17.85 -5.4 -19.85 -6.05 -21.9 -6.8 -25.5 -6.9 L-29.15 -6.9 Q-31.2 -7.7 -32.25 -9.2 -33.35 -10.85 -35.45 -11.8 -42.45 -15.0 -42.45 -16.85 -42.45 -17.95 -42.0 -18.05 L-40.65 -17.9 -39.9 -17.95 -39.55 -18.3 -39.75 -18.75 -39.95 -19.4 Q-39.95 -20.65 -38.2 -21.55 -36.45 -22.4 -36.45 -22.7 -36.45 -23.8 -37.55 -25.65 -38.7 -27.5 -38.7 -29.1 L-38.7 -30.55 Q-38.35 -31.75 -36.6 -31.75 -35.25 -31.75 -33.95 -30.6 -32.65 -29.5 -31.5 -29.5 -30.15 -29.5 -29.8 -29.95 -29.6 -30.2 -29.7 -30.45 -29.7 -30.95 -30.3 -31.45 L-30.95 -32.35 -29.65 -34.2 Q-28.4 -35.6 -28.4 -36.9 -28.4 -38.15 -29.65 -39.15 -30.9 -40.15 -30.9 -40.9 -30.9 -41.6 -30.25 -41.4 L-27.7 -41.0 Q-27.05 -40.9 -26.8 -40.1 L-26.55 -38.85 Q-26.45 -37.75 -25.9 -36.8 -24.8 -35.0 -21.85 -35.0 L-19.75 -35.05 -16.15 -35.3 -15.6 -35.3 Q-15.1 -33.6 -13.55 -33.6 -11.75 -33.6 -11.35 -34.55 -10.95 -35.5 -9.8 -35.5 -8.5 -35.5 -8.0 -34.8 -7.5 -34.05 -6.8 -34.0 L-4.15 -34.05 Q-3.3 -34.5 -3.1 -35.35 L-2.65 -36.75 -1.25 -37.85 Q-0.25 -38.55 -0.25 -39.0 L-0.5 -39.9 -0.5 -40.65 -0.2 -40.75 Q1.05 -40.75 1.55 -38.05 L1.8 -35.35" fill="url(#gradient1)" fill-rule="evenodd" stroke="none"/>
    <path d="M0.5 -41.65 L-0.1 -41.7 Q-0.6 -42.1 -0.6 -42.9 -0.6 -44.1 0.1 -43.9 0.75 -43.7 0.75 -42.7 L0.5 -41.65" fill="url(#gradient2)" fill-rule="evenodd" stroke="none"/>
    <path d="M-30.2 -45.65 L-29.45 -43.8 -29.45 -42.85 -30.05 -42.8 Q-31.35 -42.8 -31.8 -43.55 L-32.15 -44.65 -32.85 -45.8 -33.15 -46.7 Q-33.15 -47.15 -32.75 -47.45 -30.6 -47.3 -30.2 -46.7 L-30.2 -45.65" fill="url(#gradient3)" fill-rule="evenodd" stroke="none"/>
    <path d="M-37.95 -34.05 L-38.05 -34.5 -38.15 -33.4 -39.25 -33.4 -40.1 -34.7 -40.65 -36.0 -40.5 -36.75 -40.15 -37.55 Q-38.35 -37.2 -38.05 -36.8 L-38.1 -35.9 -37.95 -35.1 -37.8 -34.3 -37.9 -34.05 -37.95 -34.05" fill="url(#gradient4)" fill-rule="evenodd" stroke="none"/>
    <path d="M-52.95 -21.05 L-52.05 -21.2 -50.15 -21.05 -50.15 -20.9 Q-50.15 -20.5 -49.35 -19.85 -48.5 -19.1 -48.35 -18.75 -49.0 -18.8 -49.15 -18.45 L-49.25 -18.55 Q-50.05 -19.3 -50.3 -19.3 L-51.85 -19.55 -52.0 -19.65 -52.05 -19.65 -52.0 -19.55 -52.7 -19.75 -53.35 -20.25 -53.25 -20.25 Q-52.7 -20.25 -52.7 -20.7 L-52.95 -21.05 M-48.2 -21.15 L-48.0 -21.2 -46.45 -21.5 -46.45 -21.55 -43.65 -21.55 -42.1 -21.7 Q-41.5 -21.85 -41.0 -21.25 L-40.75 -20.75 Q-40.75 -20.35 -42.05 -20.1 L-42.0 -19.75 -42.2 -19.2 Q-42.7 -18.75 -44.0 -18.95 L-47.1 -18.9 -47.25 -18.45 -47.9 -18.65 -48.1 -18.7 Q-48.0 -18.7 -47.85 -18.85 L-47.6 -19.2 -48.0 -19.7 -48.55 -20.35 -48.2 -20.7 -48.0 -21.0 -48.2 -21.15" fill="url(#gradient5)" fill-rule="evenodd" stroke="none"/>
    <path d="M-47.25 -18.45 L-46.25 -18.15 -46.45 -18.3 -46.5 -18.4 -46.3 -18.55 Q-45.8 -18.55 -44.25 -17.6 L-42.85 -16.7 -44.75 -17.5 -46.5 -17.8 Q-47.8 -17.85 -47.8 -17.4 L-47.75 -17.25 -48.5 -17.75 -48.5 -17.8 -49.15 -18.45 Q-49.0 -18.8 -48.35 -18.75 L-48.15 -18.7 -48.1 -18.7 -47.9 -18.65 -47.25 -18.45 M-46.8 -16.55 L-46.1 -16.25 -46.45 -16.3 -46.8 -16.55" fill="url(#gradient6)" fill-rule="evenodd" stroke="none"/>
    <path d="M-50.15 -21.05 L-49.6 -21.6 Q-49.0 -21.7 -48.2 -21.15 L-48.0 -21.0 -48.2 -20.7 -48.55 -20.35 -48.0 -19.7 -47.6 -19.2 -47.85 -18.85 Q-48.0 -18.7 -48.1 -18.7 L-48.15 -18.7 -48.35 -18.75 Q-48.5 -19.1 -49.35 -19.85 -50.15 -20.5 -50.15 -20.9 L-50.15 -21.05" fill="url(#gradient7)" fill-rule="evenodd" stroke="none"/>
    <path d="M-44.6 -45.0 Q-45.1 -45.65 -45.65 -45.65 -46.3 -45.65 -46.7 -46.25 L-46.9 -46.7 -45.0 -46.75 Q-43.1 -45.45 -43.1 -44.85 L-43.15 -44.6 -43.55 -44.35 Q-44.05 -44.35 -44.6 -45.0" fill="url(#gradient8)" fill-rule="evenodd" stroke="none"/>
    <path d="M-41.3 -44.05 L-42.25 -44.75 -42.95 -45.75 -42.95 -46.2 Q-42.4 -46.2 -41.8 -45.5 L-41.1 -44.4 -41.3 -44.05" fill="url(#gradient9)" fill-rule="evenodd" stroke="none"/>
    <path d="M-48.9 -53.4 L-48.95 -53.15 -49.1 -53.1 Q-49.85 -53.1 -49.85 -54.1 L-49.25 -54.1 Q-48.9 -53.75 -48.9 -53.4" fill="url(#gradient10)" fill-rule="evenodd" stroke="none"/>
    <path d="M-38.0 -55.15 L-38.85 -56.1 Q-38.5 -56.35 -37.9 -55.7 L-37.05 -54.6 -38.0 -55.15" fill="url(#gradient11)" fill-rule="evenodd" stroke="none"/>
    <path d="M-4.25 -38.35 Q-4.3 -38.25 -4.45 -38.25 L-8.95 -41.8 -15.55 -46.85 -15.4 -46.85 Q-12.15 -45.25 -8.9 -42.5 L-4.15 -38.45 -4.25 -38.35" fill="url(#gradient12)" fill-rule="evenodd" stroke="none"/>
    <path d="M-21.5 -49.8 Q-17.15 -46.85 -11.95 -44.15 -15.15 -45.5 -17.75 -47.0 -21.1 -48.9 -21.8 -50.15 -19.25 -49.65 -17.5 -48.1 L-17.65 -48.0 Q-19.75 -49.3 -21.2 -49.8 L-21.5 -49.8" fill="url(#gradient13)" fill-rule="evenodd" stroke="none"/>
    <path d="M1.7 -33.95 Q2.4 -32.5 2.25 -31.2 L2.1 -31.05 1.0 -33.5 -0.55 -36.05 -2.05 -37.45 Q0.15 -35.85 1.7 -33.95 M-2.8 -38.15 L-3.25 -38.55 -5.95 -41.1 -5.75 -41.25 -1.0 -37.3 Q-2.1 -38.2 -2.8 -38.15" fill="url(#gradient14)" fill-rule="evenodd" stroke="none"/>
    <path d="M-2.05 -37.45 L-3.0 -38.15 -2.8 -38.15 Q-2.1 -38.2 -1.0 -37.3 L0.95 -35.6 4.3 -32.2 4.95 -28.95 5.45 -25.25 5.4 -23.45 5.15 -23.85 4.95 -25.05 4.6 -25.65 4.15 -29.25 Q3.4 -31.75 1.7 -33.95 0.15 -35.85 -2.05 -37.45 M5.35 -22.25 L5.4 -20.35 5.25 -20.3 5.05 -21.9 5.35 -22.25" fill="url(#gradient15)" fill-rule="evenodd" stroke="none"/>
    <path d="M-61.05 -22.0 L-59.5 -22.2 -54.25 -21.4 -54.25 -22.8 Q-54.25 -24.1 -52.0 -23.65 -49.75 -23.2 -49.75 -22.65 -49.75 -22.25 -50.05 -22.25 L-51.75 -22.55 -53.65 -22.95 -53.75 -22.3 -53.2 -21.35 -52.95 -21.05 -52.7 -20.7 Q-52.7 -20.25 -53.25 -20.25 L-53.35 -20.25 -59.0 -21.1 Q-60.25 -21.8 -61.05 -22.0" fill="url(#gradient16)" fill-rule="evenodd" stroke="none"/>
    <path d="M-55.0 -18.0 L-54.15 -17.1 Q-55.05 -17.45 -56.8 -18.3 L-57.1 -18.4 -57.2 -18.45 -58.05 -18.9 -61.0 -20.65 -60.95 -20.8 -62.1 -22.1 -61.05 -22.0 Q-60.25 -21.8 -59.0 -21.1 L-58.05 -20.55 -54.8 -19.3 -54.8 -19.25 -54.55 -18.7 -53.75 -18.0 -53.85 -18.0 -55.3 -18.55 -55.35 -18.6 -56.4 -19.4 Q-57.55 -20.25 -58.3 -20.2 L-58.25 -19.95 -55.0 -18.0" fill="url(#gradient17)" fill-rule="evenodd" stroke="none"/>
    <path d="M-46.1 -16.25 L-44.85 -15.85 -44.85 -15.75 -45.85 -15.85 -46.45 -16.3 -46.1 -16.25 M-49.15 -16.65 L-48.65 -16.2 -49.45 -16.3 -49.55 -16.7 -49.15 -16.65" fill="url(#gradient18)" fill-rule="evenodd" stroke="none"/>
    <path d="M-42.85 -16.7 L-39.9 -15.7 -39.15 -15.9 -38.8 -15.7 -38.8 -15.4 -38.05 -15.05 -37.4 -14.5 -39.4 -15.7 -39.6 -15.5 -39.25 -15.15 -42.15 -16.25 -44.15 -16.75 -44.8 -16.5 -44.95 -16.1 -44.85 -15.85 -46.1 -16.25 -46.8 -16.55 -47.7 -17.2 -47.75 -17.25 -47.8 -17.4 Q-47.8 -17.85 -46.5 -17.8 L-44.75 -17.5 -42.85 -16.7 M-35.85 -12.75 L-35.05 -11.9 -36.4 -12.55 -36.4 -12.6 Q-36.05 -12.6 -35.85 -12.75 M-34.6 -11.7 L-34.9 -13.2 -34.75 -13.3 -34.15 -12.0 -33.9 -11.35 -34.6 -11.7" fill="url(#gradient19)" fill-rule="evenodd" stroke="none"/>
    <path d="M-38.45 -26.85 L-37.3 -27.4 -34.85 -27.7 -37.3 -27.0 -38.4 -26.55 -38.45 -26.85" fill="url(#gradient20)" fill-rule="evenodd" stroke="none"/>
    <path d="M-3.25 -32.25 Q-3.9 -32.5 -4.65 -33.7 L-4.65 -33.8 -4.0 -33.35 -3.55 -32.9 -6.05 -37.5 Q-7.9 -40.15 -10.95 -42.1 -7.3 -40.4 -5.5 -37.4 L-3.2 -32.35 -3.25 -32.25" fill="url(#gradient21)" fill-rule="evenodd" stroke="none"/>
    <path d="M1.05 -38.05 L1.05 -38.25 0.6 -39.4 Q4.85 -34.8 6.0 -31.95 L6.0 -31.8 5.8 -31.75 Q5.5 -31.75 5.0 -32.35 L4.55 -32.95 4.65 -33.05 4.75 -33.2 Q4.75 -33.75 1.3 -37.75 L1.05 -38.05 M-4.55 -44.5 L-9.7 -47.95 Q-12.9 -49.8 -15.85 -50.9 -10.6 -49.8 -4.55 -44.5" fill="url(#gradient22)" fill-rule="evenodd" stroke="none"/>
    <path d="M-8.35 -45.2 Q-6.7 -44.05 -3.65 -41.15 L-3.7 -41.1 -6.85 -43.75 -8.35 -45.2" fill="url(#gradient23)" fill-rule="evenodd" stroke="none"/>
    <path d="M5.4 -23.45 L5.45 -23.35 5.75 -22.75 5.35 -22.25 5.05 -21.9 3.4 -20.1 0.75 -17.5 0.15 -17.65 -0.35 -17.65 -0.4 -17.6 -0.5 -17.75 Q-0.5 -18.5 1.9 -20.8 4.3 -23.1 4.3 -23.8 4.3 -25.65 3.0 -25.65 L2.4 -25.45 2.05 -25.25 1.85 -25.3 1.8 -25.45 2.6 -25.95 3.85 -26.2 4.55 -25.75 4.6 -25.65 4.95 -25.05 5.15 -23.85 5.4 -23.45" fill="url(#gradient24)" fill-rule="evenodd" stroke="none"/>
    <path d="M13.95 -22.6 Q13.95 -22.0 13.6 -21.85 L10.8 -21.6 0.4 -16.0 0.15 -16.05 0.05 -16.25 Q0.05 -16.5 2.8 -18.0 L6.2 -19.8 9.3 -21.55 Q11.3 -22.65 13.0 -22.85 L13.15 -23.0 12.55 -23.55 12.6 -23.55 13.55 -23.25 13.6 -23.2 Q13.6 -22.8 13.95 -22.6" fill="url(#gradient25)" fill-rule="evenodd" stroke="none"/>
    <path d="M12.55 -23.55 L12.45 -23.5 11.4 -23.1 11.2 -23.25 Q11.35 -23.6 13.1 -24.35 15.05 -25.15 15.45 -25.5 16.05 -26.0 17.0 -25.5 17.85 -25.0 17.85 -24.45 17.85 -24.15 16.55 -23.35 15.2 -22.5 14.6 -22.5 L13.95 -22.6 Q13.6 -22.8 13.6 -23.2 L13.65 -23.7 13.6 -23.9 13.6 -23.95 12.6 -23.55 12.55 -23.55" fill="url(#gradient26)" fill-rule="evenodd" stroke="none"/>
    <path d="M24.0 -36.3 Q24.0 -36.05 20.25 -33.85 L20.2 -34.0 21.3 -34.7 Q22.5 -35.35 22.7 -35.85 23.15 -36.95 23.6 -36.9 24.0 -36.8 24.0 -36.3" fill="url(#gradient27)" fill-rule="evenodd" stroke="none"/>
    <path d="M21.15 -37.9 L19.3 -36.6 Q19.05 -36.7 19.05 -37.0 22.65 -41.75 22.65 -39.35 22.65 -39.05 21.15 -37.9" fill="url(#gradient28)" fill-rule="evenodd" stroke="none"/>
    <path d="M15.5 -32.65 L15.5 -32.5 15.65 -32.4 Q16.35 -32.4 16.85 -32.8 L17.6 -33.4 17.8 -33.15 Q16.95 -32.4 16.6 -31.35 16.35 -30.75 15.5 -30.75 15.15 -30.75 15.0 -31.0 L14.9 -31.3 15.2 -31.9 Q15.45 -32.25 15.35 -32.55 L15.5 -32.65" fill="url(#gradient29)" fill-rule="evenodd" stroke="none"/>
    <path d="M13.55 -34.7 L12.9 -34.7 12.85 -34.9 Q12.85 -35.7 13.8 -36.1 14.7 -36.5 14.7 -35.55 14.7 -35.05 13.55 -34.7" fill="url(#gradient30)" fill-rule="evenodd" stroke="none"/>
    <path d="M-47.7 -36.9 Q-47.7 -37.9 -46.5 -37.4 -45.35 -36.9 -45.35 -36.15 -45.35 -35.65 -45.8 -35.65 -46.5 -35.65 -47.15 -36.2 L-47.7 -36.9" fill="url(#gradient31)" fill-rule="evenodd" stroke="none"/>
    <path d="M-51.15 -46.45 L-51.4 -46.2 -52.75 -47.7 Q-53.4 -48.4 -53.4 -49.2 -53.4 -49.85 -52.95 -49.6 -52.5 -49.35 -52.5 -48.6 L-51.15 -46.45" fill="url(#gradient32)" fill-rule="evenodd" stroke="none"/>
    <path d="M-46.65 -33.05 Q-46.65 -34.85 -45.3 -32.65 -45.3 -32.05 -45.85 -32.05 -46.75 -32.05 -46.65 -33.05" fill="url(#gradient33)" fill-rule="evenodd" stroke="none"/>
    <path d="M-46.8 -26.7 Q-46.8 -27.15 -46.3 -27.25 -45.85 -27.35 -45.85 -26.7 -45.85 -26.15 -46.3 -26.15 -46.95 -26.15 -46.8 -26.7" fill="url(#gradient34)" fill-rule="evenodd" stroke="none"/>
    <path d="M-40.5 -32.4 L-38.85 -28.55 -38.45 -26.85 -38.4 -26.55 -38.3 -24.9 Q-38.3 -23.95 -39.2 -23.95 L-39.8 -24.15 Q-39.85 -23.95 -40.05 -23.7 L-40.6 -23.4 Q-41.5 -23.4 -42.0 -25.15 -42.0 -26.2 -41.3 -26.15 -41.8 -27.0 -41.8 -27.95 -41.8 -29.1 -41.0 -29.1 -40.5 -29.1 -40.25 -28.7 L-40.0 -28.15 -40.6 -32.3 -40.5 -32.4" fill="url(#gradient35)" fill-rule="evenodd" stroke="none"/>
    <path d="M-46.85 -40.6 L-47.35 -41.55 -47.25 -41.55 -45.65 -38.95 -46.85 -40.6 M-43.85 -36.65 L-43.85 -38.15 Q-43.7 -39.3 -42.75 -39.3 L-42.25 -39.05 -42.15 -38.85 -42.35 -38.0 -42.6 -37.0 Q-42.6 -36.05 -41.45 -34.85 -40.3 -33.65 -40.3 -33.05 L-40.4 -32.5 -43.85 -36.65 M-40.45 -32.45 L-40.5 -32.4 -40.6 -32.3 -41.0 -32.25 Q-41.4 -32.25 -41.8 -32.65 -42.15 -33.05 -42.6 -33.05 -44.0 -33.05 -44.8 -34.85 L-45.45 -36.7 -44.05 -35.25 Q-41.95 -33.15 -41.45 -33.15 L-41.0 -32.95 -40.45 -32.45" fill="url(#gradient36)" fill-rule="evenodd" stroke="none"/>
    <path d="M-45.45 -36.7 L-46.85 -38.3 -48.5 -41.05 Q-49.45 -42.8 -50.15 -43.6 L-50.15 -44.05 Q-48.35 -44.1 -47.45 -41.6 L-46.85 -40.6 -45.65 -38.95 -45.4 -38.6 -43.85 -36.65 -40.4 -32.5 -40.45 -32.45 -41.0 -32.95 -41.45 -33.15 Q-41.95 -33.15 -44.05 -35.25 L-45.45 -36.7" fill="url(#gradient37)" fill-rule="evenodd" stroke="none"/>
    <path d="M-31.85 -30.05 L-30.7 -29.3 Q-29.15 -28.15 -29.0 -28.1 L-28.95 -29.6 -29.0 -30.95 Q-29.2 -31.85 -29.95 -32.25 L-29.85 -30.3 -30.05 -30.2 Q-30.75 -33.25 -32.75 -34.4 -34.45 -35.35 -34.45 -36.75 -34.45 -39.45 -32.95 -40.6 -31.5 -41.75 -31.5 -40.25 -31.5 -40.1 -32.25 -39.4 L-30.5 -37.9 Q-29.85 -37.3 -29.85 -36.35 -29.85 -35.55 -30.5 -35.25 -30.05 -34.3 -28.1 -32.45 -27.5 -31.85 -27.5 -29.65 -27.45 -28.65 -27.55 -27.85 -27.75 -26.2 -28.45 -26.2 -29.35 -26.2 -31.9 -28.8 -31.2 -26.65 -31.2 -25.7 -31.2 -25.0 -31.4 -24.9 L-32.75 -24.75 -33.2 -25.05 -32.75 -25.35 -32.15 -25.6 Q-32.1 -26.3 -32.6 -27.5 L-33.0 -28.7 Q-32.2 -29.4 -31.85 -30.05 M-33.1 -29.4 Q-33.05 -30.3 -32.55 -30.3 L-33.05 -29.5 -33.1 -29.4 M-32.35 -39.3 L-32.8 -38.55 -32.85 -37.85 Q-32.85 -36.6 -32.55 -36.4 L-32.05 -36.4 -30.9 -36.55 -30.85 -36.9 -31.5 -38.25 -32.35 -39.3" fill="url(#gradient38)" fill-rule="evenodd" stroke="none"/>
    <path d="M-33.0 -28.7 L-33.4 -28.45 -33.7 -28.8 -33.1 -29.4 -33.05 -29.5 -32.55 -30.3 -32.4 -31.15 -32.9 -31.25 Q-33.5 -31.15 -33.6 -30.6 L-33.6 -30.55 -33.65 -30.7 -33.5 -31.3 Q-33.5 -31.7 -32.55 -31.85 -31.6 -31.95 -31.6 -31.05 L-31.85 -30.05 Q-32.2 -29.4 -33.0 -28.7" fill="url(#gradient39)" fill-rule="evenodd" stroke="none"/>
    <path d="M-10.45 -26.8 L-8.3 -27.35 -8.7 -28.25 -9.9 -28.4 -10.05 -28.8 Q-10.05 -29.2 -9.2 -29.4 -7.95 -29.7 -7.2 -30.15 -4.6 -31.65 -4.6 -30.5 -4.6 -29.95 -5.6 -28.75 -6.55 -27.6 -7.25 -27.1 L-7.25 -20.7 Q-7.3 -18.65 -8.4 -16.0 L-8.5 -16.0 Q-8.15 -18.0 -8.15 -19.7 L-8.3 -26.6 -11.55 -25.95 -11.85 -26.2 Q-11.85 -26.5 -10.45 -26.8 M-5.45 -30.2 L-7.85 -28.95 -7.25 -27.95 Q-6.4 -28.35 -6.0 -29.05 -5.75 -29.45 -5.45 -30.2" fill="url(#gradient40)" fill-rule="evenodd" stroke="none"/>
    <path d="M-8.45 -11.95 L-7.75 -12.05 -7.8 -12.0 Q-9.15 -11.4 -10.25 -10.6 L-13.5 -9.7 -13.85 -10.0 Q-13.85 -10.35 -11.45 -11.1 L-8.65 -11.9 -8.45 -11.95" fill="url(#gradient41)" fill-rule="evenodd" stroke="none"/>
    <path d="M-8.45 -11.95 L-8.7 -11.95 Q-9.35 -11.9 -9.8 -12.35 L-8.9 -12.55 -7.45 -12.45 -7.4 -12.45 -8.45 -11.95 M-10.25 -10.6 Q-4.0 -12.65 -2.85 -15.05 L-2.55 -15.6 Q-0.8 -16.6 -0.8 -15.5 -0.8 -15.1 -3.25 -13.15 L-5.75 -11.25 -3.85 -11.8 -1.85 -12.4 -0.95 -12.1 Q-3.25 -11.6 -6.85 -8.7 -10.25 -5.95 -11.1 -5.95 -11.75 -5.95 -12.45 -6.5 -13.05 -6.95 -13.05 -7.25 -13.05 -8.3 -11.45 -9.7 L-10.25 -10.6" fill="url(#gradient42)" fill-rule="evenodd" stroke="none"/>
    <path d="M0.4 -10.8 Q0.25 -10.8 0.05 -10.6 L-0.35 -10.35 -0.6 -10.4 -0.35 -10.65 -0.65 -11.05 Q-0.65 -11.75 1.6 -12.6 3.85 -13.45 3.85 -12.15 3.85 -10.8 0.4 -10.8" fill="url(#gradient43)" fill-rule="evenodd" stroke="none"/>
    <path d="M-35.05 -11.9 L-34.6 -11.7 -33.9 -11.35 -30.0 -9.55 -31.5 -9.75 -34.4 -10.4 -37.15 -12.1 -42.5 -15.2 -42.25 -15.1 Q-38.25 -12.7 -36.5 -12.6 L-36.4 -12.55 -35.05 -11.9" fill="url(#gradient44)" fill-rule="evenodd" stroke="none"/>
    <path d="M-37.4 -14.5 L-37.25 -14.45 Q-35.7 -13.55 -35.7 -13.2 -35.7 -12.9 -35.85 -12.75 -36.05 -12.6 -36.4 -12.6 L-36.5 -12.6 Q-38.25 -12.7 -42.25 -15.1 L-42.5 -15.2 -37.15 -12.1 -34.4 -10.4 -40.7 -11.65 -43.05 -12.05 -45.5 -13.75 -48.65 -16.2 -49.15 -16.65 -50.25 -17.7 -48.9 -17.3 -48.7 -17.4 -48.5 -17.75 -47.75 -17.25 -47.7 -17.2 -46.8 -16.55 -46.45 -16.3 -45.85 -15.85 -44.15 -14.7 -44.7 -15.45 -44.85 -15.75 -44.85 -15.85 -44.95 -16.1 -44.8 -16.5 -44.15 -16.75 -42.15 -16.25 -39.25 -15.15 -39.6 -15.5 -39.4 -15.7 -37.4 -14.5 M-33.05 -8.25 L-33.6 -8.05 Q-35.85 -8.05 -38.85 -9.5 L-36.3 -8.95 -33.05 -8.25 M-52.0 -19.55 L-52.05 -19.65 -52.0 -19.65 -51.85 -19.55 -52.0 -19.55" fill="url(#gradient45)" fill-rule="evenodd" stroke="none"/>
    <path d="M-49.15 -18.45 L-48.5 -17.8 -48.5 -17.75 -48.7 -17.4 -48.9 -17.3 -50.25 -17.7 -51.55 -19.05 -51.7 -19.15 -52.7 -19.75 -52.0 -19.55 -51.85 -19.55 -50.3 -19.3 Q-50.05 -19.3 -49.25 -18.55 L-49.15 -18.45" fill="url(#gradient46)" fill-rule="evenodd" stroke="none"/>
    <path d="M-61.1 -20.5 L-61.35 -20.4 Q-62.8 -20.4 -65.05 -24.25 L-65.0 -24.9 -62.1 -22.1 -60.95 -20.8 -61.0 -20.65 -62.95 -22.0 -63.05 -22.0 -61.1 -20.5" fill="url(#gradient47)" fill-rule="evenodd" stroke="none"/>
    <path d="M-65.65 -24.05 Q-66.15 -24.05 -66.35 -24.6 -66.35 -25.1 -65.75 -24.95 -65.2 -24.8 -65.2 -24.45 -65.2 -24.05 -65.65 -24.05" fill="url(#gradient48)" fill-rule="evenodd" stroke="none"/>
    <path d="M-56.8 -18.3 Q-58.5 -18.65 -60.35 -19.95 L-61.1 -20.5 -63.05 -22.0 -62.95 -22.0 -61.0 -20.65 -58.05 -18.9 -57.2 -18.45 -57.1 -18.4 -56.8 -18.3" fill="url(#gradient49)" fill-rule="evenodd" stroke="none"/>
    <path d="M-46.6 -12.75 L-47.25 -13.6 Q-48.0 -14.4 -49.0 -14.85 -51.55 -15.95 -55.0 -18.0 L-58.25 -19.95 -58.3 -20.2 Q-57.55 -20.25 -56.4 -19.4 L-55.35 -18.6 -55.3 -18.55 -54.3 -17.9 Q-52.95 -17.1 -48.7 -15.3 -47.45 -14.75 -46.35 -12.7 L-46.6 -12.75" fill="url(#gradient50)" fill-rule="evenodd" stroke="none"/>
    <path d="M-47.95 -28.15 L-47.7 -27.45 -47.75 -27.35 -48.15 -27.35 -48.2 -27.5 -48.1 -27.5 -48.0 -28.15 -47.95 -28.15" fill="url(#gradient51)" fill-rule="evenodd" stroke="none"/>
    <path d="M-49.75 -29.85 L-49.9 -29.7 -50.4 -30.3 -50.1 -30.65 -49.75 -29.85" fill="url(#gradient52)" fill-rule="evenodd" stroke="none"/>
    <path d="M-51.25 -31.8 L-51.4 -31.75 -52.1 -32.15 -52.0 -32.45 -51.15 -31.95 -51.25 -31.8" fill="url(#gradient53)" fill-rule="evenodd" stroke="none"/>
    <path d="M-38.85 -9.5 L-42.5 -10.25 -44.1 -10.55 -50.0 -11.7 Q-53.25 -12.3 -57.15 -13.95 -61.1 -15.65 -63.5 -17.45 L-65.85 -19.35 -69.15 -21.15 Q-70.5 -21.75 -72.15 -23.0 L-74.55 -24.85 -74.5 -24.9 Q-73.55 -24.8 -71.5 -23.6 L-68.25 -21.55 -64.55 -19.9 Q-61.7 -18.55 -61.7 -17.9 -61.7 -17.7 -62.05 -17.45 -53.7 -14.4 -46.6 -12.75 L-46.35 -12.7 -43.05 -12.05 -40.7 -11.65 -34.4 -10.4 -31.5 -9.75 -30.0 -9.55 -25.8 -8.9 Q-21.05 -8.0 -21.05 -6.65 -21.05 -6.15 -21.4 -6.15 L-29.6 -7.55 -33.05 -8.25 -36.3 -8.95 -38.85 -9.5" fill="url(#gradient54)" fill-rule="evenodd" stroke="none"/>
    <path d="M0.6 -39.4 L1.05 -38.25 1.05 -38.05 0.85 -37.55 Q0.65 -37.1 0.35 -37.1 L-3.25 -40.75 -3.65 -41.15 Q-6.7 -44.05 -8.35 -45.2 L-9.0 -45.6 Q-14.75 -48.85 -15.9 -49.2 -19.0 -50.15 -30.0 -51.05 L-30.15 -51.35 Q-23.95 -53.95 -15.85 -50.9 -12.9 -49.8 -9.7 -47.95 L-4.55 -44.5 -2.0 -42.3 Q-0.15 -40.55 0.6 -39.4" fill="url(#gradient55)" fill-rule="evenodd" stroke="none"/>
  </g>
  <defs>
    <radialGradient cx="0" cy="0" gradientTransform="matrix(0.0046, 0.0, 0.0, 0.0046, 7.3, -26.4)" gradientUnits="userSpaceOnUse" id="gradient0" r="819.2" spreadMethod="pad">
      <stop offset="0.0" stop-color="#ffffff"/>
      <stop offset="0.3803921568627451" stop-color="#f0d66c"/>
      <stop offset="0.7450980392156863" stop-color="#945b21" stop-opacity="0.5803922"/>
      <stop offset="1.0" stop-color="#26372b" stop-opacity="0.18039216"/>
    </radialGradient>
    <radialGradient cx="0" cy="0" gradientTransform="matrix(0.0325, 0.0, 0.0, 0.0325, -19.75, -23.4)" gradientUnits="userSpaceOnUse" id="gradient1" r="819.2" spreadMethod="pad">
      <stop offset="0.0" stop-color="#ffffff"/>
      <stop offset="0.3803921568627451" stop-color="#f0d66c"/>
      <stop offset="0.7450980392156863" stop-color="#945b21" stop-opacity="0.5803922"/>
      <stop offset="1.0" stop-color="#26372b" stop-opacity="0.18039216"/>
    </radialGradient>
    <radialGradient cx="0" cy="0" gradientTransform="matrix(0.0023, 0.0, 0.0, 0.0023, 0.1, -42.8)" gradientUnits="userSpaceOnUse" id="gradient2" r="819.2" spreadMethod="pad">
      <stop offset="0.0" stop-color="#ffffff"/>
      <stop offset="0.3803921568627451" stop-color="#f0d66c"/>
      <stop offset="0.7450980392156863" stop-color="#945b21" stop-opacity="0.5803922"/>
      <stop offset="1.0" stop-color="#26372b" stop-opacity="0.18039216"/>
    </radialGradient>
    <radialGradient cx="0" cy="0" gradientTransform="matrix(0.0038, 0.0, 0.0, 0.0038, -31.3, -45.1)" gradientUnits="userSpaceOnUse" id="gradient3" r="819.2" spreadMethod="pad">
      <stop offset="0.0" stop-color="#ffffff"/>
      <stop offset="0.3803921568627451" stop-color="#f0d66c"/>
      <stop offset="0.7450980392156863" stop-color="#945b21" stop-opacity="0.5803922"/>
      <stop offset="1.0" stop-color="#26372b" stop-opacity="0.18039216"/>
    </radialGradient>
    <radialGradient cx="0" cy="0" gradientTransform="matrix(0.0034, 0.0, 0.0, 0.0034, -39.2, -35.45)" gradientUnits="userSpaceOnUse" id="gradient4" r="819.2" spreadMethod="pad">
      <stop offset="0.0" stop-color="#ffffff"/>
      <stop offset="0.3803921568627451" stop-color="#f0d66c"/>
      <stop offset="0.7450980392156863" stop-color="#945b21" stop-opacity="0.5803922"/>
      <stop offset="1.0" stop-color="#26372b" stop-opacity="0.18039216"/>
    </radialGradient>
    <radialGradient cx="0" cy="0" gradientTransform="matrix(0.0081, 0.0, 0.0, 0.0081, -47.1, -19.95)" gradientUnits="userSpaceOnUse" id="gradient5" r="819.2" spreadMethod="pad">
      <stop offset="0.0" stop-color="#ffffff"/>
      <stop offset="0.3803921568627451" stop-color="#f0d66c"/>
      <stop offset="0.7450980392156863" stop-color="#945b21" stop-opacity="0.5803922"/>
      <stop offset="1.0" stop-color="#26372b" stop-opacity="0.18039216"/>
    </radialGradient>
    <radialGradient cx="0" cy="0" gradientTransform="matrix(0.0045, 0.0, 0.0, 0.0045, -45.95, -17.35)" gradientUnits="userSpaceOnUse" id="gradient6" r="819.2" spreadMethod="pad">
      <stop offset="0.0" stop-color="#ffffff"/>
      <stop offset="0.3803921568627451" stop-color="#f0d66c"/>
      <stop offset="0.7450980392156863" stop-color="#945b21" stop-opacity="0.5803922"/>
      <stop offset="1.0" stop-color="#26372b" stop-opacity="0.18039216"/>
    </radialGradient>
    <radialGradient cx="0" cy="0" gradientTransform="matrix(0.0029, 0.0, 0.0, 0.0029, -48.85, -20.15)" gradientUnits="userSpaceOnUse" id="gradient7" r="819.2" spreadMethod="pad">
      <stop offset="0.0" stop-color="#ffffff"/>
      <stop offset="0.3803921568627451" stop-color="#f0d66c"/>
      <stop offset="0.7450980392156863" stop-color="#945b21" stop-opacity="0.5803922"/>
      <stop offset="1.0" stop-color="#26372b" stop-opacity="0.18039216"/>
    </radialGradient>
    <radialGradient cx="0" cy="0" gradientTransform="matrix(0.0034, 0.0, 0.0, 0.0034, -45.0, -45.85)" gradientUnits="userSpaceOnUse" id="gradient8" r="819.2" spreadMethod="pad">
      <stop offset="0.0" stop-color="#ffffff"/>
      <stop offset="0.3803921568627451" stop-color="#f0d66c"/>
      <stop offset="0.7450980392156863" stop-color="#945b21" stop-opacity="0.5803922"/>
      <stop offset="1.0" stop-color="#26372b" stop-opacity="0.18039216"/>
    </radialGradient>
    <radialGradient cx="0" cy="0" gradientTransform="matrix(0.0018, 0.0, 0.0, 0.0018, -42.0, -45.1)" gradientUnits="userSpaceOnUse" id="gradient9" r="819.2" spreadMethod="pad">
      <stop offset="0.0" stop-color="#ffffff"/>
      <stop offset="0.3803921568627451" stop-color="#f0d66c"/>
      <stop offset="0.7450980392156863" stop-color="#945b21" stop-opacity="0.5803922"/>
      <stop offset="1.0" stop-color="#26372b" stop-opacity="0.18039216"/>
    </radialGradient>
    <radialGradient cx="0" cy="0" gradientTransform="matrix(0.002, 0.0, 0.0, 0.002, -49.35, -53.6)" gradientUnits="userSpaceOnUse" id="gradient10" r="819.2" spreadMethod="pad">
      <stop offset="0.0" stop-color="#ffffff"/>
      <stop offset="0.3803921568627451" stop-color="#f0d66c"/>
      <stop offset="0.7450980392156863" stop-color="#945b21" stop-opacity="0.5803922"/>
      <stop offset="1.0" stop-color="#26372b" stop-opacity="0.18039216"/>
    </radialGradient>
    <radialGradient cx="0" cy="0" gradientTransform="matrix(0.0024, 0.0, 0.0, 0.0024, -37.95, -55.4)" gradientUnits="userSpaceOnUse" id="gradient11" r="819.2" spreadMethod="pad">
      <stop offset="0.0" stop-color="#ffffff"/>
      <stop offset="0.3803921568627451" stop-color="#f0d66c"/>
      <stop offset="0.7450980392156863" stop-color="#945b21" stop-opacity="0.5803922"/>
      <stop offset="1.0" stop-color="#26372b" stop-opacity="0.18039216"/>
    </radialGradient>
    <radialGradient cx="0" cy="0" gradientTransform="matrix(0.009, 0.0, 0.0, 0.009, -9.85, -42.55)" gradientUnits="userSpaceOnUse" id="gradient12" r="819.2" spreadMethod="pad">
      <stop offset="0.0" stop-color="#ffffff"/>
      <stop offset="0.3803921568627451" stop-color="#f0d66c"/>
      <stop offset="0.7450980392156863" stop-color="#945b21" stop-opacity="0.5803922"/>
      <stop offset="1.0" stop-color="#26372b" stop-opacity="0.18039216"/>
    </radialGradient>
    <radialGradient cx="0" cy="0" gradientTransform="matrix(0.0079, 0.0, 0.0, 0.0079, -16.85, -47.15)" gradientUnits="userSpaceOnUse" id="gradient13" r="819.2" spreadMethod="pad">
      <stop offset="0.0" stop-color="#ffffff"/>
      <stop offset="0.3803921568627451" stop-color="#f0d66c"/>
      <stop offset="0.7450980392156863" stop-color="#945b21" stop-opacity="0.5803922"/>
      <stop offset="1.0" stop-color="#26372b" stop-opacity="0.18039216"/>
    </radialGradient>
    <radialGradient cx="0" cy="0" gradientTransform="matrix(0.008, 0.0, 0.0, 0.008, -1.85, -36.15)" gradientUnits="userSpaceOnUse" id="gradient14" r="819.2" spreadMethod="pad">
      <stop offset="0.0" stop-color="#ffffff"/>
      <stop offset="0.3803921568627451" stop-color="#f0d66c"/>
      <stop offset="0.7450980392156863" stop-color="#945b21" stop-opacity="0.5803922"/>
      <stop offset="1.0" stop-color="#26372b" stop-opacity="0.18039216"/>
    </radialGradient>
    <radialGradient cx="0" cy="0" gradientTransform="matrix(0.0122, 0.0, 0.0, 0.0122, 1.25, -29.25)" gradientUnits="userSpaceOnUse" id="gradient15" r="819.2" spreadMethod="pad">
      <stop offset="0.0" stop-color="#ffffff"/>
      <stop offset="0.3803921568627451" stop-color="#f0d66c"/>
      <stop offset="0.7450980392156863" stop-color="#945b21" stop-opacity="0.5803922"/>
      <stop offset="1.0" stop-color="#26372b" stop-opacity="0.18039216"/>
    </radialGradient>
    <radialGradient cx="0" cy="0" gradientTransform="matrix(0.008, 0.0, 0.0, 0.008, -55.55, -22.0)" gradientUnits="userSpaceOnUse" id="gradient16" r="819.2" spreadMethod="pad">
      <stop offset="0.0" stop-color="#ffffff"/>
      <stop offset="0.3803921568627451" stop-color="#f0d66c"/>
      <stop offset="0.7450980392156863" stop-color="#945b21" stop-opacity="0.5803922"/>
      <stop offset="1.0" stop-color="#26372b" stop-opacity="0.18039216"/>
    </radialGradient>
    <radialGradient cx="0" cy="0" gradientTransform="matrix(0.0072, 0.0, 0.0, 0.0072, -57.35, -19.55)" gradientUnits="userSpaceOnUse" id="gradient17" r="819.2" spreadMethod="pad">
      <stop offset="0.0" stop-color="#ffffff"/>
      <stop offset="0.3803921568627451" stop-color="#f0d66c"/>
      <stop offset="0.7450980392156863" stop-color="#945b21" stop-opacity="0.5803922"/>
      <stop offset="1.0" stop-color="#26372b" stop-opacity="0.18039216"/>
    </radialGradient>
    <radialGradient cx="0" cy="0" gradientTransform="matrix(0.0047, 0.0, 0.0, 0.0047, -45.8, -16.1)" gradientUnits="userSpaceOnUse" id="gradient18" r="819.2" spreadMethod="pad">
      <stop offset="0.0" stop-color="#ffffff"/>
      <stop offset="0.3803921568627451" stop-color="#f0d66c"/>
      <stop offset="0.7450980392156863" stop-color="#945b21" stop-opacity="0.5803922"/>
      <stop offset="1.0" stop-color="#26372b" stop-opacity="0.18039216"/>
    </radialGradient>
    <radialGradient cx="0" cy="0" gradientTransform="matrix(0.0101, 0.0, 0.0, 0.0101, -40.75, -13.95)" gradientUnits="userSpaceOnUse" id="gradient19" r="819.2" spreadMethod="pad">
      <stop offset="0.0" stop-color="#ffffff"/>
      <stop offset="0.3803921568627451" stop-color="#f0d66c"/>
      <stop offset="0.7450980392156863" stop-color="#945b21" stop-opacity="0.5803922"/>
      <stop offset="1.0" stop-color="#26372b" stop-opacity="0.18039216"/>
    </radialGradient>
    <radialGradient cx="0" cy="0" gradientTransform="matrix(0.0037, 0.0, 0.0, 0.0037, -37.05, -27.05)" gradientUnits="userSpaceOnUse" id="gradient20" r="819.2" spreadMethod="pad">
      <stop offset="0.0" stop-color="#ffffff"/>
      <stop offset="0.3803921568627451" stop-color="#f0d66c"/>
      <stop offset="0.7450980392156863" stop-color="#945b21" stop-opacity="0.5803922"/>
      <stop offset="1.0" stop-color="#26372b" stop-opacity="0.18039216"/>
    </radialGradient>
    <radialGradient cx="0" cy="0" gradientTransform="matrix(0.0086, 0.0, 0.0, 0.0086, -7.05, -37.15)" gradientUnits="userSpaceOnUse" id="gradient21" r="819.2" spreadMethod="pad">
      <stop offset="0.0" stop-color="#ffffff"/>
      <stop offset="0.3803921568627451" stop-color="#f0d66c"/>
      <stop offset="0.7450980392156863" stop-color="#945b21" stop-opacity="0.5803922"/>
      <stop offset="1.0" stop-color="#26372b" stop-opacity="0.18039216"/>
    </radialGradient>
    <radialGradient cx="0" cy="0" gradientTransform="matrix(0.0183, 0.0, 0.0, 0.0183, -5.45, -41.4)" gradientUnits="userSpaceOnUse" id="gradient22" r="819.2" spreadMethod="pad">
      <stop offset="0.0" stop-color="#ffffff"/>
      <stop offset="0.3803921568627451" stop-color="#f0d66c"/>
      <stop offset="0.7450980392156863" stop-color="#945b21" stop-opacity="0.5803922"/>
      <stop offset="1.0" stop-color="#26372b" stop-opacity="0.18039216"/>
    </radialGradient>
    <radialGradient cx="0" cy="0" gradientTransform="matrix(0.0052, 0.0, 0.0, 0.0052, -6.4, -44.15)" gradientUnits="userSpaceOnUse" id="gradient23" r="819.2" spreadMethod="pad">
      <stop offset="0.0" stop-color="#ffffff"/>
      <stop offset="0.3803921568627451" stop-color="#f0d66c"/>
      <stop offset="0.7450980392156863" stop-color="#945b21" stop-opacity="0.5803922"/>
      <stop offset="1.0" stop-color="#26372b" stop-opacity="0.18039216"/>
    </radialGradient>
    <radialGradient cx="0" cy="0" gradientTransform="matrix(0.0065, 0.0, 0.0, 0.0065, 2.65, -21.85)" gradientUnits="userSpaceOnUse" id="gradient24" r="819.2" spreadMethod="pad">
      <stop offset="0.0" stop-color="#ffffff"/>
      <stop offset="0.3803921568627451" stop-color="#f0d66c"/>
      <stop offset="0.7450980392156863" stop-color="#945b21" stop-opacity="0.5803922"/>
      <stop offset="1.0" stop-color="#26372b" stop-opacity="0.18039216"/>
    </radialGradient>
    <radialGradient cx="0" cy="0" gradientTransform="matrix(0.0097, 0.0, 0.0, 0.0097, 7.0, -19.8)" gradientUnits="userSpaceOnUse" id="gradient25" r="819.2" spreadMethod="pad">
      <stop offset="0.0" stop-color="#ffffff"/>
      <stop offset="0.3803921568627451" stop-color="#f0d66c"/>
      <stop offset="0.7450980392156863" stop-color="#945b21" stop-opacity="0.5803922"/>
      <stop offset="1.0" stop-color="#26372b" stop-opacity="0.18039216"/>
    </radialGradient>
    <radialGradient cx="0" cy="0" gradientTransform="matrix(0.0048, 0.0, 0.0, 0.0048, 14.55, -24.1)" gradientUnits="userSpaceOnUse" id="gradient26" r="819.2" spreadMethod="pad">
      <stop offset="0.0" stop-color="#ffffff"/>
      <stop offset="0.3803921568627451" stop-color="#f0d66c"/>
      <stop offset="0.7450980392156863" stop-color="#945b21" stop-opacity="0.5803922"/>
      <stop offset="1.0" stop-color="#26372b" stop-opacity="0.18039216"/>
    </radialGradient>
    <radialGradient cx="0" cy="0" gradientTransform="matrix(0.0032, 0.0, 0.0, 0.0032, 22.1, -35.4)" gradientUnits="userSpaceOnUse" id="gradient27" r="819.2" spreadMethod="pad">
      <stop offset="0.0" stop-color="#ffffff"/>
      <stop offset="0.3803921568627451" stop-color="#f0d66c"/>
      <stop offset="0.7450980392156863" stop-color="#945b21" stop-opacity="0.5803922"/>
      <stop offset="1.0" stop-color="#26372b" stop-opacity="0.18039216"/>
    </radialGradient>
    <radialGradient cx="0" cy="0" gradientTransform="matrix(0.0042, 0.0, 0.0, 0.0042, 20.85, -38.4)" gradientUnits="userSpaceOnUse" id="gradient28" r="819.2" spreadMethod="pad">
      <stop offset="0.0" stop-color="#ffffff"/>
      <stop offset="0.3803921568627451" stop-color="#f0d66c"/>
      <stop offset="0.7450980392156863" stop-color="#945b21" stop-opacity="0.5803922"/>
      <stop offset="1.0" stop-color="#26372b" stop-opacity="0.18039216"/>
    </radialGradient>
    <radialGradient cx="0" cy="0" gradientTransform="matrix(0.0031, 0.0, 0.0, 0.0031, 16.35, -32.05)" gradientUnits="userSpaceOnUse" id="gradient29" r="819.2" spreadMethod="pad">
      <stop offset="0.0" stop-color="#ffffff"/>
      <stop offset="0.3803921568627451" stop-color="#f0d66c"/>
      <stop offset="0.7450980392156863" stop-color="#945b21" stop-opacity="0.5803922"/>
      <stop offset="1.0" stop-color="#26372b" stop-opacity="0.18039216"/>
    </radialGradient>
    <radialGradient cx="0" cy="0" gradientTransform="matrix(0.0015, 0.0, 0.0, 0.0015, 13.8, -35.45)" gradientUnits="userSpaceOnUse" id="gradient30" r="819.2" spreadMethod="pad">
      <stop offset="0.0" stop-color="#ffffff"/>
      <stop offset="0.3803921568627451" stop-color="#f0d66c"/>
      <stop offset="0.7450980392156863" stop-color="#945b21" stop-opacity="0.5803922"/>
      <stop offset="1.0" stop-color="#26372b" stop-opacity="0.18039216"/>
    </radialGradient>
    <radialGradient cx="0" cy="0" gradientTransform="matrix(0.0023, 0.0, 0.0, 0.0023, -46.5, -36.6)" gradientUnits="userSpaceOnUse" id="gradient31" r="819.2" spreadMethod="pad">
      <stop offset="0.0" stop-color="#ffffff"/>
      <stop offset="0.3803921568627451" stop-color="#f0d66c"/>
      <stop offset="0.7450980392156863" stop-color="#945b21" stop-opacity="0.5803922"/>
      <stop offset="1.0" stop-color="#26372b" stop-opacity="0.18039216"/>
    </radialGradient>
    <radialGradient cx="0" cy="0" gradientTransform="matrix(0.0026, 0.0, 0.0, 0.0026, -52.25, -47.95)" gradientUnits="userSpaceOnUse" id="gradient32" r="819.2" spreadMethod="pad">
      <stop offset="0.0" stop-color="#ffffff"/>
      <stop offset="0.3803921568627451" stop-color="#f0d66c"/>
      <stop offset="0.7450980392156863" stop-color="#945b21" stop-opacity="0.5803922"/>
      <stop offset="1.0" stop-color="#26372b" stop-opacity="0.18039216"/>
    </radialGradient>
    <radialGradient cx="0" cy="0" gradientTransform="matrix(0.002, 0.0, 0.0, 0.002, -46.0, -32.95)" gradientUnits="userSpaceOnUse" id="gradient33" r="819.2" spreadMethod="pad">
      <stop offset="0.0" stop-color="#ffffff"/>
      <stop offset="0.3803921568627451" stop-color="#f0d66c"/>
      <stop offset="0.7450980392156863" stop-color="#945b21" stop-opacity="0.5803922"/>
      <stop offset="1.0" stop-color="#26372b" stop-opacity="0.18039216"/>
    </radialGradient>
    <radialGradient cx="0" cy="0" gradientTransform="matrix(0.0015, 0.0, 0.0, 0.0015, -46.35, -26.7)" gradientUnits="userSpaceOnUse" id="gradient34" r="819.2" spreadMethod="pad">
      <stop offset="0.0" stop-color="#ffffff"/>
      <stop offset="0.3803921568627451" stop-color="#f0d66c"/>
      <stop offset="0.7450980392156863" stop-color="#945b21" stop-opacity="0.5803922"/>
      <stop offset="1.0" stop-color="#26372b" stop-opacity="0.18039216"/>
    </radialGradient>
    <radialGradient cx="0" cy="0" gradientTransform="matrix(0.006, 0.0, 0.0, 0.006, -40.15, -27.95)" gradientUnits="userSpaceOnUse" id="gradient35" r="819.2" spreadMethod="pad">
      <stop offset="0.0" stop-color="#ffffff"/>
      <stop offset="0.3803921568627451" stop-color="#f0d66c"/>
      <stop offset="0.7450980392156863" stop-color="#945b21" stop-opacity="0.5803922"/>
      <stop offset="1.0" stop-color="#26372b" stop-opacity="0.18039216"/>
    </radialGradient>
    <radialGradient cx="0" cy="0" gradientTransform="matrix(0.0079, 0.0, 0.0, 0.0079, -43.8, -36.9)" gradientUnits="userSpaceOnUse" id="gradient36" r="819.2" spreadMethod="pad">
      <stop offset="0.0" stop-color="#ffffff"/>
      <stop offset="0.3803921568627451" stop-color="#f0d66c"/>
      <stop offset="0.7450980392156863" stop-color="#945b21" stop-opacity="0.5803922"/>
      <stop offset="1.0" stop-color="#26372b" stop-opacity="0.18039216"/>
    </radialGradient>
    <radialGradient cx="0" cy="0" gradientTransform="matrix(0.0101, 0.0, 0.0, 0.0101, -45.25, -38.25)" gradientUnits="userSpaceOnUse" id="gradient37" r="819.2" spreadMethod="pad">
      <stop offset="0.0" stop-color="#ffffff"/>
      <stop offset="0.3803921568627451" stop-color="#f0d66c"/>
      <stop offset="0.7450980392156863" stop-color="#945b21" stop-opacity="0.5803922"/>
      <stop offset="1.0" stop-color="#26372b" stop-opacity="0.18039216"/>
    </radialGradient>
    <radialGradient cx="0" cy="0" gradientTransform="matrix(0.0106, 0.0, 0.0, 0.0106, -30.95, -32.9)" gradientUnits="userSpaceOnUse" id="gradient38" r="819.2" spreadMethod="pad">
      <stop offset="0.0" stop-color="#ffffff"/>
      <stop offset="0.3803921568627451" stop-color="#f0d66c"/>
      <stop offset="0.7450980392156863" stop-color="#945b21" stop-opacity="0.5803922"/>
      <stop offset="1.0" stop-color="#26372b" stop-opacity="0.18039216"/>
    </radialGradient>
    <radialGradient cx="0" cy="0" gradientTransform="matrix(0.0025, 0.0, 0.0, 0.0025, -32.65, -30.15)" gradientUnits="userSpaceOnUse" id="gradient39" r="819.2" spreadMethod="pad">
      <stop offset="0.0" stop-color="#ffffff"/>
      <stop offset="0.3803921568627451" stop-color="#f0d66c"/>
      <stop offset="0.7450980392156863" stop-color="#945b21" stop-opacity="0.5803922"/>
      <stop offset="1.0" stop-color="#26372b" stop-opacity="0.18039216"/>
    </radialGradient>
    <radialGradient cx="0" cy="0" gradientTransform="matrix(0.0098, 0.0, 0.0, 0.0098, -8.2, -23.5)" gradientUnits="userSpaceOnUse" id="gradient40" r="819.2" spreadMethod="pad">
      <stop offset="0.0" stop-color="#ffffff"/>
      <stop offset="0.3803921568627451" stop-color="#f0d66c"/>
      <stop offset="0.7450980392156863" stop-color="#945b21" stop-opacity="0.5803922"/>
      <stop offset="1.0" stop-color="#26372b" stop-opacity="0.18039216"/>
    </radialGradient>
    <radialGradient cx="0" cy="0" gradientTransform="matrix(0.0128, 0.0, 0.0, 0.0128, -6.15, -16.65)" gradientUnits="userSpaceOnUse" id="gradient41" r="819.2" spreadMethod="pad">
      <stop offset="0.0" stop-color="#ffffff"/>
      <stop offset="0.3803921568627451" stop-color="#f0d66c"/>
      <stop offset="0.7450980392156863" stop-color="#945b21" stop-opacity="0.5803922"/>
      <stop offset="1.0" stop-color="#26372b" stop-opacity="0.18039216"/>
    </radialGradient>
    <radialGradient cx="0" cy="0" gradientTransform="matrix(0.0095, 0.0, 0.0, 0.0095, -6.9, -11.0)" gradientUnits="userSpaceOnUse" id="gradient42" r="819.2" spreadMethod="pad">
      <stop offset="0.0" stop-color="#ffffff"/>
      <stop offset="0.3803921568627451" stop-color="#f0d66c"/>
      <stop offset="0.7450980392156863" stop-color="#945b21" stop-opacity="0.5803922"/>
      <stop offset="1.0" stop-color="#26372b" stop-opacity="0.18039216"/>
    </radialGradient>
    <radialGradient cx="0" cy="0" gradientTransform="matrix(0.0038, 0.0, 0.0, 0.0038, 1.6, -11.65)" gradientUnits="userSpaceOnUse" id="gradient43" r="819.2" spreadMethod="pad">
      <stop offset="0.0" stop-color="#ffffff"/>
      <stop offset="0.3803921568627451" stop-color="#f0d66c"/>
      <stop offset="0.7450980392156863" stop-color="#945b21" stop-opacity="0.5803922"/>
      <stop offset="1.0" stop-color="#26372b" stop-opacity="0.18039216"/>
    </radialGradient>
    <radialGradient cx="0" cy="0" gradientTransform="matrix(0.0105, 0.0, 0.0, 0.0105, -37.35, -12.75)" gradientUnits="userSpaceOnUse" id="gradient44" r="819.2" spreadMethod="pad">
      <stop offset="0.0" stop-color="#ffffff"/>
      <stop offset="0.3803921568627451" stop-color="#f0d66c"/>
      <stop offset="0.7450980392156863" stop-color="#945b21" stop-opacity="0.5803922"/>
      <stop offset="1.0" stop-color="#26372b" stop-opacity="0.18039216"/>
    </radialGradient>
    <radialGradient cx="0" cy="0" gradientTransform="matrix(0.0137, 0.0, 0.0, 0.0137, -42.4, -13.85)" gradientUnits="userSpaceOnUse" id="gradient45" r="819.2" spreadMethod="pad">
      <stop offset="0.0" stop-color="#ffffff"/>
      <stop offset="0.3803921568627451" stop-color="#f0d66c"/>
      <stop offset="0.7450980392156863" stop-color="#945b21" stop-opacity="0.5803922"/>
      <stop offset="1.0" stop-color="#26372b" stop-opacity="0.18039216"/>
    </radialGradient>
    <radialGradient cx="0" cy="0" gradientTransform="matrix(0.0043, 0.0, 0.0, 0.0043, -51.95, -17.9)" gradientUnits="userSpaceOnUse" id="gradient46" r="819.2" spreadMethod="pad">
      <stop offset="0.0" stop-color="#ffffff"/>
      <stop offset="0.3803921568627451" stop-color="#f0d66c"/>
      <stop offset="0.7450980392156863" stop-color="#945b21" stop-opacity="0.5803922"/>
      <stop offset="1.0" stop-color="#26372b" stop-opacity="0.18039216"/>
    </radialGradient>
    <radialGradient cx="0" cy="0" gradientTransform="matrix(0.0037, 0.0, 0.0, 0.0037, -63.0, -22.65)" gradientUnits="userSpaceOnUse" id="gradient47" r="819.2" spreadMethod="pad">
      <stop offset="0.0" stop-color="#ffffff"/>
      <stop offset="0.3803921568627451" stop-color="#f0d66c"/>
      <stop offset="0.7450980392156863" stop-color="#945b21" stop-opacity="0.5803922"/>
      <stop offset="1.0" stop-color="#26372b" stop-opacity="0.18039216"/>
    </radialGradient>
    <radialGradient cx="0" cy="0" gradientTransform="matrix(0.0015, 0.0, 0.0, 0.0015, -65.75, -24.5)" gradientUnits="userSpaceOnUse" id="gradient48" r="819.2" spreadMethod="pad">
      <stop offset="0.0" stop-color="#ffffff"/>
      <stop offset="0.3803921568627451" stop-color="#f0d66c"/>
      <stop offset="0.7450980392156863" stop-color="#945b21" stop-opacity="0.5803922"/>
      <stop offset="1.0" stop-color="#26372b" stop-opacity="0.18039216"/>
    </radialGradient>
    <radialGradient cx="0" cy="0" gradientTransform="matrix(0.0045, 0.0, 0.0, 0.0045, -59.9, -20.15)" gradientUnits="userSpaceOnUse" id="gradient49" r="819.2" spreadMethod="pad">
      <stop offset="0.0" stop-color="#ffffff"/>
      <stop offset="0.3803921568627451" stop-color="#f0d66c"/>
      <stop offset="0.7450980392156863" stop-color="#945b21" stop-opacity="0.5803922"/>
      <stop offset="1.0" stop-color="#26372b" stop-opacity="0.18039216"/>
    </radialGradient>
    <radialGradient cx="0" cy="0" gradientTransform="matrix(0.0119, 0.0, 0.0, 0.0119, -50.0, -15.2)" gradientUnits="userSpaceOnUse" id="gradient50" r="819.2" spreadMethod="pad">
      <stop offset="0.0" stop-color="#ffffff"/>
      <stop offset="0.3803921568627451" stop-color="#f0d66c"/>
      <stop offset="0.7450980392156863" stop-color="#945b21" stop-opacity="0.5803922"/>
      <stop offset="1.0" stop-color="#26372b" stop-opacity="0.18039216"/>
    </radialGradient>
    <radialGradient cx="0" cy="0" gradientTransform="matrix(7.0E-4, 0.0, 0.0, 7.0E-4, -47.95, -27.75)" gradientUnits="userSpaceOnUse" id="gradient51" r="819.2" spreadMethod="pad">
      <stop offset="0.0" stop-color="#ffffff"/>
      <stop offset="0.3803921568627451" stop-color="#f0d66c"/>
      <stop offset="0.7450980392156863" stop-color="#945b21" stop-opacity="0.5803922"/>
      <stop offset="1.0" stop-color="#26372b" stop-opacity="0.18039216"/>
    </radialGradient>
    <radialGradient cx="0" cy="0" gradientTransform="matrix(0.0011, 0.0, 0.0, 0.0011, -50.05, -30.15)" gradientUnits="userSpaceOnUse" id="gradient52" r="819.2" spreadMethod="pad">
      <stop offset="0.0" stop-color="#ffffff"/>
      <stop offset="0.3803921568627451" stop-color="#f0d66c"/>
      <stop offset="0.7450980392156863" stop-color="#945b21" stop-opacity="0.5803922"/>
      <stop offset="1.0" stop-color="#26372b" stop-opacity="0.18039216"/>
    </radialGradient>
    <radialGradient cx="0" cy="0" gradientTransform="matrix(0.0013, 0.0, 0.0, 0.0013, -51.6, -32.1)" gradientUnits="userSpaceOnUse" id="gradient53" r="819.2" spreadMethod="pad">
      <stop offset="0.0" stop-color="#ffffff"/>
      <stop offset="0.3803921568627451" stop-color="#f0d66c"/>
      <stop offset="0.7450980392156863" stop-color="#945b21" stop-opacity="0.5803922"/>
      <stop offset="1.0" stop-color="#26372b" stop-opacity="0.18039216"/>
    </radialGradient>
    <radialGradient cx="0" cy="0" gradientTransform="matrix(0.0348, 0.0, 0.0, 0.0348, -47.8, -15.5)" gradientUnits="userSpaceOnUse" id="gradient54" r="819.2" spreadMethod="pad">
      <stop offset="0.0" stop-color="#ffffff"/>
      <stop offset="0.3803921568627451" stop-color="#f0d66c"/>
      <stop offset="0.7450980392156863" stop-color="#945b21" stop-opacity="0.5803922"/>
      <stop offset="1.0" stop-color="#26372b" stop-opacity="0.18039216"/>
    </radialGradient>
    <radialGradient cx="0" cy="0" gradientTransform="matrix(0.021, 0.0, 0.0, 0.021, -14.55, -44.85)" gradientUnits="userSpaceOnUse" id="gradient55" r="819.2" spreadMethod="pad">
      <stop offset="0.0" stop-color="#ffffff"/>
      <stop offset="0.3803921568627451" stop-color="#f0d66c"/>
      <stop offset="0.7450980392156863" stop-color="#945b21" stop-opacity="0.5803922"/>
      <stop offset="1.0" stop-color="#26372b" stop-opacity="0.18039216"/>
    </radialGradient>
  </defs>
</svg>
