<?xml version="1.0" encoding="UTF-8" standalone="no"?>
<svg xmlns:ffdec="https://www.free-decompiler.com/flash" xmlns:xlink="http://www.w3.org/1999/xlink" ffdec:objectType="shape" height="56.95px" width="100.9px" xmlns="http://www.w3.org/2000/svg">
  <g transform="matrix(1.0, 0.0, 0.0, 1.0, 76.15, 61.95)">
    <path d="M1.4 -41.3 L0.2 -42.1 -1.45 -43.5 -2.4 -45.65 -2.3 -46.05 Q-2.15 -46.2 -2.15 -46.55 L0.9 -45.0 Q2.25 -44.15 2.25 -43.3 2.1 -41.3 1.4 -41.3" fill="url(#gradient0)" fill-rule="evenodd" stroke="none"/>
    <path d="M2.15 -38.2 L2.3 -38.0 2.3 -34.05 Q2.55 -32.95 3.15 -32.15 3.55 -31.55 3.55 -30.65 3.55 -29.4 1.8 -26.8 L0.05 -24.2 Q0.05 -23.85 0.2 -23.65 L1.3 -23.65 2.95 -25.45 Q3.95 -26.55 5.75 -27.15 L7.75 -27.6 Q9.4 -27.95 9.75 -28.35 L10.35 -29.25 Q10.95 -30.0 11.55 -30.0 13.5 -30.0 13.95 -29.2 L14.05 -28.05 Q14.05 -27.0 11.85 -26.2 8.95 -25.1 7.6 -23.75 L5.0 -21.7 1.85 -19.75 Q1.1 -19.25 -0.25 -18.65 L-1.85 -17.85 -2.95 -16.65 -3.15 -15.8 Q-3.35 -14.55 -5.1 -13.55 -6.75 -12.65 -6.75 -11.7 L-6.7 -11.05 Q-6.5 -10.6 -5.75 -10.6 L-3.25 -11.0 -0.9 -11.55 2.6 -11.6 5.1 -12.3 7.5 -12.75 7.7 -12.5 Q7.7 -11.75 4.8 -10.85 L1.55 -10.0 -2.5 -8.4 Q-5.9 -7.05 -6.95 -7.05 -8.4 -7.05 -9.5 -8.05 -10.95 -8.05 -13.0 -6.5 -15.0 -5.0 -18.95 -5.0 L-21.2 -5.3 -22.7 -5.7 -26.0 -5.75 Q-28.45 -6.85 -29.35 -7.05 L-31.95 -7.05 -33.1 -6.2 -37.8 -5.8 -38.65 -5.8 -38.9 -6.15 Q-38.9 -6.4 -34.7 -8.95 L-34.95 -9.3 -37.35 -9.2 Q-39.0 -9.2 -40.9 -10.55 -42.65 -11.8 -43.4 -13.2 L-44.25 -15.15 -45.15 -17.25 -45.15 -19.25 -44.8 -19.3 Q-44.0 -19.3 -42.7 -18.05 L-41.3 -16.55 -41.25 -16.75 -41.45 -17.9 -41.25 -18.75 -40.0 -20.0 -39.25 -20.0 Q-38.9 -19.95 -38.8 -19.6 L-38.65 -19.05 Q-36.9 -19.9 -36.9 -20.5 L-39.25 -22.85 -42.2 -25.75 -42.2 -27.5 -41.95 -27.55 -39.45 -26.1 -39.0 -26.15 -39.65 -26.85 -40.15 -27.7 Q-40.15 -28.8 -39.45 -29.85 -38.75 -30.95 -38.75 -31.4 -38.75 -32.45 -39.8 -34.15 -40.9 -35.8 -40.9 -36.9 L-40.9 -37.7 Q-40.8 -38.05 -40.2 -38.05 -38.5 -38.05 -36.35 -36.0 L-34.2 -33.7 Q-33.0 -32.85 -32.45 -31.4 -31.9 -29.85 -31.15 -29.25 -29.85 -29.25 -29.5 -29.55 L-29.4 -29.9 -29.75 -31.0 Q-30.15 -31.85 -30.15 -32.75 -30.15 -34.0 -29.5 -34.35 -28.9 -34.7 -28.9 -35.1 -28.9 -35.85 -30.05 -37.85 L-31.25 -40.5 Q-31.3 -41.4 -32.55 -42.95 L-34.9 -45.75 -34.9 -46.45 Q-29.15 -44.8 -26.95 -41.1 -24.3 -36.55 -22.1 -35.3 L-21.15 -35.35 -20.4 -36.2 Q-20.1 -36.55 -19.4 -36.55 L-17.75 -36.15 Q-16.95 -35.75 -16.95 -35.4 -16.95 -34.45 -17.7 -33.45 L-18.45 -32.05 -18.25 -29.75 Q-16.15 -29.7 -15.45 -30.25 -15.15 -30.45 -14.9 -31.3 -14.65 -31.9 -14.65 -33.15 -14.55 -34.55 -13.45 -35.8 -12.45 -37.0 -11.65 -37.0 -10.8 -37.0 -10.75 -35.25 -10.75 -33.5 -9.5 -33.5 -8.95 -33.5 -8.25 -34.15 L-7.35 -35.0 -5.85 -35.8 Q-5.4 -36.1 -5.4 -36.4 -5.4 -37.15 -6.0 -38.45 L-6.65 -40.25 -6.15 -40.75 Q-3.5 -40.75 -3.25 -39.4 -2.7 -36.65 -2.0 -35.75 -0.45 -36.0 -0.2 -37.0 L0.1 -38.3 2.15 -38.2" fill="url(#gradient1)" fill-rule="evenodd" stroke="none"/>
    <path d="M8.8 -30.95 Q10.05 -32.15 10.9 -33.8 11.25 -34.55 12.5 -34.55 L13.65 -34.45 13.65 -34.1 14.15 -34.65 14.25 -34.5 13.6 -33.5 Q12.95 -32.75 12.65 -32.65 L10.7 -31.5 Q9.45 -30.8 9.25 -30.8 8.95 -30.8 8.8 -30.95" fill="url(#gradient2)" fill-rule="evenodd" stroke="none"/>
    <path d="M-34.7 -51.6 L-34.55 -52.55 -32.15 -52.65 Q-31.5 -52.35 -31.25 -51.75 L-31.1 -50.9 Q-30.7 -49.7 -29.6 -48.7 -28.7 -47.9 -28.7 -47.4 -28.7 -47.1 -29.0 -47.05 L-30.2 -47.0 Q-31.5 -47.0 -31.75 -47.5 -32.25 -48.6 -33.15 -49.25 L-34.55 -50.5 -34.7 -51.6" fill="url(#gradient3)" fill-rule="evenodd" stroke="none"/>
    <path d="M-41.7 -44.15 Q-40.2 -44.05 -39.4 -43.05 -38.8 -42.35 -38.8 -41.55 L-38.85 -41.15 -39.05 -41.15 -39.15 -42.0 -39.2 -42.0 -39.2 -40.15 -39.4 -40.1 -40.0 -40.15 Q-40.7 -40.65 -41.1 -41.45 L-41.7 -43.1 -41.7 -44.15" fill="url(#gradient4)" fill-rule="evenodd" stroke="none"/>
    <path d="M-45.6 -26.0 L-44.25 -26.05 -44.15 -26.15 Q-43.8 -25.55 -43.8 -24.85 L-44.0 -24.3 -44.05 -24.75 -44.05 -24.8 -44.45 -24.3 Q-44.75 -24.0 -45.05 -24.0 -46.25 -24.0 -45.95 -25.2 -45.95 -25.8 -45.6 -26.0" fill="url(#gradient5)" fill-rule="evenodd" stroke="none"/>
    <path d="M-37.3 -51.65 L-37.3 -51.6 -37.6 -52.15 -37.6 -52.35 -37.55 -52.35 -37.3 -51.65" fill="url(#gradient6)" fill-rule="evenodd" stroke="none"/>
    <path d="M-38.7 -56.6 L-38.7 -56.15 -39.05 -56.05 Q-39.35 -56.05 -40.65 -57.75 L-40.55 -57.75 -39.95 -57.6 Q-39.6 -57.6 -39.4 -57.4 L-38.7 -56.6" fill="url(#gradient7)" fill-rule="evenodd" stroke="none"/>
    <path d="M-40.75 -57.2 Q-41.5 -57.55 -41.8 -58.25 -41.25 -58.25 -40.6 -57.35 L-40.75 -57.2" fill="url(#gradient8)" fill-rule="evenodd" stroke="none"/>
    <path d="M-31.65 -44.3 L-31.65 -44.2 -36.4 -50.3 Q-35.85 -50.05 -35.15 -49.05 L-33.95 -47.5 -31.65 -44.3" fill="url(#gradient9)" fill-rule="evenodd" stroke="none"/>
    <path d="M-3.75 -38.1 L-5.0 -38.9 -4.45 -39.05 Q-8.25 -42.0 -14.55 -47.5 L-14.45 -47.55 -11.4 -45.1 -8.4 -42.65 Q-2.4 -38.3 -2.4 -37.7 L-2.45 -37.55 Q-2.55 -37.45 -2.65 -37.45 L-3.75 -38.1" fill="url(#gradient10)" fill-rule="evenodd" stroke="none"/>
    <path d="M-6.5 -44.95 L-5.55 -44.1 Q-5.6 -43.95 -5.75 -43.95 -6.3 -43.95 -9.6 -45.4 L-14.1 -47.5 -13.95 -47.55 -6.9 -44.8 -6.65 -44.7 Q-10.65 -48.1 -23.05 -54.1 L-23.0 -54.15 Q-18.0 -52.4 -13.0 -49.45 L-10.3 -47.8 -11.5 -48.25 Q-8.75 -46.8 -6.5 -44.95" fill="url(#gradient11)" fill-rule="evenodd" stroke="none"/>
    <path d="M-2.7 -41.8 L-1.65 -40.8 1.4 -37.75 1.7 -36.55 1.5 -36.8 -1.9 -40.45 -5.8 -44.35 -6.5 -44.95 Q-8.75 -46.8 -11.5 -48.25 L-10.3 -47.8 Q-7.8 -46.5 -3.35 -42.45 L-3.55 -42.25 -2.7 -41.8 M3.95 -33.6 L4.45 -33.4 4.8 -32.85 4.45 -32.1 4.3 -32.1 4.3 -32.55 3.95 -33.6" fill="url(#gradient12)" fill-rule="evenodd" stroke="none"/>
    <path d="M1.4 -37.75 L1.3 -38.1 0.55 -39.8 Q0.25 -40.3 -2.7 -41.8 L-3.55 -42.25 -3.35 -42.45 -1.7 -42.05 Q0.0 -41.45 0.9 -40.85 1.6 -40.35 2.2 -39.1 2.35 -38.65 2.85 -38.25 L3.5 -37.55 6.4 -33.45 8.3 -30.75 Q8.3 -30.1 7.5 -30.1 6.6 -30.1 5.65 -31.55 L4.8 -32.85 4.45 -33.4 3.95 -33.6 3.65 -33.65 Q3.15 -33.65 2.95 -33.9 2.4 -34.35 2.25 -34.75 L1.75 -36.4 1.7 -36.55 1.4 -37.75" fill="url(#gradient13)" fill-rule="evenodd" stroke="none"/>
    <path d="M10.1 -21.05 Q8.6 -20.95 8.2 -21.45 7.95 -21.8 7.95 -22.45 L7.5 -23.25 6.75 -24.1 6.7 -24.35 Q8.95 -24.55 9.75 -25.55 L10.65 -27.3 6.45 -29.55 6.45 -29.7 Q7.35 -29.7 9.1 -28.6 L10.85 -27.55 11.3 -27.95 Q11.65 -28.35 11.9 -28.35 12.75 -28.35 12.65 -27.7 12.65 -26.9 11.8 -26.55 10.95 -26.15 10.95 -24.95 10.95 -24.4 9.7 -24.05 L7.3 -23.95 8.45 -22.4 10.95 -22.7 10.1 -21.05 M11.25 -22.8 Q12.3 -23.2 12.7 -24.0 13.45 -25.65 13.75 -25.65 14.4 -25.65 14.35 -24.5 L14.25 -23.9 13.75 -23.45 13.8 -23.25 13.95 -23.2 13.75 -22.9 Q13.0 -21.7 11.75 -21.45 L11.55 -21.35 12.2 -20.7 Q12.2 -20.0 11.55 -20.05 L10.45 -20.2 5.5 -20.05 6.0 -20.55 7.1 -20.7 10.05 -21.0 9.8 -20.55 9.85 -20.55 10.15 -21.0 10.6 -21.1 10.2 -21.05 11.25 -22.8 M3.35 -20.05 L3.2 -20.1 3.6 -20.2 3.35 -20.05" fill="url(#gradient14)" fill-rule="evenodd" stroke="none"/>
    <path d="M-68.75 -20.6 Q-69.7 -21.65 -69.7 -22.45 -68.8 -21.1 -68.45 -21.1 L-68.3 -21.1 -68.35 -21.15 -68.3 -21.3 -69.5 -23.0 -69.1 -23.15 -68.1 -22.9 -65.85 -21.75 -64.7 -19.5 -64.45 -19.75 -65.1 -21.5 -64.0 -21.2 -65.15 -21.65 -65.25 -21.95 -62.75 -21.35 -62.4 -21.4 -64.65 -22.55 -65.9 -23.4 -66.15 -23.75 -66.15 -23.8 Q-66.15 -24.85 -64.2 -24.4 L-62.0 -23.7 -58.45 -22.85 Q-57.55 -22.65 -56.1 -22.85 -55.05 -23.05 -54.05 -22.45 -53.65 -22.2 -53.65 -21.7 -53.65 -21.25 -54.05 -21.1 L-57.55 -20.8 -57.45 -20.55 Q-57.45 -19.7 -58.9 -19.6 L-59.25 -19.55 Q-61.4 -20.7 -63.0 -20.95 L-60.6 -19.5 -61.85 -19.55 -61.2 -18.5 -63.35 -19.2 -63.3 -19.65 -64.1 -19.8 -63.75 -19.35 -63.55 -19.2 -63.6 -19.2 -63.55 -19.15 -63.4 -19.05 -63.4 -19.1 -60.45 -18.0 -59.75 -17.65 Q-58.0 -16.9 -58.0 -16.25 L-58.2 -15.8 -61.85 -17.1 -61.95 -17.1 -60.75 -16.3 -61.35 -16.5 -61.6 -16.3 Q-61.8 -16.1 -62.05 -16.1 L-63.0 -16.5 -63.3 -16.3 -63.85 -16.15 Q-65.3 -16.15 -65.75 -17.2 L-65.9 -18.25 -67.8 -19.75 -68.4 -20.3 -68.35 -20.4 -68.75 -20.6 M-66.35 -22.3 L-66.0 -22.2 -65.95 -22.05 -66.35 -22.3 M-59.8 -20.95 L-59.75 -20.35 -59.45 -20.35 -59.3 -20.5 -59.8 -20.95" fill="url(#gradient15)" fill-rule="evenodd" stroke="none"/>
    <path d="M-51.7 -17.1 L-53.8 -18.25 -53.2 -18.7 -51.4 -18.35 -51.15 -18.4 -51.25 -18.95 Q-51.25 -20.15 -49.05 -19.9 L-49.5 -21.0 -48.2 -21.05 -46.95 -19.65 -46.3 -19.85 Q-45.85 -19.85 -44.1 -18.9 L-42.25 -17.95 -41.5 -18.2 Q-40.75 -18.2 -39.6 -17.05 -38.8 -16.2 -37.45 -15.85 L-37.35 -16.85 -37.75 -19.3 -37.6 -19.35 -36.95 -17.5 -36.45 -15.6 Q-36.35 -15.1 -33.05 -13.7 L-31.1 -12.7 Q-30.7 -12.35 -30.7 -11.85 -30.7 -11.15 -31.4 -11.15 L-35.45 -11.6 -37.0 -12.05 -37.45 -11.25 Q-38.05 -10.5 -39.3 -10.5 -40.35 -10.5 -41.9 -11.3 -43.25 -12.0 -43.65 -12.45 L-44.9 -13.45 -45.55 -13.75 -46.1 -14.25 Q-47.55 -15.45 -48.1 -15.2 L-47.95 -15.1 -50.95 -16.7 Q-50.55 -17.25 -50.55 -17.9 -50.55 -18.4 -50.9 -18.6 L-51.2 -17.55 -51.7 -17.1 M-49.7 -18.6 L-48.65 -17.9 -47.4 -17.5 -47.3 -17.45 -47.25 -17.6 -48.35 -18.2 -49.75 -18.65 -49.7 -18.6 M-43.75 -14.5 L-43.7 -14.45 Q-42.1 -13.15 -39.9 -12.25 L-38.85 -12.25 -38.6 -12.55 -39.5 -12.9 -38.4 -12.75 Q-38.2 -12.75 -37.95 -13.4 L-37.75 -14.05 -38.85 -14.85 Q-40.15 -15.6 -40.95 -15.55 L-40.9 -15.25 Q-40.9 -14.4 -41.75 -14.4 L-44.6 -15.35 Q-44.15 -14.85 -43.0 -14.25 L-43.75 -14.5 M-33.5 -12.05 L-36.45 -13.5 -36.85 -12.35 Q-36.25 -11.95 -34.7 -11.95 L-33.5 -12.05" fill="url(#gradient16)" fill-rule="evenodd" stroke="none"/>
    <path d="M-44.55 -38.7 L-44.55 -38.35 -44.6 -37.7 Q-44.7 -37.25 -45.3 -37.25 -45.9 -37.25 -46.45 -38.7 -47.0 -40.2 -47.25 -40.2 -48.15 -40.2 -50.95 -47.7 -50.95 -49.75 -49.25 -46.55 L-47.45 -43.8 -45.65 -41.1 Q-44.8 -39.75 -44.6 -38.85 L-44.55 -38.7" fill="url(#gradient17)" fill-rule="evenodd" stroke="none"/>
    <path d="M-53.85 -51.25 Q-52.9 -51.1 -52.7 -50.45 L-52.05 -48.25 Q-52.05 -47.5 -52.8 -47.5 -52.95 -47.5 -53.9 -49.05 L-54.85 -50.6 Q-54.85 -51.45 -53.85 -51.25" fill="url(#gradient18)" fill-rule="evenodd" stroke="none"/>
    <path d="M-51.4 -55.7 Q-51.4 -58.3 -48.75 -54.0 -48.75 -53.75 -49.1 -53.15 -49.9 -53.3 -50.7 -54.4 L-51.4 -55.7" fill="url(#gradient19)" fill-rule="evenodd" stroke="none"/>
    <path d="M-42.55 -40.1 Q-42.55 -41.05 -41.35 -41.15 -40.2 -41.25 -40.2 -40.6 L-41.1 -39.95 -42.2 -39.15 -42.35 -39.6 -42.55 -40.1" fill="url(#gradient20)" fill-rule="evenodd" stroke="none"/>
    <path d="M-42.65 -32.9 Q-42.55 -33.3 -42.05 -33.1 -41.1 -32.6 -40.75 -32.65 L-40.5 -32.3 -40.6 -32.1 -41.05 -31.95 -39.15 -29.05 Q-37.6 -26.65 -37.6 -26.25 L-37.85 -25.75 -38.4 -25.5 Q-38.9 -25.5 -39.9 -26.95 L-41.45 -28.8 Q-41.55 -29.4 -42.2 -30.3 L-42.2 -30.6 -41.75 -30.5 -42.25 -31.3 -42.65 -32.9 M-42.4 -27.95 L-42.45 -27.95 Q-43.5 -27.95 -43.45 -29.35 L-43.2 -30.35 -42.8 -29.05 -42.4 -27.95" fill="url(#gradient21)" fill-rule="evenodd" stroke="none"/>
    <path d="M-44.6 -38.85 Q-44.6 -42.0 -42.8 -38.75 L-42.9 -38.7 -43.3 -39.4 -44.0 -40.1 -44.05 -39.75 Q-44.05 -39.05 -43.3 -37.75 L-42.55 -36.5 Q-42.55 -36.3 -42.9 -35.85 L-43.3 -35.2 -42.75 -33.1 -42.65 -32.9 -42.25 -31.3 -42.2 -30.6 -42.2 -30.3 Q-41.55 -29.4 -41.45 -28.8 L-41.45 -28.65 -41.75 -27.05 Q-41.75 -25.55 -38.0 -20.5 L-33.85 -15.2 Q-37.1 -18.95 -39.9 -22.95 L-41.25 -24.85 Q-42.0 -26.0 -42.15 -26.85 L-42.4 -27.95 -42.8 -29.05 -43.2 -30.35 -43.25 -30.6 -43.0 -31.2 -43.35 -32.95 Q-43.75 -34.7 -43.75 -36.15 L-44.15 -37.4 -44.55 -38.7 -44.6 -38.85" fill="url(#gradient22)" fill-rule="evenodd" stroke="none"/>
    <path d="M-29.6 -19.6 Q-31.75 -16.65 -32.85 -15.55 L-32.9 -15.6 -29.55 -20.0 -25.65 -19.4 -23.05 -18.7 -25.55 -19.05 -29.6 -19.6" fill="url(#gradient23)" fill-rule="evenodd" stroke="none"/>
    <path d="M5.5 -20.05 L3.85 -18.3 Q0.95 -15.35 -0.35 -13.1 -1.15 -10.9 -2.4 -9.25 L-2.45 -9.2 -5.35 -8.05 -5.15 -8.05 -4.35 -8.2 -3.3 -8.5 -3.0 -8.5 Q-5.25 -6.1 -8.4 -6.1 L-8.75 -6.15 Q-7.85 -6.2 -7.65 -6.45 L-7.75 -6.65 -8.65 -6.6 Q-4.1 -8.9 -2.25 -13.15 L-3.8 -11.95 Q-5.0 -11.1 -5.9 -11.1 -6.75 -11.1 -6.65 -12.0 -6.65 -13.2 -2.7 -15.75 L1.25 -18.45 3.35 -20.05 3.6 -20.2 3.8 -20.4 Q6.35 -22.1 6.35 -20.95 L6.0 -20.55 5.5 -20.05 M-3.45 -14.05 Q-5.3 -12.8 -5.8 -12.0 L-5.8 -11.8 -5.5 -11.75 Q-4.15 -11.75 -2.35 -13.55 L-0.2 -16.15 -0.3 -16.15 -3.45 -14.05" fill="url(#gradient24)" fill-rule="evenodd" stroke="none"/>
    <path d="M-34.15 -7.8 L-34.35 -7.85 -34.4 -8.0 -32.75 -9.4 Q-32.05 -10.15 -28.75 -9.9 L-25.35 -8.75 -22.6 -7.65 Q-22.5 -7.65 -22.3 -7.8 L-21.95 -7.95 Q-21.65 -7.95 -21.5 -7.65 L-21.4 -7.35 -17.55 -7.1 -16.4 -6.85 Q-14.0 -5.85 -13.4 -5.85 L-12.5 -6.05 -12.3 -6.0 Q-12.2 -6.1 -12.2 -5.85 L-12.95 -5.4 -13.85 -5.0 -15.95 -5.55 -18.75 -6.35 -21.35 -6.35 -22.1 -6.25 Q-23.2 -6.4 -25.7 -7.7 -27.95 -8.9 -29.75 -8.9 L-32.6 -8.75 -34.15 -7.8" fill="url(#gradient25)" fill-rule="evenodd" stroke="none"/>
    <path d="M-13.3 -21.35 Q-12.5 -21.45 -11.55 -22.0 L-10.1 -22.5 -10.05 -22.2 Q-10.05 -21.9 -11.05 -21.4 -12.1 -20.85 -12.1 -20.05 L-11.6 -18.6 -11.1 -17.5 -11.95 -16.85 Q-12.8 -16.4 -12.8 -15.85 -12.8 -14.8 -12.05 -14.8 -11.5 -14.8 -10.1 -17.2 -8.65 -19.65 -7.55 -19.65 -6.2 -19.65 -5.85 -18.1 L-5.75 -16.45 -5.8 -15.1 Q-6.05 -14.25 -6.9 -13.85 L-7.15 -14.0 -6.55 -15.35 -6.3 -16.45 Q-6.0 -19.15 -7.6 -19.15 -8.4 -19.15 -9.75 -16.6 -11.05 -14.1 -12.05 -14.1 -13.5 -14.1 -13.35 -15.75 L-13.15 -16.75 -11.85 -17.75 -12.4 -18.8 -12.65 -20.0 Q-12.65 -20.65 -12.25 -21.3 L-12.7 -21.35 -13.1 -21.35 -13.3 -21.35" fill="url(#gradient26)" fill-rule="evenodd" stroke="none"/>
    <path d="M-13.3 -21.35 L-14.1 -20.7 -14.35 -20.85 -11.2 -23.55 Q-8.9 -25.35 -8.55 -26.5 L-8.55 -26.55 -9.9 -25.55 -10.0 -25.55 -9.1 -26.35 -8.05 -27.1 -7.75 -26.65 Q-7.75 -25.8 -10.3 -23.7 L-13.3 -21.35" fill="url(#gradient27)" fill-rule="evenodd" stroke="none"/>
    <path d="M-23.05 -12.8 L-23.1 -13.1 -22.9 -14.1 -22.7 -14.15 -22.5 -13.55 -22.05 -13.55 -19.4 -15.15 Q-18.0 -16.15 -17.05 -16.55 -15.55 -17.2 -15.55 -18.1 L-15.55 -19.6 -15.45 -19.6 -15.5 -17.3 -15.1 -17.4 Q-14.65 -17.4 -14.65 -16.95 L-15.0 -16.35 -15.6 -15.85 -16.0 -16.2 -18.8 -14.45 Q-21.25 -12.7 -22.05 -12.7 L-23.05 -12.8" fill="url(#gradient28)" fill-rule="evenodd" stroke="none"/>
    <path d="M14.25 -23.9 L14.95 -24.35 16.4 -25.25 17.0 -26.15 16.75 -26.95 Q16.75 -28.65 17.4 -28.8 18.05 -28.9 18.05 -27.05 L17.0 -25.1 Q15.65 -23.2 14.05 -23.2 L13.95 -23.2 13.8 -23.25 13.75 -23.45 14.25 -23.9" fill="url(#gradient29)" fill-rule="evenodd" stroke="none"/>
    <path d="M19.35 -29.5 Q19.25 -29.85 18.8 -29.9 L20.5 -29.85 Q20.5 -29.4 19.75 -29.0 L19.35 -29.5" fill="url(#gradient30)" fill-rule="evenodd" stroke="none"/>
    <path d="M23.9 -41.45 L24.2 -41.5 24.75 -41.05 Q24.75 -40.15 21.55 -38.3 L21.5 -38.4 22.5 -39.4 23.4 -40.55 23.2 -41.1 Q21.9 -40.6 21.45 -39.75 L20.75 -38.35 20.65 -38.35 20.9 -39.15 21.2 -40.1 21.0 -40.65 21.15 -41.05 21.7 -41.1 23.1 -41.95 Q24.1 -42.55 23.9 -41.45" fill="url(#gradient31)" fill-rule="evenodd" stroke="none"/>
    <path d="M17.15 -32.5 L17.7 -32.85 18.4 -32.85 18.5 -32.65 16.6 -31.35 17.15 -32.45 17.15 -32.5" fill="url(#gradient32)" fill-rule="evenodd" stroke="none"/>
    <path d="M13.3 -26.95 L13.55 -27.85 13.7 -27.85 13.75 -27.75 13.3 -26.95 M14.0 -27.15 L14.2 -26.5 14.1 -26.2 13.75 -25.95 13.3 -26.05 14.0 -27.15" fill="url(#gradient33)" fill-rule="evenodd" stroke="none"/>
    <path d="M10.95 -22.7 L13.3 -26.95 13.75 -27.75 Q16.4 -32.35 17.05 -32.6 L17.15 -32.5 17.15 -32.45 16.6 -31.35 14.3 -27.65 14.0 -27.15 13.3 -26.05 11.25 -22.8 10.2 -21.05 10.15 -21.0 9.85 -20.55 9.8 -20.55 10.05 -21.0 10.1 -21.05 10.95 -22.7" fill="url(#gradient34)" fill-rule="evenodd" stroke="none"/>
    <path d="M8.8 -16.3 L6.15 -15.7 5.95 -15.8 Q7.15 -16.5 9.4 -16.65 L9.45 -15.8 9.4 -15.2 8.9 -14.7 Q8.35 -14.35 7.4 -14.25 L6.0 -14.0 5.95 -13.95 5.9 -14.1 Q5.9 -15.35 8.6 -15.05 L9.0 -15.4 9.0 -16.25 8.8 -16.3" fill="url(#gradient35)" fill-rule="evenodd" stroke="none"/>
    <path d="M2.65 -10.55 L0.2 -9.9 3.05 -11.8 Q4.45 -12.8 4.45 -11.7 4.45 -11.15 2.65 -10.55" fill="url(#gradient36)" fill-rule="evenodd" stroke="none"/>
    <path d="M-2.45 -9.2 L-1.45 -9.5 -1.4 -9.35 Q-1.4 -8.55 -3.0 -8.5 L-3.3 -8.5 -4.35 -8.2 -5.15 -8.05 -5.35 -8.05 -2.45 -9.2" fill="url(#gradient37)" fill-rule="evenodd" stroke="none"/>
    <path d="M-8.75 -6.15 L-9.35 -6.15 -9.85 -6.25 -8.65 -6.6 -7.75 -6.65 -7.65 -6.45 Q-7.85 -6.2 -8.75 -6.15" fill="url(#gradient38)" fill-rule="evenodd" stroke="none"/>
    <path d="M-56.35 -17.05 L-55.5 -16.75 -55.85 -16.8 -56.35 -17.0 -56.35 -17.05 M-52.65 -15.8 L-51.25 -15.25 -51.2 -15.1 -51.45 -14.9 -53.75 -15.7 -52.65 -15.8 M-57.5 -16.95 L-60.45 -18.0 -63.4 -19.1 -63.55 -19.15 -63.6 -19.2 -63.55 -19.2 -63.5 -19.25 -63.35 -19.2 -61.2 -18.5 -57.5 -17.4 -57.4 -17.15 -57.5 -16.95" fill="url(#gradient39)" fill-rule="evenodd" stroke="none"/>
    <path d="M-66.0 -22.2 L-67.05 -24.65 -66.95 -24.65 -66.15 -23.75 -65.9 -23.4 -65.4 -22.35 -65.25 -21.95 -65.15 -21.65 -65.95 -22.05 -66.0 -22.2 M-65.1 -21.5 L-64.45 -19.75 -64.7 -19.5 -65.85 -21.75 -65.1 -21.5" fill="url(#gradient40)" fill-rule="evenodd" stroke="none"/>
    <path d="M-69.7 -22.45 L-70.25 -23.3 -71.9 -25.85 -71.45 -25.45 -69.5 -23.0 -68.3 -21.3 -68.35 -21.15 -68.3 -21.1 -68.45 -21.1 Q-68.8 -21.1 -69.7 -22.45" fill="url(#gradient41)" fill-rule="evenodd" stroke="none"/>
    <path d="M-71.9 -25.85 Q-72.75 -26.65 -73.9 -28.4 L-74.1 -28.7 Q-73.05 -27.3 -70.2 -25.05 -68.0 -23.3 -66.35 -22.3 L-65.95 -22.05 -65.15 -21.65 -64.0 -21.2 -65.1 -21.5 -65.85 -21.75 -68.1 -22.9 -68.55 -23.15 -71.45 -25.45 -71.9 -25.85 M-74.25 -28.9 L-76.15 -31.0 Q-74.7 -30.65 -74.7 -30.05 L-74.25 -28.9" fill="url(#gradient42)" fill-rule="evenodd" stroke="none"/>
    <path d="M-59.25 -19.55 L-58.95 -19.4 Q-56.4 -18.1 -56.35 -17.05 L-56.35 -17.0 -55.85 -16.8 -55.5 -16.75 -53.95 -16.75 Q-52.45 -16.75 -51.7 -17.1 L-51.2 -17.55 -50.9 -18.6 Q-50.55 -18.4 -50.55 -17.9 -50.55 -17.25 -50.95 -16.7 L-51.0 -16.7 Q-51.55 -16.0 -52.65 -15.8 L-53.75 -15.7 -53.85 -15.7 Q-57.75 -15.7 -57.75 -16.55 L-57.5 -16.95 -57.4 -17.15 -57.5 -17.4 Q-58.0 -17.95 -60.15 -19.25 L-60.6 -19.5 -63.0 -20.95 Q-61.4 -20.7 -59.25 -19.55" fill="url(#gradient43)" fill-rule="evenodd" stroke="none"/>
    <path d="M-45.55 -13.75 L-43.85 -12.4 -42.75 -11.55 -44.05 -12.05 -44.85 -12.35 -47.95 -15.1 -48.1 -15.2 Q-47.55 -15.45 -46.1 -14.25 L-45.55 -13.75 M-40.55 -9.65 L-40.3 -9.0 -40.35 -8.65 -40.35 -8.6 -40.5 -8.55 -42.5 -10.3 -40.55 -9.65" fill="url(#gradient44)" fill-rule="evenodd" stroke="none"/>
    <path d="M-67.35 -26.85 L-65.4 -26.25 -65.2 -26.4 -64.9 -26.55 Q-59.55 -24.0 -57.8 -23.4 L-57.7 -23.2 Q-57.85 -23.05 -58.15 -23.05 -59.15 -23.05 -61.35 -24.05 L-64.7 -25.9 Q-64.8 -25.3 -65.55 -25.3 L-66.55 -25.45 -67.65 -25.95 -68.4 -25.95 -67.3 -24.9 -67.4 -24.75 -68.4 -25.45 -69.35 -26.45 Q-69.35 -27.25 -67.35 -26.85" fill="url(#gradient45)" fill-rule="evenodd" stroke="none"/>
    <path d="M-51.35 -31.4 L-51.8 -31.45 -51.8 -31.9 -51.3 -31.95 Q-51.0 -31.9 -51.05 -31.6 L-51.35 -31.4" fill="url(#gradient46)" fill-rule="evenodd" stroke="none"/>
    <path d="M-53.35 -34.35 L-53.35 -34.3 -53.7 -34.7 -53.6 -34.7 -53.35 -34.35" fill="url(#gradient47)" fill-rule="evenodd" stroke="none"/>
    <path d="M-55.0 -36.35 Q-55.05 -36.2 -55.25 -36.2 L-56.0 -36.45 -56.0 -36.7 -55.05 -36.55 -55.0 -36.35" fill="url(#gradient48)" fill-rule="evenodd" stroke="none"/>
    <path d="M-48.5 -27.25 L-48.5 -27.2 -48.65 -27.15 Q-49.4 -27.15 -49.95 -28.45 L-49.8 -28.55 Q-49.65 -28.6 -49.65 -28.8 L-48.5 -27.25" fill="url(#gradient49)" fill-rule="evenodd" stroke="none"/>
    <path d="M-42.75 -11.55 L-35.75 -8.7 -35.7 -8.35 -36.0 -8.3 -40.55 -9.65 -42.5 -10.3 -43.65 -10.7 -49.0 -12.55 Q-52.35 -13.75 -52.35 -14.7 -52.35 -15.4 -48.35 -13.8 L-44.85 -12.35 -44.05 -12.05 -42.75 -11.55" fill="url(#gradient50)" fill-rule="evenodd" stroke="none"/>
    <path d="M-58.2 -15.8 L-54.6 -14.3 Q-54.75 -13.9 -55.1 -13.9 -56.4 -13.9 -59.05 -15.35 L-60.75 -16.3 -61.95 -17.1 -61.85 -17.1 -58.2 -15.8" fill="url(#gradient51)" fill-rule="evenodd" stroke="none"/>
    <path d="M-68.4 -20.3 L-68.75 -20.05 Q-69.6 -20.05 -72.05 -21.7 -74.6 -23.4 -75.7 -24.85 L-75.65 -24.85 -71.9 -22.6 -68.75 -20.6 -68.35 -20.4 -68.4 -20.3" fill="url(#gradient52)" fill-rule="evenodd" stroke="none"/>
    <path d="M-8.1 -52.2 Q-6.2 -51.05 -3.4 -47.85 -0.35 -44.45 -0.35 -42.95 L-0.45 -42.2 -0.75 -42.0 Q-9.9 -56.15 -30.15 -58.1 -23.55 -58.85 -17.05 -56.65 -12.95 -55.2 -8.1 -52.2" fill="url(#gradient53)" fill-rule="evenodd" stroke="none"/>
    <path d="M-38.6 -61.4 L-41.0 -61.7 -38.6 -61.95 -29.9 -61.95 Q-27.9 -61.95 -23.75 -60.85 L-19.85 -59.7 Q-19.95 -59.55 -20.3 -59.55 L-30.5 -61.4 -38.6 -61.4" fill="url(#gradient54)" fill-rule="evenodd" stroke="none"/>
  </g>
  <defs>
    <radialGradient cx="0" cy="0" gradientTransform="matrix(0.0045, 0.0, 0.0, 0.0045, -0.05, -43.9)" gradientUnits="userSpaceOnUse" id="gradient0" r="819.2" spreadMethod="pad">
      <stop offset="0.0" stop-color="#ffffff"/>
      <stop offset="0.3803921568627451" stop-color="#f0d66c"/>
      <stop offset="0.7450980392156863" stop-color="#945b21" stop-opacity="0.5803922"/>
      <stop offset="1.0" stop-color="#26372b" stop-opacity="0.18039216"/>
    </radialGradient>
    <radialGradient cx="0" cy="0" gradientTransform="matrix(0.0381, 0.0, 0.0, 0.0381, -15.55, -25.7)" gradientUnits="userSpaceOnUse" id="gradient1" r="819.2" spreadMethod="pad">
      <stop offset="0.0" stop-color="#ffffff"/>
      <stop offset="0.3803921568627451" stop-color="#f0d66c"/>
      <stop offset="0.7450980392156863" stop-color="#945b21" stop-opacity="0.5803922"/>
      <stop offset="1.0" stop-color="#26372b" stop-opacity="0.18039216"/>
    </radialGradient>
    <radialGradient cx="0" cy="0" gradientTransform="matrix(0.0046, 0.0, 0.0, 0.0046, 11.55, -32.75)" gradientUnits="userSpaceOnUse" id="gradient2" r="819.2" spreadMethod="pad">
      <stop offset="0.0" stop-color="#ffffff"/>
      <stop offset="0.3803921568627451" stop-color="#f0d66c"/>
      <stop offset="0.7450980392156863" stop-color="#945b21" stop-opacity="0.5803922"/>
      <stop offset="1.0" stop-color="#26372b" stop-opacity="0.18039216"/>
    </radialGradient>
    <radialGradient cx="0" cy="0" gradientTransform="matrix(0.0053, 0.0, 0.0, 0.0053, -31.7, -49.95)" gradientUnits="userSpaceOnUse" id="gradient3" r="819.2" spreadMethod="pad">
      <stop offset="0.0" stop-color="#ffffff"/>
      <stop offset="0.3803921568627451" stop-color="#f0d66c"/>
      <stop offset="0.7450980392156863" stop-color="#945b21" stop-opacity="0.5803922"/>
      <stop offset="1.0" stop-color="#26372b" stop-opacity="0.18039216"/>
    </radialGradient>
    <radialGradient cx="0" cy="0" gradientTransform="matrix(0.0031, 0.0, 0.0, 0.0031, -40.25, -42.1)" gradientUnits="userSpaceOnUse" id="gradient4" r="819.2" spreadMethod="pad">
      <stop offset="0.0" stop-color="#ffffff"/>
      <stop offset="0.3803921568627451" stop-color="#f0d66c"/>
      <stop offset="0.7450980392156863" stop-color="#945b21" stop-opacity="0.5803922"/>
      <stop offset="1.0" stop-color="#26372b" stop-opacity="0.18039216"/>
    </radialGradient>
    <radialGradient cx="0" cy="0" gradientTransform="matrix(0.0021, 0.0, 0.0, 0.0021, -44.9, -25.05)" gradientUnits="userSpaceOnUse" id="gradient5" r="819.2" spreadMethod="pad">
      <stop offset="0.0" stop-color="#ffffff"/>
      <stop offset="0.3803921568627451" stop-color="#f0d66c"/>
      <stop offset="0.7450980392156863" stop-color="#945b21" stop-opacity="0.5803922"/>
      <stop offset="1.0" stop-color="#26372b" stop-opacity="0.18039216"/>
    </radialGradient>
    <radialGradient cx="0" cy="0" gradientTransform="matrix(7.0E-4, 0.0, 0.0, 7.0E-4, -37.45, -51.95)" gradientUnits="userSpaceOnUse" id="gradient6" r="819.2" spreadMethod="pad">
      <stop offset="0.0" stop-color="#ffffff"/>
      <stop offset="0.3803921568627451" stop-color="#f0d66c"/>
      <stop offset="0.7450980392156863" stop-color="#945b21" stop-opacity="0.5803922"/>
      <stop offset="1.0" stop-color="#26372b" stop-opacity="0.18039216"/>
    </radialGradient>
    <radialGradient cx="0" cy="0" gradientTransform="matrix(0.0021, 0.0, 0.0, 0.0021, -39.65, -56.9)" gradientUnits="userSpaceOnUse" id="gradient7" r="819.2" spreadMethod="pad">
      <stop offset="0.0" stop-color="#ffffff"/>
      <stop offset="0.3803921568627451" stop-color="#f0d66c"/>
      <stop offset="0.7450980392156863" stop-color="#945b21" stop-opacity="0.5803922"/>
      <stop offset="1.0" stop-color="#26372b" stop-opacity="0.18039216"/>
    </radialGradient>
    <radialGradient cx="0" cy="0" gradientTransform="matrix(0.0013, 0.0, 0.0, 0.0013, -41.2, -57.7)" gradientUnits="userSpaceOnUse" id="gradient8" r="819.2" spreadMethod="pad">
      <stop offset="0.0" stop-color="#ffffff"/>
      <stop offset="0.3803921568627451" stop-color="#f0d66c"/>
      <stop offset="0.7450980392156863" stop-color="#945b21" stop-opacity="0.5803922"/>
      <stop offset="1.0" stop-color="#26372b" stop-opacity="0.18039216"/>
    </radialGradient>
    <radialGradient cx="0" cy="0" gradientTransform="matrix(0.0054, 0.0, 0.0, 0.0054, -34.0, -47.25)" gradientUnits="userSpaceOnUse" id="gradient9" r="819.2" spreadMethod="pad">
      <stop offset="0.0" stop-color="#ffffff"/>
      <stop offset="0.3803921568627451" stop-color="#f0d66c"/>
      <stop offset="0.7450980392156863" stop-color="#945b21" stop-opacity="0.5803922"/>
      <stop offset="1.0" stop-color="#26372b" stop-opacity="0.18039216"/>
    </radialGradient>
    <radialGradient cx="0" cy="0" gradientTransform="matrix(0.0106, 0.0, 0.0, 0.0106, -8.45, -42.5)" gradientUnits="userSpaceOnUse" id="gradient10" r="819.2" spreadMethod="pad">
      <stop offset="0.0" stop-color="#ffffff"/>
      <stop offset="0.3803921568627451" stop-color="#f0d66c"/>
      <stop offset="0.7450980392156863" stop-color="#945b21" stop-opacity="0.5803922"/>
      <stop offset="1.0" stop-color="#26372b" stop-opacity="0.18039216"/>
    </radialGradient>
    <radialGradient cx="0" cy="0" gradientTransform="matrix(0.0125, 0.0, 0.0, 0.0125, -14.3, -49.05)" gradientUnits="userSpaceOnUse" id="gradient11" r="819.2" spreadMethod="pad">
      <stop offset="0.0" stop-color="#ffffff"/>
      <stop offset="0.3803921568627451" stop-color="#f0d66c"/>
      <stop offset="0.7450980392156863" stop-color="#945b21" stop-opacity="0.5803922"/>
      <stop offset="1.0" stop-color="#26372b" stop-opacity="0.18039216"/>
    </radialGradient>
    <radialGradient cx="0" cy="0" gradientTransform="matrix(0.0141, 0.0, 0.0, 0.0141, -3.3, -40.15)" gradientUnits="userSpaceOnUse" id="gradient12" r="819.2" spreadMethod="pad">
      <stop offset="0.0" stop-color="#ffffff"/>
      <stop offset="0.3803921568627451" stop-color="#f0d66c"/>
      <stop offset="0.7450980392156863" stop-color="#945b21" stop-opacity="0.5803922"/>
      <stop offset="1.0" stop-color="#26372b" stop-opacity="0.18039216"/>
    </radialGradient>
    <radialGradient cx="0" cy="0" gradientTransform="matrix(0.011, 0.0, 0.0, 0.011, 2.4, -36.3)" gradientUnits="userSpaceOnUse" id="gradient13" r="819.2" spreadMethod="pad">
      <stop offset="0.0" stop-color="#ffffff"/>
      <stop offset="0.3803921568627451" stop-color="#f0d66c"/>
      <stop offset="0.7450980392156863" stop-color="#945b21" stop-opacity="0.5803922"/>
      <stop offset="1.0" stop-color="#26372b" stop-opacity="0.18039216"/>
    </radialGradient>
    <radialGradient cx="0" cy="0" gradientTransform="matrix(0.009, 0.0, 0.0, 0.009, 8.8, -24.85)" gradientUnits="userSpaceOnUse" id="gradient14" r="819.2" spreadMethod="pad">
      <stop offset="0.0" stop-color="#ffffff"/>
      <stop offset="0.3803921568627451" stop-color="#f0d66c"/>
      <stop offset="0.7450980392156863" stop-color="#945b21" stop-opacity="0.5803922"/>
      <stop offset="1.0" stop-color="#26372b" stop-opacity="0.18039216"/>
    </radialGradient>
    <radialGradient cx="0" cy="0" gradientTransform="matrix(0.0109, 0.0, 0.0, 0.0109, -61.65, -20.1)" gradientUnits="userSpaceOnUse" id="gradient15" r="819.2" spreadMethod="pad">
      <stop offset="0.0" stop-color="#ffffff"/>
      <stop offset="0.3803921568627451" stop-color="#f0d66c"/>
      <stop offset="0.7450980392156863" stop-color="#945b21" stop-opacity="0.5803922"/>
      <stop offset="1.0" stop-color="#26372b" stop-opacity="0.18039216"/>
    </radialGradient>
    <radialGradient cx="0" cy="0" gradientTransform="matrix(0.0157, 0.0, 0.0, 0.0157, -42.25, -16.05)" gradientUnits="userSpaceOnUse" id="gradient16" r="819.2" spreadMethod="pad">
      <stop offset="0.0" stop-color="#ffffff"/>
      <stop offset="0.3803921568627451" stop-color="#f0d66c"/>
      <stop offset="0.7450980392156863" stop-color="#945b21" stop-opacity="0.5803922"/>
      <stop offset="1.0" stop-color="#26372b" stop-opacity="0.18039216"/>
    </radialGradient>
    <radialGradient cx="0" cy="0" gradientTransform="matrix(0.0083, 0.0, 0.0, 0.0083, -47.75, -42.9)" gradientUnits="userSpaceOnUse" id="gradient17" r="819.2" spreadMethod="pad">
      <stop offset="0.0" stop-color="#ffffff"/>
      <stop offset="0.3803921568627451" stop-color="#f0d66c"/>
      <stop offset="0.7450980392156863" stop-color="#945b21" stop-opacity="0.5803922"/>
      <stop offset="1.0" stop-color="#26372b" stop-opacity="0.18039216"/>
    </radialGradient>
    <radialGradient cx="0" cy="0" gradientTransform="matrix(0.0037, 0.0, 0.0, 0.0037, -53.45, -49.4)" gradientUnits="userSpaceOnUse" id="gradient18" r="819.2" spreadMethod="pad">
      <stop offset="0.0" stop-color="#ffffff"/>
      <stop offset="0.3803921568627451" stop-color="#f0d66c"/>
      <stop offset="0.7450980392156863" stop-color="#945b21" stop-opacity="0.5803922"/>
      <stop offset="1.0" stop-color="#26372b" stop-opacity="0.18039216"/>
    </radialGradient>
    <radialGradient cx="0" cy="0" gradientTransform="matrix(0.0031, 0.0, 0.0, 0.0031, -50.05, -54.9)" gradientUnits="userSpaceOnUse" id="gradient19" r="819.2" spreadMethod="pad">
      <stop offset="0.0" stop-color="#ffffff"/>
      <stop offset="0.3803921568627451" stop-color="#f0d66c"/>
      <stop offset="0.7450980392156863" stop-color="#945b21" stop-opacity="0.5803922"/>
      <stop offset="1.0" stop-color="#26372b" stop-opacity="0.18039216"/>
    </radialGradient>
    <radialGradient cx="0" cy="0" gradientTransform="matrix(0.0018, 0.0, 0.0, 0.0018, -41.35, -40.15)" gradientUnits="userSpaceOnUse" id="gradient20" r="819.2" spreadMethod="pad">
      <stop offset="0.0" stop-color="#ffffff"/>
      <stop offset="0.3803921568627451" stop-color="#f0d66c"/>
      <stop offset="0.7450980392156863" stop-color="#945b21" stop-opacity="0.5803922"/>
      <stop offset="1.0" stop-color="#26372b" stop-opacity="0.18039216"/>
    </radialGradient>
    <radialGradient cx="0" cy="0" gradientTransform="matrix(0.0057, 0.0, 0.0, 0.0057, -40.55, -29.35)" gradientUnits="userSpaceOnUse" id="gradient21" r="819.2" spreadMethod="pad">
      <stop offset="0.0" stop-color="#ffffff"/>
      <stop offset="0.3803921568627451" stop-color="#f0d66c"/>
      <stop offset="0.7450980392156863" stop-color="#945b21" stop-opacity="0.5803922"/>
      <stop offset="1.0" stop-color="#26372b" stop-opacity="0.18039216"/>
    </radialGradient>
    <radialGradient cx="0" cy="0" gradientTransform="matrix(0.0169, 0.0, 0.0, 0.0169, -39.2, -27.8)" gradientUnits="userSpaceOnUse" id="gradient22" r="819.2" spreadMethod="pad">
      <stop offset="0.0" stop-color="#ffffff"/>
      <stop offset="0.3803921568627451" stop-color="#f0d66c"/>
      <stop offset="0.7450980392156863" stop-color="#945b21" stop-opacity="0.5803922"/>
      <stop offset="1.0" stop-color="#26372b" stop-opacity="0.18039216"/>
    </radialGradient>
    <radialGradient cx="0" cy="0" gradientTransform="matrix(0.0067, 0.0, 0.0, 0.0067, -28.0, -17.75)" gradientUnits="userSpaceOnUse" id="gradient23" r="819.2" spreadMethod="pad">
      <stop offset="0.0" stop-color="#ffffff"/>
      <stop offset="0.3803921568627451" stop-color="#f0d66c"/>
      <stop offset="0.7450980392156863" stop-color="#945b21" stop-opacity="0.5803922"/>
      <stop offset="1.0" stop-color="#26372b" stop-opacity="0.18039216"/>
    </radialGradient>
    <radialGradient cx="0" cy="0" gradientTransform="matrix(0.0132, 0.0, 0.0, 0.0132, -1.45, -13.75)" gradientUnits="userSpaceOnUse" id="gradient24" r="819.2" spreadMethod="pad">
      <stop offset="0.0" stop-color="#ffffff"/>
      <stop offset="0.3803921568627451" stop-color="#f0d66c"/>
      <stop offset="0.7450980392156863" stop-color="#945b21" stop-opacity="0.5803922"/>
      <stop offset="1.0" stop-color="#26372b" stop-opacity="0.18039216"/>
    </radialGradient>
    <radialGradient cx="0" cy="0" gradientTransform="matrix(0.0139, 0.0, 0.0, 0.0139, -23.3, -7.5)" gradientUnits="userSpaceOnUse" id="gradient25" r="819.2" spreadMethod="pad">
      <stop offset="0.0" stop-color="#ffffff"/>
      <stop offset="0.3803921568627451" stop-color="#f0d66c"/>
      <stop offset="0.7450980392156863" stop-color="#945b21" stop-opacity="0.5803922"/>
      <stop offset="1.0" stop-color="#26372b" stop-opacity="0.18039216"/>
    </radialGradient>
    <radialGradient cx="0" cy="0" gradientTransform="matrix(0.007, 0.0, 0.0, 0.007, -9.55, -18.15)" gradientUnits="userSpaceOnUse" id="gradient26" r="819.2" spreadMethod="pad">
      <stop offset="0.0" stop-color="#ffffff"/>
      <stop offset="0.3803921568627451" stop-color="#f0d66c"/>
      <stop offset="0.7450980392156863" stop-color="#945b21" stop-opacity="0.5803922"/>
      <stop offset="1.0" stop-color="#26372b" stop-opacity="0.18039216"/>
    </radialGradient>
    <radialGradient cx="0" cy="0" gradientTransform="matrix(0.006, 0.0, 0.0, 0.006, -11.05, -23.9)" gradientUnits="userSpaceOnUse" id="gradient27" r="819.2" spreadMethod="pad">
      <stop offset="0.0" stop-color="#ffffff"/>
      <stop offset="0.3803921568627451" stop-color="#f0d66c"/>
      <stop offset="0.7450980392156863" stop-color="#945b21" stop-opacity="0.5803922"/>
      <stop offset="1.0" stop-color="#26372b" stop-opacity="0.18039216"/>
    </radialGradient>
    <radialGradient cx="0" cy="0" gradientTransform="matrix(0.0065, 0.0, 0.0, 0.0065, -18.85, -16.15)" gradientUnits="userSpaceOnUse" id="gradient28" r="819.2" spreadMethod="pad">
      <stop offset="0.0" stop-color="#ffffff"/>
      <stop offset="0.3803921568627451" stop-color="#f0d66c"/>
      <stop offset="0.7450980392156863" stop-color="#945b21" stop-opacity="0.5803922"/>
      <stop offset="1.0" stop-color="#26372b" stop-opacity="0.18039216"/>
    </radialGradient>
    <radialGradient cx="0" cy="0" gradientTransform="matrix(0.0043, 0.0, 0.0, 0.0043, 15.9, -26.0)" gradientUnits="userSpaceOnUse" id="gradient29" r="819.2" spreadMethod="pad">
      <stop offset="0.0" stop-color="#ffffff"/>
      <stop offset="0.3803921568627451" stop-color="#f0d66c"/>
      <stop offset="0.7450980392156863" stop-color="#945b21" stop-opacity="0.5803922"/>
      <stop offset="1.0" stop-color="#26372b" stop-opacity="0.18039216"/>
    </radialGradient>
    <radialGradient cx="0" cy="0" gradientTransform="matrix(0.0015, 0.0, 0.0, 0.0015, 19.65, -29.8)" gradientUnits="userSpaceOnUse" id="gradient30" r="819.2" spreadMethod="pad">
      <stop offset="0.0" stop-color="#ffffff"/>
      <stop offset="0.3803921568627451" stop-color="#f0d66c"/>
      <stop offset="0.7450980392156863" stop-color="#945b21" stop-opacity="0.5803922"/>
      <stop offset="1.0" stop-color="#26372b" stop-opacity="0.18039216"/>
    </radialGradient>
    <radialGradient cx="0" cy="0" gradientTransform="matrix(0.0038, 0.0, 0.0, 0.0038, 22.7, -40.25)" gradientUnits="userSpaceOnUse" id="gradient31" r="819.2" spreadMethod="pad">
      <stop offset="0.0" stop-color="#ffffff"/>
      <stop offset="0.3803921568627451" stop-color="#f0d66c"/>
      <stop offset="0.7450980392156863" stop-color="#945b21" stop-opacity="0.5803922"/>
      <stop offset="1.0" stop-color="#26372b" stop-opacity="0.18039216"/>
    </radialGradient>
    <radialGradient cx="0" cy="0" gradientTransform="matrix(0.002, 0.0, 0.0, 0.002, 17.3, -31.95)" gradientUnits="userSpaceOnUse" id="gradient32" r="819.2" spreadMethod="pad">
      <stop offset="0.0" stop-color="#ffffff"/>
      <stop offset="0.3803921568627451" stop-color="#f0d66c"/>
      <stop offset="0.7450980392156863" stop-color="#945b21" stop-opacity="0.5803922"/>
      <stop offset="1.0" stop-color="#26372b" stop-opacity="0.18039216"/>
    </radialGradient>
    <radialGradient cx="0" cy="0" gradientTransform="matrix(0.0019, 0.0, 0.0, 0.0019, 13.7, -26.9)" gradientUnits="userSpaceOnUse" id="gradient33" r="819.2" spreadMethod="pad">
      <stop offset="0.0" stop-color="#ffffff"/>
      <stop offset="0.3803921568627451" stop-color="#f0d66c"/>
      <stop offset="0.7450980392156863" stop-color="#945b21" stop-opacity="0.5803922"/>
      <stop offset="1.0" stop-color="#26372b" stop-opacity="0.18039216"/>
    </radialGradient>
    <radialGradient cx="0" cy="0" gradientTransform="matrix(0.0092, 0.0, 0.0, 0.0092, 13.5, -26.6)" gradientUnits="userSpaceOnUse" id="gradient34" r="819.2" spreadMethod="pad">
      <stop offset="0.0" stop-color="#ffffff"/>
      <stop offset="0.3803921568627451" stop-color="#f0d66c"/>
      <stop offset="0.7450980392156863" stop-color="#945b21" stop-opacity="0.5803922"/>
      <stop offset="1.0" stop-color="#26372b" stop-opacity="0.18039216"/>
    </radialGradient>
    <radialGradient cx="0" cy="0" gradientTransform="matrix(0.0035, 0.0, 0.0, 0.0035, 7.7, -15.3)" gradientUnits="userSpaceOnUse" id="gradient35" r="819.2" spreadMethod="pad">
      <stop offset="0.0" stop-color="#ffffff"/>
      <stop offset="0.3803921568627451" stop-color="#f0d66c"/>
      <stop offset="0.7450980392156863" stop-color="#945b21" stop-opacity="0.5803922"/>
      <stop offset="1.0" stop-color="#26372b" stop-opacity="0.18039216"/>
    </radialGradient>
    <radialGradient cx="0" cy="0" gradientTransform="matrix(0.0033, 0.0, 0.0, 0.0033, 2.35, -11.1)" gradientUnits="userSpaceOnUse" id="gradient36" r="819.2" spreadMethod="pad">
      <stop offset="0.0" stop-color="#ffffff"/>
      <stop offset="0.3803921568627451" stop-color="#f0d66c"/>
      <stop offset="0.7450980392156863" stop-color="#945b21" stop-opacity="0.5803922"/>
      <stop offset="1.0" stop-color="#26372b" stop-opacity="0.18039216"/>
    </radialGradient>
    <radialGradient cx="0" cy="0" gradientTransform="matrix(0.0034, 0.0, 0.0, 0.0034, -3.35, -8.75)" gradientUnits="userSpaceOnUse" id="gradient37" r="819.2" spreadMethod="pad">
      <stop offset="0.0" stop-color="#ffffff"/>
      <stop offset="0.3803921568627451" stop-color="#f0d66c"/>
      <stop offset="0.7450980392156863" stop-color="#945b21" stop-opacity="0.5803922"/>
      <stop offset="1.0" stop-color="#26372b" stop-opacity="0.18039216"/>
    </radialGradient>
    <radialGradient cx="0" cy="0" gradientTransform="matrix(0.002, 0.0, 0.0, 0.002, -8.75, -6.4)" gradientUnits="userSpaceOnUse" id="gradient38" r="819.2" spreadMethod="pad">
      <stop offset="0.0" stop-color="#ffffff"/>
      <stop offset="0.3803921568627451" stop-color="#f0d66c"/>
      <stop offset="0.7450980392156863" stop-color="#945b21" stop-opacity="0.5803922"/>
      <stop offset="1.0" stop-color="#26372b" stop-opacity="0.18039216"/>
    </radialGradient>
    <radialGradient cx="0" cy="0" gradientTransform="matrix(0.008, 0.0, 0.0, 0.008, -57.4, -17.05)" gradientUnits="userSpaceOnUse" id="gradient39" r="819.2" spreadMethod="pad">
      <stop offset="0.0" stop-color="#ffffff"/>
      <stop offset="0.3803921568627451" stop-color="#f0d66c"/>
      <stop offset="0.7450980392156863" stop-color="#945b21" stop-opacity="0.5803922"/>
      <stop offset="1.0" stop-color="#26372b" stop-opacity="0.18039216"/>
    </radialGradient>
    <radialGradient cx="0" cy="0" gradientTransform="matrix(0.0035, 0.0, 0.0, 0.0035, -65.75, -22.05)" gradientUnits="userSpaceOnUse" id="gradient40" r="819.2" spreadMethod="pad">
      <stop offset="0.0" stop-color="#ffffff"/>
      <stop offset="0.3803921568627451" stop-color="#f0d66c"/>
      <stop offset="0.7450980392156863" stop-color="#945b21" stop-opacity="0.5803922"/>
      <stop offset="1.0" stop-color="#26372b" stop-opacity="0.18039216"/>
    </radialGradient>
    <radialGradient cx="0" cy="0" gradientTransform="matrix(0.0045, 0.0, 0.0, 0.0045, -70.3, -23.7)" gradientUnits="userSpaceOnUse" id="gradient41" r="819.2" spreadMethod="pad">
      <stop offset="0.0" stop-color="#ffffff"/>
      <stop offset="0.3803921568627451" stop-color="#f0d66c"/>
      <stop offset="0.7450980392156863" stop-color="#945b21" stop-opacity="0.5803922"/>
      <stop offset="1.0" stop-color="#26372b" stop-opacity="0.18039216"/>
    </radialGradient>
    <radialGradient cx="0" cy="0" gradientTransform="matrix(0.0098, 0.0, 0.0, 0.0098, -70.05, -26.1)" gradientUnits="userSpaceOnUse" id="gradient42" r="819.2" spreadMethod="pad">
      <stop offset="0.0" stop-color="#ffffff"/>
      <stop offset="0.3803921568627451" stop-color="#f0d66c"/>
      <stop offset="0.7450980392156863" stop-color="#945b21" stop-opacity="0.5803922"/>
      <stop offset="1.0" stop-color="#26372b" stop-opacity="0.18039216"/>
    </radialGradient>
    <radialGradient cx="0" cy="0" gradientTransform="matrix(0.0083, 0.0, 0.0, 0.0083, -56.75, -18.3)" gradientUnits="userSpaceOnUse" id="gradient43" r="819.2" spreadMethod="pad">
      <stop offset="0.0" stop-color="#ffffff"/>
      <stop offset="0.3803921568627451" stop-color="#f0d66c"/>
      <stop offset="0.7450980392156863" stop-color="#945b21" stop-opacity="0.5803922"/>
      <stop offset="1.0" stop-color="#26372b" stop-opacity="0.18039216"/>
    </radialGradient>
    <radialGradient cx="0" cy="0" gradientTransform="matrix(0.0063, 0.0, 0.0, 0.0063, -44.2, -11.9)" gradientUnits="userSpaceOnUse" id="gradient44" r="819.2" spreadMethod="pad">
      <stop offset="0.0" stop-color="#ffffff"/>
      <stop offset="0.3803921568627451" stop-color="#f0d66c"/>
      <stop offset="0.7450980392156863" stop-color="#945b21" stop-opacity="0.5803922"/>
      <stop offset="1.0" stop-color="#26372b" stop-opacity="0.18039216"/>
    </radialGradient>
    <radialGradient cx="0" cy="0" gradientTransform="matrix(0.0079, 0.0, 0.0, 0.0079, -63.5, -25.0)" gradientUnits="userSpaceOnUse" id="gradient45" r="819.2" spreadMethod="pad">
      <stop offset="0.0" stop-color="#ffffff"/>
      <stop offset="0.3803921568627451" stop-color="#f0d66c"/>
      <stop offset="0.7450980392156863" stop-color="#945b21" stop-opacity="0.5803922"/>
      <stop offset="1.0" stop-color="#26372b" stop-opacity="0.18039216"/>
    </radialGradient>
    <radialGradient cx="0" cy="0" gradientTransform="matrix(9.0E-4, 0.0, 0.0, 9.0E-4, -51.4, -31.7)" gradientUnits="userSpaceOnUse" id="gradient46" r="819.2" spreadMethod="pad">
      <stop offset="0.0" stop-color="#ffffff"/>
      <stop offset="0.3803921568627451" stop-color="#f0d66c"/>
      <stop offset="0.7450980392156863" stop-color="#945b21" stop-opacity="0.5803922"/>
      <stop offset="1.0" stop-color="#26372b" stop-opacity="0.18039216"/>
    </radialGradient>
    <radialGradient cx="0" cy="0" gradientTransform="matrix(6.0E-4, 0.0, 0.0, 6.0E-4, -53.5, -34.5)" gradientUnits="userSpaceOnUse" id="gradient47" r="819.2" spreadMethod="pad">
      <stop offset="0.0" stop-color="#ffffff"/>
      <stop offset="0.3803921568627451" stop-color="#f0d66c"/>
      <stop offset="0.7450980392156863" stop-color="#945b21" stop-opacity="0.5803922"/>
      <stop offset="1.0" stop-color="#26372b" stop-opacity="0.18039216"/>
    </radialGradient>
    <radialGradient cx="0" cy="0" gradientTransform="matrix(7.0E-4, 0.0, 0.0, 7.0E-4, -55.5, -36.45)" gradientUnits="userSpaceOnUse" id="gradient48" r="819.2" spreadMethod="pad">
      <stop offset="0.0" stop-color="#ffffff"/>
      <stop offset="0.3803921568627451" stop-color="#f0d66c"/>
      <stop offset="0.7450980392156863" stop-color="#945b21" stop-opacity="0.5803922"/>
      <stop offset="1.0" stop-color="#26372b" stop-opacity="0.18039216"/>
    </radialGradient>
    <radialGradient cx="0" cy="0" gradientTransform="matrix(0.0015, 0.0, 0.0, 0.0015, -49.2, -27.95)" gradientUnits="userSpaceOnUse" id="gradient49" r="819.2" spreadMethod="pad">
      <stop offset="0.0" stop-color="#ffffff"/>
      <stop offset="0.3803921568627451" stop-color="#f0d66c"/>
      <stop offset="0.7450980392156863" stop-color="#945b21" stop-opacity="0.5803922"/>
      <stop offset="1.0" stop-color="#26372b" stop-opacity="0.18039216"/>
    </radialGradient>
    <radialGradient cx="0" cy="0" gradientTransform="matrix(0.0113, 0.0, 0.0, 0.0113, -44.0, -11.6)" gradientUnits="userSpaceOnUse" id="gradient50" r="819.2" spreadMethod="pad">
      <stop offset="0.0" stop-color="#ffffff"/>
      <stop offset="0.3803921568627451" stop-color="#f0d66c"/>
      <stop offset="0.7450980392156863" stop-color="#945b21" stop-opacity="0.5803922"/>
      <stop offset="1.0" stop-color="#26372b" stop-opacity="0.18039216"/>
    </radialGradient>
    <radialGradient cx="0" cy="0" gradientTransform="matrix(0.0049, 0.0, 0.0, 0.0049, -58.25, -15.5)" gradientUnits="userSpaceOnUse" id="gradient51" r="819.2" spreadMethod="pad">
      <stop offset="0.0" stop-color="#ffffff"/>
      <stop offset="0.3803921568627451" stop-color="#f0d66c"/>
      <stop offset="0.7450980392156863" stop-color="#945b21" stop-opacity="0.5803922"/>
      <stop offset="1.0" stop-color="#26372b" stop-opacity="0.18039216"/>
    </radialGradient>
    <radialGradient cx="0" cy="0" gradientTransform="matrix(0.0054, 0.0, 0.0, 0.0054, -72.0, -22.45)" gradientUnits="userSpaceOnUse" id="gradient52" r="819.2" spreadMethod="pad">
      <stop offset="0.0" stop-color="#ffffff"/>
      <stop offset="0.3803921568627451" stop-color="#f0d66c"/>
      <stop offset="0.7450980392156863" stop-color="#945b21" stop-opacity="0.5803922"/>
      <stop offset="1.0" stop-color="#26372b" stop-opacity="0.18039216"/>
    </radialGradient>
    <radialGradient cx="0" cy="0" gradientTransform="matrix(0.0206, 0.0, 0.0, 0.0206, -15.25, -50.15)" gradientUnits="userSpaceOnUse" id="gradient53" r="819.2" spreadMethod="pad">
      <stop offset="0.0" stop-color="#ffffff"/>
      <stop offset="0.3803921568627451" stop-color="#f0d66c"/>
      <stop offset="0.7450980392156863" stop-color="#945b21" stop-opacity="0.5803922"/>
      <stop offset="1.0" stop-color="#26372b" stop-opacity="0.18039216"/>
    </radialGradient>
    <radialGradient cx="0" cy="0" gradientTransform="matrix(0.0136, 0.0, 0.0, 0.0136, -30.4, -60.75)" gradientUnits="userSpaceOnUse" id="gradient54" r="819.2" spreadMethod="pad">
      <stop offset="0.0" stop-color="#ffffff"/>
      <stop offset="0.3803921568627451" stop-color="#f0d66c"/>
      <stop offset="0.7450980392156863" stop-color="#945b21" stop-opacity="0.5803922"/>
      <stop offset="1.0" stop-color="#26372b" stop-opacity="0.18039216"/>
    </radialGradient>
  </defs>
</svg>
