<?xml version="1.0" encoding="UTF-8" standalone="no"?>
<svg xmlns:ffdec="https://www.free-decompiler.com/flash" xmlns:xlink="http://www.w3.org/1999/xlink" ffdec:objectType="shape" height="60.25px" width="111.15px" xmlns="http://www.w3.org/2000/svg">
  <g transform="matrix(1.0, 0.0, 0.0, 1.0, 84.6, 64.8)">
    <path d="M4.4 -47.55 Q4.25 -45.05 3.25 -45.05 2.15 -45.05 2.15 -46.25 2.15 -47.0 3.3 -47.7 4.4 -48.4 4.4 -47.55" fill="url(#gradient0)" fill-rule="evenodd" stroke="none"/>
    <path d="M3.0 -37.4 L2.75 -35.15 Q2.75 -33.9 3.5 -33.2 4.25 -32.5 4.25 -31.75 4.25 -31.05 3.6 -30.6 2.85 -30.1 2.75 -28.9 2.65 -27.75 1.9 -27.0 L0.85 -26.0 0.85 -25.4 1.6 -25.4 3.6 -27.3 Q5.7 -29.1 7.15 -29.1 L9.2 -28.9 Q10.3 -28.9 11.95 -30.05 L14.1 -31.25 14.75 -31.05 15.0 -30.6 Q15.0 -29.85 14.4 -29.45 L12.9 -28.2 12.15 -27.7 11.55 -27.05 Q11.25 -26.0 11.0 -25.85 10.5 -25.5 8.2 -25.05 5.95 -24.65 5.5 -24.2 3.45 -22.55 2.95 -21.75 2.65 -21.25 1.0 -21.05 -0.8 -20.8 -1.7 -20.0 -2.2 -19.55 -2.3 -18.75 L-2.5 -17.45 Q-2.6 -16.95 -3.2 -16.25 L-4.0 -15.05 Q-4.6 -13.2 -5.1 -12.65 L-1.25 -12.4 1.15 -12.6 Q3.35 -12.6 5.35 -11.75 7.25 -10.9 7.25 -10.1 L6.8 -9.75 6.05 -9.6 4.95 -9.85 3.45 -10.05 2.1 -10.25 Q1.05 -10.25 0.0 -9.65 -1.1 -9.05 -1.8 -9.05 -2.2 -9.05 -2.75 -9.4 -3.25 -9.75 -3.9 -9.75 L-7.15 -8.9 -11.0 -7.7 Q-11.4 -7.7 -11.4 -8.15 -11.4 -8.8 -9.6 -10.65 -7.65 -12.65 -7.25 -13.9 L-7.25 -14.5 -7.75 -14.5 -8.85 -13.35 Q-9.5 -12.7 -10.8 -12.3 L-11.4 -12.3 -11.45 -12.8 Q-11.45 -13.95 -10.45 -15.2 L-8.5 -18.05 Q-7.15 -20.55 -6.65 -23.3 L-6.65 -24.25 Q-8.1 -21.5 -11.0 -17.65 -14.0 -13.65 -14.8 -13.65 L-15.15 -13.7 -15.2 -14.55 -14.7 -16.05 -13.95 -17.75 -14.1 -17.85 -15.75 -14.4 Q-16.85 -11.9 -18.4 -11.9 L-18.65 -11.95 -18.7 -14.4 -18.45 -18.0 -18.2 -20.35 Q-18.2 -22.15 -19.1 -24.6 -20.2 -27.65 -21.85 -28.25 L-22.05 -25.1 -22.0 -21.9 -22.05 -20.0 Q-22.2 -19.2 -23.0 -18.1 -23.35 -18.2 -23.75 -19.1 L-23.8 -19.1 -23.7 -18.6 Q-23.75 -18.3 -24.55 -18.3 -25.15 -18.3 -27.4 -19.55 -29.65 -20.85 -31.95 -20.85 L-32.4 -20.8 -30.7 -18.35 Q-29.25 -16.2 -29.25 -15.45 -29.25 -14.7 -29.75 -14.5 L-30.65 -14.5 Q-31.25 -14.45 -32.4 -14.95 L-34.85 -16.05 -35.4 -16.05 -33.7 -13.3 -32.8 -11.3 -30.95 -11.2 -30.35 -10.95 -30.25 -10.75 Q-30.9 -10.1 -32.3 -9.45 L-34.4 -8.3 -32.45 -8.3 Q-31.9 -8.25 -31.9 -7.9 L-35.55 -6.45 Q-39.05 -5.2 -40.0 -5.0 L-40.9 -5.0 Q-41.5 -5.3 -41.5 -5.9 -41.5 -6.7 -40.4 -7.0 -38.55 -7.55 -37.25 -8.6 -39.25 -8.85 -40.5 -10.9 L-40.6 -11.55 Q-40.65 -11.95 -41.3 -12.3 -42.95 -13.2 -43.25 -13.8 L-44.3 -16.8 -45.15 -19.8 -45.15 -21.7 -44.75 -21.8 Q-44.45 -21.8 -43.95 -20.1 -43.45 -18.4 -41.7 -18.4 -41.35 -18.4 -41.15 -19.3 -41.0 -20.25 -40.4 -20.25 L-39.6 -20.05 -38.55 -20.05 -37.4 -21.0 Q-38.9 -21.55 -39.45 -22.45 L-39.9 -24.0 Q-40.05 -24.8 -40.5 -24.9 L-41.5 -25.3 Q-41.95 -25.65 -42.4 -26.75 L-42.4 -28.0 -41.95 -28.1 Q-41.5 -28.1 -41.15 -27.5 L-40.75 -26.8 -39.65 -26.8 -39.45 -26.9 -40.1 -28.0 -40.25 -29.0 -40.15 -29.65 Q-39.9 -30.1 -39.0 -30.05 L-38.75 -30.7 -39.2 -31.55 -39.65 -32.6 -39.5 -34.4 Q-42.65 -36.9 -42.65 -37.35 -42.65 -37.9 -42.15 -38.1 L-41.0 -38.1 -40.6 -37.65 -39.9 -37.1 Q-38.55 -36.5 -38.3 -36.15 L-38.1 -35.15 -37.65 -34.2 -36.05 -33.2 -34.95 -32.25 -34.95 -31.25 Q-34.85 -30.7 -33.65 -30.5 L-30.4 -30.55 -31.15 -31.75 -31.65 -32.8 Q-31.65 -33.25 -30.65 -33.8 -29.7 -34.35 -29.7 -35.0 -29.7 -36.1 -31.95 -39.65 L-32.05 -40.85 Q-32.05 -41.5 -33.0 -41.85 -34.95 -42.55 -35.25 -42.8 L-35.4 -43.8 Q-35.4 -45.05 -34.5 -44.85 -32.45 -44.05 -30.3 -43.65 -28.6 -43.15 -28.15 -42.2 L-27.95 -40.6 Q-25.6 -40.0 -24.2 -37.4 -22.85 -35.0 -22.1 -35.0 L-21.8 -35.2 -21.5 -35.5 -19.65 -35.5 -17.4 -34.1 Q-16.7 -33.55 -16.7 -32.95 -16.7 -32.15 -17.6 -32.15 L-18.45 -32.35 -18.8 -32.05 -18.4 -31.25 -17.8 -30.55 -16.55 -30.55 Q-15.1 -30.9 -14.85 -31.9 L-14.55 -33.75 -12.55 -35.85 Q-11.1 -37.0 -10.45 -37.0 -9.65 -37.0 -9.5 -36.5 L-9.5 -35.9 -9.75 -34.7 -8.55 -34.3 -7.65 -34.3 Q-4.65 -36.3 -4.65 -36.85 -4.65 -37.3 -5.65 -38.0 -6.65 -38.7 -6.65 -39.8 L-6.3 -40.5 Q-5.9 -41.0 -5.45 -41.0 L-4.2 -40.15 -3.15 -39.05 -2.65 -37.8 Q-2.25 -36.9 -1.55 -36.9 -1.1 -36.9 -0.1 -37.7 L1.25 -38.85 2.0 -38.85 2.95 -38.2 3.0 -37.4 M-25.05 -22.1 Q-25.05 -21.65 -24.45 -20.75 L-24.65 -21.45 -25.05 -22.15 -25.05 -22.1" fill="url(#gradient1)" fill-rule="evenodd" stroke="none"/>
    <path d="M17.75 -35.45 L17.85 -35.45 18.2 -34.8 Q18.2 -33.6 16.75 -33.55 L16.6 -33.55 15.65 -33.8 16.35 -34.5 16.95 -34.8 17.2 -35.05 16.65 -35.2 17.7 -35.5 17.75 -35.55 17.75 -35.45" fill="url(#gradient2)" fill-rule="evenodd" stroke="none"/>
    <path d="M-37.45 -54.05 L-37.95 -54.9 -37.85 -55.3 -37.25 -55.5 -38.05 -55.65 -38.15 -55.85 Q-38.15 -57.0 -36.15 -55.1 -34.2 -53.15 -34.2 -52.1 L-34.4 -51.8 Q-36.25 -52.0 -36.55 -52.4 L-36.9 -53.35 -37.45 -54.05" fill="url(#gradient3)" fill-rule="evenodd" stroke="none"/>
    <path d="M-44.6 -45.0 Q-44.15 -45.5 -42.7 -44.25 -42.85 -44.25 -42.95 -44.4 -42.8 -43.65 -43.25 -43.05 -44.85 -43.4 -44.85 -43.85 L-44.6 -45.0" fill="url(#gradient4)" fill-rule="evenodd" stroke="none"/>
    <path d="M-46.95 -25.9 L-47.15 -26.0 -46.6 -26.2 Q-46.1 -26.6 -46.1 -25.85 L-46.05 -25.5 Q-46.05 -24.55 -46.4 -24.2 L-46.65 -24.2 -47.0 -24.15 -47.6 -24.2 -47.6 -24.85 -47.35 -25.45 -47.35 -25.8 -47.15 -25.85 -47.05 -25.8 -46.95 -25.9" fill="url(#gradient5)" fill-rule="evenodd" stroke="none"/>
    <path d="M25.3 -43.45 L25.45 -43.5 24.9 -43.65 25.3 -43.45 M24.5 -40.6 L24.45 -40.9 Q24.45 -41.45 25.25 -42.3 24.5 -42.15 24.0 -42.65 23.65 -43.0 23.65 -43.3 23.65 -43.85 24.5 -43.9 L26.05 -44.05 26.55 -42.7 Q25.75 -40.3 24.95 -40.3 24.6 -40.3 24.5 -40.6" fill="url(#gradient6)" fill-rule="evenodd" stroke="none"/>
    <path d="M21.55 -31.15 L21.5 -30.95 21.4 -30.85 20.95 -30.85 20.85 -31.1 Q20.85 -31.5 21.5 -31.4 L21.55 -31.15" fill="url(#gradient7)" fill-rule="evenodd" stroke="none"/>
    <path d="M18.6 -27.9 Q18.6 -26.85 18.25 -26.45 L17.85 -27.05 17.85 -27.85 Q17.85 -28.75 18.25 -28.75 18.6 -28.75 18.6 -27.9" fill="url(#gradient8)" fill-rule="evenodd" stroke="none"/>
    <path d="M8.4 -16.8 L10.05 -17.0 Q10.45 -16.9 10.45 -16.35 L10.45 -16.1 10.2 -16.2 9.65 -16.05 9.9 -16.4 9.9 -16.45 9.15 -16.45 8.15 -16.1 8.4 -16.8" fill="url(#gradient9)" fill-rule="evenodd" stroke="none"/>
    <path d="M16.05 -26.7 Q16.5 -26.6 16.5 -26.05 16.5 -25.05 14.3 -24.25 L11.35 -23.2 Q10.95 -22.95 10.7 -22.25 L10.15 -21.2 9.2 -20.9 8.2 -20.75 6.75 -19.95 Q6.95 -20.9 8.0 -21.15 L9.7 -21.5 10.45 -22.3 11.05 -23.2 13.9 -24.35 Q16.05 -25.15 16.05 -26.1 L15.85 -26.55 16.05 -26.7" fill="url(#gradient10)" fill-rule="evenodd" stroke="none"/>
    <path d="M3.9 -18.7 L1.95 -16.75 Q-0.15 -14.65 -0.5 -13.3 L-0.7 -13.15 -0.95 -13.5 -2.75 -12.65 -3.4 -12.65 -3.5 -12.75 Q-0.85 -14.95 -0.2 -16.1 L0.9 -17.8 Q1.95 -18.95 3.85 -19.1 L3.9 -18.7 M1.15 -16.9 L2.8 -18.3 Q2.4 -18.2 1.9 -17.75 L1.15 -17.0 1.15 -16.9" fill="url(#gradient11)" fill-rule="evenodd" stroke="none"/>
    <path d="M2.2 -47.65 L1.9 -46.6 Q1.65 -46.15 1.85 -45.45 L1.7 -45.45 1.55 -45.55 0.95 -45.3 Q0.0 -45.3 -0.3 -45.9 L-0.4 -46.5 -0.35 -47.3 Q-0.15 -47.85 0.55 -47.9 L0.4 -48.55 Q0.4 -49.8 1.3 -49.35 2.2 -48.85 2.2 -47.65" fill="url(#gradient12)" fill-rule="evenodd" stroke="none"/>
    <path d="M2.9 -41.1 L3.9 -39.85 5.65 -38.5 5.9 -37.45 5.65 -35.1 Q5.65 -32.6 8.0 -31.35 L7.5 -32.5 7.65 -32.75 8.8 -31.0 8.75 -30.85 8.35 -30.75 Q6.3 -30.75 5.45 -33.1 5.05 -34.25 5.0 -35.5 L5.2 -37.6 Q2.6 -40.95 1.05 -41.7 L1.15 -41.85 Q2.25 -41.9 2.9 -41.1" fill="url(#gradient13)" fill-rule="evenodd" stroke="none"/>
    <path d="M-31.55 -53.25 L-31.8 -52.6 -32.1 -52.1 -31.9 -51.55 -32.1 -51.15 -32.35 -50.9 Q-32.9 -50.9 -33.8 -52.5 L-34.3 -52.85 -34.8 -53.15 -34.9 -53.9 Q-34.9 -56.7 -32.55 -55.25 -30.25 -53.85 -30.25 -52.7 -30.25 -52.1 -30.75 -51.6 L-31.0 -51.6 -31.05 -51.8 -30.85 -52.05 -30.7 -52.35 -30.9 -52.9 Q-31.2 -53.3 -31.55 -53.25" fill="url(#gradient14)" fill-rule="evenodd" stroke="none"/>
    <path d="M-40.25 -58.4 L-41.25 -57.65 -41.5 -57.7 -41.45 -59.3 Q-41.05 -60.25 -40.5 -59.9 -40.0 -59.6 -40.0 -59.05 -40.0 -58.5 -40.25 -58.4" fill="url(#gradient15)" fill-rule="evenodd" stroke="none"/>
    <path d="M-52.75 -57.4 Q-52.75 -58.85 -51.7 -57.95 L-50.7 -56.75 -51.15 -56.2 -50.8 -55.55 Q-50.55 -55.2 -50.6 -54.9 L-50.6 -54.75 Q-51.45 -55.25 -52.1 -56.0 -52.75 -56.8 -52.75 -57.4" fill="url(#gradient16)" fill-rule="evenodd" stroke="none"/>
    <path d="M-53.35 -51.8 L-53.55 -50.75 -53.2 -50.0 -52.9 -49.3 Q-52.9 -48.85 -53.4 -48.85 -54.55 -48.85 -54.55 -50.8 L-54.45 -51.7 Q-54.25 -52.3 -53.4 -52.15 L-53.35 -51.8" fill="url(#gradient17)" fill-rule="evenodd" stroke="none"/>
    <path d="M-49.25 -45.5 L-49.15 -44.65 -48.7 -44.0 -48.7 -44.55 -49.25 -45.5 M-50.4 -44.95 L-50.1 -46.35 Q-49.7 -47.1 -48.65 -46.1 -48.2 -45.7 -48.2 -43.55 -46.4 -42.55 -46.3 -41.35 L-46.25 -39.15 Q-46.85 -39.4 -47.15 -40.35 -47.5 -41.4 -48.3 -42.0 L-50.25 -43.6 -50.4 -44.95" fill="url(#gradient18)" fill-rule="evenodd" stroke="none"/>
    <path d="M-42.55 -32.8 L-42.15 -31.7 -42.0 -31.75 -42.1 -32.35 Q-42.25 -32.75 -42.55 -32.8 M-41.45 -32.85 Q-41.45 -31.75 -41.7 -30.6 -41.95 -29.65 -41.85 -28.15 L-42.0 -28.1 -43.4 -33.35 Q-43.4 -34.95 -41.45 -32.85" fill="url(#gradient19)" fill-rule="evenodd" stroke="none"/>
    <path d="M-43.3 -35.5 L-43.5 -35.45 Q-44.45 -35.7 -44.7 -36.0 -44.9 -36.2 -44.9 -36.75 -44.9 -38.05 -44.05 -37.45 -43.25 -36.85 -43.25 -36.0 L-43.3 -35.5 M-44.05 -36.65 L-44.1 -36.05 -43.7 -36.1 -44.05 -36.7 -44.05 -36.65" fill="url(#gradient20)" fill-rule="evenodd" stroke="none"/>
    <path d="M-40.6 -44.65 Q-40.45 -45.05 -39.8 -44.35 L-39.75 -44.3 -39.1 -44.6 Q-38.2 -44.6 -38.2 -44.1 L-38.3 -43.4 -38.45 -43.25 -38.7 -43.95 -39.6 -43.3 -40.15 -42.5 -40.65 -43.7 -40.6 -44.65" fill="url(#gradient21)" fill-rule="evenodd" stroke="none"/>
    <path d="M-56.3 -39.5 Q-56.3 -39.95 -55.9 -40.3 L-55.65 -39.65 -55.8 -38.35 Q-56.3 -38.65 -56.3 -39.5" fill="url(#gradient22)" fill-rule="evenodd" stroke="none"/>
    <path d="M-53.15 -33.3 L-54.0 -33.85 -54.4 -34.65 -54.3 -34.75 Q-54.15 -34.75 -53.6 -34.35 L-53.0 -33.75 -53.15 -33.3" fill="url(#gradient23)" fill-rule="evenodd" stroke="none"/>
    <path d="M-56.3 -41.4 L-56.35 -41.55 Q-56.35 -42.9 -55.3 -42.9 L-54.85 -42.85 -54.8 -42.55 -55.35 -42.0 -56.25 -41.45 -56.3 -41.4" fill="url(#gradient24)" fill-rule="evenodd" stroke="none"/>
    <path d="M-69.25 -22.65 Q-69.2 -23.2 -68.8 -23.2 -68.05 -23.2 -67.6 -22.8 L-66.3 -22.0 -68.25 -23.85 Q-70.0 -25.7 -70.0 -26.35 -70.0 -27.8 -66.2 -25.8 -62.45 -23.8 -62.45 -23.1 L-62.6 -22.8 -62.95 -22.6 Q-63.95 -22.6 -66.4 -24.55 L-66.6 -24.6 -65.35 -23.3 Q-64.4 -22.2 -64.4 -21.75 -64.4 -20.75 -65.15 -20.75 L-66.95 -21.15 -68.05 -21.85 Q-67.45 -21.2 -67.45 -20.35 -67.45 -19.5 -68.05 -19.5 -68.3 -19.5 -68.9 -20.05 L-68.4 -20.35 -68.45 -20.55 -68.4 -20.55 -68.15 -20.8 -68.05 -21.1 -69.25 -22.65" fill="url(#gradient25)" fill-rule="evenodd" stroke="none"/>
    <path d="M-78.1 -32.6 L-78.0 -32.7 -76.15 -30.4 Q-74.85 -28.85 -73.55 -28.25 L-73.9 -28.75 -74.1 -29.3 Q-74.1 -29.75 -73.7 -29.75 -72.35 -29.4 -72.35 -29.15 -72.35 -28.85 -72.9 -28.85 L-72.4 -28.15 -72.15 -27.5 Q-72.15 -27.05 -72.5 -27.05 L-73.85 -27.95 Q-75.3 -29.0 -75.8 -29.75 L-77.05 -31.2 -78.1 -32.6" fill="url(#gradient26)" fill-rule="evenodd" stroke="none"/>
    <path d="M-78.25 -31.45 L-76.45 -28.65 -76.45 -28.6 -78.45 -31.4 -78.25 -31.45" fill="url(#gradient27)" fill-rule="evenodd" stroke="none"/>
    <path d="M-64.35 -18.9 L-62.2 -17.45 -61.95 -17.4 Q-62.55 -18.0 -62.55 -18.3 L-62.3 -18.65 -61.95 -19.15 Q-62.05 -19.8 -61.55 -19.95 L-60.2 -19.7 -59.15 -18.8 -60.45 -18.6 Q-60.85 -18.6 -61.2 -18.95 L-62.05 -18.05 -60.75 -17.25 Q-60.2 -16.95 -60.2 -16.4 -60.2 -15.9 -60.9 -15.9 -62.55 -15.9 -64.65 -18.45 L-64.55 -18.8 -64.35 -18.9" fill="url(#gradient28)" fill-rule="evenodd" stroke="none"/>
    <path d="M-47.7 -12.9 L-46.8 -12.2 -47.4 -13.5 -47.35 -14.45 -49.7 -16.45 Q-52.1 -18.25 -52.1 -19.25 L-52.05 -19.85 Q-51.8 -20.2 -50.6 -20.2 -49.8 -20.2 -46.8 -18.05 L-42.6 -15.05 -42.7 -14.75 -43.1 -14.65 Q-44.55 -14.65 -46.95 -16.55 L-50.0 -19.35 -51.2 -19.3 -47.2 -15.8 Q-43.4 -12.35 -43.4 -11.35 -43.4 -10.85 -43.8 -10.85 -44.35 -10.85 -45.1 -11.7 L-46.05 -12.9 -46.1 -12.85 -45.5 -11.95 -45.35 -11.3 Q-45.35 -10.65 -45.9 -10.55 L-44.8 -9.25 -44.8 -9.2 Q-45.75 -9.0 -47.65 -10.7 -49.5 -12.35 -49.5 -13.0 -49.5 -13.6 -49.0 -13.6 L-47.7 -12.9" fill="url(#gradient29)" fill-rule="evenodd" stroke="none"/>
    <path d="M-21.0 -5.85 L-20.05 -5.0 Q-20.05 -4.7 -20.3 -4.7 L-20.95 -4.9 -20.95 -4.95 -20.95 -5.5 -21.0 -5.85 M-21.85 -5.4 L-26.45 -8.15 Q-28.05 -9.0 -29.0 -10.0 -29.9 -11.0 -29.9 -11.8 -29.9 -12.6 -29.3 -12.55 -28.65 -12.5 -27.85 -11.5 L-25.8 -9.35 Q-25.35 -8.85 -22.95 -7.25 L-22.2 -6.7 -21.85 -6.0 -21.85 -5.4 M-29.25 -11.7 Q-29.0 -10.3 -27.45 -9.5 L-29.25 -11.7" fill="url(#gradient30)" fill-rule="evenodd" stroke="none"/>
    <path d="M-22.2 -6.7 L-22.5 -7.35 Q-20.9 -8.85 -19.9 -8.0 L-18.4 -6.9 Q-17.5 -6.25 -17.5 -5.7 -17.5 -5.2 -18.25 -5.2 L-19.25 -5.85 -20.4 -6.85 -21.15 -6.5 -21.0 -5.85 -20.95 -5.5 -20.95 -4.95 -20.95 -4.9 Q-21.0 -4.55 -21.35 -4.55 -21.85 -4.55 -21.85 -5.2 L-21.85 -5.4 -21.85 -6.0 -22.2 -6.7" fill="url(#gradient31)" fill-rule="evenodd" stroke="none"/>
    <path d="M-9.0 -6.1 L-10.05 -5.45 Q-10.45 -5.45 -10.65 -6.15 -8.0 -8.25 -8.0 -6.95 L-9.0 -6.1" fill="url(#gradient32)" fill-rule="evenodd" stroke="none"/>
    <path d="M10.45 -16.1 L10.55 -15.85 Q10.55 -15.45 9.05 -14.0 7.4 -12.4 6.35 -12.4 L5.95 -12.45 5.9 -12.75 Q5.9 -13.15 8.75 -15.1 L8.8 -15.15 8.0 -15.35 7.65 -15.55 Q5.7 -13.85 4.55 -13.4 5.2 -14.7 6.65 -15.85 L7.75 -17.3 Q8.4 -18.15 8.4 -16.85 L8.4 -16.8 8.15 -16.1 7.85 -15.8 8.1 -15.75 9.65 -16.05 10.2 -16.2 10.45 -16.1" fill="url(#gradient33)" fill-rule="evenodd" stroke="none"/>
    <path d="M-61.45 -23.55 L-57.5 -21.85 Q-57.2 -22.2 -56.9 -22.2 -56.5 -22.2 -56.3 -21.4 L-56.15 -20.6 Q-56.15 -20.2 -56.25 -20.15 L-57.0 -20.05 -57.8 -20.3 -57.75 -20.05 Q-57.75 -19.4 -58.5 -19.4 -59.05 -19.4 -59.5 -19.85 L-60.05 -20.4 -60.3 -20.1 -62.2 -22.85 Q-62.2 -23.55 -61.45 -23.55" fill="url(#gradient34)" fill-rule="evenodd" stroke="none"/>
    <path d="M-65.6 -18.6 L-64.95 -17.65 -64.3 -16.65 -64.55 -16.5 Q-66.05 -16.5 -66.7 -19.1 -66.7 -19.95 -65.85 -20.05 -65.05 -20.15 -65.05 -19.15 -65.05 -18.55 -65.6 -18.6" fill="url(#gradient35)" fill-rule="evenodd" stroke="none"/>
    <path d="M-84.55 -31.2 Q-82.15 -29.8 -78.85 -27.25 L-73.65 -23.15 -73.6 -22.95 -74.1 -22.65 Q-74.8 -22.65 -77.0 -24.45 L-79.9 -26.95 -84.6 -31.2 -84.55 -31.2" fill="url(#gradient36)" fill-rule="evenodd" stroke="none"/>
    <path d="M-68.45 -20.55 L-71.2 -22.75 -72.4 -23.9 -72.85 -24.95 Q-72.85 -26.8 -70.45 -24.15 L-69.25 -22.65 -68.05 -21.1 -68.15 -20.8 -68.4 -20.55 -68.45 -20.55" fill="url(#gradient37)" fill-rule="evenodd" stroke="none"/>
    <path d="M-18.0 -61.2 Q-11.75 -60.6 -6.8 -57.4 -3.65 -55.3 -0.15 -51.35 L-0.15 -51.15 Q0.0 -51.0 -0.35 -51.0 L-3.3 -53.5 -7.65 -57.0 Q-8.6 -57.6 -12.8 -59.2 L-18.05 -61.1 -18.0 -61.2" fill="url(#gradient38)" fill-rule="evenodd" stroke="none"/>
    <path d="M-23.0 -64.1 L-22.95 -63.9 Q-23.05 -63.65 -23.3 -63.65 L-25.2 -63.9 -30.9 -63.9 -35.25 -64.4 -25.7 -64.8 -23.0 -64.1" fill="url(#gradient39)" fill-rule="evenodd" stroke="none"/>
  </g>
  <defs>
    <radialGradient cx="0" cy="0" gradientTransform="matrix(0.0021, 0.0, 0.0, 0.0021, 3.3, -46.55)" gradientUnits="userSpaceOnUse" id="gradient0" r="819.2" spreadMethod="pad">
      <stop offset="0.0" stop-color="#ffffff"/>
      <stop offset="0.3803921568627451" stop-color="#f0d66c"/>
      <stop offset="0.7450980392156863" stop-color="#945b21" stop-opacity="0.5803922"/>
      <stop offset="1.0" stop-color="#26372b" stop-opacity="0.18039216"/>
    </radialGradient>
    <radialGradient cx="0" cy="0" gradientTransform="matrix(0.0406, 0.0, 0.0, 0.0406, -15.05, -24.95)" gradientUnits="userSpaceOnUse" id="gradient1" r="819.2" spreadMethod="pad">
      <stop offset="0.0" stop-color="#ffffff"/>
      <stop offset="0.3803921568627451" stop-color="#f0d66c"/>
      <stop offset="0.7450980392156863" stop-color="#945b21" stop-opacity="0.5803922"/>
      <stop offset="1.0" stop-color="#26372b" stop-opacity="0.18039216"/>
    </radialGradient>
    <radialGradient cx="0" cy="0" gradientTransform="matrix(0.0024, 0.0, 0.0, 0.0024, 16.95, -34.55)" gradientUnits="userSpaceOnUse" id="gradient2" r="819.2" spreadMethod="pad">
      <stop offset="0.0" stop-color="#ffffff"/>
      <stop offset="0.3803921568627451" stop-color="#f0d66c"/>
      <stop offset="0.7450980392156863" stop-color="#945b21" stop-opacity="0.5803922"/>
      <stop offset="1.0" stop-color="#26372b" stop-opacity="0.18039216"/>
    </radialGradient>
    <radialGradient cx="0" cy="0" gradientTransform="matrix(0.0038, 0.0, 0.0, 0.0038, -36.15, -54.05)" gradientUnits="userSpaceOnUse" id="gradient3" r="819.2" spreadMethod="pad">
      <stop offset="0.0" stop-color="#ffffff"/>
      <stop offset="0.3803921568627451" stop-color="#f0d66c"/>
      <stop offset="0.7450980392156863" stop-color="#945b21" stop-opacity="0.5803922"/>
      <stop offset="1.0" stop-color="#26372b" stop-opacity="0.18039216"/>
    </radialGradient>
    <radialGradient cx="0" cy="0" gradientTransform="matrix(0.0024, 0.0, 0.0, 0.0024, -43.75, -44.1)" gradientUnits="userSpaceOnUse" id="gradient4" r="819.2" spreadMethod="pad">
      <stop offset="0.0" stop-color="#ffffff"/>
      <stop offset="0.3803921568627451" stop-color="#f0d66c"/>
      <stop offset="0.7450980392156863" stop-color="#945b21" stop-opacity="0.5803922"/>
      <stop offset="1.0" stop-color="#26372b" stop-opacity="0.18039216"/>
    </radialGradient>
    <radialGradient cx="0" cy="0" gradientTransform="matrix(0.0023, 0.0, 0.0, 0.0023, -46.85, -25.25)" gradientUnits="userSpaceOnUse" id="gradient5" r="819.2" spreadMethod="pad">
      <stop offset="0.0" stop-color="#ffffff"/>
      <stop offset="0.3803921568627451" stop-color="#f0d66c"/>
      <stop offset="0.7450980392156863" stop-color="#945b21" stop-opacity="0.5803922"/>
      <stop offset="1.0" stop-color="#26372b" stop-opacity="0.18039216"/>
    </radialGradient>
    <radialGradient cx="0" cy="0" gradientTransform="matrix(0.0033, 0.0, 0.0, 0.0033, 25.1, -42.15)" gradientUnits="userSpaceOnUse" id="gradient6" r="819.2" spreadMethod="pad">
      <stop offset="0.0" stop-color="#ffffff"/>
      <stop offset="0.3803921568627451" stop-color="#f0d66c"/>
      <stop offset="0.7450980392156863" stop-color="#945b21" stop-opacity="0.5803922"/>
      <stop offset="1.0" stop-color="#26372b" stop-opacity="0.18039216"/>
    </radialGradient>
    <radialGradient cx="0" cy="0" gradientTransform="matrix(0.001, 0.0, 0.0, 0.001, 21.2, -31.15)" gradientUnits="userSpaceOnUse" id="gradient7" r="819.2" spreadMethod="pad">
      <stop offset="0.0" stop-color="#ffffff"/>
      <stop offset="0.3803921568627451" stop-color="#f0d66c"/>
      <stop offset="0.7450980392156863" stop-color="#945b21" stop-opacity="0.5803922"/>
      <stop offset="1.0" stop-color="#26372b" stop-opacity="0.18039216"/>
    </radialGradient>
    <radialGradient cx="0" cy="0" gradientTransform="matrix(0.0023, 0.0, 0.0, 0.0023, 18.25, -27.6)" gradientUnits="userSpaceOnUse" id="gradient8" r="819.2" spreadMethod="pad">
      <stop offset="0.0" stop-color="#ffffff"/>
      <stop offset="0.3803921568627451" stop-color="#f0d66c"/>
      <stop offset="0.7450980392156863" stop-color="#945b21" stop-opacity="0.5803922"/>
      <stop offset="1.0" stop-color="#26372b" stop-opacity="0.18039216"/>
    </radialGradient>
    <radialGradient cx="0" cy="0" gradientTransform="matrix(0.0027, 0.0, 0.0, 0.0027, 8.85, -15.85)" gradientUnits="userSpaceOnUse" id="gradient9" r="819.2" spreadMethod="pad">
      <stop offset="0.0" stop-color="#ffffff"/>
      <stop offset="0.3803921568627451" stop-color="#f0d66c"/>
      <stop offset="0.7450980392156863" stop-color="#945b21" stop-opacity="0.5803922"/>
      <stop offset="1.0" stop-color="#26372b" stop-opacity="0.18039216"/>
    </radialGradient>
    <radialGradient cx="0" cy="0" gradientTransform="matrix(0.0076, 0.0, 0.0, 0.0076, 11.65, -23.3)" gradientUnits="userSpaceOnUse" id="gradient10" r="819.2" spreadMethod="pad">
      <stop offset="0.0" stop-color="#ffffff"/>
      <stop offset="0.3803921568627451" stop-color="#f0d66c"/>
      <stop offset="0.7450980392156863" stop-color="#945b21" stop-opacity="0.5803922"/>
      <stop offset="1.0" stop-color="#26372b" stop-opacity="0.18039216"/>
    </radialGradient>
    <radialGradient cx="0" cy="0" gradientTransform="matrix(0.0062, 0.0, 0.0, 0.0062, 0.2, -15.85)" gradientUnits="userSpaceOnUse" id="gradient11" r="819.2" spreadMethod="pad">
      <stop offset="0.0" stop-color="#ffffff"/>
      <stop offset="0.3803921568627451" stop-color="#f0d66c"/>
      <stop offset="0.7450980392156863" stop-color="#945b21" stop-opacity="0.5803922"/>
      <stop offset="1.0" stop-color="#26372b" stop-opacity="0.18039216"/>
    </radialGradient>
    <radialGradient cx="0" cy="0" gradientTransform="matrix(0.0034, 0.0, 0.0, 0.0034, 0.9, -47.4)" gradientUnits="userSpaceOnUse" id="gradient12" r="819.2" spreadMethod="pad">
      <stop offset="0.0" stop-color="#ffffff"/>
      <stop offset="0.3803921568627451" stop-color="#f0d66c"/>
      <stop offset="0.7450980392156863" stop-color="#945b21" stop-opacity="0.5803922"/>
      <stop offset="1.0" stop-color="#26372b" stop-opacity="0.18039216"/>
    </radialGradient>
    <radialGradient cx="0" cy="0" gradientTransform="matrix(0.0083, 0.0, 0.0, 0.0083, 4.95, -36.3)" gradientUnits="userSpaceOnUse" id="gradient13" r="819.2" spreadMethod="pad">
      <stop offset="0.0" stop-color="#ffffff"/>
      <stop offset="0.3803921568627451" stop-color="#f0d66c"/>
      <stop offset="0.7450980392156863" stop-color="#945b21" stop-opacity="0.5803922"/>
      <stop offset="1.0" stop-color="#26372b" stop-opacity="0.18039216"/>
    </radialGradient>
    <radialGradient cx="0" cy="0" gradientTransform="matrix(0.0038, 0.0, 0.0, 0.0038, -32.55, -53.3)" gradientUnits="userSpaceOnUse" id="gradient14" r="819.2" spreadMethod="pad">
      <stop offset="0.0" stop-color="#ffffff"/>
      <stop offset="0.3803921568627451" stop-color="#f0d66c"/>
      <stop offset="0.7450980392156863" stop-color="#945b21" stop-opacity="0.5803922"/>
      <stop offset="1.0" stop-color="#26372b" stop-opacity="0.18039216"/>
    </radialGradient>
    <radialGradient cx="0" cy="0" gradientTransform="matrix(0.0016, 0.0, 0.0, 0.0016, -40.75, -58.8)" gradientUnits="userSpaceOnUse" id="gradient15" r="819.2" spreadMethod="pad">
      <stop offset="0.0" stop-color="#ffffff"/>
      <stop offset="0.3803921568627451" stop-color="#f0d66c"/>
      <stop offset="0.7450980392156863" stop-color="#945b21" stop-opacity="0.5803922"/>
      <stop offset="1.0" stop-color="#26372b" stop-opacity="0.18039216"/>
    </radialGradient>
    <radialGradient cx="0" cy="0" gradientTransform="matrix(0.0029, 0.0, 0.0, 0.0029, -51.65, -56.5)" gradientUnits="userSpaceOnUse" id="gradient16" r="819.2" spreadMethod="pad">
      <stop offset="0.0" stop-color="#ffffff"/>
      <stop offset="0.3803921568627451" stop-color="#f0d66c"/>
      <stop offset="0.7450980392156863" stop-color="#945b21" stop-opacity="0.5803922"/>
      <stop offset="1.0" stop-color="#26372b" stop-opacity="0.18039216"/>
    </radialGradient>
    <radialGradient cx="0" cy="0" gradientTransform="matrix(0.003, 0.0, 0.0, 0.003, -53.7, -50.5)" gradientUnits="userSpaceOnUse" id="gradient17" r="819.2" spreadMethod="pad">
      <stop offset="0.0" stop-color="#ffffff"/>
      <stop offset="0.3803921568627451" stop-color="#f0d66c"/>
      <stop offset="0.7450980392156863" stop-color="#945b21" stop-opacity="0.5803922"/>
      <stop offset="1.0" stop-color="#26372b" stop-opacity="0.18039216"/>
    </radialGradient>
    <radialGradient cx="0" cy="0" gradientTransform="matrix(0.0054, 0.0, 0.0, 0.0054, -48.3, -42.9)" gradientUnits="userSpaceOnUse" id="gradient18" r="819.2" spreadMethod="pad">
      <stop offset="0.0" stop-color="#ffffff"/>
      <stop offset="0.3803921568627451" stop-color="#f0d66c"/>
      <stop offset="0.7450980392156863" stop-color="#945b21" stop-opacity="0.5803922"/>
      <stop offset="1.0" stop-color="#26372b" stop-opacity="0.18039216"/>
    </radialGradient>
    <radialGradient cx="0" cy="0" gradientTransform="matrix(0.004, 0.0, 0.0, 0.004, -42.4, -31.05)" gradientUnits="userSpaceOnUse" id="gradient19" r="819.2" spreadMethod="pad">
      <stop offset="0.0" stop-color="#ffffff"/>
      <stop offset="0.3803921568627451" stop-color="#f0d66c"/>
      <stop offset="0.7450980392156863" stop-color="#945b21" stop-opacity="0.5803922"/>
      <stop offset="1.0" stop-color="#26372b" stop-opacity="0.18039216"/>
    </radialGradient>
    <radialGradient cx="0" cy="0" gradientTransform="matrix(0.002, 0.0, 0.0, 0.002, -44.05, -36.55)" gradientUnits="userSpaceOnUse" id="gradient20" r="819.2" spreadMethod="pad">
      <stop offset="0.0" stop-color="#ffffff"/>
      <stop offset="0.3803921568627451" stop-color="#f0d66c"/>
      <stop offset="0.7450980392156863" stop-color="#945b21" stop-opacity="0.5803922"/>
      <stop offset="1.0" stop-color="#26372b" stop-opacity="0.18039216"/>
    </radialGradient>
    <radialGradient cx="0" cy="0" gradientTransform="matrix(0.0025, 0.0, 0.0, 0.0025, -39.4, -43.65)" gradientUnits="userSpaceOnUse" id="gradient21" r="819.2" spreadMethod="pad">
      <stop offset="0.0" stop-color="#ffffff"/>
      <stop offset="0.3803921568627451" stop-color="#f0d66c"/>
      <stop offset="0.7450980392156863" stop-color="#945b21" stop-opacity="0.5803922"/>
      <stop offset="1.0" stop-color="#26372b" stop-opacity="0.18039216"/>
    </radialGradient>
    <radialGradient cx="0" cy="0" gradientTransform="matrix(0.0014, 0.0, 0.0, 0.0014, -55.95, -39.3)" gradientUnits="userSpaceOnUse" id="gradient22" r="819.2" spreadMethod="pad">
      <stop offset="0.0" stop-color="#ffffff"/>
      <stop offset="0.3803921568627451" stop-color="#f0d66c"/>
      <stop offset="0.7450980392156863" stop-color="#945b21" stop-opacity="0.5803922"/>
      <stop offset="1.0" stop-color="#26372b" stop-opacity="0.18039216"/>
    </radialGradient>
    <radialGradient cx="0" cy="0" gradientTransform="matrix(0.0018, 0.0, 0.0, 0.0018, -53.7, -34.0)" gradientUnits="userSpaceOnUse" id="gradient23" r="819.2" spreadMethod="pad">
      <stop offset="0.0" stop-color="#ffffff"/>
      <stop offset="0.3803921568627451" stop-color="#f0d66c"/>
      <stop offset="0.7450980392156863" stop-color="#945b21" stop-opacity="0.5803922"/>
      <stop offset="1.0" stop-color="#26372b" stop-opacity="0.18039216"/>
    </radialGradient>
    <radialGradient cx="0" cy="0" gradientTransform="matrix(0.0018, 0.0, 0.0, 0.0018, -55.55, -42.15)" gradientUnits="userSpaceOnUse" id="gradient24" r="819.2" spreadMethod="pad">
      <stop offset="0.0" stop-color="#ffffff"/>
      <stop offset="0.3803921568627451" stop-color="#f0d66c"/>
      <stop offset="0.7450980392156863" stop-color="#945b21" stop-opacity="0.5803922"/>
      <stop offset="1.0" stop-color="#26372b" stop-opacity="0.18039216"/>
    </radialGradient>
    <radialGradient cx="0" cy="0" gradientTransform="matrix(0.0063, 0.0, 0.0, 0.0063, -66.2, -23.25)" gradientUnits="userSpaceOnUse" id="gradient25" r="819.2" spreadMethod="pad">
      <stop offset="0.0" stop-color="#ffffff"/>
      <stop offset="0.3803921568627451" stop-color="#f0d66c"/>
      <stop offset="0.7450980392156863" stop-color="#945b21" stop-opacity="0.5803922"/>
      <stop offset="1.0" stop-color="#26372b" stop-opacity="0.18039216"/>
    </radialGradient>
    <radialGradient cx="0" cy="0" gradientTransform="matrix(0.0054, 0.0, 0.0, 0.0054, -75.1, -29.9)" gradientUnits="userSpaceOnUse" id="gradient26" r="819.2" spreadMethod="pad">
      <stop offset="0.0" stop-color="#ffffff"/>
      <stop offset="0.3803921568627451" stop-color="#f0d66c"/>
      <stop offset="0.7450980392156863" stop-color="#945b21" stop-opacity="0.5803922"/>
      <stop offset="1.0" stop-color="#26372b" stop-opacity="0.18039216"/>
    </radialGradient>
    <radialGradient cx="0" cy="0" gradientTransform="matrix(0.0029, 0.0, 0.0, 0.0029, -77.45, -30.0)" gradientUnits="userSpaceOnUse" id="gradient27" r="819.2" spreadMethod="pad">
      <stop offset="0.0" stop-color="#ffffff"/>
      <stop offset="0.3803921568627451" stop-color="#f0d66c"/>
      <stop offset="0.7450980392156863" stop-color="#945b21" stop-opacity="0.5803922"/>
      <stop offset="1.0" stop-color="#26372b" stop-opacity="0.18039216"/>
    </radialGradient>
    <radialGradient cx="0" cy="0" gradientTransform="matrix(0.0039, 0.0, 0.0, 0.0039, -61.9, -17.95)" gradientUnits="userSpaceOnUse" id="gradient28" r="819.2" spreadMethod="pad">
      <stop offset="0.0" stop-color="#ffffff"/>
      <stop offset="0.3803921568627451" stop-color="#f0d66c"/>
      <stop offset="0.7450980392156863" stop-color="#945b21" stop-opacity="0.5803922"/>
      <stop offset="1.0" stop-color="#26372b" stop-opacity="0.18039216"/>
    </radialGradient>
    <radialGradient cx="0" cy="0" gradientTransform="matrix(0.0089, 0.0, 0.0, 0.0089, -47.35, -14.7)" gradientUnits="userSpaceOnUse" id="gradient29" r="819.2" spreadMethod="pad">
      <stop offset="0.0" stop-color="#ffffff"/>
      <stop offset="0.3803921568627451" stop-color="#f0d66c"/>
      <stop offset="0.7450980392156863" stop-color="#945b21" stop-opacity="0.5803922"/>
      <stop offset="1.0" stop-color="#26372b" stop-opacity="0.18039216"/>
    </radialGradient>
    <radialGradient cx="0" cy="0" gradientTransform="matrix(0.0079, 0.0, 0.0, 0.0079, -24.95, -8.65)" gradientUnits="userSpaceOnUse" id="gradient30" r="819.2" spreadMethod="pad">
      <stop offset="0.0" stop-color="#ffffff"/>
      <stop offset="0.3803921568627451" stop-color="#f0d66c"/>
      <stop offset="0.7450980392156863" stop-color="#945b21" stop-opacity="0.5803922"/>
      <stop offset="1.0" stop-color="#26372b" stop-opacity="0.18039216"/>
    </radialGradient>
    <radialGradient cx="0" cy="0" gradientTransform="matrix(0.0037, 0.0, 0.0, 0.0037, -20.0, -6.45)" gradientUnits="userSpaceOnUse" id="gradient31" r="819.2" spreadMethod="pad">
      <stop offset="0.0" stop-color="#ffffff"/>
      <stop offset="0.3803921568627451" stop-color="#f0d66c"/>
      <stop offset="0.7450980392156863" stop-color="#945b21" stop-opacity="0.5803922"/>
      <stop offset="1.0" stop-color="#26372b" stop-opacity="0.18039216"/>
    </radialGradient>
    <radialGradient cx="0" cy="0" gradientTransform="matrix(0.0023, 0.0, 0.0, 0.0023, -9.3, -6.45)" gradientUnits="userSpaceOnUse" id="gradient32" r="819.2" spreadMethod="pad">
      <stop offset="0.0" stop-color="#ffffff"/>
      <stop offset="0.3803921568627451" stop-color="#f0d66c"/>
      <stop offset="0.7450980392156863" stop-color="#945b21" stop-opacity="0.5803922"/>
      <stop offset="1.0" stop-color="#26372b" stop-opacity="0.18039216"/>
    </radialGradient>
    <radialGradient cx="0" cy="0" gradientTransform="matrix(0.0043, 0.0, 0.0, 0.0043, 7.55, -15.0)" gradientUnits="userSpaceOnUse" id="gradient33" r="819.2" spreadMethod="pad">
      <stop offset="0.0" stop-color="#ffffff"/>
      <stop offset="0.3803921568627451" stop-color="#f0d66c"/>
      <stop offset="0.7450980392156863" stop-color="#945b21" stop-opacity="0.5803922"/>
      <stop offset="1.0" stop-color="#26372b" stop-opacity="0.18039216"/>
    </radialGradient>
    <radialGradient cx="0" cy="0" gradientTransform="matrix(0.0051, 0.0, 0.0, 0.0051, -59.15, -21.45)" gradientUnits="userSpaceOnUse" id="gradient34" r="819.2" spreadMethod="pad">
      <stop offset="0.0" stop-color="#ffffff"/>
      <stop offset="0.3803921568627451" stop-color="#f0d66c"/>
      <stop offset="0.7450980392156863" stop-color="#945b21" stop-opacity="0.5803922"/>
      <stop offset="1.0" stop-color="#26372b" stop-opacity="0.18039216"/>
    </radialGradient>
    <radialGradient cx="0" cy="0" gradientTransform="matrix(0.0032, 0.0, 0.0, 0.0032, -65.5, -18.3)" gradientUnits="userSpaceOnUse" id="gradient35" r="819.2" spreadMethod="pad">
      <stop offset="0.0" stop-color="#ffffff"/>
      <stop offset="0.3803921568627451" stop-color="#f0d66c"/>
      <stop offset="0.7450980392156863" stop-color="#945b21" stop-opacity="0.5803922"/>
      <stop offset="1.0" stop-color="#26372b" stop-opacity="0.18039216"/>
    </radialGradient>
    <radialGradient cx="0" cy="0" gradientTransform="matrix(0.0089, 0.0, 0.0, 0.0089, -79.1, -26.9)" gradientUnits="userSpaceOnUse" id="gradient36" r="819.2" spreadMethod="pad">
      <stop offset="0.0" stop-color="#ffffff"/>
      <stop offset="0.3803921568627451" stop-color="#f0d66c"/>
      <stop offset="0.7450980392156863" stop-color="#945b21" stop-opacity="0.5803922"/>
      <stop offset="1.0" stop-color="#26372b" stop-opacity="0.18039216"/>
    </radialGradient>
    <radialGradient cx="0" cy="0" gradientTransform="matrix(0.0043, 0.0, 0.0, 0.0043, -70.45, -23.15)" gradientUnits="userSpaceOnUse" id="gradient37" r="819.2" spreadMethod="pad">
      <stop offset="0.0" stop-color="#ffffff"/>
      <stop offset="0.3803921568627451" stop-color="#f0d66c"/>
      <stop offset="0.7450980392156863" stop-color="#945b21" stop-opacity="0.5803922"/>
      <stop offset="1.0" stop-color="#26372b" stop-opacity="0.18039216"/>
    </radialGradient>
    <radialGradient cx="0" cy="0" gradientTransform="matrix(0.013, 0.0, 0.0, 0.013, -9.1, -56.1)" gradientUnits="userSpaceOnUse" id="gradient38" r="819.2" spreadMethod="pad">
      <stop offset="0.0" stop-color="#ffffff"/>
      <stop offset="0.3803921568627451" stop-color="#f0d66c"/>
      <stop offset="0.7450980392156863" stop-color="#945b21" stop-opacity="0.5803922"/>
      <stop offset="1.0" stop-color="#26372b" stop-opacity="0.18039216"/>
    </radialGradient>
    <radialGradient cx="0" cy="0" gradientTransform="matrix(0.0084, 0.0, 0.0, 0.0084, -29.1, -64.2)" gradientUnits="userSpaceOnUse" id="gradient39" r="819.2" spreadMethod="pad">
      <stop offset="0.0" stop-color="#ffffff"/>
      <stop offset="0.3803921568627451" stop-color="#f0d66c"/>
      <stop offset="0.7450980392156863" stop-color="#945b21" stop-opacity="0.5803922"/>
      <stop offset="1.0" stop-color="#26372b" stop-opacity="0.18039216"/>
    </radialGradient>
  </defs>
</svg>
