<?xml version="1.0" encoding="UTF-8" standalone="no"?>
<svg xmlns:ffdec="https://www.free-decompiler.com/flash" xmlns:xlink="http://www.w3.org/1999/xlink" ffdec:objectType="shape" height="61.5px" width="98.45px" xmlns="http://www.w3.org/2000/svg">
  <g transform="matrix(1.0, 0.0, 0.0, 1.0, 88.8, 68.3)">
    <path d="M2.0 -35.55 Q2.0 -35.0 1.0 -34.3 L-0.4 -33.05 -0.4 -31.75 0.15 -32.05 1.0 -32.35 1.45 -32.3 1.5 -31.95 Q1.5 -31.3 0.55 -30.65 -0.55 -29.85 -0.8 -29.05 L-1.0 -27.6 -1.25 -26.15 -1.25 -25.4 -0.25 -25.2 0.4 -25.05 Q0.8 -25.05 1.45 -25.55 2.05 -26.1 2.95 -26.1 L4.4 -25.8 4.75 -25.35 Q4.75 -24.65 1.7 -23.7 -1.85 -22.6 -3.2 -20.9 L-4.4 -17.6 Q-5.1 -15.25 -5.65 -15.25 -6.8 -15.25 -6.5 -16.7 -6.5 -19.15 -4.85 -21.9 -3.25 -24.6 -3.25 -27.1 L-3.3 -28.2 -4.0 -29.3 -5.7 -28.85 -6.1 -29.15 Q-6.4 -28.5 -7.0 -28.05 L-7.8 -27.7 -8.5 -27.55 -8.55 -27.75 Q-8.55 -28.35 -7.95 -29.55 -7.4 -30.8 -7.4 -32.0 -7.4 -33.35 -6.15 -34.75 -5.05 -35.95 -4.6 -35.95 L-4.5 -35.25 -4.75 -33.55 -4.75 -33.05 -4.25 -32.65 -1.8 -34.3 Q0.65 -36.0 1.35 -36.0 2.05 -36.0 2.0 -35.55" fill="url(#gradient0)" fill-rule="evenodd" stroke="none"/>
    <path d="M9.05 -26.35 L8.15 -26.35 8.05 -26.6 Q8.05 -27.15 8.5 -27.2 L9.65 -26.75 9.05 -26.35" fill="url(#gradient1)" fill-rule="evenodd" stroke="none"/>
    <path d="M-43.25 -36.0 L-43.3 -36.2 -42.95 -36.6 -42.2 -36.65 -42.1 -36.45 -42.45 -36.0 -43.25 -36.0" fill="url(#gradient2)" fill-rule="evenodd" stroke="none"/>
    <path d="M-41.65 -25.75 L-41.5 -25.75 Q-41.5 -26.15 -41.65 -26.4 L-41.65 -25.75 M-40.75 -27.7 L-40.8 -26.55 -40.45 -26.0 -40.65 -25.3 Q-40.85 -24.7 -41.0 -24.65 -41.65 -24.85 -41.8 -25.45 L-41.85 -26.35 -41.75 -27.1 -40.75 -27.7" fill="url(#gradient3)" fill-rule="evenodd" stroke="none"/>
    <path d="M-44.2 -22.9 Q-44.2 -22.35 -45.0 -21.95 L-45.05 -21.95 -45.1 -22.1 Q-45.1 -22.9 -44.65 -22.9 L-44.35 -23.25 -44.2 -22.9" fill="url(#gradient4)" fill-rule="evenodd" stroke="none"/>
    <path d="M-40.9 -16.0 L-40.25 -16.45 -40.2 -16.9 -40.4 -18.0 -40.65 -19.55 Q-40.65 -20.4 -40.25 -20.75 L-39.5 -20.75 -39.2 -20.8 -39.7 -23.05 -39.7 -24.15 -39.5 -24.25 Q-39.05 -24.25 -38.7 -23.55 L-38.2 -22.65 -38.15 -22.65 -37.9 -24.55 -37.7 -26.05 -37.95 -27.2 -38.2 -28.4 -38.15 -29.2 -37.1 -29.15 -36.7 -28.65 -36.15 -28.25 Q-35.6 -28.25 -35.45 -28.65 L-35.4 -29.05 -36.5 -30.2 -38.1 -32.1 -39.1 -33.6 -40.0 -35.15 -39.9 -35.75 Q-38.2 -35.65 -37.35 -34.4 L-36.05 -32.65 -34.0 -31.0 -32.65 -29.3 -30.45 -29.3 -30.4 -29.7 -30.8 -30.9 -31.25 -32.5 -31.25 -33.05 -30.7 -33.35 Q-30.05 -33.35 -29.7 -32.65 L-29.35 -31.8 -28.9 -31.8 -28.75 -33.75 Q-28.75 -36.2 -31.95 -38.9 -35.2 -41.55 -35.2 -42.4 L-35.0 -43.0 Q-33.1 -42.7 -32.2 -41.9 L-31.2 -40.6 -29.9 -39.1 -28.3 -37.8 Q-27.25 -36.95 -27.1 -35.1 -26.95 -33.15 -26.1 -32.25 L-25.1 -33.6 Q-24.7 -34.3 -24.9 -35.15 L-24.55 -35.25 Q-24.25 -35.25 -23.5 -34.4 L-22.8 -33.5 -23.95 -31.4 -23.95 -27.55 -24.25 -27.35 -25.95 -27.5 -26.7 -27.45 -26.9 -26.9 Q-26.25 -24.65 -26.25 -23.85 L-26.25 -23.2 Q-26.3 -22.75 -26.8 -22.75 L-29.1 -23.1 -32.1 -23.65 Q-33.65 -23.95 -34.2 -24.35 L-35.25 -25.3 -35.55 -25.3 Q-35.25 -24.2 -35.25 -21.0 -35.25 -18.7 -35.5 -18.1 L-36.4 -18.1 Q-36.8 -18.2 -37.9 -18.75 -37.55 -18.1 -37.5 -17.0 L-37.5 -15.25 -36.9 -13.65 -36.4 -11.9 Q-36.4 -11.5 -36.65 -11.25 L-37.55 -11.2 Q-36.55 -9.45 -36.55 -8.85 -36.55 -8.6 -37.75 -7.7 L-38.95 -6.8 Q-39.8 -6.8 -39.3 -8.95 L-39.5 -10.85 -39.75 -12.5 -39.85 -12.6 -40.3 -11.95 Q-40.65 -11.5 -41.4 -11.5 -42.5 -11.5 -43.45 -16.25 L-43.45 -18.25 -43.3 -18.3 -42.2 -17.45 -40.9 -16.0" fill="url(#gradient5)" fill-rule="evenodd" stroke="none"/>
    <path d="M-11.5 -33.8 L-11.5 -34.85 Q-11.25 -35.45 -10.75 -35.25 -10.25 -35.05 -10.25 -34.7 -10.25 -34.45 -10.65 -34.1 -11.0 -33.75 -11.1 -33.75 L-11.5 -33.8" fill="url(#gradient6)" fill-rule="evenodd" stroke="none"/>
    <path d="M-19.45 -32.8 Q-18.95 -32.85 -18.15 -31.4 L-17.5 -30.15 Q-16.8 -29.05 -15.9 -29.05 L-14.85 -29.25 -14.2 -29.5 -13.8 -29.45 -13.7 -28.15 -13.25 -28.15 Q-11.9 -29.15 -10.9 -30.55 -10.4 -31.3 -9.4 -31.3 -9.15 -31.3 -9.05 -30.9 L-9.0 -30.45 Q-9.0 -29.6 -9.95 -28.45 L-11.85 -26.15 -13.0 -23.85 Q-14.05 -22.0 -14.65 -22.0 L-15.15 -22.05 -15.25 -23.4 -15.5 -24.95 -15.8 -24.65 -16.2 -24.55 -18.2 -26.3 Q-18.7 -26.6 -18.8 -27.15 L-18.8 -28.1 -19.4 -29.95 -19.9 -31.65 Q-19.9 -32.7 -19.45 -32.8" fill="url(#gradient7)" fill-rule="evenodd" stroke="none"/>
    <path d="M-8.5 -25.55 Q-8.5 -24.95 -9.05 -24.4 -9.6 -23.8 -10.25 -23.8 -10.8 -23.8 -10.8 -24.2 -10.8 -24.9 -9.65 -25.6 L-8.5 -25.55" fill="url(#gradient8)" fill-rule="evenodd" stroke="none"/>
    <path d="M-36.9 -44.75 L-36.3 -44.15 Q-36.5 -43.75 -36.8 -43.75 L-37.3 -43.8 -37.4 -44.0 -36.9 -44.75" fill="url(#gradient9)" fill-rule="evenodd" stroke="none"/>
    <path d="M-15.2 -20.15 L-15.6 -19.25 -16.1 -18.5 -16.35 -18.5 -16.4 -18.65 -16.0 -19.6 -15.5 -20.5 -15.2 -20.15" fill="url(#gradient10)" fill-rule="evenodd" stroke="none"/>
    <path d="M-67.85 -26.3 L-67.5 -26.35 -65.8 -25.75 -65.8 -25.55 -65.8 -25.5 -65.95 -25.45 -67.4 -25.85 -67.25 -25.05 -67.05 -24.65 Q-67.55 -24.8 -67.85 -25.35 L-67.85 -26.3" fill="url(#gradient11)" fill-rule="evenodd" stroke="none"/>
    <path d="M-76.1 -29.65 L-76.2 -29.45 Q-77.15 -29.9 -77.15 -30.25 L-77.1 -30.6 Q-76.5 -30.7 -76.3 -30.25 L-76.1 -29.65" fill="url(#gradient12)" fill-rule="evenodd" stroke="none"/>
    <path d="M-46.5 -43.5 L-46.4 -43.3 Q-46.55 -43.15 -46.7 -43.15 L-46.95 -43.2 -47.0 -43.4 -46.8 -43.65 -46.5 -43.5" fill="url(#gradient13)" fill-rule="evenodd" stroke="none"/>
    <path d="M-87.3 -36.1 L-86.45 -34.4 -86.5 -34.25 -86.55 -34.15 Q-87.8 -34.85 -88.35 -36.3 -88.85 -37.45 -88.8 -38.75 L-88.7 -38.75 -87.3 -36.1" fill="url(#gradient14)" fill-rule="evenodd" stroke="none"/>
    <path d="M-74.3 -32.1 L-74.35 -31.8 -74.4 -31.65 Q-74.75 -31.75 -75.0 -32.65 L-75.25 -33.9 -74.95 -34.7 Q-74.3 -34.0 -74.3 -32.1" fill="url(#gradient15)" fill-rule="evenodd" stroke="none"/>
    <path d="M-6.3 -61.85 L-3.5 -61.05 Q-1.4 -60.4 -0.9 -59.85 L-0.95 -59.6 -1.2 -59.55 -3.9 -60.75 -6.35 -61.85 -6.3 -61.85" fill="url(#gradient16)" fill-rule="evenodd" stroke="none"/>
    <path d="M-32.1 -67.85 Q-32.55 -67.6 -33.2 -67.4 L-33.9 -67.4 Q-31.95 -68.3 -31.4 -68.3 L-31.35 -68.25 -32.1 -67.85" fill="url(#gradient17)" fill-rule="evenodd" stroke="none"/>
  </g>
  <defs>
    <radialGradient cx="0" cy="0" gradientTransform="matrix(0.0144, 0.0, 0.0, 0.0144, -1.9, -25.6)" gradientUnits="userSpaceOnUse" id="gradient0" r="819.2" spreadMethod="pad">
      <stop offset="0.0" stop-color="#ffffff"/>
      <stop offset="0.3803921568627451" stop-color="#f0d66c"/>
      <stop offset="0.7450980392156863" stop-color="#945b21" stop-opacity="0.5803922"/>
      <stop offset="1.0" stop-color="#26372b" stop-opacity="0.18039216"/>
    </radialGradient>
    <radialGradient cx="0" cy="0" gradientTransform="matrix(0.0015, 0.0, 0.0, 0.0015, 8.85, -26.8)" gradientUnits="userSpaceOnUse" id="gradient1" r="819.2" spreadMethod="pad">
      <stop offset="0.0" stop-color="#ffffff"/>
      <stop offset="0.3803921568627451" stop-color="#f0d66c"/>
      <stop offset="0.7450980392156863" stop-color="#945b21" stop-opacity="0.5803922"/>
      <stop offset="1.0" stop-color="#26372b" stop-opacity="0.18039216"/>
    </radialGradient>
    <radialGradient cx="0" cy="0" gradientTransform="matrix(0.001, 0.0, 0.0, 0.001, -42.7, -36.35)" gradientUnits="userSpaceOnUse" id="gradient2" r="819.2" spreadMethod="pad">
      <stop offset="0.0" stop-color="#ffffff"/>
      <stop offset="0.3803921568627451" stop-color="#f0d66c"/>
      <stop offset="0.7450980392156863" stop-color="#945b21" stop-opacity="0.5803922"/>
      <stop offset="1.0" stop-color="#26372b" stop-opacity="0.18039216"/>
    </radialGradient>
    <radialGradient cx="0" cy="0" gradientTransform="matrix(0.0025, 0.0, 0.0, 0.0025, -41.15, -26.15)" gradientUnits="userSpaceOnUse" id="gradient3" r="819.2" spreadMethod="pad">
      <stop offset="0.0" stop-color="#ffffff"/>
      <stop offset="0.3803921568627451" stop-color="#f0d66c"/>
      <stop offset="0.7450980392156863" stop-color="#945b21" stop-opacity="0.5803922"/>
      <stop offset="1.0" stop-color="#26372b" stop-opacity="0.18039216"/>
    </radialGradient>
    <radialGradient cx="0" cy="0" gradientTransform="matrix(0.0011, 0.0, 0.0, 0.0011, -44.65, -22.6)" gradientUnits="userSpaceOnUse" id="gradient4" r="819.2" spreadMethod="pad">
      <stop offset="0.0" stop-color="#ffffff"/>
      <stop offset="0.3803921568627451" stop-color="#f0d66c"/>
      <stop offset="0.7450980392156863" stop-color="#945b21" stop-opacity="0.5803922"/>
      <stop offset="1.0" stop-color="#26372b" stop-opacity="0.18039216"/>
    </radialGradient>
    <radialGradient cx="0" cy="0" gradientTransform="matrix(0.0233, 0.0, 0.0, 0.0233, -33.15, -24.9)" gradientUnits="userSpaceOnUse" id="gradient5" r="819.2" spreadMethod="pad">
      <stop offset="0.0" stop-color="#ffffff"/>
      <stop offset="0.3803921568627451" stop-color="#f0d66c"/>
      <stop offset="0.7450980392156863" stop-color="#945b21" stop-opacity="0.5803922"/>
      <stop offset="1.0" stop-color="#26372b" stop-opacity="0.18039216"/>
    </radialGradient>
    <radialGradient cx="0" cy="0" gradientTransform="matrix(0.0015, 0.0, 0.0, 0.0015, -10.85, -34.5)" gradientUnits="userSpaceOnUse" id="gradient6" r="819.2" spreadMethod="pad">
      <stop offset="0.0" stop-color="#ffffff"/>
      <stop offset="0.3803921568627451" stop-color="#f0d66c"/>
      <stop offset="0.7450980392156863" stop-color="#945b21" stop-opacity="0.5803922"/>
      <stop offset="1.0" stop-color="#26372b" stop-opacity="0.18039216"/>
    </radialGradient>
    <radialGradient cx="0" cy="0" gradientTransform="matrix(0.0092, 0.0, 0.0, 0.0092, -14.45, -27.4)" gradientUnits="userSpaceOnUse" id="gradient7" r="819.2" spreadMethod="pad">
      <stop offset="0.0" stop-color="#ffffff"/>
      <stop offset="0.3803921568627451" stop-color="#f0d66c"/>
      <stop offset="0.7450980392156863" stop-color="#945b21" stop-opacity="0.5803922"/>
      <stop offset="1.0" stop-color="#26372b" stop-opacity="0.18039216"/>
    </radialGradient>
    <radialGradient cx="0" cy="0" gradientTransform="matrix(0.0024, 0.0, 0.0, 0.0024, -9.65, -24.85)" gradientUnits="userSpaceOnUse" id="gradient8" r="819.2" spreadMethod="pad">
      <stop offset="0.0" stop-color="#ffffff"/>
      <stop offset="0.3803921568627451" stop-color="#f0d66c"/>
      <stop offset="0.7450980392156863" stop-color="#945b21" stop-opacity="0.5803922"/>
      <stop offset="1.0" stop-color="#26372b" stop-opacity="0.18039216"/>
    </radialGradient>
    <radialGradient cx="0" cy="0" gradientTransform="matrix(0.0011, 0.0, 0.0, 0.0011, -36.85, -44.25)" gradientUnits="userSpaceOnUse" id="gradient9" r="819.2" spreadMethod="pad">
      <stop offset="0.0" stop-color="#ffffff"/>
      <stop offset="0.3803921568627451" stop-color="#f0d66c"/>
      <stop offset="0.7450980392156863" stop-color="#945b21" stop-opacity="0.5803922"/>
      <stop offset="1.0" stop-color="#26372b" stop-opacity="0.18039216"/>
    </radialGradient>
    <radialGradient cx="0" cy="0" gradientTransform="matrix(0.0021, 0.0, 0.0, 0.0021, -15.8, -19.5)" gradientUnits="userSpaceOnUse" id="gradient10" r="819.2" spreadMethod="pad">
      <stop offset="0.0" stop-color="#ffffff"/>
      <stop offset="0.3803921568627451" stop-color="#f0d66c"/>
      <stop offset="0.7450980392156863" stop-color="#945b21" stop-opacity="0.5803922"/>
      <stop offset="1.0" stop-color="#26372b" stop-opacity="0.18039216"/>
    </radialGradient>
    <radialGradient cx="0" cy="0" gradientTransform="matrix(0.0016, 0.0, 0.0, 0.0016, -66.8, -25.5)" gradientUnits="userSpaceOnUse" id="gradient11" r="819.2" spreadMethod="pad">
      <stop offset="0.0" stop-color="#ffffff"/>
      <stop offset="0.3803921568627451" stop-color="#f0d66c"/>
      <stop offset="0.7450980392156863" stop-color="#945b21" stop-opacity="0.5803922"/>
      <stop offset="1.0" stop-color="#26372b" stop-opacity="0.18039216"/>
    </radialGradient>
    <radialGradient cx="0" cy="0" gradientTransform="matrix(0.0013, 0.0, 0.0, 0.0013, -76.6, -30.05)" gradientUnits="userSpaceOnUse" id="gradient12" r="819.2" spreadMethod="pad">
      <stop offset="0.0" stop-color="#ffffff"/>
      <stop offset="0.3803921568627451" stop-color="#f0d66c"/>
      <stop offset="0.7450980392156863" stop-color="#945b21" stop-opacity="0.5803922"/>
      <stop offset="1.0" stop-color="#26372b" stop-opacity="0.18039216"/>
    </radialGradient>
    <radialGradient cx="0" cy="0" gradientTransform="matrix(7.0E-4, 0.0, 0.0, 7.0E-4, -46.7, -43.4)" gradientUnits="userSpaceOnUse" id="gradient13" r="819.2" spreadMethod="pad">
      <stop offset="0.0" stop-color="#ffffff"/>
      <stop offset="0.3803921568627451" stop-color="#f0d66c"/>
      <stop offset="0.7450980392156863" stop-color="#945b21" stop-opacity="0.5803922"/>
      <stop offset="1.0" stop-color="#26372b" stop-opacity="0.18039216"/>
    </radialGradient>
    <radialGradient cx="0" cy="0" gradientTransform="matrix(0.0034, 0.0, 0.0, 0.0034, -87.65, -36.45)" gradientUnits="userSpaceOnUse" id="gradient14" r="819.2" spreadMethod="pad">
      <stop offset="0.0" stop-color="#ffffff"/>
      <stop offset="0.3803921568627451" stop-color="#f0d66c"/>
      <stop offset="0.7450980392156863" stop-color="#945b21" stop-opacity="0.5803922"/>
      <stop offset="1.0" stop-color="#26372b" stop-opacity="0.18039216"/>
    </radialGradient>
    <radialGradient cx="0" cy="0" gradientTransform="matrix(0.0023, 0.0, 0.0, 0.0023, -74.75, -33.15)" gradientUnits="userSpaceOnUse" id="gradient15" r="819.2" spreadMethod="pad">
      <stop offset="0.0" stop-color="#ffffff"/>
      <stop offset="0.3803921568627451" stop-color="#f0d66c"/>
      <stop offset="0.7450980392156863" stop-color="#945b21" stop-opacity="0.5803922"/>
      <stop offset="1.0" stop-color="#26372b" stop-opacity="0.18039216"/>
    </radialGradient>
    <radialGradient cx="0" cy="0" gradientTransform="matrix(0.0042, 0.0, 0.0, 0.0042, -3.6, -60.7)" gradientUnits="userSpaceOnUse" id="gradient16" r="819.2" spreadMethod="pad">
      <stop offset="0.0" stop-color="#ffffff"/>
      <stop offset="0.3803921568627451" stop-color="#f0d66c"/>
      <stop offset="0.7450980392156863" stop-color="#945b21" stop-opacity="0.5803922"/>
      <stop offset="1.0" stop-color="#26372b" stop-opacity="0.18039216"/>
    </radialGradient>
    <radialGradient cx="0" cy="0" gradientTransform="matrix(0.0017, 0.0, 0.0, 0.0017, -32.6, -67.85)" gradientUnits="userSpaceOnUse" id="gradient17" r="819.2" spreadMethod="pad">
      <stop offset="0.0" stop-color="#ffffff"/>
      <stop offset="0.3803921568627451" stop-color="#f0d66c"/>
      <stop offset="0.7450980392156863" stop-color="#945b21" stop-opacity="0.5803922"/>
      <stop offset="1.0" stop-color="#26372b" stop-opacity="0.18039216"/>
    </radialGradient>
  </defs>
</svg>
