<?xml version="1.0" encoding="UTF-8" standalone="no"?>
<svg xmlns:ffdec="https://www.free-decompiler.com/flash" xmlns:xlink="http://www.w3.org/1999/xlink" ffdec:objectType="shape" height="27.7px" width="88.25px" xmlns="http://www.w3.org/2000/svg">
  <g transform="matrix(1.0, 0.0, 0.0, 1.0, 89.15, 40.0)">
    <path d="M-15.45 -28.3 L-14.65 -27.85 -14.2 -27.8 -12.45 -29.5 -12.05 -29.25 -12.05 -29.0 -12.65 -27.2 -13.6 -25.4 -14.5 -25.4 -14.95 -25.8 Q-15.05 -26.2 -15.3 -26.4 L-15.45 -26.5 Q-15.9 -26.5 -16.2 -26.95 L-16.4 -27.4 -16.9 -27.1 -17.65 -27.1 -17.9 -28.65 Q-17.9 -29.75 -18.55 -30.25 L-18.55 -30.45 Q-17.7 -30.15 -17.5 -29.2 L-17.4 -27.65 Q-17.15 -27.65 -16.9 -27.9 -16.7 -28.2 -16.15 -28.2 L-16.05 -28.2 -15.45 -28.3 M-13.9 -26.75 L-14.3 -26.5 -14.3 -26.2 Q-13.9 -26.15 -13.8 -26.4 -13.7 -26.6 -13.9 -26.75" fill="url(#gradient0)" fill-rule="evenodd" stroke="none"/>
    <path d="M-3.1 -32.05 L-2.25 -32.4 -1.9 -32.3 -1.8 -32.05 Q-1.8 -31.75 -2.1 -31.5 L-2.8 -30.8 -1.4 -30.9 -1.05 -30.55 Q-1.05 -30.25 -1.3 -30.2 L-2.3 -29.85 -1.95 -28.3 -1.8 -27.0 -1.9 -25.3 -0.95 -25.2 -0.9 -25.1 -1.75 -24.95 -2.0 -24.95 -2.25 -24.15 Q-2.7 -23.05 -4.0 -21.25 L-4.3 -21.6 -3.4 -23.5 Q-2.5 -25.35 -2.5 -26.7 -2.5 -28.25 -2.65 -28.7 L-3.65 -30.75 Q-5.25 -30.9 -5.55 -30.3 -5.85 -29.65 -6.1 -29.65 L-6.75 -29.7 -7.05 -31.1 -7.15 -32.2 Q-7.15 -33.65 -6.15 -32.9 -4.55 -31.75 -4.3 -31.75 -3.6 -31.75 -3.1 -32.05" fill="url(#gradient1)" fill-rule="evenodd" stroke="none"/>
    <path d="M-30.7 -39.95 Q-29.15 -38.95 -27.85 -35.7 L-26.45 -31.9 -25.3 -32.8 -24.75 -32.8 -24.7 -32.4 Q-24.7 -32.2 -26.2 -29.55 L-26.7 -29.75 -27.4 -30.05 Q-27.95 -28.8 -27.95 -28.15 -27.95 -27.6 -28.65 -27.15 L-29.4 -26.5 -28.95 -25.55 Q-28.95 -25.25 -29.25 -25.05 L-30.9 -24.8 -32.45 -24.55 -33.9 -24.75 Q-34.5 -24.75 -35.15 -23.4 -35.75 -22.05 -35.7 -21.0 -35.65 -20.55 -36.3 -20.05 L-37.15 -19.35 Q-37.35 -18.25 -37.7 -17.55 L-37.7 -13.75 Q-38.05 -12.3 -38.55 -12.3 -39.05 -12.3 -40.45 -14.55 L-39.55 -17.75 -39.35 -19.3 Q-39.2 -20.3 -38.15 -20.9 -37.75 -21.1 -37.75 -21.55 L-37.75 -22.35 -37.1 -23.15 -36.45 -23.9 -36.45 -25.7 Q-36.45 -27.0 -35.8 -27.0 L-35.35 -26.6 -35.05 -26.25 -35.0 -26.25 -35.0 -27.3 Q-35.8 -29.7 -37.15 -31.5 L-37.15 -32.65 -36.9 -32.75 Q-36.0 -32.75 -34.6 -30.3 L-33.05 -27.9 -31.9 -28.05 -31.8 -28.3 -30.9 -28.3 Q-30.55 -27.85 -29.65 -27.8 L-29.4 -29.55 -29.15 -30.4 -29.4 -31.3 -29.35 -32.5 -28.4 -32.4 Q-28.05 -33.85 -28.8 -35.6 L-30.7 -38.85 -30.7 -39.95" fill="url(#gradient2)" fill-rule="evenodd" stroke="none"/>
    <path d="M-88.6 -39.45 Q-88.6 -39.1 -88.85 -38.85 L-89.15 -39.45 -88.85 -40.0 -88.6 -39.45" fill="url(#gradient3)" fill-rule="evenodd" stroke="none"/>
  </g>
  <defs>
    <radialGradient cx="0" cy="0" gradientTransform="matrix(0.0051, 0.0, 0.0, 0.0051, -15.3, -27.9)" gradientUnits="userSpaceOnUse" id="gradient0" r="819.2" spreadMethod="pad">
      <stop offset="0.0" stop-color="#ffffff"/>
      <stop offset="0.3803921568627451" stop-color="#f0d66c"/>
      <stop offset="0.7450980392156863" stop-color="#945b21" stop-opacity="0.5803922"/>
      <stop offset="1.0" stop-color="#26372b" stop-opacity="0.18039216"/>
    </radialGradient>
    <radialGradient cx="0" cy="0" gradientTransform="matrix(0.0082, 0.0, 0.0, 0.0082, -4.0, -27.2)" gradientUnits="userSpaceOnUse" id="gradient1" r="819.2" spreadMethod="pad">
      <stop offset="0.0" stop-color="#ffffff"/>
      <stop offset="0.3803921568627451" stop-color="#f0d66c"/>
      <stop offset="0.7450980392156863" stop-color="#945b21" stop-opacity="0.5803922"/>
      <stop offset="1.0" stop-color="#26372b" stop-opacity="0.18039216"/>
    </radialGradient>
    <radialGradient cx="0" cy="0" gradientTransform="matrix(0.0184, 0.0, 0.0, 0.0184, -32.55, -26.1)" gradientUnits="userSpaceOnUse" id="gradient2" r="819.2" spreadMethod="pad">
      <stop offset="0.0" stop-color="#ffffff"/>
      <stop offset="0.3803921568627451" stop-color="#f0d66c"/>
      <stop offset="0.7450980392156863" stop-color="#945b21" stop-opacity="0.5803922"/>
      <stop offset="1.0" stop-color="#26372b" stop-opacity="0.18039216"/>
    </radialGradient>
    <radialGradient cx="0" cy="0" gradientTransform="matrix(9.0E-4, 0.0, 0.0, 9.0E-4, -88.85, -39.4)" gradientUnits="userSpaceOnUse" id="gradient3" r="819.2" spreadMethod="pad">
      <stop offset="0.0" stop-color="#ffffff"/>
      <stop offset="0.3803921568627451" stop-color="#f0d66c"/>
      <stop offset="0.7450980392156863" stop-color="#945b21" stop-opacity="0.5803922"/>
      <stop offset="1.0" stop-color="#26372b" stop-opacity="0.18039216"/>
    </radialGradient>
  </defs>
</svg>
