<?xml version="1.0" encoding="UTF-8" standalone="no"?>
<svg xmlns:ffdec="https://www.free-decompiler.com/flash" xmlns:xlink="http://www.w3.org/1999/xlink" ffdec:objectType="shape" height="21.4px" width="35.05px" xmlns="http://www.w3.org/2000/svg">
  <g transform="matrix(1.0, 0.0, 0.0, 1.0, 39.9, 35.3)">
    <path d="M-16.05 -28.7 L-15.05 -27.9 Q-14.9 -27.75 -15.1 -27.65 L-15.45 -27.55 Q-15.65 -27.55 -16.25 -28.0 -16.9 -28.5 -17.4 -28.6 L-17.45 -28.75 -17.4 -28.95 Q-16.8 -29.2 -16.05 -28.7" fill="url(#gradient0)" fill-rule="evenodd" stroke="none"/>
    <path d="M-13.95 -26.25 Q-14.8 -26.25 -14.7 -26.75 L-14.05 -27.8 -12.75 -29.0 -12.45 -28.5 Q-12.45 -28.25 -13.15 -27.25 L-13.95 -26.25" fill="url(#gradient1)" fill-rule="evenodd" stroke="none"/>
    <path d="M-6.15 -31.75 Q-5.95 -32.1 -5.55 -32.15 -5.15 -32.15 -4.85 -31.75 -4.85 -31.35 -5.4 -31.35 L-6.15 -31.75" fill="url(#gradient2)" fill-rule="evenodd" stroke="none"/>
    <path d="M-31.45 -27.05 Q-30.1 -27.05 -29.6 -28.05 L-29.4 -29.25 Q-29.4 -29.85 -28.6 -30.5 -27.8 -31.15 -27.8 -31.55 L-28.3 -32.95 -28.25 -34.1 -27.65 -35.3 -27.5 -33.25 Q-27.55 -32.6 -27.0 -32.15 -26.5 -31.75 -26.5 -31.3 -26.5 -31.0 -27.55 -30.45 -28.65 -29.95 -28.65 -28.55 -28.65 -27.8 -29.4 -27.1 -30.3 -26.25 -31.45 -26.25 L-32.5 -26.6 -33.75 -27.0 -35.45 -23.6 -37.05 -20.35 -37.85 -18.85 -38.65 -17.05 -38.95 -15.6 -39.65 -13.9 -39.9 -14.15 -39.65 -15.2 Q-39.45 -15.8 -39.45 -17.5 L-39.05 -18.25 Q-38.6 -18.8 -38.6 -19.1 L-38.1 -20.7 Q-37.35 -23.45 -35.85 -25.2 -34.55 -26.7 -34.55 -27.0 L-35.35 -28.95 -36.15 -30.65 Q-36.15 -31.25 -35.75 -31.25 -34.8 -31.25 -34.5 -30.0 -34.05 -28.3 -32.95 -27.4 L-31.95 -27.15 -31.45 -27.05" fill="url(#gradient3)" fill-rule="evenodd" stroke="none"/>
  </g>
  <defs>
    <radialGradient cx="0" cy="0" gradientTransform="matrix(0.0024, 0.0, 0.0, 0.0024, -16.2, -28.3)" gradientUnits="userSpaceOnUse" id="gradient0" r="819.2" spreadMethod="pad">
      <stop offset="0.0" stop-color="#ffffff"/>
      <stop offset="0.3803921568627451" stop-color="#f0d66c"/>
      <stop offset="0.7450980392156863" stop-color="#945b21" stop-opacity="0.5803922"/>
      <stop offset="1.0" stop-color="#26372b" stop-opacity="0.18039216"/>
    </radialGradient>
    <radialGradient cx="0" cy="0" gradientTransform="matrix(0.0026, 0.0, 0.0, 0.0026, -13.6, -27.6)" gradientUnits="userSpaceOnUse" id="gradient1" r="819.2" spreadMethod="pad">
      <stop offset="0.0" stop-color="#ffffff"/>
      <stop offset="0.3803921568627451" stop-color="#f0d66c"/>
      <stop offset="0.7450980392156863" stop-color="#945b21" stop-opacity="0.5803922"/>
      <stop offset="1.0" stop-color="#26372b" stop-opacity="0.18039216"/>
    </radialGradient>
    <radialGradient cx="0" cy="0" gradientTransform="matrix(0.0013, 0.0, 0.0, 0.0013, -5.5, -31.75)" gradientUnits="userSpaceOnUse" id="gradient2" r="819.2" spreadMethod="pad">
      <stop offset="0.0" stop-color="#ffffff"/>
      <stop offset="0.3803921568627451" stop-color="#f0d66c"/>
      <stop offset="0.7450980392156863" stop-color="#945b21" stop-opacity="0.5803922"/>
      <stop offset="1.0" stop-color="#26372b" stop-opacity="0.18039216"/>
    </radialGradient>
    <radialGradient cx="0" cy="0" gradientTransform="matrix(0.0153, 0.0, 0.0, 0.0153, -33.2, -24.6)" gradientUnits="userSpaceOnUse" id="gradient3" r="819.2" spreadMethod="pad">
      <stop offset="0.0" stop-color="#ffffff"/>
      <stop offset="0.3803921568627451" stop-color="#f0d66c"/>
      <stop offset="0.7450980392156863" stop-color="#945b21" stop-opacity="0.5803922"/>
      <stop offset="1.0" stop-color="#26372b" stop-opacity="0.18039216"/>
    </radialGradient>
  </defs>
</svg>
