<?xml version="1.0" encoding="UTF-8" standalone="no"?>
<svg xmlns:ffdec="https://www.free-decompiler.com/flash" xmlns:xlink="http://www.w3.org/1999/xlink" ffdec:objectType="shape" height="14.15px" width="11.25px" xmlns="http://www.w3.org/2000/svg">
  <g transform="matrix(1.0, 0.0, 0.0, 1.0, 37.95, 34.3)">
    <path d="M-34.85 -29.55 Q-34.5 -29.75 -34.3 -28.65 L-33.4 -27.7 -32.35 -27.0 -32.3 -26.85 -32.65 -26.6 Q-34.15 -26.6 -35.2 -28.75 -35.2 -29.4 -34.85 -29.55" fill="url(#gradient0)" fill-rule="evenodd" stroke="none"/>
    <path d="M-27.6 -34.3 L-27.4 -34.3 Q-26.7 -33.45 -26.7 -31.8 L-27.8 -30.55 -29.25 -29.3 Q-29.6 -29.4 -29.6 -29.75 L-28.7 -30.7 Q-27.75 -31.6 -27.65 -32.0 -27.55 -32.4 -27.6 -33.1 L-27.6 -34.3" fill="url(#gradient1)" fill-rule="evenodd" stroke="none"/>
    <path d="M-36.5 -22.0 L-36.4 -21.75 -36.65 -20.85 Q-37.0 -20.15 -37.5 -20.15 L-37.9 -20.25 -37.95 -20.5 -37.7 -20.95 -37.35 -21.55 -36.95 -21.9 -36.5 -22.0" fill="url(#gradient2)" fill-rule="evenodd" stroke="none"/>
  </g>
  <defs>
    <radialGradient cx="0" cy="0" gradientTransform="matrix(0.003, 0.0, 0.0, 0.003, -33.75, -28.1)" gradientUnits="userSpaceOnUse" id="gradient0" r="819.2" spreadMethod="pad">
      <stop offset="0.0" stop-color="#ffffff"/>
      <stop offset="0.3803921568627451" stop-color="#f0d66c"/>
      <stop offset="0.7450980392156863" stop-color="#945b21" stop-opacity="0.5803922"/>
      <stop offset="1.0" stop-color="#26372b" stop-opacity="0.18039216"/>
    </radialGradient>
    <radialGradient cx="0" cy="0" gradientTransform="matrix(0.0037, 0.0, 0.0, 0.0037, -28.15, -31.8)" gradientUnits="userSpaceOnUse" id="gradient1" r="819.2" spreadMethod="pad">
      <stop offset="0.0" stop-color="#ffffff"/>
      <stop offset="0.3803921568627451" stop-color="#f0d66c"/>
      <stop offset="0.7450980392156863" stop-color="#945b21" stop-opacity="0.5803922"/>
      <stop offset="1.0" stop-color="#26372b" stop-opacity="0.18039216"/>
    </radialGradient>
    <radialGradient cx="0" cy="0" gradientTransform="matrix(0.002, 0.0, 0.0, 0.002, -37.15, -21.1)" gradientUnits="userSpaceOnUse" id="gradient2" r="819.2" spreadMethod="pad">
      <stop offset="0.0" stop-color="#ffffff"/>
      <stop offset="0.3803921568627451" stop-color="#f0d66c"/>
      <stop offset="0.7450980392156863" stop-color="#945b21" stop-opacity="0.5803922"/>
      <stop offset="1.0" stop-color="#26372b" stop-opacity="0.18039216"/>
    </radialGradient>
  </defs>
</svg>
