<?xml version="1.0" encoding="UTF-8" standalone="no"?>
<svg xmlns:ffdec="https://www.free-decompiler.com/flash" xmlns:xlink="http://www.w3.org/1999/xlink" ffdec:objectType="shape" height="52.4px" width="94.15px" xmlns="http://www.w3.org/2000/svg">
  <g transform="matrix(1.0, 0.0, 0.0, 1.0, 46.85, 32.65)">
    <path d="M17.7 -25.2 Q18.4 -24.1 18.4 -22.45 L18.4 -19.65 Q18.45 -18.65 20.6 -18.35 22.7 -17.95 22.7 -17.4 L21.65 -16.15 Q20.55 -15.15 20.55 -14.2 20.55 -13.5 20.85 -12.2 21.35 -10.35 22.05 -10.35 26.35 -10.35 27.8 -14.75 29.35 -19.2 31.95 -19.2 33.25 -19.2 33.75 -18.35 34.15 -17.85 34.15 -17.35 L35.95 -17.7 38.25 -17.7 Q38.95 -17.3 38.95 -16.2 L38.9 -14.65 40.0 -14.4 40.05 -13.85 Q39.7 -12.5 39.7 -12.0 39.7 -11.75 41.05 -11.15 L41.0 -13.0 Q41.05 -14.4 42.1 -14.4 44.25 -14.4 44.45 -13.5 L44.8 -12.05 46.95 -10.65 Q47.3 -10.45 47.3 -9.65 47.3 -7.9 44.7 -2.15 41.9 4.05 39.5 6.6 L40.35 7.65 40.4 8.65 Q40.4 10.35 36.6 12.7 32.2 15.4 27.05 15.4 21.55 16.9 19.65 16.9 L19.45 17.15 18.2 17.4 16.7 17.2 15.85 17.0 12.8 18.2 Q10.15 19.2 9.05 19.75 L6.8 19.75 Q6.15 19.45 6.15 19.05 L6.55 17.45 6.45 17.4 Q6.45 17.8 5.9 17.8 5.05 17.8 4.2 16.2 L3.35 13.95 Q3.25 13.2 2.4 12.0 L1.05 10.1 Q0.7 11.9 0.7 13.0 0.7 14.35 1.15 15.35 L1.6 17.3 Q1.6 18.0 0.7 18.0 L-0.95 17.15 Q-2.4 16.35 -2.95 16.25 L-2.65 18.05 -2.9 18.6 -3.55 18.85 -5.15 18.25 Q-6.3 17.6 -8.15 17.6 L-10.2 17.2 Q-11.1 17.2 -11.6 17.55 L-12.55 17.9 -16.5 17.5 -17.6 16.25 Q-18.0 15.85 -19.25 15.35 L-21.0 14.5 -24.7 14.75 Q-25.15 14.75 -27.85 13.55 L-30.3 13.65 -34.05 13.25 -37.35 12.35 -40.9 11.2 Q-43.05 10.25 -43.9 8.65 L-44.7 6.05 Q-46.85 5.9 -46.85 3.9 L-46.55 2.0 -45.2 0.05 Q-45.2 -1.1 -44.3 -1.95 -43.35 -2.8 -43.25 -3.85 -43.2 -4.05 -42.65 -4.05 L-42.0 -3.85 -41.25 -3.5 -40.0 -3.5 -40.35 -4.4 -40.15 -5.85 -39.25 -6.2 Q-38.6 -6.3 -38.55 -6.75 L-38.6 -8.15 Q-38.15 -9.0 -34.6 -8.9 L-36.2 -14.45 -36.05 -15.25 Q-35.45 -15.85 -33.7 -16.05 L-31.65 -16.65 -29.5 -17.2 -27.25 -16.85 -26.1 -16.85 Q-25.85 -17.35 -25.75 -19.45 -25.7 -21.2 -24.6 -22.25 -24.0 -22.8 -22.8 -25.1 -21.85 -26.8 -20.15 -27.35 -18.7 -27.75 -16.95 -27.3 -15.7 -26.9 -14.35 -28.15 L-14.15 -28.8 -14.15 -29.6 -14.15 -30.85 Q-14.15 -31.75 -13.6 -32.2 -12.3 -33.3 -7.7 -31.75 -3.1 -30.15 -3.1 -28.35 L-3.3 -27.2 -3.55 -26.05 Q-3.55 -25.0 -2.6 -23.25 -1.15 -20.65 1.35 -20.65 1.95 -20.65 3.6 -21.3 L5.55 -22.35 7.4 -22.9 Q8.45 -23.35 8.45 -24.15 8.65 -25.0 9.65 -26.2 10.95 -27.7 12.6 -27.7 16.35 -27.7 17.7 -25.2 M11.85 7.15 Q10.2 7.8 9.65 9.35 L8.45 11.9 8.5 11.95 10.75 9.7 Q11.85 8.4 11.85 7.15" fill="#000000" fill-rule="evenodd" stroke="none"/>
  </g>
</svg>
