<?xml version="1.0" encoding="UTF-8" standalone="no"?>
<svg xmlns:ffdec="https://www.free-decompiler.com/flash" xmlns:xlink="http://www.w3.org/1999/xlink" ffdec:objectType="shape" height="59.25px" width="94.65px" xmlns="http://www.w3.org/2000/svg">
  <g transform="matrix(1.0, 0.0, 0.0, 1.0, 47.35, 29.65)">
    <path d="M4.1 -14.15 Q3.75 -15.8 5.8 -16.75 L8.15 -17.55 8.2 -19.6 8.65 -20.6 Q9.6 -21.8 11.85 -21.65 L13.9 -21.25 Q18.05 -21.25 19.15 -19.3 19.45 -18.75 19.55 -16.5 L20.0 -11.5 Q22.05 -10.85 22.4 -10.45 L22.55 -9.4 Q22.55 -8.1 22.25 -7.5 21.7 -6.45 19.9 -6.2 L19.9 -4.2 22.8 -4.8 Q24.0 -5.15 24.65 -5.95 L25.85 -7.1 Q26.6 -7.85 26.65 -8.4 26.7 -8.85 27.6 -9.55 L28.9 -10.85 29.25 -12.05 Q29.8 -13.1 31.3 -13.1 L32.85 -12.25 34.7 -11.0 Q35.35 -10.3 36.05 -10.45 L37.4 -10.4 38.1 -9.8 38.15 -9.4 37.25 -6.65 35.95 -3.55 35.95 -3.35 Q36.7 -3.55 37.1 -4.95 37.5 -6.2 38.25 -6.2 39.2 -6.2 39.05 -5.4 40.3 -5.05 40.55 -6.45 40.8 -8.1 42.25 -8.1 43.4 -8.1 43.95 -7.15 L44.3 -6.15 Q44.45 -5.75 45.7 -5.2 46.95 -4.65 47.0 -4.35 47.3 -3.1 47.3 -0.3 47.3 1.05 45.1 6.7 43.0 12.0 41.65 14.35 41.1 15.4 40.55 18.0 40.05 20.4 39.05 21.8 38.3 22.8 36.3 23.4 L32.6 24.55 Q31.9 24.8 29.85 26.35 28.4 27.35 26.9 27.15 L20.35 27.2 17.6 28.6 13.7 29.6 Q12.4 29.6 12.05 28.4 L11.95 27.0 Q11.9 26.8 11.5 26.8 L10.95 27.4 10.15 27.95 Q9.75 27.95 9.65 27.3 L9.65 26.55 Q9.65 25.05 10.1 23.95 L11.45 21.15 6.85 24.05 6.4 23.9 6.35 23.3 Q6.35 20.15 7.55 17.55 8.15 16.2 11.3 11.25 10.4 10.9 10.3 10.15 L9.95 8.65 Q9.0 9.0 7.8 11.15 L6.7 13.2 Q6.35 13.2 6.25 12.5 L6.25 11.7 6.9 3.55 6.85 3.4 6.05 1.3 Q5.8 1.65 4.85 5.3 4.1 8.0 3.1 8.0 2.3 8.0 2.45 6.05 L3.05 3.6 2.75 3.5 Q0.6 7.45 -2.4 13.5 L-2.1 15.0 Q-2.1 15.85 -2.65 15.85 L-3.85 13.35 Q-5.2 10.75 -6.25 10.1 -6.55 11.4 -7.85 13.3 L-10.2 16.45 Q-10.6 16.9 -11.6 19.9 -12.45 22.5 -12.9 22.5 -13.55 22.5 -13.7 21.35 L-13.8 19.75 -15.1 18.45 -16.45 17.1 -16.85 18.2 -16.9 19.1 -16.4 21.2 Q-15.9 22.55 -15.9 24.35 -15.9 25.35 -17.05 25.35 L-18.35 24.8 Q-19.3 24.2 -21.75 24.2 -22.45 24.2 -22.8 24.55 L-23.25 24.85 Q-23.65 24.85 -25.15 23.9 -26.25 24.3 -27.2 23.5 -28.35 22.6 -28.8 22.6 L-29.35 22.8 -29.95 23.0 Q-32.75 23.0 -34.95 21.35 -37.2 19.75 -39.6 19.75 L-41.35 18.2 -44.95 15.6 Q-46.6 14.7 -47.1 13.35 L-47.35 11.05 -46.9 9.5 Q-46.5 8.05 -46.5 6.8 -46.5 6.25 -46.0 5.65 -45.5 5.0 -45.4 4.2 L-45.4 2.95 Q-45.35 2.15 -44.4 2.15 -43.15 2.15 -42.1 2.65 -42.05 1.9 -40.75 0.9 -39.5 -0.05 -38.55 -0.2 -38.45 -0.4 -38.5 -1.05 L-38.55 -1.75 Q-38.55 -2.55 -38.05 -3.25 L-39.35 -5.4 -40.3 -7.3 -40.1 -8.25 -39.55 -9.1 -39.7 -10.25 Q-39.7 -11.15 -39.2 -11.65 -38.2 -12.65 -35.15 -12.65 -31.55 -12.65 -31.3 -11.5 L-31.75 -9.55 Q-29.8 -9.7 -29.8 -10.3 L-29.65 -11.8 -28.0 -13.8 -26.5 -14.1 -24.7 -13.75 Q-24.4 -14.1 -24.15 -15.35 -23.7 -16.35 -22.0 -16.4 -22.4 -18.8 -19.25 -19.9 -16.0 -20.95 -16.0 -21.7 L-16.45 -22.65 -16.9 -23.9 -16.65 -26.35 Q-16.3 -28.8 -15.55 -29.35 -14.5 -30.2 -11.55 -28.65 -8.65 -27.2 -8.35 -25.95 -5.35 -24.8 -4.0 -23.25 L-2.05 -20.9 Q-0.85 -19.95 -0.85 -18.3 L-1.05 -15.45 -0.4 -14.75 Q0.15 -14.2 -0.4 -12.45 L1.1 -12.45 1.05 -13.4 Q1.45 -13.9 4.1 -14.15" fill="#000000" fill-rule="evenodd" stroke="none"/>
  </g>
</svg>
