<?xml version="1.0" encoding="UTF-8" standalone="no"?>
<svg xmlns:ffdec="https://www.free-decompiler.com/flash" xmlns:xlink="http://www.w3.org/1999/xlink" ffdec:objectType="shape" height="49.85px" width="97.8px" xmlns="http://www.w3.org/2000/svg">
  <g transform="matrix(1.0, 0.0, 0.0, 1.0, 48.9, 24.95)">
    <path d="M26.65 -8.55 Q27.75 -9.15 29.75 -9.15 L30.7 -9.6 33.0 -10.1 35.1 -10.05 Q35.5 -9.95 35.7 -9.05 38.15 -8.7 38.55 -7.85 L38.6 -6.3 Q38.65 -5.95 38.85 -5.9 L40.8 -5.75 43.0 -5.25 44.0 -4.55 47.8 -1.75 Q48.9 -0.55 48.9 1.0 48.9 1.65 47.65 3.5 L45.8 6.15 45.65 7.35 Q45.5 8.2 44.7 8.8 L43.3 10.2 Q42.45 11.05 41.7 11.25 38.95 12.15 38.3 13.75 L37.8 16.2 Q36.9 18.55 32.85 21.15 L32.4 21.0 32.3 20.55 33.25 18.4 Q34.25 16.25 34.4 15.0 34.95 11.2 36.2 9.45 29.1 13.3 27.15 15.6 25.4 17.7 23.6 18.95 L22.2 19.5 Q21.15 19.8 20.9 20.3 20.65 21.8 19.7 21.8 19.2 21.8 18.85 21.35 L18.6 20.75 20.85 15.4 Q23.25 9.8 23.85 7.75 L23.85 7.65 19.75 9.3 Q16.8 10.45 16.05 11.2 L10.2 15.4 Q9.45 15.4 9.3 14.45 L9.3 13.35 Q9.3 11.5 10.65 9.6 12.3 7.25 12.8 5.25 13.5 2.35 13.7 -2.85 L13.7 -3.05 10.0 -0.25 Q7.6 1.55 7.5 2.7 L7.45 4.1 Q7.3 5.0 6.45 5.65 6.15 5.9 5.65 7.1 5.25 8.1 4.6 8.1 3.45 8.1 3.25 6.85 3.15 6.2 3.2 4.95 L3.2 4.9 Q0.7 4.3 0.3 2.3 L-0.25 -0.95 -0.3 -0.95 -0.55 4.35 -0.6 5.8 Q-0.9 6.6 -2.3 6.9 -3.7 7.2 -3.9 7.9 L-3.9 9.0 Q-3.9 9.75 -4.5 9.75 L-6.85 8.9 Q-8.6 8.05 -9.95 8.05 -10.7 8.05 -12.9 5.0 -15.4 1.6 -17.85 0.45 L-15.95 7.2 Q-14.45 13.05 -14.45 14.05 L-14.45 14.6 Q-14.55 14.95 -15.0 14.95 L-16.35 13.65 -17.55 12.1 Q-17.65 12.75 -17.2 14.25 -16.7 15.8 -16.7 16.35 -16.7 17.05 -17.45 17.1 L-16.35 18.55 Q-15.6 19.65 -15.6 20.1 -15.6 20.55 -16.05 21.0 L-24.75 9.3 -22.1 15.3 Q-19.95 20.2 -19.95 20.85 -19.95 21.5 -20.25 22.5 -20.65 23.9 -21.3 23.9 -21.9 23.9 -22.75 23.2 L-23.7 22.35 -23.65 23.6 Q-23.9 24.35 -26.25 24.35 L-27.5 24.25 -28.8 24.0 -30.3 24.0 -31.0 24.55 -32.15 24.9 Q-33.85 24.9 -35.05 23.7 -36.5 22.4 -38.6 22.05 -40.35 21.8 -41.95 20.55 L-44.55 18.6 Q-45.55 18.05 -45.6 17.05 -45.6 15.7 -45.95 15.15 L-47.65 13.25 -48.9 11.8 Q-48.9 11.1 -48.15 11.1 L-48.45 10.15 -48.65 9.15 Q-48.65 8.7 -47.6 8.2 -46.55 7.7 -45.5 7.65 -45.95 7.1 -45.95 5.2 -45.95 3.9 -43.95 0.9 L-44.35 -0.3 -44.75 -1.65 Q-44.75 -2.35 -43.1 -3.6 -41.45 -4.9 -41.45 -6.6 -41.05 -8.15 -39.4 -8.1 -37.3 -8.1 -36.8 -8.55 L-36.15 -9.65 Q-35.4 -10.65 -34.2 -10.65 -32.8 -10.65 -32.75 -9.3 L-33.0 -7.2 Q-31.2 -7.25 -30.3 -8.65 -29.25 -10.3 -28.55 -10.55 L-26.75 -11.25 -25.25 -12.2 -25.35 -13.25 Q-25.15 -13.9 -23.4 -13.5 -23.15 -14.7 -21.5 -15.6 -19.7 -16.55 -19.55 -16.8 -19.25 -17.3 -19.05 -18.45 L-18.6 -20.25 Q-17.9 -22.2 -15.6 -23.9 -12.5 -26.25 -9.9 -23.45 L-9.5 -22.5 Q-9.25 -22.2 -7.5 -22.2 -6.2 -22.15 -5.85 -21.55 L-5.55 -20.45 Q-4.95 -18.15 -4.2 -16.95 -3.35 -15.7 -2.6 -13.5 L-1.35 -10.05 -0.65 -11.15 Q0.0 -11.9 1.95 -12.15 L1.8 -14.25 Q1.8 -15.4 2.15 -15.75 2.65 -16.3 4.85 -16.95 L8.1 -17.5 9.8 -17.75 11.25 -18.3 12.95 -18.6 Q14.0 -18.6 14.05 -18.3 L14.7 -18.45 15.8 -18.65 Q17.6 -18.65 18.05 -17.5 L18.15 -15.6 Q20.45 -15.6 21.6 -9.35 21.6 -8.1 21.15 -7.35 L21.2 -7.2 Q21.6 -7.25 22.1 -7.65 L24.95 -8.0 Q25.55 -8.0 26.65 -8.55" fill="#000000" fill-rule="evenodd" stroke="none"/>
  </g>
</svg>
