<?xml version="1.0" encoding="UTF-8" standalone="no"?>
<svg xmlns:ffdec="https://www.free-decompiler.com/flash" xmlns:xlink="http://www.w3.org/1999/xlink" ffdec:objectType="shape" height="55.55px" width="59.1px" xmlns="http://www.w3.org/2000/svg">
  <g transform="matrix(1.0, 0.0, 0.0, 1.0, 29.55, 27.8)">
    <path d="M14.1 -27.35 L19.75 -27.15 20.3 -25.3 20.75 -23.5 Q21.15 -21.8 23.0 -21.2 L25.5 -20.4 27.55 -18.5 Q28.1 -17.75 28.1 -16.8 L27.45 -14.6 Q26.75 -12.7 26.75 -10.75 L26.85 -7.95 26.85 -4.1 Q26.6 -3.25 28.05 -2.55 29.55 -1.8 29.55 -1.35 L28.45 0.85 Q27.3 2.8 27.3 3.2 L27.5 4.3 27.7 5.6 Q27.7 7.5 25.7 9.3 23.65 11.1 23.65 12.25 23.65 13.3 24.1 14.15 24.5 15.05 24.5 15.75 24.5 17.45 22.2 19.4 L19.75 21.1 Q18.55 21.7 18.55 22.85 L18.55 23.5 19.15 22.55 19.35 22.6 Q18.95 23.15 19.0 24.5 18.65 25.7 16.05 26.1 L14.75 26.25 13.35 26.35 11.8 26.2 10.15 26.0 Q8.7 26.0 7.55 26.9 6.45 27.75 4.5 27.75 L2.85 27.15 Q1.45 26.5 -1.85 26.5 -6.7 24.0 -9.2 23.6 L-14.75 23.15 Q-17.2 22.85 -17.3 21.1 L-17.1 19.15 Q-17.1 17.95 -18.1 17.35 L-21.65 15.65 Q-24.0 14.55 -24.3 14.05 L-24.3 9.65 -26.8 5.25 Q-29.0 1.55 -29.0 0.3 -29.0 -2.1 -28.15 -3.85 -27.3 -5.6 -27.3 -6.45 -27.3 -8.05 -28.4 -9.65 -29.55 -11.2 -29.55 -11.85 -29.55 -13.05 -28.3 -13.4 -25.55 -14.2 -24.15 -14.95 -23.2 -15.45 -22.8 -16.65 L-21.8 -18.8 -19.45 -20.8 -17.25 -22.7 -15.95 -24.6 Q-15.05 -25.75 -13.25 -26.35 L-8.35 -26.35 -7.1 -26.05 -4.0 -26.05 3.3 -27.5 Q4.15 -27.5 5.95 -26.75 7.8 -26.05 9.35 -26.05 11.95 -26.05 14.1 -27.35" fill="#4b0000" fill-rule="evenodd" stroke="none"/>
  </g>
</svg>
