<?xml version="1.0" encoding="UTF-8" standalone="no"?>
<svg xmlns:ffdec="https://www.free-decompiler.com/flash" xmlns:xlink="http://www.w3.org/1999/xlink" ffdec:objectType="shape" height="28.6px" width="266.4px" xmlns="http://www.w3.org/2000/svg">
  <g transform="matrix(1.0, 0.0, 0.0, 1.0, 127.4, 6.6)">
    <path d="M27.4 2.55 L27.15 1.7 25.9 1.5 Q25.2 2.65 24.5 2.65 L24.3 2.65 Q21.15 5.4 19.5 5.4 16.75 5.4 16.0 4.55 L15.75 3.6 Q15.75 2.6 20.25 1.1 21.8 0.6 22.85 0.6 L22.75 0.15 Q22.75 -2.3 25.15 -2.9 L28.15 -3.1 28.7 -3.25 29.75 -3.75 Q32.85 -4.6 35.0 -6.1 L38.65 -5.6 Q39.05 -6.1 39.75 -6.1 42.8 -6.1 46.85 -4.15 50.9 -2.25 53.25 -2.25 53.3 -3.7 55.8 -5.0 58.4 -6.4 61.0 -6.1 L67.65 -6.25 Q71.2 -7.2 74.2 -5.7 L76.35 -4.35 77.0 -4.0 78.0 -4.3 79.25 -4.6 85.25 -4.25 Q84.2 -4.0 83.55 -2.4 L81.65 -2.9 78.75 -3.25 Q75.3 -3.25 73.8 -1.45 72.25 0.35 71.25 0.35 70.9 0.35 69.95 -0.45 69.0 -1.25 67.0 -1.25 65.3 -1.25 64.05 -0.55 L62.3 0.1 58.1 0.6 57.05 1.15 55.5 1.05 55.5 1.8 55.5 1.9 53.75 2.65 47.6 4.4 Q45.4 4.9 45.4 6.3 L45.4 6.35 43.35 6.35 Q39.4 6.35 37.5 3.45 L37.45 3.3 36.95 3.65 Q35.85 4.3 34.4 4.6 L35.65 3.35 Q35.65 1.05 33.75 2.0 L30.05 3.55 27.4 2.55 M86.7 -3.95 L88.8 -3.2 Q90.0 -2.55 89.75 -1.85 89.75 -1.3 89.3 -0.85 L88.9 -0.55 88.9 -0.8 Q88.9 -2.55 86.9 -3.85 L86.7 -3.95 M77.35 0.0 L77.0 0.45 75.05 1.75 75.1 1.55 Q75.55 0.45 77.35 0.0 M62.0 -3.45 Q62.7 -2.75 64.9 -2.75 67.0 -2.75 67.75 -3.25 68.35 -3.6 68.35 -4.4 68.35 -6.15 65.05 -6.05 61.75 -5.95 61.75 -4.35 61.75 -3.7 62.0 -3.45 M57.4 -1.5 Q58.8 -1.5 58.8 -3.05 58.8 -4.4 57.4 -4.6 56.0 -4.8 56.0 -3.05 L56.1 -2.35 Q56.4 -1.5 57.4 -1.5 M31.25 -1.25 L31.35 -0.6 Q31.65 0.25 32.65 0.25 L33.6 -0.2 34.05 -1.15 Q34.05 -2.35 32.65 -2.6 31.25 -2.85 31.25 -1.25 M34.5 -2.4 L34.75 -1.55 Q35.35 -0.75 37.0 -0.75 38.6 -0.75 39.35 -1.85 39.8 -2.5 39.8 -3.4 39.8 -5.35 37.15 -4.8 34.5 -4.25 34.5 -2.4 M98.95 -5.1 L100.15 -5.25 Q103.75 -5.45 103.75 -3.3 103.75 -2.45 103.05 -1.8 101.95 -0.85 99.5 -0.85 97.05 -0.85 96.5 -1.8 L96.5 -2.8 96.55 -3.25 96.65 -2.65 Q97.0 -1.9 98.1 -1.9 100.6 -1.9 100.6 -3.65 100.6 -5.15 98.95 -5.1 M111.4 -3.9 Q113.25 -3.9 113.25 -2.3 L113.0 -1.3 Q112.6 -0.6 111.75 -0.6 110.3 -0.6 109.75 -1.55 L109.5 -2.4 Q109.5 -3.9 111.4 -3.9 M135.5 3.5 Q133.75 3.8 133.75 5.55 L133.85 6.35 Q134.15 7.05 135.15 7.05 135.7 7.05 136.5 6.25 137.25 5.45 137.25 4.9 137.25 3.15 135.5 3.5 M136.0 3.25 Q139.0 3.3 139.0 6.0 139.0 7.15 138.1 8.05 137.2 9.0 136.0 9.0 133.95 9.0 133.25 7.25 L133.0 5.85 Q133.0 3.2 136.0 3.25 M49.0 17.9 Q49.0 13.95 52.75 15.35 56.5 16.7 56.5 18.9 56.5 19.85 55.75 20.8 54.85 22.0 53.5 22.0 50.8 22.0 49.6 19.8 L49.0 17.9 M11.05 3.45 L10.25 3.85 Q7.9 5.0 3.05 5.0 L0.75 4.7 -0.2 4.35 -0.6 4.15 -2.8 2.45 Q-5.55 0.35 -11.1 1.65 -13.8 2.3 -14.4 2.9 L-14.85 4.15 Q-15.1 4.85 -16.25 5.65 L-17.75 6.85 -20.25 6.85 Q-21.7 6.7 -22.8 5.1 -23.8 3.6 -25.3 3.6 L-27.1 3.8 -27.25 3.1 -27.2 2.8 Q-28.55 4.1 -30.6 4.15 -29.6 3.55 -29.6 3.1 L-29.85 2.2 Q-30.35 1.4 -31.5 1.4 L-33.05 2.0 Q-34.3 2.55 -36.4 2.55 L-38.65 1.85 -39.0 1.75 Q-39.35 1.4 -39.75 1.2 L-39.75 1.45 -39.75 1.6 -44.0 1.15 -48.7 1.75 -54.25 1.5 Q-56.4 -0.15 -57.9 -0.55 -59.7 -1.1 -59.75 0.6 L-60.15 0.4 -60.75 -0.1 Q-66.25 0.25 -68.0 -0.65 L-68.45 -1.0 -71.4 -0.25 Q-72.6 0.05 -73.55 0.65 -74.3 1.15 -75.1 1.15 L-76.75 0.9 -77.0 0.9 Q-77.95 0.9 -78.35 0.0 L-78.5 -0.65 Q-78.5 -1.6 -77.8 -1.85 L-77.25 -2.2 -75.15 -1.95 -73.4 -2.75 Q-71.7 -3.55 -68.25 -3.5 L-67.9 -3.45 -66.15 -3.2 -61.85 -3.1 -58.85 -3.15 Q-54.15 -1.35 -53.25 -1.35 L-48.5 -1.85 -45.45 -1.65 -45.5 -1.9 Q-45.5 -4.15 -42.6 -3.1 -38.0 -1.45 -37.55 -1.45 L-35.9 -2.15 Q-34.25 -2.85 -30.6 -2.85 L-25.7 -2.35 Q-24.85 -1.85 -22.25 -1.85 L-21.6 -1.8 -17.6 -1.85 Q-9.1 -1.85 -7.5 -0.7 L2.15 1.25 Q4.9 2.0 5.25 3.5 L10.25 3.4 11.05 3.45 M-97.45 -1.25 Q-98.05 -0.85 -98.05 0.0 L-97.95 0.7 Q-97.7 1.4 -96.55 1.4 -95.8 1.4 -95.25 0.75 -94.85 0.25 -94.85 -0.2 -94.85 -1.1 -95.3 -1.4 L-93.85 -1.35 Q-88.5 -0.95 -88.5 0.7 -88.5 1.4 -88.75 1.7 -89.35 2.4 -91.6 2.4 -97.0 2.4 -98.55 1.65 -99.25 1.3 -99.25 0.4 -99.25 -0.85 -97.45 -1.25 M-111.25 -0.1 L-111.35 -0.1 Q-112.75 -0.15 -112.75 1.15 L-112.65 1.8 Q-112.35 2.65 -111.35 2.65 -110.75 2.65 -110.35 2.25 -110.0 1.8 -110.0 1.2 -110.0 0.2 -110.8 -0.05 -109.25 0.25 -109.25 1.55 L-109.5 2.45 Q-109.9 3.15 -110.75 3.15 -112.4 3.15 -113.0 2.2 L-113.25 1.35 Q-113.25 -0.25 -111.25 -0.1 M-23.3 0.65 L-23.2 1.55 Q-22.85 2.35 -21.55 2.35 -19.8 2.35 -19.8 0.5 -19.8 -1.75 -21.55 -1.4 -23.3 -1.05 -23.3 0.65 M-25.85 1.95 Q-25.25 1.8 -24.9 1.45 -25.8 1.7 -26.5 2.2 L-25.85 1.95 M-28.0 0.2 Q-28.15 1.65 -26.5 1.65 -25.0 1.65 -25.0 0.1 -25.0 -1.6 -26.5 -1.4 -28.0 -1.25 -28.0 0.2 M-33.5 18.0 Q-33.5 14.75 -30.25 15.05 -27.0 15.4 -27.0 18.35 -27.0 19.15 -27.5 20.05 -28.3 21.5 -30.0 21.5 -32.05 21.5 -33.0 19.75 -33.45 18.9 -33.5 18.0 M-124.4 7.55 Q-121.4 7.9 -121.4 10.65 -121.4 11.6 -121.9 12.55 -122.75 14.0 -124.4 14.0 -126.55 14.0 -127.15 12.45 L-127.4 10.75 Q-127.4 7.2 -124.4 7.55 M-124.5 11.0 L-124.25 10.05 Q-124.25 8.5 -125.6 8.35 -127.0 8.2 -127.0 10.05 L-126.9 10.9 Q-126.65 11.75 -125.6 11.75 -124.85 11.75 -124.5 11.0" fill="#92e1f7" fill-rule="evenodd" stroke="none"/>
    <path d="M85.25 -4.25 L86.7 -3.95 86.9 -3.85 Q88.9 -2.55 88.9 -0.8 L88.9 -0.55 88.6 0.35 Q88.0 0.9 85.95 0.9 L82.3 0.35 79.9 -0.25 77.35 0.0 Q75.55 0.45 75.1 1.55 L75.05 1.75 Q74.25 3.35 71.75 3.35 70.1 3.35 69.1 2.6 68.1 1.8 67.05 1.8 63.35 1.8 56.7 4.8 50.0 7.8 47.3 7.8 46.0 7.8 45.55 7.1 L45.4 6.35 45.4 6.3 Q45.4 4.9 47.6 4.4 L53.75 2.65 55.5 1.9 57.05 1.15 58.1 0.6 62.3 0.1 64.05 -0.55 Q65.3 -1.25 67.0 -1.25 69.0 -1.25 69.95 -0.45 70.9 0.35 71.25 0.35 72.25 0.35 73.8 -1.45 75.3 -3.25 78.75 -3.25 L81.65 -2.9 83.55 -2.4 Q84.2 -4.0 85.25 -4.25 M34.4 4.6 L33.6 5.15 Q31.45 6.55 30.4 6.55 27.9 6.55 26.5 5.45 25.4 4.65 25.4 3.9 L25.6 3.1 Q26.0 2.4 26.8 2.4 L27.4 2.55 30.05 3.55 33.75 2.0 Q35.65 1.05 35.65 3.35 L34.4 4.6 M-27.1 3.8 L-25.3 3.6 Q-23.8 3.6 -22.8 5.1 -21.7 6.7 -20.25 6.85 L-17.75 6.85 -16.25 5.65 Q-15.1 4.85 -14.85 4.15 L-14.4 2.9 Q-13.8 2.3 -11.1 1.65 -5.55 0.35 -2.8 2.45 L-0.6 4.15 -0.2 4.35 0.75 4.7 3.05 5.0 Q7.9 5.0 10.25 3.85 L11.05 3.45 12.3 2.65 Q13.8 2.65 13.75 4.15 13.75 5.65 12.0 6.6 9.4 8.05 3.15 8.05 -1.5 8.05 -3.1 6.75 L-4.75 4.85 -9.15 4.4 Q-10.6 4.4 -13.7 7.2 -16.8 10.0 -18.55 10.0 -23.65 10.0 -25.65 7.5 -26.4 6.6 -27.65 6.2 -28.5 5.9 -28.5 5.3 -28.5 4.2 -27.1 3.8 M-59.75 0.6 Q-59.7 -1.1 -57.9 -0.55 -56.4 -0.15 -54.25 1.5 L-48.7 1.75 -44.0 1.15 -39.75 1.6 -39.0 1.75 -38.65 1.85 -36.4 2.55 Q-34.3 2.55 -33.05 2.0 L-31.5 1.4 Q-30.35 1.4 -29.85 2.2 L-29.6 3.1 Q-29.6 3.55 -30.6 4.15 L-31.65 4.65 Q-33.75 5.6 -35.4 5.6 L-38.9 4.95 Q-41.25 4.25 -44.1 4.25 L-48.65 4.8 Q-53.85 4.8 -57.2 2.95 -59.75 1.6 -59.75 0.65 L-59.75 0.6" fill="#589bdb" fill-rule="evenodd" stroke="none"/>
    <path d="M34.5 -2.4 Q34.5 -4.25 37.15 -4.8 39.8 -5.35 39.8 -3.4 39.8 -2.5 39.35 -1.85 38.6 -0.75 37.0 -0.75 35.35 -0.75 34.75 -1.55 L34.5 -2.4 M31.25 -1.25 Q31.25 -2.85 32.65 -2.6 34.05 -2.35 34.05 -1.15 L33.6 -0.2 32.65 0.25 Q31.65 0.25 31.35 -0.6 L31.25 -1.25 M57.4 -1.5 Q56.4 -1.5 56.1 -2.35 L56.0 -3.05 Q56.0 -4.8 57.4 -4.6 58.8 -4.4 58.8 -3.05 58.8 -1.5 57.4 -1.5 M62.0 -3.45 Q61.75 -3.7 61.75 -4.35 61.75 -5.95 65.05 -6.05 68.35 -6.15 68.35 -4.4 68.35 -3.6 67.75 -3.25 67.0 -2.75 64.9 -2.75 62.7 -2.75 62.0 -3.45 M98.95 -5.1 Q100.6 -5.15 100.6 -3.65 100.6 -1.9 98.1 -1.9 97.0 -1.9 96.65 -2.65 L96.55 -3.25 96.55 -3.45 Q96.55 -4.9 98.6 -5.1 L98.95 -5.1 M135.5 3.5 Q137.25 3.15 137.25 4.9 137.25 5.45 136.5 6.25 135.7 7.05 135.15 7.05 134.15 7.05 133.85 6.35 L133.75 5.55 Q133.75 3.8 135.5 3.5 M-95.3 -1.4 Q-94.85 -1.1 -94.85 -0.2 -94.85 0.25 -95.25 0.75 -95.8 1.4 -96.55 1.4 -97.7 1.4 -97.95 0.7 L-98.05 0.0 Q-98.05 -0.85 -97.45 -1.25 L-96.45 -1.6 -95.3 -1.4 M-110.8 -0.05 Q-110.0 0.2 -110.0 1.2 -110.0 1.8 -110.35 2.25 -110.75 2.65 -111.35 2.65 -112.35 2.65 -112.65 1.8 L-112.75 1.15 Q-112.75 -0.15 -111.35 -0.1 L-111.25 -0.1 -110.8 -0.05 M-23.3 0.65 Q-23.3 -1.05 -21.55 -1.4 -19.8 -1.75 -19.8 0.5 -19.8 2.35 -21.55 2.35 -22.85 2.35 -23.2 1.55 L-23.3 0.65 M-28.0 0.2 Q-28.0 -1.25 -26.5 -1.4 -25.0 -1.6 -25.0 0.1 -25.0 1.65 -26.5 1.65 -28.15 1.65 -28.0 0.2 M-124.5 11.0 Q-124.85 11.75 -125.6 11.75 -126.65 11.75 -126.9 10.9 L-127.0 10.05 Q-127.0 8.2 -125.6 8.35 -124.25 8.5 -124.25 10.05 L-124.5 11.0" fill="#dbe7f0" fill-rule="evenodd" stroke="none"/>
  </g>
</svg>
