<?xml version="1.0" encoding="UTF-8" standalone="no"?>
<svg xmlns:ffdec="https://www.free-decompiler.com/flash" xmlns:xlink="http://www.w3.org/1999/xlink" ffdec:objectType="shape" height="21.75px" width="231.9px" xmlns="http://www.w3.org/2000/svg">
  <g transform="matrix(1.0, 0.0, 0.0, 1.0, 114.4, 7.6)">
    <path d="M-72.45 2.8 Q-73.85 4.5 -76.4 4.5 -78.55 4.5 -79.15 3.0 -79.5 2.25 -79.4 1.35 -79.4 -0.15 -78.85 -1.25 -78.6 -5.6 -74.7 -7.2 L-71.8 -7.3 Q-70.55 -6.65 -70.5 -4.85 L-71.0 -5.25 Q-71.15 -7.2 -73.4 -6.4 -75.85 -5.55 -75.85 -4.25 L-75.75 -3.45 Q-75.5 -2.75 -74.35 -2.75 -74.1 -2.75 -73.6 -3.05 L-73.75 -2.75 Q-74.55 -0.45 -76.2 0.25 -77.5 0.8 -77.5 2.65 L-77.4 3.4 Q-77.15 4.1 -76.1 4.1 -74.9 4.0 -73.75 3.5 L-72.45 2.8 M-64.65 -1.25 L-64.55 -0.45 Q-64.3 0.25 -63.25 0.25 -61.3 0.25 -60.25 -0.45 -59.35 -1.0 -59.35 -1.75 -59.35 -3.65 -62.0 -3.2 -64.65 -2.75 -64.65 -1.25 M-52.35 -1.8 Q-50.05 -0.7 -49.6 0.55 -49.05 1.25 -49.05 2.45 -49.05 3.45 -49.85 4.5 -50.9 5.85 -52.75 5.85 -53.8 5.85 -54.45 5.45 L-56.0 5.5 Q-61.35 5.5 -61.85 4.5 L-62.1 3.8 Q-62.35 3.5 -63.5 3.5 -66.15 3.5 -67.3 1.3 L-67.9 -0.5 Q-67.9 -4.45 -58.7 -3.4 -55.0 -3.0 -52.35 -1.8 M-42.75 7.05 Q-44.25 6.45 -45.15 5.3 -46.15 4.05 -46.2 2.85 -46.2 -1.25 -40.6 0.7 L-39.1 1.3 Q-37.45 0.45 -34.6 -0.75 -26.95 -4.0 -22.25 -4.0 -20.7 -4.0 -15.85 -2.1 -12.7 -0.9 -11.1 -0.45 -9.85 -1.3 -7.1 -0.8 L-6.0 -1.1 2.5 -2.0 Q5.05 -2.0 8.25 -1.1 L11.0 -0.25 25.1 -0.75 Q26.05 -0.75 26.3 -1.05 L26.9 -1.7 Q28.2 -2.7 35.0 -3.0 L38.35 -3.3 43.6 -3.5 46.95 -3.9 50.25 -4.35 58.65 -5.45 Q67.55 -6.15 70.6 -4.1 L74.5 -4.25 Q75.45 -4.7 75.55 -5.45 L81.75 -6.0 88.2 -5.6 Q88.8 -5.35 88.6 -4.25 L88.85 -3.9 89.0 -2.9 Q89.0 -1.65 87.9 -0.8 L87.75 -0.65 Q87.65 -1.35 87.05 -1.7 85.85 -2.4 83.05 -1.05 L75.05 -0.1 65.55 0.0 Q63.55 0.65 60.45 2.1 56.45 4.0 55.3 5.25 52.65 4.65 50.6 6.2 L48.9 7.9 45.0 7.3 Q42.85 7.3 41.7 8.4 L40.25 10.1 Q38.4 10.3 37.1 10.75 L34.5 11.1 26.3 10.45 Q25.3 9.7 24.55 9.4 L31.5 7.75 32.9 8.05 Q34.8 8.05 35.8 7.05 36.6 6.3 36.6 5.4 36.6 4.85 34.25 3.6 33.45 3.6 32.7 3.95 L31.5 3.6 31.5 3.25 30.65 3.8 28.65 4.55 26.2 5.5 Q25.8 5.5 25.45 5.05 25.15 4.6 24.5 4.6 24.0 4.6 22.65 6.7 L22.45 6.3 Q21.9 4.75 21.5 4.55 L14.1 5.5 10.5 6.0 Q8.15 6.0 7.1 5.15 6.35 4.55 4.1 4.35 L4.15 4.6 Q4.15 5.6 3.65 6.45 2.85 7.8 1.1 7.8 L-1.65 7.6 Q1.1 6.25 1.1 5.8 1.1 3.4 -3.0 5.15 -9.2 7.8 -11.9 7.8 L-12.6 7.2 Q-13.15 6.55 -13.9 6.55 -14.7 6.55 -15.15 7.05 L-15.5 8.05 -14.35 9.6 Q-16.5 9.0 -17.25 7.75 -17.95 6.65 -17.5 5.6 -17.5 4.7 -17.15 4.0 L-17.7 3.8 -17.7 3.9 Q-17.7 6.05 -19.8 6.65 L-20.0 6.05 Q-20.35 5.35 -21.25 5.35 -21.9 5.35 -22.4 5.85 L-23.0 6.6 Q-26.75 5.0 -29.1 5.55 L-29.85 5.8 -29.85 4.7 -29.8 3.8 -30.3 4.05 Q-32.35 5.25 -34.65 5.75 -35.05 4.2 -38.65 4.7 -42.75 5.25 -42.75 6.55 L-42.75 7.05 M67.3 3.0 Q66.15 3.85 64.1 4.0 L65.85 3.0 67.3 3.0 M47.0 10.5 Q45.45 11.25 45.0 11.25 L43.8 10.95 44.3 10.35 46.1 10.3 47.0 10.5 M-25.35 8.65 L-26.6 8.8 -27.9 8.6 -27.6 8.55 -25.5 8.5 -25.35 8.65 M44.8 -2.7 Q41.75 -2.25 41.75 -0.15 L41.85 0.9 Q42.3 1.9 44.0 1.9 44.85 1.9 46.35 0.7 47.8 -0.5 47.8 -1.1 47.8 -3.1 44.8 -2.7 M-27.3 -0.45 Q-27.3 -2.05 -29.25 -2.0 -31.25 -1.9 -31.25 0.2 L-31.15 0.95 Q-30.9 1.65 -29.85 1.65 -29.15 1.65 -28.2 0.85 -27.3 0.1 -27.3 -0.45 M-22.3 -3.75 Q-25.25 -3.5 -25.25 -1.65 -25.25 0.25 -22.55 0.25 -21.15 0.25 -20.25 -0.4 -19.35 -1.05 -19.35 -2.0 -19.35 -4.0 -22.3 -3.75 M96.0 -3.05 Q96.0 -5.9 99.0 -5.75 102.0 -5.55 102.0 -2.9 102.0 -1.75 101.1 -0.85 100.25 0.0 99.0 0.0 96.95 0.0 96.25 -1.75 L96.0 -3.05 M99.0 -1.75 Q100.35 -1.75 100.35 -3.55 100.35 -5.25 98.95 -5.25 97.55 -5.3 97.55 -3.55 97.45 -3.2 97.6 -2.75 97.9 -1.75 99.0 -1.75 M116.65 4.6 Q115.7 5.5 114.25 5.5 111.55 5.5 110.5 3.75 L110.0 2.0 Q110.0 -1.35 113.75 -0.8 117.5 -0.25 117.5 2.5 117.5 3.7 116.65 4.6 M113.6 3.1 Q114.15 2.45 114.15 1.9 114.15 0.15 112.5 0.65 110.85 1.1 110.85 2.4 L111.0 3.15 Q111.35 3.85 112.25 3.85 112.95 3.85 113.6 3.1 M43.15 4.75 L43.6 3.55 Q43.6 1.7 42.0 1.85 40.35 1.95 40.35 3.8 40.35 4.3 40.5 4.6 40.8 5.35 41.75 5.35 42.65 5.35 43.15 4.75 M-10.9 4.9 Q-10.5 4.5 -10.5 3.65 -10.5 1.5 -12.6 2.05 -14.75 2.6 -14.75 3.8 -14.75 5.35 -12.55 5.35 -11.4 5.35 -10.9 4.9 M-7.05 2.65 Q-5.8 1.7 -5.8 1.05 -5.8 -1.15 -8.15 -0.35 -10.5 0.5 -10.5 2.15 -10.6 3.6 -9.05 3.6 -8.3 3.6 -7.05 2.65 M-51.5 4.6 Q-50.65 4.1 -50.65 2.8 -50.65 0.4 -52.05 0.95 -55.4 2.25 -57.1 2.25 L-60.55 2.65 Q-60.9 2.85 -60.9 3.65 -61.1 4.15 -60.7 4.55 -60.0 5.35 -57.25 5.35 -52.85 5.35 -51.5 4.6 M-88.9 7.6 Q-89.75 9.0 -91.4 9.0 -95.4 9.0 -97.3 5.8 -98.25 4.2 -98.4 2.4 -98.4 0.45 -96.85 -0.15 L-93.4 0.0 Q-88.4 1.65 -88.4 5.85 -88.4 6.65 -88.9 7.6 M-90.5 7.9 Q-89.4 7.1 -89.4 6.35 -89.4 4.25 -91.85 4.95 -94.3 5.7 -94.3 7.3 L-94.2 8.05 Q-93.95 8.75 -92.9 8.75 -91.65 8.75 -90.5 7.9 M-95.25 3.6 Q-93.85 3.6 -93.85 2.1 -93.85 0.7 -95.4 0.5 -97.0 0.3 -97.0 1.95 L-96.75 2.75 Q-96.3 3.6 -95.25 3.6 M-111.15 7.5 Q-113.45 7.5 -114.15 6.0 L-114.4 4.35 Q-114.4 1.75 -109.9 0.15 -105.4 -1.45 -105.4 2.65 -105.4 4.2 -106.9 5.75 -108.7 7.5 -111.15 7.5 M-110.3 4.1 Q-109.45 4.1 -108.85 3.3 -108.3 2.65 -108.3 2.05 -108.3 0.15 -110.05 0.65 -111.8 1.15 -111.8 2.65 L-111.7 3.4 Q-111.4 4.1 -110.3 4.1" fill="#92e1f7" fill-rule="evenodd" stroke="none"/>
    <path d="M-70.5 -4.85 Q-70.0 -4.25 -70.0 -3.15 -70.0 -2.5 -70.45 -1.8 -71.05 -0.95 -71.25 0.75 -71.4 1.95 -72.45 2.8 L-73.75 3.5 Q-74.9 4.0 -76.1 4.1 -77.15 4.1 -77.4 3.4 L-77.5 2.65 Q-77.5 0.8 -76.2 0.25 -74.55 -0.45 -73.75 -2.75 L-73.6 -3.05 -73.6 -3.1 Q-73.05 -3.5 -72.9 -3.5 -71.0 -3.5 -71.0 -5.0 L-71.0 -5.25 -70.5 -4.85 M87.75 -0.65 L87.75 -0.45 Q87.75 0.45 85.15 0.95 L75.15 2.9 67.3 3.0 65.85 3.0 64.1 4.0 60.55 5.95 Q57.3 7.7 52.75 8.4 52.3 8.55 51.45 9.9 50.75 11.0 49.3 11.0 L47.6 10.65 47.0 10.5 46.1 10.3 44.3 10.35 43.8 10.95 42.3 12.5 Q39.7 14.15 34.4 14.15 26.15 14.15 22.9 11.85 21.25 10.65 21.25 9.25 21.25 8.8 22.6 6.75 L22.65 6.7 Q24.0 4.6 24.5 4.6 25.15 4.6 25.45 5.05 25.8 5.5 26.2 5.5 L28.65 4.55 30.65 3.8 31.25 3.6 31.5 3.6 32.7 3.95 Q32.25 4.1 31.8 4.4 30.55 5.25 30.55 6.05 L30.85 7.1 31.5 7.75 24.55 9.4 Q25.3 9.7 26.3 10.45 L34.5 11.1 37.1 10.75 Q38.4 10.3 40.25 10.1 L41.7 8.4 Q42.85 7.3 45.0 7.3 L48.9 7.9 50.6 6.2 Q52.65 4.65 55.3 5.25 56.45 4.0 60.45 2.1 63.55 0.65 65.55 0.0 L75.05 -0.1 83.05 -1.05 Q85.85 -2.4 87.05 -1.7 87.65 -1.35 87.75 -0.65 M-1.65 7.6 L-4.1 8.75 Q-9.55 11.25 -11.9 11.25 -12.95 11.25 -14.35 9.6 L-15.5 8.05 -15.15 7.05 Q-14.7 6.55 -13.9 6.55 -13.15 6.55 -12.6 7.2 L-11.9 7.8 Q-9.2 7.8 -3.0 5.15 1.1 3.4 1.1 5.8 1.1 6.25 -1.65 7.6 M-19.8 6.65 L-19.8 6.85 Q-19.8 7.6 -20.75 8.6 -21.8 9.75 -22.9 9.75 -24.1 9.75 -24.8 9.15 L-25.35 8.65 -25.5 8.5 -27.6 8.55 -27.9 8.6 -28.9 8.75 Q-30.55 8.75 -30.9 8.05 L-31.0 7.3 Q-31.0 6.3 -29.85 5.8 L-29.1 5.55 Q-26.75 5.0 -23.0 6.6 L-22.4 5.85 Q-21.9 5.35 -21.25 5.35 -20.35 5.35 -20.0 6.05 L-19.8 6.65 M-34.65 5.75 L-34.6 6.1 Q-34.6 7.0 -35.5 7.4 -36.75 8.05 -40.15 8.05 -42.1 8.05 -42.6 7.35 L-42.75 7.05 -42.75 6.55 Q-42.75 5.25 -38.65 4.7 -35.05 4.2 -34.65 5.75 M-51.5 4.6 Q-52.85 5.35 -57.25 5.35 -60.0 5.35 -60.7 4.55 -61.1 4.15 -60.9 3.65 -60.9 2.85 -60.55 2.65 L-57.1 2.25 Q-55.4 2.25 -52.05 0.95 -50.65 0.4 -50.65 2.8 -50.65 4.1 -51.5 4.6 M-90.5 7.9 Q-91.65 8.75 -92.9 8.75 -93.95 8.75 -94.2 8.05 L-94.3 7.3 Q-94.3 5.7 -91.85 4.95 -89.4 4.25 -89.4 6.35 -89.4 7.1 -90.5 7.9" fill="#589bdb" fill-rule="evenodd" stroke="none"/>
    <path d="M-73.6 -3.05 Q-74.1 -2.75 -74.35 -2.75 -75.5 -2.75 -75.75 -3.45 L-75.85 -4.25 Q-75.85 -5.55 -73.4 -6.4 -71.15 -7.2 -71.0 -5.25 L-71.0 -5.0 Q-71.0 -3.5 -72.9 -3.5 -73.05 -3.5 -73.6 -3.1 L-73.6 -3.05 M-64.65 -1.25 Q-64.65 -2.75 -62.0 -3.2 -59.35 -3.65 -59.35 -1.75 -59.35 -1.0 -60.25 -0.45 -61.3 0.25 -63.25 0.25 -64.3 0.25 -64.55 -0.45 L-64.65 -1.25 M-22.3 -3.75 Q-19.35 -4.0 -19.35 -2.0 -19.35 -1.05 -20.25 -0.4 -21.15 0.25 -22.55 0.25 -25.25 0.25 -25.25 -1.65 -25.25 -3.5 -22.3 -3.75 M-27.3 -0.45 Q-27.3 0.1 -28.2 0.85 -29.15 1.65 -29.85 1.65 -30.9 1.65 -31.15 0.95 L-31.25 0.2 Q-31.25 -1.9 -29.25 -2.0 -27.3 -2.05 -27.3 -0.45 M44.8 -2.7 Q47.8 -3.1 47.8 -1.1 47.8 -0.5 46.35 0.7 44.85 1.9 44.0 1.9 42.3 1.9 41.85 0.9 L41.75 -0.15 Q41.75 -2.25 44.8 -2.7 M99.0 -1.75 Q97.9 -1.75 97.6 -2.75 97.45 -3.2 97.55 -3.55 97.55 -5.3 98.95 -5.25 100.35 -5.25 100.35 -3.55 100.35 -1.75 99.0 -1.75 M113.6 3.1 Q112.95 3.85 112.25 3.85 111.35 3.85 111.0 3.15 L110.85 2.4 Q110.85 1.1 112.5 0.65 114.15 0.15 114.15 1.9 114.15 2.45 113.6 3.1 M43.15 4.75 Q42.65 5.35 41.75 5.35 40.8 5.35 40.5 4.6 40.35 4.3 40.35 3.8 40.35 1.95 42.0 1.85 43.6 1.7 43.6 3.55 L43.15 4.75 M32.7 3.95 Q33.45 3.6 34.25 3.6 36.6 4.85 36.6 5.4 36.6 6.3 35.8 7.05 34.8 8.05 32.9 8.05 L31.5 7.75 30.85 7.1 30.55 6.05 Q30.55 5.25 31.8 4.4 32.25 4.1 32.7 3.95 M-7.05 2.65 Q-8.3 3.6 -9.05 3.6 -10.6 3.6 -10.5 2.15 -10.5 0.5 -8.15 -0.35 -5.8 -1.15 -5.8 1.05 -5.8 1.7 -7.05 2.65 M-10.9 4.9 Q-11.4 5.35 -12.55 5.35 -14.75 5.35 -14.75 3.8 -14.75 2.6 -12.6 2.05 -10.5 1.5 -10.5 3.65 -10.5 4.5 -10.9 4.9 M-95.25 3.6 Q-96.3 3.6 -96.75 2.75 L-97.0 1.95 Q-97.0 0.3 -95.4 0.5 -93.85 0.7 -93.85 2.1 -93.85 3.6 -95.25 3.6 M-110.3 4.1 Q-111.4 4.1 -111.7 3.4 L-111.8 2.65 Q-111.8 1.15 -110.05 0.65 -108.3 0.15 -108.3 2.05 -108.3 2.65 -108.85 3.3 -109.45 4.1 -110.3 4.1" fill="#dbe7f0" fill-rule="evenodd" stroke="none"/>
  </g>
</svg>
