<?xml version="1.0" encoding="UTF-8" standalone="no"?>
<svg xmlns:ffdec="https://www.free-decompiler.com/flash" xmlns:xlink="http://www.w3.org/1999/xlink" ffdec:objectType="shape" height="22.25px" width="230.9px" xmlns="http://www.w3.org/2000/svg">
  <g transform="matrix(1.0, 0.0, 0.0, 1.0, 109.9, 6.25)">
    <path d="M-66.25 -5.25 L-65.05 -5.75 Q-63.2 -6.05 -58.95 -4.5 -53.65 -2.4 -50.75 -1.45 -45.6 0.3 -42.0 0.3 L-38.0 -0.25 -29.25 0.05 Q-28.6 0.15 -25.9 -0.65 L-22.0 -1.5 Q-19.8 -1.5 -18.65 -0.5 L-18.05 -0.75 -9.0 -1.5 Q-0.5 -1.5 0.95 -0.45 1.85 0.25 1.85 2.25 L5.25 2.25 Q6.5 0.85 7.3 0.45 10.35 -1.0 17.25 -1.0 L22.55 -0.45 27.85 0.05 31.3 -0.45 34.75 -1.0 Q39.2 -1.0 42.05 0.15 44.9 1.3 51.35 1.3 52.75 1.3 56.5 -1.6 60.8 -4.95 64.0 -6.0 L78.0 -6.0 Q85.5 -5.85 85.5 -2.25 85.5 0.4 83.0 1.7 78.4 4.15 65.5 3.5 57.8 3.1 56.45 5.75 L55.5 7.6 Q54.7 8.5 52.5 8.5 50.15 8.5 49.35 7.8 48.55 7.05 44.0 7.0 40.8 6.95 39.3 6.05 37.9 5.25 34.65 5.25 L31.35 5.9 28.0 6.5 25.35 6.05 23.15 5.6 23.75 4.65 Q23.75 3.15 19.4 2.75 15.05 2.35 15.05 4.15 15.05 4.8 16.2 5.75 L16.9 6.2 16.65 7.5 Q15.85 9.0 13.0 9.0 L11.45 8.9 10.85 8.75 10.75 8.75 12.0 7.7 Q13.0 6.6 13.0 5.8 13.05 4.3 11.6 4.3 10.8 4.3 10.55 4.65 L10.35 5.0 6.8 4.7 Q3.25 5.0 3.25 7.8 L3.35 8.55 3.4 8.65 -5.0 8.5 Q-7.7 8.1 -9.25 6.75 -10.65 5.6 -10.5 4.55 L-14.1 4.8 -16.25 5.0 Q-18.05 5.0 -18.95 4.4 L-22.15 4.75 Q-23.4 4.75 -26.85 5.9 -30.3 7.0 -33.75 7.0 L-36.65 6.55 -39.55 6.05 -42.25 6.2 -43.2 6.3 Q-42.5 5.85 -42.5 5.3 -42.5 2.65 -44.1 3.45 -47.15 5.0 -47.5 5.0 L-53.25 5.2 Q-54.1 5.4 -54.15 6.45 L-54.55 6.1 -56.0 4.55 Q-57.5 3.35 -59.95 4.15 -62.35 4.9 -64.55 3.25 L-64.75 3.05 -62.7 2.75 Q-61.85 2.45 -61.85 1.4 -61.85 1.0 -62.2 0.55 -62.75 -0.25 -64.05 -0.25 L-68.25 0.1 -69.15 -1.0 Q-70.05 -1.9 -71.45 -1.9 -72.35 -1.9 -73.3 -1.3 -74.2 -0.75 -74.75 -0.8 L-74.75 -0.9 Q-73.6 -2.05 -73.6 -2.4 -73.6 -4.3 -77.55 -4.3 L-78.15 -4.25 Q-77.05 -6.45 -71.7 -6.0 L-69.25 -5.65 Q-71.25 -5.6 -71.25 -4.25 -71.25 -2.15 -66.15 -2.15 -65.3 -2.15 -64.85 -2.6 -64.4 -3.0 -64.4 -3.65 -64.4 -4.7 -66.25 -5.25 M8.1 8.7 L6.5 8.7 7.45 8.35 8.1 8.7 M-71.1 1.3 L-71.8 1.2 -71.4 1.0 -71.1 1.3 M-75.45 2.05 L-75.4 2.85 Q-75.4 4.1 -76.2 5.0 -77.1 6.0 -78.65 6.0 -81.4 6.0 -82.4 4.25 -82.95 3.4 -82.9 2.5 -82.9 0.25 -81.1 -0.25 -80.3 0.45 -77.65 0.3 -77.3 1.75 -75.45 2.05 M79.5 -2.65 L79.0 -2.6 Q75.35 -1.95 75.35 0.6 L75.4 1.65 Q75.75 2.65 77.4 2.65 80.15 2.65 82.0 -0.05 82.35 -0.15 82.65 -0.5 L83.0 -1.45 Q83.0 -3.15 81.2 -3.4 79.8 -3.6 79.5 -2.65 M65.55 -4.85 Q61.75 -3.7 61.75 -0.75 61.75 -0.3 61.9 0.0 62.25 0.65 63.15 0.65 69.3 -3.15 69.3 -3.45 69.3 -6.0 65.55 -4.85 M99.65 -1.35 L99.6 -1.35 Q98.75 -0.5 97.5 -0.5 95.45 -0.5 94.75 -2.25 L94.5 -3.55 Q94.5 -6.35 97.5 -6.25 100.5 -6.1 100.5 -3.4 L100.3 -2.3 100.35 -3.05 Q100.35 -4.7 99.0 -4.75 98.95 -6.25 97.15 -6.1 95.25 -6.0 95.25 -4.05 95.25 -3.6 95.4 -3.2 95.7 -2.4 96.6 -2.4 96.9 -2.4 97.55 -2.9 L97.6 -2.3 Q97.9 -1.25 99.0 -1.25 L99.65 -1.35 M-4.4 -0.25 L-10.75 -0.25 Q-12.35 0.15 -12.8 0.5 -13.25 0.85 -13.25 1.65 -13.25 2.4 -12.9 2.7 L-10.35 3.1 -4.4 2.65 Q-3.0 2.25 -3.0 1.2 -3.0 0.2 -4.4 -0.25 M-12.5 10.5 Q-12.5 11.85 -13.3 12.55 -14.4 13.5 -17.0 13.5 -21.6 13.5 -23.75 11.0 -24.85 9.75 -25.0 8.5 -25.0 5.7 -22.05 5.55 L-17.0 6.0 Q-14.5 6.0 -13.25 8.2 -12.6 9.3 -12.5 10.5 M-27.0 4.3 Q-26.35 3.95 -26.35 3.1 -26.35 1.1 -30.8 0.55 -35.25 0.05 -35.25 2.95 -35.25 4.2 -33.8 4.55 L-30.45 4.8 -27.0 4.3 M-79.9 3.0 Q-79.6 2.5 -79.6 1.8 -79.6 0.15 -81.0 0.1 -82.4 0.05 -82.4 1.75 L-82.35 2.55 Q-82.1 3.6 -81.0 3.6 -80.3 3.6 -79.9 3.0 M-91.9 5.55 Q-91.9 6.55 -92.4 7.5 -93.25 9.0 -94.9 9.0 -97.0 9.0 -97.65 7.25 L-97.9 5.5 Q-97.9 1.75 -94.9 2.05 -91.9 2.3 -91.9 5.55 M-95.25 5.8 Q-94.65 5.8 -94.25 5.4 -93.85 5.0 -93.85 4.4 -93.85 3.15 -95.25 3.0 -96.65 2.9 -96.65 4.3 L-96.55 5.0 Q-96.25 5.8 -95.25 5.8 M-103.4 8.05 Q-104.2 9.5 -105.9 9.5 -108.4 9.5 -109.4 7.75 -109.9 6.9 -109.9 6.0 -109.9 2.75 -106.4 3.05 -102.9 3.4 -102.9 6.35 -102.9 7.15 -103.4 8.05 M118.0 6.0 Q115.1 6.0 113.75 3.5 L113.0 1.35 Q113.0 -2.05 117.0 -1.25 121.0 -0.4 121.0 2.6 121.0 3.8 120.4 4.75 119.55 6.0 118.0 6.0 M118.35 5.1 Q119.1 5.1 119.5 4.5 L119.75 3.5 Q119.75 1.9 118.1 1.55 116.4 1.2 116.4 2.8 L116.75 3.85 Q117.3 5.1 118.35 5.1 M53.0 4.65 Q53.9 4.35 53.9 3.35 53.9 1.5 49.35 1.85 44.75 2.2 44.75 3.55 L44.85 4.35 Q45.25 5.1 46.45 5.1 L53.0 4.65 M116.0 2.4 L116.25 1.5 Q116.25 -0.1 114.9 -0.15 113.5 -0.2 113.5 1.45 L113.6 2.3 Q113.85 3.1 114.85 3.1 115.6 3.1 116.0 2.4 M45.15 15.1 Q43.95 16.0 41.0 16.0 34.3 16.0 32.25 14.0 31.6 13.35 31.5 12.6 L31.5 11.85 Q31.5 10.4 33.75 9.45 35.9 8.6 38.75 8.6 46.0 8.65 46.0 13.0 46.0 14.4 45.15 15.1 M34.85 3.0 Q37.45 3.85 39.4 3.85 40.8 3.85 40.8 2.4 40.8 1.05 36.4 0.2 32.0 -0.6 32.0 1.15 32.0 2.05 34.85 3.0 M37.65 13.9 Q39.05 13.9 40.0 13.05 40.8 12.35 40.8 11.55 40.8 9.3 38.5 10.25 36.15 11.15 36.15 12.45 L36.25 13.2 Q36.6 13.9 37.65 13.9" fill="#92e1f7" fill-rule="evenodd" stroke="none"/>
    <path d="M23.15 5.6 L22.75 6.0 Q21.6 7.05 20.65 7.05 18.4 7.05 16.9 6.2 L16.2 5.75 Q15.05 4.8 15.05 4.15 15.05 2.35 19.4 2.75 23.75 3.15 23.75 4.65 L23.15 5.6 M10.75 8.75 L9.65 9.0 8.1 8.7 7.45 8.35 6.5 8.7 4.75 9.25 Q3.7 9.25 3.4 8.65 L3.35 8.55 3.25 7.8 Q3.25 5.0 6.8 4.7 L10.35 5.0 10.55 4.65 Q10.8 4.3 11.6 4.3 13.05 4.3 13.0 5.8 13.0 6.6 12.0 7.7 L10.75 8.75 M-43.2 6.3 Q-44.25 6.9 -46.6 7.35 L-50.75 7.9 -50.75 8.05 Q-53.2 8.0 -53.9 7.35 -54.3 7.0 -54.15 6.55 L-54.15 6.45 Q-54.1 5.4 -53.25 5.2 L-47.5 5.0 Q-47.15 5.0 -44.1 3.45 -42.5 2.65 -42.5 5.3 -42.5 5.85 -43.2 6.3 M-64.75 3.05 L-67.5 3.1 Q-69.95 3.1 -70.6 2.05 L-71.1 1.3 -71.4 1.0 -71.8 1.2 -72.3 1.55 Q-72.95 2.1 -74.6 2.1 L-75.45 2.05 Q-77.3 1.75 -77.65 0.3 -80.3 0.45 -81.1 -0.25 L-81.15 -0.3 Q-81.5 -0.65 -81.5 -1.55 -81.5 -4.05 -78.15 -4.25 L-77.55 -4.3 Q-73.6 -4.3 -73.6 -2.4 -73.6 -2.05 -74.75 -0.9 L-74.75 -0.8 Q-74.2 -0.75 -73.3 -1.3 -72.35 -1.9 -71.45 -1.9 -70.05 -1.9 -69.15 -1.0 L-68.25 0.1 -64.05 -0.25 Q-62.75 -0.25 -62.2 0.55 -61.85 1.0 -61.85 1.4 -61.85 2.45 -62.7 2.75 L-64.75 3.05 M79.5 -2.65 Q79.8 -3.6 81.2 -3.4 83.0 -3.15 83.0 -1.45 L82.65 -0.5 Q82.35 -0.15 82.0 -0.05 80.15 2.65 77.4 2.65 75.75 2.65 75.4 1.65 L75.35 0.6 Q75.35 -1.95 79.0 -2.6 L79.5 -2.65 M99.65 -1.35 L99.0 -1.25 Q97.9 -1.25 97.6 -2.3 L97.55 -2.9 97.95 -3.2 Q99.0 -4.1 99.0 -4.65 L99.0 -4.75 Q100.35 -4.7 100.35 -3.05 L100.3 -2.3 99.65 -1.35 M118.35 5.1 Q117.3 5.1 116.75 3.85 L116.4 2.8 Q116.4 1.2 118.1 1.55 119.75 1.9 119.75 3.5 L119.5 4.5 Q119.1 5.1 118.35 5.1" fill="#589bdb" fill-rule="evenodd" stroke="none"/>
    <path d="M-69.25 -5.65 L-67.8 -5.6 -66.25 -5.25 Q-64.4 -4.7 -64.4 -3.65 -64.4 -3.0 -64.85 -2.6 -65.3 -2.15 -66.15 -2.15 -71.25 -2.15 -71.25 -4.25 -71.25 -5.6 -69.25 -5.65 M65.55 -4.85 Q69.3 -6.0 69.3 -3.45 69.3 -3.15 63.15 0.65 62.25 0.65 61.9 0.0 61.75 -0.3 61.75 -0.75 61.75 -3.7 65.55 -4.85 M97.55 -2.9 Q96.9 -2.4 96.6 -2.4 95.7 -2.4 95.4 -3.2 95.25 -3.6 95.25 -4.05 95.25 -6.0 97.15 -6.1 98.95 -6.25 99.0 -4.75 L99.0 -4.65 Q99.0 -4.1 97.95 -3.2 L97.55 -2.9 M-4.4 -0.25 Q-3.0 0.2 -3.0 1.2 -3.0 2.25 -4.4 2.65 L-10.35 3.1 -12.9 2.7 Q-13.25 2.4 -13.25 1.65 -13.25 0.85 -12.8 0.5 -12.35 0.15 -10.75 -0.25 L-4.4 -0.25 M-27.0 4.3 L-30.45 4.8 -33.8 4.55 Q-35.25 4.2 -35.25 2.95 -35.25 0.05 -30.8 0.55 -26.35 1.1 -26.35 3.1 -26.35 3.95 -27.0 4.3 M-79.9 3.0 Q-80.3 3.6 -81.0 3.6 -82.1 3.6 -82.35 2.55 L-82.4 1.75 Q-82.4 0.05 -81.0 0.1 -79.6 0.15 -79.6 1.8 -79.6 2.5 -79.9 3.0 M-95.25 5.8 Q-96.25 5.8 -96.55 5.0 L-96.65 4.3 Q-96.65 2.9 -95.25 3.0 -93.85 3.15 -93.85 4.4 -93.85 5.0 -94.25 5.4 -94.65 5.8 -95.25 5.8 M116.0 2.4 Q115.6 3.1 114.85 3.1 113.85 3.1 113.6 2.3 L113.5 1.45 Q113.5 -0.2 114.9 -0.15 116.25 -0.1 116.25 1.5 L116.0 2.4 M53.0 4.65 L46.45 5.1 Q45.25 5.1 44.85 4.35 L44.75 3.55 Q44.75 2.2 49.35 1.85 53.9 1.5 53.9 3.35 53.9 4.35 53.0 4.65 M34.85 3.0 Q32.0 2.05 32.0 1.15 32.0 -0.6 36.4 0.2 40.8 1.05 40.8 2.4 40.8 3.85 39.4 3.85 37.45 3.85 34.85 3.0 M37.65 13.9 Q36.6 13.9 36.25 13.2 L36.15 12.45 Q36.15 11.15 38.5 10.25 40.8 9.3 40.8 11.55 40.8 12.35 40.0 13.05 39.05 13.9 37.65 13.9" fill="#dbe7f0" fill-rule="evenodd" stroke="none"/>
  </g>
</svg>
