<?xml version="1.0" encoding="UTF-8" standalone="no"?>
<svg xmlns:ffdec="https://www.free-decompiler.com/flash" xmlns:xlink="http://www.w3.org/1999/xlink" ffdec:objectType="shape" height="25.0px" width="249.9px" xmlns="http://www.w3.org/2000/svg">
  <g transform="matrix(1.0, 0.0, 0.0, 1.0, 121.4, 6.0)">
    <path d="M35.9 -0.2 Q35.9 -3.05 31.1 -0.55 L25.85 2.55 21.9 2.45 Q21.3 2.55 21.25 3.55 19.8 3.9 19.8 5.05 L20.0 5.95 Q20.45 6.8 21.9 6.8 22.9 6.8 23.4 6.05 L23.7 5.45 27.5 5.6 Q29.55 5.6 30.25 5.0 L30.55 4.05 Q30.55 3.6 33.25 2.3 35.9 1.05 35.9 -0.2 M-63.4 -4.25 L-60.65 -4.05 Q-52.85 -2.85 -52.75 1.25 L-42.75 1.3 -25.0 -1.0 Q-5.35 1.25 -1.5 3.0 L11.2 3.0 Q11.55 -0.45 19.8 -0.1 23.25 0.05 25.7 1.05 L25.8 1.1 26.2 0.6 Q29.25 -2.85 30.5 -2.85 L40.75 -1.75 47.15 -0.9 47.8 -1.3 Q50.45 -2.85 53.4 -3.7 59.55 -5.5 61.05 -2.9 L70.0 -3.15 73.85 -3.65 76.6 -4.15 76.55 -3.95 76.65 -3.15 Q76.95 -2.4 78.0 -2.4 80.85 -2.4 82.1 -3.05 81.5 -2.25 81.5 -1.65 L81.55 -0.65 Q82.05 0.25 84.6 0.25 86.85 0.25 87.5 -0.5 L88.4 -1.25 90.0 -0.75 92.9 -0.25 93.35 -0.3 94.0 0.35 92.25 0.5 84.75 0.5 Q83.3 0.4 83.3 1.9 83.3 3.05 84.75 3.35 L88.2 3.45 79.5 5.0 65.75 5.05 Q58.25 5.15 52.85 6.15 L38.75 8.25 27.95 9.65 13.5 11.0 10.3 10.55 Q10.75 10.0 10.75 9.15 10.75 6.9 8.05 7.25 5.6 7.5 5.35 9.1 L3.1 8.95 3.25 8.75 Q3.6 8.3 3.6 7.7 3.6 5.95 1.7 5.65 -0.25 5.4 -0.25 7.2 L0.1 8.25 0.55 8.75 -10.35 7.0 Q-19.25 5.05 -21.25 5.05 L-33.75 6.3 -48.5 7.5 Q-55.45 7.5 -57.15 6.4 L-58.0 5.6 -58.85 5.3 -58.8 4.8 Q-58.8 3.0 -61.7 3.1 -64.65 3.2 -64.65 5.25 L-64.55 6.05 -64.4 6.3 -66.0 6.5 Q-75.15 6.5 -81.95 0.85 -82.2 1.95 -83.15 2.5 -84.45 3.25 -87.5 3.25 -89.2 3.25 -90.25 4.15 -91.25 5.0 -92.9 5.0 -95.85 5.0 -96.65 3.5 -97.05 2.75 -96.9 1.85 -96.9 0.9 -94.55 -0.45 -92.25 -1.8 -89.4 -2.5 L-85.6 -3.05 -85.65 -2.7 Q-85.9 -1.25 -84.25 -1.25 -82.95 -1.25 -81.65 -2.3 -80.6 -3.15 -80.6 -3.65 -80.6 -5.6 -83.1 -5.05 -84.6 -4.75 -85.2 -3.95 -84.95 -5.15 -84.05 -5.65 -81.95 -6.85 -76.8 -4.0 L-75.75 -3.55 Q-74.05 -4.25 -70.95 -4.4 L-66.8 -4.15 Q-69.8 -3.45 -69.8 -2.25 L-69.7 -1.55 -69.8 -1.1 Q-69.9 0.5 -68.4 0.5 L-62.9 -0.15 Q-61.15 -0.8 -61.15 -1.75 -61.15 -2.85 -62.55 -3.15 -62.7 -3.95 -63.4 -4.25 M82.95 -4.85 L83.75 -4.75 83.55 -4.6 82.95 -4.05 83.0 -4.4 82.95 -4.85 M95.05 -2.35 Q98.0 -1.65 98.0 0.85 97.9 -0.5 95.05 -2.35 M97.95 1.55 L97.5 2.6 Q96.7 4.0 95.0 4.0 L90.25 3.55 93.1 3.6 Q95.75 3.6 97.0 2.75 L97.95 1.55 M-28.0 10.4 Q-28.0 7.05 -24.5 7.8 -21.0 8.55 -21.0 11.4 -21.0 12.35 -21.75 13.3 -22.7 14.5 -24.25 14.5 -26.5 14.5 -27.5 12.3 -27.95 11.25 -28.0 10.4 M-21.5 11.25 Q-21.5 9.95 -22.85 9.9 -24.25 9.85 -24.25 11.2 L-24.15 11.85 Q-23.85 12.75 -22.85 12.75 -22.25 12.75 -21.85 12.3 -21.5 11.85 -21.5 11.25 M-30.1 3.35 Q-25.65 3.35 -25.65 1.4 -25.65 -0.6 -28.55 -0.3 -31.5 -0.05 -31.5 1.9 -31.55 3.35 -30.1 3.35 M-84.35 11.4 L-81.3 9.45 Q-78.65 7.4 -78.65 7.05 -78.65 6.1 -80.75 5.05 -82.95 3.9 -83.85 5.25 L-85.3 7.9 -86.25 10.0 -86.1 10.75 Q-85.8 11.35 -85.1 11.5 L-85.9 11.5 Q-89.45 11.5 -90.3 9.65 L-90.4 7.6 Q-90.4 3.75 -87.9 3.3 L-81.4 3.5 Q-79.55 3.5 -78.8 4.95 -78.4 5.7 -78.4 6.5 -78.4 8.2 -80.4 9.75 -82.1 11.05 -84.35 11.4 M-87.65 3.85 Q-89.15 3.85 -89.15 5.4 L-89.0 6.25 Q-88.6 7.25 -87.55 7.25 -86.15 7.25 -86.15 5.55 -86.15 3.85 -87.65 3.85 M-114.4 11.0 Q-114.4 11.95 -115.3 13.05 -116.5 14.5 -118.4 14.5 -120.55 14.5 -121.15 13.0 L-121.4 11.35 Q-121.4 8.4 -117.9 8.05 -114.4 7.75 -114.4 11.0 M128.0 6.0 Q127.2 7.5 125.5 7.5 123.4 7.5 122.5 5.75 L122.0 4.0 Q122.0 1.2 125.25 0.65 128.5 0.05 128.5 4.05 128.5 5.05 128.0 6.0 M64.7 1.65 Q65.7 1.65 66.25 1.0 66.65 0.55 66.65 0.0 66.65 -1.5 64.85 -1.5 63.0 -1.5 63.0 0.0 L63.25 0.85 Q63.65 1.65 64.7 1.65 M56.3 3.85 Q58.55 3.85 58.55 1.8 58.55 -0.6 56.35 -0.35 54.1 -0.1 54.1 1.9 L54.25 2.9 Q54.75 3.85 56.3 3.85 M41.75 17.25 L41.5 15.75 Q41.5 11.45 47.25 11.7 49.55 11.8 51.2 12.9 53.0 14.05 53.0 15.85 53.0 17.4 52.25 18.0 51.0 19.0 47.25 19.0 42.9 19.0 41.75 17.25 M16.1 5.0 Q18.85 3.55 18.85 2.9 18.85 0.6 15.25 1.8 11.6 2.95 11.6 4.45 L11.65 5.4 Q11.95 6.3 13.0 6.3 13.55 6.3 16.1 5.0" fill="#92e1f7" fill-rule="evenodd" stroke="none"/>
    <path d="M88.2 3.45 L84.75 3.35 Q83.3 3.05 83.3 1.9 83.3 0.4 84.75 0.5 L92.25 0.5 94.0 0.35 93.35 -0.3 94.1 -0.7 Q94.5 -1.15 94.5 -1.8 L94.25 -2.85 95.05 -2.35 Q97.9 -0.5 98.0 0.85 L98.0 0.95 97.95 1.55 97.0 2.75 Q95.75 3.6 93.1 3.6 L90.25 3.55 88.2 3.45" fill="#7fc5db" fill-rule="evenodd" stroke="none"/>
    <path d="M-64.4 6.3 L-64.55 6.05 -64.65 5.25 Q-64.65 3.2 -61.7 3.1 -58.8 3.0 -58.8 4.8 L-58.85 5.3 -59.15 5.85 Q-59.6 6.25 -60.75 6.25 L-61.75 6.55 -62.8 6.8 Q-64.0 6.8 -64.4 6.3 M0.55 8.75 L0.1 8.25 -0.25 7.2 Q-0.25 5.4 1.7 5.65 3.6 5.95 3.6 7.7 3.6 8.3 3.25 8.75 L3.1 8.95 2.25 9.25 Q1.15 9.25 0.55 8.75 M5.35 9.1 Q5.6 7.5 8.05 7.25 10.75 6.9 10.75 9.15 10.75 10.0 10.3 10.55 9.6 11.25 8.0 11.25 6.2 11.25 5.55 10.45 L5.3 9.55 5.35 9.1 M93.35 -0.3 L92.9 -0.25 90.0 -0.75 88.4 -1.25 87.5 -0.5 Q86.85 0.25 84.6 0.25 82.05 0.25 81.55 -0.65 L81.5 -1.65 Q81.5 -2.25 82.1 -3.05 80.85 -2.4 78.0 -2.4 76.95 -2.4 76.65 -3.15 L76.55 -3.95 76.6 -4.15 Q76.85 -5.3 79.8 -5.8 82.55 -6.25 82.95 -4.85 L83.0 -4.4 82.95 -4.05 83.55 -4.6 83.75 -4.75 Q85.75 -6.45 86.4 -3.8 L87.25 -4.15 88.25 -4.4 90.55 -3.75 90.95 -4.35 Q91.4 -4.85 92.0 -4.85 93.3 -4.85 94.0 -3.35 L94.25 -2.85 94.5 -1.8 Q94.5 -1.15 94.1 -0.7 L93.35 -0.3 M-21.5 11.25 Q-21.5 11.85 -21.85 12.3 -22.25 12.75 -22.85 12.75 -23.85 12.75 -24.15 11.85 L-24.25 11.2 Q-24.25 9.85 -22.85 9.9 -21.5 9.95 -21.5 11.25 M-85.1 11.5 Q-85.8 11.35 -86.1 10.75 L-86.25 10.0 -85.3 7.9 -83.85 5.25 Q-82.95 3.9 -80.75 5.05 -78.65 6.1 -78.65 7.05 -78.65 7.4 -81.3 9.45 L-84.35 11.4 -84.8 11.5 -85.1 11.5 M56.3 3.85 Q54.75 3.85 54.25 2.9 L54.1 1.9 Q54.1 -0.1 56.35 -0.35 58.55 -0.6 58.55 1.8 58.55 3.85 56.3 3.85" fill="#589bdb" fill-rule="evenodd" stroke="none"/>
    <path d="M35.9 -0.2 Q35.9 1.05 33.25 2.3 30.55 3.6 30.55 4.05 L30.25 5.0 Q29.55 5.6 27.5 5.6 L23.7 5.45 23.4 6.05 Q22.9 6.8 21.9 6.8 20.45 6.8 20.0 5.95 L19.8 5.05 Q19.8 3.9 21.25 3.55 21.3 2.55 21.9 2.45 L25.85 2.55 31.1 -0.55 Q35.9 -3.05 35.9 -0.2 M-63.4 -4.25 Q-62.7 -3.95 -62.55 -3.15 -61.15 -2.85 -61.15 -1.75 -61.15 -0.8 -62.9 -0.15 L-68.4 0.5 Q-69.9 0.5 -69.8 -1.1 L-69.7 -1.55 -69.8 -2.25 Q-69.8 -3.45 -66.8 -4.15 L-66.15 -4.3 -63.4 -4.25 M-85.2 -3.95 Q-84.6 -4.75 -83.1 -5.05 -80.6 -5.6 -80.6 -3.65 -80.6 -3.15 -81.65 -2.3 -82.95 -1.25 -84.25 -1.25 -85.9 -1.25 -85.65 -2.7 L-85.6 -3.05 -85.2 -3.95 M-30.1 3.35 Q-31.55 3.35 -31.5 1.9 -31.5 -0.05 -28.55 -0.3 -25.65 -0.6 -25.65 1.4 -25.65 3.35 -30.1 3.35 M-87.65 3.85 Q-86.15 3.85 -86.15 5.55 -86.15 7.25 -87.55 7.25 -88.6 7.25 -89.0 6.25 L-89.15 5.4 Q-89.15 3.85 -87.65 3.85 M64.7 1.65 Q63.65 1.65 63.25 0.85 L63.0 0.0 Q63.0 -1.5 64.85 -1.5 66.65 -1.5 66.65 0.0 66.65 0.55 66.25 1.0 65.7 1.65 64.7 1.65 M16.1 5.0 Q13.55 6.3 13.0 6.3 11.95 6.3 11.65 5.4 L11.6 4.45 Q11.6 2.95 15.25 1.8 18.85 0.6 18.85 2.9 18.85 3.55 16.1 5.0" fill="#dbe7f0" fill-rule="evenodd" stroke="none"/>
  </g>
</svg>
