<?xml version="1.0" encoding="UTF-8" standalone="no"?>
<svg xmlns:ffdec="https://www.free-decompiler.com/flash" xmlns:xlink="http://www.w3.org/1999/xlink" ffdec:objectType="shape" height="79.2px" width="357.9px" xmlns="http://www.w3.org/2000/svg">
  <g transform="matrix(1.0, 0.0, 0.0, 1.0, 178.95, 39.6)">
    <path d="M159.45 -26.65 Q159.45 -24.4 156.35 -19.95 153.9 -16.45 151.7 -14.35 L147.05 -11.15 Q143.4 -8.9 142.85 -8.35 L141.3 -6.45 145.0 -8.1 Q153.95 -11.6 153.95 -6.05 153.95 -4.75 148.45 -0.65 L139.2 6.4 Q136.9 8.35 131.55 11.1 134.75 11.9 136.7 11.9 144.35 11.9 146.55 10.0 L147.95 8.7 Q148.85 8.1 150.7 8.1 153.35 8.1 154.45 9.35 155.05 10.0 155.35 11.1 158.9 10.0 169.8 5.45 178.95 2.65 178.95 8.45 178.95 12.55 171.05 14.85 160.25 18.05 157.45 20.1 150.95 25.0 144.9 27.0 135.85 30.0 119.45 30.6 L106.95 30.65 93.9 33.1 Q82.75 35.1 79.95 35.1 L77.85 34.9 Q73.55 36.65 69.1 37.3 L48.45 39.6 32.95 39.6 12.15 37.2 -6.55 35.1 Q-11.4 34.1 -19.7 31.4 -24.95 29.65 -30.55 29.65 -38.85 29.65 -40.9 30.8 -41.85 32.2 -43.55 32.6 L-67.95 32.6 Q-73.85 31.15 -89.45 31.15 L-98.3 31.6 Q-98.95 32.25 -100.45 32.6 L-132.45 32.6 -134.75 32.05 -137.05 31.65 -148.95 32.6 -157.7 30.5 -166.3 28.35 Q-174.45 27.85 -177.3 25.9 -178.95 24.8 -178.95 22.7 -178.95 18.6 -175.45 18.6 L-166.1 21.0 Q-158.75 22.7 -153.65 23.2 -153.35 22.35 -152.65 21.85 -151.2 20.85 -146.45 20.1 L-127.85 20.0 -127.95 18.95 Q-127.95 17.5 -126.6 15.55 L-125.3 13.35 Q-125.3 11.25 -132.6 5.6 -137.85 1.55 -139.35 -1.55 L-140.7 -1.4 Q-144.45 -1.4 -144.65 -5.1 L-144.85 -7.3 -150.45 -10.45 Q-154.4 -11.65 -156.75 -13.2 L-157.05 -13.4 -157.2 -13.4 Q-160.7 -13.4 -167.7 -20.9 -171.15 -24.6 -173.95 -28.2 L-173.95 -28.35 Q-177.95 -31.25 -177.95 -34.7 -177.95 -43.3 -168.4 -36.85 -157.5 -28.05 -154.95 -27.4 -152.55 -26.45 -147.15 -21.0 L-146.95 -21.45 Q-146.0 -22.65 -142.55 -22.9 -143.1 -28.85 -134.85 -26.25 -123.85 -21.55 -118.7 -19.6 L-106.0 -12.45 Q-95.6 -6.35 -95.0 -3.6 -90.25 -1.05 -88.45 -0.35 L-84.1 1.5 -82.3 1.3 -76.45 0.6 -38.55 0.6 Q-34.8 0.9 -31.0 2.35 L-24.3 5.4 Q-15.05 9.45 -3.55 9.4 L24.85 9.4 Q32.85 9.3 39.8 6.9 47.75 4.2 58.7 3.35 L62.55 1.1 Q66.6 -1.05 71.95 -2.7 86.65 -7.3 109.0 -7.8 L127.75 -14.6 Q135.0 -16.75 138.3 -15.9 143.45 -18.75 146.7 -22.15 L153.9 -29.5 Q159.45 -33.8 159.45 -26.65" fill="#b5f7ff" fill-rule="evenodd" stroke="none"/>
  </g>
</svg>
