<?xml version="1.0" encoding="UTF-8" standalone="no"?>
<svg xmlns:ffdec="https://www.free-decompiler.com/flash" xmlns:xlink="http://www.w3.org/1999/xlink" ffdec:objectType="shape" height="193.25px" width="446.75px" xmlns="http://www.w3.org/2000/svg">
  <g transform="matrix(1.0, 0.0, 0.0, 1.0, 97.25, 138.25)">
    <path d="M119.1 -134.15 Q118.8 -132.9 117.5 -131.3 116.1 -131.6 116.1 -133.35 119.25 -140.7 119.25 -137.0 L119.1 -134.15 M14.9 -88.95 L17.0 -86.9 17.15 -86.9 15.45 -89.55 13.5 -91.5 Q13.6 -90.2 14.9 -88.95 M14.1 -88.25 Q14.1 -87.75 15.45 -86.45 L17.25 -84.9 17.3 -84.85 17.35 -85.25 Q17.35 -86.05 16.35 -87.15 L14.25 -88.9 14.25 -88.8 Q14.1 -88.9 14.1 -88.25 M12.9 -92.5 Q14.65 -91.95 16.2 -89.95 17.35 -88.4 18.1 -86.5 L18.1 -84.25 18.1 -84.15 17.75 -84.05 Q14.55 -84.05 13.5 -87.3 13.15 -88.35 12.85 -92.05 L12.9 -92.5 M142.55 -84.0 Q140.25 -87.25 140.25 -87.4 L140.4 -88.05 140.5 -88.55 140.75 -88.55 Q143.45 -86.95 145.1 -84.15 146.1 -82.55 147.5 -79.3 L149.8 -74.1 151.25 -70.0 151.0 -65.05 150.35 -64.8 149.75 -65.25 149.9 -65.3 150.35 -65.25 150.5 -65.25 150.5 -65.7 Q150.5 -67.6 150.1 -70.0 L149.9 -68.7 Q149.75 -68.15 149.1 -68.15 147.35 -68.15 146.95 -72.0 L146.25 -77.8 Q145.15 -80.35 142.55 -84.0 M135.1 -95.25 L135.6 -95.25 136.9 -93.0 Q136.9 -92.45 138.35 -91.6 139.85 -90.7 140.0 -90.0 L139.95 -89.65 Q139.9 -89.5 139.5 -89.5 138.2 -89.5 135.1 -93.75 L135.1 -95.25 M233.75 -82.65 Q232.9 -82.95 232.5 -84.2 L232.25 -85.75 232.35 -87.2 Q232.6 -88.05 233.6 -87.75 233.7 -84.5 234.0 -83.25 L233.75 -82.65 M203.25 -95.55 L203.5 -95.0 203.3 -94.35 203.0 -93.9 202.9 -93.75 Q203.75 -94.0 203.75 -95.75 L203.15 -95.75 203.25 -95.55 M204.35 -92.9 Q203.05 -91.15 200.25 -91.15 199.4 -91.15 199.4 -92.05 199.4 -94.85 202.35 -96.85 205.25 -98.9 205.25 -95.4 205.25 -94.05 204.35 -92.9 M236.1 -71.35 Q236.1 -65.25 235.1 -65.25 233.5 -65.25 233.1 -66.5 L233.0 -67.95 233.35 -71.4 Q233.45 -72.75 234.8 -72.65 236.1 -72.6 236.1 -71.35 M188.6 -74.65 Q180.25 -68.7 177.5 -58.8 L175.65 -50.6 Q174.55 -45.75 173.0 -42.65 L172.85 -42.65 Q173.25 -53.1 177.45 -63.3 182.25 -75.05 188.5 -74.8 L188.6 -74.65 M186.0 -71.0 L186.35 -70.9 186.5 -70.35 185.95 -69.1 185.25 -68.0 186.0 -68.0 186.1 -67.9 184.25 -66.4 183.65 -67.1 Q183.65 -67.65 184.65 -69.25 L186.0 -71.0 M261.35 -50.3 Q257.75 -44.3 255.6 -41.8 252.3 -38.05 251.55 -33.3 L251.15 -24.75 250.75 -24.5 Q250.1 -25.6 249.85 -29.15 L249.65 -32.8 Q249.65 -35.3 252.1 -40.0 254.55 -44.75 258.15 -49.15 267.35 -60.3 273.85 -58.15 265.6 -55.55 261.35 -50.3 M276.6 -17.4 Q276.1 -16.65 276.1 -15.9 L273.25 -12.95 268.0 -7.65 267.85 -7.75 268.65 -8.9 268.65 -9.0 Q267.75 -8.55 267.25 -8.55 L266.6 -8.65 266.4 -8.75 266.35 -9.3 Q266.35 -10.4 271.75 -15.75 277.1 -21.05 277.1 -18.5 L276.6 -17.4 M306.35 -27.15 Q306.35 -27.9 307.8 -28.25 L312.4 -29.15 312.5 -28.75 Q312.5 -28.25 311.8 -28.1 L308.9 -27.25 311.5 -27.25 313.15 -27.95 314.1 -28.25 314.75 -28.05 315.0 -27.4 Q315.0 -26.85 314.0 -26.0 312.7 -24.9 310.75 -24.9 L309.1 -25.15 Q309.1 -25.45 310.0 -25.55 L310.25 -25.75 307.05 -26.35 Q306.35 -26.5 306.35 -27.15 M297.5 -20.25 Q297.5 -19.6 293.35 -16.8 L288.25 -13.4 288.1 -13.4 Q289.6 -15.55 292.85 -17.75 L293.0 -17.9 291.25 -18.0 290.5 -18.5 Q290.8 -19.75 294.1 -21.05 297.5 -22.35 297.5 -20.25 M291.5 -2.25 Q292.6 -3.0 293.95 -5.4 294.6 -6.6 298.5 -6.75 L298.65 -6.05 Q298.65 -5.45 295.7 -3.95 L291.6 -2.0 291.5 -2.25 M319.35 -16.15 L319.5 -15.5 318.55 -14.05 317.5 -12.8 318.5 -12.6 318.75 -12.15 Q318.1 -11.3 315.85 -11.0 L315.75 -11.25 316.5 -11.75 316.9 -12.0 314.4 -11.9 312.6 -11.9 312.45 -12.0 312.35 -12.5 314.7 -14.4 Q317.4 -16.25 319.35 -16.15 M334.85 16.85 L342.95 18.1 Q348.3 19.1 349.5 20.5 L349.0 21.15 Q342.0 18.95 332.2 17.3 320.05 15.25 309.75 15.25 L304.85 15.75 307.5 15.05 316.5 14.35 327.75 15.4 334.85 16.85 M287.6 1.75 L286.35 2.75 284.6 3.0 Q285.0 1.85 285.4 1.4 L287.5 1.35 287.6 1.75 M299.35 34.0 L303.1 30.5 Q305.15 28.8 307.6 27.95 313.4 25.85 328.85 26.5 314.2 26.8 308.55 28.55 305.2 29.55 299.5 34.0 L299.35 34.0 M-8.75 -62.3 L-9.15 -62.95 -9.75 -63.75 -10.0 -62.25 -10.25 -62.05 -11.6 -63.0 Q-12.0 -63.3 -12.0 -63.8 -12.0 -66.0 -10.55 -65.7 -9.05 -65.4 -8.5 -62.5 L-8.75 -62.3 M-9.55 -49.65 L-9.05 -49.25 -9.5 -48.2 Q-9.8 -47.6 -10.25 -47.25 L-10.5 -49.1 -10.5 -49.65 -9.55 -49.65 M-61.65 -17.55 L-61.55 -18.25 Q-60.8 -18.3 -59.95 -17.35 L-59.05 -16.25 -61.0 -16.55 Q-61.65 -16.55 -61.65 -17.55 M-77.5 -23.5 L-77.9 -24.3 Q-77.9 -26.65 -76.2 -25.7 -74.45 -24.7 -74.5 -23.0 -75.7 -22.4 -76.5 -22.4 -76.95 -22.4 -77.5 -23.5 M-46.25 -16.65 Q-45.4 -16.65 -43.95 -15.85 -42.5 -15.05 -42.4 -14.5 L-42.8 -14.0 -43.4 -14.65 Q-43.75 -15.0 -44.05 -15.0 L-44.7 -14.6 Q-45.1 -14.25 -45.35 -14.25 -46.3 -14.25 -46.3 -15.15 L-46.25 -16.65 M-53.8 -19.5 Q-54.3 -19.0 -54.75 -19.0 -56.3 -19.0 -56.95 -20.9 L-57.25 -22.9 Q-57.25 -25.15 -55.25 -23.7 -53.3 -22.3 -53.3 -20.65 -53.3 -20.0 -53.8 -19.5 M-4.35 -35.35 Q-4.55 -35.0 -5.0 -35.0 -6.0 -35.0 -5.75 -36.05 -5.75 -38.1 -4.6 -36.65 L-3.8 -35.4 -4.25 -35.75 -4.35 -35.35 M-36.0 -9.0 L-37.65 -10.5 -39.3 -12.0 -32.25 -8.9 Q-26.4 -6.1 -26.4 -4.65 -26.4 -4.2 -26.9 -3.7 -27.6 -3.05 -28.85 -3.05 -31.2 -3.05 -36.9 -7.8 L-36.7 -8.3 -36.0 -9.0 M-76.05 21.35 L-76.2 21.5 -76.75 21.65 Q-78.25 21.65 -79.15 17.95 -79.15 15.45 -77.5 15.85 -75.9 16.25 -75.9 18.05 L-76.05 21.35 M-81.0 30.25 Q-83.25 30.25 -85.15 27.6 -86.65 25.5 -86.65 24.5 L-86.5 21.75 Q-83.85 22.3 -81.75 25.15 -79.8 27.85 -80.0 30.0 L-81.0 30.25 M-69.55 38.25 L-69.8 38.4 -71.45 36.9 Q-72.8 35.6 -72.8 35.0 L-72.75 34.25 Q-71.4 33.9 -70.2 35.4 -69.05 36.8 -69.5 38.15 L-69.55 38.25 M-77.2 54.8 L-79.25 55.0 -80.9 54.0 Q-82.6 52.95 -83.5 52.75 -84.95 52.35 -84.95 51.45 L-85.0 49.55 -84.9 49.25 -84.55 49.25 Q-83.9 50.8 -81.05 52.15 -77.7 53.5 -76.5 54.0 -76.6 54.55 -77.2 54.8 M-83.5 26.0 L-84.5 24.85 -84.5 24.9 -83.5 26.0 M-97.0 46.75 Q-95.9 46.95 -95.75 47.9 L-95.55 49.65 Q-96.25 49.5 -96.8 48.6 L-97.25 47.5 -97.15 46.95 -97.0 46.75 M-84.75 42.5 Q-84.75 40.15 -83.25 40.8 -81.75 41.5 -81.75 43.4 L-81.8 44.9 Q-81.95 45.9 -82.6 45.9 -83.65 45.9 -84.3 44.1 L-84.75 42.5" fill="#b5f7ff" fill-rule="evenodd" stroke="none"/>
  </g>
</svg>
