<?xml version="1.0" encoding="UTF-8" standalone="no"?>
<svg xmlns:ffdec="https://www.free-decompiler.com/flash" xmlns:xlink="http://www.w3.org/1999/xlink" ffdec:objectType="shape" height="164.3px" width="469.3px" xmlns="http://www.w3.org/2000/svg">
  <g transform="matrix(1.0, 0.0, 0.0, 1.0, 112.65, 119.95)">
    <path d="M119.0 -106.4 L117.35 -105.65 Q122.6 -112.0 129.95 -105.95 132.55 -103.85 134.6 -100.75 136.45 -98.0 136.5 -96.8 L138.5 -87.7 139.75 -80.5 139.65 -79.4 Q139.5 -79.25 139.25 -79.25 137.7 -81.9 136.95 -86.15 L135.5 -93.25 Q131.25 -107.05 120.5 -107.05 L119.0 -106.4 M111.4 -107.15 Q109.65 -106.65 108.55 -103.6 107.75 -101.3 107.75 -99.4 L108.75 -97.25 108.75 -97.15 Q107.6 -98.55 107.2 -99.85 106.85 -100.85 106.85 -102.4 106.85 -103.65 108.2 -105.7 109.75 -108.1 111.25 -107.5 L111.4 -107.15 M12.65 -99.25 L12.25 -99.0 Q11.75 -99.35 10.95 -100.5 10.25 -101.6 10.25 -101.85 10.25 -103.45 11.5 -102.35 12.75 -101.2 12.75 -100.15 L12.65 -99.25 M62.75 -82.4 L63.0 -82.4 Q63.65 -82.4 63.65 -81.8 L63.4 -80.25 63.0 -78.9 62.85 -78.9 62.5 -82.0 Q62.5 -82.4 62.75 -82.4 M65.6 -76.3 L65.05 -73.8 64.5 -71.8 66.6 -71.75 67.25 -71.15 67.25 -70.7 67.1 -68.5 67.0 -68.4 66.65 -71.0 66.4 -71.05 64.0 -71.0 Q63.85 -71.45 63.85 -72.5 63.85 -73.0 64.2 -74.2 L64.85 -76.25 64.75 -76.3 63.75 -74.9 63.7 -74.85 63.6 -75.25 64.2 -76.15 Q64.85 -76.85 65.35 -77.0 L65.55 -76.8 65.6 -76.3 M26.6 -76.9 Q26.75 -76.75 26.1 -76.75 24.65 -76.75 19.0 -86.4 13.65 -95.6 13.65 -96.3 13.65 -100.1 20.2 -90.2 L26.75 -79.5 26.6 -76.9 M24.1 -81.8 L24.25 -81.75 23.6 -82.65 23.6 -82.55 24.1 -81.8 M159.0 -89.9 L158.85 -90.0 159.2 -90.45 159.75 -90.75 159.0 -89.9 M149.7 -94.5 Q150.95 -96.05 152.25 -90.5 154.6 -82.1 154.6 -80.75 L154.5 -80.25 Q154.5 -80.0 154.0 -80.0 152.2 -84.7 150.4 -91.55 L150.25 -91.55 149.95 -85.6 149.5 -79.4 149.35 -79.4 148.85 -85.25 148.65 -90.1 Q148.65 -93.15 149.7 -94.5 M202.0 -114.65 L199.25 -111.3 198.8 -111.5 198.6 -112.05 Q203.15 -122.25 203.15 -119.3 L202.75 -117.15 202.35 -115.4 Q202.35 -115.0 202.7 -114.5 L203.0 -113.75 203.0 -112.5 202.5 -112.5 202.35 -114.5 202.0 -114.65 M201.6 -102.5 Q201.4 -102.15 201.0 -102.15 200.15 -102.15 200.15 -103.15 200.15 -103.7 201.2 -104.9 202.5 -106.3 203.75 -106.25 L203.85 -105.75 Q203.85 -104.7 203.4 -103.95 L202.0 -102.25 202.0 -103.05 201.6 -102.5 M235.55 -96.0 L235.0 -94.65 234.85 -94.65 234.7 -95.3 234.5 -96.15 Q234.5 -97.7 236.0 -97.25 L235.55 -96.0 M235.75 -82.0 Q236.85 -82.0 236.85 -81.4 L236.55 -80.0 235.75 -78.55 235.5 -78.75 236.25 -80.05 236.15 -80.65 236.0 -81.0 235.35 -79.25 Q234.65 -79.7 234.65 -80.9 234.65 -82.05 235.75 -82.0 M202.5 -81.5 Q195.15 -81.5 191.4 -74.85 190.25 -72.8 188.35 -66.0 L188.1 -65.9 Q187.45 -69.15 189.4 -73.2 191.15 -76.95 194.3 -79.9 197.45 -82.9 200.35 -83.5 203.55 -84.1 205.15 -81.4 205.0 -81.0 204.25 -81.0 L202.0 -80.4 201.85 -80.5 203.6 -81.25 202.5 -81.5 M285.75 -53.0 Q285.75 -52.75 285.25 -52.75 283.9 -54.8 282.9 -55.4 281.4 -56.3 276.3 -56.3 269.2 -56.3 264.9 -52.3 263.75 -51.2 261.0 -46.8 L260.75 -47.0 Q261.4 -49.15 263.4 -51.45 265.7 -54.05 268.85 -55.65 274.4 -58.5 280.35 -57.3 285.85 -56.2 285.85 -53.5 L285.75 -53.0 M276.1 -13.5 L276.0 -13.4 275.5 -16.0 Q275.5 -18.45 278.45 -21.05 282.2 -24.4 288.25 -24.4 L288.4 -23.9 Q288.4 -23.0 286.75 -22.25 L286.5 -22.4 287.4 -23.3 287.5 -23.5 Q280.65 -22.05 277.95 -18.9 276.05 -16.7 276.1 -13.5 M323.35 -27.75 L322.1 -28.0 Q321.8 -28.0 321.35 -27.6 L319.1 -27.25 317.85 -27.3 317.75 -27.9 Q317.75 -29.6 320.95 -29.25 324.1 -28.95 324.1 -28.0 L324.0 -26.9 323.5 -26.55 323.35 -27.75 M302.65 -23.0 L307.9 -22.8 307.9 -22.65 307.0 -22.9 Q304.95 -19.65 301.6 -19.65 L300.1 -19.75 300.0 -20.25 Q300.0 -21.95 302.65 -23.0 M303.35 -22.4 L303.15 -22.4 Q301.7 -21.65 301.5 -21.25 L301.25 -20.9 Q302.7 -21.0 302.85 -21.3 L303.35 -22.4 M310.45 -8.0 Q311.2 -8.95 312.25 -9.0 L312.35 -8.5 Q312.35 -7.6 312.1 -7.45 L311.25 -7.5 310.55 -6.85 310.25 -5.9 310.1 -5.9 310.0 -6.3 309.9 -6.9 Q309.9 -7.3 310.45 -8.0 M327.75 -16.35 L329.15 -16.65 329.25 -16.0 Q329.25 -15.35 328.85 -15.0 328.25 -14.55 326.5 -14.3 L326.25 -14.0 325.15 -14.55 Q324.4 -14.85 324.25 -15.0 324.25 -16.4 325.1 -16.4 L325.95 -16.15 326.8 -15.9 327.75 -16.35 M343.85 18.7 Q348.8 20.95 352.75 23.55 356.65 26.05 356.65 27.0 L356.5 28.7 Q356.2 29.65 355.25 30.25 L354.75 29.9 Q355.4 29.6 355.4 28.55 355.4 25.95 344.7 20.8 333.6 15.5 327.6 16.25 330.7 12.7 343.85 18.7 M-12.15 -75.0 Q-12.15 -74.5 -12.75 -73.65 L-14.0 -74.85 -14.25 -76.0 Q-14.3 -77.75 -13.25 -78.15 -12.9 -77.85 -12.5 -76.65 -12.15 -75.5 -12.15 -75.0 M-13.35 -75.6 L-13.65 -75.75 -13.05 -75.15 -13.35 -75.6 M-11.9 -64.6 L-12.05 -63.5 -12.3 -63.4 -12.4 -63.85 -12.5 -64.55 -12.5 -64.9 -12.05 -65.0 Q-11.9 -65.25 -11.9 -64.6 M-11.0 -50.65 L-10.55 -50.65 -7.65 -44.75 -7.75 -44.65 Q-9.0 -46.85 -10.4 -47.9 -11.0 -48.35 -11.0 -50.25 L-11.0 -50.65 M-67.05 -17.15 L-67.0 -17.3 -63.3 -16.85 -58.25 -15.05 -57.65 -15.0 Q-58.65 -15.8 -58.65 -16.15 L-58.55 -16.8 -58.25 -16.9 Q-56.15 -17.15 -51.65 -15.0 L-46.3 -12.15 -51.0 -14.3 Q-55.0 -16.15 -56.0 -16.15 L-57.55 -16.05 -55.7 -15.1 -52.75 -14.4 -52.65 -13.85 -52.75 -13.25 -53.25 -13.15 Q-56.9 -13.6 -61.15 -15.1 L-67.05 -17.15 M-77.75 -18.0 L-77.75 -17.85 -78.25 -17.75 Q-79.35 -17.75 -80.3 -19.05 -81.0 -20.1 -81.0 -20.6 L-80.9 -21.15 -80.55 -21.15 Q-80.3 -19.7 -77.75 -18.0 M-112.15 25.15 Q-111.35 23.65 -104.7 25.0 -98.0 26.35 -98.0 28.25 -98.0 29.1 -98.75 29.25 L-101.0 29.25 -105.45 27.35 Q-108.3 26.0 -111.25 25.75 L-112.15 25.15 M-109.85 44.35 Q-111.25 44.35 -112.05 43.55 -112.65 42.9 -112.65 42.4 -112.65 41.75 -111.7 42.15 L-107.65 43.5 -108.45 44.05 -109.85 44.35" fill="#b5f7ff" fill-rule="evenodd" stroke="none"/>
  </g>
</svg>
