<?xml version="1.0" encoding="UTF-8" standalone="no"?>
<svg xmlns:ffdec="https://www.free-decompiler.com/flash" xmlns:xlink="http://www.w3.org/1999/xlink" ffdec:objectType="shape" height="68.35px" width="452.75px" xmlns="http://www.w3.org/2000/svg">
  <g transform="matrix(1.0, 0.0, 0.0, 1.0, 226.35, 34.15)">
    <path d="M226.4 6.25 Q226.4 7.2 225.6 8.5 224.5 10.2 222.75 10.2 219.75 10.2 217.4 7.6 L215.65 4.95 Q215.65 0.65 221.05 2.45 223.0 3.1 224.7 4.35 226.4 5.55 226.4 6.25 M204.95 -23.7 Q204.1 -22.9 201.0 -22.9 200.6 -22.9 199.7 -22.45 L198.65 -22.05 Q197.25 -22.05 196.85 -22.9 L196.65 -23.85 Q196.65 -24.15 198.0 -25.45 199.55 -26.9 201.05 -27.8 205.4 -30.35 205.4 -25.5 205.4 -24.15 204.95 -23.7 M161.8 -10.9 Q161.4 -11.65 161.4 -12.2 161.4 -15.8 165.95 -13.2 168.3 -11.9 171.65 -9.45 L174.7 -7.75 Q176.15 -6.75 176.15 -5.65 176.15 -4.3 176.65 -1.4 L176.4 0.2 Q176.0 1.2 174.65 1.2 170.15 1.2 166.45 -1.35 L163.25 -4.2 Q161.9 -5.25 161.9 -7.1 L162.15 -10.05 161.8 -10.9 M177.35 -17.9 L177.15 -18.85 Q177.15 -20.95 179.4 -21.55 181.65 -22.15 181.65 -20.15 181.65 -19.65 180.75 -18.45 179.75 -17.05 178.9 -17.05 177.75 -17.05 177.35 -17.9 M180.4 1.0 Q180.4 -2.0 183.8 -1.25 187.15 -0.5 187.15 2.35 187.15 4.2 184.5 4.2 181.65 4.2 180.75 2.75 180.4 2.15 180.4 1.0 M179.65 11.75 Q179.65 7.8 184.1 10.45 L189.65 14.05 190.65 13.75 Q191.3 13.45 191.65 13.45 192.6 13.45 193.1 14.2 L193.4 15.1 Q193.4 16.2 187.15 20.7 181.65 20.7 180.15 16.85 179.65 15.55 179.65 11.75 M129.4 -13.55 L136.15 -13.55 Q140.6 -13.75 147.35 -11.45 154.4 -9.1 154.4 -7.0 154.4 -5.65 152.2 -5.2 L146.4 -4.05 139.65 -4.05 138.15 -4.3 124.4 -4.3 121.4 -4.55 114.55 -3.15 Q108.1 -1.65 106.15 -0.8 L102.35 0.15 Q102.0 1.15 98.8 2.4 95.15 3.75 95.15 6.3 95.15 6.8 96.65 7.2 L100.3 7.6 111.45 6.65 125.4 5.7 Q131.8 5.7 134.8 8.2 136.65 9.8 136.65 11.45 136.65 17.4 127.35 18.15 L120.45 18.8 Q117.05 19.45 116.25 21.45 115.55 23.35 114.8 24.2 113.4 25.85 110.4 26.55 108.05 27.15 102.9 29.2 98.8 30.85 96.65 30.95 L86.4 30.95 78.8 29.95 59.8 29.95 52.85 30.8 49.15 31.45 Q48.2 31.7 45.9 33.1 44.05 34.2 42.25 34.2 40.25 34.2 36.4 32.85 32.55 31.45 28.4 31.45 28.05 31.45 25.75 32.85 23.4 34.2 20.0 34.2 L4.55 32.7 -8.1 31.2 -14.75 31.2 -16.65 31.7 -21.5 31.95 -29.3 31.45 -35.35 31.95 -42.25 30.9 -49.0 29.55 Q-54.8 27.45 -56.6 27.45 L-73.5 28.7 -80.0 27.85 -83.5 26.95 -90.5 27.4 Q-90.55 28.0 -91.85 28.2 L-104.85 28.2 -106.7 28.65 -111.1 28.95 Q-116.2 28.95 -125.15 26.05 L-135.4 24.05 -145.6 22.2 -156.6 22.2 -160.05 20.55 Q-162.6 19.2 -163.4 19.2 L-167.35 19.8 -174.65 21.05 -181.85 22.95 Q-183.6 22.95 -183.6 20.85 -183.6 19.6 -181.5 17.9 L-177.15 14.3 Q-175.75 12.9 -172.1 11.6 -168.05 10.15 -164.35 9.95 L-142.65 9.85 -141.85 9.7 -135.35 9.6 -128.35 8.05 Q-122.25 6.55 -120.35 5.3 -120.95 4.9 -126.2 3.85 -128.45 3.4 -129.2 2.0 L-130.2 1.8 -137.85 0.45 -144.4 0.55 -150.5 1.7 -157.2 2.45 -160.8 2.0 -162.35 1.2 -169.85 1.2 -179.1 -0.5 Q-180.6 -0.85 -180.6 -2.1 -180.6 -3.5 -179.05 -3.85 L-169.65 -5.3 Q-168.5 -5.5 -167.4 -6.2 L-164.75 -7.55 -162.75 -7.75 Q-160.95 -7.85 -159.15 -8.45 -150.65 -11.2 -134.35 -9.55 L-110.3 -5.55 -93.25 -2.65 -82.6 -2.55 -74.6 -1.65 -61.85 -1.65 -56.35 -2.05 -9.5 -1.9 -3.1 -2.8 3.65 -2.8 6.15 -2.4 15.9 -2.3 25.0 -1.4 32.8 -1.4 35.45 -1.5 38.25 -1.45 39.9 -1.15 45.65 -1.6 49.25 -2.05 52.2 -1.9 Q54.05 -2.9 62.1 -4.3 L77.9 -6.3 84.15 -6.4 99.15 -7.8 106.05 -7.9 Q107.1 -8.05 110.3 -10.1 113.3 -12.0 115.15 -12.05 L123.4 -12.15 129.4 -13.55 M159.5 15.2 Q159.8 15.9 159.9 17.2 160.2 18.5 161.6 19.15 162.9 19.75 162.9 20.25 162.9 21.35 162.4 21.7 L159.25 22.2 Q155.8 22.2 152.5 20.9 149.8 19.8 148.4 18.45 145.2 18.7 144.25 17.8 143.9 17.45 143.9 16.65 143.9 14.4 146.45 13.3 150.0 11.8 157.25 13.45 159.0 14.0 159.5 15.2 M-177.6 -20.1 Q-177.4 -21.65 -176.1 -22.15 -170.1 -24.5 -170.1 -19.75 -170.1 -18.0 -170.9 -15.8 -172.0 -12.65 -174.1 -12.65 L-177.4 -9.95 Q-181.7 -7.3 -187.2 -7.3 -189.5 -7.3 -190.05 -8.35 -190.3 -8.9 -190.1 -9.5 -190.1 -11.0 -184.6 -13.35 -178.65 -15.8 -177.9 -17.65 L-177.6 -20.1 M-188.35 -24.7 Q-188.35 -23.25 -190.45 -22.6 -194.3 -21.5 -195.9 -20.55 L-198.1 -17.8 Q-199.25 -16.05 -201.1 -16.05 -204.05 -16.05 -204.85 -17.6 L-205.1 -19.5 Q-205.1 -22.3 -201.85 -23.4 -198.65 -24.5 -198.65 -25.4 L-199.35 -27.55 Q-200.1 -29.4 -200.1 -31.4 -200.1 -33.7 -198.9 -34.1 -197.55 -34.55 -196.35 -30.7 -195.65 -29.7 -193.5 -29.35 -191.3 -29.0 -190.6 -28.05 L-188.9 -26.25 Q-188.35 -25.7 -188.35 -24.7 M-187.35 15.8 Q-187.35 17.3 -187.9 18.65 -188.8 20.95 -190.85 20.95 -192.6 20.95 -193.0 19.8 L-193.1 18.5 Q-193.1 14.9 -190.2 13.5 -187.35 12.05 -187.35 15.8 M-210.05 -24.35 L-219.4 -23.7 Q-219.6 -23.15 -219.3 -21.5 -219.6 -20.05 -222.95 -20.05 -225.4 -20.05 -226.1 -21.0 L-226.35 -22.15 Q-226.35 -24.9 -224.35 -27.0 -221.45 -30.05 -215.2 -30.05 L-207.7 -29.75 Q-206.35 -29.5 -206.35 -28.15 -206.35 -27.45 -206.85 -26.85 -207.7 -25.95 -209.6 -26.2 L-209.65 -25.05 Q-209.6 -24.55 -210.05 -24.35 M-208.1 17.05 Q-208.1 18.95 -209.95 18.95 -211.15 18.95 -211.65 18.1 L-211.85 17.15 Q-211.85 15.45 -209.95 15.25 -208.1 15.05 -208.1 17.05" fill="#b5f7ff" fill-rule="evenodd" stroke="none"/>
  </g>
</svg>
