<?xml version="1.0" encoding="UTF-8" standalone="no"?>
<svg xmlns:ffdec="https://www.free-decompiler.com/flash" xmlns:xlink="http://www.w3.org/1999/xlink" ffdec:objectType="shape" height="164.05px" width="432.8px" xmlns="http://www.w3.org/2000/svg">
  <g transform="matrix(1.0, 0.0, 0.0, 1.0, 72.8, 130.3)">
    <path d="M11.6 -102.3 Q10.35 -105.7 4.35 -106.8 10.85 -107.0 12.45 -103.3 13.2 -98.9 14.6 -97.5 13.1 -98.25 12.45 -99.65 L11.6 -102.3 M153.85 -97.0 L153.5 -97.0 Q153.25 -99.5 152.25 -100.75 150.9 -99.6 150.7 -97.6 L150.6 -94.25 150.35 -94.15 Q149.75 -95.6 149.75 -97.4 149.75 -101.65 151.95 -101.7 154.1 -101.75 154.1 -98.45 L153.85 -97.0 M207.25 -129.9 L207.35 -129.3 207.0 -127.65 Q206.55 -126.35 206.0 -126.0 L205.6 -126.1 205.5 -126.65 Q205.5 -127.7 205.85 -128.8 206.2 -129.95 206.75 -130.3 L207.25 -129.9 M207.6 -86.8 L207.25 -86.25 206.9 -86.3 207.0 -87.4 205.5 -87.65 Q201.8 -87.65 199.75 -84.55 198.8 -83.15 198.1 -80.5 L197.85 -80.4 Q198.35 -83.95 199.65 -85.8 201.1 -87.85 204.4 -88.85 207.9 -89.9 207.9 -87.55 L207.6 -86.8 M288.1 -51.65 L286.8 -52.9 Q285.45 -54.0 282.3 -54.0 L281.05 -53.6 279.6 -53.05 279.5 -53.25 Q281.35 -54.6 284.4 -54.35 287.65 -54.05 288.35 -52.0 L288.1 -51.65 M316.15 -25.65 L316.25 -25.25 Q316.25 -24.25 314.95 -23.5 313.7 -22.8 312.1 -22.8 L311.6 -22.9 311.4 -23.15 311.4 -23.1 311.35 -23.55 Q311.35 -23.75 313.35 -24.75 315.4 -25.8 316.0 -25.75 L316.15 -25.65 M291.3 -24.0 Q292.5 -24.95 293.0 -24.75 L291.4 -23.6 289.85 -22.65 291.3 -24.0 M332.1 -25.65 L332.0 -24.9 Q332.1 -24.75 331.5 -24.75 L331.15 -24.75 331.25 -25.25 330.95 -25.6 330.5 -25.65 Q330.75 -26.0 331.85 -26.0 L332.1 -25.65 M339.2 -13.9 L338.0 -14.0 337.0 -13.75 336.1 -13.4 335.9 -13.5 Q335.75 -13.6 335.75 -14.0 335.75 -14.85 337.2 -14.7 338.3 -14.6 339.2 -13.9 M359.75 31.45 L359.1 33.75 358.75 33.75 359.0 29.7 Q359.0 27.95 356.85 26.65 354.95 25.45 351.6 24.75 L351.75 24.6 358.45 26.55 Q360.0 27.25 360.0 29.55 L359.75 31.45 M-10.65 -85.75 Q-10.65 -84.7 -11.05 -83.5 L-11.3 -83.4 -11.15 -83.7 -11.05 -84.3 -11.75 -85.25 -11.25 -85.75 -10.65 -85.75 M-70.65 -17.65 L-70.6 -17.55 -71.0 -17.5 Q-71.6 -17.5 -72.8 -18.05 L-70.8 -18.25 -70.65 -17.65" fill="#b5f7ff" fill-rule="evenodd" stroke="none"/>
  </g>
</svg>
