<?xml version="1.0" encoding="UTF-8" standalone="no"?>
<svg xmlns:ffdec="https://www.free-decompiler.com/flash" xmlns:xlink="http://www.w3.org/1999/xlink" ffdec:objectType="shape" height="233.7px" width="232.4px" xmlns="http://www.w3.org/2000/svg">
  <g transform="matrix(1.0, 0.0, 0.0, 1.0, 116.2, 116.85)">
    <path d="M100.2 -113.65 Q100.2 -116.05 102.45 -115.6 104.7 -115.1 104.7 -112.0 104.7 -111.15 104.3 -110.5 103.8 -109.65 102.7 -109.65 101.45 -109.65 100.7 -111.8 L100.2 -113.65 M111.85 -107.85 L114.2 -107.15 Q116.2 -106.65 116.2 -105.2 116.2 -100.95 109.7 -98.15 105.1 -96.15 102.7 -96.15 102.1 -96.15 101.75 -96.65 101.45 -97.15 100.8 -97.15 100.45 -97.15 98.45 -95.15 96.4 -93.15 94.7 -93.15 93.25 -93.15 92.85 -94.2 92.7 -94.6 92.7 -95.45 92.7 -96.6 95.35 -100.05 L98.2 -103.9 98.5 -106.05 Q98.8 -107.6 99.85 -108.35 101.55 -109.55 105.45 -109.15 104.5 -108.3 104.5 -106.55 104.45 -105.55 104.9 -104.7 105.75 -103.0 108.25 -103.0 110.0 -103.0 111.0 -104.0 112.0 -105.0 112.0 -106.6 L111.85 -107.85 M3.3 -110.1 L2.8 -109.35 Q2.25 -108.65 1.2 -108.65 -0.45 -108.65 -1.25 -110.55 -1.8 -111.8 -1.8 -112.65 -1.8 -117.6 5.45 -116.15 8.1 -115.65 10.45 -114.5 12.7 -113.4 12.7 -112.7 12.7 -111.7 11.75 -111.25 L9.9 -110.7 10.0 -111.75 Q10.0 -115.55 6.5 -115.55 3.0 -115.55 3.0 -111.75 2.95 -110.95 3.3 -110.1 M4.85 -102.15 L6.7 -102.15 8.4 -100.55 8.7 -99.25 Q8.7 -98.05 8.2 -96.5 L7.2 -93.25 7.2 -89.15 7.35 -88.9 11.2 -90.65 16.7 -90.65 Q18.05 -89.7 19.2 -84.95 19.2 -83.75 17.4 -82.85 14.1 -81.1 11.85 -79.25 11.45 -78.9 11.1 -76.5 10.8 -74.65 8.7 -74.65 5.6 -76.35 2.5 -78.8 -3.75 -83.75 -4.3 -87.65 -5.0 -92.7 -7.85 -94.45 L-9.0 -95.0 -10.45 -95.35 -13.85 -96.0 Q-15.3 -96.75 -15.3 -99.45 -15.3 -103.05 -13.8 -104.3 -11.85 -105.9 -8.4 -101.0 -8.1 -101.3 -7.8 -102.3 -7.2 -103.15 -5.3 -103.15 L-3.95 -103.0 -3.7 -102.65 -0.75 -102.3 Q-3.0 -101.45 -3.0 -99.05 -3.0 -97.95 -2.05 -96.6 -0.55 -94.5 2.5 -94.5 4.3 -94.5 5.5 -96.1 6.5 -97.45 6.5 -98.75 6.5 -101.2 4.85 -102.15 M17.35 -63.5 Q17.15 -64.2 17.2 -65.0 17.2 -67.5 19.2 -67.6 21.2 -67.75 21.2 -64.95 L21.0 -63.25 Q20.55 -62.15 19.2 -62.15 17.75 -62.15 17.35 -63.5 M5.8 -62.9 Q4.9 -64.1 3.0 -64.0 1.2 -63.9 0.3 -62.85 L0.55 -64.05 Q1.3 -66.65 3.7 -66.65 4.55 -66.65 5.8 -62.9 M-0.4 -61.2 L-0.5 -60.1 Q-0.5 -58.8 -0.05 -57.85 0.8 -56.0 3.0 -56.0 4.95 -56.0 5.9 -57.65 6.5 -58.75 6.5 -60.05 L6.5 -60.55 7.7 -55.9 Q7.7 -50.65 5.55 -49.5 3.35 -48.3 3.35 -44.0 5.2 -39.95 5.2 -38.75 L4.95 -35.4 Q4.2 -33.15 1.2 -33.15 -2.9 -33.15 -6.15 -40.8 -8.85 -47.05 -9.3 -52.9 -9.6 -56.75 -11.05 -63.1 -12.3 -68.65 -12.3 -72.4 -12.3 -75.55 -10.65 -77.65 -9.15 -79.55 -7.05 -79.85 -4.9 -80.1 -3.45 -78.5 -1.8 -76.7 -1.8 -73.15 -2.45 -69.0 -2.5 -66.7 -2.55 -63.15 -0.4 -61.2 M14.5 -32.65 Q13.85 -32.15 12.95 -32.15 11.3 -32.15 10.6 -33.5 L10.2 -34.65 Q10.2 -37.05 12.7 -36.5 15.2 -36.0 15.2 -34.15 15.2 -33.2 14.5 -32.65 M0.45 -0.25 Q-0.4 0.85 -1.8 0.85 L-4.05 0.2 -5.55 -0.5 Q-12.3 -0.5 -14.0 1.5 -14.35 1.85 -16.8 8.75 -18.0 12.05 -19.45 14.6 -21.95 18.85 -24.3 18.85 -25.75 18.85 -26.65 12.65 L-27.3 6.25 Q-27.3 2.35 -27.1 1.2 -26.65 -1.6 -24.8 -4.25 L-24.8 -6.5 Q-30.4 -7.5 -31.9 -6.0 L-32.85 -4.75 Q-33.5 -4.15 -34.8 -4.15 -36.2 -4.15 -36.65 -5.5 L-36.8 -6.5 Q-36.75 -8.3 -30.65 -14.85 -23.5 -22.5 -17.9 -22.5 -16.35 -20.95 -16.25 -17.8 L-16.3 -13.15 Q-13.65 -11.3 -10.4 -7.85 -7.1 -5.2 -0.8 -4.65 1.2 -4.1 1.2 -2.5 1.2 -1.25 0.45 -0.25 M27.7 -12.15 Q25.85 -12.15 25.1 -13.55 L24.7 -14.65 Q24.7 -17.15 27.2 -17.15 29.7 -17.15 29.7 -14.65 29.7 -13.85 29.3 -13.15 28.8 -12.15 27.7 -12.15 M29.7 -3.2 Q29.2 4.35 27.2 4.35 25.95 4.35 25.2 1.85 L24.7 -0.75 Q24.7 -3.45 27.2 -4.65 29.7 -5.8 29.7 -3.2 M78.15 -24.8 L77.45 -25.25 77.35 -25.8 Q77.2 -26.2 77.2 -26.95 77.2 -28.25 79.6 -33.7 82.1 -39.4 83.6 -41.0 83.9 -41.3 84.5 -44.35 84.95 -46.55 87.2 -46.65 95.2 -45.4 95.2 -39.65 95.2 -38.2 93.75 -36.6 91.75 -34.45 88.2 -34.4 88.35 -31.65 87.3 -29.3 85.25 -24.65 79.2 -24.65 L78.15 -24.8 M96.7 -66.2 Q96.5 -67.0 96.7 -67.9 96.7 -71.9 100.7 -73.75 L103.45 -73.9 Q104.7 -73.25 104.7 -71.05 104.7 -70.05 102.8 -67.55 100.7 -64.65 98.95 -64.65 97.05 -64.65 96.7 -66.2 M90.75 -54.4 Q90.5 -55.3 90.7 -56.25 90.7 -59.15 93.7 -60.75 96.7 -62.3 96.7 -59.0 96.7 -52.65 93.45 -52.65 91.2 -52.65 90.75 -54.4 M105.7 -51.6 Q108.2 -47.8 110.7 -42.2 110.7 -39.5 109.25 -37.55 106.75 -34.2 100.7 -35.4 L100.5 -32.8 Q100.0 -30.65 98.2 -30.65 96.55 -30.65 96.25 -32.1 96.05 -32.85 96.2 -33.7 96.2 -36.65 97.6 -38.25 99.25 -40.1 104.35 -42.25 L101.35 -47.35 Q100.7 -48.3 100.7 -50.5 100.7 -59.1 105.7 -51.6 M84.5 -40.4 Q84.5 -39.65 86.0 -37.6 87.85 -35.0 90.0 -35.0 91.9 -35.0 92.9 -36.5 93.5 -37.45 93.5 -38.35 93.5 -43.0 89.0 -43.75 87.2 -44.05 85.9 -43.2 84.5 -42.25 84.5 -40.4 M97.7 -21.15 Q102.75 -29.4 105.65 -29.25 108.2 -29.1 108.2 -23.15 108.2 -18.95 107.55 -17.85 105.5 -14.4 97.2 -13.4 96.25 -10.05 95.0 -10.65 93.45 -12.0 92.45 -12.0 91.65 -12.0 87.55 -9.05 L83.45 -6.15 Q81.65 -6.15 81.25 -7.95 81.05 -8.9 81.2 -9.95 81.2 -12.95 83.25 -16.55 86.4 -22.15 92.7 -22.15 L97.7 -21.15 M99.5 -20.05 Q99.45 -19.05 99.85 -18.2 100.7 -16.5 103.0 -16.5 104.75 -16.5 105.75 -17.9 106.5 -18.95 106.5 -20.1 106.5 -23.5 103.0 -23.5 99.5 -23.5 99.5 -20.05 M93.7 3.35 Q93.65 1.1 85.2 19.85 85.2 20.3 88.7 26.3 92.2 32.3 92.2 38.05 L92.05 43.0 89.2 49.85 89.85 51.6 95.15 45.5 Q100.7 39.85 104.45 39.85 106.4 39.85 106.75 41.8 L106.7 43.85 Q106.7 47.2 104.2 53.95 101.7 60.65 101.7 66.35 101.7 72.7 95.95 80.2 L92.0 85.1 Q90.2 87.45 90.2 88.6 90.2 89.9 92.95 95.95 95.7 102.0 95.7 105.45 95.7 107.25 93.95 108.4 91.7 109.85 86.95 109.85 L84.7 109.4 82.45 108.9 78.85 109.1 Q75.7 111.95 67.6 114.65 L59.95 116.85 Q57.6 116.85 56.6 115.05 L55.95 112.9 38.4 112.35 Q36.9 111.25 34.2 110.6 L10.45 110.4 8.2 110.85 -30.55 110.9 Q-31.7 111.35 -42.4 111.1 L-52.8 111.1 Q-53.2 111.25 -54.55 112.4 -55.7 113.35 -56.45 113.35 -57.25 113.35 -58.15 112.65 L-58.95 111.9 -61.7 112.4 -64.45 112.85 Q-66.4 112.85 -69.6 111.4 -72.85 109.9 -81.2 109.85 -83.45 108.35 -83.45 105.65 -83.45 102.7 -85.45 100.9 L-89.6 97.15 Q-91.55 95.15 -92.65 92.65 L-96.25 83.95 Q-99.2 76.6 -99.2 75.2 -99.2 74.05 -95.65 65.65 -91.9 56.85 -90.7 56.85 -87.45 56.85 -87.6 64.4 -87.85 74.0 -87.2 75.4 L-85.15 80.25 -83.2 84.85 Q-82.45 86.5 -79.15 89.5 -75.6 92.7 -74.9 93.85 -73.75 92.45 -71.45 88.45 -69.05 84.7 -66.4 82.6 -64.7 81.2 -58.35 79.9 L-51.3 78.85 Q-48.5 78.85 -46.95 76.35 -45.35 73.85 -42.3 73.85 -38.7 73.85 -37.65 76.85 -37.1 78.4 -37.3 80.0 -37.3 82.55 -37.95 83.35 -38.45 84.0 -40.2 84.4 -45.6 85.7 -50.3 90.1 L-49.15 91.5 -48.1 92.35 -43.65 91.95 Q-42.9 91.7 -41.9 91.05 -39.25 89.7 -27.3 89.6 L-26.75 88.75 -26.3 87.65 -26.3 81.1 Q-30.4 80.35 -31.45 78.75 -31.8 78.2 -31.8 76.1 -31.8 74.95 -27.55 70.35 -23.35 65.85 -22.55 65.85 -21.8 65.85 -19.3 71.05 -16.55 76.75 -14.4 78.1 -11.2 80.15 -9.65 83.7 -9.2 84.8 -7.8 90.1 -0.35 90.25 7.0 92.5 14.9 94.95 17.2 95.1 17.3 92.75 18.25 90.1 L20.2 85.35 Q22.45 80.0 26.25 79.2 L28.4 78.6 Q29.2 78.05 29.2 76.2 29.2 75.3 25.2 73.1 21.2 70.9 21.2 68.7 21.2 66.9 22.95 65.95 24.3 65.2 28.2 64.35 L35.7 64.35 Q43.4 75.95 42.7 84.35 L47.0 85.15 50.7 85.85 Q53.45 85.85 54.35 83.1 L54.7 80.1 54.2 76.55 53.7 72.95 Q53.7 70.65 53.95 70.35 55.05 68.85 60.2 68.85 67.35 68.85 70.0 71.35 71.3 72.6 71.2 73.9 71.2 75.2 68.9 79.65 66.45 84.25 64.85 85.6 L64.7 85.85 65.75 86.35 66.95 86.65 Q70.95 86.65 78.25 72.35 81.85 65.2 84.7 57.95 L84.2 55.4 Q83.7 53.5 83.7 52.85 83.7 50.4 85.95 46.4 88.2 42.4 88.2 37.85 88.2 34.55 86.7 31.35 L86.7 32.35 Q87.1 35.5 86.6 38.0 85.55 42.85 80.95 42.85 78.65 42.85 77.7 39.35 77.25 37.55 77.2 35.7 77.2 32.95 78.05 28.45 79.05 23.45 79.2 20.85 79.55 16.7 80.25 16.25 80.65 10.35 86.95 3.75 89.7 0.9 91.6 0.6 93.7 0.2 93.7 3.35 M93.75 19.9 Q93.55 19.15 93.7 18.3 93.7 15.5 95.95 15.65 98.2 15.8 98.2 17.85 98.2 18.95 97.5 20.1 96.7 21.35 95.7 21.35 94.05 21.35 93.75 19.9 M78.85 8.5 Q77.8 11.35 76.7 11.35 75.05 11.35 74.7 9.45 74.55 8.45 74.7 7.35 74.7 3.4 77.2 2.25 79.7 1.05 79.7 5.1 79.7 6.1 78.85 8.5 M56.7 42.35 Q60.55 42.35 63.25 48.35 64.6 51.35 65.2 54.45 65.2 56.25 62.5 58.75 59.1 61.85 54.45 61.85 50.55 61.85 48.95 61.0 47.35 60.1 46.2 60.1 L43.7 60.75 41.2 61.35 Q39.9 61.35 38.4 60.65 37.15 59.9 36.95 59.9 35.95 59.9 34.95 60.65 34.0 61.35 32.95 61.35 31.05 61.35 28.95 59.35 26.8 57.35 23.2 57.35 20.05 57.35 18.85 55.95 18.2 55.2 18.2 54.35 18.2 53.2 19.6 46.2 21.25 37.85 22.6 35.75 25.2 31.55 26.2 17.2 L25.7 14.3 Q25.2 12.0 25.2 11.35 25.2 8.95 27.4 7.1 29.85 5.1 31.6 10.35 31.65 11.9 32.6 18.25 L34.2 26.0 Q35.2 30.65 35.2 33.6 L34.3 36.1 33.35 38.1 34.75 40.8 36.35 43.25 Q40.9 42.3 42.15 43.65 L43.0 44.7 Q43.5 45.25 44.45 45.25 L49.45 43.8 Q54.3 42.35 56.7 42.35 M70.1 38.2 Q71.3 37.35 72.95 37.35 76.2 37.35 76.2 39.3 76.2 40.8 74.85 42.1 73.55 43.35 72.2 43.35 69.9 43.35 69.1 42.2 68.7 41.65 68.7 40.85 68.7 39.2 70.1 38.2 M7.9 23.15 Q10.2 33.25 10.2 37.75 10.2 40.1 8.2 42.3 6.2 44.45 6.2 46.2 6.2 50.05 7.95 52.0 9.7 53.95 9.7 56.2 9.7 60.05 8.7 62.65 6.55 68.35 0.45 68.35 -3.45 68.35 -5.2 67.6 -6.95 66.85 -8.05 66.85 -10.8 66.85 -11.95 64.2 -12.7 61.3 -13.3 60.85 L-18.75 60.65 -20.4 59.6 Q-20.75 59.6 -20.9 60.0 L-21.6 60.85 Q-23.4 62.1 -30.8 62.1 -31.35 62.1 -33.5 63.25 -35.6 64.35 -36.55 64.35 -38.65 64.35 -39.9 62.6 -40.8 61.4 -40.8 60.7 -40.8 58.05 -36.9 51.0 -32.75 43.35 -30.05 43.35 -27.5 43.35 -27.15 44.6 L-26.65 46.75 Q-23.7 43.75 -15.1 37.95 -10.3 34.75 -10.3 30.55 -10.3 27.85 -11.05 23.8 -11.8 19.75 -11.8 16.85 -11.8 11.35 -10.45 9.8 -7.15 5.95 4.2 10.85 5.65 13.25 7.9 23.15 M28.5 32.3 Q25.0 32.3 25.0 37.0 L25.1 39.25 Q25.8 41.5 28.5 41.5 30.6 41.5 31.5 39.55 32.0 38.45 32.0 37.0 32.0 32.3 28.5 32.3 M2.0 19.75 Q2.5 18.9 2.5 15.6 2.5 11.7 0.65 10.5 L-3.5 10.6 Q-5.8 11.6 -7.6 13.75 -9.5 16.0 -9.5 17.85 -9.5 19.5 -8.55 20.3 -7.2 21.5 -3.5 21.5 0.9 21.5 2.0 19.75 M10.2 81.35 Q7.1 81.35 6.35 79.6 6.2 79.2 6.2 77.25 6.2 71.95 9.95 71.65 13.7 71.35 13.7 76.95 L13.75 79.6 Q13.2 81.35 10.2 81.35 M25.15 92.8 Q26.6 95.5 28.5 95.5 30.6 95.5 31.5 93.55 32.0 92.45 32.0 91.0 32.0 86.3 28.0 86.35 26.4 86.35 25.25 87.35 24.0 88.4 24.0 90.0 L25.15 92.8 M38.5 78.1 Q38.7 76.9 38.25 75.75 37.35 73.5 34.0 73.5 30.55 73.5 29.5 76.05 29.0 77.25 29.0 80.35 L29.15 83.0 Q29.85 85.5 33.0 85.5 35.4 85.5 37.1 82.5 38.5 80.1 38.5 78.1 M-6.0 -112.4 Q-6.8 -111.15 -7.8 -111.15 -9.45 -111.15 -9.75 -112.6 -9.95 -113.35 -9.8 -114.2 -9.8 -117.0 -7.55 -116.85 -5.3 -116.7 -5.3 -114.65 -5.3 -113.55 -6.0 -112.4 M-111.7 -33.95 Q-111.7 -31.15 -113.7 -31.15 -115.2 -31.15 -115.85 -32.9 L-116.2 -34.4 Q-116.2 -36.9 -113.95 -36.75 -111.7 -36.6 -111.7 -33.95 M-106.7 -24.9 Q-108.9 -21.15 -110.2 -21.15 -112.3 -21.15 -112.7 -23.05 -112.9 -24.05 -112.7 -25.15 -112.7 -28.65 -108.7 -30.6 -104.7 -32.5 -104.7 -29.2 -104.7 -28.3 -106.7 -24.9 M-21.15 -26.55 Q-21.6 -25.65 -23.05 -25.65 -25.3 -25.65 -25.8 -27.8 -26.0 -28.8 -25.8 -29.65 -25.8 -33.75 -23.3 -33.2 -20.8 -32.65 -20.8 -28.95 -20.8 -27.15 -21.15 -26.55 M-5.55 35.75 Q-4.6 38.0 -2.0 38.0 1.5 38.0 1.5 33.6 1.5 29.3 -2.25 29.35 -6.0 29.35 -6.0 33.4 L-5.55 35.75 M-21.75 -19.5 Q-24.75 -19.5 -26.05 -17.6 -27.0 -16.3 -27.0 -14.25 L-26.55 -12.35 Q-25.6 -10.5 -23.25 -10.5 -20.1 -10.5 -18.3 -12.75 -17.0 -14.35 -17.0 -15.75 -17.0 -17.25 -17.55 -18.0 -18.6 -19.5 -21.75 -19.5 M-51.9 2.65 Q-50.3 4.2 -50.3 8.2 -50.3 9.8 -52.3 11.55 -54.3 13.3 -54.3 13.95 -54.3 15.85 -57.45 15.85 -60.1 15.85 -60.65 14.3 -60.95 13.5 -60.7 12.6 -60.7 8.95 -59.05 5.95 -57.6 3.25 -55.5 2.25 -53.35 1.25 -51.9 2.65 M-52.3 21.35 Q-52.3 22.05 -54.7 25.9 L-57.2 30.0 Q-57.15 32.45 -57.4 34.3 -57.8 37.85 -59.7 37.85 -62.15 37.85 -63.7 34.35 -64.45 32.6 -64.7 30.8 -64.7 24.35 -58.5 19.95 -56.0 18.15 -54.25 18.4 -52.3 18.65 -52.3 21.35 M-57.2 50.0 Q-57.2 47.55 -55.0 47.4 -52.8 47.3 -52.8 49.7 -52.8 50.65 -53.55 51.7 -54.3 52.85 -55.2 52.85 -56.75 52.85 -57.1 51.45 L-57.2 50.0 M-41.4 80.6 L-41.3 79.6 Q-41.3 78.85 -41.75 78.45 L-42.4 77.9 Q-43.75 78.85 -45.65 81.1 L-45.9 81.35 -41.4 80.6 M-23.55 81.05 Q-22.65 83.0 -20.5 83.0 -18.75 83.0 -17.75 81.55 -17.0 80.45 -17.0 79.35 -17.0 75.95 -20.5 75.95 -24.0 75.95 -24.0 79.35 L-23.55 81.05 M-93.2 11.85 Q-95.2 11.85 -95.65 9.7 L-95.7 7.85 Q-95.7 4.55 -93.45 4.65 -91.2 4.8 -91.2 8.3 -91.2 11.85 -93.2 11.85 M-101.7 42.95 Q-101.7 43.8 -102.7 44.6 -103.65 45.35 -104.7 45.35 -109.7 45.35 -109.7 40.95 -109.7 35.8 -105.7 37.4 -101.7 38.95 -101.7 42.95" fill="#b5f7ff" fill-rule="evenodd" stroke="none"/>
    <path d="M105.45 -109.15 Q106.4 -110.0 108.25 -110.0 111.25 -110.0 111.85 -107.85 L112.0 -106.6 Q112.0 -105.0 111.0 -104.0 110.0 -103.0 108.25 -103.0 105.75 -103.0 104.9 -104.7 104.45 -105.55 104.5 -106.55 104.5 -108.3 105.45 -109.15 M9.9 -110.7 L9.4 -109.5 Q8.5 -108.0 6.5 -108.0 4.2 -108.0 3.4 -109.85 L3.3 -110.1 Q2.95 -110.95 3.0 -111.75 3.0 -115.55 6.5 -115.55 10.0 -115.55 10.0 -111.75 L9.9 -110.7 M-0.75 -102.3 L1.75 -102.75 Q3.7 -102.8 4.85 -102.15 6.5 -101.2 6.5 -98.75 6.5 -97.45 5.5 -96.1 4.3 -94.5 2.5 -94.5 -0.55 -94.5 -2.05 -96.6 -3.0 -97.95 -3.0 -99.05 -3.0 -101.45 -0.75 -102.3 M0.3 -62.85 Q1.2 -63.9 3.0 -64.0 4.9 -64.1 5.8 -62.9 L6.5 -60.55 6.5 -60.05 Q6.5 -58.75 5.9 -57.65 4.95 -56.0 3.0 -56.0 0.8 -56.0 -0.05 -57.85 -0.5 -58.8 -0.5 -60.1 L-0.4 -61.2 Q-0.25 -62.25 0.3 -62.85 M84.5 -40.4 Q84.5 -42.25 85.9 -43.2 87.2 -44.05 89.0 -43.75 93.5 -43.0 93.5 -38.35 93.5 -37.45 92.9 -36.5 91.9 -35.0 90.0 -35.0 87.85 -35.0 86.0 -37.6 84.5 -39.65 84.5 -40.4 M99.5 -20.05 Q99.5 -23.5 103.0 -23.5 106.5 -23.5 106.5 -20.1 106.5 -18.95 105.75 -17.9 104.75 -16.5 103.0 -16.5 100.7 -16.5 99.85 -18.2 99.45 -19.05 99.5 -20.05 M2.0 19.75 Q0.9 21.5 -3.5 21.5 -7.2 21.5 -8.55 20.3 -9.5 19.5 -9.5 17.85 -9.5 16.0 -7.6 13.75 -5.8 11.6 -3.5 10.6 L0.65 10.5 Q2.5 11.7 2.5 15.6 2.5 18.9 2.0 19.75 M28.5 32.3 Q32.0 32.3 32.0 37.0 32.0 38.45 31.5 39.55 30.6 41.5 28.5 41.5 25.8 41.5 25.1 39.25 L25.0 37.0 Q25.0 32.3 28.5 32.3 M38.5 78.1 Q38.5 80.1 37.1 82.5 35.4 85.5 33.0 85.5 29.85 85.5 29.15 83.0 L29.0 80.35 Q29.0 77.25 29.5 76.05 30.55 73.5 34.0 73.5 37.35 73.5 38.25 75.75 38.7 76.9 38.5 78.1 M25.15 92.8 L24.0 90.0 Q24.0 88.4 25.25 87.35 26.4 86.35 28.0 86.35 32.0 86.3 32.0 91.0 32.0 92.45 31.5 93.55 30.6 95.5 28.5 95.5 26.6 95.5 25.15 92.8 M-21.75 -19.5 Q-18.6 -19.5 -17.55 -18.0 -17.0 -17.25 -17.0 -15.75 -17.0 -14.35 -18.3 -12.75 -20.1 -10.5 -23.25 -10.5 -25.6 -10.5 -26.55 -12.35 L-27.0 -14.25 Q-27.0 -16.3 -26.05 -17.6 -24.75 -19.5 -21.75 -19.5 M-5.55 35.75 L-6.0 33.4 Q-6.0 29.35 -2.25 29.35 1.5 29.3 1.5 33.6 1.5 38.0 -2.0 38.0 -4.6 38.0 -5.55 35.75 M-23.55 81.05 L-24.0 79.35 Q-24.0 75.95 -20.5 75.95 -17.0 75.95 -17.0 79.35 -17.0 80.45 -17.75 81.55 -18.75 83.0 -20.5 83.0 -22.65 83.0 -23.55 81.05" fill="#ffffff" fill-rule="evenodd" stroke="none"/>
  </g>
</svg>
