<?xml version="1.0" encoding="UTF-8" standalone="no"?>
<svg xmlns:ffdec="https://www.free-decompiler.com/flash" xmlns:xlink="http://www.w3.org/1999/xlink" ffdec:objectType="shape" height="19.25px" width="67.8px" xmlns="http://www.w3.org/2000/svg">
  <g transform="matrix(1.0, 0.0, 0.0, 1.0, 50.35, 1.95)">
    <path d="M13.4 8.65 L13.5 9.85 3.2 10.9 3.1 9.9 3.0 8.9 1.85 8.9 1.85 3.05 1.8 -1.45 4.6 -1.45 4.65 4.4 1.85 3.05 4.65 4.4 4.65 7.95 6.05 7.8 10.65 7.3 13.4 8.65 10.65 7.3 12.4 7.15 12.4 3.2 12.35 -1.95 15.15 -1.95 15.2 8.4 13.35 8.4 13.4 8.65 M3.1 9.9 L6.05 7.8 3.1 9.9" fill="#262626" fill-rule="evenodd" stroke="none"/>
    <path d="M4.65 4.4 L8.25 6.15 12.4 3.2 M13.4 8.65 L14.45 9.15 M13.4 8.65 L10.65 7.3 8.25 6.15 6.05 7.8 3.1 9.9 M4.65 4.4 L1.85 3.05" fill="none" stroke="#333333" stroke-linecap="round" stroke-linejoin="round" stroke-width="1.0"/>
    <path d="M-34.65 4.6 L-46.9 13.95" fill="none" stroke="#333333" stroke-linecap="round" stroke-linejoin="round" stroke-width="1.0"/>
    <path d="M-46.9 13.95 L-42.4 4.6" fill="none" stroke="#333333" stroke-linecap="round" stroke-linejoin="round" stroke-width="2.0"/>
    <path d="M-45.75 16.1 L-47.65 16.35 Q-48.6 16.1 -49.2 15.15 -49.65 14.3 -49.4 13.3 -49.15 12.35 -48.3 11.75 -47.3 11.25 -46.35 11.5 -45.35 11.8 -44.85 12.7 -44.3 13.65 -44.55 14.6 -44.8 15.6 -45.75 16.1" fill="#666666" fill-rule="evenodd" stroke="none"/>
    <path d="M-45.75 16.1 L-47.65 16.35 Q-48.6 16.1 -49.2 15.15 -49.65 14.3 -49.4 13.3 -49.15 12.35 -48.3 11.75 -47.3 11.25 -46.35 11.5 -45.35 11.8 -44.85 12.7 -44.3 13.65 -44.55 14.6 -44.8 15.6 -45.75 16.1 Z" fill="none" stroke="#333333" stroke-linecap="round" stroke-linejoin="round" stroke-width="1.75"/>
    <path d="M4.85 12.35 Q4.15 13.1 3.1 13.1 2.1 13.1 1.3 12.35 0.6 11.6 0.6 10.6 0.6 9.6 1.3 8.8 2.1 8.1 3.1 8.1 4.15 8.1 4.85 8.8 5.65 9.6 5.65 10.6 5.65 11.6 4.85 12.35" fill="#666666" fill-rule="evenodd" stroke="none"/>
    <path d="M4.85 12.35 Q4.15 13.1 3.1 13.1 2.1 13.1 1.3 12.35 0.6 11.6 0.6 10.6 0.6 9.6 1.3 8.8 2.1 8.1 3.1 8.1 4.15 8.1 4.85 8.8 5.65 9.6 5.65 10.6 5.65 11.6 4.85 12.35 Z" fill="none" stroke="#333333" stroke-linecap="round" stroke-linejoin="round" stroke-width="1.75"/>
    <path d="M15.8 11.65 Q15.1 12.4 14.05 12.4 13.05 12.4 12.25 11.65 11.55 10.9 11.55 9.9 11.55 8.9 12.25 8.1 13.05 7.4 14.05 7.4 15.1 7.4 15.8 8.1 16.6 8.9 16.6 9.9 16.6 10.9 15.8 11.65" fill="#666666" fill-rule="evenodd" stroke="none"/>
    <path d="M15.8 11.65 Q15.1 12.4 14.05 12.4 13.05 12.4 12.25 11.65 11.55 10.9 11.55 9.9 11.55 8.9 12.25 8.1 13.05 7.4 14.05 7.4 15.1 7.4 15.8 8.1 16.6 8.9 16.6 9.9 16.6 10.9 15.8 11.65 Z" fill="none" stroke="#333333" stroke-linecap="round" stroke-linejoin="round" stroke-width="1.75"/>
  </g>
</svg>
