<?xml version="1.0" encoding="UTF-8" standalone="no"?>
<svg xmlns:ffdec="https://www.free-decompiler.com/flash" xmlns:xlink="http://www.w3.org/1999/xlink" ffdec:objectType="shape" height="129.5px" width="129.5px" xmlns="http://www.w3.org/2000/svg">
  <g transform="matrix(1.0, 0.0, 0.0, 1.0, 603.25, 363.25)">
    <path d="M-493.1 -343.95 Q-474.25 -325.1 -474.25 -298.5 -474.25 -271.9 -493.1 -253.1 -511.9 -234.25 -538.5 -234.25 -565.1 -234.25 -583.95 -253.1 -602.75 -271.9 -602.75 -298.5 -602.75 -325.1 -583.95 -343.95 -565.1 -362.75 -538.5 -362.75 -511.9 -362.75 -493.1 -343.95" fill="#1b4465" fill-rule="evenodd" stroke="none"/>
    <path d="M-493.1 -343.95 Q-474.25 -325.1 -474.25 -298.5 -474.25 -271.9 -493.1 -253.1 -511.9 -234.25 -538.5 -234.25 -565.1 -234.25 -583.95 -253.1 -602.75 -271.9 -602.75 -298.5 -602.75 -325.1 -583.95 -343.95 -565.1 -362.75 -538.5 -362.75 -511.9 -362.75 -493.1 -343.95 Z" fill="none" stroke="#000000" stroke-linecap="round" stroke-linejoin="round" stroke-width="1.0"/>
  </g>
</svg>
