<?xml version="1.0" encoding="UTF-8" standalone="no"?>
<svg xmlns:ffdec="https://www.free-decompiler.com/flash" xmlns:xlink="http://www.w3.org/1999/xlink" ffdec:objectType="shape" height="158.25px" width="168.35px" xmlns="http://www.w3.org/2000/svg">
  <g transform="matrix(1.0, 0.0, 0.0, 1.0, 76.4, 109.5)">
    <path d="M0.85 -37.35 L12.1 -37.25 17.6 -47.0 28.45 -47.1 34.45 -37.35 44.85 -37.0 47.7 -42.75 53.6 -37.85 51.85 -30.0 54.7 -29.75 64.45 -41.5 66.95 -36.75 78.35 -36.75 83.35 -28.0 85.6 -29.35 91.95 -27.35 86.7 -21.0 75.1 -19.85 58.2 -16.35 53.6 -13.5 54.95 -12.0 66.85 -15.1 71.85 -9.35 70.35 -7.0 64.7 -1.6 62.1 -2.65 63.35 -4.25 62.0 -6.15 56.6 -5.4 50.85 2.5 44.5 5.35 27.25 17.75 17.5 29.25 15.6 41.5 12.85 44.35 9.0 43.35 10.0 34.75 8.0 32.5 -2.4 32.25 -12.0 31.5 -19.4 41.1 -20.65 38.85 -32.0 38.75 -37.15 48.5 -39.0 48.75 -37.1 38.75 -36.0 28.1 -40.0 22.85 -45.6 21.0 -42.25 31.6 -42.6 41.1 -44.1 46.0 -46.6 46.35 -51.1 35.25 -49.5 28.1 -48.4 13.85 -50.9 4.35 -48.5 -0.4 -51.25 -5.1 -47.15 -15.0 -41.5 -23.6 -34.9 -29.5 -30.25 -31.1 -28.5 -27.6 -26.15 -29.0 -26.4 -45.35 -20.65 -55.25 -15.4 -47.0 -4.65 -47.1 0.85 -37.35 M-4.75 -104.1 L1.0 -95.0 -4.65 -84.85 -15.4 -85.1 -20.65 -76.25 -25.5 -76.25 -30.25 -79.6 -39.5 -71.35 -50.75 -68.85 -57.5 -66.25 -76.4 -65.25 -59.15 -67.75 -51.65 -69.75 -48.65 -72.5 -48.25 -75.35 -52.4 -77.6 -49.15 -80.6 -52.0 -84.1 -47.65 -88.35 -45.4 -89.6 -30.5 -89.6 -28.4 -92.1 -34.9 -95.1 -29.4 -100.5 -26.65 -100.6 -19.9 -97.1 -18.0 -100.25 -16.9 -106.75 -3.5 -109.35 -1.5 -109.5 -4.75 -104.1" fill="#ffffff" fill-opacity="0.4" fill-rule="evenodd" stroke="none"/>
  </g>
</svg>
