<?xml version="1.0" encoding="UTF-8" standalone="no"?>
<svg xmlns:ffdec="https://www.free-decompiler.com/flash" xmlns:xlink="http://www.w3.org/1999/xlink" ffdec:objectType="shape" height="112.9px" width="62.75px" xmlns="http://www.w3.org/2000/svg">
  <g transform="matrix(1.0, 0.0, 0.0, 1.0, 30.75, 52.0)">
    <path d="M2.85 -34.6 L6.85 -30.6 Q12.7 -27.7 18.5 -24.85 L25.0 -23.85 28.85 -21.0 32.0 -8.6 30.35 0.15 28.75 16.9 25.25 25.9 21.25 30.0 14.6 34.25 16.35 43.9 13.75 48.65 12.85 56.5 8.85 60.9 6.35 60.4 2.5 53.65 8.0 43.9 2.5 34.25 -8.65 34.4 -14.15 25.25 -8.65 15.4 -14.25 6.25 -24.75 6.25 -30.4 -3.6 -25.15 -12.6 -30.25 -22.75 -25.4 -32.0 -30.75 -42.1 -25.15 -51.5 -15.9 -52.0 -4.9 -46.85 -2.15 -43.0 2.85 -34.6" fill="#ffffff" fill-opacity="0.4" fill-rule="evenodd" stroke="none"/>
  </g>
</svg>
