<?xml version="1.0" encoding="UTF-8" standalone="no"?>
<svg xmlns:ffdec="https://www.free-decompiler.com/flash" xmlns:xlink="http://www.w3.org/1999/xlink" ffdec:objectType="shape" height="68.8px" width="573.0px" xmlns="http://www.w3.org/2000/svg">
  <g transform="matrix(1.0, 0.0, 0.0, 1.0, 286.4, 34.6)">
    <path d="M265.2 -23.2 Q275.2 -23.2 275.2 -13.2 L275.2 12.8 Q275.2 22.8 265.2 22.8 L-265.0 22.8 Q-275.0 22.8 -275.0 12.8 L-275.0 -13.2 Q-275.0 -23.2 -265.0 -23.2 L265.2 -23.2" fill="#330000" fill-opacity="0.49803922" fill-rule="evenodd" stroke="none"/>
    <path d="M265.2 -23.2 L-265.0 -23.2 Q-275.0 -23.2 -275.0 -13.2 L-275.0 12.8 Q-275.0 22.8 -265.0 22.8 L265.2 22.8 Q275.2 22.8 275.2 12.8 L275.2 -13.2 Q275.2 -23.2 265.2 -23.2 Z" fill="none" stroke="#261509" stroke-linecap="round" stroke-linejoin="round" stroke-width="22.8"/>
  </g>
</svg>
