<?xml version="1.0" encoding="UTF-8" standalone="no"?>
<svg xmlns:ffdec="https://www.free-decompiler.com/flash" xmlns:xlink="http://www.w3.org/1999/xlink" ffdec:objectType="shape" height="45.6px" width="550.95px" xmlns="http://www.w3.org/2000/svg">
  <g transform="matrix(1.0, 0.0, 0.0, 1.0, 0.5, 42.0)">
    <path d="M550.0 -42.0 L550.0 3.0 0.0 3.0 0.0 -42.0 550.0 -42.0 M0.5 2.6 L549.45 2.6 0.5 2.6 M0.5 -5.4 L549.45 -5.4 0.5 -5.4 M0.5 -13.4 L549.45 -13.4 0.5 -13.4 M0.5 -21.4 L549.45 -21.4 0.5 -21.4 M0.5 -29.4 L549.45 -29.4 0.5 -29.4 M0.5 -37.4 L549.45 -37.4 0.5 -37.4" fill="url(#gradient0)" fill-rule="evenodd" stroke="none"/>
    <path d="M549.45 -37.4 L0.5 -37.4 M549.45 -29.4 L0.5 -29.4 M549.45 -21.4 L0.5 -21.4 M549.45 -13.4 L0.5 -13.4 M549.45 -5.4 L0.5 -5.4 M549.45 2.6 L0.5 2.6" fill="none" stroke="#ffffcc" stroke-linecap="butt" stroke-linejoin="round" stroke-opacity="0.49803922" stroke-width="2.0"/>
  </g>
  <defs>
    <linearGradient gradientTransform="matrix(0.0, -0.0604, 0.0274, 0.0, 277.0, 10.0)" gradientUnits="userSpaceOnUse" id="gradient0" spreadMethod="pad" x1="-819.2" x2="819.2">
      <stop offset="0.0" stop-color="#000000"/>
      <stop offset="0.49411764705882355" stop-color="#494b34"/>
      <stop offset="0.7764705882352941" stop-color="#f4800b"/>
      <stop offset="0.9176470588235294" stop-color="#fcbd61"/>
      <stop offset="1.0" stop-color="#ffff99"/>
    </linearGradient>
  </defs>
</svg>
