<?xml version="1.0" encoding="UTF-8" standalone="no"?>
<svg xmlns:ffdec="https://www.free-decompiler.com/flash" xmlns:xlink="http://www.w3.org/1999/xlink" ffdec:objectType="shape" height="13.75px" width="61.65px" xmlns="http://www.w3.org/2000/svg">
  <g transform="matrix(1.0, 0.0, 0.0, 1.0, 29.9, 9.2)">
    <path d="M21.1 -2.85 L21.1 1.8 18.3 0.15 18.3 -4.2 18.25 -8.7 21.05 -8.7 21.1 -2.85 18.3 -4.2 21.1 -2.85 M28.85 -4.05 L28.8 -9.2 31.6 -9.2 31.75 3.15 27.3 0.15 26.2 0.15 27.1 0.05 28.85 -0.1 28.85 -4.05 M27.1 0.05 L27.3 0.15 27.1 0.05" fill="#262626" fill-rule="evenodd" stroke="none"/>
    <path d="M21.1 -2.85 L24.7 -1.1 28.85 -4.05 M27.1 0.05 L24.7 -1.1 23.05 0.15 M21.1 -2.85 L18.3 -4.2 M27.3 0.15 L27.1 0.05 M-26.3 3.55 L-18.2 -2.65" fill="none" stroke="#333333" stroke-linecap="round" stroke-linejoin="round" stroke-width="1.0"/>
    <path d="M-28.9 3.55 L-25.95 -2.65" fill="none" stroke="#333333" stroke-linecap="round" stroke-linejoin="round" stroke-width="2.0"/>
  </g>
</svg>
