<?xml version="1.0" encoding="UTF-8" standalone="no"?>
<svg xmlns:ffdec="https://www.free-decompiler.com/flash" xmlns:xlink="http://www.w3.org/1999/xlink" ffdec:objectType="shape" height="6.7px" width="6.75px" xmlns="http://www.w3.org/2000/svg">
  <g transform="matrix(1.0, 0.0, 0.0, 1.0, 3.35, 3.35)">
    <path d="M1.75 1.75 Q1.05 2.5 0.0 2.5 -1.0 2.5 -1.8 1.75 -2.5 1.0 -2.5 0.0 -2.5 -1.0 -1.8 -1.8 -1.0 -2.5 0.0 -2.5 1.05 -2.5 1.75 -1.8 2.55 -1.0 2.55 0.0 2.55 1.0 1.75 1.75" fill="#666666" fill-rule="evenodd" stroke="none"/>
    <path d="M1.75 1.75 Q1.05 2.5 0.0 2.5 -1.0 2.5 -1.8 1.75 -2.5 1.0 -2.5 0.0 -2.5 -1.0 -1.8 -1.8 -1.0 -2.5 0.0 -2.5 1.05 -2.5 1.75 -1.8 2.55 -1.0 2.55 0.0 2.55 1.0 1.75 1.75 Z" fill="none" stroke="#333333" stroke-linecap="round" stroke-linejoin="round" stroke-width="1.75"/>
  </g>
</svg>
