<?xml version="1.0" encoding="UTF-8" standalone="no"?>
<svg xmlns:ffdec="https://www.free-decompiler.com/flash" xmlns:xlink="http://www.w3.org/1999/xlink" ffdec:objectType="shape" height="21.35px" width="119.0px" xmlns="http://www.w3.org/2000/svg">
  <g transform="matrix(1.0, 0.0, 0.0, 1.0, -1.5, 11.45)">
    <path d="M114.2 -8.1 Q113.05 -8.1 112.7 -8.75 L112.6 -9.5 Q112.6 -11.15 116.55 -11.4 120.5 -11.65 120.5 -9.85 120.5 -9.0 119.5 -8.65 118.15 -8.1 114.2 -8.1 M105.45 2.5 Q105.45 3.45 102.8 5.8 99.5 8.6 96.1 8.6 L89.85 8.4 88.45 8.5 Q81.1 8.5 79.25 7.55 78.8 7.35 78.7 7.15 L76.85 7.4 74.9 7.9 67.8 7.9 63.55 7.1 63.35 7.1 Q54.15 7.1 49.55 5.45 L49.45 5.45 43.75 5.3 36.3 5.0 Q36.5 4.6 35.5 4.6 L26.2 5.0 16.55 5.8 Q15.0 5.9 13.65 6.45 L12.1 6.95 Q10.85 6.95 10.5 6.25 L10.35 5.5 Q10.35 4.2 14.2 3.2 L18.15 2.5 18.6 2.3 Q19.95 1.8 24.65 1.45 L32.7 1.8 Q41.4 1.8 47.65 2.05 L48.8 2.1 58.9 2.85 Q63.05 3.45 67.55 4.95 L74.8 4.95 76.65 4.5 82.4 4.15 Q83.5 4.15 86.25 4.95 L93.65 5.7 97.85 5.65 Q98.25 5.1 99.95 4.0 L102.0 2.4 Q102.9 0.9 104.25 1.1 105.45 1.3 105.45 2.5 M1.5 8.4 Q1.5 6.7 5.85 4.9 10.1 3.1 10.1 5.6 L7.0 7.85 Q3.75 9.9 3.0 9.9 1.45 9.9 1.5 8.4" fill="#ffffff" fill-rule="evenodd" stroke="none"/>
  </g>
</svg>
