<?xml version="1.0" encoding="UTF-8" standalone="no"?>
<svg xmlns:ffdec="https://www.free-decompiler.com/flash" xmlns:xlink="http://www.w3.org/1999/xlink" ffdec:objectType="shape" height="23.75px" width="130.5px" xmlns="http://www.w3.org/2000/svg">
  <g transform="matrix(1.0, 0.0, 0.0, 1.0, 1.5, 11.75)">
    <path d="M118.1 -8.5 Q114.7 -8.5 113.75 -9.45 L113.5 -10.25 Q113.5 -11.95 116.9 -11.75 120.25 -11.55 120.25 -9.9 120.25 -8.5 118.1 -8.5 M127.35 11.75 Q125.3 11.75 123.95 10.35 L123.0 8.95 Q123.0 6.95 126.0 7.7 129.0 8.45 129.0 10.15 129.0 11.75 127.35 11.75 M94.1 6.7 Q95.75 6.0 99.25 6.0 100.55 6.0 101.0 6.7 L101.25 7.5 Q101.25 8.3 98.5 9.25 94.75 10.5 88.35 10.5 L81.5 9.85 78.5 9.0 72.65 7.75 Q72.0 7.6 72.0 7.2 72.0 4.8 78.8 5.85 L86.1 7.4 94.1 6.7 M64.75 7.3 Q64.35 8.0 63.5 8.0 58.4 8.0 54.7 6.9 51.25 5.85 51.25 4.7 51.25 3.2 58.15 3.95 65.0 4.7 65.0 6.3 L64.75 7.3 M44.5 6.0 Q44.5 7.5 42.25 7.5 39.1 7.5 37.65 6.1 L36.75 4.7 Q36.75 2.3 40.65 3.65 44.5 5.0 44.5 6.0 M48.0 8.0 Q46.95 8.0 46.6 7.2 L46.5 6.35 Q46.5 4.65 48.15 4.65 49.75 4.65 49.75 6.25 L49.25 7.3 Q48.7 8.0 48.0 8.0 M31.25 5.5 L20.5 5.5 20.05 6.3 17.5 6.75 14.9 6.4 14.25 6.0 Q10.9 6.0 8.8 7.65 6.7 9.25 6.0 9.25 4.95 9.25 4.6 8.45 L4.5 7.6 Q4.5 3.8 12.5 3.5 L13.05 3.5 Q13.25 2.55 14.5 2.5 L31.25 2.5 Q32.25 2.85 32.55 3.25 L32.6 3.3 Q32.85 2.2 34.0 2.3 35.5 2.35 35.5 4.05 L35.25 5.0 Q34.85 5.75 34.0 5.75 32.95 5.75 32.6 4.9 L32.6 4.65 32.3 5.0 Q31.85 5.5 31.25 5.5 M3.25 9.75 Q3.25 10.45 2.35 11.2 1.4 12.0 0.1 12.0 -1.6 12.0 -1.5 10.45 -1.5 8.95 0.9 8.45 3.25 7.9 3.25 9.75" fill="#ffffff" fill-rule="evenodd" stroke="none"/>
  </g>
</svg>
