<?xml version="1.0" encoding="UTF-8" standalone="no"?>
<svg xmlns:ffdec="https://www.free-decompiler.com/flash" xmlns:xlink="http://www.w3.org/1999/xlink" ffdec:objectType="shape" height="23.15px" width="120.5px" xmlns="http://www.w3.org/2000/svg">
  <g transform="matrix(1.0, 0.0, 0.0, 1.0, 0.5, 11.4)">
    <path d="M117.5 -8.25 Q115.65 -8.25 115.15 -9.1 L115.0 -9.75 Q115.0 -11.3 117.5 -11.4 120.0 -11.45 120.0 -9.65 120.0 -8.25 117.5 -8.25 M100.35 9.7 Q99.9 10.25 99.1 10.25 94.05 10.25 92.55 9.2 92.0 8.8 92.0 7.95 92.0 6.2 96.4 6.4 100.75 6.65 100.75 8.7 100.75 9.2 100.35 9.7 M87.0 9.25 Q86.25 10.0 84.75 10.0 82.85 10.0 82.4 9.25 L82.25 8.45 Q82.25 7.1 84.9 6.55 87.5 6.0 87.5 8.0 87.5 8.7 87.0 9.25 M72.8 5.95 Q75.25 6.4 75.25 7.75 75.25 8.3 74.75 8.75 74.25 9.25 73.6 9.25 L61.9 7.6 51.5 7.5 Q49.0 7.45 49.0 5.7 49.0 4.95 49.6 4.5 L51.75 4.35 62.5 4.5 72.8 5.95 M46.4 6.7 Q45.95 7.25 45.25 7.25 37.75 7.25 35.75 6.2 35.25 5.9 35.25 4.95 35.25 3.15 41.0 3.4 46.75 3.65 46.75 5.7 L46.4 6.7 M27.0 6.5 Q21.95 6.5 20.2 5.8 L19.8 6.0 16.8 6.1 13.8 7.05 Q11.2 8.0 9.5 8.0 8.05 8.0 7.6 7.25 L7.5 6.45 Q7.5 5.35 14.0 3.6 19.05 2.25 20.2 3.7 21.3 3.1 24.15 3.15 28.75 3.2 28.75 4.9 28.75 6.5 27.0 6.5 M1.6 11.75 Q0.15 11.75 -0.35 10.85 L-0.5 10.2 Q-0.5 8.5 1.65 8.65 3.75 8.75 3.75 10.25 3.75 11.75 1.6 11.75" fill="#ffffff" fill-rule="evenodd" stroke="none"/>
  </g>
</svg>
