<?xml version="1.0" encoding="UTF-8" standalone="no"?>
<svg xmlns:ffdec="https://www.free-decompiler.com/flash" xmlns:xlink="http://www.w3.org/1999/xlink" ffdec:objectType="shape" height="17.8px" width="47.6px" xmlns="http://www.w3.org/2000/svg">
  <g transform="matrix(1.0, 0.0, 0.0, 1.0, 41.0, 9.3)">
    <path d="M-25.5 -1.9 L-25.5 -0.55 Q-25.15 0.75 -23.5 0.75 -20.4 0.75 -18.95 -1.65 -18.0 -3.2 -18.0 -4.65 -18.0 -8.35 -21.75 -7.0 -25.5 -5.65 -25.5 -1.9 M-26.55 -5.05 L-22.55 -8.35 Q-19.75 -10.3 -16.9 -8.25 -11.8 -8.35 -10.55 -7.6 -10.15 -6.8 -9.5 -6.75 -4.55 -6.1 -3.25 -4.2 L-2.5 -1.25 Q4.05 -1.8 5.95 -0.3 6.9 0.45 6.5 1.3 6.5 2.9 5.8 3.55 4.65 4.55 0.75 5.5 L-6.15 5.6 -9.5 6.25 -11.35 6.15 Q-12.35 6.15 -15.9 7.35 -19.5 8.5 -20.6 8.5 -23.9 8.5 -29.9 7.05 L-36.3 5.4 Q-39.85 4.7 -40.7 3.55 -41.0 3.15 -41.0 1.55 -41.0 -0.95 -34.95 -3.15 -29.85 -5.0 -26.55 -5.05 M-34.75 3.0 Q-32.75 3.0 -32.75 1.5 -32.75 0.0 -34.75 0.0 -36.75 0.0 -36.75 1.45 L-36.6 2.1 Q-36.15 3.0 -34.75 3.0 M0.25 1.75 L0.5 0.8 Q0.5 -0.95 -2.0 -0.9 -4.5 -0.8 -4.5 0.7 L-4.25 1.55 Q-3.5 2.5 -1.0 2.5 -0.15 2.5 0.25 1.75 M-14.1 -1.85 Q-13.6 -1.0 -12.0 -1.0 -8.75 -1.0 -7.75 -2.0 -7.25 -2.55 -7.25 -4.1 -7.25 -7.3 -10.75 -6.35 -14.25 -5.4 -14.25 -2.7 L-14.1 -1.85 M-26.5 -0.1 Q-26.5 -3.25 -29.0 -2.35 -31.5 -1.5 -31.5 0.45 L-31.1 1.5 Q-30.3 2.5 -28.6 2.5 -27.1 2.5 -26.65 1.35 -26.5 0.9 -26.5 -0.1" fill="#b9ffeb" fill-rule="evenodd" stroke="none"/>
    <path d="M-25.5 -1.9 Q-25.5 -5.65 -21.75 -7.0 -18.0 -8.35 -18.0 -4.65 -18.0 -3.2 -18.95 -1.65 -20.4 0.75 -23.5 0.75 -25.15 0.75 -25.5 -0.55 L-25.5 -1.9 M-26.5 -0.1 Q-26.5 0.9 -26.65 1.35 -27.1 2.5 -28.6 2.5 -30.3 2.5 -31.1 1.5 L-31.5 0.45 Q-31.5 -1.5 -29.0 -2.35 -26.5 -3.25 -26.5 -0.1 M-14.1 -1.85 L-14.25 -2.7 Q-14.25 -5.4 -10.75 -6.35 -7.25 -7.3 -7.25 -4.1 -7.25 -2.55 -7.75 -2.0 -8.75 -1.0 -12.0 -1.0 -13.6 -1.0 -14.1 -1.85 M0.25 1.75 Q-0.15 2.5 -1.0 2.5 -3.5 2.5 -4.25 1.55 L-4.5 0.7 Q-4.5 -0.8 -2.0 -0.9 0.5 -0.95 0.5 0.8 L0.25 1.75 M-34.75 3.0 Q-36.15 3.0 -36.6 2.1 L-36.75 1.45 Q-36.75 0.0 -34.75 0.0 -32.75 0.0 -32.75 1.5 -32.75 3.0 -34.75 3.0" fill="#ffffff" fill-rule="evenodd" stroke="none"/>
  </g>
</svg>
