<?xml version="1.0" encoding="UTF-8" standalone="no"?>
<svg xmlns:ffdec="https://www.free-decompiler.com/flash" xmlns:xlink="http://www.w3.org/1999/xlink" ffdec:objectType="shape" height="19.8px" width="51.4px" xmlns="http://www.w3.org/2000/svg">
  <g transform="matrix(1.0, 0.0, 0.0, 1.0, 41.0, 11.3)">
    <path d="M9.65 -1.3 Q10.7 -0.45 10.25 0.5 10.25 2.3 9.5 3.0 8.25 4.1 4.05 5.15 L-3.4 5.3 -7.0 6.0 -9.0 5.9 Q-10.05 5.9 -13.9 7.25 -17.8 8.5 -18.95 8.5 -22.55 8.5 -29.0 6.9 L-35.9 5.05 Q-39.75 4.3 -40.65 3.0 -41.0 2.55 -41.0 0.75 -41.0 -2.0 -34.45 -4.45 -28.95 -6.5 -25.4 -6.55 L-21.1 -10.25 Q-18.05 -12.4 -15.0 -10.15 -9.5 -10.25 -8.15 -9.4 -7.7 -8.5 -7.0 -8.45 -1.65 -7.75 -0.25 -5.6 L0.55 -2.35 Q7.6 -2.95 9.65 -1.3 M-5.25 -1.75 Q-2.0 -1.75 -2.0 -3.9 -2.0 -6.4 -4.85 -5.6 -7.75 -4.8 -7.75 -3.25 -7.75 -1.75 -5.25 -1.75 M-12.25 -1.35 Q-11.75 -1.75 -11.75 -2.65 -11.75 -4.7 -14.0 -4.4 -16.25 -4.05 -16.25 -2.25 -16.3 -0.75 -14.75 -0.75 -12.9 -0.75 -12.25 -1.35 M-26.4 -3.15 Q-28.3 -3.9 -30.6 -4.0 -36.75 -4.3 -36.75 -0.25 -36.75 2.5 -32.85 2.5 -31.65 2.5 -28.05 0.65 -24.5 -1.2 -24.5 -1.65 -24.5 -2.45 -26.4 -3.15 M-23.85 -3.85 Q-23.3 -3.0 -21.5 -3.0 -19.0 -3.0 -17.2 -4.7 -15.75 -6.0 -15.75 -6.75 -15.75 -9.7 -19.85 -8.45 -24.0 -7.25 -24.0 -4.7 L-23.85 -3.85 M5.0 -0.25 Q5.0 -2.05 2.25 -2.2 -0.5 -2.35 -0.5 -0.5 L1.0 1.0 Q2.5 2.25 3.0 2.25 3.75 2.25 4.45 1.25 5.0 0.4 5.0 -0.25" fill="#b9ffeb" fill-rule="evenodd" stroke="none"/>
    <path d="M5.0 -0.25 Q5.0 0.4 4.45 1.25 3.75 2.25 3.0 2.25 2.5 2.25 1.0 1.0 L-0.5 -0.5 Q-0.5 -2.35 2.25 -2.2 5.0 -2.05 5.0 -0.25 M-23.85 -3.85 L-24.0 -4.7 Q-24.0 -7.25 -19.85 -8.45 -15.75 -9.7 -15.75 -6.75 -15.75 -6.0 -17.2 -4.7 -19.0 -3.0 -21.5 -3.0 -23.3 -3.0 -23.85 -3.85 M-26.4 -3.15 Q-24.5 -2.45 -24.5 -1.65 -24.5 -1.2 -28.05 0.65 -31.65 2.5 -32.85 2.5 -36.75 2.5 -36.75 -0.25 -36.75 -4.3 -30.6 -4.0 -28.3 -3.9 -26.4 -3.15 M-12.25 -1.35 Q-12.9 -0.75 -14.75 -0.75 -16.3 -0.75 -16.25 -2.25 -16.25 -4.05 -14.0 -4.4 -11.75 -4.7 -11.75 -2.65 -11.75 -1.75 -12.25 -1.35 M-5.25 -1.75 Q-7.75 -1.75 -7.75 -3.25 -7.75 -4.8 -4.85 -5.6 -2.0 -6.4 -2.0 -3.9 -2.0 -1.75 -5.25 -1.75" fill="#ffffff" fill-rule="evenodd" stroke="none"/>
  </g>
</svg>
