<?xml version="1.0" encoding="UTF-8" standalone="no"?>
<svg xmlns:ffdec="https://www.free-decompiler.com/flash" xmlns:xlink="http://www.w3.org/1999/xlink" ffdec:objectType="shape" height="23.0px" width="66.05px" xmlns="http://www.w3.org/2000/svg">
  <g transform="matrix(1.0, 0.0, 0.0, 1.0, 46.05, 14.25)">
    <path d="M9.75 -13.75 Q11.25 -13.3 11.25 -12.1 11.25 -11.3 10.45 -10.55 L8.25 -8.3 Q15.5 -7.65 18.2 -5.65 20.0 -4.4 20.0 -2.15 20.0 -1.2 19.8 -0.8 19.25 0.25 17.35 0.25 L11.95 -0.3 Q7.0 -0.3 5.1 1.1 L2.55 4.25 Q-1.45 8.75 -20.25 8.75 -24.1 8.75 -25.1 7.15 L-26.0 5.5 Q-27.55 5.5 -29.7 6.75 L-32.25 8.0 Q-33.95 8.0 -36.1 5.75 -38.0 3.7 -38.0 2.7 -38.0 1.45 -37.5 0.5 L-43.6 1.0 Q-45.3 1.0 -45.85 -0.7 -46.1 -1.55 -46.0 -2.5 -46.0 -5.3 -41.85 -6.85 -37.55 -7.95 -37.15 -8.4 -35.9 -10.0 -32.6 -11.7 -27.6 -14.25 -21.6 -14.25 L-14.95 -14.0 -10.25 -10.5 Q-3.05 -10.95 -1.75 -11.8 L1.5 -13.75 9.75 -13.75 M-22.85 6.0 Q-22.35 6.0 -20.85 5.0 -19.25 3.95 -19.25 3.3 -19.25 1.4 -21.85 1.6 -24.5 1.8 -24.5 4.05 L-24.4 5.05 Q-24.1 6.0 -22.85 6.0 M-28.5 -0.4 Q-28.5 -3.25 -32.5 -1.7 -36.5 -0.2 -36.5 1.75 L-36.35 2.65 Q-35.8 3.5 -33.85 3.5 -30.25 3.5 -29.1 2.0 -28.5 1.25 -28.5 -0.4 M-31.1 -9.3 Q-33.0 -7.75 -33.0 -6.5 -33.05 -5.75 -32.75 -5.1 -32.15 -3.75 -30.35 -3.75 -27.55 -3.75 -24.0 -5.95 -20.75 -7.9 -20.75 -8.9 -20.75 -13.8 -26.85 -11.65 -29.25 -10.85 -31.1 -9.3 M-43.5 -2.1 Q-43.25 -1.0 -42.0 -1.0 L-40.35 -2.65 Q-38.75 -4.4 -38.75 -4.8 -38.75 -7.55 -41.1 -6.5 -43.5 -5.5 -43.5 -3.25 L-43.5 -2.1 M4.5 -4.5 Q9.75 -4.5 9.75 -6.4 9.75 -8.2 6.4 -8.15 3.0 -8.1 3.0 -6.2 L3.1 -5.35 Q3.45 -4.5 4.5 -4.5 M3.05 -8.6 Q4.5 -9.4 4.5 -10.15 4.5 -13.15 -0.25 -12.1 -5.0 -11.0 -5.0 -9.1 L-4.85 -8.25 Q-4.25 -7.5 -2.0 -7.5 1.1 -7.5 3.05 -8.6" fill="#b9ffeb" fill-rule="evenodd" stroke="none"/>
    <path d="M3.05 -8.6 Q1.1 -7.5 -2.0 -7.5 -4.25 -7.5 -4.85 -8.25 L-5.0 -9.1 Q-5.0 -11.0 -0.25 -12.1 4.5 -13.15 4.5 -10.15 4.5 -9.4 3.05 -8.6 M4.5 -4.5 Q3.45 -4.5 3.1 -5.35 L3.0 -6.2 Q3.0 -8.1 6.4 -8.15 9.75 -8.2 9.75 -6.4 9.75 -4.5 4.5 -4.5 M-43.5 -2.1 L-43.5 -3.25 Q-43.5 -5.5 -41.1 -6.5 -38.75 -7.55 -38.75 -4.8 -38.75 -4.4 -40.35 -2.65 L-42.0 -1.0 Q-43.25 -1.0 -43.5 -2.1 M-31.1 -9.3 Q-29.25 -10.85 -26.85 -11.65 -20.75 -13.8 -20.75 -8.9 -20.75 -7.9 -24.0 -5.95 -27.55 -3.75 -30.35 -3.75 -32.15 -3.75 -32.75 -5.1 -33.05 -5.75 -33.0 -6.5 -33.0 -7.75 -31.1 -9.3 M-28.5 -0.4 Q-28.5 1.25 -29.1 2.0 -30.25 3.5 -33.85 3.5 -35.8 3.5 -36.35 2.65 L-36.5 1.75 Q-36.5 -0.2 -32.5 -1.7 -28.5 -3.25 -28.5 -0.4 M-22.85 6.0 Q-24.1 6.0 -24.4 5.05 L-24.5 4.05 Q-24.5 1.8 -21.85 1.6 -19.25 1.4 -19.25 3.3 -19.25 3.95 -20.85 5.0 -22.35 6.0 -22.85 6.0" fill="#ffffff" fill-rule="evenodd" stroke="none"/>
  </g>
</svg>
