<?xml version="1.0" encoding="UTF-8" standalone="no"?>
<svg xmlns:ffdec="https://www.free-decompiler.com/flash" xmlns:xlink="http://www.w3.org/1999/xlink" ffdec:objectType="shape" height="21.75px" width="65.3px" xmlns="http://www.w3.org/2000/svg">
  <g transform="matrix(1.0, 0.0, 0.0, 1.0, 46.05, 13.0)">
    <path d="M9.15 -12.5 Q10.6 -12.1 10.6 -10.95 10.6 -10.2 9.8 -9.5 8.25 -8.2 7.65 -7.35 14.8 -6.75 17.5 -4.85 19.25 -3.7 19.25 -1.55 19.25 -0.65 19.05 -0.3 18.55 0.75 16.65 0.75 L11.3 0.2 Q6.4 0.2 4.55 1.5 L2.05 4.5 Q-1.95 8.75 -20.5 8.75 -24.35 8.75 -25.3 7.25 L-26.2 5.7 Q-27.75 5.7 -29.85 6.9 L-32.4 8.05 Q-34.1 8.05 -36.2 5.9 -38.05 4.0 -38.05 3.05 -38.05 1.85 -37.6 0.95 L-43.6 1.45 Q-45.25 1.45 -45.85 -0.2 -46.1 -0.95 -46.0 -1.85 -46.0 -4.55 -41.85 -6.0 -37.65 -7.0 -37.2 -7.45 -36.0 -9.0 -32.75 -10.55 -27.8 -13.0 -21.85 -13.0 L-15.3 -12.75 -10.65 -9.45 Q-3.55 -9.85 -2.25 -10.7 0.5 -12.4 1.0 -12.5 L9.15 -12.5 M-30.25 2.3 Q-29.5 1.7 -29.5 0.8 -29.5 -1.55 -32.25 -0.95 -35.0 -0.3 -35.0 1.35 L-34.85 2.2 Q-34.4 3.0 -33.1 3.0 -31.2 3.0 -30.25 2.3 M-17.9 4.45 Q-17.25 3.65 -17.25 3.0 -17.25 1.15 -19.25 1.65 -21.25 2.2 -21.25 3.6 L-21.1 4.45 Q-20.7 5.25 -19.5 5.25 -18.65 5.25 -17.9 4.45 M-34.5 -6.1 Q-34.6 -5.65 -34.35 -5.25 -33.8 -4.5 -31.75 -4.5 -29.95 -4.5 -28.6 -5.05 L-26.5 -5.65 Q-24.35 -5.65 -22.5 -7.25 -20.75 -8.7 -20.75 -10.1 -20.75 -13.15 -27.6 -10.7 -34.5 -8.25 -34.5 -6.1 M-43.75 -2.7 Q-43.15 -1.75 -41.75 -1.75 -40.9 -1.75 -40.5 -2.4 -40.25 -2.85 -40.25 -3.25 -40.25 -4.75 -42.1 -4.95 -44.0 -5.1 -44.0 -3.5 L-43.75 -2.7 M7.1 -1.25 L9.5 -1.55 Q10.25 -1.95 10.25 -3.1 10.25 -5.35 6.15 -4.6 2.0 -3.85 2.0 -1.5 1.95 -1.05 2.15 -0.7 2.45 0.0 3.6 0.0 4.25 0.0 5.15 -0.6 6.05 -1.25 7.1 -1.25 M2.75 -7.6 Q4.5 -9.15 4.5 -10.4 4.5 -13.55 0.25 -11.45 -4.0 -9.3 -4.0 -7.25 L-3.85 -6.45 Q-3.4 -5.75 -2.0 -5.75 0.7 -5.75 2.75 -7.6" fill="#b9ffeb" fill-rule="evenodd" stroke="none"/>
    <path d="M2.75 -7.6 Q0.7 -5.75 -2.0 -5.75 -3.4 -5.75 -3.85 -6.45 L-4.0 -7.25 Q-4.0 -9.3 0.25 -11.45 4.5 -13.55 4.5 -10.4 4.5 -9.15 2.75 -7.6 M7.1 -1.25 Q6.05 -1.25 5.15 -0.6 4.25 0.0 3.6 0.0 2.45 0.0 2.15 -0.7 1.95 -1.05 2.0 -1.5 2.0 -3.85 6.15 -4.6 10.25 -5.35 10.25 -3.1 10.25 -1.95 9.5 -1.55 L7.1 -1.25 M-43.75 -2.7 L-44.0 -3.5 Q-44.0 -5.1 -42.1 -4.95 -40.25 -4.75 -40.25 -3.25 -40.25 -2.85 -40.5 -2.4 -40.9 -1.75 -41.75 -1.75 -43.15 -1.75 -43.75 -2.7 M-34.5 -6.1 Q-34.5 -8.25 -27.6 -10.7 -20.75 -13.15 -20.75 -10.1 -20.75 -8.7 -22.5 -7.25 -24.35 -5.65 -26.5 -5.65 L-28.6 -5.05 Q-29.95 -4.5 -31.75 -4.5 -33.8 -4.5 -34.35 -5.25 -34.6 -5.65 -34.5 -6.1 M-17.9 4.45 Q-18.65 5.25 -19.5 5.25 -20.7 5.25 -21.1 4.45 L-21.25 3.6 Q-21.25 2.2 -19.25 1.65 -17.25 1.15 -17.25 3.0 -17.25 3.65 -17.9 4.45 M-30.25 2.3 Q-31.2 3.0 -33.1 3.0 -34.4 3.0 -34.85 2.2 L-35.0 1.35 Q-35.0 -0.3 -32.25 -0.95 -29.5 -1.55 -29.5 0.8 -29.5 1.7 -30.25 2.3" fill="#ffffff" fill-rule="evenodd" stroke="none"/>
  </g>
</svg>
