<?xml version="1.0" encoding="UTF-8" standalone="no"?>
<svg xmlns:ffdec="https://www.free-decompiler.com/flash" xmlns:xlink="http://www.w3.org/1999/xlink" ffdec:objectType="shape" height="15.85px" width="44.0px" xmlns="http://www.w3.org/2000/svg">
  <g transform="matrix(1.0, 0.0, 0.0, 1.0, 24.0, 7.35)">
    <path d="M17.0 -5.5 Q19.25 -5.25 19.8 -4.2 L20.0 -2.45 Q20.0 -1.05 18.75 -0.4 15.85 0.75 12.4 2.5 7.9 4.85 5.65 5.35 L-1.5 5.85 -5.45 7.2 Q-9.85 8.5 -15.1 8.5 -18.55 8.5 -21.4 5.4 -24.0 2.65 -24.0 0.35 L-23.75 -1.5 -22.3 -4.05 Q-20.25 -7.9 -14.2 -7.25 -11.05 -6.9 -7.75 -5.8 L-5.05 -5.95 -3.75 -6.5 2.75 -6.5 Q6.4 -5.2 10.5 -5.5 L17.0 -5.5" fill="#ffffff" fill-rule="evenodd" stroke="none"/>
  </g>
</svg>
