<?xml version="1.0" encoding="UTF-8" standalone="no"?>
<svg xmlns:ffdec="https://www.free-decompiler.com/flash" xmlns:xlink="http://www.w3.org/1999/xlink" ffdec:objectType="shape" height="36.9px" width="16.85px" xmlns="http://www.w3.org/2000/svg">
  <g transform="matrix(1.0, 0.0, 0.0, 1.0, 0.75, 15.9)">
    <path d="M12.1 -13.6 L12.5 -12.15 Q13.35 -10.05 14.05 -5.8 L14.95 -0.55 Q15.7 2.0 15.95 5.3 L16.1 11.1 Q16.1 14.5 15.55 16.25 15.0 17.85 13.8 19.1 12.0 21.0 9.55 21.0 7.95 21.0 5.65 19.25 3.65 17.75 3.05 16.7 L1.7 14.4 Q1.1 13.15 0.95 12.2 L0.3 9.95 -0.25 7.7 Q-0.25 6.3 -0.5 5.2 L-0.75 3.2 Q-0.75 -3.0 2.0 -8.35 2.8 -9.95 4.85 -11.85 L7.35 -14.15 8.75 -15.7 Q9.85 -16.35 11.3 -15.05 11.85 -14.6 12.1 -13.6" fill="#000000" fill-rule="evenodd" stroke="none"/>
  </g>
</svg>
