<?xml version="1.0" encoding="UTF-8" standalone="no"?>
<svg xmlns:ffdec="https://www.free-decompiler.com/flash" xmlns:xlink="http://www.w3.org/1999/xlink" ffdec:objectType="shape" height="24.4px" width="6.65px" xmlns="http://www.w3.org/2000/svg">
  <g transform="matrix(1.0, 0.0, 0.0, 1.0, 2.9, 2.5)">
    <path d="M-0.7 -0.65 Q-0.65 -2.5 0.0 -2.5 0.75 -2.5 0.75 0.05 1.0 2.5 0.0 2.5 -0.55 2.5 -0.7 1.4 -1.05 1.9 -1.75 1.9 -2.9 1.9 -2.9 0.8 -2.9 -0.3 -1.7 -0.75 L-0.7 -0.65 M3.75 8.3 Q3.75 9.9 2.4 9.9 1.55 9.9 1.25 9.0 L1.1 8.15 Q1.1 6.75 2.45 6.35 3.75 5.95 3.75 8.3 M0.75 11.85 L1.8 11.75 Q3.1 12.0 3.1 12.9 2.4 16.15 1.1 16.15 0.25 16.15 0.3 15.35 L0.05 15.4 Q-0.55 15.4 -0.7 14.1 L-0.7 12.9 Q-0.7 10.4 0.05 10.4 0.6 10.4 0.75 11.85 M0.0 9.25 Q-0.6 9.25 -0.75 7.95 L-0.75 6.75 Q-0.75 4.25 0.0 4.25 0.75 4.25 0.75 6.8 1.0 9.25 0.0 9.25 M0.8 19.45 Q1.05 21.9 0.05 21.9 -0.55 21.9 -0.7 20.6 L-0.7 19.4 Q-0.7 16.9 0.05 16.9 0.8 16.9 0.8 19.45" fill="#000000" fill-rule="evenodd" stroke="none"/>
  </g>
</svg>
