<?xml version="1.0" encoding="UTF-8" standalone="no"?>
<svg xmlns:ffdec="https://www.free-decompiler.com/flash" xmlns:xlink="http://www.w3.org/1999/xlink" ffdec:objectType="shape" height="19.25px" width="67.8px" xmlns="http://www.w3.org/2000/svg">
  <g transform="matrix(1.0, 0.0, 0.0, 1.0, -80.5, -120.4)">
    <path d="M144.25 131.0 L144.35 132.2 134.05 133.25 133.95 132.25 133.85 131.25 132.7 131.25 132.7 125.4 132.65 120.9 135.45 120.9 135.5 126.75 132.7 125.4 135.5 126.75 135.5 130.3 136.9 130.15 141.5 129.65 143.25 129.5 143.25 125.55 143.2 120.4 146.0 120.4 146.05 130.75 144.2 130.75 144.25 131.0 141.5 129.65 144.25 131.0 M133.95 132.25 L136.9 130.15 133.95 132.25" fill="#262626" fill-rule="evenodd" stroke="none"/>
    <path d="M135.5 126.75 L139.1 128.5 143.25 125.55 M144.25 131.0 L145.3 131.5 M141.5 129.65 L144.25 131.0 M132.7 125.4 L135.5 126.75 M136.9 130.15 L139.1 128.5 141.5 129.65 M136.9 130.15 L133.95 132.25" fill="none" stroke="#333333" stroke-linecap="round" stroke-linejoin="round" stroke-width="1.0"/>
    <path d="M96.2 126.95 L83.95 136.3" fill="none" stroke="#333333" stroke-linecap="round" stroke-linejoin="round" stroke-width="1.0"/>
    <path d="M83.95 136.3 L88.45 126.95" fill="none" stroke="#333333" stroke-linecap="round" stroke-linejoin="round" stroke-width="2.0"/>
    <path d="M85.1 138.45 L83.2 138.7 Q82.25 138.45 81.65 137.5 81.2 136.65 81.45 135.65 81.7 134.7 82.55 134.1 83.55 133.6 84.5 133.85 85.5 134.15 86.0 135.05 86.55 136.0 86.3 136.95 86.05 137.95 85.1 138.45" fill="#666666" fill-rule="evenodd" stroke="none"/>
    <path d="M85.1 138.45 L83.2 138.7 Q82.25 138.45 81.65 137.5 81.2 136.65 81.45 135.65 81.7 134.7 82.55 134.1 83.55 133.6 84.5 133.85 85.5 134.15 86.0 135.05 86.55 136.0 86.3 136.95 86.05 137.95 85.1 138.45 Z" fill="none" stroke="#333333" stroke-linecap="round" stroke-linejoin="round" stroke-width="1.75"/>
    <path d="M135.7 134.7 Q135.0 135.45 133.95 135.45 132.95 135.45 132.15 134.7 131.45 133.95 131.45 132.95 131.45 131.95 132.15 131.15 132.95 130.45 133.95 130.45 135.0 130.45 135.7 131.15 136.5 131.95 136.5 132.95 136.5 133.95 135.7 134.7" fill="#666666" fill-rule="evenodd" stroke="none"/>
    <path d="M135.7 134.7 Q135.0 135.45 133.95 135.45 132.95 135.45 132.15 134.7 131.45 133.95 131.45 132.95 131.45 131.95 132.15 131.15 132.95 130.45 133.95 130.45 135.0 130.45 135.7 131.15 136.5 131.95 136.5 132.95 136.5 133.95 135.7 134.7 Z" fill="none" stroke="#333333" stroke-linecap="round" stroke-linejoin="round" stroke-width="1.75"/>
    <path d="M146.65 134.0 Q145.95 134.75 144.9 134.75 143.9 134.75 143.1 134.0 142.4 133.25 142.4 132.25 142.4 131.25 143.1 130.45 143.9 129.75 144.9 129.75 145.95 129.75 146.65 130.45 147.45 131.25 147.45 132.25 147.45 133.25 146.65 134.0" fill="#666666" fill-rule="evenodd" stroke="none"/>
    <path d="M146.65 134.0 Q145.95 134.75 144.9 134.75 143.9 134.75 143.1 134.0 142.4 133.25 142.4 132.25 142.4 131.25 143.1 130.45 143.9 129.75 144.9 129.75 145.95 129.75 146.65 130.45 147.45 131.25 147.45 132.25 147.45 133.25 146.65 134.0 Z" fill="none" stroke="#333333" stroke-linecap="round" stroke-linejoin="round" stroke-width="1.75"/>
  </g>
</svg>
