<?xml version="1.0" encoding="UTF-8" standalone="no"?>
<svg xmlns:ffdec="https://www.free-decompiler.com/flash" xmlns:xlink="http://www.w3.org/1999/xlink" ffdec:objectType="shape" height="15.2px" width="6.75px" xmlns="http://www.w3.org/2000/svg">
  <g transform="matrix(1.0, 0.0, 0.0, 1.0, 6.75, 7.05)">
    <path d="M-2.35 1.9 L-5.15 1.9 -5.2 -7.05 -2.4 -7.05 -2.35 1.9" fill="#262626" fill-rule="evenodd" stroke="none"/>
    <path d="M-1.65 6.55 Q-2.35 7.3 -3.4 7.3 -4.4 7.3 -5.2 6.55 -5.9 5.8 -5.9 4.8 -5.9 3.8 -5.2 3.0 -4.4 2.3 -3.4 2.3 -2.35 2.3 -1.65 3.0 -0.85 3.8 -0.85 4.8 -0.85 5.8 -1.65 6.55" fill="#666666" fill-rule="evenodd" stroke="none"/>
    <path d="M-1.65 6.55 Q-2.35 7.3 -3.4 7.3 -4.4 7.3 -5.2 6.55 -5.9 5.8 -5.9 4.8 -5.9 3.8 -5.2 3.0 -4.4 2.3 -3.4 2.3 -2.35 2.3 -1.65 3.0 -0.85 3.8 -0.85 4.8 -0.85 5.8 -1.65 6.55 Z" fill="none" stroke="#333333" stroke-linecap="round" stroke-linejoin="round" stroke-width="1.75"/>
  </g>
</svg>
