<?xml version="1.0" encoding="UTF-8" standalone="no"?>
<svg xmlns:ffdec="https://www.free-decompiler.com/flash" xmlns:xlink="http://www.w3.org/1999/xlink" ffdec:objectType="shape" height="19.25px" width="67.8px" xmlns="http://www.w3.org/2000/svg">
  <g transform="matrix(1.0, 0.0, 0.0, 1.0, -80.6, -120.15)">
    <path d="M143.35 125.3 L143.3 120.15 146.1 120.15 146.15 130.5 144.3 130.5 144.35 130.75 141.6 129.4 144.35 130.75 144.45 131.95 134.15 133.0 134.05 132.0 133.95 131.0 132.8 131.0 132.8 125.15 132.75 120.65 135.55 120.65 135.6 126.5 132.8 125.15 135.6 126.5 135.6 130.05 137.0 129.9 134.05 132.0 137.0 129.9 141.6 129.4 143.35 129.25 143.35 125.3" fill="#262626" fill-rule="evenodd" stroke="none"/>
    <path d="M144.35 130.75 L145.4 131.25 M132.8 125.15 L135.6 126.5 139.2 128.25 143.35 125.3 M141.6 129.4 L144.35 130.75 M141.6 129.4 L139.2 128.25 137.0 129.9 134.05 132.0" fill="none" stroke="#333333" stroke-linecap="round" stroke-linejoin="round" stroke-width="1.0"/>
    <path d="M96.3 126.7 L84.05 136.05" fill="none" stroke="#333333" stroke-linecap="round" stroke-linejoin="round" stroke-width="1.0"/>
    <path d="M84.05 136.05 L88.55 126.7" fill="none" stroke="#333333" stroke-linecap="round" stroke-linejoin="round" stroke-width="2.0"/>
    <path d="M85.2 138.2 L83.3 138.45 Q82.35 138.2 81.75 137.25 81.3 136.4 81.55 135.4 81.8 134.45 82.65 133.85 83.65 133.35 84.6 133.6 85.6 133.9 86.1 134.8 86.65 135.75 86.4 136.7 86.15 137.7 85.2 138.2" fill="#666666" fill-rule="evenodd" stroke="none"/>
    <path d="M85.2 138.2 L83.3 138.45 Q82.35 138.2 81.75 137.25 81.3 136.4 81.55 135.4 81.8 134.45 82.65 133.85 83.65 133.35 84.6 133.6 85.6 133.9 86.1 134.8 86.65 135.75 86.4 136.7 86.15 137.7 85.2 138.2 Z" fill="none" stroke="#333333" stroke-linecap="round" stroke-linejoin="round" stroke-width="1.75"/>
    <path d="M135.8 134.45 Q135.1 135.2 134.05 135.2 133.05 135.2 132.25 134.45 131.55 133.7 131.55 132.7 131.55 131.7 132.25 130.9 133.05 130.2 134.05 130.2 135.1 130.2 135.8 130.9 136.6 131.7 136.6 132.7 136.6 133.7 135.8 134.45" fill="#666666" fill-rule="evenodd" stroke="none"/>
    <path d="M135.8 134.45 Q135.1 135.2 134.05 135.2 133.05 135.2 132.25 134.45 131.55 133.7 131.55 132.7 131.55 131.7 132.25 130.9 133.05 130.2 134.05 130.2 135.1 130.2 135.8 130.9 136.6 131.7 136.6 132.7 136.6 133.7 135.8 134.45 Z" fill="none" stroke="#333333" stroke-linecap="round" stroke-linejoin="round" stroke-width="1.75"/>
    <path d="M146.75 133.75 Q146.05 134.5 145.0 134.5 144.0 134.5 143.2 133.75 142.5 133.0 142.5 132.0 142.5 131.0 143.2 130.2 144.0 129.5 145.0 129.5 146.05 129.5 146.75 130.2 147.55 131.0 147.55 132.0 147.55 133.0 146.75 133.75" fill="#666666" fill-rule="evenodd" stroke="none"/>
    <path d="M146.75 133.75 Q146.05 134.5 145.0 134.5 144.0 134.5 143.2 133.75 142.5 133.0 142.5 132.0 142.5 131.0 143.2 130.2 144.0 129.5 145.0 129.5 146.05 129.5 146.75 130.2 147.55 131.0 147.55 132.0 147.55 133.0 146.75 133.75 Z" fill="none" stroke="#333333" stroke-linecap="round" stroke-linejoin="round" stroke-width="1.75"/>
  </g>
</svg>
