<?xml version="1.0" encoding="UTF-8" standalone="no"?>
<svg xmlns:ffdec="https://www.free-decompiler.com/flash" xmlns:xlink="http://www.w3.org/1999/xlink" ffdec:objectType="shape" height="141.25px" width="123.25px" xmlns="http://www.w3.org/2000/svg">
  <g transform="matrix(1.0, 0.0, 0.0, 1.0, 61.65, 70.65)">
    <path d="M30.55 -64.85 Q30.95 -65.4 30.9 -66.05 30.8 -66.75 30.25 -67.15 L27.25 -69.45 Q26.7 -69.85 26.05 -69.75 25.35 -69.7 24.95 -69.15 L-60.45 41.8 Q-60.85 42.35 -60.75 43.05 -60.7 43.7 -60.15 44.1 L-57.15 46.4 Q-56.6 46.8 -55.9 46.75 L-54.85 46.1 30.55 -64.85 M31.7 -66.15 Q31.85 -65.15 31.2 -64.35 L-54.2 46.6 Q-54.8 47.4 -55.8 47.55 -56.85 47.7 -57.65 47.1 L-60.65 44.8 Q-61.45 44.15 -61.6 43.15 -61.75 42.1 -61.1 41.3 L24.3 -69.65 Q24.9 -70.45 25.95 -70.6 26.95 -70.75 27.75 -70.1 L30.75 -67.8 Q31.55 -67.2 31.7 -66.15" fill="#ffffff" fill-opacity="0.32941177" fill-rule="evenodd" stroke="none"/>
    <path d="M30.55 -64.85 L-54.85 46.1 -55.9 46.75 Q-56.6 46.8 -57.15 46.4 L-60.15 44.1 Q-60.7 43.7 -60.75 43.05 -60.85 42.35 -60.45 41.8 L24.95 -69.15 Q25.35 -69.7 26.05 -69.75 26.7 -69.85 27.25 -69.45 L30.25 -67.15 Q30.8 -66.75 30.9 -66.05 30.95 -65.4 30.55 -64.85 M26.15 -68.95 Q25.8 -68.95 25.6 -68.65 L-59.8 42.3 -59.95 42.9 -59.65 43.45 -56.65 45.75 -56.05 45.95 -55.5 45.6 29.9 -65.35 30.1 -65.95 29.75 -66.5 26.75 -68.8 26.15 -68.95" fill="#ffffff" fill-opacity="0.6627451" fill-rule="evenodd" stroke="none"/>
    <path d="M26.15 -68.95 L26.75 -68.8 29.75 -66.5 30.1 -65.95 29.9 -65.35 -55.5 45.6 -56.05 45.95 -56.65 45.75 -59.65 43.45 -59.95 42.9 -59.8 42.3 25.6 -68.65 Q25.8 -68.95 26.15 -68.95" fill="#ffffff" fill-rule="evenodd" stroke="none"/>
    <path d="M19.2 -46.9 L31.05 -37.05 31.3 -36.65 31.15 -36.25 -26.45 44.4 Q-26.6 44.65 -26.85 44.65 L-27.25 44.5 -39.1 34.65 -39.3 34.25 -39.2 33.85 18.4 -46.8 18.8 -47.05 19.2 -46.9" fill="#ffffff" fill-rule="evenodd" stroke="none"/>
    <path d="M19.85 -47.85 L31.75 -38.0 Q32.25 -37.6 32.4 -36.8 32.5 -36.1 32.05 -35.5 L-25.6 45.15 -26.65 45.85 Q-27.35 45.95 -27.9 45.45 L-39.8 35.6 Q-40.35 35.2 -40.45 34.45 -40.55 33.7 -40.1 33.1 L17.55 -47.55 18.65 -48.25 Q19.3 -48.35 19.85 -47.85 M19.5 -47.4 L18.7 -47.6 Q18.25 -47.6 17.95 -47.2 L-39.65 33.45 -39.85 34.35 -39.45 35.15 -27.6 45.0 Q-27.2 45.3 -26.75 45.25 L-26.0 44.8 31.6 -35.85 31.85 -36.75 31.4 -37.55 19.5 -47.4" fill="#ffffff" fill-opacity="0.32941177" fill-rule="evenodd" stroke="none"/>
    <path d="M19.5 -47.4 L31.4 -37.55 31.85 -36.75 31.6 -35.85 -26.0 44.8 -26.75 45.25 Q-27.2 45.3 -27.6 45.0 L-39.45 35.15 -39.85 34.35 -39.65 33.45 17.95 -47.2 Q18.25 -47.6 18.7 -47.6 L19.5 -47.4 M19.2 -46.9 L18.8 -47.05 18.4 -46.8 -39.2 33.85 -39.3 34.25 -39.1 34.65 -27.25 44.5 -26.85 44.65 Q-26.6 44.65 -26.45 44.4 L31.15 -36.25 31.3 -36.65 31.05 -37.05 19.2 -46.9" fill="#ffffff" fill-opacity="0.6627451" fill-rule="evenodd" stroke="none"/>
    <path d="M53.3 -49.35 L53.1 -48.75 -32.3 62.2 -32.85 62.55 -33.45 62.35 -36.45 60.05 -36.75 59.5 -36.6 58.9 48.8 -52.05 49.35 -52.35 49.95 -52.2 52.95 -49.9 53.3 -49.35" fill="#ffffff" fill-rule="evenodd" stroke="none"/>
    <path d="M50.95 -53.5 L53.95 -51.2 Q54.75 -50.6 54.9 -49.55 55.05 -48.55 54.4 -47.75 L-31.0 63.2 Q-31.6 64.0 -32.6 64.15 -33.65 64.3 -34.45 63.7 L-37.45 61.4 Q-38.25 60.75 -38.4 59.75 -38.55 58.7 -37.9 57.9 L47.5 -53.05 Q48.1 -53.85 49.15 -54.0 50.15 -54.15 50.95 -53.5 M53.75 -48.25 Q54.15 -48.8 54.1 -49.45 54.0 -50.15 53.45 -50.55 L50.45 -52.85 Q49.9 -53.25 49.25 -53.15 48.55 -53.1 48.15 -52.55 L-37.25 58.4 Q-37.65 58.95 -37.55 59.65 -37.5 60.3 -36.95 60.7 L-33.95 63.0 -32.7 63.35 Q-32.05 63.25 -31.65 62.7 L53.75 -48.25" fill="#ffffff" fill-opacity="0.32941177" fill-rule="evenodd" stroke="none"/>
    <path d="M53.3 -49.35 L52.95 -49.9 49.95 -52.2 49.35 -52.35 48.8 -52.05 -36.6 58.9 -36.75 59.5 -36.45 60.05 -33.45 62.35 -32.85 62.55 -32.3 62.2 53.1 -48.75 53.3 -49.35 M53.75 -48.25 L-31.65 62.7 Q-32.05 63.25 -32.7 63.35 L-33.95 63.0 -36.95 60.7 Q-37.5 60.3 -37.55 59.65 -37.65 58.95 -37.25 58.4 L48.15 -52.55 Q48.55 -53.1 49.25 -53.15 49.9 -53.25 50.45 -52.85 L53.45 -50.55 Q54.0 -50.15 54.1 -49.45 54.15 -48.8 53.75 -48.25" fill="#ffffff" fill-opacity="0.6627451" fill-rule="evenodd" stroke="none"/>
    <path d="M58.0 -44.4 L58.6 -44.25 59.6 -43.5 59.95 -42.95 59.75 -42.35 -25.65 68.6 -26.2 68.95 -26.8 68.75 -27.8 68.0 -28.1 67.45 -27.95 66.85 57.45 -44.1 Q57.65 -44.35 58.0 -44.4" fill="#ffffff" fill-rule="evenodd" stroke="none"/>
    <path d="M61.05 -41.35 L-24.35 69.6 Q-24.95 70.4 -25.95 70.55 -26.95 70.7 -27.75 70.1 L-28.75 69.35 Q-29.6 68.7 -29.75 67.7 -29.9 66.65 -29.25 65.85 L56.15 -45.1 Q56.75 -45.9 57.8 -46.05 58.75 -46.2 59.6 -45.55 L60.6 -44.8 Q61.4 -44.2 61.55 -43.15 61.7 -42.15 61.05 -41.35 M57.9 -45.2 Q57.2 -45.15 56.8 -44.6 L-28.6 66.35 Q-29.0 66.9 -28.9 67.6 -28.85 68.25 -28.3 68.7 L-27.3 69.45 -26.05 69.75 Q-25.4 69.65 -25.0 69.1 L60.4 -41.85 Q60.8 -42.4 60.75 -43.05 60.65 -43.75 60.1 -44.15 L59.1 -44.9 57.9 -45.2" fill="#ffffff" fill-opacity="0.32941177" fill-rule="evenodd" stroke="none"/>
    <path d="M57.9 -45.2 L59.1 -44.9 60.1 -44.15 Q60.65 -43.75 60.75 -43.05 60.8 -42.4 60.4 -41.85 L-25.0 69.1 Q-25.4 69.65 -26.05 69.75 L-27.3 69.45 -28.3 68.7 Q-28.85 68.25 -28.9 67.6 -29.0 66.9 -28.6 66.35 L56.8 -44.6 Q57.2 -45.15 57.9 -45.2 M58.0 -44.4 Q57.65 -44.35 57.45 -44.1 L-27.95 66.85 -28.1 67.45 -27.8 68.0 -26.8 68.75 -26.2 68.95 -25.65 68.6 59.75 -42.35 59.95 -42.95 59.6 -43.5 58.6 -44.25 58.0 -44.4" fill="#ffffff" fill-opacity="0.6627451" fill-rule="evenodd" stroke="none"/>
  </g>
</svg>
