<?xml version="1.0" encoding="UTF-8" standalone="no"?>
<svg xmlns:ffdec="https://www.free-decompiler.com/flash" xmlns:xlink="http://www.w3.org/1999/xlink" ffdec:objectType="shape" height="296.3px" width="1031.8px" xmlns="http://www.w3.org/2000/svg">
  <g transform="matrix(1.0, 0.0, 0.0, 1.0, 483.9, -114.3)">
    <path d="M547.7 119.8 Q547.9 120.05 547.9 120.8 547.9 121.75 547.15 122.5 546.45 123.25 545.65 123.25 544.25 123.25 543.95 122.35 L543.9 121.3 Q543.9 119.9 544.35 119.6 L547.5 119.5 547.7 119.8 M366.9 143.5 L366.85 145.05 Q366.55 146.1 365.4 146.3 363.25 145.5 362.65 144.3 362.4 143.8 362.4 142.85 L362.6 141.9 363.9 140.8 365.4 140.8 Q366.9 142.2 366.9 143.5 M365.8 124.65 Q363.65 125.05 362.4 125.8 361.3 125.5 361.0 124.8 L360.9 123.85 Q360.9 121.35 363.9 120.95 366.9 120.6 366.9 123.3 366.9 124.4 365.8 124.65 M391.5 176.3 Q390.3 177.3 389.65 177.3 388.25 177.3 387.95 176.15 L387.9 174.8 Q387.9 172.3 390.4 172.35 392.9 172.35 392.9 174.25 392.9 175.2 391.5 176.3 M484.4 141.25 Q483.15 141.25 482.9 140.25 L482.9 139.1 Q482.9 136.75 484.4 136.75 485.9 136.75 485.9 139.05 485.9 141.25 484.4 141.25 M434.9 211.95 Q433.9 213.25 433.4 213.25 432.35 213.25 431.8 212.1 L431.4 210.8 Q431.4 208.35 433.65 208.15 435.9 207.9 435.9 209.8 435.9 210.65 434.9 211.95 M163.85 121.45 L163.8 119.95 Q163.8 117.65 165.55 118.0 167.3 118.4 167.3 120.5 L167.15 122.2 166.85 122.5 165.8 122.8 Q164.25 122.8 163.85 121.45 M177.25 164.75 Q176.8 165.3 176.05 165.3 174.75 165.3 174.15 164.3 173.8 163.75 173.8 163.2 L173.85 162.45 174.05 162.05 176.2 162.55 Q177.4 163.1 177.8 163.95 L177.25 164.75 M219.8 182.3 L220.8 183.25 221.3 183.85 Q221.3 185.1 217.55 187.8 216.1 187.8 215.8 186.9 L215.8 185.85 Q215.8 184.6 216.1 184.05 216.6 183.2 218.3 182.3 L219.8 182.3 M37.75 151.0 L37.9 152.0 Q37.9 153.25 37.65 153.0 L36.4 153.5 34.9 152.1 Q34.9 151.3 35.3 150.85 L37.55 150.75 37.75 151.0 M131.55 165.8 Q130.6 166.5 129.15 166.5 L127.95 166.4 127.65 166.25 127.55 166.0 Q127.4 165.85 127.4 165.1 127.4 161.65 129.9 161.7 132.4 161.75 132.4 164.35 132.4 165.2 131.55 165.8 M110.75 228.3 Q109.55 228.3 109.25 227.3 L109.25 226.2 Q109.25 223.8 111.25 223.8 113.25 223.85 113.25 225.75 113.25 226.8 110.75 228.3 M59.75 230.3 L58.4 230.2 58.0 230.05 Q57.75 229.8 57.75 228.55 57.75 226.85 59.75 226.85 61.75 226.85 61.75 228.55 61.75 230.3 59.75 230.3 M161.3 315.35 Q161.3 314.0 161.75 313.65 L164.45 313.55 164.65 313.9 164.8 314.85 Q164.8 315.8 164.05 316.6 163.35 317.3 162.8 317.3 161.55 317.3 161.3 316.4 L161.3 315.35 M321.8 201.75 Q320.75 201.5 320.45 200.8 320.3 200.5 320.3 199.8 320.3 198.45 320.75 198.15 L323.45 198.0 323.65 198.35 323.8 199.3 323.05 200.55 321.8 201.75 M273.4 246.8 Q274.2 247.55 274.6 248.35 L274.9 249.1 Q274.9 251.3 273.4 251.3 271.3 251.3 270.65 250.2 270.4 249.8 270.4 248.85 270.4 248.2 270.55 247.9 270.85 247.35 271.9 246.8 L273.4 246.8 M435.7 403.2 L432.35 404.4 431.15 403.35 430.85 402.65 Q430.85 400.25 433.6 400.0 436.35 399.75 436.35 402.4 436.35 402.85 435.7 403.2 M-153.3 115.55 Q-153.2 116.85 -154.8 117.3 L-156.95 116.7 -157.1 116.25 -157.3 115.2 -157.25 114.45 -157.15 114.3 -155.7 114.3 -155.25 114.45 Q-154.0 114.85 -153.3 115.55 M-145.8 126.8 Q-145.8 127.55 -146.6 128.2 -147.4 128.8 -148.3 128.8 -149.55 128.8 -149.8 127.8 L-149.8 126.7 Q-149.8 124.1 -147.8 124.5 -145.8 124.9 -145.8 126.8 M-70.8 154.7 Q-70.8 152.4 -69.05 151.95 -67.3 151.55 -67.3 154.3 L-67.35 156.2 -67.8 156.5 -69.05 156.8 Q-70.5 156.8 -70.8 155.8 L-70.8 154.7 M-73.85 173.3 Q-73.45 172.8 -72.3 172.8 -70.75 172.8 -70.35 173.7 L-70.3 174.75 Q-70.3 176.1 -71.1 176.8 -71.7 177.3 -72.55 177.3 -73.95 177.3 -74.25 176.3 L-74.3 175.2 Q-74.3 173.8 -73.85 173.3 M-23.1 179.3 Q-23.5 179.8 -24.75 179.8 L-26.1 179.7 -26.5 179.55 -26.75 178.05 Q-26.75 175.3 -24.75 175.3 -22.75 175.3 -22.75 177.6 -22.75 178.9 -23.1 179.3 M-236.8 170.95 Q-237.2 171.3 -238.05 171.3 -240.1 171.3 -240.65 169.55 L-240.8 168.05 Q-240.8 165.15 -238.55 166.1 -236.3 167.05 -236.3 169.25 -236.3 170.45 -236.8 170.95 M-247.6 256.55 Q-249.1 255.3 -249.1 253.85 -249.1 251.05 -247.35 251.35 -245.6 251.65 -245.6 253.55 -245.6 254.85 -247.6 256.55 M-184.15 385.1 Q-184.8 385.8 -185.6 386.1 L-186.85 385.05 -187.1 384.35 Q-187.1 383.4 -186.9 383.15 -186.25 382.25 -184.0 382.85 L-183.8 383.2 Q-183.6 383.4 -183.6 384.15 -183.6 384.5 -184.15 385.1 M-39.4 207.4 Q-39.25 207.6 -39.25 208.35 -39.25 209.6 -39.5 209.3 L-40.75 209.8 -42.25 208.45 Q-42.25 207.75 -41.85 207.3 -41.15 206.55 -39.6 207.05 L-39.4 207.4 M-17.0 215.3 Q-18.45 215.3 -18.75 214.05 L-18.75 212.6 Q-18.75 209.15 -16.75 209.2 -14.75 209.25 -14.75 212.0 -14.75 215.3 -17.0 215.3 M-100.75 215.3 Q-101.7 216.3 -102.3 216.3 L-103.8 216.3 -105.0 215.25 -105.3 214.55 Q-105.3 213.2 -103.8 212.6 L-100.1 212.05 -99.95 212.4 Q-99.8 212.6 -99.8 213.35 -99.8 214.25 -100.75 215.3 M-149.85 344.5 L-151.1 345.1 -152.35 344.05 -152.6 343.35 Q-152.6 341.55 -151.2 340.85 -149.6 339.95 -147.6 342.35 -147.6 343.1 -148.35 343.85 -149.0 344.0 -149.85 344.5 M-129.6 328.0 Q-129.6 325.45 -127.6 325.75 -125.6 326.05 -125.6 327.65 -125.6 329.0 -128.1 330.1 -129.35 330.1 -129.6 329.1 L-129.6 328.0 M-129.85 334.9 Q-128.1 334.35 -128.1 336.35 L-128.55 337.25 -130.1 338.6 -131.6 337.25 Q-131.6 335.45 -129.85 334.9 M-139.85 365.75 L-141.35 366.6 Q-142.85 366.6 -143.1 365.7 L-143.1 364.65 Q-143.1 363.25 -142.65 362.8 -141.75 361.85 -139.0 362.35 L-138.8 362.7 Q-138.6 362.9 -138.6 363.65 -138.6 364.7 -139.85 365.75 M-363.85 195.95 Q-363.85 195.3 -363.35 194.8 -362.55 194.1 -360.85 194.3 L-359.35 195.85 Q-359.35 196.55 -359.5 196.7 L-359.7 197.05 -362.35 197.3 -363.85 195.95 M-375.55 205.4 Q-375.35 205.6 -375.35 206.35 -375.35 207.65 -375.95 208.8 -376.8 210.3 -378.35 210.3 -379.6 210.3 -379.85 209.3 L-379.85 208.2 Q-379.85 206.6 -379.4 205.9 -378.45 204.4 -375.75 205.05 L-375.55 205.4 M-404.85 336.45 L-405.35 335.3 Q-405.35 333.7 -403.35 333.8 -401.35 333.95 -401.35 335.75 -401.35 337.8 -402.85 337.8 -404.1 337.8 -404.85 336.45 M-242.1 410.6 Q-243.2 410.3 -243.5 409.6 L-243.6 408.65 -243.5 407.0 Q-240.6 405.8 -240.6 408.55 -240.6 410.45 -242.1 410.6" fill="#c9c8f8" fill-opacity="0.6" fill-rule="evenodd" stroke="none"/>
    <path d="M-47.15 203.55 Q-48.25 204.5 -48.65 204.5 -50.15 204.5 -50.4 203.3 L-50.4 202.0 Q-50.4 197.9 -48.15 198.8 -45.9 199.7 -45.9 201.5 -45.9 202.45 -47.15 203.55 M-473.4 160.0 Q-473.4 160.75 -474.15 161.25 -474.9 161.8 -474.9 162.75 L-475.3 163.7 -476.4 165.0 Q-477.9 163.9 -477.9 161.5 L-477.8 158.3 -474.95 158.35 Q-473.4 158.95 -473.4 160.0 M-481.1 167.5 Q-480.9 167.75 -480.9 168.5 -480.9 169.75 -481.15 169.5 L-482.4 170.0 -483.65 168.95 -483.9 168.6 Q-483.9 166.3 -481.3 167.25 L-481.1 167.5" fill="#c9c8f8" fill-rule="evenodd" stroke="none"/>
  </g>
</svg>
