<?xml version="1.0" encoding="UTF-8" standalone="no"?>
<svg xmlns:ffdec="https://www.free-decompiler.com/flash" xmlns:xlink="http://www.w3.org/1999/xlink" ffdec:objectType="shape" height="19.0px" width="14.0px" xmlns="http://www.w3.org/2000/svg">
  <g transform="matrix(1.0, 0.0, 0.0, 1.0, 7.0, 11.5)">
    <path d="M0.0 -7.5 Q-0.4 -7.5 -0.65 -7.2 L-0.7 -7.2 -1.0 -6.35 -1.0 -5.5 1.0 -5.5 1.0 -6.35 0.7 -7.2 0.0 -7.5 M3.55 -10.0 L3.5 -10.0 3.55 -9.95 Q5.0 -8.55 5.0 -6.35 L5.0 -5.25 6.1 -4.45 Q7.0 -3.4 7.0 -2.1 L7.0 4.15 Q7.0 5.55 6.1 6.5 L6.05 6.5 Q5.1 7.5 3.7 7.5 L-3.8 7.5 Q-5.15 7.5 -6.05 6.5 L-6.1 6.45 Q-7.0 5.55 -7.0 4.15 L-7.0 -2.1 Q-7.0 -3.4 -6.1 -4.45 L-6.05 -4.45 Q-5.6 -5.0 -5.0 -5.25 L-5.0 -6.35 Q-5.0 -8.5 -3.55 -10.0 -2.05 -11.5 0.0 -11.5 2.1 -11.5 3.55 -10.0 M1.4 -2.4 Q0.8 -3.0 0.0 -3.0 -0.8 -3.0 -1.45 -2.4 -2.0 -1.8 -2.0 -1.0 -2.0 -0.15 -1.45 0.4 L-1.0 0.75 -1.0 3.5 1.0 3.5 1.0 0.75 1.4 0.4 Q2.0 -0.15 2.0 -1.0 2.0 -1.8 1.4 -2.4" fill="#000000" fill-rule="evenodd" stroke="none"/>
    <path d="M2.8 -9.3 L2.85 -9.25 Q4.0 -8.1 4.0 -6.35 L4.0 -4.45 Q4.8 -4.4 5.35 -3.8 6.0 -3.05 6.0 -2.1 L6.0 4.15 Q6.0 5.15 5.35 5.8 4.7 6.5 3.7 6.5 L-3.8 6.5 Q-4.75 6.5 -5.35 5.8 -6.0 5.15 -6.0 4.15 L-6.0 -2.1 Q-6.0 -3.05 -5.35 -3.8 -4.8 -4.4 -4.0 -4.5 L-4.0 -6.35 Q-4.0 -8.1 -2.85 -9.3 -1.65 -10.5 0.0 -10.5 1.65 -10.5 2.8 -9.3 M1.4 -7.9 Q0.8 -8.5 0.0 -8.5 -0.8 -8.5 -1.4 -7.9 -2.0 -7.25 -2.0 -6.35 L-2.0 -4.5 2.0 -4.5 2.0 -6.35 Q2.0 -7.3 1.4 -7.9" fill="url(#gradient0)" fill-rule="evenodd" stroke="none"/>
    <path d="M2.1 -8.6 Q1.2 -9.5 0.0 -9.5 -1.25 -9.5 -2.15 -8.6 L-2.1 -8.6 Q-3.0 -7.7 -3.0 -6.35 L-3.0 -4.5 -3.25 -3.85 Q-3.5 -3.55 -3.85 -3.5 L-4.6 -3.15 -4.6 -3.1 Q-5.0 -2.65 -5.0 -2.1 L-5.0 4.15 Q-5.0 4.7 -4.65 5.1 L-4.6 5.15 Q-4.3 5.5 -3.8 5.5 L3.7 5.5 Q4.25 5.5 4.65 5.15 L4.65 5.1 Q5.0 4.7 5.0 4.15 L5.0 -2.1 4.65 -3.1 4.6 -3.15 Q4.35 -3.45 3.95 -3.45 3.55 -3.5 3.3 -3.75 3.0 -4.05 3.0 -4.45 L3.0 -6.35 Q3.0 -7.65 2.15 -8.55 L2.1 -8.6 M2.8 -9.3 L2.85 -9.25 Q4.0 -8.1 4.0 -6.35 L4.0 -4.45 Q4.8 -4.4 5.35 -3.8 6.0 -3.05 6.0 -2.1 L6.0 4.15 Q6.0 5.15 5.35 5.8 4.7 6.5 3.7 6.5 L-3.8 6.5 Q-4.75 6.5 -5.35 5.8 -6.0 5.15 -6.0 4.15 L-6.0 -2.1 Q-6.0 -3.05 -5.35 -3.8 -4.8 -4.4 -4.0 -4.5 L-4.0 -6.35 Q-4.0 -8.1 -2.85 -9.3 -1.65 -10.5 0.0 -10.5 1.65 -10.5 2.8 -9.3" fill="#ffffff" fill-rule="evenodd" stroke="none"/>
    <path d="M1.5 -1.0 Q1.5 -0.4 1.05 0.05 L0.7 0.35 0.55 0.55 0.5 0.75 0.5 3.0 -0.5 3.0 -0.5 0.75 -0.55 0.5 -0.75 0.35 -1.1 0.05 Q-1.5 -0.35 -1.5 -1.0 -1.5 -1.6 -1.1 -2.0 L-1.05 -2.05 0.0 -2.5 1.05 -2.05 1.5 -1.0" fill="#000000" fill-rule="evenodd" stroke="none"/>
    <path d="M1.5 -1.0 L1.05 -2.05 0.0 -2.5 -1.05 -2.05 -1.1 -2.0 Q-1.5 -1.6 -1.5 -1.0 -1.5 -0.35 -1.1 0.05 L-0.75 0.35 -0.55 0.5 -0.5 0.75 -0.5 3.0 0.5 3.0 0.5 0.75 0.55 0.55 0.7 0.35 1.05 0.05 Q1.5 -0.4 1.5 -1.0 M1.75 -2.75 Q2.5 -2.0 2.5 -1.0 2.5 0.1 1.75 0.8 L1.75 0.75 1.5 1.0 1.5 3.5 1.35 3.85 1.0 4.0 -1.0 4.0 -1.35 3.85 -1.5 3.5 -1.5 1.0 -1.8 0.75 Q-2.5 0.05 -2.5 -1.0 -2.5 -2.0 -1.8 -2.75 -1.0 -3.5 0.0 -3.5 1.0 -3.5 1.75 -2.75" fill="#e7e9ed" fill-rule="evenodd" stroke="none"/>
  </g>
  <defs>
    <linearGradient gradientTransform="matrix(0.0, 0.0089, -0.0073, 0.0, 0.0, -2.2)" gradientUnits="userSpaceOnUse" id="gradient0" spreadMethod="pad" x1="-819.2" x2="819.2">
      <stop offset="0.00784313725490196" stop-color="#ffffff"/>
      <stop offset="0.3176470588235294" stop-color="#a4a4a4"/>
      <stop offset="0.34901960784313724" stop-color="#cccccc"/>
      <stop offset="1.0" stop-color="#999999"/>
    </linearGradient>
  </defs>
</svg>
