<?xml version="1.0" encoding="UTF-8" standalone="no"?>
<svg xmlns:ffdec="https://www.free-decompiler.com/flash" xmlns:xlink="http://www.w3.org/1999/xlink" ffdec:objectType="shape" height="44.5px" width="70.4px" xmlns="http://www.w3.org/2000/svg">
  <g transform="matrix(1.0, 0.0, 0.0, 1.0, 0.0, 0.0)">
    <path d="M8.3 10.15 Q18.9 10.7 58.7 11.1 L62.6 10.65 67.65 10.15 69.4 9.9 Q70.4 10.9 70.4 12.25 L69.95 13.5 69.35 14.1 54.55 14.1 54.15 13.9 64.0 13.35 Q66.45 12.95 67.4 11.85 L16.35 11.85 36.6 13.35 50.85 13.9 50.8 13.9 Q49.1 15.2 46.1 20.95 L45.55 22.0 43.0 26.85 42.5 27.7 33.65 44.5 29.5 44.5 30.15 42.45 31.95 42.45 37.45 26.25 35.15 26.25 36.55 14.65 18.7 13.95 Q11.0 13.05 8.4 11.95 5.25 17.75 2.7 20.1 1.45 21.25 0.8 21.25 L3.75 11.9 1.9 11.4 0.1 10.9 1.8 10.25 3.55 9.55 0.05 0.0 Q2.05 0.0 5.4 5.1 7.05 7.6 8.3 10.15 M47.1 20.95 L48.8 20.95 48.8 22.0 46.6 22.0 47.1 20.95 M44.3 26.85 L46.3 26.85 46.3 27.7 43.9 27.7 44.3 26.85 M1.2 17.7 L1.85 11.9 2.8 12.25 1.2 17.7 M1.7 9.5 L0.55 3.25 2.8 9.1 1.7 9.5 M67.65 10.15 Q68.3 10.8 68.55 11.8 68.35 12.6 67.65 13.4 L69.2 13.4 69.4 11.8 Q69.4 11.05 67.65 10.15 M39.4 29.95 L32.65 43.7 47.55 15.85 Q46.35 16.1 39.4 29.95" fill="#f0f1f4" fill-rule="evenodd" stroke="none"/>
    <path d="M46.1 20.95 L47.1 20.95 46.6 22.0 45.55 22.0 46.1 20.95 M43.0 26.85 L44.3 26.85 43.9 27.7 42.5 27.7 43.0 26.85" fill="#b3acb3" fill-rule="evenodd" stroke="none"/>
    <path d="M54.15 13.9 L53.4 13.9 50.85 13.9 36.6 13.35 16.35 11.85 67.4 11.85 Q66.45 12.95 64.0 13.35 L54.15 13.9 M39.4 29.95 Q46.35 16.1 47.55 15.85 L32.65 43.7 39.4 29.95" fill="#ffffff" fill-rule="evenodd" stroke="none"/>
    <path d="M30.15 42.45 L35.15 26.25 37.45 26.25 31.95 42.45 30.15 42.45" fill="#dddcde" fill-rule="evenodd" stroke="none"/>
    <path d="M8.3 10.15 Q17.35 8.4 28.65 8.4 L29.1 8.35 64.7 8.35 Q67.5 8.95 69.4 9.9 L67.65 10.15 62.6 10.65 58.7 11.1 Q18.9 10.7 8.3 10.15 M0.8 21.25 L0.75 21.25 1.2 17.7 2.8 12.25 1.85 11.9 1.9 11.4 3.75 11.9 0.8 21.25 M1.8 10.25 L1.7 9.5 2.8 9.1 0.55 3.25 0.0 0.0 0.05 0.0 3.55 9.55 1.8 10.25 M67.65 10.15 Q69.4 11.05 69.4 11.8 L69.2 13.4 67.65 13.4 Q68.35 12.6 68.55 11.8 68.3 10.8 67.65 10.15" fill="#888088" fill-rule="evenodd" stroke="none"/>
  </g>
</svg>
