<?xml version="1.0" encoding="UTF-8" standalone="no"?>
<svg xmlns:ffdec="https://www.free-decompiler.com/flash" xmlns:xlink="http://www.w3.org/1999/xlink" ffdec:objectType="shape" height="66.2px" width="70.4px" xmlns="http://www.w3.org/2000/svg">
  <g transform="matrix(1.0, 0.0, 0.0, 1.0, 0.0, 0.0)">
    <path d="M44.35 16.8 L46.4 16.8 46.4 17.95 44.9 17.95 44.35 16.8 M43.55 17.95 L45.95 22.8 46.55 24.0 49.7 30.4 36.85 29.5 35.5 18.5 37.9 18.25 32.7 3.8 31.3 3.8 30.2 0.0 34.7 0.0 42.95 16.8 43.55 17.95 M47.2 22.8 L49.3 22.8 49.3 24.0 47.8 24.0 47.2 22.8 M69.4 31.6 Q70.4 32.6 70.4 33.95 70.4 35.5 68.25 35.9 L49.2 36.75 46.1 42.65 45.55 43.7 43.0 48.55 42.5 49.4 33.65 66.2 29.5 66.2 30.15 64.15 31.95 64.15 37.45 47.95 35.15 47.95 36.55 36.35 32.15 36.4 19.4 35.3 8.4 33.65 3.35 42.95 0.8 42.95 3.75 33.6 1.9 33.1 0.1 32.6 1.8 31.95 3.55 31.25 0.05 21.7 3.25 21.7 8.3 31.85 Q18.9 32.4 39.05 31.95 L42.7 31.8 50.0 30.6 54.0 31.7 58.7 32.8 62.6 32.35 67.65 31.85 69.4 31.6 M47.1 42.65 L48.8 42.65 48.8 43.7 46.6 43.7 47.1 42.65 M44.3 48.55 L46.3 48.55 46.3 49.4 43.9 49.4 44.3 48.55 M1.2 39.4 L1.85 33.6 2.8 33.95 1.2 39.4 M1.7 31.2 L0.55 24.95 2.8 30.8 1.7 31.2 M68.55 33.5 Q68.35 34.3 67.65 35.1 L69.2 35.1 69.4 33.5 Q69.4 32.75 67.65 31.85 68.3 32.5 68.55 33.5 M64.0 35.1 Q66.45 34.65 67.4 33.55 L16.35 33.55 36.6 35.1 53.4 35.6 64.0 35.1 M40.4 15.7 Q46.35 29.5 48.15 29.65 L34.8 1.95 40.4 15.7 M39.4 51.65 L32.65 65.4 47.55 37.55 Q46.35 37.8 39.4 51.65" fill="#f0f1f4" fill-rule="evenodd" stroke="none"/>
    <path d="M44.9 17.95 L43.55 17.95 42.95 16.8 44.35 16.8 44.9 17.95 M45.95 22.8 L47.2 22.8 47.8 24.0 46.55 24.0 45.95 22.8 M46.1 42.65 L47.1 42.65 46.6 43.7 45.55 43.7 46.1 42.65 M43.0 48.55 L44.3 48.55 43.9 49.4 42.5 49.4 43.0 48.55" fill="#b3acb3" fill-rule="evenodd" stroke="none"/>
    <path d="M64.0 35.1 L53.4 35.6 36.6 35.1 16.35 33.55 67.4 33.55 Q66.45 34.65 64.0 35.1 M40.4 15.7 L34.8 1.95 48.15 29.65 Q46.35 29.5 40.4 15.7 M39.4 51.65 Q46.35 37.8 47.55 37.55 L32.65 65.4 39.4 51.65" fill="#ffffff" fill-rule="evenodd" stroke="none"/>
    <path d="M49.7 30.4 L50.0 30.6 42.7 31.8 39.05 31.95 36.95 30.2 36.85 29.5 49.7 30.4 M30.15 64.15 L35.15 47.95 37.45 47.95 31.95 64.15 30.15 64.15 M35.5 18.5 L31.3 3.8 32.7 3.8 37.9 18.25 35.5 18.5" fill="#dddcde" fill-rule="evenodd" stroke="none"/>
    <path d="M50.0 30.6 L51.0 30.35 67.45 30.35 69.4 31.6 67.65 31.85 62.6 32.35 58.7 32.8 54.0 31.7 50.0 30.6 M0.8 42.95 L0.75 42.95 1.2 39.4 2.8 33.95 1.85 33.6 1.9 33.1 3.75 33.6 0.8 42.95 M1.8 31.95 L1.7 31.2 2.8 30.8 0.55 24.95 0.0 21.7 0.05 21.7 3.55 31.25 1.8 31.95 M8.3 31.85 Q16.95 30.1 28.65 30.1 L36.95 30.2 39.05 31.95 Q18.9 32.4 8.3 31.85 M68.55 33.5 Q68.3 32.5 67.65 31.85 69.4 32.75 69.4 33.5 L69.2 35.1 67.65 35.1 Q68.35 34.3 68.55 33.5" fill="#888088" fill-rule="evenodd" stroke="none"/>
  </g>
</svg>
