<?xml version="1.0" encoding="UTF-8" standalone="no"?>
<svg xmlns:ffdec="https://www.free-decompiler.com/flash" xmlns:xlink="http://www.w3.org/1999/xlink" ffdec:objectType="shape" height="78.0px" width="68.0px" xmlns="http://www.w3.org/2000/svg">
  <g transform="matrix(1.0, 0.0, 0.0, 1.0, 0.0, 0.0)">
    <path d="M43.95 24.25 L45.25 26.15 Q44.15 26.15 43.4 27.6 42.65 29.05 42.65 31.1 L38.9 24.75 40.95 24.9 Q43.05 24.95 43.95 24.25 M52.2 41.75 L52.6 42.15 45.4 51.5 40.25 50.55 46.45 40.9 48.8 40.75 Q51.35 40.75 52.2 41.75 M41.85 56.15 L37.05 62.4 33.3 61.35 33.25 61.35 36.55 56.15 37.1 55.4 Q39.05 55.4 41.85 56.15 M28.0 74.15 L26.1 76.65 23.5 76.65 25.95 72.8 28.0 74.15 M14.4 42.15 Q9.9 46.5 6.8 48.25 5.2 49.1 4.55 49.1 L5.5 42.95 7.65 43.05 8.6 43.75 9.85 42.45 Q11.2 41.1 11.8 41.1 12.8 41.1 14.4 42.15 M32.35 7.65 L35.2 11.75 34.55 13.0 Q33.9 14.6 33.9 16.2 L28.15 6.4 Q29.15 6.1 32.0 7.2 L32.35 7.65 M46.0 36.7 Q48.15 35.75 49.6 36.0 50.3 36.15 50.6 36.5 L46.0 36.7" fill="#c1bab2" fill-rule="evenodd" stroke="none"/>
    <path d="M37.3 12.85 L42.5 12.85 42.5 14.6 38.7 14.6 37.3 12.85 M37.15 14.6 L43.95 24.25 Q43.05 24.95 40.95 24.9 L38.9 24.75 33.9 16.2 Q33.9 14.6 34.55 13.0 L35.2 11.75 35.95 12.85 37.15 14.6 M45.25 26.15 L52.4 36.4 50.6 36.5 Q50.3 36.15 49.6 36.0 48.15 35.75 46.0 36.7 L45.95 36.75 42.65 31.1 Q42.65 29.05 43.4 27.6 44.15 26.15 45.25 26.15 M66.55 41.7 L52.2 41.75 Q51.35 40.75 48.8 40.75 L46.45 40.9 41.7 41.45 39.95 41.55 40.45 40.65 20.3 40.55 Q15.95 40.65 14.4 42.15 12.8 41.1 11.8 41.1 11.2 41.1 9.85 42.45 L8.6 43.75 7.65 43.05 5.5 42.95 5.95 40.15 0.9 38.7 67.05 39.85 66.55 41.7 M45.4 51.5 L44.25 53.05 43.15 54.45 41.85 56.15 Q39.05 55.4 37.1 55.4 L40.25 50.55 45.4 51.5 M46.1 53.05 L49.9 53.05 49.9 54.45 45.05 54.45 46.1 53.05 M37.05 62.4 L36.05 63.7 35.2 64.8 30.5 70.9 29.65 72.0 28.0 74.15 25.95 72.8 33.3 61.35 37.05 62.4 M38.1 63.7 L42.05 63.7 42.05 64.8 37.3 64.8 38.1 63.7 M32.7 70.9 L34.65 70.9 34.65 72.0 31.85 72.0 32.7 70.9 M26.1 76.65 Q25.1 78.0 22.6 78.0 L23.5 76.65 26.1 76.65 M24.45 0.0 Q26.0 0.0 28.7 2.9 L31.05 5.8 32.0 7.2 Q29.15 6.1 28.15 6.4 L24.45 0.0 M32.3 5.8 L35.9 5.8 35.9 7.65 33.6 7.65 32.3 5.8" fill="#ecf6f5" fill-rule="evenodd" stroke="none"/>
    <path d="M21.25 75.8 L23.1 72.45 24.0 72.5 25.95 72.8 23.5 76.65 21.25 75.8 M34.2 52.15 L37.6 45.95 40.0 45.85 Q41.8 45.6 42.7 44.9 43.6 44.15 43.05 43.4 42.5 42.6 39.75 41.95 L39.95 41.55 41.7 41.45 46.45 40.9 40.25 50.55 37.9 51.65 Q35.7 52.8 34.2 52.15 M38.35 32.1 L36.05 27.7 38.9 24.75 42.65 31.1 41.25 32.65 40.45 31.05 38.35 32.1 M31.05 17.95 L25.45 7.1 28.15 6.4 33.9 16.2 31.05 17.95 M45.95 36.75 L46.0 36.7 50.6 36.5 52.4 38.45 51.35 39.35 46.6 39.35 45.15 37.55 49.1 38.6 45.9 36.75 45.95 36.75" fill="#aea59d" fill-rule="evenodd" stroke="none"/>
    <path d="M52.4 36.4 L53.15 37.5 56.45 37.75 58.7 37.4 65.3 37.4 66.1 37.95 Q66.85 38.65 67.05 39.85 L0.9 38.7 0.0 38.45 45.15 37.55 46.6 39.35 51.35 39.35 52.4 38.45 50.6 36.5 52.4 36.4 M22.6 78.0 L20.05 78.0 21.25 75.8 23.5 76.65 22.6 78.0 M23.1 72.45 L34.2 52.15 Q35.7 52.8 37.9 51.65 L40.25 50.55 37.1 55.4 36.55 56.15 33.25 61.35 33.3 61.35 25.95 72.8 24.0 72.5 23.1 72.45 M40.55 36.35 L39.95 35.2 42.05 34.2 41.25 32.65 42.65 31.1 45.95 36.75 45.9 36.75 42.8 36.3 40.55 36.35 M36.05 27.7 L31.05 17.95 33.9 16.2 38.9 24.75 36.05 27.7 M25.45 7.1 L21.8 0.0 24.45 0.0 28.15 6.4 25.45 7.1" fill="#dde6e3" fill-rule="evenodd" stroke="none"/>
    <path d="M37.3 12.85 L38.7 14.6 37.15 14.6 35.95 12.85 37.3 12.85 M53.15 37.5 L54.75 37.4 58.7 37.4 56.45 37.75 53.15 37.5 M66.1 37.95 L66.55 38.1 Q68.25 38.75 67.95 39.6 67.95 40.3 66.55 41.7 L67.05 39.85 Q66.85 38.65 66.1 37.95 M44.25 53.05 L46.1 53.05 45.05 54.45 43.15 54.45 44.25 53.05 M36.05 63.7 L38.1 63.7 37.3 64.8 35.2 64.8 36.05 63.7 M30.5 70.9 L32.7 70.9 31.85 72.0 29.65 72.0 30.5 70.9 M37.6 45.95 L39.75 41.95 Q42.5 42.6 43.05 43.4 43.6 44.15 42.7 44.9 41.8 45.6 40.0 45.85 L37.6 45.95 M0.0 38.45 L5.95 37.35 5.15 28.7 7.5 28.7 Q15.6 37.65 16.6 37.65 L40.6 36.55 40.55 36.35 42.8 36.3 45.9 36.75 49.1 38.6 45.15 37.55 0.0 38.45 M39.95 35.2 L38.35 32.1 40.45 31.05 41.25 32.65 42.05 34.2 39.95 35.2 M31.05 5.8 L32.3 5.8 33.6 7.65 32.35 7.65 32.0 7.2 31.05 5.8" fill="#807780" fill-rule="evenodd" stroke="none"/>
  </g>
</svg>
