<?xml version="1.0" encoding="UTF-8" standalone="no"?>
<svg xmlns:ffdec="https://www.free-decompiler.com/flash" xmlns:xlink="http://www.w3.org/1999/xlink" ffdec:objectType="shape" height="5.15px" width="2.2px" xmlns="http://www.w3.org/2000/svg">
  <g transform="matrix(1.0, 0.0, 0.0, 1.0, -0.1, 0.0)">
    <path d="M2.1 1.35 L2.1 2.05 0.3 2.05 0.3 1.35 Q1.35 1.2 2.1 1.35" fill="#303c47" fill-rule="evenodd" stroke="none"/>
    <path d="M1.95 5.15 L0.5 5.15 0.3 5.05 Q2.0 5.15 2.0 4.6 1.6 4.4 0.3 4.6 L0.3 2.05 2.1 2.05 1.95 5.15 M0.3 0.0 L2.1 0.0 2.1 1.35 Q1.35 1.2 0.3 1.35 L0.3 0.0" fill="#a69335" fill-rule="evenodd" stroke="none"/>
    <path d="M2.1 0.0 L2.3 0.0 Q2.3 5.0 1.95 5.15 L2.1 2.05 2.1 1.35 2.1 0.0 M0.5 5.15 L0.1 5.0 0.1 0.0 0.3 0.0 0.3 1.35 0.3 2.05 0.3 4.6 Q1.6 4.4 2.0 4.6 2.0 5.15 0.3 5.05 L0.5 5.15" fill="#916000" fill-rule="evenodd" stroke="none"/>
  </g>
</svg>
