<?xml version="1.0" encoding="UTF-8" standalone="no"?>
<svg xmlns:ffdec="https://www.free-decompiler.com/flash" xmlns:xlink="http://www.w3.org/1999/xlink" ffdec:objectType="shape" height="4.3px" width="5.4px" xmlns="http://www.w3.org/2000/svg">
  <g transform="matrix(1.0, 0.0, 0.0, 1.0, 5.4, 1.55)">
    <path d="M-5.1 0.5 L-5.3 0.4 -5.4 0.2 -5.1 -0.15 -4.85 0.2 -5.0 0.45 -5.1 0.5" fill="#333333" fill-rule="evenodd" stroke="none"/>
    <path d="M-3.35 2.75 Q-3.7 2.85 -3.8 2.4 L-3.55 2.0 Q-3.35 1.95 -3.2 2.35 -3.1 2.7 -3.35 2.75" fill="#333333" fill-rule="evenodd" stroke="none"/>
    <path d="M-0.1 -0.95 L-0.35 -0.7 -0.75 -0.6 Q-1.05 -0.7 -0.95 -1.1 -0.75 -1.6 -0.3 -1.45 0.05 -1.35 -0.1 -0.95" fill="#333333" fill-rule="evenodd" stroke="none"/>
    <path d="M-0.1 -0.95 L-0.35 -0.7 -0.75 -0.6 Q-1.05 -0.7 -0.95 -1.1 -0.75 -1.6 -0.3 -1.45 0.05 -1.35 -0.1 -0.95 Z" fill="none" stroke="#000000" stroke-linecap="round" stroke-linejoin="round" stroke-width="0.1"/>
  </g>
</svg>
