<?xml version="1.0" encoding="UTF-8" standalone="no"?>
<svg xmlns:ffdec="https://www.free-decompiler.com/flash" xmlns:xlink="http://www.w3.org/1999/xlink" ffdec:objectType="shape" height="5.15px" width="2.05px" xmlns="http://www.w3.org/2000/svg">
  <g transform="matrix(1.0, 0.0, 0.0, 1.0, -0.1, 0.0)">
    <path d="M0.3 5.0 L0.5 5.15 0.1 5.0 0.1 0.0 0.3 0.0 0.3 1.35 0.3 2.05 0.3 4.5 0.3 5.0" fill="#029adb" fill-rule="evenodd" stroke="none"/>
    <path d="M0.3 0.0 L2.15 0.0 2.15 1.35 0.45 1.3 0.3 1.35 0.3 0.0 M2.15 2.05 L2.1 4.6 0.3 4.5 0.3 2.05 2.15 2.05" fill="#8dd9ff" fill-rule="evenodd" stroke="none"/>
    <path d="M2.15 1.35 L2.15 2.05 0.3 2.05 0.3 1.35 0.45 1.3 2.15 1.35 M2.1 4.6 L2.05 4.8 0.3 5.0 0.3 4.5 2.1 4.6" fill="#454f57" fill-rule="evenodd" stroke="none"/>
  </g>
</svg>
