<?xml version="1.0" encoding="UTF-8" standalone="no"?>
<svg xmlns:ffdec="https://www.free-decompiler.com/flash" xmlns:xlink="http://www.w3.org/1999/xlink" ffdec:objectType="shape" height="32.15px" width="74.4px" xmlns="http://www.w3.org/2000/svg">
  <g transform="matrix(1.0, 0.0, 0.0, 1.0, 29.2, 18.7)">
    <path d="M5.25 10.5 L-8.0 11.0 -11.25 10.75 -9.0 10.5 5.25 10.5 M-10.25 -16.25 L-8.0 -15.75 -9.0 -15.75 -11.25 -15.5 -10.25 -16.25 M19.5 -15.75 L22.25 -16.25 25.05 -16.25 25.2 -16.05 25.65 -15.75 25.75 -15.5 20.25 -15.75 19.5 -15.75" fill="#555555" fill-rule="evenodd" stroke="none"/>
    <path d="M-9.0 -15.75 L-9.75 -14.75 -13.25 -14.75 -13.25 9.75 -9.75 10.0 -9.0 9.4 -9.0 10.5 -11.25 10.75 -13.75 10.25 -13.75 -15.5 -11.25 -15.5 -9.0 -15.75" fill="#c6c6c6" fill-rule="evenodd" stroke="none"/>
    <path d="M-27.05 10.0 L-27.05 10.3 -29.2 10.3 -29.2 -15.85 -27.05 -15.85 -27.05 -15.5 -28.5 -15.5 -28.5 10.0 -27.05 10.0 M-15.75 -15.5 L-15.75 -16.25 -10.25 -16.25 -11.25 -15.5 -13.75 -15.5 -15.75 -15.5" fill="#333333" fill-rule="evenodd" stroke="none"/>
    <path d="M-15.75 10.25 L-25.5 10.0 Q-24.15 -2.75 -25.5 -15.5 L-15.75 -15.5 -13.75 -15.5 -13.75 10.25 -15.75 10.25" fill="#e7e7e7" fill-rule="evenodd" stroke="none"/>
    <path d="M-11.25 10.75 L-15.75 10.25 -13.75 10.25 -11.25 10.75" fill="#3a3a3a" fill-rule="evenodd" stroke="none"/>
    <path d="M-25.5 10.0 L-27.05 10.0 -28.5 10.0 -28.5 -15.5 -27.05 -15.5 -25.5 -15.5 Q-24.15 -2.75 -25.5 10.0 M-28.1 -14.85 L-28.1 -9.95 -26.15 -9.9 -26.15 -14.85 -28.1 -14.85 M-28.1 4.7 L-28.1 9.6 -26.15 9.65 -26.15 4.7 -28.1 4.7" fill="#b2b2b2" fill-rule="evenodd" stroke="none"/>
    <path d="M26.7 -16.35 L32.5 -16.5 32.5 -15.5 27.25 -15.5 25.75 -15.5 25.65 -15.75 25.85 -15.75 25.9 -15.75 26.45 -16.05 26.7 -16.35 M42.55 -15.5 L42.55 -15.95 45.2 -15.95 45.2 10.25 43.25 10.35 42.3 10.05 43.75 10.0 44.1 9.9 44.75 9.75 44.75 5.9 44.75 -11.5 44.75 -15.5 44.1 -15.5 43.75 -15.5 42.55 -15.5 M22.25 -16.25 L25.05 -16.3 25.05 -16.25 22.25 -16.25" fill="#343434" fill-rule="evenodd" stroke="none"/>
    <path d="M27.25 9.85 L27.25 -15.3 43.75 -10.65 43.75 4.75 27.25 9.85" fill="#e8e8e8" fill-rule="evenodd" stroke="none"/>
    <path d="M43.75 -10.65 L43.75 -15.5 44.1 -15.5 44.1 -11.5 44.75 -11.5 44.75 5.9 44.1 5.9 44.1 9.9 43.75 10.0 43.75 4.75 43.75 -10.65" fill="#a2a2a2" fill-rule="evenodd" stroke="none"/>
    <path d="M24.5 11.0 L19.5 11.0 20.5 10.5 25.5 10.25 25.6 10.4 25.65 10.5 25.6 10.5 Q25.25 10.5 24.95 10.75 L24.85 10.95 24.5 11.0" fill="#565656" fill-rule="evenodd" stroke="none"/>
    <path d="M32.5 10.25 L31.25 11.0 26.4 11.0 26.2 10.75 25.65 10.5 25.6 10.4 25.5 10.25 27.25 10.25 32.5 10.25 M24.8 11.0 L24.5 11.0 24.85 10.95 24.8 11.0" fill="#3e3e3e" fill-rule="evenodd" stroke="none"/>
    <path d="M21.75 -15.0 L26.5 -15.0 26.5 9.5 21.75 9.75 21.5 -13.5 21.75 -15.0" fill="url(#gradient0)" fill-rule="evenodd" stroke="none"/>
    <path d="M-9.75 10.0 L-13.25 9.75 -13.25 -14.75 -9.75 -14.75 Q-7.8 -5.3 -9.75 10.0" fill="url(#gradient1)" fill-rule="evenodd" stroke="none"/>
    <path d="M-28.1 -14.85 L-26.15 -14.85 -26.15 -9.9 -28.1 -9.95 -28.1 -14.85" fill="url(#gradient2)" fill-rule="evenodd" stroke="none"/>
    <path d="M-28.1 4.7 L-26.15 4.7 -26.15 9.65 -28.1 9.6 -28.1 4.7" fill="url(#gradient3)" fill-rule="evenodd" stroke="none"/>
    <path d="M44.1 -15.5 L44.75 -15.5 44.75 -11.5 44.1 -11.5 44.1 -15.5" fill="url(#gradient4)" fill-rule="evenodd" stroke="none"/>
    <path d="M44.75 5.9 L44.75 9.75 44.1 9.9 44.1 5.9 44.75 5.9" fill="url(#gradient5)" fill-rule="evenodd" stroke="none"/>
    <path d="M26.4 11.0 L26.5 11.4 26.5 12.55 26.45 12.85 26.2 13.15 25.6 13.45 25.4 13.45 24.95 13.15 24.8 12.95 24.8 12.9 24.7 12.55 24.7 11.4 24.8 11.0 24.85 10.95 24.95 10.75 Q25.25 10.5 25.6 10.5 L25.65 10.5 26.2 10.75 26.4 11.0 M25.05 -16.3 L24.95 -16.65 24.95 -17.8 25.2 -18.45 25.85 -18.7 26.45 -18.45 26.75 -17.8 26.75 -16.65 26.7 -16.35 26.45 -16.05 25.9 -15.75 25.85 -15.75 25.65 -15.75 25.2 -16.05 25.05 -16.25 25.05 -16.3" fill="#1e1e1e" fill-rule="evenodd" stroke="none"/>
    <path d="M19.5 11.0 L5.25 10.5 -9.0 10.5 -9.0 9.4 Q-7.55 -3.75 -9.0 -15.75 L-8.0 -15.75 19.5 -15.75 20.25 -15.75 20.5 10.5 19.5 11.0" fill="url(#gradient6)" fill-rule="evenodd" stroke="none"/>
    <path d="M32.5 -15.5 L42.55 -15.5 43.75 -15.5 43.75 -10.65 27.25 -15.3 27.25 -15.5 32.5 -15.5 M42.3 10.05 L32.5 10.25 27.25 10.25 27.25 9.85 43.75 4.75 43.75 10.0 42.3 10.05" fill="#d5d5d5" fill-rule="evenodd" stroke="none"/>
    <path d="M-9.75 -14.75 L-9.0 -15.75 Q-7.55 -3.75 -9.0 9.4 L-9.75 10.0 Q-7.8 -5.3 -9.75 -14.75" fill="#5b5c5c" fill-rule="evenodd" stroke="none"/>
    <path d="M25.75 -15.5 L27.25 -15.5 27.25 -15.3 27.25 9.85 27.25 10.25 25.5 10.25 20.5 10.5 20.25 -15.75 25.75 -15.5 M21.75 -15.0 L21.5 -13.5 21.75 9.75 26.5 9.5 26.5 -15.0 21.75 -15.0" fill="#b3b3b3" fill-rule="evenodd" stroke="none"/>
  </g>
  <defs>
    <radialGradient cx="0" cy="0" gradientTransform="matrix(0.0261, 0.0, 0.0, 0.0261, 24.3, -11.5)" gradientUnits="userSpaceOnUse" id="gradient0" r="819.2" spreadMethod="pad">
      <stop offset="0.0" stop-color="#c4ced5"/>
      <stop offset="1.0" stop-color="#555555"/>
    </radialGradient>
    <radialGradient cx="0" cy="0" gradientTransform="matrix(0.0281, 0.0, 0.0, 0.0281, -11.0, -13.0)" gradientUnits="userSpaceOnUse" id="gradient1" r="819.2" spreadMethod="pad">
      <stop offset="0.0" stop-color="#c4ced5"/>
      <stop offset="1.0" stop-color="#555555"/>
    </radialGradient>
    <radialGradient cx="0" cy="0" gradientTransform="matrix(0.0058, 0.0, 0.0, 0.0058, -26.6, -14.45)" gradientUnits="userSpaceOnUse" id="gradient2" r="819.2" spreadMethod="pad">
      <stop offset="0.0" stop-color="#990000"/>
      <stop offset="1.0" stop-color="#660000"/>
    </radialGradient>
    <radialGradient cx="0" cy="0" gradientTransform="matrix(0.0059, 0.0, 0.0, 0.0059, -26.7, 5.0)" gradientUnits="userSpaceOnUse" id="gradient3" r="819.2" spreadMethod="pad">
      <stop offset="0.0" stop-color="#990000"/>
      <stop offset="1.0" stop-color="#660000"/>
    </radialGradient>
    <radialGradient cx="0" cy="0" gradientTransform="matrix(0.0045, 0.0, 0.0, 0.0045, 44.55, -15.1)" gradientUnits="userSpaceOnUse" id="gradient4" r="819.2" spreadMethod="pad">
      <stop offset="0.0" stop-color="#dee2e4"/>
      <stop offset="1.0" stop-color="#a0a3a3"/>
    </radialGradient>
    <radialGradient cx="0" cy="0" gradientTransform="matrix(0.0043, 0.0, 0.0, 0.0043, 44.35, 6.35)" gradientUnits="userSpaceOnUse" id="gradient5" r="819.2" spreadMethod="pad">
      <stop offset="0.0" stop-color="#dee2e4"/>
      <stop offset="1.0" stop-color="#a0a3a3"/>
    </radialGradient>
    <radialGradient cx="0" cy="0" gradientTransform="matrix(0.0437, 0.0, 0.0, 0.0437, -4.8, -14.8)" gradientUnits="userSpaceOnUse" id="gradient6" r="819.2" spreadMethod="pad">
      <stop offset="0.0" stop-color="#ffffff"/>
      <stop offset="1.0" stop-color="#d7d7d7"/>
    </radialGradient>
  </defs>
</svg>
