<?xml version="1.0" encoding="UTF-8" standalone="no"?>
<svg xmlns:ffdec="https://www.free-decompiler.com/flash" xmlns:xlink="http://www.w3.org/1999/xlink" ffdec:objectType="shape" height="33.4px" width="76.85px" xmlns="http://www.w3.org/2000/svg">
  <g transform="matrix(1.0, 0.0, 0.0, 1.0, 31.35, 19.45)">
    <path d="M23.5 8.0 L25.35 8.0 Q25.0 8.0 24.75 8.25 L24.5 8.75 7.0 9.75 7.25 9.0 8.25 9.0 9.5 8.75 11.25 8.75 12.75 8.5 14.25 8.5 15.75 8.25 17.5 8.25 18.75 8.0 20.5 8.0 23.5 8.0 M3.5 -17.0 L-10.0 -16.25 -1.75 -17.25 3.5 -17.0 M-7.75 10.5 L-7.25 10.25 -6.0 10.0 -4.25 10.0 -2.75 9.75 -1.25 9.75 0.25 9.5 2.0 9.5 3.5 9.25 5.0 9.25 6.0 9.75 -7.5 11.0 -9.75 11.75 -11.0 11.75 -11.0 11.5 -7.75 10.5 M26.0 8.25 L26.5 8.5 26.25 8.6 26.0 8.25" fill="#555555" fill-rule="evenodd" stroke="none"/>
    <path d="M21.5 7.75 L23.5 8.0 20.5 8.0 21.5 7.75 M25.5 8.0 L28.0 8.0 44.25 7.0 44.55 7.2 44.75 7.35 43.15 7.4 43.3 7.65 33.0 8.5 26.5 8.5 26.0 8.25 25.95 8.25 25.5 8.0 M-8.5 10.25 L-7.75 10.5 -11.0 11.5 -15.75 13.0 -27.2 13.45 -28.25 13.5 -25.5 12.5 -13.5 11.25 -8.5 10.25 M5.0 9.25 L7.25 9.0 7.0 9.75 7.0 10.5 23.25 9.0 22.5 9.5 1.25 11.0 5.75 10.5 6.0 9.75 5.0 9.25" fill="#f8eccc" fill-rule="evenodd" stroke="none"/>
    <path d="M-11.25 -15.75 L-11.0 -15.75 -10.75 -14.75 -11.25 -15.0 -15.0 -14.0 -15.25 -12.5 -15.75 -14.5 -11.25 -15.75 M-8.75 8.0 L-8.5 10.25 -13.5 11.25 -13.5 9.5 -12.75 10.75 -12.25 10.5 -9.25 9.75 -8.75 8.0" fill="#c8c8c8" fill-rule="evenodd" stroke="none"/>
    <path d="M25.5 -17.75 L24.25 -17.75 28.05 -17.9 26.9 -17.8 25.5 -17.75" fill="#2d2d2d" fill-rule="evenodd" stroke="none"/>
    <path d="M27.95 7.5 L25.5 -17.75 26.9 -17.8 42.3 -14.85 43.8 1.85 27.95 7.5" fill="#c6c6c6" fill-rule="evenodd" stroke="none"/>
    <path d="M42.3 -14.85 L42.0 -18.25 42.2 -18.15 42.4 -18.05 42.75 -14.2 43.3 -14.05 44.65 2.95 44.15 2.65 44.55 7.2 44.25 7.0 43.8 1.85 42.3 -14.85" fill="#999999" fill-rule="evenodd" stroke="none"/>
    <path d="M-27.5 -13.0 L-17.0 -14.25 -16.5 -14.5 -15.75 -14.5 -15.25 -12.5 -15.25 -11.75 -15.0 -9.5 -15.0 -8.75 -14.75 -6.5 -14.75 -5.75 -14.5 -3.5 -14.5 -2.5 -14.25 -0.5 -14.25 0.5 -14.0 2.75 -14.0 3.5 -13.75 5.75 -13.75 6.5 -13.5 8.75 -13.5 9.5 -13.5 11.25 -25.5 12.5 Q-24.75 -0.85 -27.5 -13.0" fill="#cfcfcf" fill-rule="evenodd" stroke="none"/>
    <path d="M-29.1 -12.5 L-27.5 -13.0 Q-24.75 -0.85 -25.5 12.5 L-28.25 13.5 -29.0 13.0 -30.75 -9.25 -30.75 -12.0 -29.1 -12.5 M-28.0 -11.8 L-30.45 -11.15 -30.15 -6.8 -27.75 -7.55 -28.0 -11.8 M-26.5 7.0 L-29.0 7.75 -28.6 12.5 -26.2 11.75 -26.5 7.0" fill="#bababa" fill-rule="evenodd" stroke="none"/>
    <path d="M33.0 8.5 L33.0 9.5 26.25 9.5 26.25 8.85 26.25 8.6 26.5 8.5 33.0 8.5 M22.75 10.25 L22.5 9.5 23.25 9.0 24.5 8.9 24.5 9.7 22.75 10.25 M-5.25 11.5 L-5.25 12.25 -12.5 12.25 -15.75 13.0 -11.0 11.5 -11.0 11.75 -9.75 11.75 -5.25 11.5" fill="#383838" fill-rule="evenodd" stroke="none"/>
    <path d="M1.25 11.0 L1.0 11.0 -4.5 11.5 -5.25 11.5 -9.75 11.75 -7.5 11.0 6.0 9.75 5.75 10.5 1.25 11.0 M24.5 8.9 L23.25 9.0 7.0 10.5 7.0 9.75 24.5 8.75 24.5 8.85 24.5 8.9" fill="#7b7b7b" fill-rule="evenodd" stroke="none"/>
    <path d="M33.0 9.5 L28.0 10.5 26.15 10.4 26.25 10.0 26.25 9.5 33.0 9.5 M24.6 10.35 L22.75 10.25 24.5 9.7 24.5 10.0 24.6 10.35 M-5.25 12.25 L-12.25 13.5 -15.75 13.0 -12.5 12.25 -5.25 12.25" fill="#4d4d4d" fill-rule="evenodd" stroke="none"/>
    <path d="M42.2 -18.15 L43.3 -18.15 45.5 7.75 43.45 8.0 43.3 7.65 43.15 7.4 44.75 7.35 45.0 7.5 44.65 2.95 43.3 -14.05 43.0 -17.75 42.4 -18.05 42.2 -18.15" fill="#343434" fill-rule="evenodd" stroke="none"/>
    <path d="M25.0 -17.25 L27.25 5.75 Q27.75 8.5 23.25 7.25 L22.5 7.0 20.25 -15.25 20.25 -17.75 25.0 -17.25" fill="url(#gradient0)" fill-rule="evenodd" stroke="none"/>
    <path d="M-15.25 -12.5 L-15.0 -14.0 -11.25 -15.0 Q-8.75 -2.8 -9.25 9.75 L-12.25 10.5 -12.75 10.75 -13.5 9.5 -13.5 8.75 -13.75 6.5 -13.75 5.75 -14.0 3.5 -14.0 2.75 -14.25 0.5 -14.25 -0.5 -14.5 -2.5 -14.5 -3.5 -14.75 -5.75 -14.75 -6.5 -15.0 -8.75 -15.0 -9.5 -15.25 -11.75 -15.25 -12.5" fill="url(#gradient1)" fill-rule="evenodd" stroke="none"/>
    <path d="M-26.5 7.0 L-26.2 11.75 -28.6 12.5 -29.0 7.75 -26.5 7.0" fill="url(#gradient2)" fill-rule="evenodd" stroke="none"/>
    <path d="M-28.0 -11.8 L-27.75 -7.55 -30.15 -6.8 -30.45 -11.15 -28.0 -11.8" fill="url(#gradient3)" fill-rule="evenodd" stroke="none"/>
    <path d="M44.65 2.95 L45.0 7.5 44.75 7.35 44.55 7.2 44.15 2.65 44.65 2.95" fill="url(#gradient4)" fill-rule="evenodd" stroke="none"/>
    <path d="M42.4 -18.05 L43.0 -17.75 43.3 -14.05 42.75 -14.2 42.4 -18.05" fill="url(#gradient5)" fill-rule="evenodd" stroke="none"/>
    <path d="M-27.2 13.45 L-28.2 13.95 -29.8 12.85 -31.35 -12.25 -29.95 -12.65 -29.1 -12.5 -30.75 -12.0 -30.75 -9.25 -29.0 13.0 -28.25 13.5 -27.2 13.45" fill="#333333" fill-rule="evenodd" stroke="none"/>
    <path d="M25.35 8.0 L25.5 8.0 25.95 8.25 26.0 8.25 26.25 8.6 26.25 8.85 26.25 9.5 26.25 10.0 26.15 10.4 26.0 10.6 25.4 10.85 25.35 10.85 24.75 10.6 24.6 10.35 24.5 10.0 24.5 9.7 24.5 8.9 24.5 8.85 24.5 8.75 24.75 8.25 Q25.0 8.0 25.35 8.0 M24.05 -17.75 L22.45 -17.9 22.45 -18.65 22.65 -19.25 23.25 -19.45 23.8 -19.25 24.05 -18.65 24.05 -17.75" fill="#1e1e1e" fill-rule="evenodd" stroke="none"/>
    <path d="M19.25 -18.25 L19.25 -18.15 21.5 7.75 20.5 8.0 18.75 8.0 17.5 8.25 15.75 8.25 14.25 8.5 12.75 8.5 11.25 8.75 9.5 8.75 8.25 9.0 7.25 9.0 5.0 9.25 3.5 9.25 2.0 9.5 0.25 9.5 -1.25 9.75 -2.75 9.75 -4.25 10.0 -6.0 10.0 -7.25 10.25 -7.75 10.5 -8.5 10.25 -8.75 8.0 -8.6 9.1 Q-8.3 -4.05 -10.75 -14.75 L-11.0 -15.75 -11.25 -15.75 -10.5 -16.0 -10.0 -16.25 3.5 -17.0 4.75 -17.25 18.0 -18.25 19.25 -18.25" fill="url(#gradient6)" fill-rule="evenodd" stroke="none"/>
    <path d="M28.0 8.0 L27.95 7.5 43.8 1.85 44.25 7.0 28.0 8.0 M26.9 -17.8 L28.05 -17.9 42.0 -18.25 42.3 -14.85 26.9 -17.8" fill="#bfbfbf" fill-rule="evenodd" stroke="none"/>
    <path d="M-10.75 -14.75 Q-8.3 -4.05 -8.6 9.1 L-8.75 8.0 -9.25 9.75 Q-8.75 -2.8 -11.25 -15.0 L-10.75 -14.75" fill="#5b5c5c" fill-rule="evenodd" stroke="none"/>
    <path d="M21.5 7.75 L19.25 -18.15 19.25 -18.25 22.45 -17.9 24.05 -17.75 24.25 -17.75 25.5 -17.75 27.95 7.5 28.0 8.0 25.5 8.0 25.35 8.0 23.5 8.0 21.5 7.75 M25.0 -17.25 L20.25 -17.75 20.25 -15.25 22.5 7.0 23.25 7.25 Q27.75 8.5 27.25 5.75 L25.0 -17.25" fill="#b3b3b3" fill-rule="evenodd" stroke="none"/>
  </g>
  <defs>
    <radialGradient cx="0" cy="0" gradientTransform="matrix(0.0272, 0.0, 0.0, 0.0272, 23.4, -14.0)" gradientUnits="userSpaceOnUse" id="gradient0" r="819.2" spreadMethod="pad">
      <stop offset="0.0" stop-color="#c4ced5"/>
      <stop offset="1.0" stop-color="#555555"/>
    </radialGradient>
    <radialGradient cx="0" cy="0" gradientTransform="matrix(0.0239, 0.0, 0.0, 0.0239, -13.3, -8.8)" gradientUnits="userSpaceOnUse" id="gradient1" r="819.2" spreadMethod="pad">
      <stop offset="0.0" stop-color="#c4ced5"/>
      <stop offset="1.0" stop-color="#555555"/>
    </radialGradient>
    <radialGradient cx="0" cy="0" gradientTransform="matrix(0.0063, 0.0, 0.0, 0.0063, -26.6, 7.7)" gradientUnits="userSpaceOnUse" id="gradient2" r="819.2" spreadMethod="pad">
      <stop offset="0.0" stop-color="#990000"/>
      <stop offset="1.0" stop-color="#660000"/>
    </radialGradient>
    <radialGradient cx="0" cy="0" gradientTransform="matrix(0.0065, 0.0, 0.0, 0.0065, -28.05, -11.65)" gradientUnits="userSpaceOnUse" id="gradient3" r="819.2" spreadMethod="pad">
      <stop offset="0.0" stop-color="#990000"/>
      <stop offset="1.0" stop-color="#660000"/>
    </radialGradient>
    <radialGradient cx="0" cy="0" gradientTransform="matrix(0.0043, 0.0, 0.0, 0.0043, 44.8, 6.15)" gradientUnits="userSpaceOnUse" id="gradient4" r="819.2" spreadMethod="pad">
      <stop offset="0.0" stop-color="#dee2e4"/>
      <stop offset="1.0" stop-color="#a0a3a3"/>
    </radialGradient>
    <radialGradient cx="0" cy="0" gradientTransform="matrix(0.0031, 0.0, 0.0, 0.0031, 42.95, -15.55)" gradientUnits="userSpaceOnUse" id="gradient5" r="819.2" spreadMethod="pad">
      <stop offset="0.0" stop-color="#dee2e4"/>
      <stop offset="1.0" stop-color="#a0a3a3"/>
    </radialGradient>
    <radialGradient cx="0" cy="0" gradientTransform="matrix(0.0416, 0.0, 0.0, 0.0416, -3.8, -15.1)" gradientUnits="userSpaceOnUse" id="gradient6" r="819.2" spreadMethod="pad">
      <stop offset="0.0" stop-color="#ffffff"/>
      <stop offset="1.0" stop-color="#d7d7d7"/>
    </radialGradient>
  </defs>
</svg>
