<?xml version="1.0" encoding="UTF-8" standalone="no"?>
<svg xmlns:ffdec="https://www.free-decompiler.com/flash" xmlns:xlink="http://www.w3.org/1999/xlink" ffdec:objectType="shape" height="38.25px" width="79.85px" xmlns="http://www.w3.org/2000/svg">
  <g transform="matrix(1.0, 0.0, 0.0, 1.0, 33.7, 21.0)">
    <path d="M44.3 5.5 L33.5 7.25 Q32.8 5.6 27.4 6.65 L27.4 6.35 27.35 5.95 27.1 5.65 Q26.85 5.4 26.45 5.4 L26.4 5.4 Q26.0 5.4 25.75 5.65 L25.7 5.65 21.25 5.25 7.75 7.25 8.0 8.0 7.5 9.0 8.5 9.5 25.45 6.65 25.45 7.45 23.0 8.75 -5.0 13.25 -8.25 12.25 5.25 10.0 6.25 9.75 6.75 8.25 6.25 7.5 -6.75 10.25 -10.5 12.25 -10.5 12.5 -15.25 14.0 -15.5 15.0 -26.0 16.2 -28.75 16.5 -25.25 14.75 -13.0 12.0 -8.0 9.5 Q7.15 5.95 22.25 4.75 L28.5 5.5 45.0 4.0 45.35 4.55 43.95 4.75 44.3 5.5" fill="#fffde0" fill-rule="evenodd" stroke="none"/>
    <path d="M-17.25 -13.25 L-12.25 -16.0 -12.25 -15.0 -13.25 -14.75 -16.5 -13.0 -17.0 -11.75 -17.25 -13.25 M-8.35 8.0 L-8.0 9.5 -13.0 12.0 -15.95 -6.0 -12.75 11.25 -8.75 9.25 Q-8.4 8.5 -8.4 7.85 L-8.35 8.0" fill="#c9c9c9" fill-rule="evenodd" stroke="none"/>
    <path d="M8.0 8.0 L7.75 7.25 21.25 5.25 25.7 5.65 Q25.45 5.95 25.45 6.35 L25.45 6.45 21.25 6.0 8.0 8.0 M-6.75 10.25 L6.25 7.5 6.75 8.25 -6.75 10.25" fill="#555555" fill-rule="evenodd" stroke="none"/>
    <path d="M23.75 -19.5 L25.3 -19.6 40.8 -16.55 43.8 -1.95 28.5 5.4 23.75 -19.5" fill="#aaaaaa" fill-rule="evenodd" stroke="none"/>
    <path d="M40.0 -20.5 L40.4 -20.0 40.75 -19.5 45.5 4.75 45.35 4.55 45.0 4.0 43.8 -1.95 40.8 -16.55 40.0 -20.5" fill="#8e8e8e" fill-rule="evenodd" stroke="none"/>
    <path d="M-29.75 -10.25 L-17.25 -13.25 -17.0 -11.75 -15.95 -6.0 -13.0 12.0 -25.25 14.75 Q-26.15 2.05 -29.75 -10.25" fill="#bbbbbb" fill-rule="evenodd" stroke="none"/>
    <path d="M-31.2 -9.65 L-29.75 -10.25 Q-26.15 2.05 -25.25 14.75 L-28.75 16.5 -32.75 -7.0 Q-33.3 -8.9 -31.2 -9.65 M-29.5 -4.75 L-30.25 -9.2 -32.3 -8.05 -31.6 -3.7 -29.5 -4.75 M-27.05 9.2 L-29.15 10.15 -28.25 15.3 -26.15 14.25 -27.05 9.2" fill="#c1c1c1" fill-rule="evenodd" stroke="none"/>
    <path d="M23.25 9.25 L23.0 8.75 25.45 7.45 25.45 7.75 25.55 8.15 23.25 9.25 M27.4 6.65 Q32.8 5.6 33.5 7.25 L27.4 7.7 27.4 6.65 M-8.25 12.25 L-5.0 13.25 -12.25 13.5 -15.5 15.0 -15.25 14.0 -10.5 12.5 -9.75 12.5 -8.75 12.25 -8.25 12.25" fill="#323232" fill-rule="evenodd" stroke="none"/>
    <path d="M25.45 6.65 L8.5 9.5 7.5 9.0 8.0 8.0 21.25 6.0 25.45 6.45 25.45 6.65 M6.75 8.25 L6.25 9.75 5.25 10.0 -8.25 12.25 -8.75 12.25 -9.75 12.5 -10.5 12.5 -10.5 12.25 -6.75 10.25 6.75 8.25" fill="#7e7e7e" fill-rule="evenodd" stroke="none"/>
    <path d="M33.5 7.25 Q28.0 11.75 23.25 9.25 L25.55 8.15 25.7 8.4 26.4 8.7 26.45 8.7 Q26.85 8.7 27.1 8.4 L27.4 7.75 27.4 7.7 33.5 7.25 M-5.0 13.25 Q-9.25 17.25 -15.5 15.0 L-12.25 13.5 -5.0 13.25" fill="#545454" fill-rule="evenodd" stroke="none"/>
    <path d="M40.4 -20.0 L41.0 -19.95 46.15 5.5 44.45 5.85 44.3 5.5 43.95 4.75 45.35 4.55 45.5 4.75 40.75 -19.5 40.4 -20.0" fill="#343434" fill-rule="evenodd" stroke="none"/>
    <path d="M18.5 -20.0 L23.25 -19.25 27.75 4.0 27.75 4.75 27.0 4.75 25.75 4.5 25.0 4.5 23.75 4.25 23.0 4.25 18.5 -17.75 18.5 -20.0" fill="url(#gradient0)" fill-rule="evenodd" stroke="none"/>
    <path d="M-12.25 -15.0 Q-9.4 -5.8 -8.35 8.0 L-8.4 7.85 Q-8.4 8.5 -8.75 9.25 L-12.75 11.25 -15.95 -6.0 -17.0 -11.75 -16.5 -13.0 -13.25 -14.75 -12.25 -15.0" fill="url(#gradient1)" fill-rule="evenodd" stroke="none"/>
    <path d="M-29.5 -4.75 L-31.6 -3.7 -32.3 -8.05 -30.25 -9.2 -29.5 -4.75" fill="url(#gradient2)" fill-rule="evenodd" stroke="none"/>
    <path d="M-27.05 9.2 L-26.15 14.25 -28.25 15.3 -29.15 10.15 -27.05 9.2" fill="url(#gradient3)" fill-rule="evenodd" stroke="none"/>
    <path d="M-26.0 16.2 L-26.55 16.95 -29.35 17.25 -33.7 -9.0 -32.15 -9.65 -31.2 -9.65 Q-33.3 -8.9 -32.75 -7.0 L-28.75 16.5 -26.0 16.2" fill="#333333" fill-rule="evenodd" stroke="none"/>
    <path d="M20.0 -20.1 L20.3 -20.7 21.0 -21.0 21.05 -21.0 21.75 -20.7 22.05 -20.0 22.05 -19.7 21.75 -19.75 21.0 -20.0 20.0 -20.1 M25.7 5.65 L25.75 5.65 Q26.0 5.4 26.4 5.4 L26.45 5.4 Q26.85 5.4 27.1 5.65 L27.35 5.95 27.4 6.35 27.4 6.65 27.4 7.7 27.4 7.75 27.1 8.4 Q26.85 8.7 26.45 8.7 L26.4 8.7 25.7 8.4 25.55 8.15 25.45 7.75 25.45 7.45 25.45 6.65 25.45 6.45 25.45 6.35 Q25.45 5.95 25.7 5.65" fill="#1e1e1e" fill-rule="evenodd" stroke="none"/>
    <path d="M-12.25 -16.0 L-11.5 -16.25 Q2.4 -19.35 16.25 -20.5 L17.25 -20.5 22.25 4.75 Q7.15 5.95 -8.0 9.5 L-8.35 8.0 Q-9.4 -5.8 -12.25 -15.0 L-12.25 -16.0" fill="url(#gradient4)" fill-rule="evenodd" stroke="none"/>
    <path d="M25.3 -19.6 L40.0 -20.5 40.8 -16.55 25.3 -19.6 M43.8 -1.95 L45.0 4.0 28.5 5.5 28.5 5.4 43.8 -1.95" fill="#999999" fill-rule="evenodd" stroke="none"/>
    <path d="M18.5 -20.0 L18.5 -17.75 23.0 4.25 23.75 4.25 25.0 4.5 25.75 4.5 27.0 4.75 27.75 4.75 27.75 4.0 23.25 -19.25 18.5 -20.0 M17.25 -20.5 L20.0 -20.1 21.0 -20.0 21.75 -19.75 22.05 -19.7 23.75 -19.5 28.5 5.4 28.5 5.5 22.25 4.75 17.25 -20.5" fill="#b3b3b3" fill-rule="evenodd" stroke="none"/>
  </g>
  <defs>
    <radialGradient cx="0" cy="0" gradientTransform="matrix(0.0179, 0.0, 0.0, 0.0179, 23.4, -6.2)" gradientUnits="userSpaceOnUse" id="gradient0" r="819.2" spreadMethod="pad">
      <stop offset="0.0" stop-color="#c4ced5"/>
      <stop offset="1.0" stop-color="#555555"/>
    </radialGradient>
    <radialGradient cx="0" cy="0" gradientTransform="matrix(0.0189, 0.0, 0.0, 0.0189, -12.2, 0.5)" gradientUnits="userSpaceOnUse" id="gradient1" r="819.2" spreadMethod="pad">
      <stop offset="0.0" stop-color="#c4ced5"/>
      <stop offset="1.0" stop-color="#555555"/>
    </radialGradient>
    <radialGradient cx="0" cy="0" gradientTransform="matrix(0.0065, 0.0, 0.0, 0.0065, -30.45, -8.9)" gradientUnits="userSpaceOnUse" id="gradient2" r="819.2" spreadMethod="pad">
      <stop offset="0.0" stop-color="#990000"/>
      <stop offset="1.0" stop-color="#660000"/>
    </radialGradient>
    <radialGradient cx="0" cy="0" gradientTransform="matrix(0.0062, 0.0, 0.0, 0.0062, -27.25, 10.35)" gradientUnits="userSpaceOnUse" id="gradient3" r="819.2" spreadMethod="pad">
      <stop offset="0.0" stop-color="#990000"/>
      <stop offset="1.0" stop-color="#660000"/>
    </radialGradient>
    <radialGradient cx="0" cy="0" gradientTransform="matrix(0.0441, 0.0, 0.0, 0.0441, -7.3, -16.1)" gradientUnits="userSpaceOnUse" id="gradient4" r="819.2" spreadMethod="pad">
      <stop offset="0.0" stop-color="#ffffff"/>
      <stop offset="1.0" stop-color="#a9a9a9"/>
    </radialGradient>
  </defs>
</svg>
