<?xml version="1.0" encoding="UTF-8" standalone="no"?>
<svg xmlns:ffdec="https://www.free-decompiler.com/flash" xmlns:xlink="http://www.w3.org/1999/xlink" ffdec:objectType="shape" height="5.1px" width="5.1px" xmlns="http://www.w3.org/2000/svg">
  <g transform="matrix(1.0, 0.0, 0.0, 1.0, 0.0, 0.0)">
    <path d="M4.55 0.95 Q5.1 1.65 5.1 2.55 5.1 3.4 4.6 4.1 L4.35 4.35 4.1 4.6 Q3.4 5.1 2.55 5.1 L1.2 4.75 0.75 4.35 0.65 4.25 Q0.0 3.5 0.0 2.55 0.0 1.85 0.35 1.3 L0.75 0.75 0.8 0.75 Q1.55 0.0 2.55 0.0 3.35 0.0 4.0 0.45 L4.35 0.75 4.55 0.95 M4.15 1.4 L3.95 1.15 3.6 0.9 2.55 0.6 1.85 0.75 Q1.5 0.85 1.2 1.1 L1.1 1.15 0.75 1.65 0.55 2.6 Q0.55 3.35 1.0 3.9 L1.1 4.0 1.55 4.35 2.55 4.6 3.05 4.55 3.7 4.25 3.95 4.0 4.2 3.75 4.5 3.2 4.55 2.6 Q4.55 1.9 4.15 1.4" fill="url(#gradient0)" fill-rule="evenodd" stroke="none"/>
    <path d="M3.0 2.1 L3.25 2.45 3.25 2.65 3.25 2.85 3.25 2.9 2.75 2.8 2.75 2.7 2.65 2.5 3.0 2.1 M1.95 3.1 L1.8 2.95 1.75 2.65 1.75 2.55 1.8 2.4 2.2 2.65 2.15 2.7 2.25 2.85 1.95 3.1" fill="url(#gradient1)" fill-rule="evenodd" stroke="none"/>
    <path d="M4.15 1.4 Q4.55 1.9 4.55 2.6 L4.5 3.2 4.2 3.75 4.0 3.55 3.6 3.2 3.7 2.65 3.55 2.05 3.9 1.7 4.15 1.4 M3.7 4.25 L3.05 4.55 2.55 4.6 1.55 4.35 1.75 4.15 2.05 3.8 2.5 3.85 3.1 3.7 3.45 4.05 3.7 4.25 M1.0 3.9 Q0.55 3.35 0.55 2.6 L0.75 1.65 1.05 1.9 1.4 2.2 1.3 2.65 1.5 3.3 1.25 3.6 1.0 3.9 M1.2 1.1 Q1.5 0.85 1.85 0.75 L2.55 0.6 3.6 0.9 3.35 1.2 3.0 1.55 2.5 1.45 1.85 1.65 1.45 1.3 1.2 1.1 M2.2 2.65 L2.25 2.5 2.45 2.4 2.65 2.5 2.75 2.7 2.75 2.8 2.65 2.9 2.45 3.0 2.25 2.9 2.25 2.85 2.15 2.7 2.2 2.65" fill="#323232" fill-rule="evenodd" stroke="none"/>
    <path d="M3.35 1.2 L3.9 1.7 3.55 2.05 3.7 2.65 3.6 3.2 4.0 3.55 3.45 4.05 3.1 3.7 2.5 3.85 2.05 3.8 1.75 4.15 1.25 3.6 1.5 3.3 1.3 2.65 1.4 2.2 1.05 1.9 1.45 1.3 1.85 1.65 2.5 1.45 3.0 1.55 3.35 1.2 M3.0 2.1 Q2.85 1.95 2.7 1.95 L2.5 1.9 2.2 1.95 1.95 2.1 1.8 2.4 1.75 2.55 1.75 2.65 1.8 2.95 1.95 3.1 1.95 3.15 2.4 3.4 2.5 3.4 2.7 3.4 3.0 3.15 3.25 2.9 3.25 2.85 3.25 2.65 3.25 2.45 3.0 2.1" fill="#d0d0d0" fill-rule="evenodd" stroke="none"/>
    <path d="M3.6 0.9 L3.95 1.15 4.15 1.4 3.9 1.7 3.35 1.2 3.6 0.9 M4.2 3.75 L3.95 4.0 3.7 4.25 3.45 4.05 4.0 3.55 4.2 3.75 M1.55 4.35 L1.1 4.0 1.0 3.9 1.25 3.6 1.75 4.15 1.55 4.35 M0.75 1.65 L1.1 1.15 1.2 1.1 1.45 1.3 1.05 1.9 0.75 1.65" fill="#b3b3b3" fill-rule="evenodd" stroke="none"/>
    <path d="M1.8 2.4 L1.95 2.1 2.2 1.95 2.5 1.9 2.7 1.95 Q2.85 1.95 3.0 2.1 L2.65 2.5 2.45 2.4 2.25 2.5 2.2 2.65 1.8 2.4 M3.25 2.9 L3.0 3.15 2.7 3.4 2.5 3.4 2.4 3.4 1.95 3.15 1.95 3.1 2.25 2.85 2.25 2.9 2.45 3.0 2.65 2.9 2.75 2.8 3.25 2.9" fill="#aaaaaa" fill-rule="evenodd" stroke="none"/>
  </g>
  <defs>
    <radialGradient cx="0" cy="0" gradientTransform="matrix(0.004, 0.0, 0.0, 0.004, 2.55, 2.55)" gradientUnits="userSpaceOnUse" id="gradient0" r="819.2" spreadMethod="pad">
      <stop offset="0.0" stop-color="#ffffff"/>
      <stop offset="1.0" stop-color="#e2e2e2"/>
    </radialGradient>
    <radialGradient cx="0" cy="0" gradientTransform="matrix(0.0012, 0.0, 0.0, 0.0012, 2.5, 2.65)" gradientUnits="userSpaceOnUse" id="gradient1" r="819.2" spreadMethod="pad">
      <stop offset="0.0" stop-color="#ffffff"/>
      <stop offset="1.0" stop-color="#e2e2e2"/>
    </radialGradient>
  </defs>
</svg>
