<?xml version="1.0" encoding="UTF-8" standalone="no"?>
<svg xmlns:ffdec="https://www.free-decompiler.com/flash" xmlns:xlink="http://www.w3.org/1999/xlink" ffdec:objectType="shape" height="42.75px" width="81.4px" xmlns="http://www.w3.org/2000/svg">
  <g transform="matrix(1.0, 0.0, 0.0, 1.0, 35.35, 22.6)">
    <path d="M16.4 -21.8 L16.8 -19.6 23.4 1.0 26.8 2.0 28.0 1.8 21.0 -20.6 16.4 -21.8 M21.4 -20.8 L28.75 2.9 28.8 3.0 22.6 1.6 15.2 -22.4 21.4 -20.8" fill="#9c9c9c" fill-rule="evenodd" stroke="none"/>
    <path d="M45.0 0.8 L45.2 0.8 45.35 1.25 44.1 1.75 44.4 3.0 44.15 3.05 33.8 5.2 Q29.4 2.0 23.4 7.6 L-4.4 14.2 -4.6 14.0 -5.6 12.8 -8.4 12.8 -11.6 13.6 -14.6 15.4 -15.0 16.6 -24.9 18.8 -27.8 19.4 -28.2 19.0 -24.8 16.2 Q-18.6 13.1 -12.4 12.2 L-7.2 8.4 Q7.7 3.6 22.6 1.6 L28.8 3.0 45.0 0.8 M27.6 3.8 L27.4 3.2 21.6 2.2 8.4 5.2 8.4 5.8 8.2 8.4 27.6 3.8 M7.2 6.2 L7.2 5.6 6.4 5.6 -6.2 8.8 -10.0 11.8 -9.8 12.2 Q6.8 10.8 7.2 6.2" fill="#ffffea" fill-rule="evenodd" stroke="none"/>
    <path d="M-19.0 -11.8 L-14.2 -15.8 -14.15 -15.7 -11.55 -8.8 -14.0 -15.0 -14.6 -14.8 Q-19.2 -12.0 -18.4 -10.6 L-12.2 11.2 -11.6 11.2 -11.2 10.8 -10.4 10.2 -8.2 8.2 Q-7.45 7.75 -7.6 5.95 L-7.2 8.4 -12.4 12.2 -19.0 -11.8" fill="#c8c8c8" fill-rule="evenodd" stroke="none"/>
    <path d="M-10.35 -16.8 L-10.2 -17.0 -10.2 -16.85 -10.2 -16.8 -10.4 -16.8 -10.35 -16.8 M-8.4 -17.35 L-8.4 -17.4 -8.4 -17.35 -8.4 -17.2 -8.6 -17.2 -8.4 -17.35 M8.4 5.8 L8.4 5.2 21.6 2.2 27.4 3.2 27.6 3.8 21.8 2.8 8.4 5.8 M-9.8 12.2 L-10.0 11.8 -6.2 8.8 6.4 5.6 7.2 5.6 7.2 6.2 -6.0 9.2 -9.8 12.2 M-6.8 -17.6 L-6.6 -17.8 -6.6 -17.6 -6.8 -17.6 M-12.0 -16.4 L-12.2 -16.4 -12.0 -16.6 -12.0 -16.4" fill="#555555" fill-rule="evenodd" stroke="none"/>
    <path d="M38.8 -18.85 L43.35 -4.6 28.75 2.9 21.4 -20.8 23.15 -21.0 38.8 -18.85" fill="#969696" fill-rule="evenodd" stroke="none"/>
    <path d="M-31.2 -7.8 Q-25.1 -11.0 -19.0 -11.8 L-12.4 12.2 Q-18.6 13.1 -24.8 16.2 -26.95 3.15 -31.2 -7.8" fill="#a7a7a7" fill-rule="evenodd" stroke="none"/>
    <path d="M-32.9 -6.1 L-31.2 -7.8 Q-26.95 3.15 -24.8 16.2 L-28.2 19.0 -34.6 -4.4 -32.9 -6.1 M-33.8 -4.5 L-32.75 -0.6 -30.7 -2.05 -31.85 -6.0 -33.8 -4.5 M-29.05 13.0 L-27.65 17.6 -25.8 15.85 -27.2 11.5 -29.05 13.0" fill="#c6c6c6" fill-rule="evenodd" stroke="none"/>
    <path d="M23.6 8.2 L23.4 7.6 Q29.4 2.0 33.8 5.2 25.6 4.4 23.6 8.2" fill="#2c2c2c" fill-rule="evenodd" stroke="none"/>
    <path d="M-4.4 14.2 Q-10.0 20.2 -15.0 16.6 L-11.4 14.2 -4.6 14.0 -4.4 14.2" fill="#595959" fill-rule="evenodd" stroke="none"/>
    <path d="M-15.0 16.6 L-14.6 15.4 -11.6 13.6 -8.4 12.8 -5.6 12.8 -4.6 14.0 -11.4 14.2 -15.0 16.6" fill="#2d2d2d" fill-rule="evenodd" stroke="none"/>
    <path d="M27.6 3.8 L8.2 8.4 8.4 5.8 21.8 2.8 27.6 3.8 M7.2 6.2 Q6.8 10.8 -9.8 12.2 L-6.0 9.2 7.2 6.2" fill="#808080" fill-rule="evenodd" stroke="none"/>
    <path d="M33.8 5.2 L33.6 6.6 32.0 7.8 28.6 9.2 24.6 9.4 23.6 8.2 Q25.6 4.4 33.8 5.2" fill="#585858" fill-rule="evenodd" stroke="none"/>
    <path d="M38.8 -18.85 L38.1 -21.05 38.5 -21.05 46.0 1.35 46.05 2.8 44.7 3.25 44.15 3.05 44.4 3.0 44.1 1.75 45.35 1.25 45.2 0.8 45.0 0.8 45.0 0.2 44.8 0.0 43.35 -4.6 38.8 -18.85" fill="#343434" fill-rule="evenodd" stroke="none"/>
    <path d="M16.4 -21.8 L21.0 -20.6 28.0 1.8 26.8 2.0 23.4 1.0 16.8 -19.6 16.4 -21.8" fill="url(#gradient0)" fill-rule="evenodd" stroke="none"/>
    <path d="M-7.6 5.95 Q-7.45 7.75 -8.2 8.2 L-10.4 10.2 -11.2 10.8 -11.6 11.2 -12.2 11.2 -18.4 -10.6 Q-19.2 -12.0 -14.6 -14.8 L-14.0 -15.0 -11.55 -8.8 Q-9.15 -2.65 -8.05 3.85 L-7.85 4.75 -7.6 5.95" fill="url(#gradient1)" fill-rule="evenodd" stroke="none"/>
    <path d="M-29.05 13.0 L-27.2 11.5 -25.8 15.85 -27.65 17.6 -29.05 13.0" fill="url(#gradient2)" fill-rule="evenodd" stroke="none"/>
    <path d="M-33.8 -4.5 L-31.85 -6.0 -30.7 -2.05 -32.75 -0.6 -33.8 -4.5" fill="url(#gradient3)" fill-rule="evenodd" stroke="none"/>
    <path d="M-24.9 18.8 L-25.55 19.45 -28.7 20.15 -35.35 -4.8 -33.35 -6.3 -32.9 -6.1 -34.6 -4.4 -28.2 19.0 -27.8 19.4 -24.9 18.8" fill="#333333" fill-rule="evenodd" stroke="none"/>
    <path d="M-14.15 -15.7 L-10.35 -16.8 -10.4 -16.8 -10.2 -16.8 -10.2 -16.85 -8.4 -17.35 Q3.4 -20.6 15.2 -22.4 L22.6 1.6 Q7.7 3.6 -7.2 8.4 L-7.6 5.95 -7.85 4.75 -8.05 3.85 Q-9.15 -2.65 -11.55 -8.8 L-14.15 -15.7 M-6.8 -17.6 L-6.6 -17.6 -6.6 -17.8 -6.8 -17.6 M-8.4 -17.35 L-8.6 -17.2 -8.4 -17.2 -8.4 -17.35" fill="url(#gradient4)" fill-rule="evenodd" stroke="none"/>
    <path d="M38.1 -21.05 L38.8 -18.85 23.15 -21.0 36.2 -22.6 37.6 -22.6 38.1 -21.05 M43.35 -4.6 L44.8 0.0 45.0 0.2 45.0 0.8 28.8 3.0 28.75 2.9 43.35 -4.6" fill="#848484" fill-rule="evenodd" stroke="none"/>
  </g>
  <defs>
    <radialGradient cx="0" cy="0" gradientTransform="matrix(0.0251, 0.0, 0.0, 0.0251, 24.3, -2.8)" gradientUnits="userSpaceOnUse" id="gradient0" r="819.2" spreadMethod="pad">
      <stop offset="0.0" stop-color="#c4ced5"/>
      <stop offset="1.0" stop-color="#555555"/>
    </radialGradient>
    <radialGradient cx="0" cy="0" gradientTransform="matrix(0.0268, 0.0, 0.0, 0.0268, -11.1, 6.6)" gradientUnits="userSpaceOnUse" id="gradient1" r="819.2" spreadMethod="pad">
      <stop offset="0.0" stop-color="#c4ced5"/>
      <stop offset="1.0" stop-color="#555555"/>
    </radialGradient>
    <radialGradient cx="0" cy="0" gradientTransform="matrix(0.0052, 0.0, 0.0, 0.0052, -27.95, 13.3)" gradientUnits="userSpaceOnUse" id="gradient2" r="819.2" spreadMethod="pad">
      <stop offset="0.0" stop-color="#990000"/>
      <stop offset="1.0" stop-color="#660000"/>
    </radialGradient>
    <radialGradient cx="0" cy="0" gradientTransform="matrix(0.0057, 0.0, 0.0, 0.0057, -32.0, -5.25)" gradientUnits="userSpaceOnUse" id="gradient3" r="819.2" spreadMethod="pad">
      <stop offset="0.0" stop-color="#990000"/>
      <stop offset="1.0" stop-color="#660000"/>
    </radialGradient>
    <radialGradient cx="0" cy="0" gradientTransform="matrix(0.046, 0.0, 0.0, 0.046, -10.6, -16.3)" gradientUnits="userSpaceOnUse" id="gradient4" r="819.2" spreadMethod="pad">
      <stop offset="0.0" stop-color="#ffffff"/>
      <stop offset="1.0" stop-color="#909090"/>
    </radialGradient>
  </defs>
</svg>
