<?xml version="1.0" encoding="UTF-8" standalone="no"?>
<svg xmlns:ffdec="https://www.free-decompiler.com/flash" xmlns:xlink="http://www.w3.org/1999/xlink" ffdec:objectType="shape" height="45.9px" width="82.1px" xmlns="http://www.w3.org/2000/svg">
  <g transform="matrix(1.0, 0.0, 0.0, 1.0, 36.75, 23.75)">
    <path d="M14.5 -23.0 L14.5 -21.5 23.5 -2.25 28.0 -1.0 23.45 -11.25 28.75 0.0 22.75 -1.75 13.25 -23.5 14.5 -23.0" fill="#8a8a8a" fill-rule="evenodd" stroke="none"/>
    <path d="M45.0 -2.5 L45.0 -1.65 43.2 -1.25 43.2 0.8 34.0 3.5 33.75 2.75 Q33.35 2.4 32.7 2.3 27.4 0.4 23.75 6.75 L-3.75 14.5 -4.0 14.0 Q-9.75 11.25 -13.75 16.5 L-13.75 16.75 -14.25 17.5 -14.25 17.75 -24.05 20.6 -27.25 21.5 -27.5 21.0 -24.0 17.0 Q-17.85 13.3 -11.75 12.0 L-10.0 10.0 -7.5 7.25 -7.5 6.75 -6.75 6.75 Q8.0 1.3 22.75 -1.75 L28.75 0.0 28.85 0.0 45.0 -2.5 M-9.0 11.75 L7.0 7.5 7.75 4.0 7.25 3.25 -5.75 7.5 -9.25 11.25 -9.0 11.75 M9.0 3.25 L8.75 6.75 27.5 1.0 22.0 -0.5 8.75 2.75 9.0 3.25" fill="#ffffeb" fill-rule="evenodd" stroke="none"/>
    <path d="M-21.0 -10.0 L-16.0 -15.5 -14.6 -12.75 -15.75 -14.5 -16.5 -14.25 -20.0 -10.5 -20.0 -9.25 -11.5 11.0 -10.5 10.25 -10.0 10.0 -11.75 12.0 -21.0 -10.0 M-7.5 6.75 L-7.0 6.5 -6.75 6.75 -7.5 6.75" fill="#c6c6c6" fill-rule="evenodd" stroke="none"/>
    <path d="M-9.0 11.75 L-9.25 11.25 -5.75 7.5 7.25 3.25 7.75 4.0 -5.75 7.5 -9.0 11.75 M9.0 3.25 L8.75 2.75 22.0 -0.5 9.0 3.25" fill="#555555" fill-rule="evenodd" stroke="none"/>
    <path d="M-32.75 -5.0 Q-26.5 -8.65 -21.0 -10.0 L-11.75 12.0 Q-17.85 13.3 -24.0 17.0 -27.0 5.65 -32.75 -5.0" fill="#939393" fill-rule="evenodd" stroke="none"/>
    <path d="M-34.55 -3.0 L-32.75 -5.0 Q-27.0 5.65 -24.0 17.0 L-27.5 21.0 -35.75 0.25 Q-36.45 -0.65 -34.55 -3.0 M-33.25 -3.1 L-35.25 -0.7 -33.55 3.65 -31.4 1.35 -33.25 -3.1 M-25.15 16.95 L-26.8 12.5 -29.2 14.75 -27.35 19.45 -25.2 17.05 -25.15 16.95" fill="#c8c8c8" fill-rule="evenodd" stroke="none"/>
    <path d="M23.45 -11.25 L18.75 -21.5 20.65 -21.75 36.4 -20.85 42.6 -7.6 28.85 0.0 28.75 0.0 23.45 -11.25" fill="#868686" fill-rule="evenodd" stroke="none"/>
    <path d="M22.0 -0.5 L27.5 1.0 8.75 6.75 9.0 3.25 22.0 -0.5" fill="#808080" fill-rule="evenodd" stroke="none"/>
    <path d="M34.0 3.5 L34.25 4.25 33.0 6.0 27.75 8.5 24.5 8.25 23.75 6.75 27.5 3.25 Q30.95 2.0 32.7 2.3 33.35 2.4 33.75 2.75 L34.0 3.5" fill="#595959" fill-rule="evenodd" stroke="none"/>
    <path d="M32.7 2.3 Q30.95 2.0 27.5 3.25 L23.75 6.75 Q27.4 0.4 32.7 2.3" fill="#252525" fill-rule="evenodd" stroke="none"/>
    <path d="M7.75 4.0 L7.0 7.5 -9.0 11.75 -5.75 7.5 7.75 4.0" fill="#818181" fill-rule="evenodd" stroke="none"/>
    <path d="M-3.75 14.5 Q-9.0 22.25 -14.25 17.75 L-14.25 17.5 -13.75 16.75 -13.75 16.5 -9.75 14.0 Q-6.75 13.0 -4.0 14.0 L-3.75 14.5" fill="#5b5b5b" fill-rule="evenodd" stroke="none"/>
    <path d="M-4.0 14.0 Q-6.75 13.0 -9.75 14.0 L-13.75 16.5 Q-9.75 11.25 -4.0 14.0" fill="#272727" fill-rule="evenodd" stroke="none"/>
    <path d="M45.0 -1.65 L45.35 -1.2 45.35 0.6 43.75 1.1 43.2 0.8 43.2 -1.25 45.0 -1.65" fill="#343434" fill-rule="evenodd" stroke="none"/>
    <path d="M14.5 -23.0 L18.75 -21.5 23.45 -11.25 28.0 -1.0 23.5 -2.25 14.5 -21.5 14.5 -23.0" fill="url(#gradient0)" fill-rule="evenodd" stroke="none"/>
    <path d="M-10.0 10.0 L-10.5 10.25 -11.5 11.0 -20.0 -9.25 -20.0 -10.5 -16.5 -14.25 -15.75 -14.5 -14.6 -12.75 Q-8.8 -1.45 -7.0 6.5 L-7.5 6.75 -7.5 7.25 -10.0 10.0" fill="url(#gradient1)" fill-rule="evenodd" stroke="none"/>
    <path d="M-33.25 -3.1 L-31.4 1.35 -33.55 3.65 -35.25 -0.7 -33.25 -3.1" fill="url(#gradient2)" fill-rule="evenodd" stroke="none"/>
    <path d="M-25.15 16.95 L-25.2 17.05 -27.35 19.45 -29.2 14.75 -26.8 12.5 -25.15 16.95" fill="url(#gradient3)" fill-rule="evenodd" stroke="none"/>
    <path d="M-24.05 20.6 L-24.65 21.1 -27.75 22.15 -36.75 -1.4 -35.1 -3.15 -34.55 -3.0 Q-36.45 -0.65 -35.75 0.25 L-27.5 21.0 -27.25 21.5 -24.05 20.6" fill="#333333" fill-rule="evenodd" stroke="none"/>
    <path d="M-16.0 -15.5 Q-2.55 -20.15 11.25 -23.25 L13.25 -23.5 22.75 -1.75 Q8.0 1.3 -6.75 6.75 L-7.0 6.5 Q-8.8 -1.45 -14.6 -12.75 L-16.0 -15.5" fill="url(#gradient4)" fill-rule="evenodd" stroke="none"/>
    <path d="M20.65 -21.75 L35.0 -23.75 36.4 -20.85 20.65 -21.75 M42.6 -7.6 L45.0 -2.5 28.85 0.0 42.6 -7.6" fill="#737373" fill-rule="evenodd" stroke="none"/>
  </g>
  <defs>
    <radialGradient cx="0" cy="0" gradientTransform="matrix(0.0238, 0.0, 0.0, 0.0238, 23.5, -5.7)" gradientUnits="userSpaceOnUse" id="gradient0" r="819.2" spreadMethod="pad">
      <stop offset="0.0" stop-color="#c4ced5"/>
      <stop offset="1.0" stop-color="#555555"/>
    </radialGradient>
    <radialGradient cx="0" cy="0" gradientTransform="matrix(0.0273, 0.0, 0.0, 0.0273, -9.2, 6.9)" gradientUnits="userSpaceOnUse" id="gradient1" r="819.2" spreadMethod="pad">
      <stop offset="0.0" stop-color="#c4ced5"/>
      <stop offset="1.0" stop-color="#555555"/>
    </radialGradient>
    <radialGradient cx="0" cy="0" gradientTransform="matrix(0.007, 0.0, 0.0, 0.007, -33.05, -2.1)" gradientUnits="userSpaceOnUse" id="gradient2" r="819.2" spreadMethod="pad">
      <stop offset="0.0" stop-color="#990000"/>
      <stop offset="1.0" stop-color="#660000"/>
    </radialGradient>
    <radialGradient cx="0" cy="0" gradientTransform="matrix(0.0065, 0.0, 0.0, 0.0065, -26.95, 14.15)" gradientUnits="userSpaceOnUse" id="gradient3" r="819.2" spreadMethod="pad">
      <stop offset="0.0" stop-color="#990000"/>
      <stop offset="1.0" stop-color="#660000"/>
    </radialGradient>
    <radialGradient cx="0" cy="0" gradientTransform="matrix(0.0455, 0.0, 0.0, 0.0455, -11.6, -16.2)" gradientUnits="userSpaceOnUse" id="gradient4" r="819.2" spreadMethod="pad">
      <stop offset="0.0" stop-color="#ffffff"/>
      <stop offset="1.0" stop-color="#797979"/>
    </radialGradient>
  </defs>
</svg>
