<?xml version="1.0" encoding="UTF-8" standalone="no"?>
<svg xmlns:ffdec="https://www.free-decompiler.com/flash" xmlns:xlink="http://www.w3.org/1999/xlink" ffdec:objectType="shape" height="4.65px" width="4.15px" xmlns="http://www.w3.org/2000/svg">
  <g transform="matrix(1.0, 0.0, 0.0, 1.0, 5.65, 1.9)">
    <path d="M-5.2 0.15 L-5.45 0.35 -5.65 0.15 Q-5.65 0.0 -5.4 0.0 L-5.2 0.15" fill="#333333" fill-rule="evenodd" stroke="none"/>
    <path d="M-3.75 2.75 L-4.0 2.45 Q-4.1 2.1 -3.8 2.1 -3.6 2.1 -3.55 2.35 -3.5 2.65 -3.75 2.75" fill="#333333" fill-rule="evenodd" stroke="none"/>
    <path d="M-1.75 -1.8 Q-1.45 -1.75 -1.55 -1.45 -1.7 -1.0 -2.15 -1.1 -2.35 -1.2 -2.35 -1.6 -2.2 -2.0 -1.75 -1.8" fill="#333333" fill-rule="evenodd" stroke="none"/>
    <path d="M-1.75 -1.8 Q-1.45 -1.75 -1.55 -1.45 -1.7 -1.0 -2.15 -1.1 -2.35 -1.2 -2.35 -1.6 -2.2 -2.0 -1.75 -1.8 Z" fill="none" stroke="#000000" stroke-linecap="round" stroke-linejoin="round" stroke-width="0.1"/>
  </g>
</svg>
