<?xml version="1.0" encoding="UTF-8" standalone="no"?>
<svg xmlns:ffdec="https://www.free-decompiler.com/flash" xmlns:xlink="http://www.w3.org/1999/xlink" ffdec:objectType="shape" height="48.65px" width="83.4px" xmlns="http://www.w3.org/2000/svg">
  <g transform="matrix(1.0, 0.0, 0.0, 1.0, 38.6, 24.65)">
    <path d="M27.0 -7.25 L14.05 -21.4 30.85 -22.05 40.3 -11.9 28.85 -5.5 28.75 -5.5 28.0 -6.0 25.5 -7.25 27.25 -6.75 27.0 -7.25 M-6.5 2.5 L-6.0 2.75 -6.75 3.5 -9.5 8.75 Q-10.0 9.05 -10.0 8.5 L-6.5 2.5" fill="#767676" fill-rule="evenodd" stroke="none"/>
    <path d="M-1.75 14.0 Q-5.75 24.0 -11.75 19.0 L-12.0 18.25 -12.0 17.75 -11.75 16.75 -11.75 16.5 -9.0 13.0 Q-7.5 11.5 -3.25 12.0 L-2.25 12.5 -1.75 14.0 M-4.5 3.0 L0.75 0.5 Q7.0 -2.5 8.25 -1.75 L-4.5 3.0" fill="#555555" fill-rule="evenodd" stroke="none"/>
    <path d="M22.75 -9.0 L27.0 -7.25 27.25 -6.75 25.5 -7.25 24.25 -8.0 22.75 -9.0" fill="#616161" fill-rule="evenodd" stroke="none"/>
    <path d="M-5.5 2.0 Q8.25 -4.55 22.0 -8.75 L24.25 -8.0 25.5 -7.25 28.0 -6.0 28.75 -5.5 28.85 -5.5 43.5 -8.5 43.85 -7.25 43.85 -7.2 42.3 -6.65 42.9 -4.1 34.0 -0.5 32.75 -2.5 30.8 -2.8 Q25.45 -3.05 23.75 3.75 L-1.75 14.0 -2.25 12.5 -3.25 12.0 Q-10.0 10.75 -11.75 16.5 L-11.75 16.75 -12.0 17.75 -12.0 18.25 -12.5 18.5 -24.15 23.2 -23.15 22.05 -24.65 22.45 -24.65 22.4 -24.75 22.3 -21.75 16.75 Q-16.2 12.3 -10.25 9.75 L-9.5 8.75 -6.75 3.5 -6.0 2.75 -5.5 2.0 M26.75 -5.0 L21.25 -7.5 9.5 -2.5 9.75 2.75 27.5 -4.5 26.75 -5.0 M-4.5 3.0 L-4.5 3.25 -7.5 9.25 -6.0 9.25 Q1.15 6.4 8.25 3.5 L8.25 -1.75 Q7.0 -2.5 0.75 0.5 L-4.5 3.0" fill="#fef6d5" fill-rule="evenodd" stroke="none"/>
    <path d="M-24.0 -6.75 L-21.0 -11.5 -21.75 -9.75 Q-23.5 -6.75 -22.25 -6.0 L-10.0 8.5 Q-10.0 9.05 -9.5 8.75 L-10.25 9.75 -24.0 -6.75" fill="#c1c1c1" fill-rule="evenodd" stroke="none"/>
    <path d="M-21.0 -11.5 L-21.0 -11.75 -20.5 -12.75 -20.0 -13.25 -21.75 -9.75 -21.0 -11.5" fill="#727272" fill-rule="evenodd" stroke="none"/>
    <path d="M-35.25 0.0 Q-30.2 -4.5 -24.0 -6.75 L-10.25 9.75 Q-16.2 12.3 -21.75 16.75 -28.05 6.65 -35.25 0.0" fill="#7b7b7b" fill-rule="evenodd" stroke="none"/>
    <path d="M-37.75 5.7 L-35.25 0.0 Q-28.05 6.65 -21.75 16.75 L-24.75 22.3 -37.75 5.7 M-36.9 5.5 L-34.75 8.5 -32.7 5.0 -35.3 1.95 -36.9 5.5 M-25.65 14.2 L-27.25 17.75 -25.1 20.75 -23.05 17.25 -25.65 14.2" fill="#cacaca" fill-rule="evenodd" stroke="none"/>
    <path d="M26.75 -5.0 L27.5 -4.5 9.75 2.75 9.5 -2.5 21.25 -7.5 26.75 -5.0" fill="#8f8f8f" fill-rule="evenodd" stroke="none"/>
    <path d="M30.8 -2.8 L32.75 -2.5 34.0 -0.5 Q29.75 9.5 24.5 4.5 L26.0 -0.25 Q28.65 -2.6 30.8 -2.8" fill="#525252" fill-rule="evenodd" stroke="none"/>
    <path d="M8.25 -1.75 L8.25 3.5 Q1.15 6.4 -6.0 9.25 L-7.5 9.25 -4.5 3.25 -4.5 3.0 8.25 -1.75" fill="#989898" fill-rule="evenodd" stroke="none"/>
    <path d="M30.8 -2.8 Q28.65 -2.6 26.0 -0.25 L24.5 4.5 23.75 3.75 Q25.45 -3.05 30.8 -2.8" fill="#242424" fill-rule="evenodd" stroke="none"/>
    <path d="M-11.75 19.0 L-12.5 18.5 -12.0 18.25 -11.75 19.0 M-11.75 16.5 Q-10.0 10.75 -3.25 12.0 -7.5 11.5 -9.0 13.0 L-11.75 16.5" fill="#252525" fill-rule="evenodd" stroke="none"/>
    <path d="M42.9 -4.1 L42.3 -6.65 43.85 -7.2 44.1 -7.35 44.8 -4.55 43.0 -3.7 42.9 -4.1" fill="#343434" fill-rule="evenodd" stroke="none"/>
    <path d="M22.75 -9.0 L22.5 -9.5 20.5 -11.5 20.0 -12.25 17.75 -14.5 17.25 -15.25 15.25 -17.25 14.75 -18.0 12.75 -20.0 12.0 -21.0 9.25 -23.75 9.0 -24.25 14.0 -21.5 14.05 -21.4 27.0 -7.25 22.75 -9.0" fill="url(#gradient0)" fill-rule="evenodd" stroke="none"/>
    <path d="M-21.75 -9.75 L-20.0 -13.25 -19.25 -13.5 Q-12.5 -6.9 -6.5 2.5 L-10.0 8.5 -22.25 -6.0 Q-23.5 -6.75 -21.75 -9.75" fill="url(#gradient1)" fill-rule="evenodd" stroke="none"/>
    <path d="M-25.65 14.2 L-23.05 17.25 -25.1 20.75 -27.25 17.75 -25.65 14.2" fill="url(#gradient2)" fill-rule="evenodd" stroke="none"/>
    <path d="M-36.9 5.5 L-35.3 1.95 -32.7 5.0 -34.75 8.5 -36.9 5.5" fill="url(#gradient3)" fill-rule="evenodd" stroke="none"/>
    <path d="M-24.15 23.2 L-24.55 23.7 -25.5 24.0 -38.6 6.2 -38.0 5.4 -37.75 5.7 -24.75 22.3 -24.65 22.4 -24.65 22.45 -23.15 22.05 -24.15 23.2" fill="#333333" fill-rule="evenodd" stroke="none"/>
    <path d="M9.0 -24.25 L9.25 -23.75 12.0 -21.0 12.75 -20.0 14.75 -18.0 15.25 -17.25 17.25 -15.25 17.75 -14.5 20.0 -12.25 20.5 -11.5 22.5 -9.5 22.75 -9.0 24.25 -8.0 22.0 -8.75 Q8.25 -4.55 -5.5 2.0 -12.3 -7.7 -19.5 -14.25 -6.25 -20.8 8.45 -24.65 L9.0 -24.25" fill="url(#gradient4)" fill-rule="evenodd" stroke="none"/>
    <path d="M14.05 -21.4 L14.0 -21.5 29.0 -24.0 30.85 -22.05 14.05 -21.4 M28.85 -5.5 L40.3 -11.9 43.5 -8.5 28.85 -5.5" fill="#666666" fill-rule="evenodd" stroke="none"/>
    <path d="M-19.5 -14.25 Q-12.3 -7.7 -5.5 2.0 L-6.0 2.75 -6.5 2.5 Q-12.5 -6.9 -19.25 -13.5 L-20.0 -13.25 -19.5 -14.25" fill="#5b5c5c" fill-rule="evenodd" stroke="none"/>
  </g>
  <defs>
    <radialGradient cx="0" cy="0" gradientTransform="matrix(0.0193, 0.0, 0.0, 0.0193, 25.0, -8.3)" gradientUnits="userSpaceOnUse" id="gradient0" r="819.2" spreadMethod="pad">
      <stop offset="0.0" stop-color="#c4ced5"/>
      <stop offset="1.0" stop-color="#555555"/>
    </radialGradient>
    <radialGradient cx="0" cy="0" gradientTransform="matrix(0.0256, 0.0, 0.0, 0.0256, -8.0, 3.9)" gradientUnits="userSpaceOnUse" id="gradient1" r="819.2" spreadMethod="pad">
      <stop offset="0.0" stop-color="#c4ced5"/>
      <stop offset="1.0" stop-color="#555555"/>
    </radialGradient>
    <radialGradient cx="0" cy="0" gradientTransform="matrix(0.006, 0.0, 0.0, 0.006, -25.3, 15.85)" gradientUnits="userSpaceOnUse" id="gradient2" r="819.2" spreadMethod="pad">
      <stop offset="0.0" stop-color="#990000"/>
      <stop offset="1.0" stop-color="#660000"/>
    </radialGradient>
    <radialGradient cx="0" cy="0" gradientTransform="matrix(0.0067, 0.0, 0.0, 0.0067, -35.15, 3.05)" gradientUnits="userSpaceOnUse" id="gradient3" r="819.2" spreadMethod="pad">
      <stop offset="0.0" stop-color="#990000"/>
      <stop offset="1.0" stop-color="#660000"/>
    </radialGradient>
    <radialGradient cx="0" cy="0" gradientTransform="matrix(0.0339, 0.0, 0.0, 0.0339, -13.1, -18.6)" gradientUnits="userSpaceOnUse" id="gradient4" r="819.2" spreadMethod="pad">
      <stop offset="0.0" stop-color="#ffffff"/>
      <stop offset="1.0" stop-color="#767676"/>
    </radialGradient>
  </defs>
</svg>
