<?xml version="1.0" encoding="UTF-8" standalone="no"?>
<svg xmlns:ffdec="https://www.free-decompiler.com/flash" xmlns:xlink="http://www.w3.org/1999/xlink" ffdec:objectType="shape" height="42.0px" width="80.5px" xmlns="http://www.w3.org/2000/svg">
  <g transform="matrix(1.0, 0.0, 0.0, 1.0, 39.1, 22.0)">
    <path d="M25.75 -13.25 L23.25 -15.5 22.75 -15.75 22.25 -16.25 21.75 -16.5 21.25 -17.0 18.5 -18.5 18.35 -18.4 13.1 -19.7 16.75 -19.0 19.5 -19.5 34.0 -16.4 25.75 -13.25 M-8.0 2.5 Q-13.45 5.25 -17.75 10.75 -27.35 7.05 -37.0 5.75 -32.9 0.8 -27.25 -2.25 L-8.0 2.5" fill="#767676" fill-rule="evenodd" stroke="none"/>
    <path d="M18.35 -18.4 L18.5 -18.5 21.25 -17.0 21.75 -16.5 22.25 -16.25 22.75 -15.75 23.25 -15.5 25.75 -13.25 Q32.2 -14.9 39.0 -15.5 L39.85 -13.35 39.75 -13.3 38.1 -12.45 39.2 -9.6 32.25 -6.25 30.75 -9.5 28.75 -10.0 26.5 -9.75 25.25 -8.75 Q23.0 -6.25 23.5 -1.75 L20.75 -0.5 1.5 9.0 -0.25 5.75 -2.25 5.25 -3.25 5.25 -5.25 6.25 -7.25 8.75 -7.75 10.5 -8.0 11.0 -8.0 12.0 -7.75 13.25 -7.75 13.5 -10.75 15.0 -18.75 19.15 -18.25 17.25 -19.55 18.3 -17.75 10.75 Q-13.45 5.25 -8.0 2.5 L-7.5 1.25 -5.5 -6.5 -5.25 -7.25 Q6.35 -14.2 18.35 -18.4 M19.25 -17.0 L18.25 -17.0 14.5 -15.0 13.75 -14.75 8.25 -12.0 Q8.0 -5.5 10.25 -5.25 L25.0 -12.5 19.25 -17.0 M8.5 -4.5 Q8.5 -11.25 6.5 -11.25 L-3.5 -6.5 -3.75 -6.25 -5.0 -0.5 -5.0 -0.25 -5.25 2.0 8.5 -4.5" fill="#ada48e" fill-rule="evenodd" stroke="none"/>
    <path d="M-7.5 1.25 L-8.0 2.5 -27.25 -2.25 -26.0 -6.25 -26.5 -3.25 -8.0 1.5 -7.5 1.25" fill="#b6b6b6" fill-rule="evenodd" stroke="none"/>
    <path d="M-26.0 -6.25 L-26.0 -6.75 -25.75 -7.25 -25.75 -7.75 -25.5 -8.75 -24.75 -10.75 -26.5 -3.25 -26.0 -6.25" fill="#8a8a8a" fill-rule="evenodd" stroke="none"/>
    <path d="M-17.75 10.75 L-19.55 18.3 -19.6 18.3 -19.6 18.25 -19.65 18.2 -38.45 13.6 -37.0 5.75 Q-27.35 7.05 -17.75 10.75 M-37.4 12.35 L-33.95 13.2 -32.85 8.9 -36.5 8.05 -37.4 12.35 M-20.4 16.7 L-19.3 12.4 -22.95 11.55 -23.85 15.85 -20.4 16.7" fill="#c1c1c1" fill-rule="evenodd" stroke="none"/>
    <path d="M-5.5 -6.5 L-7.5 1.25 -8.0 1.5 -6.25 -6.5 -5.5 -6.5" fill="#818181" fill-rule="evenodd" stroke="none"/>
    <path d="M19.25 -17.0 L25.0 -12.5 10.25 -5.25 Q8.0 -5.5 8.25 -12.0 L13.75 -14.75 14.5 -15.0 18.25 -17.0 19.25 -17.0" fill="#777777" fill-rule="evenodd" stroke="none"/>
    <path d="M8.5 -4.5 L-5.25 2.0 -5.0 -0.25 -5.0 -0.5 -3.75 -6.25 -3.5 -6.5 6.5 -11.25 Q8.5 -11.25 8.5 -4.5" fill="#888888" fill-rule="evenodd" stroke="none"/>
    <path d="M28.75 -10.0 L30.75 -9.5 32.25 -6.25 Q31.75 2.5 26.0 1.0 20.5 -4.5 28.75 -10.0" fill="#3a3a3a" fill-rule="evenodd" stroke="none"/>
    <path d="M20.75 -0.5 L23.5 -1.75 Q23.0 -6.25 25.25 -8.75 L26.5 -9.75 28.75 -10.0 Q20.5 -4.5 26.0 1.0 L20.75 -0.5" fill="#3d3d3d" fill-rule="evenodd" stroke="none"/>
    <path d="M-7.75 13.5 L-7.75 13.25 -8.0 12.0 -8.0 11.0 -7.75 10.5 -7.25 8.75 -5.25 6.25 -3.25 5.25 -2.25 5.25 -0.25 5.75 1.5 9.0 Q1.5 17.75 -5.75 16.5 L-7.25 15.25 -7.75 13.5" fill="#3c3c3c" fill-rule="evenodd" stroke="none"/>
    <path d="M-19.55 18.3 L-18.25 17.25 -18.75 19.15 -19.7 20.0 -38.7 14.65 -39.1 14.2 -38.75 13.5 -38.45 13.6 -19.65 18.2 -19.6 18.25 -19.6 18.3 -19.55 18.3 M-10.75 15.0 L-7.75 13.5 -7.25 15.25 -5.75 16.5 -10.75 15.0" fill="#333333" fill-rule="evenodd" stroke="none"/>
    <path d="M39.2 -9.6 L38.1 -12.45 39.75 -13.3 39.85 -13.35 40.25 -13.6 41.4 -10.6 39.35 -9.15 39.2 -9.6" fill="#343434" fill-rule="evenodd" stroke="none"/>
    <path d="M-24.75 -10.75 Q-16.3 -10.8 -6.25 -6.5 L-8.0 1.5 -26.5 -3.25 -24.75 -10.75" fill="url(#gradient0)" fill-rule="evenodd" stroke="none"/>
    <path d="M-20.4 16.7 L-23.85 15.85 -22.95 11.55 -19.3 12.4 -20.4 16.7" fill="url(#gradient1)" fill-rule="evenodd" stroke="none"/>
    <path d="M-37.4 12.35 L-36.5 8.05 -32.85 8.9 -33.95 13.2 -37.4 12.35" fill="url(#gradient2)" fill-rule="evenodd" stroke="none"/>
    <path d="M13.1 -19.7 L18.35 -18.4 Q6.35 -14.2 -5.25 -7.25 -14.55 -10.65 -24.25 -11.75 -12.6 -18.4 0.7 -22.0 L13.1 -19.7" fill="url(#gradient3)" fill-rule="evenodd" stroke="none"/>
    <path d="M25.75 -13.25 L34.0 -16.4 39.0 -15.5 Q32.2 -14.9 25.75 -13.25" fill="#666666" fill-rule="evenodd" stroke="none"/>
    <path d="M-5.25 -7.25 L-5.5 -6.5 -6.25 -6.5 Q-16.3 -10.8 -24.75 -10.75 L-24.25 -11.75 Q-14.55 -10.65 -5.25 -7.25" fill="#5b5c5c" fill-rule="evenodd" stroke="none"/>
  </g>
  <defs>
    <radialGradient cx="0" cy="0" gradientTransform="matrix(0.0195, 0.0, 0.0, 0.0195, -10.8, -6.3)" gradientUnits="userSpaceOnUse" id="gradient0" r="819.2" spreadMethod="pad">
      <stop offset="0.0" stop-color="#c4ced5"/>
      <stop offset="1.0" stop-color="#555555"/>
    </radialGradient>
    <radialGradient cx="0" cy="0" gradientTransform="matrix(0.0045, 0.0, 0.0, 0.0045, -21.35, 13.1)" gradientUnits="userSpaceOnUse" id="gradient1" r="819.2" spreadMethod="pad">
      <stop offset="0.0" stop-color="#990000"/>
      <stop offset="1.0" stop-color="#660000"/>
    </radialGradient>
    <radialGradient cx="0" cy="0" gradientTransform="matrix(0.0055, 0.0, 0.0, 0.0055, -36.15, 9.25)" gradientUnits="userSpaceOnUse" id="gradient2" r="819.2" spreadMethod="pad">
      <stop offset="0.0" stop-color="#990000"/>
      <stop offset="1.0" stop-color="#660000"/>
    </radialGradient>
    <radialGradient cx="0" cy="0" gradientTransform="matrix(0.0331, 0.0, 0.0, 0.0331, -8.7, -17.0)" gradientUnits="userSpaceOnUse" id="gradient3" r="819.2" spreadMethod="pad">
      <stop offset="0.0" stop-color="#c8c8c8"/>
      <stop offset="1.0" stop-color="#767676"/>
    </radialGradient>
  </defs>
</svg>
