<?xml version="1.0" encoding="UTF-8" standalone="no"?>
<svg xmlns:ffdec="https://www.free-decompiler.com/flash" xmlns:xlink="http://www.w3.org/1999/xlink" ffdec:objectType="shape" height="37.6px" width="78.25px" xmlns="http://www.w3.org/2000/svg">
  <g transform="matrix(1.0, 0.0, 0.0, 1.0, 38.5, 21.0)">
    <path d="M17.5 -19.75 L16.5 -19.5 7.25 -15.25 7.25 -14.5 7.5 -13.75 8.0 -11.25 8.25 -10.5 8.5 -9.0 8.75 -8.25 10.0 -8.25 23.5 -14.75 17.5 -19.75 M16.5 -21.0 L17.5 -21.0 22.75 -16.75 25.0 -15.5 35.25 -17.0 Q37.1 -18.1 38.55 -14.85 L37.15 -14.15 38.25 -11.35 31.5 -8.0 29.5 -11.5 26.25 -12.0 25.5 -11.5 25.25 -11.25 23.75 -10.0 Q22.5 -8.75 23.25 -3.75 L19.75 -2.0 2.25 6.25 Q1.75 3.5 0.0 2.5 L-2.25 2.0 -2.75 2.25 -3.75 2.5 -4.25 2.75 -5.25 3.75 -6.25 5.5 -6.75 7.5 -6.75 8.75 -6.5 10.0 -6.5 10.25 -6.75 11.0 -10.25 12.5 -17.05 15.8 -16.9 15.5 -17.05 13.35 -17.2 13.65 -16.5 7.25 Q-12.75 2.1 -7.5 -0.75 L-7.75 -1.75 -7.5 -2.5 -7.5 -2.75 -7.25 -4.0 -7.25 -4.25 -5.75 -10.0 -5.5 -10.75 Q5.3 -17.05 16.5 -21.0 M8.25 -7.25 L6.25 -14.5 -3.75 -10.0 -4.25 -9.0 -4.25 -8.25 -4.75 -4.75 -4.75 -4.0 -5.0 -2.5 -5.0 -2.0 -4.75 -1.5 8.25 -7.25" fill="#958d7a" fill-rule="evenodd" stroke="none"/>
    <path d="M17.5 -19.75 L23.5 -14.75 10.0 -8.25 8.75 -8.25 8.5 -9.0 8.25 -10.5 8.0 -11.25 7.5 -13.75 7.25 -14.5 7.25 -15.25 16.5 -19.5 17.5 -19.75" fill="#6d6d6d" fill-rule="evenodd" stroke="none"/>
    <path d="M22.75 -16.75 L35.25 -17.0 25.0 -15.5 22.75 -16.75 M-37.0 6.75 Q-33.55 2.7 -28.0 -1.0 L-7.5 -0.75 Q-12.75 2.1 -16.5 7.25 -26.75 5.95 -37.0 6.75" fill="#767676" fill-rule="evenodd" stroke="none"/>
    <path d="M38.55 -14.85 L38.75 -15.0 39.75 -12.0 38.25 -11.35 37.15 -14.15 38.55 -14.85 M31.5 -8.0 Q31.75 -2.25 29.75 -1.5 L26.75 -0.5 Q21.0 -3.25 25.25 -11.25 L25.5 -11.5 26.25 -12.0 29.5 -11.5 31.5 -8.0" fill="#343434" fill-rule="evenodd" stroke="none"/>
    <path d="M26.75 -0.5 L22.0 -0.5 20.25 -1.0 19.75 -2.0 23.25 -3.75 Q22.5 -8.75 23.75 -10.0 L25.25 -11.25 Q21.0 -3.25 26.75 -0.5" fill="#4c4c4c" fill-rule="evenodd" stroke="none"/>
    <path d="M2.25 6.25 Q2.75 14.75 -3.0 14.25 L-4.5 13.5 -6.5 10.25 -6.5 10.0 -6.75 8.75 -6.75 7.5 -6.25 5.5 -5.25 3.75 -4.25 2.75 -3.75 2.5 -2.75 2.25 -2.25 2.0 0.0 2.5 Q1.75 3.5 2.25 6.25" fill="#363636" fill-rule="evenodd" stroke="none"/>
    <path d="M-3.0 14.25 L-7.5 14.25 -9.25 13.75 -10.25 12.5 -6.75 11.0 -6.5 10.25 -4.5 13.5 -3.0 14.25" fill="#434343" fill-rule="evenodd" stroke="none"/>
    <path d="M-38.1 14.2 L-37.0 6.75 Q-26.75 5.95 -16.5 7.25 L-17.2 13.65 -18.0 14.8 -18.1 14.7 -38.1 14.2 M-18.45 9.25 L-21.95 9.0 -22.6 13.05 -19.0 13.1 -18.45 9.25 M-36.3 8.65 L-36.95 12.7 -33.35 12.75 -32.8 8.9 -36.3 8.65" fill="#bcbcbc" fill-rule="evenodd" stroke="none"/>
    <path d="M-28.0 -1.0 L-27.25 -4.75 -27.25 -2.5 -21.5 -2.0 -20.25 -1.75 -7.75 -1.75 -7.5 -0.75 -28.0 -1.0" fill="#b1b1b1" fill-rule="evenodd" stroke="none"/>
    <path d="M-5.75 -10.0 L-7.25 -4.25 -6.5 -10.0 -5.75 -10.0" fill="#5d5d5d" fill-rule="evenodd" stroke="none"/>
    <path d="M8.25 -7.25 L-4.75 -1.5 -5.0 -2.0 -5.0 -2.5 -4.75 -4.0 -4.75 -4.75 -4.25 -8.25 -4.25 -9.0 -3.75 -10.0 6.25 -14.5 8.25 -7.25" fill="#707070" fill-rule="evenodd" stroke="none"/>
    <path d="M-27.25 -4.75 L-27.25 -5.25 -27.0 -6.0 -27.0 -6.75 -26.75 -7.25 -26.75 -8.25 -26.25 -9.75 -27.25 -2.5 -27.25 -4.75" fill="#646464" fill-rule="evenodd" stroke="none"/>
    <path d="M-7.25 -4.25 L-7.25 -4.0 -7.5 -2.75 -7.5 -2.5 -7.75 -1.75 -20.25 -1.75 -21.5 -2.0 -27.25 -2.5 -26.25 -9.75 Q-17.75 -11.4 -6.5 -10.0 L-7.25 -4.25" fill="url(#gradient0)" fill-rule="evenodd" stroke="none"/>
    <path d="M-18.45 9.25 L-19.0 13.1 -22.6 13.05 -21.95 9.0 -18.45 9.25" fill="url(#gradient1)" fill-rule="evenodd" stroke="none"/>
    <path d="M-36.3 8.65 L-32.8 8.9 -33.35 12.75 -36.95 12.7 -36.3 8.65" fill="url(#gradient2)" fill-rule="evenodd" stroke="none"/>
    <path d="M-17.05 15.8 L-17.55 16.6 -37.95 15.45 -38.5 15.15 -38.3 14.2 -38.1 14.2 -18.1 14.7 -18.0 14.8 -17.2 13.65 -17.05 13.35 -16.9 15.5 -17.05 15.8" fill="#333333" fill-rule="evenodd" stroke="none"/>
    <path d="M-25.75 -10.75 Q-15.4 -16.75 -4.25 -20.5 L16.5 -21.0 Q5.3 -17.05 -5.5 -10.75 -15.6 -11.75 -25.75 -10.75" fill="url(#gradient3)" fill-rule="evenodd" stroke="none"/>
    <path d="M-26.25 -9.75 L-25.75 -10.75 Q-15.6 -11.75 -5.5 -10.75 L-5.75 -10.0 -6.5 -10.0 Q-17.75 -11.4 -26.25 -9.75" fill="#5b5c5c" fill-rule="evenodd" stroke="none"/>
  </g>
  <defs>
    <radialGradient cx="0" cy="0" gradientTransform="matrix(0.0172, 0.0, 0.0, 0.0172, -14.6, -8.7)" gradientUnits="userSpaceOnUse" id="gradient0" r="819.2" spreadMethod="pad">
      <stop offset="0.0" stop-color="#c4ced5"/>
      <stop offset="1.0" stop-color="#555555"/>
    </radialGradient>
    <radialGradient cx="0" cy="0" gradientTransform="matrix(0.0049, 0.0, 0.0, 0.0049, -20.9, 9.55)" gradientUnits="userSpaceOnUse" id="gradient1" r="819.2" spreadMethod="pad">
      <stop offset="0.0" stop-color="#990000"/>
      <stop offset="1.0" stop-color="#660000"/>
    </radialGradient>
    <radialGradient cx="0" cy="0" gradientTransform="matrix(0.0056, 0.0, 0.0, 0.0056, -36.0, 9.0)" gradientUnits="userSpaceOnUse" id="gradient2" r="819.2" spreadMethod="pad">
      <stop offset="0.0" stop-color="#990000"/>
      <stop offset="1.0" stop-color="#660000"/>
    </radialGradient>
    <radialGradient cx="0" cy="0" gradientTransform="matrix(0.0413, 0.0, 0.0, 0.0413, -16.8, -14.8)" gradientUnits="userSpaceOnUse" id="gradient3" r="819.2" spreadMethod="pad">
      <stop offset="0.0" stop-color="#c8c8c8"/>
      <stop offset="1.0" stop-color="#767676"/>
    </radialGradient>
  </defs>
</svg>
