<?xml version="1.0" encoding="UTF-8" standalone="no"?>
<svg xmlns:ffdec="https://www.free-decompiler.com/flash" xmlns:xlink="http://www.w3.org/1999/xlink" ffdec:objectType="shape" height="42.25px" width="70.25px" xmlns="http://www.w3.org/2000/svg">
  <g transform="matrix(1.0, 0.0, 0.0, 1.0, 37.0, 26.25)">
    <path d="M-8.75 -21.25 L-8.5 -21.35 Q0.2 -25.15 9.75 -26.25 L11.0 -25.25 2.5 -23.0 2.75 -21.75 1.75 -22.75 -0.25 -22.5 -6.75 -20.75 -5.5 -13.0 -1.0 -14.25 -0.75 -14.25 4.75 -15.75 5.25 -16.25 6.0 -16.25 7.0 -16.5 7.25 -16.5 17.5 -19.5 17.25 -20.5 Q18.25 -18.75 29.75 -18.5 L31.3 -16.1 30.1 -15.8 32.1 -12.65 27.5 -11.25 24.25 -15.75 Q20.5 -17.25 20.25 -15.75 L19.25 -13.75 Q21.0 -9.75 20.25 -9.0 L4.0 -4.0 Q-1.75 -13.25 -4.75 -7.0 L-4.75 -5.0 -3.75 -2.0 -4.25 -1.5 -12.25 0.8 -12.25 0.2 -13.4 -2.05 -13.45 -1.45 -14.5 -6.75 Q-13.0 -9.0 -11.5 -10.2 L-9.5 -11.5 -9.25 -11.5 -8.75 -12.0 -7.75 -12.5 -8.25 -14.0 -8.5 -15.5 -8.5 -20.25 -8.75 -21.25" fill="#454138" fill-rule="evenodd" stroke="none"/>
    <path d="M6.0 -16.25 L5.25 -16.25 2.75 -21.75 2.5 -23.0 6.0 -16.25" fill="#898989" fill-rule="evenodd" stroke="none"/>
    <path d="M17.25 -20.5 L17.5 -19.5 7.25 -16.5 7.0 -16.5 6.0 -16.25 2.5 -23.0 11.0 -25.25 15.75 -21.5 16.0 -21.5 16.75 -20.75 17.25 -20.5" fill="#606060" fill-rule="evenodd" stroke="none"/>
    <path d="M-8.75 -21.25 L-8.5 -20.25 -9.25 -20.5 -10.0 -20.5 -10.05 -20.35 -10.25 -20.0 -10.75 -20.0 -10.75 -19.75 -12.75 -18.75 -13.0 -18.25 -13.5 -18.25 -13.5 -18.0 -15.5 -17.0 -15.75 -16.5 -16.25 -16.5 -16.25 -16.25 -18.25 -15.25 -18.5 -14.75 -19.0 -14.75 -19.0 -14.5 -21.0 -13.5 -21.25 -13.0 -21.75 -13.0 -21.75 -12.75 -23.75 -11.75 -24.0 -11.25 -24.5 -11.25 -24.5 -11.0 -26.5 -10.0 -26.75 -9.5 -27.25 -9.5 -27.25 -9.25 -29.25 -8.25 -28.8 -8.5 Q-20.6 -15.2 -10.55 -20.1 L-10.0 -20.5 -8.75 -21.25 M-8.25 -14.0 L-7.75 -12.5 -8.75 -12.0 -9.25 -11.5 -9.5 -11.5 -11.5 -10.2 -30.0 1.25 -30.0 -7.25 -29.25 -8.25 -29.5 -7.75 -30.0 -7.25 -29.25 0.0 -27.25 -1.25 -26.75 -1.5 -25.25 -2.5 -24.75 -2.75 -23.25 -3.75 -22.75 -4.0 -21.25 -5.0 -20.75 -5.25 -19.25 -6.25 -18.75 -6.5 -17.25 -7.5 -16.75 -7.75 -15.25 -8.75 -14.75 -9.0 -13.25 -10.0 -12.75 -10.25 -11.25 -11.25 -10.75 -11.5 -9.25 -12.5 -8.75 -12.75 -8.5 -13.0 -8.25 -14.0" fill="#a5a5a5" fill-rule="evenodd" stroke="none"/>
    <path d="M5.25 -16.25 L4.75 -15.75 -0.75 -14.25 -1.0 -14.25 -5.5 -13.0 -6.75 -20.75 -0.25 -22.5 1.75 -22.75 2.75 -21.75 5.25 -16.25" fill="#616161" fill-rule="evenodd" stroke="none"/>
    <path d="M20.25 -15.75 Q20.5 -17.25 24.25 -15.75 L27.5 -11.25 28.0 -10.0 28.25 -7.25 27.0 -6.0 Q20.75 -5.75 20.25 -15.75" fill="#1c1c1c" fill-rule="evenodd" stroke="none"/>
    <path d="M20.25 -9.0 Q21.0 -9.75 19.25 -13.75 L20.25 -15.75 Q20.75 -5.75 27.0 -6.0 L21.0 -2.5 17.75 -3.75 16.0 -6.25 20.25 -9.0" fill="#575757" fill-rule="evenodd" stroke="none"/>
    <path d="M-4.75 -5.0 L-4.75 -7.0 Q-1.75 -13.25 4.0 -4.0 L4.5 0.75 3.5 1.75 3.0 2.0 Q1.5 2.5 -2.0 -0.25 L-4.75 -5.0" fill="#1d1d1d" fill-rule="evenodd" stroke="none"/>
    <path d="M-4.25 -1.5 L-3.75 -2.0 -4.75 -5.0 -2.0 -0.25 Q1.5 2.5 3.0 2.0 L-1.5 5.0 -3.75 5.5 -5.25 5.0 -8.75 1.75 -4.25 -1.5" fill="#494949" fill-rule="evenodd" stroke="none"/>
    <path d="M-14.5 -6.75 L-13.45 -1.45 -13.7 0.2 -13.8 0.15 -13.95 0.2 -35.95 13.0 -36.0 13.2 -37.0 7.25 Q-25.75 -0.85 -14.5 -6.75 M-18.9 -2.4 L-18.5 0.75 -14.7 -1.55 -15.25 -4.65 -18.9 -2.4 M-32.55 5.7 L-36.2 7.95 -35.8 11.1 -32.0 8.8 -32.55 5.7" fill="#aaaaaa" fill-rule="evenodd" stroke="none"/>
    <path d="M-11.5 -10.2 Q-13.0 -9.0 -14.5 -6.75 -25.75 -0.85 -37.0 7.25 -34.0 3.75 -30.0 1.25 L-11.5 -10.2" fill="#767676" fill-rule="evenodd" stroke="none"/>
    <path d="M10.0 0.25 L10.0 4.0 8.75 4.75 5.5 4.0 3.5 1.75 4.5 0.75 8.75 -0.75 10.0 0.25" fill="#262626" fill-rule="evenodd" stroke="none"/>
    <path d="M8.75 4.75 L3.75 8.0 Q0.75 8.25 -1.5 5.0 L3.0 2.0 3.5 1.75 5.5 4.0 8.75 4.75" fill="#5e5e5e" fill-rule="evenodd" stroke="none"/>
    <path d="M-14.0 8.0 L-14.25 11.75 -15.5 12.5 -19.5 11.5 -21.5 9.25 -15.5 7.0 -14.5 6.75 -14.0 8.0" fill="#272727" fill-rule="evenodd" stroke="none"/>
    <path d="M-15.5 12.5 L-20.75 16.0 Q-25.25 16.25 -27.0 12.25 L-21.5 9.25 -19.5 11.5 -15.5 12.5" fill="#535353" fill-rule="evenodd" stroke="none"/>
    <path d="M32.1 -12.65 L30.1 -15.8 31.3 -16.1 33.25 -13.0 32.1 -12.65" fill="#343434" fill-rule="evenodd" stroke="none"/>
    <path d="M-8.5 -20.25 L-8.5 -15.5 -8.25 -14.0 -8.5 -13.0 -8.75 -12.75 -9.25 -12.5 -10.75 -11.5 -11.25 -11.25 -12.75 -10.25 -13.25 -10.0 -14.75 -9.0 -15.25 -8.75 -16.75 -7.75 -17.25 -7.5 -18.75 -6.5 -19.25 -6.25 -20.75 -5.25 -21.25 -5.0 -22.75 -4.0 -23.25 -3.75 -24.75 -2.75 -25.25 -2.5 -26.75 -1.5 -27.25 -1.25 -29.25 0.0 -30.0 -7.25 -29.5 -7.75 -29.25 -8.25 -27.25 -9.25 -27.25 -9.5 -26.75 -9.5 -26.5 -10.0 -24.5 -11.0 -24.5 -11.25 -24.0 -11.25 -23.75 -11.75 -21.75 -12.75 -21.75 -13.0 -21.25 -13.0 -21.0 -13.5 -19.0 -14.5 -19.0 -14.75 -18.5 -14.75 -18.25 -15.25 -16.25 -16.25 -16.25 -16.5 -15.75 -16.5 -15.5 -17.0 -13.5 -18.0 -13.5 -18.25 -13.0 -18.25 -12.75 -18.75 -10.75 -19.75 -10.75 -20.0 -10.25 -20.0 -10.05 -20.35 -10.0 -20.5 -9.25 -20.5 -8.5 -20.25" fill="url(#gradient0)" fill-rule="evenodd" stroke="none"/>
    <path d="M-18.9 -2.4 L-15.25 -4.65 -14.7 -1.55 -18.5 0.75 -18.9 -2.4" fill="url(#gradient1)" fill-rule="evenodd" stroke="none"/>
    <path d="M-32.55 5.7 L-32.0 8.8 -35.8 11.1 -36.2 7.95 -32.55 5.7" fill="url(#gradient2)" fill-rule="evenodd" stroke="none"/>
    <path d="M-13.45 -1.45 L-13.4 -2.05 -12.25 0.2 -12.25 0.8 -12.35 1.85 -34.05 14.3 -35.25 14.95 -36.05 15.0 -36.3 13.9 -36.0 13.2 -35.95 13.0 -13.95 0.2 -13.8 0.15 -13.7 0.2 -13.45 -1.45" fill="#333333" fill-rule="evenodd" stroke="none"/>
    <path d="M-12.25 0.8 L-4.25 -1.5 -8.75 1.75 -5.25 5.0 -14.0 8.0 -14.5 6.75 -15.5 7.0 -21.5 9.25 -27.0 12.25 -34.05 14.3 -12.35 1.85 -12.25 0.8 M4.0 -4.0 L20.25 -9.0 16.0 -6.25 17.75 -3.75 10.0 0.25 8.75 -0.75 4.5 0.75 4.0 -4.0 M27.5 -11.25 L32.1 -12.65 33.25 -13.0 28.0 -10.0 27.5 -11.25" fill="#000000" fill-rule="evenodd" stroke="none"/>
  </g>
  <defs>
    <radialGradient cx="0" cy="0" gradientTransform="matrix(0.0212, 0.0, 0.0, 0.0212, -23.1, -10.8)" gradientUnits="userSpaceOnUse" id="gradient0" r="819.2" spreadMethod="pad">
      <stop offset="0.0" stop-color="#c4ced5"/>
      <stop offset="1.0" stop-color="#555555"/>
    </radialGradient>
    <radialGradient cx="0" cy="0" gradientTransform="matrix(0.0048, 0.0, 0.0, 0.0048, -18.3, -2.25)" gradientUnits="userSpaceOnUse" id="gradient1" r="819.2" spreadMethod="pad">
      <stop offset="0.0" stop-color="#990000"/>
      <stop offset="1.0" stop-color="#660000"/>
    </radialGradient>
    <radialGradient cx="0" cy="0" gradientTransform="matrix(0.0052, 0.0, 0.0, 0.0052, -36.05, 8.15)" gradientUnits="userSpaceOnUse" id="gradient2" r="819.2" spreadMethod="pad">
      <stop offset="0.0" stop-color="#990000"/>
      <stop offset="1.0" stop-color="#660000"/>
    </radialGradient>
  </defs>
</svg>
