<?xml version="1.0" encoding="UTF-8" standalone="no"?>
<svg xmlns:ffdec="https://www.free-decompiler.com/flash" xmlns:xlink="http://www.w3.org/1999/xlink" ffdec:objectType="shape" height="4.8px" width="4.75px" xmlns="http://www.w3.org/2000/svg">
  <g transform="matrix(1.0, 0.0, 0.0, 1.0, 4.25, 2.1)">
    <path d="M0.45 -0.05 L0.25 0.35 -0.15 0.65 Q-0.6 0.65 -0.6 0.1 -0.6 -0.6 0.0 -0.6 0.45 -0.6 0.45 -0.05" fill="#333333" fill-rule="evenodd" stroke="none"/>
    <path d="M0.45 -0.05 L0.25 0.35 -0.15 0.65 Q-0.6 0.65 -0.6 0.1 -0.6 -0.6 0.0 -0.6 0.45 -0.6 0.45 -0.05 Z" fill="none" stroke="#000000" stroke-linecap="round" stroke-linejoin="round" stroke-width="0.1"/>
    <path d="M-4.2 2.55 Q-4.3 2.2 -4.0 2.2 L-3.75 2.4 Q-3.7 2.6 -3.8 2.65 L-3.9 2.7 -4.1 2.65 -4.2 2.55" fill="#333333" fill-rule="evenodd" stroke="none"/>
    <path d="M-3.1 -1.3 Q-3.45 -1.4 -3.35 -1.8 -3.3 -2.1 -2.8 -2.0 -2.55 -1.85 -2.7 -1.5 L-2.7 -1.45 -2.85 -1.3 -3.1 -1.3" fill="#333333" fill-rule="evenodd" stroke="none"/>
    <path d="M-3.1 -1.3 Q-3.45 -1.4 -3.35 -1.8 -3.3 -2.1 -2.8 -2.0 -2.55 -1.85 -2.7 -1.5 L-2.7 -1.45 -2.85 -1.3 -3.1 -1.3 Z" fill="none" stroke="#000000" stroke-linecap="round" stroke-linejoin="round" stroke-width="0.1"/>
  </g>
</svg>
