<?xml version="1.0" encoding="UTF-8" standalone="no"?>
<svg xmlns:ffdec="https://www.free-decompiler.com/flash" xmlns:xlink="http://www.w3.org/1999/xlink" ffdec:objectType="shape" height="45.45px" width="63.9px" xmlns="http://www.w3.org/2000/svg">
  <g transform="matrix(1.0, 0.0, 0.0, 1.0, 36.25, 30.0)">
    <path d="M14.25 -17.75 L13.5 -17.0 14.25 -15.5 16.5 -13.25 12.5 -7.75 18.5 -4.0 19.75 -4.25 21.25 -6.0 24.0 -10.0 23.5 -11.75 17.25 -17.0 14.25 -17.75 M4.25 -14.0 L3.5 -16.0 -4.5 -22.0 -6.75 -22.25 -7.0 -21.5 -4.5 -17.75 -8.75 -11.75 -4.75 -8.75 Q-1.25 -6.75 -0.5 -7.5 L4.25 -14.0 M-0.25 -22.5 L10.5 -20.75 21.25 -15.75 25.05 -12.75 27.25 -11.0 9.75 11.5 7.8 11.7 6.75 11.75 8.5 9.5 Q7.5 6.0 6.25 6.25 L1.5 6.0 -2.25 10.75 -4.25 10.5 -14.5 9.5 -12.5 6.5 -12.25 5.75 -13.75 3.5 -20.0 3.0 -24.25 8.25 -26.0 8.25 -31.5 7.65 -10.5 -17.75 -11.0 -19.45 -13.4 -20.9 -15.75 -24.25 -12.25 -25.0 -11.25 -25.25 -12.25 -26.75 -15.0 -30.0 -13.0 -29.75 -9.5 -24.75 -0.25 -22.5" fill="#000000" fill-rule="evenodd" stroke="none"/>
    <path d="M0.5 -23.0 L10.5 -20.75 -0.25 -22.5 0.5 -23.0 M-13.0 -29.75 L-9.25 -25.25 -0.5 -23.25 -0.25 -22.5 -9.5 -24.75 -13.0 -29.75" fill="#555555" fill-rule="evenodd" stroke="none"/>
    <path d="M10.5 -20.75 L0.5 -23.0 -0.5 -23.25 -9.25 -25.25 -13.0 -29.75 1.75 -26.5 10.5 -20.75" fill="#575757" fill-rule="evenodd" stroke="none"/>
    <path d="M0.5 -23.0 L-0.25 -22.5 -0.5 -23.25 0.5 -23.0" fill="#585858" fill-rule="evenodd" stroke="none"/>
    <path d="M24.0 -10.0 L18.25 -13.0 Q13.75 -16.75 14.25 -17.75 L17.25 -17.0 23.5 -11.75 24.0 -10.0 M-7.0 -21.5 L-6.75 -22.25 -4.5 -22.0 3.5 -16.0 4.25 -14.0 Q2.5 -13.75 -2.25 -17.0 L-7.0 -21.5" fill="#080808" fill-rule="evenodd" stroke="none"/>
    <path d="M24.0 -10.0 L21.25 -6.0 19.75 -4.25 18.5 -4.0 12.5 -7.75 16.5 -13.25 14.25 -15.5 13.5 -17.0 14.25 -17.75 Q13.75 -16.75 18.25 -13.0 L24.0 -10.0" fill="#484848" fill-rule="evenodd" stroke="none"/>
    <path d="M4.25 -14.0 L-0.5 -7.5 Q-1.25 -6.75 -4.75 -8.75 L-8.75 -11.75 -4.5 -17.75 -7.0 -21.5 -2.25 -17.0 Q2.5 -13.75 4.25 -14.0" fill="#3e3e3e" fill-rule="evenodd" stroke="none"/>
    <path d="M-33.45 6.5 L-36.25 2.5 -33.0 -2.25 -32.25 -3.0 -15.75 -24.25 -13.4 -20.9 -12.85 -18.55 -13.05 -18.45 -33.45 6.5 M-32.05 -2.05 L-35.3 2.45 -34.05 4.4 -30.0 -0.95 -32.05 -2.05 M-19.1 -18.1 L-18.2 -15.9 -14.1 -20.35 -15.5 -22.6 -19.1 -18.1" fill="#9a9a9a" fill-rule="evenodd" stroke="none"/>
    <path d="M-33.0 -2.25 L-34.0 -5.25 -32.25 -3.0 -33.0 -2.25 M-15.25 -29.5 L-15.0 -30.0 -12.25 -26.75 -11.25 -25.25 -12.25 -25.0 -15.25 -29.5" fill="#9c9c9c" fill-rule="evenodd" stroke="none"/>
    <path d="M8.5 9.5 L5.75 8.75 1.5 6.0 6.25 6.25 Q7.5 6.0 8.5 9.5 M-20.0 3.0 L-13.75 3.5 -12.25 5.75 -12.5 6.5 -15.0 6.25 -20.0 3.0" fill="#0c0c0c" fill-rule="evenodd" stroke="none"/>
    <path d="M-14.5 9.5 L-18.0 13.25 Q-20.5 13.0 -26.0 8.25 L-24.25 8.25 -20.0 3.0 -15.0 6.25 -12.5 6.5 -14.5 9.5" fill="#454545" fill-rule="evenodd" stroke="none"/>
    <path d="M6.75 11.75 Q4.25 19.75 -4.25 10.5 L-2.25 10.75 1.5 6.0 5.75 8.75 8.5 9.5 6.75 11.75" fill="#4f4f4f" fill-rule="evenodd" stroke="none"/>
    <path d="M25.05 -12.75 L25.35 -12.9 27.65 -11.05 9.7 12.0 7.5 12.1 7.8 11.7 9.75 11.5 27.25 -11.0 25.05 -12.75" fill="#343434" fill-rule="evenodd" stroke="none"/>
    <path d="M-34.0 -5.25 Q-25.55 -18.7 -15.75 -29.0 L-15.25 -29.5 -12.25 -25.0 -15.75 -24.25 -32.25 -3.0 -34.0 -5.25" fill="url(#gradient0)" fill-rule="evenodd" stroke="none"/>
    <path d="M-19.1 -18.1 L-15.5 -22.6 -14.1 -20.35 -18.2 -15.9 -19.1 -18.1" fill="url(#gradient1)" fill-rule="evenodd" stroke="none"/>
    <path d="M-32.05 -2.05 L-30.0 -0.95 -34.05 4.4 -35.3 2.45 -32.05 -2.05" fill="url(#gradient2)" fill-rule="evenodd" stroke="none"/>
    <path d="M-31.5 7.65 L-31.95 8.15 -32.9 8.65 -33.65 7.75 -33.65 6.75 -33.45 6.5 -13.05 -18.45 -12.85 -18.55 -13.4 -20.9 -11.0 -19.45 -10.5 -17.75 -31.5 7.65" fill="#333333" fill-rule="evenodd" stroke="none"/>
  </g>
  <defs>
    <radialGradient cx="0" cy="0" gradientTransform="matrix(0.0347, 0.0, 0.0, 0.0347, -32.2, -6.7)" gradientUnits="userSpaceOnUse" id="gradient0" r="819.2" spreadMethod="pad">
      <stop offset="0.0" stop-color="#c4ced5"/>
      <stop offset="1.0" stop-color="#555555"/>
    </radialGradient>
    <radialGradient cx="0" cy="0" gradientTransform="matrix(0.0052, 0.0, 0.0, 0.0052, -16.8, -19.9)" gradientUnits="userSpaceOnUse" id="gradient1" r="819.2" spreadMethod="pad">
      <stop offset="0.0" stop-color="#990000"/>
      <stop offset="1.0" stop-color="#660000"/>
    </radialGradient>
    <radialGradient cx="0" cy="0" gradientTransform="matrix(0.0047, 0.0, 0.0, 0.0047, -33.4, 0.85)" gradientUnits="userSpaceOnUse" id="gradient2" r="819.2" spreadMethod="pad">
      <stop offset="0.0" stop-color="#990000"/>
      <stop offset="1.0" stop-color="#660000"/>
    </radialGradient>
  </defs>
</svg>
