<?xml version="1.0" encoding="UTF-8" standalone="no"?>
<svg xmlns:ffdec="https://www.free-decompiler.com/flash" xmlns:xlink="http://www.w3.org/1999/xlink" ffdec:objectType="shape" height="54.6px" width="60.5px" xmlns="http://www.w3.org/2000/svg">
  <g transform="matrix(1.0, 0.0, 0.0, 1.0, 36.5, 34.75)">
    <path d="M-35.25 -2.5 L-36.5 -3.25 -36.0 -5.0 -35.75 -5.25 Q-29.75 -20.5 -22.25 -30.75 L-22.25 -31.0 -21.25 -33.0 -20.0 -34.75 -16.5 -33.35 -32.7 -1.25 -35.25 -2.5 M-22.6 -28.7 L-21.1 -27.65 -18.15 -33.35 -20.3 -33.7 -22.6 -28.7 M-33.05 -8.6 L-35.35 -3.6 -33.85 -2.55 -30.9 -8.25 -33.05 -8.6" fill="#939393" fill-rule="evenodd" stroke="none"/>
    <path d="M-31.25 -0.25 L-30.75 0.25 -32.7 -0.95 -31.25 -0.25 M-15.0 7.5 L-10.25 10.0 -10.0 10.5 -11.0 10.25 -15.25 8.0 -15.0 7.5 M-35.25 -2.5 L-32.7 -1.25 -32.8 -1.0 -35.25 -2.5" fill="#555555" fill-rule="evenodd" stroke="none"/>
    <path d="M1.0 -22.5 L-2.0 -16.25 -3.0 -16.5 -7.25 -18.75 -8.75 -19.75 -10.75 -20.75 -7.25 -28.0 -10.75 -30.25 0.25 -25.25 Q2.75 -24.75 1.0 -22.5" fill="#303030" fill-rule="evenodd" stroke="none"/>
    <path d="M20.25 -10.0 L17.5 -4.5 16.5 -4.75 12.5 -7.0 9.75 -9.0 13.0 -15.0 9.25 -17.25 11.0 -17.25 20.25 -12.5 21.0 -12.0 20.25 -10.0" fill="#414141" fill-rule="evenodd" stroke="none"/>
    <path d="M-28.0 1.75 L-23.5 3.25 -19.5 -3.5 -11.75 0.5 -15.0 7.5 -15.25 8.0 -16.0 8.5 -27.25 2.75 -28.0 1.75 M7.55 18.65 L9.25 19.25 23.0 -7.0 23.5 -8.25 21.3 -9.45 21.5 -9.6 24.0 -8.25 9.3 19.85 7.6 19.0 7.55 18.65" fill="#343434" fill-rule="evenodd" stroke="none"/>
    <path d="M-6.0 12.25 L-2.0 13.75 1.5 7.75 8.75 11.5 5.75 18.0 4.25 18.75 Q-6.0 14.25 -6.0 12.25" fill="#454545" fill-rule="evenodd" stroke="none"/>
    <path d="M-22.6 -28.7 L-20.3 -33.7 -18.15 -33.35 -21.1 -27.65 -22.6 -28.7" fill="url(#gradient0)" fill-rule="evenodd" stroke="none"/>
    <path d="M-33.05 -8.6 L-30.9 -8.25 -33.85 -2.55 -35.35 -3.6 -33.05 -8.6" fill="url(#gradient1)" fill-rule="evenodd" stroke="none"/>
    <path d="M-14.5 -32.45 L-31.25 -0.25 -32.7 -0.95 -32.8 -1.0 -32.7 -1.25 -16.5 -33.35 -16.45 -33.35 -14.35 -32.75 -14.5 -32.45" fill="#333333" fill-rule="evenodd" stroke="none"/>
    <path d="M1.0 -22.5 L9.25 -17.25 13.0 -15.0 9.75 -9.0 12.5 -7.0 16.5 -4.75 17.5 -4.5 20.25 -10.0 21.3 -9.45 23.5 -8.25 23.0 -7.0 9.25 19.25 7.55 18.65 5.75 18.0 8.75 11.5 1.5 7.75 -2.0 13.75 -6.0 12.25 Q-8.1 11.15 -10.25 10.0 L-15.0 7.5 -11.75 0.5 -19.5 -3.5 -23.5 3.25 -28.0 1.75 -30.75 0.25 -31.25 -0.25 -14.5 -32.45 -10.75 -30.25 -7.25 -28.0 -10.75 -20.75 -8.75 -19.75 -7.25 -18.75 -3.0 -16.5 -2.0 -16.25 1.0 -22.5" fill="#000000" fill-rule="evenodd" stroke="none"/>
  </g>
  <defs>
    <radialGradient cx="0" cy="0" gradientTransform="matrix(0.0069, 0.0, 0.0, 0.0069, -20.1, -33.2)" gradientUnits="userSpaceOnUse" id="gradient0" r="819.2" spreadMethod="pad">
      <stop offset="0.0" stop-color="#990000"/>
      <stop offset="1.0" stop-color="#660000"/>
    </radialGradient>
    <radialGradient cx="0" cy="0" gradientTransform="matrix(0.0069, 0.0, 0.0, 0.0069, -32.95, -8.15)" gradientUnits="userSpaceOnUse" id="gradient1" r="819.2" spreadMethod="pad">
      <stop offset="0.0" stop-color="#990000"/>
      <stop offset="1.0" stop-color="#660000"/>
    </radialGradient>
  </defs>
</svg>
