<?xml version="1.0" encoding="UTF-8" standalone="no"?>
<svg xmlns:ffdec="https://www.free-decompiler.com/flash" xmlns:xlink="http://www.w3.org/1999/xlink" ffdec:objectType="shape" height="58.25px" width="56.9px" xmlns="http://www.w3.org/2000/svg">
  <g transform="matrix(1.0, 0.0, 0.0, 1.0, 34.5, 37.0)">
    <path d="M1.0 -24.0 L-1.25 -19.0 -5.0 -21.5 -9.0 -23.0 Q-10.5 -24.25 -6.75 -30.25 L-8.25 -31.75 0.5 -28.25 Q3.25 -28.0 1.0 -24.0" fill="#2b2b2b" fill-rule="evenodd" stroke="none"/>
    <path d="M-1.25 -19.0 L-3.5 -18.75 -9.0 -23.0 -5.0 -21.5 -1.25 -19.0" fill="#5d5d5d" fill-rule="evenodd" stroke="none"/>
    <path d="M10.5 -8.0 Q8.75 -9.25 12.25 -14.5 L10.25 -16.5 18.75 -13.25 Q21.5 -13.0 19.25 -9.0 L17.25 -4.5 14.0 -6.75 10.5 -8.0" fill="#3c3c3c" fill-rule="evenodd" stroke="none"/>
    <path d="M10.5 -8.0 L14.0 -6.75 17.25 -4.5 15.0 -4.5 10.5 -8.0 M-8.25 12.25 L-9.0 12.75 -10.5 11.75 -10.75 11.75 -18.5 6.25 -19.0 6.0 -18.75 5.5 -8.25 12.25 M-24.0 4.5 L-24.5 4.25 -25.25 3.75 -24.0 4.5 M-32.5 -1.0 L-33.0 -1.25 -33.0 -1.75 -28.25 -0.25 -32.5 -1.0 M-34.0 -3.75 L-33.5 -5.0 -31.5 -3.25 -32.25 -3.25 -32.75 -3.5 -33.75 -3.75 -34.0 -3.75" fill="#555555" fill-rule="evenodd" stroke="none"/>
    <path d="M-33.5 -5.0 Q-28.15 -22.35 -19.75 -37.0 L-15.25 -36.35 -29.1 -4.15 -33.5 -5.0 M-19.55 -36.35 L-21.85 -30.75 -20.35 -30.55 -17.85 -36.55 -19.55 -36.35 M-30.8 -5.45 L-28.3 -11.45 -30.0 -11.25 -32.3 -5.65 -30.8 -5.45" fill="#939393" fill-rule="evenodd" stroke="none"/>
    <path d="M-27.8 -3.7 L-21.25 0.75 -24.75 0.0 -25.25 1.0 -28.25 -0.25 -33.0 -1.75 -34.0 -2.5 -30.25 -2.0 -31.25 -3.25 -31.5 -3.25 -33.5 -5.0 -29.1 -4.15 -28.25 -4.0 -27.8 -3.7 M-12.75 6.25 L-1.25 14.0 -4.25 13.5 -4.75 14.0 -8.25 12.25 -18.75 5.5 -20.5 3.75 -12.75 6.25 M7.5 19.5 L8.4 20.4 7.75 20.45 4.25 19.0 6.75 19.5 7.5 19.5" fill="#e7dcbe" fill-rule="evenodd" stroke="none"/>
    <path d="M-34.0 -2.5 L-34.5 -2.75 -34.0 -3.75 -33.75 -3.75 -32.75 -3.5 -32.25 -3.25 -31.5 -3.25 -31.25 -3.25 -30.25 -2.0 -34.0 -2.5" fill="#9d9d9d" fill-rule="evenodd" stroke="none"/>
    <path d="M-25.25 3.75 L-32.5 -1.0 -28.25 -0.25 -20.5 5.5 -20.75 5.5 -22.75 4.75 -23.25 4.5 -24.0 4.5 -25.25 3.75" fill="#797979" fill-rule="evenodd" stroke="none"/>
    <path d="M-28.25 -0.25 L-25.25 1.0 -20.5 3.75 -18.75 5.5 -19.0 6.0 -19.25 6.0 -19.75 5.75 -20.0 5.75 -20.5 5.5 -28.25 -0.25" fill="#565656" fill-rule="evenodd" stroke="none"/>
    <path d="M-21.25 0.75 Q-19.25 1.0 -17.5 -5.75 L-11.5 -3.5 -9.5 -2.25 -9.25 -1.0 -12.75 6.25 -18.25 3.0 -25.25 1.0 -24.75 0.0 -21.25 0.75" fill="#2e2e2e" fill-rule="evenodd" stroke="none"/>
    <path d="M-25.25 1.0 L-18.25 3.0 -12.75 6.25 -20.5 3.75 -25.25 1.0" fill="#515151" fill-rule="evenodd" stroke="none"/>
    <path d="M-10.75 11.75 L-17.75 8.75 -24.0 4.5 -23.25 4.5 -22.75 4.75 -20.75 5.5 -20.5 5.5 -20.0 5.75 -19.75 5.75 -19.25 6.0 -19.0 6.0 -18.5 6.25 -10.75 11.75" fill="#777777" fill-rule="evenodd" stroke="none"/>
    <path d="M-1.25 14.0 Q1.25 14.75 2.5 8.5 L8.0 10.5 10.25 12.0 7.5 19.5 6.75 19.5 Q6.25 18.0 -1.5 15.25 L-4.5 14.75 -4.75 14.0 -4.25 13.5 -1.25 14.0" fill="#404040" fill-rule="evenodd" stroke="none"/>
    <path d="M4.25 19.0 L4.0 19.0 3.75 18.75 -4.5 14.75 -1.5 15.25 Q6.25 18.0 6.75 19.5 L4.25 19.0" fill="#464646" fill-rule="evenodd" stroke="none"/>
    <path d="M8.4 20.4 L9.85 20.3 11.0 21.0 22.25 -6.25 22.4 -5.75 11.25 21.25 8.55 21.15 7.6 20.5 7.75 20.45 8.4 20.4" fill="#343434" fill-rule="evenodd" stroke="none"/>
    <path d="M-30.8 -5.45 L-32.3 -5.65 -30.0 -11.25 -28.3 -11.45 -30.8 -5.45" fill="url(#gradient0)" fill-rule="evenodd" stroke="none"/>
    <path d="M-19.55 -36.35 L-17.85 -36.55 -20.35 -30.55 -21.85 -30.75 -19.55 -36.35" fill="url(#gradient1)" fill-rule="evenodd" stroke="none"/>
    <path d="M-13.85 -35.8 L-27.8 -3.7 -28.25 -4.0 -29.1 -4.15 -15.25 -36.35 -15.2 -36.35 -14.5 -36.25 -13.85 -35.8" fill="#333333" fill-rule="evenodd" stroke="none"/>
    <path d="M10.25 -16.5 L12.25 -14.5 Q8.75 -9.25 10.5 -8.0 L15.0 -4.5 17.25 -4.5 19.25 -9.0 22.25 -6.25 11.0 21.0 9.85 20.3 8.4 20.4 7.5 19.5 10.25 12.0 8.0 10.5 2.5 8.5 Q1.25 14.75 -1.25 14.0 L-12.75 6.25 -9.25 -1.0 -9.5 -2.25 -11.5 -3.5 -17.5 -5.75 Q-19.25 1.0 -21.25 0.75 L-27.8 -3.7 -13.85 -35.8 -8.25 -31.75 -6.75 -30.25 Q-10.5 -24.25 -9.0 -23.0 L-3.5 -18.75 -1.25 -19.0 1.0 -24.0 10.25 -16.5" fill="#000000" fill-rule="evenodd" stroke="none"/>
  </g>
  <defs>
    <radialGradient cx="0" cy="0" gradientTransform="matrix(0.0072, 0.0, 0.0, 0.0072, -29.5, -10.85)" gradientUnits="userSpaceOnUse" id="gradient0" r="819.2" spreadMethod="pad">
      <stop offset="0.0" stop-color="#990000"/>
      <stop offset="1.0" stop-color="#660000"/>
    </radialGradient>
    <radialGradient cx="0" cy="0" gradientTransform="matrix(0.007, 0.0, 0.0, 0.007, -19.4, -35.95)" gradientUnits="userSpaceOnUse" id="gradient1" r="819.2" spreadMethod="pad">
      <stop offset="0.0" stop-color="#990000"/>
      <stop offset="1.0" stop-color="#660000"/>
    </radialGradient>
  </defs>
</svg>
