<?xml version="1.0" encoding="UTF-8" standalone="no"?>
<svg xmlns:ffdec="https://www.free-decompiler.com/flash" xmlns:xlink="http://www.w3.org/1999/xlink" ffdec:objectType="shape" height="63.0px" width="54.0px" xmlns="http://www.w3.org/2000/svg">
  <g transform="matrix(1.0, 0.0, 0.0, 1.0, 32.25, 39.75)">
    <path d="M0.75 -25.0 L-0.5 -21.5 -5.0 -24.5 -8.75 -25.5 Q-9.75 -26.5 -6.75 -32.25 L-7.75 -33.5 Q5.5 -31.75 0.75 -25.0" fill="#262626" fill-rule="evenodd" stroke="none"/>
    <path d="M-0.5 -21.5 L-1.0 -20.75 -4.0 -20.75 -8.75 -25.5 -5.0 -24.5 -0.5 -21.5" fill="#636363" fill-rule="evenodd" stroke="none"/>
    <path d="M10.25 -7.75 Q9.0 -8.75 11.75 -13.75 L10.5 -15.5 Q23.0 -14.25 18.5 -7.5 L17.25 -4.25 13.5 -7.0 10.25 -7.75" fill="#353535" fill-rule="evenodd" stroke="none"/>
    <path d="M10.25 -7.75 L13.5 -7.0 17.25 -4.25 14.5 -3.75 10.25 -7.75" fill="#5d5d5d" fill-rule="evenodd" stroke="none"/>
    <path d="M-30.5 -7.25 Q-27.3 -22.75 -19.75 -38.25 -19.5 -39.4 -14.7 -39.25 L-26.15 -7.45 -30.5 -7.25 M-19.1 -37.95 L-21.35 -31.85 -19.5 -31.95 -17.35 -38.15 -19.1 -37.95 M-27.4 -14.05 L-29.65 -7.95 -27.8 -8.05 -25.65 -14.25 -27.4 -14.05" fill="#939393" fill-rule="evenodd" stroke="none"/>
    <path d="M-23.7 -6.4 L-18.0 -1.5 -21.75 -1.75 -22.25 -0.75 Q-21.75 1.75 -17.25 3.0 L-10.75 4.25 1.5 14.75 -2.0 14.5 -2.5 16.25 -2.75 16.25 -6.5 14.25 -16.0 6.25 -16.5 6.0 -25.25 -1.5 -25.75 -0.75 -31.0 -1.0 -32.25 -2.0 -27.75 -2.25 -27.4 -2.35 -27.35 -2.35 Q-28.95 -3.45 -30.5 -7.25 L-26.15 -7.45 -25.05 -6.15 -23.7 -6.4 M8.25 20.25 L10.75 22.55 9.4 22.7 6.0 21.75 0.5 18.25 0.75 18.25 8.25 20.25" fill="#f6f0d4" fill-rule="evenodd" stroke="none"/>
    <path d="M-6.5 14.25 L-7.5 14.25 -16.25 7.0 -22.75 5.75 -23.5 5.0 -17.5 6.25 -25.75 -0.75 -25.25 -1.5 -16.5 6.0 -16.0 6.25 -6.5 14.25 M-30.5 -0.5 L-31.0 -1.0 -25.75 -0.75 -30.5 -0.5 M-32.0 -3.0 L-30.5 -7.25 Q-28.95 -3.45 -27.35 -2.35 L-27.4 -2.35 -32.0 -3.0" fill="#555555" fill-rule="evenodd" stroke="none"/>
    <path d="M-32.25 -2.0 L-32.0 -3.0 -27.4 -2.35 -27.75 -2.25 -32.25 -2.0" fill="#9e9e9e" fill-rule="evenodd" stroke="none"/>
    <path d="M-23.5 5.0 L-30.5 -0.5 -25.75 -0.75 -17.5 6.25 -23.5 5.0" fill="#7d7d7d" fill-rule="evenodd" stroke="none"/>
    <path d="M-18.0 -1.5 Q-16.5 -1.75 -15.0 -8.25 L-9.0 -6.25 -6.75 -4.25 -9.5 3.75 Q-11.25 1.0 -17.0 -0.25 L-22.25 -0.75 -21.75 -1.75 -18.0 -1.5" fill="#292929" fill-rule="evenodd" stroke="none"/>
    <path d="M-9.5 3.75 L-10.75 4.25 -17.25 3.0 Q-21.75 1.75 -22.25 -0.75 L-17.0 -0.25 Q-11.25 1.0 -9.5 3.75" fill="#585858" fill-rule="evenodd" stroke="none"/>
    <path d="M-7.5 14.25 L-15.75 11.25 -22.75 5.75 -16.25 7.0 -7.5 14.25" fill="#7b7b7b" fill-rule="evenodd" stroke="none"/>
    <path d="M1.5 14.75 Q3.0 14.75 4.25 8.75 L9.75 10.5 12.0 12.25 9.5 19.75 Q8.25 17.75 2.75 16.25 L-2.5 16.25 -2.0 14.5 1.5 14.75" fill="#3a3a3a" fill-rule="evenodd" stroke="none"/>
    <path d="M9.5 19.75 L8.25 20.25 0.75 18.25 0.5 18.25 0.0 18.0 -2.25 16.75 -2.5 16.25 2.75 16.25 Q8.25 17.75 9.5 19.75" fill="#4f4f4f" fill-rule="evenodd" stroke="none"/>
    <path d="M0.5 18.25 L0.25 18.25 0.0 18.0 0.5 18.25 M-2.25 16.75 L-2.75 16.25 -2.5 16.25 -2.25 16.75" fill="#404040" fill-rule="evenodd" stroke="none"/>
    <path d="M10.75 22.55 L11.85 22.4 12.8 22.9 21.5 -4.75 20.2 -5.95 21.1 -5.55 21.35 -5.3 21.75 -4.95 13.1 23.05 11.5 23.25 9.4 22.7 10.75 22.55" fill="#343434" fill-rule="evenodd" stroke="none"/>
    <path d="M-27.4 -14.05 L-25.65 -14.25 -27.8 -8.05 -29.65 -7.95 -27.4 -14.05" fill="url(#gradient0)" fill-rule="evenodd" stroke="none"/>
    <path d="M-19.1 -37.95 L-17.35 -38.15 -19.5 -31.95 -21.35 -31.85 -19.1 -37.95" fill="url(#gradient1)" fill-rule="evenodd" stroke="none"/>
    <path d="M-13.0 -38.5 L-23.7 -6.4 -25.05 -6.15 -26.15 -7.45 -14.7 -39.25 -14.6 -39.55 -13.65 -39.75 -13.2 -39.15 -13.0 -38.5" fill="#333333" fill-rule="evenodd" stroke="none"/>
    <path d="M10.5 -15.5 L11.75 -13.75 Q9.0 -8.75 10.25 -7.75 L14.5 -3.75 17.25 -4.25 18.5 -7.5 20.2 -5.95 21.5 -4.75 12.8 22.9 11.85 22.4 10.75 22.55 8.25 20.25 9.5 19.75 12.0 12.25 9.75 10.5 4.25 8.75 Q3.0 14.75 1.5 14.75 L-10.75 4.25 -9.5 3.75 -6.75 -4.25 -9.0 -6.25 -15.0 -8.25 Q-16.5 -1.75 -18.0 -1.5 L-23.7 -6.4 -13.0 -38.5 -7.75 -33.5 -6.75 -32.25 Q-9.75 -26.5 -8.75 -25.5 L-4.0 -20.75 -1.0 -20.75 -0.5 -21.5 0.75 -25.0 10.5 -15.5" fill="#000000" fill-rule="evenodd" stroke="none"/>
  </g>
  <defs>
    <radialGradient cx="0" cy="0" gradientTransform="matrix(0.0078, 0.0, 0.0, 0.0078, -27.25, -13.85)" gradientUnits="userSpaceOnUse" id="gradient0" r="819.2" spreadMethod="pad">
      <stop offset="0.0" stop-color="#990000"/>
      <stop offset="1.0" stop-color="#660000"/>
    </radialGradient>
    <radialGradient cx="0" cy="0" gradientTransform="matrix(0.0076, 0.0, 0.0, 0.0076, -18.5, -37.35)" gradientUnits="userSpaceOnUse" id="gradient1" r="819.2" spreadMethod="pad">
      <stop offset="0.0" stop-color="#990000"/>
      <stop offset="1.0" stop-color="#660000"/>
    </radialGradient>
  </defs>
</svg>
