<?xml version="1.0" encoding="UTF-8" standalone="no"?>
<svg xmlns:ffdec="https://www.free-decompiler.com/flash" xmlns:xlink="http://www.w3.org/1999/xlink" ffdec:objectType="shape" height="67.65px" width="50.75px" xmlns="http://www.w3.org/2000/svg">
  <g transform="matrix(1.0, 0.0, 0.0, 1.0, 30.0, 42.35)">
    <path d="M0.25 -25.75 L-0.25 -23.5 Q-0.75 -25.5 -4.25 -26.75 L-8.5 -27.5 -7.0 -34.0 -7.75 -35.0 Q5.75 -34.25 0.25 -25.75" fill="#202020" fill-rule="evenodd" stroke="none"/>
    <path d="M-0.25 -23.5 L-1.25 -22.25 -3.5 -22.0 -8.5 -27.5 -4.25 -26.75 Q-0.75 -25.5 -0.25 -23.5" fill="#676767" fill-rule="evenodd" stroke="none"/>
    <path d="M-24.55 -26.2 Q-22.8 -33.15 -20.0 -39.75 L-14.95 -41.5 -23.1 -10.75 -27.5 -9.75 -24.55 -26.2 M-19.7 -39.2 L-21.05 -34.1 -18.75 -34.85 -17.7 -39.7 -19.7 -39.2 M-25.1 -17.2 L-26.5 -11.1 -24.3 -11.65 -22.8 -17.85 -25.1 -17.2" fill="#939393" fill-rule="evenodd" stroke="none"/>
    <path d="M-20.9 -9.9 L-15.0 -4.0 -18.0 -4.0 -19.5 -2.75 -19.5 -1.0 -18.75 -0.25 -13.5 1.75 -8.5 2.25 4.0 15.0 0.25 15.25 -0.25 16.5 0.0 18.0 3.75 19.75 10.0 20.5 12.75 23.5 12.3 23.1 12.75 23.5 9.7 23.5 10.55 24.05 6.75 23.25 -4.5 16.0 -5.5 14.25 -13.75 6.5 -14.5 6.5 Q-14.25 4.75 -21.5 -1.25 L-23.25 -1.5 -28.25 -1.0 -28.5 -0.25 -30.0 -1.5 -24.75 -3.15 -24.5 -3.25 -24.75 -4.0 -24.75 -3.15 -24.8 -3.25 -25.25 -4.0 -25.3 -3.95 Q-26.9 -6.45 -27.5 -9.75 L-23.1 -10.75 -21.75 -9.55 -20.9 -9.9 M-21.25 6.75 L-21.75 6.25 -21.0 6.75 -21.25 6.75" fill="#fefce4" fill-rule="evenodd" stroke="none"/>
    <path d="M-4.5 16.0 L-5.25 16.0 -14.25 7.25 -21.0 6.75 -20.75 7.25 -21.25 6.75 -21.0 6.75 -15.25 6.5 -23.25 -1.5 -28.5 -0.25 -28.25 -1.0 -23.25 -1.5 -21.5 -1.25 Q-14.25 4.75 -14.5 6.5 L-13.75 6.5 -5.5 14.25 -4.5 16.0 M-29.75 -2.75 Q-28.0 -14.6 -24.55 -26.2 L-27.5 -9.75 Q-26.9 -6.45 -25.3 -3.95 L-29.5 -2.75 -29.75 -2.75" fill="#555555" fill-rule="evenodd" stroke="none"/>
    <path d="M10.0 -7.5 L11.0 -12.5 10.25 -14.75 Q21.75 -14.75 18.0 -6.0 L17.5 -4.0 13.75 -6.75 10.0 -7.5" fill="#2f2f2f" fill-rule="evenodd" stroke="none"/>
    <path d="M17.5 -4.0 L16.75 -3.0 14.0 -2.75 10.0 -7.5 13.75 -6.75 17.5 -4.0" fill="#626262" fill-rule="evenodd" stroke="none"/>
    <path d="M-30.0 -1.5 L-29.75 -2.75 -29.5 -2.75 -25.3 -3.95 -25.25 -4.0 -24.8 -3.25 -24.75 -3.15 -24.75 -4.0 -24.5 -3.25 -24.75 -3.15 -30.0 -1.5" fill="#a0a0a0" fill-rule="evenodd" stroke="none"/>
    <path d="M-15.0 -4.0 L-13.0 -10.75 -7.25 -9.25 -4.75 -7.0 -6.75 1.0 Q-6.75 -1.25 -13.0 -2.75 L-19.5 -2.75 -18.0 -4.0 -15.0 -4.0" fill="#242424" fill-rule="evenodd" stroke="none"/>
    <path d="M-6.75 1.0 L-8.5 2.25 -13.5 1.75 -18.75 -0.25 -19.5 -1.0 -19.5 -2.75 -13.0 -2.75 Q-6.75 -1.25 -6.75 1.0" fill="#5d5d5d" fill-rule="evenodd" stroke="none"/>
    <path d="M-5.25 16.0 L-15.0 12.75 -20.75 7.25 -21.0 6.75 -14.25 7.25 -5.25 16.0" fill="#7f7f7f" fill-rule="evenodd" stroke="none"/>
    <path d="M-21.75 6.25 L-24.25 3.75 -24.75 3.5 -28.5 -0.25 -23.25 -1.5 -15.25 6.5 -21.0 6.75 -21.75 6.25" fill="#808080" fill-rule="evenodd" stroke="none"/>
    <path d="M4.0 15.0 Q5.25 14.5 5.75 9.0 L11.0 10.0 13.75 12.25 12.0 19.5 Q10.75 17.0 5.25 16.25 L-0.25 16.5 0.25 15.25 4.0 15.0 M12.75 23.5 L14.4 25.0 14.5 25.0 20.75 -2.25 20.75 -1.15 14.75 25.3 11.25 24.55 10.55 24.05 9.7 23.5 12.75 23.5" fill="#343434" fill-rule="evenodd" stroke="none"/>
    <path d="M12.0 19.5 L11.75 20.25 10.0 20.5 3.75 19.75 0.0 18.0 -0.25 16.5 5.25 16.25 Q10.75 17.0 12.0 19.5" fill="#565656" fill-rule="evenodd" stroke="none"/>
    <path d="M-19.7 -39.2 L-17.7 -39.7 -18.75 -34.85 -21.05 -34.1 -19.7 -39.2" fill="url(#gradient0)" fill-rule="evenodd" stroke="none"/>
    <path d="M-25.1 -17.2 L-22.8 -17.85 -24.3 -11.65 -26.5 -11.1 -25.1 -17.2" fill="url(#gradient1)" fill-rule="evenodd" stroke="none"/>
    <path d="M-13.5 -41.7 L-20.9 -9.9 -21.75 -9.55 -23.1 -10.75 -14.95 -41.5 -14.75 -42.15 -13.35 -42.35 -13.5 -41.7" fill="#333333" fill-rule="evenodd" stroke="none"/>
    <path d="M10.25 -14.75 L11.0 -12.5 10.0 -7.5 14.0 -2.75 16.75 -3.0 17.5 -4.0 18.0 -6.0 20.75 -2.25 14.5 25.0 14.4 25.0 12.75 23.5 12.3 23.1 12.75 23.5 10.0 20.5 11.75 20.25 12.0 19.5 13.75 12.25 11.0 10.0 5.75 9.0 Q5.25 14.5 4.0 15.0 L-8.5 2.25 -6.75 1.0 -4.75 -7.0 -7.25 -9.25 -13.0 -10.75 -15.0 -4.0 -20.9 -9.9 -13.5 -41.7 -7.75 -35.0 -7.0 -34.0 -8.5 -27.5 -3.5 -22.0 -1.25 -22.25 -0.25 -23.5 0.25 -25.75 10.25 -14.75" fill="#000000" fill-rule="evenodd" stroke="none"/>
  </g>
  <defs>
    <radialGradient cx="0" cy="0" gradientTransform="matrix(0.0054, 0.0, 0.0, 0.0054, -18.8, -39.25)" gradientUnits="userSpaceOnUse" id="gradient0" r="819.2" spreadMethod="pad">
      <stop offset="0.0" stop-color="#990000"/>
      <stop offset="1.0" stop-color="#660000"/>
    </radialGradient>
    <radialGradient cx="0" cy="0" gradientTransform="matrix(0.0052, 0.0, 0.0, 0.0052, -24.75, -14.95)" gradientUnits="userSpaceOnUse" id="gradient1" r="819.2" spreadMethod="pad">
      <stop offset="0.0" stop-color="#990000"/>
      <stop offset="1.0" stop-color="#660000"/>
    </radialGradient>
  </defs>
</svg>
