<?xml version="1.0" encoding="UTF-8" standalone="no"?>
<svg xmlns:ffdec="https://www.free-decompiler.com/flash" xmlns:xlink="http://www.w3.org/1999/xlink" ffdec:objectType="shape" height="5.0px" width="2.95px" xmlns="http://www.w3.org/2000/svg">
  <g transform="matrix(1.0, 0.0, 0.0, 1.0, 4.35, 2.25)">
    <path d="M-1.45 -0.1 Q-1.45 0.55 -2.05 0.55 L-2.45 0.05 Q-2.45 -0.45 -1.9 -0.45 -1.45 -0.45 -1.45 -0.1" fill="#333333" fill-rule="evenodd" stroke="none"/>
    <path d="M-1.45 -0.1 Q-1.45 0.55 -2.05 0.55 L-2.45 0.05 Q-2.45 -0.45 -1.9 -0.45 -1.45 -0.45 -1.45 -0.1 Z" fill="none" stroke="#000000" stroke-linecap="round" stroke-linejoin="round" stroke-width="0.1"/>
    <path d="M-4.35 2.55 L-4.2 2.45 -4.0 2.5 -4.15 2.7 Q-4.35 2.8 -4.35 2.55" fill="#333333" fill-rule="evenodd" stroke="none"/>
    <path d="M-4.0 -2.0 L-3.6 -2.25 Q-3.35 -2.15 -3.5 -1.75 -3.55 -1.45 -3.8 -1.5 -4.1 -1.6 -4.0 -2.0" fill="#333333" fill-rule="evenodd" stroke="none"/>
  </g>
</svg>
