<?xml version="1.0" encoding="UTF-8" standalone="no"?>
<svg xmlns:ffdec="https://www.free-decompiler.com/flash" xmlns:xlink="http://www.w3.org/1999/xlink" ffdec:objectType="shape" height="73.85px" width="50.8px" xmlns="http://www.w3.org/2000/svg">
  <g transform="matrix(1.0, 0.0, 0.0, 1.0, 23.85, 45.55)">
    <path d="M-12.0 -36.35 Q-4.7 -39.7 -2.7 -30.7 -4.35 -32.85 -6.0 -32.7 L-10.5 -32.2 -12.0 -36.35" fill="#0e0e0e" fill-rule="evenodd" stroke="none"/>
    <path d="M-2.7 -30.7 L-2.7 -30.35 -2.35 -27.0 -3.85 -24.85 -4.85 -24.2 -10.5 -32.2 -6.0 -32.7 Q-4.35 -32.85 -2.7 -30.7" fill="#636363" fill-rule="evenodd" stroke="none"/>
    <path d="M-21.2 -26.5 Q-22.75 -32.45 -23.85 -39.5 L-21.1 -43.45 -14.7 -27.25 Q-17.15 -25.0 -19.3 -20.55 L-21.2 -26.5 M-19.9 -45.2 L-19.75 -44.85 -19.6 -44.5 -19.9 -45.2 M-18.4 -29.4 L-19.7 -27.3 -18.6 -24.0 -16.95 -26.2 -18.4 -29.4 M-22.1 -41.5 L-23.4 -39.4 -22.3 -36.1 -20.65 -38.3 -22.1 -41.5" fill="#969696" fill-rule="evenodd" stroke="none"/>
    <path d="M0.0 -9.7 L14.8 10.15 15.0 11.0 Q11.15 13.15 11.8 14.5 L11.65 14.8 11.5 16.0 Q12.15 18.8 13.5 19.3 L15.8 20.0 18.65 19.65 21.0 18.5 25.4 24.45 22.85 25.55 24.15 27.2 20.3 28.3 8.15 19.0 -3.2 18.15 Q-11.75 9.3 -18.5 -1.7 L-19.35 -3.35 -18.7 -4.35 -18.5 -4.85 -18.0 -5.5 -18.0 -5.7 -17.5 -6.2 -16.0 -8.85 -14.7 -10.85 Q-15.35 -11.4 -15.95 -12.85 -17.3 -15.15 -19.3 -20.55 -17.15 -25.0 -14.7 -27.25 L-13.6 -26.1 -12.6 -26.8 -6.35 -18.85 -6.0 -17.85 Q-9.85 -16.5 -9.85 -14.0 -10.5 -5.7 0.0 -9.7 M-9.5 8.0 L-3.7 16.15 -2.2 17.5 7.15 18.3 7.15 17.8 -2.35 5.15 -2.7 4.3 -3.2 4.3 -9.5 8.0 M-12.85 -8.7 L-13.2 -8.7 -17.7 -2.5 -10.85 6.3 -10.2 7.0 -9.0 6.65 -3.7 3.3 -4.0 2.65 -4.35 2.3 -12.85 -8.7" fill="#fffff0" fill-rule="evenodd" stroke="none"/>
    <path d="M-2.35 5.15 L-3.0 4.65 -9.5 8.0 -3.2 4.3 -2.7 4.3 -2.35 5.15" fill="#555555" fill-rule="evenodd" stroke="none"/>
    <path d="M-16.0 -8.85 L-17.5 -6.2 -18.0 -5.7 -18.0 -5.5 -18.7 -5.2 -18.5 -4.85 -18.7 -4.35 -19.7 -4.35 -16.0 -8.85" fill="#7e7e7e" fill-rule="evenodd" stroke="none"/>
    <path d="M-19.35 -3.35 L-19.7 -4.35 -18.7 -4.35 -19.35 -3.35 M-15.95 -12.85 Q-15.35 -11.4 -14.7 -10.85 L-16.0 -8.85 -15.5 -11.2 -15.95 -12.85 M-18.0 -5.5 L-18.5 -4.85 -18.7 -5.2 -18.0 -5.5" fill="#ababab" fill-rule="evenodd" stroke="none"/>
    <path d="M1.15 -18.0 L1.5 -16.5 Q-4.85 -20.85 -9.85 -14.0 -9.85 -16.5 -6.0 -17.85 L-6.35 -18.85 Q-6.45 -20.6 -7.2 -22.2 -2.85 -23.2 -1.85 -22.2 L-0.2 -21.0 1.15 -18.0" fill="#111111" fill-rule="evenodd" stroke="none"/>
    <path d="M1.5 -16.5 L1.5 -16.35 Q2.65 -15.35 2.15 -12.2 L0.0 -9.7 Q-10.5 -5.7 -9.85 -14.0 -4.85 -20.85 1.5 -16.5" fill="#5a5a5a" fill-rule="evenodd" stroke="none"/>
    <path d="M-12.85 -8.7 L-4.35 2.3 -4.0 2.65 -3.7 3.3 -9.0 6.65 -10.2 7.0 -10.85 6.3 -17.7 -2.5 -13.2 -8.7 -12.85 -8.7" fill="#a4a4a4" fill-rule="evenodd" stroke="none"/>
    <path d="M10.3 -3.7 L8.5 -8.0 Q15.3 -11.2 17.3 -2.7 16.15 -4.35 13.5 -4.35 L10.3 -3.7" fill="#0d0d0d" fill-rule="evenodd" stroke="none"/>
    <path d="M16.3 2.8 L15.3 3.5 10.3 -3.7 13.5 -4.35 Q16.15 -4.35 17.3 -2.7 L18.0 -0.85 17.8 0.3 16.3 2.8" fill="#686868" fill-rule="evenodd" stroke="none"/>
    <path d="M-2.35 5.15 L7.15 17.8 7.15 18.3 -2.2 17.5 -3.7 16.15 -9.5 8.0 -3.0 4.65 -2.35 5.15" fill="#989898" fill-rule="evenodd" stroke="none"/>
    <path d="M14.8 10.15 L13.8 6.8 Q15.15 5.65 19.0 6.5 L21.0 7.8 22.65 12.3 Q15.65 8.5 11.8 14.5 11.15 13.15 15.0 11.0 L14.8 10.15" fill="#141414" fill-rule="evenodd" stroke="none"/>
    <path d="M23.0 16.15 L21.0 18.5 18.65 19.65 15.8 20.0 13.5 19.3 Q12.15 18.8 11.5 16.0 L11.65 14.8 11.8 14.5 Q15.65 8.5 22.65 12.3 L23.3 14.15 23.0 16.15" fill="#5f5f5f" fill-rule="evenodd" stroke="none"/>
    <path d="M25.4 24.45 L26.65 26.15 26.5 25.7 26.95 26.45 24.45 27.4 24.15 27.2 22.85 25.55 25.4 24.45" fill="#343434" fill-rule="evenodd" stroke="none"/>
    <path d="M-19.7 -4.35 Q-22.5 -13.4 -23.5 -22.65 -23.25 -23.75 -22.0 -25.35 L-21.7 -25.85 -21.5 -26.0 -21.2 -26.5 -19.3 -20.55 Q-17.3 -15.15 -15.95 -12.85 L-15.5 -11.2 -16.0 -8.85 -19.7 -4.35" fill="url(#gradient0)" fill-rule="evenodd" stroke="none"/>
    <path d="M-18.4 -29.4 L-16.95 -26.2 -18.6 -24.0 -19.7 -27.3 -18.4 -29.4" fill="url(#gradient1)" fill-rule="evenodd" stroke="none"/>
    <path d="M-22.1 -41.5 L-20.65 -38.3 -22.3 -36.1 -23.4 -39.4 -22.1 -41.5" fill="url(#gradient2)" fill-rule="evenodd" stroke="none"/>
    <path d="M-21.1 -43.45 L-21.35 -44.1 -20.05 -45.55 -19.9 -45.2 -19.6 -44.5 -12.6 -26.8 -13.6 -26.1 -14.7 -27.25 -21.1 -43.45" fill="#333333" fill-rule="evenodd" stroke="none"/>
    <path d="M0.0 -9.7 L2.15 -12.2 Q2.65 -15.35 1.5 -16.35 L1.5 -16.5 1.15 -18.0 8.5 -8.0 10.3 -3.7 15.3 3.5 16.3 2.8 19.0 6.5 Q15.15 5.65 13.8 6.8 L14.8 10.15 0.0 -9.7 M25.4 24.45 L21.0 18.5 23.0 16.15 26.5 25.7 26.65 26.15 25.4 24.45 M-19.75 -44.85 L-12.0 -36.35 -10.5 -32.2 -4.85 -24.2 -3.85 -24.85 -1.85 -22.2 Q-2.85 -23.2 -7.2 -22.2 -6.45 -20.6 -6.35 -18.85 L-12.6 -26.8 -19.6 -44.5 -19.75 -44.85" fill="#000000" fill-rule="evenodd" stroke="none"/>
  </g>
  <defs>
    <radialGradient cx="0" cy="0" gradientTransform="matrix(0.0224, 0.0, 0.0, 0.0224, -21.6, -22.6)" gradientUnits="userSpaceOnUse" id="gradient0" r="819.2" spreadMethod="pad">
      <stop offset="0.0" stop-color="#c4ced5"/>
      <stop offset="1.0" stop-color="#555555"/>
    </radialGradient>
    <radialGradient cx="0" cy="0" gradientTransform="matrix(0.0042, 0.0, 0.0, 0.0042, -19.3, -27.35)" gradientUnits="userSpaceOnUse" id="gradient1" r="819.2" spreadMethod="pad">
      <stop offset="0.0" stop-color="#990000"/>
      <stop offset="1.0" stop-color="#660000"/>
    </radialGradient>
    <radialGradient cx="0" cy="0" gradientTransform="matrix(0.0044, 0.0, 0.0, 0.0044, -22.7, -39.7)" gradientUnits="userSpaceOnUse" id="gradient2" r="819.2" spreadMethod="pad">
      <stop offset="0.0" stop-color="#990000"/>
      <stop offset="1.0" stop-color="#660000"/>
    </radialGradient>
  </defs>
</svg>
