<?xml version="1.0" encoding="UTF-8" standalone="no"?>
<svg xmlns:ffdec="https://www.free-decompiler.com/flash" xmlns:xlink="http://www.w3.org/1999/xlink" ffdec:objectType="shape" height="62.6px" width="64.45px" xmlns="http://www.w3.org/2000/svg">
  <g transform="matrix(1.0, 0.0, 0.0, 1.0, 27.8, 39.0)">
    <path d="M-14.85 -35.15 L-16.8 -28.8 Q-25.6 -30.1 -27.8 -31.4 L-26.0 -37.6 -14.85 -35.15 M-17.4 -29.85 L-16.7 -32.15 -18.55 -32.4 -19.35 -30.35 -17.4 -29.85 M-26.25 -34.15 L-27.05 -32.1 -25.2 -31.75 -24.4 -33.9 -26.25 -34.15" fill="#9b9b9b" fill-rule="evenodd" stroke="none"/>
    <path d="M-4.8 -26.0 L-5.2 -25.8 -6.0 -24.6 Q-6.75 -24.35 -6.8 -23.6 L-7.2 -21.6 -7.0 -20.6 -7.0 -20.0 -5.8 -17.2 Q-4.2 -15.8 -1.8 -15.6 L0.4 -16.0 2.6 -18.0 20.2 1.8 21.6 3.8 Q19.2 5.0 19.8 9.4 L19.8 9.6 20.0 10.2 20.8 11.6 21.4 12.4 21.8 12.6 Q25.0 15.0 28.8 11.6 L34.55 17.95 33.05 20.15 34.4 21.7 31.6 23.6 30.8 23.4 19.7 15.7 17.8 14.4 15.8 14.6 8.6 15.2 8.0 15.0 7.2 15.0 Q-3.2 5.45 -12.8 -7.2 L-12.8 -8.2 -12.6 -9.0 -12.6 -9.4 -12.4 -9.8 -11.2 -16.0 -10.6 -16.8 Q-14.7 -21.8 -16.8 -28.8 L-14.85 -35.15 -13.95 -33.8 -12.9 -35.0 -6.0 -27.6 -4.8 -26.0 M3.4 -1.0 L3.2 -0.6 1.0 1.6 0.6 2.2 -1.0 4.0 7.6 13.8 17.0 13.4 3.6 -1.2 3.4 -1.0 M-8.6 -14.8 L-9.0 -14.4 -11.0 -7.6 -10.8 -6.6 -1.8 2.8 -1.4 2.6 3.0 -2.8 -8.2 -15.0 -8.6 -14.8" fill="#c5bba3" fill-rule="evenodd" stroke="none"/>
    <path d="M-16.8 -28.8 Q-14.7 -21.8 -10.6 -16.8 -17.6 -18.05 -22.0 -20.0 -25.6 -23.75 -27.8 -31.4 -25.6 -30.1 -16.8 -28.8" fill="#e3e3e3" fill-rule="evenodd" stroke="none"/>
    <path d="M-1.2 -27.2 L-3.4 -27.0 -4.8 -26.0 -6.0 -27.6 -4.8 -28.0 -1.2 -27.2" fill="#1d1d1d" fill-rule="evenodd" stroke="none"/>
    <path d="M2.6 -18.0 L0.4 -16.0 -1.8 -15.6 Q-4.2 -15.8 -5.8 -17.2 L-7.0 -20.0 -7.0 -20.6 -7.2 -21.6 -6.8 -23.6 Q-6.75 -24.35 -6.0 -24.6 L-5.2 -25.8 -4.8 -26.0 -3.4 -27.0 -1.2 -27.2 Q6.0 -26.0 2.6 -18.0" fill="#383838" fill-rule="evenodd" stroke="none"/>
    <path d="M-10.6 -16.8 L-11.2 -16.0 Q-17.1 -16.75 -22.2 -19.2 L-22.0 -20.0 Q-17.6 -18.05 -10.6 -16.8" fill="#b3b3b3" fill-rule="evenodd" stroke="none"/>
    <path d="M-11.2 -16.0 L-12.4 -9.8 -12.6 -9.4 -12.6 -9.0 -12.8 -8.2 -13.4 -8.2 -11.2 -16.0" fill="#858585" fill-rule="evenodd" stroke="none"/>
    <path d="M-8.6 -14.8 L-8.2 -15.0 3.0 -2.8 -1.4 2.6 -1.8 2.8 -10.8 -6.6 -11.0 -7.6 -9.0 -14.4 -8.6 -14.8" fill="#ababab" fill-rule="evenodd" stroke="none"/>
    <path d="M3.4 -1.0 L3.6 -1.2 17.0 13.4 7.6 13.8 -1.0 4.0 0.6 2.2 1.0 1.6 3.2 -0.6 3.4 -1.0" fill="#cecece" fill-rule="evenodd" stroke="none"/>
    <path d="M19.8 9.4 Q19.2 5.0 21.6 3.8 L20.2 1.8 22.4 1.4 25.8 2.4 Q20.0 2.4 19.8 9.4" fill="#212121" fill-rule="evenodd" stroke="none"/>
    <path d="M28.8 11.6 Q25.0 15.0 21.8 12.6 L21.4 12.4 20.8 11.6 20.0 10.2 19.8 9.6 19.8 9.4 Q20.0 2.4 25.8 2.4 L26.0 2.4 26.4 2.6 27.0 2.6 Q32.0 3.8 28.8 11.6" fill="#424242" fill-rule="evenodd" stroke="none"/>
    <path d="M8.6 15.2 L15.8 14.6 13.5 15.0 13.4 15.0 8.6 15.2" fill="#c3c3c3" fill-rule="evenodd" stroke="none"/>
    <path d="M15.8 14.6 L17.8 14.4 19.7 15.7 25.25 21.3 20.55 19.55 13.5 15.0 15.8 14.6" fill="#f1f1f1" fill-rule="evenodd" stroke="none"/>
    <path d="M34.4 21.7 L33.05 20.15 34.55 17.95 36.65 20.15 34.4 21.7" fill="#343434" fill-rule="evenodd" stroke="none"/>
    <path d="M-23.8 -11.6 L-22.6 -17.4 -22.4 -17.8 -22.2 -18.6 -22.2 -19.2 Q-17.1 -16.75 -11.2 -16.0 L-13.4 -8.2 Q-19.6 -9.3 -23.8 -11.6" fill="url(#gradient0)" fill-rule="evenodd" stroke="none"/>
    <path d="M-17.4 -29.85 L-19.35 -30.35 -18.55 -32.4 -16.7 -32.15 -17.4 -29.85" fill="url(#gradient1)" fill-rule="evenodd" stroke="none"/>
    <path d="M-26.25 -34.15 L-24.4 -33.9 -25.2 -31.75 -27.05 -32.1 -26.25 -34.15" fill="url(#gradient2)" fill-rule="evenodd" stroke="none"/>
    <path d="M-12.9 -35.0 L-13.95 -33.8 -14.85 -35.15 -26.0 -37.6 -26.25 -37.95 -25.6 -39.0 -14.4 -36.6 -12.9 -35.0" fill="#333333" fill-rule="evenodd" stroke="none"/>
    <path d="M-12.8 -7.2 Q-3.2 5.45 7.2 15.0 L-4.6 10.4 Q-15.1 1.35 -23.8 -10.8 -18.3 -8.0 -12.8 -7.2" fill="url(#gradient3)" fill-rule="evenodd" stroke="none"/>
    <path d="M19.7 15.7 L30.8 23.4 25.25 21.3 19.7 15.7 M20.55 19.55 L19.2 19.0 13.4 15.0 13.5 15.0 20.55 19.55" fill="#e6e6e6" fill-rule="evenodd" stroke="none"/>
    <path d="M-12.8 -8.2 L-12.8 -7.2 Q-18.3 -8.0 -23.8 -10.8 L-23.8 -11.6 Q-19.6 -9.3 -13.4 -8.2 L-12.8 -8.2" fill="#5b5c5c" fill-rule="evenodd" stroke="none"/>
  </g>
  <defs>
    <radialGradient cx="0" cy="0" gradientTransform="matrix(0.0127, 0.0, 0.0, 0.0127, -21.5, -14.7)" gradientUnits="userSpaceOnUse" id="gradient0" r="819.2" spreadMethod="pad">
      <stop offset="0.0" stop-color="#c4ced5"/>
      <stop offset="1.0" stop-color="#555555"/>
    </radialGradient>
    <radialGradient cx="0" cy="0" gradientTransform="matrix(0.0026, 0.0, 0.0, 0.0026, -17.7, -31.7)" gradientUnits="userSpaceOnUse" id="gradient1" r="819.2" spreadMethod="pad">
      <stop offset="0.0" stop-color="#990000"/>
      <stop offset="1.0" stop-color="#660000"/>
    </radialGradient>
    <radialGradient cx="0" cy="0" gradientTransform="matrix(0.0027, 0.0, 0.0, 0.0027, -26.05, -33.8)" gradientUnits="userSpaceOnUse" id="gradient2" r="819.2" spreadMethod="pad">
      <stop offset="0.0" stop-color="#990000"/>
      <stop offset="1.0" stop-color="#660000"/>
    </radialGradient>
    <radialGradient cx="0" cy="0" gradientTransform="matrix(0.0347, 0.0, 0.0, 0.0347, -12.4, -5.6)" gradientUnits="userSpaceOnUse" id="gradient3" r="819.2" spreadMethod="pad">
      <stop offset="0.0" stop-color="#ffffff"/>
      <stop offset="1.0" stop-color="#e2e2e2"/>
    </radialGradient>
  </defs>
</svg>
