<?xml version="1.0" encoding="UTF-8" standalone="no"?>
<svg xmlns:ffdec="https://www.free-decompiler.com/flash" xmlns:xlink="http://www.w3.org/1999/xlink" ffdec:objectType="shape" height="59.2px" width="67.25px" xmlns="http://www.w3.org/2000/svg">
  <g transform="matrix(1.0, 0.0, 0.0, 1.0, 28.75, 37.7)">
    <path d="M-15.65 -35.7 L-17.0 -29.5 Q-23.05 -28.35 -28.75 -28.75 L-27.55 -34.6 -15.65 -35.7 M-19.7 -32.3 L-20.05 -30.2 -17.45 -30.4 -17.0 -32.8 -19.7 -32.3 M-27.45 -31.6 L-28.0 -29.7 -25.85 -29.85 -25.35 -31.9 -27.45 -31.6" fill="#9c9c9c" fill-rule="evenodd" stroke="none"/>
    <path d="M-17.0 -29.5 L-15.65 -35.7 -14.1 -34.65 -13.5 -35.95 -6.0 -28.25 -5.25 -27.0 Q-7.0 -26.25 -7.0 -23.75 L-6.75 -21.75 -6.75 -21.0 -4.5 -18.0 -4.0 -17.75 -1.0 -17.0 Q0.75 -17.0 2.5 -19.25 L21.75 0.5 22.75 2.0 21.75 3.5 21.25 5.25 21.25 6.5 21.5 7.5 21.5 8.0 22.5 9.5 23.5 10.5 24.0 10.75 26.75 11.5 Q29.0 11.5 30.25 9.5 L36.5 15.75 34.8 18.0 36.4 19.45 33.75 21.5 20.75 13.0 20.65 13.0 18.0 12.75 11.0 13.75 9.75 13.5 Q-1.25 4.15 -11.5 -8.25 L-11.75 -9.0 -11.5 -9.75 -10.75 -16.0 -10.75 -17.0 -10.0 -17.75 Q-13.5 -20.9 -17.0 -29.5 M-7.5 -16.25 L-8.25 -15.5 -9.75 -8.25 -0.25 1.25 4.25 -4.25 -7.5 -16.25 M12.0 12.0 L19.25 11.25 5.0 -3.0 0.75 2.5 Q9.0 13.0 12.0 12.0" fill="#99917d" fill-rule="evenodd" stroke="none"/>
    <path d="M-28.75 -28.75 Q-23.05 -28.35 -17.0 -29.5 -13.5 -20.9 -10.0 -17.75 L-22.25 -17.5 Q-26.1 -21.9 -28.75 -28.75 M20.65 13.0 L20.75 13.0 33.75 21.5 29.75 21.15 20.65 13.0 M23.55 20.55 L20.75 20.25 10.5 13.9 23.55 20.55" fill="#e6e6e6" fill-rule="evenodd" stroke="none"/>
    <path d="M-10.0 -17.75 L-10.75 -17.0 -22.25 -16.75 -22.25 -17.5 -10.0 -17.75" fill="#b5b5b5" fill-rule="evenodd" stroke="none"/>
    <path d="M-5.25 -27.0 L-6.0 -28.25 -2.75 -28.5 -5.25 -27.0" fill="#2e2e2e" fill-rule="evenodd" stroke="none"/>
    <path d="M2.5 -19.25 Q0.75 -17.0 -1.0 -17.0 L-4.0 -17.75 -4.5 -18.0 -6.75 -21.0 -6.75 -21.75 -7.0 -23.75 Q-7.0 -26.25 -5.25 -27.0 L-2.75 -28.5 Q6.0 -27.75 2.5 -19.25" fill="#2d2d2d" fill-rule="evenodd" stroke="none"/>
    <path d="M9.75 13.5 L11.0 13.75 10.25 13.75 9.75 13.5" fill="#555555" fill-rule="evenodd" stroke="none"/>
    <path d="M-10.75 -16.0 L-11.5 -9.75 -11.75 -9.0 -12.25 -9.25 -10.75 -16.0" fill="#606060" fill-rule="evenodd" stroke="none"/>
    <path d="M22.75 2.0 L21.75 0.5 25.5 0.25 22.75 2.0" fill="#222222" fill-rule="evenodd" stroke="none"/>
    <path d="M30.25 9.5 Q29.0 11.5 26.75 11.5 L24.0 10.75 23.5 10.5 22.5 9.5 21.5 8.0 21.5 7.5 21.25 6.5 21.25 5.25 21.75 3.5 22.75 2.0 25.5 0.25 27.5 0.25 30.0 1.5 31.5 5.0 30.25 9.5" fill="#373737" fill-rule="evenodd" stroke="none"/>
    <path d="M-7.5 -16.25 L4.25 -4.25 -0.25 1.25 -9.75 -8.25 -8.25 -15.5 -7.5 -16.25" fill="#797979" fill-rule="evenodd" stroke="none"/>
    <path d="M12.0 12.0 Q9.0 13.0 0.75 2.5 L5.0 -3.0 19.25 11.25 12.0 12.0" fill="#888888" fill-rule="evenodd" stroke="none"/>
    <path d="M11.0 13.75 L18.0 12.75 20.65 13.0 29.75 21.15 23.55 20.55 10.5 13.9 10.25 13.75 11.0 13.75" fill="#fdfdfd" fill-rule="evenodd" stroke="none"/>
    <path d="M36.4 19.45 L34.8 18.0 36.5 15.75 38.5 17.75 36.65 19.65 36.4 19.45" fill="#343434" fill-rule="evenodd" stroke="none"/>
    <path d="M-10.75 -17.0 L-10.75 -16.0 -12.25 -9.25 -11.75 -9.0 Q-17.6 -7.95 -23.25 -8.75 L-22.5 -15.75 -22.25 -16.5 -22.25 -16.75 -10.75 -17.0" fill="url(#gradient0)" fill-rule="evenodd" stroke="none"/>
    <path d="M-19.7 -32.3 L-17.0 -32.8 -17.45 -30.4 -20.05 -30.2 -19.7 -32.3" fill="url(#gradient1)" fill-rule="evenodd" stroke="none"/>
    <path d="M-27.45 -31.6 L-25.35 -31.9 -25.85 -29.85 -28.0 -29.7 -27.45 -31.6" fill="url(#gradient2)" fill-rule="evenodd" stroke="none"/>
    <path d="M-15.65 -35.7 L-27.55 -34.6 -27.8 -34.55 -27.55 -36.2 -15.05 -37.7 -13.5 -36.35 -13.5 -35.95 -14.1 -34.65 -15.65 -35.7" fill="#333333" fill-rule="evenodd" stroke="none"/>
    <path d="M-11.5 -8.25 Q-1.25 4.15 9.75 13.5 L8.75 13.5 7.0 13.25 5.5 13.25 4.0 13.0 2.5 13.0 1.0 12.75 -0.5 12.75 -1.25 12.5 -3.25 12.5 Q-14.25 3.3 -23.25 -8.25 -17.35 -7.25 -11.5 -8.25" fill="url(#gradient3)" fill-rule="evenodd" stroke="none"/>
    <path d="M-11.75 -9.0 L-11.5 -8.25 Q-17.35 -7.25 -23.25 -8.25 L-23.25 -8.75 Q-17.6 -7.95 -11.75 -9.0" fill="#5b5c5c" fill-rule="evenodd" stroke="none"/>
  </g>
  <defs>
    <radialGradient cx="0" cy="0" gradientTransform="matrix(0.0125, 0.0, 0.0, 0.0125, -19.4, -11.6)" gradientUnits="userSpaceOnUse" id="gradient0" r="819.2" spreadMethod="pad">
      <stop offset="0.0" stop-color="#c4ced5"/>
      <stop offset="1.0" stop-color="#555555"/>
    </radialGradient>
    <radialGradient cx="0" cy="0" gradientTransform="matrix(0.004, 0.0, 0.0, 0.004, -17.75, -32.55)" gradientUnits="userSpaceOnUse" id="gradient1" r="819.2" spreadMethod="pad">
      <stop offset="0.0" stop-color="#990000"/>
      <stop offset="1.0" stop-color="#660000"/>
    </radialGradient>
    <radialGradient cx="0" cy="0" gradientTransform="matrix(0.0031, 0.0, 0.0, 0.0031, -26.15, -31.4)" gradientUnits="userSpaceOnUse" id="gradient2" r="819.2" spreadMethod="pad">
      <stop offset="0.0" stop-color="#990000"/>
      <stop offset="1.0" stop-color="#660000"/>
    </radialGradient>
    <radialGradient cx="0" cy="0" gradientTransform="matrix(0.0323, 0.0, 0.0, 0.0323, -9.4, -4.8)" gradientUnits="userSpaceOnUse" id="gradient3" r="819.2" spreadMethod="pad">
      <stop offset="0.0" stop-color="#ffffff"/>
      <stop offset="1.0" stop-color="#e2e2e2"/>
    </radialGradient>
  </defs>
</svg>
