<?xml version="1.0" encoding="UTF-8" standalone="no"?>
<svg xmlns:ffdec="https://www.free-decompiler.com/flash" xmlns:xlink="http://www.w3.org/1999/xlink" ffdec:objectType="shape" height="59.35px" width="70.0px" xmlns="http://www.w3.org/2000/svg">
  <g transform="matrix(1.0, 0.0, 0.0, 1.0, 29.5, 38.1)">
    <path d="M1.75 -0.5 L5.5 -5.75 -6.75 -17.25 -7.75 -17.0 -7.5 -16.25 -8.5 -9.25 1.75 -0.5 M2.5 -20.25 L23.25 -1.0 23.75 -0.5 22.75 1.75 22.5 3.5 22.5 4.0 Q23.25 7.75 24.75 8.25 L27.25 9.0 29.75 8.75 31.75 7.25 38.55 13.5 37.0 15.05 38.85 16.65 36.0 19.0 22.5 10.75 21.3 10.65 20.0 10.5 13.25 11.75 12.0 11.5 Q0.5 2.95 -10.25 -9.5 L-10.25 -10.25 -10.25 -16.25 -10.25 -17.75 -9.75 -18.75 Q-13.35 -21.8 -17.25 -30.0 L-16.4 -36.15 -15.1 -34.75 -14.2 -36.5 -5.5 -28.25 -7.0 -25.0 -6.5 -21.5 -5.75 -20.75 -5.25 -20.0 -4.75 -19.5 -4.0 -19.0 -3.75 -18.75 -3.25 -18.5 -2.5 -18.5 -1.5 -18.25 1.0 -18.75 2.5 -20.25 M13.75 9.75 L16.25 9.75 16.75 9.5 19.25 9.5 19.75 9.25 21.0 9.0 6.0 -4.5 2.5 0.5 2.75 1.25 12.0 10.0 13.25 10.0 13.75 9.75" fill="#797363" fill-rule="evenodd" stroke="none"/>
    <path d="M-29.5 -25.75 L-28.65 -31.8 -16.4 -36.15 -17.25 -30.0 Q-23.35 -26.7 -29.5 -25.75 M-17.65 -32.6 L-19.9 -31.7 -20.25 -29.65 -18.05 -30.45 -17.65 -32.6 M-28.65 -28.9 L-29.0 -26.85 -26.8 -27.65 -26.4 -29.8 -28.65 -28.9" fill="#9e9e9e" fill-rule="evenodd" stroke="none"/>
    <path d="M-22.25 -14.25 Q-25.85 -18.3 -29.5 -25.75 -23.35 -26.7 -17.25 -30.0 -13.35 -21.8 -9.75 -18.75 -16.0 -16.15 -22.25 -14.25" fill="#f0f0f0" fill-rule="evenodd" stroke="none"/>
    <path d="M-5.5 -28.25 L-4.75 -28.75 -3.0 -29.5 1.0 -28.5 3.25 -24.75 2.5 -20.25 1.0 -18.75 -1.5 -18.25 -2.5 -18.5 -3.25 -18.5 -3.75 -18.75 -4.0 -19.0 -4.75 -19.5 -5.25 -20.0 -5.75 -20.75 -6.5 -21.5 -7.0 -25.0 -5.5 -28.25" fill="#262626" fill-rule="evenodd" stroke="none"/>
    <path d="M-9.75 -18.75 L-10.25 -17.75 Q-16.05 -15.3 -22.25 -14.25 -16.0 -16.15 -9.75 -18.75" fill="#b7b7b7" fill-rule="evenodd" stroke="none"/>
    <path d="M8.5 13.25 L2.5 14.0 2.0 14.0 1.25 14.25 0.0 14.0 0.75 13.75 1.25 13.75 2.0 13.5 12.0 11.5 13.25 11.75 18.0 11.25 8.85 13.2 8.5 13.25" fill="#555555" fill-rule="evenodd" stroke="none"/>
    <path d="M-10.25 -16.25 L-10.25 -10.25 -11.0 -10.25 -10.25 -16.25" fill="#565656" fill-rule="evenodd" stroke="none"/>
    <path d="M31.65 19.7 L23.65 21.0 8.85 13.2 18.0 11.25 20.0 10.5 21.3 10.65 31.65 19.7" fill="#ffffff" fill-rule="evenodd" stroke="none"/>
    <path d="M24.75 -1.5 L25.25 -1.5 Q32.75 -4.5 31.75 7.25 L29.75 8.75 27.25 9.0 24.25 7.5 22.5 4.0 22.5 3.5 22.75 1.75 23.75 -0.5 24.75 -1.5" fill="#2e2e2e" fill-rule="evenodd" stroke="none"/>
    <path d="M23.25 -1.0 L24.75 -1.5 23.75 -0.5 23.25 -1.0 M27.25 9.0 L24.75 8.25 Q23.25 7.75 22.5 4.0 L24.25 7.5 27.25 9.0" fill="#383838" fill-rule="evenodd" stroke="none"/>
    <path d="M1.75 -0.5 L-8.5 -9.25 -7.5 -16.25 -7.75 -17.0 -6.75 -17.25 5.5 -5.75 1.75 -0.5" fill="#686868" fill-rule="evenodd" stroke="none"/>
    <path d="M13.75 9.75 L13.25 10.0 12.0 10.0 2.75 1.25 2.5 0.5 6.0 -4.5 21.0 9.0 19.75 9.25 19.25 9.5 16.75 9.5 16.25 9.75 13.75 9.75" fill="#6c6c6c" fill-rule="evenodd" stroke="none"/>
    <path d="M13.25 11.75 L20.0 10.5 18.0 11.25 13.25 11.75" fill="#595959" fill-rule="evenodd" stroke="none"/>
    <path d="M38.55 13.5 L40.5 15.35 38.85 16.65 37.0 15.05 38.55 13.5" fill="#343434" fill-rule="evenodd" stroke="none"/>
    <path d="M-23.0 -6.75 L-22.5 -12.5 -22.25 -13.75 -22.25 -14.25 Q-16.05 -15.3 -10.25 -17.75 L-10.25 -16.25 -11.0 -10.25 Q-16.35 -7.65 -21.75 -7.0 L-22.0 -7.0 -23.0 -6.75" fill="url(#gradient0)" fill-rule="evenodd" stroke="none"/>
    <path d="M-17.65 -32.6 L-18.05 -30.45 -20.25 -29.65 -19.9 -31.7 -17.65 -32.6" fill="url(#gradient1)" fill-rule="evenodd" stroke="none"/>
    <path d="M-28.65 -28.9 L-26.4 -29.8 -26.8 -27.65 -29.0 -26.85 -28.65 -28.9" fill="url(#gradient2)" fill-rule="evenodd" stroke="none"/>
    <path d="M-28.65 -31.8 L-28.95 -31.7 -28.7 -33.25 -15.85 -38.1 -14.2 -36.5 -15.1 -34.75 -16.4 -36.15 -28.65 -31.8" fill="#333333" fill-rule="evenodd" stroke="none"/>
    <path d="M0.0 14.0 L-1.5 14.25 Q-12.95 5.85 -23.0 -6.0 -16.8 -6.6 -10.25 -9.5 0.5 2.95 12.0 11.5 L2.0 13.5 1.25 13.75 0.75 13.75 0.0 14.0" fill="url(#gradient3)" fill-rule="evenodd" stroke="none"/>
    <path d="M36.0 19.0 L31.65 19.7 21.3 10.65 22.5 10.75 36.0 19.0 M23.65 21.0 L22.0 21.25 8.5 13.25 8.85 13.2 23.65 21.0" fill="#e6e6e6" fill-rule="evenodd" stroke="none"/>
    <path d="M-23.0 -6.0 L-23.0 -6.75 -22.0 -7.0 -21.75 -7.0 Q-16.35 -7.65 -11.0 -10.25 L-10.25 -10.25 -10.25 -9.5 Q-16.8 -6.6 -23.0 -6.0" fill="#5b5c5c" fill-rule="evenodd" stroke="none"/>
  </g>
  <defs>
    <radialGradient cx="0" cy="0" gradientTransform="matrix(0.011, 0.0, 0.0, 0.011, -15.5, -11.8)" gradientUnits="userSpaceOnUse" id="gradient0" r="819.2" spreadMethod="pad">
      <stop offset="0.0" stop-color="#c4ced5"/>
      <stop offset="1.0" stop-color="#555555"/>
    </radialGradient>
    <radialGradient cx="0" cy="0" gradientTransform="matrix(0.0035, 0.0, 0.0, 0.0035, -18.6, -32.0)" gradientUnits="userSpaceOnUse" id="gradient1" r="819.2" spreadMethod="pad">
      <stop offset="0.0" stop-color="#990000"/>
      <stop offset="1.0" stop-color="#660000"/>
    </radialGradient>
    <radialGradient cx="0" cy="0" gradientTransform="matrix(0.0038, 0.0, 0.0, 0.0038, -26.9, -29.15)" gradientUnits="userSpaceOnUse" id="gradient2" r="819.2" spreadMethod="pad">
      <stop offset="0.0" stop-color="#990000"/>
      <stop offset="1.0" stop-color="#660000"/>
    </radialGradient>
    <radialGradient cx="0" cy="0" gradientTransform="matrix(0.032, 0.0, 0.0, 0.032, -8.6, -4.8)" gradientUnits="userSpaceOnUse" id="gradient3" r="819.2" spreadMethod="pad">
      <stop offset="0.0" stop-color="#ffffff"/>
      <stop offset="1.0" stop-color="#e2e2e2"/>
    </radialGradient>
  </defs>
</svg>
