<?xml version="1.0" encoding="UTF-8" standalone="no"?>
<svg xmlns:ffdec="https://www.free-decompiler.com/flash" xmlns:xlink="http://www.w3.org/1999/xlink" ffdec:objectType="shape" height="59.5px" width="72.35px" xmlns="http://www.w3.org/2000/svg">
  <g transform="matrix(1.0, 0.0, 0.0, 1.0, 30.25, 37.5)">
    <path d="M4.5 -0.75 L6.0 0.75 6.5 1.0 7.75 2.25 8.25 2.5 9.5 3.75 10.25 4.25 11.5 5.5 12.0 5.75 13.25 7.0 13.75 7.25 15.25 7.75 16.5 7.5 17.75 7.5 19.0 7.25 20.25 7.25 22.75 6.75 7.5 -6.25 4.0 -1.0 4.5 -0.75 M0.75 -4.0 L1.5 -3.25 2.25 -2.75 Q4.25 -1.75 6.25 -7.5 L-6.5 -18.25 Q-8.0 -18.0 -7.5 -12.75 L-7.0 -10.25 -6.5 -10.0 -5.75 -9.25 -5.25 -9.0 -4.25 -8.0 -3.75 -7.75 -2.75 -6.75 -2.25 -6.5 -1.25 -5.5 -0.75 -5.25 0.0 -4.5 0.75 -4.0 M-0.5 -19.5 L0.0 -19.5 2.25 -21.25 24.25 -2.75 24.5 -2.25 24.25 -1.5 23.75 -0.5 23.75 1.75 Q23.5 4.0 26.25 6.0 L29.75 6.5 31.75 6.0 32.75 4.75 40.5 11.25 39.15 12.7 40.55 13.95 38.5 16.0 23.25 8.0 21.0 8.5 20.0 8.5 19.25 8.75 18.25 8.75 17.5 9.0 16.5 9.0 15.75 9.25 15.25 9.5 14.0 9.25 Q2.2 0.7 -9.25 -10.5 L-9.25 -14.75 -9.25 -19.5 Q-13.2 -22.8 -17.5 -30.25 L-17.3 -35.9 -15.35 -34.15 -14.25 -35.55 -6.25 -28.75 Q-7.75 -26.75 -7.25 -24.0 L-6.5 -22.25 -5.25 -21.0 -5.25 -20.75 -3.25 -19.25 -0.5 -19.5" fill="#645f52" fill-rule="evenodd" stroke="none"/>
    <path d="M-17.3 -35.9 L-17.5 -30.25 Q-23.1 -25.05 -30.25 -22.5 L-29.6 -28.25 -17.3 -35.9 M-18.1 -32.45 L-20.65 -30.95 -20.75 -29.25 -18.1 -30.8 -18.1 -32.45 M-29.45 -25.85 L-29.55 -24.15 -26.9 -25.7 -26.9 -27.35 -29.45 -25.85" fill="#a1a1a1" fill-rule="evenodd" stroke="none"/>
    <path d="M-17.5 -30.25 Q-13.2 -22.8 -9.25 -19.5 L-22.25 -12.25 Q-26.1 -15.55 -30.25 -22.5 -23.1 -25.05 -17.5 -30.25" fill="#fbfbfb" fill-rule="evenodd" stroke="none"/>
    <path d="M2.25 -21.25 L0.0 -19.5 -0.5 -19.5 -3.0 -19.5 -5.25 -20.75 -5.25 -21.0 -6.5 -22.25 -7.25 -24.0 Q-7.75 -26.75 -6.25 -28.75 L-4.75 -29.75 -0.5 -29.5 2.25 -26.5 Q3.0 -26.0 2.25 -21.25" fill="#202020" fill-rule="evenodd" stroke="none"/>
    <path d="M-0.5 -19.5 L-3.25 -19.25 -5.25 -20.75 -3.0 -19.5 -0.5 -19.5" fill="#434343" fill-rule="evenodd" stroke="none"/>
    <path d="M-9.25 -19.5 L-9.25 -14.75 -9.75 -15.0 -9.75 -18.25 -10.25 -18.25 -22.25 -11.25 -22.25 -12.25 -9.25 -19.5" fill="#bababa" fill-rule="evenodd" stroke="none"/>
    <path d="M0.75 -4.0 L0.0 -4.5 -0.75 -5.25 -1.25 -5.5 -2.25 -6.5 -2.75 -6.75 -3.75 -7.75 -4.25 -8.0 -5.25 -9.0 -5.75 -9.25 -6.5 -10.0 -7.0 -10.25 -7.5 -12.75 Q-8.0 -18.0 -6.5 -18.25 L6.25 -7.5 Q4.25 -1.75 2.25 -2.75 L1.5 -3.25 0.75 -4.0" fill="#646464" fill-rule="evenodd" stroke="none"/>
    <path d="M22.95 8.15 L35.15 17.4 26.65 20.9 11.25 15.2 9.5 14.25 22.95 8.15" fill="#ffffff" fill-rule="evenodd" stroke="none"/>
    <path d="M14.0 9.25 L15.25 9.5 2.0 15.25 0.75 15.5 14.0 9.25" fill="#fefefe" fill-rule="evenodd" stroke="none"/>
    <path d="M29.75 6.5 L26.25 6.0 Q23.5 4.0 23.75 1.75 L25.75 5.25 29.75 6.5 M24.5 -2.25 L24.25 -2.75 25.25 -3.25 24.5 -2.25" fill="#3b3b3b" fill-rule="evenodd" stroke="none"/>
    <path d="M32.75 4.75 L31.75 6.0 29.75 6.5 25.75 5.25 23.75 1.75 23.75 -0.5 24.25 -1.5 24.5 -2.25 25.25 -3.25 26.75 -4.0 30.75 -3.25 32.75 -1.0 Q33.5 2.0 32.75 4.75" fill="#272727" fill-rule="evenodd" stroke="none"/>
    <path d="M4.5 -0.75 L4.0 -1.0 7.5 -6.25 22.75 6.75 20.25 7.25 19.0 7.25 17.75 7.5 16.5 7.5 15.25 7.75 13.75 7.25 13.25 7.0 12.0 5.75 11.5 5.5 10.25 4.25 9.5 3.75 8.25 2.5 7.75 2.25 6.5 1.0 6.0 0.75 4.5 -0.75" fill="#666666" fill-rule="evenodd" stroke="none"/>
    <path d="M40.55 13.95 L39.15 12.7 40.5 11.25 42.1 12.8 40.9 14.25 40.55 13.95" fill="#343434" fill-rule="evenodd" stroke="none"/>
    <path d="M-9.25 -14.75 L-9.25 -10.5 -10.0 -11.25 Q-15.75 -6.4 -22.25 -4.25 L-22.25 -11.25 -10.25 -18.25 -9.75 -18.25 -9.75 -15.0 -9.25 -14.75" fill="url(#gradient0)" fill-rule="evenodd" stroke="none"/>
    <path d="M15.25 9.5 L15.75 9.25 16.5 9.0 17.5 9.0 18.25 8.75 19.25 8.75 20.0 8.5 21.0 8.5 23.25 8.0 22.95 8.15 9.5 14.25 2.5 15.5 2.0 15.25 15.25 9.5" fill="url(#gradient1)" fill-rule="evenodd" stroke="none"/>
    <path d="M-18.1 -32.45 L-18.1 -30.8 -20.75 -29.25 -20.65 -30.95 -18.1 -32.45" fill="url(#gradient2)" fill-rule="evenodd" stroke="none"/>
    <path d="M-29.45 -25.85 L-26.9 -27.35 -26.9 -25.7 -29.55 -24.15 -29.45 -25.85" fill="url(#gradient3)" fill-rule="evenodd" stroke="none"/>
    <path d="M-14.25 -35.55 L-15.35 -34.15 -17.3 -35.9 -29.6 -28.25 -30.05 -28.0 -29.9 -29.4 -17.25 -37.25 -16.5 -37.5 -14.25 -35.55" fill="#333333" fill-rule="evenodd" stroke="none"/>
    <path d="M-9.25 -10.5 Q2.2 0.7 14.0 9.25 L0.75 15.5 Q-11.3 7.2 -22.0 -3.5 -15.6 -6.05 -9.25 -10.5" fill="url(#gradient4)" fill-rule="evenodd" stroke="none"/>
    <path d="M23.25 8.0 L38.5 16.0 35.15 17.4 22.95 8.15 23.25 8.0 M26.65 20.9 L24.0 22.0 11.25 15.2 26.65 20.9" fill="#e6e6e6" fill-rule="evenodd" stroke="none"/>
    <path d="M-22.0 -3.5 L-22.25 -4.25 Q-15.75 -6.4 -10.0 -11.25 L-9.25 -10.5 Q-15.6 -6.05 -22.0 -3.5" fill="#5b5c5c" fill-rule="evenodd" stroke="none"/>
  </g>
  <defs>
    <radialGradient cx="0" cy="0" gradientTransform="matrix(0.0131, 0.0, 0.0, 0.0131, -15.0, -12.1)" gradientUnits="userSpaceOnUse" id="gradient0" r="819.2" spreadMethod="pad">
      <stop offset="0.0" stop-color="#c4ced5"/>
      <stop offset="1.0" stop-color="#555555"/>
    </radialGradient>
    <radialGradient cx="0" cy="0" gradientTransform="matrix(0.0185, 0.0, 0.0, 0.0185, 7.6, 14.2)" gradientUnits="userSpaceOnUse" id="gradient1" r="819.2" spreadMethod="pad">
      <stop offset="0.0" stop-color="#c4ced5"/>
      <stop offset="1.0" stop-color="#555555"/>
    </radialGradient>
    <radialGradient cx="0" cy="0" gradientTransform="matrix(0.0034, 0.0, 0.0, 0.0034, -19.1, -31.45)" gradientUnits="userSpaceOnUse" id="gradient2" r="819.2" spreadMethod="pad">
      <stop offset="0.0" stop-color="#990000"/>
      <stop offset="1.0" stop-color="#660000"/>
    </radialGradient>
    <radialGradient cx="0" cy="0" gradientTransform="matrix(0.004, 0.0, 0.0, 0.004, -27.5, -26.65)" gradientUnits="userSpaceOnUse" id="gradient3" r="819.2" spreadMethod="pad">
      <stop offset="0.0" stop-color="#990000"/>
      <stop offset="1.0" stop-color="#660000"/>
    </radialGradient>
    <radialGradient cx="0" cy="0" gradientTransform="matrix(0.0251, 0.0, 0.0, 0.0251, -1.6, -0.6)" gradientUnits="userSpaceOnUse" id="gradient4" r="819.2" spreadMethod="pad">
      <stop offset="0.0" stop-color="#ffffff"/>
      <stop offset="1.0" stop-color="#e2e2e2"/>
    </radialGradient>
  </defs>
</svg>
