<?xml version="1.0" encoding="UTF-8" standalone="no"?>
<svg xmlns:ffdec="https://www.free-decompiler.com/flash" xmlns:xlink="http://www.w3.org/1999/xlink" ffdec:objectType="shape" height="59.25px" width="73.8px" xmlns="http://www.w3.org/2000/svg">
  <g transform="matrix(1.0, 0.0, 0.0, 1.0, 30.8, 37.0)">
    <path d="M-0.25 -20.25 L0.0 -20.25 2.0 -21.75 25.0 -4.25 24.5 -2.5 Q24.25 4.0 31.0 4.0 L31.5 4.0 33.5 2.5 41.0 8.05 40.35 9.65 42.05 11.3 40.0 13.25 24.75 5.75 24.6 5.85 23.5 6.5 23.0 6.0 18.5 6.75 18.0 6.75 16.0 7.0 Q3.1 -0.85 -8.25 -11.75 L-8.5 -12.5 -8.5 -13.25 -9.25 -17.25 -9.25 -18.25 -9.0 -19.0 -9.25 -19.75 -9.0 -20.25 Q-13.35 -23.65 -17.75 -30.0 L-18.1 -34.95 -16.25 -33.3 -15.45 -35.4 -6.75 -28.75 -7.5 -24.75 -6.5 -23.0 -6.5 -22.75 -3.5 -20.0 -0.25 -20.25 M7.0 -9.0 L-6.25 -19.0 -7.0 -18.0 -6.5 -11.75 -6.0 -11.5 4.5 -4.0 7.0 -9.0 M5.5 -2.75 L12.0 2.25 13.0 3.25 15.25 4.75 16.0 5.5 17.75 5.25 18.25 5.25 24.0 4.5 8.5 -7.75 Q7.25 -8.0 5.5 -2.75" fill="#4d493f" fill-rule="evenodd" stroke="none"/>
    <path d="M-18.1 -34.95 L-17.75 -30.0 Q-23.75 -24.05 -30.5 -19.25 L-30.5 -24.35 -18.1 -34.95 M-18.55 -30.2 L-18.55 -32.0 -20.6 -30.35 -20.7 -28.45 -18.55 -30.2 M-27.95 -22.6 L-27.9 -24.15 -30.1 -22.5 -30.1 -20.85 -27.95 -22.6" fill="#a3a3a3" fill-rule="evenodd" stroke="none"/>
    <path d="M-17.75 -30.0 Q-13.35 -23.65 -9.0 -20.25 L-9.25 -19.75 -22.0 -9.5 Q-26.4 -12.9 -30.5 -19.25 -23.75 -24.05 -17.75 -30.0 M23.5 6.5 L24.6 5.85 36.85 15.25 27.8 20.85 12.55 16.0 11.0 15.25 10.75 15.25 15.5 12.0 16.0 11.75 21.0 8.25 21.5 8.0 23.0 6.75 23.25 6.5 23.5 6.5" fill="#ffffff" fill-rule="evenodd" stroke="none"/>
    <path d="M2.0 -21.75 L0.0 -20.25 -0.25 -20.25 -3.25 -20.25 -6.5 -22.75 -6.5 -23.0 -7.5 -24.75 -6.75 -28.75 Q1.75 -33.0 2.0 -21.75" fill="#1a1a1a" fill-rule="evenodd" stroke="none"/>
    <path d="M-0.25 -20.25 L-3.5 -20.0 -6.5 -22.75 -3.25 -20.25 -0.25 -20.25" fill="#4a4a4a" fill-rule="evenodd" stroke="none"/>
    <path d="M-9.25 -19.75 L-9.0 -19.0 -9.5 -18.75 -22.0 -8.75 -22.0 -9.5 -9.25 -19.75" fill="#bcbcbc" fill-rule="evenodd" stroke="none"/>
    <path d="M7.0 -9.0 L4.5 -4.0 -6.0 -11.5 -6.5 -11.75 -7.0 -18.0 -6.25 -19.0 7.0 -9.0" fill="#616161" fill-rule="evenodd" stroke="none"/>
    <path d="M33.5 2.5 L31.5 4.0 31.0 4.0 Q25.75 3.5 24.5 -2.5 L25.0 -4.25 25.5 -5.0 Q33.5 -9.0 33.5 2.5" fill="#1f1f1f" fill-rule="evenodd" stroke="none"/>
    <path d="M31.0 4.0 Q24.25 4.0 24.5 -2.5 25.75 3.5 31.0 4.0" fill="#444444" fill-rule="evenodd" stroke="none"/>
    <path d="M5.5 -2.75 Q7.25 -8.0 8.5 -7.75 L24.0 4.5 18.25 5.25 17.75 5.25 16.0 5.5 15.25 4.75 13.0 3.25 12.0 2.25 5.5 -2.75" fill="#626262" fill-rule="evenodd" stroke="none"/>
    <path d="M42.05 11.3 L40.35 9.65 41.0 8.05 43.0 9.5 Q43.15 10.05 42.25 11.1 L42.05 11.3" fill="#343434" fill-rule="evenodd" stroke="none"/>
    <path d="M-9.0 -19.0 L-9.25 -18.25 -9.25 -17.25 -8.5 -13.25 -8.5 -12.5 -8.25 -11.75 -9.0 -12.0 Q-13.9 -7.0 -20.75 -2.0 L-21.25 -2.25 -22.0 -8.75 -9.5 -18.75 -9.0 -19.0" fill="url(#gradient0)" fill-rule="evenodd" stroke="none"/>
    <path d="M18.0 6.75 L18.5 6.75 23.0 6.0 23.5 6.5 23.25 6.5 23.0 6.75 21.5 8.0 21.0 8.25 16.0 11.75 15.5 12.0 10.75 15.25 4.0 16.25 5.0 15.75 5.5 15.25 6.0 15.0 8.25 13.5 8.75 13.0 9.25 12.75 16.25 7.75 17.25 7.25 18.0 6.75" fill="url(#gradient1)" fill-rule="evenodd" stroke="none"/>
    <path d="M-18.55 -30.2 L-20.7 -28.45 -20.6 -30.35 -18.55 -32.0 -18.55 -30.2" fill="url(#gradient2)" fill-rule="evenodd" stroke="none"/>
    <path d="M-27.95 -22.6 L-30.1 -20.85 -30.1 -22.5 -27.9 -24.15 -27.95 -22.6" fill="url(#gradient3)" fill-rule="evenodd" stroke="none"/>
    <path d="M-15.45 -35.4 L-16.25 -33.3 -18.1 -34.95 -30.5 -24.35 -30.8 -24.15 -30.75 -25.25 -30.5 -25.5 -30.5 -25.75 -18.25 -36.5 -17.5 -37.0 -15.45 -35.4" fill="#333333" fill-rule="evenodd" stroke="none"/>
    <path d="M-8.25 -11.75 Q3.1 -0.85 16.0 7.0 L18.0 6.75 17.25 7.25 16.25 7.75 9.25 12.75 8.75 13.0 8.25 13.5 6.0 15.0 5.5 15.25 5.0 15.75 4.0 16.25 2.5 16.5 Q-10.25 9.4 -21.25 -1.7 L-20.75 -2.0 Q-14.15 -6.05 -8.25 -11.75" fill="url(#gradient4)" fill-rule="evenodd" stroke="none"/>
    <path d="M24.6 5.85 L24.75 5.75 40.0 13.25 36.85 15.25 24.6 5.85 M12.55 16.0 L27.8 20.85 25.5 22.25 12.55 16.0" fill="#e6e6e6" fill-rule="evenodd" stroke="none"/>
    <path d="M-21.25 -1.7 L-21.25 -2.25 -20.75 -2.0 -21.25 -1.7 M-8.25 -11.75 Q-14.15 -6.05 -20.75 -2.0 -13.9 -7.0 -9.0 -12.0 L-8.25 -11.75" fill="#5b5c5c" fill-rule="evenodd" stroke="none"/>
  </g>
  <defs>
    <radialGradient cx="0" cy="0" gradientTransform="matrix(0.0163, 0.0, 0.0, 0.0163, -13.1, -12.8)" gradientUnits="userSpaceOnUse" id="gradient0" r="819.2" spreadMethod="pad">
      <stop offset="0.0" stop-color="#c4ced5"/>
      <stop offset="1.0" stop-color="#555555"/>
    </radialGradient>
    <radialGradient cx="0" cy="0" gradientTransform="matrix(0.0181, 0.0, 0.0, 0.0181, 10.6, 13.8)" gradientUnits="userSpaceOnUse" id="gradient1" r="819.2" spreadMethod="pad">
      <stop offset="0.0" stop-color="#c4ced5"/>
      <stop offset="1.0" stop-color="#555555"/>
    </radialGradient>
    <radialGradient cx="0" cy="0" gradientTransform="matrix(0.0037, 0.0, 0.0, 0.0037, -18.85, -30.9)" gradientUnits="userSpaceOnUse" id="gradient2" r="819.2" spreadMethod="pad">
      <stop offset="0.0" stop-color="#990000"/>
      <stop offset="1.0" stop-color="#660000"/>
    </radialGradient>
    <radialGradient cx="0" cy="0" gradientTransform="matrix(0.0037, 0.0, 0.0, 0.0037, -28.5, -23.4)" gradientUnits="userSpaceOnUse" id="gradient3" r="819.2" spreadMethod="pad">
      <stop offset="0.0" stop-color="#990000"/>
      <stop offset="1.0" stop-color="#660000"/>
    </radialGradient>
    <radialGradient cx="0" cy="0" gradientTransform="matrix(0.0255, 0.0, 0.0, 0.0255, -0.4, -2.6)" gradientUnits="userSpaceOnUse" id="gradient4" r="819.2" spreadMethod="pad">
      <stop offset="0.0" stop-color="#ffffff"/>
      <stop offset="1.0" stop-color="#e2e2e2"/>
    </radialGradient>
  </defs>
</svg>
