<?xml version="1.0" encoding="UTF-8" standalone="no"?>
<svg xmlns:ffdec="https://www.free-decompiler.com/flash" xmlns:xlink="http://www.w3.org/1999/xlink" ffdec:objectType="shape" height="4.2px" width="4.7px" xmlns="http://www.w3.org/2000/svg">
  <g transform="matrix(1.0, 0.0, 0.0, 1.0, 4.4, 2.3)">
    <path d="M-3.75 0.05 L-3.15 -0.3 Q-2.8 -0.3 -2.8 0.15 -2.8 0.6 -3.2 0.6 -3.65 0.6 -3.75 0.05" fill="#333333" fill-rule="evenodd" stroke="none"/>
    <path d="M-3.75 0.05 L-3.15 -0.3 Q-2.8 -0.3 -2.8 0.15 -2.8 0.6 -3.2 0.6 -3.65 0.6 -3.75 0.05 Z" fill="none" stroke="#000000" stroke-linecap="round" stroke-linejoin="round" stroke-width="0.1"/>
    <path d="M0.15 1.5 L-0.1 1.85 Q-0.45 1.95 -0.6 1.45 -0.75 0.85 -0.25 0.75 0.1 0.65 0.25 1.1 L0.15 1.5" fill="#333333" fill-rule="evenodd" stroke="none"/>
    <path d="M0.15 1.5 L-0.1 1.85 Q-0.45 1.95 -0.6 1.45 -0.75 0.85 -0.25 0.75 0.1 0.65 0.25 1.1 L0.15 1.5 Z" fill="none" stroke="#000000" stroke-linecap="round" stroke-linejoin="round" stroke-width="0.1"/>
    <path d="M-4.25 -1.65 Q-4.5 -1.75 -4.35 -2.05 -4.3 -2.4 -4.05 -2.25 -3.85 -2.1 -3.95 -1.85 L-3.95 -1.8 -4.0 -1.65 -4.25 -1.65" fill="#333333" fill-rule="evenodd" stroke="none"/>
  </g>
</svg>
