<?xml version="1.0" encoding="UTF-8" standalone="no"?>
<svg xmlns:ffdec="https://www.free-decompiler.com/flash" xmlns:xlink="http://www.w3.org/1999/xlink" ffdec:objectType="shape" height="57.1px" width="77.25px" xmlns="http://www.w3.org/2000/svg">
  <g transform="matrix(1.0, 0.0, 0.0, 1.0, 31.8, 34.9)">
    <path d="M-4.8 -14.2 L-5.0 -13.8 6.4 -7.0 7.0 -7.4 8.4 -11.6 -5.8 -20.0 -6.4 -19.6 -4.8 -14.2 M8.2 -6.6 L8.0 -6.0 19.0 0.6 25.2 0.2 26.4 -0.4 9.8 -10.6 Q8.8 -10.6 8.2 -6.6 M0.0 -21.2 L1.0 -22.2 25.4 -7.6 25.4 -6.2 33.6 -1.2 34.6 -2.0 42.5 2.7 41.65 3.7 44.15 5.35 42.8 7.0 27.45 0.85 27.4 0.8 19.6 1.8 Q6.5 -4.7 -6.2 -13.6 L-8.15 -19.9 Q-7.45 -19.4 -8.2 -20.0 L-11.35 -22.4 Q-14.65 -24.9 -18.6 -29.0 L-19.8 -33.45 -17.8 -31.95 -17.15 -33.25 -8.2 -27.8 -8.4 -26.4 Q-6.2 -19.2 0.0 -21.2" fill="#1b1916" fill-rule="evenodd" stroke="none"/>
    <path d="M-19.8 -33.45 L-18.6 -29.0 Q-23.8 -20.3 -30.6 -12.8 L-31.55 -17.25 -19.8 -33.45 M-19.6 -30.75 L-22.05 -27.4 -21.8 -25.9 -19.35 -29.2 -19.6 -30.75 M-28.35 -19.15 L-30.8 -15.8 -30.55 -14.3 -28.1 -17.6 -28.35 -19.15" fill="#a7a7a7" fill-rule="evenodd" stroke="none"/>
    <path d="M-18.6 -29.0 Q-14.65 -24.9 -11.35 -22.4 L-8.2 -20.0 Q-7.45 -19.4 -8.15 -19.9 L-8.2 -20.0 -8.8 -20.4 -21.0 -4.4 Q-25.8 -7.05 -30.6 -12.8 -23.8 -20.3 -18.6 -29.0" fill="#ffffff" fill-rule="evenodd" stroke="none"/>
    <path d="M1.0 -22.2 L0.0 -21.2 Q-5.4 -20.0 -8.4 -26.4 L-8.2 -27.8 -6.2 -29.2 -3.0 -28.6 0.2 -26.0 Q1.8 -24.0 1.0 -22.2" fill="#0e0e0e" fill-rule="evenodd" stroke="none"/>
    <path d="M0.0 -21.2 Q-6.2 -19.2 -8.4 -26.4 -5.4 -20.0 0.0 -21.2" fill="#4b4b4b" fill-rule="evenodd" stroke="none"/>
    <path d="M-8.15 -19.9 L-6.2 -13.6 Q-11.55 -5.6 -18.8 2.4 L-19.0 1.6 -18.2 1.4 Q-11.7 -5.5 -6.6 -13.8 L-8.8 -19.4 -20.6 -4.2 -20.6 -3.2 -21.0 -4.4 -8.8 -20.4 -8.2 -20.0 -8.15 -19.9" fill="#bfbfbf" fill-rule="evenodd" stroke="none"/>
    <path d="M7.0 -7.4 L-4.8 -14.2 -6.4 -19.6 -5.8 -20.0 8.4 -11.6 7.0 -7.4" fill="#5a5a5a" fill-rule="evenodd" stroke="none"/>
    <path d="M7.0 -7.4 L6.4 -7.0 -5.0 -13.8 -4.8 -14.2 7.0 -7.4" fill="#9f9f9f" fill-rule="evenodd" stroke="none"/>
    <path d="M26.4 -0.4 L25.2 0.2 19.0 0.6 26.4 -0.4" fill="#555555" fill-rule="evenodd" stroke="none"/>
    <path d="M34.6 -2.0 L33.6 -1.2 25.4 -6.2 25.4 -7.6 Q32.4 -12.2 34.6 -2.0" fill="#0f0f0f" fill-rule="evenodd" stroke="none"/>
    <path d="M19.0 0.6 L8.2 -6.6 Q8.8 -10.6 9.8 -10.6 L26.4 -0.4 19.0 0.6" fill="#5b5b5b" fill-rule="evenodd" stroke="none"/>
    <path d="M19.0 0.6 L8.0 -6.0 8.2 -6.6 19.0 0.6" fill="#838383" fill-rule="evenodd" stroke="none"/>
    <path d="M42.8 7.0 L44.15 5.35 41.65 3.7 42.5 2.7 42.65 2.45 45.45 4.2 29.65 21.95 29.2 21.8 31.15 19.65 39.0 11.15 42.8 7.0" fill="#171717" fill-rule="evenodd" stroke="none"/>
    <path d="M-20.6 -3.2 L-20.6 -4.2 -8.8 -19.4 -6.6 -13.8 -7.2 -13.8 Q-13.1 -5.25 -19.0 1.6 L-20.6 -3.2" fill="url(#gradient0)" fill-rule="evenodd" stroke="none"/>
    <path d="M13.6 16.4 L8.0 17.2 8.4 16.6 9.2 15.8 9.6 15.2 10.2 14.6 10.6 14.0 11.4 13.2 11.8 12.6 12.6 11.8 13.0 11.2 13.8 10.4 14.2 9.8 14.8 9.2 15.4 8.4 16.0 7.8 16.4 7.2 17.0 6.6 18.8 4.4 19.0 4.0 20.6 2.4 22.2 1.8 Q25.6 1.0 26.0 1.8 L13.6 16.4" fill="url(#gradient1)" fill-rule="evenodd" stroke="none"/>
    <path d="M-19.6 -30.75 L-19.35 -29.2 -21.8 -25.9 -22.05 -27.4 -19.6 -30.75" fill="url(#gradient2)" fill-rule="evenodd" stroke="none"/>
    <path d="M-28.35 -19.15 L-28.1 -17.6 -30.55 -14.3 -30.8 -15.8 -28.35 -19.15" fill="url(#gradient3)" fill-rule="evenodd" stroke="none"/>
    <path d="M-17.15 -33.25 L-17.8 -31.95 -19.8 -33.45 -31.55 -17.25 -31.8 -18.2 -19.55 -34.9 -17.15 -33.25" fill="#333333" fill-rule="evenodd" stroke="none"/>
    <path d="M-6.2 -13.6 Q6.5 -4.7 19.6 1.8 L27.4 0.8 27.45 0.85 39.0 11.15 31.15 19.65 15.3 17.05 13.6 16.4 26.0 1.8 Q25.6 1.0 22.2 1.8 L20.6 2.4 19.0 4.0 18.8 4.4 17.0 6.6 16.4 7.2 16.0 7.8 15.4 8.4 14.8 9.2 14.2 9.8 13.8 10.4 13.0 11.2 12.6 11.8 11.8 12.6 11.4 13.2 10.6 14.0 10.2 14.6 9.6 15.2 9.2 15.8 8.4 16.6 8.0 17.2 6.2 17.4 Q-6.65 11.25 -18.8 2.4 -11.55 -5.6 -6.2 -13.6" fill="url(#gradient4)" fill-rule="evenodd" stroke="none"/>
    <path d="M27.45 0.85 L42.8 7.0 39.0 11.15 27.45 0.85 M29.2 21.8 L28.8 22.2 15.3 17.05 31.15 19.65 29.2 21.8" fill="#cccccc" fill-rule="evenodd" stroke="none"/>
    <path d="M-6.6 -13.8 Q-11.7 -5.5 -18.2 1.4 L-19.0 1.6 Q-13.1 -5.25 -7.2 -13.8 L-6.6 -13.8" fill="#5b5c5c" fill-rule="evenodd" stroke="none"/>
  </g>
  <defs>
    <radialGradient cx="0" cy="0" gradientTransform="matrix(0.0215, 0.0, 0.0, 0.0215, -10.7, -13.9)" gradientUnits="userSpaceOnUse" id="gradient0" r="819.2" spreadMethod="pad">
      <stop offset="0.0" stop-color="#c4ced5"/>
      <stop offset="1.0" stop-color="#555555"/>
    </radialGradient>
    <radialGradient cx="0" cy="0" gradientTransform="matrix(0.018, 0.0, 0.0, 0.018, 19.3, 7.7)" gradientUnits="userSpaceOnUse" id="gradient1" r="819.2" spreadMethod="pad">
      <stop offset="0.0" stop-color="#c4ced5"/>
      <stop offset="1.0" stop-color="#555555"/>
    </radialGradient>
    <radialGradient cx="0" cy="0" gradientTransform="matrix(0.0048, 0.0, 0.0, 0.0048, -20.1, -29.4)" gradientUnits="userSpaceOnUse" id="gradient2" r="819.2" spreadMethod="pad">
      <stop offset="0.0" stop-color="#990000"/>
      <stop offset="1.0" stop-color="#660000"/>
    </radialGradient>
    <radialGradient cx="0" cy="0" gradientTransform="matrix(0.0057, 0.0, 0.0, 0.0057, -28.4, -18.45)" gradientUnits="userSpaceOnUse" id="gradient3" r="819.2" spreadMethod="pad">
      <stop offset="0.0" stop-color="#990000"/>
      <stop offset="1.0" stop-color="#660000"/>
    </radialGradient>
    <radialGradient cx="0" cy="0" gradientTransform="matrix(0.0496, 0.0, 0.0, 0.0496, 3.4, -3.0)" gradientUnits="userSpaceOnUse" id="gradient4" r="819.2" spreadMethod="pad">
      <stop offset="0.0" stop-color="#ffffff"/>
      <stop offset="1.0" stop-color="#e2e2e2"/>
    </radialGradient>
  </defs>
</svg>
