<?xml version="1.0" encoding="UTF-8" standalone="no"?>
<svg xmlns:ffdec="https://www.free-decompiler.com/flash" xmlns:xlink="http://www.w3.org/1999/xlink" ffdec:objectType="shape" height="55.25px" width="77.8px" xmlns="http://www.w3.org/2000/svg">
  <g transform="matrix(1.0, 0.0, 0.0, 1.0, 32.5, 33.45)">
    <path d="M9.2 -8.2 L8.8 -7.8 20.4 -1.8 25.8 -2.0 27.2 -2.6 10.2 -11.8 Q9.2 -11.8 9.2 -8.2 M-4.0 -15.0 L7.4 -8.6 8.0 -9.0 8.6 -12.8 -6.0 -19.6 -6.0 -19.4 -5.2 -17.8 -5.0 -17.2 -4.8 -16.8 -4.6 -16.2 -4.4 -15.8 -4.2 -15.2 -4.0 -15.0 M0.4 -21.8 L25.4 -8.8 Q26.1 -7.05 26.9 -5.75 29.75 -1.15 34.0 -3.2 L34.6 -3.8 42.8 0.45 42.25 1.45 44.35 2.7 43.4 4.2 28.2 -1.4 27.85 -1.35 21.0 -0.6 Q7.3 -6.15 -5.2 -14.4 L-8.4 -20.6 Q-12.6 -22.45 -18.8 -28.0 L-20.35 -31.7 -17.95 -29.95 -17.75 -31.65 -9.0 -26.8 -9.0 -25.8 Q-5.9 -19.2 -0.5 -21.1 L-0.2 -21.2 0.4 -21.8" fill="#010101" fill-rule="evenodd" stroke="none"/>
    <path d="M-30.4 -9.4 L-31.9 -13.4 -20.35 -31.7 -18.8 -28.0 Q-23.8 -17.9 -30.4 -9.4 M-22.4 -26.0 L-21.85 -24.5 -19.45 -28.1 -20.3 -29.7 -22.4 -26.0 M-28.85 -15.95 L-30.95 -12.25 -30.4 -10.75 -28.0 -14.35 -28.85 -15.95" fill="#a9a9a9" fill-rule="evenodd" stroke="none"/>
    <path d="M-20.2 -2.2 Q-25.3 -3.95 -30.4 -9.4 -23.8 -17.9 -18.8 -28.0 -12.6 -22.45 -8.4 -20.6 L-20.2 -2.2" fill="#ffffff" fill-rule="evenodd" stroke="none"/>
    <path d="M-9.0 -26.8 L-8.0 -28.0 -3.8 -27.6 0.0 -24.6 0.6 -23.4 0.4 -21.8 -0.2 -21.2 -0.5 -21.1 Q-2.3 -20.55 -5.6 -22.2 L-9.0 -25.8 -9.0 -26.8 M25.4 -8.8 L26.4 -10.2 30.4 -9.8 33.6 -7.4 Q35.4 -5.4 34.6 -3.8 L34.0 -3.2 Q28.95 -3.8 26.9 -5.75 26.1 -7.05 25.4 -8.8" fill="#080808" fill-rule="evenodd" stroke="none"/>
    <path d="M-9.0 -25.8 L-5.6 -22.2 Q-2.3 -20.55 -0.5 -21.1 -5.9 -19.2 -9.0 -25.8" fill="#454545" fill-rule="evenodd" stroke="none"/>
    <path d="M-17.4 3.8 L-17.6 3.2 -16.2 2.0 -15.9 0.95 -15.8 0.6 -15.1 -0.15 Q-9.05 -6.85 -5.8 -14.6 L-8.4 -19.4 -9.0 -19.4 -9.4 -18.0 -19.8 -2.2 -19.6 -0.8 -20.2 -2.2 -8.4 -20.6 -5.2 -14.4 Q-9.95 -5.45 -16.2 2.0 L-17.4 3.8" fill="#c0c0c0" fill-rule="evenodd" stroke="none"/>
    <path d="M20.4 -1.8 L9.2 -8.2 Q9.2 -11.8 10.2 -11.8 L27.2 -2.6 20.4 -1.8 M-4.0 -15.0 L-4.2 -15.2 -4.4 -15.8 -4.6 -16.2 -4.8 -16.8 -5.0 -17.2 -5.2 -17.8 -6.0 -19.4 -6.0 -19.6 8.6 -12.8 8.0 -9.0 -4.0 -15.0" fill="#575757" fill-rule="evenodd" stroke="none"/>
    <path d="M8.0 -9.0 L7.4 -8.6 -4.0 -15.0 8.0 -9.0" fill="#a3a3a3" fill-rule="evenodd" stroke="none"/>
    <path d="M27.2 -2.6 L25.8 -2.0 20.4 -1.8 27.2 -2.6" fill="#555555" fill-rule="evenodd" stroke="none"/>
    <path d="M34.0 -3.2 Q29.75 -1.15 26.9 -5.75 28.95 -3.8 34.0 -3.2" fill="#4a4a4a" fill-rule="evenodd" stroke="none"/>
    <path d="M20.4 -1.8 L8.8 -7.8 9.2 -8.2 20.4 -1.8" fill="#858585" fill-rule="evenodd" stroke="none"/>
    <path d="M42.8 0.45 L45.0 1.6 44.95 1.7 45.3 1.85 45.3 2.05 31.6 21.45 31.25 21.2 32.6 19.3 40.25 8.65 43.4 4.2 44.35 2.7 42.25 1.45 42.8 0.45" fill="#171717" fill-rule="evenodd" stroke="none"/>
    <path d="M-17.6 3.2 L-19.6 -0.8 -19.8 -2.2 -9.4 -18.0 -9.0 -19.4 -8.4 -19.4 -5.8 -14.6 -6.4 -14.6 Q-10.2 -7.05 -15.1 -0.15 L-15.8 0.6 -15.9 0.95 -17.6 3.2" fill="url(#gradient0)" fill-rule="evenodd" stroke="none"/>
    <path d="M15.0 16.6 L14.2 16.6 13.6 16.8 12.8 16.8 12.2 17.0 11.6 17.0 10.8 17.2 10.2 17.2 10.8 15.6 19.8 3.0 20.4 2.0 22.0 0.0 27.0 -0.6 15.05 16.6 15.0 16.6" fill="url(#gradient1)" fill-rule="evenodd" stroke="none"/>
    <path d="M-22.4 -26.0 L-20.3 -29.7 -19.45 -28.1 -21.85 -24.5 -22.4 -26.0" fill="url(#gradient2)" fill-rule="evenodd" stroke="none"/>
    <path d="M-28.85 -15.95 L-28.0 -14.35 -30.4 -10.75 -30.95 -12.25 -28.85 -15.95" fill="url(#gradient3)" fill-rule="evenodd" stroke="none"/>
    <path d="M-31.9 -13.4 L-32.1 -13.05 -32.5 -14.15 -21.8 -31.85 -20.35 -33.45 -17.85 -31.65 -17.75 -31.65 -17.95 -29.95 -20.35 -31.7 -31.9 -13.4" fill="#333333" fill-rule="evenodd" stroke="none"/>
    <path d="M16.9 16.9 L15.6 16.4 15.05 16.6 15.0 16.6 15.05 16.6 27.0 -0.6 22.0 0.0 20.4 2.0 19.8 3.0 10.8 15.6 10.2 17.2 8.4 17.4 Q-4.85 12.3 -17.4 3.8 L-16.2 2.0 Q-9.95 -5.45 -5.2 -14.4 7.3 -6.15 21.0 -0.6 L27.85 -1.35 40.25 8.65 32.6 19.3 16.9 16.9" fill="url(#gradient4)" fill-rule="evenodd" stroke="none"/>
    <path d="M31.25 21.2 L30.8 21.8 16.9 16.9 32.6 19.3 31.25 21.2 M27.85 -1.35 L28.2 -1.4 43.4 4.2 40.25 8.65 27.85 -1.35" fill="#cccccc" fill-rule="evenodd" stroke="none"/>
    <path d="M-5.8 -14.6 Q-9.05 -6.85 -15.1 -0.15 -10.2 -7.05 -6.4 -14.6 L-5.8 -14.6 M-15.9 0.95 L-16.2 2.0 -17.6 3.2 -15.9 0.95" fill="#5b5c5c" fill-rule="evenodd" stroke="none"/>
  </g>
  <defs>
    <radialGradient cx="0" cy="0" gradientTransform="matrix(0.0241, 0.0, 0.0, 0.0241, -9.5, -14.8)" gradientUnits="userSpaceOnUse" id="gradient0" r="819.2" spreadMethod="pad">
      <stop offset="0.0" stop-color="#c4ced5"/>
      <stop offset="1.0" stop-color="#555555"/>
    </radialGradient>
    <radialGradient cx="0" cy="0" gradientTransform="matrix(0.0228, 0.0, 0.0, 0.0228, 22.6, 3.2)" gradientUnits="userSpaceOnUse" id="gradient1" r="819.2" spreadMethod="pad">
      <stop offset="0.0" stop-color="#c4ced5"/>
      <stop offset="1.0" stop-color="#555555"/>
    </radialGradient>
    <radialGradient cx="0" cy="0" gradientTransform="matrix(0.0056, 0.0, 0.0, 0.0056, -20.3, -28.8)" gradientUnits="userSpaceOnUse" id="gradient2" r="819.2" spreadMethod="pad">
      <stop offset="0.0" stop-color="#990000"/>
      <stop offset="1.0" stop-color="#660000"/>
    </radialGradient>
    <radialGradient cx="0" cy="0" gradientTransform="matrix(0.0053, 0.0, 0.0, 0.0053, -28.8, -14.8)" gradientUnits="userSpaceOnUse" id="gradient3" r="819.2" spreadMethod="pad">
      <stop offset="0.0" stop-color="#990000"/>
      <stop offset="1.0" stop-color="#660000"/>
    </radialGradient>
    <radialGradient cx="0" cy="0" gradientTransform="matrix(0.0499, 0.0, 0.0, 0.0499, 3.6, -5.0)" gradientUnits="userSpaceOnUse" id="gradient4" r="819.2" spreadMethod="pad">
      <stop offset="0.0" stop-color="#ffffff"/>
      <stop offset="1.0" stop-color="#e2e2e2"/>
    </radialGradient>
  </defs>
</svg>
