<?xml version="1.0" encoding="UTF-8" standalone="no"?>
<svg xmlns:ffdec="https://www.free-decompiler.com/flash" xmlns:xlink="http://www.w3.org/1999/xlink" ffdec:objectType="shape" height="52.55px" width="78.05px" xmlns="http://www.w3.org/2000/svg">
  <g transform="matrix(1.0, 0.0, 0.0, 1.0, 32.45, 31.35)">
    <path d="M-3.2 -15.6 L8.0 -10.2 8.8 -10.0 9.0 -10.6 9.2 -13.6 -5.8 -20.0 -6.0 -19.4 Q-5.65 -19.5 -5.05 -18.75 L-3.2 -15.6 M10.0 -9.8 L9.8 -9.4 21.6 -4.0 26.0 -4.0 27.8 -4.6 10.6 -12.8 10.0 -12.0 10.0 -9.8 M29.0 -3.6 L22.2 -3.0 Q8.3 -7.55 -4.4 -15.2 L-8.2 -20.4 Q-13.15 -22.7 -19.0 -27.0 L-20.7 -29.85 -18.4 -28.4 -18.45 -29.7 -9.6 -25.8 -9.4 -25.4 -9.4 -25.0 Q-4.05 -18.45 -0.45 -20.95 L0.0 -21.4 25.0 -9.8 Q30.0 -2.2 34.2 -5.2 L44.6 -0.8 44.7 -0.75 45.2 -0.4 44.0 1.6 29.0 -3.6" fill="#000000" fill-rule="evenodd" stroke="none"/>
    <path d="M-20.7 -29.85 L-19.0 -27.0 Q-23.35 -16.4 -30.0 -6.6 L-31.6 -9.7 -31.75 -9.95 -20.75 -29.9 -20.7 -29.85 M-28.45 -13.85 L-30.9 -9.3 -30.05 -7.85 -27.45 -12.4 -28.45 -13.85 M-23.0 -23.65 L-22.15 -22.2 -19.55 -26.75 -20.55 -28.2 -23.0 -23.65" fill="#aaaaaa" fill-rule="evenodd" stroke="none"/>
    <path d="M17.2 16.4 L28.8 -3.2 41.6 5.65 33.8 18.6 18.05 16.65 17.2 16.4 M-19.0 -27.0 Q-13.15 -22.7 -8.2 -20.4 L-19.4 -0.2 Q-24.55 -2.35 -30.0 -6.6 -23.35 -16.4 -19.0 -27.0" fill="#ffffff" fill-rule="evenodd" stroke="none"/>
    <path d="M25.0 -9.8 L26.4 -11.2 30.4 -10.4 34.2 -7.4 34.2 -5.2 Q31.4 -4.8 28.6 -6.4 L25.0 -9.8 M0.0 -21.4 L-0.45 -20.95 Q-1.55 -20.25 -5.8 -22.0 L-9.4 -25.0 -9.4 -25.4 -9.6 -25.8 -9.0 -26.8 -4.8 -26.4 -1.2 -24.2 -0.2 -23.0 0.0 -21.4" fill="#080808" fill-rule="evenodd" stroke="none"/>
    <path d="M-0.45 -20.95 Q-4.05 -18.45 -9.4 -25.0 L-5.8 -22.0 Q-1.55 -20.25 -0.45 -20.95" fill="#414141" fill-rule="evenodd" stroke="none"/>
    <path d="M-8.2 -20.4 L-4.4 -15.2 Q-8.8 -3.8 -15.6 5.2 L-16.2 4.4 -14.6 2.8 Q-8.75 -5.45 -4.8 -15.2 L-8.0 -19.4 -8.8 -18.8 -18.8 -0.2 -17.2 2.8 -19.4 -0.2 -8.2 -20.4" fill="#bfbfbf" fill-rule="evenodd" stroke="none"/>
    <path d="M-5.05 -18.75 Q-5.65 -19.5 -6.0 -19.4 L-5.8 -20.0 -5.05 -18.75 M27.8 -4.6 L26.0 -4.0 21.6 -4.0 21.8 -4.4 27.8 -4.6" fill="#555555" fill-rule="evenodd" stroke="none"/>
    <path d="M-3.2 -15.6 L-5.05 -18.75 -5.8 -20.0 9.2 -13.6 9.0 -10.6 -3.2 -15.6 M10.0 -9.8 L10.0 -12.0 10.6 -12.8 27.8 -4.6 21.8 -4.4 10.0 -9.8" fill="#575757" fill-rule="evenodd" stroke="none"/>
    <path d="M9.0 -10.6 L8.8 -10.0 8.0 -10.2 -3.2 -15.6 9.0 -10.6" fill="#868686" fill-rule="evenodd" stroke="none"/>
    <path d="M25.0 -9.8 L28.6 -6.4 Q31.4 -4.8 34.2 -5.2 30.0 -2.2 25.0 -9.8" fill="#464646" fill-rule="evenodd" stroke="none"/>
    <path d="M16.6 16.4 L27.8 -2.6 26.8 -3.0 23.2 -2.4 22.0 -0.8 11.8 16.8 16.6 16.4 10.6 17.2 22.2 -3.0 29.0 -3.6 28.8 -3.2 17.2 16.4 16.6 16.4" fill="#fcfcfc" fill-rule="evenodd" stroke="none"/>
    <path d="M21.6 -4.0 L9.8 -9.4 10.0 -9.8 21.8 -4.4 21.6 -4.0" fill="#7a7a7a" fill-rule="evenodd" stroke="none"/>
    <path d="M44.7 -0.75 L45.6 -0.4 33.3 20.3 32.75 20.3 33.8 18.6 41.6 5.65 44.0 1.6 45.2 -0.4 44.7 -0.75" fill="#171717" fill-rule="evenodd" stroke="none"/>
    <path d="M-16.2 4.4 L-17.2 2.8 -18.8 -0.2 -8.8 -18.8 -8.0 -19.4 -4.8 -15.2 -5.4 -15.2 Q-10.0 -4.05 -16.2 4.4" fill="url(#gradient0)" fill-rule="evenodd" stroke="none"/>
    <path d="M16.6 16.4 L11.8 16.8 22.0 -0.8 23.2 -2.4 26.8 -3.0 27.8 -2.6 16.6 16.4" fill="url(#gradient1)" fill-rule="evenodd" stroke="none"/>
    <path d="M-23.0 -23.65 L-20.55 -28.2 -19.55 -26.75 -22.15 -22.2 -23.0 -23.65" fill="url(#gradient2)" fill-rule="evenodd" stroke="none"/>
    <path d="M-28.45 -13.85 L-27.45 -12.4 -30.05 -7.85 -30.9 -9.3 -28.45 -13.85" fill="url(#gradient3)" fill-rule="evenodd" stroke="none"/>
    <path d="M-18.45 -29.7 L-18.4 -28.4 -20.7 -29.85 -20.75 -29.9 -31.75 -9.95 -31.6 -9.7 -32.45 -10.9 -21.55 -31.35 -18.45 -29.7" fill="#333333" fill-rule="evenodd" stroke="none"/>
    <path d="M22.2 -3.0 L10.6 17.2 9.0 16.6 Q-4.0 12.45 -15.6 5.2 -8.8 -3.8 -4.4 -15.2 8.3 -7.55 22.2 -3.0" fill="url(#gradient4)" fill-rule="evenodd" stroke="none"/>
    <path d="M28.8 -3.2 L29.0 -3.6 44.0 1.6 41.6 5.65 28.8 -3.2 M32.75 20.3 L32.2 21.2 18.05 16.65 33.8 18.6 32.75 20.3" fill="#cccccc" fill-rule="evenodd" stroke="none"/>
    <path d="M-4.8 -15.2 Q-8.75 -5.45 -14.6 2.8 L-16.2 4.4 Q-10.0 -4.05 -5.4 -15.2 L-4.8 -15.2" fill="#5b5c5c" fill-rule="evenodd" stroke="none"/>
  </g>
  <defs>
    <radialGradient cx="0" cy="0" gradientTransform="matrix(0.0257, 0.0, 0.0, 0.0257, -8.8, -15.3)" gradientUnits="userSpaceOnUse" id="gradient0" r="819.2" spreadMethod="pad">
      <stop offset="0.0" stop-color="#c4ced5"/>
      <stop offset="1.0" stop-color="#555555"/>
    </radialGradient>
    <radialGradient cx="0" cy="0" gradientTransform="matrix(0.0232, 0.0, 0.0, 0.0232, 23.2, 1.6)" gradientUnits="userSpaceOnUse" id="gradient1" r="819.2" spreadMethod="pad">
      <stop offset="0.0" stop-color="#c4ced5"/>
      <stop offset="1.0" stop-color="#555555"/>
    </radialGradient>
    <radialGradient cx="0" cy="0" gradientTransform="matrix(0.0061, 0.0, 0.0, 0.0061, -20.9, -27.05)" gradientUnits="userSpaceOnUse" id="gradient2" r="819.2" spreadMethod="pad">
      <stop offset="0.0" stop-color="#990000"/>
      <stop offset="1.0" stop-color="#660000"/>
    </radialGradient>
    <radialGradient cx="0" cy="0" gradientTransform="matrix(0.0066, 0.0, 0.0, 0.0066, -28.2, -12.9)" gradientUnits="userSpaceOnUse" id="gradient3" r="819.2" spreadMethod="pad">
      <stop offset="0.0" stop-color="#990000"/>
      <stop offset="1.0" stop-color="#660000"/>
    </radialGradient>
    <radialGradient cx="0" cy="0" gradientTransform="matrix(0.0298, 0.0, 0.0, 0.0298, 4.2, -6.4)" gradientUnits="userSpaceOnUse" id="gradient4" r="819.2" spreadMethod="pad">
      <stop offset="0.0" stop-color="#ffffff"/>
      <stop offset="1.0" stop-color="#e2e2e2"/>
    </radialGradient>
  </defs>
</svg>
