<?xml version="1.0" encoding="UTF-8" standalone="no"?>
<svg xmlns:ffdec="https://www.free-decompiler.com/flash" xmlns:xlink="http://www.w3.org/1999/xlink" ffdec:objectType="shape" height="50.6px" width="78.0px" xmlns="http://www.w3.org/2000/svg">
  <g transform="matrix(1.0, 0.0, 0.0, 1.0, 32.9, 29.6)">
    <path d="M-29.8 -3.8 L-32.15 -6.0 -22.0 -28.8 -19.8 -26.6 Q-24.05 -14.45 -29.8 -3.8 M-20.5 -26.5 L-21.7 -27.8 -23.6 -23.65 -22.65 -22.5 -20.5 -26.5 M-28.15 -9.05 L-29.35 -10.35 -31.25 -6.2 -30.3 -5.05 -28.15 -9.05" fill="#a7a7a7" fill-rule="evenodd" stroke="none"/>
    <path d="M-3.0 -17.4 L8.8 -12.4 9.4 -13.0 9.0 -15.0 8.2 -15.4 -6.0 -20.8 -6.4 -20.4 -6.0 -20.0 -3.0 -17.4 M10.4 -12.4 L10.4 -11.8 22.4 -7.0 28.0 -6.6 27.6 -7.2 10.2 -14.4 10.0 -14.0 10.2 -13.4 10.4 -12.4 M33.8 -6.6 L43.4 -2.8 44.6 -2.2 44.0 -1.0 29.0 -6.0 23.2 -6.2 Q9.7 -10.1 -3.8 -17.2 L-8.6 -21.2 Q-13.9 -22.8 -19.8 -26.6 L-22.0 -28.8 -22.8 -29.6 -10.8 -24.8 Q-7.2 -20.2 -1.2 -20.8 L24.2 -10.6 Q29.4 -5.2 33.8 -6.6" fill="#000000" fill-rule="evenodd" stroke="none"/>
    <path d="M19.35 16.7 L18.4 16.4 28.85 -5.7 42.3 2.55 34.7 18.05 19.35 16.7 M-18.8 1.4 Q-24.1 0.2 -29.8 -3.8 -24.05 -14.45 -19.8 -26.6 -13.9 -22.8 -8.6 -21.2 L-18.8 1.4" fill="#ffffff" fill-rule="evenodd" stroke="none"/>
    <path d="M-14.2 5.8 L-18.8 1.4 -8.6 -21.2 -3.8 -17.2 -6.25 -11.75 -4.4 -16.8 -5.0 -17.0 -7.4 -19.4 -8.2 -20.0 -8.8 -20.0 -18.2 1.2 -14.8 4.8 -14.2 4.8 -11.5 -0.15 -14.2 5.8" fill="#bababa" fill-rule="evenodd" stroke="none"/>
    <path d="M24.4 -11.0 Q28.0 -13.2 33.8 -6.6 32.2 -6.6 29.0 -8.0 L24.4 -11.0 M-10.8 -24.8 L-9.4 -25.6 -4.4 -24.2 Q-0.6 -22.4 -1.2 -20.8 L-6.4 -22.2 -10.8 -24.8" fill="#080808" fill-rule="evenodd" stroke="none"/>
    <path d="M-10.8 -24.8 L-6.4 -22.2 -1.2 -20.8 Q-7.2 -20.2 -10.8 -24.8" fill="#3d3d3d" fill-rule="evenodd" stroke="none"/>
    <path d="M24.2 -10.6 L24.4 -11.0 29.0 -8.0 Q32.2 -6.6 33.8 -6.6 29.4 -5.2 24.2 -10.6" fill="#434343" fill-rule="evenodd" stroke="none"/>
    <path d="M-3.0 -17.4 L-6.0 -20.0 -6.4 -20.4 -6.0 -20.8 -2.8 -17.8 -3.0 -17.4" fill="#555555" fill-rule="evenodd" stroke="none"/>
    <path d="M-6.0 -20.8 L8.2 -15.4 9.0 -15.0 9.4 -13.0 -2.8 -17.8 -6.0 -20.8 M10.4 -12.4 L10.2 -13.4 10.0 -14.0 10.2 -14.4 27.6 -7.2 22.6 -7.4 10.4 -12.4" fill="#575757" fill-rule="evenodd" stroke="none"/>
    <path d="M9.4 -13.0 L8.8 -12.4 -3.0 -17.4 -2.8 -17.8 9.4 -13.0" fill="#696969" fill-rule="evenodd" stroke="none"/>
    <path d="M27.6 -7.2 L28.0 -6.6 22.4 -7.0 22.6 -7.4 27.6 -7.2" fill="#565656" fill-rule="evenodd" stroke="none"/>
    <path d="M22.4 -7.0 L10.4 -11.8 10.4 -12.4 22.6 -7.4 22.4 -7.0" fill="#717171" fill-rule="evenodd" stroke="none"/>
    <path d="M18.4 16.4 L12.6 16.4 23.2 -6.2 29.0 -6.0 28.85 -5.7 18.4 16.4 M28.0 -5.2 L27.2 -5.4 23.8 -5.4 13.8 16.0 18.2 16.0 28.0 -5.2" fill="#ececec" fill-rule="evenodd" stroke="none"/>
    <path d="M44.6 -2.2 L45.1 -1.95 34.0 20.9 33.45 20.6 34.7 18.05 42.3 2.55 44.0 -1.0 44.6 -2.2" fill="#171717" fill-rule="evenodd" stroke="none"/>
    <path d="M-14.8 4.8 L-18.2 1.2 -8.8 -20.0 -8.2 -20.0 -7.4 -19.4 -5.0 -17.0 -14.8 4.8" fill="url(#gradient0)" fill-rule="evenodd" stroke="none"/>
    <path d="M28.0 -5.2 L18.2 16.0 13.8 16.0 23.8 -5.4 27.2 -5.4 28.0 -5.2" fill="url(#gradient1)" fill-rule="evenodd" stroke="none"/>
    <path d="M-20.5 -26.5 L-22.65 -22.5 -23.6 -23.65 -21.7 -27.8 -20.5 -26.5" fill="url(#gradient2)" fill-rule="evenodd" stroke="none"/>
    <path d="M-28.15 -9.05 L-30.3 -5.05 -31.25 -6.2 -29.35 -10.35 -28.15 -9.05" fill="url(#gradient3)" fill-rule="evenodd" stroke="none"/>
    <path d="M-32.15 -6.0 Q-33.15 -7.15 -32.8 -7.6 L-22.8 -29.6 -22.0 -28.8 -32.15 -6.0" fill="#333333" fill-rule="evenodd" stroke="none"/>
    <path d="M12.6 16.4 L11.6 16.2 Q-1.3 13.15 -13.8 6.2 L-14.2 5.8 -11.5 -0.15 -6.25 -11.75 -3.8 -17.2 Q9.7 -10.1 23.2 -6.2 L12.6 16.4" fill="url(#gradient4)" fill-rule="evenodd" stroke="none"/>
    <path d="M33.45 20.6 L33.4 20.6 32.6 21.0 19.35 16.7 34.7 18.05 33.45 20.6 M28.85 -5.7 L29.0 -6.0 44.0 -1.0 42.3 2.55 28.85 -5.7" fill="#eaeaea" fill-rule="evenodd" stroke="none"/>
    <path d="M-5.0 -17.0 L-4.4 -16.8 -6.25 -11.75 -11.5 -0.15 -14.2 4.8 -14.8 4.8 -5.0 -17.0" fill="#5b5c5c" fill-rule="evenodd" stroke="none"/>
  </g>
  <defs>
    <radialGradient cx="0" cy="0" gradientTransform="matrix(0.0279, 0.0, 0.0, 0.0279, -7.6, -16.9)" gradientUnits="userSpaceOnUse" id="gradient0" r="819.2" spreadMethod="pad">
      <stop offset="0.0" stop-color="#c4ced5"/>
      <stop offset="1.0" stop-color="#555555"/>
    </radialGradient>
    <radialGradient cx="0" cy="0" gradientTransform="matrix(0.025, 0.0, 0.0, 0.025, 24.3, -1.6)" gradientUnits="userSpaceOnUse" id="gradient1" r="819.2" spreadMethod="pad">
      <stop offset="0.0" stop-color="#c4ced5"/>
      <stop offset="1.0" stop-color="#555555"/>
    </radialGradient>
    <radialGradient cx="0" cy="0" gradientTransform="matrix(0.0049, 0.0, 0.0, 0.0049, -21.85, -26.45)" gradientUnits="userSpaceOnUse" id="gradient2" r="819.2" spreadMethod="pad">
      <stop offset="0.0" stop-color="#990000"/>
      <stop offset="1.0" stop-color="#660000"/>
    </radialGradient>
    <radialGradient cx="0" cy="0" gradientTransform="matrix(0.0056, 0.0, 0.0, 0.0056, -28.9, -9.45)" gradientUnits="userSpaceOnUse" id="gradient3" r="819.2" spreadMethod="pad">
      <stop offset="0.0" stop-color="#990000"/>
      <stop offset="1.0" stop-color="#660000"/>
    </radialGradient>
    <radialGradient cx="0" cy="0" gradientTransform="matrix(0.0315, 0.0, 0.0, 0.0315, 7.6, -8.0)" gradientUnits="userSpaceOnUse" id="gradient4" r="819.2" spreadMethod="pad">
      <stop offset="0.0" stop-color="#ffffff"/>
      <stop offset="1.0" stop-color="#e2e2e2"/>
    </radialGradient>
  </defs>
</svg>
