<?xml version="1.0" encoding="UTF-8" standalone="no"?>
<svg xmlns:ffdec="https://www.free-decompiler.com/flash" xmlns:xlink="http://www.w3.org/1999/xlink" ffdec:objectType="shape" height="51.5px" width="77.8px" xmlns="http://www.w3.org/2000/svg">
  <g transform="matrix(1.0, 0.0, 0.0, 1.0, 32.75, 29.9)">
    <path d="M-2.9 -18.15 L9.0 -13.0 9.35 -13.65 9.0 -15.4 -6.0 -21.25 -6.25 -20.9 -6.0 -20.65 -2.9 -18.15 M10.5 -13.0 L10.35 -12.4 22.35 -7.4 27.0 -6.65 27.85 -6.65 28.0 -7.0 27.6 -7.25 10.75 -14.5 10.25 -14.5 10.35 -13.5 10.5 -13.15 10.5 -13.0 M33.6 -6.25 L44.15 -1.65 44.5 -1.5 44.5 -1.4 43.85 -0.65 29.0 -6.0 23.25 -6.75 Q9.75 -11.45 -3.75 -18.15 L-8.4 -21.65 Q-13.6 -23.3 -19.5 -27.15 L-21.8 -29.15 -22.65 -29.9 -10.65 -25.0 Q-6.4 -20.4 -1.15 -20.9 L24.25 -10.25 Q30.0 -5.15 33.6 -6.25" fill="#000000" fill-rule="evenodd" stroke="none"/>
    <path d="M-29.9 -4.4 L-32.2 -6.8 -21.8 -29.15 -19.5 -27.15 Q-23.3 -15.0 -29.9 -4.4 M-21.55 -28.3 L-23.4 -24.2 -22.2 -23.3 -20.3 -27.2 -21.55 -28.3 M-30.2 -5.65 L-28.3 -9.55 -29.55 -10.65 -31.4 -6.55 -30.2 -5.65" fill="#a3a3a3" fill-rule="evenodd" stroke="none"/>
    <path d="M-18.9 1.1 Q-23.85 -0.4 -29.9 -4.4 -23.3 -15.0 -19.5 -27.15 -13.6 -23.3 -8.4 -21.65 L-18.9 1.1" fill="#fafafa" fill-rule="evenodd" stroke="none"/>
    <path d="M-10.65 -25.0 L-10.5 -25.25 Q-6.0 -21.5 -1.0 -21.4 L-1.15 -20.9 Q-6.4 -20.4 -10.65 -25.0" fill="#3a3a3a" fill-rule="evenodd" stroke="none"/>
    <path d="M24.6 -10.75 L24.75 -11.25 25.5 -11.25 28.75 -10.4 32.0 -8.75 33.75 -7.4 34.0 -7.0 33.75 -6.65 29.35 -7.75 27.85 -8.4 24.6 -10.75 M-10.5 -25.25 L-10.25 -25.75 -7.5 -25.4 -3.25 -23.5 -1.75 -22.5 -1.0 -21.4 Q-6.0 -21.5 -10.5 -25.25" fill="#080808" fill-rule="evenodd" stroke="none"/>
    <path d="M-14.5 5.0 L-18.9 1.1 -8.4 -21.65 -3.75 -18.15 Q-8.15 -5.4 -14.5 5.0 M-15.0 4.1 L-14.25 4.1 -12.75 0.1 Q-6.95 -8.25 -4.4 -17.65 L-4.9 -17.75 -5.65 -18.5 -8.4 -20.65 -18.25 0.85 -15.0 4.1" fill="#b7b7b7" fill-rule="evenodd" stroke="none"/>
    <path d="M-2.9 -18.15 L-6.0 -20.65 -6.25 -20.9 -6.0 -21.25 -2.75 -18.5 -2.9 -18.15 M-13.9 5.6 L-14.25 5.25 -13.75 5.35 -13.9 5.6" fill="#555555" fill-rule="evenodd" stroke="none"/>
    <path d="M-6.0 -21.25 L9.0 -15.4 9.35 -13.65 -2.75 -18.5 -6.0 -21.25 M10.5 -13.0 L10.5 -13.15 10.35 -13.5 10.25 -14.5 10.75 -14.5 27.6 -7.25 28.0 -7.0 27.85 -6.65 27.0 -6.65 22.35 -7.4 22.6 -7.9 10.5 -13.0" fill="#575757" fill-rule="evenodd" stroke="none"/>
    <path d="M9.35 -13.65 L9.0 -13.0 -2.9 -18.15 -2.75 -18.5 9.35 -13.65" fill="#636363" fill-rule="evenodd" stroke="none"/>
    <path d="M22.35 -7.4 L10.35 -12.4 10.5 -13.0 22.6 -7.9 22.35 -7.4 M11.25 16.1 L-0.65 11.25 -0.65 10.85 11.35 15.85 11.25 16.1" fill="#686868" fill-rule="evenodd" stroke="none"/>
    <path d="M33.75 -6.65 L33.6 -6.25 Q30.0 -5.15 24.25 -10.25 L24.6 -10.75 27.85 -8.4 29.35 -7.75 33.75 -6.65" fill="#414141" fill-rule="evenodd" stroke="none"/>
    <path d="M18.35 16.55 L18.25 16.5 28.85 -5.7 42.4 2.45 38.65 10.25 34.6 18.55 18.35 16.55" fill="#ffffff" fill-rule="evenodd" stroke="none"/>
    <path d="M18.25 16.5 L16.25 16.5 15.1 16.35 14.25 16.35 13.6 16.25 12.35 16.25 21.75 -3.65 23.0 -5.65 23.25 -6.75 29.0 -6.0 28.85 -5.7 18.25 16.5 M22.75 -3.4 L22.6 -3.15 21.85 -1.4 21.6 -1.0 13.75 15.5 Q14.0 16.25 18.1 16.0 L28.25 -5.25 28.0 -5.4 23.85 -5.9 23.5 -5.15 23.35 -4.9 23.25 -4.65 23.1 -4.4 23.1 -4.25 22.6 -3.75 22.75 -3.4" fill="#ececec" fill-rule="evenodd" stroke="none"/>
    <path d="M12.0 16.1 L11.25 16.1 11.35 15.85 12.0 16.1" fill="#565656" fill-rule="evenodd" stroke="none"/>
    <path d="M-1.9 10.35 L-2.25 10.5 -13.9 5.6 -13.75 5.35 -1.9 10.35" fill="#676767" fill-rule="evenodd" stroke="none"/>
    <path d="M22.75 -3.4 L22.6 -3.75 23.1 -4.25 22.75 -3.4" fill="#656565" fill-rule="evenodd" stroke="none"/>
    <path d="M43.85 -0.65 L44.5 -1.4 38.65 10.25 42.4 2.45 43.85 -0.65" fill="#c7c7c7" fill-rule="evenodd" stroke="none"/>
    <path d="M44.15 -1.65 L45.05 -1.3 34.1 21.25 33.35 21.1 34.6 18.55 38.65 10.25 44.5 -1.4 44.5 -1.5 44.15 -1.65" fill="#171717" fill-rule="evenodd" stroke="none"/>
    <path d="M-15.0 4.1 L-18.25 0.85 -8.4 -20.65 -5.65 -18.5 -4.9 -17.75 Q-8.15 -8.55 -12.75 0.1 L-13.65 1.75 -15.0 4.1" fill="url(#gradient0)" fill-rule="evenodd" stroke="none"/>
    <path d="M23.1 -4.25 L23.1 -4.4 23.25 -4.65 23.35 -4.9 23.5 -5.15 23.85 -5.9 28.0 -5.4 28.25 -5.25 18.1 16.0 Q14.0 16.25 13.75 15.5 L21.6 -1.0 21.85 -1.4 22.6 -3.15 22.75 -3.4 23.1 -4.25" fill="url(#gradient1)" fill-rule="evenodd" stroke="none"/>
    <path d="M-21.55 -28.3 L-20.3 -27.2 -22.2 -23.3 -23.4 -24.2 -21.55 -28.3" fill="url(#gradient2)" fill-rule="evenodd" stroke="none"/>
    <path d="M-30.2 -5.65 L-31.4 -6.55 -29.55 -10.65 -28.3 -9.55 -30.2 -5.65" fill="url(#gradient3)" fill-rule="evenodd" stroke="none"/>
    <path d="M-32.2 -6.8 L-32.75 -7.4 -22.65 -29.9 -21.8 -29.15 -32.2 -6.8" fill="#333333" fill-rule="evenodd" stroke="none"/>
    <path d="M12.35 16.25 L12.0 16.1 11.35 15.85 -0.65 10.85 -1.9 10.35 -13.75 5.35 -14.25 5.25 -14.5 5.0 Q-8.15 -5.4 -3.75 -18.15 9.75 -11.45 23.25 -6.75 L23.0 -5.65 21.75 -3.65 12.35 16.25" fill="url(#gradient4)" fill-rule="evenodd" stroke="none"/>
    <path d="M33.35 21.1 L33.25 21.35 32.85 21.6 18.35 16.55 34.6 18.55 33.35 21.1 M28.85 -5.7 L29.0 -6.0 43.85 -0.65 42.4 2.45 28.85 -5.7" fill="#eaeaea" fill-rule="evenodd" stroke="none"/>
    <path d="M-4.9 -17.75 L-4.4 -17.65 Q-6.95 -8.25 -12.75 0.1 L-14.25 4.1 -15.0 4.1 -13.65 1.75 -12.75 0.1 Q-8.15 -8.55 -4.9 -17.75" fill="#5b5c5c" fill-rule="evenodd" stroke="none"/>
  </g>
  <defs>
    <radialGradient cx="0" cy="0" gradientTransform="matrix(0.028, 0.0, 0.0, 0.028, -7.6, -17.6)" gradientUnits="userSpaceOnUse" id="gradient0" r="819.2" spreadMethod="pad">
      <stop offset="0.0" stop-color="#c4ced5"/>
      <stop offset="1.0" stop-color="#555555"/>
    </radialGradient>
    <radialGradient cx="0" cy="0" gradientTransform="matrix(0.0272, 0.0, 0.0, 0.0272, 25.6, -3.3)" gradientUnits="userSpaceOnUse" id="gradient1" r="819.2" spreadMethod="pad">
      <stop offset="0.0" stop-color="#c4ced5"/>
      <stop offset="1.0" stop-color="#555555"/>
    </radialGradient>
    <radialGradient cx="0" cy="0" gradientTransform="matrix(0.0057, 0.0, 0.0, 0.0057, -21.45, -27.9)" gradientUnits="userSpaceOnUse" id="gradient2" r="819.2" spreadMethod="pad">
      <stop offset="0.0" stop-color="#990000"/>
      <stop offset="1.0" stop-color="#660000"/>
    </radialGradient>
    <radialGradient cx="0" cy="0" gradientTransform="matrix(0.0053, 0.0, 0.0, 0.0053, -29.45, -9.95)" gradientUnits="userSpaceOnUse" id="gradient3" r="819.2" spreadMethod="pad">
      <stop offset="0.0" stop-color="#990000"/>
      <stop offset="1.0" stop-color="#660000"/>
    </radialGradient>
    <radialGradient cx="0" cy="0" gradientTransform="matrix(0.0295, 0.0, 0.0, 0.0295, 5.6, -7.0)" gradientUnits="userSpaceOnUse" id="gradient4" r="819.2" spreadMethod="pad">
      <stop offset="0.0" stop-color="#ffffff"/>
      <stop offset="1.0" stop-color="#e2e2e2"/>
    </radialGradient>
  </defs>
</svg>
