<?xml version="1.0" encoding="UTF-8" standalone="no"?>
<svg xmlns:ffdec="https://www.free-decompiler.com/flash" xmlns:xlink="http://www.w3.org/1999/xlink" ffdec:objectType="shape" height="52.0px" width="77.8px" xmlns="http://www.w3.org/2000/svg">
  <g transform="matrix(1.0, 0.0, 0.0, 1.0, 32.8, 30.0)">
    <path d="M21.4 -8.0 L22.4 -7.8 27.8 -6.6 27.85 -6.7 28.0 -7.2 32.4 -5.4 33.8 -5.8 44.6 -0.8 43.8 -0.2 29.0 -6.0 23.4 -7.0 22.55 -7.4 Q4.65 -13.2 -3.8 -18.8 L-8.4 -22.2 Q-13.15 -23.8 -19.4 -27.6 L-21.5 -29.3 -22.4 -30.0 -10.6 -25.2 -9.0 -23.4 -5.8 -21.8 -6.2 -21.2 -2.8 -18.8 9.0 -13.6 9.4 -14.2 9.0 -15.6 -3.6 -21.0 -1.0 -20.8 24.4 -9.8 27.2 -7.4 10.6 -14.8 10.4 -13.4 11.8 -12.2 20.0 -8.6 22.2 -7.6 21.4 -8.0" fill="#000000" fill-rule="evenodd" stroke="none"/>
    <path d="M-21.5 -29.3 L-19.4 -27.6 Q-23.4 -15.9 -29.8 -4.6 L-32.1 -6.6 -21.5 -29.3 M-22.05 -23.55 L-20.25 -27.45 -21.4 -28.6 -23.2 -24.5 -22.05 -23.55 M-31.2 -6.55 L-30.05 -5.6 -28.25 -9.5 -29.4 -10.65 -31.2 -6.55" fill="#a0a0a0" fill-rule="evenodd" stroke="none"/>
    <path d="M-19.4 -27.6 Q-13.15 -23.8 -8.4 -22.2 L-19.0 0.8 Q-23.9 -0.45 -29.8 -4.6 -23.4 -15.9 -19.4 -27.6" fill="#f3f3f3" fill-rule="evenodd" stroke="none"/>
    <path d="M24.6 -10.4 Q27.4 -11.8 34.0 -6.4 L29.6 -7.4 24.6 -10.4 M-0.8 -21.4 L-5.8 -22.6 -10.6 -25.2 Q-8.6 -27.0 -0.8 -21.4" fill="#080808" fill-rule="evenodd" stroke="none"/>
    <path d="M-5.8 -21.8 L-9.0 -23.4 -10.6 -25.2 -5.8 -22.6 -0.8 -21.4 -1.0 -20.8 -3.6 -21.0 -5.8 -21.8" fill="#3a3a3a" fill-rule="evenodd" stroke="none"/>
    <path d="M-2.8 -18.8 L-6.2 -21.2 -5.8 -21.8 -2.6 -19.2 -2.8 -18.8" fill="#555555" fill-rule="evenodd" stroke="none"/>
    <path d="M9.4 -14.2 L9.0 -13.6 -2.8 -18.8 -2.6 -19.2 9.4 -14.2" fill="#5d5d5d" fill-rule="evenodd" stroke="none"/>
    <path d="M22.4 -7.8 L22.6 -8.2 10.4 -13.4 10.6 -14.8 27.2 -7.4 27.4 -7.4 27.8 -7.2 28.0 -7.2 27.85 -6.7 27.8 -6.6 22.4 -7.8 M-3.6 -21.0 L9.0 -15.6 9.4 -14.2 -2.6 -19.2 -5.8 -21.8 -3.6 -21.0" fill="#575757" fill-rule="evenodd" stroke="none"/>
    <path d="M-8.4 -22.2 L-3.8 -18.8 Q-7.6 -7.5 -14.4 4.4 L-14.4 3.8 -14.6 4.6 -19.0 0.8 -8.4 -22.2 M-4.8 -18.4 L-6.0 -19.6 -8.4 -21.2 -18.4 0.8 -15.0 3.6 -14.4 3.8 Q-8.6 -6.6 -4.6 -17.4 L-4.8 -18.4" fill="#b3b3b3" fill-rule="evenodd" stroke="none"/>
    <path d="M29.0 -6.0 L43.8 -0.2 42.1 3.4 41.85 3.95 41.55 4.5 28.95 -5.9 29.0 -6.0 M33.2 22.0 L18.6 17.0 18.35 16.9 34.95 18.35 33.2 22.0" fill="#eaeaea" fill-rule="evenodd" stroke="none"/>
    <path d="M33.8 -5.8 L32.4 -5.4 28.0 -7.2 27.8 -7.2 27.4 -7.4 27.2 -7.4 24.4 -9.8 24.6 -10.4 29.6 -7.4 34.0 -6.4 33.8 -5.8" fill="#3f3f3f" fill-rule="evenodd" stroke="none"/>
    <path d="M21.4 -8.0 L20.2 -8.6 20.0 -8.6 11.8 -12.2 10.4 -13.4 22.6 -8.2 22.4 -7.8 21.4 -8.0" fill="#616161" fill-rule="evenodd" stroke="none"/>
    <path d="M23.4 -7.0 L29.0 -6.0 28.95 -5.9 18.2 16.8 14.2 16.4 12.4 16.0 23.4 -7.0 M24.8 -6.2 L23.8 -6.2 23.0 -4.4 22.6 -3.8 13.6 15.2 Q13.8 16.2 18.0 16.2 L27.8 -5.6 27.2 -5.6 25.4 -6.0 24.8 -6.2" fill="#ececec" fill-rule="evenodd" stroke="none"/>
    <path d="M43.8 -0.2 L44.6 -0.8 34.0 21.4 33.95 21.5 33.2 22.0 34.95 18.35 41.55 4.5 41.85 3.95 42.1 3.4 43.8 -0.2" fill="#c9c9c9" fill-rule="evenodd" stroke="none"/>
    <path d="M28.95 -5.9 L41.55 4.5 34.95 18.35 18.35 16.9 18.2 16.8 28.95 -5.9" fill="#ffffff" fill-rule="evenodd" stroke="none"/>
    <path d="M44.6 -0.8 L45.0 -0.6 34.65 21.8 33.95 21.5 34.0 21.4 44.6 -0.8" fill="#171717" fill-rule="evenodd" stroke="none"/>
    <path d="M-15.0 3.6 L-18.4 0.8 -8.4 -21.2 -6.0 -19.6 -4.8 -18.4 Q-8.8 -7.05 -15.0 3.6" fill="url(#gradient0)" fill-rule="evenodd" stroke="none"/>
    <path d="M24.8 -6.2 L25.4 -6.0 27.2 -5.6 27.8 -5.6 18.0 16.2 Q13.8 16.2 13.6 15.2 L22.6 -3.8 23.0 -4.4 23.8 -6.2 24.8 -6.2" fill="url(#gradient1)" fill-rule="evenodd" stroke="none"/>
    <path d="M-22.05 -23.55 L-23.2 -24.5 -21.4 -28.6 -20.25 -27.45 -22.05 -23.55" fill="url(#gradient2)" fill-rule="evenodd" stroke="none"/>
    <path d="M-31.2 -6.55 L-29.4 -10.65 -28.25 -9.5 -30.05 -5.6 -31.2 -6.55" fill="url(#gradient3)" fill-rule="evenodd" stroke="none"/>
    <path d="M-22.4 -30.0 L-21.5 -29.3 -32.1 -6.6 -32.8 -7.2 -22.4 -30.0" fill="#333333" fill-rule="evenodd" stroke="none"/>
    <path d="M20.0 -8.6 L20.2 -8.6 21.4 -8.0 22.2 -7.6 20.0 -8.6 M-3.8 -18.8 Q4.65 -13.2 22.55 -7.4 L23.4 -7.0 12.4 16.0 11.2 16.0 Q4.2 14.0 -2.45 10.8 L-13.8 5.4 -14.6 4.6 -14.4 3.8 -14.4 4.4 Q-7.6 -7.5 -3.8 -18.8" fill="url(#gradient4)" fill-rule="evenodd" stroke="none"/>
    <path d="M-4.8 -18.4 L-4.6 -17.4 Q-8.6 -6.6 -14.4 3.8 L-15.0 3.6 Q-8.8 -7.05 -4.8 -18.4" fill="#5b5c5c" fill-rule="evenodd" stroke="none"/>
  </g>
  <defs>
    <radialGradient cx="0" cy="0" gradientTransform="matrix(0.0273, 0.0, 0.0, 0.0273, -7.7, -17.6)" gradientUnits="userSpaceOnUse" id="gradient0" r="819.2" spreadMethod="pad">
      <stop offset="0.0" stop-color="#c4ced5"/>
      <stop offset="1.0" stop-color="#555555"/>
    </radialGradient>
    <radialGradient cx="0" cy="0" gradientTransform="matrix(0.0263, 0.0, 0.0, 0.0263, 24.5, -3.4)" gradientUnits="userSpaceOnUse" id="gradient1" r="819.2" spreadMethod="pad">
      <stop offset="0.0" stop-color="#c4ced5"/>
      <stop offset="1.0" stop-color="#555555"/>
    </radialGradient>
    <radialGradient cx="0" cy="0" gradientTransform="matrix(0.0054, 0.0, 0.0, 0.0054, -20.85, -27.8)" gradientUnits="userSpaceOnUse" id="gradient2" r="819.2" spreadMethod="pad">
      <stop offset="0.0" stop-color="#990000"/>
      <stop offset="1.0" stop-color="#660000"/>
    </radialGradient>
    <radialGradient cx="0" cy="0" gradientTransform="matrix(0.0051, 0.0, 0.0, 0.0051, -29.15, -9.7)" gradientUnits="userSpaceOnUse" id="gradient3" r="819.2" spreadMethod="pad">
      <stop offset="0.0" stop-color="#990000"/>
      <stop offset="1.0" stop-color="#660000"/>
    </radialGradient>
    <radialGradient cx="0" cy="0" gradientTransform="matrix(0.0313, 0.0, 0.0, 0.0313, 7.0, -9.0)" gradientUnits="userSpaceOnUse" id="gradient4" r="819.2" spreadMethod="pad">
      <stop offset="0.0" stop-color="#ffffff"/>
      <stop offset="1.0" stop-color="#e2e2e2"/>
    </radialGradient>
  </defs>
</svg>
