<?xml version="1.0" encoding="UTF-8" standalone="no"?>
<svg xmlns:ffdec="https://www.free-decompiler.com/flash" xmlns:xlink="http://www.w3.org/1999/xlink" ffdec:objectType="shape" height="52.5px" width="77.9px" xmlns="http://www.w3.org/2000/svg">
  <g transform="matrix(1.0, 0.0, 0.0, 1.0, 32.75, 30.0)">
    <path d="M10.5 -14.0 L10.5 -13.25 9.0 -14.0 9.5 -14.75 9.25 -15.75 -1.5 -20.5 -1.0 -20.75 24.25 -9.5 25.25 -8.5 10.25 -14.5 10.5 -14.0 M-2.25 -19.0 L-3.75 -19.5 -8.25 -22.5 Q-13.15 -24.2 -19.25 -28.0 L-21.55 -29.5 -22.25 -30.0 -10.5 -25.25 -6.0 -22.0 -2.75 -19.5 -2.25 -19.0 M23.25 -7.5 L22.5 -8.0 27.75 -6.5 28.0 -7.0 32.0 -5.25 33.75 -5.25 43.75 -0.6 44.5 -0.25 44.0 0.0 29.0 -6.0 28.95 -6.0 23.25 -7.5" fill="#000000" fill-rule="evenodd" stroke="none"/>
    <path d="M-21.55 -29.5 L-19.25 -28.0 Q-23.35 -15.6 -29.75 -4.75 L-31.95 -6.55 -21.55 -29.5 M-21.8 -23.6 L-19.8 -27.8 -21.25 -28.75 -23.0 -24.6 -21.8 -23.6 M-31.15 -6.75 L-29.95 -5.75 -27.95 -9.95 -29.4 -10.9 -31.15 -6.75" fill="#9c9c9c" fill-rule="evenodd" stroke="none"/>
    <path d="M-19.25 -28.0 Q-13.15 -24.2 -8.25 -22.5 L-11.1 -16.35 -15.05 -7.9 -19.0 0.5 Q-24.05 -1.15 -29.75 -4.75 -23.35 -15.6 -19.25 -28.0" fill="#eeeeee" fill-rule="evenodd" stroke="none"/>
    <path d="M24.5 -10.0 L26.25 -10.25 Q33.75 -7.5 34.0 -6.0 L29.0 -7.5 24.5 -10.0 M-10.5 -25.25 Q-7.0 -26.5 -0.75 -21.25 L-6.25 -23.0 -10.5 -25.25" fill="#080808" fill-rule="evenodd" stroke="none"/>
    <path d="M-1.0 -20.75 L-1.5 -20.5 -2.0 -20.75 -5.5 -22.0 -6.0 -22.0 -10.5 -25.25 -6.25 -23.0 -0.75 -21.25 -1.0 -20.75" fill="#3b3b3b" fill-rule="evenodd" stroke="none"/>
    <path d="M-14.5 4.0 L-14.0 4.75 -15.5 3.5 -14.5 4.0 M-2.75 -19.5 L-6.0 -22.0 -5.5 -22.0 -2.75 -19.5" fill="#555555" fill-rule="evenodd" stroke="none"/>
    <path d="M22.75 -8.5 L10.5 -14.0 10.25 -14.5 25.25 -8.5 27.0 -7.5 22.75 -8.5 M-1.5 -20.5 L9.25 -15.75 9.5 -14.75 -2.75 -19.5 -5.5 -22.0 -2.0 -20.75 -1.5 -20.5" fill="#575757" fill-rule="evenodd" stroke="none"/>
    <path d="M-3.75 -19.5 L-4.5 -18.25 -4.75 -19.25 -5.0 -19.5 -5.5 -19.75 -6.0 -20.25 -6.5 -20.5 -7.25 -21.0 Q-8.8 -20.55 -11.1 -16.35 L-8.25 -22.5 -3.75 -19.5 M-15.0 3.25 L-14.5 4.0 -15.5 3.5 -19.0 0.5 -15.05 -7.9 -18.25 0.25 -15.0 3.25" fill="#afafaf" fill-rule="evenodd" stroke="none"/>
    <path d="M22.5 -8.0 L22.75 -8.5 27.0 -7.5 27.25 -7.5 27.75 -7.25 28.0 -7.0 27.75 -6.5 22.5 -8.0 M9.0 -14.0 L8.0 -14.5 7.25 -14.75 5.75 -15.5 5.0 -15.75 -2.25 -19.0 -2.75 -19.5 9.5 -14.75 9.0 -14.0" fill="#595959" fill-rule="evenodd" stroke="none"/>
    <path d="M28.0 -7.0 L27.75 -7.25 27.25 -7.5 27.0 -7.5 25.25 -8.5 24.25 -9.5 24.5 -10.0 29.0 -7.5 34.0 -6.0 33.75 -5.25 32.0 -5.25 28.0 -7.0" fill="#3e3e3e" fill-rule="evenodd" stroke="none"/>
    <path d="M22.5 -8.0 L10.75 -13.25 10.5 -13.25 10.5 -14.0 22.75 -8.5 22.5 -8.0" fill="#5c5c5c" fill-rule="evenodd" stroke="none"/>
    <path d="M12.25 16.0 L23.25 -7.5 28.95 -6.0 29.0 -6.0 29.0 -5.95 22.15 7.9 28.25 -5.5 27.0 -5.75 26.25 -6.0 25.75 -6.25 23.75 -6.5 13.5 15.5 16.25 16.25 18.0 16.5 17.75 17.0 12.5 16.0 12.25 16.0" fill="#ededed" fill-rule="evenodd" stroke="none"/>
    <path d="M22.15 7.9 L29.0 -5.95 41.75 4.75 36.0 16.9 35.5 17.95 19.35 17.7 19.0 17.5 18.75 17.5 17.75 17.0 18.0 16.5 22.15 7.9" fill="#ffffff" fill-rule="evenodd" stroke="none"/>
    <path d="M41.75 4.75 L44.0 0.0 44.5 -0.25 36.0 16.9 41.75 4.75" fill="#cbcbcb" fill-rule="evenodd" stroke="none"/>
    <path d="M43.75 -0.6 L45.15 0.0 33.85 22.5 33.4 22.25 35.5 17.95 36.0 16.9 44.5 -0.25 43.75 -0.6" fill="#171717" fill-rule="evenodd" stroke="none"/>
    <path d="M18.0 16.5 L16.25 16.25 13.5 15.5 23.75 -6.5 25.75 -6.25 26.25 -6.0 27.0 -5.75 28.25 -5.5 22.15 7.9 18.0 16.5" fill="url(#gradient0)" fill-rule="evenodd" stroke="none"/>
    <path d="M-11.1 -16.35 Q-8.8 -20.55 -7.25 -21.0 L-6.5 -20.5 -6.0 -20.25 -5.5 -19.75 -5.0 -19.5 -4.75 -19.25 Q-8.5 -8.0 -15.0 3.25 L-18.25 0.25 -15.05 -7.9 -11.1 -16.35" fill="url(#gradient1)" fill-rule="evenodd" stroke="none"/>
    <path d="M-21.8 -23.6 L-23.0 -24.6 -21.25 -28.75 -19.8 -27.8 -21.8 -23.6" fill="url(#gradient2)" fill-rule="evenodd" stroke="none"/>
    <path d="M-31.15 -6.75 L-29.4 -10.9 -27.95 -9.95 -29.95 -5.75 -31.15 -6.75" fill="url(#gradient3)" fill-rule="evenodd" stroke="none"/>
    <path d="M-22.25 -30.0 L-21.55 -29.5 -31.95 -6.55 -32.75 -7.25 -22.25 -30.0" fill="#333333" fill-rule="evenodd" stroke="none"/>
    <path d="M10.5 -13.25 L10.75 -13.25 22.5 -8.0 23.25 -7.5 12.25 16.0 11.0 15.75 Q2.4 12.95 -14.0 4.75 L-14.5 4.0 -15.0 3.25 -14.25 2.75 Q-7.7 -7.55 -4.5 -18.25 L-3.75 -19.5 -2.25 -19.0 5.0 -15.75 5.75 -15.5 7.25 -14.75 8.0 -14.5 9.0 -14.0 10.5 -13.25" fill="url(#gradient4)" fill-rule="evenodd" stroke="none"/>
    <path d="M29.0 -5.95 L29.0 -6.0 44.0 0.0 41.75 4.75 29.0 -5.95 M33.4 22.25 L33.25 22.5 20.0 18.0 19.35 17.7 35.5 17.95 33.4 22.25" fill="#eaeaea" fill-rule="evenodd" stroke="none"/>
    <path d="M-4.5 -18.25 Q-7.7 -7.55 -14.25 2.75 L-15.0 3.25 Q-8.5 -8.0 -4.75 -19.25 L-4.5 -18.25" fill="#5b5c5c" fill-rule="evenodd" stroke="none"/>
  </g>
  <defs>
    <radialGradient cx="0" cy="0" gradientTransform="matrix(0.0267, 0.0, 0.0, 0.0267, 24.5, -3.4)" gradientUnits="userSpaceOnUse" id="gradient0" r="819.2" spreadMethod="pad">
      <stop offset="0.0" stop-color="#c4ced5"/>
      <stop offset="1.0" stop-color="#555555"/>
    </radialGradient>
    <radialGradient cx="0" cy="0" gradientTransform="matrix(0.0262, 0.0, 0.0, 0.0262, -8.6, -17.2)" gradientUnits="userSpaceOnUse" id="gradient1" r="819.2" spreadMethod="pad">
      <stop offset="0.0" stop-color="#c4ced5"/>
      <stop offset="1.0" stop-color="#555555"/>
    </radialGradient>
    <radialGradient cx="0" cy="0" gradientTransform="matrix(0.0056, 0.0, 0.0, 0.0056, -21.2, -28.1)" gradientUnits="userSpaceOnUse" id="gradient2" r="819.2" spreadMethod="pad">
      <stop offset="0.0" stop-color="#990000"/>
      <stop offset="1.0" stop-color="#660000"/>
    </radialGradient>
    <radialGradient cx="0" cy="0" gradientTransform="matrix(0.0053, 0.0, 0.0, 0.0053, -29.2, -10.05)" gradientUnits="userSpaceOnUse" id="gradient3" r="819.2" spreadMethod="pad">
      <stop offset="0.0" stop-color="#990000"/>
      <stop offset="1.0" stop-color="#660000"/>
    </radialGradient>
    <radialGradient cx="0" cy="0" gradientTransform="matrix(0.0321, 0.0, 0.0, 0.0321, 7.2, -9.8)" gradientUnits="userSpaceOnUse" id="gradient4" r="819.2" spreadMethod="pad">
      <stop offset="0.0" stop-color="#ffffff"/>
      <stop offset="1.0" stop-color="#e2e2e2"/>
    </radialGradient>
  </defs>
</svg>
