<?xml version="1.0" encoding="UTF-8" standalone="no"?>
<svg xmlns:ffdec="https://www.free-decompiler.com/flash" xmlns:xlink="http://www.w3.org/1999/xlink" ffdec:objectType="shape" height="53.5px" width="77.85px" xmlns="http://www.w3.org/2000/svg">
  <g transform="matrix(1.0, 0.0, 0.0, 1.0, 32.75, 30.25)">
    <path d="M-29.75 -5.0 L-32.0 -6.65 -21.3 -29.75 -19.25 -28.25 Q-22.75 -16.05 -29.75 -5.0 M-21.95 -23.95 L-20.0 -28.1 -21.15 -28.85 -23.05 -24.75 -21.95 -23.95 M-31.1 -6.6 L-30.0 -5.8 -28.05 -9.95 -29.2 -10.7 -31.1 -6.6" fill="#989898" fill-rule="evenodd" stroke="none"/>
    <path d="M23.0 -9.75 L24.5 -9.25 24.5 -9.0 23.0 -9.75 M33.75 -4.75 L44.5 0.0 44.05 0.25 44.0 0.25 29.15 -5.95 29.0 -6.0 27.5 -6.75 27.95 -6.95 28.0 -7.0 33.75 -4.75 M-22.0 -30.25 L-10.5 -25.0 -5.75 -22.5 -6.25 -22.0 -3.25 -20.0 -3.75 -20.25 -8.25 -23.0 Q-13.0 -24.7 -19.25 -28.25 L-21.3 -29.75 -22.0 -30.25 M-0.75 -20.75 L3.0 -18.75 -1.25 -20.75 -0.75 -20.75 M8.75 -16.25 L14.0 -13.75 10.25 -15.25 10.5 -14.5 10.5 -13.75 9.25 -14.5 9.5 -15.25 8.75 -16.25" fill="#000000" fill-rule="evenodd" stroke="none"/>
    <path d="M-19.0 0.25 Q-24.2 -1.4 -29.75 -5.0 -22.75 -16.05 -19.25 -28.25 -13.0 -24.7 -8.25 -23.0 L-19.0 0.25" fill="#e3e3e3" fill-rule="evenodd" stroke="none"/>
    <path d="M-17.0 2.0 L-19.0 0.25 -8.25 -23.0 -3.75 -20.25 -4.25 -19.5 -4.75 -19.75 -5.25 -20.25 -6.0 -20.75 -6.5 -21.0 -7.25 -21.5 -8.25 -22.0 -18.5 0.25 -15.25 2.5 -14.5 2.75 -14.5 3.5 -17.0 2.0" fill="#ababab" fill-rule="evenodd" stroke="none"/>
    <path d="M24.5 -9.25 L25.75 -10.0 34.0 -5.75 31.5 -6.25 24.5 -9.25 M-10.5 -25.0 L-8.0 -25.25 -0.75 -20.75 -10.5 -25.0" fill="#080808" fill-rule="evenodd" stroke="none"/>
    <path d="M-5.25 -22.25 L-5.75 -22.5 -10.5 -25.0 -0.75 -20.75 -1.25 -20.75 -5.25 -22.25" fill="#373737" fill-rule="evenodd" stroke="none"/>
    <path d="M-14.0 4.25 L-17.0 2.0 -14.5 3.5 -14.0 4.25 M-5.25 -22.25 L-2.5 -20.5 -3.25 -20.0 -6.25 -22.0 -5.75 -22.5 -5.25 -22.25" fill="#555555" fill-rule="evenodd" stroke="none"/>
    <path d="M14.0 -13.75 L14.25 -13.75 22.75 -9.75 23.0 -9.75 24.5 -9.0 26.75 -7.75 22.75 -9.0 10.5 -14.5 10.25 -15.25 14.0 -13.75 M3.0 -18.75 L3.25 -18.75 8.5 -16.25 8.75 -16.25 9.5 -15.25 9.25 -14.5 -3.25 -20.0 -2.5 -20.5 -5.25 -22.25 -1.25 -20.75 3.0 -18.75" fill="#575757" fill-rule="evenodd" stroke="none"/>
    <path d="M10.5 -14.5 L22.75 -9.0 22.5 -8.5 10.5 -13.75 10.5 -14.5" fill="#585858" fill-rule="evenodd" stroke="none"/>
    <path d="M34.0 -5.75 L33.75 -4.75 28.0 -7.0 26.75 -7.75 24.5 -9.0 24.5 -9.25 31.5 -6.25 34.0 -5.75" fill="#3a3a3a" fill-rule="evenodd" stroke="none"/>
    <path d="M11.25 15.5 L1.0 11.25 -1.0 9.75 11.25 15.5 M22.75 -9.0 L26.75 -7.75 28.0 -7.0 27.95 -6.95 27.5 -6.75 27.25 -6.75 26.75 -7.0 26.5 -7.0 23.25 -8.0 22.5 -8.5 22.75 -9.0" fill="#5a5a5a" fill-rule="evenodd" stroke="none"/>
    <path d="M27.5 -6.75 L29.0 -6.0 18.0 17.0 16.5 17.0 12.25 15.5 23.25 -8.0 26.5 -7.0 26.75 -7.0 27.25 -6.75 27.5 -6.75 M27.5 -6.0 Q24.0 -7.75 23.5 -6.5 L13.5 14.75 14.0 15.5 18.0 16.5 28.25 -5.25 27.5 -6.0" fill="#ededed" fill-rule="evenodd" stroke="none"/>
    <path d="M16.5 17.0 L11.25 15.5 12.25 15.5 16.5 17.0" fill="#5c5c5c" fill-rule="evenodd" stroke="none"/>
    <path d="M-2.0 9.25 L-2.75 9.5 -14.0 4.25 -2.0 9.25" fill="#595959" fill-rule="evenodd" stroke="none"/>
    <path d="M29.0 -6.0 L29.15 -5.95 41.8 4.9 34.8 19.55 18.45 17.25 18.0 17.0 29.0 -6.0" fill="#ffffff" fill-rule="evenodd" stroke="none"/>
    <path d="M21.5 18.75 L16.5 17.0 18.0 17.0 18.45 17.25 21.5 18.75" fill="#4e4e4e" fill-rule="evenodd" stroke="none"/>
    <path d="M34.05 21.9 L34.0 21.95 33.0 23.25 34.8 19.55 41.8 4.9 44.0 0.25 44.05 0.25 42.9 3.5 36.5 17.55 36.05 17.5 34.05 21.9" fill="#cccccc" fill-rule="evenodd" stroke="none"/>
    <path d="M44.5 0.0 L45.1 0.25 35.35 21.05 34.65 21.05 35.25 20.25 36.5 17.55 42.9 3.5 44.5 0.0" fill="#171717" fill-rule="evenodd" stroke="none"/>
    <path d="M-15.25 2.5 L-18.5 0.25 -8.25 -22.0 -7.25 -21.5 -6.5 -21.0 -6.0 -20.75 -5.25 -20.25 -4.75 -19.75 Q-8.1 -8.8 -15.25 2.5" fill="url(#gradient0)" fill-rule="evenodd" stroke="none"/>
    <path d="M27.5 -6.0 L28.25 -5.25 18.0 16.5 14.0 15.5 13.5 14.75 23.5 -6.5 Q24.0 -7.75 27.5 -6.0" fill="url(#gradient1)" fill-rule="evenodd" stroke="none"/>
    <path d="M-21.95 -23.95 L-23.05 -24.75 -21.15 -28.85 -20.0 -28.1 -21.95 -23.95" fill="url(#gradient2)" fill-rule="evenodd" stroke="none"/>
    <path d="M-31.1 -6.6 L-29.2 -10.7 -28.05 -9.95 -30.0 -5.8 -31.1 -6.6" fill="url(#gradient3)" fill-rule="evenodd" stroke="none"/>
    <path d="M34.65 21.05 L34.05 21.9 36.05 17.5 36.5 17.55 35.25 20.25 34.65 21.05" fill="url(#gradient4)" fill-rule="evenodd" stroke="none"/>
    <path d="M44.05 0.25 L44.5 0.0 42.9 3.5 44.05 0.25" fill="url(#gradient5)" fill-rule="evenodd" stroke="none"/>
    <path d="M-32.0 -6.65 L-32.75 -7.25 -22.0 -30.25 -21.3 -29.75 -32.0 -6.65" fill="#333333" fill-rule="evenodd" stroke="none"/>
    <path d="M-1.0 9.75 L-2.0 9.25 -14.0 4.25 -14.5 3.5 -14.5 2.75 -14.25 2.0 Q-7.75 -8.4 -4.25 -19.5 L-3.75 -20.25 -3.25 -20.0 9.25 -14.5 10.5 -13.75 22.5 -8.5 23.25 -8.0 12.25 15.5 11.25 15.5 -1.0 9.75" fill="url(#gradient6)" fill-rule="evenodd" stroke="none"/>
    <path d="M33.0 23.25 L21.5 18.75 18.45 17.25 34.8 19.55 33.0 23.25 M29.15 -5.95 L44.0 0.25 41.8 4.9 29.15 -5.95" fill="#eaeaea" fill-rule="evenodd" stroke="none"/>
    <path d="M-4.25 -19.5 Q-7.75 -8.4 -14.25 2.0 L-14.5 2.75 -15.25 2.5 Q-8.1 -8.8 -4.75 -19.75 L-4.25 -19.5" fill="#5b5c5c" fill-rule="evenodd" stroke="none"/>
  </g>
  <defs>
    <radialGradient cx="0" cy="0" gradientTransform="matrix(0.0262, 0.0, 0.0, 0.0262, -8.1, -17.8)" gradientUnits="userSpaceOnUse" id="gradient0" r="819.2" spreadMethod="pad">
      <stop offset="0.0" stop-color="#c4ced5"/>
      <stop offset="1.0" stop-color="#555555"/>
    </radialGradient>
    <radialGradient cx="0" cy="0" gradientTransform="matrix(0.0253, 0.0, 0.0, 0.0253, 24.8, -2.2)" gradientUnits="userSpaceOnUse" id="gradient1" r="819.2" spreadMethod="pad">
      <stop offset="0.0" stop-color="#c4ced5"/>
      <stop offset="1.0" stop-color="#555555"/>
    </radialGradient>
    <radialGradient cx="0" cy="0" gradientTransform="matrix(0.0046, 0.0, 0.0, 0.0046, -21.15, -27.6)" gradientUnits="userSpaceOnUse" id="gradient2" r="819.2" spreadMethod="pad">
      <stop offset="0.0" stop-color="#990000"/>
      <stop offset="1.0" stop-color="#660000"/>
    </radialGradient>
    <radialGradient cx="0" cy="0" gradientTransform="matrix(0.0057, 0.0, 0.0, 0.0057, -29.05, -10.35)" gradientUnits="userSpaceOnUse" id="gradient3" r="819.2" spreadMethod="pad">
      <stop offset="0.0" stop-color="#990000"/>
      <stop offset="1.0" stop-color="#660000"/>
    </radialGradient>
    <radialGradient cx="0" cy="0" gradientTransform="matrix(0.0051, 0.0, 0.0, 0.0051, 36.0, 18.2)" gradientUnits="userSpaceOnUse" id="gradient4" r="819.2" spreadMethod="pad">
      <stop offset="0.0" stop-color="#dee2e4"/>
      <stop offset="1.0" stop-color="#a0a3a3"/>
    </radialGradient>
    <radialGradient cx="0" cy="0" gradientTransform="matrix(0.004, 0.0, 0.0, 0.004, 44.2, 0.45)" gradientUnits="userSpaceOnUse" id="gradient5" r="819.2" spreadMethod="pad">
      <stop offset="0.0" stop-color="#dee2e4"/>
      <stop offset="1.0" stop-color="#a0a3a3"/>
    </radialGradient>
    <radialGradient cx="0" cy="0" gradientTransform="matrix(0.0314, 0.0, 0.0, 0.0314, 7.4, -9.8)" gradientUnits="userSpaceOnUse" id="gradient6" r="819.2" spreadMethod="pad">
      <stop offset="0.0" stop-color="#ffffff"/>
      <stop offset="1.0" stop-color="#e2e2e2"/>
    </radialGradient>
  </defs>
</svg>
