<?xml version="1.0" encoding="UTF-8" standalone="no"?>
<svg xmlns:ffdec="https://www.free-decompiler.com/flash" xmlns:xlink="http://www.w3.org/1999/xlink" ffdec:objectType="shape" height="53.75px" width="77.35px" xmlns="http://www.w3.org/2000/svg">
  <g transform="matrix(1.0, 0.0, 0.0, 1.0, 32.75, 30.25)">
    <path d="M-20.8 -29.65 L-19.0 -28.5 Q-23.4 -16.3 -29.75 -5.25 L-31.9 -6.5 -20.8 -29.65 M-21.6 -23.8 L-19.55 -28.2 -20.6 -28.95 -22.7 -24.5 -21.6 -23.8 M-28.05 -10.4 L-29.1 -11.15 -31.2 -6.7 -30.1 -6.0 -28.05 -10.4" fill="#959595" fill-rule="evenodd" stroke="none"/>
    <path d="M10.25 -15.25 L10.25 -14.5 9.25 -15.0 9.5 -15.75 10.25 -15.25 M31.5 -5.25 L33.75 -4.5 43.8 0.4 44.0 0.5 31.5 -5.25 M-20.8 -29.65 L-21.75 -30.25 -10.25 -24.75 -6.0 -22.5 -3.75 -20.75 -8.25 -23.25 Q-13.3 -25.1 -19.0 -28.5 L-20.8 -29.65" fill="#000000" fill-rule="evenodd" stroke="none"/>
    <path d="M-19.0 -28.5 Q-13.3 -25.1 -8.25 -23.25 L-8.5 -22.0 -11.05 -16.5 -19.0 0.25 Q-23.75 -1.55 -29.75 -5.25 -23.4 -16.3 -19.0 -28.5" fill="#d9d9d9" fill-rule="evenodd" stroke="none"/>
    <path d="M-3.75 -20.75 L-4.25 -20.0 -4.75 -20.5 -6.5 -21.5 -8.5 -22.0 -8.25 -23.25 -3.75 -20.75 M-14.5 2.25 L-14.75 2.75 -17.0 1.5 -19.0 0.25 -11.05 -16.5 -18.5 0.0 -15.0 2.0 -14.5 2.25" fill="#a7a7a7" fill-rule="evenodd" stroke="none"/>
    <path d="M-6.0 -22.5 L-10.25 -24.75 -10.25 -25.0 -0.75 -21.25 -5.0 -22.5 -6.0 -22.5" fill="#353535" fill-rule="evenodd" stroke="none"/>
    <path d="M33.75 -5.5 L24.75 -9.5 28.25 -8.5 33.75 -5.5 M-10.25 -25.0 L-9.25 -25.5 -0.75 -21.25 -10.25 -25.0" fill="#080808" fill-rule="evenodd" stroke="none"/>
    <path d="M10.75 -15.0 L10.25 -14.5 10.25 -15.25 10.75 -15.0 M-3.0 -20.75 L-3.75 -20.75 -6.0 -22.5 -5.0 -22.5 -2.5 -21.0 -3.0 -20.75 M-14.75 2.75 L-14.0 3.75 -17.0 1.5 -14.75 2.75" fill="#555555" fill-rule="evenodd" stroke="none"/>
    <path d="M10.75 -15.0 L10.25 -15.25 24.5 -9.0 25.25 -8.5 22.75 -9.5 10.75 -15.0 M-14.0 3.75 L-1.75 9.0 -2.5 9.25 -14.0 3.75 M9.5 -15.75 L-2.5 -21.0 -5.0 -22.5 -0.75 -21.25 9.5 -15.75" fill="#575757" fill-rule="evenodd" stroke="none"/>
    <path d="M10.25 -14.5 L10.75 -15.0 22.75 -9.5 22.25 -9.0 10.25 -14.5 M9.25 -15.0 L-3.0 -20.75 -2.5 -21.0 9.5 -15.75 9.25 -15.0" fill="#565656" fill-rule="evenodd" stroke="none"/>
    <path d="M29.25 -6.0 L28.5 -6.5 28.0 -6.75 28.0 -7.5 26.5 -8.0 26.0 -8.25 25.25 -8.5 24.5 -9.0 24.75 -9.5 33.75 -5.5 33.75 -4.5 31.5 -5.25 31.0 -5.25 29.25 -6.0" fill="#393939" fill-rule="evenodd" stroke="none"/>
    <path d="M23.25 -8.5 L22.25 -9.0 22.75 -9.5 25.25 -8.5 26.0 -8.25 26.5 -8.0 28.0 -7.5 28.0 -6.75 27.0 -7.0 26.5 -7.25 23.25 -8.5" fill="#5b5b5b" fill-rule="evenodd" stroke="none"/>
    <path d="M12.25 15.25 L23.25 -8.5 26.5 -7.25 27.0 -7.0 28.0 -6.75 28.5 -6.5 29.25 -6.0 29.15 -5.8 18.0 17.0 16.5 17.0 12.25 15.25 M24.75 -7.25 L23.75 -7.25 22.75 -5.5 13.5 14.5 15.25 15.75 18.0 16.25 28.25 -5.75 24.75 -7.25" fill="#ededed" fill-rule="evenodd" stroke="none"/>
    <path d="M11.25 15.25 L12.25 15.25 16.5 17.0 11.25 15.25" fill="#606060" fill-rule="evenodd" stroke="none"/>
    <path d="M34.85 19.7 L19.5 17.8 18.0 17.0 29.15 -5.8 42.4 3.95 34.85 19.7" fill="#ffffff" fill-rule="evenodd" stroke="none"/>
    <path d="M22.25 19.25 L16.5 17.0 18.0 17.0 19.5 17.8 22.25 19.25" fill="#484848" fill-rule="evenodd" stroke="none"/>
    <path d="M42.4 3.95 L44.0 0.5 36.15 18.9 35.65 18.8 33.5 23.45 33.0 23.5 34.85 19.7 42.4 3.95" fill="#cdcdcd" fill-rule="evenodd" stroke="none"/>
    <path d="M43.8 0.4 L44.6 0.65 35.2 22.9 34.4 22.55 35.8 19.85 36.0 19.25 36.15 18.9 44.0 0.5 43.8 0.4" fill="#171717" fill-rule="evenodd" stroke="none"/>
    <path d="M24.75 -7.25 L28.25 -5.75 18.0 16.25 15.25 15.75 13.5 14.5 22.75 -5.5 23.75 -7.25 24.75 -7.25" fill="url(#gradient0)" fill-rule="evenodd" stroke="none"/>
    <path d="M-4.75 -20.5 Q-8.55 -8.65 -15.0 2.0 L-18.5 0.0 -11.05 -16.5 -8.5 -22.0 -6.5 -21.5 -4.75 -20.5" fill="url(#gradient1)" fill-rule="evenodd" stroke="none"/>
    <path d="M-21.6 -23.8 L-22.7 -24.5 -20.6 -28.95 -19.55 -28.2 -21.6 -23.8" fill="url(#gradient2)" fill-rule="evenodd" stroke="none"/>
    <path d="M-28.05 -10.4 L-30.1 -6.0 -31.2 -6.7 -29.1 -11.15 -28.05 -10.4" fill="url(#gradient3)" fill-rule="evenodd" stroke="none"/>
    <path d="M36.15 18.9 L36.0 19.25 35.8 19.85 34.4 22.55 33.5 23.45 35.65 18.8 36.15 18.9" fill="url(#gradient4)" fill-rule="evenodd" stroke="none"/>
    <path d="M-21.75 -30.25 L-20.8 -29.65 -31.9 -6.5 -32.75 -7.0 -21.75 -30.25" fill="#333333" fill-rule="evenodd" stroke="none"/>
    <path d="M9.25 -15.0 L10.25 -14.5 22.25 -9.0 23.25 -8.5 12.25 15.25 11.25 15.25 -1.0 9.5 -1.75 9.0 -14.0 3.75 -14.75 2.75 -14.5 2.25 -14.25 1.5 -14.05 1.25 -14.5 2.25 Q-7.75 -9.85 -4.25 -20.0 L-3.75 -20.75 -3.0 -20.75 9.25 -15.0" fill="url(#gradient5)" fill-rule="evenodd" stroke="none"/>
    <path d="M29.25 -6.0 L31.0 -5.25 31.5 -5.25 44.0 0.5 42.4 3.95 29.15 -5.8 29.25 -6.0 M33.0 23.5 L22.25 19.25 19.5 17.8 34.85 19.7 33.0 23.5" fill="#eaeaea" fill-rule="evenodd" stroke="none"/>
    <path d="M-4.25 -20.0 Q-7.75 -9.85 -14.5 2.25 L-15.0 2.0 Q-8.55 -8.65 -4.75 -20.5 L-4.25 -20.0 M-14.5 2.25 L-14.05 1.25 -14.25 1.5 -14.5 2.25" fill="#5b5c5c" fill-rule="evenodd" stroke="none"/>
  </g>
  <defs>
    <radialGradient cx="0" cy="0" gradientTransform="matrix(0.0251, 0.0, 0.0, 0.0251, 24.5, -2.6)" gradientUnits="userSpaceOnUse" id="gradient0" r="819.2" spreadMethod="pad">
      <stop offset="0.0" stop-color="#c4ced5"/>
      <stop offset="1.0" stop-color="#555555"/>
    </radialGradient>
    <radialGradient cx="0" cy="0" gradientTransform="matrix(0.0236, 0.0, 0.0, 0.0236, -9.3, -16.5)" gradientUnits="userSpaceOnUse" id="gradient1" r="819.2" spreadMethod="pad">
      <stop offset="0.0" stop-color="#c4ced5"/>
      <stop offset="1.0" stop-color="#555555"/>
    </radialGradient>
    <radialGradient cx="0" cy="0" gradientTransform="matrix(0.0038, 0.0, 0.0, 0.0038, -21.3, -26.9)" gradientUnits="userSpaceOnUse" id="gradient2" r="819.2" spreadMethod="pad">
      <stop offset="0.0" stop-color="#990000"/>
      <stop offset="1.0" stop-color="#660000"/>
    </radialGradient>
    <radialGradient cx="0" cy="0" gradientTransform="matrix(0.0048, 0.0, 0.0, 0.0048, -29.4, -9.9)" gradientUnits="userSpaceOnUse" id="gradient3" r="819.2" spreadMethod="pad">
      <stop offset="0.0" stop-color="#990000"/>
      <stop offset="1.0" stop-color="#660000"/>
    </radialGradient>
    <radialGradient cx="0" cy="0" gradientTransform="matrix(0.0036, 0.0, 0.0, 0.0036, 34.9, 21.25)" gradientUnits="userSpaceOnUse" id="gradient4" r="819.2" spreadMethod="pad">
      <stop offset="0.0" stop-color="#dee2e4"/>
      <stop offset="1.0" stop-color="#a0a3a3"/>
    </radialGradient>
    <radialGradient cx="0" cy="0" gradientTransform="matrix(0.0311, 0.0, 0.0, 0.0311, 7.4, -9.8)" gradientUnits="userSpaceOnUse" id="gradient5" r="819.2" spreadMethod="pad">
      <stop offset="0.0" stop-color="#ffffff"/>
      <stop offset="1.0" stop-color="#e2e2e2"/>
    </radialGradient>
  </defs>
</svg>
