<?xml version="1.0" encoding="UTF-8" standalone="no"?>
<svg xmlns:ffdec="https://www.free-decompiler.com/flash" xmlns:xlink="http://www.w3.org/1999/xlink" ffdec:objectType="shape" height="54.05px" width="77.7px" xmlns="http://www.w3.org/2000/svg">
  <g transform="matrix(1.0, 0.0, 0.0, 1.0, 32.65, 30.15)">
    <path d="M-29.9 -5.5 L-31.7 -6.65 -20.8 -29.65 -20.25 -29.4 -20.0 -29.25 -19.75 -29.15 -19.65 -29.15 -18.9 -28.65 Q-23.0 -16.7 -29.9 -5.5 M-21.75 -24.2 L-19.55 -28.4 -20.65 -29.15 -22.7 -24.75 -21.75 -24.2 M-29.05 -11.45 L-31.1 -7.05 -30.15 -6.5 -27.95 -10.7 -29.05 -11.45" fill="#919191" fill-rule="evenodd" stroke="none"/>
    <path d="M-19.65 -29.15 L-17.9 -28.25 -18.9 -28.65 -19.65 -29.15" fill="#000000" fill-rule="evenodd" stroke="none"/>
    <path d="M-21.25 -1.15 Q-24.95 -2.2 -29.9 -5.5 -23.0 -16.7 -18.9 -28.65 L-17.9 -28.25 -17.75 -28.25 -10.4 -24.75 -10.3 -24.65 -10.25 -24.65 -10.15 -24.65 -10.05 -24.6 -9.9 -24.5 -9.55 -24.35 -9.4 -24.25 -8.5 -23.9 -8.25 -23.75 -8.0 -23.5 -19.0 -0.25 -21.25 -1.15" fill="#d0d0d0" fill-rule="evenodd" stroke="none"/>
    <path d="M-0.75 -20.9 L-2.25 -21.5 -2.4 -21.5 -5.4 -23.0 -5.9 -22.65 -7.25 -23.25 -7.5 -23.4 -7.75 -23.5 -8.0 -23.5 -8.25 -23.75 -8.5 -23.9 -9.4 -24.25 -9.55 -24.35 -9.9 -24.5 -10.05 -24.6 -10.15 -24.65 -10.25 -24.65 -10.3 -24.65 -10.4 -24.75 -9.75 -25.4 -1.5 -21.65 -0.75 -20.9 M-31.7 -6.65 L-32.65 -7.25 -21.75 -30.15 -21.5 -30.0 -20.8 -29.65 -31.7 -6.65" fill="#333333" fill-rule="evenodd" stroke="none"/>
    <path d="M10.6 -15.65 L10.75 -15.4 11.25 -15.25 11.35 -15.25 11.6 -15.15 11.85 -15.0 12.1 -14.9 12.35 -14.75 12.6 -14.65 12.85 -14.5 13.75 -14.15 14.0 -14.0 14.25 -13.9 14.5 -13.75 14.75 -13.65 15.0 -13.5 15.85 -13.15 16.1 -13.0 16.35 -12.9 16.6 -12.75 17.5 -12.4 17.75 -12.25 18.0 -12.15 18.25 -12.0 18.5 -11.9 18.75 -11.75 19.6 -11.4 19.85 -11.25 20.1 -11.15 20.35 -11.0 20.6 -10.9 20.85 -10.75 21.25 -10.65 21.5 -10.5 21.75 -10.4 22.0 -10.25 22.25 -10.15 22.5 -10.0 22.6 -9.9 22.35 -9.4 10.35 -15.0 10.1 -15.15 10.6 -15.65 M-0.75 -20.9 L-0.65 -20.75 -0.5 -20.75 0.25 -20.4 0.5 -20.25 0.75 -20.15 1.0 -20.0 1.85 -19.65 2.1 -19.5 2.35 -19.4 2.6 -19.25 3.5 -18.9 3.75 -18.75 4.0 -18.65 4.25 -18.5 4.6 -18.4 4.85 -18.25 5.1 -18.15 5.35 -18.0 5.6 -17.9 5.85 -17.75 6.25 -17.65 6.5 -17.5 6.75 -17.4 7.0 -17.25 7.85 -16.9 8.1 -16.75 8.35 -16.65 8.6 -16.5 9.25 -16.25 9.25 -15.5 -3.5 -21.4 -5.9 -22.65 -5.4 -23.0 -2.4 -21.5 -2.25 -21.5 -0.75 -20.9 M-14.15 3.25 L-16.25 2.1 -17.0 1.25 -14.65 2.25 -13.9 2.75 -14.15 3.25" fill="#555555" fill-rule="evenodd" stroke="none"/>
    <path d="M-5.9 -22.65 L-3.5 -21.4 Q-5.2 -16.35 -7.65 -11.05 -5.7 -15.55 -4.15 -20.65 L-4.65 -21.0 -7.75 -22.65 -8.4 -22.15 -18.4 -0.4 -15.15 1.5 -14.75 1.75 -14.25 1.25 -11.6 -3.25 -10.85 -4.5 -14.65 2.25 -17.0 1.25 -19.0 -0.25 -8.0 -23.5 -7.75 -23.5 -7.5 -23.4 -7.25 -23.25 -5.9 -22.65" fill="#a4a4a4" fill-rule="evenodd" stroke="none"/>
    <path d="M11.25 -15.25 L10.75 -15.4 10.6 -15.65 11.25 -15.25" fill="#575757" fill-rule="evenodd" stroke="none"/>
    <path d="M22.35 -9.4 L22.6 -9.9 23.1 -9.75 23.25 -9.75 24.6 -9.15 28.0 -7.5 27.75 -6.9 23.25 -8.9 22.35 -9.4" fill="#5c5c5c" fill-rule="evenodd" stroke="none"/>
    <path d="M27.75 -6.9 L28.0 -7.5 24.6 -9.15 24.75 -9.4 34.0 -5.25 33.6 -4.25 29.5 -6.05 29.0 -6.25 27.75 -6.9" fill="#373737" fill-rule="evenodd" stroke="none"/>
    <path d="M18.1 17.0 L29.0 -6.25 29.5 -6.05 42.2 4.5 35.0 19.3 18.4 17.15 18.1 17.0" fill="#ffffff" fill-rule="evenodd" stroke="none"/>
    <path d="M27.75 -6.9 L29.0 -6.25 18.1 17.0 16.75 16.6 12.1 14.75 23.25 -8.9 27.75 -6.9 M24.0 -7.9 L23.1 -6.25 23.1 -6.15 22.5 -4.9 22.35 -4.75 22.35 -4.5 13.35 14.6 Q17.6 17.0 18.35 15.25 L28.25 -6.0 24.0 -7.9" fill="#ededed" fill-rule="evenodd" stroke="none"/>
    <path d="M43.85 0.6 L44.1 0.6 44.25 0.7 42.6 4.5 42.8 4.95 35.85 19.65 35.3 19.55 33.3 23.6 33.05 23.6 32.85 23.6 35.0 19.3 42.2 4.5 43.85 0.6" fill="#cecece" fill-rule="evenodd" stroke="none"/>
    <path d="M16.75 16.6 L18.1 17.0 18.4 17.15 22.5 19.1 22.35 19.5 21.85 19.5 16.5 17.0 16.6 16.9 16.75 16.6" fill="#454545" fill-rule="evenodd" stroke="none"/>
    <path d="M-17.0 1.25 L-19.75 0.0 -21.25 -1.15 -19.0 -0.25 -17.0 1.25" fill="#2b2b2b" fill-rule="evenodd" stroke="none"/>
    <path d="M10.85 14.75 L-0.75 9.5 -0.9 9.0 11.25 14.35 10.85 14.75 M-1.9 8.35 L-2.15 8.75 -2.65 8.6 -14.15 3.25 -13.9 2.75 -1.9 8.35" fill="#565656" fill-rule="evenodd" stroke="none"/>
    <path d="M12.1 14.75 L16.75 16.6 16.6 16.9 16.5 17.0 10.85 14.75 11.25 14.35 12.1 14.75" fill="#636363" fill-rule="evenodd" stroke="none"/>
    <path d="M43.05 0.2 L44.35 0.45 44.4 0.45 45.05 0.85 34.4 23.8 33.45 23.9 33.05 23.6 33.3 23.6 34.0 23.6 35.85 19.65 42.8 4.95 44.35 1.6 44.6 0.85 44.25 0.7 44.1 0.6 43.85 0.6 43.75 0.5 43.5 0.35 43.05 0.2" fill="#171717" fill-rule="evenodd" stroke="none"/>
    <path d="M-15.15 1.5 L-18.4 -0.4 -8.4 -22.15 -7.75 -22.65 -4.65 -21.0 Q-8.25 -9.95 -15.15 1.5" fill="url(#gradient0)" fill-rule="evenodd" stroke="none"/>
    <path d="M24.0 -7.9 L28.25 -6.0 18.35 15.25 Q17.6 17.0 13.35 14.6 L22.35 -4.5 22.35 -4.75 22.5 -4.9 23.1 -6.15 23.1 -6.25 24.0 -7.9" fill="url(#gradient1)" fill-rule="evenodd" stroke="none"/>
    <path d="M-21.75 -24.2 L-22.7 -24.75 -20.65 -29.15 -19.55 -28.4 -21.75 -24.2" fill="url(#gradient2)" fill-rule="evenodd" stroke="none"/>
    <path d="M-29.05 -11.45 L-27.95 -10.7 -30.15 -6.5 -31.1 -7.05 -29.05 -11.45" fill="url(#gradient3)" fill-rule="evenodd" stroke="none"/>
    <path d="M35.85 19.65 L34.0 23.6 33.3 23.6 35.3 19.55 35.85 19.65" fill="url(#gradient4)" fill-rule="evenodd" stroke="none"/>
    <path d="M44.25 0.7 L44.6 0.85 44.35 1.6 42.8 4.95 42.6 4.5 44.25 0.7" fill="url(#gradient5)" fill-rule="evenodd" stroke="none"/>
    <path d="M10.1 -15.15 L10.35 -15.0 22.35 -9.4 23.25 -8.9 12.1 14.75 11.25 14.35 -0.9 9.0 -1.0 8.75 -1.9 8.35 -13.9 2.75 -14.65 2.25 -10.85 -4.5 -7.65 -11.05 Q-5.2 -16.35 -3.5 -21.4 L9.25 -15.5 10.1 -15.15" fill="url(#gradient6)" fill-rule="evenodd" stroke="none"/>
    <path d="M29.5 -6.05 L33.6 -4.25 34.35 -3.9 34.6 -3.75 34.85 -3.65 35.1 -3.5 36.5 -2.9 36.75 -2.75 38.1 -2.15 38.35 -2.0 38.6 -1.9 38.85 -1.75 39.75 -1.4 40.0 -1.25 40.25 -1.15 40.5 -1.0 Q40.95 -0.8 41.35 -0.65 L41.6 -0.5 41.85 -0.4 42.1 -0.25 42.35 -0.15 42.6 0.0 43.05 0.2 43.5 0.35 43.75 0.5 43.85 0.6 42.2 4.5 29.5 -6.05 M32.85 23.6 L22.5 19.1 18.4 17.15 35.0 19.3 32.85 23.6" fill="#eaeaea" fill-rule="evenodd" stroke="none"/>
    <path d="M-4.65 -21.0 L-4.15 -20.65 Q-5.7 -15.55 -7.65 -11.05 L-10.85 -4.5 -11.6 -3.25 -14.25 1.25 -14.75 1.75 -15.15 1.5 Q-8.25 -9.95 -4.65 -21.0" fill="#5b5c5c" fill-rule="evenodd" stroke="none"/>
  </g>
  <defs>
    <radialGradient cx="0" cy="0" gradientTransform="matrix(0.0233, 0.0, 0.0, 0.0233, -7.9, -16.1)" gradientUnits="userSpaceOnUse" id="gradient0" r="819.2" spreadMethod="pad">
      <stop offset="0.0" stop-color="#c4ced5"/>
      <stop offset="1.0" stop-color="#555555"/>
    </radialGradient>
    <radialGradient cx="0" cy="0" gradientTransform="matrix(0.0203, 0.0, 0.0, 0.0203, 21.7, 0.2)" gradientUnits="userSpaceOnUse" id="gradient1" r="819.2" spreadMethod="pad">
      <stop offset="0.0" stop-color="#c4ced5"/>
      <stop offset="1.0" stop-color="#555555"/>
    </radialGradient>
    <radialGradient cx="0" cy="0" gradientTransform="matrix(0.0047, 0.0, 0.0, 0.0047, -20.7, -27.9)" gradientUnits="userSpaceOnUse" id="gradient2" r="819.2" spreadMethod="pad">
      <stop offset="0.0" stop-color="#990000"/>
      <stop offset="1.0" stop-color="#660000"/>
    </radialGradient>
    <radialGradient cx="0" cy="0" gradientTransform="matrix(0.0048, 0.0, 0.0, 0.0048, -28.4, -9.95)" gradientUnits="userSpaceOnUse" id="gradient3" r="819.2" spreadMethod="pad">
      <stop offset="0.0" stop-color="#990000"/>
      <stop offset="1.0" stop-color="#660000"/>
    </radialGradient>
    <radialGradient cx="0" cy="0" gradientTransform="matrix(0.0048, 0.0, 0.0, 0.0048, 34.05, 23.15)" gradientUnits="userSpaceOnUse" id="gradient4" r="819.2" spreadMethod="pad">
      <stop offset="0.0" stop-color="#dee2e4"/>
      <stop offset="1.0" stop-color="#a0a3a3"/>
    </radialGradient>
    <radialGradient cx="0" cy="0" gradientTransform="matrix(0.0043, 0.0, 0.0, 0.0043, 43.0, 3.95)" gradientUnits="userSpaceOnUse" id="gradient5" r="819.2" spreadMethod="pad">
      <stop offset="0.0" stop-color="#dee2e4"/>
      <stop offset="1.0" stop-color="#a0a3a3"/>
    </radialGradient>
    <radialGradient cx="0" cy="0" gradientTransform="matrix(0.0307, 0.0, 0.0, 0.0307, 7.4, -9.8)" gradientUnits="userSpaceOnUse" id="gradient6" r="819.2" spreadMethod="pad">
      <stop offset="0.0" stop-color="#ffffff"/>
      <stop offset="1.0" stop-color="#e2e2e2"/>
    </radialGradient>
  </defs>
</svg>
