<?xml version="1.0" encoding="UTF-8" standalone="no"?>
<svg xmlns:ffdec="https://www.free-decompiler.com/flash" xmlns:xlink="http://www.w3.org/1999/xlink" ffdec:objectType="shape" height="54.5px" width="77.65px" xmlns="http://www.w3.org/2000/svg">
  <g transform="matrix(1.0, 0.0, 0.0, 1.0, 32.6, 30.0)">
    <path d="M-21.15 -1.3 L-29.9 -5.6 Q-22.95 -16.6 -18.75 -28.75 L-10.15 -24.9 -10.0 -24.75 -7.9 -23.75 -19.0 -0.45 -21.15 -1.3" fill="#c8c8c8" fill-rule="evenodd" stroke="none"/>
    <path d="M-10.15 -24.9 L-9.3 -25.15 -4.45 -22.9 -5.9 -23.0 -7.9 -23.75 -10.0 -24.75 -10.15 -24.9" fill="#242424" fill-rule="evenodd" stroke="none"/>
    <path d="M-4.45 -22.9 L-4.3 -22.9 9.55 -16.6 9.25 -16.0 -2.6 -21.6 -3.45 -21.9 -5.9 -23.0 -4.45 -22.9 M10.4 -15.6 L10.55 -15.75 22.55 -10.3 22.4 -9.9 10.4 -15.6 M10.85 14.4 L-1.0 8.7 -0.9 8.4 11.1 14.0 10.85 14.4 M-1.9 7.85 L-2.15 8.25 -2.75 8.1 -17.15 1.1 -16.9 0.85 -14.75 1.7 -13.9 2.25 -1.9 7.85" fill="#555555" fill-rule="evenodd" stroke="none"/>
    <path d="M-5.9 -23.0 L-3.45 -21.9 -4.15 -21.45 -7.75 -22.9 -8.3 -22.6 -8.75 -20.9 -18.45 -0.6 -15.15 1.0 -14.3 0.85 -14.45 1.15 -14.75 1.7 -16.9 0.85 -19.0 -0.45 -7.9 -23.75 -5.9 -23.0" fill="#a0a0a0" fill-rule="evenodd" stroke="none"/>
    <path d="M22.55 -10.3 L25.4 -9.0 25.7 -8.9 26.0 -8.75 28.0 -7.6 27.7 -7.15 Q25.5 -8.2 23.25 -9.3 L22.4 -9.9 22.55 -10.3" fill="#5c5c5c" fill-rule="evenodd" stroke="none"/>
    <path d="M29.1 -6.3 L29.1 -6.2 18.15 16.95 18.1 17.0 16.85 16.55 12.1 14.25 23.25 -9.3 Q25.5 -8.2 27.7 -7.15 L29.1 -6.3 M28.1 -5.9 Q24.1 -10.15 23.1 -6.6 L13.4 13.85 Q17.1 16.85 18.25 15.4 L28.1 -5.9" fill="#ededed" fill-rule="evenodd" stroke="none"/>
    <path d="M16.25 17.0 L16.0 16.85 10.85 14.4 11.1 14.0 12.1 14.25 16.85 16.55 16.25 17.0" fill="#676767" fill-rule="evenodd" stroke="none"/>
    <path d="M26.0 -8.75 L32.7 -5.75 34.0 -5.0 33.7 -4.15 29.1 -6.3 27.7 -7.15 28.0 -7.6 26.0 -8.75" fill="#393939" fill-rule="evenodd" stroke="none"/>
    <path d="M29.1 -6.2 L42.15 4.75 34.8 20.1 18.15 16.95 29.1 -6.2" fill="#ffffff" fill-rule="evenodd" stroke="none"/>
    <path d="M22.55 19.1 L22.0 19.85 16.25 17.0 16.85 16.55 18.1 17.0 22.55 19.1" fill="#404040" fill-rule="evenodd" stroke="none"/>
    <path d="M-29.9 -5.6 L-32.0 -6.8 -21.05 -29.65 -18.75 -28.75 Q-22.95 -16.6 -29.9 -5.6 M-22.35 -25.05 L-21.3 -24.55 -19.3 -28.65 -20.55 -29.1 -22.35 -25.05 M-28.1 -10.3 L-29.35 -10.75 -31.15 -6.7 -30.1 -6.2 -28.1 -10.3" fill="#8e8e8e" fill-rule="evenodd" stroke="none"/>
    <path d="M-17.15 1.1 L-20.75 -0.45 -21.3 -0.75 -21.15 -1.3 -19.0 -0.45 -16.9 0.85 -17.15 1.1" fill="#292929" fill-rule="evenodd" stroke="none"/>
    <path d="M42.15 4.75 L44.0 0.85 44.1 0.95 42.45 4.8 42.8 5.2 42.8 5.25 36.0 19.85 35.45 19.65 33.5 24.0 33.0 23.85 34.8 20.1 42.15 4.75" fill="#d0d0d0" fill-rule="evenodd" stroke="none"/>
    <path d="M43.8 0.75 L44.65 1.0 45.05 1.5 34.25 24.5 33.0 23.85 33.5 24.0 34.0 24.1 36.0 19.85 42.8 5.25 42.8 5.2 44.55 1.4 44.1 0.95 44.0 0.85 43.8 0.75" fill="#171717" fill-rule="evenodd" stroke="none"/>
    <path d="M28.1 -5.9 L18.25 15.4 Q17.1 16.85 13.4 13.85 L23.1 -6.6 Q24.1 -10.15 28.1 -5.9" fill="url(#gradient0)" fill-rule="evenodd" stroke="none"/>
    <path d="M-15.15 1.0 L-18.45 -0.6 -8.75 -20.9 -8.3 -22.6 -7.75 -22.9 -4.15 -21.45 Q-7.85 -9.7 -15.15 1.0" fill="url(#gradient1)" fill-rule="evenodd" stroke="none"/>
    <path d="M-22.35 -25.05 L-20.55 -29.1 -19.3 -28.65 -21.3 -24.55 -22.35 -25.05" fill="url(#gradient2)" fill-rule="evenodd" stroke="none"/>
    <path d="M-28.1 -10.3 L-30.1 -6.2 -31.15 -6.7 -29.35 -10.75 -28.1 -10.3" fill="url(#gradient3)" fill-rule="evenodd" stroke="none"/>
    <path d="M36.0 19.85 L34.0 24.1 33.5 24.0 35.45 19.65 36.0 19.85" fill="url(#gradient4)" fill-rule="evenodd" stroke="none"/>
    <path d="M44.1 0.95 L44.55 1.4 42.8 5.2 42.45 4.8 44.1 0.95" fill="url(#gradient5)" fill-rule="evenodd" stroke="none"/>
    <path d="M-32.0 -6.8 L-32.6 -7.15 -21.9 -30.0 -21.05 -29.65 -32.0 -6.8" fill="#333333" fill-rule="evenodd" stroke="none"/>
    <path d="M9.25 -16.0 L10.4 -15.6 22.4 -9.9 23.25 -9.3 12.1 14.25 11.1 14.0 -0.9 8.4 -1.9 7.85 -13.9 2.25 -14.75 1.7 -14.45 1.15 -14.5 1.25 Q-6.3 -11.7 -3.45 -21.9 L-2.6 -21.6 9.25 -16.0 M-14.3 0.8 L-14.3 0.7 -13.35 -1.35 -14.3 0.8" fill="url(#gradient6)" fill-rule="evenodd" stroke="none"/>
    <path d="M33.7 -4.15 L43.8 0.75 44.0 0.85 42.15 4.75 29.1 -6.2 29.1 -6.3 33.7 -4.15 M33.0 23.85 L22.55 19.1 18.1 17.0 18.15 16.95 34.8 20.1 33.0 23.85" fill="#eaeaea" fill-rule="evenodd" stroke="none"/>
    <path d="M-4.15 -21.45 L-3.45 -21.9 Q-6.3 -11.7 -14.5 1.25 L-14.45 1.15 -14.3 0.85 -15.15 1.0 Q-7.85 -9.7 -4.15 -21.45 M-14.3 0.8 L-13.35 -1.35 -14.3 0.7 -14.3 0.8" fill="#5b5c5c" fill-rule="evenodd" stroke="none"/>
  </g>
  <defs>
    <radialGradient cx="0" cy="0" gradientTransform="matrix(0.0208, 0.0, 0.0, 0.0208, 22.3, -0.2)" gradientUnits="userSpaceOnUse" id="gradient0" r="819.2" spreadMethod="pad">
      <stop offset="0.0" stop-color="#c4ced5"/>
      <stop offset="1.0" stop-color="#555555"/>
    </radialGradient>
    <radialGradient cx="0" cy="0" gradientTransform="matrix(0.0193, 0.0, 0.0, 0.0193, -10.3, -14.1)" gradientUnits="userSpaceOnUse" id="gradient1" r="819.2" spreadMethod="pad">
      <stop offset="0.0" stop-color="#c4ced5"/>
      <stop offset="1.0" stop-color="#555555"/>
    </radialGradient>
    <radialGradient cx="0" cy="0" gradientTransform="matrix(0.005, 0.0, 0.0, 0.005, -20.05, -28.45)" gradientUnits="userSpaceOnUse" id="gradient2" r="819.2" spreadMethod="pad">
      <stop offset="0.0" stop-color="#990000"/>
      <stop offset="1.0" stop-color="#660000"/>
    </radialGradient>
    <radialGradient cx="0" cy="0" gradientTransform="matrix(0.0047, 0.0, 0.0, 0.0047, -29.4, -10.0)" gradientUnits="userSpaceOnUse" id="gradient3" r="819.2" spreadMethod="pad">
      <stop offset="0.0" stop-color="#990000"/>
      <stop offset="1.0" stop-color="#660000"/>
    </radialGradient>
    <radialGradient cx="0" cy="0" gradientTransform="matrix(0.003, 0.0, 0.0, 0.003, 34.85, 21.95)" gradientUnits="userSpaceOnUse" id="gradient4" r="819.2" spreadMethod="pad">
      <stop offset="0.0" stop-color="#dee2e4"/>
      <stop offset="1.0" stop-color="#a0a3a3"/>
    </radialGradient>
    <radialGradient cx="0" cy="0" gradientTransform="matrix(0.004, 0.0, 0.0, 0.004, 43.2, 4.05)" gradientUnits="userSpaceOnUse" id="gradient5" r="819.2" spreadMethod="pad">
      <stop offset="0.0" stop-color="#dee2e4"/>
      <stop offset="1.0" stop-color="#a0a3a3"/>
    </radialGradient>
    <radialGradient cx="0" cy="0" gradientTransform="matrix(0.0305, 0.0, 0.0, 0.0305, 7.4, -9.8)" gradientUnits="userSpaceOnUse" id="gradient6" r="819.2" spreadMethod="pad">
      <stop offset="0.0" stop-color="#ffffff"/>
      <stop offset="1.0" stop-color="#e2e2e2"/>
    </radialGradient>
  </defs>
</svg>
