<?xml version="1.0" encoding="UTF-8" standalone="no"?>
<svg xmlns:ffdec="https://www.free-decompiler.com/flash" xmlns:xlink="http://www.w3.org/1999/xlink" ffdec:objectType="shape" height="5.1px" width="2.25px" xmlns="http://www.w3.org/2000/svg">
  <g transform="matrix(1.0, 0.0, 0.0, 1.0, -0.05, -0.05)">
    <path d="M2.1 4.7 L2.0 5.05 2.1 4.95 2.1 5.05 2.0 5.05 0.4 4.95 0.3 4.95 0.35 4.8 0.6 4.55 0.85 4.45 2.1 4.55 2.1 4.7 M2.1 1.35 L2.1 2.05 0.3 2.05 0.3 1.35 Q1.35 1.2 2.1 1.35" fill="#1e272f" fill-rule="evenodd" stroke="none"/>
    <path d="M2.0 5.05 L1.9 5.15 0.45 5.15 0.4 4.95 2.0 5.05 M0.3 0.05 L2.1 0.05 2.1 1.35 Q1.35 1.2 0.3 1.35 L0.3 0.05 M2.1 2.05 L2.1 4.55 0.85 4.45 0.6 4.55 0.35 4.8 Q0.25 4.05 0.3 2.05 L2.1 2.05" fill="#94579c" fill-rule="evenodd" stroke="none"/>
    <path d="M2.1 0.05 L2.3 0.05 Q2.3 3.65 2.1 4.7 L2.1 4.55 2.1 2.05 2.1 1.35 2.1 0.05 M0.45 5.15 L0.05 5.0 0.05 0.05 0.3 0.05 0.3 1.35 0.3 2.05 Q0.25 4.05 0.35 4.8 L0.3 4.95 0.4 4.95 0.45 5.15" fill="#633a69" fill-rule="evenodd" stroke="none"/>
  </g>
</svg>
