<?xml version="1.0" encoding="UTF-8" standalone="no"?>
<svg xmlns:ffdec="https://www.free-decompiler.com/flash" xmlns:xlink="http://www.w3.org/1999/xlink" ffdec:objectType="shape" height="4.65px" width="2.85px" xmlns="http://www.w3.org/2000/svg">
  <g transform="matrix(1.0, 0.0, 0.0, 1.0, 5.15, 2.15)">
    <path d="M-4.9 0.55 Q-5.2 0.55 -5.15 0.2 -5.15 -0.25 -4.85 -0.15 -4.55 -0.1 -4.55 0.25 -4.55 0.55 -4.9 0.55" fill="#333333" fill-rule="evenodd" stroke="none"/>
    <path d="M-2.6 2.45 L-3.1 2.05 Q-3.2 1.8 -2.7 1.65 L-2.35 1.95 Q-2.25 2.35 -2.6 2.45" fill="#333333" fill-rule="evenodd" stroke="none"/>
    <path d="M-2.6 2.45 L-3.1 2.05 Q-3.2 1.8 -2.7 1.65 L-2.35 1.95 Q-2.25 2.35 -2.6 2.45 Z" fill="none" stroke="#000000" stroke-linecap="round" stroke-linejoin="round" stroke-width="0.1"/>
    <path d="M-4.5 -1.95 L-4.8 -1.85 -4.85 -2.05 -4.7 -2.1 -4.5 -1.95" fill="#333333" fill-rule="evenodd" stroke="none"/>
  </g>
</svg>
