<?xml version="1.0" encoding="UTF-8" standalone="no"?>
<svg xmlns:ffdec="https://www.free-decompiler.com/flash" xmlns:xlink="http://www.w3.org/1999/xlink" ffdec:objectType="shape" height="47.55px" width="125.0px" xmlns="http://www.w3.org/2000/svg">
  <g transform="matrix(1.0, 0.0, 0.0, 1.0, 0.0, 59.0)">
    <path d="M37.5 -58.95 L37.75 -58.65 38.0 -57.05 Q38.0 -55.65 23.45 -51.1 7.0 -46.05 2.5 -42.45 1.05 -42.95 0.7 -43.25 0.0 -43.9 0.0 -45.55 0.0 -50.05 14.2 -54.85 27.95 -59.55 37.5 -58.95 M31.2 -51.0 Q32.0 -50.6 32.0 -49.05 32.0 -45.5 25.15 -31.55 18.8 -18.75 17.5 -17.45 16.05 -17.95 15.7 -18.25 15.0 -18.9 15.0 -20.55 15.0 -23.8 20.65 -36.1 26.45 -48.65 29.5 -51.45 L31.2 -51.0 M35.0 -30.2 Q35.0 -30.5 36.75 -32.45 38.9 -34.9 41.35 -36.75 48.95 -42.45 55.5 -39.45 L57.05 -39.0 Q60.25 -43.95 68.5 -36.75 74.4 -31.65 80.3 -23.2 81.05 -27.5 83.8 -32.85 88.35 -41.75 93.5 -38.95 L93.75 -38.65 94.0 -37.05 91.1 -33.05 Q87.6 -27.95 85.0 -20.95 L85.0 -20.7 88.7 -22.85 Q89.9 -23.45 91.0 -23.45 93.5 -23.45 93.5 -22.95 L93.75 -22.65 94.0 -21.05 Q94.0 -18.75 90.75 -17.0 87.9 -15.45 85.0 -15.45 L81.7 -15.7 80.25 -15.95 80.1 -17.45 79.5 -17.45 Q76.15 -17.45 72.9 -22.05 71.75 -23.75 69.5 -28.2 L65.95 -24.6 Q64.7 -23.45 61.5 -23.45 56.5 -23.45 55.25 -25.7 L55.0 -27.95 Q55.0 -31.75 55.45 -34.45 L44.0 -33.95 42.2 -29.0 Q40.55 -25.45 38.5 -24.45 37.8 -24.75 36.45 -26.8 35.0 -29.0 35.0 -30.2 M60.75 -28.95 Q63.05 -30.4 64.4 -32.05 65.9 -33.95 65.5 -35.45 63.25 -35.15 62.4 -33.1 L61.0 -29.7 60.75 -28.95 M103.4 -51.3 Q104.65 -42.1 106.0 -39.45 106.2 -39.45 109.1 -40.95 112.0 -42.45 114.0 -42.45 116.5 -42.45 116.5 -41.95 L116.75 -41.65 117.0 -40.05 Q117.0 -39.4 114.0 -35.65 111.0 -31.9 111.0 -29.2 111.0 -25.7 114.45 -24.65 121.5 -22.6 125.0 -20.45 L123.7 -18.85 Q122.8 -17.95 121.5 -17.45 L111.0 -19.7 110.75 -12.2 110.4 -11.8 Q110.0 -11.45 108.5 -11.45 95.0 -56.55 95.0 -56.95 L95.05 -58.4 95.5 -58.95 Q101.5 -59.1 103.4 -51.3" fill="#ff0000" fill-rule="evenodd" stroke="none"/>
  </g>
</svg>
