<?xml version="1.0" encoding="UTF-8" standalone="no"?>
<svg xmlns:ffdec="https://www.free-decompiler.com/flash" xmlns:xlink="http://www.w3.org/1999/xlink" ffdec:objectType="shape" height="80.0px" width="80.0px" xmlns="http://www.w3.org/2000/svg">
  <g transform="matrix(1.0, 0.0, 0.0, 1.0, 40.0, 40.0)">
    <path d="M12.55 -12.55 Q17.75 -7.35 17.75 0.0 17.75 7.35 12.55 12.55 7.35 17.75 0.0 17.75 -7.35 17.75 -12.55 12.55 -17.75 7.35 -17.75 0.0 -17.75 -7.35 -12.55 -12.55 -7.35 -17.75 0.0 -17.75 7.35 -17.75 12.55 -12.55" fill="#c9ffbb" fill-opacity="0.8" fill-rule="evenodd" stroke="none"/>
    <path d="M21.2 -21.2 Q30.0 -12.4 30.0 0.0 30.0 12.4 21.2 21.2 12.4 30.0 0.0 30.0 -12.4 30.0 -21.2 21.2 -30.0 12.4 -30.0 0.0 -30.0 -12.4 -21.2 -21.2 -12.4 -30.0 0.0 -30.0 12.4 -30.0 21.2 -21.2 M12.55 -12.55 Q7.35 -17.75 0.0 -17.75 -7.35 -17.75 -12.55 -12.55 -17.75 -7.35 -17.75 0.0 -17.75 7.35 -12.55 12.55 -7.35 17.75 0.0 17.75 7.35 17.75 12.55 12.55 17.75 7.35 17.75 0.0 17.75 -7.35 12.55 -12.55" fill="#c9ffbb" fill-opacity="0.5019608" fill-rule="evenodd" stroke="none"/>
    <path d="M21.2 -21.2 Q12.4 -30.0 0.0 -30.0 -12.4 -30.0 -21.2 -21.2 -30.0 -12.4 -30.0 0.0 -30.0 12.4 -21.2 21.2 -12.4 30.0 0.0 30.0 12.4 30.0 21.2 21.2 30.0 12.4 30.0 0.0 30.0 -12.4 21.2 -21.2 M28.25 -28.3 Q40.0 -16.55 40.0 0.0 40.0 16.55 28.25 28.25 16.55 40.0 0.0 40.0 -16.55 40.0 -28.3 28.25 -40.0 16.55 -40.0 0.0 -40.0 -16.55 -28.3 -28.3 -16.55 -40.0 0.0 -40.0 16.55 -40.0 28.25 -28.3" fill="#c9ffbb" fill-opacity="0.2" fill-rule="evenodd" stroke="none"/>
    <path d="M-5.0 -9.45 L8.0 -1.2 -4.9 6.95 Q0.2 -1.75 -5.0 -9.45" fill="#333333" fill-rule="evenodd" stroke="none"/>
    <path d="M-6.0 -7.95 L7.0 0.3 -5.9 8.45 Q-0.8 -0.25 -6.0 -7.95" fill="url(#gradient0)" fill-rule="evenodd" stroke="none"/>
    <path d="M-6.0 -7.95 Q-0.8 -0.25 -5.9 8.45 L7.0 0.3 -6.0 -7.95 Z" fill="none" stroke="#ffffff" stroke-linecap="round" stroke-linejoin="round" stroke-width="1.0"/>
  </g>
  <defs>
    <radialGradient cx="0" cy="0" gradientTransform="matrix(0.0, -0.0173, 0.0173, 0.0, -3.5, 6.05)" gradientUnits="userSpaceOnUse" id="gradient0" r="819.2" spreadMethod="pad">
      <stop offset="0.0" stop-color="#b9fa00"/>
      <stop offset="1.0" stop-color="#2ad515"/>
    </radialGradient>
  </defs>
</svg>
