<?xml version="1.0" encoding="UTF-8" standalone="no"?>
<svg xmlns:ffdec="https://www.free-decompiler.com/flash" xmlns:xlink="http://www.w3.org/1999/xlink" ffdec:objectType="shape" height="8.75px" width="12.4px" xmlns="http://www.w3.org/2000/svg">
  <g transform="matrix(1.0, 0.0, 0.0, 1.0, 0.0, 0.0)">
    <path d="M7.55 1.6 L12.4 1.6 12.4 4.3 0.0 4.3 0.0 1.6 4.2 1.6 4.15 1.65 5.8 3.35 7.55 1.6" fill="#6a6c6b" fill-rule="evenodd" stroke="none"/>
    <path d="M0.0 4.3 L12.4 4.3 12.4 7.05 7.5 7.05 5.8 5.45 4.2 7.05 0.0 7.05 0.0 4.3" fill="#7e7f79" fill-rule="evenodd" stroke="none"/>
    <path d="M5.8 3.35 L4.15 1.65 4.2 1.6 5.8 0.0 5.8 3.35 M5.8 8.75 L4.15 7.1 4.2 7.05 5.8 5.45 5.8 8.75" fill="#404548" fill-rule="evenodd" stroke="none"/>
    <path d="M7.55 1.6 L5.8 3.35 5.8 0.0 7.55 1.6 M7.5 7.05 L5.8 8.75 5.8 5.45 7.5 7.05" fill="#8c8a7e" fill-rule="evenodd" stroke="none"/>
  </g>
</svg>
