<?xml version="1.0" encoding="UTF-8" standalone="no"?>
<svg xmlns:ffdec="https://www.free-decompiler.com/flash" xmlns:xlink="http://www.w3.org/1999/xlink" ffdec:objectType="shape" height="69.7px" width="76.55px" xmlns="http://www.w3.org/2000/svg">
  <g transform="matrix(1.0, 0.0, 0.0, 1.0, 38.25, 34.7)">
    <path d="M30.1 -31.15 L30.1 -28.4 11.15 -28.4 11.15 -31.15 11.15 -32.25 11.15 -33.9 11.2 -33.9 Q12.45 -33.0 15.8 -32.3 21.3 -31.15 30.1 -31.15 M-9.15 -30.3 L-9.15 -31.5 -6.55 -31.5 -6.55 -28.4 -30.45 -28.4 -30.45 -29.15 -9.15 -30.3" fill="#707c98" fill-rule="evenodd" stroke="none"/>
    <path d="M11.2 -33.9 L30.1 -33.9 30.1 -31.15 Q21.3 -31.15 15.8 -32.3 12.45 -33.0 11.2 -33.9" fill="url(#gradient0)" fill-rule="evenodd" stroke="none"/>
    <path d="M30.1 -28.4 L33.8 -28.35 33.65 -28.0 32.9 -28.0 -29.65 -28.0 -30.4 -28.0 -30.55 -28.25 -30.45 -28.4 -6.55 -28.4 -6.2 -28.4 -5.6 -28.4 11.15 -28.4 30.1 -28.4" fill="#ab9998" fill-rule="evenodd" stroke="none"/>
    <path d="M32.9 -27.8 L33.0 -27.55 33.05 -27.5 32.9 -27.45 12.5 -27.45 12.05 -27.45 4.75 -27.45 4.75 -26.65 4.65 -24.9 4.5 -24.9 4.35 -27.45 1.8 -27.45 -9.3 -27.45 -9.7 -27.45 -29.65 -27.45 -29.65 2.7 -29.65 3.1 -29.65 18.8 -29.65 28.55 -29.65 33.7 -30.45 33.7 -30.45 31.6 -30.45 29.85 -30.45 29.35 -30.45 27.25 -30.45 20.8 -30.45 10.3 -30.45 8.8 -30.45 -3.1 -30.45 -4.6 -30.45 -12.25 -30.45 -12.9 -30.45 -27.6 -30.45 -27.8 -30.4 -28.0 -29.65 -28.0 -29.65 -27.8 32.9 -27.8" fill="#374a5c" fill-rule="evenodd" stroke="none"/>
    <path d="M33.65 -28.0 L33.65 13.9 33.65 24.25 33.65 30.2 33.5 34.95 32.9 34.95 32.9 33.7 32.9 30.95 32.9 22.65 32.9 3.1 33.05 2.9 Q32.9 3.1 32.9 2.7 L32.9 -27.45 33.05 -27.5 33.0 -27.55 32.9 -27.8 32.9 -28.0 33.65 -28.0" fill="#031d34" fill-rule="evenodd" stroke="none"/>
    <path d="M32.9 -27.8 L-29.65 -27.8 -29.65 -28.0 32.9 -28.0 32.9 -27.8 M11.15 -32.25 L11.15 -31.15 -5.6 -31.15 -5.6 -32.25 11.15 -32.25" fill="#1f5369" fill-rule="evenodd" stroke="none"/>
    <path d="M1.8 -27.45 L4.35 -27.45 4.5 -24.9 1.8 -24.9 1.8 -26.65 1.8 -27.45 M3.7 -26.3 L4.0 -26.65 3.85 -27.15 3.3 -27.2 3.0 -27.35 2.95 -26.7 3.0 -26.4 3.15 -26.15 2.6 -25.7 3.7 -26.3 M-0.2 -19.75 L-3.2 -19.75 -3.2 -22.7 -0.2 -22.7 -0.2 -19.75 M13.65 -5.25 L12.8 -5.25 12.8 -3.55 14.55 -3.55 14.2 -4.4 14.3 -4.55 13.85 -5.25 13.65 -5.25 M11.75 -5.55 L14.8 -5.55 15.0 -2.5 12.5 -2.5 12.05 -2.5 11.75 -5.55 M24.3 -5.05 L23.85 -3.95 25.65 -3.95 25.65 -5.7 25.2 -5.7 24.3 -5.7 24.3 -5.05 M26.2 -2.9 L22.95 -2.9 22.95 -5.95 26.0 -5.95 26.2 -2.9 M21.7 29.65 L21.7 30.7 19.65 30.7 19.65 28.6 20.3 28.6 20.3 29.65 21.7 29.65 M-9.25 21.6 L-9.3 21.6 -9.7 21.6 -10.45 21.6 -11.85 21.6 -11.85 18.95 -9.25 18.95 -9.25 21.6 M-21.45 -4.75 L-21.95 -4.5 -22.2 -3.9 -22.6 -2.75 -20.65 -2.75 -20.65 -4.75 -21.45 -4.75 M-23.4 -5.05 L-20.4 -5.05 -20.3 -2.05 -23.4 -2.05 -23.4 -5.05 M-0.95 -21.4 Q-0.7 -21.45 -0.65 -21.55 L-0.65 -21.9 -1.3 -22.4 -1.6 -22.4 -2.55 -22.4 -2.55 -20.45 -0.6 -20.45 -0.95 -21.4 M-11.7 -4.45 L-11.95 -3.55 -10.15 -3.55 -10.15 -5.35 -10.6 -5.35 -11.3 -5.45 -11.6 -5.55 -11.65 -5.45 -11.7 -4.45 M-10.45 -2.55 L-13.0 -2.55 -13.0 -5.95 -9.7 -5.85 -9.65 -2.65 -9.7 -2.55 -10.45 -2.55 M-13.65 12.65 L-12.85 12.65 -12.85 13.5 -12.05 13.5 -11.85 14.05 -11.85 14.25 -13.65 14.25 -13.65 12.65 M-11.1 19.1 L-11.1 20.45 -9.75 20.45 -9.75 19.1 -11.1 19.1" fill="#e2d6e4" fill-rule="evenodd" stroke="none"/>
    <path d="M3.7 -26.3 L2.6 -25.7 3.15 -26.15 3.7 -26.3 M14.2 -4.4 L14.55 -3.55 12.8 -3.55 12.8 -5.25 13.65 -5.25 13.3 -4.75 13.6 -4.35 13.8 -4.25 Q13.95 -4.25 14.2 -4.4 M31.65 -20.1 L30.2 -20.1 30.2 -21.8 30.65 -21.8 30.65 -20.6 31.9 -20.6 31.65 -20.1 M24.3 -5.05 Q24.4 -4.85 24.85 -4.8 L25.55 -4.85 25.6 -5.2 25.3 -5.5 25.0 -5.65 25.2 -5.7 25.65 -5.7 25.65 -3.95 23.85 -3.95 24.3 -5.05 M20.3 28.6 L21.7 28.6 21.7 29.65 20.3 29.65 20.3 28.6 M-21.45 -4.75 L-20.65 -4.75 -20.65 -2.75 -22.6 -2.75 -22.2 -3.9 -21.0 -3.95 Q-21.25 -4.65 -21.45 -4.75 M-0.95 -21.4 L-0.6 -20.45 -2.55 -20.45 -2.55 -22.4 -1.6 -22.4 -2.05 -21.9 -1.85 -21.55 Q-1.75 -21.5 -1.9 -21.4 L-1.35 -21.4 -0.95 -21.4 M-11.7 -4.45 L-11.7 -4.4 -10.4 -4.6 -10.4 -4.7 -10.55 -5.3 -11.0 -5.3 -10.6 -5.35 -10.15 -5.35 -10.15 -3.55 -11.95 -3.55 -11.7 -4.45 M-12.85 12.65 L-12.05 12.65 -12.05 13.5 -12.85 13.5 -12.85 12.65 M-11.1 19.1 L-9.75 19.1 -9.75 20.45 -11.1 20.45 -11.1 19.1" fill="#9d9eb2" fill-rule="evenodd" stroke="none"/>
    <path d="M-29.65 33.7 L-29.65 28.55 -28.5 27.6 -28.5 32.45 -10.45 32.45 -10.45 29.35 -10.1 29.25 Q-9.95 29.1 -9.95 28.75 L-10.45 28.5 -10.45 21.6 -9.7 21.6 -9.7 33.7 -29.65 33.7 M-29.65 18.8 L-29.65 3.1 -9.7 3.1 -9.7 18.55 -10.45 18.55 -10.45 3.3 Q-21.75 3.7 -26.25 12.35 -28.5 16.65 -28.5 20.9 L-29.65 18.8 M-29.65 2.7 L-29.65 -27.45 -9.7 -27.45 -9.7 -6.25 -10.45 -6.25 -10.45 -26.65 -28.5 -26.65 -28.5 2.7 -29.65 2.7 M-9.3 -27.45 L1.8 -27.45 1.8 -26.65 -9.3 -26.65 -9.3 -27.45 M4.75 -26.65 L4.75 -27.45 12.05 -27.45 12.05 -5.9 11.8 -5.65 11.75 -5.55 12.05 -2.5 12.05 2.7 11.2 2.7 11.2 -26.65 4.75 -26.65 M12.5 -27.45 L32.9 -27.45 32.9 2.7 31.65 2.7 31.65 -20.1 31.9 -20.6 31.9 -21.8 31.65 -21.8 31.65 -26.65 12.5 -26.65 12.5 -27.45 M32.9 3.1 L32.9 22.65 31.65 22.15 31.65 3.3 12.5 3.3 12.5 3.1 32.9 3.1 M32.9 30.95 L32.9 33.7 12.5 33.7 12.5 32.45 31.65 32.45 31.65 29.95 32.9 30.95 M12.05 33.7 L-9.3 33.7 -9.3 32.45 11.2 32.45 11.2 3.3 -9.3 3.3 -9.3 3.1 12.05 3.1 12.05 33.7 M-10.45 2.7 L-10.45 -2.55 -9.7 -2.55 -9.7 2.7 -10.45 2.7" fill="#eae1e6" fill-rule="evenodd" stroke="none"/>
    <path d="M4.5 -24.9 L4.65 -24.9 4.75 -26.65 11.2 -26.65 11.2 2.7 -9.3 2.7 -9.3 -2.65 -9.3 -6.05 -9.3 -26.65 1.8 -26.65 1.8 -24.9 4.5 -24.9 M-0.2 -19.75 L0.0 -19.55 0.15 -19.65 0.15 -23.4 -2.35 -23.4 -3.35 -23.2 -3.35 -22.5 -3.2 -22.7 -3.2 -19.75 -0.2 -19.75" fill="url(#gradient1)" fill-rule="evenodd" stroke="none"/>
    <path d="M3.15 -26.15 L3.0 -26.4 2.95 -26.7 3.0 -27.35 3.3 -27.2 3.85 -27.15 4.0 -26.65 3.7 -26.3 3.15 -26.15 M14.2 -4.4 Q13.95 -4.25 13.8 -4.25 L13.6 -4.35 13.3 -4.75 13.65 -5.25 13.85 -5.25 14.3 -4.55 14.2 -4.4 M25.2 -5.7 L25.0 -5.65 25.3 -5.5 25.6 -5.2 25.55 -4.85 24.85 -4.8 Q24.4 -4.85 24.3 -5.05 L24.3 -5.7 25.2 -5.7 M-22.2 -3.9 L-21.95 -4.5 -21.45 -4.75 Q-21.25 -4.65 -21.0 -3.95 L-22.2 -3.9 M-1.6 -22.4 L-1.3 -22.4 -0.65 -21.9 -0.65 -21.55 Q-0.7 -21.45 -0.95 -21.4 L-1.35 -21.4 -1.9 -21.4 Q-1.75 -21.5 -1.85 -21.55 L-2.05 -21.9 -1.6 -22.4 M-10.6 -5.35 L-11.0 -5.3 -10.55 -5.3 -10.4 -4.7 -10.4 -4.6 -11.7 -4.4 -11.7 -4.45 -11.65 -5.45 -11.6 -5.55 -11.3 -5.45 -10.6 -5.35" fill="#ffffff" fill-rule="evenodd" stroke="none"/>
    <path d="M-5.6 -34.7 L11.15 -34.7 11.15 -33.9 11.15 -32.25 -5.6 -32.25 -5.6 -34.7" fill="#24637d" fill-rule="evenodd" stroke="none"/>
    <path d="M-30.45 -27.6 L-30.45 -12.9 -34.0 -12.9 Q-32.8 -14.6 -32.25 -17.75 -31.75 -20.4 -31.1 -27.6 L-30.45 -27.6 M-29.65 3.1 L-29.65 2.7 -28.5 2.7 -10.45 2.7 -9.7 2.7 -9.7 -2.55 -9.65 -2.65 -9.3 -2.65 -9.3 2.7 11.2 2.7 12.05 2.7 12.05 -2.5 12.5 -2.5 12.5 2.7 31.65 2.7 32.9 2.7 Q32.9 3.1 33.05 2.9 L32.9 3.1 12.5 3.1 12.5 3.3 12.5 32.45 12.5 33.7 12.05 33.7 12.05 3.1 -9.3 3.1 -9.3 3.3 -9.3 18.55 -9.7 18.55 -9.7 3.1 -29.65 3.1 M-9.7 -27.45 L-9.3 -27.45 -9.3 -26.65 -9.3 -6.05 -9.7 -6.25 -9.7 -27.45 M12.05 -27.45 L12.5 -27.45 12.5 -26.65 12.5 -5.9 12.05 -5.9 12.05 -27.45 M-9.3 33.7 L-9.7 33.7 -9.7 21.6 -9.3 21.6 -9.3 32.45 -9.3 33.7" fill="#bdbbc4" fill-rule="evenodd" stroke="none"/>
    <path d="M-5.6 -31.15 L11.15 -31.15 11.15 -28.4 -5.6 -28.4 -5.6 -31.15" fill="#184456" fill-rule="evenodd" stroke="none"/>
    <path d="M-9.3 -6.05 L-9.3 -2.65 -9.65 -2.65 -9.7 -5.85 -13.0 -5.95 -10.45 -6.25 -9.7 -6.25 -9.3 -6.05 M-3.2 -22.7 L-3.35 -22.5 -3.35 -23.2 -2.35 -23.4 0.15 -23.4 0.15 -19.65 0.0 -19.55 -0.2 -19.75 -0.2 -22.7 -3.2 -22.7 M11.75 -5.55 L11.8 -5.65 12.05 -5.9 12.5 -5.9 15.05 -5.85 Q15.2 -2.75 15.0 -2.5 L14.8 -5.55 11.75 -5.55 M22.95 -5.95 L24.35 -6.2 26.3 -6.2 26.35 -4.4 26.2 -2.9 26.0 -5.95 22.95 -5.95 M-9.3 18.55 L-8.9 18.55 -8.8 21.75 -9.25 21.6 -9.25 18.95 -11.85 18.95 -12.0 18.55 -10.45 18.55 -9.7 18.55 -9.3 18.55 M-23.4 -5.05 L-23.65 -5.25 -20.1 -5.45 -20.05 -4.65 Q-20.05 -2.7 -20.3 -2.05 L-20.4 -5.05 -23.4 -5.05 M-13.65 12.65 L-13.8 12.3 -12.75 12.3 -11.75 12.5 -11.7 13.6 -11.75 14.0 -11.85 14.05 -12.05 13.5 -12.05 12.65 -12.85 12.65 -13.65 12.65" fill="#87888d" fill-rule="evenodd" stroke="none"/>
    <path d="M15.0 -2.5 Q15.2 -2.75 15.05 -5.85 L12.5 -5.9 12.5 -26.65 31.65 -26.65 31.65 -21.8 30.65 -21.8 30.2 -21.8 30.2 -20.1 31.65 -20.1 31.65 2.7 12.5 2.7 12.5 -2.5 15.0 -2.5 M22.95 -5.95 L22.95 -2.9 26.2 -2.9 26.35 -4.4 26.3 -6.2 24.35 -6.2 22.95 -5.95" fill="url(#gradient2)" fill-rule="evenodd" stroke="none"/>
    <path d="M30.65 -21.8 L31.65 -21.8 31.9 -21.8 31.9 -20.6 30.65 -20.6 30.65 -21.8" fill="#71748e" fill-rule="evenodd" stroke="none"/>
    <path d="M-6.55 -33.9 L-6.2 -34.7 -6.2 -28.4 -6.55 -28.4 -6.55 -31.5 -6.55 -33.9 M-30.4 -28.0 L-30.45 -27.8 -35.75 -27.8 -35.75 -12.25 -36.15 -12.25 -36.1 -28.15 -30.55 -28.25 -30.4 -28.0" fill="#fffafc" fill-rule="evenodd" stroke="none"/>
    <path d="M-6.2 -34.7 L-5.6 -34.7 -5.6 -32.25 -5.6 -31.15 -5.6 -28.4 -6.2 -28.4 -6.2 -34.7" fill="#beb1af" fill-rule="evenodd" stroke="none"/>
    <path d="M-9.15 -31.5 L-9.15 -33.9 -6.55 -33.9 -6.55 -31.5 -9.15 -31.5" fill="url(#gradient3)" fill-rule="evenodd" stroke="none"/>
    <path d="M-38.25 -3.1 L-38.25 -30.3 -9.15 -30.3 -30.45 -29.15 -36.9 -29.15 -36.9 -4.6 -30.45 -4.6 -30.45 -3.1 -32.4 -3.1 -32.8 -3.1 -38.25 -3.1" fill="url(#gradient4)" fill-rule="evenodd" stroke="none"/>
    <path d="M-30.45 -12.25 L-30.45 -4.6 -36.9 -4.6 -36.9 -29.15 -30.45 -29.15 -30.45 -28.4 -30.55 -28.25 -36.1 -28.15 -36.15 -12.25 -35.75 -12.25 -30.45 -12.25" fill="#244334" fill-rule="evenodd" stroke="none"/>
    <path d="M-30.45 -27.8 L-30.45 -27.6 -31.1 -27.6 -35.25 -27.6 -35.25 -12.9 -34.0 -12.9 -30.45 -12.9 -30.45 -12.25 -35.75 -12.25 -35.75 -27.8 -30.45 -27.8" fill="#d4d4d4" fill-rule="evenodd" stroke="none"/>
    <path d="M-34.0 -12.9 L-35.25 -12.9 -35.25 -27.6 -31.1 -27.6 Q-31.75 -20.4 -32.25 -17.75 -32.8 -14.6 -34.0 -12.9" fill="url(#gradient5)" fill-rule="evenodd" stroke="none"/>
    <path d="M-38.25 -2.3 L-38.25 -3.1 -32.8 -3.1 -32.8 8.8 -34.6 8.8 Q-34.6 0.5 -38.25 -2.3 M-34.45 20.8 L-32.9 20.8 -32.9 27.25 -37.8 27.25 Q-36.35 25.8 -35.35 24.05 -34.3 22.1 -34.45 20.8" fill="#b4b1b4" fill-rule="evenodd" stroke="none"/>
    <path d="M-32.8 -3.1 L-32.4 -3.1 -32.4 -2.75 -32.4 8.8 Q-32.8 8.8 -32.45 8.95 L-32.8 8.8 -32.8 -3.1 M-32.9 20.8 L-32.5 20.8 -32.5 27.25 Q-32.9 27.25 -32.55 27.4 L-32.9 27.25 -32.9 20.8" fill="#cfccc9" fill-rule="evenodd" stroke="none"/>
    <path d="M-30.45 -3.1 L-30.45 8.8 -31.5 8.8 -31.5 -2.75 -32.4 -2.75 -32.4 -3.1 -30.45 -3.1" fill="#9c978d" fill-rule="evenodd" stroke="none"/>
    <path d="M-32.4 8.8 L-32.4 -2.75 -31.5 -2.75 -31.5 8.8 -32.4 8.8" fill="#b6b3aa" fill-rule="evenodd" stroke="none"/>
    <path d="M-38.25 27.25 L-38.25 -2.3 Q-34.6 0.5 -34.6 8.8 L-36.3 8.8 -36.3 10.3 -36.3 11.6 -36.3 19.85 -36.3 20.8 -34.45 20.8 Q-34.3 22.1 -35.35 24.05 -36.35 25.8 -37.8 27.25 L-38.25 27.25 M28.8 21.05 Q28.95 20.85 29.2 20.85 L29.65 21.05 29.8 21.5 29.65 21.95 29.2 22.15 Q28.95 22.15 28.8 21.95 L28.6 21.5 28.8 21.05 M26.75 24.35 L26.75 26.4 25.75 26.4 25.75 24.35 26.75 24.35 M28.4 25.85 L28.45 25.45 27.85 25.25 Q27.25 25.25 27.25 25.0 L27.4 24.1 29.15 24.1 28.85 25.2 28.4 25.85 M-28.5 20.9 L-27.2 22.7 Q-26.7 22.45 -26.7 21.9 -26.45 21.55 -25.3 21.55 -25.75 23.25 -26.1 23.65 -26.95 24.5 -28.5 27.6 L-28.5 20.9 M-25.7 20.6 L-25.85 20.95 -26.2 21.1 -26.55 20.95 -26.7 20.6 -26.55 20.25 -26.2 20.1 Q-26.0 20.1 -25.85 20.25 L-25.7 20.6 M-24.95 26.2 L-24.75 27.15 -24.95 28.1 -25.55 28.5 -26.1 28.1 -26.35 27.15 -26.1 26.2 Q-25.9 25.8 -25.55 25.8 -25.2 25.8 -24.95 26.2" fill="#d1cfd1" fill-rule="evenodd" stroke="none"/>
    <path d="M-20.3 -2.05 Q-20.05 -2.7 -20.05 -4.65 L-20.1 -5.45 -23.65 -5.25 -23.4 -5.05 -23.4 -2.05 -20.3 -2.05 M-13.0 -5.95 L-13.0 -2.55 -10.45 -2.55 -10.45 2.7 -28.5 2.7 -28.5 -26.65 -10.45 -26.65 -10.45 -6.25 -13.0 -5.95" fill="url(#gradient6)" fill-rule="evenodd" stroke="none"/>
    <path d="M-9.3 3.3 L11.2 3.3 11.2 32.45 -9.3 32.45 -9.3 21.6 -9.25 21.6 -8.8 21.75 -8.9 18.55 -9.3 18.55 -9.3 3.3" fill="url(#gradient7)" fill-rule="evenodd" stroke="none"/>
    <path d="M-11.85 14.05 L-11.75 14.0 -11.7 13.6 -11.75 12.5 -12.75 12.3 -13.8 12.3 -13.65 12.65 -13.65 14.25 -11.85 14.25 -11.85 14.05 M-10.45 18.55 L-12.0 18.55 -11.85 18.95 -11.85 21.6 -10.45 21.6 -10.45 28.5 -10.45 29.35 -10.45 32.45 -28.5 32.45 -28.5 27.6 Q-26.95 24.5 -26.1 23.65 -25.75 23.25 -25.3 21.55 -26.45 21.55 -26.7 21.9 -26.7 22.45 -27.2 22.7 L-28.5 20.9 Q-28.5 16.65 -26.25 12.35 -21.75 3.7 -10.45 3.3 L-10.45 18.55 M-18.55 14.95 L-18.45 14.6 -18.55 14.3 Q-18.7 14.15 -18.9 14.15 -19.1 14.15 -19.2 14.3 L-19.35 14.6 -19.2 14.95 -18.9 15.05 -18.55 14.95 M-16.15 14.95 L-15.85 15.05 -15.5 14.95 -15.4 14.6 -15.5 14.3 Q-15.65 14.15 -15.85 14.15 L-16.15 14.3 -16.3 14.6 -16.15 14.95 M-25.7 20.6 L-25.85 20.25 Q-26.0 20.1 -26.2 20.1 L-26.55 20.25 -26.7 20.6 -26.55 20.95 -26.2 21.1 -25.85 20.95 -25.7 20.6 M-24.95 26.2 Q-25.2 25.8 -25.55 25.8 -25.9 25.8 -26.1 26.2 L-26.35 27.15 -26.1 28.1 -25.55 28.5 -24.95 28.1 -24.75 27.15 -24.95 26.2" fill="url(#gradient8)" fill-rule="evenodd" stroke="none"/>
    <path d="M-30.45 8.8 L-30.45 10.3 -36.3 10.3 -36.3 8.8 -34.6 8.8 -32.8 8.8 -32.45 8.95 Q-32.8 8.8 -32.4 8.8 L-31.5 8.8 -30.45 8.8 M-30.45 29.35 L-30.45 29.85 -35.35 29.85 -37.6 29.85 -37.6 29.35 -32.65 29.35 -30.45 29.35 M-10.45 29.35 L-10.45 28.5 -9.95 28.75 Q-9.95 29.1 -10.1 29.25 L-10.45 29.35 M-16.15 14.95 L-16.3 14.6 -16.15 14.3 -15.85 14.15 Q-15.65 14.15 -15.5 14.3 L-15.4 14.6 -15.5 14.95 -15.85 15.05 -16.15 14.95 M-18.55 14.95 L-18.9 15.05 -19.2 14.95 -19.35 14.6 -19.2 14.3 Q-19.1 14.15 -18.9 14.15 -18.7 14.15 -18.55 14.3 L-18.45 14.6 -18.55 14.95" fill="#3a393e" fill-rule="evenodd" stroke="none"/>
    <path d="M-30.45 10.3 L-30.45 20.8 -31.65 20.8 -32.5 20.8 -32.9 20.8 -34.45 20.8 -36.3 20.8 -36.3 19.85 -31.65 19.85 -31.65 11.6 -36.3 11.6 -36.3 10.3 -30.45 10.3" fill="#716f77" fill-rule="evenodd" stroke="none"/>
    <path d="M-36.3 11.6 L-31.65 11.6 -31.65 19.85 -36.3 19.85 -36.3 11.6 M-32.15 12.1 L-35.7 12.1 -35.7 19.55 -32.15 19.55 -32.15 12.1" fill="#838089" fill-rule="evenodd" stroke="none"/>
    <path d="M-32.15 12.1 L-32.15 19.55 -35.7 19.55 -35.7 12.1 -32.15 12.1" fill="#9f9ea5" fill-rule="evenodd" stroke="none"/>
    <path d="M-32.5 20.8 L-31.65 20.8 -31.65 27.25 -32.5 27.25 -32.5 20.8" fill="#b2aba5" fill-rule="evenodd" stroke="none"/>
    <path d="M-30.45 20.8 L-30.45 27.25 -31.65 27.25 -31.65 20.8 -30.45 20.8" fill="#8e8279" fill-rule="evenodd" stroke="none"/>
    <path d="M-29.65 28.55 L-29.65 18.8 -28.5 20.9 -28.5 27.6 -29.65 28.55 M32.9 22.65 L32.9 30.95 31.65 29.95 31.65 22.15 32.9 22.65" fill="#b8b6b8" fill-rule="evenodd" stroke="none"/>
    <path d="M-38.25 33.8 L-38.25 27.25 -37.8 27.25 -32.9 27.25 -32.55 27.4 Q-32.9 27.25 -32.5 27.25 L-31.65 27.25 -32.65 29.35 -37.6 29.35 -37.6 29.85 -37.6 31.6 -35.2 31.6 -33.85 31.6 -32.6 32.7 -38.25 33.8" fill="#97948d" fill-rule="evenodd" stroke="none"/>
    <path d="M-30.45 34.1 L-38.25 34.1 -38.25 33.8 -32.6 32.7 -33.85 31.6 -30.45 31.6 -30.45 33.7 -30.45 34.1 M-30.45 27.25 L-30.45 29.35 -32.65 29.35 -31.65 27.25 -30.45 27.25" fill="#65625f" fill-rule="evenodd" stroke="none"/>
    <path d="M-30.45 29.85 L-30.45 31.6 -33.85 31.6 -35.2 31.6 -35.35 29.85 -30.45 29.85" fill="#bead96" fill-rule="evenodd" stroke="none"/>
    <path d="M33.5 34.95 L33.5 35.0 -30.45 35.0 -30.45 34.1 -30.45 33.7 -29.65 33.7 -9.7 33.7 -9.3 33.7 12.05 33.7 12.5 33.7 32.9 33.7 32.9 34.95 33.5 34.95" fill="#827f86" fill-rule="evenodd" stroke="none"/>
    <path d="M-37.6 29.85 L-35.35 29.85 -35.2 31.6 -37.6 31.6 -37.6 29.85" fill="#ded6c9" fill-rule="evenodd" stroke="none"/>
    <path d="M26.75 24.35 L25.75 24.35 25.75 26.4 26.75 26.4 26.75 24.35 M28.8 21.05 L28.6 21.5 28.8 21.95 Q28.95 22.15 29.2 22.15 L29.65 21.95 29.8 21.5 29.65 21.05 29.2 20.85 Q28.95 20.85 28.8 21.05 M31.65 22.15 Q30.5 22.75 30.1 23.1 L29.15 24.1 27.4 24.1 27.25 25.0 Q27.25 25.25 27.85 25.25 L28.45 25.45 28.4 25.85 Q28.4 27.55 29.35 28.75 30.3 29.95 31.65 29.95 L31.65 32.45 12.5 32.45 12.5 3.3 31.65 3.3 31.65 22.15 M20.3 28.6 L19.65 28.6 19.65 30.7 21.7 30.7 21.7 29.65 21.7 28.6 20.3 28.6 M27.5 30.1 L27.65 30.5 28.0 30.65 28.35 30.5 28.5 30.1 28.35 29.7 28.0 29.55 Q27.8 29.55 27.65 29.7 27.5 29.85 27.5 30.1" fill="url(#gradient9)" fill-rule="evenodd" stroke="none"/>
    <path d="M29.15 24.1 L30.1 23.1 Q30.5 22.75 31.65 22.15 L31.65 29.95 Q30.3 29.95 29.35 28.75 28.4 27.55 28.4 25.85 L28.85 25.2 29.15 24.1 M27.5 30.1 Q27.5 29.85 27.65 29.7 27.8 29.55 28.0 29.55 L28.35 29.7 28.5 30.1 28.35 30.5 28.0 30.65 27.65 30.5 27.5 30.1" fill="#c7c2c6" fill-rule="evenodd" stroke="none"/>
    <path d="M35.85 13.9 L37.65 13.9 37.65 22.8 36.3 22.8 36.3 25.15 35.85 25.15 35.85 13.9" fill="#cac4ae" fill-rule="evenodd" stroke="none"/>
    <path d="M33.65 13.9 L35.85 13.9 35.85 25.15 36.3 25.15 36.3 28.1 37.65 28.1 37.65 29.55 35.5 29.55 35.5 24.25 34.7 24.25 33.65 24.25 33.65 13.9" fill="#807355" fill-rule="evenodd" stroke="none"/>
    <path d="M33.65 30.2 L33.65 24.25 34.7 24.25 34.7 30.2 33.65 30.2" fill="#656b81" fill-rule="evenodd" stroke="none"/>
    <path d="M37.65 22.8 L37.65 28.1 36.3 28.1 36.3 25.15 36.3 22.8 37.65 22.8" fill="#526667" fill-rule="evenodd" stroke="none"/>
    <path d="M34.7 24.25 L35.5 24.25 35.5 29.55 34.7 30.2 34.7 24.25" fill="#9da0b3" fill-rule="evenodd" stroke="none"/>
    <path d="M35.15 34.95 L33.5 34.95 33.65 30.2 34.7 30.2 35.5 29.55 37.65 29.55 Q36.55 30.35 35.8 31.95 35.1 33.55 35.15 34.95" fill="#968683" fill-rule="evenodd" stroke="none"/>
    <path d="M37.65 29.55 L38.3 29.55 38.3 34.95 35.15 34.95 Q35.1 33.55 35.8 31.95 36.55 30.35 37.65 29.55" fill="#fff1f1" fill-rule="evenodd" stroke="none"/>
  </g>
  <defs>
    <radialGradient cx="0" cy="0" gradientTransform="matrix(0.0205, 0.0, 0.0, 0.0205, 27.9, -32.9)" gradientUnits="userSpaceOnUse" id="gradient0" r="819.2" spreadMethod="pad">
      <stop offset="0.0" stop-color="#ffffff"/>
      <stop offset="1.0" stop-color="#fffafc"/>
    </radialGradient>
    <radialGradient cx="0" cy="0" gradientTransform="matrix(0.0407, 0.0, 0.0, 0.0407, 9.3, -25.0)" gradientUnits="userSpaceOnUse" id="gradient1" r="819.2" spreadMethod="pad">
      <stop offset="0.0" stop-color="#ffffff"/>
      <stop offset="1.0" stop-color="#fffafc"/>
    </radialGradient>
    <radialGradient cx="0" cy="0" gradientTransform="matrix(0.0406, 0.0, 0.0, 0.0406, 30.35, -25.3)" gradientUnits="userSpaceOnUse" id="gradient2" r="819.2" spreadMethod="pad">
      <stop offset="0.0" stop-color="#ffffff"/>
      <stop offset="1.0" stop-color="#fffafc"/>
    </radialGradient>
    <radialGradient cx="0" cy="0" gradientTransform="matrix(0.0024, 0.0, 0.0, 0.0024, -8.05, -32.75)" gradientUnits="userSpaceOnUse" id="gradient3" r="819.2" spreadMethod="pad">
      <stop offset="0.0" stop-color="#ffffff"/>
      <stop offset="1.0" stop-color="#fffafc"/>
    </radialGradient>
    <radialGradient cx="0" cy="0" gradientTransform="matrix(0.0342, 0.0, 0.0, 0.0342, -37.15, -29.25)" gradientUnits="userSpaceOnUse" id="gradient4" r="819.2" spreadMethod="pad">
      <stop offset="0.0" stop-color="#ffffff"/>
      <stop offset="1.0" stop-color="#fffafc"/>
    </radialGradient>
    <radialGradient cx="0" cy="0" gradientTransform="matrix(0.0162, 0.0, 0.0, 0.0162, -32.45, -25.9)" gradientUnits="userSpaceOnUse" id="gradient5" r="819.2" spreadMethod="pad">
      <stop offset="0.0" stop-color="#ffffff"/>
      <stop offset="1.0" stop-color="#fffafc"/>
    </radialGradient>
    <radialGradient cx="0" cy="0" gradientTransform="matrix(0.0396, 0.0, 0.0, 0.0396, -12.3, -25.45)" gradientUnits="userSpaceOnUse" id="gradient6" r="819.2" spreadMethod="pad">
      <stop offset="0.0" stop-color="#ffffff"/>
      <stop offset="1.0" stop-color="#fffafc"/>
    </radialGradient>
    <radialGradient cx="0" cy="0" gradientTransform="matrix(0.0412, 0.0, 0.0, 0.0412, 9.6, 4.55)" gradientUnits="userSpaceOnUse" id="gradient7" r="819.2" spreadMethod="pad">
      <stop offset="0.0" stop-color="#ffffff"/>
      <stop offset="1.0" stop-color="#fffafc"/>
    </radialGradient>
    <radialGradient cx="0" cy="0" gradientTransform="matrix(0.0384, 0.0, 0.0, 0.0384, -12.3, 5.5)" gradientUnits="userSpaceOnUse" id="gradient8" r="819.2" spreadMethod="pad">
      <stop offset="0.0" stop-color="#ffffff"/>
      <stop offset="1.0" stop-color="#fffafc"/>
    </radialGradient>
    <radialGradient cx="0" cy="0" gradientTransform="matrix(0.0396, 0.0, 0.0, 0.0396, 29.75, 5.05)" gradientUnits="userSpaceOnUse" id="gradient9" r="819.2" spreadMethod="pad">
      <stop offset="0.0" stop-color="#ffffff"/>
      <stop offset="1.0" stop-color="#fffafc"/>
    </radialGradient>
  </defs>
</svg>
