<?xml version="1.0" encoding="UTF-8" standalone="no"?>
<svg xmlns:ffdec="https://www.free-decompiler.com/flash" xmlns:xlink="http://www.w3.org/1999/xlink" ffdec:objectType="shape" height="11.3px" width="16.65px" xmlns="http://www.w3.org/2000/svg">
  <g transform="matrix(1.0, 0.0, 0.0, 1.0, 13.0, 5.65)">
    <path d="M0.3 -4.1 L0.45 -4.05 Q0.3 -3.05 -0.05 -3.05 L-0.7 -3.2 Q-1.05 -3.2 -1.1 -3.9 L-1.25 -3.7 -1.25 -3.55 Q-1.25 -3.05 -2.05 -3.05 L-2.5 -2.8 -2.65 -2.85 -3.15 -2.45 Q-3.6 -2.45 -3.65 -2.75 L-4.0 -2.6 -4.55 -2.75 -5.35 -2.9 -5.6 -2.8 -5.9 -2.9 -6.45 -3.05 -7.2 -2.95 -7.95 -3.05 -8.3 -3.0 -8.9 -3.1 -10.45 -2.8 -10.95 -3.0 -11.65 -3.15 -12.2 -3.05 -12.5 -3.15 -12.75 -3.05 -13.0 -3.35 Q-13.0 -3.55 -12.4 -3.65 L-11.4 -3.75 -10.5 -3.65 Q-10.35 -3.65 -10.2 -3.9 L-9.8 -4.15 -9.45 -4.0 -8.55 -4.15 -7.85 -4.0 -5.85 -4.2 -5.3 -4.4 Q-4.95 -4.4 -4.75 -4.2 L-4.5 -4.05 -4.15 -4.45 Q-3.8 -4.95 -2.7 -4.95 L-2.25 -4.7 -1.6 -4.75 -1.3 -4.45 -1.2 -4.25 -1.2 -4.2 -1.1 -4.05 -1.1 -4.45 -1.35 -4.9 Q-1.35 -5.2 -1.0 -5.05 L-0.5 -4.7 0.05 -3.95 0.3 -4.1 M1.65 -2.15 L1.9 -2.1 2.2 -1.65 2.25 -1.7 2.55 -1.6 2.55 -1.4 2.6 -1.25 2.75 -1.1 2.85 -0.75 3.3 -0.2 3.3 -0.05 3.35 0.0 3.55 -0.05 3.65 0.15 3.6 0.3 3.4 0.35 3.0 0.85 2.8 0.7 2.6 1.05 2.6 1.25 2.45 1.6 2.55 1.7 Q2.55 1.95 2.2 1.95 L2.05 1.95 1.9 2.05 1.8 2.05 1.5 2.55 1.55 2.8 1.35 3.2 0.85 3.5 0.9 3.75 -0.2 5.0 Q-0.55 5.0 -0.55 4.7 L-0.2 4.2 0.25 3.85 0.0 3.25 Q0.0 2.9 0.3 2.6 L0.4 2.55 0.4 2.35 0.65 2.05 0.65 1.65 0.75 1.2 0.6 1.2 Q0.05 1.2 -0.1 -0.65 -0.1 -1.2 0.2 -1.2 L0.35 -1.15 0.25 -1.7 0.3 -2.5 Q0.4 -2.75 0.9 -2.75 L1.05 -2.7 Q1.1 -2.95 1.45 -2.85 L1.5 -2.65 1.45 -2.5 1.45 -2.45 1.5 -2.4 1.65 -2.15 M-0.8 2.75 Q-0.4 2.8 -0.55 3.3 -0.55 4.45 -1.4 4.45 -1.4 4.8 -1.8 4.8 L-2.55 4.45 -2.9 4.55 -3.45 4.2 -4.0 4.5 Q-4.65 4.5 -5.55 3.8 L-5.75 3.95 -6.25 4.05 -7.35 3.9 -7.6 3.6 -8.0 3.55 -8.85 3.4 Q-9.05 3.4 -9.25 3.55 L-9.7 3.75 -10.5 3.55 -11.15 3.4 -12.45 3.2 -12.7 2.85 Q-12.7 2.55 -12.2 2.55 L-11.45 2.65 -8.6 2.65 -5.95 3.0 -5.7 2.85 Q-5.7 2.55 -5.0 2.55 L-4.7 2.6 -3.4 2.65 -2.95 2.9 -2.55 2.8 -2.25 2.65 -2.15 2.7 -1.25 2.5 Q-0.9 2.5 -0.8 2.75" fill="#1a1a1a" fill-rule="evenodd" stroke="none"/>
    <path d="M1.5 -3.1 L0.5 -2.4 0.6 -2.1 0.9 -2.6 1.25 -2.3 0.85 -1.55 0.95 -1.2 0.95 -1.15 1.1 -0.85 1.2 -0.85 1.25 -0.65 1.25 -0.6 1.2 -0.45 1.15 -0.25 0.9 -0.2 0.8 -0.25 0.55 -0.05 0.2 0.3 0.45 0.5 Q1.3 0.1 1.9 0.25 L2.0 0.35 Q2.0 0.65 0.9 1.25 L0.95 1.4 1.25 1.25 1.3 1.65 1.15 2.05 1.1 2.3 0.8 2.35 0.5 2.6 0.45 2.75 0.5 2.8 1.1 3.6 1.0 3.75 0.7 3.9 0.35 3.7 -0.1 4.2 0.15 4.7 0.15 5.45 -0.25 5.65 -0.65 4.95 -0.7 4.75 -1.4 5.15 -1.8 4.85 Q-1.3 3.7 -0.65 3.4 L-0.95 3.05 -0.7 2.65 -0.75 2.3 -0.35 2.3 0.0 2.0 0.15 1.9 0.0 1.7 -0.9 2.1 -1.25 2.0 -1.35 1.7 Q-1.35 1.35 -0.45 0.9 L-0.55 0.8 -0.9 0.35 -0.35 -0.45 -0.8 -0.2 -1.2 -0.55 -0.65 -1.05 -0.15 -1.3 -0.6 -1.85 -0.9 -1.65 -1.3 -1.7 -1.4 -2.0 -0.95 -2.7 -1.4 -3.05 -1.65 -3.45 -1.6 -3.65 -1.8 -3.85 -1.5 -4.1 -1.7 -4.45 -1.35 -4.95 -1.0 -4.65 -1.0 -4.45 -0.7 -4.45 -1.0 -5.1 Q-1.0 -5.55 -0.65 -5.65 L-0.05 -4.65 0.55 -4.5 0.6 -4.4 0.3 -4.05 0.45 -3.55 1.1 -3.4 1.15 -3.25 1.0 -3.05 1.45 -3.25 1.5 -3.1 M-0.75 -3.55 L-0.55 -3.35 -0.6 -3.45 -0.4 -3.7 -0.1 -3.25 -0.05 -3.25 -0.4 -3.8 -0.9 -3.6 -0.75 -3.55" fill="#333333" fill-rule="evenodd" stroke="none"/>
    <path d="M0.5 -3.15 L0.35 -3.05 Q0.0 -3.05 -0.45 -4.9 L-0.4 -4.9 0.2 -4.0 0.5 -3.15 M1.0 -2.35 L0.4 -1.2 0.25 -1.2 Q0.45 -2.0 0.9 -2.4 L1.0 -2.35 M0.35 -1.75 L0.25 -1.7 -0.85 -3.2 Q-0.85 -4.2 0.45 -1.95 L0.35 -1.75 M1.1 -0.95 L1.1 -0.55 1.05 -0.5 1.25 -0.25 1.0 -0.5 0.95 -0.5 0.6 -0.7 0.65 -1.15 1.1 -0.95 M0.2 -1.0 L0.05 -0.75 0.25 -0.8 0.3 -0.7 0.25 -0.35 0.3 -0.25 0.05 0.25 -0.25 0.55 0.3 0.95 0.6 1.5 0.4 1.65 0.05 1.4 -0.25 0.8 -0.25 0.55 -0.5 0.65 -0.7 0.4 -0.2 -0.2 -0.35 -0.45 Q-0.55 -0.3 -0.65 -0.3 L-1.0 -0.55 -0.5 -0.85 0.15 -1.05 0.2 -1.0 M1.2 0.5 L0.6 0.9 0.4 0.8 0.6 0.55 Q0.8 0.35 1.15 0.4 L1.2 0.5 M0.3 1.95 Q0.95 2.1 0.95 2.3 L0.1 3.4 0.15 3.55 -0.05 3.75 Q-0.5 3.75 -0.7 2.6 -0.7 1.65 -0.1 3.0 L-0.1 2.95 0.0 2.85 -0.2 2.25 0.15 2.6 0.3 1.95 M-0.35 -4.0 Q-0.35 -3.7 -1.5 -3.7 L-1.7 -3.8 -1.7 -4.0 -0.4 -4.1 -0.35 -4.0 M-0.9 -2.65 L-0.45 -2.05 -0.55 -1.9 -1.05 -2.4 -0.9 -2.65 M-0.2 1.2 Q-0.2 1.6 -0.45 1.6 L-0.65 1.55 -0.7 1.45 Q-0.7 1.3 -0.2 1.2 M-0.8 4.1 L-1.35 4.55 -1.4 4.45 -1.2 4.25 -0.8 4.1 M-0.7 3.65 L-0.3 4.3 -0.05 4.95 -0.2 5.15 -0.7 4.65 -0.8 4.0 -0.8 3.65 -0.7 3.65" fill="#666666" fill-rule="evenodd" stroke="none"/>
    <path d="M0.35 -2.3 L0.15 -2.25 Q-0.25 -2.25 -0.85 -3.45 L-1.35 -3.6 -1.55 -3.65 -1.4 -3.55 -1.7 -3.3 -2.45 -3.5 -2.6 -3.55 -2.75 -3.6 -3.1 -3.4 -3.45 -3.2 -3.5 -3.2 -3.8 -3.0 -4.3 -3.3 -4.3 -3.45 -4.2 -3.5 -3.85 -3.4 -3.75 -3.9 -3.4 -4.2 -3.35 -4.05 -3.4 -3.85 -2.85 -4.1 -2.5 -4.1 -2.6 -4.2 Q-2.6 -4.45 -2.15 -4.45 L-1.65 -4.15 -1.15 -4.15 -1.25 -4.3 -1.2 -4.5 -0.2 -3.45 0.4 -2.45 0.35 -2.3 M0.85 -2.35 Q1.25 -2.85 1.4 -1.6 L1.15 -1.2 Q0.95 -1.2 0.9 -1.7 L0.85 -2.35 M1.0 -0.6 L0.95 -0.7 Q0.95 -0.95 1.45 -1.1 L2.25 -1.15 Q2.05 -0.75 1.15 -0.55 L1.0 -0.6 M2.5 -1.0 L1.95 0.45 1.8 0.2 2.05 -0.55 2.45 -1.2 2.5 -1.0 M-5.6 -3.7 L-5.0 -3.75 -4.3 -3.25 Q-4.35 -3.15 -4.5 -3.15 L-5.15 -3.4 -5.6 -3.7 M-0.15 0.85 L0.45 1.7 0.4 1.85 0.25 1.9 -0.05 1.6 -0.25 1.15 -0.25 0.9 -0.15 0.85 M-2.95 3.45 Q-2.5 3.45 -2.25 3.8 L-2.25 3.95 -2.5 4.0 Q-3.35 4.0 -3.35 3.65 -3.35 3.4 -2.95 3.45 M-4.0 3.4 L-4.0 3.45 -4.15 3.3 -4.5 3.75 -4.75 3.7 -4.45 3.4 Q-4.35 3.2 -4.05 3.25 L-4.0 3.4 M0.0 3.8 L0.0 3.75 Q0.3 3.3 0.55 3.2 L0.6 3.25 0.9 2.35 1.05 2.05 1.0 2.1 0.45 2.4 0.2 2.2 Q0.95 1.5 1.35 1.5 L1.4 1.65 1.5 1.6 1.65 1.75 0.8 3.6 0.7 3.5 0.45 4.05 0.3 4.3 0.35 4.3 0.15 4.7 0.1 4.65 0.15 4.5 -0.1 4.6 -0.3 4.35 -0.25 4.25 -0.5 3.6 -0.3 3.15 0.0 3.8 M-0.85 3.4 L-0.55 3.9 -0.65 4.15 -0.85 3.95 Q-0.8 3.7 -0.9 3.65 L-0.9 3.4 -0.85 3.4 M-0.85 4.55 Q-1.2 4.55 -1.6 4.0 L-2.0 4.1 -2.2 3.85 -1.85 3.55 -1.95 3.35 Q-1.95 2.45 -0.65 4.3 L-0.85 4.55 M1.75 1.0 L1.8 1.1 1.65 1.4 1.55 1.45 1.45 1.25 1.75 1.0 M0.95 1.2 Q0.6 1.2 0.6 0.2 0.6 -0.6 0.85 -0.7 1.2 -0.25 1.2 0.85 L0.95 1.2" fill="#808080" fill-rule="evenodd" stroke="none"/>
  </g>
</svg>
