<?xml version="1.0" encoding="UTF-8" standalone="no"?>
<svg xmlns:ffdec="https://www.free-decompiler.com/flash" xmlns:xlink="http://www.w3.org/1999/xlink" ffdec:objectType="shape" height="12.3px" width="87.85px" xmlns="http://www.w3.org/2000/svg">
  <g transform="matrix(1.0, 0.0, 0.0, 1.0, 43.9, 6.15)">
    <path d="M29.55 -6.15 L30.2 -6.15 30.45 -1.3 29.75 -1.3 29.55 -6.15 M-36.05 -6.15 L-35.5 -6.15 -35.5 -1.25 -36.0 -1.25 -36.05 -6.15 M-13.7 -6.15 L-13.0 -6.15 -12.75 -1.25 -13.55 -1.25 -13.7 -6.15 M7.15 -6.15 L7.75 -6.15 7.75 -1.3 7.3 -1.3 7.15 -6.15" fill="#e8f9ff" fill-rule="evenodd" stroke="none"/>
    <path d="M7.75 -6.15 L8.75 -6.15 8.75 -1.3 7.75 -1.3 7.75 -6.15 M21.7 -6.15 L22.75 -6.15 22.75 -1.3 21.7 -1.3 21.7 -6.15 M34.65 -6.15 L35.6 -6.15 35.6 -1.3 34.65 -1.3 34.65 -6.15 M-43.6 -3.05 L-43.55 -6.0 -43.45 -6.15 -43.6 -3.05 M-35.5 -6.15 L-34.55 -6.15 -34.55 -1.25 -35.5 -1.25 -35.5 -6.15 M-21.5 -6.15 L-20.45 -6.15 -20.45 -1.25 -21.5 -1.25 -21.5 -6.15 M-8.6 -6.15 L-7.6 -6.15 -7.6 -1.25 -8.6 -1.25 -8.6 -6.15" fill="#ffffff" fill-rule="evenodd" stroke="none"/>
    <path d="M43.4 -6.15 L43.95 -6.15 43.95 -0.85 43.4 -0.85 32.65 -0.8 30.45 -0.85 29.75 -0.85 0.7 -0.7 0.2 -0.8 0.15 -0.8 -10.6 -0.7 -12.75 -0.8 -13.45 -0.8 -43.0 -0.8 -43.6 -0.8 -43.7 0.95 -43.6 -3.05 -43.45 -6.15 -42.65 -6.15 -43.0 -1.25 -36.0 -1.25 -35.5 -1.25 -34.55 -1.25 -21.5 -1.25 -20.45 -1.25 -13.55 -1.25 -12.75 -1.25 -8.6 -1.25 -7.6 -1.25 0.15 -1.25 0.15 -6.15 0.7 -6.15 0.7 -1.3 7.3 -1.3 7.75 -1.3 8.75 -1.3 21.7 -1.3 22.75 -1.3 29.75 -1.3 30.45 -1.3 34.65 -1.3 35.6 -1.3 43.4 -6.15" fill="#ebeff1" fill-rule="evenodd" stroke="none"/>
    <path d="M8.75 -6.15 L21.7 -6.15 21.7 -1.3 8.75 -1.3 8.75 -6.15 M22.75 -6.15 L29.55 -6.15 29.75 -1.3 22.75 -1.3 22.75 -6.15 M30.2 -6.15 L34.65 -6.15 34.65 -1.3 30.45 -1.3 30.2 -6.15 M35.6 -6.15 L43.4 -6.15 35.6 -1.3 35.6 -6.15 M0.7 -6.15 L7.15 -6.15 7.3 -1.3 0.7 -1.3 0.7 -6.15 M32.45 -2.5 L32.8 -2.65 32.9 -3.05 32.9 -3.15 33.0 -3.6 31.75 -4.85 31.1 -4.75 30.9 -4.0 Q30.95 -3.25 31.4 -2.9 L31.8 -2.7 32.45 -2.5" fill="url(#gradient0)" fill-rule="evenodd" stroke="none"/>
    <path d="M43.4 -0.8 L43.95 -0.8 43.95 5.5 19.55 5.5 19.6 5.45 21.7 -0.35 22.75 -0.35 22.75 5.45 Q31.3 4.35 33.1 2.95 33.8 2.4 34.05 1.4 L34.65 -0.65 35.6 -0.65 35.6 5.35 43.4 -0.35 43.4 -0.8 M7.75 -0.05 L8.75 -0.15 8.75 5.5 7.75 5.5 7.75 -0.05 M-35.5 0.0 L-34.55 0.0 -34.55 5.5 -35.5 5.5 -35.5 0.0 M-21.5 -0.3 L-20.45 -0.3 -20.45 5.5 -21.5 5.5 -21.5 -0.3 M-8.6 -0.2 L-7.6 -0.2 -7.6 5.45 Q-3.3 5.25 -1.25 3.4 0.4 1.85 0.15 -0.2 L0.15 -0.7 0.2 -0.7 0.7 -0.7 0.7 -0.05 0.7 5.5 -8.6 5.5 -8.6 -0.2" fill="#acbcc1" fill-rule="evenodd" stroke="none"/>
    <path d="M43.4 -0.85 L43.4 -0.8 43.4 -0.35 35.6 -0.65 34.65 -0.65 22.75 -0.35 21.7 -0.35 8.75 -0.15 7.75 -0.05 0.7 -0.05 0.7 -0.7 29.75 -0.85 30.45 -0.8 32.65 -0.8 43.4 -0.85 M0.15 -0.8 L0.15 -0.7 0.15 -0.2 -7.6 -0.2 -8.6 -0.2 -20.45 -0.3 -21.5 -0.3 -34.55 0.0 -35.5 0.0 -43.0 0.15 -43.0 -0.8 -13.45 -0.8 -12.75 -0.7 -10.6 -0.7 0.15 -0.8" fill="#859ca5" fill-rule="evenodd" stroke="none"/>
    <path d="M0.2 -0.8 L0.7 -0.7 0.2 -0.7 0.2 -0.8" fill="#7391a9" fill-rule="evenodd" stroke="none"/>
    <path d="M0.15 -0.8 L0.2 -0.8 0.2 -0.7 0.15 -0.7 0.15 -0.8" fill="url(#gradient1)" fill-rule="evenodd" stroke="none"/>
    <path d="M43.95 5.5 L43.95 6.0 -43.45 6.0 -43.85 6.15 -43.4 5.7 -43.2 5.5 -35.5 5.5 -34.55 5.5 -21.5 5.5 -20.45 5.5 -8.6 5.5 0.7 5.5 7.75 5.5 8.75 5.5 19.55 5.5 43.95 5.5" fill="#effafe" fill-rule="evenodd" stroke="none"/>
    <path d="M7.75 -0.05 L7.75 5.5 0.7 5.5 0.7 -0.05 7.75 -0.05 M8.75 5.5 L8.75 -0.15 21.7 -0.35 19.6 5.45 19.55 5.5 8.75 5.5 M22.75 -0.35 L34.65 -0.65 34.05 1.4 Q33.8 2.4 33.1 2.95 31.3 4.35 22.75 5.45 L22.75 -0.35 M35.6 -0.65 L43.4 -0.35 35.6 5.35 35.6 -0.65 M-43.0 0.15 L-35.5 0.0 -35.5 5.5 -43.2 5.5 -43.0 0.15 M-34.55 0.0 L-21.5 -0.3 -21.5 5.5 -34.55 5.5 -34.55 0.0 M-20.45 -0.3 L-8.6 -0.2 -8.6 5.5 -20.45 5.5 -20.45 -0.3 M-7.6 -0.2 L0.15 -0.2 Q0.4 1.85 -1.25 3.4 -3.3 5.25 -7.6 5.45 L-7.6 -0.2" fill="#8f9da8" fill-rule="evenodd" stroke="none"/>
    <path d="M-42.65 -6.15 L-36.05 -6.15 -36.0 -1.25 -43.0 -1.25 -42.65 -6.15 M-34.55 -6.15 L-21.5 -6.15 -21.5 -1.25 -34.55 -1.25 -34.55 -6.15 M-13.0 -6.15 L-8.6 -6.15 -8.6 -1.25 -12.75 -1.25 -13.0 -6.15 M-7.6 -6.15 L0.15 -6.15 0.15 -1.25 -7.6 -1.25 -7.6 -6.15 M-10.3 -3.5 Q-10.6 -4.35 -11.5 -4.75 -12.15 -4.65 -12.25 -3.85 L-11.9 -2.75 -11.9 -2.85 Q-11.5 -2.25 -11.05 -2.1 L-10.5 -2.0 Q-10.0 -2.05 -10.0 -2.7 -10.0 -3.7 -10.3 -3.5" fill="url(#gradient2)" fill-rule="evenodd" stroke="none"/>
    <path d="M32.9 -3.15 L32.9 -3.05 32.8 -2.65 32.45 -2.5 32.3 -2.85 32.1 -3.0 32.35 -3.6 32.9 -3.15 M-10.85 -3.5 L-10.8 -3.45 -10.35 -3.15 -10.35 -3.0 -10.85 -2.4 -10.85 -3.5" fill="#47677c" fill-rule="evenodd" stroke="none"/>
    <path d="M31.8 -2.7 L31.4 -2.9 Q31.4 -3.45 31.55 -3.55 L32.4 -3.75 33.0 -3.6 32.9 -3.15 32.35 -3.6 31.95 -3.3 31.8 -2.7 M-11.9 -2.85 L-11.45 -3.25 -11.25 -2.65 -11.55 -2.95 -10.85 -2.4 -10.35 -3.0 -10.15 -2.85 -10.35 -3.15 -10.8 -3.45 -10.3 -3.5 Q-10.0 -3.7 -10.0 -2.7 -10.0 -2.05 -10.5 -2.0 L-11.05 -2.1 Q-11.5 -2.25 -11.9 -2.85" fill="#bbd6e6" fill-rule="evenodd" stroke="none"/>
    <path d="M31.4 -2.9 Q30.95 -3.25 30.9 -4.0 L31.1 -4.75 31.75 -4.85 33.0 -3.6 32.4 -3.75 31.55 -3.55 Q31.4 -3.45 31.4 -2.9 M-11.9 -2.85 L-11.9 -2.75 -12.25 -3.85 Q-12.15 -4.65 -11.5 -4.75 -10.6 -4.35 -10.3 -3.5 L-10.8 -3.45 -10.85 -3.5 -11.45 -3.25 -11.9 -2.85" fill="#c4d3dd" fill-rule="evenodd" stroke="none"/>
    <path d="M32.45 -2.5 L31.8 -2.7 31.95 -3.3 32.35 -3.6 32.1 -3.0 32.3 -2.85 32.45 -2.5 M-11.45 -3.25 L-10.85 -3.5 -10.85 -2.4 -11.55 -2.95 -11.25 -2.65 -11.45 -3.25" fill="#7496ae" fill-rule="evenodd" stroke="none"/>
    <path d="M29.75 -0.85 L30.45 -0.85 30.45 -0.8 29.75 -0.85 M-12.75 -0.7 L-13.45 -0.8 -12.75 -0.8 -12.75 -0.7" fill="#dce3e7" fill-rule="evenodd" stroke="none"/>
    <path d="M30.45 -0.85 L32.65 -0.8 30.45 -0.8 30.45 -0.85" fill="url(#gradient3)" fill-rule="evenodd" stroke="none"/>
    <path d="M-43.4 5.7 L-43.9 5.7 -43.7 0.95 -43.6 -0.8 -43.0 -0.8 -43.0 0.15 -43.2 5.5 -43.4 5.7" fill="#becfda" fill-rule="evenodd" stroke="none"/>
    <path d="M-20.45 -6.15 L-13.7 -6.15 -13.55 -1.25 -20.45 -1.25 -20.45 -6.15" fill="url(#gradient4)" fill-rule="evenodd" stroke="none"/>
    <path d="M-10.6 -0.7 L-12.75 -0.7 -12.75 -0.8 -10.6 -0.7" fill="url(#gradient5)" fill-rule="evenodd" stroke="none"/>
    <path d="M-10.35 -3.0 L-10.35 -3.15 -10.15 -2.85 -10.35 -3.0" fill="#dae9f1" fill-rule="evenodd" stroke="none"/>
  </g>
  <defs>
    <linearGradient gradientTransform="matrix(-1.0E-4, 0.0016, -0.0206, -1.0E-4, 23.15, -4.55)" gradientUnits="userSpaceOnUse" id="gradient0" spreadMethod="pad" x1="-819.2" x2="819.2">
      <stop offset="0.0" stop-color="#cdd6db"/>
      <stop offset="1.0" stop-color="#e7eced"/>
    </linearGradient>
    <linearGradient gradientTransform="matrix(0.0, 0.0029, -0.0046, 0.0, 21.7, 2.65)" gradientUnits="userSpaceOnUse" id="gradient1" spreadMethod="pad" x1="-819.2" x2="819.2">
      <stop offset="0.0" stop-color="#7496ae"/>
      <stop offset="1.0" stop-color="#effafe"/>
    </linearGradient>
    <linearGradient gradientTransform="matrix(-2.0E-4, 0.0016, -0.0206, -6.0E-4, -20.15, -4.55)" gradientUnits="userSpaceOnUse" id="gradient2" spreadMethod="pad" x1="-819.2" x2="819.2">
      <stop offset="0.0" stop-color="#cdd6db"/>
      <stop offset="1.0" stop-color="#e7eced"/>
    </linearGradient>
    <linearGradient gradientTransform="matrix(-1.0E-4, 0.0024, -0.0206, 2.0E-4, 22.5, -1.8)" gradientUnits="userSpaceOnUse" id="gradient3" spreadMethod="pad" x1="-819.2" x2="819.2">
      <stop offset="0.0" stop-color="#c5cfd8"/>
      <stop offset="1.0" stop-color="#ebeff1"/>
    </linearGradient>
    <linearGradient gradientTransform="matrix(0.0, 0.0039, -0.0033, 0.0, -16.95, -3.65)" gradientUnits="userSpaceOnUse" id="gradient4" spreadMethod="pad" x1="-819.2" x2="819.2">
      <stop offset="0.0" stop-color="#cdd6db"/>
      <stop offset="1.0" stop-color="#e7eced"/>
    </linearGradient>
    <linearGradient gradientTransform="matrix(-1.0E-4, 0.0024, -0.0206, 2.0E-4, -20.8, -1.75)" gradientUnits="userSpaceOnUse" id="gradient5" spreadMethod="pad" x1="-819.2" x2="819.2">
      <stop offset="0.0" stop-color="#c5cfd8"/>
      <stop offset="1.0" stop-color="#ebeff1"/>
    </linearGradient>
  </defs>
</svg>
