<?xml version="1.0" encoding="UTF-8" standalone="no"?>
<svg xmlns:ffdec="https://www.free-decompiler.com/flash" xmlns:xlink="http://www.w3.org/1999/xlink" ffdec:objectType="shape" height="14.8px" width="15.05px" xmlns="http://www.w3.org/2000/svg">
  <g transform="matrix(1.0, 0.0, 0.0, 1.0, 2.8, 9.75)">
    <path d="M4.6 -9.0 L-2.8 -9.0 -2.8 -9.75 6.25 -9.75 6.25 -9.0 4.85 -9.0 4.6 -9.0 M5.25 -6.0 L5.25 -4.75 4.25 -5.2 4.25 -6.0 5.25 -6.0 M5.25 -3.65 L5.25 -3.0 8.25 -3.0 8.25 -2.0 4.25 -2.0 4.25 -2.3 5.25 -3.65 M11.25 -4.0 L12.25 -4.0 12.25 5.05 11.25 5.05 11.25 4.0 11.5 4.0 11.75 3.45 11.4 2.95 Q11.5 4.0 11.25 3.1 L11.25 0.85 11.35 0.8 11.45 0.75 11.4 0.7 11.55 0.3 Q11.5 0.1 11.4 0.5 11.3 0.85 11.25 -0.1 L11.25 -1.8 11.55 -1.7 Q11.3 -2.75 11.5 -2.15 L11.75 -1.55 12.05 -2.05 Q12.0 -2.55 11.25 -2.65 L11.25 -4.0 M3.25 -6.0 L3.25 -4.65 2.1 -3.4 1.35 -2.35 3.25 -2.0 3.25 -1.0 8.25 -1.0 8.0 0.1 7.95 0.4 Q6.45 1.1 6.25 0.95 L5.25 1.0 5.25 0.45 5.2 0.25 4.5 0.2 Q3.9 0.2 3.55 0.5 L3.2 1.0 2.05 0.9 1.75 0.2 Q1.65 0.2 1.7 0.8 L1.3 0.8 1.25 1.0 1.25 -6.0 3.25 -6.0 M1.75 -0.3 L1.35 -0.2 1.8 -0.1 1.75 -0.3 M7.2 0.3 L7.3 0.55 7.5 0.25 Q7.35 0.0 7.2 0.3" fill="#b86161" fill-rule="evenodd" stroke="none"/>
    <path d="M5.2 -8.5 L5.35 -8.45 4.45 -8.35 5.2 -8.5 M-1.75 -7.75 L5.25 -7.75 5.25 -6.75 Q1.65 -7.4 0.4 -6.65 -0.2 -6.35 -0.2 -5.7 L-0.4 -4.95 0.1 -4.95 Q-0.25 -4.95 -0.3 -4.0 L-0.35 -4.1 -0.45 -3.45 -0.3 -3.45 -0.25 -2.8 Q0.1 0.4 -0.05 1.7 L3.0 2.0 Q2.9 2.8 3.05 3.25 L3.6 4.0 0.25 3.95 Q-0.6 3.85 -0.95 3.55 -1.4 3.2 -1.55 1.55 L-1.75 -7.75 M9.25 -3.0 L10.25 -3.0 10.25 4.0 6.95 4.0 6.9 2.85 6.5 2.0 8.25 2.1 8.55 2.5 8.55 2.55 9.25 2.0 9.25 -3.0 M2.2 -8.4 L0.95 -8.45 1.05 -8.5 2.25 -8.75 2.2 -8.4 M11.55 -1.7 L11.25 -1.8 11.2 -2.55 11.55 -1.7 M11.4 0.7 L11.45 0.75 11.35 0.8 11.25 0.8 11.2 0.8 10.9 0.25 10.95 0.15 11.4 0.7 M11.5 4.0 L11.25 4.0 11.15 3.25 11.5 4.0 M-0.55 -8.75 L-0.55 -8.55 -0.7 -8.3 -1.45 -8.5 -1.4 -8.55 -0.55 -8.75 M-0.95 -5.85 L-1.05 -5.55 -0.8 -5.5 -0.95 -5.85" fill="#924343" fill-rule="evenodd" stroke="none"/>
    <path d="M5.2 -8.5 L4.45 -8.35 4.2 -8.6 4.6 -9.0 4.85 -9.0 5.2 -8.5 M1.05 -8.5 L1.65 -8.8 2.25 -8.75 2.35 -8.7 2.2 -8.4 2.25 -8.75 1.05 -8.5 M4.25 -6.0 L4.25 -5.2 3.55 -5.05 3.25 -4.65 3.25 -6.0 4.25 -6.0 M8.25 -1.0 L3.25 -1.0 3.25 -2.0 4.25 -2.3 4.25 -2.0 8.25 -2.0 8.25 -1.0 M11.25 -2.65 Q12.0 -2.55 12.05 -2.05 L11.75 -1.55 11.5 -2.15 Q11.3 -2.75 11.55 -1.7 L11.2 -2.55 11.25 -2.65 M11.25 -0.1 Q11.3 0.85 11.4 0.5 11.5 0.1 11.55 0.3 L11.4 0.7 10.95 0.15 11.25 -0.1 M11.35 0.8 L11.25 0.85 11.25 0.8 11.35 0.8 M11.25 3.1 Q11.5 4.0 11.4 2.95 L11.75 3.45 11.5 4.0 11.15 3.25 11.25 3.1 M-0.55 -8.75 L-1.4 -8.55 -1.25 -8.75 Q-1.0 -8.95 -0.55 -8.75" fill="#c48080" fill-rule="evenodd" stroke="none"/>
    <path d="M3.0 2.0 L3.2 1.0 3.55 0.5 Q3.9 0.2 4.5 0.2 L5.2 0.25 5.25 0.45 5.25 1.0 6.5 2.0 3.0 2.0" fill="#ad741f" fill-rule="evenodd" stroke="none"/>
    <path d="M6.95 4.0 L3.6 4.0 3.05 3.25 Q2.9 2.8 3.0 2.0 L6.5 2.0 6.9 2.85 6.95 4.0" fill="#825717" fill-rule="evenodd" stroke="none"/>
    <path d="M4.45 -8.35 L5.35 -8.45 5.2 -8.5 4.85 -9.0 6.25 -9.0 6.25 -7.75 5.25 -7.75 -1.75 -7.75 -2.8 -7.75 -2.8 -9.0 4.6 -9.0 4.2 -8.6 4.45 -8.35 M5.25 -6.75 L5.25 -6.0 4.25 -6.0 3.25 -6.0 1.25 -6.0 1.25 1.0 1.3 0.8 1.7 0.8 Q1.65 0.2 1.75 0.2 L2.05 0.9 3.2 1.0 3.0 2.0 -0.05 1.7 Q0.1 0.4 -0.25 -2.8 L-0.3 -3.45 -0.45 -3.45 -0.35 -4.1 -0.3 -4.0 Q-0.25 -4.95 0.1 -4.95 L-0.4 -4.95 -0.2 -5.7 Q-0.2 -6.35 0.4 -6.65 1.65 -7.4 5.25 -6.75 M8.25 -3.0 L9.25 -3.0 9.25 2.0 8.55 2.55 8.55 2.5 8.25 2.1 6.5 2.0 5.25 1.0 6.25 0.95 Q6.45 1.1 7.95 0.4 L8.0 0.1 8.25 -1.0 8.25 -2.0 8.25 -3.0 M10.25 -3.0 L10.25 -4.0 11.25 -4.0 11.25 -2.65 11.2 -2.55 11.25 -1.8 11.25 -0.1 10.95 0.15 10.9 0.25 11.2 0.8 11.25 0.8 11.25 0.85 11.25 3.1 11.15 3.25 11.25 4.0 11.25 5.05 10.25 5.05 10.25 4.0 10.25 -3.0 M2.2 -8.4 L2.35 -8.7 2.25 -8.75 1.65 -8.8 1.05 -8.5 0.95 -8.45 2.2 -8.4 M1.75 -0.3 L1.8 -0.1 1.35 -0.2 1.75 -0.3 M7.2 0.3 Q7.35 0.0 7.5 0.25 L7.3 0.55 7.2 0.3 M-1.4 -8.55 L-1.45 -8.5 -0.7 -8.3 -0.55 -8.55 -0.55 -8.75 Q-1.0 -8.95 -1.25 -8.75 L-1.4 -8.55 M-0.95 -5.85 L-0.8 -5.5 -1.05 -5.55 -0.95 -5.85" fill="#a94e4e" fill-rule="evenodd" stroke="none"/>
    <path d="M5.25 -4.75 L5.25 -3.65 4.25 -2.3 4.25 -5.2 5.25 -4.75 M3.25 -4.65 L3.25 -2.0 1.35 -2.35 2.1 -3.4 3.25 -4.65" fill="#7e7e01" fill-rule="evenodd" stroke="none"/>
    <path d="M3.25 -4.65 L3.55 -5.05 4.25 -5.2 4.25 -2.3 3.25 -2.0 3.25 -4.65" fill="#a09f01" fill-rule="evenodd" stroke="none"/>
  </g>
</svg>
