<?xml version="1.0" encoding="UTF-8" standalone="no"?>
<svg xmlns:ffdec="https://www.free-decompiler.com/flash" xmlns:xlink="http://www.w3.org/1999/xlink" ffdec:objectType="shape" height="11.9px" width="16.65px" xmlns="http://www.w3.org/2000/svg">
  <g transform="matrix(1.0, 0.0, 0.0, 1.0, 13.0, 5.95)">
    <path d="M-12.7 -3.0 L-12.45 -3.35 -11.15 -3.55 -10.5 -3.75 -9.7 -3.95 -9.25 -3.75 Q-9.05 -3.55 -8.85 -3.55 L-8.0 -3.75 -7.6 -3.8 -7.35 -4.1 -6.25 -4.25 -5.75 -4.15 -5.55 -4.0 Q-4.65 -4.75 -4.0 -4.75 L-3.45 -4.4 Q-3.15 -4.8 -2.9 -4.8 L-2.55 -4.7 -1.8 -5.05 -1.4 -4.7 Q-0.55 -4.7 -0.55 -3.45 -0.4 -2.95 -0.8 -2.9 -0.9 -2.6 -1.25 -2.6 L-2.15 -2.85 -2.25 -2.8 Q-2.4 -2.8 -2.55 -2.95 L-2.95 -3.05 -3.4 -2.8 -4.7 -2.7 -5.0 -2.65 Q-5.7 -2.65 -5.7 -3.0 L-5.95 -3.15 -8.6 -2.8 -11.45 -2.8 -12.2 -2.65 Q-12.7 -2.65 -12.7 -3.0 M0.45 4.25 L0.3 4.3 0.05 4.15 -0.5 4.95 -1.0 5.35 Q-1.35 5.5 -1.35 5.15 L-1.1 4.7 -1.1 4.25 -1.2 4.4 -1.2 4.5 -1.3 4.7 -1.6 5.0 -2.25 4.95 -2.7 5.2 Q-3.8 5.2 -4.15 4.7 L-4.5 4.25 -4.75 4.4 -5.3 4.65 -5.85 4.4 -7.85 4.2 -8.55 4.35 -9.45 4.2 -9.8 4.35 -10.2 4.1 Q-10.35 3.85 -10.5 3.85 L-11.4 3.95 -12.4 3.85 Q-13.0 3.75 -13.0 3.5 L-12.75 3.25 -12.5 3.35 -12.2 3.25 -11.65 3.35 -10.95 3.15 -10.45 2.95 -8.9 3.3 -8.3 3.15 -7.95 3.25 -7.2 3.1 -6.45 3.25 Q-6.05 3.25 -5.9 3.05 L-5.6 2.95 -5.35 3.05 -4.55 2.9 -4.0 2.7 Q-3.8 2.7 -3.65 2.9 -3.6 2.6 -3.15 2.6 -2.8 2.6 -2.65 3.0 L-2.5 2.95 -2.05 3.25 Q-1.25 3.25 -1.25 3.75 L-1.25 3.9 -1.1 4.1 Q-1.05 3.35 -0.7 3.35 L-0.05 3.25 Q0.3 3.25 0.45 4.25 M0.85 -3.7 L1.35 -3.35 1.55 -2.95 1.5 -2.65 1.8 -2.15 1.9 -2.15 2.05 -2.05 2.2 -2.05 Q2.55 -2.05 2.55 -1.8 L2.45 -1.7 2.6 -1.3 2.6 -1.1 2.8 -0.75 3.0 -0.9 3.4 -0.35 3.6 -0.35 3.65 -0.15 3.55 0.05 3.35 0.0 3.3 0.05 3.3 0.2 2.85 0.8 2.75 1.15 2.6 1.3 2.55 1.45 2.55 1.7 2.25 1.8 2.2 1.75 1.9 2.2 1.65 2.25 1.5 2.55 1.45 2.6 1.5 2.8 1.45 3.0 Q1.1 3.1 1.05 2.85 L0.9 2.9 Q0.4 2.9 0.3 2.6 L0.25 1.8 0.35 1.2 0.2 1.25 Q-0.1 1.25 -0.1 0.7 0.05 -1.25 0.6 -1.25 L0.75 -1.25 0.65 -1.75 0.65 -2.15 0.4 -2.5 0.4 -2.65 0.3 -2.7 Q0.0 -3.05 0.0 -3.4 L0.25 -4.1 -0.2 -4.4 -0.55 -4.95 Q-0.55 -5.25 -0.2 -5.25 L0.9 -3.95 0.85 -3.7" fill="#1a1a1a" fill-rule="evenodd" stroke="none"/>
    <path d="M-0.6 3.65 L-0.55 3.5 -0.75 3.75 -0.9 3.8 -0.4 4.0 -0.05 3.4 -0.1 3.4 -0.4 3.9 -0.6 3.65 M1.0 -3.95 L1.1 -3.8 Q1.1 -3.55 0.5 -2.95 L0.45 -2.9 0.5 -2.7 0.8 -2.5 1.1 -2.45 1.15 -2.15 1.3 -1.75 1.25 -1.3 Q1.15 -1.3 0.95 -1.45 L0.9 -1.3 2.0 -0.35 Q2.0 -0.15 1.9 -0.3 L0.45 -0.5 Q0.3 -0.35 0.2 -0.35 L0.55 0.05 0.8 0.3 0.9 0.2 1.15 0.3 1.2 0.45 1.25 0.6 1.25 0.7 1.2 0.9 1.1 0.9 0.95 1.2 0.95 1.25 0.85 1.65 1.25 2.45 0.9 2.7 0.6 2.2 0.5 2.55 1.5 3.3 1.45 3.4 1.0 3.25 1.15 3.4 1.1 3.55 0.45 3.75 0.3 4.25 0.6 4.65 0.55 4.75 -0.05 4.9 -0.65 5.95 Q-1.0 5.85 -1.0 5.4 L-0.7 4.7 -1.0 4.7 -1.0 4.9 -1.35 5.2 -1.7 4.7 -1.5 4.3 -1.8 4.1 -1.6 3.85 -1.65 3.65 -1.4 3.25 -0.95 2.85 -1.4 2.1 -1.3 1.8 -0.9 1.75 -0.6 1.95 -0.15 1.35 -0.65 1.1 -1.2 0.55 -0.8 0.2 -0.35 0.45 -0.9 -0.35 -0.55 -0.85 -0.45 -0.95 Q-1.35 -1.4 -1.35 -1.8 L-1.25 -2.1 -0.9 -2.2 0.0 -1.8 0.15 -2.0 0.0 -2.1 -0.35 -2.45 -0.75 -2.45 -0.7 -2.8 -0.95 -3.25 -0.65 -3.55 Q-1.3 -3.9 -1.8 -5.1 L-1.4 -5.45 -0.7 -5.0 -0.65 -5.2 -0.25 -5.95 0.15 -5.75 0.15 -4.95 -0.1 -4.4 0.35 -3.9 0.7 -4.1 1.0 -3.95" fill="#333333" fill-rule="evenodd" stroke="none"/>
    <path d="M0.25 1.8 L0.35 1.85 0.45 2.05 Q-0.85 4.4 -0.85 3.35 L0.25 1.8 M0.25 1.25 L0.4 1.25 1.0 2.5 0.9 2.55 Q0.45 2.1 0.25 1.25 M1.05 0.5 L1.1 0.55 1.1 1.0 Q0.95 1.25 0.65 1.2 L0.6 0.75 Q0.65 0.5 0.95 0.5 L1.0 0.5 1.25 0.3 1.05 0.5 M-0.4 5.15 L-0.45 5.15 Q0.0 3.25 0.35 3.25 L0.5 3.35 0.2 4.2 Q-0.05 4.85 -0.4 5.15 M-1.5 3.9 Q-0.35 3.9 -0.35 4.2 L-0.4 4.3 -1.7 4.2 -1.7 4.0 -1.5 3.9 M-0.45 2.15 L-0.9 2.8 -1.05 2.55 Q-1.05 2.3 -0.55 2.0 L-0.45 2.15 M-0.7 -0.4 L-0.5 -0.7 -0.25 -0.55 0.05 -0.3 0.3 0.3 0.25 0.35 0.3 0.75 0.25 0.85 0.05 0.8 0.2 1.05 0.15 1.1 -0.5 0.9 -1.0 0.55 Q-1.0 0.35 -0.65 0.35 L-0.35 0.45 -0.2 0.2 -0.7 -0.4 M-0.45 -1.7 Q-0.2 -1.7 -0.2 -1.25 L-0.7 -1.55 -0.65 -1.65 -0.45 -1.7 M-1.4 -4.7 L-1.35 -4.8 -0.8 -4.3 Q-0.95 -4.25 -1.2 -4.5 L-1.4 -4.7 M-0.2 -5.45 Q-0.05 -5.45 -0.05 -5.2 L-0.3 -4.55 -0.7 -3.85 -0.8 -3.85 -0.8 -4.2 -0.7 -4.9 Q-0.55 -5.45 -0.2 -5.45 M0.4 -0.85 L0.6 -0.95 1.2 -0.5 1.15 -0.4 Q0.8 -0.35 0.6 -0.55 L0.4 -0.85 M0.4 -1.75 L0.6 -1.6 0.3 -1.0 -0.25 -0.55 -0.25 -0.85 0.05 -1.45 0.4 -1.75 M0.15 -3.75 L0.1 -3.55 0.95 -2.45 0.3 -2.05 0.15 -2.7 -0.2 -2.4 0.0 -3.0 -0.1 -3.1 -0.1 -3.15 Q-0.7 -1.75 -0.7 -2.7 -0.5 -3.95 -0.05 -3.95 L0.15 -3.75" fill="#666666" fill-rule="evenodd" stroke="none"/>
    <path d="M0.85 2.5 L0.9 1.8 Q0.95 1.25 1.15 1.25 1.4 1.25 1.4 1.7 1.25 3.0 0.85 2.5 M2.25 1.2 L1.45 1.15 0.95 0.75 1.0 0.6 1.15 0.55 Q2.05 0.8 2.25 1.2 M-4.5 3.35 L-4.3 3.4 -5.0 3.95 -5.6 3.9 -5.15 3.55 -4.5 3.35 M-2.85 4.3 L-3.4 4.1 -3.35 4.25 -3.4 4.4 -3.75 4.1 -3.85 3.55 -4.2 3.7 -4.3 3.65 -4.3 3.45 -3.8 3.15 Q-3.55 3.15 -3.5 3.35 L-3.45 3.35 -3.1 3.55 -2.75 3.8 -2.6 3.75 -2.45 3.7 -1.7 3.45 Q-1.4 3.45 -1.4 3.75 L-1.55 3.85 -1.35 3.8 -0.85 3.65 Q-0.25 2.4 0.15 2.4 L0.35 2.45 0.4 2.6 -0.2 3.65 -1.2 4.75 -1.25 4.55 -1.15 4.35 -1.65 4.35 -2.15 4.7 -2.6 4.4 -2.5 4.3 -2.85 4.3 M-4.0 -3.65 L-4.0 -3.55 -4.05 -3.4 Q-4.35 -3.35 -4.45 -3.55 L-4.75 -3.9 -4.5 -3.95 -4.15 -3.45 -4.0 -3.65 M-0.85 -4.15 L-0.65 -4.35 -0.55 -4.1 -0.85 -3.55 -0.9 -3.55 -0.9 -3.85 Q-0.8 -3.9 -0.85 -4.15 M-1.95 -3.5 L-1.85 -3.75 Q-2.2 -3.75 -2.2 -4.1 L-2.0 -4.3 -1.6 -4.2 -0.85 -4.8 -0.65 -4.55 Q-1.95 -2.6 -1.95 -3.5 M-2.5 -4.2 L-2.25 -4.15 -2.25 -4.0 Q-2.5 -3.65 -2.95 -3.65 -3.35 -3.55 -3.35 -3.85 -3.35 -4.2 -2.5 -4.2 M1.65 -1.45 L1.8 -1.15 1.75 -1.05 1.45 -1.3 1.55 -1.55 1.65 -1.45 M1.8 -0.2 L1.95 -0.45 2.5 1.05 2.45 1.25 2.05 0.55 1.8 -0.2 M0.95 -1.25 L1.2 -0.9 Q1.2 0.3 0.85 0.75 0.6 0.6 0.6 -0.2 0.6 -1.25 0.95 -1.25 M0.4 -1.95 L0.45 -1.8 -0.15 -0.9 -0.25 -0.95 -0.25 -1.2 -0.05 -1.7 0.25 -2.0 0.4 -1.95 M0.15 -4.75 L0.1 -4.9 0.15 -4.95 0.35 -4.55 0.3 -4.55 0.45 -4.25 0.7 -3.7 0.8 -3.8 1.65 -1.85 1.5 -1.7 1.4 -1.75 1.35 -1.6 Q0.95 -1.6 0.2 -2.3 L0.45 -2.55 1.0 -2.2 1.05 -2.2 0.9 -2.5 0.6 -3.4 0.55 -3.35 0.0 -3.95 0.0 -4.0 -0.3 -3.35 Q-0.5 -3.5 -0.5 -3.8 L-0.25 -4.5 -0.3 -4.6 -0.1 -4.85 0.15 -4.75" fill="#808080" fill-rule="evenodd" stroke="none"/>
  </g>
</svg>
