<?xml version="1.0" encoding="UTF-8" standalone="no"?>
<svg xmlns:ffdec="https://www.free-decompiler.com/flash" xmlns:xlink="http://www.w3.org/1999/xlink" ffdec:objectType="shape" height="15.95px" width="50.55px" xmlns="http://www.w3.org/2000/svg">
  <g transform="matrix(1.0, 0.0, 0.0, 1.0, 24.75, 8.9)">
    <path d="M9.65 -2.05 L9.45 -8.9 10.2 -8.9 10.5 -2.05 9.65 -2.05 M1.8 -8.9 L1.8 -2.05 0.6 -2.05 0.6 -8.9 1.8 -8.9 M-14.05 -2.05 L-15.2 -2.05 -15.2 -8.9 -14.05 -8.9 -14.05 -2.05 M-24.15 -8.9 L-24.4 -1.5 -24.45 -1.45 -24.5 -1.45 -24.25 -8.9 -24.15 -8.9 M16.4 -2.05 L15.2 -2.05 15.2 -8.9 16.4 -8.9 16.4 -2.05" fill="#ffffff" fill-rule="evenodd" stroke="none"/>
    <path d="M9.65 -2.05 L10.5 -2.05 15.2 -2.05 16.4 -2.05 25.1 -2.05 25.15 -8.9 25.8 -8.9 25.15 -1.5 24.75 -1.5 24.75 -1.55 16.75 -1.55 16.75 -1.45 13.0 -1.45 10.5 -1.5 9.7 -1.5 -24.4 -1.5 -24.15 -8.9 -23.3 -8.9 -23.65 -2.05 -15.75 -2.05 -15.2 -2.05 -14.05 -2.05 0.6 -2.05 1.8 -2.05 9.65 -2.05 M-24.5 0.95 L-24.45 -1.45 -24.4 -1.5 -24.5 0.95" fill="#ebeff1" fill-rule="evenodd" stroke="none"/>
    <path d="M-15.2 -2.05 L-15.75 -2.05 -15.9 -8.9 -15.2 -8.9 -15.2 -2.05" fill="#e8f9ff" fill-rule="evenodd" stroke="none"/>
    <path d="M10.5 -1.5 L13.0 -1.45 10.5 -1.45 10.5 -1.5" fill="url(#gradient0)" fill-rule="evenodd" stroke="none"/>
    <path d="M9.7 -1.5 L10.5 -1.5 10.5 -1.45 9.7 -1.5" fill="#dce3e7" fill-rule="evenodd" stroke="none"/>
    <path d="M-24.4 -1.5 L9.7 -1.5 10.5 -1.45 13.0 -1.45 16.75 -1.45 16.75 6.4 24.75 6.4 24.75 -1.5 25.15 -1.5 25.15 -1.45 Q25.8 -1.45 25.8 6.7 L-24.75 7.05 -24.5 0.95 -24.4 -1.5 M1.8 -1.25 L1.8 6.25 15.2 6.25 15.2 -1.25 1.8 -1.25 M0.6 -0.9 L-14.05 -0.9 -14.05 6.4 0.6 6.4 0.6 -0.9 M-23.95 -0.45 L-23.95 6.45 -15.2 6.45 -15.2 -0.45 -23.95 -0.45" fill="#7e8f9a" fill-rule="evenodd" stroke="none"/>
    <path d="M11.55 -4.1 L11.55 -4.3 12.0 -4.6 11.9 -4.4 11.9 -4.0 12.25 -3.65 12.55 -3.55 12.6 -3.5 12.75 -3.55 13.1 -3.75 13.25 -4.25 13.3 -4.25 13.55 -4.1 13.4 -4.45 13.2 -4.75 13.15 -4.8 13.25 -4.4 12.7 -4.9 12.45 -4.9 12.65 -5.0 13.35 -4.9 13.8 -3.7 Q13.8 -3.2 12.55 -3.2 11.9 -3.2 11.75 -3.5 L11.55 -4.1" fill="#bbd6e6" fill-rule="evenodd" stroke="none"/>
    <path d="M13.25 -4.4 L13.25 -4.3 13.25 -4.25 13.1 -3.75 12.75 -3.55 12.6 -3.5 12.55 -3.55 Q12.4 -3.75 12.4 -4.2 L12.5 -4.9 12.7 -4.9 13.25 -4.4" fill="#47677c" fill-rule="evenodd" stroke="none"/>
    <path d="M13.25 -4.4 L13.15 -4.8 13.2 -4.75 13.4 -4.45 13.55 -4.1 13.3 -4.25 13.25 -4.3 13.25 -4.4" fill="#dae9f1" fill-rule="evenodd" stroke="none"/>
    <path d="M12.0 -4.6 L12.2 -4.8 12.45 -4.9 12.7 -4.9 12.5 -4.9 12.4 -4.2 Q12.4 -3.75 12.55 -3.55 L12.25 -3.65 11.9 -4.0 11.9 -4.4 12.0 -4.6" fill="#7496ae" fill-rule="evenodd" stroke="none"/>
    <path d="M11.55 -4.1 Q11.1 -4.3 11.1 -5.3 11.1 -6.0 11.25 -6.2 L11.95 -6.4 13.35 -4.9 12.65 -5.0 12.45 -4.9 12.2 -4.8 12.0 -4.6 11.55 -4.3 11.55 -4.1" fill="#b3bdc4" fill-rule="evenodd" stroke="none"/>
    <path d="M9.45 -8.9 L9.65 -2.05 1.8 -2.05 1.8 -8.9 9.45 -8.9 M10.5 -2.05 L10.2 -8.9 15.2 -8.9 15.2 -2.05 10.5 -2.05 M0.6 -8.9 L0.6 -2.05 -14.05 -2.05 -14.05 -8.9 0.6 -8.9 M-15.75 -2.05 L-23.65 -2.05 -23.3 -8.9 -15.9 -8.9 -15.75 -2.05 M25.15 -8.9 L25.1 -2.05 16.4 -2.05 16.4 -8.9 25.15 -8.9 M13.35 -4.9 L11.95 -6.4 11.25 -6.2 Q11.1 -6.0 11.1 -5.3 11.1 -4.3 11.55 -4.1 L11.75 -3.5 Q11.9 -3.2 12.55 -3.2 13.8 -3.2 13.8 -3.7 L13.35 -4.9 M13.25 -4.3 L13.3 -4.25 13.25 -4.25 13.25 -4.3" fill="url(#gradient1)" fill-rule="evenodd" stroke="none"/>
    <path d="M16.75 -1.45 L16.75 -1.55 24.75 -1.55 24.75 -1.5 24.75 6.4 16.75 6.4 16.75 -1.45 M1.8 -1.25 L15.2 -1.25 15.2 6.25 1.8 6.25 1.8 -1.25 M0.6 -0.9 L0.6 6.4 -14.05 6.4 -14.05 -0.9 0.6 -0.9 M-23.95 -0.45 L-15.2 -0.45 -15.2 6.45 -23.95 6.45 -23.95 -0.45" fill="#9fabb4" fill-rule="evenodd" stroke="none"/>
  </g>
  <defs>
    <linearGradient gradientTransform="matrix(-1.0E-4, 0.0029, -0.0233, 2.0E-4, 1.5, -2.75)" gradientUnits="userSpaceOnUse" id="gradient0" spreadMethod="pad" x1="-819.2" x2="819.2">
      <stop offset="0.0" stop-color="#c5cfd8"/>
      <stop offset="1.0" stop-color="#ebeff1"/>
    </linearGradient>
    <linearGradient gradientTransform="matrix(-1.0E-4, 0.002, -0.0233, -3.0E-4, 2.05, -6.15)" gradientUnits="userSpaceOnUse" id="gradient1" spreadMethod="pad" x1="-819.2" x2="819.2">
      <stop offset="0.0" stop-color="#c7cfd4"/>
      <stop offset="1.0" stop-color="#e7eced"/>
    </linearGradient>
  </defs>
</svg>
