<?xml version="1.0" encoding="UTF-8" standalone="no"?>
<svg xmlns:ffdec="https://www.free-decompiler.com/flash" xmlns:xlink="http://www.w3.org/1999/xlink" ffdec:objectType="shape" height="7.25px" width="24.55px" xmlns="http://www.w3.org/2000/svg">
  <g transform="matrix(1.0, 0.0, 0.0, 1.0, 0.0, 0.0)">
    <path d="M23.35 4.4 L0.45 4.4 0.45 1.0 23.35 1.0 23.35 4.4" fill="url(#gradient0)" fill-rule="evenodd" stroke="none"/>
    <path d="M23.6 0.55 L23.6 4.85 0.0 4.85 0.0 0.55 23.6 0.55 M23.5 4.65 L23.5 0.8 0.25 0.8 0.25 4.65 23.5 4.65" fill="#999999" fill-rule="evenodd" stroke="none"/>
    <path d="M23.5 4.65 L0.25 4.65 0.25 0.8 23.5 0.8 23.5 4.65 M23.35 4.4 L23.35 1.0 0.45 1.0 0.45 4.4 23.35 4.4" fill="#d8c7c0" fill-rule="evenodd" stroke="none"/>
    <path d="M23.6 0.55 L23.7 0.55 23.7 4.9 23.7 4.95 23.65 4.95 23.6 4.95 0.0 4.95 0.0 4.85 23.6 4.85 23.6 0.55" fill="#000000" fill-rule="evenodd" stroke="none"/>
    <path d="M23.75 5.85 L23.55 6.8 Q23.35 6.7 23.35 4.8 L23.15 0.75 Q23.55 0.5 23.75 1.25 L23.85 1.9 23.85 5.05 23.75 5.85 M23.2 0.2 Q22.95 0.6 20.75 0.6 L20.75 0.2 23.05 0.2 23.2 0.2 M20.5 0.2 L20.5 0.6 18.35 0.6 18.35 0.2 20.5 0.2 M18.1 0.2 L18.1 0.6 15.7 0.6 15.7 0.2 18.1 0.2 M15.5 0.2 L15.5 0.6 13.3 0.6 13.3 0.2 15.5 0.2 M13.05 0.2 L13.05 0.6 10.55 0.6 10.55 0.2 13.05 0.2 M10.3 0.2 L10.3 0.6 8.15 0.6 8.15 0.2 10.3 0.2 M7.9 0.2 L7.9 0.6 5.6 0.6 5.6 0.2 7.9 0.2 M5.35 0.2 L5.35 0.6 3.2 0.6 3.2 0.2 5.35 0.2 M2.95 0.2 L2.95 0.6 Q1.45 0.6 1.05 0.2 L2.95 0.2 M1.05 7.1 L2.15 6.85 Q2.95 6.85 2.95 7.1 L1.05 7.1 M3.2 7.1 L3.2 6.75 5.35 6.75 5.35 7.1 3.2 7.1 M5.6 7.1 L5.6 6.75 7.9 6.75 7.9 7.1 5.6 7.1 M8.15 7.1 L8.15 6.75 10.3 6.75 10.3 7.1 8.15 7.1 M10.55 7.1 L10.55 6.75 13.05 6.75 13.05 7.1 10.55 7.1 M13.3 7.1 L13.3 6.75 15.5 6.75 15.5 7.1 13.3 7.1 M15.7 7.1 L15.7 6.75 18.1 6.75 18.1 7.1 15.7 7.1 M18.35 7.1 L18.35 6.75 20.5 6.75 20.5 7.1 18.35 7.1 M20.75 7.1 Q20.75 6.85 21.8 6.85 L23.15 7.1 23.05 7.1 20.75 7.1 M0.4 0.5 L0.5 3.65 0.45 6.8 0.3 0.5 0.4 0.5" fill="#1e272f" fill-rule="evenodd" stroke="none"/>
    <path d="M23.75 1.25 Q23.55 0.5 23.15 0.75 L23.35 4.8 Q23.35 6.7 23.55 6.8 L23.75 5.85 23.95 6.3 Q23.7 7.1 23.15 7.1 L21.8 6.85 Q20.75 6.85 20.75 7.1 L20.5 7.1 20.5 6.75 18.35 6.75 18.35 7.1 18.1 7.1 18.1 6.75 15.7 6.75 15.7 7.1 15.5 7.1 15.5 6.75 13.3 6.75 13.3 7.1 13.05 7.1 13.05 6.75 10.55 6.75 10.55 7.1 10.3 7.1 10.3 6.75 8.15 6.75 8.15 7.1 7.9 7.1 7.9 6.75 5.6 6.75 5.6 7.1 5.35 7.1 5.35 6.75 3.2 6.75 3.2 7.1 2.95 7.1 Q2.95 6.85 2.15 6.85 L1.05 7.1 0.25 7.1 0.2 6.5 0.2 0.85 0.25 0.2 1.05 0.2 Q1.45 0.6 2.95 0.6 L2.95 0.2 3.2 0.2 3.2 0.6 5.35 0.6 5.35 0.2 5.6 0.2 5.6 0.6 7.9 0.6 7.9 0.2 8.15 0.2 8.15 0.6 10.3 0.6 10.3 0.2 10.55 0.2 10.55 0.6 13.05 0.6 13.05 0.2 13.3 0.2 13.3 0.6 15.5 0.6 15.5 0.2 15.7 0.2 15.7 0.6 18.1 0.6 18.1 0.2 18.35 0.2 18.35 0.6 20.5 0.6 20.5 0.2 20.75 0.2 20.75 0.6 Q22.95 0.6 23.2 0.2 L23.9 0.85 23.75 1.25 M23.1 6.5 L23.1 0.85 0.9 0.85 0.9 6.5 23.1 6.5 M0.4 0.5 L0.3 0.5 0.45 6.8 0.5 3.65 0.4 0.5" fill="#999999" fill-rule="evenodd" stroke="none"/>
    <path d="M19.5 2.35 L19.9 2.15 19.95 5.25 19.85 5.25 19.5 4.95 19.5 2.35 M16.3 2.15 L16.4 2.35 16.4 5.05 16.25 5.2 16.3 2.15" fill="#808080" fill-rule="evenodd" stroke="none"/>
    <path d="M19.9 2.15 L19.5 2.35 16.4 2.35 16.3 2.15 19.9 2.15 M19.5 4.95 L19.85 5.25 16.25 5.25 16.25 5.2 16.4 5.05 19.5 5.05 19.5 4.95 M4.5 5.25 L4.5 5.2 4.6 5.15 4.5 5.25" fill="#aaaaaa" fill-rule="evenodd" stroke="none"/>
    <path d="M19.5 2.35 L19.5 4.95 19.5 5.05 16.4 5.05 16.4 2.35 19.5 2.35 M17.35 3.75 L17.5 3.95 17.75 4.0 18.05 3.95 18.15 3.75 18.05 3.6 17.75 3.5 17.5 3.6 17.35 3.75" fill="#cccccc" fill-rule="evenodd" stroke="none"/>
    <path d="M17.35 3.75 L17.5 3.6 17.75 3.5 18.05 3.6 18.15 3.75 18.05 3.95 17.75 4.0 17.5 3.95 17.35 3.75 M6.0 4.0 L6.1 4.0 6.15 4.0 6.2 4.0 6.05 4.0 6.0 4.0" fill="#ffffff" fill-rule="evenodd" stroke="none"/>
    <path d="M23.9 0.85 L23.2 0.2 23.05 0.2 23.05 0.0 24.15 0.0 Q24.55 2.05 24.55 3.65 24.6 5.25 24.0 7.25 L23.05 7.25 23.05 7.1 23.15 7.1 Q23.7 7.1 23.95 6.3 L24.1 5.5 Q24.3 3.5 24.05 1.5 L23.9 0.85" fill="#333333" fill-rule="evenodd" stroke="none"/>
    <path d="M23.85 5.05 L23.85 1.9 24.05 1.5 Q24.3 3.5 24.1 5.5 L23.85 5.05" fill="#fbfbfb" fill-rule="evenodd" stroke="none"/>
    <path d="M23.75 1.25 L23.9 0.85 24.05 1.5 23.85 1.9 23.75 1.25 M23.95 6.3 L23.75 5.85 23.85 5.05 24.1 5.5 23.95 6.3" fill="#b7b7b7" fill-rule="evenodd" stroke="none"/>
    <path d="M23.1 6.5 L0.9 6.5 0.9 0.85 23.1 0.85 23.1 6.5 M19.85 5.25 L19.95 5.25 19.9 2.15 16.3 2.15 16.25 5.2 16.25 5.25 19.85 5.25 M6.0 4.0 L6.05 4.0 6.2 4.0 6.15 4.0 6.1 4.0 6.0 4.0 M4.5 5.25 L4.6 5.15 4.5 5.2 4.5 5.25" fill="url(#gradient1)" fill-rule="evenodd" stroke="none"/>
  </g>
  <defs>
    <radialGradient cx="0" cy="0" gradientTransform="matrix(0.0, 0.0273, -0.0273, 0.0, 22.4, 1.45)" gradientUnits="userSpaceOnUse" id="gradient0" r="819.2" spreadMethod="pad">
      <stop offset="0.0" stop-color="#fcfafa"/>
      <stop offset="1.0" stop-color="#dfd2ca"/>
    </radialGradient>
    <radialGradient cx="0" cy="0" gradientTransform="matrix(0.0, -0.0149, 0.0149, 0.0, 22.25, 1.4)" gradientUnits="userSpaceOnUse" id="gradient1" r="819.2" spreadMethod="pad">
      <stop offset="0.0" stop-color="#ffffff"/>
      <stop offset="1.0" stop-color="#bbbbbb"/>
    </radialGradient>
  </defs>
</svg>
