<?xml version="1.0" encoding="UTF-8" standalone="no"?>
<svg xmlns:ffdec="https://www.free-decompiler.com/flash" xmlns:xlink="http://www.w3.org/1999/xlink" ffdec:objectType="shape" height="41.25px" width="126.0px" xmlns="http://www.w3.org/2000/svg">
  <g transform="matrix(1.0, 0.0, 0.0, 1.0, 63.0, 20.6)">
    <path d="M-63.0 9.6 L63.0 9.6 56.0 15.15 -57.2 15.4 -63.0 9.6" fill="#404040" fill-rule="evenodd" stroke="none"/>
    <path d="M3.5 -1.6 L3.5 -11.35 22.25 -11.35 22.25 -1.6 3.5 -1.6" fill="#333333" fill-rule="evenodd" stroke="none"/>
    <path d="M-16.25 -12.65 L37.5 -12.65 37.5 -9.65 62.0 -9.65 63.0 -11.35 63.0 9.6 -63.0 9.6 -63.0 -7.9 -17.25 -7.9 -16.25 -9.6 -16.25 -12.65 M3.5 -1.6 L22.25 -1.6 22.25 -11.35 3.5 -11.35 3.5 -1.6" fill="url(#gradient0)" fill-rule="evenodd" stroke="none"/>
    <path d="M63.0 -11.35 L38.5 -11.35 38.5 -14.35 -16.25 -14.35 -16.25 -12.65 -16.25 -9.6 -63.0 -9.6 -63.0 -18.9 62.0 -18.9 63.0 -11.35" fill="url(#gradient1)" fill-rule="evenodd" stroke="none"/>
    <path d="M63.0 -11.35 L62.0 -9.65 37.5 -9.65 37.5 -12.65 -16.25 -12.65 -16.25 -14.35 38.5 -14.35 38.5 -11.35 63.0 -11.35 M-16.25 -9.6 L-17.25 -7.9 -63.0 -7.9 -63.0 -9.6 -16.25 -9.6" fill="#b7b7b7" fill-rule="evenodd" stroke="none"/>
    <path d="M63.0 -11.35 L62.0 -18.9 -63.0 -18.9 -63.0 -20.6 63.0 -20.6 63.0 -11.35" fill="url(#gradient2)" fill-rule="evenodd" stroke="none"/>
    <path d="M43.5 -5.6 L57.0 -5.6 M-18.0 0.9 L-8.25 0.9 M-29.25 6.65 L3.25 6.65 M-59.25 3.4 L-27.0 3.4 M21.25 1.9 L53.25 1.9 M37.5 7.4 L50.5 7.4" fill="none" stroke="#808080" stroke-linecap="round" stroke-linejoin="round" stroke-width="0.5"/>
    <path d="M56.35 13.25 Q55.6 12.5 54.5 12.5 53.45 12.5 52.65 13.25 51.9 14.0 51.9 15.1 51.9 16.2 52.65 16.95 53.45 17.7 54.5 17.7 55.6 17.7 56.35 16.95 57.1 16.2 57.1 15.1 57.1 14.0 56.35 13.25 M57.5 12.1 Q58.7 13.35 58.7 15.1 58.7 16.8 57.5 18.05 56.25 19.3 54.5 19.3 52.8 19.3 51.55 18.05 50.3 16.8 50.3 15.1 50.3 13.35 51.55 12.1 52.8 10.9 54.5 10.9 56.25 10.9 57.5 12.1" fill="#737373" fill-rule="evenodd" stroke="none"/>
    <path d="M58.45 11.1 Q60.1 12.75 60.1 15.05 60.1 17.4 58.45 19.0 56.85 20.65 54.5 20.65 52.2 20.65 50.55 19.0 48.9 17.4 48.9 15.05 48.9 12.75 50.55 11.1 52.2 9.45 54.5 9.45 56.85 9.45 58.45 11.1 M57.5 12.1 Q56.25 10.9 54.5 10.9 52.8 10.9 51.55 12.1 50.3 13.35 50.3 15.1 50.3 16.8 51.55 18.05 52.8 19.3 54.5 19.3 56.25 19.3 57.5 18.05 58.7 16.8 58.7 15.1 58.7 13.35 57.5 12.1" fill="#4d4d4d" fill-rule="evenodd" stroke="none"/>
    <path d="M56.35 13.25 Q57.1 14.0 57.1 15.1 57.1 16.2 56.35 16.95 55.6 17.7 54.5 17.7 53.45 17.7 52.65 16.95 51.9 16.2 51.9 15.1 51.9 14.0 52.65 13.25 53.45 12.5 54.5 12.5 55.6 12.5 56.35 13.25" fill="url(#gradient3)" fill-rule="evenodd" stroke="none"/>
    <path d="M44.3 16.95 Q45.05 16.2 45.05 15.1 45.05 14.0 44.3 13.25 43.55 12.5 42.45 12.5 41.4 12.5 40.6 13.25 39.85 14.0 39.85 15.1 39.85 16.2 40.6 16.95 41.4 17.7 42.45 17.7 43.55 17.7 44.3 16.95 M45.45 18.05 Q44.2 19.3 42.45 19.3 40.75 19.3 39.5 18.05 38.25 16.8 38.25 15.1 38.25 13.35 39.5 12.1 40.75 10.9 42.45 10.9 44.2 10.9 45.45 12.1 46.65 13.35 46.65 15.1 46.65 16.8 45.45 18.05" fill="#737373" fill-rule="evenodd" stroke="none"/>
    <path d="M44.3 16.95 Q43.55 17.7 42.45 17.7 41.4 17.7 40.6 16.95 39.85 16.2 39.85 15.1 39.85 14.0 40.6 13.25 41.4 12.5 42.45 12.5 43.55 12.5 44.3 13.25 45.05 14.0 45.05 15.1 45.05 16.2 44.3 16.95" fill="url(#gradient4)" fill-rule="evenodd" stroke="none"/>
    <path d="M46.4 19.0 Q44.8 20.65 42.45 20.65 40.15 20.65 38.5 19.0 36.85 17.4 36.85 15.05 36.85 12.75 38.5 11.1 40.15 9.45 42.45 9.45 44.8 9.45 46.4 11.1 48.05 12.75 48.05 15.05 48.05 17.4 46.4 19.0 M45.45 18.05 Q46.65 16.8 46.65 15.1 46.65 13.35 45.45 12.1 44.2 10.9 42.45 10.9 40.75 10.9 39.5 12.1 38.25 13.35 38.25 15.1 38.25 16.8 39.5 18.05 40.75 19.3 42.45 19.3 44.2 19.3 45.45 18.05" fill="#4d4d4d" fill-rule="evenodd" stroke="none"/>
    <path d="M28.25 16.95 Q29.0 16.2 29.0 15.1 29.0 14.0 28.25 13.25 27.5 12.5 26.4 12.5 25.35 12.5 24.55 13.25 23.8 14.0 23.8 15.1 23.8 16.2 24.55 16.95 25.35 17.7 26.4 17.7 27.5 17.7 28.25 16.95 M29.4 18.05 Q28.15 19.3 26.4 19.3 24.7 19.3 23.45 18.05 22.2 16.8 22.2 15.1 22.2 13.35 23.45 12.1 24.7 10.9 26.4 10.9 28.15 10.9 29.4 12.1 30.6 13.35 30.6 15.1 30.6 16.8 29.4 18.05" fill="#737373" fill-rule="evenodd" stroke="none"/>
    <path d="M28.25 16.95 Q27.5 17.7 26.4 17.7 25.35 17.7 24.55 16.95 23.8 16.2 23.8 15.1 23.8 14.0 24.55 13.25 25.35 12.5 26.4 12.5 27.5 12.5 28.25 13.25 29.0 14.0 29.0 15.1 29.0 16.2 28.25 16.95" fill="url(#gradient5)" fill-rule="evenodd" stroke="none"/>
    <path d="M30.35 19.0 Q28.75 20.65 26.4 20.65 24.1 20.65 22.45 19.0 20.8 17.4 20.8 15.05 20.8 12.75 22.45 11.1 24.1 9.45 26.4 9.45 28.75 9.45 30.35 11.1 32.0 12.75 32.0 15.05 32.0 17.4 30.35 19.0 M29.4 18.05 Q30.6 16.8 30.6 15.1 30.6 13.35 29.4 12.1 28.15 10.9 26.4 10.9 24.7 10.9 23.45 12.1 22.2 13.35 22.2 15.1 22.2 16.8 23.45 18.05 24.7 19.3 26.4 19.3 28.15 19.3 29.4 18.05" fill="#4d4d4d" fill-rule="evenodd" stroke="none"/>
    <path d="M17.4 18.05 Q16.15 19.3 14.4 19.3 12.7 19.3 11.45 18.05 10.2 16.8 10.2 15.1 10.2 13.35 11.45 12.1 12.7 10.9 14.4 10.9 16.15 10.9 17.4 12.1 18.6 13.35 18.6 15.1 18.6 16.8 17.4 18.05 M16.25 16.95 Q17.0 16.2 17.0 15.1 17.0 14.0 16.25 13.25 15.5 12.5 14.4 12.5 13.35 12.5 12.55 13.25 11.8 14.0 11.8 15.1 11.8 16.2 12.55 16.95 13.35 17.7 14.4 17.7 15.5 17.7 16.25 16.95" fill="#737373" fill-rule="evenodd" stroke="none"/>
    <path d="M16.25 16.95 Q15.5 17.7 14.4 17.7 13.35 17.7 12.55 16.95 11.8 16.2 11.8 15.1 11.8 14.0 12.55 13.25 13.35 12.5 14.4 12.5 15.5 12.5 16.25 13.25 17.0 14.0 17.0 15.1 17.0 16.2 16.25 16.95" fill="url(#gradient6)" fill-rule="evenodd" stroke="none"/>
    <path d="M17.4 18.05 Q18.6 16.8 18.6 15.1 18.6 13.35 17.4 12.1 16.15 10.9 14.4 10.9 12.7 10.9 11.45 12.1 10.2 13.35 10.2 15.1 10.2 16.8 11.45 18.05 12.7 19.3 14.4 19.3 16.15 19.3 17.4 18.05 M18.35 19.0 Q16.75 20.65 14.4 20.65 12.1 20.65 10.45 19.0 8.8 17.4 8.8 15.05 8.8 12.75 10.45 11.1 12.1 9.45 14.4 9.45 16.75 9.45 18.35 11.1 20.0 12.75 20.0 15.05 20.0 17.4 18.35 19.0" fill="#4d4d4d" fill-rule="evenodd" stroke="none"/>
    <path d="M-12.25 16.95 Q-11.5 16.2 -11.5 15.1 -11.5 14.0 -12.25 13.25 -13.0 12.5 -14.1 12.5 -15.15 12.5 -15.95 13.25 -16.7 14.0 -16.7 15.1 -16.7 16.2 -15.95 16.95 -15.15 17.7 -14.1 17.7 -13.0 17.7 -12.25 16.95 M-11.1 18.05 Q-12.35 19.3 -14.1 19.3 -15.8 19.3 -17.05 18.05 -18.3 16.8 -18.3 15.1 -18.3 13.35 -17.05 12.1 -15.8 10.9 -14.1 10.9 -12.35 10.9 -11.1 12.1 -9.9 13.35 -9.9 15.1 -9.9 16.8 -11.1 18.05" fill="#737373" fill-rule="evenodd" stroke="none"/>
    <path d="M-12.25 16.95 Q-13.0 17.7 -14.1 17.7 -15.15 17.7 -15.95 16.95 -16.7 16.2 -16.7 15.1 -16.7 14.0 -15.95 13.25 -15.15 12.5 -14.1 12.5 -13.0 12.5 -12.25 13.25 -11.5 14.0 -11.5 15.1 -11.5 16.2 -12.25 16.95" fill="url(#gradient7)" fill-rule="evenodd" stroke="none"/>
    <path d="M-10.15 19.0 Q-11.75 20.65 -14.1 20.65 -16.4 20.65 -18.05 19.0 -19.7 17.4 -19.7 15.05 -19.7 12.75 -18.05 11.1 -16.4 9.45 -14.1 9.45 -11.75 9.45 -10.15 11.1 -8.5 12.75 -8.5 15.05 -8.5 17.4 -10.15 19.0 M-11.1 18.05 Q-9.9 16.8 -9.9 15.1 -9.9 13.35 -11.1 12.1 -12.35 10.9 -14.1 10.9 -15.8 10.9 -17.05 12.1 -18.3 13.35 -18.3 15.1 -18.3 16.8 -17.05 18.05 -15.8 19.3 -14.1 19.3 -12.35 19.3 -11.1 18.05" fill="#4d4d4d" fill-rule="evenodd" stroke="none"/>
    <path d="M-23.15 18.05 Q-24.4 19.3 -26.15 19.3 -27.85 19.3 -29.1 18.05 -30.35 16.8 -30.35 15.1 -30.35 13.35 -29.1 12.1 -27.85 10.9 -26.15 10.9 -24.4 10.9 -23.15 12.1 -21.95 13.35 -21.95 15.1 -21.95 16.8 -23.15 18.05 M-24.3 16.95 Q-23.55 16.2 -23.55 15.1 -23.55 14.0 -24.3 13.25 -25.05 12.5 -26.15 12.5 -27.2 12.5 -28.0 13.25 -28.75 14.0 -28.75 15.1 -28.75 16.2 -28.0 16.95 -27.2 17.7 -26.15 17.7 -25.05 17.7 -24.3 16.95" fill="#737373" fill-rule="evenodd" stroke="none"/>
    <path d="M-24.3 16.95 Q-25.05 17.7 -26.15 17.7 -27.2 17.7 -28.0 16.95 -28.75 16.2 -28.75 15.1 -28.75 14.0 -28.0 13.25 -27.2 12.5 -26.15 12.5 -25.05 12.5 -24.3 13.25 -23.55 14.0 -23.55 15.1 -23.55 16.2 -24.3 16.95" fill="url(#gradient8)" fill-rule="evenodd" stroke="none"/>
    <path d="M-23.15 18.05 Q-21.95 16.8 -21.95 15.1 -21.95 13.35 -23.15 12.1 -24.4 10.9 -26.15 10.9 -27.85 10.9 -29.1 12.1 -30.35 13.35 -30.35 15.1 -30.35 16.8 -29.1 18.05 -27.85 19.3 -26.15 19.3 -24.4 19.3 -23.15 18.05 M-22.2 19.0 Q-23.8 20.65 -26.15 20.65 -28.45 20.65 -30.1 19.0 -31.75 17.4 -31.75 15.05 -31.75 12.75 -30.1 11.1 -28.45 9.45 -26.15 9.45 -23.8 9.45 -22.2 11.1 -20.55 12.75 -20.55 15.05 -20.55 17.4 -22.2 19.0" fill="#4d4d4d" fill-rule="evenodd" stroke="none"/>
    <path d="M-39.15 18.05 Q-40.4 19.3 -42.15 19.3 -43.85 19.3 -45.1 18.05 -46.35 16.8 -46.35 15.1 -46.35 13.35 -45.1 12.1 -43.85 10.9 -42.15 10.9 -40.4 10.9 -39.15 12.1 -37.95 13.35 -37.95 15.1 -37.95 16.8 -39.15 18.05 M-40.3 16.95 Q-39.55 16.2 -39.55 15.1 -39.55 14.0 -40.3 13.25 -41.05 12.5 -42.15 12.5 -43.2 12.5 -44.0 13.25 -44.75 14.0 -44.75 15.1 -44.75 16.2 -44.0 16.95 -43.2 17.7 -42.15 17.7 -41.05 17.7 -40.3 16.95" fill="#737373" fill-rule="evenodd" stroke="none"/>
    <path d="M-40.3 16.95 Q-41.05 17.7 -42.15 17.7 -43.2 17.7 -44.0 16.95 -44.75 16.2 -44.75 15.1 -44.75 14.0 -44.0 13.25 -43.2 12.5 -42.15 12.5 -41.05 12.5 -40.3 13.25 -39.55 14.0 -39.55 15.1 -39.55 16.2 -40.3 16.95" fill="url(#gradient9)" fill-rule="evenodd" stroke="none"/>
    <path d="M-39.15 18.05 Q-37.95 16.8 -37.95 15.1 -37.95 13.35 -39.15 12.1 -40.4 10.9 -42.15 10.9 -43.85 10.9 -45.1 12.1 -46.35 13.35 -46.35 15.1 -46.35 16.8 -45.1 18.05 -43.85 19.3 -42.15 19.3 -40.4 19.3 -39.15 18.05 M-38.2 19.0 Q-39.8 20.65 -42.15 20.65 -44.45 20.65 -46.1 19.0 -47.75 17.4 -47.75 15.05 -47.75 12.75 -46.1 11.1 -44.45 9.45 -42.15 9.45 -39.8 9.45 -38.2 11.1 -36.55 12.75 -36.55 15.05 -36.55 17.4 -38.2 19.0" fill="#4d4d4d" fill-rule="evenodd" stroke="none"/>
    <path d="M-52.25 16.95 Q-51.5 16.2 -51.5 15.1 -51.5 14.0 -52.25 13.25 -53.0 12.5 -54.1 12.5 -55.15 12.5 -55.95 13.25 -56.7 14.0 -56.7 15.1 -56.7 16.2 -55.95 16.95 -55.15 17.7 -54.1 17.7 -53.0 17.7 -52.25 16.95 M-51.1 18.05 Q-52.35 19.3 -54.1 19.3 -55.8 19.3 -57.05 18.05 -58.3 16.8 -58.3 15.1 -58.3 13.35 -57.05 12.1 -55.8 10.9 -54.1 10.9 -52.35 10.9 -51.1 12.1 -49.9 13.35 -49.9 15.1 -49.9 16.8 -51.1 18.05" fill="#737373" fill-rule="evenodd" stroke="none"/>
    <path d="M-52.25 16.95 Q-53.0 17.7 -54.1 17.7 -55.15 17.7 -55.95 16.95 -56.7 16.2 -56.7 15.1 -56.7 14.0 -55.95 13.25 -55.15 12.5 -54.1 12.5 -53.0 12.5 -52.25 13.25 -51.5 14.0 -51.5 15.1 -51.5 16.2 -52.25 16.95" fill="url(#gradient10)" fill-rule="evenodd" stroke="none"/>
    <path d="M-50.15 19.0 Q-51.75 20.65 -54.1 20.65 -56.4 20.65 -58.05 19.0 -59.7 17.4 -59.7 15.05 -59.7 12.75 -58.05 11.1 -56.4 9.45 -54.1 9.45 -51.75 9.45 -50.15 11.1 -48.5 12.75 -48.5 15.05 -48.5 17.4 -50.15 19.0 M-51.1 18.05 Q-49.9 16.8 -49.9 15.1 -49.9 13.35 -51.1 12.1 -52.35 10.9 -54.1 10.9 -55.8 10.9 -57.05 12.1 -58.3 13.35 -58.3 15.1 -58.3 16.8 -57.05 18.05 -55.8 19.3 -54.1 19.3 -52.35 19.3 -51.1 18.05" fill="#4d4d4d" fill-rule="evenodd" stroke="none"/>
  </g>
  <defs>
    <linearGradient gradientTransform="matrix(0.0, -0.0169, 0.0146, 0.0, 0.0, -2.4)" gradientUnits="userSpaceOnUse" id="gradient0" spreadMethod="pad" x1="-819.2" x2="819.2">
      <stop offset="0.0" stop-color="#999999"/>
      <stop offset="0.9490196078431372" stop-color="#e1e1e1"/>
    </linearGradient>
    <linearGradient gradientTransform="matrix(0.0, -0.0188, 0.0067, 0.0, 0.0, -15.1)" gradientUnits="userSpaceOnUse" id="gradient1" spreadMethod="pad" x1="-819.2" x2="819.2">
      <stop offset="0.0" stop-color="#404040"/>
      <stop offset="1.0" stop-color="#999999"/>
    </linearGradient>
    <linearGradient gradientTransform="matrix(0.0, -0.0188, 0.0067, 0.0, 0.0, -15.1)" gradientUnits="userSpaceOnUse" id="gradient2" spreadMethod="pad" x1="-819.2" x2="819.2">
      <stop offset="0.0" stop-color="#404040"/>
      <stop offset="1.0" stop-color="#c4c4c4"/>
    </linearGradient>
    <linearGradient gradientTransform="matrix(0.0069, 0.0, 0.0, 0.0069, 54.5, 15.05)" gradientUnits="userSpaceOnUse" id="gradient3" spreadMethod="pad" x1="-819.2" x2="819.2">
      <stop offset="0.0" stop-color="#333333"/>
      <stop offset="0.9490196078431372" stop-color="#000000"/>
    </linearGradient>
    <linearGradient gradientTransform="matrix(0.0069, 0.0, 0.0, 0.0069, 42.45, 15.05)" gradientUnits="userSpaceOnUse" id="gradient4" spreadMethod="pad" x1="-819.2" x2="819.2">
      <stop offset="0.0" stop-color="#333333"/>
      <stop offset="0.9490196078431372" stop-color="#000000"/>
    </linearGradient>
    <linearGradient gradientTransform="matrix(0.0069, 0.0, 0.0, 0.0069, 26.4, 15.05)" gradientUnits="userSpaceOnUse" id="gradient5" spreadMethod="pad" x1="-819.2" x2="819.2">
      <stop offset="0.0" stop-color="#333333"/>
      <stop offset="0.9490196078431372" stop-color="#000000"/>
    </linearGradient>
    <linearGradient gradientTransform="matrix(0.0069, 0.0, 0.0, 0.0069, 14.4, 15.05)" gradientUnits="userSpaceOnUse" id="gradient6" spreadMethod="pad" x1="-819.2" x2="819.2">
      <stop offset="0.0" stop-color="#333333"/>
      <stop offset="0.9490196078431372" stop-color="#000000"/>
    </linearGradient>
    <linearGradient gradientTransform="matrix(0.0069, 0.0, 0.0, 0.0069, -14.1, 15.05)" gradientUnits="userSpaceOnUse" id="gradient7" spreadMethod="pad" x1="-819.2" x2="819.2">
      <stop offset="0.0" stop-color="#333333"/>
      <stop offset="0.9490196078431372" stop-color="#000000"/>
    </linearGradient>
    <linearGradient gradientTransform="matrix(0.0069, 0.0, 0.0, 0.0069, -26.15, 15.05)" gradientUnits="userSpaceOnUse" id="gradient8" spreadMethod="pad" x1="-819.2" x2="819.2">
      <stop offset="0.0" stop-color="#333333"/>
      <stop offset="0.9490196078431372" stop-color="#000000"/>
    </linearGradient>
    <linearGradient gradientTransform="matrix(0.0069, 0.0, 0.0, 0.0069, -42.15, 15.05)" gradientUnits="userSpaceOnUse" id="gradient9" spreadMethod="pad" x1="-819.2" x2="819.2">
      <stop offset="0.0" stop-color="#333333"/>
      <stop offset="0.9490196078431372" stop-color="#000000"/>
    </linearGradient>
    <linearGradient gradientTransform="matrix(0.0069, 0.0, 0.0, 0.0069, -54.1, 15.05)" gradientUnits="userSpaceOnUse" id="gradient10" spreadMethod="pad" x1="-819.2" x2="819.2">
      <stop offset="0.0" stop-color="#333333"/>
      <stop offset="0.9490196078431372" stop-color="#000000"/>
    </linearGradient>
  </defs>
</svg>
