<?xml version="1.0" encoding="UTF-8" standalone="no"?>
<svg xmlns:ffdec="https://www.free-decompiler.com/flash" xmlns:xlink="http://www.w3.org/1999/xlink" ffdec:objectType="shape" height="4.95px" width="5.8px" xmlns="http://www.w3.org/2000/svg">
  <g transform="matrix(1.0, 0.0, 0.0, 1.0, 4.0, 3.1)">
    <path d="M1.25 0.35 L1.25 0.1 Q0.85 0.5 0.35 0.35 0.9 -0.45 0.55 -1.1 -0.35 -2.65 -2.15 -2.7 -1.3 -2.65 -1.05 -1.85 -0.9 -1.3 -1.0 -0.75 L-1.35 -0.5 Q-1.7 -0.1 -1.55 0.55 L-1.5 0.75 -1.55 0.8 Q-1.7 1.1 -1.95 0.8 L-2.1 0.35 Q-2.25 -0.4 -1.8 -0.9 L-1.7 -0.95 Q-1.6 -1.7 -2.15 -2.2 -2.4 -2.5 -2.8 -2.4 L-4.0 -2.35 Q-3.15 -2.85 -2.5 -2.95 L-0.6 -3.1 Q0.6 -3.15 1.3 -1.25 1.9 -0.9 1.8 0.1 L1.8 0.4 1.75 0.4 1.25 0.35" fill="#ff6600" fill-rule="evenodd" stroke="none"/>
    <path d="M1.0 -1.35 Q2.05 -0.15 1.5 1.15 L0.9 1.7 Q-1.5 2.35 -1.8 0.3 -1.9 -0.45 -1.35 -0.7 L-1.35 -1.25 Q-1.35 -2.6 -2.95 -2.55 L-2.95 -2.6 -2.95 -2.7 -2.65 -2.8 Q-1.05 -2.85 0.2 -2.05 L1.0 -1.35" fill="#ffffcc" fill-rule="evenodd" stroke="none"/>
  </g>
</svg>
