<?xml version="1.0" encoding="UTF-8" standalone="no"?>
<svg xmlns:ffdec="https://www.free-decompiler.com/flash" xmlns:xlink="http://www.w3.org/1999/xlink" ffdec:objectType="shape" height="6.95px" width="5.15px" xmlns="http://www.w3.org/2000/svg">
  <g transform="matrix(1.0, 0.0, 0.0, 1.0, 3.05, 4.05)">
    <path d="M0.9 -1.6 L0.5 -1.95 0.2 -1.9 0.25 -1.85 0.5 -1.45 0.5 -1.1 -0.65 -1.15 Q-1.0 -0.85 -0.65 0.1 -0.35 1.0 -0.45 1.3 L-1.05 1.4 -1.25 1.25 -1.3 1.3 -1.3 1.45 -2.2 1.75 Q-1.25 2.9 -0.05 2.2 L0.8 2.15 Q-0.65 3.55 -2.45 2.3 L-3.05 1.45 -1.85 1.25 -1.8 0.8 -1.75 0.7 Q-2.3 0.0 -1.95 -0.55 -1.35 -1.6 -0.35 -1.6 L-0.9 -1.9 -0.95 -2.0 -0.95 -2.05 -0.05 -2.2 0.9 -2.1 0.95 -2.05 Q1.95 -1.7 1.85 -0.5 L1.8 -0.2 Q1.25 -0.3 1.15 -1.25 L0.9 -1.6 M0.3 -3.65 Q0.4 -3.0 -0.1 -2.65 L-1.0 -2.6 Q-1.0 -2.85 -0.7 -2.8 L-0.7 -2.85 Q-0.6 -3.25 -0.95 -3.4 -1.55 -3.05 -1.85 -3.4 L-1.55 -3.6 -0.65 -3.75 0.3 -3.7 0.3 -3.65" fill="#ff6600" fill-rule="evenodd" stroke="none"/>
    <path d="M1.95 -0.4 Q2.6 1.65 0.55 2.3 L0.25 2.4 Q-1.85 3.25 -2.5 1.65 -1.0 1.65 -1.7 0.1 -1.85 -0.3 -1.65 -0.6 -1.0 -1.55 0.2 -1.3 0.35 -1.6 -0.05 -1.7 L-0.2 -2.0 -0.15 -2.05 0.2 -2.1 Q1.35 -2.05 1.75 -1.0 L1.95 -0.4 M-0.1 -3.7 L-0.25 -3.75 -1.3 -3.7 -1.25 -3.75 -0.7 -3.95 Q0.75 -4.35 0.5 -3.15 0.35 -2.7 -0.2 -2.55 L-0.95 -2.6 Q0.1 -2.9 -0.1 -3.7" fill="#ffffcc" fill-rule="evenodd" stroke="none"/>
  </g>
</svg>
