<?xml version="1.0" encoding="UTF-8" standalone="no"?>
<svg xmlns:ffdec="https://www.free-decompiler.com/flash" xmlns:xlink="http://www.w3.org/1999/xlink" ffdec:objectType="shape" height="5.0px" width="6.05px" xmlns="http://www.w3.org/2000/svg">
  <g transform="matrix(1.0, 0.0, 0.0, 1.0, 4.0, 2.0)">
    <path d="M1.0 -1.6 L-0.25 -1.15 -0.3 -1.1 -0.8 -0.75 Q-0.6 0.45 -1.0 1.45 L-1.1 1.55 -2.3 1.45 -3.0 1.0 -3.05 0.9 -3.1 0.9 -3.1 0.95 Q-2.2 2.75 -0.4 2.45 -1.85 3.55 -2.9 2.0 L-4.0 0.85 Q-2.5 -0.05 -1.6 1.15 -1.55 0.1 -1.75 -0.85 L-1.6 -1.1 Q-0.75 -1.55 0.1 -1.8 L0.95 -1.7 1.0 -1.6" fill="#ff6600" fill-rule="evenodd" stroke="none"/>
    <path d="M2.0 1.2 Q1.85 2.25 0.7 2.25 L0.3 2.35 Q0.05 2.85 -0.6 2.95 -2.45 3.25 -2.85 1.85 L-3.15 1.4 -3.65 0.95 Q-2.45 0.8 -1.55 1.6 L-1.4 1.65 -1.4 1.6 -1.1 1.35 -1.1 1.2 -1.1 1.0 -1.55 -0.65 -1.45 -0.95 0.35 -1.75 1.35 -2.0 1.55 -1.95 1.6 -1.9 1.6 -1.85 1.7 -1.85 1.75 -1.8 Q2.15 -0.35 2.0 1.2" fill="#ffffcc" fill-rule="evenodd" stroke="none"/>
  </g>
</svg>
