<?xml version="1.0" encoding="UTF-8" standalone="no"?>
<svg xmlns:ffdec="https://www.free-decompiler.com/flash" xmlns:xlink="http://www.w3.org/1999/xlink" ffdec:objectType="shape" height="4.35px" width="6.8px" xmlns="http://www.w3.org/2000/svg">
  <g transform="matrix(1.0, 0.0, 0.0, 1.0, 4.5, 1.55)">
    <path d="M1.75 -0.85 Q1.75 -0.5 1.15 -0.65 0.7 -0.8 0.35 -1.1 L0.3 -1.05 0.15 -0.75 0.15 -0.5 0.15 -0.45 -0.35 -0.25 -0.3 -0.25 Q0.1 0.1 0.7 0.0 L0.7 0.05 0.7 0.25 0.7 0.55 0.65 0.6 0.3 0.65 0.1 1.55 Q0.05 2.25 1.1 2.15 L1.2 2.25 0.75 2.4 0.7 2.5 0.65 2.4 0.0 2.35 -0.65 2.2 -0.7 1.95 -0.7 1.25 -0.5 0.65 -0.9 0.2 Q-1.25 -0.1 -1.15 -0.6 L-0.9 -1.1 -0.55 -1.1 -0.55 -1.15 -0.45 -1.4 -0.3 -1.55 Q0.75 -1.65 1.65 -1.05 L1.75 -0.85 M-3.85 0.0 L-3.9 0.05 -3.85 0.1 -3.85 0.15 -3.9 0.15 -4.35 0.2 -4.35 0.15 -4.45 -0.15 -4.5 -0.4 Q-3.05 -0.55 -2.65 0.6 L-2.6 0.9 Q-2.85 1.3 -3.2 0.9 L-3.25 0.75 -3.55 0.15 -3.8 0.0 -3.85 0.0 M-2.3 1.55 L-2.0 1.55 Q-1.75 2.15 -1.0 2.2 L-1.0 2.25 Q-2.0 2.55 -2.35 1.65 L-2.3 1.55" fill="#ff6600" fill-rule="evenodd" stroke="none"/>
    <path d="M0.85 2.0 Q-0.25 3.25 -1.85 2.6 L-2.6 1.85 -2.55 1.85 -2.45 1.7 -2.2 1.95 -1.35 2.4 -0.85 2.45 Q0.25 1.45 -0.5 0.0 L-0.55 -0.3 -0.5 -0.3 -0.35 -0.85 -0.25 -0.9 -0.05 -0.95 0.65 -1.25 Q2.95 -1.2 2.05 0.9 L1.6 1.55 0.85 2.0 M-4.05 -0.45 Q-2.9 -0.6 -2.65 0.4 L-2.6 0.6 -2.6 0.65 -3.1 0.7 -3.2 0.35 Q-3.35 -0.15 -3.8 -0.15 L-3.8 -0.1 -3.9 0.0 -3.95 0.1 -4.0 0.1 Q-4.45 0.3 -4.4 0.0 L-4.4 -0.05 -4.25 -0.25 -4.05 -0.45" fill="#ffffcc" fill-rule="evenodd" stroke="none"/>
  </g>
</svg>
