<?xml version="1.0" encoding="UTF-8" standalone="no"?>
<svg xmlns:ffdec="https://www.free-decompiler.com/flash" xmlns:xlink="http://www.w3.org/1999/xlink" ffdec:objectType="shape" height="4.3px" width="6.8px" xmlns="http://www.w3.org/2000/svg">
  <g transform="matrix(1.0, 0.0, 0.0, 1.0, 4.45, 1.3)">
    <path d="M0.1 -0.4 Q1.0 1.35 -0.35 2.5 L-0.5 2.65 Q0.95 2.65 1.55 1.0 L1.6 0.85 Q2.9 1.05 1.75 2.25 0.55 3.45 -0.7 2.7 L-1.1 2.55 Q0.2 1.65 -0.5 0.15 L-0.55 -0.5 0.05 -0.45 0.1 -0.4 M-3.15 1.0 L-2.65 1.05 -1.95 1.9 -1.6 2.35 Q-2.7 2.45 -3.15 1.3 L-3.15 1.0 M-3.7 -0.65 L-3.7 -0.5 -3.65 0.0 -4.15 -0.4 -4.2 -0.7 -3.75 -0.65 -3.7 -0.65" fill="#ff6600" fill-rule="evenodd" stroke="none"/>
    <path d="M2.05 1.2 Q1.3 3.05 -0.9 2.7 0.7 2.35 -0.2 0.6 -0.9 -0.75 0.55 -1.3 3.05 -1.15 2.05 1.2 M-3.75 -0.35 L-4.0 -0.05 -4.0 0.0 -4.05 0.05 -4.2 0.55 -4.4 0.55 -4.45 0.05 -4.2 -0.4 -3.75 -0.4 -3.75 -0.35 M-2.7 1.7 L-2.4 1.75 -2.35 1.75 -2.15 2.1 -1.95 2.3 Q-2.55 2.4 -2.7 1.8 L-2.7 1.7" fill="#ffffcc" fill-rule="evenodd" stroke="none"/>
  </g>
</svg>
