<?xml version="1.0" encoding="UTF-8" standalone="no"?>
<svg xmlns:ffdec="https://www.free-decompiler.com/flash" xmlns:xlink="http://www.w3.org/1999/xlink" ffdec:objectType="shape" height="4.55px" width="3.35px" xmlns="http://www.w3.org/2000/svg">
  <g transform="matrix(1.0, 0.0, 0.0, 1.0, 0.75, 1.8)">
    <path d="M1.2 0.85 L0.8 1.75 0.7 2.1 Q1.45 1.6 1.9 0.7 1.85 0.25 1.6 -0.05 1.35 -0.4 1.45 -0.75 3.1 -0.3 2.35 1.2 1.4 3.2 -0.7 2.6 L-0.1 2.5 -0.2 2.45 -0.2 2.4 0.25 1.4 0.55 0.75 1.2 0.8 1.2 0.85" fill="#ff6600" fill-rule="evenodd" stroke="none"/>
    <path d="M1.55 1.65 Q1.2 2.7 0.1 2.5 0.1 2.3 0.25 2.25 L0.75 1.6 Q-1.45 0.95 -0.4 -1.3 -0.15 -1.8 0.45 -1.8 2.9 -1.55 1.95 0.65 L1.55 1.65" fill="#ffffcc" fill-rule="evenodd" stroke="none"/>
  </g>
</svg>
