<?xml version="1.0" encoding="UTF-8" standalone="no"?>
<svg xmlns:ffdec="https://www.free-decompiler.com/flash" xmlns:xlink="http://www.w3.org/1999/xlink" ffdec:objectType="shape" height="4.2px" width="3.6px" xmlns="http://www.w3.org/2000/svg">
  <g transform="matrix(1.0, 0.0, 0.0, 1.0, 1.5, 1.85)">
    <path d="M1.0 0.55 L0.85 1.5 0.8 1.7 Q1.95 0.75 1.0 -0.8 L-0.35 -0.7 -0.35 -0.65 Q-0.9 -0.35 -1.25 -0.8 L-1.2 -1.0 -0.45 -1.8 Q0.6 -2.0 1.0 -1.35 2.15 -1.0 2.1 0.45 2.0 1.8 0.65 2.3 0.1 2.5 0.05 2.15 0.4 1.95 0.7 1.8 L0.35 1.7 0.35 1.55 0.45 0.9 0.45 0.85 Q0.05 0.95 -0.05 0.65 L-0.05 0.6 Q-0.1 0.3 0.4 0.45 L0.95 0.5 1.0 0.55" fill="#ff6600" fill-rule="evenodd" stroke="none"/>
    <path d="M1.5 1.2 L1.4 1.4 1.0 1.95 Q0.65 2.15 0.55 1.95 L0.95 1.6 0.95 1.55 0.6 1.6 0.35 1.6 0.5 1.75 Q-1.9 1.85 -1.45 -0.1 L-1.45 -0.45 -1.25 -0.45 Q-1.15 -1.1 -0.5 -1.5 1.85 -1.6 1.7 0.55 L1.5 1.2" fill="#ffffcc" fill-rule="evenodd" stroke="none"/>
  </g>
</svg>
