<?xml version="1.0" encoding="UTF-8" standalone="no"?>
<svg xmlns:ffdec="https://www.free-decompiler.com/flash" xmlns:xlink="http://www.w3.org/1999/xlink" ffdec:objectType="shape" height="3.7px" width="4.25px" xmlns="http://www.w3.org/2000/svg">
  <g transform="matrix(1.0, 0.0, 0.0, 1.0, 2.15, 1.85)">
    <path d="M1.6 -1.5 Q2.2 -0.8 2.05 0.1 L1.7 1.0 1.0 1.05 Q0.8 1.8 0.05 1.75 L0.1 1.8 0.15 1.85 Q-1.55 1.8 -2.05 0.05 -2.35 -1.0 -1.9 -1.85 L-1.15 -1.85 -1.15 -1.8 -0.9 -1.5 -0.9 -1.45 0.8 -1.6 Q-0.2 -1.05 -1.45 -1.05 L-1.15 0.2 -0.55 1.15 -0.55 1.1 -0.7 0.75 -0.6 0.3 -0.1 0.35 -0.05 0.8 0.15 1.3 0.25 1.1 0.5 0.7 1.0 0.75 1.05 0.75 1.05 0.8 1.1 0.8 Q1.5 0.1 1.3 -0.55 L1.15 -0.9 0.6 -1.25 0.55 -1.3 0.75 -1.55 1.5 -1.55 1.6 -1.5" fill="#ff6600" fill-rule="evenodd" stroke="none"/>
    <path d="M1.1 1.05 Q-1.05 1.85 -1.8 0.15 -2.1 -0.65 -1.8 -1.45 L-1.25 -1.5 -1.25 -1.45 -1.2 -1.35 -1.15 -1.25 -1.1 -1.3 -0.7 -1.6 -0.55 -1.7 Q2.15 -1.7 1.6 0.55 L1.1 1.05" fill="#ffffcc" fill-rule="evenodd" stroke="none"/>
  </g>
</svg>
