<?xml version="1.0" encoding="UTF-8" standalone="no"?>
<svg xmlns:ffdec="https://www.free-decompiler.com/flash" xmlns:xlink="http://www.w3.org/1999/xlink" ffdec:objectType="shape" height="3.95px" width="4.35px" xmlns="http://www.w3.org/2000/svg">
  <g transform="matrix(1.0, 0.0, 0.0, 1.0, 2.7, 2.75)">
    <path d="M1.4 -0.15 L1.35 0.3 1.3 0.3 0.7 0.25 0.45 -1.0 Q-0.25 -2.4 -1.6 -2.2 L-1.5 -1.9 -1.45 -1.05 -1.6 -0.05 -1.4 0.15 -1.35 0.25 -0.95 0.6 -1.25 0.6 Q-0.9 0.95 -0.05 0.9 L-0.05 0.95 Q-1.65 1.65 -2.15 0.0 L-2.1 -0.45 -2.05 -0.45 -2.05 -0.5 Q-1.7 -1.8 -2.7 -2.45 L-2.7 -2.5 -2.7 -2.6 -2.7 -2.7 Q-0.2 -3.0 1.05 -1.3 L1.4 -0.15" fill="#ff6600" fill-rule="evenodd" stroke="none"/>
    <path d="M-2.05 -2.3 L-2.0 -2.4 Q0.55 -2.25 1.5 -0.35 1.9 0.45 1.2 0.8 L-1.55 0.65 Q-1.85 0.4 -1.75 0.0 -1.65 -1.0 -2.05 -1.85 L-2.05 -2.3" fill="#ffffcc" fill-rule="evenodd" stroke="none"/>
  </g>
</svg>
