<?xml version="1.0" encoding="UTF-8" standalone="no"?>
<svg xmlns:ffdec="https://www.free-decompiler.com/flash" xmlns:xlink="http://www.w3.org/1999/xlink" ffdec:objectType="shape" height="5.0px" width="2.25px" xmlns="http://www.w3.org/2000/svg">
  <g transform="matrix(1.0, 0.0, 0.0, 1.0, -0.1, 0.0)">
    <path d="M2.35 1.7 L2.35 3.75 Q2.2 3.85 2.2 2.85 2.2 1.85 2.35 1.7 M0.1 3.75 L0.1 1.7 0.2 2.85 0.1 3.75" fill="#1e272f" fill-rule="evenodd" stroke="none"/>
    <path d="M2.0 0.0 L2.35 0.0 2.35 1.7 Q2.2 1.85 2.2 2.85 2.2 3.85 2.35 3.75 L2.35 5.0 2.0 5.0 2.05 4.15 2.15 4.15 2.05 3.6 2.05 2.05 2.05 1.3 2.0 0.0 M0.5 5.0 L0.1 5.0 0.1 3.75 0.2 2.85 0.1 1.7 0.1 0.0 0.45 0.0 0.4 1.25 0.45 1.3 0.3 2.05 0.4 2.05 0.35 3.65 0.4 4.15 0.5 5.0" fill="#029adb" fill-rule="evenodd" stroke="none"/>
    <path d="M2.0 5.0 L0.5 5.0 0.4 4.15 2.05 4.15 2.0 5.0 M0.45 0.0 L2.0 0.0 2.05 1.3 Q1.45 1.15 0.45 1.3 L0.4 1.25 0.45 0.0 M2.05 2.05 L2.05 3.6 0.35 3.65 0.4 2.05 Q1.05 1.9 2.05 2.05" fill="#92daff" fill-rule="evenodd" stroke="none"/>
    <path d="M2.05 1.3 L2.05 2.05 Q1.05 1.9 0.4 2.05 L0.3 2.05 0.45 1.3 Q1.45 1.15 2.05 1.3 M2.05 3.6 L2.15 4.15 2.05 4.15 0.4 4.15 0.35 3.65 2.05 3.6" fill="#374049" fill-rule="evenodd" stroke="none"/>
  </g>
</svg>
