<?xml version="1.0" encoding="UTF-8" standalone="no"?>
<svg xmlns:ffdec="https://www.free-decompiler.com/flash" xmlns:xlink="http://www.w3.org/1999/xlink" ffdec:objectType="shape" height="4.95px" width="2.25px" xmlns="http://www.w3.org/2000/svg">
  <g transform="matrix(1.0, 0.0, 0.0, 1.0, -0.1, 0.0)">
    <path d="M2.35 1.7 L2.35 3.8 Q2.2 3.9 2.2 2.9 2.2 1.9 2.35 1.7" fill="#1e272f" fill-rule="evenodd" stroke="none"/>
    <path d="M2.05 1.3 L2.05 2.05 0.4 2.05 0.3 2.05 Q0.3 1.4 0.45 1.3 L2.05 1.3 M2.1 3.65 L2.05 4.2 0.4 4.2 0.35 3.65 2.1 3.65" fill="#3a444c" fill-rule="evenodd" stroke="none"/>
    <path d="M2.0 0.0 L2.35 0.0 2.35 1.7 Q2.2 1.9 2.2 2.9 2.2 3.9 2.35 3.8 L2.35 4.95 2.0 4.95 2.05 4.2 2.1 3.65 2.05 2.05 2.05 1.3 2.0 0.0 M0.5 4.95 L0.1 4.95 0.1 0.0 0.45 0.0 0.4 1.3 0.45 1.3 Q0.3 1.4 0.3 2.05 L0.4 2.05 0.35 3.65 0.4 4.2 0.5 4.95" fill="#633a69" fill-rule="evenodd" stroke="none"/>
    <path d="M2.0 4.95 L0.5 4.95 0.4 4.2 2.05 4.2 2.0 4.95 M0.45 0.0 L2.0 0.0 2.05 1.3 0.45 1.3 0.4 1.3 0.45 0.0 M2.05 2.05 L2.1 3.65 0.35 3.65 0.4 2.05 2.05 2.05" fill="#9f6bad" fill-rule="evenodd" stroke="none"/>
  </g>
</svg>
