<?xml version="1.0" encoding="UTF-8" standalone="no"?>
<svg xmlns:ffdec="https://www.free-decompiler.com/flash" xmlns:xlink="http://www.w3.org/1999/xlink" ffdec:objectType="shape" height="5.6px" width="3.0px" xmlns="http://www.w3.org/2000/svg">
  <g transform="matrix(1.0, 0.0, 0.0, 1.0, -0.05, 0.0)">
    <path d="M2.65 1.6 L2.7 2.1 2.85 2.6 2.75 2.6 2.5 2.8 2.95 3.55 2.5 4.35 2.5 4.55 1.9 5.6 1.55 5.55 0.25 4.8 0.3 4.7 0.5 4.8 0.5 3.8 0.6 3.45 0.75 3.35 1.05 2.8 1.1 2.8 1.2 2.6 1.2 2.55 1.15 2.5 1.0 2.8 0.9 2.45 0.85 2.45 0.8 2.35 0.55 2.15 0.5 0.8 0.25 1.05 0.1 1.0 0.05 0.75 0.3 0.45 2.05 0.0 2.25 0.1 2.3 0.15 2.35 0.4 2.35 0.45 2.65 1.6 M1.2 1.75 L1.2 2.55 1.35 2.65 1.45 2.7 1.45 2.75 1.45 2.8 1.45 2.85 1.4 2.85 1.45 2.9 1.55 2.95 1.65 2.95 1.75 3.0 1.8 3.05 1.25 3.6 0.85 3.4 0.6 3.85 0.55 3.9 0.6 3.95 0.85 4.0 1.0 4.1 1.15 4.1 1.2 4.15 1.25 4.2 1.2 4.3 1.2 4.6 1.4 4.45 1.45 4.3 1.5 4.35 1.55 4.35 2.1 4.8 2.4 4.3 2.35 4.25 1.9 3.95 2.2 3.6 2.2 2.05 2.5 2.05 2.6 2.0 2.4 1.3 2.3 1.3 2.05 1.3 1.55 0.3 0.7 1.1 1.15 1.55 0.75 1.7 0.65 1.75 0.8 2.3 1.2 1.75" fill="#333333" fill-rule="evenodd" stroke="none"/>
    <path d="M2.85 2.6 L2.7 2.1 2.65 1.6 2.9 2.55 2.85 2.6 M1.0 2.8 L1.15 2.5 1.2 2.55 1.2 2.6 1.1 2.8 1.05 2.8 0.75 3.35 0.6 3.45 1.0 2.8 M1.2 1.75 L0.8 2.3 0.65 1.75 0.75 1.7 1.15 1.55 1.35 1.45 1.4 1.45 1.2 1.75 M2.05 1.3 L2.3 1.3 2.4 1.3 1.7 2.15 1.35 2.25 1.8 1.35 2.05 1.3 M2.35 4.25 L2.4 4.3 2.1 4.8 1.55 4.35 2.35 4.25 M0.6 3.85 L0.85 3.4 1.25 3.6 1.35 3.65 1.2 3.8 0.6 3.85 M1.45 2.9 L1.4 2.85 1.45 2.85 1.5 2.9 1.45 2.9 M2.5 4.55 L2.5 4.35 2.95 3.55 3.05 3.6 2.5 4.55" fill="#1e272f" fill-rule="evenodd" stroke="none"/>
    <path d="M1.2 2.55 L1.2 1.75 1.4 1.45 1.35 1.45 1.15 1.55 0.7 1.1 1.55 0.3 2.05 1.3 1.8 1.35 1.35 2.25 1.7 2.15 2.2 2.05 2.2 3.6 1.9 3.95 1.5 4.35 1.45 4.3 1.4 4.45 1.2 4.6 1.2 4.3 1.25 4.2 1.2 4.15 1.2 3.8 1.35 3.65 1.25 3.6 1.8 3.05 1.75 3.0 1.65 2.95 1.55 2.95 1.5 2.9 1.45 2.85 1.45 2.8 1.5 2.8 1.45 2.75 1.45 2.7 1.35 2.65 1.2 2.55" fill="#000000" fill-rule="evenodd" stroke="none"/>
    <path d="M2.4 1.3 L2.6 2.0 2.5 2.05 2.2 2.05 1.7 2.15 2.4 1.3 M1.9 3.95 L2.35 4.25 1.55 4.35 1.5 4.35 1.9 3.95 M1.2 4.15 L1.15 4.1 1.0 4.1 0.85 4.0 0.6 3.95 0.55 3.9 0.6 3.85 1.2 3.8 1.2 4.15" fill="#303c47" fill-rule="evenodd" stroke="none"/>
    <path d="M1.55 2.95 L1.45 2.9 1.5 2.9 1.55 2.95" fill="#cc6600" fill-rule="evenodd" stroke="none"/>
  </g>
</svg>
