<?xml version="1.0" encoding="UTF-8" standalone="no"?>
<svg xmlns:ffdec="https://www.free-decompiler.com/flash" xmlns:xlink="http://www.w3.org/1999/xlink" ffdec:objectType="shape" height="27.6px" width="76.05px" xmlns="http://www.w3.org/2000/svg">
  <g transform="matrix(1.0, 0.0, 0.0, 1.0, 38.05, 13.8)">
    <path d="M22.3 9.1 L22.25 9.1 22.25 4.35 26.35 4.3 26.25 4.35 25.85 4.85 25.85 4.75 22.65 4.75 22.65 8.7 22.3 9.1 M-25.95 -9.55 Q-24.55 -10.15 -22.25 -10.15 L-22.3 -10.05 -22.95 -9.3 -22.95 -9.55 -25.95 -9.55 M-28.1 -3.25 L-28.2 -3.1 -28.25 -6.6 Q-28.25 -7.55 -27.65 -8.3 L-27.65 -3.75 -28.1 -3.25 M-19.95 -5.9 L-19.95 -10.15 -14.0 -10.15 -14.0 -10.05 -14.7 -9.55 -19.35 -9.55 -19.35 -6.25 -19.9 -5.9 -19.95 -5.9" fill="#f4e8e8" fill-rule="evenodd" stroke="none"/>
    <path d="M33.95 -6.4 L9.1 -6.4 8.7 -6.85 12.4 -6.85 16.4 -6.85 33.95 -6.85 33.95 -6.4 M6.8 -10.6 L6.8 -6.85 6.8 -5.6 6.8 -5.05 6.8 -3.9 6.8 -3.6 6.8 -3.35 6.8 3.3 6.8 4.3 6.8 6.5 6.8 12.2 6.8 13.5 6.7 13.7 -38.05 13.7 -38.05 -13.8 6.8 -13.8 6.8 -10.6 M1.6 -0.8 L1.6 -0.4 1.6 0.8 0.35 0.8 0.05 0.8 0.05 -0.8 1.6 -0.8 M33.95 -4.65 L9.2 -4.65 8.9 -5.05 33.95 -5.05 33.95 -4.65 M13.25 1.1 L12.9 1.1 12.9 -0.2 13.95 -0.25 13.95 1.1 13.25 1.1 M32.05 -3.35 L32.4 -3.35 32.4 3.3 32.05 3.3 32.05 -3.35 M16.85 -3.35 L17.3 -3.35 17.3 3.3 16.85 3.3 16.85 -3.35 M19.0 2.05 L18.75 2.05 18.75 0.75 20.3 0.55 20.3 0.9 20.3 2.05 19.0 2.05 M27.7 -8.6 L27.35 -8.65 25.35 -9.0 24.95 -9.15 Q24.25 -9.45 24.25 -9.85 L27.8 -9.85 30.4 -9.85 30.4 -8.5 27.7 -8.6 M38.0 -5.55 L38.0 -2.55 36.35 -2.55 Q35.05 -3.15 34.7 -3.8 35.25 -4.55 36.45 -5.1 L38.0 -5.55 M25.2 9.35 L25.1 9.1 24.95 8.8 24.2 7.4 23.55 5.65 24.35 5.35 26.0 8.25 Q25.65 8.25 25.45 8.6 25.2 8.9 25.2 9.35 M5.55 2.55 L6.0 2.55 6.0 -12.4 -37.25 -12.4 -37.25 2.55 -36.8 2.55 5.55 2.55 M5.85 5.25 L6.0 3.35 5.6 3.35 0.25 3.35 -2.85 3.25 -2.85 3.35 -8.1 3.3 -8.15 3.25 -37.35 3.25 -37.25 3.35 -37.25 12.85 -36.2 12.85 5.4 12.85 6.0 12.85 5.85 5.25 M-23.95 -2.85 L-24.1 -3.25 -24.3 -3.6 -25.45 -5.65 -26.3 -8.2 Q-25.4 -8.2 -25.1 -8.6 L-22.65 -4.5 -23.55 -4.0 Q-23.95 -3.55 -23.95 -2.85 M-20.95 -0.4 Q-20.95 -0.6 -20.9 -0.4 L-20.85 -0.25 -19.35 -0.2 -19.35 -0.05 -19.35 1.3 -20.6 1.3 -20.75 1.3 -20.95 0.8 -21.0 0.1 -20.95 -0.4 M-19.95 -5.9 L-19.9 -5.9 -19.9 -3.25 -19.95 -3.1 -19.95 -5.9 M-17.95 -7.25 L-18.05 -8.15 Q-17.0 -8.35 -16.8 -8.6 L-14.4 -4.5 Q-14.95 -4.5 -15.35 -4.0 -15.75 -3.55 -15.75 -2.85 L-15.8 -3.25 -16.05 -3.6 -17.2 -5.6 -17.95 -7.25 M-22.3 0.55 L-22.3 0.8 -22.3 2.05 -23.45 2.05 -23.85 2.05 -23.85 0.55 -22.3 0.55" fill="#ffffff" fill-rule="evenodd" stroke="none"/>
    <path d="M26.25 7.45 L26.8 8.45 26.0 8.25 24.35 5.35 25.2 5.6 25.55 5.85 25.65 6.4 26.25 7.45 M-22.3 -5.6 L-21.45 -4.1 -22.65 -4.5 -25.1 -8.6 -23.8 -8.25 -23.75 -8.25 -23.15 -7.2 -22.3 -5.6 M-14.0 -5.6 L-13.25 -4.3 -14.4 -4.5 -16.8 -8.6 Q-16.0 -8.6 -15.45 -8.2 -14.9 -7.8 -14.9 -7.2 L-14.0 -5.6" fill="#93979f" fill-rule="evenodd" stroke="none"/>
    <path d="M26.8 8.45 L26.7 9.9 26.45 10.2 Q25.75 10.2 25.2 9.35 25.2 8.9 25.45 8.6 25.65 8.25 26.0 8.25 L26.8 8.45 M-21.45 -4.1 L-21.4 -3.15 Q-21.4 -2.15 -21.55 -2.3 L-22.5 -1.65 -23.95 -2.85 Q-23.95 -3.55 -23.55 -4.0 L-22.65 -4.5 -21.45 -4.1 M-13.25 -4.3 Q-12.8 -3.65 -12.75 -2.9 L-13.15 -2.1 -14.5 -2.35 -15.75 -2.85 -15.95 -3.25 -15.8 -3.25 -15.75 -2.85 Q-15.75 -3.55 -15.35 -4.0 -14.95 -4.5 -14.4 -4.5 L-13.25 -4.3" fill="#030d04" fill-rule="evenodd" stroke="none"/>
    <path d="M0.05 0.8 Q-0.2 0.5 -0.25 -0.85 L-0.2 -1.1 1.6 -0.8 0.05 -0.8 0.05 0.8 M12.9 1.1 L12.75 1.1 12.85 -0.4 13.55 -0.4 13.95 -0.25 12.9 -0.2 12.9 1.1 M18.75 2.05 L18.7 2.1 18.55 2.0 18.5 1.15 18.55 0.2 19.3 0.25 Q20.2 0.55 20.2 0.25 L20.3 0.55 18.75 0.75 18.75 2.05 M-20.75 1.3 L-20.95 1.4 -21.05 1.3 -21.05 -0.4 -20.95 -0.4 -21.0 0.1 -20.95 0.8 -20.75 1.3 M-20.9 -0.4 L-20.15 -0.45 -19.2 -0.4 -19.35 -0.2 -20.85 -0.25 -20.9 -0.4 M-12.75 -2.9 L-11.05 -2.95 -11.05 -2.1 -13.15 -2.1 -12.75 -2.9 M-23.85 2.05 L-24.15 2.1 -24.25 0.95 -24.2 0.2 -22.25 0.2 -22.3 0.55 -23.85 0.55 -23.85 2.05" fill="#d2ddf3" fill-rule="evenodd" stroke="none"/>
    <path d="M1.6 -0.4 L2.05 -0.4 2.05 1.3 0.35 0.9 0.35 0.8 1.6 0.8 1.6 -0.4 M19.35 2.55 L19.0 2.05 20.3 2.05 20.3 0.9 20.75 0.9 20.75 2.55 19.35 2.55 M-19.35 -0.05 L-18.9 -0.05 -18.9 1.65 -20.6 1.65 -20.6 1.3 -19.35 1.3 -19.35 -0.05 M-22.3 0.8 L-21.7 0.8 -21.7 2.5 -23.45 2.5 -23.45 2.05 -22.3 2.05 -22.3 0.8" fill="#272525" fill-rule="evenodd" stroke="none"/>
    <path d="M-38.05 13.7 L6.7 13.7 6.8 13.8 -38.05 13.8 -38.05 13.7 M-37.25 3.35 L-37.35 3.25 -8.15 3.25 -8.1 3.3 -8.15 3.35 -37.25 3.35 M-2.85 3.35 L-2.85 3.25 0.25 3.35 -2.85 3.35" fill="#e0e0e2" fill-rule="evenodd" stroke="none"/>
    <path d="M5.6 3.35 L6.0 3.35 5.85 5.25 5.6 3.35" fill="#9a504f" fill-rule="evenodd" stroke="none"/>
    <path d="M16.4 -6.85 L16.4 -7.65 23.9 -8.15 Q23.9 -9.05 25.35 -9.0 L27.35 -8.65 27.7 -8.6 30.8 -8.05 30.8 -10.6 27.8 -9.85 24.25 -9.85 Q24.25 -9.45 24.95 -9.15 L23.9 -8.9 22.8 -8.6 22.8 -10.6 22.8 -11.15 35.4 -11.15 35.4 -9.8 Q35.6 -9.4 37.2 -9.4 L37.2 -7.55 33.95 -7.55 33.95 -7.2 16.4 -6.85" fill="#d5cccc" fill-rule="evenodd" stroke="none"/>
    <path d="M37.2 -7.55 L37.2 -9.4 Q35.6 -9.4 35.4 -9.8 L37.8 -9.8 37.8 -7.55 37.2 -7.55" fill="#e3dfdf" fill-rule="evenodd" stroke="none"/>
    <path d="M23.9 -8.15 L23.9 -8.9 24.95 -9.15 25.35 -9.0 Q23.9 -9.05 23.9 -8.15 M35.4 -2.55 L34.55 -2.55 34.55 -6.85 38.0 -6.85 38.0 -5.55 36.45 -5.1 Q35.25 -4.55 34.7 -3.8 35.05 -3.15 36.35 -2.55 L35.4 -2.55 M27.8 -9.85 L30.8 -10.6 30.8 -8.05 27.7 -8.6 30.4 -8.5 30.4 -9.85 27.8 -9.85" fill="#e6e6e6" fill-rule="evenodd" stroke="none"/>
    <path d="M8.35 -5.6 L33.95 -5.6 33.95 -5.05 8.9 -5.05 8.35 -5.05 6.8 -5.05 6.8 -5.6 8.35 -5.6" fill="#5c5364" fill-rule="evenodd" stroke="none"/>
    <path d="M33.95 -5.6 L33.95 -6.4 33.95 -6.85 33.95 -7.2 33.95 -7.55 37.2 -7.55 37.8 -7.55 38.0 -6.85 34.55 -6.85 34.55 -2.55 33.95 -2.55 33.95 -3.6 33.95 -3.9 33.95 -4.65 33.95 -5.05 33.95 -5.6" fill="#d0d0d0" fill-rule="evenodd" stroke="none"/>
    <path d="M12.4 -6.85 Q13.75 -8.05 18.45 -9.0 L18.45 -10.6 22.8 -10.6 22.8 -8.6 23.9 -8.9 23.9 -8.15 16.4 -7.65 16.4 -6.85 12.4 -6.85 M16.4 -6.85 L33.95 -7.2 33.95 -6.85 16.4 -6.85" fill="#c5baba" fill-rule="evenodd" stroke="none"/>
    <path d="M8.35 -6.85 L8.7 -6.85 9.1 -6.4 33.95 -6.4 33.95 -5.6 8.35 -5.6 8.35 -6.85 M8.9 -5.05 L9.2 -4.65 33.95 -4.65 33.95 -3.9 8.35 -3.9 8.35 -5.05 8.9 -5.05" fill="#d3d2d8" fill-rule="evenodd" stroke="none"/>
    <path d="M6.8 -3.35 L6.8 -3.6 33.95 -3.6 33.95 -2.55 34.55 -2.55 35.4 -2.55 35.4 -1.0 33.3 -1.0 33.3 0.1 33.3 3.3 32.4 3.3 32.4 -3.35 32.05 -3.35 18.3 -3.35 17.3 -3.35 16.85 -3.35 16.65 -3.35 13.55 -3.35 6.8 -3.35" fill="#375a70" fill-rule="evenodd" stroke="none"/>
    <path d="M8.35 -3.9 L33.95 -3.9 33.95 -3.6 6.8 -3.6 6.8 -3.9 8.35 -3.9" fill="#242f31" fill-rule="evenodd" stroke="none"/>
    <path d="M33.3 0.1 L33.3 -1.0 35.4 -1.0 33.3 0.1 M6.8 13.5 L6.8 12.2 9.4 12.2 6.8 13.5" fill="#223a44" fill-rule="evenodd" stroke="none"/>
    <path d="M16.85 3.3 L17.3 3.3 17.3 11.25 16.85 12.2 16.85 3.3 M32.05 3.3 L32.4 3.3 32.4 9.6 32.4 11.25 32.15 11.25 32.05 3.3" fill="#eeeeee" fill-rule="evenodd" stroke="none"/>
    <path d="M8.7 -6.85 L8.35 -6.85 6.8 -6.85 6.8 -10.6 18.45 -10.6 18.45 -9.0 Q13.75 -8.05 12.4 -6.85 L8.7 -6.85" fill="#7c6969" fill-rule="evenodd" stroke="none"/>
    <path d="M8.35 -6.85 L8.35 -5.6 6.8 -5.6 6.8 -6.85 8.35 -6.85 M8.35 -5.05 L8.35 -3.9 6.8 -3.9 6.8 -5.05 8.35 -5.05" fill="#afaeb7" fill-rule="evenodd" stroke="none"/>
    <path d="M0.35 0.9 L0.05 0.8 0.35 0.8 0.35 0.9" fill="#ec9ba1" fill-rule="evenodd" stroke="none"/>
    <path d="M20.1 11.25 L19.8 3.3 32.05 3.3 32.15 11.25 20.1 11.25 M16.65 3.3 L16.85 3.3 16.85 12.2 12.3 12.2 14.1 3.3 16.65 3.3 M6.8 6.5 L6.8 4.3 6.85 6.55 6.8 6.5 M26.25 4.35 L26.35 4.3 22.25 4.35 22.25 9.1 22.3 9.1 25.1 9.1 25.2 9.35 Q25.75 10.2 26.45 10.2 L26.7 9.9 26.8 8.45 26.25 7.45 26.25 4.35 M5.4 12.85 L-36.2 12.85 -36.2 4.3 5.4 4.3 5.4 12.85" fill="#8da2ad" fill-rule="evenodd" stroke="none"/>
    <path d="M-36.8 2.55 L-37.25 2.55 -37.25 -12.4 6.0 -12.4 6.0 2.55 5.55 2.55 5.55 -11.85 -36.8 -11.85 -36.8 2.55 M5.85 5.25 L6.0 12.85 5.4 12.85 5.4 4.3 -36.2 4.3 -36.2 12.85 -37.25 12.85 -37.25 3.35 -8.15 3.35 -8.1 3.3 -2.85 3.35 0.25 3.35 5.6 3.35 5.85 5.25" fill="#748c9c" fill-rule="evenodd" stroke="none"/>
    <path d="M22.3 9.1 L22.65 8.7 23.3 8.8 24.95 8.8 25.1 9.1 22.3 9.1 M25.85 4.85 L26.25 4.35 26.25 7.45 25.65 6.4 Q25.85 6.3 25.85 4.85 M-22.3 -10.05 L-22.3 -5.6 -23.15 -7.2 Q-23.0 -7.1 -22.95 -8.2 L-22.95 -9.3 -22.3 -10.05 M-24.1 -3.25 L-28.1 -3.25 -27.65 -3.75 -26.75 -3.6 -24.3 -3.6 -24.1 -3.25 M-23.75 -8.25 L-23.8 -8.25 -23.6 -8.5 -23.75 -8.25 M-19.9 -5.9 L-19.35 -6.25 -19.35 -3.6 -18.45 -3.6 -16.05 -3.6 -15.8 -3.25 -15.95 -3.25 -19.9 -3.25 -19.9 -5.9 M-14.7 -9.55 L-14.0 -10.05 -14.0 -5.6 -14.9 -7.2 -14.8 -7.2 -14.7 -9.55" fill="#cdd7dc" fill-rule="evenodd" stroke="none"/>
    <path d="M25.85 4.75 L25.85 4.85 Q25.85 6.3 25.65 6.4 L25.55 5.85 25.2 5.6 25.85 4.75 M24.2 7.4 L24.95 8.8 23.3 8.8 24.2 7.4 M-22.95 -9.55 L-22.95 -9.3 -22.95 -8.2 Q-23.0 -7.1 -23.15 -7.2 L-23.75 -8.25 -23.6 -8.5 -22.95 -9.55 M-26.75 -3.6 L-25.45 -5.65 -24.3 -3.6 -26.75 -3.6 M-19.35 -6.25 L-19.35 -9.55 -14.7 -9.55 -14.8 -7.2 -14.9 -7.2 Q-14.9 -7.8 -15.45 -8.2 -16.0 -8.6 -16.8 -8.6 -17.0 -8.35 -18.05 -8.15 L-17.95 -7.25 -19.35 -6.25 M-17.2 -5.6 L-16.05 -3.6 -18.45 -3.6 -17.2 -5.6" fill="#afbec7" fill-rule="evenodd" stroke="none"/>
    <path d="M16.65 -3.35 L16.85 -3.35 16.85 3.3 16.65 3.3 16.65 -3.35 M22.65 8.7 L22.65 4.75 25.85 4.75 25.2 5.6 24.35 5.35 23.55 5.65 24.2 7.4 23.3 8.8 22.65 8.7 M-27.65 -8.3 L-27.25 -8.75 Q-26.75 -9.25 -25.95 -9.55 L-22.95 -9.55 -23.6 -8.5 -23.8 -8.25 -25.1 -8.6 Q-25.4 -8.2 -26.3 -8.2 L-25.45 -5.65 -26.75 -3.6 -27.65 -3.75 -27.65 -8.3 M-19.35 -6.25 L-17.95 -7.25 -17.2 -5.6 -18.45 -3.6 -19.35 -3.6 -19.35 -6.25" fill="#92a6b1" fill-rule="evenodd" stroke="none"/>
    <path d="M6.8 3.3 L14.1 3.3 12.3 12.2 9.4 12.2 6.8 12.2 6.8 6.5 6.85 6.55 6.8 4.3 6.8 3.3 M17.3 3.3 L19.8 3.3 20.1 11.25 17.3 11.25 17.3 3.3" fill="#728b96" fill-rule="evenodd" stroke="none"/>
    <path d="M13.55 -0.4 L12.85 -0.4 12.75 1.1 12.9 1.1 13.25 1.1 14.1 3.3 6.8 3.3 6.8 -3.35 13.55 -3.35 13.55 -0.4 M17.3 -3.35 L18.3 -3.35 19.3 0.25 18.55 0.2 18.5 1.15 18.55 2.0 18.7 2.1 18.75 2.05 19.0 2.05 19.35 2.55 19.8 3.3 17.3 3.3 17.3 -3.35" fill="#8da5ad" fill-rule="evenodd" stroke="none"/>
    <path d="M0.35 0.9 L2.05 1.3 2.05 -0.4 1.6 -0.4 1.6 -0.8 -0.2 -1.1 -0.25 -0.85 Q-0.2 0.5 0.05 0.8 L0.35 0.9 M5.55 2.55 L-36.8 2.55 -36.8 -11.85 5.55 -11.85 5.55 2.55 M-22.3 -10.05 L-22.25 -10.15 Q-24.55 -10.15 -25.95 -9.55 -26.75 -9.25 -27.25 -8.75 L-27.65 -8.3 Q-28.25 -7.55 -28.25 -6.6 L-28.2 -3.1 -28.1 -3.25 -24.1 -3.25 -23.95 -2.85 -22.5 -1.65 -21.55 -2.3 Q-21.4 -2.15 -21.4 -3.15 L-21.45 -4.1 -22.3 -5.6 -22.3 -10.05 M-20.95 -0.4 L-21.05 -0.4 -21.05 1.3 -20.95 1.4 -20.75 1.3 -20.6 1.3 -20.6 1.65 -18.9 1.65 -18.9 -0.05 -19.35 -0.05 -19.35 -0.2 -19.2 -0.4 -20.15 -0.45 -20.9 -0.4 Q-20.95 -0.6 -20.95 -0.4 M-14.0 -10.05 L-14.0 -10.15 -19.95 -10.15 -19.95 -5.9 -19.95 -3.1 -19.9 -3.25 -15.95 -3.25 -15.75 -2.85 -14.5 -2.35 -13.15 -2.1 -11.05 -2.1 -11.05 -2.95 -12.75 -2.9 Q-12.8 -3.65 -13.25 -4.3 L-14.0 -5.6 -14.0 -10.05 M-22.3 0.55 L-22.25 0.2 -24.2 0.2 -24.25 0.95 -24.15 2.1 -23.85 2.05 -23.45 2.05 -23.45 2.5 -21.7 2.5 -21.7 0.8 -22.3 0.8 -22.3 0.55" fill="url(#gradient0)" fill-rule="evenodd" stroke="none"/>
    <path d="M13.55 -0.4 L13.55 -3.35 16.65 -3.35 16.65 3.3 14.1 3.3 13.25 1.1 13.95 1.1 13.95 -0.25 13.55 -0.4" fill="url(#gradient1)" fill-rule="evenodd" stroke="none"/>
    <path d="M18.3 -3.35 L32.05 -3.35 32.05 3.3 19.8 3.3 19.35 2.55 20.75 2.55 20.75 0.9 20.3 0.9 20.3 0.55 20.2 0.25 Q20.2 0.55 19.3 0.25 L18.3 -3.35" fill="url(#gradient2)" fill-rule="evenodd" stroke="none"/>
    <path d="M26.25 -6.9 L26.25 -3.25 25.3 -3.25 25.3 -6.9 26.25 -6.9 M29.35 -6.9 L29.35 -3.25 28.45 -3.25 28.45 -6.9 29.35 -6.9 M25.6 -6.6 L25.6 -6.55 25.6 -6.4 25.6 -5.8 25.6 -5.15 25.6 -4.55 25.6 -3.95 25.6 -3.35 25.6 -3.3 25.7 -3.3 25.75 -3.35 25.8 -3.35 25.8 -3.55 25.8 -4.15 25.8 -4.75 25.8 -5.35 25.8 -6.0 Q25.8 -6.25 26.15 -6.55 L25.8 -6.55 25.7 -6.65 25.6 -6.65 25.6 -6.6 M28.8 -6.75 L28.7 -6.75 28.7 -6.7 28.65 -6.7 28.6 -6.65 28.6 -6.45 28.6 -5.8 28.6 -5.2 28.6 -4.55 28.6 -3.95 28.6 -3.4 28.65 -3.35 28.7 -3.35 28.7 -3.3 28.8 -3.3 28.8 -3.35 28.8 -3.4 28.85 -3.45 28.85 -3.65 28.85 -4.25 28.85 -4.85 28.85 -5.5 28.85 -6.1 28.85 -6.35 Q29.55 -6.65 28.8 -6.7 L28.8 -6.75" fill="#e4e4e7" fill-rule="evenodd" stroke="none"/>
    <path d="M26.65 -7.75 L26.6 -7.75 26.25 -7.85 25.3 -7.85 25.3 -7.8 25.25 -7.8 25.25 -7.75 25.2 -7.75 25.15 -7.65 25.1 -7.5 25.2 -7.4 25.2 -7.25 25.2 -7.15 25.2 -7.1 25.25 -7.05 25.25 -7.0 25.3 -7.0 25.35 -7.0 25.4 -7.0 25.4 -7.05 25.9 -7.0 Q26.45 -7.05 26.55 -7.4 L25.6 -7.55 26.65 -7.75 M25.3 -6.9 L24.95 -6.9 24.95 -7.95 26.8 -7.95 26.8 -6.9 26.25 -6.9 25.3 -6.9 M28.45 -6.9 L27.85 -6.9 27.85 -7.95 29.9 -7.95 29.9 -6.9 29.35 -6.9 28.45 -6.9 M28.25 -7.1 L28.25 -7.15 28.3 -7.2 28.25 -7.1 29.35 -7.1 29.65 -7.25 29.35 -7.4 Q28.8 -7.55 29.2 -7.65 L29.6 -7.75 29.25 -7.75 28.3 -7.75 28.15 -7.75 28.05 -7.75 28.1 -7.65 28.05 -7.7 27.95 -7.5 Q27.95 -7.25 28.05 -7.25 L28.1 -7.25 28.05 -7.2 28.1 -7.15 28.1 -7.1 28.15 -7.1 28.2 -7.1 28.25 -7.1" fill="#c1c2c6" fill-rule="evenodd" stroke="none"/>
    <path d="M28.8 -6.75 L28.8 -6.7 Q29.55 -6.65 28.85 -6.35 L28.85 -6.1 28.85 -5.5 28.85 -4.85 28.85 -4.25 28.85 -3.65 28.85 -3.45 28.8 -3.4 28.8 -3.35 28.8 -3.3 28.7 -3.3 28.7 -3.35 28.65 -3.35 28.6 -3.4 28.6 -3.95 28.6 -4.55 28.6 -5.2 28.6 -5.8 28.6 -6.45 28.6 -6.65 28.65 -6.7 28.7 -6.7 28.7 -6.75 28.8 -6.75 M25.6 -6.6 L25.6 -6.65 25.7 -6.65 25.8 -6.55 26.15 -6.55 Q25.8 -6.25 25.8 -6.0 L25.8 -5.35 25.8 -4.75 25.8 -4.15 25.8 -3.55 25.8 -3.35 25.75 -3.35 25.7 -3.3 25.6 -3.3 25.6 -3.35 25.6 -3.95 25.6 -4.55 25.6 -5.15 25.6 -5.8 25.6 -6.4 25.6 -6.55 25.6 -6.6" fill="#ffffff" fill-rule="evenodd" stroke="none"/>
    <path d="M26.65 -7.75 L25.6 -7.55 26.55 -7.4 Q26.45 -7.05 25.9 -7.0 L25.4 -7.05 25.4 -7.0 25.35 -7.0 25.3 -7.0 25.25 -7.0 25.25 -7.05 25.2 -7.1 25.2 -7.15 25.2 -7.25 25.2 -7.4 25.1 -7.5 25.15 -7.65 25.2 -7.75 25.25 -7.75 25.25 -7.8 25.3 -7.8 25.3 -7.85 26.25 -7.85 26.6 -7.75 26.65 -7.75 M29.6 -7.75 L29.2 -7.65 Q28.8 -7.55 29.35 -7.4 L29.65 -7.25 29.35 -7.1 28.25 -7.1 28.2 -7.1 28.15 -7.1 28.1 -7.1 28.1 -7.15 28.05 -7.2 28.1 -7.25 28.05 -7.25 Q27.95 -7.25 27.95 -7.5 L28.05 -7.7 28.1 -7.65 28.05 -7.75 28.15 -7.75 28.3 -7.75 29.25 -7.75 29.6 -7.75 M28.25 -7.1 L28.3 -7.2 28.25 -7.15 28.25 -7.1" fill="#e0e1e2" fill-rule="evenodd" stroke="none"/>
    <path d="M3.35 5.45 L3.35 12.3 -33.3 12.3 -33.3 5.45 3.35 5.45" fill="#030d04" fill-rule="evenodd" stroke="none"/>
    <path d="M-29.75 5.45 L-29.8 5.5 Q-30.15 8.55 -29.7 11.35 L-29.65 11.25 Q-29.4 8.25 -29.75 5.45 M-30.2 11.2 L-30.2 5.35 -33.35 5.35 -33.35 11.5 -31.5 11.5 -30.2 11.5 -30.2 11.2 M-17.9 9.2 L-17.9 5.35 -21.05 5.35 -21.05 9.6 -21.05 11.5 -17.9 11.5 -17.9 9.2 M-22.0 9.75 L-22.0 5.35 -25.15 5.35 -25.15 10.25 -25.15 11.5 -22.0 11.5 -22.0 9.75 M-21.55 5.3 L-21.6 5.35 Q-21.95 8.5 -21.45 11.4 L-21.45 11.35 Q-21.2 8.2 -21.55 5.3 M-25.65 5.45 L-25.7 5.5 Q-26.05 8.55 -25.55 11.35 L-25.55 11.25 Q-25.3 8.25 -25.65 5.45 M-13.8 8.8 L-13.8 5.35 -16.95 5.35 -16.95 9.1 -16.95 11.5 -13.8 11.5 -13.8 8.8 M-17.45 5.45 L-17.45 5.5 Q-17.85 8.75 -17.35 11.75 L-17.35 11.65 Q-17.1 8.45 -17.45 5.45 M-26.1 10.45 L-26.1 5.35 -29.25 5.35 -29.25 11.0 -29.25 11.5 -26.1 11.5 -26.1 10.45 M-5.6 8.25 L-5.6 5.35 -8.75 5.35 -8.75 8.4 -8.75 11.5 -5.6 11.5 -5.6 8.25 M-9.7 8.45 L-9.7 5.35 -12.85 5.35 -12.85 8.7 -12.85 11.5 -9.7 11.5 -9.7 8.45 M-9.15 5.5 L-9.25 5.55 Q-9.5 8.5 -9.15 11.35 L-9.15 11.3 Q-8.8 8.3 -9.15 5.5 M-13.35 5.3 L-13.35 5.35 Q-13.75 8.4 -13.25 11.25 L-13.25 11.2 Q-13.0 8.05 -13.35 5.3 M2.6 8.1 L2.6 5.35 -0.55 5.35 -0.55 8.1 -0.55 11.5 2.6 11.5 2.6 8.1 M-1.5 8.1 L-1.5 5.35 -4.65 5.35 -4.65 8.2 -4.65 11.5 -1.5 11.5 -1.5 8.1 M-1.1 5.45 L-1.15 5.5 Q-1.45 8.45 -1.1 11.25 L-1.05 11.2 Q-0.75 8.2 -1.1 5.45 M-5.2 5.45 L-5.25 5.5 Q-5.55 8.45 -5.2 11.25 L-5.15 11.2 Q-4.85 8.25 -5.2 5.45 M2.95 5.05 L2.95 11.85 -33.65 11.85 -33.65 5.05 2.95 5.05" fill="#d2ddf3" fill-rule="evenodd" stroke="none"/>
    <path d="M-31.5 11.5 L-33.35 11.5 -33.35 5.35 -30.2 5.35 -30.2 11.2 -31.5 11.5 M-21.05 9.6 L-21.05 5.35 -17.9 5.35 -17.9 9.2 -21.05 9.6 M-25.15 10.25 L-25.15 5.35 -22.0 5.35 -22.0 9.75 -25.15 10.25 M-16.95 9.1 L-16.95 5.35 -13.8 5.35 -13.8 8.8 -16.95 9.1 M-29.25 11.0 L-29.25 5.35 -26.1 5.35 -26.1 10.45 -29.25 11.0 M-8.75 8.4 L-8.75 5.35 -5.6 5.35 -5.6 8.25 -8.75 8.4 M-12.85 8.7 L-12.85 5.35 -9.7 5.35 -9.7 8.45 -12.85 8.7 M-0.55 8.1 L-0.55 5.35 2.6 5.35 2.6 8.1 -0.55 8.1 M-4.65 8.2 L-4.65 5.35 -1.5 5.35 -1.5 8.1 -4.65 8.2" fill="url(#gradient3)" fill-rule="evenodd" stroke="none"/>
    <path d="M-30.2 11.2 L-30.2 11.5 -31.5 11.5 -30.2 11.2 M-17.9 9.2 L-17.9 11.5 -21.05 11.5 -21.05 9.6 -17.9 9.2 M-22.0 9.75 L-22.0 11.5 -25.15 11.5 -25.15 10.25 -22.0 9.75 M-16.95 9.1 L-13.8 8.8 -13.8 11.5 -16.95 11.5 -16.95 9.1 M-26.1 10.45 L-26.1 11.5 -29.25 11.5 -29.25 11.0 -26.1 10.45 M-5.6 8.25 L-5.6 11.5 -8.75 11.5 -8.75 8.4 -5.6 8.25 M-12.85 8.7 L-9.7 8.45 -9.7 11.5 -12.85 11.5 -12.85 8.7 M2.6 8.1 L2.6 11.5 -0.55 11.5 -0.55 8.1 2.6 8.1 M-4.65 8.2 L-1.5 8.1 -1.5 11.5 -4.65 11.5 -4.65 8.2" fill="url(#gradient4)" fill-rule="evenodd" stroke="none"/>
    <path d="M-29.75 5.45 Q-29.4 8.25 -29.65 11.25 L-29.7 11.35 Q-30.15 8.55 -29.8 5.5 L-29.75 5.45 M-25.65 5.45 Q-25.3 8.25 -25.55 11.25 L-25.55 11.35 Q-26.05 8.55 -25.7 5.5 L-25.65 5.45 M-21.55 5.3 Q-21.2 8.2 -21.45 11.35 L-21.45 11.4 Q-21.95 8.5 -21.6 5.35 L-21.55 5.3 M-17.45 5.45 Q-17.1 8.45 -17.35 11.65 L-17.35 11.75 Q-17.85 8.75 -17.45 5.5 L-17.45 5.45 M-13.35 5.3 Q-13.0 8.05 -13.25 11.2 L-13.25 11.25 Q-13.75 8.4 -13.35 5.35 L-13.35 5.3 M-9.15 5.5 Q-8.8 8.3 -9.15 11.3 L-9.15 11.35 Q-9.5 8.5 -9.25 5.55 L-9.15 5.5 M-5.2 5.45 Q-4.85 8.25 -5.15 11.2 L-5.2 11.25 Q-5.55 8.45 -5.25 5.5 L-5.2 5.45 M-1.1 5.45 Q-0.75 8.2 -1.05 11.2 L-1.1 11.25 Q-1.45 8.45 -1.15 5.5 L-1.1 5.45" fill="#ffffff" fill-rule="evenodd" stroke="none"/>
  </g>
  <defs>
    <linearGradient gradientTransform="matrix(0.0, 0.0056, -0.0268, 0.0, -15.8, -2.85)" gradientUnits="userSpaceOnUse" id="gradient0" spreadMethod="pad" x1="-819.2" x2="819.2">
      <stop offset="0.0" stop-color="#b7c7d0"/>
      <stop offset="1.0" stop-color="#9dadb7"/>
    </linearGradient>
    <linearGradient gradientTransform="matrix(0.002, 0.0, 0.0, 0.004, 14.95, 0.0)" gradientUnits="userSpaceOnUse" id="gradient1" spreadMethod="pad" x1="-819.2" x2="819.2">
      <stop offset="0.0" stop-color="#b7c7d0"/>
      <stop offset="1.0" stop-color="#9dadb7"/>
    </linearGradient>
    <linearGradient gradientTransform="matrix(0.0084, 0.0, 0.0, 0.004, 25.2, 0.0)" gradientUnits="userSpaceOnUse" id="gradient2" spreadMethod="pad" x1="-819.2" x2="819.2">
      <stop offset="0.0" stop-color="#b7c7d0"/>
      <stop offset="1.0" stop-color="#9dadb7"/>
    </linearGradient>
    <linearGradient gradientTransform="matrix(0.0, -0.0041, 0.0038, 0.0, -15.4, 8.4)" gradientUnits="userSpaceOnUse" id="gradient3" spreadMethod="pad" x1="-819.2" x2="819.2">
      <stop offset="0.0" stop-color="#ffffff"/>
      <stop offset="1.0" stop-color="#39444f"/>
    </linearGradient>
    <linearGradient gradientTransform="matrix(0.0, -0.0028, 0.0021, 0.0, -14.45, 10.15)" gradientUnits="userSpaceOnUse" id="gradient4" spreadMethod="pad" x1="-819.2" x2="819.2">
      <stop offset="0.0" stop-color="#ffffff"/>
      <stop offset="1.0" stop-color="#39444f"/>
    </linearGradient>
  </defs>
</svg>
