<?xml version="1.0" encoding="UTF-8" standalone="no"?>
<svg xmlns:ffdec="https://www.free-decompiler.com/flash" xmlns:xlink="http://www.w3.org/1999/xlink" ffdec:objectType="shape" height="17.25px" width="20.75px" xmlns="http://www.w3.org/2000/svg">
  <g transform="matrix(1.0, 0.0, 0.0, 1.0, 10.4, 8.65)">
    <path d="M1.2 -8.05 L1.2 -7.95 1.5 -7.7 1.5 -6.55 0.25 -6.5 0.25 -6.35 -0.15 -6.35 -0.15 -5.5 -3.45 -5.45 -3.45 -5.7 -0.75 -5.7 -0.75 -5.65 -0.15 -7.0 -0.1 -7.1 0.3 -7.6 1.2 -8.05 M1.05 -5.95 L1.5 -6.15 Q1.9 -6.3 1.9 -6.65 L2.9 -6.7 Q3.9 -6.75 3.85 -6.95 L1.9 -6.95 1.95 -7.7 3.0 -7.8 Q4.05 -7.95 4.05 -8.2 L1.7 -8.2 4.45 -8.45 Q4.45 -7.55 4.75 -6.9 L5.0 -5.9 4.1 -5.85 4.1 -5.95 1.05 -5.95 M3.75 -4.6 L1.05 -4.6 1.05 -5.5 3.8 -5.5 3.8 -4.65 3.8 -4.6 3.75 -4.6" fill="#ebecdf" fill-rule="evenodd" stroke="none"/>
    <path d="M0.25 -6.35 L0.25 -6.5 1.5 -6.55 1.5 -7.7 1.2 -7.95 1.2 -8.05 1.15 -8.2 1.7 -8.2 4.05 -8.2 Q4.05 -7.95 3.0 -7.8 L1.95 -7.7 1.9 -6.95 1.9 -6.65 Q1.9 -6.3 1.5 -6.15 L1.05 -5.95 Q0.8 -5.95 0.8 -5.05 0.6 -5.05 0.45 -5.7 L0.25 -6.35" fill="#bec9b6" fill-rule="evenodd" stroke="none"/>
    <path d="M0.25 -6.35 L0.45 -5.7 Q0.6 -5.05 0.8 -5.05 0.8 -5.95 1.05 -5.95 L1.05 -5.85 1.05 -5.5 1.05 -4.6 3.75 -4.6 3.35 -4.3 0.7 -4.3 0.25 -4.3 0.3 -5.1 0.25 -6.35 M4.1 -5.85 L5.0 -5.7 3.8 -4.65 3.8 -5.5 3.8 -5.85 4.1 -5.85" fill="#8da280" fill-rule="evenodd" stroke="none"/>
    <path d="M1.9 -6.65 L1.9 -6.95 3.85 -6.95 Q3.9 -6.75 2.9 -6.7 L1.9 -6.65" fill="#aebd9f" fill-rule="evenodd" stroke="none"/>
    <path d="M1.7 -8.2 L1.15 -8.2 1.2 -8.05 0.3 -7.6 0.55 -8.65 4.45 -8.65 4.45 -8.45 1.7 -8.2 M-0.15 -7.0 L-0.75 -5.65 -0.75 -5.7 Q-0.75 -6.3 -0.15 -7.0 M10.3 6.35 L10.35 6.35 5.7 6.65 6.8 6.55 10.3 6.35 M3.9 6.7 L5.65 6.7 3.7 6.85 3.9 6.7 M3.5 7.4 L3.4 8.5 3.45 7.6 3.5 7.4 M-10.2 8.55 L-10.3 8.6 -10.4 0.4 -6.85 0.4 -6.65 0.45 -10.3 0.45 -10.3 0.9 -10.3 1.25 -10.3 3.4 -10.3 3.7 -10.3 4.1 -10.25 8.25 -10.25 8.5 -10.2 8.55" fill="#d6dad7" fill-rule="evenodd" stroke="none"/>
    <path d="M4.1 -5.85 L5.0 -5.9 5.0 -5.7 4.1 -5.85" fill="#808e79" fill-rule="evenodd" stroke="none"/>
    <path d="M1.05 -5.5 L1.05 -5.85 3.8 -5.85 3.8 -5.5 1.05 -5.5" fill="#88927e" fill-rule="evenodd" stroke="none"/>
    <path d="M1.05 -5.85 L1.05 -5.95 4.1 -5.95 4.1 -5.85 3.8 -5.85 1.05 -5.85" fill="#a3a99a" fill-rule="evenodd" stroke="none"/>
    <path d="M0.75 -3.6 L0.7 -3.65 10.15 -3.65 10.15 -3.75 10.3 -4.35 10.3 6.1 0.95 6.45 0.95 6.4 1.0 6.4 10.25 0.7 0.9 0.7 0.8 0.6 0.85 0.6 9.45 0.25 0.85 0.25 0.8 0.2 9.5 0.2 9.5 0.15 9.55 -0.25 3.15 -0.25 3.15 -0.3 5.6 -0.3 9.6 -0.35 9.65 -0.8 2.55 -0.8 2.85 -0.7 2.3 -0.35 1.9 -0.35 2.3 -0.8 0.8 -0.8 0.8 -0.85 9.7 -0.85 9.7 -0.9 9.75 -1.4 0.8 -1.4 0.75 -1.45 9.75 -1.45 9.75 -1.5 9.9 -2.15 0.8 -2.15 0.75 -2.2 9.9 -2.2 9.9 -2.25 10.0 -2.8 0.75 -2.8 0.75 -2.85 9.95 -2.95 10.05 -2.95 10.15 -3.6 0.75 -3.6 M0.8 -0.25 L0.8 -0.3 2.35 -0.3 2.4 -0.05 2.5 0.05 2.0 -0.1 0.8 -0.25 M-4.45 -2.2 L-4.9 -2.4 -5.15 -2.85 -5.05 -3.3 -4.7 -3.6 -4.25 -3.65 -4.45 -3.3 Q-4.4 -2.4 -4.0 -2.55 -4.65 -3.2 -3.85 -2.95 L-3.85 -3.15 -3.9 -3.5 -4.0 -3.6 -3.5 -3.35 -3.35 -2.8 -3.75 -2.3 -4.45 -2.2 M-4.55 -1.65 L-3.85 -1.7 -3.35 -1.65 -3.3 -1.0 -3.45 -0.4 -4.2 -0.35 -4.8 -1.0 -4.55 -1.65 M-1.65 -4.3 L-1.8 -4.15 -1.85 -3.8 -1.8 -3.45 -1.65 -3.3 -1.5 -3.45 -1.45 -3.8 -1.5 -4.15 -1.65 -4.3 M-1.55 -4.35 L-1.3 -4.2 -1.3 -3.8 -1.25 -3.55 -1.25 -3.45 -1.5 -3.1 -1.85 -3.2 -1.9 -3.3 -1.95 -4.25 -1.9 -4.3 -1.9 -4.35 -1.55 -4.35 M-1.05 -4.2 Q-1.0 -4.45 -0.4 -4.45 -0.35 -3.45 -0.45 -3.15 L-0.75 -3.15 -1.05 -4.2 M-0.9 -4.1 L-0.75 -3.3 Q-0.45 -3.6 -0.8 -4.35 L-0.9 -4.1 M-3.85 -0.95 L-3.55 -0.95 Q-3.85 -0.95 -3.75 -1.25 L-4.15 -1.55 -4.6 -1.05 -4.25 -0.7 -4.1 -0.6 -3.85 -0.95" fill="#eff3f5" fill-rule="evenodd" stroke="none"/>
    <path d="M0.25 -4.3 L0.7 -4.3 0.75 -3.75 0.7 -3.65 0.75 -3.6 0.75 -2.95 0.75 -2.85 0.75 -2.8 0.8 -2.25 0.75 -2.2 0.8 -2.15 0.8 -1.5 0.75 -1.45 0.8 -1.4 0.8 -0.9 0.8 -0.85 0.8 -0.8 0.8 -0.35 0.8 -0.3 0.8 -0.25 0.85 0.15 0.8 0.2 0.3 0.2 0.3 0.1 0.25 -4.3" fill="#1c2125" fill-rule="evenodd" stroke="none"/>
    <path d="M0.7 -3.65 L0.75 -3.75 10.15 -3.75 10.15 -3.65 0.7 -3.65 M0.75 -2.85 L0.75 -2.95 9.95 -2.95 0.75 -2.85 M9.9 -2.25 L9.9 -2.2 0.75 -2.2 0.8 -2.25 9.9 -2.25 M9.75 -1.5 L9.75 -1.45 0.75 -1.45 0.8 -1.5 9.75 -1.5 M9.7 -0.9 L9.7 -0.85 0.8 -0.85 0.8 -0.9 9.7 -0.9 M1.9 -0.35 L2.3 -0.35 2.35 -0.3 0.8 -0.3 0.8 -0.35 1.9 -0.35 M5.6 -0.3 L3.15 -0.3 3.1 -0.35 5.6 -0.3 M9.5 0.15 L9.5 0.2 0.8 0.2 0.85 0.15 2.75 0.15 2.8 0.15 9.5 0.15" fill="#7594a8" fill-rule="evenodd" stroke="none"/>
    <path d="M0.7 -4.3 L3.35 -4.3 10.3 -4.35 10.15 -3.75 0.75 -3.75 0.7 -4.3 M0.75 -2.95 L0.75 -3.6 10.15 -3.6 10.05 -2.95 9.95 -2.95 0.75 -2.95 M0.75 -2.8 L10.0 -2.8 9.9 -2.25 0.8 -2.25 0.75 -2.8 M0.8 -2.15 L9.9 -2.15 9.75 -1.5 0.8 -1.5 0.8 -2.15 M0.8 -1.4 L9.75 -1.4 9.7 -0.9 0.8 -0.9 0.8 -1.4 M0.8 -0.8 L2.3 -0.8 1.9 -0.35 0.8 -0.35 0.8 -0.8 M2.85 -0.7 L2.55 -0.8 9.65 -0.8 9.6 -0.35 5.6 -0.3 3.1 -0.35 2.85 -0.7 M3.15 -0.25 L9.55 -0.25 9.5 0.15 2.8 0.15 3.15 -0.25 M0.85 0.25 L9.45 0.25 0.85 0.6 0.85 0.25 M2.5 0.05 L2.55 0.05 2.75 0.15 0.85 0.15 0.8 -0.25 2.0 -0.1 2.5 0.05" fill="#a2b9c9" fill-rule="evenodd" stroke="none"/>
    <path d="M0.3 -5.1 L0.25 -4.3 0.3 0.1 -2.45 -0.3 -2.45 -5.0 0.3 -5.1 M-1.55 -4.35 L-1.9 -4.35 -1.9 -4.3 -2.2 -4.25 -2.2 -4.05 -2.2 -0.65 -0.1 -0.3 -0.1 -4.7 -1.55 -4.35" fill="#c0e2e3" fill-rule="evenodd" stroke="none"/>
    <path d="M2.3 -0.35 L2.85 -0.7 3.1 -0.35 3.15 -0.3 3.15 -0.25 2.8 0.15 2.75 0.15 2.55 0.05 2.5 0.05 2.4 -0.05 2.35 -0.3 2.3 -0.35" fill="#4c5c69" fill-rule="evenodd" stroke="none"/>
    <path d="M-3.45 -5.45 L-0.15 -5.5 -0.15 -6.35 0.25 -6.35 0.3 -5.1 -2.45 -5.0 -2.6 -5.0 -2.85 -5.0 -3.45 -5.0 -3.45 -5.45" fill="#9bac8e" fill-rule="evenodd" stroke="none"/>
    <path d="M0.95 6.45 L10.3 6.1 10.3 6.35 6.8 6.55 0.9 6.75 0.9 6.7 0.95 6.45" fill="#98aebc" fill-rule="evenodd" stroke="none"/>
    <path d="M0.8 0.2 L0.85 0.25 0.85 0.6 0.8 0.6 0.9 0.7 1.0 6.4 0.95 6.4 -2.75 6.15 -1.8 4.75 -1.0 5.1 -1.65 4.55 0.05 2.0 0.2 1.85 0.3 0.2 0.8 0.2 M5.7 6.65 L3.9 6.7 3.7 6.85 3.5 6.85 3.5 7.4 3.45 7.6 3.4 8.5 3.3 8.25 -3.95 6.3 0.9 6.7 0.9 6.75 6.8 6.55 5.7 6.65" fill="#3e4a53" fill-rule="evenodd" stroke="none"/>
    <path d="M0.3 0.1 L0.3 0.2 0.2 1.85 -2.9 0.1 Q-2.6 -0.15 -2.6 -5.0 L-2.45 -5.0 -2.45 -0.3 0.3 0.1 M-6.15 0.5 L-4.4 0.95 -4.6 1.3 -6.35 0.95 -6.15 0.5" fill="#5e807b" fill-rule="evenodd" stroke="none"/>
    <path d="M0.2 1.85 L0.05 2.0 -4.6 2.0 -4.6 1.3 -4.4 0.95 -4.4 -0.1 -3.0 -0.1 -3.0 -4.55 -2.85 -5.0 -2.6 -5.0 Q-2.6 -0.15 -2.9 0.1 L0.2 1.85" fill="#48625f" fill-rule="evenodd" stroke="none"/>
    <path d="M0.05 2.0 L-1.65 4.55 -4.6 2.0 0.05 2.0 M-1.8 4.75 L-2.75 6.15 -3.95 6.15 -3.95 6.3 3.3 8.25 -10.25 8.25 -10.3 4.1 -3.55 4.0 -1.8 4.75" fill="#52626f" fill-rule="evenodd" stroke="none"/>
    <path d="M3.4 8.5 L3.35 8.5 -10.25 8.5 -10.25 8.25 3.3 8.25 3.4 8.5" fill="#aeb7b7" fill-rule="evenodd" stroke="none"/>
    <path d="M3.35 8.5 L3.3 8.55 -10.2 8.55 -10.25 8.5 3.35 8.5" fill="#e9f2ed" fill-rule="evenodd" stroke="none"/>
    <path d="M0.95 6.4 L0.95 6.45 0.9 6.7 -3.95 6.3 -3.95 6.15 -2.75 6.15 0.95 6.4 M-4.65 3.7 L-3.55 4.0 -10.3 4.1 -10.3 3.7 -4.65 3.7" fill="#515b62" fill-rule="evenodd" stroke="none"/>
    <path d="M0.9 0.7 L10.25 0.7 1.0 6.4 0.9 0.7" fill="url(#gradient0)" fill-rule="evenodd" stroke="none"/>
    <path d="M-6.9 -2.5 L-6.6 -2.95 -6.4 -2.75 -6.4 -1.25 Q-6.45 0.2 -6.6 0.25 L-6.9 -2.5" fill="#f7f7f5" fill-rule="evenodd" stroke="none"/>
    <path d="M-6.6 -2.95 L-4.45 -4.35 -4.45 -3.85 -5.1 -3.3 Q-5.4 -2.8 -5.75 -2.8 L-6.35 -2.8 -6.4 -2.75 -6.6 -2.95 M-4.15 -4.55 L-3.45 -5.0 -2.85 -5.0 -3.0 -4.55 -4.15 -4.55" fill="#32393d" fill-rule="evenodd" stroke="none"/>
    <path d="M-4.45 -4.35 L-4.45 -4.55 -4.15 -4.55 -3.0 -4.55 -3.0 -0.1 -4.4 -0.1 -4.4 0.95 -6.15 0.5 -6.35 -2.8 -5.75 -2.8 Q-5.75 -2.55 -5.35 -2.35 L-4.45 -2.2 -3.75 -2.3 -3.35 -2.8 -3.5 -3.35 -4.0 -3.6 -4.1 -3.7 -4.25 -3.65 -4.45 -3.85 -4.45 -4.35 M-4.55 -1.65 L-5.3 -1.45 -5.5 -0.65 -5.4 -0.05 -5.15 -0.1 -4.2 -0.35 -3.45 -0.4 -3.3 -1.0 -3.35 -1.65 -3.85 -1.7 -4.55 -1.65" fill="#5c766d" fill-rule="evenodd" stroke="none"/>
    <path d="M-4.45 -2.2 L-5.35 -2.35 Q-5.75 -2.55 -5.75 -2.8 -5.4 -2.8 -5.1 -3.3 L-4.45 -3.85 -4.25 -3.65 -4.7 -3.6 -5.05 -3.3 -5.15 -2.85 -4.9 -2.4 -4.45 -2.2 M-4.2 -0.35 L-5.15 -0.1 -5.4 -0.05 -5.5 -0.65 -5.3 -1.45 -4.55 -1.65 -4.8 -1.0 -4.2 -0.35" fill="#3d4341" fill-rule="evenodd" stroke="none"/>
    <path d="M-6.85 0.4 L-6.9 -2.5 -6.6 0.25 Q-6.45 0.2 -6.4 -1.25 L-6.4 -2.75 -6.35 -2.8 -6.15 0.5 -6.35 0.95 -6.55 0.85 -6.65 0.45 -6.85 0.4" fill="#68a3a8" fill-rule="evenodd" stroke="none"/>
    <path d="M-1.65 -4.3 L-1.5 -4.15 -1.45 -3.8 -1.5 -3.45 -1.65 -3.3 -1.8 -3.45 -1.85 -3.8 -1.8 -4.15 -1.65 -4.3 M-0.9 -4.1 L-0.8 -4.35 Q-0.45 -3.6 -0.75 -3.3 L-0.9 -4.1 M-4.0 -3.6 L-3.9 -3.5 -3.85 -3.15 -3.85 -2.95 -4.45 -3.3 -4.25 -3.65 -4.1 -3.7 -4.0 -3.6 M-3.85 -0.95 Q-3.85 -1.35 -4.05 -1.2 L-4.4 -1.15 -3.75 -1.25 Q-3.85 -0.95 -3.55 -0.95 L-3.85 -0.95" fill="#aab0b3" fill-rule="evenodd" stroke="none"/>
    <path d="M-1.3 -4.2 L-1.55 -4.35 -0.1 -4.7 -0.1 -0.3 -2.2 -0.65 -2.2 -4.05 Q-2.0 -2.9 -1.65 -2.85 L-1.85 -3.2 -1.5 -3.1 -1.25 -3.45 -1.25 -3.55 -1.15 -3.35 Q-1.0 -3.15 -0.75 -3.15 L-0.45 -3.15 Q-0.35 -3.45 -0.4 -4.45 -1.0 -4.45 -1.05 -4.2 L-1.3 -4.2 M-1.9 -4.3 L-1.95 -4.25 -2.2 -4.25 -1.9 -4.3" fill="#9fc2c6" fill-rule="evenodd" stroke="none"/>
    <path d="M-1.95 -4.25 L-1.9 -3.3 -1.85 -3.2 -1.65 -2.85 Q-2.0 -2.9 -2.2 -4.05 L-2.2 -4.25 -1.95 -4.25 M-1.25 -3.55 L-1.3 -3.8 -1.3 -4.2 -1.05 -4.2 -0.75 -3.15 Q-1.0 -3.15 -1.15 -3.35 L-1.25 -3.55" fill="#717c7d" fill-rule="evenodd" stroke="none"/>
    <path d="M-4.45 -3.3 L-3.85 -2.95 Q-4.65 -3.2 -4.0 -2.55 -4.4 -2.4 -4.45 -3.3 M-3.75 -1.25 L-4.4 -1.15 -4.05 -1.2 Q-3.85 -1.35 -3.85 -0.95 L-4.1 -0.6 -4.25 -0.7 -4.6 -1.05 -4.15 -1.55 -3.75 -1.25" fill="#ced1d2" fill-rule="evenodd" stroke="none"/>
    <path d="M-10.0 0.9 Q-9.45 1.35 -7.5 1.85 L-4.6 2.3 -4.6 2.9 -8.6 2.45 Q-9.8 2.1 -10.3 1.25 L-10.3 0.9 -10.0 0.9" fill="#d2f1e9" fill-rule="evenodd" stroke="none"/>
    <path d="M-1.65 4.55 L-1.0 5.1 -1.8 4.75 -3.55 4.0 -4.65 3.7 -4.65 3.4 -4.6 2.9 -4.6 2.3 -4.6 2.0 -1.65 4.55" fill="#0a0c0b" fill-rule="evenodd" stroke="none"/>
    <path d="M-4.6 1.3 L-4.6 2.0 -4.6 2.3 -7.5 1.85 Q-9.45 1.35 -10.0 0.9 L-6.55 0.85 -6.35 0.95 -4.6 1.3" fill="#9bc2c7" fill-rule="evenodd" stroke="none"/>
    <path d="M-4.65 3.4 L-4.65 3.7 -10.3 3.7 -10.3 3.4 -4.65 3.4" fill="#98a2a3" fill-rule="evenodd" stroke="none"/>
    <path d="M-4.6 2.9 L-4.65 3.4 -10.3 3.4 -10.3 1.25 Q-9.8 2.1 -8.6 2.45 L-4.6 2.9" fill="#edffff" fill-rule="evenodd" stroke="none"/>
    <path d="M-6.55 0.85 L-10.0 0.9 -10.3 0.9 -10.3 0.45 -6.65 0.45 -6.55 0.85" fill="#616a6b" fill-rule="evenodd" stroke="none"/>
  </g>
  <defs>
    <linearGradient gradientTransform="matrix(0.0, -0.002, 0.0035, 0.0, 5.6, 3.05)" gradientUnits="userSpaceOnUse" id="gradient0" spreadMethod="pad" x1="-819.2" x2="819.2">
      <stop offset="0.0" stop-color="#b7c7d0"/>
      <stop offset="1.0" stop-color="#9dadb7"/>
    </linearGradient>
  </defs>
</svg>
