<?xml version="1.0" encoding="UTF-8" standalone="no"?>
<svg xmlns:ffdec="https://www.free-decompiler.com/flash" xmlns:xlink="http://www.w3.org/1999/xlink" ffdec:objectType="shape" height="27.5px" width="3.55px" xmlns="http://www.w3.org/2000/svg">
  <g transform="matrix(1.0, 0.0, 0.0, 1.0, 0.0, 0.0)">
    <path d="M3.4 0.0 L3.55 0.0 3.55 9.2 3.55 9.3 3.55 18.35 3.55 18.45 3.55 27.35 3.55 27.45 3.45 27.5 3.4 27.25 3.4 18.5 3.45 18.5 3.4 18.25 3.4 0.0 M0.2 27.5 L0.1 27.5 0.0 27.45 0.0 27.35 0.0 18.6 0.05 18.6 0.05 18.5 0.0 18.45 0.0 18.35 0.0 9.6 0.05 9.6 0.05 9.3 0.0 9.2 0.0 3.4 0.05 3.4 0.05 0.0 0.2 0.0 0.2 9.15 0.15 9.35 0.2 9.35 0.2 27.5" fill="#475a3f" fill-rule="evenodd" stroke="none"/>
    <path d="M3.45 27.5 L0.2 27.5 0.2 9.35 0.15 9.35 0.2 9.15 0.2 0.0 3.4 0.0 3.4 18.25 3.45 18.5 3.4 18.5 3.4 27.25 3.45 27.5 M2.55 2.8 Q1.85 4.5 2.9 3.3 L2.9 3.25 2.55 2.85 2.55 2.8 M2.6 0.85 Q2.8 0.5 2.4 0.4 1.65 2.3 2.6 0.85 M1.15 18.55 Q0.75 18.65 1.0 19.0 1.9 20.45 1.15 18.55 M0.7 21.45 Q1.75 22.65 1.05 20.95 L1.05 21.0 Q0.8 21.0 0.7 21.4 L0.7 21.45 M1.05 11.95 L1.05 12.0 Q0.8 12.0 0.7 12.4 L0.7 12.45 Q1.75 13.65 1.05 11.95 M1.15 9.55 Q0.75 9.65 1.0 10.0 1.9 11.45 1.15 9.55" fill="#bdbeb5" fill-rule="evenodd" stroke="none"/>
    <path d="M2.6 0.85 Q1.65 2.3 2.4 0.4 2.8 0.5 2.6 0.85 M2.55 2.8 L2.55 2.85 2.9 3.25 2.9 3.3 Q1.85 4.5 2.55 2.8 M1.15 9.55 Q1.9 11.45 1.0 10.0 0.75 9.65 1.15 9.55 M1.05 11.95 Q1.75 13.65 0.7 12.45 L0.7 12.4 Q0.8 12.0 1.05 12.0 L1.05 11.95 M0.7 21.45 L0.7 21.4 Q0.8 21.0 1.05 21.0 L1.05 20.95 Q1.75 22.65 0.7 21.45 M1.15 18.55 Q1.9 20.45 1.0 19.0 0.75 18.65 1.15 18.55" fill="#abac9f" fill-rule="evenodd" stroke="none"/>
  </g>
</svg>
