<?xml version="1.0" encoding="UTF-8" standalone="no"?>
<svg xmlns:ffdec="https://www.free-decompiler.com/flash" xmlns:xlink="http://www.w3.org/1999/xlink" ffdec:objectType="shape" height="13.8px" width="15.75px" xmlns="http://www.w3.org/2000/svg">
  <g transform="matrix(1.0, 0.0, 0.0, 1.0, 3.4, 6.35)">
    <path d="M4.35 -3.75 Q4.95 -3.75 5.1 -4.4 L5.15 -4.45 Q5.3 -5.05 5.8 -5.4 L6.3 -5.7 7.05 -4.55 Q7.75 -3.2 9.2 -3.25 L10.8 -2.95 Q11.35 -2.5 11.55 -1.55 11.75 -0.45 11.3 -0.2 L11.3 -0.15 Q10.55 0.4 10.65 1.1 L11.3 2.45 11.5 3.1 11.45 3.15 11.2 3.25 Q9.75 3.9 9.7 5.1 L9.55 5.95 8.3 6.45 6.45 6.75 6.4 6.65 Q6.15 6.7 5.75 5.75 L5.55 5.65 5.4 5.6 5.2 5.6 Q4.45 6.05 4.05 5.8 3.75 5.4 3.8 4.5 L3.7 4.25 3.45 4.15 Q1.9 4.05 1.15 4.6 0.8 4.8 0.5 4.35 -0.05 3.75 -0.05 3.4 0.05 3.15 0.6 2.95 1.55 2.6 2.05 1.5 L2.05 1.2 1.95 1.05 1.8 0.95 Q0.7 0.8 0.3 0.5 L0.2 0.3 Q0.65 -0.7 0.3 -1.25 L0.15 -1.85 0.3 -2.1 1.75 -3.85 Q2.15 -4.45 3.15 -4.05 L4.35 -3.75" fill="#b4f0fe" fill-opacity="0.4" fill-rule="evenodd" stroke="none"/>
    <path d="M4.35 -3.75 L3.15 -4.05 Q2.15 -4.45 1.75 -3.85 L0.3 -2.1 0.15 -1.85 0.3 -1.25 Q0.65 -0.7 0.2 0.3 L0.3 0.5 Q0.7 0.8 1.8 0.95 L1.95 1.05 2.05 1.2 2.05 1.5 Q1.55 2.6 0.6 2.95 0.05 3.15 -0.05 3.4 -0.05 3.75 0.5 4.35 0.8 4.8 1.15 4.6 1.9 4.05 3.45 4.15 L3.7 4.25 3.8 4.5 Q3.75 5.4 4.05 5.8 4.45 6.05 5.2 5.6 L5.4 5.6 5.55 5.65 5.75 5.75 Q6.15 6.7 6.4 6.65 L6.45 6.75 8.3 6.45 9.55 5.95 9.7 5.1 Q9.75 3.9 11.2 3.25 L11.45 3.15 11.5 3.1 11.3 2.45 10.65 1.1 Q10.55 0.4 11.3 -0.15 L11.3 -0.2 Q11.75 -0.45 11.55 -1.55 11.35 -2.5 10.8 -2.95 L9.2 -3.25 Q7.75 -3.2 7.05 -4.55 L6.3 -5.7 5.8 -5.4 Q5.3 -5.05 5.15 -4.45 L5.1 -4.4 Q4.95 -3.75 4.35 -3.75 M4.3 -4.3 L4.5 -4.6 Q4.75 -5.55 5.45 -6.0 6.25 -6.5 6.6 -6.3 L7.7 -4.9 Q8.2 -3.95 9.15 -3.95 10.55 -3.95 11.2 -3.5 11.95 -3.05 12.2 -1.65 L12.25 -1.7 Q12.55 -0.1 11.7 0.35 11.3 0.6 11.35 0.95 11.45 1.5 11.85 2.0 L11.9 2.05 Q12.45 2.9 12.15 3.5 L11.45 3.9 Q10.4 4.35 10.3 5.15 L10.25 6.25 10.15 6.4 8.55 7.05 6.3 7.4 Q5.8 7.35 5.25 6.35 4.25 6.95 3.6 6.35 3.15 5.95 3.05 4.8 2.05 4.75 1.6 5.1 0.75 5.85 -0.15 4.7 -0.75 3.9 -0.75 3.3 -0.7 2.7 0.4 2.25 0.9 2.1 1.2 1.55 L0.0 1.1 Q-0.75 0.6 -0.45 0.0 L-0.3 -0.95 -0.55 -1.65 Q-0.7 -1.95 -0.25 -2.6 L-0.2 -2.65 Q0.8 -3.55 1.1 -4.2 1.85 -5.5 3.4 -4.65 3.95 -4.3 4.3 -4.3" fill="#d5f7ff" fill-rule="evenodd" stroke="none"/>
    <path d="M-1.3 -3.35 L-1.2 -3.5 1.75 -3.55 1.85 -3.5 2.8 -3.3 -1.3 -3.35 M-1.55 -2.35 L0.3 -2.35 -1.2 -1.35 -1.05 -0.5 1.05 -0.75 1.15 0.2 -1.6 0.85 -1.7 -0.15 -1.8 0.5 -1.8 -0.35 -1.55 -2.35 M2.35 1.1 L2.7 0.95 3.25 0.55 3.15 1.8 3.1 3.1 Q1.15 3.7 -0.95 2.65 L-1.3 1.8 1.7 1.25 1.85 1.4 2.35 1.1" fill="#b8b80c" fill-rule="evenodd" stroke="none"/>
    <path d="M2.8 -3.3 L1.85 -3.5 1.75 -3.55 -1.2 -3.5 -1.3 -3.35 -3.4 -3.3 -3.35 -3.55 Q-3.1 -5.35 -1.3 -5.15 L1.05 -4.8 Q2.6 -4.65 2.8 -3.3 M3.1 3.1 L1.65 4.05 -0.7 4.45 Q-2.5 4.85 -2.8 3.0 L-2.9 2.15 -1.3 1.8 -0.95 2.65 Q1.15 3.7 3.1 3.1 M-2.95 1.15 L-3.25 -2.4 -1.55 -2.35 -1.8 -0.35 -1.8 0.5 -1.7 -0.15 -1.6 0.85 -2.95 1.15" fill="#e8e80f" fill-rule="evenodd" stroke="none"/>
    <path d="M1.55 -2.6 L1.75 -2.6 1.8 -0.75 3.05 -0.1 2.7 0.95 2.35 1.1 1.85 0.7 1.9 -0.25 1.05 -1.2 0.6 -1.4 1.55 -2.6" fill="#97960b" fill-rule="evenodd" stroke="none"/>
    <path d="M0.3 -2.35 L0.6 -2.5 1.55 -2.6 0.6 -1.4 1.05 -1.2 1.9 -0.25 1.85 0.7 2.35 1.1 1.85 1.4 1.7 1.25 1.2 0.55 1.15 0.2 1.05 -0.75 -1.05 -0.5 -1.2 -1.35 0.3 -2.35" fill="#707007" fill-rule="evenodd" stroke="none"/>
    <path d="M-1.3 -3.35 L2.8 -3.3 2.65 -2.75 1.75 -2.6 1.55 -2.6 0.6 -2.5 0.3 -2.35 -1.55 -2.35 -1.3 -3.35 M1.15 0.2 L1.2 0.55 1.7 1.25 -1.3 1.8 -1.6 0.85 1.15 0.2" fill="#e6e485" fill-rule="evenodd" stroke="none"/>
    <path d="M-3.4 -3.3 L-1.3 -3.35 -1.55 -2.35 -3.25 -2.4 -3.4 -3.3 M-2.9 2.15 L-2.95 1.15 -1.6 0.85 -1.3 1.8 -2.9 2.15" fill="#f2f2f2" fill-rule="evenodd" stroke="none"/>
  </g>
</svg>
