<?xml version="1.0" encoding="UTF-8" standalone="no"?>
<svg xmlns:ffdec="https://www.free-decompiler.com/flash" xmlns:xlink="http://www.w3.org/1999/xlink" ffdec:objectType="shape" height="22.75px" width="26.8px" xmlns="http://www.w3.org/2000/svg">
  <g transform="matrix(1.0, 0.0, 0.0, 1.0, 6.1, 12.7)">
    <path d="M6.5 -7.6 L5.75 -3.45 7.15 -3.0 7.9 -2.75 7.85 -2.75 6.9 -2.2 9.7 -2.6 10.3 -2.6 13.5 -3.85 13.6 -3.85 Q19.55 -2.8 20.15 -1.75 L20.7 -0.9 Q20.65 0.0 18.45 0.55 L14.05 1.0 11.65 1.0 11.55 1.1 Q11.7 1.75 13.15 2.15 L16.6 3.2 Q17.8 4.05 16.5 4.7 L16.55 4.6 Q15.7 5.25 12.6 4.55 9.5 3.8 8.55 3.95 L9.8 4.2 11.6 4.7 12.2 5.25 13.0 5.15 13.0 5.45 Q13.0 6.35 12.5 7.0 11.85 7.85 10.6 7.95 9.4 8.05 7.85 7.45 6.3 6.85 5.75 6.9 4.6 7.0 3.75 7.55 L3.55 7.4 Q3.05 8.75 1.2 9.55 -0.1 10.2 -2.1 9.3 -2.95 8.85 -3.95 8.9 -3.7 8.2 -2.8 7.8 L-2.55 7.7 -1.55 6.55 -0.9 4.1 -1.3 3.15 -1.8 2.75 Q-1.8 2.65 -2.0 2.65 L-2.0 2.55 -2.0 2.4 -1.95 2.4 -1.8 2.45 -1.9 2.4 -2.2 0.2 -1.6 -0.3 -1.6 -0.95 -1.0 -1.45 -1.2 -2.0 -2.1 -2.35 -2.2 -2.6 -2.85 -1.85 Q-3.15 -2.65 -3.8 -3.15 -4.05 -3.5 -4.6 -3.65 L-4.65 -4.55 -4.4 -4.35 Q-2.85 -12.0 0.05 -9.3 L0.65 -8.7 1.1 -9.05 2.1 -7.6 Q3.5 -9.45 4.85 -9.35 6.1 -9.25 6.45 -8.45 L6.5 -7.6 M-0.95 -0.8 L-0.8 -0.9 -1.0 -0.9 -1.1 -0.75 -0.95 -0.8 M3.55 3.15 L4.4 3.4 4.7 3.35 3.55 3.15" fill="#ffffff" fill-rule="evenodd" stroke="none"/>
    <path d="M8.85 -5.85 L9.45 -4.95 10.9 -4.85 Q16.4 -6.85 17.95 -5.2 18.55 -4.55 18.6 -3.7 18.7 -2.7 17.75 -1.9 16.9 -1.05 15.25 -0.5 13.65 0.05 13.25 0.4 11.65 1.85 12.05 3.8 12.4 5.8 11.6 6.55 10.2 7.8 8.7 7.25 L7.25 6.45 5.05 6.45 Q3.55 6.55 3.05 5.9 L2.75 5.7 2.05 7.6 Q1.65 8.85 0.95 9.5 0.05 10.3 -0.7 9.95 L-1.35 9.25 Q-2.15 8.35 -1.95 4.35 L-1.55 0.55 Q-1.8 0.3 -2.2 0.2 L-2.8 -0.1 Q-5.6 -3.15 -6.05 -6.05 -6.6 -9.5 -0.05 -5.5 0.1 -5.95 -0.2 -8.75 -0.5 -11.2 0.5 -12.1 1.4 -12.95 2.2 -12.6 L2.85 -12.0 6.1 -6.6 7.4 -6.3 8.85 -5.85" fill="#ffffff" fill-rule="evenodd" stroke="none"/>
  </g>
</svg>
