<?xml version="1.0" encoding="UTF-8" standalone="no"?>
<svg xmlns:ffdec="https://www.free-decompiler.com/flash" xmlns:xlink="http://www.w3.org/1999/xlink" ffdec:objectType="shape" height="38.9px" width="47.9px" xmlns="http://www.w3.org/2000/svg">
  <g transform="matrix(1.0, 0.0, 0.0, 1.0, 10.4, 19.85)">
    <path d="M4.9 -10.6 Q8.6 -14.65 9.6 -14.55 11.05 -14.45 10.85 -12.95 10.85 -11.6 8.0 -7.5 6.65 -5.5 5.95 -3.9 L6.0 -3.85 7.8 -2.7 6.9 -2.2 9.7 -2.6 10.3 -2.6 13.45 -3.8 16.4 -2.85 16.5 -2.8 17.8 -3.3 27.9 -2.05 37.05 -0.15 37.5 0.6 Q37.6 1.35 35.65 1.85 31.05 3.05 18.6 1.7 L12.45 1.0 11.9 1.25 Q20.8 3.1 20.95 4.35 21.1 5.55 19.25 5.8 L16.55 5.2 10.15 3.9 8.55 3.95 9.8 4.2 11.5 4.7 Q16.35 8.7 16.35 9.7 L16.0 10.55 Q15.65 10.95 15.0 11.0 13.15 11.1 5.45 7.55 L5.65 9.35 Q5.9 14.85 3.6 15.95 1.95 16.7 -0.9 12.6 -2.75 9.95 -3.9 9.2 L-3.95 9.05 Q-3.75 8.25 -2.8 7.8 L-2.55 7.7 -1.55 6.55 -0.9 4.1 -1.3 3.15 -1.8 2.75 Q-1.8 2.65 -2.0 2.65 L-2.0 2.55 -2.0 2.4 -1.95 2.4 -1.8 2.45 -1.9 2.4 -2.2 0.2 -1.6 -0.3 -1.6 -0.95 -1.0 -1.45 -1.2 -2.0 -2.1 -2.35 -2.2 -2.6 -2.85 -1.85 Q-3.15 -2.65 -3.8 -3.15 -4.05 -3.5 -4.6 -3.65 L-4.7 -4.75 -4.25 -12.65 Q-2.95 -17.4 -1.05 -15.8 0.45 -14.35 0.85 -11.75 L1.25 -6.55 1.4 -6.55 4.9 -10.6 M-0.95 -0.8 L-0.8 -0.9 -1.0 -0.9 -1.1 -0.75 -0.95 -0.8 M-1.4 -7.1 L-1.6 -6.65 -1.55 -6.4 -1.4 -6.65 -1.4 -7.1 M3.55 3.15 L4.4 3.4 4.7 3.35 3.55 3.15 M22.35 -0.85 L21.2 -1.05 21.2 -1.0 21.35 -0.8 22.35 -0.8 22.35 -0.85" fill="#ffffff" fill-rule="evenodd" stroke="none"/>
    <path d="M23.45 -4.1 L23.75 -3.25 Q23.7 -2.75 23.25 -2.35 21.8 -1.05 12.45 1.35 11.7 2.0 14.55 6.35 17.4 10.65 16.4 11.6 14.95 12.9 10.4 10.0 8.1 8.5 3.95 5.05 L3.85 4.85 3.4 5.05 Q3.15 5.25 3.05 5.8 L2.75 6.5 2.35 6.8 1.85 10.2 Q0.8 16.9 -1.05 18.6 -1.8 19.3 -2.45 18.85 L-3.0 18.25 Q-3.25 17.95 -2.95 12.9 -2.7 7.75 -2.25 7.35 L-1.6 6.9 -1.65 6.85 Q-2.0 3.7 -2.25 3.1 L-2.85 1.7 -3.2 -0.1 Q-3.2 -1.2 -2.8 -1.95 L-8.3 -7.2 Q-10.1 -9.15 -10.35 -10.85 -10.7 -13.05 -6.35 -10.75 L0.15 -5.75 -0.35 -13.05 Q-0.5 -18.7 0.25 -19.4 1.3 -20.4 2.2 -19.15 3.1 -18.15 3.95 -13.0 4.75 -7.85 6.55 -5.9 7.65 -4.65 15.2 -4.85 22.7 -4.95 23.45 -4.1 M-3.6 -5.5 L-2.5 -4.55 -3.25 -5.3 -3.6 -5.5 M-0.95 10.8 L-0.75 10.3 -0.9 10.15 -0.95 10.1 -0.95 10.75 -0.95 10.8" fill="#ffffff" fill-rule="evenodd" stroke="none"/>
  </g>
</svg>
