<?xml version="1.0" encoding="UTF-8" standalone="no"?>
<svg xmlns:ffdec="https://www.free-decompiler.com/flash" xmlns:xlink="http://www.w3.org/1999/xlink" ffdec:objectType="shape" height="38.25px" width="48.25px" xmlns="http://www.w3.org/2000/svg">
  <g transform="matrix(1.0, 0.0, 0.0, 1.0, 10.2, 19.1)">
    <path d="M8.6 -14.1 Q8.6 -13.1 8.0 -11.95 7.2 -10.35 5.75 -10.45 4.45 -10.55 4.15 -11.55 L4.15 -12.65 Q4.15 -15.5 6.4 -15.65 8.6 -15.8 8.6 -14.1 M6.65 -7.25 L6.9 -6.75 7.25 -5.75 Q7.3 -4.65 5.75 -4.15 L5.65 -4.1 Q6.6 -4.0 7.05 -3.3 L8.3 -2.95 7.85 -2.75 6.9 -2.2 9.7 -2.6 10.3 -2.6 13.5 -3.85 14.25 -4.1 14.95 -3.9 15.25 -3.75 Q16.25 -3.35 16.75 -2.55 17.3 -2.15 17.1 -1.65 17.05 -0.8 14.7 -0.2 12.8 0.3 11.4 -0.15 10.3 0.75 8.45 0.75 L7.2 0.65 7.35 0.95 7.6 1.4 7.65 1.55 Q8.7 2.0 8.7 2.75 L8.25 3.9 Q9.8 2.65 10.8 3.7 L11.4 4.65 11.25 4.8 Q10.65 5.55 9.25 5.65 7.55 5.75 6.9 4.8 L6.9 4.9 Q6.9 5.9 6.35 7.0 L5.75 7.9 6.4 9.0 6.9 10.45 Q6.95 12.2 4.75 13.2 2.85 14.15 2.2 12.6 1.25 10.35 2.85 8.55 L2.1 8.95 -0.4 9.0 -1.35 7.8 -1.7 6.65 -1.55 6.55 -1.2 5.1 Q-0.75 4.6 -0.05 4.35 L1.45 4.1 1.15 3.45 1.0 3.05 -0.15 2.95 -0.3 3.35 -1.2 3.2 -1.8 2.75 Q-1.8 2.65 -2.0 2.65 L-2.0 2.55 -2.0 2.4 -1.95 2.4 -1.8 2.45 -1.9 2.4 -2.2 0.2 -2.05 0.1 Q1.25 -0.9 1.25 1.7 L1.25 2.3 1.55 2.15 2.35 1.45 Q2.25 1.35 2.65 1.25 L1.5 -1.25 1.25 -1.3 1.35 -1.35 Q3.85 -1.4 5.4 -0.7 L5.4 -1.3 5.45 -1.65 5.4 -1.65 4.2 -1.45 3.0 -1.55 2.7 -1.35 2.8 -2.0 2.7 -2.0 2.7 -2.1 2.85 -2.2 Q3.25 -3.75 4.55 -4.0 3.45 -4.25 2.4 -5.5 L1.7 -6.3 1.55 -6.25 1.6 -6.45 Q1.0 -7.25 0.7 -8.0 0.55 -8.35 0.55 -8.65 L0.75 -8.8 0.35 -9.0 Q-0.05 -9.5 -0.1 -9.85 -0.4 -11.35 1.2 -11.35 2.7 -11.55 2.9 -10.15 L2.85 -9.55 2.9 -9.55 3.85 -9.3 Q4.3 -9.7 4.95 -9.75 6.75 -9.9 6.75 -8.1 L6.65 -7.25 M7.35 -9.7 Q7.35 -11.95 9.7 -12.5 12.0 -13.0 12.0 -11.0 12.0 -10.25 11.2 -9.15 10.2 -7.75 9.0 -7.85 7.75 -7.95 7.45 -8.8 7.25 -9.3 7.35 -9.7 M0.2 -5.9 Q0.6 -5.5 0.7 -4.75 L0.8 -4.05 0.75 -3.75 0.4 -2.4 Q-0.15 -1.35 -1.2 -1.3 L-1.0 -1.5 -0.9 -2.4 -1.4 -2.25 -1.75 -2.2 -2.1 -2.35 -2.2 -2.6 -2.85 -1.85 Q-3.15 -2.65 -3.8 -3.15 -4.05 -3.5 -4.6 -3.65 L-4.75 -5.05 Q-4.15 -5.75 -2.65 -5.75 L-1.8 -5.7 -1.8 -6.0 -1.1 -7.1 Q-0.3 -6.65 0.2 -5.7 L0.2 -5.9 M28.85 2.85 Q28.6 3.65 26.1 4.4 L25.35 4.6 Q22.45 5.4 19.4 4.2 L19.45 4.95 Q19.45 5.35 19.05 5.75 16.55 6.25 16.55 5.2 12.8 6.35 11.65 4.25 11.95 2.8 15.55 2.75 L16.4 2.75 15.65 2.0 Q14.25 -0.15 20.65 -0.2 27.2 -0.15 28.55 2.05 29.1 2.35 28.85 2.85 M31.65 -2.0 Q36.1 -3.2 37.75 -0.6 L38.05 0.25 Q38.0 1.15 35.55 1.75 33.4 2.35 31.6 1.75 30.15 1.25 29.55 0.3 29.15 -0.1 29.25 -0.55 29.25 -1.4 31.65 -2.0 M27.9 -3.45 L28.3 -2.45 Q28.3 -1.45 25.7 -0.8 L21.8 -1.0 Q20.4 -1.6 19.85 -2.55 18.75 -4.15 22.6 -4.95 26.5 -5.65 27.9 -3.45 M14.65 9.2 Q14.65 8.35 15.35 8.3 16.05 8.25 16.25 9.1 L16.15 9.8 Q16.1 10.05 15.5 10.1 14.9 10.15 14.7 9.65 L14.65 9.2 M13.15 9.9 Q12.9 10.8 12.0 10.85 10.65 10.95 9.95 9.75 9.5 8.95 9.5 8.25 9.5 6.65 11.4 6.75 13.25 6.85 13.25 8.75 L13.15 9.9 M6.6 3.7 L3.55 3.2 4.4 3.4 4.15 3.75 Q3.5 4.75 2.8 4.85 L3.05 5.25 Q3.55 4.2 4.85 3.8 6.15 3.4 6.65 4.0 L6.6 3.85 6.6 3.7 M-4.2 -11.2 Q-1.25 -11.0 -1.0 -8.95 L-0.95 -7.9 Q-1.45 -6.9 -3.5 -6.8 -5.05 -6.6 -5.95 -7.8 L-6.25 -8.0 -6.5 -8.4 -6.85 -9.55 Q-7.1 -11.45 -4.2 -11.2 M-3.8 -13.1 Q-4.65 -14.15 -4.75 -15.05 -5.1 -16.95 -2.6 -16.2 0.0 -15.65 0.25 -13.6 0.45 -12.15 -1.3 -12.05 -2.65 -11.9 -3.8 -13.1 M3.2 14.7 Q4.65 14.15 5.05 15.1 L4.95 15.7 Q4.8 16.5 4.0 16.85 2.8 17.4 2.35 16.35 1.85 15.15 3.2 14.7 M1.05 12.75 Q1.6 13.7 0.45 14.25 L-0.7 14.15 Q-1.5 13.85 -1.7 13.4 -2.45 11.65 -1.15 11.2 0.2 10.65 1.05 12.75 M3.7 7.5 L3.4 8.0 3.8 7.75 3.8 7.65 3.7 7.5 M-3.95 9.05 Q-3.8 8.3 -3.05 7.9 L-2.85 8.45 Q-2.9 9.25 -3.65 9.8 L-3.95 9.05" fill="#ffffff" fill-rule="evenodd" stroke="none"/>
    <path d="M2.65 -12.55 L3.45 -11.0 Q3.65 -9.8 2.9 -9.1 2.1 -8.4 1.3 -8.8 L0.7 -9.45 Q-0.8 -11.05 0.3 -12.45 1.45 -13.9 2.65 -12.55 M0.4 -13.55 Q-0.55 -12.65 -1.5 -13.2 L-2.25 -14.0 Q-4.15 -16.1 -2.65 -17.9 -1.25 -19.55 -0.1 -18.3 L0.95 -16.3 Q1.45 -14.55 0.4 -13.55 M4.3 -18.5 Q4.8 -17.95 5.0 -16.6 5.25 -14.85 4.4 -14.05 3.45 -13.2 2.65 -13.6 2.2 -13.8 1.95 -14.25 0.45 -15.9 1.7 -17.95 2.95 -19.95 4.3 -18.5 M8.35 -6.55 Q8.9 -4.9 7.75 -3.85 6.65 -2.85 5.75 -3.3 L4.9 -4.05 Q2.4 -6.8 4.5 -8.75 5.85 -10.0 7.2 -8.55 8.0 -7.65 8.35 -6.55 M2.1 -3.8 Q2.5 -2.5 1.55 -1.6 0.3 -0.4 -0.65 -0.85 -1.15 -1.05 -1.45 -1.55 -3.5 -3.8 -1.95 -5.4 -0.4 -7.0 1.15 -5.3 L2.1 -3.8 M6.6 -2.45 Q8.3 -3.45 9.2 -2.45 9.7 -1.95 9.85 -0.9 10.05 0.25 9.5 0.8 L7.3 0.75 Q6.65 0.4 6.1 -0.15 4.85 -1.5 6.6 -2.45 M11.95 -2.3 L11.8 -2.35 Q10.6 -3.7 12.45 -5.45 L15.8 -5.55 Q16.15 -5.2 16.15 -4.55 16.15 -3.65 15.1 -2.7 13.85 -1.55 12.75 -1.9 L12.8 -1.8 Q13.45 -1.05 13.8 0.1 14.2 1.6 13.25 2.5 12.4 3.25 11.5 2.8 L10.75 2.1 Q9.25 0.5 10.45 -1.3 11.2 -2.4 11.95 -2.3 M17.55 -3.2 Q19.05 -4.3 20.35 -2.9 L21.1 -2.0 Q21.45 -1.2 20.8 -0.55 19.8 0.35 18.45 -0.15 17.55 -0.45 17.05 -1.0 16.0 -2.15 17.55 -3.2 M21.7 -4.55 Q22.2 -5.0 22.9 -4.55 L23.35 -3.95 Q23.45 -3.7 23.0 -3.35 22.55 -2.95 22.15 -3.15 L21.75 -3.45 Q21.2 -4.05 21.7 -4.55 M11.4 5.0 Q11.75 6.2 10.85 7.0 L10.35 7.4 Q12.2 7.0 13.85 8.85 15.05 10.1 13.85 11.2 12.5 12.45 11.05 11.55 L9.95 10.45 Q7.95 8.3 9.7 7.6 L8.85 7.3 8.05 6.6 Q6.1 4.5 7.4 3.0 8.75 1.6 10.6 3.65 L11.4 5.0 M15.7 8.2 Q14.95 8.9 14.25 7.95 12.65 6.25 13.4 5.45 14.1 4.65 15.45 6.1 L15.8 7.25 15.7 8.2 M16.95 10.75 Q17.8 11.6 17.1 12.3 16.6 12.75 15.9 12.5 L15.3 12.3 Q14.65 11.55 15.45 10.7 L16.95 10.75 M2.35 0.25 Q3.25 -1.95 5.0 -0.05 7.3 2.45 5.4 4.2 4.55 5.0 3.75 4.75 L3.15 4.3 Q1.45 2.4 2.35 0.25 M3.7 11.3 Q4.35 13.7 3.1 14.85 1.85 16.05 1.0 15.7 L0.35 15.15 Q-1.25 13.45 -0.1 10.25 1.05 7.1 2.65 8.85 3.3 9.55 3.7 11.3 M0.95 7.35 Q0.0 8.2 -0.7 7.8 L-1.4 7.2 Q-2.75 5.7 -1.95 3.75 -1.2 1.75 0.05 3.1 2.55 5.85 0.95 7.35 M-2.25 -6.5 Q-3.45 -5.4 -4.4 -5.75 L-5.25 -6.45 Q-6.65 -7.95 -5.3 -9.85 -3.95 -11.65 -2.65 -10.25 L-1.75 -8.7 Q-1.35 -7.35 -2.25 -6.5 M-6.35 -6.55 Q-6.05 -6.2 -6.05 -5.7 -6.0 -5.1 -6.4 -4.7 L-7.65 -4.55 -8.15 -4.95 Q-9.1 -5.95 -8.2 -6.75 -7.3 -7.55 -6.35 -6.55 M-7.4 -8.6 L-9.35 -8.65 Q-10.7 -10.2 -9.9 -12.1 -9.15 -14.0 -7.85 -12.6 -7.25 -11.95 -6.95 -10.8 -6.6 -9.3 -7.4 -8.6 M-2.35 -0.3 Q-1.35 1.8 -2.4 2.75 -3.35 3.65 -4.25 3.1 L-5.0 2.35 Q-6.65 0.55 -6.0 -1.95 -5.4 -4.35 -3.95 -2.8 -3.0 -1.8 -2.35 -0.3 M-1.0 10.45 Q-0.7 11.75 -1.45 12.45 -2.5 13.4 -3.35 12.9 L-4.15 12.2 Q-5.75 10.45 -4.4 8.9 -3.15 7.35 -1.95 8.65 -1.25 9.45 -1.0 10.45 M-2.8 19.0 L-3.45 18.4 Q-5.35 16.3 -3.6 14.7 -2.65 13.8 -1.9 14.25 L-1.3 14.85 Q-0.55 15.6 -0.45 16.55 -0.2 17.75 -1.1 18.55 -2.05 19.4 -2.8 19.0" fill="#ffffff" fill-rule="evenodd" stroke="none"/>
  </g>
</svg>
