<?xml version="1.0" encoding="UTF-8" standalone="no"?>
<svg xmlns:ffdec="https://www.free-decompiler.com/flash" xmlns:xlink="http://www.w3.org/1999/xlink" ffdec:objectType="shape" height="39.35px" width="52.05px" xmlns="http://www.w3.org/2000/svg">
  <g transform="matrix(1.0, 0.0, 0.0, 1.0, 12.35, 20.4)">
    <path d="M1.8 -16.0 Q2.15 -15.0 0.5 -14.85 L-0.65 -15.05 -1.2 -15.85 Q-1.35 -16.9 0.1 -17.05 1.65 -17.1 1.8 -16.0 M2.85 -14.45 Q2.85 -15.8 4.25 -15.75 5.6 -15.7 5.6 -14.3 5.6 -13.9 5.25 -13.45 4.85 -12.9 4.25 -12.95 3.35 -13.0 3.0 -13.75 L2.85 -14.45 M8.7 -16.25 Q9.9 -16.15 9.9 -15.0 L9.6 -14.15 Q9.25 -13.8 8.75 -13.8 7.9 -13.9 7.6 -14.45 L7.5 -15.1 Q7.5 -16.25 8.7 -16.25 M10.0 -11.0 Q10.0 -12.4 11.5 -12.2 13.0 -12.05 13.0 -10.65 13.0 -10.1 12.55 -9.7 12.05 -9.35 11.5 -9.35 10.45 -9.45 10.1 -10.3 L10.0 -11.0 M5.5 -9.45 L4.35 -9.5 4.5 -8.9 Q4.5 -7.7 3.25 -7.75 L2.5 -7.0 3.2 -6.9 3.0 -6.6 Q2.7 -6.25 2.25 -6.6 L1.0 -6.05 0.45 -5.7 Q0.4 -6.45 1.1 -6.75 L0.4 -7.0 0.2 -6.55 0.2 -7.05 0.25 -7.1 -0.3 -7.65 -0.35 -7.9 0.1 -8.35 1.2 -9.15 Q1.7 -9.0 1.9 -9.3 L1.7 -9.5 Q1.3 -9.85 1.25 -10.25 1.15 -11.25 2.5 -11.35 L3.35 -11.25 Q3.5 -11.9 4.35 -12.2 5.3 -12.5 5.9 -11.9 7.1 -11.75 7.1 -10.6 7.1 -10.15 6.65 -9.8 6.25 -9.5 5.75 -9.55 L5.5 -9.45 M7.3 -6.6 L7.3 -5.95 Q7.15 -5.15 6.15 -4.8 4.5 -4.3 4.0 -5.5 3.65 -6.35 4.5 -6.9 L4.5 -7.1 Q4.5 -8.25 5.7 -8.2 6.8 -8.1 6.9 -7.1 L7.3 -6.6 M9.55 -8.95 Q10.85 -8.85 10.85 -7.65 L10.8 -7.35 11.3 -6.65 11.5 -5.8 Q11.45 -5.15 10.35 -4.75 L9.7 -4.6 9.55 -4.35 8.35 -4.8 8.5 -4.9 8.1 -5.45 Q7.7 -6.4 8.5 -7.0 L8.35 -7.3 8.25 -7.85 Q8.25 -9.05 9.55 -8.95 M0.55 -10.1 L0.5 -9.35 Q0.15 -8.65 -0.9 -8.5 -1.9 -8.5 -2.45 -9.05 -2.95 -9.4 -3.0 -9.85 -3.1 -10.8 -1.4 -11.2 0.3 -11.6 0.55 -10.1 M1.6 -1.55 L1.65 -1.55 Q1.9 -2.0 2.65 -1.9 L3.2 -1.75 5.5 -2.0 Q5.05 -2.1 4.9 -2.5 4.6 -3.25 5.65 -3.65 5.7 -4.9 6.95 -4.75 8.25 -4.65 8.25 -3.25 L8.2 -2.9 7.85 -2.75 6.9 -2.2 7.1 -1.5 6.9 -1.0 7.05 -1.05 Q9.3 -1.9 10.15 -0.55 L10.4 0.1 Q10.3 0.8 8.6 1.25 L7.75 1.45 7.35 2.25 Q6.8 2.9 5.55 2.9 4.15 2.9 3.6 2.25 3.2 1.85 3.2 1.45 3.2 0.3 5.3 0.25 5.3 -0.2 6.1 -0.6 L5.3 -0.5 4.85 -0.5 Q4.45 0.05 3.15 0.35 L2.25 0.5 1.55 -1.15 1.3 -1.1 -0.4 -0.95 -0.7 -1.1 0.05 -1.5 1.6 -1.55 M1.3 -1.75 L2.5 -2.0 3.0 -2.3 3.5 -2.3 3.6 -2.2 1.3 -1.75 M13.7 -3.55 Q13.05 -3.15 12.2 -3.15 L11.8 -3.15 13.5 -3.85 14.05 -4.05 13.7 -3.55 M13.2 -2.4 Q13.5 -2.85 14.75 -3.3 17.05 -4.2 17.9 -2.85 L18.05 -2.2 Q17.9 -1.45 16.35 -1.05 L15.15 -0.85 Q15.1 -0.4 14.55 0.0 13.85 0.4 13.0 0.4 10.8 0.4 10.65 -1.0 10.65 -2.45 12.9 -2.4 L13.2 -2.4 M-7.15 -9.5 Q-7.65 -9.9 -7.7 -10.45 -7.95 -12.05 -6.3 -12.2 -4.55 -12.4 -4.35 -10.75 -4.05 -9.25 -5.75 -9.1 -6.55 -9.0 -7.15 -9.5 M-3.95 -7.9 Q-2.55 -8.05 -2.35 -6.65 L-2.3 -6.0 Q-2.55 -5.3 -3.6 -5.15 -4.25 -5.15 -4.65 -5.6 L-4.85 -5.7 -4.95 -6.2 -5.3 -6.55 Q-5.4 -7.8 -3.95 -7.9 M-4.65 -13.4 Q-5.2 -13.75 -5.2 -14.15 -5.45 -15.6 -3.75 -15.65 -1.95 -15.8 -1.8 -14.45 L-1.85 -13.75 Q-2.1 -12.95 -3.1 -12.8 -3.95 -12.85 -4.65 -13.4 M34.65 -2.1 Q33.95 -3.15 36.45 -3.7 38.95 -4.35 39.55 -3.3 39.8 -3.0 39.65 -2.55 39.3 -1.75 37.7 -1.35 L35.55 -1.4 34.65 -2.1 M27.6 -5.95 L27.85 -5.4 Q27.85 -4.65 26.25 -4.25 23.3 -3.45 22.5 -4.6 21.8 -5.75 24.25 -6.5 26.8 -7.25 27.6 -5.95 M23.3 -1.15 Q22.65 -2.15 24.55 -2.65 26.4 -3.1 27.05 -2.1 L27.1 -1.65 Q27.1 -0.85 25.85 -0.55 24.0 -0.05 23.3 -1.15 M-1.25 1.85 L-1.95 2.05 -2.2 0.2 -1.4 -0.45 Q-0.15 -0.2 -0.15 0.75 -0.15 1.35 -1.0 1.75 L-1.25 1.85 M-0.8 2.55 L-0.3 2.6 -0.1 2.5 -0.65 2.55 -0.6 2.5 -0.05 2.5 0.85 2.35 1.15 2.35 1.55 2.15 Q1.65 2.05 1.8 2.0 L1.9 2.2 2.2 2.55 2.65 3.05 0.9 2.9 0.9 3.05 0.6 3.9 0.2 4.25 0.2 3.5 -0.2 3.4 -0.5 3.55 -1.1 3.7 -1.3 3.15 -1.4 3.1 -1.2 2.6 -0.8 2.55 M21.1 0.55 L21.35 1.1 Q21.25 1.85 20.0 2.2 L18.3 2.25 18.0 2.2 18.05 2.75 Q18.05 3.3 17.35 3.8 L15.7 4.25 Q14.6 4.25 14.05 3.9 L13.2 4.2 12.25 4.4 10.45 4.0 10.4 3.9 10.3 3.8 Q9.45 2.55 11.35 2.0 L11.5 1.95 Q12.8 1.65 13.6 1.95 14.15 1.3 15.7 1.35 L16.9 1.5 Q16.75 0.8 18.45 0.3 20.5 -0.4 21.1 0.55 M25.35 1.75 Q28.4 0.8 29.4 2.45 L29.45 3.25 Q29.3 4.1 27.5 4.7 L27.2 4.75 Q24.25 5.5 23.3 4.05 L23.2 3.95 Q22.6 2.65 25.35 1.75 M36.9 1.2 Q36.75 1.9 35.2 2.35 32.5 3.05 31.9 1.95 31.2 0.9 33.55 0.25 35.95 -0.35 36.65 0.7 L36.9 1.2 M-2.2 15.1 Q-2.65 15.1 -2.8 14.7 -3.15 13.85 -2.0 13.35 -0.7 12.8 -0.4 13.5 -0.05 14.35 -1.4 15.0 L-2.2 15.1 M-1.8 11.45 Q-2.05 10.85 -1.4 10.25 L0.55 10.3 0.7 11.05 0.4 11.45 -0.25 11.8 -1.25 11.9 -1.8 11.45 M-3.15 11.0 L-3.6 9.85 Q-3.05 9.9 -2.75 10.6 L-2.65 11.25 Q-2.75 11.8 -3.5 12.3 L-3.6 12.0 -3.15 11.0 M-1.55 8.3 Q-2.0 7.3 -0.6 6.75 0.8 6.15 1.25 7.1 1.8 8.05 0.25 8.8 L-0.9 8.9 -1.55 8.3 M20.3 6.4 L19.4 5.8 18.15 5.55 Q18.6 5.05 19.95 5.05 21.95 5.05 21.95 6.15 L21.95 6.35 20.3 6.4 M11.6 4.7 L12.2 5.25 13.25 5.1 12.95 5.8 Q12.6 6.3 12.0 6.35 11.05 6.4 10.75 5.8 L10.65 5.15 Q10.65 4.75 10.8 4.5 L11.6 4.7 M11.4 8.1 Q11.4 7.05 12.45 6.95 13.5 6.9 13.5 7.95 13.45 9.0 12.5 9.05 11.75 9.1 11.5 8.65 L11.4 8.1 M11.15 11.35 L11.0 10.65 Q11.0 9.4 12.45 9.25 13.9 9.15 13.9 10.4 L13.65 11.4 Q13.3 12.1 12.5 12.15 11.55 12.25 11.15 11.35 M16.75 8.85 Q17.25 9.35 17.35 10.25 L16.75 10.6 Q16.1 10.5 16.1 9.8 16.1 9.15 16.75 8.85 M5.25 3.25 L5.65 3.75 5.7 4.5 Q5.65 5.3 4.7 5.75 L4.2 5.9 4.0 6.15 Q3.6 6.8 3.0 6.85 2.1 6.9 1.75 6.3 L1.6 5.6 Q1.6 4.4 2.75 4.15 3.0 3.7 3.65 3.35 L3.9 3.3 4.4 3.4 5.25 3.25 M6.35 5.6 L7.25 5.3 Q8.6 5.2 8.6 6.5 L8.25 7.35 Q7.85 8.0 7.25 8.05 L6.55 8.5 5.8 8.7 6.0 9.55 6.0 9.65 6.8 9.1 7.85 8.9 Q7.95 8.0 9.0 7.8 10.1 7.7 10.1 8.95 L9.75 9.75 Q9.4 10.15 9.0 10.15 9.15 11.15 7.9 11.75 L6.5 11.85 5.85 11.15 5.7 10.45 Q5.3 10.85 4.75 10.85 L4.4 10.9 4.4 10.6 3.8 9.85 3.8 8.6 Q4.05 8.3 4.5 8.25 L4.3 8.0 Q3.8 6.9 5.35 5.95 L6.35 5.6 M5.9 3.3 L7.05 3.6 6.95 3.6 6.65 3.55 5.9 3.3 M8.15 4.0 L7.35 3.85 9.45 3.9 8.15 4.0 M3.85 14.8 L2.4 14.95 Q1.65 14.75 1.45 14.25 0.95 13.0 2.75 12.15 4.5 11.3 5.05 12.55 L5.1 13.2 Q5.0 14.25 3.85 14.8 M2.35 18.15 Q2.05 17.35 2.85 16.8 L4.75 16.9 4.9 17.65 4.55 18.1 3.95 18.5 3.05 18.6 2.35 18.15" fill="#ffffff" fill-rule="evenodd" stroke="none"/>
    <path d="M0.55 -19.1 L0.15 -18.25 Q-0.45 -17.65 -1.05 -17.85 L-1.55 -18.3 Q-2.35 -19.15 -1.5 -20.0 L0.15 -19.95 0.55 -19.1 M3.85 -13.5 Q3.05 -14.4 4.0 -15.25 4.95 -16.15 5.75 -15.25 L6.0 -14.45 Q6.05 -13.85 5.6 -13.45 5.0 -12.85 4.3 -13.15 L3.85 -13.5 M1.4 -13.75 L1.0 -12.9 Q0.4 -12.35 -0.35 -12.65 L-0.7 -12.95 Q-1.5 -13.8 -0.55 -14.7 L1.2 -14.65 Q1.55 -14.3 1.4 -13.75 M2.9 -17.05 Q1.95 -18.05 3.1 -19.1 L5.25 -19.0 Q5.6 -18.6 5.55 -18.0 5.5 -17.35 5.05 -17.0 4.3 -16.3 3.5 -16.65 L2.9 -17.05 M10.1 -7.05 Q10.05 -6.45 9.65 -6.1 8.6 -5.15 7.6 -6.1 6.65 -7.15 7.7 -8.1 8.8 -9.05 9.7 -8.1 10.1 -7.65 10.1 -7.05 M6.95 -10.1 Q7.3 -9.8 7.3 -9.3 7.25 -8.7 6.85 -8.35 6.15 -7.7 5.55 -8.0 L4.95 -8.45 Q4.05 -9.45 5.1 -10.25 6.05 -11.15 6.95 -10.1 M0.45 -9.75 Q-0.15 -9.2 -0.8 -9.55 L-1.2 -9.9 Q-1.95 -10.75 -1.0 -11.5 -0.05 -12.25 0.6 -11.5 1.4 -10.6 0.45 -9.75 M3.55 -11.85 L3.85 -11.0 Q3.9 -10.5 3.55 -10.15 L1.8 -10.2 Q1.05 -11.05 1.85 -11.85 2.75 -12.7 3.55 -11.85 M4.0 -5.05 L5.65 -4.95 Q6.0 -4.55 5.75 -4.0 L5.45 -3.4 Q4.6 -2.65 3.9 -3.5 3.1 -4.35 4.0 -5.05 M3.7 -0.15 Q4.1 0.3 4.0 0.95 L3.45 1.95 Q2.8 2.5 2.15 2.2 L1.6 1.8 Q0.7 0.85 1.75 -0.15 2.8 -1.1 3.7 -0.15 M5.75 -1.1 Q4.95 -1.95 6.0 -2.95 L7.85 -3.05 8.25 -2.3 Q8.45 -1.55 7.85 -1.0 7.2 -0.4 6.45 -0.7 L5.75 -1.1 M13.6 -6.55 L14.0 -5.45 Q13.9 -4.8 13.5 -4.4 12.75 -3.7 11.9 -4.15 L11.35 -4.55 Q10.4 -5.6 11.55 -6.55 12.65 -7.6 13.6 -6.55 M17.75 -3.9 Q17.05 -3.3 16.35 -3.55 L15.9 -3.95 Q15.1 -4.8 16.05 -5.7 17.0 -6.55 17.75 -5.7 L18.1 -4.9 Q18.2 -4.35 17.75 -3.9 M20.0 -3.7 Q20.65 -2.85 19.95 -2.2 19.4 -1.7 18.9 -1.95 L18.45 -2.25 Q17.75 -3.0 18.5 -3.75 L20.0 -3.7 M15.5 -0.85 Q15.6 -0.1 15.15 0.3 14.5 0.9 13.85 0.7 L13.2 0.25 Q12.3 -0.7 13.3 -1.7 L15.2 -1.65 15.5 -0.85 M20.05 -2.05 L22.0 -2.1 22.45 -1.25 Q22.65 -0.5 22.05 0.05 21.35 0.7 20.45 0.3 L19.85 -0.15 Q19.0 -1.05 20.05 -2.05 M18.0 -0.85 L18.3 0.0 18.0 0.75 Q17.35 1.35 16.7 1.0 L16.35 0.7 Q15.6 -0.1 16.4 -0.95 L18.0 -0.85 M23.2 -5.05 Q23.9 -4.9 24.55 -4.35 L24.35 -3.7 Q23.75 -3.35 23.3 -3.9 22.85 -4.4 23.2 -5.05 M16.75 5.85 L16.95 6.55 16.7 7.1 15.2 7.2 Q14.7 6.65 15.4 5.85 16.1 5.15 16.75 5.85 M15.55 3.0 L15.1 3.95 Q14.4 4.55 13.8 4.3 L13.25 3.9 Q12.3 2.9 13.3 2.0 14.25 1.15 15.2 2.2 15.55 2.55 15.55 3.0 M11.35 0.95 Q11.45 1.65 11.05 2.05 10.35 2.65 9.65 2.45 L9.1 2.0 Q8.2 1.05 9.2 0.05 L11.05 0.1 Q11.3 0.4 11.35 0.95 M11.45 4.6 Q11.55 5.1 11.1 5.5 10.15 6.35 9.5 5.4 8.75 4.6 9.55 3.8 L11.1 3.75 Q11.45 4.15 11.45 4.6 M14.05 5.75 Q14.1 6.25 13.8 6.55 L13.3 6.8 12.9 6.9 12.3 6.4 Q11.95 5.15 12.7 4.85 13.35 4.55 13.8 5.05 L14.05 5.75 M12.3 11.9 Q12.4 12.55 11.9 12.95 11.0 13.8 10.05 12.75 9.05 11.7 9.9 10.8 10.8 9.95 11.9 11.1 L12.3 11.9 M13.35 9.05 Q14.45 8.0 15.4 9.05 15.8 9.45 15.85 10.15 15.8 10.8 15.35 11.2 14.65 11.85 13.75 11.45 L13.2 11.05 Q12.25 10.05 13.35 9.05 M18.5 11.7 Q18.8 12.0 18.75 12.4 L18.45 13.1 18.0 13.4 17.55 13.4 16.95 12.95 Q16.55 11.8 17.25 11.4 17.95 11.05 18.5 11.7 M7.5 5.6 L7.95 6.5 Q8.0 7.1 7.6 7.5 7.0 8.0 6.25 7.75 L5.65 7.3 Q4.75 6.35 5.75 5.55 L7.5 5.6 M7.15 1.45 Q7.2 1.95 6.85 2.3 L5.2 2.25 Q4.45 1.4 5.3 0.6 6.05 -0.25 6.85 0.6 7.2 1.0 7.15 1.45 M1.6 3.15 L3.35 3.2 3.7 4.05 Q3.65 4.65 3.25 5.05 2.55 5.7 1.95 5.35 L1.45 4.95 Q0.45 3.85 1.6 3.15 M3.4 8.55 Q2.5 7.55 3.35 6.75 4.15 6.05 5.05 7.1 5.45 7.5 5.3 8.05 L4.9 8.7 3.75 8.85 3.4 8.55 M2.05 11.05 L0.85 11.2 0.45 10.85 Q-0.25 10.05 0.65 9.35 1.5 8.7 2.1 9.35 2.4 9.7 2.35 10.25 L2.05 11.05 M9.55 8.25 L9.85 9.15 Q9.95 9.9 9.45 10.3 8.85 10.9 8.15 10.6 L7.6 10.2 Q6.45 9.0 7.6 8.15 L9.55 8.25 M0.45 6.75 Q0.4 7.3 -0.05 7.7 -0.65 8.3 -1.35 8.0 L-1.85 7.6 Q-2.8 6.55 -1.7 5.85 L0.1 5.9 Q0.45 6.25 0.45 6.75 M2.9 15.9 Q2.1 16.6 1.2 16.2 L0.6 15.75 Q-0.6 14.5 0.7 13.5 L2.95 13.6 Q4.05 14.8 2.9 15.9 M-4.35 -14.4 Q-5.25 -15.4 -4.2 -16.4 -3.25 -17.35 -2.3 -16.3 L-2.0 -15.4 Q-1.9 -14.75 -2.35 -14.35 -3.0 -13.75 -3.7 -14.0 L-4.35 -14.4 M-11.9 -10.95 L-10.3 -11.0 Q-10.0 -10.65 -10.05 -10.15 -10.1 -9.7 -10.5 -9.35 L-12.0 -9.4 Q-12.75 -10.15 -11.9 -10.95 M-2.9 -11.4 Q-2.5 -10.95 -2.5 -10.45 -2.45 -9.8 -2.9 -9.4 -3.9 -8.5 -4.85 -9.6 -5.95 -10.75 -4.95 -11.7 -4.0 -12.55 -2.9 -11.4 M-4.5 -7.4 Q-4.4 -6.65 -4.95 -6.1 -5.6 -5.55 -6.3 -5.85 L-6.85 -6.3 Q-7.85 -7.35 -6.75 -8.2 L-4.85 -8.25 Q-4.55 -7.95 -4.5 -7.4 M-0.75 -6.5 Q-0.7 -5.9 -1.1 -5.55 -1.65 -5.0 -2.3 -5.4 L-2.8 -5.75 Q-3.7 -6.8 -2.9 -7.55 -2.05 -8.35 -1.15 -7.3 -0.8 -7.0 -0.75 -6.5 M-6.7 -11.45 Q-6.65 -10.65 -7.1 -10.25 -7.7 -9.7 -8.4 -10.05 L-9.0 -10.45 Q-9.9 -11.45 -8.9 -12.4 L-7.05 -12.35 Q-6.8 -12.1 -6.7 -11.45 M-7.3 -4.25 Q-7.85 -3.75 -8.45 -4.15 L-8.9 -4.5 Q-9.6 -5.25 -8.85 -5.95 -8.05 -6.7 -7.35 -5.95 L-7.05 -5.15 Q-6.95 -4.6 -7.3 -4.25 M-8.7 -2.15 Q-7.85 -2.95 -6.75 -1.8 -6.5 -1.5 -6.4 -1.0 -6.4 -0.35 -6.8 0.0 -7.4 0.55 -8.05 0.2 L-8.5 -0.15 Q-9.6 -1.3 -8.7 -2.15 M-5.3 -3.45 L-3.35 -3.4 Q-3.1 -3.15 -3.0 -2.5 -2.9 -1.7 -3.45 -1.2 -4.15 -0.55 -4.8 -0.85 L-5.4 -1.4 Q-6.4 -2.5 -5.3 -3.45 M-0.7 2.9 Q-0.15 3.5 -0.95 4.3 L-2.25 4.4 Q-2.9 3.75 -2.1 3.0 L-0.7 2.9 M-4.45 3.0 L-5.0 2.75 Q-5.8 1.85 -4.75 0.9 -3.75 0.0 -2.95 0.9 -2.1 1.8 -3.1 2.7 -3.7 3.25 -4.45 3.0 M-4.1 5.45 L-4.5 5.8 Q-5.15 6.45 -5.75 6.15 L-6.4 5.6 Q-7.45 4.45 -6.25 3.65 -5.15 2.9 -4.3 3.8 L-3.95 4.4 -3.8 4.35 -3.8 5.45 -4.1 5.45 M-6.05 8.9 L-4.15 9.0 Q-3.3 9.9 -4.5 11.0 -5.1 11.55 -5.8 11.25 L-6.2 10.85 Q-7.15 9.8 -6.05 8.9 M-1.4 11.05 Q-0.6 11.9 -1.3 12.6 L-2.45 12.75 -2.85 12.4 Q-3.55 11.6 -2.8 10.95 -2.1 10.25 -1.4 11.05 M-0.25 16.75 Q0.5 17.55 -0.6 18.55 -1.2 19.15 -1.8 18.85 L-2.2 18.55 Q-3.0 17.7 -2.05 16.8 L-0.25 16.75 M-3.8 16.9 Q-3.7 17.6 -4.15 18.0 -4.75 18.6 -5.4 18.4 L-6.05 17.95 Q-6.8 17.15 -5.85 16.25 -4.95 15.3 -4.15 16.15 -3.9 16.45 -3.8 16.9" fill="#ffffff" fill-rule="evenodd" stroke="none"/>
  </g>
</svg>
