<?xml version="1.0" encoding="UTF-8" standalone="no"?>
<svg xmlns:ffdec="https://www.free-decompiler.com/flash" xmlns:xlink="http://www.w3.org/1999/xlink" ffdec:objectType="shape" height="41.45px" width="53.75px" xmlns="http://www.w3.org/2000/svg">
  <g transform="matrix(1.0, 0.0, 0.0, 1.0, 13.15, 21.25)">
    <path d="M10.5 -15.7 L10.4 -15.0 9.75 -14.9 Q8.9 -14.95 8.9 -15.85 8.9 -16.2 9.2 -16.4 L10.35 -16.35 10.5 -15.7 M3.9 -16.5 Q5.0 -16.55 5.0 -15.35 5.0 -14.1 3.75 -14.2 L2.95 -14.45 2.65 -14.4 Q2.15 -14.35 1.6 -14.8 1.1 -15.15 1.1 -15.45 0.9 -16.55 2.25 -16.7 3.0 -16.75 3.4 -16.4 L3.9 -16.5 M4.35 -13.8 L4.5 -13.15 4.4 -12.45 3.75 -12.35 Q2.9 -12.4 2.9 -13.3 2.9 -13.65 3.2 -13.8 3.55 -14.1 4.35 -13.8 M8.75 -13.45 L8.25 -13.0 7.65 -13.75 Q7.65 -14.2 7.8 -14.3 L8.25 -14.35 Q8.75 -14.1 8.75 -13.45 M5.6 -10.0 Q5.45 -9.55 4.65 -9.3 3.7 -9.0 3.35 -9.55 L2.85 -9.55 2.6 -9.55 2.55 -9.35 2.55 -9.4 1.9 -9.05 1.25 -9.2 0.9 -9.7 1.25 -10.25 2.05 -10.25 2.55 -9.9 3.2 -10.2 3.2 -10.9 3.4 -10.85 3.55 -10.75 3.9 -11.05 4.9 -11.2 Q5.0 -12.15 6.05 -12.05 7.15 -12.0 7.15 -10.95 7.05 -9.85 6.0 -9.9 L5.6 -10.0 M5.25 -7.55 L4.75 -7.9 Q4.9 -8.6 5.35 -8.55 L5.65 -8.05 Q5.55 -7.6 5.25 -7.55 M5.9 -6.4 L5.85 -6.85 Q5.85 -7.25 6.25 -7.25 L7.0 -7.2 7.1 -6.7 7.0 -6.2 6.5 -6.05 5.9 -6.45 5.9 -6.4 M8.25 -9.0 Q8.25 -10.25 9.5 -9.55 L9.75 -8.9 9.7 -8.45 9.6 -8.5 9.0 -8.3 8.25 -9.0 M9.9 -7.3 Q9.9 -7.65 10.2 -7.8 10.55 -8.1 11.35 -7.8 L11.5 -7.1 11.4 -6.5 Q11.9 -5.75 10.8 -5.35 L10.0 -5.25 9.5 -5.15 9.15 -5.8 Q8.8 -6.6 9.9 -7.2 L9.9 -7.3 M0.9 -7.65 L1.3 -7.8 0.85 -6.8 Q0.2 -6.95 -0.35 -7.25 L0.3 -8.15 Q0.5 -7.65 0.9 -7.65 M4.65 -7.8 L4.5 -7.15 3.45 -6.9 3.4 -7.05 3.4 -7.0 3.4 -7.25 2.75 -7.15 Q1.9 -7.2 1.9 -8.1 1.9 -9.1 3.35 -8.6 L3.5 -7.95 3.45 -7.4 3.45 -7.5 3.9 -7.9 4.65 -7.8 M0.75 -4.05 Q1.5 -4.2 1.8 -3.5 L1.15 -2.6 0.0 -2.65 -0.35 -2.95 Q-0.1 -3.85 0.75 -4.05 M3.8 -4.55 L3.75 -4.6 3.7 -4.8 3.7 -4.85 Q3.3 -5.9 4.4 -6.2 5.65 -6.5 5.95 -5.7 L5.95 -4.95 6.5 -4.8 6.75 -4.1 6.7 -3.65 6.6 -3.75 6.0 -3.5 5.3 -4.15 5.2 -4.15 Q4.25 -3.85 3.8 -4.55 M1.05 -1.5 L1.0 -1.8 Q1.0 -2.75 1.95 -2.65 L2.8 -2.15 2.9 -2.2 2.85 -2.1 3.35 -2.3 Q3.9 -2.5 4.2 -2.3 L2.85 -2.05 2.9 -1.65 2.9 -1.45 2.5 -1.25 2.15 -1.25 1.65 -0.8 1.55 -1.15 1.3 -1.1 1.1 -1.35 0.65 -1.5 1.05 -1.5 M0.4 -1.05 L0.45 -1.0 -0.4 -1.0 -0.9 -1.2 -0.95 -1.35 Q0.1 -1.85 0.4 -1.05 M3.3 -1.75 L7.8 -2.3 8.2 -2.0 Q8.7 -1.15 7.45 -0.6 5.65 -0.55 5.25 -1.25 5.1 -1.45 5.1 -1.6 L4.4 -1.5 3.3 -1.75 M8.25 -3.1 L8.2 -2.9 7.85 -2.75 7.6 -2.55 7.3 -2.7 Q7.15 -2.8 7.15 -3.2 7.15 -3.85 7.25 -3.6 L8.0 -3.55 8.25 -3.1 M13.15 -10.05 Q13.15 -9.8 12.5 -9.3 L11.75 -10.15 Q11.75 -11.2 13.0 -10.75 L13.15 -10.05 M11.0 -11.15 L10.9 -10.45 10.25 -10.35 Q9.4 -10.45 9.4 -11.35 9.4 -12.35 10.85 -11.8 L11.0 -11.15 M13.5 -3.85 L14.05 -4.05 13.9 -3.75 13.35 -3.65 13.15 -3.65 13.5 -3.85 M14.15 -2.15 L15.3 -2.15 Q15.7 -2.4 15.7 -1.75 L15.7 -1.25 14.95 -1.0 Q14.0 -1.1 14.0 -1.75 14.0 -2.4 14.15 -2.15 M18.45 2.35 L18.85 2.8 Q19.0 3.0 18.6 3.2 L18.15 3.45 Q17.35 3.45 17.05 2.95 L17.2 2.75 18.45 2.35 M22.5 0.2 Q23.35 1.05 21.2 1.6 19.85 1.95 19.4 1.15 18.9 0.4 20.3 -0.2 21.9 -0.8 22.5 0.2 M31.3 4.8 L30.9 5.3 29.9 5.35 Q29.4 5.55 29.05 4.95 28.85 4.75 29.2 4.45 L29.95 3.8 30.75 4.0 Q31.45 4.0 31.6 4.25 L31.3 4.8 M33.7 2.15 L33.0 2.7 31.85 2.6 30.5 3.1 30.0 3.2 29.8 3.2 29.8 3.1 Q29.5 2.25 30.1 1.9 L31.65 1.45 32.15 1.9 32.4 1.8 33.25 1.85 33.7 2.15 M38.7 3.15 L38.5 3.3 37.25 3.75 Q35.7 4.15 35.3 3.45 L35.1 2.95 35.25 2.75 38.6 2.65 Q38.85 3.0 38.7 3.15 M40.45 -2.15 L38.65 -1.9 37.95 -2.1 39.15 -3.15 39.9 -3.25 40.4 -2.8 Q40.75 -2.2 40.45 -2.15 M24.55 -0.2 Q24.1 -0.95 25.8 -1.65 27.5 -2.3 28.15 -1.35 L28.6 -0.55 26.9 0.25 25.25 0.1 Q24.55 -0.1 24.55 -0.2 M28.1 -4.7 Q27.55 -5.6 29.05 -6.25 30.6 -6.95 31.35 -5.85 31.85 -4.95 29.9 -4.45 L29.0 -4.25 28.75 -4.3 Q28.5 -4.1 28.1 -4.7 M16.5 -4.55 Q17.8 -5.1 18.55 -4.35 L18.7 -4.1 Q19.7 -3.25 18.0 -2.8 16.1 -2.3 15.65 -3.0 15.4 -3.45 15.55 -3.8 L16.5 -4.55 M16.5 2.5 L15.15 1.65 Q15.15 0.7 17.45 1.0 L17.65 1.65 17.5 2.35 16.5 2.5 M16.5 5.0 Q15.55 5.0 15.25 4.5 L15.15 4.05 Q15.15 3.2 16.25 3.2 17.35 3.2 17.65 4.05 L17.5 4.75 16.5 5.0 M13.45 1.3 L13.5 1.7 13.0 2.3 12.35 2.55 Q11.7 2.75 10.95 2.55 L10.25 2.15 10.15 1.8 Q10.15 1.3 11.4 1.05 L12.1 1.0 Q10.3 0.95 10.45 0.0 10.45 -1.05 12.35 -1.05 14.15 -1.05 14.15 0.0 14.15 0.95 12.6 1.0 13.3 1.05 13.45 1.3 M11.25 5.75 Q11.75 6.0 11.85 6.2 L11.65 6.8 11.25 7.0 Q10.85 6.95 10.65 6.7 L10.6 6.35 Q10.6 5.95 10.85 5.85 L11.25 5.75 M14.15 7.95 L14.25 8.45 Q14.25 9.1 14.1 8.95 L13.5 9.25 12.75 8.6 Q12.75 7.35 14.0 7.8 L14.15 7.95 M10.65 8.7 L10.75 9.2 Q10.75 9.85 10.6 9.7 L10.0 10.0 9.25 9.35 Q9.25 8.15 10.5 8.55 L10.65 8.7 M12.6 11.05 L12.75 11.7 12.65 12.4 11.85 12.6 11.1 12.55 Q10.9 12.5 10.9 11.85 10.9 10.95 12.6 11.05 M17.15 9.25 L17.25 9.75 Q17.25 10.5 16.35 10.55 L15.6 10.45 15.5 9.9 Q15.5 8.8 17.0 9.1 L17.15 9.25 M0.6 6.75 L1.05 7.15 Q1.4 7.95 0.45 8.4 L-0.7 8.65 -1.1 8.1 Q-1.05 7.65 -1.15 7.45 -0.05 6.55 0.6 6.75 M3.8 4.3 Q4.15 4.25 4.3 4.6 L3.95 5.65 3.15 5.8 2.85 5.3 2.5 4.9 Q2.5 3.8 3.75 4.1 L3.8 4.3 M2.6 2.65 L2.75 3.05 0.8 2.85 0.7 3.05 0.15 3.45 0.1 3.5 Q-0.65 3.8 -0.85 3.5 L-1.1 3.2 -1.15 3.15 -1.2 2.95 -0.7 2.55 0.5 2.65 1.1 2.35 1.0 1.9 Q1.0 1.0 2.1 1.05 3.3 1.1 3.45 2.1 L3.15 2.45 2.6 2.65 M5.25 5.8 L5.6 6.15 5.7 6.65 5.55 6.85 5.1 7.15 4.4 7.35 4.05 7.1 Q4.05 6.8 4.75 5.85 L5.25 5.8 M7.75 0.55 L7.8 1.15 7.35 1.35 7.1 1.45 6.9 1.5 Q7.35 1.7 7.35 2.25 L6.9 2.9 5.95 3.15 Q4.4 3.15 4.4 2.3 4.4 1.45 5.65 1.35 L5.4 1.25 6.35 0.2 7.05 0.2 Q7.5 0.2 7.75 0.55 M4.5 10.7 Q4.5 9.6 6.0 9.9 L6.15 10.0 6.25 10.5 Q6.25 11.25 5.35 11.3 L4.6 11.25 4.5 10.7 M3.9 11.5 Q4.2 12.2 4.9 11.75 L4.45 12.75 3.3 12.6 3.9 11.5 M3.8 9.1 L3.8 8.6 Q4.0 7.8 5.0 8.2 L5.15 8.35 5.25 8.85 Q5.25 9.5 5.1 9.35 L4.5 9.65 3.8 9.1 M8.9 7.25 L8.25 7.7 Q7.65 7.75 7.45 7.3 L7.4 7.05 Q7.5 8.15 6.6 8.6 L5.9 8.8 5.55 8.7 5.35 8.15 Q5.15 7.65 5.65 7.25 L5.85 6.95 6.25 6.85 6.35 6.9 Q7.2 6.55 7.4 7.05 L7.35 6.85 Q7.35 5.7 8.25 5.7 9.1 5.7 9.1 6.7 L8.9 7.25 M-5.95 -11.45 Q-5.85 -11.0 -6.0 -11.0 L-5.95 -11.05 -6.65 -10.55 -7.3 -10.7 -7.5 -11.25 Q-7.65 -11.9 -7.45 -11.75 L-6.55 -11.8 Q-6.0 -11.8 -5.95 -11.45 M-4.25 -6.95 Q-2.75 -7.35 -2.65 -6.65 L-3.3 -5.7 -4.1 -5.8 -4.4 -6.35 -4.25 -6.95 M-3.55 -9.2 Q-3.75 -8.5 -4.7 -8.45 -5.05 -8.4 -5.7 -8.7 -6.3 -9.1 -6.35 -9.55 -6.5 -10.3 -5.15 -10.6 -3.8 -10.85 -3.6 -9.8 -3.5 -9.6 -3.55 -9.2 M-1.45 -10.0 L-1.25 -9.4 Q-1.25 -9.1 -1.85 -8.45 L-2.65 -8.65 -2.85 -9.2 -2.7 -9.85 -1.45 -10.0 M-4.1 -13.8 L-2.6 -13.95 -2.3 -13.3 -3.1 -12.6 -3.7 -12.65 -4.05 -12.8 -4.15 -13.15 -4.1 -13.8 M-1.6 -16.25 L-1.2 -16.5 -0.8 -16.4 -0.55 -15.95 -0.65 -15.5 Q-0.85 -15.35 -1.0 -15.35 L-1.65 -15.45 -1.65 -15.4 -1.75 -15.85 -1.6 -16.25 M1.7 18.15 L1.6 17.5 Q3.25 16.35 3.6 17.25 3.7 17.45 2.85 18.45 L2.05 18.65 1.7 18.15 M1.25 15.4 L1.2 14.9 1.3 14.7 3.05 14.65 2.4 15.7 1.65 15.85 Q1.5 16.05 1.25 15.4 M7.3 12.2 L7.0 12.15 6.7 11.8 Q7.05 10.8 7.65 10.45 8.3 10.1 8.6 10.8 9.15 11.45 8.0 12.0 L7.3 12.2 M-1.25 -0.75 L-0.4 -0.65 -0.15 0.0 -0.3 0.6 -1.5 0.75 -2.1 0.7 -2.2 0.2 -1.25 -0.6 -1.25 -0.75 M-3.45 10.35 L-3.6 9.85 -3.4 10.2 -3.45 10.35 M-2.35 14.95 L-1.85 14.0 Q-1.55 14.65 -0.7 14.2 L-1.3 15.2 -2.35 14.95 M-0.25 12.0 L-0.7 12.35 Q-1.35 12.5 -1.55 12.1 L-1.15 11.4 -0.65 11.2 -0.25 11.45 Q-0.1 11.8 -0.25 12.0" fill="#ffffff" fill-rule="evenodd" stroke="none"/>
    <path d="M23.55 3.75 L23.05 3.5 Q22.85 3.55 22.85 2.95 22.85 2.45 24.3 2.25 25.75 2.05 25.75 3.0 25.75 3.6 25.55 3.5 25.35 3.85 24.4 3.85 L23.55 3.75" fill="#ffffff" fill-rule="evenodd" stroke="none"/>
    <path d="M5.75 -18.7 L5.8 -17.65 4.7 -17.75 Q4.0 -18.5 5.15 -19.1 L5.75 -18.7 M0.15 -19.75 L-1.15 -19.85 -1.25 -20.5 Q-1.2 -20.9 -0.45 -21.25 L0.1 -20.9 0.5 -20.3 0.15 -19.75 M3.5 -17.95 L3.9 -17.35 3.5 -16.8 2.3 -16.85 Q1.65 -17.6 2.95 -18.3 L3.5 -17.95 M0.4 -17.3 L-0.55 -17.4 -0.8 -17.9 -0.55 -18.3 Q-0.05 -18.5 0.4 -18.0 L0.4 -17.3 M0.95 -13.35 L-0.65 -13.4 Q-1.35 -14.2 -0.5 -15.0 L1.05 -14.95 Q1.7 -14.1 0.95 -13.35 M4.45 -14.95 L4.35 -14.95 4.1 -14.35 3.1 -14.35 Q2.25 -15.25 3.55 -15.7 3.75 -15.85 4.2 -15.35 L4.45 -14.95 M6.55 -15.35 L6.95 -14.7 6.6 -14.2 5.35 -14.25 Q5.15 -14.55 5.2 -14.9 5.3 -15.35 6.0 -15.7 L6.55 -15.35 M5.6 -9.3 L5.5 -9.25 5.25 -8.65 4.25 -8.65 Q3.35 -9.55 4.75 -9.95 4.95 -10.1 5.35 -9.65 L5.6 -9.3 M6.6 -10.1 L7.05 -10.0 7.25 -9.55 7.1 -9.2 6.7 -9.0 Q6.55 -8.95 6.25 -9.25 L6.05 -9.6 6.6 -10.1 M9.6 -8.0 Q9.1 -7.6 8.65 -8.1 8.2 -8.55 8.5 -8.45 L9.05 -8.95 Q9.0 -9.3 9.45 -8.85 L9.8 -8.45 9.6 -8.0 M9.95 -6.9 Q10.6 -6.15 9.75 -5.35 L8.2 -5.3 Q7.5 -6.05 8.4 -6.85 L9.95 -6.9 M3.4 -12.1 Q3.4 -12.25 3.85 -11.8 L4.1 -11.35 3.9 -10.85 3.2 -10.75 3.25 -10.7 2.85 -10.95 Q2.6 -11.25 2.85 -11.6 L3.4 -12.1 M0.9 -9.5 L0.55 -8.95 Q-0.1 -8.4 -0.7 -9.05 -1.4 -9.8 0.0 -10.5 L0.55 -10.1 0.9 -9.5 M1.4 -11.9 L1.9 -11.75 Q2.15 -11.3 2.0 -11.1 L1.4 -10.95 Q1.05 -11.55 1.4 -11.9 M3.05 -5.1 L4.35 -5.0 4.6 -4.35 4.35 -3.75 Q3.85 -3.35 3.35 -3.5 L2.95 -3.75 Q2.35 -4.45 3.05 -5.1 M0.8 -0.65 Q0.9 -0.25 0.45 0.15 L-0.55 0.15 Q-1.0 -0.35 -0.6 -0.9 L0.7 -1.05 0.8 -0.65 M3.2 -0.7 L3.55 -0.2 3.1 0.4 2.0 0.35 Q1.35 -0.35 2.65 -1.05 L3.2 -0.7 M6.4 -0.3 L6.1 0.25 5.55 0.55 5.05 0.2 Q4.4 -0.45 5.0 -0.9 5.6 -1.4 6.3 -0.7 L6.4 -0.3 M6.9 -2.35 L8.25 -2.3 Q8.55 -2.0 8.45 -1.6 L8.2 -1.05 6.9 -0.95 Q6.25 -1.65 6.9 -2.35 M16.85 -6.45 L17.15 -6.05 Q17.25 -5.7 16.8 -5.3 L16.35 -4.95 15.95 -4.95 15.5 -5.25 Q15.15 -5.6 15.7 -6.4 L16.85 -6.45 M13.1 -6.6 L12.75 -6.05 11.5 -6.15 Q10.85 -6.85 12.15 -7.55 12.35 -7.35 12.7 -7.2 L13.1 -6.6 M13.1 -5.45 L14.35 -5.4 14.7 -4.85 Q14.85 -4.6 14.4 -4.2 13.95 -3.8 13.5 -4.05 L13.15 -4.35 Q12.55 -5.0 13.1 -5.45 M14.4 -2.05 Q15.05 -2.55 15.7 -1.8 L15.95 -1.3 Q16.05 -0.85 15.75 -0.55 L14.8 -0.4 14.4 -0.65 Q13.65 -1.5 14.4 -2.05 M16.75 -3.85 L17.55 -3.9 17.8 -3.4 17.6 -2.95 16.95 -2.8 Q17.1 -2.55 16.65 -3.05 16.35 -3.35 16.5 -3.55 L16.75 -3.85 M18.3 -1.35 L18.65 -1.05 18.9 -0.6 18.65 0.05 17.6 0.05 Q16.8 -0.85 18.1 -1.35 L18.3 -1.35 M24.15 -4.6 Q24.65 -4.05 24.0 -3.45 L23.35 -3.15 22.9 -3.5 Q22.15 -4.3 23.5 -4.95 L23.75 -4.95 24.15 -4.6 M21.15 -3.3 L20.9 -2.7 19.85 -2.75 Q19.0 -3.65 20.3 -4.05 L20.5 -4.1 20.95 -3.8 21.15 -3.3 M21.95 -0.45 L22.35 0.15 21.9 0.8 21.25 1.25 20.6 0.8 Q20.0 0.15 21.4 -0.85 L21.95 -0.45 M15.65 2.45 L16.05 2.75 Q16.55 3.3 15.9 3.9 L15.25 4.3 14.85 3.95 Q14.1 3.15 15.45 2.45 L15.65 2.45 M14.4 0.95 L13.75 1.1 Q13.95 1.4 13.5 0.9 L13.3 0.4 13.6 0.05 14.35 0.0 14.6 0.55 14.4 0.95 M13.75 1.8 L14.15 2.15 Q14.6 2.6 14.35 2.6 L14.1 3.2 13.1 3.2 Q12.25 2.25 13.5 1.8 L13.75 1.8 M10.6 0.6 L10.4 1.05 9.35 1.0 Q8.6 0.15 9.8 -0.4 L10.4 0.05 Q10.85 0.5 10.6 0.6 M11.2 4.65 L10.75 5.4 9.5 5.3 9.3 4.75 Q9.25 4.15 10.25 3.65 L10.8 4.0 11.2 4.65 M14.3 5.6 Q14.6 5.9 14.3 6.4 L13.95 6.6 Q13.7 6.65 13.45 6.35 13.2 6.1 13.3 5.85 L13.55 5.55 14.3 5.6 M12.2 12.05 L12.45 12.45 12.4 12.75 12.1 13.15 10.95 13.1 Q10.45 12.55 10.9 12.15 L12.2 12.05 M13.65 9.7 L13.55 10.7 12.6 10.6 Q13.15 10.25 12.6 9.65 L13.65 9.7 M15.85 7.3 Q16.5 6.85 15.95 6.25 L16.9 6.35 16.9 7.3 15.85 7.3 M16.05 9.15 L16.5 9.5 16.75 9.95 16.45 10.55 15.45 10.5 Q14.6 9.6 15.85 9.15 L16.05 9.15 M19.05 11.65 L18.65 12.2 17.5 12.2 Q16.85 11.5 18.1 10.7 L18.65 11.1 19.05 11.65 M5.8 3.0 L5.4 2.65 Q5.1 2.3 5.55 1.55 6.0 0.85 6.65 1.55 L6.9 2.0 6.55 2.75 6.2 3.0 5.8 3.0 M7.6 5.8 L7.95 6.3 7.65 6.9 6.7 6.65 Q6.15 6.05 7.1 5.55 L7.6 5.8 M1.75 2.15 Q2.3 2.7 1.9 3.55 1.25 3.9 0.6 3.25 0.0 2.55 1.25 1.8 L1.75 2.15 M2.8 3.45 L3.8 3.5 3.7 4.4 3.3 4.55 2.85 4.25 2.6 3.8 2.8 3.45 M2.75 7.65 L2.45 7.4 Q2.1 7.05 2.6 6.3 3.1 5.65 3.7 6.3 L3.9 6.75 3.7 7.5 2.75 7.65 M1.3 11.4 L-0.1 11.35 Q-0.85 10.55 0.0 10.1 L1.25 10.2 Q1.85 10.85 1.3 11.4 M3.25 10.0 Q3.6 10.4 3.4 10.8 2.9 11.0 2.7 10.8 L2.4 10.4 3.0 10.0 3.25 10.0 M9.45 9.2 L9.85 9.65 9.85 9.95 9.55 10.4 8.1 10.3 Q7.7 9.85 8.35 9.25 L9.45 9.2 M8.85 7.65 L9.0 8.0 8.7 8.55 Q8.2 8.95 8.25 8.75 L8.1 8.8 7.7 8.4 Q7.45 8.1 7.55 7.95 L7.7 7.65 8.85 7.65 M3.3 15.4 Q3.7 15.9 3.5 16.0 L3.25 16.45 2.25 16.3 Q2.05 16.1 2.15 15.75 L2.15 15.25 2.85 15.15 3.3 15.4 M1.75 14.35 L1.9 14.35 1.6 14.7 1.0 15.1 0.85 15.75 0.25 15.75 0.1 15.4 0.15 15.0 0.35 14.95 0.05 14.4 0.7 13.95 Q1.1 13.8 1.75 14.35 M0.2 18.4 L0.55 18.7 Q1.05 19.25 0.45 19.8 L-0.2 20.2 -0.3 20.15 -0.7 19.95 Q-1.45 19.1 0.0 18.3 L0.2 18.4 M-3.45 -16.65 Q-2.6 -15.7 -3.5 -14.85 -4.45 -14.0 -5.0 -15.0 -5.75 -15.8 -5.0 -16.7 L-3.45 -16.65 M-3.65 -14.2 L-2.85 -15.0 -2.25 -14.65 -1.9 -14.05 Q-1.85 -13.9 -2.25 -13.5 L-3.5 -13.55 Q-3.75 -13.8 -3.65 -14.2 M-10.8 -10.75 L-11.05 -11.15 -10.8 -11.4 -10.45 -11.6 -10.05 -11.3 -9.8 -11.0 -9.9 -11.0 Q-9.9 -10.75 -10.05 -10.55 L-10.4 -10.45 -10.8 -10.75 M-11.25 -7.75 Q-12.05 -7.0 -12.75 -8.0 -13.5 -8.8 -12.75 -9.5 L-11.3 -9.45 -11.0 -8.7 Q-10.95 -8.0 -11.25 -7.75 M-0.95 -11.85 L-0.65 -11.4 Q-0.5 -11.25 -1.0 -10.8 -1.25 -10.55 -1.45 -10.55 L-1.7 -10.55 -2.05 -10.85 -2.2 -11.45 Q-2.1 -12.0 -1.55 -12.15 -1.4 -12.3 -0.95 -11.85 M-3.35 -11.35 L-3.55 -10.85 -4.25 -10.7 -4.2 -10.65 -4.5 -10.95 -4.55 -11.55 -4.0 -12.1 -3.55 -11.75 -3.35 -11.35 M-2.9 -10.0 Q-2.6 -9.7 -2.6 -9.1 -2.7 -8.5 -2.9 -8.3 -3.45 -7.8 -4.05 -8.15 L-4.5 -8.55 Q-5.25 -9.35 -4.35 -10.0 -3.45 -10.6 -2.9 -10.0 M-4.5 -7.75 L-4.15 -7.25 -4.4 -6.6 Q-5.2 -6.7 -5.4 -6.9 L-5.8 -7.4 -5.05 -8.05 -4.5 -7.75 M-1.55 -6.85 L-1.25 -6.3 -1.5 -5.7 -2.65 -5.9 Q-3.15 -6.45 -2.0 -7.1 L-1.55 -6.85 M-6.8 -11.0 L-6.55 -10.75 -6.6 -10.4 -6.9 -10.05 -7.9 -10.0 -8.15 -10.6 Q-8.15 -11.15 -7.35 -11.4 L-6.8 -11.0 M-6.55 -5.3 L-6.8 -4.8 -7.4 -4.7 -7.4 -4.65 -7.7 -5.0 Q-7.95 -5.3 -7.8 -5.55 L-7.35 -5.95 -6.8 -5.8 -6.55 -5.3 M-7.6 -1.85 L-6.3 -1.8 Q-5.75 -1.2 -6.45 -0.55 -7.3 0.25 -7.75 -0.7 -8.5 -1.5 -7.6 -1.85 M-3.95 -2.25 L-3.7 -2.45 Q-3.6 -2.75 -3.95 -3.15 L-2.95 -3.2 Q-2.9 -2.6 -3.0 -2.1 L-3.95 -2.25 M-2.25 0.9 L-2.1 1.1 -2.05 1.15 Q-1.65 1.9 -2.2 2.4 -2.75 2.9 -3.8 2.15 -4.35 1.55 -3.65 0.8 -3.0 0.1 -2.3 0.9 L-2.25 0.9 M-4.7 5.35 L-5.15 5.85 Q-5.85 6.5 -6.35 5.7 -7.2 4.8 -6.35 4.3 L-4.95 4.4 -4.55 5.05 -4.7 5.35 M-5.65 8.45 Q-4.85 8.05 -4.15 8.8 -3.7 9.25 -3.9 9.25 L-3.95 9.35 -4.25 9.75 Q-5.0 10.45 -5.65 9.75 -6.45 8.9 -5.65 8.45 M-0.8 12.1 L-0.7 12.65 Q-0.6 13.15 -0.8 13.5 L-1.8 13.95 -2.4 13.3 Q-3.1 12.55 -2.2 12.1 -1.35 11.55 -0.8 12.1 M-3.0 7.4 Q-3.85 6.5 -3.05 6.05 -2.3 5.7 -1.6 6.45 -1.1 7.0 -1.8 7.65 -2.5 8.3 -3.0 7.4 M-4.4 17.25 L-4.95 17.95 Q-5.05 18.15 -5.5 17.7 L-5.7 17.2 -5.6 16.85 -4.4 16.8 -4.4 17.25" fill="#ffffff" fill-rule="evenodd" stroke="none"/>
  </g>
</svg>
