<?xml version="1.0" encoding="UTF-8" standalone="no"?>
<svg xmlns:ffdec="https://www.free-decompiler.com/flash" xmlns:xlink="http://www.w3.org/1999/xlink" ffdec:objectType="shape" height="41.75px" width="57.15px" xmlns="http://www.w3.org/2000/svg">
  <g transform="matrix(1.0, 0.0, 0.0, 1.0, 13.35, 21.55)">
    <path d="M10.75 -15.45 L10.5 -15.2 10.0 -15.9 Q10.0 -16.35 10.15 -16.4 L10.6 -16.45 10.75 -15.45 M3.25 -16.7 L3.1 -15.95 2.8 -16.05 Q2.35 -16.35 2.35 -16.65 L2.7 -16.75 3.25 -16.7 M4.85 -15.6 Q4.75 -15.4 4.35 -15.4 L4.25 -15.5 4.25 -15.9 4.3 -16.45 4.5 -16.55 Q4.85 -16.3 4.85 -15.6 M4.0 -13.15 Q3.85 -12.7 3.5 -12.7 L3.0 -13.0 Q3.0 -13.45 3.5 -13.7 L4.0 -13.15 M6.75 -11.35 L6.1 -11.15 6.05 -11.1 6.0 -11.55 Q6.0 -11.95 6.15 -12.0 L6.6 -12.0 6.75 -11.35 M9.85 -6.85 L9.95 -6.85 10.35 -6.95 11.35 -6.45 11.05 -5.95 Q10.85 -5.7 10.6 -5.75 10.25 -5.75 10.05 -5.9 L10.0 -5.95 9.55 -5.95 Q9.35 -6.45 9.85 -6.85 M5.45 -10.9 L5.4 -10.85 5.4 -10.75 5.35 -10.75 5.3 -10.7 5.2 -10.75 4.2 -10.3 4.35 -10.85 5.05 -11.1 5.5 -11.2 5.45 -10.9 M3.75 -6.2 L3.0 -6.75 3.75 -7.7 4.4 -6.9 4.25 -6.5 3.75 -6.2 M0.6 -3.1 L0.65 -3.55 1.7 -3.4 1.35 -2.95 0.6 -3.1 M2.2 -2.55 L2.7 -2.1 3.0 -2.3 3.05 -2.1 2.8 -2.05 3.0 -1.55 2.5 -1.25 1.7 -1.2 1.65 -1.25 Q1.5 -1.2 1.5 -1.85 1.5 -2.8 2.2 -2.55 M1.7 -0.65 L1.5 -1.25 1.1 -1.4 1.4 -1.5 1.65 -1.15 1.7 -0.65 M6.0 -0.25 Q5.65 -0.8 5.95 -0.9 L9.3 -1.0 Q9.55 -0.7 9.4 -0.55 L9.2 -0.4 Q9.3 -0.25 8.05 0.05 6.5 0.45 6.0 -0.25 M6.1 -1.9 L5.15 -1.55 4.05 -1.85 6.0 -2.1 6.1 -1.9 M18.95 -3.9 Q18.7 -3.95 18.65 -4.05 18.4 -4.45 18.5 -4.6 L18.65 -4.75 Q20.45 -5.5 21.3 -5.05 L21.7 -4.7 21.55 -4.35 20.8 -3.7 18.95 -3.9 M11.15 -10.9 Q11.0 -10.7 10.75 -10.7 L10.0 -11.25 Q10.3 -11.9 11.1 -11.65 L11.15 -10.9 M31.6 2.65 L32.7 2.25 Q33.0 2.7 32.9 3.0 L32.3 3.15 31.6 2.65 M43.65 3.65 Q43.9 4.0 43.75 4.2 L42.8 4.35 42.4 4.25 Q42.7 3.8 43.65 3.65 M36.1 -0.2 Q35.8 -0.65 36.65 -1.0 L37.45 -0.9 38.0 -0.65 37.2 -0.05 36.1 -0.2 M23.25 -0.75 L25.05 -0.5 24.35 0.1 23.4 0.1 22.7 -0.05 Q22.55 -0.35 23.25 -0.75 M23.4 4.7 Q24.55 4.8 24.55 4.0 L25.6 4.75 24.55 5.4 23.4 4.7 M17.05 5.3 L16.55 5.2 15.1 4.95 15.1 4.65 Q15.1 3.8 17.3 4.25 L17.45 4.65 Q17.45 5.3 17.3 5.15 L17.05 5.3 M13.5 2.0 L13.6 2.35 13.35 3.2 Q12.45 3.45 11.9 3.0 L12.65 2.25 12.75 2.15 13.5 2.0 M13.6 0.75 L13.0 1.15 12.9 1.15 12.6 1.25 12.25 1.05 Q11.8 0.9 11.65 0.75 L11.55 0.0 13.35 0.0 13.6 0.75 M13.35 12.0 L12.5 12.7 11.75 12.05 11.75 11.65 11.9 11.5 13.25 11.6 13.35 12.0 M16.5 10.55 L16.05 10.45 Q15.9 10.4 15.9 10.0 L15.95 9.65 16.0 9.7 17.0 9.5 17.25 10.0 16.5 10.55 M7.05 3.7 L8.3 3.75 8.35 4.0 8.15 4.0 6.9 3.75 7.05 3.7 M1.45 7.35 Q1.95 8.1 0.9 8.6 L0.05 8.8 -0.35 8.2 Q-0.4 7.35 0.35 6.95 1.15 6.55 1.45 7.35 M3.6 3.2 L4.4 3.4 4.55 3.4 4.65 3.85 4.25 4.3 Q3.6 4.25 3.4 3.95 L3.35 3.6 Q3.35 3.25 3.6 3.2 M1.1 2.9 L2.1 2.8 2.65 3.05 1.1 2.9 M0.9 2.7 L1.0 2.9 0.9 3.4 0.45 4.1 -0.2 4.2 -0.75 3.75 -0.8 3.1 -0.1 2.6 0.9 2.7 M8.9 4.05 L9.8 4.2 10.1 4.3 9.6 4.35 9.1 4.3 8.9 4.05 M8.6 7.35 Q8.5 7.6 8.0 7.65 7.85 7.5 7.85 7.15 L8.6 7.35 M6.4 7.15 Q7.05 7.1 7.3 7.8 L6.7 8.85 5.7 9.0 5.35 8.5 Q5.65 7.15 6.4 7.15 M5.15 11.4 Q5.15 11.0 5.3 10.9 L5.75 10.7 6.4 11.5 5.75 12.05 5.3 11.95 Q5.15 11.85 5.15 11.4 M-5.0 -10.0 Q-4.45 -9.9 -4.4 -9.45 L-4.85 -9.15 -5.2 -9.25 -5.4 -9.55 -5.0 -10.0 M2.45 18.7 Q2.7 19.25 2.0 19.75 L0.9 19.7 Q1.0 18.7 1.65 18.4 2.25 18.1 2.45 18.7 M-0.55 0.4 L-0.8 0.9 -1.5 1.0 -2.05 0.9 -2.1 0.85 -2.2 0.2 -1.95 0.0 -0.95 0.0 -0.55 0.4" fill="#ffffff" fill-rule="evenodd" stroke="none"/>
    <path d="M27.9 -3.8 Q28.7 -4.4 29.0 -4.45 L30.1 -4.25 Q30.5 -3.65 29.65 -3.2 L27.85 -3.4 27.9 -3.8" fill="#ffffff" fill-rule="evenodd" stroke="none"/>
    <path d="M0.45 -20.5 L-0.4 -20.65 -0.6 -21.15 -0.35 -21.55 0.45 -20.9 0.45 -20.5 M0.1 -14.3 L-0.2 -14.55 -0.4 -15.0 -0.1 -15.3 0.45 -14.95 0.15 -14.35 0.1 -14.3 M2.75 -17.25 Q2.55 -17.95 3.25 -18.35 L3.75 -17.85 3.65 -17.4 2.75 -17.25 M5.9 -14.35 L6.9 -14.7 7.05 -14.15 6.9 -13.65 6.4 -13.35 6.25 -13.3 5.8 -13.65 Q5.5 -14.0 5.9 -14.35 M1.85 -10.0 L2.05 -9.6 1.9 -9.0 1.05 -8.85 Q0.75 -9.4 0.9 -10.1 L1.85 -10.0 M3.3 -0.25 L3.5 0.2 3.25 0.6 2.95 0.75 Q2.75 0.8 2.45 0.5 L2.2 0.2 2.85 -0.35 3.3 -0.25 M4.65 -4.15 L3.8 -3.85 Q3.7 -3.7 3.25 -4.2 2.6 -4.9 3.3 -5.2 3.95 -5.45 4.85 -4.8 L4.65 -4.15 M9.75 -1.6 L10.35 -1.15 10.3 -0.6 Q9.75 -0.2 9.4 -0.3 L9.15 -0.55 Q8.9 -0.85 9.1 -1.05 L9.75 -1.6 M8.7 -5.75 L9.55 -6.55 10.2 -6.1 Q10.35 -5.8 10.15 -5.55 L10.1 -5.5 10.05 -5.25 9.75 -5.3 9.25 -5.25 8.7 -5.75 M17.1 -7.05 L17.1 -6.1 16.0 -6.15 Q16.7 -6.55 16.15 -7.15 L17.1 -7.05 M14.55 -3.85 L14.1 -3.6 13.75 -3.65 13.55 -3.85 Q12.95 -4.5 14.25 -5.1 L14.65 -4.85 14.85 -4.45 Q15.0 -4.3 14.55 -3.85 M15.5 -0.45 Q15.3 -0.45 15.05 -0.7 L15.75 -1.05 15.5 -0.45 M23.25 -3.65 L23.05 -3.95 23.2 -3.95 23.8 -4.65 24.3 -4.45 Q24.4 -3.85 24.1 -3.55 L23.7 -3.35 23.25 -3.65 M22.3 -0.8 L22.65 -0.6 22.45 0.45 21.4 0.45 21.15 0.15 21.15 -0.05 Q21.85 -0.65 22.3 -0.8 M-4.3 -16.5 L-4.65 -16.9 -4.55 -17.15 Q-4.2 -17.25 -3.7 -16.7 -3.65 -16.45 -3.95 -16.2 L-4.05 -16.2 -4.3 -16.5 M-3.35 -14.35 L-2.65 -14.3 Q-2.45 -13.85 -2.7 -13.6 L-3.2 -13.45 Q-3.5 -13.8 -3.35 -14.35 M-12.55 -8.8 L-12.7 -8.55 -13.35 -8.95 -13.05 -9.3 -12.75 -9.4 -12.55 -8.8 M-3.35 -9.1 L-3.4 -8.85 -3.9 -8.8 Q-4.2 -9.1 -4.0 -9.5 L-3.35 -9.4 -3.35 -9.1 M-7.7 -0.8 L-7.85 -0.7 -8.0 -0.75 -8.3 -0.85 -8.0 -1.1 -7.6 -1.5 -7.05 -1.3 -7.7 -0.8 M-2.5 5.9 Q-2.25 6.15 -2.55 7.2 L-3.55 7.05 Q-4.25 6.25 -3.05 5.55 -2.9 5.4 -2.5 5.9 M-6.1 4.45 Q-5.55 4.35 -5.25 4.65 L-5.4 5.2 -5.95 5.35 -6.1 4.45 M-5.4 9.15 L-5.05 9.3 Q-4.95 9.75 -5.2 10.25 -5.75 10.45 -6.2 9.95 L-6.1 9.35 -5.4 9.15 M-0.5 9.8 L0.25 9.85 0.2 10.25 0.0 10.7 -0.6 10.8 Q-0.75 10.05 -0.5 9.8 M-1.0 12.9 L-1.2 13.5 -1.75 13.55 -1.9 13.2 -1.85 12.8 -1.0 12.9 M16.25 4.35 L15.8 4.05 15.55 3.6 15.8 3.2 16.85 3.35 Q16.95 3.85 16.7 4.2 L16.25 4.35 M11.15 5.25 Q11.25 5.45 10.8 5.85 10.15 6.5 9.6 5.65 9.05 5.05 9.55 4.65 10.0 4.2 10.7 4.65 L11.15 5.25 M20.0 12.2 Q19.4 12.45 18.95 12.0 18.5 11.5 18.9 11.2 19.3 10.8 20.15 11.2 L20.0 12.2 M6.5 1.8 L7.05 2.2 7.35 2.85 7.1 3.3 6.4 3.35 5.9 3.15 5.7 2.6 Q5.7 2.15 6.5 1.8 M2.45 3.05 Q2.95 3.6 2.3 4.15 L1.7 4.55 1.55 4.55 1.2 4.25 Q0.4 3.4 1.9 2.7 2.05 2.6 2.45 3.05 M3.0 7.85 L3.25 7.5 4.15 7.45 Q4.45 8.0 4.05 8.35 3.35 8.25 3.0 7.85 M8.7 10.6 Q8.2 10.05 8.35 9.55 8.55 8.95 9.8 9.4 L10.1 9.9 9.7 10.6 8.7 10.6 M1.05 15.0 L1.35 15.55 1.1 15.8 Q0.85 15.75 0.5 15.35 L1.05 15.0 M1.0 19.85 L0.75 20.2 0.3 19.95 Q0.6 19.5 1.0 19.65 L1.0 19.85 M0.1 0.1 L-0.4 0.2 Q-0.5 -0.5 -0.2 -0.65 L0.2 -0.5 0.1 0.1" fill="#ffffff" fill-rule="evenodd" stroke="none"/>
  </g>
</svg>
