<?xml version="1.0" encoding="UTF-8" standalone="no"?>
<svg xmlns:ffdec="https://www.free-decompiler.com/flash" xmlns:xlink="http://www.w3.org/1999/xlink" ffdec:objectType="shape" height="40.65px" width="53.9px" xmlns="http://www.w3.org/2000/svg">
  <g transform="matrix(1.0, 0.0, 0.0, 1.0, 15.25, 19.3)">
    <path d="M11.5 -13.5 Q12.1 -13.6 12.45 -12.55 L12.3 -11.95 Q12.3 -11.7 11.7 -11.7 11.1 -11.75 10.95 -12.25 L10.95 -12.65 Q10.95 -13.3 11.5 -13.5 M0.2 -13.45 Q2.15 -14.1 2.15 -12.95 2.4 -11.8 1.4 -11.7 1.1 -11.65 0.7 -11.95 0.25 -12.15 0.15 -12.7 0.0 -13.35 0.2 -13.45 M11.5 -6.35 L11.6 -5.85 11.5 -5.35 11.0 -5.2 10.4 -5.6 10.4 -5.55 10.35 -6.0 Q10.35 -6.4 10.75 -6.45 L11.5 -6.35 M18.9 -4.9 L18.15 -5.0 Q17.9 -5.35 18.75 -5.7 L20.25 -5.55 20.55 -5.45 19.8 -4.9 18.9 -4.9 M38.2 0.05 Q38.65 0.0 38.65 0.3 L38.6 0.5 38.2 0.6 38.0 0.6 37.9 0.55 37.75 0.5 37.7 0.3 Q37.7 0.15 38.0 0.1 L38.2 0.05 M31.65 2.7 Q30.55 2.65 30.4 2.3 30.15 2.0 30.95 1.65 L32.05 1.65 Q32.35 2.2 31.65 2.7 M23.45 2.85 Q23.2 3.2 22.25 3.2 L21.7 3.2 21.4 3.1 20.95 2.85 Q20.85 2.9 20.85 2.3 20.85 1.9 21.7 1.7 L22.25 1.6 Q23.6 1.4 23.6 2.35 L23.45 2.85 M16.8 5.55 Q16.5 6.0 15.25 6.0 L14.55 6.0 14.15 5.85 13.55 5.55 13.45 4.85 Q13.45 4.3 14.55 4.05 L15.25 3.95 Q17.0 3.65 17.0 4.9 17.0 5.65 16.8 5.55 M1.1 20.15 L0.45 21.2 -0.35 21.3 -0.7 20.95 -0.75 20.45 -0.65 20.25 Q0.65 19.05 1.1 20.15 M8.25 7.3 L8.4 7.65 8.4 8.2 8.0 8.6 Q7.05 8.7 6.9 8.4 L6.8 8.1 8.0 7.25 8.25 7.3 M13.5 12.9 Q13.5 12.4 14.0 12.2 L14.5 12.7 14.0 13.2 13.5 12.9" fill="#ffffff" fill-rule="evenodd" stroke="none"/>
    <path d="M7.5 -14.45 L7.75 -14.05 7.5 -13.55 6.85 -13.4 6.55 -13.65 Q6.3 -13.95 6.5 -14.3 L7.05 -14.8 7.5 -14.45 M15.35 -5.4 Q15.5 -5.05 15.05 -4.65 L14.55 -4.35 14.15 -4.35 13.8 -4.7 Q13.45 -5.05 13.95 -5.8 L15.05 -5.85 15.35 -5.4 M24.0 -0.75 L23.95 -0.05 23.35 -0.05 Q23.0 -0.4 23.25 -0.8 L24.0 -0.75 M21.5 11.6 L20.5 11.6 Q19.65 10.7 20.95 10.3 L21.15 10.3 21.55 10.55 21.8 11.05 21.5 11.6 M8.15 11.1 L8.15 10.9 9.1 10.35 9.4 10.6 9.25 11.55 8.85 11.7 8.35 11.35 8.15 11.1 M0.4 17.0 Q-0.15 17.15 -0.6 16.7 L-0.4 16.15 0.3 16.25 Q0.55 16.5 0.4 17.0 M-2.95 -18.4 Q-2.8 -18.25 -3.2 -17.85 -3.65 -17.45 -4.1 -17.7 L-4.35 -18.0 Q-4.8 -18.45 -4.55 -19.0 -4.2 -19.55 -3.25 -19.0 L-2.95 -18.4 M-13.7 -9.5 Q-13.4 -9.15 -13.4 -8.7 -13.45 -8.3 -13.65 -8.15 -14.25 -7.6 -14.9 -8.45 -15.8 -9.2 -14.3 -9.9 -14.15 -10.0 -13.7 -9.5 M-3.7 6.65 L-3.75 7.1 Q-3.75 7.45 -3.9 7.6 L-4.55 7.6 Q-4.7 6.9 -4.45 6.65 -3.95 6.4 -3.7 6.65" fill="#ffffff" fill-rule="evenodd" stroke="none"/>
  </g>
</svg>
