<?xml version="1.0" encoding="UTF-8" standalone="no"?>
<svg xmlns:ffdec="https://www.free-decompiler.com/flash" xmlns:xlink="http://www.w3.org/1999/xlink" ffdec:objectType="shape" height="8.2px" width="27.45px" xmlns="http://www.w3.org/2000/svg">
  <g transform="matrix(1.0, 0.0, 0.0, 1.0, 14.2, 4.4)">
    <path d="M7.05 1.9 L9.45 1.9 9.5 2.3 7.0 2.3 7.0 2.05 7.05 1.9" fill="#496138" fill-rule="evenodd" stroke="none"/>
    <path d="M9.2 -2.1 Q9.1 -1.9 9.0 -2.05 L9.0 -2.1 9.2 -2.1" fill="#7da563" fill-rule="evenodd" stroke="none"/>
    <path d="M1.65 -2.1 L2.55 -2.1 2.45 -1.95 2.05 -1.85 1.55 -1.75 1.55 -1.25 1.1 -1.25 0.9 -1.45 1.0 -1.75 1.65 -2.1 M7.55 -1.25 L7.55 -1.3 7.55 -1.65 7.8 -2.0 7.95 -2.1 9.0 -2.1 9.0 -2.05 Q9.1 -1.9 9.2 -2.1 L11.8 -2.1 12.0 -1.9 11.95 -1.75 11.85 -1.55 11.65 -1.25 7.55 -1.25 M-2.7 -2.1 L-2.75 -1.75 -3.0 -1.5 -3.0 -1.25 -5.25 -1.25 -5.6 -1.35 Q-6.05 -1.3 -6.4 -1.65 -6.55 -1.85 -6.3 -2.1 L-2.7 -2.1 M-8.3 -2.1 L-8.35 -2.0 Q-8.4 -1.85 -8.6 -1.85 L-8.8 -1.8 -9.5 -1.8 -9.7 -1.75 -9.7 -1.35 -9.7 -1.25 -11.4 -1.25 Q-11.75 -1.4 -11.65 -1.75 L-11.65 -1.9 -11.45 -2.0 -11.3 -2.1 -8.3 -2.1 M-9.9 1.3 L-9.7 0.7 -8.6 0.75 Q-8.35 0.75 -8.25 0.6 -8.15 0.4 -7.8 0.35 L-7.5 0.45 -7.35 0.55 -7.1 0.8 Q-7.0 0.95 -7.05 1.25 L-7.1 1.3 -7.4 1.3 -7.45 1.3 -9.9 1.3 M-5.15 1.3 L-5.15 1.25 -5.2 0.8 Q-5.1 0.55 -4.8 0.5 L-4.6 0.5 -4.2 0.55 -4.0 0.55 -3.45 0.6 -2.0 0.6 -1.9 0.6 -1.65 0.7 -1.5 0.75 -1.4 0.85 -1.2 1.3 -5.15 1.3 M2.95 1.3 L3.15 1.05 3.3 0.95 Q3.45 0.8 3.7 0.75 L3.95 0.75 3.95 0.6 3.9 0.5 3.85 0.35 6.45 0.35 6.6 0.35 7.0 0.4 7.1 0.5 7.25 0.65 7.65 0.9 7.8 1.05 7.55 1.3 2.95 1.3" fill="#867e3e" fill-rule="evenodd" stroke="none"/>
    <path d="M-4.65 1.9 L-4.8 1.75 -4.95 1.65 -5.15 1.3 -1.2 1.3 -0.85 1.65 -0.7 1.8 -0.6 1.9 -4.65 1.9 M2.9 1.9 L2.95 1.3 7.55 1.3 7.25 1.4 7.15 1.5 7.05 1.9 2.9 1.9" fill="#7a7338" fill-rule="evenodd" stroke="none"/>
    <path d="M-1.25 -3.5 L1.3 -3.5 Q1.2 -3.35 0.95 -3.35 L0.8 -3.25 0.6 -3.2 0.4 -3.2 -0.7 -3.15 Q-1.05 -3.1 -1.25 -3.35 L-1.25 -3.5 M1.65 -2.1 L2.05 -2.15 2.55 -2.3 2.55 -2.2 2.55 -2.1 1.65 -2.1 M11.8 -2.1 L9.2 -2.1 9.0 -2.1 8.85 -2.15 8.85 -2.2 9.1 -2.25 9.25 -2.4 9.5 -2.4 9.5 -2.3 10.55 -2.3 11.8 -2.1 M-2.7 -2.4 L-2.7 -2.25 -2.7 -2.1 -6.3 -2.1 Q-6.0 -2.25 -6.2 -2.4 L-2.7 -2.4 M-8.3 -2.35 L-8.3 -2.25 -8.3 -2.1 -11.3 -2.1 -10.1 -2.3 -9.1 -2.3 -9.05 -2.35 -8.3 -2.35 M-7.45 1.3 L-7.5 1.55 -7.5 1.7 -9.8 1.7 -9.85 1.6 -9.9 1.3 -7.45 1.3 M-0.6 1.9 L-0.35 2.2 -0.3 2.3 -4.0 2.3 -4.25 2.1 -4.45 2.0 -4.65 1.95 -4.65 1.9 -0.6 1.9 M2.95 2.3 L2.9 1.95 2.9 1.9 7.05 1.9 7.0 2.05 7.0 2.3 2.95 2.3" fill="#635c2e" fill-rule="evenodd" stroke="none"/>
    <path d="M1.55 -1.25 L1.55 -1.0 1.65 -0.85 1.75 -0.75 1.9 -0.65 1.9 -0.15 1.85 -0.05 1.75 0.25 1.75 0.35 1.15 0.35 1.0 0.25 0.55 0.15 -0.05 0.1 -0.1 -0.1 -0.3 -0.1 -0.45 -0.15 Q-0.7 -0.2 -0.7 -0.3 L-0.7 -0.85 -0.45 -1.05 0.7 -1.05 0.95 -1.05 1.25 -1.15 1.1 -1.25 1.55 -1.25 M7.55 -1.25 L11.65 -1.25 11.6 -1.15 Q11.15 -0.75 10.55 -0.7 L10.05 -0.75 9.9 -0.8 9.8 -0.8 9.2 -0.85 8.8 -0.8 7.85 -0.75 7.65 -0.8 7.2 -0.85 7.15 -1.0 7.2 -1.1 7.3 -1.2 7.55 -1.25 M-3.0 -1.25 L-3.0 -1.2 -3.1 -1.1 Q-3.25 -0.9 -3.6 -0.95 L-4.0 -1.05 -4.15 -1.0 Q-4.35 -0.75 -4.8 -0.8 L-5.05 -1.05 -5.2 -1.2 -5.25 -1.25 -3.0 -1.25 M3.85 0.35 L3.75 0.35 3.7 0.2 3.9 -0.25 5.25 -0.3 5.5 -0.15 6.45 0.35 3.85 0.35" fill="#a39a4b" fill-rule="evenodd" stroke="none"/>
    <path d="M-6.6 -2.4 L-6.6 -2.35 -7.1 -2.35 Q-7.5 -2.9 -7.1 -3.5 L-6.85 -3.8 -6.6 -3.8 -6.85 -3.5 Q-7.15 -3.15 -7.05 -2.8 -7.0 -2.2 -6.6 -2.4 M-11.65 -1.9 L-11.85 -1.8 -12.3 -1.25 -12.35 -1.2 -12.55 -0.25 -12.5 0.35 -11.9 1.1 -12.55 1.1 Q-14.05 -0.55 -12.55 -2.0 L-11.45 -2.0 -11.65 -1.9 M-7.1 1.7 L-6.65 1.7 -6.9 1.85 -6.95 2.3 -6.85 3.05 -6.65 3.35 -4.7 3.4 6.1 3.4 7.45 3.4 9.1 3.2 9.25 3.05 9.5 2.3 9.45 1.9 9.8 1.9 9.8 3.35 8.6 3.6 -6.9 3.6 -7.15 3.05 Q-7.45 2.25 -7.1 1.7" fill="#000000" fill-rule="evenodd" stroke="none"/>
    <path d="M1.5 -3.8 L1.3 -3.5 -1.25 -3.5 -1.25 -3.55 -1.4 -3.75 -1.4 -3.8 1.5 -3.8" fill="#a3914b" fill-rule="evenodd" stroke="none"/>
    <path d="M2.55 -2.1 L2.55 -2.2 2.55 -2.3 2.05 -2.15 1.65 -2.1 1.0 -1.75 0.9 -1.45 1.1 -1.25 1.25 -1.15 0.95 -1.05 0.7 -1.05 -0.45 -1.05 -0.7 -0.85 -0.7 -0.3 Q-0.7 -0.2 -0.45 -0.15 L-0.3 -0.1 -0.1 -0.1 -0.05 0.1 0.55 0.15 1.0 0.25 1.15 0.35 1.75 0.35 1.75 0.25 1.85 -0.05 1.9 -0.15 1.9 -0.65 1.75 -0.75 1.65 -0.85 1.55 -1.0 1.55 -1.25 1.55 -1.75 2.05 -1.85 2.45 -1.95 2.55 -2.1 M9.0 -2.1 L7.95 -2.1 7.8 -2.0 7.55 -1.65 7.55 -1.3 7.55 -1.25 7.3 -1.2 7.2 -1.1 7.15 -1.0 7.2 -0.85 7.65 -0.8 7.85 -0.75 8.8 -0.8 9.2 -0.85 9.8 -0.8 9.9 -0.8 10.05 -0.75 10.55 -0.7 Q11.15 -0.75 11.6 -1.15 L11.65 -1.25 11.85 -1.55 11.95 -1.75 12.0 -1.9 12.25 -1.8 12.75 -1.25 12.8 -1.2 13.0 -0.25 12.95 0.35 12.25 1.15 12.05 1.3 10.55 1.75 9.35 1.75 9.45 1.9 7.05 1.9 7.15 1.5 7.25 1.4 7.55 1.3 7.8 1.05 7.65 0.9 7.25 0.65 7.1 0.5 7.0 0.4 6.6 0.35 6.45 0.35 5.5 -0.15 5.25 -0.3 3.9 -0.25 3.7 0.2 3.75 0.35 3.85 0.35 3.9 0.5 3.95 0.6 3.95 0.75 3.7 0.75 Q3.45 0.8 3.3 0.95 L3.15 1.05 2.95 1.3 2.9 1.9 -0.6 1.9 -0.7 1.8 -0.85 1.65 -1.2 1.3 -1.4 0.85 -1.5 0.75 -1.65 0.7 -1.9 0.6 -2.0 0.6 -3.45 0.6 -4.0 0.55 -4.2 0.55 -4.6 0.5 -4.8 0.5 Q-5.1 0.55 -5.2 0.8 L-5.15 1.25 -5.15 1.3 -4.95 1.65 -4.8 1.75 -4.65 1.9 -6.9 1.85 -6.65 1.7 -7.1 1.7 -7.5 1.7 -7.5 1.55 -7.45 1.3 -7.4 1.3 -7.1 1.3 -7.05 1.25 Q-7.0 0.95 -7.1 0.8 L-7.35 0.55 -7.5 0.45 -7.8 0.35 Q-8.15 0.4 -8.25 0.6 -8.35 0.75 -8.6 0.75 L-9.7 0.7 -9.9 1.3 -11.7 1.3 -11.85 1.15 -11.9 1.1 -12.5 0.35 -12.55 -0.25 -12.35 -1.2 -12.3 -1.25 -11.85 -1.8 -11.65 -1.9 -11.65 -1.75 Q-11.75 -1.4 -11.4 -1.25 L-9.7 -1.25 -9.7 -1.35 -9.7 -1.75 -9.5 -1.8 -8.8 -1.8 -8.6 -1.85 Q-8.4 -1.85 -8.35 -2.0 L-8.3 -2.1 -8.3 -2.25 -8.3 -2.35 -7.1 -2.35 -6.6 -2.35 -6.6 -2.4 -6.2 -2.4 Q-6.0 -2.25 -6.3 -2.1 -6.55 -1.85 -6.4 -1.65 -6.05 -1.3 -5.6 -1.35 L-5.25 -1.25 -5.2 -1.2 -5.05 -1.05 -4.8 -0.8 Q-4.35 -0.75 -4.15 -1.0 L-4.0 -1.05 -3.6 -0.95 Q-3.25 -0.9 -3.1 -1.1 L-3.0 -1.2 -3.0 -1.25 -3.0 -1.5 -2.75 -1.75 -2.7 -2.1 -2.7 -2.25 -2.7 -2.4 9.25 -2.4 9.1 -2.25 8.85 -2.2 8.85 -2.15 9.0 -2.1" fill="url(#gradient0)" fill-rule="evenodd" stroke="none"/>
    <path d="M-12.55 1.1 L-13.5 1.1 Q-14.85 -0.45 -13.5 -2.0 L-12.55 -2.0 Q-14.05 -0.55 -12.55 1.1" fill="url(#gradient1)" fill-rule="evenodd" stroke="none"/>
    <path d="M1.3 -3.5 L9.05 -3.5 9.15 -3.4 9.4 -3.1 9.4 -2.8 -7.05 -2.8 Q-7.15 -3.15 -6.85 -3.5 L-1.25 -3.5 -1.25 -3.35 Q-1.05 -3.1 -0.7 -3.15 L0.4 -3.2 0.6 -3.2 0.8 -3.25 0.95 -3.35 Q1.2 -3.35 1.3 -3.5 M-4.0 2.3 L-0.3 2.3 2.95 2.3 7.0 2.3 9.5 2.3 9.25 3.05 -6.85 3.05 -6.95 2.3 -4.0 2.3" fill="#ffcc00" fill-rule="evenodd" stroke="none"/>
    <path d="M1.3 -3.5 L1.5 -3.8 8.25 -3.8 8.65 -3.65 8.7 -3.65 9.05 -3.5 1.3 -3.5 M-1.4 -3.8 L-1.4 -3.75 -1.25 -3.55 -1.25 -3.5 -6.85 -3.5 -6.6 -3.8 -1.4 -3.8 M-11.7 1.3 L-9.9 1.3 -9.85 1.6 -9.8 1.7 -10.65 1.7 -11.7 1.3 M9.25 3.05 L9.1 3.2 7.45 3.4 6.1 3.4 -4.7 3.4 -6.65 3.35 -6.85 3.05 9.25 3.05" fill="#ffff00" fill-rule="evenodd" stroke="none"/>
    <path d="M12.0 -1.9 L11.8 -2.1 10.55 -2.3 9.5 -2.3 9.5 -2.4 9.25 -2.4 -2.7 -2.4 -6.2 -2.4 -6.6 -2.4 Q-7.0 -2.2 -7.05 -2.8 L9.4 -2.8 13.0 -2.8 13.05 -2.65 Q13.5 -0.55 13.05 1.8 L13.0 1.9 9.8 1.9 9.45 1.9 9.35 1.75 10.55 1.75 12.05 1.3 12.25 1.15 12.95 0.35 13.0 -0.25 12.8 -1.2 12.75 -1.25 12.25 -1.8 12.0 -1.9 M-6.9 1.85 L-4.65 1.9 -4.65 1.95 -4.45 2.0 -4.25 2.1 -4.0 2.3 -6.95 2.3 -6.9 1.85 M-0.6 1.9 L2.9 1.9 2.9 1.95 2.95 2.3 -0.3 2.3 -0.35 2.2 -0.6 1.9" fill="#db8402" fill-rule="evenodd" stroke="none"/>
    <path d="M-0.4 -2.5 L-0.35 -2.6 -0.25 -2.6 -0.2 -2.55 -0.15 -2.45 Q-0.75 -0.5 -0.15 1.7 L-0.2 1.75 -0.25 1.85 -0.35 1.8 -0.4 1.75 Q-1.05 -0.5 -0.4 -2.5 M-4.9 -2.55 L-4.85 -2.6 -4.75 -2.6 -4.7 -2.55 -4.65 -2.45 Q-5.3 -0.5 -4.65 1.7 L-4.7 1.75 -4.75 1.85 -4.85 1.8 -4.9 1.75 Q-5.6 -0.5 -4.9 -2.55 M3.85 -2.55 L3.9 -2.6 4.0 -2.6 4.05 -2.55 4.1 -2.45 Q3.45 -0.5 4.1 1.7 L4.05 1.75 4.0 1.85 3.9 1.8 3.85 1.75 Q3.15 -0.5 3.85 -2.55" fill="#996600" fill-rule="evenodd" stroke="none"/>
    <path d="M-5.15 -2.55 L-5.1 -2.6 -5.0 -2.6 -4.95 -2.55 -4.9 -2.45 Q-5.55 -0.5 -4.9 1.7 L-4.95 1.75 -5.0 1.85 -5.1 1.8 -5.15 1.75 Q-5.85 -0.5 -5.15 -2.55 M-0.65 -2.5 L-0.6 -2.6 -0.5 -2.6 -0.45 -2.55 -0.4 -2.45 Q-1.0 -0.5 -0.4 1.7 L-0.45 1.75 -0.5 1.85 -0.6 1.8 -0.65 1.75 Q-1.3 -0.5 -0.65 -2.5 M3.6 -2.55 L3.65 -2.6 3.75 -2.6 3.8 -2.55 3.85 -2.45 Q3.2 -0.5 3.85 1.7 L3.8 1.75 3.75 1.85 3.65 1.8 3.6 1.75 Q2.9 -0.5 3.6 -2.55" fill="#ffffff" fill-rule="evenodd" stroke="none"/>
    <path d="M4.0 -3.85 Q7.5 -4.95 10.9 -3.85 L11.15 -3.4 Q11.25 -2.7 10.9 -1.95 L4.0 -1.95 4.0 -3.85" fill="url(#gradient2)" fill-rule="evenodd" stroke="none"/>
    <path d="M4.0 1.3 L10.9 1.3 11.25 2.3 10.9 3.25 Q7.5 4.35 4.0 3.25 L4.0 1.3" fill="url(#gradient3)" fill-rule="evenodd" stroke="none"/>
    <path d="M5.4 -4.35 L5.45 -4.35 5.5 -4.35 5.5 -4.3 Q5.2 -3.35 5.5 -2.25 L5.45 -2.2 5.4 -2.2 5.4 -2.25 Q5.05 -3.35 5.4 -4.35 M7.6 -4.3 L7.6 -4.35 7.65 -4.35 7.7 -4.35 7.7 -4.3 Q7.4 -3.35 7.7 -2.25 L7.65 -2.2 7.6 -2.2 7.6 -2.25 Q7.25 -3.35 7.6 -4.3 M9.65 -4.35 L9.7 -4.35 9.75 -4.35 9.75 -4.3 Q9.45 -3.35 9.75 -2.25 L9.7 -2.2 9.65 -2.2 9.65 -2.25 Q9.3 -3.35 9.65 -4.35" fill="#cc6600" fill-rule="evenodd" stroke="none"/>
    <path d="M5.4 1.45 L5.45 1.45 5.5 1.45 5.5 1.5 Q5.2 2.45 5.5 3.55 L5.45 3.6 5.4 3.6 5.4 3.55 Q5.05 2.45 5.4 1.45 M7.6 1.5 L7.6 1.45 7.65 1.45 7.7 1.45 7.7 1.5 Q7.4 2.45 7.7 3.55 L7.65 3.6 7.6 3.6 7.6 3.55 Q7.25 2.45 7.6 1.5 M9.65 1.45 L9.7 1.45 9.75 1.45 9.75 1.5 Q9.45 2.45 9.75 3.55 L9.7 3.6 9.65 3.6 9.65 3.55 Q9.3 2.45 9.65 1.45" fill="#cc6600" fill-rule="evenodd" stroke="none"/>
    <path d="M11.6 -1.25 Q12.45 -0.05 11.6 1.1 L7.85 1.1 Q7.0 -0.05 7.85 -1.25 L11.6 -1.25" fill="#6b725a" fill-rule="evenodd" stroke="none"/>
    <path d="M-8.2 0.9 L-11.0 0.9 Q-11.85 -0.25 -11.0 -1.45 L-8.2 -1.45 Q-7.8 -0.25 -8.2 0.9" fill="#71785c" fill-rule="evenodd" stroke="none"/>
    <path d="M-8.2 -1.45 L-7.25 -1.45 Q-6.4 -0.25 -7.25 0.9 L-8.2 0.9 Q-7.8 -0.25 -8.2 -1.45" fill="#8a9474" fill-rule="evenodd" stroke="none"/>
    <path d="M-9.45 0.15 L-9.8 0.3 -10.1 0.15 -10.25 -0.15 -10.1 -0.5 -9.8 -0.65 -9.45 -0.5 -9.3 -0.15 -9.45 0.15" fill="#333333" fill-rule="evenodd" stroke="none"/>
    <path d="M10.05 0.25 L9.7 0.4 9.4 0.25 9.25 -0.05 9.4 -0.4 9.7 -0.55 10.05 -0.4 10.2 -0.05 10.05 0.25" fill="#333333" fill-rule="evenodd" stroke="none"/>
  </g>
  <defs>
    <radialGradient cx="0" cy="0" gradientTransform="matrix(0.019, 0.0, 0.0, 0.0036, -1.5, -0.15)" gradientUnits="userSpaceOnUse" id="gradient0" r="819.2" spreadMethod="pad">
      <stop offset="0.0" stop-color="#ffff99"/>
      <stop offset="0.807843137254902" stop-color="#ffff33"/>
      <stop offset="0.9882352941176471" stop-color="#ffcc00"/>
    </radialGradient>
    <radialGradient cx="0" cy="0" gradientTransform="matrix(0.0033, 0.0, 0.0, 0.0026, -13.65, -0.3)" gradientUnits="userSpaceOnUse" id="gradient1" r="819.2" spreadMethod="pad">
      <stop offset="0.0" stop-color="#ffff99"/>
      <stop offset="0.807843137254902" stop-color="#ffff00"/>
      <stop offset="0.9882352941176471" stop-color="#ffcc00"/>
    </radialGradient>
    <linearGradient gradientTransform="matrix(0.0, 0.0014, -0.0015, 0.0, 7.55, -3.2)" gradientUnits="userSpaceOnUse" id="gradient2" spreadMethod="pad" x1="-819.2" x2="819.2">
      <stop offset="0.0" stop-color="#ffff00"/>
      <stop offset="0.807843137254902" stop-color="#ffcc00"/>
      <stop offset="0.9882352941176471" stop-color="#cc9900"/>
    </linearGradient>
    <linearGradient gradientTransform="matrix(0.0, -0.0015, 0.0015, 0.0, 7.6, 2.55)" gradientUnits="userSpaceOnUse" id="gradient3" spreadMethod="pad" x1="-819.2" x2="819.2">
      <stop offset="0.0" stop-color="#ffff00"/>
      <stop offset="0.807843137254902" stop-color="#ffcc00"/>
      <stop offset="0.9882352941176471" stop-color="#cc9900"/>
    </linearGradient>
  </defs>
</svg>
