<?xml version="1.0" encoding="UTF-8" standalone="no"?>
<svg xmlns:ffdec="https://www.free-decompiler.com/flash" xmlns:xlink="http://www.w3.org/1999/xlink" ffdec:objectType="shape" height="14.9px" width="14.9px" xmlns="http://www.w3.org/2000/svg">
  <g transform="matrix(1.0, 0.0, 0.0, 1.0, 7.5, 7.4)">
    <path d="M2.7 -6.9 L5.2 -5.25 5.25 -5.2 Q7.35 -3.1 7.4 0.0 L7.4 0.05 Q7.4 3.15 5.25 5.3 4.1 6.45 2.75 7.0 L0.05 0.1 -0.05 0.0 0.0 0.0 2.7 -6.9 M-2.8 7.0 Q-4.2 6.45 -5.35 5.3 -7.5 3.15 -7.5 0.05 L-7.5 0.0 Q-7.5 -3.05 -5.35 -5.2 L-5.3 -5.25 Q-4.15 -6.4 -2.7 -6.9 L-0.05 -0.1 -0.05 0.0 -0.05 0.05 -2.8 7.0" fill="url(#gradient0)" fill-rule="evenodd" stroke="none"/>
    <path d="M2.75 7.0 L-0.05 7.5 -0.05 0.05 -0.05 0.0 0.05 0.1 2.75 7.0 M-2.7 -6.9 L-0.05 -7.4 0.0 -7.4 -0.05 -0.1 -2.7 -6.9" fill="#444444" fill-opacity="0.5019608" fill-rule="evenodd" stroke="none"/>
    <path d="M0.0 -7.4 L2.7 -6.9 0.0 0.0 -0.05 0.0 -0.05 -0.1 0.0 -7.4 M-0.05 7.5 L-2.8 7.0 -0.05 0.05 -0.05 7.5" fill="#595959" fill-rule="evenodd" stroke="none"/>
  </g>
  <defs>
    <radialGradient cx="0" cy="0" gradientTransform="matrix(0.0103, 0.0, 0.0, 0.0103, -0.05, 0.05)" gradientUnits="userSpaceOnUse" id="gradient0" r="819.2" spreadMethod="pad">
      <stop offset="0.3607843137254902" stop-color="#ffffff" stop-opacity="0.0"/>
      <stop offset="0.6313725490196078" stop-color="#ffffff" stop-opacity="0.0"/>
      <stop offset="1.0" stop-color="#ffffff" stop-opacity="0.5803922"/>
    </radialGradient>
  </defs>
</svg>
