<?xml version="1.0" encoding="UTF-8" standalone="no"?>
<svg xmlns:ffdec="https://www.free-decompiler.com/flash" xmlns:xlink="http://www.w3.org/1999/xlink" ffdec:objectType="shape" height="16.9px" width="17.3px" xmlns="http://www.w3.org/2000/svg">
  <g transform="matrix(1.0, 0.0, 0.0, 1.0, 8.65, 8.5)">
    <path d="M4.3 -7.95 Q4.45 -8.25 4.95 -8.3 L7.3 -8.25 7.65 -7.5 8.25 -7.5 8.45 -6.8 8.45 -1.55 8.25 -1.45 8.25 -1.85 8.3 -1.9 8.25 -1.95 8.25 -2.4 8.3 -2.45 8.25 -2.5 8.25 -2.9 8.25 -2.95 8.25 -3.05 8.25 -3.5 8.25 -3.55 8.25 -3.65 8.25 -4.05 8.25 -4.1 8.25 -4.2 8.2 -4.6 8.25 -4.65 8.2 -4.7 8.2 -5.15 8.25 -5.25 8.2 -5.35 8.2 -5.75 8.2 -5.8 8.2 -5.85 8.15 -6.3 8.2 -6.3 8.2 -6.35 8.2 -6.4 8.15 -6.45 8.15 -6.95 8.15 -7.0 8.2 -7.0 8.15 -7.05 8.15 -7.35 7.05 -7.35 7.05 -8.0 7.05 -8.05 4.55 -8.1 4.55 -8.0 4.55 -7.35 -6.95 -7.35 -6.95 -7.2 -7.0 -7.1 -6.95 -7.05 -6.95 -6.55 -7.0 -6.5 -7.0 -6.4 -7.0 -6.0 -7.05 -5.9 -7.05 -5.85 -7.05 -5.45 -7.05 -5.35 -7.05 -5.3 -7.1 -4.85 -7.15 -4.75 -7.1 -4.7 -7.15 -4.35 -7.15 -4.3 -7.15 -4.2 -7.15 -3.75 -7.2 -3.7 -7.15 -3.65 -7.2 -3.15 -7.25 -3.1 -7.2 -3.05 -7.25 -2.65 -7.25 -2.55 -7.25 -2.5 -7.25 -2.1 -7.3 -2.0 -7.25 -2.0 -7.3 -1.55 8.2 -1.45 7.5 -1.2 -7.35 -1.05 -7.55 4.95 -7.15 4.95 -7.15 5.2 -8.1 5.2 -8.1 4.5 Q-7.9 4.25 -8.0 2.2 L-8.2 -0.5 -8.0 -1.8 -7.85 -2.55 -7.55 -2.55 -7.55 -4.25 Q-7.2 -6.55 -7.2 -7.5 L4.3 -7.5 4.3 -7.95 M8.45 4.8 L8.3 4.85 8.3 4.6 6.6 5.35 4.15 4.6 4.75 3.95 6.8 1.65 8.0 3.55 8.25 0.65 8.45 -1.55 8.45 4.45 8.45 4.8 M-0.95 7.9 L-2.7 8.2 -2.75 8.2 -3.1 8.3 -3.15 8.3 -3.55 8.35 -3.95 8.4 -3.65 8.3 -3.55 8.25 -2.3 8.1 -2.2 8.05 -1.5 7.95 -1.45 7.95 -1.0 7.85 -0.95 7.9 M-4.15 8.4 L-4.25 8.4 -4.25 1.2 -4.15 1.25 -4.15 8.4 M-4.6 8.35 L-7.2 7.9 -7.15 7.8 -4.6 8.35 M6.45 2.05 L6.5 2.05 6.65 5.25 8.45 4.45 6.5 2.0 6.45 2.05 4.35 4.5 6.55 5.3 6.5 3.8 6.45 2.05" fill="#ffffff" fill-rule="evenodd" stroke="none"/>
    <path d="M-5.5 -7.05 L-6.95 -7.05 -7.0 -7.1 -5.5 -7.05" fill="#d8bab8" fill-rule="evenodd" stroke="none"/>
    <path d="M4.3 -7.95 L4.3 -8.5 7.3 -8.5 7.3 -8.25 4.95 -8.3 Q4.45 -8.25 4.3 -7.95 M8.25 -7.5 L8.65 -7.5 8.65 -4.95 8.55 4.35 8.45 4.8 8.45 4.45 8.45 -1.55 8.45 -6.8 8.25 -7.5 M-8.1 4.5 L-8.65 4.4 -8.65 -2.55 -7.85 -2.55 -8.0 -1.8 -8.2 -0.5 -8.0 2.2 Q-7.9 4.25 -8.1 4.5 M-7.55 -4.25 L-7.55 -7.5 -7.2 -7.5 Q-7.2 -6.55 -7.55 -4.25" fill="#9b9f9d" fill-rule="evenodd" stroke="none"/>
    <path d="M4.55 -8.0 L4.55 -8.1 7.05 -8.05 7.05 -8.0 4.55 -8.0" fill="#fffffd" fill-rule="evenodd" stroke="none"/>
    <path d="M2.1 4.9 L2.05 5.75 -1.0 5.85 -1.05 4.95 2.1 4.9" fill="#675b54" fill-rule="evenodd" stroke="none"/>
    <path d="M1.9 6.6 L-1.0 6.75 -1.0 5.85 2.05 5.75 1.9 6.6 M2.1 4.6 L2.1 4.9 -1.05 4.95 -1.05 4.6 2.1 4.6" fill="#4e453f" fill-rule="evenodd" stroke="none"/>
    <path d="M2.4 4.6 L2.4 6.75 1.9 6.6 2.05 5.75 2.1 4.9 2.1 4.6 2.4 4.6" fill="#83746b" fill-rule="evenodd" stroke="none"/>
    <path d="M8.3 4.85 L8.3 7.8 -0.9 7.85 -1.0 6.75 1.9 6.6 2.4 6.75 2.4 4.6 4.15 4.6 6.6 5.35 8.3 4.6 8.3 4.85" fill="url(#gradient0)" fill-rule="evenodd" stroke="none"/>
    <path d="M8.15 -7.05 L8.2 -7.0 8.15 -7.0 7.05 -7.0 7.05 -7.05 8.15 -7.05 M8.15 -6.45 L8.2 -6.4 8.2 -6.35 -7.0 -6.5 -6.95 -6.55 8.15 -6.45 M8.2 -5.85 L8.2 -5.8 -7.05 -5.9 -7.0 -6.0 8.2 -5.85 M8.2 -5.35 L8.25 -5.25 -7.05 -5.35 -7.05 -5.45 8.2 -5.35 M8.2 -4.7 L8.25 -4.65 -7.15 -4.75 -7.1 -4.85 8.2 -4.7 M8.25 -4.2 L8.25 -4.1 -7.15 -4.3 -7.15 -4.35 8.25 -4.2 M8.25 -3.65 L8.25 -3.55 6.1 -3.55 -7.15 -3.65 -7.2 -3.7 -7.15 -3.75 8.25 -3.65 M8.25 -3.05 L8.25 -2.95 6.1 -2.95 -7.2 -3.05 -7.25 -3.1 -7.2 -3.15 8.25 -3.05 M8.25 -2.5 L8.3 -2.45 -7.25 -2.55 -7.25 -2.65 8.25 -2.5 M8.25 -1.95 L8.3 -1.9 8.25 -1.85 -7.25 -2.0 -7.3 -2.0 -7.25 -2.1 8.25 -1.95 M8.25 -1.45 L8.45 -1.55 8.25 0.65 3.8 2.85 -1.45 2.9 -1.45 2.75 -1.5 2.9 -2.25 2.9 Q-2.6 2.5 -3.85 1.55 L-3.9 1.45 -4.15 1.25 -4.25 1.2 Q-7.15 3.95 -7.15 4.95 L-7.55 4.95 -7.35 -1.05 7.5 -1.2 8.2 -1.45 8.25 -1.45 M6.7 -7.4 L5.2 -7.4 5.2 -6.95 5.05 -7.05 Q4.9 -7.25 4.9 -7.75 L6.7 -7.75 6.7 -7.4 M4.55 -7.0 L-5.5 -7.05 -7.0 -7.1 -6.95 -7.2 4.55 -7.05 4.55 -7.0" fill="url(#gradient1)" fill-rule="evenodd" stroke="none"/>
    <path d="M-0.9 7.85 L-0.95 7.9 -1.0 7.85 -1.45 2.9 3.8 2.85 5.7 2.8 4.75 3.95 4.15 4.6 2.4 4.6 2.1 4.6 -1.05 4.6 -1.05 4.95 -1.0 5.85 -1.0 6.75 -0.9 7.85 M-4.25 8.4 L-4.6 8.35 -7.15 7.8 -7.15 5.2 -7.15 4.95 Q-7.15 3.95 -4.25 1.2 L-4.25 8.4 M6.45 2.05 L6.5 3.8 6.55 5.3 4.35 4.5 6.45 2.05" fill="#4f4f4f" fill-rule="evenodd" stroke="none"/>
    <path d="M3.8 2.85 L8.25 0.65 8.0 3.55 6.8 1.65 4.75 3.95 5.7 2.8 3.8 2.85" fill="#595959" fill-rule="evenodd" stroke="none"/>
    <path d="M-3.95 8.4 L-4.15 8.4 -4.15 1.25 -3.9 1.45 -3.85 1.55 Q-2.6 2.5 -2.25 2.9 L-1.5 2.9 -1.45 2.75 -1.45 2.9 -1.0 7.85 -1.45 7.95 -1.5 7.95 -2.2 8.05 -2.3 8.1 -3.55 8.25 -3.65 8.3 -3.95 8.4 M6.45 2.05 L6.5 2.0 8.45 4.45 6.65 5.25 6.5 2.05 6.45 2.05" fill="#6e6e6e" fill-rule="evenodd" stroke="none"/>
    <path d="M5.2 -6.95 L5.2 -7.4 6.7 -7.4 6.7 -6.95 5.2 -6.95" fill="#707070" fill-rule="evenodd" stroke="none"/>
    <path d="M4.55 -8.0 L7.05 -8.0 7.05 -7.35 7.05 -7.05 7.05 -7.0 7.05 -6.95 7.05 -6.8 4.55 -6.7 4.55 -7.0 4.55 -7.05 4.55 -7.35 4.55 -8.0 M5.2 -6.95 L6.7 -6.95 6.7 -7.4 6.7 -7.75 4.9 -7.75 Q4.9 -7.25 5.05 -7.05 L5.2 -6.95" fill="#b5b5b5" fill-rule="evenodd" stroke="none"/>
    <path d="M7.05 -7.35 L8.15 -7.35 8.15 -7.05 7.05 -7.05 7.05 -7.35 M8.15 -6.95 L8.15 -6.45 -6.95 -6.55 -6.95 -7.05 -5.5 -7.05 4.55 -7.0 4.55 -6.7 7.05 -6.8 7.05 -6.95 8.15 -6.95 M8.15 -6.3 L8.2 -5.85 -7.0 -6.0 -7.0 -6.4 8.15 -6.3 M8.2 -5.75 L8.2 -5.35 -7.05 -5.45 -7.05 -5.85 8.2 -5.75 M8.2 -5.15 L8.2 -4.7 -7.1 -4.85 -7.05 -5.3 8.2 -5.15 M8.2 -4.6 L8.25 -4.2 -7.15 -4.35 -7.1 -4.7 8.2 -4.6 M8.25 -4.05 L8.25 -3.65 -7.15 -3.75 -7.15 -4.2 8.25 -4.05 M8.25 -3.5 L8.25 -3.05 -7.2 -3.15 -7.15 -3.65 6.1 -3.55 8.25 -3.5 M8.25 -2.9 L8.25 -2.5 -7.25 -2.65 -7.2 -3.05 6.1 -2.95 8.25 -2.9 M8.25 -2.4 L8.25 -1.95 -7.25 -2.1 -7.25 -2.5 8.25 -2.4 M8.25 -1.85 L8.25 -1.45 8.2 -1.45 -7.3 -1.55 -7.25 -2.0 8.25 -1.85 M4.55 -7.35 L4.55 -7.05 -6.95 -7.2 -6.95 -7.35 4.55 -7.35" fill="#999999" fill-rule="evenodd" stroke="none"/>
    <path d="M8.15 -7.0 L8.15 -6.95 7.05 -6.95 7.05 -7.0 8.15 -7.0 M8.2 -6.35 L8.2 -6.3 8.15 -6.3 -7.0 -6.4 -7.0 -6.5 8.2 -6.35 M8.2 -5.8 L8.2 -5.75 -7.05 -5.85 -7.05 -5.9 8.2 -5.8 M8.25 -5.25 L8.2 -5.15 -7.05 -5.3 -7.05 -5.35 8.25 -5.25 M8.25 -4.65 L8.2 -4.6 -7.1 -4.7 -7.15 -4.75 8.25 -4.65 M8.25 -4.1 L8.25 -4.05 -7.15 -4.2 -7.15 -4.3 8.25 -4.1 M8.25 -3.55 L8.25 -3.5 6.1 -3.55 8.25 -3.55 M8.25 -2.95 L8.25 -2.9 6.1 -2.95 8.25 -2.95 M8.3 -2.45 L8.25 -2.4 -7.25 -2.5 -7.25 -2.55 8.3 -2.45" fill="#d5d5d5" fill-rule="evenodd" stroke="none"/>
  </g>
  <defs>
    <linearGradient gradientTransform="matrix(0.0, 0.0016, -0.002, 0.0, 3.65, 6.2)" gradientUnits="userSpaceOnUse" id="gradient0" spreadMethod="pad" x1="-819.2" x2="819.2">
      <stop offset="0.0" stop-color="#91a2a0"/>
      <stop offset="1.0" stop-color="#c8d0d0"/>
    </linearGradient>
    <linearGradient gradientTransform="matrix(0.0, 0.0012, -0.0038, 0.0, 0.5, 0.05)" gradientUnits="userSpaceOnUse" id="gradient1" spreadMethod="pad" x1="-819.2" x2="819.2">
      <stop offset="0.0" stop-color="#4f4f4f"/>
      <stop offset="1.0" stop-color="#595959"/>
    </linearGradient>
  </defs>
</svg>
