<?xml version="1.0" encoding="UTF-8" standalone="no"?>
<svg xmlns:ffdec="https://www.free-decompiler.com/flash" xmlns:xlink="http://www.w3.org/1999/xlink" ffdec:objectType="shape" height="17.8px" width="16.45px" xmlns="http://www.w3.org/2000/svg">
  <g transform="matrix(1.0, 0.0, 0.0, 1.0, 8.25, 8.9)">
    <path d="M8.2 -8.65 L8.1 -8.25 8.1 -8.2 8.0 -7.55 8.0 -7.5 7.9 -6.95 7.85 -6.9 7.7 -5.7 7.65 -5.65 7.4 -4.3 8.2 0.35 8.2 0.6 -8.2 0.6 -8.25 0.6 -8.25 0.55 -8.2 0.35 -7.45 -4.3 -7.5 -4.75 -7.55 -4.75 -7.65 -5.65 -7.7 -5.7 -7.9 -6.9 -7.9 -6.95 -8.0 -7.5 -8.0 -7.55 -8.15 -8.2 -8.15 -8.25 -8.2 -8.65 -8.25 -8.85 -8.25 -8.9 -8.2 -8.9 -8.2 -8.85 -8.1 -8.3 -8.05 -8.25 -8.05 -8.2 -7.95 -7.6 -7.95 -7.55 -7.95 -7.5 -7.85 -6.95 -7.85 -6.9 -7.85 -6.85 -7.75 -6.3 -7.75 -6.2 -7.65 -5.75 -7.65 -5.7 -7.6 -5.65 -7.55 -5.25 -7.55 -5.2 -7.55 -5.15 -7.5 -4.8 -7.45 -4.75 -7.4 -4.4 7.35 -4.4 7.4 -4.75 7.45 -4.75 7.45 -4.8 7.5 -5.15 7.5 -5.2 7.55 -5.25 7.6 -5.65 7.6 -5.7 7.65 -5.75 7.7 -6.2 7.7 -6.3 7.8 -6.85 7.8 -6.9 7.8 -6.95 7.9 -7.5 7.95 -7.55 7.95 -7.6 8.05 -8.2 8.05 -8.25 8.05 -8.3 8.15 -8.85 8.15 -8.9 8.2 -8.9 8.2 -8.65 M7.35 -4.3 L-7.4 -4.3 -8.2 0.55 8.15 0.55 7.35 -4.3" fill="#ffffff" fill-rule="evenodd" stroke="none"/>
    <path d="M7.5 -5.2 L7.5 -5.15 7.2 -5.15 7.5 -5.2 M2.05 -5.15 L1.75 -5.15 1.7 -5.2 2.05 -5.15" fill="#d6a0a6" fill-rule="evenodd" stroke="none"/>
    <path d="M-0.95 -5.25 L-1.0 -5.25 -1.0 -5.2 -1.0 -5.15 -1.05 -5.05 -1.2 -4.9 -1.35 -4.8 -1.4 -4.8 -1.75 -5.15 -1.7 -5.2 -1.7 -5.25 -1.5 -5.6 -1.45 -5.6 -1.0 -5.45 -0.95 -5.25 M-7.5 1.3 L-2.2 1.3 -2.2 3.0 -0.95 3.0 -1.45 5.1 -1.45 5.15 -5.4 5.3 -5.4 4.55 Q-4.2 4.05 -4.7 3.0 L-4.65 2.65 -5.0 2.1 Q-5.25 1.85 -5.65 1.85 -6.0 1.9 -6.2 2.2 L-6.45 2.75 -6.65 3.0 -7.5 3.0 -7.5 1.3" fill="#4b5453" fill-rule="evenodd" stroke="none"/>
    <path d="M-8.0 1.15 L-8.0 0.8 0.3 0.8 0.3 3.25 3.0 0.8 3.2 0.8 2.7 2.0 2.3 3.25 1.95 3.25 1.4 3.25 0.65 3.25 0.3 3.25 -0.5 3.25 -0.95 3.0 -2.2 3.0 -2.2 1.3 -7.5 1.3 -7.5 1.15 -8.0 1.15" fill="#0a0c0b" fill-rule="evenodd" stroke="none"/>
    <path d="M-6.45 2.75 L-6.2 2.2 Q-6.0 1.9 -5.65 1.85 -5.25 1.85 -5.0 2.1 L-4.65 2.65 -4.7 3.0 -4.85 3.35 Q-5.1 3.6 -5.45 3.65 L-6.15 3.45 -6.45 2.85 -6.45 2.75 M-6.05 3.05 L-5.9 3.25 -5.5 3.35 -5.15 3.2 -5.05 2.8 -5.1 2.5 -5.2 2.45 -5.6 2.35 Q-5.6 1.95 -6.25 2.65 L-6.15 3.0 -6.05 3.05" fill="#e7eaf1" fill-rule="evenodd" stroke="none"/>
    <path d="M-1.45 8.8 L8.05 8.8 8.05 0.8 8.1 0.8 8.1 8.8 8.05 8.8 8.05 8.9 -1.45 8.9 -1.45 8.8 M-1.5 8.8 L-1.6 8.8 -1.6 5.9 -1.6 5.65 -1.55 5.6 -1.5 5.65 -1.5 8.8" fill="#e3d7d7" fill-rule="evenodd" stroke="none"/>
    <path d="M-4.7 3.0 Q-4.2 4.05 -5.4 4.55 L-5.45 3.85 -6.65 3.85 -6.65 3.0 -6.45 2.75 -6.45 2.85 -6.15 3.45 -5.45 3.65 Q-5.1 3.6 -4.85 3.35 L-4.7 3.0" fill="#3d4341" fill-rule="evenodd" stroke="none"/>
    <path d="M-5.55 5.55 L-8.0 5.55 -8.0 1.15 -7.5 1.15 -7.5 1.3 -7.5 3.0 -6.65 3.0 -6.65 3.85 -5.45 3.85 -5.4 4.55 -5.4 5.3 -5.35 5.35 -5.35 5.55 -5.55 5.55" fill="#1f2425" fill-rule="evenodd" stroke="none"/>
    <path d="M-6.05 3.05 Q-5.8 3.25 -5.7 2.95 L-5.6 2.35 -5.2 2.45 -5.1 2.5 -5.05 2.8 -5.15 3.2 -5.5 3.35 -5.9 3.25 -6.05 3.05" fill="#a6abae" fill-rule="evenodd" stroke="none"/>
    <path d="M-5.6 2.35 L-5.7 2.95 Q-5.8 3.25 -6.05 3.05 L-6.15 3.0 -6.25 2.65 Q-5.6 1.95 -5.6 2.35" fill="#717c7d" fill-rule="evenodd" stroke="none"/>
    <path d="M-1.6 5.9 L-5.1 5.95 -1.8 5.55 -1.85 5.3 -5.35 5.35 -5.4 5.3 -1.45 5.15 -1.45 5.1 -0.95 5.3 -0.5 3.25 0.3 3.25 0.65 3.25 0.65 4.85 -0.2 8.55 -1.0 8.55 -1.0 5.65 -1.5 5.65 -1.55 5.6 -1.6 5.65 -1.6 5.9 M2.7 2.0 L3.2 0.8 7.7 0.8 7.7 8.55 2.8 8.55 2.7 2.0" fill="#bd9c6b" fill-rule="evenodd" stroke="none"/>
    <path d="M8.05 -8.25 L8.05 -8.2 -8.05 -8.2 -8.05 -8.25 8.05 -8.25 M7.95 -7.55 L7.9 -7.5 -7.95 -7.5 -7.95 -7.55 7.95 -7.55 M7.8 -6.9 L7.8 -6.85 -7.85 -6.85 -7.85 -6.9 7.8 -6.9 M7.6 -5.7 L7.6 -5.65 1.2 -5.65 1.3 -5.6 -0.95 -5.65 -0.55 -5.35 -0.6 -5.25 -0.95 -5.25 -1.0 -5.45 -1.45 -5.6 -1.2 -5.65 -7.6 -5.65 -7.65 -5.7 7.6 -5.7 M-7.55 -5.15 L-7.55 -5.2 -7.25 -5.15 -7.55 -5.15 M-8.2 0.6 L8.2 0.6 8.2 0.8 8.1 0.8 8.05 0.8 8.05 8.8 -1.45 8.8 -1.45 8.55 -1.0 8.55 -0.2 8.55 1.0 8.55 1.25 7.65 1.4 3.25 1.95 3.25 1.95 8.55 2.3 8.55 2.8 8.55 7.7 8.55 7.7 0.8 3.2 0.8 3.0 0.8 0.3 0.8 -8.0 0.8 -8.25 0.8 -8.2 0.6 M-1.0 -5.2 L1.0 -5.2 1.75 -5.15 -0.65 -5.15 -0.9 -4.9 -1.2 -4.9 -1.05 -5.05 -1.0 -5.15 -1.0 -5.2 M-1.95 -5.15 L-1.7 -5.2 -1.75 -5.15 -1.95 -5.15" fill="#d6c1a0" fill-rule="evenodd" stroke="none"/>
    <path d="M3.0 0.8 L0.3 3.25 0.3 0.8 3.0 0.8 M2.3 3.25 L2.7 2.0 2.8 8.55 2.3 8.55 2.3 3.25" fill="#a8834d" fill-rule="evenodd" stroke="none"/>
    <path d="M0.65 3.25 L1.4 3.25 1.25 7.65 1.0 8.55 -0.2 8.55 0.65 4.85 0.65 3.25" fill="#ccb18a" fill-rule="evenodd" stroke="none"/>
    <path d="M-1.45 8.8 L-1.5 8.8 -1.5 5.65 -1.0 5.65 -1.0 8.55 -1.45 8.55 -1.45 8.8" fill="#a68048" fill-rule="evenodd" stroke="none"/>
    <path d="M7.35 -4.3 L8.15 0.55 -8.2 0.55 -7.4 -4.3 7.35 -4.3" fill="url(#gradient0)" fill-rule="evenodd" stroke="none"/>
    <path d="M8.15 -8.85 L8.05 -8.3 -8.1 -8.3 -8.2 -8.85 8.15 -8.85 M8.05 -8.2 L7.95 -7.6 -7.95 -7.6 -8.05 -8.2 8.05 -8.2 M7.9 -7.5 L7.8 -6.95 -7.85 -6.95 -7.95 -7.5 7.9 -7.5 M7.8 -6.85 L7.7 -6.3 -0.4 -6.3 -0.45 -6.3 -7.75 -6.3 -7.85 -6.85 7.8 -6.85 M7.7 -6.2 L7.65 -5.75 -7.65 -5.75 -7.75 -6.2 7.7 -6.2 M7.6 -5.65 L7.55 -5.25 1.65 -5.25 1.65 -5.2 1.7 -5.2 1.75 -5.15 2.05 -5.15 7.2 -5.15 7.5 -5.15 7.45 -4.8 -1.35 -4.8 -1.2 -4.9 -0.9 -4.9 -0.65 -5.15 1.75 -5.15 1.0 -5.2 1.0 -5.25 -0.6 -5.25 -0.55 -5.35 -0.95 -5.65 1.3 -5.6 1.2 -5.65 7.6 -5.65 M7.4 -4.75 L7.35 -4.4 -7.4 -4.4 -7.45 -4.75 7.4 -4.75 M-7.5 -4.8 L-7.55 -5.15 -7.25 -5.15 -1.95 -5.15 -1.75 -5.15 -1.4 -4.8 -7.5 -4.8 M-7.55 -5.25 L-7.6 -5.65 -1.2 -5.65 -1.45 -5.6 -1.5 -5.6 -1.7 -5.25 -7.55 -5.25" fill="#decfb8" fill-rule="evenodd" stroke="none"/>
    <path d="M8.05 -8.3 L8.05 -8.25 -8.05 -8.25 -8.1 -8.3 8.05 -8.3 M7.95 -7.6 L7.95 -7.55 -7.95 -7.55 -7.95 -7.6 7.95 -7.6 M7.8 -6.95 L7.8 -6.9 -7.85 -6.9 -7.85 -6.95 7.8 -6.95 M7.7 -6.3 L7.7 -6.2 -7.75 -6.2 -7.75 -6.3 -0.45 -6.3 -0.4 -6.3 7.7 -6.3 M7.65 -5.75 L7.6 -5.7 -7.65 -5.7 -7.65 -5.75 7.65 -5.75 M7.55 -5.25 L7.5 -5.2 7.2 -5.15 2.05 -5.15 1.7 -5.2 1.65 -5.2 1.65 -5.25 7.55 -5.25 M7.45 -4.8 L7.45 -4.75 7.4 -4.75 -7.45 -4.75 -7.5 -4.8 -1.4 -4.8 -1.35 -4.8 7.45 -4.8 M-7.55 -5.2 L-7.55 -5.25 -1.7 -5.25 -1.7 -5.2 -1.95 -5.15 -7.25 -5.15 -7.55 -5.2 M-0.6 -5.25 L1.0 -5.25 1.0 -5.2 -1.0 -5.2 -1.0 -5.25 -0.95 -5.25 -0.6 -5.25" fill="#c7ab83" fill-rule="evenodd" stroke="none"/>
    <path d="M8.2 0.35 L7.4 -4.3 7.65 -5.65 7.7 -5.7 7.85 -6.9 7.9 -6.95 8.0 -7.5 8.0 -7.55 8.1 -8.2 8.1 -8.25 8.2 -8.65 8.2 0.35 M-8.2 -8.65 L-8.15 -8.25 -8.15 -8.2 -8.0 -7.55 -8.0 -7.5 -7.9 -6.95 -7.9 -6.9 -7.7 -5.7 -7.65 -5.65 -7.55 -4.75 -7.5 -4.75 -7.45 -4.3 -8.2 0.35 -8.2 -8.65" fill="#524637" fill-rule="evenodd" stroke="none"/>
    <path d="M1.95 3.25 L2.3 3.25 2.3 8.55 1.95 8.55 1.95 3.25" fill="#b3a491" fill-rule="evenodd" stroke="none"/>
    <path d="M-5.1 5.95 L-5.55 5.55 -5.35 5.55 -5.35 5.35 -1.85 5.3 -1.8 5.55 -5.1 5.95 M-0.95 3.0 L-0.5 3.25 -0.95 5.3 -1.45 5.1 -0.95 3.0" fill="#bfb3a4" fill-rule="evenodd" stroke="none"/>
  </g>
  <defs>
    <linearGradient gradientTransform="matrix(0.0, 0.003, -0.0031, 0.0, 3.9, -1.7)" gradientUnits="userSpaceOnUse" id="gradient0" spreadMethod="pad" x1="-819.2" x2="819.2">
      <stop offset="0.0" stop-color="#b3a291"/>
      <stop offset="1.0" stop-color="#decfb8"/>
    </linearGradient>
  </defs>
</svg>
