<?xml version="1.0" encoding="UTF-8" standalone="no"?>
<svg xmlns:ffdec="https://www.free-decompiler.com/flash" xmlns:xlink="http://www.w3.org/1999/xlink" ffdec:objectType="shape" height="14.95px" width="14.95px" xmlns="http://www.w3.org/2000/svg">
  <g transform="matrix(1.0, 0.0, 0.0, 1.0, 7.5, 7.45)">
    <path d="M-2.85 6.95 Q-4.2 6.4 -5.3 5.3 L-0.05 0.1 0.0 0.0 0.0 0.05 -2.85 6.95 M2.9 -6.85 Q4.2 -6.3 5.25 -5.25 L5.3 -5.2 0.05 -0.05 2.9 -6.85" fill="#808080" fill-opacity="0.5019608" fill-rule="evenodd" stroke="none"/>
    <path d="M7.0 -2.65 Q7.45 -1.4 7.45 0.05 7.45 3.05 5.3 5.3 L5.25 5.35 Q3.05 7.55 0.0 7.5 -1.55 7.5 -2.85 6.95 L0.0 0.05 0.0 0.0 0.15 0.0 7.0 -2.65 M-7.0 2.8 Q-7.5 1.5 -7.5 0.0 -7.5 -3.0 -5.3 -5.2 L-5.25 -5.25 Q-3.1 -7.4 -0.05 -7.45 L0.0 -7.4 Q1.55 -7.4 2.9 -6.85 L0.05 -0.05 0.0 0.0 -0.05 0.1 -7.0 2.8" fill="url(#gradient0)" fill-rule="evenodd" stroke="none"/>
    <path d="M5.3 -5.2 Q6.45 -4.05 7.0 -2.65 L0.15 0.0 0.0 0.0 0.05 -0.05 5.3 -5.2 M-5.3 5.3 Q-6.45 4.15 -7.0 2.8 L-0.05 0.1 -5.3 5.3" fill="#c4c4c4" fill-rule="evenodd" stroke="none"/>
  </g>
  <defs>
    <radialGradient cx="0" cy="0" gradientTransform="matrix(0.0073, 0.0073, -0.0073, 0.0073, -0.05, 0.05)" gradientUnits="userSpaceOnUse" id="gradient0" r="819.2" spreadMethod="pad">
      <stop offset="0.3607843137254902" stop-color="#ffffff" stop-opacity="0.0"/>
      <stop offset="0.6313725490196078" stop-color="#ffffff" stop-opacity="0.0"/>
      <stop offset="1.0" stop-color="#ffffff" stop-opacity="0.5803922"/>
    </radialGradient>
  </defs>
</svg>
