<?xml version="1.0" encoding="UTF-8" standalone="no"?>
<svg xmlns:ffdec="https://www.free-decompiler.com/flash" xmlns:xlink="http://www.w3.org/1999/xlink" ffdec:objectType="shape" height="17.0px" width="12.65px" xmlns="http://www.w3.org/2000/svg">
  <g transform="matrix(1.0, 0.0, 0.0, 1.0, 6.35, 8.5)">
    <path d="M-2.85 -5.95 L-1.6 -8.5 2.15 -8.5 2.15 -8.35 -0.05 -8.15 -1.0 -8.15 -0.95 -7.85 Q-1.85 -7.5 -2.3 -6.8 L-2.85 -5.7 -2.85 -5.95 M5.25 -4.25 L5.8 -4.2 5.75 -4.15 3.2 -4.25 3.1 -0.35 3.05 -0.4 3.1 -4.25 3.2 -4.25 5.25 -4.25 M-5.9 -1.85 L-6.0 -1.9 -6.0 -4.35 -5.45 -4.35 -1.5 -4.35 -1.5 -4.25 -2.2 -3.85 -3.85 -4.0 -4.55 -3.65 -5.3 -3.65 -5.3 -2.45 -5.45 -2.1 -5.9 -1.85 M1.5 -7.7 L1.55 -6.9 -0.25 -6.9 -0.25 -7.65 1.5 -7.7 M1.6 -6.65 L1.6 -6.4 2.45 -6.4 2.45 -5.95 1.75 -5.85 -1.1 -6.0 -0.25 -6.65 1.6 -6.65 M0.65 -3.35 L0.6 -3.45 3.1 -4.25 1.7 -3.75 0.65 -3.35 M-0.75 -3.1 L-0.75 -2.85 -2.25 -2.85 -2.25 -3.65 Q-1.15 -3.55 -0.75 -3.1" fill="#fef5ef" fill-rule="evenodd" stroke="none"/>
    <path d="M-2.85 -5.7 L-2.3 -6.8 Q-1.85 -7.5 -0.95 -7.85 L-0.7 -7.6 -0.7 -6.55 -1.85 -6.5 -1.85 -6.35 Q-2.25 -6.35 -2.25 -5.55 L-5.35 -5.5 -5.35 -5.7 -2.85 -5.7 M-0.05 -8.15 L2.15 -8.35 Q2.15 -7.5 2.4 -6.9 L2.6 -5.95 2.45 -5.95 2.45 -6.4 1.6 -6.4 1.6 -6.65 1.55 -6.9 1.5 -7.7 1.65 -7.75 1.75 -8.15 -0.05 -8.15" fill="#d5cac4" fill-rule="evenodd" stroke="none"/>
    <path d="M-0.95 -7.85 L-1.0 -8.15 -0.05 -8.15 1.75 -8.15 1.65 -7.75 1.5 -7.7 -0.25 -7.65 -0.25 -6.9 -0.25 -6.65 -1.1 -6.0 -1.3 -5.55 Q-1.45 -5.15 -1.7 -5.15 -1.7 -6.35 -1.85 -6.35 L-1.85 -6.5 -0.7 -6.55 -0.7 -7.6 -0.95 -7.85 M-0.75 -3.5 L-0.75 -3.1 Q-1.15 -3.55 -2.25 -3.65 L-2.2 -3.85 -1.4 -3.85 -0.75 -3.5" fill="#aa9588" fill-rule="evenodd" stroke="none"/>
    <path d="M-5.8 8.5 L-5.9 8.5 -5.85 3.05 -5.8 4.8 -5.8 8.5 M-6.0 1.2 L-6.35 1.2 -6.35 -1.15 -6.1 -1.15 -6.1 1.05 -6.0 1.2" fill="#989893" fill-rule="evenodd" stroke="none"/>
    <path d="M-5.6 8.5 L-5.8 8.5 -5.8 4.8 -5.85 3.05 -5.85 1.2 -6.0 1.2 -6.1 1.05 -6.1 -1.15 -5.6 -1.2 -5.6 -1.0 -5.7 -0.9 -5.6 -0.7 -5.6 -0.65 -5.6 0.75 -5.6 1.1 -5.6 3.15 -5.6 4.05 -5.6 6.95 -5.6 7.8 -5.6 8.5" fill="#82827d" fill-rule="evenodd" stroke="none"/>
    <path d="M-5.6 -1.85 L-5.9 -1.85 -5.45 -2.1 -5.55 -1.85 -5.6 -1.85 M-1.4 -3.85 L-2.2 -3.85 -1.5 -4.25 -1.4 -3.85" fill="#d2cdc6" fill-rule="evenodd" stroke="none"/>
    <path d="M1.5 -5.55 L1.5 -4.75 -1.1 -4.75 -1.1 -5.55 1.5 -5.55 M-1.1 -5.85 L-1.1 -6.0 1.75 -5.85 1.5 -5.85 -1.1 -5.85" fill="#bfafa6" fill-rule="evenodd" stroke="none"/>
    <path d="M2.6 -5.75 Q2.55 -4.8 2.3 -4.4 L2.2 -4.25 -1.1 -4.4 -1.85 -4.4 -1.85 -5.05 -1.85 -6.35 Q-1.7 -6.35 -1.7 -5.15 -1.45 -5.15 -1.3 -5.55 L-1.1 -6.0 -1.1 -5.85 -1.1 -5.55 -1.1 -4.75 1.5 -4.75 1.5 -5.55 1.5 -5.85 1.75 -5.85 2.6 -5.75" fill="#666666" fill-rule="evenodd" stroke="none"/>
    <path d="M2.45 -5.95 L2.6 -5.95 2.6 -5.75 1.75 -5.85 2.45 -5.95 M-1.1 -5.55 L-1.1 -5.85 1.5 -5.85 1.5 -5.55 -1.1 -5.55 M-1.85 -6.35 L-1.85 -5.05 -5.35 -5.05 -5.35 -5.5 -2.25 -5.55 Q-2.25 -6.35 -1.85 -6.35" fill="#957b6a" fill-rule="evenodd" stroke="none"/>
    <path d="M-2.85 -5.95 L-2.85 -5.7 -5.35 -5.7 -5.35 -5.5 -5.35 -5.05 -1.85 -5.05 -1.85 -4.4 -5.45 -4.55 -5.45 -5.95 -2.85 -5.95 M2.6 -5.95 L5.25 -5.95 5.25 -4.25 3.2 -4.25 3.1 -4.25 2.2 -4.25 2.3 -4.4 Q2.55 -4.8 2.6 -5.75 L2.6 -5.95" fill="#292134" fill-rule="evenodd" stroke="none"/>
    <path d="M-2.25 -3.65 L-4.55 -3.65 -3.85 -4.0 -2.2 -3.85 -2.25 -3.65 M-5.3 -2.45 L-5.3 -1.9 -5.55 -1.85 -5.45 -2.1 -5.3 -2.45" fill="#bfb8ae" fill-rule="evenodd" stroke="none"/>
    <path d="M-5.45 -4.35 L-5.45 -4.55 -1.85 -4.4 -1.1 -4.4 2.2 -4.25 3.1 -4.25 0.6 -3.45 -0.75 -3.5 -1.4 -3.85 -1.5 -4.25 -1.5 -4.35 -5.45 -4.35" fill="#100e14" fill-rule="evenodd" stroke="none"/>
    <path d="M2.5 6.95 L2.1 7.5 1.8 7.0 1.9 6.9 2.05 6.45 2.45 6.85 2.5 6.95" fill="#4c4243" fill-rule="evenodd" stroke="none"/>
    <path d="M-5.55 8.5 L-5.6 8.5 -5.6 7.8 -5.6 6.95 -5.6 4.05 -4.9 3.0 -4.55 3.25 -4.65 3.35 -4.7 3.4 -5.15 3.9 -5.15 3.95 -5.2 4.45 -5.25 4.5 -5.3 4.5 -5.25 4.6 -5.4 5.35 -5.45 5.35 -5.4 5.4 -5.55 6.0 -5.55 6.1 -5.55 6.95 -5.6 6.95 -5.55 7.0 -5.55 7.75 -5.6 7.8 -5.55 7.85 -5.55 8.25 -5.55 8.3 -5.55 8.5 M4.0 2.3 L4.0 2.35 3.35 2.35 4.0 2.15 4.0 2.25 4.0 2.3 M-5.6 -1.0 L-5.6 -0.7 -5.7 -0.9 -5.6 -1.0" fill="#ffffff" fill-rule="evenodd" stroke="none"/>
    <path d="M1.55 -6.9 L1.6 -6.65 -0.25 -6.65 -0.25 -6.9 1.55 -6.9" fill="#ddc2aa" fill-rule="evenodd" stroke="none"/>
    <path d="M0.7 -3.35 L0.65 -3.35 1.7 -3.75 2.85 -3.8 3.0 -0.45 2.85 -0.7 2.55 -3.5 0.7 -3.35 M-5.6 0.75 L-4.2 2.15 -4.8 2.85 -4.9 3.0 -5.6 4.05 -5.6 3.15 -5.2 2.65 -4.75 1.95 -5.6 1.1 -5.6 0.75" fill="#e9cded" fill-rule="evenodd" stroke="none"/>
    <path d="M1.7 -3.75 L3.1 -4.25 3.05 -0.4 3.0 -0.45 2.85 -3.8 1.7 -3.75 M-4.1 2.8 L-4.2 2.85 -4.55 3.25 -4.9 3.0 -4.8 2.85 -4.2 2.15 -5.6 0.75 -5.6 -0.65 Q-5.35 0.6 -3.65 2.25 -2.6 1.15 -3.5 2.3 L-3.65 2.3 -4.1 2.8" fill="#dfb4e4" fill-rule="evenodd" stroke="none"/>
    <path d="M2.85 -0.7 L0.7 -3.35 2.55 -3.5 2.85 -0.7" fill="#f4e9f6" fill-rule="evenodd" stroke="none"/>
    <path d="M6.2 -4.15 L6.2 7.3 6.0 5.4 6.0 5.35 5.95 5.0 5.9 4.5 5.35 3.9 5.35 3.95 5.25 3.9 4.8 3.4 4.75 3.35 4.0 2.3 4.0 2.25 4.95 0.75 Q5.9 -1.3 6.2 -4.15 M2.1 7.5 L1.7 7.4 1.45 7.15 1.45 6.8 1.7 6.5 2.05 6.45 1.9 6.9 1.8 7.0 2.1 7.5" fill="#635554" fill-rule="evenodd" stroke="none"/>
    <path d="M6.2 7.3 L6.2 7.7 2.75 7.0 2.75 6.95 3.9 6.65 Q3.25 6.55 2.4 6.1 L0.8 6.1 -5.55 6.1 -5.55 6.0 0.8 6.0 2.35 6.0 6.05 6.0 6.0 5.4 6.2 7.3 M6.2 7.75 L6.2 7.85 -5.55 7.85 -5.6 7.8 -5.55 7.75 1.8 7.75 2.1 7.75 6.2 7.75 M5.9 4.5 L5.95 5.0 5.9 4.6 -5.25 4.6 -5.3 4.5 -5.25 4.5 5.9 4.5 M6.0 5.35 L6.0 5.4 1.8 5.4 1.2 5.4 -5.4 5.4 -5.45 5.35 -5.4 5.35 6.0 5.35 M5.35 3.95 L-5.15 3.95 -5.15 3.9 5.25 3.9 5.35 3.95 M4.0 2.35 L4.0 2.3 4.75 3.35 4.8 3.4 -4.7 3.4 -4.65 3.35 -4.3 3.35 -1.1 3.35 4.75 3.35 1.1 2.95 -3.95 2.85 -4.2 2.85 -4.1 2.8 4.2 2.8 4.0 2.35 M1.2 6.95 L1.2 7.0 -5.55 7.0 -5.6 6.95 -5.55 6.95 1.2 6.95" fill="#82647c" fill-rule="evenodd" stroke="none"/>
    <path d="M2.35 6.0 L0.8 6.0 1.2 5.4 1.8 5.4 2.35 6.0 M0.8 6.1 L2.4 6.1 2.5 6.25 1.9 6.2 Q1.3 6.2 1.25 6.4 L1.2 6.95 0.8 6.1" fill="#8b6b85" fill-rule="evenodd" stroke="none"/>
    <path d="M2.75 6.95 L2.75 7.0 2.55 7.55 2.1 7.75 1.8 7.75 Q1.55 7.75 1.4 7.55 L1.2 7.0 1.2 6.95 1.25 6.4 Q1.3 6.2 1.9 6.2 L2.5 6.25 2.55 6.3 2.55 6.45 2.75 6.95 M2.5 6.95 L2.65 7.05 2.6 6.8 2.4 6.55 2.45 6.85 2.05 6.45 1.7 6.5 1.45 6.8 1.45 7.15 1.7 7.4 2.1 7.5 2.5 6.95" fill="#d3b4d3" fill-rule="evenodd" stroke="none"/>
    <path d="M2.45 6.85 L2.4 6.55 2.6 6.8 2.65 7.05 2.5 6.95 2.45 6.85" fill="#eacced" fill-rule="evenodd" stroke="none"/>
    <path d="M6.3 8.25 L6.25 8.3 6.2 8.3 -5.55 8.3 -5.55 8.25 6.3 8.25" fill="#c8a9c6" fill-rule="evenodd" stroke="none"/>
    <path d="M6.2 8.3 Q5.3 8.5 -5.55 8.5 L-5.55 8.3 6.2 8.3" fill="#edcff1" fill-rule="evenodd" stroke="none"/>
    <path d="M-5.6 3.15 L-5.6 1.1 -4.75 1.95 -5.2 2.65 -5.6 3.15" fill="#f7ecf9" fill-rule="evenodd" stroke="none"/>
    <path d="M5.8 -4.2 L6.2 -4.15 Q5.9 -1.3 4.95 0.75 L4.0 2.25 4.0 2.15 3.35 2.35 -3.5 2.3 Q-2.6 1.15 -3.65 2.25 -5.35 0.6 -5.6 -0.65 L-5.6 -0.7 -5.6 -1.0 -5.6 -1.2 -5.6 -1.85 -5.55 -1.85 -5.3 -1.9 -5.3 -2.45 -5.3 -3.65 -4.55 -3.65 -2.25 -3.65 -2.25 -2.85 -0.75 -2.85 -0.75 -3.1 -0.75 -3.5 0.6 -3.45 0.65 -3.35 0.7 -3.35 2.85 -0.7 3.0 -0.45 3.05 -0.4 3.1 -0.35 3.1 -0.15 5.75 -4.15 5.8 -4.2 M-3.95 2.85 L1.1 2.95 -1.1 3.35 -4.3 3.35 -3.95 2.85" fill="#9e7f96" fill-rule="evenodd" stroke="none"/>
    <path d="M5.75 -4.15 L3.1 -0.15 3.1 -0.35 3.2 -4.25 5.75 -4.15" fill="#c0a0bc" fill-rule="evenodd" stroke="none"/>
    <path d="M6.2 7.7 L6.2 7.75 2.1 7.75 2.55 7.55 2.75 7.0 6.2 7.7 M6.2 7.85 L6.3 8.25 -5.55 8.25 -5.55 7.85 6.2 7.85 M5.9 4.5 L-5.25 4.5 -5.2 4.45 -5.15 3.95 5.35 3.95 5.35 3.9 5.9 4.5 M-5.25 4.6 L5.9 4.6 5.95 5.0 6.0 5.35 -5.4 5.35 -5.25 4.6 M5.25 3.9 L-5.15 3.9 -4.7 3.4 4.8 3.4 5.25 3.9 M6.0 5.4 L6.05 6.0 2.35 6.0 1.8 5.4 6.0 5.4 M0.8 6.0 L-5.55 6.0 -5.4 5.4 1.2 5.4 0.8 6.0 M-5.55 6.1 L0.8 6.1 1.2 6.95 -5.55 6.95 -5.55 6.1 M2.4 6.1 Q3.25 6.55 3.9 6.65 L2.75 6.95 2.55 6.45 2.55 6.3 2.5 6.25 2.4 6.1 M4.0 2.35 L4.2 2.8 -4.1 2.8 -3.65 2.3 -3.5 2.3 3.35 2.35 4.0 2.35 M-4.2 2.85 L-3.95 2.85 -4.3 3.35 -4.65 3.35 -4.55 3.25 -4.2 2.85 M1.1 2.95 L4.75 3.35 -1.1 3.35 1.1 2.95 M1.2 7.0 L1.4 7.55 Q1.55 7.75 1.8 7.75 L-5.55 7.75 -5.55 7.0 1.2 7.0" fill="url(#gradient0)" fill-rule="evenodd" stroke="none"/>
  </g>
  <defs>
    <linearGradient gradientTransform="matrix(0.0, 0.0039, -0.0036, 0.0, 0.35, 5.25)" gradientUnits="userSpaceOnUse" id="gradient0" spreadMethod="pad" x1="-819.2" x2="819.2">
      <stop offset="0.0" stop-color="#f2d4f6"/>
      <stop offset="1.0" stop-color="#997990"/>
    </linearGradient>
  </defs>
</svg>
