<?xml version="1.0" encoding="UTF-8" standalone="no"?>
<svg xmlns:ffdec="https://www.free-decompiler.com/flash" xmlns:xlink="http://www.w3.org/1999/xlink" ffdec:objectType="shape" height="20.2px" width="13.8px" xmlns="http://www.w3.org/2000/svg">
  <g transform="matrix(1.0, 0.0, 0.0, 1.0, 6.9, 10.1)">
    <path d="M-6.9 1.7 L-6.9 1.55 -6.6 1.55 -6.9 1.7 M-6.9 1.3 L-6.9 0.7 -5.9 0.7 -6.6 1.3 -6.9 1.3 M-6.9 0.45 L-6.9 -0.2 -5.75 -0.2 -5.75 0.45 -6.9 0.45 M-6.9 -0.45 L-6.9 -1.2 -4.85 -1.2 -4.85 -0.45 -6.9 -0.45" fill="#c8b395" fill-rule="evenodd" stroke="none"/>
    <path d="M-6.9 1.55 L-6.9 1.3 -6.6 1.3 -6.6 1.55 -6.9 1.55 M-6.9 0.7 L-6.9 0.45 -5.75 0.45 -5.9 0.7 -6.9 0.7 M-6.9 -0.2 L-6.9 -0.45 -4.85 -0.45 -4.85 -0.35 -5.75 -0.2 -6.9 -0.2" fill="#75654f" fill-rule="evenodd" stroke="none"/>
    <path d="M-6.9 2.15 L-6.9 1.7 -6.6 1.55 -4.85 1.55 -4.85 2.15 -6.9 2.15 M-5.75 -0.2 L-4.85 -0.2 -4.85 0.45 -5.75 0.45 -5.75 -0.2 M-4.85 0.7 L-4.85 1.3 -6.6 1.3 -5.9 0.7 -4.85 0.7" fill="#ad8763" fill-rule="evenodd" stroke="none"/>
    <path d="M6.9 -7.25 L6.9 -6.95 2.35 -7.0 2.35 -3.05 2.1 -3.05 2.15 -7.0 2.15 -7.3 6.9 -7.25" fill="#bfb9c6" fill-rule="evenodd" stroke="none"/>
    <path d="M6.9 -7.25 L2.15 -7.3 2.15 -7.0 0.5 -6.9 -4.3 -10.1 -1.75 -10.1 0.55 -8.8 Q2.95 -7.55 3.55 -7.55 4.55 -7.55 6.9 -10.0 L6.9 -7.25" fill="#5f556f" fill-rule="evenodd" stroke="none"/>
    <path d="M2.15 -7.0 L2.1 -3.05 0.5 -3.05 0.5 -6.9 2.15 -7.0" fill="#322e3f" fill-rule="evenodd" stroke="none"/>
    <path d="M-4.85 -3.05 L-4.85 -5.45 -3.8 -5.45 Q-3.8 -7.4 -4.05 -7.4 L-4.85 -7.4 -4.85 -10.1 -4.3 -10.1 0.5 -6.9 0.5 -3.05 -4.85 -3.05" fill="#706482" fill-rule="evenodd" stroke="none"/>
    <path d="M-4.85 -5.45 L-4.85 -5.75 -4.05 -5.65 -4.05 -7.4 Q-3.8 -7.4 -3.8 -5.45 L-4.85 -5.45" fill="#e0ceb6" fill-rule="evenodd" stroke="none"/>
    <path d="M-4.35 -6.25 L-4.7 -6.25 -4.7 -7.25 -4.35 -7.25 -4.35 -6.25" fill="#ebdccf" fill-rule="evenodd" stroke="none"/>
    <path d="M-4.85 -5.75 L-4.85 -7.4 -4.05 -7.4 -4.05 -5.65 -4.85 -5.75 M-4.35 -6.25 L-4.35 -7.25 -4.7 -7.25 -4.7 -6.25 -4.35 -6.25" fill="#f2d4cc" fill-rule="evenodd" stroke="none"/>
    <path d="M0.7 -1.75 L0.65 -1.7 -0.4 -2.05 -1.85 -2.55 -1.75 1.3 -1.95 1.3 -1.9 -2.55 -3.95 -1.7 -4.05 -1.8 -1.85 -2.6 0.7 -1.75" fill="#bdbabd" fill-rule="evenodd" stroke="none"/>
    <path d="M2.1 -3.05 L2.35 -3.05 2.65 -3.05 6.9 -3.0 6.85 -2.7 2.85 -2.7 2.85 -2.6 2.75 -2.1 2.1 -1.8 0.7 -1.75 -1.85 -2.6 -4.05 -1.8 -4.25 -2.3 -4.85 -2.5 -4.85 -3.05 0.5 -3.05 2.1 -3.05" fill="#071e02" fill-rule="evenodd" stroke="none"/>
    <path d="M6.9 1.4 L6.9 7.35 6.55 5.85 6.5 5.7 6.45 5.6 6.4 5.55 6.35 5.45 5.2 4.0 6.55 2.4 6.9 1.4 M-4.85 8.45 L-4.85 6.3 -4.85 6.0 -4.85 5.35 -4.85 2.75 -4.85 2.3 -4.85 2.15 -4.85 1.55 -4.85 1.3 -4.85 0.7 -4.85 0.45 -4.85 -0.2 -4.85 -0.35 -4.85 -0.45 -4.85 -1.2 -4.85 -1.45 -4.4 0.55 Q-3.75 2.8 -2.65 4.0 L-2.65 4.15 -2.9 4.55 -2.95 4.6 -3.45 5.05 -3.5 5.1 -3.95 5.6 -4.0 5.65 -4.6 6.25 -4.6 6.3 -4.65 7.1 -4.7 7.15 -4.75 7.75 -4.75 7.8 -4.85 8.45" fill="#3c3c3c" fill-rule="evenodd" stroke="none"/>
    <path d="M-5.75 -0.2 L-4.85 -0.35 -4.85 -0.2 -5.75 -0.2 M-5.75 0.45 L-4.85 0.45 -4.85 0.7 -5.9 0.7 -5.75 0.45 M-6.6 1.3 L-4.85 1.3 -4.85 1.55 -6.6 1.55 -6.6 1.3" fill="#4b3f34" fill-rule="evenodd" stroke="none"/>
    <path d="M0.65 -1.7 L-1.5 1.0 -1.25 -1.85 0.65 -1.7" fill="#d9d5de" fill-rule="evenodd" stroke="none"/>
    <path d="M-1.5 1.0 L-1.7 1.25 -1.55 -2.15 -0.4 -2.05 0.65 -1.7 -1.25 -1.85 -1.5 1.0" fill="#c4bccb" fill-rule="evenodd" stroke="none"/>
    <path d="M-1.7 1.25 L-1.75 1.3 -1.85 -2.55 -0.4 -2.05 -1.55 -2.15 -1.7 1.25" fill="#bbb2c3" fill-rule="evenodd" stroke="none"/>
    <path d="M-1.95 1.3 L-3.95 -1.7 -1.9 -2.55 -1.95 1.3" fill="#847494" fill-rule="evenodd" stroke="none"/>
    <path d="M2.35 -3.05 L2.35 -7.0 6.9 -6.95 6.9 -6.65 2.65 -6.65 2.65 -3.05 2.35 -3.05" fill="#ccc7d1" fill-rule="evenodd" stroke="none"/>
    <path d="M6.85 -2.7 L6.9 -0.15 6.4 -0.15 6.4 -2.6 2.85 -2.6 2.85 -2.7 6.85 -2.7 M6.9 1.1 L6.9 1.4 6.55 2.4 5.2 4.0 6.35 5.45 6.1 5.1 6.05 5.05 5.55 4.6 5.5 4.55 -2.65 4.15 -2.65 4.0 Q6.3 3.9 6.9 1.1 M6.9 7.35 L6.9 7.75 6.8 7.15 6.75 7.1 6.65 6.3 6.6 6.25 6.55 5.85 6.9 7.35" fill="#ffffff" fill-rule="evenodd" stroke="none"/>
    <path d="M6.1 -0.15 L6.1 -2.35 3.5 -2.2 2.75 -2.1 2.85 -2.6 6.4 -2.6 6.4 -0.15 6.1 -0.15" fill="#eaeaea" fill-rule="evenodd" stroke="none"/>
    <path d="M3.55 -1.85 L3.5 -2.2 6.1 -2.35 6.1 -0.15 Q5.55 -0.15 5.55 -1.85 L3.55 -1.85" fill="#d0d0d0" fill-rule="evenodd" stroke="none"/>
    <path d="M3.55 -1.85 L3.55 -1.2 2.1 -1.2 2.1 -1.45 3.55 -1.85" fill="#feeddb" fill-rule="evenodd" stroke="none"/>
    <path d="M2.1 -1.45 L2.1 -1.8 2.75 -2.1 3.5 -2.2 3.55 -1.85 2.1 -1.45" fill="#fcd5ad" fill-rule="evenodd" stroke="none"/>
    <path d="M6.9 7.75 L6.9 7.8 5.25 7.8 6.9 7.75 M6.9 8.7 L6.9 8.75 4.35 8.75 6.9 8.7 M6.9 9.55 L6.9 9.6 4.65 9.6 6.9 9.55 M-4.85 8.75 L-4.85 8.7 -2.25 8.75 -4.85 8.75 M6.45 5.6 L6.5 5.7 4.7 5.7 6.45 5.6 M5.5 4.55 L5.55 4.6 4.55 4.6 4.55 4.55 5.5 4.55 M6.05 5.05 L6.1 5.1 4.75 5.15 4.75 5.1 6.05 5.05 M6.6 6.25 L6.65 6.3 4.35 6.3 6.6 6.25 M6.75 7.1 L6.8 7.15 4.15 7.15 6.75 7.1 M-2.95 4.6 L-2.9 4.55 -0.65 4.55 -2.95 4.6 M-4.0 5.65 L-3.95 5.6 -3.3 5.7 -4.0 5.65 M-3.5 5.1 L-3.45 5.05 -1.6 5.15 -3.5 5.1 M-4.7 7.15 L-4.65 7.1 -3.2 7.15 -4.7 7.15 M-4.6 6.3 L-4.6 6.25 -1.95 6.3 -4.6 6.3 M-4.75 7.8 L-4.75 7.75 -2.3 7.8 -4.75 7.8" fill="#615a61" fill-rule="evenodd" stroke="none"/>
    <path d="M4.55 4.55 L4.55 4.6 4.75 5.1 4.75 5.15 4.4 5.9 4.05 5.5 3.15 5.35 Q3.15 5.0 3.55 4.8 L4.55 4.55" fill="#736c73" fill-rule="evenodd" stroke="none"/>
    <path d="M-0.45 10.05 L-4.85 10.1 -4.85 10.0 -0.45 10.05" fill="#a09aa0" fill-rule="evenodd" stroke="none"/>
    <path d="M4.35 6.3 L2.75 6.5 2.8 5.95 Q2.8 5.35 2.95 5.3 L3.15 5.35 4.05 5.5 4.4 5.9 4.4 5.95 4.35 6.3 M3.15 5.75 Q2.9 5.7 2.9 6.05 L3.05 6.1 3.1 5.95 3.45 6.5 3.9 6.35 4.1 6.0 3.95 5.6 3.5 5.45 3.15 5.75 M4.2 5.95 L4.15 5.95 Q4.15 6.35 4.3 6.3 L4.2 5.95" fill="#a29ea3" fill-rule="evenodd" stroke="none"/>
    <path d="M3.1 5.95 L3.1 5.85 3.15 5.75 3.5 5.45 Q3.85 5.65 3.7 6.3 L3.45 6.5 3.1 5.95" fill="#494955" fill-rule="evenodd" stroke="none"/>
    <path d="M3.1 5.95 L3.05 6.1 2.9 6.05 Q2.9 5.7 3.15 5.75 L3.1 5.85 3.1 5.95 M4.2 5.95 L4.3 6.3 Q4.15 6.35 4.15 5.95 L4.2 5.95" fill="#cdc8d2" fill-rule="evenodd" stroke="none"/>
    <path d="M3.5 5.45 L3.95 5.6 4.1 6.0 3.9 6.35 3.45 6.5 3.7 6.3 Q3.85 5.65 3.5 5.45" fill="#676067" fill-rule="evenodd" stroke="none"/>
    <path d="M-4.85 6.3 L-6.9 6.3 -6.9 2.15 -4.85 2.15 -4.85 2.3 -6.75 2.3 -6.75 6.0 -4.85 6.0 -4.85 6.3" fill="#464246" fill-rule="evenodd" stroke="none"/>
    <path d="M-4.85 2.3 L-4.85 2.75 -6.35 2.75 -6.35 5.35 -4.85 5.35 -4.85 6.0 -6.75 6.0 -6.75 2.3 -4.85 2.3" fill="#696369" fill-rule="evenodd" stroke="none"/>
    <path d="M-4.85 2.75 L-4.85 5.35 -6.35 5.35 -6.35 2.75 -4.85 2.75" fill="#888088" fill-rule="evenodd" stroke="none"/>
    <path d="M6.9 -0.15 L6.9 1.1 Q6.3 3.9 -2.65 4.0 -3.75 2.8 -4.4 0.55 L-4.85 -1.45 -4.85 -2.5 -4.25 -2.3 -4.05 -1.8 -3.95 -1.7 -1.95 1.3 -1.75 1.3 -1.7 1.25 -1.5 1.0 0.65 -1.7 0.7 -1.75 2.1 -1.8 2.1 -1.45 2.1 -1.2 3.55 -1.2 3.55 -1.85 5.55 -1.85 Q5.55 -0.15 6.1 -0.15 L6.4 -0.15 6.9 -0.15 M-1.75 -10.1 L6.9 -10.1 6.9 -10.0 Q4.55 -7.55 3.55 -7.55 2.95 -7.55 0.55 -8.8 L-1.75 -10.1" fill="#93829f" fill-rule="evenodd" stroke="none"/>
    <path d="M6.9 -6.65 L6.9 -3.0 2.65 -3.05 2.65 -6.65 6.9 -6.65" fill="url(#gradient0)" fill-rule="evenodd" stroke="none"/>
    <path d="M6.35 5.45 L6.4 5.55 6.45 5.6 4.7 5.7 6.5 5.7 6.55 5.85 6.6 6.25 4.35 6.3 4.4 5.95 4.4 5.9 4.75 5.15 6.1 5.1 6.35 5.45 M4.55 4.6 L5.55 4.6 6.05 5.05 4.75 5.1 4.55 4.6" fill="url(#gradient1)" fill-rule="evenodd" stroke="none"/>
    <path d="M6.9 7.8 L6.9 8.7 4.35 8.75 6.9 8.75 6.9 9.55 4.65 9.6 6.9 9.6 6.9 10.0 -0.45 10.05 -4.85 10.0 -4.85 8.75 -2.25 8.75 -4.85 8.7 -4.85 8.45 -4.75 7.8 -2.3 7.8 -4.75 7.75 -4.7 7.15 -3.2 7.15 -4.65 7.1 -4.6 6.3 -1.95 6.3 -4.6 6.25 -4.0 5.65 -3.3 5.7 -3.95 5.6 -3.5 5.1 -1.6 5.15 -3.45 5.05 -2.95 4.6 -0.65 4.55 -2.9 4.55 -2.65 4.15 5.5 4.55 4.55 4.55 3.55 4.8 Q3.15 5.0 3.15 5.35 L2.95 5.3 Q2.8 5.35 2.8 5.95 L2.75 6.5 4.35 6.3 6.65 6.3 6.75 7.1 4.15 7.15 6.8 7.15 6.9 7.75 5.25 7.8 6.9 7.8" fill="url(#gradient2)" fill-rule="evenodd" stroke="none"/>
  </g>
  <defs>
    <radialGradient cx="0" cy="0" gradientTransform="matrix(0.0028, -0.0035, 0.0035, 0.0028, 3.25, -6.35)" gradientUnits="userSpaceOnUse" id="gradient0" r="819.2" spreadMethod="pad">
      <stop offset="0.0" stop-color="#ccc7d1"/>
      <stop offset="1.0" stop-color="#ffffff"/>
    </radialGradient>
    <linearGradient gradientTransform="matrix(-1.0E-4, -0.0027, -0.0073, 2.0E-4, 0.5, 5.35)" gradientUnits="userSpaceOnUse" id="gradient1" spreadMethod="pad" x1="-819.2" x2="819.2">
      <stop offset="0.0" stop-color="#bdb3c4"/>
      <stop offset="1.0" stop-color="#d1cbd7"/>
    </linearGradient>
    <linearGradient gradientTransform="matrix(-1.0E-4, -0.0036, -0.0073, 2.0E-4, 0.55, 5.95)" gradientUnits="userSpaceOnUse" id="gradient2" spreadMethod="pad" x1="-819.2" x2="819.2">
      <stop offset="0.0" stop-color="#93829f"/>
      <stop offset="1.0" stop-color="#edecf0"/>
    </linearGradient>
  </defs>
</svg>
