<?xml version="1.0" encoding="UTF-8" standalone="no"?>
<svg xmlns:ffdec="https://www.free-decompiler.com/flash" xmlns:xlink="http://www.w3.org/1999/xlink" ffdec:objectType="shape" height="14.95px" width="14.95px" xmlns="http://www.w3.org/2000/svg">
  <g transform="matrix(1.0, 0.0, 0.0, 1.0, 7.6, 7.45)">
    <path d="M2.6 -6.95 Q4.0 -6.4 5.15 -5.25 L-0.05 0.0 -0.15 0.05 -0.15 0.0 2.6 -6.95 M-2.9 6.95 Q-4.3 6.4 -5.4 5.3 L-5.45 5.25 -0.2 0.1 -2.9 6.95" fill="#808080" fill-opacity="0.5019608" fill-rule="evenodd" stroke="none"/>
    <path d="M6.75 -2.95 Q7.35 -1.55 7.35 0.05 7.35 3.05 5.15 5.25 L5.1 5.3 Q2.95 7.45 -0.1 7.5 L-0.15 7.45 -0.15 0.05 -0.05 0.0 6.75 -2.95 M-7.0 2.95 Q-7.6 1.6 -7.6 0.0 -7.6 -3.0 -5.45 -5.25 L-5.4 -5.3 Q-3.2 -7.5 -0.15 -7.45 L-0.15 0.0 -0.15 0.05 -0.25 0.05 -7.0 2.95" fill="url(#gradient0)" fill-rule="evenodd" stroke="none"/>
    <path d="M5.15 -5.25 Q6.2 -4.2 6.75 -2.95 L-0.05 0.0 5.15 -5.25 M-5.45 5.25 Q-6.5 4.2 -7.0 2.95 L-0.25 0.05 -0.15 0.05 -0.2 0.1 -5.45 5.25" fill="#c4c4c4" fill-rule="evenodd" stroke="none"/>
    <path d="M-0.15 7.45 Q-1.65 7.55 -2.9 6.95 L-0.2 0.1 -0.15 0.05 -0.15 7.45 M-0.15 -7.45 Q1.5 -7.55 2.6 -6.95 L-0.15 0.0 -0.15 -7.45" fill="url(#gradient1)" fill-rule="evenodd" stroke="none"/>
  </g>
  <defs>
    <radialGradient cx="0" cy="0" gradientTransform="matrix(-0.0073, -0.0073, 0.0073, -0.0073, -0.1, 0.0)" gradientUnits="userSpaceOnUse" id="gradient0" r="819.2" spreadMethod="pad">
      <stop offset="0.3607843137254902" stop-color="#ffffff" stop-opacity="0.0"/>
      <stop offset="0.6313725490196078" stop-color="#ffffff" stop-opacity="0.0"/>
      <stop offset="1.0" stop-color="#ffffff" stop-opacity="0.5803922"/>
    </radialGradient>
    <radialGradient cx="0" cy="0" gradientTransform="matrix(0.0073, 0.0073, -0.0073, 0.0073, -0.05, 0.05)" gradientUnits="userSpaceOnUse" id="gradient1" r="819.2" spreadMethod="pad">
      <stop offset="0.3607843137254902" stop-color="#ffffff" stop-opacity="0.0"/>
      <stop offset="0.6313725490196078" stop-color="#ffffff" stop-opacity="0.0"/>
      <stop offset="1.0" stop-color="#ffffff" stop-opacity="0.5803922"/>
    </radialGradient>
  </defs>
</svg>
