<?xml version="1.0" encoding="UTF-8" standalone="no"?>
<svg xmlns:ffdec="https://www.free-decompiler.com/flash" xmlns:xlink="http://www.w3.org/1999/xlink" ffdec:objectType="shape" height="83.25px" width="104.5px" xmlns="http://www.w3.org/2000/svg">
  <g transform="matrix(1.0, 0.0, 0.0, 1.0, 52.1, 40.95)">
    <path d="M38.2 -25.5 L38.9 -32.05 42.3 -32.85 42.55 -26.1 38.2 -25.5" fill="#4a4a4a" fill-rule="evenodd" stroke="none"/>
    <path d="M38.2 -25.5 L42.55 -26.1 42.3 -32.85 38.9 -32.05 38.2 -25.5 M27.65 42.3 L34.95 32.9 32.45 28.35 29.45 28.85 29.05 25.05 33.45 21.35 32.75 13.25 17.0 4.45 20.55 -1.35 30.1 -3.0 34.4 -11.2 28.3 -19.55 31.9 -28.95 15.85 -38.05 16.2 -40.95 52.4 -40.95 52.4 -3.05 46.85 -0.15 40.5 12.6 44.9 19.85 42.7 22.85 45.3 30.7 52.4 30.45 52.4 42.3 27.65 42.3 M7.85 27.5 L8.35 25.25 13.8 21.7 14.65 25.7 19.4 27.2 13.65 31.4 7.85 27.5 M11.35 -18.2 L16.85 -24.6 21.6 -17.45 24.3 -14.65 18.3 -8.85 15.9 -13.9 12.95 -13.0 11.35 -18.2" fill="#666666" fill-rule="evenodd" stroke="none"/>
    <path d="M16.2 -40.95 L15.85 -38.05 31.9 -28.95 28.3 -19.55 34.4 -11.2 30.1 -3.0 20.55 -1.35 17.0 4.45 32.75 13.25 33.45 21.35 29.05 25.05 29.45 28.85 32.45 28.35 34.95 32.9 27.65 42.3 0.15 42.3 0.15 30.45 -6.95 30.7 -9.55 22.85 -7.35 19.85 -11.75 12.6 -5.4 -0.15 0.15 -3.05 0.15 -40.95 16.2 -40.95 M52.4 30.45 L45.3 30.7 42.7 22.85 44.9 19.85 40.5 12.6 46.85 -0.15 52.4 -3.05 52.4 30.45 M11.35 -18.2 L12.95 -13.0 15.9 -13.9 18.3 -8.85 24.3 -14.65 21.6 -17.45 16.85 -24.6 11.35 -18.2 M7.85 27.5 L13.65 31.4 19.4 27.2 14.65 25.7 13.8 21.7 8.35 25.25 7.85 27.5 M-14.05 -25.5 L-13.35 -32.05 -9.95 -32.85 -9.7 -26.1 -14.05 -25.5 M-20.35 -28.95 L-23.95 -19.55 -17.85 -11.2 -22.15 -3.0 -31.7 -1.35 -35.25 4.45 -19.5 13.25 -18.8 21.35 -23.2 25.05 -22.8 28.85 -19.8 28.35 -17.3 32.9 -24.6 42.3 -52.1 42.3 -52.1 -40.95 -36.05 -40.95 -36.4 -38.05 -20.35 -28.95" fill="#595959" fill-rule="evenodd" stroke="none"/>
  </g>
</svg>
