<?xml version="1.0" encoding="UTF-8" standalone="no"?>
<svg xmlns:ffdec="https://www.free-decompiler.com/flash" xmlns:xlink="http://www.w3.org/1999/xlink" ffdec:objectType="shape" height="23.6px" width="36.7px" xmlns="http://www.w3.org/2000/svg">
  <g transform="matrix(1.0, 0.0, 0.0, 1.0, 0.0, 0.0)">
    <path d="M16.95 0.0 L17.8 0.0 17.8 4.85 16.95 4.85 16.95 0.0 M28.1 0.0 L28.9 0.0 28.9 4.85 28.1 4.85 28.1 0.0 M35.25 0.0 L35.3 0.0 35.35 0.75 35.45 5.25 35.45 5.3 35.4 5.25 35.25 0.0 M6.65 0.0 L7.5 0.0 7.5 4.85 6.65 4.85 6.65 0.0 M11.0 0.0 L11.55 0.0 11.4 4.85 10.8 4.85 11.0 0.0 M8.75 3.3 L8.65 3.4 8.6 3.4 8.6 3.25 8.75 3.0 Q8.95 2.8 8.9 2.95 L8.8 3.05 8.8 3.15 8.8 3.2 8.8 3.25 8.75 3.3" fill="#ffffff" fill-rule="evenodd" stroke="none"/>
    <path d="M34.65 0.0 L35.25 0.0 35.4 5.25 11.35 5.25 10.8 5.25 9.05 5.3 0.45 5.25 0.0 5.2 0.0 0.0 0.45 0.0 0.5 4.85 6.65 4.85 7.5 4.85 10.8 4.85 11.4 4.85 16.95 4.85 17.8 4.85 28.1 4.85 28.9 4.85 29.3 4.85 34.85 4.85 34.65 0.0 M35.45 5.3 L35.65 11.2 35.65 11.25 35.6 11.25 35.4 5.25 35.45 5.3" fill="#ebeff1" fill-rule="evenodd" stroke="none"/>
    <path d="M28.9 0.0 L29.4 0.0 29.3 4.85 28.9 4.85 28.9 0.0" fill="#e8f9ff" fill-rule="evenodd" stroke="none"/>
    <path d="M10.8 5.25 L11.35 5.25 10.8 5.3 10.8 5.25" fill="#dce3e7" fill-rule="evenodd" stroke="none"/>
    <path d="M35.35 0.75 L36.45 2.25 36.45 12.6 35.65 11.25 35.65 11.2 35.45 5.3 35.45 5.25 35.35 0.75" fill="#3d4949" fill-rule="evenodd" stroke="none"/>
    <path d="M36.45 12.6 L2.1 12.6 0.95 11.0 35.6 11.25 35.65 11.25 36.45 12.6" fill="#131717" fill-rule="evenodd" stroke="none"/>
    <path d="M0.95 11.0 L0.0 11.0 0.0 5.3 0.45 5.3 0.45 5.25 9.05 5.3 10.8 5.3 11.35 5.25 35.4 5.25 35.6 11.25 0.95 11.0 M7.5 10.65 L16.95 10.7 16.95 5.65 7.5 5.4 7.5 10.65 M6.65 5.4 L0.45 5.7 0.5 10.55 6.65 10.6 6.65 5.4 M17.8 10.7 L28.1 10.8 28.1 5.9 17.8 5.65 17.8 10.7 M28.9 5.9 L28.9 10.8 35.1 10.85 34.9 6.05 28.9 5.9" fill="#7e8f9a" fill-rule="evenodd" stroke="none"/>
    <path d="M10.05 3.4 L9.75 3.9 9.2 4.05 9.7 3.9 10.0 3.4 10.0 3.35 9.95 3.3 9.95 3.25 10.0 3.25 9.85 2.85 9.35 2.6 9.4 2.6 Q9.7 2.65 9.9 2.85 L10.05 3.25 10.0 3.25 10.0 3.3 10.05 3.35 10.05 3.4" fill="#bbd6e6" fill-rule="evenodd" stroke="none"/>
    <path d="M8.8 3.3 L8.75 3.3 8.8 3.25 8.8 3.3" fill="#dae9f1" fill-rule="evenodd" stroke="none"/>
    <path d="M8.85 2.75 L8.95 2.4 Q9.15 2.0 9.5 1.85 9.8 1.7 10.0 1.85 L10.35 2.45 10.35 2.65 10.05 3.4 10.05 3.35 10.05 3.25 9.9 2.85 Q9.7 2.65 9.4 2.6 L9.35 2.6 9.25 2.6 8.9 2.7 8.85 2.75" fill="#b3bdc4" fill-rule="evenodd" stroke="none"/>
    <path d="M17.8 10.7 L17.8 5.65 28.1 5.9 28.1 10.8 17.8 10.7 M6.65 5.4 L6.65 10.6 0.5 10.55 0.45 5.7 6.65 5.4 M7.5 10.65 L7.5 5.4 16.95 5.65 16.95 10.7 7.5 10.65 M28.9 5.9 L34.9 6.05 35.1 10.85 28.9 10.8 28.9 5.9" fill="#9fabb4" fill-rule="evenodd" stroke="none"/>
    <path d="M17.8 0.0 L28.1 0.0 28.1 4.85 17.8 4.85 17.8 0.0 M29.4 0.0 L34.65 0.0 34.85 4.85 29.3 4.85 29.4 0.0 M0.45 0.0 L6.65 0.0 6.65 4.85 0.5 4.85 0.45 0.0 M7.5 0.0 L11.0 0.0 10.8 4.85 7.5 4.85 7.5 0.0 M11.55 0.0 L16.95 0.0 16.95 4.85 11.4 4.85 11.55 0.0 M8.85 2.75 L8.8 2.75 8.75 2.85 8.6 3.05 8.55 3.25 8.55 3.35 8.7 3.8 8.8 3.9 9.15 4.05 9.2 4.05 9.75 3.9 10.05 3.4 10.35 2.65 10.35 2.45 10.0 1.85 Q9.8 1.7 9.5 1.85 9.15 2.0 8.95 2.4 L8.85 2.75 M10.05 3.25 L10.05 3.35 10.0 3.3 10.0 3.25 10.05 3.25" fill="url(#gradient0)" fill-rule="evenodd" stroke="none"/>
    <path d="M10.8 5.3 L9.05 5.3 10.8 5.25 10.8 5.3" fill="url(#gradient1)" fill-rule="evenodd" stroke="none"/>
    <path d="M9.2 4.05 L9.15 4.05 8.8 3.9 8.7 3.8 8.55 3.35 8.55 3.25 8.6 3.05 8.75 2.85 8.8 2.75 8.85 2.75 8.9 2.7 9.25 2.6 9.35 2.6 9.85 2.85 10.0 3.25 9.95 3.25 9.95 3.3 10.0 3.35 10.0 3.4 9.7 3.9 9.2 4.05 M9.2 2.85 L9.0 2.95 8.85 3.1 8.8 3.2 8.8 3.15 8.8 3.05 8.9 2.95 Q8.95 2.8 8.75 3.0 L8.6 3.25 8.6 3.4 8.65 3.4 8.75 3.3 8.8 3.3 8.8 3.35 8.9 3.6 9.15 3.8 9.2 3.8 9.4 3.85 9.6 3.75 9.65 3.6 9.75 3.35 9.75 3.3 9.65 3.0 9.4 2.85 9.2 2.85" fill="#e6bcbc" fill-rule="evenodd" stroke="none"/>
    <path d="M9.2 2.85 L9.4 2.85 9.65 3.0 9.75 3.3 9.75 3.35 9.65 3.6 9.6 3.75 9.4 3.85 9.2 3.8 9.15 3.8 9.15 3.75 9.4 3.35 9.4 3.3 9.25 2.9 9.2 2.85" fill="#ad7474" fill-rule="evenodd" stroke="none"/>
    <path d="M8.8 3.2 L8.85 3.1 9.0 2.95 9.2 2.85 9.25 2.9 9.4 3.3 9.4 3.35 9.15 3.75 9.15 3.8 8.9 3.6 8.8 3.35 8.8 3.3 8.8 3.25 8.8 3.2" fill="#7d4848" fill-rule="evenodd" stroke="none"/>
    <path d="M6.9 11.0 L7.75 11.0 7.75 15.85 6.9 15.85 6.9 11.0 M11.25 11.0 L11.8 11.0 11.65 15.85 11.05 15.85 11.25 11.0 M17.2 11.0 L18.05 11.0 18.05 15.85 17.2 15.85 17.2 11.0 M28.35 11.0 L29.15 11.0 29.15 15.85 28.35 15.85 28.35 11.0 M35.5 11.0 L35.55 11.0 35.6 11.75 35.7 16.25 35.7 16.3 35.65 16.25 35.5 11.0 M9.1 14.2 L9.1 14.25 9.05 14.3 8.9 14.4 8.9 14.3 Q8.9 14.1 9.05 14.0 9.3 13.75 9.1 14.05 L9.1 14.15 9.1 14.2" fill="#ffffff" fill-rule="evenodd" stroke="none"/>
    <path d="M6.9 15.85 L7.75 15.85 11.05 15.85 11.65 15.85 17.2 15.85 18.05 15.85 28.35 15.85 29.15 15.85 29.55 15.85 35.1 15.85 34.9 11.0 35.5 11.0 35.65 16.25 11.6 16.25 11.05 16.25 9.3 16.3 0.7 16.25 0.25 16.2 0.25 11.0 0.7 11.0 0.75 15.85 6.9 15.85 M35.7 16.3 L35.9 22.2 35.9 22.25 35.85 22.25 35.65 16.25 35.7 16.3" fill="#ebeff1" fill-rule="evenodd" stroke="none"/>
    <path d="M29.15 11.0 L29.65 11.0 29.55 15.85 29.15 15.85 29.15 11.0" fill="#e8f9ff" fill-rule="evenodd" stroke="none"/>
    <path d="M11.05 16.3 L11.05 16.25 11.6 16.25 11.05 16.3" fill="#dce3e7" fill-rule="evenodd" stroke="none"/>
    <path d="M35.6 11.75 L36.7 13.25 36.7 23.6 35.9 22.25 35.9 22.2 35.7 16.3 35.7 16.25 35.6 11.75" fill="#3d4949" fill-rule="evenodd" stroke="none"/>
    <path d="M36.7 23.6 L2.35 23.6 1.2 22.0 35.85 22.25 35.9 22.25 36.7 23.6" fill="#131717" fill-rule="evenodd" stroke="none"/>
    <path d="M1.2 22.0 L0.25 22.0 0.25 16.3 0.7 16.3 0.7 16.25 9.3 16.3 11.05 16.3 11.6 16.25 35.65 16.25 35.85 22.25 1.2 22.0 M0.75 21.55 L6.9 21.6 6.9 16.4 0.7 16.7 0.75 21.55 M17.2 16.65 L7.75 16.4 7.75 21.65 17.2 21.7 17.2 16.65 M18.05 21.7 L28.35 21.8 28.35 16.9 18.05 16.65 18.05 21.7 M29.15 16.9 L29.15 21.8 35.35 21.85 35.15 17.05 29.15 16.9" fill="#7e8f9a" fill-rule="evenodd" stroke="none"/>
    <path d="M9.1 13.75 L9.05 13.85 9.1 13.75" fill="#bbd6e6" fill-rule="evenodd" stroke="none"/>
    <path d="M10.3 14.25 L10.15 13.85 9.65 13.6 9.2 13.7 9.1 13.75 9.2 13.4 Q9.4 13.0 9.75 12.85 10.05 12.7 10.25 12.85 10.6 13.05 10.6 13.45 L10.6 13.65 10.3 14.4 10.3 14.35 10.3 14.25" fill="#b3bdc4" fill-rule="evenodd" stroke="none"/>
    <path d="M18.05 21.7 L18.05 16.65 28.35 16.9 28.35 21.8 18.05 21.7 M17.2 16.65 L17.2 21.7 7.75 21.65 7.75 16.4 17.2 16.65 M0.75 21.55 L0.7 16.7 6.9 16.4 6.9 21.6 0.75 21.55 M29.15 16.9 L35.15 17.05 35.35 21.85 29.15 21.8 29.15 16.9" fill="#9fabb4" fill-rule="evenodd" stroke="none"/>
    <path d="M6.9 11.0 L6.9 15.85 0.75 15.85 0.7 11.0 6.9 11.0 M7.75 15.85 L7.75 11.0 11.25 11.0 11.05 15.85 7.75 15.85 M11.8 11.0 L17.2 11.0 17.2 15.85 11.65 15.85 11.8 11.0 M18.05 11.0 L28.35 11.0 28.35 15.85 18.05 15.85 18.05 11.0 M29.65 11.0 L34.9 11.0 35.1 15.85 29.55 15.85 29.65 11.0 M9.1 14.25 L9.1 14.3 9.05 14.3 9.1 14.25 M10.3 14.25 L10.3 14.35 10.25 14.3 10.25 14.25 10.3 14.25 M10.3 14.4 L10.6 13.65 10.6 13.45 Q10.6 13.05 10.25 12.85 10.05 12.7 9.75 12.85 9.4 13.0 9.2 13.4 L9.1 13.75 9.05 13.85 8.9 14.05 8.85 14.25 8.85 14.35 9.0 14.8 9.1 14.9 9.45 15.05 10.0 14.9 Q10.25 14.75 10.3 14.4" fill="url(#gradient2)" fill-rule="evenodd" stroke="none"/>
    <path d="M11.05 16.25 L11.05 16.3 9.3 16.3 11.05 16.25" fill="url(#gradient3)" fill-rule="evenodd" stroke="none"/>
    <path d="M9.45 14.8 L9.45 14.75 9.7 14.35 9.7 14.3 9.55 13.9 9.5 13.85 9.65 13.85 9.95 14.0 10.05 14.3 10.05 14.35 9.95 14.6 9.9 14.75 9.5 14.8 9.45 14.8" fill="#ad7474" fill-rule="evenodd" stroke="none"/>
    <path d="M9.45 14.8 L9.5 14.8 9.9 14.75 9.95 14.6 10.05 14.35 10.05 14.3 9.95 14.0 9.65 13.85 9.5 13.85 9.3 13.95 9.1 14.2 9.1 14.15 9.1 14.05 Q9.3 13.75 9.05 14.0 8.9 14.1 8.9 14.3 L8.9 14.4 9.05 14.3 9.1 14.3 9.2 14.6 9.45 14.8 M9.1 13.75 L9.2 13.7 9.65 13.6 10.15 13.85 10.3 14.25 10.25 14.25 10.25 14.3 10.3 14.35 10.3 14.4 Q10.25 14.75 10.0 14.9 L9.45 15.05 9.1 14.9 9.0 14.8 8.85 14.35 8.85 14.25 8.9 14.05 9.05 13.85 9.1 13.75" fill="#e6bcbc" fill-rule="evenodd" stroke="none"/>
    <path d="M9.5 13.85 L9.55 13.9 9.7 14.3 9.7 14.35 9.45 14.75 9.45 14.8 9.2 14.6 9.1 14.3 9.1 14.25 9.1 14.2 9.3 13.95 9.5 13.85" fill="#7d4848" fill-rule="evenodd" stroke="none"/>
    <path d="M35.4 16.25 L35.6 22.25 0.0 22.0 0.0 16.3 0.45 16.3 0.45 16.25 10.8 16.3 11.35 16.25 35.4 16.25 M35.4 5.25 L35.6 11.25 0.0 11.0 0.0 5.3 0.45 5.3 0.45 5.25 10.8 5.3 11.35 5.25 35.4 5.25" fill="#ff0000" fill-opacity="0.07058824" fill-rule="evenodd" stroke="none"/>
  </g>
  <defs>
    <linearGradient gradientTransform="matrix(1.0E-4, 0.0014, 0.0164, -2.0E-4, 16.75, 1.95)" gradientUnits="userSpaceOnUse" id="gradient0" spreadMethod="pad" x1="-819.2" x2="819.2">
      <stop offset="0.0" stop-color="#c7cfd4"/>
      <stop offset="1.0" stop-color="#e7eced"/>
    </linearGradient>
    <linearGradient gradientTransform="matrix(1.0E-4, 0.0021, 0.0164, 1.0E-4, 17.15, 4.35)" gradientUnits="userSpaceOnUse" id="gradient1" spreadMethod="pad" x1="-819.2" x2="819.2">
      <stop offset="0.0" stop-color="#c5cfd8"/>
      <stop offset="1.0" stop-color="#ebeff1"/>
    </linearGradient>
    <linearGradient gradientTransform="matrix(1.0E-4, 0.0014, 0.0164, -2.0E-4, 17.0, 12.95)" gradientUnits="userSpaceOnUse" id="gradient2" spreadMethod="pad" x1="-819.2" x2="819.2">
      <stop offset="0.0" stop-color="#c7cfd4"/>
      <stop offset="1.0" stop-color="#e7eced"/>
    </linearGradient>
    <linearGradient gradientTransform="matrix(1.0E-4, 0.0021, 0.0164, 1.0E-4, 17.4, 15.35)" gradientUnits="userSpaceOnUse" id="gradient3" spreadMethod="pad" x1="-819.2" x2="819.2">
      <stop offset="0.0" stop-color="#c5cfd8"/>
      <stop offset="1.0" stop-color="#ebeff1"/>
    </linearGradient>
  </defs>
</svg>
