<?xml version="1.0" encoding="UTF-8" standalone="no"?>
<svg xmlns:ffdec="https://www.free-decompiler.com/flash" xmlns:xlink="http://www.w3.org/1999/xlink" ffdec:objectType="shape" height="45.5px" width="27.8px" xmlns="http://www.w3.org/2000/svg">
  <g transform="matrix(1.0, 0.0, 0.0, 1.0, 0.0, 0.0)">
    <path d="M22.6 10.2 L12.15 10.2 12.15 15.15 12.05 15.15 12.05 9.9 22.6 9.9 22.6 10.2" fill="#676b70" fill-rule="evenodd" stroke="none"/>
    <path d="M12.15 15.15 L12.15 10.2 22.6 10.2 22.7 10.2 22.7 15.6 12.15 15.6 12.15 15.15" fill="#3f4245" fill-rule="evenodd" stroke="none"/>
    <path d="M22.6 18.15 L22.6 19.9 20.9 19.9 20.9 7.65 22.6 7.65 22.6 16.35 22.6 18.15 M2.95 4.05 L16.35 4.05 16.35 4.7 6.75 4.7 6.75 37.95 2.95 37.95 2.95 37.9 2.95 4.05" fill="#cccccc" fill-rule="evenodd" stroke="none"/>
    <path d="M20.9 19.9 L20.35 19.9 16.35 19.9 16.35 24.45 16.35 37.95 15.3 37.95 6.75 37.95 6.75 4.7 16.35 4.7 16.35 7.65 20.9 7.65 20.9 19.9" fill="#bdbdbd" fill-rule="evenodd" stroke="none"/>
    <path d="M1.8 6.05 L1.95 5.85 2.55 4.7 2.95 3.95 2.95 4.05 2.95 37.9 1.8 36.0 1.8 6.1 1.8 6.05" fill="#969696" fill-rule="evenodd" stroke="none"/>
    <path d="M20.35 19.9 L16.35 24.45 16.35 19.9 20.35 19.9 M15.3 37.95 L16.0 41.9 14.2 45.5 11.1 45.0 9.2 42.4 9.2 41.9 7.95 43.3 5.9 41.15 0.0 41.15 0.0 6.45 1.8 6.05 1.8 6.1 1.8 36.0 2.95 37.9 2.95 37.95 6.75 37.95 15.3 37.95 M22.6 16.35 L23.85 16.75 22.6 18.15 22.6 16.35" fill="#333333" fill-rule="evenodd" stroke="none"/>
    <path d="M17.75 38.65 L17.6 38.8 17.6 38.9 Q16.75 39.7 15.5 39.75 L15.4 39.75 15.0 39.75 15.0 31.9 15.4 31.9 15.5 31.9 16.1 31.9 17.75 31.6 17.9 31.45 18.1 31.35 18.4 31.2 18.4 37.9 18.35 37.9 18.2 37.95 17.75 38.65 M15.5 40.15 Q16.95 40.0 17.75 39.05 L17.85 39.05 18.4 38.45 18.4 40.2 Q18.4 41.05 18.0 41.75 L17.5 42.45 Q16.65 43.25 15.5 43.3 L15.25 43.3 15.0 43.3 15.0 40.15 15.4 40.15 15.5 40.15 M27.15 12.1 Q27.8 12.95 27.8 14.05 27.8 14.85 27.45 15.5 L25.15 15.5 Q25.5 14.8 25.45 14.05 L25.15 12.75 24.8 12.1 27.15 12.1 M18.4 17.4 L18.4 18.15 18.1 18.0 17.9 17.8 17.75 17.8 16.1 17.5 15.5 17.5 15.4 17.5 15.0 17.5 15.0 12.8 Q16.2 12.2 18.25 12.1 L19.35 12.1 19.4 12.2 19.4 12.25 19.45 12.25 19.45 12.3 19.75 12.75 Q20.1 13.35 20.1 14.1 L19.75 15.5 19.15 16.3 18.35 17.05 18.25 17.15 18.35 17.3 18.4 17.4 M18.4 18.6 L18.4 24.2 17.75 24.2 15.5 24.2 15.0 24.2 15.0 17.8 15.4 17.8 15.5 17.8 16.1 17.8 17.65 18.1 17.7 18.15 17.75 18.15 17.9 18.25 18.25 18.5 18.4 18.6 M18.4 24.6 L18.4 30.8 18.25 30.8 17.9 31.1 17.75 31.15 17.7 31.2 17.65 31.2 16.1 31.5 15.5 31.5 15.4 31.5 15.0 31.5 15.0 24.6 15.5 24.6 17.75 24.6 18.4 24.6 M24.4 12.1 L24.45 12.2 24.45 12.25 24.5 12.25 24.5 12.3 24.75 12.75 25.05 14.05 Q25.05 14.85 24.7 15.5 L20.15 15.5 20.45 14.1 Q20.5 13.35 20.15 12.75 L19.7 12.1 24.4 12.1" fill="#b86161" fill-rule="evenodd" stroke="none"/>
    <path d="M15.0 31.9 L15.0 39.75 Q14.3 39.65 13.6 39.2 L13.55 39.15 13.15 38.8 Q12.35 37.95 12.3 36.75 L12.3 36.65 12.15 36.65 12.15 31.1 12.55 31.35 12.6 31.4 12.95 31.45 12.95 31.5 13.4 31.7 13.55 31.7 14.6 31.9 14.65 31.9 15.0 31.9 M15.0 43.3 Q14.15 43.25 13.55 42.8 L13.05 42.45 9.45 38.2 12.15 38.2 12.15 37.9 Q12.35 38.5 12.9 39.05 L13.4 39.5 13.55 39.55 15.0 40.15 15.0 43.3 M12.15 30.65 L12.15 24.6 15.0 24.6 15.0 31.5 14.65 31.5 13.55 31.35 13.1 31.2 12.8 31.1 12.3 30.65 12.15 30.65 M12.15 24.2 L12.15 18.75 12.3 18.65 Q12.45 18.4 12.8 18.25 L12.8 18.3 13.1 18.1 13.1 18.15 13.55 18.05 14.65 17.8 15.0 17.8 15.0 24.2 12.15 24.2 M12.15 18.3 L12.15 14.05 Q12.15 12.95 12.8 12.1 L13.05 11.8 Q13.2 11.6 13.55 11.35 L13.65 11.3 Q14.35 10.95 15.25 10.95 L16.0 10.95 16.0 11.0 16.1 11.05 16.25 11.1 17.0 11.05 17.65 11.1 Q18.65 11.25 19.15 11.85 L19.1 11.75 19.15 11.8 19.25 11.85 19.35 12.1 18.25 12.1 Q16.2 12.2 15.0 12.8 L15.0 17.5 14.65 17.5 14.6 17.5 13.55 17.65 13.4 17.65 12.95 17.8 12.6 18.0 12.55 18.0 12.15 18.3 M18.35 10.95 L22.0 10.95 22.05 11.05 22.25 11.1 22.8 11.2 Q23.7 11.3 24.25 11.95 L24.4 12.1 19.7 12.1 19.6 11.95 19.5 11.8 19.45 11.75 19.45 11.6 Q18.95 11.1 18.35 10.95 M23.25 10.95 L24.7 10.95 Q26.0 10.95 26.9 11.8 L27.15 12.1 24.8 12.1 24.7 11.95 24.5 11.7 Q24.0 11.1 23.25 10.95 M27.45 15.5 L26.9 16.3 Q26.0 17.15 24.7 17.15 L23.25 17.15 Q24.0 17.0 24.5 16.45 L25.15 15.5 27.45 15.5 M22.0 17.15 L18.75 17.15 19.45 16.55 19.4 16.55 20.15 15.5 24.7 15.5 24.25 16.1 Q23.45 17.0 22.25 17.05 L22.05 17.05 22.0 17.15" fill="#924343" fill-rule="evenodd" stroke="none"/>
    <path d="M15.5 39.75 L15.5 40.15 15.4 40.15 15.0 40.15 13.55 39.55 13.4 39.5 12.9 39.05 Q12.35 38.5 12.15 37.9 L11.9 36.75 11.95 36.65 12.15 36.65 12.3 36.65 12.3 36.75 Q12.35 37.95 13.15 38.8 L13.55 39.15 13.6 39.2 Q14.3 39.65 15.0 39.75 L15.4 39.75 15.5 39.75 M17.75 39.05 L17.75 38.65 18.2 37.95 18.35 37.9 18.4 37.9 18.45 37.9 18.5 37.95 18.5 38.05 18.4 38.45 17.85 39.05 17.75 39.05 M18.4 31.2 L18.1 31.35 17.9 31.45 17.75 31.6 17.75 31.15 17.9 31.1 18.25 30.8 18.4 30.8 18.5 30.8 18.5 30.9 18.5 31.1 18.4 31.2 M15.5 31.9 L15.4 31.9 15.0 31.9 14.65 31.9 14.6 31.9 13.55 31.7 13.4 31.7 12.95 31.5 12.95 31.45 12.6 31.4 12.55 31.35 12.15 31.1 11.95 30.9 11.9 30.8 11.95 30.65 12.15 30.65 12.3 30.65 12.8 31.1 13.1 31.2 13.55 31.35 14.65 31.5 15.0 31.5 15.4 31.5 15.5 31.5 15.5 31.9 M12.15 24.6 L11.95 24.55 11.9 24.35 11.95 24.2 12.15 24.2 15.0 24.2 15.5 24.2 15.5 24.6 15.0 24.6 12.15 24.6 M12.15 18.75 L11.95 18.65 11.9 18.5 11.95 18.35 12.15 18.3 12.55 18.0 12.6 18.0 12.95 17.8 13.4 17.65 13.55 17.65 14.6 17.5 14.65 17.5 15.0 17.5 15.4 17.5 15.5 17.5 15.5 17.8 15.4 17.8 15.0 17.8 14.65 17.8 13.55 18.05 13.1 18.15 13.1 18.1 12.8 18.3 12.8 18.25 Q12.45 18.4 12.3 18.65 L12.15 18.75 M16.0 10.95 L16.1 10.85 16.15 10.75 17.0 10.7 17.7 10.75 18.35 10.95 Q18.95 11.1 19.45 11.6 L19.45 11.75 19.5 11.8 19.6 11.95 19.7 12.1 20.15 12.75 19.75 12.75 19.45 12.3 19.45 12.25 19.4 12.25 19.4 12.2 19.35 12.1 19.25 11.85 19.15 11.8 19.1 11.75 19.15 11.85 Q18.65 11.25 17.65 11.1 L17.0 11.05 16.25 11.1 16.1 11.05 16.0 11.0 16.0 10.95 M22.0 10.95 L22.05 10.75 22.25 10.75 22.9 10.85 23.25 10.95 Q24.0 11.1 24.5 11.7 L24.7 11.95 24.8 12.1 25.15 12.75 24.75 12.75 24.5 12.3 24.5 12.25 24.45 12.25 24.45 12.2 24.4 12.1 24.25 11.95 Q23.7 11.3 22.8 11.2 L22.25 11.1 22.05 11.05 22.0 10.95 M23.25 17.15 L22.25 17.4 22.05 17.3 22.0 17.15 22.05 17.05 22.25 17.05 Q23.45 17.0 24.25 16.1 L24.7 15.5 25.15 15.5 24.5 16.45 Q24.0 17.0 23.25 17.15 M18.75 17.15 L18.5 17.3 18.4 17.4 18.35 17.3 18.25 17.15 18.35 17.05 19.15 16.3 19.75 15.5 20.15 15.5 19.4 16.55 19.45 16.55 18.75 17.15 M18.4 18.15 L18.5 18.25 18.5 18.35 18.5 18.5 18.4 18.6 18.25 18.5 17.9 18.25 17.75 18.15 17.75 17.8 17.9 17.8 18.1 18.0 18.4 18.15 M18.4 24.2 L18.5 24.2 18.5 24.35 18.5 24.55 18.4 24.6 17.75 24.6 17.75 24.2 18.4 24.2" fill="#daadad" fill-rule="evenodd" stroke="none"/>
    <path d="M15.5 39.75 Q16.75 39.7 17.6 38.9 L17.6 38.8 17.75 38.65 17.75 39.05 Q16.95 40.0 15.5 40.15 L15.5 39.75 M17.75 31.6 L16.1 31.9 15.5 31.9 15.5 31.5 16.1 31.5 17.65 31.2 17.7 31.2 17.75 31.15 17.75 31.6 M25.15 12.75 L25.45 14.05 Q25.5 14.8 25.15 15.5 L24.7 15.5 Q25.05 14.85 25.05 14.05 L24.75 12.75 25.15 12.75 M20.15 15.5 L19.75 15.5 20.1 14.1 Q20.1 13.35 19.75 12.75 L20.15 12.75 Q20.5 13.35 20.45 14.1 L20.15 15.5 M17.75 17.8 L17.75 18.15 17.7 18.15 17.65 18.1 16.1 17.8 15.5 17.8 15.5 17.5 16.1 17.5 17.75 17.8 M15.5 24.2 L17.75 24.2 17.75 24.6 15.5 24.6 15.5 24.2" fill="#ffffff" fill-rule="evenodd" stroke="none"/>
    <path d="M7.7 15.5 L7.7 14.95 8.2 14.95 8.2 15.2 7.7 15.5 M7.7 13.2 L7.7 6.1 8.2 6.1 8.2 9.4 8.2 13.2 7.95 13.2 7.7 13.2 M10.3 8.85 L10.5 8.85 10.5 8.9 10.5 9.1 10.5 13.2 10.3 13.2 10.3 8.85" fill="#676b70" fill-rule="evenodd" stroke="none"/>
    <path d="M11.25 30.25 L10.5 30.25 10.3 30.25 9.95 30.25 9.3 30.25 8.95 30.25 8.2 30.25 7.7 30.25 7.4 30.25 7.4 28.85 7.45 28.85 7.45 28.6 7.7 28.6 7.95 28.6 7.95 30.0 13.1 30.0 13.1 30.25 12.6 30.25 12.25 30.25 11.6 30.25 11.25 30.25 M7.7 14.95 L7.4 14.95 7.4 13.6 7.45 13.6 7.45 13.2 7.7 13.2 7.95 13.2 7.95 14.6 9.3 14.6 13.1 14.6 13.1 14.95 12.6 14.95 12.25 14.95 11.6 14.95 11.25 14.95 10.5 14.95 10.3 14.95 9.95 14.95 9.3 14.95 8.95 14.95 8.6 14.95 8.2 14.95 7.7 14.95" fill="#484b4f" fill-rule="evenodd" stroke="none"/>
    <path d="M8.2 6.1 L8.2 5.9 8.3 5.65 8.55 5.35 8.85 5.15 9.1 5.1 17.55 5.1 Q18.0 5.1 18.3 5.45 L18.4 5.65 8.95 5.65 8.95 13.2 8.2 13.2 8.2 9.4 8.2 6.1 M10.5 8.85 L10.6 8.65 10.85 8.4 11.2 8.15 11.45 8.1 24.05 8.1 Q24.4 8.1 24.8 8.45 L24.9 8.65 11.25 8.65 11.25 13.2 10.5 13.2 10.5 9.1 10.5 8.9 10.5 8.85 M8.6 14.95 L8.2 15.2 8.2 14.95 8.6 14.95" fill="#9aa1a8" fill-rule="evenodd" stroke="none"/>
    <path d="M18.6 6.1 L18.6 6.15 18.4 6.7 9.95 6.7 9.95 13.2 9.3 13.2 9.3 6.1 18.6 6.1 M25.1 9.1 L25.1 9.15 24.9 9.7 12.25 9.7 12.25 13.0 12.25 13.2 11.85 13.2 11.6 13.2 11.6 9.1 25.1 9.1" fill="#e3edf7" fill-rule="evenodd" stroke="none"/>
    <path d="M18.4 5.65 L18.6 6.1 9.3 6.1 9.3 13.2 9.95 13.2 9.95 6.7 18.4 6.7 18.3 6.9 Q18.05 7.2 17.55 7.2 L10.3 7.2 10.3 8.85 10.3 13.2 10.5 13.2 11.25 13.2 11.25 8.65 24.9 8.65 25.1 9.1 11.6 9.1 11.6 13.2 11.85 13.2 9.3 14.6 7.95 14.6 7.95 13.2 8.2 13.2 8.95 13.2 8.95 5.65 18.4 5.65 M24.9 9.7 L24.8 9.9 24.05 10.2 12.6 10.2 12.6 12.85 12.25 13.0 12.25 9.7 24.9 9.7" fill="#b7bfc7" fill-rule="evenodd" stroke="none"/>
    <path d="M10.5 30.25 L10.5 38.1 10.3 38.1 10.3 31.25 10.3 30.25 10.5 30.25 M7.7 37.85 L7.7 30.25 8.2 30.25 8.2 31.25 8.2 37.85 7.7 37.85 M7.7 28.6 L7.7 15.5 8.2 15.2 8.2 24.75 8.2 28.6 7.95 28.6 7.7 28.6 M10.5 28.6 L10.3 28.6 10.3 24.75 10.3 14.95 10.5 14.95 10.5 24.75 10.5 28.6" fill="#44464a" fill-rule="evenodd" stroke="none"/>
    <path d="M9.95 40.3 L9.3 40.6 9.3 38.6 9.3 38.1 9.3 31.25 9.3 30.25 9.95 30.25 9.95 31.25 9.95 38.1 9.95 39.4 9.95 40.3 M12.25 40.55 L11.6 40.8 11.6 30.25 12.25 30.25 12.25 40.55 M12.25 14.95 L12.25 28.6 11.6 28.6 11.6 14.95 12.25 14.95 M9.95 14.95 L9.95 24.75 9.95 28.6 9.3 28.6 9.3 24.75 9.3 14.95 9.95 14.95" fill="#d1dae3" fill-rule="evenodd" stroke="none"/>
    <path d="M11.25 40.8 L11.25 30.25 11.6 30.25 11.6 40.8 11.55 40.8 11.25 40.8 M10.3 38.1 L10.3 39.55 10.25 39.8 10.0 40.2 9.95 40.3 9.95 39.4 9.95 38.1 9.95 31.25 9.95 30.25 10.3 30.25 10.3 31.25 10.3 38.1 M9.3 40.6 L9.25 40.6 8.95 40.6 8.95 31.25 8.95 30.25 9.3 30.25 9.3 31.25 9.3 38.1 9.3 38.6 9.3 40.6 M12.6 12.85 L12.6 13.2 13.2 13.2 13.2 14.6 13.1 14.6 9.3 14.6 11.85 13.2 12.25 13.2 12.25 13.0 12.6 12.85 M12.6 14.95 L12.6 28.6 13.2 28.6 13.2 30.0 13.1 30.0 7.95 30.0 7.95 28.6 8.2 28.6 8.95 28.6 8.95 24.75 8.95 14.95 9.3 14.95 9.3 24.75 9.3 28.6 9.95 28.6 9.95 24.75 9.95 14.95 10.3 14.95 10.3 24.75 10.3 28.6 10.5 28.6 11.25 28.6 11.25 14.95 11.6 14.95 11.6 28.6 12.25 28.6 12.25 14.95 12.6 14.95 M12.6 30.25 L12.6 39.7 12.3 40.45 12.25 40.55 12.25 30.25 12.6 30.25" fill="#9aa0a8" fill-rule="evenodd" stroke="none"/>
    <path d="M11.25 40.8 L10.85 40.45 10.25 39.8 10.3 39.55 10.3 38.1 10.5 38.1 10.5 30.25 11.25 30.25 11.25 40.8 M8.95 40.6 L8.55 40.2 7.55 39.05 6.75 37.85 7.7 37.85 8.2 37.85 8.2 31.25 8.2 30.25 8.95 30.25 8.95 31.25 8.95 40.6 M11.25 14.95 L11.25 28.6 10.5 28.6 10.5 24.75 10.5 14.95 11.25 14.95 M8.95 14.95 L8.95 24.75 8.95 28.6 8.2 28.6 8.2 24.75 8.2 15.2 8.6 14.95 8.95 14.95" fill="#757a80" fill-rule="evenodd" stroke="none"/>
    <path d="M4.75 4.0 L4.75 11.2 3.8 11.15 3.8 3.95 4.75 4.0" fill="#3f4245" fill-rule="evenodd" stroke="none"/>
    <path d="M6.45 10.4 L7.25 10.85 7.25 1.3 5.25 3.95 4.45 3.95 7.15 0.5 7.3 0.25 Q7.5 0.05 7.75 0.0 L7.75 10.95 8.3 11.25 8.3 0.15 8.45 0.25 8.7 0.8 8.7 11.45 8.7 11.6 8.7 11.65 8.45 12.15 8.25 12.25 7.75 11.85 7.7 11.75 5.3 11.25 5.3 11.0 5.55 10.5 Q5.8 10.25 6.15 10.35 L6.45 10.4" fill="#c26560" fill-rule="evenodd" stroke="none"/>
    <path d="M6.45 10.4 L6.75 10.45 7.05 10.5 7.05 2.65 6.05 3.95 5.25 3.95 7.25 1.3 7.25 10.85 6.45 10.4 M8.25 12.25 L7.85 12.25 7.6 12.2 6.8 12.1 6.15 11.95 Q5.8 11.9 5.55 11.65 L5.3 11.25 7.7 11.75 7.75 11.85 8.25 12.25" fill="#94433f" fill-rule="evenodd" stroke="none"/>
    <path d="M7.75 0.0 L7.85 0.0 8.2 0.05 8.3 0.15 8.3 11.25 7.75 10.95 7.75 0.0" fill="#de8682" fill-rule="evenodd" stroke="none"/>
    <path d="M6.1 4.0 L6.1 11.2 5.15 11.15 5.15 3.95 6.1 4.0" fill="#3f4245" fill-rule="evenodd" stroke="none"/>
    <path d="M4.8 10.4 L5.55 10.85 5.55 1.3 3.8 3.95 3.05 3.95 5.45 0.5 5.65 0.25 6.0 0.0 6.0 10.95 6.5 11.25 6.5 0.15 6.65 0.25 6.8 0.8 6.8 11.45 6.8 11.6 6.8 11.65 6.65 12.15 6.45 12.25 5.95 11.75 3.8 11.25 3.8 11.0 4.05 10.5 Q4.3 10.25 4.55 10.35 L4.8 10.4" fill="#c26560" fill-rule="evenodd" stroke="none"/>
    <path d="M4.8 10.4 L5.4 10.5 5.4 2.65 4.5 3.95 3.8 3.95 5.55 1.3 5.55 10.85 4.8 10.4 M6.45 12.25 L6.15 12.25 5.9 12.2 4.55 11.95 4.05 11.65 3.8 11.25 5.95 11.75 6.45 12.25" fill="#94433f" fill-rule="evenodd" stroke="none"/>
    <path d="M6.0 0.0 L6.15 0.0 6.4 0.05 6.5 0.15 6.5 11.25 6.0 10.95 6.0 0.0" fill="#de8682" fill-rule="evenodd" stroke="none"/>
  </g>
</svg>
