<?xml version="1.0" encoding="UTF-8" standalone="no"?>
<svg xmlns:ffdec="https://www.free-decompiler.com/flash" xmlns:xlink="http://www.w3.org/1999/xlink" ffdec:objectType="shape" height="2.25px" width="12.55px" xmlns="http://www.w3.org/2000/svg">
  <g transform="matrix(1.0, 0.0, 0.0, 1.0, 0.3, 0.45)">
    <path d="M10.05 -0.15 L10.15 -0.25 10.6 -0.45 10.9 -0.25 11.45 -0.1 11.7 0.0 Q12.25 0.0 12.25 0.3 L11.8 1.0 Q11.65 0.7 11.2 0.7 L10.95 0.8 11.1 0.65 11.05 0.65 10.55 0.5 10.25 0.55 10.4 0.6 10.7 0.9 10.4 0.9 Q9.65 0.9 9.65 1.2 L9.3 1.45 9.0 1.5 8.35 1.35 7.15 1.6 6.6 1.45 6.7 1.45 8.55 1.3 9.4 0.95 9.9 0.65 8.95 0.8 8.75 0.75 8.7 0.55 8.65 0.55 7.95 0.35 7.4 0.05 7.2 0.1 7.35 0.45 6.5 0.8 5.25 0.9 4.2 0.95 3.6 1.15 3.05 1.1 2.55 0.75 2.05 1.05 2.7 1.1 6.05 1.45 5.15 1.6 4.35 1.8 4.1 1.7 3.7 1.65 3.2 1.8 Q2.95 1.8 2.7 1.6 L2.3 1.4 1.55 1.5 -0.1 1.25 -0.2 1.3 -0.25 1.2 -0.25 1.15 -0.3 1.0 Q-0.3 0.6 0.2 0.55 L0.9 0.55 1.3 0.5 1.5 0.3 1.5 0.25 1.35 0.1 Q1.35 -0.25 2.05 -0.2 L3.6 0.0 4.15 0.15 5.3 -0.1 5.95 0.05 7.0 -0.15 7.4 -0.35 7.65 -0.3 8.3 -0.05 8.75 0.1 9.1 0.1 9.45 -0.05 10.05 -0.15 M1.2 1.05 L1.1 1.1 1.2 1.1 1.2 1.05" fill="#ff6600" fill-rule="evenodd" stroke="none"/>
    <path d="M11.9 0.6 Q11.9 1.3 10.85 1.3 L10.5 1.1 Q10.4 0.85 10.15 0.85 10.0 0.85 9.5 1.2 L9.25 1.45 8.9 1.45 8.75 1.5 7.9 1.75 4.8 1.65 4.15 1.65 3.8 1.65 0.1 1.4 0.0 1.1 0.4 0.85 1.65 1.0 1.6 0.95 Q1.6 -0.3 3.9 0.6 L4.7 0.4 4.85 0.45 6.35 0.4 6.45 0.4 7.3 0.0 Q7.7 0.0 8.1 0.35 L8.35 0.5 9.0 0.4 9.35 0.5 9.65 0.35 Q10.2 0.0 10.45 0.0 L10.75 0.25 Q10.9 0.5 11.1 0.5 L11.6 0.2 11.9 0.6" fill="#ffffcc" fill-rule="evenodd" stroke="none"/>
  </g>
</svg>
