<?xml version="1.0" encoding="UTF-8" standalone="no"?>
<svg xmlns:ffdec="https://www.free-decompiler.com/flash" xmlns:xlink="http://www.w3.org/1999/xlink" ffdec:objectType="shape" height="177.75px" width="128.3px" xmlns="http://www.w3.org/2000/svg">
  <g transform="matrix(1.0, 0.0, 0.0, 1.0, -162.45, 11.2)">
    <path d="M190.8 111.35 L180.9 119.15 180.45 118.55 190.35 110.7 190.8 111.35" fill="url(#gradient0)" fill-rule="evenodd" stroke="none"/>
    <path d="M179.75 118.45 L181.45 117.15 182.75 118.8 181.1 120.15 179.75 118.45" fill="url(#gradient1)" fill-rule="evenodd" stroke="none"/>
    <path d="M190.35 112.8 L189.05 111.1 190.8 109.8 192.1 111.45 190.35 112.8" fill="url(#gradient2)" fill-rule="evenodd" stroke="none"/>
    <path d="M255.75 151.65 L290.25 137.1 290.35 137.35 255.85 151.9 255.75 151.65" fill="url(#gradient3)" fill-rule="evenodd" stroke="none"/>
    <path d="M269.8 145.5 L270.1 146.2 269.35 146.55 269.05 145.85 269.8 145.5" fill="url(#gradient4)" fill-rule="evenodd" stroke="none"/>
    <path d="M264.6 147.7 L265.35 147.4 265.65 148.1 264.9 148.4 264.6 147.7" fill="url(#gradient5)" fill-rule="evenodd" stroke="none"/>
    <path d="M260.9 150.1 L260.15 150.4 259.85 149.7 260.6 149.4 260.9 150.1" fill="url(#gradient6)" fill-rule="evenodd" stroke="none"/>
    <path d="M282.5 141.0 L281.75 141.3 281.45 140.6 282.2 140.3 282.5 141.0" fill="url(#gradient7)" fill-rule="evenodd" stroke="none"/>
    <path d="M286.7 139.25 L285.95 139.55 285.65 138.85 286.4 138.55 286.7 139.25" fill="url(#gradient8)" fill-rule="evenodd" stroke="none"/>
    <path d="M277.85 142.95 L277.55 142.2 278.25 141.9 278.55 142.65 277.85 142.95" fill="url(#gradient9)" fill-rule="evenodd" stroke="none"/>
    <path d="M273.75 144.7 L273.45 144.0 274.2 143.65 274.5 144.35 273.75 144.7" fill="url(#gradient10)" fill-rule="evenodd" stroke="none"/>
    <path d="M289.7 137.15 L290.45 136.85 290.75 137.55 290.0 137.85 289.7 137.15" fill="url(#gradient11)" fill-rule="evenodd" stroke="none"/>
    <path d="M221.0 166.3 L255.5 151.75 255.6 152.0 221.1 166.55 221.0 166.3" fill="url(#gradient12)" fill-rule="evenodd" stroke="none"/>
    <path d="M235.35 160.85 L234.6 161.2 234.3 160.5 235.05 160.15 235.35 160.85" fill="url(#gradient13)" fill-rule="evenodd" stroke="none"/>
    <path d="M230.6 162.05 L230.9 162.75 230.15 163.05 229.85 162.35 230.6 162.05" fill="url(#gradient14)" fill-rule="evenodd" stroke="none"/>
    <path d="M226.15 164.75 L225.4 165.05 225.1 164.35 225.85 164.05 226.15 164.75" fill="url(#gradient15)" fill-rule="evenodd" stroke="none"/>
    <path d="M247.0 155.95 L246.7 155.25 247.45 154.95 247.75 155.65 247.0 155.95" fill="url(#gradient16)" fill-rule="evenodd" stroke="none"/>
    <path d="M251.2 154.2 L250.9 153.5 251.65 153.2 251.95 153.9 251.2 154.2" fill="url(#gradient17)" fill-rule="evenodd" stroke="none"/>
    <path d="M243.1 157.6 L242.8 156.85 243.5 156.55 243.8 157.3 243.1 157.6" fill="url(#gradient18)" fill-rule="evenodd" stroke="none"/>
    <path d="M239.0 159.35 L238.7 158.65 239.45 158.3 239.75 159.0 239.0 159.35" fill="url(#gradient19)" fill-rule="evenodd" stroke="none"/>
    <path d="M254.95 151.8 L255.7 151.5 256.0 152.2 255.25 152.5 254.95 151.8" fill="url(#gradient20)" fill-rule="evenodd" stroke="none"/>
    <path d="M197.45 69.75 L162.95 84.3 162.85 84.05 197.35 69.5 197.45 69.75" fill="url(#gradient21)" fill-rule="evenodd" stroke="none"/>
    <path d="M183.1 75.2 L183.85 74.85 184.15 75.55 183.4 75.9 183.1 75.2" fill="url(#gradient22)" fill-rule="evenodd" stroke="none"/>
    <path d="M187.85 74.0 L187.55 73.3 188.3 73.0 188.6 73.7 187.85 74.0" fill="url(#gradient23)" fill-rule="evenodd" stroke="none"/>
    <path d="M192.3 71.3 L193.05 71.0 193.35 71.7 192.6 72.0 192.3 71.3" fill="url(#gradient24)" fill-rule="evenodd" stroke="none"/>
    <path d="M171.45 80.1 L171.75 80.8 171.0 81.1 170.7 80.4 171.45 80.1" fill="url(#gradient25)" fill-rule="evenodd" stroke="none"/>
    <path d="M167.25 81.85 L167.55 82.55 166.8 82.85 166.5 82.15 167.25 81.85" fill="url(#gradient26)" fill-rule="evenodd" stroke="none"/>
    <path d="M175.35 78.45 L175.65 79.2 174.95 79.5 174.65 78.75 175.35 78.45" fill="url(#gradient27)" fill-rule="evenodd" stroke="none"/>
    <path d="M179.45 76.7 L179.75 77.4 179.0 77.75 178.7 77.05 Q179.1 76.85 179.45 76.7" fill="url(#gradient28)" fill-rule="evenodd" stroke="none"/>
    <path d="M163.5 84.25 L162.75 84.55 162.45 83.85 163.2 83.55 163.5 84.25" fill="url(#gradient29)" fill-rule="evenodd" stroke="none"/>
    <path d="M197.6 69.4 L223.25 58.6 223.25 58.9 197.7 69.65 197.6 69.4" fill="url(#gradient30)" fill-rule="evenodd" stroke="none"/>
    <path d="M218.15 61.25 L217.85 60.55 218.6 60.2 218.9 60.9 218.15 61.25" fill="url(#gradient31)" fill-rule="evenodd" stroke="none"/>
    <path d="M223.35 59.05 L222.6 59.35 222.3 58.65 223.05 58.35 223.35 59.05" fill="url(#gradient32)" fill-rule="evenodd" stroke="none"/>
    <path d="M205.75 66.45 L205.45 65.75 206.2 65.45 206.5 66.15 205.75 66.45" fill="url(#gradient33)" fill-rule="evenodd" stroke="none"/>
    <path d="M201.25 67.5 L202.0 67.2 202.3 67.9 201.55 68.2 201.25 67.5" fill="url(#gradient34)" fill-rule="evenodd" stroke="none"/>
    <path d="M209.4 64.1 L210.1 63.8 210.4 64.55 209.7 64.85 209.4 64.1" fill="url(#gradient35)" fill-rule="evenodd" stroke="none"/>
    <path d="M214.2 62.05 L214.5 62.75 213.75 63.1 213.45 62.4 214.2 62.05" fill="url(#gradient36)" fill-rule="evenodd" stroke="none"/>
    <path d="M198.25 69.6 L197.5 69.9 197.2 69.2 197.95 68.9 198.25 69.6" fill="url(#gradient37)" fill-rule="evenodd" stroke="none"/>
    <path d="M208.35 23.55 L222.9 58.05 222.65 58.15 208.1 23.65 208.35 23.55" fill="url(#gradient38)" fill-rule="evenodd" stroke="none"/>
    <path d="M213.45 37.15 L214.15 36.85 214.5 37.6 213.8 37.9 213.45 37.15" fill="url(#gradient39)" fill-rule="evenodd" stroke="none"/>
    <path d="M212.6 33.15 L211.9 33.45 211.6 32.7 212.3 32.4 212.6 33.15" fill="url(#gradient40)" fill-rule="evenodd" stroke="none"/>
    <path d="M209.6 27.95 L210.3 27.65 210.6 28.4 209.9 28.7 209.6 27.95" fill="url(#gradient41)" fill-rule="evenodd" stroke="none"/>
    <path d="M219.4 49.25 L219.7 50.0 219.0 50.3 218.7 49.55 219.4 49.25" fill="url(#gradient42)" fill-rule="evenodd" stroke="none"/>
    <path d="M221.15 53.45 L221.45 54.2 220.75 54.5 220.45 53.75 221.15 53.45" fill="url(#gradient43)" fill-rule="evenodd" stroke="none"/>
    <path d="M217.05 45.65 L217.8 45.35 218.1 46.05 217.35 46.35 217.05 45.65" fill="url(#gradient44)" fill-rule="evenodd" stroke="none"/>
    <path d="M215.3 41.55 L216.0 41.25 216.35 42.0 215.65 42.3 215.3 41.55" fill="url(#gradient45)" fill-rule="evenodd" stroke="none"/>
    <path d="M222.85 57.5 L223.15 58.25 222.45 58.55 222.15 57.8 222.85 57.5" fill="url(#gradient46)" fill-rule="evenodd" stroke="none"/>
    <path d="M193.7 -11.2 L208.25 23.3 208.0 23.4 193.45 -11.1 193.7 -11.2" fill="url(#gradient47)" fill-rule="evenodd" stroke="none"/>
    <path d="M199.5 2.1 L199.85 2.85 199.15 3.15 198.8 2.4 199.5 2.1" fill="url(#gradient48)" fill-rule="evenodd" stroke="none"/>
    <path d="M197.25 -1.3 L196.95 -2.05 197.65 -2.35 197.95 -1.6 197.25 -1.3" fill="url(#gradient49)" fill-rule="evenodd" stroke="none"/>
    <path d="M194.95 -6.8 L195.65 -7.1 195.95 -6.35 195.25 -6.05 194.95 -6.8" fill="url(#gradient50)" fill-rule="evenodd" stroke="none"/>
    <path d="M205.05 15.25 L204.35 15.55 204.05 14.8 204.75 14.5 205.05 15.25" fill="url(#gradient51)" fill-rule="evenodd" stroke="none"/>
    <path d="M206.8 19.45 L206.1 19.75 205.8 19.0 206.5 18.7 206.8 19.45" fill="url(#gradient52)" fill-rule="evenodd" stroke="none"/>
    <path d="M202.4 10.9 L203.15 10.6 203.45 11.3 202.7 11.6 202.4 10.9" fill="url(#gradient53)" fill-rule="evenodd" stroke="none"/>
    <path d="M200.65 6.8 L201.35 6.5 201.7 7.25 201.0 7.55 200.65 6.8" fill="url(#gradient54)" fill-rule="evenodd" stroke="none"/>
    <path d="M208.2 22.75 L208.5 23.5 207.8 23.8 207.5 23.05 208.2 22.75" fill="url(#gradient55)" fill-rule="evenodd" stroke="none"/>
  </g>
  <defs>
    <radialGradient cx="0" cy="0" gradientTransform="matrix(-0.0482, 0.0382, -0.0382, -0.0482, 151.15, 142.25)" gradientUnits="userSpaceOnUse" id="gradient0" r="819.2" spreadMethod="pad">
      <stop offset="0.0196078431372549" stop-color="#ffffff"/>
      <stop offset="0.9882352941176471" stop-color="#ddd9d2"/>
    </radialGradient>
    <radialGradient cx="0" cy="0" gradientTransform="matrix(-0.0015, 0.0012, -0.0012, -0.0015, 181.2, 118.65)" gradientUnits="userSpaceOnUse" id="gradient1" r="819.2" spreadMethod="pad">
      <stop offset="0.0196078431372549" stop-color="#ffffff"/>
      <stop offset="0.9882352941176471" stop-color="#ddd9d2"/>
    </radialGradient>
    <radialGradient cx="0" cy="0" gradientTransform="matrix(-0.0015, 0.0012, -0.0012, -0.0015, 190.55, 111.25)" gradientUnits="userSpaceOnUse" id="gradient2" r="819.2" spreadMethod="pad">
      <stop offset="0.0196078431372549" stop-color="#ffffff"/>
      <stop offset="0.9882352941176471" stop-color="#ddd9d2"/>
    </radialGradient>
    <radialGradient cx="0" cy="0" gradientTransform="matrix(-0.0211, 0.0089, -0.0089, -0.0211, 273.05, 144.5)" gradientUnits="userSpaceOnUse" id="gradient3" r="819.2" spreadMethod="pad">
      <stop offset="0.0196078431372549" stop-color="#ffffff"/>
      <stop offset="0.9882352941176471" stop-color="#ddd9d2"/>
    </radialGradient>
    <radialGradient cx="0" cy="0" gradientTransform="matrix(-6.0E-4, 3.0E-4, -3.0E-4, -6.0E-4, 269.55, 146.05)" gradientUnits="userSpaceOnUse" id="gradient4" r="819.2" spreadMethod="pad">
      <stop offset="0.0196078431372549" stop-color="#ffffff"/>
      <stop offset="0.9882352941176471" stop-color="#ddd9d2"/>
    </radialGradient>
    <radialGradient cx="0" cy="0" gradientTransform="matrix(-6.0E-4, 3.0E-4, -3.0E-4, -6.0E-4, 265.1, 147.9)" gradientUnits="userSpaceOnUse" id="gradient5" r="819.2" spreadMethod="pad">
      <stop offset="0.0196078431372549" stop-color="#ffffff"/>
      <stop offset="0.9882352941176471" stop-color="#ddd9d2"/>
    </radialGradient>
    <radialGradient cx="0" cy="0" gradientTransform="matrix(-6.0E-4, 3.0E-4, -3.0E-4, -6.0E-4, 260.4, 149.9)" gradientUnits="userSpaceOnUse" id="gradient6" r="819.2" spreadMethod="pad">
      <stop offset="0.0196078431372549" stop-color="#ffffff"/>
      <stop offset="0.9882352941176471" stop-color="#ddd9d2"/>
    </radialGradient>
    <radialGradient cx="0" cy="0" gradientTransform="matrix(-6.0E-4, 3.0E-4, -3.0E-4, -6.0E-4, 281.95, 140.8)" gradientUnits="userSpaceOnUse" id="gradient7" r="819.2" spreadMethod="pad">
      <stop offset="0.0196078431372549" stop-color="#ffffff"/>
      <stop offset="0.9882352941176471" stop-color="#ddd9d2"/>
    </radialGradient>
    <radialGradient cx="0" cy="0" gradientTransform="matrix(-6.0E-4, 3.0E-4, -3.0E-4, -6.0E-4, 286.15, 139.05)" gradientUnits="userSpaceOnUse" id="gradient8" r="819.2" spreadMethod="pad">
      <stop offset="0.0196078431372549" stop-color="#ffffff"/>
      <stop offset="0.9882352941176471" stop-color="#ddd9d2"/>
    </radialGradient>
    <radialGradient cx="0" cy="0" gradientTransform="matrix(-6.0E-4, 3.0E-4, -3.0E-4, -6.0E-4, 278.05, 142.4)" gradientUnits="userSpaceOnUse" id="gradient9" r="819.2" spreadMethod="pad">
      <stop offset="0.0196078431372549" stop-color="#ffffff"/>
      <stop offset="0.9882352941176471" stop-color="#ddd9d2"/>
    </radialGradient>
    <radialGradient cx="0" cy="0" gradientTransform="matrix(-6.0E-4, 3.0E-4, -3.0E-4, -6.0E-4, 273.95, 144.2)" gradientUnits="userSpaceOnUse" id="gradient10" r="819.2" spreadMethod="pad">
      <stop offset="0.0196078431372549" stop-color="#ffffff"/>
      <stop offset="0.9882352941176471" stop-color="#ddd9d2"/>
    </radialGradient>
    <radialGradient cx="0" cy="0" gradientTransform="matrix(-6.0E-4, 3.0E-4, -3.0E-4, -6.0E-4, 290.2, 137.35)" gradientUnits="userSpaceOnUse" id="gradient11" r="819.2" spreadMethod="pad">
      <stop offset="0.0196078431372549" stop-color="#ffffff"/>
      <stop offset="0.9882352941176471" stop-color="#ddd9d2"/>
    </radialGradient>
    <radialGradient cx="0" cy="0" gradientTransform="matrix(-0.0211, 0.0089, -0.0089, -0.0211, 238.3, 159.15)" gradientUnits="userSpaceOnUse" id="gradient12" r="819.2" spreadMethod="pad">
      <stop offset="0.0196078431372549" stop-color="#ffffff"/>
      <stop offset="0.9882352941176471" stop-color="#ddd9d2"/>
    </radialGradient>
    <radialGradient cx="0" cy="0" gradientTransform="matrix(-6.0E-4, 3.0E-4, -3.0E-4, -6.0E-4, 234.8, 160.7)" gradientUnits="userSpaceOnUse" id="gradient13" r="819.2" spreadMethod="pad">
      <stop offset="0.0196078431372549" stop-color="#ffffff"/>
      <stop offset="0.9882352941176471" stop-color="#ddd9d2"/>
    </radialGradient>
    <radialGradient cx="0" cy="0" gradientTransform="matrix(-6.0E-4, 3.0E-4, -3.0E-4, -6.0E-4, 230.35, 162.55)" gradientUnits="userSpaceOnUse" id="gradient14" r="819.2" spreadMethod="pad">
      <stop offset="0.0196078431372549" stop-color="#ffffff"/>
      <stop offset="0.9882352941176471" stop-color="#ddd9d2"/>
    </radialGradient>
    <radialGradient cx="0" cy="0" gradientTransform="matrix(-6.0E-4, 3.0E-4, -3.0E-4, -6.0E-4, 225.65, 164.55)" gradientUnits="userSpaceOnUse" id="gradient15" r="819.2" spreadMethod="pad">
      <stop offset="0.0196078431372549" stop-color="#ffffff"/>
      <stop offset="0.9882352941176471" stop-color="#ddd9d2"/>
    </radialGradient>
    <radialGradient cx="0" cy="0" gradientTransform="matrix(-6.0E-4, 3.0E-4, -3.0E-4, -6.0E-4, 247.2, 155.45)" gradientUnits="userSpaceOnUse" id="gradient16" r="819.2" spreadMethod="pad">
      <stop offset="0.0196078431372549" stop-color="#ffffff"/>
      <stop offset="0.9882352941176471" stop-color="#ddd9d2"/>
    </radialGradient>
    <radialGradient cx="0" cy="0" gradientTransform="matrix(-6.0E-4, 3.0E-4, -3.0E-4, -6.0E-4, 251.4, 153.7)" gradientUnits="userSpaceOnUse" id="gradient17" r="819.2" spreadMethod="pad">
      <stop offset="0.0196078431372549" stop-color="#ffffff"/>
      <stop offset="0.9882352941176471" stop-color="#ddd9d2"/>
    </radialGradient>
    <radialGradient cx="0" cy="0" gradientTransform="matrix(-6.0E-4, 3.0E-4, -3.0E-4, -6.0E-4, 243.3, 157.05)" gradientUnits="userSpaceOnUse" id="gradient18" r="819.2" spreadMethod="pad">
      <stop offset="0.0196078431372549" stop-color="#ffffff"/>
      <stop offset="0.9882352941176471" stop-color="#ddd9d2"/>
    </radialGradient>
    <radialGradient cx="0" cy="0" gradientTransform="matrix(-6.0E-4, 3.0E-4, -3.0E-4, -6.0E-4, 239.2, 158.85)" gradientUnits="userSpaceOnUse" id="gradient19" r="819.2" spreadMethod="pad">
      <stop offset="0.0196078431372549" stop-color="#ffffff"/>
      <stop offset="0.9882352941176471" stop-color="#ddd9d2"/>
    </radialGradient>
    <radialGradient cx="0" cy="0" gradientTransform="matrix(-6.0E-4, 3.0E-4, -3.0E-4, -6.0E-4, 255.45, 152.0)" gradientUnits="userSpaceOnUse" id="gradient20" r="819.2" spreadMethod="pad">
      <stop offset="0.0196078431372549" stop-color="#ffffff"/>
      <stop offset="0.9882352941176471" stop-color="#ddd9d2"/>
    </radialGradient>
    <radialGradient cx="0" cy="0" gradientTransform="matrix(0.0211, -0.0089, 0.0089, 0.0211, 180.15, 76.9)" gradientUnits="userSpaceOnUse" id="gradient21" r="819.2" spreadMethod="pad">
      <stop offset="0.0196078431372549" stop-color="#ffffff"/>
      <stop offset="0.9882352941176471" stop-color="#ddd9d2"/>
    </radialGradient>
    <radialGradient cx="0" cy="0" gradientTransform="matrix(6.0E-4, -3.0E-4, 3.0E-4, 6.0E-4, 183.65, 75.35)" gradientUnits="userSpaceOnUse" id="gradient22" r="819.2" spreadMethod="pad">
      <stop offset="0.0196078431372549" stop-color="#ffffff"/>
      <stop offset="0.9882352941176471" stop-color="#ddd9d2"/>
    </radialGradient>
    <radialGradient cx="0" cy="0" gradientTransform="matrix(6.0E-4, -3.0E-4, 3.0E-4, 6.0E-4, 188.1, 73.5)" gradientUnits="userSpaceOnUse" id="gradient23" r="819.2" spreadMethod="pad">
      <stop offset="0.0196078431372549" stop-color="#ffffff"/>
      <stop offset="0.9882352941176471" stop-color="#ddd9d2"/>
    </radialGradient>
    <radialGradient cx="0" cy="0" gradientTransform="matrix(6.0E-4, -3.0E-4, 3.0E-4, 6.0E-4, 192.8, 71.5)" gradientUnits="userSpaceOnUse" id="gradient24" r="819.2" spreadMethod="pad">
      <stop offset="0.0196078431372549" stop-color="#ffffff"/>
      <stop offset="0.9882352941176471" stop-color="#ddd9d2"/>
    </radialGradient>
    <radialGradient cx="0" cy="0" gradientTransform="matrix(6.0E-4, -3.0E-4, 3.0E-4, 6.0E-4, 171.25, 80.6)" gradientUnits="userSpaceOnUse" id="gradient25" r="819.2" spreadMethod="pad">
      <stop offset="0.0196078431372549" stop-color="#ffffff"/>
      <stop offset="0.9882352941176471" stop-color="#ddd9d2"/>
    </radialGradient>
    <radialGradient cx="0" cy="0" gradientTransform="matrix(6.0E-4, -3.0E-4, 3.0E-4, 6.0E-4, 167.05, 82.35)" gradientUnits="userSpaceOnUse" id="gradient26" r="819.2" spreadMethod="pad">
      <stop offset="0.0196078431372549" stop-color="#ffffff"/>
      <stop offset="0.9882352941176471" stop-color="#ddd9d2"/>
    </radialGradient>
    <radialGradient cx="0" cy="0" gradientTransform="matrix(6.0E-4, -3.0E-4, 3.0E-4, 6.0E-4, 175.15, 79.0)" gradientUnits="userSpaceOnUse" id="gradient27" r="819.2" spreadMethod="pad">
      <stop offset="0.0196078431372549" stop-color="#ffffff"/>
      <stop offset="0.9882352941176471" stop-color="#ddd9d2"/>
    </radialGradient>
    <radialGradient cx="0" cy="0" gradientTransform="matrix(6.0E-4, -3.0E-4, 3.0E-4, 6.0E-4, 179.25, 77.2)" gradientUnits="userSpaceOnUse" id="gradient28" r="819.2" spreadMethod="pad">
      <stop offset="0.0196078431372549" stop-color="#ffffff"/>
      <stop offset="0.9882352941176471" stop-color="#ddd9d2"/>
    </radialGradient>
    <radialGradient cx="0" cy="0" gradientTransform="matrix(6.0E-4, -3.0E-4, 3.0E-4, 6.0E-4, 163.0, 84.05)" gradientUnits="userSpaceOnUse" id="gradient29" r="819.2" spreadMethod="pad">
      <stop offset="0.0196078431372549" stop-color="#ffffff"/>
      <stop offset="0.9882352941176471" stop-color="#ddd9d2"/>
    </radialGradient>
    <radialGradient cx="0" cy="0" gradientTransform="matrix(0.0211, -0.0089, 0.0089, 0.0211, 214.9, 62.25)" gradientUnits="userSpaceOnUse" id="gradient30" r="819.2" spreadMethod="pad">
      <stop offset="0.0196078431372549" stop-color="#ffffff"/>
      <stop offset="0.9882352941176471" stop-color="#ddd9d2"/>
    </radialGradient>
    <radialGradient cx="0" cy="0" gradientTransform="matrix(6.0E-4, -3.0E-4, 3.0E-4, 6.0E-4, 218.4, 60.7)" gradientUnits="userSpaceOnUse" id="gradient31" r="819.2" spreadMethod="pad">
      <stop offset="0.0196078431372549" stop-color="#ffffff"/>
      <stop offset="0.9882352941176471" stop-color="#ddd9d2"/>
    </radialGradient>
    <radialGradient cx="0" cy="0" gradientTransform="matrix(6.0E-4, -3.0E-4, 3.0E-4, 6.0E-4, 222.85, 58.85)" gradientUnits="userSpaceOnUse" id="gradient32" r="819.2" spreadMethod="pad">
      <stop offset="0.0196078431372549" stop-color="#ffffff"/>
      <stop offset="0.9882352941176471" stop-color="#ddd9d2"/>
    </radialGradient>
    <radialGradient cx="0" cy="0" gradientTransform="matrix(6.0E-4, -3.0E-4, 3.0E-4, 6.0E-4, 206.0, 65.95)" gradientUnits="userSpaceOnUse" id="gradient33" r="819.2" spreadMethod="pad">
      <stop offset="0.0196078431372549" stop-color="#ffffff"/>
      <stop offset="0.9882352941176471" stop-color="#ddd9d2"/>
    </radialGradient>
    <radialGradient cx="0" cy="0" gradientTransform="matrix(6.0E-4, -3.0E-4, 3.0E-4, 6.0E-4, 201.8, 67.7)" gradientUnits="userSpaceOnUse" id="gradient34" r="819.2" spreadMethod="pad">
      <stop offset="0.0196078431372549" stop-color="#ffffff"/>
      <stop offset="0.9882352941176471" stop-color="#ddd9d2"/>
    </radialGradient>
    <radialGradient cx="0" cy="0" gradientTransform="matrix(6.0E-4, -3.0E-4, 3.0E-4, 6.0E-4, 209.9, 64.35)" gradientUnits="userSpaceOnUse" id="gradient35" r="819.2" spreadMethod="pad">
      <stop offset="0.0196078431372549" stop-color="#ffffff"/>
      <stop offset="0.9882352941176471" stop-color="#ddd9d2"/>
    </radialGradient>
    <radialGradient cx="0" cy="0" gradientTransform="matrix(6.0E-4, -3.0E-4, 3.0E-4, 6.0E-4, 214.0, 62.55)" gradientUnits="userSpaceOnUse" id="gradient36" r="819.2" spreadMethod="pad">
      <stop offset="0.0196078431372549" stop-color="#ffffff"/>
      <stop offset="0.9882352941176471" stop-color="#ddd9d2"/>
    </radialGradient>
    <radialGradient cx="0" cy="0" gradientTransform="matrix(6.0E-4, -3.0E-4, 3.0E-4, 6.0E-4, 197.75, 69.4)" gradientUnits="userSpaceOnUse" id="gradient37" r="819.2" spreadMethod="pad">
      <stop offset="0.0196078431372549" stop-color="#ffffff"/>
      <stop offset="0.9882352941176471" stop-color="#ddd9d2"/>
    </radialGradient>
    <radialGradient cx="0" cy="0" gradientTransform="matrix(-0.0089, -0.0211, 0.0211, -0.0089, 215.5, 40.85)" gradientUnits="userSpaceOnUse" id="gradient38" r="819.2" spreadMethod="pad">
      <stop offset="0.0196078431372549" stop-color="#ffffff"/>
      <stop offset="0.9882352941176471" stop-color="#ddd9d2"/>
    </radialGradient>
    <radialGradient cx="0" cy="0" gradientTransform="matrix(-3.0E-4, -6.0E-4, 6.0E-4, -3.0E-4, 213.95, 37.35)" gradientUnits="userSpaceOnUse" id="gradient39" r="819.2" spreadMethod="pad">
      <stop offset="0.0196078431372549" stop-color="#ffffff"/>
      <stop offset="0.9882352941176471" stop-color="#ddd9d2"/>
    </radialGradient>
    <radialGradient cx="0" cy="0" gradientTransform="matrix(-3.0E-4, -6.0E-4, 6.0E-4, -3.0E-4, 212.1, 32.9)" gradientUnits="userSpaceOnUse" id="gradient40" r="819.2" spreadMethod="pad">
      <stop offset="0.0196078431372549" stop-color="#ffffff"/>
      <stop offset="0.9882352941176471" stop-color="#ddd9d2"/>
    </radialGradient>
    <radialGradient cx="0" cy="0" gradientTransform="matrix(-3.0E-4, -6.0E-4, 6.0E-4, -3.0E-4, 210.1, 28.2)" gradientUnits="userSpaceOnUse" id="gradient41" r="819.2" spreadMethod="pad">
      <stop offset="0.0196078431372549" stop-color="#ffffff"/>
      <stop offset="0.9882352941176471" stop-color="#ddd9d2"/>
    </radialGradient>
    <radialGradient cx="0" cy="0" gradientTransform="matrix(-3.0E-4, -6.0E-4, 6.0E-4, -3.0E-4, 219.2, 49.75)" gradientUnits="userSpaceOnUse" id="gradient42" r="819.2" spreadMethod="pad">
      <stop offset="0.0196078431372549" stop-color="#ffffff"/>
      <stop offset="0.9882352941176471" stop-color="#ddd9d2"/>
    </radialGradient>
    <radialGradient cx="0" cy="0" gradientTransform="matrix(-3.0E-4, -6.0E-4, 6.0E-4, -3.0E-4, 220.95, 53.95)" gradientUnits="userSpaceOnUse" id="gradient43" r="819.2" spreadMethod="pad">
      <stop offset="0.0196078431372549" stop-color="#ffffff"/>
      <stop offset="0.9882352941176471" stop-color="#ddd9d2"/>
    </radialGradient>
    <radialGradient cx="0" cy="0" gradientTransform="matrix(-3.0E-4, -6.0E-4, 6.0E-4, -3.0E-4, 217.6, 45.85)" gradientUnits="userSpaceOnUse" id="gradient44" r="819.2" spreadMethod="pad">
      <stop offset="0.0196078431372549" stop-color="#ffffff"/>
      <stop offset="0.9882352941176471" stop-color="#ddd9d2"/>
    </radialGradient>
    <radialGradient cx="0" cy="0" gradientTransform="matrix(-3.0E-4, -6.0E-4, 6.0E-4, -3.0E-4, 215.8, 41.75)" gradientUnits="userSpaceOnUse" id="gradient45" r="819.2" spreadMethod="pad">
      <stop offset="0.0196078431372549" stop-color="#ffffff"/>
      <stop offset="0.9882352941176471" stop-color="#ddd9d2"/>
    </radialGradient>
    <radialGradient cx="0" cy="0" gradientTransform="matrix(-3.0E-4, -6.0E-4, 6.0E-4, -3.0E-4, 222.65, 58.0)" gradientUnits="userSpaceOnUse" id="gradient46" r="819.2" spreadMethod="pad">
      <stop offset="0.0196078431372549" stop-color="#ffffff"/>
      <stop offset="0.9882352941176471" stop-color="#ddd9d2"/>
    </radialGradient>
    <radialGradient cx="0" cy="0" gradientTransform="matrix(-0.0089, -0.0211, 0.0211, -0.0089, 200.85, 6.1)" gradientUnits="userSpaceOnUse" id="gradient47" r="819.2" spreadMethod="pad">
      <stop offset="0.0196078431372549" stop-color="#ffffff"/>
      <stop offset="0.9882352941176471" stop-color="#ddd9d2"/>
    </radialGradient>
    <radialGradient cx="0" cy="0" gradientTransform="matrix(-3.0E-4, -6.0E-4, 6.0E-4, -3.0E-4, 199.3, 2.6)" gradientUnits="userSpaceOnUse" id="gradient48" r="819.2" spreadMethod="pad">
      <stop offset="0.0196078431372549" stop-color="#ffffff"/>
      <stop offset="0.9882352941176471" stop-color="#ddd9d2"/>
    </radialGradient>
    <radialGradient cx="0" cy="0" gradientTransform="matrix(-3.0E-4, -6.0E-4, 6.0E-4, -3.0E-4, 197.45, -1.85)" gradientUnits="userSpaceOnUse" id="gradient49" r="819.2" spreadMethod="pad">
      <stop offset="0.0196078431372549" stop-color="#ffffff"/>
      <stop offset="0.9882352941176471" stop-color="#ddd9d2"/>
    </radialGradient>
    <radialGradient cx="0" cy="0" gradientTransform="matrix(-3.0E-4, -6.0E-4, 6.0E-4, -3.0E-4, 195.45, -6.55)" gradientUnits="userSpaceOnUse" id="gradient50" r="819.2" spreadMethod="pad">
      <stop offset="0.0196078431372549" stop-color="#ffffff"/>
      <stop offset="0.9882352941176471" stop-color="#ddd9d2"/>
    </radialGradient>
    <radialGradient cx="0" cy="0" gradientTransform="matrix(-3.0E-4, -6.0E-4, 6.0E-4, -3.0E-4, 204.55, 15.0)" gradientUnits="userSpaceOnUse" id="gradient51" r="819.2" spreadMethod="pad">
      <stop offset="0.0196078431372549" stop-color="#ffffff"/>
      <stop offset="0.9882352941176471" stop-color="#ddd9d2"/>
    </radialGradient>
    <radialGradient cx="0" cy="0" gradientTransform="matrix(-3.0E-4, -6.0E-4, 6.0E-4, -3.0E-4, 206.3, 19.2)" gradientUnits="userSpaceOnUse" id="gradient52" r="819.2" spreadMethod="pad">
      <stop offset="0.0196078431372549" stop-color="#ffffff"/>
      <stop offset="0.9882352941176471" stop-color="#ddd9d2"/>
    </radialGradient>
    <radialGradient cx="0" cy="0" gradientTransform="matrix(-3.0E-4, -6.0E-4, 6.0E-4, -3.0E-4, 202.95, 11.1)" gradientUnits="userSpaceOnUse" id="gradient53" r="819.2" spreadMethod="pad">
      <stop offset="0.0196078431372549" stop-color="#ffffff"/>
      <stop offset="0.9882352941176471" stop-color="#ddd9d2"/>
    </radialGradient>
    <radialGradient cx="0" cy="0" gradientTransform="matrix(-3.0E-4, -6.0E-4, 6.0E-4, -3.0E-4, 201.15, 7.0)" gradientUnits="userSpaceOnUse" id="gradient54" r="819.2" spreadMethod="pad">
      <stop offset="0.0196078431372549" stop-color="#ffffff"/>
      <stop offset="0.9882352941176471" stop-color="#ddd9d2"/>
    </radialGradient>
    <radialGradient cx="0" cy="0" gradientTransform="matrix(-3.0E-4, -6.0E-4, 6.0E-4, -3.0E-4, 208.0, 23.25)" gradientUnits="userSpaceOnUse" id="gradient55" r="819.2" spreadMethod="pad">
      <stop offset="0.0196078431372549" stop-color="#ffffff"/>
      <stop offset="0.9882352941176471" stop-color="#ddd9d2"/>
    </radialGradient>
  </defs>
</svg>
