<?xml version="1.0" encoding="UTF-8" standalone="no"?>
<svg xmlns:ffdec="https://www.free-decompiler.com/flash" xmlns:xlink="http://www.w3.org/1999/xlink" ffdec:objectType="shape" height="17.25px" width="17.8px" xmlns="http://www.w3.org/2000/svg">
  <g transform="matrix(1.0, 0.0, 0.0, 1.0, 10.0, 8.0)">
    <path d="M7.75 1.15 Q7.75 4.5 5.4 6.9 3.0 9.25 -0.4 9.25 -3.8 9.25 -6.15 6.9 -8.55 4.5 -8.55 1.15 -8.55 -2.2 -6.15 -4.55 -3.8 -6.95 -0.4 -6.95 3.0 -6.95 5.4 -4.55 7.75 -2.2 7.75 1.15" fill="#302115" fill-rule="evenodd" stroke="none"/>
    <path d="M-7.55 3.15 L-6.5 4.85 -6.9 5.1 -9.0 1.45 Q-8.65 1.45 -7.55 3.15" fill="url(#gradient0)" fill-rule="evenodd" stroke="none"/>
    <path d="M-7.15 3.9 Q-6.4 2.2 -5.9 2.0 -5.45 1.8 -5.0 2.3 -4.55 2.75 -4.3 3.7 -4.1 4.65 -4.15 5.75 L-4.2 6.75 -5.7 5.35 -7.15 3.9" fill="#515e54" fill-rule="evenodd" stroke="none"/>
    <path d="M-7.15 3.9 L-5.7 5.35 -4.2 6.75 -4.15 6.75 -4.6 7.25 Q-5.0 7.6 -5.65 7.6 -6.75 7.6 -7.35 7.0 -7.95 6.4 -7.95 5.55 -7.95 4.5 -7.15 3.9" fill="url(#gradient1)" fill-rule="evenodd" stroke="none"/>
    <path d="M-8.1 -0.35 Q-5.8 0.35 -5.8 1.9 -5.8 2.3 -6.25 2.75 L-7.25 3.7 Q-8.1 1.45 -8.1 -0.35" fill="#95a898" fill-rule="evenodd" stroke="none"/>
    <path d="M-8.1 -0.35 Q-8.1 1.45 -7.25 3.7 -8.8 3.4 -9.5 2.6 L-10.0 1.7 -9.5 0.95 -8.1 -0.35" fill="url(#gradient2)" fill-rule="evenodd" stroke="none"/>
    <path d="M0.65 -0.2 L0.8 -0.1 0.65 0.0 0.65 -0.1 0.65 -0.2" fill="url(#gradient3)" fill-rule="evenodd" stroke="none"/>
    <path d="M-7.2 -0.1 L-7.2 -0.4 Q-7.2 -3.4 -5.1 -5.55 L0.65 -0.2 0.65 -0.1 -7.2 -0.1" fill="url(#gradient4)" fill-rule="evenodd" stroke="none"/>
    <path d="M-5.1 -5.55 L-5.05 -5.65 Q-3.05 -7.55 -0.4 -7.75 L0.2 -7.75 0.65 -7.75 0.65 -0.2 -5.1 -5.55" fill="url(#gradient5)" fill-rule="evenodd" stroke="none"/>
    <path d="M5.6 -5.4 Q7.55 -3.3 7.55 -0.4 L7.55 -0.1 0.8 -0.1 5.6 -5.4" fill="url(#gradient6)" fill-rule="evenodd" stroke="none"/>
    <path d="M7.55 -0.1 L7.55 0.55 Q7.25 2.8 5.7 4.5 L0.8 -0.1 7.55 -0.1" fill="url(#gradient7)" fill-rule="evenodd" stroke="none"/>
    <path d="M5.7 4.5 L5.4 4.8 Q3.4 6.8 0.65 7.0 L0.65 0.0 0.8 -0.1 5.7 4.5" fill="url(#gradient8)" fill-rule="evenodd" stroke="none"/>
    <path d="M0.65 7.0 L0.2 7.0 -0.4 7.0 Q-2.55 6.8 -4.25 5.5 L-4.3 5.5 0.65 0.0 0.65 7.0" fill="url(#gradient9)" fill-rule="evenodd" stroke="none"/>
    <path d="M-4.3 5.5 L-5.05 4.8 Q-6.85 3.0 -7.1 0.55 L-7.2 -0.1 0.65 -0.1 0.65 0.0 -4.3 5.5" fill="url(#gradient10)" fill-rule="evenodd" stroke="none"/>
    <path d="M0.65 -7.75 Q3.4 -7.6 5.4 -5.65 L5.5 -5.5 5.6 -5.4 0.8 -0.1 0.65 -0.2 0.65 -7.75" fill="url(#gradient11)" fill-rule="evenodd" stroke="none"/>
    <path d="M5.3 -5.55 Q3.15 -7.65 0.1 -7.65 L-0.8 -7.6 Q-3.25 -7.3 -5.1 -5.55 -7.2 -3.4 -7.2 -0.35 -7.2 2.7 -5.1 4.8 -3.95 5.9 -2.6 6.45 L0.1 7.0 Q3.15 6.95 5.3 4.8 7.45 2.7 7.45 -0.35 7.45 -3.4 5.3 -5.55 M0.1 -7.85 Q3.25 -7.9 5.4 -5.7 7.65 -3.5 7.65 -0.35 7.65 2.75 5.4 4.95 3.25 7.15 0.1 7.15 L-2.7 6.65 Q-4.1 6.05 -5.2 4.95 -7.4 2.75 -7.35 -0.35 -7.4 -3.5 -5.2 -5.7 -3.35 -7.55 -0.8 -7.75 L0.1 -7.85" fill="#607062" fill-rule="evenodd" stroke="none"/>
    <path d="M0.1 -7.85 L-0.8 -7.75 Q-3.35 -7.55 -5.2 -5.7 -7.4 -3.5 -7.35 -0.35 -7.4 2.75 -5.2 4.95 -4.1 6.05 -2.7 6.65 L0.1 7.15 Q3.25 7.15 5.4 4.95 7.65 2.75 7.65 -0.35 7.65 -3.5 5.4 -5.7 3.25 -7.9 0.1 -7.85 M7.8 -0.35 Q7.8 2.85 5.55 5.1 4.0 6.65 2.0 7.15 L0.1 7.35 -0.95 7.3 Q-3.45 6.95 -5.3 5.1 -7.55 2.85 -7.55 -0.35 -7.55 -3.5 -5.3 -5.75 L-4.3 -6.65 Q-2.35 -8.0 0.1 -8.0 2.15 -8.0 3.8 -7.1 L5.55 -5.75 Q7.8 -3.5 7.8 -0.35" fill="#c8d1ca" fill-rule="evenodd" stroke="none"/>
    <path d="M5.3 -5.55 Q7.45 -3.4 7.45 -0.35 7.45 2.7 5.3 4.8 3.15 6.95 0.1 7.0 L-2.6 6.45 Q-3.95 5.9 -5.1 4.8 -7.2 2.7 -7.2 -0.35 -7.2 -3.4 -5.1 -5.55 -3.25 -7.3 -0.8 -7.6 L0.1 -7.65 Q3.15 -7.65 5.3 -5.55" fill="url(#gradient12)" fill-rule="evenodd" stroke="none"/>
  </g>
  <defs>
    <radialGradient cx="0" cy="0" gradientTransform="matrix(0.0026, 0.0046, -0.0046, 0.0026, -8.8, 1.2)" gradientUnits="userSpaceOnUse" id="gradient0" r="819.2" spreadMethod="pad">
      <stop offset="0.0" stop-color="#ccdfd0"/>
      <stop offset="0.3764705882352941" stop-color="#8db896"/>
      <stop offset="0.9764705882352941" stop-color="#6b8c72"/>
    </radialGradient>
    <radialGradient cx="0" cy="0" fx="41.6" fy="0" gradientTransform="matrix(0.0026, 0.0, 0.0, 0.0026, -5.85, 5.55)" gradientUnits="userSpaceOnUse" id="gradient1" r="819.2" spreadMethod="pad">
      <stop offset="0.0" stop-color="#b4c2b7"/>
      <stop offset="0.3764705882352941" stop-color="#8ba38f"/>
      <stop offset="0.9764705882352941" stop-color="#4e5c51"/>
    </radialGradient>
    <radialGradient cx="0" cy="0" fx="41.6" fy="0" gradientTransform="matrix(0.0026, 0.0, 0.0, 0.0026, -7.9, 1.7)" gradientUnits="userSpaceOnUse" id="gradient2" r="819.2" spreadMethod="pad">
      <stop offset="0.0" stop-color="#ccdfd0"/>
      <stop offset="0.5686274509803921" stop-color="#b2c7b6"/>
      <stop offset="0.9882352941176471" stop-color="#8da392"/>
    </radialGradient>
    <radialGradient cx="0" cy="0" fx="41.6" fy="0" gradientTransform="matrix(0.0091, 0.0, 0.0, 0.0091, 0.2, -0.4)" gradientUnits="userSpaceOnUse" id="gradient3" r="819.2" spreadMethod="pad">
      <stop offset="0.0" stop-color="#ccdfd0"/>
      <stop offset="0.3764705882352941" stop-color="#8db896"/>
      <stop offset="0.9725490196078431" stop-color="#6b8c72"/>
    </radialGradient>
    <radialGradient cx="0" cy="0" fx="41.6" fy="0" gradientTransform="matrix(0.0091, 0.0, 0.0, 0.0091, 0.2, -0.4)" gradientUnits="userSpaceOnUse" id="gradient4" r="819.2" spreadMethod="pad">
      <stop offset="0.0" stop-color="#d8ebdc"/>
      <stop offset="0.3764705882352941" stop-color="#bed6c3"/>
      <stop offset="0.9725490196078431" stop-color="#9cbba3"/>
    </radialGradient>
    <radialGradient cx="0" cy="0" fx="41.6" fy="0" gradientTransform="matrix(0.0091, 0.0, 0.0, 0.0091, 0.2, -0.4)" gradientUnits="userSpaceOnUse" id="gradient5" r="819.2" spreadMethod="pad">
      <stop offset="0.0" stop-color="#ccdfd0"/>
      <stop offset="0.3764705882352941" stop-color="#a7b8ab"/>
      <stop offset="0.9725490196078431" stop-color="#748c79"/>
    </radialGradient>
    <radialGradient cx="0" cy="0" fx="41.6" fy="0" gradientTransform="matrix(0.0091, 0.0, 0.0, 0.0091, 0.2, -0.4)" gradientUnits="userSpaceOnUse" id="gradient6" r="819.2" spreadMethod="pad">
      <stop offset="0.0" stop-color="#ccdfd0"/>
      <stop offset="0.3764705882352941" stop-color="#809985"/>
      <stop offset="0.9725490196078431" stop-color="#5a6e5d"/>
    </radialGradient>
    <radialGradient cx="0" cy="0" fx="41.6" fy="0" gradientTransform="matrix(0.0091, 0.0, 0.0, 0.0091, 0.2, -0.4)" gradientUnits="userSpaceOnUse" id="gradient7" r="819.2" spreadMethod="pad">
      <stop offset="0.0" stop-color="#ccdfd0"/>
      <stop offset="0.3764705882352941" stop-color="#869e8c"/>
      <stop offset="0.9725490196078431" stop-color="#4b634f"/>
    </radialGradient>
    <radialGradient cx="0" cy="0" fx="41.6" fy="0" gradientTransform="matrix(0.0091, 0.0, 0.0, 0.0091, 0.2, -0.4)" gradientUnits="userSpaceOnUse" id="gradient8" r="819.2" spreadMethod="pad">
      <stop offset="0.0" stop-color="#d0ded3"/>
      <stop offset="0.3764705882352941" stop-color="#92a896"/>
      <stop offset="0.9725490196078431" stop-color="#617365"/>
    </radialGradient>
    <radialGradient cx="0" cy="0" fx="41.6" fy="0" gradientTransform="matrix(0.0091, 0.0, 0.0, 0.0091, 0.2, -0.4)" gradientUnits="userSpaceOnUse" id="gradient9" r="819.2" spreadMethod="pad">
      <stop offset="0.0" stop-color="#ccdfd0"/>
      <stop offset="0.3764705882352941" stop-color="#9eb8a3"/>
      <stop offset="0.9725490196078431" stop-color="#6b8c72"/>
    </radialGradient>
    <radialGradient cx="0" cy="0" fx="41.6" fy="0" gradientTransform="matrix(0.0091, 0.0, 0.0, 0.0091, 0.2, -0.4)" gradientUnits="userSpaceOnUse" id="gradient10" r="819.2" spreadMethod="pad">
      <stop offset="0.0" stop-color="#ccdfd0"/>
      <stop offset="0.3764705882352941" stop-color="#b3ccb8"/>
      <stop offset="0.9725490196078431" stop-color="#92a395"/>
    </radialGradient>
    <radialGradient cx="0" cy="0" fx="41.6" fy="0" gradientTransform="matrix(0.0091, 0.0, 0.0, 0.0091, 0.2, -0.4)" gradientUnits="userSpaceOnUse" id="gradient11" r="819.2" spreadMethod="pad">
      <stop offset="0.0" stop-color="#ccdfd0"/>
      <stop offset="0.3764705882352941" stop-color="#92a896"/>
      <stop offset="0.9725490196078431" stop-color="#667368"/>
    </radialGradient>
    <radialGradient cx="0" cy="0" gradientTransform="matrix(0.0108, 0.0, 0.0, 0.0108, -0.1, 3.5)" gradientUnits="userSpaceOnUse" id="gradient12" r="819.2" spreadMethod="pad">
      <stop offset="0.0" stop-color="#8a7855" stop-opacity="0.48235294"/>
      <stop offset="0.9725490196078431" stop-color="#a1a1a1" stop-opacity="0.28235295"/>
    </radialGradient>
  </defs>
</svg>
