<?xml version="1.0" encoding="UTF-8" standalone="no"?>
<svg xmlns:ffdec="https://www.free-decompiler.com/flash" xmlns:xlink="http://www.w3.org/1999/xlink" ffdec:objectType="shape" height="3.2px" width="12.75px" xmlns="http://www.w3.org/2000/svg">
  <g transform="matrix(1.0, 0.0, 0.0, 1.0, 1.15, 1.25)">
    <path d="M3.15 -1.05 L3.4 -1.15 4.65 -0.45 Q5.7 0.2 6.25 0.2 L7.55 0.55 7.7 0.35 7.35 -0.15 7.45 -0.45 6.7 -1.05 6.75 -1.25 6.9 -1.25 7.2 -1.2 7.5 -1.25 8.55 -1.0 8.8 -0.85 9.5 -0.45 9.85 -0.6 10.25 -0.45 Q10.5 -0.45 11.35 0.5 L11.1 1.05 10.6 1.25 10.1 0.85 10.05 0.8 Q10.1 0.6 10.3 0.6 L9.75 0.2 9.35 0.3 Q9.1 0.3 8.95 0.1 8.85 -0.15 8.5 -0.15 L8.45 -0.15 8.7 0.2 8.7 0.6 8.55 0.65 8.4 0.9 8.9 0.75 9.1 0.85 9.35 0.75 Q10.05 0.75 10.05 1.1 10.05 1.6 9.1 1.4 L7.4 1.7 6.35 1.95 5.85 1.8 5.05 1.7 4.05 1.55 3.75 1.4 2.95 1.3 Q2.4 1.3 2.4 0.9 L2.55 0.8 2.8 0.9 3.55 0.8 4.9 1.05 5.6 1.2 6.05 1.1 6.55 1.3 6.9 1.25 6.75 1.2 6.0 1.05 5.2 0.9 4.85 0.65 4.65 0.35 3.85 -0.25 4.05 0.05 4.0 0.35 3.75 0.35 3.75 0.3 3.45 0.45 2.65 0.65 1.15 1.1 0.5 1.15 0.3 1.25 0.2 1.15 -0.1 1.3 -0.45 1.05 -0.75 1.1 -1.0 1.25 -1.15 1.05 -0.75 0.8 1.5 0.55 1.9 0.3 2.3 0.0 2.55 0.1 3.35 -0.2 3.4 -0.25 3.05 -0.7 2.85 -0.85 2.75 -0.9 2.65 -1.0 2.65 -1.15 2.9 -1.15 3.15 -1.05" fill="#ff6600" fill-rule="evenodd" stroke="none"/>
    <path d="M4.7 -0.15 L4.75 -0.1 5.15 0.15 5.25 0.3 5.5 0.5 5.9 0.7 6.05 0.7 6.75 0.6 7.3 0.7 7.55 0.65 7.7 0.7 7.85 0.65 8.05 0.3 Q8.3 -0.25 7.9 -0.35 L7.7 -0.75 7.85 -0.75 8.65 -0.4 9.15 0.05 9.2 -0.05 9.75 -0.3 10.3 -0.25 Q11.3 1.3 11.55 1.25 L11.4 1.35 10.75 1.55 10.4 1.45 10.1 1.55 9.45 1.3 9.35 1.2 9.05 1.5 8.5 1.3 7.95 1.4 7.7 1.35 Q7.55 1.6 7.05 1.6 L6.8 1.4 5.85 1.5 5.65 1.4 5.1 1.5 2.9 1.2 2.6 1.25 2.15 1.5 0.95 1.35 0.9 1.35 0.85 1.35 0.55 1.3 0.4 1.35 0.1 1.3 -0.95 1.1 -1.0 1.05 -0.55 0.9 0.25 0.95 1.1 1.1 1.15 1.05 Q1.8 1.05 2.1 0.7 2.4 0.35 3.1 0.35 L3.45 0.3 3.75 0.2 3.8 0.2 4.0 0.1 Q3.85 -0.05 4.0 -0.1 L3.6 -0.75 4.2 -0.5 4.65 -0.15 4.7 -0.15" fill="#ffffcc" fill-rule="evenodd" stroke="none"/>
  </g>
</svg>
