<?xml version="1.0" encoding="UTF-8" standalone="no"?>
<svg xmlns:ffdec="https://www.free-decompiler.com/flash" xmlns:xlink="http://www.w3.org/1999/xlink" ffdec:objectType="shape" height="10.5px" width="23.45px" xmlns="http://www.w3.org/2000/svg">
  <g transform="matrix(1.0, 0.0, 0.0, 1.0, 19.0, 2.0)">
    <path d="M0.95 7.85 L-19.0 7.85 -18.95 -2.0 1.0 -2.0 0.95 7.85" fill="url(#gradient0)" fill-rule="evenodd" stroke="none"/>
    <path d="M-5.65 7.9 L-5.95 7.9 -5.55 6.75 -5.35 7.0 -5.65 7.9 M-8.75 7.9 L-8.95 7.9 Q-8.55 6.65 -8.3 4.4 -8.1 2.15 -8.25 0.8 L-8.05 0.85 Q-7.55 2.55 -7.95 4.95 -8.25 6.85 -8.75 7.9 M-15.4 -2.0 L-15.2 -2.0 Q-14.85 -0.9 -14.65 1.0 -14.4 2.8 -14.45 3.9 L-14.65 4.0 Q-14.6 2.85 -14.85 1.0 -15.05 -0.9 -15.4 -2.0 M-12.35 -2.0 L-12.1 -2.0 Q-11.7 -0.55 -11.55 1.75 -11.35 4.05 -11.5 5.4 L-11.75 4.95 Q-11.6 3.7 -11.8 1.5 -11.95 -0.65 -12.35 -2.0 M-2.75 -2.0 L-2.55 -2.0 Q-2.05 -0.65 -1.75 1.8 L-1.95 1.8 -2.55 -1.3 -2.75 -2.0 M-4.9 1.25 L-4.9 4.8 -5.2 5.05 Q-5.0 3.2 -5.1 1.3 L-4.9 1.25" fill="#e1ded8" fill-rule="evenodd" stroke="none"/>
    <path d="M0.1 -2.0 L0.3 -2.0 0.95 1.55 1.0 5.05 0.85 4.9 0.7 1.45 0.1 -2.0 M-5.95 7.9 L-6.05 7.9 -5.65 6.7 -5.55 6.75 -5.95 7.9 M-8.95 7.9 L-9.2 7.9 Q-8.75 6.6 -8.5 4.35 -8.25 2.1 -8.4 0.7 L-8.25 0.8 Q-8.1 2.15 -8.3 4.4 -8.55 6.65 -8.95 7.9 M-15.6 -2.0 L-15.4 -2.0 Q-15.05 -0.9 -14.85 1.0 -14.6 2.85 -14.65 4.0 L-14.85 4.0 Q-14.8 2.85 -15.05 1.0 -15.25 -0.9 -15.6 -2.0 M-12.55 -2.0 L-12.35 -2.0 Q-11.95 -0.65 -11.8 1.5 -11.6 3.7 -11.75 4.95 L-11.85 4.8 Q-11.7 3.55 -11.95 1.4 -12.15 -0.7 -12.55 -2.0 M-2.65 -1.1 L-2.55 -1.3 -1.95 1.8 -2.15 1.8 -2.65 -1.1 M-5.25 1.3 L-5.1 1.3 Q-5.0 3.2 -5.2 5.05 L-5.35 5.2 Q-5.15 3.3 -5.25 1.3" fill="#a19889" fill-rule="evenodd" stroke="none"/>
    <path d="M0.1 7.9 L-2.55 7.9 Q-2.2 6.75 -1.95 4.9 -1.7 3.0 -1.75 1.8 L-1.5 1.8 Q-1.4 2.9 -1.8 6.95 L-1.75 7.65 -1.65 7.75 -1.55 7.7 -0.55 6.55 -0.45 6.55 -0.45 7.1 -0.45 7.85 0.85 4.9 0.1 7.9 M-3.0 7.9 L-3.25 7.9 -2.15 1.8 Q-2.1 3.0 -2.35 4.9 -2.6 6.75 -3.0 7.9 M-3.35 7.9 L-4.35 7.9 -4.85 7.4 -4.6 7.35 -3.35 7.9 M-10.5 7.9 L-12.15 7.9 -11.5 5.4 -11.0 7.1 -10.5 7.9 M-12.6 7.9 L-15.3 7.9 Q-14.7 5.9 -14.45 3.9 -14.3 4.15 -14.3 5.55 L-14.3 7.8 -14.2 7.75 -13.25 6.9 -12.85 7.7 -12.05 4.75 -11.85 4.8 Q-12.1 6.4 -12.6 7.9 M-15.7 7.9 L-17.95 7.9 -19.0 7.9 -18.3 5.55 -18.1 4.45 Q-17.7 4.25 -17.5 4.45 -18.15 7.25 -17.95 7.9 -17.5 7.2 -16.05 6.65 -15.15 6.3 -15.05 4.0 L-14.85 4.0 Q-15.1 6.0 -15.7 7.9 M-11.65 -2.0 L-9.15 -2.0 -8.65 -0.35 -9.35 -1.2 Q-10.3 -1.95 -11.65 -2.0 M-8.75 -2.0 L-6.05 -2.0 -5.25 1.3 -6.05 -1.4 -6.35 -0.3 -6.2 0.05 -6.55 -0.45 Q-7.35 -1.6 -7.85 -1.7 L-8.05 -1.55 -8.1 -0.8 -8.0 0.85 -8.05 0.85 -8.75 -2.0 M-5.65 -2.0 L-2.95 -2.0 -2.65 -1.1 -2.65 -0.85 -2.85 -0.55 Q-4.2 -1.75 -4.75 -1.75 L-5.0 -1.55 -5.1 -0.75 -5.0 0.65 -5.65 -2.0 M-4.9 4.8 L-4.5 4.65 -5.05 7.25 -5.35 7.0 -4.9 4.8 M-5.65 6.7 L-6.1 6.3 -5.35 5.2 -5.65 6.7" fill="#af8f72" fill-rule="evenodd" stroke="none"/>
    <path d="M0.5 7.9 L0.3 7.9 1.0 5.05 1.05 5.4 Q1.1 4.55 1.3 4.5 L0.5 7.9 M-2.55 7.9 L-2.8 7.9 -2.15 4.9 Q-1.9 3.0 -1.95 1.8 L-1.75 1.8 Q-1.7 3.0 -1.95 4.9 -2.2 6.75 -2.55 7.9 M-12.15 7.9 L-12.45 7.9 -11.75 4.95 -11.5 5.4 -12.15 7.9 M-15.3 7.9 L-15.5 7.9 -14.85 5.25 -14.65 4.0 -14.45 3.9 Q-14.7 5.9 -15.3 7.9 M-8.95 -2.0 L-8.75 -2.0 -8.05 0.85 -8.25 0.8 -8.95 -2.0 M-5.9 -2.0 L-5.65 -2.0 -5.0 0.65 -4.9 1.25 -5.1 1.3 -5.9 -2.0 M-5.35 7.0 L-5.55 6.75 -5.2 5.05 -4.9 4.8 -5.35 7.0" fill="#b6997c" fill-rule="evenodd" stroke="none"/>
    <path d="M0.3 7.9 L0.1 7.9 0.85 4.9 1.0 5.05 0.3 7.9 M-2.8 7.9 L-3.0 7.9 Q-2.6 6.75 -2.35 4.9 -2.1 3.0 -2.15 1.8 L-1.95 1.8 Q-1.9 3.0 -2.15 4.9 L-2.8 7.9 M-12.45 7.9 L-12.6 7.9 Q-12.1 6.4 -11.85 4.8 L-11.75 4.95 -12.45 7.9 M-15.5 7.9 L-15.7 7.9 Q-15.1 6.0 -14.85 4.0 L-14.65 4.0 -14.85 5.25 -15.5 7.9 M-9.15 -2.0 L-8.95 -2.0 -8.25 0.8 -8.4 0.7 -8.65 -0.35 -9.15 -2.0 M-6.05 -2.0 L-5.9 -2.0 -5.1 1.3 -5.25 1.3 -6.05 -2.0 M-2.95 -2.0 L-2.75 -2.0 -2.55 -1.3 -2.65 -1.1 -2.95 -2.0 M-5.35 5.2 L-5.2 5.05 -5.55 6.75 -5.65 6.7 -5.35 5.2" fill="#836549" fill-rule="evenodd" stroke="none"/>
    <path d="M0.3 -2.0 Q4.45 -2.0 4.45 2.4 4.45 5.4 3.8 6.5 2.95 7.9 0.5 7.9 L1.3 4.5 Q1.1 4.55 1.05 5.4 L1.0 5.05 0.95 1.55 0.3 -2.0 M-3.25 7.9 L-3.3 8.2 -3.3 8.5 -3.35 7.9 -4.6 7.35 -4.85 7.4 -4.35 7.9 -5.65 7.9 -5.35 7.0 -5.05 7.25 -4.5 4.65 -4.9 4.8 -4.9 1.25 -5.0 0.65 -5.1 -0.75 -5.0 -1.55 -4.75 -1.75 Q-4.2 -1.75 -2.85 -0.55 L-2.65 -0.85 -2.65 -1.1 -2.15 1.8 -3.25 7.9 M-6.05 7.9 L-8.75 7.9 Q-8.25 6.85 -7.95 4.95 -7.55 2.55 -8.05 0.85 L-8.0 0.85 -8.1 -0.8 -8.05 -1.55 -7.85 -1.7 Q-7.35 -1.6 -6.55 -0.45 L-6.2 0.05 -6.35 -0.3 -6.05 -1.4 -5.25 1.3 Q-5.15 3.3 -5.35 5.2 L-6.1 6.3 -5.65 6.7 -6.05 7.9 M-9.2 7.9 L-10.5 7.9 -11.0 7.1 -11.5 5.4 Q-11.35 4.05 -11.55 1.75 -11.7 -0.55 -12.1 -2.0 L-11.65 -2.0 Q-10.3 -1.95 -9.35 -1.2 L-8.65 -0.35 -8.4 0.7 Q-8.25 2.1 -8.5 4.35 -8.75 6.6 -9.2 7.9 M-18.1 4.45 Q-18.0 3.25 -18.25 1.25 -18.5 -0.8 -18.9 -2.0 L-15.6 -2.0 Q-15.25 -0.9 -15.05 1.0 -14.8 2.85 -14.85 4.0 L-15.05 4.0 Q-15.15 6.3 -16.05 6.65 -17.5 7.2 -17.95 7.9 -18.15 7.25 -17.5 4.45 -17.7 4.25 -18.1 4.45 M-15.2 -2.0 L-12.55 -2.0 Q-12.15 -0.7 -11.95 1.4 -11.7 3.55 -11.85 4.8 L-12.05 4.75 -12.85 7.7 -13.25 6.9 -14.2 7.75 -14.3 7.8 -14.3 5.55 Q-14.3 4.15 -14.45 3.9 -14.4 2.8 -14.65 1.0 -14.85 -0.9 -15.2 -2.0 M-2.55 -2.0 L0.1 -2.0 0.7 1.45 0.85 4.9 -0.45 7.85 -0.45 7.1 -0.45 6.55 -0.55 6.55 -1.55 7.7 -1.65 7.75 -1.75 7.65 -1.8 6.95 Q-1.4 2.9 -1.5 1.8 L-1.75 1.8 Q-2.05 -0.65 -2.55 -2.0" fill="url(#gradient1)" fill-rule="evenodd" stroke="none"/>
  </g>
  <defs>
    <linearGradient gradientTransform="matrix(0.0, 0.0063, -0.0122, -1.0E-4, -8.95, 2.9)" gradientUnits="userSpaceOnUse" id="gradient0" spreadMethod="pad" x1="-819.2" x2="819.2">
      <stop offset="0.01568627450980392" stop-color="#5e5347"/>
      <stop offset="0.9803921568627451" stop-color="#302a21"/>
    </linearGradient>
    <linearGradient gradientTransform="matrix(0.0, 0.0063, -0.0137, -1.0E-4, -7.9, 2.95)" gradientUnits="userSpaceOnUse" id="gradient1" spreadMethod="pad" x1="-819.2" x2="819.2">
      <stop offset="0.01568627450980392" stop-color="#9e9e9e"/>
      <stop offset="0.5058823529411764" stop-color="#d9cdb8"/>
      <stop offset="0.6470588235294118" stop-color="#f2f1f0"/>
      <stop offset="0.9764705882352941" stop-color="#c4bcae"/>
    </linearGradient>
  </defs>
</svg>
