<?xml version="1.0" encoding="UTF-8" standalone="no"?>
<svg xmlns:ffdec="https://www.free-decompiler.com/flash" xmlns:xlink="http://www.w3.org/1999/xlink" ffdec:objectType="shape" height="46.0px" width="26.6px" xmlns="http://www.w3.org/2000/svg">
  <g transform="matrix(1.0, 0.0, 0.0, 1.0, 0.0, 0.0)">
    <path d="M18.0 1.0 L18.0 0.9 18.55 0.9 18.55 1.05 18.55 45.05 18.0 45.05 18.0 44.25 18.0 1.8 18.0 1.0 M9.3 46.0 L0.0 46.0 0.1 45.05 0.1 1.0 0.4 1.0 0.7 1.0 0.7 1.1 Q0.7 43.7 0.95 45.05 L1.25 45.05 1.6 45.05 2.2 45.05 2.55 45.05 3.15 45.05 3.5 45.05 4.2 45.05 4.55 45.05 5.35 45.05 5.7 45.05 6.35 45.05 6.7 45.05 7.45 45.05 7.8 45.05 8.55 45.05 8.9 45.05 9.15 44.25 9.15 1.8 9.15 1.0 8.9 0.95 8.55 0.95 6.7 0.95 6.35 0.95 5.7 0.95 5.35 0.95 4.55 0.95 4.2 0.95 3.5 0.95 3.15 0.95 2.55 0.95 2.2 0.95 1.6 0.95 1.25 0.95 0.4 0.95 0.0 0.95 0.0 0.0 9.3 0.0 9.35 0.9 9.35 0.95 9.7 1.0 9.7 1.05 9.7 45.05 9.3 45.1 9.3 46.0" fill="#e8e8e8" fill-rule="evenodd" stroke="none"/>
    <path d="M18.55 45.05 L18.55 1.05 18.85 1.05 18.85 28.1 18.85 40.7 18.85 45.05 18.65 45.05 18.55 45.05 M15.95 3.0 L15.95 6.9 15.25 6.85 15.25 6.5 15.75 6.5 15.75 3.0 15.95 3.0 M11.4 6.5 L12.0 6.5 12.0 6.65 11.4 6.65 11.4 6.5 M12.35 6.5 L12.95 6.5 12.95 6.7 12.35 6.7 12.35 6.5 M13.3 6.5 L13.9 6.5 13.9 6.75 13.3 6.75 13.3 6.5 M14.25 6.5 L14.9 6.5 14.9 6.85 14.25 6.8 14.25 6.5 M15.3 3.1 L11.6 3.1 11.6 6.1 11.2 6.1 11.2 2.9 15.3 2.9 15.3 3.1 M9.7 1.05 L10.0 1.8 10.0 44.25 10.0 45.05 9.7 45.05 9.7 1.05 M0.95 45.05 Q0.7 43.7 0.7 1.1 L0.95 1.8 0.95 44.25 0.95 45.05" fill="#402e26" fill-rule="evenodd" stroke="none"/>
    <path d="M18.0 0.9 L15.25 0.9 14.9 0.9 14.25 0.9 13.9 0.9 9.35 0.9 9.3 0.0 18.65 0.0 18.65 0.9 18.55 0.9 18.0 0.9" fill="url(#gradient0)" fill-rule="evenodd" stroke="none"/>
    <path d="M20.1 28.55 L20.1 28.4 22.9 28.4 22.9 28.55 20.1 28.55 M19.55 33.25 L25.7 33.25 25.7 33.45 20.05 33.45 19.55 33.45 19.55 33.25" fill="#adadad" fill-rule="evenodd" stroke="none"/>
    <path d="M19.15 32.35 L19.15 28.55 20.1 28.55 20.1 31.55 22.9 31.55 22.9 32.35 19.15 32.35 M20.05 40.05 L19.55 40.05 19.2 40.05 19.2 33.45 19.55 33.45 20.05 33.45 20.05 40.05" fill="#b8b4b2" fill-rule="evenodd" stroke="none"/>
    <path d="M19.15 32.35 L18.95 32.35 18.95 28.4 20.1 28.4 20.1 28.55 19.15 28.55 19.15 32.35 M19.2 40.05 L18.9 40.05 18.9 33.25 19.55 33.25 19.55 33.45 19.2 33.45 19.2 40.05" fill="#7d7d7d" fill-rule="evenodd" stroke="none"/>
    <path d="M18.85 28.1 L20.1 28.1 20.1 28.4 18.95 28.4 18.95 32.35 19.15 32.35 22.9 32.35 22.9 31.55 23.45 31.55 23.45 32.7 19.55 32.7 19.55 33.25 18.9 33.25 18.9 40.05 19.2 40.05 19.55 40.05 19.55 40.7 18.85 40.7 18.85 28.1" fill="#cfcfcf" fill-rule="evenodd" stroke="none"/>
    <path d="M20.1 28.1 L23.45 28.1 23.45 31.55 22.9 31.55 22.9 28.55 22.9 28.4 20.1 28.4 20.1 28.1 M23.45 32.7 L26.6 32.7 26.6 40.7 19.55 40.7 19.55 40.05 20.05 40.05 25.7 40.05 25.7 33.45 25.7 33.25 19.55 33.25 19.55 32.7 23.45 32.7" fill="#ededed" fill-rule="evenodd" stroke="none"/>
    <path d="M25.7 33.45 L25.7 40.05 20.05 40.05 20.05 33.45 25.7 33.45" fill="url(#gradient1)" fill-rule="evenodd" stroke="none"/>
    <path d="M0.4 1.0 L0.4 0.95 1.25 0.95 1.25 1.0 0.7 1.0 0.4 1.0 M8.9 0.95 L9.15 1.0 8.9 1.0 8.9 0.95 M9.15 1.8 L9.15 44.25 8.9 44.25 8.9 1.8 9.15 1.8 M8.55 0.95 L8.55 1.0 6.7 1.0 6.7 0.95 8.55 0.95 M8.55 1.8 L8.55 44.25 7.8 44.25 7.8 1.8 8.55 1.8 M6.35 0.95 L6.35 1.0 5.7 1.0 5.7 0.95 6.35 0.95 M6.35 1.8 L6.35 44.25 5.7 44.25 5.7 1.8 6.35 1.8 M5.35 0.95 L5.35 1.0 4.55 1.0 4.55 0.95 5.35 0.95 M5.35 1.8 L5.35 44.25 4.55 44.25 4.55 1.8 5.35 1.8 M6.7 1.8 L7.45 1.8 7.45 44.25 6.7 44.25 6.7 1.8 M4.2 0.95 L4.2 1.0 3.5 1.0 3.5 0.95 4.2 0.95 M4.2 1.8 L4.2 44.25 3.5 44.25 3.5 1.8 4.2 1.8 M3.15 0.95 L3.15 1.0 2.55 1.0 2.55 0.95 3.15 0.95 M3.15 1.8 L3.15 44.25 2.55 44.25 2.55 1.8 3.15 1.8 M1.6 1.0 L1.6 0.95 2.2 0.95 2.2 1.0 1.6 1.0 M1.25 1.8 L1.25 44.25 0.95 44.25 0.95 1.8 1.25 1.8 M1.6 1.8 L2.2 1.8 2.2 44.25 1.6 44.25 1.6 1.8" fill="url(#gradient2)" fill-rule="evenodd" stroke="none"/>
    <path d="M18.0 0.9 L18.0 1.0 16.3 1.0 15.95 1.0 15.25 1.0 15.25 0.9 18.0 0.9 M18.0 1.8 L18.0 44.25 17.45 44.25 17.45 1.8 18.0 1.8 M15.25 2.55 L15.25 1.8 15.95 1.8 15.95 3.0 15.75 3.0 15.25 2.55 M15.95 6.9 L15.95 44.25 15.25 44.25 15.25 6.85 15.95 6.9 M16.3 44.25 L16.3 1.8 17.1 1.8 17.1 44.25 16.3 44.25 M14.9 2.55 L14.25 2.55 14.25 1.8 14.9 1.8 14.9 2.55 M13.9 2.55 L13.3 2.55 13.3 1.8 13.9 1.8 13.9 2.55 M12.95 2.55 L12.35 2.55 12.35 1.8 12.95 1.8 12.95 2.55 M12.0 2.55 L11.4 2.55 11.4 1.8 12.0 1.8 12.0 2.55 M11.05 2.55 L10.85 2.55 10.85 6.5 11.05 6.5 11.05 44.25 10.4 44.25 10.4 1.8 11.05 1.8 11.05 2.55 M14.25 1.0 L14.25 0.9 14.9 0.9 14.9 1.0 14.25 1.0 M13.9 0.9 L13.9 1.0 12.35 1.0 12.0 1.0 11.4 1.0 11.05 1.0 9.7 1.0 9.35 0.95 9.35 0.9 13.9 0.9 M10.0 1.8 L10.05 1.8 10.05 44.25 10.0 44.25 10.0 1.8 M14.9 6.85 L14.9 44.25 14.25 44.25 14.25 6.8 14.9 6.85 M12.95 6.7 L12.95 44.25 12.35 44.25 12.35 6.7 12.95 6.7 M13.3 44.25 L13.3 6.75 13.9 6.75 13.9 44.25 13.3 44.25 M11.4 6.65 L12.0 6.65 12.0 44.25 11.4 44.25 11.4 6.65" fill="url(#gradient3)" fill-rule="evenodd" stroke="none"/>
    <path d="M15.25 1.0 L15.95 1.0 15.95 1.8 15.25 1.8 15.25 1.0 M16.3 1.0 L18.0 1.0 18.0 1.8 17.45 1.8 17.1 1.8 16.3 1.8 16.3 1.0 M18.0 44.25 L18.0 45.05 17.45 45.05 17.45 44.25 18.0 44.25 M15.95 44.25 L15.95 45.05 15.25 45.05 15.25 44.25 15.95 44.25 M16.3 45.05 L16.3 44.25 17.1 44.25 17.1 45.05 16.3 45.05 M13.9 1.0 L13.9 1.8 13.3 1.8 12.95 1.8 12.35 1.8 12.35 1.0 13.9 1.0 M14.25 1.0 L14.9 1.0 14.9 1.8 14.25 1.8 14.25 1.0 M12.0 1.0 L12.0 1.8 11.4 1.8 11.4 1.0 12.0 1.0 M11.05 1.8 L10.4 1.8 10.05 1.8 10.0 1.8 9.7 1.05 9.7 1.0 11.05 1.0 11.05 1.8 M10.4 44.25 L11.05 44.25 11.05 45.05 10.4 45.05 10.4 44.25 M14.9 44.25 L14.9 45.05 14.25 45.05 14.25 44.25 14.9 44.25 M12.95 44.25 L12.95 45.05 12.35 45.05 12.35 44.25 12.95 44.25 M13.3 45.05 L13.3 44.25 13.9 44.25 13.9 45.05 13.3 45.05 M8.9 1.0 L9.15 1.0 9.15 1.8 8.9 1.8 8.9 1.0 M9.15 44.25 L8.9 45.05 8.9 44.25 9.15 44.25 M8.55 45.05 L7.8 45.05 7.8 44.25 8.55 44.25 8.55 45.05 M7.45 45.05 L6.7 45.05 6.7 44.25 7.45 44.25 7.45 45.05 M6.35 45.05 L5.7 45.05 5.7 44.25 6.35 44.25 6.35 45.05 M5.35 45.05 L4.55 45.05 4.55 44.25 5.35 44.25 5.35 45.05 M4.2 45.05 L3.5 45.05 3.5 44.25 4.2 44.25 4.2 45.05 M3.15 45.05 L2.55 45.05 2.55 44.25 3.15 44.25 3.15 45.05 M2.2 45.05 L1.6 45.05 1.6 44.25 2.2 44.25 2.2 45.05 M1.25 45.05 L0.95 45.05 0.95 44.25 1.25 44.25 1.25 45.05 M0.7 1.1 L0.7 1.0 1.25 1.0 1.25 1.8 0.95 1.8 0.7 1.1 M8.55 1.0 L8.55 1.8 7.8 1.8 7.45 1.8 6.7 1.8 6.7 1.0 8.55 1.0 M6.35 1.0 L6.35 1.8 5.7 1.8 5.7 1.0 6.35 1.0 M5.35 1.0 L5.35 1.8 4.55 1.8 4.55 1.0 5.35 1.0 M4.2 1.0 L4.2 1.8 3.5 1.8 3.5 1.0 4.2 1.0 M3.15 1.0 L3.15 1.8 2.55 1.8 2.55 1.0 3.15 1.0 M1.6 1.0 L2.2 1.0 2.2 1.8 1.6 1.8 1.6 1.0 M10.0 44.25 L10.05 44.25 10.05 45.05 10.0 45.05 10.0 44.25 M11.4 44.25 L12.0 44.25 12.0 45.05 11.4 45.05 11.4 44.25" fill="#402d23" fill-rule="evenodd" stroke="none"/>
    <path d="M18.0 45.05 L18.55 45.05 18.65 45.05 18.65 46.0 9.3 46.0 9.3 45.1 9.7 45.05 10.0 45.05 10.05 45.05 10.4 45.05 11.05 45.05 11.4 45.05 12.0 45.05 12.35 45.05 12.95 45.05 13.3 45.05 13.9 45.05 14.25 45.05 14.9 45.05 15.25 45.05 15.95 45.05 16.3 45.05 17.1 45.05 17.45 45.05 18.0 45.05" fill="url(#gradient4)" fill-rule="evenodd" stroke="none"/>
    <path d="M20.1 28.55 L22.9 28.55 22.9 31.55 20.1 31.55 20.1 28.55" fill="url(#gradient5)" fill-rule="evenodd" stroke="none"/>
    <path d="M15.25 0.9 L15.25 1.0 15.25 1.8 15.25 2.55 14.9 2.55 14.9 1.8 14.9 1.0 14.9 0.9 15.25 0.9 M15.95 1.0 L16.3 1.0 16.3 1.8 16.3 44.25 16.3 45.05 15.95 45.05 15.95 44.25 15.95 6.9 15.95 3.0 15.95 1.8 15.95 1.0 M14.25 2.55 L13.9 2.55 13.9 1.8 13.9 1.0 13.9 0.9 14.25 0.9 14.25 1.0 14.25 1.8 14.25 2.55 M13.3 2.55 L12.95 2.55 12.95 1.8 13.3 1.8 13.3 2.55 M12.35 2.55 L12.0 2.55 12.0 1.8 12.0 1.0 12.35 1.0 12.35 1.8 12.35 2.55 M11.4 2.55 L11.05 2.55 11.05 1.8 11.05 1.0 11.4 1.0 11.4 1.8 11.4 2.55 M11.05 6.5 L11.4 6.5 11.4 6.65 11.4 44.25 11.4 45.05 11.05 45.05 11.05 44.25 11.05 6.5 M12.0 6.5 L12.35 6.5 12.35 6.7 12.35 44.25 12.35 45.05 12.0 45.05 12.0 44.25 12.0 6.65 12.0 6.5 M12.95 6.5 L13.3 6.5 13.3 6.75 13.3 44.25 13.3 45.05 12.95 45.05 12.95 44.25 12.95 6.7 12.95 6.5 M13.9 6.5 L14.25 6.5 14.25 6.8 14.25 44.25 14.25 45.05 13.9 45.05 13.9 44.25 13.9 6.75 13.9 6.5 M14.9 6.5 L15.25 6.5 15.25 6.85 15.25 44.25 15.25 45.05 14.9 45.05 14.9 44.25 14.9 6.85 14.9 6.5 M17.1 1.8 L17.45 1.8 17.45 44.25 17.45 45.05 17.1 45.05 17.1 44.25 17.1 1.8 M10.05 1.8 L10.4 1.8 10.4 44.25 10.4 45.05 10.05 45.05 10.05 44.25 10.05 1.8 M8.9 0.95 L8.9 1.0 8.9 1.8 8.9 44.25 8.9 45.05 8.55 45.05 8.55 44.25 8.55 1.8 8.55 1.0 8.55 0.95 8.9 0.95 M7.8 45.05 L7.45 45.05 7.45 44.25 7.45 1.8 7.8 1.8 7.8 44.25 7.8 45.05 M6.7 45.05 L6.35 45.05 6.35 44.25 6.35 1.8 6.35 1.0 6.35 0.95 6.7 0.95 6.7 1.0 6.7 1.8 6.7 44.25 6.7 45.05 M5.7 45.05 L5.35 45.05 5.35 44.25 5.35 1.8 5.35 1.0 5.35 0.95 5.7 0.95 5.7 1.0 5.7 1.8 5.7 44.25 5.7 45.05 M4.55 45.05 L4.2 45.05 4.2 44.25 4.2 1.8 4.2 1.0 4.2 0.95 4.55 0.95 4.55 1.0 4.55 1.8 4.55 44.25 4.55 45.05 M3.5 45.05 L3.15 45.05 3.15 44.25 3.15 1.8 3.15 1.0 3.15 0.95 3.5 0.95 3.5 1.0 3.5 1.8 3.5 44.25 3.5 45.05 M2.55 45.05 L2.2 45.05 2.2 44.25 2.2 1.8 2.2 1.0 2.2 0.95 2.55 0.95 2.55 1.0 2.55 1.8 2.55 44.25 2.55 45.05 M1.6 45.05 L1.25 45.05 1.25 44.25 1.25 1.8 1.25 1.0 1.25 0.95 1.6 0.95 1.6 1.0 1.6 1.8 1.6 44.25 1.6 45.05" fill="#4a5c4c" fill-rule="evenodd" stroke="none"/>
    <path d="M15.25 2.55 L15.75 3.0 15.75 6.5 15.25 6.5 14.9 6.5 14.25 6.5 13.9 6.5 13.3 6.5 12.95 6.5 12.35 6.5 12.0 6.5 11.4 6.5 11.05 6.5 10.85 6.5 10.85 2.55 11.05 2.55 11.4 2.55 12.0 2.55 12.35 2.55 12.95 2.55 13.3 2.55 13.9 2.55 14.25 2.55 14.9 2.55 15.25 2.55 M11.6 6.1 L15.3 6.1 15.3 3.1 15.3 2.9 11.2 2.9 11.2 6.1 11.6 6.1" fill="#d2cecb" fill-rule="evenodd" stroke="none"/>
    <path d="M15.3 3.1 L15.3 6.1 11.6 6.1 11.6 3.1 15.3 3.1" fill="url(#gradient6)" fill-rule="evenodd" stroke="none"/>
  </g>
  <defs>
    <linearGradient gradientTransform="matrix(-0.0053, 0.0, 0.0, -0.5288, 13.8, 144.8)" gradientUnits="userSpaceOnUse" id="gradient0" spreadMethod="pad" x1="-819.2" x2="819.2">
      <stop offset="0.03529411764705882" stop-color="#ededed"/>
      <stop offset="0.9882352941176471" stop-color="#d0cbc8"/>
    </linearGradient>
    <radialGradient cx="0" cy="0" gradientTransform="matrix(0.0071, 0.0, 0.0, 0.0071, 23.0, 37.2)" gradientUnits="userSpaceOnUse" id="gradient1" r="819.2" spreadMethod="pad">
      <stop offset="0.03529411764705882" stop-color="#ededed"/>
      <stop offset="0.9882352941176471" stop-color="#d0cbc8"/>
    </radialGradient>
    <linearGradient gradientTransform="matrix(0.0055, 0.0, 0.0, 0.0269, 4.85, 23.0)" gradientUnits="userSpaceOnUse" id="gradient2" spreadMethod="pad" x1="-819.2" x2="819.2">
      <stop offset="0.03529411764705882" stop-color="#759178"/>
      <stop offset="0.9882352941176471" stop-color="#4a5c4c"/>
    </linearGradient>
    <linearGradient gradientTransform="matrix(0.0055, 0.0, 0.0, 0.0269, 13.8, 23.0)" gradientUnits="userSpaceOnUse" id="gradient3" spreadMethod="pad" x1="-819.2" x2="819.2">
      <stop offset="0.03529411764705882" stop-color="#5a705c"/>
      <stop offset="0.9882352941176471" stop-color="#313d32"/>
    </linearGradient>
    <linearGradient gradientTransform="matrix(-0.0053, 0.0, 0.0, -0.5288, 13.85, 144.8)" gradientUnits="userSpaceOnUse" id="gradient4" spreadMethod="pad" x1="-819.2" x2="819.2">
      <stop offset="0.03529411764705882" stop-color="#ededed"/>
      <stop offset="0.9882352941176471" stop-color="#d0cbc8"/>
    </linearGradient>
    <radialGradient cx="0" cy="0" gradientTransform="matrix(0.0041, 0.0, 0.0, 0.0041, 21.35, 30.65)" gradientUnits="userSpaceOnUse" id="gradient5" r="819.2" spreadMethod="pad">
      <stop offset="0.03529411764705882" stop-color="#ededed"/>
      <stop offset="0.9882352941176471" stop-color="#d0cbc8"/>
    </radialGradient>
    <radialGradient cx="0" cy="0" gradientTransform="matrix(0.0032, 0.0, 0.0, 0.0032, 13.25, 4.5)" gradientUnits="userSpaceOnUse" id="gradient6" r="819.2" spreadMethod="pad">
      <stop offset="0.03529411764705882" stop-color="#759178"/>
      <stop offset="0.9882352941176471" stop-color="#5c4133"/>
    </radialGradient>
  </defs>
</svg>
