<?xml version="1.0" encoding="UTF-8" standalone="no"?>
<svg xmlns:ffdec="https://www.free-decompiler.com/flash" xmlns:xlink="http://www.w3.org/1999/xlink" ffdec:objectType="shape" height="44.25px" width="157.5px" xmlns="http://www.w3.org/2000/svg">
  <g transform="matrix(1.0, 0.0, 0.0, 1.0, 78.75, 22.1)">
    <path d="M12.0 -17.6 L9.4 -14.95 -42.5 -15.35 -73.75 -17.85 -78.75 -14.9 -78.75 -19.85 -39.5 -19.85 -39.5 -17.6 -34.75 -17.6 -29.4 -17.6 -26.55 -17.6 -22.5 -17.6 12.0 -17.6 M22.05 -14.85 L24.75 -17.6 24.75 -22.1 56.25 -22.1 61.25 -10.1 70.25 -6.1 70.25 -5.1 69.4 -4.15 60.75 -6.35 54.0 -20.85 29.5 -20.35 24.25 -14.85 22.05 -14.85" fill="url(#gradient0)" fill-rule="evenodd" stroke="none"/>
    <path d="M9.4 -14.95 L12.0 -17.6 24.75 -17.6 22.05 -14.85 -0.25 7.4 -78.6 7.4 -78.75 7.4 -78.75 -0.1 -5.5 -0.1 9.4 -14.95 M69.4 -4.15 L70.25 -5.1 70.25 3.35 66.5 1.65 49.25 1.65 52.5 -1.6 67.25 -1.6 69.4 -4.15" fill="url(#gradient1)" fill-rule="evenodd" stroke="none"/>
    <path d="M-78.75 -14.9 L-73.75 -17.85 -42.5 -15.35 9.4 -14.95 -5.5 -0.1 -78.75 -0.1 -78.75 -14.9 M-0.25 7.4 L22.05 -14.85 24.25 -14.85 29.5 -20.35 54.0 -20.85 60.75 -6.35 69.4 -4.15 67.25 -1.6 52.5 -1.6 49.25 1.65 66.5 1.65 70.25 3.35 70.25 9.9 69.45 9.9 69.25 7.4 -0.25 7.4 M35.75 -16.45 L35.75 -18.6 28.5 -18.6 28.5 -17.2 28.5 -10.35 35.75 -10.35 35.75 -16.45 M45.5 -15.45 L45.5 -18.6 37.75 -18.6 37.75 -16.25 37.75 -10.35 45.5 -10.35 45.5 -15.45 M55.25 -14.5 L53.75 -18.6 47.75 -18.6 47.75 -15.25 47.75 -10.35 56.75 -10.35 55.25 -14.5 M-47.5 -11.1 L-47.5 -4.1 -37.75 -4.1 -37.75 -11.1 -37.75 -13.1 -47.5 -13.1 -47.5 -11.1 M-35.5 -11.1 L-35.5 -4.1 -25.5 -4.1 -25.5 -11.1 -25.5 -13.1 -35.5 -13.1 -35.5 -11.1 M-23.0 -11.1 L-23.0 -4.1 -13.5 -4.1 -13.5 -11.1 -13.5 -13.1 -23.0 -13.1 -23.0 -11.1" fill="url(#gradient2)" fill-rule="evenodd" stroke="none"/>
    <path d="M28.5 -17.2 L28.5 -18.6 35.75 -18.6 35.75 -16.45 28.5 -17.2 M37.75 -16.25 L37.75 -18.6 45.5 -18.6 45.5 -15.45 37.75 -16.25 M47.75 -15.25 L47.75 -18.6 53.75 -18.6 55.25 -14.5 47.75 -15.25 M-37.75 -11.1 L-47.5 -11.1 -47.5 -13.1 -37.75 -13.1 -37.75 -11.1 M-25.5 -11.1 L-35.5 -11.1 -35.5 -13.1 -25.5 -13.1 -25.5 -11.1 M-13.5 -11.1 L-23.0 -11.1 -23.0 -13.1 -13.5 -13.1 -13.5 -11.1" fill="#151515" fill-rule="evenodd" stroke="none"/>
    <path d="M35.75 -16.45 L35.75 -10.35 28.5 -10.35 28.5 -17.2 35.75 -16.45 M45.5 -15.45 L45.5 -10.35 37.75 -10.35 37.75 -16.25 45.5 -15.45 M47.75 -15.25 L55.25 -14.5 56.75 -10.35 47.75 -10.35 47.75 -15.25 M-37.75 -11.1 L-37.75 -4.1 -47.5 -4.1 -47.5 -11.1 -37.75 -11.1 M-25.5 -11.1 L-25.5 -4.1 -35.5 -4.1 -35.5 -11.1 -25.5 -11.1 M-13.5 -11.1 L-13.5 -4.1 -23.0 -4.1 -23.0 -11.1 -13.5 -11.1" fill="#333333" fill-rule="evenodd" stroke="none"/>
    <path d="M-78.6 7.4 L-0.25 7.4 69.25 7.4 69.45 9.9 54.1 20.85 -68.6 20.85 -78.6 9.9 -78.6 7.4" fill="url(#gradient3)" fill-rule="evenodd" stroke="none"/>
    <path d="M-22.5 -17.6 L-26.55 -17.6 Q-22.6 -19.6 -22.7 -21.6 L-22.5 -21.6 -22.5 -17.6 M-29.4 -17.6 L-34.75 -17.6 -34.75 -21.6 -33.3 -21.6 Q-33.2 -18.25 -29.4 -17.6" fill="#484848" fill-rule="evenodd" stroke="none"/>
    <path d="M-26.55 -17.6 L-29.4 -17.6 Q-33.2 -18.25 -33.3 -21.6 L-22.7 -21.6 Q-22.6 -19.6 -26.55 -17.6" fill="#666666" fill-rule="evenodd" stroke="none"/>
    <path d="M-78.75 7.4 L-78.6 7.4 -78.6 9.9 -78.75 9.9 -78.75 7.4" fill="#cc3300" fill-rule="evenodd" stroke="none"/>
    <path d="M32.6 -3.85 L33.45 -5.4 34.15 -6.75 34.35 -7.2 33.85 -7.2 32.05 -7.15 32.15 -8.35 36.3 -8.35 36.25 -7.1 34.7 -4.15 34.25 -3.05 32.15 -3.05 32.6 -3.85 M29.2 -7.2 L28.7 -7.2 26.9 -7.15 26.95 -8.35 31.15 -8.35 31.1 -7.1 29.55 -4.15 29.05 -3.05 27.0 -3.05 27.45 -3.85 28.3 -5.4 28.95 -6.75 29.2 -7.2 M37.25 -7.15 L37.3 -8.35 41.5 -8.35 41.4 -7.1 39.9 -4.15 39.4 -3.05 37.35 -3.05 37.75 -3.85 38.65 -5.4 39.3 -6.75 39.55 -7.2 39.05 -7.2 37.25 -7.15 Z" fill="none" stroke="#ffffff" stroke-linecap="round" stroke-linejoin="round" stroke-width="0.5"/>
    <path d="M32.6 -3.85 L33.45 -5.4 34.15 -6.75 34.35 -7.2 33.85 -7.2 32.05 -7.15 32.15 -8.35 36.3 -8.35 36.25 -7.1 34.7 -4.15 34.25 -3.05 32.15 -3.05 32.6 -3.85 M29.2 -7.2 L28.7 -7.2 26.9 -7.15 26.95 -8.35 31.15 -8.35 31.1 -7.1 29.55 -4.15 29.05 -3.05 27.0 -3.05 27.45 -3.85 28.3 -5.4 28.95 -6.75 29.2 -7.2 M37.25 -7.15 L37.3 -8.35 41.5 -8.35 41.4 -7.1 39.9 -4.15 39.4 -3.05 37.35 -3.05 37.75 -3.85 38.65 -5.4 39.3 -6.75 39.55 -7.2 39.05 -7.2 37.25 -7.15" fill="#000000" fill-rule="evenodd" stroke="none"/>
    <path d="M13.0 -13.7 L13.0 -8.85 6.6 -8.85 6.6 -13.75 13.0 -13.7 M3.75 -13.75 L3.75 -8.85 -2.25 -8.85 -2.25 -13.8 3.75 -13.75" fill="#333333" fill-rule="evenodd" stroke="none"/>
    <path d="M6.6 -13.75 L6.6 -15.6 13.0 -15.6 13.0 -13.7 6.6 -13.75 M3.75 -13.75 L-2.25 -13.8 -2.25 -15.6 3.75 -15.6 3.75 -13.75" fill="#151515" fill-rule="evenodd" stroke="none"/>
    <path d="M53.05 17.5 Q54.0 16.55 54.0 15.2 54.0 13.85 53.05 12.9 52.1 11.95 50.75 11.95 49.4 11.95 48.45 12.9 47.5 13.85 47.5 15.2 47.5 16.55 48.45 17.5 49.4 18.45 50.75 18.45 52.1 18.45 53.05 17.5 M54.5 18.9 Q52.95 20.45 50.75 20.45 48.6 20.45 47.05 18.9 45.5 17.35 45.5 15.2 45.5 13.0 47.05 11.45 48.6 9.95 50.75 9.95 52.95 9.95 54.5 11.45 56.0 13.0 56.0 15.2 56.0 17.35 54.5 18.9" fill="#737373" fill-rule="evenodd" stroke="none"/>
    <path d="M53.05 17.5 Q52.1 18.45 50.75 18.45 49.4 18.45 48.45 17.5 47.5 16.55 47.5 15.2 47.5 13.85 48.45 12.9 49.4 11.95 50.75 11.95 52.1 11.95 53.05 12.9 54.0 13.85 54.0 15.2 54.0 16.55 53.05 17.5" fill="url(#gradient4)" fill-rule="evenodd" stroke="none"/>
    <path d="M55.7 20.1 Q53.65 22.15 50.75 22.15 47.85 22.15 45.8 20.1 43.75 18.05 43.75 15.15 43.75 12.25 45.8 10.2 47.85 8.15 50.75 8.15 53.65 8.15 55.7 10.2 57.75 12.25 57.75 15.15 57.75 18.05 55.7 20.1 M54.5 18.9 Q56.0 17.35 56.0 15.2 56.0 13.0 54.5 11.45 52.95 9.95 50.75 9.95 48.6 9.95 47.05 11.45 45.5 13.0 45.5 15.2 45.5 17.35 47.05 18.9 48.6 20.45 50.75 20.45 52.95 20.45 54.5 18.9" fill="#4d4d4d" fill-rule="evenodd" stroke="none"/>
    <path d="M39.5 18.9 Q37.95 20.45 35.75 20.45 33.6 20.45 32.05 18.9 30.5 17.35 30.5 15.2 30.5 13.0 32.05 11.45 33.6 9.95 35.75 9.95 37.95 9.95 39.5 11.45 41.0 13.0 41.0 15.2 41.0 17.35 39.5 18.9 M38.05 17.5 Q39.0 16.55 39.0 15.2 39.0 13.85 38.05 12.9 37.1 11.95 35.75 11.95 34.4 11.95 33.45 12.9 32.5 13.85 32.5 15.2 32.5 16.55 33.45 17.5 34.4 18.45 35.75 18.45 37.1 18.45 38.05 17.5" fill="#737373" fill-rule="evenodd" stroke="none"/>
    <path d="M38.05 17.5 Q37.1 18.45 35.75 18.45 34.4 18.45 33.45 17.5 32.5 16.55 32.5 15.2 32.5 13.85 33.45 12.9 34.4 11.95 35.75 11.95 37.1 11.95 38.05 12.9 39.0 13.85 39.0 15.2 39.0 16.55 38.05 17.5" fill="url(#gradient5)" fill-rule="evenodd" stroke="none"/>
    <path d="M39.5 18.9 Q41.0 17.35 41.0 15.2 41.0 13.0 39.5 11.45 37.95 9.95 35.75 9.95 33.6 9.95 32.05 11.45 30.5 13.0 30.5 15.2 30.5 17.35 32.05 18.9 33.6 20.45 35.75 20.45 37.95 20.45 39.5 18.9 M40.7 20.1 Q38.65 22.15 35.75 22.15 32.85 22.15 30.8 20.1 28.75 18.05 28.75 15.15 28.75 12.25 30.8 10.2 32.85 8.15 35.75 8.15 38.65 8.15 40.7 10.2 42.75 12.25 42.75 15.15 42.75 18.05 40.7 20.1" fill="#4d4d4d" fill-rule="evenodd" stroke="none"/>
    <path d="M19.5 18.9 Q17.95 20.45 15.75 20.45 13.6 20.45 12.05 18.9 10.5 17.35 10.5 15.2 10.5 13.0 12.05 11.45 13.6 9.95 15.75 9.95 17.95 9.95 19.5 11.45 21.0 13.0 21.0 15.2 21.0 17.35 19.5 18.9 M18.05 17.5 Q19.0 16.55 19.0 15.2 19.0 13.85 18.05 12.9 17.1 11.95 15.75 11.95 14.4 11.95 13.45 12.9 12.5 13.85 12.5 15.2 12.5 16.55 13.45 17.5 14.4 18.45 15.75 18.45 17.1 18.45 18.05 17.5" fill="#737373" fill-rule="evenodd" stroke="none"/>
    <path d="M18.05 17.5 Q17.1 18.45 15.75 18.45 14.4 18.45 13.45 17.5 12.5 16.55 12.5 15.2 12.5 13.85 13.45 12.9 14.4 11.95 15.75 11.95 17.1 11.95 18.05 12.9 19.0 13.85 19.0 15.2 19.0 16.55 18.05 17.5" fill="url(#gradient6)" fill-rule="evenodd" stroke="none"/>
    <path d="M19.5 18.9 Q21.0 17.35 21.0 15.2 21.0 13.0 19.5 11.45 17.95 9.95 15.75 9.95 13.6 9.95 12.05 11.45 10.5 13.0 10.5 15.2 10.5 17.35 12.05 18.9 13.6 20.45 15.75 20.45 17.95 20.45 19.5 18.9 M20.7 20.1 Q18.65 22.15 15.75 22.15 12.85 22.15 10.8 20.1 8.75 18.05 8.75 15.15 8.75 12.25 10.8 10.2 12.85 8.15 15.75 8.15 18.65 8.15 20.7 10.2 22.75 12.25 22.75 15.15 22.75 18.05 20.7 20.1" fill="#4d4d4d" fill-rule="evenodd" stroke="none"/>
    <path d="M3.05 17.5 Q4.0 16.55 4.0 15.2 4.0 13.85 3.05 12.9 2.1 11.95 0.75 11.95 -0.6 11.95 -1.55 12.9 -2.5 13.85 -2.5 15.2 -2.5 16.55 -1.55 17.5 -0.6 18.45 0.75 18.45 2.1 18.45 3.05 17.5 M4.5 18.9 Q2.95 20.45 0.75 20.45 -1.4 20.45 -2.95 18.9 -4.5 17.35 -4.5 15.2 -4.5 13.0 -2.95 11.45 -1.4 9.95 0.75 9.95 2.95 9.95 4.5 11.45 6.0 13.0 6.0 15.2 6.0 17.35 4.5 18.9" fill="#737373" fill-rule="evenodd" stroke="none"/>
    <path d="M3.05 17.5 Q2.1 18.45 0.75 18.45 -0.6 18.45 -1.55 17.5 -2.5 16.55 -2.5 15.2 -2.5 13.85 -1.55 12.9 -0.6 11.95 0.75 11.95 2.1 11.95 3.05 12.9 4.0 13.85 4.0 15.2 4.0 16.55 3.05 17.5" fill="url(#gradient7)" fill-rule="evenodd" stroke="none"/>
    <path d="M5.7 20.1 Q3.65 22.15 0.75 22.15 -2.15 22.15 -4.2 20.1 -6.25 18.05 -6.25 15.15 -6.25 12.25 -4.2 10.2 -2.15 8.15 0.75 8.15 3.65 8.15 5.7 10.2 7.75 12.25 7.75 15.15 7.75 18.05 5.7 20.1 M4.5 18.9 Q6.0 17.35 6.0 15.2 6.0 13.0 4.5 11.45 2.95 9.95 0.75 9.95 -1.4 9.95 -2.95 11.45 -4.5 13.0 -4.5 15.2 -4.5 17.35 -2.95 18.9 -1.4 20.45 0.75 20.45 2.95 20.45 4.5 18.9" fill="#4d4d4d" fill-rule="evenodd" stroke="none"/>
    <path d="M-16.95 17.5 Q-16.0 16.55 -16.0 15.2 -16.0 13.85 -16.95 12.9 -17.9 11.95 -19.25 11.95 -20.6 11.95 -21.55 12.9 -22.5 13.85 -22.5 15.2 -22.5 16.55 -21.55 17.5 -20.6 18.45 -19.25 18.45 -17.9 18.45 -16.95 17.5 M-15.5 18.9 Q-17.05 20.45 -19.25 20.45 -21.4 20.45 -22.95 18.9 -24.5 17.35 -24.5 15.2 -24.5 13.0 -22.95 11.45 -21.4 9.95 -19.25 9.95 -17.05 9.95 -15.5 11.45 -14.0 13.0 -14.0 15.2 -14.0 17.35 -15.5 18.9" fill="#737373" fill-rule="evenodd" stroke="none"/>
    <path d="M-16.95 17.5 Q-17.9 18.45 -19.25 18.45 -20.6 18.45 -21.55 17.5 -22.5 16.55 -22.5 15.2 -22.5 13.85 -21.55 12.9 -20.6 11.95 -19.25 11.95 -17.9 11.95 -16.95 12.9 -16.0 13.85 -16.0 15.2 -16.0 16.55 -16.95 17.5" fill="url(#gradient8)" fill-rule="evenodd" stroke="none"/>
    <path d="M-14.3 20.1 Q-16.35 22.15 -19.25 22.15 -22.15 22.15 -24.2 20.1 -26.25 18.05 -26.25 15.15 -26.25 12.25 -24.2 10.2 -22.15 8.15 -19.25 8.15 -16.35 8.15 -14.3 10.2 -12.25 12.25 -12.25 15.15 -12.25 18.05 -14.3 20.1 M-15.5 18.9 Q-14.0 17.35 -14.0 15.2 -14.0 13.0 -15.5 11.45 -17.05 9.95 -19.25 9.95 -21.4 9.95 -22.95 11.45 -24.5 13.0 -24.5 15.2 -24.5 17.35 -22.95 18.9 -21.4 20.45 -19.25 20.45 -17.05 20.45 -15.5 18.9" fill="#4d4d4d" fill-rule="evenodd" stroke="none"/>
    <path d="M-30.5 18.9 Q-32.05 20.45 -34.25 20.45 -36.4 20.45 -37.95 18.9 -39.5 17.35 -39.5 15.2 -39.5 13.0 -37.95 11.45 -36.4 9.95 -34.25 9.95 -32.05 9.95 -30.5 11.45 -29.0 13.0 -29.0 15.2 -29.0 17.35 -30.5 18.9 M-31.95 17.5 Q-31.0 16.55 -31.0 15.2 -31.0 13.85 -31.95 12.9 -32.9 11.95 -34.25 11.95 -35.6 11.95 -36.55 12.9 -37.5 13.85 -37.5 15.2 -37.5 16.55 -36.55 17.5 -35.6 18.45 -34.25 18.45 -32.9 18.45 -31.95 17.5" fill="#737373" fill-rule="evenodd" stroke="none"/>
    <path d="M-31.95 17.5 Q-32.9 18.45 -34.25 18.45 -35.6 18.45 -36.55 17.5 -37.5 16.55 -37.5 15.2 -37.5 13.85 -36.55 12.9 -35.6 11.95 -34.25 11.95 -32.9 11.95 -31.95 12.9 -31.0 13.85 -31.0 15.2 -31.0 16.55 -31.95 17.5" fill="url(#gradient9)" fill-rule="evenodd" stroke="none"/>
    <path d="M-30.5 18.9 Q-29.0 17.35 -29.0 15.2 -29.0 13.0 -30.5 11.45 -32.05 9.95 -34.25 9.95 -36.4 9.95 -37.95 11.45 -39.5 13.0 -39.5 15.2 -39.5 17.35 -37.95 18.9 -36.4 20.45 -34.25 20.45 -32.05 20.45 -30.5 18.9 M-29.3 20.1 Q-31.35 22.15 -34.25 22.15 -37.15 22.15 -39.2 20.1 -41.25 18.05 -41.25 15.15 -41.25 12.25 -39.2 10.2 -37.15 8.15 -34.25 8.15 -31.35 8.15 -29.3 10.2 -27.25 12.25 -27.25 15.15 -27.25 18.05 -29.3 20.1" fill="#4d4d4d" fill-rule="evenodd" stroke="none"/>
    <path d="M-50.5 18.9 Q-52.05 20.45 -54.25 20.45 -56.4 20.45 -57.95 18.9 -59.5 17.35 -59.5 15.2 -59.5 13.0 -57.95 11.45 -56.4 9.95 -54.25 9.95 -52.05 9.95 -50.5 11.45 -49.0 13.0 -49.0 15.2 -49.0 17.35 -50.5 18.9 M-51.95 17.5 Q-51.0 16.55 -51.0 15.2 -51.0 13.85 -51.95 12.9 -52.9 11.95 -54.25 11.95 -55.6 11.95 -56.55 12.9 -57.5 13.85 -57.5 15.2 -57.5 16.55 -56.55 17.5 -55.6 18.45 -54.25 18.45 -52.9 18.45 -51.95 17.5" fill="#737373" fill-rule="evenodd" stroke="none"/>
    <path d="M-51.95 17.5 Q-52.9 18.45 -54.25 18.45 -55.6 18.45 -56.55 17.5 -57.5 16.55 -57.5 15.2 -57.5 13.85 -56.55 12.9 -55.6 11.95 -54.25 11.95 -52.9 11.95 -51.95 12.9 -51.0 13.85 -51.0 15.2 -51.0 16.55 -51.95 17.5" fill="url(#gradient10)" fill-rule="evenodd" stroke="none"/>
    <path d="M-50.5 18.9 Q-49.0 17.35 -49.0 15.2 -49.0 13.0 -50.5 11.45 -52.05 9.95 -54.25 9.95 -56.4 9.95 -57.95 11.45 -59.5 13.0 -59.5 15.2 -59.5 17.35 -57.95 18.9 -56.4 20.45 -54.25 20.45 -52.05 20.45 -50.5 18.9 M-49.3 20.1 Q-51.35 22.15 -54.25 22.15 -57.15 22.15 -59.2 20.1 -61.25 18.05 -61.25 15.15 -61.25 12.25 -59.2 10.2 -57.15 8.15 -54.25 8.15 -51.35 8.15 -49.3 10.2 -47.25 12.25 -47.25 15.15 -47.25 18.05 -49.3 20.1" fill="#4d4d4d" fill-rule="evenodd" stroke="none"/>
    <path d="M-66.95 17.5 Q-66.0 16.55 -66.0 15.2 -66.0 13.85 -66.95 12.9 -67.9 11.95 -69.25 11.95 -70.6 11.95 -71.55 12.9 -72.5 13.85 -72.5 15.2 -72.5 16.55 -71.55 17.5 -70.6 18.45 -69.25 18.45 -67.9 18.45 -66.95 17.5 M-65.5 18.9 Q-67.05 20.45 -69.25 20.45 -71.4 20.45 -72.95 18.9 -74.5 17.35 -74.5 15.2 -74.5 13.0 -72.95 11.45 -71.4 9.95 -69.25 9.95 -67.05 9.95 -65.5 11.45 -64.0 13.0 -64.0 15.2 -64.0 17.35 -65.5 18.9" fill="#737373" fill-rule="evenodd" stroke="none"/>
    <path d="M-66.95 17.5 Q-67.9 18.45 -69.25 18.45 -70.6 18.45 -71.55 17.5 -72.5 16.55 -72.5 15.2 -72.5 13.85 -71.55 12.9 -70.6 11.95 -69.25 11.95 -67.9 11.95 -66.95 12.9 -66.0 13.85 -66.0 15.2 -66.0 16.55 -66.95 17.5" fill="url(#gradient11)" fill-rule="evenodd" stroke="none"/>
    <path d="M-64.3 20.1 Q-66.35 22.15 -69.25 22.15 -72.15 22.15 -74.2 20.1 -76.25 18.05 -76.25 15.15 -76.25 12.25 -74.2 10.2 -72.15 8.15 -69.25 8.15 -66.35 8.15 -64.3 10.2 -62.25 12.25 -62.25 15.15 -62.25 18.05 -64.3 20.1 M-65.5 18.9 Q-64.0 17.35 -64.0 15.2 -64.0 13.0 -65.5 11.45 -67.05 9.95 -69.25 9.95 -71.4 9.95 -72.95 11.45 -74.5 13.0 -74.5 15.2 -74.5 17.35 -72.95 18.9 -71.4 20.45 -69.25 20.45 -67.05 20.45 -65.5 18.9" fill="#4d4d4d" fill-rule="evenodd" stroke="none"/>
    <path d="M65.7 4.4 L71.3 4.4 55.05 20.45 54.7 15.25 65.7 4.4 M76.85 4.4 L78.75 4.4 78.75 7.45 65.2 20.85 60.2 20.85 76.85 4.4 M78.75 12.25 L78.75 17.8 75.7 20.85 70.1 20.85 78.75 12.25 M54.4 10.05 L54.0 4.4 60.15 4.4 54.4 10.05" fill="#666666" fill-rule="evenodd" stroke="none"/>
    <path d="M60.15 4.4 L65.7 4.4 54.7 15.25 54.4 10.05 60.15 4.4 M71.3 4.4 L76.85 4.4 60.2 20.85 55.05 20.85 55.05 20.45 71.3 4.4 M78.75 7.45 L78.75 12.25 70.1 20.85 65.2 20.85 78.75 7.45 M78.75 17.8 L78.75 20.85 75.7 20.85 78.75 17.8" fill="url(#gradient12)" fill-rule="evenodd" stroke="none"/>
  </g>
  <defs>
    <linearGradient gradientTransform="matrix(6.0E-4, -0.0158, 0.0553, 0.002, -33.05, -13.05)" gradientUnits="userSpaceOnUse" id="gradient0" spreadMethod="pad" x1="-819.2" x2="819.2">
      <stop offset="0.0" stop-color="#cc0000"/>
      <stop offset="0.9490196078431372" stop-color="#fcefd1"/>
    </linearGradient>
    <linearGradient gradientTransform="matrix(0.0, -0.0153, 0.0153, 0.0, -27.0, -5.1)" gradientUnits="userSpaceOnUse" id="gradient1" spreadMethod="pad" x1="-819.2" x2="819.2">
      <stop offset="0.0" stop-color="#ffc900"/>
      <stop offset="0.9490196078431372" stop-color="#fcefd1"/>
    </linearGradient>
    <linearGradient gradientTransform="matrix(0.0, -0.0317, 0.0195, 0.0, 36.4, -16.5)" gradientUnits="userSpaceOnUse" id="gradient2" spreadMethod="pad" x1="-819.2" x2="819.2">
      <stop offset="0.0" stop-color="#cc0000"/>
      <stop offset="0.9490196078431372" stop-color="#fcefd1"/>
    </linearGradient>
    <linearGradient gradientTransform="matrix(0.0, -0.0109, 0.0082, 0.0, -4.4, 8.25)" gradientUnits="userSpaceOnUse" id="gradient3" spreadMethod="pad" x1="-819.2" x2="819.2">
      <stop offset="0.0" stop-color="#333333"/>
      <stop offset="0.9490196078431372" stop-color="#000000"/>
    </linearGradient>
    <linearGradient gradientTransform="matrix(0.0085, 0.0, 0.0, 0.0085, 50.75, 15.15)" gradientUnits="userSpaceOnUse" id="gradient4" spreadMethod="pad" x1="-819.2" x2="819.2">
      <stop offset="0.0" stop-color="#333333"/>
      <stop offset="0.9490196078431372" stop-color="#000000"/>
    </linearGradient>
    <linearGradient gradientTransform="matrix(0.0085, 0.0, 0.0, 0.0085, 35.75, 15.15)" gradientUnits="userSpaceOnUse" id="gradient5" spreadMethod="pad" x1="-819.2" x2="819.2">
      <stop offset="0.0" stop-color="#333333"/>
      <stop offset="0.9490196078431372" stop-color="#000000"/>
    </linearGradient>
    <linearGradient gradientTransform="matrix(0.0085, 0.0, 0.0, 0.0085, 15.75, 15.15)" gradientUnits="userSpaceOnUse" id="gradient6" spreadMethod="pad" x1="-819.2" x2="819.2">
      <stop offset="0.0" stop-color="#333333"/>
      <stop offset="0.9490196078431372" stop-color="#000000"/>
    </linearGradient>
    <linearGradient gradientTransform="matrix(0.0085, 0.0, 0.0, 0.0085, 0.75, 15.15)" gradientUnits="userSpaceOnUse" id="gradient7" spreadMethod="pad" x1="-819.2" x2="819.2">
      <stop offset="0.0" stop-color="#333333"/>
      <stop offset="0.9490196078431372" stop-color="#000000"/>
    </linearGradient>
    <linearGradient gradientTransform="matrix(0.0085, 0.0, 0.0, 0.0085, -19.25, 15.15)" gradientUnits="userSpaceOnUse" id="gradient8" spreadMethod="pad" x1="-819.2" x2="819.2">
      <stop offset="0.0" stop-color="#333333"/>
      <stop offset="0.9490196078431372" stop-color="#000000"/>
    </linearGradient>
    <linearGradient gradientTransform="matrix(0.0085, 0.0, 0.0, 0.0085, -34.25, 15.15)" gradientUnits="userSpaceOnUse" id="gradient9" spreadMethod="pad" x1="-819.2" x2="819.2">
      <stop offset="0.0" stop-color="#333333"/>
      <stop offset="0.9490196078431372" stop-color="#000000"/>
    </linearGradient>
    <linearGradient gradientTransform="matrix(0.0085, 0.0, 0.0, 0.0085, -54.25, 15.15)" gradientUnits="userSpaceOnUse" id="gradient10" spreadMethod="pad" x1="-819.2" x2="819.2">
      <stop offset="0.0" stop-color="#333333"/>
      <stop offset="0.9490196078431372" stop-color="#000000"/>
    </linearGradient>
    <linearGradient gradientTransform="matrix(0.0085, 0.0, 0.0, 0.0085, -69.25, 15.15)" gradientUnits="userSpaceOnUse" id="gradient11" spreadMethod="pad" x1="-819.2" x2="819.2">
      <stop offset="0.0" stop-color="#333333"/>
      <stop offset="0.9490196078431372" stop-color="#000000"/>
    </linearGradient>
    <linearGradient gradientTransform="matrix(0.0, -0.0128, 0.0067, 0.0, 57.25, 12.6)" gradientUnits="userSpaceOnUse" id="gradient12" spreadMethod="pad" x1="-819.2" x2="819.2">
      <stop offset="0.0" stop-color="#ffc900"/>
      <stop offset="0.9490196078431372" stop-color="#fcefd1"/>
    </linearGradient>
  </defs>
</svg>
