<?xml version="1.0" encoding="UTF-8" standalone="no"?>
<svg xmlns:ffdec="https://www.free-decompiler.com/flash" xmlns:xlink="http://www.w3.org/1999/xlink" ffdec:objectType="shape" height="3.95px" width="12.6px" xmlns="http://www.w3.org/2000/svg">
  <g transform="matrix(1.0, 0.0, 0.0, 1.0, 1.75, 2.3)">
    <path d="M2.3 -0.4 L3.8 -0.2 Q4.2 -0.2 4.2 -0.55 L3.9 -0.95 Q3.65 -1.1 3.65 -1.35 L3.95 -1.4 4.7 -1.15 5.4 -0.55 6.3 0.1 6.85 -0.05 8.1 0.2 9.4 0.4 Q9.7 0.4 9.8 0.6 L9.8 0.95 9.5 1.0 Q9.45 1.2 8.6 1.45 L7.45 1.65 6.6 1.6 5.95 1.45 5.0 1.25 3.6 1.4 3.2 1.5 3.05 1.35 2.25 1.5 1.25 1.35 -0.35 1.15 -0.8 0.9 -0.95 0.4 Q-1.75 0.4 -1.75 -0.05 -1.75 -0.2 -1.15 -0.4 L-0.1 -0.6 1.25 -0.3 2.3 -0.4 M4.3 -2.25 L4.55 -2.3 5.1 -1.8 5.05 -1.6 4.8 -1.55 Q4.25 -1.55 4.25 -2.05 L4.3 -2.25 M4.55 -0.85 L4.7 -0.35 4.7 -0.3 5.0 0.05 Q5.0 0.45 3.75 0.45 L2.7 0.65 2.2 0.55 2.05 0.15 1.45 0.35 1.25 0.2 1.05 0.3 0.2 0.15 0.0 0.0 -0.45 0.0 -0.4 0.4 0.55 0.65 1.35 0.8 1.8 0.7 2.5 0.9 3.05 0.8 3.55 0.9 4.25 0.85 5.15 0.7 7.15 0.95 7.4 1.05 8.4 0.85 7.8 0.7 Q7.3 0.7 6.6 0.3 L6.45 0.4 6.25 0.3 6.2 0.3 5.95 0.1 5.45 -0.15 4.65 -0.8 4.55 -0.85 M8.55 0.9 L8.55 0.95 8.7 0.95 8.55 0.9 M-0.4 -0.95 Q-1.1 -0.95 -1.1 -1.35 L-1.2 -1.7 -1.2 -1.65 Q0.25 -1.0 -0.4 -0.95" fill="#ff6600" fill-rule="evenodd" stroke="none"/>
    <path d="M4.7 -0.9 Q5.75 0.35 7.3 0.35 L7.65 0.4 7.95 0.5 8.75 0.4 10.0 0.55 10.6 0.7 10.85 1.0 Q10.85 1.25 10.25 1.3 L10.0 1.2 9.45 1.3 8.95 1.25 8.7 1.15 7.35 1.3 6.95 1.2 6.05 1.35 5.75 1.3 5.5 1.15 4.2 1.2 3.0 1.35 2.65 1.4 2.6 1.4 2.4 1.45 0.9 1.2 -0.15 1.05 -0.8 0.75 -0.65 0.55 -0.25 0.5 -0.75 0.15 -1.25 -0.15 -0.55 -0.35 0.15 -0.15 0.8 0.0 1.05 0.15 1.5 0.1 1.55 0.1 2.05 -0.05 2.45 0.1 3.1 0.2 3.75 0.35 4.0 0.25 4.25 0.25 4.6 0.25 4.65 0.05 4.45 -0.6 4.5 -0.8 4.7 -0.9" fill="#ffffcc" fill-rule="evenodd" stroke="none"/>
  </g>
</svg>
