<?xml version="1.0" encoding="UTF-8" standalone="no"?>
<svg xmlns:ffdec="https://www.free-decompiler.com/flash" xmlns:xlink="http://www.w3.org/1999/xlink" ffdec:objectType="shape" height="1.6px" width="4.5px" xmlns="http://www.w3.org/2000/svg">
  <g transform="matrix(1.0, 0.0, 0.0, 1.0, 2.4, 0.7)">
    <path d="M1.05 -0.45 L1.55 -0.45 2.05 -0.5 2.1 -0.45 2.05 0.2 2.0 0.35 1.2 0.15 1.05 -0.45 M-0.55 -0.55 L0.65 -0.5 -0.3 -0.15 -1.4 -0.2 -0.55 -0.55" fill="#cc9900" fill-rule="evenodd" stroke="none"/>
    <path d="M-2.35 -0.05 L-2.1 -0.3 -1.45 -0.7 1.05 -0.45 1.2 0.15 -2.35 -0.05 M-0.55 -0.55 L-1.4 -0.2 -0.3 -0.15 0.65 -0.5 -0.55 -0.55" fill="#ffffff" fill-rule="evenodd" stroke="none"/>
    <path d="M2.0 0.35 L2.05 0.5 -1.25 0.9 Q-1.9 0.9 -2.25 0.5 -2.5 0.15 -2.35 -0.05 L1.2 0.15 2.0 0.35" fill="#5e513e" fill-rule="evenodd" stroke="none"/>
  </g>
</svg>
