<?xml version="1.0" encoding="UTF-8" standalone="no"?>
<svg xmlns:ffdec="https://www.free-decompiler.com/flash" xmlns:xlink="http://www.w3.org/1999/xlink" ffdec:objectType="shape" height="23.25px" width="9.15px" xmlns="http://www.w3.org/2000/svg">
  <g transform="matrix(1.0, 0.0, 0.0, 1.0, 4.5, 12.25)">
    <path d="M-2.05 -6.45 L-2.8 -6.35 -2.05 -6.65 -2.05 -6.45 M-4.0 -11.1 L-3.1 -11.15 -2.2 -11.1 -2.75 -11.0 -4.0 -11.1" fill="url(#gradient0)" fill-rule="evenodd" stroke="none"/>
    <path d="M3.1 -6.35 L2.2 -6.5 2.2 -6.6 3.1 -6.35" fill="url(#gradient1)" fill-rule="evenodd" stroke="none"/>
    <path d="M2.2 -11.15 L2.1 -11.2 2.1 -12.15 -2.05 -12.15 -2.05 -12.25 2.2 -12.25 2.2 -11.15 M2.2 -6.5 L2.2 10.2 2.1 10.2 2.1 -6.65 2.2 -6.6 2.2 -6.5 M2.1 -10.25 L2.1 -10.75 2.2 -10.75 2.2 -10.2 2.1 -10.25 M2.2 -9.45 L2.1 -9.5 2.1 -9.55 2.2 -9.5 2.2 -9.45 M2.1 -8.7 L2.2 -8.65 2.2 -8.15 2.1 -8.2 2.1 -8.7 M2.1 -7.55 L2.2 -7.5 2.2 -7.05 2.1 -7.1 2.1 -7.55" fill="#382e15" fill-rule="evenodd" stroke="none"/>
    <path d="M2.2 10.2 L3.4 10.2 3.4 11.0 1.65 11.0 1.65 10.2 0.85 10.2 0.85 11.0 -1.2 11.0 -1.2 10.2 -1.6 10.2 -1.6 -11.9 1.7 -11.9 1.7 10.2 1.95 10.2 2.1 10.2 2.2 10.2 M-1.95 11.0 L-3.5 11.0 -3.5 10.2 -2.05 10.2 -1.95 10.2 -1.95 11.0 M1.3 -11.25 L-1.45 -11.25 -1.45 9.95 1.3 9.95 1.3 -11.25" fill="#536787" fill-rule="evenodd" stroke="none"/>
    <path d="M1.95 -11.25 L1.95 -10.95 1.95 -10.8 1.95 -10.35 1.95 -9.85 1.95 -9.65 1.95 -9.6 1.95 -9.0 1.95 -8.8 1.95 -8.25 1.95 -7.8 1.95 -7.6 1.95 -7.15 1.95 -6.85 1.95 -6.7 1.95 10.2 1.7 10.2 1.7 -11.9 -1.6 -11.9 -1.6 10.2 -1.8 10.2 -1.8 -6.75 -1.8 -6.85 -1.8 -7.2 -1.8 -7.65 -1.8 -7.85 -1.8 -8.3 -1.8 -8.85 -1.8 -9.1 -1.8 -9.65 -1.8 -9.7 -1.8 -9.9 -1.8 -10.35 -1.8 -10.85 -1.8 -10.95 -1.8 -11.25 -1.8 -12.0 1.95 -12.0 1.95 -11.25" fill="#c1d4f2" fill-rule="evenodd" stroke="none"/>
    <path d="M2.1 -11.2 L1.95 -11.25 1.95 -12.0 -1.8 -12.0 -1.8 -11.25 -2.05 -11.15 -2.05 -12.15 2.1 -12.15 2.1 -11.2 M-2.05 10.2 L-2.05 -6.45 -2.05 -6.65 -1.8 -6.75 -1.8 10.2 -1.95 10.2 -2.05 10.2 M-1.8 -10.85 L-1.8 -10.35 -2.05 -10.2 -2.05 -10.75 -1.8 -10.85 M-1.8 -9.7 L-1.8 -9.65 -2.05 -9.5 -2.05 -9.55 -1.8 -9.7 M-1.8 -8.85 L-1.8 -8.3 -2.05 -8.15 -2.05 -8.7 -1.8 -8.85 M-1.8 -7.65 L-1.8 -7.2 -2.05 -7.1 -2.05 -7.5 -1.8 -7.65 M1.95 10.2 L1.95 -6.7 2.1 -6.65 2.1 10.2 1.95 10.2 M1.95 -7.15 L1.95 -7.6 2.1 -7.55 2.1 -7.1 1.95 -7.15 M1.95 -8.25 L1.95 -8.8 2.1 -8.7 2.1 -8.2 1.95 -8.25 M1.95 -9.6 L1.95 -9.65 2.1 -9.55 2.1 -9.5 1.95 -9.6 M1.95 -10.35 L1.95 -10.8 2.1 -10.75 2.1 -10.25 1.95 -10.35" fill="#6680a6" fill-rule="evenodd" stroke="none"/>
    <path d="M1.65 11.0 L0.85 11.0 0.85 10.2 1.65 10.2 1.65 11.0 M-1.2 11.0 L-1.95 11.0 -1.95 10.2 -1.8 10.2 -1.6 10.2 -1.2 10.2 -1.2 11.0" fill="#7799c1" fill-rule="evenodd" stroke="none"/>
    <path d="M1.95 -10.95 L2.8 -10.8 4.65 -10.95 4.6 -10.8 2.2 -10.75 2.1 -10.75 1.95 -10.8 1.95 -10.95 M4.65 -9.9 L4.65 -9.7 2.2 -9.5 2.1 -9.55 1.95 -9.65 1.95 -9.85 2.8 -9.6 4.65 -9.9 M4.65 -9.1 L4.65 -8.85 Q3.4 -8.05 2.2 -8.65 L2.1 -8.7 1.95 -8.8 1.95 -9.0 2.8 -8.75 Q3.85 -8.6 4.65 -9.1 M4.65 -7.85 L4.65 -7.65 2.2 -7.5 2.1 -7.55 1.95 -7.6 1.95 -7.8 4.65 -7.85 M4.65 -6.85 L4.6 -6.7 3.65 -6.35 3.1 -6.35 2.2 -6.6 2.1 -6.65 1.95 -6.7 1.95 -6.85 Q3.35 -6.4 4.65 -6.85 M-2.8 -6.35 L-3.35 -6.35 -4.35 -6.65 -4.5 -6.85 Q-3.1 -6.4 -1.8 -6.85 L-1.8 -6.75 -2.05 -6.65 -2.8 -6.35 M-4.45 -7.55 L-4.5 -7.8 -1.8 -7.85 -1.8 -7.65 -2.05 -7.5 -4.45 -7.55 M-4.45 -8.75 L-4.5 -9.0 -1.8 -9.1 -1.8 -8.85 -2.05 -8.7 -4.45 -8.75 M-4.45 -9.6 L-4.5 -9.85 -1.8 -9.9 -1.8 -9.7 -2.05 -9.55 -4.45 -9.6 M-4.35 -10.75 L-4.5 -10.95 Q-3.1 -10.55 -1.8 -10.95 L-1.8 -10.85 -2.05 -10.75 Q-3.05 -10.45 -4.35 -10.75" fill="#333333" fill-rule="evenodd" stroke="none"/>
    <path d="M1.3 -11.25 L1.3 9.95 -1.45 9.95 -1.45 -11.25 1.3 -11.25" fill="#7288a7" fill-rule="evenodd" stroke="none"/>
    <path d="M2.2 -11.15 L2.45 -11.1 3.35 -11.15 4.25 -11.1 4.65 -10.95 2.8 -10.8 1.95 -10.95 1.95 -11.25 2.1 -11.2 2.2 -11.15 M4.65 -10.35 L4.65 -9.9 2.8 -9.6 1.95 -9.85 1.95 -10.35 2.1 -10.25 2.2 -10.2 4.65 -10.35 M4.65 -9.65 L4.65 -9.1 Q3.85 -8.6 2.8 -8.75 L1.95 -9.0 1.95 -9.6 2.1 -9.5 2.2 -9.45 Q3.35 -8.85 4.65 -9.65 M4.65 -8.85 L4.65 -7.85 1.95 -7.8 1.95 -8.25 2.1 -8.2 2.2 -8.15 2.2 -8.65 Q3.4 -8.05 4.65 -8.85 M4.65 -7.2 L4.65 -6.85 Q3.35 -6.4 1.95 -6.85 L1.95 -7.15 2.1 -7.1 2.2 -7.05 4.65 -7.2 M-4.5 -6.85 L-4.45 -7.1 Q-3.1 -6.75 -2.05 -7.1 L-1.8 -7.2 -1.8 -6.85 Q-3.1 -6.4 -4.5 -6.85 M-4.5 -7.8 L-4.45 -8.2 -2.05 -8.15 -1.8 -8.3 -1.8 -7.85 -4.5 -7.8 M-4.5 -9.0 L-4.45 -9.55 -2.75 -9.25 Q-2.3 -9.35 -2.05 -9.5 L-1.8 -9.65 -1.8 -9.1 -4.5 -9.0 M-4.5 -9.85 L-4.45 -10.3 -2.75 -10.0 Q-2.3 -10.05 -2.05 -10.2 L-1.8 -10.35 -1.8 -9.9 -4.5 -9.85 M-4.5 -10.95 L-4.0 -11.1 -2.75 -11.0 -2.2 -11.1 -2.05 -11.15 -1.8 -11.25 -1.8 -10.95 Q-3.1 -10.55 -4.5 -10.95" fill="#909090" fill-rule="evenodd" stroke="none"/>
    <path d="M4.6 -10.8 L4.65 -10.35 2.2 -10.2 2.2 -10.75 4.6 -10.8 M4.65 -9.7 L4.65 -9.65 Q3.35 -8.85 2.2 -9.45 L2.2 -9.5 4.65 -9.7 M4.65 -7.65 L4.65 -7.2 2.2 -7.05 2.2 -7.5 4.65 -7.65 M-4.45 -7.1 L-4.45 -7.55 -2.05 -7.5 -2.05 -7.1 Q-3.1 -6.75 -4.45 -7.1 M-4.45 -8.2 L-4.45 -8.75 -2.05 -8.7 -2.05 -8.15 -4.45 -8.2 M-4.45 -9.55 L-4.45 -9.6 -2.05 -9.55 -2.05 -9.5 Q-2.3 -9.35 -2.75 -9.25 L-4.45 -9.55 M-4.45 -10.3 L-4.35 -10.75 Q-3.05 -10.45 -2.05 -10.75 L-2.05 -10.2 Q-2.3 -10.05 -2.75 -10.0 L-4.45 -10.3" fill="#676767" fill-rule="evenodd" stroke="none"/>
  </g>
  <defs>
    <radialGradient cx="0" cy="0" gradientTransform="matrix(0.0031, 0.0, 0.0, 0.0031, -3.1, -8.75)" gradientUnits="userSpaceOnUse" id="gradient0" r="819.2" spreadMethod="pad">
      <stop offset="0.0" stop-color="#a1a1a1"/>
      <stop offset="1.0" stop-color="#404040"/>
    </radialGradient>
    <radialGradient cx="0" cy="0" gradientTransform="matrix(0.0031, 0.0, 0.0, 0.0031, 3.35, -8.75)" gradientUnits="userSpaceOnUse" id="gradient1" r="819.2" spreadMethod="pad">
      <stop offset="0.0" stop-color="#a1a1a1"/>
      <stop offset="1.0" stop-color="#404040"/>
    </radialGradient>
  </defs>
</svg>
