<?xml version="1.0" encoding="UTF-8" standalone="no"?>
<svg xmlns:ffdec="https://www.free-decompiler.com/flash" xmlns:xlink="http://www.w3.org/1999/xlink" ffdec:objectType="shape" height="24.95px" width="33.45px" xmlns="http://www.w3.org/2000/svg">
  <g transform="matrix(1.0, 0.0, 0.0, 1.0, 15.25, 12.95)">
    <path d="M-14.75 -6.55 L-14.6 -6.8 -14.4 -6.75 -14.75 -6.5 -14.75 -6.55" fill="#ab5c5c" fill-rule="evenodd" stroke="none"/>
    <path d="M3.4 -6.8 L3.4 -6.75 3.35 -6.8 3.4 -6.8 M-2.3 -7.05 L-2.25 -7.05 -2.3 -7.0 -2.3 -7.05" fill="#864646" fill-rule="evenodd" stroke="none"/>
    <path d="M3.4 10.8 L-2.3 10.8 -2.3 9.55 Q-1.0 10.3 0.35 10.3 2.45 9.75 3.4 9.2 L3.45 9.35 3.45 9.7 3.4 9.9 3.4 10.25 3.4 10.4 3.4 10.7 3.4 10.8" fill="#464646" fill-rule="evenodd" stroke="none"/>
    <path d="M2.7 -7.25 L3.05 -7.05 3.35 -6.8 3.4 -6.75 3.4 -6.5 2.7 -7.2 2.7 -7.25 M3.45 8.4 L3.4 8.9 3.4 9.2 Q2.45 9.75 0.35 10.3 -1.0 10.3 -2.3 9.55 L-2.3 8.8 Q-0.95 9.6 0.35 9.6 2.4 9.05 3.45 8.4 M-2.25 -7.05 L-1.4 -7.5 -2.3 -6.95 -2.3 -7.0 -2.25 -7.05" fill="#252d30" fill-rule="evenodd" stroke="none"/>
    <path d="M3.4 -6.5 L3.4 -6.45 3.45 -6.25 3.45 -5.9 3.45 -5.45 3.45 -5.1 3.4 -4.6 3.45 -4.05 3.35 -4.1 2.7 -7.2 3.4 -6.5 M-1.6 -6.0 L-2.25 -2.5 -0.3 -2.0 -0.25 -0.95 -0.2 -0.8 0.45 -0.7 1.1 -0.9 1.7 -2.0 1.8 -2.0 Q1.8 -1.5 2.25 -1.15 2.7 -0.8 3.35 -0.8 L3.4 -0.6 3.45 -0.1 3.4 0.4 3.4 0.9 3.45 1.4 3.45 1.9 3.45 2.4 3.4 2.9 3.4 3.45 3.4 3.9 3.4 4.4 3.4 4.9 3.4 5.35 3.4 5.9 3.4 6.45 3.45 6.9 3.4 7.4 3.4 7.85 3.45 8.4 Q2.4 9.05 0.35 9.6 -0.95 9.6 -2.3 8.8 L-2.3 7.25 0.45 7.25 0.45 7.2 0.45 5.2 -2.3 5.2 -2.3 5.05 3.15 5.05 3.15 4.95 3.15 0.95 -2.3 0.95 -2.3 -4.1 -2.3 -6.95 -1.4 -7.5 -1.6 -6.0" fill="url(#gradient0)" fill-rule="evenodd" stroke="none"/>
    <path d="M9.2 -7.85 L9.2 -6.85 9.2 -6.75 9.2 -6.5 9.2 -5.9 9.2 -4.1 3.45 -4.05 3.4 -4.6 9.15 -5.1 3.45 -5.1 3.45 -5.45 9.15 -5.9 3.45 -5.9 3.45 -6.25 9.15 -6.45 3.4 -6.45 3.4 -6.5 3.4 -6.75 3.4 -6.8 9.15 -6.75 3.4 -6.95 3.4 -7.05 3.4 -7.25 9.15 -7.25 3.4 -7.45 3.4 -7.8 9.15 -7.9 9.2 -7.85 M3.4 -3.55 L9.1 -3.6 9.2 -4.1 9.2 11.4 9.15 11.35 3.4 11.25 3.4 10.9 9.15 10.7 6.3 10.75 3.4 10.7 3.4 10.4 9.15 10.2 3.4 10.25 3.4 9.9 9.15 9.7 3.45 9.7 3.45 9.35 9.15 8.85 3.4 8.9 3.45 8.4 9.15 7.85 3.4 7.85 3.4 7.4 9.15 6.85 3.45 6.9 3.4 6.45 Q9.15 6.4 9.15 5.85 L3.4 5.9 3.4 5.35 9.1 4.85 3.4 4.9 3.4 4.4 9.1 3.9 3.4 3.9 3.4 3.45 Q9.1 3.35 9.15 2.85 L3.4 2.9 3.45 2.4 9.15 1.9 3.45 1.9 3.45 1.4 9.15 0.85 3.4 0.9 3.4 0.4 9.15 -0.15 3.45 -0.1 3.4 -0.6 9.15 -1.1 3.65 -1.05 3.85 -1.55 Q9.1 -1.65 9.15 -2.1 L3.8 -2.1 3.45 -2.55 Q9.15 -2.6 9.1 -3.15 L3.4 -3.1 3.4 -3.15 3.4 -3.4 3.4 -3.55 M-2.3 10.8 L-2.35 11.35 -2.6 11.2 -2.6 -3.6 -2.3 -4.1 -2.3 0.95 -2.0 1.25 -2.0 4.85 2.85 4.85 2.85 4.75 3.15 4.95 3.15 5.05 -2.3 5.05 -2.3 5.2 -2.2 5.3 -2.2 7.15 0.3 7.15 0.3 7.1 0.45 7.2 0.45 7.25 -2.3 7.25 -2.3 8.8 -2.3 9.55 -2.3 10.8 M-8.1 11.25 L-8.1 10.9 -3.6 10.85 -3.6 11.2 -8.1 11.25 M-8.1 10.75 L-8.1 10.4 -3.6 10.35 -3.6 10.7 -8.1 10.75 M-8.1 10.25 L-8.1 9.9 -3.6 9.9 -3.6 10.2 -8.1 10.25 M-8.05 9.7 L-8.05 9.35 -3.6 9.35 -3.6 9.7 -8.05 9.7 M-8.1 8.9 L-8.05 8.4 -3.6 8.35 -3.6 8.85 -8.1 8.9 M-8.1 7.85 L-8.1 7.4 -3.6 7.35 -3.6 7.85 -8.1 7.85 M-8.05 6.9 L-8.1 6.45 -3.6 6.4 -3.6 6.85 -8.05 6.9 M-8.1 5.9 L-8.1 5.35 -3.6 5.35 -3.6 5.85 -8.1 5.9 M-8.1 4.9 L-8.1 4.4 -3.6 4.35 -3.6 4.85 -8.1 4.9 M-8.1 3.9 L-8.1 3.45 -3.6 3.4 -3.6 3.9 -8.1 3.9 M-8.1 2.9 L-8.05 2.4 -3.6 2.35 -3.6 2.85 -8.1 2.9 M-8.05 1.9 L-8.05 1.4 -3.6 1.35 -3.6 1.9 -8.05 1.9 M-8.1 0.9 L-8.1 0.4 -3.6 0.35 -3.6 0.85 -8.1 0.9 M-8.05 -0.1 L-8.1 -0.6 -3.6 -0.6 -3.6 -0.15 -8.05 -0.1 M-8.1 -1.05 L-8.05 -1.55 -3.6 -1.6 -3.6 -1.1 -8.1 -1.05 M-8.1 -2.1 L-8.1 -2.55 -3.6 -2.6 -3.6 -2.1 -8.1 -2.1 M-8.1 -3.1 L-8.1 -3.55 -3.6 -3.6 -3.6 -3.15 -8.1 -3.1 M-8.05 -4.05 L-8.1 -4.6 -3.6 -4.65 -3.6 -4.1 -8.05 -4.05 M-8.05 -5.1 L-8.05 -5.45 -3.6 -5.5 -3.6 -5.1 -8.05 -5.1 M-3.6 -6.25 L-3.6 -5.9 -8.05 -5.9 -8.05 -6.25 -3.6 -6.25 M-3.25 -6.75 L-3.55 -6.45 -8.1 -6.45 -8.1 -6.5 -8.1 -6.75 -8.1 -6.8 -3.25 -6.75 M-2.6 -4.1 L-2.6 -6.25 -2.6 -6.45 -2.9 -6.75 -2.35 -6.75 -8.1 -6.95 -8.1 -7.05 -8.1 -7.25 -2.35 -7.25 -5.25 -7.3 -8.1 -7.45 -8.1 -7.8 -5.25 -7.8 -2.35 -7.9 -2.3 -7.05 -2.3 -7.0 -2.3 -6.95 -2.3 -4.1 -2.6 -4.1" fill="#333333" fill-rule="evenodd" stroke="none"/>
    <path d="M2.85 4.75 L2.85 4.85 -2.0 4.85 -2.0 1.25 -2.0 1.15 2.85 1.15 2.85 4.75" fill="url(#gradient1)" fill-rule="evenodd" stroke="none"/>
    <path d="M2.85 4.75 L2.85 1.15 -2.0 1.15 -2.0 1.25 -2.3 0.95 3.15 0.95 3.15 4.95 2.85 4.75 M-2.3 5.2 L0.45 5.2 0.45 7.2 0.3 7.1 0.3 5.3 -2.2 5.3 -2.3 5.2" fill="#9baab0" fill-rule="evenodd" stroke="none"/>
    <path d="M0.3 7.1 L0.3 7.15 -2.2 7.15 -2.2 5.3 0.3 5.3 0.3 7.1" fill="url(#gradient2)" fill-rule="evenodd" stroke="none"/>
    <path d="M2.45 -8.55 L2.55 -8.05 2.7 -7.25 2.7 -7.2 3.35 -3.85 3.4 -3.55 3.4 -3.4 3.4 -3.15 0.7 -3.3 -2.05 -3.15 -1.6 -6.0 -1.4 -7.5 -1.3 -8.05 -1.25 -8.55 -0.3 -8.8 0.45 -8.95 2.45 -8.55" fill="url(#gradient3)" fill-rule="evenodd" stroke="none"/>
    <path d="M-0.3 -2.0 L0.6 -2.3 1.7 -2.0 1.1 -0.9 0.45 -0.7 -0.2 -0.8 -0.25 -0.95 -0.3 -2.0" fill="url(#gradient4)" fill-rule="evenodd" stroke="none"/>
    <path d="M2.7 -7.2 L3.35 -4.1 3.35 -3.85 2.7 -7.2 M3.4 -3.4 L3.4 -3.55 3.4 -3.4 M3.4 -3.15 L3.4 -3.1 3.35 -2.6 2.45 -2.5 Q2.0 -2.35 1.8 -2.0 L1.7 -2.0 0.6 -2.3 -0.3 -2.0 -2.25 -2.5 -1.6 -6.0 -2.05 -3.15 0.7 -3.3 3.4 -3.15" fill="url(#gradient5)" fill-rule="evenodd" stroke="none"/>
    <path d="M-2.35 11.35 L-2.95 12.0 -2.6 11.35 -2.35 11.35" fill="#5e5e5e" fill-rule="evenodd" stroke="none"/>
    <path d="M-5.45 -7.9 L-4.8 -7.9 -2.35 -7.9 -5.25 -7.8 -8.1 -7.8 -8.15 -7.95 -5.45 -7.9" fill="url(#gradient6)" fill-rule="evenodd" stroke="none"/>
    <path d="M3.4 -7.25 L3.4 -7.45 9.15 -7.25 3.4 -7.25 M3.4 -6.95 L9.15 -6.75 3.4 -6.8 3.35 -6.8 3.4 -6.95 M3.4 -6.45 L9.15 -6.45 3.45 -6.25 3.4 -6.45 M3.45 -5.9 L9.15 -5.9 3.45 -5.45 3.45 -5.9 M3.45 -5.1 L9.15 -5.1 3.4 -4.6 3.45 -5.1 M3.45 -4.05 L9.2 -4.1 9.1 -3.6 3.4 -3.55 3.35 -3.85 3.35 -4.1 3.45 -4.05 M3.4 10.9 L3.4 10.8 3.4 10.7 6.3 10.75 9.15 10.7 3.4 10.9 M-8.1 10.9 L-8.1 10.75 -3.6 10.7 -3.6 10.85 -8.1 10.9 M-8.1 10.4 L-8.1 10.25 -3.6 10.2 -3.6 10.35 -8.1 10.4 M-8.1 9.9 L-8.05 9.7 -3.6 9.7 -3.6 9.9 -8.1 9.9 M-8.05 9.35 L-8.1 8.9 -3.6 8.85 -3.6 9.35 -8.05 9.35 M-8.05 8.4 L-8.1 7.85 -3.6 7.85 -3.6 8.35 -8.05 8.4 M-8.1 7.4 L-8.05 6.9 -3.6 6.85 -3.6 7.35 -8.1 7.4 M-8.1 6.45 L-8.1 5.9 -3.6 5.85 -3.6 6.4 -8.1 6.45 M-8.1 5.35 L-8.1 4.9 -3.6 4.85 -3.6 5.35 -8.1 5.35 M-8.1 4.4 L-8.1 3.9 -3.6 3.9 -3.6 4.35 -8.1 4.4 M-8.1 3.45 L-8.1 2.9 -3.6 2.85 -3.6 3.4 -8.1 3.45 M-8.05 2.4 L-8.05 1.9 -3.6 1.9 -3.6 2.35 -8.05 2.4 M-8.05 1.4 L-8.1 0.9 -3.6 0.85 -3.6 1.35 -8.05 1.4 M-8.1 0.4 L-8.05 -0.1 -3.6 -0.15 -3.6 0.35 -8.1 0.4 M-8.1 -0.6 L-8.1 -1.05 -3.6 -1.1 -3.6 -0.6 -8.1 -0.6 M-8.05 -1.55 L-8.1 -2.1 -3.6 -2.1 -3.6 -1.6 -8.05 -1.55 M-8.1 -2.55 L-8.1 -3.1 -3.6 -3.15 -3.6 -2.6 -8.1 -2.55 M-8.1 -3.55 L-8.05 -4.05 -3.6 -4.1 -3.6 -3.6 -8.1 -3.55 M-8.1 -4.6 L-8.05 -5.1 -3.6 -5.1 -3.6 -4.65 -8.1 -4.6 M-8.05 -5.45 L-8.1 -5.9 -8.05 -5.9 -3.6 -5.9 -3.6 -5.5 -8.05 -5.45 M3.35 -2.6 L3.4 -3.1 9.1 -3.15 Q9.15 -2.6 3.45 -2.55 L3.35 -2.6 M3.8 -2.1 L9.15 -2.1 Q9.1 -1.65 3.85 -1.55 L3.8 -2.1 M3.65 -1.05 L9.15 -1.1 3.4 -0.6 3.35 -0.8 3.65 -1.05 M3.45 -0.1 L9.15 -0.15 3.4 0.4 3.45 -0.1 M3.4 0.9 L9.15 0.85 3.45 1.4 3.4 0.9 M3.45 1.9 L9.15 1.9 3.45 2.4 3.45 1.9 M3.4 2.9 L9.15 2.85 Q9.1 3.35 3.4 3.45 L3.4 2.9 M3.4 3.9 L9.1 3.9 3.4 4.4 3.4 3.9 M3.4 4.9 L9.1 4.85 3.4 5.35 3.4 4.9 M3.4 5.9 L9.15 5.85 Q9.15 6.4 3.4 6.45 L3.4 5.9 M3.45 6.9 L9.15 6.85 3.4 7.4 3.45 6.9 M3.4 7.85 L9.15 7.85 3.45 8.4 3.4 7.85 M3.4 8.9 L9.15 8.85 3.45 9.35 3.4 9.2 3.4 8.9 M3.45 9.7 L9.15 9.7 3.4 9.9 3.45 9.7 M3.4 10.25 L9.15 10.2 3.4 10.4 3.4 10.25 M-2.3 -4.1 L-2.6 -3.6 -2.6 -4.1 -2.3 -4.1 M-3.55 -6.45 L-3.6 -6.25 -8.05 -6.25 -8.1 -6.45 -3.55 -6.45 M-2.9 -6.75 L-3.25 -6.75 -8.1 -6.8 -8.1 -6.95 -2.35 -6.75 -2.9 -6.75 M-8.1 -7.25 L-8.1 -7.45 -5.25 -7.3 -2.35 -7.25 -8.1 -7.25" fill="#666666" fill-rule="evenodd" stroke="none"/>
    <path d="M-3.6 11.35 L-8.15 11.4 -8.1 11.25 -3.6 11.2 -3.6 11.35 M-2.6 11.2 L-2.35 11.35 -2.6 11.35 -2.6 11.2" fill="url(#gradient7)" fill-rule="evenodd" stroke="none"/>
    <path d="M4.25 -7.95 L4.9 -7.95 9.15 -7.9 3.4 -7.8 3.35 -7.95 Q3.4 -7.8 4.25 -7.95" fill="url(#gradient8)" fill-rule="evenodd" stroke="none"/>
    <path d="M9.15 11.35 L3.35 11.4 3.4 11.25 9.15 11.35" fill="url(#gradient9)" fill-rule="evenodd" stroke="none"/>
    <path d="M1.8 -2.0 Q2.0 -2.35 2.45 -2.5 L3.35 -2.6 3.45 -2.55 3.8 -2.1 3.85 -1.55 3.65 -1.05 3.35 -0.8 Q2.7 -0.8 2.25 -1.15 1.8 -1.5 1.8 -2.0" fill="url(#gradient10)" fill-rule="evenodd" stroke="none"/>
    <path d="M-2.95 12.0 L-3.6 11.35 -3.6 11.2 -3.6 10.85 -3.6 10.7 -3.6 10.35 -3.6 10.2 -3.6 9.9 -3.6 9.7 -3.6 9.35 -3.6 8.85 -3.6 8.35 -3.6 7.85 -3.6 7.35 -3.6 6.85 -3.6 6.4 -3.6 5.85 -3.6 5.35 -3.6 4.85 -3.6 4.35 -3.6 3.9 -3.6 3.4 -3.6 2.85 -3.6 2.35 -3.6 1.9 -3.6 1.35 -3.6 0.85 -3.6 0.35 -3.6 -0.15 -3.6 -0.6 -3.6 -1.1 -3.6 -1.6 -3.6 -2.1 -3.6 -2.6 -3.6 -3.15 -3.6 -3.6 -3.6 -4.1 -3.6 -4.65 -3.6 -5.1 -3.6 -5.5 -3.6 -5.9 -3.6 -6.25 -3.55 -6.45 -3.25 -6.75 -2.9 -6.75 -2.6 -6.45 -2.6 -6.25 -2.6 -4.1 -2.6 -3.6 -2.6 11.2 -2.6 11.35 -2.95 12.0" fill="url(#gradient11)" fill-rule="evenodd" stroke="none"/>
    <path d="M6.0 -11.0 L6.65 -11.0 11.0 -11.0 10.7 -10.5 6.35 -10.5 5.7 -10.5 1.3 -10.5 1.6 -11.0 6.0 -11.0 M5.25 -9.75 L5.95 -9.75 10.3 -9.75 10.0 -9.25 5.65 -9.25 5.0 -9.25 0.6 -9.25 0.85 -9.75 5.25 -9.75 M9.6 -8.55 L9.3 -8.05 4.95 -8.05 4.3 -8.05 2.55 -8.05 2.45 -8.55 4.6 -8.55 5.25 -8.55 9.6 -8.55 M9.2 -6.85 L9.35 -7.05 13.55 -7.05 14.2 -7.05 17.5 -7.05 13.75 -6.75 13.4 -6.75 9.2 -6.75 9.2 -6.85 M9.95 -8.05 L10.25 -8.55 14.4 -8.55 15.05 -8.55 17.5 -8.55 Q17.5 -8.05 14.8 -8.05 L14.15 -8.05 9.95 -8.05 M10.65 -9.25 L10.9 -9.75 15.1 -9.75 15.75 -9.75 17.5 -9.75 Q17.5 -9.45 16.5 -9.3 L15.45 -9.25 14.8 -9.25 10.65 -9.25 M11.35 -10.5 L11.65 -11.0 15.85 -11.0 16.45 -11.0 17.5 -11.0 Q17.5 -10.7 16.85 -10.55 L16.2 -10.5 15.55 -10.5 11.35 -10.5 M0.95 -11.0 L0.65 -10.5 -3.35 -10.5 -4.0 -10.5 -7.85 -10.5 -7.55 -11.0 -3.7 -11.0 -3.05 -11.0 0.95 -11.0 M0.25 -9.75 L-0.05 -9.25 -4.05 -9.25 -4.7 -9.25 -8.55 -9.25 -8.3 -9.75 -4.4 -9.75 -3.75 -9.75 0.25 -9.75 M-14.6 -6.8 L-14.45 -7.05 -13.95 -7.05 -10.45 -7.05 -10.65 -6.75 -14.4 -6.75 -14.6 -6.8 M-13.9 -8.05 L-14.6 -8.05 Q-14.6 -8.55 -13.6 -8.55 L-12.95 -8.55 -9.6 -8.55 -9.9 -8.05 -13.25 -8.05 -13.9 -8.05 M-13.2 -9.25 L-14.6 -9.25 Q-14.6 -9.75 -12.9 -9.75 L-12.25 -9.75 -8.9 -9.75 -9.2 -9.25 -12.55 -9.25 -13.2 -9.25 M-12.5 -10.5 L-14.6 -10.5 Q-14.6 -11.0 -12.2 -11.0 L-11.55 -11.0 -8.2 -11.0 -8.5 -10.5 -11.85 -10.5 -12.5 -10.5 M-10.4 -6.75 L-9.95 -7.05 -8.1 -7.05 -8.1 -6.95 -8.1 -6.8 -8.1 -6.75 -10.4 -6.75 M-9.25 -8.05 L-8.95 -8.55 -5.1 -8.55 -4.45 -8.55 -1.25 -8.55 -1.3 -8.05 -4.75 -8.05 -5.4 -8.05 -9.25 -8.05" fill="#3d5d80" fill-rule="evenodd" stroke="none"/>
    <path d="M7.2 -11.95 L6.55 -11.95 2.15 -11.95 2.3 -12.25 11.95 -12.25 11.55 -11.95 7.2 -11.95 M12.2 -11.95 L12.35 -12.25 16.7 -12.25 17.2 -12.25 17.0 -11.95 16.4 -11.95 12.2 -11.95 M9.2 -6.5 L13.25 -6.5 13.4 -6.5 17.7 -6.5 17.7 -9.85 18.2 -9.85 18.2 -5.9 9.2 -5.9 9.2 -6.5 M1.9 -12.25 L1.5 -11.95 -2.5 -11.95 -3.15 -11.95 -7.0 -11.95 -6.85 -12.25 -3.0 -12.25 -2.35 -12.25 1.9 -12.25 M3.05 -7.05 L3.4 -7.05 3.4 -6.95 3.35 -6.8 3.05 -7.05 M-8.1 -5.9 L-15.25 -5.9 -15.25 -9.85 Q-14.95 -9.85 -14.8 -8.2 L-14.75 -6.55 -14.75 -6.5 -10.8 -6.5 -8.1 -6.5 -8.1 -6.45 -8.05 -6.25 -8.05 -5.9 -8.1 -5.9 M-11.65 -11.95 L-14.6 -11.95 -11.5 -12.25 -10.85 -12.25 -7.5 -12.25 -7.65 -11.95 -11.0 -11.95 -11.65 -11.95" fill="#2f4962" fill-rule="evenodd" stroke="none"/>
    <path d="M11.0 -11.0 L11.55 -11.95 11.95 -12.25 12.35 -12.25 12.2 -11.95 11.65 -11.0 11.35 -10.5 10.9 -9.75 10.65 -9.25 10.25 -8.55 9.95 -8.05 9.35 -7.05 9.2 -6.85 9.2 -7.85 9.3 -8.05 9.6 -8.55 10.0 -9.25 10.3 -9.75 10.7 -10.5 11.0 -11.0 M0.85 -9.75 L0.6 -9.25 0.45 -8.95 -0.3 -8.8 -0.05 -9.25 0.25 -9.75 0.65 -10.5 0.95 -11.0 1.5 -11.95 1.9 -12.25 2.3 -12.25 2.15 -11.95 1.6 -11.0 1.3 -10.5 0.85 -9.75 M-6.85 -12.25 L-7.0 -11.95 -7.55 -11.0 -7.85 -10.5 -8.3 -9.75 -8.55 -9.25 -8.95 -8.55 -9.25 -8.05 -9.95 -7.05 -10.4 -6.75 -10.8 -6.5 -10.65 -6.75 -10.45 -7.05 -9.9 -8.05 -9.6 -8.55 -9.2 -9.25 -8.9 -9.75 -8.5 -10.5 -8.2 -11.0 -7.65 -11.95 -7.5 -12.25 -6.45 -12.95 -6.85 -12.25" fill="#4e77a0" fill-rule="evenodd" stroke="none"/>
    <path d="M7.2 -11.95 L6.65 -11.0 6.0 -11.0 6.55 -11.95 7.2 -11.95 M5.95 -9.75 L5.25 -9.75 5.7 -10.5 6.35 -10.5 5.95 -9.75 M5.0 -9.25 L5.65 -9.25 5.25 -8.55 4.6 -8.55 5.0 -9.25 M13.4 -6.75 L13.75 -6.75 13.4 -6.5 13.25 -6.5 13.4 -6.75 M14.2 -7.05 L13.55 -7.05 14.15 -8.05 14.8 -8.05 14.2 -7.05 M4.3 -8.05 L4.95 -8.05 4.9 -7.95 4.25 -7.95 4.3 -8.05 M-2.35 -12.25 L-3.0 -12.25 -1.95 -12.95 -2.35 -12.25 M-3.15 -11.95 L-2.5 -11.95 -3.05 -11.0 -3.7 -11.0 -3.15 -11.95 M-14.45 -7.05 L-13.9 -8.05 -13.25 -8.05 -13.95 -7.05 -14.45 -7.05 M-13.6 -8.55 L-13.2 -9.25 -12.55 -9.25 -12.95 -8.55 -13.6 -8.55 M-12.9 -9.75 L-12.5 -10.5 -11.85 -10.5 -12.25 -9.75 -12.9 -9.75 M-12.2 -11.0 L-11.65 -11.95 -11.0 -11.95 -11.55 -11.0 -12.2 -11.0 M-11.5 -12.25 L-10.45 -12.95 -10.85 -12.25 -11.5 -12.25 M17.2 -12.25 L16.7 -12.25 17.5 -12.8 17.2 -12.25 M16.45 -11.0 L15.85 -11.0 16.4 -11.95 17.0 -11.95 16.45 -11.0 M15.55 -10.5 L16.2 -10.5 15.75 -9.75 15.1 -9.75 15.55 -10.5 M14.4 -8.55 L14.8 -9.25 15.45 -9.25 15.05 -8.55 14.4 -8.55 M-4.4 -9.75 L-4.0 -10.5 -3.35 -10.5 -3.75 -9.75 -4.4 -9.75 M-4.75 -8.05 L-4.8 -7.9 -5.45 -7.9 -5.4 -8.05 -4.75 -8.05 M-4.7 -9.25 L-4.05 -9.25 -4.45 -8.55 -5.1 -8.55 -4.7 -9.25" fill="#34576d" fill-rule="evenodd" stroke="none"/>
  </g>
  <defs>
    <radialGradient cx="0" cy="0" gradientTransform="matrix(0.0, 0.0136, -0.0136, 0.0, 1.85, 2.35)" gradientUnits="userSpaceOnUse" id="gradient0" r="819.2" spreadMethod="pad">
      <stop offset="0.03529411764705882" stop-color="#71868e"/>
      <stop offset="0.9803921568627451" stop-color="#252d30"/>
    </radialGradient>
    <radialGradient cx="0" cy="0" gradientTransform="matrix(0.0072, 0.0, 0.0, 0.0072, 1.55, 1.85)" gradientUnits="userSpaceOnUse" id="gradient1" r="819.2" spreadMethod="pad">
      <stop offset="0.03529411764705882" stop-color="#bcc7cb"/>
      <stop offset="0.24313725490196078" stop-color="#afb69c"/>
      <stop offset="0.3843137254901961" stop-color="#a8a18e"/>
      <stop offset="0.9803921568627451" stop-color="#252d30"/>
    </radialGradient>
    <radialGradient cx="0" cy="0" gradientTransform="matrix(0.0052, 0.0, 0.0, 0.0052, 0.6, 4.55)" gradientUnits="userSpaceOnUse" id="gradient2" r="819.2" spreadMethod="pad">
      <stop offset="0.03529411764705882" stop-color="#b1c2a8"/>
      <stop offset="0.24313725490196078" stop-color="#afb69c"/>
      <stop offset="0.3843137254901961" stop-color="#a8a18e"/>
      <stop offset="0.9803921568627451" stop-color="#252d30"/>
    </radialGradient>
    <radialGradient cx="0" cy="0" fx="-48.0" fy="0" gradientTransform="matrix(0.0049, 0.0, 0.0, 0.0044, 1.25, -6.5)" gradientUnits="userSpaceOnUse" id="gradient3" r="819.2" spreadMethod="pad">
      <stop offset="0.03529411764705882" stop-color="#e8e8e8"/>
      <stop offset="0.9882352941176471" stop-color="#c2c2c2"/>
    </radialGradient>
    <radialGradient cx="0" cy="0" gradientTransform="matrix(0.0015, 0.0, 0.0, 0.0015, 0.75, -2.0)" gradientUnits="userSpaceOnUse" id="gradient4" r="819.2" spreadMethod="pad">
      <stop offset="0.0" stop-color="#a0aeb4"/>
      <stop offset="0.9803921568627451" stop-color="#252d30"/>
    </radialGradient>
    <radialGradient cx="0" cy="0" gradientTransform="matrix(0.0053, 0.0, 0.0, 0.0044, 0.7, -5.75)" gradientUnits="userSpaceOnUse" id="gradient5" r="819.2" spreadMethod="pad">
      <stop offset="0.03529411764705882" stop-color="#d4d4d4"/>
      <stop offset="0.5843137254901961" stop-color="#9e9e91"/>
      <stop offset="0.7843137254901961" stop-color="#8c8c8c"/>
      <stop offset="0.9764705882352941" stop-color="#616161"/>
    </radialGradient>
    <radialGradient cx="0" cy="0" gradientTransform="matrix(0.0036, 0.0, 0.0, -0.0021, -5.35, -7.8)" gradientUnits="userSpaceOnUse" id="gradient6" r="819.2" spreadMethod="pad">
      <stop offset="0.0" stop-color="#b8b8b8"/>
      <stop offset="1.0" stop-color="#7a7a7a"/>
    </radialGradient>
    <radialGradient cx="0" cy="0" gradientTransform="matrix(0.0036, 0.0, 0.0, 0.0021, -5.35, 11.25)" gradientUnits="userSpaceOnUse" id="gradient7" r="819.2" spreadMethod="pad">
      <stop offset="0.0" stop-color="#b8b8b8"/>
      <stop offset="1.0" stop-color="#7a7a7a"/>
    </radialGradient>
    <radialGradient cx="0" cy="0" gradientTransform="matrix(0.0036, 0.0, 0.0, -0.0021, 6.15, -7.8)" gradientUnits="userSpaceOnUse" id="gradient8" r="819.2" spreadMethod="pad">
      <stop offset="0.0" stop-color="#b8b8b8"/>
      <stop offset="1.0" stop-color="#7a7a7a"/>
    </radialGradient>
    <radialGradient cx="0" cy="0" gradientTransform="matrix(0.0036, 0.0, 0.0, 0.0021, 6.15, 11.25)" gradientUnits="userSpaceOnUse" id="gradient9" r="819.2" spreadMethod="pad">
      <stop offset="0.0" stop-color="#b8b8b8"/>
      <stop offset="1.0" stop-color="#7a7a7a"/>
    </radialGradient>
    <radialGradient cx="0" cy="0" gradientTransform="matrix(0.0017, 0.0, 0.0, 0.0017, 2.85, -1.9)" gradientUnits="userSpaceOnUse" id="gradient10" r="819.2" spreadMethod="pad">
      <stop offset="0.0" stop-color="#a0aeb4"/>
      <stop offset="0.9803921568627451" stop-color="#252d30"/>
    </radialGradient>
    <linearGradient gradientTransform="matrix(0.0023, -0.0011, 0.0033, 0.0103, -3.1, 2.7)" gradientUnits="userSpaceOnUse" id="gradient11" spreadMethod="pad" x1="-819.2" x2="819.2">
      <stop offset="0.00784313725490196" stop-color="#666666"/>
      <stop offset="0.5058823529411764" stop-color="#999999"/>
      <stop offset="0.9803921568627451" stop-color="#666666"/>
    </linearGradient>
  </defs>
</svg>
