<?xml version="1.0" encoding="UTF-8" standalone="no"?>
<svg xmlns:ffdec="https://www.free-decompiler.com/flash" xmlns:xlink="http://www.w3.org/1999/xlink" ffdec:objectType="shape" height="34.35px" width="9.4px" xmlns="http://www.w3.org/2000/svg">
  <g transform="matrix(1.0, 0.0, 0.0, 1.0, 0.0, -0.5)">
    <path d="M6.6 2.6 L7.15 2.65 7.15 2.8 7.45 2.8 7.45 3.25 7.05 3.25 7.0 3.5 6.8 3.4 6.65 2.75 6.6 2.6 M6.15 7.1 L6.7 8.8 2.7 8.8 3.1 7.1 6.15 7.1 M2.4 3.4 L2.15 3.5 1.95 2.6 2.5 2.65 2.5 2.75 2.4 3.4 M1.7 3.3 L1.65 3.3 1.65 2.9 1.75 2.8 1.7 3.3" fill="#666666" fill-rule="evenodd" stroke="none"/>
    <path d="M7.15 2.65 L7.7 2.8 7.8 3.15 7.5 3.4 7.0 3.5 7.05 3.25 7.45 3.25 7.45 2.8 7.15 2.8 7.15 2.65 M2.15 3.5 L1.7 3.3 1.75 2.8 1.95 2.6 2.15 3.5" fill="#ffffff" fill-rule="evenodd" stroke="none"/>
    <path d="M3.35 0.6 L3.35 0.5 5.75 0.6 3.35 0.6" fill="#aeaeae" fill-rule="evenodd" stroke="none"/>
    <path d="M8.15 6.95 L6.15 7.1 3.1 7.1 1.1 6.95 1.8 6.4 Q4.55 6.75 7.5 6.45 L8.15 6.95" fill="#aeb6ca" fill-rule="evenodd" stroke="none"/>
    <path d="M6.8 3.4 L6.85 3.7 2.3 3.7 2.4 3.4 2.5 2.75 2.7 2.95 5.85 3.2 6.65 2.75 6.8 3.4 M7.55 3.8 L8.15 6.95 7.5 6.45 7.25 6.2 Q7.1 6.0 7.1 5.35 7.1 4.7 7.25 4.35 L7.55 3.8 M1.1 6.95 L1.7 3.7 Q2.1 5.7 1.8 6.4 L1.1 6.95" fill="#444f66" fill-rule="evenodd" stroke="none"/>
    <path d="M5.75 0.75 L5.95 0.75 5.95 2.05 6.6 2.05 6.6 2.6 6.65 2.75 5.85 3.2 6.35 2.6 4.9 2.4 2.55 2.65 2.7 2.95 2.5 2.75 2.5 2.65 2.5 2.1 3.1 2.1 3.1 0.75 3.35 0.75 3.35 1.8 5.75 1.8 5.75 0.75" fill="#7584a4" fill-rule="evenodd" stroke="none"/>
    <path d="M5.75 0.6 L5.75 0.75 5.75 1.8 3.35 1.8 3.35 0.75 3.35 0.6 5.75 0.6 M5.95 0.75 L6.45 0.75 6.6 2.05 5.95 2.05 5.95 0.75 M2.5 2.1 L2.5 0.75 3.1 0.75 3.1 2.1 2.5 2.1" fill="#a4adc1" fill-rule="evenodd" stroke="none"/>
    <path d="M2.7 2.95 L2.55 2.65 4.9 2.4 6.35 2.6 5.85 3.2 2.7 2.95" fill="#434d55" fill-rule="evenodd" stroke="none"/>
    <path d="M6.85 3.7 L7.55 3.8 7.25 4.35 Q7.1 4.7 7.1 5.35 7.1 6.0 7.25 6.2 L7.5 6.45 Q4.55 6.75 1.8 6.4 2.1 5.7 1.7 3.7 L2.3 3.7 6.85 3.7" fill="#5c6d96" fill-rule="evenodd" stroke="none"/>
    <path d="M0.0 8.65 L0.0 8.1 9.35 8.1 9.35 8.65 0.0 8.65" fill="url(#gradient0)" fill-rule="evenodd" stroke="none"/>
    <path d="M0.0 8.65 L9.35 8.65 9.15 8.9 0.2 8.9 0.0 8.65 M9.35 14.7 L9.15 14.95 0.2 14.95 0.0 14.7 9.35 14.7 M9.35 20.75 L9.15 21.0 0.2 21.0 0.0 20.75 9.35 20.75 M9.4 27.5 L9.15 27.75 0.2 27.75 0.05 27.5 9.4 27.5 M9.35 34.6 L9.35 34.85 0.0 34.85 0.0 34.6 9.35 34.6" fill="#5e5e5e" fill-rule="evenodd" stroke="none"/>
    <path d="M9.15 8.9 L9.15 14.15 0.2 14.15 0.2 8.9 9.15 8.9 M9.15 14.95 L9.15 20.2 0.2 20.2 0.2 14.95 9.15 14.95 M9.15 21.0 L9.15 26.9 0.2 26.9 0.2 21.0 9.15 21.0 M9.15 27.75 L9.15 34.05 0.2 34.05 0.2 27.75 9.15 27.75" fill="url(#gradient1)" fill-rule="evenodd" stroke="none"/>
    <path d="M9.15 14.15 L9.35 14.7 0.0 14.7 0.2 14.15 9.15 14.15" fill="url(#gradient2)" fill-rule="evenodd" stroke="none"/>
    <path d="M9.15 20.2 L9.35 20.75 0.0 20.75 0.2 20.2 9.15 20.2" fill="url(#gradient3)" fill-rule="evenodd" stroke="none"/>
    <path d="M9.15 26.9 L9.35 26.95 0.2 26.95 0.2 26.9 9.15 26.9" fill="url(#gradient4)" fill-rule="evenodd" stroke="none"/>
    <path d="M9.35 26.95 L9.4 27.5 0.05 27.5 0.05 26.95 0.2 26.95 9.35 26.95" fill="url(#gradient5)" fill-rule="evenodd" stroke="none"/>
    <path d="M9.15 34.05 L9.35 34.6 0.0 34.6 0.2 34.05 9.15 34.05" fill="url(#gradient6)" fill-rule="evenodd" stroke="none"/>
  </g>
  <defs>
    <linearGradient gradientTransform="matrix(0.0057, 0.0, 0.0, 3.0E-4, 4.65, 8.35)" gradientUnits="userSpaceOnUse" id="gradient0" spreadMethod="pad" x1="-819.2" x2="819.2">
      <stop offset="0.0196078431372549" stop-color="#ebebeb"/>
      <stop offset="0.5490196078431373" stop-color="#c2c2c2"/>
      <stop offset="0.9803921568627451" stop-color="#ebebeb"/>
    </linearGradient>
    <linearGradient gradientTransform="matrix(0.0036, 0.0, 0.0, 0.0158, 3.4, 21.3)" gradientUnits="userSpaceOnUse" id="gradient1" spreadMethod="pad" x1="-819.2" x2="819.2">
      <stop offset="0.0196078431372549" stop-color="#ebebeb"/>
      <stop offset="0.5490196078431373" stop-color="#c2c2c2"/>
      <stop offset="0.9803921568627451" stop-color="#ebebeb"/>
    </linearGradient>
    <linearGradient gradientTransform="matrix(0.0057, 0.0, 0.0, 3.0E-4, 4.65, 14.4)" gradientUnits="userSpaceOnUse" id="gradient2" spreadMethod="pad" x1="-819.2" x2="819.2">
      <stop offset="0.0196078431372549" stop-color="#ebebeb"/>
      <stop offset="0.5490196078431373" stop-color="#c2c2c2"/>
      <stop offset="0.9803921568627451" stop-color="#ebebeb"/>
    </linearGradient>
    <linearGradient gradientTransform="matrix(0.0057, 0.0, 0.0, 3.0E-4, 4.65, 20.45)" gradientUnits="userSpaceOnUse" id="gradient3" spreadMethod="pad" x1="-819.2" x2="819.2">
      <stop offset="0.0196078431372549" stop-color="#ebebeb"/>
      <stop offset="0.5490196078431373" stop-color="#c2c2c2"/>
      <stop offset="0.9803921568627451" stop-color="#ebebeb"/>
    </linearGradient>
    <linearGradient gradientTransform="matrix(0.0057, 0.0, 0.0, 3.0E-4, 4.65, 27.15)" gradientUnits="userSpaceOnUse" id="gradient4" spreadMethod="pad" x1="-819.2" x2="819.2">
      <stop offset="0.0196078431372549" stop-color="#ebebeb"/>
      <stop offset="0.5490196078431373" stop-color="#c2c2c2"/>
      <stop offset="0.9803921568627451" stop-color="#ebebeb"/>
    </linearGradient>
    <linearGradient gradientTransform="matrix(0.0057, 0.0, 0.0, 3.0E-4, 4.7, 27.2)" gradientUnits="userSpaceOnUse" id="gradient5" spreadMethod="pad" x1="-819.2" x2="819.2">
      <stop offset="0.0196078431372549" stop-color="#ebebeb"/>
      <stop offset="0.5490196078431373" stop-color="#c2c2c2"/>
      <stop offset="0.9803921568627451" stop-color="#ebebeb"/>
    </linearGradient>
    <linearGradient gradientTransform="matrix(0.0057, 0.0, 0.0, 3.0E-4, 4.65, 34.3)" gradientUnits="userSpaceOnUse" id="gradient6" spreadMethod="pad" x1="-819.2" x2="819.2">
      <stop offset="0.0196078431372549" stop-color="#ebebeb"/>
      <stop offset="0.5490196078431373" stop-color="#c2c2c2"/>
      <stop offset="0.9803921568627451" stop-color="#ebebeb"/>
    </linearGradient>
  </defs>
</svg>
