<?xml version="1.0" encoding="UTF-8" standalone="no"?>
<svg xmlns:ffdec="https://www.free-decompiler.com/flash" xmlns:xlink="http://www.w3.org/1999/xlink" ffdec:objectType="shape" height="8.5px" width="5.5px" xmlns="http://www.w3.org/2000/svg">
  <g transform="matrix(1.0, 0.0, 0.0, 1.0, 2.75, 4.3)">
    <path d="M1.3 -0.1 L1.45 -0.05 1.35 0.05 1.3 -0.1 M1.7 0.3 L1.75 0.95 1.45 0.95 1.4 0.8 1.5 0.45 1.7 0.3 M2.35 1.25 L2.55 1.4 2.35 1.35 2.35 1.25 M1.15 3.95 L-1.15 3.95 -1.15 3.8 -1.15 3.7 1.2 3.7 1.2 3.85 1.15 3.95 M-2.5 1.4 L-2.4 1.3 -2.4 1.35 -2.5 1.4 M-1.9 0.95 L-1.75 0.2 -1.35 -0.1 -1.45 0.95 -1.9 0.95" fill="#383838" fill-rule="evenodd" stroke="none"/>
    <path d="M-0.7 -4.15 L-0.3 -4.2 -0.3 -3.9 -0.7 -3.8 -0.7 -4.0 -0.7 -4.15 M-0.05 -4.2 L0.7 -4.05 0.7 -4.0 0.7 -3.95 0.55 -3.75 -0.05 -3.9 -0.05 -4.2" fill="#999999" fill-rule="evenodd" stroke="none"/>
    <path d="M1.2 1.7 L1.2 1.65 1.25 1.65 1.2 1.7" fill="url(#gradient0)" fill-rule="evenodd" stroke="none"/>
    <path d="M-0.3 -4.2 L-0.05 -4.2 -0.05 -3.9 -0.3 -3.9 -0.3 -4.2" fill="#dedede" fill-rule="evenodd" stroke="none"/>
    <path d="M-1.9 -2.45 L-1.9 -2.65 Q-1.25 -2.35 -0.7 -2.65 L-0.7 -2.45 Q-1.3 -2.25 -1.9 -2.45 M-1.9 -3.5 L-1.9 -3.7 Q-1.25 -3.35 -0.7 -3.7 L-0.7 -3.5 Q-1.3 -3.15 -1.9 -3.5 M-1.9 -4.0 L-1.85 -4.15 -0.85 -4.15 -0.7 -4.15 -0.7 -4.0 Q-1.3 -3.7 -1.9 -4.0 M-0.75 -2.2 L-0.8 -2.15 -0.9 -2.15 -0.75 -2.2" fill="url(#gradient1)" fill-rule="evenodd" stroke="none"/>
    <path d="M1.9 -4.15 L1.9 -4.0 Q1.3 -3.7 0.7 -4.0 L0.7 -4.05 0.75 -4.15 1.75 -4.15 1.9 -4.15 M1.9 -3.7 L1.9 -3.5 Q1.3 -3.15 0.7 -3.5 L0.7 -3.7 Q1.35 -3.35 1.9 -3.7 M1.9 -2.65 L1.9 -2.45 Q1.3 -2.25 0.7 -2.45 L0.7 -2.65 Q1.35 -2.35 1.9 -2.65" fill="url(#gradient2)" fill-rule="evenodd" stroke="none"/>
    <path d="M-2.7 3.85 L-2.7 3.6 -1.15 3.5 -1.15 3.7 -1.15 3.8 -2.7 3.85 M-2.7 3.2 L-2.7 2.95 -1.15 2.9 -1.15 3.15 -2.7 3.2 M-2.7 2.45 L-2.7 2.2 -1.35 2.25 -1.35 2.55 -2.7 2.45 M-2.7 1.8 L-2.65 1.65 Q-1.9 1.85 -1.35 1.65 L-1.35 1.85 -2.7 1.8 M-2.55 1.4 L-2.5 1.4 -2.4 1.35 -1.55 1.35 -1.35 1.4 -1.35 1.45 -2.55 1.4" fill="url(#gradient3)" fill-rule="evenodd" stroke="none"/>
    <path d="M2.55 1.4 L2.6 1.4 1.35 1.45 1.4 1.4 2.35 1.35 2.55 1.4 M2.75 1.55 L2.75 1.7 1.2 1.8 1.2 1.7 1.25 1.65 2.75 1.55 M2.75 2.1 L2.75 2.4 1.2 2.45 1.2 2.2 2.75 2.1 M2.75 2.85 L2.75 3.15 1.2 3.2 1.2 2.95 2.75 2.85 M2.75 3.5 L2.75 3.8 1.2 3.85 1.2 3.7 1.2 3.6 2.75 3.5" fill="url(#gradient4)" fill-rule="evenodd" stroke="none"/>
    <path d="M-1.1 1.2 L-1.15 1.05 0.95 1.05 0.9 1.25 -0.05 1.2 -1.05 1.25 -1.1 1.2" fill="url(#gradient5)" fill-rule="evenodd" stroke="none"/>
    <path d="M0.9 0.25 L1.2 0.15 1.05 0.65 1.3 0.65 Q1.2 0.15 1.5 0.45 L1.4 0.8 0.95 0.85 0.9 0.25" fill="url(#gradient6)" fill-rule="evenodd" stroke="none"/>
    <path d="M1.45 -0.05 Q1.75 -0.05 2.0 -0.35 L2.3 -0.55 1.7 0.3 1.5 0.45 Q1.2 0.15 1.3 0.65 L1.05 0.65 1.2 0.15 1.35 0.05 1.45 -0.05" fill="url(#gradient7)" fill-rule="evenodd" stroke="none"/>
    <path d="M1.9 -4.2 L1.9 -4.15 1.75 -4.15 1.9 -4.2 M1.9 -3.8 L1.9 -3.7 Q1.35 -3.35 0.7 -3.7 L0.7 -3.75 1.9 -3.8 M1.9 -3.25 L1.9 -3.15 0.7 -3.1 0.7 -3.2 1.9 -3.25 M1.9 -2.75 L1.9 -2.65 Q1.35 -2.35 0.7 -2.65 L0.7 -2.7 1.9 -2.75 M1.9 -2.3 L1.8 -2.2 1.65 -2.15 1.05 -2.1 0.7 -2.3 Q1.3 -2.1 1.9 -2.3 M2.75 1.5 L2.75 1.55 1.25 1.65 1.2 1.65 1.15 1.55 1.65 1.65 2.75 1.5 M2.75 2.0 L2.75 2.1 1.2 2.2 1.15 2.05 2.75 2.0 M2.75 2.7 L2.75 2.85 1.2 2.95 1.15 2.8 1.15 2.75 2.75 2.7 M2.75 3.4 L2.75 3.5 1.2 3.6 1.15 3.45 2.75 3.4 M2.75 4.0 L2.65 4.1 2.4 4.2 1.6 4.2 1.3 4.1 1.15 4.0 Q1.95 4.25 2.75 4.0 M-1.15 4.05 L-1.2 4.1 -1.5 4.2 -2.3 4.2 -2.6 4.1 -2.75 4.0 -1.65 4.1 -1.15 4.05 M-2.7 3.6 L-2.75 3.45 -1.15 3.4 -1.15 3.5 -2.7 3.6 M-2.7 2.95 L-2.75 2.75 -1.15 2.7 -1.15 2.9 -2.7 2.95 M-2.7 2.2 L-2.75 2.05 -1.15 2.0 -1.15 2.1 -1.35 2.25 -2.7 2.2 M-2.65 1.65 L-2.75 1.55 -1.15 1.5 -1.15 1.55 -1.35 1.65 Q-1.9 1.85 -2.65 1.65 M-1.15 -2.0 L-1.9 -2.3 -1.15 -2.15 -0.7 -2.3 -0.75 -2.2 -0.9 -2.15 -1.15 -2.0 M-1.9 -2.65 L-1.9 -2.7 -0.7 -2.75 -0.7 -2.65 Q-1.25 -2.35 -1.9 -2.65 M-1.9 -3.7 L-1.9 -3.75 -0.7 -3.8 -0.7 -3.7 Q-1.25 -3.35 -1.9 -3.7 M-1.85 -4.15 L-1.9 -4.2 -1.85 -4.15 M-0.7 -4.2 L-0.7 -4.15 -0.85 -4.15 -0.7 -4.2 M0.75 -4.15 L0.7 -4.2 0.75 -4.15" fill="#333333" fill-rule="evenodd" stroke="none"/>
    <path d="M0.7 -4.2 L0.85 -4.3 1.8 -4.3 1.9 -4.2 1.75 -4.15 0.75 -4.15 0.7 -4.2" fill="url(#gradient8)" fill-rule="evenodd" stroke="none"/>
    <path d="M1.9 -3.5 L1.9 -3.25 0.7 -3.2 0.7 -3.5 Q1.3 -3.15 1.9 -3.5" fill="url(#gradient9)" fill-rule="evenodd" stroke="none"/>
    <path d="M1.9 -4.0 L1.9 -3.8 0.7 -3.75 0.7 -3.95 0.7 -4.0 Q1.3 -3.7 1.9 -4.0" fill="url(#gradient10)" fill-rule="evenodd" stroke="none"/>
    <path d="M1.9 -2.95 L1.9 -2.75 0.7 -2.7 0.7 -2.95 Q1.3 -2.65 1.9 -2.95" fill="url(#gradient11)" fill-rule="evenodd" stroke="none"/>
    <path d="M1.9 -2.45 L1.9 -2.3 Q1.3 -2.1 0.7 -2.3 L0.7 -2.45 Q1.3 -2.25 1.9 -2.45" fill="url(#gradient12)" fill-rule="evenodd" stroke="none"/>
    <path d="M-1.9 -4.2 L-1.75 -4.3 -0.8 -4.3 -0.7 -4.2 -0.85 -4.15 -1.85 -4.15 -1.9 -4.2" fill="url(#gradient13)" fill-rule="evenodd" stroke="none"/>
    <path d="M-1.9 -3.2 L-1.9 -3.5 Q-1.3 -3.15 -0.7 -3.5 L-0.7 -3.25 -1.9 -3.2" fill="url(#gradient14)" fill-rule="evenodd" stroke="none"/>
    <path d="M-1.9 -3.75 L-1.9 -4.0 Q-1.3 -3.7 -0.7 -4.0 L-0.7 -3.8 -1.9 -3.75" fill="url(#gradient15)" fill-rule="evenodd" stroke="none"/>
    <path d="M-1.9 -2.3 L-1.9 -2.45 Q-1.3 -2.25 -0.7 -2.45 L-0.7 -2.3 -1.15 -2.15 -1.9 -2.3" fill="url(#gradient16)" fill-rule="evenodd" stroke="none"/>
    <path d="M-1.9 -2.7 L-1.9 -2.95 Q-1.3 -2.65 -0.7 -2.95 L-0.7 -2.75 -1.9 -2.7" fill="url(#gradient17)" fill-rule="evenodd" stroke="none"/>
    <path d="M-2.75 1.55 L-2.55 1.4 -1.35 1.45 -1.15 1.5 -2.75 1.55" fill="url(#gradient18)" fill-rule="evenodd" stroke="none"/>
    <path d="M-2.75 2.05 L-2.7 1.8 -1.35 1.85 -1.15 1.7 -1.15 2.0 -2.75 2.05" fill="url(#gradient19)" fill-rule="evenodd" stroke="none"/>
    <path d="M-2.75 2.75 L-2.7 2.45 -1.35 2.55 -1.15 2.4 -1.15 2.55 -1.15 2.7 -2.75 2.75" fill="url(#gradient20)" fill-rule="evenodd" stroke="none"/>
    <path d="M-1.15 3.95 L-1.15 4.0 -1.15 4.05 -1.65 4.1 -2.75 4.0 -2.7 3.85 -1.15 3.8 -1.15 3.95" fill="url(#gradient21)" fill-rule="evenodd" stroke="none"/>
    <path d="M-2.75 3.45 L-2.7 3.2 -1.15 3.15 -1.15 3.4 -2.75 3.45" fill="url(#gradient22)" fill-rule="evenodd" stroke="none"/>
    <path d="M2.75 1.7 L2.75 2.0 1.15 2.05 1.2 1.8 2.75 1.7" fill="url(#gradient23)" fill-rule="evenodd" stroke="none"/>
    <path d="M2.6 1.4 L2.75 1.5 1.65 1.65 1.15 1.55 1.2 1.4 1.35 1.45 2.6 1.4" fill="url(#gradient24)" fill-rule="evenodd" stroke="none"/>
    <path d="M2.75 2.4 L2.75 2.7 1.15 2.75 1.2 2.45 2.75 2.4" fill="url(#gradient25)" fill-rule="evenodd" stroke="none"/>
    <path d="M2.75 3.8 L2.75 4.0 Q1.95 4.25 1.15 4.0 L1.15 3.95 1.2 3.85 2.75 3.8" fill="url(#gradient26)" fill-rule="evenodd" stroke="none"/>
    <path d="M2.75 3.15 L2.75 3.4 1.15 3.45 1.2 3.2 2.75 3.15" fill="url(#gradient27)" fill-rule="evenodd" stroke="none"/>
    <path d="M1.9 -3.15 L1.9 -2.95 Q1.3 -2.65 0.7 -2.95 L0.7 -3.1 1.9 -3.15 M-1.9 -2.95 L-1.9 -3.2 -0.7 -3.25 -0.7 -2.95 Q-1.3 -2.65 -1.9 -2.95" fill="#767676" fill-rule="evenodd" stroke="none"/>
    <path d="M1.05 -2.1 L1.3 -0.1 1.35 0.05 1.2 0.15 0.9 0.25 0.55 -3.75 0.7 -3.95 0.7 -3.75 0.7 -3.7 0.7 -3.5 0.7 -3.2 0.7 -3.1 0.7 -2.95 0.7 -2.7 0.7 -2.65 0.7 -2.45 0.7 -2.3 1.05 -2.1 M-1.35 -0.1 L-1.15 -2.0 -0.9 -2.15 -0.8 -2.15 -1.0 0.95 -1.25 1.05 -1.3 1.15 -1.5 1.15 -1.45 0.95 -1.35 -0.1" fill="url(#gradient28)" fill-rule="evenodd" stroke="none"/>
    <path d="M-2.4 1.3 L-1.9 0.95 -1.45 0.95 -1.5 1.15 -1.55 1.35 -2.4 1.35 -2.4 1.3" fill="url(#gradient29)" fill-rule="evenodd" stroke="none"/>
    <path d="M0.55 -3.75 L0.9 0.25 0.95 0.85 0.95 1.0 -1.0 0.95 -0.8 -2.15 -0.75 -2.2 -0.7 -2.3 -0.7 -2.45 -0.7 -2.65 -0.7 -2.75 -0.7 -2.95 -0.7 -3.25 -0.7 -3.5 -0.7 -3.7 -0.7 -3.8 -0.3 -3.9 -0.05 -3.9 0.55 -3.75" fill="url(#gradient30)" fill-rule="evenodd" stroke="none"/>
    <path d="M-1.05 1.25 L-0.05 1.2 0.9 1.25 Q1.15 1.85 0.95 2.75 L-0.15 2.75 -1.15 2.55 -1.15 2.4 -1.15 2.1 -1.15 2.0 -1.15 1.7 -1.15 1.55 -1.15 1.5 -1.05 1.25" fill="url(#gradient31)" fill-rule="evenodd" stroke="none"/>
    <path d="M1.4 1.4 L1.35 1.45 1.2 1.4 1.2 1.15 1.4 1.25 1.4 1.4 M1.1 2.85 L1.15 2.8 1.2 2.95 1.2 3.2 1.15 3.45 1.2 3.6 1.2 3.7 -1.15 3.7 -1.15 3.5 -1.15 3.4 -1.15 3.15 -1.15 2.9 1.1 2.85 M0.0 3.1 Q-1.0 3.2 -1.0 3.4 1.0 3.4 1.0 3.05 L0.0 3.1 M-1.35 1.4 L-1.55 1.35 -1.5 1.15 -1.3 1.15 -1.35 1.4" fill="url(#gradient32)" fill-rule="evenodd" stroke="none"/>
    <path d="M0.0 3.1 L1.0 3.05 Q1.0 3.4 -1.0 3.4 -1.0 3.2 0.0 3.1" fill="url(#gradient33)" fill-rule="evenodd" stroke="none"/>
    <path d="M1.2 1.15 L1.2 1.4 1.15 1.55 1.2 1.65 1.2 1.7 1.2 1.8 1.15 2.05 1.2 2.2 1.2 2.45 1.15 2.75 1.15 2.8 1.1 2.85 0.95 2.75 Q1.15 1.85 0.9 1.25 L0.95 1.05 -1.15 1.05 -1.1 1.2 -1.25 1.05 -1.0 0.95 0.95 1.0 1.2 1.15" fill="url(#gradient34)" fill-rule="evenodd" stroke="none"/>
    <path d="M0.95 2.75 L1.1 2.85 -1.15 2.9 -1.15 2.7 -1.15 2.55 -0.15 2.75 0.95 2.75" fill="url(#gradient35)" fill-rule="evenodd" stroke="none"/>
    <path d="M-1.35 2.55 L-1.35 2.25 -1.15 2.1 -1.15 2.4 -1.35 2.55" fill="url(#gradient36)" fill-rule="evenodd" stroke="none"/>
    <path d="M-1.35 1.85 L-1.35 1.65 -1.15 1.55 -1.15 1.7 -1.35 1.85" fill="url(#gradient37)" fill-rule="evenodd" stroke="none"/>
    <path d="M-1.1 1.2 L-1.05 1.25 -1.15 1.5 -1.35 1.45 -1.35 1.4 -1.3 1.15 -1.25 1.05 -1.1 1.2" fill="url(#gradient38)" fill-rule="evenodd" stroke="none"/>
    <path d="M1.75 0.95 L2.35 1.25 2.35 1.35 1.4 1.4 1.4 1.25 1.45 0.95 1.75 0.95" fill="url(#gradient39)" fill-rule="evenodd" stroke="none"/>
    <path d="M1.4 0.8 L1.45 0.95 1.4 1.25 1.2 1.15 0.95 1.0 0.95 0.85 1.4 0.8" fill="url(#gradient40)" fill-rule="evenodd" stroke="none"/>
  </g>
  <defs>
    <linearGradient gradientTransform="matrix(0.0014, 0.0025, -0.0013, 8.0E-4, 0.5, 2.8)" gradientUnits="userSpaceOnUse" id="gradient0" spreadMethod="pad" x1="-819.2" x2="819.2">
      <stop offset="0.023529411764705882" stop-color="#612523"/>
      <stop offset="0.4549019607843137" stop-color="#c75653"/>
      <stop offset="1.0" stop-color="#f2eeed"/>
    </linearGradient>
    <radialGradient cx="0" cy="0" gradientTransform="matrix(0.0014, 0.0, 0.0, 0.0014, -1.3, -3.25)" gradientUnits="userSpaceOnUse" id="gradient1" r="819.2" spreadMethod="pad">
      <stop offset="0.0" stop-color="#a1a1a1"/>
      <stop offset="1.0" stop-color="#404040"/>
    </radialGradient>
    <radialGradient cx="0" cy="0" gradientTransform="matrix(0.0014, 0.0, 0.0, 0.0014, 1.3, -3.25)" gradientUnits="userSpaceOnUse" id="gradient2" r="819.2" spreadMethod="pad">
      <stop offset="0.0" stop-color="#a1a1a1"/>
      <stop offset="1.0" stop-color="#404040"/>
    </radialGradient>
    <radialGradient cx="0" cy="0" gradientTransform="matrix(0.0018, 0.0, 0.0, 0.0018, -1.95, 2.75)" gradientUnits="userSpaceOnUse" id="gradient3" r="819.2" spreadMethod="pad">
      <stop offset="0.0" stop-color="#a1a1a1"/>
      <stop offset="1.0" stop-color="#404040"/>
    </radialGradient>
    <radialGradient cx="0" cy="0" gradientTransform="matrix(0.0018, 0.0, 0.0, 0.0018, 1.95, 2.75)" gradientUnits="userSpaceOnUse" id="gradient4" r="819.2" spreadMethod="pad">
      <stop offset="0.0" stop-color="#a1a1a1"/>
      <stop offset="1.0" stop-color="#404040"/>
    </radialGradient>
    <linearGradient gradientTransform="matrix(7.0E-4, 7.0E-4, -0.3797, 0.3797, -102.95, 104.9)" gradientUnits="userSpaceOnUse" id="gradient5" spreadMethod="pad" x1="-819.2" x2="819.2">
      <stop offset="0.023529411764705882" stop-color="#616161"/>
      <stop offset="0.4549019607843137" stop-color="#c7c7c7"/>
      <stop offset="1.0" stop-color="#f2f2f2"/>
    </linearGradient>
    <linearGradient gradientTransform="matrix(5.0E-4, 0.0, 0.0, 5.0E-4, 1.15, 0.5)" gradientUnits="userSpaceOnUse" id="gradient6" spreadMethod="pad" x1="-819.2" x2="819.2">
      <stop offset="0.023529411764705882" stop-color="#616161"/>
      <stop offset="0.4549019607843137" stop-color="#c7c7c7"/>
      <stop offset="1.0" stop-color="#f2f2f2"/>
    </linearGradient>
    <linearGradient gradientTransform="matrix(2.0E-4, 4.0E-4, -4.0E-4, 2.0E-4, 1.3, 0.55)" gradientUnits="userSpaceOnUse" id="gradient7" spreadMethod="pad" x1="-819.2" x2="819.2">
      <stop offset="0.023529411764705882" stop-color="#3b3b3b"/>
      <stop offset="0.8549019607843137" stop-color="#c7c7c7"/>
    </linearGradient>
    <radialGradient cx="0" cy="0" gradientTransform="matrix(0.0015, 0.0, 0.0, 8.0E-4, 1.0, -4.15)" gradientUnits="userSpaceOnUse" id="gradient8" r="819.2" spreadMethod="pad">
      <stop offset="0.0" stop-color="#a1a1a1"/>
      <stop offset="1.0" stop-color="#404040"/>
    </radialGradient>
    <radialGradient cx="0" cy="0" gradientTransform="matrix(0.0015, 0.0, 0.0, 0.0015, 1.0, -3.15)" gradientUnits="userSpaceOnUse" id="gradient9" r="819.2" spreadMethod="pad">
      <stop offset="0.0" stop-color="#a1a1a1"/>
      <stop offset="1.0" stop-color="#404040"/>
    </radialGradient>
    <radialGradient cx="0" cy="0" gradientTransform="matrix(0.0015, 0.0, 0.0, 0.0013, 1.0, -3.7)" gradientUnits="userSpaceOnUse" id="gradient10" r="819.2" spreadMethod="pad">
      <stop offset="0.0" stop-color="#a1a1a1"/>
      <stop offset="1.0" stop-color="#404040"/>
    </radialGradient>
    <radialGradient cx="0" cy="0" gradientTransform="matrix(0.0015, 0.0, 0.0, 0.0012, 1.0, -2.7)" gradientUnits="userSpaceOnUse" id="gradient11" r="819.2" spreadMethod="pad">
      <stop offset="0.0" stop-color="#a1a1a1"/>
      <stop offset="1.0" stop-color="#404040"/>
    </radialGradient>
    <radialGradient cx="0" cy="0" gradientTransform="matrix(0.0015, 0.0, 0.0, 9.0E-4, 1.0, -2.25)" gradientUnits="userSpaceOnUse" id="gradient12" r="819.2" spreadMethod="pad">
      <stop offset="0.0" stop-color="#a1a1a1"/>
      <stop offset="1.0" stop-color="#404040"/>
    </radialGradient>
    <radialGradient cx="0" cy="0" gradientTransform="matrix(0.0015, 0.0, 0.0, 8.0E-4, -1.6, -4.15)" gradientUnits="userSpaceOnUse" id="gradient13" r="819.2" spreadMethod="pad">
      <stop offset="0.0" stop-color="#a1a1a1"/>
      <stop offset="1.0" stop-color="#404040"/>
    </radialGradient>
    <radialGradient cx="0" cy="0" gradientTransform="matrix(0.0015, 0.0, 0.0, 0.0015, -1.6, -3.15)" gradientUnits="userSpaceOnUse" id="gradient14" r="819.2" spreadMethod="pad">
      <stop offset="0.0" stop-color="#a1a1a1"/>
      <stop offset="1.0" stop-color="#404040"/>
    </radialGradient>
    <radialGradient cx="0" cy="0" gradientTransform="matrix(0.0015, 0.0, 0.0, 0.0013, -1.6, -3.7)" gradientUnits="userSpaceOnUse" id="gradient15" r="819.2" spreadMethod="pad">
      <stop offset="0.0" stop-color="#a1a1a1"/>
      <stop offset="1.0" stop-color="#404040"/>
    </radialGradient>
    <radialGradient cx="0" cy="0" gradientTransform="matrix(0.0015, 0.0, 0.0, 9.0E-4, -1.6, -2.25)" gradientUnits="userSpaceOnUse" id="gradient16" r="819.2" spreadMethod="pad">
      <stop offset="0.0" stop-color="#a1a1a1"/>
      <stop offset="1.0" stop-color="#404040"/>
    </radialGradient>
    <radialGradient cx="0" cy="0" gradientTransform="matrix(0.0015, 0.0, 0.0, 0.0012, -1.6, -2.7)" gradientUnits="userSpaceOnUse" id="gradient17" r="819.2" spreadMethod="pad">
      <stop offset="0.0" stop-color="#a1a1a1"/>
      <stop offset="1.0" stop-color="#404040"/>
    </radialGradient>
    <radialGradient cx="0" cy="0" gradientTransform="matrix(0.002, 0.0, 0.0, 0.001, -2.35, 1.55)" gradientUnits="userSpaceOnUse" id="gradient18" r="819.2" spreadMethod="pad">
      <stop offset="0.0" stop-color="#a1a1a1"/>
      <stop offset="1.0" stop-color="#404040"/>
    </radialGradient>
    <radialGradient cx="0" cy="0" gradientTransform="matrix(0.002, 0.0, 0.0, 0.0017, -2.35, 2.1)" gradientUnits="userSpaceOnUse" id="gradient19" r="819.2" spreadMethod="pad">
      <stop offset="0.0" stop-color="#a1a1a1"/>
      <stop offset="1.0" stop-color="#404040"/>
    </radialGradient>
    <radialGradient cx="0" cy="0" gradientTransform="matrix(0.002, 0.0, 0.0, 0.002, -2.35, 2.8)" gradientUnits="userSpaceOnUse" id="gradient20" r="819.2" spreadMethod="pad">
      <stop offset="0.0" stop-color="#a1a1a1"/>
      <stop offset="1.0" stop-color="#404040"/>
    </radialGradient>
    <radialGradient cx="0" cy="0" gradientTransform="matrix(0.002, 0.0, 0.0, 0.0011, -2.35, 4.05)" gradientUnits="userSpaceOnUse" id="gradient21" r="819.2" spreadMethod="pad">
      <stop offset="0.0" stop-color="#a1a1a1"/>
      <stop offset="1.0" stop-color="#404040"/>
    </radialGradient>
    <radialGradient cx="0" cy="0" gradientTransform="matrix(0.002, 0.0, 0.0, 0.0016, -2.35, 3.5)" gradientUnits="userSpaceOnUse" id="gradient22" r="819.2" spreadMethod="pad">
      <stop offset="0.0" stop-color="#a1a1a1"/>
      <stop offset="1.0" stop-color="#404040"/>
    </radialGradient>
    <radialGradient cx="0" cy="0" gradientTransform="matrix(0.002, 0.0, 0.0, 0.0017, 1.55, 2.1)" gradientUnits="userSpaceOnUse" id="gradient23" r="819.2" spreadMethod="pad">
      <stop offset="0.0" stop-color="#a1a1a1"/>
      <stop offset="1.0" stop-color="#404040"/>
    </radialGradient>
    <radialGradient cx="0" cy="0" gradientTransform="matrix(0.002, 0.0, 0.0, 0.001, 1.55, 1.55)" gradientUnits="userSpaceOnUse" id="gradient24" r="819.2" spreadMethod="pad">
      <stop offset="0.0" stop-color="#a1a1a1"/>
      <stop offset="1.0" stop-color="#404040"/>
    </radialGradient>
    <radialGradient cx="0" cy="0" gradientTransform="matrix(0.002, 0.0, 0.0, 0.002, 1.55, 2.8)" gradientUnits="userSpaceOnUse" id="gradient25" r="819.2" spreadMethod="pad">
      <stop offset="0.0" stop-color="#a1a1a1"/>
      <stop offset="1.0" stop-color="#404040"/>
    </radialGradient>
    <radialGradient cx="0" cy="0" gradientTransform="matrix(0.002, 0.0, 0.0, 0.0011, 1.55, 4.05)" gradientUnits="userSpaceOnUse" id="gradient26" r="819.2" spreadMethod="pad">
      <stop offset="0.0" stop-color="#a1a1a1"/>
      <stop offset="1.0" stop-color="#404040"/>
    </radialGradient>
    <radialGradient cx="0" cy="0" gradientTransform="matrix(0.002, 0.0, 0.0, 0.0016, 1.55, 3.5)" gradientUnits="userSpaceOnUse" id="gradient27" r="819.2" spreadMethod="pad">
      <stop offset="0.0" stop-color="#a1a1a1"/>
      <stop offset="1.0" stop-color="#404040"/>
    </radialGradient>
    <linearGradient gradientTransform="matrix(0.0, 0.0018, -0.0033, 0.0, -0.05, -1.5)" gradientUnits="userSpaceOnUse" id="gradient28" spreadMethod="pad" x1="-819.2" x2="819.2">
      <stop offset="0.0196078431372549" stop-color="#5184ab"/>
      <stop offset="1.0" stop-color="#19294d"/>
    </linearGradient>
    <linearGradient gradientTransform="matrix(0.0016, 0.0016, -0.3797, 0.3797, -103.85, 105.4)" gradientUnits="userSpaceOnUse" id="gradient29" spreadMethod="pad" x1="-819.2" x2="819.2">
      <stop offset="0.0196078431372549" stop-color="#5184ab"/>
      <stop offset="1.0" stop-color="#19294d"/>
    </linearGradient>
    <linearGradient gradientTransform="matrix(0.0, -0.0026, 0.0032, 0.0, -0.15, -1.95)" gradientUnits="userSpaceOnUse" id="gradient30" spreadMethod="pad" x1="-819.2" x2="819.2">
      <stop offset="0.0" stop-color="#19294d"/>
      <stop offset="1.0" stop-color="#5184ab"/>
    </linearGradient>
    <linearGradient gradientTransform="matrix(0.0013, 0.0, 0.0, 0.001, -0.1, 2.0)" gradientUnits="userSpaceOnUse" id="gradient31" spreadMethod="pad" x1="-819.2" x2="819.2">
      <stop offset="0.0" stop-color="#19294d"/>
      <stop offset="1.0" stop-color="#5184ab"/>
    </linearGradient>
    <linearGradient gradientTransform="matrix(0.0014, 0.0025, -0.0013, 8.0E-4, 0.5, 2.8)" gradientUnits="userSpaceOnUse" id="gradient32" spreadMethod="pad" x1="-819.2" x2="819.2">
      <stop offset="0.0" stop-color="#19294d"/>
      <stop offset="1.0" stop-color="#5184ab"/>
    </linearGradient>
    <linearGradient gradientTransform="matrix(0.0012, 0.0, 0.0, 2.0E-4, 0.0, 3.25)" gradientUnits="userSpaceOnUse" id="gradient33" spreadMethod="pad" x1="-819.2" x2="819.2">
      <stop offset="0.0" stop-color="#19294d"/>
      <stop offset="1.0" stop-color="#5184ab"/>
    </linearGradient>
    <linearGradient gradientTransform="matrix(9.0E-4, -0.0013, 0.001, 7.0E-4, -0.05, 1.95)" gradientUnits="userSpaceOnUse" id="gradient34" spreadMethod="pad" x1="-819.2" x2="819.2">
      <stop offset="0.0" stop-color="#19294d"/>
      <stop offset="1.0" stop-color="#5184ab"/>
    </linearGradient>
    <linearGradient gradientTransform="matrix(0.0014, 0.0, 0.0, 2.0E-4, -0.05, 2.7)" gradientUnits="userSpaceOnUse" id="gradient35" spreadMethod="pad" x1="-819.2" x2="819.2">
      <stop offset="0.0" stop-color="#19294d"/>
      <stop offset="1.0" stop-color="#5184ab"/>
    </linearGradient>
    <linearGradient gradientTransform="matrix(1.0E-4, 0.0, 0.0, 3.0E-4, -1.25, 2.3)" gradientUnits="userSpaceOnUse" id="gradient36" spreadMethod="pad" x1="-819.2" x2="819.2">
      <stop offset="0.0" stop-color="#19294d"/>
      <stop offset="1.0" stop-color="#5184ab"/>
    </linearGradient>
    <linearGradient gradientTransform="matrix(1.0E-4, 0.0, 0.0, 2.0E-4, -1.25, 1.7)" gradientUnits="userSpaceOnUse" id="gradient37" spreadMethod="pad" x1="-819.2" x2="819.2">
      <stop offset="0.0" stop-color="#19294d"/>
      <stop offset="1.0" stop-color="#5184ab"/>
    </linearGradient>
    <linearGradient gradientTransform="matrix(2.0E-4, 0.0, 0.0, 3.0E-4, -1.2, 1.25)" gradientUnits="userSpaceOnUse" id="gradient38" spreadMethod="pad" x1="-819.2" x2="819.2">
      <stop offset="0.0" stop-color="#19294d"/>
      <stop offset="1.0" stop-color="#5184ab"/>
    </linearGradient>
    <linearGradient gradientTransform="matrix(6.0E-4, 0.001, -0.465, 0.2685, -122.95, 74.15)" gradientUnits="userSpaceOnUse" id="gradient39" spreadMethod="pad" x1="-819.2" x2="819.2">
      <stop offset="0.0" stop-color="#19294d"/>
      <stop offset="1.0" stop-color="#5184ab"/>
    </linearGradient>
    <linearGradient gradientTransform="matrix(0.0, 0.0018, -0.0033, 0.0, -0.05, -1.5)" gradientUnits="userSpaceOnUse" id="gradient40" spreadMethod="pad" x1="-819.2" x2="819.2">
      <stop offset="0.0" stop-color="#19294d"/>
      <stop offset="1.0" stop-color="#5184ab"/>
    </linearGradient>
  </defs>
</svg>
