<?xml version="1.0" encoding="UTF-8" standalone="no"?>
<svg xmlns:ffdec="https://www.free-decompiler.com/flash" xmlns:xlink="http://www.w3.org/1999/xlink" ffdec:objectType="shape" height="83.3px" width="113.65px" xmlns="http://www.w3.org/2000/svg">
  <g transform="matrix(1.0, 0.0, 0.0, 1.0, -308.0, -94.55)">
    <path d="M415.7 95.75 L420.65 107.35 419.95 107.65 415.0 96.05 415.7 95.75" fill="url(#gradient0)" fill-rule="evenodd" stroke="none"/>
    <path d="M419.7 108.25 L418.85 106.3 420.8 105.45 421.65 107.4 419.7 108.25" fill="url(#gradient1)" fill-rule="evenodd" stroke="none"/>
    <path d="M417.0 96.55 L415.05 97.4 414.2 95.4 416.15 94.55 417.0 96.55" fill="url(#gradient2)" fill-rule="evenodd" stroke="none"/>
    <path d="M323.75 177.85 L308.35 143.75 308.6 143.6 324.0 177.7 323.75 177.85" fill="url(#gradient3)" fill-rule="evenodd" stroke="none"/>
    <path d="M317.55 164.65 L317.25 163.9 318.0 163.55 318.3 164.3 317.55 164.65" fill="url(#gradient4)" fill-rule="evenodd" stroke="none"/>
    <path d="M319.95 167.95 L320.3 168.7 319.55 169.05 319.2 168.3 319.95 167.95" fill="url(#gradient5)" fill-rule="evenodd" stroke="none"/>
    <path d="M322.4 173.4 L321.65 173.75 321.35 173.0 322.1 172.65 322.4 173.4" fill="url(#gradient6)" fill-rule="evenodd" stroke="none"/>
    <path d="M311.7 151.7 L312.45 151.35 312.75 152.05 312.0 152.4 311.7 151.7" fill="url(#gradient7)" fill-rule="evenodd" stroke="none"/>
    <path d="M309.8 147.5 L310.55 147.15 310.9 147.9 310.15 148.25 309.8 147.5" fill="url(#gradient8)" fill-rule="evenodd" stroke="none"/>
    <path d="M314.45 155.95 L313.75 156.25 313.45 155.55 314.15 155.25 314.45 155.95" fill="url(#gradient9)" fill-rule="evenodd" stroke="none"/>
    <path d="M316.35 159.95 Q316.0 160.15 315.6 160.3 L315.25 159.55 316.0 159.2 316.35 159.95" fill="url(#gradient10)" fill-rule="evenodd" stroke="none"/>
    <path d="M308.3 144.25 L308.0 143.5 308.75 143.15 309.05 143.9 308.3 144.25" fill="url(#gradient11)" fill-rule="evenodd" stroke="none"/>
    <path d="M334.65 131.75 L368.75 116.35 368.9 116.6 334.8 132.0 334.65 131.75" fill="url(#gradient12)" fill-rule="evenodd" stroke="none"/>
    <path d="M348.6 125.25 L348.95 126.0 348.2 126.3 347.85 125.55 348.6 125.25" fill="url(#gradient13)" fill-rule="evenodd" stroke="none"/>
    <path d="M344.55 127.95 L343.8 128.3 343.45 127.55 344.2 127.2 344.55 127.95" fill="url(#gradient14)" fill-rule="evenodd" stroke="none"/>
    <path d="M338.75 129.65 L339.5 129.35 339.85 130.1 339.1 130.4 338.75 129.65" fill="url(#gradient15)" fill-rule="evenodd" stroke="none"/>
    <path d="M361.15 120.45 L360.45 120.75 360.1 120.0 360.8 119.7 361.15 120.45" fill="url(#gradient16)" fill-rule="evenodd" stroke="none"/>
    <path d="M365.35 118.55 L364.6 118.9 364.25 118.15 Q364.6 118.0 365.0 117.8 L365.35 118.55" fill="url(#gradient17)" fill-rule="evenodd" stroke="none"/>
    <path d="M356.55 122.45 L356.25 121.75 356.95 121.45 357.25 122.15 356.55 122.45" fill="url(#gradient18)" fill-rule="evenodd" stroke="none"/>
    <path d="M352.55 124.35 L352.2 123.6 352.95 123.25 353.3 124.0 352.55 124.35" fill="url(#gradient19)" fill-rule="evenodd" stroke="none"/>
    <path d="M368.25 116.3 L369.0 116.0 369.35 116.75 368.6 117.05 368.25 116.3" fill="url(#gradient20)" fill-rule="evenodd" stroke="none"/>
    <path d="M367.65 116.75 L401.75 101.35 401.9 101.6 367.8 117.0 367.65 116.75" fill="url(#gradient21)" fill-rule="evenodd" stroke="none"/>
    <path d="M381.95 111.0 L381.2 111.3 380.85 110.55 381.6 110.25 381.95 111.0" fill="url(#gradient22)" fill-rule="evenodd" stroke="none"/>
    <path d="M376.8 113.3 L376.45 112.55 377.2 112.2 377.55 112.95 Q377.15 113.15 376.8 113.3" fill="url(#gradient23)" fill-rule="evenodd" stroke="none"/>
    <path d="M371.75 114.65 L372.5 114.35 372.85 115.1 372.1 115.4 371.75 114.65" fill="url(#gradient24)" fill-rule="evenodd" stroke="none"/>
    <path d="M393.45 105.75 L393.1 105.0 393.8 104.7 394.15 105.45 393.45 105.75" fill="url(#gradient25)" fill-rule="evenodd" stroke="none"/>
    <path d="M397.6 103.9 L397.25 103.15 398.0 102.8 398.35 103.55 397.6 103.9" fill="url(#gradient26)" fill-rule="evenodd" stroke="none"/>
    <path d="M389.55 107.45 L389.25 106.75 389.95 106.45 390.25 107.15 389.55 107.45" fill="url(#gradient27)" fill-rule="evenodd" stroke="none"/>
    <path d="M385.55 109.35 L385.2 108.6 385.95 108.25 386.3 109.0 385.55 109.35" fill="url(#gradient28)" fill-rule="evenodd" stroke="none"/>
    <path d="M401.25 101.3 L402.0 101.0 402.35 101.75 401.6 102.05 401.25 101.3" fill="url(#gradient29)" fill-rule="evenodd" stroke="none"/>
    <path d="M414.75 96.4 L403.0 101.0 402.75 100.3 414.45 95.65 414.75 96.4" fill="url(#gradient30)" fill-rule="evenodd" stroke="none"/>
    <path d="M402.15 100.05 L404.15 99.25 404.9 101.25 402.95 102.0 402.15 100.05" fill="url(#gradient31)" fill-rule="evenodd" stroke="none"/>
    <path d="M413.9 97.65 L413.1 95.7 415.15 94.9 415.9 96.85 413.9 97.65" fill="url(#gradient32)" fill-rule="evenodd" stroke="none"/>
  </g>
  <defs>
    <radialGradient cx="0" cy="0" gradientTransform="matrix(0.0242, 0.0565, -0.0565, 0.0242, 435.1, 142.1)" gradientUnits="userSpaceOnUse" id="gradient0" r="819.2" spreadMethod="pad">
      <stop offset="0.0196078431372549" stop-color="#ffffff"/>
      <stop offset="0.9882352941176471" stop-color="#ddd9d2"/>
    </radialGradient>
    <radialGradient cx="0" cy="0" gradientTransform="matrix(7.0E-4, 0.0017, -0.0017, 7.0E-4, 420.25, 106.9)" gradientUnits="userSpaceOnUse" id="gradient1" r="819.2" spreadMethod="pad">
      <stop offset="0.0196078431372549" stop-color="#ffffff"/>
      <stop offset="0.9882352941176471" stop-color="#ddd9d2"/>
    </radialGradient>
    <radialGradient cx="0" cy="0" gradientTransform="matrix(7.0E-4, 0.0017, -0.0017, 7.0E-4, 415.55, 96.0)" gradientUnits="userSpaceOnUse" id="gradient2" r="819.2" spreadMethod="pad">
      <stop offset="0.0196078431372549" stop-color="#ffffff"/>
      <stop offset="0.9882352941176471" stop-color="#ddd9d2"/>
    </radialGradient>
    <radialGradient cx="0" cy="0" gradientTransform="matrix(0.0094, 0.0208, -0.0208, 0.0094, 316.2, 160.7)" gradientUnits="userSpaceOnUse" id="gradient3" r="819.2" spreadMethod="pad">
      <stop offset="0.0196078431372549" stop-color="#ffffff"/>
      <stop offset="0.9882352941176471" stop-color="#ddd9d2"/>
    </radialGradient>
    <radialGradient cx="0" cy="0" gradientTransform="matrix(3.0E-4, 6.0E-4, -6.0E-4, 3.0E-4, 317.8, 164.15)" gradientUnits="userSpaceOnUse" id="gradient4" r="819.2" spreadMethod="pad">
      <stop offset="0.0196078431372549" stop-color="#ffffff"/>
      <stop offset="0.9882352941176471" stop-color="#ddd9d2"/>
    </radialGradient>
    <radialGradient cx="0" cy="0" gradientTransform="matrix(3.0E-4, 6.0E-4, -6.0E-4, 3.0E-4, 319.8, 168.55)" gradientUnits="userSpaceOnUse" id="gradient5" r="819.2" spreadMethod="pad">
      <stop offset="0.0196078431372549" stop-color="#ffffff"/>
      <stop offset="0.9882352941176471" stop-color="#ddd9d2"/>
    </radialGradient>
    <radialGradient cx="0" cy="0" gradientTransform="matrix(3.0E-4, 6.0E-4, -6.0E-4, 3.0E-4, 321.9, 173.25)" gradientUnits="userSpaceOnUse" id="gradient6" r="819.2" spreadMethod="pad">
      <stop offset="0.0196078431372549" stop-color="#ffffff"/>
      <stop offset="0.9882352941176471" stop-color="#ddd9d2"/>
    </radialGradient>
    <radialGradient cx="0" cy="0" gradientTransform="matrix(3.0E-4, 6.0E-4, -6.0E-4, 3.0E-4, 312.25, 151.9)" gradientUnits="userSpaceOnUse" id="gradient7" r="819.2" spreadMethod="pad">
      <stop offset="0.0196078431372549" stop-color="#ffffff"/>
      <stop offset="0.9882352941176471" stop-color="#ddd9d2"/>
    </radialGradient>
    <radialGradient cx="0" cy="0" gradientTransform="matrix(3.0E-4, 6.0E-4, -6.0E-4, 3.0E-4, 310.4, 147.75)" gradientUnits="userSpaceOnUse" id="gradient8" r="819.2" spreadMethod="pad">
      <stop offset="0.0196078431372549" stop-color="#ffffff"/>
      <stop offset="0.9882352941176471" stop-color="#ddd9d2"/>
    </radialGradient>
    <radialGradient cx="0" cy="0" gradientTransform="matrix(3.0E-4, 6.0E-4, -6.0E-4, 3.0E-4, 313.95, 155.75)" gradientUnits="userSpaceOnUse" id="gradient9" r="819.2" spreadMethod="pad">
      <stop offset="0.0196078431372549" stop-color="#ffffff"/>
      <stop offset="0.9882352941176471" stop-color="#ddd9d2"/>
    </radialGradient>
    <radialGradient cx="0" cy="0" gradientTransform="matrix(3.0E-4, 6.0E-4, -6.0E-4, 3.0E-4, 315.85, 159.8)" gradientUnits="userSpaceOnUse" id="gradient10" r="819.2" spreadMethod="pad">
      <stop offset="0.0196078431372549" stop-color="#ffffff"/>
      <stop offset="0.9882352941176471" stop-color="#ddd9d2"/>
    </radialGradient>
    <radialGradient cx="0" cy="0" gradientTransform="matrix(3.0E-4, 6.0E-4, -6.0E-4, 3.0E-4, 308.55, 143.75)" gradientUnits="userSpaceOnUse" id="gradient11" r="819.2" spreadMethod="pad">
      <stop offset="0.0196078431372549" stop-color="#ffffff"/>
      <stop offset="0.9882352941176471" stop-color="#ddd9d2"/>
    </radialGradient>
    <radialGradient cx="0" cy="0" gradientTransform="matrix(-0.0208, 0.0094, -0.0094, -0.0208, 351.8, 124.2)" gradientUnits="userSpaceOnUse" id="gradient12" r="819.2" spreadMethod="pad">
      <stop offset="0.0196078431372549" stop-color="#ffffff"/>
      <stop offset="0.9882352941176471" stop-color="#ddd9d2"/>
    </radialGradient>
    <radialGradient cx="0" cy="0" gradientTransform="matrix(-6.0E-4, 3.0E-4, -3.0E-4, -6.0E-4, 348.35, 125.8)" gradientUnits="userSpaceOnUse" id="gradient13" r="819.2" spreadMethod="pad">
      <stop offset="0.0196078431372549" stop-color="#ffffff"/>
      <stop offset="0.9882352941176471" stop-color="#ddd9d2"/>
    </radialGradient>
    <radialGradient cx="0" cy="0" gradientTransform="matrix(-6.0E-4, 3.0E-4, -3.0E-4, -6.0E-4, 343.95, 127.8)" gradientUnits="userSpaceOnUse" id="gradient14" r="819.2" spreadMethod="pad">
      <stop offset="0.0196078431372549" stop-color="#ffffff"/>
      <stop offset="0.9882352941176471" stop-color="#ddd9d2"/>
    </radialGradient>
    <radialGradient cx="0" cy="0" gradientTransform="matrix(-6.0E-4, 3.0E-4, -3.0E-4, -6.0E-4, 339.25, 129.9)" gradientUnits="userSpaceOnUse" id="gradient15" r="819.2" spreadMethod="pad">
      <stop offset="0.0196078431372549" stop-color="#ffffff"/>
      <stop offset="0.9882352941176471" stop-color="#ddd9d2"/>
    </radialGradient>
    <radialGradient cx="0" cy="0" gradientTransform="matrix(-6.0E-4, 3.0E-4, -3.0E-4, -6.0E-4, 360.6, 120.25)" gradientUnits="userSpaceOnUse" id="gradient16" r="819.2" spreadMethod="pad">
      <stop offset="0.0196078431372549" stop-color="#ffffff"/>
      <stop offset="0.9882352941176471" stop-color="#ddd9d2"/>
    </radialGradient>
    <radialGradient cx="0" cy="0" gradientTransform="matrix(-6.0E-4, 3.0E-4, -3.0E-4, -6.0E-4, 364.75, 118.4)" gradientUnits="userSpaceOnUse" id="gradient17" r="819.2" spreadMethod="pad">
      <stop offset="0.0196078431372549" stop-color="#ffffff"/>
      <stop offset="0.9882352941176471" stop-color="#ddd9d2"/>
    </radialGradient>
    <radialGradient cx="0" cy="0" gradientTransform="matrix(-6.0E-4, 3.0E-4, -3.0E-4, -6.0E-4, 356.75, 121.95)" gradientUnits="userSpaceOnUse" id="gradient18" r="819.2" spreadMethod="pad">
      <stop offset="0.0196078431372549" stop-color="#ffffff"/>
      <stop offset="0.9882352941176471" stop-color="#ddd9d2"/>
    </radialGradient>
    <radialGradient cx="0" cy="0" gradientTransform="matrix(-6.0E-4, 3.0E-4, -3.0E-4, -6.0E-4, 352.7, 123.85)" gradientUnits="userSpaceOnUse" id="gradient19" r="819.2" spreadMethod="pad">
      <stop offset="0.0196078431372549" stop-color="#ffffff"/>
      <stop offset="0.9882352941176471" stop-color="#ddd9d2"/>
    </radialGradient>
    <radialGradient cx="0" cy="0" gradientTransform="matrix(-6.0E-4, 3.0E-4, -3.0E-4, -6.0E-4, 368.75, 116.55)" gradientUnits="userSpaceOnUse" id="gradient20" r="819.2" spreadMethod="pad">
      <stop offset="0.0196078431372549" stop-color="#ffffff"/>
      <stop offset="0.9882352941176471" stop-color="#ddd9d2"/>
    </radialGradient>
    <radialGradient cx="0" cy="0" gradientTransform="matrix(-0.0208, 0.0094, -0.0094, -0.0208, 384.8, 109.2)" gradientUnits="userSpaceOnUse" id="gradient21" r="819.2" spreadMethod="pad">
      <stop offset="0.0196078431372549" stop-color="#ffffff"/>
      <stop offset="0.9882352941176471" stop-color="#ddd9d2"/>
    </radialGradient>
    <radialGradient cx="0" cy="0" gradientTransform="matrix(-6.0E-4, 3.0E-4, -3.0E-4, -6.0E-4, 381.35, 110.8)" gradientUnits="userSpaceOnUse" id="gradient22" r="819.2" spreadMethod="pad">
      <stop offset="0.0196078431372549" stop-color="#ffffff"/>
      <stop offset="0.9882352941176471" stop-color="#ddd9d2"/>
    </radialGradient>
    <radialGradient cx="0" cy="0" gradientTransform="matrix(-6.0E-4, 3.0E-4, -3.0E-4, -6.0E-4, 376.95, 112.8)" gradientUnits="userSpaceOnUse" id="gradient23" r="819.2" spreadMethod="pad">
      <stop offset="0.0196078431372549" stop-color="#ffffff"/>
      <stop offset="0.9882352941176471" stop-color="#ddd9d2"/>
    </radialGradient>
    <radialGradient cx="0" cy="0" gradientTransform="matrix(-6.0E-4, 3.0E-4, -3.0E-4, -6.0E-4, 372.25, 114.9)" gradientUnits="userSpaceOnUse" id="gradient24" r="819.2" spreadMethod="pad">
      <stop offset="0.0196078431372549" stop-color="#ffffff"/>
      <stop offset="0.9882352941176471" stop-color="#ddd9d2"/>
    </radialGradient>
    <radialGradient cx="0" cy="0" gradientTransform="matrix(-6.0E-4, 3.0E-4, -3.0E-4, -6.0E-4, 393.6, 105.25)" gradientUnits="userSpaceOnUse" id="gradient25" r="819.2" spreadMethod="pad">
      <stop offset="0.0196078431372549" stop-color="#ffffff"/>
      <stop offset="0.9882352941176471" stop-color="#ddd9d2"/>
    </radialGradient>
    <radialGradient cx="0" cy="0" gradientTransform="matrix(-6.0E-4, 3.0E-4, -3.0E-4, -6.0E-4, 397.75, 103.4)" gradientUnits="userSpaceOnUse" id="gradient26" r="819.2" spreadMethod="pad">
      <stop offset="0.0196078431372549" stop-color="#ffffff"/>
      <stop offset="0.9882352941176471" stop-color="#ddd9d2"/>
    </radialGradient>
    <radialGradient cx="0" cy="0" gradientTransform="matrix(-6.0E-4, 3.0E-4, -3.0E-4, -6.0E-4, 389.75, 106.95)" gradientUnits="userSpaceOnUse" id="gradient27" r="819.2" spreadMethod="pad">
      <stop offset="0.0196078431372549" stop-color="#ffffff"/>
      <stop offset="0.9882352941176471" stop-color="#ddd9d2"/>
    </radialGradient>
    <radialGradient cx="0" cy="0" gradientTransform="matrix(-6.0E-4, 3.0E-4, -3.0E-4, -6.0E-4, 385.7, 108.85)" gradientUnits="userSpaceOnUse" id="gradient28" r="819.2" spreadMethod="pad">
      <stop offset="0.0196078431372549" stop-color="#ffffff"/>
      <stop offset="0.9882352941176471" stop-color="#ddd9d2"/>
    </radialGradient>
    <radialGradient cx="0" cy="0" gradientTransform="matrix(-6.0E-4, 3.0E-4, -3.0E-4, -6.0E-4, 401.75, 101.55)" gradientUnits="userSpaceOnUse" id="gradient29" r="819.2" spreadMethod="pad">
      <stop offset="0.0196078431372549" stop-color="#ffffff"/>
      <stop offset="0.9882352941176471" stop-color="#ddd9d2"/>
    </radialGradient>
    <radialGradient cx="0" cy="0" gradientTransform="matrix(-0.0571, 0.0227, -0.0227, -0.0571, 367.9, 114.55)" gradientUnits="userSpaceOnUse" id="gradient30" r="819.2" spreadMethod="pad">
      <stop offset="0.0196078431372549" stop-color="#ffffff"/>
      <stop offset="0.9882352941176471" stop-color="#ddd9d2"/>
    </radialGradient>
    <radialGradient cx="0" cy="0" gradientTransform="matrix(-0.0018, 7.0E-4, -7.0E-4, -0.0018, 403.5, 100.65)" gradientUnits="userSpaceOnUse" id="gradient31" r="819.2" spreadMethod="pad">
      <stop offset="0.0196078431372549" stop-color="#ffffff"/>
      <stop offset="0.9882352941176471" stop-color="#ddd9d2"/>
    </radialGradient>
    <radialGradient cx="0" cy="0" gradientTransform="matrix(-0.0018, 7.0E-4, -7.0E-4, -0.0018, 414.5, 96.25)" gradientUnits="userSpaceOnUse" id="gradient32" r="819.2" spreadMethod="pad">
      <stop offset="0.0196078431372549" stop-color="#ffffff"/>
      <stop offset="0.9882352941176471" stop-color="#ddd9d2"/>
    </radialGradient>
  </defs>
</svg>
