<?xml version="1.0" encoding="UTF-8" standalone="no"?>
<svg xmlns:ffdec="https://www.free-decompiler.com/flash" xmlns:xlink="http://www.w3.org/1999/xlink" ffdec:objectType="shape" height="16.0px" width="34.7px" xmlns="http://www.w3.org/2000/svg">
  <g transform="matrix(1.0, 0.0, 0.0, 1.0, -307.65, -128.0)">
    <path d="M307.65 143.75 L341.75 128.35 341.9 128.6 307.8 144.0 307.65 143.75" fill="url(#gradient0)" fill-rule="evenodd" stroke="none"/>
    <path d="M321.95 138.0 L321.2 138.3 320.85 137.55 321.6 137.25 321.95 138.0" fill="url(#gradient1)" fill-rule="evenodd" stroke="none"/>
    <path d="M316.8 140.3 L316.45 139.55 317.2 139.2 317.55 139.95 316.8 140.3" fill="url(#gradient2)" fill-rule="evenodd" stroke="none"/>
    <path d="M311.75 141.65 L312.5 141.35 312.85 142.1 312.1 142.4 311.75 141.65" fill="url(#gradient3)" fill-rule="evenodd" stroke="none"/>
    <path d="M333.45 132.75 L333.1 132.0 333.8 131.7 334.15 132.45 333.45 132.75" fill="url(#gradient4)" fill-rule="evenodd" stroke="none"/>
    <path d="M337.6 130.9 L337.25 130.15 Q337.6 130.0 338.0 129.8 L338.35 130.55 Q337.95 130.75 337.6 130.9" fill="url(#gradient5)" fill-rule="evenodd" stroke="none"/>
    <path d="M329.55 134.45 L329.25 133.75 329.95 133.45 330.25 134.15 329.55 134.45" fill="url(#gradient6)" fill-rule="evenodd" stroke="none"/>
    <path d="M325.55 136.35 L325.2 135.6 325.95 135.25 326.3 136.0 325.55 136.35" fill="url(#gradient7)" fill-rule="evenodd" stroke="none"/>
    <path d="M341.25 128.3 L342.0 128.0 342.35 128.75 341.6 129.05 341.25 128.3" fill="url(#gradient8)" fill-rule="evenodd" stroke="none"/>
  </g>
  <defs>
    <radialGradient cx="0" cy="0" gradientTransform="matrix(-0.0208, 0.0094, -0.0094, -0.0208, 324.8, 136.2)" gradientUnits="userSpaceOnUse" id="gradient0" r="819.2" spreadMethod="pad">
      <stop offset="0.0196078431372549" stop-color="#ffffff"/>
      <stop offset="0.9882352941176471" stop-color="#ddd9d2"/>
    </radialGradient>
    <radialGradient cx="0" cy="0" gradientTransform="matrix(-6.0E-4, 3.0E-4, -3.0E-4, -6.0E-4, 321.35, 137.8)" gradientUnits="userSpaceOnUse" id="gradient1" r="819.2" spreadMethod="pad">
      <stop offset="0.0196078431372549" stop-color="#ffffff"/>
      <stop offset="0.9882352941176471" stop-color="#ddd9d2"/>
    </radialGradient>
    <radialGradient cx="0" cy="0" gradientTransform="matrix(-6.0E-4, 3.0E-4, -3.0E-4, -6.0E-4, 316.95, 139.8)" gradientUnits="userSpaceOnUse" id="gradient2" r="819.2" spreadMethod="pad">
      <stop offset="0.0196078431372549" stop-color="#ffffff"/>
      <stop offset="0.9882352941176471" stop-color="#ddd9d2"/>
    </radialGradient>
    <radialGradient cx="0" cy="0" gradientTransform="matrix(-6.0E-4, 3.0E-4, -3.0E-4, -6.0E-4, 312.25, 141.9)" gradientUnits="userSpaceOnUse" id="gradient3" r="819.2" spreadMethod="pad">
      <stop offset="0.0196078431372549" stop-color="#ffffff"/>
      <stop offset="0.9882352941176471" stop-color="#ddd9d2"/>
    </radialGradient>
    <radialGradient cx="0" cy="0" gradientTransform="matrix(-6.0E-4, 3.0E-4, -3.0E-4, -6.0E-4, 333.6, 132.25)" gradientUnits="userSpaceOnUse" id="gradient4" r="819.2" spreadMethod="pad">
      <stop offset="0.0196078431372549" stop-color="#ffffff"/>
      <stop offset="0.9882352941176471" stop-color="#ddd9d2"/>
    </radialGradient>
    <radialGradient cx="0" cy="0" gradientTransform="matrix(-6.0E-4, 3.0E-4, -3.0E-4, -6.0E-4, 337.75, 130.4)" gradientUnits="userSpaceOnUse" id="gradient5" r="819.2" spreadMethod="pad">
      <stop offset="0.0196078431372549" stop-color="#ffffff"/>
      <stop offset="0.9882352941176471" stop-color="#ddd9d2"/>
    </radialGradient>
    <radialGradient cx="0" cy="0" gradientTransform="matrix(-6.0E-4, 3.0E-4, -3.0E-4, -6.0E-4, 329.75, 133.95)" gradientUnits="userSpaceOnUse" id="gradient6" r="819.2" spreadMethod="pad">
      <stop offset="0.0196078431372549" stop-color="#ffffff"/>
      <stop offset="0.9882352941176471" stop-color="#ddd9d2"/>
    </radialGradient>
    <radialGradient cx="0" cy="0" gradientTransform="matrix(-6.0E-4, 3.0E-4, -3.0E-4, -6.0E-4, 325.7, 135.85)" gradientUnits="userSpaceOnUse" id="gradient7" r="819.2" spreadMethod="pad">
      <stop offset="0.0196078431372549" stop-color="#ffffff"/>
      <stop offset="0.9882352941176471" stop-color="#ddd9d2"/>
    </radialGradient>
    <radialGradient cx="0" cy="0" gradientTransform="matrix(-6.0E-4, 3.0E-4, -3.0E-4, -6.0E-4, 341.75, 128.55)" gradientUnits="userSpaceOnUse" id="gradient8" r="819.2" spreadMethod="pad">
      <stop offset="0.0196078431372549" stop-color="#ffffff"/>
      <stop offset="0.9882352941176471" stop-color="#ddd9d2"/>
    </radialGradient>
  </defs>
</svg>
