<?xml version="1.0" encoding="UTF-8" standalone="no"?>
<svg xmlns:ffdec="https://www.free-decompiler.com/flash" xmlns:xlink="http://www.w3.org/1999/xlink" ffdec:objectType="shape" height="146.6px" width="151.7px" xmlns="http://www.w3.org/2000/svg">
  <g transform="matrix(1.0, 0.0, 0.0, 1.0, 0.0, 0.0)">
    <path d="M23.45 58.8 L23.35 58.9 23.2 59.15 23.2 100.55 23.25 100.75 23.2 100.95 Q23.2 103.4 24.6 105.05 26.0 106.7 28.4 106.7 30.8 106.7 32.55 105.0 34.2 103.25 34.2 100.85 L34.15 100.65 34.2 100.45 34.2 59.15 34.15 58.95 34.2 58.75 Q34.35 34.8 51.3 17.9 68.4 0.8 92.55 0.8 116.75 0.8 133.85 17.9 150.9 34.95 150.9 59.15 L150.95 59.35 150.9 59.55 150.9 61.8 150.9 61.9 150.75 61.9 150.3 61.85 150.3 61.8 150.3 59.15 Q150.3 35.2 133.4 18.3 116.5 1.4 92.55 1.4 68.65 1.4 51.7 18.3 34.8 35.2 34.8 59.15 L34.8 100.85 Q34.8 103.5 32.95 105.4 31.05 107.3 28.4 107.3 25.7 107.3 24.15 105.45 22.6 103.65 22.6 100.95 L22.6 59.15 Q22.6 58.95 22.75 58.8 22.9 58.65 23.1 58.65 L23.45 58.8 M138.7 61.8 L138.7 61.85 138.1 61.75 138.1 60.25 138.05 60.05 138.1 59.85 Q138.1 40.65 124.6 27.15 111.05 13.55 91.9 13.55 72.75 13.55 59.25 27.15 45.85 40.5 45.7 59.45 L45.75 59.65 45.75 59.7 45.7 59.85 45.7 106.9 45.75 107.1 45.7 107.3 45.7 107.4 Q45.75 112.85 49.6 116.75 53.45 120.6 58.95 120.6 L59.1 120.6 59.15 120.55 59.35 120.6 90.45 120.7 90.45 121.3 58.95 121.2 Q53.2 121.2 49.15 117.15 45.15 113.1 45.1 107.4 L45.1 107.3 45.1 59.85 45.1 59.7 Q45.15 40.35 58.8 26.7 72.5 12.95 91.9 12.95 111.3 12.95 125.0 26.7 138.7 40.4 138.7 59.85 L138.7 61.8 M90.45 131.85 L90.45 132.65 0.4 132.65 0.4 131.85 90.45 131.85 M90.45 133.85 L90.45 134.65 0.4 134.65 0.4 133.85 90.45 133.85 M90.45 145.2 L90.45 145.8 0.4 145.8 0.4 145.2 90.45 145.2 M0.05 121.45 L0.0 121.45 0.0 120.85 0.15 120.85 Q5.65 120.85 9.5 117.0 13.25 113.15 13.4 108.05 L13.75 59.15 13.65 58.9 13.5 58.8 Q13.65 58.65 13.85 58.65 L14.2 58.8 14.35 59.15 14.0 108.05 Q13.85 113.5 9.95 117.4 5.9 121.45 0.15 121.45 L0.05 121.45" fill="#555951" fill-rule="evenodd" stroke="none"/>
    <path d="M23.45 58.8 L23.6 58.75 Q23.75 58.75 23.9 58.9 L24.0 59.15 24.0 100.55 23.95 100.75 24.0 100.95 Q24.0 103.1 25.2 104.55 26.4 105.9 28.4 105.9 30.5 105.9 32.0 104.45 33.4 102.95 33.4 100.85 L33.45 100.65 33.4 100.45 33.4 59.15 33.45 58.95 33.4 58.75 Q33.55 34.5 50.75 17.35 68.1 0.0 92.55 0.0 117.05 0.0 134.4 17.35 151.7 34.65 151.7 59.15 L151.65 59.35 151.7 59.55 151.7 61.8 151.65 62.1 150.9 61.9 150.9 61.8 150.9 59.55 150.95 59.35 150.9 59.15 Q150.9 34.95 133.85 17.9 116.75 0.8 92.55 0.8 68.4 0.8 51.3 17.9 34.35 34.8 34.2 58.75 L34.15 58.95 34.2 59.15 34.2 100.45 34.15 100.65 34.2 100.85 Q34.2 103.25 32.55 105.0 30.8 106.7 28.4 106.7 26.0 106.7 24.6 105.05 23.2 103.4 23.2 100.95 L23.25 100.75 23.2 100.55 23.2 59.15 23.35 58.9 23.45 58.8 M138.1 61.75 L137.4 61.9 137.35 61.9 137.3 61.85 137.3 60.25 137.35 60.05 137.3 59.85 Q137.3 40.95 124.05 27.7 110.75 14.35 91.9 14.35 73.05 14.35 59.8 27.7 46.65 40.8 46.5 59.45 L46.45 59.65 46.5 59.75 46.5 59.85 46.5 106.9 46.45 107.1 46.5 107.3 46.5 107.4 Q46.55 112.5 50.15 116.2 53.75 119.8 58.95 119.8 L59.1 119.85 59.15 119.85 59.35 119.8 90.45 119.9 90.45 120.7 59.35 120.6 59.15 120.55 59.1 120.6 58.95 120.6 Q53.45 120.6 49.6 116.75 45.75 112.85 45.7 107.4 L45.7 107.3 45.75 107.1 45.7 106.9 45.7 59.85 45.75 59.7 45.75 59.65 45.7 59.45 Q45.85 40.5 59.25 27.15 72.75 13.55 91.9 13.55 111.05 13.55 124.6 27.15 138.1 40.65 138.1 59.85 L138.05 60.05 138.1 60.25 138.1 61.75 M90.45 132.65 L90.45 133.85 0.4 133.85 0.4 132.65 90.45 132.65 M90.45 145.8 L90.45 146.6 0.4 146.6 0.4 145.8 90.45 145.8 M0.0 120.85 L0.0 120.1 0.05 120.1 0.15 120.05 Q5.35 120.05 8.95 116.45 12.3 113.1 12.6 108.05 L12.95 59.15 13.1 58.9 Q13.2 58.75 13.35 58.75 L13.5 58.8 13.65 58.9 13.75 59.15 13.4 108.05 Q13.25 113.15 9.5 117.0 5.65 120.85 0.15 120.85 L0.0 120.85 M84.9 127.15 L84.7 127.2 78.7 127.2 78.55 127.15 78.45 126.95 78.55 126.8 78.7 126.7 84.7 126.7 84.9 126.8 84.95 126.95 84.9 127.15 M66.45 126.95 L66.55 126.8 66.7 126.7 72.7 126.7 72.9 126.8 72.95 126.95 72.9 127.15 72.7 127.2 66.7 127.2 66.55 127.15 66.45 126.95" fill="#eaeae1" fill-rule="evenodd" stroke="none"/>
    <path d="M150.3 61.8 L139.8 61.8 138.7 61.8 138.7 59.85 Q138.7 40.4 125.0 26.7 111.3 12.95 91.9 12.95 72.5 12.95 58.8 26.7 45.15 40.35 45.1 59.7 L45.1 59.85 45.1 107.3 45.1 107.4 Q45.15 113.1 49.15 117.15 53.2 121.2 58.95 121.2 L90.45 121.3 90.45 131.85 0.4 131.85 0.4 132.65 0.4 133.85 0.4 134.65 90.45 134.65 90.45 145.2 0.4 145.2 0.05 121.45 0.15 121.45 Q5.9 121.45 9.95 117.4 13.85 113.5 14.0 108.05 L14.35 59.15 14.4 59.15 17.0 59.15 22.6 59.15 22.6 100.95 Q22.6 103.65 24.15 105.45 25.7 107.3 28.4 107.3 31.05 107.3 32.95 105.4 34.8 103.5 34.8 100.85 L34.8 59.15 Q34.8 35.2 51.7 18.3 68.65 1.4 92.55 1.4 116.5 1.4 133.4 18.3 150.3 35.2 150.3 59.15 L150.3 61.8 M66.45 126.95 L66.55 127.15 66.7 127.2 72.7 127.2 72.9 127.15 72.95 126.95 72.9 126.8 72.7 126.7 66.7 126.7 66.55 126.8 66.45 126.95 M84.9 127.15 L84.95 126.95 84.9 126.8 84.7 126.7 78.7 126.7 78.55 126.8 78.45 126.95 78.55 127.15 78.7 127.2 84.7 127.2 84.9 127.15" fill="url(#gradient0)" fill-rule="evenodd" stroke="none"/>
  </g>
  <defs>
    <radialGradient cx="0" cy="0" gradientTransform="matrix(0.0, -0.0724, 0.1119, 0.0, 143.8, 54.0)" gradientUnits="userSpaceOnUse" id="gradient0" r="819.2" spreadMethod="pad">
      <stop offset="0.0" stop-color="#bcc2ba"/>
      <stop offset="1.0" stop-color="#7e8979"/>
    </radialGradient>
  </defs>
</svg>
