<?xml version="1.0" encoding="UTF-8" standalone="no"?>
<svg xmlns:ffdec="https://www.free-decompiler.com/flash" xmlns:xlink="http://www.w3.org/1999/xlink" ffdec:objectType="shape" height="120.5px" width="138.7px" xmlns="http://www.w3.org/2000/svg">
  <g transform="matrix(1.0, 0.0, 0.0, 1.0, -6.35, -6.6)">
    <path d="M39.7 65.4 L39.9 65.3 40.15 65.4 40.2 65.6 40.1 71.6 40.0 71.85 39.8 71.9 39.6 71.8 39.5 71.6 39.6 65.6 39.7 65.4 M39.8 53.6 L39.9 53.4 40.1 53.3 40.35 53.4 40.4 53.6 40.3 59.6 40.25 59.8 40.2 59.85 40.0 59.9 39.8 59.8 39.7 59.6 39.8 53.6 M42.4 41.85 L42.4 42.05 Q41.3 44.95 40.8 47.7 L40.7 47.9 40.45 47.95 40.25 47.85 40.2 47.6 Q40.7 44.85 41.85 41.85 L42.0 41.7 42.2 41.7 42.4 41.85 M44.8 36.6 L44.6 36.75 44.4 36.75 44.25 36.55 44.25 36.35 Q45.55 33.65 47.25 31.15 47.3 31.0 47.45 31.0 L47.7 31.05 47.8 31.25 47.75 31.5 Q46.05 33.95 44.8 36.6 M55.35 21.65 L55.55 21.55 55.75 21.65 55.85 21.85 55.75 22.05 54.65 23.15 51.4 26.7 51.2 26.8 50.95 26.75 50.85 26.55 50.95 26.3 54.25 22.75 55.35 21.65 M65.3 14.35 L65.35 14.6 65.2 14.75 60.3 18.2 60.1 18.25 59.9 18.15 59.8 17.95 Q59.8 17.8 59.95 17.75 62.35 15.8 64.9 14.25 L65.15 14.2 65.3 14.35 M75.8 9.2 L76.05 9.2 76.2 9.35 76.2 9.6 76.0 9.75 Q73.15 10.7 70.5 11.95 L70.25 11.95 70.1 11.8 70.1 11.55 70.25 11.4 Q72.95 10.1 75.8 9.2 M143.85 50.6 L143.9 50.4 144.1 50.25 144.35 50.3 144.45 50.5 Q145.05 53.6 145.05 56.5 L144.95 56.7 144.75 56.8 144.55 56.7 144.45 56.5 Q144.45 53.6 143.85 50.6 M81.65 8.25 L81.45 8.2 81.3 8.0 81.35 7.8 81.55 7.65 87.5 6.8 87.7 6.9 87.8 7.1 87.75 7.3 87.55 7.4 81.65 8.25 M93.15 7.1 L93.05 6.9 93.15 6.7 93.35 6.6 99.5 7.1 99.7 7.25 99.75 7.45 99.65 7.65 99.4 7.7 93.35 7.2 93.15 7.1 M111.4 10.45 L111.4 10.7 111.25 10.85 111.0 10.85 Q108.2 9.7 105.35 8.9 L105.15 8.75 105.1 8.55 105.25 8.35 105.5 8.3 Q108.4 9.1 111.25 10.3 L111.4 10.45 M140.35 39.0 L140.55 39.15 141.15 40.35 142.9 44.65 142.9 44.9 142.7 45.05 142.5 45.05 142.35 44.85 140.6 40.6 140.0 39.4 140.0 39.15 140.15 39.0 140.35 39.0 M133.8 29.15 L133.75 28.9 133.9 28.7 134.1 28.65 134.3 28.8 137.65 33.85 137.7 34.1 137.55 34.25 137.35 34.3 137.15 34.15 133.8 29.15 M125.8 20.4 L125.7 20.15 125.8 19.95 Q125.85 19.85 126.0 19.85 L126.2 19.95 130.3 24.0 130.25 24.0 130.55 24.3 130.65 24.5 130.55 24.7 130.35 24.8 130.15 24.7 129.85 24.4 125.8 20.4 M121.7 16.4 L121.65 16.65 121.45 16.75 121.25 16.7 Q118.8 14.9 116.25 13.45 L116.1 13.3 116.15 13.05 116.35 12.9 116.55 12.95 Q119.1 14.4 121.6 16.2 L121.7 16.4 M18.75 65.6 L18.8 71.6 18.7 71.8 18.5 71.9 18.3 71.85 18.2 71.55 18.15 65.55 18.2 65.35 18.45 65.3 18.65 65.4 18.75 65.6 M18.75 77.4 L18.85 77.6 18.9 83.6 18.8 83.8 18.6 83.9 18.4 83.85 18.3 83.6 18.25 77.6 18.3 77.4 18.55 77.3 18.75 77.4 M18.85 89.4 L18.95 89.6 19.05 95.6 18.95 95.8 18.7 95.9 18.5 95.85 18.45 95.6 18.35 89.6 18.4 89.4 18.65 89.3 18.85 89.4 M39.25 101.3 L39.5 101.4 39.55 101.6 39.45 105.45 39.45 107.6 39.35 107.8 39.15 107.9 38.95 107.8 38.85 107.6 38.85 105.45 38.95 101.6 39.05 101.4 39.25 101.3 M59.6 126.5 L59.8 126.6 59.9 126.8 59.8 127.0 59.6 127.1 57.4 127.05 57.2 126.95 57.1 126.75 57.2 126.55 Q57.3 126.45 57.45 126.45 L59.6 126.5 M41.95 119.05 L41.8 119.2 41.6 119.25 41.4 119.1 Q39.9 116.75 39.3 113.45 L39.35 113.25 39.55 113.1 39.8 113.15 39.9 113.35 Q40.5 116.55 41.9 118.8 L41.95 119.05 M45.85 122.95 L46.1 123.0 Q48.45 124.65 51.4 125.55 L51.6 125.65 51.6 125.9 51.45 126.1 51.25 126.1 Q48.15 125.15 45.75 123.5 L45.6 123.3 45.65 123.1 45.85 122.95 M39.2 89.6 L39.3 89.4 39.5 89.3 39.75 89.4 39.8 89.6 39.65 95.6 39.55 95.85 39.35 95.9 39.15 95.8 39.05 95.6 39.2 89.6 M39.7 77.3 L39.95 77.4 40.0 77.6 39.9 83.6 39.8 83.85 39.6 83.9 39.4 83.8 39.3 83.6 39.4 77.6 39.5 77.4 39.7 77.3 M19.05 101.6 L19.15 105.45 19.1 107.6 19.0 107.8 18.8 107.9 18.6 107.8 18.5 107.6 18.55 105.45 18.45 101.6 18.5 101.4 18.75 101.3 18.95 101.4 19.05 101.6 M18.6 113.25 L18.65 113.45 Q18.05 116.75 16.55 119.1 L16.35 119.25 16.15 119.2 16.0 119.05 16.05 118.8 Q17.45 116.55 18.05 113.35 L18.15 113.15 18.4 113.1 18.6 113.25 M12.2 123.5 Q9.8 125.15 6.7 126.1 L6.5 126.1 6.35 125.9 6.35 125.65 6.55 125.55 Q9.5 124.65 11.85 123.0 L12.1 122.95 12.3 123.1 12.35 123.3 12.2 123.5" fill="#cdccba" fill-rule="evenodd" stroke="none"/>
    <path d="M28.65 111.05 Q26.8 111.05 25.45 110.35 L28.75 122.25 31.85 110.35 Q30.45 111.05 28.65 111.05 M24.7 107.6 Q26.3 108.75 28.65 108.75 30.95 108.75 32.55 107.6 L34.2 105.95 28.65 126.8 22.9 105.7 Q23.65 106.85 24.7 107.6" fill="#cdccba" fill-rule="evenodd" stroke="none"/>
  </g>
</svg>
