<?xml version="1.0" encoding="UTF-8" standalone="no"?>
<svg xmlns:ffdec="https://www.free-decompiler.com/flash" xmlns:xlink="http://www.w3.org/1999/xlink" ffdec:objectType="shape" height="68.6px" width="90.45px" xmlns="http://www.w3.org/2000/svg">
  <g transform="matrix(1.0, 0.0, 0.0, 1.0, 0.0, -78.0)">
    <path d="M0.0 120.85 L0.15 120.85 Q5.65 120.85 9.5 117.0 13.25 113.15 13.4 108.05 L13.55 86.45 13.6 78.0 14.2 78.0 14.15 86.45 14.0 108.05 Q13.85 113.5 9.95 117.4 5.9 121.45 0.15 121.45 L0.05 121.45 0.0 121.45 0.0 120.85 M22.6 78.0 L23.2 78.0 23.2 100.55 23.25 100.75 23.2 100.95 Q23.2 103.4 24.6 105.05 26.0 106.7 28.4 106.7 30.8 106.7 32.55 105.0 34.2 103.25 34.2 100.85 L34.15 100.65 34.2 100.45 34.2 78.0 34.8 78.0 34.8 86.45 34.8 100.85 Q34.8 103.5 32.95 105.4 31.05 107.3 28.4 107.3 25.7 107.3 24.15 105.45 22.6 103.65 22.6 100.95 L22.6 86.45 22.6 78.0 M45.1 78.0 L45.7 78.0 45.7 106.9 45.75 107.1 45.7 107.3 45.7 107.4 Q45.75 112.85 49.6 116.75 53.45 120.6 58.95 120.6 L59.1 120.6 59.15 120.55 59.35 120.6 90.45 120.7 90.45 121.3 58.95 121.2 Q53.2 121.2 49.15 117.15 45.15 113.1 45.1 107.4 L45.1 107.3 45.1 86.45 45.1 78.0 M90.45 131.85 L90.45 132.65 0.4 132.65 0.4 131.85 90.45 131.85 M90.45 133.85 L90.45 134.65 0.4 134.65 0.4 133.85 90.45 133.85 M90.45 145.2 L90.45 145.8 0.4 145.8 0.4 145.2 90.45 145.2" fill="#555951" fill-rule="evenodd" stroke="none"/>
    <path d="M0.0 120.85 L0.0 120.1 0.05 120.1 0.15 120.05 Q5.35 120.05 8.95 116.45 12.3 113.1 12.6 108.05 L12.75 86.45 12.8 78.0 13.6 78.0 13.55 86.45 13.4 108.05 Q13.25 113.15 9.5 117.0 5.65 120.85 0.15 120.85 L0.0 120.85 M23.2 78.0 L24.0 78.0 24.0 100.55 23.95 100.75 24.0 100.95 Q24.0 103.1 25.2 104.55 26.4 105.9 28.4 105.9 30.5 105.9 32.0 104.45 33.4 102.95 33.4 100.85 L33.45 100.65 33.4 100.45 33.4 78.0 34.2 78.0 34.2 100.45 34.15 100.65 34.2 100.85 Q34.2 103.25 32.55 105.0 30.8 106.7 28.4 106.7 26.0 106.7 24.6 105.05 23.2 103.4 23.2 100.95 L23.25 100.75 23.2 100.55 23.2 78.0 M45.7 78.0 L46.5 78.0 46.5 106.9 46.45 107.1 46.5 107.3 46.5 107.4 Q46.55 112.5 50.15 116.2 53.75 119.8 58.95 119.8 L59.1 119.85 59.15 119.85 59.35 119.8 90.45 119.9 90.45 120.7 59.35 120.6 59.15 120.55 59.1 120.6 58.95 120.6 Q53.45 120.6 49.6 116.75 45.75 112.85 45.7 107.4 L45.7 107.3 45.75 107.1 45.7 106.9 45.7 78.0 M90.45 132.65 L90.45 133.85 0.4 133.85 0.4 132.65 90.45 132.65 M90.45 145.8 L90.45 146.6 0.4 146.6 0.4 145.8 90.45 145.8 M72.7 126.7 L72.9 126.8 72.95 126.95 72.9 127.15 72.7 127.2 66.7 127.2 66.55 127.15 66.45 126.95 66.55 126.8 66.7 126.7 72.7 126.7 M78.45 126.95 L78.55 126.8 78.7 126.7 84.7 126.7 84.9 126.8 84.95 126.95 84.9 127.15 84.7 127.2 78.7 127.2 78.55 127.15 78.45 126.95" fill="#eaeae1" fill-rule="evenodd" stroke="none"/>
    <path d="M90.45 121.3 L90.45 131.85 0.4 131.85 0.4 132.65 0.4 133.85 0.4 134.65 90.45 134.65 90.45 145.2 0.4 145.2 0.05 121.45 0.15 121.45 Q5.9 121.45 9.95 117.4 13.85 113.5 14.0 108.05 L14.15 86.45 22.6 86.45 22.6 100.95 Q22.6 103.65 24.15 105.45 25.7 107.3 28.4 107.3 31.05 107.3 32.95 105.4 34.8 103.5 34.8 100.85 L34.8 86.45 45.1 86.45 45.1 107.3 45.1 107.4 Q45.15 113.1 49.15 117.15 53.2 121.2 58.95 121.2 L90.45 121.3 M78.45 126.95 L78.55 127.15 78.7 127.2 84.7 127.2 84.9 127.15 84.95 126.95 84.9 126.8 84.7 126.7 78.7 126.7 78.55 126.8 78.45 126.95 M72.7 126.7 L66.7 126.7 66.55 126.8 66.45 126.95 66.55 127.15 66.7 127.2 72.7 127.2 72.9 127.15 72.95 126.95 72.9 126.8 72.7 126.7" fill="url(#gradient0)" fill-rule="evenodd" stroke="none"/>
    <path d="M14.2 78.0 L22.6 78.0 22.6 86.45 14.15 86.45 14.2 78.0 M34.8 78.0 L45.1 78.0 45.1 86.45 34.8 86.45 34.8 78.0" fill="url(#gradient1)" fill-rule="evenodd" stroke="none"/>
  </g>
  <defs>
    <radialGradient cx="0" cy="0" gradientTransform="matrix(0.0, -0.0724, 0.1119, 0.0, 143.8, 54.0)" gradientUnits="userSpaceOnUse" id="gradient0" r="819.2" spreadMethod="pad">
      <stop offset="0.0" stop-color="#bcc2ba"/>
      <stop offset="1.0" stop-color="#7e8979"/>
    </radialGradient>
    <radialGradient cx="0" cy="0" gradientTransform="matrix(0.0, -0.2111, 0.1119, 0.0, 143.8, -8.1)" gradientUnits="userSpaceOnUse" id="gradient1" r="819.2" spreadMethod="pad">
      <stop offset="0.0" stop-color="#bcc2ba"/>
      <stop offset="1.0" stop-color="#7e8979"/>
    </radialGradient>
  </defs>
</svg>
