<?xml version="1.0" encoding="UTF-8" standalone="no"?>
<svg xmlns:ffdec="https://www.free-decompiler.com/flash" xmlns:xlink="http://www.w3.org/1999/xlink" ffdec:objectType="shape" height="21.15px" width="10.2px" xmlns="http://www.w3.org/2000/svg">
  <g transform="matrix(1.0, 0.0, 0.0, 1.0, 5.45, 10.6)">
    <path d="M-3.15 -6.75 Q-3.3 -7.0 -2.15 -8.2 L-3.9 -7.1 -3.05 -8.15 -1.3 -10.6 0.35 -8.85 2.2 -7.25 0.95 -7.5 -1.2 -7.65 -1.55 -8.05 -3.15 -6.75 M-1.2 -7.65 L-1.25 -9.95 -2.75 -7.95 -1.65 -9.0 -1.2 -7.65 M2.45 -5.1 L1.45 -4.7 Q2.5 -3.95 3.55 -3.55 L1.8 -4.0 0.8 -4.45 3.35 -1.65 1.0 -3.35 2.2 -0.7 0.2 -3.55 -1.65 -1.65 -1.55 -2.7 -3.7 -1.85 -3.0 -2.9 Q-1.75 -3.65 -1.25 -3.45 L-1.05 -3.1 0.1 -4.35 -0.6 -4.95 2.45 -5.1 M-2.75 -3.3 L-2.75 -3.25 -2.35 -4.3 -3.6 -3.15 -4.35 -3.15 -3.1 -4.25 -1.7 -5.8 -1.3 -6.1 -1.4 -4.9 -2.75 -3.3" fill="url(#gradient0)" fill-rule="evenodd" stroke="none"/>
    <path d="M-3.15 -6.75 L-1.55 -8.05 -1.2 -7.65 0.95 -7.5 Q0.6 -7.6 1.3 -6.55 L-0.6 -7.2 0.25 -5.8 2.45 -5.1 -0.6 -4.95 -1.4 -4.8 -1.4 -4.9 -1.3 -6.1 -1.7 -5.8 -1.75 -6.1 -1.45 -7.45 -3.15 -6.75 M3.55 -3.55 L3.9 -3.45 4.75 -2.7 2.6 -3.15 Q3.65 -1.65 3.35 -1.65 L0.8 -4.45 1.8 -4.0 3.55 -3.55 M2.2 -0.7 L0.0 -3.0 -0.9 -2.2 -1.65 -1.65 0.2 -3.55 2.2 -0.7 M-2.75 -3.25 L-3.6 -3.15 -2.35 -4.3 -2.75 -3.25" fill="url(#gradient1)" fill-rule="evenodd" stroke="none"/>
    <path d="M0.15 -0.35 L2.1 1.3 0.15 0.3 -0.15 0.3 Q-1.6 0.7 -3.7 2.0 L-4.55 2.15 -3.6 1.5 -5.45 1.75 Q-3.55 1.1 -2.05 0.1 L-0.85 -0.7 -0.6 -0.6 -0.35 -0.55 -0.3 -0.55 -0.15 -0.45 0.0 -0.4 0.15 -0.35" fill="url(#gradient2)" fill-rule="evenodd" stroke="none"/>
    <path d="M0.05 -2.1 L0.15 -0.35 0.0 -0.4 -0.05 -2.0 0.05 -2.1 M0.15 1.2 L0.25 3.75 0.1 3.8 0.05 1.25 0.15 1.2 M0.25 3.9 L0.55 10.55 0.5 10.55 0.1 3.85 0.25 3.9 M-0.25 -1.95 L-0.3 -0.55 -0.35 -0.55 -0.45 -1.85 -0.25 -1.95" fill="url(#gradient3)" fill-rule="evenodd" stroke="none"/>
    <path d="M0.0 -3.0 L0.05 -2.1 -0.05 -2.0 -0.25 -1.95 -0.45 -1.85 -0.6 -0.6 -0.85 -0.7 -0.9 -2.2 0.0 -3.0 M-0.45 6.85 L-0.6 5.55 -0.45 6.4 -0.45 6.85" fill="#36281d" fill-rule="evenodd" stroke="none"/>
    <path d="M-1.2 -7.65 L-1.65 -9.0 -2.75 -7.95 -1.25 -9.95 -1.2 -7.65 M-3.0 -2.9 L-2.75 -3.3 -1.4 -4.9 -1.4 -4.8 -0.6 -4.95 0.1 -4.35 -1.05 -3.1 -1.25 -3.45 Q-1.75 -3.65 -3.0 -2.9" fill="url(#gradient4)" fill-rule="evenodd" stroke="none"/>
    <path d="M-0.25 -1.95 L-0.05 -2.0 -0.15 -0.45 -0.3 -0.55 -0.25 -1.95 M-0.45 -1.85 L-0.35 -0.55 -0.6 -0.6 -0.45 -1.85" fill="url(#gradient5)" fill-rule="evenodd" stroke="none"/>
    <path d="M-0.15 -0.45 L-0.05 -2.0 0.0 -0.4 -0.15 -0.45" fill="url(#gradient6)" fill-rule="evenodd" stroke="none"/>
    <path d="M-0.8 0.7 Q-1.55 1.95 -1.4 1.0 L-2.9 2.6 -2.7 1.75 -3.7 2.0 Q-1.6 0.7 -0.15 0.3 L-0.8 0.7" fill="url(#gradient7)" fill-rule="evenodd" stroke="none"/>
    <path d="M-0.05 8.7 L-0.15 9.6 -0.45 6.85 -0.45 6.4 -0.05 8.7" fill="url(#gradient8)" fill-rule="evenodd" stroke="none"/>
    <path d="M0.15 0.3 L0.15 1.2 0.05 1.25 0.1 3.8 0.1 3.85 0.5 10.55 0.25 10.55 -0.05 8.45 -0.05 8.7 -0.45 6.4 -0.6 5.55 -0.8 0.7 -0.15 0.3 0.15 0.3 M-0.3 3.1 L0.05 3.6 -0.35 1.65 -0.3 3.1" fill="url(#gradient9)" fill-rule="evenodd" stroke="none"/>
    <path d="M-0.3 3.1 L-0.35 1.65 0.05 3.6 -0.3 3.1" fill="#bd8f64" fill-rule="evenodd" stroke="none"/>
    <path d="M0.25 10.55 L-0.05 8.7 -0.05 8.45 0.25 10.55" fill="url(#gradient10)" fill-rule="evenodd" stroke="none"/>
    <path d="M2.1 3.95 L3.55 4.7 2.2 4.4 2.1 3.95" fill="url(#gradient11)" fill-rule="evenodd" stroke="none"/>
    <path d="M0.25 3.75 L2.1 3.95 2.2 4.4 1.0 4.05 0.25 3.9 0.1 3.85 0.1 3.8 0.25 3.75" fill="url(#gradient12)" fill-rule="evenodd" stroke="none"/>
    <path d="M2.2 4.4 L2.5 5.15 1.0 4.05 2.2 4.4" fill="url(#gradient13)" fill-rule="evenodd" stroke="none"/>
  </g>
  <defs>
    <radialGradient cx="0" cy="0" gradientTransform="matrix(0.0129, 0.0, 0.0, 0.0129, -5.2, -8.2)" gradientUnits="userSpaceOnUse" id="gradient0" r="819.2" spreadMethod="pad">
      <stop offset="0.03137254901960784" stop-color="#21573c"/>
      <stop offset="0.9725490196078431" stop-color="#37413c"/>
    </radialGradient>
    <radialGradient cx="0" cy="0" gradientTransform="matrix(0.0095, 0.0, 0.0, 0.0095, -5.8, -5.9)" gradientUnits="userSpaceOnUse" id="gradient1" r="819.2" spreadMethod="pad">
      <stop offset="0.0" stop-color="#2a5a2a"/>
      <stop offset="1.0" stop-color="#102510"/>
    </radialGradient>
    <radialGradient cx="0" cy="0" gradientTransform="matrix(0.0055, 0.0, 0.0, 0.0055, -4.35, -0.55)" gradientUnits="userSpaceOnUse" id="gradient2" r="819.2" spreadMethod="pad">
      <stop offset="0.0" stop-color="#37413c"/>
      <stop offset="1.0" stop-color="#21573c"/>
    </radialGradient>
    <radialGradient cx="0" cy="0" gradientTransform="matrix(-0.0131, 6.0E-4, -4.0E-4, -0.0097, -0.2, 2.7)" gradientUnits="userSpaceOnUse" id="gradient3" r="819.2" spreadMethod="pad">
      <stop offset="0.0" stop-color="#a15617"/>
      <stop offset="1.0" stop-color="#5e3d21"/>
    </radialGradient>
    <radialGradient cx="0" cy="0" gradientTransform="matrix(0.0071, 0.0, 0.0, 0.0071, -4.7, -6.9)" gradientUnits="userSpaceOnUse" id="gradient4" r="819.2" spreadMethod="pad">
      <stop offset="0.0" stop-color="#688268"/>
      <stop offset="1.0" stop-color="#415249"/>
    </radialGradient>
    <radialGradient cx="0" cy="0" gradientTransform="matrix(-0.0131, 6.0E-4, -4.0E-4, -0.0097, -0.2, 2.7)" gradientUnits="userSpaceOnUse" id="gradient5" r="819.2" spreadMethod="pad">
      <stop offset="0.0" stop-color="#c29266"/>
      <stop offset="1.0" stop-color="#8c7055"/>
    </radialGradient>
    <radialGradient cx="0" cy="0" gradientTransform="matrix(-0.0131, 6.0E-4, -4.0E-4, -0.0097, -0.2, 2.7)" gradientUnits="userSpaceOnUse" id="gradient6" r="819.2" spreadMethod="pad">
      <stop offset="0.0" stop-color="#ffd1a6"/>
      <stop offset="1.0" stop-color="#967252"/>
    </radialGradient>
    <radialGradient cx="0" cy="0" gradientTransform="matrix(0.0055, 0.0, 0.0, 0.0055, -3.85, 0.55)" gradientUnits="userSpaceOnUse" id="gradient7" r="819.2" spreadMethod="pad">
      <stop offset="0.0" stop-color="#2a5a2a"/>
      <stop offset="1.0" stop-color="#102510"/>
    </radialGradient>
    <radialGradient cx="0" cy="0" gradientTransform="matrix(-0.0131, 6.0E-4, -4.0E-4, -0.0097, -0.2, 2.7)" gradientUnits="userSpaceOnUse" id="gradient8" r="819.2" spreadMethod="pad">
      <stop offset="0.0" stop-color="#ad835c"/>
      <stop offset="1.0" stop-color="#4d3c2f"/>
    </radialGradient>
    <radialGradient cx="0" cy="0" gradientTransform="matrix(0.0043, 0.0, 0.0, 0.0043, -1.6, 3.5)" gradientUnits="userSpaceOnUse" id="gradient9" r="819.2" spreadMethod="pad">
      <stop offset="0.0" stop-color="#cfab8a"/>
      <stop offset="1.0" stop-color="#967252"/>
    </radialGradient>
    <radialGradient cx="0" cy="0" gradientTransform="matrix(-0.0131, 6.0E-4, -4.0E-4, -0.0097, -0.2, 2.7)" gradientUnits="userSpaceOnUse" id="gradient10" r="819.2" spreadMethod="pad">
      <stop offset="0.0" stop-color="#a15617"/>
      <stop offset="1.0" stop-color="#402916"/>
    </radialGradient>
    <radialGradient cx="0" cy="0" gradientTransform="matrix(0.0016, 0.0, 0.0, 0.0016, 2.35, 4.35)" gradientUnits="userSpaceOnUse" id="gradient11" r="819.2" spreadMethod="pad">
      <stop offset="0.0" stop-color="#799079"/>
      <stop offset="1.0" stop-color="#273d27"/>
    </radialGradient>
    <radialGradient cx="0" cy="0" gradientTransform="matrix(0.0021, 0.0, 0.0, 0.0021, 0.9, 3.3)" gradientUnits="userSpaceOnUse" id="gradient12" r="819.2" spreadMethod="pad">
      <stop offset="0.0" stop-color="#799079"/>
      <stop offset="1.0" stop-color="#273d27"/>
    </radialGradient>
    <radialGradient cx="0" cy="0" gradientTransform="matrix(0.0014, 0.0, 0.0, 0.0014, 1.95, 4.65)" gradientUnits="userSpaceOnUse" id="gradient13" r="819.2" spreadMethod="pad">
      <stop offset="0.0" stop-color="#799079"/>
      <stop offset="1.0" stop-color="#273d27"/>
    </radialGradient>
  </defs>
</svg>
