<?xml version="1.0" encoding="UTF-8" standalone="no"?>
<svg xmlns:ffdec="https://www.free-decompiler.com/flash" xmlns:xlink="http://www.w3.org/1999/xlink" ffdec:objectType="shape" height="16.4px" width="12.3px" xmlns="http://www.w3.org/2000/svg">
  <g transform="matrix(1.0, 0.0, 0.0, 1.0, 6.1, 16.4)">
    <path d="M-0.15 -12.35 L-0.75 -11.95 -1.2 -11.8 Q-0.85 -12.4 -2.9 -12.15 L-0.5 -12.55 -0.15 -12.35 M1.6 -11.8 L1.65 -12.25 1.65 -11.7 1.6 -11.8 M4.8 -9.4 L5.1 -9.2 6.2 -8.75 3.95 -9.2 3.7 -9.55 3.3 -9.75 3.7 -9.65 4.8 -9.4 M3.85 -9.1 L4.85 -8.15 4.5 -8.2 3.1 -9.2 3.35 -9.15 3.85 -9.1 M2.55 -10.55 L2.3 -10.85 3.65 -10.5 2.55 -10.55 M1.95 -12.2 L1.65 -12.3 1.95 -12.2 M2.8 -7.95 L2.55 -8.05 1.9 -8.5 1.8 -8.7 2.25 -8.5 2.8 -7.95 M0.05 -9.2 L-0.05 -9.2 -0.05 -9.3 0.05 -9.2 M-0.45 -9.15 L-0.6 -8.95 -0.7 -8.9 -0.45 -9.15" fill="url(#gradient0)" fill-rule="evenodd" stroke="none"/>
    <path d="M-1.25 -13.65 L-1.05 -13.7 -1.0 -13.35 -1.7 -13.2 -2.35 -12.9 -1.25 -13.65 M-0.75 -12.95 L-0.5 -13.0 -0.5 -12.55 -0.75 -12.95 M-2.95 -9.65 L-2.9 -9.7 -2.8 -9.65 -2.95 -9.65" fill="url(#gradient1)" fill-rule="evenodd" stroke="none"/>
    <path d="M-1.6 -13.6 L-1.25 -13.65 -2.35 -12.9 -1.7 -13.2 -1.0 -13.35 -0.75 -12.95 -0.5 -12.55 -0.5 -13.0 0.5 -13.2 -0.15 -12.35 -0.5 -12.55 -2.9 -12.15 Q-3.05 -12.3 -1.65 -12.95 L-3.75 -12.45 -1.6 -13.6 M1.65 -12.3 L1.6 -12.65 3.45 -11.9 1.95 -12.2 1.65 -12.3 M4.5 -8.2 L2.8 -9.05 3.0 -9.25 3.1 -9.2 4.5 -8.2 M2.75 -8.25 L3.0 -7.9 2.8 -7.95 2.25 -8.5 2.75 -8.25 M-1.4 -9.35 L-1.9 -9.3 -1.35 -9.65 -1.35 -9.5 -1.3 -9.5 -1.4 -9.35 M-3.2 -9.15 L-3.85 -9.1 -2.95 -9.65 -2.8 -9.65 -3.2 -9.15 M3.7 -9.65 L3.35 -9.9 4.8 -9.4 3.7 -9.65 M2.7 -10.4 L2.55 -10.55 3.65 -10.5 2.7 -10.4 M-0.1 -9.35 L-0.05 -9.3 -0.1 -9.35" fill="url(#gradient2)" fill-rule="evenodd" stroke="none"/>
    <path d="M0.1 -9.15 L0.05 -8.95 -0.05 -9.2 0.05 -9.2 0.1 -9.15" fill="#36281d" fill-rule="evenodd" stroke="none"/>
    <path d="M0.55 -1.7 L0.45 -0.7 0.4 -1.85 0.55 -1.7 M0.6 -5.15 L0.55 -5.25 0.6 -5.3 0.6 -5.15" fill="url(#gradient3)" fill-rule="evenodd" stroke="none"/>
    <path d="M-4.05 -6.6 L-5.05 -6.65 -3.9 -6.95 -6.1 -6.95 -2.35 -7.35 -2.6 -7.0 -4.05 -6.6" fill="url(#gradient4)" fill-rule="evenodd" stroke="none"/>
    <path d="M3.2 -4.35 L2.85 -4.45 2.8 -4.5 3.2 -4.35" fill="url(#gradient5)" fill-rule="evenodd" stroke="none"/>
    <path d="M0.7 -4.9 L0.65 -5.05 0.95 -5.1 1.1 -4.85 0.7 -4.9 M1.85 -4.7 L1.4 -4.8 1.2 -4.8 1.15 -5.15 1.45 -5.1 1.85 -4.7" fill="url(#gradient6)" fill-rule="evenodd" stroke="none"/>
    <path d="M1.4 -4.8 L1.85 -4.7 2.0 -4.5 1.4 -4.8" fill="url(#gradient7)" fill-rule="evenodd" stroke="none"/>
    <path d="M0.45 -0.7 L0.15 -0.7 -0.1 -2.05 0.4 -1.85 0.45 -0.7 M-0.35 -2.1 L-0.1 -2.05 -0.3 -1.35 -0.35 -2.1" fill="url(#gradient8)" fill-rule="evenodd" stroke="none"/>
    <path d="M-3.0 -6.2 L-2.85 -6.65 -2.15 -6.95 -1.7 -7.05 -2.45 -6.45 -3.0 -6.2 M-2.95 -6.7 L-4.05 -6.6 -2.6 -7.0 -2.95 -6.7" fill="url(#gradient9)" fill-rule="evenodd" stroke="none"/>
    <path d="M0.15 -0.7 L-0.6 -0.75 -0.55 -1.95 -0.35 -2.1 -0.3 -1.35 -0.1 -2.05 0.15 -0.7 M-0.1 -2.05 L-0.1 -2.1 -0.1 -2.05" fill="url(#gradient10)" fill-rule="evenodd" stroke="none"/>
    <path d="M1.1 -13.6 L1.2 -15.8 2.6 -13.75 1.6 -14.85 1.1 -13.6 M2.65 -9.1 L2.7 -9.05 2.6 -9.15 2.65 -9.1" fill="url(#gradient11)" fill-rule="evenodd" stroke="none"/>
    <path d="M1.1 -13.6 L0.35 -13.7 Q-0.4 -13.95 -1.05 -13.7 L-1.25 -13.65 -1.6 -13.6 -0.45 -14.35 Q0.35 -14.85 1.25 -16.4 L3.15 -13.7 3.8 -12.85 2.05 -14.05 3.2 -12.8 3.05 -12.65 1.45 -13.95 1.1 -13.6 1.6 -14.85 2.6 -13.75 1.2 -15.8 1.1 -13.6 M-2.55 -11.55 L-0.55 -11.25 -1.05 -10.7 Q-2.9 -10.2 -3.8 -10.2 -2.75 -10.35 -1.6 -11.1 L-2.55 -11.55 M2.7 -9.05 L3.45 -7.9 2.75 -8.25 2.25 -8.5 1.8 -8.7 1.3 -9.65 2.6 -9.15 2.7 -9.05 M-2.45 -7.4 L-1.4 -9.35 -1.3 -9.5 -0.5 -9.75 -2.45 -7.4 M-1.9 -9.3 L-3.55 -8.35 -1.9 -9.9 -0.1 -10.7 -0.2 -10.55 -1.35 -9.65 -1.9 -9.3 M-0.3 -9.8 L0.3 -10.0 0.4 -9.9 0.15 -9.3 -0.3 -9.8" fill="url(#gradient12)" fill-rule="evenodd" stroke="none"/>
    <path d="M-1.05 -13.7 Q-0.4 -13.95 0.35 -13.7 L1.1 -13.6 1.45 -13.95 3.05 -12.65 1.35 -13.45 1.6 -12.65 1.65 -12.3 1.65 -12.25 1.6 -11.8 1.15 -12.9 0.0 -11.7 -0.55 -11.25 -2.55 -11.55 -1.2 -11.8 -0.75 -11.95 -0.15 -12.35 0.5 -13.2 -0.5 -13.0 -0.75 -12.95 -1.0 -13.35 -1.05 -13.7 M-2.2 -7.55 L-2.45 -7.4 -0.5 -9.75 -0.3 -9.8 0.15 -9.3 0.1 -9.15 0.05 -9.2 -0.05 -9.3 -0.1 -9.35 -0.45 -9.15 -0.7 -8.9 -2.1 -7.7 -2.2 -7.55 M-3.55 -8.35 L-3.2 -9.15 -2.8 -9.65 -2.9 -9.7 -4.95 -9.5 -4.2 -9.9 -4.1 -10.05 -3.8 -10.2 Q-2.9 -10.2 -1.05 -10.7 L-1.9 -9.9 -3.55 -8.35 M3.1 -9.2 L3.0 -9.25 2.7 -9.85 3.35 -9.15 3.1 -9.2" fill="url(#gradient13)" fill-rule="evenodd" stroke="none"/>
    <path d="M3.9 -4.65 L3.8 -4.35 4.2 -4.05 3.4 -4.3 2.65 -5.0 2.5 -5.5 3.25 -5.2 3.9 -4.65 M-1.75 -5.75 L-2.4 -5.5 -1.6 -6.2 -1.45 -6.2 -1.4 -6.2 -1.65 -5.9 -1.75 -5.75 M1.3 -5.75 L1.35 -5.75 1.65 -5.35 1.25 -5.75 1.3 -5.75" fill="url(#gradient14)" fill-rule="evenodd" stroke="none"/>
    <path d="M3.4 -4.3 L3.2 -4.35 2.8 -4.5 2.65 -5.0 3.4 -4.3 M2.55 -4.1 L2.2 -4.25 2.0 -4.5 1.85 -4.7 1.45 -5.1 1.15 -5.15 1.2 -4.8 1.25 -4.65 1.15 -4.7 1.1 -4.85 0.95 -5.1 0.8 -5.4 1.25 -5.75 1.65 -5.35 2.5 -4.25 2.55 -4.1" fill="url(#gradient15)" fill-rule="evenodd" stroke="none"/>
    <path d="M-2.95 -2.5 L-3.9 -2.45 -3.0 -2.75 -2.75 -2.8 -2.7 -2.8 -2.95 -2.5" fill="url(#gradient16)" fill-rule="evenodd" stroke="none"/>
    <path d="M2.8 -9.05 L2.65 -9.1 2.6 -9.15 1.3 -9.65 1.8 -8.7 1.9 -8.5 2.55 -8.05 2.8 -7.95 3.0 -7.9 4.05 -7.45 1.0 -7.6 0.85 -7.6 0.35 -8.35 0.05 -8.95 0.1 -9.15 0.15 -9.3 0.4 -9.9 0.3 -10.0 -0.3 -9.8 -0.5 -9.75 -1.3 -9.5 -1.35 -9.5 0.45 -10.55 0.8 -10.15 1.55 -10.1 2.95 -9.85 2.7 -9.85 3.0 -9.25 2.8 -9.05 M4.95 -5.9 L6.05 -5.0 3.9 -5.6 4.5 -4.5 4.5 -4.15 2.25 -7.0 3.25 -6.5 4.95 -5.9 M3.15 -3.4 L2.65 -4.0 2.75 -4.05 2.6 -4.1 2.5 -4.25 1.65 -5.35 1.35 -5.75 1.55 -6.15 1.6 -6.25 3.15 -3.4 M-1.6 -6.2 L-2.25 -6.15 -2.05 -6.25 -1.2 -6.5 -1.45 -6.2 -1.6 -6.2 M0.55 -5.25 L0.5 -5.35 1.1 -5.85 1.3 -5.75 1.25 -5.75 0.8 -5.4 0.6 -5.3 0.55 -5.25" fill="url(#gradient17)" fill-rule="evenodd" stroke="none"/>
    <path d="M-0.55 -11.25 L0.0 -11.7 1.15 -12.9 1.6 -11.8 1.65 -11.7 2.3 -10.85 2.55 -10.55 2.7 -10.4 3.35 -9.9 3.7 -9.65 3.3 -9.75 3.7 -9.55 3.95 -9.2 3.85 -9.1 3.35 -9.15 2.7 -9.85 2.95 -9.85 1.55 -10.1 0.8 -10.15 0.45 -10.55 -1.35 -9.5 -1.35 -9.65 -0.2 -10.55 -0.1 -10.7 -1.9 -9.9 -1.05 -10.7 -0.55 -11.25 M4.05 -7.45 L3.05 -7.2 Q3.95 -6.4 4.95 -5.9 L3.25 -6.5 2.25 -7.0 4.5 -4.15 3.9 -4.65 3.25 -5.2 2.5 -5.5 2.65 -5.0 2.8 -4.5 2.85 -4.45 3.15 -3.4 1.6 -6.25 1.55 -6.15 1.65 -6.45 2.8 -6.05 1.55 -6.85 1.0 -7.6 4.05 -7.45 M-1.3 -5.25 L-2.5 -4.95 -1.75 -5.75 -1.65 -5.9 -1.05 -6.15 -1.3 -5.25 M-2.25 -6.15 L-2.4 -6.15 -2.05 -6.25 -2.25 -6.15 M-2.65 -6.15 L-3.05 -6.2 -3.0 -6.2 -2.45 -6.45 -2.65 -6.15 M1.1 -12.35 L-0.7 -10.6 0.55 -11.5 0.8 -10.15 1.1 -12.35 M0.5 -5.35 L0.0 -6.25 1.1 -5.85 0.5 -5.35 M-1.4 -6.2 L-1.45 -6.2 -1.2 -6.5 -0.95 -6.6 -1.4 -6.2" fill="url(#gradient18)" fill-rule="evenodd" stroke="none"/>
    <path d="M0.85 -7.6 L1.0 -7.6 1.55 -6.85 0.85 -7.6 M1.1 -12.35 L0.8 -10.15 0.55 -11.5 -0.7 -10.6 1.1 -12.35 M-1.4 -6.2 L-0.95 -6.6 -1.05 -6.15 -1.65 -5.9 -1.4 -6.2" fill="url(#gradient19)" fill-rule="evenodd" stroke="none"/>
    <path d="M3.65 -2.5 L4.75 -1.6 2.6 -2.2 3.45 -0.7 3.2 -0.75 0.95 -3.6 1.95 -3.1 3.65 -2.5 M1.85 0.0 L0.55 -1.7 0.4 -1.85 -0.1 -2.05 -0.1 -2.1 -0.1 -2.05 -0.35 -2.1 -0.55 -1.95 -1.8 -1.15 -1.8 -1.2 0.3 -2.85 1.85 0.0 M-3.0 -2.75 L-3.55 -2.75 -2.15 -3.75 -2.75 -2.8 -3.0 -2.75 M-1.2 -5.05 L-1.3 -5.25 -1.05 -6.15 -0.95 -6.6 -1.2 -6.5 -2.05 -6.25 -2.4 -6.15 -2.65 -6.1 -0.85 -7.15 -0.75 -7.0 -0.75 -6.75 -0.5 -6.75 0.25 -6.7 1.65 -6.45 1.55 -6.15 1.35 -5.75 1.3 -5.75 1.1 -5.85 0.0 -6.25 0.5 -5.35 0.55 -5.25 0.6 -5.15 0.65 -5.05 0.7 -4.9 1.15 -4.7 1.25 -4.65 2.2 -4.25 2.55 -4.1 2.6 -4.1 2.75 -4.05 -0.3 -4.2 -1.15 -4.25 -0.85 -5.3 -1.2 -5.05" fill="url(#gradient20)" fill-rule="evenodd" stroke="none"/>
    <path d="M2.65 -4.0 L2.45 -3.95 Q1.95 -3.85 2.4 -3.35 2.85 -2.9 3.65 -2.5 L1.95 -3.1 0.95 -3.6 3.2 -0.75 1.05 -2.55 1.85 0.0 0.3 -2.85 -1.8 -1.2 -1.6 -2.15 -3.8 -1.55 -2.95 -2.5 -0.8 -3.45 -1.05 -2.5 0.3 -3.55 -0.3 -4.2 2.75 -4.05 2.65 -4.0 M-3.55 -2.75 L-4.35 -2.8 Q-4.25 -2.8 -2.9 -3.75 L-1.2 -5.05 -0.85 -5.3 -1.15 -4.25 -2.7 -2.8 -2.75 -2.8 -2.15 -3.75 -3.55 -2.75 M-2.65 -6.1 L-2.65 -6.15 -2.45 -6.45 -1.7 -7.05 -2.15 -6.95 -2.85 -6.65 -2.95 -6.7 -2.6 -7.0 -2.35 -7.35 -2.2 -7.55 -2.1 -7.7 -0.6 -8.95 -0.45 -9.15 -0.1 -9.35 -0.05 -9.3 -0.05 -9.2 0.05 -8.95 0.35 -8.35 0.85 -7.6 1.55 -6.85 2.8 -6.05 1.65 -6.45 0.25 -6.7 -0.5 -6.75 -0.2 -8.95 -2.0 -7.2 -0.75 -8.1 -0.75 -7.0 -0.85 -7.15 -2.65 -6.1" fill="url(#gradient21)" fill-rule="evenodd" stroke="none"/>
    <path d="M-0.5 -6.75 L-0.75 -6.75 -0.75 -7.0 -0.75 -8.1 -2.0 -7.2 -0.2 -8.95 -0.5 -6.75 M-0.3 -4.2 L0.3 -3.55 -1.05 -2.5 -0.8 -3.45 -2.95 -2.5 -2.7 -2.8 -1.15 -4.25 -0.3 -4.2" fill="url(#gradient22)" fill-rule="evenodd" stroke="none"/>
  </g>
  <defs>
    <radialGradient cx="0" cy="0" gradientTransform="matrix(0.0112, 0.001, -5.0E-4, 0.0061, -6.05, -11.85)" gradientUnits="userSpaceOnUse" id="gradient0" r="819.2" spreadMethod="pad">
      <stop offset="0.0" stop-color="#2a5a2a"/>
      <stop offset="1.0" stop-color="#102510"/>
    </radialGradient>
    <radialGradient cx="0" cy="0" gradientTransform="matrix(0.0084, 7.0E-4, -4.0E-4, 0.0045, -4.7, -12.4)" gradientUnits="userSpaceOnUse" id="gradient1" r="819.2" spreadMethod="pad">
      <stop offset="0.0" stop-color="#688268"/>
      <stop offset="1.0" stop-color="#415249"/>
    </radialGradient>
    <radialGradient cx="0" cy="0" gradientTransform="matrix(0.0153, 0.0014, -7.0E-4, 0.0083, -5.25, -13.3)" gradientUnits="userSpaceOnUse" id="gradient2" r="819.2" spreadMethod="pad">
      <stop offset="0.03137254901960784" stop-color="#21573c"/>
      <stop offset="0.9725490196078431" stop-color="#37413c"/>
    </radialGradient>
    <radialGradient cx="0" cy="0" gradientTransform="matrix(-0.0155, -0.001, 0.0, -0.0063, 0.05, -5.75)" gradientUnits="userSpaceOnUse" id="gradient3" r="819.2" spreadMethod="pad">
      <stop offset="0.0" stop-color="#a15617"/>
      <stop offset="1.0" stop-color="#5e3d21"/>
    </radialGradient>
    <radialGradient cx="0" cy="0" gradientTransform="matrix(0.0065, 6.0E-4, -3.0E-4, 0.0035, -4.65, -8.3)" gradientUnits="userSpaceOnUse" id="gradient4" r="819.2" spreadMethod="pad">
      <stop offset="0.0" stop-color="#37413c"/>
      <stop offset="1.0" stop-color="#21573c"/>
    </radialGradient>
    <radialGradient cx="0" cy="0" gradientTransform="matrix(0.0019, 2.0E-4, -1.0E-4, 0.001, 3.0, -4.45)" gradientUnits="userSpaceOnUse" id="gradient5" r="819.2" spreadMethod="pad">
      <stop offset="0.0" stop-color="#799079"/>
      <stop offset="1.0" stop-color="#273d27"/>
    </radialGradient>
    <radialGradient cx="0" cy="0" gradientTransform="matrix(0.0025, 2.0E-4, -1.0E-4, 0.0014, 1.3, -5.3)" gradientUnits="userSpaceOnUse" id="gradient6" r="819.2" spreadMethod="pad">
      <stop offset="0.0" stop-color="#799079"/>
      <stop offset="1.0" stop-color="#273d27"/>
    </radialGradient>
    <radialGradient cx="0" cy="0" gradientTransform="matrix(0.0016, 2.0E-4, -1.0E-4, 9.0E-4, 2.5, -4.35)" gradientUnits="userSpaceOnUse" id="gradient7" r="819.2" spreadMethod="pad">
      <stop offset="0.0" stop-color="#799079"/>
      <stop offset="1.0" stop-color="#273d27"/>
    </radialGradient>
    <radialGradient cx="0" cy="0" gradientTransform="matrix(-0.0155, -0.001, 0.0, -0.0063, 0.05, -5.75)" gradientUnits="userSpaceOnUse" id="gradient8" r="819.2" spreadMethod="pad">
      <stop offset="0.0" stop-color="#ad835c"/>
      <stop offset="1.0" stop-color="#4d3c2f"/>
    </radialGradient>
    <radialGradient cx="0" cy="0" gradientTransform="matrix(0.0065, 6.0E-4, -3.0E-4, 0.0035, -4.15, -7.55)" gradientUnits="userSpaceOnUse" id="gradient9" r="819.2" spreadMethod="pad">
      <stop offset="0.0" stop-color="#2a5a2a"/>
      <stop offset="1.0" stop-color="#102510"/>
    </radialGradient>
    <radialGradient cx="0" cy="0" gradientTransform="matrix(-0.0155, -0.001, 0.0, -0.0063, 0.05, -5.75)" gradientUnits="userSpaceOnUse" id="gradient10" r="819.2" spreadMethod="pad">
      <stop offset="0.0" stop-color="#a15617"/>
      <stop offset="1.0" stop-color="#402916"/>
    </radialGradient>
    <radialGradient cx="0" cy="0" gradientTransform="matrix(-0.0071, -6.0E-4, -2.0E-4, 0.0067, 4.6, -12.6)" gradientUnits="userSpaceOnUse" id="gradient11" r="819.2" spreadMethod="pad">
      <stop offset="0.0" stop-color="#688268"/>
      <stop offset="1.0" stop-color="#415249"/>
    </radialGradient>
    <radialGradient cx="0" cy="0" gradientTransform="matrix(-0.0129, -0.0011, -3.0E-4, 0.0122, 5.1, -13.8)" gradientUnits="userSpaceOnUse" id="gradient12" r="819.2" spreadMethod="pad">
      <stop offset="0.03137254901960784" stop-color="#21573c"/>
      <stop offset="0.9725490196078431" stop-color="#37413c"/>
    </radialGradient>
    <radialGradient cx="0" cy="0" gradientTransform="matrix(-0.0095, -8.0E-4, -2.0E-4, 0.009, 5.65, -11.55)" gradientUnits="userSpaceOnUse" id="gradient13" r="819.2" spreadMethod="pad">
      <stop offset="0.0" stop-color="#2a5a2a"/>
      <stop offset="1.0" stop-color="#102510"/>
    </radialGradient>
    <radialGradient cx="0" cy="0" gradientTransform="matrix(-0.0055, -5.0E-4, -1.0E-4, 0.0052, 4.1, -6.65)" gradientUnits="userSpaceOnUse" id="gradient14" r="819.2" spreadMethod="pad">
      <stop offset="0.0" stop-color="#37413c"/>
      <stop offset="1.0" stop-color="#21573c"/>
    </radialGradient>
    <radialGradient cx="0" cy="0" gradientTransform="matrix(-0.0055, -5.0E-4, -1.0E-4, 0.0052, 3.55, -5.65)" gradientUnits="userSpaceOnUse" id="gradient15" r="819.2" spreadMethod="pad">
      <stop offset="0.0" stop-color="#2a5a2a"/>
      <stop offset="1.0" stop-color="#102510"/>
    </radialGradient>
    <radialGradient cx="0" cy="0" gradientTransform="matrix(-0.0016, -1.0E-4, 0.0, 0.0015, -2.7, -2.6)" gradientUnits="userSpaceOnUse" id="gradient16" r="819.2" spreadMethod="pad">
      <stop offset="0.0" stop-color="#799079"/>
      <stop offset="1.0" stop-color="#273d27"/>
    </radialGradient>
    <radialGradient cx="0" cy="0" gradientTransform="matrix(0.0095, 8.0E-4, -0.0014, 0.0089, -4.05, -8.9)" gradientUnits="userSpaceOnUse" id="gradient17" r="819.2" spreadMethod="pad">
      <stop offset="0.0" stop-color="#2a5a2a"/>
      <stop offset="1.0" stop-color="#102510"/>
    </radialGradient>
    <radialGradient cx="0" cy="0" gradientTransform="matrix(0.0129, 0.0011, -0.0019, 0.0121, -3.1, -11.05)" gradientUnits="userSpaceOnUse" id="gradient18" r="819.2" spreadMethod="pad">
      <stop offset="0.03137254901960784" stop-color="#21573c"/>
      <stop offset="0.9725490196078431" stop-color="#37413c"/>
    </radialGradient>
    <radialGradient cx="0" cy="0" gradientTransform="matrix(0.0071, 6.0E-4, -0.001, 0.0066, -2.8, -9.75)" gradientUnits="userSpaceOnUse" id="gradient19" r="819.2" spreadMethod="pad">
      <stop offset="0.0" stop-color="#688268"/>
      <stop offset="1.0" stop-color="#415249"/>
    </radialGradient>
    <radialGradient cx="0" cy="0" gradientTransform="matrix(0.0095, 8.0E-4, -0.0014, 0.0089, -5.35, -5.5)" gradientUnits="userSpaceOnUse" id="gradient20" r="819.2" spreadMethod="pad">
      <stop offset="0.0" stop-color="#2a5a2a"/>
      <stop offset="1.0" stop-color="#102510"/>
    </radialGradient>
    <radialGradient cx="0" cy="0" gradientTransform="matrix(0.0129, 0.0011, -0.0019, 0.0121, -4.4, -7.65)" gradientUnits="userSpaceOnUse" id="gradient21" r="819.2" spreadMethod="pad">
      <stop offset="0.03137254901960784" stop-color="#21573c"/>
      <stop offset="0.9725490196078431" stop-color="#37413c"/>
    </radialGradient>
    <radialGradient cx="0" cy="0" gradientTransform="matrix(0.0071, 6.0E-4, -0.001, 0.0066, -4.1, -6.35)" gradientUnits="userSpaceOnUse" id="gradient22" r="819.2" spreadMethod="pad">
      <stop offset="0.0" stop-color="#688268"/>
      <stop offset="1.0" stop-color="#415249"/>
    </radialGradient>
  </defs>
</svg>
