<?xml version="1.0" encoding="UTF-8" standalone="no"?>
<svg xmlns:ffdec="https://www.free-decompiler.com/flash" xmlns:xlink="http://www.w3.org/1999/xlink" ffdec:objectType="shape" height="102.7px" width="54.9px" xmlns="http://www.w3.org/2000/svg">
  <g transform="matrix(1.0, 0.0, 0.0, 1.0, -46.6, -6.15)">
    <path d="M51.35 107.9 L51.35 108.85 47.8 108.85 47.8 103.8 48.6 103.8 48.6 107.9 51.35 107.9 M49.75 22.8 L49.75 23.75 47.4 23.75 47.4 18.7 48.2 18.7 48.2 22.8 49.75 22.8" fill="#e9e7ec" fill-rule="evenodd" stroke="none"/>
    <path d="M51.35 103.8 L51.35 107.9 48.6 107.9 48.6 103.8 51.35 103.8 M49.75 18.7 L49.75 22.8 48.2 22.8 48.2 18.7 49.75 18.7" fill="#7a7685" fill-rule="evenodd" stroke="none"/>
    <path d="M69.2 91.25 L69.2 90.0 101.5 90.0 101.5 92.55 99.15 92.55 99.15 91.9 69.65 91.9 69.2 91.25" fill="#a1a8b0" fill-rule="evenodd" stroke="none"/>
    <path d="M69.65 91.9 L99.15 91.9 99.15 92.55 99.15 92.95 68.1 92.95 68.1 91.9 69.65 91.9 M64.6 92.95 L51.35 92.95 51.35 95.1 48.6 95.1 48.6 92.4 49.85 92.4 64.6 92.4 64.6 92.95 M49.45 7.3 L49.75 7.3 49.75 10.0 48.2 10.0 48.2 7.3 49.45 7.3" fill="#969f9a" fill-rule="evenodd" stroke="none"/>
    <path d="M69.2 91.25 L69.65 91.9 68.1 91.9 68.1 92.95 64.6 92.95 64.6 92.4 49.85 92.4 49.85 91.25 69.2 91.25 M49.45 7.3 L49.45 6.15 49.75 6.15 49.75 7.3 49.45 7.3" fill="#d3d8db" fill-rule="evenodd" stroke="none"/>
    <path d="M51.35 95.1 L51.35 96.65 50.65 96.65 50.65 99.35 51.35 99.35 51.35 103.8 48.6 103.8 47.8 103.8 47.0 103.8 47.0 95.1 48.6 95.1 51.35 95.1 M49.75 10.0 L49.75 18.7 48.2 18.7 47.4 18.7 46.6 18.7 46.6 10.0 48.2 10.0 49.75 10.0 M48.05 11.55 L48.05 14.25 49.0 14.25 49.0 11.55 48.05 11.55 M48.45 96.65 L48.45 99.35 49.4 99.35 49.4 96.65 48.45 96.65" fill="#d4dada" fill-rule="evenodd" stroke="none"/>
    <path d="M51.35 96.65 L51.35 99.35 50.65 99.35 50.65 96.65 51.35 96.65 M48.05 11.55 L49.0 11.55 49.0 14.25 48.05 14.25 48.05 11.55 M48.45 96.65 L49.4 96.65 49.4 99.35 48.45 99.35 48.45 96.65" fill="#f0f8fa" fill-rule="evenodd" stroke="none"/>
  </g>
</svg>
