<?xml version="1.0" encoding="UTF-8" standalone="no"?>
<svg xmlns:ffdec="https://www.free-decompiler.com/flash" xmlns:xlink="http://www.w3.org/1999/xlink" ffdec:objectType="shape" height="4.05px" width="4.0px" xmlns="http://www.w3.org/2000/svg">
  <g transform="matrix(1.0, 0.0, 0.0, 1.0, 2.0, 2.0)">
    <path d="M0.45 -1.15 L0.55 -1.1 0.6 -1.05 0.65 -0.95 0.7 -0.85 0.7 -0.8 0.7 -0.7 0.7 -0.6 0.7 -0.55 0.65 -0.5 0.65 -0.45 0.65 -0.35 0.6 -0.3 0.5 -0.2 0.45 -0.15 0.4 -0.15 0.35 -0.1 0.2 -0.1 0.1 -0.1 -0.1 -0.15 -0.2 -0.25 -0.25 -0.3 -0.35 -0.4 -0.35 -0.55 -0.35 -0.65 -0.35 -0.8 -0.35 -0.9 -0.35 -0.95 -0.3 -1.0 -0.25 -1.05 -0.15 -1.15 -0.1 -1.15 -0.1 -1.2 0.1 -1.2 0.2 -1.2 0.35 -1.2 0.4 -1.2 0.45 -1.15" fill="#ffffff" fill-rule="evenodd" stroke="none"/>
    <path d="M-1.75 -1.55 L-1.9 -1.6 -2.0 -1.75 -1.9 -1.95 -1.75 -2.0 1.8 -2.0 1.95 -1.95 2.0 -1.75 2.0 1.8 1.95 1.95 1.8 2.05 1.65 1.95 1.6 1.8 1.6 -1.55 -1.75 -1.55" fill="#666c78" fill-rule="evenodd" stroke="none"/>
    <path d="M-1.75 -1.55 L1.6 -1.55 1.6 1.8 1.65 1.95 -1.75 1.95 -1.75 -1.55 M-0.15 -1.15 L-0.85 -1.15 -0.85 1.2 1.35 1.2 1.35 -1.15 0.45 -1.15 0.4 -1.2 0.35 -1.2 0.2 -1.2 0.1 -1.2 -0.1 -1.2 -0.1 -1.15 -0.15 -1.15" fill="#e1dbcf" fill-rule="evenodd" stroke="none"/>
    <path d="M-0.15 -1.15 L-0.25 -1.05 -0.3 -1.0 -0.35 -0.95 -0.35 -0.9 -0.35 -0.8 -0.35 -0.65 -0.35 -0.55 -0.35 -0.4 -0.25 -0.3 -0.2 -0.25 -0.1 -0.15 0.1 -0.1 0.2 -0.1 0.35 -0.1 0.4 -0.15 0.45 -0.15 0.5 -0.2 0.6 -0.3 0.65 -0.35 0.65 -0.45 0.65 -0.5 0.7 -0.55 0.7 -0.6 0.7 -0.7 0.7 -0.8 0.7 -0.85 0.65 -0.95 0.6 -1.05 0.55 -1.1 0.45 -1.15 1.35 -1.15 1.35 1.2 -0.85 1.2 -0.85 -1.15 -0.15 -1.15" fill="#9e9f99" fill-rule="evenodd" stroke="none"/>
  </g>
</svg>
