<?xml version="1.0" encoding="UTF-8" standalone="no"?>
<svg xmlns:ffdec="https://www.free-decompiler.com/flash" xmlns:xlink="http://www.w3.org/1999/xlink" ffdec:objectType="shape" height="23.65px" width="72.1px" xmlns="http://www.w3.org/2000/svg">
  <g transform="matrix(1.0, 0.0, 0.0, 1.0, 0.0, -1.55)">
    <path d="M43.95 25.2 L9.3 25.2 9.3 24.35 23.55 24.35 23.55 23.6 24.6 23.4 25.65 23.35 34.0 24.0 42.35 24.1 43.85 24.1 43.95 25.2" fill="#50523a" fill-rule="evenodd" stroke="none"/>
    <path d="M9.3 23.35 L8.55 23.35 8.55 22.25 9.3 22.25 9.3 23.35 M7.9 6.2 L9.3 6.2 9.3 13.05 8.4 13.05 8.4 10.1 1.9 10.1 1.9 7.6 2.95 7.6 2.95 9.1 6.15 9.1 6.15 7.6 7.9 7.6 7.9 6.65 7.9 6.2 M1.9 16.8 L8.4 16.8 8.4 15.75 9.3 15.75 9.3 19.45 8.55 19.45 8.55 17.35 1.9 17.35 1.9 16.8" fill="#4a564c" fill-rule="evenodd" stroke="none"/>
    <path d="M1.85 23.35 L0.5 23.35 0.5 6.65 7.9 6.65 7.9 7.6 6.15 7.6 6.15 7.3 4.55 7.35 2.95 7.6 1.9 7.6 1.9 10.1 1.9 16.8 1.9 17.35 1.85 17.35 1.85 18.75 1.85 23.35" fill="#949982" fill-rule="evenodd" stroke="none"/>
    <path d="M9.3 13.05 L9.3 6.2 10.15 6.3 10.15 23.35 9.3 23.35 9.3 22.25 9.8 22.25 9.8 19.45 9.3 19.45 9.3 15.75 9.95 15.75 9.95 13.05 9.3 13.05" fill="#5b5e4d" fill-rule="evenodd" stroke="none"/>
    <path d="M8.55 23.35 L8.55 24.05 1.85 24.05 1.85 23.35 1.85 18.75 1.9 17.35 8.55 17.35 8.55 19.45 5.4 19.45 5.4 22.25 8.55 22.25 8.55 23.35 M1.9 10.1 L8.4 10.1 8.4 13.05 5.15 13.05 5.15 15.75 8.4 15.75 8.4 16.8 1.9 16.8 1.9 10.1" fill="#313d2f" fill-rule="evenodd" stroke="none"/>
    <path d="M6.15 7.6 L6.15 9.1 2.95 9.1 2.95 7.6 6.15 7.6" fill="#afb59b" fill-rule="evenodd" stroke="none"/>
    <path d="M6.15 7.6 L2.95 7.6 4.55 7.35 6.15 7.3 6.15 7.6" fill="#9a9f82" fill-rule="evenodd" stroke="none"/>
    <path d="M50.4 14.4 L44.8 14.4 44.8 11.25 50.75 11.25 Q50.3 13.4 50.4 14.4" fill="#223023" fill-rule="evenodd" stroke="none"/>
    <path d="M51.55 9.25 L51.45 9.5 50.75 11.25 44.8 11.25 44.8 9.25 51.55 9.25 M47.5 14.85 L44.8 14.85 44.8 14.4 50.4 14.4 50.4 14.85 47.5 14.85" fill="#bcbeb1" fill-rule="evenodd" stroke="none"/>
    <path d="M67.7 17.8 L69.6 13.55 Q69.6 9.5 66.7 7.15 64.95 5.75 61.7 4.8 57.35 5.15 54.55 8.15 51.9 10.95 51.9 14.75 L52.6 17.3 Q53.45 19.95 54.1 20.95 L55.85 22.2 Q57.85 23.3 60.3 23.3 64.8 23.3 66.1 21.25 L66.35 20.7 67.2 20.7 65.1 22.6 Q63.15 23.9 60.3 23.9 55.65 23.9 52.95 20.4 51.3 18.25 50.4 14.85 L50.4 14.4 Q50.3 13.4 50.75 11.25 L51.45 9.5 53.95 6.6 Q55.45 5.3 57.15 4.65 58.6 4.1 60.3 4.1 64.45 4.1 67.65 7.1 71.8 11.0 69.55 17.6 L67.7 20.15 67.7 17.8 M0.5 23.35 L0.0 23.35 0.0 6.2 7.9 6.2 7.9 6.65 0.5 6.65 0.5 23.35" fill="#fbfde8" fill-rule="evenodd" stroke="none"/>
    <path d="M44.8 14.85 L44.8 25.2 43.95 25.2 43.85 24.1 43.85 6.3 10.15 6.3 9.3 6.2 9.3 5.55 44.8 5.55 44.8 9.25 44.8 11.25 44.8 14.4 44.8 14.85" fill="#575342" fill-rule="evenodd" stroke="none"/>
    <path d="M42.35 23.1 L40.75 23.1 27.5 22.2 27.5 7.5 42.35 7.5 42.35 23.1 M26.75 22.1 L11.05 22.1 11.05 7.25 Q19.6 7.25 24.05 9.1 26.25 10.05 26.75 10.95 L26.75 22.1 M40.75 8.5 L29.7 8.5 40.0 9.35 40.75 23.1 40.75 8.5 M24.0 10.25 L22.95 9.0 13.65 9.0 13.4 10.25 13.4 20.85 16.45 20.85 19.75 20.85 24.0 20.85 24.0 19.95 24.0 10.25" fill="#d6d7d2" fill-rule="evenodd" stroke="none"/>
    <path d="M9.3 24.35 L9.3 23.35 10.15 23.35 10.15 6.3 43.85 6.3 43.85 24.1 42.35 24.1 42.35 23.1 42.35 7.5 27.5 7.5 Q27.5 6.55 26.75 6.55 L26.75 10.95 Q26.25 10.05 24.05 9.1 19.6 7.25 11.05 7.25 L10.75 7.25 10.75 23.6 23.55 23.6 23.55 24.35 9.3 24.35" fill="#bdbeb8" fill-rule="evenodd" stroke="none"/>
    <path d="M42.35 24.1 L34.0 24.0 25.65 23.35 24.6 23.4 23.55 23.6 10.75 23.6 10.75 7.25 11.05 7.25 11.05 22.1 26.75 22.1 26.75 23.35 Q27.5 23.35 27.5 22.2 L40.75 23.1 42.35 23.1 42.35 24.1" fill="#9d9e94" fill-rule="evenodd" stroke="none"/>
    <path d="M40.75 8.5 L40.75 23.1 40.0 9.35 29.7 8.5 40.75 8.5 M24.0 10.25 L24.0 19.95 20.45 19.95 20.45 10.25 24.0 10.25 M13.9 10.25 L16.45 10.25 16.45 18.85 16.45 19.95 13.9 19.95 13.9 10.25 M17.3 10.25 L19.25 10.25 19.25 17.55 17.3 17.55 17.3 10.25" fill="#e7e7e4" fill-rule="evenodd" stroke="none"/>
    <path d="M24.0 19.95 L24.0 20.85 19.75 20.85 19.75 18.85 19.75 10.25 20.45 10.25 20.45 19.95 24.0 19.95 M16.45 20.85 L13.4 20.85 13.4 10.25 13.9 10.25 13.9 19.95 16.45 19.95 16.45 20.85 M16.95 10.25 L17.3 10.25 17.3 17.55 19.25 17.55 19.25 18.2 16.95 18.2 16.95 10.25" fill="#c1c2bc" fill-rule="evenodd" stroke="none"/>
    <path d="M16.45 10.25 L16.95 10.25 16.95 18.2 19.25 18.2 19.25 17.55 19.25 10.25 19.75 10.25 19.75 18.85 16.45 18.85 16.45 10.25" fill="#a0a398" fill-rule="evenodd" stroke="none"/>
    <path d="M27.5 22.2 Q27.5 23.35 26.75 23.35 L26.75 22.1 26.75 10.95 26.75 6.55 Q27.5 6.55 27.5 7.5 L27.5 22.2 M13.4 10.25 L13.65 9.0 22.95 9.0 24.0 10.25 20.45 10.25 19.75 10.25 19.25 10.25 17.3 10.25 16.95 10.25 16.45 10.25 13.9 10.25 13.4 10.25 M19.75 20.85 L16.45 20.85 16.45 19.95 16.45 18.85 19.75 18.85 19.75 20.85" fill="#77786d" fill-rule="evenodd" stroke="none"/>
    <path d="M67.7 17.8 L67.7 8.55 62.2 8.55 62.2 20.7 66.35 20.7 66.1 21.25 Q64.8 23.3 60.3 23.3 57.85 23.3 55.85 22.2 L54.1 20.95 Q53.45 19.95 52.6 17.3 L51.9 14.75 Q51.9 10.95 54.55 8.15 57.35 5.15 61.7 4.8 64.95 5.75 66.7 7.15 69.6 9.5 69.6 13.55 L67.7 17.8" fill="#dbccbd" fill-rule="evenodd" stroke="none"/>
    <path d="M52.95 20.4 Q49.15 18.35 47.85 15.6 L47.5 14.85 50.4 14.85 Q51.3 18.25 52.95 20.4" fill="#8c7e7e" fill-rule="evenodd" stroke="none"/>
    <path d="M51.55 9.25 Q52.45 7.0 53.65 5.4 54.75 3.95 56.15 3.1 58.55 1.55 62.25 1.55 65.8 1.55 68.75 4.15 72.1 7.05 72.1 11.5 L71.95 13.25 Q71.45 15.0 69.55 17.6 71.8 11.0 67.65 7.1 64.45 4.1 60.3 4.1 58.6 4.1 57.15 4.65 55.45 5.3 53.95 6.6 L51.45 9.5 51.55 9.25" fill="#aa9083" fill-rule="evenodd" stroke="none"/>
    <path d="M66.35 20.7 L62.2 20.7 62.2 8.55 67.7 8.55 67.7 17.8 67.7 20.15 67.7 20.7 67.2 20.7 66.35 20.7" fill="#e3d8ce" fill-rule="evenodd" stroke="none"/>
    <path d="M8.4 15.75 L5.15 15.75 5.15 13.05 8.4 13.05 8.4 15.75 M8.55 22.25 L5.4 22.25 5.4 19.45 8.55 19.45 8.55 22.25" fill="#f5a6a6" fill-rule="evenodd" stroke="none"/>
    <path d="M8.4 13.05 L9.3 13.05 9.95 13.05 9.95 15.75 9.3 15.75 8.4 15.75 8.4 13.05 M9.3 22.25 L8.55 22.25 8.55 19.45 9.3 19.45 9.8 19.45 9.8 22.25 9.3 22.25" fill="#804343" fill-rule="evenodd" stroke="none"/>
    <path d="M29.75 20.5 Q29.45 20.15 29.45 19.65 29.45 19.15 29.75 18.85 30.1 18.5 30.6 18.5 31.1 18.5 31.4 18.85 31.75 19.15 31.75 19.65 L31.4 20.5 Q31.1 20.8 30.6 20.8 30.1 20.8 29.75 20.5" fill="#595959" fill-rule="evenodd" stroke="none"/>
    <path d="M31.5 21.35 L31.4 21.35 31.15 21.45 30.6 21.55 Q29.8 21.55 29.25 21.0 28.7 20.45 28.7 19.65 28.7 18.85 29.25 18.3 29.6 17.95 30.05 17.8 L30.4 17.75 30.6 17.75 Q31.4 17.75 31.95 18.3 32.5 18.85 32.5 19.65 32.5 20.45 31.95 21.0 L31.5 21.35 M29.75 20.5 Q30.1 20.8 30.6 20.8 31.1 20.8 31.4 20.5 L31.75 19.65 Q31.75 19.15 31.4 18.85 31.1 18.5 30.6 18.5 30.1 18.5 29.75 18.85 29.45 19.15 29.45 19.65 29.45 20.15 29.75 20.5" fill="#e5eae4" fill-rule="evenodd" stroke="none"/>
    <path d="M31.5 21.35 L31.95 21.0 Q32.5 20.45 32.5 19.65 32.5 18.85 31.95 18.3 31.4 17.75 30.6 17.75 L30.4 17.75 34.4 16.8 35.2 16.6 Q35.9 16.6 36.35 17.1 36.85 17.55 36.85 18.25 36.85 18.95 36.35 19.45 36.05 19.75 35.65 19.85 L31.5 21.35" fill="#b8b6a5" fill-rule="evenodd" stroke="none"/>
    <path d="M66.2 8.6 Q68.55 10.95 68.5 14.15 68.45 17.4 66.15 19.65 63.85 21.95 60.65 21.95 57.45 21.95 55.1 19.6 52.8 17.3 52.85 14.05 52.85 10.85 55.15 8.55 L55.2 8.55 Q57.5 6.3 60.7 6.35 63.9 6.3 66.2 8.6 M68.25 14.15 Q68.25 11.05 66.0 8.8 63.8 6.6 60.7 6.6 57.6 6.6 55.35 8.75 53.15 10.95 53.1 14.05 53.1 17.2 55.3 19.4 57.55 21.65 60.65 21.7 63.75 21.65 65.95 19.45 L66.0 19.45 Q68.25 17.3 68.25 14.15" fill="#c72323" fill-rule="evenodd" stroke="none"/>
  </g>
</svg>
