<?xml version="1.0" encoding="UTF-8" standalone="no"?>
<svg xmlns:ffdec="https://www.free-decompiler.com/flash" xmlns:xlink="http://www.w3.org/1999/xlink" ffdec:objectType="shape" height="25.3px" width="3.1px" xmlns="http://www.w3.org/2000/svg">
  <g transform="matrix(1.0, 0.0, 0.0, 1.0, 1.05, 15.45)">
    <path d="M-0.55 1.75 L0.45 -15.05 0.9 -13.0 1.3 -15.4 1.4 -15.4 0.7 -6.65 2.0 -14.9 1.95 -14.1 1.65 -10.65 0.55 -4.8 0.5 -4.4 0.4 -2.1 -0.2 5.25 0.75 -0.2 0.35 9.85 -0.05 9.8 -0.15 6.4 -0.5 8.25 -0.55 1.75" fill="url(#gradient0)" fill-rule="evenodd" stroke="none"/>
    <path d="M-0.05 9.8 L-1.05 9.75 -0.55 1.75 -0.5 8.25 -0.15 6.4 -0.05 9.8 M1.4 -15.4 L2.05 -15.35 2.0 -14.9 0.7 -6.65 1.4 -15.4 M1.95 -14.1 L0.5 9.85 0.35 9.85 0.75 -0.2 1.65 -10.65 1.95 -14.1" fill="url(#gradient1)" fill-rule="evenodd" stroke="none"/>
    <path d="M0.4 -2.1 L0.8 -1.2 0.5 -4.4 0.55 -4.8 1.65 -10.65 0.75 -0.2 -0.2 5.25 0.4 -2.1" fill="url(#gradient2)" fill-rule="evenodd" stroke="none"/>
    <path d="M0.45 -15.05 L0.5 -15.45 1.3 -15.4 0.9 -13.0 0.45 -15.05" fill="url(#gradient3)" fill-rule="evenodd" stroke="none"/>
    <path d="M0.5 -4.4 L0.8 -1.2 0.4 -2.1 0.5 -4.4" fill="#bd8f64" fill-rule="evenodd" stroke="none"/>
  </g>
  <defs>
    <radialGradient cx="0" cy="0" gradientTransform="matrix(-0.0208, -0.0013, 9.0E-4, -0.0154, 0.55, -2.8)" gradientUnits="userSpaceOnUse" id="gradient0" r="819.2" spreadMethod="pad">
      <stop offset="0.0" stop-color="#c29266"/>
      <stop offset="1.0" stop-color="#8c7055"/>
    </radialGradient>
    <radialGradient cx="0" cy="0" gradientTransform="matrix(-0.0208, -0.0013, 9.0E-4, -0.0154, 0.55, -2.8)" gradientUnits="userSpaceOnUse" id="gradient1" r="819.2" spreadMethod="pad">
      <stop offset="0.0" stop-color="#a15617"/>
      <stop offset="1.0" stop-color="#5e3d21"/>
    </radialGradient>
    <radialGradient cx="0" cy="0" gradientTransform="matrix(-0.0208, -0.0013, 9.0E-4, -0.0154, 0.55, -2.8)" gradientUnits="userSpaceOnUse" id="gradient2" r="819.2" spreadMethod="pad">
      <stop offset="0.0" stop-color="#ffd1a6"/>
      <stop offset="1.0" stop-color="#967252"/>
    </radialGradient>
    <radialGradient cx="0" cy="0" gradientTransform="matrix(-0.0023, -1.0E-4, 1.0E-4, -0.0023, 0.75, -14.9)" gradientUnits="userSpaceOnUse" id="gradient3" r="819.2" spreadMethod="pad">
      <stop offset="0.0" stop-color="#ffd1a6"/>
      <stop offset="1.0" stop-color="#967252"/>
    </radialGradient>
  </defs>
</svg>
