<?xml version="1.0" encoding="UTF-8" standalone="no"?>
<svg xmlns:ffdec="https://www.free-decompiler.com/flash" xmlns:xlink="http://www.w3.org/1999/xlink" ffdec:objectType="shape" height="6.55px" width="7.95px" xmlns="http://www.w3.org/2000/svg">
  <g transform="matrix(1.0, 0.0, 0.0, 1.0, 4.0, 3.3)">
    <path d="M0.25 -0.9 Q1.8 -1.65 2.15 -1.5 2.2 -0.7 2.6 -0.35 L-1.3 1.85 Q-1.3 1.35 -1.75 1.05 -2.2 0.7 -2.85 0.7 L-2.5 0.6 -2.1 0.35 -0.2 -0.65 0.25 -0.9" fill="#ffffff" fill-rule="evenodd" stroke="none"/>
    <path d="M2.6 -0.35 Q2.2 -0.7 2.15 -1.5 1.8 -1.65 0.25 -0.9 L-1.9 -2.7 3.45 -2.7 3.45 1.65 3.25 1.65 2.3 1.6 1.15 1.4 Q1.75 1.4 2.2 0.9 L2.2 0.85 2.25 0.8 Q2.6 0.3 2.6 -0.35 M-0.2 -0.65 L-2.1 0.35 -2.1 -1.85 -0.2 -0.65" fill="#536571" fill-rule="evenodd" stroke="none"/>
    <path d="M3.25 1.65 L3.45 1.65 3.45 -2.7 -1.9 -2.7 -2.5 -3.2 -2.6 -3.25 3.95 -3.3 3.95 2.3 3.9 2.2 3.25 1.65" fill="#f4e8e8" fill-rule="evenodd" stroke="none"/>
    <path d="M-2.1 0.35 L-2.5 0.6 -2.5 -3.2 -1.9 -2.7 -2.1 -2.7 -2.1 -1.85 -2.1 0.35 M1.15 1.4 L2.3 1.6 3.25 1.65 3.9 2.2 -0.25 2.2 1.15 1.4" fill="#8ea0ac" fill-rule="evenodd" stroke="none"/>
    <path d="M0.25 -0.9 L-0.2 -0.65 -2.1 -1.85 -2.1 -2.7 -1.9 -2.7 0.25 -0.9" fill="#728896" fill-rule="evenodd" stroke="none"/>
    <path d="M-2.85 0.7 Q-2.2 0.7 -1.75 1.05 -1.3 1.35 -1.3 1.85 -1.3 2.5 -1.65 3.0 L-3.35 3.15 -3.7 2.95 -4.0 2.05 -3.7 1.15 -3.35 0.9 -2.85 0.7" fill="#030d04" fill-rule="evenodd" stroke="none"/>
    <path d="M-1.3 1.85 L2.6 -0.35 Q2.6 0.3 2.25 0.8 L2.2 0.85 2.2 0.9 Q1.75 1.4 1.15 1.4 L-0.25 2.2 -1.65 3.0 Q-1.3 2.5 -1.3 1.85" fill="#93979f" fill-rule="evenodd" stroke="none"/>
  </g>
</svg>
