<?xml version="1.0" encoding="UTF-8" standalone="no"?>
<svg xmlns:ffdec="https://www.free-decompiler.com/flash" xmlns:xlink="http://www.w3.org/1999/xlink" ffdec:objectType="shape" height="19.05px" width="32.9px" xmlns="http://www.w3.org/2000/svg">
  <g transform="matrix(1.0, 0.0, 0.0, 1.0, -5.0, -4.35)">
    <path d="M36.45 6.0 L37.0 5.7 36.85 7.4 36.45 6.0" fill="url(#gradient0)" fill-rule="evenodd" stroke="none"/>
    <path d="M36.4 10.2 L36.45 6.0 36.85 7.4 37.0 5.7 37.1 5.7 37.0 10.2 36.4 10.2 M37.55 6.0 L37.55 6.6 37.45 9.0 37.3 10.2 37.15 10.2 37.55 6.0 M37.3 23.4 L37.0 23.4 36.8 21.0 36.65 22.3 36.35 17.75 36.35 16.65 36.85 16.65 36.75 20.2 37.2 16.65 37.25 16.65 37.3 23.4 M37.05 11.15 L37.2 11.15 37.1 11.8 37.05 11.8 37.05 11.15 M36.9 16.35 L36.35 16.35 36.35 16.3 36.9 16.3 36.9 16.35" fill="url(#gradient1)" fill-rule="evenodd" stroke="none"/>
    <path d="M37.1 5.7 L37.55 6.0 37.15 10.2 37.0 10.2 37.1 5.7 M37.55 6.6 L37.5 10.2 37.4 10.2 37.45 9.0 37.55 6.6 M37.5 11.15 L37.5 11.8 37.35 11.8 37.4 11.15 37.5 11.15 M37.5 12.5 L37.5 13.15 37.35 13.15 37.35 12.5 37.5 12.5 M37.5 13.85 L37.5 14.35 37.3 14.35 37.35 13.85 37.5 13.85 M37.5 15.05 L37.5 15.65 37.3 15.65 37.3 15.05 37.5 15.05 M37.5 16.3 L37.3 23.4 37.25 16.65 37.25 16.35 37.25 16.3 37.5 16.3 M37.0 23.4 L36.3 23.4 36.35 17.75 36.65 22.3 36.8 21.0 37.0 23.4" fill="url(#gradient2)" fill-rule="evenodd" stroke="none"/>
    <path d="M37.05 12.5 L37.35 12.5 37.35 13.15 37.05 13.15 37.05 12.5 M37.4 10.2 L37.3 10.2 37.45 9.0 37.4 10.2 M37.4 11.15 L37.35 11.8 37.1 11.8 37.2 11.15 37.4 11.15 M37.05 13.85 L37.35 13.85 37.3 14.35 37.05 14.35 37.05 13.85 M37.05 15.35 L37.2 15.65 37.15 15.05 37.3 15.05 37.3 15.65 37.2 15.65 37.05 15.65 37.05 15.35 M36.85 16.65 L37.2 16.65 36.75 20.2 36.85 16.65 M37.25 16.35 L36.9 16.35 36.9 16.3 37.25 16.3 37.25 16.35" fill="url(#gradient3)" fill-rule="evenodd" stroke="none"/>
    <path d="M37.05 15.35 L37.05 15.05 37.15 15.05 37.2 15.65 37.05 15.35" fill="#bd8f64" fill-rule="evenodd" stroke="none"/>
    <path d="M25.55 9.95 L25.85 9.95 Q25.5 11.05 25.65 11.55 L25.35 11.45 25.55 9.95 M26.4 9.95 L26.75 9.95 26.9 9.9 27.1 10.0 27.0 10.0 26.8 10.15 26.7 10.3 26.55 10.95 26.8 11.75 26.6 11.7 26.6 11.75 26.25 11.65 26.15 11.15 26.4 9.95 M27.35 9.95 L27.7 9.95 27.5 11.15 27.75 12.0 27.6 12.0 27.35 11.75 27.3 11.75 27.2 11.0 27.25 10.3 27.3 10.3 27.35 10.2 27.35 10.0 27.3 10.0 27.35 9.95 M28.25 9.95 L28.4 9.95 28.3 10.85 Q28.3 11.85 28.45 12.0 L28.3 12.0 28.1 11.65 28.05 10.85 28.15 10.05 28.25 9.95" fill="url(#gradient4)" fill-rule="evenodd" stroke="none"/>
    <path d="M27.6 15.0 L27.7 15.0 Q27.4 15.95 27.75 17.05 L27.4 17.05 Q27.1 16.95 27.1 15.95 L27.15 15.25 27.2 15.25 27.35 15.15 27.45 15.1 27.6 15.0 M28.25 15.0 L28.4 15.0 28.35 15.7 28.45 17.05 28.3 17.05 Q28.05 16.85 28.05 15.85 L28.15 15.05 28.25 15.0 M28.7 15.2 L28.7 16.9 28.6 15.95 28.7 15.2 M26.8 17.05 L26.4 17.05 26.15 16.0 26.25 15.35 26.6 15.25 26.45 15.9 26.8 17.05 M25.9 17.05 L25.55 17.05 25.35 16.0 25.4 15.5 25.65 15.45 Q25.55 16.1 25.9 17.05" fill="url(#gradient5)" fill-rule="evenodd" stroke="none"/>
    <path d="M24.4 14.55 L24.35 15.4 24.35 14.55 24.4 14.55 M23.75 15.4 L23.6 15.4 23.65 14.55 23.75 14.55 23.75 15.4 M23.6 11.55 L23.75 11.55 23.75 12.4 23.65 12.4 23.6 11.55 M24.35 11.55 L24.4 12.4 24.35 12.4 24.35 11.55" fill="#a6a6a6" fill-rule="evenodd" stroke="none"/>
    <path d="M24.35 15.4 L23.75 15.4 23.75 14.55 24.35 14.55 24.35 15.4 M23.75 11.55 L24.35 11.55 24.35 12.4 23.75 12.4 23.75 11.55" fill="#c8c8c8" fill-rule="evenodd" stroke="none"/>
    <path d="M27.6 14.65 L27.6 14.95 27.5 15.0 27.45 15.1 27.35 15.15 27.25 15.15 27.25 14.95 27.1 14.9 27.15 14.75 27.6 14.65 M27.6 12.0 L27.6 12.25 27.15 12.15 27.15 12.1 27.5 12.1 27.4 12.05 27.6 12.0 M27.3 11.8 L27.35 11.75 27.3 11.9 27.3 11.8" fill="#666666" fill-rule="evenodd" stroke="none"/>
    <path d="M27.6 14.95 L27.6 15.0 27.45 15.1 27.5 15.0 27.6 14.95 M27.35 11.75 L27.6 12.0 27.4 12.05 27.3 11.9 27.35 11.75 M25.95 11.65 L26.25 11.7 25.95 11.7 25.75 11.65 25.95 11.65 M27.2 15.25 L27.25 15.15 27.35 15.15 27.2 15.25 M27.25 14.95 L27.1 14.95 27.1 14.9 27.25 14.95" fill="#ffffff" fill-rule="evenodd" stroke="none"/>
    <path d="M17.6 16.15 L16.45 16.15 17.6 16.15 M16.3 16.15 L15.35 16.15 15.1 16.15 16.3 16.15 M11.45 16.15 L11.1 16.15 11.0 16.15 11.1 16.1 11.45 16.1 11.45 16.15 M11.1 10.85 L11.45 10.85 11.45 11.1 11.0 10.85 11.1 10.85 M15.35 10.85 L16.3 10.85 16.3 11.1 15.1 11.1 15.1 10.85 15.35 10.85 M16.45 10.85 L17.95 10.85 17.95 11.1 16.45 11.1 16.45 10.85 M18.15 10.85 L19.1 10.85 19.1 11.1 18.15 10.85 M21.45 10.85 L21.45 11.05 21.1 11.1 21.15 10.85 21.45 10.85 M13.8 11.1 L13.4 11.1 13.45 10.85 13.85 10.85 13.8 11.1 M12.05 11.1 L11.8 11.1 11.8 10.85 12.1 10.85 12.05 11.1 M10.5 11.1 L10.1 11.1 10.15 10.85 10.5 10.85 10.5 11.1 M20.5 10.85 L20.45 11.1 20.2 11.1 20.25 10.85 20.5 10.85 M22.75 11.05 L22.75 10.85 22.95 10.85 22.75 11.05 M22.4 10.85 L22.4 11.1 22.05 11.1 22.1 10.85 22.4 10.85 M14.75 10.85 L14.75 11.1 14.55 10.85 14.75 10.85 M19.75 10.85 L19.7 11.1 19.45 11.1 19.45 10.85 19.75 10.85 M8.3 11.1 L8.35 10.85 8.6 10.85 8.55 11.1 8.3 11.1 M9.6 10.85 L9.55 11.1 9.3 10.85 9.6 10.85 M7.55 16.1 L7.8 16.1 7.8 16.15 7.55 16.15 7.55 16.1 M8.3 16.1 L8.55 16.1 8.55 16.15 8.3 16.15 8.3 16.1 M9.35 16.1 L9.55 16.1 9.55 16.15 9.3 16.15 9.35 16.1 M10.1 16.1 L10.5 16.1 10.5 16.15 10.1 16.15 10.1 16.1 M11.8 16.1 L12.05 16.1 12.05 16.15 11.8 16.15 11.8 16.1 M12.55 16.1 L12.7 16.1 12.7 16.15 12.55 16.15 12.55 16.1 M13.4 16.15 L13.8 16.15 13.4 16.15 M14.6 16.15 L14.75 16.15 14.55 16.15 14.6 16.15" fill="#1e272f" fill-rule="evenodd" stroke="none"/>
    <path d="M24.4 14.4 L24.4 14.55 24.35 14.55 23.75 14.55 23.65 14.55 23.65 14.4 24.4 14.4 M24.4 12.4 L24.4 12.5 23.65 12.5 23.65 12.4 23.75 12.4 24.35 12.4 24.4 12.4" fill="#444444" fill-rule="evenodd" stroke="none"/>
    <path d="M19.75 9.95 L20.1 9.95 19.75 10.85 19.45 10.85 19.75 9.95 M20.65 9.95 L21.0 9.95 20.5 10.85 20.25 10.85 20.65 9.95 M21.6 9.95 L21.95 9.95 21.55 10.85 21.45 10.85 21.15 10.85 21.6 9.95 M22.5 9.95 L22.65 9.95 22.4 10.85 22.1 10.85 22.5 9.95 M22.95 10.15 L23.05 10.85 22.95 10.85 22.75 10.85 22.95 10.15" fill="url(#gradient6)" fill-rule="evenodd" stroke="none"/>
    <path d="M23.05 16.15 L22.95 16.9 22.75 16.15 23.05 16.15 M22.7 17.05 L22.55 17.05 22.05 16.15 22.4 16.15 22.7 17.05 M22.0 17.05 L21.65 17.05 21.1 16.15 21.5 16.15 22.0 17.05 M21.05 17.05 L20.65 17.05 20.2 16.15 20.45 16.15 21.05 17.05 M20.15 17.05 L19.75 17.05 19.45 16.15 19.7 16.15 20.15 17.05" fill="url(#gradient7)" fill-rule="evenodd" stroke="none"/>
    <path d="M7.85 9.95 L8.2 9.95 7.85 10.85 7.55 10.85 7.85 9.95 M8.75 9.95 L9.1 9.95 8.6 10.85 8.35 10.85 8.75 9.95 M9.7 9.95 L10.0 9.95 9.6 10.85 9.3 10.85 9.25 10.85 9.7 9.95 M10.55 9.95 L10.75 10.0 10.5 10.85 10.15 10.85 10.55 9.95 M11.05 10.2 L11.1 10.85 11.0 10.85 10.85 10.85 11.05 10.2" fill="url(#gradient8)" fill-rule="evenodd" stroke="none"/>
    <path d="M12.1 9.95 L12.45 9.95 12.1 10.85 11.8 10.85 12.1 9.95 M13.0 9.95 L13.3 9.95 12.8 10.85 12.7 10.85 12.6 10.85 13.0 9.95 M13.9 9.95 L14.25 9.95 13.85 10.85 13.45 10.85 13.9 9.95 M14.8 9.95 L15.0 10.0 14.75 10.85 14.55 10.85 14.4 10.85 14.8 9.95 M15.3 10.2 L15.35 10.85 15.1 10.85 15.3 10.2" fill="url(#gradient9)" fill-rule="evenodd" stroke="none"/>
    <path d="M11.1 16.15 L11.05 16.85 10.85 16.15 11.0 16.15 11.1 16.15 M10.8 17.05 L10.6 17.05 10.1 16.15 10.5 16.15 10.8 17.05 M10.05 17.05 L9.75 17.05 9.2 16.15 9.3 16.15 9.55 16.15 10.05 17.05 M9.15 17.05 L8.75 17.05 8.3 16.15 8.55 16.15 9.15 17.05 M8.25 17.05 L7.85 17.05 7.55 16.15 7.8 16.15 8.25 17.05" fill="url(#gradient10)" fill-rule="evenodd" stroke="none"/>
    <path d="M15.35 16.15 L15.3 16.85 15.1 16.15 15.35 16.15 M15.05 17.05 L14.85 17.05 14.35 16.15 14.55 16.15 14.75 16.15 15.05 17.05 M14.3 17.05 L13.95 17.05 13.4 16.15 13.8 16.15 14.3 17.05 M13.35 17.05 L13.0 17.05 12.55 16.15 12.7 16.15 12.75 16.15 13.35 17.05 M12.5 17.05 L12.1 17.05 11.8 16.15 12.05 16.15 12.5 17.05" fill="url(#gradient11)" fill-rule="evenodd" stroke="none"/>
    <path d="M16.45 16.15 L16.3 16.15 16.45 16.15 M12.75 11.1 L12.55 11.1 12.7 11.05 12.7 10.85 12.8 10.85 12.7 11.05 12.75 11.1 M33.85 12.45 L33.95 14.25 33.45 14.0 33.85 14.0 33.85 12.45 M9.7 14.45 L10.0 14.45 10.0 14.5 9.7 14.45 M12.2 14.45 L12.3 14.45 12.2 14.5 12.2 14.45 M17.95 14.45 L18.2 14.45 18.2 14.5 17.95 14.45 M9.25 16.1 L9.35 16.1 9.3 16.15 9.2 16.15 9.25 16.1 M10.85 16.1 L11.1 16.1 11.0 16.15 10.85 16.15 10.85 16.1 M14.35 16.15 L14.6 16.15 14.55 16.15 14.35 16.15 M12.7 16.15 L12.7 16.1 12.75 16.15 12.7 16.15" fill="#ab1b1b" fill-rule="evenodd" stroke="none"/>
    <path d="M18.2 14.45 L18.9 14.5 18.2 14.5 18.2 14.45" fill="#c74141" fill-rule="evenodd" stroke="none"/>
    <path d="M27.7 15.0 L27.85 14.95 27.75 15.05 27.65 15.9 27.7 16.7 27.9 17.05 27.75 17.05 Q27.4 15.95 27.7 15.0 M28.4 15.0 L28.5 14.95 28.4 15.9 28.55 17.05 28.45 17.05 28.35 15.7 28.4 15.0 M26.95 17.05 L26.8 17.05 26.45 15.9 26.6 15.25 26.7 15.1 26.9 14.95 26.8 15.05 26.7 15.9 26.75 16.7 26.95 17.05 M26.05 17.05 L25.9 17.05 Q25.55 16.1 25.65 15.45 L25.85 15.0 26.0 14.95 25.85 15.9 26.05 17.05 M25.3 17.05 L25.15 16.85 25.05 16.7 25.0 16.0 25.05 15.35 25.05 15.45 25.3 14.95 25.15 15.9 25.3 17.05 M22.8 17.05 L22.7 17.05 22.4 16.15 22.55 16.15 22.8 17.05 M22.15 17.05 L22.0 17.05 21.5 16.15 21.9 16.15 22.15 17.05 M21.2 17.05 L21.05 17.05 20.45 16.15 20.75 16.15 21.2 17.05 M20.3 17.05 L20.15 17.05 19.7 16.15 20.1 16.15 20.3 17.05 M19.5 17.05 L19.1 16.15 19.35 16.15 19.5 17.05 M15.15 17.05 L15.05 17.05 14.75 16.15 15.0 16.15 15.15 17.05 M14.45 17.05 L14.3 17.05 13.8 16.15 14.2 16.15 14.45 17.05 M13.5 17.05 L13.35 17.05 12.75 16.15 12.7 16.1 13.05 16.15 13.5 17.05 M12.65 17.05 L12.5 17.05 12.05 16.15 12.05 16.1 12.45 16.1 12.65 17.05 M11.85 17.05 L11.7 16.85 11.6 16.7 11.45 16.15 11.45 16.1 11.6 16.1 11.85 17.05 M10.9 17.05 L10.8 17.05 10.5 16.15 10.5 16.1 10.75 16.1 10.9 17.05 M10.2 17.05 L10.05 17.05 9.55 16.15 9.55 16.1 9.95 16.1 10.2 17.05 M9.3 17.05 L9.15 17.05 8.55 16.15 8.55 16.1 8.85 16.1 9.3 17.05 M8.4 17.05 L8.25 17.05 7.8 16.15 7.8 16.1 8.05 16.1 8.4 17.05 M7.6 17.05 L7.45 16.9 7.35 16.7 7.0 16.1 7.5 16.1 7.6 17.05 M6.75 11.25 L7.35 10.4 7.45 10.2 7.6 9.9 7.3 11.1 7.2 11.1 7.2 10.95 Q7.1 10.85 6.95 11.25 L6.75 11.25 M8.2 9.95 L8.35 9.9 8.2 11.1 7.8 11.1 7.85 10.85 8.2 9.95 M9.1 9.95 L9.25 9.9 9.05 11.1 8.55 11.1 8.6 10.85 9.1 9.95 M10.0 9.95 L10.15 9.9 9.95 11.1 9.55 11.1 9.6 10.85 10.0 9.95 M10.75 10.0 L10.85 9.9 10.65 11.1 10.5 11.1 10.5 10.85 10.75 10.0 M11.45 10.85 L11.6 10.4 11.65 10.2 11.85 9.9 11.55 11.1 11.45 11.1 11.45 10.85 M12.45 9.95 L12.6 9.9 12.45 11.1 12.05 11.1 12.1 10.85 12.45 9.95 M13.3 9.95 L13.45 9.9 13.25 11.1 12.75 11.1 12.7 11.05 12.8 10.85 13.3 9.95 M14.25 9.95 L14.4 9.9 14.2 11.1 13.8 11.1 13.85 10.85 14.25 9.95 M15.0 10.0 L15.1 9.9 14.9 11.1 14.75 11.1 14.75 10.85 15.0 10.0 M19.1 10.85 L19.5 9.9 19.25 11.15 19.1 11.15 19.1 11.1 19.1 10.85 M20.1 9.95 L20.25 9.9 20.1 11.15 19.7 11.15 19.7 11.1 19.75 10.85 20.1 9.95 M21.0 9.95 L21.15 9.9 20.95 11.15 20.45 11.15 20.45 11.1 20.5 10.85 21.0 9.95 M21.95 9.95 L22.1 9.9 21.9 11.15 21.5 11.15 21.45 11.05 21.55 10.85 21.95 9.95 M22.65 9.95 L22.75 9.9 22.55 11.15 22.4 11.15 22.4 11.1 22.4 10.85 22.65 9.95 M25.05 11.6 L25.05 10.4 25.15 10.2 25.3 9.9 Q25.15 11.0 25.3 12.0 L25.05 11.6 M25.85 9.95 L26.0 9.9 25.85 10.85 25.95 11.65 25.75 11.65 26.0 11.75 26.05 12.0 25.9 12.0 25.65 11.55 Q25.5 11.05 25.85 9.95 M27.7 9.95 L27.85 9.9 27.75 10.0 27.65 10.85 27.7 11.65 27.9 12.0 27.75 12.0 27.5 11.15 27.7 9.95 M28.4 9.95 L28.5 9.9 28.4 10.85 28.55 12.0 28.45 12.0 Q28.3 11.85 28.3 10.85 L28.4 9.95 M27.0 10.0 L26.9 10.1 26.8 10.95 26.85 11.75 27.0 12.0 27.05 12.05 27.05 12.1 26.9 12.1 26.8 11.75 26.55 10.95 26.7 10.3 26.8 10.15 27.0 10.0" fill="#333333" fill-rule="evenodd" stroke="none"/>
    <path d="M35.2 4.65 L35.6 6.05 35.75 4.35 35.85 4.35 35.7 10.2 35.2 10.45 35.15 10.45 35.2 4.65 M36.3 4.65 L36.3 5.25 36.2 7.65 35.9 10.2 35.75 10.2 36.3 4.65 M36.05 22.05 L35.75 22.05 35.55 19.65 35.4 20.95 35.1 16.4 35.1 16.3 35.6 16.3 35.6 16.35 35.55 16.65 35.5 18.85 35.8 16.65 36.0 16.65 36.05 22.05 M36.0 16.35 L35.85 16.35 35.85 16.3 36.0 16.3 36.0 16.35" fill="url(#gradient12)" fill-rule="evenodd" stroke="none"/>
    <path d="M35.7 10.2 L35.85 4.35 36.3 4.65 35.75 10.2 35.7 10.2 M36.3 5.25 L36.25 10.2 36.15 10.2 36.2 7.65 36.3 5.25 M36.2 16.65 L36.05 22.05 36.0 16.65 36.2 16.65 M35.75 22.05 L35.05 22.05 35.1 16.4 35.4 20.95 35.55 19.65 35.75 22.05 M36.2 16.35 L36.0 16.35 36.0 16.3 36.2 16.3 36.2 16.35" fill="url(#gradient13)" fill-rule="evenodd" stroke="none"/>
    <path d="M35.75 4.35 L35.6 6.05 35.2 4.65 35.75 4.35" fill="url(#gradient14)" fill-rule="evenodd" stroke="none"/>
    <path d="M36.15 10.2 L35.9 10.2 36.2 7.65 36.15 10.2 M35.85 16.35 L35.6 16.35 35.6 16.3 35.85 16.3 35.85 16.35 M35.55 16.65 L35.8 16.65 35.5 18.85 35.55 16.65" fill="url(#gradient15)" fill-rule="evenodd" stroke="none"/>
    <path d="M34.5 16.15 L33.55 16.15 33.55 14.7 34.05 14.7 34.05 12.15 33.55 12.15 33.55 10.75 34.5 10.75 34.5 11.15 37.05 11.15 37.05 11.8 35.8 11.85 34.55 12.0 34.5 12.0 37.05 12.5 37.05 13.15 35.8 13.2 34.55 13.35 34.5 13.35 37.05 13.85 37.05 14.35 35.8 14.4 34.55 14.55 34.5 14.55 37.05 15.05 37.05 15.35 37.05 15.65 35.8 15.7 34.5 15.85 34.5 16.15" fill="url(#gradient16)" fill-rule="evenodd" stroke="none"/>
    <path d="M33.45 14.0 L33.45 12.45 33.85 12.45 33.85 14.0 33.45 14.0" fill="url(#gradient17)" fill-rule="evenodd" stroke="none"/>
    <path d="M5.05 12.4 L5.1 12.4 5.05 12.4" fill="url(#gradient18)" fill-rule="evenodd" stroke="none"/>
    <path d="M35.2 10.45 L35.7 10.2 35.75 10.2 35.9 10.2 36.15 10.2 36.25 10.2 36.4 10.2 37.0 10.2 37.15 10.2 37.3 10.2 37.4 10.2 37.5 10.2 37.5 10.45 35.2 10.45 M36.35 16.65 L36.2 16.65 36.0 16.65 35.8 16.65 35.55 16.65 35.6 16.35 35.85 16.35 36.0 16.35 36.2 16.35 36.35 16.35 36.9 16.35 37.25 16.35 37.25 16.65 37.2 16.65 36.85 16.65 36.35 16.65" fill="#362212" fill-rule="evenodd" stroke="none"/>
    <path d="M22.1 9.9 L22.5 9.95 22.1 10.85 22.05 11.1 22.1 11.15 21.9 11.15 22.1 9.9" fill="url(#gradient19)" fill-rule="evenodd" stroke="none"/>
    <path d="M20.25 9.9 L20.65 9.95 20.25 10.85 20.2 11.1 20.25 11.15 20.1 11.15 20.25 9.9" fill="url(#gradient20)" fill-rule="evenodd" stroke="none"/>
    <path d="M21.15 9.9 L21.6 9.95 21.15 10.85 21.1 11.1 21.15 11.15 20.95 11.15 21.15 9.9" fill="url(#gradient21)" fill-rule="evenodd" stroke="none"/>
    <path d="M22.75 9.9 L22.95 10.15 22.75 10.85 22.75 11.05 22.75 11.15 22.55 11.15 22.75 9.9" fill="url(#gradient22)" fill-rule="evenodd" stroke="none"/>
    <path d="M25.3 9.9 L25.55 9.95 25.35 11.45 25.55 11.95 25.3 12.0 Q25.15 11.0 25.3 9.9" fill="url(#gradient23)" fill-rule="evenodd" stroke="none"/>
    <path d="M26.0 9.9 L26.4 9.95 26.15 11.15 26.25 11.65 26.25 11.7 25.95 11.65 25.85 10.85 26.0 9.9 M25.95 11.7 L26.25 11.7 26.4 12.0 26.05 12.0 26.0 11.75 25.95 11.7" fill="url(#gradient24)" fill-rule="evenodd" stroke="none"/>
    <path d="M27.85 9.9 L28.25 9.95 28.15 10.05 28.05 10.85 28.1 11.65 28.3 12.0 27.9 12.0 27.7 11.65 27.65 10.85 27.75 10.0 27.85 9.9" fill="url(#gradient25)" fill-rule="evenodd" stroke="none"/>
    <path d="M28.5 9.9 L28.7 10.15 28.6 11.15 28.7 11.85 28.55 12.0 28.4 10.85 28.5 9.9" fill="url(#gradient26)" fill-rule="evenodd" stroke="none"/>
    <path d="M28.5 14.95 L28.7 15.2 28.6 15.95 28.7 16.9 28.55 17.05 28.4 15.9 28.5 14.95" fill="url(#gradient27)" fill-rule="evenodd" stroke="none"/>
    <path d="M27.85 14.95 L28.25 15.0 28.15 15.05 28.05 15.85 Q28.05 16.85 28.3 17.05 L27.9 17.05 27.7 16.7 27.65 15.9 27.75 15.05 27.85 14.95" fill="url(#gradient28)" fill-rule="evenodd" stroke="none"/>
    <path d="M26.4 17.05 L26.05 17.05 25.85 15.9 26.0 14.95 26.4 15.0 26.25 15.35 26.15 16.0 26.4 17.05" fill="url(#gradient29)" fill-rule="evenodd" stroke="none"/>
    <path d="M27.4 17.05 L26.95 17.05 26.75 16.7 26.7 15.9 26.8 15.05 26.9 14.95 26.95 14.95 27.1 14.95 27.25 14.95 27.25 15.15 27.2 15.25 27.15 15.25 27.1 15.95 Q27.1 16.95 27.4 17.05" fill="url(#gradient30)" fill-rule="evenodd" stroke="none"/>
    <path d="M22.55 17.05 L22.15 17.05 21.9 16.15 22.05 16.15 22.55 17.05" fill="url(#gradient31)" fill-rule="evenodd" stroke="none"/>
    <path d="M25.55 17.05 L25.3 17.05 25.15 15.9 25.3 14.95 25.5 15.1 25.4 15.5 25.35 16.0 25.55 17.05" fill="url(#gradient32)" fill-rule="evenodd" stroke="none"/>
    <path d="M19.5 9.9 L19.75 9.95 19.45 10.85 19.45 11.1 19.45 11.15 19.25 11.15 19.5 9.9" fill="url(#gradient33)" fill-rule="evenodd" stroke="none"/>
    <path d="M20.65 17.05 L20.3 17.05 20.1 16.15 20.2 16.15 20.65 17.05" fill="url(#gradient34)" fill-rule="evenodd" stroke="none"/>
    <path d="M21.65 17.05 L21.2 17.05 20.75 16.15 21.1 16.15 21.65 17.05" fill="url(#gradient35)" fill-rule="evenodd" stroke="none"/>
    <path d="M22.95 16.9 L22.8 17.05 22.55 16.15 22.75 16.15 22.95 16.9" fill="url(#gradient36)" fill-rule="evenodd" stroke="none"/>
    <path d="M11.85 9.9 L12.1 9.95 11.8 10.85 11.8 11.1 11.55 11.1 11.85 9.9" fill="url(#gradient37)" fill-rule="evenodd" stroke="none"/>
    <path d="M10.15 9.9 L10.55 9.95 10.15 10.85 10.1 11.1 9.95 11.1 10.15 9.9" fill="url(#gradient38)" fill-rule="evenodd" stroke="none"/>
    <path d="M12.6 9.9 L13.0 9.95 12.6 10.85 12.55 11.1 12.45 11.1 12.6 9.9" fill="url(#gradient39)" fill-rule="evenodd" stroke="none"/>
    <path d="M14.4 9.9 L14.8 9.95 14.4 10.85 14.35 11.1 14.2 11.1 14.4 9.9" fill="url(#gradient40)" fill-rule="evenodd" stroke="none"/>
    <path d="M13.45 9.9 L13.9 9.95 13.45 10.85 13.4 11.1 13.25 11.1 13.45 9.9" fill="url(#gradient41)" fill-rule="evenodd" stroke="none"/>
    <path d="M15.1 9.9 L15.3 10.2 15.1 10.85 15.1 11.1 14.9 11.1 15.1 9.9" fill="url(#gradient42)" fill-rule="evenodd" stroke="none"/>
    <path d="M9.25 9.9 L9.7 9.95 9.25 10.85 9.3 11.1 9.05 11.1 9.25 9.9" fill="url(#gradient43)" fill-rule="evenodd" stroke="none"/>
    <path d="M19.75 17.05 L19.5 17.05 19.35 16.15 19.45 16.15 19.75 17.05" fill="url(#gradient44)" fill-rule="evenodd" stroke="none"/>
    <path d="M13.95 17.05 L13.5 17.05 13.05 16.15 13.4 16.15 13.95 17.05" fill="url(#gradient45)" fill-rule="evenodd" stroke="none"/>
    <path d="M14.85 17.05 L14.45 17.05 14.2 16.15 14.35 16.15 14.85 17.05" fill="url(#gradient46)" fill-rule="evenodd" stroke="none"/>
    <path d="M12.1 17.05 L11.85 17.05 11.6 16.1 11.8 16.1 11.8 16.15 12.1 17.05" fill="url(#gradient47)" fill-rule="evenodd" stroke="none"/>
    <path d="M13.0 17.05 L12.65 17.05 12.45 16.1 12.55 16.1 12.55 16.15 13.0 17.05" fill="url(#gradient48)" fill-rule="evenodd" stroke="none"/>
    <path d="M15.3 16.85 L15.15 17.05 15.0 16.15 15.1 16.15 15.3 16.85" fill="url(#gradient49)" fill-rule="evenodd" stroke="none"/>
    <path d="M35.15 10.45 L35.2 10.45 37.5 10.45 37.9 10.65 34.55 10.65 35.15 10.45 M37.5 11.8 L37.9 12.0 34.55 12.0 35.8 11.85 37.05 11.8 37.1 11.8 37.35 11.8 37.5 11.8 M37.5 13.15 L37.9 13.35 34.55 13.35 35.8 13.2 37.05 13.15 37.35 13.15 37.5 13.15 M37.5 14.35 L37.9 14.55 34.55 14.55 35.8 14.4 37.05 14.35 37.3 14.35 37.5 14.35 M37.5 15.65 L37.9 15.85 34.5 15.85 35.8 15.7 37.05 15.65 37.2 15.65 37.3 15.65 37.5 15.65" fill="#4d4d4d" fill-rule="evenodd" stroke="none"/>
    <path d="M37.9 10.65 L37.5 11.15 37.4 11.15 37.2 11.15 37.05 11.15 34.5 11.15 34.5 10.75 34.55 10.65 37.9 10.65" fill="url(#gradient50)" fill-rule="evenodd" stroke="none"/>
    <path d="M37.9 12.0 L37.5 12.5 37.35 12.5 37.05 12.5 34.5 12.0 34.55 12.0 37.9 12.0" fill="url(#gradient51)" fill-rule="evenodd" stroke="none"/>
    <path d="M37.9 14.55 L37.5 15.05 37.3 15.05 37.15 15.05 37.05 15.05 34.5 14.55 34.55 14.55 37.9 14.55" fill="url(#gradient52)" fill-rule="evenodd" stroke="none"/>
    <path d="M37.9 15.85 L37.5 16.3 37.25 16.3 36.9 16.3 36.35 16.3 36.2 16.3 36.0 16.3 35.85 16.3 35.6 16.3 35.1 16.3 34.5 16.15 34.5 15.85 37.9 15.85" fill="url(#gradient53)" fill-rule="evenodd" stroke="none"/>
    <path d="M37.9 13.35 L37.5 13.85 37.35 13.85 37.05 13.85 34.5 13.35 34.55 13.35 37.9 13.35" fill="url(#gradient54)" fill-rule="evenodd" stroke="none"/>
    <path d="M10.85 9.9 L11.05 10.2 10.85 10.85 10.9 11.1 10.65 11.1 10.85 9.9" fill="url(#gradient55)" fill-rule="evenodd" stroke="none"/>
    <path d="M7.6 9.9 L7.85 9.95 7.55 10.85 7.55 10.95 7.6 11.1 7.3 11.1 7.6 9.9" fill="url(#gradient56)" fill-rule="evenodd" stroke="none"/>
    <path d="M8.35 9.9 L8.75 9.95 8.35 10.85 8.3 11.1 8.2 11.1 8.35 9.9" fill="url(#gradient57)" fill-rule="evenodd" stroke="none"/>
    <path d="M7.85 17.05 L7.6 17.05 7.5 16.1 7.55 16.1 7.55 16.15 7.85 17.05" fill="url(#gradient58)" fill-rule="evenodd" stroke="none"/>
    <path d="M8.75 17.05 L8.4 17.05 8.05 16.1 8.3 16.1 8.3 16.15 8.75 17.05" fill="url(#gradient59)" fill-rule="evenodd" stroke="none"/>
    <path d="M9.75 17.05 L9.3 17.05 8.85 16.1 9.25 16.1 9.2 16.15 9.75 17.05" fill="url(#gradient60)" fill-rule="evenodd" stroke="none"/>
    <path d="M11.05 16.85 L10.9 17.05 10.75 16.1 10.85 16.1 10.85 16.15 11.05 16.85" fill="url(#gradient61)" fill-rule="evenodd" stroke="none"/>
    <path d="M10.6 17.05 L10.2 17.05 9.95 16.1 10.1 16.1 10.1 16.15 10.6 17.05" fill="url(#gradient62)" fill-rule="evenodd" stroke="none"/>
    <path d="M26.9 9.9 L27.35 9.95 27.3 10.0 27.1 10.0 26.9 9.9 M25.75 11.65 L25.95 11.7 26.0 11.75 25.75 11.65" fill="#9d1c1c" fill-rule="evenodd" stroke="none"/>
    <path d="M6.9 13.7 L6.9 12.9 18.85 12.9 18.85 13.7 18.85 13.8 6.9 13.8 6.9 13.7" fill="url(#gradient63)" fill-rule="evenodd" stroke="none"/>
    <path d="M5.0 13.7 L5.05 12.4 5.1 12.4 9.7 12.6 17.95 12.6 18.2 12.6 18.9 12.25 20.95 12.5 20.95 12.85 20.95 13.7 20.6 13.7 20.6 12.5 20.3 12.5 19.25 12.5 19.25 13.7 18.85 13.7 18.85 12.9 6.9 12.9 6.9 13.7 5.0 13.7" fill="url(#gradient64)" fill-rule="evenodd" stroke="none"/>
    <path d="M5.1 14.6 L5.0 13.7 6.9 13.7 6.9 13.8 6.9 14.15 18.85 14.15 18.85 13.8 18.85 13.7 19.25 13.7 19.25 14.05 19.25 14.3 20.6 14.3 20.6 13.7 20.95 13.7 20.95 13.75 20.95 14.05 20.95 14.4 20.95 14.75 18.9 14.65 18.9 14.5 18.2 14.45 17.95 14.45 12.3 14.45 12.2 14.45 10.0 14.45 9.7 14.45 5.1 14.6" fill="url(#gradient65)" fill-rule="evenodd" stroke="none"/>
    <path d="M20.3 12.5 L20.3 14.05 19.25 14.05 19.25 13.7 19.25 12.5 20.3 12.5" fill="url(#gradient66)" fill-rule="evenodd" stroke="none"/>
    <path d="M28.5 13.65 L28.5 13.75 20.95 13.75 20.95 13.7 20.95 12.85 28.5 12.85 28.5 13.65" fill="url(#gradient67)" fill-rule="evenodd" stroke="none"/>
    <path d="M29.95 14.4 L29.95 14.7 28.55 14.65 27.7 14.4 25.0 14.4 24.4 14.4 23.65 14.4 23.5 14.4 20.95 14.4 20.95 14.05 28.5 14.05 28.5 13.75 28.5 13.65 28.75 13.65 29.5 13.75 29.7 13.65 29.95 13.65 29.95 13.75 29.95 14.05 29.95 14.4" fill="url(#gradient68)" fill-rule="evenodd" stroke="none"/>
    <path d="M24.4 12.5 L25.0 12.5 26.55 12.45 28.55 12.25 29.95 12.15 29.95 12.5 29.95 13.65 29.7 13.65 29.7 12.45 29.5 12.45 28.75 12.45 28.75 13.65 28.5 13.65 28.5 12.85 20.95 12.85 20.95 12.5 23.65 12.5 24.4 12.5" fill="url(#gradient69)" fill-rule="evenodd" stroke="none"/>
    <path d="M29.5 13.75 L28.75 13.65 28.75 12.45 29.5 12.45 29.5 13.75" fill="url(#gradient70)" fill-rule="evenodd" stroke="none"/>
    <path d="M33.55 14.7 L29.95 14.4 29.95 14.05 33.35 14.05 29.95 13.75 29.95 13.65 29.95 12.5 33.55 12.15 34.05 12.15 34.05 14.7 33.55 14.7 M28.55 14.65 L27.6 14.65 27.15 14.75 26.95 14.95 26.9 14.95 26.7 15.1 26.4 15.0 26.0 14.95 25.85 15.0 25.7 15.0 25.5 15.1 25.3 14.95 25.05 15.45 25.05 15.35 25.0 14.4 27.7 14.4 28.55 14.65 M23.45 15.6 L23.05 16.15 22.75 16.15 22.55 16.15 22.4 16.15 22.05 16.15 21.9 16.15 21.5 16.15 21.1 16.15 20.75 16.15 20.45 16.15 20.2 16.15 20.1 16.15 19.7 16.15 19.45 16.15 19.35 16.15 19.1 16.15 17.6 16.15 16.45 16.15 16.3 16.15 15.1 16.15 15.0 16.15 14.75 16.15 14.6 16.15 14.35 16.15 14.2 16.15 13.8 16.15 13.4 16.15 13.05 16.15 12.7 16.1 12.55 16.1 12.45 16.1 12.05 16.1 11.8 16.1 11.6 16.1 11.45 16.1 11.1 16.1 10.85 16.1 10.75 16.1 10.5 16.1 10.1 16.1 9.95 16.1 9.55 16.1 9.35 16.1 9.25 16.1 8.85 16.1 8.55 16.1 8.3 16.1 8.05 16.1 7.8 16.1 7.55 16.1 7.5 16.1 7.0 16.1 5.1 14.6 9.7 14.45 10.0 14.5 12.2 14.5 12.3 14.45 17.95 14.45 18.2 14.5 18.9 14.5 18.9 14.65 20.95 14.75 20.95 14.4 23.5 14.4 23.45 15.6 M5.1 12.4 L6.0 11.75 Q6.35 11.25 6.75 11.25 L6.95 11.25 7.15 11.25 7.2 11.15 7.2 11.1 7.3 11.1 7.6 11.1 7.8 11.1 8.2 11.1 8.3 11.1 8.4 11.25 8.45 11.35 8.55 11.1 9.05 11.1 9.3 11.1 9.55 11.1 9.95 11.1 10.1 11.1 10.5 11.1 10.65 11.1 10.9 11.1 11.45 11.1 11.55 11.1 11.8 11.1 12.05 11.1 12.45 11.1 12.55 11.1 12.75 11.1 13.25 11.1 13.4 11.1 13.8 11.1 14.2 11.1 14.35 11.1 14.75 11.1 14.9 11.1 15.1 11.1 16.3 11.1 16.45 11.1 17.95 11.1 19.1 11.15 19.25 11.15 19.45 11.15 19.7 11.15 20.1 11.15 20.25 11.15 20.45 11.15 20.95 11.15 21.15 11.15 21.5 11.15 21.9 11.15 22.1 11.15 22.4 11.15 22.55 11.15 22.75 11.15 23.25 11.15 23.6 11.55 23.65 12.4 23.65 12.5 20.95 12.5 18.9 12.25 17.95 12.25 17.95 12.6 9.7 12.6 5.1 12.4 M25.0 12.5 L25.05 11.6 25.3 12.0 25.55 11.95 25.7 12.0 25.9 12.0 26.05 12.0 26.4 12.0 26.45 12.0 26.75 11.9 26.6 11.75 26.6 11.7 26.8 11.75 26.9 12.1 27.05 12.1 27.1 12.1 27.15 12.15 27.6 12.25 28.55 12.25 26.55 12.45 25.0 12.5 M27.3 11.75 L27.35 11.75 27.3 11.8 27.3 11.75 M28.5 13.75 L28.5 14.05 20.95 14.05 20.95 13.75 28.5 13.75 M33.85 12.45 L33.45 12.45 33.45 14.0 33.95 14.25 33.85 12.45 M6.9 13.8 L18.85 13.8 18.85 14.15 6.9 14.15 6.9 13.8 M13.55 15.75 L13.45 15.85 Q13.85 15.85 13.95 15.65 L13.55 15.75" fill="#3d6299" fill-rule="evenodd" stroke="none"/>
    <path d="M23.6 15.4 L23.45 15.6 23.5 14.4 23.65 14.4 23.65 14.55 23.6 15.4 M16.3 10.85 L16.45 10.85 16.45 11.1 16.3 11.1 16.3 10.85 M17.95 10.85 L18.15 10.85 19.1 11.1 19.1 11.15 17.95 11.1 17.95 10.85 M23.05 10.85 L23.25 11.15 22.75 11.15 22.75 11.05 22.95 10.85 23.05 10.85 M21.1 11.1 L21.45 11.05 21.45 10.85 21.55 10.85 21.45 11.05 21.5 11.15 21.15 11.15 21.1 11.1 M20.45 11.15 L20.25 11.15 20.2 11.1 20.45 11.1 20.45 11.15 M19.7 11.15 L19.45 11.15 19.45 11.1 19.7 11.1 19.7 11.15 M14.75 11.1 L14.35 11.1 14.4 10.85 14.55 10.85 14.75 11.1 M11.45 11.1 L10.9 11.1 10.85 10.85 11.0 10.85 11.45 11.1 M9.55 11.1 L9.3 11.1 9.25 10.85 9.3 10.85 9.55 11.1 M8.55 11.1 L8.45 11.35 8.4 11.25 8.3 11.1 8.55 11.1 M7.8 11.1 L7.6 11.1 7.55 10.95 7.55 10.85 7.85 10.85 7.8 11.1 M7.2 11.1 L7.2 11.15 7.15 11.25 6.95 11.25 Q7.1 10.85 7.2 10.95 L7.2 11.1 M22.4 11.15 L22.1 11.15 22.05 11.1 22.4 11.1 22.4 11.15 M25.35 11.45 L25.65 11.55 25.9 12.0 25.7 12.0 25.55 11.95 25.35 11.45 M26.4 12.0 L26.25 11.7 26.25 11.65 26.6 11.75 26.75 11.9 26.45 12.0 26.4 12.0 M29.7 13.65 L29.5 13.75 29.5 12.45 29.7 12.45 29.7 13.65 M29.95 13.75 L33.35 14.05 29.95 14.05 29.95 13.75 M25.7 15.0 L25.85 15.0 25.65 15.45 25.4 15.5 25.5 15.1 25.7 15.0 M26.25 15.35 L26.4 15.0 26.7 15.1 26.6 15.25 26.25 15.35 M20.3 12.5 L20.6 12.5 20.6 13.7 20.6 14.3 19.25 14.3 19.25 14.05 20.3 14.05 20.3 12.5 M12.55 11.1 L12.6 10.85 12.7 10.85 12.7 11.05 12.55 11.1 M17.95 12.6 L17.95 12.25 18.9 12.25 18.2 12.6 17.95 12.6 M10.0 14.5 L10.0 14.45 12.2 14.45 12.2 14.5 10.0 14.5 M13.55 15.75 L13.95 15.65 Q13.85 15.85 13.45 15.85 L13.55 15.75" fill="#2e4a74" fill-rule="evenodd" stroke="none"/>
    <path d="M27.3 10.0 L27.35 10.0 27.35 10.2 27.3 10.3 27.25 10.3 27.2 11.0 27.3 11.75 27.3 11.8 27.3 11.9 27.4 12.05 27.5 12.1 27.15 12.1 27.1 12.1 27.05 12.1 27.05 12.05 27.0 12.0 26.85 11.75 26.8 10.95 26.9 10.1 27.0 10.0 27.1 10.0 27.3 10.0" fill="url(#gradient71)" fill-rule="evenodd" stroke="none"/>
    <path d="M27.6 15.0 L27.7 15.0 M28.25 15.0 L28.4 15.0 M28.7 15.2 L28.7 16.9 M28.45 17.05 L28.3 17.05 M27.75 17.05 L27.4 17.05 M26.8 17.05 L26.4 17.05 M25.9 17.05 L25.55 17.05 M25.15 16.85 L25.05 16.7 M23.05 16.15 L22.95 16.9 M22.7 17.05 L22.55 17.05 M22.15 17.05 L22.0 17.05 21.65 17.05 M21.05 17.05 L20.65 17.05 M20.3 17.05 L20.15 17.05 19.75 17.05 M15.35 16.15 L15.3 16.85 M15.05 17.05 L14.85 17.05 M14.3 17.05 L13.95 17.05 13.5 17.05 M13.35 17.05 L13.0 17.05 12.65 17.05 M12.5 17.05 L12.1 17.05 M11.7 16.85 L11.6 16.7 M11.1 16.15 L11.05 16.85 M10.8 17.05 L10.6 17.05 M10.2 17.05 L10.05 17.05 9.75 17.05 M9.15 17.05 L8.75 17.05 M8.25 17.05 L7.85 17.05 M7.45 16.9 L7.35 16.7 M7.35 10.4 L7.45 10.2 M7.85 9.95 L8.2 9.95 M8.75 9.95 L9.1 9.95 M9.7 9.95 L10.0 9.95 M10.55 9.95 L10.75 10.0 M11.05 10.2 L11.1 10.85 M11.6 10.4 L11.65 10.2 M12.1 9.95 L12.45 9.95 M13.0 9.95 L13.3 9.95 M13.9 9.95 L14.25 9.95 M14.8 9.95 L15.0 10.0 M15.3 10.2 L15.35 10.85 M19.75 9.95 L20.1 9.95 M20.65 9.95 L21.0 9.95 M21.6 9.95 L21.95 9.95 M22.5 9.95 L22.65 9.95 M22.95 10.15 L23.05 10.85 M25.05 10.4 L25.15 10.2 M25.55 9.95 L25.85 9.95 M26.4 9.95 L26.75 9.95 M27.35 9.95 L27.7 9.95 M28.25 9.95 L28.4 9.95 M28.7 10.15 L28.6 11.15 28.7 11.85 M28.45 12.0 L28.3 12.0 M27.9 12.0 L27.75 12.0 27.6 12.0 M25.7 12.0 L25.9 12.0 M26.4 12.0 L26.45 12.0 M25.85 15.0 L25.7 15.0" fill="none" stroke="#37413c" stroke-linecap="round" stroke-linejoin="round" stroke-width="0.1"/>
  </g>
  <defs>
    <radialGradient cx="0" cy="0" gradientTransform="matrix(-0.0016, 0.0, 0.0, -0.0016, 36.65, 6.05)" gradientUnits="userSpaceOnUse" id="gradient0" r="819.2" spreadMethod="pad">
      <stop offset="0.0" stop-color="#ffd1a6"/>
      <stop offset="1.0" stop-color="#967252"/>
    </radialGradient>
    <radialGradient cx="0" cy="0" gradientTransform="matrix(-0.0146, -1.0E-4, 1.0E-4, -0.0108, 37.0, 14.6)" gradientUnits="userSpaceOnUse" id="gradient1" r="819.2" spreadMethod="pad">
      <stop offset="0.0" stop-color="#c29266"/>
      <stop offset="1.0" stop-color="#8c7055"/>
    </radialGradient>
    <radialGradient cx="0" cy="0" gradientTransform="matrix(-0.0146, -1.0E-4, 1.0E-4, -0.0108, 37.0, 14.6)" gradientUnits="userSpaceOnUse" id="gradient2" r="819.2" spreadMethod="pad">
      <stop offset="0.0" stop-color="#a15617"/>
      <stop offset="1.0" stop-color="#5e3d21"/>
    </radialGradient>
    <radialGradient cx="0" cy="0" gradientTransform="matrix(-0.0146, -1.0E-4, 1.0E-4, -0.0108, 37.0, 14.6)" gradientUnits="userSpaceOnUse" id="gradient3" r="819.2" spreadMethod="pad">
      <stop offset="0.0" stop-color="#ffd1a6"/>
      <stop offset="1.0" stop-color="#967252"/>
    </radialGradient>
    <radialGradient cx="0" cy="0" gradientTransform="matrix(0.0, 0.0024, -0.0024, 0.0, 26.95, 11.0)" gradientUnits="userSpaceOnUse" id="gradient4" r="819.2" spreadMethod="pad">
      <stop offset="0.0" stop-color="#a1a1a1"/>
      <stop offset="1.0" stop-color="#404040"/>
    </radialGradient>
    <radialGradient cx="0" cy="0" gradientTransform="matrix(0.0, 0.0024, -0.0024, 0.0, 26.95, 16.05)" gradientUnits="userSpaceOnUse" id="gradient5" r="819.2" spreadMethod="pad">
      <stop offset="0.0" stop-color="#a1a1a1"/>
      <stop offset="1.0" stop-color="#404040"/>
    </radialGradient>
    <radialGradient cx="0" cy="0" gradientTransform="matrix(0.0, 0.0024, -0.0024, 0.0, 21.2, 11.0)" gradientUnits="userSpaceOnUse" id="gradient6" r="819.2" spreadMethod="pad">
      <stop offset="0.0" stop-color="#a1a1a1"/>
      <stop offset="1.0" stop-color="#404040"/>
    </radialGradient>
    <radialGradient cx="0" cy="0" gradientTransform="matrix(0.0, 0.0024, -0.0024, 0.0, 21.2, 16.05)" gradientUnits="userSpaceOnUse" id="gradient7" r="819.2" spreadMethod="pad">
      <stop offset="0.0" stop-color="#a1a1a1"/>
      <stop offset="1.0" stop-color="#404040"/>
    </radialGradient>
    <radialGradient cx="0" cy="0" gradientTransform="matrix(0.0, 0.0024, -0.0024, 0.0, 9.25, 11.0)" gradientUnits="userSpaceOnUse" id="gradient8" r="819.2" spreadMethod="pad">
      <stop offset="0.0" stop-color="#a1a1a1"/>
      <stop offset="1.0" stop-color="#404040"/>
    </radialGradient>
    <radialGradient cx="0" cy="0" gradientTransform="matrix(0.0, 0.0024, -0.0024, 0.0, 13.5, 11.0)" gradientUnits="userSpaceOnUse" id="gradient9" r="819.2" spreadMethod="pad">
      <stop offset="0.0" stop-color="#a1a1a1"/>
      <stop offset="1.0" stop-color="#404040"/>
    </radialGradient>
    <radialGradient cx="0" cy="0" gradientTransform="matrix(0.0, 0.0024, -0.0024, 0.0, 9.25, 16.05)" gradientUnits="userSpaceOnUse" id="gradient10" r="819.2" spreadMethod="pad">
      <stop offset="0.0" stop-color="#a1a1a1"/>
      <stop offset="1.0" stop-color="#404040"/>
    </radialGradient>
    <radialGradient cx="0" cy="0" gradientTransform="matrix(0.0, 0.0024, -0.0024, 0.0, 13.5, 16.05)" gradientUnits="userSpaceOnUse" id="gradient11" r="819.2" spreadMethod="pad">
      <stop offset="0.0" stop-color="#a1a1a1"/>
      <stop offset="1.0" stop-color="#404040"/>
    </radialGradient>
    <radialGradient cx="0" cy="0" gradientTransform="matrix(-0.0146, -1.0E-4, 1.0E-4, -0.0108, 35.75, 13.25)" gradientUnits="userSpaceOnUse" id="gradient12" r="819.2" spreadMethod="pad">
      <stop offset="0.0" stop-color="#c29266"/>
      <stop offset="1.0" stop-color="#8c7055"/>
    </radialGradient>
    <radialGradient cx="0" cy="0" gradientTransform="matrix(-0.0146, -1.0E-4, 1.0E-4, -0.0108, 35.75, 13.25)" gradientUnits="userSpaceOnUse" id="gradient13" r="819.2" spreadMethod="pad">
      <stop offset="0.0" stop-color="#a15617"/>
      <stop offset="1.0" stop-color="#5e3d21"/>
    </radialGradient>
    <radialGradient cx="0" cy="0" gradientTransform="matrix(-0.0016, 0.0, 0.0, -0.0016, 35.4, 4.7)" gradientUnits="userSpaceOnUse" id="gradient14" r="819.2" spreadMethod="pad">
      <stop offset="0.0" stop-color="#ffd1a6"/>
      <stop offset="1.0" stop-color="#967252"/>
    </radialGradient>
    <radialGradient cx="0" cy="0" gradientTransform="matrix(-0.0146, -1.0E-4, 1.0E-4, -0.0108, 35.75, 13.25)" gradientUnits="userSpaceOnUse" id="gradient15" r="819.2" spreadMethod="pad">
      <stop offset="0.0" stop-color="#ffd1a6"/>
      <stop offset="1.0" stop-color="#967252"/>
    </radialGradient>
    <radialGradient cx="0" cy="0" gradientTransform="matrix(0.0, 0.0065, -0.0065, 0.0, 32.3, 15.95)" gradientUnits="userSpaceOnUse" id="gradient16" r="819.2" spreadMethod="pad">
      <stop offset="0.0" stop-color="#dedede"/>
      <stop offset="1.0" stop-color="#808080"/>
    </radialGradient>
    <radialGradient cx="0" cy="0" gradientTransform="matrix(0.0, 0.0059, -0.002, 0.0, 34.35, 10.7)" gradientUnits="userSpaceOnUse" id="gradient17" r="819.2" spreadMethod="pad">
      <stop offset="0.0" stop-color="#f1afaf"/>
      <stop offset="1.0" stop-color="#ab2828"/>
    </radialGradient>
    <radialGradient cx="0" cy="0" gradientTransform="matrix(-0.0047, 6.0E-4, -6.0E-4, -0.0046, 4.45, 14.95)" gradientUnits="userSpaceOnUse" id="gradient18" r="819.2" spreadMethod="pad">
      <stop offset="0.0" stop-color="#dedede"/>
      <stop offset="1.0" stop-color="#808080"/>
    </radialGradient>
    <radialGradient cx="0" cy="0" gradientTransform="matrix(0.0, 0.0025, -0.0022, 0.0, 22.05, 10.45)" gradientUnits="userSpaceOnUse" id="gradient19" r="819.2" spreadMethod="pad">
      <stop offset="0.0" stop-color="#a1a1a1"/>
      <stop offset="1.0" stop-color="#404040"/>
    </radialGradient>
    <radialGradient cx="0" cy="0" gradientTransform="matrix(0.0, 0.0025, -0.0021, 0.0, 20.2, 10.45)" gradientUnits="userSpaceOnUse" id="gradient20" r="819.2" spreadMethod="pad">
      <stop offset="0.0" stop-color="#a1a1a1"/>
      <stop offset="1.0" stop-color="#404040"/>
    </radialGradient>
    <radialGradient cx="0" cy="0" gradientTransform="matrix(0.0, 0.0025, -0.0025, 0.0, 21.1, 10.45)" gradientUnits="userSpaceOnUse" id="gradient21" r="819.2" spreadMethod="pad">
      <stop offset="0.0" stop-color="#a1a1a1"/>
      <stop offset="1.0" stop-color="#404040"/>
    </radialGradient>
    <radialGradient cx="0" cy="0" gradientTransform="matrix(0.0, 0.0025, -0.0013, 0.0, 22.7, 10.45)" gradientUnits="userSpaceOnUse" id="gradient22" r="819.2" spreadMethod="pad">
      <stop offset="0.0" stop-color="#a1a1a1"/>
      <stop offset="1.0" stop-color="#404040"/>
    </radialGradient>
    <radialGradient cx="0" cy="0" gradientTransform="matrix(0.0, 0.0025, -0.0015, 0.0, 25.25, 10.45)" gradientUnits="userSpaceOnUse" id="gradient23" r="819.2" spreadMethod="pad">
      <stop offset="0.0" stop-color="#a1a1a1"/>
      <stop offset="1.0" stop-color="#404040"/>
    </radialGradient>
    <radialGradient cx="0" cy="0" gradientTransform="matrix(0.0, 0.0025, -0.0021, 0.0, 25.95, 10.45)" gradientUnits="userSpaceOnUse" id="gradient24" r="819.2" spreadMethod="pad">
      <stop offset="0.0" stop-color="#a1a1a1"/>
      <stop offset="1.0" stop-color="#404040"/>
    </radialGradient>
    <radialGradient cx="0" cy="0" gradientTransform="matrix(0.0, 0.0025, -0.0022, 0.0, 27.8, 10.45)" gradientUnits="userSpaceOnUse" id="gradient25" r="819.2" spreadMethod="pad">
      <stop offset="0.0" stop-color="#a1a1a1"/>
      <stop offset="1.0" stop-color="#404040"/>
    </radialGradient>
    <radialGradient cx="0" cy="0" gradientTransform="matrix(0.0, 0.0025, -0.0013, 0.0, 28.45, 10.45)" gradientUnits="userSpaceOnUse" id="gradient26" r="819.2" spreadMethod="pad">
      <stop offset="0.0" stop-color="#a1a1a1"/>
      <stop offset="1.0" stop-color="#404040"/>
    </radialGradient>
    <radialGradient cx="0" cy="0" gradientTransform="matrix(0.0, 0.0025, -0.0013, 0.0, 28.45, 15.5)" gradientUnits="userSpaceOnUse" id="gradient27" r="819.2" spreadMethod="pad">
      <stop offset="0.0" stop-color="#a1a1a1"/>
      <stop offset="1.0" stop-color="#404040"/>
    </radialGradient>
    <radialGradient cx="0" cy="0" gradientTransform="matrix(0.0, 0.0025, -0.0022, 0.0, 27.8, 15.5)" gradientUnits="userSpaceOnUse" id="gradient28" r="819.2" spreadMethod="pad">
      <stop offset="0.0" stop-color="#a1a1a1"/>
      <stop offset="1.0" stop-color="#404040"/>
    </radialGradient>
    <radialGradient cx="0" cy="0" gradientTransform="matrix(0.0, 0.0025, -0.0021, 0.0, 25.95, 15.5)" gradientUnits="userSpaceOnUse" id="gradient29" r="819.2" spreadMethod="pad">
      <stop offset="0.0" stop-color="#a1a1a1"/>
      <stop offset="1.0" stop-color="#404040"/>
    </radialGradient>
    <radialGradient cx="0" cy="0" gradientTransform="matrix(0.0, 0.0025, -0.0025, 0.0, 26.85, 15.5)" gradientUnits="userSpaceOnUse" id="gradient30" r="819.2" spreadMethod="pad">
      <stop offset="0.0" stop-color="#a1a1a1"/>
      <stop offset="1.0" stop-color="#404040"/>
    </radialGradient>
    <radialGradient cx="0" cy="0" gradientTransform="matrix(0.0, 0.0025, -0.0022, 0.0, 22.05, 15.5)" gradientUnits="userSpaceOnUse" id="gradient31" r="819.2" spreadMethod="pad">
      <stop offset="0.0" stop-color="#a1a1a1"/>
      <stop offset="1.0" stop-color="#404040"/>
    </radialGradient>
    <radialGradient cx="0" cy="0" gradientTransform="matrix(0.0, 0.0025, -0.0015, 0.0, 25.25, 15.5)" gradientUnits="userSpaceOnUse" id="gradient32" r="819.2" spreadMethod="pad">
      <stop offset="0.0" stop-color="#a1a1a1"/>
      <stop offset="1.0" stop-color="#404040"/>
    </radialGradient>
    <radialGradient cx="0" cy="0" gradientTransform="matrix(0.0, 0.0025, -0.0015, 0.0, 19.45, 10.45)" gradientUnits="userSpaceOnUse" id="gradient33" r="819.2" spreadMethod="pad">
      <stop offset="0.0" stop-color="#a1a1a1"/>
      <stop offset="1.0" stop-color="#404040"/>
    </radialGradient>
    <radialGradient cx="0" cy="0" gradientTransform="matrix(0.0, 0.0025, -0.0021, 0.0, 20.2, 15.5)" gradientUnits="userSpaceOnUse" id="gradient34" r="819.2" spreadMethod="pad">
      <stop offset="0.0" stop-color="#a1a1a1"/>
      <stop offset="1.0" stop-color="#404040"/>
    </radialGradient>
    <radialGradient cx="0" cy="0" gradientTransform="matrix(0.0, 0.0025, -0.0025, 0.0, 21.1, 15.5)" gradientUnits="userSpaceOnUse" id="gradient35" r="819.2" spreadMethod="pad">
      <stop offset="0.0" stop-color="#a1a1a1"/>
      <stop offset="1.0" stop-color="#404040"/>
    </radialGradient>
    <radialGradient cx="0" cy="0" gradientTransform="matrix(0.0, 0.0025, -0.0013, 0.0, 22.7, 15.5)" gradientUnits="userSpaceOnUse" id="gradient36" r="819.2" spreadMethod="pad">
      <stop offset="0.0" stop-color="#a1a1a1"/>
      <stop offset="1.0" stop-color="#404040"/>
    </radialGradient>
    <radialGradient cx="0" cy="0" gradientTransform="matrix(0.0, 0.0025, -0.0015, 0.0, 11.8, 10.45)" gradientUnits="userSpaceOnUse" id="gradient37" r="819.2" spreadMethod="pad">
      <stop offset="0.0" stop-color="#a1a1a1"/>
      <stop offset="1.0" stop-color="#404040"/>
    </radialGradient>
    <radialGradient cx="0" cy="0" gradientTransform="matrix(0.0, 0.0025, -0.0022, 0.0, 10.1, 10.45)" gradientUnits="userSpaceOnUse" id="gradient38" r="819.2" spreadMethod="pad">
      <stop offset="0.0" stop-color="#a1a1a1"/>
      <stop offset="1.0" stop-color="#404040"/>
    </radialGradient>
    <radialGradient cx="0" cy="0" gradientTransform="matrix(0.0, 0.0025, -0.0021, 0.0, 12.55, 10.45)" gradientUnits="userSpaceOnUse" id="gradient39" r="819.2" spreadMethod="pad">
      <stop offset="0.0" stop-color="#a1a1a1"/>
      <stop offset="1.0" stop-color="#404040"/>
    </radialGradient>
    <radialGradient cx="0" cy="0" gradientTransform="matrix(0.0, 0.0025, -0.0022, 0.0, 14.35, 10.45)" gradientUnits="userSpaceOnUse" id="gradient40" r="819.2" spreadMethod="pad">
      <stop offset="0.0" stop-color="#a1a1a1"/>
      <stop offset="1.0" stop-color="#404040"/>
    </radialGradient>
    <radialGradient cx="0" cy="0" gradientTransform="matrix(0.0, 0.0025, -0.0025, 0.0, 13.4, 10.45)" gradientUnits="userSpaceOnUse" id="gradient41" r="819.2" spreadMethod="pad">
      <stop offset="0.0" stop-color="#a1a1a1"/>
      <stop offset="1.0" stop-color="#404040"/>
    </radialGradient>
    <radialGradient cx="0" cy="0" gradientTransform="matrix(0.0, 0.0025, -0.0013, 0.0, 15.05, 10.45)" gradientUnits="userSpaceOnUse" id="gradient42" r="819.2" spreadMethod="pad">
      <stop offset="0.0" stop-color="#a1a1a1"/>
      <stop offset="1.0" stop-color="#404040"/>
    </radialGradient>
    <radialGradient cx="0" cy="0" gradientTransform="matrix(0.0, 0.0025, -0.0025, 0.0, 9.2, 10.45)" gradientUnits="userSpaceOnUse" id="gradient43" r="819.2" spreadMethod="pad">
      <stop offset="0.0" stop-color="#a1a1a1"/>
      <stop offset="1.0" stop-color="#404040"/>
    </radialGradient>
    <radialGradient cx="0" cy="0" gradientTransform="matrix(0.0, 0.0025, -0.0015, 0.0, 19.45, 15.5)" gradientUnits="userSpaceOnUse" id="gradient44" r="819.2" spreadMethod="pad">
      <stop offset="0.0" stop-color="#a1a1a1"/>
      <stop offset="1.0" stop-color="#404040"/>
    </radialGradient>
    <radialGradient cx="0" cy="0" gradientTransform="matrix(0.0, 0.0025, -0.0025, 0.0, 13.4, 15.5)" gradientUnits="userSpaceOnUse" id="gradient45" r="819.2" spreadMethod="pad">
      <stop offset="0.0" stop-color="#a1a1a1"/>
      <stop offset="1.0" stop-color="#404040"/>
    </radialGradient>
    <radialGradient cx="0" cy="0" gradientTransform="matrix(0.0, 0.0025, -0.0022, 0.0, 14.35, 15.5)" gradientUnits="userSpaceOnUse" id="gradient46" r="819.2" spreadMethod="pad">
      <stop offset="0.0" stop-color="#a1a1a1"/>
      <stop offset="1.0" stop-color="#404040"/>
    </radialGradient>
    <radialGradient cx="0" cy="0" gradientTransform="matrix(0.0, 0.0025, -0.0015, 0.0, 11.8, 15.5)" gradientUnits="userSpaceOnUse" id="gradient47" r="819.2" spreadMethod="pad">
      <stop offset="0.0" stop-color="#a1a1a1"/>
      <stop offset="1.0" stop-color="#404040"/>
    </radialGradient>
    <radialGradient cx="0" cy="0" gradientTransform="matrix(0.0, 0.0025, -0.0021, 0.0, 12.55, 15.5)" gradientUnits="userSpaceOnUse" id="gradient48" r="819.2" spreadMethod="pad">
      <stop offset="0.0" stop-color="#a1a1a1"/>
      <stop offset="1.0" stop-color="#404040"/>
    </radialGradient>
    <radialGradient cx="0" cy="0" gradientTransform="matrix(0.0, 0.0025, -0.0013, 0.0, 15.05, 15.5)" gradientUnits="userSpaceOnUse" id="gradient49" r="819.2" spreadMethod="pad">
      <stop offset="0.0" stop-color="#a1a1a1"/>
      <stop offset="1.0" stop-color="#404040"/>
    </radialGradient>
    <radialGradient cx="0" cy="0" gradientTransform="matrix(0.0, 0.0021, -0.0021, 0.0, 35.65, 11.6)" gradientUnits="userSpaceOnUse" id="gradient50" r="819.2" spreadMethod="pad">
      <stop offset="0.0" stop-color="#dedede"/>
      <stop offset="1.0" stop-color="#808080"/>
    </radialGradient>
    <radialGradient cx="0" cy="0" gradientTransform="matrix(0.0, 0.0021, -0.0021, 0.0, 35.65, 12.95)" gradientUnits="userSpaceOnUse" id="gradient51" r="819.2" spreadMethod="pad">
      <stop offset="0.0" stop-color="#dedede"/>
      <stop offset="1.0" stop-color="#808080"/>
    </radialGradient>
    <radialGradient cx="0" cy="0" gradientTransform="matrix(0.0, 0.0021, -0.0021, 0.0, 35.65, 15.5)" gradientUnits="userSpaceOnUse" id="gradient52" r="819.2" spreadMethod="pad">
      <stop offset="0.0" stop-color="#dedede"/>
      <stop offset="1.0" stop-color="#808080"/>
    </radialGradient>
    <radialGradient cx="0" cy="0" gradientTransform="matrix(0.0, 0.0021, -0.0021, 0.0, 35.65, 16.8)" gradientUnits="userSpaceOnUse" id="gradient53" r="819.2" spreadMethod="pad">
      <stop offset="0.0" stop-color="#dedede"/>
      <stop offset="1.0" stop-color="#808080"/>
    </radialGradient>
    <radialGradient cx="0" cy="0" gradientTransform="matrix(0.0, 0.0021, -0.0021, 0.0, 35.65, 14.3)" gradientUnits="userSpaceOnUse" id="gradient54" r="819.2" spreadMethod="pad">
      <stop offset="0.0" stop-color="#dedede"/>
      <stop offset="1.0" stop-color="#808080"/>
    </radialGradient>
    <radialGradient cx="0" cy="0" gradientTransform="matrix(0.0, 0.0025, -0.0013, 0.0, 10.8, 10.45)" gradientUnits="userSpaceOnUse" id="gradient55" r="819.2" spreadMethod="pad">
      <stop offset="0.0" stop-color="#a1a1a1"/>
      <stop offset="1.0" stop-color="#404040"/>
    </radialGradient>
    <radialGradient cx="0" cy="0" gradientTransform="matrix(0.0, 0.0025, -0.0015, 0.0, 7.55, 10.45)" gradientUnits="userSpaceOnUse" id="gradient56" r="819.2" spreadMethod="pad">
      <stop offset="0.0" stop-color="#a1a1a1"/>
      <stop offset="1.0" stop-color="#404040"/>
    </radialGradient>
    <radialGradient cx="0" cy="0" gradientTransform="matrix(0.0, 0.0025, -0.0021, 0.0, 8.3, 10.45)" gradientUnits="userSpaceOnUse" id="gradient57" r="819.2" spreadMethod="pad">
      <stop offset="0.0" stop-color="#a1a1a1"/>
      <stop offset="1.0" stop-color="#404040"/>
    </radialGradient>
    <radialGradient cx="0" cy="0" gradientTransform="matrix(0.0, 0.0025, -0.0015, 0.0, 7.55, 15.5)" gradientUnits="userSpaceOnUse" id="gradient58" r="819.2" spreadMethod="pad">
      <stop offset="0.0" stop-color="#a1a1a1"/>
      <stop offset="1.0" stop-color="#404040"/>
    </radialGradient>
    <radialGradient cx="0" cy="0" gradientTransform="matrix(0.0, 0.0025, -0.0021, 0.0, 8.3, 15.5)" gradientUnits="userSpaceOnUse" id="gradient59" r="819.2" spreadMethod="pad">
      <stop offset="0.0" stop-color="#a1a1a1"/>
      <stop offset="1.0" stop-color="#404040"/>
    </radialGradient>
    <radialGradient cx="0" cy="0" gradientTransform="matrix(0.0, 0.0025, -0.0025, 0.0, 9.2, 15.5)" gradientUnits="userSpaceOnUse" id="gradient60" r="819.2" spreadMethod="pad">
      <stop offset="0.0" stop-color="#a1a1a1"/>
      <stop offset="1.0" stop-color="#404040"/>
    </radialGradient>
    <radialGradient cx="0" cy="0" gradientTransform="matrix(0.0, 0.0025, -0.0013, 0.0, 10.8, 15.5)" gradientUnits="userSpaceOnUse" id="gradient61" r="819.2" spreadMethod="pad">
      <stop offset="0.0" stop-color="#a1a1a1"/>
      <stop offset="1.0" stop-color="#404040"/>
    </radialGradient>
    <radialGradient cx="0" cy="0" gradientTransform="matrix(0.0, 0.0025, -0.0022, 0.0, 10.1, 15.5)" gradientUnits="userSpaceOnUse" id="gradient62" r="819.2" spreadMethod="pad">
      <stop offset="0.0" stop-color="#a1a1a1"/>
      <stop offset="1.0" stop-color="#404040"/>
    </radialGradient>
    <radialGradient cx="0" cy="0" gradientTransform="matrix(0.0, 0.0079, -0.0079, 0.0, 16.4, 10.45)" gradientUnits="userSpaceOnUse" id="gradient63" r="819.2" spreadMethod="pad">
      <stop offset="0.0" stop-color="#b0e2f2"/>
      <stop offset="1.0" stop-color="#6791cf"/>
    </radialGradient>
    <radialGradient cx="0" cy="0" gradientTransform="matrix(0.0, 0.0111, -0.0111, 0.0, 7.15, 15.35)" gradientUnits="userSpaceOnUse" id="gradient64" r="819.2" spreadMethod="pad">
      <stop offset="0.0" stop-color="#b0e2f2"/>
      <stop offset="1.0" stop-color="#6791cf"/>
    </radialGradient>
    <radialGradient cx="0" cy="0" gradientTransform="matrix(0.0, 0.0148, -0.0148, 0.0, 11.85, 15.45)" gradientUnits="userSpaceOnUse" id="gradient65" r="819.2" spreadMethod="pad">
      <stop offset="0.0" stop-color="#b0e2f2"/>
      <stop offset="1.0" stop-color="#6791cf"/>
    </radialGradient>
    <radialGradient cx="0" cy="0" gradientTransform="matrix(0.0, 0.0059, -0.0059, 0.0, 21.8, 10.75)" gradientUnits="userSpaceOnUse" id="gradient66" r="819.2" spreadMethod="pad">
      <stop offset="0.0" stop-color="#b0e2f2"/>
      <stop offset="1.0" stop-color="#6791cf"/>
    </radialGradient>
    <radialGradient cx="0" cy="0" gradientTransform="matrix(0.0, 0.0079, -0.0055, 0.0, 26.8, 10.4)" gradientUnits="userSpaceOnUse" id="gradient67" r="819.2" spreadMethod="pad">
      <stop offset="0.0" stop-color="#b0e2f2"/>
      <stop offset="1.0" stop-color="#6791cf"/>
    </radialGradient>
    <radialGradient cx="0" cy="0" gradientTransform="matrix(0.0, 0.0156, -0.0164, 0.0, 20.45, 16.15)" gradientUnits="userSpaceOnUse" id="gradient68" r="819.2" spreadMethod="pad">
      <stop offset="0.0" stop-color="#b0e2f2"/>
      <stop offset="1.0" stop-color="#6791cf"/>
    </radialGradient>
    <radialGradient cx="0" cy="0" gradientTransform="matrix(0.0, 0.0111, -0.0077, 0.0, 20.4, 15.3)" gradientUnits="userSpaceOnUse" id="gradient69" r="819.2" spreadMethod="pad">
      <stop offset="0.0" stop-color="#b0e2f2"/>
      <stop offset="1.0" stop-color="#6791cf"/>
    </radialGradient>
    <radialGradient cx="0" cy="0" gradientTransform="matrix(0.0, 0.0059, -0.0041, 0.0, 30.55, 10.7)" gradientUnits="userSpaceOnUse" id="gradient70" r="819.2" spreadMethod="pad">
      <stop offset="0.0" stop-color="#b0e2f2"/>
      <stop offset="1.0" stop-color="#6791cf"/>
    </radialGradient>
    <radialGradient cx="0" cy="0" gradientTransform="matrix(0.0, 0.0025, -0.0025, 0.0, 26.95, 10.55)" gradientUnits="userSpaceOnUse" id="gradient71" r="819.2" spreadMethod="pad">
      <stop offset="0.0" stop-color="#a1a1a1"/>
      <stop offset="1.0" stop-color="#404040"/>
    </radialGradient>
  </defs>
</svg>
