<?xml version="1.0" encoding="UTF-8" standalone="no"?>
<svg xmlns:ffdec="https://www.free-decompiler.com/flash" xmlns:xlink="http://www.w3.org/1999/xlink" ffdec:objectType="shape" height="24.85px" width="37.3px" xmlns="http://www.w3.org/2000/svg">
  <g transform="matrix(1.0, 0.0, 0.0, 1.0, -0.05, 0.0)">
    <path d="M10.05 23.85 L5.4 23.85 5.4 23.7 5.4 23.35 5.4 23.2 5.4 22.85 5.4 22.35 5.4 21.85 5.4 21.35 5.4 20.85 5.4 20.35 5.4 19.85 5.4 19.35 5.4 18.85 5.4 18.35 5.4 17.85 5.4 17.35 10.05 18.6 10.05 18.85 10.05 19.35 10.05 19.85 10.05 20.35 10.05 20.85 10.05 21.35 10.05 21.85 10.05 22.35 10.05 22.85 10.05 23.2 10.05 23.35 10.05 23.7 10.05 23.85 M6.35 3.7 L6.4 3.4 10.25 4.45 10.2 4.75 6.35 3.7 M30.5 11.0 L30.5 11.25 30.3 12.1 30.15 12.3 30.0 12.7 Q30.15 12.2 29.6 12.55 L29.65 12.4 29.3 11.95 29.6 10.75 29.65 10.75 29.95 10.85 30.55 9.85 30.7 9.9 30.4 10.95 30.5 11.0 M10.05 8.85 L10.05 9.1 5.4 7.9 5.2 7.8 5.3 7.45 5.35 7.3 5.4 7.1 5.45 6.9 10.05 8.15 10.05 8.35 10.05 8.85" fill="#464646" fill-rule="evenodd" stroke="none"/>
    <path d="M5.4 23.85 L5.4 24.2 1.9 24.2 1.9 23.85 5.4 23.85 M5.4 24.35 L5.4 24.7 1.9 24.7 1.9 24.35 5.4 24.35 M1.9 23.7 L1.9 23.35 5.4 23.35 5.4 23.7 1.9 23.7 M1.9 23.2 L1.9 22.85 5.4 22.85 5.4 23.2 1.9 23.2 M1.9 22.35 L1.9 21.85 5.4 21.85 5.4 22.35 1.9 22.35 M1.9 21.35 L1.9 20.85 5.4 20.85 5.4 21.35 1.9 21.35 M1.9 20.35 L1.9 19.85 5.4 19.85 5.4 20.35 1.9 20.35 M1.9 19.35 L1.9 18.85 5.4 18.85 5.4 19.35 1.9 19.35 M1.9 18.35 L1.9 17.85 5.4 17.85 5.4 18.35 1.9 18.35 M1.9 17.35 L1.9 16.85 3.6 16.85 5.4 17.35 1.9 17.35 M1.9 16.35 L1.9 16.1 2.35 16.35 1.9 16.35 M1.9 8.35 L1.9 7.95 3.25 7.95 2.3 8.35 1.9 8.35 M1.9 7.8 L1.9 7.45 5.3 7.45 5.2 7.8 1.9 7.8 M1.9 7.3 L1.9 6.95 5.4 6.95 5.4 7.1 5.35 7.3 1.9 7.3" fill="url(#gradient0)" fill-rule="evenodd" stroke="none"/>
    <path d="M13.55 9.1 L13.55 9.35 11.0 9.35 10.05 9.1 10.05 8.85 12.7 8.85 13.55 9.1 M13.55 9.85 L13.55 10.05 12.9 9.85 13.55 9.85 M13.55 19.85 L13.55 20.35 10.05 20.35 10.05 19.85 13.55 19.85 M13.55 20.85 L13.55 21.35 10.05 21.35 10.05 20.85 13.55 20.85 M13.55 21.85 L13.55 22.35 10.05 22.35 10.05 21.85 13.55 21.85 M13.55 22.85 L13.55 23.2 10.05 23.2 10.05 22.85 13.55 22.85 M13.55 23.35 L13.55 23.7 10.05 23.7 10.05 23.35 13.55 23.35 M13.55 23.85 L13.55 24.2 10.05 24.2 10.05 23.85 13.55 23.85 M13.55 24.35 L13.55 24.7 10.05 24.7 10.05 24.35 13.55 24.35 M11.1 18.85 L13.55 19.35 10.05 19.35 10.05 18.85 11.1 18.85 M10.05 8.35 L10.05 8.15 10.8 8.35 10.05 8.35" fill="url(#gradient1)" fill-rule="evenodd" stroke="none"/>
    <path d="M13.55 10.05 Q18.0 11.2 18.0 15.25 16.7 18.2 13.55 19.35 L11.1 18.85 13.55 18.5 10.05 18.6 5.4 17.35 3.6 16.85 5.4 16.85 5.4 16.7 Q8.45 17.65 8.9 17.45 L10.05 16.6 12.65 17.3 12.8 16.85 12.9 16.85 12.75 17.35 10.05 17.85 10.9 17.85 13.55 17.55 13.9 17.55 14.95 16.85 15.45 15.25 13.55 14.75 13.45 14.35 13.95 12.0 13.4 11.85 13.55 11.35 11.6 11.35 11.45 11.3 11.4 10.85 12.8 10.65 Q13.45 10.6 13.55 10.35 L11.15 10.35 10.5 9.85 12.9 9.85 13.55 10.05 M1.9 16.1 Q0.0 14.1 0.05 12.6 0.85 9.8 1.9 8.65 L3.8 8.85 3.45 9.35 2.45 9.6 Q2.1 9.65 1.9 9.85 L3.25 9.85 3.1 10.35 2.3 10.6 1.9 10.85 2.95 10.85 2.8 11.35 2.7 11.85 2.55 12.35 2.4 12.85 2.3 13.35 2.15 13.85 2.05 14.35 2.1 14.85 2.25 15.35 2.75 15.85 4.2 16.35 2.35 16.35 1.9 16.1 M10.05 9.7 L5.4 8.45 2.3 8.35 3.25 7.95 5.4 7.95 5.4 7.9 10.05 9.1 11.0 9.35 10.05 9.7 M13.15 15.35 L13.3 14.85 13.4 14.85 13.3 15.35 13.15 15.35 M13.05 16.35 L12.9 16.35 13.05 15.85 13.15 15.85 13.05 16.35" fill="url(#gradient2)" fill-rule="evenodd" stroke="none"/>
    <path d="M10.5 9.85 L11.15 10.35 10.05 10.35 10.05 10.55 4.45 9.0 4.7 9.35 4.25 9.35 4.15 9.35 3.45 9.35 3.8 8.85 5.4 8.85 5.4 8.45 10.05 9.7 10.5 9.85 M11.4 10.85 L11.45 11.3 10.65 11.1 10.35 11.35 10.2 11.3 10.15 11.55 9.55 12.2 Q8.65 13.4 8.65 15.2 8.65 16.2 8.75 16.05 L8.75 16.25 8.95 16.3 9.3 16.4 10.05 16.6 8.9 17.45 Q8.45 17.65 5.4 16.7 L5.4 16.35 4.2 16.35 2.75 15.85 4.55 15.85 9.05 17.05 Q8.05 15.5 5.4 14.8 L5.4 14.35 4.2 14.35 4.35 13.85 5.05 13.65 5.4 13.35 4.45 13.35 5.1 10.85 5.4 10.5 10.2 10.85 11.4 10.85 M3.1 10.35 L3.25 9.85 4.0 9.85 3.85 10.35 3.1 10.35 M4.6 9.85 L5.0 9.85 5.3 10.35 4.9 10.35 4.6 9.85 M3.75 10.85 L3.6 11.35 2.8 11.35 2.95 10.85 3.75 10.85 M3.5 11.85 L3.35 12.35 2.55 12.35 2.7 11.85 3.5 11.85 M3.25 12.85 L3.1 13.35 2.3 13.35 2.4 12.85 3.25 12.85 M3.0 13.85 L2.85 14.35 2.05 14.35 2.15 13.85 3.0 13.85 M2.75 14.85 L3.2 14.85 3.65 14.85 2.95 15.35 2.25 15.35 2.1 14.85 2.75 14.85" fill="url(#gradient3)" fill-rule="evenodd" stroke="none"/>
    <path d="M36.45 0.25 L37.35 0.75 33.3 7.7 36.15 1.9 35.05 3.35 36.45 0.25 M23.8 20.65 L28.3 13.05 28.55 13.1 25.7 17.7 23.8 20.65 M29.9 10.35 L36.0 0.0 36.1 0.05 31.2 8.75 30.55 9.85 29.95 10.85 29.65 10.75 29.9 10.35" fill="url(#gradient4)" fill-rule="evenodd" stroke="none"/>
    <path d="M36.1 0.05 L36.45 0.25 35.05 3.35 36.15 1.9 33.3 7.7 31.1 11.45 30.5 11.25 30.5 11.0 30.7 10.6 34.5 4.4 31.2 8.75 36.1 0.05 M30.65 12.2 L24.75 22.15 25.3 20.15 23.85 22.1 23.8 22.05 23.4 21.35 23.8 20.65 25.7 17.7 29.15 13.25 29.55 12.65 29.6 12.55 Q30.15 12.2 30.0 12.7 L30.15 12.3 30.3 12.1 30.65 12.2" fill="url(#gradient5)" fill-rule="evenodd" stroke="none"/>
    <path d="M31.2 8.75 L34.5 4.4 30.7 10.6 30.7 9.9 30.55 9.85 31.2 8.75 M29.3 11.95 L29.65 12.4 29.55 12.65 29.15 13.25 29.25 12.85 29.15 12.35 29.3 11.95 M28.55 13.1 L29.15 13.25 25.7 17.7 28.55 13.1" fill="url(#gradient6)" fill-rule="evenodd" stroke="none"/>
    <path d="M30.7 10.6 L30.5 11.0 30.4 10.95 30.7 9.9 30.7 10.6 M29.65 12.4 L29.6 12.55 29.55 12.65 29.65 12.4" fill="#bd8f64" fill-rule="evenodd" stroke="none"/>
    <path d="M24.75 22.15 L23.85 22.1 25.3 20.15 24.75 22.15" fill="url(#gradient7)" fill-rule="evenodd" stroke="none"/>
    <path d="M31.1 11.45 L30.65 12.2 30.3 12.1 30.5 11.25 31.1 11.45" fill="#595959" fill-rule="evenodd" stroke="none"/>
    <path d="M28.3 13.05 L13.55 9.1 12.7 8.85 13.55 8.75 21.2 10.8 29.25 12.85 29.15 13.25 28.55 13.1 28.3 13.05 M5.05 6.8 L5.0 6.45 12.15 8.35 10.8 8.35 10.05 8.15 5.45 6.9 5.4 6.9 5.05 6.8" fill="#754119" fill-rule="evenodd" stroke="none"/>
    <path d="M1.9 7.45 L1.9 7.3 5.35 7.3 5.3 7.45 1.9 7.45" fill="url(#gradient8)" fill-rule="evenodd" stroke="none"/>
    <path d="M11.6 11.35 L13.55 11.35 13.4 11.85 11.6 11.35" fill="url(#gradient9)" fill-rule="evenodd" stroke="none"/>
    <path d="M10.05 10.55 L10.05 10.35 11.15 10.35 13.55 10.35 Q13.45 10.6 12.8 10.65 L11.4 10.85 10.2 10.85 10.05 10.55" fill="url(#gradient10)" fill-rule="evenodd" stroke="none"/>
    <path d="M13.55 9.35 L13.55 9.85 12.9 9.85 10.5 9.85 10.05 9.7 11.0 9.35 13.55 9.35" fill="url(#gradient11)" fill-rule="evenodd" stroke="none"/>
    <path d="M13.55 8.75 L12.7 8.85 10.05 8.85 10.05 8.35 10.8 8.35 12.15 8.35 13.55 8.75" fill="url(#gradient12)" fill-rule="evenodd" stroke="none"/>
    <path d="M1.9 6.95 L5.05 6.8 5.4 6.9 5.4 6.95 1.9 6.95" fill="url(#gradient13)" fill-rule="evenodd" stroke="none"/>
    <path d="M2.8 11.35 L3.6 11.35 3.5 11.85 2.7 11.85 2.8 11.35" fill="url(#gradient14)" fill-rule="evenodd" stroke="none"/>
    <path d="M5.4 10.5 L5.1 10.85 4.9 10.35 5.3 10.35 5.4 10.5 M2.95 10.85 L1.9 10.85 2.3 10.6 3.1 10.35 3.85 10.35 3.75 10.85 2.95 10.85" fill="url(#gradient15)" fill-rule="evenodd" stroke="none"/>
    <path d="M3.45 9.35 L4.15 9.35 4.0 9.85 3.25 9.85 1.9 9.85 Q2.1 9.65 2.45 9.6 L3.45 9.35 M4.25 9.35 L4.7 9.35 5.0 9.85 4.6 9.85 4.25 9.35" fill="url(#gradient16)" fill-rule="evenodd" stroke="none"/>
    <path d="M1.9 7.95 L1.9 7.8 5.2 7.8 5.4 7.9 5.4 7.95 3.25 7.95 1.9 7.95" fill="url(#gradient17)" fill-rule="evenodd" stroke="none"/>
    <path d="M1.9 8.65 L1.9 8.35 2.3 8.35 5.4 8.45 5.4 8.85 3.8 8.85 1.9 8.65" fill="url(#gradient18)" fill-rule="evenodd" stroke="none"/>
    <path d="M3.35 12.35 L3.25 12.85 2.4 12.85 2.55 12.35 3.35 12.35" fill="url(#gradient19)" fill-rule="evenodd" stroke="none"/>
    <path d="M13.45 14.35 L13.55 14.75 13.4 14.85 13.3 14.85 13.45 14.35" fill="url(#gradient20)" fill-rule="evenodd" stroke="none"/>
    <path d="M4.2 14.35 L5.4 14.35 5.4 14.8 3.65 14.85 3.2 14.85 4.2 14.35 M2.85 14.35 L2.75 14.85 2.1 14.85 2.05 14.35 2.85 14.35" fill="url(#gradient21)" fill-rule="evenodd" stroke="none"/>
    <path d="M4.45 13.35 L5.4 13.35 5.05 13.65 4.35 13.85 4.45 13.35 M3.1 13.35 L3.0 13.85 2.15 13.85 2.3 13.35 3.1 13.35" fill="url(#gradient22)" fill-rule="evenodd" stroke="none"/>
    <path d="M1.9 16.85 L1.9 16.35 2.35 16.35 4.2 16.35 5.4 16.35 5.4 16.7 5.4 16.85 3.6 16.85 1.9 16.85" fill="url(#gradient23)" fill-rule="evenodd" stroke="none"/>
    <path d="M1.9 17.85 L1.9 17.35 5.4 17.35 5.4 17.85 1.9 17.85" fill="url(#gradient24)" fill-rule="evenodd" stroke="none"/>
    <path d="M13.55 17.55 L10.9 17.85 10.05 17.85 12.75 17.35 12.8 17.35 13.55 17.55" fill="url(#gradient25)" fill-rule="evenodd" stroke="none"/>
    <path d="M12.9 16.85 L12.8 16.85 12.9 16.35 13.05 16.35 12.9 16.85" fill="url(#gradient26)" fill-rule="evenodd" stroke="none"/>
    <path d="M4.55 15.85 L2.75 15.85 2.25 15.35 2.95 15.35 4.55 15.85" fill="url(#gradient27)" fill-rule="evenodd" stroke="none"/>
    <path d="M13.15 15.35 L13.3 15.35 13.15 15.85 13.05 15.85 13.15 15.35" fill="url(#gradient28)" fill-rule="evenodd" stroke="none"/>
    <path d="M5.4 24.2 L5.4 24.35 1.9 24.35 1.9 24.2 5.4 24.2" fill="url(#gradient29)" fill-rule="evenodd" stroke="none"/>
    <path d="M1.9 23.85 L1.9 23.7 5.4 23.7 5.4 23.85 1.9 23.85" fill="url(#gradient30)" fill-rule="evenodd" stroke="none"/>
    <path d="M1.9 23.35 L1.9 23.2 5.4 23.2 5.4 23.35 1.9 23.35" fill="url(#gradient31)" fill-rule="evenodd" stroke="none"/>
    <path d="M1.9 22.85 L1.9 22.35 5.4 22.35 5.4 22.85 1.9 22.85" fill="url(#gradient32)" fill-rule="evenodd" stroke="none"/>
    <path d="M1.9 21.85 L1.9 21.35 5.4 21.35 5.4 21.85 1.9 21.85" fill="url(#gradient33)" fill-rule="evenodd" stroke="none"/>
    <path d="M1.9 20.85 L1.9 20.35 5.4 20.35 5.4 20.85 1.9 20.85" fill="url(#gradient34)" fill-rule="evenodd" stroke="none"/>
    <path d="M1.9 19.85 L1.9 19.35 5.4 19.35 5.4 19.85 1.9 19.85" fill="url(#gradient35)" fill-rule="evenodd" stroke="none"/>
    <path d="M13.55 19.35 L13.55 19.85 10.05 19.85 10.05 19.35 13.55 19.35" fill="url(#gradient36)" fill-rule="evenodd" stroke="none"/>
    <path d="M13.55 20.35 L13.55 20.85 10.05 20.85 10.05 20.35 13.55 20.35" fill="url(#gradient37)" fill-rule="evenodd" stroke="none"/>
    <path d="M13.55 22.35 L13.55 22.85 10.05 22.85 10.05 22.35 13.55 22.35" fill="url(#gradient38)" fill-rule="evenodd" stroke="none"/>
    <path d="M13.55 21.35 L13.55 21.85 10.05 21.85 10.05 21.35 13.55 21.35" fill="url(#gradient39)" fill-rule="evenodd" stroke="none"/>
    <path d="M10.05 18.6 L13.55 18.5 11.1 18.85 10.05 18.85 10.05 18.6" fill="url(#gradient40)" fill-rule="evenodd" stroke="none"/>
    <path d="M5.4 24.7 L5.4 24.85 1.9 24.85 1.9 24.7 5.4 24.7" fill="url(#gradient41)" fill-rule="evenodd" stroke="none"/>
    <path d="M1.9 18.85 L1.9 18.35 5.4 18.35 5.4 18.85 1.9 18.85" fill="url(#gradient42)" fill-rule="evenodd" stroke="none"/>
    <path d="M21.15 7.7 L21.15 7.65 30.0 10.0 29.9 10.35 29.7 10.3 21.2 8.0 21.15 7.7" fill="url(#gradient43)" fill-rule="evenodd" stroke="none"/>
    <path d="M5.85 3.95 L6.35 3.7 10.2 4.75 21.15 7.7 21.2 8.0 21.2 8.1 5.85 3.95" fill="url(#gradient44)" fill-rule="evenodd" stroke="none"/>
    <path d="M29.6 10.75 L29.3 11.95 29.15 12.35 20.65 10.05 21.2 8.1 21.2 8.0 29.7 10.3 29.6 10.75" fill="url(#gradient45)" fill-rule="evenodd" stroke="none"/>
    <path d="M5.3 6.0 L5.85 3.95 21.2 8.1 20.65 10.05 20.5 10.1 5.3 6.0" fill="url(#gradient46)" fill-rule="evenodd" stroke="none"/>
    <path d="M21.2 10.8 L20.5 10.1 20.65 10.05 29.15 12.35 29.25 12.85 21.2 10.8" fill="url(#gradient47)" fill-rule="evenodd" stroke="none"/>
    <path d="M5.0 6.45 L5.3 6.0 20.5 10.1 21.2 10.8 13.55 8.75 12.15 8.35 5.0 6.45" fill="url(#gradient48)" fill-rule="evenodd" stroke="none"/>
    <path d="M10.35 11.35 L10.65 11.1 10.6 11.4 10.35 11.35 M9.35 16.1 L9.3 16.4 8.95 16.3 8.85 16.2 8.75 16.05 Q8.65 16.2 8.65 15.2 8.65 13.4 9.55 12.2 L10.15 11.55 8.95 16.0 9.35 16.1" fill="url(#gradient49)" fill-rule="evenodd" stroke="none"/>
    <path d="M11.45 11.3 L11.6 11.35 13.4 11.85 13.95 12.0 13.7 12.25 10.6 11.4 10.65 11.1 11.45 11.3 M13.55 14.75 L15.45 15.25 15.35 15.35 Q14.35 15.35 13.65 15.95 12.9 16.5 12.9 17.3 L12.8 17.35 12.75 17.35 12.9 16.85 13.05 16.35 13.15 15.85 13.3 15.35 13.4 14.85 13.55 14.75 M8.75 16.25 L8.75 16.05 8.85 16.2 8.75 16.25" fill="#ebe5b7" fill-rule="evenodd" stroke="none"/>
    <path d="M13.95 12.0 L13.45 14.35 13.3 14.85 13.15 15.35 13.05 15.85 12.9 16.35 12.8 16.85 12.65 17.3 10.05 16.6 9.3 16.4 9.35 16.1 Q11.15 16.1 12.45 15.0 13.7 13.85 13.7 12.25 L13.95 12.0 M15.45 15.25 L14.95 16.85 15.35 15.35 15.45 15.25 M13.9 17.55 L13.55 17.55 12.8 17.35 12.9 17.3 13.9 17.55 M8.95 16.3 L8.75 16.25 8.85 16.2 8.95 16.3" fill="#6b6426" fill-rule="evenodd" stroke="none"/>
    <path d="M4.7 9.35 L4.45 9.0 10.05 10.55 10.2 10.85 5.4 10.5 5.3 10.35 5.0 9.85 4.7 9.35" fill="url(#gradient50)" fill-rule="evenodd" stroke="none"/>
    <path d="M4.15 9.35 L4.25 9.35 4.6 9.85 4.9 10.35 5.1 10.85 4.45 13.35 4.35 13.85 4.2 14.35 3.2 14.85 2.75 14.85 2.85 14.35 3.0 13.85 3.1 13.35 3.25 12.85 3.35 12.35 3.5 11.85 3.6 11.35 3.75 10.85 3.85 10.35 4.0 9.85 4.15 9.35" fill="url(#gradient51)" fill-rule="evenodd" stroke="none"/>
    <path d="M5.4 14.8 Q8.05 15.5 9.05 17.05 L4.55 15.85 2.95 15.35 3.65 14.85 5.4 14.8" fill="url(#gradient52)" fill-rule="evenodd" stroke="none"/>
    <path d="M13.55 23.2 L13.55 23.35 10.05 23.35 10.05 23.2 13.55 23.2" fill="url(#gradient53)" fill-rule="evenodd" stroke="none"/>
    <path d="M13.55 23.7 L13.55 23.85 10.05 23.85 10.05 23.7 13.55 23.7" fill="url(#gradient54)" fill-rule="evenodd" stroke="none"/>
    <path d="M13.55 24.2 L13.55 24.35 10.05 24.35 10.05 24.2 13.55 24.2" fill="url(#gradient55)" fill-rule="evenodd" stroke="none"/>
    <path d="M13.55 24.7 L13.55 24.85 10.05 24.85 10.05 24.7 13.55 24.7" fill="url(#gradient56)" fill-rule="evenodd" stroke="none"/>
    <path d="M14.95 16.85 L13.9 17.55 12.9 17.3 Q12.9 16.5 13.65 15.95 14.35 15.35 15.35 15.35 L14.95 16.85" fill="url(#gradient57)" fill-rule="evenodd" stroke="none"/>
    <path d="M10.15 11.55 L10.2 11.3 10.35 11.35 10.6 11.4 13.7 12.25 Q13.7 13.85 12.45 15.0 11.15 16.1 9.35 16.1 L8.95 16.0 10.15 11.55" fill="url(#gradient58)" fill-rule="evenodd" stroke="none"/>
  </g>
  <defs>
    <radialGradient cx="0" cy="0" gradientTransform="matrix(0.015, 0.0, 0.0, 0.015, -0.35, 13.6)" gradientUnits="userSpaceOnUse" id="gradient0" r="819.2" spreadMethod="pad">
      <stop offset="0.0" stop-color="#7d7d7d"/>
      <stop offset="1.0" stop-color="#171717"/>
    </radialGradient>
    <radialGradient cx="0" cy="0" gradientTransform="matrix(0.015, 0.0, 0.0, 0.015, 7.8, 13.6)" gradientUnits="userSpaceOnUse" id="gradient1" r="819.2" spreadMethod="pad">
      <stop offset="0.0" stop-color="#7d7d7d"/>
      <stop offset="1.0" stop-color="#171717"/>
    </radialGradient>
    <radialGradient cx="0" cy="0" gradientTransform="matrix(0.0108, 0.0029, -0.0029, 0.0108, 9.0, 13.55)" gradientUnits="userSpaceOnUse" id="gradient2" r="819.2" spreadMethod="pad">
      <stop offset="0.03529411764705882" stop-color="#dbcd48"/>
      <stop offset="0.9882352941176471" stop-color="#948b35"/>
    </radialGradient>
    <radialGradient cx="0" cy="0" gradientTransform="matrix(0.0087, 0.0023, -0.0023, 0.0087, 2.05, 10.15)" gradientUnits="userSpaceOnUse" id="gradient3" r="819.2" spreadMethod="pad">
      <stop offset="0.03529411764705882" stop-color="#dbdac9"/>
      <stop offset="0.9882352941176471" stop-color="#94948f"/>
    </radialGradient>
    <radialGradient cx="0" cy="0" gradientTransform="matrix(0.0179, 0.0106, -0.0078, 0.0133, 30.2, 11.15)" gradientUnits="userSpaceOnUse" id="gradient4" r="819.2" spreadMethod="pad">
      <stop offset="0.0" stop-color="#a15617"/>
      <stop offset="1.0" stop-color="#5e3d21"/>
    </radialGradient>
    <radialGradient cx="0" cy="0" gradientTransform="matrix(0.0179, 0.0106, -0.0078, 0.0133, 30.2, 11.15)" gradientUnits="userSpaceOnUse" id="gradient5" r="819.2" spreadMethod="pad">
      <stop offset="0.0" stop-color="#c29266"/>
      <stop offset="1.0" stop-color="#8c7055"/>
    </radialGradient>
    <radialGradient cx="0" cy="0" gradientTransform="matrix(0.0179, 0.0106, -0.0078, 0.0133, 30.2, 11.15)" gradientUnits="userSpaceOnUse" id="gradient6" r="819.2" spreadMethod="pad">
      <stop offset="0.0" stop-color="#ffd1a6"/>
      <stop offset="1.0" stop-color="#967252"/>
    </radialGradient>
    <radialGradient cx="0" cy="0" gradientTransform="matrix(0.002, 0.0012, -0.0012, 0.002, 24.55, 21.9)" gradientUnits="userSpaceOnUse" id="gradient7" r="819.2" spreadMethod="pad">
      <stop offset="0.0" stop-color="#ffd1a6"/>
      <stop offset="1.0" stop-color="#967252"/>
    </radialGradient>
    <radialGradient cx="0" cy="0" gradientTransform="matrix(0.0022, 0.0, 0.0, 0.0021, 3.6, 7.35)" gradientUnits="userSpaceOnUse" id="gradient8" r="819.2" spreadMethod="pad">
      <stop offset="0.0" stop-color="#b8b8b8"/>
      <stop offset="1.0" stop-color="#7a7a7a"/>
    </radialGradient>
    <radialGradient cx="0" cy="0" gradientTransform="matrix(0.0022, 0.0, 0.0, 0.0069, 11.75, 11.5)" gradientUnits="userSpaceOnUse" id="gradient9" r="819.2" spreadMethod="pad">
      <stop offset="0.0" stop-color="#b8b8b8"/>
      <stop offset="1.0" stop-color="#7a7a7a"/>
    </radialGradient>
    <radialGradient cx="0" cy="0" gradientTransform="matrix(0.0022, 0.0, 0.0, 0.0069, 11.75, 10.5)" gradientUnits="userSpaceOnUse" id="gradient10" r="819.2" spreadMethod="pad">
      <stop offset="0.0" stop-color="#b8b8b8"/>
      <stop offset="1.0" stop-color="#7a7a7a"/>
    </radialGradient>
    <radialGradient cx="0" cy="0" gradientTransform="matrix(0.0022, 0.0, 0.0, 0.0069, 11.75, 9.5)" gradientUnits="userSpaceOnUse" id="gradient11" r="819.2" spreadMethod="pad">
      <stop offset="0.0" stop-color="#b8b8b8"/>
      <stop offset="1.0" stop-color="#7a7a7a"/>
    </radialGradient>
    <radialGradient cx="0" cy="0" gradientTransform="matrix(0.0022, 0.0, 0.0, 0.0069, 11.75, 8.5)" gradientUnits="userSpaceOnUse" id="gradient12" r="819.2" spreadMethod="pad">
      <stop offset="0.0" stop-color="#b8b8b8"/>
      <stop offset="1.0" stop-color="#7a7a7a"/>
    </radialGradient>
    <radialGradient cx="0" cy="0" gradientTransform="matrix(0.0022, 0.0, 0.0, 0.0021, 3.6, 6.85)" gradientUnits="userSpaceOnUse" id="gradient13" r="819.2" spreadMethod="pad">
      <stop offset="0.0" stop-color="#b8b8b8"/>
      <stop offset="1.0" stop-color="#7a7a7a"/>
    </radialGradient>
    <radialGradient cx="0" cy="0" gradientTransform="matrix(0.0022, 0.0, 0.0, 0.0069, 3.6, 11.5)" gradientUnits="userSpaceOnUse" id="gradient14" r="819.2" spreadMethod="pad">
      <stop offset="0.0" stop-color="#b8b8b8"/>
      <stop offset="1.0" stop-color="#7a7a7a"/>
    </radialGradient>
    <radialGradient cx="0" cy="0" gradientTransform="matrix(0.0022, 0.0, 0.0, 0.0069, 3.6, 10.5)" gradientUnits="userSpaceOnUse" id="gradient15" r="819.2" spreadMethod="pad">
      <stop offset="0.0" stop-color="#b8b8b8"/>
      <stop offset="1.0" stop-color="#7a7a7a"/>
    </radialGradient>
    <radialGradient cx="0" cy="0" gradientTransform="matrix(0.0022, 0.0, 0.0, 0.0069, 3.6, 9.5)" gradientUnits="userSpaceOnUse" id="gradient16" r="819.2" spreadMethod="pad">
      <stop offset="0.0" stop-color="#b8b8b8"/>
      <stop offset="1.0" stop-color="#7a7a7a"/>
    </radialGradient>
    <radialGradient cx="0" cy="0" gradientTransform="matrix(0.0022, 0.0, 0.0, 0.0021, 3.6, 7.85)" gradientUnits="userSpaceOnUse" id="gradient17" r="819.2" spreadMethod="pad">
      <stop offset="0.0" stop-color="#b8b8b8"/>
      <stop offset="1.0" stop-color="#7a7a7a"/>
    </radialGradient>
    <radialGradient cx="0" cy="0" gradientTransform="matrix(0.0022, 0.0, 0.0, 0.0069, 3.6, 8.5)" gradientUnits="userSpaceOnUse" id="gradient18" r="819.2" spreadMethod="pad">
      <stop offset="0.0" stop-color="#b8b8b8"/>
      <stop offset="1.0" stop-color="#7a7a7a"/>
    </radialGradient>
    <radialGradient cx="0" cy="0" gradientTransform="matrix(0.0022, 0.0, 0.0, 0.0069, 3.6, 12.5)" gradientUnits="userSpaceOnUse" id="gradient19" r="819.2" spreadMethod="pad">
      <stop offset="0.0" stop-color="#b8b8b8"/>
      <stop offset="1.0" stop-color="#7a7a7a"/>
    </radialGradient>
    <radialGradient cx="0" cy="0" gradientTransform="matrix(0.0022, 0.0, 0.0, 0.0069, 11.75, 14.5)" gradientUnits="userSpaceOnUse" id="gradient20" r="819.2" spreadMethod="pad">
      <stop offset="0.0" stop-color="#b8b8b8"/>
      <stop offset="1.0" stop-color="#7a7a7a"/>
    </radialGradient>
    <radialGradient cx="0" cy="0" gradientTransform="matrix(0.0022, 0.0, 0.0, 0.0069, 3.6, 14.5)" gradientUnits="userSpaceOnUse" id="gradient21" r="819.2" spreadMethod="pad">
      <stop offset="0.0" stop-color="#b8b8b8"/>
      <stop offset="1.0" stop-color="#7a7a7a"/>
    </radialGradient>
    <radialGradient cx="0" cy="0" gradientTransform="matrix(0.0022, 0.0, 0.0, 0.0069, 3.6, 13.5)" gradientUnits="userSpaceOnUse" id="gradient22" r="819.2" spreadMethod="pad">
      <stop offset="0.0" stop-color="#b8b8b8"/>
      <stop offset="1.0" stop-color="#7a7a7a"/>
    </radialGradient>
    <radialGradient cx="0" cy="0" gradientTransform="matrix(0.0022, 0.0, 0.0, 0.0069, 3.6, 16.5)" gradientUnits="userSpaceOnUse" id="gradient23" r="819.2" spreadMethod="pad">
      <stop offset="0.0" stop-color="#b8b8b8"/>
      <stop offset="1.0" stop-color="#7a7a7a"/>
    </radialGradient>
    <radialGradient cx="0" cy="0" gradientTransform="matrix(0.0022, 0.0, 0.0, 0.0069, 3.6, 17.5)" gradientUnits="userSpaceOnUse" id="gradient24" r="819.2" spreadMethod="pad">
      <stop offset="0.0" stop-color="#b8b8b8"/>
      <stop offset="1.0" stop-color="#7a7a7a"/>
    </radialGradient>
    <radialGradient cx="0" cy="0" gradientTransform="matrix(0.0022, 0.0, 0.0, 0.0069, 11.75, 17.5)" gradientUnits="userSpaceOnUse" id="gradient25" r="819.2" spreadMethod="pad">
      <stop offset="0.0" stop-color="#b8b8b8"/>
      <stop offset="1.0" stop-color="#7a7a7a"/>
    </radialGradient>
    <radialGradient cx="0" cy="0" gradientTransform="matrix(0.0022, 0.0, 0.0, 0.0069, 11.75, 16.5)" gradientUnits="userSpaceOnUse" id="gradient26" r="819.2" spreadMethod="pad">
      <stop offset="0.0" stop-color="#b8b8b8"/>
      <stop offset="1.0" stop-color="#7a7a7a"/>
    </radialGradient>
    <radialGradient cx="0" cy="0" gradientTransform="matrix(0.0022, 0.0, 0.0, 0.0069, 3.6, 15.5)" gradientUnits="userSpaceOnUse" id="gradient27" r="819.2" spreadMethod="pad">
      <stop offset="0.0" stop-color="#b8b8b8"/>
      <stop offset="1.0" stop-color="#7a7a7a"/>
    </radialGradient>
    <radialGradient cx="0" cy="0" gradientTransform="matrix(0.0022, 0.0, 0.0, 0.0069, 11.75, 15.5)" gradientUnits="userSpaceOnUse" id="gradient28" r="819.2" spreadMethod="pad">
      <stop offset="0.0" stop-color="#b8b8b8"/>
      <stop offset="1.0" stop-color="#7a7a7a"/>
    </radialGradient>
    <radialGradient cx="0" cy="0" gradientTransform="matrix(0.0022, 0.0, 0.0, 0.0021, 3.6, 24.25)" gradientUnits="userSpaceOnUse" id="gradient29" r="819.2" spreadMethod="pad">
      <stop offset="0.0" stop-color="#b8b8b8"/>
      <stop offset="1.0" stop-color="#7a7a7a"/>
    </radialGradient>
    <radialGradient cx="0" cy="0" gradientTransform="matrix(0.0022, 0.0, 0.0, 0.0021, 3.6, 23.75)" gradientUnits="userSpaceOnUse" id="gradient30" r="819.2" spreadMethod="pad">
      <stop offset="0.0" stop-color="#b8b8b8"/>
      <stop offset="1.0" stop-color="#7a7a7a"/>
    </radialGradient>
    <radialGradient cx="0" cy="0" gradientTransform="matrix(0.0022, 0.0, 0.0, 0.0021, 3.6, 23.25)" gradientUnits="userSpaceOnUse" id="gradient31" r="819.2" spreadMethod="pad">
      <stop offset="0.0" stop-color="#b8b8b8"/>
      <stop offset="1.0" stop-color="#7a7a7a"/>
    </radialGradient>
    <radialGradient cx="0" cy="0" gradientTransform="matrix(0.0022, 0.0, 0.0, 0.0069, 3.6, 22.5)" gradientUnits="userSpaceOnUse" id="gradient32" r="819.2" spreadMethod="pad">
      <stop offset="0.0" stop-color="#b8b8b8"/>
      <stop offset="1.0" stop-color="#7a7a7a"/>
    </radialGradient>
    <radialGradient cx="0" cy="0" gradientTransform="matrix(0.0022, 0.0, 0.0, 0.0069, 3.6, 21.5)" gradientUnits="userSpaceOnUse" id="gradient33" r="819.2" spreadMethod="pad">
      <stop offset="0.0" stop-color="#b8b8b8"/>
      <stop offset="1.0" stop-color="#7a7a7a"/>
    </radialGradient>
    <radialGradient cx="0" cy="0" gradientTransform="matrix(0.0022, 0.0, 0.0, 0.0069, 3.6, 20.5)" gradientUnits="userSpaceOnUse" id="gradient34" r="819.2" spreadMethod="pad">
      <stop offset="0.0" stop-color="#b8b8b8"/>
      <stop offset="1.0" stop-color="#7a7a7a"/>
    </radialGradient>
    <radialGradient cx="0" cy="0" gradientTransform="matrix(0.0022, 0.0, 0.0, 0.0069, 3.6, 19.5)" gradientUnits="userSpaceOnUse" id="gradient35" r="819.2" spreadMethod="pad">
      <stop offset="0.0" stop-color="#b8b8b8"/>
      <stop offset="1.0" stop-color="#7a7a7a"/>
    </radialGradient>
    <radialGradient cx="0" cy="0" gradientTransform="matrix(0.0022, 0.0, 0.0, 0.0069, 11.75, 19.5)" gradientUnits="userSpaceOnUse" id="gradient36" r="819.2" spreadMethod="pad">
      <stop offset="0.0" stop-color="#b8b8b8"/>
      <stop offset="1.0" stop-color="#7a7a7a"/>
    </radialGradient>
    <radialGradient cx="0" cy="0" gradientTransform="matrix(0.0022, 0.0, 0.0, 0.0069, 11.75, 20.5)" gradientUnits="userSpaceOnUse" id="gradient37" r="819.2" spreadMethod="pad">
      <stop offset="0.0" stop-color="#b8b8b8"/>
      <stop offset="1.0" stop-color="#7a7a7a"/>
    </radialGradient>
    <radialGradient cx="0" cy="0" gradientTransform="matrix(0.0022, 0.0, 0.0, 0.0069, 11.75, 22.5)" gradientUnits="userSpaceOnUse" id="gradient38" r="819.2" spreadMethod="pad">
      <stop offset="0.0" stop-color="#b8b8b8"/>
      <stop offset="1.0" stop-color="#7a7a7a"/>
    </radialGradient>
    <radialGradient cx="0" cy="0" gradientTransform="matrix(0.0022, 0.0, 0.0, 0.0069, 11.75, 21.5)" gradientUnits="userSpaceOnUse" id="gradient39" r="819.2" spreadMethod="pad">
      <stop offset="0.0" stop-color="#b8b8b8"/>
      <stop offset="1.0" stop-color="#7a7a7a"/>
    </radialGradient>
    <radialGradient cx="0" cy="0" gradientTransform="matrix(0.0022, 0.0, 0.0, 0.0069, 11.75, 18.5)" gradientUnits="userSpaceOnUse" id="gradient40" r="819.2" spreadMethod="pad">
      <stop offset="0.0" stop-color="#b8b8b8"/>
      <stop offset="1.0" stop-color="#7a7a7a"/>
    </radialGradient>
    <radialGradient cx="0" cy="0" gradientTransform="matrix(0.0022, 0.0, 0.0, 0.0021, 3.6, 24.75)" gradientUnits="userSpaceOnUse" id="gradient41" r="819.2" spreadMethod="pad">
      <stop offset="0.0" stop-color="#b8b8b8"/>
      <stop offset="1.0" stop-color="#7a7a7a"/>
    </radialGradient>
    <radialGradient cx="0" cy="0" gradientTransform="matrix(0.0022, 0.0, 0.0, 0.0069, 3.6, 18.5)" gradientUnits="userSpaceOnUse" id="gradient42" r="819.2" spreadMethod="pad">
      <stop offset="0.0" stop-color="#b8b8b8"/>
      <stop offset="1.0" stop-color="#7a7a7a"/>
    </radialGradient>
    <radialGradient cx="0" cy="0" gradientTransform="matrix(0.0054, 0.0014, -0.0027, 0.01, 22.95, 8.05)" gradientUnits="userSpaceOnUse" id="gradient43" r="819.2" spreadMethod="pad">
      <stop offset="0.03529411764705882" stop-color="#ffb694"/>
      <stop offset="0.9882352941176471" stop-color="#c26e29"/>
    </radialGradient>
    <radialGradient cx="0" cy="0" gradientTransform="matrix(0.01, 0.0027, -0.0027, 0.01, 9.0, 4.35)" gradientUnits="userSpaceOnUse" id="gradient44" r="819.2" spreadMethod="pad">
      <stop offset="0.03529411764705882" stop-color="#ffa67d"/>
      <stop offset="0.9882352941176471" stop-color="#c2702c"/>
    </radialGradient>
    <radialGradient cx="0" cy="0" gradientTransform="matrix(0.0052, 0.0014, -0.0026, 0.0096, 25.15, 10.25)" gradientUnits="userSpaceOnUse" id="gradient45" r="819.2" spreadMethod="pad">
      <stop offset="0.03529411764705882" stop-color="#ffb08c"/>
      <stop offset="0.9882352941176471" stop-color="#c26e29"/>
    </radialGradient>
    <radialGradient cx="0" cy="0" gradientTransform="matrix(0.0096, 0.0026, -0.0026, 0.0096, 13.4, 7.15)" gradientUnits="userSpaceOnUse" id="gradient46" r="819.2" spreadMethod="pad">
      <stop offset="0.03529411764705882" stop-color="#ffa67d"/>
      <stop offset="0.9882352941176471" stop-color="#c2702c"/>
    </radialGradient>
    <radialGradient cx="0" cy="0" gradientTransform="matrix(0.0054, 0.0014, -0.0027, 0.01, 21.95, 9.85)" gradientUnits="userSpaceOnUse" id="gradient47" r="819.2" spreadMethod="pad">
      <stop offset="0.03529411764705882" stop-color="#ffb694"/>
      <stop offset="0.9882352941176471" stop-color="#c26e29"/>
    </radialGradient>
    <radialGradient cx="0" cy="0" gradientTransform="matrix(0.01, 0.0027, -0.0027, 0.01, 7.55, 6.05)" gradientUnits="userSpaceOnUse" id="gradient48" r="819.2" spreadMethod="pad">
      <stop offset="0.03529411764705882" stop-color="#ffa67d"/>
      <stop offset="0.9882352941176471" stop-color="#c2702c"/>
    </radialGradient>
    <linearGradient gradientTransform="matrix(0.0015, 0.0, 0.0, 0.0035, 9.5, 13.8)" gradientUnits="userSpaceOnUse" id="gradient49" spreadMethod="pad" x1="-819.2" x2="819.2">
      <stop offset="0.03137254901960784" stop-color="#454545"/>
      <stop offset="0.5843137254901961" stop-color="#a2a2a2"/>
      <stop offset="0.9882352941176471" stop-color="#333333"/>
    </linearGradient>
    <linearGradient gradientTransform="matrix(0.0037, 0.0, 0.0, 0.0015, 7.45, 10.25)" gradientUnits="userSpaceOnUse" id="gradient50" spreadMethod="pad" x1="-819.2" x2="819.2">
      <stop offset="0.03137254901960784" stop-color="#454545"/>
      <stop offset="0.5843137254901961" stop-color="#a2a2a2"/>
      <stop offset="0.9882352941176471" stop-color="#333333"/>
    </linearGradient>
    <linearGradient gradientTransform="matrix(0.0015, 0.0, 0.0, 0.0036, 3.9, 12.15)" gradientUnits="userSpaceOnUse" id="gradient51" spreadMethod="pad" x1="-819.2" x2="819.2">
      <stop offset="0.03137254901960784" stop-color="#454545"/>
      <stop offset="0.5843137254901961" stop-color="#a2a2a2"/>
      <stop offset="0.9882352941176471" stop-color="#333333"/>
    </linearGradient>
    <linearGradient gradientTransform="matrix(0.0038, 0.0, 0.0, 0.0016, 5.95, 15.75)" gradientUnits="userSpaceOnUse" id="gradient52" spreadMethod="pad" x1="-819.2" x2="819.2">
      <stop offset="0.03137254901960784" stop-color="#454545"/>
      <stop offset="0.5843137254901961" stop-color="#a2a2a2"/>
      <stop offset="0.9882352941176471" stop-color="#333333"/>
    </linearGradient>
    <radialGradient cx="0" cy="0" gradientTransform="matrix(0.0022, 0.0, 0.0, 0.0021, 11.75, 23.25)" gradientUnits="userSpaceOnUse" id="gradient53" r="819.2" spreadMethod="pad">
      <stop offset="0.0" stop-color="#b8b8b8"/>
      <stop offset="1.0" stop-color="#7a7a7a"/>
    </radialGradient>
    <radialGradient cx="0" cy="0" gradientTransform="matrix(0.0022, 0.0, 0.0, 0.0021, 11.75, 23.75)" gradientUnits="userSpaceOnUse" id="gradient54" r="819.2" spreadMethod="pad">
      <stop offset="0.0" stop-color="#b8b8b8"/>
      <stop offset="1.0" stop-color="#7a7a7a"/>
    </radialGradient>
    <radialGradient cx="0" cy="0" gradientTransform="matrix(0.0022, 0.0, 0.0, 0.0021, 11.75, 24.25)" gradientUnits="userSpaceOnUse" id="gradient55" r="819.2" spreadMethod="pad">
      <stop offset="0.0" stop-color="#b8b8b8"/>
      <stop offset="1.0" stop-color="#7a7a7a"/>
    </radialGradient>
    <radialGradient cx="0" cy="0" gradientTransform="matrix(0.0022, 0.0, 0.0, 0.0021, 11.75, 24.75)" gradientUnits="userSpaceOnUse" id="gradient56" r="819.2" spreadMethod="pad">
      <stop offset="0.0" stop-color="#b8b8b8"/>
      <stop offset="1.0" stop-color="#7a7a7a"/>
    </radialGradient>
    <radialGradient cx="0" cy="0" gradientTransform="matrix(0.0025, 7.0E-4, -0.001, 0.0036, 13.5, 14.35)" gradientUnits="userSpaceOnUse" id="gradient57" r="819.2" spreadMethod="pad">
      <stop offset="0.03529411764705882" stop-color="#dbcd48"/>
      <stop offset="0.9882352941176471" stop-color="#968d35"/>
    </radialGradient>
    <radialGradient cx="0" cy="0" gradientTransform="matrix(0.0049, 0.0013, -0.0019, 0.0071, 10.15, 10.25)" gradientUnits="userSpaceOnUse" id="gradient58" r="819.2" spreadMethod="pad">
      <stop offset="0.03529411764705882" stop-color="#dbcd48"/>
      <stop offset="0.9882352941176471" stop-color="#968d35"/>
    </radialGradient>
  </defs>
</svg>
