<?xml version="1.0" encoding="UTF-8" standalone="no"?>
<svg xmlns:ffdec="https://www.free-decompiler.com/flash" xmlns:xlink="http://www.w3.org/1999/xlink" ffdec:objectType="shape" height="5.9px" width="31.6px" xmlns="http://www.w3.org/2000/svg">
  <g transform="matrix(1.0, 0.0, 0.0, 1.0, -1.5, -0.1)">
    <path d="M31.45 4.7 L31.4 5.15 Q31.2 4.8 30.8 4.95 L30.7 5.05 30.75 4.85 31.3 4.75 31.45 4.7 M27.65 4.3 L26.0 4.3 26.0 1.75 27.65 1.75 27.65 4.3 M30.75 1.15 L30.7 0.95 31.2 1.15 31.45 0.8 31.4 1.25 31.3 1.25 30.75 1.15 M31.25 0.55 L31.05 0.95 30.85 0.55 31.25 0.55 M31.25 5.05 L31.05 5.45 30.85 5.05 31.25 5.05" fill="#666666" fill-rule="evenodd" stroke="none"/>
    <path d="M31.4 5.15 L31.3 5.55 31.0 5.65 30.8 5.45 30.7 5.05 30.8 4.95 Q31.2 4.8 31.4 5.15 M30.7 0.95 L30.7 0.9 30.8 0.5 Q31.15 0.35 31.45 0.65 L31.45 0.8 31.2 1.15 30.7 0.95 M31.25 0.55 L30.85 0.55 31.05 0.95 31.25 0.55 M31.25 5.05 L30.85 5.05 31.05 5.45 31.25 5.05" fill="#ffffff" fill-rule="evenodd" stroke="none"/>
    <path d="M30.85 2.95 Q30.85 1.95 31.4 1.3 L31.45 4.65 Q30.85 3.95 30.85 2.95" fill="#38414a" fill-rule="evenodd" stroke="none"/>
    <path d="M33.0 1.95 L33.1 1.95 33.0 4.0 32.1 4.0 32.1 1.95 33.0 1.95 M33.0 4.15 L33.0 4.55 31.9 4.7 31.9 4.15 33.0 4.15 M30.5 4.9 L30.45 5.5 28.2 5.45 28.1 2.8 28.25 0.65 29.3 0.85 30.5 0.6 30.5 1.1 30.5 4.9 M31.85 1.25 L33.0 1.25 33.0 1.75 31.85 1.75 31.85 1.25" fill="#99cccc" fill-rule="evenodd" stroke="none"/>
    <path d="M33.0 1.75 L33.0 1.95 32.1 1.95 32.1 4.0 33.0 4.0 33.0 4.15 31.9 4.15 31.9 4.7 31.45 4.7 31.3 4.75 Q30.75 4.0 30.75 3.0 30.75 2.0 31.3 1.25 L31.4 1.25 31.85 1.25 31.85 1.75 33.0 1.75 M27.8 6.0 L27.65 4.3 27.65 1.75 27.8 0.1 28.25 0.65 28.1 2.8 28.2 5.45 27.8 6.0 M30.85 2.95 Q30.85 3.95 31.45 4.65 L31.4 1.3 Q30.85 1.95 30.85 2.95" fill="#5aadad" fill-rule="evenodd" stroke="none"/>
    <path d="M30.75 4.85 L30.5 4.9 30.5 1.1 30.75 1.15 31.3 1.25 Q30.75 2.0 30.75 3.0 30.75 4.0 31.3 4.75 L30.75 4.85 M30.45 5.5 L27.8 6.0 28.2 5.45 30.45 5.5 M27.8 0.1 L30.5 0.6 29.3 0.85 28.25 0.65 27.8 0.1" fill="#418383" fill-rule="evenodd" stroke="none"/>
    <path d="M26.9 0.65 L26.9 5.3 1.5 5.3 1.5 0.65 26.9 0.65 M26.75 5.1 L26.75 0.95 1.75 0.95 1.75 5.1 26.75 5.1" fill="#999999" fill-rule="evenodd" stroke="none"/>
    <path d="M26.6 4.85 L26.6 1.15 2.0 1.15 2.0 4.85 26.6 4.85 M26.75 5.1 L1.75 5.1 1.75 0.95 26.75 0.95 26.75 5.1" fill="#d8c7c0" fill-rule="evenodd" stroke="none"/>
    <path d="M1.5 5.3 L26.9 5.3 26.9 0.65 27.0 0.65 27.0 5.4 1.5 5.4 1.5 5.3" fill="#000000" fill-rule="evenodd" stroke="none"/>
    <path d="M26.6 4.85 L2.0 4.85 2.0 1.15 26.6 1.15 26.6 4.85" fill="url(#gradient0)" fill-rule="evenodd" stroke="none"/>
  </g>
  <defs>
    <radialGradient cx="0" cy="0" gradientTransform="matrix(0.0, 0.0294, -0.0294, 0.0, 25.6, 1.65)" gradientUnits="userSpaceOnUse" id="gradient0" r="819.2" spreadMethod="pad">
      <stop offset="0.0" stop-color="#fcfafa"/>
      <stop offset="1.0" stop-color="#dfd2ca"/>
    </radialGradient>
  </defs>
</svg>
