<?xml version="1.0" encoding="UTF-8" standalone="no"?>
<svg xmlns:ffdec="https://www.free-decompiler.com/flash" xmlns:xlink="http://www.w3.org/1999/xlink" ffdec:objectType="shape" height="6.3px" width="11.2px" xmlns="http://www.w3.org/2000/svg">
  <g transform="matrix(1.0, 0.0, 0.0, 1.0, 0.0, 0.0)">
    <path d="M11.2 1.4 L10.3 3.85 1.0 3.85 0.0 1.4 3.8 1.4 3.75 1.45 5.25 3.0 6.85 1.45 6.8 1.4 11.2 1.4" fill="#a99f95" fill-rule="evenodd" stroke="none"/>
    <path d="M1.0 3.85 L10.3 3.85 11.2 6.3 0.0 6.3 1.0 3.85" fill="#beb7af" fill-rule="evenodd" stroke="none"/>
    <path d="M6.8 1.4 L6.85 1.45 5.25 3.0 5.25 0.0 6.8 0.5 6.8 1.4" fill="#cac2bd" fill-rule="evenodd" stroke="none"/>
    <path d="M10.3 3.85 L11.2 1.4 11.2 6.3 10.3 3.85 M5.25 3.0 L3.75 1.45 3.8 1.4 3.8 0.5 5.25 0.0 5.25 3.0 M0.0 1.4 L1.0 3.85 0.0 6.3 0.0 1.4" fill="#918377" fill-rule="evenodd" stroke="none"/>
  </g>
</svg>
