<?xml version="1.0" encoding="UTF-8" standalone="no"?>
<svg xmlns:ffdec="https://www.free-decompiler.com/flash" xmlns:xlink="http://www.w3.org/1999/xlink" ffdec:objectType="shape" height="12.35px" width="86.5px" xmlns="http://www.w3.org/2000/svg">
  <g transform="matrix(1.0, 0.0, 0.0, 1.0, 48.35, 7.55)">
    <path d="M-48.35 -6.8 L-48.35 -7.55 38.15 -7.55 38.15 -6.8 -48.35 -6.8 M38.05 4.1 L38.05 4.8 -48.35 4.8 -48.35 4.05 38.05 4.05 38.05 4.1" fill="#eaeae1" fill-rule="evenodd" stroke="none"/>
    <path d="M-48.35 -6.8 L38.15 -6.8 38.15 -6.1 -48.35 -6.1 -48.35 -6.8 M-48.35 4.05 L-48.35 3.35 38.05 3.35 38.05 4.05 -48.35 4.05" fill="#555951" fill-rule="evenodd" stroke="none"/>
    <path d="M38.15 -6.1 L38.15 4.1 38.05 4.1 38.05 4.05 38.05 3.35 -48.35 3.35 -48.35 -6.1 38.15 -6.1" fill="#7e8979" fill-rule="evenodd" stroke="none"/>
  </g>
</svg>
