<?xml version="1.0" encoding="UTF-8" standalone="no"?>
<svg xmlns:ffdec="https://www.free-decompiler.com/flash" xmlns:xlink="http://www.w3.org/1999/xlink" ffdec:objectType="shape" height="0.5px" width="78.5px" xmlns="http://www.w3.org/2000/svg">
  <g transform="matrix(1.0, 0.0, 0.0, 1.0, 39.25, 0.25)">
    <path d="M-33.0 -0.25 L-32.8 -0.15 -32.75 0.0 -32.8 0.2 -33.0 0.25 -39.0 0.25 -39.15 0.2 -39.25 0.0 -39.15 -0.15 -39.0 -0.25 -33.0 -0.25 M-21.0 -0.25 L-20.8 -0.15 -20.75 0.0 -20.8 0.2 -21.0 0.25 -27.0 0.25 -27.15 0.2 -27.25 0.0 -27.15 -0.15 -27.0 -0.25 -21.0 -0.25 M-8.8 0.2 L-9.0 0.25 -15.0 0.25 -15.15 0.2 -15.25 0.0 -15.15 -0.15 -15.0 -0.25 -9.0 -0.25 -8.8 -0.15 -8.75 0.0 -8.8 0.2 M-3.0 0.25 L-3.15 0.2 -3.25 0.0 -3.15 -0.15 -3.0 -0.25 3.0 -0.25 3.2 -0.15 3.25 0.0 3.2 0.2 3.0 0.25 -3.0 0.25 M9.0 0.25 L8.85 0.2 8.75 0.0 8.85 -0.15 9.0 -0.25 15.0 -0.25 15.2 -0.15 15.25 0.0 15.2 0.2 15.0 0.25 9.0 0.25 M27.2 0.2 L27.0 0.25 21.0 0.25 20.85 0.2 20.75 0.0 20.85 -0.15 21.0 -0.25 27.0 -0.25 27.2 -0.15 27.25 0.0 27.2 0.2 M39.0 -0.25 L39.2 -0.15 39.25 0.0 39.2 0.2 39.0 0.25 33.0 0.25 32.85 0.2 32.75 0.0 32.85 -0.15 33.0 -0.25 39.0 -0.25" fill="#eaeae1" fill-rule="evenodd" stroke="none"/>
  </g>
</svg>
