<?xml version="1.0" encoding="UTF-8" standalone="no"?>
<svg xmlns:ffdec="https://www.free-decompiler.com/flash" xmlns:xlink="http://www.w3.org/1999/xlink" ffdec:objectType="shape" height="14.25px" width="87.25px" xmlns="http://www.w3.org/2000/svg">
  <g transform="matrix(1.0, 0.0, 0.0, 1.0, 44.15, 7.15)">
    <path d="M-44.15 -5.9 L43.1 -5.9 43.1 5.85 -44.15 5.85 -44.15 -5.9" fill="#b4bbb2" fill-rule="evenodd" stroke="none"/>
    <path d="M43.1 -6.4 L43.1 -5.9 -44.15 -5.9 -44.15 -6.4 43.1 -6.4 M43.1 5.85 L43.1 6.35 -44.15 6.35 -44.15 5.85 43.1 5.85" fill="#555951" fill-rule="evenodd" stroke="none"/>
    <path d="M43.1 -6.4 L-44.15 -6.4 -44.15 -7.15 43.1 -7.15 43.1 -6.4 M43.1 6.35 L43.1 7.1 -44.15 7.1 -44.15 6.35 43.1 6.35" fill="#eaeae1" fill-rule="evenodd" stroke="none"/>
    <path d="M-33.1 -0.15 L-32.9 -0.05 -32.85 0.1 -32.9 0.3 -33.1 0.35 -39.1 0.35 -39.25 0.3 -39.35 0.1 -39.25 -0.05 -39.1 -0.15 -33.1 -0.15 M-21.1 -0.15 L-20.9 -0.05 -20.85 0.1 -20.9 0.3 -21.1 0.35 -27.1 0.35 -27.25 0.3 -27.35 0.1 -27.25 -0.05 -27.1 -0.15 -21.1 -0.15 M-8.9 0.3 L-9.1 0.35 -15.1 0.35 -15.25 0.3 -15.35 0.1 -15.25 -0.05 -15.1 -0.15 -9.1 -0.15 -8.9 -0.05 -8.85 0.1 -8.9 0.3 M-3.1 0.35 L-3.25 0.3 -3.35 0.1 -3.25 -0.05 -3.1 -0.15 2.9 -0.15 3.1 -0.05 3.15 0.1 3.1 0.3 2.9 0.35 -3.1 0.35 M8.9 0.35 L8.75 0.3 8.65 0.1 8.75 -0.05 8.9 -0.15 14.9 -0.15 15.1 -0.05 15.15 0.1 15.1 0.3 14.9 0.35 8.9 0.35 M27.1 0.3 L26.9 0.35 20.9 0.35 20.75 0.3 20.65 0.1 20.75 -0.05 20.9 -0.15 26.9 -0.15 27.1 -0.05 27.15 0.1 27.1 0.3 M38.9 -0.15 L39.1 -0.05 39.15 0.1 39.1 0.3 38.9 0.35 32.9 0.35 32.75 0.3 32.65 0.1 32.75 -0.05 32.9 -0.15 38.9 -0.15" fill="#eaeae1" fill-rule="evenodd" stroke="none"/>
  </g>
</svg>
