<?xml version="1.0" encoding="UTF-8" standalone="no"?>
<svg xmlns:ffdec="https://www.free-decompiler.com/flash" xmlns:xlink="http://www.w3.org/1999/xlink" ffdec:objectType="shape" height="91.0px" width="91.1px" xmlns="http://www.w3.org/2000/svg">
  <g transform="matrix(1.0, 0.0, 0.0, 1.0, 0.0, 0.0)">
    <path d="M61.2 11.3 L61.2 13.5 60.35 13.5 60.35 11.3 61.2 11.3 M47.15 2.45 L33.85 2.45 33.85 0.0 47.15 0.0 47.15 2.45" fill="#dbdbd3" fill-rule="evenodd" stroke="none"/>
    <path d="M59.15 6.4 L63.65 6.4 63.65 9.45 63.65 22.9 63.65 35.3 63.65 41.55 63.65 43.7 59.15 43.7 59.15 26.6 59.15 24.45 59.15 6.4 M61.2 11.3 L60.35 11.3 60.35 13.5 61.2 13.5 61.2 11.3 M12.0 36.5 L14.35 36.5 14.35 38.8 12.0 38.8 12.0 36.5" fill="#5c636d" fill-rule="evenodd" stroke="none"/>
    <path d="M63.65 22.9 L63.65 9.45 65.4 9.45 65.4 22.9 63.65 22.9" fill="#424f62" fill-rule="evenodd" stroke="none"/>
    <path d="M89.95 35.05 L89.95 34.0 70.0 34.0 70.0 77.7 71.0 77.7 89.95 77.7 89.95 35.05 M69.0 35.3 L69.0 32.85 91.1 32.85 91.1 78.85 69.1 78.85 69.0 78.85 69.0 48.85 69.0 45.8 69.0 41.55 69.0 35.3 M50.2 5.4 L29.65 5.4 29.65 5.2 29.65 4.4 33.85 4.4 47.15 4.4 50.2 4.4 50.2 5.4 M24.0 12.3 L24.0 7.8 24.0 6.4 1.15 6.4 1.15 43.25 2.2 43.25 24.0 43.25 24.0 38.75 24.1 38.7 24.0 38.55 24.0 38.35 24.1 38.3 24.0 38.15 24.0 30.8 24.1 30.75 24.0 30.6 24.0 30.4 24.1 30.35 24.0 30.2 24.0 20.85 24.1 20.8 24.0 20.65 24.0 20.45 24.1 20.4 24.0 20.25 24.0 12.9 24.1 12.85 24.0 12.7 24.0 12.5 24.1 12.45 24.0 12.3 M25.15 5.2 L25.15 44.3 0.0 44.3 0.0 5.2 25.15 5.2 M60.75 55.7 L60.75 54.25 10.55 54.25 10.55 55.7 9.6 55.7 9.6 53.1 61.9 53.1 61.9 55.7 60.75 55.7 M10.55 65.25 L10.55 71.95 10.5 72.0 10.55 72.15 10.55 78.55 9.6 78.55 9.6 65.25 10.55 65.25 M60.75 71.95 L60.75 65.25 61.9 65.25 61.9 78.55 60.75 78.55 60.75 72.15 60.85 72.1 60.75 71.95 M9.6 88.05 L10.55 88.05 10.55 89.85 60.75 89.85 60.75 88.05 61.9 88.05 61.9 91.0 9.6 91.0 9.6 88.05" fill="#d8c5be" fill-rule="evenodd" stroke="none"/>
    <path d="M59.15 6.4 L59.15 24.45 33.0 24.45 Q31.8 22.1 30.05 14.7 28.45 7.9 28.45 6.4 L29.65 6.4 50.2 6.4 59.15 6.4 M55.85 11.3 L55.85 15.9 58.0 15.9 58.0 11.3 55.85 11.3 M34.0 10.3 L35.75 10.3 35.75 7.7 34.0 7.7 34.0 10.3 M36.6 10.85 L38.15 10.85 38.15 8.15 36.6 8.15 36.6 10.85" fill="#dadfdb" fill-rule="evenodd" stroke="none"/>
    <path d="M55.85 11.3 L58.0 11.3 58.0 15.9 55.85 15.9 55.85 11.3 M72.9 39.55 L72.9 37.65 74.85 37.65 74.85 39.55 72.9 39.55 M36.6 10.85 L36.6 8.15 38.15 8.15 38.15 10.85 36.6 10.85 M34.0 10.3 L34.0 7.7 35.75 7.7 35.75 10.3 34.0 10.3 M77.25 73.35 L79.0 73.35 79.0 75.15 77.25 75.15 77.25 73.35" fill="#5a5847" fill-rule="evenodd" stroke="none"/>
    <path d="M59.15 24.45 L59.15 26.6 32.95 26.6 Q33.4 25.3 33.0 24.45 L59.15 24.45" fill="#eaf0fc" fill-rule="evenodd" stroke="none"/>
    <path d="M71.0 77.7 L71.0 35.05 89.95 35.05 89.95 77.7 71.0 77.7 M88.65 40.65 L72.6 40.65 72.6 42.25 88.65 42.25 88.65 40.65 M72.9 39.55 L74.85 39.55 74.85 37.65 72.9 37.65 72.9 39.55 M77.25 73.35 L77.25 75.15 79.0 75.15 79.0 73.35 77.25 73.35" fill="#dbdcd4" fill-rule="evenodd" stroke="none"/>
    <path d="M69.0 35.3 L69.0 41.55 63.65 41.55 63.65 35.3 69.0 35.3" fill="#898a8b" fill-rule="evenodd" stroke="none"/>
    <path d="M20.65 47.0 Q27.5 48.4 40.05 49.3 52.85 50.2 63.45 52.25 L61.9 53.1 9.6 53.1 20.65 47.0" fill="#767779" fill-rule="evenodd" stroke="none"/>
    <path d="M88.65 40.65 L88.65 42.25 72.6 42.25 72.6 40.65 88.65 40.65 M63.45 52.25 L65.95 50.7 Q64.65 62.25 63.9 71.5 L63.4 79.5 Q63.4 80.5 67.05 87.45 L61.9 91.0 61.9 88.05 62.45 88.05 62.45 78.55 61.9 78.55 61.9 65.25 62.45 65.25 62.45 55.7 61.9 55.7 61.9 53.1 63.45 52.25" fill="#b8b6a5" fill-rule="evenodd" stroke="none"/>
    <path d="M60.75 55.7 L61.9 55.7 62.45 55.7 62.45 65.25 61.9 65.25 60.75 65.25 60.75 55.7 M9.6 55.7 L10.55 55.7 11.3 55.7 11.3 65.25 10.55 65.25 9.6 65.25 9.6 55.7 M10.55 78.55 L11.3 78.55 11.3 88.05 10.55 88.05 9.6 88.05 9.6 78.55 10.55 78.55 M61.9 88.05 L60.75 88.05 60.75 78.55 61.9 78.55 62.45 78.55 62.45 88.05 61.9 88.05" fill="#a07267" fill-rule="evenodd" stroke="none"/>
    <path d="M10.55 55.7 L10.55 54.25 60.75 54.25 60.75 55.7 60.15 55.7 60.15 65.25 60.75 65.25 60.75 71.95 10.55 71.95 10.55 65.25 11.3 65.25 11.3 55.7 10.55 55.7" fill="#d6d7d2" fill-rule="evenodd" stroke="none"/>
    <path d="M60.75 65.25 L60.15 65.25 60.15 55.7 60.75 55.7 60.75 65.25 M9.6 65.25 L9.0 65.25 9.0 55.7 9.6 55.7 9.6 65.25 M9.6 78.55 L9.6 88.05 9.0 88.05 9.0 78.55 9.6 78.55 M60.15 88.05 L60.15 78.55 60.75 78.55 60.75 88.05 60.15 88.05" fill="#c8aca6" fill-rule="evenodd" stroke="none"/>
    <path d="M59.15 26.6 L59.15 43.7 59.15 43.85 27.05 43.85 32.95 26.6 59.15 26.6" fill="#5d7591" fill-rule="evenodd" stroke="none"/>
    <path d="M24.0 12.7 L24.1 12.85 24.0 12.9 2.2 12.9 Q2.2 12.7 2.1 12.85 L2.2 12.7 24.0 12.7 M24.0 20.65 L24.1 20.8 24.0 20.85 2.2 20.85 Q2.2 20.65 2.1 20.8 L2.2 20.65 24.0 20.65 M24.0 30.6 L24.1 30.75 24.0 30.8 2.2 30.8 Q2.2 30.6 2.1 30.75 L2.2 30.6 24.0 30.6 M24.0 38.55 L24.1 38.7 24.0 38.75 21.45 38.75 21.45 38.55 24.0 38.55 M9.0 38.55 L9.0 38.75 2.2 38.75 Q2.2 38.55 2.1 38.7 L2.2 38.55 9.0 38.55" fill="#e5eae4" fill-rule="evenodd" stroke="none"/>
    <path d="M29.65 5.4 L29.65 6.4 28.45 6.4 26.65 6.4 26.65 24.45 26.65 26.6 26.65 43.7 25.3 44.4 25.15 44.3 25.15 5.2 29.65 5.2 29.65 5.4" fill="#908d7e" fill-rule="evenodd" stroke="none"/>
    <path d="M12.0 36.5 L12.0 38.8 14.35 38.8 14.35 36.5 12.0 36.5 M10.3 40.5 L10.3 35.75 21.45 35.75 21.45 38.15 21.45 38.35 21.45 38.55 21.45 38.75 21.45 40.5 10.3 40.5" fill="#cdd7e3" fill-rule="evenodd" stroke="none"/>
    <path d="M24.0 7.8 L24.0 12.3 2.2 12.3 2.2 7.8 24.0 7.8 M24.0 12.5 L24.0 12.7 2.2 12.7 2.2 12.5 24.0 12.5 M24.0 12.9 L24.0 20.25 2.2 20.25 2.2 12.9 24.0 12.9 M24.0 20.45 L24.0 20.65 2.2 20.65 2.2 20.45 24.0 20.45 M24.0 20.85 L24.0 30.2 2.2 30.2 2.2 20.85 24.0 20.85 M24.0 30.4 L24.0 30.6 2.2 30.6 2.2 30.4 24.0 30.4 M24.0 30.8 L24.0 38.15 21.45 38.15 21.45 35.75 21.45 34.6 9.0 34.6 9.0 38.15 2.2 38.15 2.2 30.8 24.0 30.8 M24.0 38.35 L24.0 38.55 21.45 38.55 21.45 38.35 24.0 38.35 M24.0 38.75 L24.0 43.25 2.2 43.25 2.2 38.75 9.0 38.75 9.0 40.5 10.3 40.5 21.45 40.5 21.45 38.75 24.0 38.75 M9.0 38.35 L9.0 38.55 2.2 38.55 2.2 38.35 9.0 38.35" fill="#d4d3ce" fill-rule="evenodd" stroke="none"/>
    <path d="M9.0 38.35 L9.05 38.3 9.0 38.15 9.0 34.6 21.45 34.6 21.45 35.75 10.3 35.75 10.3 40.5 9.0 40.5 9.0 38.75 9.0 38.55 9.0 38.35" fill="#6f8291" fill-rule="evenodd" stroke="none"/>
    <path d="M84.45 80.45 L84.45 84.75 82.6 84.75 82.6 80.45 84.45 80.45 M86.05 84.75 L86.05 80.45 86.75 80.45 86.75 82.25 88.6 82.25 88.6 80.45 90.95 80.45 90.95 84.75 86.05 84.75 M81.15 80.45 L81.15 84.75 79.55 84.75 79.55 80.45 81.15 80.45 M69.1 80.45 L70.6 80.45 70.6 83.05 71.9 83.05 71.9 80.45 75.1 80.45 75.1 84.75 69.1 84.75 69.1 80.45 M76.25 80.45 L78.2 80.45 78.2 84.75 76.25 84.75 76.25 80.45" fill="#c8b5a7" fill-rule="evenodd" stroke="none"/>
    <path d="M86.75 80.45 L88.6 80.45 88.6 82.25 86.75 82.25 86.75 80.45" fill="#f0edf4" fill-rule="evenodd" stroke="none"/>
    <path d="M84.45 80.45 L86.05 80.45 86.05 84.75 84.45 84.75 84.45 80.45 M81.15 80.45 L82.6 80.45 82.6 84.75 81.15 84.75 81.15 80.45 M75.1 80.45 L76.25 80.45 76.25 84.75 75.1 84.75 75.1 80.45 M78.2 80.45 L79.55 80.45 79.55 84.75 78.2 84.75 78.2 80.45" fill="#c8bfb0" fill-rule="evenodd" stroke="none"/>
    <path d="M70.6 80.45 L71.9 80.45 71.9 83.05 70.6 83.05 70.6 80.45" fill="#988171" fill-rule="evenodd" stroke="none"/>
    <path d="M10.55 71.95 L60.75 71.95 60.85 72.1 60.75 72.15 10.55 72.15 10.5 72.0 10.55 71.95" fill="#ffffff" fill-rule="evenodd" stroke="none"/>
    <path d="M26.65 24.45 L26.65 6.4 28.45 6.4 Q28.45 7.9 30.05 14.7 31.8 22.1 33.0 24.45 L26.65 24.45" fill="#bfc8c0" fill-rule="evenodd" stroke="none"/>
    <path d="M26.65 26.6 L26.65 24.45 33.0 24.45 Q33.4 25.3 32.95 26.6 L26.65 26.6" fill="#bfcad9" fill-rule="evenodd" stroke="none"/>
    <path d="M26.65 43.7 L26.65 26.6 32.95 26.6 27.05 43.85 26.65 43.7" fill="#4a5e71" fill-rule="evenodd" stroke="none"/>
    <path d="M69.0 41.55 L69.0 45.8 Q62.9 46.55 42.65 46.05 L23.6 45.35 25.3 44.4 26.65 43.7 27.05 43.85 59.15 43.85 59.15 43.7 63.65 43.7 63.65 41.55 69.0 41.55" fill="#595959" fill-rule="evenodd" stroke="none"/>
    <path d="M50.2 5.4 L50.2 6.4 29.65 6.4 29.65 5.4 50.2 5.4" fill="#be9d96" fill-rule="evenodd" stroke="none"/>
    <path d="M47.15 2.45 L47.15 4.4 33.85 4.4 33.85 2.45 47.15 2.45" fill="#b9b9ac" fill-rule="evenodd" stroke="none"/>
    <path d="M65.4 9.45 L68.85 9.45 68.85 22.9 65.4 22.9 65.4 9.45" fill="#61738d" fill-rule="evenodd" stroke="none"/>
    <path d="M71.0 77.7 L70.0 77.7 70.0 34.0 89.95 34.0 89.95 35.05 71.0 35.05 71.0 77.7 M24.0 12.3 L24.1 12.45 24.0 12.5 2.2 12.5 2.2 12.7 2.1 12.85 Q2.2 12.7 2.2 12.9 L2.2 20.25 24.0 20.25 24.1 20.4 24.0 20.45 2.2 20.45 2.2 20.65 2.1 20.8 Q2.2 20.65 2.2 20.85 L2.2 30.2 24.0 30.2 24.1 30.35 24.0 30.4 2.2 30.4 2.2 30.6 2.1 30.75 Q2.2 30.6 2.2 30.8 L2.2 38.15 9.0 38.15 9.05 38.3 9.0 38.35 2.2 38.35 2.2 38.55 2.1 38.7 Q2.2 38.55 2.2 38.75 L2.2 43.25 1.15 43.25 1.15 6.4 24.0 6.4 24.0 7.8 2.2 7.8 2.2 12.3 24.0 12.3 M24.0 38.15 L24.1 38.3 24.0 38.35 21.45 38.35 21.45 38.15 24.0 38.15 M10.55 88.05 L11.3 88.05 60.15 88.05 60.75 88.05 60.75 89.85 10.55 89.85 10.55 88.05" fill="#bcbdb0" fill-rule="evenodd" stroke="none"/>
    <path d="M69.0 45.8 L69.0 48.85 67.55 49.75 65.95 50.7 63.45 52.25 Q52.85 50.2 40.05 49.3 27.5 48.4 20.65 47.0 L23.6 45.35 42.65 46.05 Q62.9 46.55 69.0 45.8" fill="#666666" fill-rule="evenodd" stroke="none"/>
    <path d="M65.95 50.7 L67.55 49.75 66.6 76.7 Q66.6 77.35 67.85 81.55 L69.1 85.6 67.05 87.45 Q63.4 80.5 63.4 79.5 L63.9 71.5 Q64.65 62.25 65.95 50.7" fill="#a9a692" fill-rule="evenodd" stroke="none"/>
    <path d="M69.0 48.85 L69.0 78.85 69.1 78.85 69.1 80.45 69.1 84.75 69.1 85.6 67.85 81.55 Q66.6 77.35 66.6 76.7 L67.55 49.75 69.0 48.85" fill="#9d9a84" fill-rule="evenodd" stroke="none"/>
    <path d="M11.3 88.05 L11.3 78.55 10.55 78.55 10.55 72.15 60.75 72.15 60.75 78.55 60.15 78.55 60.15 88.05 11.3 88.05" fill="url(#gradient0)" fill-rule="evenodd" stroke="none"/>
    <path d="M79.0 75.85 L79.0 69.45 75.25 68.9 75.25 66.3 79.65 68.85 79.25 69.25 79.25 75.85 79.0 75.85 M79.85 75.85 L79.85 69.2 84.55 66.35 84.55 75.85 79.85 75.85 M82.15 71.35 L83.75 70.4 Q83.85 68.2 81.65 69.5 L81.35 69.5 Q80.8 69.5 80.55 69.85 80.2 70.2 80.25 70.6 L80.7 71.35 81.5 71.55 81.75 71.55 82.1 71.35 82.15 71.35 M81.65 72.1 L81.55 72.1 Q81.05 72.15 80.75 72.5 L80.55 73.25 Q80.55 73.65 80.95 73.95 L81.65 74.2 81.8 74.2 Q82.2 74.2 82.5 73.85 L83.25 73.35 84.05 72.85 Q83.85 70.8 81.55 72.1 L81.65 72.1" fill="#ded6c9" fill-rule="evenodd" stroke="none"/>
    <path d="M75.25 66.3 L84.55 66.3 84.55 66.35 79.85 69.2 79.85 75.85 79.25 75.85 79.25 69.25 79.65 68.85 75.25 66.3" fill="#bead96" fill-rule="evenodd" stroke="none"/>
    <path d="M76.85 75.25 L76.45 75.4 76.15 75.3 75.95 74.95 75.85 74.0 75.95 73.65 Q76.05 73.45 76.25 73.45 L76.45 73.45 76.55 73.55 Q76.85 73.85 76.8 74.25 L76.95 74.95 76.85 75.25 M77.25 74.35 L77.15 73.85 77.35 73.55 77.55 73.4 77.65 73.4 78.0 73.45 78.2 73.85 78.2 74.55 78.2 75.05 78.2 75.1 77.85 75.3 77.5 75.25 77.25 74.9 77.25 74.35 M76.3 73.85 L76.25 74.55 Q76.25 75.05 76.55 75.15 L76.65 74.95 76.65 74.2 76.45 73.65 76.3 73.85 M81.65 69.5 L82.1 69.75 82.5 70.45 82.25 71.2 82.15 71.35 82.1 71.35 81.75 71.55 81.5 71.55 80.7 71.35 80.25 70.6 Q80.2 70.2 80.55 69.85 80.8 69.5 81.35 69.5 L81.65 69.5 M81.0 70.8 L81.05 71.0 81.6 71.2 82.05 70.95 82.2 70.45 81.95 70.05 81.5 69.9 81.15 70.15 81.15 70.35 Q80.45 70.25 81.0 70.8 M82.5 73.85 Q82.2 74.2 81.8 74.2 L81.65 74.2 80.95 73.95 Q80.55 73.65 80.55 73.25 L80.75 72.5 Q81.05 72.15 81.55 72.1 L81.65 72.1 82.4 72.3 82.8 73.05 82.5 73.85 M82.05 73.7 L82.3 73.55 82.45 73.1 82.15 72.7 81.7 72.5 81.35 72.65 81.2 72.7 81.05 73.2 Q80.6 73.25 81.5 74.0 L81.95 73.85 82.05 73.7 M78.1 74.3 Q78.0 73.55 77.8 73.7 L77.6 74.2 77.55 74.75 77.85 75.1 Q78.2 75.0 78.1 74.3" fill="#eff3f5" fill-rule="evenodd" stroke="none"/>
    <path d="M76.3 73.85 L76.45 73.65 76.65 74.2 76.65 74.95 76.55 75.15 Q76.25 75.05 76.25 74.55 L76.3 73.85 M81.15 70.35 L81.75 70.45 Q82.1 70.55 81.8 70.95 L81.35 71.15 81.0 70.8 Q80.45 70.25 81.15 70.35 M82.05 73.7 L81.95 73.85 81.5 74.0 Q80.6 73.25 81.05 73.2 L81.9 73.35 Q82.25 73.4 82.05 73.7 M78.1 74.3 Q78.2 75.0 77.85 75.1 L77.55 74.75 77.6 74.2 77.8 73.7 Q78.0 73.55 78.1 74.3" fill="#aab0b3" fill-rule="evenodd" stroke="none"/>
    <path d="M81.15 70.35 L81.15 70.15 81.5 69.9 81.95 70.05 82.2 70.45 82.05 70.95 81.6 71.2 81.05 71.0 81.0 70.8 81.35 71.15 81.8 70.95 Q82.1 70.55 81.75 70.45 L81.15 70.35 M81.05 73.2 L81.2 72.7 81.35 72.65 81.7 72.5 82.15 72.7 82.45 73.1 82.3 73.55 82.05 73.7 Q82.25 73.4 81.9 73.35 L81.05 73.2" fill="#ced1d2" fill-rule="evenodd" stroke="none"/>
    <path d="M75.0 66.3 L75.25 66.3 75.25 68.9 75.25 75.85 75.0 75.85 75.0 66.3 M84.55 66.3 L84.8 66.3 84.8 75.85 84.55 75.85 84.55 66.35 84.55 66.3 M82.15 71.35 L82.25 71.2 82.5 70.45 82.1 69.75 81.65 69.5 Q83.85 68.2 83.75 70.4 L82.15 71.35 M81.65 72.1 L81.55 72.1 Q83.85 70.8 84.05 72.85 L83.25 73.35 82.5 73.85 82.8 73.05 82.4 72.3 81.65 72.1" fill="#87888d" fill-rule="evenodd" stroke="none"/>
    <path d="M76.45 73.45 Q76.0 73.4 76.4 73.4 76.85 73.45 77.0 73.7 L77.25 74.35 77.25 74.9 77.25 74.95 77.2 75.2 76.9 75.3 76.85 75.25 76.95 74.95 76.8 74.25 Q76.85 73.85 76.55 73.55 L76.45 73.45 M77.55 73.4 L77.75 73.25 Q78.2 73.1 78.4 73.55 L78.6 74.4 Q78.35 75.25 78.2 75.05 L78.2 74.55 78.2 73.85 78.0 73.45 77.65 73.4 77.55 73.4 M75.25 75.85 L75.25 68.9 79.0 69.45 79.0 75.85 75.25 75.85 M75.5 75.65 L78.6 75.65 78.6 69.95 75.5 69.45 75.5 75.65" fill="#bdbbc4" fill-rule="evenodd" stroke="none"/>
    <path d="M76.45 73.45 L76.25 73.45 Q76.05 73.45 75.95 73.65 L75.85 74.0 75.95 74.95 76.15 75.3 76.45 75.4 76.85 75.25 76.9 75.3 77.2 75.2 77.25 74.95 77.25 74.9 77.5 75.25 77.85 75.3 78.2 75.1 78.2 75.05 Q78.35 75.25 78.6 74.4 L78.4 73.55 Q78.2 73.1 77.75 73.25 L77.55 73.4 77.35 73.55 77.15 73.85 77.25 74.35 77.0 73.7 Q76.85 73.45 76.4 73.4 76.0 73.4 76.45 73.45 M75.5 75.65 L75.5 69.45 78.6 69.95 78.6 75.65 75.5 75.65" fill="#fffafc" fill-rule="evenodd" stroke="none"/>
    <path d="M75.0 66.3 L74.85 66.3 74.85 65.85 85.0 65.85 85.0 66.3 84.8 66.3 84.55 66.3 75.25 66.3 75.0 66.3 M84.8 75.85 L85.0 75.85 85.0 76.25 74.85 76.25 74.85 75.85 75.0 75.85 75.25 75.85 79.0 75.85 79.25 75.85 79.85 75.85 84.55 75.85 84.8 75.85" fill="#666666" fill-rule="evenodd" stroke="none"/>
    <path d="M17.75 60.85 L17.45 61.55 16.8 61.8 16.15 61.55 15.9 60.85 Q15.9 60.45 16.15 60.25 16.4 59.95 16.8 59.95 17.2 59.95 17.45 60.25 L17.75 60.85" fill="#595959" fill-rule="evenodd" stroke="none"/>
    <path d="M16.65 59.35 L16.8 59.35 Q17.45 59.35 17.9 59.8 18.35 60.25 18.35 60.85 18.35 61.5 17.9 61.95 L17.55 62.2 17.5 62.2 17.45 62.2 17.25 62.3 16.8 62.4 Q16.2 62.4 15.75 61.95 15.3 61.5 15.3 60.85 15.3 60.25 15.75 59.8 16.0 59.5 16.4 59.4 L16.65 59.35 M17.75 60.85 L17.45 60.25 Q17.2 59.95 16.8 59.95 16.4 59.95 16.15 60.25 15.9 60.45 15.9 60.85 L16.15 61.55 16.8 61.8 17.45 61.55 17.75 60.85" fill="#e5eae4" fill-rule="evenodd" stroke="none"/>
    <path d="M16.65 59.35 L19.85 58.6 20.45 58.45 Q21.05 58.45 21.4 58.85 21.8 59.2 21.8 59.75 21.8 60.3 21.4 60.7 L20.85 61.05 17.55 62.2 17.9 61.95 Q18.35 61.5 18.35 60.85 18.35 60.25 17.9 59.8 17.45 59.35 16.8 59.35 L16.65 59.35" fill="#b8b6a5" fill-rule="evenodd" stroke="none"/>
    <path d="M80.65 37.4 L80.95 38.0 80.65 38.7 80.0 38.95 79.35 38.7 79.1 38.0 Q79.1 37.6 79.35 37.4 79.6 37.1 80.0 37.1 80.4 37.1 80.65 37.4" fill="#595959" fill-rule="evenodd" stroke="none"/>
    <path d="M79.85 36.5 L80.0 36.5 Q80.65 36.5 81.1 36.95 81.55 37.4 81.55 38.0 81.55 38.65 81.1 39.1 L80.75 39.35 80.7 39.35 80.65 39.35 80.45 39.45 80.0 39.55 Q79.4 39.55 78.95 39.1 78.5 38.65 78.5 38.0 78.5 37.4 78.95 36.95 79.2 36.65 79.6 36.55 L79.85 36.5 M80.65 37.4 Q80.4 37.1 80.0 37.1 79.6 37.1 79.35 37.4 79.1 37.6 79.1 38.0 L79.35 38.7 80.0 38.95 80.65 38.7 80.95 38.0 80.65 37.4" fill="#e5eae4" fill-rule="evenodd" stroke="none"/>
    <path d="M79.85 36.5 L83.05 35.75 83.65 35.6 Q84.25 35.6 84.6 36.0 85.0 36.35 85.0 36.9 85.0 37.45 84.6 37.85 L84.05 38.2 80.75 39.35 81.1 39.1 Q81.55 38.65 81.55 38.0 81.55 37.4 81.1 36.95 80.65 36.5 80.0 36.5 L79.85 36.5" fill="#b8b6a5" fill-rule="evenodd" stroke="none"/>
    <path d="M84.75 37.4 L85.05 38.0 84.75 38.7 84.1 38.95 83.45 38.7 83.2 38.0 Q83.2 37.6 83.45 37.4 83.7 37.1 84.1 37.1 84.5 37.1 84.75 37.4" fill="#595959" fill-rule="evenodd" stroke="none"/>
    <path d="M83.95 36.5 L84.1 36.5 Q84.75 36.5 85.2 36.95 85.65 37.4 85.65 38.0 85.65 38.65 85.2 39.1 L84.85 39.35 84.8 39.35 84.75 39.35 84.55 39.45 84.1 39.55 Q83.5 39.55 83.05 39.1 82.6 38.65 82.6 38.0 82.6 37.4 83.05 36.95 83.3 36.65 83.7 36.55 L83.95 36.5 M84.75 37.4 Q84.5 37.1 84.1 37.1 83.7 37.1 83.45 37.4 83.2 37.6 83.2 38.0 L83.45 38.7 84.1 38.95 84.75 38.7 85.05 38.0 84.75 37.4" fill="#e5eae4" fill-rule="evenodd" stroke="none"/>
    <path d="M83.95 36.5 L87.15 35.75 87.75 35.6 Q88.35 35.6 88.7 36.0 89.1 36.35 89.1 36.9 89.1 37.45 88.7 37.85 L88.15 38.2 84.85 39.35 85.2 39.1 Q85.65 38.65 85.65 38.0 85.65 37.4 85.2 36.95 84.75 36.5 84.1 36.5 L83.95 36.5" fill="#b8b6a5" fill-rule="evenodd" stroke="none"/>
  </g>
  <defs>
    <linearGradient gradientTransform="matrix(0.0, -0.0099, 0.0097, 0.0, 35.65, 80.1)" gradientUnits="userSpaceOnUse" id="gradient0" spreadMethod="pad" x1="-819.2" x2="819.2">
      <stop offset="0.43137254901960786" stop-color="#f6fcfa"/>
      <stop offset="1.0" stop-color="#e5eae4"/>
    </linearGradient>
  </defs>
</svg>
