<?xml version="1.0" encoding="UTF-8" standalone="no"?>
<svg xmlns:ffdec="https://www.free-decompiler.com/flash" xmlns:xlink="http://www.w3.org/1999/xlink" ffdec:objectType="shape" height="54.0px" width="120.25px" xmlns="http://www.w3.org/2000/svg">
  <g transform="matrix(1.0, 0.0, 0.0, 1.0, 0.0, 0.0)">
    <path d="M118.55 16.1 L120.25 16.1 120.25 48.35 119.55 48.35 118.55 48.35 118.55 16.1 M0.0 41.1 L0.0 40.25 37.25 40.25 37.25 32.0 40.4 32.0 40.4 41.1 0.0 41.1 M56.85 21.6 L56.85 23.45 51.35 23.45 51.35 14.65 52.6 14.65 52.6 21.6 56.85 21.6 M47.35 36.35 L47.35 44.5 41.95 44.5 41.95 41.25 47.35 36.35 M57.85 43.35 L57.85 41.25 57.85 31.5 63.25 43.35 57.85 43.35" fill="#b6b7af" fill-rule="evenodd" stroke="none"/>
    <path d="M93.75 3.6 L99.5 7.0 98.4 9.25 95.9 14.65 100.2 17.25 92.65 17.25 97.2 7.4 93.1 5.5 93.75 3.6" fill="#485159" fill-rule="evenodd" stroke="none"/>
    <path d="M48.2 11.65 L54.0 14.65 52.6 14.65 51.35 14.65 51.35 23.45 56.85 23.45 56.85 21.6 56.85 14.65 62.7 17.9 61.7 20.25 60.7 22.9 60.35 27.3 57.95 26.65 48.2 25.9 48.2 19.5 48.2 11.65 M88.0 13.35 L92.35 5.2 93.1 5.5 97.2 7.4 92.65 17.25 92.35 17.25 88.0 13.35 M63.85 38.1 L65.65 40.35 66.7 43.2 Q67.2 45.1 67.1 46.2 L66.9 46.2 63.85 43.35 63.85 38.1" fill="#696870" fill-rule="evenodd" stroke="none"/>
    <path d="M81.8 10.8 L87.85 0.0 93.95 3.0 93.75 3.6 93.1 5.5 92.35 5.2 88.0 13.35 81.8 10.8 M100.05 8.85 L100.05 7.85 111.85 7.85 111.85 14.95 109.8 14.95 Q109.8 12.4 106.95 10.65 104.1 8.85 100.05 8.85 M100.75 36.45 L100.95 36.45 100.75 22.65 110.75 22.65 110.75 26.65 Q108.65 27.4 107.45 28.5 105.5 30.2 100.75 37.4 L100.75 36.45 M43.85 19.5 L43.85 20.6 34.1 20.6 34.1 19.65 43.05 19.65 43.05 16.25 43.85 16.25 43.85 19.5 M32.7 27.05 L47.5 31.7 47.35 31.7 47.35 36.35 41.95 41.25 Q42.05 39.05 41.45 35.75 40.9 32.75 40.4 32.0 L37.25 32.0 3.75 32.0 5.85 30.35 10.75 26.85 11.4 26.85 17.85 26.95 18.5 26.95 24.95 26.95 25.6 26.95 32.05 27.05 32.7 27.05" fill="#5f7487" fill-rule="evenodd" stroke="none"/>
    <path d="M100.05 9.9 L100.05 8.85 Q104.1 8.85 106.95 10.65 109.8 12.4 109.8 14.95 L107.75 14.95 100.05 14.95 100.05 9.9" fill="#89a2b6" fill-rule="evenodd" stroke="none"/>
    <path d="M107.75 14.95 L106.35 17.25 100.2 17.25 95.9 14.65 98.4 9.25 100.05 9.9 100.05 14.95 107.75 14.95" fill="#111030" fill-rule="evenodd" stroke="none"/>
    <path d="M106.35 17.25 L112.85 17.25 112.85 37.0 Q110.75 38.0 110.75 37.4 L110.75 26.65 110.75 22.65 100.75 22.65 100.95 36.45 100.75 36.45 Q100.2 36.3 99.15 36.45 97.15 36.8 94.3 38.25 L94.55 37.9 Q96.6 31.6 96.6 28.8 96.6 27.55 95.85 25.45 L92.35 17.25 92.65 17.25 100.2 17.25 106.35 17.25 M47.5 31.7 L51.35 31.7 Q51.35 43.3 51.5 43.35 L56.55 46.2 55.15 46.2 55.15 47.9 47.35 44.5 47.35 36.35 47.35 31.7 47.5 31.7" fill="#666c78" fill-rule="evenodd" stroke="none"/>
    <path d="M94.55 37.9 L94.3 38.25 Q93.25 40.05 90.15 42.6 86.15 45.8 82.7 46.3 L77.45 46.65 75.3 46.2 Q71.65 45.0 70.55 44.35 69.75 43.85 67.75 41.9 L73.75 44.4 Q77.5 45.15 80.4 44.35 L83.7 43.15 Q84.7 43.0 87.6 40.95 90.85 38.7 91.55 37.1 L93.0 37.3 Q93.95 37.55 94.55 37.9" fill="#b9b0a1" fill-rule="evenodd" stroke="none"/>
    <path d="M89.8 37.8 L90.15 37.4 91.55 37.1 Q90.85 38.7 87.6 40.95 84.7 43.0 83.7 43.15 84.75 42.85 87.1 40.85 89.5 38.8 89.8 37.8" fill="#7a878f" fill-rule="evenodd" stroke="none"/>
    <path d="M110.75 26.65 L110.75 37.4 100.75 37.4 Q105.5 30.2 107.45 28.5 108.65 27.4 110.75 26.65" fill="#dcd7c3" fill-rule="evenodd" stroke="none"/>
    <path d="M119.55 48.35 L119.55 54.0 9.4 54.0 9.4 52.0 Q10.95 50.85 15.55 50.25 L34.75 49.05 57.1 49.3 57.05 48.7 73.65 48.25 73.65 52.45 78.75 52.9 84.2 52.45 83.55 51.2 Q84.1 52.15 85.05 52.15 85.85 52.15 86.4 51.45 86.95 50.75 86.95 49.7 86.95 48.75 86.4 48.0 85.85 47.25 85.05 47.25 84.1 47.25 83.15 49.6 82.65 48.3 82.65 47.4 L82.7 46.3 Q86.15 45.8 90.15 42.6 93.25 40.05 94.3 38.25 97.15 36.8 99.15 36.45 100.2 36.3 100.75 36.45 L100.75 37.4 110.75 37.4 Q110.75 38.0 112.85 37.0 L112.85 46.65 105.65 44.95 Q103.65 44.95 102.55 45.9 L100.45 48.35 112.85 48.35 118.55 48.35 119.55 48.35 M77.45 50.4 L77.8 51.35 Q76.65 51.1 75.65 50.45 74.5 49.7 74.1 48.7 L76.55 47.6 77.45 50.4 M91.05 51.7 Q88.05 51.9 86.7 52.4 L85.95 52.8 92.0 53.0 90.85 42.9 91.05 51.7" fill="#e1dbcf" fill-rule="evenodd" stroke="none"/>
    <path d="M112.85 17.25 L112.85 16.1 118.55 16.1 118.55 48.35 112.85 48.35 112.85 46.65 112.85 37.0 112.85 17.25 M9.4 45.35 L0.0 41.1 40.4 41.1 40.4 32.0 Q40.9 32.75 41.45 35.75 42.05 39.05 41.95 41.25 L41.95 44.5 47.35 44.5 55.15 47.9 22.05 46.65 9.4 45.35 M72.15 24.55 L72.05 24.5 75.9 27.85 Q75.6 27.65 73.85 29.9 L71.95 28.55 70.65 27.5 71.9 25.75 71.9 24.55 71.9 24.35 72.15 24.55 M70.55 24.9 L69.95 25.55 Q70.1 25.35 70.4 25.35 L70.9 25.55 71.1 26.05 70.9 26.55 Q70.7 26.75 70.4 26.75 L69.9 26.55 69.85 26.5 69.7 26.05 69.7 25.95 69.9 25.6 69.7 25.8 Q69.8 24.4 70.7 22.4 L70.55 24.9" fill="#f6fcfa" fill-rule="evenodd" stroke="none"/>
    <path d="M83.55 51.2 L84.2 52.45 78.75 52.9 73.65 52.45 73.65 48.25 74.1 48.7 Q74.5 49.7 75.65 50.45 76.65 51.1 77.8 51.35 L77.45 50.4 77.45 47.15 77.45 46.65 82.7 46.3 82.65 47.4 Q82.65 48.3 83.15 49.6 83.15 50.35 83.55 51.2 M112.85 48.35 L100.45 48.35 102.55 45.9 Q103.65 44.95 105.65 44.95 L112.85 46.65 112.85 48.35" fill="#aaaaa2" fill-rule="evenodd" stroke="none"/>
    <path d="M34.1 19.65 L34.1 19.5 34.1 16.25 43.05 16.25 43.05 19.65 34.1 19.65" fill="#9e9f99" fill-rule="evenodd" stroke="none"/>
    <path d="M10.75 14.25 L11.4 14.25 11.4 19.5 17.85 19.5 17.85 26.95 11.4 26.85 11.4 19.5 10.75 19.5 10.75 26.85 5.85 30.35 5.85 19.5 10.75 19.5 10.75 14.25 M17.85 14.25 L18.5 14.25 18.5 19.5 24.95 19.5 24.95 14.25 25.6 14.25 25.6 19.5 32.05 19.5 32.05 14.25 32.7 14.25 32.7 19.5 34.1 19.5 34.1 19.65 34.1 20.6 43.85 20.6 43.85 19.5 48.2 19.5 48.2 25.9 57.95 26.65 60.35 27.3 60.7 31.0 57.85 31.0 52.15 31.0 51.35 31.7 47.5 31.7 32.7 27.05 32.7 19.5 32.05 19.5 32.05 27.05 25.6 26.95 25.6 19.5 24.95 19.5 24.95 26.95 18.5 26.95 18.5 19.5 17.85 19.5 17.85 14.25" fill="#d7d9d6" fill-rule="evenodd" stroke="none"/>
    <path d="M75.2 10.4 L75.85 10.4 73.0 15.0 72.05 15.8 72.2 15.35 Q73.6 12.7 75.2 10.4" fill="#6b859c" fill-rule="evenodd" stroke="none"/>
    <path d="M70.8 21.05 L72.05 15.8 73.0 15.0 70.95 24.9 70.55 24.9 70.7 22.4 70.7 22.35 70.8 21.05" fill="#aab7c7" fill-rule="evenodd" stroke="none"/>
    <path d="M75.1 12.6 Q80.65 13.4 82.65 15.15 84.6 16.9 83.35 18.75 82.1 20.6 78.35 21.55 L72.15 22.1 74.15 14.45 75.1 12.6" fill="#b4b5a8" fill-rule="evenodd" stroke="none"/>
    <path d="M52.15 31.0 L57.85 31.0 57.85 31.5 57.85 41.25 52.15 41.25 52.15 31.0" fill="#dde0cd" fill-rule="evenodd" stroke="none"/>
    <path d="M77.45 47.15 L77.45 50.4 76.55 47.6 77.45 47.15 M65.65 40.35 L67.75 41.9 Q69.75 43.85 70.55 44.35 71.65 45.0 75.3 46.2 L67.1 46.2 Q67.2 45.1 66.7 43.2 L65.65 40.35 M56.55 46.2 L51.5 43.35 57.85 43.35 63.25 43.35 63.85 43.35 66.9 46.2 56.55 46.2" fill="#736c64" fill-rule="evenodd" stroke="none"/>
    <path d="M70.95 24.9 L71.8 25.6 71.9 25.75 70.65 27.5 70.6 27.5 70.25 27.15 69.95 26.8 69.85 26.5 69.9 26.55 70.4 26.75 Q70.7 26.75 70.9 26.55 L71.1 26.05 70.9 25.55 70.4 25.35 Q70.1 25.35 69.95 25.55 L70.55 24.9 70.95 24.9 M69.7 25.8 L69.9 25.6 69.7 25.95 69.7 25.8" fill="#c3c2bd" fill-rule="evenodd" stroke="none"/>
    <path d="M83.15 49.6 Q84.1 47.25 85.05 47.25 85.85 47.25 86.4 48.0 86.95 48.75 86.95 49.7 86.95 50.75 86.4 51.45 85.85 52.15 85.05 52.15 84.1 52.15 83.55 51.2 83.15 50.35 83.15 49.6 M91.05 51.7 L90.85 42.9 92.0 53.0 85.95 52.8 86.7 52.4 Q88.05 51.9 91.05 51.7" fill="#b1ada4" fill-rule="evenodd" stroke="none"/>
    <path d="M9.4 52.0 L9.4 45.35 22.05 46.65 55.15 47.9 55.15 46.2 56.55 46.2 66.9 46.2 67.1 46.2 75.3 46.2 77.45 46.65 77.45 47.15 76.55 47.6 74.1 48.7 73.65 48.25 57.05 48.7 57.1 49.3 34.75 49.05 15.55 50.25 Q10.95 50.85 9.4 52.0" fill="#afada1" fill-rule="evenodd" stroke="none"/>
    <path d="M72.15 22.1 L71.95 23.8 71.9 24.35 71.9 24.55 71.8 25.6 70.95 24.9 73.0 15.0 74.15 14.45 72.15 22.1" fill="#60778e" fill-rule="evenodd" stroke="none"/>
    <path d="M75.85 10.4 L76.7 10.35 75.1 12.6 74.15 14.45 73.0 15.0 75.85 10.4" fill="#364552" fill-rule="evenodd" stroke="none"/>
    <path d="M2.75 32.0 L2.75 14.25 10.75 14.25 10.75 19.5 5.85 19.5 5.85 30.35 3.75 32.0 2.75 32.0 M11.4 14.25 L17.85 14.25 17.85 19.5 11.4 19.5 11.4 14.25 M18.5 14.25 L24.95 14.25 24.95 19.5 18.5 19.5 18.5 14.25 M25.6 14.25 L32.05 14.25 32.05 19.5 25.6 19.5 25.6 14.25 M32.7 14.25 L41.35 14.25 41.35 11.65 48.2 11.65 48.2 19.5 43.85 19.5 43.85 16.25 43.05 16.25 43.05 16.1 34.1 16.1 34.1 16.25 34.1 19.5 32.7 19.5 32.7 14.25" fill="#b7b9b5" fill-rule="evenodd" stroke="none"/>
    <path d="M0.0 40.25 L0.0 32.0 2.75 32.0 3.75 32.0 37.25 32.0 37.25 40.25 0.0 40.25 M54.0 14.65 L56.85 14.65 56.85 21.6 52.6 21.6 52.6 14.65 54.0 14.65 M60.7 31.0 L62.3 34.8 63.85 38.1 63.85 43.35 63.25 43.35 57.85 31.5 57.85 31.0 60.7 31.0" fill="#a6a69d" fill-rule="evenodd" stroke="none"/>
    <path d="M51.35 31.7 L52.15 31.0 52.15 41.25 57.85 41.25 57.85 43.35 51.5 43.35 Q51.35 43.3 51.35 31.7" fill="#ebecdf" fill-rule="evenodd" stroke="none"/>
    <path d="M32.7 19.5 L32.7 27.05 32.05 27.05 32.05 19.5 32.7 19.5 M24.95 26.95 L24.95 19.5 25.6 19.5 25.6 26.95 24.95 26.95 M10.75 26.85 L10.75 19.5 11.4 19.5 11.4 26.85 10.75 26.85 M17.85 26.95 L17.85 19.5 18.5 19.5 18.5 26.95 17.85 26.95" fill="#eeefed" fill-rule="evenodd" stroke="none"/>
    <path d="M63.3 17.05 L65.45 14.75 72.2 15.35 72.05 15.8 70.8 21.05 69.5 22.9 68.2 23.55 66.75 24.1 Q65.3 24.1 64.3 22.05 63.3 19.95 63.3 17.05 M71.95 23.8 Q79.35 23.8 84.6 27.9 89.8 32.0 89.8 37.8 89.5 38.8 87.1 40.85 84.75 42.85 83.7 43.15 L80.4 44.35 Q77.5 45.15 73.75 44.4 L82.55 42.3 Q84.65 41.3 84.65 38.2 84.65 34.9 81.85 32.05 79.7 29.8 72.15 24.55 L71.9 24.35 71.95 23.8" fill="#ccccc4" fill-rule="evenodd" stroke="none"/>
    <path d="M65.45 14.75 Q66.6 14.05 69.8 12.45 74.05 10.35 75.2 10.4 73.6 12.7 72.2 15.35 L65.45 14.75 M76.7 10.35 L77.6 10.35 Q85.2 12.7 89.4 17.8 92.95 22.1 92.95 26.85 92.95 29.95 91.95 32.95 L90.15 37.4 89.8 37.8 Q89.8 32.0 84.6 27.9 79.35 23.8 71.95 23.8 L72.15 22.1 78.35 21.55 Q82.1 20.6 83.35 18.75 84.6 16.9 82.65 15.15 80.65 13.4 75.1 12.6 L76.7 10.35 M71.8 25.6 L71.9 24.55 71.9 25.75 71.8 25.6" fill="#c0c0b6" fill-rule="evenodd" stroke="none"/>
    <path d="M81.2 10.7 L81.8 10.8 88.0 13.35 92.35 17.25 95.85 25.45 Q96.6 27.55 96.6 28.8 96.6 31.6 94.55 37.9 93.95 37.55 93.0 37.3 L91.55 37.1 Q92.8 34.9 94.05 29.35 94.05 23.45 92.15 19.95 89.3 14.6 81.2 10.7" fill="#948774" fill-rule="evenodd" stroke="none"/>
    <path d="M77.6 10.35 L81.2 10.7 Q89.3 14.6 92.15 19.95 94.05 23.45 94.05 29.35 92.8 34.9 91.55 37.1 L90.15 37.4 91.95 32.95 Q92.95 29.95 92.95 26.85 92.95 22.1 89.4 17.8 85.2 12.7 77.6 10.35" fill="#5e686f" fill-rule="evenodd" stroke="none"/>
    <path d="M72.15 24.55 Q79.7 29.8 81.85 32.05 84.65 34.9 84.65 38.2 84.65 41.3 82.55 42.3 L73.75 44.4 67.75 41.9 Q72.65 42.25 75.45 40.4 78.2 38.65 78.2 35.45 78.2 32.8 77.9 31.85 L75.9 27.85 72.05 24.5 72.15 24.55" fill="url(#gradient0)" fill-rule="evenodd" stroke="none"/>
    <path d="M62.7 17.9 L63.3 17.05 Q63.3 19.95 64.3 22.05 65.3 24.1 66.75 24.1 64.55 25.05 63.75 25.05 L60.7 22.9 61.7 20.25 62.7 17.9 M70.7 22.35 L69.5 22.9 70.8 21.05 70.7 22.35" fill="url(#gradient1)" fill-rule="evenodd" stroke="none"/>
    <path d="M75.9 27.85 L77.9 31.85 Q78.2 32.8 78.2 35.45 78.2 38.65 75.45 40.4 72.65 42.25 67.75 41.9 L65.65 40.35 63.85 38.1 62.3 34.8 60.7 31.0 60.35 27.3 60.7 22.9 63.75 25.05 Q64.55 25.05 66.75 24.1 L68.2 23.55 69.5 22.9 70.7 22.35 70.7 22.4 Q69.8 24.4 69.7 25.8 L69.7 25.95 69.7 26.05 69.85 26.5 69.95 26.8 70.25 27.15 70.6 27.5 70.65 27.5 71.95 28.55 73.85 29.9 Q75.6 27.65 75.9 27.85" fill="url(#gradient2)" fill-rule="evenodd" stroke="none"/>
    <path d="M100.4 47.95 L100.4 42.1 108.75 42.1 112.2 47.95 100.4 47.95 M100.4 41.35 L100.4 41.1 108.35 41.1 109.05 36.4 112.3 36.4 109.1 41.85 108.65 41.35 100.4 41.35 M108.35 44.35 L108.35 43.95 Q108.3 43.3 107.85 43.0 107.45 42.55 106.95 42.65 106.35 42.7 106.05 43.15 105.7 43.6 105.75 44.1 L105.75 44.5 106.05 44.95 107.15 46.95 Q109.95 47.15 108.35 44.35 M105.05 44.35 L105.05 44.25 Q105.05 43.65 104.6 43.25 L103.65 43.0 Q103.15 43.05 102.8 43.5 102.5 43.85 102.5 44.35 L102.5 44.5 Q102.5 45.05 102.95 45.45 L103.55 46.4 104.15 47.3 Q106.7 47.1 105.1 44.25 L105.05 44.35" fill="#ded6c9" fill-rule="evenodd" stroke="none"/>
    <path d="M100.4 42.1 L100.4 41.35 108.65 41.35 109.1 41.85 112.3 36.4 112.3 47.95 112.2 47.95 108.75 42.1 100.4 42.1" fill="#bead96" fill-rule="evenodd" stroke="none"/>
    <path d="M103.2 37.85 L102.9 37.75 102.05 37.6 Q101.4 37.6 101.3 38.0 L101.5 38.15 102.5 38.1 Q103.25 38.05 103.2 37.85 M101.15 38.4 L100.95 37.9 100.95 37.85 101.1 37.5 Q101.2 37.3 101.5 37.25 L102.75 37.1 103.2 37.25 103.4 37.65 103.4 37.9 103.3 38.0 Q102.95 38.4 102.45 38.3 L101.5 38.5 101.15 38.4 M102.3 38.9 L102.9 38.8 103.3 39.0 103.5 39.25 103.5 39.35 103.5 39.4 103.4 39.75 103.4 39.8 103.4 39.85 102.95 40.05 102.15 40.1 102.0 40.1 101.4 40.1 101.3 40.05 101.1 39.6 101.2 39.2 101.6 38.9 102.3 38.9 M103.1 39.55 Q102.95 39.35 102.5 39.3 L101.8 39.25 Q101.5 39.3 101.35 39.6 101.5 40.0 102.35 39.95 103.25 39.8 103.1 39.55 M106.7 43.5 L106.45 43.65 106.2 44.25 106.5 44.85 107.1 45.05 107.65 44.7 107.85 44.1 107.45 43.7 107.25 43.7 Q107.35 42.85 106.7 43.5 M106.05 44.95 L105.75 44.5 105.75 44.1 Q105.7 43.6 106.05 43.15 106.35 42.7 106.95 42.65 107.45 42.55 107.85 43.0 108.3 43.3 108.35 43.95 L108.35 44.35 108.05 44.95 107.15 45.45 Q106.65 45.45 106.2 45.1 L106.05 44.95 M102.95 45.45 Q102.5 45.05 102.5 44.5 L102.5 44.35 Q102.5 43.85 102.8 43.5 103.15 43.05 103.65 43.0 L104.6 43.25 Q105.05 43.65 105.05 44.25 L105.05 44.35 104.8 45.25 Q104.45 45.7 103.9 45.8 103.4 45.8 102.95 45.45 M103.1 44.85 L103.3 45.1 103.85 45.3 Q104.15 45.3 104.35 45.0 L104.55 44.45 104.4 44.0 104.35 43.8 103.7 43.65 Q103.7 43.05 102.75 44.1 L102.95 44.7 103.1 44.85" fill="#eff3f5" fill-rule="evenodd" stroke="none"/>
    <path d="M103.2 37.85 Q103.25 38.05 102.5 38.1 L101.5 38.15 101.3 38.0 Q101.4 37.6 102.05 37.6 L102.9 37.75 103.2 37.85 M103.1 39.55 Q103.25 39.8 102.35 39.95 101.5 40.0 101.35 39.6 101.5 39.3 101.8 39.25 L102.5 39.3 Q102.95 39.35 103.1 39.55 M107.25 43.7 L107.1 44.5 Q106.95 44.95 106.5 44.5 L106.25 44.0 106.7 43.5 Q107.35 42.85 107.25 43.7 M103.1 44.85 L102.95 44.7 102.75 44.1 Q103.7 43.05 103.7 43.65 L103.55 44.7 Q103.45 45.1 103.1 44.85" fill="#aab0b3" fill-rule="evenodd" stroke="none"/>
    <path d="M107.25 43.7 L107.45 43.7 107.85 44.1 107.65 44.7 107.1 45.05 106.5 44.85 106.2 44.25 106.45 43.65 106.7 43.5 106.25 44.0 106.5 44.5 Q106.95 44.95 107.1 44.5 L107.25 43.7 M103.7 43.65 L104.35 43.8 104.4 44.0 104.55 44.45 104.35 45.0 Q104.15 45.3 103.85 45.3 L103.3 45.1 103.1 44.85 Q103.45 45.1 103.55 44.7 L103.7 43.65" fill="#ced1d2" fill-rule="evenodd" stroke="none"/>
    <path d="M100.4 48.25 L100.4 47.95 112.2 47.95 112.3 47.95 112.3 48.25 100.4 48.25 M100.4 36.4 L100.4 36.1 112.3 36.1 112.3 36.4 109.05 36.4 100.4 36.4 M108.35 44.35 Q109.95 47.15 107.15 46.95 L106.05 44.95 106.2 45.1 Q106.65 45.45 107.15 45.45 L108.05 44.95 108.35 44.35 M105.05 44.35 L105.1 44.25 Q106.7 47.1 104.15 47.3 L103.55 46.4 102.95 45.45 Q103.4 45.8 103.9 45.8 104.45 45.7 104.8 45.25 L105.05 44.35" fill="#87888d" fill-rule="evenodd" stroke="none"/>
    <path d="M103.4 37.9 Q103.5 37.3 103.5 37.85 L103.1 38.55 102.3 38.9 101.6 38.9 101.5 38.9 101.2 38.8 101.1 38.45 101.15 38.4 101.5 38.5 102.45 38.3 Q102.95 38.4 103.3 38.0 L103.4 37.9 M103.5 39.25 L103.65 39.5 Q103.8 40.0 103.3 40.25 L102.2 40.55 Q101.2 40.25 101.4 40.1 L102.0 40.1 102.15 40.1 102.95 40.05 103.4 39.85 103.4 39.8 103.4 39.75 103.5 39.4 103.5 39.35 103.5 39.25 M100.4 41.1 L100.4 36.4 109.05 36.4 108.35 41.1 100.4 41.1 M107.8 40.6 L108.35 36.75 100.65 36.75 100.65 40.6 107.8 40.6" fill="#bdbbc4" fill-rule="evenodd" stroke="none"/>
    <path d="M103.4 37.9 L103.4 37.65 103.2 37.25 102.75 37.1 101.5 37.25 Q101.2 37.3 101.1 37.5 L100.95 37.85 100.95 37.9 101.15 38.4 101.1 38.45 101.2 38.8 101.5 38.9 101.6 38.9 101.2 39.2 101.1 39.6 101.3 40.05 101.4 40.1 Q101.2 40.25 102.2 40.55 L103.3 40.25 Q103.8 40.0 103.65 39.5 L103.5 39.25 103.3 39.0 102.9 38.8 102.3 38.9 103.1 38.55 103.5 37.85 Q103.5 37.3 103.4 37.9 M107.8 40.6 L100.65 40.6 100.65 36.75 108.35 36.75 107.8 40.6" fill="#fffafc" fill-rule="evenodd" stroke="none"/>
    <path d="M100.4 48.25 L100.4 48.55 99.9 48.55 99.9 35.9 100.4 35.9 100.4 36.1 100.4 36.4 100.4 41.1 100.4 41.35 100.4 42.1 100.4 47.95 100.4 48.25 M112.3 36.1 L112.3 35.9 112.85 35.9 112.85 48.55 112.3 48.55 112.3 48.25 112.3 47.95 112.3 36.4 112.3 36.1" fill="#666666" fill-rule="evenodd" stroke="none"/>
  </g>
  <defs>
    <linearGradient gradientTransform="matrix(0.0043, 0.0082, -0.0107, 0.0056, 76.65, 28.9)" gradientUnits="userSpaceOnUse" id="gradient0" spreadMethod="pad" x1="-819.2" x2="819.2">
      <stop offset="0.13333333333333333" stop-color="#f6fcfa"/>
      <stop offset="1.0" stop-color="#d6d7cf"/>
    </linearGradient>
    <linearGradient gradientTransform="matrix(-3.0E-4, -9.0E-4, 0.0061, -0.0016, 66.2, 23.55)" gradientUnits="userSpaceOnUse" id="gradient1" spreadMethod="pad" x1="-819.2" x2="819.2">
      <stop offset="0.13333333333333333" stop-color="#f6fcfa"/>
      <stop offset="1.0" stop-color="#d6d7cf"/>
    </linearGradient>
    <radialGradient cx="0" cy="0" gradientTransform="matrix(0.0153, 0.0, 0.0, 0.0153, 70.4, 26.9)" gradientUnits="userSpaceOnUse" id="gradient2" r="819.2" spreadMethod="pad">
      <stop offset="0.5529411764705883" stop-color="#f6fcfa"/>
      <stop offset="1.0" stop-color="#d6d7cf"/>
    </radialGradient>
  </defs>
</svg>
