<?xml version="1.0" encoding="UTF-8" standalone="no"?>
<svg xmlns:ffdec="https://www.free-decompiler.com/flash" xmlns:xlink="http://www.w3.org/1999/xlink" ffdec:objectType="shape" height="28.65px" width="31.6px" xmlns="http://www.w3.org/2000/svg">
  <g transform="matrix(1.0, 0.0, 0.0, 1.0, -0.25, 0.3)">
    <path d="M15.9 -0.25 L15.95 -0.25 Q16.75 -0.4 17.45 0.15 L18.35 1.05 18.45 1.2 18.8 1.6 18.8 1.65 30.2 22.15 30.35 22.3 30.8 23.15 31.35 24.25 Q32.0 25.65 31.8 26.65 31.6 27.55 31.0 27.85 L30.0 28.25 29.45 28.35 29.3 28.35 2.95 28.35 2.8 28.35 2.35 28.25 2.15 28.2 1.05 27.7 Q0.45 27.4 0.3 26.6 0.1 25.75 0.75 24.35 L0.75 24.3 13.7 1.65 13.75 1.65 Q14.15 0.85 14.65 0.4 L15.9 -0.25 M15.55 1.7 L2.15 25.0 Q1.55 26.1 2.15 26.65 L30.05 26.65 Q30.85 26.2 30.05 24.9 L17.1 1.7 Q16.3 0.6 15.55 1.7" fill="#000000" fill-rule="evenodd" stroke="none"/>
    <path d="M15.55 1.7 Q16.3 0.6 17.1 1.7 L30.05 24.9 Q30.85 26.2 30.05 26.65 L2.15 26.65 Q1.55 26.1 2.15 25.0 L15.55 1.7 M29.45 25.6 L29.3 25.9 29.45 25.65 29.45 25.6" fill="url(#gradient0)" fill-rule="evenodd" stroke="none"/>
    <path d="M13.5 11.8 L16.35 11.8 Q17.05 11.8 17.05 12.55 L17.05 14.55 Q17.05 15.4 16.35 15.4 L13.5 15.4 Q12.75 15.4 12.75 14.55 L12.75 12.55 Q12.75 11.8 13.5 11.8" fill="#ffffff" fill-rule="evenodd" stroke="none"/>
    <path d="M21.6 15.1 L21.5 14.9 21.45 14.85 Q21.0 12.65 19.85 11.95 L19.75 11.9 Q18.9 11.1 19.4 10.8 L20.3 11.0 Q21.3 11.25 22.15 12.55 L22.95 13.95 22.35 14.95 Q22.4 16.45 22.9 17.75 L22.9 17.95 Q23.8 20.95 22.5 22.15 L21.7 22.5 Q20.2 22.75 19.5 21.9 18.8 21.05 19.0 19.25 L18.95 17.05 Q18.55 16.75 18.55 17.2 L18.5 17.7 18.5 23.1 24.85 23.1 25.35 23.3 25.55 23.8 25.55 23.85 25.35 24.35 24.85 24.55 6.75 24.55 Q6.45 24.55 6.25 24.35 L6.05 23.85 6.05 23.8 6.25 23.3 6.75 23.1 11.45 23.1 11.45 11.6 Q11.45 10.35 12.6 10.35 L17.35 10.35 Q18.5 10.35 18.5 11.6 L18.5 15.75 19.5 15.8 Q20.35 15.9 20.1 18.1 19.85 20.3 20.1 20.9 20.3 21.5 20.9 21.7 21.5 21.85 22.1 21.0 22.7 20.1 22.3 19.15 21.9 18.2 21.8 17.1 L21.6 15.1 M13.5 11.8 Q12.75 11.8 12.75 12.55 L12.75 14.55 Q12.75 15.4 13.5 15.4 L16.35 15.4 Q17.05 15.4 17.05 14.55 L17.05 12.55 Q17.05 11.8 16.35 11.8 L13.5 11.8" fill="#cc0000" fill-rule="evenodd" stroke="none"/>
  </g>
  <defs>
    <linearGradient gradientTransform="matrix(0.0, -0.0047, 0.0146, 0.0, 16.95, 23.1)" gradientUnits="userSpaceOnUse" id="gradient0" spreadMethod="pad" x1="-819.2" x2="819.2">
      <stop offset="0.00784313725490196" stop-color="#cccccc"/>
      <stop offset="0.9882352941176471" stop-color="#ffffff"/>
    </linearGradient>
  </defs>
</svg>
