<?xml version="1.0" encoding="UTF-8" standalone="no"?>
<svg xmlns:ffdec="https://www.free-decompiler.com/flash" xmlns:xlink="http://www.w3.org/1999/xlink" ffdec:objectType="shape" height="61.8px" width="118.3px" xmlns="http://www.w3.org/2000/svg">
  <g transform="matrix(1.0, 0.0, 0.0, 1.0, 0.0, 0.0)">
    <path d="M0.8 59.5 L0.0 59.5 0.0 59.15 0.05 58.95 0.0 58.75 Q0.15 34.5 17.35 17.35 34.7 0.0 59.15 0.0 83.65 0.0 101.0 17.35 118.3 34.65 118.3 59.15 L118.25 59.35 118.3 59.55 118.3 61.8 117.5 61.8 117.5 59.55 117.55 59.35 117.5 59.15 Q117.5 34.95 100.45 17.9 83.35 0.8 59.15 0.8 35.0 0.8 17.9 17.9 0.95 34.8 0.8 58.75 L0.75 58.95 0.8 59.15 0.8 59.5 M104.7 61.55 L103.9 61.5 103.9 60.25 103.95 60.05 103.9 59.85 Q103.9 40.95 90.65 27.7 77.35 14.35 58.5 14.35 39.65 14.35 26.4 27.7 13.25 40.8 13.1 59.45 L13.05 59.65 13.1 59.75 12.35 59.7 12.35 59.65 12.3 59.45 Q12.45 40.5 25.85 27.15 39.35 13.55 58.5 13.55 77.65 13.55 91.2 27.15 104.7 40.65 104.7 59.85 L104.65 60.05 104.7 60.25 104.7 61.55" fill="#eaeae1" fill-rule="evenodd" stroke="none"/>
    <path d="M0.8 59.5 L0.8 59.15 0.75 58.95 0.8 58.75 Q0.95 34.8 17.9 17.9 35.0 0.8 59.15 0.8 83.35 0.8 100.45 17.9 117.5 34.95 117.5 59.15 L117.55 59.35 117.5 59.55 117.5 61.8 116.9 61.8 116.9 59.15 Q116.9 35.2 100.0 18.3 83.1 1.4 59.15 1.4 35.25 1.4 18.3 18.3 1.4 35.2 1.4 59.15 L1.4 59.5 0.8 59.5 M105.3 61.55 L104.7 61.55 104.7 60.25 104.65 60.05 104.7 59.85 Q104.7 40.65 91.2 27.15 77.65 13.55 58.5 13.55 39.35 13.55 25.85 27.15 12.45 40.5 12.3 59.45 L12.35 59.65 12.35 59.7 11.7 59.7 Q11.75 40.35 25.4 26.7 39.1 12.95 58.5 12.95 77.9 12.95 91.6 26.7 105.3 40.4 105.3 59.85 L105.3 61.55" fill="#555951" fill-rule="evenodd" stroke="none"/>
    <path d="M116.9 61.8 L105.3 61.55 105.3 59.85 Q105.3 40.4 91.6 26.7 77.9 12.95 58.5 12.95 39.1 12.95 25.4 26.7 11.75 40.35 11.7 59.7 L1.4 59.5 1.4 59.15 Q1.4 35.2 18.3 18.3 35.25 1.4 59.15 1.4 83.1 1.4 100.0 18.3 116.9 35.2 116.9 59.15 L116.9 61.8" fill="url(#gradient0)" fill-rule="evenodd" stroke="none"/>
    <path d="M6.4 53.45 L6.6 53.35 6.85 53.45 6.9 53.65 6.8 59.65 6.75 59.85 6.3 59.85 6.2 59.65 6.3 53.65 6.4 53.45 M8.7 41.75 L8.9 41.9 8.9 42.1 Q7.8 45.0 7.3 47.75 L7.2 47.95 6.95 48.0 6.75 47.9 6.7 47.65 Q7.2 44.9 8.35 41.9 L8.5 41.75 8.7 41.75 M13.75 31.2 L13.95 31.05 14.2 31.1 14.3 31.3 14.25 31.55 Q12.55 34.0 11.3 36.65 L11.1 36.8 10.9 36.8 10.75 36.6 10.75 36.4 Q12.05 33.7 13.75 31.2 M54.0 6.85 L54.2 6.95 54.3 7.15 54.25 7.35 54.05 7.45 48.15 8.3 47.95 8.25 47.8 8.05 47.85 7.85 Q47.9 7.7 48.05 7.7 L54.0 6.85 M37.0 12.0 L36.75 12.0 36.6 11.85 36.6 11.6 36.75 11.45 Q39.45 10.15 42.3 9.25 L42.55 9.25 42.7 9.4 42.7 9.65 42.5 9.8 Q39.65 10.75 37.0 12.0 M31.4 14.3 L31.65 14.25 31.8 14.4 31.85 14.65 31.7 14.8 Q29.15 16.35 26.8 18.25 L26.6 18.3 26.4 18.2 26.3 18.0 26.45 17.8 31.4 14.3 M17.9 26.75 L17.7 26.85 17.45 26.8 17.35 26.6 17.45 26.35 20.75 22.8 21.85 21.7 22.05 21.6 22.25 21.7 22.35 21.9 22.25 22.1 21.15 23.2 17.9 26.75 M110.35 50.65 L110.4 50.45 Q110.45 50.3 110.6 50.3 L110.85 50.35 110.95 50.55 Q111.55 53.65 111.55 56.55 L111.45 56.75 111.25 56.85 111.05 56.75 110.95 56.55 Q110.95 53.65 110.35 50.65 M107.05 39.2 L107.65 40.4 109.4 44.7 109.4 44.95 109.2 45.1 109.0 45.1 108.85 44.9 107.1 40.65 106.5 39.45 106.5 39.2 106.65 39.05 106.85 39.05 107.05 39.2 M100.25 28.95 L100.4 28.75 100.6 28.7 100.8 28.85 104.15 33.9 104.2 34.15 104.05 34.3 103.85 34.35 103.65 34.2 100.3 29.2 100.25 28.95 M97.05 24.35 L97.15 24.55 97.05 24.75 96.85 24.85 96.65 24.75 96.35 24.45 92.3 20.45 92.2 20.2 92.3 20.0 Q92.35 19.9 92.5 19.9 L92.7 20.0 96.8 24.05 96.75 24.05 97.05 24.35 M82.7 12.7 L82.95 12.7 Q85.55 14.25 88.0 16.15 L88.1 16.35 88.05 16.6 87.85 16.7 87.6 16.65 82.65 13.3 82.5 13.1 82.5 12.85 82.7 12.7 M66.15 7.7 L65.9 7.75 59.85 7.25 59.65 7.15 59.55 6.95 59.65 6.75 59.85 6.65 66.0 7.15 Q66.1 7.15 66.2 7.3 L66.25 7.5 66.15 7.7 M77.75 10.35 L77.9 10.5 77.9 10.75 77.75 10.9 77.5 10.9 Q74.7 9.75 71.85 8.95 L71.65 8.8 71.6 8.6 71.75 8.4 72.0 8.35 77.75 10.35" fill="#cdccba" fill-rule="evenodd" stroke="none"/>
  </g>
  <defs>
    <radialGradient cx="0" cy="0" gradientTransform="matrix(0.0, -0.0724, 0.1119, 0.0, 110.4, 54.0)" gradientUnits="userSpaceOnUse" id="gradient0" r="819.2" spreadMethod="pad">
      <stop offset="0.0" stop-color="#bcc2ba"/>
      <stop offset="1.0" stop-color="#7e8979"/>
    </radialGradient>
  </defs>
</svg>
