<?xml version="1.0" encoding="UTF-8" standalone="no"?>
<svg xmlns:ffdec="https://www.free-decompiler.com/flash" xmlns:xlink="http://www.w3.org/1999/xlink" ffdec:objectType="shape" height="21.45px" width="13.85px" xmlns="http://www.w3.org/2000/svg">
  <g transform="matrix(1.0, 0.0, 0.0, 1.0, -0.05, -0.05)">
    <path d="M11.15 14.6 L11.15 14.75 11.05 21.5 0.05 21.5 0.05 0.05 11.1 0.05 11.15 1.8 11.15 1.95 11.15 2.05 11.15 14.55 11.15 14.6 M6.0 18.2 L8.15 18.2 8.15 19.1 6.0 19.1 6.0 18.2 M0.2 0.2 L0.2 21.35 11.0 21.35 11.0 0.2 0.2 0.2" fill="#ffffff" fill-rule="evenodd" stroke="none"/>
    <path d="M13.75 1.95 L13.75 14.6 13.45 14.35 13.45 2.2 13.75 1.95 M8.6 18.45 L8.3 18.45 8.25 18.05 5.85 18.05 5.85 19.25 6.35 19.25 6.35 19.55 4.65 19.55 4.65 15.65 8.6 15.65 8.6 18.45 M10.65 20.9 L10.65 0.5 0.5 0.5 0.5 20.9 10.65 20.9 M0.2 0.2 L11.0 0.2 11.0 21.35 0.2 21.35 0.2 0.2" fill="#f7f4e6" fill-rule="evenodd" stroke="none"/>
    <path d="M12.4 2.5 L13.45 2.2 13.45 14.35 12.4 14.05 12.4 2.5 M9.35 2.55 L9.35 14.9 1.95 14.9 1.95 2.55 9.35 2.55 M8.3 18.45 L8.6 18.45 8.6 19.55 6.35 19.55 6.35 19.25 8.3 19.15 8.3 18.45" fill="#e8e2b9" fill-rule="evenodd" stroke="none"/>
    <path d="M11.15 2.05 L12.4 2.5 12.4 14.05 11.15 14.55 11.15 2.05 M9.35 2.55 L1.95 2.55 1.95 14.9 9.35 14.9 9.35 2.55 M4.95 19.7 L4.95 20.05 9.1 20.05 9.1 16.05 8.75 16.05 8.7 15.5 4.5 15.5 4.5 19.7 4.95 19.7 M1.3 20.7 L1.3 1.45 10.45 1.45 10.45 20.7 1.3 20.7" fill="#d9d18c" fill-rule="evenodd" stroke="none"/>
    <path d="M11.15 1.95 L13.75 1.95 13.45 2.2 12.4 2.5 11.15 2.05 11.15 1.95 M13.75 14.6 L11.15 14.6 11.15 14.55 12.4 14.05 13.45 14.35 13.75 14.6 M8.75 16.05 L9.1 16.05 9.1 20.05 4.95 20.05 4.95 19.7 8.75 19.7 8.75 16.05 M10.65 20.9 L0.5 20.9 0.5 0.5 10.65 0.5 10.65 20.9 M1.3 20.7 L10.45 20.7 10.45 1.45 1.3 1.45 1.3 20.7" fill="#c6b953" fill-rule="evenodd" stroke="none"/>
    <path d="M13.75 1.95 L11.15 1.95 11.15 1.8 13.9 1.8 13.9 14.7 11.15 14.75 11.15 14.6 13.75 14.6 13.75 1.95" fill="#b9ac3e" fill-rule="evenodd" stroke="none"/>
    <path d="M6.0 18.2 L6.0 19.1 8.15 19.1 8.15 18.2 6.0 18.2 M8.6 18.45 L8.6 15.65 4.65 15.65 4.65 19.55 6.35 19.55 8.6 19.55 8.6 18.45 M6.35 19.25 L5.85 19.25 5.85 18.05 8.25 18.05 8.3 18.45 8.3 19.15 6.35 19.25 M4.95 19.7 L4.5 19.7 4.5 15.5 8.7 15.5 8.75 16.05 8.75 19.7 4.95 19.7" fill="#998e33" fill-rule="evenodd" stroke="none"/>
    <path d="M11.15 14.3 L11.15 14.9 9.9 14.9 9.9 2.65 10.1 2.65 10.1 14.3 11.15 14.3" fill="#998e33" fill-rule="evenodd" stroke="none"/>
    <path d="M10.25 2.7 L11.1 2.7 11.1 13.5 10.25 13.5 10.25 2.7" fill="#5dcc60" fill-rule="evenodd" stroke="none"/>
    <path d="M10.25 13.5 L11.1 13.5 11.1 2.7 10.25 2.7 10.25 2.3 11.7 2.3 11.7 14.15 10.25 14.15 10.25 13.5" fill="#329c35" fill-rule="evenodd" stroke="none"/>
    <path d="M10.25 13.5 L10.25 14.15 11.7 14.15 11.7 2.3 10.25 2.3 10.25 2.7 10.25 13.5 M10.1 2.65 L10.1 2.15 10.15 2.15 11.75 2.15 11.85 2.15 11.85 14.3 11.75 14.3 11.15 14.3 10.1 14.3 10.1 2.65" fill="#1d5a1d" fill-rule="evenodd" stroke="none"/>
  </g>
</svg>
