<?xml version="1.0" encoding="UTF-8" standalone="no"?>
<svg xmlns:ffdec="https://www.free-decompiler.com/flash" xmlns:xlink="http://www.w3.org/1999/xlink" ffdec:objectType="shape" height="71.8px" width="96.8px" xmlns="http://www.w3.org/2000/svg">
  <g transform="matrix(1.0, 0.0, 0.0, 1.0, 73.55, 31.5)">
    <path d="M20.7 38.65 L20.7 38.7 21.4 38.65 21.4 -30.45 -14.6 -30.45 -14.6 -23.5 -51.0 -23.5 -51.0 38.65 -50.2 38.65 20.7 38.65 M-55.95 -4.75 L-55.95 -3.55 -72.25 -3.55 -72.25 31.7 -71.75 31.7 -57.7 31.7 -55.95 31.7 -55.95 33.05 -73.55 33.05 -73.55 -4.75 -55.95 -4.75 M-51.85 33.05 L-51.85 -4.75 -51.85 -24.95 -15.6 -24.95 -15.6 -31.5 23.25 -31.5 23.25 40.3 -51.85 40.3 -51.85 33.05" fill="#eaeaea" fill-rule="evenodd" stroke="none"/>
    <path d="M20.7 38.65 L20.7 36.4 20.7 -21.95 20.7 -28.8 7.95 -28.8 -13.95 -28.85 -13.95 -21.7 -26.3 -21.7 -50.2 -21.7 -50.2 38.65 -51.0 38.65 -51.0 -23.5 -14.6 -23.5 -14.6 -30.45 21.4 -30.45 21.4 38.65 20.7 38.7 20.7 38.65 M-71.75 31.7 L-72.25 31.7 -72.25 -3.55 -55.95 -3.55 -55.95 -4.75 -51.85 -4.75 -51.85 33.05 -55.95 33.05 -55.95 31.7 -57.7 31.7 -57.7 -2.3 -71.75 -2.3 -71.75 31.7" fill="#969696" fill-rule="evenodd" stroke="none"/>
    <path d="M-50.2 38.65 L-50.2 -21.7 -26.3 -21.7 -13.95 -21.7 -13.95 -28.85 7.95 -28.8 20.7 -28.8 20.7 -21.95 20.7 36.4 20.7 38.65 -50.2 38.65" fill="url(#gradient0)" fill-rule="evenodd" stroke="none"/>
    <path d="M-71.75 31.7 L-71.75 -2.3 -57.7 -2.3 -57.7 31.7 -71.75 31.7" fill="url(#gradient1)" fill-rule="evenodd" stroke="none"/>
    <path d="M-11.95 -20.05 L-12.0 -20.2 -11.95 -20.35 -11.8 -20.4 5.35 -20.4 5.55 -20.35 5.55 -20.2 5.55 -20.05 5.5 -20.05 5.35 -20.0 5.25 -20.0 -11.7 -20.0 -11.8 -20.0 -11.95 -20.05 M-18.2 -8.05 L-18.25 -8.25 -18.2 -8.35 -18.05 -8.45 -11.95 -8.45 -11.8 -8.45 -11.7 -8.4 -11.65 -8.35 -11.6 -8.25 -11.65 -8.05 -11.8 -8.0 -17.95 -8.0 -18.05 -8.0 -18.2 -8.05 M-49.2 -19.7 L-49.35 -19.7 -49.4 -19.9 -49.35 -20.0 -49.2 -20.1 -13.85 -20.1 -13.7 -20.0 -13.65 -19.9 -13.7 -19.7 -13.75 -19.7 -13.95 -19.7 -49.2 -19.7" fill="#ffffff" fill-rule="evenodd" stroke="none"/>
    <path d="M-16.2 -4.15 L-14.65 -4.15 -14.65 -5.2 -16.2 -5.2 -16.2 -4.15 M-16.6 -5.65 L-14.0 -5.65 -14.0 -3.7 -16.6 -3.7 -16.6 -5.65" fill="#fffffc" fill-rule="evenodd" stroke="none"/>
    <path d="M-4.75 -0.1 L-4.75 13.8 -16.9 13.8 -16.9 -0.1 -4.75 -0.1 M-17.0 21.15 L-17.0 21.5 -13.85 21.5 -13.85 21.15 -12.9 21.15 -12.9 21.5 -9.75 21.5 -9.75 21.15 -8.8 21.15 -8.8 21.5 -5.65 21.5 -5.65 21.45 -4.85 22.05 -4.85 22.1 -10.35 22.1 -10.35 25.05 -12.85 23.75 -12.85 22.1 -17.0 22.1 -23.0 22.1 -29.9 22.1 -29.9 22.0 -29.25 21.3 -29.25 21.5 -26.1 21.5 -26.1 21.15 -25.2 21.15 -25.2 21.5 -22.05 21.5 -22.05 21.15 -21.1 21.15 -21.1 21.5 -17.95 21.5 -17.95 21.15 -17.0 21.15 M-13.85 20.2 L-13.85 19.75 -17.0 19.75 -17.0 20.15 -17.95 20.1 -17.95 19.75 -19.55 19.75 -20.3 18.85 -11.8 18.85 -12.25 19.75 -12.9 19.75 -12.9 20.2 -13.85 20.2 M-19.15 23.85 L-17.0 22.35 -17.0 26.8 -14.55 26.8 -13.85 26.75 -13.85 26.8 -12.3 26.8 -12.3 28.85 -17.55 28.85 -17.55 27.2 -18.15 27.2 -18.15 30.5 -23.05 30.5 -23.05 29.45 -19.15 29.45 -19.15 23.85 M-10.15 19.75 L-10.75 18.7 -6.2 18.7 -6.65 19.75 -8.8 19.75 -8.8 20.25 -9.75 20.25 -9.75 19.75 -10.15 19.75 M-1.05 17.1 L-0.15 16.45 -0.05 16.45 -0.05 20.9 -1.05 20.9 -1.05 17.1 M-3.4 26.2 L-7.2 26.2 -7.2 26.25 -8.35 25.5 -8.35 25.4 -3.5 25.4 -3.4 26.2" fill="#7d7661" fill-rule="evenodd" stroke="none"/>
    <path d="M-16.2 -4.15 L-16.2 -5.2 -14.65 -5.2 -14.65 -4.15 -16.2 -4.15" fill="#ad998a" fill-rule="evenodd" stroke="none"/>
    <path d="M-17.05 -11.55 L-17.05 -11.45 -28.8 -11.45 -28.8 -11.55 -28.8 -11.95 -17.05 -11.95 -17.05 -11.55" fill="#9b937a" fill-rule="evenodd" stroke="none"/>
    <path d="M5.25 -20.0 L5.35 -20.0 5.5 -20.05 5.5 -2.65 5.55 -2.65 5.55 -2.5 5.55 -2.35 5.35 -2.3 -18.05 -2.3 -18.2 -2.35 -18.25 -2.5 -18.2 -2.65 -18.2 -8.05 -18.05 -8.0 -17.95 -8.0 -17.95 -2.7 5.25 -2.7 5.25 -20.0" fill="url(#gradient2)" fill-rule="evenodd" stroke="none"/>
    <path d="M-11.7 -20.0 L5.25 -20.0 5.25 -2.7 -17.95 -2.7 -17.95 -8.0 -11.8 -8.0 -11.65 -8.05 -11.6 -8.25 -11.65 -8.35 -11.7 -8.4 -11.7 -20.0 M-16.6 -5.65 L-16.6 -3.7 -14.0 -3.7 -14.0 -5.65 -16.6 -5.65" fill="url(#gradient3)" fill-rule="evenodd" stroke="none"/>
    <path d="M-11.95 -20.05 L-11.8 -20.0 -11.7 -20.0 -11.7 -8.4 -11.8 -8.45 -11.95 -8.45 -11.95 -20.05" fill="url(#gradient4)" fill-rule="evenodd" stroke="none"/>
    <path d="M-17.0 21.15 L-17.95 21.15 -17.95 20.1 -17.0 20.15 -17.0 21.15 M-21.1 21.15 L-22.05 21.15 -22.05 19.75 -25.2 19.75 -25.2 21.15 -26.1 21.15 -26.1 19.75 -29.25 19.75 -29.25 21.3 -29.9 22.0 -29.9 19.25 -21.5 19.25 -21.5 15.35 -4.85 15.35 -4.85 16.45 -0.15 16.45 -1.05 17.1 -4.85 17.1 -4.85 22.05 -5.65 21.45 -5.65 19.75 -6.65 19.75 -6.2 18.7 -5.65 18.7 -5.65 16.0 -11.2 16.0 -11.2 18.7 -10.75 18.7 -10.15 19.75 -12.25 19.75 -11.8 18.85 -11.7 18.85 -11.7 16.05 -20.7 16.05 -20.7 18.85 -20.3 18.85 -19.55 19.75 -21.1 19.75 -21.1 21.15 M-23.0 22.1 L-17.0 22.1 -17.0 22.35 -19.15 23.85 -22.95 23.85 -23.0 22.1 M-12.85 23.75 L-10.35 25.05 -13.85 25.05 -13.85 26.75 -14.55 26.8 -14.55 24.05 -12.85 24.05 -12.85 23.75 M-8.8 21.15 L-9.75 21.15 -9.75 20.25 -8.8 20.25 -8.8 21.15 M-12.9 21.15 L-13.85 21.15 -13.85 20.2 -12.9 20.2 -12.9 21.15 M-0.05 20.9 L-0.05 22.7 -3.1 22.7 -3.1 22.2 -1.05 22.2 -1.05 20.9 -0.05 20.9" fill="url(#gradient5)" fill-rule="evenodd" stroke="none"/>
    <path d="M-10.75 18.7 L-11.2 18.7 -11.2 16.0 -5.65 16.0 -5.65 18.7 -6.2 18.7 -10.75 18.7" fill="url(#gradient6)" fill-rule="evenodd" stroke="none"/>
    <path d="M-20.3 18.85 L-20.7 18.85 -20.7 16.05 -11.7 16.05 -11.7 18.85 -11.8 18.85 -20.3 18.85" fill="url(#gradient7)" fill-rule="evenodd" stroke="none"/>
    <path d="M-5.65 21.45 L-5.65 21.5 -8.8 21.5 -8.8 21.15 -8.8 20.25 -8.8 19.75 -6.65 19.75 -5.65 19.75 -5.65 21.45" fill="url(#gradient8)" fill-rule="evenodd" stroke="none"/>
    <path d="M-9.75 21.15 L-9.75 21.5 -12.9 21.5 -12.9 21.15 -12.9 20.2 -12.9 19.75 -12.25 19.75 -10.15 19.75 -9.75 19.75 -9.75 20.25 -9.75 21.15" fill="url(#gradient9)" fill-rule="evenodd" stroke="none"/>
    <path d="M-17.0 22.1 L-12.85 22.1 -12.85 23.75 -12.85 24.05 -14.55 24.05 -14.55 26.8 -17.0 26.8 -17.0 22.35 -17.0 22.1" fill="url(#gradient10)" fill-rule="evenodd" stroke="none"/>
    <path d="M-0.35 26.2 L-0.35 28.1 0.75 28.1 0.75 30.35 -7.2 30.35 -7.2 26.25 -7.2 26.2 -3.4 26.2 -0.35 26.2" fill="url(#gradient11)" fill-rule="evenodd" stroke="none"/>
    <path d="M-0.35 26.2 L-3.4 26.2 -3.5 25.4 -0.35 25.4 -0.35 26.2 M-7.2 26.25 L-7.2 30.35 -8.35 30.35 -8.35 25.5 -7.2 26.25" fill="url(#gradient12)" fill-rule="evenodd" stroke="none"/>
    <path d="M-49.2 -19.7 L-13.95 -19.7 -13.95 -10.2 -19.65 -10.2 -19.8 -10.1 -19.85 -10.0 -19.8 -9.8 -19.8 13.95 -22.3 13.95 -22.45 14.0 -22.5 14.15 -22.45 14.3 -22.45 18.35 -30.7 18.35 -30.8 18.45 -30.9 18.55 -30.8 18.7 -30.8 22.7 -30.9 22.85 -30.8 23.0 -30.7 23.05 -25.4 23.05 -25.4 36.4 -49.2 36.4 -49.2 -19.7 M-16.55 -11.95 L-16.55 -18.45 -29.3 -18.45 -29.3 -11.95 -29.3 -11.55 -28.8 -11.55 -28.8 -11.45 -28.8 -11.05 -17.05 -11.05 -17.05 -11.45 -17.05 -11.55 -16.55 -11.55 -16.55 -11.95" fill="url(#gradient13)" fill-rule="evenodd" stroke="none"/>
    <path d="M-29.3 -11.95 L-29.3 -18.45 -16.55 -18.45 -16.55 -11.95 -17.05 -11.95 -28.8 -11.95 -29.3 -11.95" fill="url(#gradient14)" fill-rule="evenodd" stroke="none"/>
    <path d="M-13.95 -19.7 L-13.75 -19.7 -13.75 -10.15 -13.7 -10.1 -13.65 -10.0 -13.7 -9.8 -13.85 -9.8 -19.55 -9.8 -19.55 13.95 -19.5 14.0 -19.45 14.15 -19.5 14.3 -19.65 14.35 -22.2 14.35 -22.2 18.4 -22.15 18.45 -22.1 18.55 -22.15 18.7 -22.3 18.75 -30.55 18.75 -30.55 22.65 -25.3 22.65 -25.15 22.7 -25.1 22.85 -25.15 23.0 -25.2 23.0 -25.2 36.45 -25.15 36.5 -25.1 36.65 -25.15 36.8 -25.3 36.85 -49.2 36.85 -49.35 36.8 -49.4 36.65 -49.35 36.5 -49.2 36.4 -25.4 36.4 -25.4 23.05 -30.7 23.05 -30.8 23.0 -30.9 22.85 -30.8 22.7 -30.8 18.7 -30.9 18.55 -30.8 18.45 -30.7 18.35 -22.45 18.35 -22.45 14.3 -22.5 14.15 -22.45 14.0 -22.3 13.95 -19.8 13.95 -19.8 -9.8 -19.85 -10.0 -19.8 -10.1 -19.65 -10.2 -13.95 -10.2 -13.95 -19.7" fill="url(#gradient15)" fill-rule="evenodd" stroke="none"/>
    <path d="M-22.05 21.15 L-22.05 21.5 -25.2 21.5 -25.2 21.15 -25.2 19.75 -22.05 19.75 -22.05 21.15" fill="url(#gradient16)" fill-rule="evenodd" stroke="none"/>
    <path d="M-26.1 21.15 L-26.1 21.5 -29.25 21.5 -29.25 21.3 -29.25 19.75 -26.1 19.75 -26.1 21.15" fill="url(#gradient17)" fill-rule="evenodd" stroke="none"/>
    <path d="M-13.85 21.15 L-13.85 21.5 -17.0 21.5 -17.0 21.15 -17.0 20.15 -17.0 19.75 -13.85 19.75 -13.85 20.2 -13.85 21.15" fill="url(#gradient18)" fill-rule="evenodd" stroke="none"/>
    <path d="M-17.95 21.15 L-17.95 21.5 -21.1 21.5 -21.1 21.15 -21.1 19.75 -19.55 19.75 -17.95 19.75 -17.95 20.1 -17.95 21.15" fill="url(#gradient19)" fill-rule="evenodd" stroke="none"/>
    <path d="M22.6 -31.05 L22.65 -30.95 22.7 39.6 22.65 39.7 22.55 39.75 -51.6 40.05 -51.7 40.0 -51.7 39.9 -51.7 -24.7 -51.7 -24.8 -51.6 -24.8 -15.25 -24.65 -15.45 -31.1 -15.45 -31.15 -15.4 -31.2 -15.35 -31.2 22.5 -31.05 22.6 -31.05 M-73.2 -4.5 L-73.1 -4.5 -52.1 -4.3 -52.0 -4.25 -51.95 -4.2 -52.0 -4.1 -52.1 -4.05 -72.95 -4.25 -72.85 32.6 -52.1 32.5 -52.0 32.5 -51.95 32.6 -52.0 32.7 -52.1 32.75 -73.0 32.85 -73.1 32.8 -73.1 32.7 -73.2 -4.4 -73.2 -4.5 M-15.0 -24.55 L-15.05 -24.5 -15.05 -24.45 -15.15 -24.4 -51.45 -24.55 -51.45 39.8 22.45 39.5 22.4 -30.8 -15.2 -30.95 -15.0 -24.55" fill="#962525" fill-rule="evenodd" stroke="none"/>
    <path d="M-23.4 17.55 L-25.95 17.55 -25.95 15.55 -23.4 15.55 -23.4 17.55 M-24.05 17.1 L-24.05 16.0 -25.55 16.0 -25.55 17.1 -24.05 17.1" fill="#fffffc" fill-rule="evenodd" stroke="none"/>
    <path d="M-24.05 17.1 L-25.55 17.1 -25.55 16.0 -24.05 16.0 -24.05 17.1" fill="#ad998a" fill-rule="evenodd" stroke="none"/>
    <path d="M-45.0 33.0 L-45.0 34.95 -47.6 34.95 -47.6 33.0 -45.0 33.0 M-45.65 34.5 L-45.65 33.45 -47.15 33.45 -47.15 34.5 -45.65 34.5" fill="#fffffc" fill-rule="evenodd" stroke="none"/>
    <path d="M-45.65 34.5 L-47.15 34.5 -47.15 33.45 -45.65 33.45 -45.65 34.5" fill="#ad998a" fill-rule="evenodd" stroke="none"/>
    <path d="M-20.7 27.0 L-22.2 27.0 -22.2 28.05 -20.7 28.05 -20.7 27.0 M-22.6 28.5 L-22.6 26.55 -20.0 26.55 -20.0 28.5 -22.6 28.5" fill="#fffffc" fill-rule="evenodd" stroke="none"/>
    <path d="M-20.7 27.0 L-20.7 28.05 -22.2 28.05 -22.2 27.0 -20.7 27.0" fill="#ad998a" fill-rule="evenodd" stroke="none"/>
    <path d="M18.2 35.1 L16.7 35.1 16.7 36.2 18.2 36.2 18.2 35.1 M16.3 36.65 L16.3 34.65 18.85 34.65 18.85 36.65 16.3 36.65" fill="#fffffc" fill-rule="evenodd" stroke="none"/>
    <path d="M18.2 35.1 L18.2 36.2 16.7 36.2 16.7 35.1 18.2 35.1" fill="#ad998a" fill-rule="evenodd" stroke="none"/>
    <path d="M-47.85 -18.4 L-47.85 -17.35 -46.35 -17.35 -46.35 -18.4 -47.85 -18.4 M-48.3 -16.9 L-48.3 -18.85 -45.7 -18.85 -45.7 -16.9 -48.3 -16.9" fill="#fffffc" fill-rule="evenodd" stroke="none"/>
    <path d="M-47.85 -18.4 L-46.35 -18.4 -46.35 -17.35 -47.85 -17.35 -47.85 -18.4" fill="#ad998a" fill-rule="evenodd" stroke="none"/>
    <path d="M-8.1 -27.2 L-9.55 -27.2 -9.55 -25.75 -8.1 -25.75 -8.1 -27.2 M-10.15 -27.2 L-11.6 -27.2 -11.6 -25.75 -10.15 -25.75 -10.15 -27.2 M-11.95 -27.55 L12.85 -27.55 12.85 -25.3 -11.95 -25.3 -11.95 -27.55 M-4.0 -27.2 L-5.45 -27.2 -5.45 -25.75 -4.0 -25.75 -4.0 -27.2 M-6.05 -27.2 L-7.5 -27.2 -7.5 -25.75 -6.05 -25.75 -6.05 -27.2 M-3.4 -27.2 L-3.4 -25.75 -1.95 -25.75 -1.95 -27.2 -3.4 -27.2 M-1.35 -25.75 L0.05 -25.75 0.05 -27.2 -1.35 -27.2 -1.35 -25.75 M2.75 -27.2 L2.75 -25.75 4.15 -25.75 4.15 -27.2 2.75 -27.2 M0.7 -27.2 L0.7 -25.75 2.1 -25.75 2.1 -27.2 0.7 -27.2 M6.2 -25.75 L6.2 -27.2 4.75 -27.2 4.75 -25.75 6.2 -25.75 M8.25 -27.2 L6.8 -27.2 6.8 -25.75 8.25 -25.75 8.25 -27.2 M12.35 -27.2 L10.9 -27.2 10.9 -25.75 12.35 -25.75 12.35 -27.2 M10.3 -27.2 L8.85 -27.2 8.85 -25.75 10.3 -25.75 10.3 -27.2" fill="#ffffff" fill-rule="evenodd" stroke="none"/>
    <path d="M-8.1 -27.2 L-8.1 -25.75 -9.55 -25.75 -9.55 -27.2 -8.1 -27.2" fill="url(#gradient20)" fill-rule="evenodd" stroke="none"/>
    <path d="M-10.15 -27.2 L-10.15 -25.75 -11.6 -25.75 -11.6 -27.2 -10.15 -27.2" fill="url(#gradient21)" fill-rule="evenodd" stroke="none"/>
    <path d="M-6.05 -27.2 L-6.05 -25.75 -7.5 -25.75 -7.5 -27.2 -6.05 -27.2" fill="url(#gradient22)" fill-rule="evenodd" stroke="none"/>
    <path d="M-4.0 -27.2 L-4.0 -25.75 -5.45 -25.75 -5.45 -27.2 -4.0 -27.2" fill="url(#gradient23)" fill-rule="evenodd" stroke="none"/>
    <path d="M-3.4 -27.2 L-1.95 -27.2 -1.95 -25.75 -3.4 -25.75 -3.4 -27.2" fill="url(#gradient24)" fill-rule="evenodd" stroke="none"/>
    <path d="M-1.35 -25.75 L-1.35 -27.2 0.05 -27.2 0.05 -25.75 -1.35 -25.75" fill="url(#gradient25)" fill-rule="evenodd" stroke="none"/>
    <path d="M0.7 -27.2 L2.1 -27.2 2.1 -25.75 0.7 -25.75 0.7 -27.2" fill="url(#gradient26)" fill-rule="evenodd" stroke="none"/>
    <path d="M2.75 -27.2 L4.15 -27.2 4.15 -25.75 2.75 -25.75 2.75 -27.2" fill="url(#gradient27)" fill-rule="evenodd" stroke="none"/>
    <path d="M8.25 -27.2 L8.25 -25.75 6.8 -25.75 6.8 -27.2 8.25 -27.2" fill="url(#gradient28)" fill-rule="evenodd" stroke="none"/>
    <path d="M6.2 -25.75 L4.75 -25.75 4.75 -27.2 6.2 -27.2 6.2 -25.75" fill="url(#gradient29)" fill-rule="evenodd" stroke="none"/>
    <path d="M12.35 -27.2 L12.35 -25.75 10.9 -25.75 10.9 -27.2 12.35 -27.2" fill="url(#gradient30)" fill-rule="evenodd" stroke="none"/>
    <path d="M10.3 -27.2 L10.3 -25.75 8.85 -25.75 8.85 -27.2 10.3 -27.2" fill="url(#gradient31)" fill-rule="evenodd" stroke="none"/>
    <path d="M16.95 28.05 L16.95 29.5 18.4 29.5 18.4 28.05 16.95 28.05 M16.95 30.1 L16.95 31.55 18.4 31.55 18.4 30.1 16.95 30.1 M16.6 31.9 L16.6 7.1 18.85 7.1 18.85 31.9 16.6 31.9 M16.95 26.0 L16.95 27.45 18.4 27.45 18.4 26.0 16.95 26.0 M16.95 23.95 L16.95 25.4 18.4 25.4 18.4 23.95 16.95 23.95 M16.95 21.9 L16.95 23.35 18.4 23.35 18.4 21.9 16.95 21.9 M16.95 21.3 L18.4 21.3 18.4 19.9 16.95 19.9 16.95 21.3 M16.95 19.25 L18.4 19.25 18.4 17.85 16.95 17.85 16.95 19.25 M16.95 17.2 L18.4 17.2 18.4 15.8 16.95 15.8 16.95 17.2 M16.95 11.7 L16.95 13.15 18.4 13.15 18.4 11.7 16.95 11.7 M18.4 13.75 L16.95 13.75 16.95 15.2 18.4 15.2 18.4 13.75 M16.95 7.6 L16.95 9.05 18.4 9.05 18.4 7.6 16.95 7.6 M16.95 9.65 L16.95 11.1 18.4 11.1 18.4 9.65 16.95 9.65" fill="#ffffff" fill-rule="evenodd" stroke="none"/>
    <path d="M16.95 28.05 L18.4 28.05 18.4 29.5 16.95 29.5 16.95 28.05" fill="url(#gradient32)" fill-rule="evenodd" stroke="none"/>
    <path d="M16.95 30.1 L18.4 30.1 18.4 31.55 16.95 31.55 16.95 30.1" fill="url(#gradient33)" fill-rule="evenodd" stroke="none"/>
    <path d="M16.95 26.0 L18.4 26.0 18.4 27.45 16.95 27.45 16.95 26.0" fill="url(#gradient34)" fill-rule="evenodd" stroke="none"/>
    <path d="M16.95 23.95 L18.4 23.95 18.4 25.4 16.95 25.4 16.95 23.95" fill="url(#gradient35)" fill-rule="evenodd" stroke="none"/>
    <path d="M16.95 21.9 L18.4 21.9 18.4 23.35 16.95 23.35 16.95 21.9" fill="url(#gradient36)" fill-rule="evenodd" stroke="none"/>
    <path d="M16.95 21.3 L16.95 19.9 18.4 19.9 18.4 21.3 16.95 21.3" fill="url(#gradient37)" fill-rule="evenodd" stroke="none"/>
    <path d="M16.95 19.25 L16.95 17.85 18.4 17.85 18.4 19.25 16.95 19.25" fill="url(#gradient38)" fill-rule="evenodd" stroke="none"/>
    <path d="M16.95 17.2 L16.95 15.8 18.4 15.8 18.4 17.2 16.95 17.2" fill="url(#gradient39)" fill-rule="evenodd" stroke="none"/>
    <path d="M16.95 11.7 L18.4 11.7 18.4 13.15 16.95 13.15 16.95 11.7" fill="url(#gradient40)" fill-rule="evenodd" stroke="none"/>
    <path d="M18.4 13.75 L18.4 15.2 16.95 15.2 16.95 13.75 18.4 13.75" fill="url(#gradient41)" fill-rule="evenodd" stroke="none"/>
    <path d="M16.95 7.6 L18.4 7.6 18.4 9.05 16.95 9.05 16.95 7.6" fill="url(#gradient42)" fill-rule="evenodd" stroke="none"/>
    <path d="M16.95 9.65 L18.4 9.65 18.4 11.1 16.95 11.1 16.95 9.65" fill="url(#gradient43)" fill-rule="evenodd" stroke="none"/>
    <path d="M-45.65 6.85 L-47.15 6.85 -47.15 7.9 -45.65 7.9 -45.65 6.85 M-47.6 6.4 L-45.0 6.4 -45.0 8.35 -47.6 8.35 -47.6 6.4" fill="#fffffc" fill-rule="evenodd" stroke="none"/>
    <path d="M-45.65 6.85 L-45.65 7.9 -47.15 7.9 -47.15 6.85 -45.65 6.85" fill="#ad998a" fill-rule="evenodd" stroke="none"/>
    <path d="M-4.2 7.1 L-17.4 7.1 -17.4 4.65 -4.2 4.65 -4.2 7.1" fill="url(#gradient44)" fill-rule="evenodd" stroke="none"/>
    <path d="M-4.2 4.25 L-17.4 4.25 -17.4 1.8 -4.2 1.8 -4.2 4.25" fill="url(#gradient45)" fill-rule="evenodd" stroke="none"/>
    <path d="M-4.2 1.4 L-17.4 1.4 -17.4 -1.05 -4.2 -1.05 -4.2 1.4" fill="url(#gradient46)" fill-rule="evenodd" stroke="none"/>
    <path d="M-17.4 10.4 L-4.2 10.4 -4.2 12.85 -17.4 12.85 -17.4 10.4" fill="url(#gradient47)" fill-rule="evenodd" stroke="none"/>
    <path d="M-17.4 7.5 L-4.2 7.5 -4.2 9.95 -17.4 9.95 -17.4 7.5" fill="url(#gradient48)" fill-rule="evenodd" stroke="none"/>
    <path d="M-70.2 28.4 L-67.6 28.4 -67.6 30.35 -70.2 30.35 -70.2 28.4 M-68.25 28.85 L-69.75 28.85 -69.75 29.9 -68.25 29.9 -68.25 28.85" fill="#fffffc" fill-rule="evenodd" stroke="none"/>
    <path d="M-68.25 28.85 L-68.25 29.9 -69.75 29.9 -69.75 28.85 -68.25 28.85" fill="#ad998a" fill-rule="evenodd" stroke="none"/>
    <path d="M-31.05 -2.25 Q-30.6 -0.65 -31.05 1.0 L-31.05 1.05 Q-31.7 3.4 -33.8 4.7 L-35.15 5.3 -35.3 5.3 -35.4 5.3 -35.5 5.3 Q-36.9 5.65 -38.35 5.3 L-38.35 5.25 Q-40.05 4.8 -41.2 3.6 L-40.4 3.15 Q-39.5 4.05 -38.45 4.4 L-36.45 4.6 -35.4 4.45 -34.2 3.95 Q-32.45 2.9 -31.9 0.8 -31.5 -0.55 -31.8 -1.8 L-31.05 -2.25 M-35.3 -4.55 L-32.55 0.2 -33.65 0.85 -34.9 -1.25 -38.35 0.75 -37.15 2.85 -38.2 3.45 -40.95 -1.3 -39.85 -1.9 -38.7 0.1 -35.25 -1.9 -36.4 -3.9 -35.3 -4.55 M-32.05 -4.2 L-32.85 -3.8 Q-33.85 -5.0 -35.55 -5.5 -37.55 -6.05 -39.4 -4.95 -41.2 -3.9 -41.8 -1.85 -42.2 -0.2 -41.65 1.35 L-42.35 1.75 Q-43.15 -0.1 -42.6 -2.05 -41.9 -4.5 -39.8 -5.7 -37.65 -6.95 -35.3 -6.3 -33.3 -5.8 -32.05 -4.2" fill="#964040" fill-rule="evenodd" stroke="none"/>
  </g>
  <defs>
    <linearGradient gradientTransform="matrix(0.0, -0.0433, 0.0412, 0.0, -14.7, -7.35)" gradientUnits="userSpaceOnUse" id="gradient0" spreadMethod="pad" x1="-819.2" x2="819.2">
      <stop offset="0.0" stop-color="#e3e3de"/>
      <stop offset="0.5529411764705883" stop-color="#f0efe6"/>
      <stop offset="1.0" stop-color="#ffffff"/>
    </linearGradient>
    <linearGradient gradientTransform="matrix(0.0, -0.0305, 0.0231, 0.0, -62.45, 17.15)" gradientUnits="userSpaceOnUse" id="gradient1" spreadMethod="pad" x1="-819.2" x2="819.2">
      <stop offset="0.0" stop-color="#d1d1cc"/>
      <stop offset="0.5529411764705883" stop-color="#eeede4"/>
      <stop offset="1.0" stop-color="#f7f6f2"/>
    </linearGradient>
    <linearGradient gradientTransform="matrix(0.0, -0.0276, 0.0108, 0.0, -6.35, -11.15)" gradientUnits="userSpaceOnUse" id="gradient2" spreadMethod="pad" x1="-819.2" x2="819.2">
      <stop offset="0.0" stop-color="#948d71"/>
      <stop offset="0.5529411764705883" stop-color="#bdb4a6"/>
      <stop offset="1.0" stop-color="#e6e4de"/>
    </linearGradient>
    <linearGradient gradientTransform="matrix(0.0, -0.0382, 0.0108, 0.0, -5.45, 2.85)" gradientUnits="userSpaceOnUse" id="gradient3" spreadMethod="pad" x1="-819.2" x2="819.2">
      <stop offset="0.0" stop-color="#e3e3de"/>
      <stop offset="0.5529411764705883" stop-color="#f0efe6"/>
      <stop offset="1.0" stop-color="#ffffff"/>
    </linearGradient>
    <linearGradient gradientTransform="matrix(0.0, -0.0061, 0.0071, 0.0, -11.8, -14.25)" gradientUnits="userSpaceOnUse" id="gradient4" spreadMethod="pad" x1="-819.2" x2="819.2">
      <stop offset="0.0" stop-color="#948d71"/>
      <stop offset="0.5529411764705883" stop-color="#bdb4a6"/>
      <stop offset="1.0" stop-color="#e6e4de"/>
    </linearGradient>
    <linearGradient gradientTransform="matrix(0.0, -0.0182, 0.0092, 0.0, -14.7, 19.95)" gradientUnits="userSpaceOnUse" id="gradient5" spreadMethod="pad" x1="-819.2" x2="819.2">
      <stop offset="0.0" stop-color="#948d71"/>
      <stop offset="0.5529411764705883" stop-color="#bdb4a6"/>
      <stop offset="1.0" stop-color="#e6e4de"/>
    </linearGradient>
    <linearGradient gradientTransform="matrix(0.0, -0.0034, 0.0017, 0.0, -8.5, 17.35)" gradientUnits="userSpaceOnUse" id="gradient6" spreadMethod="pad" x1="-819.2" x2="819.2">
      <stop offset="0.0" stop-color="#e3e3de"/>
      <stop offset="0.5529411764705883" stop-color="#f0efe6"/>
      <stop offset="1.0" stop-color="#ffffff"/>
    </linearGradient>
    <linearGradient gradientTransform="matrix(0.0, -0.0055, 0.0017, 0.0, -16.2, 17.45)" gradientUnits="userSpaceOnUse" id="gradient7" spreadMethod="pad" x1="-819.2" x2="819.2">
      <stop offset="0.0" stop-color="#e3e3de"/>
      <stop offset="0.5529411764705883" stop-color="#f0efe6"/>
      <stop offset="1.0" stop-color="#ffffff"/>
    </linearGradient>
    <linearGradient gradientTransform="matrix(0.0, -0.0019, 0.0011, 0.0, -7.25, 20.6)" gradientUnits="userSpaceOnUse" id="gradient8" spreadMethod="pad" x1="-819.2" x2="819.2">
      <stop offset="0.0" stop-color="#e3e3de"/>
      <stop offset="0.5529411764705883" stop-color="#f0efe6"/>
      <stop offset="1.0" stop-color="#ffffff"/>
    </linearGradient>
    <linearGradient gradientTransform="matrix(0.0, -0.0019, 0.0011, 0.0, -11.35, 20.6)" gradientUnits="userSpaceOnUse" id="gradient9" spreadMethod="pad" x1="-819.2" x2="819.2">
      <stop offset="0.0" stop-color="#e3e3de"/>
      <stop offset="0.5529411764705883" stop-color="#f0efe6"/>
      <stop offset="1.0" stop-color="#ffffff"/>
    </linearGradient>
    <linearGradient gradientTransform="matrix(0.0, -0.0075, 0.0029, 0.0, -14.9, 24.45)" gradientUnits="userSpaceOnUse" id="gradient10" spreadMethod="pad" x1="-819.2" x2="819.2">
      <stop offset="0.0" stop-color="#e3e3de"/>
      <stop offset="0.5529411764705883" stop-color="#efeee5"/>
      <stop offset="1.0" stop-color="#ffffff"/>
    </linearGradient>
    <linearGradient gradientTransform="matrix(0.0, -0.0048, 0.0025, 0.0, -3.2, 28.3)" gradientUnits="userSpaceOnUse" id="gradient11" spreadMethod="pad" x1="-819.2" x2="819.2">
      <stop offset="0.0" stop-color="#e3e3de"/>
      <stop offset="0.5529411764705883" stop-color="#efeee5"/>
      <stop offset="1.0" stop-color="#ffffff"/>
    </linearGradient>
    <linearGradient gradientTransform="matrix(0.0, -0.0118, 0.0031, 0.0, -4.6, 24.5)" gradientUnits="userSpaceOnUse" id="gradient12" spreadMethod="pad" x1="-819.2" x2="819.2">
      <stop offset="0.0" stop-color="#948d71"/>
      <stop offset="0.5529411764705883" stop-color="#bdb4a6"/>
      <stop offset="1.0" stop-color="#e6e4de"/>
    </linearGradient>
    <linearGradient gradientTransform="matrix(0.0, -0.0676, 0.0345, 0.0, -33.55, 17.8)" gradientUnits="userSpaceOnUse" id="gradient13" spreadMethod="pad" x1="-819.2" x2="819.2">
      <stop offset="0.0" stop-color="#e3e3de"/>
      <stop offset="0.5529411764705883" stop-color="#f0efe6"/>
      <stop offset="1.0" stop-color="#ffffff"/>
    </linearGradient>
    <linearGradient gradientTransform="matrix(0.0, -0.0223, 0.0078, 0.0, -22.45, -0.7)" gradientUnits="userSpaceOnUse" id="gradient14" spreadMethod="pad" x1="-819.2" x2="819.2">
      <stop offset="0.0" stop-color="#e3e3de"/>
      <stop offset="0.5529411764705883" stop-color="#f0efe6"/>
      <stop offset="1.0" stop-color="#ffffff"/>
    </linearGradient>
    <linearGradient gradientTransform="matrix(0.0, -0.0374, 0.0345, 0.0, -31.75, 5.9)" gradientUnits="userSpaceOnUse" id="gradient15" spreadMethod="pad" x1="-819.2" x2="819.2">
      <stop offset="0.0" stop-color="#948d71"/>
      <stop offset="0.5529411764705883" stop-color="#bdb4a6"/>
      <stop offset="1.0" stop-color="#e6e4de"/>
    </linearGradient>
    <linearGradient gradientTransform="matrix(0.0, -0.0019, 0.0011, 0.0, -23.6, 20.6)" gradientUnits="userSpaceOnUse" id="gradient16" spreadMethod="pad" x1="-819.2" x2="819.2">
      <stop offset="0.0" stop-color="#e3e3de"/>
      <stop offset="0.5529411764705883" stop-color="#f0efe6"/>
      <stop offset="1.0" stop-color="#ffffff"/>
    </linearGradient>
    <linearGradient gradientTransform="matrix(0.0, -0.0019, 0.0011, 0.0, -27.7, 20.6)" gradientUnits="userSpaceOnUse" id="gradient17" spreadMethod="pad" x1="-819.2" x2="819.2">
      <stop offset="0.0" stop-color="#e3e3de"/>
      <stop offset="0.5529411764705883" stop-color="#f0efe6"/>
      <stop offset="1.0" stop-color="#ffffff"/>
    </linearGradient>
    <linearGradient gradientTransform="matrix(0.0, -0.0019, 0.0011, 0.0, -15.45, 20.6)" gradientUnits="userSpaceOnUse" id="gradient18" spreadMethod="pad" x1="-819.2" x2="819.2">
      <stop offset="0.0" stop-color="#e3e3de"/>
      <stop offset="0.5529411764705883" stop-color="#f0efe6"/>
      <stop offset="1.0" stop-color="#ffffff"/>
    </linearGradient>
    <linearGradient gradientTransform="matrix(0.0, -0.0019, 0.0011, 0.0, -19.55, 20.6)" gradientUnits="userSpaceOnUse" id="gradient19" spreadMethod="pad" x1="-819.2" x2="819.2">
      <stop offset="0.0" stop-color="#e3e3de"/>
      <stop offset="0.5529411764705883" stop-color="#f0efe6"/>
      <stop offset="1.0" stop-color="#ffffff"/>
    </linearGradient>
    <linearGradient gradientTransform="matrix(0.0, -9.0E-4, 9.0E-4, 0.0, -8.85, -26.5)" gradientUnits="userSpaceOnUse" id="gradient20" spreadMethod="pad" x1="-819.2" x2="819.2">
      <stop offset="0.0" stop-color="#a09880"/>
      <stop offset="1.0" stop-color="#e7e4df"/>
    </linearGradient>
    <linearGradient gradientTransform="matrix(0.0, -9.0E-4, 9.0E-4, 0.0, -10.9, -26.5)" gradientUnits="userSpaceOnUse" id="gradient21" spreadMethod="pad" x1="-819.2" x2="819.2">
      <stop offset="0.0" stop-color="#a09880"/>
      <stop offset="1.0" stop-color="#e7e4df"/>
    </linearGradient>
    <linearGradient gradientTransform="matrix(0.0, -9.0E-4, 9.0E-4, 0.0, -6.8, -26.5)" gradientUnits="userSpaceOnUse" id="gradient22" spreadMethod="pad" x1="-819.2" x2="819.2">
      <stop offset="0.0" stop-color="#a09880"/>
      <stop offset="1.0" stop-color="#e7e4df"/>
    </linearGradient>
    <linearGradient gradientTransform="matrix(0.0, -9.0E-4, 9.0E-4, 0.0, -4.75, -26.5)" gradientUnits="userSpaceOnUse" id="gradient23" spreadMethod="pad" x1="-819.2" x2="819.2">
      <stop offset="0.0" stop-color="#a09880"/>
      <stop offset="1.0" stop-color="#e7e4df"/>
    </linearGradient>
    <linearGradient gradientTransform="matrix(0.0, -9.0E-4, 9.0E-4, 0.0, -2.7, -26.5)" gradientUnits="userSpaceOnUse" id="gradient24" spreadMethod="pad" x1="-819.2" x2="819.2">
      <stop offset="0.0" stop-color="#a09880"/>
      <stop offset="1.0" stop-color="#e7e4df"/>
    </linearGradient>
    <linearGradient gradientTransform="matrix(0.0, -9.0E-4, 9.0E-4, 0.0, -0.65, -26.5)" gradientUnits="userSpaceOnUse" id="gradient25" spreadMethod="pad" x1="-819.2" x2="819.2">
      <stop offset="0.0" stop-color="#a09880"/>
      <stop offset="1.0" stop-color="#e7e4df"/>
    </linearGradient>
    <linearGradient gradientTransform="matrix(0.0, -9.0E-4, 9.0E-4, 0.0, 1.4, -26.5)" gradientUnits="userSpaceOnUse" id="gradient26" spreadMethod="pad" x1="-819.2" x2="819.2">
      <stop offset="0.0" stop-color="#a09880"/>
      <stop offset="1.0" stop-color="#e7e4df"/>
    </linearGradient>
    <linearGradient gradientTransform="matrix(0.0, -9.0E-4, 9.0E-4, 0.0, 3.4, -26.5)" gradientUnits="userSpaceOnUse" id="gradient27" spreadMethod="pad" x1="-819.2" x2="819.2">
      <stop offset="0.0" stop-color="#a09880"/>
      <stop offset="1.0" stop-color="#e7e4df"/>
    </linearGradient>
    <linearGradient gradientTransform="matrix(0.0, -9.0E-4, 9.0E-4, 0.0, 7.5, -26.5)" gradientUnits="userSpaceOnUse" id="gradient28" spreadMethod="pad" x1="-819.2" x2="819.2">
      <stop offset="0.0" stop-color="#a09880"/>
      <stop offset="1.0" stop-color="#e7e4df"/>
    </linearGradient>
    <linearGradient gradientTransform="matrix(0.0, -9.0E-4, 9.0E-4, 0.0, 5.45, -26.5)" gradientUnits="userSpaceOnUse" id="gradient29" spreadMethod="pad" x1="-819.2" x2="819.2">
      <stop offset="0.0" stop-color="#a09880"/>
      <stop offset="1.0" stop-color="#e7e4df"/>
    </linearGradient>
    <linearGradient gradientTransform="matrix(0.0, -9.0E-4, 9.0E-4, 0.0, 11.6, -26.5)" gradientUnits="userSpaceOnUse" id="gradient30" spreadMethod="pad" x1="-819.2" x2="819.2">
      <stop offset="0.0" stop-color="#a09880"/>
      <stop offset="1.0" stop-color="#e7e4df"/>
    </linearGradient>
    <linearGradient gradientTransform="matrix(0.0, -9.0E-4, 9.0E-4, 0.0, 9.55, -26.5)" gradientUnits="userSpaceOnUse" id="gradient31" spreadMethod="pad" x1="-819.2" x2="819.2">
      <stop offset="0.0" stop-color="#a09880"/>
      <stop offset="1.0" stop-color="#e7e4df"/>
    </linearGradient>
    <linearGradient gradientTransform="matrix(-9.0E-4, 0.0, 0.0, -9.0E-4, 17.65, 28.8)" gradientUnits="userSpaceOnUse" id="gradient32" spreadMethod="pad" x1="-819.2" x2="819.2">
      <stop offset="0.0" stop-color="#a09880"/>
      <stop offset="1.0" stop-color="#e7e4df"/>
    </linearGradient>
    <linearGradient gradientTransform="matrix(-9.0E-4, 0.0, 0.0, -9.0E-4, 17.65, 30.85)" gradientUnits="userSpaceOnUse" id="gradient33" spreadMethod="pad" x1="-819.2" x2="819.2">
      <stop offset="0.0" stop-color="#a09880"/>
      <stop offset="1.0" stop-color="#e7e4df"/>
    </linearGradient>
    <linearGradient gradientTransform="matrix(-9.0E-4, 0.0, 0.0, -9.0E-4, 17.65, 26.75)" gradientUnits="userSpaceOnUse" id="gradient34" spreadMethod="pad" x1="-819.2" x2="819.2">
      <stop offset="0.0" stop-color="#a09880"/>
      <stop offset="1.0" stop-color="#e7e4df"/>
    </linearGradient>
    <linearGradient gradientTransform="matrix(-9.0E-4, 0.0, 0.0, -9.0E-4, 17.65, 24.7)" gradientUnits="userSpaceOnUse" id="gradient35" spreadMethod="pad" x1="-819.2" x2="819.2">
      <stop offset="0.0" stop-color="#a09880"/>
      <stop offset="1.0" stop-color="#e7e4df"/>
    </linearGradient>
    <linearGradient gradientTransform="matrix(-9.0E-4, 0.0, 0.0, -9.0E-4, 17.65, 22.65)" gradientUnits="userSpaceOnUse" id="gradient36" spreadMethod="pad" x1="-819.2" x2="819.2">
      <stop offset="0.0" stop-color="#a09880"/>
      <stop offset="1.0" stop-color="#e7e4df"/>
    </linearGradient>
    <linearGradient gradientTransform="matrix(-9.0E-4, 0.0, 0.0, -9.0E-4, 17.65, 20.6)" gradientUnits="userSpaceOnUse" id="gradient37" spreadMethod="pad" x1="-819.2" x2="819.2">
      <stop offset="0.0" stop-color="#a09880"/>
      <stop offset="1.0" stop-color="#e7e4df"/>
    </linearGradient>
    <linearGradient gradientTransform="matrix(-9.0E-4, 0.0, 0.0, -9.0E-4, 17.65, 18.55)" gradientUnits="userSpaceOnUse" id="gradient38" spreadMethod="pad" x1="-819.2" x2="819.2">
      <stop offset="0.0" stop-color="#a09880"/>
      <stop offset="1.0" stop-color="#e7e4df"/>
    </linearGradient>
    <linearGradient gradientTransform="matrix(-9.0E-4, 0.0, 0.0, -9.0E-4, 17.65, 16.55)" gradientUnits="userSpaceOnUse" id="gradient39" spreadMethod="pad" x1="-819.2" x2="819.2">
      <stop offset="0.0" stop-color="#a09880"/>
      <stop offset="1.0" stop-color="#e7e4df"/>
    </linearGradient>
    <linearGradient gradientTransform="matrix(-9.0E-4, 0.0, 0.0, -9.0E-4, 17.65, 12.45)" gradientUnits="userSpaceOnUse" id="gradient40" spreadMethod="pad" x1="-819.2" x2="819.2">
      <stop offset="0.0" stop-color="#a09880"/>
      <stop offset="1.0" stop-color="#e7e4df"/>
    </linearGradient>
    <linearGradient gradientTransform="matrix(-9.0E-4, 0.0, 0.0, -9.0E-4, 17.65, 14.5)" gradientUnits="userSpaceOnUse" id="gradient41" spreadMethod="pad" x1="-819.2" x2="819.2">
      <stop offset="0.0" stop-color="#a09880"/>
      <stop offset="1.0" stop-color="#e7e4df"/>
    </linearGradient>
    <linearGradient gradientTransform="matrix(-9.0E-4, 0.0, 0.0, -9.0E-4, 17.65, 8.35)" gradientUnits="userSpaceOnUse" id="gradient42" spreadMethod="pad" x1="-819.2" x2="819.2">
      <stop offset="0.0" stop-color="#a09880"/>
      <stop offset="1.0" stop-color="#e7e4df"/>
    </linearGradient>
    <linearGradient gradientTransform="matrix(-9.0E-4, 0.0, 0.0, -9.0E-4, 17.65, 10.4)" gradientUnits="userSpaceOnUse" id="gradient43" spreadMethod="pad" x1="-819.2" x2="819.2">
      <stop offset="0.0" stop-color="#a09880"/>
      <stop offset="1.0" stop-color="#e7e4df"/>
    </linearGradient>
    <linearGradient gradientTransform="matrix(0.0, -0.0016, 0.0015, 0.0, -10.95, 5.85)" gradientUnits="userSpaceOnUse" id="gradient44" spreadMethod="pad" x1="-819.2" x2="819.2">
      <stop offset="0.0" stop-color="#739470"/>
      <stop offset="0.5529411764705883" stop-color="#a8bda6"/>
      <stop offset="1.0" stop-color="#e6e4de"/>
    </linearGradient>
    <linearGradient gradientTransform="matrix(0.0, -0.0016, 0.0015, 0.0, -10.95, 2.95)" gradientUnits="userSpaceOnUse" id="gradient45" spreadMethod="pad" x1="-819.2" x2="819.2">
      <stop offset="0.0" stop-color="#739470"/>
      <stop offset="0.5529411764705883" stop-color="#a8bda6"/>
      <stop offset="1.0" stop-color="#e6e4de"/>
    </linearGradient>
    <linearGradient gradientTransform="matrix(0.0, -0.0016, 0.0015, 0.0, -10.95, 0.1)" gradientUnits="userSpaceOnUse" id="gradient46" spreadMethod="pad" x1="-819.2" x2="819.2">
      <stop offset="0.0" stop-color="#739470"/>
      <stop offset="0.5529411764705883" stop-color="#a8bda6"/>
      <stop offset="1.0" stop-color="#e6e4de"/>
    </linearGradient>
    <linearGradient gradientTransform="matrix(0.0, -0.0016, 0.0015, 0.0, -10.95, 11.55)" gradientUnits="userSpaceOnUse" id="gradient47" spreadMethod="pad" x1="-819.2" x2="819.2">
      <stop offset="0.0" stop-color="#739470"/>
      <stop offset="0.5529411764705883" stop-color="#a8bda6"/>
      <stop offset="1.0" stop-color="#e6e4de"/>
    </linearGradient>
    <linearGradient gradientTransform="matrix(0.0, -0.0016, 0.0015, 0.0, -10.95, 8.7)" gradientUnits="userSpaceOnUse" id="gradient48" spreadMethod="pad" x1="-819.2" x2="819.2">
      <stop offset="0.0" stop-color="#739470"/>
      <stop offset="0.5529411764705883" stop-color="#a8bda6"/>
      <stop offset="1.0" stop-color="#e6e4de"/>
    </linearGradient>
  </defs>
</svg>
