<?xml version="1.0" encoding="UTF-8" standalone="no"?>
<svg xmlns:ffdec="https://www.free-decompiler.com/flash" xmlns:xlink="http://www.w3.org/1999/xlink" ffdec:objectType="shape" height="96.05px" width="168.75px" xmlns="http://www.w3.org/2000/svg">
  <g transform="matrix(1.0, 0.0, 0.0, 1.0, 84.0, 61.25)">
    <path d="M-44.0 25.8 L-44.0 32.5 -84.0 32.5 -84.0 -55.7 78.95 -55.7 78.95 34.8 45.95 34.8 45.95 25.8 -44.0 25.8 M52.65 3.95 Q51.5 2.8 49.85 2.8 48.2 2.8 47.0 3.95 45.85 5.15 45.85 6.8 L45.85 16.7 Q45.85 18.35 47.0 19.5 48.2 20.7 49.85 20.7 51.5 20.7 52.65 19.5 53.85 18.35 53.85 16.7 L53.85 6.8 Q53.85 5.15 52.65 3.95" fill="#c9c6c6" fill-rule="evenodd" stroke="none"/>
    <path d="M52.65 3.95 Q53.85 5.15 53.85 6.8 L53.85 16.7 Q53.85 18.35 52.65 19.5 51.5 20.7 49.85 20.7 48.2 20.7 47.0 19.5 45.85 18.35 45.85 16.7 L45.85 6.8 Q45.85 5.15 47.0 3.95 48.2 2.8 49.85 2.8 51.5 2.8 52.65 3.95" fill="#55595c" fill-rule="evenodd" stroke="none"/>
    <path d="M52.65 3.95 Q51.5 2.8 49.85 2.8 48.2 2.8 47.0 3.95 45.85 5.15 45.85 6.8 L45.85 16.7 Q45.85 18.35 47.0 19.5 48.2 20.7 49.85 20.7 51.5 20.7 52.65 19.5 53.85 18.35 53.85 16.7 L53.85 6.8 Q53.85 5.15 52.65 3.95 Z" fill="none" stroke="#00ff00" stroke-linecap="round" stroke-linejoin="round" stroke-width="0.4"/>
    <path d="M-45.85 -53.05 L63.35 -53.05 63.35 23.15 -45.85 23.15 -45.85 -53.05" fill="#44474a" fill-rule="evenodd" stroke="none"/>
    <path d="M76.05 -14.9 Q78.6 -14.2 79.9 -11.95 81.25 -9.65 80.55 -7.1 L71.45 27.0 Q70.75 29.5 68.45 30.75 66.2 32.15 63.65 31.45 L63.6 31.45 Q61.1 30.8 59.8 28.45 58.45 26.2 59.15 23.7 L68.25 -10.4 Q68.95 -12.95 71.25 -14.25 73.5 -15.55 76.0 -14.9 L76.05 -14.9" fill="#4f3939" fill-rule="evenodd" stroke="none"/>
    <path d="M67.85 -53.7 L67.85 19.0 -43.1 19.0 -43.1 -53.7 67.85 -53.7" fill="url(#gradient0)" fill-rule="evenodd" stroke="none"/>
    <path d="M39.65 18.15 L34.9 18.15 34.9 17.45 39.65 17.45 39.65 18.15" fill="#999999" fill-rule="evenodd" stroke="none"/>
    <path d="M33.65 18.15 L28.9 18.15 28.9 17.45 33.65 17.45 33.65 18.15" fill="#999999" fill-rule="evenodd" stroke="none"/>
    <path d="M27.65 18.15 L22.9 18.15 22.9 17.45 27.65 17.45 27.65 18.15" fill="#999999" fill-rule="evenodd" stroke="none"/>
    <path d="M21.65 18.15 L16.9 18.15 16.9 17.45 21.65 17.45 21.65 18.15" fill="#999999" fill-rule="evenodd" stroke="none"/>
    <path d="M15.65 18.15 L10.9 18.15 10.9 17.45 15.65 17.45 15.65 18.15" fill="#999999" fill-rule="evenodd" stroke="none"/>
    <path d="M9.65 18.15 L4.9 18.15 4.9 17.45 9.65 17.45 9.65 18.15" fill="#999999" fill-rule="evenodd" stroke="none"/>
    <path d="M3.65 18.15 L-1.1 18.15 -1.1 17.45 3.65 17.45 3.65 18.15" fill="#999999" fill-rule="evenodd" stroke="none"/>
    <path d="M-2.35 18.15 L-7.1 18.15 -7.1 17.45 -2.35 17.45 -2.35 18.15" fill="#999999" fill-rule="evenodd" stroke="none"/>
    <path d="M-8.35 18.15 L-13.1 18.15 -13.1 17.45 -8.35 17.45 -8.35 18.15" fill="#999999" fill-rule="evenodd" stroke="none"/>
    <path d="M-14.35 18.15 L-19.1 18.15 -19.1 17.45 -14.35 17.45 -14.35 18.15" fill="#999999" fill-rule="evenodd" stroke="none"/>
    <path d="M-20.35 18.15 L-25.1 18.15 -25.1 17.45 -20.35 17.45 -20.35 18.15" fill="#999999" fill-rule="evenodd" stroke="none"/>
    <path d="M-26.35 18.15 L-31.1 18.15 -31.1 17.45 -26.35 17.45 -26.35 18.15" fill="#999999" fill-rule="evenodd" stroke="none"/>
    <path d="M-32.35 18.15 L-37.1 18.15 -37.1 17.45 -32.35 17.45 -32.35 18.15" fill="#999999" fill-rule="evenodd" stroke="none"/>
    <path d="M-38.35 18.15 L-43.1 18.15 -43.1 17.45 -38.35 17.45 -38.35 18.15" fill="#999999" fill-rule="evenodd" stroke="none"/>
    <path d="M39.65 -51.85 L34.9 -51.85 34.9 -52.55 39.65 -52.55 39.65 -51.85" fill="#999999" fill-rule="evenodd" stroke="none"/>
    <path d="M33.65 -51.85 L28.9 -51.85 28.9 -52.55 33.65 -52.55 33.65 -51.85" fill="#999999" fill-rule="evenodd" stroke="none"/>
    <path d="M27.65 -51.85 L22.9 -51.85 22.9 -52.55 27.65 -52.55 27.65 -51.85" fill="#999999" fill-rule="evenodd" stroke="none"/>
    <path d="M21.65 -51.85 L16.9 -51.85 16.9 -52.55 21.65 -52.55 21.65 -51.85" fill="#999999" fill-rule="evenodd" stroke="none"/>
    <path d="M15.65 -51.85 L10.9 -51.85 10.9 -52.55 15.65 -52.55 15.65 -51.85" fill="#999999" fill-rule="evenodd" stroke="none"/>
    <path d="M9.65 -51.85 L4.9 -51.85 4.9 -52.55 9.65 -52.55 9.65 -51.85" fill="#999999" fill-rule="evenodd" stroke="none"/>
    <path d="M3.65 -51.85 L-1.1 -51.85 -1.1 -52.55 3.65 -52.55 3.65 -51.85" fill="#999999" fill-rule="evenodd" stroke="none"/>
    <path d="M-2.35 -51.85 L-7.1 -51.85 -7.1 -52.55 -2.35 -52.55 -2.35 -51.85" fill="#999999" fill-rule="evenodd" stroke="none"/>
    <path d="M-8.35 -51.85 L-13.1 -51.85 -13.1 -52.55 -8.35 -52.55 -8.35 -51.85" fill="#999999" fill-rule="evenodd" stroke="none"/>
    <path d="M-14.35 -51.85 L-19.1 -51.85 -19.1 -52.55 -14.35 -52.55 -14.35 -51.85" fill="#999999" fill-rule="evenodd" stroke="none"/>
    <path d="M-20.35 -51.85 L-25.1 -51.85 -25.1 -52.55 -20.35 -52.55 -20.35 -51.85" fill="#999999" fill-rule="evenodd" stroke="none"/>
    <path d="M-26.35 -51.85 L-31.1 -51.85 -31.1 -52.55 -26.35 -52.55 -26.35 -51.85" fill="#999999" fill-rule="evenodd" stroke="none"/>
    <path d="M-32.35 -51.85 L-37.1 -51.85 -37.1 -52.55 -32.35 -52.55 -32.35 -51.85" fill="#999999" fill-rule="evenodd" stroke="none"/>
    <path d="M-38.35 -51.85 L-43.1 -51.85 -43.1 -52.55 -38.35 -52.55 -38.35 -51.85" fill="#999999" fill-rule="evenodd" stroke="none"/>
    <path d="M66.4 -51.85 L61.65 -51.85 61.65 -52.55 66.4 -52.55 66.4 -51.85" fill="#999999" fill-rule="evenodd" stroke="none"/>
    <path d="M60.4 -51.85 L55.65 -51.85 55.65 -52.55 60.4 -52.55 60.4 -51.85" fill="#999999" fill-rule="evenodd" stroke="none"/>
    <path d="M51.9 -51.85 L47.15 -51.85 47.15 -52.55 51.9 -52.55 51.9 -51.85" fill="#999999" fill-rule="evenodd" stroke="none"/>
    <path d="M45.9 -51.85 L41.15 -51.85 41.15 -52.55 45.9 -52.55 45.9 -51.85" fill="#999999" fill-rule="evenodd" stroke="none"/>
    <path d="M66.4 18.15 L61.65 18.15 61.65 17.45 66.4 17.45 66.4 18.15" fill="#999999" fill-rule="evenodd" stroke="none"/>
    <path d="M60.4 18.15 L55.65 18.15 55.65 17.45 60.4 17.45 60.4 18.15" fill="#999999" fill-rule="evenodd" stroke="none"/>
    <path d="M51.9 18.15 L47.15 18.15 47.15 17.45 51.9 17.45 51.9 18.15" fill="#999999" fill-rule="evenodd" stroke="none"/>
    <path d="M45.9 18.15 L41.15 18.15 41.15 17.45 45.9 17.45 45.9 18.15" fill="#999999" fill-rule="evenodd" stroke="none"/>
    <path d="M62.45 3.95 L-12.8 3.95 -12.8 3.5 -17.85 12.6 -30.05 10.8 -24.75 -3.15 -23.05 -3.1 -12.8 -4.05 -12.8 -52.3 62.45 -52.3 62.45 3.95" fill="#55595c" fill-rule="evenodd" stroke="none"/>
    <path d="M37.45 -48.8 L37.45 -48.75 Q37.45 -47.25 38.55 -46.2 39.7 -45.15 41.25 -45.15 L72.1 -45.15 Q73.7 -45.15 74.8 -46.2 75.9 -47.25 75.9 -48.75 L75.9 -48.8 Q75.9 -50.3 74.8 -51.35 73.7 -52.4 72.1 -52.4 L41.25 -52.4 Q39.7 -52.4 38.55 -51.35 37.45 -50.3 37.45 -48.8" fill="#55595c" fill-rule="evenodd" stroke="none"/>
    <path d="M68.0 -48.15 L68.1 -48.15 68.1 -48.2 68.0 -48.15" fill="#c0d0e0" fill-rule="evenodd" stroke="none"/>
    <path d="M43.9 -59.65 L43.9 -57.9 43.9 -53.3 44.3 -53.3 44.3 -59.8 43.9 -59.8 43.9 -59.65" fill="#ffffff" fill-rule="evenodd" stroke="none"/>
    <path d="M35.75 -50.4 L36.15 -50.0 Q37.95 -48.15 40.55 -48.15 L43.9 -48.15 43.9 -50.4 35.75 -50.4 M44.7 -48.15 L55.0 -48.15 55.0 -50.4 44.7 -50.4 44.7 -48.15 M55.9 -48.15 L56.35 -48.15 56.35 -48.1 56.45 -47.9 56.65 -47.85 56.9 -47.9 57.25 -48.15 66.55 -48.15 66.65 -47.9 66.65 -50.4 55.9 -50.4 55.9 -48.15 M67.6 -47.95 L68.0 -48.15 68.1 -48.2 68.4 -48.45 69.55 -49.85 69.75 -50.25 69.8 -50.4 67.6 -50.4 67.6 -47.95 M71.65 -40.65 Q73.15 -39.65 75.05 -39.65 L77.0 -39.95 77.0 -44.0 74.65 -43.75 71.7 -44.15 71.65 -40.65 M77.0 -45.2 L77.0 -52.6 Q75.05 -51.25 71.7 -50.4 L70.0 -50.4 71.75 -46.15 71.7 -45.35 72.1 -45.25 74.65 -44.95 77.0 -45.2" fill="#dddfe0" fill-rule="evenodd" stroke="none"/>
    <path d="M68.8 -45.8 L68.8 -45.55 Q68.9 -43.2 70.6 -41.5 L71.65 -40.65 71.7 -44.15 70.5 -44.6 70.1 -44.8 68.8 -45.8 M77.0 -39.95 Q78.35 -40.4 79.45 -41.5 81.2 -43.15 81.3 -45.55 L81.3 -45.9 81.3 -54.4 81.3 -54.65 80.8 -56.9 Q80.35 -57.95 79.5 -58.85 80.35 -55.0 77.0 -52.6 L77.0 -45.2 Q78.05 -45.45 78.95 -45.95 80.55 -46.85 80.6 -48.15 L80.7 -48.35 80.9 -48.45 81.1 -48.35 81.2 -48.15 81.15 -47.7 81.2 -47.55 Q81.15 -45.95 79.25 -44.85 78.25 -44.25 77.0 -44.0 L77.0 -39.95 M68.4 -48.45 L68.6 -48.35 68.7 -48.15 68.8 -48.15 68.8 -47.55 69.05 -47.05 70.4 -45.95 70.35 -45.95 70.75 -45.75 71.7 -45.35 71.75 -46.15 70.0 -50.4 69.8 -50.4 69.75 -50.25 69.55 -49.85 68.4 -48.45" fill="#babcbd" fill-rule="evenodd" stroke="none"/>
    <path d="M43.9 -48.15 L44.0 -47.95 44.2 -47.85 44.3 -47.85 44.3 -53.3 43.9 -53.3 43.9 -50.4 43.9 -48.15 M55.0 -48.15 L55.0 -47.9 55.1 -47.7 55.3 -47.6 55.5 -47.7 55.6 -47.9 55.6 -60.8 55.6 -60.9 55.5 -61.1 55.3 -61.2 55.1 -61.1 55.0 -60.9 55.0 -60.65 55.0 -59.65 55.0 -57.9 55.0 -50.4 55.0 -48.15 M66.65 -47.9 L66.65 -47.85 66.75 -47.65 Q66.85 -47.55 66.95 -47.55 67.05 -47.55 67.15 -47.65 L67.2 -47.7 67.25 -47.85 67.25 -60.7 67.25 -60.9 67.25 -60.95 67.15 -61.15 66.95 -61.25 66.75 -61.15 66.65 -60.95 66.65 -60.85 66.65 -59.65 66.65 -57.9 66.65 -50.4 66.65 -47.9 M44.45 -60.75 L44.4 -60.85 44.2 -60.95 44.0 -60.85 43.9 -60.65 43.9 -59.8 44.3 -59.8 44.3 -60.55 44.35 -60.7 44.45 -60.75" fill="#f2f2f2" fill-rule="evenodd" stroke="none"/>
    <path d="M37.1 -59.65 L43.9 -59.65 43.9 -59.8 43.9 -60.65 40.55 -60.65 Q38.75 -60.65 37.35 -59.8 L37.1 -59.65 M43.9 -57.9 L35.35 -57.9 Q34.3 -56.35 34.3 -54.4 L34.4 -53.3 Q34.65 -51.65 35.75 -50.4 L43.9 -50.4 43.9 -53.3 43.9 -57.9 M68.1 -48.15 L68.15 -47.6 68.55 -46.7 68.8 -46.4 70.1 -45.4 70.5 -45.2 71.65 -44.75 71.7 -44.75 72.1 -44.65 74.65 -44.35 77.0 -44.6 Q78.25 -44.85 79.25 -45.45 80.9 -46.4 81.15 -47.7 L81.2 -48.15 81.1 -48.35 80.9 -48.45 80.7 -48.35 80.6 -48.15 Q80.55 -46.85 78.95 -45.95 78.05 -45.45 77.0 -45.2 L74.65 -44.95 72.1 -45.25 71.7 -45.35 70.75 -45.75 70.35 -45.95 70.4 -45.95 69.05 -47.05 68.8 -47.55 68.7 -48.15 68.6 -48.35 68.4 -48.45 68.1 -48.2 68.1 -48.15 M79.5 -58.85 L78.0 -59.95 75.05 -60.65 68.0 -60.65 67.25 -60.9 67.25 -60.7 67.4 -60.75 67.55 -60.7 67.6 -60.55 67.6 -59.65 74.45 -59.65 70.95 -57.9 67.6 -57.9 67.6 -50.4 69.8 -50.4 70.0 -50.4 71.7 -50.4 Q75.05 -51.25 77.0 -52.6 80.35 -55.0 79.5 -58.85 M66.65 -60.85 L66.55 -60.65 57.25 -60.65 56.9 -60.9 56.65 -60.95 56.45 -60.85 56.35 -60.65 55.9 -60.65 55.9 -59.65 66.65 -59.65 66.65 -60.85 M55.0 -60.65 L44.65 -60.65 44.7 -60.55 44.7 -59.65 55.0 -59.65 55.0 -60.65 M55.9 -57.9 L55.9 -50.4 66.65 -50.4 66.65 -57.9 55.9 -57.9 M44.7 -57.9 L44.7 -50.4 55.0 -50.4 55.0 -57.9 44.7 -57.9" fill="#e6e6e6" fill-rule="evenodd" stroke="none"/>
    <path d="M68.15 -47.6 L68.1 -47.6 68.1 -47.55 Q68.1 -46.8 68.55 -46.1 L68.8 -45.8 70.1 -44.8 70.5 -44.6 71.7 -44.15 74.65 -43.75 77.0 -44.0 Q78.25 -44.25 79.25 -44.85 81.15 -45.95 81.2 -47.55 L81.15 -47.7 Q80.9 -46.4 79.25 -45.45 78.25 -44.85 77.0 -44.6 L74.65 -44.35 72.1 -44.65 71.7 -44.75 71.65 -44.75 70.5 -45.2 70.1 -45.4 68.8 -46.4 68.55 -46.7 68.15 -47.6" fill="#a9acad" fill-rule="evenodd" stroke="none"/>
    <path d="M37.1 -59.65 L36.15 -58.85 35.35 -57.9 43.9 -57.9 43.9 -59.65 37.1 -59.65 M55.9 -59.65 L55.9 -57.9 66.65 -57.9 66.65 -59.65 55.9 -59.65 M55.0 -57.9 L55.0 -59.65 44.7 -59.65 44.7 -57.9 55.0 -57.9 M67.6 -57.9 L70.95 -57.9 74.45 -59.65 67.6 -59.65 67.6 -57.9" fill="#f5f2f2" fill-rule="evenodd" stroke="none"/>
    <path d="M44.3 -47.85 L44.3 -47.55 44.35 -47.4 44.5 -47.35 44.65 -47.4 44.7 -47.55 44.7 -48.15 44.7 -50.4 44.7 -57.9 44.7 -59.65 44.7 -60.55 44.65 -60.65 44.65 -60.7 44.5 -60.75 44.45 -60.75 44.35 -60.7 44.3 -60.55 44.3 -59.8 44.3 -53.3 44.3 -47.85 M55.5 -47.7 L55.5 -47.55 55.55 -47.4 55.7 -47.35 55.85 -47.4 55.9 -47.55 55.9 -48.15 55.9 -50.4 55.9 -57.9 55.9 -59.65 55.9 -60.65 55.85 -60.8 55.7 -60.85 55.6 -60.8 55.6 -47.9 55.5 -47.7 M67.2 -47.7 L67.2 -47.55 67.25 -47.4 67.4 -47.35 67.55 -47.4 67.6 -47.55 67.6 -47.95 67.6 -50.4 67.6 -57.9 67.6 -59.65 67.6 -60.55 67.55 -60.7 67.4 -60.75 67.25 -60.7 67.25 -47.85 67.2 -47.7" fill="#9da0a1" fill-rule="evenodd" stroke="none"/>
    <path d="M37.45 -31.3 L37.45 -31.25 Q37.45 -29.75 38.55 -28.7 39.7 -27.65 41.25 -27.65 L72.1 -27.65 Q73.7 -27.65 74.8 -28.7 75.9 -29.75 75.9 -31.25 L75.9 -31.3 Q75.9 -32.8 74.8 -33.85 73.7 -34.9 72.1 -34.9 L41.25 -34.9 Q39.7 -34.9 38.55 -33.85 37.45 -32.8 37.45 -31.3" fill="#55595c" fill-rule="evenodd" stroke="none"/>
    <path d="M68.0 -30.65 L68.1 -30.65 68.1 -30.7 68.0 -30.65" fill="#c0d0e0" fill-rule="evenodd" stroke="none"/>
    <path d="M43.9 -42.15 L43.9 -40.4 43.9 -35.8 44.3 -35.8 44.3 -42.3 43.9 -42.3 43.9 -42.15" fill="#ffffff" fill-rule="evenodd" stroke="none"/>
    <path d="M35.75 -32.9 L36.15 -32.5 Q37.95 -30.65 40.55 -30.65 L43.9 -30.65 43.9 -32.9 35.75 -32.9 M44.7 -30.65 L55.0 -30.65 55.0 -32.9 44.7 -32.9 44.7 -30.65 M55.9 -30.65 L56.35 -30.65 56.35 -30.6 56.45 -30.4 56.65 -30.35 56.9 -30.4 57.25 -30.65 66.55 -30.65 66.65 -30.4 66.65 -32.9 55.9 -32.9 55.9 -30.65 M67.6 -30.45 L68.0 -30.65 68.1 -30.7 68.4 -30.95 69.55 -32.35 69.75 -32.75 69.8 -32.9 67.6 -32.9 67.6 -30.45 M71.65 -23.15 Q73.15 -22.15 75.05 -22.15 L77.0 -22.45 77.0 -26.5 74.65 -26.25 71.7 -26.65 71.65 -23.15 M77.0 -27.7 L77.0 -35.1 Q75.05 -33.75 71.7 -32.9 L70.0 -32.9 71.75 -28.65 71.7 -27.85 72.1 -27.75 74.65 -27.45 77.0 -27.7" fill="#dddfe0" fill-rule="evenodd" stroke="none"/>
    <path d="M68.8 -28.3 L68.8 -28.05 Q68.9 -25.7 70.6 -24.0 L71.65 -23.15 71.7 -26.65 70.5 -27.1 70.1 -27.3 68.8 -28.3 M77.0 -22.45 Q78.35 -22.9 79.45 -24.0 81.2 -25.65 81.3 -28.05 L81.3 -28.4 81.3 -36.9 81.3 -37.15 80.8 -39.4 Q80.35 -40.45 79.5 -41.35 80.35 -37.5 77.0 -35.1 L77.0 -27.7 Q78.05 -27.95 78.95 -28.45 80.55 -29.35 80.6 -30.65 L80.7 -30.85 80.9 -30.95 81.1 -30.85 81.2 -30.65 81.15 -30.2 81.2 -30.05 Q81.15 -28.45 79.25 -27.35 78.25 -26.75 77.0 -26.5 L77.0 -22.45 M68.4 -30.95 L68.6 -30.85 68.7 -30.65 68.8 -30.65 68.8 -30.05 69.05 -29.55 70.4 -28.45 70.35 -28.45 70.75 -28.25 71.7 -27.85 71.75 -28.65 70.0 -32.9 69.8 -32.9 69.75 -32.75 69.55 -32.35 68.4 -30.95" fill="#babcbd" fill-rule="evenodd" stroke="none"/>
    <path d="M43.9 -30.65 L44.0 -30.45 44.2 -30.35 44.3 -30.35 44.3 -35.8 43.9 -35.8 43.9 -32.9 43.9 -30.65 M55.0 -30.65 L55.0 -30.4 55.1 -30.2 55.3 -30.1 55.5 -30.2 55.6 -30.4 55.6 -43.3 55.6 -43.4 55.5 -43.6 55.3 -43.7 55.1 -43.6 55.0 -43.4 55.0 -43.15 55.0 -42.15 55.0 -40.4 55.0 -32.9 55.0 -30.65 M66.65 -30.4 L66.65 -30.35 66.75 -30.15 Q66.85 -30.05 66.95 -30.05 67.05 -30.05 67.15 -30.15 L67.2 -30.2 67.25 -30.35 67.25 -43.2 67.25 -43.4 67.25 -43.45 67.15 -43.65 66.95 -43.75 66.75 -43.65 66.65 -43.45 66.65 -43.35 66.65 -42.15 66.65 -40.4 66.65 -32.9 66.65 -30.4 M44.45 -43.25 L44.4 -43.35 44.2 -43.45 44.0 -43.35 43.9 -43.15 43.9 -42.3 44.3 -42.3 44.3 -43.05 44.35 -43.2 44.45 -43.25" fill="#f2f2f2" fill-rule="evenodd" stroke="none"/>
    <path d="M37.1 -42.15 L43.9 -42.15 43.9 -42.3 43.9 -43.15 40.55 -43.15 Q38.75 -43.15 37.35 -42.3 L37.1 -42.15 M43.9 -40.4 L35.35 -40.4 Q34.3 -38.85 34.3 -36.9 L34.4 -35.8 Q34.65 -34.15 35.75 -32.9 L43.9 -32.9 43.9 -35.8 43.9 -40.4 M68.1 -30.65 L68.15 -30.1 68.55 -29.2 68.8 -28.9 70.1 -27.9 70.5 -27.7 71.65 -27.25 71.7 -27.25 72.1 -27.15 74.65 -26.85 77.0 -27.1 Q78.25 -27.35 79.25 -27.95 80.9 -28.9 81.15 -30.2 L81.2 -30.65 81.1 -30.85 80.9 -30.95 80.7 -30.85 80.6 -30.65 Q80.55 -29.35 78.95 -28.45 78.05 -27.95 77.0 -27.7 L74.65 -27.45 72.1 -27.75 71.7 -27.85 70.75 -28.25 70.35 -28.45 70.4 -28.45 69.05 -29.55 68.8 -30.05 68.7 -30.65 68.6 -30.85 68.4 -30.95 68.1 -30.7 68.1 -30.65 M79.5 -41.35 L78.0 -42.45 75.05 -43.15 68.0 -43.15 67.25 -43.4 67.25 -43.2 67.4 -43.25 67.55 -43.2 67.6 -43.05 67.6 -42.15 74.45 -42.15 70.95 -40.4 67.6 -40.4 67.6 -32.9 69.8 -32.9 70.0 -32.9 71.7 -32.9 Q75.05 -33.75 77.0 -35.1 80.35 -37.5 79.5 -41.35 M66.65 -43.35 L66.55 -43.15 57.25 -43.15 56.9 -43.4 56.65 -43.45 56.45 -43.35 56.35 -43.15 55.9 -43.15 55.9 -42.15 66.65 -42.15 66.65 -43.35 M55.0 -43.15 L44.65 -43.15 44.7 -43.05 44.7 -42.15 55.0 -42.15 55.0 -43.15 M55.9 -40.4 L55.9 -32.9 66.65 -32.9 66.65 -40.4 55.9 -40.4 M44.7 -40.4 L44.7 -32.9 55.0 -32.9 55.0 -40.4 44.7 -40.4" fill="#e6e6e6" fill-rule="evenodd" stroke="none"/>
    <path d="M68.15 -30.1 L68.1 -30.1 68.1 -30.05 Q68.1 -29.3 68.55 -28.6 L68.8 -28.3 70.1 -27.3 70.5 -27.1 71.7 -26.65 74.65 -26.25 77.0 -26.5 Q78.25 -26.75 79.25 -27.35 81.15 -28.45 81.2 -30.05 L81.15 -30.2 Q80.9 -28.9 79.25 -27.95 78.25 -27.35 77.0 -27.1 L74.65 -26.85 72.1 -27.15 71.7 -27.25 71.65 -27.25 70.5 -27.7 70.1 -27.9 68.8 -28.9 68.55 -29.2 68.15 -30.1" fill="#a9acad" fill-rule="evenodd" stroke="none"/>
    <path d="M37.1 -42.15 L36.15 -41.35 35.35 -40.4 43.9 -40.4 43.9 -42.15 37.1 -42.15 M55.9 -42.15 L55.9 -40.4 66.65 -40.4 66.65 -42.15 55.9 -42.15 M55.0 -40.4 L55.0 -42.15 44.7 -42.15 44.7 -40.4 55.0 -40.4 M67.6 -40.4 L70.95 -40.4 74.45 -42.15 67.6 -42.15 67.6 -40.4" fill="#f5f2f2" fill-rule="evenodd" stroke="none"/>
    <path d="M44.3 -30.35 L44.3 -30.05 44.35 -29.9 44.5 -29.85 44.65 -29.9 44.7 -30.05 44.7 -30.65 44.7 -32.9 44.7 -40.4 44.7 -42.15 44.7 -43.05 44.65 -43.15 44.65 -43.2 44.5 -43.25 44.45 -43.25 44.35 -43.2 44.3 -43.05 44.3 -42.3 44.3 -35.8 44.3 -30.35 M55.5 -30.2 L55.5 -30.05 55.55 -29.9 55.7 -29.85 55.85 -29.9 55.9 -30.05 55.9 -30.65 55.9 -32.9 55.9 -40.4 55.9 -42.15 55.9 -43.15 55.85 -43.3 55.7 -43.35 55.6 -43.3 55.6 -30.4 55.5 -30.2 M67.2 -30.2 L67.2 -30.05 67.25 -29.9 67.4 -29.85 67.55 -29.9 67.6 -30.05 67.6 -30.45 67.6 -32.9 67.6 -40.4 67.6 -42.15 67.6 -43.05 67.55 -43.2 67.4 -43.25 67.25 -43.2 67.25 -30.35 67.2 -30.2" fill="#9da0a1" fill-rule="evenodd" stroke="none"/>
    <path d="M64.0 1.55 L-11.25 1.55 -11.25 -54.7 64.0 -54.7 64.0 1.55" fill="#e6e6e6" fill-rule="evenodd" stroke="none"/>
    <path d="M65.0 0.9 L60.25 0.9 60.25 0.2 65.0 0.2 65.0 0.9" fill="#999999" fill-rule="evenodd" stroke="none"/>
    <path d="M59.0 0.9 L54.25 0.9 54.25 0.2 59.0 0.2 59.0 0.9" fill="#999999" fill-rule="evenodd" stroke="none"/>
    <path d="M53.0 0.9 L48.25 0.9 48.25 0.2 53.0 0.2 53.0 0.9" fill="#999999" fill-rule="evenodd" stroke="none"/>
    <path d="M47.0 0.9 L42.25 0.9 42.25 0.2 47.0 0.2 47.0 0.9" fill="#999999" fill-rule="evenodd" stroke="none"/>
    <path d="M41.0 0.9 L36.25 0.9 36.25 0.2 41.0 0.2 41.0 0.9" fill="#999999" fill-rule="evenodd" stroke="none"/>
    <path d="M35.0 0.9 L30.25 0.9 30.25 0.2 35.0 0.2 35.0 0.9" fill="#999999" fill-rule="evenodd" stroke="none"/>
    <path d="M29.0 0.9 L24.25 0.9 24.25 0.2 29.0 0.2 29.0 0.9" fill="#999999" fill-rule="evenodd" stroke="none"/>
    <path d="M23.0 0.9 L18.25 0.9 18.25 0.2 23.0 0.2 23.0 0.9" fill="#999999" fill-rule="evenodd" stroke="none"/>
    <path d="M17.0 0.9 L12.25 0.9 12.25 0.2 17.0 0.2 17.0 0.9" fill="#999999" fill-rule="evenodd" stroke="none"/>
    <path d="M11.0 0.9 L6.25 0.9 6.25 0.2 11.0 0.2 11.0 0.9" fill="#999999" fill-rule="evenodd" stroke="none"/>
    <path d="M5.0 0.9 L0.25 0.9 0.25 0.2 5.0 0.2 5.0 0.9" fill="#999999" fill-rule="evenodd" stroke="none"/>
    <path d="M-1.0 0.9 L-5.75 0.9 -5.75 0.2 -1.0 0.2 -1.0 0.9" fill="#999999" fill-rule="evenodd" stroke="none"/>
    <path d="M-7.0 0.9 L-11.75 0.9 -11.75 0.2 -7.0 0.2 -7.0 0.9" fill="#999999" fill-rule="evenodd" stroke="none"/>
    <path d="M64.5 -53.1 L59.75 -53.1 59.75 -53.8 64.5 -53.8 64.5 -53.1" fill="#999999" fill-rule="evenodd" stroke="none"/>
    <path d="M58.5 -53.1 L53.75 -53.1 53.75 -53.8 58.5 -53.8 58.5 -53.1" fill="#999999" fill-rule="evenodd" stroke="none"/>
    <path d="M52.5 -53.1 L47.75 -53.1 47.75 -53.8 52.5 -53.8 52.5 -53.1" fill="#999999" fill-rule="evenodd" stroke="none"/>
    <path d="M46.5 -53.1 L41.75 -53.1 41.75 -53.8 46.5 -53.8 46.5 -53.1" fill="#999999" fill-rule="evenodd" stroke="none"/>
    <path d="M40.5 -53.1 L35.75 -53.1 35.75 -53.8 40.5 -53.8 40.5 -53.1" fill="#999999" fill-rule="evenodd" stroke="none"/>
    <path d="M34.5 -53.1 L29.75 -53.1 29.75 -53.8 34.5 -53.8 34.5 -53.1" fill="#999999" fill-rule="evenodd" stroke="none"/>
    <path d="M28.5 -53.1 L23.75 -53.1 23.75 -53.8 28.5 -53.8 28.5 -53.1" fill="#999999" fill-rule="evenodd" stroke="none"/>
    <path d="M22.5 -53.1 L17.75 -53.1 17.75 -53.8 22.5 -53.8 22.5 -53.1" fill="#999999" fill-rule="evenodd" stroke="none"/>
    <path d="M16.5 -53.1 L11.75 -53.1 11.75 -53.8 16.5 -53.8 16.5 -53.1" fill="#999999" fill-rule="evenodd" stroke="none"/>
    <path d="M10.5 -53.1 L5.75 -53.1 5.75 -53.8 10.5 -53.8 10.5 -53.1" fill="#999999" fill-rule="evenodd" stroke="none"/>
    <path d="M4.5 -53.1 L-0.25 -53.1 -0.25 -53.8 4.5 -53.8 4.5 -53.1" fill="#999999" fill-rule="evenodd" stroke="none"/>
    <path d="M-1.5 -53.1 L-6.25 -53.1 -6.25 -53.8 -1.5 -53.8 -1.5 -53.1" fill="#999999" fill-rule="evenodd" stroke="none"/>
    <path d="M-7.5 -53.1 L-12.25 -53.1 -12.25 -53.8 -7.5 -53.8 -7.5 -53.1" fill="#999999" fill-rule="evenodd" stroke="none"/>
    <path d="M-2.4 -24.8 L79.6 -24.8 79.6 -19.9 -2.4 -19.9 -2.4 -24.8" fill="#55595c" fill-rule="evenodd" stroke="none"/>
    <path d="M-5.4 -25.4 L76.6 -25.4 76.6 -20.5 -5.4 -20.5 -5.4 -25.4" fill="url(#gradient1)" fill-rule="evenodd" stroke="none"/>
    <path d="M-5.4 -24.65 L-0.65 -24.65 -0.65 -24.25 -5.4 -24.25 -5.4 -24.65" fill="#999999" fill-rule="evenodd" stroke="none"/>
    <path d="M0.6 -24.65 L5.35 -24.65 5.35 -24.25 0.6 -24.25 0.6 -24.65" fill="#999999" fill-rule="evenodd" stroke="none"/>
    <path d="M6.6 -24.65 L11.35 -24.65 11.35 -24.25 6.6 -24.25 6.6 -24.65" fill="#999999" fill-rule="evenodd" stroke="none"/>
    <path d="M12.6 -24.65 L17.35 -24.65 17.35 -24.25 12.6 -24.25 12.6 -24.65" fill="#999999" fill-rule="evenodd" stroke="none"/>
    <path d="M18.6 -24.65 L23.35 -24.65 23.35 -24.25 18.6 -24.25 18.6 -24.65" fill="#999999" fill-rule="evenodd" stroke="none"/>
    <path d="M24.6 -24.65 L29.35 -24.65 29.35 -24.25 24.6 -24.25 24.6 -24.65" fill="#999999" fill-rule="evenodd" stroke="none"/>
    <path d="M30.6 -24.65 L35.35 -24.65 35.35 -24.25 30.6 -24.25 30.6 -24.65" fill="#999999" fill-rule="evenodd" stroke="none"/>
    <path d="M36.6 -24.65 L41.35 -24.65 41.35 -24.25 36.6 -24.25 36.6 -24.65" fill="#999999" fill-rule="evenodd" stroke="none"/>
    <path d="M42.6 -24.65 L47.35 -24.65 47.35 -24.25 42.6 -24.25 42.6 -24.65" fill="#999999" fill-rule="evenodd" stroke="none"/>
    <path d="M48.6 -24.65 L53.35 -24.65 53.35 -24.25 48.6 -24.25 48.6 -24.65" fill="#999999" fill-rule="evenodd" stroke="none"/>
    <path d="M54.6 -24.65 L59.35 -24.65 59.35 -24.25 54.6 -24.25 54.6 -24.65" fill="#999999" fill-rule="evenodd" stroke="none"/>
    <path d="M60.6 -24.65 L65.35 -24.65 65.35 -24.25 60.6 -24.25 60.6 -24.65" fill="#999999" fill-rule="evenodd" stroke="none"/>
    <path d="M66.6 -24.65 L71.35 -24.65 71.35 -24.25 66.6 -24.25 66.6 -24.65" fill="#999999" fill-rule="evenodd" stroke="none"/>
    <path d="M72.6 -24.65 L77.35 -24.65 77.35 -24.25 72.6 -24.25 72.6 -24.65" fill="#999999" fill-rule="evenodd" stroke="none"/>
    <path d="M-5.4 -21.35 L-0.65 -21.35 -0.65 -20.95 -5.4 -20.95 -5.4 -21.35" fill="#999999" fill-rule="evenodd" stroke="none"/>
    <path d="M0.6 -21.35 L5.35 -21.35 5.35 -20.95 0.6 -20.95 0.6 -21.35" fill="#999999" fill-rule="evenodd" stroke="none"/>
    <path d="M6.6 -21.35 L11.35 -21.35 11.35 -20.95 6.6 -20.95 6.6 -21.35" fill="#999999" fill-rule="evenodd" stroke="none"/>
    <path d="M12.6 -21.35 L17.35 -21.35 17.35 -20.95 12.6 -20.95 12.6 -21.35" fill="#999999" fill-rule="evenodd" stroke="none"/>
    <path d="M18.6 -21.35 L23.35 -21.35 23.35 -20.95 18.6 -20.95 18.6 -21.35" fill="#999999" fill-rule="evenodd" stroke="none"/>
    <path d="M24.6 -21.35 L29.35 -21.35 29.35 -20.95 24.6 -20.95 24.6 -21.35" fill="#999999" fill-rule="evenodd" stroke="none"/>
    <path d="M30.6 -21.35 L35.35 -21.35 35.35 -20.95 30.6 -20.95 30.6 -21.35" fill="#999999" fill-rule="evenodd" stroke="none"/>
    <path d="M36.6 -21.35 L41.35 -21.35 41.35 -20.95 36.6 -20.95 36.6 -21.35" fill="#999999" fill-rule="evenodd" stroke="none"/>
    <path d="M42.6 -21.35 L47.35 -21.35 47.35 -20.95 42.6 -20.95 42.6 -21.35" fill="#999999" fill-rule="evenodd" stroke="none"/>
    <path d="M48.6 -21.35 L53.35 -21.35 53.35 -20.95 48.6 -20.95 48.6 -21.35" fill="#999999" fill-rule="evenodd" stroke="none"/>
    <path d="M54.6 -21.35 L59.35 -21.35 59.35 -20.95 54.6 -20.95 54.6 -21.35" fill="#999999" fill-rule="evenodd" stroke="none"/>
    <path d="M60.6 -21.35 L65.35 -21.35 65.35 -20.95 60.6 -20.95 60.6 -21.35" fill="#999999" fill-rule="evenodd" stroke="none"/>
    <path d="M66.6 -21.35 L71.35 -21.35 71.35 -20.95 66.6 -20.95 66.6 -21.35" fill="#999999" fill-rule="evenodd" stroke="none"/>
    <path d="M72.6 -21.35 L77.35 -21.35 77.35 -20.95 72.6 -20.95 72.6 -21.35" fill="#999999" fill-rule="evenodd" stroke="none"/>
    <path d="M71.3 -20.05 Q73.3 -21.2 75.75 -21.2 77.85 -21.2 79.6 -20.35 80.95 -19.75 82.1 -18.6 84.75 -15.95 84.75 -12.2 84.75 -9.35 83.25 -7.2 81.0 -5.55 78.1 -5.55 76.25 -5.55 74.65 -6.2 73.1 -6.9 71.85 -8.15 69.25 -10.75 69.25 -14.4 69.25 -17.65 71.3 -20.05" fill="#e6e6e6" fill-rule="evenodd" stroke="none"/>
    <path d="M83.25 -7.2 L82.1 -5.85 Q81.05 -4.75 79.8 -4.1 77.95 -3.2 75.75 -3.2 72.05 -3.2 69.4 -5.85 66.75 -8.45 66.75 -12.2 66.75 -15.95 69.4 -18.6 L71.3 -20.05 Q69.25 -17.65 69.25 -14.4 69.25 -10.75 71.85 -8.15 73.1 -6.9 74.65 -6.2 76.25 -5.55 78.1 -5.55 81.0 -5.55 83.25 -7.2" fill="#d6cfcf" fill-rule="evenodd" stroke="none"/>
    <path d="M71.3 -20.05 Q69.25 -17.65 69.25 -14.4 69.25 -10.75 71.85 -8.15 73.1 -6.9 74.65 -6.2 76.25 -5.55 78.1 -5.55 81.0 -5.55 83.25 -7.2" fill="none" stroke="#962525" stroke-linecap="round" stroke-linejoin="round" stroke-width="0.1"/>
    <path d="M37.9 25.75 Q37.35 25.75 36.95 25.35 36.6 24.95 36.6 24.35 L36.9 13.2 Q36.95 12.65 37.3 12.2 37.7 11.8 38.25 11.8 38.8 11.85 39.2 12.25 39.55 12.7 39.5 13.25 L39.2 24.4 Q39.2 25.0 38.85 25.4 L37.9 25.75" fill="#55595c" fill-rule="evenodd" stroke="none"/>
    <path d="M37.45 22.7 L37.45 22.75 37.45 22.7" fill="#c0d0e0" fill-rule="evenodd" stroke="none"/>
    <path d="M41.5 14.75 L40.95 14.75 39.4 14.7 39.4 14.85 41.55 14.9 41.55 14.75 41.5 14.75" fill="#ffffff" fill-rule="evenodd" stroke="none"/>
    <path d="M38.5 11.95 L38.35 12.05 Q37.75 12.65 37.7 13.55 L37.7 14.65 38.45 14.65 38.5 11.95 M37.7 14.95 L37.6 18.35 38.35 18.35 38.45 14.95 37.7 14.95 M37.6 18.65 L37.55 18.8 37.5 18.8 37.45 18.85 37.45 18.9 37.45 19.0 37.55 19.1 37.5 22.2 37.4 22.25 38.25 22.25 38.35 18.65 37.6 18.65 M37.35 22.55 L37.45 22.7 37.45 22.75 37.55 22.85 38.0 23.2 38.15 23.3 38.2 23.3 38.2 22.55 37.35 22.55 M34.9 23.85 Q34.55 24.3 34.55 24.95 L34.65 25.6 36.0 25.65 35.9 24.9 36.1 23.9 34.9 23.85 M36.4 25.65 L38.85 25.75 Q38.4 25.05 38.2 23.95 L38.2 23.35 36.75 23.95 36.5 23.9 36.45 24.0 Q36.3 24.4 36.3 24.9 L36.4 25.65" fill="#dddfe0" fill-rule="evenodd" stroke="none"/>
    <path d="M36.65 22.95 L36.55 22.9 Q35.75 22.95 35.2 23.5 L34.9 23.85 36.1 23.9 36.25 23.5 36.3 23.35 36.65 22.95 M34.65 25.6 L35.1 26.5 Q35.65 27.05 36.45 27.1 L36.55 27.15 39.4 27.2 39.5 27.2 40.25 27.1 40.9 26.65 Q39.6 26.9 38.85 25.75 L36.4 25.65 36.6 26.35 Q36.9 26.9 37.35 26.9 L37.4 26.95 37.45 27.0 37.4 27.1 37.35 27.1 37.2 27.1 37.15 27.1 Q36.6 27.1 36.2 26.4 L36.0 25.65 34.65 25.6 M37.55 22.85 L37.5 22.9 37.45 22.95 37.25 22.95 37.05 23.05 36.7 23.5 36.6 23.55 36.5 23.9 36.75 23.95 38.2 23.35 38.2 23.3 38.15 23.3 38.0 23.2 37.55 22.85" fill="#babcbd" fill-rule="evenodd" stroke="none"/>
    <path d="M37.7 14.65 L37.6 14.7 37.6 14.75 37.6 14.8 39.4 14.85 39.4 14.7 38.45 14.65 37.7 14.65 M37.6 18.35 L37.5 18.35 37.45 18.4 37.4 18.45 37.45 18.55 37.5 18.55 41.8 18.65 41.85 18.65 41.9 18.65 41.95 18.55 41.9 18.5 41.85 18.45 41.75 18.45 41.4 18.45 40.85 18.45 38.35 18.35 37.6 18.35 M37.4 22.25 L37.3 22.3 37.3 22.35 37.25 22.4 37.3 22.45 37.35 22.45 41.6 22.55 41.7 22.55 41.75 22.5 41.85 22.45 41.8 22.4 41.75 22.35 41.7 22.35 41.3 22.35 40.75 22.35 38.25 22.25 37.4 22.25 M41.9 14.95 L41.95 14.85 41.9 14.8 41.85 14.75 41.55 14.75 41.55 14.9 41.8 14.9 41.85 14.9 41.9 14.95" fill="#f2f2f2" fill-rule="evenodd" stroke="none"/>
    <path d="M41.55 12.5 L41.5 14.75 41.55 14.75 41.85 14.75 41.85 13.65 Q41.9 13.05 41.6 12.55 L41.55 12.5 M40.95 14.75 L41.0 11.9 Q40.45 11.5 39.8 11.5 L39.45 11.55 Q38.9 11.6 38.5 11.95 L38.45 14.65 39.4 14.7 40.95 14.75 M37.45 22.75 L37.25 22.75 36.95 22.9 36.85 22.95 36.5 23.35 36.45 23.5 36.3 23.85 36.3 23.9 36.25 24.0 Q36.1 24.4 36.1 24.9 L36.2 25.65 36.4 26.4 37.2 27.1 37.35 27.1 37.4 27.1 37.45 27.0 37.4 26.95 37.35 26.9 Q36.9 26.9 36.6 26.35 L36.4 25.65 36.3 24.9 Q36.3 24.4 36.45 24.0 L36.5 23.9 36.6 23.55 36.7 23.5 37.05 23.05 37.25 22.95 37.45 22.95 37.5 22.9 37.55 22.85 37.45 22.75 M40.9 26.65 L41.3 26.15 41.55 25.15 41.6 22.8 41.7 22.55 41.6 22.55 41.65 22.6 41.6 22.65 41.55 22.65 41.25 22.65 41.2 24.95 40.7 23.8 40.7 22.65 38.2 22.55 38.2 23.3 38.2 23.35 38.2 23.95 Q38.4 25.05 38.85 25.75 39.6 26.9 40.9 26.65 M41.7 22.35 L41.65 22.3 41.7 19.2 41.8 19.1 41.8 19.0 41.75 18.95 41.7 18.9 41.75 18.75 41.4 18.75 41.3 22.35 41.7 22.35 M41.75 18.45 L41.85 15.0 41.8 15.05 41.5 15.05 41.4 18.45 41.75 18.45 M40.85 18.75 L38.35 18.65 38.25 22.25 40.75 22.35 40.85 18.75 M40.95 15.05 L38.45 14.95 38.35 18.35 40.85 18.45 40.95 15.05" fill="#e6e6e6" fill-rule="evenodd" stroke="none"/>
    <path d="M37.25 22.75 Q37.0 22.75 36.75 22.9 L36.65 22.95 36.3 23.35 36.25 23.5 36.1 23.9 35.9 24.9 36.0 25.65 36.2 26.4 Q36.6 27.1 37.15 27.1 L37.2 27.1 36.4 26.4 36.2 25.65 36.1 24.9 Q36.1 24.4 36.25 24.0 L36.3 23.9 36.3 23.85 36.45 23.5 36.5 23.35 36.85 22.95 36.95 22.9 37.25 22.75" fill="#a9acad" fill-rule="evenodd" stroke="none"/>
    <path d="M41.55 12.5 L41.3 12.15 41.0 11.9 40.95 14.75 41.5 14.75 41.55 12.5 M41.4 18.75 L40.85 18.75 40.75 22.35 41.3 22.35 41.4 18.75 M40.85 18.45 L41.4 18.45 41.5 15.05 40.95 15.05 40.85 18.45 M40.7 22.65 L40.7 23.8 41.2 24.95 41.25 22.65 40.7 22.65" fill="#f5f2f2" fill-rule="evenodd" stroke="none"/>
    <path d="M37.6 14.8 L37.5 14.8 37.45 14.8 37.4 14.85 37.45 14.9 37.5 14.95 37.7 14.95 38.45 14.95 40.95 15.05 41.5 15.05 41.8 15.05 41.85 15.0 41.9 14.95 41.85 14.9 41.8 14.9 41.55 14.9 39.4 14.85 37.6 14.8 M37.45 18.55 L37.4 18.55 37.35 18.55 37.3 18.6 37.35 18.65 37.4 18.65 37.6 18.65 38.35 18.65 40.85 18.75 41.4 18.75 41.75 18.75 41.8 18.75 41.8 18.7 41.8 18.65 37.5 18.55 37.45 18.55 M37.3 22.45 L37.25 22.45 37.2 22.45 37.15 22.5 37.2 22.55 37.25 22.55 37.35 22.55 38.2 22.55 40.7 22.65 41.25 22.65 41.55 22.65 41.6 22.65 41.65 22.6 41.6 22.55 37.35 22.45 37.3 22.45" fill="#9da0a1" fill-rule="evenodd" stroke="none"/>
    <path d="M32.9 25.75 Q32.35 25.75 31.95 25.35 31.6 24.95 31.6 24.35 L31.9 13.2 Q31.95 12.65 32.3 12.2 32.7 11.8 33.25 11.8 33.8 11.85 34.2 12.25 34.55 12.7 34.5 13.25 L34.2 24.4 Q34.2 25.0 33.85 25.4 33.45 25.8 32.9 25.75" fill="#55595c" fill-rule="evenodd" stroke="none"/>
    <path d="M32.45 22.7 L32.45 22.75 32.45 22.7" fill="#c0d0e0" fill-rule="evenodd" stroke="none"/>
    <path d="M36.5 14.75 L35.95 14.75 34.4 14.7 34.4 14.85 36.55 14.9 36.55 14.75 36.5 14.75" fill="#ffffff" fill-rule="evenodd" stroke="none"/>
    <path d="M33.5 11.95 L33.35 12.05 Q32.75 12.65 32.7 13.55 L32.7 14.65 33.45 14.65 33.5 11.95 M32.7 14.95 L32.6 18.35 33.35 18.35 33.45 14.95 32.7 14.95 M32.6 18.65 L32.55 18.8 32.5 18.8 32.45 18.85 32.45 18.9 32.45 19.0 32.55 19.1 32.5 22.2 32.4 22.25 33.25 22.25 33.35 18.65 32.6 18.65 M32.35 22.55 L32.45 22.7 32.45 22.75 32.55 22.85 33.0 23.2 33.15 23.3 33.2 23.3 33.2 22.55 32.35 22.55 M29.9 23.85 Q29.55 24.3 29.55 24.95 L29.65 25.6 31.0 25.65 30.9 24.9 31.1 23.9 29.9 23.85 M31.4 25.65 L33.85 25.75 Q33.4 25.05 33.2 23.95 L33.2 23.35 31.75 23.95 31.5 23.9 31.45 24.0 Q31.3 24.4 31.3 24.9 L31.4 25.65" fill="#dddfe0" fill-rule="evenodd" stroke="none"/>
    <path d="M31.65 22.95 L31.55 22.9 Q30.75 22.95 30.2 23.5 L29.9 23.85 31.1 23.9 31.25 23.5 31.3 23.35 31.65 22.95 M29.65 25.6 L30.1 26.5 Q30.65 27.05 31.45 27.1 L31.55 27.15 34.4 27.2 34.5 27.2 35.25 27.1 35.9 26.65 Q34.6 26.9 33.85 25.75 L31.4 25.65 31.6 26.35 32.35 26.9 32.4 26.95 32.45 27.0 32.4 27.1 32.35 27.1 32.2 27.1 32.15 27.1 Q31.6 27.1 31.2 26.4 L31.0 25.65 29.65 25.6 M32.55 22.85 L32.5 22.9 32.45 22.95 32.25 22.95 32.05 23.05 31.7 23.5 31.6 23.55 31.5 23.9 31.75 23.95 33.2 23.35 33.2 23.3 33.15 23.3 33.0 23.2 32.55 22.85" fill="#babcbd" fill-rule="evenodd" stroke="none"/>
    <path d="M32.7 14.65 L32.6 14.7 32.6 14.75 32.6 14.8 34.4 14.85 34.4 14.7 33.45 14.65 32.7 14.65 M32.6 18.35 L32.5 18.35 32.45 18.4 32.4 18.45 32.45 18.55 32.5 18.55 36.8 18.65 36.85 18.65 36.9 18.65 36.95 18.55 36.9 18.5 36.85 18.45 36.75 18.45 36.4 18.45 35.85 18.45 33.35 18.35 32.6 18.35 M32.4 22.25 L32.3 22.3 32.3 22.35 32.25 22.4 32.3 22.45 32.35 22.45 36.6 22.55 36.7 22.55 36.75 22.5 36.85 22.45 36.8 22.4 36.75 22.35 36.7 22.35 36.3 22.35 35.75 22.35 33.25 22.25 32.4 22.25 M36.9 14.95 L36.95 14.85 36.9 14.8 36.85 14.75 36.55 14.75 36.55 14.9 36.8 14.9 36.85 14.9 36.9 14.95" fill="#f2f2f2" fill-rule="evenodd" stroke="none"/>
    <path d="M36.55 12.5 L36.5 14.75 36.55 14.75 36.85 14.75 36.85 13.65 Q36.9 13.05 36.6 12.55 L36.55 12.5 M35.95 14.75 L36.0 11.9 Q35.45 11.5 34.8 11.5 L34.45 11.55 Q33.9 11.6 33.5 11.95 L33.45 14.65 34.4 14.7 35.95 14.75 M32.45 22.75 L32.25 22.75 31.95 22.9 31.85 22.95 31.5 23.35 31.45 23.5 31.3 23.85 31.3 23.9 31.25 24.0 Q31.1 24.4 31.1 24.9 L31.2 25.65 31.4 26.4 Q31.75 27.0 32.2 27.1 L32.35 27.1 32.4 27.1 32.45 27.0 32.4 26.95 32.35 26.9 31.6 26.35 31.4 25.65 31.3 24.9 Q31.3 24.4 31.45 24.0 L31.5 23.9 31.6 23.55 31.7 23.5 32.05 23.05 32.25 22.95 32.45 22.95 32.5 22.9 32.55 22.85 32.45 22.75 M35.9 26.65 L36.3 26.15 36.55 25.15 36.6 22.8 36.7 22.55 36.6 22.55 36.65 22.6 36.6 22.65 36.55 22.65 36.25 22.65 36.2 24.95 35.7 23.8 35.7 22.65 33.2 22.55 33.2 23.3 33.2 23.35 33.2 23.95 Q33.4 25.05 33.85 25.75 34.6 26.9 35.9 26.65 M36.7 22.35 L36.65 22.3 36.7 19.2 36.8 19.1 36.8 19.0 36.75 18.95 36.7 18.9 36.75 18.75 36.4 18.75 36.3 22.35 36.7 22.35 M36.75 18.45 L36.85 15.0 36.8 15.05 36.5 15.05 36.4 18.45 36.75 18.45 M35.85 18.75 L33.35 18.65 33.25 22.25 35.75 22.35 35.85 18.75 M35.95 15.05 L33.45 14.95 33.35 18.35 35.85 18.45 35.95 15.05" fill="#e6e6e6" fill-rule="evenodd" stroke="none"/>
    <path d="M32.25 22.75 L31.75 22.9 31.65 22.95 31.3 23.35 31.25 23.5 31.1 23.9 30.9 24.9 31.0 25.65 31.2 26.4 Q31.6 27.1 32.15 27.1 L32.2 27.1 Q31.75 27.0 31.4 26.4 L31.2 25.65 31.1 24.9 Q31.1 24.4 31.25 24.0 L31.3 23.9 31.3 23.85 31.45 23.5 31.5 23.35 31.85 22.95 31.95 22.9 32.25 22.75" fill="#a9acad" fill-rule="evenodd" stroke="none"/>
    <path d="M36.55 12.5 L36.3 12.15 36.0 11.9 35.95 14.75 36.5 14.75 36.55 12.5 M36.4 18.75 L35.85 18.75 35.75 22.35 36.3 22.35 36.4 18.75 M35.85 18.45 L36.4 18.45 36.5 15.05 35.95 15.05 35.85 18.45 M35.7 22.65 L35.7 23.8 36.2 24.95 36.25 22.65 35.7 22.65" fill="#f5f2f2" fill-rule="evenodd" stroke="none"/>
    <path d="M32.6 14.8 L32.5 14.8 32.45 14.8 32.4 14.85 32.45 14.9 32.5 14.95 32.7 14.95 33.45 14.95 35.95 15.05 36.5 15.05 36.8 15.05 36.85 15.0 36.9 14.95 36.85 14.9 36.8 14.9 36.55 14.9 34.4 14.85 32.6 14.8 M32.45 18.55 L32.4 18.55 32.35 18.55 32.3 18.6 32.35 18.65 32.4 18.65 32.6 18.65 33.35 18.65 35.85 18.75 36.4 18.75 36.75 18.75 36.8 18.75 36.8 18.7 36.8 18.65 32.5 18.55 32.45 18.55 M32.3 22.45 L32.25 22.45 32.2 22.45 32.15 22.5 32.2 22.55 32.25 22.55 32.35 22.55 33.2 22.55 35.7 22.65 36.25 22.65 36.55 22.65 36.6 22.65 36.65 22.6 36.6 22.55 32.35 22.45 32.3 22.45" fill="#9da0a1" fill-rule="evenodd" stroke="none"/>
    <path d="M22.9 25.75 Q22.35 25.75 21.95 25.35 21.6 24.95 21.6 24.35 L21.9 13.2 Q21.95 12.65 22.3 12.2 22.7 11.8 23.25 11.8 23.8 11.85 24.2 12.25 24.55 12.7 24.5 13.25 L24.2 24.4 Q24.2 25.0 23.85 25.4 23.45 25.8 22.9 25.75" fill="#55595c" fill-rule="evenodd" stroke="none"/>
    <path d="M22.45 22.7 L22.45 22.75 22.45 22.7" fill="#c0d0e0" fill-rule="evenodd" stroke="none"/>
    <path d="M26.5 14.75 L25.95 14.75 24.4 14.7 24.4 14.85 26.55 14.9 26.55 14.75 26.5 14.75" fill="#ffffff" fill-rule="evenodd" stroke="none"/>
    <path d="M23.5 11.95 L23.35 12.05 Q22.75 12.65 22.7 13.55 L22.7 14.65 23.45 14.65 23.5 11.95 M22.7 14.95 L22.6 18.35 23.35 18.35 23.45 14.95 22.7 14.95 M22.6 18.65 L22.55 18.8 22.5 18.8 22.45 18.85 22.45 18.9 22.45 19.0 22.55 19.1 22.5 22.2 22.4 22.25 23.25 22.25 23.35 18.65 22.6 18.65 M22.35 22.55 L22.45 22.7 22.45 22.75 22.55 22.85 23.0 23.2 23.15 23.3 23.2 23.3 23.2 22.55 22.35 22.55 M19.9 23.85 Q19.55 24.3 19.55 24.95 L19.65 25.6 21.0 25.65 20.9 24.9 21.1 23.9 19.9 23.85 M21.4 25.65 L23.85 25.75 Q23.4 25.05 23.2 23.95 L23.2 23.35 21.75 23.95 21.5 23.9 21.45 24.0 Q21.3 24.4 21.3 24.9 L21.4 25.65" fill="#dddfe0" fill-rule="evenodd" stroke="none"/>
    <path d="M21.65 22.95 L21.55 22.9 Q20.75 22.95 20.2 23.5 L19.9 23.85 21.1 23.9 21.25 23.5 21.3 23.35 21.65 22.95 M19.65 25.6 L20.1 26.5 Q20.65 27.05 21.45 27.1 L21.55 27.15 24.4 27.2 24.5 27.2 25.25 27.1 25.9 26.65 Q24.6 26.9 23.85 25.75 L21.4 25.65 21.6 26.35 Q21.9 26.9 22.35 26.9 L22.4 26.95 22.45 27.0 22.4 27.1 22.35 27.1 22.2 27.1 22.15 27.1 Q21.6 27.1 21.2 26.4 L21.0 25.65 19.65 25.6 M22.55 22.85 L22.5 22.9 22.45 22.95 22.25 22.95 22.05 23.05 21.7 23.5 21.6 23.55 21.5 23.9 21.75 23.95 23.2 23.35 23.2 23.3 23.15 23.3 23.0 23.2 22.55 22.85" fill="#babcbd" fill-rule="evenodd" stroke="none"/>
    <path d="M22.7 14.65 L22.6 14.7 22.6 14.75 22.6 14.8 24.4 14.85 24.4 14.7 23.45 14.65 22.7 14.65 M22.6 18.35 L22.5 18.35 22.45 18.4 22.4 18.45 22.45 18.55 22.5 18.55 26.8 18.65 26.85 18.65 26.9 18.65 26.95 18.55 26.9 18.5 26.85 18.45 26.75 18.45 26.4 18.45 25.85 18.45 23.35 18.35 22.6 18.35 M22.4 22.25 L22.3 22.3 22.3 22.35 22.25 22.4 22.3 22.45 22.35 22.45 26.6 22.55 26.7 22.55 26.75 22.5 26.85 22.45 26.8 22.4 26.75 22.35 26.7 22.35 26.3 22.35 25.75 22.35 23.25 22.25 22.4 22.25 M26.9 14.95 L26.95 14.85 26.9 14.8 26.85 14.75 26.55 14.75 26.55 14.9 26.8 14.9 26.85 14.9 26.9 14.95" fill="#f2f2f2" fill-rule="evenodd" stroke="none"/>
    <path d="M26.55 12.5 L26.5 14.75 26.55 14.75 26.85 14.75 26.85 13.65 Q26.9 13.05 26.6 12.55 L26.55 12.5 M25.95 14.75 L26.0 11.9 Q25.45 11.5 24.8 11.5 L24.45 11.55 Q23.9 11.6 23.5 11.95 L23.45 14.65 24.4 14.7 25.95 14.75 M22.45 22.75 L22.25 22.75 21.95 22.9 21.85 22.95 21.5 23.35 21.45 23.5 21.3 23.85 21.3 23.9 21.25 24.0 Q21.1 24.4 21.1 24.9 L21.2 25.65 21.4 26.4 Q21.75 27.0 22.2 27.1 L22.35 27.1 22.4 27.1 22.45 27.0 22.4 26.95 22.35 26.9 Q21.9 26.9 21.6 26.35 L21.4 25.65 21.3 24.9 Q21.3 24.4 21.45 24.0 L21.5 23.9 21.6 23.55 21.7 23.5 22.05 23.05 22.25 22.95 22.45 22.95 22.5 22.9 22.55 22.85 22.45 22.75 M25.9 26.65 L26.3 26.15 26.55 25.15 26.6 22.8 26.7 22.55 26.6 22.55 26.65 22.6 26.6 22.65 26.55 22.65 26.25 22.65 26.2 24.95 25.7 23.8 25.7 22.65 23.2 22.55 23.2 23.3 23.2 23.35 23.2 23.95 Q23.4 25.05 23.85 25.75 24.6 26.9 25.9 26.65 M26.7 22.35 L26.65 22.3 26.7 19.2 26.8 19.1 26.8 19.0 26.75 18.95 26.7 18.9 26.75 18.75 26.4 18.75 26.3 22.35 26.7 22.35 M26.75 18.45 L26.85 15.0 26.8 15.05 26.5 15.05 26.4 18.45 26.75 18.45 M25.85 18.75 L23.35 18.65 23.25 22.25 25.75 22.35 25.85 18.75 M25.95 15.05 L23.45 14.95 23.35 18.35 25.85 18.45 25.95 15.05" fill="#e6e6e6" fill-rule="evenodd" stroke="none"/>
    <path d="M22.25 22.75 Q22.0 22.75 21.75 22.9 L21.65 22.95 21.3 23.35 21.25 23.5 21.1 23.9 20.9 24.9 21.0 25.65 21.2 26.4 Q21.6 27.1 22.15 27.1 L22.2 27.1 Q21.75 27.0 21.4 26.4 L21.2 25.65 21.1 24.9 Q21.1 24.4 21.25 24.0 L21.3 23.9 21.3 23.85 21.45 23.5 21.5 23.35 21.85 22.95 21.95 22.9 22.25 22.75" fill="#a9acad" fill-rule="evenodd" stroke="none"/>
    <path d="M26.55 12.5 L26.3 12.15 26.0 11.9 25.95 14.75 26.5 14.75 26.55 12.5 M26.4 18.75 L25.85 18.75 25.75 22.35 26.3 22.35 26.4 18.75 M25.85 18.45 L26.4 18.45 26.5 15.05 25.95 15.05 25.85 18.45 M25.7 22.65 L25.7 23.8 26.2 24.95 26.25 22.65 25.7 22.65" fill="#f5f2f2" fill-rule="evenodd" stroke="none"/>
    <path d="M22.6 14.8 L22.5 14.8 22.45 14.8 22.4 14.85 22.45 14.9 22.5 14.95 22.7 14.95 23.45 14.95 25.95 15.05 26.5 15.05 26.8 15.05 26.85 15.0 26.9 14.95 26.85 14.9 26.8 14.9 26.55 14.9 24.4 14.85 22.6 14.8 M22.45 18.55 L22.4 18.55 22.35 18.55 22.3 18.6 22.35 18.65 22.4 18.65 22.6 18.65 23.35 18.65 25.85 18.75 26.4 18.75 26.75 18.75 26.8 18.75 26.8 18.7 26.8 18.65 22.5 18.55 22.45 18.55 M22.3 22.45 L22.25 22.45 22.2 22.45 22.15 22.5 22.2 22.55 22.25 22.55 22.35 22.55 23.2 22.55 25.7 22.65 26.25 22.65 26.55 22.65 26.6 22.65 26.65 22.6 26.6 22.55 22.35 22.45 22.3 22.45" fill="#9da0a1" fill-rule="evenodd" stroke="none"/>
    <path d="M17.9 25.75 Q17.35 25.75 16.95 25.35 16.6 24.95 16.6 24.35 L16.9 13.2 Q16.95 12.65 17.3 12.2 17.7 11.8 18.25 11.8 18.8 11.85 19.2 12.25 19.55 12.7 19.5 13.25 L19.2 24.4 Q19.2 25.0 18.85 25.4 L17.9 25.75" fill="#55595c" fill-rule="evenodd" stroke="none"/>
    <path d="M17.45 22.7 L17.45 22.75 17.45 22.7" fill="#c0d0e0" fill-rule="evenodd" stroke="none"/>
    <path d="M21.5 14.75 L20.95 14.75 19.4 14.7 19.4 14.85 21.55 14.9 21.55 14.75 21.5 14.75" fill="#ffffff" fill-rule="evenodd" stroke="none"/>
    <path d="M18.5 11.95 L18.35 12.05 Q17.75 12.65 17.7 13.55 L17.7 14.65 18.45 14.65 18.5 11.95 M17.7 14.95 L17.6 18.35 18.35 18.35 18.45 14.95 17.7 14.95 M17.6 18.65 L17.55 18.8 17.5 18.8 17.45 18.85 17.45 18.9 17.45 19.0 17.55 19.1 17.5 22.2 17.4 22.25 18.25 22.25 18.35 18.65 17.6 18.65 M17.35 22.55 L17.45 22.7 17.45 22.75 17.55 22.85 18.0 23.2 18.15 23.3 18.2 23.3 18.2 22.55 17.35 22.55 M14.9 23.85 Q14.55 24.3 14.55 24.95 L14.65 25.6 16.0 25.65 15.9 24.9 16.1 23.9 14.9 23.85 M16.4 25.65 L18.85 25.75 Q18.4 25.05 18.2 23.95 L18.2 23.35 16.75 23.95 16.5 23.9 16.45 24.0 Q16.3 24.4 16.3 24.9 L16.4 25.65" fill="#dddfe0" fill-rule="evenodd" stroke="none"/>
    <path d="M16.65 22.95 L16.55 22.9 Q15.75 22.95 15.2 23.5 L14.9 23.85 16.1 23.9 16.25 23.5 16.3 23.35 16.65 22.95 M14.65 25.6 L15.1 26.5 Q15.65 27.05 16.45 27.1 L16.55 27.15 19.4 27.2 19.5 27.2 20.25 27.1 20.9 26.65 Q19.6 26.9 18.85 25.75 L16.4 25.65 16.6 26.35 Q16.9 26.9 17.35 26.9 L17.4 26.95 17.45 27.0 17.4 27.1 17.35 27.1 17.2 27.1 17.15 27.1 Q16.6 27.1 16.2 26.4 L16.0 25.65 14.65 25.6 M17.55 22.85 L17.5 22.9 17.45 22.95 17.25 22.95 17.05 23.05 16.7 23.5 16.6 23.55 16.5 23.9 16.75 23.95 18.2 23.35 18.2 23.3 18.15 23.3 18.0 23.2 17.55 22.85" fill="#babcbd" fill-rule="evenodd" stroke="none"/>
    <path d="M17.7 14.65 L17.6 14.7 17.6 14.75 17.6 14.8 19.4 14.85 19.4 14.7 18.45 14.65 17.7 14.65 M17.6 18.35 L17.5 18.35 17.45 18.4 17.4 18.45 17.45 18.55 17.5 18.55 21.8 18.65 21.85 18.65 21.9 18.65 21.95 18.55 21.9 18.5 21.85 18.45 21.75 18.45 21.4 18.45 20.85 18.45 18.35 18.35 17.6 18.35 M17.4 22.25 L17.3 22.3 17.3 22.35 17.25 22.4 17.3 22.45 17.35 22.45 21.6 22.55 21.7 22.55 21.75 22.5 21.85 22.45 21.8 22.4 21.75 22.35 21.7 22.35 21.3 22.35 20.75 22.35 18.25 22.25 17.4 22.25 M21.9 14.95 L21.95 14.85 21.9 14.8 21.85 14.75 21.55 14.75 21.55 14.9 21.8 14.9 21.85 14.9 21.9 14.95" fill="#f2f2f2" fill-rule="evenodd" stroke="none"/>
    <path d="M21.55 12.5 L21.5 14.75 21.55 14.75 21.85 14.75 21.85 13.65 Q21.9 13.05 21.6 12.55 L21.55 12.5 M20.95 14.75 L21.0 11.9 Q20.45 11.5 19.8 11.5 L19.45 11.55 Q18.9 11.6 18.5 11.95 L18.45 14.65 19.4 14.7 20.95 14.75 M17.45 22.75 L17.25 22.75 16.95 22.9 16.85 22.95 16.5 23.35 16.45 23.5 16.3 23.85 16.3 23.9 16.25 24.0 Q16.1 24.4 16.1 24.9 L16.2 25.65 16.4 26.4 17.2 27.1 17.35 27.1 17.4 27.1 17.45 27.0 17.4 26.95 17.35 26.9 Q16.9 26.9 16.6 26.35 L16.4 25.65 16.3 24.9 Q16.3 24.4 16.45 24.0 L16.5 23.9 16.6 23.55 16.7 23.5 17.05 23.05 17.25 22.95 17.45 22.95 17.5 22.9 17.55 22.85 17.45 22.75 M20.9 26.65 L21.3 26.15 21.55 25.15 21.6 22.8 21.7 22.55 21.6 22.55 21.65 22.6 21.6 22.65 21.55 22.65 21.25 22.65 21.2 24.95 20.7 23.8 20.7 22.65 18.2 22.55 18.2 23.3 18.2 23.35 18.2 23.95 Q18.4 25.05 18.85 25.75 19.6 26.9 20.9 26.65 M21.7 22.35 L21.65 22.3 21.7 19.2 21.8 19.1 21.8 19.0 21.75 18.95 21.7 18.9 21.75 18.75 21.4 18.75 21.3 22.35 21.7 22.35 M21.75 18.45 L21.85 15.0 21.8 15.05 21.5 15.05 21.4 18.45 21.75 18.45 M20.85 18.75 L18.35 18.65 18.25 22.25 20.75 22.35 20.85 18.75 M20.95 15.05 L18.45 14.95 18.35 18.35 20.85 18.45 20.95 15.05" fill="#e6e6e6" fill-rule="evenodd" stroke="none"/>
    <path d="M17.25 22.75 L16.75 22.9 16.65 22.95 16.3 23.35 16.25 23.5 16.1 23.9 15.9 24.9 16.0 25.65 16.2 26.4 Q16.6 27.1 17.15 27.1 L17.2 27.1 16.4 26.4 16.2 25.65 16.1 24.9 Q16.1 24.4 16.25 24.0 L16.3 23.9 16.3 23.85 16.45 23.5 16.5 23.35 16.85 22.95 16.95 22.9 17.25 22.75" fill="#a9acad" fill-rule="evenodd" stroke="none"/>
    <path d="M21.55 12.5 L21.3 12.15 21.0 11.9 20.95 14.75 21.5 14.75 21.55 12.5 M21.4 18.75 L20.85 18.75 20.75 22.35 21.3 22.35 21.4 18.75 M20.85 18.45 L21.4 18.45 21.5 15.05 20.95 15.05 20.85 18.45 M20.7 22.65 L20.7 23.8 21.2 24.95 21.25 22.65 20.7 22.65" fill="#f5f2f2" fill-rule="evenodd" stroke="none"/>
    <path d="M17.6 14.8 L17.5 14.8 17.45 14.8 17.4 14.85 17.45 14.9 17.5 14.95 17.7 14.95 18.45 14.95 20.95 15.05 21.5 15.05 21.8 15.05 21.85 15.0 21.9 14.95 21.85 14.9 21.8 14.9 21.55 14.9 19.4 14.85 17.6 14.8 M17.45 18.55 L17.4 18.55 17.35 18.55 17.3 18.6 17.35 18.65 17.4 18.65 17.6 18.65 18.35 18.65 20.85 18.75 21.4 18.75 21.75 18.75 21.8 18.75 21.8 18.7 21.8 18.65 17.5 18.55 17.45 18.55 M17.3 22.45 L17.25 22.45 17.2 22.45 17.15 22.5 17.2 22.55 17.25 22.55 17.35 22.55 18.2 22.55 20.7 22.65 21.25 22.65 21.55 22.65 21.6 22.65 21.65 22.6 21.6 22.55 17.35 22.45 17.3 22.45" fill="#9da0a1" fill-rule="evenodd" stroke="none"/>
    <path d="M-12.4 7.7 L69.6 7.7 69.6 12.6 -12.4 12.6 -12.4 7.7" fill="#55595c" fill-rule="evenodd" stroke="none"/>
    <path d="M-15.4 7.1 L66.6 7.1 66.6 12.0 -15.4 12.0 -15.4 7.1" fill="url(#gradient2)" fill-rule="evenodd" stroke="none"/>
    <path d="M-15.4 7.85 L-10.65 7.85 -10.65 8.25 -15.4 8.25 -15.4 7.85" fill="#999999" fill-rule="evenodd" stroke="none"/>
    <path d="M-9.4 7.85 L-4.65 7.85 -4.65 8.25 -9.4 8.25 -9.4 7.85" fill="#999999" fill-rule="evenodd" stroke="none"/>
    <path d="M-3.4 7.85 L1.35 7.85 1.35 8.25 -3.4 8.25 -3.4 7.85" fill="#999999" fill-rule="evenodd" stroke="none"/>
    <path d="M2.6 7.85 L7.35 7.85 7.35 8.25 2.6 8.25 2.6 7.85" fill="#999999" fill-rule="evenodd" stroke="none"/>
    <path d="M8.6 7.85 L13.35 7.85 13.35 8.25 8.6 8.25 8.6 7.85" fill="#999999" fill-rule="evenodd" stroke="none"/>
    <path d="M14.6 7.85 L19.35 7.85 19.35 8.25 14.6 8.25 14.6 7.85" fill="#999999" fill-rule="evenodd" stroke="none"/>
    <path d="M20.6 7.85 L25.35 7.85 25.35 8.25 20.6 8.25 20.6 7.85" fill="#999999" fill-rule="evenodd" stroke="none"/>
    <path d="M26.6 7.85 L31.35 7.85 31.35 8.25 26.6 8.25 26.6 7.85" fill="#999999" fill-rule="evenodd" stroke="none"/>
    <path d="M32.6 7.85 L37.35 7.85 37.35 8.25 32.6 8.25 32.6 7.85" fill="#999999" fill-rule="evenodd" stroke="none"/>
    <path d="M38.6 7.85 L43.35 7.85 43.35 8.25 38.6 8.25 38.6 7.85" fill="#999999" fill-rule="evenodd" stroke="none"/>
    <path d="M44.6 7.85 L49.35 7.85 49.35 8.25 44.6 8.25 44.6 7.85" fill="#999999" fill-rule="evenodd" stroke="none"/>
    <path d="M50.6 7.85 L55.35 7.85 55.35 8.25 50.6 8.25 50.6 7.85" fill="#999999" fill-rule="evenodd" stroke="none"/>
    <path d="M56.6 7.85 L61.35 7.85 61.35 8.25 56.6 8.25 56.6 7.85" fill="#999999" fill-rule="evenodd" stroke="none"/>
    <path d="M62.6 7.85 L67.35 7.85 67.35 8.25 62.6 8.25 62.6 7.85" fill="#999999" fill-rule="evenodd" stroke="none"/>
    <path d="M-15.4 11.15 L-10.65 11.15 -10.65 11.55 -15.4 11.55 -15.4 11.15" fill="#999999" fill-rule="evenodd" stroke="none"/>
    <path d="M-9.4 11.15 L-4.65 11.15 -4.65 11.55 -9.4 11.55 -9.4 11.15" fill="#999999" fill-rule="evenodd" stroke="none"/>
    <path d="M-3.4 11.15 L1.35 11.15 1.35 11.55 -3.4 11.55 -3.4 11.15" fill="#999999" fill-rule="evenodd" stroke="none"/>
    <path d="M2.6 11.15 L7.35 11.15 7.35 11.55 2.6 11.55 2.6 11.15" fill="#999999" fill-rule="evenodd" stroke="none"/>
    <path d="M8.6 11.15 L13.35 11.15 13.35 11.55 8.6 11.55 8.6 11.15" fill="#999999" fill-rule="evenodd" stroke="none"/>
    <path d="M14.6 11.15 L19.35 11.15 19.35 11.55 14.6 11.55 14.6 11.15" fill="#999999" fill-rule="evenodd" stroke="none"/>
    <path d="M20.6 11.15 L25.35 11.15 25.35 11.55 20.6 11.55 20.6 11.15" fill="#999999" fill-rule="evenodd" stroke="none"/>
    <path d="M26.6 11.15 L31.35 11.15 31.35 11.55 26.6 11.55 26.6 11.15" fill="#999999" fill-rule="evenodd" stroke="none"/>
    <path d="M32.6 11.15 L37.35 11.15 37.35 11.55 32.6 11.55 32.6 11.15" fill="#999999" fill-rule="evenodd" stroke="none"/>
    <path d="M38.6 11.15 L43.35 11.15 43.35 11.55 38.6 11.55 38.6 11.15" fill="#999999" fill-rule="evenodd" stroke="none"/>
    <path d="M44.6 11.15 L49.35 11.15 49.35 11.55 44.6 11.55 44.6 11.15" fill="#999999" fill-rule="evenodd" stroke="none"/>
    <path d="M50.6 11.15 L55.35 11.15 55.35 11.55 50.6 11.55 50.6 11.15" fill="#999999" fill-rule="evenodd" stroke="none"/>
    <path d="M56.6 11.15 L61.35 11.15 61.35 11.55 56.6 11.55 56.6 11.15" fill="#999999" fill-rule="evenodd" stroke="none"/>
    <path d="M62.6 11.15 L67.35 11.15 67.35 11.55 62.6 11.55 62.6 11.15" fill="#999999" fill-rule="evenodd" stroke="none"/>
  </g>
  <defs>
    <linearGradient gradientTransform="matrix(0.0, -0.034, 0.0444, 0.0, 12.45, -22.7)" gradientUnits="userSpaceOnUse" id="gradient0" spreadMethod="pad" x1="-819.2" x2="819.2">
      <stop offset="0.03529411764705882" stop-color="#e0dddd"/>
      <stop offset="0.9764705882352941" stop-color="#f5f2f2"/>
    </linearGradient>
    <linearGradient gradientTransform="matrix(-0.0757, 0.0, 0.0, -0.029, 57.6, -23.2)" gradientUnits="userSpaceOnUse" id="gradient1" spreadMethod="pad" x1="-819.2" x2="819.2">
      <stop offset="0.0" stop-color="#e0dddd"/>
      <stop offset="0.9764705882352941" stop-color="#f5f2f2"/>
    </linearGradient>
    <linearGradient gradientTransform="matrix(-0.0757, 0.0, 0.0, -0.029, 47.6, 9.3)" gradientUnits="userSpaceOnUse" id="gradient2" spreadMethod="pad" x1="-819.2" x2="819.2">
      <stop offset="0.0" stop-color="#e0dddd"/>
      <stop offset="0.9764705882352941" stop-color="#f5f2f2"/>
    </linearGradient>
  </defs>
</svg>
