<?xml version="1.0" encoding="UTF-8" standalone="no"?>
<svg xmlns:ffdec="https://www.free-decompiler.com/flash" xmlns:xlink="http://www.w3.org/1999/xlink" ffdec:objectType="shape" height="90.2px" width="125.7px" xmlns="http://www.w3.org/2000/svg">
  <g transform="matrix(1.0, 0.0, 0.0, 1.0, 66.5, 58.25)">
    <path d="M-16.25 5.7 L-16.25 17.2 -36.25 17.2 -36.25 5.7 -16.25 5.7" fill="#55595c" fill-rule="evenodd" stroke="none"/>
    <path d="M-17.9 4.45 L-15.4 4.45 -15.4 15.95 -33.1 15.95 Q-25.35 15.55 -21.45 11.0 L-17.9 4.45 M-35.4 8.8 L-35.4 4.45 -32.3 4.45 -35.4 8.8" fill="#f5f2f2" fill-rule="evenodd" stroke="none"/>
    <path d="M-33.1 15.95 L-35.4 15.95 -35.4 8.8 -32.3 4.45 -17.9 4.45 -21.45 11.0 Q-25.35 15.55 -33.1 15.95" fill="#55595c" fill-rule="evenodd" stroke="none"/>
    <path d="M18.85 -7.45 L18.85 -7.4 Q18.85 -5.9 17.75 -4.85 16.6 -3.8 15.05 -3.8 L-15.8 -3.8 Q-17.4 -3.8 -18.5 -4.85 -19.6 -5.9 -19.6 -7.4 L-19.6 -7.45 Q-19.6 -8.95 -18.5 -10.0 -17.4 -11.05 -15.8 -11.05 L15.05 -11.05 Q16.6 -11.05 17.75 -10.0 18.85 -8.95 18.85 -7.45" fill="#55595c" fill-rule="evenodd" stroke="none"/>
    <path d="M-14.5 -18.0 Q-15.3 -15.1 -18.0 -13.6 -20.6 -12.0 -23.6 -12.8 L-23.65 -12.8 Q-26.6 -13.55 -28.1 -16.3 -29.65 -18.95 -28.85 -21.85 L-21.85 -48.0 -7.9 -42.55 -14.5 -18.0" fill="#4f3939" fill-rule="evenodd" stroke="none"/>
    <path d="M-11.7 -6.8 L-11.8 -6.8 -11.8 -6.85 -11.7 -6.8" fill="#c0d0e0" fill-rule="evenodd" stroke="none"/>
    <path d="M12.0 -18.45 L12.4 -18.45 12.4 -18.3 12.4 -16.55 12.4 -11.95 12.0 -11.95 12.0 -18.45" fill="#ffffff" fill-rule="evenodd" stroke="none"/>
    <path d="M11.85 -19.4 L11.9 -19.5 12.1 -19.6 12.3 -19.5 12.4 -19.3 12.4 -18.45 12.0 -18.45 12.0 -19.2 11.95 -19.35 11.85 -19.4 M12.4 -6.8 L12.3 -6.6 12.1 -6.5 12.0 -6.5 12.0 -11.95 12.4 -11.95 12.4 -9.05 12.4 -6.8 M1.3 -6.8 L1.3 -6.55 1.2 -6.35 1.0 -6.25 0.8 -6.35 0.7 -6.55 0.7 -19.45 0.7 -19.55 0.8 -19.75 1.0 -19.85 1.2 -19.75 1.3 -19.55 1.3 -19.3 1.3 -18.3 1.3 -16.55 1.3 -9.05 1.3 -6.8 M-10.35 -6.55 L-10.35 -6.5 -10.45 -6.3 Q-10.55 -6.2 -10.65 -6.2 -10.75 -6.2 -10.85 -6.3 L-10.9 -6.35 -10.95 -6.5 -10.95 -19.35 -10.95 -19.55 -10.95 -19.6 -10.85 -19.8 -10.65 -19.9 -10.45 -19.8 -10.35 -19.6 -10.35 -19.5 -10.35 -18.3 -10.35 -16.55 -10.35 -9.05 -10.35 -6.55" fill="#f2f2f2" fill-rule="evenodd" stroke="none"/>
    <path d="M-11.8 -6.8 L-11.85 -6.25 -12.25 -5.35 -12.5 -5.05 -13.8 -4.05 -14.2 -3.85 -15.35 -3.4 -15.4 -3.4 -15.8 -3.3 -18.35 -3.0 -20.7 -3.25 Q-21.95 -3.5 -22.95 -4.1 -24.6 -5.05 -24.85 -6.35 L-24.9 -6.8 -24.8 -7.0 -24.6 -7.1 -24.4 -7.0 -24.3 -6.8 Q-24.25 -5.5 -22.65 -4.6 -21.75 -4.1 -20.7 -3.85 L-18.35 -3.6 -15.8 -3.9 -15.4 -4.0 -14.45 -4.4 -14.05 -4.6 -14.1 -4.6 -12.75 -5.7 -12.5 -6.2 -12.4 -6.8 -12.3 -7.0 -12.1 -7.1 -11.8 -6.85 -11.8 -6.8" fill="#e6e6e6" fill-rule="evenodd" stroke="none"/>
    <path d="M-11.85 -6.25 L-11.8 -6.25 -11.8 -6.2 Q-11.8 -5.45 -12.25 -4.75 L-12.5 -4.45 -13.8 -3.45 -14.2 -3.25 -15.4 -2.8 -18.35 -2.4 -20.7 -2.65 Q-21.95 -2.9 -22.95 -3.5 -24.85 -4.6 -24.9 -6.2 L-24.85 -6.35 Q-24.6 -5.05 -22.95 -4.1 -21.95 -3.5 -20.7 -3.25 L-18.35 -3.0 -15.8 -3.3 -15.4 -3.4 -15.35 -3.4 -14.2 -3.85 -13.8 -4.05 -12.5 -5.05 -12.25 -5.35 -11.85 -6.25" fill="#a9acad" fill-rule="evenodd" stroke="none"/>
    <path d="M19.2 -18.3 L20.15 -17.5 20.95 -16.55 12.4 -16.55 12.4 -18.3 19.2 -18.3 M11.6 -18.3 L11.6 -16.55 1.3 -16.55 1.3 -18.3 11.6 -18.3 M0.4 -18.3 L0.4 -16.55 -10.35 -16.55 -10.35 -18.3 0.4 -18.3 M-11.3 -18.3 L-11.3 -16.55 -14.65 -16.55 -18.15 -18.3 -11.3 -18.3" fill="#f5f2f2" fill-rule="evenodd" stroke="none"/>
    <path d="M11.85 -19.4 L11.95 -19.35 12.0 -19.2 12.0 -18.45 12.0 -11.95 12.0 -6.5 12.0 -6.2 11.95 -6.05 11.8 -6.0 11.65 -6.05 11.6 -6.2 11.6 -6.8 11.6 -9.05 11.6 -16.55 11.6 -18.3 11.6 -19.2 11.65 -19.3 11.65 -19.35 11.8 -19.4 11.85 -19.4 M0.8 -6.35 L0.8 -6.2 0.75 -6.05 0.6 -6.0 0.45 -6.05 0.4 -6.2 0.4 -6.8 0.4 -9.05 0.4 -16.55 0.4 -18.3 0.4 -19.3 0.45 -19.45 0.6 -19.5 0.7 -19.45 0.7 -6.55 0.8 -6.35 M-10.9 -6.35 L-10.9 -6.2 -10.95 -6.05 -11.1 -6.0 -11.25 -6.05 -11.3 -6.2 -11.3 -6.6 -11.3 -9.05 -11.3 -16.55 -11.3 -18.3 -11.3 -19.2 -11.25 -19.35 -11.1 -19.4 -10.95 -19.35 -10.95 -6.5 -10.9 -6.35" fill="#9da0a1" fill-rule="evenodd" stroke="none"/>
    <path d="M-15.35 0.7 Q-16.85 1.7 -18.75 1.7 L-20.7 1.4 -20.7 -2.65 -18.35 -2.4 -15.4 -2.8 -15.35 0.7 M-20.7 -3.85 L-20.7 -11.25 Q-18.75 -9.9 -15.4 -9.05 L-13.7 -9.05 -15.45 -4.8 -15.4 -4.0 -15.8 -3.9 -18.35 -3.6 -20.7 -3.85" fill="#e0dddd" fill-rule="evenodd" stroke="none"/>
    <path d="M12.4 -18.45 L12.4 -19.3 15.75 -19.3 Q17.55 -19.3 18.95 -18.45 L19.2 -18.3 12.4 -18.3 12.4 -18.45 M20.95 -16.55 Q22.0 -15.0 22.0 -13.05 L21.9 -11.95 Q21.65 -10.3 20.55 -9.05 L12.4 -9.05 12.4 -11.95 12.4 -16.55 20.95 -16.55 M-23.2 -17.5 L-21.7 -18.6 -18.75 -19.3 -11.7 -19.3 -10.95 -19.55 -10.95 -19.35 -11.1 -19.4 -11.25 -19.35 -11.3 -19.2 -11.3 -18.3 -18.15 -18.3 -14.65 -16.55 -11.3 -16.55 -11.3 -9.05 -13.5 -9.05 -13.7 -9.05 -15.4 -9.05 Q-18.75 -9.9 -20.7 -11.25 -24.05 -13.65 -23.2 -17.5 M-10.35 -19.5 L-10.25 -19.3 -0.95 -19.3 -0.6 -19.55 -0.35 -19.6 -0.15 -19.5 -0.05 -19.3 0.4 -19.3 0.4 -18.3 -10.35 -18.3 -10.35 -19.5 M1.3 -19.3 L11.65 -19.3 11.6 -19.2 11.6 -18.3 1.3 -18.3 1.3 -19.3 M11.6 -16.55 L11.6 -9.05 1.3 -9.05 1.3 -16.55 11.6 -16.55 M0.4 -16.55 L0.4 -9.05 -10.35 -9.05 -10.35 -16.55 0.4 -16.55" fill="#e6e1e1" fill-rule="evenodd" stroke="none"/>
    <path d="M20.55 -9.05 L20.15 -8.65 Q18.35 -6.8 15.75 -6.8 L12.4 -6.8 12.4 -9.05 20.55 -9.05 M11.6 -6.8 L1.3 -6.8 1.3 -9.05 11.6 -9.05 11.6 -6.8 M0.4 -6.8 L-0.05 -6.8 -0.05 -6.75 -0.15 -6.55 -0.35 -6.5 -0.6 -6.55 -0.95 -6.8 -10.25 -6.8 -10.35 -6.55 -10.35 -9.05 0.4 -9.05 0.4 -6.8 M-11.3 -6.6 L-11.7 -6.8 -11.8 -6.85 -12.1 -7.1 -13.25 -8.5 -13.45 -8.9 -13.5 -9.05 -11.3 -9.05 -11.3 -6.6" fill="#e0d8d8" fill-rule="evenodd" stroke="none"/>
    <path d="M-12.5 -4.45 L-12.5 -4.2 Q-12.6 -1.85 -14.3 -0.15 L-15.35 0.7 -15.4 -2.8 -14.2 -3.25 -13.8 -3.45 -12.5 -4.45 M-20.7 1.4 Q-22.05 0.95 -23.15 -0.15 -24.9 -1.8 -25.0 -4.2 L-25.0 -4.55 -25.0 -13.05 -25.0 -13.3 -24.5 -15.55 Q-24.05 -16.6 -23.2 -17.5 -24.05 -13.65 -20.7 -11.25 L-20.7 -3.85 Q-21.75 -4.1 -22.65 -4.6 -24.25 -5.5 -24.3 -6.8 L-24.4 -7.0 -24.6 -7.1 -24.8 -7.0 -24.9 -6.8 -24.85 -6.35 -24.9 -6.2 Q-24.85 -4.6 -22.95 -3.5 -21.95 -2.9 -20.7 -2.65 L-20.7 1.4 M-13.5 -9.05 L-13.45 -8.9 -13.25 -8.5 -12.1 -7.1 -12.3 -7.0 -12.4 -6.8 -12.5 -6.8 -12.5 -6.2 -12.75 -5.7 -14.1 -4.6 -14.05 -4.6 -14.45 -4.4 -15.4 -4.0 -15.45 -4.8 -13.7 -9.05 -13.5 -9.05" fill="#bdb3b3" fill-rule="evenodd" stroke="none"/>
    <path d="M-36.55 -27.2 L-36.55 -24.95 -38.8 -24.95 -38.8 -27.2 -36.55 -27.2 M-36.55 -21.2 L-36.55 -18.95 -38.8 -18.95 -38.8 -21.2 -36.55 -21.2 M-36.55 -21.95 L-38.8 -21.95 -38.8 -24.2 -36.55 -24.2 -36.55 -21.95" fill="#666666" fill-rule="evenodd" stroke="none"/>
    <path d="M-31.7 -50.05 L-31.7 31.95 -36.6 31.95 -36.6 -50.05 -31.7 -50.05" fill="#55595c" fill-rule="evenodd" stroke="none"/>
    <path d="M-31.1 -53.05 L-31.1 28.95 -36.0 28.95 -36.0 -53.05 -31.1 -53.05" fill="url(#gradient0)" fill-rule="evenodd" stroke="none"/>
    <path d="M-31.85 -53.05 L-31.85 -48.3 -32.25 -48.3 -32.25 -53.05 -31.85 -53.05" fill="#999999" fill-rule="evenodd" stroke="none"/>
    <path d="M-31.85 -47.05 L-31.85 -42.3 -32.25 -42.3 -32.25 -47.05 -31.85 -47.05" fill="#999999" fill-rule="evenodd" stroke="none"/>
    <path d="M-31.85 -41.05 L-31.85 -36.3 -32.25 -36.3 -32.25 -41.05 -31.85 -41.05" fill="#999999" fill-rule="evenodd" stroke="none"/>
    <path d="M-31.85 -35.05 L-31.85 -30.3 -32.25 -30.3 -32.25 -35.05 -31.85 -35.05" fill="#999999" fill-rule="evenodd" stroke="none"/>
    <path d="M-31.85 -29.05 L-31.85 -24.3 -32.25 -24.3 -32.25 -29.05 -31.85 -29.05" fill="#999999" fill-rule="evenodd" stroke="none"/>
    <path d="M-31.85 -23.05 L-31.85 -18.3 -32.25 -18.3 -32.25 -23.05 -31.85 -23.05" fill="#999999" fill-rule="evenodd" stroke="none"/>
    <path d="M-31.85 -17.05 L-31.85 -12.3 -32.25 -12.3 -32.25 -17.05 -31.85 -17.05" fill="#999999" fill-rule="evenodd" stroke="none"/>
    <path d="M-31.85 -11.05 L-31.85 -6.3 -32.25 -6.3 -32.25 -11.05 -31.85 -11.05" fill="#999999" fill-rule="evenodd" stroke="none"/>
    <path d="M-31.85 -5.05 L-31.85 -0.3 -32.25 -0.3 -32.25 -5.05 -31.85 -5.05" fill="#999999" fill-rule="evenodd" stroke="none"/>
    <path d="M-31.85 0.95 L-31.85 5.7 -32.25 5.7 -32.25 0.95 -31.85 0.95" fill="#999999" fill-rule="evenodd" stroke="none"/>
    <path d="M-31.85 6.95 L-31.85 11.7 -32.25 11.7 -32.25 6.95 -31.85 6.95" fill="#999999" fill-rule="evenodd" stroke="none"/>
    <path d="M-31.85 12.95 L-31.85 17.7 -32.25 17.7 -32.25 12.95 -31.85 12.95" fill="#999999" fill-rule="evenodd" stroke="none"/>
    <path d="M-31.85 18.95 L-31.85 23.7 -32.25 23.7 -32.25 18.95 -31.85 18.95" fill="#999999" fill-rule="evenodd" stroke="none"/>
    <path d="M-31.85 24.95 L-31.85 29.7 -32.25 29.7 -32.25 24.95 -31.85 24.95" fill="#999999" fill-rule="evenodd" stroke="none"/>
    <path d="M-35.15 -53.05 L-35.15 -48.3 -35.55 -48.3 -35.55 -53.05 -35.15 -53.05" fill="#999999" fill-rule="evenodd" stroke="none"/>
    <path d="M-35.15 -47.05 L-35.15 -42.3 -35.55 -42.3 -35.55 -47.05 -35.15 -47.05" fill="#999999" fill-rule="evenodd" stroke="none"/>
    <path d="M-35.15 -41.05 L-35.15 -36.3 -35.55 -36.3 -35.55 -41.05 -35.15 -41.05" fill="#999999" fill-rule="evenodd" stroke="none"/>
    <path d="M-35.15 -35.05 L-35.15 -30.3 -35.55 -30.3 -35.55 -35.05 -35.15 -35.05" fill="#999999" fill-rule="evenodd" stroke="none"/>
    <path d="M-35.15 -29.05 L-35.15 -24.3 -35.55 -24.3 -35.55 -29.05 -35.15 -29.05" fill="#999999" fill-rule="evenodd" stroke="none"/>
    <path d="M-35.15 -23.05 L-35.15 -18.3 -35.55 -18.3 -35.55 -23.05 -35.15 -23.05" fill="#999999" fill-rule="evenodd" stroke="none"/>
    <path d="M-35.15 -17.05 L-35.15 -12.3 -35.55 -12.3 -35.55 -17.05 -35.15 -17.05" fill="#999999" fill-rule="evenodd" stroke="none"/>
    <path d="M-35.15 -11.05 L-35.15 -6.3 -35.55 -6.3 -35.55 -11.05 -35.15 -11.05" fill="#999999" fill-rule="evenodd" stroke="none"/>
    <path d="M-35.15 -5.05 L-35.15 -0.3 -35.55 -0.3 -35.55 -5.05 -35.15 -5.05" fill="#999999" fill-rule="evenodd" stroke="none"/>
    <path d="M-35.15 0.95 L-35.15 5.7 -35.55 5.7 -35.55 0.95 -35.15 0.95" fill="#999999" fill-rule="evenodd" stroke="none"/>
    <path d="M-35.15 6.95 L-35.15 11.7 -35.55 11.7 -35.55 6.95 -35.15 6.95" fill="#999999" fill-rule="evenodd" stroke="none"/>
    <path d="M-35.15 12.95 L-35.15 17.7 -35.55 17.7 -35.55 12.95 -35.15 12.95" fill="#999999" fill-rule="evenodd" stroke="none"/>
    <path d="M-35.15 18.95 L-35.15 23.7 -35.55 23.7 -35.55 18.95 -35.15 18.95" fill="#999999" fill-rule="evenodd" stroke="none"/>
    <path d="M-35.15 24.95 L-35.15 29.7 -35.55 29.7 -35.55 24.95 -35.15 24.95" fill="#999999" fill-rule="evenodd" stroke="none"/>
    <path d="M30.85 -24.85 L-51.15 -24.9 -51.1 -29.8 30.9 -29.75 30.85 -24.85" fill="#55595c" fill-rule="evenodd" stroke="none"/>
    <path d="M-16.5 -29.15 L33.85 -29.15 33.85 -24.25 -18.6 -24.25 -16.5 -29.15 M-32.8 -24.25 L-48.15 -24.3 -48.15 -29.2 -31.1 -29.15 -32.8 -24.25" fill="url(#gradient1)" fill-rule="evenodd" stroke="none"/>
    <path d="M-18.6 -24.25 L-32.8 -24.25 -31.1 -29.15 -16.5 -29.15 -18.6 -24.25" fill="#999999" fill-rule="evenodd" stroke="none"/>
    <path d="M33.9 -25.0 L29.15 -25.0 29.15 -25.4 33.9 -25.4 33.9 -25.0" fill="#999999" fill-rule="evenodd" stroke="none"/>
    <path d="M27.9 -25.05 L23.15 -25.05 23.15 -25.45 27.9 -25.45 27.9 -25.05" fill="#999999" fill-rule="evenodd" stroke="none"/>
    <path d="M21.9 -25.05 L17.15 -25.05 17.15 -25.45 21.9 -25.45 21.9 -25.05" fill="#999999" fill-rule="evenodd" stroke="none"/>
    <path d="M15.9 -25.05 L11.15 -25.05 11.15 -25.45 15.9 -25.45 15.9 -25.05" fill="#999999" fill-rule="evenodd" stroke="none"/>
    <path d="M9.9 -25.05 L5.15 -25.05 5.15 -25.45 9.9 -25.45 9.9 -25.05" fill="#999999" fill-rule="evenodd" stroke="none"/>
    <path d="M3.9 -25.05 L-0.85 -25.05 -0.85 -25.45 3.9 -25.45 3.9 -25.05" fill="#999999" fill-rule="evenodd" stroke="none"/>
    <path d="M-2.1 -25.05 L-6.85 -25.05 -6.85 -25.45 -2.1 -25.45 -2.1 -25.05" fill="#999999" fill-rule="evenodd" stroke="none"/>
    <path d="M-8.1 -25.05 L-12.85 -25.05 -12.85 -25.45 -8.1 -25.45 -8.1 -25.05" fill="#999999" fill-rule="evenodd" stroke="none"/>
    <path d="M-14.1 -25.05 L-18.85 -25.05 -18.85 -25.45 -14.1 -25.45 -14.1 -25.05" fill="#999999" fill-rule="evenodd" stroke="none"/>
    <path d="M-20.1 -25.05 L-24.85 -25.05 -24.85 -25.45 -20.1 -25.45 -20.1 -25.05" fill="#999999" fill-rule="evenodd" stroke="none"/>
    <path d="M-26.1 -25.05 L-30.85 -25.05 -30.85 -25.45 -26.1 -25.45 -26.1 -25.05" fill="#999999" fill-rule="evenodd" stroke="none"/>
    <path d="M-32.1 -25.1 L-36.85 -25.1 -36.85 -25.5 -32.1 -25.5 -32.1 -25.1" fill="#999999" fill-rule="evenodd" stroke="none"/>
    <path d="M-38.1 -25.1 L-42.85 -25.1 -42.85 -25.5 -38.1 -25.5 -38.1 -25.1" fill="#999999" fill-rule="evenodd" stroke="none"/>
    <path d="M-44.1 -25.1 L-48.85 -25.1 -48.85 -25.5 -44.1 -25.5 -44.1 -25.1" fill="#999999" fill-rule="evenodd" stroke="none"/>
    <path d="M33.9 -28.3 L29.15 -28.3 29.15 -28.7 33.9 -28.7 33.9 -28.3" fill="#999999" fill-rule="evenodd" stroke="none"/>
    <path d="M27.9 -28.35 L23.15 -28.35 23.15 -28.75 27.9 -28.75 27.9 -28.35" fill="#999999" fill-rule="evenodd" stroke="none"/>
    <path d="M21.9 -28.35 L17.15 -28.35 17.15 -28.75 21.9 -28.75 21.9 -28.35" fill="#999999" fill-rule="evenodd" stroke="none"/>
    <path d="M15.9 -28.35 L11.15 -28.35 11.15 -28.75 15.9 -28.75 15.9 -28.35" fill="#999999" fill-rule="evenodd" stroke="none"/>
    <path d="M9.9 -28.35 L5.15 -28.35 5.15 -28.75 9.9 -28.75 9.9 -28.35" fill="#999999" fill-rule="evenodd" stroke="none"/>
    <path d="M3.9 -28.35 L-0.85 -28.35 -0.85 -28.75 3.9 -28.75 3.9 -28.35" fill="#999999" fill-rule="evenodd" stroke="none"/>
    <path d="M-2.1 -28.35 L-6.85 -28.35 -6.85 -28.75 -2.1 -28.75 -2.1 -28.35" fill="#999999" fill-rule="evenodd" stroke="none"/>
    <path d="M-8.1 -28.35 L-12.85 -28.35 -12.85 -28.75 -8.1 -28.75 -8.1 -28.35" fill="#999999" fill-rule="evenodd" stroke="none"/>
    <path d="M-14.1 -28.35 L-18.85 -28.35 -18.85 -28.75 -14.1 -28.75 -14.1 -28.35" fill="#999999" fill-rule="evenodd" stroke="none"/>
    <path d="M-20.1 -28.35 L-24.85 -28.35 -24.85 -28.75 -20.1 -28.75 -20.1 -28.35" fill="#999999" fill-rule="evenodd" stroke="none"/>
    <path d="M-26.1 -28.35 L-30.85 -28.35 -30.85 -28.75 -26.1 -28.75 -26.1 -28.35" fill="#999999" fill-rule="evenodd" stroke="none"/>
    <path d="M-32.1 -28.4 L-36.85 -28.4 -36.85 -28.8 -32.1 -28.8 -32.1 -28.4" fill="#999999" fill-rule="evenodd" stroke="none"/>
    <path d="M-38.1 -28.4 L-42.85 -28.4 -42.85 -28.8 -38.1 -28.8 -38.1 -28.4" fill="#999999" fill-rule="evenodd" stroke="none"/>
    <path d="M-44.1 -28.4 L-48.85 -28.4 -48.85 -28.8 -44.1 -28.8 -44.1 -28.4" fill="#999999" fill-rule="evenodd" stroke="none"/>
    <path d="M45.0 -12.55 L-10.0 -12.55 -10.0 -51.55 45.0 -51.55 45.0 -12.55" fill="#55595c" fill-rule="evenodd" stroke="none"/>
    <path d="M46.0 -14.05 L-9.0 -14.05 -9.0 -53.05 46.0 -53.05 46.0 -14.05" fill="url(#gradient2)" fill-rule="evenodd" stroke="none"/>
    <path d="M44.45 -14.7 L39.7 -14.7 39.7 -15.4 44.45 -15.4 44.45 -14.7" fill="#999999" fill-rule="evenodd" stroke="none"/>
    <path d="M38.45 -14.7 L33.7 -14.7 33.7 -15.4 38.45 -15.4 38.45 -14.7" fill="#999999" fill-rule="evenodd" stroke="none"/>
    <path d="M32.45 -14.7 L27.7 -14.7 27.7 -15.4 32.45 -15.4 32.45 -14.7" fill="#999999" fill-rule="evenodd" stroke="none"/>
    <path d="M26.45 -14.7 L21.7 -14.7 21.7 -15.4 26.45 -15.4 26.45 -14.7" fill="#999999" fill-rule="evenodd" stroke="none"/>
    <path d="M20.45 -14.7 L15.7 -14.7 15.7 -15.4 20.45 -15.4 20.45 -14.7" fill="#999999" fill-rule="evenodd" stroke="none"/>
    <path d="M14.45 -14.7 L9.7 -14.7 9.7 -15.4 14.45 -15.4 14.45 -14.7" fill="#999999" fill-rule="evenodd" stroke="none"/>
    <path d="M8.45 -14.7 L3.7 -14.7 3.7 -15.4 8.45 -15.4 8.45 -14.7" fill="#999999" fill-rule="evenodd" stroke="none"/>
    <path d="M2.45 -14.7 L-2.3 -14.7 -2.3 -15.4 2.45 -15.4 2.45 -14.7" fill="#999999" fill-rule="evenodd" stroke="none"/>
    <path d="M-3.55 -14.7 L-8.3 -14.7 -8.3 -15.4 -3.55 -15.4 -3.55 -14.7" fill="#999999" fill-rule="evenodd" stroke="none"/>
    <path d="M44.45 -50.95 L39.7 -50.95 39.7 -51.65 44.45 -51.65 44.45 -50.95" fill="#999999" fill-rule="evenodd" stroke="none"/>
    <path d="M38.45 -50.95 L33.7 -50.95 33.7 -51.65 38.45 -51.65 38.45 -50.95" fill="#999999" fill-rule="evenodd" stroke="none"/>
    <path d="M32.45 -50.95 L27.7 -50.95 27.7 -51.65 32.45 -51.65 32.45 -50.95" fill="#999999" fill-rule="evenodd" stroke="none"/>
    <path d="M26.45 -50.95 L21.7 -50.95 21.7 -51.65 26.45 -51.65 26.45 -50.95" fill="#999999" fill-rule="evenodd" stroke="none"/>
    <path d="M20.45 -50.95 L15.7 -50.95 15.7 -51.65 20.45 -51.65 20.45 -50.95" fill="#999999" fill-rule="evenodd" stroke="none"/>
    <path d="M14.45 -50.95 L9.7 -50.95 9.7 -51.65 14.45 -51.65 14.45 -50.95" fill="#999999" fill-rule="evenodd" stroke="none"/>
    <path d="M8.45 -50.95 L3.7 -50.95 3.7 -51.65 8.45 -51.65 8.45 -50.95" fill="#999999" fill-rule="evenodd" stroke="none"/>
    <path d="M2.45 -50.95 L-2.3 -50.95 -2.3 -51.65 2.45 -51.65 2.45 -50.95" fill="#999999" fill-rule="evenodd" stroke="none"/>
    <path d="M-3.55 -50.95 L-8.3 -50.95 -8.3 -51.65 -3.55 -51.65 -3.55 -50.95" fill="#999999" fill-rule="evenodd" stroke="none"/>
    <path d="M50.75 -44.45 Q50.75 -43.5 50.1 -42.9 49.4 -42.25 48.45 -42.25 L29.75 -42.25 Q28.8 -42.25 28.1 -42.9 27.45 -43.5 27.45 -44.45 27.45 -45.4 28.1 -46.0 28.8 -46.65 29.75 -46.65 L48.45 -46.65 Q49.4 -46.65 50.1 -46.0 50.75 -45.4 50.75 -44.45" fill="#55595c" fill-rule="evenodd" stroke="none"/>
    <path d="M45.65 -43.6 L45.75 -43.6 45.75 -43.65 45.65 -43.6" fill="#c0d0e0" fill-rule="evenodd" stroke="none"/>
    <path d="M32.2 -50.05 L32.2 -49.05 32.2 -46.5 32.4 -46.5 32.4 -50.15 32.2 -50.15 32.2 -50.05" fill="#ffffff" fill-rule="evenodd" stroke="none"/>
    <path d="M27.6 -44.85 L27.85 -44.65 Q28.85 -43.6 30.3 -43.6 L32.2 -43.6 32.2 -44.85 27.6 -44.85 M32.65 -43.6 L38.4 -43.6 38.4 -44.85 32.65 -44.85 32.65 -43.6 M38.9 -43.6 L39.15 -43.6 39.2 -43.45 39.3 -43.45 39.45 -43.45 39.65 -43.6 44.85 -43.6 44.9 -43.45 44.9 -44.85 38.9 -44.85 38.9 -43.6 M45.45 -43.5 L45.65 -43.6 45.75 -43.65 45.9 -43.8 46.55 -44.55 46.65 -44.8 46.7 -44.85 45.45 -44.85 45.45 -43.5 M47.7 -39.4 Q48.55 -38.85 49.6 -38.85 L50.7 -39.0 50.7 -41.3 49.4 -41.15 47.75 -41.35 47.7 -39.4 M50.7 -41.95 L50.7 -46.1 Q49.6 -45.35 47.75 -44.85 L46.8 -44.85 47.75 -42.5 47.75 -42.05 47.95 -42.0 49.4 -41.8 50.7 -41.95" fill="#dddfe0" fill-rule="evenodd" stroke="none"/>
    <path d="M46.1 -42.3 L46.1 -42.15 Q46.2 -40.85 47.15 -39.9 L47.7 -39.4 47.75 -41.35 47.05 -41.65 46.85 -41.75 46.1 -42.3 M50.7 -39.0 L52.1 -39.9 Q53.05 -40.8 53.1 -42.15 L53.1 -42.35 53.1 -47.1 53.1 -47.25 52.85 -48.5 52.1 -49.6 Q52.6 -47.45 50.7 -46.1 L50.7 -41.95 51.8 -42.4 Q52.7 -42.9 52.75 -43.6 L52.8 -43.7 52.9 -43.8 53.0 -43.7 53.05 -43.6 53.05 -43.35 53.05 -43.3 Q53.05 -42.4 51.95 -41.75 L50.7 -41.3 50.7 -39.0 M45.9 -43.8 L46.0 -43.7 46.05 -43.6 46.1 -43.6 46.1 -43.3 46.25 -43.0 47.0 -42.4 47.2 -42.25 47.75 -42.05 47.75 -42.5 46.8 -44.85 46.7 -44.85 46.65 -44.8 46.55 -44.55 45.9 -43.8" fill="#babcbd" fill-rule="evenodd" stroke="none"/>
    <path d="M32.2 -43.6 L32.25 -43.5 32.35 -43.45 32.4 -43.45 32.4 -46.5 32.2 -46.5 32.2 -44.85 32.2 -43.6 M38.4 -43.6 L38.4 -43.45 38.45 -43.35 38.55 -43.3 38.65 -43.35 38.75 -43.45 38.75 -50.7 38.75 -50.75 38.65 -50.85 38.55 -50.9 38.45 -50.85 38.4 -50.75 38.4 -50.6 38.4 -50.05 38.4 -49.05 38.4 -44.85 38.4 -43.6 M44.9 -43.45 L44.95 -43.35 45.1 -43.3 45.2 -43.35 45.25 -43.45 45.25 -50.65 45.25 -50.75 45.25 -50.8 45.2 -50.9 45.1 -50.95 44.95 -50.9 44.9 -50.8 44.9 -50.7 44.9 -50.05 44.9 -49.05 44.9 -44.85 44.9 -43.45 M32.5 -50.65 L32.45 -50.7 32.35 -50.8 32.25 -50.7 32.2 -50.6 32.2 -50.15 32.4 -50.15 32.4 -50.55 32.45 -50.65 32.5 -50.65" fill="#f2f2f2" fill-rule="evenodd" stroke="none"/>
    <path d="M28.35 -50.05 L32.2 -50.05 32.2 -50.15 32.2 -50.6 30.3 -50.6 28.5 -50.15 28.35 -50.05 M32.2 -49.05 L27.4 -49.05 Q26.8 -48.2 26.8 -47.1 L26.85 -46.5 Q27.0 -45.55 27.6 -44.85 L32.2 -44.85 32.2 -46.5 32.2 -49.05 M45.75 -43.6 L45.75 -43.3 46.0 -42.8 46.1 -42.65 46.85 -42.05 47.05 -41.95 47.7 -41.7 47.75 -41.7 47.95 -41.65 49.4 -41.5 50.7 -41.65 51.95 -42.1 Q52.9 -42.65 53.05 -43.35 L53.05 -43.6 53.0 -43.7 52.9 -43.8 52.8 -43.7 52.75 -43.6 Q52.7 -42.9 51.8 -42.4 L50.7 -41.95 49.4 -41.8 47.95 -42.0 47.75 -42.05 47.2 -42.25 47.0 -42.4 46.25 -43.0 46.1 -43.3 46.05 -43.6 46.0 -43.7 45.9 -43.8 45.75 -43.65 45.75 -43.6 M52.1 -49.6 L51.25 -50.2 49.6 -50.6 45.65 -50.6 45.25 -50.75 45.25 -50.65 45.35 -50.65 45.4 -50.65 45.45 -50.55 45.45 -50.05 49.3 -50.05 47.3 -49.05 45.45 -49.05 45.45 -44.85 46.7 -44.85 46.8 -44.85 47.75 -44.85 Q49.6 -45.35 50.7 -46.1 52.6 -47.45 52.1 -49.6 M44.9 -50.7 L44.85 -50.6 39.65 -50.6 39.45 -50.75 39.3 -50.8 39.2 -50.7 39.15 -50.6 38.9 -50.6 38.9 -50.05 44.9 -50.05 44.9 -50.7 M38.4 -50.6 L32.6 -50.6 32.65 -50.55 32.65 -50.05 38.4 -50.05 38.4 -50.6 M38.9 -49.05 L38.9 -44.85 44.9 -44.85 44.9 -49.05 38.9 -49.05 M32.65 -49.05 L32.65 -44.85 38.4 -44.85 38.4 -49.05 32.65 -49.05" fill="#e6e6e6" fill-rule="evenodd" stroke="none"/>
    <path d="M45.75 -43.3 L46.0 -42.45 46.1 -42.3 46.85 -41.75 47.05 -41.65 47.75 -41.35 49.4 -41.15 50.7 -41.3 51.95 -41.75 Q53.05 -42.4 53.05 -43.3 L53.05 -43.35 Q52.9 -42.65 51.95 -42.1 L50.7 -41.65 49.4 -41.5 47.95 -41.65 47.75 -41.7 47.7 -41.7 47.05 -41.95 46.85 -42.05 46.1 -42.65 46.0 -42.8 45.75 -43.3" fill="#a9acad" fill-rule="evenodd" stroke="none"/>
    <path d="M28.35 -50.05 L27.85 -49.6 27.4 -49.05 32.2 -49.05 32.2 -50.05 28.35 -50.05 M38.9 -50.05 L38.9 -49.05 44.9 -49.05 44.9 -50.05 38.9 -50.05 M38.4 -49.05 L38.4 -50.05 32.65 -50.05 32.65 -49.05 38.4 -49.05 M45.45 -49.05 L47.3 -49.05 49.3 -50.05 45.45 -50.05 45.45 -49.05" fill="#f5f2f2" fill-rule="evenodd" stroke="none"/>
    <path d="M32.4 -43.45 L32.4 -43.3 32.45 -43.2 32.5 -43.15 32.6 -43.2 32.65 -43.3 32.65 -43.6 32.65 -44.85 32.65 -49.05 32.65 -50.05 32.65 -50.55 32.6 -50.6 32.6 -50.65 32.5 -50.65 32.45 -50.65 32.4 -50.55 32.4 -50.15 32.4 -46.5 32.4 -43.45 M38.65 -43.35 L38.65 -43.3 38.7 -43.2 38.8 -43.15 38.85 -43.2 38.9 -43.3 38.9 -43.6 38.9 -44.85 38.9 -49.05 38.9 -50.05 38.9 -50.6 38.85 -50.7 38.8 -50.7 38.75 -50.7 38.75 -43.45 38.65 -43.35 M45.2 -43.35 L45.2 -43.3 45.25 -43.2 45.35 -43.15 45.4 -43.2 45.45 -43.3 45.45 -43.5 45.45 -44.85 45.45 -49.05 45.45 -50.05 45.45 -50.55 45.4 -50.65 45.35 -50.65 45.25 -50.65 45.25 -43.45 45.2 -43.35" fill="#9da0a1" fill-rule="evenodd" stroke="none"/>
    <path d="M50.75 -35.45 Q50.75 -34.5 50.1 -33.9 49.4 -33.25 48.45 -33.25 L29.75 -33.25 Q28.8 -33.25 28.1 -33.9 27.45 -34.5 27.45 -35.45 27.45 -36.4 28.1 -37.0 28.8 -37.65 29.75 -37.65 L48.45 -37.65 Q49.4 -37.65 50.1 -37.0 50.75 -36.4 50.75 -35.45" fill="#55595c" fill-rule="evenodd" stroke="none"/>
    <path d="M45.65 -34.6 L45.75 -34.6 45.75 -34.65 45.65 -34.6" fill="#c0d0e0" fill-rule="evenodd" stroke="none"/>
    <path d="M32.2 -41.05 L32.2 -40.05 32.2 -37.5 32.4 -37.5 32.4 -41.15 32.2 -41.15 32.2 -41.05" fill="#ffffff" fill-rule="evenodd" stroke="none"/>
    <path d="M27.6 -35.85 L27.85 -35.65 Q28.85 -34.6 30.3 -34.6 L32.2 -34.6 32.2 -35.85 27.6 -35.85 M32.65 -34.6 L38.4 -34.6 38.4 -35.85 32.65 -35.85 32.65 -34.6 M38.9 -34.6 L39.15 -34.6 39.2 -34.45 39.3 -34.45 39.45 -34.45 39.65 -34.6 44.85 -34.6 44.9 -34.45 44.9 -35.85 38.9 -35.85 38.9 -34.6 M45.45 -34.5 L45.65 -34.6 45.75 -34.65 45.9 -34.8 46.55 -35.55 46.65 -35.8 46.7 -35.85 45.45 -35.85 45.45 -34.5 M47.7 -30.4 Q48.55 -29.85 49.6 -29.85 L50.7 -30.0 50.7 -32.3 49.4 -32.15 47.75 -32.35 47.7 -30.4 M50.7 -32.95 L50.7 -37.1 Q49.6 -36.35 47.75 -35.85 L46.8 -35.85 47.75 -33.5 47.75 -33.05 47.95 -33.0 49.4 -32.8 50.7 -32.95" fill="#dddfe0" fill-rule="evenodd" stroke="none"/>
    <path d="M46.1 -33.3 L46.1 -33.15 Q46.2 -31.85 47.15 -30.9 L47.7 -30.4 47.75 -32.35 47.05 -32.65 46.85 -32.75 46.1 -33.3 M50.7 -30.0 L52.1 -30.9 Q53.05 -31.8 53.1 -33.15 L53.1 -33.35 53.1 -38.1 53.1 -38.25 52.85 -39.5 52.1 -40.6 Q52.6 -38.45 50.7 -37.1 L50.7 -32.95 51.8 -33.4 Q52.7 -33.9 52.75 -34.6 L52.8 -34.7 52.9 -34.8 53.0 -34.7 53.05 -34.6 53.05 -34.35 53.05 -34.3 Q53.05 -33.4 51.95 -32.75 L50.7 -32.3 50.7 -30.0 M45.9 -34.8 L46.0 -34.7 46.05 -34.6 46.1 -34.6 46.1 -34.3 46.25 -34.0 47.0 -33.4 47.2 -33.25 47.75 -33.05 47.75 -33.5 46.8 -35.85 46.7 -35.85 46.65 -35.8 46.55 -35.55 45.9 -34.8" fill="#babcbd" fill-rule="evenodd" stroke="none"/>
    <path d="M32.2 -34.6 L32.25 -34.5 32.35 -34.45 32.4 -34.45 32.4 -37.5 32.2 -37.5 32.2 -35.85 32.2 -34.6 M38.4 -34.6 L38.4 -34.45 38.45 -34.35 38.55 -34.3 38.65 -34.35 38.75 -34.45 38.75 -41.7 38.75 -41.75 38.65 -41.85 38.55 -41.9 38.45 -41.85 38.4 -41.75 38.4 -41.6 38.4 -41.05 38.4 -40.05 38.4 -35.85 38.4 -34.6 M44.9 -34.45 L44.95 -34.35 45.1 -34.3 45.2 -34.35 45.25 -34.45 45.25 -41.65 45.25 -41.75 45.25 -41.8 45.2 -41.9 45.1 -41.95 44.95 -41.9 44.9 -41.8 44.9 -41.7 44.9 -41.05 44.9 -40.05 44.9 -35.85 44.9 -34.45 M32.5 -41.65 L32.45 -41.7 32.35 -41.8 32.25 -41.7 32.2 -41.6 32.2 -41.15 32.4 -41.15 32.4 -41.55 32.45 -41.65 32.5 -41.65" fill="#f2f2f2" fill-rule="evenodd" stroke="none"/>
    <path d="M28.35 -41.05 L32.2 -41.05 32.2 -41.15 32.2 -41.6 30.3 -41.6 28.5 -41.15 28.35 -41.05 M32.2 -40.05 L27.4 -40.05 Q26.8 -39.2 26.8 -38.1 L26.85 -37.5 Q27.0 -36.55 27.6 -35.85 L32.2 -35.85 32.2 -37.5 32.2 -40.05 M45.75 -34.6 L45.75 -34.3 46.0 -33.8 46.1 -33.65 46.85 -33.05 47.05 -32.95 47.7 -32.7 47.75 -32.7 47.95 -32.65 49.4 -32.5 50.7 -32.65 51.95 -33.1 Q52.9 -33.65 53.05 -34.35 L53.05 -34.6 53.0 -34.7 52.9 -34.8 52.8 -34.7 52.75 -34.6 Q52.7 -33.9 51.8 -33.4 L50.7 -32.95 49.4 -32.8 47.95 -33.0 47.75 -33.05 47.2 -33.25 47.0 -33.4 46.25 -34.0 46.1 -34.3 46.05 -34.6 46.0 -34.7 45.9 -34.8 45.75 -34.65 45.75 -34.6 M52.1 -40.6 L51.25 -41.2 49.6 -41.6 45.65 -41.6 45.25 -41.75 45.25 -41.65 45.35 -41.65 45.4 -41.65 45.45 -41.55 45.45 -41.05 49.3 -41.05 47.3 -40.05 45.45 -40.05 45.45 -35.85 46.7 -35.85 46.8 -35.85 47.75 -35.85 Q49.6 -36.35 50.7 -37.1 52.6 -38.45 52.1 -40.6 M44.9 -41.7 L44.85 -41.6 39.65 -41.6 39.45 -41.75 39.3 -41.8 39.2 -41.7 39.15 -41.6 38.9 -41.6 38.9 -41.05 44.9 -41.05 44.9 -41.7 M38.4 -41.6 L32.6 -41.6 32.65 -41.55 32.65 -41.05 38.4 -41.05 38.4 -41.6 M38.9 -40.05 L38.9 -35.85 44.9 -35.85 44.9 -40.05 38.9 -40.05 M32.65 -40.05 L32.65 -35.85 38.4 -35.85 38.4 -40.05 32.65 -40.05" fill="#e6e6e6" fill-rule="evenodd" stroke="none"/>
    <path d="M45.75 -34.3 L46.0 -33.45 46.1 -33.3 46.85 -32.75 47.05 -32.65 47.75 -32.35 49.4 -32.15 50.7 -32.3 51.95 -32.75 Q53.05 -33.4 53.05 -34.3 L53.05 -34.35 Q52.9 -33.65 51.95 -33.1 L50.7 -32.65 49.4 -32.5 47.95 -32.65 47.75 -32.7 47.7 -32.7 47.05 -32.95 46.85 -33.05 46.1 -33.65 46.0 -33.8 45.75 -34.3" fill="#a9acad" fill-rule="evenodd" stroke="none"/>
    <path d="M28.35 -41.05 L27.85 -40.6 27.4 -40.05 32.2 -40.05 32.2 -41.05 28.35 -41.05 M38.9 -41.05 L38.9 -40.05 44.9 -40.05 44.9 -41.05 38.9 -41.05 M38.4 -40.05 L38.4 -41.05 32.65 -41.05 32.65 -40.05 38.4 -40.05 M45.45 -40.05 L47.3 -40.05 49.3 -41.05 45.45 -41.05 45.45 -40.05" fill="#f5f2f2" fill-rule="evenodd" stroke="none"/>
    <path d="M32.4 -34.45 L32.4 -34.3 32.45 -34.2 32.5 -34.15 32.6 -34.2 32.65 -34.3 32.65 -34.6 32.65 -35.85 32.65 -40.05 32.65 -41.05 32.65 -41.55 32.6 -41.6 32.6 -41.65 32.5 -41.65 32.45 -41.65 32.4 -41.55 32.4 -41.15 32.4 -37.5 32.4 -34.45 M38.65 -34.35 L38.65 -34.3 38.7 -34.2 38.8 -34.15 38.85 -34.2 38.9 -34.3 38.9 -34.6 38.9 -35.85 38.9 -40.05 38.9 -41.05 38.9 -41.6 38.85 -41.7 38.8 -41.7 38.75 -41.7 38.75 -34.45 38.65 -34.35 M45.2 -34.35 L45.2 -34.3 45.25 -34.2 45.35 -34.15 45.4 -34.2 45.45 -34.3 45.45 -34.5 45.45 -35.85 45.45 -40.05 45.45 -41.05 45.45 -41.55 45.4 -41.65 45.35 -41.65 45.25 -41.65 45.25 -34.45 45.2 -34.35" fill="#9da0a1" fill-rule="evenodd" stroke="none"/>
    <path d="M50.75 -26.45 Q50.75 -25.5 50.1 -24.9 49.4 -24.25 48.45 -24.25 L29.75 -24.25 Q28.8 -24.25 28.1 -24.9 27.45 -25.5 27.45 -26.45 27.45 -27.4 28.1 -28.0 28.8 -28.65 29.75 -28.65 L48.45 -28.65 Q49.4 -28.65 50.1 -28.0 50.75 -27.4 50.75 -26.45" fill="#55595c" fill-rule="evenodd" stroke="none"/>
    <path d="M45.65 -25.6 L45.75 -25.6 45.75 -25.65 45.65 -25.6" fill="#c0d0e0" fill-rule="evenodd" stroke="none"/>
    <path d="M32.2 -32.05 L32.2 -31.05 32.2 -28.5 32.4 -28.5 32.4 -32.15 32.2 -32.15 32.2 -32.05" fill="#ffffff" fill-rule="evenodd" stroke="none"/>
    <path d="M27.6 -26.85 L27.85 -26.65 Q28.85 -25.6 30.3 -25.6 L32.2 -25.6 32.2 -26.85 27.6 -26.85 M32.65 -25.6 L38.4 -25.6 38.4 -26.85 32.65 -26.85 32.65 -25.6 M38.9 -25.6 L39.15 -25.6 39.2 -25.45 39.3 -25.45 39.45 -25.45 39.65 -25.6 44.85 -25.6 44.9 -25.45 44.9 -26.85 38.9 -26.85 38.9 -25.6 M45.45 -25.5 L45.65 -25.6 45.75 -25.65 45.9 -25.8 46.55 -26.55 46.65 -26.8 46.7 -26.85 45.45 -26.85 45.45 -25.5 M47.7 -21.4 Q48.55 -20.85 49.6 -20.85 L50.7 -21.0 50.7 -23.3 49.4 -23.15 47.75 -23.35 47.7 -21.4 M50.7 -23.95 L50.7 -28.1 Q49.6 -27.35 47.75 -26.85 L46.8 -26.85 47.75 -24.5 47.75 -24.05 47.95 -24.0 49.4 -23.8 50.7 -23.95" fill="#dddfe0" fill-rule="evenodd" stroke="none"/>
    <path d="M46.1 -24.3 L46.1 -24.15 Q46.2 -22.85 47.15 -21.9 L47.7 -21.4 47.75 -23.35 47.05 -23.65 46.85 -23.75 46.1 -24.3 M50.7 -21.0 L52.1 -21.9 Q53.05 -22.8 53.1 -24.15 L53.1 -24.35 53.1 -29.1 53.1 -29.25 52.85 -30.5 52.1 -31.6 Q52.6 -29.45 50.7 -28.1 L50.7 -23.95 51.8 -24.4 Q52.7 -24.9 52.75 -25.6 L52.8 -25.7 52.9 -25.8 53.0 -25.7 53.05 -25.6 53.05 -25.35 53.05 -25.3 Q53.05 -24.4 51.95 -23.75 L50.7 -23.3 50.7 -21.0 M45.9 -25.8 L46.0 -25.7 46.05 -25.6 46.1 -25.6 46.1 -25.3 46.25 -25.0 47.0 -24.4 47.2 -24.25 47.75 -24.05 47.75 -24.5 46.8 -26.85 46.7 -26.85 46.65 -26.8 46.55 -26.55 45.9 -25.8" fill="#babcbd" fill-rule="evenodd" stroke="none"/>
    <path d="M32.2 -25.6 L32.25 -25.5 32.35 -25.45 32.4 -25.45 32.4 -28.5 32.2 -28.5 32.2 -26.85 32.2 -25.6 M38.4 -25.6 L38.4 -25.45 38.45 -25.35 38.55 -25.3 38.65 -25.35 38.75 -25.45 38.75 -32.7 38.75 -32.75 38.65 -32.85 38.55 -32.9 38.45 -32.85 38.4 -32.75 38.4 -32.6 38.4 -32.05 38.4 -31.05 38.4 -26.85 38.4 -25.6 M44.9 -25.45 L44.95 -25.35 45.1 -25.3 45.2 -25.35 45.25 -25.45 45.25 -32.65 45.25 -32.75 45.25 -32.8 45.2 -32.9 45.1 -32.95 44.95 -32.9 44.9 -32.8 44.9 -32.7 44.9 -32.05 44.9 -31.05 44.9 -26.85 44.9 -25.45 M32.5 -32.65 L32.45 -32.7 32.35 -32.8 32.25 -32.7 32.2 -32.6 32.2 -32.15 32.4 -32.15 32.4 -32.55 32.45 -32.65 32.5 -32.65" fill="#f2f2f2" fill-rule="evenodd" stroke="none"/>
    <path d="M28.35 -32.05 L32.2 -32.05 32.2 -32.15 32.2 -32.6 30.3 -32.6 28.5 -32.15 28.35 -32.05 M32.2 -31.05 L27.4 -31.05 Q26.8 -30.2 26.8 -29.1 L26.85 -28.5 Q27.0 -27.55 27.6 -26.85 L32.2 -26.85 32.2 -28.5 32.2 -31.05 M45.75 -25.6 L45.75 -25.3 46.0 -24.8 46.1 -24.65 46.85 -24.05 47.05 -23.95 47.7 -23.7 47.75 -23.7 47.95 -23.65 49.4 -23.5 50.7 -23.65 51.95 -24.1 Q52.9 -24.65 53.05 -25.35 L53.05 -25.6 53.0 -25.7 52.9 -25.8 52.8 -25.7 52.75 -25.6 Q52.7 -24.9 51.8 -24.4 L50.7 -23.95 49.4 -23.8 47.95 -24.0 47.75 -24.05 47.2 -24.25 47.0 -24.4 46.25 -25.0 46.1 -25.3 46.05 -25.6 46.0 -25.7 45.9 -25.8 45.75 -25.65 45.75 -25.6 M52.1 -31.6 L51.25 -32.2 49.6 -32.6 45.65 -32.6 45.25 -32.75 45.25 -32.65 45.35 -32.65 45.4 -32.65 45.45 -32.55 45.45 -32.05 49.3 -32.05 47.3 -31.05 45.45 -31.05 45.45 -26.85 46.7 -26.85 46.8 -26.85 47.75 -26.85 Q49.6 -27.35 50.7 -28.1 52.6 -29.45 52.1 -31.6 M44.9 -32.7 L44.85 -32.6 39.65 -32.6 39.45 -32.75 39.3 -32.8 39.2 -32.7 39.15 -32.6 38.9 -32.6 38.9 -32.05 44.9 -32.05 44.9 -32.7 M38.4 -32.6 L32.6 -32.6 32.65 -32.55 32.65 -32.05 38.4 -32.05 38.4 -32.6 M38.9 -31.05 L38.9 -26.85 44.9 -26.85 44.9 -31.05 38.9 -31.05 M32.65 -31.05 L32.65 -26.85 38.4 -26.85 38.4 -31.05 32.65 -31.05" fill="#e6e6e6" fill-rule="evenodd" stroke="none"/>
    <path d="M45.75 -25.3 L46.0 -24.45 46.1 -24.3 46.85 -23.75 47.05 -23.65 47.75 -23.35 49.4 -23.15 50.7 -23.3 51.95 -23.75 Q53.05 -24.4 53.05 -25.3 L53.05 -25.35 Q52.9 -24.65 51.95 -24.1 L50.7 -23.65 49.4 -23.5 47.95 -23.65 47.75 -23.7 47.7 -23.7 47.05 -23.95 46.85 -24.05 46.1 -24.65 46.0 -24.8 45.75 -25.3" fill="#a9acad" fill-rule="evenodd" stroke="none"/>
    <path d="M28.35 -32.05 L27.85 -31.6 27.4 -31.05 32.2 -31.05 32.2 -32.05 28.35 -32.05 M38.9 -32.05 L38.9 -31.05 44.9 -31.05 44.9 -32.05 38.9 -32.05 M38.4 -31.05 L38.4 -32.05 32.65 -32.05 32.65 -31.05 38.4 -31.05 M45.45 -31.05 L47.3 -31.05 49.3 -32.05 45.45 -32.05 45.45 -31.05" fill="#f5f2f2" fill-rule="evenodd" stroke="none"/>
    <path d="M32.4 -25.45 L32.4 -25.3 32.45 -25.2 32.5 -25.15 32.6 -25.2 32.65 -25.3 32.65 -25.6 32.65 -26.85 32.65 -31.05 32.65 -32.05 32.65 -32.55 32.6 -32.6 32.6 -32.65 32.5 -32.65 32.45 -32.65 32.4 -32.55 32.4 -32.15 32.4 -28.5 32.4 -25.45 M38.65 -25.35 L38.65 -25.3 38.7 -25.2 38.8 -25.15 38.85 -25.2 38.9 -25.3 38.9 -25.6 38.9 -26.85 38.9 -31.05 38.9 -32.05 38.9 -32.6 38.85 -32.7 38.8 -32.7 38.75 -32.7 38.75 -25.45 38.65 -25.35 M45.2 -25.35 L45.2 -25.3 45.25 -25.2 45.35 -25.15 45.4 -25.2 45.45 -25.3 45.45 -25.5 45.45 -26.85 45.45 -31.05 45.45 -32.05 45.45 -32.55 45.4 -32.65 45.35 -32.65 45.25 -32.65 45.25 -25.45 45.2 -25.35" fill="#9da0a1" fill-rule="evenodd" stroke="none"/>
    <path d="M58.2 -53.7 L58.2 28.3 49.7 28.3 49.7 -53.7 58.2 -53.7" fill="#55595c" fill-rule="evenodd" stroke="none"/>
    <path d="M56.2 -56.7 L59.2 -56.7 59.2 25.3 56.2 25.3 56.2 -56.7 M52.95 25.3 L50.7 25.3 50.7 -56.7 52.95 -56.7 52.95 25.3" fill="url(#gradient3)" fill-rule="evenodd" stroke="none"/>
    <path d="M56.2 25.3 L52.95 25.3 52.95 -56.7 56.2 -56.7 56.2 25.3" fill="#e6e3e3" fill-rule="evenodd" stroke="none"/>
    <path d="M57.95 -56.7 L57.95 -51.95 57.25 -51.95 57.25 -56.7 57.95 -56.7" fill="#999999" fill-rule="evenodd" stroke="none"/>
    <path d="M57.95 -50.7 L57.95 -45.95 57.25 -45.95 57.25 -50.7 57.95 -50.7" fill="#999999" fill-rule="evenodd" stroke="none"/>
    <path d="M57.95 -44.7 L57.95 -39.95 57.25 -39.95 57.25 -44.7 57.95 -44.7" fill="#999999" fill-rule="evenodd" stroke="none"/>
    <path d="M57.95 -38.7 L57.95 -33.95 57.25 -33.95 57.25 -38.7 57.95 -38.7" fill="#999999" fill-rule="evenodd" stroke="none"/>
    <path d="M57.95 -32.7 L57.95 -27.95 57.25 -27.95 57.25 -32.7 57.95 -32.7" fill="#999999" fill-rule="evenodd" stroke="none"/>
    <path d="M57.95 -26.7 L57.95 -21.95 57.25 -21.95 57.25 -26.7 57.95 -26.7" fill="#999999" fill-rule="evenodd" stroke="none"/>
    <path d="M57.95 -20.7 L57.95 -15.95 57.25 -15.95 57.25 -20.7 57.95 -20.7" fill="#999999" fill-rule="evenodd" stroke="none"/>
    <path d="M57.95 -14.7 L57.95 -9.95 57.25 -9.95 57.25 -14.7 57.95 -14.7" fill="#999999" fill-rule="evenodd" stroke="none"/>
    <path d="M57.95 -8.7 L57.95 -3.95 57.25 -3.95 57.25 -8.7 57.95 -8.7" fill="#999999" fill-rule="evenodd" stroke="none"/>
    <path d="M57.95 -2.7 L57.95 2.05 57.25 2.05 57.25 -2.7 57.95 -2.7" fill="#999999" fill-rule="evenodd" stroke="none"/>
    <path d="M57.95 3.3 L57.95 8.05 57.25 8.05 57.25 3.3 57.95 3.3" fill="#999999" fill-rule="evenodd" stroke="none"/>
    <path d="M57.95 9.3 L57.95 14.05 57.25 14.05 57.25 9.3 57.95 9.3" fill="#999999" fill-rule="evenodd" stroke="none"/>
    <path d="M57.95 15.3 L57.95 20.05 57.25 20.05 57.25 15.3 57.95 15.3" fill="#999999" fill-rule="evenodd" stroke="none"/>
    <path d="M57.95 21.3 L57.95 26.05 57.25 26.05 57.25 21.3 57.95 21.3" fill="#999999" fill-rule="evenodd" stroke="none"/>
    <path d="M52.25 -56.7 L52.25 -51.95 51.55 -51.95 51.55 -56.7 52.25 -56.7" fill="#999999" fill-rule="evenodd" stroke="none"/>
    <path d="M52.25 -50.7 L52.25 -45.95 51.55 -45.95 51.55 -50.7 52.25 -50.7" fill="#999999" fill-rule="evenodd" stroke="none"/>
    <path d="M52.25 -44.7 L52.25 -39.95 51.55 -39.95 51.55 -44.7 52.25 -44.7" fill="#999999" fill-rule="evenodd" stroke="none"/>
    <path d="M52.25 -38.7 L52.25 -33.95 51.55 -33.95 51.55 -38.7 52.25 -38.7" fill="#999999" fill-rule="evenodd" stroke="none"/>
    <path d="M52.25 -32.7 L52.25 -27.95 51.55 -27.95 51.55 -32.7 52.25 -32.7" fill="#999999" fill-rule="evenodd" stroke="none"/>
    <path d="M52.25 -26.7 L52.25 -21.95 51.55 -21.95 51.55 -26.7 52.25 -26.7" fill="#999999" fill-rule="evenodd" stroke="none"/>
    <path d="M52.25 -20.7 L52.25 -15.95 51.55 -15.95 51.55 -20.7 52.25 -20.7" fill="#999999" fill-rule="evenodd" stroke="none"/>
    <path d="M52.25 -14.7 L52.25 -9.95 51.55 -9.95 51.55 -14.7 52.25 -14.7" fill="#999999" fill-rule="evenodd" stroke="none"/>
    <path d="M52.25 -8.7 L52.25 -3.95 51.55 -3.95 51.55 -8.7 52.25 -8.7" fill="#999999" fill-rule="evenodd" stroke="none"/>
    <path d="M52.25 -2.7 L52.25 2.05 51.55 2.05 51.55 -2.7 52.25 -2.7" fill="#999999" fill-rule="evenodd" stroke="none"/>
    <path d="M52.25 3.3 L52.25 8.05 51.55 8.05 51.55 3.3 52.25 3.3" fill="#999999" fill-rule="evenodd" stroke="none"/>
    <path d="M52.25 9.3 L52.25 14.05 51.55 14.05 51.55 9.3 52.25 9.3" fill="#999999" fill-rule="evenodd" stroke="none"/>
    <path d="M52.25 15.3 L52.25 20.05 51.55 20.05 51.55 15.3 52.25 15.3" fill="#999999" fill-rule="evenodd" stroke="none"/>
    <path d="M52.25 21.3 L52.25 26.05 51.55 26.05 51.55 21.3 52.25 21.3" fill="#999999" fill-rule="evenodd" stroke="none"/>
    <path d="M3.45 -25.2 L3.45 -22.95 1.2 -22.95 1.2 -25.2 3.45 -25.2 M3.45 -22.2 L3.45 -19.95 1.2 -19.95 1.2 -22.2 3.45 -22.2 M3.45 -19.2 L3.45 -16.95 1.2 -16.95 1.2 -19.2 3.45 -19.2" fill="#666666" fill-rule="evenodd" stroke="none"/>
    <path d="M41.2 -13.2 L41.2 -10.95 38.95 -10.95 38.95 -13.2 41.2 -13.2 M41.2 -7.2 L41.2 -4.95 38.95 -4.95 38.95 -7.2 41.2 -7.2 M41.2 -7.95 L38.95 -7.95 38.95 -10.2 41.2 -10.2 41.2 -7.95" fill="#666666" fill-rule="evenodd" stroke="none"/>
    <path d="M-36.55 -40.7 L-36.55 -38.45 -38.8 -38.45 -38.8 -40.7 -36.55 -40.7 M-36.55 -34.7 L-36.55 -32.45 -38.8 -32.45 -38.8 -34.7 -36.55 -34.7 M-36.55 -35.45 L-38.8 -35.45 -38.8 -37.7 -36.55 -37.7 -36.55 -35.45" fill="#666666" fill-rule="evenodd" stroke="none"/>
    <path d="M-36.55 -13.7 L-36.55 -11.45 -38.8 -11.45 -38.8 -13.7 -36.55 -13.7 M-36.55 -7.7 L-36.55 -5.45 -38.8 -5.45 -38.8 -7.7 -36.55 -7.7 M-36.55 -8.45 L-38.8 -8.45 -38.8 -10.7 -36.55 -10.7 -36.55 -8.45" fill="#666666" fill-rule="evenodd" stroke="none"/>
    <path d="M-29.2 -55.05 L-29.2 26.95 -34.1 26.95 -34.1 -55.05 -29.2 -55.05" fill="#55595c" fill-rule="evenodd" stroke="none"/>
    <path d="M-28.6 -58.05 L-28.6 23.95 -33.5 23.95 -33.5 -58.05 -28.6 -58.05" fill="url(#gradient4)" fill-rule="evenodd" stroke="none"/>
    <path d="M-29.35 -58.05 L-29.35 -53.3 -29.75 -53.3 -29.75 -58.05 -29.35 -58.05" fill="#999999" fill-rule="evenodd" stroke="none"/>
    <path d="M-29.35 -52.05 L-29.35 -47.3 -29.75 -47.3 -29.75 -52.05 -29.35 -52.05" fill="#999999" fill-rule="evenodd" stroke="none"/>
    <path d="M-29.35 -46.05 L-29.35 -41.3 -29.75 -41.3 -29.75 -46.05 -29.35 -46.05" fill="#999999" fill-rule="evenodd" stroke="none"/>
    <path d="M-29.35 -40.05 L-29.35 -35.3 -29.75 -35.3 -29.75 -40.05 -29.35 -40.05" fill="#999999" fill-rule="evenodd" stroke="none"/>
    <path d="M-29.35 -34.05 L-29.35 -29.3 -29.75 -29.3 -29.75 -34.05 -29.35 -34.05" fill="#999999" fill-rule="evenodd" stroke="none"/>
    <path d="M-29.35 -28.05 L-29.35 -23.3 -29.75 -23.3 -29.75 -28.05 -29.35 -28.05" fill="#999999" fill-rule="evenodd" stroke="none"/>
    <path d="M-29.35 -22.05 L-29.35 -17.3 -29.75 -17.3 -29.75 -22.05 -29.35 -22.05" fill="#999999" fill-rule="evenodd" stroke="none"/>
    <path d="M-29.35 -16.05 L-29.35 -11.3 -29.75 -11.3 -29.75 -16.05 -29.35 -16.05" fill="#999999" fill-rule="evenodd" stroke="none"/>
    <path d="M-29.35 -10.05 L-29.35 -5.3 -29.75 -5.3 -29.75 -10.05 -29.35 -10.05" fill="#999999" fill-rule="evenodd" stroke="none"/>
    <path d="M-29.35 -4.05 L-29.35 0.7 -29.75 0.7 -29.75 -4.05 -29.35 -4.05" fill="#999999" fill-rule="evenodd" stroke="none"/>
    <path d="M-29.35 1.95 L-29.35 6.7 -29.75 6.7 -29.75 1.95 -29.35 1.95" fill="#999999" fill-rule="evenodd" stroke="none"/>
    <path d="M-29.35 7.95 L-29.35 12.7 -29.75 12.7 -29.75 7.95 -29.35 7.95" fill="#999999" fill-rule="evenodd" stroke="none"/>
    <path d="M-29.35 13.95 L-29.35 18.7 -29.75 18.7 -29.75 13.95 -29.35 13.95" fill="#999999" fill-rule="evenodd" stroke="none"/>
    <path d="M-29.35 19.95 L-29.35 24.7 -29.75 24.7 -29.75 19.95 -29.35 19.95" fill="#999999" fill-rule="evenodd" stroke="none"/>
    <path d="M-32.65 -58.05 L-32.65 -53.3 -33.05 -53.3 -33.05 -58.05 -32.65 -58.05" fill="#999999" fill-rule="evenodd" stroke="none"/>
    <path d="M-32.65 -52.05 L-32.65 -47.3 -33.05 -47.3 -33.05 -52.05 -32.65 -52.05" fill="#999999" fill-rule="evenodd" stroke="none"/>
    <path d="M-32.65 -46.05 L-32.65 -41.3 -33.05 -41.3 -33.05 -46.05 -32.65 -46.05" fill="#999999" fill-rule="evenodd" stroke="none"/>
    <path d="M-32.65 -40.05 L-32.65 -35.3 -33.05 -35.3 -33.05 -40.05 -32.65 -40.05" fill="#999999" fill-rule="evenodd" stroke="none"/>
    <path d="M-32.65 -34.05 L-32.65 -29.3 -33.05 -29.3 -33.05 -34.05 -32.65 -34.05" fill="#999999" fill-rule="evenodd" stroke="none"/>
    <path d="M-32.65 -28.05 L-32.65 -23.3 -33.05 -23.3 -33.05 -28.05 -32.65 -28.05" fill="#999999" fill-rule="evenodd" stroke="none"/>
    <path d="M-32.65 -22.05 L-32.65 -17.3 -33.05 -17.3 -33.05 -22.05 -32.65 -22.05" fill="#999999" fill-rule="evenodd" stroke="none"/>
    <path d="M-32.65 -16.05 L-32.65 -11.3 -33.05 -11.3 -33.05 -16.05 -32.65 -16.05" fill="#999999" fill-rule="evenodd" stroke="none"/>
    <path d="M-32.65 -10.05 L-32.65 -5.3 -33.05 -5.3 -33.05 -10.05 -32.65 -10.05" fill="#999999" fill-rule="evenodd" stroke="none"/>
    <path d="M-32.65 -4.05 L-32.65 0.7 -33.05 0.7 -33.05 -4.05 -32.65 -4.05" fill="#999999" fill-rule="evenodd" stroke="none"/>
    <path d="M-32.65 1.95 L-32.65 6.7 -33.05 6.7 -33.05 1.95 -32.65 1.95" fill="#999999" fill-rule="evenodd" stroke="none"/>
    <path d="M-32.65 7.95 L-32.65 12.7 -33.05 12.7 -33.05 7.95 -32.65 7.95" fill="#999999" fill-rule="evenodd" stroke="none"/>
    <path d="M-32.65 13.95 L-32.65 18.7 -33.05 18.7 -33.05 13.95 -32.65 13.95" fill="#999999" fill-rule="evenodd" stroke="none"/>
    <path d="M-32.65 19.95 L-32.65 24.7 -33.05 24.7 -33.05 19.95 -32.65 19.95" fill="#999999" fill-rule="evenodd" stroke="none"/>
    <path d="M-38.05 12.15 L-37.9 26.6 -42.8 26.6 -42.95 12.15 -38.05 12.15" fill="#55595c" fill-rule="evenodd" stroke="none"/>
    <path d="M-37.45 11.6 L-37.35 26.05 -42.3 26.1 -42.4 11.65 -37.45 11.6" fill="url(#gradient5)" fill-rule="evenodd" stroke="none"/>
    <path d="M-38.15 11.6 L-38.15 12.45 -38.55 12.45 -38.55 11.6 -38.15 11.6" fill="#999999" fill-rule="evenodd" stroke="none"/>
    <path d="M-38.15 12.65 L-38.15 13.5 -38.55 13.5 -38.55 12.65 -38.15 12.65" fill="#999999" fill-rule="evenodd" stroke="none"/>
    <path d="M-38.1 13.75 L-38.1 14.6 -38.5 14.6 -38.5 13.75 -38.1 13.75" fill="#999999" fill-rule="evenodd" stroke="none"/>
    <path d="M-38.1 14.8 L-38.1 15.65 -38.5 15.65 -38.5 14.8 -38.1 14.8" fill="#999999" fill-rule="evenodd" stroke="none"/>
    <path d="M-38.1 15.85 L-38.1 16.7 -38.5 16.7 -38.5 15.85 -38.1 15.85" fill="#999999" fill-rule="evenodd" stroke="none"/>
    <path d="M-38.1 16.9 L-38.1 17.75 -38.5 17.75 -38.5 16.9 -38.1 16.9" fill="#999999" fill-rule="evenodd" stroke="none"/>
    <path d="M-38.1 17.95 L-38.1 18.8 -38.5 18.8 -38.5 17.95 -38.1 17.95" fill="#999999" fill-rule="evenodd" stroke="none"/>
    <path d="M-38.1 19.0 L-38.1 19.85 -38.5 19.85 -38.5 19.0 -38.1 19.0" fill="#999999" fill-rule="evenodd" stroke="none"/>
    <path d="M-38.1 20.1 L-38.1 20.95 -38.5 20.95 -38.5 20.1 -38.1 20.1" fill="#999999" fill-rule="evenodd" stroke="none"/>
    <path d="M-38.1 21.15 L-38.1 22.0 -38.5 22.0 -38.5 21.15 -38.1 21.15" fill="#999999" fill-rule="evenodd" stroke="none"/>
    <path d="M-38.05 22.2 L-38.05 23.05 -38.45 23.05 -38.45 22.2 -38.05 22.2" fill="#999999" fill-rule="evenodd" stroke="none"/>
    <path d="M-38.05 23.25 L-38.05 24.1 -38.45 24.1 -38.45 23.25 -38.05 23.25" fill="#999999" fill-rule="evenodd" stroke="none"/>
    <path d="M-38.05 24.3 L-38.05 25.15 -38.45 25.15 -38.45 24.3 -38.05 24.3" fill="#999999" fill-rule="evenodd" stroke="none"/>
    <path d="M-38.05 25.4 L-38.05 26.25 -38.45 26.25 -38.45 25.4 -38.05 25.4" fill="#999999" fill-rule="evenodd" stroke="none"/>
    <path d="M-41.45 11.65 L-41.45 12.5 -41.85 12.5 -41.85 11.65 -41.45 11.65" fill="#999999" fill-rule="evenodd" stroke="none"/>
    <path d="M-41.45 12.7 L-41.45 13.55 -41.85 13.55 -41.85 12.7 -41.45 12.7" fill="#999999" fill-rule="evenodd" stroke="none"/>
    <path d="M-41.4 13.75 L-41.4 14.6 -41.8 14.6 -41.8 13.75 -41.4 13.75" fill="#999999" fill-rule="evenodd" stroke="none"/>
    <path d="M-41.4 14.85 L-41.4 15.7 -41.8 15.7 -41.8 14.85 -41.4 14.85" fill="#999999" fill-rule="evenodd" stroke="none"/>
    <path d="M-41.4 15.9 L-41.4 16.75 -41.8 16.75 -41.8 15.9 -41.4 15.9" fill="#999999" fill-rule="evenodd" stroke="none"/>
    <path d="M-41.4 16.95 L-41.4 17.8 -41.8 17.8 -41.8 16.95 -41.4 16.95" fill="#999999" fill-rule="evenodd" stroke="none"/>
    <path d="M-41.4 18.0 L-41.4 18.85 -41.8 18.85 -41.8 18.0 -41.4 18.0" fill="#999999" fill-rule="evenodd" stroke="none"/>
    <path d="M-41.4 19.05 L-41.4 19.9 -41.8 19.9 -41.8 19.05 -41.4 19.05" fill="#999999" fill-rule="evenodd" stroke="none"/>
    <path d="M-41.4 20.1 L-41.4 20.95 -41.8 20.95 -41.8 20.1 -41.4 20.1" fill="#999999" fill-rule="evenodd" stroke="none"/>
    <path d="M-41.4 21.2 L-41.4 22.05 -41.8 22.05 -41.8 21.2 -41.4 21.2" fill="#999999" fill-rule="evenodd" stroke="none"/>
    <path d="M-41.35 22.25 L-41.35 23.1 -41.75 23.1 -41.75 22.25 -41.35 22.25" fill="#999999" fill-rule="evenodd" stroke="none"/>
    <path d="M-41.35 23.3 L-41.35 24.15 -41.75 24.15 -41.75 23.3 -41.35 23.3" fill="#999999" fill-rule="evenodd" stroke="none"/>
    <path d="M-41.35 24.35 L-41.35 25.2 -41.75 25.2 -41.75 24.35 -41.35 24.35" fill="#999999" fill-rule="evenodd" stroke="none"/>
    <path d="M-41.35 25.4 L-41.35 26.25 -41.75 26.25 -41.75 25.4 -41.35 25.4" fill="#999999" fill-rule="evenodd" stroke="none"/>
    <path d="M-10.2 13.3 L-10.25 27.75 -15.15 27.75 -15.1 13.3 -10.2 13.3" fill="#55595c" fill-rule="evenodd" stroke="none"/>
    <path d="M-9.6 12.75 L-9.65 27.2 -14.55 27.2 -14.5 12.75 -9.6 12.75" fill="url(#gradient6)" fill-rule="evenodd" stroke="none"/>
    <path d="M-10.3 12.75 L-10.3 13.6 -10.7 13.6 -10.7 12.75 -10.3 12.75" fill="#999999" fill-rule="evenodd" stroke="none"/>
    <path d="M-10.35 13.8 L-10.35 14.65 -10.75 14.65 -10.75 13.8 -10.35 13.8" fill="#999999" fill-rule="evenodd" stroke="none"/>
    <path d="M-10.3 14.9 L-10.3 15.75 -10.7 15.75 -10.7 14.9 -10.3 14.9" fill="#999999" fill-rule="evenodd" stroke="none"/>
    <path d="M-10.3 15.95 L-10.3 16.8 -10.7 16.8 -10.7 15.95 -10.3 15.95" fill="#999999" fill-rule="evenodd" stroke="none"/>
    <path d="M-10.3 17.0 L-10.3 17.85 -10.7 17.85 -10.7 17.0 -10.3 17.0" fill="#999999" fill-rule="evenodd" stroke="none"/>
    <path d="M-10.35 18.05 L-10.35 18.9 -10.75 18.9 -10.75 18.05 -10.35 18.05" fill="#999999" fill-rule="evenodd" stroke="none"/>
    <path d="M-10.35 19.1 L-10.35 19.95 -10.75 19.95 -10.75 19.1 -10.35 19.1" fill="#999999" fill-rule="evenodd" stroke="none"/>
    <path d="M-10.35 20.15 L-10.35 21.0 -10.75 21.0 -10.75 20.15 -10.35 20.15" fill="#999999" fill-rule="evenodd" stroke="none"/>
    <path d="M-10.35 21.25 L-10.35 22.1 -10.75 22.1 -10.75 21.25 -10.35 21.25" fill="#999999" fill-rule="evenodd" stroke="none"/>
    <path d="M-10.35 22.3 L-10.35 23.15 -10.75 23.15 -10.75 22.3 -10.35 22.3" fill="#999999" fill-rule="evenodd" stroke="none"/>
    <path d="M-10.4 23.35 L-10.4 24.2 -10.8 24.2 -10.8 23.35 -10.4 23.35" fill="#999999" fill-rule="evenodd" stroke="none"/>
    <path d="M-10.4 24.4 L-10.4 25.25 -10.8 25.25 -10.8 24.4 -10.4 24.4" fill="#999999" fill-rule="evenodd" stroke="none"/>
    <path d="M-10.4 25.45 L-10.4 26.3 -10.8 26.3 -10.8 25.45 -10.4 25.45" fill="#999999" fill-rule="evenodd" stroke="none"/>
    <path d="M-10.4 26.55 L-10.4 27.4 -10.8 27.4 -10.8 26.55 -10.4 26.55" fill="#999999" fill-rule="evenodd" stroke="none"/>
    <path d="M-13.6 12.75 L-13.6 13.6 -14.0 13.6 -14.0 12.75 -13.6 12.75" fill="#999999" fill-rule="evenodd" stroke="none"/>
    <path d="M-13.65 13.8 L-13.65 14.65 -14.05 14.65 -14.05 13.8 -13.65 13.8" fill="#999999" fill-rule="evenodd" stroke="none"/>
    <path d="M-13.6 14.85 L-13.6 15.7 -14.0 15.7 -14.0 14.85 -13.6 14.85" fill="#999999" fill-rule="evenodd" stroke="none"/>
    <path d="M-13.6 15.95 L-13.6 16.8 -14.0 16.8 -14.0 15.95 -13.6 15.95" fill="#999999" fill-rule="evenodd" stroke="none"/>
    <path d="M-13.6 17.0 L-13.6 17.85 -14.0 17.85 -14.0 17.0 -13.6 17.0" fill="#999999" fill-rule="evenodd" stroke="none"/>
    <path d="M-13.65 18.05 L-13.65 18.9 -14.05 18.9 -14.05 18.05 -13.65 18.05" fill="#999999" fill-rule="evenodd" stroke="none"/>
    <path d="M-13.65 19.1 L-13.65 19.95 -14.05 19.95 -14.05 19.1 -13.65 19.1" fill="#999999" fill-rule="evenodd" stroke="none"/>
    <path d="M-13.65 20.15 L-13.65 21.0 -14.05 21.0 -14.05 20.15 -13.65 20.15" fill="#999999" fill-rule="evenodd" stroke="none"/>
    <path d="M-13.65 21.2 L-13.65 22.05 -14.05 22.05 -14.05 21.2 -13.65 21.2" fill="#999999" fill-rule="evenodd" stroke="none"/>
    <path d="M-13.65 22.3 L-13.65 23.15 -14.05 23.15 -14.05 22.3 -13.65 22.3" fill="#999999" fill-rule="evenodd" stroke="none"/>
    <path d="M-13.7 23.35 L-13.7 24.2 -14.1 24.2 -14.1 23.35 -13.7 23.35" fill="#999999" fill-rule="evenodd" stroke="none"/>
    <path d="M-13.7 24.4 L-13.7 25.25 -14.1 25.25 -14.1 24.4 -13.7 24.4" fill="#999999" fill-rule="evenodd" stroke="none"/>
    <path d="M-13.7 25.45 L-13.7 26.3 -14.1 26.3 -14.1 25.45 -13.7 25.45" fill="#999999" fill-rule="evenodd" stroke="none"/>
    <path d="M-13.7 26.5 L-13.7 27.35 -14.1 27.35 -14.1 26.5 -13.7 26.5" fill="#999999" fill-rule="evenodd" stroke="none"/>
    <path d="M-10.5 22.95 L-1.5 22.75 -1.5 27.7 -10.5 27.9 -10.5 22.95" fill="#55595c" fill-rule="evenodd" stroke="none"/>
    <path d="M-10.85 22.35 L-1.85 22.15 -1.85 27.1 -10.85 27.3 -10.85 22.35" fill="#d1cece" fill-rule="evenodd" stroke="none"/>
    <path d="M-10.85 23.1 L-10.35 23.1 -10.35 23.55 -10.85 23.55 -10.85 23.1" fill="#999999" fill-rule="evenodd" stroke="none"/>
    <path d="M-10.2 23.1 L-9.7 23.1 -9.7 23.55 -10.2 23.55 -10.2 23.1" fill="#999999" fill-rule="evenodd" stroke="none"/>
    <path d="M-9.55 23.0 L-9.05 23.0 -9.05 23.45 -9.55 23.45 -9.55 23.0" fill="#999999" fill-rule="evenodd" stroke="none"/>
    <path d="M-8.9 22.95 L-8.4 22.95 -8.4 23.4 -8.9 23.4 -8.9 22.95" fill="#999999" fill-rule="evenodd" stroke="none"/>
    <path d="M-8.2 22.9 L-7.7 22.9 -7.7 23.35 -8.2 23.35 -8.2 22.9" fill="#999999" fill-rule="evenodd" stroke="none"/>
    <path d="M-7.55 22.95 L-7.05 22.95 -7.05 23.4 -7.55 23.4 -7.55 22.95" fill="#999999" fill-rule="evenodd" stroke="none"/>
    <path d="M-6.9 23.0 L-6.4 23.0 -6.4 23.45 -6.9 23.45 -6.9 23.0" fill="#999999" fill-rule="evenodd" stroke="none"/>
    <path d="M-6.25 22.95 L-5.75 22.95 -5.75 23.4 -6.25 23.4 -6.25 22.95" fill="#999999" fill-rule="evenodd" stroke="none"/>
    <path d="M-5.6 22.95 L-5.1 22.95 -5.1 23.4 -5.6 23.4 -5.6 22.95" fill="#999999" fill-rule="evenodd" stroke="none"/>
    <path d="M-4.9 22.95 L-4.4 22.95 -4.4 23.4 -4.9 23.4 -4.9 22.95" fill="#999999" fill-rule="evenodd" stroke="none"/>
    <path d="M-4.25 22.95 L-3.75 22.95 -3.75 23.4 -4.25 23.4 -4.25 22.95" fill="#999999" fill-rule="evenodd" stroke="none"/>
    <path d="M-3.6 22.95 L-3.1 22.95 -3.1 23.4 -3.6 23.4 -3.6 22.95" fill="#999999" fill-rule="evenodd" stroke="none"/>
    <path d="M-2.95 22.95 L-2.45 22.95 -2.45 23.4 -2.95 23.4 -2.95 22.95" fill="#999999" fill-rule="evenodd" stroke="none"/>
    <path d="M-2.3 22.85 L-1.8 22.85 -1.8 23.3 -2.3 23.3 -2.3 22.85" fill="#999999" fill-rule="evenodd" stroke="none"/>
    <path d="M-10.85 26.4 L-10.35 26.4 -10.35 26.85 -10.85 26.85 -10.85 26.4" fill="#999999" fill-rule="evenodd" stroke="none"/>
    <path d="M-10.2 26.4 L-9.7 26.4 -9.7 26.85 -10.2 26.85 -10.2 26.4" fill="#999999" fill-rule="evenodd" stroke="none"/>
    <path d="M-9.55 26.3 L-9.05 26.3 -9.05 26.75 -9.55 26.75 -9.55 26.3" fill="#999999" fill-rule="evenodd" stroke="none"/>
    <path d="M-8.85 26.25 L-8.35 26.25 -8.35 26.7 -8.85 26.7 -8.85 26.25" fill="#999999" fill-rule="evenodd" stroke="none"/>
    <path d="M-8.2 26.2 L-7.7 26.2 -7.7 26.65 -8.2 26.65 -8.2 26.2" fill="#999999" fill-rule="evenodd" stroke="none"/>
    <path d="M-7.55 26.3 L-7.05 26.3 -7.05 26.75 -7.55 26.75 -7.55 26.3" fill="#999999" fill-rule="evenodd" stroke="none"/>
    <path d="M-6.9 26.3 L-6.4 26.3 -6.4 26.75 -6.9 26.75 -6.9 26.3" fill="#999999" fill-rule="evenodd" stroke="none"/>
    <path d="M-6.25 26.25 L-5.75 26.25 -5.75 26.7 -6.25 26.7 -6.25 26.25" fill="#999999" fill-rule="evenodd" stroke="none"/>
    <path d="M-5.6 26.25 L-5.1 26.25 -5.1 26.7 -5.6 26.7 -5.6 26.25" fill="#999999" fill-rule="evenodd" stroke="none"/>
    <path d="M-4.9 26.25 L-4.4 26.25 -4.4 26.7 -4.9 26.7 -4.9 26.25" fill="#999999" fill-rule="evenodd" stroke="none"/>
    <path d="M-4.25 26.25 L-3.75 26.25 -3.75 26.7 -4.25 26.7 -4.25 26.25" fill="#999999" fill-rule="evenodd" stroke="none"/>
    <path d="M-3.6 26.25 L-3.1 26.25 -3.1 26.7 -3.6 26.7 -3.6 26.25" fill="#999999" fill-rule="evenodd" stroke="none"/>
    <path d="M-2.95 26.25 L-2.45 26.25 -2.45 26.7 -2.95 26.7 -2.95 26.25" fill="#999999" fill-rule="evenodd" stroke="none"/>
    <path d="M-2.3 26.15 L-1.8 26.15 -1.8 26.6 -2.3 26.6 -2.3 26.15" fill="#999999" fill-rule="evenodd" stroke="none"/>
    <path d="M-29.85 19.55 L-15.4 19.55 -15.4 24.5 -29.85 24.5 -29.85 19.55" fill="#55595c" fill-rule="evenodd" stroke="none"/>
    <path d="M-30.4 18.95 L-15.95 18.95 -15.95 23.9 -30.4 23.9 -30.4 18.95" fill="#dedbdb" fill-rule="evenodd" stroke="none"/>
    <path d="M-30.4 19.75 L-29.55 19.75 -29.55 20.15 -30.4 20.15 -30.4 19.75" fill="#999999" fill-rule="evenodd" stroke="none"/>
    <path d="M-29.3 19.8 L-28.45 19.8 -28.45 20.2 -29.3 20.2 -29.3 19.8" fill="#999999" fill-rule="evenodd" stroke="none"/>
    <path d="M-28.25 19.7 L-27.4 19.7 -27.4 20.1 -28.25 20.1 -28.25 19.7" fill="#999999" fill-rule="evenodd" stroke="none"/>
    <path d="M-27.2 19.75 L-26.35 19.75 -26.35 20.15 -27.2 20.15 -27.2 19.75" fill="#999999" fill-rule="evenodd" stroke="none"/>
    <path d="M-26.15 19.75 L-25.3 19.75 -25.3 20.15 -26.15 20.15 -26.15 19.75" fill="#999999" fill-rule="evenodd" stroke="none"/>
    <path d="M-25.05 19.75 L-24.2 19.75 -24.2 20.15 -25.05 20.15 -25.05 19.75" fill="#999999" fill-rule="evenodd" stroke="none"/>
    <path d="M-24.0 19.8 L-23.15 19.8 -23.15 20.2 -24.0 20.2 -24.0 19.8" fill="#999999" fill-rule="evenodd" stroke="none"/>
    <path d="M-22.95 19.75 L-22.1 19.75 -22.1 20.15 -22.95 20.15 -22.95 19.75" fill="#999999" fill-rule="evenodd" stroke="none"/>
    <path d="M-21.85 19.75 L-21.0 19.75 -21.0 20.15 -21.85 20.15 -21.85 19.75" fill="#999999" fill-rule="evenodd" stroke="none"/>
    <path d="M-20.8 19.75 L-19.95 19.75 -19.95 20.15 -20.8 20.15 -20.8 19.75" fill="#999999" fill-rule="evenodd" stroke="none"/>
    <path d="M-19.75 19.8 L-18.9 19.8 -18.9 20.2 -19.75 20.2 -19.75 19.8" fill="#999999" fill-rule="evenodd" stroke="none"/>
    <path d="M-18.7 19.8 L-17.85 19.8 -17.85 20.2 -18.7 20.2 -18.7 19.8" fill="#999999" fill-rule="evenodd" stroke="none"/>
    <path d="M-17.65 19.8 L-16.8 19.8 -16.8 20.2 -17.65 20.2 -17.65 19.8" fill="#999999" fill-rule="evenodd" stroke="none"/>
    <path d="M-16.55 19.8 L-15.7 19.8 -15.7 20.2 -16.55 20.2 -16.55 19.8" fill="#999999" fill-rule="evenodd" stroke="none"/>
    <path d="M-30.35 23.05 L-29.5 23.05 -29.5 23.45 -30.35 23.45 -30.35 23.05" fill="#999999" fill-rule="evenodd" stroke="none"/>
    <path d="M-29.3 23.1 L-28.45 23.1 -28.45 23.5 -29.3 23.5 -29.3 23.1" fill="#999999" fill-rule="evenodd" stroke="none"/>
    <path d="M-28.25 23.0 L-27.4 23.0 -27.4 23.4 -28.25 23.4 -28.25 23.0" fill="#999999" fill-rule="evenodd" stroke="none"/>
    <path d="M-27.15 23.05 L-26.3 23.05 -26.3 23.45 -27.15 23.45 -27.15 23.05" fill="#999999" fill-rule="evenodd" stroke="none"/>
    <path d="M-26.1 23.05 L-25.25 23.05 -25.25 23.45 -26.1 23.45 -26.1 23.05" fill="#999999" fill-rule="evenodd" stroke="none"/>
    <path d="M-25.05 23.05 L-24.2 23.05 -24.2 23.45 -25.05 23.45 -25.05 23.05" fill="#999999" fill-rule="evenodd" stroke="none"/>
    <path d="M-24.0 23.1 L-23.15 23.1 -23.15 23.5 -24.0 23.5 -24.0 23.1" fill="#999999" fill-rule="evenodd" stroke="none"/>
    <path d="M-22.95 23.05 L-22.1 23.05 -22.1 23.45 -22.95 23.45 -22.95 23.05" fill="#999999" fill-rule="evenodd" stroke="none"/>
    <path d="M-21.9 23.05 L-21.05 23.05 -21.05 23.45 -21.9 23.45 -21.9 23.05" fill="#999999" fill-rule="evenodd" stroke="none"/>
    <path d="M-20.8 23.05 L-19.95 23.05 -19.95 23.45 -20.8 23.45 -20.8 23.05" fill="#999999" fill-rule="evenodd" stroke="none"/>
    <path d="M-19.75 23.1 L-18.9 23.1 -18.9 23.5 -19.75 23.5 -19.75 23.1" fill="#999999" fill-rule="evenodd" stroke="none"/>
    <path d="M-18.7 23.1 L-17.85 23.1 -17.85 23.5 -18.7 23.5 -18.7 23.1" fill="#999999" fill-rule="evenodd" stroke="none"/>
    <path d="M-17.65 23.1 L-16.8 23.1 -16.8 23.5 -17.65 23.5 -17.65 23.1" fill="#999999" fill-rule="evenodd" stroke="none"/>
    <path d="M-16.6 23.1 L-15.75 23.1 -15.75 23.5 -16.6 23.5 -16.6 23.1" fill="#999999" fill-rule="evenodd" stroke="none"/>
    <path d="M-20.25 20.2 L-20.3 12.95 -15.35 12.95 -15.3 20.2 -20.25 20.2" fill="#55595c" fill-rule="evenodd" stroke="none"/>
    <path d="M-20.85 20.4 L-20.9 13.2 -15.95 13.2 -15.9 20.4 -20.85 20.4" fill="#d1cece" fill-rule="evenodd" stroke="none"/>
    <path d="M-20.05 20.5 L-20.05 20.1 -19.65 20.1 -19.65 20.5 -20.05 20.5" fill="#999999" fill-rule="evenodd" stroke="none"/>
    <path d="M-20.0 19.95 L-20.0 19.55 -19.6 19.55 -19.6 19.95 -20.0 19.95" fill="#999999" fill-rule="evenodd" stroke="none"/>
    <path d="M-20.1 19.4 L-20.1 19.0 -19.7 19.0 -19.7 19.4 -20.1 19.4" fill="#999999" fill-rule="evenodd" stroke="none"/>
    <path d="M-20.1 18.9 L-20.1 18.5 -19.7 18.5 -19.7 18.9 -20.1 18.9" fill="#999999" fill-rule="evenodd" stroke="none"/>
    <path d="M-20.1 18.35 L-20.1 17.95 -19.7 17.95 -19.7 18.35 -20.1 18.35" fill="#999999" fill-rule="evenodd" stroke="none"/>
    <path d="M-20.1 17.8 L-20.1 17.4 -19.7 17.4 -19.7 17.8 -20.1 17.8" fill="#999999" fill-rule="evenodd" stroke="none"/>
    <path d="M-20.05 17.3 L-20.05 16.9 -19.65 16.9 -19.65 17.3 -20.05 17.3" fill="#999999" fill-rule="evenodd" stroke="none"/>
    <path d="M-20.1 16.75 L-20.1 16.35 -19.7 16.35 -19.7 16.75 -20.1 16.75" fill="#999999" fill-rule="evenodd" stroke="none"/>
    <path d="M-20.1 16.2 L-20.1 15.8 -19.7 15.8 -19.7 16.2 -20.1 16.2" fill="#999999" fill-rule="evenodd" stroke="none"/>
    <path d="M-20.1 15.7 L-20.1 15.3 -19.7 15.3 -19.7 15.7 -20.1 15.7" fill="#999999" fill-rule="evenodd" stroke="none"/>
    <path d="M-20.05 15.15 L-20.05 14.75 -19.65 14.75 -19.65 15.15 -20.05 15.15" fill="#999999" fill-rule="evenodd" stroke="none"/>
    <path d="M-20.05 14.65 L-20.05 14.25 -19.65 14.25 -19.65 14.65 -20.05 14.65" fill="#999999" fill-rule="evenodd" stroke="none"/>
    <path d="M-20.1 14.1 L-20.1 13.7 -19.7 13.7 -19.7 14.1 -20.1 14.1" fill="#999999" fill-rule="evenodd" stroke="none"/>
    <path d="M-20.1 13.55 L-20.1 13.15 -19.7 13.15 -19.7 13.55 -20.1 13.55" fill="#999999" fill-rule="evenodd" stroke="none"/>
    <path d="M-16.75 20.45 L-16.75 20.05 -16.35 20.05 -16.35 20.45 -16.75 20.45" fill="#999999" fill-rule="evenodd" stroke="none"/>
    <path d="M-16.7 19.95 L-16.7 19.55 -16.3 19.55 -16.3 19.95 -16.7 19.95" fill="#999999" fill-rule="evenodd" stroke="none"/>
    <path d="M-16.8 19.4 L-16.8 19.0 -16.4 19.0 -16.4 19.4 -16.8 19.4" fill="#999999" fill-rule="evenodd" stroke="none"/>
    <path d="M-16.8 18.85 L-16.8 18.45 -16.4 18.45 -16.4 18.85 -16.8 18.85" fill="#999999" fill-rule="evenodd" stroke="none"/>
    <path d="M-16.8 18.35 L-16.8 17.95 -16.4 17.95 -16.4 18.35 -16.8 18.35" fill="#999999" fill-rule="evenodd" stroke="none"/>
    <path d="M-16.8 17.8 L-16.8 17.4 -16.4 17.4 -16.4 17.8 -16.8 17.8" fill="#999999" fill-rule="evenodd" stroke="none"/>
    <path d="M-16.75 17.3 L-16.75 16.9 -16.35 16.9 -16.35 17.3 -16.75 17.3" fill="#999999" fill-rule="evenodd" stroke="none"/>
    <path d="M-16.8 16.75 L-16.8 16.35 -16.4 16.35 -16.4 16.75 -16.8 16.75" fill="#999999" fill-rule="evenodd" stroke="none"/>
    <path d="M-16.8 16.25 L-16.8 15.85 -16.4 15.85 -16.4 16.25 -16.8 16.25" fill="#999999" fill-rule="evenodd" stroke="none"/>
    <path d="M-16.8 15.7 L-16.8 15.3 -16.4 15.3 -16.4 15.7 -16.8 15.7" fill="#999999" fill-rule="evenodd" stroke="none"/>
    <path d="M-16.75 15.15 L-16.75 14.75 -16.35 14.75 -16.35 15.15 -16.75 15.15" fill="#999999" fill-rule="evenodd" stroke="none"/>
    <path d="M-16.75 14.65 L-16.75 14.25 -16.35 14.25 -16.35 14.65 -16.75 14.65" fill="#999999" fill-rule="evenodd" stroke="none"/>
    <path d="M-16.8 14.1 L-16.8 13.7 -16.4 13.7 -16.4 14.1 -16.8 14.1" fill="#999999" fill-rule="evenodd" stroke="none"/>
    <path d="M-16.8 13.6 L-16.8 13.2 -16.4 13.2 -16.4 13.6 -16.8 13.6" fill="#999999" fill-rule="evenodd" stroke="none"/>
    <path d="M12.2 -47.75 L14.45 -47.75 14.45 -45.5 12.2 -45.5 12.2 -47.75 M18.2 -47.7 L20.45 -47.7 20.45 -45.45 18.2 -45.45 18.2 -47.7 M17.45 -47.7 L17.45 -45.45 15.2 -45.5 15.2 -47.75 17.45 -47.7" fill="#666666" fill-rule="evenodd" stroke="none"/>
    <path d="M-29.25 -57.65 L-14.8 -57.65 -14.8 -52.7 -29.25 -52.7 -29.25 -57.65" fill="#55595c" fill-rule="evenodd" stroke="none"/>
    <path d="M-29.8 -58.25 L-15.35 -58.25 -15.35 -53.3 -29.8 -53.3 -29.8 -58.25" fill="#dedbdb" fill-rule="evenodd" stroke="none"/>
    <path d="M-29.8 -57.45 L-28.95 -57.45 -28.95 -57.05 -29.8 -57.05 -29.8 -57.45" fill="#999999" fill-rule="evenodd" stroke="none"/>
    <path d="M-28.7 -57.4 L-27.85 -57.4 -27.85 -57.0 -28.7 -57.0 -28.7 -57.4" fill="#999999" fill-rule="evenodd" stroke="none"/>
    <path d="M-27.65 -57.5 L-26.8 -57.5 -26.8 -57.1 -27.65 -57.1 -27.65 -57.5" fill="#999999" fill-rule="evenodd" stroke="none"/>
    <path d="M-26.6 -57.45 L-25.75 -57.45 -25.75 -57.05 -26.6 -57.05 -26.6 -57.45" fill="#999999" fill-rule="evenodd" stroke="none"/>
    <path d="M-25.55 -57.45 L-24.7 -57.45 -24.7 -57.05 -25.55 -57.05 -25.55 -57.45" fill="#999999" fill-rule="evenodd" stroke="none"/>
    <path d="M-24.45 -57.45 L-23.6 -57.45 -23.6 -57.05 -24.45 -57.05 -24.45 -57.45" fill="#999999" fill-rule="evenodd" stroke="none"/>
    <path d="M-23.4 -57.4 L-22.55 -57.4 -22.55 -57.0 -23.4 -57.0 -23.4 -57.4" fill="#999999" fill-rule="evenodd" stroke="none"/>
    <path d="M-22.35 -57.45 L-21.5 -57.45 -21.5 -57.05 -22.35 -57.05 -22.35 -57.45" fill="#999999" fill-rule="evenodd" stroke="none"/>
    <path d="M-21.25 -57.45 L-20.4 -57.45 -20.4 -57.05 -21.25 -57.05 -21.25 -57.45" fill="#999999" fill-rule="evenodd" stroke="none"/>
    <path d="M-20.2 -57.45 L-19.35 -57.45 -19.35 -57.05 -20.2 -57.05 -20.2 -57.45" fill="#999999" fill-rule="evenodd" stroke="none"/>
    <path d="M-19.15 -57.4 L-18.3 -57.4 -18.3 -57.0 -19.15 -57.0 -19.15 -57.4" fill="#999999" fill-rule="evenodd" stroke="none"/>
    <path d="M-18.1 -57.4 L-17.25 -57.4 -17.25 -57.0 -18.1 -57.0 -18.1 -57.4" fill="#999999" fill-rule="evenodd" stroke="none"/>
    <path d="M-17.05 -57.4 L-16.2 -57.4 -16.2 -57.0 -17.05 -57.0 -17.05 -57.4" fill="#999999" fill-rule="evenodd" stroke="none"/>
    <path d="M-15.95 -57.4 L-15.1 -57.4 -15.1 -57.0 -15.95 -57.0 -15.95 -57.4" fill="#999999" fill-rule="evenodd" stroke="none"/>
    <path d="M-29.75 -54.15 L-28.9 -54.15 -28.9 -53.75 -29.75 -53.75 -29.75 -54.15" fill="#999999" fill-rule="evenodd" stroke="none"/>
    <path d="M-28.7 -54.1 L-27.85 -54.1 -27.85 -53.7 -28.7 -53.7 -28.7 -54.1" fill="#999999" fill-rule="evenodd" stroke="none"/>
    <path d="M-27.65 -54.2 L-26.8 -54.2 -26.8 -53.8 -27.65 -53.8 -27.65 -54.2" fill="#999999" fill-rule="evenodd" stroke="none"/>
    <path d="M-26.55 -54.15 L-25.7 -54.15 -25.7 -53.75 -26.55 -53.75 -26.55 -54.15" fill="#999999" fill-rule="evenodd" stroke="none"/>
    <path d="M-25.5 -54.15 L-24.65 -54.15 -24.65 -53.75 -25.5 -53.75 -25.5 -54.15" fill="#999999" fill-rule="evenodd" stroke="none"/>
    <path d="M-24.45 -54.15 L-23.6 -54.15 -23.6 -53.75 -24.45 -53.75 -24.45 -54.15" fill="#999999" fill-rule="evenodd" stroke="none"/>
    <path d="M-23.4 -54.1 L-22.55 -54.1 -22.55 -53.7 -23.4 -53.7 -23.4 -54.1" fill="#999999" fill-rule="evenodd" stroke="none"/>
    <path d="M-22.35 -54.15 L-21.5 -54.15 -21.5 -53.75 -22.35 -53.75 -22.35 -54.15" fill="#999999" fill-rule="evenodd" stroke="none"/>
    <path d="M-21.3 -54.15 L-20.45 -54.15 -20.45 -53.75 -21.3 -53.75 -21.3 -54.15" fill="#999999" fill-rule="evenodd" stroke="none"/>
    <path d="M-20.2 -54.15 L-19.35 -54.15 -19.35 -53.75 -20.2 -53.75 -20.2 -54.15" fill="#999999" fill-rule="evenodd" stroke="none"/>
    <path d="M-19.15 -54.1 L-18.3 -54.1 -18.3 -53.7 -19.15 -53.7 -19.15 -54.1" fill="#999999" fill-rule="evenodd" stroke="none"/>
    <path d="M-18.1 -54.1 L-17.25 -54.1 -17.25 -53.7 -18.1 -53.7 -18.1 -54.1" fill="#999999" fill-rule="evenodd" stroke="none"/>
    <path d="M-17.05 -54.1 L-16.2 -54.1 -16.2 -53.7 -17.05 -53.7 -17.05 -54.1" fill="#999999" fill-rule="evenodd" stroke="none"/>
    <path d="M-16.0 -54.1 L-15.15 -54.1 -15.15 -53.7 -16.0 -53.7 -16.0 -54.1" fill="#999999" fill-rule="evenodd" stroke="none"/>
    <path d="M-21.9 -52.1 L-21.9 -52.15 -20.5 -53.95 Q-17.7 -56.7 -13.75 -56.7 -9.8 -56.7 -7.05 -53.95 -4.25 -51.15 -4.25 -47.2 -4.25 -44.8 -5.3 -42.8 -8.2 -39.95 -12.2 -39.95 -16.3 -39.95 -19.25 -42.9 -22.15 -45.8 -22.15 -49.9 L-21.9 -52.1" fill="#f5f2f2" fill-rule="evenodd" stroke="none"/>
    <path d="M-5.3 -42.8 L-6.15 -41.45 -6.9 -40.6 -7.05 -40.5 Q-9.8 -37.7 -13.75 -37.7 -17.7 -37.7 -20.5 -40.5 -23.25 -43.25 -23.25 -47.2 L-23.25 -47.3 -23.2 -47.85 -22.8 -50.15 -22.45 -51.1 -22.3 -51.35 -22.05 -51.8 -21.9 -52.1 -22.15 -49.9 Q-22.15 -45.8 -19.25 -42.9 -16.3 -39.95 -12.2 -39.95 -8.2 -39.95 -5.3 -42.8" fill="#ebdfdf" fill-rule="evenodd" stroke="none"/>
    <path d="M-5.3 -42.8 Q-8.2 -39.95 -12.2 -39.95 -16.3 -39.95 -19.25 -42.9 -22.15 -45.8 -22.15 -49.9 L-21.9 -52.1" fill="none" stroke="#cf7c7c" stroke-linecap="round" stroke-linejoin="round" stroke-width="0.1"/>
    <path d="M33.15 -7.0 Q32.6 -7.0 32.2 -7.4 31.85 -7.8 31.85 -8.4 L32.15 -19.55 Q32.2 -20.1 32.55 -20.55 32.95 -20.95 33.5 -20.95 34.05 -20.9 34.45 -20.5 34.8 -20.05 34.75 -19.5 L34.45 -8.35 Q34.45 -7.75 34.1 -7.35 33.7 -6.95 33.15 -7.0" fill="#55595c" fill-rule="evenodd" stroke="none"/>
    <path d="M32.7 -10.05 L32.7 -10.0 32.7 -10.05" fill="#c0d0e0" fill-rule="evenodd" stroke="none"/>
    <path d="M36.75 -18.0 L36.2 -18.0 34.65 -18.05 34.65 -17.9 36.8 -17.85 36.8 -18.0 36.75 -18.0" fill="#ffffff" fill-rule="evenodd" stroke="none"/>
    <path d="M33.75 -20.8 L33.6 -20.7 Q33.0 -20.1 32.95 -19.2 L32.95 -18.1 33.7 -18.1 33.75 -20.8 M32.95 -17.8 L32.85 -14.4 33.6 -14.4 33.7 -17.8 32.95 -17.8 M32.85 -14.1 L32.8 -13.95 32.75 -13.95 32.7 -13.9 32.7 -13.85 32.7 -13.75 32.8 -13.65 32.75 -10.55 32.65 -10.5 33.5 -10.5 33.6 -14.1 32.85 -14.1 M32.6 -10.2 L32.7 -10.05 32.7 -10.0 32.8 -9.9 Q32.95 -9.7 33.25 -9.55 L33.4 -9.45 33.45 -9.45 33.45 -10.2 32.6 -10.2 M30.15 -8.9 Q29.8 -8.45 29.8 -7.8 L29.9 -7.15 31.25 -7.1 31.15 -7.85 31.35 -8.85 30.15 -8.9 M31.65 -7.1 L34.1 -7.0 Q33.65 -7.7 33.45 -8.8 L33.45 -9.4 32.0 -8.8 31.75 -8.85 31.7 -8.75 31.55 -7.85 31.65 -7.1" fill="#dddfe0" fill-rule="evenodd" stroke="none"/>
    <path d="M31.9 -9.8 L31.8 -9.85 Q31.0 -9.8 30.45 -9.25 L30.15 -8.9 31.35 -8.85 31.5 -9.25 31.55 -9.4 31.9 -9.8 M29.9 -7.15 Q30.0 -6.65 30.35 -6.25 30.9 -5.7 31.7 -5.65 L31.8 -5.6 34.65 -5.55 34.75 -5.55 35.5 -5.65 36.15 -6.1 Q34.85 -5.85 34.1 -7.0 L31.65 -7.1 31.85 -6.4 Q32.15 -5.85 32.6 -5.85 L32.65 -5.8 32.7 -5.75 32.65 -5.65 32.6 -5.65 32.45 -5.65 32.4 -5.65 Q31.85 -5.65 31.45 -6.35 L31.25 -7.1 29.9 -7.15 M32.8 -9.9 L32.75 -9.85 32.7 -9.8 32.5 -9.8 32.3 -9.7 31.95 -9.25 31.85 -9.2 31.75 -8.85 32.0 -8.8 33.45 -9.4 33.45 -9.45 33.4 -9.45 33.25 -9.55 Q32.95 -9.7 32.8 -9.9" fill="#babcbd" fill-rule="evenodd" stroke="none"/>
    <path d="M32.95 -18.1 L32.85 -18.05 32.85 -18.0 32.85 -17.95 34.65 -17.9 34.65 -18.05 33.7 -18.1 32.95 -18.1 M32.85 -14.4 L32.75 -14.4 32.7 -14.35 32.65 -14.3 32.7 -14.2 32.75 -14.2 37.05 -14.1 37.1 -14.1 37.15 -14.1 37.2 -14.2 37.15 -14.25 37.1 -14.3 37.0 -14.3 36.65 -14.3 36.1 -14.3 33.6 -14.4 32.85 -14.4 M32.65 -10.5 L32.55 -10.45 32.55 -10.4 32.5 -10.35 32.55 -10.3 32.6 -10.3 36.85 -10.2 36.95 -10.2 37.0 -10.25 37.1 -10.3 37.05 -10.35 37.0 -10.4 36.95 -10.4 36.55 -10.4 36.0 -10.4 33.5 -10.5 32.65 -10.5 M37.15 -17.8 L37.2 -17.9 37.15 -17.95 37.1 -18.0 36.8 -18.0 36.8 -17.85 37.05 -17.85 37.1 -17.85 37.15 -17.8" fill="#f2f2f2" fill-rule="evenodd" stroke="none"/>
    <path d="M36.8 -20.25 L36.75 -18.0 36.8 -18.0 37.1 -18.0 37.1 -19.1 36.85 -20.2 36.8 -20.25 M36.2 -18.0 L36.25 -20.85 35.05 -21.25 34.7 -21.2 33.75 -20.8 33.7 -18.1 34.65 -18.05 36.2 -18.0 M32.7 -10.0 L32.5 -10.0 32.2 -9.85 32.1 -9.8 31.75 -9.4 31.7 -9.25 31.55 -8.9 31.55 -8.85 31.5 -8.75 Q31.35 -8.35 31.35 -7.85 L31.45 -7.1 31.65 -6.35 Q32.0 -5.75 32.45 -5.65 L32.6 -5.65 32.65 -5.65 32.7 -5.75 32.65 -5.8 32.6 -5.85 Q32.15 -5.85 31.85 -6.4 L31.65 -7.1 31.55 -7.85 31.7 -8.75 31.75 -8.85 31.85 -9.2 31.95 -9.25 32.3 -9.7 32.5 -9.8 32.7 -9.8 32.75 -9.85 32.8 -9.9 32.7 -10.0 M36.15 -6.1 L36.55 -6.6 36.8 -7.6 36.85 -9.95 36.95 -10.2 36.85 -10.2 36.9 -10.15 36.85 -10.1 36.8 -10.1 36.5 -10.1 36.45 -7.8 35.95 -8.95 35.95 -10.1 33.45 -10.2 33.45 -9.45 33.45 -9.4 33.45 -8.8 Q33.65 -7.7 34.1 -7.0 34.85 -5.85 36.15 -6.1 M36.95 -10.4 L36.9 -10.45 36.95 -13.55 37.05 -13.65 37.05 -13.75 37.0 -13.8 36.95 -13.85 37.0 -14.0 36.65 -14.0 36.55 -10.4 36.95 -10.4 M37.0 -14.3 L37.1 -17.75 37.05 -17.7 36.75 -17.7 36.65 -14.3 37.0 -14.3 M36.1 -14.0 L33.6 -14.1 33.5 -10.5 36.0 -10.4 36.1 -14.0 M36.2 -17.7 L33.7 -17.8 33.6 -14.4 36.1 -14.3 36.2 -17.7" fill="#e6e6e6" fill-rule="evenodd" stroke="none"/>
    <path d="M32.5 -10.0 L32.0 -9.85 31.9 -9.8 31.55 -9.4 31.5 -9.25 31.35 -8.85 31.15 -7.85 31.25 -7.1 31.45 -6.35 Q31.85 -5.65 32.4 -5.65 L32.45 -5.65 Q32.0 -5.75 31.65 -6.35 L31.45 -7.1 31.35 -7.85 Q31.35 -8.35 31.5 -8.75 L31.55 -8.85 31.55 -8.9 31.7 -9.25 31.75 -9.4 32.1 -9.8 32.2 -9.85 32.5 -10.0" fill="#a9acad" fill-rule="evenodd" stroke="none"/>
    <path d="M36.8 -20.25 L36.55 -20.6 36.25 -20.85 36.2 -18.0 36.75 -18.0 36.8 -20.25 M36.65 -14.0 L36.1 -14.0 36.0 -10.4 36.55 -10.4 36.65 -14.0 M36.1 -14.3 L36.65 -14.3 36.75 -17.7 36.2 -17.7 36.1 -14.3 M35.95 -10.1 L35.95 -8.95 36.45 -7.8 36.5 -10.1 35.95 -10.1" fill="#f5f2f2" fill-rule="evenodd" stroke="none"/>
    <path d="M32.85 -17.95 L32.75 -17.95 32.7 -17.95 32.65 -17.9 32.7 -17.85 32.75 -17.8 32.95 -17.8 33.7 -17.8 36.2 -17.7 36.75 -17.7 37.05 -17.7 37.1 -17.75 37.15 -17.8 37.1 -17.85 37.05 -17.85 36.8 -17.85 34.65 -17.9 32.85 -17.95 M32.7 -14.2 L32.65 -14.2 32.6 -14.2 32.55 -14.15 32.6 -14.1 32.65 -14.1 32.85 -14.1 33.6 -14.1 36.1 -14.0 36.65 -14.0 37.0 -14.0 37.05 -14.0 37.05 -14.05 37.05 -14.1 32.75 -14.2 32.7 -14.2 M32.55 -10.3 L32.5 -10.3 32.45 -10.3 32.4 -10.25 32.45 -10.2 32.5 -10.2 32.6 -10.2 33.45 -10.2 35.95 -10.1 36.5 -10.1 36.8 -10.1 36.85 -10.1 36.9 -10.15 36.85 -10.2 32.6 -10.3 32.55 -10.3" fill="#9da0a1" fill-rule="evenodd" stroke="none"/>
    <path d="M28.15 -7.0 Q27.6 -7.0 27.2 -7.4 26.85 -7.8 26.85 -8.4 L27.15 -19.55 Q27.2 -20.1 27.55 -20.55 27.95 -20.95 28.5 -20.95 29.05 -20.9 29.45 -20.5 29.8 -20.05 29.75 -19.5 L29.45 -8.35 Q29.45 -7.75 29.1 -7.35 28.7 -6.95 28.15 -7.0" fill="#55595c" fill-rule="evenodd" stroke="none"/>
    <path d="M27.7 -10.05 L27.7 -10.0 27.7 -10.05" fill="#c0d0e0" fill-rule="evenodd" stroke="none"/>
    <path d="M31.75 -18.0 L31.2 -18.0 29.65 -18.05 29.65 -17.9 31.8 -17.85 31.8 -18.0 31.75 -18.0" fill="#ffffff" fill-rule="evenodd" stroke="none"/>
    <path d="M28.75 -20.8 L28.6 -20.7 Q28.0 -20.1 27.95 -19.2 L27.95 -18.1 28.7 -18.1 28.75 -20.8 M27.95 -17.8 L27.85 -14.4 28.6 -14.4 28.7 -17.8 27.95 -17.8 M27.85 -14.1 L27.8 -13.95 27.75 -13.95 27.7 -13.9 27.7 -13.85 27.7 -13.75 27.8 -13.65 27.75 -10.55 27.65 -10.5 28.5 -10.5 28.6 -14.1 27.85 -14.1 M27.6 -10.2 L27.7 -10.05 27.7 -10.0 27.8 -9.9 28.25 -9.55 28.4 -9.45 28.45 -9.45 28.45 -10.2 27.6 -10.2 M25.15 -8.9 Q24.8 -8.45 24.8 -7.8 L24.9 -7.15 26.25 -7.1 26.15 -7.85 26.35 -8.85 25.15 -8.9 M26.65 -7.1 L29.1 -7.0 Q28.65 -7.7 28.45 -8.8 L28.45 -9.4 27.0 -8.8 26.75 -8.85 26.7 -8.75 Q26.55 -8.35 26.55 -7.85 L26.65 -7.1" fill="#dddfe0" fill-rule="evenodd" stroke="none"/>
    <path d="M26.9 -9.8 L26.8 -9.85 Q26.0 -9.8 25.45 -9.25 L25.15 -8.9 26.35 -8.85 26.5 -9.25 26.55 -9.4 26.9 -9.8 M24.9 -7.15 Q25.0 -6.65 25.35 -6.25 25.9 -5.7 26.7 -5.65 L26.8 -5.6 29.65 -5.55 29.75 -5.55 30.5 -5.65 Q30.85 -5.8 31.15 -6.1 29.85 -5.85 29.1 -7.0 L26.65 -7.1 26.85 -6.4 Q27.15 -5.85 27.6 -5.85 L27.65 -5.8 27.7 -5.75 27.65 -5.65 27.6 -5.65 27.45 -5.65 27.4 -5.65 Q26.85 -5.65 26.45 -6.35 L26.25 -7.1 24.9 -7.15 M27.8 -9.9 L27.75 -9.85 27.7 -9.8 27.5 -9.8 27.3 -9.7 26.95 -9.25 26.85 -9.2 26.75 -8.85 27.0 -8.8 28.45 -9.4 28.45 -9.45 28.4 -9.45 28.25 -9.55 27.8 -9.9" fill="#babcbd" fill-rule="evenodd" stroke="none"/>
    <path d="M27.95 -18.1 L27.85 -18.05 27.85 -18.0 27.85 -17.95 29.65 -17.9 29.65 -18.05 28.7 -18.1 27.95 -18.1 M27.85 -14.4 L27.75 -14.4 27.7 -14.35 27.65 -14.3 27.7 -14.2 27.75 -14.2 32.05 -14.1 32.1 -14.1 32.15 -14.1 32.2 -14.2 32.15 -14.25 32.1 -14.3 32.0 -14.3 31.65 -14.3 31.1 -14.3 28.6 -14.4 27.85 -14.4 M27.65 -10.5 L27.55 -10.45 27.55 -10.4 27.5 -10.35 27.55 -10.3 27.6 -10.3 31.85 -10.2 31.95 -10.2 32.0 -10.25 32.1 -10.3 32.05 -10.35 32.0 -10.4 31.95 -10.4 31.55 -10.4 31.0 -10.4 28.5 -10.5 27.65 -10.5 M32.15 -17.8 L32.2 -17.9 32.15 -17.95 32.1 -18.0 31.8 -18.0 31.8 -17.85 32.05 -17.85 32.1 -17.85 32.15 -17.8" fill="#f2f2f2" fill-rule="evenodd" stroke="none"/>
    <path d="M31.8 -20.25 L31.75 -18.0 31.8 -18.0 32.1 -18.0 32.1 -19.1 31.85 -20.2 31.8 -20.25 M31.2 -18.0 L31.25 -20.85 Q30.7 -21.25 30.05 -21.25 L29.7 -21.2 Q29.15 -21.15 28.75 -20.8 L28.7 -18.1 29.65 -18.05 31.2 -18.0 M27.7 -10.0 L27.5 -10.0 27.2 -9.85 27.1 -9.8 26.75 -9.4 26.7 -9.25 26.55 -8.9 26.55 -8.85 26.5 -8.75 26.35 -7.85 26.45 -7.1 26.65 -6.35 Q27.0 -5.75 27.45 -5.65 L27.6 -5.65 27.65 -5.65 27.7 -5.75 27.65 -5.8 27.6 -5.85 Q27.15 -5.85 26.85 -6.4 L26.65 -7.1 26.55 -7.85 Q26.55 -8.35 26.7 -8.75 L26.75 -8.85 26.85 -9.2 26.95 -9.25 27.3 -9.7 27.5 -9.8 27.7 -9.8 27.75 -9.85 27.8 -9.9 27.7 -10.0 M31.15 -6.1 L31.55 -6.6 31.8 -7.6 31.85 -9.95 31.95 -10.2 31.85 -10.2 31.9 -10.15 31.85 -10.1 31.8 -10.1 31.5 -10.1 31.45 -7.8 30.95 -8.95 30.95 -10.1 28.45 -10.2 28.45 -9.45 28.45 -9.4 28.45 -8.8 Q28.65 -7.7 29.1 -7.0 29.85 -5.85 31.15 -6.1 M31.95 -10.4 L31.9 -10.45 31.95 -13.55 32.05 -13.65 32.05 -13.75 32.0 -13.8 31.95 -13.85 32.0 -14.0 31.65 -14.0 31.55 -10.4 31.95 -10.4 M32.0 -14.3 L32.1 -17.75 32.05 -17.7 31.75 -17.7 31.65 -14.3 32.0 -14.3 M31.1 -14.0 L28.6 -14.1 28.5 -10.5 31.0 -10.4 31.1 -14.0 M31.2 -17.7 L28.7 -17.8 28.6 -14.4 31.1 -14.3 31.2 -17.7" fill="#e6e6e6" fill-rule="evenodd" stroke="none"/>
    <path d="M27.5 -10.0 L27.0 -9.85 26.9 -9.8 26.55 -9.4 26.5 -9.25 26.35 -8.85 26.15 -7.85 26.25 -7.1 26.45 -6.35 Q26.85 -5.65 27.4 -5.65 L27.45 -5.65 Q27.0 -5.75 26.65 -6.35 L26.45 -7.1 26.35 -7.85 26.5 -8.75 26.55 -8.85 26.55 -8.9 26.7 -9.25 26.75 -9.4 27.1 -9.8 27.2 -9.85 27.5 -10.0" fill="#a9acad" fill-rule="evenodd" stroke="none"/>
    <path d="M31.8 -20.25 L31.55 -20.6 31.25 -20.85 31.2 -18.0 31.75 -18.0 31.8 -20.25 M31.65 -14.0 L31.1 -14.0 31.0 -10.4 31.55 -10.4 31.65 -14.0 M31.1 -14.3 L31.65 -14.3 31.75 -17.7 31.2 -17.7 31.1 -14.3 M30.95 -10.1 L30.95 -8.95 31.45 -7.8 31.5 -10.1 30.95 -10.1" fill="#f5f2f2" fill-rule="evenodd" stroke="none"/>
    <path d="M27.85 -17.95 L27.75 -17.95 27.7 -17.95 27.65 -17.9 27.7 -17.85 27.75 -17.8 27.95 -17.8 28.7 -17.8 31.2 -17.7 31.75 -17.7 32.05 -17.7 32.1 -17.75 32.15 -17.8 32.1 -17.85 32.05 -17.85 31.8 -17.85 29.65 -17.9 27.85 -17.95 M27.7 -14.2 L27.65 -14.2 27.6 -14.2 27.55 -14.15 27.6 -14.1 27.65 -14.1 27.85 -14.1 28.6 -14.1 31.1 -14.0 31.65 -14.0 32.0 -14.0 32.05 -14.0 32.05 -14.05 32.05 -14.1 27.75 -14.2 27.7 -14.2 M27.55 -10.3 L27.5 -10.3 27.45 -10.3 27.4 -10.25 27.45 -10.2 27.5 -10.2 27.6 -10.2 28.45 -10.2 30.95 -10.1 31.5 -10.1 31.8 -10.1 31.85 -10.1 31.9 -10.15 31.85 -10.2 27.6 -10.3 27.55 -10.3" fill="#9da0a1" fill-rule="evenodd" stroke="none"/>
    <path d="M-49.4 -44.9 L-49.35 -44.9 Q-46.8 -44.2 -45.5 -41.95 -44.15 -39.65 -44.85 -37.1 L-53.95 -3.0 Q-54.65 -0.5 -56.95 0.75 -59.2 2.15 -61.75 1.45 L-61.8 1.45 Q-64.3 0.8 -65.6 -1.55 -66.95 -3.8 -66.25 -6.3 L-57.15 -40.4 Q-56.45 -42.95 -54.15 -44.25 -51.9 -45.55 -49.4 -44.9" fill="#4f3939" fill-rule="evenodd" stroke="none"/>
    <path d="M-57.9 -47.6 L-57.9 -47.65 -56.5 -49.45 Q-53.7 -52.2 -49.75 -52.2 -45.8 -52.2 -43.05 -49.45 -40.25 -46.65 -40.25 -42.7 -40.25 -40.3 -41.3 -38.3 -44.2 -35.45 -48.2 -35.45 -52.3 -35.45 -55.25 -38.4 -58.15 -41.3 -58.15 -45.4 L-57.9 -47.6" fill="#e6e6e6" fill-rule="evenodd" stroke="none"/>
    <path d="M-41.3 -38.3 L-42.15 -36.95 -42.9 -36.1 -43.05 -36.0 Q-45.8 -33.2 -49.75 -33.2 -53.7 -33.2 -56.5 -36.0 -59.25 -38.75 -59.25 -42.7 L-59.25 -42.8 -59.2 -43.35 -58.8 -45.65 -58.45 -46.6 -58.3 -46.85 -58.05 -47.3 -57.9 -47.6 -58.15 -45.4 Q-58.15 -41.3 -55.25 -38.4 -52.3 -35.45 -48.2 -35.45 -44.2 -35.45 -41.3 -38.3" fill="#cfbcbc" fill-rule="evenodd" stroke="none"/>
    <path d="M-41.3 -38.3 Q-44.2 -35.45 -48.2 -35.45 -52.3 -35.45 -55.25 -38.4 -58.15 -41.3 -58.15 -45.4 L-57.9 -47.6" fill="none" stroke="#962525" stroke-linecap="round" stroke-linejoin="round" stroke-width="0.1"/>
  </g>
  <defs>
    <linearGradient gradientTransform="matrix(0.0, -0.0757, 0.029, 0.0, -33.3, 9.95)" gradientUnits="userSpaceOnUse" id="gradient0" spreadMethod="pad" x1="-819.2" x2="819.2">
      <stop offset="0.0" stop-color="#e0dddd"/>
      <stop offset="0.9764705882352941" stop-color="#f5f2f2"/>
    </linearGradient>
    <linearGradient gradientTransform="matrix(0.0757, 1.0E-4, 0.0, 0.029, -29.15, -26.5)" gradientUnits="userSpaceOnUse" id="gradient1" spreadMethod="pad" x1="-819.2" x2="819.2">
      <stop offset="0.0" stop-color="#e0dddd"/>
      <stop offset="0.9764705882352941" stop-color="#f5f2f2"/>
    </linearGradient>
    <linearGradient gradientTransform="matrix(0.0, -0.0234, 0.0238, 0.0, 18.45, -34.7)" gradientUnits="userSpaceOnUse" id="gradient2" spreadMethod="pad" x1="-819.2" x2="819.2">
      <stop offset="0.03529411764705882" stop-color="#e6e6e6"/>
      <stop offset="0.9764705882352941" stop-color="#f5f2f2"/>
    </linearGradient>
    <linearGradient gradientTransform="matrix(0.0, -0.0757, 0.05, 0.0, 55.4, 6.3)" gradientUnits="userSpaceOnUse" id="gradient3" spreadMethod="pad" x1="-819.2" x2="819.2">
      <stop offset="0.0" stop-color="#e0dddd"/>
      <stop offset="0.9764705882352941" stop-color="#f5f2f2"/>
    </linearGradient>
    <linearGradient gradientTransform="matrix(0.0, -0.0757, 0.029, 0.0, -30.8, 4.95)" gradientUnits="userSpaceOnUse" id="gradient4" spreadMethod="pad" x1="-819.2" x2="819.2">
      <stop offset="0.0" stop-color="#e0dddd"/>
      <stop offset="0.9764705882352941" stop-color="#f5f2f2"/>
    </linearGradient>
    <linearGradient gradientTransform="matrix(-1.0E-4, -0.0134, 0.029, -2.0E-4, -39.55, 22.7)" gradientUnits="userSpaceOnUse" id="gradient5" spreadMethod="pad" x1="-819.2" x2="819.2">
      <stop offset="0.0" stop-color="#e0dddd"/>
      <stop offset="0.9764705882352941" stop-color="#f5f2f2"/>
    </linearGradient>
    <linearGradient gradientTransform="matrix(1.0E-4, -0.0134, 0.029, 2.0E-4, -11.85, 23.85)" gradientUnits="userSpaceOnUse" id="gradient6" spreadMethod="pad" x1="-819.2" x2="819.2">
      <stop offset="0.0" stop-color="#e0dddd"/>
      <stop offset="0.9764705882352941" stop-color="#f5f2f2"/>
    </linearGradient>
  </defs>
</svg>
