<?xml version="1.0" encoding="UTF-8" standalone="no"?>
<svg xmlns:ffdec="https://www.free-decompiler.com/flash" xmlns:xlink="http://www.w3.org/1999/xlink" ffdec:objectType="shape" height="90.3px" width="63.3px" xmlns="http://www.w3.org/2000/svg">
  <g transform="matrix(1.0, 0.0, 0.0, 1.0, -81.7, -54.65)">
    <path d="M144.75 67.85 L144.75 68.45 137.0 68.5 117.15 68.5 Q112.15 68.4 108.55 64.55 104.8 60.55 104.75 54.8 L104.75 54.7 104.75 54.65 105.3 54.65 105.3 54.8 Q105.35 60.3 108.9 64.1 112.5 67.8 117.15 67.9 L137.0 67.9 144.75 67.85 M144.8 76.8 L144.8 77.4 124.1 77.6 123.9 77.65 123.75 77.6 Q121.5 77.65 120.0 79.05 118.5 80.45 118.5 82.85 118.55 85.25 120.1 87.0 121.7 88.55 123.95 88.55 L124.1 88.5 124.3 88.55 144.9 88.35 144.9 88.95 137.15 89.05 123.95 89.15 Q121.5 89.2 119.75 87.35 118.0 85.5 117.95 82.85 117.95 80.15 119.65 78.6 121.25 77.05 123.75 77.0 L137.05 76.9 144.8 76.8 M145.0 99.25 L145.0 99.85 118.45 100.1 118.3 100.15 118.1 100.1 118.0 100.1 Q113.0 100.2 109.45 104.05 105.95 107.9 106.0 113.4 L106.0 113.5 106.05 113.55 106.0 113.75 106.1 144.75 105.55 144.75 105.45 113.4 Q105.4 107.65 109.05 103.6 112.8 99.6 118.0 99.5 L118.1 99.5 137.25 99.35 145.0 99.25 M95.85 144.85 L95.15 144.85 94.5 55.15 95.2 55.15 95.85 144.85 M94.05 144.85 L93.3 144.85 92.65 55.15 93.4 55.15 94.05 144.85 M83.6 144.95 L83.05 144.95 82.4 55.25 82.95 55.25 83.6 144.95" fill="#555951" fill-rule="evenodd" stroke="none"/>
    <path d="M144.75 67.85 L137.0 67.9 117.15 67.9 Q112.5 67.8 108.9 64.1 105.35 60.3 105.3 54.8 L105.3 54.65 106.0 54.65 106.0 54.7 106.05 54.8 Q106.1 60.0 109.4 63.55 112.55 66.85 117.15 67.1 L137.0 67.1 144.75 67.05 144.75 67.85 M144.8 77.4 L144.85 78.2 124.15 78.4 123.95 78.35 123.8 78.4 Q121.8 78.4 120.5 79.65 119.25 80.85 119.25 82.85 119.25 84.95 120.6 86.45 122.0 87.75 123.95 87.75 L124.1 87.8 124.3 87.75 144.9 87.55 144.9 88.35 124.3 88.55 124.1 88.5 123.95 88.55 Q121.7 88.55 120.1 87.0 118.55 85.25 118.5 82.85 118.5 80.45 120.0 79.05 121.5 77.65 123.75 77.6 L123.9 77.65 124.1 77.6 144.8 77.4 M145.0 99.85 L145.0 100.6 118.45 100.85 118.3 100.8 118.1 100.85 118.0 100.85 Q113.35 100.95 109.95 104.6 106.7 108.2 106.75 113.4 L106.7 113.5 106.7 113.55 106.75 113.75 106.85 144.75 106.1 144.75 106.0 113.75 106.05 113.55 106.0 113.5 106.0 113.4 Q105.95 107.9 109.45 104.05 113.0 100.2 118.0 100.1 L118.1 100.1 118.3 100.15 118.45 100.1 145.0 99.85 M95.15 144.85 L94.05 144.85 93.4 55.15 94.5 55.15 95.15 144.85 M83.05 144.95 L82.35 144.95 81.7 55.25 82.4 55.25 83.05 144.95 M100.5 127.1 L100.4 127.3 100.25 127.35 100.1 127.3 100.05 127.1 100.0 121.15 100.05 121.0 Q100.15 120.9 100.2 120.9 L100.35 121.0 100.45 121.15 100.5 127.1 M100.3 132.85 L100.45 132.95 100.55 133.1 100.55 139.1 100.45 139.3 100.3 139.35 100.15 139.3 100.1 139.1 100.1 133.1 100.15 132.95 100.3 132.85" fill="#eaeae1" fill-rule="evenodd" stroke="none"/>
    <path d="M104.75 54.7 L104.75 54.8 Q104.8 60.55 108.55 64.55 112.15 68.4 117.15 68.5 L137.0 68.5 137.05 76.9 123.75 77.0 Q121.25 77.05 119.65 78.6 117.95 80.15 117.95 82.85 118.0 85.5 119.75 87.35 121.5 89.2 123.95 89.15 L137.15 89.05 137.25 99.35 118.1 99.5 118.0 99.5 Q112.8 99.6 109.05 103.6 105.4 107.65 105.45 113.4 L105.55 144.75 95.85 144.85 95.2 55.15 94.5 55.15 93.4 55.15 92.65 55.15 93.3 144.85 83.6 144.95 82.95 55.25 104.75 54.7 M100.3 132.85 L100.15 132.95 100.1 133.1 100.1 139.1 100.15 139.3 100.3 139.35 100.45 139.3 100.55 139.1 100.55 133.1 100.45 132.95 100.3 132.85 M100.5 127.1 L100.45 121.15 100.35 121.0 100.2 120.9 Q100.15 120.9 100.05 121.0 L100.0 121.15 100.05 127.1 100.1 127.3 100.25 127.35 100.4 127.3 100.5 127.1" fill="url(#gradient0)" fill-rule="evenodd" stroke="none"/>
    <path d="M137.0 68.5 L144.75 68.45 144.8 76.8 137.05 76.9 137.0 68.5 M144.9 88.95 L145.0 99.25 137.25 99.35 137.15 89.05 144.9 88.95" fill="url(#gradient1)" fill-rule="evenodd" stroke="none"/>
  </g>
  <defs>
    <radialGradient cx="0" cy="0" gradientTransform="matrix(0.0665, -6.0E-4, 8.0E-4, 0.1114, 167.75, 197.4)" gradientUnits="userSpaceOnUse" id="gradient0" r="819.2" spreadMethod="pad">
      <stop offset="0.0" stop-color="#bcc2ba"/>
      <stop offset="1.0" stop-color="#7e8979"/>
    </radialGradient>
    <radialGradient cx="0" cy="0" gradientTransform="matrix(0.1937, -0.0017, 8.0E-4, 0.1114, 224.75, 196.9)" gradientUnits="userSpaceOnUse" id="gradient1" r="819.2" spreadMethod="pad">
      <stop offset="0.0" stop-color="#bcc2ba"/>
      <stop offset="1.0" stop-color="#7e8979"/>
    </radialGradient>
  </defs>
</svg>
