<?xml version="1.0" encoding="UTF-8" standalone="no"?>
<svg xmlns:ffdec="https://www.free-decompiler.com/flash" xmlns:xlink="http://www.w3.org/1999/xlink" ffdec:objectType="shape" height="53.3px" width="34.55px" xmlns="http://www.w3.org/2000/svg">
  <g transform="matrix(1.0, 0.0, 0.0, 1.0, -100.05, -61.05)">
    <path d="M134.35 73.2 L134.15 73.3 128.65 73.45 128.45 73.35 128.35 73.1 128.4 72.9 128.65 72.85 134.15 72.7 134.35 72.75 134.45 73.0 134.35 73.2 M123.55 93.6 L123.45 93.85 123.3 93.9 119.75 93.85 117.8 93.85 117.6 93.75 117.5 93.55 117.6 93.35 117.8 93.25 119.75 93.25 123.3 93.3 Q123.45 93.3 123.45 93.4 L123.55 93.6 M100.6 114.05 L100.5 114.25 100.3 114.35 100.1 114.25 100.05 114.05 100.05 111.9 100.1 111.7 100.3 111.6 100.5 111.7 100.6 111.95 100.6 114.05 M103.75 100.4 L103.7 100.6 Q102.2 102.95 101.4 105.9 L101.3 106.1 101.1 106.1 100.9 105.95 100.9 105.75 Q101.7 102.65 103.25 100.3 L103.4 100.15 103.6 100.2 103.75 100.4 M107.25 96.45 L107.15 96.3 107.1 96.1 107.2 95.9 Q109.4 94.4 112.4 93.75 L112.6 93.8 112.75 94.0 112.7 94.25 112.5 94.35 Q109.55 95.0 107.5 96.4 L107.25 96.45 M134.3 93.45 L134.5 93.55 134.6 93.75 134.5 94.0 134.3 94.05 128.8 93.95 128.55 93.85 128.5 93.65 128.6 93.45 128.8 93.35 134.3 93.45 M123.15 73.5 L119.6 73.65 117.65 73.6 117.45 73.5 117.35 73.3 117.45 73.1 117.65 73.0 119.6 73.05 123.15 72.9 123.3 72.95 123.4 73.2 123.3 73.4 123.15 73.5 M112.45 73.15 L112.25 73.2 Q109.25 72.65 107.0 71.15 L106.9 70.95 106.95 70.75 107.05 70.6 107.3 70.65 Q109.4 72.05 112.35 72.6 L112.55 72.7 112.6 72.95 112.45 73.15 M103.0 66.85 Q101.4 64.45 100.55 61.35 L100.55 61.2 100.75 61.05 100.95 61.05 101.05 61.25 Q101.9 64.15 103.45 66.5 L103.5 66.75 103.35 66.95 103.15 67.0 103.0 66.85" fill="#cdccba" fill-rule="evenodd" stroke="none"/>
    <path d="M117.7 79.2 Q116.7 80.75 116.7 83.1 116.7 85.4 117.8 87.0 118.4 87.9 119.3 88.65 L100.1 83.25 119.45 77.4 Q118.35 78.15 117.7 79.2 M114.55 83.1 Q114.55 81.25 115.2 79.95 L104.3 83.3 115.25 86.3 Q114.55 84.9 114.55 83.1" fill="#cdccba" fill-rule="evenodd" stroke="none"/>
  </g>
</svg>
