<?xml version="1.0" encoding="UTF-8" standalone="no"?>
<svg xmlns:ffdec="https://www.free-decompiler.com/flash" xmlns:xlink="http://www.w3.org/1999/xlink" ffdec:objectType="shape" height="90.3px" width="63.3px" xmlns="http://www.w3.org/2000/svg">
  <g transform="matrix(1.0, 0.0, 0.0, 1.0, -42.7, 31.9)">
    <path d="M42.95 45.2 L42.95 44.6 50.7 44.55 70.55 44.55 Q75.55 44.65 79.15 48.5 82.9 52.5 82.95 58.25 L82.95 58.35 82.95 58.4 82.4 58.4 82.4 58.25 Q82.35 52.75 78.8 48.95 75.2 45.25 70.55 45.15 L50.7 45.15 42.95 45.2 M42.9 36.25 L42.9 35.65 63.6 35.45 63.8 35.4 63.95 35.45 Q66.2 35.4 67.7 34.0 69.2 32.6 69.2 30.2 69.15 27.8 67.6 26.05 66.0 24.5 63.75 24.5 L63.6 24.55 63.4 24.5 42.8 24.7 42.8 24.1 50.55 24.0 63.75 23.9 Q66.2 23.85 67.95 25.7 69.7 27.55 69.75 30.2 69.75 32.9 68.05 34.45 66.45 36.0 63.95 36.05 L50.65 36.15 42.9 36.25 M42.7 13.8 L42.7 13.2 69.25 12.95 69.4 12.9 69.6 12.95 69.7 12.95 Q74.7 12.85 78.25 9.0 81.75 5.15 81.7 -0.35 L81.7 -0.45 81.65 -0.5 81.7 -0.7 81.6 -31.7 82.15 -31.7 82.25 -0.35 Q82.3 5.4 78.65 9.45 74.9 13.45 69.7 13.55 L69.6 13.55 50.45 13.7 42.7 13.8 M91.85 -31.8 L92.55 -31.8 93.2 57.9 92.5 57.9 91.85 -31.8 M93.65 -31.8 L94.4 -31.8 95.05 57.9 94.3 57.9 93.65 -31.8 M104.1 -31.9 L104.65 -31.9 105.3 57.8 104.75 57.8 104.1 -31.9" fill="#555951" fill-rule="evenodd" stroke="none"/>
    <path d="M42.95 45.2 L50.7 45.15 70.55 45.15 Q75.2 45.25 78.8 48.95 82.35 52.75 82.4 58.25 L82.4 58.4 81.7 58.4 81.7 58.35 81.65 58.25 Q81.6 53.05 78.3 49.5 75.15 46.2 70.55 45.95 L50.7 45.95 42.95 46.0 42.95 45.2 M42.9 35.65 L42.85 34.85 63.55 34.65 63.75 34.7 63.9 34.65 Q65.9 34.65 67.2 33.4 68.45 32.2 68.45 30.2 68.45 28.1 67.1 26.6 65.7 25.3 63.75 25.3 L63.6 25.25 63.4 25.3 42.8 25.5 42.8 24.7 63.4 24.5 63.6 24.55 63.75 24.5 Q66.0 24.5 67.6 26.05 69.15 27.8 69.2 30.2 69.2 32.6 67.7 34.0 66.2 35.4 63.95 35.45 L63.8 35.4 63.6 35.45 42.9 35.65 M42.7 13.2 L42.7 12.45 69.25 12.2 69.4 12.25 69.6 12.2 69.7 12.2 Q74.35 12.1 77.75 8.45 81.0 4.85 80.95 -0.35 L81.0 -0.45 81.0 -0.5 80.95 -0.7 80.85 -31.7 81.6 -31.7 81.7 -0.7 81.65 -0.5 81.7 -0.45 81.7 -0.35 Q81.75 5.15 78.25 9.0 74.7 12.85 69.7 12.95 L69.6 12.95 69.4 12.9 69.25 12.95 42.7 13.2 M92.55 -31.8 L93.65 -31.8 94.3 57.9 93.2 57.9 92.55 -31.8 M104.65 -31.9 L105.35 -31.9 106.0 57.8 105.3 57.8 104.65 -31.9 M87.55 -19.9 L87.4 -19.8 87.25 -19.9 87.15 -20.05 87.15 -26.05 87.25 -26.25 87.4 -26.3 87.55 -26.25 87.6 -26.05 87.6 -20.05 87.55 -19.9 M87.2 -14.05 L87.3 -14.25 87.45 -14.3 87.6 -14.25 87.65 -14.05 87.7 -8.1 87.65 -7.95 87.5 -7.85 87.35 -7.95 87.25 -8.1 87.2 -14.05" fill="#eaeae1" fill-rule="evenodd" stroke="none"/>
    <path d="M82.95 58.35 L82.95 58.25 Q82.9 52.5 79.15 48.5 75.55 44.65 70.55 44.55 L50.7 44.55 50.65 36.15 63.95 36.05 Q66.45 36.0 68.05 34.45 69.75 32.9 69.75 30.2 69.7 27.55 67.95 25.7 66.2 23.85 63.75 23.9 L50.55 24.0 50.45 13.7 69.6 13.55 69.7 13.55 Q74.9 13.45 78.65 9.45 82.3 5.4 82.25 -0.35 L82.15 -31.7 91.85 -31.8 92.5 57.9 93.2 57.9 94.3 57.9 95.05 57.9 94.4 -31.8 104.1 -31.9 104.75 57.8 82.95 58.35 M87.2 -14.05 L87.25 -8.1 87.35 -7.95 87.5 -7.85 87.65 -7.95 87.7 -8.1 87.65 -14.05 87.6 -14.25 87.45 -14.3 87.3 -14.25 87.2 -14.05 M87.55 -19.9 L87.6 -20.05 87.6 -26.05 87.55 -26.25 87.4 -26.3 87.25 -26.25 87.15 -26.05 87.15 -20.05 87.25 -19.9 87.4 -19.8 87.55 -19.9" fill="url(#gradient0)" fill-rule="evenodd" stroke="none"/>
    <path d="M50.7 44.55 L42.95 44.6 42.9 36.25 50.65 36.15 50.7 44.55 M42.8 24.1 L42.7 13.8 50.45 13.7 50.55 24.0 42.8 24.1" fill="url(#gradient1)" fill-rule="evenodd" stroke="none"/>
  </g>
  <defs>
    <radialGradient cx="0" cy="0" gradientTransform="matrix(-0.0665, 6.0E-4, -8.0E-4, -0.1114, 19.95, -84.35)" gradientUnits="userSpaceOnUse" id="gradient0" r="819.2" spreadMethod="pad">
      <stop offset="0.0" stop-color="#bcc2ba"/>
      <stop offset="1.0" stop-color="#7e8979"/>
    </radialGradient>
    <radialGradient cx="0" cy="0" gradientTransform="matrix(-0.1937, 0.0017, -8.0E-4, -0.1114, -37.05, -83.85)" gradientUnits="userSpaceOnUse" id="gradient1" r="819.2" spreadMethod="pad">
      <stop offset="0.0" stop-color="#bcc2ba"/>
      <stop offset="1.0" stop-color="#7e8979"/>
    </radialGradient>
  </defs>
</svg>
