<?xml version="1.0" encoding="UTF-8" standalone="no"?>
<svg xmlns:ffdec="https://www.free-decompiler.com/flash" xmlns:xlink="http://www.w3.org/1999/xlink" ffdec:objectType="shape" height="53.3px" width="34.55px" xmlns="http://www.w3.org/2000/svg">
  <g transform="matrix(1.0, 0.0, 0.0, 1.0, -53.1, 1.3)">
    <path d="M53.35 39.85 L53.55 39.75 59.05 39.6 59.25 39.7 59.35 39.95 59.3 40.15 59.05 40.2 53.55 40.35 53.35 40.3 53.25 40.05 53.35 39.85 M64.15 19.45 L64.25 19.2 64.4 19.15 67.95 19.2 69.9 19.2 70.1 19.3 70.2 19.5 70.1 19.7 69.9 19.8 67.95 19.8 64.4 19.75 64.25 19.65 64.15 19.45 M87.1 -1.0 L87.2 -1.2 87.4 -1.3 87.6 -1.2 87.65 -1.0 87.65 1.15 87.6 1.35 87.4 1.45 87.2 1.35 87.1 1.1 87.1 -1.0 M80.2 16.65 L80.45 16.6 80.55 16.75 80.6 16.95 80.5 17.15 Q78.3 18.65 75.3 19.3 L75.1 19.25 74.95 19.05 75.0 18.8 Q75.05 18.7 75.2 18.7 78.15 18.05 80.2 16.65 M83.95 12.65 L84.0 12.45 Q85.5 10.1 86.3 7.15 L86.4 6.95 86.6 6.95 86.8 7.1 86.8 7.3 Q86.0 10.4 84.45 12.75 L84.3 12.9 84.1 12.85 83.95 12.65 M53.4 19.6 L53.2 19.5 53.1 19.3 53.2 19.05 53.4 19.0 58.9 19.1 59.15 19.2 59.2 19.4 59.1 19.6 58.9 19.7 53.4 19.6 M64.55 39.55 L68.1 39.4 70.05 39.45 70.25 39.55 70.35 39.75 70.25 39.95 70.05 40.05 68.1 40.0 64.55 40.15 64.4 40.1 64.3 39.85 64.4 39.65 Q64.4 39.55 64.55 39.55 M75.25 39.9 L75.45 39.85 Q78.45 40.4 80.7 41.9 L80.8 42.1 80.75 42.3 80.65 42.45 80.4 42.4 Q78.3 41.0 75.35 40.45 L75.15 40.35 75.1 40.1 75.25 39.9 M84.7 46.2 Q86.3 48.6 87.15 51.7 L87.15 51.85 86.95 52.0 86.75 52.0 86.65 51.8 Q85.8 48.9 84.25 46.55 L84.2 46.3 84.35 46.1 84.55 46.05 84.7 46.2" fill="#cdccba" fill-rule="evenodd" stroke="none"/>
    <path d="M73.15 29.95 Q73.15 31.8 72.5 33.1 L83.4 29.75 72.45 26.75 Q73.15 28.15 73.15 29.95 M70.0 33.85 Q71.0 32.3 71.0 29.95 71.0 27.65 69.9 26.05 L68.4 24.4 87.6 29.8 68.25 35.65 70.0 33.85" fill="#cdccba" fill-rule="evenodd" stroke="none"/>
  </g>
</svg>
