<?xml version="1.0" encoding="UTF-8" standalone="no"?>
<svg xmlns:ffdec="https://www.free-decompiler.com/flash" xmlns:xlink="http://www.w3.org/1999/xlink" ffdec:objectType="shape" height="219.0px" width="150.0px" xmlns="http://www.w3.org/2000/svg">
  <g transform="matrix(1.0, 0.0, 0.0, 1.0, 108.7, 143.55)">
    <path d="M-85.55 -142.8 L-85.75 -143.15 M-24.8 75.05 L-26.05 72.95 M-25.8 72.2 L-0.95 58.85 M17.55 46.05 L40.55 28.85 M1.45 61.6 L-0.25 59.1" fill="none" stroke="#555951" stroke-linecap="round" stroke-linejoin="round" stroke-width="0.8"/>
    <path d="M29.6 36.1 L29.65 36.35 29.55 36.6 29.5 36.65 29.35 36.65 29.1 36.55 Q-18.45 -23.0 -49.9 -68.0 -62.8 -86.6 -72.0 -102.25 L-71.65 -102.4 Q-62.15 -86.75 -49.35 -68.4 -17.9 -23.45 29.6 36.1 M28.2 37.65 L28.15 37.7 27.9 37.75 27.7 37.65 27.65 37.65 Q-19.85 -22.0 -51.3 -67.0 -64.3 -85.7 -73.35 -101.6 L-72.95 -101.8 Q-63.75 -86.15 -50.75 -67.35 -19.3 -22.4 28.2 37.2 L28.25 37.45 28.2 37.65 M17.15 45.45 L16.7 45.75 -68.5 -68.2 Q-68.65 -68.4 -68.85 -68.45 L-69.25 -68.35 -69.45 -68.05 -69.45 -67.65 -69.4 -67.55 -68.5 -65.7 -68.2 -65.05 Q-55.45 -37.25 -37.15 -4.85 L-0.6 58.2 -0.35 58.65 -0.45 58.7 -0.55 58.8 -0.55 59.0 -0.65 59.2 -0.95 59.25 -1.15 59.15 -1.15 59.1 -1.4 58.65 -37.95 -4.4 Q-58.4 -40.95 -72.1 -71.4 L-72.15 -71.4 -72.25 -71.4 -72.9 -72.0 Q-79.7 -83.65 -85.3 -96.65 L-84.9 -96.8 Q-79.1 -83.95 -72.35 -72.35 L-72.3 -72.25 -72.1 -72.05 -71.85 -72.05 -71.7 -72.0 -71.55 -71.85 -71.5 -71.85 -71.15 -72.15 -71.25 -72.25 -71.4 -72.5 -71.45 -72.95 Q-78.2 -84.45 -84.0 -97.2 L-83.6 -97.4 Q-77.6 -84.65 -70.9 -73.2 L-70.85 -73.15 -70.7 -72.5 -70.85 -72.25 -70.85 -72.2 17.15 45.45 M-12.25 65.0 L-12.15 65.3 -12.35 65.45 -12.4 65.5 -12.55 65.5 -12.75 65.35 Q-50.3 4.7 -84.15 -66.85 L-95.95 -92.15 -95.55 -92.3 -83.55 -67.05 Q-49.75 4.4 -12.25 65.0 M-13.8 66.3 L-13.85 66.3 -14.1 66.35 -14.3 66.15 Q-51.9 5.55 -85.75 -66.05 -91.6 -78.4 -97.2 -91.55 L-96.85 -91.55 -85.15 -66.35 Q-51.35 5.2 -13.75 65.85 L-13.7 66.1 -13.8 66.3 M-25.7 72.25 L-25.65 72.6 Q-25.7 72.5 -25.8 72.5 L-26.2 72.55 -26.3 72.35 Q-50.9 33.65 -79.8 -26.1 -94.5 -56.5 -107.85 -87.1 L-107.45 -87.25 Q-94.0 -56.85 -79.3 -26.4 -50.35 33.45 -25.8 72.1 L-25.7 72.25 M-61.0 -107.15 L-60.9 -106.9 Q-56.8 -99.8 -44.75 -82.1 -27.75 -57.2 -13.7 -38.85 14.6 -1.9 40.5 28.0 L40.1 28.3 Q-16.0 -32.1 -60.9 -105.55 L-61.45 -106.7 -61.55 -106.85 -61.0 -107.15" fill="#555951" fill-rule="evenodd" stroke="none"/>
    <path d="M-72.0 -102.25 Q-62.8 -86.6 -49.9 -68.0 -18.45 -23.0 29.1 36.55 L29.35 36.65 29.5 36.65 29.5 37.0 29.2 37.6 28.6 37.75 28.2 37.65 28.25 37.45 28.2 37.2 Q-19.3 -22.4 -50.75 -67.35 -63.75 -86.15 -72.95 -101.8 L-73.0 -102.2 -72.25 -102.6 -72.0 -102.25 M16.7 45.75 L16.25 46.25 -66.25 -63.4 Q-53.8 -36.6 -36.2 -5.35 L0.15 58.25 -0.6 58.2 -37.15 -4.85 Q-55.45 -37.25 -68.2 -65.05 L-68.5 -65.7 -69.4 -67.55 -69.45 -67.65 -69.45 -68.05 -69.25 -68.35 -68.85 -68.45 Q-68.65 -68.4 -68.5 -68.2 L16.7 45.75 M-12.4 65.5 L-12.4 65.85 -12.75 66.4 -13.45 66.5 -13.8 66.3 -13.7 66.1 -13.75 65.85 Q-51.35 5.2 -85.15 -66.35 L-96.85 -91.55 -95.95 -92.15 -84.15 -66.85 Q-50.3 4.7 -12.75 65.35 L-12.55 65.5 -12.4 65.5 M-26.3 72.35 L-27.25 72.85 Q-51.9 34.15 -80.75 -25.6 -95.5 -56.15 -108.7 -86.7 -108.3 -86.85 -107.85 -87.1 -94.5 -56.5 -79.8 -26.1 -50.9 33.65 -26.3 72.35 M-84.9 -96.8 L-84.0 -97.2 Q-78.2 -84.45 -71.45 -72.95 L-71.4 -72.5 -71.25 -72.25 -71.15 -72.15 -71.5 -71.85 -71.55 -71.85 -71.7 -72.0 -71.85 -72.05 -72.1 -72.05 -72.3 -72.25 -72.35 -72.35 Q-79.1 -83.95 -84.9 -96.8 M-61.0 -107.15 L-60.35 -107.35 -60.3 -107.2 -58.4 -104.0 Q-14.05 -36.5 41.3 27.55 L40.5 28.0 Q14.6 -1.9 -13.7 -38.85 -27.75 -57.2 -44.75 -82.1 -56.8 -99.8 -60.9 -106.9 L-61.0 -107.15" fill="#eaeae1" fill-rule="evenodd" stroke="none"/>
    <path d="M29.6 36.1 Q-17.9 -23.45 -49.35 -68.4 -62.15 -86.75 -71.65 -102.4 L-61.45 -106.7 -60.9 -105.55 Q-16.0 -32.1 40.1 28.3 L29.6 36.1 M27.65 37.65 L17.15 45.45 -70.85 -72.2 -70.85 -72.25 -70.7 -72.5 -70.85 -73.15 -70.9 -73.2 Q-77.6 -84.65 -83.6 -97.4 L-73.35 -101.6 Q-64.3 -85.7 -51.3 -67.0 -19.85 -22.0 27.65 37.65 M-1.15 59.1 L-12.25 65.0 Q-49.75 4.4 -83.55 -67.05 L-95.55 -92.3 -85.3 -96.65 Q-79.7 -83.65 -72.9 -72.0 L-72.25 -71.4 -72.15 -71.4 -72.1 -71.4 Q-58.4 -40.95 -37.95 -4.4 L-1.4 58.65 -1.15 59.1 M-14.3 66.15 L-25.7 72.25 -25.8 72.1 Q-50.35 33.45 -79.3 -26.4 -94.0 -56.85 -107.45 -87.25 L-97.2 -91.55 Q-91.6 -78.4 -85.75 -66.05 -51.9 5.55 -14.3 66.15" fill="url(#gradient0)" fill-rule="evenodd" stroke="none"/>
  </g>
  <defs>
    <radialGradient cx="0" cy="0" gradientTransform="matrix(0.0019, -0.202, 0.2367, 0.0022, 2.25, 41.65)" gradientUnits="userSpaceOnUse" id="gradient0" r="819.2" spreadMethod="pad">
      <stop offset="0.0" stop-color="#bcc2ba"/>
      <stop offset="1.0" stop-color="#7e8979"/>
    </radialGradient>
  </defs>
</svg>
