<?xml version="1.0" encoding="UTF-8" standalone="no"?>
<svg xmlns:ffdec="https://www.free-decompiler.com/flash" xmlns:xlink="http://www.w3.org/1999/xlink" ffdec:objectType="shape" height="257.95px" width="176.8px" xmlns="http://www.w3.org/2000/svg">
  <g transform="matrix(1.0, 0.0, 0.0, 1.0, 144.9, 194.65)">
    <path d="M-30.2 51.5 L-30.15 51.75 -30.35 51.95 -30.55 52.0 -30.75 51.85 -34.1 46.2 -34.15 45.95 -34.0 45.75 -33.75 45.7 -33.55 45.85 -30.2 51.5 M-27.4 57.45 L-27.45 57.25 -27.3 57.05 -27.05 57.0 Q-26.9 57.05 -26.85 57.15 L-23.4 62.8 -23.35 63.05 -23.5 63.2 -23.75 63.3 -23.95 63.1 -27.4 57.45 M-14.05 48.9 L-13.9 49.05 -10.6 54.7 -10.55 55.0 -10.7 55.1 -10.9 55.15 -11.15 55.0 -14.45 49.4 -14.5 49.2 -14.3 48.95 -14.05 48.9 M7.3 22.0 L7.2 21.75 7.4 21.55 7.65 21.45 7.85 21.6 11.75 26.7 11.8 26.9 11.65 27.15 11.4 27.2 11.2 27.05 7.3 22.0 M-20.95 38.1 L-21.0 37.9 -20.85 37.7 -20.6 37.6 -20.4 37.8 -17.2 43.4 -17.1 43.65 -17.3 43.8 -17.5 43.85 -17.75 43.7 -20.95 38.1 M-27.0 26.25 L-26.85 26.4 -23.65 32.1 -23.6 32.35 -23.75 32.55 -24.0 32.6 -24.2 32.4 -27.45 26.75 -27.45 26.5 -27.3 26.3 -27.0 26.25 M-0.5 11.8 L-0.6 11.55 -0.45 11.35 -0.2 11.25 0.0 11.4 3.9 16.5 3.95 16.7 3.85 16.95 3.65 17.0 3.4 16.9 -0.5 11.8 M-8.15 1.65 L-8.3 1.4 -8.1 1.2 -7.9 1.1 -7.7 1.3 -3.9 6.3 -3.85 6.55 -3.95 6.75 -4.2 6.8 -4.45 6.7 -8.15 1.65 M3.05 -7.55 L7.1 -2.4 7.15 -2.15 7.05 -1.9 6.85 -1.85 6.6 -1.95 2.55 -7.15 2.45 -7.4 2.6 -7.6 2.85 -7.7 3.05 -7.55 M-40.7 34.85 L-40.75 34.65 -40.6 34.4 -40.3 34.35 -40.15 34.5 -36.9 40.2 -36.85 40.5 -37.0 40.65 -37.25 40.65 -37.45 40.5 -40.7 34.85 M-47.2 23.2 L-47.0 22.95 -46.75 22.9 -46.55 23.05 -43.4 28.75 -43.35 29.05 -43.5 29.2 -43.7 29.25 -43.95 29.1 -47.1 23.4 -47.2 23.2 M-59.55 0.3 L-59.55 0.0 -59.4 -0.15 -59.15 -0.15 -58.9 -0.05 -55.9 5.75 -55.9 6.05 -56.05 6.25 -56.3 6.25 -56.5 6.1 -59.55 0.3 M-33.45 14.9 L-33.25 15.05 -30.1 20.75 -30.05 21.05 -30.2 21.2 -30.4 21.25 -30.65 21.1 -33.8 15.4 -33.85 15.15 -33.7 14.95 -33.45 14.9 M-49.7 17.3 L-49.65 17.6 -49.8 17.75 -50.05 17.8 -50.25 17.65 -53.4 11.9 -53.45 11.7 -53.25 11.45 -53.0 11.4 -52.85 11.55 -49.7 17.3 M-46.55 -7.3 L-46.6 -7.5 -46.45 -7.75 -46.15 -7.8 -46.0 -7.6 -42.8 -2.0 -42.75 -1.7 -42.95 -1.55 -43.15 -1.5 -43.35 -1.65 -46.55 -7.3 M-40.2 4.05 L-40.25 3.85 -40.05 3.6 -39.8 3.55 -39.65 3.7 -36.45 9.4 -36.4 9.7 -36.55 9.85 -36.8 9.85 -37.0 9.7 -40.2 4.05 M-52.75 -18.75 L-52.8 -18.95 -52.65 -19.2 -52.35 -19.2 -52.15 -19.0 -49.05 -13.3 -49.05 -13.05 -49.25 -12.85 -49.45 -12.85 -49.7 -13.0 -52.75 -18.75 M-65.4 -11.7 L-65.15 -11.7 -64.9 -11.6 -61.9 -5.75 -61.95 -5.45 -62.1 -5.25 -62.4 -5.25 -62.55 -5.4 -65.5 -11.3 -65.5 -11.55 -65.4 -11.7 M-71.35 -23.2 L-71.15 -23.4 -70.95 -23.4 -70.75 -23.2 -67.8 -17.45 -67.8 -17.2 -68.0 -17.0 -68.25 -17.0 -68.45 -17.2 -71.35 -22.95 -71.35 -23.2 M-58.95 -30.4 L-58.8 -30.65 -58.5 -30.7 -58.3 -30.5 -55.2 -24.75 -55.2 -24.5 -55.4 -24.3 -55.6 -24.3 -55.8 -24.45 -58.9 -30.2 -58.95 -30.4 M-64.85 -41.9 L-64.65 -42.1 -64.45 -42.1 -64.2 -41.9 -63.45 -40.4 -61.35 -36.25 -61.35 -36.0 -61.55 -35.8 -61.8 -35.8 -61.95 -35.95 -64.05 -40.1 -64.85 -41.65 -64.85 -41.9 M-70.6 -53.75 L-70.4 -53.75 -70.15 -53.6 -67.25 -47.8 -67.25 -47.5 -67.4 -47.3 -67.7 -47.3 -67.85 -47.45 -70.8 -53.3 -70.75 -53.6 -70.6 -53.75 M-37.3 -37.0 L-37.3 -37.3 -37.15 -37.5 -36.95 -37.55 -36.7 -37.4 -33.95 -33.65 -33.9 -33.45 -34.0 -33.25 -34.3 -33.15 -34.5 -33.3 -37.3 -37.0 M-45.0 -47.35 L-45.05 -47.65 -44.9 -47.85 -44.6 -47.9 -44.45 -47.75 -40.55 -42.55 -40.55 -42.3 -40.65 -42.1 -40.95 -42.05 Q-41.05 -42.05 -41.15 -42.15 L-45.0 -47.35 M-52.0 -58.2 L-48.25 -53.0 -48.2 -52.8 -48.3 -52.55 -48.55 -52.5 Q-48.65 -52.5 -48.8 -52.6 L-52.55 -57.85 -52.6 -58.15 -52.45 -58.35 -52.25 -58.4 -52.0 -58.2 M-36.75 -59.8 L-36.55 -60.05 -36.35 -60.1 -36.15 -59.9 -32.35 -54.6 -32.3 -54.4 -32.4 -54.15 -32.65 -54.1 Q-32.8 -54.1 -32.9 -54.2 L-36.7 -59.55 -36.75 -59.8 M-5.55 -17.8 L-5.4 -18.0 -5.2 -18.15 -4.95 -17.95 -0.95 -12.75 -0.9 -12.55 -1.0 -12.3 -1.25 -12.25 -1.45 -12.4 -5.45 -17.6 -5.55 -17.8 M-15.8 -8.95 L-15.6 -9.05 Q-15.45 -9.05 -15.35 -8.85 L-11.5 -3.8 -11.45 -3.6 -11.6 -3.4 -11.85 -3.3 -12.05 -3.45 -15.85 -8.55 -15.95 -8.8 -15.8 -8.95 M-23.5 -18.6 L-23.6 -18.8 -23.45 -19.05 -23.2 -19.15 -23.0 -19.0 -19.15 -13.95 -19.1 -13.75 -19.2 -13.5 -19.4 -13.45 Q-19.6 -13.45 -19.65 -13.55 L-23.5 -18.6 M-26.7 -24.05 L-26.65 -23.8 -26.8 -23.6 -27.0 -23.55 -27.2 -23.65 -31.1 -28.7 -31.15 -29.0 -31.0 -29.2 -30.8 -29.25 Q-30.65 -29.25 -30.55 -29.05 L-26.7 -24.05 M-13.45 -27.95 L-13.5 -28.2 -13.35 -28.45 -13.15 -28.5 -12.9 -28.3 -8.95 -23.1 -8.9 -22.9 -9.0 -22.7 -9.25 -22.6 -9.45 -22.75 -13.45 -27.95 M-21.25 -38.45 L-21.3 -38.7 -21.15 -38.95 -20.95 -39.0 -20.7 -38.85 -16.8 -33.5 -16.75 -33.3 -16.85 -33.1 -17.15 -33.0 -17.35 -33.15 -21.25 -38.45 M-24.6 -44.0 L-24.55 -43.75 -24.65 -43.55 -24.95 -43.5 Q-25.05 -43.5 -25.15 -43.6 L-29.05 -48.9 -29.1 -49.2 -28.95 -49.4 -28.7 -49.45 -28.5 -49.3 -24.6 -44.0 M-76.75 -35.2 L-76.55 -35.05 -73.65 -29.1 -73.65 -28.85 -73.8 -28.65 -74.1 -28.65 -74.25 -28.8 -77.15 -34.8 -77.15 -35.05 -77.0 -35.2 -76.75 -35.2 M-83.1 -47.35 L-83.1 -47.6 -82.9 -47.75 -82.7 -47.75 -82.5 -47.6 -79.7 -41.65 -79.7 -41.4 -79.85 -41.2 -80.1 -41.2 -80.3 -41.35 -83.1 -47.35 M-85.25 -53.6 L-85.3 -53.4 -85.45 -53.2 -85.7 -53.2 -85.9 -53.35 -88.65 -59.3 -88.65 -59.6 -88.45 -59.75 -88.25 -59.75 -88.05 -59.6 -85.25 -53.6 M-76.2 -65.4 L-76.0 -65.25 -73.05 -59.4 -73.05 -59.15 -73.25 -58.95 -73.5 -59.0 -73.65 -59.15 -76.6 -65.0 -76.6 -65.25 -76.4 -65.4 -76.2 -65.4 M-79.25 -70.65 L-79.45 -70.85 -82.3 -76.7 -82.3 -77.0 -82.15 -77.15 -81.9 -77.15 -81.7 -77.0 -78.85 -71.1 -78.85 -70.9 -79.0 -70.65 -79.25 -70.65 M-94.05 -71.3 L-94.05 -71.6 -93.9 -71.75 -93.7 -71.75 -93.45 -71.6 -90.8 -65.6 -90.8 -65.4 -90.95 -65.2 -91.2 -65.2 -91.4 -65.35 -94.05 -71.3 M-84.95 -82.5 L-85.1 -82.65 -87.9 -88.6 -87.9 -88.85 -87.75 -89.05 -87.5 -89.05 -87.3 -88.85 -84.5 -82.95 -84.5 -82.75 -84.65 -82.5 -84.95 -82.5 M-99.45 -83.3 L-99.45 -83.6 -99.3 -83.75 -99.05 -83.75 -98.85 -83.6 -96.15 -77.6 -96.15 -77.4 -96.3 -77.2 -96.6 -77.2 -96.75 -77.35 -99.45 -83.3 M-104.7 -95.6 L-104.55 -95.75 -104.35 -95.75 -104.1 -95.6 -101.5 -89.6 -101.5 -89.4 -101.65 -89.2 -101.9 -89.2 -102.1 -89.35 -104.7 -95.3 -104.7 -95.6 M-109.5 -107.85 L-109.3 -107.7 -106.7 -101.75 -106.75 -101.5 -106.9 -101.3 -107.2 -101.3 -107.35 -101.45 -109.9 -107.45 -109.9 -107.7 -109.7 -107.85 -109.5 -107.85 M-80.75 -101.2 L-80.8 -101.4 -80.6 -101.65 -80.35 -101.7 -80.2 -101.55 -77.05 -95.85 -77.0 -95.55 -77.15 -95.4 -77.35 -95.35 -77.6 -95.5 -80.75 -101.2 M-93.4 -100.75 L-93.2 -100.9 -93.0 -100.9 -92.8 -100.75 -90.05 -94.85 -90.05 -94.6 -90.2 -94.4 -90.45 -94.4 -90.65 -94.55 -93.4 -100.5 -93.4 -100.75 M-95.45 -106.7 L-95.45 -106.5 -95.65 -106.3 -95.9 -106.3 -96.05 -106.45 -98.65 -112.35 -98.65 -112.65 -98.5 -112.8 -98.25 -112.8 -98.05 -112.65 -95.45 -106.7 M-83.2 -107.35 L-83.2 -107.05 -83.35 -106.85 -83.6 -106.9 -83.8 -107.05 -86.5 -112.25 -86.95 -113.15 -86.95 -113.4 -86.75 -113.6 -86.55 -113.6 -86.3 -113.4 -85.9 -112.55 -83.2 -107.35 M-80.1 -125.05 L-79.9 -125.25 -79.65 -125.3 -79.5 -125.15 -76.05 -119.5 -75.95 -119.25 -76.15 -119.05 -76.35 -119.0 -76.55 -119.2 -80.05 -124.8 -80.1 -125.05 M-92.2 -125.3 L-92.0 -125.15 -89.25 -119.3 -89.25 -119.05 -89.4 -118.85 -89.65 -118.85 -89.85 -119.0 -92.6 -124.85 -92.6 -125.15 -92.4 -125.3 -92.2 -125.3 M-86.45 -136.55 L-86.3 -136.4 -82.9 -130.75 -82.85 -130.45 -83.0 -130.3 -83.2 -130.25 -83.45 -130.45 -86.85 -136.05 -86.9 -136.25 -86.75 -136.5 -86.45 -136.55 M-103.85 -124.4 L-103.85 -124.7 -103.7 -124.85 -103.5 -124.85 -103.25 -124.7 -100.7 -118.65 -100.7 -118.45 -100.85 -118.25 -101.15 -118.25 -101.3 -118.4 -103.85 -124.4 M-116.95 -125.9 L-116.95 -125.6 -117.15 -125.45 -117.4 -125.45 -117.55 -125.6 -120.1 -131.75 -120.1 -132.0 -119.95 -132.2 -119.7 -132.2 -119.5 -132.0 -116.95 -125.9 M-115.05 -119.6 L-115.05 -119.85 -114.9 -120.05 -114.65 -120.05 -114.45 -119.85 -111.85 -113.8 -111.85 -113.55 -112.05 -113.35 -112.3 -113.35 -112.45 -113.5 -115.05 -119.6 M-108.85 -136.35 L-108.85 -136.65 -108.7 -136.8 -108.5 -136.8 -108.25 -136.65 -105.8 -130.65 -105.8 -130.4 -105.95 -130.25 -106.25 -130.25 -106.4 -130.4 -108.85 -136.35 M-97.75 -137.3 L-97.5 -137.3 -97.3 -137.15 -94.65 -131.1 -94.65 -130.9 -94.85 -130.65 -95.1 -130.65 -95.25 -130.85 -97.9 -136.85 -97.9 -137.15 -97.75 -137.3 M-44.2 -70.1 L-44.25 -70.4 -44.1 -70.6 -43.85 -70.65 -43.65 -70.5 -39.9 -65.2 -39.85 -64.95 -39.95 -64.75 -40.25 -64.7 Q-40.35 -64.7 -40.45 -64.8 L-44.2 -70.1 M-51.2 -81.45 L-51.0 -81.3 -47.3 -75.9 -47.25 -75.7 -47.4 -75.45 -47.65 -75.4 -47.85 -75.55 -51.55 -80.9 -51.6 -81.15 -51.45 -81.4 -51.2 -81.45 M-59.7 -68.9 L-59.5 -68.7 -55.75 -63.45 -55.7 -63.25 -55.8 -63.05 -56.1 -62.95 Q-56.2 -62.95 -56.3 -63.1 L-60.05 -68.35 -60.1 -68.6 -59.9 -68.85 -59.7 -68.9 M-67.1 -79.7 L-66.9 -79.5 -63.2 -74.1 -63.15 -73.85 -63.25 -73.65 -63.55 -73.6 Q-63.7 -73.6 -63.75 -73.7 L-67.45 -79.15 -67.5 -79.4 -67.35 -79.6 -67.1 -79.7 M-73.85 -90.35 L-73.7 -90.2 -71.15 -86.2 -70.45 -85.0 -70.4 -84.7 -70.55 -84.55 -70.8 -84.5 -71.0 -84.65 -71.7 -85.85 -71.7 -85.8 -74.25 -89.85 -74.3 -90.1 -74.15 -90.3 -73.85 -90.35 M-58.95 -92.0 L-58.8 -92.25 -58.55 -92.3 -58.35 -92.1 -54.7 -86.7 -54.6 -86.5 Q-54.6 -86.3 -54.75 -86.25 L-55.0 -86.2 -55.2 -86.3 -58.9 -91.75 -58.95 -92.0 M-65.7 -103.15 L-65.5 -102.95 -61.9 -97.5 -61.85 -97.25 -62.0 -97.05 -62.25 -97.0 -62.45 -97.15 -66.05 -102.6 -66.1 -102.85 -65.95 -103.1 -65.7 -103.15 M-73.1 -113.7 L-73.15 -113.9 -73.0 -114.15 -72.75 -114.15 -72.55 -114.0 -69.05 -108.5 -69.0 -108.3 -69.1 -108.05 -69.4 -108.0 -69.6 -108.1 -73.1 -113.7 M15.0 31.85 L15.15 31.6 15.35 31.55 15.6 31.75 19.5 36.9 19.55 37.1 19.4 37.3 19.2 37.35 19.0 37.25 15.05 32.1 15.0 31.85 M27.1 23.35 L27.2 23.1 Q27.3 23.0 27.45 23.0 L27.7 23.1 31.85 28.15 31.9 28.45 31.8 28.65 31.6 28.7 31.35 28.6 27.2 23.55 27.1 23.35 M18.85 13.15 L18.95 12.95 19.25 12.8 19.45 12.95 23.55 18.0 23.65 18.3 23.5 18.5 23.3 18.55 23.1 18.45 18.95 13.35 18.85 13.15 M15.4 8.1 L15.3 8.35 15.05 8.4 Q14.9 8.4 14.85 8.25 L10.75 3.2 10.65 2.95 10.75 2.75 11.0 2.65 11.25 2.8 15.35 7.85 15.4 8.1" fill="#eaeae1" fill-rule="evenodd" stroke="none"/>
    <path d="M-60.2 -57.15 L-58.35 -54.4 -62.3 -52.5 -63.35 -54.55 -74.9 -77.05 -74.95 -77.1 -74.65 -77.15 Q-74.3 -77.2 -74.05 -77.4 L-74.05 -77.35 -60.2 -57.15" fill="#eaeae1" fill-rule="evenodd" stroke="none"/>
    <path d="M-74.05 -77.35 L-73.4 -77.6 -57.25 -53.95 -57.7 -53.7 -60.2 -57.15 -74.05 -77.35 M-63.35 -54.55 L-61.95 -51.7 Q-62.35 -51.45 -62.75 -51.3 L-75.75 -76.7 -74.9 -77.05 -63.35 -54.55" fill="#555951" fill-rule="evenodd" stroke="none"/>
    <path d="M-144.25 -173.7 L-107.5 -85.65 -108.15 -85.4 -144.9 -173.45 -144.25 -173.7 M-133.1 -178.3 L-132.85 -178.4 -133.3 -179.35 -132.65 -179.65 -95.85 -91.6 -96.0 -91.5 -95.65 -90.55 -96.35 -90.3 -133.1 -178.3 M-121.45 -184.25 Q-121.15 -184.35 -120.8 -184.55 L-84.0 -96.5 -84.65 -96.2 -121.45 -184.25" fill="#eaeae1" fill-rule="evenodd" stroke="none"/>
    <path d="M-144.25 -173.7 L-143.8 -173.85 -107.0 -85.85 Q-107.25 -85.7 -107.5 -85.65 L-144.25 -173.7 M-133.5 -178.15 L-133.1 -178.3 -96.35 -90.3 Q-96.55 -90.15 -96.75 -90.1 L-133.5 -178.15 M-132.65 -179.65 L-132.2 -179.8 -95.4 -91.75 -95.85 -91.6 -132.65 -179.65 M-121.9 -184.1 L-121.45 -184.25 -84.65 -96.2 -85.15 -96.05 -121.9 -184.1" fill="#555951" fill-rule="evenodd" stroke="none"/>
    <path d="M-107.0 -85.85 L-143.8 -173.85 -133.5 -178.15 -96.75 -90.1 -107.0 -85.85 M-132.2 -179.8 L-121.9 -184.1 -85.15 -96.05 -95.4 -91.75 -132.2 -179.8" fill="url(#gradient0)" fill-rule="evenodd" stroke="none"/>
    <path d="M-133.95 -164.8 Q-133.9 -164.7 -134.0 -164.55 L-134.1 -164.45 -134.3 -164.4 -134.4 -164.6 -136.95 -170.65 -136.95 -170.8 -136.85 -171.0 -136.65 -170.95 -136.5 -170.85 -133.95 -164.8 M-128.9 -152.7 L-128.9 -152.45 -129.05 -152.35 -129.2 -152.3 -129.35 -152.5 -131.9 -158.55 -131.9 -158.7 -131.8 -158.9 -131.6 -158.85 -131.45 -158.75 -128.9 -152.7 M-124.15 -140.15 L-124.3 -140.35 -126.85 -146.4 -126.85 -146.6 -126.75 -146.8 -126.55 -146.75 -126.4 -146.6 -123.85 -140.55 -123.85 -140.3 -124.0 -140.2 -124.15 -140.15 M-121.75 -134.3 L-121.8 -134.45 -121.7 -134.65 -121.5 -134.6 -121.3 -134.5 -118.8 -128.45 -118.8 -128.2 -118.95 -128.1 -119.1 -128.05 -119.25 -128.25 -121.75 -134.3 M-116.7 -122.2 L-116.75 -122.35 -116.6 -122.55 -116.45 -122.5 -116.25 -122.4 -113.75 -116.35 -113.75 -116.1 -113.9 -116.0 -114.05 -115.95 -114.2 -116.15 -116.7 -122.2 M-109.0 -103.85 L-109.15 -104.05 -111.65 -110.1 -111.65 -110.25 -111.55 -110.45 -111.35 -110.4 -111.2 -110.3 -108.7 -104.25 -108.7 -104.0 -108.8 -103.9 -109.0 -103.85 M-103.6 -92.15 L-103.65 -91.9 -103.75 -91.75 -103.95 -91.75 -104.05 -91.95 -106.6 -98.0 -106.6 -98.15 -106.5 -98.35 -106.3 -98.3 -106.15 -98.2 -103.6 -92.15" fill="#eaeae1" fill-rule="evenodd" stroke="none"/>
    <path d="M-122.25 -170.75 Q-122.2 -170.65 -122.3 -170.5 L-122.4 -170.4 -122.6 -170.35 -122.7 -170.55 -125.25 -176.6 -125.25 -176.75 -125.15 -176.95 -124.95 -176.9 -124.8 -176.8 -122.25 -170.75 M-117.2 -158.65 L-117.2 -158.4 -117.35 -158.3 -117.5 -158.25 -117.65 -158.45 -120.2 -164.5 -120.2 -164.65 -120.1 -164.85 -119.9 -164.8 -119.75 -164.7 -117.2 -158.65 M-112.45 -146.1 L-112.6 -146.3 -115.15 -152.35 -115.15 -152.55 -115.05 -152.75 -114.85 -152.7 -114.7 -152.55 -112.15 -146.5 -112.15 -146.25 -112.3 -146.15 -112.45 -146.1 M-110.05 -140.25 L-110.1 -140.4 -110.0 -140.6 -109.8 -140.55 -109.6 -140.45 -107.1 -134.4 -107.1 -134.15 -107.25 -134.05 -107.4 -134.0 -107.55 -134.2 -110.05 -140.25 M-105.0 -128.15 L-105.05 -128.3 -104.9 -128.5 -104.75 -128.45 -104.55 -128.35 -102.05 -122.3 -102.05 -122.05 -102.2 -121.95 -102.35 -121.9 -102.5 -122.1 -105.0 -128.15 M-97.3 -109.8 L-97.45 -110.0 -99.95 -116.05 -99.95 -116.2 -99.85 -116.4 -99.65 -116.35 -99.5 -116.25 -97.0 -110.2 -97.0 -109.95 -97.1 -109.85 -97.3 -109.8 M-91.9 -98.1 L-91.95 -97.85 -92.05 -97.7 -92.25 -97.7 -92.35 -97.9 -94.9 -103.95 -94.9 -104.1 -94.8 -104.3 -94.6 -104.25 -94.45 -104.15 -91.9 -98.1" fill="#eaeae1" fill-rule="evenodd" stroke="none"/>
    <path d="M-83.95 -96.85 L-84.6 -96.6 -121.4 -184.65 -120.75 -184.9 -83.95 -96.85 M-109.6 -189.5 L-108.9 -189.75 -108.85 -189.7 -108.75 -189.75 -71.85 -101.9 -72.1 -101.7 -72.3 -101.6 -72.6 -101.45 -72.6 -101.5 -72.8 -101.45 -109.6 -189.5 M-97.6 -194.35 L-96.9 -194.65 -60.1 -106.6 -60.85 -106.3 -97.6 -194.35 M-82.75 -109.5 L-82.6 -109.35 -80.05 -103.35 -80.05 -103.1 -80.2 -103.0 -80.35 -103.0 -80.5 -103.1 -83.05 -109.15 -83.05 -109.35 -82.9 -109.55 -82.75 -109.5 M-88.1 -121.3 L-88.15 -121.5 -87.95 -121.65 -87.85 -121.6 -87.65 -121.55 -85.1 -115.5 Q-85.05 -115.4 -85.15 -115.25 L-85.25 -115.1 -85.45 -115.1 -85.55 -115.3 -88.1 -121.3 M-93.15 -133.4 L-93.15 -133.6 -93.05 -133.75 -92.85 -133.7 -92.7 -133.65 -90.25 -127.6 -90.25 -127.35 -90.35 -127.25 -90.5 -127.25 -90.65 -127.4 -93.15 -133.4 M-80.8 -138.6 L-80.7 -138.55 -78.15 -132.5 -78.15 -132.2 -78.3 -132.1 -78.45 -132.1 -78.6 -132.3 -81.15 -138.3 -81.15 -138.45 -81.0 -138.65 -80.8 -138.6 M-98.2 -145.55 L-98.2 -145.7 -98.1 -145.85 -97.9 -145.8 -97.75 -145.75 -95.25 -139.7 -95.25 -139.45 -95.35 -139.35 -95.5 -139.35 -95.65 -139.5 -98.2 -145.55 M-103.25 -157.65 L-103.3 -157.85 -103.15 -157.95 -103.0 -157.95 -102.8 -157.85 -100.3 -151.8 Q-100.2 -151.7 -100.35 -151.55 L-100.4 -151.45 -100.6 -151.45 -100.7 -151.6 -103.25 -157.65 M-105.65 -163.55 L-105.8 -163.7 -108.35 -169.75 -108.35 -169.95 -108.25 -170.05 -108.1 -170.05 -107.9 -169.95 -105.4 -163.95 -105.4 -163.65 -105.5 -163.55 -105.65 -163.55 M-86.15 -150.6 L-86.05 -150.75 -85.85 -150.7 -85.7 -150.65 -83.15 -144.6 -83.15 -144.35 -83.3 -144.2 -83.45 -144.2 -83.6 -144.4 -86.15 -150.4 -86.15 -150.6 M-90.95 -162.85 L-90.75 -162.75 -88.25 -156.65 Q-88.15 -156.55 -88.3 -156.4 L-88.35 -156.3 -88.55 -156.35 -88.65 -156.5 -91.2 -162.5 -91.25 -162.75 -91.1 -162.85 -90.95 -162.85 M-70.7 -114.35 L-70.55 -114.25 -68.0 -108.25 -68.0 -108.0 -68.1 -107.9 -68.3 -107.9 -68.45 -108.0 -71.0 -114.05 -71.0 -114.25 -70.85 -114.4 -70.7 -114.35 M-73.2 -120.0 L-73.4 -120.0 -73.5 -120.15 -76.05 -126.2 -76.1 -126.35 -75.9 -126.55 -75.8 -126.45 -75.6 -126.4 -73.05 -120.4 -73.1 -120.1 -73.2 -120.0 M-96.3 -174.65 L-96.3 -174.85 -96.2 -174.95 -96.0 -174.95 -95.85 -174.85 -93.35 -168.75 -93.35 -168.5 -93.45 -168.4 -93.6 -168.45 -93.75 -168.6 -96.3 -174.65 M-113.1 -182.2 L-112.9 -182.05 -110.45 -176.05 -110.45 -175.75 -110.55 -175.65 -110.7 -175.65 -110.9 -175.8 -113.35 -181.85 -113.35 -182.05 -113.25 -182.25 -113.1 -182.2 M-101.05 -187.05 L-100.85 -186.95 -98.4 -180.9 -98.4 -180.6 -98.5 -180.5 -98.65 -180.5 -98.8 -180.7 -101.3 -186.75 -101.3 -186.95 -101.2 -187.1 -101.05 -187.05" fill="#eaeae1" fill-rule="evenodd" stroke="none"/>
    <path d="M-83.95 -96.85 L-120.75 -184.9 -120.3 -185.05 -83.5 -97.0 -83.95 -96.85 M-110.0 -189.35 L-109.6 -189.5 -72.8 -101.45 -73.25 -101.3 -110.0 -189.35 M-108.75 -189.75 L-108.3 -189.9 -71.35 -101.9 -71.85 -101.9 -108.75 -189.75 M-98.0 -194.2 L-97.6 -194.35 -60.85 -106.3 -61.25 -106.15 -98.0 -194.2" fill="#555951" fill-rule="evenodd" stroke="none"/>
    <path d="M-120.3 -185.05 L-110.0 -189.35 -73.25 -101.3 -83.5 -97.0 -120.3 -185.05 M-108.3 -189.9 L-98.0 -194.2 -61.25 -106.15 -71.35 -101.9 -108.3 -189.9 M-101.05 -187.05 L-101.2 -187.1 -101.3 -186.95 -101.3 -186.75 -98.8 -180.7 -98.65 -180.5 -98.5 -180.5 -98.4 -180.6 -98.4 -180.9 -100.85 -186.95 -101.05 -187.05 M-113.1 -182.2 L-113.25 -182.25 -113.35 -182.05 -113.35 -181.85 -110.9 -175.8 -110.7 -175.65 -110.55 -175.65 -110.45 -175.75 -110.45 -176.05 -112.9 -182.05 -113.1 -182.2 M-96.3 -174.65 L-93.75 -168.6 -93.6 -168.45 -93.45 -168.4 -93.35 -168.5 -93.35 -168.75 -95.85 -174.85 -96.0 -174.95 -96.2 -174.95 -96.3 -174.85 -96.3 -174.65 M-73.2 -120.0 L-73.1 -120.1 -73.05 -120.4 -75.6 -126.4 -75.8 -126.45 -75.9 -126.55 -76.1 -126.35 -76.05 -126.2 -73.5 -120.15 -73.4 -120.0 -73.2 -120.0 M-70.7 -114.35 L-70.85 -114.4 -71.0 -114.25 -71.0 -114.05 -68.45 -108.0 -68.3 -107.9 -68.1 -107.9 -68.0 -108.0 -68.0 -108.25 -70.55 -114.25 -70.7 -114.35 M-90.95 -162.85 L-91.1 -162.85 -91.25 -162.75 -91.2 -162.5 -88.65 -156.5 -88.55 -156.35 -88.35 -156.3 -88.3 -156.4 Q-88.15 -156.55 -88.25 -156.65 L-90.75 -162.75 -90.95 -162.85 M-86.15 -150.6 L-86.15 -150.4 -83.6 -144.4 -83.45 -144.2 -83.3 -144.2 -83.15 -144.35 -83.15 -144.6 -85.7 -150.65 -85.85 -150.7 -86.05 -150.75 -86.15 -150.6 M-105.65 -163.55 L-105.5 -163.55 -105.4 -163.65 -105.4 -163.95 -107.9 -169.95 -108.1 -170.05 -108.25 -170.05 -108.35 -169.95 -108.35 -169.75 -105.8 -163.7 -105.65 -163.55 M-103.25 -157.65 L-100.7 -151.6 -100.6 -151.45 -100.4 -151.45 -100.35 -151.55 Q-100.2 -151.7 -100.3 -151.8 L-102.8 -157.85 -103.0 -157.95 -103.15 -157.95 -103.3 -157.85 -103.25 -157.65 M-98.2 -145.55 L-95.65 -139.5 -95.5 -139.35 -95.35 -139.35 -95.25 -139.45 -95.25 -139.7 -97.75 -145.75 -97.9 -145.8 -98.1 -145.85 -98.2 -145.7 -98.2 -145.55 M-80.8 -138.6 L-81.0 -138.65 -81.15 -138.45 -81.15 -138.3 -78.6 -132.3 -78.45 -132.1 -78.3 -132.1 -78.15 -132.2 -78.15 -132.5 -80.7 -138.55 -80.8 -138.6 M-93.15 -133.4 L-90.65 -127.4 -90.5 -127.25 -90.35 -127.25 -90.25 -127.35 -90.25 -127.6 -92.7 -133.65 -92.85 -133.7 -93.05 -133.75 -93.15 -133.6 -93.15 -133.4 M-88.1 -121.3 L-85.55 -115.3 -85.45 -115.1 -85.25 -115.1 -85.15 -115.25 Q-85.05 -115.4 -85.1 -115.5 L-87.65 -121.55 -87.85 -121.6 -87.95 -121.65 -88.15 -121.5 -88.1 -121.3 M-82.75 -109.5 L-82.9 -109.55 -83.05 -109.35 -83.05 -109.15 -80.5 -103.1 -80.35 -103.0 -80.2 -103.0 -80.05 -103.1 -80.05 -103.35 -82.6 -109.35 -82.75 -109.5" fill="url(#gradient1)" fill-rule="evenodd" stroke="none"/>
  </g>
  <defs>
    <radialGradient cx="0" cy="0" gradientTransform="matrix(0.0569, 5.0E-4, -5.0E-4, 0.0569, -133.05, -138.7)" gradientUnits="userSpaceOnUse" id="gradient0" r="819.2" spreadMethod="pad">
      <stop offset="0.0" stop-color="#a7afa4"/>
      <stop offset="1.0" stop-color="#818c7c"/>
    </radialGradient>
    <radialGradient cx="0" cy="0" gradientTransform="matrix(0.0496, 5.0E-4, -5.0E-4, 0.0496, -107.2, -144.35)" gradientUnits="userSpaceOnUse" id="gradient1" r="819.2" spreadMethod="pad">
      <stop offset="0.0" stop-color="#a8afa5"/>
      <stop offset="1.0" stop-color="#818c7c"/>
    </radialGradient>
  </defs>
</svg>
