<?xml version="1.0" encoding="UTF-8" standalone="no"?>
<svg xmlns:ffdec="https://www.free-decompiler.com/flash" xmlns:xlink="http://www.w3.org/1999/xlink" ffdec:objectType="shape" height="5.0px" width="2.2px" xmlns="http://www.w3.org/2000/svg">
  <g transform="matrix(1.0, 0.0, 0.0, 1.0, -0.1, 0.0)">
    <path d="M2.3 1.7 L2.3 3.8 Q2.2 3.9 2.2 2.9 L2.3 1.7 M0.1 3.8 L0.1 1.7 0.2 2.85 0.1 3.8" fill="#1e272f" fill-rule="evenodd" stroke="none"/>
    <path d="M2.0 5.0 L0.45 5.0 0.35 4.2 2.05 4.2 2.0 5.0 M0.45 0.0 L2.0 0.0 2.0 1.3 0.4 1.3 0.35 1.3 0.4 1.2 0.45 0.0 M2.0 2.05 L2.05 3.65 0.3 3.65 0.35 2.05 2.0 2.05" fill="#ff9900" fill-rule="evenodd" stroke="none"/>
    <path d="M2.0 0.0 L2.3 0.0 2.3 1.7 2.2 2.9 Q2.2 3.9 2.3 3.8 L2.3 5.0 2.0 5.0 2.05 4.2 2.05 3.65 2.0 2.05 2.0 1.3 2.0 0.0 M0.45 5.0 L0.1 5.0 0.1 3.8 0.2 2.85 0.1 1.7 0.1 0.0 0.45 0.0 0.4 1.2 Q0.3 0.95 0.3 1.3 L0.35 2.05 0.3 3.65 0.35 4.2 0.45 5.0" fill="#cc6600" fill-rule="evenodd" stroke="none"/>
    <path d="M2.0 1.3 L2.0 2.05 0.35 2.05 0.3 1.3 Q0.3 0.95 0.4 1.2 L0.35 1.3 0.4 1.3 2.0 1.3 M2.05 3.65 L2.05 4.2 0.35 4.2 0.3 3.65 2.05 3.65" fill="#3a4145" fill-rule="evenodd" stroke="none"/>
  </g>
</svg>
