<?xml version="1.0" encoding="UTF-8" standalone="no"?>
<svg xmlns:ffdec="https://www.free-decompiler.com/flash" xmlns:xlink="http://www.w3.org/1999/xlink" ffdec:objectType="shape" height="117.4px" width="241.15px" xmlns="http://www.w3.org/2000/svg">
  <g transform="matrix(1.0, 0.0, 0.0, 1.0, 59.85, -202.15)">
    <path d="M166.35 270.35 L181.2 257.55 Q181.4 261.1 181.1 264.75 179.35 289.2 160.85 305.15 142.35 321.15 117.9 319.4 93.55 317.6 77.55 299.1 L77.5 298.95 77.3 298.8 77.05 298.55 76.75 298.85 19.8 232.95 20.0 232.75 Q7.85 218.45 -10.8 216.9 -29.5 215.35 -43.85 227.5 -47.6 230.65 -50.4 234.3 L-59.85 223.35 Q-56.65 219.5 -52.6 216.15 -33.95 200.35 -9.6 202.35 14.75 204.35 30.6 223.0 L30.7 223.15 30.8 223.3 32.3 225.0 32.0 225.3 86.3 288.15 86.55 287.7 86.6 287.65 86.65 287.65 87.7 288.85 87.8 289.05 87.95 289.15 Q100.3 303.45 119.0 304.8 137.7 306.25 151.95 293.95 163.25 284.15 166.35 270.35" fill="#000000" fill-opacity="0.4" fill-rule="evenodd" stroke="none"/>
  </g>
</svg>
