<?xml version="1.0" encoding="UTF-8" standalone="no"?>
<svg xmlns:ffdec="https://www.free-decompiler.com/flash" xmlns:xlink="http://www.w3.org/1999/xlink" ffdec:objectType="shape" height="5.7px" width="10.2px" xmlns="http://www.w3.org/2000/svg">
  <g transform="matrix(1.0, 0.0, 0.0, 1.0, 0.0, 0.0)">
    <path d="M0.0 0.05 L0.0 0.0 10.2 0.0 10.2 0.1 8.4 2.5 8.4 2.55 2.05 2.55 0.0 0.05" fill="#b29f8e" fill-rule="evenodd" stroke="none"/>
    <path d="M10.1 5.3 L4.95 5.3 5.0 5.25 5.0 4.05 4.45 3.2 3.8 3.85 3.8 5.25 3.9 5.3 3.25 5.3 3.35 5.25 3.35 4.05 2.75 3.2 2.15 3.85 2.15 5.25 2.2 5.3 0.0 5.3 0.0 5.25 2.05 2.55 8.4 2.55 10.1 5.3" fill="#bdab9f" fill-rule="evenodd" stroke="none"/>
    <path d="M10.2 0.1 L10.2 5.3 10.1 5.3 8.4 2.55 8.4 2.5 10.2 0.1 M4.95 5.3 L4.45 5.7 4.45 3.2 5.0 4.05 5.0 5.25 4.95 5.3 M3.25 5.3 L2.75 5.7 2.75 3.2 3.35 4.05 3.35 5.25 3.25 5.3" fill="#cabdad" fill-rule="evenodd" stroke="none"/>
    <path d="M0.0 5.25 L0.0 0.05 2.05 2.55 0.0 5.25" fill="#685a4f" fill-rule="evenodd" stroke="none"/>
    <path d="M4.45 5.7 L3.9 5.3 3.8 5.25 3.8 3.85 4.45 3.2 4.45 5.7 M2.75 5.7 L2.2 5.3 2.15 5.25 2.15 3.85 2.75 3.2 2.75 5.7" fill="#9a7e6d" fill-rule="evenodd" stroke="none"/>
  </g>
</svg>
