<?xml version="1.0" encoding="UTF-8" standalone="no"?>
<svg xmlns:ffdec="https://www.free-decompiler.com/flash" xmlns:xlink="http://www.w3.org/1999/xlink" ffdec:objectType="shape" height="5.4px" width="7.95px" xmlns="http://www.w3.org/2000/svg">
  <g transform="matrix(1.0, 0.0, 0.0, 1.0, 3.9, 2.65)">
    <path d="M0.45 -1.0 L0.7 -1.0 0.7 1.0 0.45 1.0 0.3 0.65 -0.05 0.5 -0.05 -0.5 0.3 -0.65 0.45 -1.0" fill="#333333" fill-rule="evenodd" stroke="none"/>
    <path d="M0.45 1.0 L0.7 1.0 0.7 -1.0 0.45 -1.0 0.3 -1.35 -0.05 -1.5 -1.7 -1.5 -2.05 -1.35 -2.2 -1.0 -2.05 -0.65 -1.7 -0.5 -1.25 -0.5 -1.45 0.5 -1.55 0.5 Q-1.75 0.5 -1.9 0.65 L-2.05 1.0 -1.9 1.35 -1.55 1.5 -0.05 1.5 0.3 1.35 0.45 1.0 M2.45 -0.8 L2.45 -1.65 4.05 -1.65 4.05 -0.85 3.0 -0.8 3.05 1.05 4.05 1.05 4.05 1.6 2.45 1.6 2.45 0.7 2.45 -0.8 M1.25 0.7 L1.25 1.55 1.0 1.55 1.0 1.6 -2.55 1.6 -2.55 0.65 -2.55 -0.7 -2.55 -1.65 1.0 -1.65 1.0 -1.6 1.25 -1.6 1.25 -0.8 1.25 0.7" fill="#ffff66" fill-rule="evenodd" stroke="none"/>
    <path d="M-0.05 -0.5 L-0.05 0.5 -1.45 0.5 -1.25 -0.5 -0.05 -0.5" fill="#ffffcc" fill-rule="evenodd" stroke="none"/>
    <path d="M0.45 -1.0 L0.3 -0.65 -0.05 -0.5 -1.25 -0.5 -1.7 -0.5 -2.05 -0.65 -2.2 -1.0 -2.05 -1.35 -1.7 -1.5 -0.05 -1.5 0.3 -1.35 0.45 -1.0 M-0.05 0.5 L0.3 0.65 0.45 1.0 0.3 1.35 -0.05 1.5 -1.55 1.5 -1.9 1.35 -2.05 1.0 -1.9 0.65 Q-1.75 0.5 -1.55 0.5 L-1.45 0.5 -0.05 0.5 M4.05 -0.85 L4.05 1.05 3.05 1.05 3.0 -0.8 4.05 -0.85" fill="#ff9900" fill-rule="evenodd" stroke="none"/>
    <path d="M2.45 0.7 L1.25 0.7 M-2.55 0.65 L-3.1 0.65 -3.15 1.3 M1.25 -0.8 L2.45 -0.8 M-3.6 0.65 L-3.1 0.65 -3.1 -0.7 -3.55 -0.7 M-3.1 -1.35 L-3.1 -0.7 -2.55 -0.7" fill="none" stroke="#ffff66" stroke-linecap="square" stroke-linejoin="round" stroke-width="0.5"/>
    <path d="M2.35 -2.0 L2.25 -1.75 Q2.1 -1.6 2.0 -1.6 L0.65 -1.6 0.4 -1.75 0.3 -2.0 0.4 -2.25 0.65 -2.35 2.0 -2.35 2.25 -2.25 2.35 -2.0 M-3.0 -2.35 L-1.65 -2.35 -1.4 -2.25 -1.3 -2.0 -1.4 -1.75 Q-1.55 -1.6 -1.65 -1.6 L-3.0 -1.6 -3.25 -1.75 -3.35 -2.0 -3.25 -2.25 -3.0 -2.35" fill="#666666" fill-rule="evenodd" stroke="none"/>
    <path d="M2.35 -2.0 L2.25 -2.25 2.0 -2.35 0.65 -2.35 0.4 -2.25 0.3 -2.0 0.4 -1.75 0.65 -1.6 2.0 -1.6 Q2.1 -1.6 2.25 -1.75 L2.35 -2.0 M2.85 -2.0 L2.5 -1.55 0.1 -1.55 -0.2 -2.0 0.2 -2.5 1.35 -2.65 2.4 -2.5 2.85 -2.0 M-1.25 -2.5 L-0.8 -2.0 Q-0.8 -1.75 -1.15 -1.55 L-3.55 -1.55 -3.85 -2.0 -3.45 -2.5 -2.3 -2.65 -1.25 -2.5 M-3.0 -2.35 L-3.25 -2.25 -3.35 -2.0 -3.25 -1.75 -3.0 -1.6 -1.65 -1.6 Q-1.55 -1.6 -1.4 -1.75 L-1.3 -2.0 -1.4 -2.25 -1.65 -2.35 -3.0 -2.35" fill="#333333" fill-rule="evenodd" stroke="none"/>
    <path d="M-0.2 2.05 L0.2 1.55 2.4 1.55 2.85 2.05 2.4 2.55 1.35 2.75 0.2 2.55 -0.2 2.05 M0.65 1.7 L0.4 1.8 0.3 2.05 0.4 2.3 0.65 2.45 2.0 2.45 2.25 2.3 2.35 2.05 2.25 1.8 2.0 1.7 0.65 1.7 M-3.85 2.05 L-3.45 1.55 -1.25 1.55 -0.8 2.05 -1.25 2.55 -2.3 2.75 -3.45 2.55 -3.85 2.05 M-3.35 2.05 L-3.25 2.3 -3.0 2.45 -1.65 2.45 -1.4 2.3 -1.3 2.05 -1.4 1.8 -1.65 1.7 -3.0 1.7 -3.25 1.8 -3.35 2.05" fill="#333333" fill-rule="evenodd" stroke="none"/>
    <path d="M0.65 1.7 L2.0 1.7 2.25 1.8 2.35 2.05 2.25 2.3 2.0 2.45 0.65 2.45 0.4 2.3 0.3 2.05 0.4 1.8 0.65 1.7 M-3.35 2.05 L-3.25 1.8 -3.0 1.7 -1.65 1.7 -1.4 1.8 -1.3 2.05 -1.4 2.3 -1.65 2.45 -3.0 2.45 -3.25 2.3 -3.35 2.05" fill="#666666" fill-rule="evenodd" stroke="none"/>
  </g>
</svg>
