<?xml version="1.0" encoding="UTF-8" standalone="no"?>
<svg xmlns:ffdec="https://www.free-decompiler.com/flash" xmlns:xlink="http://www.w3.org/1999/xlink" ffdec:objectType="shape" height="1.5px" width="9.2px" xmlns="http://www.w3.org/2000/svg">
  <g transform="matrix(1.0, 0.0, 0.0, 1.0, 0.0, 0.75)">
    <path d="M0.0 -0.55 L0.0 -0.75 9.2 -0.75 9.2 -0.55 0.0 -0.55" fill="#000000" fill-rule="evenodd" stroke="none"/>
    <path d="M0.0 -0.55 L9.2 -0.55 9.2 0.55 0.0 0.55 0.0 -0.55 M3.1 0.05 L3.75 0.1 Q3.4 -0.35 3.05 0.0 L3.1 0.05 M7.35 0.1 Q7.75 0.75 8.3 0.3 L8.3 0.25 7.35 0.0 7.35 0.1 M7.0 -0.1 L6.6 -0.1 Q6.4 0.25 6.7 0.4 L7.05 0.0 7.0 -0.1 M1.1 -0.15 L1.1 -0.2 Q0.65 -0.35 0.6 0.2 L0.65 0.2 Q1.1 0.3 1.1 -0.15" fill="#ccc1aa" fill-rule="evenodd" stroke="none"/>
    <path d="M1.1 -0.15 Q1.1 0.3 0.65 0.2 L0.6 0.2 Q0.65 -0.35 1.1 -0.2 L1.1 -0.15 M7.0 -0.1 L7.05 0.0 6.7 0.4 Q6.4 0.25 6.6 -0.1 L7.0 -0.1 M7.35 0.1 L7.35 0.0 8.3 0.25 8.3 0.3 Q7.75 0.75 7.35 0.1 M3.1 0.05 L3.05 0.0 Q3.4 -0.35 3.75 0.1 L3.1 0.05" fill="#bcae8f" fill-rule="evenodd" stroke="none"/>
    <path d="M9.2 0.55 L9.2 0.75 0.0 0.75 0.0 0.55 9.2 0.55" fill="#ffffff" fill-rule="evenodd" stroke="none"/>
  </g>
</svg>
