<?xml version="1.0" encoding="UTF-8" standalone="no"?>
<svg xmlns:ffdec="https://www.free-decompiler.com/flash" xmlns:xlink="http://www.w3.org/1999/xlink" ffdec:objectType="shape" height="21.9px" width="21.9px" xmlns="http://www.w3.org/2000/svg">
  <g transform="matrix(1.0, 0.0, 0.0, 1.0, 0.75, 0.75)">
    <path d="M10.2 20.4 Q6.0 20.4 3.0 17.4 0.0 14.4 0.0 10.2 0.0 6.0 3.0 3.0 6.0 0.0 10.2 0.0 14.4 0.0 17.4 3.0 20.4 6.0 20.4 10.2 20.4 14.4 17.4 17.4 14.4 20.4 10.2 20.4" fill="url(#gradient0)" fill-rule="evenodd" stroke="none"/>
    <path d="M10.2 20.4 Q6.0 20.4 3.0 17.4 0.0 14.4 0.0 10.2 0.0 6.0 3.0 3.0 6.0 0.0 10.2 0.0 14.4 0.0 17.4 3.0 20.4 6.0 20.4 10.2 20.4 14.4 17.4 17.4 14.4 20.4 10.2 20.4 Z" fill="none" stroke="#fefdf9" stroke-linecap="round" stroke-linejoin="round" stroke-width="1.5"/>
  </g>
  <defs>
    <linearGradient gradientTransform="matrix(0.0125, 0.0, 0.0, 0.0125, 10.2, 10.2)" gradientUnits="userSpaceOnUse" id="gradient0" spreadMethod="pad" x1="-819.2" x2="819.2">
      <stop offset="0.0" stop-color="#ffcc00"/>
      <stop offset="1.0" stop-color="#ff0000"/>
    </linearGradient>
  </defs>
</svg>
