<?xml version="1.0" encoding="UTF-8" standalone="no"?>
<svg xmlns:ffdec="https://www.free-decompiler.com/flash" xmlns:xlink="http://www.w3.org/1999/xlink" ffdec:objectType="shape" height="27.85px" width="36.8px" xmlns="http://www.w3.org/2000/svg">
  <g transform="matrix(1.0, 0.0, 0.0, 1.0, 0.75, 3.85)">
    <path d="M17.4 3.0 Q20.4 6.0 20.4 10.2 20.4 14.4 17.4 17.4 14.4 20.4 10.2 20.4 6.0 20.4 3.0 17.4 0.0 14.4 0.0 10.2 0.0 6.0 3.0 3.0 6.0 0.0 10.2 0.0 14.4 0.0 17.4 3.0" fill="url(#gradient0)" fill-rule="evenodd" stroke="none"/>
    <path d="M17.4 3.0 Q20.4 6.0 20.4 10.2 20.4 14.4 17.4 17.4 14.4 20.4 10.2 20.4 6.0 20.4 3.0 17.4 0.0 14.4 0.0 10.2 0.0 6.0 3.0 3.0 6.0 0.0 10.2 0.0 14.4 0.0 17.4 3.0 Z" fill="none" stroke="#fefdf9" stroke-linecap="round" stroke-linejoin="round" stroke-width="1.5"/>
    <path d="M12.25 0.2 Q16.35 -3.85 22.15 -3.85 27.95 -3.85 32.0 0.2 36.05 4.3 36.05 10.1 36.05 15.85 32.0 19.9 27.95 24.0 22.15 24.0 16.35 24.0 12.25 19.9 8.2 15.85 8.2 10.1 8.2 4.3 12.25 0.2" fill="url(#gradient1)" fill-rule="evenodd" stroke="none"/>
  </g>
  <defs>
    <linearGradient gradientTransform="matrix(0.0125, 0.0, 0.0, 0.0125, 10.2, 10.2)" gradientUnits="userSpaceOnUse" id="gradient0" spreadMethod="pad" x1="-819.2" x2="819.2">
      <stop offset="0.0" stop-color="#ccff00"/>
      <stop offset="1.0" stop-color="#00cc00"/>
    </linearGradient>
    <linearGradient gradientTransform="matrix(-0.017, 0.0, 0.0, -0.017, 22.15, 10.1)" gradientUnits="userSpaceOnUse" id="gradient1" spreadMethod="pad" x1="-819.2" x2="819.2">
      <stop offset="0.0" stop-color="#99ff00"/>
      <stop offset="1.0" stop-color="#33cc00"/>
    </linearGradient>
  </defs>
</svg>
