<?xml version="1.0" encoding="UTF-8" standalone="no"?>
<svg xmlns:ffdec="https://www.free-decompiler.com/flash" xmlns:xlink="http://www.w3.org/1999/xlink" ffdec:objectType="shape" height="20.7px" width="21.45px" xmlns="http://www.w3.org/2000/svg">
  <g transform="matrix(1.0, 0.0, 0.0, 1.0, 10.45, 10.25)">
    <path d="M-9.05 5.65 Q-10.55 3.25 -10.45 0.15 -10.3 -4.15 -7.1 -7.2 -3.85 -10.25 0.6 -10.25 5.1 -10.3 8.15 -7.2 11.25 -4.1 11.0 0.25 10.85 3.4 9.0 5.9 8.45 4.0 7.1 2.45 L6.6 1.95 Q3.85 -0.8 -0.05 -0.8 -3.95 -0.8 -6.75 1.95 L-7.2 2.45 Q-8.5 3.9 -9.05 5.65" fill="url(#gradient0)" fill-rule="evenodd" stroke="none"/>
    <path d="M-9.05 5.65 Q-8.5 3.9 -7.2 2.45 L-6.75 1.95 Q-3.95 -0.8 -0.05 -0.8 3.85 -0.8 6.6 1.95 L7.1 2.45 Q8.45 4.0 9.0 5.9 L7.45 7.55 Q4.15 10.55 -0.3 10.45 -4.7 10.4 -7.65 7.4 L-9.05 5.65" fill="url(#gradient1)" fill-rule="evenodd" stroke="none"/>
    <path d="M2.8 0.5 Q2.35 -1.25 1.3 -1.95 0.2 -2.7 -1.1 -1.75 L-1.5 -1.4 Q-2.25 -0.7 -2.7 0.5 L-2.7 3.15 -8.45 3.15 -8.45 -1.35 -5.8 -1.35 -5.75 -1.4 -5.45 -1.4 Q-3.9 -5.25 -0.2 -5.8 3.6 -5.8 5.7 -1.4 L5.9 -1.4 5.9 -1.35 8.75 -1.35 8.75 3.15 2.8 3.15 2.8 0.5" fill="#ffffff" fill-rule="evenodd" stroke="none"/>
  </g>
  <defs>
    <radialGradient cx="0" cy="0" gradientTransform="matrix(0.0237, 0.0, 0.0, 0.0237, -0.1, -8.95)" gradientUnits="userSpaceOnUse" id="gradient0" r="819.2" spreadMethod="pad">
      <stop offset="0.0" stop-color="#ff0000"/>
      <stop offset="0.9686274509803922" stop-color="#990000"/>
    </radialGradient>
    <radialGradient cx="0" cy="0" gradientTransform="matrix(0.0134, 0.0, 0.0, 0.0134, 0.15, 8.55)" gradientUnits="userSpaceOnUse" id="gradient1" r="819.2" spreadMethod="pad">
      <stop offset="0.0" stop-color="#ff0000"/>
      <stop offset="0.9686274509803922" stop-color="#990000"/>
    </radialGradient>
  </defs>
</svg>
