<?xml version="1.0" encoding="UTF-8" standalone="no"?>
<svg xmlns:ffdec="https://www.free-decompiler.com/flash" xmlns:xlink="http://www.w3.org/1999/xlink" ffdec:objectType="shape" height="12.3px" width="8.7px" xmlns="http://www.w3.org/2000/svg">
  <g transform="matrix(1.0, 0.0, 0.0, 1.0, 3.4, 5.0)">
    <path d="M2.7 -3.85 L4.75 -2.95 3.3 -1.25 2.8 -1.55 1.7 -1.9 1.7 -0.35 2.55 -0.2 3.8 0.25 Q5.3 1.1 5.3 2.7 L5.0 4.0 Q4.6 4.95 3.6 5.4 L1.7 5.9 1.7 7.3 0.35 7.3 0.35 5.9 -1.95 5.45 -3.4 4.7 -1.95 2.95 -1.45 3.25 0.35 3.8 0.35 1.95 -0.6 1.7 -2.05 1.2 -3.05 0.1 -3.25 -0.95 Q-3.25 -2.7 -1.75 -3.55 -1.0 -3.95 0.35 -4.05 L0.35 -5.0 1.7 -5.0 1.7 -4.05 2.7 -3.85 M-0.15 -1.85 L-0.6 -1.25 -0.4 -0.85 0.35 -0.6 0.35 -1.95 -0.15 -1.85 M2.55 3.3 L2.65 2.9 2.6 2.65 Q2.45 2.35 1.7 2.15 L1.7 3.8 Q2.3 3.65 2.55 3.3" fill="#990000" fill-rule="evenodd" stroke="none"/>
  </g>
</svg>
