<?xml version="1.0" encoding="UTF-8" standalone="no"?>
<svg xmlns:ffdec="https://www.free-decompiler.com/flash" xmlns:xlink="http://www.w3.org/1999/xlink" ffdec:objectType="shape" height="7.5px" width="29.0px" xmlns="http://www.w3.org/2000/svg">
  <g transform="matrix(1.0, 0.0, 0.0, 1.0, 14.5, 3.75)">
    <path d="M-9.0 2.35 L-9.4 2.35 -9.4 -1.8 Q-9.15 -1.8 -9.05 0.3 L-9.0 2.35" fill="#545454" fill-rule="evenodd" stroke="none"/>
    <path d="M0.0 -0.95 L0.15 -0.85 0.15 1.0 -0.25 1.0 -0.45 1.0 -0.45 -0.95 -0.25 -0.95 0.0 -0.95" fill="#4c4c4c" fill-rule="evenodd" stroke="none"/>
    <path d="M-14.5 2.9 L-14.5 1.75 -13.95 1.1 -13.95 2.8 -13.95 2.9 -14.5 2.9" fill="#333333" fill-rule="evenodd" stroke="none"/>
    <path d="M13.15 -2.35 L14.5 -2.35 14.5 -1.95 13.85 -1.95 13.15 -1.95 13.15 -2.35 M14.5 1.95 L14.5 2.5 13.15 2.5 13.15 1.95 14.5 1.95" fill="#cb7866" fill-rule="evenodd" stroke="none"/>
    <path d="M14.5 -2.75 L14.5 -2.35 13.15 -2.35 13.15 -2.75 14.5 -2.75 M14.5 1.6 L14.5 1.95 13.15 1.95 13.15 1.7 13.95 1.6 14.5 1.6" fill="#bf5448" fill-rule="evenodd" stroke="none"/>
    <path d="M0.15 -0.85 L0.0 -0.95 -0.25 -1.15 -0.3 -1.15 Q-0.6 -1.15 -0.8 -1.5 L-1.05 -2.4 3.5 -2.4 Q2.85 -1.75 3.05 -1.4 L0.6 -1.15 3.15 -1.15 3.2 -1.05 0.15 -0.85 M7.2 0.0 L7.2 -0.15 7.6 -0.15 Q7.45 0.5 7.9 1.85 L8.35 0.9 9.15 -0.15 12.6 -0.15 Q12.55 0.4 11.85 0.9 L7.8 2.95 6.05 2.95 7.15 0.35 7.2 0.0 M14.5 -0.15 L14.5 0.95 13.95 1.6 13.15 1.7 13.1 1.7 14.2 -0.15 14.5 -0.15 M-10.15 -1.25 L-10.45 -0.35 Q-10.95 -1.35 -10.75 -2.1 L-10.15 -1.25 M-1.1 1.3 L0.2 1.45 -0.85 1.95 -1.9 1.45 -1.1 1.3 M-13.95 1.1 L-12.35 0.75 Q-10.95 0.5 -10.95 0.25 L-10.75 1.25 Q-10.6 2.3 -10.9 2.8 L-13.95 2.8 -13.95 1.1" fill="#798675" fill-rule="evenodd" stroke="none"/>
    <path d="M-8.15 0.7 L-8.15 1.7 -8.3 0.7 -8.15 0.7 M-7.95 1.95 L-7.55 1.95 -7.55 2.1 -7.95 1.95" fill="#8b3830" fill-rule="evenodd" stroke="none"/>
    <path d="M-9.55 -3.45 L-8.55 -3.45 -8.55 -3.05 -8.55 -2.4 -9.5 -2.4 -9.5 -2.6 -9.55 -3.45 M-8.55 3.75 L-9.55 3.6 -9.5 2.8 -8.55 2.8 -8.55 3.3 -8.55 3.75 M-14.5 -2.6 L-14.5 -3.75 -13.95 -3.75 -13.95 -2.6 -14.5 -2.6" fill="#373737" fill-rule="evenodd" stroke="none"/>
    <path d="M12.5 -1.95 L12.1 -2.8 12.9 -2.8 12.9 -1.95 12.5 -1.95 M12.6 1.7 L12.9 1.7 12.9 2.5 12.1 2.6 12.6 1.7" fill="#576053" fill-rule="evenodd" stroke="none"/>
    <path d="M11.85 -3.05 L14.5 -3.05 14.5 -2.75 13.15 -2.75 12.9 -2.8 12.1 -2.8 11.85 -3.05 M14.5 -1.95 L14.5 -1.15 13.85 -1.95 14.5 -1.95 M14.5 0.95 L14.5 1.6 13.95 1.6 14.5 0.95 M14.5 2.5 L14.5 2.9 11.95 2.9 12.1 2.6 12.9 2.5 13.15 2.5 14.5 2.5" fill="#323433" fill-rule="evenodd" stroke="none"/>
    <path d="M7.0 -0.4 L5.75 -3.05 6.2 -3.05 7.05 -1.35 7.6 -0.15 7.2 -0.15 7.0 -0.4 M7.75 -3.05 L7.8 -3.05 Q12.5 -0.95 12.6 -0.15 L9.15 -0.15 8.7 -1.9 7.75 -3.05 M14.5 -1.15 L14.5 -0.15 14.2 -0.15 13.15 -1.95 13.85 -1.95 14.5 -1.15 M-11.4 3.6 L-13.95 3.6 -13.95 2.9 -13.95 2.8 -10.9 2.8 -11.4 3.6" fill="#687263" fill-rule="evenodd" stroke="none"/>
    <path d="M-14.5 1.75 L-14.5 -2.6 -13.95 -2.6 -13.95 1.1 -14.5 1.75 M-9.5 -2.4 L-8.55 -2.4 -8.55 2.8 -9.5 2.8 -9.5 -2.4 M-9.0 2.35 L-9.05 0.3 Q-9.15 -1.8 -9.4 -1.8 L-9.4 2.35 -9.0 2.35" fill="#8e8e8e" fill-rule="evenodd" stroke="none"/>
    <path d="M4.15 -3.25 L3.75 -3.2 -0.25 -3.2 Q-1.15 -3.05 -8.55 -3.05 L-8.55 -3.45 -9.55 -3.45 -9.55 -3.75 14.5 -3.05 11.85 -3.05 10.6 -3.05 9.4 -3.05 7.8 -3.05 7.75 -3.05 6.2 -3.05 5.75 -3.05 7.0 -0.4 Q5.4 -0.4 5.4 -1.55 5.4 -2.9 4.15 -3.25 M14.5 2.9 L14.4 3.75 -8.55 3.75 -8.55 3.3 4.9 3.3 4.9 3.15 4.4 3.15 4.45 2.8 5.45 2.6 Q4.9 1.8 5.2 0.65 L5.25 0.55 7.15 0.35 6.05 2.95 7.8 2.95 9.35 2.95 10.55 2.95 11.95 2.9 14.5 2.9 M4.35 1.9 L4.25 1.65 Q4.05 1.0 4.85 0.65 L4.35 1.9" fill="#000000" fill-rule="evenodd" stroke="none"/>
    <path d="M3.75 -3.2 L4.15 -3.25 4.45 -2.55 4.1 -2.55 3.75 -3.2 M5.35 -0.5 L5.55 0.0 5.4 0.1 5.35 0.1 5.35 -0.5 M0.6 2.35 L2.1 2.2 3.55 2.15 0.6 2.35 M0.75 0.5 L2.0 0.35 3.2 0.3 0.75 0.5" fill="#883c33" fill-rule="evenodd" stroke="none"/>
    <path d="M4.15 -3.25 Q5.4 -2.9 5.4 -1.55 5.4 -0.4 7.0 -0.4 L7.2 -0.15 7.2 0.0 5.55 0.0 5.35 -0.5 5.25 -1.6 Q5.15 -2.45 4.45 -2.55 L4.15 -3.25 M9.4 -3.05 L10.6 -3.05 11.95 -1.95 9.4 -3.05 M-8.55 -3.05 Q-1.15 -3.05 -0.25 -3.2 L-1.05 -2.4 -8.55 -2.4 -8.55 -3.05 M3.75 -3.2 L4.1 -2.55 4.05 -2.4 3.5 -2.4 3.75 -3.2 M9.35 2.95 L12.05 1.7 10.55 2.95 9.35 2.95 M5.25 0.55 L5.2 0.65 5.2 0.55 5.35 0.1 5.4 0.1 5.25 0.55 M4.4 3.15 L4.9 3.15 4.9 3.3 -8.55 3.3 -8.55 2.8 4.0 2.8 4.25 2.8 4.1 3.15 4.4 3.15 M-8.15 0.7 L-7.55 0.7 -7.55 1.95 -7.95 1.95 -8.15 1.95 -8.15 1.7 -8.15 0.7" fill="#944138" fill-rule="evenodd" stroke="none"/>
    <path d="M7.8 -3.05 L9.4 -3.05 11.95 -1.95 10.6 -3.05 11.85 -3.05 12.1 -2.8 12.5 -1.95 13.25 -0.15 12.6 1.7 12.1 2.6 11.95 2.9 10.55 2.95 12.05 1.7 9.35 2.95 7.8 2.95 11.85 0.9 Q12.55 0.4 12.6 -0.15 12.5 -0.95 7.8 -3.05 M5.55 0.0 L7.2 0.0 7.15 0.35 5.25 0.55 5.4 0.1 5.55 0.0 M4.45 2.8 L4.4 3.15 4.1 3.15 4.25 2.8 4.45 2.4 4.45 2.8" fill="#b95146" fill-rule="evenodd" stroke="none"/>
    <path d="M-9.55 -3.75 L-9.55 -3.45 -9.5 -2.6 -13.95 -2.6 -13.95 -3.75 -9.55 -3.75 M-9.55 3.6 L-11.4 3.6 -10.9 2.8 -9.5 2.8 -9.55 3.6 M-12.75 -0.95 L-12.75 -1.35 -11.6 -1.35 -11.6 -0.95 -12.75 -0.95" fill="#c3bf5b" fill-rule="evenodd" stroke="none"/>
    <path d="M6.2 -3.05 L7.75 -3.05 8.7 -1.9 9.15 -0.15 7.6 -0.15 7.05 -1.35 6.2 -3.05" fill="#555a50" fill-rule="evenodd" stroke="none"/>
    <path d="M7.6 -0.15 L9.15 -0.15 8.35 0.9 7.9 1.85 Q7.45 0.5 7.6 -0.15" fill="#656c60" fill-rule="evenodd" stroke="none"/>
    <path d="M-12.75 -0.95 L-11.6 -0.95 -11.6 -1.35 -12.75 -1.35 -12.75 -0.95 M-10.15 -1.25 L-10.75 -2.1 Q-10.95 -1.35 -10.45 -0.35 L-10.15 -1.25 M-13.95 -2.6 L-9.5 -2.6 -9.5 -2.4 -9.5 2.8 -10.9 2.8 Q-10.6 2.3 -10.75 1.25 L-10.95 0.25 Q-10.95 0.5 -12.35 0.75 L-13.95 1.1 -13.95 -2.6" fill="#e4e661" fill-rule="evenodd" stroke="none"/>
    <path d="M4.1 -2.55 L4.45 -2.55 Q5.15 -2.45 5.25 -1.6 L5.35 -0.5 5.35 0.1 5.2 0.55 5.2 0.65 Q4.9 1.8 5.45 2.6 L4.45 2.8 4.45 2.4 4.25 2.8 4.0 2.8 4.35 1.9 4.85 0.65 5.05 0.1 4.05 -2.4 4.1 -2.55" fill="#983d3d" fill-rule="evenodd" stroke="none"/>
    <path d="M-0.25 -0.95 L-0.45 -0.95 -0.45 1.0 -0.25 1.0 Q-0.25 1.2 -0.75 1.2 L-0.75 -1.15 -0.3 -1.15 -0.25 -1.15 -0.25 -0.95 M13.15 -2.75 L13.15 -2.35 13.15 -1.95 12.9 -1.95 12.9 -2.8 13.15 -2.75 M13.1 1.7 L13.15 1.7 13.15 1.95 13.15 2.5 12.9 2.5 12.9 1.7 13.1 1.7" fill="#8e8b82" fill-rule="evenodd" stroke="none"/>
    <path d="M12.9 -1.95 L13.15 -1.95 14.2 -0.15 13.25 -0.15 12.5 -1.95 12.9 -1.95" fill="#2b2d28" fill-rule="evenodd" stroke="none"/>
    <path d="M14.2 -0.15 L13.1 1.7 12.9 1.7 12.6 1.7 13.25 -0.15 14.2 -0.15" fill="#383a34" fill-rule="evenodd" stroke="none"/>
    <path d="M-0.25 -3.2 L3.75 -3.2 3.5 -2.4 -1.05 -2.4 -0.25 -3.2 M3.15 -1.15 L0.6 -1.15 3.05 -1.4 3.15 -1.15" fill="#5b6457" fill-rule="evenodd" stroke="none"/>
    <path d="M-13.95 3.6 L-14.5 2.9 -13.95 2.9 -13.95 3.6" fill="#0d0d0d" fill-rule="evenodd" stroke="none"/>
    <path d="M0.0 -0.95 L-0.25 -0.95 -0.25 -1.15 0.0 -0.95 M-0.25 1.0 L0.15 1.0 0.15 -0.85 3.2 -1.05 3.15 -1.15 3.05 -1.4 Q2.85 -1.75 3.5 -2.4 L4.05 -2.4 5.05 0.1 4.85 0.65 Q4.05 1.0 4.25 1.65 L4.35 1.9 4.0 2.8 -8.55 2.8 -8.55 -2.4 -1.05 -2.4 -0.8 -1.5 Q-0.6 -1.15 -0.3 -1.15 L-0.75 -1.15 -0.75 1.2 Q-0.25 1.2 -0.25 1.0 M0.75 0.5 L3.2 0.3 2.0 0.35 0.75 0.5 M0.6 2.35 L3.55 2.15 2.1 2.2 0.6 2.35 M-1.1 1.3 L-1.9 1.45 -0.85 1.95 0.2 1.45 -1.1 1.3 M-7.55 1.95 L-7.55 0.7 -8.15 0.7 -8.3 0.7 -8.15 1.7 -8.15 1.95 -7.95 1.95 -7.55 2.1 -7.55 1.95" fill="url(#gradient0)" fill-rule="evenodd" stroke="none"/>
    <path d="M-6.7 2.15 L-5.95 2.15 -4.95 2.2 -4.1 2.5 Q-3.65 2.6 -3.3 2.8 L-2.5 2.8 -2.5 1.3 -3.3 1.3 -3.3 2.35 Q-3.7 2.15 -4.1 2.1 L-5.05 1.9 -5.95 1.75 -6.7 1.75 -6.7 2.15 M-6.7 0.3 L-5.95 0.3 -4.95 0.35 -4.1 0.7 Q-3.65 0.75 -3.3 0.95 L-2.5 0.95 -2.5 -0.6 -3.3 -0.6 -3.3 0.5 -4.1 0.2 -5.05 0.0 -5.95 -0.15 -6.7 -0.15 -6.7 0.3 M-6.7 -1.6 L-5.95 -1.6 -4.95 -1.45 -4.1 -1.2 -3.3 -0.95 -2.5 -0.95 -2.5 -2.4 -3.3 -2.4 -3.3 -1.4 -4.1 -1.65 -5.05 -1.85 -5.95 -1.95 -6.7 -1.95 -6.7 -1.6 Z" fill="none" stroke="#ffff87" stroke-linecap="round" stroke-linejoin="round" stroke-width="0.05"/>
    <path d="M-6.7 0.3 L-6.7 -0.15 -5.95 -0.15 -5.05 0.0 -4.1 0.2 -3.3 0.5 -3.3 -0.6 -2.5 -0.6 -2.5 0.95 -3.3 0.95 Q-3.65 0.75 -4.1 0.7 L-4.95 0.35 -5.95 0.3 -6.7 0.3 M-6.7 -1.6 L-6.7 -1.95 -5.95 -1.95 -5.05 -1.85 -4.1 -1.65 -3.3 -1.4 -3.3 -2.4 -2.5 -2.4 -2.5 -0.95 -3.3 -0.95 -4.1 -1.2 -4.95 -1.45 -5.95 -1.6 -6.7 -1.6 M-6.7 2.15 L-6.7 1.75 -5.95 1.75 -5.05 1.9 -4.1 2.1 Q-3.7 2.15 -3.3 2.35 L-3.3 1.3 -2.5 1.3 -2.5 2.8 -3.3 2.8 Q-3.65 2.6 -4.1 2.5 L-4.95 2.2 -5.95 2.15 -6.7 2.15" fill="#373737" fill-rule="evenodd" stroke="none"/>
    <path d="M11.05 0.9 L11.1 0.65 11.4 0.35 11.8 0.25 12.0 0.35 12.0 0.6 11.7 0.9 11.3 1.0 11.05 0.9 M11.75 0.75 L11.7 0.7 11.25 0.8 11.75 0.75" fill="#cccccc" fill-rule="evenodd" stroke="none"/>
    <path d="M11.75 0.75 L11.25 0.8 11.7 0.7 11.75 0.75" fill="#ffffff" fill-rule="evenodd" stroke="none"/>
    <path d="M11.4 -0.45 L11.1 -0.75 11.05 -0.95 11.3 -1.1 11.7 -1.0 12.0 -0.7 12.0 -0.4 11.8 -0.35 11.4 -0.45 M11.25 -0.8 L11.25 -0.75 Q11.55 -0.55 11.65 -0.85 L11.25 -0.8" fill="#cccccc" fill-rule="evenodd" stroke="none"/>
    <path d="M11.25 -0.8 L11.65 -0.85 Q11.55 -0.55 11.25 -0.75 L11.25 -0.8" fill="#ffffff" fill-rule="evenodd" stroke="none"/>
  </g>
  <defs>
    <radialGradient cx="0" cy="0" gradientTransform="matrix(0.0, -0.0096, 0.0044, 0.0, 5.55, 0.1)" gradientUnits="userSpaceOnUse" id="gradient0" r="819.2" spreadMethod="pad">
      <stop offset="0.0" stop-color="#e49292"/>
      <stop offset="1.0" stop-color="#b95146"/>
    </radialGradient>
  </defs>
</svg>
