<?xml version="1.0" encoding="UTF-8" standalone="no"?>
<svg xmlns:ffdec="https://www.free-decompiler.com/flash" xmlns:xlink="http://www.w3.org/1999/xlink" ffdec:objectType="shape" height="20.0px" width="20.0px" xmlns="http://www.w3.org/2000/svg">
  <g transform="matrix(1.0, 0.0, 0.0, 1.0, 10.0, 10.0)">
    <path d="M5.1 -5.1 Q3.0 -7.25 0.0 -7.25 -2.95 -7.25 -5.1 -5.1 -7.25 -2.95 -7.25 0.0 -7.25 3.0 -5.1 5.05 -2.95 7.25 0.0 7.25 3.0 7.25 5.1 5.05 7.25 3.0 7.25 0.0 7.25 -2.95 5.1 -5.1 M7.05 -7.05 Q10.0 -4.15 10.0 0.0 10.0 4.15 7.05 7.05 4.15 10.0 0.0 10.0 -4.15 10.0 -7.05 7.05 -10.0 4.15 -10.0 0.0 -10.0 -4.15 -7.05 -7.05 -4.15 -10.0 0.0 -10.0 4.15 -10.0 7.05 -7.05" fill="#ff0000" fill-rule="evenodd" stroke="none"/>
  </g>
</svg>
