<?xml version="1.0" encoding="UTF-8" standalone="no"?>
<svg xmlns:ffdec="https://www.free-decompiler.com/flash" xmlns:xlink="http://www.w3.org/1999/xlink" ffdec:objectType="shape" height="23.0px" width="481.0px" xmlns="http://www.w3.org/2000/svg">
  <g transform="matrix(1.0, 0.0, 0.0, 1.0, 0.5, 0.5)">
    <path d="M480.0 13.75 L480.0 22.0 0.0 22.0 0.0 13.75 480.0 13.75" fill="#222222" fill-rule="evenodd" stroke="none"/>
    <path d="M480.0 13.75 L0.0 13.75 0.0 0.0 480.0 0.0 480.0 13.75" fill="url(#gradient0)" fill-rule="evenodd" stroke="none"/>
    <path d="M0.0 22.0 L480.0 22.0 M480.0 0.0 L0.0 0.0" fill="none" stroke="#999999" stroke-linecap="round" stroke-linejoin="round" stroke-width="1.0"/>
    <path d="M480.0 0.0 L480.0 22.0 0.0 22.0 0.0 0.0 480.0 0.0" fill="url(#gradient1)" fill-rule="evenodd" stroke="none"/>
    <path d="M350.6 5.75 L350.6 17.75 M330.25 5.75 L330.25 17.75 M390.75 5.75 L390.75 17.75 M370.4 5.75 L370.4 17.75 M430.35 5.75 L430.35 17.75 M410.55 5.75 L410.55 17.75 M470.35 5.75 L470.35 17.75 M450.55 5.75 L450.55 17.75" fill="none" stroke="#ccfefd" stroke-linecap="square" stroke-linejoin="round" stroke-width="1.0"/>
    <path d="M371.4 5.75 L371.4 17.75 M351.6 5.75 L351.6 17.75 M331.25 5.75 L331.25 17.75 M391.75 5.75 L391.75 17.75 M411.55 5.75 L411.55 17.75 M431.35 5.75 L431.35 17.75 M451.55 5.75 L451.55 17.75 M471.35 5.75 L471.35 17.75 M11.1 5.75 L11.1 17.75 M31.15 5.75 L31.15 17.75 M51.35 5.75 L51.35 17.75 M71.05 5.75 L71.05 17.75 M90.95 5.75 L90.95 17.75 M111.1 5.75 L111.1 17.75 M131.6 5.75 L131.6 17.75 M151.3 5.75 L151.3 17.75 M171.25 5.75 L171.25 17.75 M191.35 5.75 L191.35 17.75 M210.7 5.75 L210.7 17.75 M231.5 5.75 L231.5 17.75 M310.9 5.75 L310.9 17.75 M291.4 5.75 L291.4 17.75 M271.15 5.75 L271.15 17.75 M251.05 5.75 L251.05 17.75" fill="none" stroke="#000000" stroke-linecap="square" stroke-linejoin="round" stroke-width="1.0"/>
    <path d="M30.15 5.75 L30.15 17.75 M50.35 5.75 L50.35 17.75 M150.3 5.75 L150.3 17.75 M170.25 5.75 L170.25 17.75" fill="none" stroke="#7c9a9a" stroke-linecap="square" stroke-linejoin="round" stroke-width="1.0"/>
    <path d="M70.05 5.75 L70.05 17.75" fill="none" stroke="#7b9b9a" stroke-linecap="square" stroke-linejoin="round" stroke-width="1.0"/>
    <path d="M10.1 5.75 L10.1 17.75" fill="none" stroke="#7a9a99" stroke-linecap="square" stroke-linejoin="round" stroke-width="1.0"/>
    <path d="M110.1 5.75 L110.1 17.75 M89.95 5.75 L89.95 17.75 M130.6 5.75 L130.6 17.75" fill="none" stroke="#7c9a98" stroke-linecap="square" stroke-linejoin="round" stroke-width="1.0"/>
    <path d="M190.35 5.75 L190.35 17.75 M209.7 5.75 L209.7 17.75" fill="none" stroke="#8fb3b1" stroke-linecap="square" stroke-linejoin="round" stroke-width="1.0"/>
    <path d="M230.5 5.75 L230.5 17.75" fill="none" stroke="#a2caca" stroke-linecap="square" stroke-linejoin="round" stroke-width="1.0"/>
    <path d="M290.4 5.75 L290.4 17.75" fill="none" stroke="#c6f8f5" stroke-linecap="square" stroke-linejoin="round" stroke-width="1.0"/>
    <path d="M309.9 5.75 L309.9 17.75" fill="none" stroke="#ccfeff" stroke-linecap="square" stroke-linejoin="round" stroke-width="1.0"/>
    <path d="M250.05 5.75 L250.05 17.75" fill="none" stroke="#b4dedd" stroke-linecap="square" stroke-linejoin="round" stroke-width="1.0"/>
    <path d="M270.15 5.75 L270.15 17.75" fill="none" stroke="#bcecec" stroke-linecap="square" stroke-linejoin="round" stroke-width="1.0"/>
  </g>
  <defs>
    <linearGradient gradientTransform="matrix(0.0, 0.0049, 0.0089, 0.0, 240.95, 5.6)" gradientUnits="userSpaceOnUse" id="gradient0" spreadMethod="pad" x1="-819.2" x2="819.2">
      <stop offset="0.0" stop-color="#000000"/>
      <stop offset="0.9921568627450981" stop-color="#666666"/>
    </linearGradient>
    <linearGradient gradientTransform="matrix(-0.2759, 0.0, 0.0, -0.0134, 219.0, 12.5)" gradientUnits="userSpaceOnUse" id="gradient1" spreadMethod="pad" x1="-819.2" x2="819.2">
      <stop offset="0.0" stop-color="#000000" stop-opacity="0.43137255"/>
      <stop offset="0.9921568627450981" stop-color="#000000"/>
    </linearGradient>
  </defs>
</svg>
