<?xml version="1.0" encoding="UTF-8" standalone="no"?>
<svg xmlns:ffdec="https://www.free-decompiler.com/flash" xmlns:xlink="http://www.w3.org/1999/xlink" ffdec:objectType="shape" height="6.7px" width="568.8px" xmlns="http://www.w3.org/2000/svg">
  <g transform="matrix(1.0, 0.0, 0.0, 1.0, 1.0, -0.85)">
    <path d="M559.3 3.45 Q559.6 3.15 560.0 3.15 560.4 3.15 560.7 3.45 L561.0 4.15 560.7 4.85 560.0 5.15 Q559.6 5.15 559.3 4.85 559.0 4.55 559.0 4.15 559.0 3.75 559.3 3.45 M554.3 3.45 Q554.6 3.15 555.0 3.15 555.4 3.15 555.7 3.45 L556.0 4.15 555.7 4.85 Q555.4 5.15 555.0 5.15 L554.3 4.85 Q554.0 4.55 554.0 4.15 554.0 3.75 554.3 3.45 M549.3 3.45 Q549.6 3.15 550.0 3.15 550.4 3.15 550.7 3.45 L551.0 4.15 550.7 4.85 550.0 5.15 549.3 4.85 Q549.0 4.55 549.0 4.15 549.0 3.75 549.3 3.45 M544.3 3.45 Q544.6 3.15 545.0 3.15 545.4 3.15 545.7 3.45 L546.0 4.15 545.7 4.85 545.0 5.15 544.3 4.85 Q544.0 4.55 544.0 4.15 544.0 3.75 544.3 3.45 M540.7 3.45 L541.0 4.15 540.7 4.85 540.0 5.15 Q539.6 5.15 539.3 4.85 L539.0 4.15 Q539.0 3.75 539.3 3.45 539.6 3.15 540.0 3.15 540.4 3.15 540.7 3.45 M534.3 3.45 Q534.6 3.15 535.0 3.15 535.4 3.15 535.7 3.45 L536.0 4.15 535.7 4.85 535.0 5.15 Q534.6 5.15 534.3 4.85 534.0 4.55 534.0 4.15 534.0 3.75 534.3 3.45 M530.7 3.45 L531.0 4.15 530.7 4.85 530.0 5.15 Q529.6 5.15 529.3 4.85 529.0 4.55 529.0 4.15 529.0 3.75 529.3 3.45 529.6 3.15 530.0 3.15 530.4 3.15 530.7 3.45 M524.3 3.45 Q524.6 3.15 525.0 3.15 525.4 3.15 525.7 3.45 L526.0 4.15 525.7 4.85 525.0 5.15 524.3 4.85 Q524.0 4.55 524.0 4.15 524.0 3.75 524.3 3.45 M520.7 3.45 L521.0 4.15 520.7 4.85 520.0 5.15 519.3 4.85 Q519.0 4.55 519.0 4.15 519.0 3.75 519.3 3.45 519.6 3.15 520.0 3.15 520.4 3.15 520.7 3.45 M514.3 3.45 Q514.6 3.15 515.0 3.15 515.4 3.15 515.7 3.45 L516.0 4.15 515.7 4.85 515.0 5.15 Q514.6 5.15 514.3 4.85 514.0 4.55 514.0 4.15 514.0 3.75 514.3 3.45 M509.3 3.45 Q509.6 3.15 510.0 3.15 510.4 3.15 510.7 3.45 L511.0 4.15 510.7 4.85 Q510.4 5.15 510.0 5.15 L509.3 4.85 509.0 4.15 Q509.0 3.75 509.3 3.45 M504.3 3.45 Q504.6 3.15 505.0 3.15 505.4 3.15 505.7 3.45 L506.0 4.15 505.7 4.85 505.0 5.15 Q504.6 5.15 504.3 4.85 504.0 4.55 504.0 4.15 504.0 3.75 504.3 3.45 M500.7 3.45 L501.0 4.15 500.7 4.85 500.0 5.15 Q499.6 5.15 499.3 4.85 499.0 4.55 499.0 4.15 499.0 3.75 499.3 3.45 499.6 3.15 500.0 3.15 L500.7 3.45 M494.3 3.45 Q494.6 3.15 495.0 3.15 495.4 3.15 495.7 3.45 L496.0 4.15 495.7 4.85 495.0 5.15 494.3 4.85 Q494.0 4.55 494.0 4.15 494.0 3.75 494.3 3.45 M490.7 3.45 L491.0 4.15 490.7 4.85 490.0 5.15 Q489.6 5.15 489.3 4.85 489.0 4.55 489.0 4.15 489.0 3.75 489.3 3.45 489.6 3.15 490.0 3.15 490.4 3.15 490.7 3.45 M484.3 3.45 Q484.6 3.15 485.0 3.15 485.4 3.15 485.7 3.45 L486.0 4.15 485.7 4.85 485.0 5.15 Q484.6 5.15 484.3 4.85 484.0 4.55 484.0 4.15 484.0 3.75 484.3 3.45 M480.7 3.45 L481.0 4.15 480.7 4.85 Q480.4 5.15 480.0 5.15 L479.3 4.85 Q479.0 4.55 479.0 4.15 479.0 3.75 479.3 3.45 479.6 3.15 480.0 3.15 480.4 3.15 480.7 3.45 M474.3 3.45 Q474.6 3.15 475.0 3.15 475.4 3.15 475.7 3.45 L476.0 4.15 475.7 4.85 Q475.4 5.15 475.0 5.15 L474.3 4.85 Q474.0 4.55 474.0 4.15 474.0 3.75 474.3 3.45 M469.3 3.45 Q469.6 3.15 470.0 3.15 L470.7 3.45 471.0 4.15 470.7 4.85 470.0 5.15 Q469.6 5.15 469.3 4.85 469.0 4.55 469.0 4.15 469.0 3.75 469.3 3.45 M464.3 3.45 Q464.6 3.15 465.0 3.15 465.4 3.15 465.7 3.45 L466.0 4.15 465.7 4.85 465.0 5.15 Q464.6 5.15 464.3 4.85 464.0 4.55 464.0 4.15 464.0 3.75 464.3 3.45 M460.7 4.85 L460.0 5.15 Q459.6 5.15 459.3 4.85 459.0 4.55 459.0 4.15 459.0 3.75 459.3 3.45 459.6 3.15 460.0 3.15 460.4 3.15 460.7 3.45 L461.0 4.15 460.7 4.85 M455.7 4.85 L455.0 5.15 Q454.6 5.15 454.3 4.85 454.0 4.55 454.0 4.15 454.0 3.75 454.3 3.45 454.6 3.15 455.0 3.15 455.4 3.15 455.7 3.45 L456.0 4.15 455.7 4.85 M450.7 4.85 Q450.4 5.15 450.0 5.15 L449.3 4.85 Q449.0 4.55 449.0 4.15 449.0 3.75 449.3 3.45 449.6 3.15 450.0 3.15 450.4 3.15 450.7 3.45 L451.0 4.15 450.7 4.85 M445.7 4.85 L445.0 5.15 444.3 4.85 Q444.0 4.55 444.0 4.15 444.0 3.75 444.3 3.45 444.6 3.15 445.0 3.15 445.4 3.15 445.7 3.45 L446.0 4.15 445.7 4.85 M440.7 4.85 L440.0 5.15 439.3 4.85 Q439.0 4.55 439.0 4.15 439.0 3.75 439.3 3.45 439.6 3.15 440.0 3.15 440.4 3.15 440.7 3.45 L441.0 4.15 440.7 4.85 M435.7 4.85 L435.0 5.15 Q434.6 5.15 434.3 4.85 L434.0 4.15 Q434.0 3.75 434.3 3.45 434.6 3.15 435.0 3.15 435.4 3.15 435.7 3.45 L436.0 4.15 435.7 4.85 M431.0 4.15 L430.7 4.85 430.0 5.15 Q429.6 5.15 429.3 4.85 429.0 4.55 429.0 4.15 429.0 3.75 429.3 3.45 429.6 3.15 430.0 3.15 430.4 3.15 430.7 3.45 L431.0 4.15 M426.0 4.15 L425.7 4.85 425.0 5.15 Q424.6 5.15 424.3 4.85 424.0 4.55 424.0 4.15 424.0 3.75 424.3 3.45 424.6 3.15 425.0 3.15 425.4 3.15 425.7 3.45 L426.0 4.15 M420.7 4.85 L420.0 5.15 419.3 4.85 Q419.0 4.55 419.0 4.15 419.0 3.75 419.3 3.45 419.6 3.15 420.0 3.15 420.4 3.15 420.7 3.45 L421.0 4.15 420.7 4.85 M415.7 4.85 L415.0 5.15 414.3 4.85 Q414.0 4.55 414.0 4.15 414.0 3.75 414.3 3.45 414.6 3.15 415.0 3.15 415.4 3.15 415.7 3.45 L416.0 4.15 415.7 4.85 M411.0 4.15 L410.7 4.85 410.0 5.15 Q409.6 5.15 409.3 4.85 409.0 4.55 409.0 4.15 409.0 3.75 409.3 3.45 409.6 3.15 410.0 3.15 410.4 3.15 410.7 3.45 L411.0 4.15 M405.7 3.45 L406.0 4.15 405.7 4.85 Q405.4 5.15 405.0 5.15 L404.3 4.85 404.0 4.15 Q404.0 3.75 404.3 3.45 404.6 3.15 405.0 3.15 405.4 3.15 405.7 3.45 M401.0 4.15 L400.7 4.85 400.0 5.15 Q399.6 5.15 399.3 4.85 399.0 4.55 399.0 4.15 399.0 3.75 399.3 3.45 399.6 3.15 400.0 3.15 400.4 3.15 400.7 3.45 L401.0 4.15 M395.7 3.45 L396.0 4.15 395.7 4.85 395.0 5.15 Q394.6 5.15 394.3 4.85 394.0 4.55 394.0 4.15 394.0 3.75 394.3 3.45 394.6 3.15 395.0 3.15 L395.7 3.45 M391.0 4.15 L390.7 4.85 390.0 5.15 389.3 4.85 Q389.0 4.55 389.0 4.15 389.0 3.75 389.3 3.45 389.6 3.15 390.0 3.15 390.4 3.15 390.7 3.45 L391.0 4.15 M386.0 4.15 L385.7 4.85 385.0 5.15 Q384.6 5.15 384.3 4.85 384.0 4.55 384.0 4.15 384.0 3.75 384.3 3.45 384.6 3.15 385.0 3.15 385.4 3.15 385.7 3.45 L386.0 4.15 M381.0 4.15 L380.7 4.85 380.0 5.15 Q379.6 5.15 379.3 4.85 379.0 4.55 379.0 4.15 379.0 3.75 379.3 3.45 379.6 3.15 380.0 3.15 380.4 3.15 380.7 3.45 L381.0 4.15 M375.7 3.45 L376.0 4.15 375.7 4.85 Q375.4 5.15 375.0 5.15 L374.3 4.85 Q374.0 4.55 374.0 4.15 374.0 3.75 374.3 3.45 374.6 3.15 375.0 3.15 375.4 3.15 375.7 3.45 M371.0 4.15 L370.7 4.85 Q370.4 5.15 370.0 5.15 L369.3 4.85 Q369.0 4.55 369.0 4.15 369.0 3.75 369.3 3.45 369.6 3.15 370.0 3.15 370.4 3.15 370.7 3.45 L371.0 4.15 M365.7 3.45 L366.0 4.15 365.7 4.85 365.0 5.15 Q364.6 5.15 364.3 4.85 364.0 4.55 364.0 4.15 364.0 3.75 364.3 3.45 364.6 3.15 365.0 3.15 L365.7 3.45 M361.0 4.15 L360.7 4.85 360.0 5.15 Q359.6 5.15 359.3 4.85 359.0 4.55 359.0 4.15 359.0 3.75 359.3 3.45 359.6 3.15 360.0 3.15 360.4 3.15 360.7 3.45 L361.0 4.15 M355.7 3.45 L356.0 4.15 355.7 4.85 355.0 5.15 Q354.6 5.15 354.3 4.85 354.0 4.55 354.0 4.15 354.0 3.75 354.3 3.45 354.6 3.15 355.0 3.15 355.4 3.15 355.7 3.45 M351.0 4.15 L350.7 4.85 350.0 5.15 Q349.6 5.15 349.3 4.85 349.0 4.55 349.0 4.15 349.0 3.75 349.3 3.45 349.6 3.15 350.0 3.15 350.4 3.15 350.7 3.45 L351.0 4.15 M346.0 4.15 L345.7 4.85 Q345.4 5.15 345.0 5.15 L344.3 4.85 Q344.0 4.55 344.0 4.15 344.0 3.75 344.3 3.45 344.6 3.15 345.0 3.15 345.4 3.15 345.7 3.45 L346.0 4.15 M341.0 4.15 L340.7 4.85 340.0 5.15 339.3 4.85 Q339.0 4.55 339.0 4.15 339.0 3.75 339.3 3.45 339.6 3.15 340.0 3.15 340.4 3.15 340.7 3.45 L341.0 4.15 M335.7 3.45 L336.0 4.15 335.7 4.85 335.0 5.15 334.3 4.85 Q334.0 4.55 334.0 4.15 334.0 3.75 334.3 3.45 334.6 3.15 335.0 3.15 335.4 3.15 335.7 3.45 M331.0 4.15 L330.7 4.85 330.0 5.15 Q329.6 5.15 329.3 4.85 L329.0 4.15 Q329.0 3.75 329.3 3.45 329.6 3.15 330.0 3.15 330.4 3.15 330.7 3.45 L331.0 4.15 M325.7 3.45 L326.0 4.15 325.7 4.85 325.0 5.15 Q324.6 5.15 324.3 4.85 324.0 4.55 324.0 4.15 324.0 3.75 324.3 3.45 324.6 3.15 325.0 3.15 325.4 3.15 325.7 3.45 M319.3 3.45 Q319.6 3.15 320.0 3.15 320.4 3.15 320.7 3.45 L321.0 4.15 320.7 4.85 320.0 5.15 Q319.6 5.15 319.3 4.85 319.0 4.55 319.0 4.15 319.0 3.75 319.3 3.45 M315.7 3.45 L316.0 4.15 315.7 4.85 315.0 5.15 314.3 4.85 Q314.0 4.55 314.0 4.15 314.0 3.75 314.3 3.45 314.6 3.15 315.0 3.15 315.4 3.15 315.7 3.45 M309.3 3.45 Q309.6 3.15 310.0 3.15 310.4 3.15 310.7 3.45 L311.0 4.15 310.7 4.85 310.0 5.15 309.3 4.85 Q309.0 4.55 309.0 4.15 309.0 3.75 309.3 3.45 M304.3 3.45 Q304.6 3.15 305.0 3.15 305.4 3.15 305.7 3.45 L306.0 4.15 305.7 4.85 305.0 5.15 Q304.6 5.15 304.3 4.85 304.0 4.55 304.0 4.15 304.0 3.75 304.3 3.45 M299.3 3.45 Q299.6 3.15 300.0 3.15 300.4 3.15 300.7 3.45 L301.0 4.15 300.7 4.85 Q300.4 5.15 300.0 5.15 L299.3 4.85 299.0 4.15 Q299.0 3.75 299.3 3.45 M295.7 3.45 L296.0 4.15 295.7 4.85 295.0 5.15 Q294.6 5.15 294.3 4.85 294.0 4.55 294.0 4.15 294.0 3.75 294.3 3.45 294.6 3.15 295.0 3.15 295.4 3.15 295.7 3.45 M289.3 3.45 Q289.6 3.15 290.0 3.15 L290.7 3.45 291.0 4.15 290.7 4.85 290.0 5.15 Q289.6 5.15 289.3 4.85 289.0 4.55 289.0 4.15 289.0 3.75 289.3 3.45 M285.7 3.45 L286.0 4.15 285.7 4.85 285.0 5.15 284.3 4.85 Q284.0 4.55 284.0 4.15 284.0 3.75 284.3 3.45 284.6 3.15 285.0 3.15 285.4 3.15 285.7 3.45 M279.3 3.45 Q279.6 3.15 280.0 3.15 280.4 3.15 280.7 3.45 L281.0 4.15 280.7 4.85 280.0 5.15 Q279.6 5.15 279.3 4.85 279.0 4.55 279.0 4.15 279.0 3.75 279.3 3.45 M275.7 3.45 L276.0 4.15 275.7 4.85 275.0 5.15 Q274.6 5.15 274.3 4.85 274.0 4.55 274.0 4.15 274.0 3.75 274.3 3.45 274.6 3.15 275.0 3.15 275.4 3.15 275.7 3.45 M269.3 3.45 Q269.6 3.15 270.0 3.15 270.4 3.15 270.7 3.45 L271.0 4.15 270.7 4.85 Q270.4 5.15 270.0 5.15 L269.3 4.85 Q269.0 4.55 269.0 4.15 269.0 3.75 269.3 3.45 M264.3 3.45 Q264.6 3.15 265.0 3.15 265.4 3.15 265.7 3.45 L266.0 4.15 265.7 4.85 Q265.4 5.15 265.0 5.15 L264.3 4.85 Q264.0 4.55 264.0 4.15 264.0 3.75 264.3 3.45 M259.3 3.45 Q259.6 3.15 260.0 3.15 L260.7 3.45 261.0 4.15 260.7 4.85 260.0 5.15 Q259.6 5.15 259.3 4.85 259.0 4.55 259.0 4.15 259.0 3.75 259.3 3.45 M255.7 3.45 L256.0 4.15 255.7 4.85 255.0 5.15 Q254.6 5.15 254.3 4.85 254.0 4.55 254.0 4.15 254.0 3.75 254.3 3.45 254.6 3.15 255.0 3.15 255.4 3.15 255.7 3.45 M249.3 3.45 Q249.6 3.15 250.0 3.15 250.4 3.15 250.7 3.45 L251.0 4.15 250.7 4.85 250.0 5.15 Q249.6 5.15 249.3 4.85 249.0 4.55 249.0 4.15 249.0 3.75 249.3 3.45 M245.7 3.45 L246.0 4.15 245.7 4.85 245.0 5.15 Q244.6 5.15 244.3 4.85 244.0 4.55 244.0 4.15 244.0 3.75 244.3 3.45 244.6 3.15 245.0 3.15 245.4 3.15 245.7 3.45 M239.3 3.45 Q239.6 3.15 240.0 3.15 240.4 3.15 240.7 3.45 L241.0 4.15 240.7 4.85 Q240.4 5.15 240.0 5.15 L239.3 4.85 Q239.0 4.55 239.0 4.15 239.0 3.75 239.3 3.45 M235.7 3.45 L236.0 4.15 235.7 4.85 235.0 5.15 234.3 4.85 Q234.0 4.55 234.0 4.15 234.0 3.75 234.3 3.45 234.6 3.15 235.0 3.15 235.4 3.15 235.7 3.45 M229.3 3.45 Q229.6 3.15 230.0 3.15 230.4 3.15 230.7 3.45 L231.0 4.15 230.7 4.85 230.0 5.15 229.3 4.85 Q229.0 4.55 229.0 4.15 229.0 3.75 229.3 3.45 M224.3 3.45 Q224.6 3.15 225.0 3.15 225.4 3.15 225.7 3.45 L226.0 4.15 225.7 4.85 225.0 5.15 Q224.6 5.15 224.3 4.85 L224.0 4.15 Q224.0 3.75 224.3 3.45 M219.3 3.45 Q219.6 3.15 220.0 3.15 220.4 3.15 220.7 3.45 L221.0 4.15 220.7 4.85 220.0 5.15 Q219.6 5.15 219.3 4.85 219.0 4.55 219.0 4.15 219.0 3.75 219.3 3.45 M215.7 3.45 L216.0 4.15 215.7 4.85 215.0 5.15 Q214.6 5.15 214.3 4.85 214.0 4.55 214.0 4.15 214.0 3.75 214.3 3.45 214.6 3.15 215.0 3.15 215.4 3.15 215.7 3.45 M209.3 3.45 Q209.6 3.15 210.0 3.15 210.4 3.15 210.7 3.45 L211.0 4.15 210.7 4.85 210.0 5.15 209.3 4.85 Q209.0 4.55 209.0 4.15 209.0 3.75 209.3 3.45 M205.7 3.45 L206.0 4.15 205.7 4.85 205.0 5.15 204.3 4.85 Q204.0 4.55 204.0 4.15 204.0 3.75 204.3 3.45 204.6 3.15 205.0 3.15 205.4 3.15 205.7 3.45 M199.3 3.45 Q199.6 3.15 200.0 3.15 200.4 3.15 200.7 3.45 L201.0 4.15 200.7 4.85 200.0 5.15 Q199.6 5.15 199.3 4.85 199.0 4.55 199.0 4.15 199.0 3.75 199.3 3.45 M195.7 3.45 L196.0 4.15 195.7 4.85 Q195.4 5.15 195.0 5.15 L194.3 4.85 194.0 4.15 Q194.0 3.75 194.3 3.45 194.6 3.15 195.0 3.15 195.4 3.15 195.7 3.45 M189.3 3.45 Q189.6 3.15 190.0 3.15 190.4 3.15 190.7 3.45 L191.0 4.15 190.7 4.85 190.0 5.15 Q189.6 5.15 189.3 4.85 189.0 4.55 189.0 4.15 189.0 3.75 189.3 3.45 M184.3 3.45 Q184.6 3.15 185.0 3.15 L185.7 3.45 186.0 4.15 185.7 4.85 185.0 5.15 Q184.6 5.15 184.3 4.85 184.0 4.55 184.0 4.15 184.0 3.75 184.3 3.45 M179.3 3.45 Q179.6 3.15 180.0 3.15 180.4 3.15 180.7 3.45 L181.0 4.15 180.7 4.85 180.0 5.15 179.3 4.85 Q179.0 4.55 179.0 4.15 179.0 3.75 179.3 3.45 M175.7 3.45 L176.0 4.15 175.7 4.85 175.0 5.15 Q174.6 5.15 174.3 4.85 174.0 4.55 174.0 4.15 174.0 3.75 174.3 3.45 174.6 3.15 175.0 3.15 175.4 3.15 175.7 3.45 M169.3 3.45 Q169.6 3.15 170.0 3.15 170.4 3.15 170.7 3.45 L171.0 4.15 170.7 4.85 170.0 5.15 Q169.6 5.15 169.3 4.85 169.0 4.55 169.0 4.15 169.0 3.75 169.3 3.45 M165.7 3.45 L166.0 4.15 165.7 4.85 Q165.4 5.15 165.0 5.15 L164.3 4.85 Q164.0 4.55 164.0 4.15 164.0 3.75 164.3 3.45 164.6 3.15 165.0 3.15 165.4 3.15 165.7 3.45 M159.3 3.45 Q159.6 3.15 160.0 3.15 160.4 3.15 160.7 3.45 L161.0 4.15 160.7 4.85 Q160.4 5.15 160.0 5.15 L159.3 4.85 Q159.0 4.55 159.0 4.15 159.0 3.75 159.3 3.45 M155.7 3.45 L156.0 4.15 155.7 4.85 155.0 5.15 Q154.6 5.15 154.3 4.85 154.0 4.55 154.0 4.15 154.0 3.75 154.3 3.45 154.6 3.15 155.0 3.15 L155.7 3.45 M149.3 3.45 Q149.6 3.15 150.0 3.15 150.4 3.15 150.7 3.45 L151.0 4.15 150.7 4.85 150.0 5.15 Q149.6 5.15 149.3 4.85 149.0 4.55 149.0 4.15 149.0 3.75 149.3 3.45 M144.3 3.45 Q144.6 3.15 145.0 3.15 145.4 3.15 145.7 3.45 L146.0 4.15 145.7 4.85 145.0 5.15 Q144.6 5.15 144.3 4.85 144.0 4.55 144.0 4.15 144.0 3.75 144.3 3.45 M139.3 3.45 Q139.6 3.15 140.0 3.15 140.4 3.15 140.7 3.45 L141.0 4.15 140.7 4.85 140.0 5.15 Q139.6 5.15 139.3 4.85 139.0 4.55 139.0 4.15 139.0 3.75 139.3 3.45 M135.7 3.45 L136.0 4.15 135.7 4.85 Q135.4 5.15 135.0 5.15 L134.3 4.85 Q134.0 4.55 134.0 4.15 134.0 3.75 134.3 3.45 134.6 3.15 135.0 3.15 135.4 3.15 135.7 3.45 M129.3 3.45 Q129.6 3.15 130.0 3.15 130.4 3.15 130.7 3.45 L131.0 4.15 130.7 4.85 130.0 5.15 129.3 4.85 Q129.0 4.55 129.0 4.15 129.0 3.75 129.3 3.45 M125.7 3.45 L126.0 4.15 125.7 4.85 125.0 5.15 124.3 4.85 Q124.0 4.55 124.0 4.15 124.0 3.75 124.3 3.45 124.6 3.15 125.0 3.15 125.4 3.15 125.7 3.45 M119.3 3.45 Q119.6 3.15 120.0 3.15 120.4 3.15 120.7 3.45 L121.0 4.15 120.7 4.85 120.0 5.15 Q119.6 5.15 119.3 4.85 L119.0 4.15 Q119.0 3.75 119.3 3.45 M115.7 3.45 L116.0 4.15 115.7 4.85 115.0 5.15 Q114.6 5.15 114.3 4.85 114.0 4.55 114.0 4.15 114.0 3.75 114.3 3.45 114.6 3.15 115.0 3.15 115.4 3.15 115.7 3.45 M109.3 3.45 Q109.6 3.15 110.0 3.15 110.4 3.15 110.7 3.45 L111.0 4.15 110.7 4.85 110.0 5.15 Q109.6 5.15 109.3 4.85 109.0 4.55 109.0 4.15 109.0 3.75 109.3 3.45 M104.3 3.45 Q104.6 3.15 105.0 3.15 105.4 3.15 105.7 3.45 L106.0 4.15 105.7 4.85 105.0 5.15 104.3 4.85 Q104.0 4.55 104.0 4.15 104.0 3.75 104.3 3.45 M99.3 3.45 Q99.6 3.15 100.0 3.15 100.4 3.15 100.7 3.45 L101.0 4.15 100.7 4.85 100.0 5.15 99.3 4.85 Q99.0 4.55 99.0 4.15 99.0 3.75 99.3 3.45 M95.7 3.45 L96.0 4.15 95.7 4.85 95.0 5.15 Q94.6 5.15 94.3 4.85 94.0 4.55 94.0 4.15 94.0 3.75 94.3 3.45 94.6 3.15 95.0 3.15 95.4 3.15 95.7 3.45 M89.3 3.45 Q89.6 3.15 90.0 3.15 90.4 3.15 90.7 3.45 L91.0 4.15 90.7 4.85 Q90.4 5.15 90.0 5.15 L89.3 4.85 89.0 4.15 Q89.0 3.75 89.3 3.45 M85.7 3.45 L86.0 4.15 85.7 4.85 85.0 5.15 Q84.6 5.15 84.3 4.85 84.0 4.55 84.0 4.15 84.0 3.75 84.3 3.45 84.6 3.15 85.0 3.15 85.4 3.15 85.7 3.45 M79.3 3.45 Q79.6 3.15 80.0 3.15 L80.7 3.45 81.0 4.15 80.7 4.85 80.0 5.15 Q79.6 5.15 79.3 4.85 79.0 4.55 79.0 4.15 79.0 3.75 79.3 3.45 M75.7 3.45 L76.0 4.15 75.7 4.85 75.0 5.15 74.3 4.85 Q74.0 4.55 74.0 4.15 74.0 3.75 74.3 3.45 74.6 3.15 75.0 3.15 75.4 3.15 75.7 3.45 M69.3 3.45 Q69.6 3.15 70.0 3.15 70.4 3.15 70.7 3.45 L71.0 4.15 70.7 4.85 70.0 5.15 Q69.6 5.15 69.3 4.85 69.0 4.55 69.0 4.15 69.0 3.75 69.3 3.45 M64.3 3.45 Q64.6 3.15 65.0 3.15 65.4 3.15 65.7 3.45 L66.0 4.15 65.7 4.85 65.0 5.15 Q64.6 5.15 64.3 4.85 64.0 4.55 64.0 4.15 64.0 3.75 64.3 3.45 M59.3 3.45 Q59.6 3.15 60.0 3.15 60.4 3.15 60.7 3.45 L61.0 4.15 60.7 4.85 Q60.4 5.15 60.0 5.15 L59.3 4.85 Q59.0 4.55 59.0 4.15 59.0 3.75 59.3 3.45 M55.7 4.85 Q55.4 5.15 55.0 5.15 L54.3 4.85 Q54.0 4.55 54.0 4.15 54.0 3.75 54.3 3.45 54.6 3.15 55.0 3.15 55.4 3.15 55.7 3.45 L56.0 4.15 55.7 4.85 M50.7 4.85 L50.0 5.15 Q49.6 5.15 49.3 4.85 49.0 4.55 49.0 4.15 49.0 3.75 49.3 3.45 49.6 3.15 50.0 3.15 L50.7 3.45 51.0 4.15 50.7 4.85 M45.7 4.85 L45.0 5.15 Q44.6 5.15 44.3 4.85 44.0 4.55 44.0 4.15 44.0 3.75 44.3 3.45 44.6 3.15 45.0 3.15 45.4 3.15 45.7 3.45 L46.0 4.15 45.7 4.85 M40.7 4.85 L40.0 5.15 Q39.6 5.15 39.3 4.85 39.0 4.55 39.0 4.15 39.0 3.75 39.3 3.45 39.6 3.15 40.0 3.15 40.4 3.15 40.7 3.45 L41.0 4.15 40.7 4.85 M35.7 4.85 L35.0 5.15 Q34.6 5.15 34.3 4.85 34.0 4.55 34.0 4.15 34.0 3.75 34.3 3.45 34.6 3.15 35.0 3.15 35.4 3.15 35.7 3.45 L36.0 4.15 35.7 4.85 M30.7 4.85 Q30.4 5.15 30.0 5.15 L29.3 4.85 Q29.0 4.55 29.0 4.15 29.0 3.75 29.3 3.45 29.6 3.15 30.0 3.15 30.4 3.15 30.7 3.45 L31.0 4.15 30.7 4.85 M26.0 4.15 L25.7 4.85 25.0 5.15 24.3 4.85 Q24.0 4.55 24.0 4.15 24.0 3.75 24.3 3.45 24.6 3.15 25.0 3.15 25.4 3.15 25.7 3.45 L26.0 4.15 M21.0 4.15 L20.7 4.85 20.0 5.15 19.3 4.85 Q19.0 4.55 19.0 4.15 19.0 3.75 19.3 3.45 19.6 3.15 20.0 3.15 20.4 3.15 20.7 3.45 L21.0 4.15 M15.7 4.85 L15.0 5.15 Q14.6 5.15 14.3 4.85 L14.0 4.15 Q14.0 3.75 14.3 3.45 14.6 3.15 15.0 3.15 15.4 3.15 15.7 3.45 L16.0 4.15 15.7 4.85 M10.7 4.85 L10.0 5.15 Q9.6 5.15 9.3 4.85 9.0 4.55 9.0 4.15 9.0 3.75 9.3 3.45 9.6 3.15 10.0 3.15 10.4 3.15 10.7 3.45 L11.0 4.15 10.7 4.85 M6.0 4.15 L5.7 4.85 5.0 5.15 Q4.6 5.15 4.3 4.85 4.0 4.55 4.0 4.15 4.0 3.75 4.3 3.45 4.6 3.15 5.0 3.15 5.4 3.15 5.7 3.45 L6.0 4.15 M0.7 3.45 L1.0 4.15 0.7 4.85 0.0 5.15 -0.7 4.85 -1.0 4.15 -0.7 3.45 Q-0.4 3.15 0.0 3.15 0.4 3.15 0.7 3.45" fill="url(#gradient0)" fill-rule="evenodd" stroke="none"/>
    <path d="M567.8 0.85 L567.8 7.55 498.2 3.95 567.8 0.85" fill="url(#gradient1)" fill-rule="evenodd" stroke="none"/>
  </g>
  <defs>
    <linearGradient gradientTransform="matrix(0.3454, 0.0, 0.0, 6.0E-4, 282.45, 4.15)" gradientUnits="userSpaceOnUse" id="gradient0" spreadMethod="pad" x1="-819.2" x2="819.2">
      <stop offset="0.0" stop-color="#ffffff" stop-opacity="0.12156863"/>
      <stop offset="0.9921568627450981" stop-color="#ccffff"/>
    </linearGradient>
    <linearGradient gradientTransform="matrix(0.0226, 0.0, 0.0, 0.0041, 542.2, 4.05)" gradientUnits="userSpaceOnUse" id="gradient1" spreadMethod="pad" x1="-819.2" x2="819.2">
      <stop offset="0.0" stop-color="#ffffff" stop-opacity="0.0"/>
      <stop offset="0.9921568627450981" stop-color="#ffffff" stop-opacity="0.6"/>
    </linearGradient>
  </defs>
</svg>
