<?xml version="1.0" encoding="UTF-8" standalone="no"?>
<svg xmlns:ffdec="https://www.free-decompiler.com/flash" xmlns:xlink="http://www.w3.org/1999/xlink" ffdec:objectType="shape" height="7.2px" width="6.15px" xmlns="http://www.w3.org/2000/svg">
  <g transform="matrix(1.0, 0.0, 0.0, 1.0, -1.9, -1.3)">
    <path d="M5.5 2.9 Q5.45 2.5 5.7 2.15 5.95 1.8 6.35 1.75 L7.1 1.95 7.5 2.6 8.05 6.75 7.85 7.5 7.25 7.9 3.7 8.5 2.95 8.35 Q2.6 8.1 2.55 7.7 2.45 7.25 2.7 6.95 2.9 6.6 3.35 6.55 L5.95 6.1 5.5 2.9" fill="#b7b7b7" fill-rule="evenodd" stroke="none"/>
    <path d="M5.1 1.7 Q5.35 1.35 5.75 1.3 L6.5 1.5 Q6.85 1.75 6.9 2.15 L7.45 6.3 7.25 7.05 6.75 7.45 6.65 7.45 3.1 8.05 Q2.65 8.1 2.35 7.85 L1.95 7.25 Q1.85 6.8 2.1 6.5 2.35 6.15 2.75 6.1 L5.35 5.7 4.9 2.45 Q4.85 2.05 5.1 1.7" fill="#333333" fill-rule="evenodd" stroke="none"/>
  </g>
</svg>
