<?xml version="1.0" encoding="UTF-8" standalone="no"?>
<svg xmlns:ffdec="https://www.free-decompiler.com/flash" xmlns:xlink="http://www.w3.org/1999/xlink" ffdec:objectType="shape" height="17.65px" width="18.75px" xmlns="http://www.w3.org/2000/svg">
  <g transform="matrix(1.0, 0.0, 0.0, 1.0, 9.4, 12.95)">
    <path d="M3.7 -12.9 Q6.9 -12.45 6.9 -9.8 6.9 -8.45 6.7 -8.05 6.1 -6.55 3.9 -6.55 1.95 -6.55 1.05 -8.45 0.5 -9.6 0.5 -10.65 0.5 -11.9 1.5 -12.5 2.4 -13.05 3.7 -12.9 M8.45 -6.95 Q8.45 -5.6 7.7 -5.6 7.2 -5.6 7.0 -5.95 L6.9 -6.35 Q6.9 -7.8 7.65 -7.75 8.45 -7.7 8.45 -6.95 M0.15 -9.3 Q0.15 -7.2 -0.4 -7.2 -1.05 -7.2 -1.1 -8.45 L-1.05 -9.3 -0.5 -9.95 Q0.0 -9.95 0.1 -9.65 L0.15 -9.3 M4.8 -5.25 Q7.2 -6.05 8.45 -4.45 9.35 -3.3 9.35 -1.9 9.35 0.1 7.05 1.65 5.2 2.95 3.9 2.95 1.15 2.95 1.15 -0.55 1.15 -1.9 1.95 -3.1 2.95 -4.6 4.8 -5.25 M1.55 -4.55 Q1.55 -3.95 1.05 -3.2 0.3 -1.95 -1.3 -1.95 -3.35 -1.95 -3.35 -3.5 -3.35 -4.4 -2.75 -5.15 -1.85 -6.2 -0.1 -6.2 1.0 -6.2 1.4 -5.45 L1.55 -4.55 M-2.8 -11.75 Q-1.85 -11.15 -1.85 -9.3 -1.85 -8.4 -2.55 -7.05 -3.6 -5.1 -5.4 -5.1 -6.75 -5.1 -7.5 -6.05 -8.0 -6.7 -8.0 -7.2 -8.0 -8.55 -7.05 -9.85 -6.15 -11.1 -4.95 -11.65 L-2.8 -11.75 M-7.15 -3.4 Q-5.4 -3.95 -3.85 -2.8 -2.05 -1.75 -1.6 -0.6 -1.3 0.05 -1.3 1.55 L-1.4 3.35 Q-1.9 4.7 -4.05 4.7 -6.6 4.7 -8.05 2.2 -9.0 0.5 -9.0 -0.75 -9.0 -2.85 -7.15 -3.4 M-8.3 -3.25 Q-9.15 -3.25 -9.35 -3.65 L-9.4 -4.15 Q-9.4 -5.1 -8.4 -5.6 -7.4 -6.05 -7.4 -4.35 -7.4 -3.25 -8.3 -3.25" fill="#ffffff" fill-opacity="0.5019608" fill-rule="evenodd" stroke="none"/>
  </g>
</svg>
