<?xml version="1.0" encoding="UTF-8" standalone="no"?>
<svg xmlns:ffdec="https://www.free-decompiler.com/flash" xmlns:xlink="http://www.w3.org/1999/xlink" ffdec:objectType="shape" height="18.7px" width="19.45px" xmlns="http://www.w3.org/2000/svg">
  <g transform="matrix(1.0, 0.0, 0.0, 1.0, 10.25, 15.2)">
    <path d="M2.4 -15.2 Q4.45 -15.3 4.45 -13.75 L4.2 -12.4 Q3.7 -11.25 2.5 -11.25 1.15 -11.25 0.6 -12.1 L0.3 -13.05 Q0.3 -15.05 2.4 -15.2 M6.5 -9.45 Q5.95 -8.25 4.45 -8.25 3.85 -8.25 3.7 -8.75 L3.7 -9.3 Q3.7 -11.95 5.3 -12.75 6.85 -13.55 6.85 -11.05 6.85 -10.1 6.5 -9.45 M5.45 -10.95 L5.5 -10.95 5.5 -11.15 5.45 -10.95 M7.95 -6.85 Q7.45 -6.85 7.45 -7.35 7.45 -8.05 8.15 -8.15 8.8 -8.3 8.8 -7.7 L8.55 -7.2 Q8.3 -6.85 7.95 -6.85 M2.1 -10.6 Q3.2 -11.05 3.2 -9.6 L3.05 -8.9 Q2.75 -8.3 2.2 -8.3 1.25 -8.3 1.0 -9.3 1.0 -10.15 2.1 -10.6 M2.4 -6.8 Q2.4 -7.4 2.9 -7.35 3.4 -7.3 3.4 -6.75 3.4 -6.3 2.9 -6.3 L2.4 -6.6 2.4 -6.8 M0.05 -3.8 L-0.45 -3.35 Q-1.0 -3.35 -0.9 -4.05 -0.9 -4.85 -0.3 -4.9 0.25 -4.95 0.25 -4.4 L0.05 -3.8 M1.9 -2.0 L1.8 -2.65 Q1.8 -4.95 4.35 -6.2 L6.1 -6.45 Q6.9 -6.25 6.9 -5.2 6.9 -4.5 6.05 -3.2 4.8 -1.45 3.05 -1.45 2.2 -1.45 1.9 -2.0 M0.45 -0.8 Q0.3 -0.65 0.05 -0.65 -0.5 -0.65 -0.4 -1.15 -0.4 -1.65 0.1 -1.6 0.6 -1.55 0.6 -1.15 L0.45 -0.8 M9.15 -3.8 L9.15 -2.9 8.9 -1.3 Q8.4 0.0 7.35 0.0 6.25 0.0 5.9 -0.55 5.75 -0.8 5.75 -1.3 5.75 -1.75 6.45 -3.05 7.35 -4.6 8.25 -4.6 9.0 -4.6 9.15 -3.8 M5.35 -0.05 L4.95 0.9 Q4.4 1.65 3.75 1.65 3.0 1.65 2.7 1.1 2.55 0.85 2.55 0.45 2.55 -1.35 3.95 -1.1 5.35 -0.85 5.35 -0.05 M-2.55 -13.2 Q-1.85 -12.55 -1.85 -11.55 -1.85 -10.95 -2.4 -9.85 -3.15 -8.35 -4.25 -8.35 -5.35 -8.35 -6.0 -9.6 L-6.5 -10.9 Q-6.5 -13.7 -4.2 -13.75 -3.25 -13.75 -2.55 -13.2 M-0.55 -11.3 Q0.0 -11.5 0.0 -10.9 -0.05 -9.95 -0.55 -9.95 -1.2 -9.95 -1.2 -10.65 L-0.55 -11.3 M-4.2 -6.7 L-4.65 -6.4 Q-5.25 -6.4 -5.15 -7.05 -5.15 -7.6 -4.6 -7.7 -4.0 -7.8 -4.0 -7.15 L-4.2 -6.7 M-1.75 -7.3 Q-1.75 -8.2 -0.85 -8.2 -0.4 -8.2 -0.4 -7.7 L-0.65 -7.05 Q-0.9 -6.55 -1.25 -6.55 -1.85 -6.55 -1.75 -7.3 M-0.7 -8.9 Q-0.7 -9.3 -0.35 -9.35 0.0 -9.4 0.0 -8.95 0.0 -8.55 -0.35 -8.55 -0.7 -8.55 -0.7 -8.9 M-5.55 -7.15 L-5.6 -6.6 Q-5.8 -6.1 -6.35 -6.1 -8.95 -6.1 -8.95 -8.2 -8.95 -10.95 -7.25 -10.35 -5.55 -9.7 -5.55 -7.15 M-7.0 -5.65 Q-6.5 -5.85 -6.5 -5.3 -6.5 -5.15 -6.65 -4.9 L-7.0 -4.6 Q-7.55 -4.6 -7.45 -4.95 L-7.8 -4.6 -8.6 -4.4 Q-9.35 -4.4 -9.55 -4.75 L-9.65 -5.3 Q-9.65 -6.6 -8.55 -6.0 -7.45 -5.45 -7.45 -5.1 L-7.0 -5.65 M-6.15 -3.65 Q-5.05 -3.45 -4.6 -2.05 -4.3 -1.2 -4.3 -0.4 -4.3 0.3 -4.8 1.15 -5.55 2.45 -6.75 2.45 -8.25 2.45 -9.0 1.25 L-9.1 1.15 -9.9 0.2 Q-10.25 -0.4 -10.25 -1.25 -10.25 -4.1 -7.75 -4.15 -6.85 -4.2 -6.15 -3.65 M-2.35 -3.8 Q-2.9 -3.8 -3.15 -4.45 L-3.25 -5.1 Q-3.25 -6.4 -2.2 -6.7 -1.15 -7.0 -1.15 -5.1 -1.25 -3.8 -2.35 -3.8 M-3.9 -3.8 Q-3.05 -3.45 -3.05 -2.8 -3.05 -1.95 -3.7 -1.95 -4.35 -1.95 -4.6 -2.6 L-4.75 -3.2 Q-4.75 -4.15 -3.9 -3.8 M-2.9 -1.5 Q-1.75 -1.5 -1.2 -0.15 -0.9 0.6 -0.9 1.3 L-1.0 2.5 Q-1.3 3.5 -2.4 3.5 -3.9 3.5 -4.25 2.35 L-4.35 1.1 -4.15 -0.3 Q-3.8 -1.5 -2.9 -1.5" fill="#ffffff" fill-opacity="0.5019608" fill-rule="evenodd" stroke="none"/>
  </g>
</svg>
