<?xml version="1.0" encoding="UTF-8" standalone="no"?>
<svg xmlns:ffdec="https://www.free-decompiler.com/flash" xmlns:xlink="http://www.w3.org/1999/xlink" ffdec:objectType="shape" height="82.35px" width="68.2px" xmlns="http://www.w3.org/2000/svg">
  <g transform="matrix(1.0, 0.0, 0.0, 1.0, 0.0, 0.0)">
    <path d="M62.15 18.95 Q52.85 15.0 49.35 5.85 L18.9 5.85 Q15.35 15.0 6.1 18.95 L5.85 49.7 Q9.9 63.5 23.55 67.05 30.55 68.0 34.1 70.75 37.8 68.0 44.7 67.05 58.3 63.5 62.35 49.7 L62.15 18.95 M67.95 14.75 L68.2 50.5 Q63.25 68.85 44.95 73.0 38.0 74.55 34.2 81.8 L34.2 82.35 34.1 82.1 31.55 77.85 Q29.0 73.75 23.25 73.0 4.95 68.85 0.0 50.5 L0.25 14.75 Q12.05 11.6 14.5 0.0 L53.7 0.0 Q56.15 11.6 67.95 14.75" fill="#ffffff" fill-rule="evenodd" stroke="none"/>
  </g>
</svg>
