<?xml version="1.0" encoding="UTF-8" standalone="no"?>
<svg xmlns:ffdec="https://www.free-decompiler.com/flash" xmlns:xlink="http://www.w3.org/1999/xlink" ffdec:objectType="shape" height="19.75px" width="18.85px" xmlns="http://www.w3.org/2000/svg">
  <g transform="matrix(1.0, 0.0, 0.0, 1.0, 10.05, 17.0)">
    <path d="M4.15 -15.75 Q4.0 -13.75 3.15 -13.75 2.4 -13.75 2.6 -14.5 2.6 -15.85 3.4 -16.15 4.15 -16.45 4.15 -15.75 M0.05 -14.4 L-0.05 -15.05 Q-0.05 -16.7 1.35 -16.95 2.7 -17.2 2.7 -16.1 L2.55 -14.85 Q2.25 -13.75 1.15 -13.75 0.25 -13.75 0.05 -14.4 M4.75 -13.05 Q4.75 -14.3 5.9 -14.45 7.0 -14.65 7.0 -13.5 L6.9 -12.5 Q6.7 -11.75 5.85 -11.75 5.3 -11.75 5.0 -12.4 L4.75 -13.05 M7.6 -9.0 Q7.6 -9.3 8.0 -9.4 8.45 -9.45 8.45 -9.0 8.3 -8.55 7.95 -8.55 L7.65 -8.8 7.6 -9.0 M5.3 -10.3 Q5.05 -9.85 4.8 -9.85 4.35 -9.85 4.2 -10.2 L4.15 -10.65 Q4.15 -11.35 4.85 -11.4 5.5 -11.45 5.5 -10.9 L5.3 -10.3 M6.85 -6.75 L6.45 -5.65 Q5.95 -4.75 5.1 -4.75 3.45 -4.75 3.45 -5.85 3.8 -7.95 5.35 -7.95 6.2 -7.95 6.6 -7.4 L6.85 -6.75 M3.15 -10.4 Q3.15 -9.85 2.7 -9.85 2.1 -9.85 2.15 -10.35 2.15 -11.05 2.7 -11.1 3.15 -11.15 3.15 -10.4 M1.1 -11.55 Q1.1 -12.1 1.65 -12.05 2.2 -12.05 2.2 -11.5 L2.1 -11.15 1.55 -10.95 Q1.05 -10.95 1.1 -11.55 M3.95 -3.95 L3.6 -3.25 2.75 -2.7 Q1.95 -2.7 1.6 -4.35 1.6 -5.4 2.5 -5.4 L3.45 -4.75 3.95 -3.95 M0.6 -2.55 L0.3 -2.35 Q-0.2 -2.35 -0.1 -2.8 -0.1 -3.3 0.3 -3.25 L0.75 -2.9 0.6 -2.55 M3.9 -0.65 Q3.9 -2.5 4.6 -2.3 5.35 -2.1 5.35 -0.85 5.35 0.2 4.5 0.2 4.05 0.2 3.95 -0.25 L3.9 -0.65 M7.75 -5.45 Q8.8 -5.45 8.8 -3.95 L8.5 -2.9 Q8.15 -2.05 7.6 -2.05 7.05 -2.05 6.85 -2.65 L6.7 -3.35 Q6.7 -5.45 7.75 -5.45 M-4.55 -13.0 L-4.65 -11.75 Q-4.85 -10.6 -5.45 -10.6 -6.1 -10.6 -6.35 -11.45 L-6.45 -12.25 Q-6.45 -14.35 -5.5 -14.7 -4.55 -15.0 -4.55 -13.0 M-3.0 -14.75 Q-1.75 -14.25 -1.75 -12.85 L-2.0 -11.9 Q-2.4 -11.15 -3.1 -11.15 -3.7 -11.15 -4.05 -12.05 L-4.25 -12.95 Q-4.25 -15.25 -3.0 -14.75 M-1.0 -12.2 L-0.65 -12.55 Q-0.3 -12.55 -0.3 -12.2 -0.3 -11.75 -0.55 -11.75 L-1.0 -12.2 M-2.75 -7.35 Q-2.35 -7.5 -2.35 -6.8 L-2.2 -6.45 -2.0 -6.15 Q-2.0 -5.8 -2.55 -5.8 -3.15 -5.8 -3.15 -6.5 -3.15 -7.15 -2.75 -7.35 M-4.85 -8.7 Q-4.85 -9.1 -4.55 -9.1 -4.2 -9.1 -4.2 -8.75 L-4.3 -8.45 -4.55 -8.3 Q-4.9 -8.3 -4.85 -8.7 M-1.25 -6.3 L-1.3 -6.1 -1.5 -6.05 -1.8 -6.4 -1.75 -6.55 Q-1.25 -6.55 -1.25 -6.3 M-1.1 -9.1 Q-0.65 -9.1 -0.65 -8.75 L-0.8 -8.45 -1.15 -8.25 Q-1.55 -8.25 -1.6 -8.7 -1.6 -9.1 -1.1 -9.1 M-6.65 -10.0 Q-7.0 -9.3 -7.65 -9.3 -8.4 -9.3 -8.7 -9.95 L-8.8 -10.6 Q-8.8 -11.8 -7.6 -12.05 -6.35 -12.25 -6.35 -10.85 -6.35 -10.45 -6.65 -10.0 M-5.6 -9.35 L-5.4 -8.95 -5.55 -8.35 -5.95 -7.9 Q-6.15 -7.25 -6.35 -7.25 -6.9 -7.25 -6.85 -8.3 L-6.85 -8.6 -6.85 -8.7 -6.7 -9.2 Q-6.55 -9.6 -6.2 -9.6 -5.7 -9.65 -5.6 -9.35 M-10.05 -6.65 Q-10.05 -7.2 -9.5 -7.2 -8.95 -7.2 -8.95 -6.65 -8.95 -6.05 -9.55 -6.05 -9.95 -6.05 -10.05 -6.3 L-10.05 -6.65 M-6.95 -6.2 Q-7.1 -6.05 -7.25 -6.05 -7.6 -6.05 -7.5 -6.45 -7.5 -6.85 -7.15 -6.85 -6.8 -6.85 -6.8 -6.5 L-6.95 -6.2 M-5.5 -4.2 L-4.6 -3.5 -4.55 -2.9 Q-4.55 -1.95 -4.8 -1.2 -5.3 0.3 -6.55 0.3 -7.3 0.3 -7.5 -0.2 L-7.65 -0.65 -7.4 -2.05 -6.85 -3.55 -6.5 -4.1 -5.5 -4.2 M-7.5 -3.55 Q-8.35 -2.25 -9.25 -2.25 -10.0 -2.25 -9.9 -3.15 -9.9 -4.55 -8.4 -5.5 -6.85 -6.45 -6.85 -5.1 -6.85 -4.6 -7.5 -3.55 M-9.05 -1.6 Q-8.6 -1.6 -8.25 -0.95 L-8.0 -0.25 -8.1 0.35 Q-8.25 0.9 -8.6 0.9 -9.3 0.9 -9.7 0.0 L-9.9 -0.9 -9.8 -1.35 -9.05 -1.6 M-4.25 -5.25 Q-3.75 -5.15 -3.75 -4.65 -3.75 -4.3 -4.2 -4.3 -4.75 -4.3 -4.75 -4.7 -4.75 -5.3 -4.25 -5.25 M-2.7 -3.85 Q-2.7 -3.35 -3.3 -3.35 -3.85 -3.35 -3.85 -3.85 -3.85 -4.4 -3.25 -4.4 L-2.8 -4.15 -2.7 -3.85 M-2.8 -1.55 Q-2.2 -1.75 -2.2 -0.95 L-2.3 -0.1 -2.45 0.35 -2.9 0.6 Q-3.5 0.6 -3.4 -0.05 -3.4 -1.35 -2.8 -1.55 M-1.75 2.75 Q-2.25 2.75 -2.35 2.3 L-2.35 1.85 Q-2.35 0.8 -1.4 -0.05 -0.45 -0.95 -0.45 0.15 -0.7 2.75 -1.75 2.75" fill="#ffffff" fill-opacity="0.5019608" fill-rule="evenodd" stroke="none"/>
  </g>
</svg>
