<?xml version="1.0" encoding="UTF-8" standalone="no"?>
<svg xmlns:ffdec="https://www.free-decompiler.com/flash" xmlns:xlink="http://www.w3.org/1999/xlink" ffdec:objectType="shape" height="19.45px" width="18.7px" xmlns="http://www.w3.org/2000/svg">
  <g transform="matrix(1.0, 0.0, 0.0, 1.0, 9.9, 16.75)">
    <path d="M1.45 -15.6 Q0.8 -15.6 0.8 -16.2 L0.9 -16.55 1.45 -16.75 Q2.0 -16.75 1.95 -16.15 1.95 -15.6 1.45 -15.6 M4.05 -14.8 Q4.05 -14.25 3.5 -14.25 3.05 -14.25 3.05 -14.8 3.05 -15.25 3.55 -15.3 4.05 -15.35 4.05 -14.8 M6.3 -14.0 Q6.7 -14.0 6.7 -13.5 6.7 -13.05 6.25 -13.05 5.7 -13.05 5.7 -13.55 5.7 -14.0 6.3 -14.0 M8.5 -7.95 Q8.2 -7.95 8.1 -8.15 L8.05 -8.35 Q8.05 -8.8 8.4 -8.75 8.8 -8.75 8.8 -8.35 L8.7 -8.1 8.5 -7.95 M5.95 -6.25 Q5.75 -6.0 5.4 -6.0 L4.95 -6.25 4.85 -6.55 Q4.85 -7.15 5.5 -7.2 6.1 -7.3 6.1 -6.65 L5.95 -6.25 M4.35 -9.7 Q4.35 -10.2 4.85 -10.2 5.35 -10.2 5.35 -9.7 5.35 -9.25 4.8 -9.25 4.35 -9.25 4.35 -9.7 M2.4 -9.95 L2.15 -9.95 2.3 -10.15 2.4 -9.95 M2.55 -3.25 L2.2 -3.05 Q1.8 -3.05 1.7 -3.6 1.7 -4.1 2.2 -4.1 2.75 -4.1 2.75 -3.55 L2.55 -3.25 M8.45 -2.3 L8.35 -2.1 Q8.2 -1.95 8.05 -1.95 7.8 -1.95 7.75 -2.1 L7.65 -2.3 Q7.65 -2.75 8.1 -2.7 L8.45 -2.3 M3.9 0.5 L3.45 0.25 3.45 0.0 Q3.45 -0.45 3.9 -0.45 4.4 -0.45 4.4 0.0 L4.25 0.3 3.9 0.5 M-6.25 -13.4 Q-6.25 -13.85 -5.75 -13.85 -5.2 -13.85 -5.2 -13.4 -5.2 -12.95 -5.75 -12.95 -6.3 -12.95 -6.25 -13.4 M-3.05 -12.85 Q-3.55 -12.85 -3.55 -13.4 -3.55 -13.95 -3.0 -13.95 -2.45 -13.95 -2.45 -13.4 -2.45 -12.85 -3.05 -12.85 M-2.05 -6.2 L-2.15 -5.9 -2.5 -5.7 Q-3.0 -5.7 -2.9 -6.2 -2.9 -6.7 -2.5 -6.6 -2.05 -6.55 -2.05 -6.2 M-8.05 -11.85 Q-7.45 -11.75 -7.45 -11.25 -7.45 -10.15 -8.15 -10.15 -8.75 -10.15 -8.7 -11.25 -8.7 -11.9 -8.05 -11.85 M-6.0 -7.2 Q-6.15 -7.0 -6.35 -7.0 -6.75 -7.0 -6.7 -7.45 -6.7 -7.8 -6.3 -7.8 L-5.9 -7.5 -6.0 -7.2 M-7.45 -4.3 Q-8.0 -4.3 -7.9 -4.75 -7.9 -5.25 -7.45 -5.2 -7.0 -5.15 -7.0 -4.75 -7.0 -4.3 -7.45 -4.3 M-9.15 -1.85 Q-9.7 -1.85 -9.8 -2.3 L-9.85 -2.8 Q-9.85 -3.6 -9.1 -3.65 -8.35 -3.75 -8.35 -2.8 L-8.55 -2.25 -9.15 -1.85 M-5.15 -0.55 Q-5.15 -0.2 -5.4 0.0 L-6.0 0.2 Q-6.65 0.2 -6.65 -0.4 -6.65 -1.0 -5.9 -1.0 -5.15 -1.0 -5.15 -0.55 M-2.9 0.2 L-2.5 -0.15 -2.1 0.2 -2.2 0.45 -2.5 0.6 Q-2.9 0.6 -2.9 0.2 M-1.5 2.4 Q-1.5 2.0 -1.1 2.0 -0.7 2.0 -0.7 2.35 -0.7 2.7 -1.05 2.7 L-1.5 2.4 M-9.4 1.4 Q-9.9 1.4 -9.9 0.85 -9.9 0.15 -9.35 0.15 -8.85 0.1 -8.85 0.7 -8.85 1.4 -9.4 1.4" fill="#ffffff" fill-opacity="0.5019608" fill-rule="evenodd" stroke="none"/>
  </g>
</svg>
