<?xml version="1.0" encoding="UTF-8" standalone="no"?>
<svg xmlns:ffdec="https://www.free-decompiler.com/flash" xmlns:xlink="http://www.w3.org/1999/xlink" ffdec:objectType="shape" height="16.4px" width="80.15px" xmlns="http://www.w3.org/2000/svg">
  <g transform="matrix(1.0, 0.0, 0.0, 1.0, -0.6, -16.7)">
    <path d="M15.95 18.95 L11.7 23.4 16.25 30.7 9.55 30.7 7.1 26.45 6.3 27.2 6.3 30.7 0.6 30.7 0.6 16.7 6.3 16.7 6.3 22.15 9.6 18.95 15.95 18.95 M24.95 27.1 L25.0 27.05 29.95 27.05 29.9 27.2 29.05 28.8 27.5 30.0 Q25.5 30.85 22.85 30.85 L19.75 30.5 Q18.4 30.1 17.25 29.3 15.0 27.8 15.0 24.85 15.0 22.1 17.1 20.5 18.25 19.6 19.45 19.2 L22.4 18.8 Q26.55 18.8 28.4 20.5 30.25 22.1 30.25 25.55 L30.25 25.65 20.4 25.65 Q20.55 26.85 21.15 27.4 21.75 27.95 22.9 27.95 L24.2 27.75 24.95 27.1 M24.35 22.15 L23.75 21.8 22.95 21.7 Q20.85 21.75 20.45 23.25 L24.95 23.25 Q24.9 22.6 24.35 22.15 M21.5 16.7 L22.5 18.35 22.35 18.35 19.2 18.8 19.15 18.8 17.7 16.7 21.5 16.7 M27.5 16.7 L26.1 18.75 26.05 18.75 22.9 18.35 22.75 18.35 23.8 16.7 27.5 16.7 M52.55 20.0 Q53.9 21.05 53.9 22.85 L53.9 30.7 48.2 30.7 48.2 24.45 47.95 23.1 47.55 22.65 46.8 22.5 Q45.95 22.5 45.65 23.0 45.35 23.4 45.35 24.45 L45.35 30.7 39.65 30.7 39.65 24.45 39.4 23.1 39.0 22.65 38.25 22.5 Q37.4 22.5 37.1 23.0 36.85 23.4 36.8 24.45 L36.8 30.7 31.1 30.7 31.1 18.95 36.55 18.95 36.55 20.45 Q37.35 19.65 38.2 19.35 L40.65 18.95 43.0 19.4 44.55 20.45 45.4 19.8 Q45.8 19.5 46.3 19.35 L47.5 19.05 48.85 18.95 Q51.2 18.95 52.55 20.0 M61.45 26.75 Q62.0 27.35 63.1 27.4 64.2 27.35 64.75 26.75 65.3 26.15 65.3 24.85 65.3 23.55 64.75 22.9 64.2 22.3 63.1 22.25 62.0 22.3 61.45 22.9 60.9 23.55 60.9 24.85 60.9 26.15 61.45 26.75 M62.15 19.4 L65.0 18.95 Q67.8 18.95 69.5 20.9 70.8 22.35 70.8 24.85 L70.55 27.15 Q70.25 28.2 69.55 28.95 67.85 30.8 64.75 30.8 62.3 30.8 60.9 29.35 L60.9 33.1 55.2 33.1 55.2 18.95 60.9 18.95 60.9 20.2 62.15 19.4 M77.9 16.7 L77.9 19.05 80.75 19.05 80.75 21.9 77.9 21.9 77.9 25.9 Q77.9 26.7 78.25 27.05 L79.45 27.35 80.65 27.25 80.75 27.2 80.75 30.65 80.65 30.65 78.9 30.8 77.15 30.9 Q74.95 30.9 73.85 30.35 72.25 29.55 72.25 27.4 L72.25 21.9 71.6 21.9 69.25 19.05 72.25 19.05 72.25 16.7 77.9 16.7" fill="#a78351" fill-rule="evenodd" stroke="none"/>
  </g>
</svg>
