<?xml version="1.0" encoding="UTF-8" standalone="no"?>
<svg xmlns:ffdec="https://www.free-decompiler.com/flash" xmlns:xlink="http://www.w3.org/1999/xlink" ffdec:objectType="shape" height="30.7px" width="90.65px" xmlns="http://www.w3.org/2000/svg">
  <g transform="matrix(1.0, 0.0, 0.0, 1.0, 0.5, 0.1)">
    <path d="M0.0 0.4 L89.55 0.4 89.55 30.1 0.0 30.1 0.0 0.4" fill="#a78351" fill-rule="evenodd" stroke="none"/>
    <path d="M0.0 0.4 L89.55 0.4 89.55 30.1 0.0 30.1 0.0 0.4 Z" fill="none" stroke="#141623" stroke-linecap="round" stroke-linejoin="round" stroke-width="1.0"/>
    <path d="M17.25 4.5 L12.5 12.6 17.6 25.9 10.05 25.9 7.3 18.15 6.4 19.55 6.4 25.9 0.0 25.9 0.0 0.4 6.4 0.4 6.4 10.35 10.1 4.5 17.25 4.5 M27.4 19.35 L27.45 19.25 33.0 19.25 32.95 19.55 32.0 22.45 Q31.3 23.8 30.25 24.65 28.0 26.2 25.0 26.2 L21.55 25.55 Q20.0 24.8 18.7 23.35 16.2 20.6 16.2 15.25 16.2 10.25 18.55 7.3 19.85 5.7 21.2 4.95 22.65 4.15 24.5 4.25 29.2 4.25 31.25 7.3 33.35 10.25 33.35 16.55 L33.35 16.7 22.25 16.7 Q22.45 18.9 23.1 19.9 23.8 20.9 25.1 20.9 L26.55 20.55 27.4 19.35 M26.05 9.7 L25.15 9.5 Q22.75 9.6 22.3 12.35 L27.4 12.35 Q27.3 11.15 26.7 10.35 L26.05 9.7 M24.65 3.4 L24.45 3.4 Q22.45 3.4 20.9 4.25 L20.85 4.25 19.25 0.4 23.5 0.4 24.65 3.4 M30.25 0.4 L28.65 4.15 28.6 4.15 Q27.15 3.5 25.1 3.4 L24.9 3.4 26.1 0.4 30.25 0.4 M58.4 6.4 Q59.95 8.35 59.95 11.6 L59.95 25.9 53.5 25.9 53.5 14.5 53.25 12.05 52.8 11.25 Q52.5 10.95 51.95 10.95 51.0 10.95 50.65 11.9 50.3 12.6 50.3 14.5 L50.3 25.9 43.9 25.9 43.9 14.5 43.65 12.05 43.2 11.25 Q42.9 10.95 42.35 10.95 41.4 10.95 41.05 11.9 40.75 12.6 40.7 14.5 L40.7 25.9 34.3 25.9 34.3 4.5 40.4 4.5 40.4 7.25 Q41.3 5.8 42.3 5.25 43.35 4.5 45.05 4.5 46.4 4.5 47.7 5.3 48.85 6.05 49.4 7.25 L50.4 6.05 Q50.85 5.5 51.4 5.25 52.2 4.85 52.75 4.7 L54.25 4.5 Q56.9 4.5 58.4 6.4 M68.4 18.7 Q69.05 19.8 70.3 19.9 71.5 19.8 72.15 18.7 72.75 17.6 72.75 15.25 72.75 12.9 72.15 11.7 71.5 10.6 70.3 10.5 69.05 10.6 68.4 11.7 67.8 12.9 67.8 15.25 67.8 17.6 68.4 18.7 M69.2 5.3 Q70.4 4.5 72.4 4.5 75.55 4.5 77.5 8.05 78.95 10.7 78.95 15.25 L78.65 19.45 Q78.3 21.35 77.55 22.7 75.6 26.1 72.15 26.1 69.4 26.1 67.8 23.45 L67.8 30.3 61.4 30.3 61.4 4.5 67.8 4.5 67.8 6.8 Q68.55 5.8 69.2 5.3 M86.9 0.4 L86.9 4.7 90.15 4.7 90.15 9.85 86.9 9.85 86.9 17.15 Q86.9 18.6 87.3 19.25 87.65 19.8 88.65 19.8 L90.0 19.6 90.15 19.55 90.15 25.8 90.0 25.8 88.05 26.1 86.1 26.25 Q83.6 26.25 82.35 25.25 80.55 23.8 80.55 19.9 L80.55 9.85 79.85 9.85 77.2 4.7 80.55 4.7 80.55 0.4 86.9 0.4" fill="#a78351" fill-rule="evenodd" stroke="none"/>
  </g>
</svg>
