<?xml version="1.0" encoding="UTF-8" standalone="no"?>
<svg xmlns:ffdec="https://www.free-decompiler.com/flash" xmlns:xlink="http://www.w3.org/1999/xlink" ffdec:objectType="shape" height="257.6px" width="506.65px" xmlns="http://www.w3.org/2000/svg">
  <g transform="matrix(1.0, 0.0, 0.0, 1.0, 0.0, 0.0)">
    <path d="M420.8 65.05 L441.6 94.55 439.1 119.55 451.6 137.55 506.65 198.95 506.65 257.6 0.0 257.6 0.0 69.05 27.5 74.05 58.05 140.55 90.05 127.55 103.3 137.05 127.55 144.55 132.55 137.55 143.55 137.55 148.05 117.05 180.55 117.05 189.05 107.55 191.55 84.55 206.05 67.05 225.55 35.05 257.7 23.2 301.6 0.0 368.1 4.5 396.6 22.05 420.8 65.05" fill="url(#gradient0)" fill-rule="evenodd" stroke="none"/>
  </g>
  <defs>
    <linearGradient gradientTransform="matrix(0.0, -0.1246, 0.1572, 0.0, 254.1, 170.05)" gradientUnits="userSpaceOnUse" id="gradient0" spreadMethod="pad" x1="-819.2" x2="819.2">
      <stop offset="0.0" stop-color="#ffffff" stop-opacity="0.0"/>
      <stop offset="0.5529411764705883" stop-color="#ffff99"/>
      <stop offset="1.0" stop-color="#ffffff"/>
    </linearGradient>
  </defs>
</svg>
