<?xml version="1.0" encoding="UTF-8" standalone="no"?>
<svg xmlns:ffdec="https://www.free-decompiler.com/flash" xmlns:xlink="http://www.w3.org/1999/xlink" ffdec:objectType="shape" height="29.0px" width="22.95px" xmlns="http://www.w3.org/2000/svg">
  <g transform="matrix(1.0, 0.0, 0.0, 1.0, 2.5, 2.5)">
    <path d="M10.55 8.35 L8.2 9.4 Q5.15 10.85 5.35 15.7 L11.55 15.7 Q11.55 14.45 11.95 13.9 12.35 13.3 13.45 12.7 L16.55 10.85 Q18.05 9.45 17.95 6.8 17.9 3.5 15.1 1.6 12.7 0.0 9.2 0.0 5.15 0.0 2.65 2.2 0.15 4.5 0.0 8.4 L7.55 8.4 Q7.5 6.8 8.05 5.8 8.6 4.8 9.85 4.8 11.95 4.8 11.95 6.6 11.95 7.7 10.55 8.35 M4.75 24.0 L10.75 24.0 10.75 18.0 4.75 18.0 4.75 24.0 Z" fill="none" stroke="#000000" stroke-linecap="round" stroke-linejoin="round" stroke-width="5.0"/>
    <path d="M4.75 24.0 L4.75 18.0 10.75 18.0 10.75 24.0 4.75 24.0 M17.95 6.8 Q18.05 9.45 16.55 10.85 L13.45 12.7 Q12.35 13.3 11.95 13.9 11.55 14.45 11.55 15.7 L5.35 15.7 Q5.15 10.85 8.2 9.4 L10.55 8.35 Q11.95 7.7 11.95 6.6 11.95 4.8 9.85 4.8 8.6 4.8 8.05 5.8 7.5 6.8 7.55 8.4 L0.0 8.4 Q0.15 4.5 2.65 2.2 5.15 0.0 9.2 0.0 12.7 0.0 15.1 1.6 17.9 3.5 17.95 6.8" fill="#ffffff" fill-rule="evenodd" stroke="none"/>
  </g>
</svg>
