<?xml version="1.0" encoding="UTF-8" standalone="no"?>
<svg xmlns:ffdec="https://www.free-decompiler.com/flash" xmlns:xlink="http://www.w3.org/1999/xlink" ffdec:objectType="shape" height="24.8px" width="708.15px" xmlns="http://www.w3.org/2000/svg">
  <g transform="matrix(1.0, 0.0, 0.0, 1.0, 354.05, 0.0)">
    <path d="M-335.65 13.65 L-334.3 14.0 Q-333.25 14.5 -333.25 15.05 L-333.75 15.65 -335.05 16.5 Q-334.15 16.7 -333.75 17.05 L-332.75 16.9 -331.95 16.8 -332.0 16.05 Q-331.9 15.45 -330.9 15.45 L-330.25 15.55 -330.35 15.55 -327.25 18.1 Q-327.25 18.5 -328.2 18.9 -329.05 19.3 -329.45 19.3 -330.3 19.3 -330.85 18.9 L-331.35 18.45 Q-331.85 18.45 -332.2 18.7 L-333.05 18.9 -334.15 18.6 -334.8 18.1 -336.35 18.6 Q-336.3 19.2 -337.0 19.6 -337.6 19.95 -338.45 19.95 L-339.8 19.65 Q-340.45 19.3 -340.45 18.6 L-340.0 18.1 -339.5 18.0 -339.6 17.8 -341.8 17.75 -342.35 17.55 -343.75 17.95 -345.95 18.65 -345.3 19.4 -344.85 20.05 -345.2 20.55 -346.55 20.9 Q-347.55 20.9 -348.15 20.4 L-349.15 19.35 -350.4 20.4 -350.2 21.05 Q-350.05 21.35 -350.2 21.6 L-351.25 21.85 -352.1 21.9 -353.25 20.95 -354.05 20.95 -354.05 19.65 -353.4 20.05 -353.0 19.9 Q-353.0 18.3 -350.9 18.3 L-349.3 19.1 -348.65 18.25 -348.25 17.8 -348.35 17.35 -348.35 17.1 -350.2 17.65 -352.65 18.1 -354.05 17.95 -354.05 15.95 -349.35 15.2 Q-348.6 15.2 -348.1 15.65 -347.65 16.05 -347.65 16.4 L-347.75 16.8 -347.4 16.8 -347.15 16.8 Q-347.5 16.0 -346.6 15.45 -345.85 15.0 -344.75 15.0 L-343.65 15.25 Q-342.6 15.65 -342.6 16.5 L-342.7 16.9 -342.7 17.0 Q-342.05 16.4 -340.7 15.95 L-339.25 15.55 -338.6 14.8 -337.9 14.05 -335.65 13.65 M-333.35 7.5 L-333.25 7.3 Q-335.4 6.7 -335.5 6.1 L-335.75 6.2 Q-335.05 6.9 -333.35 7.5 M-322.4 18.3 L-322.25 18.5 Q-323.1 20.0 -324.65 20.0 -325.55 20.0 -326.05 19.55 L-326.65 18.55 -326.75 17.1 Q-326.75 16.7 -326.05 16.2 L-325.35 15.7 -325.7 15.05 -326.05 14.6 -326.1 14.4 -326.05 14.25 Q-325.85 13.9 -324.7 13.6 L-322.55 13.35 -321.75 13.4 -321.4 13.5 -321.15 14.3 -320.85 14.9 -319.0 17.0 -320.65 15.7 -320.1 16.15 Q-319.4 16.6 -318.85 17.35 -318.15 18.1 -318.7 18.85 -319.2 19.45 -319.7 19.45 -321.45 19.45 -322.4 18.3 M-316.25 15.6 Q-315.4 16.15 -315.4 16.75 L-314.55 16.4 -312.9 16.15 Q-312.4 16.15 -312.2 16.45 -312.05 16.75 -311.55 16.75 -310.95 16.75 -309.75 15.9 -308.55 15.05 -307.8 15.05 -306.7 15.05 -305.5 15.9 L-304.5 16.8 -304.8 17.25 -306.1 17.6 -307.6 18.05 Q-308.45 18.45 -309.4 18.45 L-310.1 18.25 Q-310.35 18.0 -310.85 18.0 -313.95 19.2 -318.65 17.15 -319.35 15.55 -316.25 15.6 M-310.85 7.45 Q-310.45 7.1 -309.9 6.9 L-310.55 7.05 -310.85 7.45 M-291.4 16.5 L-291.2 16.5 -291.55 16.35 -291.4 16.5 M-298.3 11.85 Q-298.2 11.9 -298.25 12.0 -297.7 12.65 -298.5 13.15 -299.3 13.65 -300.9 13.65 L-301.65 13.55 -301.75 13.3 -301.3 12.45 Q-300.55 11.65 -299.1 11.65 L-298.3 11.85 M-292.85 6.95 L-292.05 6.95 -292.05 6.9 -292.75 6.25 -294.05 6.5 Q-294.0 6.5 -293.7 6.75 L-292.85 6.95 M-276.95 14.85 Q-276.0 15.45 -274.15 18.2 L-273.85 18.95 -273.55 19.7 -273.65 20.45 Q-274.0 21.1 -275.3 21.1 -276.85 21.05 -276.85 20.45 -276.85 19.85 -277.2 19.7 L-277.8 19.55 Q-277.5 19.7 -277.5 20.05 -277.5 22.25 -279.8 22.25 -281.45 22.25 -284.25 19.3 L-287.2 19.95 -288.45 19.8 -288.85 19.1 -288.95 18.55 Q-288.95 17.75 -287.55 17.6 -285.7 17.45 -285.2 17.05 L-285.7 16.7 -286.1 16.6 -286.65 16.55 Q-287.65 16.55 -288.55 17.15 -289.45 17.75 -290.25 17.75 -291.55 17.75 -292.05 17.25 L-293.4 18.0 -294.95 18.5 -296.35 17.9 -297.15 18.1 -298.0 18.35 -299.35 18.2 -299.4 17.2 -299.35 16.7 -299.45 16.8 -299.9 17.6 Q-300.45 18.1 -302.15 18.1 L-303.05 18.0 -303.65 17.95 Q-303.75 17.25 -303.45 16.7 L-303.15 16.15 -306.1 15.35 Q-308.1 14.8 -308.1 13.7 -308.1 13.15 -307.0 12.8 -306.1 12.45 -305.3 12.45 -304.4 12.45 -302.65 13.45 -300.95 14.5 -300.05 14.5 L-299.15 14.25 -298.25 14.05 -296.7 13.9 -295.1 13.75 -294.35 13.8 -294.4 13.85 -294.3 14.7 -292.25 14.75 -292.05 14.95 -290.85 14.6 Q-290.3 14.45 -288.9 15.55 L-287.35 14.3 -287.6 12.9 Q-287.45 12.05 -285.1 12.05 -284.7 12.05 -284.2 12.4 -283.6 12.85 -283.6 13.4 -283.6 14.45 -283.75 14.65 L-282.6 16.35 -280.4 19.3 -279.7 19.15 Q-280.1 18.8 -280.7 18.7 L-281.05 18.25 Q-281.05 17.8 -279.5 17.25 -278.0 16.6 -278.0 16.1 L-278.75 15.8 Q-279.0 15.6 -276.95 14.85 M-281.75 11.8 L-281.55 11.2 -281.35 10.8 -279.6 10.6 -277.55 10.55 -275.65 10.3 Q-274.95 10.3 -274.4 10.7 -273.85 11.1 -273.85 11.65 L-275.75 12.8 Q-277.75 14.0 -278.4 14.05 L-278.95 13.95 -279.25 13.5 Q-279.25 12.65 -280.5 12.45 -281.75 12.25 -281.75 11.8 M-278.6 7.65 L-278.5 7.8 -278.35 7.65 -278.6 7.65 M-283.4 4.9 L-283.25 5.35 -283.2 6.25 -283.4 7.65 -283.6 7.75 -284.6 7.8 -285.9 7.65 -287.1 7.45 Q-286.5 7.85 -287.0 8.3 -287.5 8.75 -288.3 8.75 -289.9 8.75 -290.45 7.65 -290.65 8.4 -292.45 8.65 L-295.25 8.8 -296.1 9.0 -296.95 9.15 Q-297.45 9.15 -297.35 8.95 -297.3 8.75 -297.8 8.75 -298.5 8.75 -299.3 9.2 -300.15 9.65 -301.1 9.65 L-302.1 9.4 -303.4 8.5 -304.4 8.6 Q-304.85 8.6 -304.85 8.9 L-304.8 9.5 Q-305.05 10.0 -306.45 10.0 -307.95 10.0 -308.55 9.1 -309.1 8.25 -310.5 8.25 L-311.1 8.45 Q-311.25 8.65 -311.75 8.65 L-312.45 8.6 -313.85 9.2 Q-314.1 9.35 -314.2 9.85 -314.4 10.25 -315.45 10.25 L-316.0 10.15 -316.45 9.9 -316.6 9.45 -316.45 9.1 -316.6 8.9 -318.15 9.3 -319.95 9.55 -320.95 9.45 -322.15 9.25 Q-323.95 9.05 -324.5 8.55 L-324.7 8.05 -324.4 7.45 -324.15 7.15 -325.85 8.4 -326.05 8.6 -326.85 9.4 Q-327.75 10.2 -328.8 10.2 L-329.9 10.1 -330.2 9.05 Q-329.95 8.45 -330.15 8.3 L-332.65 8.3 -333.4 8.75 -334.65 9.05 -337.25 8.2 -340.8 6.75 -341.4 7.0 -340.75 7.9 -340.35 8.7 Q-340.35 9.0 -340.5 9.15 L-340.7 9.45 -341.35 9.55 -342.75 9.65 Q-343.6 9.65 -344.05 8.9 L-344.9 8.0 -346.6 7.3 -348.35 7.0 -350.6 7.6 -349.95 8.0 Q-349.6 8.2 -349.6 8.55 L-349.9 9.0 Q-350.35 9.35 -351.3 9.35 L-353.6 9.3 Q-353.45 9.9 -354.05 10.25 L-354.05 5.65 -353.55 5.65 -351.2 5.8 -350.15 4.8 Q-349.4 4.35 -348.6 4.35 -347.7 4.35 -345.95 5.2 -344.05 6.2 -342.95 6.3 L-342.75 5.3 Q-342.35 4.5 -340.9 4.5 L-339.75 4.65 -339.1 4.85 -338.2 4.4 -337.2 4.0 -335.65 4.25 Q-335.05 4.6 -334.9 5.4 L-333.0 5.0 Q-332.4 5.0 -332.2 5.3 L-332.05 5.6 -329.65 5.75 Q-330.1 5.1 -329.45 4.6 -328.75 4.05 -327.65 4.05 L-326.05 4.45 -325.8 4.5 Q-323.75 5.0 -322.5 5.45 L-321.2 6.3 -320.65 6.85 -321.05 6.15 Q-321.05 5.8 -320.55 5.45 -319.85 5.05 -318.4 5.05 -317.05 5.05 -315.75 6.25 L-314.8 6.05 -313.65 5.55 -312.05 4.7 -310.55 4.55 -309.1 4.35 Q-308.1 4.35 -306.3 6.0 -306.3 4.5 -304.25 4.5 -303.65 4.5 -303.2 5.0 -302.7 5.55 -303.0 6.25 L-300.75 5.8 -299.35 6.35 -296.8 6.65 -296.0 6.5 -296.0 6.3 -297.1 5.35 -297.45 4.8 Q-297.45 4.3 -296.1 4.0 L-293.35 3.75 -292.35 3.95 -290.95 4.45 -289.5 4.05 -287.0 3.85 Q-286.5 3.85 -286.35 4.05 L-285.7 4.3 -284.55 4.4 -283.4 4.9 M-262.35 16.9 Q-261.3 17.35 -260.5 17.95 -261.25 18.25 -261.45 18.45 L-262.3 18.95 -261.55 19.3 Q-261.3 19.5 -261.3 19.85 L-261.65 20.25 -262.95 20.5 -264.9 20.3 -266.85 20.0 -268.2 20.4 -269.75 19.5 -270.25 20.0 -271.3 20.3 -271.95 20.2 -272.5 19.55 -272.6 18.85 Q-272.6 17.85 -272.05 17.75 L-269.2 16.9 Q-268.4 17.35 -268.05 17.75 -269.3 18.45 -267.4 18.2 -265.7 18.0 -266.35 17.35 -266.9 16.8 -265.65 16.5 L-264.25 16.3 Q-263.6 16.3 -262.35 16.9 M-254.75 16.85 L-254.9 17.35 -253.35 16.95 -251.7 17.35 Q-251.05 17.75 -251.05 18.35 -251.05 18.95 -251.7 19.35 L-253.35 19.75 -254.95 19.35 Q-255.65 18.95 -255.65 18.35 L-255.45 17.8 -257.55 18.55 Q-258.65 18.55 -259.55 18.0 -260.45 17.5 -260.45 16.85 -260.45 15.75 -257.6 15.8 -254.75 15.9 -254.75 16.85 M-250.2 6.7 L-249.35 6.8 Q-249.0 6.95 -249.0 7.15 L-249.35 7.45 -250.2 7.6 -251.05 7.45 -251.4 7.15 -251.05 6.8 -250.2 6.7 M-240.25 8.8 L-239.95 9.0 -239.9 9.4 Q-239.9 9.65 -240.3 9.65 -240.75 9.65 -240.75 9.9 -240.45 10.8 -242.0 10.8 L-242.9 10.7 -243.4 10.6 -243.65 9.75 Q-243.65 9.4 -242.95 9.1 L-240.25 8.8 M-238.55 7.35 Q-238.55 7.75 -239.3 8.05 L-241.8 8.45 Q-243.25 8.45 -246.5 6.95 L-249.75 5.2 -250.9 5.9 Q-251.45 6.0 -251.45 6.5 -251.5 7.45 -253.1 7.4 L-254.75 7.35 -254.6 8.15 Q-254.8 8.7 -256.55 8.7 L-257.15 8.65 Q-257.15 9.55 -258.1 10.65 -259.4 12.2 -261.35 12.2 L-262.35 12.1 -263.05 12.0 -263.25 11.2 Q-263.25 10.9 -262.7 10.55 L-262.2 9.9 Q-262.2 8.55 -261.75 8.25 L-258.6 7.9 -259.2 7.35 -261.0 7.65 -262.5 7.95 -263.45 7.85 -264.0 7.75 -264.4 6.8 -264.0 6.4 -263.65 6.25 Q-264.0 5.9 -264.35 6.1 L-266.15 6.45 -266.8 6.25 Q-266.95 6.05 -267.45 6.05 -268.65 6.05 -269.4 6.85 L-270.1 7.8 Q-269.9 7.95 -269.75 8.05 L-267.8 7.4 Q-267.0 7.4 -266.45 8.3 -266.05 8.95 -266.05 9.4 -266.05 9.7 -266.3 9.8 L-266.75 10.05 -266.4 10.3 Q-266.0 10.6 -266.0 10.95 -266.0 11.45 -266.2 11.4 L-267.85 11.55 -269.15 11.3 Q-269.75 11.05 -269.75 10.65 -269.75 10.2 -269.2 9.6 L-268.65 9.0 -269.4 8.75 Q-270.4 9.75 -271.9 10.15 L-272.9 9.85 Q-273.5 9.45 -273.5 8.75 L-273.45 8.2 Q-273.45 7.95 -273.6 7.85 L-273.85 7.9 -275.15 8.65 Q-275.8 9.2 -276.45 9.2 L-278.25 8.35 Q-280.0 9.1 -280.6 9.1 L-281.85 9.0 -282.1 8.6 -282.15 8.15 -281.7 7.25 -280.4 5.75 -279.4 4.95 Q-278.75 4.6 -277.8 4.6 L-275.1 5.0 -273.0 6.35 Q-272.2 5.35 -271.55 5.35 -269.75 5.0 -269.75 4.45 L-269.85 3.15 -268.2 2.95 -266.5 2.85 -264.65 2.6 Q-264.3 2.6 -263.7 2.95 -263.0 3.35 -263.0 3.8 -263.0 4.35 -264.1 4.75 -263.75 5.1 -263.5 4.9 -262.6 4.4 -261.25 4.4 -259.8 4.4 -259.45 4.75 L-258.5 5.85 Q-257.75 4.75 -256.55 4.75 L-255.05 5.0 -253.95 5.3 -253.7 4.65 -253.45 3.95 -254.35 3.1 -255.25 2.4 Q-255.25 2.05 -254.85 1.95 L-254.5 1.9 -253.5 1.8 -251.3 2.55 Q-249.25 3.35 -249.25 3.75 L-249.7 4.15 -250.2 4.6 Q-250.2 5.1 -249.75 4.9 -249.1 4.55 -247.85 4.2 L-246.7 3.95 Q-245.9 3.95 -244.6 4.9 L-243.25 5.8 Q-238.55 5.8 -238.55 7.35 M-235.95 5.1 L-236.3 4.7 -236.9 5.2 -235.95 5.1 M-232.75 3.85 Q-231.5 4.2 -231.5 4.8 L-231.95 5.2 -232.85 5.6 -231.95 6.3 -231.3 6.95 Q-231.3 7.45 -231.55 7.65 L-232.95 7.95 -238.2 6.6 Q-240.55 5.95 -240.55 4.8 L-240.35 3.7 Q-239.8 3.05 -237.85 3.05 -237.15 3.05 -236.7 3.5 L-236.2 4.2 Q-235.3 3.65 -234.15 3.65 L-232.75 3.85 M-208.5 17.35 L-209.25 17.55 -208.05 18.1 -208.5 17.35 M-221.2 2.45 L-220.35 2.55 -220.0 2.65 -219.7 3.5 -220.7 4.15 -221.35 4.3 Q-221.35 4.85 -221.1 4.85 L-218.7 4.8 -217.05 5.2 -218.05 5.95 Q-218.7 6.45 -220.6 6.7 L-221.8 6.9 -222.8 6.95 -224.05 7.15 -225.4 7.55 -226.0 7.45 Q-226.0 7.8 -226.15 7.95 -223.85 8.3 -223.1 9.4 L-223.35 10.1 Q-223.95 10.75 -225.65 10.75 L-226.5 10.65 -226.85 10.55 Q-227.0 9.45 -229.25 8.2 -231.45 6.95 -231.45 6.4 -231.45 5.8 -230.55 5.7 -229.7 5.6 -229.85 5.2 -230.0 4.75 -229.2 4.4 L-227.95 4.05 -227.0 4.6 -226.3 5.2 Q-225.75 5.55 -225.05 5.7 L-223.85 5.85 -223.0 5.2 -223.75 4.8 Q-224.15 4.5 -224.15 4.2 -224.15 4.05 -223.0 3.3 -221.75 2.45 -221.2 2.45 M-211.2 10.65 L-210.85 11.65 -210.55 12.25 -210.75 12.75 -211.0 13.0 -212.15 13.25 -213.0 13.3 -213.9 13.0 -214.25 12.45 Q-216.4 13.65 -218.05 13.65 L-219.1 13.65 -219.4 13.6 -219.75 13.1 -219.85 12.65 Q-219.85 12.4 -219.4 12.4 L-218.95 12.05 Q-218.95 11.8 -219.35 11.3 L-219.75 10.5 -219.6 10.1 -219.45 9.95 -219.15 9.9 -218.1 9.85 -213.05 9.75 Q-212.35 9.75 -211.75 10.15 L-211.2 10.65 M-207.5 1.75 Q-207.35 2.0 -207.35 2.3 L-207.65 2.55 -208.9 2.95 -209.6 2.85 Q-208.1 4.05 -209.8 4.7 L-211.95 5.1 -212.8 5.05 -212.95 4.95 -213.45 5.4 -214.25 5.55 Q-215.8 5.55 -217.4 4.65 L-218.7 3.6 -218.5 3.2 -218.3 3.05 -216.95 2.95 -215.65 3.15 -214.4 3.35 -211.55 2.2 Q-210.55 2.2 -210.05 2.55 L-210.05 2.45 -210.0 2.0 Q-209.85 1.7 -209.05 1.3 L-207.65 1.55 -207.5 1.75 M-197.75 3.45 L-200.95 5.2 Q-200.5 5.45 -200.5 6.25 -200.5 7.0 -202.25 7.75 -204.0 8.55 -205.5 8.55 L-206.8 8.2 Q-207.65 7.75 -207.45 6.9 L-209.6 6.65 Q-210.3 6.4 -210.3 5.85 L-209.1 5.1 -207.6 5.5 -206.7 6.0 -205.75 5.3 -206.6 4.9 Q-207.0 4.6 -207.0 4.25 L-206.25 3.6 Q-205.3 3.15 -204.0 3.15 -203.5 3.15 -203.35 3.4 L-202.75 3.55 -199.25 2.55 Q-198.55 2.55 -198.1 2.95 -197.75 3.2 -197.75 3.45 M-160.95 15.4 Q-160.05 16.0 -160.05 16.6 -160.05 17.4 -161.85 17.65 L-164.45 17.8 -166.1 17.7 -167.55 17.55 -170.25 17.1 Q-171.1 16.75 -171.3 16.75 L-172.05 16.8 -172.1 16.8 -171.95 16.9 Q-171.6 17.5 -171.95 18.2 L-173.1 18.4 -175.05 17.95 -177.6 17.25 Q-177.0 18.0 -178.15 18.2 L-180.1 18.3 -180.25 18.45 Q-178.3 18.75 -178.3 19.3 -178.3 20.55 -180.45 20.95 -179.35 21.4 -181.4 22.25 L-182.85 22.05 -183.1 21.2 -182.7 20.85 Q-182.5 20.65 -182.65 20.55 L-182.95 20.65 -185.85 20.3 Q-187.65 20.3 -187.9 19.65 -188.4 18.2 -190.2 16.85 L-190.8 17.15 -190.3 17.45 -189.7 18.15 -189.25 18.85 -189.4 19.25 -189.55 19.45 -190.7 19.6 -191.55 19.65 Q-192.65 19.65 -192.75 19.3 -193.0 18.7 -193.2 18.6 L-193.35 18.15 -195.35 17.75 Q-194.3 18.1 -194.8 18.7 -195.3 19.3 -197.3 19.3 -198.2 19.3 -198.9 18.25 -199.6 17.2 -200.6 17.2 L-201.45 17.35 -203.7 17.15 Q-203.35 17.65 -204.4 18.25 -205.4 18.8 -206.5 18.8 L-207.45 18.6 -207.65 18.4 Q-207.9 19.55 -209.15 20.0 -210.1 20.0 -210.85 19.45 -211.7 18.8 -212.45 18.65 -213.4 19.25 -215.7 19.75 L-217.75 20.35 -219.65 20.8 Q-220.75 20.8 -223.4 19.65 -226.05 18.5 -226.05 18.05 L-225.9 17.6 -225.75 17.3 -227.1 17.2 -228.05 17.15 -230.15 17.9 -231.3 17.65 -231.75 16.75 -232.5 16.7 Q-233.0 16.7 -233.1 16.95 -233.25 17.25 -233.75 17.25 -234.35 17.25 -235.9 16.35 L-238.25 15.0 Q-239.35 15.35 -241.7 17.0 -243.7 18.45 -244.9 18.45 L-246.25 18.15 Q-247.25 17.75 -247.45 17.15 L-249.1 17.7 -249.8 18.25 -252.0 16.9 -254.05 15.3 Q-254.05 15.05 -253.7 14.75 -253.25 14.3 -252.55 14.3 -252.05 14.3 -250.8 15.15 L-250.35 14.65 -248.55 14.4 Q-247.65 14.4 -247.0 15.45 L-244.65 15.3 -242.4 14.7 -241.75 14.1 -241.1 13.45 Q-238.6 12.85 -238.6 12.6 L-238.9 12.35 Q-239.05 12.05 -238.1 11.5 -237.4 11.85 -237.2 12.3 L-235.85 13.2 -234.45 13.35 -233.9 13.8 -233.85 14.35 -233.7 14.95 -232.85 14.55 Q-233.5 13.85 -232.6 13.45 L-231.35 13.25 -230.15 13.45 Q-229.35 13.75 -229.35 14.35 L-229.35 14.85 -229.0 15.2 -228.4 14.95 Q-227.5 14.35 -226.4 14.0 L-224.85 15.25 Q-223.3 16.5 -223.3 16.8 L-223.4 17.25 -223.85 17.5 -221.95 17.5 -220.35 17.75 -219.55 18.35 -219.2 18.05 -218.35 17.9 Q-217.0 17.9 -216.8 17.45 L-217.5 17.6 -218.5 17.45 -219.2 16.85 Q-217.8 16.15 -216.2 15.75 L-216.8 15.25 -217.3 14.4 -217.05 13.9 -216.85 13.55 -214.3 13.35 Q-213.3 13.35 -212.85 13.9 L-211.85 14.75 -209.65 15.3 -208.05 15.45 -208.05 15.35 Q-208.8 15.35 -208.8 14.7 -208.8 14.3 -207.8 13.95 -206.9 13.6 -206.25 13.6 -205.75 13.6 -203.05 14.65 L-200.35 15.7 -199.1 15.6 -198.2 15.45 -198.2 14.95 -199.4 14.4 -200.0 13.65 -199.5 13.05 Q-198.7 12.55 -197.15 12.55 L-191.9 14.95 -191.6 15.35 -190.7 15.4 Q-189.95 15.6 -189.8 16.4 L-189.35 16.1 -188.35 15.95 Q-187.6 15.95 -186.65 16.6 L-185.5 17.65 -184.85 17.55 -185.6 17.0 -185.8 16.2 -185.6 15.7 -185.45 15.6 -183.4 15.4 -181.85 15.65 -179.75 16.15 -179.3 16.0 Q-178.9 15.9 -178.9 15.6 L-178.75 14.6 Q-178.4 14.2 -177.1 14.2 L-175.85 14.65 -174.0 15.15 -173.05 14.65 Q-172.1 14.2 -171.25 14.2 -169.95 14.2 -168.65 14.95 L-166.95 15.65 -166.25 15.45 Q-166.05 15.2 -165.55 15.2 L-164.1 15.05 -162.65 14.85 Q-161.8 14.85 -160.95 15.4 M-156.7 17.15 L-155.55 16.8 -154.15 16.55 -151.7 15.85 Q-151.2 15.85 -150.5 16.4 L-149.9 17.1 Q-149.9 17.6 -151.65 18.35 -153.55 19.15 -155.3 19.25 L-158.9 19.9 -161.0 20.65 -162.2 21.1 -163.05 20.9 Q-163.65 20.55 -163.65 19.75 -163.65 19.35 -162.75 18.55 -161.5 17.4 -159.6 17.4 L-158.35 17.65 Q-157.95 17.75 -156.7 17.15 M-161.25 10.25 L-160.95 9.85 -160.7 9.7 -159.75 9.55 -158.9 9.5 -156.8 9.9 Q-155.85 10.25 -155.85 10.45 -155.85 11.35 -156.9 12.4 -157.9 13.35 -159.05 13.75 L-160.3 13.0 -160.75 12.6 Q-160.75 12.3 -160.35 12.3 -160.0 12.3 -160.0 12.05 -161.25 11.0 -161.25 10.25 M-122.7 14.9 L-123.1 15.25 -124.15 15.55 -123.2 15.85 -122.7 15.7 -122.25 15.7 -122.0 15.35 -122.7 14.9 M-136.15 15.6 Q-135.75 15.8 -135.75 16.7 -138.25 18.65 -139.05 18.65 -139.65 18.65 -140.75 17.65 -141.85 16.6 -142.25 16.6 -144.2 16.6 -145.25 17.4 -146.3 18.2 -147.15 18.2 -147.6 18.2 -148.15 17.7 L-149.4 16.5 -150.75 15.75 -151.2 15.1 -151.5 14.55 -154.05 14.8 -154.45 14.15 -152.35 12.55 Q-150.95 11.55 -149.3 11.5 -148.05 12.05 -148.0 12.5 L-148.0 13.45 -145.35 13.8 -143.9 13.55 -142.45 13.3 Q-141.85 13.3 -140.45 14.35 -139.05 15.35 -138.05 15.35 L-136.15 15.6 M-139.05 7.8 L-139.2 7.55 -139.6 7.4 -139.0 7.95 -139.05 7.8 M-124.55 4.5 Q-124.55 4.75 -125.2 5.2 -125.85 5.7 -125.85 6.3 -125.85 7.0 -127.5 7.95 -129.35 9.05 -131.5 9.05 L-132.3 8.9 -132.45 8.6 -133.3 9.15 -134.0 9.2 -135.3 8.7 -136.25 8.25 Q-137.4 8.25 -138.25 8.7 L-140.2 9.15 Q-141.75 9.15 -142.1 8.7 -142.6 8.0 -143.05 7.85 L-144.95 7.4 -146.35 6.55 -146.2 6.1 -147.15 6.05 -148.6 7.35 -148.55 8.8 Q-148.8 9.0 -152.15 10.8 L-153.2 10.0 -153.65 9.55 -153.65 8.95 Q-153.65 8.7 -154.0 8.3 L-156.15 8.45 -156.75 9.15 -157.35 9.4 -158.2 9.25 -158.5 9.1 -158.55 8.65 Q-157.8 8.3 -156.85 8.05 L-158.05 6.9 -159.05 7.05 Q-159.55 8.1 -163.4 9.75 -164.05 9.75 -164.45 10.1 L-166.7 10.4 -168.2 10.15 Q-168.9 9.85 -168.9 9.3 L-168.4 8.3 -167.75 7.65 -168.25 7.45 Q-168.8 8.35 -170.15 8.35 L-171.8 7.65 -173.15 6.5 -174.8 7.55 -176.8 8.1 -177.95 7.8 Q-178.8 7.4 -178.8 6.75 -178.8 6.2 -178.4 5.7 L-178.25 5.5 -178.75 5.65 -179.65 5.8 Q-178.6 6.3 -179.35 7.05 -180.1 7.8 -181.5 7.8 L-182.3 7.7 -182.4 7.6 Q-182.1 8.45 -183.75 8.9 L-187.4 9.95 -186.85 10.4 -186.6 10.9 -186.75 11.65 Q-187.2 12.25 -188.7 12.25 L-189.75 11.9 -190.4 11.25 -192.4 11.45 -193.4 11.0 -195.3 10.35 Q-196.15 10.05 -196.15 9.7 -196.15 9.4 -195.65 9.25 L-195.2 8.75 -195.7 7.9 -196.3 7.15 Q-199.1 7.15 -199.1 5.2 -199.1 4.65 -198.5 4.6 L-197.15 4.45 Q-196.55 4.65 -195.8 5.45 -195.3 6.0 -193.9 6.0 L-192.3 5.8 -190.7 5.6 -189.9 5.8 -189.1 6.35 -188.8 6.05 -187.9 5.85 Q-187.4 5.85 -187.4 6.15 -187.45 6.35 -186.95 6.35 L-185.2 6.1 -183.1 5.85 -183.1 5.75 Q-183.1 5.05 -183.95 4.75 -184.8 4.5 -185.3 3.95 L-185.65 3.5 -185.45 3.0 -185.3 2.95 -182.1 2.75 Q-181.05 2.75 -180.3 3.35 -179.5 3.9 -178.8 3.9 L-177.6 3.65 -176.4 3.4 Q-175.6 3.4 -174.95 3.95 L-174.4 4.65 -174.75 5.05 -175.7 5.4 -174.35 5.35 -174.15 4.7 -173.75 4.05 Q-173.3 3.9 -172.6 4.05 L-171.35 4.4 Q-168.8 4.9 -168.8 5.4 -168.8 5.7 -169.2 5.85 L-169.8 6.05 -168.85 6.65 -167.85 5.8 -167.05 5.1 -167.15 4.65 Q-167.1 4.55 -166.1 4.0 -164.3 4.8 -164.3 5.85 L-160.8 6.0 Q-160.45 5.6 -160.4 4.75 -160.35 4.0 -160.0 3.75 L-158.1 3.2 -155.65 2.8 -154.35 3.1 Q-153.1 3.5 -153.1 4.3 L-153.35 4.95 -154.1 5.55 -153.55 6.1 -151.1 5.5 -148.5 5.2 Q-148.35 4.5 -147.75 4.05 -147.25 3.75 -146.8 3.75 -145.15 3.75 -143.55 5.15 L-142.3 4.5 -139.9 4.05 Q-137.85 4.05 -137.75 4.7 L-137.35 6.3 -135.8 6.2 Q-135.7 6.45 -135.9 6.8 L-135.9 7.2 -134.05 6.15 Q-132.4 5.3 -131.5 5.3 -131.2 5.3 -130.75 5.55 L-130.05 5.85 -128.8 4.6 Q-127.35 3.55 -126.05 3.55 -125.5 3.55 -125.0 3.95 -124.55 4.3 -124.55 4.5 M-102.7 16.05 L-102.45 15.7 -102.95 15.7 -102.7 16.05 M-112.2 10.55 L-113.35 11.05 -113.25 11.1 -112.2 10.55 M-118.5 6.4 Q-118.55 7.3 -119.9 7.3 -121.15 7.3 -122.6 6.3 -124.05 5.35 -124.05 4.5 L-123.8 4.05 -122.85 3.95 Q-120.55 4.2 -118.5 6.4 M-94.9 18.65 L-94.1 18.85 -94.6 18.7 -94.9 18.65 M-90.6 7.35 L-90.8 7.95 -92.15 8.15 -93.65 7.65 -94.8 7.15 -95.25 7.4 -96.35 7.55 -98.1 7.95 -99.6 8.35 -100.85 8.15 -101.85 7.9 -101.75 8.05 -100.55 8.75 Q-100.1 9.0 -100.1 9.4 -100.1 9.75 -100.25 9.8 L-100.8 10.05 -101.2 10.25 -101.9 10.3 -103.2 9.55 -105.0 9.75 Q-106.4 10.0 -106.4 10.35 L-105.9 11.05 Q-105.8 11.6 -107.55 12.5 L-110.55 12.8 -112.2 13.05 -113.1 12.95 -113.25 12.8 Q-111.7 14.9 -115.0 14.9 L-115.85 14.85 -116.25 14.8 -116.6 13.75 Q-117.25 14.3 -117.75 14.3 -120.4 14.3 -120.4 12.6 L-120.1 12.0 Q-119.8 11.8 -118.8 11.7 L-117.35 12.25 Q-116.65 12.6 -116.5 12.9 L-115.75 12.6 -117.5 11.5 Q-118.05 11.1 -119.9 10.85 -121.05 10.7 -121.05 9.55 -121.05 9.25 -120.65 8.9 -120.0 8.3 -118.65 8.3 L-117.05 8.15 Q-116.3 7.85 -115.75 6.55 -118.2 6.1 -118.2 5.5 -118.2 5.05 -116.6 4.35 -115.05 3.65 -114.2 3.65 -113.65 3.65 -112.9 4.15 L-112.2 4.7 Q-112.2 5.1 -112.9 5.35 L-114.45 6.05 -113.5 5.8 -112.6 5.8 -111.45 5.85 -111.3 5.95 -111.2 6.4 -111.55 7.55 -112.2 8.25 -113.0 8.75 -112.3 8.9 -107.05 8.1 Q-103.3 7.35 -103.3 7.05 -103.3 6.5 -104.1 6.1 L-104.95 5.3 -104.75 4.9 -104.6 4.85 -102.3 4.7 -100.65 5.75 -99.4 5.55 -98.05 5.45 -95.65 5.6 Q-96.4 4.7 -94.05 4.7 -92.9 4.7 -91.65 5.9 -90.6 6.9 -90.6 7.35 M-84.65 4.35 L-85.1 4.85 -83.8 6.05 -81.5 6.0 -81.2 6.35 -81.15 6.75 Q-81.15 8.15 -85.95 8.15 L-86.8 7.95 Q-87.5 7.7 -87.5 7.3 -87.5 6.75 -87.85 6.5 L-88.7 6.8 -89.75 7.05 Q-90.5 7.05 -91.05 6.25 L-92.15 4.95 -92.65 4.3 -93.6 4.4 -94.5 4.3 -95.0 3.75 -94.9 3.4 -94.8 3.45 -94.55 3.25 -93.85 3.2 -91.75 2.4 -89.55 1.55 -88.75 1.6 -88.45 1.8 -88.15 1.9 -88.1 2.2 -88.35 2.6 -88.7 2.65 -88.15 3.05 -87.9 3.65 -88.3 4.05 -87.35 5.05 Q-87.0 4.8 -86.15 4.7 L-86.55 4.2 -86.5 3.8 -85.0 3.65 Q-84.5 3.8 -84.2 4.1 L-84.65 4.35 M-78.1 10.7 L-79.25 10.4 -79.95 9.75 -80.55 10.3 Q-81.05 10.7 -82.1 10.7 -83.6 10.7 -84.4 9.95 L-84.9 9.05 -84.5 8.65 Q-83.9 8.3 -82.75 8.3 L-78.0 7.5 -76.65 7.5 -76.05 7.65 Q-75.35 7.85 -74.55 8.4 -74.6 9.05 -75.6 9.8 -76.75 10.7 -78.1 10.7 M-58.0 7.85 L-58.5 8.45 -57.9 8.35 -58.0 7.85 M-57.7 6.15 Q-57.3 5.65 -56.25 5.65 -55.7 5.65 -54.9 6.5 -54.0 7.45 -54.0 8.35 L-54.05 9.2 -55.3 10.1 -58.15 10.4 -59.2 10.8 -60.2 11.15 Q-61.45 11.15 -62.4 10.5 L-63.15 9.6 -62.7 9.1 Q-62.05 8.65 -61.0 8.65 L-62.65 7.85 Q-63.4 7.45 -63.4 7.0 L-63.35 6.7 -64.8 7.45 -66.4 8.1 -65.5 8.65 Q-64.75 9.1 -64.75 9.35 L-65.0 9.75 Q-65.45 10.1 -66.35 10.25 L-67.8 9.85 -69.6 9.55 -70.25 9.65 -71.7 9.7 -72.85 9.75 -73.6 9.5 -74.1 8.85 Q-73.7 7.85 -75.1 7.6 -76.6 7.3 -76.6 6.65 L-76.5 6.2 -76.4 5.85 -74.9 5.75 Q-74.5 5.75 -73.25 6.3 L-73.2 6.15 -73.1 5.4 -72.95 4.75 -71.85 4.6 -71.0 4.55 Q-70.6 4.55 -70.25 4.9 L-69.9 5.2 -68.8 4.95 Q-68.25 4.6 -67.75 4.6 L-67.0 4.8 -66.3 5.05 -63.1 4.4 Q-61.65 4.05 -61.65 5.3 L-62.15 5.85 -63.3 6.6 Q-62.1 6.05 -61.2 6.05 L-59.75 6.3 Q-59.4 6.5 -58.4 7.2 L-57.7 6.15 M-19.55 5.1 L-18.5 4.9 -17.5 5.05 -17.2 5.95 -17.55 6.6 -18.9 6.8 -20.15 6.4 -21.5 7.3 -22.2 7.5 -24.0 7.45 -26.45 8.05 -28.05 7.7 -29.5 7.35 -31.65 8.05 Q-33.2 8.05 -33.95 7.45 L-35.25 6.25 -36.3 6.95 Q-37.2 7.45 -37.95 7.45 L-40.45 7.15 -41.6 6.9 -41.6 7.35 -41.05 7.55 Q-40.75 7.7 -40.75 8.05 -40.75 8.35 -41.0 8.45 L-41.25 8.55 -42.15 8.55 -43.85 8.05 -44.95 7.9 Q-45.25 9.4 -46.95 9.4 -47.9 9.1 -48.3 8.15 L-50.05 8.5 -51.5 8.7 Q-53.1 8.7 -53.8 7.15 -54.2 6.25 -54.2 5.1 L-54.0 4.5 -53.85 4.3 -52.75 4.05 -51.9 4.0 Q-51.7 4.0 -51.35 4.35 -50.85 4.75 -50.7 5.4 -49.15 6.05 -48.25 6.55 L-47.6 6.9 -46.7 6.8 -46.05 6.75 -45.9 6.55 -46.25 5.75 Q-46.25 5.15 -44.9 5.0 -44.55 5.0 -44.1 5.3 L-43.15 5.55 Q-41.75 5.55 -40.25 4.55 -38.75 3.5 -37.55 3.5 -37.0 3.5 -36.35 3.9 L-35.75 4.25 -33.7 3.95 Q-32.45 3.85 -32.45 4.75 L-31.65 5.55 Q-30.7 6.2 -29.75 6.2 -26.65 5.8 -25.85 5.15 -25.4 4.75 -25.1 3.9 -24.95 3.35 -23.9 3.35 L-23.25 3.4 -23.15 3.45 -22.9 4.25 -22.55 5.15 -20.65 5.35 -19.55 5.1 M2.55 20.75 Q1.8 21.55 0.3 21.55 L-1.55 20.95 Q-2.85 20.4 -3.5 20.4 L-4.75 20.7 -6.3 20.95 -7.4 20.8 Q-8.4 20.4 -8.4 19.5 L-7.95 18.7 Q-7.55 18.1 -7.15 18.35 L-7.55 18.15 -7.7 18.15 -8.45 18.75 -10.25 19.05 -11.6 18.5 Q-12.7 17.9 -12.7 17.05 L-12.95 16.3 -13.3 15.65 -13.9 16.0 Q-13.9 17.15 -15.6 17.15 L-16.65 17.05 -17.4 16.95 -17.65 16.05 -17.3 15.55 -18.5 15.85 -19.6 16.5 -21.0 15.9 Q-21.8 15.4 -22.2 15.4 -23.5 15.4 -24.3 15.9 L-25.65 16.35 -26.85 16.0 -27.95 15.6 -30.45 16.55 -31.25 17.2 Q-32.35 17.8 -33.9 17.8 L-37.45 18.5 -38.4 18.35 Q-38.65 18.15 -38.85 18.05 L-40.1 17.8 -40.7 17.8 Q-41.75 17.4 -42.05 17.05 -42.3 16.75 -43.5 16.4 L-43.15 16.9 Q-41.6 17.4 -41.45 17.9 -41.45 18.2 -41.6 18.3 L-41.8 18.4 -43.2 18.55 -46.5 18.95 -48.75 19.35 Q-50.7 19.35 -51.25 18.5 -51.85 17.5 -52.75 17.3 L-54.95 17.9 Q-56.35 18.2 -56.35 18.5 L-56.1 19.3 -55.9 19.85 -57.2 20.15 Q-59.85 19.6 -60.15 17.9 L-61.6 18.2 -60.55 19.45 Q-60.55 19.6 -63.05 20.55 L-66.45 21.5 Q-71.4 20.15 -71.4 19.75 L-71.2 19.2 -71.1 18.9 -72.0 19.0 -72.4 18.95 Q-73.85 20.55 -75.55 20.55 L-77.25 20.25 -78.75 19.9 -79.95 20.2 Q-81.05 20.35 -81.05 19.35 -81.05 19.05 -81.3 18.9 L-81.6 18.8 Q-83.55 19.75 -84.8 18.85 -86.9 17.4 -87.6 17.25 -87.2 17.55 -87.15 17.9 L-87.15 18.35 -88.35 18.55 -90.5 17.8 -91.1 18.05 -91.45 18.15 -91.6 19.55 Q-91.85 20.4 -93.15 20.55 L-95.75 21.05 -98.0 21.35 Q-99.0 21.35 -99.3 20.6 L-99.45 20.3 -102.25 20.75 -103.45 20.65 -104.4 20.55 -104.75 19.95 -104.85 19.45 Q-104.85 19.0 -104.05 18.8 L-102.25 18.35 -102.95 17.85 -103.45 17.0 -104.55 17.2 -105.35 17.7 Q-104.9 18.45 -105.65 19.1 -106.3 19.6 -106.9 19.6 L-107.85 19.5 -108.45 19.4 -108.75 18.2 -108.2 17.75 -108.35 17.75 -109.55 17.85 -110.4 18.0 -111.95 18.3 -113.45 18.55 -114.4 18.45 -114.9 18.4 -116.0 18.85 -117.9 19.25 -120.95 19.1 Q-122.45 18.85 -122.45 17.8 -122.45 17.6 -120.7 17.05 L-121.4 16.8 -122.85 17.5 -124.65 17.7 Q-126.8 17.7 -126.95 18.55 -127.1 19.35 -129.05 19.35 L-129.55 19.2 -130.35 18.45 Q-130.2 18.2 -130.65 17.8 L-131.25 17.2 -132.05 17.95 Q-132.8 18.55 -133.8 18.55 L-134.85 18.45 -135.55 18.35 -135.8 17.45 -134.25 16.5 Q-132.6 15.65 -131.8 15.65 -131.3 15.65 -131.2 15.95 -131.15 16.15 -130.65 16.15 -130.0 16.15 -129.55 15.8 -129.0 15.4 -126.55 15.25 -127.55 14.0 -126.45 13.35 L-125.1 12.95 Q-125.1 11.3 -122.9 11.3 L-122.2 11.35 -121.9 11.45 -121.6 12.35 -122.45 13.05 -122.95 13.15 -122.8 13.55 -122.6 13.65 Q-121.1 13.05 -120.35 13.65 L-119.35 14.8 -118.45 15.55 -117.95 16.0 -115.55 16.75 -114.9 15.7 Q-114.5 15.35 -112.65 14.95 L-111.35 16.2 -110.5 16.05 Q-110.65 15.8 -110.15 14.85 -109.55 13.75 -109.55 13.35 L-107.4 13.2 -105.85 13.7 -105.1 13.95 -103.0 13.25 Q-102.5 13.25 -102.35 13.7 -102.25 14.1 -101.75 14.1 L-98.45 14.45 Q-98.05 14.7 -98.05 16.25 -98.05 16.55 -98.65 16.85 L-100.2 17.45 Q-99.35 17.75 -99.2 18.25 -97.8 18.05 -97.2 17.45 -96.75 16.95 -95.65 16.95 L-93.1 16.4 -90.45 15.8 Q-89.95 15.8 -89.1 16.4 L-89.2 16.0 Q-89.2 15.65 -88.0 14.95 -86.85 14.35 -86.55 14.35 -86.05 14.35 -86.1 14.55 -86.2 14.75 -85.7 14.75 L-83.3 14.95 Q-81.9 15.2 -81.9 15.6 L-83.2 16.5 -82.1 17.3 Q-81.9 16.8 -80.65 16.3 -79.25 17.15 -78.65 18.2 L-75.5 17.65 Q-75.65 16.8 -74.25 16.25 L-71.9 15.8 -69.05 16.05 Q-68.85 16.45 -69.0 16.8 L-69.15 17.15 -68.35 18.05 -67.5 18.4 Q-66.7 17.9 -66.4 17.9 -67.3 17.4 -67.3 16.9 L-67.15 16.4 -67.0 16.2 -62.4 16.0 -61.0 16.3 -59.15 16.6 -58.1 16.5 -57.2 16.3 Q-57.5 13.3 -52.55 13.3 L-51.05 13.65 Q-49.9 14.1 -49.9 14.8 -49.9 15.05 -50.25 15.3 L-52.1 15.75 -53.0 15.6 -53.2 15.45 -53.7 16.1 -52.85 16.6 -52.25 16.3 -51.2 16.15 -49.4 16.45 -48.55 16.9 -48.25 16.55 -48.05 16.1 -48.15 14.7 Q-47.95 14.05 -46.2 14.05 -45.8 14.05 -45.45 14.45 L-45.1 14.95 -43.85 14.5 -42.95 14.25 -41.65 14.1 -40.35 13.85 -37.9 14.25 Q-36.2 14.75 -35.6 15.45 L-35.15 15.35 Q-35.45 14.55 -34.7 14.05 L-32.5 13.65 -31.15 13.85 -30.45 14.55 Q-29.95 14.05 -29.0 14.05 L-28.35 14.25 -27.7 14.5 Q-26.75 14.5 -24.8 13.45 -22.85 12.4 -21.65 12.4 L-20.75 12.5 -20.5 13.55 -18.85 13.55 Q-17.95 13.05 -16.8 13.05 -16.35 13.05 -14.85 13.7 L-13.3 14.3 -12.35 13.75 Q-13.8 13.3 -13.8 12.55 L-13.65 12.05 -13.5 11.75 -11.65 11.6 Q-10.5 11.9 -10.1 12.5 L-9.5 12.95 -7.55 12.8 Q-6.45 12.85 -6.45 13.85 L-7.65 14.65 Q-8.8 15.3 -9.5 15.4 L-8.75 16.05 Q-8.75 15.6 -7.3 15.6 -6.0 15.6 -4.0 17.0 L-1.95 18.6 -1.5 18.3 -0.35 18.1 Q0.65 18.1 1.75 18.6 3.0 19.2 3.0 19.9 L2.55 20.75 M8.15 5.75 L8.25 5.9 9.35 5.8 10.4 5.75 10.05 5.4 8.85 5.55 8.15 5.75 M11.45 10.1 Q11.75 9.7 12.4 9.4 L13.3 9.25 Q15.0 9.55 16.45 10.3 18.0 11.05 18.0 11.7 L17.7 12.4 Q17.1 13.05 15.45 13.05 L14.55 12.8 14.35 12.5 13.85 12.45 13.05 12.55 10.9 12.1 Q10.2 11.8 10.2 11.4 10.2 11.05 10.6 10.8 L11.45 10.1 M21.55 16.15 L21.0 16.85 19.4 17.2 18.35 17.0 17.85 16.8 17.2 16.95 16.45 17.15 14.8 16.8 13.9 16.55 12.55 16.7 11.85 16.8 Q11.7 16.95 12.0 18.8 12.15 20.1 9.65 20.1 L8.85 19.85 Q8.5 19.55 8.0 19.55 L6.35 19.9 4.8 20.25 Q4.2 20.25 3.75 19.9 L2.95 19.05 1.45 18.4 Q0.2 17.85 0.2 17.3 0.2 16.7 1.6 16.35 L3.25 16.15 Q4.05 16.15 4.9 17.0 L5.75 17.8 6.55 17.8 8.35 18.2 8.6 18.1 6.85 16.4 Q5.9 15.45 5.9 14.7 5.9 14.25 6.85 13.8 7.7 13.35 8.5 13.35 9.15 13.35 10.4 14.3 L12.3 14.5 Q12.95 14.7 13.8 15.25 L14.6 15.85 Q15.85 14.85 17.25 14.85 17.75 14.85 17.8 15.15 17.8 15.4 18.3 15.4 L20.0 15.05 Q21.55 15.0 21.55 16.15 M25.2 4.3 L24.9 4.4 25.4 4.3 25.2 4.3 M56.4 21.1 L57.6 21.6 58.2 21.4 58.2 19.9 57.95 19.75 Q57.75 20.35 56.05 20.7 L56.4 21.1 M50.9 19.15 L50.75 19.3 Q50.65 19.45 50.9 19.9 L51.2 20.45 Q51.05 20.65 51.2 20.65 L52.2 20.7 51.25 19.95 Q50.75 19.35 50.9 19.15 M47.9 21.55 L49.2 22.1 49.6 21.9 48.55 21.55 47.3 21.05 47.9 21.55 M52.35 11.85 L51.05 11.4 51.4 12.2 52.35 11.85 M62.4 20.95 Q62.4 21.4 63.2 21.9 L64.0 22.5 Q60.9 24.5 58.55 24.5 57.95 24.5 56.65 23.6 L55.15 24.2 53.9 24.4 52.9 24.35 52.2 24.25 51.8 23.45 Q52.7 22.8 53.55 22.3 52.2 22.7 50.85 23.85 49.8 24.8 48.35 24.8 L47.2 24.5 Q46.25 24.05 46.25 23.25 46.25 22.8 45.9 22.5 L44.5 21.5 Q42.5 19.9 41.8 19.75 L43.0 20.9 42.75 21.6 Q42.2 22.25 40.45 22.25 39.6 22.25 39.0 21.55 38.15 20.55 37.35 20.2 L35.75 20.4 34.25 20.4 33.9 19.3 Q33.55 18.9 32.45 18.6 32.95 19.9 32.0 20.6 L29.9 20.9 27.95 21.3 26.75 21.7 Q24.9 21.7 24.4 20.7 22.05 21.6 21.5 20.1 L21.8 19.7 20.35 19.7 Q19.15 19.6 19.15 18.9 19.15 18.4 20.55 17.65 21.9 16.85 21.9 15.45 L22.85 15.25 23.6 15.2 24.65 15.6 Q25.45 16.1 25.45 16.55 L24.6 17.7 23.2 19.1 Q24.35 19.5 24.65 20.05 L26.7 18.7 27.2 17.9 Q27.55 17.3 28.45 17.3 28.75 17.3 29.45 16.75 30.1 16.15 31.0 16.15 L33.15 16.35 35.3 16.5 Q35.1 16.2 35.2 15.65 L35.35 14.9 35.75 14.8 36.9 14.65 Q37.9 14.65 38.55 16.15 38.8 16.95 38.45 17.35 L39.55 17.55 40.1 18.1 41.0 17.8 42.15 17.55 Q43.1 17.55 43.7 18.4 L46.3 18.5 Q47.2 18.85 47.2 19.55 L47.8 19.3 Q47.5 19.0 47.5 18.45 L47.55 17.7 48.5 17.5 49.25 17.45 50.15 17.9 51.05 18.8 55.6 18.05 56.85 17.65 Q57.35 17.65 57.4 17.95 57.45 18.2 57.95 18.2 L59.15 18.05 59.75 17.95 60.1 18.35 Q60.2 18.6 60.75 18.6 62.05 18.6 62.65 19.1 63.05 19.45 63.05 19.85 L62.4 20.95 M62.75 5.75 L64.2 5.5 Q65.5 5.45 65.5 6.2 65.5 6.45 66.0 6.7 66.5 6.95 66.5 7.25 L66.3 7.8 66.05 8.15 64.2 8.4 62.75 8.15 62.65 7.05 62.65 6.65 62.65 6.7 61.5 7.3 Q60.7 7.8 60.25 8.35 L59.55 9.7 Q58.9 10.5 56.75 10.5 L55.6 10.2 55.2 9.95 55.0 10.15 Q55.35 10.8 54.95 11.25 54.45 11.8 52.95 11.95 53.6 12.65 52.0 13.3 L50.7 14.3 Q50.15 14.8 48.35 14.8 47.6 14.8 47.0 14.4 46.45 14.05 46.45 13.55 L46.55 13.0 46.6 12.7 Q44.65 12.85 44.2 12.4 44.0 12.2 44.05 11.35 41.8 11.3 41.35 10.7 L41.35 10.1 Q41.35 9.85 41.75 9.85 42.15 9.9 42.15 9.65 42.15 9.15 42.75 8.85 L43.95 8.5 43.7 8.15 42.45 8.35 41.55 8.35 40.05 8.55 38.7 8.75 37.65 8.55 36.65 8.15 35.7 8.8 35.8 9.0 36.6 8.85 37.5 9.35 37.3 9.8 36.45 9.9 35.2 10.05 33.6 10.45 32.65 10.75 31.55 10.45 30.65 9.9 29.05 10.45 27.9 10.8 Q27.05 10.8 26.55 10.45 L25.85 9.75 25.2 10.1 24.2 10.2 22.55 9.8 Q21.55 9.4 21.45 9.25 L21.45 9.4 Q19.75 10.6 18.65 10.6 L17.7 10.55 17.45 10.45 Q17.6 9.15 16.8 8.85 15.85 8.45 15.75 7.9 17.1 6.95 18.55 6.95 L20.25 7.25 Q21.65 7.65 21.65 8.3 L21.45 8.75 21.3 8.95 Q21.55 8.75 22.15 8.5 L22.75 8.25 22.6 8.15 22.1 8.05 Q21.75 7.85 21.75 7.5 L22.15 6.7 Q22.8 5.9 24.3 5.75 L24.15 5.05 24.55 4.55 24.3 4.6 Q23.1 4.9 22.5 4.6 L21.3 3.85 Q20.55 3.4 19.75 3.35 L17.85 2.95 14.35 4.6 15.3 4.7 16.4 5.0 15.5 6.35 Q14.2 7.9 13.1 7.9 L10.35 7.75 6.35 7.7 Q6.1 7.15 6.2 6.65 L6.35 6.1 5.35 5.85 2.2 6.6 1.3 6.35 0.95 6.25 1.55 6.7 1.85 7.25 Q-1.2 9.25 -2.1 9.25 L-2.9 9.1 Q-3.6 8.85 -3.6 8.25 L-3.4 7.85 -6.2 7.3 Q-7.9 6.8 -7.9 6.35 L-7.8 6.0 -7.7 6.1 -7.4 5.8 -6.65 5.7 -5.6 5.8 -4.95 5.8 -6.0 4.75 -6.95 4.85 -7.35 4.85 -7.25 5.45 Q-7.35 5.85 -8.55 5.85 L-9.25 5.8 -9.5 5.75 -9.75 5.2 -10.35 4.05 -11.05 3.1 -12.95 3.6 -14.3 3.35 -15.65 2.85 -15.95 3.4 -16.6 3.95 -17.35 3.7 -18.5 3.45 -19.7 3.7 -20.9 3.95 -22.5 3.65 Q-23.25 3.35 -23.25 2.9 -23.25 1.6 -20.2 1.6 L-19.45 1.85 Q-18.7 2.2 -18.1 2.65 L-17.85 2.4 -16.95 2.25 -16.2 2.35 -15.95 2.55 Q-15.7 1.65 -14.75 1.65 L-13.35 1.5 -11.95 1.35 -9.1 2.2 -5.65 3.05 -4.85 2.8 Q-4.55 2.55 -4.05 2.55 L-2.3 2.75 Q-0.6 3.15 -0.6 3.9 L-1.0 4.3 -1.95 4.85 -0.4 5.0 1.3 5.5 1.65 5.35 Q0.6 4.6 1.15 3.85 1.7 3.15 3.45 3.15 L5.6 3.65 7.4 4.2 8.15 3.95 Q8.4 3.7 8.9 3.7 L10.75 4.3 12.55 3.1 Q14.0 1.9 15.1 1.9 L16.95 1.95 17.75 1.8 18.9 1.6 20.95 2.2 22.6 2.2 22.7 1.25 Q22.85 0.65 24.3 0.65 26.45 1.25 28.2 2.3 29.8 3.25 29.8 3.7 L29.0 4.3 Q28.15 4.65 28.15 4.85 L28.3 5.5 28.3 6.0 26.8 6.15 24.9 6.0 Q25.9 6.75 25.9 7.45 25.9 7.75 25.15 8.05 L24.2 8.35 25.3 8.85 26.0 9.55 26.8 9.25 Q26.8 8.55 29.6 7.95 30.6 7.75 31.95 6.85 33.05 6.1 34.15 6.1 L35.55 6.5 36.4 6.9 Q36.5 5.55 38.15 5.55 L40.6 5.8 42.6 6.3 45.5 6.8 Q47.9 7.4 47.9 8.2 L47.6 8.75 Q47.35 8.95 47.45 9.1 L47.65 9.0 48.95 8.6 49.85 8.45 Q51.05 8.45 51.75 9.3 L53.35 8.05 Q55.2 6.8 56.4 6.8 L57.3 6.95 57.75 6.95 Q57.7 6.05 58.25 5.55 58.75 5.1 59.6 5.1 61.25 5.1 62.75 5.75 M96.45 14.5 L96.8 14.7 96.9 14.55 96.6 14.5 96.45 14.5 M86.25 15.35 L87.1 15.2 Q86.8 14.85 86.85 14.4 L86.95 14.05 86.3 14.1 83.95 14.4 82.4 15.15 83.35 15.35 Q84.85 14.75 85.3 14.75 85.95 14.75 86.1 15.0 L86.25 15.35 M92.1 6.25 L91.35 7.1 90.35 7.7 89.0 7.95 87.55 8.1 86.85 8.55 85.5 8.9 84.0 8.45 83.0 7.65 81.25 7.15 Q80.1 6.75 80.25 6.25 L78.0 6.5 75.25 6.7 75.6 7.05 Q76.7 7.3 77.25 7.7 77.65 7.95 77.65 8.25 L77.55 8.6 77.4 8.75 75.8 8.9 73.45 8.25 71.85 7.6 Q71.35 7.6 71.05 7.85 L70.2 8.05 67.9 7.4 Q66.1 6.65 66.1 5.9 L66.3 5.45 66.45 5.35 68.7 5.2 71.25 5.9 72.05 5.85 72.45 5.75 Q71.3 5.3 71.3 4.7 L71.5 4.2 71.65 3.9 73.75 3.75 76.45 4.2 78.2 4.45 79.15 4.35 79.9 4.2 Q80.0 3.45 82.15 2.55 84.0 1.8 84.75 1.8 L85.55 1.95 85.75 2.05 86.05 2.8 84.55 3.75 86.65 4.35 Q88.3 4.75 88.3 5.45 88.3 5.95 88.0 5.95 L89.45 6.1 89.8 5.9 90.7 5.7 92.1 6.25 M97.5 4.4 L100.35 4.55 Q101.8 4.6 101.8 5.35 L100.75 6.05 102.85 6.9 101.2 7.9 100.4 8.2 99.7 7.95 98.95 7.7 Q98.4 7.7 97.6 8.15 L96.45 8.55 95.5 8.5 95.25 8.4 Q94.9 6.35 95.1 5.4 L94.75 5.4 94.2 5.75 92.85 5.9 Q91.85 5.9 91.3 5.15 90.85 4.65 90.85 4.15 90.85 3.85 91.4 3.55 92.05 3.15 93.0 3.15 94.4 3.15 95.3 3.6 96.55 4.2 97.5 4.4 M107.0 12.85 Q107.8 13.2 107.8 13.8 107.8 14.35 107.2 14.6 106.5 14.95 106.3 15.85 106.15 16.5 104.15 17.3 102.25 18.1 101.05 18.1 100.45 18.1 99.0 16.9 L97.15 15.45 96.3 16.1 94.6 16.45 Q92.65 16.45 92.5 14.95 L91.5 14.9 88.55 15.75 89.05 16.4 89.3 16.95 Q89.3 17.5 87.25 17.9 L84.65 18.2 83.3 18.0 Q82.15 17.4 81.45 17.15 L81.2 16.6 79.75 16.45 Q78.3 16.65 77.6 15.9 77.15 15.4 77.15 15.0 77.15 14.65 77.4 14.5 L77.45 14.45 74.0 14.95 73.1 14.85 72.95 14.75 Q73.4 16.05 71.8 16.4 70.75 16.6 68.35 16.45 69.05 16.8 68.75 17.15 68.55 17.4 67.35 17.8 L65.7 18.55 63.85 18.9 61.55 18.35 Q59.85 17.6 59.85 16.75 59.85 16.45 60.1 16.3 L60.3 16.1 62.5 16.0 63.85 16.3 Q64.45 16.7 64.8 16.75 65.4 16.0 66.5 15.55 L65.9 15.35 65.4 15.65 64.15 15.8 Q63.65 15.8 63.45 15.6 L62.75 15.4 62.2 15.6 Q62.15 15.8 61.65 15.8 61.15 15.8 60.7 15.45 L60.05 14.9 Q60.55 14.55 61.9 14.15 L64.55 13.7 67.2 13.35 68.5 13.75 69.35 14.15 70.6 14.05 71.85 14.0 70.7 12.8 Q70.7 12.3 71.65 11.95 L73.0 11.65 74.85 12.5 75.95 12.3 76.65 12.15 Q77.05 12.1 78.8 13.0 L79.5 12.85 Q79.65 12.6 80.15 12.6 L81.2 12.8 82.4 13.6 Q82.05 12.95 82.8 12.6 L84.3 12.35 85.75 12.2 87.2 12.1 88.45 12.4 89.1 12.85 88.3 13.55 87.9 13.75 91.45 13.3 Q93.8 13.05 93.55 14.5 L94.65 14.1 Q94.35 13.75 94.35 13.2 L94.4 12.45 94.8 12.4 95.95 12.3 97.75 12.55 99.55 13.1 99.95 12.55 Q100.1 12.4 100.8 12.15 L101.45 12.5 101.6 12.55 101.7 12.95 100.55 13.55 Q99.8 13.1 99.9 13.4 L100.05 14.05 Q101.0 14.05 101.7 14.45 L103.85 13.8 104.8 13.15 Q105.45 12.6 106.05 12.6 L107.0 12.85 M102.65 8.9 L101.85 9.05 101.1 8.9 100.75 8.5 Q100.75 8.25 101.1 8.1 L101.85 7.9 102.65 8.1 102.95 8.5 102.65 8.9 M108.7 4.75 L108.05 5.5 Q107.1 6.2 105.25 6.2 L104.3 6.1 103.6 6.0 103.35 5.6 103.15 5.1 103.6 4.35 104.0 3.95 103.6 3.6 Q103.45 3.5 103.45 3.2 103.45 2.85 103.6 2.85 L103.75 2.85 105.15 2.75 Q105.7 2.75 107.2 3.55 108.7 4.35 108.7 4.75 M112.05 9.15 L112.35 9.75 111.5 10.5 109.3 10.95 Q105.25 9.45 105.25 8.5 105.25 7.75 106.1 6.9 107.2 5.85 109.0 5.85 L110.45 6.75 110.9 6.5 111.8 6.35 113.15 6.55 Q114.2 6.9 114.2 7.65 L113.65 8.3 Q112.8 8.85 111.4 8.8 L112.05 9.15 M138.95 2.55 Q138.95 2.85 137.6 3.2 136.2 3.55 136.2 3.8 L136.6 4.15 Q136.5 4.55 134.05 5.4 132.65 5.9 132.6 6.75 132.55 7.25 130.4 7.25 L129.45 7.1 128.8 6.7 128.05 7.15 127.35 7.7 126.2 8.75 125.1 9.1 124.2 9.05 123.75 9.0 Q123.55 8.95 123.55 8.4 123.55 8.1 123.8 7.9 L124.0 7.7 121.7 7.55 120.5 7.05 119.65 7.45 118.15 7.75 116.85 7.4 116.3 7.05 114.9 7.2 Q113.55 7.15 113.55 6.15 113.55 5.15 115.35 4.8 L117.9 4.7 Q118.35 4.7 119.15 5.2 L120.05 5.9 120.65 5.8 120.2 5.5 Q119.9 5.3 119.9 4.95 L120.1 4.6 120.65 4.45 120.75 4.4 121.6 4.35 Q122.65 4.35 124.1 5.7 L124.9 5.0 Q125.4 4.55 126.3 4.55 L129.25 5.4 Q130.6 5.4 131.05 4.85 131.6 4.1 132.85 3.75 132.05 3.2 130.3 2.75 129.4 2.45 129.4 1.5 129.4 0.8 130.7 0.35 L132.7 0.0 Q133.55 0.0 134.05 0.7 134.6 1.45 136.2 1.5 138.95 1.9 138.95 2.55 M139.25 4.35 L138.35 4.25 138.05 4.05 Q138.7 3.1 139.2 3.1 L140.15 2.85 141.1 2.65 Q142.15 2.65 142.3 3.35 142.45 4.05 141.2 4.05 L140.25 4.25 139.25 4.35 M157.9 15.85 L158.4 15.55 Q158.5 15.0 158.05 15.25 157.55 15.45 157.55 15.6 157.55 16.1 157.9 15.85 M143.8 6.1 L144.5 6.1 143.5 5.85 142.8 5.9 143.8 6.1 M167.25 16.35 L167.25 16.3 166.95 16.2 167.25 16.35 M173.5 7.9 L175.0 7.8 175.75 7.65 174.1 7.4 173.7 7.5 173.5 7.9 M183.05 18.15 L183.3 17.9 183.05 17.9 183.05 18.15 M190.6 17.55 L190.05 18.2 Q189.25 18.8 188.1 19.05 L186.35 19.55 184.7 19.75 184.15 19.75 182.6 20.1 Q183.35 20.9 183.35 21.85 L182.75 22.4 181.1 22.85 179.5 22.5 Q178.35 22.1 178.35 21.3 178.35 20.65 179.15 20.35 L180.55 19.95 180.05 19.5 179.35 18.8 177.65 19.15 178.9 20.1 Q178.9 20.6 176.1 21.1 L176.5 21.25 177.6 21.6 Q178.3 21.8 178.3 22.1 173.95 24.45 172.95 24.45 L172.1 24.4 171.55 24.3 171.25 23.1 Q171.25 22.65 172.9 21.8 174.55 20.95 175.4 20.95 L175.05 20.75 174.55 20.25 Q174.25 19.9 173.1 19.9 L170.7 20.2 169.9 20.85 Q169.45 21.35 168.45 21.35 L167.4 21.25 166.75 21.15 166.45 19.95 Q168.7 19.0 167.75 19.25 L166.75 18.8 166.3 18.6 164.8 18.95 163.25 19.3 Q161.65 19.4 161.6 18.3 L162.95 17.2 161.5 16.85 160.55 17.55 Q159.85 17.95 159.0 17.95 157.8 17.95 157.2 17.15 156.65 16.35 155.85 16.35 L155.15 16.55 Q154.3 16.55 153.1 15.65 L151.4 16.15 150.35 16.5 Q149.35 16.5 148.9 16.0 148.4 15.4 147.5 15.25 L147.25 15.4 147.95 15.6 Q148.45 15.8 148.45 16.05 L148.2 16.6 147.95 16.9 Q144.95 16.9 144.6 17.9 144.25 18.85 142.4 18.85 L141.2 18.9 Q140.15 19.1 140.15 19.55 140.15 19.85 140.65 20.0 141.1 20.1 141.1 20.4 140.8 21.65 138.35 21.65 L137.15 21.4 Q136.05 21.0 136.05 20.05 136.05 19.75 136.45 19.75 L136.8 19.45 Q136.8 19.1 136.5 18.9 L136.0 18.6 Q132.05 18.9 131.95 18.15 132.55 17.3 132.25 17.3 L130.45 17.0 Q129.9 16.75 129.5 15.9 L128.55 16.05 Q128.85 17.1 127.15 17.3 L124.85 17.4 123.15 17.3 Q123.35 17.7 122.75 18.05 L123.15 18.0 124.35 18.3 Q124.85 18.55 124.85 18.95 L124.35 19.6 123.15 19.9 121.95 19.6 Q121.45 19.3 121.45 18.95 121.45 18.6 121.8 18.4 L121.05 18.5 120.2 18.4 119.7 18.1 117.3 19.05 115.4 19.55 Q114.9 19.55 114.9 19.2 114.9 18.85 114.4 18.85 L111.15 19.05 Q110.3 18.95 110.8 17.55 L109.35 17.7 Q109.4 18.25 108.9 18.7 108.2 19.35 106.6 19.35 L104.9 18.95 103.7 18.45 Q104.95 17.25 107.4 16.25 110.1 15.1 112.25 15.15 111.15 13.7 112.95 13.35 L115.05 13.2 Q118.05 13.2 118.05 14.5 118.05 15.0 118.7 15.6 L119.9 15.05 122.0 14.75 122.75 14.85 123.6 14.8 Q125.45 14.2 126.15 14.3 125.7 13.45 125.95 13.0 L126.3 12.95 127.4 12.9 Q127.9 12.9 128.0 13.15 128.05 13.35 128.55 13.35 L129.65 13.15 131.8 13.2 132.1 12.9 132.85 12.55 133.85 12.4 134.7 12.6 Q135.55 13.0 135.55 13.75 135.55 14.05 135.2 14.15 L134.75 14.3 Q134.55 14.45 134.5 14.9 L134.3 15.4 135.85 14.9 137.55 14.45 Q138.3 14.45 138.85 14.9 139.35 15.3 139.35 15.75 L137.55 17.05 140.55 16.7 Q140.25 16.05 140.35 15.4 140.65 14.25 142.8 14.25 L143.5 14.45 144.25 14.8 145.55 13.95 146.5 13.4 144.3 13.25 Q143.0 13.15 143.0 12.2 143.0 11.8 144.35 11.4 L146.75 11.05 149.1 10.8 Q150.1 10.8 149.85 11.1 L149.95 11.1 150.05 11.5 149.6 12.25 149.15 12.95 Q149.15 13.5 150.35 13.65 L153.95 12.05 Q155.45 12.5 155.45 13.05 155.45 13.55 153.6 13.65 L154.05 14.25 155.3 13.55 157.1 13.35 Q158.1 13.35 158.8 13.75 159.45 14.1 159.8 14.1 L161.0 13.95 161.9 13.95 Q162.8 14.35 162.65 14.85 L164.35 15.05 Q163.4 14.5 163.4 14.0 163.4 13.7 163.55 13.45 L163.7 13.35 164.4 13.25 165.1 13.2 Q166.15 13.2 166.9 13.65 L167.85 14.3 Q168.15 13.9 169.35 13.9 170.05 13.9 170.7 14.4 171.4 14.9 171.4 15.45 L170.9 16.15 Q170.1 16.7 168.6 16.7 L167.9 16.7 168.25 17.7 168.8 18.6 174.45 18.1 175.3 18.2 175.75 18.45 Q174.45 17.3 175.9 16.7 176.85 16.25 177.9 16.25 178.6 16.25 179.7 17.15 L179.85 17.05 Q180.2 16.2 181.2 15.8 L182.3 15.6 Q183.5 15.6 184.15 16.8 L185.05 16.35 186.15 16.2 188.7 16.3 Q190.6 16.55 190.6 17.55 M232.45 18.0 L232.35 17.75 232.2 17.7 231.85 17.9 232.45 18.0 M231.25 13.35 L230.85 13.55 231.0 13.55 231.25 13.35 M228.85 4.75 L228.7 5.5 230.3 5.6 Q232.15 4.85 233.15 4.15 L231.1 4.65 228.85 4.75 M236.05 5.3 Q235.3 5.55 234.8 6.0 L236.4 5.35 236.05 5.3 M260.35 7.0 L259.05 7.5 260.0 7.6 Q260.35 7.4 260.35 7.0 M293.55 13.45 L293.05 13.65 293.8 14.15 294.2 14.05 294.4 13.85 Q293.7 13.7 293.55 13.45 M290.3 14.25 L290.2 14.3 291.4 14.0 291.2 13.95 290.3 14.25 M287.2 5.15 L286.1 5.6 Q286.8 6.0 286.9 6.5 L287.2 6.55 287.8 6.35 Q287.3 5.9 287.2 5.15 M294.05 5.5 L293.7 5.9 292.1 6.2 Q291.05 6.2 290.75 7.2 290.5 8.2 289.05 8.2 L287.95 7.8 286.7 6.9 285.05 7.55 284.45 7.35 283.35 6.55 282.9 6.65 Q283.2 7.1 284.15 7.7 284.95 8.2 284.95 8.65 L284.55 9.15 Q284.0 9.65 283.0 9.65 L281.45 9.7 279.3 9.9 276.1 10.2 275.15 10.2 274.45 9.95 Q274.25 9.7 273.75 9.7 273.45 9.7 272.7 10.05 L270.9 10.3 Q269.85 10.3 269.05 9.7 L268.4 8.9 265.65 8.5 Q264.2 8.1 263.6 7.7 263.2 9.5 261.55 9.5 L260.95 9.45 260.05 10.55 259.65 10.3 Q259.35 10.05 258.8 10.05 L257.6 10.1 257.85 10.25 Q258.75 12.05 256.15 12.05 L255.0 11.95 Q254.0 11.7 254.0 10.95 L253.15 10.15 Q252.25 9.5 252.25 9.25 L252.7 8.95 Q252.8 8.8 251.0 7.9 L250.3 8.45 248.85 8.9 Q248.25 8.9 247.6 8.55 L246.85 8.15 Q245.55 8.15 244.9 9.05 244.25 9.95 242.4 9.95 L241.25 9.75 240.05 9.5 238.1 9.8 Q236.3 9.9 236.3 8.65 L236.5 8.2 236.7 7.95 238.65 7.9 238.65 6.7 238.55 6.65 237.8 6.75 237.75 7.45 Q237.45 7.95 236.35 7.95 L235.15 7.7 Q234.35 7.35 234.35 6.7 L234.45 6.25 232.45 6.9 231.6 6.8 231.15 6.7 230.65 6.9 229.65 7.05 Q229.05 7.05 228.5 6.7 L227.75 6.0 224.9 6.05 224.45 6.65 Q223.8 7.05 223.05 7.05 L222.2 6.95 221.9 6.8 Q221.5 6.9 220.95 7.15 L220.3 7.4 Q219.8 7.4 219.4 7.1 L218.9 6.5 217.35 7.35 216.0 7.9 217.35 8.65 217.0 9.05 215.5 9.35 214.7 8.7 Q214.75 8.5 215.1 8.25 215.45 8.05 215.65 7.95 L214.2 7.65 Q213.85 7.45 213.85 7.1 213.85 6.55 214.85 6.25 L216.25 6.0 Q215.65 5.2 215.8 4.75 L213.35 4.65 212.2 3.65 212.05 3.8 212.7 4.75 213.0 5.4 212.85 5.8 212.7 5.9 211.6 6.05 210.65 5.8 210.15 5.4 Q208.95 6.6 207.85 6.6 L206.7 6.4 205.95 6.3 Q207.45 7.4 205.45 7.95 L203.0 8.35 202.05 8.2 201.75 8.05 Q201.25 8.05 200.45 8.4 L199.75 8.7 198.55 8.65 197.7 8.5 Q196.65 8.65 195.75 9.15 L195.05 9.7 193.35 9.2 191.1 8.35 189.7 9.3 188.25 9.55 Q186.55 8.8 186.4 8.8 184.25 8.8 184.15 7.95 184.05 7.25 181.95 7.45 L183.45 8.55 184.55 9.05 Q185.75 9.5 186.2 9.9 L184.65 10.4 182.95 10.8 182.0 11.5 Q181.4 12.05 179.85 12.05 L178.85 11.95 178.15 11.85 Q177.75 11.4 177.75 10.9 177.75 10.55 178.75 10.2 L180.3 9.7 178.85 9.0 177.7 8.55 175.85 9.3 175.2 9.85 Q174.65 10.35 173.1 10.35 L172.0 10.05 171.5 9.65 Q171.55 9.0 172.15 8.6 172.45 8.45 172.9 8.25 L171.25 8.5 169.55 8.4 169.2 7.7 169.15 7.25 Q169.15 6.9 169.65 6.75 L170.1 6.7 169.7 6.7 169.4 6.8 167.0 7.3 165.8 7.25 164.75 7.15 164.2 6.15 165.4 4.95 165.25 5.1 161.4 5.3 161.95 5.8 162.2 6.45 Q162.2 7.25 159.35 7.2 L159.6 7.35 159.95 7.85 Q162.4 8.25 162.2 9.0 161.95 10.15 159.5 10.15 158.15 10.15 157.95 9.8 L156.7 8.75 Q155.15 8.1 154.3 7.45 L153.05 8.0 151.65 8.35 Q151.35 8.35 150.05 7.6 L150.55 7.1 Q150.95 6.8 151.05 6.8 L149.4 6.4 148.55 6.75 149.6 7.85 150.15 8.65 149.85 9.3 149.2 9.45 148.3 9.55 146.35 9.1 Q145.5 8.6 145.55 7.85 143.95 8.1 142.1 7.9 139.45 7.7 139.45 6.55 139.45 5.9 139.95 5.15 140.65 4.15 141.9 4.15 L142.45 4.35 Q142.45 4.55 142.95 4.55 L145.4 3.9 Q146.55 3.9 146.9 4.3 L147.35 5.05 149.95 4.3 Q152.15 3.55 153.1 3.55 154.1 3.55 154.75 4.35 L155.65 5.6 157.2 5.35 158.25 5.35 Q158.2 4.55 159.45 3.9 160.5 3.35 161.55 3.35 L162.25 3.55 162.95 3.75 164.3 3.55 Q165.5 3.55 165.5 4.55 L165.5 4.8 166.9 4.55 168.7 4.95 Q169.8 5.4 169.9 5.6 170.7 5.05 171.6 5.05 172.2 5.05 172.65 5.45 173.15 5.8 173.7 5.8 L175.9 5.55 Q176.75 5.5 176.7 6.65 L178.25 6.2 179.85 5.85 Q179.45 5.35 179.9 5.05 L180.8 4.8 Q182.05 4.8 183.4 5.4 184.45 5.85 185.0 6.3 L186.05 5.55 Q186.7 5.15 187.7 5.15 188.45 5.15 190.15 6.15 L191.8 7.05 195.3 6.8 Q195.3 6.3 195.65 5.95 195.9 5.75 196.55 5.45 L197.75 6.3 Q198.7 6.95 199.35 6.95 L202.35 6.3 201.4 6.0 200.9 5.35 202.4 4.8 203.55 4.2 204.35 3.55 Q204.85 3.2 205.4 3.2 205.9 3.2 207.3 3.9 L209.3 4.65 209.55 4.15 208.75 2.8 208.25 1.8 Q208.25 1.45 208.55 1.3 L208.85 1.25 209.3 1.1 210.05 1.1 Q211.15 1.1 212.35 1.85 L213.6 2.6 214.55 2.4 215.5 2.2 Q216.25 2.2 216.7 2.75 L217.2 3.95 Q218.7 3.85 219.75 4.35 L220.55 4.95 Q221.1 4.65 221.55 4.65 221.2 4.1 221.85 3.65 L223.1 3.35 224.15 3.55 Q224.65 3.85 224.75 4.25 L225.35 4.0 Q225.35 3.6 227.1 2.55 228.85 1.4 229.55 1.4 230.45 1.4 231.55 2.05 L233.4 3.1 Q234.95 2.3 235.6 2.3 L236.2 2.4 Q236.2 2.65 236.85 2.95 L237.3 2.45 238.3 2.2 Q239.95 2.2 240.9 3.45 L240.4 3.9 239.85 4.3 Q239.85 4.6 240.35 4.9 L240.8 5.5 240.45 6.1 240.0 6.5 241.05 6.7 241.8 6.95 242.0 6.8 241.7 6.4 241.8 5.9 244.8 5.5 248.35 5.2 Q249.8 5.2 250.95 5.8 L251.85 6.4 253.85 6.25 256.05 5.9 258.75 5.3 260.15 4.95 Q260.5 4.95 260.95 5.3 261.4 5.6 261.65 6.2 L263.35 5.55 Q264.1 5.55 265.2 6.2 L267.3 7.3 267.8 6.55 Q268.25 6.2 269.3 6.2 269.8 6.2 269.75 6.4 269.7 6.65 270.2 6.65 L272.95 7.05 273.3 6.7 273.4 6.2 273.55 5.75 Q273.55 5.45 272.75 5.3 L271.95 4.8 Q271.95 4.3 272.6 4.0 L274.35 3.75 Q275.3 3.75 275.45 4.15 L275.55 4.9 276.0 4.65 276.1 4.6 277.05 4.45 278.25 4.65 Q279.35 5.0 279.35 5.75 279.35 6.15 278.3 6.55 L279.15 6.7 279.65 6.25 280.65 6.0 Q281.5 6.0 282.1 5.05 L282.55 3.75 284.5 3.6 286.05 3.9 Q286.55 4.05 287.55 4.7 L289.6 4.15 290.2 4.35 290.8 4.6 293.1 4.55 Q294.05 4.65 294.05 5.5 M304.6 15.25 L305.25 15.2 305.3 15.05 305.9 14.9 304.1 14.4 302.4 14.15 301.5 14.35 300.85 14.5 300.85 14.8 303.65 15.05 304.6 15.25 M307.3 13.2 L307.7 13.8 307.9 14.2 308.8 15.0 309.25 15.65 Q309.25 15.9 307.95 16.3 306.6 16.7 306.6 17.65 L307.3 18.55 Q307.5 19.45 304.95 19.45 304.25 19.45 303.75 19.05 303.3 18.7 303.3 18.4 303.3 18.1 303.75 18.1 L304.2 17.75 303.7 17.3 303.15 17.25 Q301.05 17.6 300.1 16.8 299.55 16.3 299.55 15.55 L297.4 15.05 296.8 15.15 Q297.25 15.9 296.55 16.7 295.85 17.5 294.65 17.5 292.65 17.5 292.35 17.05 292.3 16.4 291.85 16.0 L291.8 16.45 Q291.65 16.9 290.85 16.9 L287.05 15.85 Q285.7 17.3 284.45 17.95 283.4 17.7 282.5 17.0 282.35 17.55 281.2 18.15 280.0 18.85 278.8 18.85 278.1 18.85 277.5 18.2 L277.0 17.55 276.1 16.8 275.35 16.35 274.9 16.55 Q274.6 16.6 274.6 16.9 274.6 17.9 273.85 18.35 L271.75 19.05 270.7 19.1 270.0 19.1 268.45 19.55 267.05 19.7 Q266.5 19.7 265.8 19.05 L265.15 18.4 263.95 18.4 261.9 17.9 261.6 18.35 260.7 18.55 259.55 18.75 258.35 18.9 256.9 18.7 255.7 18.5 Q254.9 18.55 254.1 19.0 L252.35 19.4 Q251.65 19.4 251.1 18.95 L250.65 18.35 250.85 17.25 250.75 16.9 Q250.6 16.75 250.6 16.45 L250.4 15.4 248.5 17.0 Q247.3 18.2 246.1 18.2 L245.4 17.7 244.65 17.15 241.65 17.35 Q242.8 18.1 240.95 18.7 L238.75 19.15 237.5 18.95 236.5 18.2 234.15 19.25 232.7 19.5 231.4 19.65 230.55 19.6 230.05 19.55 229.7 18.7 230.15 18.2 229.3 18.15 228.75 19.1 Q228.0 19.9 226.45 19.9 225.15 19.9 224.15 19.3 223.2 18.75 223.1 17.9 222.15 18.7 220.55 18.7 L219.8 18.6 219.5 18.35 218.75 18.8 217.9 18.9 Q217.35 18.9 216.15 18.2 215.5 19.3 212.3 19.85 L209.05 20.15 Q208.25 20.15 205.55 18.95 L202.9 17.75 201.35 17.9 199.7 18.05 197.1 18.25 195.0 18.3 Q191.35 18.3 191.35 16.8 L191.6 16.4 192.45 16.1 195.5 15.05 Q196.25 15.05 196.75 15.45 L197.3 16.0 197.55 15.9 Q198.05 14.15 200.45 14.15 201.8 14.15 202.65 15.05 L203.45 16.15 Q203.55 16.05 204.0 15.9 L205.25 15.7 Q206.55 15.7 206.9 16.7 207.3 17.75 210.15 18.1 210.5 17.25 212.45 16.6 214.05 16.05 215.15 16.05 215.45 16.05 216.05 16.55 L217.0 17.0 Q218.0 17.0 217.65 16.75 L218.25 16.85 219.15 17.05 219.9 16.9 219.95 16.75 219.4 15.95 Q218.85 15.45 218.65 15.45 L217.1 15.55 215.55 15.5 Q215.2 15.05 215.2 14.5 L217.2 13.25 Q219.25 12.1 219.6 12.1 L220.35 12.2 220.45 12.4 220.55 12.9 220.45 13.75 222.45 13.7 Q222.95 13.65 223.45 14.05 L224.7 15.0 Q225.5 15.65 225.5 16.1 225.5 16.55 225.1 16.75 L225.25 16.7 Q225.25 16.6 225.8 16.55 L226.3 16.55 226.85 16.4 227.15 16.05 226.9 15.65 226.65 15.3 Q226.55 14.7 227.45 13.85 L228.35 13.15 Q228.1 12.8 228.15 12.5 228.3 11.9 230.0 11.9 L230.85 12.0 231.25 12.05 231.4 12.25 231.55 12.85 231.5 13.15 232.25 13.05 Q233.2 13.05 234.25 13.6 235.35 14.15 235.35 14.75 235.35 16.0 232.8 15.75 L233.75 16.1 236.1 16.2 236.8 16.8 237.9 16.55 239.85 16.25 241.05 16.85 240.4 16.3 Q240.05 15.95 240.05 15.6 240.05 15.3 240.35 15.15 L240.6 15.05 239.45 14.7 Q239.1 14.55 239.1 14.15 239.1 13.85 240.0 13.55 240.85 13.2 241.45 13.2 L242.35 13.4 Q243.25 13.75 243.25 14.45 243.25 14.7 243.75 15.0 L244.2 15.6 244.05 16.0 244.15 16.1 245.85 15.9 Q245.65 15.2 245.85 14.6 246.2 13.45 248.35 13.45 248.95 13.45 249.65 13.8 250.5 14.2 250.4 14.8 L250.8 13.95 Q251.2 13.4 252.55 13.4 254.65 13.4 254.35 14.0 L253.65 14.75 254.05 15.35 254.4 15.95 Q254.4 16.45 254.0 16.6 L256.8 16.7 258.1 16.9 259.4 16.7 260.65 16.45 260.95 16.6 261.9 17.15 262.65 16.5 262.9 15.8 Q263.0 15.45 264.7 14.9 266.2 14.4 266.55 14.4 L267.4 14.45 267.8 14.55 267.95 14.75 268.1 15.3 267.6 15.7 Q266.5 16.15 265.75 16.55 L266.35 16.9 266.8 17.15 267.65 17.3 268.2 17.3 269.95 17.75 271.15 16.35 Q270.45 16.15 269.95 15.75 271.3 15.05 273.4 15.05 L274.45 15.25 274.95 15.6 275.9 14.75 276.1 14.65 Q276.85 14.25 277.6 14.25 278.2 14.25 278.7 14.85 L279.9 16.1 281.65 16.2 282.4 16.75 282.5 16.5 Q282.65 16.85 282.65 16.3 L282.3 15.9 281.9 15.4 282.1 14.9 282.3 14.55 284.35 14.4 286.0 14.6 287.45 14.9 288.05 14.4 Q287.1 14.0 287.1 13.45 287.1 12.5 288.2 12.4 L290.2 12.05 Q290.0 11.65 290.1 11.45 L290.3 11.2 291.0 11.15 291.95 11.3 292.75 11.45 Q293.6 11.5 294.15 12.0 L294.6 12.45 295.55 12.4 296.9 12.95 Q297.35 12.7 297.45 11.75 297.5 11.1 299.0 11.1 299.9 11.1 301.1 12.0 L302.5 11.6 303.35 11.4 Q303.65 11.4 305.25 12.15 306.85 12.85 307.3 13.2 M304.85 2.15 L305.75 2.35 Q306.4 2.7 306.4 3.5 L306.35 3.9 Q308.4 4.25 308.4 4.8 308.4 4.95 307.85 5.3 307.3 5.7 306.8 5.7 L306.2 5.6 306.1 5.4 305.7 5.8 305.1 6.0 304.75 6.6 Q304.4 7.1 303.25 7.1 301.9 7.1 300.6 6.05 L299.05 4.7 298.45 5.1 298.45 6.0 299.55 6.5 Q300.3 6.9 300.3 7.25 L300.2 7.6 300.1 7.7 298.7 7.85 297.05 7.55 Q296.5 7.45 296.4 7.05 L296.3 6.2 Q295.95 4.95 294.6 4.5 293.4 4.05 293.4 3.15 293.4 2.55 294.6 2.15 L296.7 1.85 Q297.3 1.85 297.9 2.3 L298.55 3.1 299.95 3.25 301.1 3.45 Q301.95 3.45 303.0 2.8 304.05 2.15 304.85 2.15 M343.25 16.0 L343.25 15.9 343.0 15.9 343.0 16.0 343.25 16.0 M342.65 14.6 L342.3 14.25 340.65 14.45 341.55 14.65 342.3 14.9 342.65 14.6 M326.6 17.25 Q326.65 17.0 325.6 17.0 324.25 16.95 323.5 16.35 L322.95 17.05 Q322.1 17.4 321.7 17.7 L322.3 18.45 Q322.6 18.25 324.6 17.75 L326.6 17.25 M335.55 5.75 L337.4 5.3 338.8 5.7 Q339.95 6.15 339.95 6.75 L339.45 7.2 Q338.95 7.35 338.95 7.6 L339.25 8.7 Q339.2 9.4 337.15 9.45 L338.0 9.9 339.65 10.1 Q340.05 10.2 340.05 10.65 L339.95 11.1 339.8 11.3 339.15 11.45 338.45 11.5 336.7 11.45 335.8 11.65 334.75 11.8 333.75 11.75 333.1 11.65 332.6 10.8 Q333.0 10.5 333.1 9.8 L333.35 8.75 Q335.05 8.6 335.7 8.75 L334.4 7.3 Q334.4 7.75 333.5 8.2 L332.2 8.65 Q331.15 8.9 330.35 9.3 L328.8 9.9 Q328.2 9.8 326.9 8.95 325.7 8.15 324.7 8.15 L322.65 8.85 319.6 9.45 318.85 9.3 318.1 9.05 317.25 9.55 315.8 10.05 Q314.2 10.05 313.4 9.45 L312.85 8.9 311.9 9.25 Q311.25 9.45 309.95 8.6 L308.8 7.45 Q308.2 6.7 308.2 6.0 308.2 5.75 310.2 4.95 309.4 4.6 309.65 3.75 L312.25 3.65 Q314.1 3.65 315.65 4.6 317.05 5.45 317.05 6.2 L317.05 6.5 318.8 6.7 319.3 6.4 318.5 5.5 317.85 4.85 Q317.85 4.5 318.3 4.1 318.95 3.55 320.25 3.55 L321.35 3.8 Q322.45 4.2 322.45 4.9 L322.3 5.45 Q322.25 5.7 322.55 5.85 L322.95 6.1 323.1 6.55 Q323.1 7.05 323.75 7.0 L324.35 6.4 325.55 6.15 327.0 6.6 329.15 7.0 331.0 6.25 332.45 6.5 333.9 6.9 Q334.4 6.25 335.55 5.75 M343.65 5.8 L342.8 5.85 344.35 6.8 343.65 5.8 M348.55 16.6 L347.45 16.35 346.85 16.1 347.6 16.9 348.55 16.6 M350.35 16.55 L349.8 16.5 348.65 16.6 349.25 16.75 350.35 16.55 M352.5 13.3 L354.1 13.9 354.1 16.8 352.6 16.0 Q352.9 16.35 352.6 16.35 L352.5 16.3 Q352.35 16.3 352.35 16.6 352.35 17.35 351.35 18.1 350.15 19.1 348.3 19.1 L347.0 18.95 345.8 18.85 Q347.6 19.8 347.6 20.2 347.6 21.1 345.85 21.2 342.8 20.3 342.8 19.25 342.8 18.9 343.1 18.7 343.2 18.6 343.65 18.45 L341.8 17.25 Q340.2 18.0 338.95 17.0 L338.25 17.05 338.45 17.25 Q339.0 17.25 339.0 18.1 337.85 19.7 336.5 19.7 335.4 19.7 334.55 19.15 L333.7 18.4 331.8 19.5 330.55 19.9 Q329.75 19.9 329.15 18.9 L326.1 19.7 323.45 20.15 Q323.0 20.15 322.5 19.85 321.9 19.4 322.05 18.8 L320.3 19.3 319.1 19.35 318.25 19.2 318.05 18.9 318.45 18.4 318.8 17.95 Q316.85 18.0 315.1 18.75 313.4 19.5 312.2 19.5 L310.8 19.25 Q309.95 18.9 309.95 18.2 L308.6 18.45 307.55 17.95 Q307.75 17.4 310.15 16.4 312.4 15.5 313.2 15.5 314.15 15.5 314.55 16.0 L315.0 16.7 Q315.5 16.05 316.55 15.7 L317.6 15.4 318.35 15.5 Q319.1 15.65 319.4 16.05 L319.6 14.9 321.8 14.65 Q322.7 14.65 324.1 15.7 L327.45 14.8 Q326.1 14.2 326.1 13.95 L326.3 13.35 326.5 12.95 328.25 12.8 Q329.9 13.25 331.0 14.1 332.25 15.15 332.25 16.35 L332.0 16.9 Q331.75 17.1 331.9 17.3 L335.6 15.35 Q335.0 14.6 335.05 13.9 335.25 12.5 338.8 12.5 L340.75 12.3 344.0 11.75 345.4 12.15 Q346.15 12.55 346.15 13.2 L345.85 13.55 Q345.55 13.6 345.55 13.8 L346.0 14.1 346.45 14.65 346.2 15.2 Q346.05 15.35 346.25 15.45 346.95 15.0 348.6 14.55 L350.65 14.1 351.55 14.15 Q351.45 13.95 352.5 13.3 M353.45 4.45 L354.1 4.05 354.1 6.3 353.6 6.35 352.15 6.0 Q351.35 5.5 350.6 5.35 L350.2 5.75 350.35 5.8 Q350.55 5.95 351.3 6.3 L352.3 6.8 351.85 7.1 351.55 7.2 350.9 7.3 348.95 7.2 347.45 7.3 345.8 7.45 346.25 8.65 Q346.45 9.4 345.0 9.6 344.3 9.4 343.45 8.75 L342.45 8.0 340.9 7.4 Q340.15 7.1 340.15 6.65 340.15 6.2 341.0 5.95 L342.3 5.75 Q342.05 5.6 341.95 5.25 341.9 4.9 342.1 4.6 L343.8 4.45 Q344.45 4.65 344.45 4.85 L346.4 4.85 347.2 3.9 Q347.8 3.45 348.8 3.45 349.3 3.45 349.35 3.7 349.35 3.95 349.85 3.95 L350.9 3.8 Q352.1 3.8 353.45 4.45" fill="#ffffff" fill-rule="evenodd" stroke="none"/>
  </g>
</svg>
