<?xml version="1.0" encoding="UTF-8" standalone="no"?>
<svg xmlns:ffdec="https://www.free-decompiler.com/flash" xmlns:xlink="http://www.w3.org/1999/xlink" ffdec:objectType="shape" height="22.35px" width="708.15px" xmlns="http://www.w3.org/2000/svg">
  <g transform="matrix(1.0, 0.0, 0.0, 1.0, 354.05, 0.0)">
    <path d="M354.1 2.7 L354.1 7.1 353.9 7.05 353.8 7.0 354.1 7.4 354.1 9.7 353.3 9.8 351.7 9.45 Q350.75 9.1 350.75 8.75 L350.6 8.25 350.2 8.05 350.1 8.1 Q350.35 9.35 349.4 9.65 L348.05 9.7 346.0 9.05 342.95 10.8 Q340.8 12.1 340.65 13.25 L342.45 13.45 343.65 13.85 Q344.65 13.85 344.7 13.45 L344.55 12.35 Q344.7 11.55 345.95 11.45 348.0 11.95 348.8 13.25 L349.15 14.1 Q349.85 14.95 351.75 14.95 L352.6 14.75 Q352.9 14.5 353.4 14.5 L354.1 14.75 354.1 16.25 353.7 16.35 353.55 16.85 354.1 17.0 354.1 19.25 351.95 19.55 350.85 19.35 350.2 19.15 348.7 19.05 347.8 19.1 Q345.6 18.6 345.6 17.4 L344.6 16.8 344.45 17.6 Q344.1 18.15 342.85 18.15 L341.35 17.95 Q339.95 17.6 339.95 16.75 339.95 16.45 340.4 16.35 L340.85 16.0 Q340.85 15.45 340.45 15.25 339.85 14.95 339.5 14.15 L339.8 13.6 339.0 13.65 338.35 13.45 337.75 14.2 337.1 14.6 Q337.9 14.2 337.4 13.8 336.95 13.45 336.25 13.45 L334.8 13.65 333.3 14.0 Q331.5 14.35 331.3 15.05 331.2 15.4 331.4 15.85 L331.05 15.8 Q330.5 15.0 330.95 14.1 L330.0 15.35 Q329.6 15.75 327.25 15.75 L325.15 14.8 324.35 14.9 324.0 15.0 Q323.65 16.55 321.85 16.55 321.35 16.55 321.2 16.3 321.0 16.05 320.5 16.05 L319.1 16.25 317.65 16.45 Q316.8 16.45 315.95 15.8 L315.25 15.15 314.25 16.3 Q313.45 16.8 311.7 16.8 L310.55 16.55 309.35 16.3 308.3 16.4 307.7 16.4 Q307.85 17.35 306.55 17.6 L304.5 17.65 303.15 17.35 301.8 17.05 298.7 16.75 Q298.9 16.85 298.9 17.3 L298.85 17.9 296.8 18.0 295.35 17.75 293.9 17.5 292.55 17.6 291.0 17.6 290.8 16.6 291.0 16.1 291.5 15.7 291.25 15.7 Q290.4 16.4 288.15 16.4 287.25 16.4 286.45 15.4 L286.0 15.6 Q285.75 15.7 285.0 16.55 284.45 17.25 283.7 17.25 283.2 17.25 283.2 17.0 L282.65 16.8 280.6 17.2 279.15 17.55 Q278.55 17.55 277.25 16.85 L280.25 14.45 278.6 15.05 276.4 15.7 Q276.9 16.15 276.3 16.75 L276.1 16.95 Q275.4 17.4 273.8 17.4 L271.85 16.95 270.2 16.35 Q269.9 16.75 269.9 17.6 269.65 18.25 268.2 18.25 267.1 18.25 266.65 17.7 L265.85 17.05 263.75 16.75 Q262.75 16.55 262.75 15.8 262.75 15.5 263.1 15.3 L263.45 15.2 262.8 14.6 Q262.5 13.8 262.5 13.25 262.5 12.7 263.05 12.2 263.8 11.6 265.3 11.6 L268.05 12.4 Q270.4 13.25 270.4 13.8 270.4 14.25 269.45 14.5 L267.2 15.25 267.8 15.65 268.55 15.65 269.6 15.75 Q270.35 14.4 272.05 14.4 L272.95 14.55 273.4 14.6 Q273.5 14.05 274.25 13.45 275.0 12.8 276.1 12.6 L277.15 12.5 277.85 12.7 278.55 12.9 279.25 12.6 Q279.95 12.5 281.3 13.4 L282.45 13.55 283.7 13.95 285.1 13.0 Q285.6 12.6 286.3 12.6 L287.05 12.7 287.2 12.85 287.3 14.1 Q287.3 13.95 287.95 13.8 L289.3 13.7 290.85 13.75 292.0 13.8 293.2 13.6 294.4 13.4 Q295.15 13.4 295.6 13.8 296.0 14.15 296.0 14.45 L295.5 14.8 294.75 15.05 295.45 15.55 Q297.0 14.7 299.1 14.45 299.75 14.45 300.75 15.05 301.75 15.65 302.3 15.65 L305.75 15.85 304.25 14.9 Q303.5 14.1 303.5 13.65 303.5 13.3 304.2 12.95 L305.5 12.65 Q306.0 12.65 306.3 13.0 306.6 13.35 307.1 13.35 L309.95 13.15 310.15 13.35 310.3 13.95 309.95 14.55 Q309.65 14.85 309.7 14.9 L309.95 14.75 311.45 14.6 312.25 14.55 311.7 14.45 Q311.3 14.3 311.3 13.95 L312.1 13.25 Q313.1 12.6 313.9 12.6 L315.15 12.4 316.4 12.15 Q317.3 12.15 318.35 13.4 318.85 12.6 319.1 12.45 319.8 11.95 321.35 11.85 L322.15 11.95 322.85 11.85 323.8 11.1 Q324.15 10.7 325.2 10.45 L326.8 10.15 Q328.5 10.15 329.35 11.65 330.55 11.1 331.8 11.1 332.3 11.1 332.5 11.35 332.7 11.55 333.2 11.55 L335.0 11.65 Q335.65 11.85 335.65 12.6 L335.65 12.85 337.0 12.65 Q337.55 12.75 338.0 13.15 L338.0 12.85 336.9 11.7 Q335.8 10.8 335.8 10.5 335.8 10.2 336.85 9.85 L339.3 9.2 Q340.7 8.85 341.05 8.15 341.4 7.45 342.45 7.15 L342.2 7.05 341.1 7.6 339.4 7.8 338.05 7.55 Q336.8 7.2 336.8 6.55 L338.1 5.4 336.85 5.8 335.0 6.1 334.15 5.95 334.05 5.8 332.85 7.0 Q332.85 7.3 333.35 7.6 L333.85 8.2 333.4 8.8 330.6 9.3 Q328.9 9.3 328.65 8.25 328.4 6.95 327.95 6.75 326.8 7.3 325.85 7.3 L323.4 7.5 Q322.95 7.5 321.7 6.75 320.4 6.0 320.0 6.0 L318.05 6.65 320.0 8.15 319.6 8.6 318.1 8.9 316.05 8.25 315.3 8.45 314.1 8.5 312.55 8.0 310.8 7.8 308.85 8.25 306.65 8.7 305.2 7.8 306.05 7.55 306.6 7.15 306.3 6.55 306.0 6.15 304.55 6.1 Q303.6 5.95 303.6 5.3 L303.8 4.7 304.0 4.35 301.1 5.3 Q294.75 8.05 293.5 8.05 L292.75 7.85 292.7 7.6 Q292.55 7.65 292.55 7.1 L292.75 6.7 293.2 6.55 292.05 6.45 291.0 6.05 Q290.6 6.9 289.5 6.9 L288.55 6.75 287.9 6.65 287.9 6.2 Q285.95 7.3 284.55 7.3 L281.7 7.1 281.45 6.3 282.3 5.35 Q281.4 5.25 280.85 4.7 280.1 5.6 279.0 5.75 L276.95 5.6 Q277.3 6.35 276.1 6.95 L275.9 7.05 271.95 7.7 271.2 7.55 270.9 7.3 Q270.7 7.35 270.7 6.8 270.7 6.3 272.9 5.7 L275.95 5.2 275.65 5.05 274.8 4.4 Q273.9 3.9 273.3 3.9 L272.7 4.0 272.8 4.05 Q272.45 4.75 271.5 5.1 L270.2 5.4 269.3 5.35 269.1 5.3 268.85 4.4 269.35 3.8 Q268.4 4.45 267.15 4.5 L265.75 4.4 265.6 4.75 Q266.1 5.6 265.95 5.95 L265.7 6.95 Q265.75 7.65 265.05 8.1 264.4 8.55 263.65 8.55 263.05 8.55 262.5 8.0 262.0 7.5 262.0 6.95 L262.05 5.6 Q262.05 6.0 260.1 6.0 L259.4 5.8 Q259.15 5.55 258.65 5.55 L257.85 5.7 257.6 5.85 258.5 6.4 258.8 6.9 258.25 7.35 257.7 7.6 Q257.7 8.55 254.35 8.55 L253.4 8.5 252.7 8.4 252.4 7.4 253.15 6.8 252.25 6.45 251.0 6.15 250.25 6.25 250.25 6.4 Q250.0 6.4 249.55 6.05 249.15 5.75 248.6 5.75 L247.7 5.85 Q247.05 5.85 245.6 5.05 L245.35 5.6 245.95 5.8 Q246.3 6.0 246.3 6.35 L245.35 7.0 244.4 7.35 Q244.4 8.65 242.5 8.65 L241.6 8.6 241.05 8.5 240.7 7.35 Q240.7 6.75 241.75 6.6 242.75 6.45 241.4 5.15 L240.35 5.35 Q239.0 5.9 238.05 5.75 L236.05 6.7 234.2 7.05 232.8 6.75 Q232.25 6.2 231.7 6.0 L231.35 6.3 Q231.0 6.55 231.0 6.85 L231.4 7.7 Q231.45 8.5 229.75 8.5 228.0 8.45 228.0 7.45 L227.9 6.85 227.75 6.65 227.15 7.05 226.3 7.15 Q225.35 7.15 224.9 6.45 224.75 6.6 224.35 7.7 223.7 8.75 222.1 8.75 L221.15 8.7 220.95 8.6 220.5 7.65 221.95 5.35 Q222.75 4.9 224.75 4.2 L227.25 3.4 229.15 3.8 230.5 4.4 Q229.9 3.1 231.9 2.6 L234.1 2.4 236.4 3.6 Q236.4 4.0 237.05 4.75 L238.05 5.75 238.75 5.3 239.05 4.8 Q239.55 5.15 240.35 5.35 L240.95 4.65 241.4 5.15 242.15 4.85 242.45 4.3 242.2 3.85 241.95 3.7 240.7 3.65 Q241.75 2.9 242.55 2.65 L244.0 2.4 245.6 3.0 247.05 3.25 Q247.5 3.7 248.85 4.0 L250.65 3.6 Q251.65 3.4 252.8 2.6 L254.35 3.0 254.85 3.45 256.55 2.3 Q257.85 1.6 258.55 1.6 L259.95 1.85 260.75 2.6 Q261.45 3.25 261.85 3.35 L263.0 3.5 Q262.9 3.2 263.6 2.4 264.3 1.65 264.8 1.55 266.3 1.25 266.65 0.55 266.9 0.05 268.55 0.05 269.2 0.05 269.7 0.4 270.35 0.85 270.4 1.8 L271.75 1.5 Q271.2 0.65 271.95 0.25 L272.95 0.0 273.95 0.15 274.6 0.25 274.8 0.5 274.95 1.2 274.8 1.7 274.25 1.95 274.8 1.9 276.1 1.75 277.45 1.55 279.15 2.2 Q280.35 2.8 280.95 2.8 L282.65 2.65 Q283.9 2.7 283.85 3.75 L285.15 3.35 Q285.1 1.7 286.95 1.7 L288.3 2.55 288.2 3.35 288.5 3.0 290.55 2.65 Q291.2 2.65 291.8 3.0 L293.2 3.6 Q293.4 2.85 294.35 2.65 L296.2 2.45 Q297.8 2.25 297.95 1.6 298.05 1.05 299.3 1.05 L300.15 1.15 300.6 1.2 301.0 1.8 301.05 2.25 Q301.05 2.7 300.55 2.85 299.7 3.15 299.3 3.5 L300.5 3.6 301.4 3.5 Q302.05 3.5 302.05 3.15 301.85 2.85 301.95 2.55 302.15 1.9 303.5 1.9 305.45 1.9 306.05 3.15 306.05 3.6 304.1 4.3 305.4 4.15 306.7 4.3 306.25 3.9 307.1 3.6 L308.3 3.35 Q309.75 3.35 310.6 4.2 L311.4 5.35 311.65 5.2 Q313.15 4.6 315.7 3.85 318.4 3.0 319.15 3.0 319.7 3.0 320.95 3.8 322.6 4.8 324.7 5.5 326.55 2.8 331.05 2.8 L332.4 3.05 Q333.25 3.35 333.25 3.95 L333.05 4.9 333.9 4.95 Q333.15 4.2 334.0 3.85 L335.35 3.6 337.75 4.4 338.1 4.05 339.05 3.85 Q339.9 3.85 340.65 4.5 L341.7 5.1 342.6 4.9 344.6 6.2 345.9 6.9 347.95 7.0 350.8 6.55 Q350.6 5.45 352.95 5.2 352.85 4.8 352.35 4.15 L351.9 3.5 Q351.9 2.75 353.45 2.75 L354.1 2.7 M-335.15 16.5 L-334.55 16.3 -335.05 16.05 -335.15 16.5 M-338.3 1.9 Q-337.1 2.25 -336.4 2.7 L-335.9 3.15 Q-338.7 6.1 -339.6 6.1 L-340.55 5.95 -341.15 5.8 -341.3 4.75 -341.3 4.3 -342.1 4.55 -343.2 4.7 -343.55 5.5 -344.15 5.8 -345.05 5.9 -346.7 6.3 -349.7 6.7 Q-351.65 6.7 -351.95 6.25 -352.0 5.6 -352.3 5.2 L-353.4 6.25 -354.05 6.5 -354.05 3.15 -353.05 2.45 -352.15 1.95 -351.7 1.2 -350.85 0.4 -349.4 0.0 Q-347.3 0.0 -347.3 1.25 L-347.0 2.4 -346.25 2.95 Q-345.85 3.15 -345.7 3.9 L-345.35 3.8 -344.45 3.05 Q-343.75 2.65 -342.7 2.75 -343.55 1.9 -342.35 1.3 -341.4 0.85 -340.5 0.85 -339.95 0.85 -339.3 1.3 L-338.3 1.9 M-298.25 13.3 L-296.95 13.65 -294.95 13.35 Q-293.1 13.4 -293.1 14.85 L-293.5 15.2 Q-293.95 15.3 -293.95 15.6 L-294.35 16.2 -294.8 16.85 -294.65 17.4 Q-294.85 17.95 -296.45 17.95 L-297.2 17.85 -297.55 17.55 Q-297.7 17.7 -297.7 17.15 -297.15 17.1 -297.0 16.85 -296.7 16.45 -298.75 15.6 -299.35 16.5 -304.85 18.15 L-307.05 17.5 Q-308.95 16.75 -309.15 16.1 L-309.6 16.45 -310.65 16.6 Q-311.3 16.6 -312.05 16.2 -312.95 15.7 -313.1 14.9 L-313.7 14.95 Q-313.4 15.6 -313.45 15.75 -313.55 16.3 -314.95 16.4 L-316.7 15.75 Q-317.9 15.75 -318.55 16.2 -319.6 16.95 -320.75 17.35 L-323.55 17.9 Q-323.1 18.1 -324.1 19.0 -325.0 19.8 -326.05 19.9 L-326.35 19.9 -327.45 19.75 Q-328.4 19.45 -328.4 18.35 -328.4 18.1 -327.9 17.95 L-327.4 17.5 Q-327.4 17.25 -327.8 17.2 L-328.25 16.9 Q-328.25 16.65 -328.95 16.1 L-329.9 15.25 -330.25 15.6 -329.15 16.3 Q-328.45 16.6 -328.45 17.2 -328.45 17.5 -328.95 18.0 -329.65 18.75 -330.7 18.75 L-331.5 18.4 -332.15 18.0 Q-333.85 18.0 -334.45 18.75 -335.05 19.45 -337.0 19.45 L-337.75 19.4 -338.15 19.3 Q-337.9 18.2 -338.35 17.8 L-339.85 17.15 -340.1 17.55 -340.95 17.75 -341.9 17.6 -342.3 17.45 -342.35 16.8 Q-342.8 17.3 -343.95 17.4 L-344.75 17.4 -345.1 17.3 -346.15 17.1 Q-346.65 16.9 -346.65 16.55 -346.65 15.15 -347.65 15.15 L-350.5 15.5 Q-352.15 15.65 -353.0 14.5 L-353.35 14.8 -354.05 15.0 -354.05 12.8 -354.0 12.7 -354.05 12.65 -354.05 11.3 Q-350.6 11.8 -346.45 13.55 -344.2 14.5 -342.6 15.35 L-341.75 15.2 -339.35 15.7 Q-338.75 15.15 -337.75 14.85 L-336.45 14.65 Q-335.95 14.65 -335.5 15.15 L-335.05 15.7 -332.45 14.05 Q-330.85 13.15 -330.0 13.15 L-328.95 13.45 Q-328.4 13.85 -328.4 14.2 L-328.35 14.45 -328.1 14.55 -327.85 14.5 -326.65 14.7 -326.05 14.9 -325.7 14.95 -324.25 15.2 -322.8 15.4 -322.05 15.25 -322.0 15.05 Q-322.6 14.75 -322.4 14.5 L-321.45 13.85 -321.1 14.1 -320.3 14.3 Q-319.35 14.3 -318.35 13.45 -317.35 12.65 -316.1 12.65 L-313.85 12.75 -312.55 12.55 -311.0 12.35 Q-310.05 12.35 -309.3 12.7 L-308.2 13.35 -306.75 12.75 Q-306.45 12.75 -305.3 13.65 L-305.55 13.95 -306.0 14.1 -306.8 14.15 -307.5 14.1 -307.75 13.95 -309.05 16.05 Q-308.25 15.55 -307.3 15.55 L-305.5 15.6 -302.55 15.35 Q-302.7 14.6 -301.3 13.7 -300.1 12.9 -299.45 12.9 L-298.25 13.3 M-264.45 17.35 Q-265.05 16.8 -265.2 16.8 L-264.7 17.65 -264.45 17.35 M-276.35 16.4 Q-276.95 16.05 -276.95 15.55 -276.95 15.0 -276.35 14.65 -275.75 14.3 -274.9 14.3 -274.05 14.3 -273.45 14.65 -272.85 15.0 -272.85 15.55 -272.85 16.05 -273.45 16.4 L-274.9 16.75 -276.35 16.4 M-282.15 5.8 Q-282.15 6.15 -282.9 6.45 L-284.25 6.7 Q-285.4 6.7 -285.7 6.25 L-286.15 5.4 -286.6 5.6 Q-287.1 5.85 -287.1 6.15 L-286.8 7.05 Q-286.8 7.9 -288.35 7.9 L-289.05 7.7 Q-289.25 7.45 -289.75 7.45 L-290.55 7.85 -291.8 8.2 -294.0 7.7 Q-295.1 7.25 -296.0 7.3 L-297.15 7.35 -298.75 7.05 -297.4 6.15 -297.55 5.75 -300.0 5.75 -300.9 5.55 -302.95 5.9 -304.95 6.3 Q-305.2 6.3 -305.3 6.5 -305.4 6.8 -307.3 7.2 L-309.1 7.35 -310.7 7.5 Q-310.5 8.25 -311.05 8.85 -311.6 9.35 -312.35 9.35 L-313.3 9.25 Q-313.6 9.1 -313.7 9.1 L-314.6 9.4 -315.55 9.55 Q-316.75 9.55 -317.3 9.05 -317.7 8.75 -317.7 8.35 -317.7 8.1 -318.15 7.6 L-318.65 6.85 Q-318.65 6.4 -319.05 6.15 -319.5 5.85 -320.2 5.85 -320.3 5.85 -321.1 6.2 -322.15 6.25 -323.55 5.3 L-325.0 5.8 -324.35 6.15 Q-324.05 6.3 -324.05 6.65 L-324.3 7.2 -324.6 7.4 -325.5 7.55 -326.05 7.6 -326.35 7.6 -327.9 7.3 -329.15 6.95 Q-329.85 6.95 -332.55 8.15 -335.25 9.35 -336.0 9.35 -338.7 9.3 -338.7 8.35 -338.7 7.9 -339.45 7.75 -340.2 7.55 -340.2 6.95 L-340.0 6.4 -339.8 6.15 -338.2 6.1 -337.05 6.2 -336.5 6.25 Q-336.35 4.7 -334.35 4.7 L-333.3 4.9 -332.3 5.1 -331.6 5.0 -331.45 4.85 -332.65 4.1 Q-333.15 3.75 -333.15 3.25 -333.15 2.95 -331.6 2.45 L-329.9 2.0 Q-329.65 2.0 -329.2 2.3 -328.7 2.6 -328.7 3.0 L-328.2 3.8 -327.4 4.95 -326.05 4.15 -325.4 3.8 Q-323.25 2.7 -321.8 2.7 L-320.95 2.8 Q-320.95 3.15 -319.95 3.6 L-318.15 3.55 Q-317.05 3.55 -317.05 4.3 -317.05 4.85 -316.45 5.4 L-315.9 5.9 Q-315.9 6.35 -314.75 6.85 L-313.25 7.45 -312.7 7.2 -312.05 7.0 Q-313.1 6.05 -312.5 5.35 -312.0 4.7 -310.5 4.7 L-308.8 4.45 -307.15 4.2 -303.9 3.95 -303.2 3.3 Q-302.7 2.7 -301.3 2.7 -299.15 2.7 -298.6 3.35 L-297.4 4.45 Q-297.45 4.05 -296.6 3.65 -295.8 3.25 -294.95 3.25 -293.15 3.25 -292.05 4.25 L-291.2 3.95 -290.0 3.75 -288.8 4.05 -287.5 4.3 -284.55 4.4 Q-282.15 4.75 -282.15 5.8 M-249.5 14.15 L-249.6 14.05 -250.2 13.4 -250.0 13.8 -249.5 14.15 M-255.15 0.4 L-254.3 0.75 Q-253.8 1.05 -253.8 1.5 L-255.25 3.1 Q-255.25 3.6 -254.45 4.25 -253.7 4.9 -253.7 5.4 -253.7 5.8 -254.25 6.3 -255.05 7.05 -256.5 7.05 -257.85 7.05 -258.25 6.05 L-258.85 6.15 -261.4 7.35 Q-263.25 8.15 -263.4 8.3 L-264.0 8.65 -264.65 9.35 -265.75 9.95 -266.8 10.2 -268.1 10.1 Q-269.3 9.85 -269.3 9.0 -267.95 6.9 -267.95 6.65 -267.95 6.35 -269.1 6.15 -270.25 5.9 -270.25 5.3 L-270.05 4.85 -269.6 4.6 Q-270.6 4.5 -271.2 4.05 -271.5 4.4 -272.15 4.55 L-273.0 4.7 -274.35 4.4 -275.2 5.25 Q-276.15 5.95 -277.1 5.95 -278.75 5.95 -281.6 3.9 L-281.45 3.4 -281.3 3.1 -279.9 3.2 -279.35 3.25 Q-279.85 2.8 -278.65 2.55 L-277.25 2.35 -275.6 2.6 -273.95 2.8 -273.2 2.65 -273.2 2.55 Q-273.15 2.25 -273.35 1.85 L-273.6 1.2 -273.45 0.65 -273.35 0.5 -271.55 0.2 Q-270.7 0.6 -270.2 1.05 L-267.95 0.6 -266.9 0.75 -266.35 1.5 Q-266.6 1.9 -267.35 2.3 L-268.65 2.8 -268.0 3.45 -267.7 3.95 -265.4 4.15 Q-264.25 4.55 -264.25 4.95 -264.25 5.2 -264.7 5.3 -265.2 5.35 -265.2 5.6 -265.2 6.15 -264.85 5.9 -263.7 4.75 -261.45 4.55 -259.6 4.3 -259.3 3.3 L-260.5 2.9 -261.15 2.15 Q-261.15 1.85 -260.75 1.45 -260.1 0.8 -258.6 0.8 L-257.7 1.0 -255.15 0.4 M-235.85 12.8 Q-234.9 12.8 -234.2 13.3 L-233.45 14.0 -232.05 13.4 Q-231.05 13.4 -231.4 13.65 L-231.3 13.65 -231.2 14.05 -231.3 14.45 -231.65 14.55 -232.35 14.6 -233.1 14.4 Q-233.1 15.1 -234.15 15.4 -233.3 15.7 -232.9 16.1 L-232.65 16.55 Q-232.65 16.85 -232.8 16.95 L-232.95 17.1 -234.2 17.25 -235.9 17.45 -236.75 17.65 -237.45 17.6 -238.85 17.75 -240.75 18.4 -242.5 18.75 -243.1 18.55 -243.75 18.35 -243.95 18.4 -245.9 18.1 -247.45 17.65 -248.1 17.1 Q-248.1 16.7 -247.8 16.6 L-246.45 16.5 -244.8 16.45 -244.35 16.35 -244.65 16.35 Q-245.55 16.35 -246.85 15.55 L-248.1 14.65 -248.9 14.55 -249.35 14.25 -249.95 14.4 Q-249.1 14.65 -248.5 15.05 L-247.95 15.4 -249.0 16.1 Q-250.1 16.55 -250.1 17.15 -250.1 17.65 -249.95 17.5 -250.4 18.3 -251.7 18.3 -253.65 18.3 -253.65 16.3 L-252.7 15.65 -251.75 15.2 Q-251.75 14.9 -252.05 14.6 L-252.5 14.1 Q-252.7 13.75 -253.05 13.6 L-253.95 13.3 Q-254.05 13.9 -255.35 14.7 -256.7 15.55 -257.9 15.55 L-258.85 15.45 -259.7 15.55 Q-259.5 15.75 -259.65 16.1 L-259.9 16.75 -257.75 18.05 Q-257.75 18.8 -259.2 19.0 L-259.95 18.95 -260.75 18.8 -261.25 18.95 -262.2 19.15 -263.95 18.8 -264.85 17.95 -265.3 18.3 Q-265.0 19.2 -266.6 19.55 L-268.85 19.75 -269.8 19.5 -270.35 18.8 Q-270.35 18.4 -269.6 18.0 L-268.65 17.55 -268.9 17.25 -269.2 17.55 Q-269.2 18.05 -270.7 18.05 L-271.8 17.9 Q-272.75 17.6 -272.75 16.8 -272.75 16.45 -272.2 15.95 L-271.65 15.25 -273.0 14.55 -274.75 13.95 -275.45 14.15 -276.15 14.35 -278.6 14.85 -282.65 15.35 -283.5 15.6 -284.4 15.85 -285.25 15.7 -285.55 15.6 -285.55 15.05 -287.85 16.1 Q-288.8 16.55 -288.8 17.5 L-288.6 18.05 -288.5 18.35 -289.75 18.55 -292.0 17.2 -293.5 15.65 Q-291.15 13.85 -290.15 13.85 L-288.6 14.0 -287.35 14.15 -286.45 14.1 -285.35 14.6 -285.2 14.8 -284.7 14.6 Q-285.4 14.45 -286.05 13.45 L-287.15 13.05 Q-288.0 12.8 -288.0 12.35 L-287.8 11.9 -287.65 11.85 -285.95 11.75 -284.75 12.0 -284.25 12.3 -283.7 11.6 Q-283.25 11.2 -282.25 11.2 L-281.35 11.45 -281.0 11.85 -280.55 11.5 -281.8 10.5 Q-281.8 10.15 -281.6 10.05 L-281.45 10.05 -279.5 9.9 Q-278.0 10.25 -275.85 12.4 -275.25 11.75 -274.4 11.6 L-273.15 11.45 Q-272.65 11.45 -271.05 12.85 L-269.55 14.25 -269.05 14.8 Q-268.55 15.05 -268.55 15.3 L-268.85 16.05 -269.0 16.6 -265.7 15.3 -261.85 15.15 Q-261.8 14.15 -259.85 13.75 -257.9 13.3 -257.9 12.65 -258.2 12.15 -258.1 11.75 -257.9 10.9 -255.7 10.9 -254.7 10.9 -254.65 11.25 L-253.6 10.75 -252.55 10.6 Q-251.4 10.6 -250.6 11.3 L-249.6 12.45 -248.85 12.2 -247.45 12.05 Q-247.0 12.05 -245.3 12.8 -243.4 13.6 -243.4 14.1 L-242.95 14.75 Q-242.5 15.05 -242.5 15.3 L-242.9 15.85 -243.9 16.3 -243.25 16.3 Q-242.75 16.3 -242.7 16.5 -242.7 16.75 -242.2 16.75 -241.75 16.75 -240.6 16.15 -239.4 15.5 -238.45 15.4 -240.1 14.05 -238.2 13.25 L-235.85 12.8 M-240.8 1.9 L-240.65 2.5 Q-240.65 3.05 -241.75 3.5 L-243.4 4.05 Q-241.0 4.7 -241.85 5.75 -242.7 6.75 -245.45 6.75 L-246.8 6.9 -248.2 7.05 Q-248.95 7.05 -253.6 3.4 -253.6 3.15 -253.1 2.85 -252.5 2.5 -251.8 2.5 L-250.9 2.55 -250.3 2.35 -248.95 1.95 -248.05 1.75 Q-246.25 1.75 -245.6 3.15 -245.6 3.55 -246.2 3.9 -247.15 4.4 -247.35 4.6 L-246.5 4.85 -244.1 4.2 Q-245.4 3.6 -245.4 3.2 -245.4 2.55 -243.85 1.95 L-242.05 1.55 -241.0 1.65 -240.8 1.9 M-218.95 5.55 L-218.9 5.8 -218.45 5.85 -218.95 5.55 M-213.55 5.2 L-213.3 5.6 Q-212.7 5.2 -212.35 5.15 L-213.55 5.2 M-189.35 13.8 L-190.8 13.6 Q-190.35 13.8 -189.85 14.35 L-189.2 15.0 -188.35 14.6 -187.05 13.75 -187.75 13.95 -189.35 13.8 M-196.4 14.6 L-196.55 14.8 -195.55 15.25 -196.4 14.6 M-186.25 5.1 L-186.1 5.45 -185.65 6.15 -184.85 6.3 Q-184.25 6.4 -184.25 6.7 -184.25 7.05 -184.6 7.15 L-185.25 7.35 -186.2 7.0 -186.7 6.75 -188.2 6.9 Q-189.55 6.8 -189.55 5.85 L-189.35 5.35 -189.15 5.05 -186.25 5.1 M-174.35 13.55 Q-173.7 13.95 -173.7 14.2 -173.7 14.9 -175.9 15.15 -178.1 15.4 -178.1 16.15 L-177.5 16.8 -176.9 17.35 Q-178.15 18.6 -180.7 18.6 -181.55 18.6 -182.85 18.0 L-186.1 16.1 -186.6 16.4 -187.5 16.55 -189.2 15.85 Q-190.4 16.6 -190.8 16.6 L-191.85 16.1 -193.3 14.7 -194.85 15.35 -193.8 16.5 Q-193.8 16.75 -194.35 17.05 L-196.25 17.5 -197.75 17.25 -199.55 16.75 Q-200.95 17.5 -201.4 17.5 -201.9 17.5 -201.9 17.2 -201.9 16.85 -202.4 16.85 L-204.7 17.1 Q-205.85 17.1 -205.85 16.2 -205.85 15.9 -204.1 15.05 L-205.15 14.3 Q-205.15 14.55 -205.65 14.9 -206.3 15.4 -207.1 15.4 L-207.95 15.3 -208.5 15.4 -207.85 16.3 Q-207.5 16.8 -207.5 17.1 -207.5 17.55 -208.55 17.95 L-210.55 18.35 Q-211.5 18.35 -212.45 17.4 -212.4 16.85 -211.5 16.15 L-212.0 15.75 -212.6 15.8 -213.2 16.05 -213.15 16.85 Q-213.25 17.3 -214.15 17.4 L-214.8 17.35 -215.45 17.25 -217.25 17.65 -218.65 18.1 -219.5 17.8 -220.0 17.5 Q-221.05 17.5 -223.7 18.5 -226.35 19.5 -227.7 19.5 L-228.65 19.25 -229.95 18.4 -230.2 17.3 Q-230.3 16.75 -231.3 17.2 -231.8 17.4 -232.3 16.85 L-232.75 16.1 Q-232.75 15.3 -231.5 14.95 L-229.95 14.7 Q-229.2 14.7 -228.75 15.4 L-228.4 16.1 -227.1 16.4 Q-225.9 16.7 -225.65 17.2 L-225.55 17.0 -226.4 16.05 -226.65 15.45 Q-226.65 15.15 -226.25 14.9 L-225.9 14.75 -226.45 14.4 -227.0 14.05 -226.85 13.65 -226.7 13.45 -225.15 13.4 -223.75 13.15 Q-222.65 12.9 -222.15 12.5 -221.85 12.2 -221.0 12.2 -220.75 12.2 -219.5 12.95 L-220.6 13.75 Q-220.6 14.45 -221.35 14.75 L-220.6 15.05 -218.1 15.1 -216.05 15.35 Q-216.4 14.85 -216.35 14.25 L-216.2 13.45 -214.1 13.3 -213.7 13.65 -213.05 13.8 Q-212.05 13.8 -212.6 13.6 -213.0 12.7 -212.2 12.1 -211.45 11.6 -210.25 11.6 -209.9 11.6 -209.45 11.9 L-209.0 12.4 Q-208.55 11.9 -207.55 11.45 -206.2 10.8 -204.8 10.8 L-204.5 11.95 -204.1 12.9 -203.6 12.95 -202.65 13.0 -201.55 12.8 Q-200.9 12.7 -199.75 13.4 -199.85 13.85 -200.7 14.1 L-199.65 13.85 -198.3 13.6 -197.25 13.8 -197.15 12.25 Q-197.15 12.0 -197.55 11.8 L-198.0 11.35 -197.35 10.9 -196.35 10.9 -194.8 11.65 -193.4 12.4 -192.8 12.2 -192.05 11.4 Q-191.4 10.95 -190.1 10.95 L-186.3 13.15 Q-186.3 13.45 -186.45 13.6 -183.2 13.3 -182.35 14.4 -181.8 15.0 -181.05 16.55 L-179.9 16.15 -180.45 15.8 -180.7 15.25 -180.25 14.5 Q-179.8 14.1 -179.4 14.0 L-177.7 13.35 -176.15 13.1 Q-175.1 13.1 -174.35 13.55 M-181.55 1.05 L-180.75 0.85 -179.9 1.0 Q-179.1 1.25 -179.1 1.8 -179.1 2.55 -180.45 2.55 -180.9 2.55 -181.75 3.0 L-183.8 3.4 -184.8 3.15 -185.05 2.95 -188.3 4.0 Q-190.8 4.95 -190.8 6.2 L-190.0 6.7 Q-189.25 7.05 -189.25 7.45 L-189.45 7.95 -189.65 8.2 -190.95 8.45 Q-192.8 8.3 -193.05 7.5 -193.35 6.55 -193.9 6.3 L-194.9 7.15 -196.45 7.5 -198.3 6.35 -200.5 4.9 -203.25 5.9 -204.95 6.25 -205.75 6.0 Q-206.1 5.75 -206.6 5.75 L-207.7 5.55 -208.85 5.35 -210.0 5.5 -210.45 5.6 Q-210.0 6.0 -210.45 6.55 -210.9 7.05 -211.8 7.05 L-213.1 6.75 -213.45 6.35 Q-213.85 6.8 -215.15 7.3 L-218.15 7.95 Q-219.1 7.95 -219.05 7.6 L-220.25 8.05 -220.85 8.65 Q-221.4 9.2 -222.65 9.2 -223.9 9.2 -224.2 8.7 L-224.55 7.8 -227.6 7.85 Q-229.0 7.35 -229.7 6.5 L-230.1 6.9 Q-230.2 7.4 -230.6 7.75 -231.15 8.25 -232.05 8.25 L-233.7 7.2 -235.1 6.2 -236.05 6.25 Q-236.05 7.0 -236.2 7.3 L-233.5 7.55 Q-233.1 7.85 -233.1 8.2 -233.1 8.7 -233.25 8.55 L-234.65 8.7 -235.55 8.55 Q-235.9 9.0 -235.85 9.95 -236.0 10.7 -237.65 10.7 L-239.0 10.5 Q-240.1 10.15 -240.1 9.5 L-240.15 8.5 Q-242.7 8.35 -242.7 7.4 -242.7 6.9 -241.4 6.7 -240.15 6.55 -240.15 5.6 -240.15 5.35 -240.6 5.2 L-241.05 4.75 -240.9 4.3 -240.8 4.2 -239.8 4.05 -238.95 4.0 Q-237.95 4.0 -237.85 4.45 L-236.4 4.05 -235.2 3.95 -234.0 3.8 Q-233.3 3.8 -232.85 4.2 L-232.1 4.85 Q-231.25 4.3 -230.0 4.3 L-227.45 4.9 Q-225.5 5.45 -224.95 5.7 -225.9 4.95 -225.25 4.3 -224.65 3.65 -223.3 3.65 -222.8 3.65 -222.4 3.9 L-221.55 4.15 -220.4 3.85 -219.3 3.6 -218.5 3.65 -216.45 3.75 -212.45 3.2 -211.2 3.45 -210.55 3.65 -210.9 3.0 -210.75 2.15 -209.95 2.0 -209.15 2.0 Q-208.5 2.0 -208.3 2.25 L-208.05 2.75 Q-207.2 2.25 -206.25 2.25 L-205.4 2.3 -205.05 2.35 -204.8 3.05 -205.05 3.45 -202.9 3.65 -202.15 3.9 -200.8 3.55 -199.65 3.25 -199.1 3.2 -199.1 2.8 Q-198.9 2.4 -197.55 2.4 -196.55 2.4 -195.65 2.85 -194.85 3.3 -194.8 3.7 L-194.95 4.25 -193.9 4.7 Q-193.8 4.0 -192.65 3.4 L-191.6 2.7 -190.55 2.15 Q-189.4 1.9 -188.05 1.0 -186.95 0.2 -185.45 0.2 -185.1 0.2 -184.0 0.7 L-182.4 1.25 -181.55 1.05 M-158.2 14.65 L-159.05 13.85 -160.95 14.6 -162.4 15.4 Q-161.9 15.5 -161.9 15.7 L-160.8 15.7 Q-159.7 14.65 -158.95 14.65 L-158.15 14.75 -158.2 14.65 M-125.1 6.05 L-125.25 5.85 -126.7 6.35 -128.1 6.9 -127.85 7.05 -126.35 6.55 -125.1 6.05 M-119.55 10.9 L-118.9 11.35 -120.5 12.4 -122.0 13.3 -121.65 13.4 -120.75 12.85 -119.65 12.6 -118.5 13.25 Q-119.05 14.15 -118.65 14.35 L-117.1 15.2 -116.55 14.25 -116.05 13.6 -115.25 12.2 Q-114.75 11.45 -113.75 11.45 -113.2 11.45 -112.55 12.0 L-111.95 12.65 Q-111.95 12.95 -112.35 13.05 L-112.75 13.45 Q-112.75 13.75 -111.7 14.1 L-110.75 13.5 -109.1 13.3 -107.95 13.6 Q-107.3 14.0 -107.3 14.45 L-107.85 14.95 -108.45 15.55 -108.2 16.0 -107.15 16.05 -106.45 16.45 Q-106.65 16.7 -107.45 16.95 L-108.45 16.5 -108.6 16.35 -109.65 16.5 -110.5 16.65 -111.15 16.45 Q-111.55 16.2 -112.1 16.2 L-113.85 16.55 -115.45 16.9 -115.4 16.7 Q-115.4 16.35 -115.85 16.15 L-116.35 15.85 -117.25 16.55 -118.6 16.6 Q-120.2 16.6 -120.3 15.65 L-120.1 15.05 Q-122.1 15.15 -122.85 14.5 L-123.55 13.6 Q-123.65 15.05 -125.4 15.05 L-126.3 14.8 -127.25 14.55 Q-128.85 14.55 -130.2 15.3 -131.55 16.05 -132.5 16.05 L-134.45 16.45 -136.35 16.85 -138.0 16.4 -138.4 15.75 Q-138.6 16.05 -139.35 16.3 L-140.1 16.55 Q-140.1 17.2 -140.25 17.35 -140.5 17.7 -141.45 17.7 L-145.1 17.1 Q-146.65 16.55 -147.5 15.7 L-148.2 16.2 -150.5 16.6 -152.4 16.4 -154.1 16.2 -156.25 16.05 Q-156.55 15.9 -156.65 15.9 -158.1 15.9 -159.85 17.1 -161.6 18.3 -163.0 18.3 L-165.4 16.95 -166.45 16.45 -167.65 16.0 Q-169.1 16.75 -169.35 17.85 -169.45 18.4 -171.8 18.4 L-173.15 18.05 Q-173.85 17.65 -174.65 17.55 L-176.15 16.75 -176.7 16.05 -176.05 15.45 -175.15 15.15 Q-174.8 15.3 -174.25 15.8 L-173.5 16.35 Q-171.25 15.1 -169.65 14.75 L-166.15 14.5 Q-165.15 14.5 -165.0 14.8 -165.0 14.15 -163.75 13.45 -162.65 12.8 -161.9 12.8 L-160.55 12.65 -159.25 12.55 -157.25 12.9 -154.95 13.85 -153.9 13.55 -152.45 13.35 Q-151.55 13.35 -151.35 13.75 L-150.9 14.1 -150.05 14.0 -149.2 13.75 -149.75 13.45 -150.05 12.95 -149.8 12.4 -149.6 12.05 -147.85 11.95 -146.95 12.1 Q-146.3 12.3 -146.3 12.7 L-146.15 13.35 -145.25 13.6 -142.6 13.85 -143.4 13.1 -143.0 12.5 -141.8 12.3 -140.9 12.25 Q-140.6 12.25 -140.65 12.4 L-138.2 12.65 Q-136.6 12.7 -136.2 13.15 -136.05 13.3 -136.05 13.65 -136.05 14.35 -137.3 14.45 L-138.9 14.5 -138.4 15.35 Q-137.3 14.5 -134.55 14.1 -132.2 13.75 -132.2 13.4 -132.2 12.65 -131.85 12.35 -131.35 11.9 -130.0 11.9 -129.2 11.9 -128.65 12.35 -128.1 12.8 -128.25 13.3 -126.85 13.15 -126.45 13.3 L-126.2 13.45 -125.2 13.4 -124.5 13.3 -125.0 12.8 -125.3 12.05 -122.95 11.3 -120.15 10.6 Q-119.9 10.6 -119.55 10.9 M-99.55 11.15 L-99.4 10.9 -98.9 10.85 -97.65 10.8 Q-94.25 12.9 -94.25 13.25 L-94.7 13.85 Q-95.35 14.4 -96.45 14.4 L-98.25 14.15 Q-99.7 13.75 -99.7 12.9 L-99.75 11.6 -99.55 11.15 M-98.85 6.95 L-98.75 6.7 -99.0 6.8 -99.1 7.05 -98.85 6.95 M-90.4 10.4 Q-89.95 10.85 -89.3 11.05 L-88.1 10.65 -90.75 9.2 -91.35 9.45 -90.4 10.4 M-76.65 7.85 L-76.35 6.95 -78.15 5.75 -78.65 6.5 -79.0 7.2 Q-79.0 7.45 -78.5 7.55 -78.05 7.7 -78.05 7.95 -78.05 8.5 -78.25 8.3 L-79.3 8.55 -80.15 8.05 -80.7 7.55 -82.15 7.05 Q-83.4 6.55 -83.4 6.05 -83.4 5.7 -83.7 5.35 L-84.15 4.75 Q-83.85 5.7 -84.75 6.0 L-85.7 6.15 Q-86.2 6.15 -86.15 5.95 -86.15 5.75 -86.65 5.75 L-89.3 6.65 Q-89.3 7.0 -89.8 7.2 L-90.35 7.5 -90.15 8.05 Q-90.0 8.25 -90.0 8.5 L-89.45 8.35 -88.95 8.3 -89.15 7.55 Q-89.1 6.95 -87.6 6.95 L-86.3 7.35 Q-85.85 7.65 -85.85 7.9 L-86.1 8.35 -86.65 8.5 -85.95 8.8 -84.85 8.5 -83.6 8.35 Q-82.2 8.35 -82.2 9.35 L-82.45 9.95 -83.2 10.4 Q-82.45 10.55 -80.8 11.2 L-79.0 11.8 -78.8 11.45 -78.65 11.4 Q-78.6 10.1 -77.8 9.35 L-76.95 8.75 -76.65 7.85 M-67.1 4.75 L-69.75 4.65 -70.45 5.15 -71.1 5.55 -69.5 6.25 -67.1 5.7 -66.55 5.7 Q-67.1 5.3 -67.1 4.75 M-54.4 13.0 Q-55.2 12.8 -55.25 13.0 L-55.15 13.35 -54.4 13.0 M-44.5 7.9 L-44.5 8.05 Q-43.9 8.3 -43.5 8.65 L-42.9 8.7 -42.2 8.65 -42.45 8.3 -42.55 7.95 -44.5 7.9 M-50.6 8.6 L-48.3 8.35 -49.05 7.45 -51.8 7.75 -53.6 8.15 -53.45 8.8 -51.45 8.9 -50.6 8.6 M-48.8 11.55 L-50.5 12.3 Q-51.5 12.3 -52.2 11.2 L-51.9 10.95 -52.8 11.1 -54.55 10.45 -55.25 10.3 -55.85 10.2 Q-57.55 8.9 -57.55 8.3 L-57.6 8.05 -58.45 7.2 Q-57.8 6.5 -57.0 6.5 L-55.1 6.25 -55.65 6.1 -56.7 5.85 Q-58.6 5.85 -58.6 5.25 -58.6 5.0 -58.2 5.1 -57.8 5.15 -57.8 4.9 L-58.0 4.75 -58.85 4.2 -59.4 4.4 -59.7 4.9 -59.05 5.45 -58.45 5.8 -58.55 6.3 -58.7 6.65 -60.45 6.9 -61.55 6.7 Q-62.55 6.4 -62.55 5.55 L-62.45 5.15 -62.55 5.1 Q-62.75 5.45 -63.55 5.85 L-64.35 6.25 -63.9 7.1 -63.45 7.95 -63.7 8.5 -63.9 8.65 -61.15 8.9 Q-60.25 9.3 -60.25 9.8 L-61.35 10.65 -59.0 10.6 -58.15 11.2 -57.05 11.05 -56.5 11.05 Q-56.3 11.15 -56.25 11.4 L-55.5 11.55 Q-55.0 11.55 -54.8 11.35 L-54.15 11.15 -53.35 11.25 -53.0 11.3 -52.75 11.7 -52.65 12.15 Q-52.65 12.5 -53.0 12.7 L-53.45 12.9 -53.0 12.95 -49.7 13.05 -48.9 15.0 -48.05 14.7 Q-48.5 13.65 -46.8 13.15 L-44.95 12.85 -43.95 13.1 -43.5 13.35 -43.1 13.15 -42.9 13.15 -42.9 12.85 Q-45.65 12.5 -46.3 11.95 -46.8 11.55 -48.8 11.55 M-50.05 10.45 L-50.45 10.35 -51.45 10.8 -50.7 10.7 -49.9 10.75 Q-49.85 10.55 -50.05 10.45 M-35.35 11.25 L-35.75 11.35 Q-35.9 12.3 -36.75 12.75 L-38.6 13.3 -38.0 13.8 Q-36.15 13.1 -34.85 14.15 L-35.05 13.7 Q-35.05 13.4 -34.4 13.35 -33.8 13.3 -33.8 13.0 L-35.35 11.25 M-32.9 6.3 L-34.5 6.3 -33.7 7.1 -32.9 6.3 M-34.75 11.0 L-32.75 10.7 -33.55 9.75 -34.5 9.8 -34.9 9.75 -35.6 10.2 -35.0 10.55 Q-34.7 10.8 -34.75 11.0 M-39.9 11.0 L-40.4 11.25 Q-40.4 11.65 -39.1 11.65 -38.7 11.65 -37.65 11.05 L-37.55 11.0 -39.9 11.0 M-11.25 14.0 L-10.35 14.6 -10.1 14.15 -11.75 13.15 -11.25 14.0 M-19.55 10.2 L-20.15 9.9 -20.7 9.75 -21.6 9.65 -23.95 10.3 -24.75 10.05 Q-25.05 9.75 -25.55 9.75 L-26.25 9.8 -27.0 9.95 -27.0 11.85 Q-26.9 12.85 -27.55 13.2 -28.4 13.4 -28.8 13.65 L-27.95 13.85 -25.0 13.8 -22.8 14.8 Q-22.1 14.55 -21.05 13.75 -20.45 13.25 -19.05 13.25 L-18.25 13.35 -18.4 13.0 Q-18.4 12.6 -18.55 12.6 -19.15 12.6 -20.25 12.0 L-21.85 11.3 Q-22.5 11.0 -22.5 10.55 -22.5 10.2 -22.15 10.15 L-21.85 10.15 -21.5 10.05 -20.85 10.05 -19.95 10.15 -19.55 10.2 M-17.45 7.0 L-17.7 6.35 Q-18.0 5.9 -20.85 5.1 L-21.25 5.5 -20.65 5.8 -20.4 6.3 -20.5 6.7 -20.65 6.95 -21.6 7.1 -22.4 7.15 Q-23.1 7.15 -23.75 6.25 L-24.7 5.05 -26.6 5.15 -28.8 5.3 -27.85 6.1 -27.5 6.55 Q-27.5 7.05 -28.4 7.4 -27.4 7.5 -25.7 7.95 L-23.0 7.35 -21.65 7.15 -20.35 7.0 Q-19.65 7.0 -17.4 8.1 L-17.05 7.6 -17.45 7.0 M-16.75 8.6 L-17.15 8.35 Q-17.15 9.2 -17.5 9.75 L-17.9 10.15 -17.3 10.65 -15.95 11.65 -14.8 11.5 Q-14.15 11.45 -14.15 11.2 -14.15 10.05 -13.2 9.95 -11.85 9.8 -11.05 8.75 L-13.45 7.05 -13.9 6.95 -14.25 7.2 -14.5 7.6 -14.45 8.4 -15.8 8.65 -16.75 8.6 M-9.35 8.7 L-9.1 9.2 Q-8.85 9.4 -8.9 9.5 L-7.95 9.0 -9.0 8.45 -9.15 8.35 Q-9.35 8.35 -9.35 8.7 M11.05 11.75 L10.75 10.9 Q10.75 10.5 11.05 10.4 L12.2 10.25 Q15.0 10.9 15.55 11.55 15.7 11.85 15.35 12.4 L14.95 13.25 15.45 14.2 15.95 15.15 Q14.7 15.65 13.5 16.3 11.0 17.55 11.0 18.2 11.0 18.45 11.4 18.55 L11.75 18.9 11.65 19.25 11.5 19.35 10.45 19.5 9.8 19.45 9.85 19.35 7.55 17.05 7.3 17.25 Q8.4 18.4 5.9 18.9 L2.5 19.25 0.1 18.95 Q-1.3 18.55 -1.1 17.9 0.15 17.4 1.2 17.2 0.55 16.8 1.05 16.3 1.55 15.8 2.55 15.8 L4.15 16.55 4.3 16.2 Q3.65 16.1 4.0 15.15 4.4 14.15 5.9 14.15 L9.0 14.6 10.8 15.05 12.55 14.75 Q12.5 14.05 11.95 13.6 11.3 13.15 11.3 12.6 L11.05 11.75 M27.3 12.5 Q28.0 12.9 28.0 13.5 L26.8 14.7 27.5 15.25 28.75 15.85 30.0 14.85 Q30.7 14.45 30.9 14.45 31.3 14.45 32.25 15.0 33.25 15.65 33.25 16.0 33.25 16.35 32.55 16.75 L31.7 17.3 Q30.9 18.2 29.4 17.9 28.25 17.6 28.25 18.55 L28.45 19.65 Q28.25 20.6 26.35 20.6 25.6 20.6 25.15 20.15 L24.55 19.15 23.0 18.9 21.55 18.65 Q21.05 18.65 20.65 18.9 L19.7 19.15 18.5 18.95 Q17.55 18.7 17.55 18.15 17.55 17.7 16.85 17.35 16.1 17.0 16.1 16.5 L16.3 16.0 16.45 15.85 17.6 15.65 18.45 15.6 Q19.45 15.6 19.7 15.95 L20.0 16.8 23.15 16.6 Q24.7 16.75 25.15 17.25 L25.25 16.5 Q25.25 16.0 23.35 15.7 21.4 15.45 21.4 14.5 21.4 14.2 22.0 14.0 L22.85 13.8 23.9 13.0 Q24.7 12.2 26.35 12.2 26.8 12.2 27.3 12.5 M35.45 5.2 L37.0 5.5 37.4 5.3 Q37.95 5.2 39.3 5.75 L38.6 7.15 Q37.75 8.1 36.05 8.1 34.7 8.1 34.4 8.6 34.05 9.05 33.2 9.05 L32.25 8.95 31.6 8.9 Q31.35 8.8 31.35 8.25 L31.75 7.95 32.1 7.6 31.55 7.0 31.0 6.8 30.5 7.1 29.4 7.25 28.8 7.0 28.15 6.75 25.95 7.05 23.7 7.3 Q22.4 7.3 22.05 7.95 21.7 8.6 19.95 8.6 L19.2 8.55 Q18.45 8.35 18.3 7.8 18.35 8.95 16.95 9.5 L15.45 9.8 Q13.95 9.8 13.3 8.75 12.4 7.25 11.6 6.75 L11.25 6.9 9.5 8.3 Q8.6 9.0 7.75 9.0 7.0 9.0 6.15 8.45 L4.65 6.95 Q4.1 7.35 3.05 7.35 L1.9 7.3 Q2.2 7.7 1.45 8.15 L-0.3 8.55 -2.2 8.15 -4.7 7.2 -5.4 7.6 Q-5.3 7.6 -5.3 7.95 L-5.4 8.5 Q-4.1 8.5 -3.25 8.85 -2.5 9.1 -2.5 9.35 -2.5 9.95 -3.7 10.3 -5.2 10.7 -5.55 11.05 -4.75 11.25 -5.6 12.05 -6.45 12.9 -7.4 12.9 L-8.4 12.7 -9.0 12.6 -8.85 12.9 -7.3 13.4 Q-6.3 13.7 -6.3 14.05 L-7.7 14.8 -6.25 14.6 -4.2 15.25 -3.0 15.0 -1.85 14.75 Q0.65 14.75 -0.75 16.1 L-2.8 17.55 -2.25 17.65 Q-1.9 17.75 -1.9 18.1 L-2.05 18.5 -2.25 18.65 -3.4 18.85 -4.25 18.85 -5.55 18.0 Q-5.05 17.55 -4.45 17.45 L-7.0 16.65 Q-8.25 16.3 -8.25 15.75 L-8.05 15.2 -7.9 14.9 -9.45 15.45 Q-10.05 15.45 -10.2 15.25 L-10.35 14.95 Q-10.4 15.4 -11.2 15.75 L-12.25 16.05 -14.6 14.95 Q-15.75 14.4 -15.75 13.85 L-15.7 13.4 -17.55 13.65 -17.75 13.6 Q-17.5 13.8 -17.35 14.15 -17.15 14.6 -17.25 15.05 L-17.35 16.1 Q-17.75 16.9 -19.5 16.9 -20.0 16.9 -20.0 16.7 -20.0 16.5 -20.5 16.5 L-21.1 16.7 Q-21.2 16.9 -21.7 16.9 L-22.5 17.1 -23.35 17.25 -23.5 17.15 Q-23.75 16.9 -24.45 16.6 L-24.6 16.75 Q-24.35 17.6 -25.3 18.1 L-27.0 18.55 Q-27.9 18.55 -28.55 18.15 -29.3 17.75 -29.3 17.1 -29.3 16.7 -28.4 16.3 L-27.35 15.4 -28.3 15.0 -28.75 15.65 Q-29.1 16.1 -30.15 16.1 L-31.95 15.75 Q-32.7 15.35 -32.5 14.7 L-34.2 14.55 -34.55 14.4 Q-33.85 15.0 -33.85 15.6 L-35.15 16.4 Q-36.25 16.1 -37.9 15.25 L-37.9 15.35 -38.05 15.5 -38.15 15.85 -37.65 16.35 Q-37.15 16.5 -37.15 16.8 -37.15 17.2 -37.95 17.6 -38.8 18.05 -39.85 18.05 -40.95 18.05 -41.2 17.15 L-41.5 15.55 -42.15 15.55 -43.65 15.4 -44.95 16.6 Q-45.9 17.15 -47.45 17.15 L-49.1 16.85 -50.65 16.55 Q-51.95 16.45 -52.65 15.95 L-53.2 15.45 -54.05 15.65 -54.6 15.8 -55.2 15.2 Q-55.55 14.6 -56.1 14.6 L-57.7 14.55 Q-58.8 14.4 -58.8 13.7 L-58.4 13.4 Q-58.0 13.35 -58.0 13.1 -58.0 12.8 -58.1 12.8 L-58.4 12.65 -59.55 14.55 -59.65 15.8 Q-59.95 16.2 -61.65 16.2 L-62.6 16.1 -62.8 16.0 -63.5 16.45 -64.55 16.6 Q-65.05 16.6 -66.6 15.45 L-68.05 14.2 -67.9 13.55 -67.75 13.1 -67.1 12.95 -66.25 12.95 Q-65.7 12.95 -64.2 13.8 L-62.7 14.6 -61.7 14.5 -61.15 14.4 -61.15 13.35 -62.3 12.85 -62.7 12.5 -65.1 12.6 -65.25 11.95 -65.1 11.6 -65.0 11.65 Q-64.0 11.25 -63.3 11.35 -62.75 11.4 -61.6 10.8 L-64.05 10.9 -64.85 10.65 -66.3 10.9 -67.75 11.05 Q-68.75 11.05 -68.9 10.6 -69.1 9.95 -70.25 9.75 -72.8 9.3 -72.8 8.55 -72.8 8.2 -72.05 7.95 L-71.2 7.8 -70.1 7.7 -69.3 7.5 -69.4 7.45 Q-72.65 7.2 -73.45 6.55 L-74.55 6.9 -73.75 7.7 -73.45 8.2 Q-73.45 8.8 -75.15 9.0 L-70.5 11.1 Q-71.85 11.85 -72.4 11.85 L-73.5 11.7 -74.05 11.55 Q-73.65 12.05 -74.2 13.0 L-73.1 12.95 -72.3 12.6 -70.75 12.15 Q-70.3 12.35 -69.9 12.9 L-69.6 13.55 Q-69.6 13.85 -69.9 14.0 L-70.4 14.15 -68.65 14.45 Q-67.8 14.85 -67.8 15.25 L-68.15 15.65 Q-68.7 16.05 -69.75 16.05 L-71.05 15.8 -71.9 15.15 -72.4 15.35 Q-72.4 15.95 -73.55 16.6 L-75.25 15.65 Q-76.35 14.85 -76.35 14.3 -76.35 13.8 -75.75 13.45 L-74.9 13.15 -75.15 13.0 -76.35 13.15 -77.2 13.15 -76.75 13.8 Q-76.4 14.2 -76.4 14.5 L-76.8 14.95 -77.8 15.2 -79.65 14.8 -81.75 13.65 Q-83.3 14.6 -83.9 14.6 -84.4 14.6 -85.4 13.7 L-84.95 13.35 Q-84.5 13.15 -84.5 12.85 L-84.7 12.25 -85.0 11.95 -85.45 12.2 Q-86.0 14.05 -87.7 14.05 L-88.75 13.75 -89.05 13.45 Q-89.9 14.2 -90.25 14.2 L-92.25 13.7 Q-94.2 13.0 -94.2 12.15 L-93.9 11.65 -93.7 11.4 -95.45 11.15 Q-96.9 10.8 -96.9 9.75 L-96.4 9.5 -95.65 8.75 -95.35 7.8 -94.9 6.95 -95.75 7.15 Q-96.15 7.85 -97.8 8.65 -99.1 8.2 -99.7 7.6 L-102.15 8.25 -104.45 7.7 Q-105.7 7.0 -105.25 6.05 -106.25 6.65 -107.85 6.75 L-110.75 6.65 -110.25 8.15 -108.3 7.45 -105.15 7.9 Q-104.05 8.25 -103.95 9.1 -103.85 9.85 -102.7 9.85 L-100.7 9.85 Q-100.0 9.95 -100.0 10.65 -100.0 11.1 -100.6 11.5 -101.45 12.1 -103.3 12.1 -104.35 12.1 -104.8 11.65 L-105.25 11.25 Q-106.7 11.25 -107.05 10.7 -107.85 9.65 -110.25 8.55 L-111.1 9.05 -113.0 9.45 Q-114.95 9.45 -115.1 8.25 L-114.8 6.95 -117.1 6.4 Q-117.9 6.15 -118.15 5.2 L-120.4 5.9 Q-121.8 6.25 -122.6 6.75 L-124.15 7.65 -124.05 8.35 Q-124.35 9.05 -126.4 9.05 L-127.8 8.9 -128.7 8.75 -131.45 9.0 -131.9 9.6 -132.85 9.8 -133.45 9.45 -133.8 9.0 -133.1 8.85 Q-132.55 8.8 -132.55 8.5 L-132.95 7.6 -133.35 6.7 -133.15 6.25 -133.0 6.2 -134.2 6.05 -136.05 7.05 Q-137.35 7.65 -137.35 7.9 L-137.4 8.85 Q-137.75 9.3 -139.65 9.3 L-140.7 9.25 -141.05 9.15 -141.4 8.6 -141.5 8.1 Q-141.5 7.85 -141.0 7.8 L-140.55 7.45 Q-140.55 6.65 -141.4 6.2 L-142.25 5.45 -142.0 4.95 Q-141.85 4.8 -141.3 4.6 L-141.4 4.6 -142.55 5.05 -144.0 5.3 Q-144.95 5.3 -145.25 4.9 -145.7 4.15 -146.2 3.9 L-148.7 4.55 -149.35 4.35 -151.1 4.75 -151.95 5.05 -152.55 5.2 -152.05 5.2 Q-150.45 5.2 -150.4 6.65 -150.4 8.1 -152.7 8.1 L-153.85 7.95 -154.7 7.85 -155.05 6.9 -154.65 5.9 Q-154.2 5.4 -153.05 5.25 L-154.1 5.0 -154.45 4.7 Q-154.9 5.65 -156.4 6.45 -154.95 7.05 -155.0 7.85 L-155.15 8.35 -155.35 8.6 -156.5 8.95 Q-158.85 8.25 -159.7 7.1 -159.2 6.7 -158.5 6.6 L-157.35 6.5 -157.95 5.5 -158.3 4.2 -158.6 4.35 -160.1 5.7 -161.2 6.7 Q-161.2 8.0 -163.6 8.0 L-164.4 7.75 Q-164.75 7.5 -165.25 7.5 L-166.25 7.7 Q-166.55 7.7 -167.65 6.75 L-168.45 7.2 -169.55 7.45 -171.5 7.0 -173.2 6.5 -174.5 6.7 -175.85 6.95 -176.55 6.6 Q-177.05 6.2 -177.25 6.2 L-179.1 5.9 Q-180.0 5.8 -180.0 5.5 -180.0 5.2 -180.9 4.5 L-181.8 3.8 -181.2 3.2 -180.0 2.65 Q-178.3 3.55 -178.3 4.6 L-177.75 4.65 -177.0 4.7 -176.05 4.5 -175.55 4.25 -177.6 3.15 Q-177.95 2.85 -177.95 1.9 L-177.75 1.45 -177.55 1.2 -175.75 1.05 Q-175.25 1.05 -172.8 3.35 L-173.65 3.95 -174.7 4.25 -172.3 5.1 -170.65 5.7 -169.85 5.45 -169.05 5.2 -169.55 5.1 Q-171.2 4.6 -171.2 3.75 -171.2 2.7 -168.15 2.95 -165.15 3.2 -165.15 4.0 -166.6 5.45 -167.5 5.45 L-168.45 5.35 -167.3 6.2 Q-166.25 5.65 -163.6 4.95 -161.65 4.4 -161.65 4.0 L-161.9 2.45 Q-161.65 1.3 -159.15 1.3 -157.95 2.05 -157.95 2.45 -157.95 2.8 -158.1 3.0 L-158.55 3.25 -156.7 3.35 Q-155.5 3.5 -154.7 4.25 L-154.35 3.8 -154.1 3.6 -154.65 3.2 -154.95 2.6 Q-154.95 2.35 -153.85 2.0 L-151.9 1.55 Q-152.15 1.5 -151.8 1.1 -151.35 0.7 -150.35 0.3 L-149.15 1.2 -147.75 2.3 -143.65 2.55 -139.6 2.8 -138.4 2.7 -137.55 2.75 -137.05 3.05 -136.0 3.6 -134.55 3.1 -133.8 2.9 Q-132.9 2.9 -132.4 3.8 -131.9 4.7 -130.5 4.7 L-128.25 4.55 -127.2 4.15 -125.55 3.8 -124.65 4.0 -122.1 3.8 Q-121.85 2.55 -120.15 2.55 -119.05 2.55 -118.25 3.45 -117.45 4.3 -117.7 4.85 L-116.3 4.05 -114.7 3.45 -113.65 4.25 -113.25 4.95 -112.9 5.6 -112.6 5.9 -111.95 5.85 -112.65 5.2 -113.15 4.4 Q-113.15 3.4 -111.8 2.95 L-110.2 2.65 Q-109.75 2.65 -109.4 2.9 -108.9 3.25 -108.9 3.95 L-109.0 4.5 -109.3 4.85 -108.7 4.95 Q-109.1 4.3 -108.15 3.75 -107.35 3.25 -106.55 3.25 -106.05 3.25 -105.6 3.5 L-104.65 3.75 -102.8 3.6 Q-102.15 3.6 -101.05 4.7 L-100.65 4.65 Q-101.5 3.7 -100.35 3.1 -99.5 2.65 -98.55 2.65 L-97.8 2.7 -97.45 2.8 -96.35 3.55 Q-95.8 4.05 -95.8 4.25 L-95.9 4.7 -96.25 5.05 -95.4 4.9 -93.95 4.5 -92.6 4.0 -91.4 3.35 Q-90.35 2.9 -89.05 2.9 L-86.55 3.3 -85.6 3.9 -85.15 3.3 Q-84.7 2.95 -83.75 2.95 -82.9 2.95 -80.3 4.3 -79.4 3.4 -77.4 2.7 -76.3 3.35 -76.1 4.0 -75.5 3.25 -74.2 3.4 L-72.15 3.5 -69.5 2.65 -67.9 2.2 Q-67.1 2.2 -66.55 3.55 L-65.9 3.5 Q-66.45 2.95 -65.7 2.35 L-63.95 1.9 -61.6 1.45 -60.9 1.6 Q-60.35 1.85 -60.35 2.3 L-59.25 2.75 -57.9 3.15 -53.95 3.9 -53.2 3.65 -52.5 3.45 Q-52.05 3.45 -51.65 3.8 L-51.35 4.2 -50.35 4.6 Q-49.1 5.05 -48.55 5.35 L-47.8 4.95 -46.85 4.65 Q-46.2 4.65 -45.45 5.7 L-44.35 5.4 -43.15 5.2 Q-43.65 4.65 -43.0 4.2 -42.4 3.75 -41.55 3.75 L-41.05 3.85 -39.7 3.45 -37.5 2.75 Q-36.3 2.75 -36.3 3.7 -36.3 4.3 -38.05 5.65 L-40.3 7.3 Q-39.85 7.35 -39.35 7.6 L-38.6 8.05 Q-38.1 7.2 -34.45 4.95 -30.6 2.55 -29.35 2.55 L-28.4 2.7 -27.8 3.35 Q-26.3 2.6 -25.55 2.6 L-24.3 2.85 Q-23.35 3.25 -23.4 3.95 L-22.55 3.65 Q-23.2 3.25 -23.0 3.0 -22.85 2.75 -21.75 2.3 -19.45 2.55 -19.35 3.4 -19.25 4.05 -16.3 4.05 L-15.0 4.0 -13.35 4.0 Q-12.45 4.05 -11.85 4.7 L-11.3 5.3 -9.35 5.5 -7.8 5.85 Q-7.5 5.45 -6.15 4.75 -4.65 4.0 -3.6 4.0 L-2.65 4.2 Q-1.85 4.45 -1.85 5.0 L-1.9 5.4 -2.2 5.55 -1.45 5.6 -0.4 5.75 1.35 5.45 3.85 5.15 6.05 5.4 Q8.15 5.75 8.95 6.3 L9.1 6.25 9.2 5.75 9.0 4.25 10.1 4.05 10.95 4.05 Q11.6 4.05 12.2 4.6 12.75 5.05 12.75 5.4 L12.5 5.85 Q12.2 6.05 12.2 6.2 L12.55 6.0 14.4 5.35 Q15.5 5.75 15.6 6.05 L15.55 6.95 15.65 6.9 16.15 6.3 17.3 6.15 18.0 6.25 18.1 6.3 18.15 7.05 18.3 7.5 20.45 5.8 Q21.85 5.0 23.95 4.6 L23.4 4.2 Q23.1 3.95 23.1 3.6 23.1 3.3 23.25 3.2 L23.4 3.15 24.95 3.05 25.8 3.2 Q26.6 3.5 26.6 4.05 L26.45 5.6 27.3 5.7 27.7 5.15 Q28.0 4.9 28.65 4.9 29.5 4.9 30.05 5.35 L30.65 6.0 32.55 5.15 33.6 4.9 35.45 5.2 M48.2 5.6 L49.6 5.0 50.65 5.85 Q50.1 6.1 49.85 6.3 L49.05 6.95 48.5 7.5 Q48.0 7.85 47.15 7.85 L46.3 7.75 45.85 7.5 45.3 7.9 44.25 8.15 43.2 8.1 Q42.85 8.15 42.85 8.5 L42.65 9.5 Q42.3 9.95 40.95 9.95 L40.05 9.85 39.5 9.8 39.25 8.85 39.95 7.55 Q40.05 6.8 40.6 6.45 L41.3 6.15 42.1 5.7 Q43.35 4.65 43.95 4.65 44.55 4.65 45.5 5.2 L46.65 5.75 48.2 5.6 M72.85 17.0 Q72.75 17.1 72.8 17.15 L72.85 17.15 72.85 17.0 M62.05 5.2 Q61.3 4.9 61.3 4.2 61.3 3.8 61.8 3.4 62.45 2.95 63.5 2.95 68.1 5.75 68.1 6.3 L67.7 6.75 66.9 6.95 64.8 6.3 Q64.8 7.45 64.25 7.65 L63.7 7.7 63.35 8.45 62.45 8.95 61.1 8.3 60.35 7.6 Q58.65 7.65 57.9 7.0 L56.75 6.0 Q56.8 7.5 55.35 7.95 L50.45 9.15 49.6 9.1 49.45 9.05 49.25 8.3 Q49.25 8.1 50.2 7.2 L51.1 6.3 Q51.1 6.0 51.75 5.65 52.85 5.05 55.1 5.05 56.1 5.05 56.15 5.35 L56.8 4.75 57.65 4.5 59.85 5.05 62.65 5.85 63.1 5.6 62.95 5.45 62.05 5.2 M95.25 14.95 L95.1 14.45 94.75 14.6 95.5 15.7 95.5 15.65 95.25 14.95 M90.0 15.05 L89.25 14.7 88.3 15.2 Q87.95 15.2 87.95 15.55 L88.35 16.1 88.75 16.5 90.45 16.2 Q90.4 15.2 90.0 15.05 M98.45 4.7 L98.35 4.55 96.65 5.15 96.95 5.15 97.6 4.95 98.45 4.7 M109.15 15.3 L109.25 15.3 109.35 15.7 107.45 16.95 108.45 17.0 109.35 17.25 111.05 16.05 110.85 15.45 Q110.7 15.15 110.85 14.95 L112.4 14.8 113.3 15.05 Q113.3 16.5 114.15 16.5 L116.35 16.55 Q117.15 16.75 117.15 17.55 L115.0 18.6 Q115.0 20.35 112.25 20.35 L111.25 20.25 Q110.95 20.1 110.95 19.8 L109.5 20.7 Q108.3 21.35 106.95 21.35 105.95 21.35 105.3 20.85 104.8 20.45 104.8 20.05 104.8 19.75 105.05 19.6 L105.8 19.25 Q104.5 19.0 104.45 17.95 L102.65 17.95 Q101.85 18.0 101.6 18.2 L101.65 18.8 100.9 19.25 99.5 18.9 Q98.45 18.5 98.1 18.1 L97.8 17.55 97.5 17.2 96.5 16.95 97.15 17.8 96.95 18.4 96.75 18.85 95.65 19.05 94.8 19.1 93.9 18.85 93.45 18.6 Q93.55 19.15 92.6 20.15 91.5 21.3 90.15 21.3 L89.05 21.1 Q88.05 20.7 88.05 19.75 88.05 19.5 88.35 19.1 L88.65 18.75 Q86.5 18.45 86.5 17.9 L85.65 17.2 Q84.75 16.7 84.75 16.3 L85.4 15.6 Q85.7 15.05 84.1 13.8 L83.6 13.95 84.5 14.95 84.75 15.7 84.45 16.15 Q83.9 16.6 82.65 16.6 L81.8 16.5 81.7 16.4 Q81.45 17.85 81.0 18.3 80.5 18.75 79.05 18.85 77.2 18.95 76.5 20.05 75.85 21.1 74.45 21.1 72.8 20.55 72.8 19.6 L73.05 19.1 73.2 18.9 Q72.0 19.35 72.1 20.0 72.15 20.55 70.85 20.85 L69.45 21.05 68.45 21.2 68.2 21.85 Q67.95 22.35 66.95 22.35 L65.9 22.25 65.15 22.1 64.7 21.5 64.6 21.0 Q64.6 20.75 65.0 20.7 L65.4 20.4 Q65.4 19.95 64.7 19.45 62.7 19.6 61.2 18.8 60.1 18.25 60.1 17.95 60.1 17.65 60.35 17.25 L59.15 17.7 Q59.55 18.55 59.3 19.05 L58.05 19.2 56.4 18.5 54.6 19.3 53.55 19.55 51.7 19.45 50.3 19.2 49.3 18.5 48.75 18.0 47.0 18.15 45.5 18.3 43.75 18.6 42.85 18.8 42.05 18.7 41.7 18.35 41.5 18.15 41.45 17.8 Q41.45 17.55 42.0 17.65 42.5 17.7 42.5 17.45 L42.4 16.85 42.25 16.7 40.15 16.1 39.3 15.25 38.25 15.65 37.1 15.75 35.95 15.35 34.95 14.9 Q34.45 14.9 34.35 15.1 L33.75 15.3 Q33.15 15.3 32.7 15.0 L32.1 14.6 Q32.6 13.55 35.3 12.6 37.8 11.7 39.8 11.7 L41.2 12.5 40.0 13.25 Q40.0 13.8 40.35 14.0 L42.8 14.15 44.35 14.4 47.2 13.7 48.15 13.85 48.3 14.05 48.45 14.6 48.3 15.05 47.8 15.35 Q49.85 16.0 49.95 16.8 50.05 17.25 51.6 17.25 52.3 17.25 52.75 16.85 L53.3 16.2 51.4 16.15 Q50.7 15.85 50.7 15.25 50.7 14.85 51.25 14.8 52.1 14.65 52.55 14.2 54.0 12.9 55.25 12.9 L57.35 13.15 Q58.95 13.45 58.95 14.15 58.95 14.7 58.35 14.8 59.95 15.15 60.55 15.7 60.95 16.05 60.95 16.75 L64.2 17.0 65.3 16.1 61.45 14.2 Q59.2 13.05 59.2 12.7 59.2 12.35 59.65 12.25 L60.6 12.2 62.75 12.9 64.25 12.35 65.9 12.05 Q66.3 12.05 67.6 13.45 68.9 14.85 68.9 15.2 L68.35 15.75 67.8 16.05 68.2 16.55 68.55 17.0 68.05 17.4 Q67.55 17.7 67.5 17.95 L67.4 18.55 67.2 19.1 69.0 19.45 69.6 19.25 69.7 18.75 69.4 18.3 69.1 18.25 Q69.1 18.1 69.45 17.8 L69.85 17.25 69.3 16.75 Q68.75 16.5 68.75 16.2 68.75 15.85 69.7 15.55 L70.95 15.3 Q71.5 15.3 72.05 15.6 72.8 15.95 72.95 16.75 L74.55 16.05 75.35 15.9 Q75.85 15.9 75.95 16.15 L76.55 16.35 79.65 15.6 81.0 15.85 80.85 15.6 79.75 15.15 Q79.1 14.85 79.1 14.4 L79.3 13.95 79.5 13.75 81.45 13.65 Q80.45 12.55 80.5 12.25 L80.75 11.8 Q80.85 11.5 80.4 11.25 L80.05 10.85 80.0 10.4 Q80.0 10.1 80.2 9.95 L80.35 9.9 82.15 9.8 83.85 10.45 85.5 10.2 87.15 9.95 Q87.9 9.95 88.7 10.4 89.6 10.85 89.6 11.35 89.6 12.1 87.75 12.4 L84.2 13.0 86.85 13.1 88.1 13.0 Q88.7 13.05 89.7 14.0 L90.7 13.45 Q91.85 13.0 93.35 13.0 94.75 13.0 95.1 13.5 L95.3 14.25 Q97.5 14.25 98.5 14.75 99.5 15.25 99.5 16.3 L99.45 16.7 Q101.15 16.55 102.2 15.65 103.25 14.7 104.6 14.7 105.1 14.7 105.3 15.05 105.5 15.4 106.0 15.4 L107.65 15.3 109.15 15.3 M114.4 5.9 L113.7 5.55 113.95 6.0 114.4 5.9 M129.5 14.05 L128.85 14.75 128.3 15.45 131.2 15.35 129.5 14.05 M122.3 3.9 L122.45 3.9 122.3 3.85 122.3 3.9 M135.5 6.8 L135.0 7.0 135.25 6.95 135.6 6.9 135.5 6.8 M158.85 4.3 L158.2 4.3 157.9 4.25 158.4 4.9 158.5 4.85 Q158.85 4.75 158.85 4.3 M176.1 13.4 Q175.95 13.5 176.1 13.95 L176.15 13.75 176.1 13.4 M165.0 12.35 Q165.8 11.7 167.45 11.7 169.15 11.7 169.65 12.5 169.95 12.9 169.85 13.35 L169.55 13.95 169.15 14.25 Q170.7 14.85 170.7 15.2 L170.5 15.6 170.35 15.7 172.1 16.0 172.65 16.55 172.55 16.95 172.4 17.0 171.1 17.15 170.15 17.2 169.3 16.9 Q168.85 16.55 168.15 16.55 L167.55 16.85 166.6 17.1 165.9 17.0 165.7 16.75 Q165.55 16.85 165.55 16.35 165.55 16.0 166.65 14.75 L165.6 15.05 163.95 15.45 Q162.55 14.5 162.8 14.15 L161.25 14.25 160.3 14.4 158.9 15.3 157.55 16.2 155.15 17.15 152.2 17.9 Q151.05 17.9 149.5 17.05 L148.0 17.9 Q147.2 18.45 146.95 18.45 L146.1 18.15 Q145.7 17.8 145.2 17.8 143.9 17.8 142.6 18.95 141.35 20.1 139.1 20.1 L137.8 19.7 Q137.0 19.3 137.0 18.75 137.0 18.4 137.35 18.1 138.0 17.7 139.95 17.15 L139.8 17.0 139.3 16.6 138.0 16.35 137.25 17.4 Q136.5 18.0 135.6 18.0 L135.0 17.65 Q134.85 17.55 133.5 18.45 L131.55 19.5 130.55 19.85 Q129.65 19.85 129.15 19.35 128.75 19.0 128.75 18.5 128.75 18.15 129.2 17.9 L129.6 17.65 125.45 17.3 Q124.85 17.3 124.65 17.55 L124.35 17.8 125.15 18.85 125.6 19.55 Q125.7 20.45 123.8 20.45 L122.55 20.2 121.7 20.0 Q123.3 21.05 121.45 21.65 L119.05 22.1 Q117.5 22.1 117.5 21.05 117.5 20.8 117.9 20.6 L118.25 20.1 Q118.25 19.85 117.85 19.75 117.4 19.65 117.4 19.35 L118.6 18.45 Q119.75 17.8 120.15 17.8 122.45 17.05 122.45 16.15 L122.35 15.05 123.65 14.95 124.7 15.15 124.1 14.55 123.3 14.0 Q123.95 13.2 124.6 13.15 L126.65 12.95 128.1 12.15 Q129.0 11.55 130.35 11.55 131.25 11.55 131.8 12.05 L132.25 12.5 133.65 12.7 Q134.55 12.95 134.55 13.6 L134.05 14.05 133.0 14.4 Q133.4 14.6 133.6 15.15 135.0 14.5 135.15 14.5 135.85 14.5 137.4 16.0 L137.0 15.55 Q137.4 14.6 138.45 14.25 L139.6 14.1 140.75 14.7 141.95 15.5 142.35 15.45 Q142.5 14.75 143.1 14.45 143.5 14.2 143.95 14.2 145.4 14.2 146.5 15.25 L147.95 15.0 149.35 14.65 150.0 14.75 150.65 14.5 Q151.6 13.95 152.9 13.95 L153.9 14.0 154.3 14.05 Q153.65 12.6 154.0 11.95 L155.35 11.8 Q156.95 11.85 158.2 11.1 159.5 10.4 160.75 10.4 161.75 10.4 163.15 11.8 164.5 13.15 164.15 13.55 L164.35 13.55 Q164.35 12.85 165.0 12.35 M166.15 4.15 L165.9 3.75 165.8 3.25 164.6 3.6 165.45 4.05 166.15 4.15 M183.85 3.6 L183.65 3.55 184.0 3.8 183.85 3.6 M221.4 16.95 L221.85 17.6 Q221.65 18.6 219.3 18.6 217.05 18.3 216.85 17.95 217.2 17.45 218.25 16.95 219.35 16.45 220.25 16.45 220.85 16.45 221.4 16.95 M213.0 8.15 L213.6 8.05 213.0 7.6 212.35 7.75 212.2 7.85 213.0 8.15 M218.7 2.65 L220.3 2.4 221.15 2.45 221.55 2.55 221.75 3.35 Q221.5 3.75 220.7 4.2 L219.75 4.7 220.3 5.0 220.55 5.5 220.35 6.65 218.85 6.95 217.35 6.3 216.75 6.7 216.4 6.9 Q216.4 8.2 215.7 8.45 L214.95 8.5 215.15 9.7 213.7 9.9 211.9 9.5 Q210.4 9.0 210.4 8.55 L210.7 8.15 209.3 7.85 209.05 8.35 Q209.8 8.75 209.8 9.2 L209.65 9.75 Q209.55 9.95 209.8 10.15 L210.2 10.4 210.35 10.9 210.2 11.35 209.9 11.55 208.95 11.75 207.3 11.0 206.5 10.6 204.3 10.95 Q202.15 11.05 202.15 9.75 L201.15 9.1 Q200.15 8.7 200.15 8.25 L200.1 7.5 198.9 6.95 197.7 8.05 197.85 8.75 197.8 9.3 196.5 9.5 195.65 9.45 195.05 9.4 194.55 7.75 Q194.45 7.55 193.0 7.3 L192.75 7.35 193.05 8.35 Q192.9 9.15 191.2 9.15 L189.75 9.0 Q188.45 8.65 188.45 7.75 188.45 7.45 188.95 7.35 L189.4 6.95 189.0 6.1 Q188.6 5.5 188.7 5.3 L187.25 5.1 187.5 5.45 187.7 6.75 Q187.5 7.6 185.55 7.6 L184.6 7.55 184.4 7.45 184.0 6.5 184.2 6.1 184.15 5.75 180.55 5.3 179.85 5.5 Q180.9 5.95 180.4 6.55 179.85 7.15 178.05 7.15 L177.45 6.9 Q177.35 6.65 176.85 6.65 L176.05 6.8 176.0 7.0 Q175.75 8.35 174.0 8.35 L173.1 8.25 172.9 8.2 172.55 7.25 Q172.75 6.8 172.3 6.05 L172.0 6.2 Q171.15 6.35 170.75 6.9 170.45 7.4 169.35 7.4 L165.7 7.1 163.7 5.8 Q163.2 5.4 162.7 5.4 161.05 5.4 160.8 6.05 160.5 6.7 159.7 6.7 L157.8 5.9 156.5 6.05 153.95 5.6 153.7 5.8 155.45 6.5 155.8 6.95 155.25 7.65 Q154.5 8.2 153.2 8.2 152.5 8.2 151.75 7.85 151.0 7.5 150.85 7.5 L148.85 7.85 Q147.6 7.9 147.7 6.65 L146.45 6.5 144.7 6.25 144.2 7.05 Q143.5 7.75 141.7 7.75 L140.95 7.55 139.35 7.0 138.75 7.4 Q139.7 7.35 140.15 7.8 L138.75 8.45 Q136.95 9.4 135.7 9.4 L134.15 9.55 132.6 9.7 131.6 9.55 131.2 8.8 Q131.55 8.3 133.05 7.65 L134.55 7.05 133.35 6.35 Q133.35 5.35 134.65 5.15 L133.35 4.75 129.45 5.9 128.3 5.55 Q127.45 5.0 127.45 3.9 L127.35 2.65 126.45 3.6 Q126.0 4.2 124.15 4.55 L123.5 4.45 Q123.85 5.0 123.4 5.45 122.85 5.95 121.45 5.95 L120.8 5.9 119.55 6.05 120.35 6.7 120.7 7.45 120.35 8.0 119.45 8.45 117.95 8.1 116.45 7.7 116.15 7.9 115.95 8.3 116.1 9.0 116.1 9.5 115.05 9.75 114.15 9.75 112.6 9.65 110.7 9.75 Q110.75 10.45 109.5 11.0 L108.8 10.65 109.05 10.15 108.65 9.5 Q107.5 8.8 107.5 8.35 107.5 7.8 109.75 7.15 L108.65 6.5 Q107.05 7.2 106.5 7.2 L105.55 7.05 105.3 6.9 105.4 7.3 Q105.7 7.8 105.6 8.1 105.4 8.65 103.75 8.65 L102.85 8.6 102.3 8.5 Q101.8 7.1 101.8 6.5 101.8 6.1 102.15 6.05 102.85 6.0 103.5 5.4 L98.6 6.6 96.05 6.5 Q94.2 5.45 92.95 4.95 L92.5 5.1 92.4 5.85 92.1 6.65 92.2 7.65 90.95 7.85 88.75 7.0 Q87.6 6.4 87.6 5.7 L87.7 4.95 86.95 5.1 86.45 5.65 Q85.75 6.1 84.85 6.1 84.25 6.1 83.5 5.7 L82.7 5.2 82.4 5.3 Q82.35 5.7 81.3 6.1 L79.55 6.5 78.75 6.4 78.35 6.35 Q77.95 6.0 77.95 5.45 77.95 5.15 78.3 4.9 L78.7 4.6 Q77.2 5.3 75.8 5.95 L74.25 6.5 73.4 6.95 71.9 7.4 Q71.1 7.4 69.9 6.2 L68.9 4.9 Q68.9 4.6 69.05 4.5 L69.15 4.45 70.75 4.35 72.15 4.55 73.45 4.85 74.25 4.55 Q73.95 4.25 74.0 3.75 L74.05 3.0 76.55 2.9 78.1 2.85 81.55 2.75 82.7 3.15 83.5 3.55 85.15 3.2 87.35 2.8 Q88.25 2.8 88.45 3.1 88.9 3.55 89.6 3.9 89.7 3.4 91.2 2.3 92.9 1.0 94.15 1.0 L95.15 1.2 Q96.1 1.55 96.1 2.3 L96.1 2.6 96.75 2.65 98.25 2.75 100.05 2.05 Q105.4 3.9 105.4 4.2 L105.3 4.6 104.95 4.85 105.3 4.75 106.65 4.8 107.95 4.9 108.5 4.55 Q109.1 4.2 109.45 4.2 L111.75 4.7 113.55 5.4 Q113.45 3.55 115.55 3.55 116.05 3.55 116.25 3.8 L116.9 4.0 Q117.9 4.0 118.35 3.65 L118.3 2.8 118.5 1.95 120.15 1.8 122.1 3.1 122.4 2.95 122.55 2.6 Q122.55 1.75 123.05 1.05 123.45 0.45 124.1 0.25 L126.25 1.3 Q126.95 0.35 128.15 0.35 128.85 0.35 129.8 1.45 131.0 2.8 131.65 3.15 L132.75 2.7 Q133.35 2.35 134.2 2.35 L136.05 2.75 Q137.4 3.25 137.4 3.85 137.4 4.4 136.55 4.7 L135.25 5.1 137.3 5.55 Q137.7 5.7 138.6 6.15 139.1 5.8 139.95 5.5 L142.2 5.2 143.3 5.4 144.0 5.75 Q144.45 5.15 146.5 4.75 L148.9 4.55 Q149.9 4.55 150.1 4.95 L150.25 4.75 Q150.05 4.3 150.35 3.55 L150.8 3.4 151.5 3.4 152.1 3.55 153.1 4.05 151.9 3.1 151.4 2.55 Q151.4 1.9 152.85 1.55 L155.25 1.3 157.15 1.6 158.4 2.35 Q159.2 1.5 160.45 1.5 L161.35 1.8 162.2 2.0 163.45 1.8 Q164.2 1.5 164.7 1.5 165.0 1.5 166.05 2.05 L167.15 2.6 168.25 2.7 Q168.9 2.85 169.6 3.7 L170.35 3.85 171.45 3.95 Q172.4 3.95 173.95 3.15 174.95 3.15 175.4 3.6 L176.1 4.3 176.85 3.4 Q177.1 3.05 178.1 3.05 L178.8 2.8 179.0 2.45 180.2 2.3 181.15 2.35 183.4 1.6 185.65 0.8 Q186.3 0.8 188.85 2.5 L192.05 4.9 Q192.2 4.85 192.3 4.75 192.1 4.6 192.05 4.25 L192.1 3.65 193.75 3.45 195.2 4.5 Q195.9 5.05 195.9 5.6 L196.25 5.6 197.2 4.8 198.6 4.5 200.3 5.2 201.35 4.95 202.4 4.7 Q202.85 4.7 203.4 5.05 204.15 5.5 204.15 6.15 L203.95 6.55 203.55 6.65 205.7 6.7 206.65 6.65 208.7 6.95 209.65 6.1 210.25 5.2 210.2 4.2 211.8 4.15 Q212.3 4.15 212.85 4.5 213.45 4.9 214.1 4.95 214.1 4.15 215.2 3.55 216.1 3.1 217.2 3.05 218.3 3.0 218.7 2.65 M224.15 12.65 L224.75 13.5 Q220.15 15.85 219.05 15.85 L217.9 15.75 217.1 15.4 216.15 16.05 216.7 16.35 217.05 16.95 Q217.05 17.15 216.4 17.35 L214.95 17.75 Q215.35 18.0 215.05 18.55 L214.35 19.35 213.1 19.7 211.55 20.05 208.75 20.95 207.25 20.8 Q205.9 20.45 205.9 19.35 205.9 18.55 207.35 18.2 209.35 17.7 209.9 17.25 L206.8 16.95 206.7 16.9 206.7 16.95 206.75 17.0 Q207.25 17.65 206.3 18.2 205.2 18.9 203.15 18.9 L201.6 18.6 201.05 17.75 Q200.4 19.05 198.8 19.0 197.7 19.0 197.45 18.05 197.2 17.15 194.85 17.15 L193.7 17.25 192.6 17.4 189.1 16.8 Q188.3 16.3 188.1 16.3 L187.3 16.5 186.5 16.7 184.3 16.45 182.1 16.2 181.6 16.3 181.85 16.3 181.35 16.95 Q180.95 17.3 180.65 17.3 179.3 17.3 178.25 15.65 L177.55 16.1 176.95 16.35 Q178.05 17.2 176.8 17.8 L174.25 18.35 173.45 18.25 172.9 18.15 172.45 17.25 173.6 16.15 Q173.6 15.85 172.15 15.35 170.7 14.9 170.7 14.05 170.7 12.85 173.35 12.45 L174.45 12.0 175.5 11.6 Q177.2 11.4 178.0 10.7 178.7 10.15 180.8 10.15 181.65 10.15 183.0 12.6 184.35 15.0 186.2 15.0 L189.95 14.2 193.7 13.35 Q194.7 13.35 194.95 13.8 L195.05 13.75 Q196.45 12.65 198.65 12.65 199.95 12.65 200.55 13.25 200.95 13.6 200.95 13.95 200.95 14.45 197.55 15.2 198.5 15.5 198.75 16.0 L200.8 16.3 201.7 16.1 206.45 16.85 Q203.15 15.95 204.6 16.2 205.9 16.5 206.4 16.75 L206.35 16.1 Q206.35 15.8 206.5 15.7 L206.6 15.65 209.8 15.4 210.8 15.45 211.7 15.6 Q212.3 15.6 212.7 16.05 L213.15 16.7 213.6 16.3 214.1 15.75 213.6 15.25 Q213.1 15.0 213.1 14.75 L213.65 14.4 214.6 14.15 Q215.6 14.2 216.5 14.7 216.8 14.15 219.25 13.05 221.7 11.95 222.8 11.95 223.5 11.95 224.15 12.65 M244.3 13.55 Q244.3 14.05 245.6 15.55 246.2 16.85 243.15 16.85 L242.65 16.7 241.55 16.15 240.5 17.2 240.35 17.7 Q240.0 18.1 238.6 18.1 L237.6 18.0 237.2 17.9 235.2 17.65 234.85 17.45 233.75 17.35 Q233.4 17.35 233.4 17.7 L233.15 18.15 232.1 18.2 Q231.6 18.2 231.15 18.45 L230.15 18.7 228.65 18.45 227.35 18.2 225.55 18.15 224.4 18.0 222.35 17.3 220.95 16.4 Q220.95 16.0 221.8 15.55 222.5 15.15 222.75 15.15 L223.6 15.35 224.4 15.7 225.45 15.8 227.05 16.0 230.7 16.65 Q230.95 16.65 231.6 17.25 L231.7 17.2 Q232.05 16.55 233.25 16.1 L235.2 15.7 234.0 15.35 Q233.05 14.95 233.05 14.4 233.4 13.75 233.15 13.3 L232.5 12.6 232.05 12.25 232.15 11.9 232.25 11.9 234.0 11.7 237.4 12.15 Q240.0 12.65 240.0 13.15 L239.65 13.6 Q239.55 13.8 240.8 14.75 L241.65 14.15 241.05 13.75 Q240.7 13.45 240.7 13.15 240.7 12.85 240.85 12.65 L241.0 12.45 242.3 12.35 Q244.3 12.85 244.3 13.55 M249.85 16.55 L249.1 16.9 247.8 17.25 246.95 17.2 246.35 17.15 Q246.0 16.4 246.0 15.65 L246.25 14.55 Q246.65 13.65 247.3 13.35 248.0 13.6 248.8 14.0 L250.55 14.6 Q251.05 14.0 251.7 13.7 L252.4 13.55 253.5 13.75 254.0 14.15 256.55 12.95 Q257.05 12.95 256.95 13.2 256.85 13.4 257.35 13.4 L258.7 13.1 260.45 12.75 Q261.45 12.75 261.2 13.1 L261.3 13.1 261.4 13.45 260.95 14.15 Q260.45 14.55 260.45 14.8 L260.9 15.2 Q261.3 15.25 261.3 15.55 261.3 15.8 259.9 16.55 258.55 17.3 257.95 17.45 258.95 18.85 256.45 18.85 L255.6 18.8 255.45 18.75 255.1 17.8 255.3 17.2 Q255.25 16.75 254.8 16.6 L254.0 16.6 252.2 17.2 249.85 16.55 M257.7 9.45 L257.4 8.9 257.35 8.45 Q257.35 7.95 259.85 7.55 262.35 7.15 262.35 8.55 262.35 8.9 261.55 9.25 L259.65 9.65 258.55 9.55 257.7 9.45 M258.9 3.8 L258.2 4.0 258.3 4.2 258.9 3.8 M289.95 4.6 L288.85 3.75 288.2 3.45 288.15 3.85 286.95 4.95 287.55 5.2 Q288.4 4.6 289.95 4.6 M306.95 16.1 L306.6 15.85 306.25 15.9 306.95 16.1 M313.2 6.45 L313.45 6.65 315.85 5.9 Q314.6 5.9 313.2 6.45 M311.25 6.0 L311.15 5.7 310.8 5.9 311.05 6.2 311.25 6.0 M328.9 12.95 L328.55 12.45 Q327.15 13.05 326.65 13.35 L327.05 13.3 327.9 13.2 328.9 12.95 M333.0 16.7 Q333.0 16.3 333.55 16.0 L334.9 15.7 Q335.7 15.7 336.25 16.0 336.8 16.3 336.8 16.7 336.8 17.1 336.25 17.35 L334.9 17.65 333.55 17.35 Q333.0 17.1 333.0 16.7" fill="#ffffff" fill-rule="evenodd" stroke="none"/>
  </g>
</svg>
