<?xml version="1.0" encoding="UTF-8" standalone="no"?>
<svg xmlns:ffdec="https://www.free-decompiler.com/flash" xmlns:xlink="http://www.w3.org/1999/xlink" ffdec:objectType="shape" height="27.0px" width="198.8px" xmlns="http://www.w3.org/2000/svg">
  <g transform="matrix(1.0, 0.0, 0.0, 1.0, 0.5, 0.5)">
    <path d="M192.75 0.0 Q197.8 0.0 197.8 5.0 L197.8 21.0 Q197.8 26.0 192.75 26.0 L5.0 26.0 Q0.0 26.0 0.0 21.0 L0.0 5.0 Q0.0 0.0 5.0 0.0 L192.75 0.0 M1.0 6.0 Q1.0 1.0 6.0 1.0 1.0 1.0 1.0 6.0 L1.0 22.0 1.0 6.0 M6.0 1.0 L193.75 1.0 6.0 1.0" fill="url(#gradient0)" fill-rule="evenodd" stroke="none"/>
    <path d="M192.75 0.0 L5.0 0.0 Q0.0 0.0 0.0 5.0 L0.0 21.0 Q0.0 26.0 5.0 26.0 L192.75 26.0 Q197.8 26.0 197.8 21.0 L197.8 5.0 Q197.8 0.0 192.75 0.0" fill="none" stroke="#010101" stroke-linecap="round" stroke-linejoin="round" stroke-width="1.0"/>
    <path d="M6.0 1.0 Q1.0 1.0 1.0 6.0" fill="none" stroke="#bababa" stroke-linecap="round" stroke-linejoin="round" stroke-width="1.0"/>
    <path d="M193.75 1.0 L6.0 1.0" fill="none" stroke="url(#gradient1)" stroke-linecap="round" stroke-linejoin="round" stroke-width="1.0"/>
    <path d="M1.0 6.0 L1.0 22.0" fill="none" stroke="url(#gradient2)" stroke-linecap="round" stroke-linejoin="round" stroke-width="1.0"/>
  </g>
  <defs>
    <linearGradient gradientTransform="matrix(0.0, 0.014, -0.0159, 0.0, 98.85, 13.0)" gradientUnits="userSpaceOnUse" id="gradient0" spreadMethod="pad" x1="-819.2" x2="819.2">
      <stop offset="0.0" stop-color="#898989"/>
      <stop offset="0.4588235294117647" stop-color="#595959"/>
      <stop offset="1.0" stop-color="#3c3c3c"/>
    </linearGradient>
    <linearGradient gradientTransform="matrix(0.1213, 0.0, 0.0, 0.0165, 98.85, 13.0)" gradientUnits="userSpaceOnUse" id="gradient1" spreadMethod="pad" x1="-819.2" x2="819.2">
      <stop offset="0.6901960784313725" stop-color="#bababa"/>
      <stop offset="1.0" stop-color="#898989"/>
    </linearGradient>
    <linearGradient gradientTransform="matrix(0.0, 0.0058, -0.0104, -1.0E-4, 1.05, 12.1)" gradientUnits="userSpaceOnUse" id="gradient2" spreadMethod="pad" x1="-819.2" x2="819.2">
      <stop offset="0.0" stop-color="#bababa"/>
      <stop offset="0.7294117647058823" stop-color="#595959"/>
      <stop offset="1.0" stop-color="#3c3c3c"/>
    </linearGradient>
  </defs>
</svg>
