<?xml version="1.0" encoding="UTF-8" standalone="no"?>
<svg xmlns:ffdec="https://www.free-decompiler.com/flash" xmlns:xlink="http://www.w3.org/1999/xlink" ffdec:objectType="shape" height="63.4px" width="73.85px" xmlns="http://www.w3.org/2000/svg">
  <g transform="matrix(1.0, 0.0, 0.0, 1.0, 0.0, 0.0)">
    <path d="M45.85 18.7 L45.95 18.7 43.85 15.15 43.8 15.25 39.0 7.05 38.4 6.1 37.8 5.5 Q36.9 6.2 35.7 8.05 L35.7 8.1 29.7 17.55 29.9 16.8 24.7 25.45 24.6 25.75 5.6 56.7 5.5 56.8 5.25 57.85 5.75 58.1 6.2 58.2 48.55 58.0 49.25 58.2 67.65 58.2 68.6 57.5 68.35 56.55 68.4 56.6 66.05 52.45 65.9 52.3 64.5 49.95 64.1 49.95 58.85 40.4 59.15 40.3 50.35 26.15 49.85 25.8 50.35 25.65 45.85 18.7 M43.45 4.2 L43.5 4.4 70.4 49.6 70.65 49.95 73.0 54.25 Q74.5 57.3 73.3 59.65 72.4 61.75 69.2 63.2 L68.6 63.4 68.15 63.4 6.1 63.4 5.75 63.4 4.55 63.2 4.3 63.1 Q1.1 62.0 0.4 59.75 -0.55 57.65 0.85 54.6 L1.0 54.35 31.45 4.4 31.45 4.3 Q32.6 2.5 33.7 1.5 35.1 0.2 36.65 0.15 38.4 -0.3 40.2 0.85 41.35 1.5 42.45 2.9 L42.65 3.15 43.45 4.2" fill="#000000" fill-rule="evenodd" stroke="none"/>
    <path d="M45.85 18.7 L50.35 25.65 49.85 25.8 50.35 26.15 59.15 40.3 58.85 40.4 64.1 49.95 64.5 49.95 65.9 52.3 66.05 52.45 68.4 56.6 68.35 56.55 68.6 57.5 67.65 58.2 49.25 58.2 48.55 58.0 6.2 58.2 5.75 58.1 5.25 57.85 5.5 56.8 5.6 56.7 24.6 25.75 24.7 25.45 29.9 16.8 29.7 17.55 35.7 8.1 35.7 8.05 Q36.9 6.2 37.8 5.5 L38.4 6.1 39.0 7.05 43.8 15.25 43.85 15.15 45.95 18.7 45.85 18.7" fill="#ffff10" fill-rule="evenodd" stroke="none"/>
    <path d="M41.2 45.9 Q42.5 47.2 42.55 49.1 42.5 50.4 41.9 51.4 41.3 52.45 40.3 53.05 39.25 53.65 38.0 53.7 36.05 53.6 34.75 52.35 33.5 51.05 33.45 49.1 33.5 47.2 34.75 45.9 36.05 44.65 38.0 44.55 39.9 44.65 41.2 45.9 M42.9 25.8 Q42.9 28.7 42.3 31.85 L40.8 37.55 40.15 39.3 39.1 41.55 Q38.5 42.6 38.0 42.6 37.5 42.6 36.9 41.55 L35.85 39.3 35.15 37.55 Q34.25 34.95 33.7 31.85 33.1 28.7 33.05 25.8 33.05 23.5 33.55 21.35 34.1 19.3 35.15 17.95 36.25 16.55 38.0 16.5 39.75 16.55 40.8 17.95 41.9 19.3 42.4 21.35 42.9 23.5 42.9 25.8" fill="#000000" fill-rule="evenodd" stroke="none"/>
  </g>
</svg>
