<?xml version="1.0" encoding="UTF-8" standalone="no"?>
<svg xmlns:ffdec="https://www.free-decompiler.com/flash" xmlns:xlink="http://www.w3.org/1999/xlink" ffdec:objectType="shape" height="23.7px" width="29.25px" xmlns="http://www.w3.org/2000/svg">
  <g transform="matrix(1.0, 0.0, 0.0, 1.0, 0.0, 0.0)">
    <path d="M22.15 17.4 Q22.55 15.85 24.1 15.7 26.45 18.1 26.05 18.9 32.25 20.7 26.45 23.45 24.95 24.15 23.85 22.9 L22.75 22.65 Q21.8 22.4 22.0 21.05 L22.0 21.0 21.1 20.75 Q19.85 20.35 21.05 19.15 21.55 18.6 22.2 18.55 21.95 18.2 22.15 17.4 M22.8 18.85 L23.3 19.3 23.65 19.05 22.8 18.85 M11.95 0.65 Q12.55 0.0 13.35 0.0 17.7 3.95 12.0 2.25 10.75 1.9 11.95 0.65 M9.3 5.8 Q12.3 8.85 11.2 10.7 13.6 12.6 13.0 14.65 17.7 18.7 11.7 21.45 9.35 22.5 8.65 20.1 L8.55 19.75 6.1 20.0 Q5.1 20.0 5.2 18.75 5.4 16.2 7.65 15.7 L7.7 15.75 Q7.25 13.95 7.8 12.6 6.7 12.8 6.55 11.3 6.2 7.25 9.3 5.8 M0.1 20.15 Q0.5 18.6 2.05 18.5 6.7 23.2 0.5 21.55 -0.2 21.35 0.1 20.15" fill="#a89a68" fill-rule="evenodd" stroke="none"/>
  </g>
</svg>
