<?xml version="1.0" encoding="UTF-8" standalone="no"?>
<svg xmlns:ffdec="https://www.free-decompiler.com/flash" xmlns:xlink="http://www.w3.org/1999/xlink" ffdec:objectType="shape" height="63.4px" width="73.85px" xmlns="http://www.w3.org/2000/svg">
  <g transform="matrix(1.0, 0.0, 0.0, 1.0, 0.0, 0.0)">
    <path d="M42.45 2.9 L42.65 3.15 43.45 4.2 43.5 4.4 70.4 49.6 70.65 49.95 73.0 54.25 Q74.5 57.3 73.3 59.65 72.4 61.75 69.2 63.2 L68.6 63.4 68.15 63.4 6.1 63.4 5.75 63.4 4.55 63.2 4.3 63.1 Q1.1 62.0 0.4 59.75 -0.55 57.65 0.85 54.6 L1.0 54.35 31.45 4.4 31.45 4.3 Q32.6 2.5 33.7 1.5 35.1 0.2 36.65 0.15 38.4 -0.3 40.2 0.85 41.35 1.5 42.45 2.9 M45.85 18.7 L45.95 18.7 43.85 15.15 43.8 15.25 39.0 7.05 38.4 6.1 37.8 5.5 Q36.9 6.2 35.7 8.05 L35.7 8.1 29.7 17.55 29.9 16.8 24.7 25.45 24.6 25.75 5.6 56.7 5.5 56.8 5.25 57.85 5.75 58.1 6.2 58.2 48.55 58.0 49.25 58.2 67.65 58.2 68.6 57.5 68.35 56.55 68.4 56.6 66.05 52.45 65.9 52.3 64.5 49.95 64.1 49.95 58.85 40.4 59.15 40.3 50.35 26.15 49.85 25.8 50.35 25.65 45.85 18.7" fill="#000000" fill-rule="evenodd" stroke="none"/>
    <path d="M45.85 18.7 L50.35 25.65 49.85 25.8 50.35 26.15 59.15 40.3 58.85 40.4 64.1 49.95 64.5 49.95 65.9 52.3 66.05 52.45 68.4 56.6 68.35 56.55 68.6 57.5 67.65 58.2 49.25 58.2 48.55 58.0 6.2 58.2 5.75 58.1 5.25 57.85 5.5 56.8 5.6 56.7 24.6 25.75 24.7 25.45 29.9 16.8 29.7 17.55 35.7 8.1 35.7 8.05 Q36.9 6.2 37.8 5.5 L38.4 6.1 39.0 7.05 43.8 15.25 43.85 15.15 45.95 18.7 45.85 18.7" fill="#ffff10" fill-rule="evenodd" stroke="none"/>
    <path d="M38.65 43.15 L33.55 40.65 33.55 45.5 29.8 44.2 31.0 48.3 28.5 48.3 34.5 53.75 18.8 53.75 26.95 52.0 18.2 43.15 26.95 46.1 24.0 37.35 31.0 40.05 29.9 28.6 35.7 31.45 38.65 16.9 41.6 31.45 47.4 28.6 45.4 40.05 53.3 37.35 50.35 46.1 56.25 43.15 50.35 52.0 57.75 53.75 42.75 53.75 47.95 48.3 45.4 48.3 46.9 43.45 42.9 45.5 41.6 40.3 38.65 43.15" fill="#000000" fill-rule="evenodd" stroke="none"/>
  </g>
</svg>
