<?xml version="1.0" encoding="UTF-8" standalone="no"?>
<svg xmlns:ffdec="https://www.free-decompiler.com/flash" xmlns:xlink="http://www.w3.org/1999/xlink" ffdec:objectType="shape" height="36.55px" width="42.5px" xmlns="http://www.w3.org/2000/svg">
  <g transform="matrix(1.0, 0.0, 0.0, 1.0, 1.5, 1.55)">
    <path d="M40.55 29.75 Q41.4 31.5 40.7 32.85 40.2 34.05 38.35 34.9 L37.75 35.0 2.0 35.0 1.8 35.0 1.1 34.9 0.95 34.85 Q-0.9 34.2 -1.3 32.9 -1.85 31.7 -1.05 29.95 L-0.95 29.8 16.6 1.0 16.6 0.95 Q18.0 -1.35 19.6 -1.45 21.3 -1.9 22.95 0.15 L23.05 0.3 23.5 0.9 23.55 1.0 39.05 27.05 40.55 29.75 M20.95 2.55 L20.6 2.0 20.05 1.55 Q19.65 1.7 19.15 2.55 L1.7 31.15 1.65 31.2 1.5 31.8 1.8 31.95 2.05 32.0 37.45 32.0 38.0 31.6 37.85 31.05 37.9 31.1 36.55 28.7 36.45 28.6 20.95 2.55" fill="#000000" fill-rule="evenodd" stroke="none"/>
    <path d="M20.95 2.55 L36.45 28.6 36.55 28.7 37.9 31.1 37.85 31.05 38.0 31.6 37.45 32.0 2.05 32.0 1.8 31.95 1.5 31.8 1.65 31.2 1.7 31.15 19.15 2.55 Q19.65 1.7 20.05 1.55 L20.6 2.0 20.95 2.55" fill="url(#gradient0)" fill-rule="evenodd" stroke="none"/>
  </g>
  <defs>
    <radialGradient cx="0" cy="0" gradientTransform="matrix(0.0335, 0.0, 0.0, 0.0335, 20.5, 4.5)" gradientUnits="userSpaceOnUse" id="gradient0" r="819.2" spreadMethod="pad">
      <stop offset="0.0" stop-color="#ffffff"/>
      <stop offset="1.0" stop-color="#ffff00"/>
    </radialGradient>
  </defs>
</svg>
