<?xml version="1.0" encoding="UTF-8" standalone="no"?>
<svg xmlns:ffdec="https://www.free-decompiler.com/flash" xmlns:xlink="http://www.w3.org/1999/xlink" ffdec:objectType="shape" height="16.9px" width="16.9px" xmlns="http://www.w3.org/2000/svg">
  <g transform="matrix(1.0, 0.0, 0.0, 1.0, -11.65, -12.35)">
    <path d="M26.65 20.8 Q26.65 18.05 24.7 16.15 22.8 14.25 20.1 14.25 17.4 14.25 15.45 16.15 L15.4 16.2 Q13.5 18.05 13.5 20.75 13.5 23.5 15.45 25.45 L15.4 25.45 Q17.35 27.35 20.1 27.35 22.75 27.35 24.7 25.45 26.65 23.5 26.65 20.8 M26.05 14.8 Q28.55 17.3 28.55 20.8 28.55 24.25 26.05 26.75 L26.1 26.75 Q23.6 29.25 20.1 29.25 16.6 29.25 14.1 26.75 11.65 24.25 11.65 20.75 11.65 17.3 14.1 14.8 16.6 12.35 20.1 12.35 23.6 12.35 26.05 14.8 M21.15 21.45 Q21.15 21.95 20.8 22.3 20.5 22.65 20.0 22.65 19.5 22.65 19.15 22.3 18.85 21.95 18.85 21.45 L18.95 21.0 20.05 15.4 20.95 20.9 21.15 21.45" fill="#000000" fill-rule="evenodd" stroke="none"/>
  </g>
</svg>
