<?xml version="1.0" encoding="UTF-8" standalone="no"?>
<svg xmlns:ffdec="https://www.free-decompiler.com/flash" xmlns:xlink="http://www.w3.org/1999/xlink" ffdec:objectType="shape" height="36.55px" width="42.5px" xmlns="http://www.w3.org/2000/svg">
  <g transform="matrix(1.0, 0.0, 0.0, 1.0, 1.5, 1.55)">
    <path d="M40.55 29.75 Q41.4 31.5 40.7 32.85 40.2 34.05 38.35 34.9 L37.75 35.0 2.0 35.0 1.8 35.0 1.1 34.9 0.95 34.85 Q-0.9 34.2 -1.3 32.9 -1.85 31.7 -1.05 29.95 L-0.95 29.8 16.6 1.0 16.6 0.95 Q18.0 -1.35 19.6 -1.45 21.3 -1.9 22.95 0.15 L23.05 0.3 23.5 0.9 23.55 1.0 39.05 27.05 40.55 29.75 M20.95 2.55 L20.6 2.0 20.05 1.55 Q19.65 1.7 19.15 2.55 L1.7 31.15 1.65 31.2 1.5 31.8 1.8 31.95 2.05 32.0 37.45 32.0 38.0 31.6 37.85 31.05 37.9 31.1 36.55 28.7 36.45 28.6 20.95 2.55" fill="#000000" fill-rule="evenodd" stroke="none"/>
    <path d="M20.95 2.55 L36.45 28.6 36.55 28.7 37.9 31.1 37.85 31.05 38.0 31.6 37.45 32.0 2.05 32.0 1.8 31.95 1.5 31.8 1.65 31.2 1.7 31.15 19.15 2.55 Q19.65 1.7 20.05 1.55 L20.6 2.0 20.95 2.55" fill="url(#gradient0)" fill-rule="evenodd" stroke="none"/>
    <path d="M21.65 16.6 Q21.3 16.5 22.05 17.6 22.3 17.95 22.75 17.95 24.65 17.8 24.0 16.0 22.85 15.4 21.65 16.6 M24.65 18.85 Q25.25 19.8 23.8 20.2 L23.35 20.2 Q23.25 19.9 22.8 20.2 L22.0 20.75 22.0 21.5 22.0 21.55 21.55 21.5 21.5 21.05 21.3 21.1 21.0 21.8 20.75 21.8 20.65 21.3 20.45 21.3 20.4 21.8 20.4 21.85 19.85 21.85 19.9 21.25 19.7 21.25 19.65 21.75 19.1 21.7 19.1 21.1 18.85 20.95 18.8 21.1 18.8 21.25 Q18.2 21.1 18.35 20.65 L18.2 20.55 18.1 20.8 18.1 20.85 Q17.6 20.65 17.65 20.15 L17.15 19.6 Q16.4 20.0 15.6 19.6 15.25 18.75 15.6 18.1 15.9 17.65 15.6 17.35 L14.85 16.6 Q13.85 12.95 15.6 11.35 16.3 10.35 17.65 9.85 L19.05 9.6 22.4 9.85 Q26.2 10.75 25.4 15.85 L24.65 17.35 24.65 18.85 M21.35 19.0 Q21.15 17.7 19.95 17.15 19.25 18.15 19.8 19.0 L19.95 18.95 20.0 18.7 Q20.5 18.55 20.85 19.0 21.1 19.3 21.35 19.0 M20.9 21.55 L20.9 21.65 20.95 21.65 20.9 21.55 M20.9 21.25 L20.85 21.25 20.9 21.35 20.9 21.25 M21.75 21.25 L21.7 21.25 21.7 21.35 21.75 21.25 M22.1 22.0 L22.1 21.8 22.55 21.85 Q22.6 21.1 23.0 20.75 L23.0 22.95 22.7 23.7 22.4 24.0 Q19.9 25.5 17.9 23.7 L17.15 22.8 17.15 20.65 Q17.7 21.2 17.6 22.1 L17.6 22.15 17.75 21.7 17.85 21.7 18.2 21.7 18.25 22.3 18.25 22.5 18.4 22.0 18.45 21.85 Q19.05 21.85 18.95 22.55 19.15 21.8 19.5 22.5 L19.55 22.75 20.1 22.85 Q20.25 21.85 20.65 22.8 L20.85 22.75 20.85 22.4 20.9 22.25 Q21.1 22.1 21.3 22.25 L21.35 22.5 21.4 22.6 21.45 22.25 21.45 22.1 Q22.0 22.0 22.0 22.65 L22.1 22.0 M24.85 22.65 Q25.15 21.6 25.95 22.25 L26.25 22.75 26.25 22.95 Q27.3 23.15 26.8 24.3 26.55 24.85 25.8 24.5 L25.4 24.3 21.85 26.2 25.4 28.0 25.9 28.1 Q27.4 27.7 27.3 29.2 L26.85 29.65 26.95 29.85 26.85 30.6 26.85 30.65 Q25.35 30.95 25.25 29.7 L25.25 29.4 Q22.6 28.45 20.35 26.7 L20.2 26.6 16.85 28.55 Q14.85 29.65 14.1 30.3 13.4 30.9 13.0 30.6 12.55 30.25 12.6 29.95 11.5 29.6 12.45 28.75 13.05 28.25 13.85 28.25 L14.5 28.15 Q16.85 27.5 18.95 26.2 17.0 25.05 14.85 24.45 L14.5 24.55 Q13.35 25.2 13.05 24.2 12.85 23.5 13.2 22.95 L13.4 22.5 Q13.45 22.0 13.9 22.0 14.35 21.9 14.55 22.15 L14.85 22.65 17.3 24.0 19.2 25.2 20.15 25.65 21.7 25.15 23.5 24.25 Q24.55 23.7 24.85 22.65 M18.8 17.65 Q19.55 17.1 19.3 16.65 L18.7 16.05 17.9 15.85 Q16.9 15.65 16.5 16.25 L16.8 17.35 Q17.3 17.9 17.75 17.9 L18.8 17.65 M20.1 21.3 L20.15 21.4 20.15 21.3 20.1 21.3" fill="#000000" fill-rule="evenodd" stroke="none"/>
  </g>
  <defs>
    <radialGradient cx="0" cy="0" gradientTransform="matrix(0.0335, 0.0, 0.0, 0.0335, 20.5, 4.5)" gradientUnits="userSpaceOnUse" id="gradient0" r="819.2" spreadMethod="pad">
      <stop offset="0.0" stop-color="#ffffff"/>
      <stop offset="1.0" stop-color="#ffff00"/>
    </radialGradient>
  </defs>
</svg>
