<?xml version="1.0" encoding="UTF-8" standalone="no"?>
<svg xmlns:ffdec="https://www.free-decompiler.com/flash" xmlns:xlink="http://www.w3.org/1999/xlink" ffdec:objectType="shape" height="22.25px" width="22.7px" xmlns="http://www.w3.org/2000/svg">
  <g transform="matrix(1.0, 0.0, 0.0, 1.0, -8.6, -8.15)">
    <path d="M22.9 24.35 L23.85 23.7 M27.3 21.25 L26.4 21.9 M12.6 21.25 L13.5 21.9 M17.0 24.35 L16.05 23.7 M13.6 29.3 L12.75 28.7 M9.45 28.15 L10.25 26.95 M26.3 29.3 L27.15 28.7 M30.45 28.15 L29.65 26.95 30.65 26.2" fill="none" stroke="#000000" stroke-linecap="square" stroke-linejoin="round" stroke-width="1.0"/>
    <path d="M23.85 23.7 L22.35 21.2 24.75 19.35 23.4 17.2 20.8 19.0 22.35 21.2 M26.4 21.9 L28.15 24.55 25.6 26.25 23.85 23.7 26.4 21.9 24.75 19.35 M11.75 24.55 L14.3 26.25 16.05 23.7 13.5 21.9 11.75 24.55 10.25 26.95 12.75 28.7 14.3 26.25 M13.5 21.9 L15.15 19.35 16.5 17.2 19.1 19.0 17.55 21.2 15.15 19.35 M16.05 23.7 L17.55 21.2 M27.15 28.7 L25.6 26.25 M29.65 26.95 L27.15 28.7 M29.65 26.95 L28.15 24.55" fill="none" stroke="#000000" stroke-linecap="round" stroke-linejoin="round" stroke-width="1.0"/>
    <path d="M22.35 21.2 L21.3 21.85 M28.15 24.55 L29.3 23.85 M24.75 19.35 L25.55 18.8 M11.75 24.55 L10.6 23.85 M15.15 19.35 L14.35 18.8 M17.55 21.2 L18.6 21.85 M12.75 28.7 L12.0 29.75 M14.3 26.25 L15.25 26.9 M10.25 26.95 L9.25 26.2 M25.6 26.25 L24.65 26.9 M27.15 28.7 L27.9 29.75" fill="none" stroke="#000000" stroke-linecap="round" stroke-linejoin="round" stroke-width="1.0"/>
    <path d="M23.35 9.8 L23.15 12.45 25.9 13.7 23.8 15.15 25.45 16.45 23.35 16.65 23.8 18.85 21.1 18.45 19.55 20.85 18.05 18.4 15.9 19.25 16.7 17.3 14.35 16.95 16.0 14.95 14.45 12.85 16.85 12.4 16.2 9.6 18.0 11.05 18.75 8.15 20.05 10.35 21.5 8.6 21.5 10.75 23.35 9.8 M20.45 16.55 L22.75 17.75 21.55 15.7 23.1 15.25 21.55 14.55 24.05 13.9 21.25 13.05 22.15 11.1 19.65 12.8 18.85 10.7 17.8 13.4 16.0 13.25 17.55 14.95 16.05 16.4 18.8 15.9 19.5 18.4 20.45 16.55" fill="#000000" fill-rule="evenodd" stroke="none"/>
  </g>
</svg>
