<?xml version="1.0" encoding="UTF-8" standalone="no"?>
<svg xmlns:ffdec="https://www.free-decompiler.com/flash" xmlns:xlink="http://www.w3.org/1999/xlink" ffdec:objectType="shape" height="16.0px" width="15.0px" xmlns="http://www.w3.org/2000/svg">
  <g transform="matrix(1.0, 0.0, 0.0, 1.0, 0.0, 0.0)">
    <path d="M10.45 3.4 L11.0 2.5 Q13.5 1.45 14.5 3.15 15.0 4.0 15.0 5.05 L9.7 9.4 Q12.85 14.1 11.85 14.8 10.95 15.45 7.35 11.25 5.35 12.75 2.7 15.0 0.95 16.4 0.45 15.8 -0.2 15.0 1.0 12.9 2.3 10.6 4.95 8.3 L1.5 3.6 0.0 1.45 Q0.1 0.8 0.55 0.35 1.45 -0.5 3.2 0.8 L7.45 6.25 10.45 3.4" fill="#999999" fill-rule="evenodd" stroke="none"/>
  </g>
</svg>
