<?xml version="1.0" encoding="UTF-8" standalone="no"?>
<svg xmlns:ffdec="https://www.free-decompiler.com/flash" xmlns:xlink="http://www.w3.org/1999/xlink" ffdec:objectType="shape" height="33.9px" width="35.75px" xmlns="http://www.w3.org/2000/svg">
  <g transform="matrix(1.0, 0.0, 0.0, 1.0, 1.5, 4.0)">
    <path d="M24.6 5.5 L24.7 5.6 Q27.75 8.55 27.75 12.95 27.75 17.25 24.65 20.35 21.55 23.4 17.25 23.4 L14.75 23.4 14.75 28.4 17.25 28.4 Q23.65 28.4 28.2 23.9 L28.15 23.9 Q32.75 19.35 32.75 12.95 32.75 6.5 28.25 2.1 L28.15 2.0 26.25 0.35 Q22.35 -2.5 17.25 -2.5 11.75 -2.5 7.6 0.9 5.15 2.8 3.8 5.35 L0.0 2.85 1.45 15.85 12.65 11.2 8.0 8.15 8.15 7.9 Q9.05 6.15 10.7 4.85 L10.75 4.8 Q13.55 2.5 17.25 2.5 20.65 2.5 23.3 4.4 L24.6 5.5 Z" fill="none" stroke="#000000" stroke-linecap="round" stroke-linejoin="round" stroke-width="3.0"/>
    <path d="M26.25 0.35 L28.15 2.0 28.25 2.1 Q32.75 6.5 32.75 12.95 32.75 19.35 28.15 23.9 L28.2 23.9 Q23.65 28.4 17.25 28.4 L14.75 28.4 14.75 23.4 17.25 23.4 Q21.55 23.4 24.65 20.35 27.75 17.25 27.75 12.95 27.75 8.55 24.7 5.6 L24.6 5.5 23.3 4.4 Q20.65 2.5 17.25 2.5 13.55 2.5 10.75 4.8 L10.7 4.85 Q9.05 6.15 8.15 7.9 L8.0 8.15 12.65 11.2 1.45 15.85 0.0 2.85 3.8 5.35 Q5.15 2.8 7.6 0.9 11.75 -2.5 17.25 -2.5 22.35 -2.5 26.25 0.35" fill="#ffffff" fill-rule="evenodd" stroke="none"/>
  </g>
</svg>
