<?xml version="1.0" encoding="UTF-8" standalone="no"?>
<svg xmlns:ffdec="https://www.free-decompiler.com/flash" xmlns:xlink="http://www.w3.org/1999/xlink" ffdec:objectType="shape" height="36.0px" width="33.0px" xmlns="http://www.w3.org/2000/svg">
  <g transform="matrix(1.0, 0.0, 0.0, 1.0, 1.5, 1.5)">
    <path d="M24.0 22.0 L19.0 22.0 19.0 17.0 24.0 17.0 24.0 22.0 M3.0 0.0 L3.0 7.0 7.0 4.6 7.0 0.0 3.0 0.0 M6.0 17.0 L11.0 17.0 11.0 22.0 6.0 22.0 6.0 17.0 M0.0 11.0 L30.0 11.0 15.0 2.0 0.0 11.0 M18.0 25.0 L18.0 33.0 27.0 33.0 27.0 13.0 3.0 13.0 3.0 33.0 12.0 33.0 12.0 25.0 18.0 25.0 Z" fill="none" stroke="#000000" stroke-linecap="round" stroke-linejoin="round" stroke-width="3.0"/>
    <path d="M12.0 33.0 L3.0 33.0 3.0 13.0 27.0 13.0 27.0 33.0 18.0 33.0 18.0 25.0 12.0 25.0 12.0 33.0 M0.0 11.0 L15.0 2.0 30.0 11.0 0.0 11.0 M6.0 17.0 L6.0 22.0 11.0 22.0 11.0 17.0 6.0 17.0 M7.0 4.6 L3.0 7.0 3.0 0.0 7.0 0.0 7.0 4.6 M24.0 22.0 L24.0 17.0 19.0 17.0 19.0 22.0 24.0 22.0" fill="#ffffff" fill-rule="evenodd" stroke="none"/>
  </g>
</svg>
