<?xml version="1.0" encoding="UTF-8" standalone="no"?>
<svg xmlns:ffdec="https://www.free-decompiler.com/flash" xmlns:xlink="http://www.w3.org/1999/xlink" ffdec:objectType="shape" height="34.05px" width="36.05px" xmlns="http://www.w3.org/2000/svg">
  <g transform="matrix(1.0, 0.0, 0.0, 1.0, 1.5, 1.5)">
    <path d="M26.45 5.0 L25.15 5.1 25.45 1.75 Q20.5 -0.45 13.75 0.15 L8.0 1.2 Q7.85 3.4 8.05 5.15 L6.6 5.0 2.75 5.4 Q-0.9 6.45 0.3 9.95 L2.1 13.15 Q4.35 16.35 6.6 16.15 L7.45 15.8 9.75 14.5 Q10.6 16.05 11.65 16.95 13.1 18.15 14.7 18.6 L14.85 18.7 14.75 19.85 14.85 21.0 Q14.3 21.2 13.7 22.4 L13.2 23.55 Q12.8 25.2 10.3 27.35 L10.3 29.55 Q14.65 31.65 19.05 30.8 21.25 30.4 22.55 29.55 L22.55 27.35 Q21.2 25.9 20.3 24.3 L19.65 23.0 Q19.65 22.4 19.05 21.55 L18.45 20.8 18.45 18.65 18.95 18.25 20.45 17.4 21.25 16.55 22.95 14.25 Q24.95 15.8 26.45 16.15 28.7 16.35 30.95 13.15 32.1 11.6 32.75 9.95 33.95 6.45 30.3 5.4 L26.45 5.0 M30.35 8.45 Q30.75 9.25 30.25 9.95 30.1 11.8 28.25 12.9 L26.45 13.65 Q25.65 13.95 25.15 13.65 L23.9 12.55 Q24.8 10.55 24.95 8.7 L25.05 6.3 Q29.55 6.8 30.35 8.45 M8.25 8.5 Q8.4 10.75 9.0 12.65 L7.8 13.65 Q7.35 13.95 6.6 13.65 5.7 13.45 4.8 12.9 2.95 11.8 2.8 9.95 L2.75 8.45 Q3.6 6.8 8.2 6.3 L8.25 8.5 Z" fill="none" stroke="#000000" stroke-linecap="round" stroke-linejoin="round" stroke-width="3.0"/>
    <path d="M8.25 8.5 L8.2 6.3 Q3.6 6.8 2.75 8.45 L2.8 9.95 Q2.95 11.8 4.8 12.9 5.7 13.45 6.6 13.65 7.35 13.95 7.8 13.65 L9.0 12.65 Q8.4 10.75 8.25 8.5 M25.45 1.75 L25.15 5.1 26.45 5.0 30.3 5.4 Q33.95 6.45 32.75 9.95 32.1 11.6 30.95 13.15 28.7 16.35 26.45 16.15 24.95 15.8 22.95 14.25 L21.25 16.55 20.45 17.4 18.95 18.25 18.45 18.65 18.45 20.8 19.05 21.55 Q19.65 22.4 19.65 23.0 L20.3 24.3 Q21.2 25.9 22.55 27.35 L22.55 29.55 Q21.25 30.4 19.05 30.8 14.65 31.65 10.3 29.55 L10.3 27.35 Q12.8 25.2 13.2 23.55 L13.7 22.4 Q14.3 21.2 14.85 21.0 L14.75 19.85 14.85 18.7 14.7 18.6 Q13.1 18.15 11.65 16.95 10.6 16.05 9.75 14.5 L7.45 15.8 6.6 16.15 Q4.35 16.35 2.1 13.15 L0.3 9.95 Q-0.9 6.45 2.75 5.4 L6.6 5.0 8.05 5.15 Q7.85 3.4 8.0 1.2 L13.75 0.15 Q20.5 -0.45 25.45 1.75 M30.35 8.45 Q29.55 6.8 25.05 6.3 L24.95 8.7 Q24.8 10.55 23.9 12.55 L25.15 13.65 Q25.65 13.95 26.45 13.65 L28.25 12.9 Q30.1 11.8 30.25 9.95 30.75 9.25 30.35 8.45" fill="#ffffff" fill-rule="evenodd" stroke="none"/>
  </g>
</svg>
