<?xml version="1.0" encoding="UTF-8" standalone="no"?>
<svg xmlns:ffdec="https://www.free-decompiler.com/flash" xmlns:xlink="http://www.w3.org/1999/xlink" ffdec:objectType="shape" height="30.5px" width="24.0px" xmlns="http://www.w3.org/2000/svg">
  <g transform="matrix(1.0, 0.0, 0.0, 1.0, -349.0, -164.5)">
    <path d="M355.95 165.35 Q357.7 164.5 360.85 164.5 364.0 164.5 365.75 165.35 367.9 166.35 368.5 168.8 L371.6 169.15 Q373.0 169.8 373.0 171.85 373.0 174.35 369.9 178.05 366.75 181.85 364.25 182.1 L363.15 182.95 Q364.8 183.65 365.85 185.2 366.85 186.75 366.85 188.7 366.85 191.3 365.1 193.15 363.3 195.0 360.85 195.0 358.4 195.0 356.6 193.15 354.85 191.3 354.85 188.7 354.85 186.75 355.9 185.2 356.9 183.65 358.55 182.95 L357.4 182.05 Q354.9 181.55 351.95 177.85 349.0 174.25 349.0 171.85 349.0 169.85 350.3 169.2 L353.2 168.8 Q353.8 166.35 355.95 165.35" fill="url(#gradient0)" fill-rule="evenodd" stroke="none"/>
  </g>
  <defs>
    <linearGradient gradientTransform="matrix(0.0, 0.0132, -0.0132, 0.0, 361.0, 183.05)" gradientUnits="userSpaceOnUse" id="gradient0" spreadMethod="pad" x1="-819.2" x2="819.2">
      <stop offset="0.0" stop-color="#ffffff"/>
      <stop offset="0.9803921568627451" stop-color="#000000"/>
    </linearGradient>
  </defs>
</svg>
