<?xml version="1.0" encoding="UTF-8" standalone="no"?>
<svg xmlns:ffdec="https://www.free-decompiler.com/flash" xmlns:xlink="http://www.w3.org/1999/xlink" ffdec:objectType="shape" height="177.8px" width="571.75px" xmlns="http://www.w3.org/2000/svg">
  <g transform="matrix(1.0, 0.0, 0.0, 1.0, 35.5, -49.5)">
    <path d="M40.9 106.5 L46.6 99.5 M43.45 109.05 L49.8 102.7 M46.25 111.85 L52.6 105.5 M-35.0 58.7 L-33.7 50.0 M-3.0 73.2 L-9.35 79.55 M-5.8 70.4 L-12.15 76.75 M-15.0 74.0 L-8.6 67.6 M-17.8 71.2 L-11.4 64.8 M-20.25 68.65 L-14.6 61.6 M18.4 86.5 L17.9 95.5 M14.3 85.5 L12.9 94.4 M10.8 84.5 L8.5 93.2 M29.6 97.7 L31.95 89.05 M33.05 99.35 L36.25 91.05 M26.2 96.6 L27.55 87.85 M22.0 95.7 L22.5 86.7 M7.35 82.85 L4.15 91.25 M4.65 80.55 L0.5 88.6 M1.85 78.25 L-3.0 85.8 M-0.5 75.7 L-6.15 82.75 M-31.55 59.85 L-29.25 51.15 M-28.15 61.55 L-24.95 53.15 M-25.45 63.85 L-21.3 55.8 M-22.65 66.15 L-17.75 58.55 M38.6 104.0 L43.45 96.45 M35.8 101.7 L39.9 93.7" fill="none" stroke="#ffffff" stroke-linecap="round" stroke-linejoin="round" stroke-width="1.0"/>
    <path d="M524.05 221.45 L529.75 214.45 M529.4 226.8 L535.75 220.45 M526.6 224.0 L532.95 217.65 M448.15 173.65 L449.45 164.95 M462.9 183.6 L468.55 176.55 M465.35 186.15 L471.75 179.75 M468.15 188.95 L474.55 182.55 M477.35 185.35 L471.0 191.7 M480.15 188.15 L473.8 194.5 M501.55 201.45 L501.05 210.45 M497.45 200.45 L496.05 209.35 M493.95 199.45 L491.65 208.15 M512.75 212.65 L515.1 204.0 M516.2 214.3 L519.4 206.0 M509.35 211.55 L510.7 202.8 M505.15 210.65 L505.65 201.65 M490.5 197.8 L487.3 206.2 M487.8 195.5 L483.65 203.55 M460.5 181.1 L465.4 173.5 M457.7 178.8 L461.85 170.75 M455.0 176.5 L458.2 168.1 M451.6 174.8 L453.9 166.1 M482.65 190.65 L477.0 197.7 M485.0 193.2 L480.15 200.75 M518.95 216.65 L523.05 208.65 M521.75 218.95 L526.6 211.4" fill="none" stroke="#ffffff" stroke-linecap="round" stroke-linejoin="round" stroke-width="1.0"/>
  </g>
</svg>
