<?xml version="1.0" encoding="UTF-8" standalone="no"?>
<svg xmlns:ffdec="https://www.free-decompiler.com/flash" xmlns:xlink="http://www.w3.org/1999/xlink" ffdec:objectType="shape" height="55.55px" width="34.0px" xmlns="http://www.w3.org/2000/svg">
  <g transform="matrix(1.0, 0.0, 0.0, 1.0, 17.0, 27.75)">
    <path d="M16.75 27.55 L-16.75 27.55 -16.75 -27.5 16.75 -27.5 16.75 27.55" fill="url(#gradient0)" fill-rule="evenodd" stroke="none"/>
    <path d="M16.75 27.55 L-16.75 27.55 -16.75 -27.5 16.75 -27.5 16.75 27.55 Z" fill="none" stroke="#808080" stroke-linecap="round" stroke-linejoin="round" stroke-width="0.5"/>
    <path d="M-7.1 -26.35 L-4.25 -26.35 -4.25 -23.1 -7.1 -23.1 -7.1 -26.35 M-14.95 -26.35 L-11.9 -26.35 -11.9 -23.1 -14.95 -23.1 -14.95 -26.35 M-10.9 -26.35 L-8.05 -26.35 -8.05 -23.1 -10.9 -23.1 -10.9 -26.35 M11.95 -26.35 L14.75 -26.35 14.75 -23.1 11.95 -23.1 11.95 -26.35 M0.5 -26.35 L3.35 -26.35 3.35 -23.1 0.5 -23.1 0.5 -26.35 M8.1 -26.35 L10.95 -26.35 10.95 -23.1 8.1 -23.1 8.1 -26.35 M4.3 -26.35 L7.15 -26.35 7.15 -23.1 4.3 -23.1 4.3 -26.35 M-3.3 -26.35 L-0.45 -26.35 -0.45 -23.1 -3.3 -23.1 -3.3 -26.35" fill="#262626" fill-rule="evenodd" stroke="none"/>
    <path d="M-7.1 -26.35 L-4.25 -26.35 M-4.25 -23.1 L-7.1 -23.1 M-14.95 -26.35 L-11.9 -26.35 M-11.9 -23.1 L-14.95 -23.1 M-10.9 -26.35 L-8.05 -26.35 M-8.05 -23.1 L-10.9 -23.1 M14.75 -26.35 L11.95 -26.35 M11.95 -23.1 L14.75 -23.1 M0.5 -26.35 L3.35 -26.35 M3.35 -23.1 L0.5 -23.1 M8.1 -26.35 L10.95 -26.35 M10.95 -23.1 L8.1 -23.1 M7.15 -26.35 L4.3 -26.35 M4.3 -23.1 L7.15 -23.1 M-0.45 -26.35 L-3.3 -26.35 M-3.3 -23.1 L-0.45 -23.1" fill="none" stroke="#808080" stroke-linecap="round" stroke-linejoin="round" stroke-width="0.5"/>
    <path d="M-10.9 -14.35 L-8.05 -14.35 -8.05 -11.1 -10.9 -11.1 -10.9 -14.35 M-14.95 -14.35 L-11.9 -14.35 -11.9 -11.1 -14.95 -11.1 -14.95 -14.35 M-7.1 -14.35 L-4.25 -14.35 -4.25 -11.1 -7.1 -11.1 -7.1 -14.35 M4.3 -14.35 L7.15 -14.35 7.15 -11.1 4.3 -11.1 4.3 -14.35 M8.1 -14.35 L10.95 -14.35 10.95 -11.1 8.1 -11.1 8.1 -14.35 M0.5 -14.35 L3.35 -14.35 3.35 -11.1 0.5 -11.1 0.5 -14.35 M11.95 -14.35 L14.75 -14.35 14.75 -11.1 11.95 -11.1 11.95 -14.35 M-3.3 -14.35 L-0.45 -14.35 -0.45 -11.1 -3.3 -11.1 -3.3 -14.35" fill="#262626" fill-rule="evenodd" stroke="none"/>
    <path d="M-10.9 -14.35 L-8.05 -14.35 M-8.05 -11.1 L-10.9 -11.1 M-14.95 -14.35 L-11.9 -14.35 M-11.9 -11.1 L-14.95 -11.1 M-7.1 -14.35 L-4.25 -14.35 M-4.25 -11.1 L-7.1 -11.1 M7.15 -14.35 L4.3 -14.35 M4.3 -11.1 L7.15 -11.1 M8.1 -14.35 L10.95 -14.35 M10.95 -11.1 L8.1 -11.1 M0.5 -14.35 L3.35 -14.35 M3.35 -11.1 L0.5 -11.1 M14.75 -14.35 L11.95 -14.35 M11.95 -11.1 L14.75 -11.1 M-0.45 -14.35 L-3.3 -14.35 M-3.3 -11.1 L-0.45 -11.1" fill="none" stroke="#808080" stroke-linecap="round" stroke-linejoin="round" stroke-width="0.5"/>
    <path d="M-7.1 -20.35 L-4.25 -20.35 -4.25 -17.1 -7.1 -17.1 -7.1 -20.35 M-14.95 -20.35 L-11.9 -20.35 -11.9 -17.1 -14.95 -17.1 -14.95 -20.35 M-10.9 -20.35 L-8.05 -20.35 -8.05 -17.1 -10.9 -17.1 -10.9 -20.35 M11.95 -20.35 L14.75 -20.35 14.75 -17.1 11.95 -17.1 11.95 -20.35 M0.5 -20.35 L3.35 -20.35 3.35 -17.1 0.5 -17.1 0.5 -20.35 M8.1 -20.35 L10.95 -20.35 10.95 -17.1 8.1 -17.1 8.1 -20.35 M4.3 -20.35 L7.15 -20.35 7.15 -17.1 4.3 -17.1 4.3 -20.35 M-3.3 -20.35 L-0.45 -20.35 -0.45 -17.1 -3.3 -17.1 -3.3 -20.35" fill="#262626" fill-rule="evenodd" stroke="none"/>
    <path d="M-7.1 -20.35 L-4.25 -20.35 M-4.25 -17.1 L-7.1 -17.1 M-14.95 -20.35 L-11.9 -20.35 M-11.9 -17.1 L-14.95 -17.1 M-10.9 -20.35 L-8.05 -20.35 M-8.05 -17.1 L-10.9 -17.1 M14.75 -20.35 L11.95 -20.35 M11.95 -17.1 L14.75 -17.1 M0.5 -20.35 L3.35 -20.35 M3.35 -17.1 L0.5 -17.1 M8.1 -20.35 L10.95 -20.35 M10.95 -17.1 L8.1 -17.1 M7.15 -20.35 L4.3 -20.35 M4.3 -17.1 L7.15 -17.1 M-0.45 -20.35 L-3.3 -20.35 M-3.3 -17.1 L-0.45 -17.1" fill="none" stroke="#808080" stroke-linecap="round" stroke-linejoin="round" stroke-width="0.5"/>
    <path d="M-7.1 -8.35 L-4.25 -8.35 -4.25 -5.1 -7.1 -5.1 -7.1 -8.35 M-14.95 -8.35 L-11.9 -8.35 -11.9 -5.1 -14.95 -5.1 -14.95 -8.35 M-10.9 -8.35 L-8.05 -8.35 -8.05 -5.1 -10.9 -5.1 -10.9 -8.35 M11.95 -8.35 L14.75 -8.35 14.75 -5.1 11.95 -5.1 11.95 -8.35 M0.5 -8.35 L3.35 -8.35 3.35 -5.1 0.5 -5.1 0.5 -8.35 M8.1 -8.35 L10.95 -8.35 10.95 -5.1 8.1 -5.1 8.1 -8.35 M4.3 -8.35 L7.15 -8.35 7.15 -5.1 4.3 -5.1 4.3 -8.35 M-3.3 -8.35 L-0.45 -8.35 -0.45 -5.1 -3.3 -5.1 -3.3 -8.35" fill="#262626" fill-rule="evenodd" stroke="none"/>
    <path d="M-7.1 -8.35 L-4.25 -8.35 M-4.25 -5.1 L-7.1 -5.1 M-14.95 -8.35 L-11.9 -8.35 M-11.9 -5.1 L-14.95 -5.1 M-10.9 -8.35 L-8.05 -8.35 M-8.05 -5.1 L-10.9 -5.1 M14.75 -8.35 L11.95 -8.35 M11.95 -5.1 L14.75 -5.1 M0.5 -8.35 L3.35 -8.35 M3.35 -5.1 L0.5 -5.1 M8.1 -8.35 L10.95 -8.35 M10.95 -5.1 L8.1 -5.1 M7.15 -8.35 L4.3 -8.35 M4.3 -5.1 L7.15 -5.1 M-0.45 -8.35 L-3.3 -8.35 M-3.3 -5.1 L-0.45 -5.1" fill="none" stroke="#808080" stroke-linecap="round" stroke-linejoin="round" stroke-width="0.5"/>
    <path d="M-7.1 -2.35 L-4.25 -2.35 -4.25 0.9 -7.1 0.9 -7.1 -2.35 M-14.95 -2.35 L-11.9 -2.35 -11.9 0.9 -14.95 0.9 -14.95 -2.35 M-10.9 -2.35 L-8.05 -2.35 -8.05 0.9 -10.9 0.9 -10.9 -2.35 M11.95 -2.35 L14.75 -2.35 14.75 0.9 11.95 0.9 11.95 -2.35 M0.5 -2.35 L3.35 -2.35 3.35 0.9 0.5 0.9 0.5 -2.35 M8.1 -2.35 L10.95 -2.35 10.95 0.9 8.1 0.9 8.1 -2.35 M4.3 -2.35 L7.15 -2.35 7.15 0.9 4.3 0.9 4.3 -2.35 M-3.3 -2.35 L-0.45 -2.35 -0.45 0.9 -3.3 0.9 -3.3 -2.35" fill="#262626" fill-rule="evenodd" stroke="none"/>
    <path d="M-7.1 -2.35 L-4.25 -2.35 M-4.25 0.9 L-7.1 0.9 M-14.95 -2.35 L-11.9 -2.35 M-11.9 0.9 L-14.95 0.9 M-10.9 -2.35 L-8.05 -2.35 M-8.05 0.9 L-10.9 0.9 M14.75 -2.35 L11.95 -2.35 M11.95 0.9 L14.75 0.9 M0.5 -2.35 L3.35 -2.35 M3.35 0.9 L0.5 0.9 M8.1 -2.35 L10.95 -2.35 M10.95 0.9 L8.1 0.9 M7.15 -2.35 L4.3 -2.35 M4.3 0.9 L7.15 0.9 M-0.45 -2.35 L-3.3 -2.35 M-3.3 0.9 L-0.45 0.9" fill="none" stroke="#808080" stroke-linecap="round" stroke-linejoin="round" stroke-width="0.5"/>
    <path d="M-7.1 3.65 L-4.25 3.65 -4.25 6.9 -7.1 6.9 -7.1 3.65 M-14.95 3.65 L-11.9 3.65 -11.9 6.9 -14.95 6.9 -14.95 3.65 M-10.9 3.65 L-8.05 3.65 -8.05 6.9 -10.9 6.9 -10.9 3.65 M11.95 3.65 L14.75 3.65 14.75 6.9 11.95 6.9 11.95 3.65 M0.5 3.65 L3.35 3.65 3.35 6.9 0.5 6.9 0.5 3.65 M8.1 3.65 L10.95 3.65 10.95 6.9 8.1 6.9 8.1 3.65 M4.3 3.65 L7.15 3.65 7.15 6.9 4.3 6.9 4.3 3.65 M-3.3 3.65 L-0.45 3.65 -0.45 6.9 -3.3 6.9 -3.3 3.65" fill="#262626" fill-rule="evenodd" stroke="none"/>
    <path d="M-7.1 3.65 L-4.25 3.65 M-4.25 6.9 L-7.1 6.9 M-14.95 3.65 L-11.9 3.65 M-11.9 6.9 L-14.95 6.9 M-10.9 3.65 L-8.05 3.65 M-8.05 6.9 L-10.9 6.9 M14.75 3.65 L11.95 3.65 M11.95 6.9 L14.75 6.9 M0.5 3.65 L3.35 3.65 M3.35 6.9 L0.5 6.9 M8.1 3.65 L10.95 3.65 M10.95 6.9 L8.1 6.9 M7.15 3.65 L4.3 3.65 M4.3 6.9 L7.15 6.9 M-0.45 3.65 L-3.3 3.65 M-3.3 6.9 L-0.45 6.9" fill="none" stroke="#808080" stroke-linecap="round" stroke-linejoin="round" stroke-width="0.5"/>
    <path d="M-7.1 9.65 L-4.25 9.65 -4.25 12.9 -7.1 12.9 -7.1 9.65 M-14.95 9.65 L-11.9 9.65 -11.9 12.9 -14.95 12.9 -14.95 9.65 M-10.9 9.65 L-8.05 9.65 -8.05 12.9 -10.9 12.9 -10.9 9.65 M11.95 9.65 L14.75 9.65 14.75 12.9 11.95 12.9 11.95 9.65 M0.5 9.65 L3.35 9.65 3.35 12.9 0.5 12.9 0.5 9.65 M8.1 9.65 L10.95 9.65 10.95 12.9 8.1 12.9 8.1 9.65 M4.3 9.65 L7.15 9.65 7.15 12.9 4.3 12.9 4.3 9.65 M-3.3 9.65 L-0.45 9.65 -0.45 12.9 -3.3 12.9 -3.3 9.65" fill="#262626" fill-rule="evenodd" stroke="none"/>
    <path d="M-7.1 9.65 L-4.25 9.65 M-4.25 12.9 L-7.1 12.9 M-14.95 9.65 L-11.9 9.65 M-11.9 12.9 L-14.95 12.9 M-10.9 9.65 L-8.05 9.65 M-8.05 12.9 L-10.9 12.9 M14.75 9.65 L11.95 9.65 M11.95 12.9 L14.75 12.9 M0.5 9.65 L3.35 9.65 M3.35 12.9 L0.5 12.9 M8.1 9.65 L10.95 9.65 M10.95 12.9 L8.1 12.9 M7.15 9.65 L4.3 9.65 M4.3 12.9 L7.15 12.9 M-0.45 9.65 L-3.3 9.65 M-3.3 12.9 L-0.45 12.9" fill="none" stroke="#808080" stroke-linecap="round" stroke-linejoin="round" stroke-width="0.5"/>
    <path d="M-7.1 15.65 L-4.25 15.65 -4.25 18.9 -7.1 18.9 -7.1 15.65 M-14.95 15.65 L-11.9 15.65 -11.9 18.9 -14.95 18.9 -14.95 15.65 M-10.9 15.65 L-8.05 15.65 -8.05 18.9 -10.9 18.9 -10.9 15.65 M11.95 15.65 L14.75 15.65 14.75 18.9 11.95 18.9 11.95 15.65 M0.5 15.65 L3.35 15.65 3.35 18.9 0.5 18.9 0.5 15.65 M8.1 15.65 L10.95 15.65 10.95 18.9 8.1 18.9 8.1 15.65 M4.3 15.65 L7.15 15.65 7.15 18.9 4.3 18.9 4.3 15.65 M-3.3 15.65 L-0.45 15.65 -0.45 18.9 -3.3 18.9 -3.3 15.65" fill="#262626" fill-rule="evenodd" stroke="none"/>
    <path d="M-7.1 15.65 L-4.25 15.65 M-4.25 18.9 L-7.1 18.9 M-14.95 15.65 L-11.9 15.65 M-11.9 18.9 L-14.95 18.9 M-10.9 15.65 L-8.05 15.65 M-8.05 18.9 L-10.9 18.9 M14.75 15.65 L11.95 15.65 M11.95 18.9 L14.75 18.9 M0.5 15.65 L3.35 15.65 M3.35 18.9 L0.5 18.9 M8.1 15.65 L10.95 15.65 M10.95 18.9 L8.1 18.9 M7.15 15.65 L4.3 15.65 M4.3 18.9 L7.15 18.9 M-0.45 15.65 L-3.3 15.65 M-3.3 18.9 L-0.45 18.9" fill="none" stroke="#808080" stroke-linecap="round" stroke-linejoin="round" stroke-width="0.5"/>
    <path d="M-7.1 21.65 L-4.25 21.65 -4.25 24.9 -7.1 24.9 -7.1 21.65 M-14.95 21.65 L-11.9 21.65 -11.9 24.9 -14.95 24.9 -14.95 21.65 M-10.9 21.65 L-8.05 21.65 -8.05 24.9 -10.9 24.9 -10.9 21.65 M11.95 21.65 L14.75 21.65 14.75 24.9 11.95 24.9 11.95 21.65 M0.5 21.65 L3.35 21.65 3.35 24.9 0.5 24.9 0.5 21.65 M8.1 21.65 L10.95 21.65 10.95 24.9 8.1 24.9 8.1 21.65 M4.3 21.65 L7.15 21.65 7.15 24.9 4.3 24.9 4.3 21.65 M-3.3 21.65 L-0.45 21.65 -0.45 24.9 -3.3 24.9 -3.3 21.65" fill="#262626" fill-rule="evenodd" stroke="none"/>
    <path d="M-7.1 21.65 L-4.25 21.65 M-4.25 24.9 L-7.1 24.9 M-14.95 21.65 L-11.9 21.65 M-11.9 24.9 L-14.95 24.9 M-10.9 21.65 L-8.05 21.65 M-8.05 24.9 L-10.9 24.9 M14.75 21.65 L11.95 21.65 M11.95 24.9 L14.75 24.9 M0.5 21.65 L3.35 21.65 M3.35 24.9 L0.5 24.9 M8.1 21.65 L10.95 21.65 M10.95 24.9 L8.1 24.9 M7.15 21.65 L4.3 21.65 M4.3 24.9 L7.15 24.9 M-0.45 21.65 L-3.3 21.65 M-3.3 24.9 L-0.45 24.9" fill="none" stroke="#808080" stroke-linecap="round" stroke-linejoin="round" stroke-width="0.5"/>
  </g>
  <defs>
    <linearGradient gradientTransform="matrix(0.0305, -0.0369, 0.0258, 0.0214, 5.45, -10.55)" gradientUnits="userSpaceOnUse" id="gradient0" spreadMethod="pad" x1="-819.2" x2="819.2">
      <stop offset="0.0" stop-color="#404040"/>
      <stop offset="1.0" stop-color="#c4c4c4"/>
    </linearGradient>
  </defs>
</svg>
