<?xml version="1.0" encoding="UTF-8" standalone="no"?>
<svg xmlns:ffdec="https://www.free-decompiler.com/flash" xmlns:xlink="http://www.w3.org/1999/xlink" ffdec:objectType="shape" height="182.3px" width="182.3px" xmlns="http://www.w3.org/2000/svg">
  <g transform="matrix(1.0, 0.0, 0.0, 1.0, 91.15, 91.15)">
    <path d="M62.1 -62.1 Q36.3 -88.25 0.0 -88.25 -36.3 -88.25 -62.1 -62.1 -88.25 -36.3 -88.25 0.0 -88.25 36.3 -62.1 62.1 -36.3 88.25 0.0 88.25 36.3 88.25 62.1 62.1 88.25 36.3 88.25 0.0 88.25 -36.3 62.1 -62.1 M64.45 -64.45 Q91.15 -37.8 91.15 0.0 91.15 37.8 64.45 64.45 37.8 91.15 0.0 91.15 -37.8 91.15 -64.45 64.45 -91.15 37.8 -91.15 0.0 -91.15 -37.8 -64.45 -64.45 -37.8 -91.15 0.0 -91.15 37.8 -91.15 64.45 -64.45" fill="#aeaeae" fill-rule="evenodd" stroke="none"/>
  </g>
</svg>
