<?xml version="1.0" encoding="UTF-8" standalone="no"?>
<svg xmlns:ffdec="https://www.free-decompiler.com/flash" xmlns:xlink="http://www.w3.org/1999/xlink" ffdec:objectType="shape" height="182.3px" width="182.3px" xmlns="http://www.w3.org/2000/svg">
  <g transform="matrix(1.0, 0.0, 0.0, 1.0, 91.15, 91.15)">
    <path d="M64.45 -64.45 Q91.15 -37.8 91.15 0.0 91.15 8.95 89.65 17.3 90.75 10.1 90.75 2.5 90.75 -35.45 63.45 -62.45 36.45 -89.75 -1.5 -89.75 -38.6 -89.75 -65.2 -63.65 L-64.45 -64.45 Q-37.8 -91.15 0.0 -91.15 37.8 -91.15 64.45 -64.45 M2.0 90.75 Q11.8 90.75 20.95 88.95 10.9 91.15 0.0 91.15 -37.8 91.15 -64.45 64.45 -91.15 37.8 -91.15 0.0 -91.15 -28.45 -76.0 -50.6 -90.25 -28.9 -90.25 -1.5 -90.25 36.45 -62.95 63.45 -35.95 90.75 2.0 90.75" fill="#aeaeae" fill-rule="evenodd" stroke="none"/>
  </g>
</svg>
