<?xml version="1.0" encoding="UTF-8" standalone="no"?>
<svg xmlns:ffdec="https://www.free-decompiler.com/flash" xmlns:xlink="http://www.w3.org/1999/xlink" ffdec:objectType="shape" height="182.3px" width="182.3px" xmlns="http://www.w3.org/2000/svg">
  <g transform="matrix(1.0, 0.0, 0.0, 1.0, 91.15, 91.15)">
    <path d="M64.45 -64.45 Q91.15 -37.8 91.15 0.0 91.15 8.95 89.65 17.3 90.75 10.1 88.3 -17.0 85.85 -44.1 63.7 -63.45 37.3 -91.9 -0.6 -90.8 -38.6 -89.75 -65.2 -63.65 L-64.45 -64.45 Q-37.8 -91.15 0.0 -91.15 37.8 -91.15 64.45 -64.45 M-62.95 63.45 Q-56.15 71.25 -49.3 76.9 -57.3 71.65 -64.45 64.45 -91.15 37.8 -91.15 0.0 -91.15 -20.9 -83.0 -38.35 -90.55 -21.05 -90.3 4.0 -90.0 38.7 -62.95 63.45 M20.95 88.95 Q10.9 91.15 0.0 91.15 L-4.8 91.05 Q13.35 90.45 20.95 88.95" fill="#aeaeae" fill-rule="evenodd" stroke="none"/>
  </g>
</svg>
