<?xml version="1.0" encoding="UTF-8" standalone="no"?>
<svg xmlns:ffdec="https://www.free-decompiler.com/flash" xmlns:xlink="http://www.w3.org/1999/xlink" ffdec:objectType="shape" height="12.25px" width="14.35px" xmlns="http://www.w3.org/2000/svg">
  <g transform="matrix(1.0, 0.0, 0.0, 1.0, 6.4, 5.45)">
    <path d="M1.5 -3.85 L1.65 -3.9 1.95 -4.4 2.45 -5.45 2.7 -5.45 2.45 -4.95 2.45 -4.65 2.7 -4.65 Q2.2 -4.65 2.2 -4.15 L2.2 -3.9 2.3 -3.8 1.5 -3.85 M2.95 -4.65 L2.7 -4.4 2.7 -4.65 2.95 -4.65 M0.95 -1.35 L0.9 -1.3 0.9 -1.0 1.15 -0.75 1.4 -0.75 1.65 -1.0 2.45 -1.0 2.95 -1.0 3.25 -1.0 3.25 -0.75 3.5 -0.5 3.6 -0.5 Q3.9 -0.55 4.0 -0.8 L4.0 -1.0 4.3 -0.9 5.25 -0.6 5.0 -0.15 Q4.8 -0.5 4.3 -0.5 3.75 -0.5 3.75 0.0 L3.5 0.0 3.5 0.3 2.7 0.3 Q2.45 0.0 2.2 0.0 1.65 0.3 1.65 0.55 L1.65 1.05 1.95 1.35 2.2 1.35 2.45 1.05 2.95 1.85 2.75 2.15 2.7 2.35 Q2.7 2.6 3.2 2.95 L3.3 3.0 3.15 3.25 3.05 4.15 2.8 3.85 2.7 3.65 2.7 3.4 2.45 2.65 2.15 2.4 1.95 2.35 1.65 2.35 1.65 2.1 1.15 1.6 1.1 1.4 1.45 0.55 1.25 0.5 1.4 0.3 1.05 0.0 0.9 0.0 Q0.65 0.0 0.65 -0.25 L0.35 -0.25 0.35 0.0 0.65 0.0 0.65 0.15 0.65 0.45 0.1 0.4 -0.05 1.85 0.35 2.25 0.35 3.25 0.35 3.3 0.35 3.4 0.1 3.15 -0.15 3.15 -0.15 3.4 -0.15 3.55 0.05 3.95 0.1 3.95 0.1 4.2 -0.15 4.2 -0.25 4.2 -0.5 4.0 -0.45 3.7 -0.2 3.55 -0.05 1.85 -0.75 1.2 -0.7 1.05 -0.4 0.8 -0.4 0.55 -0.15 0.55 -0.25 0.4 -0.25 0.35 -0.4 0.0 -0.4 0.3 -0.7 0.3 -0.7 0.55 -0.9 1.0 -0.95 1.1 -1.45 2.35 -1.9 2.65 -2.0 2.65 -2.0 2.7 -2.05 2.75 -3.35 5.1 -4.35 6.8 -3.8 5.35 -2.75 3.4 -2.75 3.15 -3.05 3.15 -3.05 2.65 -2.5 2.05 -2.25 1.6 -2.2 1.75 -2.05 1.85 -2.0 1.85 -1.45 1.6 -1.45 1.35 Q-1.45 0.8 -1.7 0.8 L-1.75 0.8 -2.05 0.9 -2.25 0.95 -2.35 1.0 -2.5 1.05 -3.0 1.6 -2.75 1.6 -2.85 1.75 -3.0 1.6 -3.35 1.25 -2.35 1.0 -2.55 0.1 -2.75 -0.8 -3.55 -1.6 -3.8 -1.65 Q-3.85 -1.8 -4.05 -1.8 L-4.3 -1.65 -4.7 -1.7 -4.6 -1.8 -4.85 -2.05 -5.35 -1.8 -5.5 -1.75 -5.9 -1.75 -5.9 -1.8 -6.4 -2.35 -5.9 -2.35 -3.85 -1.9 -3.3 -1.8 -3.05 -1.55 -2.85 -1.4 -2.1 -0.9 -1.7 -0.75 -1.45 -0.75 -1.45 -1.0 -1.95 -1.55 -2.1 -1.7 -2.75 -2.35 -3.1 -2.55 -3.3 -3.4 Q-3.0 -3.15 -2.5 -2.85 L-2.15 -2.55 -1.7 -2.35 -1.45 -2.85 -1.7 -3.35 -2.0 -3.65 -2.15 -3.85 -2.25 -4.05 -2.25 -4.15 -2.75 -5.45 -2.2 -4.7 -2.0 -4.4 -1.8 -4.0 -1.45 -2.85 -1.2 -2.85 -0.8 -2.45 -0.4 -2.05 -0.7 -2.05 -0.7 -1.3 -0.5 -1.45 0.1 -1.4 0.1 -1.3 0.35 -1.0 0.65 -1.0 0.65 -1.4 0.95 -1.35 M7.5 -0.2 L7.95 0.0 7.15 0.55 6.65 0.3 Q6.35 0.3 6.35 0.55 L6.15 0.45 7.5 -0.2 M-1.0 2.65 L-1.2 2.65 -1.0 2.0 -1.0 2.65 M-6.4 2.15 L-6.4 2.1 -6.15 1.85 -6.0 2.0 -6.4 2.15 M-5.35 1.85 Q-5.35 1.6 -5.6 1.6 L-4.85 1.35 -4.85 1.05 -4.6 0.55 -4.25 0.4 -3.35 1.25 -5.35 1.85 M-4.75 -4.2 L-4.85 -4.4 -4.25 -4.15 -4.75 -4.2 M1.4 -3.85 L1.4 -3.9 1.4 -3.85 M2.2 -0.75 L1.95 -0.75 1.95 -0.65 2.15 -0.3 2.2 -0.25 2.2 -0.3 2.2 -0.75 M7.95 1.35 L7.65 1.6 7.15 1.35 6.9 1.1 6.9 1.05 7.15 0.8 7.4 0.8 7.95 0.8 7.95 1.35 M5.3 3.15 Q4.8 2.9 4.8 2.65 L4.8 2.5 5.3 2.9 5.3 3.15 M4.8 0.8 L4.9 0.9 5.0 1.0 5.3 1.35 5.05 1.6 4.8 1.85 4.3 1.6 4.3 1.35 Q4.3 0.95 4.55 0.85 L4.8 0.8 M2.35 4.2 L2.6 4.25 2.7 4.45 2.7 4.6 Q2.65 5.0 2.45 5.0 L2.2 5.0 1.65 4.7 1.65 4.45 Q1.65 3.95 2.2 4.2 L2.35 4.2 M-1.45 -4.15 L-1.45 -4.95 -0.8 -3.95 -0.75 -3.85 -0.7 -3.65 -1.2 -3.35 -1.35 -4.0 -1.45 -4.15 M-0.95 -0.5 L-0.95 -0.25 -0.15 -0.25 -0.4 -0.5 -0.95 -0.5 M-2.0 -0.25 L-2.5 -0.25 -2.5 0.0 -2.25 0.3 -2.1 0.15 -2.0 0.0 -2.0 -0.25 M-1.2 0.8 L-0.95 0.8 -0.95 0.3 -1.2 -0.25 -1.45 0.0 -1.45 0.25 -1.45 0.5 -1.45 0.55 -1.2 0.8 M-4.6 0.55 L-4.6 1.05 -4.05 1.05 -4.05 0.8 -4.35 0.55 -4.6 0.55" fill="#000000" fill-rule="evenodd" stroke="none"/>
    <path d="M4.3 -0.9 L5.15 -1.15 5.5 -1.1 5.25 -0.6 5.6 -0.5 5.85 -0.25 6.35 -0.25 6.35 -0.5 7.5 -0.2 6.15 0.45 5.05 0.3 5.0 -0.15 5.25 -0.6 4.3 -0.9 M3.3 3.0 L3.5 3.15 3.75 3.15 3.75 2.9 4.3 3.4 4.0 3.95 3.5 3.95 3.5 4.2 3.25 4.2 3.05 4.15 3.15 3.25 3.3 3.0 M1.1 1.4 L0.9 1.05 Q0.65 0.8 0.35 0.8 L0.35 1.6 0.35 2.25 -0.05 1.85 0.1 0.4 0.65 0.45 0.65 0.55 0.9 0.55 1.25 0.5 1.45 0.55 1.1 1.4 M-0.45 3.7 L-0.4 3.4 -0.4 2.1 Q-0.7 2.65 -0.95 2.65 L-1.0 2.65 -1.0 2.0 -0.75 1.2 -0.05 1.85 -0.2 3.55 -0.45 3.7 M-4.25 0.4 L-3.3 0.3 -3.8 0.0 -2.55 0.1 -2.35 1.0 -3.35 1.25 -4.25 0.4 M-3.1 -2.55 L-4.05 -2.6 -4.75 -4.2 -4.25 -4.15 -3.8 -3.9 -4.35 -3.65 -4.05 -3.35 -3.8 -3.1 -3.55 -3.35 -3.55 -3.65 -3.3 -3.4 -3.1 -2.55" fill="#666666" fill-rule="evenodd" stroke="none"/>
    <path d="M1.5 -3.85 L2.3 -3.8 2.45 -3.65 2.2 -3.1 1.65 -2.85 1.15 -2.6 1.15 -2.35 1.4 -2.05 1.65 -2.35 2.2 -2.35 2.2 -2.05 1.95 -1.55 Q1.95 -1.8 1.4 -1.55 1.0 -1.55 0.95 -1.35 L0.65 -1.4 0.65 -1.8 0.65 -2.05 0.3 -1.95 0.1 -1.8 0.1 -1.4 -0.5 -1.45 -0.4 -1.55 -0.4 -2.05 -0.4 -2.6 -0.4 -3.9 -0.4 -3.95 Q-0.4 -4.65 -0.15 -4.65 L0.1 -4.4 0.1 -3.9 0.1 -2.05 0.35 -2.4 Q0.55 -2.7 0.9 -2.85 L1.4 -3.85 1.4 -3.65 1.5 -3.85 M-2.85 1.75 L-3.05 1.85 -3.55 1.85 -3.55 2.1 -3.55 2.65 -4.05 2.9 -4.6 2.65 -4.6 2.1 Q-4.6 1.85 -4.85 1.85 -5.35 1.85 -5.35 2.1 L-5.35 2.35 -5.9 2.35 -6.4 2.35 -6.4 2.15 -6.0 2.0 -5.9 2.1 -5.35 1.85 -3.35 1.25 -3.0 1.6 -2.85 1.75 M-3.8 0.0 L-3.8 -0.25 -4.85 -0.5 Q-5.85 -1.25 -5.9 -1.75 L-5.5 -1.75 -5.65 -1.3 -5.35 -1.0 -4.85 -1.0 -4.85 -1.55 -4.7 -1.7 -4.3 -1.65 -4.35 -1.55 -4.35 -1.3 -4.05 -1.3 Q-3.8 -1.3 -3.8 -1.55 L-3.8 -1.65 -3.55 -1.6 -2.75 -0.8 -2.55 0.1 -3.8 0.0 M-3.8 -0.25 Q-3.55 0.0 -3.3 0.0 -3.05 0.0 -3.05 -0.25 -3.55 -0.75 -4.35 -0.75 L-3.8 -0.25" fill="#333333" fill-rule="evenodd" stroke="none"/>
  </g>
</svg>
