<?xml version="1.0" encoding="UTF-8" standalone="no"?>
<svg xmlns:ffdec="https://www.free-decompiler.com/flash" xmlns:xlink="http://www.w3.org/1999/xlink" ffdec:objectType="shape" height="13.8px" width="10.65px" xmlns="http://www.w3.org/2000/svg">
  <g transform="matrix(1.0, 0.0, 0.0, 1.0, 5.15, 6.65)">
    <path d="M1.2 -6.6 L1.35 -6.65 Q2.25 -6.75 2.35 -6.05 2.5 -5.45 2.05 -5.2 L2.25 -5.2 2.3 -5.2 2.4 -5.1 2.5 -5.05 2.6 -5.0 2.65 -4.9 2.65 -4.65 2.65 -4.5 2.5 -4.3 2.3 -4.2 2.05 -4.3 1.9 -4.35 1.65 -4.45 1.65 -4.5 1.6 -4.55 1.6 -4.7 1.6 -4.9 1.6 -5.0 1.65 -5.05 Q1.1 -5.05 0.9 -5.75 0.8 -6.25 1.1 -6.6 L1.2 -6.6 M4.1 -5.75 L4.35 -5.6 4.4 -5.3 4.3 -5.05 4.3 -5.0 4.1 -4.9 4.0 -4.9 3.85 -4.85 3.9 -4.7 3.9 -4.6 3.9 -4.5 3.85 -4.45 3.75 -4.3 3.65 -4.3 3.55 -4.2 3.45 -4.3 3.3 -4.45 3.25 -4.55 3.25 -4.7 3.3 -4.85 3.35 -4.9 3.35 -4.95 3.45 -4.95 3.55 -4.95 3.65 -4.9 3.75 -4.9 3.6 -4.95 3.55 -5.0 3.55 -5.05 3.5 -5.1 3.5 -5.2 3.5 -5.35 3.5 -5.4 3.5 -5.5 3.55 -5.6 3.55 -5.65 3.6 -5.75 3.75 -5.8 3.9 -5.85 4.1 -5.75 M0.6 -4.55 Q0.5 -4.0 -0.05 -4.1 -0.55 -4.15 -0.45 -4.7 -0.35 -5.1 0.05 -5.1 0.65 -5.1 0.6 -4.55 M0.2 -1.05 L0.05 -0.75 -0.2 -0.6 Q-0.45 -0.6 -0.6 -0.75 L-0.7 -1.15 -0.5 -1.4 -0.2 -1.5 0.05 -1.4 0.2 -1.05 M0.2 -0.1 L0.0 -0.2 -0.05 -0.2 -0.05 -0.55 0.0 -0.6 0.05 -0.65 0.1 -0.75 0.2 -0.75 0.35 -0.85 0.45 -0.75 0.6 -0.65 0.65 -0.55 0.7 -0.5 0.7 -0.4 0.65 -0.25 0.6 -0.15 0.45 -0.05 0.35 -0.05 0.2 -0.1 M1.65 -0.2 Q1.05 -0.4 1.15 -1.0 1.15 -1.5 1.65 -1.6 2.35 -1.45 2.35 -0.85 2.35 -0.1 1.65 -0.2 M2.65 -0.65 Q1.65 -1.9 2.4 -3.2 L2.9 -3.5 Q4.55 -3.7 5.1 -2.15 5.5 -0.9 4.35 -0.4 3.35 0.05 2.65 -0.65 M2.8 0.25 Q2.9 -0.15 3.3 -0.2 3.95 -0.15 3.9 0.4 3.9 1.0 3.25 0.95 2.65 0.85 2.8 0.25 M4.35 2.4 L4.35 2.6 4.15 2.7 4.0 2.6 4.0 2.35 4.05 2.3 4.15 2.3 4.35 2.4 M4.45 1.55 Q4.45 1.05 4.95 1.0 5.55 1.05 5.5 1.6 5.45 2.05 4.95 2.05 4.45 2.05 4.45 1.55 M0.65 4.6 L0.7 4.7 0.8 4.75 0.85 5.25 Q0.65 5.75 0.1 5.5 L-0.05 5.1 Q0.0 4.7 0.45 4.6 L0.65 4.6 M1.55 5.65 Q1.1 5.5 1.2 5.05 1.35 4.7 1.65 4.7 2.1 4.75 2.1 5.2 2.05 5.7 1.55 5.65 M1.1 3.55 Q1.15 2.4 2.35 1.9 L2.65 1.8 Q3.95 2.05 3.35 3.45 L3.25 3.8 3.55 3.45 Q3.75 3.25 4.0 3.25 5.25 3.7 4.55 4.9 4.05 5.9 2.95 5.95 2.3 5.95 2.45 5.25 2.6 4.6 2.9 4.1 2.4 4.6 1.65 4.4 1.05 4.35 1.1 3.55 M-0.4 -3.2 Q-0.4 -1.7 -1.65 -1.9 -3.15 -2.15 -2.8 -3.5 -2.5 -4.35 -1.8 -4.65 -0.35 -4.6 -0.4 -3.2 M-2.45 -5.85 Q-2.4 -6.5 -1.8 -6.55 -0.9 -6.55 -0.9 -5.65 -0.9 -4.7 -1.7 -4.9 -2.55 -5.0 -2.45 -5.85 M-2.9 -4.65 Q-2.95 -3.9 -3.65 -4.1 -4.25 -4.3 -4.15 -5.0 -4.1 -5.5 -3.6 -5.6 -2.9 -5.45 -2.9 -4.65 M-3.65 -2.4 Q-4.15 -2.45 -4.0 -2.95 -3.95 -3.35 -3.55 -3.35 -3.0 -3.3 -3.05 -2.8 -3.15 -2.2 -3.65 -2.4 M-3.8 -0.2 Q-1.95 -0.2 -2.0 1.45 -2.05 3.2 -3.75 3.1 -4.6 3.1 -4.95 2.25 -5.55 0.65 -4.1 -0.15 L-3.8 -0.2 M-0.85 0.85 Q-0.9 1.45 -1.45 1.3 -2.0 1.15 -1.85 0.55 L-1.35 0.05 Q-0.8 0.25 -0.85 0.85 M-0.85 1.25 Q0.6 1.65 0.4 3.2 0.2 4.7 -1.2 4.6 -1.8 4.5 -2.0 3.95 -2.4 2.7 -1.45 1.6 L-0.85 1.25 M-2.75 4.4 Q-2.85 4.85 -3.35 4.75 -3.85 4.6 -3.6 4.05 -3.45 3.8 -3.05 3.8 -2.55 3.9 -2.75 4.4 M-2.6 5.45 Q-2.15 5.5 -2.15 5.9 -2.15 6.35 -2.6 6.3 -3.05 6.3 -3.0 5.85 L-2.6 5.45 M-0.9 6.4 Q-0.85 5.85 -0.2 5.75 0.35 5.9 0.3 6.65 0.2 7.2 -0.35 7.15 -1.0 7.05 -0.9 6.4" fill="#ebdfbe" fill-rule="evenodd" stroke="none"/>
  </g>
</svg>
