<?xml version="1.0" encoding="UTF-8" standalone="no"?>
<svg xmlns:ffdec="https://www.free-decompiler.com/flash" xmlns:xlink="http://www.w3.org/1999/xlink" ffdec:objectType="shape" height="16.35px" width="12.55px" xmlns="http://www.w3.org/2000/svg">
  <g transform="matrix(1.0, 0.0, 0.0, 1.0, 6.3, 7.95)">
    <path d="M1.15 -7.2 Q1.15 -7.95 1.65 -7.95 2.15 -7.95 2.15 -7.25 2.15 -6.55 1.6 -6.55 1.2 -6.55 1.15 -6.85 L1.15 -7.2 M3.8 -5.2 L3.75 -5.3 4.05 -5.55 4.35 -5.25 4.05 -5.0 3.8 -5.2 M3.55 -4.15 Q3.55 -4.65 3.95 -4.6 4.3 -4.55 4.3 -4.15 L4.25 -3.9 4.35 -3.15 4.2 -2.6 Q4.0 -2.2 3.65 -2.2 3.4 -2.2 3.1 -2.65 L2.8 -3.15 3.15 -3.75 3.55 -4.15 M2.05 -5.25 L2.0 -5.4 Q2.0 -5.8 2.35 -5.85 L2.65 -5.5 2.3 -5.1 Q2.1 -5.1 2.05 -5.25 M0.3 -5.3 L0.25 -5.15 0.05 -5.1 -0.15 -5.15 -0.2 -5.35 0.05 -5.6 0.3 -5.3 M1.7 -1.9 L2.0 -1.55 Q2.0 -1.25 1.65 -1.25 L1.55 -1.25 Q1.35 -1.25 1.35 -1.35 L1.35 -1.6 Q1.35 -1.95 1.7 -1.9 M2.3 -0.8 L2.6 -0.5 Q2.6 -0.2 2.25 -0.2 2.0 -0.2 2.0 -0.5 2.0 -0.8 2.3 -0.8 M4.65 -2.35 Q5.1 -2.85 5.6 -2.85 6.05 -2.85 6.05 -2.15 6.05 -1.0 4.9 -1.0 4.6 -1.0 4.4 -1.3 L4.25 -1.65 4.65 -2.35 M5.65 1.4 Q5.65 1.1 5.95 1.2 6.25 1.25 6.25 1.45 L6.0 1.7 5.75 1.55 5.65 1.4 M3.75 0.9 L3.7 0.7 Q3.7 0.4 4.1 0.4 L4.4 0.7 4.05 1.05 Q3.85 1.05 3.75 0.9 M3.35 2.4 Q3.65 2.4 3.8 3.0 L3.7 3.25 3.35 3.45 Q2.8 3.45 2.8 2.85 2.8 2.4 3.35 2.4 M2.15 3.75 Q2.65 3.75 2.65 4.4 2.65 4.85 2.15 4.85 1.65 4.85 1.6 4.25 1.6 3.75 2.15 3.75 M0.1 3.55 Q0.1 4.2 -0.45 4.2 L-0.9 3.75 Q-0.9 3.3 -0.4 3.05 L-0.1 2.75 Q0.2 2.8 0.2 3.0 L0.1 3.35 0.1 3.55 M0.95 6.05 Q0.95 6.45 0.65 6.45 0.25 6.45 0.05 5.7 0.05 5.35 0.5 5.35 0.8 5.35 0.95 6.05 M2.65 5.5 Q2.65 4.45 3.35 4.25 3.95 4.05 4.0 4.65 L4.1 4.6 4.3 4.85 4.1 5.0 3.95 4.95 3.65 5.55 3.75 5.9 Q3.75 6.4 3.25 6.4 2.75 6.4 2.65 6.0 L2.65 5.5 M4.45 5.6 Q4.45 5.0 4.9 5.25 5.3 5.45 5.3 5.7 5.3 6.1 4.85 6.1 L4.5 5.85 4.45 5.6 M2.05 6.45 L1.9 6.55 Q1.4 6.55 1.55 6.25 1.55 5.95 1.85 5.95 L2.15 6.2 2.05 6.45 M-4.4 -6.85 Q-3.8 -6.55 -3.8 -5.9 -3.8 -5.5 -4.15 -5.5 -4.85 -5.5 -5.0 -6.55 -5.0 -7.15 -4.4 -6.85 M-2.35 -7.05 Q-2.35 -7.65 -1.9 -7.6 -1.5 -7.55 -1.5 -7.0 -1.5 -6.5 -1.85 -6.5 -2.35 -6.5 -2.35 -7.05 M-1.85 -3.8 Q-2.05 -3.4 -2.4 -3.4 -3.15 -3.4 -3.2 -4.0 L-2.95 -4.85 -2.35 -5.5 Q-1.7 -5.5 -1.7 -4.3 L-1.85 -3.8 M-1.05 -3.35 Q-0.75 -3.3 -0.75 -3.15 -0.75 -2.9 -0.95 -2.9 L-1.3 -2.7 Q-1.75 -2.7 -1.75 -3.05 -1.75 -3.6 -1.35 -3.5 L-1.05 -3.35 M-0.65 -3.85 L-0.95 -3.95 -0.55 -4.15 -0.65 -3.85 M-4.45 -3.05 L-4.15 -3.3 -3.9 -3.05 Q-3.9 -2.75 -4.15 -2.75 L-4.45 -3.05 M-1.75 1.35 L-2.15 0.85 Q-2.15 0.5 -1.8 0.6 -1.5 0.75 -1.5 0.95 L-1.55 1.15 -1.75 1.35 M-0.9 1.6 L-0.55 1.9 Q-0.55 2.3 -0.9 2.3 L-1.25 1.9 Q-1.25 1.5 -0.9 1.6 M-4.45 1.3 L-4.85 1.4 Q-5.3 1.4 -5.3 0.8 -5.3 0.3 -4.75 0.3 -4.55 0.3 -4.45 0.4 -4.3 0.05 -3.8 0.0 -3.05 -0.05 -3.05 0.85 -3.05 1.5 -3.9 1.5 L-4.45 1.3 M-4.05 1.95 Q-3.95 1.7 -3.55 1.75 -3.0 1.85 -3.0 2.4 -3.0 3.1 -3.4 3.15 L-4.05 3.4 Q-4.5 3.45 -4.6 2.7 -4.7 1.9 -4.4 1.9 L-4.05 1.95 M-4.25 5.1 Q-4.25 4.75 -3.95 4.85 -3.65 4.9 -3.65 5.2 -3.65 5.5 -3.9 5.5 L-4.25 5.1 M-2.0 3.5 Q-2.0 2.85 -1.5 3.15 -1.0 3.5 -1.0 3.95 L-1.15 4.75 Q-1.15 5.25 -1.55 5.25 L-2.05 4.75 -1.85 3.9 -2.0 3.5 M-6.3 0.65 Q-6.3 0.25 -5.9 0.35 -5.55 0.4 -5.55 0.65 -5.55 1.05 -5.95 1.05 L-6.3 0.65 M-5.25 2.5 Q-4.8 2.55 -4.8 2.95 -4.8 3.45 -5.3 3.45 -5.9 3.45 -5.75 3.0 -5.75 2.45 -5.25 2.5 M-0.7 6.65 L-0.5 6.45 -0.3 6.65 -0.45 6.9 -0.7 6.65 M-0.7 7.55 Q-0.7 7.15 -0.3 7.4 L0.1 8.0 -0.2 8.4 Q-0.55 8.4 -0.7 7.55" fill="#ebdfbe" fill-rule="evenodd" stroke="none"/>
  </g>
</svg>
