<?xml version="1.0" encoding="UTF-8" standalone="no"?>
<svg xmlns:ffdec="https://www.free-decompiler.com/flash" xmlns:xlink="http://www.w3.org/1999/xlink" ffdec:objectType="shape" height="47.0px" width="47.0px" xmlns="http://www.w3.org/2000/svg">
  <g transform="matrix(1.0, 0.0, 0.0, 1.0, 1.5, 1.5)">
    <path d="M22.0 0.0 Q31.1 0.0 37.55 6.45 44.0 12.85 44.0 22.0 44.0 31.1 37.55 37.55 31.1 44.0 22.0 44.0 12.85 44.0 6.45 37.55 0.0 31.1 0.0 22.0 0.0 12.85 6.45 6.45 12.85 0.0 22.0 0.0 M32.4 11.55 Q28.1 7.25 22.0 7.25 15.9 7.25 11.55 11.55 7.25 15.9 7.25 22.0 7.25 28.1 11.55 32.4 15.9 36.7 22.0 36.7 28.1 36.7 32.4 32.4 36.7 28.1 36.7 22.0 36.7 15.9 32.4 11.55" fill="url(#gradient0)" fill-rule="evenodd" stroke="none"/>
    <path d="M22.0 0.0 Q12.85 0.0 6.45 6.45 0.0 12.85 0.0 22.0 0.0 31.1 6.45 37.55 12.85 44.0 22.0 44.0 31.1 44.0 37.55 37.55 44.0 31.1 44.0 22.0 44.0 12.85 37.55 6.45 31.1 0.0 22.0 0.0" fill="none" stroke="#ffffff" stroke-linecap="round" stroke-linejoin="round" stroke-width="3.0"/>
    <path d="M32.4 11.55 Q36.7 15.9 36.7 22.0 36.7 28.1 32.4 32.4 28.1 36.7 22.0 36.7 15.9 36.7 11.55 32.4 7.25 28.1 7.25 22.0 7.25 15.9 11.55 11.55 15.9 7.25 22.0 7.25 28.1 7.25 32.4 11.55 Z" fill="none" stroke="#cccccc" stroke-linecap="round" stroke-linejoin="round" stroke-width="3.0"/>
  </g>
  <defs>
    <radialGradient cx="0" cy="0" gradientTransform="matrix(0.0219, -0.0184, 0.0184, 0.0219, 13.0, 38.0)" gradientUnits="userSpaceOnUse" id="gradient0" r="819.2" spreadMethod="pad">
      <stop offset="0.0" stop-color="#ffffff"/>
      <stop offset="0.5686274509803921" stop-color="#cccccc"/>
      <stop offset="0.9372549019607843" stop-color="#666666"/>
    </radialGradient>
  </defs>
</svg>
