<?xml version="1.0" encoding="UTF-8" standalone="no"?>
<svg xmlns:ffdec="https://www.free-decompiler.com/flash" xmlns:xlink="http://www.w3.org/1999/xlink" ffdec:objectType="shape" height="45.0px" width="45.0px" xmlns="http://www.w3.org/2000/svg">
  <g transform="matrix(1.0, 0.0, 0.0, 1.0, 0.5, 0.5)">
    <path d="M32.4 11.55 Q36.7 15.9 36.7 22.0 36.7 28.1 32.4 32.4 28.1 36.7 22.0 36.7 15.9 36.7 11.55 32.4 7.25 28.1 7.25 22.0 7.25 15.9 11.55 11.55 15.9 7.25 22.0 7.25 28.1 7.25 32.4 11.55" fill="none" stroke="#ffffff" stroke-linecap="round" stroke-linejoin="round" stroke-width="1.0"/>
    <path d="M22.0 0.0 Q12.85 0.0 6.45 6.45 0.0 12.85 0.0 22.0 0.0 31.1 6.45 37.55 12.85 44.0 22.0 44.0 31.1 44.0 37.55 37.55 44.0 31.1 44.0 22.0 44.0 12.85 37.55 6.45 31.1 0.0 22.0 0.0 Z" fill="none" stroke="#cccccc" stroke-linecap="round" stroke-linejoin="round" stroke-width="1.0"/>
  </g>
</svg>
