<?xml version="1.0" encoding="UTF-8" standalone="no"?>
<svg xmlns:ffdec="https://www.free-decompiler.com/flash" xmlns:xlink="http://www.w3.org/1999/xlink" ffdec:objectType="shape" height="7.3px" width="16.0px" xmlns="http://www.w3.org/2000/svg">
  <g transform="matrix(1.0, 0.0, 0.0, 1.0, 0.0, 0.0)">
    <path d="M15.55 0.5 L15.55 1.15 15.45 1.0 4.75 1.0 4.75 0.95 0.0 1.0 0.35 0.5 15.55 0.5 M0.0 6.3 L15.45 6.3 15.45 6.75 0.45 6.75 0.35 6.75 0.0 6.3" fill="#323232" fill-rule="evenodd" stroke="none"/>
    <path d="M0.0 1.0 L4.75 0.95 4.75 1.0 15.45 1.0 15.55 1.15 15.55 0.5 15.8 0.5 16.0 0.7 16.0 6.4 15.6 6.75 15.45 6.75 15.45 6.3 0.0 6.3 0.0 1.0" fill="#2c2c2c" fill-rule="evenodd" stroke="none"/>
    <path d="M15.55 0.5 L0.35 0.5 0.55 0.2 5.0 0.15 4.75 0.2 15.45 0.2 15.6 0.35 15.65 0.35 15.8 0.5 15.55 0.5 M15.45 6.75 L15.6 6.75 15.25 7.1 0.7 7.1 0.45 6.75 15.45 6.75" fill="#6a6a6a" fill-rule="evenodd" stroke="none"/>
    <path d="M15.45 0.2 L4.75 0.2 5.0 0.15 0.55 0.2 0.7 0.0 15.2 0.0 15.45 0.2 M15.25 7.1 L15.1 7.3 0.7 7.3 0.35 6.75 0.45 6.75 0.7 7.1 15.25 7.1" fill="#000000" fill-rule="evenodd" stroke="none"/>
    <path d="M15.4 1.05 L16.0 1.65 16.0 5.65 15.4 6.25 15.1 5.9 15.1 1.35 15.4 1.05 M1.35 2.05 L1.45 2.05 1.45 5.6 1.65 5.6 1.65 4.1 1.9 4.1 1.9 5.45 2.6 5.45 2.6 5.6 3.05 5.6 3.05 5.75 1.35 5.75 1.35 2.05" fill="#2c2c2c" fill-rule="evenodd" stroke="none"/>
    <path d="M15.35 1.0 L15.4 1.05 15.1 1.35 15.1 5.9 15.4 6.25 15.45 6.3 12.75 6.3 12.75 6.0 14.2 6.0 14.7 5.5 14.7 5.3 14.7 3.65 14.4 3.95 14.45 3.75 14.35 3.4 14.05 2.9 Q13.65 2.55 13.15 2.55 12.6 2.55 12.25 2.9 11.9 3.2 11.85 3.65 L11.85 3.75 11.9 4.15 11.95 4.3 11.25 4.55 11.3 4.45 11.4 4.4 11.6 3.85 11.6 3.75 11.55 3.3 11.3 2.85 11.25 2.85 Q10.85 2.45 10.3 2.45 9.75 2.45 9.4 2.85 L9.15 3.2 9.05 3.6 9.0 3.65 9.0 3.75 9.1 4.15 9.15 4.2 9.15 4.25 8.5 4.5 8.65 4.4 8.8 3.9 8.8 3.85 8.8 3.75 8.75 3.3 8.5 2.85 8.45 2.85 8.25 2.7 7.95 2.55 7.55 2.45 Q7.0 2.45 6.65 2.85 L6.35 3.2 6.3 3.4 6.25 3.6 6.3 3.55 6.3 4.0 6.25 3.75 6.25 5.6 6.4 5.75 6.7 6.0 8.95 6.0 9.05 6.2 9.0 6.3 5.15 6.3 5.6 5.55 5.1 5.0 5.35 4.1 5.15 3.35 4.4 3.8 4.4 4.85 3.75 5.35 4.7 6.05 4.8 6.3 0.65 6.3 0.0 5.65 0.0 1.65 0.65 1.0 3.2 1.0 3.25 1.05 3.7 1.85 3.7 2.4 4.25 2.6 4.55 2.2 5.65 1.85 5.65 1.0 8.2 1.0 15.35 1.0 M14.7 2.45 L14.7 1.85 14.05 1.3 6.8 1.3 6.25 1.75 6.25 2.95 6.3 2.9 6.85 2.2 7.7 2.0 8.45 1.55 9.2 2.55 9.6 2.05 10.6 1.9 11.15 1.9 11.85 2.6 12.45 1.95 14.2 1.9 14.7 2.45 M8.85 5.75 L8.75 5.55 10.1 5.0 10.9 5.25 11.75 4.95 12.55 5.25 12.75 5.75 8.85 5.75 M0.8 1.65 L0.25 1.65 0.25 5.8 0.8 5.8 0.8 1.65 M1.15 5.9 L1.15 6.0 3.3 6.0 3.3 3.45 3.3 1.4 1.15 1.4 1.15 5.9" fill="#6a6a6a" fill-rule="evenodd" stroke="none"/>
    <path d="M14.7 2.45 L14.2 1.9 12.45 1.95 11.85 2.6 11.15 1.9 10.6 1.9 9.6 2.05 9.2 2.55 8.45 1.55 7.7 2.0 6.85 2.2 6.3 2.9 6.25 2.95 6.25 1.75 6.8 1.3 14.05 1.3 14.7 1.85 14.7 2.45 M11.3 4.45 L11.25 4.55 11.95 4.3 12.25 4.65 12.3 4.65 13.1 5.0 14.2 4.5 14.4 3.95 14.7 3.65 14.7 5.3 14.2 5.75 12.75 5.75 12.55 5.25 11.75 4.95 10.9 5.25 10.1 5.0 8.75 5.55 8.85 5.75 6.4 5.75 6.25 5.6 6.25 3.75 6.3 4.0 6.3 4.15 6.35 4.15 6.35 4.2 6.45 4.45 6.65 4.6 6.8 4.65 Q7.0 4.85 7.25 4.9 L7.8 4.8 8.25 4.65 8.4 4.55 8.65 4.4 8.5 4.5 9.15 4.25 9.25 4.45 9.4 4.6 9.55 4.65 Q9.75 4.85 10.05 4.9 10.75 4.85 11.3 4.45 M1.45 2.05 L1.35 2.05 1.35 1.75 3.1 1.75 3.1 5.75 3.05 5.75 3.05 5.6 3.05 2.05 1.45 2.05" fill="#96918b" fill-rule="evenodd" stroke="none"/>
    <path d="M14.05 2.9 L13.75 2.95 13.15 2.8 Q12.7 2.8 12.4 3.05 L12.15 3.4 11.85 3.65 Q11.9 3.2 12.25 2.9 12.6 2.55 13.15 2.55 13.65 2.55 14.05 2.9 M11.25 2.85 L11.15 2.9 11.0 2.9 10.3 2.75 Q9.9 2.75 9.6 3.0 L9.35 3.4 9.15 3.5 9.05 3.6 9.15 3.2 9.4 2.85 Q9.75 2.45 10.3 2.45 10.85 2.45 11.25 2.85 M8.5 2.85 L8.35 2.9 8.25 2.9 8.2 2.9 7.55 2.75 Q7.1 2.75 6.8 3.0 L6.55 3.4 6.35 3.5 6.3 3.55 6.25 3.6 6.3 3.4 6.35 3.2 6.65 2.85 Q7.0 2.45 7.55 2.45 L7.95 2.55 8.25 2.7 8.45 2.85 8.5 2.85" fill="#7d7571" fill-rule="evenodd" stroke="none"/>
    <path d="M13.75 2.95 L14.05 2.9 14.35 3.4 14.15 3.55 13.9 3.05 13.75 2.95 M11.85 3.65 L12.15 3.4 12.1 3.75 12.2 4.1 11.9 4.15 11.85 3.75 11.85 3.65 M11.25 2.85 L11.3 2.85 11.55 3.3 11.45 3.4 11.3 3.5 11.05 3.0 11.0 2.9 11.15 2.9 11.25 2.85 M9.35 3.4 L9.3 3.75 9.35 4.1 9.15 4.15 9.1 4.15 9.0 3.75 9.0 3.65 9.05 3.6 9.15 3.5 9.35 3.4 M8.2 2.9 L8.25 2.9 8.35 2.9 8.5 2.85 8.75 3.3 8.65 3.4 8.55 3.5 8.25 3.0 8.25 2.95 8.2 2.9 M6.3 3.55 L6.35 3.5 6.55 3.4 6.5 3.75 6.6 4.1 6.35 4.15 6.3 4.15 6.3 4.0 6.3 3.55" fill="#9e9894" fill-rule="evenodd" stroke="none"/>
    <path d="M12.15 3.4 Q12.7 2.85 13.75 2.95 L13.9 3.05 14.15 3.55 13.4 3.5 13.2 3.4 12.95 3.5 12.85 3.65 12.8 3.7 Q12.25 3.95 12.2 4.1 L12.1 3.75 12.15 3.4 M11.0 2.9 L11.05 3.0 11.3 3.5 10.55 3.45 10.4 3.4 10.15 3.5 10.05 3.65 Q9.65 3.85 9.6 4.0 L9.35 4.1 9.3 3.75 9.35 3.4 Q9.75 2.85 11.0 2.9 M8.2 2.9 L8.25 2.95 8.25 3.0 8.55 3.5 7.95 3.5 7.8 3.5 7.55 3.4 7.3 3.5 7.2 3.7 6.6 4.1 6.5 3.75 6.55 3.4 Q6.95 2.85 8.2 2.9" fill="#675f5c" fill-rule="evenodd" stroke="none"/>
    <path d="M12.15 3.4 L12.4 3.05 Q12.7 2.8 13.15 2.8 L13.75 2.95 Q12.7 2.85 12.15 3.4 M11.0 2.9 Q9.75 2.85 9.35 3.4 L9.6 3.0 Q9.9 2.75 10.3 2.75 L11.0 2.9 M6.55 3.4 L6.8 3.0 Q7.1 2.75 7.55 2.75 L8.2 2.9 Q6.95 2.85 6.55 3.4" fill="#554f4d" fill-rule="evenodd" stroke="none"/>
    <path d="M11.55 3.3 L11.6 3.75 11.6 3.85 11.5 3.95 11.2 4.2 11.35 3.75 11.3 3.5 11.45 3.4 11.55 3.3 M11.95 4.3 L11.9 4.15 12.2 4.1 12.4 4.45 12.8 4.65 12.3 4.65 12.25 4.65 11.95 4.3 M10.05 4.65 L9.85 4.65 9.55 4.65 9.4 4.6 9.25 4.45 9.15 4.25 9.15 4.2 9.15 4.15 9.35 4.1 9.4 4.15 9.6 4.4 Q9.8 4.6 10.05 4.65 M14.05 4.25 L14.2 3.75 14.15 3.55 14.35 3.4 14.45 3.75 14.4 3.95 14.05 4.25 M8.55 3.5 L8.65 3.4 8.75 3.3 8.8 3.75 8.8 3.85 8.8 3.9 8.75 3.95 8.45 4.2 8.6 3.75 8.55 3.5 M6.8 4.65 L6.65 4.6 6.45 4.45 6.35 4.2 6.35 4.15 6.6 4.1 6.8 4.4 7.3 4.65 7.05 4.65 6.8 4.65" fill="#aeaaa6" fill-rule="evenodd" stroke="none"/>
    <path d="M12.2 4.1 Q12.25 3.95 12.8 3.7 L12.85 3.65 12.95 3.5 13.2 3.4 13.4 3.5 14.15 3.55 14.2 3.75 14.05 4.25 Q13.25 3.9 12.8 4.65 L12.4 4.45 12.2 4.1 M9.35 4.1 L9.6 4.0 Q9.65 3.85 10.05 3.65 L10.15 3.5 10.4 3.4 10.55 3.45 11.3 3.5 11.35 3.75 11.2 4.2 Q10.45 3.9 10.05 4.65 9.8 4.6 9.6 4.4 L9.4 4.15 9.35 4.1 M6.6 4.1 L7.2 3.7 7.3 3.5 7.55 3.4 7.8 3.5 7.95 3.5 8.55 3.5 8.6 3.75 8.45 4.2 8.05 4.05 Q7.75 3.9 7.3 4.65 L6.8 4.4 6.6 4.1" fill="#706765" fill-rule="evenodd" stroke="none"/>
    <path d="M11.6 3.85 L11.4 4.4 11.3 4.45 Q10.75 4.85 10.05 4.9 9.75 4.85 9.55 4.65 L9.85 4.65 10.05 4.65 10.3 4.65 11.05 4.4 11.2 4.2 11.5 3.95 11.6 3.85 M12.75 5.75 L14.2 5.75 14.7 5.3 14.7 5.5 14.2 6.0 12.75 6.0 12.75 5.75 M14.4 3.95 L14.2 4.5 13.1 5.0 12.3 4.65 12.8 4.65 13.15 4.7 13.9 4.45 14.05 4.25 14.4 3.95 M8.45 4.2 L8.75 3.95 8.8 3.9 8.65 4.4 8.4 4.55 8.25 4.65 7.8 4.8 7.25 4.9 Q7.0 4.85 6.8 4.65 L7.05 4.65 7.3 4.65 7.55 4.65 8.25 4.45 8.25 4.4 8.45 4.2 M6.4 5.75 L8.85 5.75 8.95 6.0 6.7 6.0 6.4 5.75" fill="#c2bfbc" fill-rule="evenodd" stroke="none"/>
    <path d="M11.2 4.2 L11.05 4.4 10.3 4.65 10.05 4.65 Q10.45 3.9 11.2 4.2 M14.05 4.25 L13.9 4.45 13.15 4.7 12.8 4.65 Q13.25 3.9 14.05 4.25 M7.3 4.65 Q7.75 3.9 8.05 4.05 L8.45 4.2 8.25 4.4 8.25 4.45 7.55 4.65 7.3 4.65" fill="#8a807d" fill-rule="evenodd" stroke="none"/>
    <path d="M12.75 5.75 L12.75 6.0 8.95 6.0 8.85 5.75 12.75 5.75" fill="#807e7c" fill-rule="evenodd" stroke="none"/>
    <path d="M12.75 6.3 L9.0 6.3 9.05 6.2 8.95 6.0 12.75 6.0 12.75 6.3 M5.15 6.3 L4.8 6.3 4.7 6.05 3.75 5.35 4.4 4.85 4.4 3.8 5.15 3.35 5.35 4.1 5.1 5.0 5.6 5.55 5.15 6.3 M5.65 1.0 L5.65 1.85 4.55 2.2 4.25 2.6 3.7 2.4 3.7 1.85 3.25 1.05 3.2 1.0 4.75 0.95 4.75 1.0 5.65 1.0 M2.6 5.45 L1.9 5.45 1.9 4.1 2.6 4.1 2.6 5.45" fill="#444444" fill-rule="evenodd" stroke="none"/>
    <path d="M3.15 0.9 L5.6 0.9 5.65 1.0 4.75 1.0 4.75 0.95 3.2 1.0 3.15 0.9" fill="#2b2b2b" fill-rule="evenodd" stroke="none"/>
    <path d="M3.05 5.6 L2.6 5.6 2.6 5.45 2.6 4.1 1.9 4.1 1.65 4.1 1.65 5.6 1.45 5.6 1.45 2.05 3.05 2.05 3.05 5.6 M0.8 1.65 L0.8 5.8 0.25 5.8 0.25 1.65 0.8 1.65" fill="#545454" fill-rule="evenodd" stroke="none"/>
    <path d="M1.35 2.05 L1.35 5.75 3.05 5.75 3.1 5.75 3.1 1.75 1.35 1.75 1.35 2.05 M3.3 3.45 L3.15 5.9 1.15 5.9 1.15 1.4 3.3 1.4 3.3 3.45" fill="#514b48" fill-rule="evenodd" stroke="none"/>
    <path d="M3.3 3.45 L3.3 6.0 1.15 6.0 1.15 5.9 3.15 5.9 3.3 3.45" fill="#625e59" fill-rule="evenodd" stroke="none"/>
    <path d="M8.25 0.9 L15.25 0.9 15.35 1.0 8.2 1.0 8.25 0.9" fill="url(#gradient0)" fill-rule="evenodd" stroke="none"/>
    <path d="M8.0 0.9 L8.25 0.9 8.2 1.0 8.0 0.9" fill="url(#gradient1)" fill-rule="evenodd" stroke="none"/>
    <path d="M5.6 0.9 L8.0 0.9 8.2 1.0 5.65 1.0 5.6 0.9" fill="url(#gradient2)" fill-rule="evenodd" stroke="none"/>
    <path d="M0.65 1.0 L0.75 0.9 3.15 0.9 3.2 1.0 0.65 1.0" fill="url(#gradient3)" fill-rule="evenodd" stroke="none"/>
  </g>
  <defs>
    <linearGradient gradientTransform="matrix(-0.0063, 0.0, 0.0, -0.0063, 10.25, 0.7)" gradientUnits="userSpaceOnUse" id="gradient0" spreadMethod="pad" x1="-819.2" x2="819.2">
      <stop offset="0.0" stop-color="#2c2c2c"/>
      <stop offset="1.0" stop-color="#8c8c8c"/>
    </linearGradient>
    <linearGradient gradientTransform="matrix(-0.0063, 0.0, 0.0, -0.0063, 8.1, 0.7)" gradientUnits="userSpaceOnUse" id="gradient1" spreadMethod="pad" x1="-819.2" x2="819.2">
      <stop offset="0.0" stop-color="#2c2c2c"/>
      <stop offset="1.0" stop-color="#8c8c8c"/>
    </linearGradient>
    <linearGradient gradientTransform="matrix(-0.0063, 0.0, 0.0, -0.0063, 6.1, 0.7)" gradientUnits="userSpaceOnUse" id="gradient2" spreadMethod="pad" x1="-819.2" x2="819.2">
      <stop offset="0.0" stop-color="#2c2c2c"/>
      <stop offset="1.0" stop-color="#8c8c8c"/>
    </linearGradient>
    <linearGradient gradientTransform="matrix(-0.0063, 0.0, 0.0, -0.0063, 5.45, 0.7)" gradientUnits="userSpaceOnUse" id="gradient3" spreadMethod="pad" x1="-819.2" x2="819.2">
      <stop offset="0.0" stop-color="#2c2c2c"/>
      <stop offset="1.0" stop-color="#8c8c8c"/>
    </linearGradient>
  </defs>
</svg>
