<?xml version="1.0" encoding="UTF-8" standalone="no"?>
<svg xmlns:ffdec="https://www.free-decompiler.com/flash" xmlns:xlink="http://www.w3.org/1999/xlink" ffdec:objectType="shape" height="2.85px" width="16.05px" xmlns="http://www.w3.org/2000/svg">
  <g transform="matrix(1.0, 0.0, 0.0, 1.0, 1.1, 0.65)">
    <path d="M14.95 -0.15 L14.95 1.1 13.9 2.15 -0.35 2.15 -1.1 1.15 -1.0 -0.15 14.95 -0.15" fill="#000000" fill-rule="evenodd" stroke="none"/>
    <path d="M-1.0 -0.15 L-1.0 -0.65 14.95 -0.65 14.95 -0.15 -1.0 -0.15" fill="#808080" fill-rule="evenodd" stroke="none"/>
    <path d="M13.5 1.1 L13.3 0.6 12.8 0.4 12.3 0.6 12.1 1.1 12.3 1.6 12.8 1.8 Q13.1 1.8 13.3 1.6 L13.5 1.1 13.3 1.6 Q13.1 1.8 12.8 1.8 L12.3 1.6 12.1 1.1 12.3 0.6 12.8 0.4 13.3 0.6 13.5 1.1 M13.9 1.1 L13.55 1.85 Q13.25 2.2 12.8 2.2 12.35 2.2 12.0 1.85 11.7 1.55 11.7 1.1 11.7 0.65 12.0 0.3 12.35 0.0 12.8 0.0 13.25 0.0 13.55 0.3 13.9 0.65 13.9 1.1 M10.9 0.3 Q11.25 0.65 11.25 1.1 11.25 1.55 10.9 1.85 10.6 2.2 10.15 2.2 9.7 2.2 9.35 1.85 9.05 1.55 9.05 1.1 9.05 0.65 9.35 0.3 9.7 0.0 10.15 0.0 10.6 0.0 10.9 0.3 M4.45 1.1 L4.25 0.6 3.75 0.4 3.25 0.6 3.05 1.1 3.25 1.6 3.75 1.8 4.25 1.6 4.45 1.1 4.25 1.6 3.75 1.8 3.25 1.6 3.05 1.1 3.25 0.6 3.75 0.4 4.25 0.6 4.45 1.1 M10.85 1.1 L10.65 0.6 10.15 0.4 9.65 0.6 9.45 1.1 9.65 1.6 10.15 1.8 10.65 1.6 10.85 1.1 10.65 1.6 10.15 1.8 9.65 1.6 9.45 1.1 9.65 0.6 10.15 0.4 10.65 0.6 10.85 1.1 M4.85 1.1 L4.5 1.85 Q4.2 2.2 3.75 2.2 3.3 2.2 2.95 1.85 2.65 1.55 2.65 1.1 2.65 0.65 2.95 0.3 3.3 0.0 3.75 0.0 4.2 0.0 4.5 0.3 L4.85 1.1 M2.2 1.1 L1.85 1.85 Q1.55 2.2 1.1 2.2 0.65 2.2 0.3 1.85 0.0 1.55 0.0 1.1 0.0 0.65 0.3 0.3 0.65 0.0 1.1 0.0 1.55 0.0 1.85 0.3 2.2 0.65 2.2 1.1 M1.8 1.1 L1.6 0.6 1.1 0.4 0.6 0.6 0.4 1.1 0.6 1.6 Q0.85 1.8 1.1 1.8 L1.6 1.6 1.8 1.1 1.6 1.6 1.1 1.8 Q0.85 1.8 0.6 1.6 L0.4 1.1 0.6 0.6 1.1 0.4 1.6 0.6 1.8 1.1" fill="#808080" fill-rule="evenodd" stroke="none"/>
    <path d="M13.5 1.1 L13.3 1.6 Q13.1 1.8 12.8 1.8 L12.3 1.6 12.1 1.1 12.3 0.6 12.8 0.4 13.3 0.6 13.5 1.1 M10.85 1.1 L10.65 1.6 10.15 1.8 9.65 1.6 9.45 1.1 9.65 0.6 10.15 0.4 10.65 0.6 10.85 1.1 M4.45 1.1 L4.25 1.6 3.75 1.8 3.25 1.6 3.05 1.1 3.25 0.6 3.75 0.4 4.25 0.6 4.45 1.1 M1.8 1.1 L1.6 1.6 1.1 1.8 Q0.85 1.8 0.6 1.6 L0.4 1.1 0.6 0.6 1.1 0.4 1.6 0.6 1.8 1.1 Z" fill="none" stroke="#333333" stroke-linecap="round" stroke-linejoin="round" stroke-opacity="0.5019608" stroke-width="0.2"/>
  </g>
</svg>
