<?xml version="1.0" encoding="UTF-8" standalone="no"?>
<svg xmlns:ffdec="https://www.free-decompiler.com/flash" xmlns:xlink="http://www.w3.org/1999/xlink" ffdec:objectType="shape" height="7.3px" width="16.0px" xmlns="http://www.w3.org/2000/svg">
  <g transform="matrix(1.0, 0.0, 0.0, 1.0, 0.0, 0.0)">
    <path d="M0.55 0.2 L0.7 0.0 15.2 0.0 15.45 0.2 4.75 0.2 5.0 0.15 0.55 0.2 M15.25 7.1 L15.1 7.3 0.7 7.3 0.35 6.75 0.45 6.75 0.7 7.1 15.25 7.1" fill="#000000" fill-rule="evenodd" stroke="none"/>
    <path d="M0.55 0.2 L5.0 0.15 4.75 0.2 15.45 0.2 15.6 0.35 15.65 0.35 15.8 0.5 15.55 0.5 0.35 0.5 0.55 0.2 M15.6 6.75 L15.25 7.1 0.7 7.1 0.45 6.75 15.45 6.75 15.6 6.75" fill="#6a6a6a" fill-rule="evenodd" stroke="none"/>
    <path d="M0.35 6.75 L0.0 6.3 15.45 6.3 15.45 6.75 0.45 6.75 0.35 6.75 M0.0 1.0 L0.35 0.5 15.55 0.5 15.55 1.15 15.45 1.0 4.75 1.0 4.75 0.95 0.0 1.0" fill="#323232" fill-rule="evenodd" stroke="none"/>
    <path d="M15.8 0.5 L16.0 0.7 16.0 6.4 15.6 6.75 15.45 6.75 15.45 6.3 0.0 6.3 0.0 1.0 4.75 0.95 4.75 1.0 15.45 1.0 15.55 1.15 15.55 0.5 15.8 0.5" fill="#2c2c2c" fill-rule="evenodd" stroke="none"/>
  </g>
</svg>
