<?xml version="1.0" encoding="UTF-8" standalone="no"?>
<svg xmlns:ffdec="https://www.free-decompiler.com/flash" xmlns:xlink="http://www.w3.org/1999/xlink" ffdec:objectType="shape" height="12.4px" width="12.6px" xmlns="http://www.w3.org/2000/svg">
  <g transform="matrix(1.0, 0.0, 0.0, 1.0, -18.2, -39.8)">
    <path d="M29.95 48.4 L29.6 50.2 Q26.25 52.4 22.6 50.45 21.5 49.85 20.45 48.9 L19.65 48.05 Q19.05 47.2 19.05 46.1 19.0 43.85 21.95 42.65 23.55 42.0 24.3 42.2 24.9 42.35 25.05 43.15 L25.25 44.9 Q25.35 46.1 25.8 46.75 26.75 48.15 28.45 48.4 L29.95 48.4" fill="#5da555" fill-rule="evenodd" stroke="none"/>
    <path d="M29.95 48.4 L28.45 48.4 Q26.75 48.15 25.8 46.75 25.35 46.1 25.25 44.9 L25.05 43.15 Q24.9 42.35 24.3 42.2 23.55 42.0 21.95 42.65 19.0 43.85 19.05 46.1 19.05 47.2 19.65 48.05 L20.45 48.9 Q21.5 49.85 22.6 50.45 26.25 52.4 29.6 50.2" fill="none" stroke="#1b2b16" stroke-linecap="butt" stroke-linejoin="miter-clip" stroke-miterlimit="4.0" stroke-width="1.7000000000000002"/>
  </g>
</svg>
