<?xml version="1.0" encoding="UTF-8" standalone="no"?>
<svg xmlns:ffdec="https://www.free-decompiler.com/flash" xmlns:xlink="http://www.w3.org/1999/xlink" ffdec:objectType="shape" height="176.0px" width="465.05px" xmlns="http://www.w3.org/2000/svg">
  <g transform="matrix(1.0, 0.0, 0.0, 1.0, 0.0, 176.0)">
    <path d="M301.1 -139.2 L301.1 -139.25 301.05 -139.25 301.1 -139.2 M134.35 -162.45 L137.8 -162.65 142.8 -162.0 142.8 -159.6 143.55 -159.55 143.55 -157.15 143.9 -157.1 143.9 -154.5 144.9 -154.4 144.9 -150.65 145.55 -150.6 145.55 -147.0 146.15 -146.95 146.1 -143.35 146.8 -143.35 146.8 -118.25 147.85 -118.25 147.85 -118.95 151.05 -118.95 151.05 -117.5 152.05 -117.5 152.05 -125.1 153.1 -125.1 153.1 -125.95 154.5 -125.95 154.5 -142.95 157.95 -143.1 157.95 -144.95 169.9 -145.9 169.9 -143.6 171.5 -143.65 173.65 -143.35 173.6 -125.95 175.05 -125.95 175.05 -124.45 175.75 -124.45 175.75 -126.95 177.25 -126.95 177.25 -145.0 180.95 -145.15 182.45 -147.45 192.4 -148.25 192.7 -148.25 192.4 -148.25 193.65 -145.7 195.4 -145.75 197.65 -145.4 197.6 -126.95 199.1 -126.95 199.1 -125.1 200.15 -125.1 200.15 -127.0 201.15 -127.0 201.15 -128.05 201.65 -128.05 201.65 -128.7 201.1 -128.7 201.1 -130.65 201.65 -130.65 201.65 -131.55 201.1 -131.55 201.1 -133.5 201.65 -133.5 201.65 -134.5 201.1 -134.5 201.1 -137.9 201.65 -137.9 201.65 -147.75 202.7 -153.6 210.75 -153.6 210.75 -157.15 210.05 -157.85 210.05 -158.25 213.55 -158.25 213.55 -160.9 213.3 -161.1 213.3 -161.45 214.75 -161.45 214.75 -161.9 215.15 -161.9 215.15 -162.5 219.7 -168.8 224.35 -162.45 224.35 -161.9 224.75 -161.9 224.75 -161.45 226.25 -161.45 226.25 -161.1 226.0 -160.9 226.0 -158.25 229.4 -158.25 229.4 -157.85 228.7 -157.15 228.7 -130.5 229.4 -130.5 229.4 -130.1 228.7 -129.4 228.7 -129.35 232.65 -129.35 232.65 -128.7 234.05 -128.7 234.05 -127.85 234.45 -127.85 234.45 -134.15 235.0 -134.15 235.0 -136.05 235.4 -136.05 235.4 -139.35 237.6 -139.35 237.6 -140.15 243.95 -140.15 243.95 -139.35 245.05 -139.35 245.05 -140.05 246.05 -140.05 246.05 -140.45 249.15 -140.45 249.15 -140.05 249.6 -140.05 249.6 -139.35 250.5 -139.35 250.5 -141.4 251.75 -141.4 251.75 -141.75 252.7 -141.75 252.7 -142.9 251.65 -142.9 251.65 -143.75 252.7 -143.75 252.7 -151.55 253.3 -155.2 254.9 -156.85 255.35 -159.8 256.45 -160.8 256.8 -163.55 258.1 -164.55 258.4 -167.25 260.15 -168.65 260.75 -171.15 261.1 -171.15 261.45 -175.55 261.8 -171.15 262.2 -171.15 262.8 -168.65 264.55 -167.25 264.85 -164.55 266.15 -163.55 266.5 -160.8 267.6 -159.8 268.05 -156.85 269.65 -155.2 270.25 -151.55 270.25 -136.25 271.65 -136.25 271.65 -137.45 275.35 -137.45 275.35 -138.2 276.45 -138.2 276.45 -136.25 278.85 -136.25 278.85 -136.65 281.95 -136.65 281.95 -136.25 285.45 -136.25 285.45 -146.0 286.85 -146.0 286.85 -155.05 287.15 -155.2 287.4 -158.15 288.7 -159.75 288.7 -162.85 293.15 -165.95 293.15 -166.8 293.85 -167.85 293.85 -169.15 293.9 -169.25 293.95 -169.3 294.05 -169.25 294.1 -169.15 294.1 -167.8 294.8 -166.8 294.8 -165.9 299.3 -162.4 299.25 -159.55 300.4 -158.2 300.6 -155.2 301.1 -155.0 301.1 -146.0 302.2 -146.0 302.2 -127.0 304.85 -127.0 305.6 -128.25 305.6 -133.85 310.85 -133.85 310.85 -128.65 312.3 -128.95 312.3 -133.85 312.95 -134.5 318.6 -134.1 318.7 -134.85 319.5 -135.45 321.05 -135.1 321.05 -131.8 322.5 -132.1 324.75 -131.75 324.8 -127.95 325.3 -127.95 326.25 -131.25 326.15 -131.35 326.2 -132.1 326.45 -132.4 326.55 -137.15 326.15 -137.75 326.15 -138.05 326.5 -138.2 326.5 -138.75 326.8 -138.9 326.8 -140.75 326.65 -141.65 326.3 -141.75 326.3 -142.2 326.7 -142.4 326.7 -143.0 326.95 -143.15 326.95 -145.0 326.4 -145.75 327.2 -147.15 327.4 -148.15 327.55 -149.0 Q327.9 -150.65 328.55 -152.2 L328.95 -152.75 328.95 -153.1 Q328.7 -153.2 328.75 -153.35 L328.7 -154.15 328.85 -154.25 329.05 -154.35 329.25 -154.4 329.7 -155.45 329.55 -155.55 329.55 -155.6 329.75 -155.75 329.6 -155.8 329.55 -155.85 329.5 -156.15 329.45 -156.35 Q329.2 -156.55 329.45 -156.7 L329.65 -157.4 329.7 -157.45 329.7 -157.65 329.7 -157.75 329.6 -157.95 329.6 -158.05 329.6 -158.1 329.65 -158.15 329.65 -158.2 329.7 -158.2 329.75 -158.25 329.8 -158.2 329.8 -158.15 329.85 -158.1 330.0 -158.0 329.95 -157.9 329.95 -157.75 329.95 -157.65 330.05 -157.05 330.05 -156.9 Q330.4 -156.9 330.15 -156.6 L330.1 -156.45 330.05 -155.85 330.1 -155.75 330.25 -155.6 330.3 -155.6 330.05 -155.45 330.55 -154.4 330.65 -154.35 330.85 -154.3 331.0 -154.1 331.0 -153.3 330.75 -153.1 330.75 -152.75 331.1 -152.35 332.25 -149.0 332.4 -148.15 332.55 -147.2 332.6 -147.15 333.4 -145.75 332.85 -145.0 332.85 -143.15 333.1 -143.0 333.1 -142.4 333.5 -142.2 333.5 -141.75 333.15 -141.65 333.0 -140.75 333.0 -138.9 333.3 -138.75 333.3 -138.4 333.6 -138.35 333.6 -137.7 333.25 -137.55 333.35 -132.4 333.6 -132.1 333.65 -131.5 333.65 -131.35 333.55 -131.25 334.05 -130.15 336.0 -130.4 337.5 -129.95 337.45 -127.0 342.75 -127.0 342.75 -125.75 346.1 -125.75 346.1 -144.6 346.6 -144.65 346.6 -145.3 346.1 -145.25 346.1 -148.85 358.35 -149.9 363.0 -149.15 363.0 -145.5 362.55 -145.55 362.55 -144.9 363.0 -144.85 363.0 -121.35 365.7 -121.35 365.7 -128.2 369.5 -128.2 369.5 -148.25 371.15 -148.35 371.15 -153.6 372.4 -153.75 372.4 -156.2 383.25 -157.55 384.3 -157.1 385.75 -157.1 385.75 -155.0 387.25 -155.0 387.25 -149.25 388.85 -149.25 388.85 -130.5 390.85 -130.5 392.85 -129.1 394.05 -129.1 394.05 -128.5 395.15 -128.5 395.15 -127.3 398.0 -127.3 398.0 -125.1 399.85 -125.1 399.85 -143.25 404.0 -143.25 404.0 -144.0 405.5 -144.0 405.5 -145.4 406.25 -145.4 406.25 -156.5 407.05 -156.5 407.05 -157.6 410.65 -163.75 427.25 -164.7 430.8 -156.9 431.05 -156.9 431.05 -143.25 432.75 -143.25 432.75 -134.35 434.3 -134.35 434.3 -135.85 436.75 -135.85 436.75 -136.9 438.55 -136.9 438.55 -135.85 439.0 -135.85 439.0 -134.35 445.55 -134.35 445.55 -136.0 447.3 -136.0 447.3 -138.4 448.4 -138.4 448.4 -150.6 451.05 -150.6 451.05 -160.9 451.55 -160.9 451.55 -165.15 451.8 -165.15 456.3 -172.0 456.3 -173.0 457.15 -173.0 460.3 -176.0 465.05 -176.0 465.05 -34.25 465.05 -5.2 465.05 0.0 0.0 0.0 0.0 -176.0 2.95 -176.0 6.15 -173.0 6.95 -173.0 6.95 -172.0 11.45 -165.15 11.7 -165.15 11.7 -160.9 12.2 -160.9 12.2 -150.6 14.9 -150.6 14.9 -138.4 15.95 -138.4 15.95 -136.0 17.7 -136.0 17.7 -134.35 24.3 -134.35 24.3 -135.85 24.7 -135.85 24.7 -136.9 26.55 -136.9 26.55 -135.85 28.95 -135.85 28.95 -134.35 32.9 -134.35 32.9 -121.15 37.85 -121.15 37.85 -122.45 43.15 -122.45 43.15 -121.15 45.8 -121.15 45.8 -109.5 46.5 -109.5 46.5 -105.8 48.5 -105.8 48.5 -110.95 49.5 -110.95 49.5 -113.65 54.3 -113.65 54.3 -110.95 61.0 -110.95 61.0 -102.75 65.95 -102.75 65.95 -108.2 71.3 -108.2 71.3 -115.65 74.85 -119.35 81.8 -119.35 81.8 -120.5 84.9 -120.5 84.9 -125.75 87.8 -125.75 87.8 -128.25 89.9 -128.25 89.9 -128.6 98.1 -128.6 98.1 -128.25 102.25 -128.25 102.25 -125.75 104.05 -125.75 104.05 -116.7 108.55 -116.7 108.55 -115.75 112.65 -115.75 112.65 -123.5 113.3 -123.5 113.3 -130.25 114.4 -130.25 114.4 -132.75 115.15 -132.8 115.15 -133.2 115.2 -133.2 116.7 -134.6 118.35 -133.45 118.35 -133.4 119.35 -133.4 119.35 -133.9 122.6 -135.75 123.85 -135.35 125.1 -135.8 127.4 -134.65 127.5 -134.55 127.55 -134.0 128.6 -133.9 128.6 -133.3 130.85 -133.4 130.85 -143.35 131.35 -143.35 131.35 -147.25 131.85 -147.25 131.85 -151.1 132.4 -151.1 132.4 -155.15 133.45 -155.25 133.45 -157.7 133.75 -157.7 133.75 -160.25 134.35 -160.3 134.35 -162.45" fill="#000000" fill-rule="evenodd" stroke="none"/>
  </g>
</svg>
