<?xml version="1.0" encoding="UTF-8" standalone="no"?>
<svg xmlns:ffdec="https://www.free-decompiler.com/flash" xmlns:xlink="http://www.w3.org/1999/xlink" ffdec:objectType="shape" height="145.6px" width="266.9px" xmlns="http://www.w3.org/2000/svg">
  <g transform="matrix(1.0, 0.0, 0.0, 1.0, 133.0, 69.25)">
    <path d="M-50.95 65.95 L-132.1 76.35 -133.0 76.35 -132.85 59.55 -132.4 47.65 -131.6 35.6 -131.3 31.7 -131.35 31.75 -130.0 19.5 Q-129.85 18.1 -128.8 17.25 L-128.75 17.25 -125.2 14.45 -120.35 10.7 -109.7 2.85 -105.2 -0.25 -99.4 -4.2 -99.6 -4.05 -90.65 -9.25 Q-89.3 -13.35 -88.5 -19.45 -87.05 -31.5 -89.5 -41.15 -92.0 -50.8 -93.5 -53.15 L-95.4 -56.0 -96.7 -57.35 Q-97.6 -58.2 -97.5 -59.15 -97.4 -60.15 -96.7 -60.9 -95.95 -61.75 -94.65 -62.3 -93.6 -62.95 -91.5 -63.2 -84.35 -64.2 -77.95 -63.05 L-78.05 -63.05 Q-55.4 -59.6 -39.3 -46.6 L-39.4 -46.7 -37.6 -45.3 Q-25.0 -35.55 -19.85 -19.0 L22.1 -12.75 22.15 -12.75 23.5 -12.25 26.55 -10.1 26.65 -10.15 61.0 -34.3 61.05 -34.55 61.0 -34.5 61.7 -36.15 Q62.4 -37.8 63.55 -39.25 65.2 -41.5 67.4 -43.2 L68.55 -44.15 68.6 -44.15 68.75 -44.25 73.05 -47.75 87.6 -59.4 87.75 -59.6 91.85 -62.9 92.0 -63.05 92.5 -63.4 92.45 -63.4 96.25 -66.05 96.45 -66.15 Q102.35 -69.55 109.7 -69.2 119.9 -68.8 126.95 -61.25 L127.05 -61.2 127.15 -61.15 129.7 -57.85 129.9 -57.65 130.0 -57.5 129.95 -57.5 Q134.05 -51.2 133.9 -43.3 133.65 -36.05 129.8 -30.4 L129.75 -30.3 Q128.15 -28.1 126.0 -26.05 122.05 -22.5 117.5 -20.85 L117.4 -20.85 88.5 -8.45 88.45 -8.45 88.35 -8.4 87.85 -8.15 87.75 -8.15 Q84.6 -6.95 81.05 -6.75 L78.15 -6.85 78.1 -6.85 77.95 -6.9 61.85 1.75 47.9 9.2 43.55 11.45 45.85 18.45 Q47.1 22.6 47.8 26.8 L48.3 30.95 55.9 31.9 55.85 31.85 55.9 31.85 Q57.15 32.0 58.0 32.95 L58.05 33.0 58.15 33.15 58.1 33.2 58.35 33.6 58.65 34.15 58.9 35.15 58.9 35.3 59.3 62.45 59.05 63.65 58.9 63.95 53.65 63.95 53.45 37.4 40.65 35.85 40.9 35.8 -49.55 24.85 -49.55 25.1 -49.5 25.1 -50.95 65.95 M-42.9 -42.3 L-43.0 -42.4 Q-55.4 -52.4 -71.85 -56.4 -61.0 -52.15 -52.1 -44.95 L-52.2 -45.05 -50.4 -43.65 Q-39.25 -35.0 -33.95 -21.1 L-25.95 -19.9 Q-30.85 -32.95 -41.2 -41.05 L-41.25 -41.05 -42.9 -42.3 M1.45 7.75 L7.75 3.35 -23.25 -0.8 -23.3 -0.8 -23.85 -0.6 Q-19.8 4.85 -19.45 10.25 -19.1 16.45 -21.55 21.7 L-21.8 22.25 -22.3 23.15 -22.25 23.15 -4.65 25.2 -3.55 21.7 Q0.25 9.2 1.45 7.75 M28.55 22.0 L28.55 21.7 28.4 19.2 14.5 26.5 14.45 26.55 14.25 27.25 14.25 27.65 27.25 29.4 27.3 29.25 27.45 28.75 27.55 28.4 27.6 28.25 27.95 27.15 27.95 27.2 28.3 25.35 28.3 25.25 28.55 22.0 M41.45 21.7 L41.45 21.6 Q40.45 17.85 39.1 14.45 L38.8 13.7 32.9 16.8 33.35 21.7 33.35 21.75 33.15 25.35 33.15 25.6 32.75 27.8 32.45 28.9 32.1 29.95 43.0 31.35 43.05 31.35 42.85 29.5 42.3 25.65 42.05 24.15 41.45 21.7 M120.0 -57.0 Q117.3 -58.1 116.0 -57.9 L97.9 -41.2 Q98.65 -38.5 100.6 -36.3 L125.1 -50.45 Q126.35 -49.0 126.4 -45.7 L126.4 -45.2 103.0 -34.2 Q104.4 -33.2 105.95 -32.6 L124.85 -38.2 Q124.35 -36.0 121.25 -33.1 116.35 -28.6 109.65 -28.9 L109.6 -28.9 Q105.8 -29.05 102.7 -30.7 L102.7 -30.75 Q100.7 -31.8 99.0 -33.45 L98.95 -33.5 98.35 -34.15 96.5 -36.45 96.45 -36.5 96.4 -36.6 Q95.05 -38.7 94.4 -41.1 L94.4 -41.15 Q93.85 -43.35 93.95 -45.7 94.15 -52.4 99.0 -56.9 103.9 -61.4 110.65 -61.1 113.0 -61.0 115.1 -60.3 L116.15 -59.9 Q118.95 -58.6 120.6 -56.75 L120.0 -57.0 M62.0 -26.35 Q61.9 -27.75 62.05 -29.0 L7.0 9.15 6.95 9.2 5.45 10.5 Q4.15 11.95 3.8 13.85 L3.7 14.45 3.7 15.75 Q3.8 16.9 4.2 18.0 L4.35 18.4 64.4 -18.15 64.4 -18.2 Q63.2 -20.2 62.6 -22.45 62.1 -24.35 62.0 -26.35 M68.95 -37.95 L68.65 -37.6 Q67.15 -35.9 66.25 -34.0 L65.4 -31.8 65.4 -31.7 65.35 -31.7 65.35 -31.65 65.3 -31.6 64.85 -29.35 Q64.7 -28.0 64.8 -26.5 L65.2 -23.65 87.15 -38.75 Q86.9 -42.35 88.95 -46.3 L89.0 -43.85 Q89.05 -41.85 89.55 -39.7 L89.55 -39.65 Q90.3 -36.75 91.95 -34.15 92.95 -32.55 94.3 -31.05 L97.05 -28.6 97.45 -28.3 98.15 -27.8 98.25 -27.75 Q102.65 -24.85 108.3 -24.6 112.15 -24.4 115.55 -25.5 L115.6 -25.5 115.65 -25.55 115.7 -25.55 Q119.4 -26.85 122.6 -29.75 128.6 -35.3 128.85 -43.45 129.05 -49.75 125.7 -54.8 L125.75 -54.8 123.4 -57.75 Q117.75 -63.85 109.45 -64.2 102.75 -64.55 97.3 -61.15 L92.9 -57.85 Q83.2 -50.25 74.4 -42.6 L68.95 -37.95 M22.25 -6.8 L20.95 -7.65 -53.35 -18.35 Q-55.8 -18.5 -56.25 -16.9 L-56.4 -15.8 Q-53.4 -8.5 -51.05 0.7 L-50.95 1.1 -50.5 2.85 -49.5 7.8 -49.0 10.7 -48.55 14.45 -48.5 14.95 -48.05 19.95 -47.85 19.95 -30.05 22.2 -30.0 22.2 -29.95 21.75 -29.95 21.7 -30.05 15.55 -30.3 12.4 -30.9 7.8 Q-31.5 3.45 -33.4 -3.0 -32.1 -4.65 -30.3 -5.4 -29.15 -5.9 -27.8 -6.0 L13.05 -0.35 22.25 -6.8 M-43.6 -12.75 Q-42.9 -12.0 -42.9 -11.0 L-42.9 -10.8 Q-42.95 -9.85 -43.5 -9.2 L-44.4 -8.55 -45.05 -8.45 Q-46.0 -8.45 -46.65 -9.15 -47.35 -9.85 -47.35 -10.9 -47.4 -11.95 -46.75 -12.7 -46.15 -13.45 -45.2 -13.45 -44.25 -13.5 -43.6 -12.75 M-39.85 3.75 L-41.1 4.5 -41.4 4.5 Q-42.35 4.5 -43.0 3.8 -43.65 3.15 -43.7 2.15 L-43.7 2.05 Q-43.75 1.0 -43.1 0.25 L-42.9 0.05 Q-42.3 -0.5 -41.55 -0.5 -40.75 -0.55 -40.15 0.0 L-39.95 0.2 Q-39.25 0.95 -39.25 1.95 -39.2 3.0 -39.85 3.75 M-39.6 18.7 L-40.7 18.45 -41.0 18.2 -41.2 18.0 -41.65 17.4 -41.9 16.25 Q-41.95 15.2 -41.3 14.45 L-40.75 14.0 Q-40.3 13.7 -39.75 13.7 -38.8 13.65 -38.15 14.4 -37.45 15.15 -37.45 16.2 -37.4 17.2 -38.05 17.95 -38.7 18.7 -39.6 18.7" fill="#000000" fill-rule="evenodd" stroke="none"/>
    <path d="M-50.95 65.95 L-49.5 25.1 -49.55 25.1 -49.55 24.85 40.9 35.8 40.65 35.85 53.45 37.4 53.65 63.95 -50.95 65.95 M22.25 -6.8 L13.05 -0.35 -27.8 -6.0 Q-29.15 -5.9 -30.3 -5.4 -32.1 -4.65 -33.4 -3.0 -31.5 3.45 -30.9 7.8 L-30.3 12.4 -30.05 15.55 -29.95 21.7 -29.95 21.75 -30.0 22.2 -30.05 22.2 -47.85 19.95 -48.05 19.95 -48.5 14.95 -48.55 14.45 -49.0 10.7 -49.5 7.8 -50.5 2.85 -50.95 1.1 -51.05 0.7 Q-53.4 -8.5 -56.4 -15.8 L-56.25 -16.9 Q-55.8 -18.5 -53.35 -18.35 L20.95 -7.65 22.25 -6.8 M68.95 -37.95 L74.4 -42.6 Q83.2 -50.25 92.9 -57.85 L97.3 -61.15 Q102.75 -64.55 109.45 -64.2 117.75 -63.85 123.4 -57.75 L125.75 -54.8 125.7 -54.8 Q129.05 -49.75 128.85 -43.45 128.6 -35.3 122.6 -29.75 119.4 -26.85 115.7 -25.55 L115.65 -25.55 115.6 -25.5 115.55 -25.5 Q112.15 -24.4 108.3 -24.6 102.65 -24.85 98.25 -27.75 L98.15 -27.8 97.45 -28.3 97.05 -28.6 94.3 -31.05 Q92.95 -32.55 91.95 -34.15 90.3 -36.75 89.55 -39.65 L89.55 -39.7 Q89.05 -41.85 89.0 -43.85 L88.95 -46.3 Q86.9 -42.35 87.15 -38.75 L65.2 -23.65 64.8 -26.5 Q64.7 -28.0 64.85 -29.35 L65.3 -31.6 65.35 -31.65 65.35 -31.7 65.4 -31.7 65.4 -31.8 66.25 -34.0 Q67.15 -35.9 68.65 -37.6 L68.95 -37.95 M62.0 -26.35 Q62.1 -24.35 62.6 -22.45 63.2 -20.2 64.4 -18.2 L64.4 -18.15 4.35 18.4 4.2 18.0 Q3.8 16.9 3.7 15.75 L3.7 14.45 3.8 13.85 Q4.15 11.95 5.45 10.5 L6.95 9.2 7.0 9.15 62.05 -29.0 Q61.9 -27.75 62.0 -26.35 M120.0 -57.0 L120.6 -56.75 Q118.95 -58.6 116.15 -59.9 L115.1 -60.3 Q113.0 -61.0 110.65 -61.1 103.9 -61.4 99.0 -56.9 94.15 -52.4 93.95 -45.7 93.85 -43.35 94.4 -41.15 L94.4 -41.1 Q95.05 -38.7 96.4 -36.6 L96.45 -36.5 96.5 -36.45 98.35 -34.15 98.95 -33.5 99.0 -33.45 Q100.7 -31.8 102.7 -30.75 L102.7 -30.7 Q105.8 -29.05 109.6 -28.9 L109.65 -28.9 Q116.35 -28.6 121.25 -33.1 124.35 -36.0 124.85 -38.2 L105.95 -32.6 Q104.4 -33.2 103.0 -34.2 L126.4 -45.2 126.4 -45.7 Q126.35 -49.0 125.1 -50.45 L100.6 -36.3 Q98.65 -38.5 97.9 -41.2 L116.0 -57.9 Q117.3 -58.1 120.0 -57.0 M41.45 21.7 L42.05 24.15 42.3 25.65 42.85 29.5 43.05 31.35 43.0 31.35 32.1 29.95 32.45 28.9 32.75 27.8 33.15 25.6 33.15 25.35 33.35 21.75 33.35 21.7 32.9 16.8 38.8 13.7 39.1 14.45 Q40.45 17.85 41.45 21.6 L41.45 21.7 M28.55 22.0 L28.3 25.25 28.3 25.35 27.95 27.2 27.95 27.15 27.6 28.25 27.55 28.4 27.45 28.75 27.3 29.25 27.25 29.4 14.25 27.65 14.25 27.25 14.45 26.55 14.5 26.5 28.4 19.2 28.55 21.7 28.55 22.0 M1.45 7.75 Q0.25 9.2 -3.55 21.7 L-4.65 25.2 -22.25 23.15 -22.3 23.15 -21.8 22.25 -21.55 21.7 Q-19.1 16.45 -19.45 10.25 -19.8 4.85 -23.85 -0.6 L-23.3 -0.8 -23.25 -0.8 7.75 3.35 1.45 7.75 M-42.9 -42.3 L-41.25 -41.05 -41.2 -41.05 Q-30.85 -32.95 -25.95 -19.9 L-33.95 -21.1 Q-39.25 -35.0 -50.4 -43.65 L-52.2 -45.05 -52.1 -44.95 Q-61.0 -52.15 -71.85 -56.4 -55.4 -52.4 -43.0 -42.4 L-42.9 -42.3 M-39.6 18.7 Q-38.7 18.7 -38.05 17.95 -37.4 17.2 -37.45 16.2 -37.45 15.15 -38.15 14.4 -38.8 13.65 -39.75 13.7 -40.3 13.7 -40.75 14.0 L-41.3 14.45 Q-41.95 15.2 -41.9 16.25 L-41.65 17.4 -41.2 18.0 -41.0 18.2 -40.7 18.45 -39.6 18.7 M-39.85 3.75 Q-39.2 3.0 -39.25 1.95 -39.25 0.95 -39.95 0.2 L-40.15 0.0 Q-40.75 -0.55 -41.55 -0.5 -42.3 -0.5 -42.9 0.05 L-43.1 0.25 Q-43.75 1.0 -43.7 2.05 L-43.7 2.15 Q-43.65 3.15 -43.0 3.8 -42.35 4.5 -41.4 4.5 L-41.1 4.5 -39.85 3.75 M-43.6 -12.75 Q-44.25 -13.5 -45.2 -13.45 -46.15 -13.45 -46.75 -12.7 -47.4 -11.95 -47.35 -10.9 -47.35 -9.85 -46.65 -9.15 -46.0 -8.45 -45.05 -8.45 L-44.4 -8.55 -43.5 -9.2 Q-42.95 -9.85 -42.9 -10.8 L-42.9 -11.0 Q-42.9 -12.0 -43.6 -12.75" fill="#ffffff" fill-rule="evenodd" stroke="none"/>
  </g>
</svg>
