<?xml version="1.0" encoding="UTF-8" standalone="no"?>
<svg xmlns:ffdec="https://www.free-decompiler.com/flash" xmlns:xlink="http://www.w3.org/1999/xlink" ffdec:objectType="shape" height="138.3px" width="208.0px" xmlns="http://www.w3.org/2000/svg">
  <g transform="matrix(1.0, 0.0, 0.0, 1.0, 104.0, 69.15)">
    <path d="M75.15 -53.05 Q75.4 -53.4 75.4 -53.05 L75.35 -53.05 75.15 -53.05 M104.0 -52.15 L103.6 -52.0 103.55 -52.0 103.05 -52.3 Q100.95 -53.45 100.15 -53.55 L97.3 -53.75 97.2 -53.75 97.05 -53.75 96.85 -53.75 96.45 -53.75 96.3 -53.75 96.05 -53.7 Q95.3 -53.6 94.95 -53.25 L94.75 -53.0 94.6 -52.75 Q94.45 -52.45 94.65 -51.85 L94.7 -51.75 94.8 -51.35 94.55 -50.65 94.5 -50.6 93.95 -50.3 94.0 -50.35 93.35 -50.3 90.05 -50.7 89.9 -50.75 89.8 -50.8 86.5 -51.8 86.35 -51.85 84.9 -52.3 84.7 -52.35 84.4 -52.5 83.9 -52.6 78.9 -53.6 76.45 -53.8 76.35 -53.8 76.25 -53.8 76.1 -53.8 75.45 -53.8 75.35 -53.8 75.05 -53.8 74.95 -53.8 74.85 -53.8 74.7 -53.8 74.15 -53.65 73.8 -53.5 73.55 -53.2 73.35 -52.85 Q73.2 -52.5 73.35 -52.1 L73.4 -51.9 73.55 -51.55 73.55 -51.45 73.45 -50.85 72.95 -50.45 72.9 -50.45 72.1 -50.35 72.05 -50.35 68.65 -50.85 68.4 -51.0 65.3 -51.85 63.65 -52.3 63.55 -52.35 63.0 -52.6 62.9 -52.6 57.65 -53.65 53.85 -53.85 53.8 -53.85 53.5 -53.85 53.4 -53.85 53.2 -53.8 53.1 -53.8 52.95 -53.75 52.4 -53.5 52.2 -53.25 52.05 -53.05 52.0 -52.95 51.9 -52.65 Q51.85 -52.5 52.1 -52.05 L52.2 -51.5 51.95 -50.8 51.9 -50.75 51.2 -50.5 50.8 -50.5 47.4 -50.9 47.25 -50.95 47.2 -50.95 44.25 -51.9 42.4 -52.45 42.3 -52.5 42.0 -52.55 41.9 -52.6 Q39.05 -53.5 36.4 -53.75 L36.3 -53.75 32.95 -53.95 32.8 -53.95 32.4 -53.95 32.3 -53.95 32.25 -53.95 31.9 -53.9 31.75 -53.8 31.7 -53.75 31.4 -53.7 31.1 -53.45 30.85 -53.15 30.8 -53.0 30.7 -52.7 30.7 -52.55 30.7 -52.5 Q30.7 -52.25 30.85 -52.05 L30.9 -51.95 31.0 -51.65 31.0 -51.3 31.0 -51.25 30.65 -50.7 30.0 -50.55 29.55 -50.55 29.45 -50.55 28.85 -50.55 28.75 -50.55 28.4 -50.6 26.05 -51.0 23.05 -51.9 22.9 -52.0 21.05 -52.55 20.85 -52.6 20.8 -52.6 20.55 -52.7 15.1 -53.8 12.65 -54.0 12.55 -54.0 12.45 -54.0 12.3 -54.0 11.15 -54.0 11.05 -54.0 10.85 -54.0 10.3 -53.85 10.3 -53.8 10.45 -53.85 10.35 -53.85 10.8 -53.95 10.05 -53.2 10.15 -53.6 10.25 -53.65 10.15 -53.65 9.85 -53.55 9.5 -53.05 Q9.35 -52.85 9.5 -52.35 L9.65 -52.0 9.7 -51.65 9.4 -50.9 9.45 -50.95 9.1 -50.7 9.0 -50.7 8.3 -50.6 7.7 -50.6 7.55 -50.6 4.8 -51.05 2.1 -51.9 2.0 -51.95 1.8 -52.0 0.0 -52.55 -0.25 -52.6 -0.45 -52.65 -0.6 -52.7 Q-3.45 -53.6 -6.1 -53.85 L-6.2 -53.85 -8.6 -54.1 -8.65 -54.1 -8.9 -54.1 -9.0 -54.1 -10.1 -54.1 -10.2 -54.1 -10.25 -54.1 -10.6 -54.0 -10.65 -53.95 -10.75 -53.85 -10.8 -53.8 -10.4 -54.0 -10.9 -53.75 -10.65 -53.95 -10.9 -53.9 -11.4 -53.6 -11.6 -53.35 -11.8 -52.9 -11.7 -52.35 -11.6 -52.1 -11.55 -52.0 -11.55 -51.95 -11.5 -51.8 -11.6 -51.25 -12.0 -50.85 -12.15 -50.7 -12.9 -50.65 -12.95 -50.65 -16.25 -51.1 -16.65 -51.2 -18.95 -51.9 -19.25 -52.0 -21.2 -52.6 -21.25 -52.6 -21.7 -52.75 -27.4 -53.95 -27.5 -53.95 -29.8 -54.15 -29.85 -54.15 -30.1 -54.15 -31.25 -54.15 -31.45 -54.05 -31.9 -53.95 -32.0 -53.9 -32.05 -53.9 -32.25 -53.85 -32.9 -53.4 -32.9 -53.35 -33.15 -52.85 -33.15 -52.6 -32.95 -52.1 -32.85 -51.65 -32.85 -51.55 -32.9 -51.45 Q-32.95 -51.15 -33.15 -50.9 L-33.2 -50.85 Q-33.5 -50.6 -33.9 -50.6 L-34.35 -50.6 -35.25 -50.65 -37.45 -50.95 -37.6 -50.95 -40.5 -51.85 -40.45 -51.85 -42.75 -52.55 -42.9 -52.6 -43.0 -52.65 Q-46.05 -53.6 -48.75 -53.85 L-48.85 -53.85 -51.05 -54.05 -51.1 -54.05 -51.35 -54.05 -51.45 -54.05 -52.85 -54.1 -52.95 -54.1 -53.15 -54.05 -53.5 -53.9 -53.6 -53.9 -54.1 -53.65 -54.35 -53.15 -54.35 -53.1 -54.35 -52.35 -54.3 -52.2 -54.15 -51.85 -54.15 -51.75 -54.25 -51.15 -54.75 -50.75 -54.8 -50.75 -55.6 -50.65 -58.95 -51.05 -59.1 -51.1 -59.25 -51.15 -61.3 -51.75 -61.5 -51.85 -63.6 -52.5 -63.65 -52.55 -64.05 -52.65 -64.2 -52.65 -64.15 -52.6 -64.25 -52.65 Q-67.25 -53.65 -69.95 -53.9 L-70.05 -53.9 -73.75 -54.15 -73.8 -54.15 -74.15 -54.15 -74.3 -54.15 -74.5 -54.1 Q-74.7 -54.05 -74.85 -53.95 L-74.95 -53.9 -75.05 -53.75 -74.9 -53.9 -74.75 -53.9 -75.05 -53.6 -75.0 -53.6 -74.7 -53.55 -74.4 -53.35 -74.45 -53.3 -74.55 -53.25 -74.7 -53.2 -74.75 -53.15 -74.9 -53.15 -74.9 -53.05 -74.9 -53.0 -74.9 -52.95 -74.95 -52.85 -75.0 -52.9 -75.05 -52.95 -75.0 -52.85 -75.1 -52.75 -75.05 -52.7 -75.2 -52.65 -75.3 -52.6 -75.25 -52.6 -75.15 -52.55 -75.05 -52.4 -75.35 -52.55 -75.5 -52.55 -75.35 -52.85 -75.5 -52.7 -75.4 -52.9 -75.4 -52.95 -75.55 -53.05 -75.65 -52.8 -75.65 -52.6 -75.8 -52.45 -75.75 -52.4 -75.8 -52.4 -75.85 -52.35 -75.85 -52.3 -75.6 -52.0 -75.55 -51.95 -75.45 -51.85 -75.4 -51.8 -75.4 -51.85 -75.35 -51.85 -75.3 -51.8 -75.35 -51.8 -75.6 -51.85 -75.5 -51.8 -75.35 -51.8 -75.35 -51.7 -75.35 -51.65 -75.4 -51.4 -75.35 -51.4 -75.45 -51.25 -75.4 -51.3 -75.55 -51.1 -76.0 -50.75 -76.0 -50.8 -76.75 -50.7 -76.85 -50.7 -80.3 -51.2 -82.3 -51.75 -82.45 -51.8 -82.55 -51.85 -84.9 -52.55 -84.95 -52.55 -85.3 -52.7 -85.55 -52.75 -91.3 -54.0 -95.25 -54.25 -95.4 -54.25 -95.45 -54.2 -95.6 -54.15 -95.6 -54.2 -96.3 -53.9 -96.4 -53.85 -96.75 -53.55 -96.85 -53.35 -96.6 -53.2 -96.55 -53.0 -96.65 -52.8 -96.7 -52.25 -96.65 -52.1 -96.65 -52.05 Q-96.6 -51.75 -96.7 -51.4 L-96.75 -51.35 -97.0 -51.05 -97.1 -50.95 -98.1 -50.75 -98.4 -50.75 -98.45 -50.75 -99.15 -50.8 -101.4 -51.25 -101.6 -51.3 -101.7 -51.3 -103.35 -51.7 -103.95 -51.6 -104.0 -51.6 -104.0 -69.15 104.0 -69.15 104.0 -52.85 104.0 -52.8 103.9 -52.65 104.0 -52.55 104.0 -52.15 M-32.15 -52.1 L-32.35 -52.1 -32.4 -52.1 -32.2 -52.3 -32.15 -52.1 M52.85 -52.15 L52.85 -52.1 52.8 -52.1 52.85 -52.15 M69.15 -52.85 L69.1 -52.85 69.15 -52.85 M2.55 -53.85 L2.5 -53.85 2.55 -53.85 M10.35 -52.3 L10.4 -52.15 10.25 -52.15 10.35 -52.3 M-74.6 -51.9 L-74.85 -51.65 -74.9 -51.75 -74.85 -51.9 -74.65 -51.85 -74.6 -51.9 M-74.95 -51.9 L-75.0 -51.95 -75.15 -51.9 -75.25 -51.95 -75.1 -52.05 -75.05 -52.0 -74.9 -51.95 -74.95 -51.9 M-95.9 -56.15 L-95.85 -56.2 -95.95 -56.15 -95.9 -56.15 M-97.3 -55.65 L-97.4 -55.55 -97.3 -55.65 M-11.05 -53.65 L-11.0 -53.7 -11.05 -53.65 M-76.05 -51.7 L-76.1 -51.85 -76.1 -51.75 -76.05 -51.7 M-75.15 -53.55 L-75.4 -53.45 -75.45 -53.4 -75.5 -53.35 -75.55 -53.3 -75.6 -53.3 -75.6 -53.25 -75.65 -53.25 -75.7 -53.15 -75.75 -53.1 -75.65 -53.15 -75.65 -53.05 -75.65 -52.95 -75.5 -53.3 -75.5 -53.2 -75.5 -53.15 -75.35 -53.3 -75.3 -53.35 -75.05 -53.6 -75.15 -53.55 M-75.6 -53.25 L-75.65 -53.25 -75.6 -53.25 M-75.1 -53.35 L-75.25 -53.35 -75.3 -53.35 -75.35 -53.3 -75.1 -53.25 -75.1 -53.35 M-75.2 -53.05 L-75.35 -52.9 -75.3 -52.8 -75.2 -53.05 M-74.8 -52.35 L-74.85 -52.35 -74.85 -52.4 -74.8 -52.35 M-75.05 -52.4 L-75.0 -52.45 -74.9 -52.35 -75.05 -52.4 M-75.6 -52.35 L-75.6 -52.4 -75.55 -52.4 -75.6 -52.35 M-75.7 -52.25 L-75.75 -52.3 -75.7 -52.3 -75.6 -52.2 -75.55 -52.15 -75.55 -52.2 -75.55 -52.15 -75.7 -52.25" fill="#c1d0df" fill-rule="evenodd" stroke="none"/>
    <path d="M75.15 -53.05 L74.85 -52.55 74.8 -52.5 74.85 -52.5 74.85 -52.55 74.9 -52.55 74.85 -52.45 74.8 -52.45 74.85 -52.35 74.9 -52.3 74.9 -52.25 75.0 -51.85 75.05 -51.65 75.05 -51.7 Q75.2 -50.8 74.7 -50.0 L74.65 -49.9 Q74.05 -49.2 73.4 -49.0 L73.45 -49.05 72.1 -48.85 72.05 -48.85 68.3 -49.4 67.85 -49.6 64.9 -50.4 63.25 -50.85 63.2 -50.9 62.9 -51.0 62.8 -51.05 62.75 -51.1 62.55 -51.1 57.5 -52.15 57.45 -52.15 54.0 -52.35 53.9 -52.35 53.8 -52.35 53.6 -52.35 53.7 -51.5 Q53.7 -50.5 53.0 -49.75 L52.95 -49.7 Q52.2 -49.0 51.2 -49.0 L50.8 -49.0 47.25 -49.45 47.05 -49.45 46.85 -49.45 43.8 -50.5 42.1 -51.0 41.45 -51.15 Q38.75 -52.0 36.25 -52.25 L36.2 -52.25 33.0 -52.45 32.8 -52.45 32.45 -52.45 32.35 -52.45 32.4 -52.4 32.3 -52.4 32.4 -52.4 32.5 -51.1 32.5 -51.05 32.4 -50.7 32.4 -50.8 31.8 -49.7 31.75 -49.65 31.65 -49.55 31.5 -49.45 Q30.8 -49.05 30.0 -49.05 L29.55 -49.05 29.45 -49.05 28.85 -49.05 28.6 -49.05 28.35 -49.1 28.3 -49.1 28.2 -49.1 25.8 -49.55 25.6 -49.55 22.45 -50.5 22.2 -50.65 20.75 -51.1 20.1 -51.25 20.0 -51.3 14.95 -52.3 12.55 -52.5 12.45 -52.5 12.25 -52.5 11.35 -52.5 11.25 -52.5 11.15 -52.5 11.1 -52.5 11.2 -51.65 Q11.2 -50.65 10.5 -49.9 L10.45 -49.8 Q9.95 -49.4 9.55 -49.3 L9.6 -49.3 8.3 -49.1 7.7 -49.1 7.65 -49.1 7.55 -49.1 7.5 -49.1 4.55 -49.6 4.35 -49.6 1.7 -50.45 1.45 -50.5 -0.4 -51.1 -1.1 -51.25 Q-3.75 -52.1 -6.25 -52.35 L-6.3 -52.35 -6.4 -52.35 -8.7 -52.6 -8.85 -52.6 -9.05 -52.6 -9.9 -52.6 -10.0 -52.6 -10.1 -52.6 -10.2 -52.6 -10.2 -52.55 -10.2 -52.5 -10.1 -52.25 -10.05 -52.0 -10.05 -51.95 Q-9.95 -51.3 -10.25 -50.6 L-10.3 -50.5 Q-10.6 -49.95 -11.2 -49.6 -11.65 -49.15 -12.95 -49.15 L-16.75 -49.65 -16.85 -49.7 -16.95 -49.7 -19.45 -50.45 -19.65 -50.55 -21.6 -51.15 -21.55 -51.15 -22.15 -51.35 -22.15 -51.3 -27.55 -52.45 -27.6 -52.45 -29.9 -52.65 -30.05 -52.65 -30.2 -52.65 -30.25 -52.65 -30.95 -52.65 -31.45 -52.5 -31.8 -53.1 -31.7 -52.8 -32.2 -52.3 -32.4 -52.1 -32.35 -52.1 -32.15 -52.1 -31.95 -52.2 -31.7 -52.45 -31.45 -52.5 -31.35 -51.65 -31.45 -51.1 -31.4 -51.2 Q-31.55 -50.45 -32.1 -49.85 L-32.15 -49.8 Q-32.9 -49.1 -33.9 -49.1 L-34.35 -49.1 -35.4 -49.15 -37.7 -49.45 -38.15 -49.55 -40.9 -50.4 -43.2 -51.1 -43.2 -51.15 -43.55 -51.25 -43.45 -51.2 -48.9 -52.35 -48.95 -52.35 -51.15 -52.55 -51.3 -52.55 -51.5 -52.55 -52.75 -52.6 -52.85 -52.6 -52.9 -52.6 -52.85 -52.6 -52.9 -52.7 -52.9 -52.6 -52.95 -52.5 -52.8 -52.55 -52.7 -52.15 -52.65 -51.95 -52.65 -52.0 Q-52.5 -51.1 -53.0 -50.3 L-53.05 -50.2 Q-53.65 -49.5 -54.3 -49.3 L-54.25 -49.35 -55.6 -49.15 -59.4 -49.6 -59.55 -49.65 -59.65 -49.7 -59.65 -49.75 -59.7 -49.75 -59.75 -49.75 -61.95 -50.35 -62.15 -50.5 -64.05 -51.05 -64.15 -51.1 -64.3 -51.15 -64.7 -51.2 Q-67.5 -52.15 -70.05 -52.4 L-70.1 -52.4 -70.15 -52.4 -70.25 -52.4 -73.6 -52.65 -73.7 -52.65 -73.8 -52.65 -74.1 -52.65 -74.15 -52.65 -74.1 -52.7 -74.1 -52.75 -74.0 -53.15 Q-74.0 -53.6 -74.3 -53.15 L-74.25 -53.05 -74.15 -53.15 -74.15 -53.05 -74.15 -52.95 -74.15 -52.85 -74.15 -52.8 -74.1 -52.75 -74.15 -52.7 -74.15 -52.65 -74.2 -52.7 -74.2 -52.75 -74.25 -52.85 -74.2 -52.8 -74.2 -52.85 -74.3 -52.95 -74.35 -52.95 -74.3 -53.0 -74.35 -53.1 -74.45 -53.3 -74.35 -53.25 -74.4 -53.35 -74.7 -53.55 -75.0 -53.6 -75.05 -53.6 -74.75 -53.9 -74.9 -53.9 -75.05 -53.75 -74.95 -53.9 -74.85 -53.95 Q-74.7 -54.05 -74.5 -54.1 L-74.3 -54.15 -74.15 -54.15 -73.8 -54.15 -73.75 -54.15 -70.05 -53.9 -69.95 -53.9 Q-67.25 -53.65 -64.25 -52.65 L-64.15 -52.6 -64.2 -52.65 -64.05 -52.65 -63.65 -52.55 -63.6 -52.5 -61.5 -51.85 -61.3 -51.75 -59.25 -51.15 -59.1 -51.1 -58.95 -51.05 -55.6 -50.65 -54.8 -50.75 -54.75 -50.75 -54.25 -51.15 -54.15 -51.75 -54.15 -51.85 -54.3 -52.2 -54.35 -52.35 -54.35 -53.1 -54.35 -53.15 -54.1 -53.65 -53.6 -53.9 -53.5 -53.9 -53.15 -54.05 -52.95 -54.1 -52.85 -54.1 -51.45 -54.05 -51.35 -54.05 -51.1 -54.05 -51.05 -54.05 -48.85 -53.85 -48.75 -53.85 Q-46.05 -53.6 -43.0 -52.65 L-42.9 -52.6 -42.75 -52.55 -40.45 -51.85 -40.5 -51.85 -37.6 -50.95 -37.45 -50.95 -35.25 -50.65 -34.35 -50.6 -33.9 -50.6 Q-33.5 -50.6 -33.2 -50.85 L-33.15 -50.9 Q-32.95 -51.15 -32.9 -51.45 L-32.85 -51.55 -32.85 -51.65 -32.95 -52.1 -33.15 -52.6 -33.15 -52.85 -32.9 -53.35 -32.9 -53.4 -32.25 -53.85 -32.05 -53.9 -32.0 -53.9 -31.9 -53.95 -31.45 -54.05 -31.25 -54.15 -30.1 -54.15 -29.85 -54.15 -29.8 -54.15 -27.5 -53.95 -27.4 -53.95 -21.7 -52.75 -21.25 -52.6 -21.2 -52.6 -19.25 -52.0 -18.95 -51.9 -16.65 -51.2 -16.25 -51.1 -12.95 -50.65 -12.9 -50.65 -12.15 -50.7 -12.0 -50.85 -11.6 -51.25 -11.5 -51.8 -11.55 -51.95 -11.55 -52.0 -11.6 -52.1 -11.7 -52.35 -11.8 -52.9 -11.6 -53.35 -11.4 -53.6 -10.9 -53.9 -10.65 -53.95 -10.9 -53.75 -10.4 -54.0 -10.8 -53.8 -10.75 -53.85 -10.65 -53.95 -10.6 -54.0 -10.25 -54.1 -10.2 -54.1 -10.1 -54.1 -9.0 -54.1 -8.9 -54.1 -8.65 -54.1 -8.6 -54.1 -6.2 -53.85 -6.1 -53.85 Q-3.45 -53.6 -0.6 -52.7 L-0.45 -52.65 -0.25 -52.6 0.0 -52.55 1.8 -52.0 2.0 -51.95 2.1 -51.9 4.8 -51.05 7.55 -50.6 7.7 -50.6 8.3 -50.6 9.0 -50.7 9.1 -50.7 9.45 -50.95 9.4 -50.9 9.7 -51.65 9.65 -52.0 9.5 -52.35 Q9.35 -52.85 9.5 -53.05 L9.85 -53.55 10.15 -53.65 10.25 -53.65 10.15 -53.6 10.05 -53.2 10.8 -53.95 10.35 -53.85 10.45 -53.85 10.3 -53.8 10.3 -53.85 10.85 -54.0 11.05 -54.0 11.15 -54.0 12.3 -54.0 12.45 -54.0 12.55 -54.0 12.65 -54.0 15.1 -53.8 20.55 -52.7 20.8 -52.6 20.85 -52.6 21.05 -52.55 22.9 -52.0 23.05 -51.9 26.05 -51.0 28.4 -50.6 28.75 -50.55 28.85 -50.55 29.45 -50.55 29.55 -50.55 30.0 -50.55 30.65 -50.7 31.0 -51.25 31.0 -51.3 31.0 -51.65 30.9 -51.95 30.85 -52.05 Q30.7 -52.25 30.7 -52.5 L30.7 -52.55 30.7 -52.7 30.8 -53.0 30.85 -53.15 31.1 -53.45 31.4 -53.7 31.7 -53.75 31.75 -53.8 31.9 -53.9 32.25 -53.95 32.3 -53.95 32.4 -53.95 32.8 -53.95 32.95 -53.95 36.3 -53.75 36.4 -53.75 Q39.05 -53.5 41.9 -52.6 L42.0 -52.55 42.3 -52.5 42.4 -52.45 44.25 -51.9 47.2 -50.95 47.25 -50.95 47.4 -50.9 50.8 -50.5 51.2 -50.5 51.9 -50.75 51.95 -50.8 52.2 -51.5 52.1 -52.05 Q51.85 -52.5 51.9 -52.65 L52.0 -52.95 52.05 -53.05 52.2 -53.25 52.4 -53.5 52.95 -53.75 53.1 -53.8 53.2 -53.8 53.4 -53.85 53.5 -53.85 53.8 -53.85 53.85 -53.85 57.65 -53.65 62.9 -52.6 63.0 -52.6 63.55 -52.35 63.65 -52.3 65.3 -51.85 68.4 -51.0 68.65 -50.85 72.05 -50.35 72.1 -50.35 72.9 -50.45 72.95 -50.45 73.45 -50.85 73.55 -51.45 73.55 -51.55 73.4 -51.9 73.35 -52.1 Q73.2 -52.5 73.35 -52.85 L73.55 -53.2 73.8 -53.5 74.15 -53.65 74.7 -53.8 74.85 -53.8 74.95 -53.8 75.05 -53.8 75.35 -53.8 75.45 -53.8 76.1 -53.8 76.25 -53.8 76.35 -53.8 76.45 -53.8 78.9 -53.6 83.9 -52.6 84.4 -52.5 84.7 -52.35 84.9 -52.3 86.35 -51.85 86.5 -51.8 89.8 -50.8 89.9 -50.75 90.05 -50.7 93.35 -50.3 94.0 -50.35 93.95 -50.3 94.5 -50.6 94.55 -50.65 94.8 -51.35 94.7 -51.75 94.65 -51.85 Q94.45 -52.45 94.6 -52.75 L94.75 -53.0 94.95 -53.25 Q95.3 -53.6 96.05 -53.7 L96.3 -53.75 96.45 -53.75 96.85 -53.75 97.05 -53.75 97.2 -53.75 97.3 -53.75 100.15 -53.55 Q100.95 -53.45 103.05 -52.3 L103.55 -52.0 103.6 -52.0 104.0 -52.15 104.0 -50.55 103.95 -50.55 103.85 -50.5 102.8 -50.7 102.3 -51.0 99.95 -52.05 97.25 -52.25 97.2 -52.25 97.05 -52.25 96.85 -52.25 96.45 -52.25 96.2 -52.2 96.15 -52.2 96.3 -51.35 Q96.3 -50.35 95.6 -49.6 L95.55 -49.55 Q94.95 -49.0 94.25 -48.85 L93.35 -48.8 89.6 -49.25 89.45 -49.3 89.35 -49.35 86.15 -50.35 86.1 -50.35 86.05 -50.35 85.85 -50.45 84.5 -50.85 84.0 -51.0 83.95 -51.05 83.9 -51.05 83.85 -51.1 83.8 -51.1 83.6 -51.1 78.75 -52.1 76.35 -52.3 76.25 -52.3 76.1 -52.3 76.0 -52.3 75.7 -52.3 75.5 -52.3 75.35 -52.3 75.05 -52.3 74.95 -52.3 74.9 -52.3 75.25 -52.55 75.4 -53.0 75.4 -53.05 Q75.4 -53.4 75.15 -53.05 M52.85 -52.1 L53.15 -52.2 53.3 -52.25 53.35 -52.3 53.1 -52.3 53.3 -52.3 53.35 -52.35 53.4 -52.65 53.45 -52.7 53.5 -52.6 53.5 -52.8 Q53.5 -53.5 52.85 -52.15 L52.8 -52.1 52.85 -52.1 M53.6 -52.4 L53.5 -52.6 53.4 -52.4 53.45 -52.4 53.35 -52.3 53.45 -52.35 53.4 -52.35 53.6 -52.4 M74.7 -52.2 L74.85 -52.25 74.85 -52.3 74.7 -52.3 74.6 -52.2 74.7 -52.2 M10.4 -52.15 L10.8 -52.35 10.85 -52.45 10.8 -52.4 Q10.6 -52.4 10.9 -52.6 L10.9 -52.65 10.65 -52.85 10.35 -52.3 10.25 -52.15 10.4 -52.15 M10.95 -52.75 L10.95 -52.65 11.0 -52.7 10.95 -52.75 M96.0 -52.3 L96.05 -52.45 95.9 -52.1 96.0 -52.3 M32.2 -52.6 L32.15 -52.75 Q31.6 -52.45 32.05 -52.4 L32.05 -52.35 32.1 -52.4 32.15 -52.4 32.1 -52.4 32.15 -52.4 32.2 -52.55 32.2 -52.6 M32.2 -52.75 L32.1 -52.9 32.1 -52.8 32.15 -52.75 32.2 -52.75 32.2 -52.7 32.25 -52.6 32.25 -52.55 32.3 -52.45 32.35 -52.5 32.7 -52.7 32.8 -53.1 32.3 -52.85 32.2 -52.75 M-104.0 -51.6 L-103.95 -51.6 -103.35 -51.7 -101.7 -51.3 -101.6 -51.3 -101.4 -51.25 -99.15 -50.8 -98.45 -50.75 -98.4 -50.75 -98.1 -50.75 -97.1 -50.95 -97.0 -51.05 -96.75 -51.35 -96.7 -51.4 Q-96.6 -51.75 -96.65 -52.05 L-96.65 -52.1 -96.7 -52.25 -96.65 -52.8 -96.55 -53.0 -96.6 -53.2 -96.6 -53.25 -96.35 -53.75 -95.6 -54.15 -95.45 -54.2 -95.4 -54.25 -95.25 -54.25 -91.3 -54.0 -85.55 -52.75 -85.3 -52.7 -84.95 -52.55 -84.9 -52.55 -82.55 -51.85 -82.45 -51.8 -82.3 -51.75 -80.3 -51.2 -76.85 -50.7 -76.75 -50.7 -76.0 -50.8 -76.0 -50.75 -75.55 -51.1 -75.4 -51.3 -75.45 -51.25 -75.35 -51.4 -75.35 -51.65 -75.35 -51.7 -75.35 -51.8 -75.5 -51.8 -75.6 -51.85 -75.35 -51.8 -75.3 -51.8 -75.35 -51.85 -75.4 -51.85 -75.4 -51.8 -75.45 -51.85 -75.55 -51.95 -75.6 -52.0 -75.45 -51.9 -75.4 -51.85 -75.35 -51.85 -75.4 -51.9 -75.35 -51.95 -75.3 -52.0 -75.25 -51.95 -75.15 -51.9 -75.0 -51.95 -74.95 -51.9 -74.95 -51.85 -74.9 -51.75 -74.85 -51.65 -74.6 -51.9 -74.1 -52.35 -74.1 -52.5 -74.15 -52.6 -74.1 -52.65 -73.85 -52.1 -73.85 -52.05 Q-73.7 -51.25 -74.15 -50.5 -74.65 -49.75 -75.4 -49.4 L-76.75 -49.2 -76.85 -49.2 -80.55 -49.75 -80.75 -49.75 -82.75 -50.3 -82.9 -50.35 -83.0 -50.4 -85.3 -51.1 -85.25 -51.1 -85.7 -51.25 -85.9 -51.25 Q-88.8 -52.2 -91.45 -52.5 L-95.2 -52.75 -95.3 -52.75 -95.3 -52.7 -95.2 -52.4 -95.15 -52.2 -95.15 -52.15 -95.25 -51.05 -95.25 -51.0 -95.25 -50.95 -95.35 -50.7 -95.4 -50.65 -96.1 -49.8 -96.35 -49.65 -98.1 -49.25 -98.4 -49.25 -98.45 -49.25 -99.35 -49.3 -101.7 -49.8 -101.85 -49.8 -102.05 -49.8 -103.7 -50.25 -104.0 -50.4 -104.0 -51.6 M-75.85 -52.35 L-75.8 -52.4 -75.75 -52.4 -75.8 -52.45 -75.65 -52.6 -75.65 -52.75 -75.55 -52.6 -75.5 -52.7 -75.35 -52.85 -75.5 -52.55 -75.55 -52.5 -75.55 -52.4 -75.5 -52.5 -75.4 -52.55 -75.45 -52.4 -75.45 -52.35 -75.4 -52.2 -75.45 -52.3 -75.5 -52.3 -75.55 -52.25 -75.55 -52.2 -75.55 -52.15 -75.6 -52.2 -75.7 -52.3 -75.75 -52.3 -75.7 -52.25 -75.85 -52.35 M-75.05 -52.4 L-75.15 -52.55 -75.15 -52.6 -74.9 -52.7 -75.0 -52.85 -75.05 -52.95 -75.0 -52.9 -74.95 -52.85 -74.9 -52.8 -74.9 -52.7 -74.85 -52.7 -74.85 -52.65 -74.9 -52.6 -74.95 -52.45 -74.95 -52.5 -75.0 -52.45 -75.05 -52.4 M-31.65 -52.6 L-31.7 -52.8 -31.65 -52.85 -31.65 -52.6 -31.55 -52.65 -31.65 -52.5 -31.7 -52.45 -32.05 -52.4 -31.85 -52.45 -31.65 -52.6 M-11.05 -53.65 L-11.0 -53.7 -11.05 -53.65 M-75.6 -53.25 L-75.65 -53.25 -75.6 -53.25 -75.6 -53.3 -75.55 -53.3 -75.5 -53.35 -75.45 -53.4 -75.4 -53.45 -75.15 -53.55 -75.05 -53.6 -75.3 -53.35 -75.35 -53.3 -75.5 -53.15 -75.5 -53.2 -75.5 -53.3 -75.65 -52.95 -75.65 -53.05 -75.65 -53.15 -75.75 -53.1 -75.7 -53.15 -75.65 -53.25 -75.6 -53.25 M-76.05 -51.7 L-76.1 -51.75 -76.1 -51.85 -76.05 -51.7 M-74.8 -53.15 L-74.65 -53.15 -74.65 -53.05 -74.8 -53.15 M-75.1 -53.35 L-75.1 -53.25 -75.35 -53.3 -75.3 -53.35 -75.25 -53.35 -75.1 -53.35 M-74.85 -52.65 L-74.85 -52.7 -74.65 -53.0 -74.65 -53.05 -74.6 -53.05 -74.65 -53.0 -74.65 -52.9 -74.65 -52.75 -74.85 -52.65 M-75.2 -53.05 L-75.3 -52.8 -75.35 -52.9 -75.2 -53.05 M-74.55 -53.25 L-74.5 -53.2 -74.35 -53.05 -74.55 -53.1 -74.55 -53.25 M-74.55 -53.05 L-74.5 -53.0 -74.45 -52.95 -74.35 -53.05 -74.35 -52.95 -74.4 -52.9 -74.45 -52.85 -74.55 -52.8 -74.55 -53.05 M-74.15 -52.65 L-74.2 -52.65 -74.2 -52.6 -74.2 -52.55 -74.25 -52.55 -74.25 -52.6 -74.2 -52.65 -74.3 -52.65 -74.3 -52.55 -74.3 -52.5 -74.35 -52.45 -74.35 -52.4 -74.4 -52.45 -74.55 -52.4 -74.55 -52.45 -74.7 -52.45 -74.55 -52.7 -74.4 -52.9 -74.35 -52.85 -74.3 -52.8 -74.3 -52.7 -74.3 -52.65 -74.25 -52.75 -74.2 -52.65 -74.15 -52.65 M-74.55 -52.3 L-74.45 -52.3 -74.55 -52.2 -74.55 -52.3 M-74.8 -52.35 L-74.7 -52.3 -74.6 -52.1 -74.6 -51.95 -74.6 -51.9 -74.65 -51.85 -74.85 -51.9 -74.9 -51.95 -75.05 -52.0 -75.1 -52.05 -75.25 -52.1 -75.15 -52.25 -75.25 -52.4 -75.05 -52.35 -75.0 -52.35 -74.85 -52.35 -74.8 -52.35 M-74.85 -52.4 L-74.9 -52.4 -74.7 -52.55 -74.75 -52.5 -74.7 -52.4 -74.75 -52.4 -74.8 -52.4 -74.85 -52.4 M-75.55 -52.35 L-75.55 -52.4 -75.6 -52.4 -75.6 -52.35 -75.55 -52.3 -75.55 -52.35 M-75.4 -52.05 L-75.45 -52.15 -75.5 -52.2 -75.45 -52.2 -75.25 -52.1 -75.3 -52.0 -75.4 -52.05" fill="#43a4cd" fill-rule="evenodd" stroke="none"/>
    <path d="M-32.2 -52.3 L-31.7 -52.8 -31.8 -53.1 -31.45 -52.5 -30.95 -52.65 -30.25 -52.65 -30.2 -52.65 -30.05 -52.65 -29.9 -52.65 -27.6 -52.45 -27.55 -52.45 -22.15 -51.3 -22.15 -51.35 -21.55 -51.15 -21.6 -51.15 -19.65 -50.55 -19.45 -50.45 -16.95 -49.7 -16.85 -49.7 -16.75 -49.65 -12.95 -49.15 Q-11.65 -49.15 -11.2 -49.6 -10.6 -49.95 -10.3 -50.5 L-10.25 -50.6 Q-9.95 -51.3 -10.05 -51.95 L-10.05 -52.0 -10.1 -52.25 -10.2 -52.5 -10.2 -52.55 -10.2 -52.6 -10.1 -52.6 -10.0 -52.6 -9.9 -52.6 -9.05 -52.6 -8.85 -52.6 -8.7 -52.6 -6.4 -52.35 -6.3 -52.35 -6.25 -52.35 Q-3.75 -52.1 -1.1 -51.25 L-0.4 -51.1 1.45 -50.5 1.7 -50.45 4.35 -49.6 4.55 -49.6 7.5 -49.1 7.55 -49.1 7.65 -49.1 7.7 -49.1 8.3 -49.1 9.6 -49.3 9.55 -49.3 Q9.95 -49.4 10.45 -49.8 L10.5 -49.9 Q11.2 -50.65 11.2 -51.65 L11.1 -52.5 11.15 -52.5 11.25 -52.5 11.35 -52.5 12.25 -52.5 12.45 -52.5 12.55 -52.5 14.95 -52.3 20.0 -51.3 20.1 -51.25 20.75 -51.1 22.2 -50.65 22.45 -50.5 25.6 -49.55 25.8 -49.55 28.2 -49.1 28.3 -49.1 28.35 -49.1 28.6 -49.05 28.85 -49.05 29.45 -49.05 29.55 -49.05 30.0 -49.05 Q30.8 -49.05 31.5 -49.45 L31.65 -49.55 31.75 -49.65 31.8 -49.7 32.4 -50.8 32.4 -50.7 32.5 -51.05 32.5 -51.1 32.4 -52.4 32.3 -52.4 32.4 -52.4 32.35 -52.45 32.45 -52.45 32.8 -52.45 33.0 -52.45 36.2 -52.25 36.25 -52.25 Q38.75 -52.0 41.45 -51.15 L42.1 -51.0 43.8 -50.5 46.85 -49.45 47.05 -49.45 47.25 -49.45 50.8 -49.0 51.2 -49.0 Q52.2 -49.0 52.95 -49.7 L53.0 -49.75 Q53.7 -50.5 53.7 -51.5 L53.6 -52.35 53.8 -52.35 53.9 -52.35 54.0 -52.35 57.45 -52.15 57.5 -52.15 62.55 -51.1 62.75 -51.1 62.8 -51.05 62.9 -51.0 63.2 -50.9 63.25 -50.85 64.9 -50.4 67.85 -49.6 68.3 -49.4 72.05 -48.85 72.1 -48.85 73.45 -49.05 73.4 -49.0 Q74.05 -49.2 74.65 -49.9 L74.7 -50.0 Q75.2 -50.8 75.05 -51.7 L75.05 -51.65 75.0 -51.85 74.9 -52.25 74.9 -52.3 74.85 -52.35 74.8 -52.45 74.85 -52.45 74.9 -52.55 74.85 -52.55 74.85 -52.5 74.8 -52.5 74.85 -52.55 75.15 -53.05 75.35 -53.05 75.4 -53.05 75.4 -53.0 75.25 -52.55 74.9 -52.3 74.95 -52.3 75.05 -52.3 75.35 -52.3 75.5 -52.3 75.7 -52.3 76.0 -52.3 76.1 -52.3 76.25 -52.3 76.35 -52.3 78.75 -52.1 83.6 -51.1 83.8 -51.1 83.85 -51.1 83.9 -51.05 83.95 -51.05 84.0 -51.0 84.5 -50.85 85.85 -50.45 86.05 -50.35 86.1 -50.35 86.15 -50.35 89.35 -49.35 89.45 -49.3 89.6 -49.25 93.35 -48.8 94.25 -48.85 Q94.95 -49.0 95.55 -49.55 L95.6 -49.6 Q96.3 -50.35 96.3 -51.35 L96.15 -52.2 96.2 -52.2 96.45 -52.25 96.85 -52.25 97.05 -52.25 97.2 -52.25 97.25 -52.25 99.95 -52.05 102.3 -51.0 102.8 -50.7 103.85 -50.5 103.95 -50.55 104.0 -50.55 104.0 69.15 -104.0 69.15 -104.0 -50.4 -103.7 -50.25 -102.05 -49.8 -101.85 -49.8 -101.7 -49.8 -99.35 -49.3 -98.45 -49.25 -98.4 -49.25 -98.1 -49.25 -96.35 -49.65 -96.1 -49.8 -95.4 -50.65 -95.35 -50.7 -95.25 -50.95 -95.25 -51.0 -95.25 -51.05 -95.15 -52.15 -95.15 -52.2 -95.2 -52.4 -95.3 -52.7 -95.3 -52.75 -95.2 -52.75 -91.45 -52.5 Q-88.8 -52.2 -85.9 -51.25 L-85.7 -51.25 -85.25 -51.1 -85.3 -51.1 -83.0 -50.4 -82.9 -50.35 -82.75 -50.3 -80.75 -49.75 -80.55 -49.75 -76.85 -49.2 -76.75 -49.2 -75.4 -49.4 Q-74.65 -49.75 -74.15 -50.5 -73.7 -51.25 -73.85 -52.05 L-73.85 -52.1 -74.1 -52.65 -74.15 -52.6 -74.1 -52.5 -74.1 -52.35 -74.6 -51.9 -74.6 -51.95 -74.6 -52.1 -74.7 -52.3 -74.8 -52.35 -74.85 -52.4 -74.8 -52.4 -74.75 -52.4 -74.7 -52.4 -74.75 -52.5 -74.7 -52.55 -74.9 -52.4 -74.85 -52.4 -74.85 -52.35 -75.0 -52.35 -75.05 -52.35 -75.25 -52.4 -75.15 -52.25 -75.25 -52.1 -75.1 -52.05 -75.25 -51.95 -75.3 -52.0 -75.35 -51.95 -75.4 -52.05 -75.3 -52.0 -75.25 -52.1 -75.45 -52.2 -75.5 -52.3 -75.45 -52.3 -75.4 -52.2 -75.45 -52.35 -75.45 -52.4 -75.4 -52.55 -75.5 -52.5 -75.55 -52.4 -75.55 -52.35 -75.55 -52.4 -75.55 -52.5 -75.5 -52.55 -75.35 -52.55 -75.05 -52.4 -74.9 -52.35 -75.0 -52.45 -74.95 -52.5 -74.95 -52.45 -74.9 -52.6 -74.85 -52.65 -74.85 -52.7 -74.9 -52.7 -74.9 -52.8 -74.95 -52.85 -74.9 -52.95 -74.9 -53.0 -74.9 -53.05 -74.9 -53.15 -74.75 -53.15 -74.7 -53.2 -74.55 -53.25 -74.45 -53.3 -74.4 -53.35 -74.35 -53.25 -74.45 -53.3 -74.35 -53.1 -74.3 -53.0 -74.35 -52.95 -74.3 -52.95 -74.2 -52.85 -74.2 -52.8 -74.25 -52.85 -74.2 -52.75 -74.2 -52.7 -74.15 -52.65 -74.15 -52.7 -74.1 -52.75 -74.15 -52.8 -74.15 -52.85 -74.15 -52.95 -74.15 -53.05 -74.15 -53.15 -74.25 -53.05 -74.3 -53.15 Q-74.0 -53.6 -74.0 -53.15 L-74.1 -52.75 -74.1 -52.7 -74.15 -52.65 -74.1 -52.65 -73.8 -52.65 -73.7 -52.65 -73.6 -52.65 -70.25 -52.4 -70.15 -52.4 -70.1 -52.4 -70.05 -52.4 Q-67.5 -52.15 -64.7 -51.2 L-64.3 -51.15 -64.15 -51.1 -64.05 -51.05 -62.15 -50.5 -61.95 -50.35 -59.75 -49.75 -59.7 -49.75 -59.65 -49.75 -59.65 -49.7 -59.55 -49.65 -59.4 -49.6 -55.6 -49.15 -54.25 -49.35 -54.3 -49.3 Q-53.65 -49.5 -53.05 -50.2 L-53.0 -50.3 Q-52.5 -51.1 -52.65 -52.0 L-52.65 -51.95 -52.7 -52.15 -52.8 -52.55 -52.95 -52.5 -52.9 -52.6 -52.9 -52.7 -52.85 -52.6 -52.9 -52.6 -52.85 -52.6 -52.75 -52.6 -51.5 -52.55 -51.3 -52.55 -51.15 -52.55 -48.95 -52.35 -48.9 -52.35 -43.45 -51.2 -43.55 -51.25 -43.2 -51.15 -43.2 -51.1 -40.9 -50.4 -38.15 -49.55 -37.7 -49.45 -35.4 -49.15 -34.35 -49.1 -33.9 -49.1 Q-32.9 -49.1 -32.15 -49.8 L-32.1 -49.85 Q-31.55 -50.45 -31.4 -51.2 L-31.45 -51.1 -31.35 -51.65 -31.45 -52.5 -31.7 -52.45 -31.95 -52.2 -32.15 -52.1 -32.2 -52.3 M52.85 -52.15 Q53.5 -53.5 53.5 -52.8 L53.5 -52.6 53.45 -52.7 53.4 -52.65 53.35 -52.35 53.3 -52.3 53.1 -52.3 53.35 -52.3 53.3 -52.25 53.15 -52.2 52.85 -52.1 52.85 -52.15 M53.6 -52.4 L53.4 -52.35 53.45 -52.35 53.35 -52.3 53.45 -52.4 53.4 -52.4 53.5 -52.6 53.6 -52.4 M74.7 -52.2 L74.6 -52.2 74.7 -52.3 74.85 -52.3 74.85 -52.25 74.7 -52.2 M76.25 -51.85 L76.15 -51.75 76.6 -51.7 76.25 -51.85 M10.35 -52.3 L10.65 -52.85 10.9 -52.65 10.9 -52.6 Q10.6 -52.4 10.8 -52.4 L10.85 -52.45 10.8 -52.35 10.4 -52.15 10.35 -52.3 M10.95 -52.75 L11.0 -52.7 10.95 -52.65 10.95 -52.75 M12.3 -51.7 L12.7 -51.65 12.45 -51.9 12.4 -51.85 12.3 -51.7 M32.2 -52.75 L32.3 -52.85 32.8 -53.1 32.7 -52.7 32.35 -52.5 32.3 -52.45 32.25 -52.55 32.25 -52.6 32.2 -52.7 32.2 -52.75 32.15 -52.75 32.1 -52.8 32.1 -52.9 32.2 -52.75 M32.2 -52.6 L32.2 -52.55 32.15 -52.4 32.1 -52.4 32.15 -52.4 32.1 -52.4 32.05 -52.35 32.05 -52.4 Q31.6 -52.45 32.15 -52.75 L32.2 -52.6 M96.0 -52.3 L95.9 -52.1 96.05 -52.45 96.0 -52.3 M-96.6 -53.2 L-96.85 -53.35 -96.75 -53.55 -96.4 -53.85 -96.3 -53.9 -95.6 -54.2 -95.6 -54.15 -96.35 -53.75 -96.6 -53.25 -96.6 -53.2 M-75.35 -51.4 L-75.4 -51.4 -75.35 -51.65 -75.35 -51.4 M-75.65 -52.6 L-75.65 -52.8 -75.55 -53.05 -75.4 -52.95 -75.4 -52.9 -75.5 -52.7 -75.55 -52.6 -75.65 -52.75 -75.65 -52.6 M-75.15 -52.55 L-75.25 -52.6 -75.3 -52.6 -75.2 -52.65 -75.05 -52.7 -75.1 -52.75 -75.0 -52.85 -74.9 -52.7 -75.15 -52.6 -75.15 -52.55 M-74.9 -51.75 L-74.95 -51.85 -74.95 -51.9 -74.9 -51.95 -74.85 -51.9 -74.9 -51.75 M-31.65 -52.6 L-31.65 -52.85 -31.7 -52.8 -31.65 -52.6 -31.85 -52.45 -32.05 -52.4 -31.7 -52.45 -31.65 -52.5 -31.55 -52.65 -31.65 -52.6 M-30.2 -51.55 L-29.75 -51.55 -30.05 -51.7 -30.1 -51.65 -30.2 -51.55 M-8.85 -51.85 L-8.85 -51.75 -8.95 -51.65 -8.5 -51.6 -8.85 -51.85 M-74.8 -53.15 L-74.65 -53.05 -74.65 -53.15 -74.8 -53.15 M-74.85 -52.65 L-74.65 -52.75 -74.65 -52.9 -74.65 -53.0 -74.6 -53.05 -74.65 -53.05 -74.65 -53.0 -74.85 -52.7 -74.85 -52.65 M-74.55 -53.05 L-74.55 -52.8 -74.45 -52.85 -74.4 -52.9 -74.35 -52.95 -74.35 -53.05 -74.45 -52.95 -74.5 -53.0 -74.55 -53.05 M-74.55 -53.25 L-74.55 -53.1 -74.35 -53.05 -74.5 -53.2 -74.55 -53.25 M-74.15 -52.65 L-74.2 -52.65 -74.25 -52.75 -74.3 -52.65 -74.3 -52.7 -74.3 -52.8 -74.35 -52.85 -74.4 -52.9 -74.55 -52.7 -74.7 -52.45 -74.55 -52.45 -74.55 -52.4 -74.4 -52.45 -74.35 -52.4 -74.35 -52.45 -74.3 -52.5 -74.3 -52.55 -74.3 -52.65 -74.2 -52.65 -74.25 -52.6 -74.25 -52.55 -74.2 -52.55 -74.2 -52.6 -74.2 -52.65 -74.15 -52.65 M-74.55 -52.3 L-74.55 -52.2 -74.45 -52.3 -74.55 -52.3 M-51.45 -51.5 L-51.0 -51.5 -51.3 -51.65 -51.35 -51.6 -51.45 -51.5" fill="url(#gradient0)" fill-rule="evenodd" stroke="none"/>
    <path d="M76.25 -51.85 L76.6 -51.7 76.15 -51.75 76.25 -51.85 M12.3 -51.7 L12.4 -51.85 12.45 -51.9 12.7 -51.65 12.3 -51.7 M-30.2 -51.55 L-30.1 -51.65 -30.05 -51.7 -29.75 -51.55 -30.2 -51.55 M-8.85 -51.85 L-8.5 -51.6 -8.95 -51.65 -8.85 -51.75 -8.85 -51.85 M-51.45 -51.5 L-51.35 -51.6 -51.3 -51.65 -51.0 -51.5 -51.45 -51.5" fill="#a4aeaf" fill-rule="evenodd" stroke="none"/>
    <path d="M104.0 -52.55 L104.0 -52.8 104.0 -52.85 104.0 -52.55 M-75.6 -52.0 L-75.85 -52.3 -75.85 -52.35 -75.7 -52.25 -75.55 -52.15 -75.55 -52.2 -75.55 -52.25 -75.45 -51.9 -75.6 -52.0" fill="#f4f4f4" fill-rule="evenodd" stroke="none"/>
    <path d="M104.0 -52.55 L103.9 -52.65 104.0 -52.8 104.0 -52.55" fill="#89fefd" fill-rule="evenodd" stroke="none"/>
  </g>
  <defs>
    <linearGradient gradientTransform="matrix(0.0, 0.0753, -0.127, 0.0, 3.3, 8.15)" gradientUnits="userSpaceOnUse" id="gradient0" spreadMethod="pad" x1="-819.2" x2="819.2">
      <stop offset="0.0" stop-color="#68bfea"/>
      <stop offset="1.0" stop-color="#2980ab"/>
    </linearGradient>
  </defs>
</svg>
