<?xml version="1.0" encoding="UTF-8" standalone="no"?>
<svg xmlns:ffdec="https://www.free-decompiler.com/flash" xmlns:xlink="http://www.w3.org/1999/xlink" ffdec:objectType="shape" height="204.3px" width="654.45px" xmlns="http://www.w3.org/2000/svg">
  <g transform="matrix(1.0, 0.0, 0.0, 1.0, 328.75, 121.3)">
    <path d="M25.3 -45.55 L25.0 -45.4 25.45 -45.4 25.35 -45.5 25.3 -45.55 M4.1 -45.55 L4.1 -45.6 3.8 -45.45 4.2 -45.45 4.1 -45.55 M6.5 -48.75 L6.55 -48.9 6.4 -48.9 6.2 -48.85 6.5 -48.75 M70.95 -48.6 L71.55 -48.0 71.5 -48.65 70.85 -48.65 70.95 -48.6 M68.0 -45.25 L68.05 -45.3 67.95 -45.4 68.0 -45.25 M50.5 -45.75 L50.45 -45.75 50.4 -45.7 50.8 -45.6 50.5 -45.75 M46.3 -45.3 L46.8 -45.35 46.65 -45.45 46.3 -45.3 M101.3 -70.0 L103.3 -70.0 324.65 -70.0 324.65 -44.5 324.65 -43.35 324.65 -44.5 324.65 -43.3 324.65 -43.35 324.65 82.0 101.3 82.0 101.3 -70.0 M-137.95 -70.0 L85.4 -70.0 85.45 82.0 -137.95 82.0 -137.95 -70.0 M317.3 -47.0 L317.3 -63.3 109.3 -63.3 109.3 75.0 317.3 75.0 317.3 -44.7 317.3 -46.7 317.3 -47.0 M-137.8 -45.65 L-137.8 -45.5 -137.35 -45.65 -137.8 -45.65 M-132.0 -47.2 L-131.3 -47.4 -132.2 -47.7 -132.0 -47.2 M-99.7 -49.05 L-100.15 -49.05 -100.2 -49.05 -101.25 -48.7 -100.95 -48.7 -100.85 -48.7 -100.7 -48.7 -100.55 -48.7 -99.8 -48.55 -99.7 -49.05 M-110.8 -47.3 L-110.35 -47.45 -110.9 -47.6 -110.8 -47.3 M-46.9 -47.55 L-47.1 -47.6 -47.05 -47.5 -46.9 -47.55 M-59.7 -45.5 L-59.65 -45.55 -59.75 -45.65 -59.7 -45.5 M-57.8 -48.9 L-57.95 -48.85 -57.9 -48.8 -57.45 -48.7 -57.4 -49.05 -57.8 -48.9 M-55.85 -45.55 L-55.95 -45.45 -55.55 -45.45 -55.85 -45.6 -55.85 -45.55 M-78.8 -49.0 L-78.95 -49.0 -79.7 -48.75 -79.6 -48.75 -79.25 -48.75 -78.65 -48.65 -78.6 -48.95 -78.6 -49.0 -78.7 -49.0 -78.8 -49.0 M-68.3 -47.45 L-68.45 -47.5 -68.4 -47.4 -68.3 -47.45 M-77.1 -45.55 L-77.1 -45.5 -77.25 -45.4 -76.8 -45.4 -77.1 -45.55 M-4.75 -47.5 L-4.55 -47.45 -4.7 -47.6 -4.75 -47.5 M-14.75 -48.8 L-14.75 -48.95 -14.85 -48.95 -14.95 -48.95 -15.1 -48.95 -15.15 -48.9 -14.75 -48.8 M-13.45 -45.65 L-13.1 -45.55 -13.35 -45.8 -13.4 -45.75 -13.45 -45.65 M-26.0 -47.55 L-26.0 -47.5 -25.9 -47.5 -25.8 -47.55 -26.0 -47.55 M-17.15 -45.75 L-17.1 -45.55 -17.05 -45.55 -17.15 -45.7 -17.15 -45.75 M-34.6 -45.7 L-34.7 -45.55 -34.3 -45.5 -34.6 -45.75 -34.6 -45.7 M-35.95 -49.0 L-36.1 -49.0 -36.2 -49.0 -36.3 -49.0 -36.6 -48.9 -36.05 -48.75 -35.95 -49.0" fill="#ffffff" fill-rule="evenodd" stroke="none"/>
    <path d="M6.5 -48.75 L6.2 -48.85 6.4 -48.9 6.55 -48.9 6.5 -48.75 M70.95 -48.6 L70.85 -48.65 71.5 -48.65 71.55 -48.0 70.95 -48.6 M50.5 -45.75 L50.8 -45.6 50.4 -45.7 50.45 -45.75 50.5 -45.75 M68.0 -45.25 L67.95 -45.4 68.05 -45.3 68.0 -45.25 M161.85 -45.65 L161.95 -45.75 162.0 -45.8 162.3 -45.65 161.85 -45.65 M183.55 -45.7 L183.1 -45.7 183.2 -45.8 183.25 -45.85 183.55 -45.7 M204.45 -45.9 L204.45 -46.0 204.8 -45.75 204.35 -45.8 204.45 -45.9 M225.7 -46.0 L225.75 -46.05 226.0 -45.8 225.6 -45.85 225.7 -46.0 M289.45 -45.9 L289.55 -46.0 289.9 -45.85 289.45 -45.9 M-327.6 -45.5 L-327.6 -45.65 -327.15 -45.65 -327.6 -45.5 M-321.85 -47.2 L-322.0 -47.7 -321.1 -47.4 -321.85 -47.2 M-300.15 -47.45 L-300.6 -47.3 -300.7 -47.6 -300.15 -47.45 M-289.5 -49.05 L-289.6 -48.55 -290.3 -48.7 -290.45 -48.7 -290.6 -48.7 -290.75 -48.7 -291.0 -48.7 -290.0 -49.05 -289.95 -49.05 -289.5 -49.05 M-247.6 -48.9 L-247.15 -49.05 -247.25 -48.7 -247.7 -48.8 -247.75 -48.85 -247.6 -48.9 M-249.55 -45.65 L-249.45 -45.55 -249.5 -45.5 -249.55 -45.65 M-245.75 -45.45 L-245.65 -45.55 -245.65 -45.6 -245.35 -45.45 -245.75 -45.45 M-258.2 -47.4 L-258.2 -47.5 -258.1 -47.45 -258.2 -47.4 M-267.05 -45.4 L-266.9 -45.5 -266.9 -45.55 -266.6 -45.4 -267.05 -45.4 M-268.45 -48.65 L-269.05 -48.75 -269.4 -48.75 -269.5 -48.75 -268.75 -49.0 -268.6 -49.0 -268.5 -49.0 -268.4 -49.0 -268.45 -48.65 M-204.55 -48.95 L-204.55 -48.8 -204.95 -48.9 -204.9 -48.95 -204.75 -48.95 -204.65 -48.95 -204.55 -48.95 M-203.15 -45.75 L-203.15 -45.8 -202.85 -45.55 -203.25 -45.65 -203.15 -45.75 M-206.95 -45.7 L-206.85 -45.55 -206.9 -45.55 -206.95 -45.75 -206.95 -45.7 M-215.8 -47.5 L-215.8 -47.55 -215.6 -47.55 -215.7 -47.5 -215.8 -47.5 M-226.0 -49.0 L-225.9 -49.0 -225.75 -49.0 -225.85 -48.75 -226.4 -48.9 -226.1 -49.0 -226.0 -49.0 M-224.4 -45.7 L-224.4 -45.75 -224.1 -45.5 -224.5 -45.55 -224.4 -45.7 M-236.85 -47.5 L-236.9 -47.6 -236.7 -47.55 -236.85 -47.5 M-170.1 -48.65 L-169.45 -48.65 -169.4 -48.0 -170.1 -48.65 M-183.25 -48.9 L-183.3 -48.75 -183.65 -48.85 -183.4 -48.9 -183.25 -48.9 M-173.05 -45.4 L-172.95 -45.3 -173.0 -45.25 -173.05 -45.4 M-194.35 -47.45 L-194.55 -47.5 -194.5 -47.6 -194.35 -47.45 M-190.5 -45.75 L-190.15 -45.6 -190.6 -45.7 -190.5 -45.75 M-137.8 -45.65 L-137.35 -45.65 -137.8 -45.5 -137.8 -45.65 M-132.0 -47.2 L-132.2 -47.7 -131.3 -47.4 -132.0 -47.2 M-99.7 -49.05 L-99.8 -48.55 -100.55 -48.7 -100.7 -48.7 -100.85 -48.7 -100.95 -48.7 -101.25 -48.7 -100.2 -49.05 -100.15 -49.05 -99.7 -49.05 M-110.8 -47.3 L-110.9 -47.6 -110.35 -47.45 -110.8 -47.3 M-46.9 -47.55 L-47.05 -47.5 -47.1 -47.6 -46.9 -47.55 M-57.8 -48.9 L-57.4 -49.05 -57.45 -48.7 -57.9 -48.8 -57.95 -48.85 -57.8 -48.9 M-59.7 -45.5 L-59.75 -45.65 -59.65 -45.55 -59.7 -45.5 M-55.85 -45.55 L-55.85 -45.6 -55.55 -45.45 -55.95 -45.45 -55.85 -45.55 M-68.3 -47.45 L-68.4 -47.4 -68.45 -47.5 -68.3 -47.45 M-78.8 -49.0 L-78.7 -49.0 -78.6 -49.0 -78.6 -48.95 -78.65 -48.65 -79.25 -48.75 -79.6 -48.75 -79.7 -48.75 -78.95 -49.0 -78.8 -49.0 M-4.75 -47.5 L-4.7 -47.6 -4.55 -47.45 -4.75 -47.5 M-77.1 -45.55 L-76.8 -45.4 -77.25 -45.4 -77.1 -45.5 -77.1 -45.55 M-14.75 -48.8 L-15.15 -48.9 -15.1 -48.95 -14.95 -48.95 -14.85 -48.95 -14.75 -48.95 -14.75 -48.8 M-13.45 -45.65 L-13.4 -45.75 -13.35 -45.8 -13.1 -45.55 -13.45 -45.65 M-17.15 -45.75 L-17.15 -45.7 -17.05 -45.55 -17.1 -45.55 -17.15 -45.75 M-26.0 -47.55 L-25.8 -47.55 -25.9 -47.5 -26.0 -47.5 -26.0 -47.55 M-34.6 -45.7 L-34.6 -45.75 -34.3 -45.5 -34.7 -45.55 -34.6 -45.7 M-35.95 -49.0 L-36.05 -48.75 -36.6 -48.9 -36.3 -49.0 -36.2 -49.0 -36.1 -49.0 -35.95 -49.0" fill="#a4aeaf" fill-rule="evenodd" stroke="none"/>
    <path d="M-138.4 51.0 L-138.6 51.0 -138.6 49.6 -138.4 51.0" fill="#a0a0a0" fill-rule="evenodd" stroke="none"/>
    <path d="M137.75 -46.4 L137.85 -46.05 137.7 -46.15 137.45 -46.45 137.45 -46.5 137.6 -46.4 137.75 -46.3 137.75 -46.35 137.75 -46.4 M317.3 -46.7 L317.3 -46.95 317.3 -47.0 317.3 -46.7" fill="#f4f4f4" fill-rule="evenodd" stroke="none"/>
    <path d="M25.3 -45.55 L25.35 -45.5 25.45 -45.4 25.0 -45.4 25.3 -45.55 M4.1 -45.55 L4.2 -45.45 3.8 -45.45 4.1 -45.6 4.1 -45.55 M46.3 -45.3 L46.65 -45.45 46.8 -45.35 46.3 -45.3 M86.1 -45.5 L85.6 -45.65 86.1 -45.65 86.1 -45.5" fill="url(#gradient0)" fill-rule="evenodd" stroke="none"/>
    <path d="M-164.35 -45.4 L-164.75 -45.4 -164.5 -45.55 -164.45 -45.5 -164.35 -45.4 M-185.7 -45.6 L-185.7 -45.55 -185.6 -45.45 -186.0 -45.45 -185.7 -45.6" fill="url(#gradient1)" fill-rule="evenodd" stroke="none"/>
    <path d="M-194.2 -45.35 L-194.65 -45.3 -194.3 -45.45 -194.2 -45.35 M-155.4 -45.65 L-154.9 -45.65 -154.9 -45.5 -155.4 -45.65" fill="url(#gradient2)" fill-rule="evenodd" stroke="none"/>
    <path d="M317.3 -46.7 L317.2 -46.8 317.3 -46.95 317.3 -46.7" fill="#89fefd" fill-rule="evenodd" stroke="none"/>
    <path d="M117.7 -48.35 L117.7 -48.3 Q117.2 -48.25 116.95 -47.9 L116.7 -47.4 116.7 -47.35 116.45 -47.5 116.55 -47.7 116.9 -48.0 117.0 -48.05 117.7 -48.35 M160.4 -46.75 L160.4 -46.85 160.45 -46.75 160.4 -46.75 M137.65 -46.75 L137.65 -46.95 137.75 -47.2 137.9 -47.1 137.9 -47.05 137.8 -46.85 137.75 -46.75 137.65 -46.9 137.65 -46.75 M137.8 -46.7 L137.95 -46.7 138.25 -46.55 138.4 -46.5 138.3 -46.6 138.35 -46.65 138.35 -46.6 138.4 -46.75 138.45 -46.8 138.65 -46.9 138.65 -47.05 138.65 -47.15 138.7 -47.2 138.65 -47.2 138.65 -47.3 138.5 -47.3 138.65 -47.2 138.65 -47.15 138.45 -46.85 138.45 -46.8 138.45 -46.85 138.4 -46.85 138.4 -46.95 138.35 -47.0 138.4 -47.1 138.4 -47.15 138.4 -47.2 138.4 -47.3 138.55 -47.3 138.6 -47.35 138.75 -47.4 138.85 -47.45 138.9 -47.5 138.95 -47.4 138.85 -47.45 138.95 -47.25 139.0 -47.15 138.95 -47.1 139.0 -47.1 139.1 -47.0 139.1 -46.95 139.05 -47.0 139.1 -46.9 139.1 -46.85 139.15 -46.8 139.15 -46.85 139.2 -46.9 139.15 -46.95 139.15 -47.0 139.15 -47.1 139.15 -47.2 139.15 -47.3 139.05 -47.2 139.0 -47.3 Q139.3 -47.75 139.3 -47.3 L139.2 -46.9 139.2 -46.85 139.15 -46.8 139.2 -46.8 139.15 -46.75 139.2 -46.65 139.2 -46.5 138.7 -46.05 138.7 -46.1 138.7 -46.25 138.6 -46.45 138.5 -46.5 138.45 -46.55 138.45 -46.5 138.3 -46.5 138.25 -46.5 138.05 -46.55 138.15 -46.4 138.05 -46.25 138.2 -46.2 138.05 -46.1 138.0 -46.15 137.95 -46.1 137.9 -46.2 138.0 -46.15 138.05 -46.25 137.85 -46.35 137.8 -46.45 137.85 -46.45 137.9 -46.35 137.85 -46.5 137.85 -46.55 137.9 -46.7 137.8 -46.65 137.75 -46.55 137.75 -46.5 137.75 -46.55 137.75 -46.65 137.8 -46.7 M138.15 -46.7 L138.05 -46.75 138.0 -46.75 138.1 -46.8 138.25 -46.85 138.2 -46.9 138.3 -47.0 138.4 -46.85 138.15 -46.75 138.15 -46.7 M138.4 -45.9 L138.35 -46.0 138.35 -46.05 138.4 -46.1 138.45 -46.05 138.4 -45.9 M138.75 -47.4 L138.75 -47.25 138.95 -47.2 138.8 -47.35 138.75 -47.4 M138.45 -46.55 L138.5 -46.55 138.55 -46.55 138.6 -46.55 138.55 -46.65 138.6 -46.7 138.4 -46.55 138.45 -46.55 M139.15 -46.8 L139.1 -46.8 139.05 -46.9 139.0 -46.8 139.0 -46.85 139.0 -46.95 138.95 -47.0 138.9 -47.05 138.75 -46.85 138.6 -46.6 138.75 -46.6 138.75 -46.55 138.9 -46.6 Q138.8 -46.45 138.95 -46.55 L138.95 -46.6 139.0 -46.65 139.0 -46.7 139.0 -46.8 139.1 -46.8 139.15 -46.8 M138.9 -47.05 L138.95 -47.1 138.95 -47.2 138.85 -47.1 138.8 -47.15 138.75 -47.2 138.75 -46.95 138.85 -47.0 138.9 -47.05 M138.75 -46.45 L138.75 -46.35 138.85 -46.45 138.75 -46.45 M139.1 -46.75 L139.1 -46.8 139.05 -46.75 139.05 -46.7 139.1 -46.7 139.1 -46.75 M137.95 -45.55 L137.9 -45.55 137.95 -45.8 137.95 -45.55 M181.6 -46.95 L181.65 -46.75 181.45 -46.6 181.25 -46.55 181.6 -46.6 181.35 -46.35 181.15 -46.25 181.1 -46.45 181.6 -46.95 181.5 -47.25 181.85 -46.65 181.6 -46.6 181.65 -46.65 181.75 -46.8 181.65 -46.75 181.65 -47.0 181.6 -46.95 M245.6 -46.55 L245.7 -46.55 245.6 -46.55 M288.1 -46.65 L288.15 -46.7 288.15 -46.65 288.1 -46.65" fill="url(#gradient3)" fill-rule="evenodd" stroke="none"/>
    <path d="M137.95 -47.45 L138.0 -47.5 137.95 -47.45 M138.7 -46.05 L138.45 -45.8 138.4 -45.9 138.45 -46.05 138.65 -46.0 138.7 -46.05 M138.35 -46.05 L138.3 -46.1 138.15 -46.05 138.05 -46.1 138.2 -46.2 138.25 -46.15 138.4 -46.1 138.35 -46.05 M137.6 -46.4 L137.55 -46.45 137.6 -46.45 137.7 -46.35 137.75 -46.3 137.75 -46.35 137.75 -46.3 137.6 -46.4 M137.7 -46.5 L137.7 -46.55 137.75 -46.55 137.7 -46.5 M138.3 -46.6 L138.4 -46.5 138.25 -46.55 138.3 -46.6 M138.5 -46.5 L138.45 -46.5 138.45 -46.55 138.5 -46.5 M181.1 -46.45 L181.15 -46.25 180.95 -46.25 180.9 -46.25 181.1 -46.45 M202.65 -48.1 L202.55 -48.0 202.5 -47.95 202.9 -48.15 202.4 -47.9 202.65 -48.1 M288.7 -47.2 L288.65 -47.2 288.45 -47.2 Q288.7 -47.55 288.7 -47.2" fill="#c1d0df" fill-rule="evenodd" stroke="none"/>
    <path d="M137.95 -47.45 L137.8 -47.3 137.8 -47.35 137.8 -47.45 137.65 -47.1 137.65 -47.2 137.65 -47.3 137.55 -47.25 137.6 -47.3 137.65 -47.4 137.7 -47.4 137.7 -47.45 137.75 -47.45 137.8 -47.5 137.85 -47.55 137.9 -47.6 138.15 -47.7 138.25 -47.75 138.0 -47.5 137.95 -47.45 138.0 -47.5 138.05 -47.5 138.2 -47.5 138.2 -47.4 137.95 -47.45 M137.7 -47.4 L137.65 -47.4 137.7 -47.4 M137.8 -46.85 L137.95 -47.0 137.8 -46.7 137.75 -46.65 137.75 -46.55 137.8 -46.65 137.9 -46.7 137.85 -46.55 137.85 -46.5 137.9 -46.35 137.85 -46.45 137.8 -46.45 137.75 -46.4 137.75 -46.35 137.75 -46.3 137.7 -46.35 137.6 -46.45 137.55 -46.45 137.6 -46.4 137.45 -46.5 137.5 -46.55 137.55 -46.55 137.5 -46.6 137.65 -46.75 137.65 -46.9 137.75 -46.75 137.8 -46.85 M138.25 -46.55 L138.15 -46.7 138.15 -46.75 138.4 -46.85 138.3 -47.0 138.25 -47.1 138.3 -47.05 138.35 -47.0 138.4 -46.95 138.4 -46.85 138.45 -46.85 138.45 -46.8 138.45 -46.85 138.65 -47.15 138.65 -47.2 138.5 -47.3 138.65 -47.3 138.65 -47.2 138.7 -47.2 138.65 -47.15 138.65 -47.05 138.65 -46.9 138.45 -46.8 138.4 -46.75 138.35 -46.6 138.35 -46.65 138.3 -46.6 138.25 -46.55 M137.9 -46.2 L137.85 -46.3 137.8 -46.35 137.85 -46.35 138.05 -46.25 138.0 -46.15 137.9 -46.2 M137.75 -46.5 L137.75 -46.55 137.7 -46.55 137.7 -46.5 137.75 -46.45 137.75 -46.5 M138.75 -47.4 L138.8 -47.35 138.95 -47.2 138.75 -47.25 138.75 -47.4 M138.2 -46.2 L138.05 -46.25 138.15 -46.4 138.05 -46.55 138.25 -46.5 138.3 -46.5 138.45 -46.5 138.5 -46.5 138.6 -46.45 138.7 -46.25 138.7 -46.1 138.7 -46.05 138.65 -46.0 138.45 -46.05 138.4 -46.1 138.25 -46.15 138.2 -46.2 M138.45 -46.55 L138.4 -46.55 138.6 -46.7 138.55 -46.65 138.6 -46.55 138.55 -46.55 138.5 -46.55 138.45 -46.55 M139.1 -46.75 L139.1 -46.7 139.05 -46.7 139.05 -46.75 139.1 -46.8 139.1 -46.75 M138.75 -46.45 L138.85 -46.45 138.75 -46.35 138.75 -46.45 M138.9 -47.05 L138.85 -47.0 138.75 -46.95 138.75 -47.2 138.8 -47.15 138.85 -47.1 138.95 -47.2 138.95 -47.1 138.9 -47.05 138.95 -47.0 139.0 -46.95 139.0 -46.85 139.0 -46.8 139.05 -46.9 139.1 -46.8 139.15 -46.8 139.1 -46.8 139.0 -46.8 139.0 -46.7 139.0 -46.65 138.95 -46.6 138.95 -46.55 Q138.8 -46.45 138.9 -46.6 L138.75 -46.55 138.75 -46.6 138.6 -46.6 138.75 -46.85 138.9 -47.05 M138.1 -47.2 L138.0 -46.95 137.95 -47.05 138.1 -47.2 M137.2 -45.9 L137.2 -46.0 137.25 -45.85 137.2 -45.9 M137.8 -45.95 L137.7 -46.0 137.95 -45.95 137.8 -45.95 M181.6 -46.6 L181.25 -46.55 181.45 -46.6 181.65 -46.75 181.6 -46.95 181.65 -47.0 181.65 -46.75 181.75 -46.8 181.65 -46.65 181.6 -46.6" fill="#43a4cd" fill-rule="evenodd" stroke="none"/>
    <path d="M103.3 -70.0 L101.3 -70.0 101.3 -120.3 324.7 -120.3 324.65 -70.0 103.3 -70.0 M-137.95 -70.0 L-137.95 -120.05 85.45 -120.05 85.4 -70.0 -137.95 -70.0 M-327.75 -70.0 L-327.75 -120.05 -155.55 -120.05 -155.6 -70.0 -327.75 -70.0" fill="#3d2930" fill-rule="evenodd" stroke="none"/>
    <path d="M101.3 -70.0 L101.3 82.0 324.65 82.0 324.65 -43.35 324.65 -44.5 324.65 -70.0 103.3 -70.0 M101.3 -70.0 L101.3 -120.3 324.7 -120.3 324.65 -70.0 M85.4 -70.0 L85.45 -120.05 -137.95 -120.05 -137.95 -70.0 85.4 -70.0 85.45 82.0 -137.95 82.0 -137.95 -70.0 M-327.75 -70.0 L-327.75 -120.05 -155.55 -120.05 -155.6 -70.0 -155.6 82.0 -327.75 82.0 -327.75 -70.0 -155.6 -70.0" fill="none" stroke="#3d2930" stroke-linecap="round" stroke-linejoin="round" stroke-width="2.0"/>
  </g>
  <defs>
    <linearGradient gradientTransform="matrix(0.0, -0.0788, 0.141, 0.0, -24.0, 16.0)" gradientUnits="userSpaceOnUse" id="gradient0" spreadMethod="pad" x1="-819.2" x2="819.2">
      <stop offset="0.0" stop-color="#b0babb"/>
      <stop offset="1.0" stop-color="#d6e2e2"/>
    </linearGradient>
    <linearGradient gradientTransform="matrix(0.0, -0.0788, 0.141, 0.0, -213.8, 16.0)" gradientUnits="userSpaceOnUse" id="gradient1" spreadMethod="pad" x1="-819.2" x2="819.2">
      <stop offset="0.0" stop-color="#b0babb"/>
      <stop offset="1.0" stop-color="#d6e2e2"/>
    </linearGradient>
    <linearGradient gradientTransform="matrix(0.0, -0.0788, 0.141, 0.0, -264.95, 16.0)" gradientUnits="userSpaceOnUse" id="gradient2" spreadMethod="pad" x1="-819.2" x2="819.2">
      <stop offset="0.0" stop-color="#b0babb"/>
      <stop offset="1.0" stop-color="#d6e2e2"/>
    </linearGradient>
    <linearGradient gradientTransform="matrix(0.0, 0.0753, -0.127, 0.0, 216.6, 14.0)" gradientUnits="userSpaceOnUse" id="gradient3" spreadMethod="pad" x1="-819.2" x2="819.2">
      <stop offset="0.0" stop-color="#68bfea"/>
      <stop offset="1.0" stop-color="#2980ab"/>
    </linearGradient>
  </defs>
</svg>
