<?xml version="1.0" encoding="UTF-8" standalone="no"?>
<svg xmlns:ffdec="https://www.free-decompiler.com/flash" xmlns:xlink="http://www.w3.org/1999/xlink" ffdec:objectType="shape" height="141.65px" width="169.75px" xmlns="http://www.w3.org/2000/svg">
  <g transform="matrix(1.0, 0.0, 0.0, 1.0, 84.85, 70.85)">
    <path d="M-84.85 -64.65 L-84.85 -70.85 -53.5 -67.5 3.0 -61.4 6.05 -64.95 6.05 -65.0 6.65 -65.7 7.3 -66.25 9.6 -66.85 16.3 -67.5 21.85 -67.5 36.5 -66.5 Q49.3 -65.3 58.15 -63.25 L58.4 -63.2 58.5 -63.2 Q63.95 -61.5 68.7 -57.65 73.75 -53.6 77.9 -47.05 L79.05 -45.2 80.55 -42.5 82.0 -39.6 82.0 -39.55 82.85 -37.55 82.85 -37.6 83.8 -35.5 83.8 -35.45 84.85 -32.45 84.85 -32.4 84.9 -31.5 84.9 -31.45 Q84.7 -30.0 83.5 -29.1 L74.2 -22.45 74.35 -17.2 Q74.55 -3.5 72.05 10.05 70.95 15.9 69.25 21.6 66.15 31.75 61.1 41.25 53.0 56.55 39.2 66.9 L39.15 66.9 33.4 70.65 32.65 70.8 -84.85 70.8 -84.85 -35.15 25.3 -25.2 Q26.5 -38.05 20.25 -45.95 L20.2 -46.0 Q13.85 -53.5 2.5 -56.65 L-54.85 -61.9 -84.85 -64.65 M18.05 -62.4 L19.1 -61.9 Q35.25 -54.7 37.65 -38.9 L78.5 -35.0 Q76.3 -39.8 73.45 -44.25 66.55 -55.15 56.95 -58.2 43.05 -61.35 19.3 -62.4 L18.05 -62.4 M0.9 -34.25 Q1.6 -35.0 2.65 -35.0 3.7 -35.0 4.45 -34.25 L4.4 -34.25 Q5.15 -33.55 5.15 -32.5 5.15 -31.45 4.45 -30.7 L4.4 -30.7 Q3.7 -30.0 2.65 -30.0 1.6 -30.0 0.9 -30.7 0.15 -31.45 0.15 -32.5 0.15 -33.55 0.9 -34.25 M18.1 -33.35 Q19.15 -33.35 19.85 -32.6 20.6 -31.9 20.6 -30.85 20.6 -29.8 19.85 -29.1 L19.85 -29.05 Q19.15 -28.35 18.1 -28.35 17.05 -28.35 16.3 -29.1 L16.3 -29.05 Q15.55 -29.8 15.55 -30.85 15.55 -31.9 16.3 -32.6 17.05 -33.35 18.1 -33.35 M33.4 -17.2 L33.4 -16.8 Q32.9 -2.9 29.65 10.65 L29.1 12.9 Q26.35 24.1 21.4 34.5 L20.45 36.5 Q15.55 46.55 8.35 55.05 L3.0 60.85 -2.25 65.6 32.1 65.6 Q37.75 61.9 42.55 57.35 47.05 53.0 51.1 46.95 L56.5 38.4 58.45 34.15 Q63.5 23.0 65.45 15.4 L66.75 9.6 Q68.5 0.75 68.9 -8.25 L68.95 -16.3 68.9 -17.2 68.45 -23.2 33.25 -26.4 33.4 -17.2 M-12.75 -35.95 Q-12.0 -35.25 -12.0 -34.2 -12.0 -33.15 -12.7 -32.45 L-12.75 -32.4 Q-13.45 -31.7 -14.5 -31.7 L-15.65 -32.0 -16.25 -32.45 -16.25 -32.4 Q-17.0 -33.15 -17.0 -34.2 -17.0 -35.25 -16.25 -35.95 L-15.65 -36.4 -14.5 -36.7 Q-13.45 -36.7 -12.7 -35.95 L-12.75 -35.95 M-31.65 -38.5 Q-30.6 -38.5 -29.85 -37.75 -29.15 -37.0 -29.1 -35.95 -29.15 -34.95 -29.85 -34.2 -30.6 -33.45 -31.65 -33.45 -32.65 -33.5 -33.4 -34.2 -34.15 -34.9 -34.15 -35.95 -34.15 -37.0 -33.4 -37.75 -32.65 -38.5 -31.65 -38.5" fill="#000000" fill-rule="evenodd" stroke="none"/>
    <path d="M-84.85 -35.15 L-84.85 -64.65 -54.85 -61.9 2.5 -56.65 Q13.85 -53.5 20.2 -46.0 L20.25 -45.95 Q26.5 -38.05 25.3 -25.2 L-84.85 -35.15 M18.05 -62.4 L19.3 -62.4 Q43.05 -61.35 56.95 -58.2 66.55 -55.15 73.45 -44.25 76.3 -39.8 78.5 -35.0 L37.65 -38.9 Q35.25 -54.7 19.1 -61.9 L18.05 -62.4 M18.1 -33.35 Q17.05 -33.35 16.3 -32.6 15.55 -31.9 15.55 -30.85 15.55 -29.8 16.3 -29.05 L16.3 -29.1 Q17.05 -28.35 18.1 -28.35 19.15 -28.35 19.85 -29.05 L19.85 -29.1 Q20.6 -29.8 20.6 -30.85 20.6 -31.9 19.85 -32.6 19.15 -33.35 18.1 -33.35 M0.9 -34.25 Q0.15 -33.55 0.15 -32.5 0.15 -31.45 0.9 -30.7 1.6 -30.0 2.65 -30.0 3.7 -30.0 4.4 -30.7 L4.45 -30.7 Q5.15 -31.45 5.15 -32.5 5.15 -33.55 4.4 -34.25 L4.45 -34.25 Q3.7 -35.0 2.65 -35.0 1.6 -35.0 0.9 -34.25 M33.4 -17.2 L33.25 -26.4 68.45 -23.2 68.9 -17.2 68.95 -16.3 68.9 -8.25 Q68.5 0.75 66.75 9.6 L65.45 15.4 Q63.5 23.0 58.45 34.15 L56.5 38.4 51.1 46.95 Q47.05 53.0 42.55 57.35 37.75 61.9 32.1 65.6 L-2.25 65.6 3.0 60.85 8.35 55.05 Q15.55 46.55 20.45 36.5 L21.4 34.5 Q26.35 24.1 29.1 12.9 L29.65 10.65 Q32.9 -2.9 33.4 -16.8 L33.4 -17.2 M-31.65 -38.5 Q-32.65 -38.5 -33.4 -37.75 -34.15 -37.0 -34.15 -35.95 -34.15 -34.9 -33.4 -34.2 -32.65 -33.5 -31.65 -33.45 -30.6 -33.45 -29.85 -34.2 -29.15 -34.95 -29.1 -35.95 -29.15 -37.0 -29.85 -37.75 -30.6 -38.5 -31.65 -38.5 M-12.75 -35.95 L-12.7 -35.95 Q-13.45 -36.7 -14.5 -36.7 L-15.65 -36.4 -16.25 -35.95 Q-17.0 -35.25 -17.0 -34.2 -17.0 -33.15 -16.25 -32.4 L-16.25 -32.45 -15.65 -32.0 -14.5 -31.7 Q-13.45 -31.7 -12.75 -32.4 L-12.7 -32.45 Q-12.0 -33.15 -12.0 -34.2 -12.0 -35.25 -12.75 -35.95" fill="#ffffff" fill-rule="evenodd" stroke="none"/>
  </g>
</svg>
