<?xml version="1.0" encoding="UTF-8" standalone="no"?>
<svg xmlns:ffdec="https://www.free-decompiler.com/flash" xmlns:xlink="http://www.w3.org/1999/xlink" ffdec:objectType="shape" height="134.2px" width="104.8px" xmlns="http://www.w3.org/2000/svg">
  <g transform="matrix(1.0, 0.0, 0.0, 1.0, 56.0, 67.1)">
    <path d="M-14.9 53.6 L-11.95 57.3 -11.45 57.6 -10.9 57.5 -10.5 57.1 40.1 -55.2 40.1 -55.85 39.65 -56.3 36.9 -57.55 46.2 -64.6 47.0 -53.15 44.25 -54.3 43.6 -54.35 43.15 -53.9 -9.95 64.75 -12.0 62.55 -12.0 62.6 -15.75 57.95 -14.9 53.6" fill="#e61515" fill-rule="evenodd" stroke="none"/>
    <path d="M-51.5 8.0 L-51.45 8.05 -14.9 53.6 -15.75 57.95 -54.45 10.2 -51.5 8.0" fill="url(#gradient0)" fill-rule="evenodd" stroke="none"/>
    <path d="M-51.5 8.0 L-51.65 7.4 -51.3 6.85 Q-51.05 6.6 -50.7 6.65 -50.35 6.7 -50.1 7.0 L-11.5 55.15 38.2 -55.1 34.9 -56.6 34.5 -57.0 34.45 -57.6 34.75 -58.05 46.45 -66.9 47.0 -67.1 47.55 -66.85 47.8 -66.3 48.8 -51.9 48.65 -51.35 48.2 -51.0 47.65 -51.05 44.35 -52.45 -8.9 66.6 -9.3 67.0 -9.8 67.1 -10.3 66.85 -13.25 63.7 -13.3 63.65 -55.8 11.25 -56.0 10.65 -55.65 10.05 Q-55.4 9.8 -55.05 9.85 -54.7 9.9 -54.5 10.2 L-54.45 10.2 -15.75 57.95 -12.0 62.6 -12.0 62.55 -9.95 64.75 43.15 -53.9 43.6 -54.35 44.25 -54.3 47.0 -53.15 46.2 -64.6 36.9 -57.55 39.65 -56.3 40.1 -55.85 40.1 -55.2 -10.5 57.1 -10.9 57.5 -11.45 57.6 -11.95 57.3 -14.9 53.6 -51.45 8.05 -51.5 8.0" fill="url(#gradient1)" fill-rule="evenodd" stroke="none"/>
  </g>
  <defs>
    <linearGradient gradientTransform="matrix(0.0133, 0.0153, -0.0199, 0.0173, -41.4, 26.75)" gradientUnits="userSpaceOnUse" id="gradient0" spreadMethod="pad" x1="-819.2" x2="819.2">
      <stop offset="0.0" stop-color="#e61515" stop-opacity="0.0"/>
      <stop offset="0.36470588235294116" stop-color="#e61515"/>
    </linearGradient>
    <linearGradient gradientTransform="matrix(0.0273, 0.0135, -0.036, 0.073, -9.25, -4.4)" gradientUnits="userSpaceOnUse" id="gradient1" spreadMethod="pad" x1="-819.2" x2="819.2">
      <stop offset="0.0" stop-color="#990000" stop-opacity="0.0"/>
      <stop offset="0.36470588235294116" stop-color="#990000"/>
    </linearGradient>
  </defs>
</svg>
