<?xml version="1.0" encoding="UTF-8" standalone="no"?>
<svg xmlns:ffdec="https://www.free-decompiler.com/flash" xmlns:xlink="http://www.w3.org/1999/xlink" ffdec:objectType="shape" height="64.95px" width="71.25px" xmlns="http://www.w3.org/2000/svg">
  <g transform="matrix(1.0, 0.0, 0.0, 1.0, 58.9, -6.4)">
    <path d="M6.15 43.45 L6.65 43.65 -6.1 71.35 -21.25 64.35 -21.0 63.85 -21.1 63.9 -29.95 52.55 -27.95 51.0 -35.15 42.7 -34.55 42.15 -43.45 31.85 -43.05 31.45 -58.9 12.25 -45.15 6.4 -32.25 23.4 -32.7 23.75 -23.85 33.95 -24.5 34.5 -15.55 44.8 -17.6 46.55 -14.7 50.25 -8.8 37.35 -9.3 37.1 -2.8 23.0 12.35 29.95 6.15 43.45" fill="#ff0000" fill-rule="evenodd" stroke="none"/>
  </g>
</svg>
