<?xml version="1.0" encoding="UTF-8" standalone="no"?>
<svg xmlns:ffdec="https://www.free-decompiler.com/flash" xmlns:xlink="http://www.w3.org/1999/xlink" ffdec:objectType="shape" height="57.9px" width="41.35px" xmlns="http://www.w3.org/2000/svg">
  <g transform="matrix(1.0, 0.0, 0.0, 1.0, 20.65, 28.95)">
    <path d="M11.4 24.0 Q7.25 20.85 2.85 15.45 -5.35 13.45 -4.85 11.6 L-0.15 9.2 -3.0 5.0 -6.3 -0.65 Q-6.8 -0.45 -8.6 -1.25 -12.0 -2.85 -10.25 -3.35 L-8.65 -4.65 Q-10.15 -6.85 -10.55 -8.7 L-11.75 -10.2 -16.55 -9.6 Q-20.3 -9.3 -20.05 -11.35 L-16.25 -14.65 Q-13.55 -18.3 -12.7 -21.35 L-11.4 -26.25 -11.15 -27.0 -10.55 -27.95 Q-10.1 -28.6 -9.8 -28.2 L-9.05 -27.0 Q-8.05 -24.95 -8.05 -21.7 L-8.15 -17.7 Q-8.2 -15.15 -7.9 -13.05 L-5.15 -9.55 -2.6 -10.85 Q-0.05 -11.95 0.3 -11.55 1.2 -10.4 1.3 -7.25 1.45 -4.05 2.05 -3.25 3.45 -1.5 6.65 -3.3 L8.85 -4.5 Q10.0 -4.9 10.55 -4.15 11.05 -3.5 11.05 -0.15 L10.85 3.7 Q10.35 6.15 11.6 8.15 L14.3 11.75 Q16.9 15.85 18.55 20.65 L19.45 24.65 20.1 28.25 Q19.3 28.75 16.1 27.05 L13.8 25.7 11.55 24.15 11.15 24.05 11.4 24.0" fill="#999999" fill-rule="evenodd" stroke="none"/>
    <path d="M11.55 24.15 L13.8 25.7 16.1 27.05 Q19.3 28.75 20.1 28.25 L19.45 24.65 18.55 20.65 Q16.9 15.85 14.3 11.75 L11.6 8.15 Q10.35 6.15 10.85 3.7 L11.05 -0.15 Q11.05 -3.5 10.55 -4.15 10.0 -4.9 8.85 -4.5 L6.65 -3.3 Q3.45 -1.5 2.05 -3.25 1.45 -4.05 1.3 -7.25 1.2 -10.4 0.3 -11.55 -0.05 -11.95 -2.6 -10.85 L-5.15 -9.55 -7.9 -13.05 Q-8.2 -15.15 -8.15 -17.7 L-8.05 -21.7 Q-8.05 -24.95 -9.05 -27.0 L-9.8 -28.2 Q-10.1 -28.6 -10.55 -27.95 L-11.15 -27.0 -11.4 -26.25 -12.7 -21.35 Q-13.55 -18.3 -16.25 -14.65 L-20.05 -11.35 Q-20.3 -9.3 -16.55 -9.6 L-11.75 -10.2 -10.55 -8.7 Q-10.15 -6.85 -8.65 -4.65 L-10.25 -3.35 Q-12.0 -2.85 -8.6 -1.25 -6.8 -0.45 -6.3 -0.65 L-3.0 5.0 -0.15 9.2 -4.85 11.6 Q-5.35 13.45 2.85 15.45 7.25 20.85 11.4 24.0" fill="none" stroke="#515151" stroke-linecap="round" stroke-linejoin="round" stroke-width="1.2000000000000002"/>
    <path d="M16.7 21.95 L15.95 22.25 Q15.55 22.25 15.25 21.95 14.95 21.65 15.0 21.2 14.95 20.75 15.25 20.45 15.55 20.15 15.95 20.15 L16.7 20.45 17.0 21.2 16.7 21.95" fill="#515151" fill-rule="evenodd" stroke="none"/>
  </g>
</svg>
