<?xml version="1.0" encoding="UTF-8" standalone="no"?>
<svg xmlns:ffdec="https://www.free-decompiler.com/flash" xmlns:xlink="http://www.w3.org/1999/xlink" ffdec:objectType="shape" height="108.95px" width="654.4px" xmlns="http://www.w3.org/2000/svg">
  <g transform="matrix(1.0, 0.0, 0.0, 1.0, 329.45, -95.5)">
    <path d="M120.1 134.0 L323.95 134.0 323.95 202.95 120.1 202.95 120.1 134.0" fill="#ffffff" fill-rule="evenodd" stroke="none"/>
    <path d="M120.1 134.0 L120.1 97.0 323.95 97.0 323.95 134.0 120.1 134.0 M-327.95 97.0 L103.0 97.0 103.0 202.95 -327.95 202.95 -327.95 97.0" fill="#3d2930" fill-rule="evenodd" stroke="none"/>
    <path d="M323.95 134.0 L323.95 97.0 120.1 97.0 120.1 134.0 323.95 134.0 323.95 202.95 120.1 202.95 120.1 134.0 M-327.95 97.0 L103.0 97.0 103.0 202.95 -327.95 202.95" fill="none" stroke="#3d2930" stroke-linecap="round" stroke-linejoin="round" stroke-width="2.0"/>
    <path d="M-327.95 202.95 L-327.95 97.0" fill="none" stroke="#3d2930" stroke-linecap="round" stroke-linejoin="round" stroke-width="3.0"/>
  </g>
</svg>
