<?xml version="1.0" encoding="UTF-8" standalone="no"?>
<svg xmlns:ffdec="https://www.free-decompiler.com/flash" xmlns:xlink="http://www.w3.org/1999/xlink" ffdec:objectType="shape" height="60.05px" width="4.6px" xmlns="http://www.w3.org/2000/svg">
  <g transform="matrix(1.0, 0.0, 0.0, 1.0, 314.55, -68.05)">
    <path d="M-310.65 68.7 Q-310.0 69.35 -309.95 70.35 -310.0 71.25 -310.65 71.95 -311.3 72.6 -312.25 72.6 -313.2 72.6 -313.85 71.95 -314.55 71.25 -314.55 70.35 -314.55 69.35 -313.85 68.7 -313.2 68.05 -312.25 68.05 -311.3 68.05 -310.65 68.7 M-313.85 96.95 Q-313.2 96.3 -312.25 96.3 -311.3 96.3 -310.65 96.95 -310.0 97.6 -309.95 98.6 -310.0 99.55 -310.65 100.2 -311.3 100.85 -312.25 100.85 -313.2 100.85 -313.85 100.2 -314.55 99.55 -314.55 98.6 -314.55 97.6 -313.85 96.95 M-313.85 124.2 Q-313.2 123.55 -312.25 123.55 -311.3 123.55 -310.65 124.2 L-310.3 124.6 Q-310.0 125.15 -309.95 125.85 -310.0 126.8 -310.65 127.45 -311.3 128.1 -312.25 128.1 -313.2 128.1 -313.85 127.45 -314.55 126.8 -314.55 125.85 -314.55 125.15 -314.2 124.6 L-313.85 124.2" fill="#ffcc33" fill-rule="evenodd" stroke="none"/>
  </g>
</svg>
