<?xml version="1.0" encoding="UTF-8" standalone="no"?>
<svg xmlns:ffdec="https://www.free-decompiler.com/flash" xmlns:xlink="http://www.w3.org/1999/xlink" ffdec:objectType="shape" height="30.4px" width="54.7px" xmlns="http://www.w3.org/2000/svg">
  <g transform="matrix(1.0, 0.0, 0.0, 1.0, 27.35, 15.2)">
    <path d="M1.55 -14.2 L26.35 0.3 1.55 14.2 1.55 8.55 1.25 7.8 Q0.9 7.45 0.45 7.45 L-26.35 7.45 -26.35 -6.8 0.45 -6.8 Q0.9 -6.8 1.25 -7.1 L1.55 -7.9 1.55 -14.2" fill="#e61515" fill-rule="evenodd" stroke="none"/>
    <path d="M1.55 -14.2 L26.35 0.3 1.55 14.2 1.55 8.55 1.25 7.8 Q0.9 7.45 0.45 7.45 L-26.35 7.45 -26.35 -6.8 0.45 -6.8 Q0.9 -6.8 1.25 -7.1 L1.55 -7.9 1.55 -14.2 Z" fill="none" stroke="#8f0101" stroke-linecap="round" stroke-linejoin="round" stroke-width="2.0"/>
  </g>
</svg>
