<?xml version="1.0" encoding="UTF-8" standalone="no"?>
<svg xmlns:ffdec="https://www.free-decompiler.com/flash" xmlns:xlink="http://www.w3.org/1999/xlink" ffdec:objectType="shape" height="71.35px" width="71.35px" xmlns="http://www.w3.org/2000/svg">
  <g transform="matrix(1.0, 0.0, 0.0, 1.0, 78.1, 49.0)">
    <path d="M-67.1 -46.0 L-17.75 -46.0 Q-12.55 -46.0 -10.75 -42.65 -9.75 -40.8 -9.75 -38.0 L-9.75 11.35 -9.95 13.7 Q-10.55 16.75 -12.75 18.2 -14.65 19.35 -17.75 19.35 L-67.1 19.35 -70.7 18.8 Q-72.85 18.05 -73.9 16.35 -75.1 14.4 -75.1 11.35 L-75.1 -38.0 Q-75.1 -43.45 -71.4 -45.15 -69.65 -46.0 -67.1 -46.0 M-27.55 -41.3 L-22.25 -41.3 Q-20.65 -41.3 -19.7 -40.65 -20.65 -41.3 -22.25 -41.3 L-27.55 -41.3 M-19.35 -40.35 Q-18.35 -39.4 -18.35 -37.45 L-18.35 4.25 -18.35 -37.45 Q-18.35 -39.4 -19.35 -40.35" fill="#404040" fill-rule="evenodd" stroke="none"/>
    <path d="M-67.1 -46.0 L-17.75 -46.0 Q-12.55 -46.0 -10.75 -42.65 -9.75 -40.8 -9.75 -38.0 L-9.75 11.35 -9.95 13.7 Q-10.55 16.75 -12.75 18.2 -14.65 19.35 -17.75 19.35 L-67.1 19.35 -70.7 18.8 Q-72.85 18.05 -73.9 16.35 -75.1 14.4 -75.1 11.35 L-75.1 -38.0 Q-75.1 -43.45 -71.4 -45.15 -69.65 -46.0 -67.1 -46.0" fill="none" stroke="#404040" stroke-linecap="round" stroke-linejoin="round" stroke-width="6.0"/>
    <path d="M-18.35 4.25 L-18.35 -37.45 Q-18.35 -39.4 -19.35 -40.35 M-19.7 -40.65 Q-20.65 -41.3 -22.25 -41.3 L-27.55 -41.3" fill="none" stroke="#404040" stroke-linecap="round" stroke-linejoin="round" stroke-width="8.0"/>
    <path d="M-12.75 18.2 Q-14.65 19.35 -17.75 19.35 L-67.1 19.35 -70.7 18.8 -61.05 7.0 -60.4 7.0 -21.4 7.0 -20.3 6.9 -12.75 18.2" fill="#b2b2ae" fill-rule="evenodd" stroke="none"/>
    <path d="M-70.7 18.8 Q-72.85 18.05 -73.9 16.35 L-64.0 5.1 Q-63.25 6.75 -61.05 7.0 L-70.7 18.8" fill="#d0d0d2" fill-rule="evenodd" stroke="none"/>
    <path d="M-9.95 13.7 Q-10.55 16.75 -12.75 18.2 L-20.3 6.9 Q-18.35 6.55 -17.7 4.95 L-9.95 13.7" fill="#cdcdd0" fill-rule="evenodd" stroke="none"/>
    <path d="M-64.0 5.1 Q-64.4 4.25 -64.4 3.0 L-64.4 -39.0 Q-64.4 -40.8 -63.6 -41.75 -62.6 -43.0 -60.4 -43.0 L-21.4 -43.0 Q-19.75 -43.0 -18.75 -42.3 L-18.4 -42.0 Q-17.4 -41.0 -17.4 -39.0 L-17.4 3.0 Q-17.4 4.1 -17.7 4.95 -18.35 6.55 -20.3 6.9 L-21.4 7.0 -60.4 7.0 -61.05 7.0 Q-63.25 6.75 -64.0 5.1 M-27.55 -41.3 L-22.25 -41.3 Q-20.65 -41.3 -19.7 -40.65 -18.35 -39.4 -18.35 -37.45 L-18.35 4.25 -18.35 -37.45 Q-18.35 -39.4 -19.7 -40.65 -20.65 -41.3 -22.25 -41.3 L-27.55 -41.3" fill="#d0d0d0" fill-rule="evenodd" stroke="none"/>
    <path d="M-73.9 16.35 Q-75.1 14.4 -75.1 11.35 L-75.1 -38.0 Q-75.1 -43.45 -71.4 -45.15 L-63.6 -41.75 Q-64.4 -40.8 -64.4 -39.0 L-64.4 3.0 Q-64.4 4.25 -64.0 5.1 L-73.9 16.35" fill="#ffffff" fill-rule="evenodd" stroke="none"/>
    <path d="M-71.4 -45.15 Q-69.65 -46.0 -67.1 -46.0 L-17.75 -46.0 Q-12.55 -46.0 -10.75 -42.65 L-18.4 -42.0 -18.75 -42.3 Q-19.75 -43.0 -21.4 -43.0 L-60.4 -43.0 Q-62.6 -43.0 -63.6 -41.75 L-71.4 -45.15" fill="#dddddd" fill-rule="evenodd" stroke="none"/>
    <path d="M-10.75 -42.65 Q-9.75 -40.8 -9.75 -38.0 L-9.75 11.35 -9.95 13.7 -17.7 4.95 Q-17.4 4.1 -17.4 3.0 L-17.4 -39.0 Q-17.4 -41.0 -18.4 -42.0 L-10.75 -42.65" fill="#dcddde" fill-rule="evenodd" stroke="none"/>
    <path d="M-18.35 4.25 L-18.35 -37.45 Q-18.35 -39.4 -19.7 -40.65 -20.65 -41.3 -22.25 -41.3 L-27.55 -41.3" fill="none" stroke="#ffffff" stroke-linecap="round" stroke-linejoin="round" stroke-width="3.0"/>
    <path d="M-59.1 -13.35 L-54.4 -13.35 -54.4 -28.2 -52.25 -28.2 -52.25 -13.35 -47.2 -13.35 -53.35 -5.8 -59.1 -13.35" fill="#404040" fill-rule="evenodd" stroke="none"/>
  </g>
</svg>
