<?xml version="1.0" encoding="UTF-8" standalone="no"?>
<svg xmlns:ffdec="https://www.free-decompiler.com/flash" xmlns:xlink="http://www.w3.org/1999/xlink" ffdec:objectType="shape" height="151.1px" width="187.9px" xmlns="http://www.w3.org/2000/svg">
  <g transform="matrix(1.0, 0.0, 0.0, 1.0, 93.95, 75.55)">
    <path d="M46.05 -74.45 L46.2 -74.4 53.4 -73.7 Q65.1 -72.3 71.55 -69.55 L71.65 -69.5 Q74.4 -68.2 76.8 -66.6 L79.35 -64.8 82.35 -62.15 82.45 -62.0 82.9 -61.6 83.0 -61.45 87.4 -55.95 Q90.7 -50.95 92.65 -45.1 L93.95 -40.3 93.95 -40.05 93.95 -39.85 93.95 -39.65 93.9 -39.45 93.45 -38.6 85.05 -30.5 85.15 -27.5 85.15 -26.5 85.3 -26.5 Q85.3 -14.2 84.35 -1.95 83.25 11.6 79.4 24.75 75.4 38.3 68.1 50.3 60.85 62.25 49.3 70.35 44.65 73.65 39.25 75.45 L-67.9 75.45 -71.75 75.55 -71.85 75.55 -72.0 75.55 -72.35 75.5 -72.4 75.5 -72.45 75.5 -74.7 75.35 Q-82.4 74.1 -87.95 65.3 L-88.0 65.25 Q-93.95 55.85 -93.95 42.85 -94.0 29.75 -87.95 20.75 L-87.85 20.65 -85.2 16.9 Q-85.55 8.5 -83.8 1.45 L-70.45 -12.55 Q-59.45 -23.55 -45.2 -36.1 -10.1 -63.25 21.55 -75.55 L37.9 -75.0 46.05 -74.45 M48.15 -69.35 L46.2 -69.45 36.75 -70.1 30.6 -70.55 25.05 -70.9 18.7 -68.95 Q12.5 -66.85 6.1 -63.95 -9.6 -56.85 -26.55 -45.1 L-32.9 -40.6 -24.6 -45.1 Q0.25 -58.4 15.55 -63.5 19.15 -64.75 22.25 -65.45 24.75 -64.5 26.95 -62.9 33.9 -57.65 37.4 -45.75 L88.3 -41.3 87.0 -45.1 Q85.1 -50.0 82.1 -54.35 L80.0 -57.05 Q77.2 -60.4 73.65 -62.95 L71.05 -64.7 68.25 -65.75 Q60.35 -68.45 48.15 -69.35 M38.35 -13.55 L38.3 -12.55 Q37.2 2.15 33.35 16.15 L32.2 19.95 Q27.2 36.3 17.5 50.75 9.5 62.55 -1.4 70.25 L41.8 70.25 Q46.3 68.1 50.4 65.1 53.25 62.95 55.85 60.4 L55.7 60.4 55.95 60.3 Q64.2 50.2 66.3 46.6 L70.4 38.55 70.7 37.85 72.1 34.35 Q76.2 23.4 77.6 16.7 L78.3 13.65 Q79.15 10.25 80.05 4.4 80.9 -1.5 81.3 -10.8 L81.5 -29.55 39.0 -32.25 38.7 -19.15 38.35 -13.55 M-57.75 15.85 Q-54.95 17.45 -52.45 20.6 L-50.95 22.7 -41.3 16.15 -27.45 6.85 Q-28.85 3.05 -29.0 -4.35 L-57.75 15.85 M-33.25 21.25 L-33.35 21.35 -33.4 21.25 -40.45 25.55 -39.8 29.55 -30.2 24.8 -31.5 23.7 -32.2 22.9 -33.25 21.25" fill="#000000" fill-rule="evenodd" stroke="none"/>
    <path d="M48.15 -69.35 Q60.35 -68.45 68.25 -65.75 L71.05 -64.7 73.65 -62.95 Q77.2 -60.4 80.0 -57.05 L82.1 -54.35 Q85.1 -50.0 87.0 -45.1 L88.3 -41.3 37.4 -45.75 Q33.9 -57.65 26.95 -62.9 24.75 -64.5 22.25 -65.45 19.15 -64.75 15.55 -63.5 0.25 -58.4 -24.6 -45.1 L-32.9 -40.6 -26.55 -45.1 Q-9.6 -56.85 6.1 -63.95 12.5 -66.85 18.7 -68.95 L25.05 -70.9 30.6 -70.55 36.75 -70.1 46.2 -69.45 48.15 -69.35 M38.35 -13.55 L38.7 -19.15 39.0 -32.25 81.5 -29.55 81.3 -10.8 Q80.9 -1.5 80.05 4.4 79.15 10.25 78.3 13.65 L77.6 16.7 Q76.2 23.4 72.1 34.35 L70.7 37.85 70.4 38.55 66.3 46.6 Q64.2 50.2 55.95 60.3 L55.7 60.4 55.85 60.4 Q53.25 62.95 50.4 65.1 46.3 68.1 41.8 70.25 L-1.4 70.25 Q9.5 62.55 17.5 50.75 27.2 36.3 32.2 19.95 L33.35 16.15 Q37.2 2.15 38.3 -12.55 L38.35 -13.55 M-33.25 21.25 L-32.2 22.9 -31.5 23.7 -30.2 24.8 -39.8 29.55 -40.45 25.55 -33.4 21.25 -33.35 21.35 -33.25 21.25 M-57.75 15.85 L-29.0 -4.35 Q-28.85 3.05 -27.45 6.85 L-41.3 16.15 -50.95 22.7 -52.45 20.6 Q-54.95 17.45 -57.75 15.85" fill="#ffffff" fill-rule="evenodd" stroke="none"/>
  </g>
</svg>
