<?xml version="1.0" encoding="UTF-8" standalone="no"?>
<svg xmlns:ffdec="https://www.free-decompiler.com/flash" xmlns:xlink="http://www.w3.org/1999/xlink" ffdec:objectType="shape" height="71.85px" width="97.05px" xmlns="http://www.w3.org/2000/svg">
  <g transform="matrix(1.0, 0.0, 0.0, 1.0, 103.55, 49.25)">
    <path d="M-96.6 -45.15 Q-94.85 -46.0 -92.3 -46.0 L-33.85 -46.0 -17.75 -46.0 Q-12.55 -46.0 -10.75 -42.65 L-18.4 -42.0 -18.75 -42.3 Q-19.75 -43.0 -21.4 -43.0 L-33.85 -43.0 -33.85 -44.45 -33.85 -46.0 -38.6 -45.4 Q-46.7 -46.25 -59.05 -43.0 L-85.6 -43.0 Q-87.8 -43.0 -88.8 -41.75 L-96.6 -45.15" fill="#a7a7a6" fill-rule="evenodd" stroke="none"/>
    <path d="M-99.1 16.35 Q-100.3 14.4 -100.3 11.35 L-100.3 -38.0 Q-100.3 -43.45 -96.6 -45.15 L-88.8 -41.75 Q-89.6 -40.8 -89.6 -39.0 L-89.6 3.0 Q-89.6 4.25 -89.2 5.1 L-99.1 16.35" fill="#f6f5fa" fill-rule="evenodd" stroke="none"/>
    <path d="M-89.2 5.1 Q-89.6 4.25 -89.6 3.0 L-89.6 -39.0 Q-89.6 -40.8 -88.8 -41.75 -87.8 -43.0 -85.6 -43.0 L-59.05 -43.0 Q-46.7 -46.25 -38.6 -45.4 L-33.85 -44.45 -33.85 -43.0 -21.4 -43.0 Q-19.75 -43.0 -18.75 -42.3 L-18.4 -42.0 Q-17.4 -41.0 -17.4 -39.0 L-17.4 3.0 Q-17.4 4.1 -17.7 4.95 -18.35 6.55 -20.3 6.9 L-21.4 7.0 -85.6 7.0 -86.25 7.0 Q-88.45 6.75 -89.2 5.1" fill="#d0d0d0" fill-rule="evenodd" stroke="none"/>
    <path d="M-10.75 -42.65 Q-9.75 -40.8 -9.75 -38.0 L-9.75 11.35 -9.95 13.7 -17.7 4.95 Q-17.4 4.1 -17.4 3.0 L-17.4 -39.0 Q-17.4 -41.0 -18.4 -42.0 L-10.75 -42.65" fill="#dadbdb" fill-rule="evenodd" stroke="none"/>
    <path d="M-9.95 13.7 Q-10.55 16.75 -12.75 18.2 L-20.3 6.9 Q-18.35 6.55 -17.7 4.95 L-9.95 13.7" fill="#cdcdd0" fill-rule="evenodd" stroke="none"/>
    <path d="M-12.75 18.2 Q-14.65 19.35 -17.75 19.35 L-92.3 19.35 -95.9 18.8 -86.25 7.0 -85.6 7.0 -21.4 7.0 -20.3 6.9 -12.75 18.2" fill="#b2b2ae" fill-rule="evenodd" stroke="none"/>
    <path d="M-95.9 18.8 Q-98.05 18.05 -99.1 16.35 L-89.2 5.1 Q-88.45 6.75 -86.25 7.0 L-95.9 18.8" fill="#d0d0d2" fill-rule="evenodd" stroke="none"/>
    <path d="M-99.1 16.35 Q-100.3 14.4 -100.3 11.35 L-100.3 -38.0 Q-100.3 -43.45 -96.6 -45.15 -94.85 -46.0 -92.3 -46.0 L-33.85 -46.0 -17.75 -46.0 Q-12.55 -46.0 -10.75 -42.65 -9.75 -40.8 -9.75 -38.0 L-9.75 11.35 -9.95 13.7 Q-10.55 16.75 -12.75 18.2 -14.65 19.35 -17.75 19.35 L-92.3 19.35 -95.9 18.8 Q-98.05 18.05 -99.1 16.35 Z" fill="none" stroke="#404040" stroke-linecap="round" stroke-linejoin="round" stroke-width="6.5"/>
    <path d="M-12.75 18.2 Q-14.65 19.35 -17.75 19.35 L-92.3 19.35 -95.9 18.8 -86.25 7.0 -85.6 7.0 -21.4 7.0 -20.3 6.9 -12.75 18.2" fill="#b2b2ae" fill-rule="evenodd" stroke="none"/>
    <path d="M-99.1 16.35 L-89.2 5.1 Q-88.45 6.75 -86.25 7.0 L-95.9 18.8 Q-98.05 18.05 -99.1 16.35" fill="#d0d0d2" fill-rule="evenodd" stroke="none"/>
    <path d="M-9.95 13.7 Q-10.55 16.75 -12.75 18.2 L-20.3 6.9 Q-18.35 6.55 -17.7 4.95 L-9.95 13.7" fill="#cdcdd0" fill-rule="evenodd" stroke="none"/>
    <path d="M-88.8 -41.75 Q-87.8 -43.0 -85.6 -43.0 L-21.4 -43.0 Q-19.75 -43.0 -18.75 -42.3 L-18.4 -42.0 Q-17.4 -41.0 -17.4 -39.0 L-17.4 3.0 Q-17.4 4.1 -17.7 4.95 -18.35 6.55 -20.3 6.9 L-21.4 7.0 -85.6 7.0 -86.25 7.0 Q-88.45 6.75 -89.2 5.1 -89.6 4.25 -89.6 3.0 L-89.6 -39.0 Q-89.6 -40.8 -88.8 -41.75 M-27.55 -41.3 L-22.25 -41.3 Q-20.65 -41.3 -19.7 -40.65 -18.35 -39.4 -18.35 -37.45 L-18.35 4.25 -18.35 -37.45 Q-18.35 -39.4 -19.7 -40.65 -20.65 -41.3 -22.25 -41.3 L-27.55 -41.3" fill="#d0d0d0" fill-rule="evenodd" stroke="none"/>
    <path d="M-96.6 -45.15 L-88.8 -41.75 Q-89.6 -40.8 -89.6 -39.0 L-89.6 3.0 Q-89.6 4.25 -89.2 5.1 L-99.1 16.35 Q-100.3 14.4 -100.3 11.35 L-100.3 -38.0 Q-100.3 -43.45 -96.6 -45.15" fill="#ffffff" fill-rule="evenodd" stroke="none"/>
    <path d="M-88.8 -41.75 L-96.6 -45.15 Q-94.85 -46.0 -92.3 -46.0 L-17.75 -46.0 Q-12.55 -46.0 -10.75 -42.65 L-18.4 -42.0 -18.75 -42.3 Q-19.75 -43.0 -21.4 -43.0 L-85.6 -43.0 Q-87.8 -43.0 -88.8 -41.75" fill="#dddddd" fill-rule="evenodd" stroke="none"/>
    <path d="M-18.4 -42.0 L-10.75 -42.65 Q-9.75 -40.8 -9.75 -38.0 L-9.75 11.35 -9.95 13.7 -17.7 4.95 Q-17.4 4.1 -17.4 3.0 L-17.4 -39.0 Q-17.4 -41.0 -18.4 -42.0" fill="#dcddde" fill-rule="evenodd" stroke="none"/>
    <path d="M-18.35 4.25 L-18.35 -37.45 Q-18.35 -39.4 -19.7 -40.65 -20.65 -41.3 -22.25 -41.3 L-27.55 -41.3" fill="none" stroke="#ffffff" stroke-linecap="round" stroke-linejoin="round" stroke-width="3.0"/>
  </g>
</svg>
