<?xml version="1.0" encoding="UTF-8" standalone="no"?>
<svg xmlns:ffdec="https://www.free-decompiler.com/flash" xmlns:xlink="http://www.w3.org/1999/xlink" ffdec:objectType="shape" height="113.3px" width="182.15px" xmlns="http://www.w3.org/2000/svg">
  <g transform="matrix(1.0, 0.0, 0.0, 1.0, 93.95, 37.75)">
    <path d="M88.2 -33.55 L85.05 -30.5 85.15 -27.5 85.15 -26.5 85.3 -26.5 Q85.3 -14.2 84.35 -1.95 83.25 11.6 79.4 24.75 75.4 38.3 68.1 50.3 60.85 62.25 49.3 70.35 44.65 73.65 39.25 75.45 L-67.9 75.45 -71.75 75.55 -71.85 75.55 -72.0 75.55 -72.35 75.5 -72.4 75.5 -72.45 75.5 -74.7 75.35 Q-82.4 74.1 -87.95 65.3 L-88.0 65.25 Q-93.95 55.85 -93.95 42.85 -94.0 29.75 -87.95 20.75 L-87.85 20.65 -85.2 16.9 Q-85.55 8.5 -83.8 1.45 L-70.45 -12.55 Q-60.6 -22.4 -48.1 -33.55 22.15 -41.9 88.2 -33.55" fill="#ff0000" fill-opacity="0.47058824" fill-rule="evenodd" stroke="none"/>
  </g>
</svg>
