<?xml version="1.0" encoding="UTF-8" standalone="no"?>
<svg xmlns:ffdec="https://www.free-decompiler.com/flash" xmlns:xlink="http://www.w3.org/1999/xlink" ffdec:objectType="shape" height="68.4px" width="47.95px" xmlns="http://www.w3.org/2000/svg">
  <g transform="matrix(1.0, 0.0, 0.0, 1.0, 43.15, -76.45)">
    <path d="M-32.25 134.4 L-32.2 134.4 Q-29.2 132.85 -24.8 132.85 -20.45 132.85 -17.4 134.4 -13.95 136.2 -14.05 138.85 -13.95 141.45 -17.4 143.2 -20.45 144.85 -24.8 144.85 -29.2 144.85 -32.25 143.2 L-32.2 143.2 Q-35.7 141.45 -35.6 138.85 -35.7 136.2 -32.25 134.4" fill="#000000" fill-rule="evenodd" stroke="none"/>
    <path d="M-20.95 144.45 L-24.8 144.85 Q-28.05 144.85 -30.55 143.95 L-29.55 138.1 -29.5 138.05 -29.5 137.9 -29.35 137.3 -29.35 137.25 -29.3 137.2 -29.3 137.05 -26.9 122.3 -21.05 122.3 -20.45 122.05 Q-20.2 121.8 -20.2 121.45 L-19.3 121.45 -19.05 122.05 -18.45 122.3 -17.3 122.3 -19.2 133.65 -19.55 135.85 -19.55 136.05 -20.4 141.15 -20.4 141.2 -20.5 141.85 -20.95 144.45" fill="url(#gradient0)" fill-rule="evenodd" stroke="none"/>
    <path d="M-19.3 121.45 L-19.05 120.85 -18.45 120.6 -15.85 120.6 Q-15.5 120.6 -15.25 120.85 L-15.0 121.45 -15.25 122.05 -15.6 122.25 -17.55 134.35 -18.1 137.6 -18.15 137.95 -18.25 138.7 -18.4 139.5 -18.4 139.7 -18.8 142.1 -19.1 143.95 -20.95 144.45 -20.5 141.85 -20.4 141.2 -20.4 141.15 -19.55 136.05 -19.55 135.85 -19.2 133.65 -17.3 122.3 -18.45 122.3 -19.05 122.05 -19.3 121.45 M-30.55 143.95 L-32.15 143.25 -31.2 137.85 -31.2 137.7 -31.05 136.95 -31.05 136.9 -31.0 136.85 -31.0 136.75 -31.0 136.7 -30.95 136.65 -28.6 122.15 -28.7 122.05 -28.95 121.45 -28.7 120.85 Q-28.45 120.6 -28.1 120.6 L-21.05 120.6 Q-20.7 120.6 -20.45 120.85 -20.2 121.1 -20.2 121.45 -20.2 121.8 -20.45 122.05 L-21.05 122.3 -26.9 122.3 -29.3 137.05 -29.3 137.2 -29.35 137.25 -29.35 137.3 -29.5 137.9 -29.5 138.05 -29.55 138.1 -30.55 143.95" fill="#484848" fill-rule="evenodd" stroke="none"/>
    <path d="M-39.9 109.85 Q-41.9 105.5 -41.9 100.4 -41.9 90.95 -35.25 84.35 -28.6 77.65 -19.2 77.7 -9.8 77.65 -3.1 84.35 -1.25 86.2 0.1 88.3 L-39.9 109.85" fill="url(#gradient1)" fill-rule="evenodd" stroke="none"/>
    <path d="M0.1 88.3 Q3.55 93.6 3.55 100.4 3.55 109.8 -3.1 116.45 -9.8 123.1 -19.2 123.1 -28.6 123.1 -35.25 116.45 -38.25 113.4 -39.9 109.85 L0.1 88.3" fill="url(#gradient2)" fill-rule="evenodd" stroke="none"/>
    <path d="M0.1 88.3 Q3.55 93.6 3.55 100.4 3.55 109.8 -3.1 116.45 -9.8 123.1 -19.2 123.1 -28.6 123.1 -35.25 116.45 -38.25 113.4 -39.9 109.85 -41.9 105.5 -41.9 100.4 -41.9 90.95 -35.25 84.35 -28.6 77.65 -19.2 77.7 -9.8 77.65 -3.1 84.35 -1.25 86.2 0.1 88.3 Z" fill="none" stroke="#663300" stroke-linecap="round" stroke-linejoin="round" stroke-width="2.5"/>
    <path d="M-21.8 96.7 Q-18.05 94.1 -16.1 94.1 -14.0 94.1 -13.6 95.75 L-11.85 95.6 Q-10.6 95.6 -10.25 96.15 -10.1 96.35 -10.1 96.75 -10.1 97.75 -14.45 99.45 -15.0 100.75 -18.55 100.95 L-23.5 102.9 -24.4 102.6 Q-26.45 102.6 -26.35 100.95 L-26.0 100.2 -28.55 101.1 Q-29.8 101.1 -29.6 100.35 -29.6 99.15 -26.05 97.85 -23.65 96.95 -21.8 96.7" fill="#e61515" fill-rule="evenodd" stroke="none"/>
  </g>
  <defs>
    <linearGradient gradientTransform="matrix(0.0084, 0.0014, -0.0019, 0.0118, -24.3, 133.4)" gradientUnits="userSpaceOnUse" id="gradient0" spreadMethod="pad" x1="-819.2" x2="819.2">
      <stop offset="0.12549019607843137" stop-color="#d9d9d9"/>
      <stop offset="0.33725490196078434" stop-color="#a2a2a2"/>
      <stop offset="0.5333333333333333" stop-color="#a2a2a2"/>
      <stop offset="1.0" stop-color="#5e5e5e"/>
    </linearGradient>
    <radialGradient cx="0" cy="0" gradientTransform="matrix(0.0486, 0.0, 0.0, 0.0486, -33.6, 79.85)" gradientUnits="userSpaceOnUse" id="gradient1" r="819.2" spreadMethod="pad">
      <stop offset="0.12549019607843137" stop-color="#f18d8d"/>
      <stop offset="0.4117647058823529" stop-color="#e61515"/>
      <stop offset="0.7843137254901961" stop-color="#e61515"/>
      <stop offset="1.0" stop-color="#b80e0e"/>
    </radialGradient>
    <radialGradient cx="0" cy="0" gradientTransform="matrix(0.0361, -0.0061, 0.0061, 0.0361, -27.5, 89.0)" gradientUnits="userSpaceOnUse" id="gradient2" r="819.2" spreadMethod="pad">
      <stop offset="0.12549019607843137" stop-color="#f18d8d"/>
      <stop offset="0.4117647058823529" stop-color="#e61515"/>
      <stop offset="0.7843137254901961" stop-color="#e61515"/>
      <stop offset="1.0" stop-color="#b80e0e"/>
    </radialGradient>
  </defs>
</svg>
