<?xml version="1.0" encoding="UTF-8" standalone="no"?>
<svg xmlns:ffdec="https://www.free-decompiler.com/flash" xmlns:xlink="http://www.w3.org/1999/xlink" ffdec:objectType="shape" height="33.3px" width="148.1px" xmlns="http://www.w3.org/2000/svg">
  <g transform="matrix(1.0, 0.0, 0.0, 1.0, 75.55, -10.2)">
    <path d="M51.2 18.65 Q41.6 20.85 20.6 23.0 -0.45 25.15 -23.25 29.5 L-50.5 34.8 Q-54.95 35.75 -74.05 42.0 -64.15 36.3 -53.85 31.95 L-49.0 29.9 Q-40.1 25.9 -30.55 22.65 -21.9 19.65 -12.9 17.55 L-3.0 15.65 Q5.3 14.05 13.75 13.5 21.75 13.2 29.8 13.3 L47.35 14.3 55.6 14.0 Q63.3 13.65 71.05 11.7 60.8 16.4 51.2 18.65" fill="url(#gradient0)" fill-rule="evenodd" stroke="none"/>
    <path d="M51.2 18.65 Q41.6 20.85 20.6 23.0 -0.45 25.15 -23.25 29.5 L-50.5 34.8 Q-54.95 35.75 -74.05 42.0 -64.15 36.3 -53.85 31.95 L-49.0 29.9 Q-40.1 25.9 -30.55 22.65 -21.9 19.65 -12.9 17.55 L-3.0 15.65 Q5.3 14.05 13.75 13.5 21.75 13.2 29.8 13.3 L47.35 14.3 55.6 14.0 Q63.3 13.65 71.05 11.7 60.8 16.4 51.2 18.65 Z" fill="none" stroke="#3d2c21" stroke-linecap="round" stroke-linejoin="round" stroke-width="3.0"/>
  </g>
  <defs>
    <linearGradient gradientTransform="matrix(0.0886, 0.0, 0.0, 0.0185, -1.5, 26.85)" gradientUnits="userSpaceOnUse" id="gradient0" spreadMethod="pad" x1="-819.2" x2="819.2">
      <stop offset="0.0" stop-color="#8c6348"/>
      <stop offset="0.3607843137254902" stop-color="#b08864"/>
      <stop offset="0.6352941176470588" stop-color="#b08864"/>
      <stop offset="1.0" stop-color="#8c6348"/>
    </linearGradient>
  </defs>
</svg>
