<?xml version="1.0" encoding="UTF-8" standalone="no"?>
<svg xmlns:ffdec="https://www.free-decompiler.com/flash" xmlns:xlink="http://www.w3.org/1999/xlink" ffdec:objectType="shape" height="86.95px" width="58.15px" xmlns="http://www.w3.org/2000/svg">
  <g transform="matrix(1.0, 0.0, 0.0, 1.0, 29.0, 43.7)">
    <path d="M22.1 -30.95 Q29.95 -18.2 29.05 -0.2 28.1 17.85 18.9 30.6 9.75 43.3 -2.2 43.25 -14.2 43.25 -22.05 30.5 -29.85 17.75 -28.9 -0.3 -27.95 -18.35 -18.8 -31.05 -9.65 -43.75 2.3 -43.7 14.3 -43.7 22.1 -30.95" fill="#000000" fill-rule="evenodd" stroke="none"/>
    <path d="M-16.85 22.35 Q-20.7 15.95 -21.6 7.75 L-13.35 8.05 Q-11.4 17.8 -7.5 23.0 -3.6 28.15 0.2 29.6 -8.3 30.55 -11.2 28.85 -14.3 26.5 -16.85 22.35" fill="#ffffff" fill-rule="evenodd" stroke="none"/>
  </g>
</svg>
