<?xml version="1.0" encoding="UTF-8" standalone="no"?>
<svg xmlns:ffdec="https://www.free-decompiler.com/flash" xmlns:xlink="http://www.w3.org/1999/xlink" ffdec:objectType="shape" height="338.15px" width="42.45px" xmlns="http://www.w3.org/2000/svg">
  <g transform="matrix(1.0, 0.0, 0.0, 1.0, 21.2, 169.1)">
    <path d="M-5.45 167.8 L-5.45 -72.8 -10.6 -72.8 -10.6 -76.75 -16.8 -76.75 -19.95 -107.9 -13.0 -107.9 -13.0 -133.95 -3.05 -133.95 -3.05 -167.85 0.6 -167.85 0.6 -133.95 11.25 -133.95 11.25 -107.9 20.0 -107.9 16.4 -76.75 10.05 -76.75 10.05 -72.8 4.2 -72.8 4.2 167.8 -5.45 167.8 M-10.6 -76.75 L10.05 -76.75 -10.6 -76.75 M11.25 -107.9 L-13.0 -107.9 11.25 -107.9 M-3.05 -133.95 L0.6 -133.95 -3.05 -133.95 M-5.45 -72.8 L4.2 -72.8 -5.45 -72.8" fill="#000000" fill-rule="evenodd" stroke="none"/>
    <path d="M-5.45 167.8 L-5.45 -72.8 -10.6 -72.8 -10.6 -76.75 -16.8 -76.75 -19.95 -107.9 -13.0 -107.9 -13.0 -133.95 -3.05 -133.95 -3.05 -167.85 0.6 -167.85 0.6 -133.95 11.25 -133.95 11.25 -107.9 20.0 -107.9 16.4 -76.75 10.05 -76.75 10.05 -72.8 4.2 -72.8 4.2 167.8 M4.2 -72.8 L-5.45 -72.8 M0.6 -133.95 L-3.05 -133.95 M-13.0 -107.9 L11.25 -107.9 M10.05 -76.75 L-10.6 -76.75" fill="none" stroke="#000000" stroke-linecap="round" stroke-linejoin="round" stroke-width="2.5"/>
    <path d="M-4.4 -133.95 L-4.4 -133.75 4.6 -133.75 4.6 -133.95 11.25 -133.95 11.25 -126.45 -13.0 -126.45 -13.0 -133.95 -4.4 -133.95 M-13.0 -112.9 L-13.0 -121.55 11.25 -121.55 11.25 -112.9 -13.0 -112.9" fill="url(#gradient0)" fill-rule="evenodd" stroke="none"/>
    <path d="M-13.0 -126.45 L11.25 -126.45 11.25 -121.55 -13.0 -121.55 -13.0 -126.45 M-13.0 -107.9 L-13.0 -112.9 11.25 -112.9 11.25 -107.9 -13.0 -107.9" fill="url(#gradient1)" fill-rule="evenodd" stroke="none"/>
    <path d="M11.25 -107.9 L20.0 -107.9 19.35 -102.2 -19.35 -102.2 -19.95 -107.9 -13.0 -107.9 11.25 -107.9 M18.75 -97.25 L18.2 -92.35 -18.4 -92.35 -18.9 -97.25 18.75 -97.25 M17.65 -87.45 L17.05 -82.55 -17.4 -82.55 -17.9 -87.45 17.65 -87.45" fill="url(#gradient2)" fill-rule="evenodd" stroke="none"/>
    <path d="M0.6 -138.9 L-3.05 -138.9 -3.05 -167.85 0.6 -167.85 0.6 -138.9" fill="#e3d8bc" fill-rule="evenodd" stroke="none"/>
    <path d="M19.35 -102.2 L18.75 -97.25 -18.9 -97.25 -19.35 -102.2 19.35 -102.2 M18.2 -92.35 L17.65 -87.45 -17.9 -87.45 -18.4 -92.35 18.2 -92.35 M17.05 -82.55 L16.4 -76.75 10.05 -76.75 -10.6 -76.75 -16.8 -76.75 -17.4 -82.55 17.05 -82.55" fill="url(#gradient3)" fill-rule="evenodd" stroke="none"/>
    <path d="M10.05 -76.75 L10.05 -72.8 4.2 -72.8 -5.45 -72.8 -10.6 -72.8 -10.6 -76.75 10.05 -76.75" fill="url(#gradient4)" fill-rule="evenodd" stroke="none"/>
    <path d="M4.2 -72.8 L4.2 -19.7 -5.45 -19.7 -5.45 -72.8 4.2 -72.8 M4.2 18.55 L4.2 167.8 -5.45 167.8 -5.45 18.55 4.2 18.55" fill="url(#gradient5)" fill-rule="evenodd" stroke="none"/>
    <path d="M4.2 -19.7 L4.2 18.55 -5.45 18.55 -5.45 -19.7 4.2 -19.7" fill="url(#gradient6)" fill-rule="evenodd" stroke="none"/>
    <path d="M4.6 -133.95 L4.6 -133.75 -4.4 -133.75 -4.4 -133.95 -3.05 -133.95 0.6 -133.95 4.6 -133.95" fill="#7f7865" fill-rule="evenodd" stroke="none"/>
    <path d="M0.6 -133.95 L-3.05 -133.95 -3.05 -138.9 0.6 -138.9 0.6 -133.95" fill="#857c69" fill-rule="evenodd" stroke="none"/>
  </g>
  <defs>
    <linearGradient gradientTransform="matrix(0.0148, 0.0, 0.0, 0.0159, -0.95, -120.95)" gradientUnits="userSpaceOnUse" id="gradient0" spreadMethod="pad" x1="-819.2" x2="819.2">
      <stop offset="0.0784313725490196" stop-color="#998b5c"/>
      <stop offset="0.4588235294117647" stop-color="#fef3de"/>
      <stop offset="0.5254901960784314" stop-color="#fef3de"/>
      <stop offset="0.9254901960784314" stop-color="#998b5c"/>
    </linearGradient>
    <linearGradient gradientTransform="matrix(0.0148, 0.0, 0.0, 0.0159, -0.95, -120.95)" gradientUnits="userSpaceOnUse" id="gradient1" spreadMethod="pad" x1="-819.2" x2="819.2">
      <stop offset="0.0784313725490196" stop-color="#474230"/>
      <stop offset="0.4588235294117647" stop-color="#fef3de"/>
      <stop offset="0.5254901960784314" stop-color="#fef3de"/>
      <stop offset="0.9098039215686274" stop-color="#474230"/>
    </linearGradient>
    <linearGradient gradientTransform="matrix(0.0244, 0.0, 0.0, 0.019, 0.0, -92.3)" gradientUnits="userSpaceOnUse" id="gradient2" spreadMethod="pad" x1="-819.2" x2="819.2">
      <stop offset="0.0784313725490196" stop-color="#998b5c"/>
      <stop offset="0.4588235294117647" stop-color="#fef3de"/>
      <stop offset="0.5254901960784314" stop-color="#fef3de"/>
      <stop offset="0.9254901960784314" stop-color="#998b5c"/>
    </linearGradient>
    <linearGradient gradientTransform="matrix(0.0244, 0.0, 0.0, 0.019, 0.0, -92.3)" gradientUnits="userSpaceOnUse" id="gradient3" spreadMethod="pad" x1="-819.2" x2="819.2">
      <stop offset="0.0784313725490196" stop-color="#474230"/>
      <stop offset="0.4588235294117647" stop-color="#fef3de"/>
      <stop offset="0.5254901960784314" stop-color="#fef3de"/>
      <stop offset="0.9098039215686274" stop-color="#474230"/>
    </linearGradient>
    <linearGradient gradientTransform="matrix(0.0126, 0.0, 0.0, 0.0024, -0.3, -74.75)" gradientUnits="userSpaceOnUse" id="gradient4" spreadMethod="pad" x1="-819.2" x2="819.2">
      <stop offset="0.0784313725490196" stop-color="#836f52"/>
      <stop offset="0.4392156862745098" stop-color="#b3a588"/>
      <stop offset="0.5490196078431373" stop-color="#b3a588"/>
      <stop offset="0.9254901960784314" stop-color="#836f52"/>
    </linearGradient>
    <linearGradient gradientTransform="matrix(0.0059, 0.0, 0.0, 0.0614, -0.65, -22.55)" gradientUnits="userSpaceOnUse" id="gradient5" spreadMethod="pad" x1="-819.2" x2="819.2">
      <stop offset="0.0784313725490196" stop-color="#836f52"/>
      <stop offset="0.4588235294117647" stop-color="#b3a588"/>
      <stop offset="0.5254901960784314" stop-color="#b3a588"/>
      <stop offset="0.9254901960784314" stop-color="#836f52"/>
    </linearGradient>
    <linearGradient gradientTransform="matrix(0.0059, 0.0, 0.0, 0.1425, -0.65, -26.25)" gradientUnits="userSpaceOnUse" id="gradient6" spreadMethod="pad" x1="-819.2" x2="819.2">
      <stop offset="0.0784313725490196" stop-color="#836f52"/>
      <stop offset="0.4392156862745098" stop-color="#b3a588"/>
      <stop offset="0.5490196078431373" stop-color="#b3a588"/>
      <stop offset="0.9254901960784314" stop-color="#836f52"/>
    </linearGradient>
  </defs>
</svg>
