<?xml version="1.0" encoding="UTF-8" standalone="no"?>
<svg xmlns:ffdec="https://www.free-decompiler.com/flash" xmlns:xlink="http://www.w3.org/1999/xlink" ffdec:objectType="shape" height="189.0px" width="607.95px" xmlns="http://www.w3.org/2000/svg">
  <g transform="matrix(1.0, 0.0, 0.0, 1.0, 293.0, 110.4)">
    <path d="M-246.05 3.55 L-289.0 -101.95 -255.35 -106.4 -173.55 -35.35 Q-152.15 -17.3 -126.6 -17.5 -178.35 -9.0 -229.35 0.15 -237.95 1.5 -246.05 3.55 M-252.2 -42.95 Q-252.2 -33.55 -245.5 -26.85 -238.85 -20.15 -229.35 -20.15 -219.95 -20.15 -213.25 -26.85 -206.55 -33.55 -206.55 -42.95 -206.55 -52.45 -213.25 -59.1 -219.95 -65.8 -229.35 -65.8 -238.85 -65.8 -245.5 -59.1 -252.2 -52.45 -252.2 -42.95" fill="#ffffff" fill-rule="evenodd" stroke="none"/>
    <path d="M130.25 22.65 L134.0 42.8 Q122.15 46.9 108.5 48.85 90.55 51.4 69.6 50.3 L68.45 44.0 64.55 22.2 64.65 22.2 64.5 21.85 63.6 16.8 Q84.85 9.9 104.2 6.9 115.95 5.1 127.0 4.75 L127.05 5.35 130.25 22.65 M65.5 21.85 L64.65 22.2 65.5 21.85 M35.7 33.25 L36.4 36.1 36.05 36.15 35.7 33.25 M-252.2 -42.95 Q-252.2 -52.45 -245.5 -59.1 -238.85 -65.8 -229.35 -65.8 -219.95 -65.8 -213.25 -59.1 -206.55 -52.45 -206.55 -42.95 -206.55 -33.55 -213.25 -26.85 -219.95 -20.15 -229.35 -20.15 -238.85 -20.15 -245.5 -26.85 -252.2 -33.55 -252.2 -42.95" fill="#cccccc" fill-rule="evenodd" stroke="none"/>
    <path d="M209.25 -41.6 Q210.25 -40.85 210.45 -39.6 L211.15 -34.3 Q211.3 -33.05 210.55 -32.05 209.8 -31.05 208.55 -30.9 207.3 -30.75 206.3 -31.5 205.35 -32.25 205.2 -33.5 L204.45 -38.8 Q204.3 -40.1 205.05 -41.05 205.8 -42.05 207.05 -42.2 208.3 -42.4 209.25 -41.6 M224.45 -36.05 Q224.6 -34.8 223.85 -33.8 223.1 -32.85 221.85 -32.65 220.6 -32.5 219.6 -33.25 218.6 -34.05 218.45 -35.25 L217.75 -40.6 Q217.6 -41.85 218.35 -42.85 219.1 -43.85 220.35 -44.0 221.6 -44.15 222.6 -43.4 223.6 -42.65 223.75 -41.4 L224.45 -36.05 M167.15 -36.9 Q168.35 -37.05 169.35 -36.3 170.35 -35.55 170.5 -34.3 L171.25 -28.95 Q171.4 -27.75 170.65 -26.75 169.85 -25.75 168.65 -25.6 167.4 -25.45 166.4 -26.2 165.4 -26.95 165.25 -28.2 L164.55 -33.55 Q164.35 -34.8 165.1 -35.75 165.85 -36.75 167.15 -36.9 M184.55 -30.75 Q184.7 -29.5 183.95 -28.5 183.15 -27.55 181.95 -27.35 180.7 -27.2 179.7 -27.95 178.7 -28.75 178.55 -29.95 L177.85 -35.3 Q177.65 -36.55 178.45 -37.55 179.2 -38.55 180.45 -38.7 181.65 -38.85 182.65 -38.1 183.65 -37.35 183.85 -36.05 L184.55 -30.75 M196.0 -39.85 Q196.95 -39.1 197.15 -37.85 L197.85 -32.5 Q198.0 -31.3 197.25 -30.3 196.5 -29.3 195.25 -29.1 194.0 -28.95 193.0 -29.75 192.0 -30.5 191.85 -31.75 L191.15 -37.05 Q191.0 -38.3 191.75 -39.3 192.5 -40.3 193.75 -40.45 195.0 -40.6 196.0 -39.85 M129.45 -31.0 Q130.45 -30.25 130.6 -29.0 L131.3 -23.7 Q131.45 -22.45 130.7 -21.45 129.95 -20.45 128.7 -20.3 127.45 -20.15 126.5 -20.9 125.5 -21.65 125.3 -22.9 L124.65 -28.2 Q124.45 -29.45 125.2 -30.45 125.95 -31.45 127.2 -31.6 128.45 -31.8 129.45 -31.0 M151.25 -31.75 Q151.05 -33.0 151.8 -34.0 152.55 -35.0 153.8 -35.15 155.05 -35.3 156.05 -34.55 157.05 -33.8 157.25 -32.55 L157.9 -27.2 Q158.05 -25.95 157.3 -25.0 156.55 -24.0 155.35 -23.8 154.1 -23.65 153.1 -24.4 152.1 -25.2 151.95 -26.4 L151.25 -31.75 M142.75 -32.8 Q143.75 -32.05 143.9 -30.75 L144.6 -25.45 Q144.75 -24.2 144.0 -23.2 143.25 -22.2 142.0 -22.05 140.75 -21.9 139.8 -22.65 138.8 -23.45 138.65 -24.65 L137.9 -29.95 Q137.75 -31.25 138.5 -32.2 139.25 -33.2 140.55 -33.35 141.75 -33.55 142.75 -32.8 M90.4 -25.7 Q91.6 -25.9 92.6 -25.15 93.6 -24.4 93.8 -23.1 L94.45 -17.8 Q94.6 -16.55 93.85 -15.55 93.1 -14.6 91.9 -14.4 90.65 -14.25 89.65 -15.0 88.65 -15.75 88.5 -17.0 L87.8 -22.3 Q87.6 -23.6 88.4 -24.55 89.15 -25.55 90.4 -25.7 M103.7 -27.5 Q104.95 -27.65 105.9 -26.9 106.9 -26.15 107.1 -24.9 L107.8 -19.55 Q107.95 -18.35 107.2 -17.35 106.45 -16.35 105.2 -16.15 103.95 -16.0 102.95 -16.75 101.95 -17.55 101.8 -18.75 L101.1 -24.1 Q100.9 -25.35 101.65 -26.35 102.45 -27.35 103.7 -27.5 M61.9 -13.45 L61.2 -18.8 Q61.0 -20.05 61.75 -21.05 62.5 -22.0 63.75 -22.15 65.0 -22.35 66.0 -21.6 67.0 -20.85 67.15 -19.6 L67.85 -14.25 Q68.0 -13.05 67.25 -12.05 66.5 -11.05 65.3 -10.9 64.05 -10.7 63.05 -11.45 62.05 -12.25 61.9 -13.45 M77.1 -23.95 Q78.3 -24.1 79.3 -23.35 80.3 -22.6 80.45 -21.35 L81.2 -16.05 Q81.35 -14.8 80.6 -13.8 79.8 -12.8 78.55 -12.65 77.3 -12.5 76.35 -13.25 75.35 -14.0 75.2 -15.25 L74.5 -20.55 Q74.3 -21.8 75.05 -22.8 75.8 -23.8 77.1 -23.95 M53.85 -17.8 L54.6 -12.5 Q54.75 -11.25 53.95 -10.25 53.2 -9.3 51.95 -9.1 50.7 -8.95 49.7 -9.7 48.75 -10.45 48.6 -11.7 L47.85 -17.0 Q47.7 -18.3 48.45 -19.25 49.2 -20.25 50.45 -20.4 51.7 -20.6 52.7 -19.85 53.7 -19.1 53.85 -17.8 M23.85 -16.85 Q25.1 -17.05 26.1 -16.3 27.1 -15.55 27.25 -14.3 L27.95 -8.95 Q28.1 -7.7 27.35 -6.7 26.55 -5.75 25.35 -5.55 24.1 -5.4 23.1 -6.15 22.1 -6.95 21.95 -8.15 L21.25 -13.45 Q21.1 -14.75 21.85 -15.7 22.6 -16.7 23.85 -16.85 M35.15 -17.5 Q35.9 -18.5 37.15 -18.65 38.4 -18.8 39.4 -18.05 40.4 -17.3 40.55 -16.05 L41.25 -10.7 Q41.4 -9.5 40.65 -8.5 39.9 -7.5 38.7 -7.35 37.4 -7.15 36.4 -7.9 35.4 -8.7 35.25 -9.9 L34.55 -15.25 Q34.4 -16.5 35.15 -17.5 M10.55 -15.1 Q11.8 -15.3 12.8 -14.5 13.75 -13.75 13.95 -12.5 L14.65 -7.2 Q14.8 -5.95 14.05 -4.95 13.3 -4.0 12.05 -3.8 10.8 -3.65 9.8 -4.4 8.8 -5.15 8.65 -6.4 L7.95 -11.7 Q7.75 -12.95 8.5 -13.95 9.25 -14.95 10.55 -15.1 M104.2 6.9 Q84.85 9.9 63.6 16.8 L64.5 21.85 Q42.3 26.05 7.8 30.1 L-116.45 0.3 Q-90.5 -1.3 -66.4 -5.4 L104.2 5.25 Q104.4 6.05 104.2 6.9 M-161.55 10.3 Q-160.55 11.05 -160.4 12.3 L-159.7 17.65 Q-159.55 18.9 -160.3 19.9 -161.05 20.85 -162.3 21.05 -163.55 21.2 -164.5 20.45 -165.5 19.65 -165.7 18.45 L-166.35 13.15 Q-166.55 11.85 -165.8 10.9 -165.05 9.9 -163.8 9.75 -162.55 9.55 -161.55 10.3 M-150.45 7.95 Q-149.25 7.8 -148.25 8.55 -147.25 9.3 -147.1 10.55 L-146.4 15.9 Q-146.25 17.1 -147.0 18.1 -147.75 19.1 -148.95 19.25 -150.2 19.45 -151.2 18.7 -152.2 17.9 -152.35 16.7 L-153.1 11.35 Q-153.25 10.1 -152.5 9.1 -151.75 8.1 -150.45 7.95 M-139.75 9.6 Q-139.95 8.3 -139.2 7.35 -138.45 6.35 -137.2 6.2 -135.95 6.0 -134.95 6.75 -133.95 7.5 -133.75 8.8 L-133.05 14.1 Q-132.9 15.35 -133.65 16.35 -134.45 17.35 -135.65 17.5 -136.9 17.65 -137.9 16.9 -138.9 16.15 -139.05 14.9 L-139.75 9.6 M-119.75 12.35 Q-119.6 13.6 -120.35 14.6 -121.15 15.55 -122.35 15.7 -123.6 15.9 -124.6 15.15 -125.6 14.35 -125.75 13.15 L-126.45 7.8 Q-126.65 6.55 -125.9 5.55 -125.15 4.6 -123.85 4.45 -122.65 4.25 -121.65 5.0 -120.65 5.75 -120.5 7.0 L-119.75 12.35" fill="#484848" fill-rule="evenodd" stroke="none"/>
    <path d="M273.85 -52.85 Q278.9 -49.6 283.05 -45.4 L285.0 -45.15 284.95 -44.75 245.0 -38.4 245.65 -49.15 273.85 -52.85" fill="#333333" fill-rule="evenodd" stroke="none"/>
    <path d="M222.3 6.6 L222.75 9.25 Q219.9 10.25 217.45 11.8 L216.2 7.75 222.3 6.6 M68.45 44.0 L68.05 44.05 38.25 43.4 36.95 38.35 22.95 45.95 22.95 48.35 16.75 47.85 15.5 47.85 14.7 38.75 36.05 36.15 36.4 36.1 35.7 33.25 64.55 22.2 68.45 44.0 M36.95 38.35 L36.4 36.1 36.95 38.35" fill="#666666" fill-rule="evenodd" stroke="none"/>
    <path d="M10.55 -15.1 Q9.25 -14.95 8.5 -13.95 7.75 -12.95 7.95 -11.7 L8.65 -6.4 Q8.8 -5.15 9.8 -4.4 10.8 -3.65 12.05 -3.8 13.3 -4.0 14.05 -4.95 14.8 -5.95 14.65 -7.2 L13.95 -12.5 Q13.75 -13.75 12.8 -14.5 11.8 -15.3 10.55 -15.1 M35.15 -17.5 Q34.4 -16.5 34.55 -15.25 L35.25 -9.9 Q35.4 -8.7 36.4 -7.9 37.4 -7.15 38.7 -7.35 39.9 -7.5 40.65 -8.5 41.4 -9.5 41.25 -10.7 L40.55 -16.05 Q40.4 -17.3 39.4 -18.05 38.4 -18.8 37.15 -18.65 35.9 -18.5 35.15 -17.5 M23.85 -16.85 Q22.6 -16.7 21.85 -15.7 21.1 -14.75 21.25 -13.45 L21.95 -8.15 Q22.1 -6.95 23.1 -6.15 24.1 -5.4 25.35 -5.55 26.55 -5.75 27.35 -6.7 28.1 -7.7 27.95 -8.95 L27.25 -14.3 Q27.1 -15.55 26.1 -16.3 25.1 -17.05 23.85 -16.85 M53.85 -17.8 Q53.7 -19.1 52.7 -19.85 51.7 -20.6 50.45 -20.4 49.2 -20.25 48.45 -19.25 47.7 -18.3 47.85 -17.0 L48.6 -11.7 Q48.75 -10.45 49.7 -9.7 50.7 -8.95 51.95 -9.1 53.2 -9.3 53.95 -10.25 54.75 -11.25 54.6 -12.5 L53.85 -17.8 M77.1 -23.95 Q75.8 -23.8 75.05 -22.8 74.3 -21.8 74.5 -20.55 L75.2 -15.25 Q75.35 -14.0 76.35 -13.25 77.3 -12.5 78.55 -12.65 79.8 -12.8 80.6 -13.8 81.35 -14.8 81.2 -16.05 L80.45 -21.35 Q80.3 -22.6 79.3 -23.35 78.3 -24.1 77.1 -23.95 M61.9 -13.45 Q62.05 -12.25 63.05 -11.45 64.05 -10.7 65.3 -10.9 66.5 -11.05 67.25 -12.05 68.0 -13.05 67.85 -14.25 L67.15 -19.6 Q67.0 -20.85 66.0 -21.6 65.0 -22.35 63.75 -22.15 62.5 -22.0 61.75 -21.05 61.0 -20.05 61.2 -18.8 L61.9 -13.45 M103.7 -27.5 Q102.45 -27.35 101.65 -26.35 100.9 -25.35 101.1 -24.1 L101.8 -18.75 Q101.95 -17.55 102.95 -16.75 103.95 -16.0 105.2 -16.15 106.45 -16.35 107.2 -17.35 107.95 -18.35 107.8 -19.55 L107.1 -24.9 Q106.9 -26.15 105.9 -26.9 104.95 -27.65 103.7 -27.5 M90.4 -25.7 Q89.15 -25.55 88.4 -24.55 87.6 -23.6 87.8 -22.3 L88.5 -17.0 Q88.65 -15.75 89.65 -15.0 90.65 -14.25 91.9 -14.4 93.1 -14.6 93.85 -15.55 94.6 -16.55 94.45 -17.8 L93.8 -23.1 Q93.6 -24.4 92.6 -25.15 91.6 -25.9 90.4 -25.7 M142.75 -32.8 Q141.75 -33.55 140.55 -33.35 139.25 -33.2 138.5 -32.2 137.75 -31.25 137.9 -29.95 L138.65 -24.65 Q138.8 -23.45 139.8 -22.65 140.75 -21.9 142.0 -22.05 143.25 -22.2 144.0 -23.2 144.75 -24.2 144.6 -25.45 L143.9 -30.75 Q143.75 -32.05 142.75 -32.8 M151.25 -31.75 L151.95 -26.4 Q152.1 -25.2 153.1 -24.4 154.1 -23.65 155.35 -23.8 156.55 -24.0 157.3 -25.0 158.05 -25.95 157.9 -27.2 L157.25 -32.55 Q157.05 -33.8 156.05 -34.55 155.05 -35.3 153.8 -35.15 152.55 -35.0 151.8 -34.0 151.05 -33.0 151.25 -31.75 M129.45 -31.0 Q128.45 -31.8 127.2 -31.6 125.95 -31.45 125.2 -30.45 124.45 -29.45 124.65 -28.2 L125.3 -22.9 Q125.5 -21.65 126.5 -20.9 127.45 -20.15 128.7 -20.3 129.95 -20.45 130.7 -21.45 131.45 -22.45 131.3 -23.7 L130.6 -29.0 Q130.45 -30.25 129.45 -31.0 M196.0 -39.85 Q195.0 -40.6 193.75 -40.45 192.5 -40.3 191.75 -39.3 191.0 -38.3 191.15 -37.05 L191.85 -31.75 Q192.0 -30.5 193.0 -29.75 194.0 -28.95 195.25 -29.1 196.5 -29.3 197.25 -30.3 198.0 -31.3 197.85 -32.5 L197.15 -37.85 Q196.95 -39.1 196.0 -39.85 M184.55 -30.75 L183.85 -36.05 Q183.65 -37.35 182.65 -38.1 181.65 -38.85 180.45 -38.7 179.2 -38.55 178.45 -37.55 177.65 -36.55 177.85 -35.3 L178.55 -29.95 Q178.7 -28.75 179.7 -27.95 180.7 -27.2 181.95 -27.35 183.15 -27.55 183.95 -28.5 184.7 -29.5 184.55 -30.75 M167.15 -36.9 Q165.85 -36.75 165.1 -35.75 164.35 -34.8 164.55 -33.55 L165.25 -28.2 Q165.4 -26.95 166.4 -26.2 167.4 -25.45 168.65 -25.6 169.85 -25.75 170.65 -26.75 171.4 -27.75 171.25 -28.95 L170.5 -34.3 Q170.35 -35.55 169.35 -36.3 168.35 -37.05 167.15 -36.9 M224.45 -36.05 L223.75 -41.4 Q223.6 -42.65 222.6 -43.4 221.6 -44.15 220.35 -44.0 219.1 -43.85 218.35 -42.85 217.6 -41.85 217.75 -40.6 L218.45 -35.25 Q218.6 -34.05 219.6 -33.25 220.6 -32.5 221.85 -32.65 223.1 -32.85 223.85 -33.8 224.6 -34.8 224.45 -36.05 M209.25 -41.6 Q208.3 -42.4 207.05 -42.2 205.8 -42.05 205.05 -41.05 204.3 -40.1 204.45 -38.8 L205.2 -33.5 Q205.35 -32.25 206.3 -31.5 207.3 -30.75 208.55 -30.9 209.8 -31.05 210.55 -32.05 211.3 -33.05 211.15 -34.3 L210.45 -39.6 Q210.25 -40.85 209.25 -41.6 M285.05 -45.1 Q305.15 -42.25 310.95 -30.15 311.05 -11.7 285.9 -6.25 254.15 0.5 222.3 6.6 L216.2 7.75 Q173.35 15.8 130.25 22.65 L127.05 5.35 127.0 4.75 Q115.95 5.1 104.2 6.9 104.4 6.05 104.2 5.25 L-66.4 -5.4 Q-90.5 -1.3 -116.45 0.3 L7.8 30.1 Q42.3 26.05 64.5 21.85 L64.55 22.2 35.7 33.25 36.05 36.15 14.7 38.75 2.1 40.25 -119.65 45.3 -119.65 -17.8 Q39.9 -43.55 206.3 -63.15 250.15 -68.1 273.85 -52.85 L245.65 -49.15 245.0 -38.4 284.95 -44.75 285.05 -45.1 M104.85 4.75 L104.2 5.25 104.85 4.75" fill="url(#gradient0)" fill-rule="evenodd" stroke="none"/>
    <path d="M-119.65 45.3 L-134.85 44.9 -171.65 42.65 -252.45 23.65 -255.0 5.7 -246.05 3.55 Q-237.95 1.5 -229.35 0.15 -178.35 -9.0 -126.6 -17.5 L-119.65 -18.65 -119.65 -17.8 -119.65 45.3 M-119.75 12.35 L-120.5 7.0 Q-120.65 5.75 -121.65 5.0 -122.65 4.25 -123.85 4.45 -125.15 4.6 -125.9 5.55 -126.65 6.55 -126.45 7.8 L-125.75 13.15 Q-125.6 14.35 -124.6 15.15 -123.6 15.9 -122.35 15.7 -121.15 15.55 -120.35 14.6 -119.6 13.6 -119.75 12.35 M-139.75 9.6 L-139.05 14.9 Q-138.9 16.15 -137.9 16.9 -136.9 17.65 -135.65 17.5 -134.45 17.35 -133.65 16.35 -132.9 15.35 -133.05 14.1 L-133.75 8.8 Q-133.95 7.5 -134.95 6.75 -135.95 6.0 -137.2 6.2 -138.45 6.35 -139.2 7.35 -139.95 8.3 -139.75 9.6 M-150.45 7.95 Q-151.75 8.1 -152.5 9.1 -153.25 10.1 -153.1 11.35 L-152.35 16.7 Q-152.2 17.9 -151.2 18.7 -150.2 19.45 -148.95 19.25 -147.75 19.1 -147.0 18.1 -146.25 17.1 -146.4 15.9 L-147.1 10.55 Q-147.25 9.3 -148.25 8.55 -149.25 7.8 -150.45 7.95 M-161.55 10.3 Q-162.55 9.55 -163.8 9.75 -165.05 9.9 -165.8 10.9 -166.55 11.85 -166.35 13.15 L-165.7 18.45 Q-165.5 19.65 -164.5 20.45 -163.55 21.2 -162.3 21.05 -161.05 20.85 -160.3 19.9 -159.55 18.9 -159.7 17.65 L-160.4 12.3 Q-160.55 11.05 -161.55 10.3 M-245.85 3.95 L-246.05 3.55 -245.85 3.95" fill="url(#gradient1)" fill-rule="evenodd" stroke="none"/>
    <path d="M274.8 -53.0 L273.85 -52.85 Q278.9 -49.6 283.05 -45.4 L285.0 -45.15 285.05 -45.1 Q305.15 -42.25 310.95 -30.15 311.05 -11.7 285.9 -6.25 254.15 0.5 222.3 6.6 L216.2 7.75 Q173.35 15.8 130.25 22.65 L134.0 42.8 Q122.15 46.9 108.5 48.85 90.55 51.4 69.6 50.3 L68.45 44.0 64.55 22.2 35.7 33.25 36.4 36.1 36.95 38.35 38.25 43.4 68.05 44.05 M14.7 38.75 L2.1 40.25 -119.65 45.3 -134.85 44.9 -171.65 42.65 -252.45 23.65 -255.0 5.7 -254.75 4.65 M284.95 -44.75 L245.0 -38.4 245.65 -49.15 273.85 -52.85 Q250.15 -68.1 206.3 -63.15 39.9 -43.55 -119.65 -17.8 M130.25 22.65 L127.05 5.35 M127.0 4.75 Q115.95 5.1 104.2 6.9 84.85 9.9 63.6 16.8 L64.5 21.85 64.55 22.2 64.65 22.2 65.5 21.85 M104.2 6.9 Q104.4 6.05 104.2 5.25 L-66.4 -5.4 Q-90.5 -1.3 -116.45 0.3 L7.8 30.1 Q42.3 26.05 64.5 21.85 M104.2 5.25 L104.85 4.75 M36.05 36.15 L36.4 36.1 M36.05 36.15 L14.7 38.75 M-126.6 -17.5 Q-152.15 -17.3 -173.55 -35.35 L-255.35 -106.4 -289.0 -101.95 -246.05 3.55 Q-237.95 1.5 -229.35 0.15 -178.35 -9.0 -126.6 -17.5 L-119.65 -18.65 M-255.0 5.7 L-246.05 3.55 -245.85 3.95" fill="none" stroke="#000000" stroke-linecap="round" stroke-linejoin="round" stroke-width="8.0"/>
    <path d="M-246.05 3.55 L-289.0 -101.95 -255.4 -106.4 -173.55 -35.35 Q-152.15 -17.3 -126.6 -17.5 L-229.4 0.15 Q-237.95 1.5 -246.0 3.55 L-246.05 3.55" fill="#ffffff" fill-rule="evenodd" stroke="none"/>
    <path d="M130.25 22.65 L134.0 42.8 Q106.6 52.3 69.6 50.3 L68.45 43.95 64.55 22.2 64.65 22.2 64.5 21.85 63.6 16.8 Q84.85 9.9 104.15 6.9 115.9 5.05 126.95 4.7 L127.0 5.35 130.25 22.65 M65.5 21.85 L64.65 22.2 65.5 21.85 M35.7 33.25 L36.4 36.1 36.05 36.15 35.7 33.25" fill="#cccccc" fill-rule="evenodd" stroke="none"/>
    <path d="M104.15 6.9 Q84.85 9.9 63.6 16.8 L64.5 21.85 Q42.3 26.05 7.8 30.1 L-116.5 0.3 Q-90.5 -1.3 -66.4 -5.4 L104.15 5.25 Q104.35 6.05 104.15 6.9" fill="#484848" fill-rule="evenodd" stroke="none"/>
    <path d="M283.05 -45.4 L285.0 -45.15 284.95 -44.75 283.2 -44.5 283.05 -45.4 M226.65 31.35 L226.9 31.35 Q230.45 31.35 232.95 33.85 235.45 36.35 235.5 39.95 235.45 43.45 232.95 46.0 230.45 48.5 226.9 48.5 223.35 48.5 220.85 46.0 218.3 43.45 218.35 39.95 218.3 36.35 220.85 33.85 222.05 32.65 223.5 32.05 224.95 31.4 226.65 31.35 M22.95 55.25 Q25.8 56.05 28.05 58.3 31.55 61.8 31.55 66.7 31.55 71.65 28.05 75.15 24.55 78.6 19.65 78.6 14.75 78.6 11.3 75.15 7.8 71.65 7.8 66.7 7.8 61.8 11.3 58.3 13.4 56.15 16.1 55.35 17.75 54.8 19.65 54.8 L22.95 55.25" fill="#333333" fill-rule="evenodd" stroke="none"/>
    <path d="M222.3 6.6 L226.65 31.35 Q224.95 31.4 223.5 32.05 L216.2 7.75 222.3 6.6 M68.45 43.95 L68.05 44.05 38.2 43.4 36.95 38.35 22.95 45.95 22.95 55.25 19.65 54.8 Q17.75 54.8 16.1 55.35 L14.7 38.75 36.05 36.15 36.4 36.1 35.7 33.25 64.55 22.2 68.45 43.95 M36.95 38.35 L36.4 36.1 36.95 38.35" fill="#666666" fill-rule="evenodd" stroke="none"/>
    <path d="M207.05 -42.2 Q208.25 -42.4 209.25 -41.65 210.25 -40.9 210.45 -39.6 L211.1 -34.3 Q211.3 -33.05 210.55 -32.05 209.75 -31.05 208.55 -30.9 207.3 -30.75 206.3 -31.5 205.3 -32.25 205.15 -33.5 L204.45 -38.8 Q204.25 -40.1 205.05 -41.05 205.8 -42.05 207.05 -42.2 M224.45 -36.05 Q224.6 -34.8 223.85 -33.8 223.1 -32.85 221.85 -32.65 220.6 -32.5 219.6 -33.25 218.6 -34.05 218.45 -35.25 L217.75 -40.6 Q217.55 -41.85 218.3 -42.85 219.05 -43.85 220.35 -44.0 221.55 -44.15 222.55 -43.4 223.55 -42.65 223.75 -41.4 L224.45 -36.05 M167.1 -36.9 Q168.35 -37.05 169.35 -36.3 170.35 -35.55 170.5 -34.3 L171.25 -29.0 Q171.4 -27.75 170.6 -26.75 169.85 -25.75 168.6 -25.6 167.35 -25.45 166.35 -26.2 165.4 -26.95 165.25 -28.2 L164.5 -33.55 Q164.35 -34.8 165.1 -35.75 165.85 -36.75 167.1 -36.9 M184.5 -30.75 Q184.65 -29.5 183.9 -28.5 183.15 -27.55 181.95 -27.35 180.7 -27.2 179.7 -27.95 178.7 -28.75 178.55 -29.95 L177.85 -35.3 Q177.65 -36.55 178.4 -37.55 179.15 -38.55 180.4 -38.7 181.65 -38.85 182.65 -38.1 183.65 -37.35 183.8 -36.1 L184.5 -30.75 M195.95 -39.85 Q196.95 -39.1 197.1 -37.85 L197.85 -32.55 Q198.0 -31.3 197.25 -30.3 196.45 -29.3 195.2 -29.15 193.95 -29.0 193.0 -29.75 192.0 -30.5 191.85 -31.75 L191.15 -37.05 Q190.95 -38.3 191.7 -39.3 192.45 -40.3 193.75 -40.45 194.95 -40.6 195.95 -39.85 M129.45 -31.0 Q130.4 -30.25 130.6 -29.0 L131.3 -23.7 Q131.45 -22.45 130.7 -21.45 129.95 -20.45 128.7 -20.3 127.45 -20.15 126.45 -20.9 125.45 -21.65 125.3 -22.9 L124.6 -28.2 Q124.4 -29.45 125.15 -30.45 125.9 -31.45 127.2 -31.6 128.45 -31.8 129.45 -31.0 M151.2 -31.75 Q151.05 -33.0 151.8 -34.0 152.55 -35.0 153.8 -35.15 155.05 -35.3 156.05 -34.55 157.05 -33.8 157.2 -32.55 L157.9 -27.2 Q158.05 -26.0 157.3 -25.0 156.55 -24.0 155.35 -23.8 154.05 -23.65 153.05 -24.4 152.05 -25.2 151.9 -26.4 L151.2 -31.75 M142.75 -32.8 Q143.75 -32.05 143.9 -30.75 L144.6 -25.45 Q144.75 -24.2 144.0 -23.2 143.25 -22.25 142.0 -22.05 140.75 -21.9 139.75 -22.65 138.75 -23.45 138.6 -24.65 L137.9 -29.95 Q137.75 -31.25 138.5 -32.2 139.25 -33.2 140.5 -33.35 141.75 -33.55 142.75 -32.8 M90.4 -25.75 Q91.6 -25.9 92.6 -25.15 93.6 -24.4 93.75 -23.1 L94.45 -17.8 Q94.6 -16.55 93.85 -15.55 93.1 -14.6 91.9 -14.4 90.65 -14.25 89.65 -15.0 88.65 -15.75 88.5 -17.0 L87.8 -22.3 Q87.6 -23.6 88.35 -24.6 89.1 -25.6 90.4 -25.75 M105.9 -26.9 Q106.9 -26.15 107.1 -24.9 L107.8 -19.55 Q107.95 -18.35 107.2 -17.35 106.4 -16.35 105.2 -16.15 103.9 -16.0 102.9 -16.75 101.95 -17.55 101.8 -18.8 L101.05 -24.1 Q100.9 -25.35 101.65 -26.35 102.4 -27.35 103.7 -27.5 104.9 -27.65 105.9 -26.9 M61.85 -13.45 L61.15 -18.8 Q61.0 -20.05 61.75 -21.05 62.5 -22.05 63.75 -22.2 65.0 -22.35 66.0 -21.6 66.95 -20.85 67.15 -19.6 L67.85 -14.25 Q68.0 -13.05 67.25 -12.05 66.5 -11.05 65.25 -10.9 64.0 -10.7 63.0 -11.45 62.0 -12.25 61.85 -13.45 M74.45 -20.55 Q74.3 -21.85 75.05 -22.8 75.8 -23.8 77.05 -23.95 78.3 -24.15 79.3 -23.35 80.3 -22.6 80.45 -21.35 L81.15 -16.05 Q81.3 -14.8 80.55 -13.8 79.8 -12.8 78.55 -12.65 77.3 -12.5 76.3 -13.25 75.3 -14.0 75.15 -15.25 L74.45 -20.55 M53.85 -17.8 L54.55 -12.5 Q54.7 -11.25 53.95 -10.25 53.2 -9.3 51.95 -9.1 50.7 -8.95 49.7 -9.7 48.7 -10.45 48.55 -11.7 L47.85 -17.0 Q47.7 -18.3 48.45 -19.25 49.2 -20.25 50.45 -20.4 51.7 -20.6 52.7 -19.85 53.65 -19.1 53.85 -17.8 M23.85 -16.9 Q25.05 -17.05 26.05 -16.3 27.05 -15.55 27.25 -14.3 L27.95 -8.95 Q28.1 -7.7 27.35 -6.7 26.55 -5.75 25.35 -5.55 24.1 -5.4 23.1 -6.15 22.1 -6.95 21.95 -8.2 L21.25 -13.45 Q21.1 -14.75 21.85 -15.75 22.6 -16.75 23.85 -16.9 M35.15 -17.5 Q35.9 -18.5 37.15 -18.65 38.4 -18.85 39.35 -18.05 40.35 -17.3 40.55 -16.05 L41.25 -10.7 Q41.4 -9.5 40.65 -8.5 39.9 -7.5 38.65 -7.35 37.4 -7.15 36.4 -7.9 35.4 -8.7 35.25 -9.95 L34.55 -15.25 Q34.35 -16.5 35.15 -17.5 M10.5 -15.1 Q11.75 -15.3 12.75 -14.5 13.75 -13.75 13.95 -12.5 L14.65 -7.2 Q14.8 -5.95 14.05 -4.95 13.25 -4.0 12.05 -3.8 10.8 -3.65 9.8 -4.4 8.8 -5.15 8.65 -6.4 L7.95 -11.7 Q7.75 -13.0 8.5 -13.95 9.25 -14.95 10.5 -15.1 M273.8 -52.85 Q278.9 -49.6 283.05 -45.4 L283.2 -44.5 245.0 -38.4 245.6 -49.2 273.8 -52.85 M-161.55 10.3 Q-160.6 11.05 -160.4 12.3 L-159.7 17.65 Q-159.55 18.9 -160.3 19.9 -161.05 20.85 -162.3 21.05 -163.55 21.2 -164.55 20.45 -165.55 19.65 -165.7 18.45 L-166.4 13.15 Q-166.55 11.85 -165.8 10.9 -165.05 9.9 -163.8 9.75 -162.55 9.55 -161.55 10.3 M-150.5 7.95 Q-149.25 7.8 -148.3 8.55 -147.3 9.3 -147.1 10.55 L-146.4 15.9 Q-146.25 17.1 -147.0 18.1 -147.75 19.1 -149.0 19.25 -150.25 19.45 -151.25 18.7 -152.2 17.9 -152.35 16.7 L-153.1 11.35 Q-153.25 10.1 -152.5 9.1 -151.75 8.1 -150.5 7.95 M-134.95 6.75 Q-133.95 7.5 -133.8 8.8 L-133.1 14.1 Q-132.95 15.35 -133.7 16.35 -134.45 17.35 -135.65 17.5 -136.95 17.65 -137.95 16.9 -138.95 16.15 -139.1 14.9 L-139.8 9.6 Q-139.95 8.3 -139.2 7.35 -138.45 6.35 -137.2 6.2 -135.95 6.0 -134.95 6.75 M-119.75 12.35 Q-119.6 13.55 -120.4 14.55 -121.15 15.55 -122.4 15.7 -123.65 15.9 -124.65 15.15 -125.6 14.35 -125.75 13.15 L-126.45 7.8 Q-126.65 6.55 -125.9 5.55 -125.15 4.6 -123.9 4.45 -122.65 4.25 -121.65 5.0 -120.65 5.75 -120.5 7.0 L-119.75 12.35" fill="#000000" fill-rule="evenodd" stroke="none"/>
    <path d="M10.5 -15.1 Q9.25 -14.95 8.5 -13.95 7.75 -13.0 7.95 -11.7 L8.65 -6.4 Q8.8 -5.15 9.8 -4.4 10.8 -3.65 12.05 -3.8 13.25 -4.0 14.05 -4.95 14.8 -5.95 14.65 -7.2 L13.95 -12.5 Q13.75 -13.75 12.75 -14.5 11.75 -15.3 10.5 -15.1 M35.15 -17.5 Q34.35 -16.5 34.55 -15.25 L35.25 -9.95 Q35.4 -8.7 36.4 -7.9 37.4 -7.15 38.65 -7.35 39.9 -7.5 40.65 -8.5 41.4 -9.5 41.25 -10.7 L40.55 -16.05 Q40.35 -17.3 39.35 -18.05 38.4 -18.85 37.15 -18.65 35.9 -18.5 35.15 -17.5 M23.85 -16.9 Q22.6 -16.75 21.85 -15.75 21.1 -14.75 21.25 -13.45 L21.95 -8.2 Q22.1 -6.95 23.1 -6.15 24.1 -5.4 25.35 -5.55 26.55 -5.75 27.35 -6.7 28.1 -7.7 27.95 -8.95 L27.25 -14.3 Q27.05 -15.55 26.05 -16.3 25.05 -17.05 23.85 -16.9 M53.85 -17.8 Q53.65 -19.1 52.7 -19.85 51.7 -20.6 50.45 -20.4 49.2 -20.25 48.45 -19.25 47.7 -18.3 47.85 -17.0 L48.55 -11.7 Q48.7 -10.45 49.7 -9.7 50.7 -8.95 51.95 -9.1 53.2 -9.3 53.95 -10.25 54.7 -11.25 54.55 -12.5 L53.85 -17.8 M74.45 -20.55 L75.15 -15.25 Q75.3 -14.0 76.3 -13.25 77.3 -12.5 78.55 -12.65 79.8 -12.8 80.55 -13.8 81.3 -14.8 81.15 -16.05 L80.45 -21.35 Q80.3 -22.6 79.3 -23.35 78.3 -24.15 77.05 -23.95 75.8 -23.8 75.05 -22.8 74.3 -21.85 74.45 -20.55 M61.85 -13.45 Q62.0 -12.25 63.0 -11.45 64.0 -10.7 65.25 -10.9 66.5 -11.05 67.25 -12.05 68.0 -13.05 67.85 -14.25 L67.15 -19.6 Q66.95 -20.85 66.0 -21.6 65.0 -22.35 63.75 -22.2 62.5 -22.05 61.75 -21.05 61.0 -20.05 61.15 -18.8 L61.85 -13.45 M105.9 -26.9 Q104.9 -27.65 103.7 -27.5 102.4 -27.35 101.65 -26.35 100.9 -25.35 101.05 -24.1 L101.8 -18.8 Q101.95 -17.55 102.9 -16.75 103.9 -16.0 105.2 -16.15 106.4 -16.35 107.2 -17.35 107.95 -18.35 107.8 -19.55 L107.1 -24.9 Q106.9 -26.15 105.9 -26.9 M90.4 -25.75 Q89.1 -25.6 88.35 -24.6 87.6 -23.6 87.8 -22.3 L88.5 -17.0 Q88.65 -15.75 89.65 -15.0 90.65 -14.25 91.9 -14.4 93.1 -14.6 93.85 -15.55 94.6 -16.55 94.45 -17.8 L93.75 -23.1 Q93.6 -24.4 92.6 -25.15 91.6 -25.9 90.4 -25.75 M142.75 -32.8 Q141.75 -33.55 140.5 -33.35 139.25 -33.2 138.5 -32.2 137.75 -31.25 137.9 -29.95 L138.6 -24.65 Q138.75 -23.45 139.75 -22.65 140.75 -21.9 142.0 -22.05 143.25 -22.25 144.0 -23.2 144.75 -24.2 144.6 -25.45 L143.9 -30.75 Q143.75 -32.05 142.75 -32.8 M151.2 -31.75 L151.9 -26.4 Q152.05 -25.2 153.05 -24.4 154.05 -23.65 155.35 -23.8 156.55 -24.0 157.3 -25.0 158.05 -26.0 157.9 -27.2 L157.2 -32.55 Q157.05 -33.8 156.05 -34.55 155.05 -35.3 153.8 -35.15 152.55 -35.0 151.8 -34.0 151.05 -33.0 151.2 -31.75 M129.45 -31.0 Q128.45 -31.8 127.2 -31.6 125.9 -31.45 125.15 -30.45 124.4 -29.45 124.6 -28.2 L125.3 -22.9 Q125.45 -21.65 126.45 -20.9 127.45 -20.15 128.7 -20.3 129.95 -20.45 130.7 -21.45 131.45 -22.45 131.3 -23.7 L130.6 -29.0 Q130.4 -30.25 129.45 -31.0 M195.95 -39.85 Q194.95 -40.6 193.75 -40.45 192.45 -40.3 191.7 -39.3 190.95 -38.3 191.15 -37.05 L191.85 -31.75 Q192.0 -30.5 193.0 -29.75 193.95 -29.0 195.2 -29.15 196.45 -29.3 197.25 -30.3 198.0 -31.3 197.85 -32.55 L197.1 -37.85 Q196.95 -39.1 195.95 -39.85 M184.5 -30.75 L183.8 -36.1 Q183.65 -37.35 182.65 -38.1 181.65 -38.85 180.4 -38.7 179.15 -38.55 178.4 -37.55 177.65 -36.55 177.85 -35.3 L178.55 -29.95 Q178.7 -28.75 179.7 -27.95 180.7 -27.2 181.95 -27.35 183.15 -27.55 183.9 -28.5 184.65 -29.5 184.5 -30.75 M167.1 -36.9 Q165.85 -36.75 165.1 -35.75 164.35 -34.8 164.5 -33.55 L165.25 -28.2 Q165.4 -26.95 166.35 -26.2 167.35 -25.45 168.6 -25.6 169.85 -25.75 170.6 -26.75 171.4 -27.75 171.25 -29.0 L170.5 -34.3 Q170.35 -35.55 169.35 -36.3 168.35 -37.05 167.1 -36.9 M224.45 -36.05 L223.75 -41.4 Q223.55 -42.65 222.55 -43.4 221.55 -44.15 220.35 -44.0 219.05 -43.85 218.3 -42.85 217.55 -41.85 217.75 -40.6 L218.45 -35.25 Q218.6 -34.05 219.6 -33.25 220.6 -32.5 221.85 -32.65 223.1 -32.85 223.85 -33.8 224.6 -34.8 224.45 -36.05 M207.05 -42.2 Q205.8 -42.05 205.05 -41.05 204.25 -40.1 204.45 -38.8 L205.15 -33.5 Q205.3 -32.25 206.3 -31.5 207.3 -30.75 208.55 -30.9 209.75 -31.05 210.55 -32.05 211.3 -33.05 211.1 -34.3 L210.45 -39.6 Q210.25 -40.9 209.25 -41.65 208.25 -42.4 207.05 -42.2 M285.05 -45.1 Q305.1 -42.25 310.95 -30.15 311.05 -11.7 285.9 -6.25 254.15 0.5 222.3 6.6 L216.2 7.75 Q173.3 15.8 130.25 22.65 L127.0 5.35 126.95 4.7 Q115.9 5.05 104.15 6.9 104.35 6.05 104.15 5.25 L-66.4 -5.4 Q-90.5 -1.3 -116.5 0.3 L7.8 30.1 Q42.3 26.05 64.5 21.85 L64.55 22.2 35.7 33.25 36.05 36.15 14.7 38.75 2.05 40.25 -119.65 45.3 -119.65 -17.8 Q39.9 -43.55 206.3 -63.15 250.15 -68.1 273.8 -52.85 L245.6 -49.2 245.0 -38.4 283.2 -44.5 284.95 -44.75 285.05 -45.1 M104.85 4.7 L104.15 5.25 104.85 4.7" fill="url(#gradient2)" fill-rule="evenodd" stroke="none"/>
    <path d="M-119.65 45.3 L-134.9 44.9 -171.65 42.65 -252.45 23.65 -255.05 5.7 -246.05 3.55 -246.0 3.55 Q-237.95 1.5 -229.4 0.15 L-126.6 -17.5 -119.65 -18.65 -119.65 -17.8 -119.65 45.3 M-119.75 12.35 L-120.5 7.0 Q-120.65 5.75 -121.65 5.0 -122.65 4.25 -123.9 4.45 -125.15 4.6 -125.9 5.55 -126.65 6.55 -126.45 7.8 L-125.75 13.15 Q-125.6 14.35 -124.65 15.15 -123.65 15.9 -122.4 15.7 -121.15 15.55 -120.4 14.55 -119.6 13.55 -119.75 12.35 M-134.95 6.75 Q-135.95 6.0 -137.2 6.2 -138.45 6.35 -139.2 7.35 -139.95 8.3 -139.8 9.6 L-139.1 14.9 Q-138.95 16.15 -137.95 16.9 -136.95 17.65 -135.65 17.5 -134.45 17.35 -133.7 16.35 -132.95 15.35 -133.1 14.1 L-133.8 8.8 Q-133.95 7.5 -134.95 6.75 M-150.5 7.95 Q-151.75 8.1 -152.5 9.1 -153.25 10.1 -153.1 11.35 L-152.35 16.7 Q-152.2 17.9 -151.25 18.7 -150.25 19.45 -149.0 19.25 -147.75 19.1 -147.0 18.1 -146.25 17.1 -146.4 15.9 L-147.1 10.55 Q-147.3 9.3 -148.3 8.55 -149.25 7.8 -150.5 7.95 M-161.55 10.3 Q-162.55 9.55 -163.8 9.75 -165.05 9.9 -165.8 10.9 -166.55 11.85 -166.4 13.15 L-165.7 18.45 Q-165.55 19.65 -164.55 20.45 -163.55 21.2 -162.3 21.05 -161.05 20.85 -160.3 19.9 -159.55 18.9 -159.7 17.65 L-160.4 12.3 Q-160.6 11.05 -161.55 10.3" fill="url(#gradient3)" fill-rule="evenodd" stroke="none"/>
    <path d="M274.8 -53.0 L273.8 -52.85 Q278.9 -49.6 283.05 -45.4 L285.0 -45.15 285.05 -45.1 Q305.1 -42.25 310.95 -30.15 311.05 -11.7 285.9 -6.25 254.15 0.5 222.3 6.6 L226.65 31.35 226.9 31.35 Q230.45 31.35 232.95 33.85 235.45 36.35 235.5 39.95 235.45 43.45 232.95 46.0 230.45 48.5 226.9 48.5 223.35 48.5 220.85 46.0 218.3 43.45 218.35 39.95 218.3 36.35 220.85 33.85 222.05 32.65 223.5 32.05 L216.2 7.75 Q173.3 15.8 130.25 22.65 L134.0 42.8 Q106.6 52.3 69.6 50.3 L68.45 43.95 64.55 22.2 35.7 33.25 36.4 36.1 36.95 38.35 22.95 45.95 22.95 55.25 Q25.8 56.05 28.05 58.3 31.55 61.8 31.55 66.7 31.55 71.65 28.05 75.15 24.55 78.6 19.65 78.6 14.75 78.6 11.3 75.15 7.8 71.65 7.8 66.7 7.8 61.8 11.3 58.3 13.4 56.15 16.1 55.35 L14.7 38.75 2.05 40.25 -119.65 45.3 -134.9 44.9 -171.65 42.65 -252.45 23.65 -255.05 5.7 -254.75 4.65 M68.05 44.05 L38.2 43.4 36.95 38.35 M283.2 -44.5 L245.0 -38.4 245.6 -49.2 273.8 -52.85 Q250.15 -68.1 206.3 -63.15 39.9 -43.55 -119.65 -17.8 M283.2 -44.5 L284.95 -44.75 M222.3 6.6 L216.2 7.75 M223.5 32.05 Q224.95 31.4 226.65 31.35 M130.25 22.65 L127.0 5.35 M126.95 4.7 Q115.9 5.05 104.15 6.9 84.85 9.9 63.6 16.8 L64.5 21.85 64.55 22.2 64.65 22.2 65.5 21.85 M104.15 6.9 Q104.35 6.05 104.15 5.25 L-66.4 -5.4 Q-90.5 -1.3 -116.5 0.3 L7.8 30.1 Q42.3 26.05 64.5 21.85 M104.15 5.25 L104.85 4.7 M36.05 36.15 L36.4 36.1 M36.05 36.15 L14.7 38.75 M22.95 55.25 L19.65 54.8 Q17.75 54.8 16.1 55.35 M-126.6 -17.5 Q-152.15 -17.3 -173.55 -35.35 L-255.4 -106.4 -289.0 -101.95 -246.05 3.55 -246.0 3.55 Q-237.95 1.5 -229.4 0.15 L-126.6 -17.5 -119.65 -18.65 M-255.05 5.7 L-246.05 3.55" fill="none" stroke="#000000" stroke-linecap="round" stroke-linejoin="round" stroke-width="0.05"/>
    <path d="M-255.75 -108.0 L-159.25 -25.75 -128.0 -17.5 -128.85 -17.15 -248.45 4.05 -247.7 1.75 -290.45 -104.0 -255.75 -108.0" fill="#000000" fill-rule="evenodd" stroke="none"/>
    <path d="M-199.25 -31.7 L-243.3 -23.95 -230.6 -64.55 -199.25 -31.7 Z" fill="none" stroke="#339966" stroke-linecap="round" stroke-linejoin="round" stroke-width="9.0"/>
  </g>
  <defs>
    <linearGradient gradientTransform="matrix(0.0069, 0.0547, -0.3692, 0.0466, 2.75, -5.45)" gradientUnits="userSpaceOnUse" id="gradient0" spreadMethod="pad" x1="-819.2" x2="819.2">
      <stop offset="0.6666666666666666" stop-color="#ffffff"/>
      <stop offset="0.8549019607843137" stop-color="#aeaeae"/>
    </linearGradient>
    <linearGradient gradientTransform="matrix(0.0069, 0.0547, -0.3692, 0.0466, 17.95, -8.7)" gradientUnits="userSpaceOnUse" id="gradient1" spreadMethod="pad" x1="-819.2" x2="819.2">
      <stop offset="0.6666666666666666" stop-color="#ffffff"/>
      <stop offset="0.8549019607843137" stop-color="#aeaeae"/>
    </linearGradient>
    <linearGradient gradientTransform="matrix(0.0069, 0.0547, -0.3692, 0.0466, 2.75, -5.45)" gradientUnits="userSpaceOnUse" id="gradient2" spreadMethod="pad" x1="-819.2" x2="819.2">
      <stop offset="0.6666666666666666" stop-color="#ffffff"/>
      <stop offset="0.8549019607843137" stop-color="#aeaeae"/>
    </linearGradient>
    <linearGradient gradientTransform="matrix(0.0069, 0.0547, -0.3692, 0.0466, 17.95, -8.75)" gradientUnits="userSpaceOnUse" id="gradient3" spreadMethod="pad" x1="-819.2" x2="819.2">
      <stop offset="0.6666666666666666" stop-color="#ffffff"/>
      <stop offset="0.8549019607843137" stop-color="#aeaeae"/>
    </linearGradient>
  </defs>
</svg>
