<?xml version="1.0" encoding="UTF-8" standalone="no"?>
<svg xmlns:ffdec="https://www.free-decompiler.com/flash" xmlns:xlink="http://www.w3.org/1999/xlink" ffdec:objectType="shape" height="226.6px" width="691.65px" xmlns="http://www.w3.org/2000/svg">
  <g transform="matrix(1.0, 0.0, 0.0, 1.0, 345.8, 113.3)">
    <path d="M310.65 -3.2 L310.65 -10.95 309.55 -12.25 Q338.3 -8.65 345.85 0.55 342.8 13.55 310.65 17.7 L310.65 2.8 310.65 -3.2 310.65 2.8 Q264.9 2.65 183.05 6.8 L180.4 -5.2 Q248.95 -6.25 310.65 -3.2 M102.5 -2.85 L102.75 1.3 162.0 -3.05 164.25 7.75 Q45.2 14.15 -143.05 28.8 -234.25 39.85 -289.4 24.8 L-289.95 25.05 -297.3 8.15 -121.8 -11.0 -70.4 -10.0 -57.85 1.75 Q-38.7 9.0 -2.75 3.75 51.55 -0.55 102.5 -2.85 M-270.4 17.25 Q-276.85 18.55 -282.65 20.1 L-280.2 21.1 -282.65 22.2 Q-273.75 30.65 -228.1 28.3 -177.25 28.2 -183.0 15.05 -185.2 4.95 -220.25 7.25 -248.65 9.65 -270.4 17.25" fill="#cc3300" fill-rule="evenodd" stroke="none"/>
    <path d="M309.55 -12.25 L310.65 -10.95 310.65 -3.2 Q248.95 -6.25 180.4 -5.2 L172.15 -43.4 176.55 -45.1 172.15 -43.4 180.4 -5.2 183.05 6.8 189.5 36.5 183.05 6.8 Q264.9 2.65 310.65 2.8 L310.65 17.7 310.65 23.45 Q302.25 43.4 260.6 50.8 L265.65 73.3 Q276.0 72.7 279.5 73.3 293.4 75.7 296.85 85.55 295.0 91.1 284.25 99.9 L283.7 100.3 252.0 100.4 238.65 100.4 Q234.35 100.95 228.2 98.55 222.1 96.2 222.35 87.6 222.6 79.0 230.35 77.3 236.8 75.85 246.65 74.6 L246.65 74.05 240.8 53.35 237.8 53.65 Q181.6 58.75 125.3 59.2 126.65 60.9 125.45 59.85 L124.75 59.2 124.55 59.2 119.1 59.2 123.2 70.75 130.05 70.4 139.3 70.7 Q154.95 73.4 158.85 84.5 156.7 90.8 144.6 100.65 L144.0 101.2 108.25 101.2 93.15 101.2 Q88.35 101.85 81.4 99.2 74.5 96.5 74.8 86.85 75.05 77.1 83.8 75.15 90.4 73.7 103.95 72.35 L110.85 71.7 113.2 71.5 123.2 70.75 113.2 71.5 110.85 71.7 106.5 59.2 100.85 59.05 99.65 59.05 56.95 57.75 -241.0 42.25 Q-281.1 38.25 -288.5 28.4 L-289.95 25.05 -289.4 24.8 Q-234.25 39.85 -143.05 28.8 45.2 14.15 164.25 7.75 L162.0 -3.05 154.65 -38.95 Q147.15 -37.5 138.0 -36.3 L100.4 -34.75 100.3 -34.75 Q89.4 -34.75 79.15 -35.25 89.4 -34.75 100.3 -34.75 L100.4 -34.75 102.5 -2.85 Q51.55 -0.55 -2.75 3.75 -38.7 9.0 -57.85 1.75 L-70.4 -10.0 5.3 -8.5 Q29.4 -0.55 57.75 -2.8 L79.15 -35.25 52.85 -37.55 35.65 -40.4 Q66.15 -59.55 124.1 -66.3 L125.1 -66.45 Q177.7 -72.9 188.45 -54.45 L188.45 -54.4 Q186.0 -49.2 176.55 -45.1 L196.95 -10.95 Q229.9 -18.55 230.45 -24.1 L230.05 -24.45 230.45 -24.85 Q297.15 -24.75 309.55 -12.25 M154.4 -40.35 L154.65 -38.95 154.4 -40.35 M-121.8 -11.0 L-297.3 8.15 -310.45 -22.1 -203.65 -12.9 -203.35 -12.55 -121.8 -11.0 M100.85 59.05 Q99.45 57.6 99.45 55.8 99.45 52.9 102.95 50.85 106.4 48.8 113.3 48.8 120.15 48.8 122.5 53.4 L125.3 59.2 124.75 59.2 125.3 59.2 122.5 53.4 Q120.15 48.8 113.3 48.8 106.4 48.8 102.95 50.85 99.45 52.9 99.45 55.8 99.45 57.6 100.85 59.05 M188.35 26.9 Q192.85 30.8 194.0 31.45 199.4 34.55 199.4 38.95 199.4 43.35 194.0 46.5 188.5 49.65 180.8 49.65 173.05 49.65 167.65 46.5 162.15 43.35 162.2 38.95 162.15 37.2 168.85 30.45 L170.45 38.15 168.85 30.45 Q162.15 37.2 162.2 38.95 162.15 43.35 167.65 46.5 173.05 49.65 180.8 49.65 188.5 49.65 194.0 46.5 199.4 43.35 199.4 38.95 199.4 34.55 194.0 31.45 192.85 30.8 188.35 26.9 M169.6 29.75 L168.85 30.45 164.25 7.75 168.85 30.45 169.6 29.75 M172.15 -43.4 Q167.35 -41.8 161.25 -40.35 L154.65 -38.95 161.25 -40.35 Q167.35 -41.8 172.15 -43.4 M252.25 74.05 L250.1 74.15 246.65 74.6 250.1 74.15 250.8 74.05 252.25 74.05 265.65 73.3 252.25 74.05 250.8 74.05 250.1 74.15 252.25 74.05 M240.8 53.35 Q245.3 52.85 246.05 52.2 L260.6 50.8 246.05 52.2 Q245.3 52.85 240.8 53.35 L240.45 52.2 240.8 53.35 M-321.9 -48.5 L-345.8 -103.45 -296.65 -113.3 -213.75 -23.8 -321.9 -48.5 M-270.4 17.25 Q-248.65 9.65 -220.25 7.25 -185.2 4.95 -183.0 15.05 -177.25 28.2 -228.1 28.3 -273.75 30.65 -282.65 22.2 L-280.2 21.1 Q-275.5 19.05 -270.4 17.25" fill="#ffffff" fill-rule="evenodd" stroke="none"/>
    <path d="M230.05 -24.45 L230.45 -24.1 Q229.9 -18.55 196.95 -10.95 L176.55 -45.1 Q186.0 -49.2 188.45 -54.4 L188.45 -54.45 229.6 -24.85 230.05 -24.45 M52.85 -37.55 L79.15 -35.25 57.75 -2.8 Q29.4 -0.55 5.3 -8.5 21.9 -23.25 52.85 -37.55 M100.4 -34.75 L138.0 -36.3 Q147.15 -37.5 154.65 -38.95 L162.0 -3.05 102.75 1.3 102.5 -2.85 100.4 -34.75 M108.25 101.2 L144.0 101.2 144.45 101.35 Q143.35 105.55 139.5 108.8 134.0 113.3 126.35 113.3 118.65 113.3 113.3 108.8 109.25 105.5 108.25 101.2 M283.7 100.3 L284.1 100.5 Q283.15 104.25 279.7 107.1 274.85 111.05 268.05 111.1 261.25 111.05 256.5 107.1 252.9 104.2 252.0 100.4 L283.7 100.3" fill="#000000" fill-rule="evenodd" stroke="none"/>
    <path d="M-213.75 -23.8 L-203.65 -12.9 -310.45 -22.1 -321.9 -48.5 -213.75 -23.8" fill="#003366" fill-rule="evenodd" stroke="none"/>
    <path d="M309.55 -12.25 L310.65 -10.95 310.65 -3.2 310.65 2.8 310.65 17.7 Q342.8 13.55 345.85 0.55 338.3 -8.65 309.55 -12.25 297.15 -24.75 230.45 -24.85 L229.6 -24.85 188.45 -54.45 188.45 -54.4 Q186.0 -49.2 176.55 -45.1 L172.15 -43.4 180.4 -5.2 183.05 6.8 189.5 36.5 M310.65 17.7 L310.65 23.45 Q302.25 43.4 260.6 50.8 L265.65 73.3 Q276.0 72.7 279.5 73.3 293.4 75.7 296.85 85.55 295.0 91.1 284.25 99.9 L284.15 100.3 285.35 100.3 M188.45 -54.4 L188.45 -54.45 Q177.7 -72.9 125.1 -66.45 L124.1 -66.3 Q66.15 -59.55 35.65 -40.4 L52.85 -37.55 79.15 -35.25 Q89.4 -34.75 100.3 -34.75 L100.4 -34.75 138.0 -36.3 Q147.15 -37.5 154.65 -38.95 L154.4 -40.35 M102.75 1.3 L102.5 -2.85 M-70.4 -10.0 L-121.8 -11.0 -203.35 -12.55 -203.65 -12.9 -213.75 -23.8 -296.65 -113.3 -345.8 -103.45 -321.9 -48.5 -310.45 -22.1 -297.3 8.15 -289.95 25.05 -288.5 28.4 Q-281.1 38.25 -241.0 42.25 L56.95 57.75 99.65 59.05 104.0 71.7 M164.25 7.75 L162.0 -3.05 154.65 -38.95 161.25 -40.35 Q167.35 -41.8 172.15 -43.4 M110.85 71.7 L103.95 72.35 Q90.4 73.7 83.8 75.15 75.05 77.1 74.8 86.85 74.5 96.5 81.4 99.2 88.35 101.85 93.15 101.2 L108.25 101.2 144.0 101.2 144.6 100.65 Q156.7 90.8 158.85 84.5 154.95 73.4 139.3 70.7 L130.05 70.4 123.2 70.75 113.2 71.5 110.85 71.7 M100.85 59.05 L99.65 59.05 M124.55 59.2 L124.75 59.2 125.3 59.2 122.5 53.4 Q120.15 48.8 113.3 48.8 106.4 48.8 102.95 50.85 99.45 52.9 99.45 55.8 99.45 57.6 100.85 59.05 M246.65 74.05 L240.8 53.35 237.8 53.65 Q181.6 58.75 125.3 59.2 126.65 60.9 125.45 59.85 L124.75 59.2 M52.85 -37.55 Q21.9 -23.25 5.3 -8.5 L-70.4 -10.0 M164.25 7.75 L168.85 30.45 169.6 29.75 M170.45 38.15 L168.85 30.45 Q162.15 37.2 162.2 38.95 162.15 43.35 167.65 46.5 173.05 49.65 180.8 49.65 188.5 49.65 194.0 46.5 199.4 43.35 199.4 38.95 199.4 34.55 194.0 31.45 192.85 30.8 188.35 26.9 M252.0 100.4 L238.65 100.4 Q234.35 100.95 228.2 98.55 222.1 96.2 222.35 87.6 222.6 79.0 230.35 77.3 236.8 75.85 246.65 74.6 L250.1 74.15 250.8 74.05 252.25 74.05 265.65 73.3 M240.8 53.35 L240.45 52.2 M260.6 50.8 L246.05 52.2 Q245.3 52.85 240.8 53.35 M250.1 74.15 L252.25 74.05 M124.55 59.2 L130.05 70.4 M-270.4 17.25 Q-248.65 9.65 -220.25 7.25 -185.2 4.95 -183.0 15.05 -177.25 28.2 -228.1 28.3 -273.75 30.65 -282.65 22.2 L-280.2 21.1 Q-275.5 19.05 -270.4 17.25 M284.1 100.5 L284.15 100.3 283.7 100.3 284.25 99.9 M284.1 100.5 Q283.15 104.25 279.7 107.1 274.85 111.05 268.05 111.1 261.25 111.05 256.5 107.1 252.9 104.2 252.0 100.4 L283.7 100.3 M144.6 100.65 L144.55 101.2 145.85 101.2 M144.45 101.35 L144.55 101.2 144.0 101.2 M144.45 101.35 Q143.35 105.55 139.5 108.8 134.0 113.3 126.35 113.3 118.65 113.3 113.3 108.8 109.25 105.5 108.25 101.2" fill="none" stroke="#000000" stroke-linecap="round" stroke-linejoin="round" stroke-width="0.05"/>
  </g>
</svg>
