<?xml version="1.0" encoding="UTF-8" standalone="no"?>
<svg xmlns:ffdec="https://www.free-decompiler.com/flash" xmlns:xlink="http://www.w3.org/1999/xlink" ffdec:objectType="shape" height="52.85px" width="144.95px" xmlns="http://www.w3.org/2000/svg">
  <g transform="matrix(1.0, 0.0, 0.0, 1.0, 74.55, 18.05)">
    <path d="M-73.35 -9.55 L-74.55 -9.45 -73.25 -9.6 Q-73.3 -9.45 -73.35 -9.55" fill="#91b046" fill-rule="evenodd" stroke="none"/>
    <path d="M6.95 29.0 L5.1 27.75 7.75 26.0 7.4 20.95 9.4 20.75 9.1 28.7 8.5 28.65 8.4 28.65 7.9 28.7 7.8 27.0 6.5 27.8 7.65 28.75 6.95 29.0" fill="#4d4d4d" fill-rule="evenodd" stroke="none"/>
    <path d="M-43.7 24.6 L-41.45 22.25 -43.7 24.6 M-41.45 22.25 Q-40.0 23.35 -40.15 25.25 -40.3 26.95 -41.85 27.75 -42.95 28.35 -44.35 28.1 -45.65 27.7 -46.3 26.5 -47.0 25.2 -46.6 24.0 -46.0 22.3 -44.35 21.75 -42.7 21.25 -41.45 22.25 M9.1 28.7 L10.45 29.5 Q11.2 30.1 11.35 31.0 11.7 32.9 10.2 34.15 9.15 34.95 7.95 34.75 L6.9 34.25 Q5.75 33.6 5.5 32.45 5.0 30.2 6.95 29.0 L7.65 28.75 7.9 28.7 8.4 28.65 8.5 28.65 9.1 28.7" fill="#262626" fill-rule="evenodd" stroke="none"/>
    <path d="M-40.25 18.9 L-40.75 19.15" fill="none" stroke="#000000" stroke-linecap="round" stroke-linejoin="round" stroke-width="0.05"/>
    <path d="M-41.45 22.25 L-43.7 24.6 M-41.45 22.25 L-36.95 17.45" fill="none" stroke="#4d4d4d" stroke-linecap="round" stroke-linejoin="round" stroke-width="2.0"/>
    <path d="M19.8 12.15 L17.6 14.45 Q15.0 17.3 13.3 20.5 L13.3 20.55 Q12.75 22.85 10.8 24.0 7.55 25.8 3.95 24.45 L2.35 23.4 1.0 22.15 Q-0.15 21.0 -1.45 20.15 -3.9 18.55 -7.0 17.9 L-17.15 16.55 -26.6 15.5 -33.8 20.6 Q-35.1 21.7 -36.7 21.95 L-38.8 21.65 Q-39.7 21.65 -40.35 21.15 -42.15 19.85 -42.15 17.45 L-39.4 18.0 -36.45 18.3 Q-34.9 18.7 -33.6 17.8 L-32.45 16.65 Q-31.05 14.8 -30.4 12.65 -29.95 11.05 -29.1 9.6 -26.55 5.25 -22.0 3.7 L-21.3 5.2 Q-19.35 9.65 -15.1 12.0 L-13.05 12.75 Q-6.85 14.55 -0.5 13.75 1.75 13.45 3.65 12.35 L7.35 9.75 13.5 5.2 14.5 6.7 Q16.7 9.75 19.55 12.0 L19.6 12.05 19.8 12.15 M-37.45 3.7 L-37.65 3.7 -40.9 3.7 -50.15 3.6 -57.5 2.35 Q-61.35 1.45 -65.05 0.2 -68.15 -0.75 -70.8 -2.5 L-72.2 -3.85 Q-73.15 -5.05 -73.45 -6.5 -73.8 -8.3 -73.3 -10.0 -72.75 -12.05 -71.8 -13.9 -69.75 -10.3 -66.1 -8.05 -64.25 -6.9 -62.25 -5.95 -59.8 -4.65 -57.2 -3.7 -51.85 -2.0 -46.35 -0.6 L-41.6 0.25 -36.8 0.45 -37.45 3.7" fill="#9e834c" fill-rule="evenodd" stroke="none"/>
    <path d="M-71.8 -13.9 L-69.35 -16.4 Q-67.75 -17.8 -65.6 -18.05 -62.45 -18.25 -59.8 -16.6 L-53.8 -12.95 Q-50.8 -11.1 -47.6 -9.5 -45.15 -8.15 -42.45 -7.3 L-33.2 -4.35 Q-29.7 -7.7 -25.15 -8.75 L-16.3 -9.3 Q-12.0 -9.1 -7.8 -8.0 L1.35 -6.45 5.8 -5.8 10.8 -6.0 Q15.15 -6.4 19.2 -7.35 L20.9 -8.1 20.9 -8.15 Q23.3 -9.5 26.05 -9.95 28.8 -10.05 31.4 -9.05 36.25 -7.0 38.6 -2.45 35.7 -2.2 35.0 0.6 L34.1 2.6 Q32.6 5.1 29.65 5.2 27.45 5.4 27.15 7.45 26.95 8.65 27.85 9.65 29.75 11.85 32.5 12.35 30.75 13.25 28.8 13.5 24.05 14.1 19.8 12.15 L19.6 12.05 19.55 12.0 Q16.7 9.75 14.5 6.7 L13.5 5.2 7.35 9.75 3.65 12.35 Q1.75 13.45 -0.5 13.75 -6.85 14.55 -13.05 12.75 L-15.1 12.0 Q-19.35 9.65 -21.3 5.2 L-22.0 3.7 Q-26.55 5.25 -29.1 9.6 -29.95 11.05 -30.4 12.65 -31.05 14.8 -32.45 16.65 L-33.6 17.8 Q-34.9 18.7 -36.45 18.3 L-39.4 18.0 -42.15 17.45 -41.9 15.4 Q-41.0 13.7 -39.55 12.5 L-38.6 11.55 -37.95 10.5 -37.85 10.2 -37.6 8.15 -37.45 3.7 -36.8 0.45 -41.6 0.25 -46.35 -0.6 Q-51.85 -2.0 -57.2 -3.7 -59.8 -4.65 -62.25 -5.95 -64.25 -6.9 -66.1 -8.05 -69.75 -10.3 -71.8 -13.9 M-33.2 -4.35 L-34.5 -2.75 -36.8 0.45 -34.5 -2.75 -33.2 -4.35 M26.0 -4.55 Q23.85 -2.35 25.5 0.1 26.3 1.2 27.75 1.4 30.85 1.45 31.4 -1.55 31.6 -2.55 31.15 -3.4 30.3 -4.95 28.5 -5.25 27.05 -5.4 26.0 -4.55" fill="#c39d5c" fill-rule="evenodd" stroke="none"/>
    <path d="M26.0 -4.55 Q27.05 -5.4 28.5 -5.25 30.3 -4.95 31.15 -3.4 31.6 -2.55 31.4 -1.55 30.85 1.45 27.75 1.4 26.3 1.2 25.5 0.1 23.85 -2.35 26.0 -4.55" fill="#000000" fill-rule="evenodd" stroke="none"/>
    <path d="M38.6 -2.45 Q40.15 -2.1 41.2 -1.0 L43.0 1.2 45.4 4.55 Q46.65 6.1 48.5 6.95 52.5 8.7 56.7 9.45 L66.8 11.6 Q69.15 12.1 70.4 13.9 L70.4 14.6 70.0 15.25 70.0 15.45 69.25 15.75 Q64.35 16.65 59.4 16.0 L51.65 15.3 41.9 14.1 Q37.05 13.6 32.5 12.35 29.75 11.85 27.85 9.65 26.95 8.65 27.15 7.45 27.45 5.4 29.65 5.2 32.6 5.1 34.1 2.6 L35.0 0.6 Q35.7 -2.2 38.6 -2.45" fill="#b3b1aa" fill-rule="evenodd" stroke="none"/>
    <path d="M-71.8 -13.9 L-69.35 -16.4 Q-67.75 -17.8 -65.6 -18.05 -62.45 -18.25 -59.8 -16.6 L-53.8 -12.95 Q-50.8 -11.1 -47.6 -9.5 -45.15 -8.15 -42.45 -7.3 L-33.2 -4.35 Q-29.7 -7.7 -25.15 -8.75 L-16.3 -9.3 Q-12.0 -9.1 -7.8 -8.0 L1.35 -6.45 5.8 -5.8 10.8 -6.0 Q15.15 -6.4 19.2 -7.35 M20.9 -8.15 Q23.3 -9.5 26.05 -9.95 28.8 -10.05 31.4 -9.05 36.25 -7.0 38.6 -2.45 40.15 -2.1 41.2 -1.0 L43.0 1.2 45.4 4.55 Q46.65 6.1 48.5 6.95 52.5 8.7 56.7 9.45 L66.8 11.6 Q69.15 12.1 70.4 13.9 L70.4 14.6 70.0 15.25 M70.0 15.45 L69.25 15.75 Q64.35 16.65 59.4 16.0 L51.65 15.3 41.9 14.1 Q37.05 13.6 32.5 12.35 30.75 13.25 28.8 13.5 24.05 14.1 19.8 12.15 L17.6 14.45 Q15.0 17.3 13.3 20.5 M13.3 20.55 Q12.75 22.85 10.8 24.0 7.55 25.8 3.95 24.45 L2.35 23.4 1.0 22.15 Q-0.15 21.0 -1.45 20.15 -3.9 18.55 -7.0 17.9 L-17.15 16.55 -26.6 15.5 -33.8 20.6 M-41.9 15.4 Q-41.0 13.7 -39.55 12.5 L-38.6 11.55 -37.95 10.5 -37.85 10.2 -37.6 8.15 -37.45 3.7 -36.8 0.45 -34.5 -2.75 -33.2 -4.35 M-37.65 3.7 L-40.9 3.7 -50.15 3.6 -57.5 2.35 Q-61.35 1.45 -65.05 0.2 -68.15 -0.75 -70.8 -2.5 L-72.2 -3.85 Q-73.15 -5.05 -73.45 -6.5 -73.8 -8.3 -73.3 -10.0 -72.75 -12.05 -71.8 -13.9 M38.6 -2.45 Q35.7 -2.2 35.0 0.6 L34.1 2.6 Q32.6 5.1 29.65 5.2 27.45 5.4 27.15 7.45 26.95 8.65 27.85 9.65 29.75 11.85 32.5 12.35 M19.6 12.05 L19.55 12.0" fill="none" stroke="#000000" stroke-linecap="round" stroke-linejoin="round" stroke-width="0.05"/>
    <path d="M19.2 -7.35 L20.9 -8.1 M13.3 20.5 L13.3 20.55 M-33.8 20.6 Q-35.1 21.7 -36.7 21.95 L-38.8 21.65 Q-39.7 21.65 -40.35 21.15 -42.15 19.85 -42.15 17.45 L-41.9 15.4" fill="none" stroke="#000000" stroke-linecap="round" stroke-linejoin="round" stroke-width="0.05"/>
  </g>
</svg>
