<?xml version="1.0" encoding="UTF-8" standalone="no"?>
<svg xmlns:ffdec="https://www.free-decompiler.com/flash" xmlns:xlink="http://www.w3.org/1999/xlink" ffdec:objectType="shape" height="88.65px" width="59.75px" xmlns="http://www.w3.org/2000/svg">
  <g transform="matrix(1.0, 0.0, 0.0, 1.0, 29.4, 44.0)">
    <path d="M15.0 -22.9 Q9.35 -32.25 0.75 -32.25 -7.9 -32.25 -14.5 -22.95 -21.1 -13.6 -21.8 -0.3 -22.0 3.9 -21.6 7.75 -20.7 15.95 -16.85 22.35 -14.3 26.5 -11.2 28.85 -7.35 31.7 -2.55 31.75 6.1 31.75 12.7 22.4 19.3 13.05 20.0 -0.2 20.65 -13.5 15.0 -22.9 M23.45 -31.0 Q31.35 -18.0 30.2 0.35 29.0 18.75 19.45 31.75 9.9 44.7 -2.4 44.65 -14.7 44.65 -22.6 31.65 -30.45 18.65 -29.25 0.25 -28.05 -18.15 -18.5 -31.1 -8.95 -44.05 3.3 -44.0 15.6 -44.0 23.45 -31.0" fill="#ffffff" fill-rule="evenodd" stroke="none"/>
  </g>
</svg>
