<?xml version="1.0" encoding="UTF-8" standalone="no"?>
<svg xmlns:ffdec="https://www.free-decompiler.com/flash" xmlns:xlink="http://www.w3.org/1999/xlink" ffdec:objectType="shape" height="8.7px" width="269.75px" xmlns="http://www.w3.org/2000/svg">
  <g transform="matrix(1.0, 0.0, 0.0, 1.0, 133.85, 4.35)">
    <path d="M0.5 -4.35 Q2.55 -4.35 3.95 -3.35 5.4 -2.4 5.4 -1.05 L5.4 -1.0 5.45 -0.95 Q5.55 -2.2 6.7 -3.1 8.0 -4.1 9.8 -4.1 11.6 -4.1 12.9 -3.1 13.95 -2.3 14.15 -1.15 L14.8 -1.8 Q16.0 -2.8 17.7 -2.8 19.4 -2.8 20.6 -1.8 L20.9 -1.55 21.7 -2.4 Q22.9 -3.3 24.6 -3.3 26.3 -3.3 27.5 -2.4 L27.85 -2.1 28.85 -2.85 Q30.6 -3.85 33.1 -3.85 35.6 -3.85 37.35 -2.85 L38.25 -2.2 Q38.3 -3.0 39.15 -3.5 40.05 -4.1 41.3 -4.1 42.55 -4.1 43.45 -3.5 L44.3 -2.55 44.35 -2.6 Q45.7 -3.6 47.65 -3.6 49.6 -3.6 50.95 -2.6 L52.05 -1.35 53.15 -2.6 Q54.55 -3.6 56.5 -3.6 58.45 -3.6 59.85 -2.6 L60.75 -1.7 61.65 -2.85 Q62.8 -3.85 64.45 -3.85 66.1 -3.85 67.25 -2.85 L67.8 -2.3 68.6 -3.15 Q69.85 -4.1 71.6 -4.1 73.35 -4.1 74.6 -3.15 75.6 -2.45 75.8 -1.45 L76.4 -2.0 Q77.55 -2.8 79.15 -2.8 80.75 -2.8 81.85 -2.0 L82.45 -1.5 83.0 -1.95 Q84.6 -3.05 86.85 -3.05 88.6 -3.05 89.95 -2.35 L90.85 -3.25 Q92.1 -4.1 93.85 -4.1 95.6 -4.1 96.85 -3.25 97.95 -2.5 98.1 -1.5 L98.9 -2.3 Q100.25 -3.3 102.2 -3.3 104.15 -3.3 105.5 -2.3 L106.25 -1.55 106.8 -2.15 Q107.9 -3.05 109.45 -3.05 111.0 -3.05 112.05 -2.15 L112.85 -1.2 113.6 -2.05 Q114.85 -3.05 116.6 -3.05 118.35 -3.05 119.6 -2.05 L120.45 -1.1 Q120.65 -1.85 121.3 -2.4 122.3 -3.3 123.75 -3.3 125.2 -3.3 126.2 -2.4 L126.9 -1.55 127.05 -1.7 Q127.95 -2.5 129.2 -2.5 130.3 -2.5 131.15 -1.85 131.25 -2.15 131.65 -1.85 132.4 -2.55 133.4 -2.55 134.45 -2.55 135.15 -1.8 135.9 -1.1 135.9 -0.05 135.9 1.0 135.15 1.75 134.45 2.45 133.4 2.45 132.6 2.45 132.0 2.05 131.8 2.4 131.45 1.9 L131.45 1.95 131.35 2.05 Q130.45 2.8 129.2 2.8 127.95 2.8 127.05 2.05 L126.6 1.55 126.2 1.9 Q125.2 2.8 123.75 2.8 122.3 2.8 121.3 1.9 L120.75 1.25 Q120.45 2.15 119.6 2.85 118.35 3.85 116.6 3.85 114.85 3.85 113.6 2.85 L112.6 1.6 112.05 2.15 Q111.0 3.05 109.45 3.05 107.9 3.05 106.8 2.15 L106.4 1.75 105.5 2.6 Q104.15 3.6 102.2 3.6 100.6 3.6 99.45 2.95 L99.0 3.35 Q98.05 4.15 96.65 4.15 95.25 4.15 94.25 3.35 93.45 2.6 93.35 1.7 L92.2 1.5 Q91.85 2.5 90.7 3.3 89.1 4.35 86.85 4.35 84.6 4.35 83.0 3.3 82.05 2.65 81.7 1.85 80.65 2.5 79.15 2.5 77.55 2.5 76.4 1.75 75.65 1.2 75.45 0.55 L74.6 1.4 Q73.35 2.3 71.6 2.3 69.85 2.3 68.6 1.4 L68.05 0.9 67.25 1.9 Q66.1 2.85 64.45 2.85 62.8 2.85 61.65 1.9 L60.95 1.1 59.85 2.3 Q58.45 3.3 56.5 3.3 54.55 3.3 53.15 2.3 52.35 1.7 52.0 1.0 L50.95 2.15 Q49.6 3.1 47.65 3.1 45.7 3.1 44.35 2.15 L43.8 1.65 Q43.5 2.5 42.45 3.2 41.05 4.1 39.05 4.1 37.05 4.1 35.65 3.2 L35.0 2.7 33.1 2.85 Q30.6 2.85 28.85 1.9 L28.1 1.4 27.5 1.9 Q26.3 2.8 24.6 2.8 22.9 2.8 21.7 1.9 L21.55 1.8 20.6 2.95 Q19.4 3.9 17.7 3.9 16.0 3.9 14.8 2.95 13.8 2.15 13.65 1.05 L12.9 1.8 Q11.6 2.8 9.8 2.8 8.0 2.8 6.7 1.8 L6.65 1.75 5.8 2.85 Q4.9 3.55 3.55 3.55 2.2 3.55 1.25 2.85 L0.7 2.25 0.5 2.25 -0.45 2.2 -4.65 2.8 Q-7.4 2.8 -9.35 2.0 L-9.7 1.85 -10.4 2.45 Q-11.7 3.35 -13.5 3.35 -15.3 3.35 -16.6 2.45 L-17.45 1.6 -18.05 2.2 Q-19.25 3.1 -20.95 3.1 -22.65 3.1 -23.85 2.2 L-24.4 1.65 -25.2 2.55 Q-26.45 3.6 -28.2 3.6 -29.95 3.6 -31.2 2.55 L-31.3 2.45 -31.95 3.35 Q-32.7 4.1 -33.8 4.1 -34.9 4.1 -35.7 3.35 -36.4 2.65 -36.45 1.7 L-37.65 2.85 Q-39.15 3.85 -41.3 3.85 -43.45 3.85 -45.0 2.85 L-46.05 1.85 -46.6 2.3 Q-47.75 3.1 -49.4 3.1 -51.05 3.1 -52.25 2.3 L-52.45 2.15 Q-52.7 2.8 -53.45 3.35 -54.55 4.15 -56.15 4.15 -57.75 4.15 -58.9 3.35 L-59.65 2.5 -61.7 2.85 Q-63.5 2.85 -64.8 1.9 L-65.45 1.3 -66.45 2.3 Q-67.85 3.35 -69.9 3.35 -71.95 3.35 -73.4 2.3 L-74.45 1.15 -74.55 1.2 -74.55 1.35 Q-74.55 2.5 -75.9 3.35 -77.2 4.15 -79.05 4.15 -80.9 4.15 -82.25 3.35 L-83.2 2.5 -84.1 2.55 Q-85.65 2.55 -86.75 1.75 L-87.2 1.35 -87.6 1.65 Q-88.75 2.5 -90.4 2.5 -92.05 2.5 -93.25 1.65 L-93.65 1.3 Q-93.9 2.0 -94.6 2.55 -95.65 3.3 -97.15 3.3 -98.65 3.3 -99.7 2.55 L-100.25 2.0 Q-101.75 2.85 -103.8 2.85 -105.95 2.85 -107.5 1.9 L-108.45 1.05 -109.4 2.15 Q-110.6 3.05 -112.3 3.05 -113.7 3.05 -114.8 2.45 L-115.05 2.65 Q-115.8 3.3 -116.9 3.3 -118.0 3.3 -118.8 2.65 -119.55 2.0 -119.55 1.1 L-119.75 1.0 Q-120.1 1.7 -121.0 2.25 -122.4 3.1 -124.45 3.1 -126.4 3.1 -127.75 2.35 L-128.25 2.8 Q-129.2 3.55 -130.55 3.55 -131.9 3.55 -132.9 2.8 -133.85 2.0 -133.85 0.9 -133.85 -0.2 -132.9 -0.95 L-131.7 -1.55 Q-131.65 -2.25 -131.05 -2.7 -130.35 -3.3 -129.35 -3.3 -128.35 -3.3 -127.65 -2.7 L-127.25 -2.25 -124.45 -2.8 Q-122.8 -2.8 -121.6 -2.2 L-120.75 -3.5 Q-119.75 -4.35 -118.35 -4.35 -116.95 -4.35 -116.0 -3.5 -115.3 -2.95 -115.1 -2.2 -113.95 -3.05 -112.3 -3.05 -110.6 -3.05 -109.4 -2.15 L-108.75 -1.55 Q-108.4 -2.3 -107.5 -2.85 -105.95 -3.85 -103.8 -3.85 -101.75 -3.85 -100.25 -2.9 L-99.7 -3.4 Q-98.65 -4.1 -97.15 -4.1 -95.65 -4.1 -94.6 -3.4 -93.8 -2.85 -93.6 -2.15 L-93.25 -2.45 Q-92.05 -3.3 -90.4 -3.3 -88.75 -3.3 -87.6 -2.45 L-87.0 -1.95 -86.75 -2.2 Q-85.65 -3.05 -84.1 -3.05 -82.55 -3.05 -81.5 -2.2 L-81.05 -1.8 -80.3 -2.5 Q-79.1 -3.3 -77.45 -3.3 -75.8 -3.3 -74.65 -2.5 L-74.1 -2.1 -73.4 -2.8 Q-71.95 -3.85 -69.9 -3.85 -67.85 -3.85 -66.45 -2.8 -65.95 -2.45 -65.6 -2.0 L-64.8 -2.85 Q-63.5 -3.85 -61.7 -3.85 -59.9 -3.85 -58.6 -2.85 L-58.05 -2.4 Q-57.9 -3.1 -57.2 -3.6 -56.2 -4.35 -54.8 -4.35 -53.4 -4.35 -52.45 -3.6 -51.55 -3.0 -51.45 -2.1 L-49.4 -2.5 Q-47.75 -2.5 -46.6 -1.65 L-46.0 -1.15 -45.0 -2.05 Q-43.45 -3.05 -41.3 -3.05 L-40.0 -2.95 -39.3 -3.5 Q-37.95 -4.35 -36.0 -4.35 -34.05 -4.35 -32.7 -3.5 L-31.5 -2.25 -31.2 -2.55 Q-29.95 -3.6 -28.2 -3.6 -26.45 -3.6 -25.2 -2.55 L-24.45 -1.75 -23.85 -2.35 Q-22.65 -3.3 -20.95 -3.3 -19.25 -3.3 -18.05 -2.35 L-17.25 -1.5 -16.6 -2.1 Q-15.3 -3.05 -13.5 -3.05 L-11.85 -2.8 -11.4 -3.45 Q-10.75 -4.1 -9.8 -4.1 -8.85 -4.1 -8.2 -3.45 L-7.6 -2.5 -4.65 -2.8 -3.7 -2.75 -3.0 -3.35 Q-1.55 -4.35 0.5 -4.35" fill="url(#gradient0)" fill-rule="evenodd" stroke="none"/>
  </g>
  <defs>
    <linearGradient gradientTransform="matrix(0.1646, 0.0, 0.0, -0.0053, 1.0, 0.0)" gradientUnits="userSpaceOnUse" id="gradient0" spreadMethod="pad" x1="-819.2" x2="819.2">
      <stop offset="0.0" stop-color="#3366ff" stop-opacity="0.0"/>
      <stop offset="0.3686274509803922" stop-color="#3366cc" stop-opacity="0.7019608"/>
    </linearGradient>
  </defs>
</svg>
