<?xml version="1.0" encoding="UTF-8" standalone="no"?>
<svg xmlns:ffdec="https://www.free-decompiler.com/flash" xmlns:xlink="http://www.w3.org/1999/xlink" ffdec:objectType="shape" height="79.75px" width="111.45px" xmlns="http://www.w3.org/2000/svg">
  <g transform="matrix(1.0, 0.0, 0.0, 1.0, 55.7, 41.4)">
    <path d="M49.75 22.7 L45.15 22.55 45.15 27.15 49.75 27.3 49.75 22.7 M49.55 0.25 L45.0 0.1 45.0 4.75 49.55 4.9 49.55 0.25 M49.65 11.45 L45.1 11.3 45.1 16.0 49.65 16.15 49.65 11.45 M44.9 -6.5 L49.45 -6.35 49.45 -11.0 44.9 -11.15 44.9 -6.5 M44.85 -17.7 L49.4 -17.6 49.4 -22.15 44.85 -22.35 44.85 -17.7 M21.25 -0.8 L16.75 -1.0 16.75 3.65 21.25 3.85 21.25 -0.8 M30.7 -0.45 L26.2 -0.65 26.2 4.0 30.7 4.2 30.7 -0.45 M40.15 -0.1 L35.6 -0.25 35.6 4.4 40.15 4.55 40.15 -0.1 M40.05 -6.7 L40.05 -11.35 35.5 -11.5 35.5 -6.8 40.05 -6.7 M26.1 -11.9 L26.1 -7.2 30.65 -7.0 30.65 -11.65 26.1 -11.9 M39.95 -22.5 L35.45 -22.7 35.45 -18.05 39.95 -17.9 39.95 -22.5 M30.55 -18.25 L30.55 -22.85 26.05 -23.0 26.05 -18.45 30.55 -18.25 M11.85 -1.15 L7.3 -1.3 7.3 3.35 11.85 3.5 11.85 -1.15 M2.4 -8.1 L2.4 -12.75 -2.15 -12.9 -2.15 -8.25 2.4 -8.1 M16.7 -12.2 L16.7 -7.55 21.2 -7.35 21.2 -12.0 16.7 -12.2 M11.8 -7.7 L11.8 -12.35 7.25 -12.5 7.25 -7.85 11.8 -7.7 M2.3 -19.3 L2.3 -23.9 -2.2 -24.1 -2.2 -19.5 2.3 -19.3 M11.7 -18.95 L11.7 -23.55 7.2 -23.7 7.2 -19.1 11.7 -18.95 M16.6 -23.35 L16.6 -18.75 21.15 -18.6 21.15 -23.2 16.6 -23.35 M45.25 37.85 L40.35 37.85 40.35 33.55 35.8 33.4 35.8 37.85 30.9 37.85 -8.55 37.85 -8.55 -40.85 -8.15 -40.8 55.25 -38.6 55.25 37.85 49.8 37.85 49.8 33.9 45.25 33.75 45.25 37.85 M2.4 3.05 L2.4 -1.55 -2.1 -1.7 -2.1 2.95 2.4 3.05 M2.55 25.55 L2.55 20.95 -1.95 20.8 -1.95 25.45 2.55 25.55 M21.4 26.35 L21.4 21.75 16.9 21.5 16.9 26.1 21.4 26.35 M30.9 37.85 L30.9 33.2 26.4 33.05 26.4 37.7 30.9 37.85 M12.05 32.5 L7.5 32.35 7.5 37.0 12.05 37.15 12.05 32.5 M2.65 36.8 L2.65 32.15 -1.9 32.0 -1.9 36.7 2.65 36.8 M16.95 32.7 L16.95 37.35 21.45 37.55 21.45 32.9 16.95 32.7 M11.95 21.3 L7.45 21.15 7.45 25.75 11.95 25.9 11.95 21.3 M11.9 10.05 L7.4 9.9 7.4 14.6 11.9 14.75 11.9 10.05 M2.5 14.35 L2.5 9.7 -2.05 9.55 -2.05 14.25 2.5 14.35 M21.35 15.1 L21.35 10.4 16.8 10.2 16.8 14.95 21.35 15.1 M26.25 10.55 L26.25 15.25 30.75 15.45 30.75 10.75 26.25 10.55 M30.85 22.05 L26.3 21.85 26.3 26.45 30.85 26.6 30.85 22.05 M40.25 22.35 L35.7 22.2 35.7 26.8 40.25 26.95 40.25 22.35 M40.2 11.05 L35.65 10.95 35.65 15.65 40.2 15.75 40.2 11.05" fill="#b9aeac" fill-rule="evenodd" stroke="none"/>
    <path d="M16.6 -23.35 L21.15 -23.2 21.15 -18.6 16.6 -18.75 16.6 -23.35 M11.7 -18.95 L7.2 -19.1 7.2 -23.7 11.7 -23.55 11.7 -18.95 M2.3 -19.3 L-2.2 -19.5 -2.2 -24.1 2.3 -23.9 2.3 -19.3 M11.8 -7.7 L7.25 -7.85 7.25 -12.5 11.8 -12.35 11.8 -7.7 M16.7 -12.2 L21.2 -12.0 21.2 -7.35 16.7 -7.55 16.7 -12.2 M2.4 -8.1 L-2.15 -8.25 -2.15 -12.9 2.4 -12.75 2.4 -8.1 M11.85 -1.15 L11.85 3.5 7.3 3.35 7.3 -1.3 11.85 -1.15 M30.55 -18.25 L26.05 -18.45 26.05 -23.0 30.55 -22.85 30.55 -18.25 M39.95 -22.5 L39.95 -17.9 35.45 -18.05 35.45 -22.7 39.95 -22.5 M26.1 -11.9 L30.65 -11.65 30.65 -7.0 26.1 -7.2 26.1 -11.9 M40.05 -6.7 L35.5 -6.8 35.5 -11.5 40.05 -11.35 40.05 -6.7 M40.15 -0.1 L40.15 4.55 35.6 4.4 35.6 -0.25 40.15 -0.1 M30.7 -0.45 L30.7 4.2 26.2 4.0 26.2 -0.65 30.7 -0.45 M21.25 -0.8 L21.25 3.85 16.75 3.65 16.75 -1.0 21.25 -0.8 M44.85 -17.7 L44.85 -22.35 49.4 -22.15 49.4 -17.6 44.85 -17.7 M44.9 -6.5 L44.9 -11.15 49.45 -11.0 49.45 -6.35 44.9 -6.5 M49.65 11.45 L49.65 16.15 45.1 16.0 45.1 11.3 49.65 11.45 M49.55 0.25 L49.55 4.9 45.0 4.75 45.0 0.1 49.55 0.25 M49.75 22.7 L49.75 27.3 45.15 27.15 45.15 22.55 49.75 22.7 M49.8 37.85 L45.25 37.85 45.25 33.75 49.8 33.9 49.8 37.85 M40.35 37.85 L35.8 37.85 35.8 33.4 40.35 33.55 40.35 37.85 M40.2 11.05 L40.2 15.75 35.65 15.65 35.65 10.95 40.2 11.05 M40.25 22.35 L40.25 26.95 35.7 26.8 35.7 22.2 40.25 22.35 M30.85 22.05 L30.85 26.6 26.3 26.45 26.3 21.85 30.85 22.05 M26.25 10.55 L30.75 10.75 30.75 15.45 26.25 15.25 26.25 10.55 M21.35 15.1 L16.8 14.95 16.8 10.2 21.35 10.4 21.35 15.1 M2.5 14.35 L-2.05 14.25 -2.05 9.55 2.5 9.7 2.5 14.35 M11.9 10.05 L11.9 14.75 7.4 14.6 7.4 9.9 11.9 10.05 M11.95 21.3 L11.95 25.9 7.45 25.75 7.45 21.15 11.95 21.3 M16.95 32.7 L21.45 32.9 21.45 37.55 16.95 37.35 16.95 32.7 M2.65 36.8 L-1.9 36.7 -1.9 32.0 2.65 32.15 2.65 36.8 M12.05 32.5 L12.05 37.15 7.5 37.0 7.5 32.35 12.05 32.5 M30.9 37.85 L26.4 37.7 26.4 33.05 30.9 33.2 30.9 37.85 M21.4 26.35 L16.9 26.1 16.9 21.5 21.4 21.75 21.4 26.35 M2.55 25.55 L-1.95 25.45 -1.95 20.8 2.55 20.95 2.55 25.55 M2.4 3.05 L-2.1 2.95 -2.1 -1.7 2.4 -1.55 2.4 3.05" fill="#404040" fill-rule="evenodd" stroke="none"/>
    <path d="M-8.55 37.85 L-50.05 37.85 -55.2 37.25 -55.2 -39.1 -9.05 -40.85 -8.65 -40.9 -8.65 -40.85 -8.55 -40.85 -8.55 37.85 M-47.5 32.9 L-50.7 33.05 -50.7 37.7 -47.5 37.6 -47.5 32.9 M-40.8 32.7 L-44.05 32.8 -44.05 37.45 -40.8 37.4 -40.8 32.7 M-47.55 21.7 L-50.75 21.85 -50.75 26.4 -47.55 26.3 -47.55 21.7 M-50.85 15.3 L-47.6 15.1 -47.6 10.4 -50.85 10.6 -50.85 15.3 M-40.9 21.5 L-44.1 21.6 -44.1 26.15 -40.9 26.15 -40.9 21.5 M-40.9 10.25 L-44.15 10.4 -44.15 15.05 -40.9 14.95 -40.9 10.25 M-14.05 31.95 L-17.25 32.1 -17.25 36.75 -14.05 36.65 -14.05 31.95 M-34.15 32.55 L-37.35 32.65 -37.35 37.3 -34.15 37.25 -34.15 32.55 M-24.0 32.25 L-24.0 36.9 -20.7 36.85 -20.7 32.2 -24.0 32.25 M-27.4 36.95 L-27.4 32.3 -30.65 32.45 -30.65 37.1 -27.4 36.95 M-27.5 9.95 L-30.75 9.95 -30.75 14.65 -27.5 14.6 -27.5 9.95 M-27.5 21.15 L-30.65 21.25 -30.65 25.8 -27.5 25.8 -27.5 21.15 M-20.8 20.95 L-24.0 21.1 -24.0 25.65 -20.8 25.55 -20.8 20.95 M-34.2 21.35 L-37.4 21.4 -37.4 26.0 -34.2 25.95 -34.2 21.35 M-34.25 10.05 L-37.45 10.15 -37.45 14.85 -34.25 14.75 -34.25 10.05 M-20.8 9.7 L-24.1 9.8 -24.1 14.5 -20.8 14.4 -20.8 9.7 M-17.35 9.6 L-17.35 14.3 -14.1 14.2 -14.1 9.55 -17.35 9.6 M-14.05 20.75 L-17.3 20.9 -17.3 25.5 -14.05 25.4 -14.05 20.75 M-14.15 -1.6 L-17.4 -1.6 -17.4 3.05 -14.15 3.0 -14.15 -1.6 M-14.25 -12.9 L-17.5 -12.8 -17.5 -8.15 -14.25 -8.25 -14.25 -12.9 M-14.3 -24.1 L-17.55 -23.95 -17.55 -19.35 -14.3 -19.45 -14.3 -24.1 M-27.6 -1.25 L-30.75 -1.25 -30.75 3.4 -27.6 3.35 -27.6 -1.25 M-30.85 -7.8 L-27.6 -7.9 -27.6 -12.55 -30.85 -12.45 -30.85 -7.8 M-20.9 -1.5 L-24.1 -1.4 -24.1 3.25 -20.9 3.1 -20.9 -1.5 M-34.3 -1.15 L-37.5 -1.0 -37.5 3.6 -34.3 3.5 -34.3 -1.15 M-34.35 -12.35 L-37.55 -12.25 -37.55 -7.6 -34.35 -7.65 -34.35 -12.35 M-34.35 -18.85 L-34.35 -23.45 -37.6 -23.4 -37.6 -18.8 -34.35 -18.85 M-21.0 -19.3 L-21.0 -23.9 -24.2 -23.8 -24.2 -19.2 -21.0 -19.3 M-20.95 -12.75 L-24.15 -12.6 -24.15 -7.95 -20.95 -8.1 -20.95 -12.75 M-27.65 -19.1 L-27.65 -23.65 -30.9 -23.6 -30.9 -19.0 -27.65 -19.1 M-47.65 -0.8 L-50.85 -0.65 -50.85 3.95 -47.65 3.85 -47.65 -0.8 M-40.95 -0.9 L-44.2 -0.8 -44.2 3.85 -40.95 3.7 -40.95 -0.9 M-41.0 -12.1 L-44.2 -12.0 -44.2 -7.35 -41.0 -7.45 -41.0 -12.1 M-50.9 -11.9 L-50.9 -7.2 -47.65 -7.3 -47.65 -11.95 -50.9 -11.9 M-44.25 -18.6 L-41.05 -18.75 -41.05 -23.35 -44.25 -23.2 -44.25 -18.6 M-47.75 -18.5 L-47.75 -23.1 -50.95 -23.1 -50.95 -18.5 -47.75 -18.5" fill="#f9ead3" fill-rule="evenodd" stroke="none"/>
    <path d="M-47.75 -18.5 L-50.95 -18.5 -50.95 -23.1 -47.75 -23.1 -47.75 -18.5 M-44.25 -18.6 L-44.25 -23.2 -41.05 -23.35 -41.05 -18.75 -44.25 -18.6 M-50.9 -11.9 L-47.65 -11.95 -47.65 -7.3 -50.9 -7.2 -50.9 -11.9 M-41.0 -12.1 L-41.0 -7.45 -44.2 -7.35 -44.2 -12.0 -41.0 -12.1 M-40.95 -0.9 L-40.95 3.7 -44.2 3.85 -44.2 -0.8 -40.95 -0.9 M-47.65 -0.8 L-47.65 3.85 -50.85 3.95 -50.85 -0.65 -47.65 -0.8 M-27.65 -19.1 L-30.9 -19.0 -30.9 -23.6 -27.65 -23.65 -27.65 -19.1 M-20.95 -12.75 L-20.95 -8.1 -24.15 -7.95 -24.15 -12.6 -20.95 -12.75 M-21.0 -19.3 L-24.2 -19.2 -24.2 -23.8 -21.0 -23.9 -21.0 -19.3 M-34.35 -18.85 L-37.6 -18.8 -37.6 -23.4 -34.35 -23.45 -34.35 -18.85 M-34.35 -12.35 L-34.35 -7.65 -37.55 -7.6 -37.55 -12.25 -34.35 -12.35 M-34.3 -1.15 L-34.3 3.5 -37.5 3.6 -37.5 -1.0 -34.3 -1.15 M-20.9 -1.5 L-20.9 3.1 -24.1 3.25 -24.1 -1.4 -20.9 -1.5 M-30.85 -7.8 L-30.85 -12.45 -27.6 -12.55 -27.6 -7.9 -30.85 -7.8 M-27.6 -1.25 L-27.6 3.35 -30.75 3.4 -30.75 -1.25 -27.6 -1.25 M-14.3 -24.1 L-14.3 -19.45 -17.55 -19.35 -17.55 -23.95 -14.3 -24.1 M-14.25 -12.9 L-14.25 -8.25 -17.5 -8.15 -17.5 -12.8 -14.25 -12.9 M-14.15 -1.6 L-14.15 3.0 -17.4 3.05 -17.4 -1.6 -14.15 -1.6 M-14.05 20.75 L-14.05 25.4 -17.3 25.5 -17.3 20.9 -14.05 20.75 M-17.35 9.6 L-14.1 9.55 -14.1 14.2 -17.35 14.3 -17.35 9.6 M-20.8 9.7 L-20.8 14.4 -24.1 14.5 -24.1 9.8 -20.8 9.7 M-34.25 10.05 L-34.25 14.75 -37.45 14.85 -37.45 10.15 -34.25 10.05 M-34.2 21.35 L-34.2 25.95 -37.4 26.0 -37.4 21.4 -34.2 21.35 M-20.8 20.95 L-20.8 25.55 -24.0 25.65 -24.0 21.1 -20.8 20.95 M-27.5 21.15 L-27.5 25.8 -30.65 25.8 -30.65 21.25 -27.5 21.15 M-27.5 9.95 L-27.5 14.6 -30.75 14.65 -30.75 9.95 -27.5 9.95 M-27.4 36.95 L-30.65 37.1 -30.65 32.45 -27.4 32.3 -27.4 36.95 M-24.0 32.25 L-20.7 32.2 -20.7 36.85 -24.0 36.9 -24.0 32.25 M-34.15 32.55 L-34.15 37.25 -37.35 37.3 -37.35 32.65 -34.15 32.55 M-14.05 31.95 L-14.05 36.65 -17.25 36.75 -17.25 32.1 -14.05 31.95 M-40.9 10.25 L-40.9 14.95 -44.15 15.05 -44.15 10.4 -40.9 10.25 M-40.9 21.5 L-40.9 26.15 -44.1 26.15 -44.1 21.6 -40.9 21.5 M-50.85 15.3 L-50.85 10.6 -47.6 10.4 -47.6 15.1 -50.85 15.3 M-47.55 21.7 L-47.55 26.3 -50.75 26.4 -50.75 21.85 -47.55 21.7 M-40.8 32.7 L-40.8 37.4 -44.05 37.45 -44.05 32.8 -40.8 32.7 M-47.5 32.9 L-47.5 37.6 -50.7 37.7 -50.7 33.05 -47.5 32.9" fill="#777777" fill-rule="evenodd" stroke="none"/>
    <path d="M-55.2 37.25 L-55.2 -39.1 -9.05 -40.85 -8.65 -40.9 -8.65 -40.85 -8.55 -40.85 -8.15 -40.8 55.25 -38.6 55.25 37.85" fill="none" stroke="#000000" stroke-linecap="round" stroke-linejoin="round" stroke-width="1.0"/>
  </g>
</svg>
