<?xml version="1.0" encoding="UTF-8" standalone="no"?>
<svg xmlns:ffdec="https://www.free-decompiler.com/flash" xmlns:xlink="http://www.w3.org/1999/xlink" ffdec:objectType="shape" height="36.45px" width="248.05px" xmlns="http://www.w3.org/2000/svg">
  <g transform="matrix(1.0, 0.0, 0.0, 1.0, 124.0, 18.2)">
    <path d="M95.45 12.2 Q106.1 11.5 116.25 13.5 117.55 13.65 118.8 14.25 121.8 15.65 124.05 18.2 L-112.65 18.25 -124.0 17.9 -123.2 17.25 Q-117.25 12.9 -109.7 12.7 L-102.2 12.5 -102.1 12.65 Q-101.2 13.85 -99.65 13.85 L-83.95 13.9 -78.85 14.0 -58.4 12.85 -48.9 13.1 -46.0 13.6 -40.15 12.75 -32.55 13.2 Q-30.25 13.75 -27.9 13.25 -24.85 12.5 -21.7 12.25 L-13.45 12.95 Q-6.8 14.3 -0.15 12.7 2.75 12.0 5.7 12.7 L10.25 13.45 19.95 12.8 27.4 12.5 Q37.95 13.2 48.45 12.55 L67.2 12.6 77.8 12.95 86.8 12.7 95.45 12.2" fill="#ffffd1" fill-rule="evenodd" stroke="none"/>
    <path d="M-102.2 12.5 L-102.2 12.2 -102.5 10.9 -98.0 11.05 -96.65 8.05 -91.85 6.4 -84.05 9.4 -82.0 7.8 -81.9 7.6 -78.75 9.9 -77.35 10.35 -76.25 10.05 -75.2 8.75 -71.1 9.45 -69.55 9.25 Q-67.35 8.3 -64.95 8.35 L-65.25 4.85 -62.5 0.05 -59.45 0.05 -59.45 1.45 -56.95 1.2 -56.45 0.35 Q-53.4 2.5 -49.8 2.7 -48.45 0.35 -46.05 -0.35 -45.05 -0.75 -44.1 -0.1 L-41.5 1.75 -39.75 2.8 Q-39.0 1.3 -37.3 0.9 L-33.9 0.1 -32.5 -4.1 -27.4 -2.7 Q-27.25 -5.25 -24.65 -5.5 -20.75 -5.55 -17.2 -7.5 L-10.35 -7.4 Q-7.5 -9.65 -4.15 -11.25 L-2.9 -12.0 Q0.5 -14.3 4.75 -12.5 5.3 -12.25 5.85 -12.65 10.3 -15.65 15.45 -14.6 L18.9 -14.25 25.0 -13.95 Q26.5 -14.0 27.2 -12.6 31.9 -10.2 37.0 -12.5 L38.2 -12.95 41.9 -13.5 44.8 -13.9 46.05 -16.85 Q49.8 -15.95 52.7 -18.2 L54.9 -17.8 Q56.2 -15.4 58.8 -15.6 L66.25 -16.7 Q67.7 -17.0 68.5 -15.7 69.2 -14.6 68.7 -13.2 L70.65 -12.95 71.45 -8.5 79.3 -5.5 81.4 -2.15 Q85.0 -2.35 87.4 0.5 L88.3 1.05 91.15 1.9 95.45 12.2 86.8 12.7 77.8 12.95 67.2 12.6 48.45 12.55 Q37.95 13.2 27.4 12.5 L19.95 12.8 10.25 13.45 5.7 12.7 Q2.75 12.0 -0.15 12.7 -6.8 14.3 -13.45 12.95 L-21.7 12.25 Q-24.85 12.5 -27.9 13.25 -30.25 13.75 -32.55 13.2 L-40.15 12.75 -46.0 13.6 -48.9 13.1 -58.4 12.85 -78.85 14.0 -83.95 13.9 -99.65 13.85 Q-101.2 13.85 -102.1 12.65 L-102.2 12.5 M66.8 -8.95 L66.85 -6.55 67.65 -6.35 68.1 -9.6 Q66.9 -12.2 64.45 -13.25 L63.8 -13.3 64.45 -11.6 Q63.15 -12.95 61.4 -13.25 60.0 -13.55 58.45 -13.25 61.55 -9.25 66.45 -8.9 L66.8 -8.95 M62.1 1.75 L62.75 1.15 63.2 -3.1 62.15 -3.55 60.15 -6.5 58.25 -6.85 60.15 -6.5 62.15 -3.55 63.2 -3.1 62.75 1.15 62.1 1.75 M66.15 -5.8 Q66.8 -4.85 68.25 -3.9 L69.05 -3.1 68.8 -3.05 72.7 2.9 Q74.35 4.75 75.75 6.95 76.0 7.35 76.6 7.15 L77.0 7.1 Q77.15 4.45 74.75 3.05 L74.45 2.9 72.15 -1.5 Q71.35 -2.85 69.95 -3.4 L70.15 -3.6 Q69.6 -5.9 66.9 -5.95 L66.15 -5.8 M73.1 -5.8 L73.3 -5.95 Q72.95 -7.15 71.2 -7.8 70.2 -8.2 69.35 -7.8 70.5 -5.75 73.1 -5.8 M79.25 7.3 L79.0 4.8 76.95 4.0 76.35 1.35 74.55 0.65 76.35 1.35 76.95 4.0 79.0 4.8 79.25 7.3 M61.9 4.05 L64.45 7.25 64.85 6.4 64.05 4.7 61.9 4.05 M85.85 9.7 L86.0 5.2 85.45 4.05 84.2 4.15 Q83.4 7.0 85.1 9.7 L85.85 9.7 M56.35 -0.8 L57.85 2.9 58.7 2.75 Q59.55 -1.05 57.75 -4.1 L56.5 -5.45 54.05 -7.05 Q52.85 -9.35 50.75 -10.5 49.3 -11.4 47.75 -11.65 L47.55 -11.65 47.3 -11.6 47.2 -11.4 42.45 -11.8 42.5 -10.3 47.65 -10.55 48.2 -10.15 47.8 -9.9 48.1 -9.0 45.95 -10.0 45.25 -9.8 42.7 -10.05 42.5 -10.0 42.35 -9.3 50.65 -5.45 52.45 -2.95 55.1 5.05 55.75 5.05 56.35 -0.8 M42.2 -4.65 Q39.95 -8.8 35.2 -8.35 37.55 -4.45 42.0 -4.6 L42.2 -4.65 M22.05 -5.8 L19.5 -7.35 18.7 -7.1 18.55 -6.2 20.35 -5.05 8.25 -6.75 8.4 -5.45 Q9.55 -4.45 11.7 -4.75 L14.0 -4.6 Q16.6 -2.15 20.05 -2.5 L21.65 -1.45 23.9 3.15 24.65 3.15 Q24.7 -1.65 21.95 -5.6 L22.05 -5.8 M25.45 -3.35 Q25.1 -2.35 25.0 -1.15 24.8 2.25 27.5 4.15 L28.2 4.35 28.6 3.45 26.15 -1.2 25.95 -3.6 25.45 -3.35 M36.2 1.5 L35.85 1.0 Q35.7 0.7 35.7 0.4 35.75 -0.3 35.3 -0.8 34.7 -1.35 34.8 -2.55 L34.8 -2.75 Q34.95 -3.9 33.95 -4.4 L32.5 -5.25 Q31.1 -6.1 29.65 -6.1 31.1 -6.1 32.5 -5.25 L33.95 -4.4 Q34.95 -3.9 34.8 -2.75 L34.8 -2.55 Q34.7 -1.35 35.3 -0.8 35.75 -0.3 35.7 0.4 35.7 0.7 35.85 1.0 L36.2 1.5 M25.75 -6.65 L29.3 -4.25 29.65 -3.5 29.75 -3.2 30.45 -2.65 31.75 -1.85 31.9 -1.6 32.1 0.8 Q32.15 1.25 32.65 1.35 32.15 1.25 32.1 0.8 L31.9 -1.6 31.75 -1.85 30.45 -2.65 29.75 -3.2 29.65 -3.5 29.3 -4.25 25.75 -6.65 M33.4 8.8 L40.9 8.8 40.9 7.1 33.4 7.1 33.4 8.8 M19.75 6.8 L16.25 -0.35 15.45 -0.35 Q14.75 4.55 19.4 6.95 L19.75 6.8 M49.05 7.1 Q48.65 7.15 48.5 7.35 48.3 7.55 48.35 7.95 48.8 8.5 49.5 8.65 L55.6 8.85 55.45 7.5 49.05 7.1 M40.2 0.05 L44.05 2.75 41.15 -0.9 40.35 -0.75 40.2 0.05 M1.75 -4.6 L1.75 -3.2 3.15 -3.2 3.15 -4.6 1.75 -4.6 M1.9 -2.2 Q2.05 -0.4 3.85 -0.55 L2.7 -2.55 1.9 -2.2 M-0.8 -4.4 L-1.95 -5.3 0.0 -5.3 -0.25 -6.55 -4.7 -6.8 -3.55 -3.95 -6.05 -4.15 -2.4 -0.9 -3.0 -0.9 Q-3.6 2.7 -0.25 4.25 L0.7 4.35 Q0.6 2.1 -0.8 0.1 L-0.45 0.0 -2.6 -3.65 -2.35 -3.65 Q-1.15 -3.4 -0.75 -4.0 L-0.8 -4.4 M-14.4 -4.4 L-6.4 -4.55 -6.2 -5.45 -10.55 -6.5 -14.55 -6.1 -14.4 -4.4 M-19.55 -0.95 L-20.1 -1.45 -20.95 -1.35 -19.55 -0.95 -17.7 -0.4 -15.8 3.7 -17.7 -0.4 -19.55 -0.95 M-7.25 0.15 Q-5.95 1.1 -4.35 0.8 -4.9 -1.2 -7.35 -1.05 -8.85 -1.05 -7.25 0.15 M-9.05 -0.65 L-9.5 -0.8 -10.0 -0.65 -10.2 -0.3 -10.0 0.05 -9.5 0.2 -9.05 0.05 -8.85 -0.3 -9.05 -0.65 M-6.75 6.95 L-0.55 7.25 Q-0.75 5.9 -2.25 5.4 L-6.95 5.1 -6.95 5.15 -6.75 6.95 M6.6 -1.05 Q6.65 -0.75 7.0 -0.55 L8.85 1.1 9.15 1.55 Q9.4 2.15 9.3 2.85 9.15 3.8 9.75 4.0 L10.0 4.05 Q12.05 4.6 11.85 7.1 12.05 4.6 10.0 4.05 L9.75 4.0 Q9.15 3.8 9.3 2.85 9.4 2.15 9.15 1.55 L8.85 1.1 7.0 -0.55 Q6.65 -0.75 6.6 -1.05 M1.7 2.4 L1.95 2.75 2.4 2.9 2.9 2.75 3.1 2.4 2.9 2.05 2.4 1.9 Q2.1 1.9 1.95 2.05 1.7 2.15 1.7 2.4 M-57.2 5.6 Q-55.3 4.4 -53.1 5.1 L-52.25 5.35 Q-49.7 5.65 -48.65 8.1 -49.7 5.65 -52.25 5.35 L-53.1 5.1 Q-55.3 4.4 -57.2 5.6 M-57.65 7.85 L-55.3 6.55 -57.55 6.0 -57.65 7.85 M-28.9 3.85 Q-33.25 2.6 -37.2 4.7 L-37.1 4.85 -29.55 4.5 Q-29.15 4.35 -28.9 3.85 M-28.45 2.3 L-28.6 3.5 Q-26.95 6.25 -23.75 6.2 L-23.3 6.15 -27.65 2.3 -28.45 2.3 M-39.6 8.65 L-38.65 8.5 -40.9 6.55 Q-41.9 7.8 -39.6 8.65 M-24.05 -0.2 L-20.95 -1.35 -24.05 -0.2" fill="#488451" fill-rule="evenodd" stroke="none"/>
    <path d="M66.8 -8.95 L66.45 -8.9 Q61.55 -9.25 58.45 -13.25 60.0 -13.55 61.4 -13.25 63.15 -12.95 64.45 -11.6 L63.8 -13.3 64.45 -13.25 Q66.9 -12.2 68.1 -9.6 L67.65 -6.35 66.85 -6.55 66.8 -8.95 M73.1 -5.8 Q70.5 -5.75 69.35 -7.8 70.2 -8.2 71.2 -7.8 72.95 -7.15 73.3 -5.95 L73.1 -5.8 M66.15 -5.8 L66.9 -5.95 Q69.6 -5.9 70.15 -3.6 L69.95 -3.4 Q71.35 -2.85 72.15 -1.5 L74.45 2.9 74.75 3.05 Q77.15 4.45 77.0 7.1 L76.6 7.15 Q76.0 7.35 75.75 6.95 74.35 4.75 72.7 2.9 L68.8 -3.05 69.05 -3.1 68.25 -3.9 Q66.8 -4.85 66.15 -5.8 M52.45 -2.95 L50.65 -5.45 42.35 -9.3 42.5 -10.0 42.7 -10.05 45.25 -9.8 45.95 -10.0 48.1 -9.0 47.8 -9.9 48.2 -10.15 47.65 -10.55 42.5 -10.3 42.45 -11.8 47.2 -11.4 47.3 -11.6 47.55 -11.65 47.75 -11.65 Q49.3 -11.4 50.75 -10.5 52.85 -9.35 54.05 -7.05 L56.5 -5.45 57.75 -4.1 Q59.55 -1.05 58.7 2.75 L57.85 2.9 56.35 -0.8 54.05 -4.5 53.35 -1.85 52.45 -2.95 M85.85 9.7 L85.1 9.7 Q83.4 7.0 84.2 4.15 L85.45 4.05 86.0 5.2 85.85 9.7 M61.9 4.05 L64.05 4.7 64.85 6.4 64.45 7.25 61.9 4.05 M25.45 -3.35 L25.95 -3.6 26.15 -1.2 28.6 3.45 28.2 4.35 27.5 4.15 Q24.8 2.25 25.0 -1.15 25.1 -2.35 25.45 -3.35 M22.05 -5.8 L21.95 -5.6 Q24.7 -1.65 24.65 3.15 L23.9 3.15 21.65 -1.45 20.05 -2.5 Q16.6 -2.15 14.0 -4.6 L11.7 -4.75 Q9.55 -4.45 8.4 -5.45 L8.25 -6.75 20.35 -5.05 18.55 -6.2 18.7 -7.1 19.5 -7.35 22.05 -5.8 M42.2 -4.65 L42.0 -4.6 Q37.55 -4.45 35.2 -8.35 39.95 -8.8 42.2 -4.65 M-14.4 -4.4 L-14.55 -6.1 -10.55 -6.5 -6.2 -5.45 -6.4 -4.55 -14.4 -4.4 M-0.8 -4.4 L-0.75 -4.0 Q-1.15 -3.4 -2.35 -3.65 L-2.6 -3.65 -0.45 0.0 -0.8 0.1 Q0.6 2.1 0.7 4.35 L-0.25 4.25 Q-3.6 2.7 -3.0 -0.9 L-2.4 -0.9 -6.05 -4.15 -3.55 -3.95 -4.7 -6.8 -0.25 -6.55 0.0 -5.3 -1.95 -5.3 -0.8 -4.4 M1.9 -2.2 L2.7 -2.55 3.85 -0.55 Q2.05 -0.4 1.9 -2.2 M1.75 -4.6 L3.15 -4.6 3.15 -3.2 1.75 -3.2 1.75 -4.6 M40.2 0.05 L40.35 -0.75 41.15 -0.9 44.05 2.75 40.2 0.05 M49.05 7.1 L55.45 7.5 55.6 8.85 49.5 8.65 Q48.8 8.5 48.35 7.95 48.3 7.55 48.5 7.35 48.65 7.15 49.05 7.1 M19.75 6.8 L19.4 6.95 Q14.75 4.55 15.45 -0.35 L16.25 -0.35 19.75 6.8 M33.4 8.8 L33.4 7.1 40.9 7.1 40.9 8.8 33.4 8.8 M-6.75 6.95 L-6.95 5.15 -6.95 5.1 -2.25 5.4 Q-0.75 5.9 -0.55 7.25 L-6.75 6.95 M-9.05 -0.65 L-8.85 -0.3 -9.05 0.05 -9.5 0.2 -10.0 0.05 -10.2 -0.3 -10.0 -0.65 -9.5 -0.8 -9.05 -0.65 M-7.25 0.15 Q-8.85 -1.05 -7.35 -1.05 -4.9 -1.2 -4.35 0.8 -5.95 1.1 -7.25 0.15 M1.7 2.4 Q1.7 2.15 1.95 2.05 2.1 1.9 2.4 1.9 L2.9 2.05 3.1 2.4 2.9 2.75 2.4 2.9 1.95 2.75 1.7 2.4 M-39.6 8.65 Q-41.9 7.8 -40.9 6.55 L-38.65 8.5 -39.6 8.65 M-28.45 2.3 L-27.65 2.3 -23.3 6.15 -23.75 6.2 Q-26.95 6.25 -28.6 3.5 L-28.45 2.3 M-28.9 3.85 Q-29.15 4.35 -29.55 4.5 L-37.1 4.85 -37.2 4.7 Q-33.25 2.6 -28.9 3.85 M-57.65 7.85 L-57.55 6.0 -55.3 6.55 -57.65 7.85" fill="#39683e" fill-rule="evenodd" stroke="none"/>
    <path d="M52.45 -2.95 L53.35 -1.85 54.05 -4.5 56.35 -0.8 55.75 5.05 55.1 5.05 52.45 -2.95" fill="#49834f" fill-rule="evenodd" stroke="none"/>
    <path d="M95.45 12.2 Q106.1 11.5 116.25 13.5 117.55 13.65 118.8 14.25 121.8 15.65 124.05 18.2 M-124.0 17.9 L-123.2 17.25 Q-117.25 12.9 -109.7 12.7 L-102.2 12.5" fill="none" stroke="#666666" stroke-linecap="round" stroke-linejoin="round" stroke-width="0.05"/>
    <path d="M-102.2 12.2 L-102.5 10.9 -98.0 11.05 -96.65 8.05 -91.85 6.4 -84.05 9.4 -82.0 7.8 M-81.9 7.6 L-78.75 9.9 -77.35 10.35 -76.25 10.05 -75.2 8.75 -71.1 9.45 -69.55 9.25 Q-67.35 8.3 -64.95 8.35 L-65.25 4.85 -62.5 0.05 -59.45 0.05 -59.45 1.45 -56.95 1.2 -56.45 0.35 Q-53.4 2.5 -49.8 2.7 -48.45 0.35 -46.05 -0.35 -45.05 -0.75 -44.1 -0.1 L-41.5 1.75 -39.75 2.8 Q-39.0 1.3 -37.3 0.9 L-33.9 0.1 -32.5 -4.1 -27.4 -2.7 Q-27.25 -5.25 -24.65 -5.5 -20.75 -5.55 -17.2 -7.5 L-10.35 -7.4 Q-7.5 -9.65 -4.15 -11.25 L-2.9 -12.0 Q0.5 -14.3 4.75 -12.5 5.3 -12.25 5.85 -12.65 10.3 -15.65 15.45 -14.6 L18.9 -14.25 25.0 -13.95 Q26.5 -14.0 27.2 -12.6 31.9 -10.2 37.0 -12.5 L38.2 -12.95 41.9 -13.5 44.8 -13.9 46.05 -16.85 Q49.8 -15.95 52.7 -18.2 L54.9 -17.8 Q56.2 -15.4 58.8 -15.6 L66.25 -16.7 Q67.7 -17.0 68.5 -15.7 69.2 -14.6 68.7 -13.2 L70.65 -12.95 71.45 -8.5 79.3 -5.5 81.4 -2.15 Q85.0 -2.35 87.4 0.5 L88.3 1.05 91.15 1.9 95.45 12.2 M58.25 -6.85 L60.15 -6.5 62.15 -3.55 63.2 -3.1 62.75 1.15 62.1 1.75 M74.55 0.65 L76.35 1.35 76.95 4.0 79.0 4.8 79.25 7.3 M-20.95 -1.35 L-19.55 -0.95 -17.7 -0.4 -15.8 3.7 M11.85 7.1 Q12.05 4.6 10.0 4.05 L9.75 4.0 Q9.15 3.8 9.3 2.85 9.4 2.15 9.15 1.55 L8.85 1.1 7.0 -0.55 Q6.65 -0.75 6.6 -1.05 M-48.65 8.1 Q-49.7 5.65 -52.25 5.35 L-53.1 5.1 Q-55.3 4.4 -57.2 5.6 M-20.95 -1.35 L-24.05 -0.2" fill="none" stroke="#006600" stroke-linecap="round" stroke-linejoin="round" stroke-width="0.05"/>
    <path d="M32.65 1.35 Q32.15 1.25 32.1 0.8 L31.9 -1.6 31.75 -1.85 30.45 -2.65 29.75 -3.2 29.65 -3.5 29.3 -4.25 25.75 -6.65 M29.65 -6.1 Q31.1 -6.1 32.5 -5.25 L33.95 -4.4 Q34.95 -3.9 34.8 -2.75 L34.8 -2.55 Q34.7 -1.35 35.3 -0.8 35.75 -0.3 35.7 0.4 35.7 0.7 35.85 1.0 L36.2 1.5" fill="none" stroke="#488451" stroke-linecap="round" stroke-linejoin="round" stroke-width="0.05"/>
    <path d="M-19.55 -0.95 L-20.1 -1.45 -20.95 -1.35" fill="none" stroke="#000000" stroke-linecap="round" stroke-linejoin="round" stroke-width="0.05"/>
    <path d="M-102.1 12.65 L-102.2 12.5" fill="none" stroke="#000000" stroke-linecap="round" stroke-linejoin="round" stroke-width="0.05"/>
  </g>
</svg>
