<?xml version="1.0" encoding="UTF-8" standalone="no"?>
<svg xmlns:ffdec="https://www.free-decompiler.com/flash" xmlns:xlink="http://www.w3.org/1999/xlink" ffdec:objectType="shape" height="464.15px" width="382.55px" xmlns="http://www.w3.org/2000/svg">
  <g transform="matrix(1.0, 0.0, 0.0, 1.0, 188.8, 208.65)">
    <path d="M-27.0 -76.0 Q-4.25 -63.55 22.05 -57.25 L24.85 -56.85 16.95 -39.35 7.8 -38.75 4.05 -34.25 -1.4 -33.5 -27.0 -76.0 M29.65 -48.35 L42.85 -34.7 49.55 -34.4 48.8 -20.5 23.25 -36.4 29.65 -48.35 M56.5 -30.8 L64.95 -21.05 55.6 -19.35 56.5 -30.8 M-57.75 -24.35 L-44.0 -32.35 -36.25 -21.45 -57.75 -24.35 M-43.5 -42.05 Q-47.0 -57.95 -34.85 -67.95 L-33.4 -69.05 -15.8 -32.8 Q-21.8 -32.8 -26.0 -30.05 -30.25 -27.3 -30.25 -23.45 L-43.5 -42.05" fill="#3f4b0a" fill-rule="evenodd" stroke="none"/>
    <path d="M79.05 -201.25 Q-40.5 -210.4 -73.55 -107.25 -88.35 -61.05 -61.05 -25.35 L-60.2 -21.8 -64.95 -15.2 -83.05 -1.3 -92.4 -6.0 Q-135.65 0.6 -168.0 -36.55 -173.25 -42.55 -179.8 -47.4 -218.9 -171.9 -88.05 -199.25 -3.15 -216.95 79.05 -201.25" fill="#45530b" fill-rule="evenodd" stroke="none"/>
    <path d="M24.85 -56.85 L22.05 -57.25 Q-4.25 -63.55 -27.0 -76.0 L-33.4 -69.05 -34.85 -67.95 Q-47.0 -57.95 -43.5 -42.05 L-44.0 -32.35 -57.75 -24.35 -60.2 -21.8 -61.05 -25.35 Q-88.35 -61.05 -73.55 -107.25 -40.5 -210.4 79.05 -201.25 134.0 -192.1 169.65 -155.0 188.3 -135.55 188.7 -107.6 211.0 -27.8 134.85 -9.25 106.3 -2.2 78.05 -10.65 L74.3 -12.9 64.95 -21.05 56.5 -30.8 49.55 -34.4 42.85 -34.7 29.65 -48.35 Q29.65 -51.85 28.25 -54.35 26.85 -56.85 24.85 -56.85" fill="#5c700f" fill-rule="evenodd" stroke="none"/>
    <path d="M24.85 -56.85 Q26.85 -56.85 28.25 -54.35 29.65 -51.85 29.65 -48.35 L23.25 -36.4 21.0 -31.45 Q31.5 -15.5 30.1 3.85 L29.85 7.15 46.6 3.4 48.8 -20.5 49.55 -34.4 56.5 -30.8 55.6 -19.35 54.85 4.0 74.3 -12.9 78.05 -10.65 Q64.95 14.45 36.65 16.55 L31.25 17.0 Q2.85 36.1 -26.9 60.5 L18.7 255.5 -26.2 255.5 Q-58.05 73.5 -57.2 50.25 -56.3 26.95 -50.6 32.0 L-64.95 -15.2 -60.2 -21.8 -41.05 18.45 -28.4 -6.55 -36.25 -21.45 -44.0 -32.35 -43.5 -42.05 -30.25 -23.45 -23.55 -15.85 -15.8 -32.8 -33.4 -69.05 -27.0 -76.0 -1.4 -33.5 -19.4 20.9 Q-11.55 17.75 -3.95 14.2 28.8 -1.3 14.55 -30.25 L16.95 -39.35 24.85 -56.85 M-47.65 189.8 L-47.45 190.1 Q-49.05 188.1 -47.65 189.8" fill="#9c5916" fill-rule="evenodd" stroke="none"/>
    <path d="M24.85 -56.85 Q26.85 -56.85 28.25 -54.35 29.65 -51.85 29.65 -48.35 M49.55 -34.4 L56.5 -30.8 M74.3 -12.9 L78.05 -10.65 M-44.0 -32.35 L-43.5 -42.05 M-33.4 -69.05 L-27.0 -76.0 M-64.95 -15.2 L-60.2 -21.8" fill="none" stroke="#000000" stroke-linecap="round" stroke-linejoin="round" stroke-width="0.05"/>
  </g>
</svg>
