<?xml version="1.0" encoding="UTF-8" standalone="no"?>
<svg xmlns:ffdec="https://www.free-decompiler.com/flash" xmlns:xlink="http://www.w3.org/1999/xlink" ffdec:objectType="shape" height="116.7px" width="342.25px" xmlns="http://www.w3.org/2000/svg">
  <g transform="matrix(1.0, 0.0, 0.0, 1.0, 7.2, 32.2)">
    <path d="M279.15 48.9 L335.05 45.85 Q334.7 54.7 332.3 63.05 145.65 70.15 -2.95 58.75 -5.1 52.3 -5.05 45.85 L4.25 46.4 60.1 49.3 Q134.9 52.1 178.95 52.0 L183.25 51.9 279.15 48.9 279.2 50.15 279.15 48.9 M4.25 47.25 L4.25 46.4 4.25 47.25" fill="#336600" fill-rule="evenodd" stroke="none"/>
    <path d="M332.3 63.05 Q329.1 74.25 322.15 84.5 L183.25 84.5 14.25 84.5 Q1.3 71.6 -2.95 58.75 145.65 70.15 332.3 63.05" fill="#264b01" fill-rule="evenodd" stroke="none"/>
    <path d="M3.55 23.7 L-7.2 22.9 -7.2 -6.45 Q30.25 -4.8 68.65 -4.25 L85.85 -4.05 90.15 -4.05 120.95 -4.3 120.95 -25.05 151.75 -25.05 151.75 -4.85 183.25 -5.8 Q273.3 -11.9 330.75 -17.2 L330.75 22.9 318.6 23.8 278.5 26.2 278.5 25.8 278.5 26.2 183.25 29.85 Q137.05 30.15 60.1 27.0 L3.55 23.7 3.55 22.9 3.55 23.7 M151.75 -4.85 L120.95 -4.3 151.75 -4.85 M300.35 -3.9 L283.85 -2.5 283.85 11.85 300.35 10.4 300.35 -3.9 M240.9 0.35 L240.9 14.7 257.35 13.25 257.35 -1.05 240.9 0.35 M214.4 15.4 L214.4 1.05 197.95 2.5 197.95 16.8 214.4 15.4 M132.4 17.85 L132.4 3.55 115.9 3.55 115.9 17.85 132.4 17.85 M175.7 17.85 L175.7 3.55 159.25 3.55 159.25 17.85 175.7 17.85 M31.1 15.4 L31.1 1.1 14.65 1.1 14.65 15.4 31.1 15.4 M81.9 17.85 L81.9 3.55 65.4 3.55 65.4 17.85 81.9 17.85" fill="#ffffff" fill-rule="evenodd" stroke="none"/>
    <path d="M120.95 -25.05 L120.95 -32.2 151.7 -32.2 151.75 -25.05 120.95 -25.05 M300.35 -3.9 L300.35 10.4 283.85 11.85 283.85 -2.5 300.35 -3.9 M247.3 45.1 L247.3 30.8 263.8 30.8 263.8 45.1 247.3 45.1 M212.25 47.25 L212.25 32.95 228.7 32.95 228.7 47.25 212.25 47.25 M214.4 15.4 L197.95 16.8 197.95 2.5 214.4 1.05 214.4 15.4 M240.9 0.35 L257.35 -1.05 257.35 13.25 240.9 14.7 240.9 0.35 M165.7 47.25 L165.7 32.95 182.2 32.95 182.2 47.25 165.7 47.25 M175.7 17.85 L159.25 17.85 159.25 3.55 175.7 3.55 175.7 17.85 M132.4 17.85 L115.9 17.85 115.9 3.55 132.4 3.55 132.4 17.85 M89.75 46.55 L73.3 45.1 73.3 30.8 89.75 32.2 89.75 46.55 M81.9 17.85 L65.4 17.85 65.4 3.55 81.9 3.55 81.9 17.85 M31.1 15.4 L14.65 15.4 14.65 1.1 31.1 1.1 31.1 15.4 M38.2 44.05 L21.75 42.65 21.75 28.3 38.2 29.75 38.2 44.05" fill="#000000" fill-rule="evenodd" stroke="none"/>
    <path d="M4.25 46.4 L3.55 23.7 60.1 27.0 Q137.05 30.15 183.25 29.85 L278.5 26.2 279.15 48.9 183.25 51.9 178.95 52.0 Q134.9 52.1 60.1 49.3 L4.25 46.4 M247.3 45.1 L263.8 45.1 263.8 30.8 247.3 30.8 247.3 45.1 M212.25 47.25 L228.7 47.25 228.7 32.95 212.25 32.95 212.25 47.25 M165.7 47.25 L182.2 47.25 182.2 32.95 165.7 32.95 165.7 47.25 M89.75 46.55 L89.75 32.2 73.3 30.8 73.3 45.1 89.75 46.55 M38.2 44.05 L38.2 29.75 21.75 28.3 21.75 42.65 38.2 44.05" fill="#1e3a01" fill-rule="evenodd" stroke="none"/>
    <path d="M3.55 23.7 L-7.2 22.9 -7.2 -6.45 Q30.25 -4.8 68.65 -4.25 L85.85 -4.05 90.15 -4.05 120.95 -4.3 151.75 -4.85 183.25 -5.8 Q273.3 -11.9 330.75 -17.2 L330.75 22.9 318.6 23.8 318.6 45.85 M279.15 48.9 L335.05 45.85 Q334.7 54.7 332.3 63.05 329.1 74.25 322.15 84.5 L183.25 84.5 M278.5 26.2 L278.5 25.8 M279.15 48.9 L278.5 26.2 318.6 23.8 M279.2 50.15 L279.15 48.9" fill="none" stroke="#666666" stroke-linecap="round" stroke-linejoin="round" stroke-width="0.05"/>
    <path d="M120.95 -4.3 L120.95 -25.05 120.95 -32.2 151.7 -32.2 151.75 -25.05 151.75 -4.85 M151.75 -25.05 L120.95 -25.05 M332.3 63.05 L332.9 63.05 M183.25 84.5 L14.25 84.5 Q1.3 71.6 -2.95 58.75 -5.1 52.3 -5.05 45.85 L4.25 46.4 3.55 23.7 3.55 22.9 M4.25 46.4 L4.25 47.25" fill="none" stroke="#666666" stroke-linecap="round" stroke-linejoin="round" stroke-width="0.05"/>
    <path d="M300.35 -3.9 L300.35 10.4 283.85 11.85 283.85 -2.5 300.35 -3.9 M214.4 15.4 L197.95 16.8 197.95 2.5 214.4 1.05 214.4 15.4 M240.9 0.35 L257.35 -1.05 257.35 13.25 240.9 14.7 240.9 0.35 M175.7 17.85 L159.25 17.85 159.25 3.55 175.7 3.55 175.7 17.85 M132.4 17.85 L115.9 17.85 115.9 3.55 132.4 3.55 132.4 17.85 M81.9 17.85 L65.4 17.85 65.4 3.55 81.9 3.55 81.9 17.85 M31.1 15.4 L14.65 15.4 14.65 1.1 31.1 1.1 31.1 15.4" fill="none" stroke="#ffffff" stroke-linecap="round" stroke-linejoin="round" stroke-width="2.0"/>
    <path d="M247.3 45.1 L247.3 30.8 263.8 30.8 263.8 45.1 247.3 45.1 M212.25 47.25 L212.25 32.95 228.7 32.95 228.7 47.25 212.25 47.25 M165.7 47.25 L165.7 32.95 182.2 32.95 182.2 47.25 165.7 47.25 M89.75 46.55 L73.3 45.1 73.3 30.8 89.75 32.2 89.75 46.55 M38.2 44.05 L21.75 42.65 21.75 28.3 38.2 29.75 38.2 44.05 Z" fill="none" stroke="#1e3a01" stroke-linecap="round" stroke-linejoin="round" stroke-width="2.0"/>
  </g>
</svg>
