<?xml version="1.0" encoding="UTF-8" standalone="no"?>
<svg xmlns:ffdec="https://www.free-decompiler.com/flash" xmlns:xlink="http://www.w3.org/1999/xlink" ffdec:objectType="shape" height="216.2px" width="492.05px" xmlns="http://www.w3.org/2000/svg">
  <g transform="matrix(1.0, 0.0, 0.0, 1.0, 249.25, 45.95)">
    <path d="M15.05 -31.3 L16.35 -45.45 52.35 -42.65 53.6 -30.2 15.05 -31.3 M117.3 84.65 Q115.9 81.35 115.9 77.45 115.9 70.65 120.05 65.9 124.15 61.15 130.05 61.2 135.9 61.15 140.0 65.9 144.15 70.65 144.15 77.45 144.15 80.55 143.25 83.3 L117.3 84.65 M170.2 80.3 L171.6 52.7 181.5 52.7 185.7 79.9 Q179.4 80.6 170.2 80.3 M-83.95 -10.85 L-83.95 7.55 -103.8 7.55 -107.25 -10.85 -83.95 -10.85 M-45.8 -10.85 L-45.8 7.55 -69.15 7.55 -69.15 -10.85 -45.8 -10.85 M-56.95 51.3 L-56.95 62.95 -68.6 62.95 -68.6 51.3 -56.95 51.3 M-30.45 62.95 L-30.45 51.3 -18.8 51.3 -18.8 62.95 -30.45 62.95 M-95.6 51.3 L-95.6 62.95 -107.25 62.95 -107.25 51.3 -95.6 51.3" fill="#333333" fill-rule="evenodd" stroke="none"/>
    <path d="M98.25 85.3 L98.3 85.3 117.3 84.65 143.25 83.3 Q157.55 82.4 170.2 80.3 179.4 80.6 185.7 79.9 L222.25 76.0 Q240.1 73.4 242.3 88.75 241.25 96.15 230.9 100.1 L229.95 100.4 231.75 97.9 229.95 100.4 Q217.6 104.25 149.1 109.55 77.65 115.1 -62.75 107.8 -122.6 107.65 -238.6 66.0 L-240.05 65.45 Q-251.7 60.2 -247.75 47.1 -242.1 36.65 -231.5 39.3 -193.15 54.2 -159.45 64.0 L-159.5 64.75 -159.45 64.0 Q-109.9 78.35 -70.55 81.7 L17.7 85.6 Q41.0 86.05 63.55 85.9 L98.25 85.3 M-239.25 64.75 L-238.6 66.0 -239.25 64.75" fill="#404040" fill-rule="evenodd" stroke="none"/>
    <path d="M53.6 -30.2 L59.95 33.65 9.25 33.65 9.25 32.25 15.05 -31.3 53.6 -30.2" fill="#ff9933" fill-rule="evenodd" stroke="none"/>
    <path d="M59.95 33.65 L98.25 33.65 98.25 84.5 98.25 85.3 63.55 85.9 Q41.0 86.05 17.7 85.6 L17.7 49.85 63.55 49.85 63.55 85.9 63.55 49.85 17.7 49.85 17.7 85.6 -70.55 81.7 Q-109.9 78.35 -159.45 64.0 L-157.35 33.65 -107.95 33.65 -115.0 -14.4 -104.4 -27.8 -35.2 -27.8 -26.25 -13.3 -26.75 -12.95 -35.9 -12.25 -35.9 33.65 -35.9 34.35 -35.9 33.65 -107.95 33.65 -35.9 33.65 9.25 33.65 59.95 33.65 60.1 35.05 59.95 33.65 M-45.8 -10.85 L-69.15 -10.85 -69.15 7.55 -45.8 7.55 -45.8 -10.85 M-83.95 -10.85 L-107.25 -10.85 -103.8 7.55 -83.95 7.55 -83.95 -10.85 M-30.45 62.95 L-18.8 62.95 -18.8 51.3 -30.45 51.3 -30.45 62.95 M-56.95 51.3 L-68.6 51.3 -68.6 62.95 -56.95 62.95 -56.95 51.3 M-95.6 51.3 L-107.25 51.3 -107.25 62.95 -95.6 62.95 -95.6 51.3" fill="#ffffff" fill-rule="evenodd" stroke="none"/>
    <path d="M229.95 100.4 L181.6 169.25 -146.75 168.55 Q-177.45 174.1 -191.25 154.4 L-238.6 66.0 Q-122.6 107.65 -62.75 107.8 77.65 115.1 149.1 109.55 217.6 104.25 229.95 100.4" fill="#1e1e1e" fill-rule="evenodd" stroke="none"/>
    <path d="M15.05 -31.3 L16.35 -45.45 52.35 -42.65 53.05 -42.65 M52.35 -42.65 L53.6 -30.2 59.95 33.65 98.25 33.65 98.25 84.5 M98.25 85.3 L98.3 85.3 117.3 84.65 Q115.9 81.35 115.9 77.45 115.9 70.65 120.05 65.9 124.15 61.15 130.05 61.2 135.9 61.15 140.0 65.9 144.15 70.65 144.15 77.45 144.15 80.55 143.25 83.3 157.55 82.4 170.2 80.3 179.4 80.6 185.7 79.9 L222.25 76.0 Q240.1 73.4 242.3 88.75 241.25 96.15 230.9 100.1 L229.95 100.4 181.6 169.25 -146.75 168.55 Q-177.45 174.1 -191.25 154.4 L-238.6 66.0 -240.05 65.45 Q-251.7 60.2 -247.75 47.1 -242.1 36.65 -231.5 39.3 -193.15 54.2 -159.45 64.0 L-157.35 33.65 -107.95 33.65 -115.0 -14.4 -104.4 -27.8 -35.2 -27.8 -26.25 -13.3 -26.05 -12.95 M53.6 -30.2 L15.05 -31.3 9.25 32.25 M9.25 33.65 L59.95 33.65 60.1 35.05 M229.95 100.4 L231.75 97.9 M143.25 83.3 L117.3 84.65 M17.7 85.6 Q41.0 86.05 63.55 85.9 L98.25 85.3 M229.95 100.4 Q217.6 104.25 149.1 109.55 77.65 115.1 -62.75 107.8 -122.6 107.65 -238.6 66.0 L-239.25 64.75 M-35.9 33.65 L-35.9 -12.25 -26.75 -12.95 M-35.9 33.65 L-35.9 34.35 M-56.95 51.3 L-56.95 62.95 -68.6 62.95 -68.6 51.3 -56.95 51.3 M-30.45 62.95 L-30.45 51.3 -18.8 51.3 -18.8 62.95 -30.45 62.95 M-159.45 64.0 L-159.5 64.75 M-95.6 51.3 L-95.6 62.95 -107.25 62.95 -107.25 51.3 -95.6 51.3 M-107.95 33.65 L-35.9 33.65 9.25 33.65 M-159.45 64.0 Q-109.9 78.35 -70.55 81.7 L17.7 85.6" fill="none" stroke="#333333" stroke-linecap="round" stroke-linejoin="round" stroke-width="1.0"/>
    <path d="M170.2 80.3 L171.6 52.7 181.5 52.7 185.7 79.9 M63.55 85.9 L63.55 49.85 17.7 49.85 17.7 85.6" fill="none" stroke="#333333" stroke-linecap="round" stroke-linejoin="round" stroke-width="1.0"/>
  </g>
</svg>
