<?xml version="1.0" encoding="UTF-8" standalone="no"?>
<svg xmlns:ffdec="https://www.free-decompiler.com/flash" xmlns:xlink="http://www.w3.org/1999/xlink" ffdec:objectType="shape" height="112.25px" width="176.0px" xmlns="http://www.w3.org/2000/svg">
  <g transform="matrix(1.0, 0.0, 0.0, 1.0, 232.75, -57.0)">
    <path d="M-195.1 117.25 L-194.75 112.25 -195.5 101.9 Q-196.0 92.4 -194.7 85.3 -190.75 63.4 -170.5 63.0 -164.25 57.0 -153.75 57.0 -141.6 57.0 -135.1 65.7 L-141.75 65.0 Q-162.8 65.0 -166.8 87.3 -168.85 98.8 -166.75 114.25 L-167.0 117.9 -171.2 117.85 -195.1 117.25" fill="#d5c4aa" fill-rule="evenodd" stroke="none"/>
    <path d="M-167.0 117.9 L-166.75 114.25 Q-168.85 98.8 -166.8 87.3 -162.8 65.0 -141.75 65.0 L-135.1 65.7 Q-120.1 69.1 -116.7 89.2 -114.6 101.4 -116.75 114.0 L-116.7 115.95 -167.0 117.9" fill="#ccb799" fill-rule="evenodd" stroke="none"/>
    <path d="M-195.1 117.25 L-171.2 117.85 -167.0 117.9 -116.7 115.95 -102.75 114.25 Q-99.25 113.8 -92.8 108.15 -86.7 102.75 -81.75 102.75 -66.65 102.75 -60.25 115.3 -57.0 121.65 -56.75 128.75 -56.75 133.55 -59.2 140.85 -61.85 148.65 -65.25 152.75 -72.3 161.2 -84.25 164.75 -86.1 165.3 -123.0 163.8 -157.25 162.4 -157.25 165.25 L-150.75 166.75 Q-204.25 174.0 -223.55 160.2 -232.75 153.6 -232.75 142.25 -232.75 134.3 -228.8 128.1 -222.5 118.2 -207.75 116.75 L-195.1 117.25" fill="#c0a783" fill-rule="evenodd" stroke="none"/>
  </g>
</svg>
