<?xml version="1.0" encoding="UTF-8" standalone="no"?>
<svg xmlns:ffdec="https://www.free-decompiler.com/flash" xmlns:xlink="http://www.w3.org/1999/xlink" ffdec:objectType="shape" height="187.95px" width="406.45px" xmlns="http://www.w3.org/2000/svg">
  <g transform="matrix(1.0, 0.0, 0.0, 1.0, 222.0, 101.4)">
    <path d="M26.7 -38.3 L10.1 -46.5 -21.05 -61.95 -22.0 -61.5 -38.75 -52.95 -39.55 -52.55 -39.55 -52.5 -39.55 -52.55 -38.75 -52.95 -39.55 -52.5 -55.15 -44.55 -56.15 -44.05 -86.7 -28.45 -102.5 -20.4 -116.0 -13.5 -136.35 -3.1 -189.4 -3.1 -193.55 -3.25 -194.05 -3.3 -201.55 -3.5 -174.95 -17.0 -164.85 -22.1 -115.6 -47.0 -52.25 -78.95 -27.4 -78.95 -16.65 -78.95 5.2 -78.95 69.7 -47.3 120.85 -22.1 129.8 -17.65 159.45 -3.1 145.3 -3.1 97.6 -3.1 58.25 -22.6 Q50.45 -26.45 42.7 -30.35 L26.7 -38.3 M-39.55 -52.55 L-55.15 -44.55 -56.15 -44.05 -55.15 -44.55 -39.55 -52.55" fill="#c17757" fill-rule="evenodd" stroke="none"/>
    <path d="M10.05 -30.65 L26.4 -22.5 26.1 -3.1 26.4 -22.5 42.7 -14.45 42.7 -3.1 42.7 -14.45 Q50.45 -10.6 58.25 -6.7 L65.45 -3.1 42.7 -3.1 39.25 -3.1 26.1 -3.1 23.7 -3.1 10.05 -3.1 -5.5 -3.1 -5.5 -38.4 -5.5 -3.1 -13.75 -3.1 -22.0 -3.1 -29.35 -3.1 -39.55 -3.1 -55.1 -3.1 -67.6 -3.1 -71.7 -3.1 -71.7 -28.35 -71.7 -3.1 -83.15 -3.1 -86.7 -3.1 -102.35 -3.1 -120.0 -3.1 -115.95 -5.25 -115.9 -3.55 -115.95 -5.25 Q-109.2 -8.8 -102.4 -12.3 L-86.7 -20.5 -86.7 -3.1 -86.7 -20.5 -71.7 -28.35 -55.15 -36.95 -39.55 -45.1 -39.55 -3.1 -39.55 -45.1 -29.55 -50.35 -22.0 -46.6 -5.5 -38.4 10.05 -30.65 10.05 -3.1 10.05 -30.65 M58.25 -6.7 L58.25 -3.55 58.25 -6.7 M-102.4 -12.3 L-102.35 -3.1 -102.4 -12.3 M-55.15 -36.95 L-55.1 -3.1 -55.15 -36.95 M-22.0 -3.1 L-22.0 -46.6 -22.0 -3.1" fill="#f8eeec" fill-rule="evenodd" stroke="none"/>
    <path d="M10.05 -30.65 L10.1 -46.5 10.05 -30.65 -5.5 -38.4 -22.0 -46.6 -22.0 -61.5 -22.0 -46.6 -29.55 -50.35 -39.55 -45.1 -55.15 -36.95 -55.15 -44.55 -55.15 -36.95 -71.7 -28.35 -86.7 -20.5 -102.4 -12.3 Q-109.2 -8.8 -115.95 -5.25 L-120.0 -3.1 -120.8 -3.1 -136.35 -3.1 -116.0 -13.5 -115.95 -5.25 -116.0 -13.5 -102.5 -20.4 -86.7 -28.45 -86.7 -20.5 -86.7 -28.45 -56.15 -44.05 -55.15 -44.55 -39.55 -52.5 -38.75 -52.95 -22.0 -61.5 -21.05 -61.95 10.1 -46.5 26.7 -38.3 26.4 -22.5 26.7 -38.3 42.7 -30.35 Q50.45 -26.45 58.25 -22.6 L58.25 -6.7 58.25 -22.6 97.6 -3.1 92.3 -3.1 76.75 -3.1 73.35 -3.1 65.45 -3.1 58.25 -6.7 Q50.45 -10.6 42.7 -14.45 L26.4 -22.5 10.05 -30.65 M-5.5 -53.7 L-5.5 -38.4 -5.5 -53.7 M42.7 -14.45 L42.7 -30.35 42.7 -14.45 M73.35 -14.25 L73.35 -3.1 73.35 -14.25 M-102.4 -12.3 L-102.5 -20.4 -102.4 -12.3 M-71.7 -34.7 L-71.7 -28.35 -71.7 -34.7 M-39.55 -52.5 L-39.55 -45.1 -39.55 -52.5" fill="#cfb3b2" fill-rule="evenodd" stroke="none"/>
    <path d="M69.7 -47.3 L131.7 -47.35 139.5 -43.6 139.5 -34.2 147.25 -34.2 147.25 -39.9 184.45 -22.1 180.85 -22.1 120.85 -22.1 69.7 -47.3 M-206.95 -22.1 L-222.0 -22.1 -171.4 -46.9 -163.6 -46.9 -153.9 -46.95 -115.6 -47.0 -164.85 -22.1 -206.95 -22.1" fill="#b56442" fill-rule="evenodd" stroke="none"/>
    <path d="M139.5 -43.6 L139.5 -59.1 147.25 -59.1 147.25 -39.9 147.25 -34.2 139.5 -34.2 139.5 -43.6 M-163.6 -46.9 L-163.6 -66.85 -153.9 -66.85 -153.9 -46.95 -163.6 -46.9 M-27.4 -78.95 L-27.4 -101.4 -16.65 -101.4 -16.65 -78.95 -27.4 -78.95" fill="#f7efe4" fill-rule="evenodd" stroke="none"/>
    <path d="M180.85 -22.1 L180.85 -17.8 129.8 -17.65 120.85 -22.1 180.85 -22.1 M-206.95 -16.95 L-206.95 -22.1 -164.85 -22.1 -174.95 -17.0 -206.95 -16.95 M92.3 -3.1 L97.6 -3.1 145.3 -3.1 145.3 2.35 92.3 2.35 92.3 1.45 92.3 -3.1 M-189.4 -3.1 L-136.35 -3.1 -136.35 1.45 -136.35 2.35 -189.4 2.35 -189.4 -3.1" fill="#c5b8c7" fill-rule="evenodd" stroke="none"/>
    <path d="M23.7 8.1 L39.25 8.05 76.75 7.9 92.3 7.85 92.3 2.35 145.3 2.35 145.3 -3.1 159.45 -3.1 129.8 -17.65 180.85 -17.8 180.85 86.55 162.8 86.55 157.9 86.55 145.3 77.9 92.3 41.65 92.3 29.5 92.3 41.65 92.3 50.2 92.3 86.55 76.75 86.55 76.75 57.05 76.75 52.2 76.75 40.55 76.75 29.5 92.3 29.5 92.35 29.5 102.9 36.85 111.6 42.9 129.75 55.5 138.85 61.85 147.65 67.95 162.35 78.15 162.8 78.15 162.8 66.0 162.35 66.0 155.25 61.0 145.3 54.0 139.05 49.6 129.8 43.1 119.55 35.9 111.6 30.3 96.8 19.85 92.3 16.65 92.3 21.7 92.3 29.5 76.75 29.5 76.75 40.55 Q69.2 36.15 59.15 36.15 47.5 36.15 39.25 42.0 L39.25 29.5 39.25 42.0 39.25 57.15 39.25 86.55 23.7 86.55 23.7 57.45 23.7 52.7 23.7 40.8 23.7 29.5 23.7 40.8 Q16.0 36.15 5.7 36.15 -5.65 36.15 -13.75 41.75 L-13.75 29.5 -13.75 41.75 -13.75 55.45 -13.75 86.55 -29.35 86.55 -29.35 58.65 -29.35 54.3 -29.35 41.45 -29.35 29.5 -29.35 41.45 Q-37.35 36.15 -48.35 36.15 -59.55 36.15 -67.6 41.6 L-67.6 29.5 -67.6 41.6 -67.6 54.9 -67.6 86.55 -83.15 86.55 -83.15 57.25 -83.15 52.5 -83.15 40.65 -83.15 29.5 -83.15 40.65 Q-90.8 36.05 -101.05 36.05 -112.6 36.05 -120.8 41.85 L-120.8 29.5 -120.8 41.85 -120.8 56.35 -120.8 86.55 -136.35 86.55 -189.4 86.55 -189.4 29.5 -136.35 29.5 -120.8 29.5 -83.15 29.5 -67.6 29.5 -29.35 29.5 -13.75 29.5 -13.75 21.7 -29.35 21.7 -29.35 8.35 -29.35 21.7 -67.6 21.7 -83.15 21.7 -83.15 8.55 -83.15 21.7 -120.8 21.7 -136.35 21.7 -136.35 8.75 -136.35 21.7 -189.4 21.7 -189.4 2.35 -136.35 2.35 -136.35 8.75 -120.8 8.65 -83.15 8.55 -67.6 8.45 -29.35 8.35 -13.75 8.25 23.7 8.1 23.7 21.7 23.7 29.5 39.25 29.5 76.75 29.5 76.75 21.7 76.75 7.9 76.75 21.7 39.25 21.7 39.25 8.05 39.25 21.7 23.7 21.7 23.7 8.1 M151.75 86.55 L145.3 86.55 92.3 86.55 92.3 50.2 145.3 82.6 151.75 86.55 M-197.2 86.55 L-206.95 86.55 -206.95 -16.95 -174.95 -17.0 -201.55 -3.5 -194.05 -3.3 -193.55 -3.25 -204.5 3.25 -197.2 3.25 -197.2 37.2 -197.2 86.55 M162.8 86.55 L162.8 78.15 162.8 86.55 M92.3 16.65 L92.3 7.85 92.3 16.65 M145.3 2.35 L145.3 54.0 145.3 2.35 M145.3 86.55 L145.3 82.6 145.3 86.55 M92.3 21.7 L76.75 21.7 92.3 21.7 M-13.75 29.5 L23.7 29.5 -13.75 29.5 M-202.55 -3.55 L-201.55 -3.5 -202.55 -3.55 M-13.75 21.7 L-13.75 8.25 -13.75 21.7 23.7 21.7 -13.75 21.7 M-67.6 8.45 L-67.6 21.7 -67.6 8.45 M-120.8 8.65 L-120.8 21.7 -120.8 8.65 M-136.35 86.55 L-136.35 29.5 -136.35 86.55" fill="#fde8df" fill-rule="evenodd" stroke="none"/>
    <path d="M162.35 66.0 L162.8 66.0 162.8 78.15 162.35 78.15 147.65 67.95 138.85 61.85 129.75 55.5 111.6 42.9 102.9 36.85 92.35 29.5 92.3 29.5 92.3 21.7 92.3 16.65 96.8 19.85 111.6 30.3 119.55 35.9 129.8 43.1 139.05 49.6 145.3 54.0 155.25 61.0 162.35 66.0 M119.4 47.65 L119.55 35.9 119.4 47.65 M111.6 42.9 L111.6 30.3 111.6 42.9 M103.05 25.6 L102.9 36.85 103.05 25.6 M96.65 31.75 L96.8 19.85 96.65 31.75 M147.65 56.3 L147.65 67.95 147.65 56.3 M138.85 61.85 L139.05 49.6 138.85 61.85 M155.15 72.4 L155.25 61.0 155.15 72.4 M129.8 43.1 L129.75 55.5 129.8 43.1" fill="#e8e3e7" fill-rule="evenodd" stroke="none"/>
    <path d="M157.9 86.55 L151.75 86.55 145.3 82.6 92.3 50.2 92.3 41.65 145.3 77.9 157.9 86.55 M145.3 77.9 L145.3 82.6 145.3 77.9" fill="#b18e92" fill-rule="evenodd" stroke="none"/>
    <path d="M23.7 1.45 L39.25 1.45 39.25 8.05 39.25 1.45 76.75 1.45 76.75 7.9 76.75 1.45 92.3 1.45 92.3 2.35 92.3 7.85 76.75 7.9 39.25 8.05 23.7 8.1 23.7 1.45 23.7 8.1 -13.75 8.25 -13.75 1.45 -13.75 8.25 -29.35 8.35 -67.6 8.45 -83.15 8.55 -83.15 1.45 -67.6 1.45 -29.35 1.45 -13.75 1.45 23.7 1.45 M-136.35 1.45 L-120.8 1.45 -83.15 1.45 -83.15 8.55 -120.8 8.65 -136.35 8.75 -136.35 2.35 -136.35 1.45 M-29.35 1.45 L-29.35 8.35 -29.35 1.45 M-67.6 8.45 L-67.6 1.45 -67.6 8.45 M-120.8 8.65 L-120.8 1.45 -120.8 8.65" fill="#dfc2c4" fill-rule="evenodd" stroke="none"/>
    <path d="M26.1 -3.1 L39.25 -3.1 42.7 -3.1 65.45 -3.1 73.35 -3.1 76.75 -3.1 76.75 1.45 76.75 -3.1 92.3 -3.1 92.3 1.45 76.75 1.45 39.25 1.45 23.7 1.45 23.7 -3.1 23.7 1.45 -13.75 1.45 -13.75 -3.1 -13.75 1.45 -29.35 1.45 -29.35 -3.1 -29.35 1.45 -67.6 1.45 -83.15 1.45 -83.15 -3.1 -83.15 1.45 -120.8 1.45 -136.35 1.45 -136.35 -3.1 -120.8 -3.1 -120.0 -3.1 -102.35 -3.1 -86.7 -3.1 -83.15 -3.1 -71.7 -3.1 -67.6 -3.1 -55.1 -3.1 -39.55 -3.1 -29.35 -3.1 -22.0 -3.1 -13.75 -3.1 -5.5 -3.1 10.05 -3.1 23.7 -3.1 26.1 -3.1 M39.25 -3.1 L39.25 1.45 39.25 -3.1 M-5.5 -2.6 L-5.5 -3.1 -5.5 -2.6 M-67.6 -3.1 L-67.6 1.45 -67.6 -3.1 M-120.8 -3.1 L-120.8 1.45 -120.8 -3.1" fill="#a892a9" fill-rule="evenodd" stroke="none"/>
    <path d="M76.75 40.55 L76.75 52.2 73.85 49.6 Q67.75 45.3 59.15 45.3 50.55 45.3 44.4 49.6 41.35 51.75 40.1 54.45 39.45 55.75 39.25 57.15 L39.25 42.0 Q47.5 36.15 59.15 36.15 69.2 36.15 76.75 40.55 M76.75 21.7 L76.75 29.5 39.25 29.5 39.25 21.7 39.25 29.5 23.7 29.5 23.7 21.7 39.25 21.7 76.75 21.7 M23.7 40.8 L23.7 52.7 Q22.4 51.0 20.4 49.6 14.25 45.3 5.7 45.3 -2.9 45.3 -9.0 49.6 -11.65 51.45 -12.95 53.7 L-13.75 55.45 -13.75 41.75 Q-5.65 36.15 5.7 36.15 16.0 36.15 23.7 40.8 M-29.35 21.7 L-13.75 21.7 -13.75 29.5 -29.35 29.5 -29.35 21.7 -29.35 29.5 -67.6 29.5 -67.6 21.7 -67.6 29.5 -83.15 29.5 -83.15 21.7 -83.15 29.5 -120.8 29.5 -120.8 21.7 -120.8 29.5 -136.35 29.5 -136.35 21.7 -136.35 29.5 -189.4 29.5 -189.4 21.7 -136.35 21.7 -120.8 21.7 -83.15 21.7 -67.6 21.7 -29.35 21.7 M-29.35 41.45 L-29.35 54.3 Q-30.65 51.7 -33.65 49.6 -39.75 45.3 -48.35 45.3 -56.95 45.3 -63.05 49.6 -65.5 51.3 -66.8 53.3 L-67.6 54.9 -67.6 41.6 Q-59.55 36.15 -48.35 36.15 -37.35 36.15 -29.35 41.45 M-83.15 40.65 L-83.15 52.5 Q-84.4 50.9 -86.35 49.5 -92.45 45.2 -101.05 45.25 -109.65 45.2 -115.8 49.5 -118.7 51.55 -120.0 54.1 L-120.8 56.35 -120.8 41.85 Q-112.6 36.05 -101.05 36.05 -90.8 36.05 -83.15 40.65" fill="#f7f4ed" fill-rule="evenodd" stroke="none"/>
    <path d="M76.75 52.2 L76.75 57.05 74.65 55.3 Q68.55 51.0 60.0 51.0 51.35 51.0 45.25 55.3 40.7 58.5 40.1 62.85 L40.1 54.45 Q41.35 51.75 44.4 49.6 50.55 45.3 59.15 45.3 67.75 45.3 73.85 49.6 L76.75 52.2 M23.7 52.7 L23.7 57.45 Q22.65 56.3 21.2 55.3 15.1 51.0 6.55 51.0 -2.1 51.0 -8.2 55.3 -11.85 57.9 -12.95 61.2 L-12.95 53.7 Q-11.65 51.45 -9.0 49.6 -2.9 45.3 5.7 45.3 14.25 45.3 20.4 49.6 22.4 51.0 23.7 52.7 M-29.35 54.3 L-29.35 58.65 Q-30.65 56.85 -32.8 55.3 -38.95 51.0 -47.5 51.0 -56.1 51.0 -62.25 55.3 -65.55 57.65 -66.8 60.6 L-66.8 53.3 Q-65.5 51.3 -63.05 49.6 -56.95 45.3 -48.35 45.3 -39.75 45.3 -33.65 49.6 -30.65 51.7 -29.35 54.3 M-83.15 52.5 L-83.15 57.25 Q-84.2 56.15 -85.55 55.2 -91.65 50.95 -100.2 50.95 -108.85 50.9 -114.95 55.2 -119.1 58.15 -120.0 62.1 L-120.0 54.1 Q-118.7 51.55 -115.8 49.5 -109.65 45.2 -101.05 45.25 -92.45 45.2 -86.35 49.5 -84.4 50.9 -83.15 52.5" fill="#7d6581" fill-rule="evenodd" stroke="none"/>
    <path d="M76.75 86.55 L39.25 86.55 39.25 57.15 Q39.45 55.75 40.1 54.45 L40.1 62.85 Q40.7 58.5 45.25 55.3 51.35 51.0 60.0 51.0 68.55 51.0 74.65 55.3 L76.75 57.05 76.75 86.55 M23.7 86.55 L13.95 86.55 13.95 62.6 -1.1 62.6 -1.1 86.55 -13.75 86.55 -13.75 55.45 -12.95 53.7 -12.95 61.2 Q-11.85 57.9 -8.2 55.3 -2.1 51.0 6.55 51.0 15.1 51.0 21.2 55.3 22.65 56.3 23.7 57.45 L23.7 86.55 M-29.35 86.55 L-67.6 86.55 -67.6 54.9 -66.8 53.3 -66.8 60.6 Q-65.55 57.65 -62.25 55.3 -56.1 51.0 -47.5 51.0 -38.95 51.0 -32.8 55.3 -30.65 56.85 -29.35 58.65 L-29.35 86.55 M-83.15 86.55 L-120.8 86.55 -120.8 56.35 -120.0 54.1 -120.0 62.1 Q-119.1 58.15 -114.95 55.2 -108.85 50.9 -100.2 50.95 -91.65 50.95 -85.55 55.2 -84.2 56.15 -83.15 57.25 L-83.15 86.55" fill="#b69ea8" fill-rule="evenodd" stroke="none"/>
    <path d="M13.95 86.55 L-1.1 86.55 -1.1 62.6 13.95 62.6 13.95 86.55" fill="#ccaab1" fill-rule="evenodd" stroke="none"/>
    <path d="M-189.4 86.55 L-197.2 86.55 -197.2 37.2 -197.2 3.25 -204.5 3.25 -193.55 -3.25 -189.4 -3.1 -189.4 2.35 -189.4 21.7 -189.4 29.5 -189.4 86.55" fill="#ae9bb0" fill-rule="evenodd" stroke="none"/>
    <path d="M26.7 -38.3 L10.1 -46.5 -21.05 -61.95 -22.0 -61.5 -38.75 -52.95 -39.55 -52.55 -39.55 -52.5 M26.1 -3.1 L39.25 -3.1 42.7 -3.1 65.45 -3.1 73.35 -3.1 76.75 -3.1 92.3 -3.1 92.3 1.45 92.3 2.35 92.3 7.85 92.3 16.65 92.3 21.7 92.3 29.5 92.35 29.5 92.3 29.5 92.3 41.65 145.3 77.9 157.9 86.55 M26.1 -3.1 L23.7 -3.1 23.7 1.45 23.7 8.1 23.7 21.7 23.7 29.5 23.7 40.8 23.7 52.7 23.7 57.45 23.7 86.55 M39.25 1.45 L39.25 -3.1 M23.7 -3.1 L10.05 -3.1 -5.5 -3.1 -5.5 -2.6 M-5.5 -3.1 L-13.75 -3.1 -13.75 1.45 -13.75 8.25 -13.75 21.7 -13.75 29.5 -29.35 29.5 -29.35 41.45 -29.35 54.3 -29.35 58.65 -29.35 86.55 M39.25 8.05 L39.25 1.45 M76.75 1.45 L76.75 -3.1 M58.25 -22.6 Q50.45 -26.45 42.7 -30.35 L26.7 -38.3 M-16.65 -78.95 L5.2 -78.95 69.7 -47.3 131.7 -47.35 139.5 -43.6 139.5 -59.1 147.25 -59.1 147.25 -39.9 184.45 -22.1 180.85 -22.1 180.85 -17.8 180.85 86.55 M-206.95 86.55 L-206.95 -16.95 -206.95 -22.1 -222.0 -22.1 -171.4 -46.9 -163.6 -46.9 -163.6 -66.85 -153.9 -66.85 -153.9 -46.95 -115.6 -47.0 -52.25 -78.95 -27.4 -78.95 -27.4 -101.4 -16.65 -101.4 -16.65 -78.95 -27.4 -78.95 M97.6 -3.1 L92.3 -3.1 M145.3 2.35 L145.3 -3.1 97.6 -3.1 58.25 -22.6 M147.25 -39.9 L147.25 -34.2 139.5 -34.2 139.5 -43.6 M129.8 -17.65 L159.45 -3.1 145.3 -3.1 M120.85 -22.1 L129.8 -17.65 M69.7 -47.3 L120.85 -22.1 180.85 -22.1 M162.35 78.15 L147.65 67.95 138.85 61.85 129.75 55.5 111.6 42.9 102.9 36.85 92.35 29.5 M96.8 19.85 L92.3 16.65 M92.3 29.5 L76.75 29.5 76.75 40.55 76.75 52.2 76.75 57.05 76.75 86.55 M102.9 36.85 L103.05 25.6 M111.6 30.3 L111.6 42.9 M119.55 35.9 L119.4 47.65 M96.8 19.85 L111.6 30.3 119.55 35.9 129.8 43.1 139.05 49.6 145.3 54.0 145.3 2.35 M96.8 19.85 L96.65 31.75 M92.3 50.2 L92.3 86.55 M147.65 67.95 L147.65 56.3 M145.3 54.0 L155.25 61.0 162.35 66.0 M155.25 61.0 L155.15 72.4 M139.05 49.6 L138.85 61.85 M145.3 82.6 L145.3 77.9 M145.3 82.6 L145.3 86.55 M92.3 50.2 L92.3 41.65 M129.75 55.5 L129.8 43.1 M76.75 1.45 L76.75 7.9 76.75 21.7 76.75 29.5 M39.25 29.5 L39.25 42.0 39.25 57.15 Q39.45 55.75 40.1 54.45 M39.25 8.05 L39.25 21.7 39.25 29.5 23.7 29.5 M76.75 21.7 L92.3 21.7 M23.7 21.7 L39.25 21.7 M-13.75 29.5 L-13.75 41.75 -13.75 55.45 -13.75 86.55 M-12.95 53.7 L-13.75 55.45 M-1.1 86.55 L-1.1 62.6 13.95 62.6 13.95 86.55 M39.25 86.55 L39.25 57.15 M-174.95 -17.0 L-164.85 -22.1 -206.95 -22.1 M-201.55 -3.5 L-174.95 -17.0 M-194.05 -3.3 L-201.55 -3.5 -202.55 -3.55 M-189.4 -3.1 L-193.55 -3.25 M-116.0 -13.5 L-136.35 -3.1 -120.8 -3.1 -120.0 -3.1 -102.35 -3.1 -86.7 -3.1 -83.15 -3.1 -83.15 1.45 -83.15 8.55 -83.15 21.7 -83.15 29.5 -83.15 40.65 -83.15 52.5 -83.15 57.25 -83.15 86.55 M-86.7 -28.45 L-102.5 -20.4 -116.0 -13.5 M-56.15 -44.05 L-55.15 -44.55 -39.55 -52.55 M-71.7 -3.1 L-67.6 -3.1 -55.1 -3.1 -39.55 -3.1 -29.35 -3.1 -29.35 1.45 -29.35 8.35 -29.35 21.7 -13.75 21.7 M-71.7 -3.1 L-83.15 -3.1 M-67.6 1.45 L-67.6 -3.1 M-13.75 -3.1 L-22.0 -3.1 -29.35 -3.1 M-86.7 -28.45 L-56.15 -44.05 M-189.4 -3.1 L-136.35 -3.1 -136.35 1.45 -136.35 2.35 -136.35 8.75 -136.35 21.7 -136.35 29.5 -136.35 86.55 M-120.8 1.45 L-120.8 -3.1 M-115.6 -47.0 L-164.85 -22.1 M-163.6 -46.9 L-153.9 -46.95 M-67.6 1.45 L-67.6 8.45 -67.6 21.7 -67.6 29.5 -67.6 41.6 -67.6 54.9 -66.8 53.3 M-29.35 21.7 L-29.35 29.5 M-67.6 86.55 L-67.6 54.9 M-120.8 1.45 L-120.8 8.65 -120.8 21.7 -120.8 29.5 -120.8 41.85 -120.8 56.35 -120.8 86.55 M-189.4 29.5 L-189.4 86.55 M-189.4 2.35 L-189.4 21.7 -189.4 29.5 M-120.0 54.1 L-120.8 56.35 M-189.4 2.35 L-189.4 -3.1" fill="none" stroke="#333333" stroke-linecap="round" stroke-linejoin="round" stroke-width="0.05"/>
    <path d="M162.8 66.0 L162.8 78.15 162.8 86.55" fill="none" stroke="#000000" stroke-linecap="round" stroke-linejoin="round" stroke-width="0.05"/>
    <path d="M10.1 -46.5 L10.05 -30.65 10.05 -3.1 M26.4 -22.5 L26.7 -38.3 M-22.0 -61.5 L-22.0 -46.6 -22.0 -3.1 M-5.5 -38.4 L-5.5 -53.7 M26.4 -22.5 L26.1 -3.1 M42.7 -3.1 L42.7 -14.45 42.7 -30.35 M-5.5 -38.4 L-5.5 -3.1 M58.25 -6.7 L58.25 -22.6 M58.25 -3.55 L58.25 -6.7 M73.35 -3.1 L73.35 -14.25 M39.25 42.0 Q47.5 36.15 59.15 36.15 69.2 36.15 76.75 40.55 M76.75 29.5 L39.25 29.5 M40.1 54.45 Q41.35 51.75 44.4 49.6 50.55 45.3 59.15 45.3 67.75 45.3 73.85 49.6 L76.75 52.2 M39.25 21.7 L76.75 21.7 M23.7 29.5 L-13.75 29.5 M-13.75 41.75 Q-5.65 36.15 5.7 36.15 16.0 36.15 23.7 40.8 M-12.95 53.7 Q-11.65 51.45 -9.0 49.6 -2.9 45.3 5.7 45.3 14.25 45.3 20.4 49.6 22.4 51.0 23.7 52.7 M-115.95 -5.25 L-115.9 -3.55 M-115.95 -5.25 L-116.0 -13.5 M-102.35 -3.1 L-102.4 -12.3 -102.5 -20.4 M-86.7 -20.5 L-86.7 -28.45 M-86.7 -3.1 L-86.7 -20.5 M-71.7 -28.35 L-71.7 -34.7 M-55.15 -44.55 L-55.15 -36.95 -55.1 -3.1 M-39.55 -45.1 L-39.55 -52.5 M-71.7 -28.35 L-71.7 -3.1 M-39.55 -45.1 L-39.55 -3.1 M-13.75 21.7 L23.7 21.7 M-29.35 29.5 L-67.6 29.5 -83.15 29.5 -120.8 29.5 -136.35 29.5 -189.4 29.5 M-67.6 41.6 Q-59.55 36.15 -48.35 36.15 -37.35 36.15 -29.35 41.45 M-83.15 21.7 L-67.6 21.7 -29.35 21.7 M-66.8 53.3 Q-65.5 51.3 -63.05 49.6 -56.95 45.3 -48.35 45.3 -39.75 45.3 -33.65 49.6 -30.65 51.7 -29.35 54.3 M-136.35 21.7 L-120.8 21.7 -83.15 21.7 M-120.8 41.85 Q-112.6 36.05 -101.05 36.05 -90.8 36.05 -83.15 40.65 M-120.0 54.1 Q-118.7 51.55 -115.8 49.5 -109.65 45.2 -101.05 45.25 -92.45 45.2 -86.35 49.5 -84.4 50.9 -83.15 52.5 M-189.4 21.7 L-136.35 21.7" fill="none" stroke="#666666" stroke-linecap="round" stroke-linejoin="round" stroke-width="0.05"/>
  </g>
</svg>
