<?xml version="1.0" encoding="UTF-8" standalone="no"?>
<svg xmlns:ffdec="https://www.free-decompiler.com/flash" xmlns:xlink="http://www.w3.org/1999/xlink" ffdec:objectType="shape" height="41.25px" width="291.55px" xmlns="http://www.w3.org/2000/svg">
  <g transform="matrix(1.0, 0.0, 0.0, 1.0, -4.7, -255.8)">
    <path d="M117.55 255.85 Q121.0 255.85 123.45 258.2 125.9 260.55 125.95 263.9 L125.95 268.8 Q125.9 269.6 125.15 269.6 L119.6 269.6 Q118.8 269.6 118.8 268.8 L118.8 263.95 Q118.8 262.7 117.55 262.7 L112.9 262.7 Q111.6 262.7 111.6 263.95 L111.6 288.95 Q111.6 290.2 112.9 290.2 L117.55 290.2 Q118.8 290.2 118.8 288.95 L118.8 284.2 Q118.75 283.35 118.0 283.35 L116.1 283.35 Q115.25 283.35 115.25 282.55 L115.25 277.3 Q115.25 276.5 116.1 276.5 L125.15 276.5 Q125.9 276.5 125.95 277.3 L125.95 288.95 Q125.9 292.3 123.45 294.7 121.0 297.05 117.55 297.05 L112.9 297.05 Q109.45 297.05 106.95 294.7 104.4 292.3 104.45 288.95 L104.45 263.9 Q104.4 260.55 106.95 258.2 109.45 255.85 112.9 255.85 L117.55 255.85 M83.15 256.65 L83.15 289.0 Q83.15 290.2 84.35 290.2 L89.05 290.2 Q90.3 290.2 90.3 288.95 L90.3 256.65 Q90.3 255.8 91.15 255.8 L96.7 255.8 Q97.5 255.8 97.5 256.65 L97.5 288.95 Q97.5 292.3 95.0 294.7 92.5 297.05 89.05 297.05 L84.35 297.05 Q82.15 297.05 80.25 295.95 79.5 295.55 78.8 295.95 76.8 297.05 74.7 297.05 L70.0 297.05 Q66.55 297.05 64.1 294.7 61.55 292.3 61.55 288.95 L61.55 256.65 Q61.55 255.8 62.4 255.8 L67.95 255.8 Q68.8 255.8 68.8 256.65 L68.8 288.95 Q68.8 290.2 70.0 290.2 L74.7 290.2 Q75.95 290.2 75.95 289.0 L75.95 256.65 Q75.95 255.8 76.75 255.8 L82.35 255.8 Q83.15 255.8 83.15 256.65 M147.2 263.9 Q147.2 262.65 145.95 262.65 L140.85 262.65 Q140.0 262.65 140.0 263.5 L140.0 272.25 Q140.0 273.0 140.85 273.0 L145.95 273.0 Q147.2 273.0 147.2 271.85 L147.2 263.9 M154.35 271.85 Q154.35 274.4 152.85 276.5 151.25 278.6 148.75 279.4 148.4 279.6 148.45 279.95 148.35 280.25 148.65 280.4 L149.55 281.0 Q154.35 284.4 154.35 289.9 L154.35 296.25 Q154.35 297.05 153.55 297.05 L148.05 297.05 Q147.2 297.05 147.2 296.25 L147.2 289.9 Q147.2 287.85 145.4 286.6 L140.95 283.6 140.3 283.55 Q140.0 283.7 140.0 284.1 L140.0 296.2 Q140.0 297.0 139.2 297.05 L133.65 297.05 Q132.8 297.0 132.8 296.2 L132.8 256.65 Q132.8 255.85 133.65 255.85 L145.95 255.85 Q149.4 255.85 151.9 258.2 154.35 260.55 154.35 263.9 L154.35 271.85 M161.2 263.9 Q161.15 260.55 163.7 258.2 166.2 255.85 169.65 255.85 L174.25 255.85 Q177.7 255.85 180.2 258.2 182.65 260.55 182.7 263.9 L182.7 288.95 Q182.65 292.3 180.2 294.7 177.7 297.05 174.25 297.05 L169.65 297.05 Q166.2 297.05 163.7 294.7 161.15 292.3 161.2 288.95 L161.2 263.9 M26.2 263.9 L26.2 296.25 Q26.2 297.05 25.45 297.05 L19.9 297.05 Q19.05 297.05 19.05 296.25 L19.05 263.95 Q19.05 262.7 17.8 262.7 L13.15 262.7 Q11.85 262.7 11.85 263.95 L11.85 296.25 Q11.85 297.05 11.1 297.05 L5.55 297.05 Q4.7 297.05 4.7 296.25 L4.7 263.9 Q4.7 260.5 7.2 258.2 9.65 255.85 13.15 255.85 L17.8 255.85 Q21.3 255.85 23.8 258.2 26.2 260.5 26.2 263.9 M35.55 258.2 Q38.0 255.85 41.55 255.85 L53.8 255.85 Q54.55 255.85 54.55 256.65 L54.55 261.85 Q54.55 262.65 53.8 262.65 L41.55 262.65 Q40.2 262.65 40.2 263.9 L40.2 272.25 Q40.2 273.0 41.05 273.0 L53.8 273.0 Q54.55 273.0 54.55 273.8 L54.55 279.1 Q54.55 279.85 53.8 279.9 L41.05 279.9 Q40.2 279.85 40.2 280.65 L40.2 288.95 Q40.2 290.2 41.55 290.2 L53.8 290.2 Q54.55 290.2 54.55 291.0 L54.55 296.25 Q54.55 297.05 53.8 297.05 L41.55 297.05 Q38.0 297.05 35.55 294.7 33.05 292.35 33.05 288.95 L33.05 263.9 Q33.05 260.5 35.55 258.2 M283.1 255.85 L295.5 255.85 Q296.25 255.85 296.25 256.65 L296.25 261.95 Q296.25 262.7 295.5 262.7 L283.1 262.7 Q281.8 262.7 281.8 263.9 L281.8 271.9 Q281.8 273.05 283.1 273.05 L287.85 273.05 Q291.35 273.05 293.85 275.45 296.25 277.8 296.25 281.2 L296.25 288.95 Q296.2 292.3 293.75 294.7 291.3 297.05 287.85 297.05 L275.5 297.05 Q274.6 297.05 274.65 296.25 L274.65 291.0 Q274.6 290.2 275.5 290.2 L287.85 290.2 Q289.05 290.2 289.05 288.95 L289.05 281.2 Q289.05 279.95 287.85 280.0 L283.1 280.0 Q279.65 279.95 277.15 277.55 274.6 275.2 274.65 271.9 L274.65 263.9 Q274.6 260.55 277.15 258.2 279.65 255.85 283.1 255.85 M267.8 263.9 L267.8 288.95 Q267.8 292.3 265.35 294.7 262.85 297.05 259.4 297.05 L247.1 297.05 Q246.3 297.05 246.3 296.25 L246.3 256.65 Q246.3 255.85 247.1 255.85 L259.4 255.85 Q262.85 255.85 265.35 258.2 267.8 260.55 267.8 263.9 M254.25 262.7 Q253.45 262.7 253.45 263.55 L253.45 289.4 Q253.45 290.2 254.25 290.2 L259.4 290.2 Q260.65 290.2 260.65 288.95 L260.65 263.95 Q260.65 262.7 259.4 262.7 L254.25 262.7 M196.7 256.65 L196.7 288.95 Q196.7 290.2 198.0 290.2 L202.65 290.2 Q203.9 290.2 203.9 288.95 L203.9 256.65 Q203.9 255.85 204.75 255.85 L210.3 255.85 Q211.05 255.85 211.05 256.65 L211.05 288.95 Q211.05 292.3 208.6 294.7 206.1 297.05 202.65 297.05 L198.0 297.05 Q194.55 297.05 192.1 294.7 189.55 292.3 189.55 288.95 L189.55 256.65 Q189.55 255.85 190.4 255.85 L195.95 255.85 Q196.7 255.85 196.7 256.65 M168.35 263.9 L168.35 288.95 Q168.35 290.2 169.65 290.2 L174.25 290.2 Q175.5 290.2 175.55 288.95 L175.55 263.9 Q175.5 262.7 174.25 262.7 L169.65 262.7 Q168.35 262.7 168.35 263.9 M231.0 255.85 Q234.5 255.85 237.0 258.2 239.4 260.5 239.4 263.9 L239.4 296.25 Q239.4 297.05 238.65 297.05 L233.1 297.05 Q232.3 297.05 232.3 296.25 L232.3 263.95 Q232.25 262.7 231.0 262.7 L226.4 262.7 Q225.05 262.7 225.05 263.95 L225.05 296.25 Q225.05 297.05 224.3 297.05 L218.75 297.05 Q217.95 297.05 217.95 296.25 L217.95 263.9 Q217.95 260.5 220.4 258.2 222.85 255.85 226.4 255.85 L231.0 255.85" fill="#ffffff" fill-rule="evenodd" stroke="none"/>
  </g>
</svg>
