<?xml version="1.0" encoding="UTF-8" standalone="no"?>
<svg xmlns:ffdec="https://www.free-decompiler.com/flash" xmlns:xlink="http://www.w3.org/1999/xlink" ffdec:objectType="shape" height="70.45px" width="103.65px" xmlns="http://www.w3.org/2000/svg">
  <g transform="matrix(1.0, 0.0, 0.0, 1.0, 51.5, 28.15)">
    <path d="M49.5 -28.15 L49.5 -26.95 40.15 -28.15 49.5 -28.15 M-51.5 -26.75 L-51.5 -28.15 -50.5 -28.15 -50.5 -26.75 -51.5 -26.75 M-48.35 -26.75 L-48.35 -28.15 -39.0 -28.15 -39.0 -26.75 -39.0 -24.7 -40.8 -24.7 -40.8 -12.25 -47.05 -12.25 -47.05 -24.7 -48.35 -24.7 -48.35 -26.75 M-14.95 -26.7 L-14.95 -28.15 -6.3 -28.15 -6.3 -26.7 -14.95 -26.7 M-40.8 -24.7 L-47.05 -24.7 -40.8 -24.7" fill="#e7c772" fill-rule="evenodd" stroke="none"/>
    <path d="M48.2 42.3 L48.2 27.2 48.2 9.4 48.2 1.55 Q48.2 -3.55 51.5 -7.3 L51.5 9.35 51.5 27.2 48.2 27.2 51.5 27.2 51.5 42.3 48.2 42.3 M48.2 9.4 L51.5 9.35 48.2 9.4 M-45.0 42.3 L-51.5 42.3 -51.5 27.2 -51.5 9.15 -51.5 -10.05 -48.95 -8.0 Q-45.0 -4.05 -45.0 1.55 L-45.0 9.1 -45.0 27.2 -45.0 42.3 M-45.0 27.2 L-51.5 27.2 -45.0 27.2 M-51.5 9.15 L-45.0 9.1 -51.5 9.15" fill="#a6a6a6" fill-rule="evenodd" stroke="none"/>
    <path d="M8.15 42.3 L8.15 27.2 8.15 9.4 8.15 1.55 Q8.15 -4.05 12.15 -8.0 16.1 -12.0 21.7 -11.95 L21.8 -11.95 Q27.3 -11.95 31.25 -8.0 35.2 -4.05 35.2 1.55 L35.2 9.1 35.2 27.2 35.2 42.3 21.8 42.3 21.8 27.2 21.8 42.3 8.15 42.3 M35.2 27.2 L21.8 27.2 21.8 9.25 35.2 9.1 21.8 9.25 21.8 27.2 35.2 27.2 M-5.15 42.3 L-18.55 42.3 -32.2 42.3 -32.2 27.2 -32.2 9.4 -32.2 1.55 Q-32.2 -4.05 -28.25 -8.0 -24.3 -12.0 -18.7 -11.95 L-18.55 -11.95 Q-13.05 -11.95 -9.1 -8.0 -5.15 -4.05 -5.15 1.55 L-5.15 9.1 -5.15 27.2 -5.15 42.3 M21.8 -11.95 L21.8 9.25 8.15 9.4 21.8 9.25 21.8 -11.95 M21.8 27.2 L8.15 27.2 21.8 27.2 M-18.55 27.2 L-32.2 27.2 -18.55 27.2 -18.55 9.25 -5.15 9.1 -18.55 9.25 -18.55 27.2 -5.15 27.2 -18.55 27.2 -18.55 42.3 -18.55 27.2 M-32.2 9.4 L-18.55 9.25 -32.2 9.4 M-18.55 -11.95 L-18.55 9.25 -18.55 -11.95" fill="url(#gradient0)" fill-rule="evenodd" stroke="none"/>
    <path d="M35.2 42.3 L35.2 27.2 35.2 9.1 35.2 1.55 Q35.2 -4.05 31.25 -8.0 27.3 -11.95 21.8 -11.95 L21.7 -11.95 Q16.1 -12.0 12.15 -8.0 8.15 -4.05 8.15 1.55 L8.15 9.4 8.15 27.2 8.15 42.3 -5.15 42.3 -5.15 27.2 -5.15 9.1 -5.15 1.55 Q-5.15 -4.05 -9.1 -8.0 -13.05 -11.95 -18.55 -11.95 L-18.7 -11.95 Q-24.3 -12.0 -28.25 -8.0 -32.2 -4.05 -32.2 1.55 L-32.2 9.4 -32.2 27.2 -32.2 42.3 -45.0 42.3 -45.0 27.2 -45.0 9.1 -45.0 1.55 Q-45.0 -4.05 -48.95 -8.0 L-51.5 -10.05 -51.5 -26.75 -50.5 -26.75 -48.35 -26.75 -48.35 -24.7 -47.05 -24.7 -47.05 -12.25 -40.8 -12.25 -40.8 -24.7 -39.0 -24.7 -39.0 -26.75 -14.95 -26.7 -6.3 -26.7 -2.95 -26.7 -2.95 -28.15 6.4 -28.15 -1.6 -26.65 49.5 -26.6 51.5 -26.6 51.5 -7.3 Q48.2 -3.55 48.2 1.55 L48.2 9.4 48.2 27.2 48.2 42.3 35.2 42.3 M49.5 -24.7 L49.5 -26.6 49.5 -24.7 M-1.65 -12.25 L-1.65 -24.7 -2.95 -24.7 -2.95 -26.7 -2.95 -24.7 -1.65 -24.7 -1.65 -12.25" fill="#ecd093" fill-rule="evenodd" stroke="none"/>
    <path d="M8.15 42.3 L8.15 27.2 8.15 9.4 8.15 1.55 Q8.15 -4.05 12.15 -8.0 16.1 -12.0 21.7 -11.95 L21.8 -11.95 Q27.3 -11.95 31.25 -8.0 35.2 -4.05 35.2 1.55 L35.2 9.1 35.2 27.2 35.2 42.3 M48.2 42.3 L48.2 27.2 48.2 9.4 48.2 1.55 Q48.2 -3.55 51.5 -7.3 M51.5 -26.6 L49.5 -26.6 49.5 -24.7 M51.5 -26.6 L52.15 -26.6 M49.5 -26.95 L49.5 -26.6 -1.6 -26.65 M-2.95 -28.15 L-2.95 -26.7 -2.95 -24.7 -1.65 -24.7 -1.65 -12.25 M49.5 -28.15 L49.5 -26.95 M51.5 9.35 L48.2 9.4 M51.5 27.2 L48.2 27.2 M35.2 9.1 L21.8 9.25 21.8 27.2 35.2 27.2 M21.8 27.2 L21.8 42.3 M-50.5 -28.15 L-50.5 -26.75 -48.35 -26.75 -48.35 -28.15 M-39.0 -28.15 L-39.0 -26.75 -14.95 -26.7 -14.95 -28.15 M-6.3 -28.15 L-6.3 -26.7 -2.95 -26.7 M21.8 9.25 L8.15 9.4 M8.15 27.2 L21.8 27.2 M21.8 9.25 L21.8 -11.95 M-51.5 -26.75 L-50.5 -26.75 M-51.5 -10.05 L-48.95 -8.0 Q-45.0 -4.05 -45.0 1.55 L-45.0 9.1 -45.0 27.2 -45.0 42.3 M-39.0 -26.75 L-39.0 -24.7 -40.8 -24.7 -40.8 -12.25 -47.05 -12.25 -47.05 -24.7 -48.35 -24.7 -48.35 -26.75 M-47.05 -24.7 L-40.8 -24.7 M-14.95 -26.7 L-6.3 -26.7 M-32.2 42.3 L-32.2 27.2 -32.2 9.4 -32.2 1.55 Q-32.2 -4.05 -28.25 -8.0 -24.3 -12.0 -18.7 -11.95 L-18.55 -11.95 Q-13.05 -11.95 -9.1 -8.0 -5.15 -4.05 -5.15 1.55 L-5.15 9.1 -5.15 27.2 -5.15 42.3 M-5.15 9.1 L-18.55 9.25 -18.55 27.2 -5.15 27.2 M-18.55 27.2 L-18.55 42.3 M-18.55 9.25 L-32.2 9.4 M-32.2 27.2 L-18.55 27.2 M-45.0 9.1 L-51.5 9.15 M-51.5 27.2 L-45.0 27.2 M-18.55 9.25 L-18.55 -11.95" fill="none" stroke="#000000" stroke-linecap="round" stroke-linejoin="round" stroke-width="0.05"/>
  </g>
  <defs>
    <linearGradient color-interpolation="linearRGB" gradientTransform="matrix(0.0, -0.011, 0.0083, 0.0, 14.95, 18.25)" gradientUnits="userSpaceOnUse" id="gradient0" spreadMethod="pad" x1="-819.2" x2="819.2">
      <stop offset="0.27058823529411763" stop-color="#d8ddf0"/>
      <stop offset="0.7137254901960784" stop-color="#a3b4dc"/>
    </linearGradient>
  </defs>
</svg>
