<?xml version="1.0" encoding="UTF-8" standalone="no"?>
<svg xmlns:ffdec="https://www.free-decompiler.com/flash" xmlns:xlink="http://www.w3.org/1999/xlink" ffdec:objectType="shape" height="9.05px" width="135.9px" xmlns="http://www.w3.org/2000/svg">
  <g transform="matrix(1.0, 0.0, 0.0, 1.0, 67.95, 4.5)">
    <path d="M54.4 -3.85 Q54.75 -3.45 54.75 -2.45 L54.75 -1.75 Q54.75 -0.5 53.9 -0.05 54.65 0.25 54.75 1.2 L54.75 1.5 54.75 2.4 54.75 2.75 Q54.5 4.35 52.7 4.4 L47.75 4.4 47.75 -4.45 52.8 -4.45 Q53.9 -4.45 54.4 -3.85 M52.15 -2.55 L49.85 -2.55 49.85 -1.0 52.15 -1.0 Q52.65 -1.0 52.65 -1.45 L52.65 -2.05 52.5 -2.4 52.15 -2.55 M52.65 2.0 L52.65 1.4 Q52.65 0.95 52.1 0.95 L49.85 0.95 49.85 2.5 52.15 2.5 Q52.65 2.45 52.65 2.0 M63.5 -1.1 L65.55 -4.45 67.95 -4.45 64.65 0.95 64.65 4.4 62.55 4.4 62.55 0.95 59.25 -4.45 61.65 -4.45 63.5 -1.1 M31.65 -2.55 L29.5 -2.55 29.5 2.5 31.65 2.5 32.25 2.35 32.4 1.85 32.4 1.75 32.4 -2.15 Q32.4 -2.45 31.8 -2.55 L31.65 -2.55 M34.5 -2.5 L34.5 2.45 34.45 2.75 Q34.25 4.35 32.45 4.4 L27.4 4.4 27.4 -4.45 32.4 -4.45 Q34.5 -4.45 34.5 -2.5 M15.85 -2.9 Q16.1 -4.45 17.85 -4.45 L22.2 -4.45 22.2 -2.55 18.4 -2.55 18.25 -2.5 Q17.9 -2.4 17.9 -2.0 L17.9 -1.0 22.2 -1.0 22.2 0.95 17.9 0.95 17.9 1.85 Q17.9 2.45 18.45 2.5 L22.2 2.5 22.2 4.4 18.15 4.4 Q15.8 4.35 15.8 2.55 L15.8 -2.55 15.85 -2.9 M-3.85 -2.4 L-4.4 -2.55 -5.7 -2.55 -6.25 -2.4 -6.4 -1.9 -6.4 1.85 Q-6.4 2.5 -5.7 2.5 L-4.4 2.5 -3.85 2.35 Q-3.7 2.25 -3.7 1.95 L-3.7 -1.9 Q-3.7 -2.3 -3.85 -2.4 M-1.6 -2.55 L-1.6 2.5 Q-1.6 4.4 -3.8 4.4 L-6.3 4.4 -7.75 4.1 -8.45 2.95 -8.5 2.5 -8.5 -2.55 -8.45 -3.0 Q-8.25 -3.8 -7.7 -4.1 L-6.3 -4.45 -3.8 -4.45 Q-1.6 -4.45 -1.6 -2.55 M10.65 -2.65 L10.65 -0.85 10.6 -0.5 Q10.35 0.7 9.05 0.9 L8.7 0.95 8.35 0.9 10.75 4.4 8.25 4.4 6.05 1.1 Q5.8 0.8 5.85 0.45 6.0 -0.7 7.15 -0.7 L8.0 -0.7 Q8.55 -0.7 8.55 -1.2 L8.55 -2.0 Q8.55 -2.45 8.05 -2.55 L7.9 -2.55 5.8 -2.55 5.8 4.4 3.7 4.4 3.7 -4.45 8.6 -4.45 Q10.35 -4.45 10.6 -3.0 L10.65 -2.65 M-19.95 -3.1 Q-19.6 -4.45 -18.0 -4.45 L-13.7 -4.45 -13.7 -2.55 -17.45 -2.55 -17.85 -2.25 -17.9 -2.1 -17.9 -1.5 -17.9 -1.35 -17.35 -1.0 -17.2 -1.0 -15.7 -1.0 Q-14.05 -1.0 -13.75 0.4 L-13.7 0.75 -13.7 2.55 Q-13.7 3.4 -14.3 3.9 -14.85 4.35 -15.85 4.4 L-20.0 4.4 -20.0 2.5 -16.35 2.5 -16.2 2.45 Q-15.85 2.3 -15.85 1.95 L-15.85 1.35 Q-15.85 0.95 -16.3 0.95 L-18.05 0.95 Q-19.1 0.9 -19.7 0.1 L-20.0 -0.85 -20.0 -2.65 -19.95 -3.1 M-27.2 2.0 L-27.2 -4.45 -25.2 -4.45 -25.2 2.85 Q-25.2 3.55 -25.65 4.05 -26.15 4.5 -26.9 4.55 -28.3 4.55 -28.75 3.05 L-30.25 -2.05 -30.25 4.4 -32.25 4.4 -32.25 -2.65 Q-32.25 -3.45 -31.85 -4.0 -31.35 -4.55 -30.5 -4.5 L-29.8 -4.45 Q-28.95 -4.2 -28.65 -3.1 L-27.2 2.0 M-41.65 -2.55 L-42.2 -2.4 -42.35 -1.9 -42.35 1.85 Q-42.35 2.5 -41.65 2.5 L-40.35 2.5 -39.8 2.35 Q-39.65 2.25 -39.65 1.95 L-39.65 -1.9 Q-39.65 -2.3 -39.8 -2.4 L-40.35 -2.55 -41.65 -2.55 M-44.4 -3.0 Q-44.2 -3.8 -43.65 -4.1 -43.15 -4.45 -42.25 -4.45 L-39.75 -4.45 Q-37.55 -4.45 -37.55 -2.55 L-37.55 2.5 Q-37.55 4.4 -39.75 4.4 L-42.25 4.4 -43.7 4.1 -44.4 2.95 -44.45 2.5 -44.45 -2.55 -44.4 -3.0 M-49.45 -0.5 Q-49.45 0.3 -50.0 0.75 L-51.4 1.2 -54.35 1.2 -54.35 4.4 -56.45 4.4 -56.45 -4.45 -51.55 -4.45 -50.05 -4.0 Q-49.45 -3.5 -49.45 -2.65 L-49.45 -0.5 M-61.65 -2.55 L-65.4 -2.55 Q-65.7 -2.55 -65.8 -2.25 L-65.85 -2.1 -65.85 -1.5 -65.85 -1.35 -65.3 -1.0 -65.15 -1.0 -63.65 -1.0 Q-62.0 -1.0 -61.7 0.4 L-61.65 0.75 -61.65 2.55 Q-61.65 3.4 -62.25 3.9 -62.8 4.35 -63.8 4.4 L-67.95 4.4 -67.95 2.5 -64.3 2.5 -64.15 2.45 Q-63.8 2.3 -63.8 1.95 L-63.8 1.35 Q-63.8 0.95 -64.25 0.95 L-66.0 0.95 Q-67.05 0.9 -67.65 0.1 L-67.95 -0.85 -67.95 -2.65 -67.9 -3.1 Q-67.55 -4.45 -65.95 -4.45 L-61.65 -4.45 -61.65 -2.55 M-54.35 -2.55 L-54.35 -0.75 -52.3 -0.75 -51.75 -0.8 -51.55 -1.2 -51.55 -2.1 Q-51.6 -2.45 -52.1 -2.55 L-54.35 -2.55" fill="#000000" fill-rule="evenodd" stroke="none"/>
  </g>
</svg>
