<?xml version="1.0" encoding="UTF-8" standalone="no"?>
<svg xmlns:ffdec="https://www.free-decompiler.com/flash" xmlns:xlink="http://www.w3.org/1999/xlink" ffdec:objectType="shape" height="292.75px" width="1170.1px" xmlns="http://www.w3.org/2000/svg">
  <g transform="matrix(1.0, 0.0, 0.0, 1.0, 821.5, 157.9)">
    <path d="M347.2 93.15 Q347.2 110.25 335.15 122.3 323.1 134.35 306.0 134.35 288.9 134.35 276.85 122.3 264.8 110.25 264.8 93.15 264.8 76.05 276.85 64.0 288.9 51.95 306.0 51.95 323.1 51.95 335.15 64.0 347.2 76.05 347.2 93.15 M306.05 69.9 Q296.35 69.9 289.55 76.7 282.8 83.5 282.8 93.15 282.8 102.8 289.55 109.6 296.35 116.4 306.05 116.4 315.7 116.4 322.5 109.6 329.25 102.8 329.25 93.15 329.25 83.5 322.5 76.7 315.7 69.9 306.05 69.9 M-59.95 93.15 Q-59.95 110.25 -72.0 122.3 -84.05 134.35 -101.15 134.35 -118.25 134.35 -130.3 122.3 -142.35 110.25 -142.35 93.15 -142.35 76.05 -130.3 64.0 -118.25 51.95 -101.15 51.95 -84.05 51.95 -72.0 64.0 -59.95 76.05 -59.95 93.15 M-217.0 76.7 Q-223.75 83.5 -223.75 93.15 -223.75 102.8 -217.0 109.6 -210.2 116.4 -200.5 116.4 -190.85 116.4 -184.05 109.6 -177.3 102.8 -177.3 93.15 -177.3 83.5 -184.05 76.7 -190.85 69.9 -200.5 69.9 -210.2 69.9 -217.0 76.7 M-101.1 69.9 Q-110.8 69.9 -117.6 76.7 -124.35 83.5 -124.35 93.15 -124.35 102.8 -117.6 109.6 -110.8 116.4 -101.1 116.4 -91.45 116.4 -84.65 109.6 -77.9 102.8 -77.9 93.15 -77.9 83.5 -84.65 76.7 -91.45 69.9 -101.1 69.9 M-229.7 64.0 Q-217.65 51.95 -200.55 51.95 -183.45 51.95 -171.4 64.0 -159.35 76.05 -159.35 93.15 -159.35 110.25 -171.4 122.3 -183.45 134.35 -200.55 134.35 -217.65 134.35 -229.7 122.3 -241.75 110.25 -241.75 93.15 -241.75 76.05 -229.7 64.0 M-615.3 64.0 Q-603.25 76.05 -603.25 93.15 -603.25 110.25 -615.3 122.3 -627.35 134.35 -644.45 134.35 -661.55 134.35 -673.6 122.3 -685.65 110.25 -685.65 93.15 -685.65 76.05 -673.6 64.0 -661.55 51.95 -644.45 51.95 -627.35 51.95 -615.3 64.0 M-627.95 76.7 Q-634.75 69.9 -644.4 69.9 -654.1 69.9 -660.9 76.7 -667.65 83.5 -667.65 93.15 -667.65 102.8 -660.9 109.6 -654.1 116.4 -644.4 116.4 -634.75 116.4 -627.95 109.6 -621.2 102.8 -621.2 93.15 -621.2 83.5 -627.95 76.7 M-704.75 93.15 Q-704.75 110.25 -716.8 122.3 -728.85 134.35 -745.95 134.35 -763.05 134.35 -775.1 122.3 -787.15 110.25 -787.15 93.15 -787.15 76.05 -775.1 64.0 -763.05 51.95 -745.95 51.95 -728.85 51.95 -716.8 64.0 -704.75 76.05 -704.75 93.15 M-745.9 69.9 Q-755.6 69.9 -762.4 76.7 -769.15 83.5 -769.15 93.15 -769.15 102.8 -762.4 109.6 -755.6 116.4 -745.9 116.4 -736.25 116.4 -729.45 109.6 -722.7 102.8 -722.7 93.15 -722.7 83.5 -729.45 76.7 -736.25 69.9 -745.9 69.9" fill="#222222" fill-rule="evenodd" stroke="none"/>
    <path d="M306.05 69.9 Q315.7 69.9 322.5 76.7 329.25 83.5 329.25 93.15 329.25 102.8 322.5 109.6 315.7 116.4 306.05 116.4 296.35 116.4 289.55 109.6 282.8 102.8 282.8 93.15 282.8 83.5 289.55 76.7 296.35 69.9 306.05 69.9 M-101.1 69.9 Q-91.45 69.9 -84.65 76.7 -77.9 83.5 -77.9 93.15 -77.9 102.8 -84.65 109.6 -91.45 116.4 -101.1 116.4 -110.8 116.4 -117.6 109.6 -124.35 102.8 -124.35 93.15 -124.35 83.5 -117.6 76.7 -110.8 69.9 -101.1 69.9 M-217.0 76.7 Q-210.2 69.9 -200.5 69.9 -190.85 69.9 -184.05 76.7 -177.3 83.5 -177.3 93.15 -177.3 102.8 -184.05 109.6 -190.85 116.4 -200.5 116.4 -210.2 116.4 -217.0 109.6 -223.75 102.8 -223.75 93.15 -223.75 83.5 -217.0 76.7 M-627.95 76.7 Q-621.2 83.5 -621.2 93.15 -621.2 102.8 -627.95 109.6 -634.75 116.4 -644.4 116.4 -654.1 116.4 -660.9 109.6 -667.65 102.8 -667.65 93.15 -667.65 83.5 -660.9 76.7 -654.1 69.9 -644.4 69.9 -634.75 69.9 -627.95 76.7 M-745.9 69.9 Q-736.25 69.9 -729.45 76.7 -722.7 83.5 -722.7 93.15 -722.7 102.8 -729.45 109.6 -736.25 116.4 -745.9 116.4 -755.6 116.4 -762.4 109.6 -769.15 102.8 -769.15 93.15 -769.15 83.5 -762.4 76.7 -755.6 69.9 -745.9 69.9" fill="#c4c4c4" fill-rule="evenodd" stroke="none"/>
    <path d="M347.2 93.15 Q347.2 110.25 335.15 122.3 323.1 134.35 306.0 134.35 288.9 134.35 276.85 122.3 264.8 110.25 264.8 93.15 264.8 76.05 276.85 64.0 288.9 51.95 306.0 51.95 323.1 51.95 335.15 64.0 347.2 76.05 347.2 93.15 M306.05 69.9 Q315.7 69.9 322.5 76.7 329.25 83.5 329.25 93.15 329.25 102.8 322.5 109.6 315.7 116.4 306.05 116.4 296.35 116.4 289.55 109.6 282.8 102.8 282.8 93.15 282.8 83.5 289.55 76.7 296.35 69.9 306.05 69.9 M-59.95 93.15 Q-59.95 110.25 -72.0 122.3 -84.05 134.35 -101.15 134.35 -118.25 134.35 -130.3 122.3 -142.35 110.25 -142.35 93.15 -142.35 76.05 -130.3 64.0 -118.25 51.95 -101.15 51.95 -84.05 51.95 -72.0 64.0 -59.95 76.05 -59.95 93.15 M-101.1 69.9 Q-91.45 69.9 -84.65 76.7 -77.9 83.5 -77.9 93.15 -77.9 102.8 -84.65 109.6 -91.45 116.4 -101.1 116.4 -110.8 116.4 -117.6 109.6 -124.35 102.8 -124.35 93.15 -124.35 83.5 -117.6 76.7 -110.8 69.9 -101.1 69.9 M-217.0 76.7 Q-210.2 69.9 -200.5 69.9 -190.85 69.9 -184.05 76.7 -177.3 83.5 -177.3 93.15 -177.3 102.8 -184.05 109.6 -190.85 116.4 -200.5 116.4 -210.2 116.4 -217.0 109.6 -223.75 102.8 -223.75 93.15 -223.75 83.5 -217.0 76.7 M-229.7 64.0 Q-217.65 51.95 -200.55 51.95 -183.45 51.95 -171.4 64.0 -159.35 76.05 -159.35 93.15 -159.35 110.25 -171.4 122.3 -183.45 134.35 -200.55 134.35 -217.65 134.35 -229.7 122.3 -241.75 110.25 -241.75 93.15 -241.75 76.05 -229.7 64.0 M-615.3 64.0 Q-603.25 76.05 -603.25 93.15 -603.25 110.25 -615.3 122.3 -627.35 134.35 -644.45 134.35 -661.55 134.35 -673.6 122.3 -685.65 110.25 -685.65 93.15 -685.65 76.05 -673.6 64.0 -661.55 51.95 -644.45 51.95 -627.35 51.95 -615.3 64.0 M-627.95 76.7 Q-621.2 83.5 -621.2 93.15 -621.2 102.8 -627.95 109.6 -634.75 116.4 -644.4 116.4 -654.1 116.4 -660.9 109.6 -667.65 102.8 -667.65 93.15 -667.65 83.5 -660.9 76.7 -654.1 69.9 -644.4 69.9 -634.75 69.9 -627.95 76.7 M-704.75 93.15 Q-704.75 110.25 -716.8 122.3 -728.85 134.35 -745.95 134.35 -763.05 134.35 -775.1 122.3 -787.15 110.25 -787.15 93.15 -787.15 76.05 -775.1 64.0 -763.05 51.95 -745.95 51.95 -728.85 51.95 -716.8 64.0 -704.75 76.05 -704.75 93.15 M-745.9 69.9 Q-736.25 69.9 -729.45 76.7 -722.7 83.5 -722.7 93.15 -722.7 102.8 -729.45 109.6 -736.25 116.4 -745.9 116.4 -755.6 116.4 -762.4 109.6 -769.15 102.8 -769.15 93.15 -769.15 83.5 -762.4 76.7 -755.6 69.9 -745.9 69.9 Z" fill="none" stroke="#000000" stroke-linecap="round" stroke-linejoin="round" stroke-width="1.0"/>
    <path d="M136.2 -79.95 L136.2 -137.95 146.65 -148.4 146.65 -76.6 146.65 -60.45 148.75 -60.45 148.75 59.35 222.3 59.35 222.3 99.25 208.4 99.35 222.3 99.25 222.3 99.5 208.4 99.35 161.3 99.35 148.3 99.25 148.3 59.5 124.15 59.5 124.15 59.45 124.15 -54.85 124.15 -60.45 136.2 -60.45 136.2 -79.95 M148.3 59.5 L148.75 59.5 148.75 59.35 148.3 59.35 148.3 59.5 148.3 59.35 148.75 59.35 148.75 59.5 148.3 59.5 M124.1 59.45 L124.1 112.35 -46.2 112.35 -46.2 62.5 -46.2 60.4 -16.6 60.4 -16.6 59.45 -8.9 59.45 17.85 59.45 124.1 59.45 M-8.9 59.45 L-8.9 61.55 -8.9 59.45" fill="#c4c4c4" fill-rule="evenodd" stroke="none"/>
    <path d="M71.8 -43.7 L71.8 1.9 36.2 1.9 36.2 -43.7 71.8 -43.7 M155.6 -54.15 L203.25 -54.65 214.25 -10.15 155.6 -10.15 155.6 -54.15" fill="#333333" fill-rule="evenodd" stroke="none"/>
    <path d="M146.65 -76.6 L214.25 -62.55 231.0 -19.55 347.25 -11.2 347.25 45.5 Q310.6 20.85 268.8 43.5 241.2 65.85 243.45 98.45 L243.45 99.25 222.3 99.25 222.3 59.35 148.75 59.35 148.75 -60.45 146.65 -60.45 146.65 -76.6 M17.85 59.45 L17.85 -52.6 18.05 -54.85 124.15 -54.85 124.15 59.45 124.1 59.45 17.85 59.45 M71.8 -43.7 L36.2 -43.7 36.2 1.9 71.8 1.9 71.8 -43.7 M155.6 -54.15 L155.6 -10.15 214.25 -10.15 203.25 -54.65 155.6 -54.15" fill="#996699" fill-rule="evenodd" stroke="none"/>
    <path d="M148.3 99.25 L161.3 99.35 148.3 99.5 148.3 99.25" fill="#6b476b" fill-rule="evenodd" stroke="none"/>
    <path d="M-46.2 60.4 L-821.0 60.4 -821.0 -157.4 -16.6 -157.4 -16.6 57.35 -16.6 59.45 -16.6 60.4 -46.2 60.4" fill="#cdb6ac" fill-rule="evenodd" stroke="none"/>
    <path d="M243.45 99.25 L243.45 98.45 Q241.2 65.85 268.8 43.5 310.6 20.85 347.25 45.5 L347.25 66.15 345.25 64.65 Q330.95 54.5 313.25 54.8 307.3 55.35 301.65 57.05 269.95 66.7 259.7 98.2 L259.7 99.25 243.45 99.25 M124.15 59.5 L148.3 59.5 148.3 99.25 124.15 99.25 124.15 59.5" fill="#5a3e5b" fill-rule="evenodd" stroke="none"/>
    <path d="M136.2 -79.95 L136.2 -60.45 124.15 -60.45 124.15 -54.85 18.05 -54.85 24.15 -109.7 94.85 -106.55 136.2 -79.95" fill="#664466" fill-rule="evenodd" stroke="none"/>
    <path d="M136.2 -79.95 L136.2 -137.95 146.65 -148.4 146.65 -76.6 214.25 -62.55 231.0 -19.55 347.25 -11.2 347.25 45.5 348.1 45.6 M17.85 59.45 L17.85 -52.6 18.05 -54.85 17.2 -54.85 M146.65 -76.6 L146.65 -60.45 148.75 -60.45 148.75 59.35 222.3 59.35 222.3 99.25 243.45 99.25 259.7 99.25 M347.25 45.5 L347.25 66.15 345.25 64.65 Q330.95 54.5 313.25 54.8 307.3 55.35 301.65 57.05 269.95 66.7 259.7 98.2 M124.15 -54.85 L124.15 -60.45 136.2 -60.45 136.2 -79.95 94.85 -106.55 24.15 -109.7 18.05 -54.85 M124.15 -54.85 L124.15 59.45 M124.15 59.5 L148.3 59.5 148.3 59.35 148.75 59.35 148.75 59.5 148.3 59.5 148.3 99.25 161.3 99.35 208.4 99.35 222.3 99.25 222.3 99.5 M124.1 59.45 L124.1 112.35 -46.2 112.35 -46.2 62.5 M-46.2 60.4 L-821.0 60.4 -821.0 -157.4 -16.6 -157.4 -16.6 57.35 -16.6 59.45 -8.9 59.45 17.85 59.45 124.1 59.45 M148.3 99.25 L148.3 99.5 M124.15 99.25 L148.3 99.25 M-46.2 60.4 L-16.6 60.4 -16.6 59.45 M-8.9 61.55 L-8.9 59.45" fill="none" stroke="#000000" stroke-linecap="round" stroke-linejoin="round" stroke-width="1.0"/>
  </g>
</svg>
