<?xml version="1.0" encoding="UTF-8" standalone="no"?>
<svg xmlns:ffdec="https://www.free-decompiler.com/flash" xmlns:xlink="http://www.w3.org/1999/xlink" ffdec:objectType="shape" height="96.25px" width="278.15px" xmlns="http://www.w3.org/2000/svg">
  <g transform="matrix(1.0, 0.0, 0.0, 1.0, 249.65, 75.25)">
    <path d="M-10.0 -2.05 L-54.85 2.85 Q-52.9 -17.15 -35.5 -20.35 -15.2 -22.3 -10.0 -2.05 M-175.75 2.5 L-222.35 3.35 Q-220.3 -21.05 -199.35 -21.2 -177.3 -17.85 -175.75 2.5 M-176.05 -42.8 L-136.3 -70.25 -131.95 -70.25 -164.8 -42.8 -176.05 -42.8 M-97.05 -69.0 L-101.6 -42.8 -153.15 -42.8 -125.3 -69.0 -97.05 -69.0" fill="#333333" fill-rule="evenodd" stroke="none"/>
    <path d="M21.4 -42.0 L22.65 -26.6 13.95 -26.6 13.55 -42.0 21.4 -42.0" fill="#cc0033" fill-rule="evenodd" stroke="none"/>
    <path d="M-54.85 2.85 L-55.05 5.85 -55.45 5.85 -55.45 2.9 -54.85 2.85 M-222.35 3.35 L-222.6 7.5 -223.05 7.45 -222.35 3.35 M-136.3 -70.25 L-133.35 -72.25 -131.95 -70.25 -136.3 -70.25 M13.55 -45.95 L21.05 -46.15 21.4 -42.0 13.55 -42.0 13.55 -45.95" fill="#ffffff" fill-rule="evenodd" stroke="none"/>
    <path d="M22.65 -26.6 L23.1 -21.2 28.5 -21.2 25.2 -2.5 -9.3 1.25 -10.0 -2.05 Q-15.2 -22.3 -35.5 -20.35 -52.9 -17.15 -54.85 2.85 L-55.45 2.9 -55.45 5.85 -175.65 7.5 Q-175.55 4.9 -175.75 2.5 -177.3 -17.85 -199.35 -21.2 -220.3 -21.05 -222.35 3.35 L-223.05 7.45 -242.55 4.15 Q-252.1 -0.15 -248.8 -14.55 L-243.0 -28.7 Q-211.85 -40.4 -176.05 -42.8 L-164.8 -42.8 -131.95 -70.25 -133.35 -72.25 -129.05 -75.25 -86.65 -75.25 -84.15 -43.65 13.55 -45.95 13.55 -42.0 13.95 -26.6 22.65 -26.6 M-97.05 -69.0 L-125.3 -69.0 -153.15 -42.8 -101.6 -42.8 -97.05 -69.0" fill="#ff9999" fill-rule="evenodd" stroke="none"/>
    <path d="M-242.55 4.15 Q-252.1 -0.15 -248.8 -14.55" fill="none" stroke="#000000" stroke-linecap="round" stroke-linejoin="round" stroke-width="0.05"/>
    <path d="M21.4 -42.0 L22.65 -26.6 23.1 -21.2 28.5 -21.2 25.2 -2.5 -9.3 1.25 -10.0 -2.05 -54.85 2.85 -55.05 5.85 -55.45 5.85 -175.65 7.5 Q-175.55 4.9 -175.75 2.5 L-222.35 3.35 -222.6 7.5 -223.05 7.45 -242.55 4.15 M-248.8 -14.55 L-243.0 -28.7 Q-211.85 -40.4 -176.05 -42.8 L-136.3 -70.25 -133.35 -72.25 -129.05 -75.25 -86.65 -75.25 -84.15 -43.65 13.55 -45.95 21.05 -46.15 21.4 -42.0 M-10.0 -2.05 Q-15.2 -22.3 -35.5 -20.35 -52.9 -17.15 -54.85 2.85 L-55.45 2.9 M-222.35 3.35 Q-220.3 -21.05 -199.35 -21.2 -177.3 -17.85 -175.75 2.5" fill="none" stroke="#000000" stroke-linecap="round" stroke-linejoin="round" stroke-width="0.05"/>
    <path d="M-191.35 -5.6 Q-194.45 -8.65 -198.8 -8.65 -203.15 -8.65 -206.25 -5.6 -209.3 -2.5 -209.3 1.85 -209.3 6.2 -206.25 9.3 -203.15 12.35 -198.8 12.4 -194.45 12.35 -191.35 9.3 -188.3 6.2 -188.3 1.85 -188.3 -2.5 -191.35 -5.6 M-185.6 -11.35 Q-180.15 -5.9 -180.15 1.85 -180.15 9.6 -185.6 15.05 -191.1 20.5 -198.8 20.5 -206.55 20.5 -212.0 15.05 -217.45 9.6 -217.45 1.85 -217.45 -5.9 -212.0 -11.35 -206.55 -16.8 -198.8 -16.8 -191.1 -16.8 -185.6 -11.35 M-19.8 -12.6 Q-14.35 -7.15 -14.35 0.6 -14.35 8.35 -19.8 13.8 -25.3 19.25 -33.0 19.25 -40.75 19.25 -46.2 13.8 -51.65 8.35 -51.65 0.6 -51.65 -7.15 -46.2 -12.6 -40.75 -18.05 -33.0 -18.05 -25.3 -18.05 -19.8 -12.6 M-25.55 -6.85 Q-28.65 -9.9 -33.0 -9.9 -37.35 -9.9 -40.45 -6.85 -43.5 -3.75 -43.5 0.6 -43.5 4.95 -40.45 8.05 -37.35 11.1 -33.0 11.15 -28.65 11.1 -25.55 8.05 -22.5 4.95 -22.5 0.6 -22.5 -3.75 -25.55 -6.85" fill="#222222" fill-rule="evenodd" stroke="none"/>
    <path d="M-191.35 -5.6 Q-188.3 -2.5 -188.3 1.85 -188.3 6.2 -191.35 9.3 -194.45 12.35 -198.8 12.4 -203.15 12.35 -206.25 9.3 -209.3 6.2 -209.3 1.85 -209.3 -2.5 -206.25 -5.6 -203.15 -8.65 -198.8 -8.65 -194.45 -8.65 -191.35 -5.6 M-25.55 -6.85 Q-22.5 -3.75 -22.5 0.6 -22.5 4.95 -25.55 8.05 -28.65 11.1 -33.0 11.15 -37.35 11.1 -40.45 8.05 -43.5 4.95 -43.5 0.6 -43.5 -3.75 -40.45 -6.85 -37.35 -9.9 -33.0 -9.9 -28.65 -9.9 -25.55 -6.85" fill="#c4c4c4" fill-rule="evenodd" stroke="none"/>
    <path d="M-191.35 -5.6 Q-188.3 -2.5 -188.3 1.85 -188.3 6.2 -191.35 9.3 -194.45 12.35 -198.8 12.4 -203.15 12.35 -206.25 9.3 -209.3 6.2 -209.3 1.85 -209.3 -2.5 -206.25 -5.6 -203.15 -8.65 -198.8 -8.65 -194.45 -8.65 -191.35 -5.6 M-185.6 -11.35 Q-180.15 -5.9 -180.15 1.85 -180.15 9.6 -185.6 15.05 -191.1 20.5 -198.8 20.5 -206.55 20.5 -212.0 15.05 -217.45 9.6 -217.45 1.85 -217.45 -5.9 -212.0 -11.35 -206.55 -16.8 -198.8 -16.8 -191.1 -16.8 -185.6 -11.35 M-19.8 -12.6 Q-14.35 -7.15 -14.35 0.6 -14.35 8.35 -19.8 13.8 -25.3 19.25 -33.0 19.25 -40.75 19.25 -46.2 13.8 -51.65 8.35 -51.65 0.6 -51.65 -7.15 -46.2 -12.6 -40.75 -18.05 -33.0 -18.05 -25.3 -18.05 -19.8 -12.6 M-25.55 -6.85 Q-22.5 -3.75 -22.5 0.6 -22.5 4.95 -25.55 8.05 -28.65 11.1 -33.0 11.15 -37.35 11.1 -40.45 8.05 -43.5 4.95 -43.5 0.6 -43.5 -3.75 -40.45 -6.85 -37.35 -9.9 -33.0 -9.9 -28.65 -9.9 -25.55 -6.85 Z" fill="none" stroke="#000000" stroke-linecap="round" stroke-linejoin="round" stroke-width="1.0"/>
  </g>
</svg>
