<?xml version="1.0" encoding="UTF-8" standalone="no"?>
<svg xmlns:ffdec="https://www.free-decompiler.com/flash" xmlns:xlink="http://www.w3.org/1999/xlink" ffdec:objectType="shape" height="125.7px" width="377.8px" xmlns="http://www.w3.org/2000/svg">
  <g transform="matrix(1.0, 0.0, 0.0, 1.0, 229.4, 91.85)">
    <path d="M-4.05 -81.4 Q4.05 -78.05 12.15 -73.9 L56.75 -51.55 61.2 -50.75 49.0 -46.25 -4.05 -81.4 M111.5 12.6 L43.85 12.0 Q47.25 -24.9 78.1 -26.8 109.4 -25.55 111.5 12.6 M-123.4 9.55 L-187.65 9.0 Q-186.25 -19.75 -154.8 -23.45 L-154.8 -23.4 -154.7 -22.95 Q-126.0 -19.0 -123.4 9.55 M36.4 -44.3 L-54.3 -48.65 -61.1 -84.05 Q-19.75 -83.5 2.9 -67.6 L36.4 -44.3 M117.85 -13.75 L117.65 -13.6 111.05 -24.9 135.3 -24.9 143.1 -15.2 117.85 -13.75 M-108.65 -83.1 L-72.25 -83.1 -69.85 -48.2 -147.95 -50.1 Q-141.4 -79.7 -108.65 -83.1" fill="#333333" fill-rule="evenodd" stroke="none"/>
    <path d="M147.6 -16.95 L148.4 -14.7 148.4 -14.5 143.1 -15.2 147.6 -16.95 M-187.65 9.0 L-187.75 12.5 -189.65 12.45 -187.65 9.0" fill="#e25050" fill-rule="evenodd" stroke="none"/>
    <path d="M-4.05 -81.4 L49.0 -46.25 61.2 -50.75 114.45 -41.4 Q141.05 -33.4 147.6 -16.95 L143.1 -15.2 148.4 -14.5 144.55 15.35 111.55 15.1 111.5 12.6 Q109.4 -25.55 78.1 -26.8 47.25 -24.9 43.85 12.0 L43.65 14.5 -123.2 13.05 -123.4 9.55 Q-126.0 -19.0 -154.7 -22.95 L-154.8 -23.4 -154.8 -23.45 Q-186.25 -19.75 -187.65 9.0 L-189.65 12.45 -224.1 7.6 -224.1 -51.1 -219.3 -51.65 -229.4 -75.35 -210.5 -75.35 -193.1 -54.85 -176.55 -56.9 -135.3 -85.5 Q-118.7 -91.4 -103.8 -91.85 L-35.45 -90.4 Q-21.1 -88.4 -4.35 -81.5 L-4.05 -81.4 M36.4 -44.3 L2.9 -67.6 Q-19.75 -83.5 -61.1 -84.05 L-54.3 -48.65 36.4 -44.3 M117.85 -13.75 L143.1 -15.2 135.3 -24.9 111.05 -24.9 117.65 -13.6 117.85 -13.75 M-108.65 -83.1 Q-141.4 -79.7 -147.95 -50.1 L-69.85 -48.2 -72.25 -83.1 -108.65 -83.1" fill="#cc9966" fill-rule="evenodd" stroke="none"/>
    <path d="M111.5 12.6 L43.85 12.0 M-123.4 9.55 L-187.65 9.0 M-224.1 7.6 L-224.1 -51.1" fill="none" stroke="#000000" stroke-linecap="round" stroke-linejoin="round" stroke-width="0.05"/>
    <path d="M61.2 -50.75 L56.75 -51.55 12.15 -73.9 Q4.05 -78.05 -4.05 -81.4 L-4.35 -81.5 Q-21.1 -88.4 -35.45 -90.4 L-103.8 -91.85 Q-118.7 -91.4 -135.3 -85.5 L-176.55 -56.9 -193.1 -54.85 -210.5 -75.35 -229.4 -75.35 -219.3 -51.65 -224.1 -51.1 M61.2 -50.75 L114.45 -41.4 Q141.05 -33.4 147.6 -16.95 L148.4 -14.7 148.4 -14.5 144.55 15.35 111.55 15.1 111.5 12.6 Q109.4 -25.55 78.1 -26.8 47.25 -24.9 43.85 12.0 L43.65 14.5 -123.2 13.05 -123.4 9.55 Q-126.0 -19.0 -154.7 -22.95 M-187.65 9.0 L-187.75 12.5 -189.65 12.45 -224.1 7.6 M-187.65 9.0 Q-186.25 -19.75 -154.8 -23.45 L-154.8 -23.4" fill="none" stroke="#000000" stroke-linecap="round" stroke-linejoin="round" stroke-width="0.05"/>
    <path d="M77.65 -11.2 Q71.35 -11.2 66.9 -6.75 62.45 -2.3 62.45 4.0 62.45 10.25 66.9 14.7 71.35 19.1 77.65 19.15 83.9 19.1 88.35 14.7 92.8 10.25 92.8 4.0 92.8 -2.3 88.35 -6.75 83.9 -11.2 77.65 -11.2 M77.6 -22.9 Q88.75 -22.95 96.65 -15.05 104.5 -7.2 104.5 4.0 104.5 15.15 96.65 23.0 88.75 30.85 77.6 30.9 66.45 30.85 58.55 23.0 50.7 15.15 50.7 4.0 50.7 -7.2 58.55 -15.05 66.45 -22.95 77.6 -22.9 M-144.95 -4.3 Q-149.4 -8.75 -155.65 -8.75 -161.95 -8.75 -166.4 -4.3 -170.85 0.15 -170.85 6.45 -170.85 12.7 -166.4 17.15 -161.95 21.55 -155.65 21.6 -149.4 21.55 -144.95 17.15 -140.5 12.7 -140.5 6.45 -140.5 0.15 -144.95 -4.3 M-136.65 -12.6 Q-128.8 -4.75 -128.8 6.45 -128.8 17.6 -136.65 25.45 -144.55 33.3 -155.7 33.35 -166.85 33.3 -174.75 25.45 -182.6 17.6 -182.6 6.45 -182.6 -4.75 -174.75 -12.6 -166.85 -20.5 -155.7 -20.45 -144.55 -20.5 -136.65 -12.6" fill="#222222" fill-rule="evenodd" stroke="none"/>
    <path d="M77.65 -11.2 Q83.9 -11.2 88.35 -6.75 92.8 -2.3 92.8 4.0 92.8 10.25 88.35 14.7 83.9 19.1 77.65 19.15 71.35 19.1 66.9 14.7 62.45 10.25 62.45 4.0 62.45 -2.3 66.9 -6.75 71.35 -11.2 77.65 -11.2 M-144.95 -4.3 Q-140.5 0.15 -140.5 6.45 -140.5 12.7 -144.95 17.15 -149.4 21.55 -155.65 21.6 -161.95 21.55 -166.4 17.15 -170.85 12.7 -170.85 6.45 -170.85 0.15 -166.4 -4.3 -161.95 -8.75 -155.65 -8.75 -149.4 -8.75 -144.95 -4.3" fill="#c4c4c4" fill-rule="evenodd" stroke="none"/>
    <path d="M77.65 -11.2 Q83.9 -11.2 88.35 -6.75 92.8 -2.3 92.8 4.0 92.8 10.25 88.35 14.7 83.9 19.1 77.65 19.15 71.35 19.1 66.9 14.7 62.45 10.25 62.45 4.0 62.45 -2.3 66.9 -6.75 71.35 -11.2 77.65 -11.2 M77.6 -22.9 Q88.75 -22.95 96.65 -15.05 104.5 -7.2 104.5 4.0 104.5 15.15 96.65 23.0 88.75 30.85 77.6 30.9 66.45 30.85 58.55 23.0 50.7 15.15 50.7 4.0 50.7 -7.2 58.55 -15.05 66.45 -22.95 77.6 -22.9 M-144.95 -4.3 Q-140.5 0.15 -140.5 6.45 -140.5 12.7 -144.95 17.15 -149.4 21.55 -155.65 21.6 -161.95 21.55 -166.4 17.15 -170.85 12.7 -170.85 6.45 -170.85 0.15 -166.4 -4.3 -161.95 -8.75 -155.65 -8.75 -149.4 -8.75 -144.95 -4.3 M-136.65 -12.6 Q-128.8 -4.75 -128.8 6.45 -128.8 17.6 -136.65 25.45 -144.55 33.3 -155.7 33.35 -166.85 33.3 -174.75 25.45 -182.6 17.6 -182.6 6.45 -182.6 -4.75 -174.75 -12.6 -166.85 -20.5 -155.7 -20.45 -144.55 -20.5 -136.65 -12.6 Z" fill="none" stroke="#000000" stroke-linecap="round" stroke-linejoin="round" stroke-width="1.0"/>
  </g>
</svg>
