<?xml version="1.0" encoding="UTF-8" standalone="no"?>
<svg xmlns:ffdec="https://www.free-decompiler.com/flash" xmlns:xlink="http://www.w3.org/1999/xlink" ffdec:objectType="shape" height="8.0px" width="104.0px" xmlns="http://www.w3.org/2000/svg">
  <g transform="matrix(1.0, 0.0, 0.0, 1.0, 0.0, 0.0)">
    <path d="M16.2 3.7 L16.2 4.5 Q16.2 5.5 16.6 5.8 L18.85 6.05 21.0 6.05 23.4 5.8 Q23.85 5.5 23.85 4.45 L23.85 3.65 Q23.85 2.55 23.4 2.25 L20.95 1.95 18.95 1.95 16.65 2.25 Q16.2 2.55 16.2 3.7 M18.7 0.0 L21.05 0.0 Q24.55 0.0 25.65 0.7 26.8 1.45 26.8 3.6 L26.8 4.6 Q26.8 6.75 25.7 7.35 L21.05 8.0 18.65 8.0 Q15.4 8.0 14.35 7.3 13.3 6.65 13.3 4.6 L13.3 3.65 Q13.3 1.45 14.35 0.7 15.4 0.0 18.7 0.0 M37.8 1.7 L35.65 4.35 39.85 4.35 37.8 1.7 M39.95 0.0 L45.75 8.0 42.45 8.0 41.1 6.15 34.45 6.15 33.05 8.0 29.75 8.0 35.6 0.0 39.95 0.0 M2.9 0.0 L2.9 6.2 9.8 6.2 9.8 8.0 0.0 8.0 0.0 0.0 2.9 0.0 M61.6 3.2 L61.6 4.7 Q61.6 6.6 60.6 7.3 59.6 8.0 57.05 8.0 L48.8 8.0 48.8 0.0 56.8 0.0 Q59.4 0.0 60.5 0.75 61.6 1.4 61.6 3.2 M58.15 1.95 L56.35 1.75 51.65 1.75 51.65 6.2 56.35 6.2 58.25 5.9 Q58.65 5.55 58.65 4.6 L58.65 3.3 Q58.65 2.45 58.15 1.95 M77.15 0.0 L83.55 5.3 83.55 0.0 86.45 0.0 86.45 8.0 83.15 8.0 75.9 2.2 75.9 8.0 73.0 8.0 73.0 0.0 77.15 0.0 M68.85 0.0 L68.85 8.0 65.95 8.0 65.95 0.0 68.85 0.0 M91.55 0.75 Q92.6 0.0 95.75 0.0 L98.2 0.0 102.8 0.5 Q103.95 1.05 104.0 2.6 L101.0 2.6 Q101.0 2.15 100.5 2.05 L98.15 1.9 96.1 1.9 93.85 2.25 Q93.35 2.5 93.35 3.7 L93.35 4.5 Q93.35 5.5 93.8 5.8 L95.95 6.1 98.15 6.1 100.5 5.95 Q101.0 5.8 101.0 5.3 L101.0 4.85 96.95 4.85 96.95 3.1 104.0 3.1 104.0 4.75 Q103.95 6.7 102.9 7.35 101.75 7.95 98.5 8.0 L95.7 8.0 Q92.65 8.0 91.6 7.3 90.5 6.65 90.5 4.8 L90.5 3.6 Q90.5 1.45 91.55 0.75" fill="#ffffff" fill-rule="evenodd" stroke="none"/>
  </g>
</svg>
