<?xml version="1.0" encoding="UTF-8" standalone="no"?>
<svg xmlns:ffdec="https://www.free-decompiler.com/flash" xmlns:xlink="http://www.w3.org/1999/xlink" ffdec:objectType="shape" height="125.9px" width="1157.85px" xmlns="http://www.w3.org/2000/svg">
  <g transform="matrix(1.0, 0.0, 0.0, 1.0, 618.9, 38.0)">
    <path d="M-439.0 14.0 L-441.0 14.0 -441.0 -2.0 -432.0 -2.0 -432.0 14.0 -434.0 14.0 -439.0 14.0 -434.0 14.0 -434.0 83.0 -439.0 83.0 -439.0 14.0 M-367.55 6.0 L-369.55 6.0 -369.55 -10.0 -360.55 -10.0 -360.55 6.0 -362.55 6.0 -367.55 6.0 -362.55 6.0 -362.55 47.0 -367.55 47.0 -367.55 6.0 M-299.0 -1.0 L-301.0 -1.0 -301.0 -17.0 -292.0 -17.0 -292.0 -1.0 -294.0 -1.0 -299.0 -1.0 -294.0 -1.0 -294.0 25.0 -299.0 25.0 -299.0 -1.0 M229.45 -3.0 L234.45 -3.0 229.45 -3.0 227.45 -3.0 227.45 -19.0 236.45 -19.0 236.45 -3.0 234.45 -3.0 234.45 23.0 229.45 23.0 229.45 -3.0 M301.0 -13.0 L301.0 3.0 299.0 3.0 299.0 44.0 294.0 44.0 294.0 3.0 292.0 3.0 292.0 -13.0 301.0 -13.0 M363.45 80.0 L363.45 11.0 361.45 11.0 361.45 -5.0 370.45 -5.0 370.45 11.0 368.45 11.0 368.45 80.0 363.45 80.0 M520.45 87.9 L520.45 27.0 518.45 27.0 518.45 11.0 527.45 11.0 527.45 27.0 525.45 27.0 525.45 87.9 520.45 87.9 M437.45 19.0 L442.45 19.0 437.45 19.0 435.45 19.0 435.45 3.0 444.45 3.0 444.45 19.0 442.45 19.0 442.45 87.9 437.45 87.9 437.45 19.0 M520.45 27.0 L525.45 27.0 520.45 27.0 M-508.0 22.0 L-513.0 22.0 -508.0 22.0 -508.0 87.9 -513.0 87.9 -513.0 22.0 -515.0 22.0 -515.0 6.0 -506.0 6.0 -506.0 22.0 -508.0 22.0 M294.0 3.0 L299.0 3.0 294.0 3.0 M363.45 11.0 L368.45 11.0 363.45 11.0 M-592.0 30.0 L-594.0 30.0 -594.0 14.0 -585.0 14.0 -585.0 30.0 -587.0 30.0 -592.0 30.0 -587.0 30.0 -587.0 87.9 -592.0 87.9 -592.0 30.0" fill="#666a6c" fill-rule="evenodd" stroke="none"/>
    <path d="M-434.0 14.0 L-432.0 14.0 -432.0 -2.0 -441.0 -2.0 -441.0 14.0 -439.0 14.0 -434.0 14.0 -434.0 83.0 M-439.0 83.0 L-439.0 14.0 M-362.55 6.0 L-360.55 6.0 -360.55 -10.0 -369.55 -10.0 -369.55 6.0 -367.55 6.0 -362.55 6.0 -362.55 47.0 -367.55 47.0 -367.55 6.0 M-294.0 -1.0 L-292.0 -1.0 -292.0 -17.0 -301.0 -17.0 -301.0 -1.0 -299.0 -1.0 -294.0 -1.0 -294.0 25.0 M-299.0 25.0 L-299.0 -1.0 M234.45 -3.0 L229.45 -3.0 229.45 23.0 M234.45 23.0 L234.45 -3.0 236.45 -3.0 236.45 -19.0 227.45 -19.0 227.45 -3.0 229.45 -3.0 M301.0 -13.0 L301.0 3.0 299.0 3.0 299.0 44.0 294.0 44.0 294.0 3.0 292.0 3.0 292.0 -13.0 301.0 -13.0 M363.45 80.0 L363.45 11.0 361.45 11.0 361.45 -5.0 370.45 -5.0 370.45 11.0 368.45 11.0 368.45 80.0 M520.45 87.9 L520.45 27.0 518.45 27.0 518.45 11.0 527.45 11.0 527.45 27.0 525.45 27.0 525.45 87.9 M525.45 27.0 L520.45 27.0 M442.45 19.0 L437.45 19.0 437.45 87.9 M442.45 87.9 L442.45 19.0 444.45 19.0 444.45 3.0 435.45 3.0 435.45 19.0 437.45 19.0 M368.45 11.0 L363.45 11.0 M299.0 3.0 L294.0 3.0 M-513.0 22.0 L-508.0 22.0 -506.0 22.0 -506.0 6.0 -515.0 6.0 -515.0 22.0 -513.0 22.0 -513.0 87.9 M-508.0 87.9 L-508.0 22.0 M-587.0 30.0 L-585.0 30.0 -585.0 14.0 -594.0 14.0 -594.0 30.0 -592.0 30.0 -587.0 30.0 -587.0 87.9 M-592.0 87.9 L-592.0 30.0" fill="none" stroke="#000000" stroke-linecap="round" stroke-linejoin="round" stroke-width="0.05"/>
    <path d="M-33.05 -37.0 L-32.95 -37.0 Q-9.7 -37.75 14.45 -36.35 L14.5 -36.8 Q251.95 -26.55 538.95 9.0 L538.95 22.1 Q328.25 -5.05 122.95 -21.0 L122.7 -20.25 122.8 -20.25 Q247.4 8.9 391.0 87.9 L335.05 87.9 Q144.55 -22.95 -33.05 -21.0 -246.55 -10.15 -395.8 87.9 L-448.3 87.9 Q-319.25 10.55 -177.85 -19.2 L-171.05 -20.0 -176.05 -19.55 Q-106.05 -34.1 -33.05 -37.0 -106.05 -34.1 -176.05 -19.55 -448.35 3.3 -618.9 23.4 L-618.9 9.4 Q-290.9 -25.1 -33.05 -37.15 L-33.05 -37.0 M14.45 -36.35 Q66.65 -33.35 122.7 -20.25 66.65 -33.35 14.45 -36.35" fill="#666a6c" fill-rule="evenodd" stroke="none"/>
    <path d="M-33.05 -37.0 L-32.95 -37.0 Q-9.7 -37.75 14.45 -36.35 66.65 -33.35 122.7 -20.25 L122.8 -20.25 Q247.4 8.9 391.0 87.9 M14.5 -36.8 L14.45 -36.8 -15.05 -38.0 -32.95 -37.15 -33.05 -37.15 Q-290.9 -25.1 -618.9 9.4 M-33.05 -37.0 Q-106.05 -34.1 -176.05 -19.55 -448.35 3.3 -618.9 23.4 M-177.85 -19.2 Q-319.25 10.55 -448.3 87.9 M-395.8 87.9 Q-246.55 -10.15 -33.05 -21.0 144.55 -22.95 335.05 87.9 M538.95 9.0 L538.95 8.0 M538.95 22.1 Q328.25 -5.05 122.95 -21.0 M14.5 -36.8 Q251.95 -26.55 538.95 9.0 M-177.85 -19.2 L-176.05 -19.55" fill="none" stroke="#000000" stroke-linecap="round" stroke-linejoin="round" stroke-width="0.05"/>
  </g>
</svg>
