<?xml version="1.0" encoding="UTF-8" standalone="no"?>
<svg xmlns:ffdec="https://www.free-decompiler.com/flash" xmlns:xlink="http://www.w3.org/1999/xlink" ffdec:objectType="shape" height="46.2px" width="1058.55px" xmlns="http://www.w3.org/2000/svg">
  <g transform="matrix(1.0, 0.0, 0.0, 1.0, 478.4, -15.3)">
    <path d="M580.15 33.7 L580.15 40.45 580.1 40.45 576.95 34.05 574.7 32.55 Q569.9 33.0 566.3 29.65 L563.05 29.4 Q560.15 29.8 558.5 28.45 L558.25 26.65 575.15 29.0 572.65 27.4 572.85 26.1 574.0 25.8 577.55 27.95 Q577.3 28.15 577.4 28.25 579.2 30.8 580.15 33.7 M568.3 35.55 L569.4 35.55 574.35 45.55 573.8 45.7 Q567.35 42.4 568.3 35.55 M540.7 37.15 Q538.45 37.6 536.65 36.2 534.45 34.55 536.55 34.6 539.9 34.35 540.7 37.15 M537.35 45.75 L537.1 43.25 537.1 43.15 Q539.85 42.25 543.6 43.6 545.7 44.3 546.0 46.15 L537.35 45.75 M534.15 36.1 L533.5 36.35 532.85 36.1 532.55 35.65 Q532.55 35.35 532.85 35.15 533.1 34.9 533.5 34.95 533.9 34.9 534.15 35.15 L534.45 35.65 534.15 36.1 M538.15 28.45 L537.85 29.7 526.65 29.9 526.45 27.55 532.05 27.0 538.15 28.45 M545.65 29.9 L545.7 30.45 Q545.2 31.3 543.45 30.9 L543.15 30.95 546.15 36.05 545.65 36.2 Q547.6 38.95 547.75 42.1 L546.4 41.95 Q541.75 39.8 542.55 34.8 L543.4 34.8 538.3 30.25 541.8 30.5 540.2 26.55 546.4 26.9 546.8 28.6 544.05 28.6 545.65 29.9 M495.05 42.8 L494.9 42.6 Q500.4 39.7 506.45 41.4 L505.5 42.35 Q500.4 43.95 495.05 42.8 M489.7 45.15 L492.85 47.9 Q492.3 48.45 491.55 48.1 488.3 46.9 489.7 45.15 M551.1 39.35 L550.85 39.85 550.15 40.05 Q549.75 40.05 549.45 39.85 L549.15 39.35 Q549.15 39.05 549.45 38.85 L550.15 38.65 550.85 38.85 551.1 39.35 M549.4 33.0 L550.55 32.5 552.1 35.3 Q549.65 35.5 549.4 33.0 M549.25 31.55 L549.25 29.6 551.2 29.6 551.2 31.55 549.25 31.55 M513.65 44.7 Q509.2 44.75 506.9 40.95 L507.05 39.25 508.15 39.25 514.25 44.65 513.65 44.7 M469.65 45.15 L466.3 47.0 466.45 44.4 469.65 45.15 M-478.4 33.7 Q-477.45 30.8 -475.65 28.25 -475.55 28.15 -475.75 27.95 L-472.2 25.8 -471.05 26.1 -470.85 27.4 -473.35 29.0 -456.5 26.65 -456.75 28.45 Q-458.4 29.8 -461.3 29.4 L-464.55 29.65 Q-468.15 33.0 -472.95 32.55 L-475.2 34.05 -478.3 40.45 -478.4 40.45 -478.4 33.7 M-404.7 41.4 Q-398.65 39.7 -393.1 42.6 L-393.25 42.8 Q-398.65 43.95 -403.75 42.35 L-404.7 41.4 M-391.05 47.9 L-387.9 45.15 Q-386.55 46.9 -389.75 48.1 -390.55 48.45 -391.05 47.9 M-364.7 44.4 L-364.55 47.0 -367.85 45.15 -364.7 44.4 M-434.85 36.2 Q-436.7 37.6 -438.9 37.15 -438.15 34.35 -434.75 34.6 -432.7 34.55 -434.85 36.2 M-431.05 36.1 L-431.7 36.35 -432.4 36.1 -432.65 35.65 -432.4 35.15 Q-432.15 34.9 -431.7 34.95 -431.35 34.9 -431.05 35.15 L-430.8 35.65 -431.05 36.1 M-436.35 28.45 L-430.25 27.0 -424.7 27.55 -424.9 29.9 -436.1 29.7 -436.35 28.45 M-436.55 30.25 L-441.65 34.8 -440.8 34.8 Q-440.0 39.8 -444.65 41.95 L-446.0 42.1 Q-445.85 38.95 -443.85 36.2 L-444.4 36.05 -441.4 30.95 -441.7 30.9 Q-443.45 31.3 -443.95 30.45 L-443.85 29.9 -442.25 28.6 -445.0 28.6 -444.65 26.9 -438.4 26.55 -440.0 30.5 -436.55 30.25 M-441.85 43.6 Q-438.1 42.25 -435.3 43.15 L-435.3 43.25 -435.55 45.75 -444.2 46.15 Q-443.95 44.3 -441.85 43.6 M-411.9 44.7 L-412.45 44.65 -406.4 39.25 -405.3 39.25 -405.1 40.95 Q-407.45 44.75 -411.9 44.7 M-466.55 35.55 Q-465.6 42.4 -472.05 45.7 L-472.55 45.55 -467.65 35.55 -466.55 35.55 M-447.45 31.55 L-449.4 31.55 -449.4 29.6 -447.45 29.6 -447.45 31.55 M-447.6 33.0 Q-447.9 35.5 -450.35 35.3 L-448.8 32.5 -447.6 33.0 M-449.05 39.85 L-449.35 39.35 -449.05 38.85 -448.35 38.65 -447.7 38.85 Q-447.4 39.05 -447.4 39.35 L-447.7 39.85 -448.35 40.05 -449.05 39.85" fill="#39683e" fill-rule="evenodd" stroke="none"/>
    <path d="M432.55 46.65 Q434.6 48.5 436.9 49.85 437.75 50.35 438.85 50.45 L440.4 50.05 441.85 48.2 447.6 49.2 449.75 48.95 Q452.8 47.65 456.15 47.7 L455.75 42.8 459.6 36.1 463.85 36.1 463.85 38.05 467.3 37.7 468.05 36.5 Q472.3 39.5 477.25 39.8 479.2 36.55 482.5 35.55 483.95 35.05 485.25 35.9 L488.9 38.45 491.35 39.9 Q492.4 37.85 494.7 37.3 L499.5 36.2 501.4 30.3 508.55 32.25 Q508.8 28.7 512.35 28.35 517.85 28.3 522.75 25.6 L532.3 25.75 Q536.35 22.55 540.95 20.3 L542.75 19.3 Q547.5 16.1 553.4 18.6 554.15 18.95 554.95 18.4 561.1 14.2 568.3 15.65 L573.15 16.15 580.15 16.55 580.15 33.7 Q579.2 30.8 577.4 28.25 577.3 28.15 577.55 27.95 L574.0 25.8 572.85 26.1 572.65 27.4 575.15 29.0 558.25 26.65 558.5 28.45 Q560.15 29.8 563.05 29.4 L566.3 29.65 Q569.9 33.0 574.7 32.55 L576.95 34.05 580.1 40.45 580.15 40.45 580.15 53.45 574.6 53.9 561.05 54.8 Q558.0 54.65 554.75 53.75 550.6 52.75 546.55 53.75 537.3 55.95 528.0 54.1 522.3 53.05 516.5 53.1 512.1 53.5 507.85 54.5 504.55 55.2 501.35 54.45 L490.75 53.8 482.6 55.0 478.55 54.3 Q471.8 53.1 465.3 54.0 451.0 55.95 436.8 55.6 L429.65 55.45 407.75 55.35 Q405.6 55.35 404.3 53.65 L404.15 53.45 404.15 53.05 403.8 51.2 410.05 51.45 411.9 47.3 418.6 44.95 429.55 49.15 432.35 46.9 432.55 46.65 M568.3 35.55 Q567.35 42.4 573.8 45.7 L574.35 45.55 569.4 35.55 568.3 35.55 M545.65 29.9 L544.05 28.6 546.8 28.6 546.4 26.9 540.2 26.55 541.8 30.5 538.3 30.25 543.4 34.8 542.55 34.8 Q541.75 39.8 546.4 41.95 L547.75 42.1 Q547.6 38.95 545.65 36.2 L546.15 36.05 543.15 30.95 543.45 30.9 Q545.2 31.3 545.7 30.45 L545.65 29.9 M538.15 28.45 L532.05 27.0 526.45 27.55 526.65 29.9 537.85 29.7 538.15 28.45 M534.15 36.1 L534.45 35.65 534.15 35.15 Q533.9 34.9 533.5 34.95 533.1 34.9 532.85 35.15 532.55 35.35 532.55 35.65 L532.85 36.1 533.5 36.35 534.15 36.1 M537.35 45.75 L546.0 46.15 Q545.7 44.3 543.6 43.6 539.85 42.25 537.1 43.15 L537.1 43.25 537.35 45.75 M540.7 37.15 Q539.9 34.35 536.55 34.6 534.45 34.55 536.65 36.2 538.45 37.6 540.7 37.15 M556.0 34.55 L556.5 35.3 Q557.85 36.1 559.15 37.6 L559.55 38.2 Q559.85 39.0 559.75 40.0 559.5 41.35 560.4 41.6 L560.7 41.7 Q563.6 42.45 563.3 45.95 563.6 42.45 560.7 41.7 L560.4 41.6 Q559.5 41.35 559.75 40.0 559.85 39.0 559.55 38.2 L559.15 37.6 Q557.85 36.1 556.5 35.3 L556.0 34.55 M549.25 31.55 L551.2 31.55 551.2 29.6 549.25 29.6 549.25 31.55 M549.4 33.0 Q549.65 35.5 552.1 35.3 L550.55 32.5 549.4 33.0 M551.1 39.35 L550.85 38.85 550.15 38.65 549.45 38.85 Q549.15 39.05 549.15 39.35 L549.45 39.85 Q549.75 40.05 550.15 40.05 L550.85 39.85 551.1 39.35 M489.7 45.15 Q488.3 46.9 491.55 48.1 492.3 48.45 492.85 47.9 L489.7 45.15 M495.05 42.8 Q500.4 43.95 505.5 42.35 L506.45 41.4 Q500.4 39.7 494.9 42.6 L495.05 42.8 M519.5 34.7 L522.1 35.5 524.75 41.2 522.1 35.5 519.5 34.7 518.75 34.05 517.5 34.15 519.5 34.7 M513.2 35.75 L517.5 34.15 513.2 35.75 M513.65 44.7 L514.25 44.65 508.15 39.25 507.05 39.25 506.9 40.95 Q509.2 44.75 513.65 44.7 M467.0 43.85 Q469.65 42.2 472.65 43.15 L473.85 43.5 Q477.4 43.95 478.9 47.3 477.4 43.95 473.85 43.5 L472.65 43.15 Q469.65 42.2 467.0 43.85 M469.65 45.15 L466.45 44.4 466.3 47.0 469.65 45.15 M-330.6 46.9 L-327.75 49.15 -316.85 44.95 -310.15 47.3 -308.3 51.45 -302.0 51.2 -302.4 53.05 -302.4 53.45 -302.55 53.65 Q-303.85 55.35 -305.95 55.35 L-327.85 55.45 -335.0 55.6 Q-349.25 55.95 -363.5 54.0 -370.05 53.1 -376.75 54.3 L-380.85 55.0 -388.95 53.8 -399.55 54.45 Q-402.8 55.2 -406.05 54.5 L-414.7 53.1 Q-420.55 53.05 -426.2 54.1 -435.55 55.95 -444.8 53.75 -448.85 52.75 -452.95 53.75 -456.25 54.65 -459.25 54.8 L-472.85 53.9 -478.4 53.45 -478.4 40.45 -478.3 40.45 -475.2 34.05 -472.95 32.55 Q-468.15 33.0 -464.55 29.65 L-461.3 29.4 Q-458.4 29.8 -456.75 28.45 L-456.5 26.65 -473.35 29.0 -470.85 27.4 -471.05 26.1 -472.2 25.8 -475.75 27.95 Q-475.55 28.15 -475.65 28.25 -477.45 30.8 -478.4 33.7 L-478.4 16.55 -471.4 16.15 -466.55 15.65 Q-459.35 14.2 -453.15 18.4 -452.4 18.95 -451.6 18.6 -445.75 16.1 -440.95 19.3 L-439.2 20.3 Q-434.6 22.55 -430.55 25.75 L-421.0 25.6 Q-416.1 28.3 -410.6 28.35 -407.05 28.7 -406.8 32.25 L-399.65 30.3 -397.7 36.2 -392.95 37.3 Q-390.65 37.85 -389.55 39.9 L-387.1 38.45 -383.5 35.9 Q-382.2 35.05 -380.75 35.55 -377.45 36.55 -375.5 39.8 -370.55 39.5 -366.25 36.5 L-365.5 37.7 -362.05 38.05 -362.05 36.1 -357.8 36.1 -354.0 42.8 -354.35 47.7 Q-351.05 47.65 -348.0 48.95 L-345.8 49.2 -340.05 48.2 -338.65 50.05 -337.1 50.45 -335.15 49.85 -330.75 46.65 -330.6 46.9 M-391.05 47.9 Q-390.55 48.45 -389.75 48.1 -386.55 46.9 -387.9 45.15 L-391.05 47.9 M-404.7 41.4 L-403.75 42.35 Q-398.65 43.95 -393.25 42.8 L-393.1 42.6 Q-398.65 39.7 -404.7 41.4 M-365.2 43.85 Q-367.9 42.2 -370.9 43.15 L-372.1 43.5 Q-375.65 43.95 -377.1 47.3 -375.65 43.95 -372.1 43.5 L-370.9 43.15 Q-367.9 42.2 -365.2 43.85 M-441.85 43.6 Q-443.95 44.3 -444.2 46.15 L-435.55 45.75 -435.3 43.25 -435.3 43.15 Q-438.1 42.25 -441.85 43.6 M-436.55 30.25 L-440.0 30.5 -438.4 26.55 -444.65 26.9 -445.0 28.6 -442.25 28.6 -443.85 29.9 -443.95 30.45 Q-443.45 31.3 -441.7 30.9 L-441.4 30.95 -444.4 36.05 -443.85 36.2 Q-445.85 38.95 -446.0 42.1 L-444.65 41.95 Q-440.0 39.8 -440.8 34.8 L-441.65 34.8 -436.55 30.25 M-436.35 28.45 L-436.1 29.7 -424.9 29.9 -424.7 27.55 -430.25 27.0 -436.35 28.45 M-431.05 36.1 L-430.8 35.65 -431.05 35.15 Q-431.35 34.9 -431.7 34.95 -432.15 34.9 -432.4 35.15 L-432.65 35.65 -432.4 36.1 -431.7 36.35 -431.05 36.1 M-434.85 36.2 Q-432.7 34.55 -434.75 34.6 -438.15 34.35 -438.9 37.15 -436.7 37.6 -434.85 36.2 M-364.7 44.4 L-367.85 45.15 -364.55 47.0 -364.7 44.4 M-415.75 34.15 L-416.95 34.05 -417.75 34.7 -420.3 35.5 -422.95 41.2 -420.3 35.5 -417.75 34.7 -415.75 34.15 -411.4 35.75 -415.75 34.15 M-466.55 35.55 L-467.65 35.55 -472.55 45.55 -472.05 45.7 Q-465.6 42.4 -466.55 35.55 M-411.9 44.7 Q-407.45 44.75 -405.1 40.95 L-405.3 39.25 -406.4 39.25 -412.45 44.65 -411.9 44.7 M-454.2 34.55 Q-454.3 35.0 -454.75 35.3 -456.1 36.1 -457.35 37.6 L-457.75 38.2 Q-458.1 39.0 -458.0 40.0 -457.75 41.35 -458.6 41.6 L-458.9 41.7 Q-461.85 42.45 -461.5 45.95 -461.85 42.45 -458.9 41.7 L-458.6 41.6 Q-457.75 41.35 -458.0 40.0 -458.1 39.0 -457.75 38.2 L-457.35 37.6 Q-456.1 36.1 -454.75 35.3 -454.3 35.0 -454.2 34.55 M-449.05 39.85 L-448.35 40.05 -447.7 39.85 -447.4 39.35 Q-447.4 39.05 -447.7 38.85 L-448.35 38.65 -449.05 38.85 -449.35 39.35 -449.05 39.85 M-447.6 33.0 L-448.8 32.5 -450.35 35.3 Q-447.9 35.5 -447.6 33.0 M-447.45 31.55 L-447.45 29.6 -449.4 29.6 -449.4 31.55 -447.45 31.55" fill="#488451" fill-rule="evenodd" stroke="none"/>
    <path d="M580.15 53.45 L580.15 61.45 389.6 61.5 373.8 61.0 374.85 60.1 Q383.15 54.05 393.75 53.75 L404.15 53.45 404.3 53.65 Q405.6 55.35 407.75 55.35 L429.65 55.45 436.8 55.6 Q451.0 55.95 465.3 54.0 471.8 53.1 478.55 54.3 L482.6 55.0 490.75 53.8 501.35 54.45 Q504.55 55.2 507.85 54.5 512.1 53.5 516.5 53.1 522.3 53.05 528.0 54.1 537.3 55.95 546.55 53.75 550.6 52.75 554.75 53.75 558.0 54.65 561.05 54.8 L574.6 53.9 580.15 53.45 M-478.4 53.45 L-472.85 53.9 -459.25 54.8 Q-456.25 54.65 -452.95 53.75 -448.85 52.75 -444.8 53.75 -435.55 55.95 -426.2 54.1 -420.55 53.05 -414.7 53.1 L-406.05 54.5 Q-402.8 55.2 -399.55 54.45 L-388.95 53.8 -380.85 55.0 -376.75 54.3 Q-370.05 53.1 -363.5 54.0 -349.25 55.95 -335.0 55.6 L-327.85 55.45 -305.95 55.35 Q-303.85 55.35 -302.55 53.65 L-302.4 53.45 -291.95 53.75 Q-281.4 54.05 -273.1 60.1 L-272.0 61.0 -287.8 61.5 -478.4 61.45 -478.4 53.45" fill="#ffffd1" fill-rule="evenodd" stroke="none"/>
    <path d="M404.3 53.65 L404.15 53.45 M519.5 34.7 L518.75 34.05 517.5 34.15 M-302.55 53.65 L-302.4 53.45 M-417.75 34.7 L-416.95 34.05 -415.75 34.15" fill="none" stroke="#000000" stroke-linecap="round" stroke-linejoin="round" stroke-width="0.05"/>
    <path d="M432.55 46.65 Q434.6 48.5 436.9 49.85 437.75 50.35 438.85 50.45 L440.4 50.05 441.85 48.2 447.6 49.2 449.75 48.95 Q452.8 47.65 456.15 47.7 L455.75 42.8 459.6 36.1 463.85 36.1 463.85 38.05 467.3 37.7 468.05 36.5 Q472.3 39.5 477.25 39.8 479.2 36.55 482.5 35.55 483.95 35.05 485.25 35.9 L488.9 38.45 491.35 39.9 Q492.4 37.85 494.7 37.3 L499.5 36.2 501.4 30.3 508.55 32.25 Q508.8 28.7 512.35 28.35 517.85 28.3 522.75 25.6 L532.3 25.75 Q536.35 22.55 540.95 20.3 L542.75 19.3 Q547.5 16.1 553.4 18.6 554.15 18.95 554.95 18.4 561.1 14.2 568.3 15.65 L573.15 16.15 580.15 16.55 M373.8 61.0 L374.85 60.1 Q383.15 54.05 393.75 53.75 L404.15 53.45 M404.15 53.05 L403.8 51.2 410.05 51.45 411.9 47.3 418.6 44.95 429.55 49.15 432.35 46.9 M563.3 45.95 Q563.6 42.45 560.7 41.7 L560.4 41.6 Q559.5 41.35 559.75 40.0 559.85 39.0 559.55 38.2 L559.15 37.6 Q557.85 36.1 556.5 35.3 L556.0 34.55 M524.75 41.2 L522.1 35.5 519.5 34.7 517.5 34.15 513.2 35.75 M478.9 47.3 Q477.4 43.95 473.85 43.5 L472.65 43.15 Q469.65 42.2 467.0 43.85 M-302.4 53.05 L-302.0 51.2 -308.3 51.45 -310.15 47.3 -316.85 44.95 -327.75 49.15 -330.6 46.9 M-330.75 46.65 L-335.15 49.85 -337.1 50.45 -338.65 50.05 -340.05 48.2 -345.8 49.2 -348.0 48.95 Q-351.05 47.65 -354.35 47.7 L-354.0 42.8 -357.8 36.1 -362.05 36.1 -362.05 38.05 -365.5 37.7 -366.25 36.5 Q-370.55 39.5 -375.5 39.8 -377.45 36.55 -380.75 35.55 -382.2 35.05 -383.5 35.9 L-387.1 38.45 -389.55 39.9 Q-390.65 37.85 -392.95 37.3 L-397.7 36.2 -399.65 30.3 -406.8 32.25 Q-407.05 28.7 -410.6 28.35 -416.1 28.3 -421.0 25.6 L-430.55 25.75 Q-434.6 22.55 -439.2 20.3 L-440.95 19.3 Q-445.75 16.1 -451.6 18.6 -452.4 18.95 -453.15 18.4 -459.35 14.2 -466.55 15.65 L-471.4 16.15 -478.4 16.55 M-272.0 61.0 L-273.1 60.1 Q-281.4 54.05 -291.95 53.75 L-302.4 53.45 M-377.1 47.3 Q-375.65 43.95 -372.1 43.5 L-370.9 43.15 Q-367.9 42.2 -365.2 43.85 M-415.75 34.15 L-411.4 35.75 M-417.75 34.7 L-420.3 35.5 -422.95 41.2 M-415.75 34.15 L-417.75 34.7 M-461.5 45.95 Q-461.85 42.45 -458.9 41.7 L-458.6 41.6 Q-457.75 41.35 -458.0 40.0 -458.1 39.0 -457.75 38.2 L-457.35 37.6 Q-456.1 36.1 -454.75 35.3 -454.3 35.0 -454.2 34.55" fill="none" stroke="#000000" stroke-linecap="round" stroke-linejoin="round" stroke-width="0.05"/>
  </g>
</svg>
