<?xml version="1.0" encoding="UTF-8" standalone="no"?>
<svg xmlns:ffdec="https://www.free-decompiler.com/flash" xmlns:xlink="http://www.w3.org/1999/xlink" ffdec:objectType="shape" height="164.75px" width="160.4px" xmlns="http://www.w3.org/2000/svg">
  <g transform="matrix(1.0, 0.0, 0.0, 1.0, 327.8, 44.7)">
    <path d="M-325.55 -13.15 L-325.55 -14.2 -325.55 -13.15 -327.8 -13.0 -327.8 -14.2 -325.55 -14.2 -296.85 -14.2 -267.2 -14.2 -175.95 -14.2 -175.95 1.95 -185.35 1.95 -185.35 0.8 Q-185.4 -5.0 -189.4 -9.05 L-189.4 -9.1 -189.45 -9.1 Q-193.55 -13.15 -199.35 -13.15 L-199.4 -13.15 Q-205.25 -13.15 -209.3 -9.05 -213.4 -5.0 -213.35 0.8 L-213.35 1.95 -219.3 1.95 -219.3 0.8 Q-219.35 -5.0 -223.35 -9.05 L-223.4 -9.1 Q-227.5 -13.15 -233.3 -13.15 L-233.35 -13.15 Q-239.2 -13.15 -243.25 -9.05 -247.35 -5.0 -247.3 0.8 L-247.3 1.95 -267.1 1.95 -267.1 0.8 Q-267.15 -5.0 -271.15 -9.05 L-271.15 -9.1 Q-275.3 -13.15 -281.1 -13.15 L-281.15 -13.15 Q-286.95 -13.15 -291.0 -9.05 -295.1 -5.0 -295.1 0.8 L-295.1 1.95 -311.5 1.95 -311.5 0.8 Q-311.6 -5.0 -315.6 -9.05 L-315.6 -9.1 Q-319.75 -13.15 -325.55 -13.15 M-327.8 35.3 L-175.95 35.3 -175.95 43.4 -327.8 43.4 -327.8 35.3 M-327.8 53.6 L-327.8 45.1 -327.4 45.1 -327.35 45.1 Q-316.45 45.15 -308.8 52.4 -306.8 54.35 -305.25 56.5 -303.8 54.4 -301.8 52.55 L-301.8 52.5 Q-294.1 45.25 -283.2 45.25 -272.3 45.25 -264.6 52.5 L-264.6 52.55 Q-256.75 59.95 -256.75 70.45 L-256.75 77.5 -256.75 79.45 -256.75 103.8 -265.25 103.8 -265.25 78.8 -265.25 77.5 -265.25 70.45 Q-265.3 63.6 -270.4 58.7 -275.7 53.75 -283.2 53.75 -290.7 53.75 -295.95 58.7 -300.35 62.9 -301.05 68.55 L-301.05 68.65 -301.0 69.2 -301.0 69.25 -301.05 69.9 -301.05 71.2 -301.05 71.35 -301.0 75.9 -301.0 76.0 -301.05 103.8 -309.55 103.8 -309.55 71.5 -309.5 69.4 -309.5 69.1 -309.6 68.25 Q-310.3 62.7 -314.65 58.55 -319.9 53.6 -327.35 53.6 L-327.4 53.6 -327.8 53.6" fill="#e7c772" fill-rule="evenodd" stroke="none"/>
    <path d="M-327.8 -13.0 L-325.55 -13.15 Q-319.75 -13.15 -315.6 -9.1 L-315.6 -9.05 Q-311.6 -5.0 -311.5 0.8 L-311.5 1.95 -295.1 1.95 -295.1 0.8 Q-295.1 -5.0 -291.0 -9.05 -286.95 -13.15 -281.15 -13.15 L-281.1 -13.15 Q-275.3 -13.15 -271.15 -9.1 L-271.15 -9.05 Q-267.15 -5.0 -267.1 0.8 L-267.1 1.95 -247.3 1.95 -247.3 0.8 Q-247.35 -5.0 -243.25 -9.05 -239.2 -13.15 -233.35 -13.15 L-233.3 -13.15 Q-227.5 -13.15 -223.4 -9.1 L-223.35 -9.05 Q-219.35 -5.0 -219.3 0.8 L-219.3 1.95 -213.35 1.95 -213.35 0.8 Q-213.4 -5.0 -209.3 -9.05 -205.25 -13.15 -199.4 -13.15 L-199.35 -13.15 Q-193.55 -13.15 -189.45 -9.1 L-189.4 -9.05 Q-185.4 -5.0 -185.35 0.8 L-185.35 1.95 -175.95 1.95 -175.95 35.3 -327.8 35.3 -327.8 -13.0 M-327.8 44.25 L-175.95 44.25 -175.95 103.8 -256.75 103.8 -256.75 79.45 -256.75 77.5 -256.75 70.45 Q-256.75 59.95 -264.6 52.55 L-264.6 52.5 Q-272.3 45.25 -283.2 45.25 -294.1 45.25 -301.8 52.5 L-301.8 52.55 Q-303.8 54.4 -305.25 56.5 -306.8 54.35 -308.8 52.4 -316.45 45.15 -327.35 45.1 L-327.4 45.1 -327.8 45.1 -327.8 44.25" fill="#dbab97" fill-rule="evenodd" stroke="none"/>
    <path d="M-296.85 -14.2 L-304.9 -19.1 -258.7 -19.1 -267.2 -14.2 -296.85 -14.2 M-222.55 -39.75 L-222.55 -44.7 -217.05 -42.9 -222.55 -39.75" fill="#9288aa" fill-rule="evenodd" stroke="none"/>
    <path d="M-258.7 -19.1 L-222.55 -19.1 -222.55 -39.75 -217.05 -42.9 -167.4 -14.2 -175.95 -14.2 -267.2 -14.2 -258.7 -19.1" fill="#675c81" fill-rule="evenodd" stroke="none"/>
    <path d="M-325.55 -13.15 L-325.55 -14.2 -325.55 -13.15 M-189.4 -9.05 L-189.45 -9.1 -189.4 -9.1 -189.4 -9.05" fill="#ffffcc" fill-rule="evenodd" stroke="none"/>
    <path d="M-327.8 -14.2 L-327.8 -19.1 -304.9 -19.1 -296.85 -14.2 -325.55 -14.2 -327.8 -14.2" fill="#73678f" fill-rule="evenodd" stroke="none"/>
    <path d="M-327.8 103.8 L-327.8 53.6 -327.4 53.6 -327.35 53.6 Q-319.9 53.6 -314.65 58.55 -310.3 62.7 -309.6 68.25 L-309.55 68.65 -309.55 68.9 -309.5 69.4 -309.55 71.5 -309.55 103.8 -327.8 103.8 M-301.05 103.8 L-301.0 76.0 -301.0 75.9 -301.05 71.35 -301.05 71.2 -301.05 69.9 -301.0 69.25 -301.0 69.2 -301.05 68.65 -301.05 68.55 Q-300.35 62.9 -295.95 58.7 -290.7 53.75 -283.2 53.75 -275.7 53.75 -270.4 58.7 -265.3 63.6 -265.25 70.45 L-265.25 77.5 -265.25 78.8 -265.25 103.8 -301.05 103.8" fill="#9f7176" fill-rule="evenodd" stroke="none"/>
    <path d="M-175.95 43.4 L-175.95 44.25 -327.8 44.25 -327.8 43.4 -175.95 43.4" fill="#ffff99" fill-rule="evenodd" stroke="none"/>
    <path d="M-175.95 103.8 L-173.6 103.8 -173.6 120.05 -327.8 120.05 -327.8 103.8 -309.55 103.8 -301.05 103.8 -265.25 103.8 -256.75 103.8 -175.95 103.8" fill="#d0c2b7" fill-rule="evenodd" stroke="none"/>
    <path d="M-265.25 77.5 L-265.25 78.8 -265.25 77.5" fill="#ffffff" fill-rule="evenodd" stroke="none"/>
    <path d="M-327.8 -14.2 L-325.55 -14.2 -296.85 -14.2 -267.2 -14.2 -175.95 -14.2 -175.95 1.95 M-222.55 -44.7 L-217.05 -42.9 -167.4 -14.2 -175.95 -14.2 M-175.95 43.4 L-175.95 35.3 M-175.95 44.25 L-175.95 43.4 -327.8 43.4 M-175.95 44.25 L-175.95 103.8 -173.6 103.8 -173.6 120.05 M-265.25 77.5 L-265.25 78.8 M-265.25 103.8 L-256.75 103.8 -175.95 103.8 M-309.6 68.25 L-309.5 69.1 -309.5 69.4 -309.55 68.9 -309.55 68.65 -309.6 68.25 M-309.55 103.8 L-301.05 103.8 -265.25 103.8 M-327.8 103.8 L-309.55 103.8" fill="none" stroke="#000000" stroke-linecap="round" stroke-linejoin="round" stroke-width="0.05"/>
    <path d="M-325.55 -13.15 L-327.8 -13.0 M-327.8 35.3 L-175.95 35.3 -175.95 1.95 -185.35 1.95 -185.35 0.8 Q-185.4 -5.0 -189.4 -9.05 L-189.45 -9.1 Q-193.55 -13.15 -199.35 -13.15 L-199.4 -13.15 Q-205.25 -13.15 -209.3 -9.05 -213.4 -5.0 -213.35 0.8 L-213.35 1.95 -219.3 1.95 -219.3 0.8 Q-219.35 -5.0 -223.35 -9.05 L-223.4 -9.1 Q-227.5 -13.15 -233.3 -13.15 L-233.35 -13.15 Q-239.2 -13.15 -243.25 -9.05 -247.35 -5.0 -247.3 0.8 L-247.3 1.95 -267.1 1.95 -267.1 0.8 Q-267.15 -5.0 -271.15 -9.05 L-271.15 -9.1 Q-275.3 -13.15 -281.1 -13.15 L-281.15 -13.15 Q-286.95 -13.15 -291.0 -9.05 -295.1 -5.0 -295.1 0.8 L-295.1 1.95 -311.5 1.95 -311.5 0.8 Q-311.6 -5.0 -315.6 -9.05 L-315.6 -9.1 Q-319.75 -13.15 -325.55 -13.15 M-301.05 103.8 L-301.0 76.0 -301.0 75.9 -301.05 71.35 -301.05 71.2 -301.05 69.9 -301.0 69.25 -301.0 69.2 -301.05 68.65 -301.05 68.55 Q-300.35 62.9 -295.95 58.7 -290.7 53.75 -283.2 53.75 -275.7 53.75 -270.4 58.7 -265.3 63.6 -265.25 70.45 L-265.25 77.5 -265.25 78.8 -265.25 103.8 M-256.75 103.8 L-256.75 79.45 -256.75 77.5 -256.75 70.45 Q-256.75 59.95 -264.6 52.55 L-264.6 52.5 Q-272.3 45.25 -283.2 45.25 -294.1 45.25 -301.8 52.5 L-301.8 52.55 Q-303.8 54.4 -305.25 56.5 -306.8 54.35 -308.8 52.4 -316.45 45.15 -327.35 45.1 L-327.4 45.1 -327.8 45.1 M-309.5 69.4 L-309.55 71.5 -309.55 103.8 M-309.6 68.25 Q-310.3 62.7 -314.65 58.55 -319.9 53.6 -327.35 53.6 L-327.4 53.6 -327.8 53.6" fill="none" stroke="#663300" stroke-linecap="round" stroke-linejoin="round" stroke-width="0.05"/>
    <path d="M-296.85 -14.2 L-304.9 -19.1 M-258.7 -19.1 L-267.2 -14.2 M-217.05 -42.9 L-222.55 -39.75" fill="none" stroke="#cccccc" stroke-linecap="round" stroke-linejoin="round" stroke-width="0.05"/>
  </g>
</svg>
