<?xml version="1.0" encoding="UTF-8" standalone="no"?>
<svg xmlns:ffdec="https://www.free-decompiler.com/flash" xmlns:xlink="http://www.w3.org/1999/xlink" ffdec:objectType="shape" height="43.4px" width="19.55px" xmlns="http://www.w3.org/2000/svg">
  <g transform="matrix(1.0, 0.0, 0.0, 1.0, 9.9, 21.8)">
    <path d="M0.05 -21.6 Q4.05 -21.6 6.85 -18.8 9.65 -16.0 9.65 -12.0 L9.65 21.6 -9.6 21.6 -9.6 -12.0 Q-9.6 -16.0 -6.8 -18.8 -4.0 -21.6 0.0 -21.6 L0.05 -21.6" fill="url(#gradient0)" fill-rule="evenodd" stroke="none"/>
    <path d="M0.05 -21.6 L0.0 -21.6 Q-4.0 -21.6 -6.8 -18.8 -9.6 -16.0 -9.6 -12.0 L-9.6 21.6 9.65 21.6 9.65 -12.0 Q9.65 -16.0 6.85 -18.8 4.05 -21.6 0.05 -21.6 Z" fill="none" stroke="#663300" stroke-linecap="round" stroke-linejoin="round" stroke-width="0.05"/>
    <path d="M9.5 0.45 L0.3 0.45 0.3 21.6 M0.3 -21.8 L0.3 0.45 -9.9 0.45" fill="none" stroke="#663300" stroke-linecap="round" stroke-linejoin="round" stroke-width="0.05"/>
  </g>
  <defs>
    <linearGradient color-interpolation="linearRGB" gradientTransform="matrix(0.0, -0.0264, 0.0117, 0.0, 0.0, 0.0)" gradientUnits="userSpaceOnUse" id="gradient0" spreadMethod="pad" x1="-819.2" x2="819.2">
      <stop offset="0.27058823529411763" stop-color="#d8ddf0"/>
      <stop offset="0.7137254901960784" stop-color="#a3b4dc"/>
    </linearGradient>
  </defs>
</svg>
