<?xml version="1.0" encoding="UTF-8" standalone="no"?>
<svg xmlns:ffdec="https://www.free-decompiler.com/flash" xmlns:xlink="http://www.w3.org/1999/xlink" ffdec:objectType="shape" height="8.0px" width="134.0px" xmlns="http://www.w3.org/2000/svg">
  <g transform="matrix(1.0, 0.0, 0.0, 1.0, 0.0, 0.0)">
    <path d="M102.0 0.6 Q103.05 1.15 103.1 2.45 L99.95 2.45 99.7 1.9 98.65 1.75 94.15 1.75 93.2 1.9 Q92.9 2.05 92.9 2.4 L93.2 2.85 94.05 2.95 99.1 3.1 102.05 3.5 Q103.05 4.0 103.1 5.55 103.1 6.85 102.2 7.45 101.3 8.0 99.2 8.0 L93.55 8.0 90.5 7.5 Q89.65 6.9 89.65 5.6 L92.6 5.6 Q92.6 5.9 92.95 6.05 L93.85 6.25 98.4 6.25 99.65 6.05 100.05 5.6 Q100.05 5.2 99.65 4.9 L98.3 4.8 93.9 4.7 90.6 4.3 Q89.6 3.8 89.6 2.4 89.6 1.05 90.6 0.55 91.55 0.0 93.8 0.0 L98.8 0.0 Q100.95 0.0 102.0 0.6 M69.1 8.0 L65.75 8.0 71.65 0.0 76.05 0.0 81.95 8.0 78.6 8.0 77.25 6.15 70.45 6.15 69.1 8.0 M71.7 4.35 L76.0 4.35 73.9 1.7 71.7 4.35 M128.35 0.0 Q131.7 0.0 132.85 0.55 134.0 1.05 134.0 2.85 L130.95 2.85 Q130.95 2.35 130.55 2.2 L128.2 1.95 126.1 1.95 123.8 2.2 Q123.35 2.5 123.35 3.65 L123.35 4.5 Q123.35 5.5 123.8 5.8 L126.0 6.1 128.25 6.1 130.5 5.95 Q131.0 5.75 131.0 5.1 L134.0 5.1 Q134.0 6.85 133.0 7.45 L128.3 8.0 125.8 8.0 Q122.65 8.0 121.5 7.35 120.4 6.6 120.4 4.65 L120.4 3.7 Q120.4 1.4 121.55 0.7 122.65 0.0 125.9 0.0 L128.35 0.0 M108.9 3.0 L117.45 3.0 117.45 4.75 108.9 4.75 108.9 6.25 117.75 6.25 117.75 8.0 105.95 8.0 105.95 0.0 117.75 0.0 117.75 1.75 108.9 1.75 108.9 3.0 M17.2 0.0 L17.2 4.95 Q17.15 5.65 17.65 5.95 L19.5 6.25 22.45 6.25 24.25 5.95 Q24.7 5.65 24.7 4.95 L24.7 0.0 27.65 0.0 27.65 5.15 Q27.65 6.7 26.6 7.4 25.6 8.0 22.95 8.0 L18.9 8.0 Q16.4 8.0 15.35 7.35 14.25 6.65 14.25 5.15 L14.25 0.0 17.2 0.0 M11.6 0.0 L11.6 4.85 Q11.6 6.6 10.6 7.35 9.6 8.0 7.4 8.0 L4.3 8.0 Q2.05 8.0 1.05 7.35 0.0 6.65 0.0 5.15 L0.0 4.45 2.95 4.45 2.95 5.05 Q2.95 5.7 3.45 5.95 L5.8 6.25 8.15 5.95 Q8.65 5.6 8.65 4.75 L8.65 0.0 11.6 0.0 M50.45 1.8 L45.7 1.8 45.7 0.0 58.2 0.0 58.2 1.8 53.4 1.8 53.4 8.0 50.45 8.0 50.45 1.8 M42.4 0.6 Q43.5 1.15 43.5 2.45 L40.35 2.45 Q40.35 2.0 40.15 1.9 L39.1 1.75 34.55 1.75 33.6 1.9 Q33.3 2.05 33.3 2.4 33.3 2.7 33.6 2.85 L34.45 2.95 39.5 3.1 42.45 3.5 Q43.5 4.0 43.5 5.55 43.5 6.85 42.6 7.45 41.75 8.0 39.6 8.0 L34.0 8.0 30.95 7.5 Q30.05 6.9 30.1 5.6 L33.05 5.6 Q33.0 5.9 33.35 6.05 L34.3 6.25 38.8 6.25 40.1 6.05 40.45 5.6 40.1 4.9 38.7 4.8 34.3 4.7 31.05 4.3 Q30.05 3.8 30.05 2.4 30.05 1.05 31.05 0.55 32.0 0.0 34.25 0.0 L39.25 0.0 Q41.35 0.0 42.4 0.6" fill="#ffffff" fill-rule="evenodd" stroke="none"/>
  </g>
</svg>
