<?xml version="1.0" encoding="UTF-8" standalone="no"?>
<svg xmlns:ffdec="https://www.free-decompiler.com/flash" xmlns:xlink="http://www.w3.org/1999/xlink" ffdec:objectType="shape" height="49.0px" width="24.5px" xmlns="http://www.w3.org/2000/svg">
  <g transform="matrix(1.0, 0.0, 0.0, 1.0, 12.25, 24.5)">
    <path d="M8.75 -18.5 L8.75 0.25 8.75 16.0 -8.25 16.0 -8.25 0.25 -8.25 -18.5 -0.15 -18.5 8.75 -18.5 M-0.15 0.25 L-0.15 -18.5 -0.15 0.25 8.75 0.25 -0.15 0.25 -8.25 0.25 -0.15 0.25" fill="url(#gradient0)" fill-rule="evenodd" stroke="none"/>
    <path d="M-8.25 -18.5 L-11.75 -18.5 -11.75 -24.5 12.25 -24.5 12.25 -18.5 8.75 -18.5 -0.15 -18.5 -8.25 -18.5 M8.75 16.0 L12.25 16.0 12.25 24.5 -12.25 24.5 -12.25 16.0 -8.25 16.0 8.75 16.0" fill="#e7c772" fill-rule="evenodd" stroke="none"/>
    <path d="M-8.25 -18.5 L-11.75 -18.5 -11.75 -24.5 12.25 -24.5 12.25 -18.5 8.75 -18.5 8.75 0.25 8.75 16.0 12.25 16.0 12.25 24.5 -12.25 24.5 -12.25 16.0 -8.25 16.0 -8.25 0.25 -8.25 -18.5 -0.15 -18.5 8.75 -18.5 M8.75 0.25 L-0.15 0.25 -8.25 0.25 M-0.15 -18.5 L-0.15 0.25 M-8.25 16.0 L8.75 16.0" fill="none" stroke="#663300" stroke-linecap="round" stroke-linejoin="round" stroke-width="0.05"/>
  </g>
  <defs>
    <linearGradient color-interpolation="linearRGB" gradientTransform="matrix(0.0, -0.0211, 0.0104, 0.0, 0.25, -1.25)" gradientUnits="userSpaceOnUse" id="gradient0" spreadMethod="pad" x1="-819.2" x2="819.2">
      <stop offset="0.27058823529411763" stop-color="#d8ddf0"/>
      <stop offset="0.7137254901960784" stop-color="#a3b4dc"/>
    </linearGradient>
  </defs>
</svg>
