<?xml version="1.0" encoding="UTF-8" standalone="no"?>
<svg xmlns:ffdec="https://www.free-decompiler.com/flash" xmlns:xlink="http://www.w3.org/1999/xlink" ffdec:objectType="shape" height="32.5px" width="16.45px" xmlns="http://www.w3.org/2000/svg">
  <g transform="matrix(1.0, 0.0, 0.0, 1.0, 8.2, 16.25)">
    <path d="M8.25 -16.25 L8.25 0.35 8.25 16.25 -8.2 16.25 -8.2 0.35 -8.2 -16.25 0.1 -16.25 8.25 -16.25 M0.1 -16.25 L0.1 0.35 8.25 0.35 0.1 0.35 -8.2 0.35 0.1 0.35 0.1 -16.25" fill="url(#gradient0)" fill-rule="evenodd" stroke="none"/>
    <path d="M8.25 -16.25 L8.25 0.35 8.25 16.25 -8.2 16.25 -8.2 0.35 -8.2 -16.25 0.1 -16.25 8.25 -16.25 M8.25 0.35 L0.1 0.35 -8.2 0.35 M0.1 0.35 L0.1 -16.25" fill="none" stroke="#663300" stroke-linecap="round" stroke-linejoin="round" stroke-width="0.05"/>
  </g>
  <defs>
    <linearGradient color-interpolation="linearRGB" gradientTransform="matrix(0.0, -0.0198, 0.01, 0.0, 0.0, 0.0)" gradientUnits="userSpaceOnUse" id="gradient0" spreadMethod="pad" x1="-819.2" x2="819.2">
      <stop offset="0.27058823529411763" stop-color="#d8ddf0"/>
      <stop offset="0.7137254901960784" stop-color="#a3b4dc"/>
    </linearGradient>
  </defs>
</svg>
