<?xml version="1.0" encoding="UTF-8" standalone="no"?>
<svg xmlns:ffdec="https://www.free-decompiler.com/flash" xmlns:xlink="http://www.w3.org/1999/xlink" ffdec:objectType="shape" height="429.2px" width="380.75px" xmlns="http://www.w3.org/2000/svg">
  <g transform="matrix(1.0, 0.0, 0.0, 1.0, 195.95, 124.2)">
    <path d="M167.35 -37.75 L183.85 -37.75 183.85 -25.15 46.85 -25.85 33.25 -25.9 1.2 -26.1 -88.95 -26.55 -102.15 -26.6 -166.6 -26.95 -178.45 -27.0 -178.45 -27.1 -185.25 -27.1 -185.25 -27.05 -195.95 -27.1 -195.95 -37.75 -158.1 -37.75 -105.85 -37.75 -27.95 -37.75 -26.95 -37.75 67.7 -37.75 68.05 -37.75 69.2 -37.75 167.35 -37.75" fill="#f7f9f8" fill-rule="evenodd" stroke="none"/>
    <path d="M69.2 -111.6 L69.2 -81.5 93.5 -81.5 110.0 -81.5 133.35 -81.5 133.35 -52.35 69.2 -52.35 69.2 -37.75 68.05 -37.75 67.7 -37.75 -26.95 -37.75 -26.95 -52.35 -26.95 -81.5 -26.95 -111.6 69.2 -111.6 M69.2 -81.5 L69.2 -52.35 69.2 -81.5 M1.2 -26.1 L1.2 124.15 1.2 196.65 1.2 252.5 1.2 280.7 -19.15 280.7 -19.15 259.35 -74.75 259.35 -76.7 167.0 -81.95 167.0 -88.95 -26.55 1.2 -26.1 M-167.7 280.7 L-167.45 167.0 -167.05 167.0 -166.6 -26.95 -102.15 -26.6 -108.5 -18.35 -108.5 -14.45 -100.75 -14.45 -100.75 20.5 -100.0 21.1 -108.5 32.2 -108.5 36.05 -100.75 36.05 -100.75 74.25 -108.5 84.35 -108.5 88.25 -100.75 88.25 -99.8 132.05 -108.5 143.35 -108.5 146.25 -100.75 146.25 -100.75 180.1 -100.0 180.7 -108.5 191.8 -108.5 195.65 -100.75 195.65 -100.75 233.85 -108.5 243.95 -108.5 247.85 -100.75 247.85 -100.15 280.7 -101.7 280.7 -101.7 272.9 -101.7 259.35 -154.15 259.35 -154.15 272.9 -154.15 280.7 -167.7 280.7 M-113.4 -52.35 L-113.4 -81.5 -90.1 -81.5 -74.55 -81.5 -62.85 -81.5 -62.85 -80.5 -81.95 -52.35 -92.0 -52.35 -113.4 -52.35 M-167.75 305.0 L-167.7 280.75 -154.15 280.75 -154.15 305.0 -167.75 305.0 M-101.7 280.75 L-100.15 280.75 -99.95 305.0 -101.7 305.0 -101.7 280.75 M-19.15 280.75 L1.2 280.75 1.2 305.0 -19.15 305.0 -19.15 280.75" fill="#d5c4aa" fill-rule="evenodd" stroke="none"/>
    <path d="M33.25 -25.9 L33.25 -11.3 3.2 6.9 27.5 6.9 27.5 49.95 3.2 64.65 27.5 64.65 27.5 108.25 1.2 124.15 1.2 -26.1 33.25 -25.9 M1.2 280.75 L25.5 280.75 25.5 305.0 1.2 305.0 1.2 280.75 M1.2 280.7 L1.2 252.5 1.2 196.65 1.2 124.15 25.5 124.15 25.5 181.9 1.2 196.65 25.5 196.65 25.5 237.75 1.2 252.5 25.5 252.5 25.5 280.7 1.2 280.7" fill="#f8faf9" fill-rule="evenodd" stroke="none"/>
    <path d="M33.25 -11.3 L33.25 -25.9 46.85 -25.85 46.85 280.7 33.25 280.7 33.25 -11.3 M-178.45 -27.0 L-166.6 -26.95 -167.05 167.0 -167.45 167.0 -167.7 280.7 -195.95 280.7 -195.95 -27.1 -185.25 -27.05 -178.45 -27.0 M-195.95 280.75 L-167.7 280.75 -167.75 305.0 -195.95 305.0 -195.95 280.75 M33.25 280.75 L46.85 280.75 46.85 305.0 33.25 305.0 33.25 280.75" fill="#a29082" fill-rule="evenodd" stroke="none"/>
    <path d="M-26.95 -111.6 L-31.8 -111.6 -31.8 -124.2 74.05 -124.2 74.05 -111.6 69.2 -111.6 -26.95 -111.6 M93.5 -81.5 L93.5 -96.05 110.0 -96.05 110.0 -81.5 93.5 -81.5 M-90.1 -81.5 L-90.1 -94.1 -74.55 -94.1 -74.55 -81.5 -90.1 -81.5" fill="#ebeae6" fill-rule="evenodd" stroke="none"/>
    <path d="M1.2 124.15 L27.5 108.25 27.5 64.65 3.2 64.65 27.5 49.95 27.5 6.9 3.2 6.9 33.25 -11.3 33.25 280.7 25.5 280.7 25.5 252.5 1.2 252.5 25.5 237.75 25.5 196.65 1.2 196.65 25.5 181.9 25.5 124.15 1.2 124.15 M25.5 280.75 L33.25 280.75 33.25 305.0 25.5 305.0 25.5 280.75" fill="#cfc7c0" fill-rule="evenodd" stroke="none"/>
    <path d="M46.85 280.7 L46.85 -25.85 183.85 -25.15 183.85 280.7 46.85 280.7 M46.85 280.75 L183.85 280.75 183.85 305.0 46.85 305.0 46.85 280.75" fill="#bcac95" fill-rule="evenodd" stroke="none"/>
    <path d="M-158.1 -37.75 L-158.1 -52.35 -113.4 -52.35 -92.0 -52.35 -105.85 -37.75 -158.1 -37.75" fill="#f1f7fc" fill-rule="evenodd" stroke="none"/>
    <path d="M133.35 -52.35 L167.35 -52.35 167.35 -37.75 69.2 -37.75 69.2 -52.35 133.35 -52.35 M-92.0 -52.35 L-81.95 -52.35 -26.95 -52.35 -26.95 -37.75 -27.95 -37.75 -105.85 -37.75 -92.0 -52.35" fill="#cac5c2" fill-rule="evenodd" stroke="none"/>
    <path d="M-102.15 -26.6 L-88.95 -26.55 -81.95 167.0 -76.7 167.0 -74.75 259.35 -87.15 259.35 -87.15 272.9 -87.15 305.0 -99.95 305.0 -100.15 280.75 -99.3 280.2 -100.15 280.7 -100.75 247.85 -108.5 247.85 -108.5 243.95 -100.75 233.85 -100.75 195.65 -108.5 195.65 -108.5 191.8 -100.0 180.7 -100.75 180.1 -100.75 146.25 -108.5 146.25 -108.5 143.35 -99.8 132.05 -100.75 88.25 -108.5 88.25 -108.5 84.35 -100.75 74.25 -100.75 36.05 -108.5 36.05 -108.5 32.2 -100.0 21.1 -100.75 20.5 -100.75 -14.45 -108.5 -14.45 -108.5 -18.35 -102.15 -26.6" fill="#b4a6a0" fill-rule="evenodd" stroke="none"/>
    <path d="M-62.85 -81.5 L-26.95 -81.5 -26.95 -52.35 -81.95 -52.35 -62.85 -80.5 -62.85 -81.5" fill="#ac997d" fill-rule="evenodd" stroke="none"/>
    <path d="M-19.15 280.7 L-20.2 280.6 -19.15 280.75 -19.15 305.0 -26.95 305.0 -26.95 272.9 -87.15 272.9 -87.15 259.35 -74.75 259.35 -19.15 259.35 -19.15 280.7 M-154.15 272.9 L-154.15 259.35 -101.7 259.35 -101.7 272.9 -154.15 272.9" fill="#947663" fill-rule="evenodd" stroke="none"/>
    <path d="M-154.15 280.75 L-101.7 280.75 -101.7 305.0 -154.15 305.0 -154.15 280.75 M-101.7 280.7 L-154.15 280.7 -154.15 272.9 -101.7 272.9 -101.7 280.7 M-26.95 305.0 L-87.15 305.0 -87.15 272.9 -26.95 272.9 -26.95 305.0" fill="#b7a493" fill-rule="evenodd" stroke="none"/>
    <path d="M-26.95 -111.6 L-31.8 -111.6 -31.8 -124.2 74.05 -124.2 74.05 -111.6 69.2 -111.6 69.2 -81.5 93.5 -81.5 93.5 -96.05 110.0 -96.05 110.0 -81.5 133.35 -81.5 133.35 -52.35 167.35 -52.35 167.35 -37.75 183.85 -37.75 183.85 -25.15 184.8 -25.15 M69.2 -52.35 L69.2 -81.5 M33.25 -11.3 L33.25 -25.9 1.2 -26.1 1.2 124.15 1.2 196.65 1.2 252.5 1.2 280.7 M33.25 -11.3 L33.25 280.7 M46.85 280.7 L46.85 -25.85 33.25 -25.9 M-26.95 -37.75 L67.7 -37.75 68.05 -37.75 69.2 -37.75 69.2 -52.35 133.35 -52.35 M68.05 -37.75 L69.2 -37.75 167.35 -37.75 M93.5 -81.5 L110.0 -81.5 M46.85 -25.85 L183.85 -25.15 183.85 280.7 M-166.6 -26.95 L-178.45 -27.0 -185.25 -27.05 -195.95 -27.1 -195.95 280.7 M-166.6 -26.95 L-102.15 -26.6 -88.95 -26.55 1.2 -26.1 M-195.95 -27.1 L-195.95 -37.75 -158.1 -37.75 -158.1 -52.35 -113.4 -52.35 -113.4 -81.5 -90.1 -81.5 -90.1 -94.1 -74.55 -94.1 -74.55 -81.5 -62.85 -81.5 -26.95 -81.5 -26.95 -111.6 69.2 -111.6 M-178.45 -27.0 L-178.45 -27.1 -185.25 -27.1 -185.25 -27.05 M-113.4 -52.35 L-92.0 -52.35 -81.95 -52.35 -26.95 -52.35 -26.95 -81.5 M-158.1 -37.75 L-105.85 -37.75 -27.95 -37.75 -26.95 -37.75 -26.95 -52.35 M-74.55 -81.5 L-90.1 -81.5 M-74.75 259.35 L-19.15 259.35 -19.15 280.7 M-154.15 272.9 L-154.15 259.35 -101.7 259.35 -101.7 272.9 M-154.15 280.7 L-154.15 272.9 M-87.15 272.9 L-87.15 259.35 -74.75 259.35" fill="none" stroke="#000000" stroke-linecap="round" stroke-linejoin="round" stroke-width="0.05"/>
    <path d="M-195.95 280.75 L-195.95 305.0 M183.85 280.75 L183.85 305.0 M-101.7 272.9 L-101.7 280.7 M-19.15 280.75 L-19.15 305.0 M-87.15 272.9 L-87.15 305.0 M-154.15 280.75 L-154.15 305.0 M-101.7 280.75 L-101.7 305.0 M33.25 280.75 L33.25 305.0 M46.85 280.75 L46.85 305.0 M1.2 280.75 L1.2 305.0" fill="none" stroke="#000000" stroke-linecap="round" stroke-linejoin="round" stroke-width="0.05"/>
  </g>
</svg>
