<?xml version="1.0" encoding="UTF-8" standalone="no"?>
<svg xmlns:ffdec="https://www.free-decompiler.com/flash" xmlns:xlink="http://www.w3.org/1999/xlink" ffdec:objectType="shape" height="31.0px" width="29.0px" xmlns="http://www.w3.org/2000/svg">
  <g transform="matrix(1.0, 0.0, 0.0, 1.0, 14.5, 15.5)">
    <path d="M-0.05 -15.5 L14.5 -15.5 14.5 15.5 -0.05 15.5 -14.5 15.5 -14.5 0.1 -14.5 -15.5 -0.05 -15.5 -0.05 0.1 -0.05 15.5 -0.05 0.1 -0.05 -15.5 M-14.5 0.1 L-0.05 0.1 -14.5 0.1" fill="url(#gradient0)" fill-rule="evenodd" stroke="none"/>
    <path d="M-0.05 -15.5 L14.5 -15.5 14.5 15.5 -0.05 15.5 -14.5 15.5 -14.5 0.1 -14.5 -15.5 -0.05 -15.5 -0.05 0.1 -0.05 15.5 M-0.05 0.1 L-14.5 0.1" fill="none" stroke="#333333" stroke-linecap="round" stroke-linejoin="round" stroke-width="0.05"/>
  </g>
  <defs>
    <linearGradient color-interpolation="linearRGB" gradientTransform="matrix(0.0, -0.0189, 0.0089, 0.0, 7.2, 0.0)" gradientUnits="userSpaceOnUse" id="gradient0" spreadMethod="pad" x1="-819.2" x2="819.2">
      <stop offset="0.27058823529411763" stop-color="#d8ddf0"/>
      <stop offset="0.7137254901960784" stop-color="#a3b4dc"/>
    </linearGradient>
  </defs>
</svg>
