<?xml version="1.0" encoding="UTF-8" standalone="no"?>
<svg xmlns:ffdec="https://www.free-decompiler.com/flash" xmlns:xlink="http://www.w3.org/1999/xlink" ffdec:objectType="shape" height="60.0px" width="73.0px" xmlns="http://www.w3.org/2000/svg">
  <g transform="matrix(1.0, 0.0, 0.0, 1.0, 36.5, 30.0)">
    <path d="M-36.5 -14.0 L-17.5 -14.0 4.5 -14.0 4.5 2.0 4.85 3.0 20.35 3.0 20.5 3.0 20.5 9.0 36.5 9.0 36.5 19.0 20.5 19.0 20.5 9.0 20.5 19.0 4.5 19.0 4.5 9.0 4.5 2.0 -17.5 2.0 -36.5 2.0 -36.5 -14.0 M4.5 9.0 L20.5 9.0 4.5 9.0 M-17.5 2.0 L-17.5 -14.0 -17.5 2.0" fill="url(#gradient0)" fill-rule="evenodd" stroke="none"/>
    <path d="M4.5 -30.0 L4.5 -14.0 4.5 -30.0 20.35 -30.0 36.5 -30.0 36.5 -29.0 36.5 9.0 20.5 9.0 20.5 3.0 20.35 3.0 4.85 3.0 4.5 2.0 4.5 -14.0 -17.5 -14.0 -36.5 -14.0 -36.5 -14.1 -17.55 -14.1 -17.55 -30.0 -17.55 -14.1 -36.5 -14.1 -36.5 -30.0 -17.55 -30.0 4.5 -30.0 M20.35 -30.0 L20.35 3.0 20.35 -30.0" fill="#aaaaaa" fill-rule="evenodd" stroke="none"/>
    <path d="M36.5 19.0 L36.5 30.0 -36.5 30.0 -36.5 19.0 -20.5 19.0 -1.5 19.0 4.5 19.0 20.5 19.0 36.5 19.0 M20.5 19.3 L20.5 19.0 20.5 19.3" fill="#f8faf9" fill-rule="evenodd" stroke="none"/>
    <path d="M4.5 -14.0 L4.5 -30.0 -17.55 -30.0 -17.55 -14.1 -36.5 -14.1 -36.5 -14.0 -36.5 2.0 -17.5 2.0 4.5 2.0 4.5 -14.0 M20.35 3.0 L20.35 -30.0 4.5 -30.0 M20.35 -30.0 L36.5 -30.0 M36.5 -29.0 L36.5 9.0 36.5 19.0 36.5 30.0 -36.5 30.0 -36.5 19.0 -20.5 19.0 -20.5 9.0 -36.5 9.0 M20.5 3.0 L20.5 9.0 36.5 9.0 M36.5 19.0 L20.5 19.0 20.5 19.3 M20.5 9.0 L20.5 19.0 4.5 19.0 -1.5 19.0 -20.5 19.0 M4.5 19.0 L4.5 9.0 -1.5 9.0 -1.5 19.0 M4.5 9.0 L4.5 2.0 M20.5 9.0 L4.5 9.0 M-36.5 -14.1 L-36.5 -30.0 -17.55 -30.0 M-1.5 9.0 L-20.5 9.0 M-17.5 -14.0 L-17.5 2.0" fill="none" stroke="#000000" stroke-linecap="round" stroke-linejoin="round" stroke-width="0.05"/>
  </g>
  <defs>
    <linearGradient color-interpolation="linearRGB" gradientTransform="matrix(0.0, -0.0098, 0.0116, 0.0, -27.0, -15.0)" gradientUnits="userSpaceOnUse" id="gradient0" spreadMethod="pad" x1="-819.2" x2="819.2">
      <stop offset="0.27058823529411763" stop-color="#d8ddf0"/>
      <stop offset="0.7137254901960784" stop-color="#a3b4dc"/>
    </linearGradient>
  </defs>
</svg>
