<?xml version="1.0" encoding="UTF-8" standalone="no"?>
<svg xmlns:ffdec="https://www.free-decompiler.com/flash" xmlns:xlink="http://www.w3.org/1999/xlink" ffdec:objectType="shape" height="207.15px" width="361.7px" xmlns="http://www.w3.org/2000/svg">
  <g transform="matrix(1.0, 0.0, 0.0, 1.0, 156.8, 126.45)">
    <path d="M86.05 -92.7 L93.2 -100.45 101.0 -92.7 86.05 -92.7 M109.5 -84.5 L190.45 -37.5 -2.0 -37.5 -2.0 -38.0 77.5 -84.5 109.5 -84.5 M-79.5 -81.5 L33.0 -81.5 -23.75 -38.0 -138.75 -38.0 -79.5 -68.5 -79.5 -81.5" fill="#dccdcf" fill-rule="evenodd" stroke="none"/>
    <path d="M102.95 -97.05 L110.75 -88.15 75.0 -88.15 82.8 -96.75 93.2 -108.25 102.95 -97.05 M86.05 -92.7 L101.0 -92.7 93.2 -100.45 86.05 -92.7 M-150.95 -33.6 L-156.8 -33.6 Q-122.7 -52.4 -88.65 -71.25 L-88.65 -88.15 75.0 -88.15 -21.1 -33.6 -147.3 -33.6 -150.95 -33.6 M-79.5 -81.5 L-79.5 -68.5 -138.75 -38.0 -23.75 -38.0 33.0 -81.5 -79.5 -81.5" fill="#c2abae" fill-rule="evenodd" stroke="none"/>
    <path d="M110.75 -88.15 L204.9 -33.6 191.25 -33.6 -9.4 -33.6 -21.1 -33.6 75.0 -88.15 110.75 -88.15 M109.5 -84.5 L77.5 -84.5 -2.0 -38.0 -2.0 -37.5 190.45 -37.5 109.5 -84.5" fill="#cdbabd" fill-rule="evenodd" stroke="none"/>
    <path d="M99.7 -118.0 L102.95 -118.0 102.95 -97.05 93.2 -108.25 82.8 -96.75 82.8 -118.0 86.05 -118.0 91.25 -118.0 94.5 -118.0 99.7 -118.0" fill="#f7d49e" fill-rule="evenodd" stroke="none"/>
    <path d="M94.5 -118.0 L94.5 -126.45 99.7 -126.45 99.7 -118.0 94.5 -118.0 M86.05 -118.0 L86.05 -126.45 91.25 -126.45 91.25 -118.0 86.05 -118.0" fill="#ff3333" fill-rule="evenodd" stroke="none"/>
    <path d="M191.25 20.3 L191.25 80.7 156.85 80.7 24.35 80.7 24.35 31.5 156.85 30.5 156.85 20.85 156.85 20.4 191.25 20.3 M11.0 80.7 L-10.05 80.7 -139.2 80.7 -150.95 80.3 -150.95 30.0 -24.5 30.0 -9.7 23.1 -9.7 20.95 11.0 20.9 11.0 80.7 M157.95 30.5 L156.85 30.5 157.95 30.5 M134.75 48.9 L133.45 48.9 134.75 48.9 M156.85 80.7 L156.85 30.5 156.85 80.7 M63.95 62.5 L81.5 62.5 98.4 62.5 117.1 62.5 133.45 62.5 133.45 48.9 133.45 35.25 98.4 35.25 81.5 35.25 63.95 35.25 47.75 35.25 47.75 48.9 47.75 62.5 63.95 62.5 63.95 63.15 63.95 62.5 M-33.2 34.95 L-33.2 35.5 -33.2 34.95 M-31.9 48.25 L-33.2 48.25 -31.9 48.25 M-8.5 22.5 L-9.7 23.1 -8.5 22.5 M-33.2 48.25 L-33.2 35.5 -50.05 35.5 -68.25 35.5 -85.15 35.5 -85.15 34.95 -85.15 35.5 -102.7 35.5 -118.9 35.5 -118.9 48.25 -118.9 61.85 -102.7 61.85 -85.15 61.85 -68.25 61.85 -49.55 61.85 -33.2 61.85 -33.2 48.25 M-102.7 62.5 L-102.7 61.85 -102.7 62.5 M-10.05 80.7 L-9.7 23.1 -10.05 80.7 M-68.25 35.5 L-68.25 34.95 -68.25 35.5 M-118.9 34.95 L-118.9 35.5 -118.9 34.95 M-102.7 34.95 L-102.7 35.5 -102.7 34.95" fill="#8d9391" fill-rule="evenodd" stroke="none"/>
    <path d="M191.25 -26.0 L191.25 20.3 156.85 20.4 24.35 20.85 11.0 20.9 -9.7 20.95 -150.95 21.35 -150.95 -26.0 -9.45 -26.0 -9.7 20.95 -9.45 -26.0 191.25 -26.0" fill="#f8f0e3" fill-rule="evenodd" stroke="none"/>
    <path d="M24.35 80.7 L11.0 80.7 11.0 20.9 24.35 20.85 156.85 20.85 156.85 30.5 24.35 31.5 24.35 80.7 M-150.95 30.0 L-150.95 21.35 -9.7 20.95 -9.7 23.1 -24.5 30.0 -150.95 30.0 M24.35 31.5 L24.35 20.85 24.35 31.5" fill="#6c716d" fill-rule="evenodd" stroke="none"/>
    <path d="M191.25 -33.6 L191.25 -29.9 -9.4 -29.9 -150.95 -29.9 -150.95 -33.6 -147.3 -33.6 -148.5 -33.0 -147.3 -33.6 -21.1 -33.6 -9.4 -33.6 191.25 -33.6 M-9.4 -33.6 L-9.4 -29.9 -9.4 -33.6" fill="#bca0a7" fill-rule="evenodd" stroke="none"/>
    <path d="M63.95 62.5 L47.75 62.5 47.75 48.9 47.75 35.25 63.95 35.25 81.5 35.25 98.4 35.25 133.45 35.25 133.45 48.9 133.45 62.5 117.1 62.5 98.4 62.5 81.5 62.5 63.95 62.5 63.95 48.9 81.5 48.9 81.5 62.5 81.5 48.9 63.95 48.9 63.95 62.5 M63.95 35.25 L63.95 48.9 47.75 48.9 63.95 48.9 63.95 35.25 M98.4 48.9 L98.4 62.5 98.4 48.9 81.5 48.9 81.5 35.25 81.5 48.9 98.4 48.9 98.4 35.25 98.4 48.9 116.85 48.9 116.6 35.9 116.85 48.9 98.4 48.9 M117.1 62.5 L116.85 48.9 133.45 48.9 116.85 48.9 117.1 62.5" fill="url(#gradient0)" fill-rule="evenodd" stroke="none"/>
    <path d="M-50.05 35.5 L-33.2 35.5 -33.2 48.25 -49.8 48.25 -50.05 35.5 -49.8 48.25 -33.2 48.25 -33.2 61.85 -49.55 61.85 -68.25 61.85 -85.15 61.85 -102.7 61.85 -118.9 61.85 -118.9 48.25 -118.9 35.5 -102.7 35.5 -102.7 48.25 -118.9 48.25 -102.7 48.25 -102.7 35.5 -85.15 35.5 -85.15 48.25 -68.25 48.25 -68.25 35.5 -68.25 48.25 -85.15 48.25 -85.15 35.5 -68.25 35.5 -50.05 35.5 M-68.25 61.85 L-68.25 48.25 -49.8 48.25 -49.55 61.85 -49.8 48.25 -68.25 48.25 -68.25 61.85 M-85.15 61.85 L-85.15 48.25 -102.7 48.25 -102.7 61.85 -102.7 48.25 -85.15 48.25 -85.15 61.85" fill="url(#gradient1)" fill-rule="evenodd" stroke="none"/>
    <path d="M191.25 -29.9 L191.25 -26.0 -9.45 -26.0 -150.95 -26.0 -150.95 -29.9 -9.4 -29.9 -9.45 -26.0 -9.4 -29.9 191.25 -29.9" fill="#d5c4c9" fill-rule="evenodd" stroke="none"/>
    <path d="M94.5 -118.0 L94.5 -126.45 99.7 -126.45 99.7 -118.0 102.95 -118.0 102.95 -97.05 110.75 -88.15 204.9 -33.6 191.25 -33.6 191.25 -29.9 191.25 -26.0 191.25 20.3 191.25 80.7 M-150.95 80.3 L-150.95 30.0 -150.95 21.35 -150.95 -26.0 -151.5 -26.0 M86.05 -118.0 L86.05 -126.45 91.25 -126.45 91.25 -118.0 94.5 -118.0 99.7 -118.0 M91.25 -118.0 L86.05 -118.0 82.8 -118.0 82.8 -96.75 93.2 -108.25 102.95 -97.05 M82.8 -96.75 L75.0 -88.15 110.75 -88.15 M156.85 20.85 L156.85 30.5 157.95 30.5 M156.85 20.85 L24.35 20.85 24.35 31.5 24.35 80.7 M156.85 30.5 L156.85 80.7 M133.45 48.9 L134.75 48.9 M63.95 62.5 L47.75 62.5 47.75 48.9 47.75 35.25 63.95 35.25 81.5 35.25 98.4 35.25 133.45 35.25 133.45 48.9 133.45 62.5 117.1 62.5 98.4 62.5 81.5 62.5 63.95 62.5 63.95 63.15 M81.5 35.25 L81.5 48.9 98.4 48.9 98.4 35.25 M98.4 48.9 L116.85 48.9 116.6 35.9 M81.5 62.5 L81.5 48.9 63.95 48.9 63.95 62.5 M133.45 48.9 L116.85 48.9 117.1 62.5 M98.4 62.5 L98.4 48.9 M47.75 48.9 L63.95 48.9 63.95 35.25 M24.35 20.85 L11.0 20.9 -9.7 20.95 -9.7 23.1 -8.5 22.5 M24.35 20.85 L156.85 20.4 191.25 20.3 M-150.95 -33.6 L-156.8 -33.6 Q-122.7 -52.4 -88.65 -71.25 L-88.65 -88.15 75.0 -88.15 -21.1 -33.6 -9.4 -33.6 191.25 -33.6 M-147.3 -33.6 L-150.95 -33.6 -150.95 -29.9 -150.95 -26.0 M-9.4 -29.9 L-9.4 -33.6 M-9.45 -26.0 L-9.4 -29.9 M-147.3 -33.6 L-148.5 -33.0 M-21.1 -33.6 L-147.3 -33.6 M-33.2 48.25 L-31.9 48.25 M-33.2 35.5 L-33.2 34.95 M-33.2 48.25 L-33.2 35.5 -50.05 35.5 -49.8 48.25 -33.2 48.25 -33.2 61.85 -49.55 61.85 -68.25 61.85 -85.15 61.85 -102.7 61.85 -102.7 62.5 M-49.55 61.85 L-49.8 48.25 -68.25 48.25 -68.25 61.85 M-85.15 35.5 L-85.15 48.25 -68.25 48.25 -68.25 35.5 -85.15 35.5 -85.15 34.95 M-68.25 35.5 L-50.05 35.5 M-68.25 34.95 L-68.25 35.5 M-9.7 23.1 L-10.05 80.7 M-118.9 48.25 L-102.7 48.25 -102.7 35.5 -118.9 35.5 -118.9 48.25 -118.9 61.85 -102.7 61.85 -102.7 48.25 -85.15 48.25 -85.15 61.85 M-102.7 35.5 L-102.7 34.95 M-118.9 35.5 L-118.9 34.95 M-85.15 35.5 L-102.7 35.5 M-9.7 20.95 L-150.95 21.35 M-9.45 -26.0 L-9.7 20.95" fill="none" stroke="#333333" stroke-linecap="round" stroke-linejoin="round" stroke-width="0.05"/>
  </g>
  <defs>
    <linearGradient color-interpolation="linearRGB" gradientTransform="matrix(0.0, -0.0083, 0.0103, 0.0, 125.0, 42.1)" gradientUnits="userSpaceOnUse" id="gradient0" spreadMethod="pad" x1="-819.2" x2="819.2">
      <stop offset="0.27058823529411763" stop-color="#d8ddf0"/>
      <stop offset="0.7137254901960784" stop-color="#a3b4dc"/>
    </linearGradient>
    <linearGradient color-interpolation="linearRGB" gradientTransform="matrix(0.0, -0.0083, 0.0103, 0.0, 217.1, 41.45)" gradientUnits="userSpaceOnUse" id="gradient1" spreadMethod="pad" x1="-819.2" x2="819.2">
      <stop offset="0.27058823529411763" stop-color="#d8ddf0"/>
      <stop offset="0.7137254901960784" stop-color="#a3b4dc"/>
    </linearGradient>
  </defs>
</svg>
