<?xml version="1.0" encoding="UTF-8" standalone="no"?>
<svg xmlns:ffdec="https://www.free-decompiler.com/flash" xmlns:xlink="http://www.w3.org/1999/xlink" ffdec:objectType="shape" height="23.1px" width="429.25px" xmlns="http://www.w3.org/2000/svg">
  <g transform="matrix(1.0, 0.0, 0.0, 1.0, 214.6, 11.55)">
    <path d="M91.35 -10.05 L111.65 -10.05 131.95 -10.05 152.25 -10.05 172.55 -10.05 192.85 -10.05 213.15 -10.05 213.15 -0.05 213.15 10.05 192.85 10.05 172.55 10.05 152.25 10.05 131.95 10.05 111.65 10.05 91.35 10.05 71.05 10.05 50.8 10.05 30.5 10.05 10.2 10.05 -10.1 10.05 -30.4 10.05 -50.7 10.05 -71.0 10.05 -91.3 10.05 -111.6 10.05 -131.9 10.05 -152.2 10.05 -172.5 10.05 -192.8 10.05 -213.1 10.05 -213.1 -0.05 -213.1 -10.05 -192.8 -10.05 -172.5 -10.05 -152.2 -10.05 -131.9 -10.05 -111.6 -10.05 -91.3 -10.05 -71.0 -10.05 -50.7 -10.05 -30.4 -10.05 -10.1 -10.05 10.2 -10.05 30.5 -10.05 50.8 -10.05 71.05 -10.05 91.35 -10.05 91.35 -0.05 91.35 10.05 M111.65 -0.05 L111.65 -10.05 M192.85 -0.05 L192.85 10.05 M172.55 -0.05 L172.55 -10.05 M172.55 -0.05 L172.55 10.05 M152.25 10.05 L152.25 -0.05 152.25 -10.05 M131.95 -0.05 L131.95 10.05 M111.65 -0.05 L111.65 10.05 M71.05 10.05 L71.05 -0.05 71.05 -10.05 M50.8 -0.05 L50.8 10.05 M131.95 -10.05 L131.95 -0.05 M192.85 -10.05 L192.85 -0.05 M-91.3 10.05 L-91.3 -0.05 -91.3 -10.05 M-111.6 -0.05 L-111.6 10.05 M-131.9 -0.05 L-131.9 -10.05 M-131.9 -0.05 L-131.9 10.05 M-152.2 10.05 L-152.2 -0.05 -152.2 -10.05 M-172.5 -0.05 L-172.5 10.05 M-192.8 -0.05 L-192.8 10.05 M-192.8 -0.05 L-192.8 -10.05 M30.5 -0.05 L30.5 10.05 M10.2 10.05 L10.2 -0.05 10.2 -10.05 M-10.1 -0.05 L-10.1 10.05 M30.5 -0.05 L30.5 -10.05 M-30.4 -0.05 L-30.4 10.05 M-30.4 -0.05 L-30.4 -10.05 M-50.7 10.05 L-50.7 -0.05 -50.7 -10.05 M-71.0 -0.05 L-71.0 10.05 M-111.6 -0.05 L-111.6 -10.05 M-71.0 -0.05 L-71.0 -10.05 M-10.1 -10.05 L-10.1 -0.05 M50.8 -10.05 L50.8 -0.05 M-172.5 -10.05 L-172.5 -0.05" fill="none" stroke="#cc99ff" stroke-linecap="round" stroke-linejoin="round" stroke-width="3.0"/>
    <path d="M91.35 -0.05 L111.65 -0.05 131.95 -0.05 152.25 -0.05 172.55 -0.05 192.85 -0.05 213.15 -0.05 M71.05 -0.05 L50.8 -0.05 30.5 -0.05 10.2 -0.05 -10.1 -0.05 -30.4 -0.05 -50.7 -0.05 -71.0 -0.05 -91.3 -0.05 -111.6 -0.05 -131.9 -0.05 -152.2 -0.05 -172.5 -0.05 -192.8 -0.05 -213.1 -0.05 M71.05 -0.05 L91.35 -0.05" fill="none" stroke="#cc99ff" stroke-linecap="round" stroke-linejoin="round" stroke-width="3.0"/>
  </g>
</svg>
