<?xml version="1.0" encoding="UTF-8" standalone="no"?>
<svg xmlns:ffdec="https://www.free-decompiler.com/flash" xmlns:xlink="http://www.w3.org/1999/xlink" ffdec:objectType="shape" height="421.5px" width="388.55px" xmlns="http://www.w3.org/2000/svg">
  <g transform="matrix(1.0, 0.0, 0.0, 1.0, 194.25, 210.75)">
    <path d="M57.05 -19.35 Q50.15 -19.35 43.45 -22.6 38.9 -24.8 32.45 -29.7 L22.55 -36.85 Q17.05 -40.1 12.3 -40.1 8.2 -40.1 7.0 -37.8 5.45 -34.85 3.55 -34.1 L-10.75 -33.05 -25.2 -31.85 Q-26.35 -31.4 -26.95 -29.6 L-28.1 -26.05 Q-30.35 -21.35 -38.95 -21.35 -55.6 -21.35 -63.9 -27.85 -69.7 -32.3 -69.7 -37.25 -69.7 -40.35 -67.45 -42.85 -64.8 -45.85 -60.45 -45.85 -57.8 -45.85 -52.6 -43.1 -47.4 -40.35 -43.45 -40.35 L-42.95 -40.65 Q-44.25 -41.8 -44.95 -43.6 -45.7 -45.5 -45.7 -49.6 -45.7 -51.85 -41.25 -62.75 -36.4 -74.55 -33.7 -76.35 -31.35 -78.0 -30.65 -82.2 L-29.95 -90.05 Q-29.4 -94.7 -27.55 -96.9 -25.05 -99.85 -19.45 -99.85 -9.3 -99.85 -8.8 -89.4 -8.6 -86.0 -9.5 -81.15 L-10.7 -75.1 -10.95 -74.35 Q-5.1 -76.85 -1.45 -76.85 3.05 -76.85 13.25 -71.8 24.5 -66.2 26.05 -65.85 46.8 -61.3 46.8 -52.35 46.8 -49.6 45.1 -47.05 44.0 -45.45 42.45 -44.55 L47.6 -40.35 Q51.55 -37.1 53.3 -37.1 57.25 -37.1 61.6 -41.95 66.0 -46.85 70.05 -46.85 75.35 -46.85 77.6 -42.35 78.8 -39.9 78.8 -37.5 78.8 -32.85 72.6 -26.6 65.4 -19.35 57.05 -19.35" fill="#3f4b0a" fill-rule="evenodd" stroke="none"/>
    <path d="M-64.95 -15.2 Q-71.95 -6.95 -82.1 -1.2 -83.85 -1.2 -87.6 -2.9 -91.45 -4.65 -92.4 -6.0 L-93.95 -4.5 Q-121.45 -4.5 -126.3 -7.7 L-140.25 -16.9 Q-147.2 -21.7 -150.7 -25.4 -156.65 -31.65 -159.95 -33.85 -164.6 -36.45 -169.7 -39.9 L-178.05 -45.55 Q-179.85 -46.9 -180.0 -48.05 -179.95 -50.1 -180.2 -52.35 -180.75 -56.7 -183.1 -63.3 -184.75 -67.85 -189.55 -87.95 -194.2 -107.5 -194.2 -108.9 -194.45 -111.35 -192.6 -116.95 -188.9 -128.05 -178.4 -144.7 -177.0 -146.95 -176.15 -149.45 -175.4 -152.05 -173.85 -155.35 -172.35 -158.65 -162.4 -166.85 -152.45 -175.05 -151.2 -175.05 -150.0 -175.1 -129.25 -188.7 -119.85 -194.9 -113.6 -197.2 -106.05 -200.05 -98.35 -202.7 -90.65 -205.35 -77.4 -205.0 -64.2 -204.65 -54.05 -207.25 -43.95 -209.9 -31.55 -210.6 -19.15 -211.35 -10.8 -208.35 -2.5 -205.4 -0.3 -206.6 2.15 -207.5 7.45 -207.5 L15.25 -207.25 38.7 -205.9 Q42.9 -205.9 54.5 -208.3 55.25 -208.35 56.0 -208.75 L57.7 -209.1 Q61.2 -209.1 69.15 -205.75 L79.05 -201.25 14.95 -201.1 Q-24.15 -181.55 -36.8 -173.2 -49.5 -164.9 -62.9 -146.05 -76.35 -127.2 -76.8 -126.05 -77.25 -124.9 -77.15 -108.5 L-77.15 -78.5 Q-77.05 -65.85 -76.0 -56.85 -72.95 -31.15 -61.05 -25.35 L-60.2 -21.8 -60.8 -21.0 -64.8 -19.1 Q-65.4 -18.4 -64.95 -15.2" fill="#45530b" fill-rule="evenodd" stroke="none"/>
    <path d="M79.05 -201.25 L86.4 -197.9 Q113.35 -185.65 132.7 -182.5 L143.7 -182.1 Q150.8 -182.1 153.25 -180.9 157.4 -178.85 160.95 -173.0 164.6 -166.9 169.8 -164.0 180.9 -157.7 184.25 -140.85 185.05 -136.95 186.1 -127.7 186.9 -120.25 187.95 -117.3 L188.7 -117.3 188.7 -107.6 Q190.95 -103.5 193.25 -100.45 194.3 -98.65 194.3 -95.1 194.3 -91.55 193.15 -80.0 191.95 -68.5 191.95 -61.7 191.95 -51.2 184.8 -43.9 179.45 -38.45 178.45 -35.75 177.7 -33.85 176.1 -27.8 172.15 -17.2 162.2 -14.95 L151.8 -13.7 139.05 -12.5 Q128.6 -10.9 123.8 -9.45 L119.35 -7.8 92.8 -6.9 Q85.2 -6.9 78.05 -10.6 L78.05 -10.65 Q76.15 -11.65 74.3 -12.9 70.55 -15.4 66.95 -19.0 64.0 -21.95 58.95 -28.0 L56.5 -30.8 56.7 -33.1 53.7 -33.4 Q52.25 -34.25 49.55 -34.4 L48.4 -34.45 43.5 -34.3 Q42.25 -34.9 40.2 -37.7 L37.95 -40.7 Q33.1 -43.4 29.65 -48.35 L30.35 -50.8 25.55 -56.1 25.3 -56.8 24.85 -56.85 20.0 -57.2 15.05 -57.05 Q8.8 -57.15 1.55 -61.7 -3.15 -64.6 -6.85 -67.9 L-11.75 -72.45 Q-16.1 -76.2 -23.7 -76.2 L-27.0 -76.0 -27.25 -75.95 -28.4 -75.6 Q-29.5 -74.95 -31.55 -71.3 L-33.65 -69.9 -33.4 -69.05 -35.8 -67.05 Q-39.5 -64.25 -40.25 -63.3 -43.25 -59.7 -43.6 -53.2 -43.75 -49.8 -43.5 -42.05 L-43.4 -39.1 Q-42.55 -35.15 -44.0 -32.35 -45.4 -29.6 -49.1 -28.0 L-55.25 -25.7 Q-58.7 -24.25 -59.95 -22.2 L-60.2 -21.8 -61.05 -25.35 Q-72.95 -31.15 -76.0 -56.85 -77.05 -65.85 -77.15 -78.5 L-77.15 -108.5 Q-77.25 -124.9 -76.8 -126.05 -76.35 -127.2 -62.9 -146.05 -49.5 -164.9 -36.8 -173.2 -24.15 -181.55 14.95 -201.1 L79.05 -201.25 M73.9 -12.35 L73.75 -12.4 74.3 -12.9 73.9 -12.35" fill="#5c700f" fill-rule="evenodd" stroke="none"/>
    <path d="M78.05 -10.65 L70.85 -0.45 Q66.15 6.15 61.7 8.85 L58.85 10.65 55.9 12.4 Q52.95 13.8 48.4 14.05 L31.9 15.3 28.6 22.7 Q25.8 26.3 19.4 26.15 13.6 26.0 7.7 29.45 5.2 30.9 -0.35 35.45 -12.9 45.7 -18.1 51.95 L-25.25 58.8 -26.9 60.5 Q-27.15 102.3 -12.8 145.85 1.05 187.9 16.05 210.75 L-45.15 210.75 Q-49.2 187.2 -53.3 172.35 -54.75 167.1 -59.25 154.15 -61.8 146.7 -62.7 138.95 -63.8 128.95 -63.8 107.4 -63.8 100.55 -62.3 85.6 -60.8 70.7 -60.8 62.9 -60.8 58.0 -55.35 44.55 -51.9 35.95 -50.6 32.0 -54.55 21.8 -60.5 2.35 -64.25 -9.9 -64.95 -15.2 -65.4 -18.4 -64.8 -19.1 L-60.8 -21.0 -60.2 -21.8 -41.05 18.45 -28.4 -6.2 -28.25 -7.9 -30.3 -12.2 Q-32.55 -16.5 -35.45 -20.4 L-44.0 -32.35 Q-42.55 -35.15 -43.4 -39.1 L-43.5 -42.05 -42.3 -39.75 Q-39.3 -34.4 -32.95 -26.7 L-23.55 -15.85 Q-14.95 -33.35 -14.95 -36.1 -14.95 -40.15 -23.45 -52.2 -31.65 -63.1 -33.4 -69.05 L-33.65 -69.9 -31.55 -71.3 Q-29.5 -74.95 -28.4 -75.6 L-27.25 -75.95 -27.0 -76.0 -26.9 -75.1 -26.45 -74.35 Q-18.65 -60.85 -8.75 -47.25 1.4 -33.25 -1.95 -28.1 -9.9 -13.0 -11.9 -5.9 L-19.4 20.9 Q-11.3 16.7 -1.75 12.4 7.7 8.1 17.0 -2.0 L17.1 -2.4 Q20.2 -10.0 20.2 -18.4 20.2 -20.85 17.85 -24.6 14.9 -29.35 14.55 -30.25 14.5 -36.65 17.7 -40.35 20.9 -44.05 22.15 -47.5 23.35 -50.95 24.85 -56.85 L25.3 -56.8 25.55 -56.1 30.35 -50.8 29.65 -48.35 Q28.6 -45.35 26.8 -42.3 L23.4 -36.7 Q21.6 -33.65 21.0 -31.45 L23.1 -27.75 26.6 -22.4 Q29.85 -17.05 29.85 -12.35 L29.05 4.2 29.6 7.2 29.85 7.15 30.6 7.05 30.65 7.05 Q35.7 6.3 39.5 5.05 42.2 4.15 45.6 4.4 L46.55 4.45 46.6 3.4 46.65 2.75 46.7 2.55 Q47.15 -2.45 47.9 -7.55 48.8 -13.65 48.8 -20.5 48.8 -27.1 49.55 -34.4 52.25 -34.25 53.7 -33.4 L56.7 -33.1 56.5 -30.8 Q54.55 -8.35 54.5 2.8 L54.5 3.45 54.5 4.1 54.85 4.0 55.15 3.95 Q57.25 3.4 58.45 2.4 L67.0 -4.85 70.7 -8.05 73.9 -12.35 74.3 -12.9 Q76.15 -11.65 78.05 -10.65" fill="#9c5916" fill-rule="evenodd" stroke="none"/>
    <path d="M-64.95 -15.2 Q-65.4 -18.4 -64.8 -19.1 L-60.8 -21.0 -60.2 -21.8 M49.55 -34.4 Q52.25 -34.25 53.7 -33.4 L56.7 -33.1 56.5 -30.8 M74.3 -12.9 Q76.15 -11.65 78.05 -10.65 M-33.4 -69.05 L-33.65 -69.9 -31.55 -71.3 Q-29.5 -74.95 -28.4 -75.6 L-27.25 -75.95 -27.0 -76.0 M24.85 -56.85 L25.3 -56.8 25.55 -56.1 30.35 -50.8 29.65 -48.35 M-43.5 -42.05 L-43.4 -39.1 Q-42.55 -35.15 -44.0 -32.35" fill="none" stroke="#000000" stroke-linecap="round" stroke-linejoin="round" stroke-width="0.05"/>
  </g>
</svg>
