<?xml version="1.0" encoding="UTF-8" standalone="no"?>
<svg xmlns:ffdec="https://www.free-decompiler.com/flash" xmlns:xlink="http://www.w3.org/1999/xlink" ffdec:objectType="shape" height="269.9px" width="242.55px" xmlns="http://www.w3.org/2000/svg">
  <g transform="matrix(1.0, 0.0, 0.0, 1.0, 121.25, 134.95)">
    <path d="M27.1 -64.45 Q39.5 -84.25 66.05 -95.4 76.9 -99.95 87.7 -102.65 97.8 -105.15 104.05 -105.15 91.35 -95.25 78.15 -82.0 65.35 -69.2 59.9 -56.85 43.25 -49.0 30.25 -34.5 23.9 -27.45 19.25 -20.8 L17.75 -21.95 27.1 -64.45 M1.3 37.8 L-2.5 37.8 -2.5 35.85 Q-5.8 -3.45 -29.55 -36.0 -42.4 -53.6 -58.9 -67.05 L-58.4 -67.65 Q-74.4 -95.85 -98.25 -113.95 L-98.2 -115.35 Q-73.25 -116.05 -52.95 -101.6 -33.65 -87.8 -21.1 -69.45 -7.25 -49.15 -1.65 -23.25 3.1 -1.25 2.3 20.95 2.05 27.75 1.3 34.6 L1.3 37.8" fill="#484e10" fill-rule="evenodd" stroke="none"/>
    <path d="M59.9 -56.85 Q66.45 -59.95 73.6 -62.05 98.85 -69.4 121.3 -74.6 113.95 -70.8 106.75 -66.8 74.7 -49.2 49.65 -22.75 24.75 3.65 11.45 37.7 L8.9 37.8 1.3 37.8 1.3 34.6 Q2.05 27.75 2.3 20.95 3.1 -1.25 -1.65 -23.25 -7.25 -49.15 -21.1 -69.45 L-21.0 -77.2 Q-22.0 -99.95 -24.65 -115.75 L-28.5 -134.95 Q-4.2 -115.75 4.4 -90.85 L5.1 -91.1 Q11.05 -105.55 26.25 -118.85 36.4 -127.7 46.3 -134.3 36.55 -106.05 29.7 -76.0 L27.1 -64.45 17.75 -21.95 19.25 -20.8 19.25 -20.75 Q13.75 -13.0 10.6 -5.85 10.6 -29.05 9.9 -53.5 9.45 -69.95 7.2 -80.7 6.1 -85.9 4.4 -90.85 6.1 -85.9 7.2 -80.7 9.45 -69.95 9.9 -53.5 10.6 -29.05 10.6 -5.85 13.75 -13.0 19.25 -20.75 L19.25 -20.8 Q23.9 -27.45 30.25 -34.5 43.25 -49.0 59.9 -56.85 M-2.5 37.8 L-7.65 37.8 Q-50.05 -22.5 -83.2 -51.1 L-102.8 -73.1 Q-116.7 -88.8 -120.6 -98.8 L-120.5 -99.1 Q-102.55 -93.95 -86.0 -85.05 -71.4 -77.25 -58.9 -67.05 -42.4 -53.6 -29.55 -36.0 -5.8 -3.45 -2.5 35.85 L-2.5 37.8 M10.6 -5.85 Q8.75 -1.75 7.75 2.15 3.3 18.6 2.3 20.95 3.3 18.6 7.75 2.15 8.75 -1.75 10.6 -5.85" fill="#5c700f" fill-rule="evenodd" stroke="none"/>
    <path d="M8.9 37.8 L10.15 37.8 11.45 37.8 Q21.2 63.45 22.95 84.2 24.7 104.9 24.95 114.4 L25.35 134.35 -23.45 134.95 Q-21.8 100.75 -16.55 74.75 -11.3 48.75 -8.3 38.35 L-8.3 37.8 -7.65 37.8 -2.5 37.8 1.3 37.8 8.9 37.8" fill="#9c5916" fill-rule="evenodd" stroke="none"/>
    <path d="M27.1 -64.45 Q39.5 -84.25 66.05 -95.4 76.9 -99.95 87.7 -102.65 97.8 -105.15 104.05 -105.15 L104.75 -105.7 104.75 -105.15 104.05 -105.15 Q91.35 -95.25 78.15 -82.0 65.35 -69.2 59.9 -56.85 66.45 -59.95 73.6 -62.05 98.85 -69.4 121.3 -74.6 113.95 -70.8 106.75 -66.8 74.7 -49.2 49.65 -22.75 24.75 3.65 11.45 37.7 M8.9 37.8 L10.15 37.8 M11.45 37.8 Q21.2 63.45 22.95 84.2 24.7 104.9 24.95 114.4 L25.35 134.35 25.35 134.95 M-7.65 37.8 L-8.3 37.8 -8.95 37.8 M-8.3 38.35 Q-11.3 48.75 -16.55 74.75 -21.8 100.75 -23.45 134.95 L-24.7 134.95 M-21.1 -69.45 Q-33.65 -87.8 -52.95 -101.6 -73.25 -116.05 -98.2 -115.35 L-99.7 -115.3 -98.95 -114.55 -98.25 -113.95 Q-74.4 -95.85 -58.4 -67.65 M4.4 -90.85 Q-4.2 -115.75 -28.5 -134.95 L-24.65 -115.75 Q-22.0 -99.95 -21.0 -77.2 L-21.1 -69.45 M-120.5 -99.1 L-121.25 -99.35 M-120.6 -98.8 Q-116.7 -88.8 -102.8 -73.1 L-83.2 -51.1 Q-50.05 -22.5 -7.65 37.8 M-58.9 -67.05 Q-71.4 -77.25 -86.0 -85.05 -102.55 -93.95 -120.5 -99.1" fill="none" stroke="#000000" stroke-linecap="round" stroke-linejoin="round" stroke-width="0.05"/>
    <path d="M27.1 -64.45 L29.7 -76.0 Q36.55 -106.05 46.3 -134.3 36.4 -127.7 26.25 -118.85 11.05 -105.55 5.1 -91.1 L4.4 -90.85 Q6.1 -85.9 7.2 -80.7 9.45 -69.95 9.9 -53.5 10.6 -29.05 10.6 -5.85 13.75 -13.0 19.25 -20.75 L19.25 -20.8 17.75 -21.95 27.1 -64.45 M59.9 -56.85 Q43.25 -49.0 30.25 -34.5 23.9 -27.45 19.25 -20.8 M1.3 34.6 Q2.05 27.75 2.3 20.95 3.1 -1.25 -1.65 -23.25 -7.25 -49.15 -21.1 -69.45 M-58.9 -67.05 Q-42.4 -53.6 -29.55 -36.0 -5.8 -3.45 -2.5 35.85 M2.3 20.95 Q3.3 18.6 7.75 2.15 8.75 -1.75 10.6 -5.85" fill="none" stroke="#41460f" stroke-linecap="round" stroke-linejoin="round" stroke-width="0.05"/>
  </g>
</svg>
