<?xml version="1.0" encoding="UTF-8" standalone="no"?>
<svg xmlns:ffdec="https://www.free-decompiler.com/flash" xmlns:xlink="http://www.w3.org/1999/xlink" ffdec:objectType="shape" height="505.4px" width="398.95px" xmlns="http://www.w3.org/2000/svg">
  <g transform="matrix(1.0, 0.0, 0.0, 1.0, 302.0, 244.35)">
    <path d="M15.45 68.25 L-6.75 68.25 Q-8.45 68.2 -8.45 66.25 L-8.45 34.25 Q-8.5 32.25 -6.65 32.25 -0.75 29.9 5.0 28.8 10.25 29.9 15.35 32.25 16.55 32.25 16.95 33.15 L17.15 34.25 17.15 66.25 Q17.15 68.2 15.45 68.25 M-194.15 33.0 L-194.0 32.8 -193.75 32.55 Q-193.3 32.2 -192.45 32.2 -186.8 29.85 -180.95 28.75 -174.6 29.85 -168.05 32.2 -166.05 32.2 -166.05 34.2 L-166.05 66.2 Q-166.05 68.15 -167.9 68.2 L-192.55 68.2 -194.45 66.2 -194.45 34.2 -194.15 33.0" fill="#000000" fill-rule="evenodd" stroke="none"/>
    <path d="M5.0 28.8 Q21.25 25.55 35.7 32.25 L35.85 32.25 Q36.5 32.25 36.9 32.6 37.5 33.05 37.5 34.25 L36.5 33.15 16.95 33.15 Q16.55 32.25 15.35 32.25 10.25 29.9 5.0 28.8 M-194.15 33.0 L-194.45 34.2 -194.45 66.2 Q-194.45 68.15 -192.55 68.2 L-215.0 68.2 -217.0 66.2 -217.0 34.2 Q-217.0 33.1 -216.4 32.6 L-215.0 32.65 -194.15 33.0" fill="#73492f" fill-rule="evenodd" stroke="none"/>
    <path d="M37.5 34.25 L37.5 66.25 Q37.5 68.25 35.7 68.25 L15.45 68.25 Q17.15 68.2 17.15 66.25 L17.15 34.25 16.95 33.15 36.5 33.15 37.5 34.25" fill="#a96c45" fill-rule="evenodd" stroke="none"/>
    <path d="M-180.95 28.75 Q-186.8 29.85 -192.45 32.2 -193.3 32.2 -193.75 32.55 L-194.0 32.8 -194.15 33.0 -215.0 32.65 -215.0 32.2 Q-198.95 25.5 -180.95 28.75" fill="#613e27" fill-rule="evenodd" stroke="none"/>
    <path d="M-116.95 -213.15 L-123.1 -213.15 -123.1 -218.4 -119.55 -218.4 Q-118.4 -223.45 -114.5 -227.35 -110.9 -230.9 -106.4 -232.15 L-106.4 -244.35 -95.85 -244.35 -95.85 -232.2 Q-91.25 -230.95 -87.65 -227.35 -83.75 -223.45 -82.55 -218.4 L-79.6 -218.4 -79.6 -213.15 -85.3 -213.15 -116.95 -213.15 M-85.3 -194.25 L-82.25 -194.25 -82.25 -160.4 -58.95 -160.4 -58.95 -150.75 -65.1 -150.75 -65.1 -115.8 -137.15 -115.8 -137.15 -150.75 -142.4 -150.75 -142.4 -160.4 -120.45 -160.4 -120.45 -194.25 -116.95 -194.25 -85.3 -194.25 M-106.4 -232.15 L-101.05 -232.9 -95.85 -232.2 -101.05 -232.9 -106.4 -232.15 M-82.55 -218.4 L-119.55 -218.4 -82.55 -218.4 M-82.25 -160.4 L-120.45 -160.4 -82.25 -160.4 M-137.15 -150.75 L-65.1 -150.75 -137.15 -150.75" fill="url(#gradient0)" fill-rule="evenodd" stroke="none"/>
    <path d="M-85.3 -213.15 L-85.3 -194.25 -116.95 -194.25 -116.95 -213.15 -85.3 -213.15" fill="url(#gradient1)" fill-rule="evenodd" stroke="none"/>
    <path d="M-65.1 -115.8 L65.95 -115.8 89.95 222.15 -294.0 222.15 -270.0 -115.8 -137.15 -115.8 -65.1 -115.8 M5.0 28.8 Q-0.75 29.9 -6.65 32.25 -8.5 32.25 -8.45 34.25 L-8.45 66.25 Q-8.45 68.2 -6.75 68.25 L15.45 68.25 35.7 68.25 Q37.5 68.25 37.5 66.25 L37.5 34.25 Q37.5 33.05 36.9 32.6 36.5 32.25 35.85 32.25 L35.7 32.25 Q21.25 25.55 5.0 28.8 M-192.55 68.2 L-167.9 68.2 Q-166.05 68.15 -166.05 66.2 L-166.05 34.2 Q-166.05 32.2 -168.05 32.2 -174.6 29.85 -180.95 28.75 -198.95 25.5 -215.0 32.2 L-215.1 32.2 Q-215.95 32.25 -216.4 32.6 -217.0 33.1 -217.0 34.2 L-217.0 66.2 Q-217.0 68.2 -215.0 68.2 L-192.55 68.2" fill="url(#gradient2)" fill-rule="evenodd" stroke="none"/>
    <path d="M89.95 222.15 L94.95 222.15 Q96.95 222.15 96.95 224.15 L96.95 253.75 -302.0 253.75 -302.0 224.15 Q-302.0 222.15 -300.0 222.15 L-294.0 222.15 89.95 222.15 M96.95 257.9 L96.95 258.05 96.95 258.55 96.55 258.55 96.95 257.9 M-301.95 258.55 L-302.0 258.55 -302.0 258.05 -302.0 257.9 -301.55 258.55 -301.95 258.55 -302.0 258.05 -301.95 258.55 M96.95 258.05 L96.95 258.55 96.95 258.05" fill="url(#gradient3)" fill-rule="evenodd" stroke="none"/>
    <path d="M96.95 253.75 L96.95 257.9 96.55 258.55 94.95 261.05 -300.0 261.05 -301.55 258.55 -302.0 257.9 -302.0 253.75 96.95 253.75" fill="url(#gradient4)" fill-rule="evenodd" stroke="none"/>
    <path d="M-119.55 -218.4 Q-118.4 -223.45 -114.5 -227.35 -110.9 -230.9 -106.4 -232.15 L-101.05 -232.9 -95.85 -232.2 Q-91.25 -230.95 -87.65 -227.35 -83.75 -223.45 -82.55 -218.4 M96.95 257.9 L96.95 258.05 96.95 258.55 Q96.7 261.05 94.95 261.05 L-300.0 261.05 Q-301.75 261.05 -301.95 258.55 L-302.0 258.05 M-302.0 257.9 L-302.0 253.75 M-294.0 222.15 L-270.0 -115.8 M15.45 68.25 L-6.75 68.25 Q-8.45 68.2 -8.45 66.25 L-8.45 34.25 Q-8.5 32.25 -6.65 32.25 -0.75 29.9 5.0 28.8 21.25 25.55 35.7 32.25 M35.85 32.25 Q36.5 32.25 36.9 32.6 37.5 33.05 37.5 34.25 L37.5 66.25 Q37.5 68.25 35.7 68.25 L15.45 68.25 Q17.15 68.2 17.15 66.25 L17.15 34.25 16.95 33.15 Q16.55 32.25 15.35 32.25 10.25 29.9 5.0 28.8 M-180.95 28.75 Q-186.8 29.85 -192.45 32.2 -193.3 32.2 -193.75 32.55 L-194.0 32.8 -194.15 33.0 -194.45 34.2 -194.45 66.2 Q-194.45 68.15 -192.55 68.2 L-167.9 68.2 Q-166.05 68.15 -166.05 66.2 L-166.05 34.2 Q-166.05 32.2 -168.05 32.2 -174.6 29.85 -180.95 28.75 -198.95 25.5 -215.0 32.2 M-215.0 32.65 L-194.15 33.0 M-215.0 32.65 L-216.4 32.6 Q-217.0 33.1 -217.0 34.2 L-217.0 66.2 Q-217.0 68.2 -215.0 68.2 L-192.55 68.2 M-216.4 32.6 Q-215.95 32.25 -215.1 32.2 M16.95 33.15 L36.5 33.15" fill="none" stroke="#000000" stroke-linecap="round" stroke-linejoin="round" stroke-width="0.05"/>
    <path d="M-116.95 -213.15 L-123.1 -213.15 -123.1 -218.4 -119.55 -218.4 M-106.4 -232.15 L-106.4 -244.35 -95.85 -244.35 -95.85 -232.2 M-82.55 -218.4 L-79.6 -218.4 -79.6 -213.15 -85.3 -213.15 -85.3 -194.25 -82.25 -194.25 -82.25 -160.4 -58.95 -160.4 -58.95 -150.75 -65.1 -150.75 -65.1 -115.8 65.95 -115.8 89.95 222.15 94.95 222.15 Q96.95 222.15 96.95 224.15 L96.95 253.75 M96.95 258.05 L96.95 258.55 M-302.0 258.55 L-302.0 258.05 -302.0 257.9 M-302.0 253.75 L-302.0 224.15 Q-302.0 222.15 -300.0 222.15 L-294.0 222.15 89.95 222.15 M-270.0 -115.8 L-137.15 -115.8 -137.15 -150.75 -142.4 -150.75 -142.4 -160.4 -120.45 -160.4 -120.45 -194.25 -116.95 -194.25 -116.95 -213.15 -85.3 -213.15 M-116.95 -194.25 L-85.3 -194.25 M-137.15 -115.8 L-65.1 -115.8 M35.7 32.25 L35.85 32.25 M-215.1 32.2 L-215.0 32.2" fill="none" stroke="#000000" stroke-linecap="round" stroke-linejoin="round" stroke-width="0.05"/>
    <path d="M-119.55 -218.4 L-82.55 -218.4 M-120.45 -160.4 L-82.25 -160.4 M-65.1 -150.75 L-137.15 -150.75" fill="none" stroke="#543623" stroke-linecap="round" stroke-linejoin="round" stroke-width="0.05"/>
    <path d="M-254.05 -144.8 Q-228.95 -135.25 -201.9 -142.55 L-201.6 -142.65 -201.05 -142.8 M-101.0 -143.95 Q-77.4 -134.45 -51.4 -143.1 -27.8 -133.6 -1.8 -142.25 M-152.0 -143.8 Q-128.4 -134.3 -102.4 -142.95 M-201.6 -143.65 Q-178.0 -134.15 -152.0 -142.8 M-0.85 -142.25 Q22.75 -132.75 48.75 -141.4" fill="none" stroke="#000000" stroke-linecap="round" stroke-linejoin="round" stroke-width="1.5"/>
  </g>
  <defs>
    <linearGradient gradientTransform="matrix(0.044, 0.0, 0.0, 0.0213, -101.15, -133.3)" gradientUnits="userSpaceOnUse" id="gradient0" spreadMethod="pad" x1="-819.2" x2="819.2">
      <stop offset="0.0" stop-color="#98613d"/>
      <stop offset="0.12549019607843137" stop-color="#98613d"/>
      <stop offset="0.4745098039215686" stop-color="#ce9964"/>
      <stop offset="0.9137254901960784" stop-color="#ffd592"/>
    </linearGradient>
    <linearGradient gradientTransform="matrix(0.0193, 0.0, 0.0, 0.0115, -101.15, -203.7)" gradientUnits="userSpaceOnUse" id="gradient1" spreadMethod="pad" x1="-819.2" x2="819.2">
      <stop offset="0.23529411764705882" stop-color="#89c5fe"/>
      <stop offset="0.7215686274509804" stop-color="#ffffff"/>
    </linearGradient>
    <linearGradient gradientTransform="matrix(0.2343, 0.0, 0.0, 0.2063, -102.05, 53.15)" gradientUnits="userSpaceOnUse" id="gradient2" spreadMethod="pad" x1="-819.2" x2="819.2">
      <stop offset="0.0" stop-color="#98613d"/>
      <stop offset="0.12549019607843137" stop-color="#98613d"/>
      <stop offset="0.4745098039215686" stop-color="#ce9964"/>
      <stop offset="0.9137254901960784" stop-color="#ffd592"/>
    </linearGradient>
    <linearGradient gradientTransform="matrix(0.2435, 0.0, 0.0, 0.025, -102.55, 242.65)" gradientUnits="userSpaceOnUse" id="gradient3" spreadMethod="pad" x1="-819.2" x2="819.2">
      <stop offset="0.0" stop-color="#5a3925"/>
      <stop offset="0.12549019607843137" stop-color="#5a3925"/>
      <stop offset="0.4745098039215686" stop-color="#8d5c2e"/>
      <stop offset="0.9137254901960784" stop-color="#c89159"/>
    </linearGradient>
    <linearGradient gradientTransform="matrix(0.2435, 0.0, 0.0, 0.0396, -102.55, 228.55)" gradientUnits="userSpaceOnUse" id="gradient4" spreadMethod="pad" x1="-819.2" x2="819.2">
      <stop offset="0.0" stop-color="#5a3925"/>
      <stop offset="0.12549019607843137" stop-color="#5a3925"/>
      <stop offset="0.4745098039215686" stop-color="#8d5c2e"/>
      <stop offset="0.9137254901960784" stop-color="#c89159"/>
    </linearGradient>
  </defs>
</svg>
