<?xml version="1.0" encoding="UTF-8" standalone="no"?>
<svg xmlns:ffdec="https://www.free-decompiler.com/flash" xmlns:xlink="http://www.w3.org/1999/xlink" ffdec:objectType="shape" height="414.9px" width="399.2px" xmlns="http://www.w3.org/2000/svg">
  <g transform="matrix(1.0, 0.0, 0.0, 1.0, 302.0, 115.8)">
    <path d="M16.95 33.15 L17.15 34.25 17.15 66.25 Q17.15 68.2 15.45 68.25 L-6.75 68.25 Q-8.45 68.2 -8.45 66.25 L-8.45 34.25 Q-8.5 32.25 -6.65 32.25 -0.75 29.9 5.0 28.8 10.25 29.9 15.35 32.25 16.55 32.25 16.95 33.15 M-193.6 33.0 L-194.05 32.85 -194.0 32.8 -193.95 32.75 -193.9 32.7 Q-186.75 29.85 -180.95 28.75 -174.6 29.85 -168.05 32.2 -166.05 32.2 -166.05 34.2 L-166.05 66.2 Q-166.05 68.15 -167.9 68.2 L-192.55 68.2 -194.45 67.3 -194.45 34.2 Q-194.45 33.45 -193.6 33.0" fill="#000000" fill-rule="evenodd" stroke="none"/>
    <path d="M-193.6 33.0 Q-194.45 33.45 -194.45 34.2 L-194.45 67.3 Q-194.45 68.15 -192.55 68.2 L-215.0 68.2 -217.0 66.2 -217.0 34.2 Q-217.0 33.1 -216.4 32.6 L-215.0 32.65 -193.6 33.0" fill="#73492f" fill-rule="evenodd" stroke="none"/>
    <path d="M17.15 34.25 L16.95 33.15 36.5 33.15 37.5 34.25 37.5 66.25 Q37.5 68.25 35.7 68.25 L15.45 68.25 Q17.15 68.2 17.15 66.25 L17.15 34.25" fill="#a96c45" fill-rule="evenodd" stroke="none"/>
    <path d="M-270.0 -115.8 L65.95 -115.8 89.95 222.15 -294.0 222.15 -270.0 -115.8 M5.0 28.8 Q-0.75 29.9 -6.65 32.25 -8.5 32.25 -8.45 34.25 L-8.45 66.25 Q-8.45 68.2 -6.75 68.25 L15.45 68.25 35.7 68.25 Q37.5 68.25 37.5 66.25 L37.5 34.25 Q37.5 33.05 36.9 32.6 36.5 32.25 35.85 32.25 L35.7 32.25 Q21.25 25.55 5.0 28.8 M-192.55 68.2 L-167.9 68.2 Q-166.05 68.15 -166.05 66.2 L-166.05 34.2 Q-166.05 32.2 -168.05 32.2 -174.6 29.85 -180.95 28.75 -198.95 25.5 -215.0 32.2 L-215.1 32.2 Q-215.95 32.25 -216.4 32.6 -217.0 33.1 -217.0 34.2 L-217.0 66.2 Q-217.0 68.2 -215.0 68.2 L-192.55 68.2" fill="url(#gradient0)" fill-rule="evenodd" stroke="none"/>
    <path d="M89.95 222.15 L94.95 222.15 Q96.95 222.15 96.95 224.15 L96.95 246.65 96.95 257.9 97.2 299.1 -300.65 299.1 Q-301.25 284.45 -301.55 299.1 L-301.95 299.1 -301.95 253.75 -302.0 224.15 Q-302.0 222.15 -300.0 222.15 L-294.0 222.15 89.95 222.15" fill="url(#gradient1)" fill-rule="evenodd" stroke="none"/>
    <path d="M-193.9 32.7 L-193.95 32.75 -194.0 32.8 -194.05 32.85 -193.6 33.0 -215.0 32.65 -215.0 32.2 Q-198.95 25.5 -180.95 28.75 -186.75 29.85 -193.9 32.7 M-194.05 32.85 L-193.95 32.75 -194.05 32.85" fill="#543623" fill-rule="evenodd" stroke="none"/>
    <path d="M16.95 33.15 Q16.55 32.25 15.35 32.25 10.25 29.9 5.0 28.8 21.25 25.55 35.7 32.25 L35.85 32.25 Q36.5 32.25 36.9 32.6 37.5 33.05 37.5 34.25 L36.5 33.15 16.95 33.15" fill="#482e1e" fill-rule="evenodd" stroke="none"/>
    <path d="M96.95 246.65 L96.95 257.9 97.2 299.1 M-300.65 299.1 Q-301.25 284.45 -301.55 299.1 M-301.95 299.1 L-301.95 253.75 M-294.0 222.15 L-270.0 -115.8 M17.15 34.25 L16.95 33.15 M-193.9 32.7 L-193.95 32.75 -194.0 32.8 -194.05 32.85 -193.6 33.0 Q-194.45 33.45 -194.45 34.2 M-193.95 32.75 L-194.05 32.85" fill="none" stroke="#000000" stroke-linecap="round" stroke-linejoin="round" stroke-width="0.05"/>
    <path d="M-270.0 -115.8 L65.95 -115.8 89.95 222.15 94.95 222.15 Q96.95 222.15 96.95 224.15 L96.95 246.65 M-301.95 253.75 L-302.0 224.15 Q-302.0 222.15 -300.0 222.15 L-294.0 222.15 M35.85 32.25 L35.7 32.25 M-215.1 32.2 L-215.0 32.2" fill="none" stroke="#000000" stroke-linecap="round" stroke-linejoin="round" stroke-width="0.05"/>
    <path d="M5.0 28.8 Q-0.75 29.9 -6.65 32.25 -8.5 32.25 -8.45 34.25 L-8.45 66.25 Q-8.45 68.2 -6.75 68.25 L15.45 68.25 35.7 68.25 Q37.5 68.25 37.5 66.25 L37.5 34.25 Q37.5 33.05 36.9 32.6 36.5 32.25 35.85 32.25 M35.7 32.25 Q21.25 25.55 5.0 28.8" fill="none" stroke="#3c261a" stroke-linecap="round" stroke-linejoin="round" stroke-width="0.05"/>
    <path d="M-192.55 68.2 L-167.9 68.2 Q-166.05 68.15 -166.05 66.2 L-166.05 34.2 Q-166.05 32.2 -168.05 32.2 -174.6 29.85 -180.95 28.75 -198.95 25.5 -215.0 32.2 M-216.4 32.6 Q-217.0 33.1 -217.0 34.2 L-217.0 66.2 Q-217.0 68.2 -215.0 68.2 L-192.55 68.2" fill="none" stroke="#301f14" stroke-linecap="round" stroke-linejoin="round" stroke-width="0.05"/>
    <path d="M89.95 222.15 L-294.0 222.15" fill="none" stroke="#472f1f" stroke-linecap="round" stroke-linejoin="round" stroke-width="0.05"/>
    <path d="M-173.05 -22.8 L-151.55 -22.8 -133.9 -22.8 Q-132.1 -22.85 -132.05 -24.75 L-132.05 -36.85 Q-132.1 -38.8 -134.05 -38.8 L-173.05 -38.8 Q-175.05 -38.8 -175.05 -36.8 L-175.05 -24.8 Q-175.05 -22.8 -173.05 -22.8 M-132.05 -24.75 Q-132.0 -22.85 -130.15 -22.8 L-112.3 -22.8 -91.05 -22.8 Q-89.05 -22.8 -89.05 -24.8 L-89.05 -36.8 Q-89.05 -38.8 -91.05 -38.8 L-130.05 -38.8 Q-132.0 -38.8 -132.05 -36.85 M-151.55 -22.8 Q-153.45 -22.75 -153.45 -20.8 L-153.45 -8.8 Q-153.45 -6.8 -151.45 -6.8 L-112.45 -6.8 Q-110.45 -6.8 -110.45 -8.8 L-110.45 -20.8 Q-110.45 -22.75 -112.3 -22.8 M-130.15 -22.8 L-133.9 -22.8 M-8.1 168.15 L11.85 168.15 27.35 168.15 Q29.1 168.1 29.05 166.15 L28.8 154.15 Q28.75 152.85 28.0 152.4 L12.25 152.4 11.15 152.15 -8.45 152.15 Q-10.3 152.15 -10.25 154.15 L-10.0 166.15 Q-9.95 168.15 -8.1 168.15 M-249.85 117.15 L-232.65 117.15 -217.1 117.15 Q-215.5 117.1 -215.45 115.2 L-215.45 103.1 Q-215.5 101.15 -217.15 101.15 L-249.85 101.15 Q-251.55 101.15 -251.5 103.15 L-251.5 115.15 Q-251.55 117.15 -249.85 117.15 M-232.65 117.15 Q-234.3 117.2 -234.25 119.15 L-234.25 131.15 Q-234.3 133.15 -232.6 133.15 L-199.9 133.15 Q-198.2 133.15 -198.2 131.15 L-198.2 119.15 Q-198.2 117.2 -199.85 117.15 L-213.85 117.15 -217.1 117.15 M-199.85 117.15 L-181.1 117.15 Q-179.4 117.15 -179.4 115.15 L-179.4 103.15 Q-179.4 101.15 -181.1 101.15 L-213.8 101.15 Q-215.45 101.15 -215.45 103.1 M-215.45 115.2 Q-215.45 117.1 -213.85 117.15 M47.3 136.4 L11.9 136.4 Q10.05 136.4 10.1 138.4 L10.35 150.4 Q10.4 151.7 11.15 152.15 L26.95 152.15 28.0 152.4 47.65 152.4 Q49.45 152.4 49.4 150.4 L49.15 138.4 Q49.1 136.4 47.3 136.4 M11.85 168.15 Q10.05 168.2 10.1 170.15 L10.35 182.15 Q10.4 184.15 12.25 184.15 L47.65 184.15 Q49.45 184.15 49.4 182.15 L49.15 170.15 Q49.1 168.15 47.3 168.15 L27.35 168.15" fill="none" stroke="#543623" stroke-linecap="round" stroke-linejoin="round" stroke-width="0.05"/>
  </g>
  <defs>
    <linearGradient gradientTransform="matrix(0.2343, 0.0, 0.0, 0.2063, -102.05, 53.15)" gradientUnits="userSpaceOnUse" id="gradient0" spreadMethod="pad" x1="-819.2" x2="819.2">
      <stop offset="0.0" stop-color="#835638"/>
      <stop offset="0.1411764705882353" stop-color="#835638"/>
      <stop offset="0.4745098039215686" stop-color="#ce9964"/>
      <stop offset="0.9137254901960784" stop-color="#ffd592"/>
    </linearGradient>
    <linearGradient gradientTransform="matrix(0.2435, 0.0, 0.0, 0.025, -102.55, 242.65)" gradientUnits="userSpaceOnUse" id="gradient1" spreadMethod="pad" x1="-819.2" x2="819.2">
      <stop offset="0.0" stop-color="#3d2318"/>
      <stop offset="0.0392156862745098" stop-color="#3d2318"/>
      <stop offset="0.1411764705882353" stop-color="#3d2318"/>
      <stop offset="0.4745098039215686" stop-color="#6c4824"/>
      <stop offset="0.9137254901960784" stop-color="#b97b3e"/>
    </linearGradient>
  </defs>
</svg>
