<?xml version="1.0" encoding="UTF-8" standalone="no"?>
<svg xmlns:ffdec="https://www.free-decompiler.com/flash" xmlns:xlink="http://www.w3.org/1999/xlink" ffdec:objectType="shape" height="178.6px" width="42.3px" xmlns="http://www.w3.org/2000/svg">
  <g transform="matrix(1.0, 0.0, 0.0, 1.0, 21.5, 88.8)">
    <path d="M-1.55 -82.55 Q-2.1 -82.8 -2.5 -83.2 -3.45 -84.15 -3.45 -85.5 -3.45 -86.9 -2.5 -87.85 -1.55 -88.8 -0.15 -88.8 1.2 -88.8 2.15 -87.85 3.1 -86.9 3.15 -85.5 3.1 -84.15 2.15 -83.2 L1.25 -82.55 Q0.6 -82.25 -0.15 -82.25 L-1.55 -82.55" fill="#6b6c9c" fill-rule="evenodd" stroke="none"/>
    <path d="M1.25 -82.55 L9.25 -78.45 7.35 -78.45 7.35 -73.95 7.1 -73.95 20.8 -68.05 14.45 -68.45 11.55 -68.05 11.5 -68.55 14.45 -68.45 11.5 -68.55 7.1 -68.55 -0.35 -69.4 -11.85 -69.4 -11.85 -69.35 -11.0 -68.7 -11.95 -68.7 -21.5 -68.7 -5.6 -73.95 -6.05 -73.95 -6.05 -78.45 -6.2 -78.45 -8.8 -78.45 -1.55 -82.55 -0.15 -82.25 Q0.6 -82.25 1.25 -82.55 M7.35 -78.45 L-6.05 -78.45 7.35 -78.45 M-5.6 -73.95 L7.1 -73.95 -5.6 -73.95" fill="#8a8bb0" fill-rule="evenodd" stroke="none"/>
    <path d="M15.0 -42.1 L15.05 -42.0 14.15 -42.0 14.65 -42.05 15.0 -42.1" fill="url(#gradient0)" fill-rule="evenodd" stroke="none"/>
    <path d="M11.35 -68.05 L11.5 -68.55 11.55 -68.05 11.35 -68.05 M14.65 -42.05 L14.15 -42.0 13.6 -42.0 11.15 -42.0 14.65 -42.05 M-0.35 -68.55 L-0.35 -69.4 7.1 -68.55 -0.35 -68.55" fill="#666666" fill-rule="evenodd" stroke="none"/>
    <path d="M-0.35 -69.4 L-0.35 -68.55 -12.0 -68.6 -11.95 -68.7 -11.0 -68.7 -11.85 -69.35 -11.85 -69.4 -0.35 -69.4" fill="#919191" fill-rule="evenodd" stroke="none"/>
    <path d="M0.65 -25.05 L0.75 26.3 Q1.8 26.55 2.65 27.4 3.85 28.6 3.85 30.35 3.85 32.05 2.65 33.3 1.8 34.1 0.75 34.35 L0.8 88.8 -1.5 88.8 -1.5 34.3 Q-2.45 34.0 -3.2 33.3 -4.45 32.05 -4.4 30.35 -4.45 28.6 -3.2 27.4 -2.45 26.65 -1.5 26.4 L-1.5 -24.5 -1.35 -24.75 -0.4 -24.9 -0.35 -24.9 0.65 -25.05" fill="#373a51" fill-rule="evenodd" stroke="none"/>
    <path d="M11.55 -68.05 L15.0 -42.1 14.65 -42.05 11.15 -42.0 -0.35 -42.0 -16.15 -42.0 -12.0 -68.6 -0.35 -68.55 7.1 -68.55 11.35 -68.05 11.55 -68.05 M-0.35 -42.0 L-0.35 -68.55 -0.35 -42.0" fill="url(#gradient1)" fill-rule="evenodd" stroke="none"/>
    <path d="M15.0 -42.1 L15.05 -42.0 14.15 -42.0 15.0 -41.9 15.8 -41.75 M13.6 -42.0 L12.05 -41.75 M-13.25 -41.75 L-14.6 -41.8 -15.2 -41.75 M-0.35 -42.0 L-0.35 -41.75 M1.25 -82.55 Q0.6 -82.25 -0.15 -82.25 L-1.55 -82.55" fill="none" stroke="#8a8bb0" stroke-linecap="round" stroke-linejoin="round" stroke-width="2.0"/>
    <path d="M11.5 -68.55 L14.45 -68.45 M-12.0 -68.6 L-0.35 -68.55" fill="none" stroke="#333333" stroke-linecap="round" stroke-linejoin="round" stroke-width="0.05"/>
    <path d="M15.8 -41.75 L17.2 -41.2 18.6 -40.1 Q20.3 -37.85 18.65 -35.7 17.55 -34.3 15.5 -34.05 14.0 -34.0 12.95 -35.1 L12.9 -35.35 Q12.4 -36.95 13.35 -38.4 M12.05 -41.75 Q10.4 -41.3 8.9 -39.9 6.3 -37.65 4.55 -34.75 1.75 -30.3 0.65 -25.05 L0.75 26.3 Q1.8 26.55 2.65 27.4 3.85 28.6 3.85 30.35 3.85 32.05 2.65 33.3 1.8 34.1 0.75 34.35 L0.8 88.8 -1.5 88.8 -1.5 34.3 Q-2.45 34.0 -3.2 33.3 -4.45 32.05 -4.4 30.35 -4.45 28.6 -3.2 27.4 -2.45 26.65 -1.5 26.4 L-1.5 -24.5 -1.5 -24.75 -1.35 -24.75 -1.35 -24.8 Q-2.15 -30.1 -4.95 -34.6 -6.75 -37.45 -9.3 -39.7 -11.2 -41.4 -13.25 -41.75 M-15.2 -41.75 L-16.0 -41.6 -17.6 -41.05 -19.0 -39.95 Q-20.7 -37.7 -19.05 -35.5 -17.95 -34.15 -16.2 -33.9 -14.4 -33.85 -13.35 -34.95 L-13.3 -35.15 Q-12.8 -36.75 -13.75 -38.25 M-0.35 -41.75 L-0.35 -24.9 0.65 -25.05 M-1.35 -24.75 L-0.4 -24.9 -0.35 -24.9 M-1.5 -24.5 L-1.35 -24.75" fill="none" stroke="#373a51" stroke-linecap="round" stroke-linejoin="round" stroke-width="2.0"/>
    <path d="M-1.55 -82.55 Q-2.1 -82.8 -2.5 -83.2 -3.45 -84.15 -3.45 -85.5 -3.45 -86.9 -2.5 -87.85 -1.55 -88.8 -0.15 -88.8 1.2 -88.8 2.15 -87.85 3.1 -86.9 3.15 -85.5 3.1 -84.15 2.15 -83.2 L1.25 -82.55 9.25 -78.45 7.35 -78.45 7.35 -73.95 7.1 -73.95 20.8 -68.05 14.45 -68.45 11.55 -68.05 15.0 -42.1 14.65 -42.05 11.15 -42.0 -0.35 -42.0 -16.15 -42.0 -12.0 -68.6 M11.35 -68.05 L11.55 -68.05 11.5 -68.55 7.1 -68.55 -0.35 -68.55 -0.35 -42.0 M-1.55 -82.55 L-8.8 -78.45 -6.2 -78.45 M-6.05 -78.45 L7.35 -78.45 M-11.95 -68.7 L-21.5 -68.7 -5.6 -73.95 -6.05 -73.95 -6.05 -78.45 M-11.0 -68.7 L-11.95 -68.7 M7.1 -73.95 L-5.6 -73.95" fill="none" stroke="#373a51" stroke-linecap="round" stroke-linejoin="round" stroke-width="0.05"/>
    <path d="M10.1 -42.15 L15.45 -42.15 M-11.05 -42.15 L-16.0 -42.15 M-2.2 -41.95 L2.7 -41.95" fill="none" stroke="#333333" stroke-linecap="round" stroke-linejoin="round" stroke-width="0.05"/>
  </g>
  <defs>
    <linearGradient color-interpolation="linearRGB" gradientTransform="matrix(0.0, 0.0167, -0.0096, 0.0, -8.25, -55.7)" gradientUnits="userSpaceOnUse" id="gradient0" spreadMethod="pad" x1="-819.2" x2="819.2">
      <stop offset="0.27058823529411763" stop-color="#000000" stop-opacity="0.3019608"/>
      <stop offset="0.6666666666666666" stop-color="#000000" stop-opacity="0.0"/>
    </linearGradient>
    <linearGradient color-interpolation="linearRGB" gradientTransform="matrix(0.0, -0.0162, 0.0094, 0.0, 7.3, -55.25)" gradientUnits="userSpaceOnUse" id="gradient1" spreadMethod="pad" x1="-819.2" x2="819.2">
      <stop offset="0.27058823529411763" stop-color="#d8ddf0"/>
      <stop offset="0.7137254901960784" stop-color="#a3b4dc"/>
    </linearGradient>
  </defs>
</svg>
