<?xml version="1.0" encoding="UTF-8" standalone="no"?>
<svg xmlns:ffdec="https://www.free-decompiler.com/flash" xmlns:xlink="http://www.w3.org/1999/xlink" ffdec:objectType="shape" height="18.0px" width="123.0px" xmlns="http://www.w3.org/2000/svg">
  <g transform="matrix(1.0, 0.0, 0.0, 1.0, -19.0, -14.0)">
    <path d="M134.7 14.0 L142.0 14.0 129.8 25.9 129.8 32.0 123.15 32.0 123.15 25.95 110.7 14.0 118.35 14.0 126.5 21.85 134.7 14.0 M90.8 23.75 L100.4 23.75 95.75 17.75 90.8 23.75 M100.6 14.0 L113.8 32.0 106.3 32.0 103.15 27.75 88.05 27.75 84.95 32.0 77.4 32.0 90.7 14.0 100.6 14.0 M57.65 14.0 L57.65 28.0 73.3 28.0 73.3 32.0 51.0 32.0 51.0 14.0 57.65 14.0 M45.75 21.05 Q45.7 24.2 43.6 25.5 41.55 26.8 36.6 26.8 L25.55 26.8 25.55 32.0 19.0 32.0 19.0 14.0 36.2 14.0 Q41.25 14.0 43.45 15.35 45.7 16.65 45.75 19.85 L45.75 21.05 M25.55 22.1 L36.5 22.1 38.55 21.75 Q39.1 21.45 39.1 20.55 L39.1 20.2 Q39.1 19.4 38.55 19.05 37.95 18.65 36.35 18.65 L25.55 18.65 25.55 22.1" fill="#996600" fill-rule="evenodd" stroke="none"/>
  </g>
</svg>
