<?xml version="1.0" encoding="UTF-8" standalone="no"?>
<svg xmlns:ffdec="https://www.free-decompiler.com/flash" xmlns:xlink="http://www.w3.org/1999/xlink" ffdec:objectType="shape" height="39.8px" width="85.8px" xmlns="http://www.w3.org/2000/svg">
  <g transform="matrix(1.0, 0.0, 0.0, 1.0, 267.2, 170.25)">
    <path d="M-200.45 -165.6 Q-199.95 -165.0 -200.0 -164.25 -200.05 -163.5 -200.65 -163.05 -201.2 -162.55 -201.9 -162.55 -202.7 -162.6 -203.2 -163.15 -203.65 -163.7 -203.6 -164.45 -203.55 -165.2 -203.0 -165.7 -202.45 -166.2 -201.7 -166.15 -200.95 -166.1 -200.45 -165.6" fill="#000000" fill-rule="evenodd" stroke="none"/>
    <path d="M-195.0 -161.1 L-183.95 -155.1 -199.35 -154.8 -201.95 -158.15 -195.1 -161.15 -195.0 -161.1" fill="#ff9933" fill-rule="evenodd" stroke="none"/>
    <path d="M-200.45 -165.6 Q-200.95 -166.1 -201.7 -166.15 -202.45 -166.2 -203.0 -165.7 -203.55 -165.2 -203.6 -164.45 -203.65 -163.7 -203.2 -163.15 -202.7 -162.6 -201.9 -162.55 -201.2 -162.55 -200.65 -163.05 -200.05 -163.5 -200.0 -164.25 -199.95 -165.0 -200.45 -165.6 M-261.4 -130.55 Q-256.5 -132.95 -252.45 -138.25 -249.7 -143.1 -249.3 -147.3 -249.0 -151.0 -244.1 -154.25 L-246.75 -154.7 -251.6 -155.0 -255.1 -154.45 Q-257.55 -153.95 -260.1 -152.8 -262.65 -151.65 -267.2 -150.45 -265.7 -157.05 -261.3 -159.85 -256.85 -162.7 -251.65 -161.55 L-241.75 -159.85 Q-237.0 -159.3 -228.25 -162.6 -219.7 -166.4 -211.05 -164.15 -210.5 -166.5 -208.55 -168.2 -206.05 -170.5 -202.65 -170.25 -199.25 -170.05 -197.0 -167.5 -194.75 -165.0 -194.95 -161.6 L-195.0 -161.25 -195.1 -161.15 -201.95 -158.15 -199.35 -154.8 -201.05 -154.15 -203.65 -153.9 -205.6 -154.25 Q-208.6 -151.95 -212.7 -149.85 L-214.1 -149.15 Q-218.2 -147.2 -222.5 -147.0 L-225.35 -145.1 -230.3 -141.85 Q-232.5 -140.45 -239.1 -137.1 -245.7 -133.8 -250.2 -132.8 L-261.4 -130.55 M-215.95 -161.35 Q-216.65 -160.85 -217.5 -160.45 -218.35 -160.05 -219.2 -158.95 -220.05 -157.9 -217.55 -157.1 -215.1 -156.3 -214.85 -154.5 -214.6 -152.7 -218.6 -149.8 L-222.5 -147.0 -218.6 -149.8 Q-214.6 -152.7 -214.85 -154.5 -215.1 -156.3 -217.55 -157.1 -220.05 -157.9 -219.2 -158.95 -218.35 -160.05 -217.5 -160.45 -216.65 -160.85 -215.95 -161.35 M-227.1 -161.15 Q-236.15 -158.9 -242.55 -155.2 L-244.1 -154.25 -242.55 -155.2 Q-236.15 -158.9 -227.1 -161.15" fill="#cccccc" fill-rule="evenodd" stroke="none"/>
    <path d="M-201.05 -154.15 Q-197.4 -150.8 -194.95 -150.2 L-188.7 -149.2 Q-185.15 -148.85 -181.4 -150.35 -183.55 -147.7 -187.7 -145.95 -191.85 -144.2 -197.3 -144.15 -202.7 -144.15 -206.7 -146.2 -210.55 -148.2 -212.7 -149.85 -208.6 -151.95 -205.6 -154.25 L-203.65 -153.9 -201.05 -154.15" fill="#aeaeae" fill-rule="evenodd" stroke="none"/>
    <path d="M-261.4 -130.55 Q-256.5 -132.95 -252.45 -138.25 -249.7 -143.1 -249.3 -147.3 -249.0 -151.0 -244.1 -154.25 L-246.75 -154.7 -251.6 -155.0 -255.1 -154.45 Q-257.55 -153.95 -260.1 -152.8 -262.65 -151.65 -267.2 -150.45 -265.7 -157.05 -261.3 -159.85 -256.85 -162.7 -251.65 -161.55 L-241.75 -159.85 Q-237.0 -159.3 -228.25 -162.6 -219.7 -166.4 -211.05 -164.15 -210.5 -166.5 -208.55 -168.2 -206.05 -170.5 -202.65 -170.25 -199.25 -170.05 -197.0 -167.5 -194.75 -165.0 -194.95 -161.6 L-195.0 -161.25 -195.0 -161.1 -183.95 -155.1 -199.35 -154.8 -201.05 -154.15 Q-197.4 -150.8 -194.95 -150.2 L-188.7 -149.2 Q-185.15 -148.85 -181.4 -150.35 -183.55 -147.7 -187.7 -145.95 -191.85 -144.2 -197.3 -144.15 -202.7 -144.15 -206.7 -146.2 -210.55 -148.2 -212.7 -149.85 L-214.1 -149.15 Q-218.2 -147.2 -222.5 -147.0 L-225.35 -145.1 -230.3 -141.85 Q-232.5 -140.45 -239.1 -137.1 -245.7 -133.8 -250.2 -132.8 L-261.4 -130.55 -261.95 -130.45 M-195.0 -161.25 L-195.1 -161.15 -195.0 -161.1 M-244.1 -154.25 L-242.55 -155.2 Q-236.15 -158.9 -227.1 -161.15 M-222.5 -147.0 L-218.6 -149.8 Q-214.6 -152.7 -214.85 -154.5 -215.1 -156.3 -217.55 -157.1 -220.05 -157.9 -219.2 -158.95 -218.35 -160.05 -217.5 -160.45 -216.65 -160.85 -215.95 -161.35 M-201.05 -154.15 L-203.65 -153.9 -205.6 -154.25 Q-208.6 -151.95 -212.7 -149.85" fill="none" stroke="#333333" stroke-linecap="round" stroke-linejoin="round" stroke-width="0.05"/>
  </g>
</svg>
