<?xml version="1.0" encoding="UTF-8" standalone="no"?>
<svg xmlns:ffdec="https://www.free-decompiler.com/flash" xmlns:xlink="http://www.w3.org/1999/xlink" ffdec:objectType="shape" height="59.95px" width="86.4px" xmlns="http://www.w3.org/2000/svg">
  <g transform="matrix(1.0, 0.0, 0.0, 1.0, 270.2, 202.8)">
    <path d="M-200.7 -162.3 Q-200.2 -161.75 -200.2 -161.0 -200.25 -160.25 -200.8 -159.75 -201.3 -159.25 -202.05 -159.25 -202.8 -159.25 -203.35 -159.8 -203.85 -160.3 -203.8 -161.05 -203.8 -161.8 -203.25 -162.35 -202.7 -162.85 -201.95 -162.8 -201.2 -162.8 -200.7 -162.3" fill="#000000" fill-rule="evenodd" stroke="none"/>
    <path d="M-199.2 -151.55 L-201.9 -154.85 -195.2 -158.1 -195.05 -158.05 -183.8 -152.5 -199.2 -151.55" fill="#ff9933" fill-rule="evenodd" stroke="none"/>
    <path d="M-200.7 -162.3 Q-201.2 -162.8 -201.95 -162.8 -202.7 -162.85 -203.25 -162.35 -203.8 -161.8 -203.8 -161.05 -203.85 -160.3 -203.35 -159.8 -202.8 -159.25 -202.05 -159.25 -201.3 -159.25 -200.8 -159.75 -200.25 -160.25 -200.2 -161.0 -200.2 -161.75 -200.7 -162.3 M-212.0 -160.6 L-211.25 -160.45 Q-210.8 -162.85 -208.9 -164.6 -206.5 -167.0 -203.1 -166.9 -199.7 -166.85 -197.35 -164.4 -195.0 -161.95 -195.05 -158.55 L-195.1 -158.2 -195.2 -158.1 -201.9 -154.85 -199.2 -151.55 Q-201.1 -150.5 -203.45 -150.55 L-205.4 -150.75 Q-208.2 -148.5 -212.0 -146.3 L-213.7 -145.35 Q-218.65 -142.75 -224.0 -142.85 -229.45 -142.95 -236.1 -146.25 -242.7 -149.55 -246.5 -149.6 L-251.4 -149.7 -254.85 -149.05 Q-257.3 -148.4 -259.8 -147.15 -262.3 -145.9 -266.8 -144.55 -265.6 -151.2 -261.25 -154.2 -257.05 -157.15 -251.95 -156.3 L-251.7 -156.25 -241.75 -154.95 Q-238.7 -154.75 -234.0 -156.15 L-230.65 -155.35 -227.1 -154.5 -230.65 -155.35 -234.0 -156.15 Q-241.95 -158.2 -249.5 -161.4 L-251.45 -162.25 Q-261.25 -166.7 -266.25 -176.15 -272.25 -187.45 -269.1 -199.7 -264.9 -195.75 -256.95 -190.6 -252.1 -187.5 -245.35 -184.25 L-245.2 -184.2 Q-241.05 -182.2 -236.1 -180.15 -223.2 -174.85 -219.55 -170.45 -216.0 -166.2 -217.4 -161.05 L-214.25 -160.95 -212.0 -160.6 M-218.3 -158.75 L-217.4 -161.05 -218.3 -158.75" fill="#cccccc" fill-rule="evenodd" stroke="none"/>
    <path d="M-214.25 -160.95 L-217.4 -161.05 Q-216.0 -166.2 -219.55 -170.45 -223.2 -174.85 -236.1 -180.15 -241.05 -182.2 -245.2 -184.2 L-245.35 -184.25 Q-244.4 -192.9 -242.9 -196.3 -241.4 -199.8 -238.7 -202.8 -237.2 -199.6 -230.35 -194.4 -223.5 -189.25 -220.15 -187.4 -217.0 -185.6 -212.0 -182.2 L-211.6 -181.95 Q-206.55 -177.0 -206.7 -174.15 -206.9 -171.35 -207.15 -170.55 -207.65 -169.1 -209.75 -167.0 -211.1 -165.95 -212.0 -165.25 L-213.0 -164.45 Q-214.6 -163.0 -214.25 -160.95" fill="#aeaeae" fill-rule="evenodd" stroke="none"/>
    <path d="M-195.2 -158.1 L-195.1 -158.2 -195.05 -158.55 Q-195.0 -161.95 -197.35 -164.4 -199.7 -166.85 -203.1 -166.9 -206.5 -167.0 -208.9 -164.6 -210.8 -162.85 -211.25 -160.45 L-212.0 -160.6 M-195.2 -158.1 L-195.05 -158.05 -195.1 -158.2 M-199.2 -151.55 L-183.8 -152.5 -195.05 -158.05 M-212.0 -165.25 Q-211.1 -165.95 -209.75 -167.0 -207.65 -169.1 -207.15 -170.55 -206.9 -171.35 -206.7 -174.15 -206.55 -177.0 -211.6 -181.95 L-212.0 -182.2 M-212.0 -146.3 Q-208.2 -148.5 -205.4 -150.75 L-203.45 -150.55 Q-201.1 -150.5 -199.2 -151.55" fill="none" stroke="#333333" stroke-linecap="round" stroke-linejoin="round" stroke-width="0.05"/>
    <path d="M-212.0 -160.6 L-214.25 -160.95 -217.4 -161.05 -218.3 -158.75 M-212.0 -182.2 Q-217.0 -185.6 -220.15 -187.4 -223.5 -189.25 -230.35 -194.4 -237.2 -199.6 -238.7 -202.8 -241.4 -199.8 -242.9 -196.3 -244.4 -192.9 -245.35 -184.25 L-245.2 -184.2 Q-241.05 -182.2 -236.1 -180.15 -223.2 -174.85 -219.55 -170.45 -216.0 -166.2 -217.4 -161.05 M-234.0 -156.15 Q-238.7 -154.75 -241.75 -154.95 L-251.7 -156.25 -251.95 -156.3 Q-257.05 -157.15 -261.25 -154.2 -265.6 -151.2 -266.8 -144.55 -262.3 -145.9 -259.8 -147.15 -257.3 -148.4 -254.85 -149.05 L-251.4 -149.7 -246.5 -149.6 Q-242.7 -149.55 -236.1 -146.25 -229.45 -142.95 -224.0 -142.85 -218.65 -142.75 -213.7 -145.35 L-212.0 -146.3 M-234.0 -156.15 L-230.65 -155.35 -227.1 -154.5 M-214.25 -160.95 Q-214.6 -163.0 -213.0 -164.45 L-212.0 -165.25 M-245.35 -184.25 Q-252.1 -187.5 -256.95 -190.6 -264.9 -195.75 -269.1 -199.7 -272.25 -187.45 -266.25 -176.15 -261.25 -166.7 -251.45 -162.25 L-249.5 -161.4 Q-241.95 -158.2 -234.0 -156.15" fill="none" stroke="#333333" stroke-linecap="round" stroke-linejoin="round" stroke-width="0.05"/>
  </g>
</svg>
