<?xml version="1.0" encoding="UTF-8" standalone="no"?>
<svg xmlns:ffdec="https://www.free-decompiler.com/flash" xmlns:xlink="http://www.w3.org/1999/xlink" ffdec:objectType="shape" height="39.85px" width="85.75px" xmlns="http://www.w3.org/2000/svg">
  <g transform="matrix(1.0, 0.0, 0.0, 1.0, 267.15, 170.3)">
    <path d="M-200.7 -163.1 Q-201.25 -162.55 -201.95 -162.6 -202.7 -162.65 -203.2 -163.2 -203.7 -163.75 -203.65 -164.5 -203.65 -165.25 -203.1 -165.75 -202.5 -166.25 -201.75 -166.2 -201.0 -166.15 -200.55 -165.6 -200.05 -165.05 -200.05 -164.3 -200.1 -163.55 -200.7 -163.1" fill="#000000" fill-rule="evenodd" stroke="none"/>
    <path d="M-195.0 -161.2 L-183.9 -155.3 -199.35 -154.85 -201.95 -158.2 -195.15 -161.25 -195.0 -161.2" fill="#ff9933" fill-rule="evenodd" stroke="none"/>
    <path d="M-200.7 -163.1 Q-200.1 -163.55 -200.05 -164.3 -200.05 -165.05 -200.55 -165.6 -201.0 -166.15 -201.75 -166.2 -202.5 -166.25 -203.1 -165.75 -203.65 -165.25 -203.65 -164.5 -203.7 -163.75 -203.2 -163.2 -202.7 -162.65 -201.95 -162.6 -201.25 -162.55 -200.7 -163.1 M-199.35 -154.85 Q-200.15 -154.4 -201.05 -154.15 L-203.6 -153.9 -205.6 -154.25 Q-208.55 -151.95 -212.6 -149.8 L-212.7 -149.75 -214.05 -149.1 Q-218.25 -147.05 -222.7 -146.9 L-225.35 -145.1 -230.3 -141.85 Q-232.5 -140.45 -239.1 -137.1 -245.7 -133.8 -250.2 -132.8 L-261.4 -130.55 Q-256.5 -132.95 -252.45 -138.25 -249.7 -143.1 -249.3 -147.3 -249.0 -150.85 -244.4 -154.0 L-246.7 -154.35 -251.6 -154.6 -255.05 -154.05 Q-257.5 -153.5 -260.05 -152.3 -262.6 -151.15 -267.15 -149.95 -265.75 -156.55 -261.3 -159.4 -256.9 -162.25 -251.7 -161.15 L-241.75 -159.55 Q-238.2 -159.15 -232.4 -161.0 -230.5 -161.6 -228.3 -162.45 -219.8 -166.3 -211.15 -164.15 -210.6 -166.5 -208.65 -168.2 -206.15 -170.5 -202.75 -170.3 -199.35 -170.1 -197.1 -167.6 -194.85 -165.05 -195.0 -161.65 L-195.0 -161.3 -195.15 -161.25 -201.95 -158.2 -199.35 -154.85 M-215.95 -161.35 Q-216.65 -160.85 -217.5 -160.45 -218.35 -160.05 -219.2 -158.95 -220.05 -157.9 -217.55 -157.1 -215.1 -156.3 -214.85 -154.5 -214.6 -152.7 -218.6 -149.8 L-222.7 -146.9 -218.6 -149.8 Q-214.6 -152.7 -214.85 -154.5 -215.1 -156.3 -217.55 -157.1 -220.05 -157.9 -219.2 -158.95 -218.35 -160.05 -217.5 -160.45 -216.65 -160.85 -215.95 -161.35 M-227.1 -161.15 L-232.0 -159.75 Q-237.95 -157.85 -242.55 -155.2 L-244.4 -154.0 -242.55 -155.2 Q-237.95 -157.85 -232.0 -159.75 L-227.1 -161.15" fill="#cccccc" fill-rule="evenodd" stroke="none"/>
    <path d="M-201.05 -154.15 Q-197.4 -150.8 -194.95 -150.2 L-188.7 -149.2 Q-185.15 -148.85 -181.4 -150.35 -183.65 -147.7 -187.95 -145.7 -192.25 -143.7 -197.45 -143.9 -202.7 -144.15 -206.7 -146.2 -210.5 -148.15 -212.6 -149.8 -208.55 -151.95 -205.6 -154.25 L-203.6 -153.9 -201.05 -154.15" fill="#aeaeae" fill-rule="evenodd" stroke="none"/>
    <path d="M-195.0 -161.3 L-195.0 -161.2 -183.9 -155.3 -199.35 -154.85 Q-200.15 -154.4 -201.05 -154.15 -197.4 -150.8 -194.95 -150.2 L-188.7 -149.2 Q-185.15 -148.85 -181.4 -150.35 -183.65 -147.7 -187.95 -145.7 -192.25 -143.7 -197.45 -143.9 -202.7 -144.15 -206.7 -146.2 -210.5 -148.15 -212.6 -149.8 L-212.7 -149.75 -214.05 -149.1 Q-218.25 -147.05 -222.7 -146.9 L-225.35 -145.1 -230.3 -141.85 Q-232.5 -140.45 -239.1 -137.1 -245.7 -133.8 -250.2 -132.8 L-261.4 -130.55 -261.95 -130.45 M-195.0 -161.2 L-195.15 -161.25 -195.0 -161.3 -195.0 -161.65 Q-194.85 -165.05 -197.1 -167.6 -199.35 -170.1 -202.75 -170.3 -206.15 -170.5 -208.65 -168.2 -210.6 -166.5 -211.15 -164.15 -219.8 -166.3 -228.3 -162.45 -230.5 -161.6 -232.4 -161.0 -238.2 -159.15 -241.75 -159.55 L-251.7 -161.15 Q-256.9 -162.25 -261.3 -159.4 -265.75 -156.55 -267.15 -149.95 -262.6 -151.15 -260.05 -152.3 -257.5 -153.5 -255.05 -154.05 L-251.6 -154.6 -246.7 -154.35 -244.4 -154.0 -242.55 -155.2 Q-237.95 -157.85 -232.0 -159.75 L-227.1 -161.15 M-222.7 -146.9 L-218.6 -149.8 Q-214.6 -152.7 -214.85 -154.5 -215.1 -156.3 -217.55 -157.1 -220.05 -157.9 -219.2 -158.95 -218.35 -160.05 -217.5 -160.45 -216.65 -160.85 -215.95 -161.35 M-201.05 -154.15 L-203.6 -153.9 -205.6 -154.25 Q-208.55 -151.95 -212.6 -149.8 M-244.4 -154.0 Q-249.0 -150.85 -249.3 -147.3 -249.7 -143.1 -252.45 -138.25 -256.5 -132.95 -261.4 -130.55" fill="none" stroke="#333333" stroke-linecap="round" stroke-linejoin="round" stroke-width="0.05"/>
  </g>
</svg>
