<?xml version="1.0" encoding="UTF-8" standalone="no"?>
<svg xmlns:ffdec="https://www.free-decompiler.com/flash" xmlns:xlink="http://www.w3.org/1999/xlink" ffdec:objectType="shape" height="256.0px" width="184.0px" xmlns="http://www.w3.org/2000/svg">
  <g transform="matrix(1.0, 0.0, 0.0, 1.0, 2.0, 2.0)">
    <path d="M175.0 0.0 Q179.95 0.0 180.0 5.0 L180.0 175.0 Q179.95 179.9 175.15 180.0 L4.85 180.0 Q0.0 179.9 0.0 175.0 L0.0 5.0 Q0.0 0.0 5.0 0.0 L175.0 0.0 M175.15 186.0 Q179.95 186.05 180.0 191.0 L180.0 247.0 Q179.95 252.0 175.0 252.0 L5.0 252.0 Q0.0 252.0 0.0 247.0 L0.0 191.0 Q0.0 186.05 4.85 186.0 L175.15 186.0 M168.5 196.0 L11.5 196.0 Q10.85 196.0 10.45 196.45 10.0 196.9 10.0 197.5 L10.0 240.5 Q10.0 241.1 10.45 241.55 10.85 242.0 11.5 242.0 L168.5 242.0 Q169.1 242.0 169.55 241.55 170.0 241.1 170.0 240.5 L170.0 197.5 Q170.0 196.9 169.55 196.45 169.1 196.0 168.5 196.0" fill="#000000" fill-rule="evenodd" stroke="none"/>
    <path d="M175.0 0.0 L5.0 0.0 Q0.0 0.0 0.0 5.0 L0.0 175.0 Q0.0 179.9 4.85 180.0 L175.15 180.0 Q179.95 179.9 180.0 175.0 L180.0 5.0 Q179.95 0.0 175.0 0.0" fill="none" stroke="#000000" stroke-linecap="round" stroke-linejoin="round" stroke-opacity="0.5019608" stroke-width="4.0"/>
    <path d="M175.15 186.0 L4.85 186.0 Q0.0 186.05 0.0 191.0 L0.0 247.0 Q0.0 252.0 5.0 252.0 L175.0 252.0 Q179.95 252.0 180.0 247.0 L180.0 191.0 Q179.95 186.05 175.15 186.0 M168.5 196.0 L11.5 196.0 Q10.85 196.0 10.45 196.45 10.0 196.9 10.0 197.5 L10.0 240.5 Q10.0 241.1 10.45 241.55 10.85 242.0 11.5 242.0 L168.5 242.0 Q169.1 242.0 169.55 241.55 170.0 241.1 170.0 240.5 L170.0 197.5 Q170.0 196.9 169.55 196.45 169.1 196.0 168.5 196.0 Z" fill="none" stroke="#000000" stroke-linecap="round" stroke-linejoin="round" stroke-opacity="0.5019608" stroke-width="4.0"/>
  </g>
</svg>
