<?xml version="1.0" encoding="UTF-8" standalone="no"?>
<svg xmlns:ffdec="https://www.free-decompiler.com/flash" xmlns:xlink="http://www.w3.org/1999/xlink" ffdec:objectType="shape" height="163.7px" width="447.0px" xmlns="http://www.w3.org/2000/svg">
  <g transform="matrix(1.0, 0.0, 0.0, 1.0, 223.5, 81.85)">
    <path d="M41.45 -80.85 L49.0 -80.85 40.25 -52.2 27.6 -52.2 41.45 -80.85" fill="#c4c4c4" fill-rule="evenodd" stroke="none"/>
    <path d="M-66.9 21.4 Q-50.4 10.5 -32.15 -7.85 -11.1 -30.55 13.15 -51.45 L24.9 -54.65 38.75 -80.85 41.45 -80.85 27.6 -52.2 27.45 -52.2 27.4 -52.15 14.05 -48.6 Q-0.85 -36.55 -16.7 -19.1 L-42.0 6.2 -42.0 6.45 Q-53.15 16.65 -64.55 24.05 -78.25 32.9 -92.3 37.65 -92.15 37.6 -92.3 37.55 -94.2 35.9 -92.9 34.25 -82.0 30.85 -70.2 23.55 L-66.9 21.4" fill="#fdf8ef" fill-rule="evenodd" stroke="none"/>
    <path d="M27.4 -52.15 L27.45 -52.2 27.6 -52.2 27.4 -52.15" fill="#514f4d" fill-rule="evenodd" stroke="none"/>
    <path d="M40.25 -52.2 Q29.35 -44.2 26.1 -38.65 L-4.35 6.8 Q-15.2 20.4 -27.7 28.8 -37.8 35.5 -49.0 38.9 L-49.45 39.05 Q-76.45 41.2 -92.3 37.65 -78.25 32.9 -64.55 24.05 -53.15 16.65 -42.0 6.45 L-42.0 6.2 -16.7 -19.1 Q-0.85 -36.55 14.05 -48.6 L27.4 -52.15 27.6 -52.2 40.25 -52.2" fill="#999999" fill-rule="evenodd" stroke="none"/>
    <path d="M-27.7 28.8 Q15.8 33.35 139.95 38.0 L181.85 -33.25 173.7 -36.6 222.5 -36.6 222.5 -36.25 216.8 47.0 191.2 48.2 Q128.55 50.9 68.55 51.25 12.85 51.8 -38.85 56.75 L-69.55 60.25 -70.35 56.55 Q-89.8 60.95 -106.8 61.95 L-107.15 66.6 Q-141.35 70.65 -169.9 67.8 -199.1 64.9 -211.55 61.8 -224.05 58.7 -222.25 54.15 -220.7 50.15 -197.25 40.85 -190.6 38.2 -183.8 35.95 L-181.7 38.35 -174.9 46.0 -148.35 42.85 -148.35 46.55 -100.35 46.55 -100.35 26.35 -98.7 22.5 -98.7 22.45 -70.2 23.55 Q-82.0 30.85 -92.9 34.25 -94.2 35.9 -92.3 37.55 -92.15 37.6 -92.3 37.65 -76.45 41.2 -49.45 39.05 L-49.0 38.9 Q-37.8 35.5 -27.7 28.8 M184.9 -33.55 L209.9 -34.4 212.6 -34.5 222.5 -36.25 212.6 -34.5 209.9 -34.4 191.2 48.2 209.9 -34.4 184.9 -33.55 M48.25 38.1 L47.1 37.8 Q46.0 37.8 45.3 38.65 44.75 39.35 44.75 40.25 44.75 41.5 45.9 42.25 45.2 42.45 44.8 43.05 44.4 43.65 44.4 44.5 44.4 45.8 45.15 46.65 45.9 47.55 47.05 47.55 48.1 47.55 48.8 46.8 49.5 46.05 49.6 44.85 L48.15 44.65 47.75 45.7 Q47.45 46.05 47.05 46.05 46.6 46.05 46.25 45.6 45.95 45.2 45.95 44.45 45.95 43.75 46.25 43.35 46.55 42.95 47.0 42.95 L47.65 43.1 47.5 41.6 Q46.9 41.6 46.6 41.25 46.25 40.9 46.25 40.35 46.25 39.85 46.5 39.6 46.75 39.3 47.1 39.3 47.5 39.3 47.75 39.6 L48.1 40.55 49.5 40.3 49.05 38.9 48.25 38.1 M43.75 43.85 L40.35 37.8 39.1 37.8 39.1 43.85 38.15 43.85 38.15 45.45 39.1 45.45 39.1 47.4 40.55 47.4 40.55 45.45 43.75 45.45 43.75 43.85 M40.55 43.85 L40.55 40.6 42.35 43.85 40.55 43.85 M50.05 44.85 L53.0 44.85 53.0 43.0 50.05 43.0 50.05 44.85 M60.65 37.8 L59.1 37.8 59.1 43.0 59.05 44.6 58.55 45.55 Q58.2 45.9 57.5 45.9 L56.5 45.6 Q56.15 45.25 56.1 44.75 L56.05 43.1 56.05 37.8 54.45 37.8 54.45 42.85 Q54.45 44.6 54.6 45.3 54.7 46.0 55.05 46.5 L55.95 47.3 57.45 47.55 59.15 47.25 60.05 46.45 60.5 45.35 60.65 42.95 60.65 37.8 M27.6 47.4 L29.1 47.4 29.1 40.5 31.05 41.85 31.05 40.2 Q30.45 39.95 29.75 39.3 29.1 38.65 28.85 37.8 L27.6 37.8 27.6 47.4 M36.6 38.45 Q35.9 37.8 34.85 37.8 33.7 37.8 33.05 38.55 32.4 39.3 32.4 40.45 L32.6 41.7 33.2 42.9 34.15 44.15 35.05 45.2 35.35 45.7 32.4 45.7 32.4 47.4 37.65 47.4 37.1 45.55 35.45 43.25 34.2 41.7 Q33.9 41.15 33.9 40.6 33.9 39.95 34.15 39.65 34.45 39.3 34.9 39.3 35.35 39.3 35.65 39.65 35.9 40.0 35.95 40.8 L37.45 40.6 Q37.3 39.1 36.6 38.45" fill="url(#gradient0)" fill-rule="evenodd" stroke="none"/>
    <path d="M-100.35 22.45 L-100.35 6.55 -117.2 6.55 Q-137.5 -32.95 -132.35 -53.75 L-128.35 -54.55 -120.35 -71.85 -113.2 -72.15 -118.8 -55.1 Q-118.6 -49.75 -115.6 -44.45 -94.35 -5.65 -66.9 21.4 L-70.2 23.55 -98.7 22.45 -98.85 22.45 -100.35 22.45" fill="#e6e6e6" fill-rule="evenodd" stroke="none"/>
    <path d="M-69.55 60.25 L-68.25 67.15 -79.55 68.9 -99.35 71.9 -99.6 71.9 -107.4 69.2 -107.15 66.6 -106.8 61.95 Q-89.8 60.95 -70.35 56.55 L-69.55 60.25" fill="#e1e1e1" fill-rule="evenodd" stroke="none"/>
    <path d="M-79.55 68.9 Q-79.4 69.8 -79.4 70.85 -79.4 75.0 -82.35 77.9 -85.25 80.85 -89.4 80.85 -93.55 80.85 -96.5 77.9 -99.05 75.35 -99.35 71.9 L-79.55 68.9" fill="#333333" fill-rule="evenodd" stroke="none"/>
    <path d="M-148.35 29.45 L-148.35 32.15 -157.7 34.3 -157.7 42.25 -148.35 41.1 -148.35 42.85 -174.9 46.0 -181.7 38.35 Q-174.95 36.05 -168.35 34.1 L-153.5 30.4 -148.35 29.45 M-100.35 26.35 L-100.35 24.55 -98.85 22.45 -98.7 22.5 -100.35 26.35" fill="#3c3c3c" fill-rule="evenodd" stroke="none"/>
    <path d="M-183.8 35.95 Q-166.6 30.2 -148.35 26.9 L-148.35 29.45 -153.5 30.4 -168.35 34.1 Q-174.95 36.05 -181.7 38.35 L-183.8 35.95 M-100.35 24.55 L-100.35 22.45 -98.85 22.45 -100.35 24.55" fill="#f7f7f7" fill-rule="evenodd" stroke="none"/>
    <path d="M36.6 38.45 Q37.3 39.1 37.45 40.6 L35.95 40.8 Q35.9 40.0 35.65 39.65 35.35 39.3 34.9 39.3 34.45 39.3 34.15 39.65 33.9 39.95 33.9 40.6 33.9 41.15 34.2 41.7 L35.45 43.25 37.1 45.55 37.65 47.4 32.4 47.4 32.4 45.7 35.35 45.7 35.05 45.2 34.15 44.15 33.2 42.9 32.6 41.7 32.4 40.45 Q32.4 39.3 33.05 38.55 33.7 37.8 34.85 37.8 35.9 37.8 36.6 38.45 M27.6 47.4 L27.6 37.8 28.85 37.8 Q29.1 38.65 29.75 39.3 30.45 39.95 31.05 40.2 L31.05 41.85 29.1 40.5 29.1 47.4 27.6 47.4 M60.65 37.8 L60.65 42.95 60.5 45.35 60.05 46.45 59.15 47.25 57.45 47.55 55.95 47.3 55.05 46.5 Q54.7 46.0 54.6 45.3 54.45 44.6 54.45 42.85 L54.45 37.8 56.05 37.8 56.05 43.1 56.1 44.75 Q56.15 45.25 56.5 45.6 L57.5 45.9 Q58.2 45.9 58.55 45.55 L59.05 44.6 59.1 43.0 59.1 37.8 60.65 37.8 M50.05 44.85 L50.05 43.0 53.0 43.0 53.0 44.85 50.05 44.85 M40.55 43.85 L42.35 43.85 40.55 40.6 40.55 43.85 M43.75 43.85 L43.75 45.45 40.55 45.45 40.55 47.4 39.1 47.4 39.1 45.45 38.15 45.45 38.15 43.85 39.1 43.85 39.1 37.8 40.35 37.8 43.75 43.85 M48.25 38.1 L49.05 38.9 49.5 40.3 48.1 40.55 47.75 39.6 Q47.5 39.3 47.1 39.3 46.75 39.3 46.5 39.6 46.25 39.85 46.25 40.35 46.25 40.9 46.6 41.25 46.9 41.6 47.5 41.6 L47.65 43.1 47.0 42.95 Q46.55 42.95 46.25 43.35 45.95 43.75 45.95 44.45 45.95 45.2 46.25 45.6 46.6 46.05 47.05 46.05 47.45 46.05 47.75 45.7 L48.15 44.65 49.6 44.85 Q49.5 46.05 48.8 46.8 48.1 47.55 47.05 47.55 45.9 47.55 45.15 46.65 44.4 45.8 44.4 44.5 44.4 43.65 44.8 43.05 45.2 42.45 45.9 42.25 44.75 41.5 44.75 40.25 44.75 39.35 45.3 38.65 46.0 37.8 47.1 37.8 L48.25 38.1" fill="#4d4e4d" fill-rule="evenodd" stroke="none"/>
    <path d="M41.45 -80.85 L49.0 -80.85 40.25 -52.2 Q29.35 -44.2 26.1 -38.65 L-4.35 6.8 Q-15.2 20.4 -27.7 28.8 15.8 33.35 139.95 38.0 L181.85 -33.25 173.7 -36.6 222.5 -36.6 222.5 -36.25 216.8 47.0 191.2 48.2 Q128.55 50.9 68.55 51.25 12.85 51.8 -38.85 56.75 L-69.55 60.25 -68.25 67.15 -79.55 68.9 Q-79.4 69.8 -79.4 70.85 -79.4 75.0 -82.35 77.9 -85.25 80.85 -89.4 80.85 -93.55 80.85 -96.5 77.9 -99.05 75.35 -99.35 71.9 L-99.6 71.9 -107.4 69.2 -107.15 66.6 Q-141.35 70.65 -169.9 67.8 -199.1 64.9 -211.55 61.8 -224.05 58.7 -222.25 54.15 -220.7 50.15 -197.25 40.85 -190.6 38.2 -183.8 35.95 -166.6 30.2 -148.35 26.9 M-148.35 32.15 L-157.7 34.3 -157.7 42.25 -148.35 41.1 M-117.2 6.55 Q-137.5 -32.95 -132.35 -53.75 L-128.35 -54.55 -120.35 -71.85 -113.2 -72.15 -118.8 -55.1 Q-118.6 -49.75 -115.6 -44.45 -94.35 -5.65 -66.9 21.4 -50.4 10.5 -32.15 -7.85 -11.1 -30.55 13.15 -51.45 L24.9 -54.65 38.75 -80.85 41.45 -80.85 M27.4 -52.15 L27.45 -52.2 27.6 -52.2 27.4 -52.15 M-92.3 37.65 Q-76.45 41.2 -49.45 39.05 L-49.0 38.9 Q-37.8 35.5 -27.7 28.8 M222.5 -36.25 L212.6 -34.5 209.9 -34.4 191.2 48.2 M209.9 -34.4 L184.9 -33.55 M-70.2 23.55 L-66.9 21.4 M-69.55 60.25 L-70.35 56.55 Q-89.8 60.95 -106.8 61.95 L-107.15 66.6 M-98.85 22.45 L-100.35 22.45 M-98.7 22.5 L-98.7 22.45 -98.85 22.45 -100.35 24.55 M-92.3 37.65 Q-92.15 37.6 -92.3 37.55 -94.2 35.9 -92.9 34.25 -82.0 30.85 -70.2 23.55 L-98.7 22.45 M-98.7 22.5 L-100.35 26.35 M-181.7 38.35 L-174.9 46.0 -148.35 42.85 M-99.35 71.9 L-79.55 68.9 M-181.7 38.35 L-183.8 35.95" fill="none" stroke="#000000" stroke-linecap="round" stroke-linejoin="round" stroke-width="2.0"/>
    <path d="M-117.2 6.55 L-100.35 6.55 -100.35 22.45 -105.8 22.55 -108.35 22.65 -111.55 17.05 -117.2 6.55" fill="#e6e6e6" fill-rule="evenodd" stroke="none"/>
    <path d="M-108.35 22.65 L-105.8 22.55 -100.35 22.45 -100.35 24.55 Q-103.0 28.1 -105.8 30.6 L-105.85 30.65 -105.85 30.2 Q-105.85 27.2 -108.1 25.1 -110.25 23.0 -113.4 23.0 -116.55 23.0 -118.8 25.1 L-118.9 25.25 -118.95 25.3 Q-127.75 26.1 -136.45 27.45 L-136.85 27.5 -148.35 29.45 -148.35 26.9 -136.45 25.0 Q-125.15 23.45 -113.4 22.85 L-108.35 22.65" fill="#f7f7f7" fill-rule="evenodd" stroke="none"/>
    <path d="M-120.2 29.15 L-122.45 29.15 -121.9 28.8 -120.55 27.8 Q-120.05 26.4 -118.95 25.3 L-118.9 25.25 -118.8 25.1 Q-116.55 23.0 -113.4 23.0 -110.25 23.0 -108.1 25.1 -105.85 27.2 -105.85 30.2 L-105.85 30.65 -106.05 31.85 Q-106.5 33.8 -108.1 35.35 L-108.2 35.45 -108.9 34.85 Q-109.95 34.15 -111.4 34.15 L-112.75 34.15 Q-114.0 34.1 -114.05 32.4 L-113.95 29.15 -120.2 29.15" fill="#737373" fill-rule="evenodd" stroke="none"/>
    <path d="M-100.35 24.55 L-100.35 26.35 Q-102.45 30.65 -105.8 34.9 L-107.75 37.25 -107.85 37.35 -108.1 37.35 -108.1 37.25 Q-108.25 36.85 -109.3 36.3 L-108.2 35.45 -108.1 35.35 Q-106.5 33.8 -106.05 31.85 L-105.85 30.65 -105.8 30.6 Q-103.0 28.1 -100.35 24.55 M-148.35 42.85 L-148.35 41.1 -116.3 37.25 -117.7 39.25 -148.35 42.85 M-121.9 28.8 L-136.45 30.1 -139.25 30.45 -148.35 32.15 -148.35 29.45 -136.85 27.5 -136.45 27.45 Q-127.75 26.1 -118.95 25.3 -120.05 26.4 -120.55 27.8 L-121.9 28.8" fill="#3c3c3c" fill-rule="evenodd" stroke="none"/>
    <path d="M-116.1 37.05 Q-117.45 36.6 -118.4 35.65 -119.55 34.55 -120.0 33.5 L-121.85 33.5 -120.35 30.15 -120.2 29.15 -113.95 29.15 -114.05 32.4 Q-114.0 34.1 -112.75 34.15 L-111.4 34.15 Q-109.95 34.15 -108.9 34.85 L-108.2 35.45 -109.3 36.3 -110.55 36.95 -113.4 37.45 -115.3 37.25 -116.1 37.05" fill="#ffcccc" fill-rule="evenodd" stroke="none"/>
    <path d="M-116.3 37.25 L-116.1 37.05 -115.3 37.25 -113.4 37.45 -110.55 36.95 -109.3 36.3 Q-108.25 36.85 -108.1 37.25 L-108.1 37.35 -107.85 37.35 -108.6 38.15 -117.7 39.25 -116.3 37.25" fill="#666666" fill-rule="evenodd" stroke="none"/>
    <path d="M-100.35 26.35 L-100.35 46.55 -148.35 46.55 -148.35 42.85 -117.7 39.25 -108.6 38.15 -107.85 37.35 -107.75 37.25 -105.8 34.9 Q-102.45 30.65 -100.35 26.35" fill="url(#gradient1)" fill-rule="evenodd" stroke="none"/>
    <path d="M-117.2 6.55 L-111.55 17.05 -108.35 22.65 -105.8 22.55 -100.35 22.45 M-148.35 41.1 L-116.3 37.25 -116.1 37.05 Q-117.45 36.6 -118.4 35.65 -119.55 34.55 -120.0 33.5 L-121.85 33.5 -120.35 30.15 -120.2 29.15 -122.45 29.15 -121.9 28.8 -136.45 30.1 -139.25 30.45 -148.35 32.15 M-148.35 26.9 L-136.45 25.0 Q-125.15 23.45 -113.4 22.85 L-108.35 22.65 M-105.85 30.65 L-105.8 30.6 Q-103.0 28.1 -100.35 24.55 M-118.95 25.3 L-118.9 25.25 -118.8 25.1 Q-116.55 23.0 -113.4 23.0 -110.25 23.0 -108.1 25.1 -105.85 27.2 -105.85 30.2 L-105.85 30.65 -106.05 31.85 Q-106.5 33.8 -108.1 35.35 L-108.2 35.45 -109.3 36.3 Q-108.25 36.85 -108.1 37.25 L-108.1 37.35 -107.85 37.35 -107.75 37.25 -105.8 34.9 Q-102.45 30.65 -100.35 26.35 M-109.3 36.3 L-110.55 36.95 -113.4 37.45 -115.3 37.25 -116.1 37.05 M-108.2 35.45 L-108.9 34.85 Q-109.95 34.15 -111.4 34.15 L-112.75 34.15 Q-114.0 34.1 -114.05 32.4 L-113.95 29.15 -120.2 29.15 M-118.95 25.3 Q-120.05 26.4 -120.55 27.8 L-121.9 28.8 M-116.3 37.25 L-117.7 39.25 -108.6 38.15 -107.85 37.35 M-148.35 42.85 L-117.7 39.25" fill="none" stroke="#000000" stroke-linecap="round" stroke-linejoin="round" stroke-width="2.0"/>
    <path d="M41.45 -80.85 L49.0 -80.85 40.25 -52.2 27.6 -52.2 41.45 -80.85" fill="#c4c4c4" fill-rule="evenodd" stroke="none"/>
    <path d="M-66.9 21.4 Q-50.4 10.5 -32.15 -7.85 -11.1 -30.55 13.15 -51.45 L24.9 -54.65 38.75 -80.85 41.45 -80.85 27.6 -52.2 27.45 -52.2 27.4 -52.15 14.05 -48.6 Q-0.85 -36.55 -16.7 -19.1 L-42.0 6.2 -42.0 6.45 Q-53.15 16.65 -64.55 24.05 -78.25 32.9 -92.3 37.65 -92.15 37.6 -92.3 37.55 -94.2 35.9 -92.9 34.25 -82.0 30.85 -70.2 23.55 L-66.9 21.4" fill="#fdf8ef" fill-rule="evenodd" stroke="none"/>
    <path d="M27.4 -52.15 L27.45 -52.2 27.6 -52.2 27.4 -52.15" fill="#514f4d" fill-rule="evenodd" stroke="none"/>
    <path d="M40.25 -52.2 Q29.35 -44.2 26.1 -38.65 L-4.35 6.8 Q-15.2 20.4 -27.7 28.8 -37.8 35.5 -49.0 38.9 L-49.45 39.05 Q-76.45 41.2 -92.3 37.65 -78.25 32.9 -64.55 24.05 -53.15 16.65 -42.0 6.45 L-42.0 6.2 -16.7 -19.1 Q-0.85 -36.55 14.05 -48.6 L27.4 -52.15 27.6 -52.2 40.25 -52.2" fill="#999999" fill-rule="evenodd" stroke="none"/>
    <path d="M-27.7 28.8 Q15.8 33.35 139.95 38.0 L181.85 -33.25 173.7 -36.6 222.5 -36.6 222.5 -36.25 216.8 47.0 191.2 48.2 Q128.55 50.9 68.55 51.25 12.85 51.8 -38.85 56.75 L-69.55 60.25 -70.35 56.55 Q-89.8 60.95 -106.8 61.95 L-107.15 66.6 Q-141.35 70.65 -169.9 67.8 -199.1 64.9 -211.55 61.8 -224.05 58.7 -222.25 54.15 -220.7 50.15 -197.25 40.85 -190.6 38.2 -183.8 35.95 L-181.7 38.35 -174.9 46.0 -117.7 39.25 -108.6 38.15 -107.85 37.35 -107.75 37.25 -105.8 34.9 Q-100.9 28.7 -98.7 22.5 L-98.7 22.45 -70.2 23.55 Q-82.0 30.85 -92.9 34.25 -94.2 35.9 -92.3 37.55 -92.15 37.6 -92.3 37.65 -76.45 41.2 -49.45 39.05 L-49.0 38.9 Q-37.8 35.5 -27.7 28.8 M222.5 -36.25 L212.6 -34.5 209.9 -34.4 184.9 -33.55 209.9 -34.4 212.6 -34.5 222.5 -36.25 M48.25 38.1 L47.1 37.8 Q46.0 37.8 45.3 38.65 44.75 39.35 44.75 40.25 44.75 41.5 45.9 42.25 45.2 42.45 44.8 43.05 44.4 43.65 44.4 44.5 44.4 45.8 45.15 46.65 45.9 47.55 47.05 47.55 48.1 47.55 48.8 46.8 49.5 46.05 49.6 44.85 L48.15 44.65 47.75 45.7 Q47.45 46.05 47.05 46.05 46.6 46.05 46.25 45.6 45.95 45.2 45.95 44.45 45.95 43.75 46.25 43.35 46.55 42.95 47.0 42.95 L47.65 43.1 47.5 41.6 Q46.9 41.6 46.6 41.25 46.25 40.9 46.25 40.35 46.25 39.85 46.5 39.6 46.75 39.3 47.1 39.3 47.5 39.3 47.75 39.6 L48.1 40.55 49.5 40.3 49.05 38.9 48.25 38.1 M40.55 43.85 L40.55 40.6 42.35 43.85 40.55 43.85 M43.75 43.85 L40.35 37.8 39.1 37.8 39.1 43.85 38.15 43.85 38.15 45.45 39.1 45.45 39.1 47.4 40.55 47.4 40.55 45.45 43.75 45.45 43.75 43.85 M50.05 44.85 L53.0 44.85 53.0 43.0 50.05 43.0 50.05 44.85 M60.65 37.8 L59.1 37.8 59.1 43.0 59.05 44.6 58.55 45.55 Q58.2 45.9 57.5 45.9 L56.5 45.6 Q56.15 45.25 56.1 44.75 L56.05 43.1 56.05 37.8 54.45 37.8 54.45 42.85 Q54.45 44.6 54.6 45.3 54.7 46.0 55.05 46.5 L55.95 47.3 57.45 47.55 59.15 47.25 60.05 46.45 60.5 45.35 60.65 42.95 60.65 37.8 M27.6 47.4 L29.1 47.4 29.1 40.5 31.05 41.85 31.05 40.2 Q30.45 39.95 29.75 39.3 29.1 38.65 28.85 37.8 L27.6 37.8 27.6 47.4 M36.6 38.45 Q35.9 37.8 34.85 37.8 33.7 37.8 33.05 38.55 32.4 39.3 32.4 40.45 L32.6 41.7 33.2 42.9 34.15 44.15 35.05 45.2 35.35 45.7 32.4 45.7 32.4 47.4 37.65 47.4 37.1 45.55 35.45 43.25 34.2 41.7 Q33.9 41.15 33.9 40.6 33.9 39.95 34.15 39.65 34.45 39.3 34.9 39.3 35.35 39.3 35.65 39.65 35.9 40.0 35.95 40.8 L37.45 40.6 Q37.3 39.1 36.6 38.45 M209.9 -34.4 L191.2 48.2 209.9 -34.4" fill="url(#gradient2)" fill-rule="evenodd" stroke="none"/>
    <path d="M-108.35 22.65 L-111.55 17.05 Q-138.15 -30.25 -132.35 -53.75 L-128.35 -54.55 -120.35 -71.85 -113.2 -72.15 -118.8 -55.1 Q-118.6 -49.75 -115.6 -44.45 -94.35 -5.65 -66.9 21.4 L-70.2 23.55 -98.7 22.45 -98.85 22.45 -105.8 22.55 -108.35 22.65" fill="#e6e6e6" fill-rule="evenodd" stroke="none"/>
    <path d="M-69.55 60.25 L-68.25 67.15 -79.55 68.9 -99.35 71.9 -99.6 71.9 -107.4 69.2 -107.15 66.6 -106.8 61.95 Q-89.8 60.95 -70.35 56.55 L-69.55 60.25" fill="#e1e1e1" fill-rule="evenodd" stroke="none"/>
    <path d="M-79.55 68.9 Q-79.4 69.8 -79.4 70.85 -79.4 75.0 -82.35 77.9 -85.25 80.85 -89.4 80.85 -93.55 80.85 -96.5 77.9 -99.05 75.35 -99.35 71.9 L-79.55 68.9" fill="#333333" fill-rule="evenodd" stroke="none"/>
    <path d="M-98.85 22.45 L-98.7 22.5 Q-100.9 28.7 -105.8 34.9 L-107.75 37.25 -107.85 37.35 -108.1 37.35 -108.1 37.25 Q-108.25 36.85 -109.3 36.3 L-108.2 35.45 -108.1 35.35 Q-106.5 33.8 -106.05 31.85 L-105.85 30.65 -105.8 30.6 Q-102.25 27.4 -98.85 22.45 M-117.7 39.25 L-174.9 46.0 -181.7 38.35 Q-174.95 36.05 -168.35 34.1 L-153.5 30.4 -136.85 27.5 -136.45 27.45 Q-127.75 26.1 -118.95 25.3 -120.05 26.4 -120.55 27.8 L-121.9 28.8 -136.45 30.1 -139.25 30.45 Q-148.6 31.95 -157.7 34.3 L-157.7 42.25 -116.3 37.25 -117.7 39.25" fill="#3c3c3c" fill-rule="evenodd" stroke="none"/>
    <path d="M-183.8 35.95 Q-161.0 28.35 -136.45 25.0 -125.15 23.45 -113.4 22.85 L-108.35 22.65 -105.8 22.55 -98.85 22.45 Q-102.25 27.4 -105.8 30.6 L-105.85 30.65 -105.85 30.2 Q-105.85 27.2 -108.1 25.1 -110.25 23.0 -113.4 23.0 -116.55 23.0 -118.8 25.1 L-118.9 25.25 -118.95 25.3 Q-127.75 26.1 -136.45 27.45 L-136.85 27.5 -153.5 30.4 -168.35 34.1 Q-174.95 36.05 -181.7 38.35 L-183.8 35.95" fill="#f7f7f7" fill-rule="evenodd" stroke="none"/>
    <path d="M-105.85 30.65 L-106.05 31.85 Q-106.5 33.8 -108.1 35.35 L-108.2 35.45 -108.9 34.85 Q-109.95 34.15 -111.4 34.15 L-112.75 34.15 Q-114.0 34.1 -114.05 32.4 L-113.95 29.15 -120.2 29.15 -122.45 29.15 -121.9 28.8 -120.55 27.8 Q-120.05 26.4 -118.95 25.3 L-118.9 25.25 -118.8 25.1 Q-116.55 23.0 -113.4 23.0 -110.25 23.0 -108.1 25.1 -105.85 27.2 -105.85 30.2 L-105.85 30.65" fill="#737373" fill-rule="evenodd" stroke="none"/>
    <path d="M-108.2 35.45 L-109.3 36.3 -110.55 36.95 -113.4 37.45 -115.3 37.25 -116.1 37.05 Q-117.45 36.6 -118.4 35.65 -119.55 34.55 -120.0 33.5 L-121.85 33.5 -120.35 30.15 -120.2 29.15 -113.95 29.15 -114.05 32.4 Q-114.0 34.1 -112.75 34.15 L-111.4 34.15 Q-109.95 34.15 -108.9 34.85 L-108.2 35.45" fill="#ffcccc" fill-rule="evenodd" stroke="none"/>
    <path d="M-107.85 37.35 L-108.6 38.15 -117.7 39.25 -116.3 37.25 -116.1 37.05 -115.3 37.25 -113.4 37.45 -110.55 36.95 -109.3 36.3 Q-108.25 36.85 -108.1 37.25 L-108.1 37.35 -107.85 37.35" fill="#666666" fill-rule="evenodd" stroke="none"/>
    <path d="M36.6 38.45 Q37.3 39.1 37.45 40.6 L35.95 40.8 Q35.9 40.0 35.65 39.65 35.35 39.3 34.9 39.3 34.45 39.3 34.15 39.65 33.9 39.95 33.9 40.6 33.9 41.15 34.2 41.7 L35.45 43.25 37.1 45.55 37.65 47.4 32.4 47.4 32.4 45.7 35.35 45.7 35.05 45.2 34.15 44.15 33.2 42.9 32.6 41.7 32.4 40.45 Q32.4 39.3 33.05 38.55 33.7 37.8 34.85 37.8 35.9 37.8 36.6 38.45 M27.6 47.4 L27.6 37.8 28.85 37.8 Q29.1 38.65 29.75 39.3 30.45 39.95 31.05 40.2 L31.05 41.85 29.1 40.5 29.1 47.4 27.6 47.4 M60.65 37.8 L60.65 42.95 60.5 45.35 60.05 46.45 59.15 47.25 57.45 47.55 55.95 47.3 55.05 46.5 Q54.7 46.0 54.6 45.3 54.45 44.6 54.45 42.85 L54.45 37.8 56.05 37.8 56.05 43.1 56.1 44.75 Q56.15 45.25 56.5 45.6 L57.5 45.9 Q58.2 45.9 58.55 45.55 L59.05 44.6 59.1 43.0 59.1 37.8 60.65 37.8 M50.05 44.85 L50.05 43.0 53.0 43.0 53.0 44.85 50.05 44.85 M43.75 43.85 L43.75 45.45 40.55 45.45 40.55 47.4 39.1 47.4 39.1 45.45 38.15 45.45 38.15 43.85 39.1 43.85 39.1 37.8 40.35 37.8 43.75 43.85 M40.55 43.85 L42.35 43.85 40.55 40.6 40.55 43.85 M48.25 38.1 L49.05 38.9 49.5 40.3 48.1 40.55 47.75 39.6 Q47.5 39.3 47.1 39.3 46.75 39.3 46.5 39.6 46.25 39.85 46.25 40.35 46.25 40.9 46.6 41.25 46.9 41.6 47.5 41.6 L47.65 43.1 47.0 42.95 Q46.55 42.95 46.25 43.35 45.95 43.75 45.95 44.45 45.95 45.2 46.25 45.6 46.6 46.05 47.05 46.05 47.45 46.05 47.75 45.7 L48.15 44.65 49.6 44.85 Q49.5 46.05 48.8 46.8 48.1 47.55 47.05 47.55 45.9 47.55 45.15 46.65 44.4 45.8 44.4 44.5 44.4 43.65 44.8 43.05 45.2 42.45 45.9 42.25 44.75 41.5 44.75 40.25 44.75 39.35 45.3 38.65 46.0 37.8 47.1 37.8 L48.25 38.1" fill="#4d4e4d" fill-rule="evenodd" stroke="none"/>
    <path d="M41.45 -80.85 L49.0 -80.85 40.25 -52.2 Q29.35 -44.2 26.1 -38.65 L-4.35 6.8 Q-15.2 20.4 -27.7 28.8 15.8 33.35 139.95 38.0 L181.85 -33.25 173.7 -36.6 222.5 -36.6 222.5 -36.25 216.8 47.0 191.2 48.2 Q128.55 50.9 68.55 51.25 12.85 51.8 -38.85 56.75 L-69.55 60.25 -68.25 67.15 -79.55 68.9 Q-79.4 69.8 -79.4 70.85 -79.4 75.0 -82.35 77.9 -85.25 80.85 -89.4 80.85 -93.55 80.85 -96.5 77.9 -99.05 75.35 -99.35 71.9 L-99.6 71.9 -107.4 69.2 -107.15 66.6 Q-141.35 70.65 -169.9 67.8 -199.1 64.9 -211.55 61.8 -224.05 58.7 -222.25 54.15 -220.7 50.15 -197.25 40.85 -190.6 38.2 -183.8 35.95 -161.0 28.35 -136.45 25.0 -125.15 23.45 -113.4 22.85 L-108.35 22.65 -111.55 17.05 Q-138.15 -30.25 -132.35 -53.75 L-128.35 -54.55 -120.35 -71.85 -113.2 -72.15 -118.8 -55.1 Q-118.6 -49.75 -115.6 -44.45 -94.35 -5.65 -66.9 21.4 -50.4 10.5 -32.15 -7.85 -11.1 -30.55 13.15 -51.45 L24.9 -54.65 38.75 -80.85 41.45 -80.85 M27.4 -52.15 L27.45 -52.2 27.6 -52.2 27.4 -52.15 M-92.3 37.65 Q-76.45 41.2 -49.45 39.05 L-49.0 38.9 Q-37.8 35.5 -27.7 28.8 M184.9 -33.55 L209.9 -34.4 212.6 -34.5 222.5 -36.25 M191.2 48.2 L209.9 -34.4 M-70.2 23.55 L-66.9 21.4 M-107.15 66.6 L-106.8 61.95 Q-89.8 60.95 -70.35 56.55 L-69.55 60.25 M-98.7 22.5 L-98.7 22.45 -98.85 22.45 -105.8 22.55 -108.35 22.65 M-98.7 22.5 Q-100.9 28.7 -105.8 34.9 L-107.75 37.25 -107.85 37.35 -108.6 38.15 -117.7 39.25 -174.9 46.0 -181.7 38.35 -183.8 35.95 M-98.85 22.45 Q-102.25 27.4 -105.8 30.6 L-105.85 30.65 -106.05 31.85 Q-106.5 33.8 -108.1 35.35 L-108.2 35.45 -109.3 36.3 Q-108.25 36.85 -108.1 37.25 L-108.1 37.35 -107.85 37.35 M-105.85 30.65 L-105.85 30.2 Q-105.85 27.2 -108.1 25.1 -110.25 23.0 -113.4 23.0 -116.55 23.0 -118.8 25.1 L-118.9 25.25 -118.95 25.3 Q-120.05 26.4 -120.55 27.8 L-121.9 28.8 -122.45 29.15 -120.2 29.15 -113.95 29.15 -114.05 32.4 Q-114.0 34.1 -112.75 34.15 L-111.4 34.15 Q-109.95 34.15 -108.9 34.85 L-108.2 35.45 M-109.3 36.3 L-110.55 36.95 -113.4 37.45 -115.3 37.25 -116.1 37.05 -116.3 37.25 -117.7 39.25 M-116.1 37.05 Q-117.45 36.6 -118.4 35.65 -119.55 34.55 -120.0 33.5 L-121.85 33.5 -120.35 30.15 -120.2 29.15 M-92.3 37.65 Q-92.15 37.6 -92.3 37.55 -94.2 35.9 -92.9 34.25 -82.0 30.85 -70.2 23.55 L-98.7 22.45 M-121.9 28.8 L-136.45 30.1 -139.25 30.45 Q-148.6 31.95 -157.7 34.3 L-157.7 42.25 -116.3 37.25 M-79.55 68.9 L-99.35 71.9" fill="none" stroke="#000000" stroke-linecap="round" stroke-linejoin="round" stroke-width="0.05"/>
  </g>
  <defs>
    <linearGradient gradientTransform="matrix(0.002, 0.0571, -0.2714, 0.0095, 1.15, 21.95)" gradientUnits="userSpaceOnUse" id="gradient0" spreadMethod="pad" x1="-819.2" x2="819.2">
      <stop offset="0.7254901960784313" stop-color="#ffffff"/>
      <stop offset="0.9176470588235294" stop-color="#96989c"/>
    </linearGradient>
    <linearGradient gradientTransform="matrix(0.002, 0.0571, -0.2714, 0.0095, 1.15, 21.95)" gradientUnits="userSpaceOnUse" id="gradient1" spreadMethod="pad" x1="-819.2" x2="819.2">
      <stop offset="0.7254901960784313" stop-color="#ffffff"/>
      <stop offset="0.9176470588235294" stop-color="#96989c"/>
    </linearGradient>
    <linearGradient gradientTransform="matrix(0.002, 0.0571, -0.2714, 0.0095, 1.15, 21.95)" gradientUnits="userSpaceOnUse" id="gradient2" spreadMethod="pad" x1="-819.2" x2="819.2">
      <stop offset="0.7254901960784313" stop-color="#ffffff"/>
      <stop offset="0.9176470588235294" stop-color="#96989c"/>
    </linearGradient>
  </defs>
</svg>
