<?xml version="1.0" encoding="UTF-8" standalone="no"?>
<svg xmlns:ffdec="https://www.free-decompiler.com/flash" xmlns:xlink="http://www.w3.org/1999/xlink" ffdec:objectType="shape" height="534.3px" width="1966.05px" xmlns="http://www.w3.org/2000/svg">
  <g transform="matrix(1.0, 0.0, 0.0, 1.0, 983.0, 305.0)">
    <path d="M237.8 -87.5 L484.7 -87.5 Q497.45 -87.55 506.7 -87.2 L-645.5 -87.2 -629.8 -88.1 -629.75 -88.1 -629.75 -87.55 -124.05 -87.5 237.8 -87.5 M547.7 -67.95 L598.9 1.65 Q607.0 13.5 597.25 16.9 591.3 18.95 578.85 17.95 L526.5 17.9 526.5 -85.1 526.9 -85.0 Q536.45 -82.4 547.7 -67.95 M534.35 -11.55 L534.35 2.85 553.15 2.85 553.15 -11.55 534.35 -11.55 M553.15 -28.65 L553.15 -43.05 534.35 -43.05 534.35 -28.65 553.15 -28.65 M-756.95 4.55 Q-757.75 -1.7 -755.0 -7.9 L-755.0 8.95 Q-756.5 7.0 -756.95 4.55" fill="#c0c9cf" fill-rule="evenodd" stroke="none"/>
    <path d="M553.15 -28.65 L534.35 -28.65 534.35 -43.05 553.15 -43.05 553.15 -28.65 M534.35 -11.55 L553.15 -11.55 553.15 2.85 534.35 2.85 534.35 -11.55 M571.05 -67.1 L571.05 -84.55 596.9 -84.55 596.9 -67.1 571.05 -67.1 M621.0 -84.55 L618.5 -67.1 601.95 -67.1 601.95 -84.55 621.0 -84.55 M526.5 118.2 L527.9 118.1 Q531.15 118.1 533.55 120.35 535.85 122.6 535.85 125.75 L535.85 126.2 Q535.7 129.0 533.55 131.1 531.15 133.35 527.9 133.35 524.85 133.35 522.65 131.45 L526.5 131.45 526.5 118.2 M504.6 131.45 Q502.35 133.35 499.35 133.35 496.35 133.35 494.1 131.45 L504.6 131.45 M476.1 131.45 Q473.85 133.35 470.85 133.35 467.8 133.35 465.6 131.45 L476.1 131.45 M447.55 131.45 Q445.3 133.35 442.3 133.35 439.3 133.35 437.05 131.45 L447.55 131.45 M419.05 131.45 Q416.8 133.35 413.75 133.35 410.75 133.35 408.55 131.45 L419.05 131.45 M390.5 131.45 Q388.25 133.35 385.25 133.35 382.2 133.35 380.0 131.45 L390.5 131.45 M361.95 131.45 Q359.7 133.35 356.7 133.35 353.7 133.35 351.5 131.45 L361.95 131.45 M333.45 131.45 Q331.2 133.35 328.2 133.35 325.15 133.35 322.95 131.45 L333.45 131.45 M304.9 131.45 Q302.65 133.35 299.65 133.35 296.65 133.35 294.4 131.45 L304.9 131.45 M276.4 131.45 Q274.15 133.35 271.15 133.35 268.1 133.35 265.9 131.45 L276.4 131.45 M247.85 131.45 Q245.6 133.35 242.6 133.35 239.6 133.35 237.35 131.45 L247.85 131.45 M219.35 131.45 Q217.1 133.35 214.05 133.35 211.05 133.35 208.85 131.45 L219.35 131.45 M190.8 131.45 Q188.55 133.35 185.55 133.35 182.5 133.35 180.3 131.45 L190.8 131.45 M162.3 131.45 Q160.05 133.35 157.0 133.35 154.0 133.35 151.8 131.45 L162.3 131.45 M133.75 131.45 Q131.5 133.35 128.5 133.35 125.45 133.35 123.25 131.45 L133.75 131.45 M105.2 131.45 Q102.95 133.35 99.95 133.35 96.95 133.35 94.75 131.45 L105.2 131.45 M76.7 131.45 Q74.45 133.35 71.45 133.35 68.4 133.35 66.2 131.45 L76.7 131.45 M48.15 131.45 Q45.9 133.35 42.9 133.35 39.9 133.35 37.65 131.45 L48.15 131.45 M19.65 131.45 Q17.4 133.35 14.4 133.35 11.35 133.35 9.15 131.45 L19.65 131.45 M-8.9 131.45 Q-11.15 133.35 -14.15 133.35 -17.2 133.35 -19.4 131.45 L-8.9 131.45 M-37.4 131.45 Q-39.65 133.35 -42.7 133.35 -45.7 133.35 -47.9 131.45 L-37.4 131.45 M-65.95 131.45 Q-68.2 133.35 -71.2 133.35 -74.25 133.35 -76.45 131.45 L-65.95 131.45 M-94.5 131.45 Q-96.75 133.35 -99.75 133.35 -102.75 133.35 -104.95 131.45 L-94.5 131.45 M-123.0 131.45 L-124.05 132.2 Q-125.9 133.35 -128.25 133.35 -131.3 133.35 -133.5 131.45 L-123.0 131.45 M556.4 118.1 Q559.7 118.1 562.05 120.35 564.4 122.6 564.4 125.75 L564.4 126.2 Q564.25 129.0 562.05 131.1 559.7 133.35 556.4 133.35 553.1 133.35 550.8 131.1 548.6 129.0 548.45 126.2 L548.45 125.75 Q548.45 122.6 550.8 120.35 553.1 118.1 556.4 118.1 M621.45 126.2 Q621.3 129.0 619.15 131.1 616.75 133.35 613.45 133.35 610.15 133.35 607.85 131.1 605.65 129.0 605.5 126.2 L605.5 125.75 Q605.5 122.6 607.85 120.35 610.15 118.1 613.45 118.1 616.75 118.1 619.15 120.35 621.45 122.6 621.45 125.75 L621.45 126.2 M584.95 118.1 Q588.25 118.1 590.6 120.35 592.95 122.6 592.95 125.75 L592.95 126.2 Q592.75 129.0 590.6 131.1 588.25 133.35 584.95 133.35 581.65 133.35 579.3 131.1 577.1 129.0 577.0 126.2 L576.95 125.75 Q576.95 122.6 579.3 120.35 581.65 118.1 584.95 118.1 M-755.9 118.1 L-755.0 118.15 -755.0 131.45 -750.65 131.45 Q-752.9 133.35 -755.9 133.35 -759.2 133.35 -761.5 131.1 -763.7 129.0 -763.85 126.2 L-763.9 125.75 Q-763.9 122.6 -761.5 120.35 -759.2 118.1 -755.9 118.1 M-778.75 120.35 Q-776.45 122.6 -776.45 125.75 L-776.45 126.2 Q-776.6 129.0 -778.75 131.1 -781.15 133.35 -784.4 133.35 -787.7 133.35 -790.05 131.1 -792.25 129.0 -792.4 126.2 L-792.4 125.75 Q-792.4 122.6 -790.05 120.35 -787.7 118.1 -784.4 118.1 -781.15 118.1 -778.75 120.35 M-670.3 133.35 Q-673.35 133.35 -675.55 131.45 L-665.05 131.45 Q-667.3 133.35 -670.3 133.35 M-698.85 133.35 Q-701.85 133.35 -704.05 131.45 L-693.55 131.45 Q-695.8 133.35 -698.85 133.35 M-727.35 133.35 Q-730.4 133.35 -732.6 131.45 L-722.1 131.45 Q-724.35 133.35 -727.35 133.35 M-156.8 133.35 Q-159.8 133.35 -162.05 131.45 L-151.55 131.45 Q-153.8 133.35 -156.8 133.35 M-304.65 131.45 L-294.2 131.45 Q-296.45 133.35 -299.45 133.35 -302.45 133.35 -304.65 131.45 M-276.15 131.45 L-265.65 131.45 Q-267.9 133.35 -270.9 133.35 -273.95 133.35 -276.15 131.45 M-185.3 133.35 Q-188.35 133.35 -190.55 131.45 L-180.05 131.45 Q-182.3 133.35 -185.3 133.35 M-213.85 133.35 Q-216.85 133.35 -219.1 131.45 L-208.6 131.45 Q-210.85 133.35 -213.85 133.35 M-242.4 133.35 Q-245.4 133.35 -247.6 131.45 L-237.1 131.45 Q-239.35 133.35 -242.4 133.35 M-442.1 133.35 Q-445.1 133.35 -447.3 131.45 L-436.8 131.45 Q-439.05 133.35 -442.1 133.35 M-418.8 131.45 L-408.3 131.45 Q-410.55 133.35 -413.55 133.35 -416.55 133.35 -418.8 131.45 M-470.6 133.35 Q-473.65 133.35 -475.85 131.45 L-465.35 131.45 Q-467.6 133.35 -470.6 133.35 M-333.2 131.45 L-322.7 131.45 Q-324.95 133.35 -327.95 133.35 -331.0 133.35 -333.2 131.45 M-356.5 133.35 Q-359.5 133.35 -361.75 131.45 L-351.25 131.45 Q-353.5 133.35 -356.5 133.35 M-385.0 133.35 Q-388.05 133.35 -390.25 131.45 L-379.75 131.45 Q-382.0 133.35 -385.0 133.35 M-584.7 133.35 Q-587.75 133.35 -589.95 131.45 L-579.45 131.45 Q-581.7 133.35 -584.7 133.35 M-618.5 131.45 L-608.0 131.45 Q-610.25 133.35 -613.25 133.35 -616.25 133.35 -618.5 131.45 M-647.0 131.45 L-636.5 131.45 Q-638.75 133.35 -641.75 133.35 -644.8 133.35 -647.0 131.45 M-499.15 133.35 Q-502.15 133.35 -504.35 131.45 L-493.85 131.45 Q-496.1 133.35 -499.15 133.35 M-532.9 131.45 L-522.4 131.45 Q-524.65 133.35 -527.65 133.35 -530.7 133.35 -532.9 131.45 M-561.4 131.45 L-550.95 131.45 Q-553.2 133.35 -556.2 133.35 -559.2 133.35 -561.4 131.45" fill="#404040" fill-rule="evenodd" stroke="none"/>
    <path d="M-304.05 -274.15 L-304.05 -274.6 -318.35 -302.85 -309.5 -302.95 -294.8 -274.15 -304.05 -274.15 M-288.0 -274.15 L-303.5 -303.0 -294.65 -303.05 -278.75 -274.15 -288.0 -274.15 M-272.85 -274.15 L-287.5 -303.05 -278.3 -303.15 -259.95 -267.65 -267.45 -274.15 -272.85 -274.15 M-253.9 -266.35 L-272.4 -303.2 -262.75 -303.25 -243.85 -266.35 -247.45 -266.35 -253.9 -266.35" fill="#566065" fill-rule="evenodd" stroke="none"/>
    <path d="M639.9 -84.55 L634.85 -67.1 623.1 -67.1 625.55 -84.55 639.9 -84.55" fill="#333333" fill-rule="evenodd" stroke="none"/>
    <path d="M639.4 -67.1 L645.25 -84.55 652.45 -84.55 646.6 -67.1 639.4 -67.1" fill="#262626" fill-rule="evenodd" stroke="none"/>
    <path d="M595.05 52.7 L611.45 43.6 700.1 42.2 847.25 41.45 943.05 40.15 943.05 40.45 595.05 52.7" fill="#253e66" fill-rule="evenodd" stroke="none"/>
    <path d="M825.95 157.65 Q825.2 159.35 825.4 160.85 824.35 167.55 828.1 170.65 829.7 171.95 832.25 172.6 L-901.5 172.6 -969.35 161.95 -969.35 157.15 -932.05 157.15 -365.5 157.15 -124.05 157.15 73.5 157.15 191.55 157.15 676.4 157.15 825.1 157.15 825.95 157.65" fill="#38688e" fill-rule="evenodd" stroke="none"/>
    <path d="M210.15 -267.15 L217.6 -258.0 262.15 -177.25 248.9 -172.05 262.15 -177.25 270.25 -166.3 251.2 -166.3 248.9 -172.05 218.5 -248.15 207.35 -265.9 207.9 -266.25 Q209.2 -266.25 210.15 -267.15 M179.35 -149.45 L174.2 -156.8 186.55 -156.8 186.15 -151.8 Q183.6 -148.05 179.35 -149.45 M-333.8 -149.9 L-333.8 -183.1 -279.4 -203.7 -278.55 -203.6 -212.3 -196.25 -122.8 -195.6 -100.95 -195.45 -2.05 -187.0 14.9 -177.25 -14.4 -149.9 -30.7 -149.9 -333.8 -149.9 M-257.5 -265.7 L-253.9 -266.35 -247.45 -266.35 -247.45 -265.7 -154.3 -211.35 -185.95 -209.5 -257.5 -265.7" fill="url(#gradient0)" fill-rule="evenodd" stroke="none"/>
    <path d="M217.6 -258.0 L246.95 -222.4 282.1 -221.45 267.85 -216.7 259.3 -216.7 274.5 -202.45 301.6 -202.45 295.45 -198.15 285.9 -198.15 309.1 -177.25 262.15 -177.25 217.6 -258.0" fill="url(#gradient1)" fill-rule="evenodd" stroke="none"/>
    <path d="M309.1 -177.25 L323.0 -177.25 366.45 -166.3 409.95 -155.35 391.0 -155.35 300.2 -155.35 178.0 -141.1 145.65 -137.3 145.45 -137.85 179.35 -149.45 Q183.6 -148.05 186.15 -151.8 L196.55 -155.35 224.6 -155.35 251.2 -166.3 270.25 -166.3 262.15 -177.25 309.1 -177.25 M366.45 -166.3 L270.25 -166.3 366.45 -166.3" fill="url(#gradient2)" fill-rule="evenodd" stroke="none"/>
    <path d="M391.0 -155.35 L391.0 -139.5 460.35 -142.05 496.5 -131.1 487.0 -131.1 487.0 -120.2 248.55 -120.2 267.85 -134.9 391.0 -139.5 267.85 -134.9 248.55 -120.2 220.5 -120.2 178.0 -120.2 178.0 -121.2 178.0 -141.1 300.2 -155.35 391.0 -155.35" fill="url(#gradient3)" fill-rule="evenodd" stroke="none"/>
    <path d="M174.2 -156.8 L166.6 -156.8 166.55 -157.5 166.55 -172.7 Q166.55 -178.7 170.8 -183.0 175.1 -187.25 181.1 -187.2 187.05 -187.25 191.3 -183.0 195.55 -178.7 195.6 -172.7 L195.6 -157.3 195.55 -156.8 186.55 -156.8 174.2 -156.8" fill="url(#gradient4)" fill-rule="evenodd" stroke="none"/>
    <path d="M178.0 -121.2 L178.0 -120.2 -58.0 -120.2 -58.0 -121.2 178.0 -121.2 M224.15 -111.2 L228.2 -111.2 237.8 -87.5 -124.05 -87.5 -124.05 -111.2 224.15 -111.2" fill="url(#gradient5)" fill-rule="evenodd" stroke="none"/>
    <path d="M487.0 -120.2 L588.6 -120.2 600.6 -120.2 595.9 -117.25 586.1 -111.2 228.2 -111.2 224.15 -111.2 220.5 -120.2 248.55 -120.2 487.0 -120.2 M588.6 -120.2 L595.9 -117.25 588.6 -120.2" fill="url(#gradient6)" fill-rule="evenodd" stroke="none"/>
    <path d="M178.0 -120.2 L220.5 -120.2 224.15 -111.2 -124.05 -111.2 -124.05 -120.2 -58.0 -120.2 178.0 -120.2" fill="url(#gradient7)" fill-rule="evenodd" stroke="none"/>
    <path d="M623.9 -96.05 L630.25 -103.65 620.0 -122.05 620.15 -122.15 621.75 -122.15 623.4 -122.4 650.15 -91.75 623.9 -96.05 M619.95 -122.15 Q617.65 -122.25 616.05 -123.85 614.35 -125.55 614.35 -127.95 L614.35 -128.0 614.4 -128.45 Q614.5 -130.6 616.05 -132.15 617.75 -133.8 620.15 -133.8 L621.75 -133.8 Q624.15 -133.8 625.85 -132.15 627.35 -130.6 627.5 -128.45 L627.55 -128.0 627.55 -127.95 Q627.55 -125.55 625.85 -123.85 624.75 -122.8 623.4 -122.4 L621.75 -122.15 620.15 -122.15 619.95 -122.15" fill="url(#gradient8)" fill-rule="evenodd" stroke="none"/>
    <path d="M775.25 32.5 L981.3 28.7 834.25 147.9 Q827.65 153.5 825.95 157.6 L825.1 157.15 676.4 157.15 191.55 157.15 73.5 157.15 -124.05 157.15 -124.05 132.2 -123.0 131.45 -104.95 131.45 Q-102.75 133.35 -99.75 133.35 -96.75 133.35 -94.5 131.45 L-76.45 131.45 Q-74.25 133.35 -71.2 133.35 -68.2 133.35 -65.95 131.45 L-47.9 131.45 Q-45.7 133.35 -42.7 133.35 -39.65 133.35 -37.4 131.45 L-19.4 131.45 Q-17.2 133.35 -14.15 133.35 -11.15 133.35 -8.9 131.45 L9.15 131.45 Q11.35 133.35 14.4 133.35 17.4 133.35 19.65 131.45 L37.65 131.45 Q39.9 133.35 42.9 133.35 45.9 133.35 48.15 131.45 L66.2 131.45 Q68.4 133.35 71.45 133.35 74.45 133.35 76.7 131.45 L94.75 131.45 Q96.95 133.35 99.95 133.35 102.95 133.35 105.2 131.45 L123.25 131.45 Q125.45 133.35 128.5 133.35 131.5 133.35 133.75 131.45 L151.8 131.45 Q154.0 133.35 157.0 133.35 160.05 133.35 162.3 131.45 L180.3 131.45 Q182.5 133.35 185.55 133.35 188.55 133.35 190.8 131.45 L208.85 131.45 Q211.05 133.35 214.05 133.35 217.1 133.35 219.35 131.45 L237.35 131.45 Q239.6 133.35 242.6 133.35 245.6 133.35 247.85 131.45 L265.9 131.45 Q268.1 133.35 271.15 133.35 274.15 133.35 276.4 131.45 L294.4 131.45 Q296.65 133.35 299.65 133.35 302.65 133.35 304.9 131.45 L322.95 131.45 Q325.15 133.35 328.2 133.35 331.2 133.35 333.45 131.45 L351.5 131.45 Q353.7 133.35 356.7 133.35 359.7 133.35 361.95 131.45 L380.0 131.45 Q382.2 133.35 385.25 133.35 388.25 133.35 390.5 131.45 L408.55 131.45 Q410.75 133.35 413.75 133.35 416.8 133.35 419.05 131.45 L437.05 131.45 Q439.3 133.35 442.3 133.35 445.3 133.35 447.55 131.45 L465.6 131.45 Q467.8 133.35 470.85 133.35 473.85 133.35 476.1 131.45 L494.1 131.45 Q496.35 133.35 499.35 133.35 502.35 133.35 504.6 131.45 L522.65 131.45 Q524.85 133.35 527.9 133.35 531.15 133.35 533.55 131.1 535.7 129.0 535.85 126.2 L535.85 125.75 Q535.85 122.6 533.55 120.35 531.15 118.1 527.9 118.1 L526.5 118.2 526.5 106.65 734.45 106.65 734.45 53.15 526.5 53.15 526.5 32.5 775.25 32.5 M595.05 52.7 L943.05 40.45 943.05 40.15 847.25 41.45 700.1 42.2 611.45 43.6 595.05 52.7 M556.4 118.1 Q553.1 118.1 550.8 120.35 548.45 122.6 548.45 125.75 L548.45 126.2 Q548.6 129.0 550.8 131.1 553.1 133.35 556.4 133.35 559.7 133.35 562.05 131.1 564.25 129.0 564.4 126.2 L564.4 125.75 Q564.4 122.6 562.05 120.35 559.7 118.1 556.4 118.1 M584.95 118.1 Q581.65 118.1 579.3 120.35 576.95 122.6 576.95 125.75 L577.0 126.2 Q577.1 129.0 579.3 131.1 581.65 133.35 584.95 133.35 588.25 133.35 590.6 131.1 592.75 129.0 592.95 126.2 L592.95 125.75 Q592.95 122.6 590.6 120.35 588.25 118.1 584.95 118.1 M621.45 126.2 L621.45 125.75 Q621.45 122.6 619.15 120.35 616.75 118.1 613.45 118.1 610.15 118.1 607.85 120.35 605.5 122.6 605.5 125.75 L605.5 126.2 Q605.65 129.0 607.85 131.1 610.15 133.35 613.45 133.35 616.75 133.35 619.15 131.1 621.3 129.0 621.45 126.2" fill="url(#gradient9)" fill-rule="evenodd" stroke="none"/>
    <path d="M756.95 18.5 L775.25 32.5 526.5 32.5 526.5 18.5 756.95 18.5" fill="url(#gradient10)" fill-rule="evenodd" stroke="none"/>
    <path d="M832.25 172.6 L839.65 173.15 862.65 173.8 Q889.2 173.35 892.5 186.8 895.5 202.25 866.75 213.95 L866.0 214.45 Q826.5 229.6 787.05 227.2 L-795.8 227.2 -802.4 217.7 -869.55 211.7 -874.55 223.7 -890.25 224.3 -901.5 172.6 832.25 172.6" fill="url(#gradient11)" fill-rule="evenodd" stroke="none"/>
    <path d="M-609.3 -191.3 L-646.4 -256.9 -622.4 -256.9 -604.75 -234.15 Q-611.2 -214.55 -609.3 -191.3" fill="url(#gradient12)" fill-rule="evenodd" stroke="none"/>
    <path d="M-440.55 -120.2 L-715.1 -120.2 -715.1 -147.35 -595.35 -148.2 -603.6 -161.85 -603.65 -161.9 -604.25 -162.95 Q-608.2 -177.75 -609.3 -191.3 -611.2 -214.55 -604.75 -234.15 L-559.85 -176.1 -552.7 -166.7 -553.25 -166.3 -552.4 -166.3 -491.65 -154.55 -491.55 -154.55 -440.55 -120.2 M-559.85 -176.1 L-603.6 -161.85 -559.85 -176.1 M-594.9 -148.2 L-595.35 -148.2 -594.9 -148.2 -553.25 -166.3 -594.9 -148.2 Q-539.5 -147.35 -491.65 -154.55 -539.5 -147.35 -594.9 -148.2 M-100.95 -195.45 L-122.8 -195.6 -212.3 -196.25 -278.55 -203.6 -278.5 -204.05 -185.95 -209.5 -154.3 -211.35 -140.05 -212.2 -154.3 -211.35 -247.45 -265.7 -247.45 -266.35 -243.85 -266.35 -238.8 -266.35 -140.05 -212.2 -126.25 -213.0 -100.95 -195.45 M-143.85 -211.45 L-122.8 -195.6 -143.85 -211.45" fill="url(#gradient13)" fill-rule="evenodd" stroke="none"/>
    <path d="M-124.05 -120.2 L-363.55 -120.2 -333.8 -149.9 -30.7 -149.9 -58.0 -140.15 -58.0 -121.2 -58.0 -120.2 -124.05 -120.2" fill="url(#gradient14)" fill-rule="evenodd" stroke="none"/>
    <path d="M-278.5 -204.05 L-278.6 -204.05 -316.2 -274.15 -304.05 -274.15 -294.8 -274.15 -288.0 -274.15 -278.75 -274.15 -272.85 -274.15 -267.45 -274.15 -259.95 -267.65 -257.5 -265.7 -185.95 -209.5 -278.5 -204.05" fill="url(#gradient15)" fill-rule="evenodd" stroke="none"/>
    <path d="M650.15 -91.75 L658.75 -90.35 649.85 -67.1 756.95 18.5 775.25 32.5 981.3 28.7 834.25 147.9 Q827.65 153.5 825.95 157.6 L825.95 157.65 Q825.2 159.35 825.4 160.85 824.35 167.55 828.1 170.65 829.7 171.95 832.25 172.6 L839.65 173.15 862.65 173.8 Q889.2 173.35 892.5 186.8 895.5 202.25 866.75 213.95 M866.0 214.45 Q826.5 229.6 787.05 227.2 L-795.8 227.2 -802.4 217.7 -869.55 211.7 -874.55 223.7 -890.25 224.3 -901.5 172.6 -969.35 161.95 -969.35 157.15 -969.35 153.65 Q-955.75 146.6 -963.05 131.95 -980.85 92.85 -981.25 42.0 L-981.0 41.75 -973.45 34.25 -965.5 26.6 -956.75 18.4 -891.55 18.4 -890.4 16.9 -881.35 5.45 -943.05 5.45 -933.6 -3.1 -874.2 -3.1 -863.4 -15.4 -919.5 -15.4 -909.25 -23.95 -855.45 -23.95 -842.75 -37.1 -892.8 -37.1 -881.6 -45.65 -834.0 -45.65 -820.35 -58.4 -864.05 -58.4 -851.6 -66.95 -810.75 -66.95 Q-801.85 -74.75 -792.45 -82.45 L-827.65 -82.45 -828.75 -82.45 M207.35 -265.9 L207.15 -266.3 Q206.25 -266.55 205.55 -267.2 204.6 -268.15 204.6 -269.55 204.6 -270.95 205.55 -271.85 206.5 -272.85 207.9 -272.8 209.25 -272.85 210.2 -271.85 211.15 -270.95 211.15 -269.55 211.15 -268.15 210.2 -267.2 L210.15 -267.15 217.6 -258.0 246.95 -222.4 282.1 -221.45 267.85 -216.7 259.3 -216.7 274.5 -202.45 301.6 -202.45 295.45 -198.15 285.9 -198.15 309.1 -177.25 323.0 -177.25 366.45 -166.3 409.95 -155.35 391.0 -155.35 391.0 -139.5 460.35 -142.05 496.5 -131.1 487.0 -131.1 487.0 -120.2 588.6 -120.2 595.9 -117.25 601.65 -114.95 601.65 -99.75 623.9 -96.05 630.25 -103.65 620.0 -122.05 619.95 -122.15 Q617.65 -122.25 616.05 -123.85 614.35 -125.55 614.35 -127.95 L614.35 -128.0 614.4 -128.45 Q614.5 -130.6 616.05 -132.15 617.75 -133.8 620.15 -133.8 L621.75 -133.8 Q624.15 -133.8 625.85 -132.15 627.35 -130.6 627.5 -128.45 L627.55 -128.0 627.55 -127.95 Q627.55 -125.55 625.85 -123.85 624.75 -122.8 623.4 -122.4 L650.15 -91.75 M210.15 -267.15 Q209.2 -266.25 207.9 -266.25 L207.15 -266.3 M207.35 -265.9 L218.5 -248.15 248.9 -172.05 251.2 -166.3 224.6 -155.35 196.55 -155.35 186.15 -151.8 Q183.6 -148.05 179.35 -149.45 L174.2 -156.8 166.6 -156.8 166.55 -157.5 166.55 -172.7 Q166.55 -178.7 170.8 -183.0 175.1 -187.25 181.1 -187.2 187.05 -187.25 191.3 -183.0 195.55 -178.7 195.6 -172.7 L195.6 -157.3 195.55 -156.8 196.05 -156.8 M145.45 -137.85 L179.35 -149.45 M248.55 -120.2 L487.0 -120.2 M186.55 -156.8 L186.15 -151.8 M195.55 -156.8 L186.55 -156.8 174.2 -156.8 M178.0 -121.2 L178.0 -141.1 145.65 -137.3 M178.0 -121.2 L178.0 -120.2 220.5 -120.2 248.55 -120.2 M-124.05 -120.2 L-363.55 -120.2 -440.55 -120.2 -715.1 -120.2 -816.55 -120.2 -825.6 -112.0 -809.9 -93.15 Q-818.9 -87.9 -827.65 -82.45 M620.15 -122.15 L621.75 -122.15 623.4 -122.4 M619.95 -122.15 L620.15 -122.15 M-609.3 -191.3 L-646.4 -256.9 -622.4 -256.9 -604.75 -234.15 -559.85 -176.1 -552.7 -166.7 -552.4 -166.3 -491.65 -154.55 -491.55 -154.55 -440.55 -120.2 M-609.3 -191.3 Q-608.2 -177.75 -604.25 -162.95 L-603.65 -161.9 -603.6 -161.85 -595.35 -148.2 -715.1 -147.35 -715.1 -120.2 M-595.35 -148.2 L-594.9 -148.2 M-333.8 -149.9 L-333.8 -183.1 -279.4 -203.7 -280.75 -203.85 M-363.55 -120.2 L-333.8 -149.9 M-30.7 -149.9 L-14.4 -149.9 14.9 -177.25 -2.05 -187.0 -100.95 -195.45 -126.25 -213.0 -140.05 -212.2 -238.8 -266.35 -243.85 -266.35 -262.75 -303.25 -272.4 -303.2 -253.9 -266.35 -257.5 -265.7 M-278.55 -203.6 L-279.4 -203.7 -278.5 -204.05 -278.6 -204.05 -316.2 -274.15 -304.05 -274.15 -294.8 -274.15 -288.0 -274.15 -303.5 -303.0 -294.65 -303.05 -278.75 -274.15 -272.85 -274.15 -287.5 -303.05 -278.3 -303.15 -259.95 -267.65 -267.45 -274.15 -272.85 -274.15 M-304.05 -274.6 L-318.35 -302.85 -309.5 -302.95 -294.8 -274.15 M-247.45 -266.35 L-243.85 -266.35 M-247.45 -266.35 L-253.9 -266.35 M-288.0 -274.15 L-278.75 -274.15 M-58.0 -120.2 L-58.0 -121.2 -58.0 -140.15 -30.7 -149.9 M-124.05 -120.2 L-58.0 -120.2 178.0 -120.2 M-715.1 -147.35 L-715.1 -148.15" fill="none" stroke="#000000" stroke-linecap="round" stroke-linejoin="round" stroke-width="3.5"/>
    <path d="M248.9 -172.05 L262.15 -177.25 270.25 -166.3 251.2 -166.3 M-140.05 -212.2 L-154.3 -211.35 M-122.8 -195.6 L-143.85 -211.45" fill="none" stroke="#999999" stroke-linecap="round" stroke-linejoin="round" stroke-width="3.5"/>
    <path d="M650.15 -91.75 L623.9 -96.05 M262.15 -177.25 L217.6 -258.0 M262.15 -177.25 L309.1 -177.25 M391.0 -139.5 L267.85 -134.9 248.55 -120.2 M391.0 -155.35 L300.2 -155.35 178.0 -141.1 M270.25 -166.3 L366.45 -166.3 M-603.6 -161.85 L-559.85 -176.1 M-594.9 -148.2 L-553.25 -166.3 M-594.9 -148.2 Q-539.5 -147.35 -491.65 -154.55 M-333.8 -149.9 L-30.7 -149.9 M-100.95 -195.45 L-122.8 -195.6 -212.3 -196.25 -278.55 -203.6 M-604.75 -234.15 Q-611.2 -214.55 -609.3 -191.3 M-154.3 -211.35 L-185.95 -209.5 -278.5 -204.05 M-257.5 -265.7 L-185.95 -209.5" fill="none" stroke="#888888" stroke-linecap="round" stroke-linejoin="round" stroke-width="3.5"/>
    <path d="M-259.95 -267.65 L-257.5 -265.7" fill="none" stroke="#515151" stroke-linecap="round" stroke-linejoin="round" stroke-width="3.5"/>
    <path d="M-154.3 -211.35 L-247.45 -265.7" fill="none" stroke="#919191" stroke-linecap="round" stroke-linejoin="round" stroke-width="3.5"/>
    <path d="M-304.05 -274.6 L-318.35 -302.85 -309.5 -302.95 -294.8 -274.15 -304.05 -274.15 -304.05 -274.6 M-288.0 -274.15 L-303.5 -303.0 -294.65 -303.05 -278.75 -274.15 -288.0 -274.15 M-272.85 -274.15 L-287.5 -303.05 -278.3 -303.15 -259.95 -267.65 -267.45 -274.15 -272.85 -274.15 M-253.9 -266.35 L-272.4 -303.2 -262.75 -303.25 -243.85 -266.35 -247.45 -266.35 -253.9 -266.35" fill="#566065" fill-rule="evenodd" stroke="none"/>
    <path d="M210.15 -267.15 L217.6 -258.0 262.15 -177.25 270.25 -166.3 251.2 -166.3 248.9 -172.05 218.5 -248.15 207.35 -265.9 207.9 -266.25 Q209.2 -266.25 210.15 -267.15 M179.35 -149.45 L174.2 -156.8 186.55 -156.8 186.15 -151.8 Q183.6 -148.05 179.35 -149.45 M262.15 -177.25 L248.9 -172.05 262.15 -177.25 M-333.8 -149.9 L-333.8 -183.1 -279.4 -203.7 -278.55 -203.6 -212.3 -196.25 -122.8 -195.6 -100.95 -195.45 -2.05 -187.0 14.9 -177.25 -14.4 -149.9 -30.7 -149.9 -333.8 -149.9 M-154.3 -211.35 L-185.95 -209.5 -257.5 -265.7 -253.9 -266.35 -247.45 -266.35 -247.45 -265.7 -154.3 -211.35" fill="url(#gradient16)" fill-rule="evenodd" stroke="none"/>
    <path d="M217.6 -258.0 L246.95 -222.4 282.1 -221.45 267.85 -216.7 259.3 -216.7 274.5 -202.45 301.6 -202.45 295.45 -198.15 285.9 -198.15 309.1 -177.25 262.15 -177.25 217.6 -258.0" fill="url(#gradient17)" fill-rule="evenodd" stroke="none"/>
    <path d="M309.1 -177.25 L323.0 -177.25 366.45 -166.3 409.95 -155.35 391.0 -155.35 300.2 -155.35 178.0 -141.1 145.65 -137.3 145.45 -137.85 179.35 -149.45 Q183.6 -148.05 186.15 -151.8 L196.55 -155.35 224.6 -155.35 251.2 -166.3 270.25 -166.3 262.15 -177.25 309.1 -177.25 M366.45 -166.3 L270.25 -166.3 366.45 -166.3" fill="url(#gradient18)" fill-rule="evenodd" stroke="none"/>
    <path d="M391.0 -155.35 L391.0 -139.5 460.35 -142.05 496.5 -131.1 487.0 -131.1 487.0 -120.2 248.55 -120.2 178.0 -120.2 178.0 -141.1 300.2 -155.35 391.0 -155.35 M391.0 -139.5 L267.85 -134.9 248.55 -120.2 267.85 -134.9 391.0 -139.5" fill="url(#gradient19)" fill-rule="evenodd" stroke="none"/>
    <path d="M174.2 -156.8 L166.6 -156.8 166.55 -157.5 166.55 -172.7 Q166.55 -178.7 170.8 -183.0 175.1 -187.25 181.1 -187.2 187.05 -187.25 191.3 -183.0 195.55 -178.7 195.6 -172.7 L195.6 -157.3 195.55 -156.8 186.55 -156.8 174.2 -156.8" fill="url(#gradient20)" fill-rule="evenodd" stroke="none"/>
    <path d="M-609.3 -191.3 L-646.4 -256.9 -622.4 -256.9 -604.75 -234.15 Q-611.2 -214.55 -609.3 -191.3" fill="url(#gradient21)" fill-rule="evenodd" stroke="none"/>
    <path d="M-604.75 -234.15 L-559.85 -176.1 -552.7 -166.7 -553.25 -166.3 -552.4 -166.3 -491.65 -154.55 -491.55 -154.55 -440.55 -120.2 -715.1 -120.2 -715.1 -147.35 -595.35 -148.2 -603.6 -161.85 -603.65 -161.9 -604.25 -162.95 Q-608.2 -177.75 -609.3 -191.3 -611.2 -214.55 -604.75 -234.15 M-559.85 -176.1 L-603.6 -161.85 -559.85 -176.1 M-594.9 -148.2 L-595.35 -148.2 -594.9 -148.2 -553.25 -166.3 -594.9 -148.2 Q-539.5 -147.35 -491.65 -154.55 -539.5 -147.35 -594.9 -148.2 M-243.85 -266.35 L-238.8 -266.35 -140.05 -212.2 -126.25 -213.0 -100.95 -195.45 -122.8 -195.6 -212.3 -196.25 -278.55 -203.6 -278.5 -204.05 -185.95 -209.5 -154.3 -211.35 -140.05 -212.2 -154.3 -211.35 -247.45 -265.7 -247.45 -266.35 -243.85 -266.35 M-143.85 -211.45 L-122.8 -195.6 -143.85 -211.45" fill="url(#gradient22)" fill-rule="evenodd" stroke="none"/>
    <path d="M-363.55 -120.2 L-333.8 -149.9 -30.7 -149.9 -58.0 -140.15 -58.0 -120.2 -363.55 -120.2" fill="url(#gradient23)" fill-rule="evenodd" stroke="none"/>
    <path d="M-185.95 -209.5 L-278.5 -204.05 -278.6 -204.05 -316.2 -274.15 -304.05 -274.15 -294.8 -274.15 -288.0 -274.15 -278.75 -274.15 -272.85 -274.15 -267.45 -274.15 -259.95 -267.65 -257.5 -265.7 -185.95 -209.5" fill="url(#gradient24)" fill-rule="evenodd" stroke="none"/>
    <path d="M207.35 -265.9 L207.15 -266.3 Q206.25 -266.55 205.55 -267.2 204.6 -268.15 204.6 -269.55 204.6 -270.95 205.55 -271.85 206.5 -272.85 207.9 -272.8 209.25 -272.85 210.2 -271.85 211.15 -270.95 211.15 -269.55 211.15 -268.15 210.2 -267.2 L210.15 -267.15 217.6 -258.0 246.95 -222.4 282.1 -221.45 267.85 -216.7 259.3 -216.7 274.5 -202.45 301.6 -202.45 295.45 -198.15 285.9 -198.15 309.1 -177.25 323.0 -177.25 366.45 -166.3 409.95 -155.35 391.0 -155.35 391.0 -139.5 460.35 -142.05 496.5 -131.1 487.0 -131.1 487.0 -120.2 M178.0 -120.2 L178.0 -141.1 145.65 -137.3 M145.45 -137.85 L179.35 -149.45 174.2 -156.8 166.6 -156.8 166.55 -157.5 166.55 -172.7 Q166.55 -178.7 170.8 -183.0 175.1 -187.25 181.1 -187.2 187.05 -187.25 191.3 -183.0 195.55 -178.7 195.6 -172.7 L195.6 -157.3 195.55 -156.8 196.05 -156.8 M210.15 -267.15 Q209.2 -266.25 207.9 -266.25 L207.15 -266.3 M207.35 -265.9 L218.5 -248.15 248.9 -172.05 251.2 -166.3 224.6 -155.35 196.55 -155.35 186.15 -151.8 Q183.6 -148.05 179.35 -149.45 M186.55 -156.8 L186.15 -151.8 M195.55 -156.8 L186.55 -156.8 174.2 -156.8 M-604.75 -234.15 L-559.85 -176.1 -552.7 -166.7 -552.4 -166.3 -491.65 -154.55 -491.55 -154.55 -440.55 -120.2 M-715.1 -120.2 L-715.1 -147.35 -715.1 -148.15 M-609.3 -191.3 Q-608.2 -177.75 -604.25 -162.95 L-603.65 -161.9 -603.6 -161.85 -595.35 -148.2 -715.1 -147.35 M-595.35 -148.2 L-594.9 -148.2 M-333.8 -149.9 L-333.8 -183.1 -279.4 -203.7 -280.75 -203.85 M-333.8 -149.9 L-363.55 -120.2 M-58.0 -120.2 L-58.0 -140.15 -30.7 -149.9 -14.4 -149.9 14.9 -177.25 -2.05 -187.0 -100.95 -195.45 -126.25 -213.0 -140.05 -212.2 -238.8 -266.35 -243.85 -266.35 -247.45 -266.35 -253.9 -266.35 -272.4 -303.2 -262.75 -303.25 -243.85 -266.35 M-304.05 -274.6 L-318.35 -302.85 -309.5 -302.95 -294.8 -274.15 -288.0 -274.15 -303.5 -303.0 -294.65 -303.05 -278.75 -274.15 -272.85 -274.15 -287.5 -303.05 -278.3 -303.15 -259.95 -267.65 -267.45 -274.15 -272.85 -274.15 M-257.5 -265.7 L-253.9 -266.35 M-304.05 -274.15 L-316.2 -274.15 -278.6 -204.05 -278.5 -204.05 -279.4 -203.7 -278.55 -203.6 M-294.8 -274.15 L-304.05 -274.15 M-288.0 -274.15 L-278.75 -274.15" fill="none" stroke="#000000" stroke-linecap="round" stroke-linejoin="round" stroke-width="0.05"/>
    <path d="M248.9 -172.05 L262.15 -177.25 217.6 -258.0 M251.2 -166.3 L270.25 -166.3 262.15 -177.25 309.1 -177.25 M248.55 -120.2 L267.85 -134.9 391.0 -139.5 M391.0 -155.35 L300.2 -155.35 178.0 -141.1 M270.25 -166.3 L366.45 -166.3 M-609.3 -191.3 L-646.4 -256.9 -622.4 -256.9 -604.75 -234.15 Q-611.2 -214.55 -609.3 -191.3 M-603.6 -161.85 L-559.85 -176.1 M-594.9 -148.2 L-553.25 -166.3 M-594.9 -148.2 Q-539.5 -147.35 -491.65 -154.55 M-30.7 -149.9 L-333.8 -149.9 M-140.05 -212.2 L-154.3 -211.35 -185.95 -209.5 -278.5 -204.05 M-278.55 -203.6 L-212.3 -196.25 -122.8 -195.6 -143.85 -211.45 M-247.45 -265.7 L-154.3 -211.35 M-257.5 -265.7 L-185.95 -209.5" fill="none" stroke="#333333" stroke-linecap="round" stroke-linejoin="round" stroke-width="0.05"/>
    <path d="M-122.8 -195.6 L-100.95 -195.45" fill="none" stroke="#888888" stroke-linecap="round" stroke-linejoin="round" stroke-width="0.05"/>
    <path d="M-259.95 -267.65 L-257.5 -265.7" fill="none" stroke="#515151" stroke-linecap="round" stroke-linejoin="round" stroke-width="0.05"/>
  </g>
  <defs>
    <linearGradient gradientTransform="matrix(-0.2451, 0.0097, -0.0029, -0.0729, -178.55, -169.4)" gradientUnits="userSpaceOnUse" id="gradient0" spreadMethod="pad" x1="-819.2" x2="819.2">
      <stop offset="0.6823529411764706" stop-color="#fafafc"/>
      <stop offset="1.0" stop-color="#768598"/>
    </linearGradient>
    <linearGradient gradientTransform="matrix(0.0616, -0.0336, 0.0238, 0.0436, 262.2, -221.45)" gradientUnits="userSpaceOnUse" id="gradient1" spreadMethod="pad" x1="-819.2" x2="819.2">
      <stop offset="0.3803921568627451" stop-color="#fafafc"/>
      <stop offset="1.0" stop-color="#768598"/>
    </linearGradient>
    <linearGradient gradientTransform="matrix(0.0646, -0.0893, 0.0143, 0.0103, 365.0, -140.95)" gradientUnits="userSpaceOnUse" id="gradient2" spreadMethod="pad" x1="-819.2" x2="819.2">
      <stop offset="0.3803921568627451" stop-color="#fafafc"/>
      <stop offset="1.0" stop-color="#768598"/>
    </linearGradient>
    <linearGradient gradientTransform="matrix(0.1974, -0.0296, 0.002, 0.0132, 431.7, -142.15)" gradientUnits="userSpaceOnUse" id="gradient3" spreadMethod="pad" x1="-819.2" x2="819.2">
      <stop offset="0.3803921568627451" stop-color="#fafafc"/>
      <stop offset="1.0" stop-color="#768598"/>
    </linearGradient>
    <linearGradient gradientTransform="matrix(-0.0282, 0.001, -7.0E-4, -0.0188, 178.65, -171.35)" gradientUnits="userSpaceOnUse" id="gradient4" spreadMethod="pad" x1="-819.2" x2="819.2">
      <stop offset="0.47843137254901963" stop-color="#fafafc"/>
      <stop offset="1.0" stop-color="#768598"/>
    </linearGradient>
    <linearGradient gradientTransform="matrix(0.5172, 0.2994, -0.2048, 0.3539, 364.95, 59.55)" gradientUnits="userSpaceOnUse" id="gradient5" spreadMethod="pad" x1="-819.2" x2="819.2">
      <stop offset="0.6823529411764706" stop-color="#fafafc"/>
      <stop offset="1.0" stop-color="#768598"/>
    </linearGradient>
    <linearGradient gradientTransform="matrix(0.1649, -0.1649, 0.2191, 0.2191, 494.4, -23.15)" gradientUnits="userSpaceOnUse" id="gradient6" spreadMethod="pad" x1="-819.2" x2="819.2">
      <stop offset="0.6823529411764706" stop-color="#fafafc"/>
      <stop offset="1.0" stop-color="#768598"/>
    </linearGradient>
    <linearGradient gradientTransform="matrix(0.5172, 0.2994, -0.2048, 0.3539, 364.95, 69.55)" gradientUnits="userSpaceOnUse" id="gradient7" spreadMethod="pad" x1="-819.2" x2="819.2">
      <stop offset="0.6823529411764706" stop-color="#fafafc"/>
      <stop offset="1.0" stop-color="#768598"/>
    </linearGradient>
    <linearGradient gradientTransform="matrix(0.0395, -0.0187, 0.0077, 0.0161, 613.25, -105.05)" gradientUnits="userSpaceOnUse" id="gradient8" spreadMethod="pad" x1="-819.2" x2="819.2">
      <stop offset="0.6823529411764706" stop-color="#fafafc"/>
      <stop offset="1.0" stop-color="#768598"/>
    </linearGradient>
    <linearGradient gradientTransform="matrix(0.5172, 0.286, -0.2048, 0.3382, 364.95, 57.75)" gradientUnits="userSpaceOnUse" id="gradient9" spreadMethod="pad" x1="-819.2" x2="819.2">
      <stop offset="0.6823529411764706" stop-color="#fafafc"/>
      <stop offset="1.0" stop-color="#768598"/>
    </linearGradient>
    <linearGradient gradientTransform="matrix(0.1649, -0.1576, 0.2191, 0.2094, 494.4, -30.85)" gradientUnits="userSpaceOnUse" id="gradient10" spreadMethod="pad" x1="-819.2" x2="819.2">
      <stop offset="0.6823529411764706" stop-color="#fafafc"/>
      <stop offset="1.0" stop-color="#768598"/>
    </linearGradient>
    <linearGradient gradientTransform="matrix(0.0, 0.0335, -1.0951, 0.0, -4.3, 200.05)" gradientUnits="userSpaceOnUse" id="gradient11" spreadMethod="pad" x1="-819.2" x2="819.2">
      <stop offset="0.0" stop-color="#ab5d50"/>
      <stop offset="1.0" stop-color="#361d16"/>
    </linearGradient>
    <linearGradient gradientTransform="matrix(0.0484, 0.0449, -0.0163, 0.0175, -612.05, -230.3)" gradientUnits="userSpaceOnUse" id="gradient12" spreadMethod="pad" x1="-819.2" x2="819.2">
      <stop offset="0.3803921568627451" stop-color="#fafafc"/>
      <stop offset="1.0" stop-color="#768598"/>
    </linearGradient>
    <linearGradient gradientTransform="matrix(-0.2023, -0.0011, 3.0E-4, -0.0587, -581.1, -133.0)" gradientUnits="userSpaceOnUse" id="gradient13" spreadMethod="pad" x1="-819.2" x2="819.2">
      <stop offset="0.6823529411764706" stop-color="#fafafc"/>
      <stop offset="1.0" stop-color="#768598"/>
    </linearGradient>
    <linearGradient gradientTransform="matrix(-0.2075, 0.0547, -0.0154, -0.0585, -212.35, -135.4)" gradientUnits="userSpaceOnUse" id="gradient14" spreadMethod="pad" x1="-819.2" x2="819.2">
      <stop offset="0.6823529411764706" stop-color="#fafafc"/>
      <stop offset="1.0" stop-color="#768598"/>
    </linearGradient>
    <linearGradient gradientTransform="matrix(-0.0642, 0.028, -0.0234, -0.0535, -252.3, -240.9)" gradientUnits="userSpaceOnUse" id="gradient15" spreadMethod="pad" x1="-819.2" x2="819.2">
      <stop offset="0.6823529411764706" stop-color="#fafafc"/>
      <stop offset="1.0" stop-color="#768598"/>
    </linearGradient>
    <linearGradient gradientTransform="matrix(-0.2451, 0.0097, -0.0029, -0.0729, -178.55, -169.4)" gradientUnits="userSpaceOnUse" id="gradient16" spreadMethod="pad" x1="-819.2" x2="819.2">
      <stop offset="0.6823529411764706" stop-color="#fafafc"/>
      <stop offset="1.0" stop-color="#768598"/>
    </linearGradient>
    <linearGradient gradientTransform="matrix(0.0616, -0.0336, 0.0238, 0.0436, 262.2, -221.45)" gradientUnits="userSpaceOnUse" id="gradient17" spreadMethod="pad" x1="-819.2" x2="819.2">
      <stop offset="0.3803921568627451" stop-color="#fafafc"/>
      <stop offset="1.0" stop-color="#768598"/>
    </linearGradient>
    <linearGradient gradientTransform="matrix(0.0646, -0.0893, 0.0143, 0.0103, 365.0, -140.95)" gradientUnits="userSpaceOnUse" id="gradient18" spreadMethod="pad" x1="-819.2" x2="819.2">
      <stop offset="0.3803921568627451" stop-color="#fafafc"/>
      <stop offset="1.0" stop-color="#768598"/>
    </linearGradient>
    <linearGradient gradientTransform="matrix(0.1974, -0.0296, 0.002, 0.0132, 431.7, -142.15)" gradientUnits="userSpaceOnUse" id="gradient19" spreadMethod="pad" x1="-819.2" x2="819.2">
      <stop offset="0.3803921568627451" stop-color="#fafafc"/>
      <stop offset="1.0" stop-color="#768598"/>
    </linearGradient>
    <linearGradient gradientTransform="matrix(-0.0282, 0.001, -7.0E-4, -0.0188, 178.65, -171.35)" gradientUnits="userSpaceOnUse" id="gradient20" spreadMethod="pad" x1="-819.2" x2="819.2">
      <stop offset="0.47843137254901963" stop-color="#fafafc"/>
      <stop offset="1.0" stop-color="#768598"/>
    </linearGradient>
    <linearGradient gradientTransform="matrix(0.0484, 0.0449, -0.0163, 0.0175, -612.05, -230.3)" gradientUnits="userSpaceOnUse" id="gradient21" spreadMethod="pad" x1="-819.2" x2="819.2">
      <stop offset="0.3803921568627451" stop-color="#fafafc"/>
      <stop offset="1.0" stop-color="#768598"/>
    </linearGradient>
    <linearGradient gradientTransform="matrix(-0.2023, -0.0011, 3.0E-4, -0.0587, -581.1, -133.0)" gradientUnits="userSpaceOnUse" id="gradient22" spreadMethod="pad" x1="-819.2" x2="819.2">
      <stop offset="0.6823529411764706" stop-color="#fafafc"/>
      <stop offset="1.0" stop-color="#768598"/>
    </linearGradient>
    <linearGradient gradientTransform="matrix(-0.2075, 0.0547, -0.0154, -0.0585, -212.35, -135.4)" gradientUnits="userSpaceOnUse" id="gradient23" spreadMethod="pad" x1="-819.2" x2="819.2">
      <stop offset="0.6823529411764706" stop-color="#fafafc"/>
      <stop offset="1.0" stop-color="#768598"/>
    </linearGradient>
    <linearGradient gradientTransform="matrix(-0.0642, 0.028, -0.0234, -0.0535, -252.3, -240.9)" gradientUnits="userSpaceOnUse" id="gradient24" spreadMethod="pad" x1="-819.2" x2="819.2">
      <stop offset="0.6823529411764706" stop-color="#fafafc"/>
      <stop offset="1.0" stop-color="#768598"/>
    </linearGradient>
  </defs>
</svg>
