<?xml version="1.0" encoding="UTF-8" standalone="no"?>
<svg xmlns:ffdec="https://www.free-decompiler.com/flash" xmlns:xlink="http://www.w3.org/1999/xlink" ffdec:objectType="shape" height="41.8px" width="33.25px" xmlns="http://www.w3.org/2000/svg">
  <g transform="matrix(1.0, 0.0, 0.0, 1.0, 16.75, 20.85)">
    <path d="M-10.7 -7.25 L-10.05 -9.95 -9.0 -11.5 Q-7.5 -12.95 -6.95 -15.05 -6.3 -17.5 -3.9 -18.45 L2.05 -20.85 Q4.1 -19.9 6.0 -18.5 8.4 -16.85 7.5 -14.15 L8.9 -12.7 Q10.6 -10.85 11.15 -8.6 L10.25 -5.0 11.7 -3.75 12.2 5.9 10.3 5.0 2.65 3.65 2.15 -0.45 Q6.2 -1.8 7.25 -6.1 8.8 -12.7 3.15 -16.05 1.6 -16.9 -0.2 -16.8 -3.9 -16.15 -5.4 -13.05 -8.45 -6.8 -3.8 -1.95 -2.8 -0.9 -1.55 -0.55 L-2.2 3.3 -9.5 5.2 -11.65 6.35 -10.75 -2.3 -9.8 -2.3 Q-7.8 -2.75 -7.2 -4.65 L-7.3 -5.05 Q-8.2 -7.45 -10.7 -7.25" fill="#663300" fill-rule="evenodd" stroke="none"/>
    <path d="M3.1 -12.85 Q2.5 -12.85 2.1 -12.45 1.7 -12.05 1.7 -11.45 1.7 -10.85 2.1 -10.45 2.5 -10.05 3.1 -10.05 3.7 -10.05 4.1 -10.45 4.5 -10.85 4.5 -11.45 4.5 -12.05 4.1 -12.45 3.7 -12.85 3.1 -12.85 M-10.7 -7.25 Q-8.2 -7.45 -7.3 -5.05 L-7.2 -4.65 Q-7.8 -2.75 -9.8 -2.3 L-10.75 -2.3 -11.65 6.35 -9.5 5.2 -8.5 9.65 Q-11.8 11.75 -15.7 12.65 L-16.05 12.55 Q-17.1 10.65 -16.55 8.55 L-12.9 -3.9 -12.5 -5.35 Q-12.2 -6.9 -10.7 -7.25 M-2.2 3.3 L-1.55 -0.55 Q-2.8 -0.9 -3.8 -1.95 -8.45 -6.8 -5.4 -13.05 -3.9 -16.15 -0.2 -16.8 1.6 -16.9 3.15 -16.05 8.8 -12.7 7.25 -6.1 6.2 -1.8 2.15 -0.45 L2.65 3.65 Q2.6 5.05 1.85 5.95 1.05 6.85 0.05 6.75 -0.95 6.65 -1.6 5.65 -2.25 4.6 -2.2 3.3 M10.3 5.0 L12.2 5.9 11.7 -3.75 10.25 -5.0 11.15 -8.6 Q13.2 -10.25 15.25 -8.8 L15.35 -8.5 Q16.05 -6.85 14.85 -5.4 16.9 2.85 16.4 10.95 L16.05 11.2 Q12.9 11.2 9.85 9.95 L10.3 5.0 M0.85 -7.95 Q-2.9 -7.55 -3.8 -3.6 L4.5 -3.8 Q4.3 -7.35 0.85 -7.95 M13.15 7.9 L12.2 5.9 13.15 7.9 M14.85 -5.4 L14.35 -5.0 14.85 -5.4 M-2.55 -12.85 Q-3.15 -12.85 -3.55 -12.45 -3.95 -12.05 -3.95 -11.45 -3.95 -10.85 -3.55 -10.45 -3.15 -10.05 -2.55 -10.05 -1.95 -10.05 -1.55 -10.45 -1.15 -10.85 -1.15 -11.45 -1.15 -12.05 -1.55 -12.45 -1.95 -12.85 -2.55 -12.85 M-12.55 9.7 L-11.65 6.35 -12.55 9.7" fill="#ffcc99" fill-rule="evenodd" stroke="none"/>
    <path d="M3.1 -12.85 Q3.7 -12.85 4.1 -12.45 4.5 -12.05 4.5 -11.45 4.5 -10.85 4.1 -10.45 3.7 -10.05 3.1 -10.05 2.5 -10.05 2.1 -10.45 1.7 -10.85 1.7 -11.45 1.7 -12.05 2.1 -12.45 2.5 -12.85 3.1 -12.85 M-2.55 -12.85 Q-1.95 -12.85 -1.55 -12.45 -1.15 -12.05 -1.15 -11.45 -1.15 -10.85 -1.55 -10.45 -1.95 -10.05 -2.55 -10.05 -3.15 -10.05 -3.55 -10.45 -3.95 -10.85 -3.95 -11.45 -3.95 -12.05 -3.55 -12.45 -3.15 -12.85 -2.55 -12.85" fill="#000000" fill-rule="evenodd" stroke="none"/>
    <path d="M0.85 -7.95 Q4.3 -7.35 4.5 -3.8 L-3.8 -3.6 Q-2.9 -7.55 0.85 -7.95" fill="#ffffff" fill-rule="evenodd" stroke="none"/>
    <path d="M-9.5 5.2 L-2.2 3.3 Q-2.25 4.6 -1.6 5.65 -0.95 6.65 0.05 6.75 1.05 6.85 1.85 5.95 2.6 5.05 2.65 3.65 L10.3 5.0 9.85 9.95 6.45 8.85 Q8.3 11.0 6.75 13.4 L5.4 13.9 5.1 14.5 Q3.95 17.45 4.65 20.6 L4.75 20.95 4.7 20.95 -4.8 20.95 -5.0 20.95 -4.75 20.75 -5.25 14.6 -6.95 14.35 -8.15 13.45 Q-9.55 11.15 -7.6 9.35 L-8.5 9.65 -9.5 5.2 M4.7 20.95 L4.65 20.6 4.7 20.95 M2.15 13.3 L5.4 13.9 2.15 13.3 M5.4 7.65 L6.45 8.85 5.4 7.65 M-3.0 14.0 L-5.25 14.6 -3.0 14.0 M-4.8 20.95 L-4.75 20.75 -4.8 20.95" fill="#ff3333" fill-rule="evenodd" stroke="none"/>
    <path d="M11.15 -8.6 Q10.6 -10.85 8.9 -12.7 L7.5 -14.15 Q8.4 -16.85 6.0 -18.5 4.1 -19.9 2.05 -20.85 L-3.9 -18.45 Q-6.3 -17.5 -6.95 -15.05 -7.5 -12.95 -9.0 -11.5 L-10.05 -9.95 -10.7 -7.25 Q-8.2 -7.45 -7.3 -5.05 L-7.2 -4.65 Q-7.8 -2.75 -9.8 -2.3 L-10.75 -2.3 -11.65 6.35 -9.5 5.2 -2.2 3.3 -1.55 -0.55 Q-2.8 -0.9 -3.8 -1.95 -8.45 -6.8 -5.4 -13.05 -3.9 -16.15 -0.2 -16.8 1.6 -16.9 3.15 -16.05 8.8 -12.7 7.25 -6.1 6.2 -1.8 2.15 -0.45 L2.65 3.65 10.3 5.0 12.2 5.9 11.7 -3.75 10.25 -5.0 11.15 -8.6 Q13.2 -10.25 15.25 -8.8 L15.35 -8.5 Q16.05 -6.85 14.85 -5.4 16.9 2.85 16.4 10.95 L16.05 11.2 Q12.9 11.2 9.85 9.95 L6.45 8.85 Q8.3 11.0 6.75 13.4 L5.4 13.9 5.1 14.5 Q3.95 17.45 4.65 20.6 L4.7 20.95 4.75 20.95 M-4.75 20.75 L-5.25 14.6 -6.95 14.35 -8.15 13.45 Q-9.55 11.15 -7.6 9.35 L-8.5 9.65 Q-11.8 11.75 -15.7 12.65 L-16.05 12.55 Q-17.1 10.65 -16.55 8.55 L-12.9 -3.9 -12.5 -5.35 Q-12.2 -6.9 -10.7 -7.25 M0.85 -7.95 Q-2.9 -7.55 -3.8 -3.6 L4.5 -3.8 Q4.3 -7.35 0.85 -7.95 M14.35 -5.0 L14.85 -5.4 M12.2 5.9 L13.15 7.9 M2.65 3.65 Q2.6 5.05 1.85 5.95 1.05 6.85 0.05 6.75 -0.95 6.65 -1.6 5.65 -2.25 4.6 -2.2 3.3 M6.45 8.85 L5.4 7.65 M5.4 13.9 L2.15 13.3 M9.85 9.95 L10.3 5.0 M-8.5 9.65 L-9.5 5.2 M-11.65 6.35 L-12.55 9.7 M-4.75 20.75 L-4.8 20.95 M-5.25 14.6 L-3.0 14.0" fill="none" stroke="#000000" stroke-linecap="round" stroke-linejoin="round" stroke-width="0.05"/>
  </g>
</svg>
