<?xml version="1.0" encoding="UTF-8" standalone="no"?>
<svg xmlns:ffdec="https://www.free-decompiler.com/flash" xmlns:xlink="http://www.w3.org/1999/xlink" ffdec:objectType="shape" height="22.65px" width="73.8px" xmlns="http://www.w3.org/2000/svg">
  <g transform="matrix(1.0, 0.0, 0.0, 1.0, 36.9, 11.35)">
    <path d="M-28.45 2.05 Q-28.25 3.95 -26.85 5.35 -25.15 7.0 -22.75 7.0 -20.4 7.0 -18.7 5.35 -17.3 3.95 -17.05 2.05 -16.75 3.95 -15.35 5.35 -13.65 7.0 -11.25 7.0 -8.85 7.0 -7.15 5.35 -5.8 3.95 -5.55 2.05 -5.2 3.95 -3.8 5.35 -2.15 7.0 0.25 7.0 2.65 7.0 4.35 5.35 5.7 3.95 6.05 2.05 6.3 3.95 7.7 5.35 9.35 7.0 11.75 7.0 14.15 7.0 15.85 5.35 17.2 3.95 17.5 2.05 17.8 3.95 19.2 5.35 20.9 7.0 23.3 7.0 25.65 7.0 27.35 5.35 28.75 3.95 29.0 2.05 28.75 3.95 27.35 5.35 25.65 7.0 23.3 7.0 20.9 7.0 19.2 5.35 17.8 3.95 17.5 2.05 17.2 3.95 15.85 5.35 14.15 7.0 11.75 7.0 9.35 7.0 7.7 5.35 6.3 3.95 6.05 2.05 5.7 3.95 4.35 5.35 2.65 7.0 0.25 7.0 -2.15 7.0 -3.8 5.35 -5.2 3.95 -5.55 2.05 -5.8 3.95 -7.15 5.35 -8.85 7.0 -11.25 7.0 -13.65 7.0 -15.35 5.35 -16.75 3.95 -17.05 2.05 -17.3 3.95 -18.7 5.35 -20.4 7.0 -22.75 7.0 -25.15 7.0 -26.85 5.35 -28.25 3.95 -28.45 2.05 M-36.9 -0.05 L-8.85 0.0 1.0 0.0 10.25 0.0 36.9 0.0 Q36.9 4.7 33.6 8.0 30.3 11.3 25.6 11.3 L-25.6 11.3 Q-30.3 11.3 -33.6 8.0 -36.9 4.7 -36.9 0.0 L-36.9 -0.05" fill="url(#gradient0)" fill-rule="evenodd" stroke="none"/>
    <path d="M36.9 0.0 L10.25 0.0 1.0 0.0 -8.85 0.0 -36.9 -0.05 Q-36.9 -4.75 -33.6 -8.05 -30.3 -11.35 -25.6 -11.35 L-12.3 -11.35 0.85 -11.35 14.55 -11.35 25.6 -11.35 Q30.3 -11.35 33.6 -8.05 36.9 -4.75 36.9 -0.05 L36.9 0.0 M10.25 0.0 Q12.0 -6.0 14.55 -11.35 12.0 -6.0 10.25 0.0 M-8.85 0.0 Q-10.15 -6.85 -12.3 -11.35 -10.15 -6.85 -8.85 0.0 M0.85 -11.35 L1.0 0.0 0.85 -11.35" fill="url(#gradient1)" fill-rule="evenodd" stroke="none"/>
    <path d="M36.9 0.0 L10.25 0.0 1.0 0.0 -8.85 0.0 -36.9 -0.05 -36.9 0.0 Q-36.9 4.7 -33.6 8.0 -30.3 11.3 -25.6 11.3 L25.6 11.3 Q30.3 11.3 33.6 8.0 36.9 4.7 36.9 0.0 L36.9 -0.05 Q36.9 -4.75 33.6 -8.05 30.3 -11.35 25.6 -11.35 L14.55 -11.35 0.85 -11.35 -12.3 -11.35 -25.6 -11.35 Q-30.3 -11.35 -33.6 -8.05 -36.9 -4.75 -36.9 -0.05" fill="none" stroke="#000000" stroke-linecap="round" stroke-linejoin="round" stroke-width="0.05"/>
    <path d="M29.0 2.05 Q28.75 3.95 27.35 5.35 25.65 7.0 23.3 7.0 20.9 7.0 19.2 5.35 17.8 3.95 17.5 2.05 17.2 3.95 15.85 5.35 14.15 7.0 11.75 7.0 9.35 7.0 7.7 5.35 6.3 3.95 6.05 2.05 5.7 3.95 4.35 5.35 2.65 7.0 0.25 7.0 -2.15 7.0 -3.8 5.35 -5.2 3.95 -5.55 2.05 -5.8 3.95 -7.15 5.35 -8.85 7.0 -11.25 7.0 -13.65 7.0 -15.35 5.35 -16.75 3.95 -17.05 2.05 -17.3 3.95 -18.7 5.35 -20.4 7.0 -22.75 7.0 -25.15 7.0 -26.85 5.35 -28.25 3.95 -28.45 2.05" fill="none" stroke="#000000" stroke-linecap="round" stroke-linejoin="round" stroke-width="1.0"/>
    <path d="M14.55 -11.35 Q12.0 -6.0 10.25 0.0 M1.0 0.0 L0.85 -11.35 M-12.3 -11.35 Q-10.15 -6.85 -8.85 0.0" fill="none" stroke="#000000" stroke-linecap="round" stroke-linejoin="round" stroke-width="0.05"/>
  </g>
  <defs>
    <linearGradient gradientTransform="matrix(0.0, 0.0069, -0.045, 0.0, 0.0, 5.6)" gradientUnits="userSpaceOnUse" id="gradient0" spreadMethod="pad" x1="-819.2" x2="819.2">
      <stop offset="0.41568627450980394" stop-color="#ff9900"/>
      <stop offset="0.8784313725490196" stop-color="#c17402"/>
    </linearGradient>
    <linearGradient gradientTransform="matrix(-1.0E-4, 0.0074, -0.0163, -2.0E-4, 23.45, -4.5)" gradientUnits="userSpaceOnUse" id="gradient1" spreadMethod="pad" x1="-819.2" x2="819.2">
      <stop offset="0.17647058823529413" stop-color="#fee892"/>
      <stop offset="0.5647058823529412" stop-color="#ff9900"/>
    </linearGradient>
  </defs>
</svg>
