<?xml version="1.0" encoding="UTF-8" standalone="no"?>
<svg xmlns:ffdec="https://www.free-decompiler.com/flash" xmlns:xlink="http://www.w3.org/1999/xlink" ffdec:objectType="shape" height="53.2px" width="84.3px" xmlns="http://www.w3.org/2000/svg">
  <g transform="matrix(1.0, 0.0, 0.0, 1.0, 42.15, 26.6)">
    <path d="M34.15 -26.6 Q42.15 -26.6 42.15 -18.6 L42.15 18.6 Q42.15 26.6 34.15 26.6 L-34.15 26.6 Q-42.15 26.6 -42.15 18.6 L-42.15 -18.6 Q-42.15 -26.6 -34.15 -26.6 L34.15 -26.6" fill="url(#gradient0)" fill-rule="evenodd" stroke="none"/>
    <path d="M34.15 -26.6 L-34.15 -26.6 Q-42.15 -26.6 -42.15 -18.6 L-42.15 18.6 Q-42.15 26.6 -34.15 26.6 L34.15 26.6 Q42.15 26.6 42.15 18.6 L42.15 -18.6 Q42.15 -26.6 34.15 -26.6 Z" fill="none" stroke="#000000" stroke-linecap="round" stroke-linejoin="round" stroke-width="0.05"/>
    <path d="M26.2 18.95 L26.2 -24.35 20.4 -24.35 20.4 18.95 -22.2 18.95 -22.2 -24.5 -28.0 -24.5 -28.0 18.95 -42.15 18.95 -42.15 18.6 -42.15 -18.6 Q-42.15 -26.6 -34.15 -26.6 L34.15 -26.6 Q42.15 -26.6 42.15 -18.6 L42.15 18.6 42.15 18.95 26.2 18.95" fill="url(#gradient1)" fill-rule="evenodd" stroke="none"/>
    <path d="M20.4 18.95 L20.4 -24.35 26.2 -24.35 26.2 18.95 20.4 18.95 M-28.0 18.95 L-28.0 -24.5 -22.2 -24.5 -22.2 18.95 -28.0 18.95" fill="#f2f2f2" fill-rule="evenodd" stroke="none"/>
    <path d="M26.2 18.95 L42.15 18.95 42.15 19.2 Q41.85 26.6 34.15 26.6 L-34.15 26.6 Q-41.85 26.6 -42.15 19.2 L-42.15 18.95 -28.0 18.95 -22.2 18.95 20.4 18.95 26.2 18.95" fill="#eaeaea" fill-rule="evenodd" stroke="none"/>
    <path d="M20.4 18.95 L20.4 -24.35 26.2 -24.35 26.2 18.95 42.15 18.95 42.15 18.6 42.15 -18.6 Q42.15 -26.6 34.15 -26.6 L-34.15 -26.6 Q-42.15 -26.6 -42.15 -18.6 L-42.15 18.6 -42.15 18.95 -28.0 18.95 -28.0 -24.5 -22.2 -24.5 -22.2 18.95 20.4 18.95 26.2 18.95 M42.15 18.95 L42.15 19.2 Q41.85 26.6 34.15 26.6 L-34.15 26.6 Q-41.85 26.6 -42.15 19.2 L-42.15 18.95 M-28.0 18.95 L-22.2 18.95" fill="none" stroke="#000000" stroke-linecap="round" stroke-linejoin="round" stroke-width="0.05"/>
  </g>
  <defs>
    <linearGradient gradientTransform="matrix(0.0, -0.0325, 0.0515, 0.0, 0.0, 0.0)" gradientUnits="userSpaceOnUse" id="gradient0" spreadMethod="pad" x1="-819.2" x2="819.2">
      <stop offset="0.17647058823529413" stop-color="#c6c9d2"/>
      <stop offset="0.5647058823529412" stop-color="#777b98"/>
    </linearGradient>
    <linearGradient gradientTransform="matrix(0.0, -0.0325, 0.0515, 0.0, 0.0, 0.0)" gradientUnits="userSpaceOnUse" id="gradient1" spreadMethod="pad" x1="-819.2" x2="819.2">
      <stop offset="0.17647058823529413" stop-color="#c6c9d2"/>
      <stop offset="0.5647058823529412" stop-color="#777b98"/>
    </linearGradient>
  </defs>
</svg>
