<?xml version="1.0" encoding="UTF-8" standalone="no"?>
<svg xmlns:ffdec="https://www.free-decompiler.com/flash" xmlns:xlink="http://www.w3.org/1999/xlink" ffdec:objectType="shape" height="120.0px" width="350.0px" xmlns="http://www.w3.org/2000/svg">
  <g transform="matrix(1.0, 0.0, 0.0, 1.0, 175.0, 60.0)">
    <path d="M133.0 -21.0 L133.0 -55.0 132.0 -55.0 132.0 -21.0 130.0 -21.0 130.0 -55.0 128.0 -55.0 -170.0 -55.0 -170.0 -21.0 170.0 -21.0 170.0 -55.0 135.0 -55.0 135.0 -21.0 133.0 -21.0 M173.0 -57.0 L172.7 -57.7 172.0 -58.0 -172.0 -58.0 Q-172.45 -58.0 -172.7 -57.7 L-173.0 -57.0 -173.0 57.0 -172.7 57.7 Q-172.45 58.0 -172.0 58.0 L172.0 58.0 172.7 57.7 173.0 57.0 173.0 -57.0 M174.7 -59.7 L175.0 -58.95 175.0 59.0 174.7 59.7 Q174.4 60.0 174.0 60.0 L-174.0 60.0 Q-174.45 60.0 -174.7 59.7 L-175.0 59.0 -175.0 -58.95 -174.7 -59.7 Q-174.45 -60.0 -174.0 -60.0 L174.0 -60.0 Q174.4 -60.0 174.7 -59.7 M171.9 -19.0 L-172.1 -19.0 -172.1 -21.0 -172.0 -21.0 -172.0 -57.0 172.0 -57.0 172.0 57.0 -172.0 57.0 -172.0 -16.0 -172.1 -16.0 -172.1 -18.0 171.9 -18.0 171.9 -19.0 M170.0 55.0 L170.0 -16.0 -170.0 -16.0 -170.0 55.0 170.0 55.0" fill="#000000" fill-rule="evenodd" stroke="none"/>
    <path d="M133.0 -21.0 L135.0 -21.0 135.0 -55.0 170.0 -55.0 170.0 -21.0 -170.0 -21.0 -170.0 -55.0 128.0 -55.0 130.0 -55.0 130.0 -21.0 132.0 -21.0 133.0 -21.0 M128.0 -23.0 L128.0 -53.0 -168.0 -53.0 -168.0 -23.0 128.0 -23.0 M170.0 55.0 L-170.0 55.0 -170.0 -16.0 170.0 -16.0 170.0 55.0" fill="#25272d" fill-rule="evenodd" stroke="none"/>
    <path d="M132.0 -21.0 L132.0 -55.0 133.0 -55.0 133.0 -21.0 132.0 -21.0 M173.0 -57.0 L173.0 57.0 172.7 57.7 172.0 58.0 -172.0 58.0 Q-172.45 58.0 -172.7 57.7 L-173.0 57.0 -173.0 -57.0 -172.7 -57.7 Q-172.45 -58.0 -172.0 -58.0 L172.0 -58.0 172.7 -57.7 173.0 -57.0 M171.9 -19.0 L171.9 -18.0 -172.1 -18.0 -172.1 -16.0 -172.0 -16.0 -172.0 57.0 172.0 57.0 172.0 -57.0 -172.0 -57.0 -172.0 -21.0 -172.1 -21.0 -172.1 -19.0 171.9 -19.0" fill="#4a4f5a" fill-rule="evenodd" stroke="none"/>
    <path d="M128.0 -23.0 L-168.0 -23.0 -168.0 -53.0 128.0 -53.0 128.0 -23.0" fill="#101113" fill-rule="evenodd" stroke="none"/>
  </g>
</svg>
