<?xml version="1.0" encoding="UTF-8" standalone="no"?>
<svg xmlns:ffdec="https://www.free-decompiler.com/flash" xmlns:xlink="http://www.w3.org/1999/xlink" ffdec:objectType="shape" height="742.45px" width="275.4px" xmlns="http://www.w3.org/2000/svg">
  <g transform="matrix(1.0, 0.0, 0.0, 1.0, 143.4, 494.45)">
    <path d="M89.75 22.3 Q97.15 54.2 78.9 70.05 68.05 79.4 46.7 83.15 28.65 86.35 6.7 92.7 L-1.55 95.15 -1.9 95.05 Q-28.6 86.9 -49.8 83.15 -71.15 79.4 -82.0 70.05 -100.2 54.25 -92.85 22.45 L-92.85 22.3 Q7.0 15.1 89.75 22.3" fill="#ffffff" fill-rule="evenodd" stroke="none"/>
    <path d="M125.25 12.6 Q126.95 26.9 127.0 40.75 119.45 42.45 104.55 37.05 99.85 31.75 100.3 24.95 L100.5 23.15 Q123.3 23.75 125.25 12.6 M-102.0 22.95 Q-102.3 28.35 -107.45 36.3 -121.85 39.95 -138.35 39.45 -138.05 26.25 -135.75 12.6 -133.55 24.3 -102.0 22.95" fill="#333333" fill-rule="evenodd" stroke="none"/>
    <path d="M100.5 23.15 L100.3 24.95 Q99.85 31.75 104.55 37.05 119.45 42.45 127.0 40.75 127.0 67.5 120.6 92.7 L119.6 96.45 Q76.8 109.9 -1.55 111.3 L-1.55 95.15 -1.55 111.3 -1.9 111.3 Q-82.25 108.95 -130.15 95.3 -139.05 68.45 -138.35 39.45 -121.85 39.95 -107.45 36.3 -102.3 28.35 -102.0 22.95 L-97.05 22.65 -94.05 22.4 -93.35 22.35 -92.85 22.45 Q-100.2 54.25 -82.0 70.05 -71.15 79.4 -49.8 83.15 -28.6 86.9 -1.9 95.05 L-1.55 95.15 6.7 92.7 Q28.65 86.35 46.7 83.15 68.05 79.4 78.9 70.05 97.15 54.2 89.75 22.3 L100.5 23.15" fill="url(#gradient0)" fill-rule="evenodd" stroke="none"/>
    <path d="M119.6 96.45 Q113.45 118.8 101.35 140.3 L100.05 140.8 Q78.75 148.9 40.35 151.9 L39.45 152.0 -1.55 153.65 -1.55 111.3 Q76.8 109.9 119.6 96.45" fill="url(#gradient1)" fill-rule="evenodd" stroke="none"/>
    <path d="M-130.15 95.3 Q-82.25 108.95 -1.9 111.3 L-1.55 111.3 -1.55 153.65 -1.9 153.65 -2.05 153.65 -2.05 152.0 -2.05 153.65 -2.45 153.65 Q-20.85 153.95 -39.3 152.7 L-55.65 151.3 Q-81.6 149.15 -106.0 140.3 -122.75 117.65 -130.15 95.3 M-42.85 151.75 L-39.3 152.7 -42.85 151.75" fill="url(#gradient2)" fill-rule="evenodd" stroke="none"/>
    <path d="M39.45 152.0 Q9.05 159.7 6.25 182.75 L4.8 229.65 Q4.25 241.35 -1.25 242.5 L-1.9 242.35 -2.05 242.3 Q-6.8 240.5 -7.3 229.65 L-8.75 182.75 Q-11.45 160.7 -39.3 152.7 -20.85 153.95 -2.45 153.65 L-2.05 153.65 -1.9 153.65 -1.55 153.65 39.45 152.0" fill="#3a0101" fill-rule="evenodd" stroke="none"/>
    <path d="M125.25 12.6 Q123.3 23.75 100.5 23.15 L89.75 22.3 Q7.0 15.1 -92.85 22.3 L-93.1 22.35 -94.05 22.4 -97.05 22.65 -102.0 22.95 Q-133.55 24.3 -135.75 12.6 -139.1 -9.15 -6.3 -45.95 128.3 -8.95 125.25 12.6" fill="#bfbfbf" fill-rule="evenodd" stroke="none"/>
    <path d="M127.0 40.75 Q126.95 26.9 125.25 12.6 123.3 23.75 100.5 23.15 L89.75 22.3 Q97.15 54.2 78.9 70.05 68.05 79.4 46.7 83.15 28.65 86.35 6.7 92.7 L-1.55 95.15 -1.55 111.3 -1.55 153.65 -1.9 153.65 -2.05 153.65 -2.05 152.0 M127.0 40.75 Q127.0 67.5 120.6 92.7 L119.6 96.45 Q113.45 118.8 101.35 140.3 L100.05 140.8 Q78.75 148.9 40.35 151.9 M-2.05 242.3 L-2.05 243.0 M-1.55 95.15 L-1.9 95.05 Q-28.6 86.9 -49.8 83.15 -71.15 79.4 -82.0 70.05 -100.2 54.25 -92.85 22.45 L-92.85 22.3 -93.1 22.35 -93.35 22.35 -94.05 22.4 -97.05 22.65 -102.0 22.95 Q-133.55 24.3 -135.75 12.6 -138.05 26.25 -138.35 39.45 -139.05 68.45 -130.15 95.3 -122.75 117.65 -106.0 140.3 -81.6 149.15 -55.65 151.3 L-39.3 152.7 M-92.85 22.3 Q7.0 15.1 89.75 22.3" fill="none" stroke="#000000" stroke-linecap="round" stroke-linejoin="round" stroke-width="10.0"/>
    <path d="M40.35 151.9 L39.45 152.0 Q9.05 159.7 6.25 182.75 L4.8 229.65 Q4.25 241.35 -1.25 242.5 L-1.9 242.35 -2.05 242.3 Q-6.8 240.5 -7.3 229.65 L-8.75 182.75 Q-11.45 160.7 -39.3 152.7 L-42.85 151.75" fill="none" stroke="#000000" stroke-linecap="round" stroke-linejoin="round" stroke-width="10.0"/>
    <path d="M-135.75 12.6 Q-139.1 -9.15 -6.3 -45.95 128.3 -8.95 125.25 12.6" fill="none" stroke="#000000" stroke-linecap="round" stroke-linejoin="round" stroke-width="7.0"/>
    <path d="M43.45 -13.85 L52.45 37.75 -74.3 37.75 -66.45 -13.85 -39.55 -38.5 25.55 -38.5 43.45 -13.85 -66.45 -13.85 43.45 -13.85" fill="#ffffff" fill-rule="evenodd" stroke="none"/>
    <path d="M43.45 -13.85 L52.45 37.75 -74.3 37.75 -66.45 -13.85 -39.55 -38.5 25.55 -38.5 43.45 -13.85 -66.45 -13.85" fill="none" stroke="#000000" stroke-linecap="round" stroke-linejoin="round" stroke-width="0.05"/>
    <path d="M89.75 22.3 Q97.15 54.2 78.9 70.05 68.05 79.4 46.7 83.15 28.65 86.35 6.7 92.7 L-1.55 95.15 -1.9 95.05 Q-28.6 86.9 -49.8 83.15 -71.15 79.4 -82.0 70.05 -100.2 54.25 -92.85 22.45 L-92.85 22.3 Q7.0 15.1 89.75 22.3" fill="#ffffff" fill-rule="evenodd" stroke="none"/>
    <path d="M100.5 23.15 Q123.3 23.75 125.25 12.6 126.95 26.9 127.0 40.75 119.45 42.45 104.55 37.05 99.85 31.75 100.3 24.95 L100.5 23.15 M-102.0 22.95 Q-102.3 28.35 -107.45 36.3 -121.85 39.95 -138.35 39.45 -138.05 26.25 -135.75 12.6 -133.55 24.3 -102.0 22.95" fill="#333333" fill-rule="evenodd" stroke="none"/>
    <path d="M100.5 23.15 L100.3 24.95 Q99.85 31.75 104.55 37.05 119.45 42.45 127.0 40.75 127.0 67.5 120.6 92.7 L119.6 96.45 Q76.8 109.9 -1.55 111.3 L-1.55 95.15 -1.55 111.3 -1.9 111.3 Q-82.25 108.95 -130.15 95.3 -139.05 68.45 -138.35 39.45 -121.85 39.95 -107.45 36.3 -102.3 28.35 -102.0 22.95 L-97.05 22.65 -93.35 22.35 -92.85 22.45 Q-100.2 54.25 -82.0 70.05 -71.15 79.4 -49.8 83.15 -28.6 86.9 -1.9 95.05 L-1.55 95.15 6.7 92.7 Q28.65 86.35 46.7 83.15 68.05 79.4 78.9 70.05 97.15 54.2 89.75 22.3 L100.5 23.15" fill="url(#gradient3)" fill-rule="evenodd" stroke="none"/>
    <path d="M119.6 96.45 Q113.45 118.8 101.35 140.3 L100.05 140.8 Q78.75 148.9 40.35 151.9 L39.45 152.0 Q9.05 159.7 6.25 182.75 L4.8 229.65 Q4.25 241.35 -1.25 242.5 L-1.9 242.35 -2.05 242.3 Q-6.8 240.5 -7.3 229.65 L-8.75 182.75 Q-11.45 160.7 -39.3 152.7 L-55.65 151.3 Q-81.6 149.15 -106.0 140.3 -122.75 117.65 -130.15 95.3 -82.25 108.95 -1.9 111.3 L-1.55 111.3 Q76.8 109.9 119.6 96.45 M-1.55 153.65 L-1.55 111.3 -1.55 153.65 -1.9 153.65 -2.05 153.65 -2.05 152.0 -2.05 153.65 -1.9 153.65 -1.55 153.65 M-42.85 151.75 L-39.3 152.7 -42.85 151.75" fill="url(#gradient4)" fill-rule="evenodd" stroke="none"/>
    <path d="M40.35 151.9 L39.45 152.0 Q9.05 159.7 6.25 182.75 L4.8 229.65 Q4.25 241.35 -1.25 242.5 L-1.9 242.35 -2.05 242.3 Q-6.8 240.5 -7.3 229.65 L-8.75 182.75 Q-11.45 160.7 -39.3 152.7 L-42.85 151.75" fill="none" stroke="#000000" stroke-linecap="round" stroke-linejoin="round" stroke-width="0.05"/>
    <path d="M127.0 40.75 Q126.95 26.9 125.25 12.6 123.3 23.75 100.5 23.15 L89.75 22.3 Q7.0 15.1 -92.85 22.3 L-92.85 22.45 M127.0 40.75 Q127.0 67.5 120.6 92.7 L119.6 96.45 Q113.45 118.8 101.35 140.3 L100.05 140.8 Q78.75 148.9 40.35 151.9 M-2.05 242.3 L-2.05 243.0 M-93.35 22.35 L-97.05 22.65 -102.0 22.95 Q-133.55 24.3 -135.75 12.6 -138.05 26.25 -138.35 39.45 -139.05 68.45 -130.15 95.3 -122.75 117.65 -106.0 140.3 -81.6 149.15 -55.65 151.3 L-39.3 152.7 M-1.55 153.65 L-1.9 153.65 -2.05 153.65 -2.05 152.0 M-93.35 22.35 L-92.85 22.3 M125.25 12.6 Q128.3 -8.95 -6.3 -45.95 -139.1 -9.15 -135.75 12.6" fill="none" stroke="#000000" stroke-linecap="round" stroke-linejoin="round" stroke-width="0.05"/>
    <path d="M89.75 22.3 Q97.15 54.2 78.9 70.05 68.05 79.4 46.7 83.15 28.65 86.35 6.7 92.7 L-1.55 95.15 -1.55 111.3 M-1.55 95.15 L-1.9 95.05 Q-28.6 86.9 -49.8 83.15 -71.15 79.4 -82.0 70.05 -100.2 54.25 -92.85 22.45" fill="none" stroke="#808080" stroke-linecap="round" stroke-linejoin="round" stroke-width="0.05"/>
    <path d="M-1.55 111.3 L-1.55 153.65" fill="none" stroke="#4b0101" stroke-linecap="round" stroke-linejoin="round" stroke-width="0.05"/>
    <path d="M3.4 -413.05 L39.0 -33.15 M3.4 -451.4 L125.25 8.6 M-10.6 -416.05 L-41.75 -34.05 M-10.6 -452.8 L-131.45 10.85" fill="none" stroke="#000000" stroke-linecap="round" stroke-linejoin="round" stroke-width="0.05"/>
    <path d="M1.35 -488.4 Q3.4 -486.35 3.4 -483.45 L3.4 -31.05 Q3.4 -28.15 1.35 -26.1 -0.7 -24.05 -3.6 -24.05 -6.5 -24.05 -8.55 -26.1 -10.6 -28.15 -10.6 -31.05 L-10.6 -483.45 Q-10.6 -486.35 -8.55 -488.4 -6.5 -490.45 -3.6 -490.45 -0.7 -490.45 1.35 -488.4" fill="#ffffff" fill-rule="evenodd" stroke="none"/>
    <path d="M1.35 -488.4 Q-0.7 -490.45 -3.6 -490.45 -6.5 -490.45 -8.55 -488.4 -10.6 -486.35 -10.6 -483.45 L-10.6 -31.05 Q-10.6 -28.15 -8.55 -26.1 -6.5 -24.05 -3.6 -24.05 -0.7 -24.05 1.35 -26.1 3.4 -28.15 3.4 -31.05 L3.4 -483.45 Q3.4 -486.35 1.35 -488.4 Z" fill="none" stroke="#000000" stroke-linecap="round" stroke-linejoin="round" stroke-width="8.0"/>
    <path d="M1.35 -488.4 Q3.4 -486.35 3.4 -483.45 L3.4 -31.05 Q3.4 -28.15 1.35 -26.1 -0.7 -24.05 -3.6 -24.05 -6.5 -24.05 -8.55 -26.1 -10.6 -28.15 -10.6 -31.05 L-10.6 -483.45 Q-10.6 -486.35 -8.55 -488.4 -6.5 -490.45 -3.6 -490.45 -0.7 -490.45 1.35 -488.4" fill="#ffffff" fill-rule="evenodd" stroke="none"/>
    <path d="M1.35 -488.4 Q-0.7 -490.45 -3.6 -490.45 -6.5 -490.45 -8.55 -488.4 -10.6 -486.35 -10.6 -483.45 L-10.6 -31.05 Q-10.6 -28.15 -8.55 -26.1 -6.5 -24.05 -3.6 -24.05 -0.7 -24.05 1.35 -26.1 3.4 -28.15 3.4 -31.05 L3.4 -483.45 Q3.4 -486.35 1.35 -488.4 Z" fill="none" stroke="#000000" stroke-linecap="round" stroke-linejoin="round" stroke-width="2.0"/>
    <path d="M41.9 48.1 Q40.25 48.85 39.45 49.85 39.65 51.2 40.85 52.1 L44.65 54.45 Q47.35 55.95 48.7 57.1 50.1 58.3 50.35 60.0 50.35 61.85 48.85 63.5 47.4 65.1 45.15 66.35 43.65 67.15 41.45 67.55 L37.15 68.0 34.85 67.85 Q32.5 67.45 31.1 66.2 29.6 64.95 29.3 63.15 29.15 62.3 29.3 61.3 29.45 60.35 30.25 59.45 31.0 58.55 32.1 57.9 33.2 57.3 34.3 57.3 36.45 57.3 37.45 59.5 35.95 60.1 35.45 60.45 34.9 60.8 34.7 61.4 34.45 62.0 34.65 63.2 34.9 63.8 36.3 63.8 38.5 63.8 41.3 62.65 44.05 61.5 44.55 60.2 44.35 58.95 43.2 58.2 41.95 57.4 39.35 56.15 L35.3 53.75 Q33.85 52.6 33.45 50.85 33.05 48.2 35.45 46.2 37.8 44.15 43.0 43.1 L45.2 42.9 48.0 43.15 50.45 43.9 Q51.5 44.4 51.9 44.9 L53.0 46.0 Q53.65 46.65 53.7 47.0 L53.8 48.1 53.75 49.35 51.9 51.35 Q51.1 52.1 49.9 52.55 L47.35 53.0 Q46.3 52.4 46.05 50.75 45.9 49.85 46.1 49.55 46.8 48.95 47.75 48.6 L49.5 47.9 45.7 47.4 Q43.5 47.4 41.9 48.1 M5.65 42.75 L6.65 42.95 7.0 43.25 -0.45 68.0 -0.9 68.15 -1.45 68.05 -2.05 67.85 -2.65 67.55 -3.55 67.9 -4.5 68.2 Q-4.95 68.2 -5.0 67.75 -5.15 66.9 -4.1 64.6 -4.7 65.5 -6.4 66.7 -8.15 67.85 -9.4 68.15 L-10.25 68.25 -12.3 67.85 -14.3 66.75 -15.35 65.2 -15.9 63.3 Q-16.2 61.6 -15.65 59.45 -15.15 57.3 -13.45 54.25 -11.05 49.9 -7.3 46.85 -3.6 43.8 0.65 43.8 L2.45 43.95 2.9 43.3 3.35 42.65 5.65 42.75 M14.2 43.25 L15.2 43.5 15.95 43.75 16.75 43.6 17.55 43.45 Q18.05 43.45 18.35 43.95 L14.7 51.5 12.65 56.1 11.5 59.2 Q11.15 60.5 11.25 61.3 L11.65 62.15 Q13.2 61.9 14.85 60.4 16.4 58.85 18.8 55.05 L24.8 44.35 Q25.0 43.9 25.55 43.9 L26.65 44.15 27.65 44.4 28.55 44.05 Q29.0 43.7 29.4 43.7 29.7 43.7 30.1 44.05 L22.95 68.35 22.2 68.2 21.7 67.75 21.2 67.25 20.25 66.95 19.45 66.5 Q19.25 65.3 19.5 63.9 L19.75 62.0 18.55 63.3 16.45 65.45 14.1 67.3 Q12.65 68.1 11.35 68.1 8.85 68.1 6.9 65.15 6.25 64.2 6.05 62.85 5.65 60.2 6.85 56.45 8.15 52.75 10.0 49.4 11.8 46.1 13.65 43.4 L14.2 43.25 M-21.15 32.95 Q-20.1 31.3 -18.5 31.3 L-16.75 31.3 -15.9 31.1 -14.75 30.85 -14.0 30.75 -13.05 31.0 -21.75 66.55 -25.1 65.95 Q-27.0 65.35 -27.9 64.7 L-20.35 40.8 -35.9 67.1 Q-37.95 66.8 -39.1 65.2 L-40.8 62.55 -40.1 57.9 -39.25 51.9 -38.45 46.0 Q-38.15 43.25 -38.15 41.3 L-49.05 68.45 Q-49.75 68.4 -51.5 66.9 -53.35 65.45 -53.55 64.35 L-52.55 60.6 -50.8 56.05 -46.95 46.8 -44.15 40.8 -41.3 35.55 -39.65 32.45 Q-39.05 32.1 -38.2 32.1 L-37.7 32.1 -37.35 32.15 -36.95 32.2 -36.55 32.25 -35.35 32.0 -33.95 31.8 Q-33.55 32.3 -33.35 33.3 -33.05 35.55 -33.5 40.15 L-35.1 53.75 -33.45 51.7 -32.1 49.45 -30.9 47.2 -29.75 45.3 -28.0 42.55 -25.6 39.2 -22.95 35.65 -21.15 32.95 M-9.4 57.5 Q-11.15 61.25 -10.75 63.75 -9.35 63.7 -8.15 63.0 L-5.95 61.1 -4.3 58.65 -2.6 55.35 Q0.4 49.35 0.95 47.65 -1.95 48.05 -4.85 50.95 -7.75 53.8 -9.4 57.5" fill="#666666" fill-rule="evenodd" stroke="none"/>
  </g>
  <defs>
    <linearGradient gradientTransform="matrix(-5.0E-4, -0.0482, 0.0835, -8.0E-4, -70.3, 76.2)" gradientUnits="userSpaceOnUse" id="gradient0" spreadMethod="pad" x1="-819.2" x2="819.2">
      <stop offset="0.25882352941176473" stop-color="#bfbfbf"/>
      <stop offset="0.8352941176470589" stop-color="#ffffff"/>
    </linearGradient>
    <linearGradient gradientTransform="matrix(0.0, -0.0349, 0.0739, 0.0, 59.0, 125.05)" gradientUnits="userSpaceOnUse" id="gradient1" spreadMethod="pad" x1="-819.2" x2="819.2">
      <stop offset="0.25882352941176473" stop-color="#4b0101"/>
      <stop offset="0.8352941176470589" stop-color="#993300"/>
    </linearGradient>
    <linearGradient gradientTransform="matrix(0.0, -0.0356, 0.0785, 0.0, -65.85, 124.5)" gradientUnits="userSpaceOnUse" id="gradient2" spreadMethod="pad" x1="-819.2" x2="819.2">
      <stop offset="0.25882352941176473" stop-color="#4b0101"/>
      <stop offset="0.8352941176470589" stop-color="#993300"/>
    </linearGradient>
    <linearGradient gradientTransform="matrix(-5.0E-4, -0.0482, 0.0835, -8.0E-4, -70.3, 76.2)" gradientUnits="userSpaceOnUse" id="gradient3" spreadMethod="pad" x1="-819.2" x2="819.2">
      <stop offset="0.25882352941176473" stop-color="#bfbfbf"/>
      <stop offset="0.8352941176470589" stop-color="#ffffff"/>
    </linearGradient>
    <linearGradient gradientTransform="matrix(0.0, -0.0356, 0.0785, 0.0, -65.85, 124.5)" gradientUnits="userSpaceOnUse" id="gradient4" spreadMethod="pad" x1="-819.2" x2="819.2">
      <stop offset="0.25882352941176473" stop-color="#252649"/>
      <stop offset="0.8352941176470589" stop-color="#464e86"/>
    </linearGradient>
  </defs>
</svg>
