<?xml version="1.0" encoding="UTF-8" standalone="no"?>
<svg xmlns:ffdec="https://www.free-decompiler.com/flash" xmlns:xlink="http://www.w3.org/1999/xlink" ffdec:objectType="shape" height="742.45px" width="275.4px" xmlns="http://www.w3.org/2000/svg">
  <g transform="matrix(1.0, 0.0, 0.0, 1.0, 143.4, 494.45)">
    <path d="M89.75 22.3 Q97.15 54.2 78.9 70.05 68.05 79.4 46.7 83.15 28.65 86.35 6.7 92.7 L-1.55 95.15 -1.9 95.05 Q-28.6 86.9 -49.8 83.15 -71.15 79.4 -82.0 70.05 -100.2 54.25 -92.85 22.45 L-92.85 22.3 Q7.0 15.1 89.75 22.3" fill="#ffffff" fill-rule="evenodd" stroke="none"/>
    <path d="M125.25 12.6 Q126.95 26.9 127.0 40.75 119.45 42.45 104.55 37.05 99.85 31.75 100.3 24.95 L100.5 23.15 Q123.3 23.75 125.25 12.6 M-102.0 22.95 Q-102.3 28.35 -107.45 36.3 -121.85 39.95 -138.35 39.45 -138.05 26.25 -135.75 12.6 -133.55 24.3 -102.0 22.95" fill="#333333" fill-rule="evenodd" stroke="none"/>
    <path d="M100.5 23.15 L100.3 24.95 Q99.85 31.75 104.55 37.05 119.45 42.45 127.0 40.75 127.0 67.5 120.6 92.7 L119.6 96.45 Q76.8 109.9 -1.55 111.3 L-1.55 95.15 -1.55 111.3 -1.9 111.3 Q-82.25 108.95 -130.15 95.3 -139.05 68.45 -138.35 39.45 -121.85 39.95 -107.45 36.3 -102.3 28.35 -102.0 22.95 L-97.05 22.65 -94.05 22.4 -93.35 22.35 -92.85 22.45 Q-100.2 54.25 -82.0 70.05 -71.15 79.4 -49.8 83.15 -28.6 86.9 -1.9 95.05 L-1.55 95.15 6.7 92.7 Q28.65 86.35 46.7 83.15 68.05 79.4 78.9 70.05 97.15 54.2 89.75 22.3 L100.5 23.15" fill="url(#gradient0)" fill-rule="evenodd" stroke="none"/>
    <path d="M119.6 96.45 Q113.45 118.8 101.35 140.3 L100.05 140.8 Q78.75 148.9 40.35 151.9 L39.45 152.0 -1.55 153.65 -1.55 111.3 Q76.8 109.9 119.6 96.45" fill="url(#gradient1)" fill-rule="evenodd" stroke="none"/>
    <path d="M-130.15 95.3 Q-82.25 108.95 -1.9 111.3 L-1.55 111.3 -1.55 153.65 -1.9 153.65 -2.05 153.65 -2.05 152.0 -2.05 153.65 -2.45 153.65 Q-20.85 153.95 -39.3 152.7 L-55.65 151.3 Q-81.6 149.15 -106.0 140.3 -122.75 117.65 -130.15 95.3 M-42.85 151.75 L-39.3 152.7 -42.85 151.75" fill="url(#gradient2)" fill-rule="evenodd" stroke="none"/>
    <path d="M39.45 152.0 Q9.05 159.7 6.25 182.75 L4.8 229.65 Q4.25 241.35 -1.25 242.5 L-1.9 242.35 -2.05 242.3 Q-6.8 240.5 -7.3 229.65 L-8.75 182.75 Q-11.45 160.7 -39.3 152.7 -20.85 153.95 -2.45 153.65 L-2.05 153.65 -1.9 153.65 -1.55 153.65 39.45 152.0" fill="#3a0101" fill-rule="evenodd" stroke="none"/>
    <path d="M125.25 12.6 Q123.3 23.75 100.5 23.15 L89.75 22.3 Q7.0 15.1 -92.85 22.3 L-93.1 22.35 -94.05 22.4 -97.05 22.65 -102.0 22.95 Q-133.55 24.3 -135.75 12.6 -139.1 -9.15 -6.3 -45.95 128.3 -8.95 125.25 12.6" fill="#bfbfbf" fill-rule="evenodd" stroke="none"/>
    <path d="M127.0 40.75 Q126.95 26.9 125.25 12.6 123.3 23.75 100.5 23.15 L89.75 22.3 Q97.15 54.2 78.9 70.05 68.05 79.4 46.7 83.15 28.65 86.35 6.7 92.7 L-1.55 95.15 -1.55 111.3 -1.55 153.65 -1.9 153.65 -2.05 153.65 -2.05 152.0 M127.0 40.75 Q127.0 67.5 120.6 92.7 L119.6 96.45 Q113.45 118.8 101.35 140.3 L100.05 140.8 Q78.75 148.9 40.35 151.9 M-2.05 242.3 L-2.05 243.0 M-1.55 95.15 L-1.9 95.05 Q-28.6 86.9 -49.8 83.15 -71.15 79.4 -82.0 70.05 -100.2 54.25 -92.85 22.45 L-92.85 22.3 -93.1 22.35 -93.35 22.35 -94.05 22.4 -97.05 22.65 -102.0 22.95 Q-133.55 24.3 -135.75 12.6 -138.05 26.25 -138.35 39.45 -139.05 68.45 -130.15 95.3 -122.75 117.65 -106.0 140.3 -81.6 149.15 -55.65 151.3 L-39.3 152.7 M-92.85 22.3 Q7.0 15.1 89.75 22.3" fill="none" stroke="#000000" stroke-linecap="round" stroke-linejoin="round" stroke-width="10.0"/>
    <path d="M40.35 151.9 L39.45 152.0 Q9.05 159.7 6.25 182.75 L4.8 229.65 Q4.25 241.35 -1.25 242.5 L-1.9 242.35 -2.05 242.3 Q-6.8 240.5 -7.3 229.65 L-8.75 182.75 Q-11.45 160.7 -39.3 152.7 L-42.85 151.75" fill="none" stroke="#000000" stroke-linecap="round" stroke-linejoin="round" stroke-width="10.0"/>
    <path d="M-135.75 12.6 Q-139.1 -9.15 -6.3 -45.95 128.3 -8.95 125.25 12.6" fill="none" stroke="#000000" stroke-linecap="round" stroke-linejoin="round" stroke-width="7.0"/>
    <path d="M43.45 -13.85 L52.45 37.75 -74.3 37.75 -66.45 -13.85 -39.55 -38.5 25.55 -38.5 43.45 -13.85 -66.45 -13.85 43.45 -13.85" fill="#ffffff" fill-rule="evenodd" stroke="none"/>
    <path d="M43.45 -13.85 L52.45 37.75 -74.3 37.75 -66.45 -13.85 -39.55 -38.5 25.55 -38.5 43.45 -13.85 -66.45 -13.85" fill="none" stroke="#000000" stroke-linecap="round" stroke-linejoin="round" stroke-width="0.05"/>
    <path d="M89.75 22.3 Q97.15 54.2 78.9 70.05 68.05 79.4 46.7 83.15 28.65 86.35 6.7 92.7 L-1.55 95.15 -1.9 95.05 Q-28.6 86.9 -49.8 83.15 -71.15 79.4 -82.0 70.05 -100.2 54.25 -92.85 22.45 L-92.85 22.3 Q7.0 15.1 89.75 22.3" fill="#ffffff" fill-rule="evenodd" stroke="none"/>
    <path d="M100.5 23.15 Q123.3 23.75 125.25 12.6 126.95 26.9 127.0 40.75 119.45 42.45 104.55 37.05 99.85 31.75 100.3 24.95 L100.5 23.15 M-102.0 22.95 Q-102.3 28.35 -107.45 36.3 -121.85 39.95 -138.35 39.45 -138.05 26.25 -135.75 12.6 -133.55 24.3 -102.0 22.95" fill="#333333" fill-rule="evenodd" stroke="none"/>
    <path d="M100.5 23.15 L100.3 24.95 Q99.85 31.75 104.55 37.05 119.45 42.45 127.0 40.75 127.0 67.5 120.6 92.7 L119.6 96.45 Q76.8 109.9 -1.55 111.3 L-1.55 95.15 -1.55 111.3 -1.9 111.3 Q-82.25 108.95 -130.15 95.3 -139.05 68.45 -138.35 39.45 -121.85 39.95 -107.45 36.3 -102.3 28.35 -102.0 22.95 L-97.05 22.65 -93.35 22.35 -92.85 22.45 Q-100.2 54.25 -82.0 70.05 -71.15 79.4 -49.8 83.15 -28.6 86.9 -1.9 95.05 L-1.55 95.15 6.7 92.7 Q28.65 86.35 46.7 83.15 68.05 79.4 78.9 70.05 97.15 54.2 89.75 22.3 L100.5 23.15" fill="url(#gradient3)" fill-rule="evenodd" stroke="none"/>
    <path d="M119.6 96.45 Q113.45 118.8 101.35 140.3 L100.05 140.8 Q78.75 148.9 40.35 151.9 L39.45 152.0 Q9.05 159.7 6.25 182.75 L4.8 229.65 Q4.25 241.35 -1.25 242.5 L-1.9 242.35 -2.05 242.3 Q-6.8 240.5 -7.3 229.65 L-8.75 182.75 Q-11.45 160.7 -39.3 152.7 L-55.65 151.3 Q-81.6 149.15 -106.0 140.3 -122.75 117.65 -130.15 95.3 -82.25 108.95 -1.9 111.3 L-1.55 111.3 Q76.8 109.9 119.6 96.45 M-1.55 153.65 L-1.55 111.3 -1.55 153.65 -1.9 153.65 -2.05 153.65 -2.05 152.0 -2.05 153.65 -1.9 153.65 -1.55 153.65 M-42.85 151.75 L-39.3 152.7 -42.85 151.75" fill="url(#gradient4)" fill-rule="evenodd" stroke="none"/>
    <path d="M40.35 151.9 L39.45 152.0 Q9.05 159.7 6.25 182.75 L4.8 229.65 Q4.25 241.35 -1.25 242.5 L-1.9 242.35 -2.05 242.3 Q-6.8 240.5 -7.3 229.65 L-8.75 182.75 Q-11.45 160.7 -39.3 152.7 L-42.85 151.75" fill="none" stroke="#000000" stroke-linecap="round" stroke-linejoin="round" stroke-width="0.05"/>
    <path d="M127.0 40.75 Q126.95 26.9 125.25 12.6 123.3 23.75 100.5 23.15 L89.75 22.3 Q7.0 15.1 -92.85 22.3 L-92.85 22.45 M127.0 40.75 Q127.0 67.5 120.6 92.7 L119.6 96.45 Q113.45 118.8 101.35 140.3 L100.05 140.8 Q78.75 148.9 40.35 151.9 M-2.05 242.3 L-2.05 243.0 M-93.35 22.35 L-97.05 22.65 -102.0 22.95 Q-133.55 24.3 -135.75 12.6 -138.05 26.25 -138.35 39.45 -139.05 68.45 -130.15 95.3 -122.75 117.65 -106.0 140.3 -81.6 149.15 -55.65 151.3 L-39.3 152.7 M-1.55 153.65 L-1.9 153.65 -2.05 153.65 -2.05 152.0 M-93.35 22.35 L-92.85 22.3 M125.25 12.6 Q128.3 -8.95 -6.3 -45.95 -139.1 -9.15 -135.75 12.6" fill="none" stroke="#000000" stroke-linecap="round" stroke-linejoin="round" stroke-width="0.05"/>
    <path d="M89.75 22.3 Q97.15 54.2 78.9 70.05 68.05 79.4 46.7 83.15 28.65 86.35 6.7 92.7 L-1.55 95.15 -1.55 111.3 M-1.55 95.15 L-1.9 95.05 Q-28.6 86.9 -49.8 83.15 -71.15 79.4 -82.0 70.05 -100.2 54.25 -92.85 22.45" fill="none" stroke="#808080" stroke-linecap="round" stroke-linejoin="round" stroke-width="0.05"/>
    <path d="M-1.55 111.3 L-1.55 153.65" fill="none" stroke="#4b0101" stroke-linecap="round" stroke-linejoin="round" stroke-width="0.05"/>
    <path d="M3.4 -413.05 L39.0 -33.15 M3.4 -451.4 L125.25 8.6 M-10.6 -416.05 L-41.75 -34.05 M-10.6 -452.8 L-131.45 10.85" fill="none" stroke="#000000" stroke-linecap="round" stroke-linejoin="round" stroke-width="0.05"/>
    <path d="M1.35 -488.4 Q3.4 -486.35 3.4 -483.45 L3.4 -31.05 Q3.4 -28.15 1.35 -26.1 -0.7 -24.05 -3.6 -24.05 -6.5 -24.05 -8.55 -26.1 -10.6 -28.15 -10.6 -31.05 L-10.6 -483.45 Q-10.6 -486.35 -8.55 -488.4 -6.5 -490.45 -3.6 -490.45 -0.7 -490.45 1.35 -488.4" fill="#ffffff" fill-rule="evenodd" stroke="none"/>
    <path d="M1.35 -488.4 Q-0.7 -490.45 -3.6 -490.45 -6.5 -490.45 -8.55 -488.4 -10.6 -486.35 -10.6 -483.45 L-10.6 -31.05 Q-10.6 -28.15 -8.55 -26.1 -6.5 -24.05 -3.6 -24.05 -0.7 -24.05 1.35 -26.1 3.4 -28.15 3.4 -31.05 L3.4 -483.45 Q3.4 -486.35 1.35 -488.4 Z" fill="none" stroke="#000000" stroke-linecap="round" stroke-linejoin="round" stroke-width="8.0"/>
    <path d="M1.35 -488.4 Q3.4 -486.35 3.4 -483.45 L3.4 -31.05 Q3.4 -28.15 1.35 -26.1 -0.7 -24.05 -3.6 -24.05 -6.5 -24.05 -8.55 -26.1 -10.6 -28.15 -10.6 -31.05 L-10.6 -483.45 Q-10.6 -486.35 -8.55 -488.4 -6.5 -490.45 -3.6 -490.45 -0.7 -490.45 1.35 -488.4" fill="#ffffff" fill-rule="evenodd" stroke="none"/>
    <path d="M1.35 -488.4 Q-0.7 -490.45 -3.6 -490.45 -6.5 -490.45 -8.55 -488.4 -10.6 -486.35 -10.6 -483.45 L-10.6 -31.05 Q-10.6 -28.15 -8.55 -26.1 -6.5 -24.05 -3.6 -24.05 -0.7 -24.05 1.35 -26.1 3.4 -28.15 3.4 -31.05 L3.4 -483.45 Q3.4 -486.35 1.35 -488.4 Z" fill="none" stroke="#000000" stroke-linecap="round" stroke-linejoin="round" stroke-width="2.0"/>
  </g>
  <defs>
    <linearGradient gradientTransform="matrix(-5.0E-4, -0.0482, 0.0835, -8.0E-4, -70.3, 76.2)" gradientUnits="userSpaceOnUse" id="gradient0" spreadMethod="pad" x1="-819.2" x2="819.2">
      <stop offset="0.25882352941176473" stop-color="#bfbfbf"/>
      <stop offset="0.8352941176470589" stop-color="#ffffff"/>
    </linearGradient>
    <linearGradient gradientTransform="matrix(0.0, -0.0349, 0.0739, 0.0, 59.0, 125.05)" gradientUnits="userSpaceOnUse" id="gradient1" spreadMethod="pad" x1="-819.2" x2="819.2">
      <stop offset="0.25882352941176473" stop-color="#4b0101"/>
      <stop offset="0.8352941176470589" stop-color="#993300"/>
    </linearGradient>
    <linearGradient gradientTransform="matrix(0.0, -0.0356, 0.0785, 0.0, -65.85, 124.5)" gradientUnits="userSpaceOnUse" id="gradient2" spreadMethod="pad" x1="-819.2" x2="819.2">
      <stop offset="0.25882352941176473" stop-color="#4b0101"/>
      <stop offset="0.8352941176470589" stop-color="#993300"/>
    </linearGradient>
    <linearGradient gradientTransform="matrix(-5.0E-4, -0.0482, 0.0835, -8.0E-4, -70.3, 76.2)" gradientUnits="userSpaceOnUse" id="gradient3" spreadMethod="pad" x1="-819.2" x2="819.2">
      <stop offset="0.25882352941176473" stop-color="#bfbfbf"/>
      <stop offset="0.8352941176470589" stop-color="#ffffff"/>
    </linearGradient>
    <linearGradient gradientTransform="matrix(0.0, -0.0356, 0.0785, 0.0, -65.85, 124.5)" gradientUnits="userSpaceOnUse" id="gradient4" spreadMethod="pad" x1="-819.2" x2="819.2">
      <stop offset="0.25882352941176473" stop-color="#304301"/>
      <stop offset="0.8352941176470589" stop-color="#537502"/>
    </linearGradient>
  </defs>
</svg>
