<?xml version="1.0" encoding="UTF-8" standalone="no"?>
<svg xmlns:ffdec="https://www.free-decompiler.com/flash" xmlns:xlink="http://www.w3.org/1999/xlink" ffdec:objectType="shape" height="283.65px" width="227.15px" xmlns="http://www.w3.org/2000/svg">
  <g transform="matrix(1.0, 0.0, 0.0, 1.0, 92.35, 135.25)">
    <path d="M49.75 -122.8 L133.8 126.8 M45.7 -124.1 L89.75 130.8 M-22.3 92.15 L-33.05 132.15" fill="none" stroke="#000000" stroke-linecap="round" stroke-linejoin="round" stroke-width="2.0"/>
    <path d="M34.05 142.9 L34.05 -107.8" fill="none" stroke="#000000" stroke-linecap="round" stroke-linejoin="round" stroke-width="11.0"/>
    <path d="M34.05 142.9 L34.05 -107.8" fill="none" stroke="#ffffff" stroke-linecap="round" stroke-linejoin="round" stroke-width="7.0"/>
    <path d="M5.35 -96.05 L4.75 -93.9 -31.4 -60.25 -31.0 -60.5 Q-17.5 -69.5 -3.65 -73.65 L-4.45 -70.25 Q-17.9 -66.75 -29.9 -58.7 L-37.7 -52.8 Q-34.45 -61.45 -29.95 -69.25 -24.95 -78.1 -18.35 -85.9 L-17.4 -87.05 -24.8 -81.3 Q-35.55 -67.8 -42.95 -53.65 -46.35 -47.15 -49.05 -40.5 L-49.15 -40.25 -56.15 -31.3 -63.15 -21.0 -63.4 -21.1 -60.35 -28.4 -52.8 -38.1 -53.15 -43.1 -48.0 -52.05 Q-38.2 -68.2 -25.6 -81.95 -20.4 -87.7 -14.75 -92.95 L-12.1 -90.15 -16.05 -85.8 -16.95 -84.8 -21.35 -79.0 -22.35 -77.6 Q-25.35 -73.1 -27.85 -68.1 L-29.95 -63.85 5.35 -96.05 M-5.7 -64.9 L-6.6 -60.85 Q-21.2 -57.3 -36.2 -46.45 L-36.2 -46.3 -12.25 -21.35 -13.65 -9.6 -13.85 -9.45 -38.75 -35.25 -39.85 -28.65 -19.5 -7.35 -23.35 -5.85 -40.45 -24.0 Q-41.85 -11.75 -41.6 2.0 L-46.7 4.3 Q-47.25 -23.05 -40.25 -45.45 L-40.2 -45.7 Q-25.2 -59.2 -5.7 -64.9 M-59.4 12.05 L-59.6 12.2 -63.65 15.3 -64.0 14.85 -61.5 -8.35 -77.9 31.95 -77.4 28.4 Q-75.9 19.9 -73.9 11.75 L-73.7 11.0 Q-66.2 -10.0 -58.25 -23.75 L-68.15 -8.0 -65.85 -14.6 -65.7 -15.15 -62.35 -20.45 Q-57.35 -27.95 -52.1 -32.15 -59.3 -10.8 -59.4 12.05 M-2.8 -95.4 L-0.95 -93.15 -11.35 -84.15 -13.2 -86.2 -2.8 -95.4 M24.7 23.8 L28.75 24.45 32.55 20.15 32.1 23.95 36.1 21.75 32.6 25.2 35.65 26.6 30.6 28.25 28.8 32.4 27.3 30.0 21.65 33.3 25.0 29.35 20.5 29.4 25.8 26.85 24.7 23.8 M53.0 -71.95 L44.85 -69.25 52.8 -63.4 39.8 -66.55 37.1 -59.95 30.8 -65.95 16.85 -62.2 23.3 -68.55 9.95 -69.3 23.7 -72.85 19.05 -78.25 30.45 -74.95 39.45 -78.9 40.3 -73.25 53.0 -71.95 M-31.4 -60.25 L-31.45 -60.3 -31.5 -60.2 -31.4 -60.25 M-44.0 -56.3 L-47.55 -51.75 -47.4 -49.4 -44.15 -54.35 -44.0 -56.3 M-59.7 -16.3 L-58.35 -21.35 -72.2 10.05 -59.7 -16.3 M-36.2 -46.3 L-36.25 -46.25 -36.2 -46.3 M-65.95 58.25 L-65.7 62.65 -60.65 59.55 -64.7 64.95 -60.7 65.15 -65.95 67.85 -66.75 72.55 -68.9 70.1 -72.85 74.35 -71.6 69.85 -75.65 70.7 -71.35 67.05 -73.55 64.1 -68.95 64.4 -65.95 58.25 M-31.4 21.35 L-33.85 18.55 -28.05 19.2 -23.8 14.1 -23.55 18.0 -16.35 15.8 -22.35 20.6 -17.1 22.15 -24.4 23.4 -25.25 28.3 -28.7 24.85 -35.05 29.1 -31.95 24.45 -38.1 25.5 -31.4 21.35 M-45.65 78.4 L-47.9 75.05 -42.8 74.85 -39.4 69.9 -39.0 73.75 -32.85 71.4 -37.25 75.85 -32.35 77.25 -39.25 79.0 -39.55 83.95 -42.95 81.2 -47.95 85.95 -45.75 81.1 -50.45 81.7 -45.65 78.4 M-16.15 54.1 L-16.15 51.9 -13.3 52.85 -8.35 49.85 -11.75 54.4 -8.4 55.45 -13.9 56.25 -17.05 60.15 -16.2 56.6 -20.25 57.15 -16.15 54.1" fill="#ffffff" fill-rule="evenodd" stroke="none"/>
    <path d="M5.6 -98.4 L5.8 -98.55 6.5 -98.85 13.75 -99.75 Q16.9 -99.85 19.4 -100.6 21.85 -101.4 23.2 -101.1 36.9 -101.85 50.15 -97.85 L53.0 -96.85 69.1 -90.7 Q71.7 -79.5 71.8 -68.15 69.3 -21.9 33.75 67.65 1.6 90.55 -22.65 93.0 -46.0 110.1 -89.0 123.05 L-89.1 123.05 -89.3 123.15 -89.35 121.25 -89.3 123.15 -89.6 123.2 -89.35 121.25 -77.9 31.95 -61.5 -8.35 -64.0 14.85 -63.65 15.3 -59.6 12.2 -59.4 12.05 Q-53.25 7.5 -46.7 4.3 L-41.6 2.0 Q-41.85 -11.75 -40.45 -24.0 L-23.35 -5.85 -19.5 -7.35 -13.85 -9.45 -13.65 -9.6 -12.25 -21.35 -36.2 -46.3 -36.2 -46.45 Q-21.2 -57.3 -6.6 -60.85 L-5.7 -64.9 -4.45 -70.25 -3.65 -73.65 Q-17.5 -69.5 -31.0 -60.5 L-31.4 -60.25 4.75 -93.9 5.35 -96.05 5.9 -98.05 5.6 -98.4 M-11.85 -90.35 Q-5.2 -94.35 -2.8 -95.4 L-13.2 -86.2 -21.35 -79.0 -16.95 -84.8 -16.05 -85.8 -12.1 -90.15 -11.85 -90.35 M53.0 -71.95 L40.3 -73.25 39.45 -78.9 30.45 -74.95 19.05 -78.25 23.7 -72.85 9.95 -69.3 23.3 -68.55 16.85 -62.2 30.8 -65.95 37.1 -59.95 39.8 -66.55 52.8 -63.4 44.85 -69.25 53.0 -71.95 M24.7 23.8 L25.8 26.85 20.5 29.4 25.0 29.35 21.65 33.3 27.3 30.0 28.8 32.4 30.6 28.25 35.65 26.6 32.6 25.2 36.1 21.75 32.1 23.95 32.55 20.15 28.75 24.45 24.7 23.8 M-53.15 -43.1 L-52.8 -38.1 -60.35 -28.4 Q-57.0 -36.0 -53.15 -43.1 M-68.15 -8.0 L-58.25 -23.75 Q-66.2 -10.0 -73.7 11.0 -71.35 1.55 -68.4 -7.35 L-68.15 -8.0 M-31.4 21.35 L-38.1 25.5 -31.95 24.45 -35.05 29.1 -28.7 24.85 -25.25 28.3 -24.4 23.4 -17.1 22.15 -22.35 20.6 -16.35 15.8 -23.55 18.0 -23.8 14.1 -28.05 19.2 -33.85 18.55 -31.4 21.35 M-65.95 58.25 L-68.95 64.4 -73.55 64.1 -71.35 67.05 -75.65 70.7 -71.6 69.85 -72.85 74.35 -68.9 70.1 -66.75 72.55 -65.95 67.85 -60.7 65.15 -64.7 64.95 -60.65 59.55 -65.7 62.65 -65.95 58.25 M-45.65 78.4 L-50.45 81.7 -45.75 81.1 -47.95 85.95 -42.95 81.2 -39.55 83.95 -39.25 79.0 -32.35 77.25 -37.25 75.85 -32.85 71.4 -39.0 73.75 -39.4 69.9 -42.8 74.85 -47.9 75.05 -45.65 78.4 M-16.15 54.1 L-20.25 57.15 -16.2 56.6 -17.05 60.15 -13.9 56.25 -8.4 55.45 -11.75 54.4 -8.35 49.85 -13.3 52.85 -16.15 51.9 -16.15 54.1" fill="url(#gradient0)" fill-rule="evenodd" stroke="none"/>
    <path d="M69.1 -90.7 L53.0 -96.85 50.15 -97.85 Q36.9 -101.85 23.2 -101.1 21.85 -101.4 19.4 -100.6 16.9 -99.85 13.75 -99.75 L6.5 -98.85 5.8 -98.55 5.6 -98.4 -0.95 -93.15 -2.8 -95.4 Q-5.2 -94.35 -11.85 -90.35 L-14.4 -93.25 Q12.2 -118.0 49.25 -133.75 63.95 -112.55 69.1 -90.7" fill="url(#gradient1)" fill-rule="evenodd" stroke="none"/>
    <path d="M5.6 -98.4 L5.9 -98.05 5.35 -96.05 -29.95 -63.85 -27.85 -68.1 -20.4 -75.7 -11.35 -84.15 -0.95 -93.15 5.6 -98.4 M-4.45 -70.25 L-5.7 -64.9 Q-25.2 -59.2 -40.2 -45.7 L-40.25 -45.45 Q-47.25 -23.05 -46.7 4.3 -53.25 7.5 -59.4 12.05 -59.3 -10.8 -52.1 -32.15 -57.35 -27.95 -62.35 -20.45 L-65.7 -15.15 -64.55 -18.2 -64.0 -19.65 -63.15 -21.0 -56.15 -31.3 -49.15 -40.25 -49.05 -40.5 Q-46.35 -47.15 -42.95 -53.65 -35.55 -67.8 -24.8 -81.3 L-17.4 -87.05 -18.35 -85.9 Q-24.95 -78.1 -29.95 -69.25 -34.45 -61.45 -37.7 -52.8 L-29.9 -58.7 Q-17.9 -66.75 -4.45 -70.25 M-13.85 -9.45 L-19.5 -7.35 -39.85 -28.65 -38.75 -35.25 -13.85 -9.45 M-44.0 -56.3 L-44.15 -54.35 -47.4 -49.4 -47.55 -51.75 -44.0 -56.3 M-59.7 -16.3 L-72.2 10.05 -58.35 -21.35 -59.7 -16.3" fill="url(#gradient2)" fill-rule="evenodd" stroke="none"/>
    <path d="M-14.4 -93.25 L-11.85 -90.35 -12.1 -90.15 -14.65 -93.05 -14.4 -93.25" fill="url(#gradient3)" fill-rule="evenodd" stroke="none"/>
    <path d="M-14.75 -92.95 L-14.65 -93.05 -12.1 -90.15 -14.75 -92.95" fill="url(#gradient4)" fill-rule="evenodd" stroke="none"/>
    <path d="M-90.25 123.4 L-91.35 133.05 M-90.25 123.4 L-90.2 123.15" fill="none" stroke="#000000" stroke-linecap="round" stroke-linejoin="round" stroke-width="2.0"/>
    <path d="M-77.9 31.95 L-89.35 121.25 -89.6 123.2 -89.3 123.15 -89.1 123.05 M-89.0 123.05 Q-46.0 110.1 -22.65 93.0 1.6 90.55 33.75 67.65 69.3 -21.9 71.8 -68.15 71.7 -79.5 69.1 -90.7 63.95 -112.55 49.25 -133.75 12.2 -118.0 -14.4 -93.25 L-14.65 -93.05 -14.75 -92.95 Q-20.4 -87.7 -25.6 -81.95 -38.2 -68.2 -48.0 -52.05 L-53.15 -43.1 Q-57.0 -36.0 -60.35 -28.4 L-63.4 -21.1 -64.0 -19.65 -64.55 -18.2 -65.7 -15.15 -65.85 -14.6 -68.15 -8.0 -68.4 -7.35 Q-71.35 1.55 -73.7 11.0 L-73.9 11.75 Q-75.9 19.9 -77.4 28.4 L-77.9 31.95 M-63.15 -21.0 L-64.0 -19.65 M-89.6 123.2 L-90.25 123.4" fill="none" stroke="#000000" stroke-linecap="round" stroke-linejoin="round" stroke-width="3.0"/>
    <path d="M-89.1 123.05 L-89.0 123.05" fill="none" stroke="#000000" stroke-linecap="round" stroke-linejoin="round" stroke-width="4.0"/>
    <path d="M-89.35 121.25 L-89.3 123.15" fill="none" stroke="#000000" stroke-linecap="round" stroke-linejoin="round" stroke-width="1.5"/>
    <path d="M5.35 -96.05 L4.75 -93.9 -31.05 -60.55 -31.4 -60.25 -31.0 -60.5 Q-17.5 -69.5 -3.65 -73.65 L-4.45 -70.25 Q-17.9 -66.75 -29.9 -58.7 L-37.7 -52.8 Q-34.45 -61.45 -29.95 -69.25 -24.95 -78.1 -18.35 -85.9 L-17.4 -87.05 -24.8 -81.3 Q-35.55 -67.8 -42.95 -53.65 -46.35 -47.15 -49.05 -40.5 L-49.15 -40.25 -56.15 -31.3 -63.15 -21.0 -64.0 -19.65 -63.4 -21.1 -60.35 -28.4 -52.8 -38.1 -53.15 -43.1 -48.0 -52.05 Q-38.2 -68.2 -25.6 -81.95 -20.4 -87.7 -14.75 -92.95 L-12.1 -90.15 -16.05 -85.8 -16.95 -84.8 -21.35 -79.0 -22.35 -77.6 Q-25.35 -73.1 -27.85 -68.1 L-29.95 -63.85 5.35 -96.05 M-5.7 -64.9 L-6.6 -60.85 Q-21.2 -57.3 -36.2 -46.45 L-36.2 -46.3 -12.25 -21.35 -13.65 -9.6 -13.85 -9.45 -38.75 -35.25 -39.85 -28.65 -19.5 -7.35 -23.35 -5.85 -40.45 -24.0 Q-41.85 -11.75 -41.6 2.0 L-46.7 4.3 Q-47.25 -23.05 -40.25 -45.45 L-40.2 -45.7 Q-25.2 -59.2 -5.7 -64.9 M-59.4 12.05 L-59.6 12.2 -63.65 15.3 -64.0 14.85 -61.3 -5.5 -77.9 31.95 -77.4 28.4 Q-75.9 19.9 -73.9 11.75 L-73.7 11.0 Q-66.2 -10.0 -58.25 -23.75 L-68.15 -8.0 -65.85 -14.6 -65.7 -15.15 -62.35 -20.45 Q-57.35 -27.95 -52.1 -32.15 -59.3 -10.8 -59.4 12.05 M-2.8 -95.4 L-0.95 -93.15 -11.35 -84.15 -13.2 -86.2 -2.8 -95.4 M24.7 23.8 L28.75 24.45 32.55 20.15 32.1 23.95 36.1 21.75 32.6 25.2 35.65 26.6 30.6 28.25 28.8 32.4 27.3 30.0 21.65 33.3 25.0 29.35 20.5 29.4 25.8 26.85 24.7 23.8 M53.0 -71.95 L44.85 -69.25 52.8 -63.4 39.8 -66.55 37.1 -59.95 30.8 -65.95 16.85 -62.2 23.3 -68.55 9.95 -69.3 23.7 -72.85 19.05 -78.25 30.45 -74.95 39.45 -78.9 40.3 -73.25 53.0 -71.95 M-31.5 -60.2 L-31.4 -60.25 -31.45 -60.3 -31.5 -60.2 M-44.0 -56.3 L-47.55 -51.75 -47.4 -49.4 -44.15 -54.35 -44.0 -56.3 M-60.3 -11.55 L-57.9 -21.35 -72.2 10.05 -60.3 -11.55 M-36.2 -46.3 L-36.25 -46.25 -36.2 -46.3 M-31.4 21.35 L-33.85 18.55 -28.05 19.2 -23.8 14.1 -23.55 18.0 -16.35 15.8 -22.35 20.6 -17.1 22.15 -24.4 23.4 -25.25 28.3 -28.7 24.85 -35.05 29.1 -31.95 24.45 -38.1 25.5 -31.4 21.35 M-65.95 58.25 L-65.7 62.65 -60.65 59.55 -64.7 64.95 -60.7 65.15 -65.95 67.85 -66.75 72.55 -68.9 70.1 -72.85 74.35 -71.6 69.85 -75.65 70.7 -71.35 67.05 -73.55 64.1 -68.95 64.4 -65.95 58.25 M-45.65 78.4 L-47.9 75.05 -42.8 74.85 -39.4 69.9 -39.0 73.75 -32.85 71.4 -37.25 75.85 -32.35 77.25 -39.25 79.0 -39.55 83.95 -42.95 81.2 -47.95 85.95 -45.75 81.1 -50.45 81.7 -45.65 78.4 M-16.15 54.1 L-16.15 51.9 -13.3 52.85 -8.35 49.85 -11.75 54.4 -8.4 55.45 -13.9 56.25 -17.05 60.15 -16.2 56.6 -20.25 57.15 -16.15 54.1" fill="#ffffff" fill-rule="evenodd" stroke="none"/>
    <path d="M-11.85 -90.35 Q-5.2 -94.35 -2.8 -95.4 L-13.2 -86.2 -21.35 -79.0 -16.95 -84.8 -16.05 -85.8 -12.1 -90.15 -11.85 -90.35 M-53.15 -43.1 L-52.8 -38.1 -60.35 -28.4 Q-57.0 -36.0 -53.15 -43.1 M-73.7 11.0 Q-71.35 1.55 -68.4 -7.35 L-68.15 -8.0 -58.25 -23.75 Q-66.2 -10.0 -73.7 11.0" fill="url(#gradient5)" fill-rule="evenodd" stroke="none"/>
    <path d="M69.1 -90.7 L53.0 -96.85 50.15 -97.85 Q36.9 -101.85 23.2 -101.1 21.85 -101.4 19.4 -100.6 16.9 -99.85 13.75 -99.75 L6.5 -98.85 5.8 -98.55 5.6 -98.4 -0.95 -93.15 -2.8 -95.4 Q-5.2 -94.35 -11.85 -90.35 L-14.4 -93.25 Q12.2 -118.0 49.25 -133.75 63.95 -112.55 69.1 -90.7" fill="url(#gradient6)" fill-rule="evenodd" stroke="none"/>
    <path d="M5.6 -98.4 L5.9 -98.05 5.35 -96.05 -29.95 -63.85 -27.85 -68.1 -20.4 -75.7 -11.35 -84.15 -0.95 -93.15 5.6 -98.4 M-4.45 -70.25 L-5.7 -64.9 Q-25.2 -59.2 -40.2 -45.7 L-40.25 -45.45 Q-47.25 -23.05 -46.7 4.3 -53.25 7.5 -59.4 12.05 -59.3 -10.8 -52.1 -32.15 -57.35 -27.95 -62.35 -20.45 L-65.7 -15.15 -64.55 -18.2 -64.0 -19.65 -63.15 -21.0 -56.15 -31.3 -49.15 -40.25 -49.05 -40.5 Q-46.35 -47.15 -42.95 -53.65 -35.55 -67.8 -24.8 -81.3 L-17.4 -87.05 -18.35 -85.9 Q-24.95 -78.1 -29.95 -69.25 -34.45 -61.45 -37.7 -52.8 L-29.9 -58.7 Q-17.9 -66.75 -4.45 -70.25 M-13.85 -9.45 L-19.5 -7.35 -39.85 -28.65 -38.75 -35.25 -13.85 -9.45 M-44.0 -56.3 L-44.15 -54.35 -47.4 -49.4 -47.55 -51.75 -44.0 -56.3 M-60.3 -11.55 L-72.2 10.05 -57.9 -21.35 -60.3 -11.55" fill="url(#gradient7)" fill-rule="evenodd" stroke="none"/>
    <path d="M-14.4 -93.25 L-11.85 -90.35 -12.1 -90.15 -14.65 -93.05 -14.4 -93.25" fill="url(#gradient8)" fill-rule="evenodd" stroke="none"/>
    <path d="M-14.75 -92.95 L-14.65 -93.05 -12.1 -90.15 -14.75 -92.95" fill="url(#gradient9)" fill-rule="evenodd" stroke="none"/>
    <path d="M-31.05 -60.55 L-31.0 -60.5 -31.4 -60.25 -31.05 -60.55" fill="url(#gradient10)" fill-rule="evenodd" stroke="none"/>
    <path d="M5.6 -98.4 L5.8 -98.55 6.5 -98.85 13.75 -99.75 Q16.9 -99.85 19.4 -100.6 21.85 -101.4 23.2 -101.1 36.9 -101.85 50.15 -97.85 L53.0 -96.85 69.1 -90.7 Q71.7 -79.5 71.8 -68.15 69.3 -22.3 34.3 66.2 L32.9 67.2 Q-0.1 90.75 -22.65 93.0 -46.15 110.2 -89.6 123.2 L-77.9 31.95 -61.3 -5.5 -64.0 14.85 -63.65 15.3 -59.6 12.2 -59.4 12.05 Q-53.25 7.5 -46.7 4.3 L-41.6 2.0 Q-41.85 -11.75 -40.45 -24.0 L-23.35 -5.85 -19.5 -7.35 -13.85 -9.45 -13.65 -9.6 -12.25 -21.35 -36.2 -46.3 -36.2 -46.45 Q-21.2 -57.3 -6.6 -60.85 L-5.7 -64.9 -4.45 -70.25 -3.65 -73.65 Q-17.5 -69.5 -31.0 -60.5 L-31.05 -60.55 4.75 -93.9 5.35 -96.05 5.9 -98.05 5.6 -98.4 M53.0 -71.95 L40.3 -73.25 39.45 -78.9 30.45 -74.95 19.05 -78.25 23.7 -72.85 9.95 -69.3 23.3 -68.55 16.85 -62.2 30.8 -65.95 37.1 -59.95 39.8 -66.55 52.8 -63.4 44.85 -69.25 53.0 -71.95 M24.7 23.8 L25.8 26.85 20.5 29.4 25.0 29.35 21.65 33.3 27.3 30.0 28.8 32.4 30.6 28.25 35.65 26.6 32.6 25.2 36.1 21.75 32.1 23.95 32.55 20.15 28.75 24.45 24.7 23.8 M-31.4 21.35 L-38.1 25.5 -31.95 24.45 -35.05 29.1 -28.7 24.85 -25.25 28.3 -24.4 23.4 -17.1 22.15 -22.35 20.6 -16.35 15.8 -23.55 18.0 -23.8 14.1 -28.05 19.2 -33.85 18.55 -31.4 21.35 M-65.95 58.25 L-68.95 64.4 -73.55 64.1 -71.35 67.05 -75.65 70.7 -71.6 69.85 -72.85 74.35 -68.9 70.1 -66.75 72.55 -65.95 67.85 -60.7 65.15 -64.7 64.95 -60.65 59.55 -65.7 62.65 -65.95 58.25 M-45.65 78.4 L-50.45 81.7 -45.75 81.1 -47.95 85.95 -42.95 81.2 -39.55 83.95 -39.25 79.0 -32.35 77.25 -37.25 75.85 -32.85 71.4 -39.0 73.75 -39.4 69.9 -42.8 74.85 -47.9 75.05 -45.65 78.4 M-16.15 54.1 L-20.25 57.15 -16.2 56.6 -17.05 60.15 -13.9 56.25 -8.4 55.45 -11.75 54.4 -8.35 49.85 -13.3 52.85 -16.15 51.9 -16.15 54.1" fill="url(#gradient11)" fill-rule="evenodd" stroke="none"/>
    <path d="M-77.9 31.95 L-89.6 123.2 Q-46.15 110.2 -22.65 93.0 -0.1 90.75 32.9 67.2 L34.3 66.2 Q69.3 -22.3 71.8 -68.15 71.7 -79.5 69.1 -90.7 63.95 -112.55 49.25 -133.75 12.2 -118.0 -14.4 -93.25 L-14.65 -93.05 -14.75 -92.95 Q-20.4 -87.7 -25.6 -81.95 -38.2 -68.2 -48.0 -52.05 L-53.15 -43.1 Q-57.0 -36.0 -60.35 -28.4 L-63.4 -21.1 -64.0 -19.65 -64.55 -18.2 -65.7 -15.15 -65.85 -14.6 -68.15 -8.0 -68.4 -7.35 Q-71.35 1.55 -73.7 11.0 L-73.9 11.75 Q-75.9 19.9 -77.4 28.4 L-77.9 31.95 M34.3 66.2 L33.8 67.55 36.8 64.35 34.3 66.2 M-89.6 123.2 L-90.2 123.4" fill="none" stroke="#000000" stroke-linecap="round" stroke-linejoin="round" stroke-width="0.05"/>
    <path d="M32.9 67.2 L105.0 133.6" fill="none" stroke="#000000" stroke-linecap="round" stroke-linejoin="round" stroke-width="2.0"/>
  </g>
  <defs>
    <radialGradient cx="0" cy="0" gradientTransform="matrix(0.1491, 0.0602, -0.0965, 0.2389, 24.05, 58.2)" gradientUnits="userSpaceOnUse" id="gradient0" r="819.2" spreadMethod="pad">
      <stop offset="0.00392156862745098" stop-color="#0a39ab"/>
      <stop offset="0.7215686274509804" stop-color="#abd0fd"/>
    </radialGradient>
    <linearGradient gradientTransform="matrix(-0.0254, -0.0061, 0.0089, -0.037, 47.75, -112.45)" gradientUnits="userSpaceOnUse" id="gradient1" spreadMethod="pad" x1="-819.2" x2="819.2">
      <stop offset="0.00392156862745098" stop-color="#cccccc"/>
      <stop offset="0.7215686274509804" stop-color="#ffffff"/>
    </linearGradient>
    <linearGradient gradientTransform="matrix(0.0099, -0.0629, 0.0167, 0.0026, -39.2, -37.65)" gradientUnits="userSpaceOnUse" id="gradient2" spreadMethod="pad" x1="-819.2" x2="819.2">
      <stop offset="0.00392156862745098" stop-color="#c10202"/>
      <stop offset="0.7215686274509804" stop-color="#fe6767"/>
    </linearGradient>
    <linearGradient gradientTransform="matrix(-0.0242, -0.0093, 0.0137, -0.0357, 27.1, -108.65)" gradientUnits="userSpaceOnUse" id="gradient3" spreadMethod="pad" x1="-819.2" x2="819.2">
      <stop offset="0.00392156862745098" stop-color="#cccccc"/>
      <stop offset="0.7215686274509804" stop-color="#ffffff"/>
    </linearGradient>
    <linearGradient gradientTransform="matrix(0.0136, 0.0054, -0.0155, 0.0389, 61.0, -92.15)" gradientUnits="userSpaceOnUse" id="gradient4" spreadMethod="pad" x1="-819.2" x2="819.2">
      <stop offset="0.00392156862745098" stop-color="#cccccc"/>
      <stop offset="0.7215686274509804" stop-color="#ffffff"/>
    </linearGradient>
    <radialGradient cx="0" cy="0" gradientTransform="matrix(0.1491, 0.0602, -0.0965, 0.2389, 24.05, 58.2)" gradientUnits="userSpaceOnUse" id="gradient5" r="819.2" spreadMethod="pad">
      <stop offset="0.00392156862745098" stop-color="#092f88"/>
      <stop offset="0.7215686274509804" stop-color="#62affb"/>
    </radialGradient>
    <linearGradient gradientTransform="matrix(-0.0254, -0.0061, 0.0089, -0.037, 47.75, -112.45)" gradientUnits="userSpaceOnUse" id="gradient6" spreadMethod="pad" x1="-819.2" x2="819.2">
      <stop offset="0.00392156862745098" stop-color="#cccccc"/>
      <stop offset="0.7215686274509804" stop-color="#ffffff"/>
    </linearGradient>
    <linearGradient gradientTransform="matrix(0.0099, -0.0629, 0.0167, 0.0026, -39.2, -37.65)" gradientUnits="userSpaceOnUse" id="gradient7" spreadMethod="pad" x1="-819.2" x2="819.2">
      <stop offset="0.00392156862745098" stop-color="#c10202"/>
      <stop offset="0.7215686274509804" stop-color="#fe6767"/>
    </linearGradient>
    <linearGradient gradientTransform="matrix(-0.0242, -0.0093, 0.0137, -0.0357, 27.1, -108.65)" gradientUnits="userSpaceOnUse" id="gradient8" spreadMethod="pad" x1="-819.2" x2="819.2">
      <stop offset="0.00392156862745098" stop-color="#cccccc"/>
      <stop offset="0.7215686274509804" stop-color="#ffffff"/>
    </linearGradient>
    <linearGradient gradientTransform="matrix(0.0136, 0.0054, -0.0155, 0.0389, 61.0, -92.15)" gradientUnits="userSpaceOnUse" id="gradient9" spreadMethod="pad" x1="-819.2" x2="819.2">
      <stop offset="0.00392156862745098" stop-color="#cccccc"/>
      <stop offset="0.7215686274509804" stop-color="#ffffff"/>
    </linearGradient>
    <radialGradient cx="0" cy="0" gradientTransform="matrix(0.1491, 0.0602, -0.0965, 0.2389, 24.05, 58.2)" gradientUnits="userSpaceOnUse" id="gradient10" r="819.2" spreadMethod="pad">
      <stop offset="0.00392156862745098" stop-color="#0a39ab"/>
      <stop offset="0.7215686274509804" stop-color="#abd0fd"/>
    </radialGradient>
    <radialGradient cx="0" cy="0" gradientTransform="matrix(0.1491, 0.0602, -0.0965, 0.2389, 24.05, 58.2)" gradientUnits="userSpaceOnUse" id="gradient11" r="819.2" spreadMethod="pad">
      <stop offset="0.00392156862745098" stop-color="#0d48d0"/>
      <stop offset="0.7215686274509804" stop-color="#94c9fc"/>
    </radialGradient>
  </defs>
</svg>
