<?xml version="1.0" encoding="UTF-8" standalone="no"?>
<svg xmlns:ffdec="https://www.free-decompiler.com/flash" xmlns:xlink="http://www.w3.org/1999/xlink" ffdec:objectType="shape" height="223.15px" width="182.75px" xmlns="http://www.w3.org/2000/svg">
  <g transform="matrix(1.0, 0.0, 0.0, 1.0, 33.2, 78.85)">
    <path d="M-28.9 82.5 Q-7.85 -23.25 40.45 -72.6 L25.7 -39.55 -28.9 82.5" fill="#ffffff" fill-rule="evenodd" stroke="none"/>
    <path d="M106.95 57.2 L43.4 63.2 44.1 -70.5 106.95 57.2" fill="url(#gradient0)" fill-rule="evenodd" stroke="none"/>
    <path d="M-28.9 82.5 L25.7 -39.55 Q19.45 -5.3 43.4 68.25 11.65 68.1 -28.9 82.5" fill="url(#gradient1)" fill-rule="evenodd" stroke="none"/>
    <path d="M25.7 -39.55 L40.45 -72.6 Q-7.85 -23.25 -28.9 82.5 L25.7 -39.55 Q19.45 -5.3 43.4 68.25 11.65 68.1 -28.9 82.5 M106.95 57.2 L44.1 -70.5" fill="none" stroke="#000000" stroke-linecap="round" stroke-linejoin="round" stroke-width="1.7000000000000002"/>
    <path d="M44.1 -74.85 L43.4 63.2 106.95 57.2 Q109.95 57.65 109.55 60.45 L109.4 60.85 109.15 61.3 Q108.55 62.25 107.4 62.2 L43.4 68.25 43.3 81.4 Q42.7 84.9 39.2 84.15 L38.75 83.85 38.2 83.45 Q37.35 82.65 37.3 81.35 L38.1 -74.9 39.0 -77.0 Q42.05 -79.15 43.75 -75.95 L44.1 -74.85" fill="#ffffff" fill-rule="evenodd" stroke="none"/>
    <path d="M44.1 -74.85 L43.4 63.2 106.95 57.2 Q109.95 57.65 109.55 60.45 L109.4 60.85 109.15 61.3 Q108.55 62.25 107.4 62.2 L43.4 68.25 43.3 81.4 Q42.7 84.9 39.2 84.15 L38.75 83.85 38.2 83.45 Q37.35 82.65 37.3 81.35 L38.1 -74.9 39.0 -77.0 Q42.05 -79.15 43.75 -75.95 L44.1 -74.85 Z" fill="none" stroke="#000000" stroke-linecap="round" stroke-linejoin="round" stroke-width="2.0"/>
    <path d="M-30.55 86.7 L-32.2 82.1 13.1 86.8 22.9 79.75 73.15 79.55 Q79.55 79.65 82.3 85.05 L84.35 91.45 Q116.3 92.75 147.85 92.7 L148.4 97.15 Q59.1 97.6 -30.55 86.7 M51.25 82.75 L50.9 82.75 Q42.5 82.85 41.95 84.9 42.85 85.75 51.2 86.25 L74.5 87.3 72.55 83.0 51.25 82.75 M13.1 86.8 Q48.95 90.0 84.35 91.45 48.95 90.0 13.1 86.8" fill="#ffffff" fill-rule="evenodd" stroke="none"/>
    <path d="M51.25 82.75 L72.55 83.0 74.5 87.3 51.2 86.25 Q42.85 85.75 41.95 84.9 42.5 82.85 50.9 82.75 L51.25 82.75" fill="#000000" fill-rule="evenodd" stroke="none"/>
    <path d="M147.2 113.3 L145.95 118.85 104.75 119.75 79.8 119.95 86.3 142.3 64.2 143.3 Q59.9 143.6 57.4 140.25 L46.0 120.4 46.0 119.85 Q13.3 119.55 -19.35 118.4 L-21.75 111.6 62.45 114.75 Q83.55 114.95 104.75 114.6 L147.2 113.3 M46.0 119.85 L62.45 119.95 79.8 119.95 62.45 119.95 46.0 119.85" fill="url(#gradient2)" fill-rule="evenodd" stroke="none"/>
    <path d="M148.4 97.15 Q148.95 104.85 147.2 113.3 L104.75 114.6 Q83.55 114.95 62.45 114.75 L-21.75 111.6 -30.55 86.7 Q59.1 97.6 148.4 97.15" fill="url(#gradient3)" fill-rule="evenodd" stroke="none"/>
    <path d="M-30.55 86.7 L-32.2 82.1 13.1 86.8 22.9 79.75 73.15 79.55 Q79.55 79.65 82.3 85.05 L84.35 91.45 Q116.3 92.75 147.85 92.7 L148.4 97.15 Q148.95 104.85 147.2 113.3 L145.95 118.85 104.75 119.75 79.8 119.95 86.3 142.3 64.2 143.3 Q59.9 143.6 57.4 140.25 L46.0 120.4 M46.0 119.85 Q13.3 119.55 -19.35 118.4 L-21.75 111.6 -30.55 86.7 M79.8 119.95 L62.45 119.95 46.0 119.85 M84.35 91.45 Q48.95 90.0 13.1 86.8" fill="none" stroke="#000000" stroke-linecap="round" stroke-linejoin="round" stroke-width="2.0"/>
  </g>
  <defs>
    <linearGradient gradientTransform="matrix(-0.0338, 0.0176, -0.0402, -0.077, 49.35, 7.0)" gradientUnits="userSpaceOnUse" id="gradient0" spreadMethod="pad" x1="-819.2" x2="819.2">
      <stop offset="0.3803921568627451" stop-color="#ffffff"/>
      <stop offset="0.803921568627451" stop-color="#d5d5d5"/>
    </linearGradient>
    <linearGradient gradientTransform="matrix(-0.0269, -0.0213, 0.049, -0.062, 12.55, 26.75)" gradientUnits="userSpaceOnUse" id="gradient1" spreadMethod="pad" x1="-819.2" x2="819.2">
      <stop offset="0.3803921568627451" stop-color="#dddddd"/>
      <stop offset="0.803921568627451" stop-color="#a2a2a2"/>
    </linearGradient>
    <linearGradient gradientTransform="matrix(-0.1031, 0.0, 0.0, -0.0051, 62.7, 115.8)" gradientUnits="userSpaceOnUse" id="gradient2" spreadMethod="pad" x1="-819.2" x2="819.2">
      <stop offset="0.3333333333333333" stop-color="#d20202"/>
      <stop offset="0.8549019607843137" stop-color="#760101"/>
    </linearGradient>
    <linearGradient gradientTransform="matrix(-0.1086, 0.0059, -0.0011, -0.0221, 59.35, 100.0)" gradientUnits="userSpaceOnUse" id="gradient3" spreadMethod="pad" x1="-819.2" x2="819.2">
      <stop offset="0.3333333333333333" stop-color="#a7ced8"/>
      <stop offset="0.8549019607843137" stop-color="#2274aa"/>
    </linearGradient>
  </defs>
</svg>
