<?xml version="1.0" encoding="UTF-8" standalone="no"?>
<svg xmlns:ffdec="https://www.free-decompiler.com/flash" xmlns:xlink="http://www.w3.org/1999/xlink" ffdec:objectType="shape" height="154.55px" width="93.55px" xmlns="http://www.w3.org/2000/svg">
  <g transform="matrix(1.0, 0.0, 0.0, 1.0, 45.25, 75.8)">
    <path d="M0.8 -74.85 Q1.95 -74.9 2.8 -73.8 3.65 -72.75 3.7 -71.2 L5.2 74.05 Q5.2 75.55 4.4 76.65 3.55 77.75 2.4 77.8 1.2 77.8 0.35 76.7 -0.5 75.65 -0.5 74.15 L-2.0 -71.1 Q-2.05 -72.6 -1.2 -73.7 -0.4 -74.85 0.8 -74.85" fill="#ffffff" fill-rule="evenodd" stroke="none"/>
    <path d="M0.8 -74.85 Q-0.4 -74.85 -1.2 -73.7 -2.05 -72.6 -2.0 -71.1 L-0.5 74.15 Q-0.5 75.65 0.35 76.7 1.2 77.8 2.4 77.8 3.55 77.75 4.4 76.65 5.2 75.55 5.2 74.05 L3.7 -71.2 Q3.65 -72.75 2.8 -73.8 1.95 -74.9 0.8 -74.85 Z" fill="none" stroke="#000000" stroke-linecap="round" stroke-linejoin="round" stroke-width="1.9000000000000001"/>
    <path d="M-11.95 55.95 L-27.75 55.95 Q-28.4 35.5 -39.15 17.65 L-39.45 17.15 Q-35.95 -6.9 -39.45 -19.3 L-39.05 -19.9 Q-29.25 -36.2 -29.05 -52.45 L28.65 -54.6 28.95 -51.45 Q13.1 -48.9 0.9 -39.7 -10.6 -31.05 -14.25 -19.9 L39.7 -19.9 40.95 -17.7 41.8 -16.3 39.8 -17.0 Q18.95 -15.0 3.3 -4.75 -11.15 4.7 -14.85 17.1 L41.55 15.8 41.7 16.8 41.05 16.95 Q19.0 20.25 5.35 30.5 -7.75 40.35 -11.95 55.95" fill="url(#gradient0)" fill-rule="evenodd" stroke="none"/>
    <path d="M28.95 -51.45 Q31.0 -35.7 39.7 -19.9 L-14.25 -19.9 Q-10.6 -31.05 0.9 -39.7 13.1 -48.9 28.95 -51.45 M41.8 -16.3 Q38.25 -1.4 41.55 15.8 L-14.85 17.1 Q-11.15 4.7 3.3 -4.75 18.95 -15.0 39.8 -17.0 L41.8 -16.3 M41.7 17.25 Q30.35 36.6 31.4 55.95 L-11.95 55.95 Q-7.75 40.35 5.35 30.5 19.0 20.25 41.05 16.95 L41.7 17.25" fill="#ffffff" fill-rule="evenodd" stroke="none"/>
    <path d="M-11.95 55.95 L-27.75 55.95 Q-28.4 35.5 -39.15 17.65 L-39.45 17.15 Q-35.95 -6.9 -39.45 -19.3 L-39.05 -19.9 Q-29.25 -36.2 -29.05 -52.45 L28.65 -54.6 28.95 -51.45 Q31.0 -35.7 39.7 -19.9 L40.95 -17.7 41.8 -16.3 Q38.25 -1.4 41.55 15.8 L41.7 16.8 41.8 17.15 41.7 17.25 Q30.35 36.6 31.4 55.95 L-11.95 55.95 Z" fill="none" stroke="#000000" stroke-linecap="round" stroke-linejoin="round" stroke-width="2.0"/>
    <path d="M36.55 55.1 Q35.7 55.95 34.5 55.95 L-30.45 55.95 Q-31.65 55.95 -32.45 55.1 -33.3 54.25 -33.3 53.1 -33.3 51.9 -32.45 51.1 -31.65 50.25 -30.45 50.25 L34.5 50.25 Q35.7 50.25 36.55 51.1 37.35 51.9 37.35 53.1 37.35 54.25 36.55 55.1 M46.5 -17.15 Q45.65 -16.3 44.45 -16.3 L-41.4 -16.3 Q-42.6 -16.3 -43.4 -17.15 -44.25 -18.0 -44.25 -19.15 -44.25 -20.35 -43.4 -21.15 -42.6 -22.0 -41.4 -22.0 L44.45 -22.0 Q45.65 -22.0 46.5 -21.15 47.3 -20.35 47.3 -19.15 47.3 -18.0 46.5 -17.15 M47.3 17.0 Q47.3 18.15 46.5 19.0 45.65 19.8 44.45 19.8 L-41.4 19.8 Q-42.6 19.8 -43.4 19.0 -44.25 18.15 -44.25 17.0 -44.25 15.8 -43.4 14.95 -42.6 14.1 -41.4 14.15 L44.45 14.15 Q45.65 14.1 46.5 14.95 47.3 15.8 47.3 17.0 M-32.9 -57.3 Q-32.05 -58.15 -30.85 -58.1 L30.45 -58.1 Q31.6 -58.15 32.45 -57.3 33.3 -56.45 33.3 -55.25 33.3 -54.1 32.45 -53.25 31.6 -52.45 30.45 -52.45 L-30.85 -52.45 Q-32.05 -52.45 -32.9 -53.25 -33.75 -54.1 -33.7 -55.25 -33.75 -56.45 -32.9 -57.3" fill="#ffffff" fill-rule="evenodd" stroke="none"/>
    <path d="M-32.9 -57.3 Q-33.75 -56.45 -33.7 -55.25 -33.75 -54.1 -32.9 -53.25 -32.05 -52.45 -30.85 -52.45 L30.45 -52.45 Q31.6 -52.45 32.45 -53.25 33.3 -54.1 33.3 -55.25 33.3 -56.45 32.45 -57.3 31.6 -58.15 30.45 -58.1 L-30.85 -58.1 Q-32.05 -58.15 -32.9 -57.3 M47.3 17.0 Q47.3 15.8 46.5 14.95 45.65 14.1 44.45 14.15 L-41.4 14.15 Q-42.6 14.1 -43.4 14.95 -44.25 15.8 -44.25 17.0 -44.25 18.15 -43.4 19.0 -42.6 19.8 -41.4 19.8 L44.45 19.8 Q45.65 19.8 46.5 19.0 47.3 18.15 47.3 17.0 M46.5 -17.15 Q47.3 -18.0 47.3 -19.15 47.3 -20.35 46.5 -21.15 45.65 -22.0 44.45 -22.0 L-41.4 -22.0 Q-42.6 -22.0 -43.4 -21.15 -44.25 -20.35 -44.25 -19.15 -44.25 -18.0 -43.4 -17.15 -42.6 -16.3 -41.4 -16.3 L44.45 -16.3 Q45.65 -16.3 46.5 -17.15 M36.55 55.1 Q37.35 54.25 37.35 53.1 37.35 51.9 36.55 51.1 35.7 50.25 34.5 50.25 L-30.45 50.25 Q-31.65 50.25 -32.45 51.1 -33.3 51.9 -33.3 53.1 -33.3 54.25 -32.45 55.1 -31.65 55.95 -30.45 55.95 L34.5 55.95 Q35.7 55.95 36.55 55.1 Z" fill="none" stroke="#000000" stroke-linecap="round" stroke-linejoin="round" stroke-width="2.0"/>
  </g>
  <defs>
    <linearGradient gradientTransform="matrix(0.0415, 0.0, 0.0, 0.0212, -5.05, -37.25)" gradientUnits="userSpaceOnUse" id="gradient0" spreadMethod="pad" x1="-819.2" x2="819.2">
      <stop offset="0.0" stop-color="#ffffff"/>
      <stop offset="0.4627450980392157" stop-color="#cccccc"/>
    </linearGradient>
  </defs>
</svg>
