<?xml version="1.0" encoding="UTF-8" standalone="no"?>
<svg xmlns:ffdec="https://www.free-decompiler.com/flash" xmlns:xlink="http://www.w3.org/1999/xlink" ffdec:objectType="shape" height="470.9px" width="452.95px" xmlns="http://www.w3.org/2000/svg">
  <g transform="matrix(1.0, 0.0, 0.0, 1.0, 278.0, 237.7)">
    <path d="M-203.4 141.2 Q-203.95 141.05 -203.4 140.95 L-203.4 141.2 M-188.75 139.45 L-188.4 138.8 -188.7 139.45 -188.75 139.45 M-60.75 162.05 L-61.45 162.05 -61.45 158.85 Q-61.4 160.55 -60.75 162.05" fill="#ffffff" fill-rule="evenodd" stroke="none"/>
    <path d="M68.45 97.9 L68.45 160.45 Q41.55 160.7 11.5 161.75 -16.6 162.7 -44.95 162.35 -44.15 160.65 -44.15 158.6 -44.15 155.0 -46.7 152.45 -49.2 149.95 -52.8 149.95 -56.4 149.95 -58.95 152.45 -61.45 155.0 -61.45 158.6 L-61.45 158.85 -61.45 162.05 -112.0 159.75 Q-165.5 153.1 -188.7 139.45 L-188.4 138.8 -34.2 138.8 -19.65 97.9 68.45 97.9 M1.8 135.4 L1.8 103.25 -13.75 103.25 -24.4 135.35 1.8 135.4 M61.15 135.4 L61.15 103.3 37.35 103.3 37.35 135.4 61.15 135.4 M10.05 135.4 L29.55 135.4 29.55 103.3 10.05 103.25 10.05 135.4" fill="#a9724e" fill-rule="evenodd" stroke="none"/>
    <path d="M-204.1 141.35 L-203.4 141.2 -203.35 145.55 -204.1 141.35 M-203.4 141.2 L-203.35 145.55 -203.4 141.2" fill="#f2f2f2" fill-rule="evenodd" stroke="none"/>
    <path d="M71.35 90.9 L73.85 91.95 Q74.85 92.95 74.85 94.4 74.85 95.85 73.85 96.9 72.8 97.9 71.35 97.9 L68.45 97.9 -19.65 97.9 -22.05 97.9 Q-23.5 97.9 -24.5 96.9 -25.55 95.85 -25.55 94.4 -25.55 92.95 -24.5 91.95 L-22.05 90.9 71.35 90.9 M-207.15 152.1 L-207.25 152.0 Q-209.5 149.0 -210.05 145.8 -210.35 144.45 -209.6 143.35 -208.9 142.2 -207.55 141.95 L-204.1 141.35 -203.35 145.55 Q-196.3 163.85 -113.1 174.0 L-113.2 173.95 Q-47.1 179.6 8.4 176.4 67.8 172.75 122.2 175.9 L122.65 175.9 Q124.0 176.0 124.9 177.0 125.8 178.0 125.7 179.35 125.6 180.7 124.6 181.6 123.6 182.45 122.25 182.4 L122.1 182.4 Q67.95 179.25 8.8 182.9 -47.15 186.1 -113.75 180.45 L-113.9 180.45 Q-182.55 172.1 -202.25 156.9 L-204.8 154.75 -207.15 152.1" fill="#e1e1e1" fill-rule="evenodd" stroke="none"/>
    <path d="M119.55 160.7 L118.05 154.35 129.25 157.25 Q141.4 199.55 116.1 230.2 L96.35 230.2 Q120.3 209.0 122.1 182.4 L122.25 182.4 Q123.6 182.45 124.6 181.6 125.6 180.7 125.7 179.35 125.8 178.0 124.9 177.0 124.0 176.0 122.65 175.9 L122.2 175.9 Q121.9 168.45 119.55 160.7 M-153.55 230.2 L-169.15 230.2 Q-204.25 204.0 -206.95 157.4 L-206.95 157.3 -206.95 157.1 -207.15 152.1 -204.8 154.75 -202.25 156.9 Q-195.85 198.7 -153.55 230.2" fill="#91723c" fill-rule="evenodd" stroke="none"/>
    <path d="M61.15 135.4 L37.35 135.4 37.35 103.3 61.15 103.3 61.15 135.4 M1.8 135.4 L-24.4 135.35 -13.75 103.25 1.8 103.25 1.8 135.4 M10.05 135.4 L10.05 103.25 29.55 103.3 29.55 135.4 10.05 135.4 M-61.45 158.85 L-61.45 158.6 Q-61.45 155.0 -58.95 152.45 -56.4 149.95 -52.8 149.95 -49.2 149.95 -46.7 152.45 -44.15 155.0 -44.15 158.6 -44.15 160.65 -44.95 162.35 L-60.75 162.05 Q-61.4 160.55 -61.45 158.85" fill="#333333" fill-rule="evenodd" stroke="none"/>
    <path d="M68.45 160.45 Q95.6 160.15 119.55 160.7 121.9 168.45 122.2 175.9 67.8 172.75 8.4 176.4 -47.1 179.6 -113.2 173.95 L-113.1 174.0 Q-196.3 163.85 -203.35 145.55 L-203.4 141.2 -203.4 140.95 Q-203.4 134.25 -202.5 127.35 -198.1 133.9 -188.8 139.4 L-188.75 139.45 -188.7 139.45 Q-165.5 153.1 -112.0 159.75 L-61.45 162.05 -60.75 162.05 -44.95 162.35 Q-16.6 162.7 11.5 161.75 41.55 160.7 68.45 160.45 M96.35 230.2 L-153.55 230.2 Q-195.85 198.7 -202.25 156.9 -182.55 172.1 -113.9 180.45 L-113.75 180.45 Q-47.15 186.1 8.8 182.9 67.95 179.25 122.1 182.4 120.3 209.0 96.35 230.2" fill="url(#gradient0)" fill-rule="evenodd" stroke="none"/>
    <path d="M-203.35 145.55 L-203.4 141.2" fill="none" stroke="#333333" stroke-linecap="round" stroke-linejoin="round" stroke-width="6.0"/>
    <path d="M73.85 91.95 Q72.8 90.9 71.35 90.9 L-22.05 90.9 Q-23.5 90.9 -24.5 91.95 -25.55 92.95 -25.55 94.4 -25.55 95.85 -24.5 96.9 -23.5 97.9 -22.05 97.9 L-19.65 97.9 68.45 97.9 68.45 160.45 Q95.6 160.15 119.55 160.7 L118.05 154.35 129.25 157.25 Q141.4 199.55 116.1 230.2 L96.35 230.2 -153.55 230.2 -169.15 230.2 Q-204.25 204.0 -206.95 157.4 L-206.95 157.3 -206.95 157.1 -207.15 152.1 -207.25 152.0 Q-209.5 149.0 -210.05 145.8 -210.35 144.45 -209.6 143.35 -208.9 142.2 -207.55 141.95 L-204.1 141.35 -203.4 141.2 Q-203.95 141.05 -203.4 140.95 -203.4 134.25 -202.5 127.35 -198.1 133.9 -188.8 139.4 L-188.75 139.45 -188.7 139.45 Q-165.5 153.1 -112.0 159.75 L-61.45 162.05 -61.45 158.85 -61.45 158.6 Q-61.45 155.0 -58.95 152.45 -56.4 149.95 -52.8 149.95 -49.2 149.95 -46.7 152.45 -44.15 155.0 -44.15 158.6 -44.15 160.65 -44.95 162.35 L-60.75 162.05 -61.45 162.05 M73.85 91.95 Q74.85 92.95 74.85 94.4 74.85 95.85 73.85 96.9 72.8 97.9 71.35 97.9 L68.45 97.9 M-188.4 138.8 L-34.2 138.8 -19.65 97.9 M61.15 135.4 L37.35 135.4 37.35 103.3 61.15 103.3 61.15 135.4 M1.8 135.4 L-24.4 135.35 -13.75 103.25 1.8 103.25 1.8 135.4 M10.05 135.4 L29.55 135.4 29.55 103.3 10.05 103.25 10.05 135.4 M-202.25 156.9 Q-182.55 172.1 -113.9 180.45 L-113.75 180.45 Q-47.15 186.1 8.8 182.9 67.95 179.25 122.1 182.4 L122.25 182.4 Q123.6 182.45 124.6 181.6 125.6 180.7 125.7 179.35 125.8 178.0 124.9 177.0 124.0 176.0 122.65 175.9 L122.2 175.9 Q67.8 172.75 8.4 176.4 -47.1 179.6 -113.2 173.95 L-113.1 174.0 Q-196.3 163.85 -203.35 145.55 L-203.4 141.2 -203.4 140.95 M-44.95 162.35 Q-16.6 162.7 11.5 161.75 41.55 160.7 68.45 160.45 M119.55 160.7 Q121.9 168.45 122.2 175.9 M122.1 182.4 Q120.3 209.0 96.35 230.2 M-188.4 138.8 L-188.7 139.45 M-207.15 152.1 L-204.8 154.75 -202.25 156.9 Q-195.85 198.7 -153.55 230.2" fill="none" stroke="#000000" stroke-linecap="round" stroke-linejoin="round" stroke-width="6.0"/>
    <path d="M100.35 -114.2 L98.95 -111.45 Q99.05 -113.1 100.35 -114.2 M67.55 -189.15 L65.3 -188.7 Q66.35 -189.4 67.55 -189.15 M-89.15 154.25 L-87.55 151.2 Q-87.75 153.0 -89.15 154.25 M83.55 115.2 L83.5 116.1 83.45 115.95 83.55 115.2 M79.95 167.55 L80.95 170.45 Q79.85 169.2 79.95 167.55 M161.3 110.8 L163.3 109.7 Q162.5 110.65 161.3 110.8 M169.75 -89.05 L167.5 -88.8 169.75 -89.05 M-273.45 116.2 Q-272.4 115.6 -271.2 115.9 L-273.45 116.2 M-194.55 142.4 Q-195.65 143.0 -196.85 142.7 L-194.55 142.4" fill="#ffffff" fill-rule="evenodd" stroke="none"/>
    <path d="M98.95 -111.45 L100.35 -114.2 Q101.6 -115.3 103.25 -115.2 104.85 -115.1 105.95 -113.8 107.05 -112.55 106.95 -110.9 L103.0 -52.45 167.5 -88.8 169.75 -89.05 Q170.95 -88.75 171.55 -87.65 172.15 -86.6 171.85 -85.4 171.5 -84.2 170.45 -83.55 L102.5 -45.25 91.8 112.2 160.65 104.85 Q161.85 104.7 162.85 105.5 163.8 106.25 163.95 107.5 164.05 108.7 163.3 109.7 L161.3 110.8 91.35 118.25 87.95 168.1 Q87.85 169.7 86.6 170.8 85.3 171.9 83.7 171.8 82.05 171.7 80.95 170.45 L79.95 167.55 83.5 116.1 83.55 115.2 86.55 71.1 -82.7 91.55 -87.55 151.2 -89.15 154.25 Q-90.55 155.45 -92.4 155.3 -94.25 155.1 -95.45 153.7 -96.7 152.3 -96.5 150.45 L-65.5 -230.55 Q-65.35 -232.4 -63.95 -233.6 -62.55 -234.85 -60.65 -234.65 -58.85 -234.5 -57.6 -233.1 -56.4 -231.7 -56.55 -229.8 L-67.05 -100.75 65.3 -188.7 67.55 -189.15 Q68.75 -188.9 69.45 -187.85 70.15 -186.8 69.9 -185.6 69.65 -184.4 68.6 -183.7 L-67.7 -93.15 -82.2 85.45 86.95 65.05 98.95 -111.45 M-271.2 115.9 L-195.25 136.9 Q-194.05 137.25 -193.45 138.35 -192.85 139.4 -193.15 140.6 -193.5 141.8 -194.55 142.4 L-196.85 142.7 -272.8 121.7 Q-274.0 121.35 -274.6 120.3 -275.2 119.2 -274.9 118.0 -274.55 116.8 -273.45 116.2 L-271.2 115.9" fill="#a9724e" fill-rule="evenodd" stroke="none"/>
    <path d="M100.35 -114.2 L98.95 -111.45 86.95 65.05 -82.2 85.45 -67.7 -93.15 68.6 -183.7 Q69.65 -184.4 69.9 -185.6 70.15 -186.8 69.45 -187.85 68.75 -188.9 67.55 -189.15 L65.3 -188.7 -67.05 -100.75 -56.55 -229.8 Q-56.4 -231.7 -57.6 -233.1 -58.85 -234.5 -60.65 -234.65 -62.55 -234.85 -63.95 -233.6 -65.35 -232.4 -65.5 -230.55 L-96.5 150.45 Q-96.7 152.3 -95.45 153.7 -94.25 155.1 -92.4 155.3 -90.55 155.45 -89.15 154.25 L-87.55 151.2 -82.7 91.55 86.55 71.1 83.55 115.2 83.5 116.1 79.95 167.55 80.95 170.45 Q82.05 171.7 83.7 171.8 85.3 171.9 86.6 170.8 87.85 169.7 87.95 168.1 L91.35 118.25 161.3 110.8 163.3 109.7 Q164.05 108.7 163.95 107.5 163.8 106.25 162.85 105.5 161.85 104.7 160.65 104.85 L91.8 112.2 102.5 -45.25 170.45 -83.55 Q171.5 -84.2 171.85 -85.4 172.15 -86.6 171.55 -87.65 170.95 -88.75 169.75 -89.05 L167.5 -88.8 103.0 -52.45 106.95 -110.9 Q107.05 -112.55 105.95 -113.8 104.85 -115.1 103.25 -115.2 101.6 -115.3 100.35 -114.2 M-271.2 115.9 L-195.25 136.9 Q-194.05 137.25 -193.45 138.35 -192.85 139.4 -193.15 140.6 -193.5 141.8 -194.55 142.4 M-196.85 142.7 L-272.8 121.7 Q-274.0 121.35 -274.6 120.3 -275.2 119.2 -274.9 118.0 -274.55 116.8 -273.45 116.2" fill="none" stroke="#000000" stroke-linecap="round" stroke-linejoin="round" stroke-width="6.0"/>
    <path d="M91.85 -7.15 L98.95 -111.45 Q99.05 -113.1 100.35 -114.2 101.6 -115.3 103.25 -115.2 104.85 -115.1 105.95 -113.8 107.05 -112.55 106.95 -110.9 L106.7 -106.9 103.0 -52.45 160.4 -84.8 167.5 -88.8 169.75 -89.05 Q170.95 -88.75 171.55 -87.65 172.15 -86.6 171.85 -85.4 171.5 -84.2 170.45 -83.55 L168.55 -82.5 102.5 -45.25 91.8 112.2 159.85 104.9 160.65 104.85 Q161.85 104.7 162.85 105.5 163.8 106.25 163.95 107.5 164.05 108.7 163.3 109.7 162.5 110.65 161.3 110.8 L91.35 118.25 87.95 168.1 Q87.85 169.7 86.6 170.8 85.3 171.9 83.7 171.8 82.05 171.7 80.95 170.45 79.85 169.2 79.95 167.55 L83.5 116.1 83.45 115.95 83.55 115.2 86.55 71.1 -82.7 91.55 -87.55 151.2 Q-87.75 153.0 -89.15 154.25 -90.55 155.45 -92.4 155.3 -94.25 155.1 -95.45 153.7 -96.7 152.3 -96.5 150.45 L-91.6 89.85 -83.35 -11.35 -66.15 -222.85 -65.5 -230.55 Q-65.35 -232.4 -63.95 -233.6 -62.55 -234.85 -60.65 -234.65 -58.85 -234.5 -57.6 -233.1 -56.4 -231.7 -56.55 -229.8 L-59.95 -188.15 -67.05 -100.75 2.25 -146.8 52.8 -180.35 65.3 -188.7 Q66.35 -189.4 67.55 -189.15 68.75 -188.9 69.45 -187.85 70.15 -186.8 69.9 -185.6 69.65 -184.4 68.6 -183.7 L63.1 -180.05 -65.15 -94.85 -67.7 -93.15 -82.2 85.45 -80.0 85.2 86.95 65.05 91.85 -7.15 M-274.9 118.0 Q-274.55 116.8 -273.45 116.2 -272.4 115.6 -271.2 115.9 L-195.25 136.9 Q-194.05 137.25 -193.45 138.35 -192.85 139.4 -193.15 140.6 -193.5 141.8 -194.55 142.4 -195.65 143.0 -196.85 142.7 L-272.8 121.7 Q-274.0 121.35 -274.6 120.3 -275.2 119.2 -274.9 118.0" fill="#ffffff" fill-rule="evenodd" stroke="none"/>
    <path d="M91.85 -7.15 L86.95 65.05 -80.0 85.2 Q-51.75 4.3 -64.05 -93.2 L-65.15 -94.85 63.1 -180.05 Q67.7 -80.6 90.95 -7.2 L91.85 -7.15" fill="url(#gradient1)" fill-rule="evenodd" stroke="none"/>
    <path d="M159.85 104.9 L91.8 112.2 102.5 -45.25 168.55 -82.5 Q154.8 11.2 159.85 104.9" fill="url(#gradient2)" fill-rule="evenodd" stroke="none"/>
    <path d="M-94.2 -166.9 L-105.8 -86.95 -106.45 -85.35 Q-139.6 -1.85 -176.3 78.15 L-177.05 77.8 Q-211.15 82.45 -264.4 109.5 -170.15 -20.7 -94.2 -166.9" fill="url(#gradient3)" fill-rule="evenodd" stroke="none"/>
    <path d="M-83.35 -11.35 L-91.6 89.85 -92.05 89.8 -189.0 105.5 -176.3 78.15 Q-139.6 -1.85 -106.45 -85.35 L-105.8 -86.95 Q-93.2 -118.8 -81.05 -151.1 -87.85 -87.75 -83.35 -11.35" fill="url(#gradient4)" fill-rule="evenodd" stroke="none"/>
    <path d="M-92.05 89.8 L-91.6 89.85 -92.05 89.8" fill="url(#gradient5)" fill-rule="evenodd" stroke="none"/>
    <path d="M168.55 -82.5 Q154.8 11.2 159.85 104.9 M52.8 -180.35 L1.95 -167.2 2.25 -146.8 M90.95 -7.2 Q67.7 -80.6 63.1 -180.05 M106.7 -106.9 L160.4 -84.8 M-81.05 -151.1 L-80.7 -152.05 -72.0 -175.6 -71.05 -178.2 M-66.15 -222.85 Q-79.6 -195.15 -93.65 -168.0 L-94.2 -166.9 -105.8 -86.95 Q-93.2 -118.8 -81.05 -151.1 -87.85 -87.75 -83.35 -11.35 M-176.3 78.15 Q-139.6 -1.85 -106.45 -85.35 L-105.8 -86.95 M-177.05 77.8 Q-211.15 82.45 -264.4 109.5 L-269.0 115.8 M-189.0 105.5 L-201.05 130.8 M-189.0 105.5 L-176.3 78.15 M-92.05 89.8 L-189.0 105.5 M-80.0 85.2 Q-51.75 4.3 -64.05 -93.2 M-94.2 -166.9 Q-170.15 -20.7 -264.4 109.5 M-59.95 -188.15 L1.95 -167.2 -56.05 -225.2" fill="none" stroke="#000000" stroke-linecap="round" stroke-linejoin="round" stroke-width="0.05"/>
    <path d="M168.55 -82.5 L170.45 -83.55 Q171.5 -84.2 171.85 -85.4 172.15 -86.6 171.55 -87.65 170.95 -88.75 169.75 -89.05 L167.5 -88.8 160.4 -84.8 103.0 -52.45 106.7 -106.9 106.95 -110.9 Q107.05 -112.55 105.95 -113.8 104.85 -115.1 103.25 -115.2 101.6 -115.3 100.35 -114.2 99.05 -113.1 98.95 -111.45 L91.85 -7.15 86.95 65.05 -80.0 85.2 -82.2 85.45 -67.7 -93.15 -65.15 -94.85 63.1 -180.05 68.6 -183.7 Q69.65 -184.4 69.9 -185.6 70.15 -186.8 69.45 -187.85 68.75 -188.9 67.55 -189.15 66.35 -189.4 65.3 -188.7 L52.8 -180.35 2.25 -146.8 -67.05 -100.75 -59.95 -188.15 -56.55 -229.8 Q-56.4 -231.7 -57.6 -233.1 -58.85 -234.5 -60.65 -234.65 -62.55 -234.85 -63.95 -233.6 -65.35 -232.4 -65.5 -230.55 L-66.15 -222.85 -83.35 -11.35 -91.6 89.85 -96.5 150.45 Q-96.7 152.3 -95.45 153.7 -94.25 155.1 -92.4 155.3 -90.55 155.45 -89.15 154.25 -87.75 153.0 -87.55 151.2 L-82.7 91.55 86.55 71.1 83.55 115.2 83.45 115.95 83.5 116.1 79.95 167.55 Q79.85 169.2 80.95 170.45 82.05 171.7 83.7 171.8 85.3 171.9 86.6 170.8 87.85 169.7 87.95 168.1 L91.35 118.25 161.3 110.8 Q162.5 110.65 163.3 109.7 164.05 108.7 163.95 107.5 163.8 106.25 162.85 105.5 161.85 104.7 160.65 104.85 L159.85 104.9 91.8 112.2 102.5 -45.25 168.55 -82.5 M-274.9 118.0 Q-275.2 119.2 -274.6 120.3 -274.0 121.35 -272.8 121.7 L-196.85 142.7 Q-195.65 143.0 -194.55 142.4 -193.5 141.8 -193.15 140.6 -192.85 139.4 -193.45 138.35 -194.05 137.25 -195.25 136.9 L-271.2 115.9 Q-272.4 115.6 -273.45 116.2 -274.55 116.8 -274.9 118.0 Z" fill="none" stroke="#000000" stroke-linecap="round" stroke-linejoin="round" stroke-width="2.0"/>
    <path d="M98.95 -111.45 Q99.05 -113.1 100.35 -114.2 L98.95 -111.45 M167.5 -88.8 L169.75 -89.05 167.5 -88.8 M163.3 109.7 Q162.5 110.65 161.3 110.8 L163.3 109.7 M80.95 170.45 Q79.85 169.2 79.95 167.55 L80.95 170.45 M83.5 116.1 L83.45 115.95 83.55 115.2 83.5 116.1 M-87.55 151.2 Q-87.75 153.0 -89.15 154.25 L-87.55 151.2 M65.3 -188.7 Q66.35 -189.4 67.55 -189.15 L65.3 -188.7 M-271.2 115.9 L-273.45 116.2 Q-272.4 115.6 -271.2 115.9 M-196.85 142.7 L-194.55 142.4 Q-195.65 143.0 -196.85 142.7" fill="#ffffff" fill-rule="evenodd" stroke="none"/>
    <path d="M98.95 -111.45 L100.35 -114.2 Q101.6 -115.3 103.25 -115.2 104.85 -115.1 105.95 -113.8 107.05 -112.55 106.95 -110.9 L103.0 -52.45 167.5 -88.8 169.75 -89.05 Q170.95 -88.75 171.55 -87.65 172.15 -86.6 171.85 -85.4 171.5 -84.2 170.45 -83.55 L102.5 -45.25 91.8 112.2 160.65 104.85 Q161.85 104.7 162.85 105.5 163.8 106.25 163.95 107.5 164.05 108.7 163.3 109.7 L161.3 110.8 91.35 118.25 87.95 168.1 Q87.85 169.7 86.6 170.8 85.3 171.9 83.7 171.8 82.05 171.7 80.95 170.45 L79.95 167.55 83.5 116.1 83.55 115.2 86.55 71.1 -82.7 91.55 -87.55 151.2 -89.15 154.25 Q-90.55 155.45 -92.4 155.3 -94.25 155.1 -95.45 153.7 -96.7 152.3 -96.5 150.45 L-65.5 -230.55 Q-65.35 -232.4 -63.95 -233.6 -62.55 -234.85 -60.65 -234.65 -58.85 -234.5 -57.6 -233.1 -56.4 -231.7 -56.55 -229.8 L-67.05 -100.75 65.3 -188.7 67.55 -189.15 Q68.75 -188.9 69.45 -187.85 70.15 -186.8 69.9 -185.6 69.65 -184.4 68.6 -183.7 L-67.7 -93.15 -82.2 85.45 86.95 65.05 98.95 -111.45 M-273.45 116.2 L-271.2 115.9 -195.25 136.9 Q-194.05 137.25 -193.45 138.35 -192.85 139.4 -193.15 140.6 -193.5 141.8 -194.55 142.4 L-196.85 142.7 -272.8 121.7 Q-274.0 121.35 -274.6 120.3 -275.2 119.2 -274.9 118.0 -274.55 116.8 -273.45 116.2" fill="#a9724e" fill-rule="evenodd" stroke="none"/>
    <path d="M-188.7 139.45 L-188.75 139.45 -188.4 138.8 -188.7 139.45 M-203.4 140.95 L-203.4 141.2 Q-203.95 141.05 -203.4 140.95" fill="#ffffff" fill-rule="evenodd" stroke="none"/>
    <path d="M68.45 97.9 L68.45 160.45 Q41.55 160.7 11.5 161.75 -16.6 162.7 -44.95 162.35 -44.15 160.65 -44.15 158.6 -44.15 155.0 -46.7 152.45 -49.2 149.95 -52.8 149.95 -56.4 149.95 -58.95 152.45 -61.45 155.0 -61.45 158.6 L-61.45 158.85 Q-61.4 160.55 -60.75 162.05 L-61.45 162.05 -112.0 159.75 Q-165.5 153.1 -188.7 139.45 L-188.4 138.8 -34.2 138.8 -19.65 97.9 68.45 97.9 M0.8 134.4 L0.8 104.25 -13.0 104.25 -23.0 134.35 0.8 134.4 M11.05 104.25 L11.05 134.4 28.55 134.4 28.55 104.3 11.05 104.25 M60.15 134.4 L60.15 104.3 38.35 104.3 38.35 134.4 60.15 134.4" fill="#a9724e" fill-rule="evenodd" stroke="none"/>
    <path d="M-203.35 145.55 L-204.1 141.35 -203.4 141.2 -203.35 145.55 -203.4 141.2 -203.35 145.55" fill="#f2f2f2" fill-rule="evenodd" stroke="none"/>
    <path d="M73.85 91.95 Q74.85 92.95 74.85 94.4 74.85 95.85 73.85 96.9 72.8 97.9 71.35 97.9 L68.45 97.9 -19.65 97.9 -22.05 97.9 Q-23.5 97.9 -24.5 96.9 -25.55 95.85 -25.55 94.4 -25.55 92.95 -24.5 91.95 L-22.05 90.9 71.35 90.9 73.85 91.95 M122.1 182.4 Q67.95 179.25 8.8 182.9 -47.15 186.1 -113.75 180.45 L-113.9 180.45 Q-182.55 172.1 -202.25 156.9 L-204.8 154.75 -207.15 152.1 -207.25 152.0 Q-209.5 149.0 -210.05 145.8 -210.35 144.45 -209.6 143.35 -208.9 142.2 -207.55 141.95 L-204.1 141.35 -203.35 145.55 Q-196.3 163.85 -113.1 174.0 L-113.2 173.95 Q-47.1 179.6 8.4 176.4 67.8 172.75 122.2 175.9 L122.65 175.9 Q124.0 176.0 124.9 177.0 125.8 178.0 125.7 179.35 125.6 180.7 124.6 181.6 123.6 182.45 122.25 182.4 L122.1 182.4" fill="#e1e1e1" fill-rule="evenodd" stroke="none"/>
    <path d="M119.55 160.7 L118.05 154.35 129.25 157.25 Q141.4 199.55 116.1 230.2 L96.35 230.2 Q120.3 209.0 122.1 182.4 L122.25 182.4 Q123.6 182.45 124.6 181.6 125.6 180.7 125.7 179.35 125.8 178.0 124.9 177.0 124.0 176.0 122.65 175.9 L122.2 175.9 Q121.9 168.45 119.55 160.7 M-207.15 152.1 L-204.8 154.75 -202.25 156.9 Q-195.85 198.7 -153.55 230.2 L-169.15 230.2 Q-204.25 204.0 -206.95 157.4 L-206.95 157.3 -206.95 157.1 -207.15 152.1" fill="#91723c" fill-rule="evenodd" stroke="none"/>
    <path d="M60.15 134.4 L38.35 134.4 38.35 104.3 60.15 104.3 60.15 134.4 M11.05 104.25 L28.55 104.3 28.55 134.4 11.05 134.4 11.05 104.25 M0.8 134.4 L-23.0 134.35 -13.0 104.25 0.8 104.25 0.8 134.4 M-61.45 158.6 Q-61.45 155.0 -58.95 152.45 -56.4 149.95 -52.8 149.95 -49.2 149.95 -46.7 152.45 -44.15 155.0 -44.15 158.6 -44.15 160.65 -44.95 162.35 L-60.75 162.05 Q-61.4 160.55 -61.45 158.85 L-61.45 158.6" fill="#333333" fill-rule="evenodd" stroke="none"/>
    <path d="M68.45 160.45 Q95.6 160.15 119.55 160.7 121.9 168.45 122.2 175.9 67.8 172.75 8.4 176.4 -47.1 179.6 -113.2 173.95 L-113.1 174.0 Q-196.3 163.85 -203.35 145.55 L-203.4 141.2 -203.4 140.95 Q-203.4 134.25 -202.5 127.35 -198.1 133.9 -188.8 139.4 L-188.75 139.45 -188.7 139.45 Q-165.5 153.1 -112.0 159.75 L-61.45 162.05 -60.75 162.05 -44.95 162.35 Q-16.6 162.7 11.5 161.75 41.55 160.7 68.45 160.45 M-202.25 156.9 Q-182.55 172.1 -113.9 180.45 L-113.75 180.45 Q-47.15 186.1 8.8 182.9 67.95 179.25 122.1 182.4 120.3 209.0 96.35 230.2 L-153.55 230.2 Q-195.85 198.7 -202.25 156.9" fill="url(#gradient6)" fill-rule="evenodd" stroke="none"/>
    <path d="M-202.25 156.9 Q-195.85 198.7 -153.55 230.2 L-152.9 230.7 M96.35 230.2 Q120.3 209.0 122.1 182.4" fill="none" stroke="#333333" stroke-linecap="round" stroke-linejoin="round" stroke-width="0.05"/>
    <path d="M73.85 91.95 Q74.85 92.95 74.85 94.4 74.85 95.85 73.85 96.9 72.8 97.9 71.35 97.9 L68.45 97.9 68.45 160.45 Q95.6 160.15 119.55 160.7 L118.05 154.35 129.25 157.25 Q141.4 199.55 116.1 230.2 L115.65 230.7 M73.85 91.95 Q72.8 90.9 71.35 90.9 L-22.05 90.9 Q-23.5 90.9 -24.5 91.95 -25.55 92.95 -25.55 94.4 -25.55 95.85 -24.5 96.9 -23.5 97.9 -22.05 97.9 L-19.65 97.9 68.45 97.9 M-202.25 156.9 Q-182.55 172.1 -113.9 180.45 L-113.75 180.45 Q-47.15 186.1 8.8 182.9 67.95 179.25 122.1 182.4 L122.25 182.4 Q123.6 182.45 124.6 181.6 125.6 180.7 125.7 179.35 125.8 178.0 124.9 177.0 124.0 176.0 122.65 175.9 L122.2 175.9 Q67.8 172.75 8.4 176.4 -47.1 179.6 -113.2 173.95 L-113.1 174.0 Q-196.3 163.85 -203.35 145.55 L-203.4 141.2 -204.1 141.35 -207.55 141.95 Q-208.9 142.2 -209.6 143.35 -210.35 144.45 -210.05 145.8 -209.5 149.0 -207.25 152.0 L-207.15 152.1 -204.8 154.75 -202.25 156.9 M-153.55 230.2 L96.35 230.2 116.1 230.2 M-44.95 162.35 Q-16.6 162.7 11.5 161.75 41.55 160.7 68.45 160.45 M119.55 160.7 Q121.9 168.45 122.2 175.9 M-61.45 158.6 L-61.45 158.85 M-60.75 162.05 L-44.95 162.35 M-60.75 162.05 L-61.45 162.05 -112.0 159.75 Q-165.5 153.1 -188.7 139.45 L-188.75 139.45 -188.8 139.4 Q-198.1 133.9 -202.5 127.35 -203.4 134.25 -203.4 140.95 L-203.4 141.2 Q-203.95 141.05 -203.4 140.95 M-188.4 138.8 L-34.2 138.8 -19.65 97.9 M-207.15 152.1 L-206.95 157.1 -206.95 157.3 -206.95 157.4 Q-204.25 204.0 -169.15 230.2 L-153.55 230.2" fill="none" stroke="#000000" stroke-linecap="round" stroke-linejoin="round" stroke-width="0.05"/>
    <path d="M25.85 138.1 L25.8 138.1 25.85 138.1" fill="#000000" fill-rule="evenodd" stroke="none"/>
    <path d="M54.15 149.35 Q53.2 146.9 51.2 144.9 L51.15 144.9 Q47.35 141.05 41.95 141.1 L41.9 141.1 Q38.6 141.05 35.9 142.45 L31.45 133.9 35.9 142.45 Q34.15 143.35 32.65 144.9 28.8 148.7 28.8 154.2 28.8 157.8 30.5 160.7 31.35 162.15 32.65 163.45 36.45 167.3 41.9 167.3 45.3 167.3 48.1 165.8 L51.2 163.45 51.15 163.45 Q55.0 159.6 55.0 154.2 55.0 151.6 54.15 149.35 L62.9 145.2 54.15 149.35 M31.45 133.9 Q36.15 131.4 41.9 131.45 L41.95 131.45 Q51.35 131.4 58.0 138.1 61.2 141.3 62.9 145.2 64.65 149.3 64.65 154.2 64.65 163.5 58.0 170.25 55.5 172.75 52.6 174.3 47.8 176.9 41.9 176.9 32.45 176.9 25.85 170.25 L25.8 170.25 Q23.35 167.7 21.8 164.85 19.15 160.05 19.2 154.2 19.2 144.75 25.85 138.1 28.4 135.45 31.45 133.9 M52.6 174.3 L48.1 165.8 52.6 174.3 M30.5 160.7 L21.8 164.85 30.5 160.7" fill="#f7896f" fill-rule="evenodd" stroke="none"/>
    <path d="M-149.0 193.7 L-148.25 193.6 Q-146.45 193.6 -146.25 195.7 -146.25 197.65 -148.25 197.65 -149.5 197.65 -150.0 196.65 L-150.3 195.6 Q-150.3 194.0 -149.0 193.7 M-134.7 195.85 Q-132.9 195.85 -132.8 197.95 -132.8 199.9 -134.75 199.9 -136.0 199.9 -136.5 198.9 L-136.8 197.85 Q-136.8 195.85 -134.75 195.85 L-134.7 195.85 M-119.35 198.15 L-119.0 198.1 Q-117.2 198.1 -117.05 200.2 -117.05 202.15 -119.0 202.15 -120.3 202.15 -120.8 201.15 L-121.1 200.1 Q-121.1 198.3 -119.35 198.15" fill="#5c3f2c" fill-rule="evenodd" stroke="none"/>
    <path d="M86.95 65.05 L86.55 71.1 M87.6 48.45 Q72.8 39.55 56.15 25.55 L36.0 89.8 M35.9 142.45 Q38.6 141.05 41.9 141.1 L41.95 141.1 Q47.35 141.05 51.15 144.9 L51.2 144.9 Q53.2 146.9 54.15 149.35 55.0 151.6 55.0 154.2 55.0 159.6 51.15 163.45 L51.2 163.45 48.1 165.8 Q45.3 167.3 41.9 167.3 36.45 167.3 32.65 163.45 31.35 162.15 30.5 160.7 28.8 157.8 28.8 154.2 28.8 148.7 32.65 144.9 34.15 143.35 35.9 142.45 M62.9 145.2 Q61.2 141.3 58.0 138.1 51.35 131.4 41.95 131.45 L41.9 131.45 Q36.15 131.4 31.45 133.9 28.4 135.45 25.85 138.1 L25.8 138.1 25.85 138.1 Q19.2 144.75 19.2 154.2 19.15 160.05 21.8 164.85 23.35 167.7 25.8 170.25 L25.85 170.25 Q32.45 176.9 41.9 176.9 47.8 176.9 52.6 174.3 55.5 172.75 58.0 170.25 64.65 163.5 64.65 154.2 64.65 149.3 62.9 145.2 M148.0 113.85 L129.05 155.75 M-149.0 193.7 Q-153.6 174.1 -151.0 152.8 L-72.0 -165.95 M-134.7 195.85 Q-137.65 174.4 -136.0 155.8 L-72.0 -161.4 M-119.35 198.15 Q-122.3 176.4 -120.0 157.8 L-72.0 -154.75 M-60.0 -185.2 Q-16.4 -35.25 56.15 25.55 L98.0 -108.2" fill="none" stroke="#000000" stroke-linecap="round" stroke-linejoin="round" stroke-width="0.05"/>
    <path d="M54.15 149.35 L62.9 145.2 M31.45 133.9 L35.9 142.45 M21.8 164.85 L30.5 160.7 M48.1 165.8 L52.6 174.3" fill="none" stroke="#cccccc" stroke-linecap="round" stroke-linejoin="round" stroke-width="3.0"/>
    <path d="M-118.65 195.45 Q-116.95 195.4 -115.7 196.65 -114.5 197.9 -114.5 199.6 -114.5 201.25 -115.7 202.5 -116.95 203.75 -118.65 203.75 -120.35 203.75 -121.55 202.5 -122.8 201.25 -122.8 199.6 -122.8 197.9 -121.55 196.65 -120.35 195.4 -118.65 195.45 M-153.55 195.75 Q-153.55 194.05 -152.3 192.8 -151.1 191.55 -149.4 191.6 -147.7 191.55 -146.45 192.8 -145.25 194.05 -145.25 195.75 -145.25 197.4 -146.45 198.65 -147.7 199.9 -149.4 199.9 -151.1 199.9 -152.3 198.65 -153.55 197.4 -153.55 195.75 M-137.65 194.8 Q-136.45 193.55 -134.75 193.6 -133.05 193.55 -131.8 194.8 -130.6 196.05 -130.6 197.75 -130.6 199.4 -131.8 200.65 -133.05 201.9 -134.75 201.9 -136.45 201.9 -137.65 200.65 -138.9 199.4 -138.9 197.75 -138.9 196.05 -137.65 194.8" fill="#513626" fill-rule="evenodd" stroke="none"/>
  </g>
  <defs>
    <radialGradient cx="0" cy="0" gradientTransform="matrix(0.5042, 0.0, 0.0, 0.2271, -28.0, 111.8)" gradientUnits="userSpaceOnUse" id="gradient0" r="819.2" spreadMethod="pad">
      <stop offset="0.5215686274509804" stop-color="#ac854a"/>
      <stop offset="0.7058823529411765" stop-color="#604928"/>
    </radialGradient>
    <linearGradient gradientTransform="matrix(0.173, 0.0903, -0.0851, 0.1631, 30.0, -29.2)" gradientUnits="userSpaceOnUse" id="gradient1" spreadMethod="pad" x1="-819.2" x2="819.2">
      <stop offset="0.23529411764705882" stop-color="#583f38"/>
      <stop offset="0.5647058823529412" stop-color="#876056"/>
    </linearGradient>
    <linearGradient gradientTransform="matrix(0.0616, 0.0072, -0.0139, 0.1179, 132.6, 9.5)" gradientUnits="userSpaceOnUse" id="gradient2" spreadMethod="pad" x1="-819.2" x2="819.2">
      <stop offset="0.26666666666666666" stop-color="#564b4b"/>
      <stop offset="0.5647058823529412" stop-color="#876056"/>
    </linearGradient>
    <linearGradient gradientTransform="matrix(0.0567, 0.0346, -0.103, 0.1686, -149.45, -21.0)" gradientUnits="userSpaceOnUse" id="gradient3" spreadMethod="pad" x1="-819.2" x2="819.2">
      <stop offset="0.26666666666666666" stop-color="#493f3f"/>
      <stop offset="0.5647058823529412" stop-color="#876056"/>
    </linearGradient>
    <linearGradient gradientTransform="matrix(0.0942, 0.0367, -0.0616, 0.1582, -99.75, -10.3)" gradientUnits="userSpaceOnUse" id="gradient4" spreadMethod="pad" x1="-819.2" x2="819.2">
      <stop offset="0.26666666666666666" stop-color="#493f3f"/>
      <stop offset="0.5647058823529412" stop-color="#876056"/>
    </linearGradient>
    <linearGradient gradientTransform="matrix(0.0659, 0.0, 0.0, 0.1566, -135.05, -22.8)" gradientUnits="userSpaceOnUse" id="gradient5" spreadMethod="pad" x1="-819.2" x2="819.2">
      <stop offset="0.26666666666666666" stop-color="#493f3f"/>
      <stop offset="0.5647058823529412" stop-color="#876056"/>
    </linearGradient>
    <radialGradient cx="0" cy="0" gradientTransform="matrix(0.5042, 0.0, 0.0, 0.2271, -28.0, 111.8)" gradientUnits="userSpaceOnUse" id="gradient6" r="819.2" spreadMethod="pad">
      <stop offset="0.5215686274509804" stop-color="#ac854a"/>
      <stop offset="0.7058823529411765" stop-color="#604928"/>
    </radialGradient>
  </defs>
</svg>
