<?xml version="1.0" encoding="UTF-8" standalone="no"?>
<svg xmlns:ffdec="https://www.free-decompiler.com/flash" xmlns:xlink="http://www.w3.org/1999/xlink" ffdec:objectType="shape" height="63.45px" width="181.05px" xmlns="http://www.w3.org/2000/svg">
  <g transform="matrix(1.0, 0.0, 0.0, 1.0, 60.45, -87.3)">
    <path d="M-49.7 89.3 L-42.2 89.3 -41.65 89.45 -41.3 89.9 -35.35 105.15 Q-35.2 105.5 -35.35 105.85 L-35.85 106.35 -36.55 106.3 -37.05 105.8 -42.85 91.15 -48.75 91.15 -48.75 101.2 -49.05 101.85 Q-49.35 102.1 -49.7 102.15 L-50.35 101.85 -50.65 101.2 -50.65 90.25 -50.35 89.6 Q-50.1 89.3 -49.7 89.3" fill="#ffffff" fill-rule="evenodd" stroke="none"/>
    <path d="M47.8 97.45 Q47.8 98.25 48.35 98.8 48.9 99.3 49.7 99.35 L51.0 98.8 Q51.55 98.25 51.55 97.45 M114.65 102.15 Q114.4 102.45 114.45 102.8 114.45 103.2 114.8 103.45 L115.45 103.6 116.1 103.3 M103.7 101.1 Q103.4 101.4 103.45 101.8 103.45 102.15 103.75 102.4 L104.45 102.65 Q104.8 102.6 105.05 102.35 M-49.7 89.3 Q-50.1 89.3 -50.35 89.6 L-50.65 90.25 -50.65 101.2 -50.35 101.85 -49.7 102.15 Q-49.35 102.1 -49.05 101.85 L-48.75 101.2 -48.75 91.15 -42.85 91.15 -37.05 105.8 -36.55 106.3 -35.85 106.35 -35.35 105.85 Q-35.2 105.5 -35.35 105.15 L-41.3 89.9 -41.65 89.45 -42.2 89.3 -49.7 89.3 Z" fill="none" stroke="#000000" stroke-linecap="round" stroke-linejoin="round" stroke-width="4.0"/>
    <path d="M-42.85 91.15 L-48.75 91.15 -48.75 101.2 -49.05 101.85 Q-49.35 102.1 -49.7 102.15 L-50.35 101.85 -50.65 101.2 -50.65 90.25 -50.35 89.6 Q-50.1 89.3 -49.7 89.3 L-42.2 89.3 -41.65 89.45 -41.3 89.9 -35.35 105.15 Q-35.2 105.5 -35.35 105.85 L-35.85 106.35 -36.55 106.3 -37.05 105.8 -42.85 91.15" fill="#ffffff" fill-rule="evenodd" stroke="none"/>
    <path d="M32.35 99.45 L32.35 99.25 Q32.2 94.5 27.35 94.5 L9.05 94.5 Q4.2 94.5 4.1 99.25 L4.1 99.75 -4.15 99.75 4.1 99.75 32.35 99.75 32.35 99.45 M41.25 99.75 L32.35 99.75 41.25 99.75 69.5 99.75 Q69.35 94.5 64.5 94.5 L46.2 94.5 Q41.35 94.5 41.25 99.75 M78.8 99.75 L69.5 99.75 78.8 99.75 119.6 99.75 105.35 119.7 Q101.05 127.55 89.1 127.75 L56.1 127.3 43.85 146.7 Q41.25 150.05 36.85 149.75 L14.1 148.75 20.55 126.8 -19.45 126.25 Q-34.4 125.95 -45.55 122.2 -53.45 119.55 -59.45 115.2 L-51.25 99.75 -4.15 99.75 0.1 89.5 55.35 89.5 Q65.4 90.0 71.6 94.25 L78.8 99.75" fill="#ffffff" fill-rule="evenodd" stroke="none"/>
    <path d="M4.1 99.25 Q4.2 94.5 9.05 94.5 L27.35 94.5 Q32.2 94.5 32.35 99.25 L32.35 99.45 32.35 99.75 4.1 99.75 4.1 99.25 M41.25 99.75 Q41.35 94.5 46.2 94.5 L64.5 94.5 Q69.35 94.5 69.5 99.75 L41.25 99.75" fill="#000000" fill-rule="evenodd" stroke="none"/>
    <path d="M32.35 99.45 L32.35 99.75 41.25 99.75 69.5 99.75 78.8 99.75 71.6 94.25 Q65.4 90.0 55.35 89.5 L0.1 89.5 -4.15 99.75 4.1 99.75 4.1 99.25 M-4.15 99.75 L-51.25 99.75 -59.45 115.2 Q-53.45 119.55 -45.55 122.2 -34.4 125.95 -19.45 126.25 L20.55 126.8 14.1 148.75 36.85 149.75 Q41.25 150.05 43.85 146.7 L56.1 127.3 89.1 127.75 Q101.05 127.55 105.35 119.7 L119.6 99.75 78.8 99.75 M32.35 99.75 L4.1 99.75" fill="none" stroke="#000000" stroke-linecap="round" stroke-linejoin="round" stroke-width="2.0"/>
    <path d="M32.35 99.45 L32.35 99.25 Q32.2 94.5 27.35 94.5 L9.05 94.5 Q4.2 94.5 4.1 99.25 L4.1 99.75 -4.15 99.75 0.1 89.5 55.35 89.5 Q65.4 90.0 71.6 94.25 L78.8 99.75 69.5 99.75 Q69.35 94.5 64.5 94.5 L46.2 94.5 Q41.35 94.5 41.25 99.75 L32.35 99.75 32.35 99.45" fill="#ffffff" fill-rule="evenodd" stroke="none"/>
    <path d="M4.1 99.25 Q4.2 94.5 9.05 94.5 L27.35 94.5 Q32.2 94.5 32.35 99.25 L32.35 99.45 32.35 99.75 4.1 99.75 4.1 99.25 M41.25 99.75 Q41.35 94.5 46.2 94.5 L64.5 94.5 Q69.35 94.5 69.5 99.75 L41.25 99.75" fill="#000000" fill-rule="evenodd" stroke="none"/>
    <path d="M32.35 99.75 L41.25 99.75 69.5 99.75 78.8 99.75 119.6 99.75 105.35 119.7 Q101.05 127.55 89.1 127.75 L56.1 127.3 20.55 126.8 -19.45 126.25 Q-34.4 125.95 -45.55 122.2 -53.45 119.55 -59.45 115.2 L-51.25 99.75 -4.15 99.75 4.1 99.75 32.35 99.75" fill="url(#gradient0)" fill-rule="evenodd" stroke="none"/>
    <path d="M56.1 127.3 L43.85 146.7 Q41.25 150.05 36.85 149.75 L14.1 148.75 20.55 126.8 56.1 127.3" fill="url(#gradient1)" fill-rule="evenodd" stroke="none"/>
    <path d="M32.35 99.45 L32.35 99.75 41.25 99.75 69.5 99.75 78.8 99.75 71.6 94.25 Q65.4 90.0 55.35 89.5 L0.1 89.5 -4.15 99.75 4.1 99.75 4.1 99.25 M20.55 126.8 L14.1 148.75 36.85 149.75 Q41.25 150.05 43.85 146.7 L56.1 127.3 20.55 126.8 -19.45 126.25 Q-34.4 125.95 -45.55 122.2 -53.45 119.55 -59.45 115.2 L-51.25 99.75 -4.15 99.75 M32.35 99.75 L4.1 99.75 M56.1 127.3 L89.1 127.75 Q101.05 127.55 105.35 119.7 L119.6 99.75 78.8 99.75" fill="none" stroke="#000000" stroke-linecap="round" stroke-linejoin="round" stroke-width="2.0"/>
  </g>
  <defs>
    <linearGradient gradientTransform="matrix(0.0, -0.0219, 0.1093, 0.0, 30.05, 113.7)" gradientUnits="userSpaceOnUse" id="gradient0" spreadMethod="pad" x1="-819.2" x2="819.2">
      <stop offset="0.2549019607843137" stop-color="#bbbbbb"/>
      <stop offset="0.6" stop-color="#ffffff" stop-opacity="0.0"/>
    </linearGradient>
    <linearGradient gradientTransform="matrix(0.0, -0.0128, 0.0257, 0.0, 36.1, 131.2)" gradientUnits="userSpaceOnUse" id="gradient1" spreadMethod="pad" x1="-819.2" x2="819.2">
      <stop offset="0.3333333333333333" stop-color="#aeaeae"/>
      <stop offset="0.6" stop-color="#808080"/>
    </linearGradient>
  </defs>
</svg>
