<?xml version="1.0" encoding="UTF-8" standalone="no"?>
<svg xmlns:ffdec="https://www.free-decompiler.com/flash" xmlns:xlink="http://www.w3.org/1999/xlink" ffdec:objectType="shape" height="65.45px" width="168.7px" xmlns="http://www.w3.org/2000/svg">
  <g transform="matrix(1.0, 0.0, 0.0, 1.0, 84.35, 32.7)">
    <path d="M15.5 -12.95 Q12.3 -11.05 10.5 -7.7 8.6 -4.3 8.6 -0.2 8.6 4.0 10.5 7.4 12.35 10.8 15.55 12.7 18.65 14.5 22.4 14.5 L25.15 14.3 Q27.7 13.75 29.7 12.5 31.7 11.3 33.3 9.35 34.85 7.4 35.7 5.05 36.55 2.65 36.55 -0.1 L36.25 -2.85 Q35.55 -6.5 33.7 -9.15 31.75 -11.8 28.85 -13.3 25.95 -14.85 22.55 -14.85 18.65 -14.85 15.5 -12.95 M38.75 -28.4 Q42.5 -26.55 45.65 -24.0 48.75 -21.4 51.1 -18.05 57.1 -9.75 57.1 -0.2 57.1 4.55 55.55 9.15 54.0 13.7 51.1 17.7 48.75 20.95 45.5 23.7 42.25 26.35 38.75 28.15 35.15 29.9 31.0 30.95 26.7 32.0 22.55 32.0 16.85 32.0 11.5 30.25 6.15 28.6 1.65 25.4 -2.9 22.15 -6.0 17.7 -8.0 15.05 -9.3 12.05 -10.7 9.05 -11.35 6.05 -12.05 2.95 -12.05 -0.2 -12.05 -3.15 -11.35 -6.25 -10.7 -9.3 -9.3 -12.35 -7.95 -15.4 -6.0 -18.05 -2.85 -22.45 1.65 -25.65 6.15 -28.85 11.5 -30.5 16.85 -32.25 22.55 -32.25 L30.9 -31.3 Q34.95 -30.3 38.75 -28.4 M66.2 -29.95 Q69.1 -32.7 73.25 -32.7 77.3 -32.7 80.3 -29.85 81.65 -28.5 82.5 -26.75 83.2 -24.95 83.2 -22.95 L83.2 0.2 Q83.2 2.85 81.9 5.05 80.6 7.2 78.35 8.5 76.1 9.8 73.35 9.85 70.5 9.85 68.25 8.6 65.85 7.2 64.55 5.0 63.15 2.8 63.2 0.1 L63.2 -23.05 Q63.15 -27.05 66.2 -29.95 M83.5 18.1 Q84.35 20.1 84.35 22.2 84.35 26.65 81.05 29.7 77.85 32.75 73.35 32.75 70.25 32.75 67.85 31.4 65.25 29.95 63.85 27.6 62.4 25.25 62.35 22.25 62.3 19.45 63.75 17.0 65.2 14.5 67.7 13.1 70.2 11.65 73.25 11.65 77.9 11.65 81.05 14.7 82.65 16.15 83.5 18.1 M-44.4 -31.95 Q-39.7 -31.55 -35.2 -30.2 -30.85 -28.85 -27.1 -26.7 -19.4 -21.8 -19.35 -16.35 -19.35 -13.05 -22.55 -10.4 -24.75 -8.5 -27.95 -8.5 -30.3 -8.5 -32.95 -9.55 L-33.0 -9.55 -36.8 -11.45 -38.7 -12.4 Q-44.25 -14.85 -49.0 -14.85 -52.8 -14.85 -55.85 -13.3 -58.9 -11.9 -60.9 -9.1 -62.95 -6.3 -63.6 -2.6 L-63.85 -0.3 -63.6 2.55 Q-62.8 6.3 -60.8 9.0 -58.8 11.65 -55.65 13.1 -52.55 14.5 -48.6 14.5 L-43.95 14.0 Q-39.3 13.15 -37.35 10.6 L-42.75 10.6 Q-46.65 10.6 -49.3 8.0 -51.95 5.4 -51.95 1.7 -51.9 -0.75 -50.7 -2.6 -49.55 -4.6 -47.4 -5.8 -45.3 -6.95 -42.85 -6.95 L-25.35 -6.95 Q-15.7 -6.95 -15.65 3.15 -15.7 6.1 -16.3 9.2 -16.95 13.1 -19.35 17.3 -22.05 21.8 -26.2 25.2 -30.4 28.4 -35.75 30.15 -41.15 31.9 -47.65 31.9 L-55.85 31.25 Q-62.0 30.2 -67.0 27.7 -72.05 25.25 -75.8 21.3 -79.55 17.35 -81.75 12.25 -84.4 6.3 -84.35 0.2 -84.4 -7.85 -80.05 -15.05 -75.8 -22.3 -67.95 -27.0 -59.4 -32.1 -48.45 -32.1 L-44.4 -31.95" fill="url(#gradient0)" fill-rule="evenodd" stroke="none"/>
  </g>
  <defs>
    <linearGradient gradientTransform="matrix(0.0, 0.0399, -0.103, 0.0, 0.0, 0.05)" gradientUnits="userSpaceOnUse" id="gradient0" spreadMethod="pad" x1="-819.2" x2="819.2">
      <stop offset="0.1568627450980392" stop-color="#b0db02"/>
      <stop offset="0.9019607843137255" stop-color="#339900"/>
    </linearGradient>
  </defs>
</svg>
