<?xml version="1.0" encoding="UTF-8" standalone="no"?>
<svg xmlns:ffdec="https://www.free-decompiler.com/flash" xmlns:xlink="http://www.w3.org/1999/xlink" ffdec:objectType="shape" height="792.2px" width="326.95px" xmlns="http://www.w3.org/2000/svg">
  <g transform="matrix(1.0, 0.0, 0.0, 1.0, 163.45, 400.2)">
    <path d="M22.0 -369.05 Q31.75 -364.3 39.9 -355.3 57.1 -336.3 57.1 -306.4 L56.85 -299.55 Q54.55 -276.1 43.1 -255.4 L41.65 -252.65 41.65 -251.7 41.7 -248.85 41.7 -248.75 41.75 -246.15 42.05 -246.0 42.05 -245.9 41.75 -244.15 41.8 -244.1 41.85 -244.1 48.45 -242.45 Q39.9 -235.35 45.05 -229.8 28.65 -216.25 10.4 -211.9 L7.5 -211.3 Q-9.85 -208.05 -23.75 -215.35 -32.7 -220.1 -40.25 -229.25 L-43.5 -233.5 Q-42.1 -233.85 -41.4 -236.15 -40.3 -239.9 -41.15 -248.85 L-40.6 -249.3 Q-19.1 -223.45 13.9 -230.4 33.05 -234.6 41.65 -252.65 33.05 -234.6 13.9 -230.4 -19.1 -223.45 -40.6 -249.3 L-43.25 -252.75 -43.55 -253.1 Q-60.45 -276.65 -60.5 -306.2 L-60.5 -306.4 Q-60.5 -336.35 -43.3 -355.6 -36.75 -362.95 -29.15 -367.4 L-22.45 -367.2 -11.4 -366.9 Q-7.05 -364.95 -4.35 -364.95 -2.6 -364.95 1.75 -368.0 15.0 -370.0 20.75 -369.2 L22.0 -369.05 M33.85 -323.15 Q33.85 -326.65 31.15 -329.15 28.4 -331.6 24.6 -331.6 20.75 -331.6 18.05 -329.15 16.7 -327.95 16.0 -326.45 15.3 -324.95 15.3 -323.15 15.3 -319.65 18.05 -317.2 20.75 -314.75 24.6 -314.7 27.9 -314.75 30.4 -316.6 L31.15 -317.2 Q33.85 -319.65 33.85 -323.15 M154.1 -104.15 Q157.15 -85.7 158.65 -72.6 L162.45 -39.7 Q164.55 -22.25 162.5 -12.0 160.4 -1.8 136.45 35.2 112.45 72.15 94.75 92.7 90.5 97.6 87.8 101.2 82.9 107.5 82.9 109.5 L84.4 109.5 85.35 112.1 Q82.45 113.1 76.6 113.75 67.8 114.7 55.8 111.85 43.75 109.0 40.65 100.2 L48.25 101.85 Q48.9 98.2 50.7 94.7 L50.95 94.2 Q54.05 88.35 60.25 82.9 70.45 74.0 84.75 49.1 L95.1 30.8 106.25 10.05 Q116.3 -9.6 116.3 -26.05 116.3 -39.4 109.9 -64.45 L104.15 -85.3 Q123.6 -85.7 154.1 -104.15 M-155.55 -82.45 Q-143.75 -77.5 -134.35 -75.25 -121.8 -72.25 -104.1 -73.3 -111.15 -59.55 -112.55 -53.35 -115.1 -42.35 -115.1 -35.8 L-115.1 -32.8 Q-112.7 -4.95 -111.6 -2.0 -110.6 0.6 -107.6 26.25 L-106.95 31.85 Q-105.3 51.3 -99.7 63.3 -94.05 75.3 -83.45 83.05 L-80.6 85.0 -80.75 85.9 Q-83.15 99.25 -91.8 105.75 -100.0 111.85 -114.7 112.45 L-115.1 112.45 -115.1 107.85 -116.6 107.85 Q-125.3 85.0 -135.45 64.8 L-148.65 38.45 Q-154.2 25.95 -156.4 11.85 -158.95 -4.25 -158.45 -29.25 -158.0 -54.3 -155.3 -68.0 -154.1 -74.3 -155.55 -82.45 M95.1 34.25 L95.1 30.8 95.1 34.25 M-41.15 -233.85 L-41.4 -236.15 -41.15 -233.85 M-28.95 -331.6 Q-32.8 -331.6 -35.5 -329.15 -38.2 -326.65 -38.2 -323.15 -38.2 -319.65 -35.5 -317.2 -34.0 -315.85 -32.1 -315.2 L-28.95 -314.7 Q-25.1 -314.75 -22.4 -317.2 -19.7 -319.65 -19.65 -323.15 -19.7 -325.75 -21.15 -327.75 L-22.4 -329.15 Q-25.1 -331.6 -28.95 -331.6 M3.35 -278.2 L-14.6 -278.0 -3.35 -321.85 -14.6 -278.0 3.35 -278.2 M-87.9 80.65 L-83.45 83.05 -87.9 80.65" fill="#ffcc99" fill-rule="evenodd" stroke="none"/>
    <path d="M57.1 -306.4 Q57.1 -336.3 39.9 -355.3 31.75 -364.3 22.0 -369.05 L20.75 -369.2 Q15.0 -370.0 1.75 -368.0 -2.6 -364.95 -4.35 -364.95 -7.05 -364.95 -11.4 -366.9 L-22.45 -367.2 -29.15 -367.4 Q-36.75 -362.95 -43.3 -355.6 -60.5 -336.35 -60.5 -306.4 -61.4 -337.7 -60.55 -343.0 -58.1 -358.1 -53.3 -366.95 -47.6 -377.6 -37.9 -387.2 -28.2 -396.85 -2.55 -399.85 23.1 -402.9 44.75 -379.2 66.35 -355.5 58.1 -306.35 L57.1 -306.4 M33.85 -323.15 Q33.85 -319.65 31.15 -317.2 L30.4 -316.6 Q27.9 -314.75 24.6 -314.7 20.75 -314.75 18.05 -317.2 15.3 -319.65 15.3 -323.15 15.3 -324.95 16.0 -326.45 16.7 -327.95 18.05 -329.15 20.75 -331.6 24.6 -331.6 28.4 -331.6 31.15 -329.15 33.85 -326.65 33.85 -323.15 M-28.95 -331.6 Q-25.1 -331.6 -22.4 -329.15 L-21.15 -327.75 Q-19.7 -325.75 -19.65 -323.15 -19.7 -319.65 -22.4 -317.2 -25.1 -314.75 -28.95 -314.7 L-32.1 -315.2 Q-34.0 -315.85 -35.5 -317.2 -38.2 -319.65 -38.2 -323.15 -38.2 -326.65 -35.5 -329.15 -32.8 -331.6 -28.95 -331.6" fill="#000000" fill-rule="evenodd" stroke="none"/>
    <path d="M89.4 -88.5 L89.3 -87.1 87.3 -89.1 89.4 -88.5" fill="#cc3333" fill-rule="evenodd" stroke="none"/>
    <path d="M94.75 92.7 L90.6 103.35 90.7 111.0 87.4 111.0 Q86.75 111.6 85.35 112.1 L84.4 109.5 82.9 109.5 Q82.9 107.5 87.8 101.2 90.5 97.6 94.75 92.7 M-116.45 112.6 L-116.45 112.55 -115.55 112.5 -115.1 112.5 -116.45 112.6 M-80.75 85.9 L-80.6 85.0 -77.25 86.65 -77.1 86.7 -80.75 85.9" fill="#669999" fill-rule="evenodd" stroke="none"/>
    <path d="M48.45 -242.45 L59.5 -239.65 45.05 -229.8 Q39.9 -235.35 48.45 -242.45 M-23.75 -215.35 Q-9.85 -208.05 7.5 -211.3 L10.4 -211.9 -6.2 -200.6 -23.75 -215.35 M-160.45 -87.05 L-161.0 -86.0 -161.25 -86.15 -160.45 -87.05 M-43.6 -233.45 L-43.5 -233.5 -40.25 -229.25 -44.9 -233.15 -43.6 -233.45" fill="#cc99ff" fill-rule="evenodd" stroke="none"/>
    <path d="M106.25 -214.95 Q112.75 -211.95 115.55 -210.2 123.0 -205.55 128.2 -193.25 L130.7 -187.25 131.0 -186.15 Q144.6 -157.0 148.4 -145.7 152.25 -134.2 161.5 -108.75 L161.4 -108.7 154.1 -104.15 Q123.6 -85.7 104.15 -85.3 101.25 -85.25 89.4 -88.5 90.2 -98.45 92.4 -105.7 96.65 -119.85 98.1 -140.05 96.65 -119.85 92.4 -105.7 90.2 -98.45 89.4 -88.5 L87.3 -89.1 Q88.9 -81.85 88.9 -75.9 88.9 -67.0 92.0 -31.2 94.9 2.5 95.1 30.8 L84.75 49.1 Q70.45 74.0 60.25 82.9 54.05 88.35 50.95 94.2 L50.7 94.7 40.65 100.2 Q26.65 107.45 16.5 110.3 3.05 114.0 -19.1 114.0 -35.6 114.0 -42.95 112.15 -49.05 110.65 -53.55 106.35 -59.15 100.25 -64.15 96.0 -69.6 91.3 -77.1 86.7 L-77.25 86.65 -80.45 84.75 -80.55 84.7 -83.45 83.05 Q-94.05 75.3 -99.7 63.3 -105.3 51.3 -106.95 31.85 L-107.6 26.25 Q-105.15 14.05 -100.55 -0.3 -95.1 -16.4 -95.4 -74.55 L-95.35 -74.55 -92.4 -75.0 -95.35 -74.55 -95.4 -75.0 -95.4 -74.55 -104.1 -73.3 Q-121.8 -72.25 -134.35 -75.25 -143.75 -77.5 -155.55 -82.45 L-155.95 -84.15 Q-159.4 -84.95 -161.0 -86.0 L-160.45 -87.05 Q-149.3 -131.35 -145.35 -136.75 -141.45 -142.2 -135.45 -164.85 -129.5 -187.55 -120.0 -197.95 -110.55 -208.35 -97.3 -214.5 L-94.0 -216.0 -1.9 -136.1 36.9 -164.4 40.15 -161.65 36.9 -164.4 106.25 -214.95 M-99.95 -96.2 L-95.4 -75.0 -99.95 -96.2 M-80.4 83.65 L-80.55 84.7 -80.4 83.65" fill="#ffffff" fill-rule="evenodd" stroke="none"/>
    <path d="M90.7 111.0 L90.7 112.1 85.35 112.1 Q86.75 111.6 87.4 111.0 L90.7 111.0" fill="#0033cc" fill-rule="evenodd" stroke="none"/>
    <path d="M59.5 -239.65 L74.7 -228.45 Q95.5 -220.0 106.25 -214.95 L36.9 -164.4 -1.9 -136.1 -94.0 -216.0 Q-81.95 -221.4 -66.6 -226.7 -56.05 -230.4 -44.9 -233.15 L-40.25 -229.25 Q-32.7 -220.1 -23.75 -215.35 L-6.2 -200.6 10.4 -211.9 Q28.65 -216.25 45.05 -229.8 L59.5 -239.65 M90.7 112.1 Q90.95 127.8 92.1 153.2 92.1 177.5 89.0 225.95 85.9 274.35 85.9 296.85 85.9 323.55 88.25 363.55 L89.75 392.0 3.8 392.0 Q2.6 378.3 2.1 361.65 L1.35 307.5 Q-3.25 272.25 -4.05 263.0 -4.9 253.7 -8.65 230.2 -12.45 206.65 -14.5 197.65 -17.4 224.65 -21.35 295.95 L-25.85 379.35 -25.7 392.0 -107.35 392.0 -106.85 374.6 -106.1 352.7 Q-106.1 345.95 -109.1 328.7 -112.1 311.45 -112.1 298.5 -112.1 283.9 -111.35 259.1 L-110.6 234.95 Q-110.6 224.1 -112.95 174.6 -115.2 127.0 -116.45 112.6 L-115.1 112.5 -114.7 112.45 Q-100.0 111.85 -91.8 105.75 -83.15 99.25 -80.75 85.9 L-77.1 86.7 Q-69.6 91.3 -64.15 96.0 -59.15 100.25 -53.55 106.35 -49.05 110.65 -42.95 112.15 -35.6 114.0 -19.1 114.0 3.05 114.0 16.5 110.3 26.65 107.45 40.65 100.2 43.75 109.0 55.8 111.85 67.8 114.7 76.6 113.75 82.45 113.1 85.35 112.1 L90.7 112.1 M-14.5 197.65 L-13.85 191.65 Q-14.6 194.1 -14.5 197.65" fill="#48599d" fill-rule="evenodd" stroke="none"/>
    <path d="M22.0 -369.05 Q31.75 -364.3 39.9 -355.3 57.1 -336.3 57.1 -306.4 L56.85 -299.55 Q54.55 -276.1 43.1 -255.4 L41.65 -252.65 41.65 -251.7 41.7 -248.85 41.7 -248.75 Q41.7 -248.1 42.25 -247.45 43.85 -245.55 50.1 -243.8 M58.1 -306.35 Q66.35 -355.5 44.75 -379.2 23.1 -402.9 -2.55 -399.85 -28.2 -396.85 -37.9 -387.2 -47.6 -377.6 -53.3 -366.95 -58.1 -358.1 -60.55 -343.0 -61.4 -337.7 -60.5 -306.4 -60.5 -336.35 -43.3 -355.6 -36.75 -362.95 -29.15 -367.4 M56.85 -299.55 L58.1 -306.35 M42.05 -246.0 L42.05 -245.9 M41.7 -248.75 L41.75 -246.15 42.05 -246.0 M40.15 -161.65 L36.9 -164.4 M-94.0 -216.0 L-97.3 -214.5 Q-110.55 -208.35 -120.0 -197.95 -129.5 -187.55 -135.45 -164.85 -141.45 -142.2 -145.35 -136.75 -149.3 -131.35 -160.45 -87.05 M-95.4 -75.0 L-99.95 -96.2 M-60.5 -306.4 L-60.5 -306.2 Q-60.45 -276.65 -43.55 -253.1 L-43.25 -252.75 -40.6 -249.3 M-41.15 -248.85 Q-40.3 -239.9 -41.4 -236.15 L-41.15 -233.85 M-43.5 -233.5 Q-42.1 -233.85 -41.4 -236.15 M-44.9 -233.15 L-43.6 -233.45 M-94.0 -216.0 Q-81.95 -221.4 -66.6 -226.7 -56.05 -230.4 -44.9 -233.15 L-40.25 -229.25 M-3.35 -321.85 L-14.6 -278.0 3.35 -278.2 M-155.55 -82.45 Q-154.1 -74.3 -155.3 -68.0 -158.0 -54.3 -158.45 -29.25 -158.95 -4.25 -156.4 11.85 -154.2 25.95 -148.65 38.45 L-135.45 64.8 Q-125.3 85.0 -116.6 107.85 L-115.1 107.85" fill="none" stroke="#000000" stroke-linecap="round" stroke-linejoin="round" stroke-width="0.05"/>
    <path d="M50.1 -243.8 L41.95 -244.1 41.8 -244.1 41.85 -244.1 48.45 -242.45 59.5 -239.65 74.7 -228.45 Q95.5 -220.0 106.25 -214.95 112.75 -211.95 115.55 -210.2 123.0 -205.55 128.2 -193.25 L130.7 -187.25 Q131.85 -184.5 131.0 -186.15 144.6 -157.0 148.4 -145.7 152.25 -134.2 161.5 -108.75 L163.15 -109.85 M42.05 -246.0 L42.25 -247.45 M42.05 -245.9 L41.75 -244.15 41.8 -244.1 M130.7 -187.25 L131.0 -186.15 M89.4 -88.5 Q90.2 -98.45 92.4 -105.7 96.65 -119.85 98.1 -140.05 M161.5 -108.75 L161.4 -108.7 154.1 -104.15 Q157.15 -85.7 158.65 -72.6 L162.45 -39.7 Q164.55 -22.25 162.5 -12.0 160.4 -1.8 136.45 35.2 112.45 72.15 94.75 92.7 90.5 97.6 87.8 101.2 82.9 107.5 82.9 109.5 L84.4 109.5 M90.6 103.35 L90.7 111.0 90.7 112.1 Q90.95 127.8 92.1 153.2 92.1 177.5 89.0 225.95 85.9 274.35 85.9 296.85 85.9 323.55 88.25 363.55 L89.75 392.0 M3.8 392.0 Q2.6 378.3 2.1 361.65 L1.35 307.5 Q-3.25 272.25 -4.05 263.0 -4.9 253.7 -8.65 230.2 -12.45 206.65 -14.5 197.65 -17.4 224.65 -21.35 295.95 L-25.85 379.35 -25.7 392.0 M-107.35 392.0 L-106.85 374.6 -106.1 352.7 Q-106.1 345.95 -109.1 328.7 -112.1 311.45 -112.1 298.5 -112.1 283.9 -111.35 259.1 L-110.6 234.95 Q-110.6 224.1 -112.95 174.6 -115.2 127.0 -116.45 112.6 L-116.45 112.55 -116.45 112.5 -116.5 111.0 M-161.0 -86.0 Q-159.4 -84.95 -155.95 -84.15 M-155.55 -82.45 Q-143.75 -77.5 -134.35 -75.25 -121.8 -72.25 -104.1 -73.3 L-95.4 -74.55 -95.4 -75.0 M95.1 30.8 L106.25 10.05 Q116.3 -9.6 116.3 -26.05 116.3 -39.4 109.9 -64.45 L104.15 -85.3 Q101.25 -85.25 89.4 -88.5 L89.3 -87.1 87.3 -89.1 Q88.9 -81.85 88.9 -75.9 88.9 -67.0 92.0 -31.2 94.9 2.5 95.1 30.8 L95.1 34.25 M87.3 -89.1 L89.4 -88.5 M154.1 -104.15 Q123.6 -85.7 104.15 -85.3 M-43.6 -233.45 L-43.5 -233.5 M-107.6 26.25 Q-110.6 0.6 -111.6 -2.0 -112.7 -4.95 -115.1 -32.8 L-115.1 -35.8 Q-115.1 -42.35 -112.55 -53.35 -111.15 -59.55 -104.1 -73.3 M-95.35 -74.55 L-92.4 -75.0 M-95.35 -74.55 L-95.4 -74.55 Q-95.1 -16.4 -100.55 -0.3 -105.15 14.05 -107.6 26.25 L-106.95 31.85 Q-105.3 51.3 -99.7 63.3 -94.05 75.3 -83.45 83.05 L-80.55 84.7 -80.4 83.65 M-161.25 -86.15 L-161.0 -86.0 M-161.25 -86.15 L-161.95 -86.8 -163.45 -90.15 M-114.7 112.45 Q-100.0 111.85 -91.8 105.75 -83.15 99.25 -80.75 85.9 L-80.6 85.0 -83.45 83.05 -87.9 80.65 M-80.55 84.7 L-80.6 85.0 -77.25 86.65 -80.45 84.75 -80.55 84.7 M-77.25 86.65 L-77.1 86.7 Q-69.6 91.3 -64.15 96.0 -59.15 100.25 -53.55 106.35 -49.05 110.65 -42.95 112.15 -35.6 114.0 -19.1 114.0 3.05 114.0 16.5 110.3 26.65 107.45 40.65 100.2 L50.7 94.7 50.95 94.2 Q54.05 88.35 60.25 82.9 70.45 74.0 84.75 49.1 L95.1 30.8 M-115.55 112.5 L-116.45 112.5 M-114.7 112.45 L-115.1 112.5 -115.55 112.5 M-14.5 197.65 L-13.85 191.65 Q-14.6 194.1 -14.5 197.65 M48.25 101.85 Q48.9 98.2 50.7 94.7 M85.35 112.1 Q82.45 113.1 76.6 113.75 67.8 114.7 55.8 111.85 43.75 109.0 40.65 100.2 M85.35 112.1 Q86.75 111.6 87.4 111.0" fill="none" stroke="#000000" stroke-linecap="round" stroke-linejoin="round" stroke-width="0.05"/>
    <path d="M-40.6 -249.3 Q-19.1 -223.45 13.9 -230.4 33.05 -234.6 41.65 -252.65" fill="none" stroke="#c16102" stroke-linecap="round" stroke-linejoin="round" stroke-width="0.05"/>
    <path d="M36.9 -164.4 L-1.9 -136.1 -94.0 -216.0 M106.25 -214.95 L36.9 -164.4" fill="none" stroke="#333333" stroke-linecap="round" stroke-linejoin="round" stroke-width="1.0"/>
    <path d="M-20.7 -256.25 Q1.2 -244.4 13.1 -259.3" fill="none" stroke="#000000" stroke-linecap="round" stroke-linejoin="round" stroke-width="0.05"/>
  </g>
</svg>
