<?xml version="1.0" encoding="UTF-8" standalone="no"?>
<svg xmlns:ffdec="https://www.free-decompiler.com/flash" xmlns:xlink="http://www.w3.org/1999/xlink" ffdec:objectType="shape" height="768.8px" width="787.95px" xmlns="http://www.w3.org/2000/svg">
  <g transform="matrix(1.0, 0.0, 0.0, 1.0, 394.0, 384.4)">
    <path d="M22.15 -298.05 Q22.1 -321.6 5.6 -321.55 0.55 -321.55 -3.9 -311.4 L-3.95 -311.3 -6.05 -312.2 -28.1 -348.2 -31.95 -349.35 Q-58.45 -357.7 -79.05 -340.85 L-81.95 -339.1 -83.35 -339.6 Q-82.55 -341.8 -93.15 -332.35 -88.95 -373.05 -52.7 -381.55 -16.5 -390.05 11.8 -373.05 40.1 -356.0 50.1 -323.4 57.15 -300.35 52.9 -279.05 L50.45 -278.85 Q44.2 -278.8 35.85 -282.25 25.25 -286.6 21.2 -286.9 22.15 -290.25 22.15 -298.05 M-56.1 -312.7 Q-53.35 -309.95 -53.35 -306.0 -53.35 -302.1 -56.1 -299.35 -58.85 -296.6 -62.75 -296.6 -66.65 -296.6 -69.4 -299.35 -72.15 -302.1 -72.15 -306.0 -72.15 -309.95 -69.4 -312.7 -66.65 -315.4 -62.75 -315.4 -58.85 -315.4 -56.1 -312.7 M-10.3 -250.5 Q-4.55 -246.85 -4.55 -241.65 -4.55 -236.45 -10.3 -232.75 -16.1 -229.1 -24.2 -229.05 -30.35 -229.1 -35.1 -231.15 L-38.1 -232.75 Q-43.9 -236.45 -43.9 -241.65 -43.9 -246.85 -38.1 -250.5 -32.35 -254.2 -24.2 -254.2 -16.1 -254.2 -10.3 -250.5" fill="#000000" fill-rule="evenodd" stroke="none"/>
    <path d="M-83.0 -181.8 Q-72.9 -173.6 -64.0 -160.65 -57.35 -151.0 -46.9 -131.3 L-46.75 -129.5 -69.75 -128.5 -103.9 -128.35 Q-125.25 -127.95 -142.25 -125.9 -155.1 -124.35 -173.3 -118.45 -183.8 -115.05 -205.95 -107.35 -226.05 -100.85 -242.5 -98.4 -263.8 -95.15 -284.95 -97.35 -289.6 -95.95 -292.5 -94.1 -295.0 -92.5 -297.5 -89.2 -299.7 -86.3 -301.95 -85.3 -305.45 -83.7 -313.0 -83.7 L-321.8 -83.7 Q-325.25 -83.9 -327.2 -85.25 -330.4 -87.55 -336.8 -102.8 L-337.25 -103.95 Q-341.8 -101.9 -358.55 -98.6 -375.85 -95.25 -381.7 -92.0 L-394.0 -92.0 -394.0 -101.45 Q-386.35 -107.05 -370.15 -112.0 -353.15 -117.25 -342.2 -124.55 L-297.4 -124.55 Q-283.8 -124.8 -266.35 -130.15 -253.65 -134.0 -231.65 -143.2 L-194.8 -158.15 Q-173.25 -166.15 -155.9 -169.45 -112.7 -177.8 -86.55 -185.0 L-86.5 -185.0 -86.4 -184.45 -83.0 -181.8 M-3.95 -311.3 L-3.9 -311.4 Q0.55 -321.55 5.6 -321.55 22.1 -321.6 22.15 -298.05 L21.2 -286.9 Q25.25 -286.6 35.85 -282.25 44.2 -278.8 50.45 -278.85 L50.15 -273.7 51.05 -271.5 58.15 -253.7 60.4 -253.3 Q58.95 -243.55 47.85 -223.3 37.05 -203.75 20.1 -197.2 L19.75 -198.1 -2.3 -220.05 -17.3 -221.55 Q-27.25 -222.55 -37.05 -226.95 -42.3 -229.3 -47.5 -232.6 -63.7 -242.9 -67.4 -254.15 L-95.6 -244.75 -87.15 -294.15 Q-91.3 -316.9 -83.95 -337.9 L-83.35 -339.6 -81.95 -339.1 -81.35 -338.85 -79.05 -340.85 Q-58.45 -357.7 -31.95 -349.35 L-28.1 -348.2 -6.05 -312.2 -3.95 -311.3 Q-7.6 -303.2 -7.6 -299.6 -7.6 -303.2 -3.95 -311.3 M20.6 -288.7 L20.6 -286.9 21.2 -286.9 20.6 -285.35 Q17.9 -280.7 7.95 -280.7 1.75 -280.7 0.2 -282.25 1.75 -280.7 7.95 -280.7 17.9 -280.7 20.6 -285.35 L21.2 -286.9 20.6 -286.9 20.6 -288.7 M214.25 -181.4 L225.65 -169.6 Q251.4 -142.9 272.05 -122.65 L315.35 -80.95 Q341.2 -56.05 345.75 -50.3 350.3 -44.6 356.0 -40.4 361.65 -36.2 371.65 -26.15 381.6 -16.15 383.35 -2.2 384.2 4.75 385.05 7.85 386.4 13.1 392.4 24.85 L393.05 26.3 Q394.8 30.9 393.15 38.0 391.9 43.45 386.85 48.3 381.45 53.45 376.95 52.4 373.05 51.5 366.65 37.65 364.9 33.9 363.7 30.95 L361.6 39.8 355.75 42.35 Q353.1 36.65 347.4 28.6 L338.55 15.75 Q329.3 0.4 334.05 -14.7 305.9 -35.4 294.65 -45.25 274.7 -62.7 254.9 -87.5 238.9 -107.5 216.6 -119.6 L196.95 -129.6 Q184.75 -135.9 175.35 -142.35 L174.15 -142.9 174.2 -142.9 Q181.55 -160.3 193.05 -170.0 204.5 -179.75 214.25 -181.4 M362.35 25.7 L363.55 26.0 Q363.0 28.4 364.2 28.7 L363.7 30.95 Q360.75 24.0 360.6 21.45 360.75 24.0 363.7 30.95 L364.2 28.7 Q363.0 28.4 363.55 26.0 L362.35 25.7 M-56.1 -312.7 Q-58.85 -315.4 -62.75 -315.4 -66.65 -315.4 -69.4 -312.7 -72.15 -309.95 -72.15 -306.0 -72.15 -302.1 -69.4 -299.35 -66.65 -296.6 -62.75 -296.6 -58.85 -296.6 -56.1 -299.35 -53.35 -302.1 -53.35 -306.0 -53.35 -309.95 -56.1 -312.7 M-3.5 -221.25 L-2.3 -220.05 -3.5 -221.25 M-10.3 -250.5 Q-16.1 -254.2 -24.2 -254.2 -32.35 -254.2 -38.1 -250.5 -43.9 -246.85 -43.9 -241.65 -43.9 -236.45 -38.1 -232.75 L-35.1 -231.15 Q-30.35 -229.1 -24.2 -229.05 -16.1 -229.1 -10.3 -232.75 -4.55 -236.45 -4.55 -241.65 -4.55 -246.85 -10.3 -250.5 M-0.65 -221.05 L-2.3 -220.05 -0.65 -221.05 M-279.6 -98.75 Q-282.55 -98.15 -284.95 -97.35 -282.55 -98.15 -279.6 -98.75" fill="#ffcc99" fill-rule="evenodd" stroke="none"/>
    <path d="M127.65 -249.35 Q150.1 -236.95 165.5 -225.8 179.5 -215.6 194.1 -201.6 L214.25 -181.4 Q204.5 -179.75 193.05 -170.0 181.55 -160.3 174.2 -142.9 L174.15 -142.9 174.05 -142.65 173.35 -142.65 172.9 -142.65 172.15 -143.15 172.15 -135.35 Q173.45 -130.1 175.6 -123.9 L179.0 -114.35 Q182.5 -103.85 181.6 -94.7 179.1 -71.3 192.55 -52.3 219.9 -13.4 235.25 15.45 L234.75 15.7 Q234.75 18.35 233.6 21.25 230.85 27.95 221.75 36.15 209.75 46.95 190.05 57.45 170.6 67.85 150.6 74.2 129.3 81.0 111.65 83.3 94.0 85.6 83.5 82.95 L79.8 81.95 76.4 80.9 71.5 78.75 70.05 78.1 Q73.15 65.9 69.5 50.5 66.6 38.15 58.5 21.05 L43.05 -9.4 Q33.55 -28.0 29.2 -40.15 25.7 -49.9 18.05 -63.65 L4.25 -87.8 Q-12.45 -117.6 -14.25 -137.35 L-18.4 -136.85 Q-27.1 -132.0 -40.9 -130.15 L-46.7 -129.5 -46.75 -129.5 -46.9 -131.3 Q-57.35 -151.0 -64.0 -160.65 -72.9 -173.6 -83.0 -181.8 L-78.5 -187.35 Q-43.95 -197.7 -14.7 -213.15 -22.6 -188.15 35.3 -118.15 60.05 -204.2 115.0 -253.85 122.45 -252.35 126.45 -249.55 L127.65 -249.35 M-14.35 -138.2 L-14.25 -137.35 -14.35 -138.2 M144.95 -162.7 Q150.25 -160.2 158.7 -153.5 167.75 -146.3 171.9 -143.35 L172.15 -143.15 171.9 -143.35 Q167.75 -146.3 158.7 -153.5 150.25 -160.2 144.95 -162.7" fill="#ffffff" fill-rule="evenodd" stroke="none"/>
    <path d="M115.0 -253.85 Q60.05 -204.2 35.3 -118.15 -22.6 -188.15 -14.7 -213.15 -14.0 -213.5 -13.3 -213.9 -7.7 -216.9 -2.3 -220.05 L19.75 -198.1 20.1 -197.2 Q37.05 -203.75 47.85 -223.3 58.95 -243.55 60.4 -253.3 L60.45 -253.6 61.9 -253.75 Q97.75 -257.3 115.0 -253.85 M18.4 -196.6 L20.1 -197.2 18.4 -196.6 M233.6 21.25 Q241.5 26.6 243.5 38.6 244.2 42.95 244.2 59.05 244.2 73.5 233.7 112.95 L226.25 140.35 Q222.75 153.5 222.4 157.1 L220.9 180.1 Q229.85 286.0 235.85 330.15 241.85 374.3 242.1 382.1 L164.8 384.4 Q164.85 362.8 158.25 338.0 155.6 328.0 149.65 309.7 143.3 290.05 140.75 280.95 137.1 267.95 128.2 227.15 130.8 235.85 128.4 216.05 L128.2 227.15 132.0 283.2 Q132.95 303.2 122.6 324.65 L119.0 351.65 119.0 384.4 44.55 384.4 53.4 340.3 Q61.95 296.7 61.95 287.05 61.95 284.0 57.8 272.95 53.65 261.85 53.65 256.3 53.65 235.4 64.75 163.7 75.45 94.75 79.8 81.95 L83.5 82.95 Q94.0 85.6 111.65 83.3 129.3 81.0 150.6 74.2 170.6 67.85 190.05 57.45 209.75 46.95 221.75 36.15 230.85 27.95 233.6 21.25 M117.65 139.4 L117.65 144.95 Q122.75 169.8 128.4 216.05 122.75 169.8 117.65 144.95 L117.65 139.4" fill="#48599d" fill-rule="evenodd" stroke="none"/>
    <path d="M214.25 -181.4 L194.1 -201.6 Q179.5 -215.6 165.5 -225.8 150.1 -236.95 127.65 -249.35 L127.3 -249.4 M115.0 -253.85 Q60.05 -204.2 35.3 -118.15 -22.6 -188.15 -14.7 -213.15 -14.0 -213.5 -13.3 -213.9 -7.7 -216.9 -2.3 -220.05 L19.75 -198.1 20.1 -197.2 18.4 -196.6 M-3.95 -311.3 L-3.9 -311.4 Q0.55 -321.55 5.6 -321.55 22.1 -321.6 22.15 -298.05 22.15 -290.25 21.2 -286.9 25.25 -286.6 35.85 -282.25 44.2 -278.8 50.45 -278.85 L52.9 -279.05 Q57.15 -300.35 50.1 -323.4 40.1 -356.0 11.8 -373.05 -16.5 -390.05 -52.7 -381.55 -88.95 -373.05 -93.15 -332.35 -82.55 -341.8 -83.35 -339.6 L-83.95 -337.9 Q-91.3 -316.9 -87.15 -294.15 L-95.6 -244.75 -67.4 -254.15 Q-63.7 -242.9 -47.5 -232.6 -42.3 -229.3 -37.05 -226.95 -27.25 -222.55 -17.3 -221.55 L-2.3 -220.05 M-79.05 -340.85 Q-58.45 -357.7 -31.95 -349.35 L-28.1 -348.2 -6.05 -312.2 M-3.95 -311.3 Q-7.6 -303.2 -7.6 -299.6 M51.05 -271.5 L52.15 -275.5 50.45 -278.85 M53.45 -279.1 L52.9 -279.05 52.15 -275.5 M60.4 -253.3 L60.45 -253.6 61.9 -253.75 Q97.75 -257.3 115.0 -253.85 M0.2 -282.25 Q1.75 -280.7 7.95 -280.7 17.9 -280.7 20.6 -285.35 L21.2 -286.9 20.6 -286.9 20.6 -288.7 M60.4 -253.3 Q58.95 -243.55 47.85 -223.3 37.05 -203.75 20.1 -197.2 M126.9 -249.5 L126.45 -249.55 M214.25 -181.4 L225.65 -169.6 Q251.4 -142.9 272.05 -122.65 L315.35 -80.95 Q341.2 -56.05 345.75 -50.3 350.3 -44.6 356.0 -40.4 361.65 -36.2 371.65 -26.15 381.6 -16.15 383.35 -2.2 384.2 4.75 385.05 7.85 386.4 13.1 392.4 24.85 M393.05 26.3 Q394.8 30.9 393.15 38.0 391.9 43.45 386.85 48.3 381.45 53.45 376.95 52.4 373.05 51.5 366.65 37.65 364.9 33.9 363.7 30.95 L361.6 39.8 360.75 43.5 355.75 42.35 Q353.1 36.65 347.4 28.6 L338.55 15.75 Q329.3 0.4 334.05 -14.7 305.9 -35.4 294.65 -45.25 274.7 -62.7 254.9 -87.5 238.9 -107.5 216.6 -119.6 L196.95 -129.6 Q184.75 -135.9 175.35 -142.35 M174.15 -142.9 L174.05 -142.65 M174.15 -142.9 L174.2 -142.9 Q181.55 -160.3 193.05 -170.0 204.5 -179.75 214.25 -181.4 M360.6 21.45 Q360.75 24.0 363.7 30.95 L364.2 28.7 Q363.0 28.4 363.55 26.0 L362.35 25.7 M-79.05 -340.85 L-81.35 -338.85" fill="none" stroke="#000000" stroke-linecap="round" stroke-linejoin="round" stroke-width="0.05"/>
    <path d="M126.45 -249.55 Q122.45 -252.35 115.0 -253.85 M-14.7 -213.15 Q-43.95 -197.7 -78.5 -187.35 L-86.0 -185.15 -86.5 -185.0 -86.55 -185.0 Q-112.7 -177.8 -155.9 -169.45 -173.25 -166.15 -194.8 -158.15 L-231.65 -143.2 Q-253.65 -134.0 -266.35 -130.15 -283.8 -124.8 -297.4 -124.55 L-342.2 -124.55 Q-353.15 -117.25 -370.15 -112.0 -386.35 -107.05 -394.0 -101.45 L-394.0 -92.0 -381.7 -92.0 Q-375.85 -95.25 -358.55 -98.6 -341.8 -101.9 -337.25 -103.95 M-83.0 -181.8 Q-72.9 -173.6 -64.0 -160.65 -57.35 -151.0 -46.9 -131.3 M-46.75 -129.5 L-46.7 -129.5 -40.9 -130.15 Q-27.1 -132.0 -18.4 -136.85 M-14.25 -137.35 L-14.35 -138.2 M50.15 -273.7 L51.05 -271.5 58.15 -253.7 M127.3 -249.4 L126.9 -249.5 M172.15 -143.15 L171.9 -143.35 Q167.75 -146.3 158.7 -153.5 150.25 -160.2 144.95 -162.7 M70.05 78.1 Q73.15 65.9 69.5 50.5 66.6 38.15 58.5 21.05 L43.05 -9.4 Q33.55 -28.0 29.2 -40.15 25.7 -49.9 18.05 -63.65 L4.25 -87.8 Q-12.45 -117.6 -14.25 -137.35 M173.35 -142.65 L172.9 -142.65 172.15 -143.15 172.15 -135.35 Q173.45 -130.1 175.6 -123.9 L179.0 -114.35 Q182.5 -103.85 181.6 -94.7 179.1 -71.3 192.55 -52.3 219.9 -13.4 235.25 15.45 L236.1 17.05 M233.6 21.25 Q241.5 26.6 243.5 38.6 244.2 42.95 244.2 59.05 244.2 73.5 233.7 112.95 L226.25 140.35 Q222.75 153.5 222.4 157.1 L220.9 180.1 Q229.85 286.0 235.85 330.15 241.85 374.3 242.1 382.1 L244.1 382.05 M233.6 21.25 Q230.85 27.95 221.75 36.15 209.75 46.95 190.05 57.45 170.6 67.85 150.6 74.2 129.3 81.0 111.65 83.3 94.0 85.6 83.5 82.95 L79.8 81.95 Q75.45 94.75 64.75 163.7 53.65 235.4 53.65 256.3 53.65 261.85 57.8 272.95 61.95 284.0 61.95 287.05 61.95 296.7 53.4 340.3 L44.55 384.4 M119.0 384.4 L119.0 351.65 122.6 324.65 Q132.95 303.2 132.0 283.2 L128.2 227.15 Q137.1 267.95 140.75 280.95 143.3 290.05 149.65 309.7 155.6 328.0 158.25 338.0 164.85 362.8 164.8 384.4 L242.1 382.1 242.2 384.4 M128.4 216.05 Q122.75 169.8 117.65 144.95 L117.65 139.4 M234.75 15.7 Q234.75 18.35 233.6 21.25 M79.8 81.95 L76.4 80.9 71.5 78.75 M128.4 216.05 Q130.8 235.85 128.2 227.15 M-46.75 -129.5 L-69.75 -128.5 -103.9 -128.35 Q-125.25 -127.95 -142.25 -125.9 -155.1 -124.35 -173.3 -118.45 -183.8 -115.05 -205.95 -107.35 -226.05 -100.85 -242.5 -98.4 -263.8 -95.15 -284.95 -97.35 -289.6 -95.95 -292.5 -94.1 -295.0 -92.5 -297.5 -89.2 -299.7 -86.3 -301.95 -85.3 -305.45 -83.7 -313.0 -83.7 L-321.8 -83.7 Q-325.25 -83.9 -327.2 -85.25 -330.4 -87.55 -336.8 -102.8 M-2.3 -220.05 L-3.5 -221.25 M-2.3 -220.05 L-0.65 -221.05 M-284.95 -97.35 Q-282.55 -98.15 -279.6 -98.75 M-86.4 -184.45 L-83.0 -181.8" fill="none" stroke="#000000" stroke-linecap="round" stroke-linejoin="round" stroke-width="0.05"/>
    <path d="M115.0 -253.85 L116.2 -256.05 M-15.4 -214.75 L-14.7 -213.15" fill="none" stroke="#999999" stroke-linecap="round" stroke-linejoin="round" stroke-width="0.05"/>
  </g>
</svg>
