<?xml version="1.0" encoding="UTF-8" standalone="no"?>
<svg xmlns:ffdec="https://www.free-decompiler.com/flash" xmlns:xlink="http://www.w3.org/1999/xlink" ffdec:objectType="shape" height="43.25px" width="80.1px" xmlns="http://www.w3.org/2000/svg">
  <g transform="matrix(1.0, 0.0, 0.0, 1.0, 82.4, 76.6)">
    <path d="M-11.65 -58.35 L-12.05 -57.95 -12.1 -57.4 -11.7 -56.85 Q-11.35 -57.05 -11.35 -57.5 -11.4 -58.2 -11.65 -58.35 M-14.05 -55.8 L-14.35 -56.25 -14.65 -55.9 -14.85 -55.35 -14.65 -54.95 -14.0 -55.25 -13.85 -55.25 -14.05 -55.8 M-13.15 -59.0 L-13.6 -59.0 -14.55 -58.95 Q-15.25 -58.9 -15.25 -58.6 L-14.95 -57.75 -14.45 -57.05 -14.65 -56.65 Q-13.95 -56.8 -13.2 -57.3 -12.2 -57.85 -12.2 -58.4 -12.2 -59.05 -12.75 -59.0 L-13.15 -59.0 M-19.4 -61.9 L-19.75 -62.75 -20.0 -62.7 -20.25 -62.1 Q-20.25 -61.8 -19.75 -61.85 L-19.4 -61.9 M-15.6 -66.7 L-15.9 -65.2 -15.95 -64.65 -15.5 -64.1 Q-14.9 -64.4 -14.9 -64.75 L-15.15 -65.75 -15.6 -66.7 M-12.4 -69.1 L-13.15 -68.9 -14.1 -68.75 -14.85 -68.65 -15.65 -68.6 -15.65 -68.45 -15.5 -68.1 -15.4 -67.8 -15.1 -66.6 -14.8 -65.35 -14.55 -63.65 -14.35 -62.0 -14.6 -61.6 Q-14.6 -61.1 -14.2 -60.85 L-13.2 -60.6 -12.2 -60.85 -12.3 -61.35 -12.15 -61.75 -12.0 -62.2 -12.35 -62.7 -12.2 -62.85 -12.1 -63.7 -12.15 -64.15 -12.15 -64.6 -12.0 -65.05 -11.85 -65.55 -12.05 -66.25 -12.15 -66.95 Q-12.0 -66.95 -12.0 -67.4 L-12.0 -68.15 Q-12.05 -69.15 -12.4 -69.1 M-20.6 -55.85 L-20.85 -55.6 Q-20.85 -55.2 -19.9 -55.2 L-19.9 -55.45 -19.85 -55.4 -19.6 -55.35 -19.45 -55.5 -19.65 -56.0 -19.9 -55.7 -20.25 -55.75 -20.6 -55.85 M-24.45 -56.05 L-24.65 -55.75 -24.4 -55.55 -24.2 -55.6 -24.05 -55.7 -23.9 -55.65 -23.9 -55.85 Q-23.95 -57.3 -24.3 -57.5 L-24.35 -56.85 -24.45 -56.2 -24.45 -56.05 M-24.0 -59.75 L-23.35 -59.1 Q-23.0 -59.3 -23.0 -59.45 -23.05 -59.8 -23.85 -60.25 L-24.0 -59.75 M-40.35 -56.0 L-40.05 -56.5 -40.5 -57.8 Q-40.8 -58.6 -41.25 -58.95 L-42.1 -60.85 -42.9 -62.65 -42.85 -62.7 -43.05 -63.3 -43.25 -63.9 -43.4 -64.05 -43.55 -64.15 -43.15 -64.8 -43.3 -65.8 -44.05 -66.55 -44.4 -66.5 -45.8 -66.9 -47.25 -67.35 -47.6 -67.05 -49.25 -67.3 -50.9 -67.65 Q-50.9 -67.3 -50.6 -67.2 L-50.1 -67.0 Q-49.8 -66.95 -49.75 -66.5 L-49.75 -66.2 -49.15 -65.95 -49.4 -65.8 -49.1 -64.9 -49.2 -64.55 -49.0 -63.95 -49.15 -63.8 Q-49.3 -63.8 -49.35 -63.9 L-49.4 -63.7 -49.7 -62.7 -49.0 -62.25 Q-49.8 -62.1 -49.75 -61.5 L-49.55 -61.15 -49.6 -60.65 -49.65 -60.1 -49.75 -60.05 -50.1 -59.8 -50.1 -59.75 -50.25 -58.6 -50.15 -58.15 -50.05 -57.65 -50.25 -56.25 -50.6 -54.9 -49.7 -55.25 -48.85 -55.8 Q-48.1 -56.9 -48.1 -57.6 L-47.8 -59.35 -47.35 -60.95 -46.9 -61.05 -46.35 -60.9 -45.85 -60.7 -45.35 -60.8 -44.9 -60.9 -44.75 -60.85 -44.7 -60.7 -44.75 -60.4 -44.75 -60.05 Q-44.75 -59.8 -44.15 -59.75 L-44.6 -57.85 -44.55 -57.7 -44.55 -57.2 -44.7 -57.2 Q-44.55 -56.4 -44.25 -56.2 -43.85 -56.45 -43.85 -57.1 L-44.35 -57.75 -43.7 -58.65 Q-43.7 -58.0 -43.3 -57.45 L-42.6 -56.5 -42.25 -56.35 -41.9 -55.85 -41.5 -55.4 -41.2 -55.5 -40.85 -55.65 -40.7 -55.6 -40.35 -56.0 M-34.8 -58.5 L-35.1 -58.4 -35.3 -57.5 -35.0 -57.15 -34.35 -57.35 -34.8 -58.5 M-31.75 -60.55 L-31.75 -60.5 -31.85 -60.45 -31.65 -59.7 -31.3 -59.05 -31.0 -59.6 -30.9 -60.15 Q-30.9 -60.5 -31.7 -60.9 L-31.75 -60.55 M-35.5 -62.45 L-35.65 -62.55 -35.6 -64.25 -35.2 -65.8 -35.05 -65.75 -35.2 -65.35 -35.3 -65.0 -35.25 -64.9 Q-34.95 -65.3 -34.55 -65.3 L-34.25 -65.4 -34.1 -65.4 -34.2 -65.65 -34.0 -65.65 -33.15 -65.0 -32.55 -64.15 -32.5 -63.25 Q-33.3 -63.0 -33.45 -62.75 L-35.5 -62.45 M-30.1 -62.55 L-30.0 -63.15 -30.15 -64.15 -30.3 -65.2 -30.7 -66.3 -31.2 -67.35 -33.0 -67.8 -35.0 -68.05 -36.2 -67.9 -37.45 -67.7 -38.35 -67.75 -39.25 -67.75 -39.6 -67.6 -40.0 -67.55 -39.25 -66.95 -38.45 -66.2 -38.7 -65.5 -38.9 -64.55 -38.8 -64.05 -38.75 -63.5 Q-38.75 -62.85 -39.3 -62.8 L-39.0 -62.45 -38.65 -62.2 -38.6 -60.6 -38.65 -59.75 -38.6 -59.05 -38.65 -57.95 -38.7 -56.8 Q-38.7 -56.15 -38.1 -55.8 -37.65 -55.45 -37.0 -55.45 L-36.75 -56.05 -36.0 -55.35 Q-35.75 -55.5 -35.75 -56.15 L-35.95 -56.95 -36.3 -57.4 Q-35.95 -58.8 -35.9 -60.2 L-34.05 -58.95 -34.05 -58.75 Q-34.05 -58.05 -33.3 -57.0 L-32.65 -56.85 -32.25 -56.0 -32.2 -55.95 -31.55 -55.45 -30.8 -55.05 -31.5 -54.4 -31.3 -54.35 -30.7 -54.45 -30.1 -54.55 -29.8 -54.4 -29.25 -55.05 Q-28.9 -55.5 -28.9 -55.75 L-29.1 -55.95 -29.8 -56.7 Q-30.1 -57.35 -30.9 -58.1 L-32.1 -59.35 Q-32.65 -60.1 -32.7 -61.05 L-31.35 -61.45 -31.4 -61.6 -31.15 -62.0 -30.95 -62.3 -30.1 -62.55 M-20.95 -68.65 L-21.15 -68.65 -21.6 -68.0 -22.25 -67.05 Q-22.7 -66.55 -23.2 -66.35 L-24.5 -64.25 -24.5 -64.85 -24.9 -65.5 -25.05 -65.5 -25.05 -65.55 -25.25 -66.05 Q-25.25 -66.7 -25.65 -67.4 L-26.15 -68.3 -26.25 -68.35 -26.35 -68.2 -26.35 -68.45 Q-26.9 -68.15 -27.6 -68.15 L-29.25 -68.45 -29.3 -68.25 Q-29.3 -67.95 -28.55 -67.4 L-27.8 -66.95 -27.75 -66.6 -27.6 -66.2 Q-27.4 -66.15 -27.35 -65.25 L-27.4 -64.55 -27.4 -63.85 Q-27.05 -63.75 -27.0 -63.3 L-27.05 -62.35 -27.1 -62.35 -27.15 -62.35 -27.1 -61.4 -27.15 -61.05 -27.1 -61.05 -27.05 -60.35 -26.9 -58.3 -26.85 -56.9 -26.95 -56.8 -27.25 -57.8 -27.85 -59.0 -27.8 -57.5 -27.75 -56.85 -27.35 -56.7 -27.45 -56.4 -27.25 -56.15 -26.95 -56.35 -26.95 -56.3 -25.85 -55.5 -25.35 -55.7 -24.9 -56.15 -24.6 -56.55 -24.65 -56.95 -24.75 -57.35 -24.6 -58.15 -24.5 -58.9 -24.65 -59.75 -24.9 -60.55 Q-24.9 -60.75 -24.6 -60.75 L-24.2 -60.65 -24.15 -60.7 -23.75 -60.7 -23.5 -60.55 -23.45 -60.4 -23.1 -60.55 Q-20.85 -58.05 -20.7 -57.1 L-19.4 -56.85 -19.85 -56.1 -18.75 -55.9 -17.35 -56.15 -17.3 -56.65 -18.5 -58.65 -20.0 -60.65 Q-21.25 -61.75 -21.3 -62.5 -21.3 -63.0 -21.75 -62.95 L-21.95 -62.9 -22.15 -62.9 -22.5 -63.3 Q-22.3 -63.95 -21.7 -64.6 L-20.95 -65.45 -21.05 -64.7 -20.4 -64.1 -19.9 -65.1 -20.45 -65.5 -20.95 -65.5 -20.75 -65.7 -19.65 -66.7 -19.1 -66.25 -18.65 -66.5 -18.45 -66.75 -18.8 -67.55 -18.4 -67.8 -18.35 -67.7 -17.95 -67.7 -18.1 -68.05 -19.45 -68.45 -20.95 -68.65 M-3.15 -63.0 Q-2.95 -57.2 -14.3 -52.7 -25.65 -48.2 -41.85 -47.65 L-42.8 -47.65 -35.0 -34.2 -48.45 -47.6 Q-60.55 -47.9 -69.75 -50.85 -81.35 -54.55 -81.55 -60.35 -81.75 -66.2 -70.4 -70.7 -59.05 -75.15 -42.8 -75.7 -26.55 -76.25 -14.95 -72.55 -3.35 -68.85 -3.15 -63.0 M-42.95 -54.15 Q-42.5 -54.45 -42.5 -55.1 -42.55 -55.5 -43.15 -55.8 L-43.2 -55.2 -43.35 -55.15 -43.25 -54.55 -42.95 -54.15 M-46.35 -54.5 L-46.35 -54.4 -46.5 -54.0 Q-46.5 -53.85 -46.25 -53.85 L-46.1 -53.9 -45.9 -53.95 -45.85 -53.95 -45.8 -54.15 Q-45.85 -55.0 -46.2 -55.3 L-46.3 -54.95 -46.35 -54.5 M-47.4 -56.35 L-47.45 -55.95 -47.5 -55.6 -47.5 -55.45 -47.65 -55.1 -47.45 -54.95 -47.25 -55.0 -47.1 -55.05 -47.0 -55.05 -47.0 -55.25 Q-47.0 -56.1 -47.4 -56.35 M-46.85 -59.75 L-46.9 -59.45 -46.9 -59.3 -47.05 -59.25 -47.0 -58.7 -47.05 -58.15 -46.9 -57.7 -46.55 -58.55 -46.4 -59.45 -46.85 -59.75 M-58.1 -54.9 L-58.15 -54.5 -58.25 -54.1 -58.2 -54.0 -58.35 -53.6 Q-58.3 -53.45 -58.1 -53.45 L-57.95 -53.5 -57.8 -53.55 -57.7 -53.55 -57.65 -53.75 Q-57.7 -54.6 -58.1 -54.9 M-58.45 -57.35 L-58.2 -57.75 -58.2 -58.25 -58.75 -59.35 -58.7 -57.95 -58.8 -57.9 -58.75 -57.55 -58.45 -57.35 M-55.7 -63.8 L-55.85 -63.45 -56.0 -63.1 -55.95 -62.95 -55.2 -63.65 Q-55.2 -64.05 -55.6 -64.3 L-55.65 -63.95 -55.65 -63.85 -55.7 -63.8 M-42.25 -64.1 L-42.3 -64.0 -42.35 -64.0 Q-42.55 -64.0 -42.75 -64.3 L-42.8 -63.9 -42.55 -62.5 Q-42.3 -61.4 -42.1 -61.4 L-41.95 -61.65 -41.85 -62.05 -41.95 -62.35 -42.05 -62.65 -42.05 -62.5 -42.3 -64.0 -42.2 -64.05 -42.25 -64.1 M-41.9 -65.35 L-41.5 -66.1 -41.55 -66.15 -41.85 -65.95 -42.1 -65.75 -42.15 -65.75 -42.4 -64.55 -41.9 -65.35 M-46.8 -63.5 L-46.75 -64.25 -46.45 -64.65 -46.25 -65.1 -45.5 -64.55 -44.9 -63.75 -44.75 -62.6 -45.65 -62.5 -46.8 -62.55 -46.8 -63.5 M-69.65 -60.15 L-69.95 -60.0 -70.15 -60.1 -70.2 -59.75 -70.2 -59.6 -70.3 -59.55 -70.3 -59.25 -70.25 -59.15 -70.15 -59.05 -69.75 -59.5 -69.6 -60.05 -69.65 -60.15 M-72.65 -54.5 L-72.8 -54.4 Q-72.65 -53.9 -72.0 -53.5 -71.7 -53.7 -71.75 -54.75 L-72.25 -55.3 -72.45 -54.85 -72.65 -54.5 M-61.2 -67.3 L-61.7 -67.05 -62.05 -66.8 -62.4 -66.8 -62.4 -66.7 -62.1 -65.9 -61.8 -65.05 -61.8 -64.95 -61.8 -64.75 -62.0 -64.65 -62.0 -64.35 -61.85 -63.35 -61.65 -62.35 -61.6 -60.25 -61.55 -58.1 -61.7 -56.95 -61.8 -55.75 Q-61.8 -54.95 -61.35 -54.95 L-60.85 -55.0 -60.8 -54.65 -61.0 -54.55 Q-60.75 -53.9 -60.15 -53.7 -59.7 -53.95 -59.7 -54.25 L-60.3 -54.9 -59.25 -55.1 Q-59.05 -55.45 -59.1 -56.3 L-59.15 -57.0 -59.15 -57.65 Q-59.25 -60.15 -58.0 -60.35 L-57.7 -60.1 -57.8 -59.9 -57.8 -59.75 -57.15 -59.3 Q-56.75 -59.5 -56.75 -59.85 L-57.0 -60.25 -56.6 -60.45 -56.15 -60.5 -55.3 -60.5 -54.9 -60.1 -54.6 -59.95 -54.6 -59.8 -54.6 -59.6 -54.6 -59.5 -54.7 -59.4 -54.9 -59.45 -54.85 -58.1 -55.0 -58.0 -54.85 -57.55 -54.6 -57.2 -54.1 -57.75 -54.15 -58.5 -54.1 -58.5 -53.75 -57.3 -53.85 -56.25 -53.95 -55.2 -53.85 -55.1 Q-53.75 -54.3 -53.4 -54.15 -53.05 -54.4 -53.05 -55.05 L-52.9 -55.1 -51.95 -55.05 -51.85 -55.8 -52.0 -56.3 -52.1 -56.8 -52.05 -57.7 -51.95 -58.55 -51.95 -58.8 -52.0 -59.2 -52.0 -59.8 Q-52.0 -60.2 -52.35 -60.9 L-52.65 -62.05 -52.25 -63.0 -52.35 -63.3 -52.45 -63.4 -52.15 -63.85 -52.05 -64.4 -52.0 -64.8 -52.0 -65.25 Q-52.1 -67.0 -52.45 -67.4 L-53.05 -67.4 -53.65 -67.4 -54.1 -67.55 Q-54.7 -67.55 -54.95 -67.0 L-55.15 -65.95 -55.25 -64.95 -54.85 -63.35 Q-55.75 -62.6 -57.15 -62.55 L-57.95 -62.6 -58.8 -62.75 Q-59.1 -63.1 -59.15 -64.6 L-59.1 -64.7 -59.05 -65.1 -59.2 -65.95 -59.4 -66.8 Q-59.45 -67.35 -61.2 -67.3 M-66.75 -63.05 L-66.95 -62.65 -66.35 -62.0 -66.05 -62.35 Q-66.05 -63.1 -66.7 -63.6 L-66.8 -63.15 -66.75 -63.05 M-68.15 -65.05 L-67.85 -65.1 -66.6 -64.7 Q-65.65 -64.4 -65.6 -64.1 -65.15 -64.15 -65.15 -63.9 L-65.2 -63.85 -64.3 -64.0 -63.6 -64.45 -63.95 -65.6 -63.85 -65.9 -64.45 -66.4 -65.1 -66.75 -66.8 -66.85 -68.55 -66.95 -69.45 -66.75 -70.35 -66.5 -71.8 -66.1 -72.7 -64.95 -72.95 -64.45 -73.2 -63.9 -73.15 -63.7 Q-72.55 -63.6 -72.2 -62.85 L-71.7 -61.55 -71.0 -60.95 -69.95 -60.7 -69.75 -60.7 -69.15 -60.55 -68.9 -60.6 -66.5 -58.45 -66.05 -58.6 -65.95 -58.35 -66.25 -58.25 -65.95 -57.65 Q-65.9 -57.0 -66.5 -56.8 L-67.65 -56.7 -68.4 -56.65 -69.25 -56.6 Q-70.0 -56.6 -70.0 -57.0 L-69.95 -57.85 -71.3 -58.0 -72.7 -58.2 -73.3 -58.15 -73.05 -57.8 -73.1 -57.3 -73.2 -56.75 Q-73.2 -55.95 -72.3 -55.45 -71.6 -55.1 -70.65 -55.1 L-70.55 -55.1 -70.2 -54.75 -69.8 -54.35 -68.9 -54.25 -67.35 -54.6 -65.85 -54.95 -65.55 -54.5 -64.75 -54.9 -65.15 -55.35 -64.7 -55.7 Q-63.3 -55.75 -63.3 -56.25 L-63.25 -57.1 -63.2 -57.95 -63.3 -58.35 -63.35 -58.8 -63.3 -59.05 -63.75 -59.9 -64.55 -60.35 -64.8 -60.7 -66.8 -61.5 Q-69.45 -62.55 -70.05 -64.2 L-69.75 -64.8 Q-69.45 -65.15 -69.15 -65.1 L-68.9 -65.1 -68.95 -64.6 Q-68.95 -64.45 -68.65 -64.45 L-68.05 -64.45 -68.05 -64.85 -68.15 -65.05" fill="#ffffff" fill-rule="evenodd" stroke="none"/>
    <path d="M-20.95 -68.65 L-19.45 -68.45 -18.1 -68.05 -17.95 -67.7 -18.35 -67.7 -18.4 -67.8 -18.8 -67.55 -18.45 -66.75 -18.65 -66.5 -19.1 -66.25 -19.65 -66.7 -20.75 -65.7 -20.95 -65.5 -20.45 -65.5 -19.9 -65.1 -20.4 -64.1 -21.05 -64.7 -20.95 -65.45 -21.7 -64.6 Q-22.3 -63.95 -22.5 -63.3 L-22.15 -62.9 -21.95 -62.9 -21.75 -62.95 Q-21.3 -63.0 -21.3 -62.5 -21.25 -61.75 -20.0 -60.65 L-18.5 -58.65 -17.3 -56.65 -17.35 -56.15 -18.75 -55.9 -19.85 -56.1 -19.4 -56.85 -20.7 -57.1 Q-20.85 -58.05 -23.1 -60.55 L-23.45 -60.4 -23.5 -60.55 -23.75 -60.7 -24.15 -60.7 -24.2 -60.65 -24.6 -60.75 Q-24.9 -60.75 -24.9 -60.55 L-24.65 -59.75 -24.5 -58.9 -24.6 -58.15 -24.75 -57.35 -24.65 -56.95 -24.6 -56.55 -24.9 -56.15 -25.35 -55.7 -25.85 -55.5 -26.95 -56.3 -26.95 -56.35 -27.25 -56.15 -27.45 -56.4 -27.35 -56.7 -27.75 -56.85 -27.8 -57.5 -27.85 -59.0 -27.25 -57.8 -26.95 -56.8 -26.85 -56.9 -26.9 -58.3 -27.05 -60.35 -27.1 -61.05 -27.15 -61.05 -27.1 -61.4 -27.15 -62.35 -27.1 -62.35 -27.05 -62.35 -27.0 -63.3 Q-27.05 -63.75 -27.4 -63.85 L-27.4 -64.55 -27.35 -65.25 Q-27.4 -66.15 -27.6 -66.2 L-27.75 -66.6 -27.8 -66.95 -28.55 -67.4 Q-29.3 -67.95 -29.3 -68.25 L-29.25 -68.45 -27.6 -68.15 Q-26.9 -68.15 -26.35 -68.45 L-26.35 -68.2 -26.25 -68.35 -26.15 -68.3 -25.65 -67.4 Q-25.25 -66.7 -25.25 -66.05 L-25.05 -65.55 -25.05 -65.5 -24.9 -65.5 -24.5 -64.85 -24.5 -64.25 -23.2 -66.35 Q-22.7 -66.55 -22.25 -67.05 L-21.6 -68.0 -21.15 -68.65 -20.95 -68.65 M-30.1 -62.55 L-30.95 -62.3 -31.15 -62.0 -31.4 -61.6 -31.35 -61.45 -32.7 -61.05 Q-32.65 -60.1 -32.1 -59.35 L-30.9 -58.1 Q-30.1 -57.35 -29.8 -56.7 L-29.1 -55.95 -28.9 -55.75 Q-28.9 -55.5 -29.25 -55.05 L-29.8 -54.4 -30.1 -54.55 -30.7 -54.45 -31.3 -54.35 -31.5 -54.4 -30.8 -55.05 -31.55 -55.45 -32.2 -55.95 -32.25 -56.0 -32.65 -56.85 -33.3 -57.0 Q-34.05 -58.05 -34.05 -58.75 L-34.05 -58.95 -35.9 -60.2 Q-35.95 -58.8 -36.3 -57.4 L-35.95 -56.95 -35.75 -56.15 Q-35.75 -55.5 -36.0 -55.35 L-36.75 -56.05 -37.0 -55.45 Q-37.65 -55.45 -38.1 -55.8 -38.7 -56.15 -38.7 -56.8 L-38.65 -57.95 -38.6 -59.05 -38.65 -59.75 -38.6 -60.6 -38.65 -62.2 -39.0 -62.45 -39.3 -62.8 Q-38.75 -62.85 -38.75 -63.5 L-38.8 -64.05 -38.9 -64.55 -38.7 -65.5 -38.45 -66.2 -39.25 -66.95 -40.0 -67.55 -39.6 -67.6 -39.25 -67.75 -38.35 -67.75 -37.45 -67.7 -36.2 -67.9 -35.0 -68.05 -33.0 -67.8 -31.2 -67.35 -30.7 -66.3 -30.3 -65.2 -30.15 -64.15 -30.0 -63.15 -30.1 -62.55 M-35.5 -62.45 L-33.45 -62.75 Q-33.3 -63.0 -32.5 -63.25 L-32.55 -64.15 -33.15 -65.0 -34.0 -65.65 -34.2 -65.65 -34.1 -65.4 -34.25 -65.4 -34.55 -65.3 Q-34.95 -65.3 -35.25 -64.9 L-35.3 -65.0 -35.2 -65.35 -35.05 -65.75 -35.2 -65.8 -35.6 -64.25 -35.65 -62.55 -35.5 -62.45 M-31.75 -60.55 L-31.7 -60.9 Q-30.9 -60.5 -30.9 -60.15 L-31.0 -59.6 -31.3 -59.05 -31.65 -59.7 -31.85 -60.45 -31.75 -60.5 -31.75 -60.55 M-34.8 -58.5 L-34.35 -57.35 -35.0 -57.15 -35.3 -57.5 -35.1 -58.4 -34.8 -58.5 M-40.35 -56.0 L-40.7 -55.6 -40.85 -55.65 -41.2 -55.5 -41.5 -55.4 -41.9 -55.85 -42.25 -56.35 -42.6 -56.5 -43.3 -57.45 Q-43.7 -58.0 -43.7 -58.65 L-44.35 -57.75 -43.85 -57.1 Q-43.85 -56.45 -44.25 -56.2 -44.55 -56.4 -44.7 -57.2 L-44.55 -57.2 -44.55 -57.7 -44.6 -57.85 -44.15 -59.75 Q-44.75 -59.8 -44.75 -60.05 L-44.75 -60.4 -44.7 -60.7 -44.75 -60.85 -44.9 -60.9 -45.35 -60.8 -45.85 -60.7 -46.35 -60.9 -46.9 -61.05 -47.35 -60.95 -47.8 -59.35 -48.1 -57.6 Q-48.1 -56.9 -48.85 -55.8 L-49.7 -55.25 -50.6 -54.9 -50.25 -56.25 -50.05 -57.65 -50.15 -58.15 -50.25 -58.6 -50.1 -59.75 -50.1 -59.8 -49.75 -60.05 -49.65 -60.1 -49.6 -60.65 -49.55 -61.15 -49.75 -61.5 Q-49.8 -62.1 -49.0 -62.25 L-49.7 -62.7 -49.4 -63.7 -49.35 -63.9 Q-49.3 -63.8 -49.15 -63.8 L-49.0 -63.95 -49.2 -64.55 -49.1 -64.9 -49.4 -65.8 -49.15 -65.95 -49.75 -66.2 -49.75 -66.5 Q-49.8 -66.95 -50.1 -67.0 L-50.6 -67.2 Q-50.9 -67.3 -50.9 -67.65 L-49.25 -67.3 -47.6 -67.05 -47.25 -67.35 -45.8 -66.9 -44.4 -66.5 -44.05 -66.55 -43.3 -65.8 -43.15 -64.8 -43.55 -64.15 -43.4 -64.05 -43.25 -63.9 -43.05 -63.3 -42.85 -62.7 -42.9 -62.65 -42.1 -60.85 -41.25 -58.95 Q-40.8 -58.6 -40.5 -57.8 L-40.05 -56.5 -40.35 -56.0 M-24.0 -59.75 L-23.85 -60.25 Q-23.05 -59.8 -23.0 -59.45 -23.0 -59.3 -23.35 -59.1 L-24.0 -59.75 M-24.45 -56.05 L-24.45 -56.2 -24.35 -56.85 -24.3 -57.5 Q-23.95 -57.3 -23.9 -55.85 L-23.9 -55.65 -24.05 -55.7 -24.2 -55.6 -24.4 -55.55 -24.65 -55.75 -24.45 -56.05 M-20.6 -55.85 L-20.25 -55.75 -19.9 -55.7 -19.65 -56.0 -19.45 -55.5 -19.6 -55.35 -19.85 -55.4 -19.9 -55.45 -19.9 -55.2 Q-20.85 -55.2 -20.85 -55.6 L-20.6 -55.85 M-12.4 -69.1 Q-12.05 -69.15 -12.0 -68.15 L-12.0 -67.4 Q-12.0 -66.95 -12.15 -66.95 L-12.05 -66.25 -11.85 -65.55 -12.0 -65.05 -12.15 -64.6 -12.15 -64.15 -12.1 -63.7 -12.2 -62.85 -12.35 -62.7 -12.0 -62.2 -12.15 -61.75 -12.3 -61.35 -12.2 -60.85 -13.2 -60.6 -14.2 -60.85 Q-14.6 -61.1 -14.6 -61.6 L-14.35 -62.0 -14.55 -63.65 -14.8 -65.35 -15.1 -66.6 -15.4 -67.8 -15.5 -68.1 -15.65 -68.45 -15.65 -68.6 -14.85 -68.65 -14.1 -68.75 -13.15 -68.9 -12.4 -69.1 M-15.6 -66.7 L-15.15 -65.75 -14.9 -64.75 Q-14.9 -64.4 -15.5 -64.1 L-15.95 -64.65 -15.9 -65.2 -15.6 -66.7 M-19.4 -61.9 L-19.75 -61.85 Q-20.25 -61.8 -20.25 -62.1 L-20.0 -62.7 -19.75 -62.75 -19.4 -61.9 M-13.15 -59.0 L-12.75 -59.0 Q-12.2 -59.05 -12.2 -58.4 -12.2 -57.85 -13.2 -57.3 -13.95 -56.8 -14.65 -56.65 L-14.45 -57.05 -14.95 -57.75 -15.25 -58.6 Q-15.25 -58.9 -14.55 -58.95 L-13.6 -59.0 -13.15 -59.0 M-14.05 -55.8 L-13.85 -55.25 -14.0 -55.25 -14.65 -54.95 -14.85 -55.35 -14.65 -55.9 -14.35 -56.25 -14.05 -55.8 M-11.65 -58.35 Q-11.4 -58.2 -11.35 -57.5 -11.35 -57.05 -11.7 -56.85 L-12.1 -57.4 -12.05 -57.95 -11.65 -58.35 M-68.15 -65.05 L-68.05 -64.85 -68.05 -64.45 -68.65 -64.45 Q-68.95 -64.45 -68.95 -64.6 L-68.9 -65.1 -69.15 -65.1 Q-69.45 -65.15 -69.75 -64.8 L-70.05 -64.2 Q-69.45 -62.55 -66.8 -61.5 L-64.8 -60.7 -64.55 -60.35 -63.75 -59.9 -63.3 -59.05 -63.35 -58.8 -63.3 -58.35 -63.2 -57.95 -63.25 -57.1 -63.3 -56.25 Q-63.3 -55.75 -64.7 -55.7 L-65.15 -55.35 -64.75 -54.9 -65.55 -54.5 -65.85 -54.95 -67.35 -54.6 -68.9 -54.25 -69.8 -54.35 -70.2 -54.75 -70.55 -55.1 -70.65 -55.1 Q-71.6 -55.1 -72.3 -55.45 -73.2 -55.95 -73.2 -56.75 L-73.1 -57.3 -73.05 -57.8 -73.3 -58.15 -72.7 -58.2 -71.3 -58.0 -69.95 -57.85 -70.0 -57.0 Q-70.0 -56.6 -69.25 -56.6 L-68.4 -56.65 -67.65 -56.7 -66.5 -56.8 Q-65.9 -57.0 -65.95 -57.65 L-66.25 -58.25 -65.95 -58.35 -66.05 -58.6 -66.5 -58.45 -68.9 -60.6 -69.15 -60.55 -69.75 -60.7 -69.95 -60.7 -71.0 -60.95 -71.7 -61.55 -72.2 -62.85 Q-72.55 -63.6 -73.15 -63.7 L-73.2 -63.9 -72.95 -64.45 -72.7 -64.95 -71.8 -66.1 -70.35 -66.5 -69.45 -66.75 -68.55 -66.95 -66.8 -66.85 -65.1 -66.75 -64.45 -66.4 -63.85 -65.9 -63.95 -65.6 -63.6 -64.45 -64.3 -64.0 -65.2 -63.85 -65.15 -63.9 Q-65.15 -64.15 -65.6 -64.1 -65.65 -64.4 -66.6 -64.7 L-67.85 -65.1 -68.15 -65.05 M-66.75 -63.05 L-66.8 -63.15 -66.7 -63.6 Q-66.05 -63.1 -66.05 -62.35 L-66.35 -62.0 -66.95 -62.65 -66.75 -63.05 M-61.2 -67.3 Q-59.45 -67.35 -59.4 -66.8 L-59.2 -65.95 -59.05 -65.1 -59.1 -64.7 -59.15 -64.6 Q-59.1 -63.1 -58.8 -62.75 L-57.95 -62.6 -57.15 -62.55 Q-55.75 -62.6 -54.85 -63.35 L-55.25 -64.95 -55.15 -65.95 -54.95 -67.0 Q-54.7 -67.55 -54.1 -67.55 L-53.65 -67.4 -53.05 -67.4 -52.45 -67.4 Q-52.1 -67.0 -52.0 -65.25 L-52.0 -64.8 -52.05 -64.4 -52.15 -63.85 -52.45 -63.4 -52.35 -63.3 -52.25 -63.0 -52.65 -62.05 -52.35 -60.9 Q-52.0 -60.2 -52.0 -59.8 L-52.0 -59.2 -51.95 -58.8 -51.95 -58.55 -52.05 -57.7 -52.1 -56.8 -52.0 -56.3 -51.85 -55.8 -51.95 -55.05 -52.9 -55.1 -53.05 -55.05 Q-53.05 -54.4 -53.4 -54.15 -53.75 -54.3 -53.85 -55.1 L-53.95 -55.2 -53.85 -56.25 -53.75 -57.3 -54.1 -58.5 -54.15 -58.5 -54.1 -57.75 -54.6 -57.2 -54.85 -57.55 -55.0 -58.0 -54.85 -58.1 -54.9 -59.45 -54.7 -59.4 -54.6 -59.5 -54.6 -59.6 -54.6 -59.8 -54.6 -59.95 -54.9 -60.1 -55.3 -60.5 -56.15 -60.5 -56.6 -60.45 -57.0 -60.25 -56.75 -59.85 Q-56.75 -59.5 -57.15 -59.3 L-57.8 -59.75 -57.8 -59.9 -57.7 -60.1 -58.0 -60.35 Q-59.25 -60.15 -59.15 -57.65 L-59.15 -57.0 -59.1 -56.3 Q-59.05 -55.45 -59.25 -55.1 L-60.3 -54.9 -59.7 -54.25 Q-59.7 -53.95 -60.15 -53.7 -60.75 -53.9 -61.0 -54.55 L-60.8 -54.65 -60.85 -55.0 -61.35 -54.95 Q-61.8 -54.95 -61.8 -55.75 L-61.7 -56.95 -61.55 -58.1 -61.6 -60.25 -61.65 -62.35 -61.85 -63.35 -62.0 -64.35 -62.0 -64.65 -61.8 -64.75 -61.8 -64.95 -61.8 -65.05 -62.1 -65.9 -62.4 -66.7 -62.4 -66.8 -62.05 -66.8 -61.7 -67.05 -61.2 -67.3 M-72.65 -54.5 L-72.45 -54.85 -72.25 -55.3 -71.75 -54.75 Q-71.7 -53.7 -72.0 -53.5 -72.65 -53.9 -72.8 -54.4 L-72.65 -54.5 M-69.65 -60.15 L-69.6 -60.05 -69.75 -59.5 -70.15 -59.05 -70.25 -59.15 -70.3 -59.25 -70.3 -59.55 -70.2 -59.6 -70.2 -59.75 -70.15 -60.1 -69.95 -60.0 -69.65 -60.15 M-46.8 -63.5 L-46.8 -62.55 -45.65 -62.5 -44.75 -62.6 -44.9 -63.75 -45.5 -64.55 -46.25 -65.1 -46.45 -64.65 -46.75 -64.25 -46.8 -63.5 M-41.9 -65.35 L-42.4 -64.55 -42.15 -65.75 -42.1 -65.75 -41.85 -65.95 -41.55 -66.15 -41.5 -66.1 -41.9 -65.35 M-42.25 -64.1 L-42.2 -64.05 -42.3 -64.0 -42.05 -62.5 -42.05 -62.65 -41.95 -62.35 -41.85 -62.05 -41.95 -61.65 -42.1 -61.4 Q-42.3 -61.4 -42.55 -62.5 L-42.8 -63.9 -42.75 -64.3 Q-42.55 -64.0 -42.35 -64.0 L-42.3 -64.0 -42.25 -64.1 M-55.7 -63.8 L-55.65 -63.85 -55.65 -63.95 -55.6 -64.3 Q-55.2 -64.05 -55.2 -63.65 L-55.95 -62.95 -56.0 -63.1 -55.85 -63.45 -55.7 -63.8 M-58.45 -57.35 L-58.75 -57.55 -58.8 -57.9 -58.7 -57.95 -58.75 -59.35 -58.2 -58.25 -58.2 -57.75 -58.45 -57.35 M-58.1 -54.9 Q-57.7 -54.6 -57.65 -53.75 L-57.7 -53.55 -57.8 -53.55 -57.95 -53.5 -58.1 -53.45 Q-58.3 -53.45 -58.35 -53.6 L-58.2 -54.0 -58.25 -54.1 -58.15 -54.5 -58.1 -54.9 M-46.85 -59.75 L-46.4 -59.45 -46.55 -58.55 -46.9 -57.7 -47.05 -58.15 -47.0 -58.7 -47.05 -59.25 -46.9 -59.3 -46.9 -59.45 -46.85 -59.75 M-47.4 -56.35 Q-47.0 -56.1 -47.0 -55.25 L-47.0 -55.05 -47.1 -55.05 -47.25 -55.0 -47.45 -54.95 -47.65 -55.1 -47.5 -55.45 -47.5 -55.6 -47.45 -55.95 -47.4 -56.35 M-46.35 -54.5 L-46.3 -54.95 -46.2 -55.3 Q-45.85 -55.0 -45.8 -54.15 L-45.85 -53.95 -45.9 -53.95 -46.1 -53.9 -46.25 -53.85 Q-46.5 -53.85 -46.5 -54.0 L-46.35 -54.4 -46.35 -54.5 M-42.95 -54.15 L-43.25 -54.55 -43.35 -55.15 -43.2 -55.2 -43.15 -55.8 Q-42.55 -55.5 -42.5 -55.1 -42.5 -54.45 -42.95 -54.15" fill="#000000" fill-rule="evenodd" stroke="none"/>
    <path d="M-3.15 -63.0 Q-3.35 -68.85 -14.95 -72.55 -26.55 -76.25 -42.8 -75.7 -59.05 -75.15 -70.4 -70.7 -81.75 -66.2 -81.55 -60.35 -81.35 -54.55 -69.75 -50.85 -60.55 -47.9 -48.45 -47.6 L-35.0 -34.2 -42.8 -47.65 -41.85 -47.65 Q-25.65 -48.2 -14.3 -52.7 -2.95 -57.2 -3.15 -63.0 Z" fill="none" stroke="#000000" stroke-linecap="round" stroke-linejoin="round" stroke-width="1.7000000000000002"/>
  </g>
</svg>
