<?xml version="1.0" encoding="UTF-8" standalone="no"?>
<svg xmlns:ffdec="https://www.free-decompiler.com/flash" xmlns:xlink="http://www.w3.org/1999/xlink" ffdec:objectType="shape" height="84.15px" width="69.55px" xmlns="http://www.w3.org/2000/svg">
  <g transform="matrix(1.0, 0.0, 0.0, 1.0, 268.35, 202.25)">
    <path d="M-211.25 -199.05 L-211.45 -198.7 Q-214.0 -200.05 -216.6 -198.6 L-217.0 -198.35 -218.55 -194.1 -218.75 -194.0 Q-219.45 -195.0 -220.0 -194.85 -221.75 -194.55 -221.25 -192.05 L-221.0 -191.05 -220.9 -190.85 -222.35 -190.05 Q-223.15 -189.55 -223.8 -189.4 L-224.1 -189.4 Q-225.0 -191.55 -224.7 -194.1 -224.35 -197.8 -221.9 -200.15 -219.45 -202.5 -216.3 -202.2 -213.2 -201.9 -211.25 -199.05 M-211.45 -194.85 Q-211.4 -194.45 -211.6 -194.1 -211.85 -193.75 -212.25 -193.65 L-213.0 -193.8 -213.45 -194.45 -213.3 -195.2 -212.65 -195.65 -211.9 -195.5 Q-211.55 -195.3 -211.45 -194.85" fill="#000000" fill-rule="evenodd" stroke="none"/>
    <path d="M-223.8 -189.4 Q-223.15 -189.55 -222.35 -190.05 L-220.9 -190.85 -221.0 -191.05 -220.95 -191.0 -220.85 -190.9 -220.9 -190.85 -220.85 -190.9 -220.95 -191.0 -221.25 -192.05 Q-221.75 -194.55 -220.0 -194.85 -219.45 -195.0 -218.75 -194.0 L-218.55 -194.1 -217.0 -198.35 -216.6 -198.6 Q-214.0 -200.05 -211.45 -198.7 L-211.0 -198.6 Q-209.7 -196.5 -209.6 -193.9 L-207.7 -188.9 -210.85 -189.3 Q-211.05 -188.05 -212.5 -186.6 L-213.5 -185.75 Q-214.1 -185.35 -214.7 -185.1 -215.1 -184.9 -215.45 -184.8 L-217.0 -184.3 -217.65 -182.3 Q-219.55 -182.1 -221.7 -183.6 L-223.25 -184.9 -224.45 -186.4 -224.0 -187.15 -223.75 -188.6 -223.8 -188.8 -223.95 -189.0 -223.8 -189.4 M-211.45 -194.85 Q-211.55 -195.3 -211.9 -195.5 L-212.65 -195.65 -213.3 -195.2 -213.45 -194.45 -213.0 -193.8 -212.25 -193.65 Q-211.85 -193.75 -211.6 -194.1 -211.4 -194.45 -211.45 -194.85 M-218.65 -170.15 L-214.95 -171.3 Q-211.65 -172.25 -210.45 -173.4 L-207.95 -173.45 Q-206.65 -172.4 -206.65 -170.95 -206.65 -168.25 -208.0 -168.0 L-212.45 -167.15 Q-218.15 -164.65 -219.55 -164.6 -218.2 -167.7 -218.65 -170.15 M-218.15 -192.8 Q-218.2 -193.2 -218.75 -194.0 -218.2 -193.2 -218.15 -192.8 M-234.35 -185.5 L-232.1 -184.5 Q-231.3 -184.15 -231.0 -183.35 -230.0 -180.55 -231.5 -178.35 L-232.55 -178.3 -232.75 -178.3 -239.75 -177.75 Q-238.9 -175.8 -236.6 -168.5 -236.15 -167.3 -234.55 -165.95 L-233.2 -164.9 Q-231.0 -163.3 -231.0 -161.0 L-231.1 -160.1 -231.5 -159.1 Q-232.15 -157.7 -233.0 -157.7 L-234.4 -158.65 -235.9 -160.25 -236.35 -160.8 Q-238.45 -161.9 -241.65 -169.45 -245.35 -177.9 -245.5 -180.1 -245.7 -182.3 -241.9 -183.15 -238.15 -184.0 -237.1 -184.6 -236.05 -185.2 -234.35 -185.5" fill="#ffcc99" fill-rule="evenodd" stroke="none"/>
    <path d="M-217.25 -182.3 L-217.25 -182.25 -217.65 -182.3 -217.25 -182.3" fill="#cc3333" fill-rule="evenodd" stroke="none"/>
    <path d="M-253.15 -145.95 Q-254.45 -142.2 -257.3 -139.7 L-257.5 -139.55 Q-264.2 -140.4 -265.15 -133.5 L-267.65 -133.5 Q-268.35 -134.1 -268.35 -134.6 -268.35 -135.5 -264.2 -142.3 -259.8 -149.4 -258.35 -149.4 -257.2 -149.4 -255.7 -148.1 -254.05 -146.65 -253.4 -146.45 L-253.15 -145.95" fill="#996633" fill-rule="evenodd" stroke="none"/>
    <path d="M-218.05 -174.05 L-218.65 -170.15 Q-218.2 -167.7 -219.55 -164.6 L-219.95 -163.75 -222.4 -158.6 -222.4 -158.55 -231.1 -160.1 -231.0 -161.0 Q-231.0 -163.3 -233.2 -164.9 L-234.55 -165.95 Q-233.1 -174.0 -232.7 -177.75 L-231.5 -178.35 Q-230.0 -180.55 -231.0 -183.35 -231.3 -184.15 -232.1 -184.5 L-234.35 -185.5 -231.7 -186.0 -229.15 -186.4 -229.0 -186.4 Q-226.55 -185.25 -224.5 -183.45 -220.55 -179.95 -218.05 -174.05 M-225.5 -179.35 Q-228.25 -178.6 -231.5 -178.35 -228.25 -178.6 -225.5 -179.35" fill="#ffffff" fill-rule="evenodd" stroke="none"/>
    <path d="M-236.35 -160.8 L-235.9 -160.25 -236.4 -160.3 -236.35 -160.8" fill="#0033ff" fill-rule="evenodd" stroke="none"/>
    <path d="M-217.25 -182.25 Q-217.25 -179.7 -218.05 -174.05 -220.55 -179.95 -224.5 -183.45 -226.55 -185.25 -229.0 -186.4 L-224.8 -187.1 -224.6 -187.15 -224.0 -187.15 -224.45 -186.4 -223.25 -184.9 -221.7 -183.6 Q-219.55 -182.1 -217.65 -182.3 L-217.25 -182.25 M-222.0 -158.1 Q-219.75 -155.45 -214.6 -150.9 -207.9 -145.05 -206.0 -142.75 -203.65 -139.9 -202.95 -131.2 -202.3 -122.9 -199.9 -119.0 L-206.55 -119.0 Q-209.9 -126.75 -211.8 -130.9 -215.4 -138.9 -218.65 -141.35 -221.0 -143.05 -224.9 -145.15 L-226.05 -145.75 -230.75 -148.35 Q-234.15 -150.45 -235.65 -153.05 -234.15 -150.45 -230.75 -148.35 L-226.05 -145.75 -226.05 -145.35 Q-226.35 -140.25 -229.3 -134.7 -232.4 -128.95 -233.7 -128.95 -235.35 -128.95 -244.35 -133.3 -253.45 -137.65 -257.65 -138.8 L-257.3 -139.7 Q-254.45 -142.2 -253.15 -145.95 -239.95 -141.1 -237.25 -138.85 L-236.3 -146.2 Q-235.65 -150.1 -235.65 -153.05 -236.85 -155.1 -236.85 -157.45 L-236.4 -160.3 -235.9 -160.25 -234.4 -158.65 -233.0 -157.7 Q-232.15 -157.7 -231.5 -159.1 L-231.1 -160.1 -222.4 -158.55 -222.0 -158.1" fill="#48599d" fill-rule="evenodd" stroke="none"/>
    <path d="M-211.25 -199.05 Q-213.2 -201.9 -216.3 -202.2 -219.45 -202.5 -221.9 -200.15 -224.35 -197.8 -224.7 -194.1 -225.0 -191.55 -224.1 -189.4 L-223.8 -189.4 Q-223.15 -189.55 -222.35 -190.05 L-220.9 -190.85 -221.0 -191.05 -221.25 -192.05 Q-221.75 -194.55 -220.0 -194.85 -219.45 -195.0 -218.75 -194.0 -218.2 -193.2 -218.15 -192.8 M-218.55 -194.1 L-217.0 -198.35 -216.6 -198.6 Q-214.0 -200.05 -211.45 -198.7 L-211.0 -198.6 -211.0 -198.65 -211.25 -199.05 M-211.0 -198.6 Q-209.7 -196.5 -209.6 -193.9 L-207.7 -188.9 -210.85 -189.3 Q-211.05 -188.05 -212.5 -186.6 L-213.5 -185.75 Q-214.1 -185.35 -214.7 -185.1 -215.1 -184.9 -215.45 -184.8 L-217.0 -184.3 -217.65 -182.3 -217.25 -182.35 -217.25 -182.3 -217.25 -182.25 Q-217.25 -179.7 -218.05 -174.05 L-218.65 -170.15 -214.95 -171.3 Q-211.65 -172.25 -210.45 -173.4 L-207.95 -173.45 Q-206.65 -172.4 -206.65 -170.95 -206.65 -168.25 -208.0 -168.0 L-212.45 -167.15 Q-218.15 -164.65 -219.55 -164.6 L-219.95 -163.75 -222.4 -158.6 -222.3 -158.5 -222.0 -158.1 Q-219.75 -155.45 -214.6 -150.9 -207.9 -145.05 -206.0 -142.75 -203.65 -139.9 -202.95 -131.2 -202.3 -122.9 -199.9 -119.0 L-198.8 -119.0 M-220.95 -191.0 L-221.0 -191.05 M-220.9 -190.85 L-220.85 -190.9 -220.95 -191.0 M-217.65 -182.3 Q-219.55 -182.1 -221.7 -183.6 L-223.25 -184.9 -224.45 -186.4 -224.0 -187.15 -224.6 -187.15 -224.8 -187.1 -229.0 -186.4 M-229.15 -186.4 L-231.7 -186.0 -234.35 -185.5 -232.1 -184.5 Q-231.3 -184.15 -231.0 -183.35 -230.0 -180.55 -231.5 -178.35 -228.25 -178.6 -225.5 -179.35 M-223.95 -189.0 L-223.8 -189.4 M-223.95 -189.0 L-223.8 -188.8 -223.75 -188.6 -224.0 -187.15 M-224.1 -189.4 L-223.95 -189.0 M-224.6 -187.15 L-224.85 -187.15 -224.8 -187.1 M-234.35 -185.5 Q-236.05 -185.2 -237.1 -184.6 -238.15 -184.0 -241.9 -183.15 -245.7 -182.3 -245.5 -180.1 -245.35 -177.9 -241.65 -169.45 -238.45 -161.9 -236.35 -160.8 L-236.4 -160.3 -236.85 -157.45 Q-236.85 -155.1 -235.65 -153.05 -234.15 -150.45 -230.75 -148.35 L-226.05 -145.75 -224.9 -145.15 Q-221.0 -143.05 -218.65 -141.35 -215.4 -138.9 -211.8 -130.9 -209.9 -126.75 -206.55 -119.0 L-199.9 -119.0 -199.5 -118.35 M-235.9 -160.25 L-234.4 -158.65 -233.0 -157.7 Q-232.15 -157.7 -231.5 -159.1 L-231.1 -160.1 -231.0 -161.0 Q-231.0 -163.3 -233.2 -164.9 L-234.55 -165.95 Q-236.15 -167.3 -236.6 -168.5 -238.9 -175.8 -239.75 -177.75 L-232.75 -178.3 -232.55 -178.3 -231.5 -178.35 M-232.7 -177.75 Q-233.1 -174.0 -234.55 -165.95 M-219.55 -164.6 Q-218.2 -167.7 -218.65 -170.15 M-222.4 -158.55 L-231.1 -160.1 M-222.4 -158.55 L-222.3 -158.5 M-222.4 -158.6 L-222.4 -158.55 M-257.65 -138.8 Q-253.45 -137.65 -244.35 -133.3 -235.35 -128.95 -233.7 -128.95 -232.4 -128.95 -229.3 -134.7 -226.35 -140.25 -226.05 -145.35 L-226.05 -145.75 M-235.65 -153.05 Q-235.65 -150.1 -236.3 -146.2 L-237.25 -138.85 Q-239.95 -141.1 -253.15 -145.95 -254.45 -142.2 -257.3 -139.7 L-257.5 -139.55 Q-264.2 -140.4 -265.15 -133.5 L-267.65 -133.5 Q-268.35 -134.1 -268.35 -134.6 -268.35 -135.5 -264.2 -142.3 -259.8 -149.4 -258.35 -149.4 -257.2 -149.4 -255.7 -148.1 -254.05 -146.65 -253.4 -146.45 M-257.65 -138.8 L-257.8 -138.85 -258.25 -139.0 -257.5 -139.55 M-206.55 -119.0 L-206.2 -118.1" fill="none" stroke="#000000" stroke-linecap="round" stroke-linejoin="round" stroke-width="0.05"/>
    <path d="M-229.0 -186.4 L-229.15 -186.4" fill="none" stroke="#999999" stroke-linecap="round" stroke-linejoin="round" stroke-width="0.05"/>
    <path d="M-229.0 -186.4 Q-226.55 -185.25 -224.5 -183.45 -220.55 -179.95 -218.05 -174.05" fill="none" stroke="#333333" stroke-linecap="round" stroke-linejoin="round" stroke-width="0.05"/>
  </g>
</svg>
