<?xml version="1.0" encoding="UTF-8" standalone="no"?>
<svg xmlns:ffdec="https://www.free-decompiler.com/flash" xmlns:xlink="http://www.w3.org/1999/xlink" ffdec:objectType="shape" height="93.35px" width="46.4px" xmlns="http://www.w3.org/2000/svg">
  <g transform="matrix(1.0, 0.0, 0.0, 1.0, 254.1, 202.75)">
    <path d="M-211.25 -199.55 L-211.45 -199.2 Q-214.0 -200.55 -216.6 -199.1 L-217.0 -198.85 -218.55 -194.6 -218.75 -194.5 Q-219.45 -195.5 -220.0 -195.35 -221.75 -195.05 -221.25 -192.55 L-221.0 -191.55 -220.9 -191.35 -222.35 -190.55 Q-223.15 -190.05 -223.8 -189.9 L-224.1 -189.9 Q-225.0 -192.05 -224.7 -194.6 -224.35 -198.3 -221.9 -200.65 -219.45 -203.0 -216.3 -202.7 -213.2 -202.4 -211.25 -199.55 M-211.45 -195.35 Q-211.4 -194.95 -211.6 -194.6 -211.85 -194.25 -212.25 -194.15 L-213.0 -194.3 -213.45 -194.95 -213.3 -195.7 -212.65 -196.15 -211.9 -196.0 Q-211.55 -195.8 -211.45 -195.35" fill="#000000" fill-rule="evenodd" stroke="none"/>
    <path d="M-211.45 -199.2 L-211.0 -199.1 Q-209.7 -197.0 -209.6 -194.4 L-207.7 -189.4 -210.85 -189.8 Q-211.05 -188.55 -212.5 -187.1 L-213.5 -186.25 Q-214.1 -185.85 -214.7 -185.6 -215.1 -185.4 -215.45 -185.3 L-216.7 -184.9 -216.8 -184.75 Q-217.15 -183.9 -217.05 -182.1 -219.3 -181.75 -221.2 -182.9 L-221.7 -183.35 -224.5 -187.15 -224.25 -187.3 -224.05 -187.45 -223.75 -189.1 -223.8 -189.3 -223.95 -189.5 -223.8 -189.9 Q-223.15 -190.05 -222.35 -190.55 L-220.9 -191.35 -221.0 -191.55 -220.95 -191.5 -220.85 -191.4 -220.9 -191.35 -220.85 -191.4 -220.95 -191.5 -221.25 -192.55 Q-221.75 -195.05 -220.0 -195.35 -219.45 -195.5 -218.75 -194.5 L-218.55 -194.6 -217.0 -198.85 -216.6 -199.1 Q-214.0 -200.55 -211.45 -199.2 M-211.45 -195.35 Q-211.55 -195.8 -211.9 -196.0 L-212.65 -196.15 -213.3 -195.7 -213.45 -194.95 -213.0 -194.3 -212.25 -194.15 Q-211.85 -194.25 -211.6 -194.6 -211.4 -194.95 -211.45 -195.35 M-221.1 -163.95 L-220.25 -163.95 Q-219.1 -163.15 -215.9 -162.95 -214.0 -162.85 -214.0 -160.35 -214.0 -159.0 -214.75 -157.9 -215.5 -156.75 -216.6 -156.75 -218.1 -156.75 -219.55 -158.1 -220.8 -159.25 -222.65 -158.95 L-221.15 -163.85 -221.1 -163.95 M-218.15 -193.3 Q-218.2 -193.7 -218.75 -194.5 -218.2 -193.7 -218.15 -193.3 M-234.2 -162.8 Q-242.5 -171.25 -243.5 -174.5 -242.2 -176.45 -239.0 -178.3 L-233.85 -181.2 -231.15 -182.95 Q-227.85 -182.75 -227.85 -179.45 -227.85 -176.75 -229.15 -175.9 L-229.25 -175.9 -232.5 -174.1 -232.7 -174.0 Q-234.2 -173.25 -235.2 -172.9 L-235.45 -172.45 -233.4 -169.4 -231.25 -166.25 Q-230.45 -165.05 -228.25 -163.75 -226.25 -162.5 -225.75 -161.4 L-225.75 -158.1 -225.75 -157.5 -228.55 -157.25 -234.2 -162.8" fill="#ffcc99" fill-rule="evenodd" stroke="none"/>
    <path d="M-242.95 -139.2 Q-245.3 -140.0 -247.4 -137.9 -250.45 -134.9 -252.0 -134.9 -254.1 -134.9 -254.1 -136.45 L-249.65 -142.35 Q-245.15 -148.25 -244.65 -148.25 -243.95 -148.25 -242.25 -146.45 L-240.2 -144.15 -242.95 -139.2" fill="#996633" fill-rule="evenodd" stroke="none"/>
    <path d="M-217.35 -173.15 L-217.35 -172.9 -217.45 -172.35 -217.5 -172.15 Q-217.9 -170.4 -218.5 -169.45 -219.85 -167.4 -221.1 -163.95 L-221.15 -163.85 -222.65 -158.95 -223.25 -156.75 -223.55 -156.95 -225.75 -158.1 -225.75 -161.4 Q-226.25 -162.5 -228.25 -163.75 -230.45 -165.05 -231.25 -166.25 L-233.4 -169.4 Q-232.7 -172.65 -232.7 -174.0 L-232.5 -174.1 -229.25 -175.9 -229.15 -175.9 Q-227.85 -176.75 -227.85 -179.45 -227.85 -182.75 -231.15 -182.95 L-227.75 -185.1 -227.15 -185.5 -227.1 -185.45 -223.1 -182.05 Q-219.35 -178.25 -217.35 -173.15 M-224.15 -179.1 Q-225.0 -177.9 -229.15 -175.9 -225.0 -177.9 -224.15 -179.1" fill="#ffffff" fill-rule="evenodd" stroke="none"/>
    <path d="M-227.0 -185.6 L-227.1 -185.45 -227.15 -185.5 -227.0 -185.6" fill="#0033ff" fill-rule="evenodd" stroke="none"/>
    <path d="M-217.05 -182.1 L-217.0 -178.75 Q-217.0 -175.4 -217.35 -173.15 -219.35 -178.25 -223.1 -182.05 L-227.1 -185.45 -227.0 -185.6 -224.5 -187.15 -221.7 -183.35 -221.2 -182.9 Q-219.3 -181.75 -217.05 -182.1 M-223.35 -156.2 L-223.15 -155.85 -218.3 -148.85 Q-213.35 -141.4 -213.35 -138.85 -213.35 -133.95 -214.65 -128.25 -215.8 -123.2 -215.4 -111.7 L-223.0 -110.85 -223.0 -117.9 Q-222.35 -119.5 -222.35 -127.1 L-222.4 -132.4 -222.55 -134.5 Q-223.15 -138.95 -225.75 -141.6 -231.8 -147.65 -234.4 -151.35 -231.8 -147.65 -225.75 -141.6 -223.15 -138.95 -222.55 -134.5 L-222.4 -132.4 Q-222.75 -131.6 -224.15 -130.75 -225.6 -129.85 -226.45 -129.85 L-233.6 -133.75 -237.25 -135.4 Q-242.7 -137.25 -243.95 -137.25 L-242.95 -139.2 -240.2 -144.15 -239.85 -144.8 Q-236.35 -144.0 -231.1 -139.35 -233.3 -146.55 -234.4 -151.35 L-234.6 -151.65 Q-236.35 -154.2 -236.35 -155.6 -236.35 -156.65 -235.6 -159.15 L-234.2 -162.8 -228.55 -157.25 -225.75 -157.5 -225.75 -158.1 -223.55 -156.95 Q-223.65 -156.6 -223.35 -156.2 M-242.25 -138.9 L-242.95 -139.2 -242.25 -138.9" fill="#48599d" fill-rule="evenodd" stroke="none"/>
    <path d="M-215.4 -111.7 L-214.0 -111.85 M-223.0 -110.85 L-215.4 -111.7 M-223.0 -110.85 L-224.35 -110.7" fill="none" stroke="#000000" stroke-linecap="round" stroke-linejoin="round" stroke-width="0.05"/>
    <path d="M-211.45 -199.2 L-211.0 -199.1 -211.0 -199.15 -211.25 -199.55 Q-213.2 -202.4 -216.3 -202.7 -219.45 -203.0 -221.9 -200.65 -224.35 -198.3 -224.7 -194.6 -225.0 -192.05 -224.1 -189.9 L-223.8 -189.9 Q-223.15 -190.05 -222.35 -190.55 L-220.9 -191.35 -221.0 -191.55 -221.25 -192.55 Q-221.75 -195.05 -220.0 -195.35 -219.45 -195.5 -218.75 -194.5 -218.2 -193.7 -218.15 -193.3 M-218.55 -194.6 L-217.0 -198.85 -216.6 -199.1 Q-214.0 -200.55 -211.45 -199.2 M-211.0 -199.1 Q-209.7 -197.0 -209.6 -194.4 L-207.7 -189.4 -210.85 -189.8 Q-211.05 -188.55 -212.5 -187.1 L-213.5 -186.25 Q-214.1 -185.85 -214.7 -185.6 -215.1 -185.4 -215.45 -185.3 L-216.7 -184.9 -216.8 -184.75 Q-217.15 -183.9 -217.05 -182.1 L-217.0 -178.75 Q-217.0 -175.4 -217.35 -173.15 L-217.35 -172.9 -217.45 -172.35 M-217.5 -172.15 Q-217.9 -170.4 -218.5 -169.45 -219.85 -167.4 -221.1 -163.95 L-220.25 -163.95 Q-219.1 -163.15 -215.9 -162.95 -214.0 -162.85 -214.0 -160.35 -214.0 -159.0 -214.75 -157.9 -215.5 -156.75 -216.6 -156.75 -218.1 -156.75 -219.55 -158.1 -220.8 -159.25 -222.65 -158.95 L-223.25 -156.75 -223.35 -156.2 -223.15 -155.85 -218.3 -148.85 Q-213.35 -141.4 -213.35 -138.85 -213.35 -133.95 -214.65 -128.25 -215.8 -123.2 -215.4 -111.7 M-220.95 -191.5 L-221.0 -191.55 M-220.9 -191.35 L-220.85 -191.4 -220.95 -191.5 M-217.05 -182.1 Q-219.3 -181.75 -221.2 -182.9 L-221.7 -183.35 -224.5 -187.15 -227.0 -185.6 -227.15 -185.5 -227.75 -185.1 -231.15 -182.95 Q-227.85 -182.75 -227.85 -179.45 -227.85 -176.75 -229.15 -175.9 -225.0 -177.9 -224.15 -179.1 M-224.5 -187.15 L-224.25 -187.3 -224.05 -187.45 -223.75 -189.1 -223.8 -189.3 -223.95 -189.5 -224.1 -189.9 M-223.95 -189.5 L-223.8 -189.9 M-234.2 -162.8 Q-242.5 -171.25 -243.5 -174.5 -242.2 -176.45 -239.0 -178.3 L-233.85 -181.2 -231.15 -182.95 M-229.15 -175.9 L-229.25 -175.9 -232.5 -174.1 -232.7 -174.0 Q-232.7 -172.65 -233.4 -169.4 L-231.25 -166.25 Q-230.45 -165.05 -228.25 -163.75 -226.25 -162.5 -225.75 -161.4 L-225.75 -158.1 -223.55 -156.95 -223.25 -156.75 M-235.45 -172.45 L-233.4 -169.4 M-234.2 -162.8 L-235.6 -159.15 Q-236.35 -156.65 -236.35 -155.6 -236.35 -154.2 -234.6 -151.65 L-234.4 -151.35 Q-231.8 -147.65 -225.75 -141.6 -223.15 -138.95 -222.55 -134.5 L-222.4 -132.4 -222.35 -127.1 Q-222.35 -119.5 -223.0 -117.9 L-223.0 -110.85 -223.0 -109.4 M-225.75 -158.1 L-225.75 -157.5 -228.55 -157.25 -234.2 -162.8 M-223.55 -156.95 Q-223.65 -156.6 -223.35 -156.2 M-221.1 -163.95 L-221.15 -163.85 -222.65 -158.95 M-232.7 -174.0 Q-234.2 -173.25 -235.2 -172.9 M-242.95 -139.2 Q-245.3 -140.0 -247.4 -137.9 -250.45 -134.9 -252.0 -134.9 -254.1 -134.9 -254.1 -136.45 L-249.65 -142.35 Q-245.15 -148.25 -244.65 -148.25 -243.95 -148.25 -242.25 -146.45 L-240.2 -144.15 -239.85 -144.8 Q-236.35 -144.0 -231.1 -139.35 -233.3 -146.55 -234.4 -151.35 M-240.2 -144.15 L-242.95 -139.2 -242.25 -138.9 M-242.95 -139.2 L-243.95 -137.25 Q-242.7 -137.25 -237.25 -135.4 L-233.6 -133.75 -226.45 -129.85 Q-225.6 -129.85 -224.15 -130.75 -222.75 -131.6 -222.4 -132.4" fill="none" stroke="#000000" stroke-linecap="round" stroke-linejoin="round" stroke-width="0.05"/>
    <path d="M-217.45 -172.35 L-217.5 -172.15 M-227.75 -185.1 L-228.55 -185.6 M-227.15 -185.5 L-227.75 -185.9" fill="none" stroke="#999999" stroke-linecap="round" stroke-linejoin="round" stroke-width="0.05"/>
    <path d="M-227.1 -185.45 L-223.1 -182.05 Q-219.35 -178.25 -217.35 -173.15 M-227.15 -185.5 L-227.1 -185.45" fill="none" stroke="#333333" stroke-linecap="round" stroke-linejoin="round" stroke-width="0.05"/>
  </g>
</svg>
