<?xml version="1.0" encoding="UTF-8" standalone="no"?>
<svg xmlns:ffdec="https://www.free-decompiler.com/flash" xmlns:xlink="http://www.w3.org/1999/xlink" ffdec:objectType="shape" height="92.25px" width="34.2px" xmlns="http://www.w3.org/2000/svg">
  <g transform="matrix(1.0, 0.0, 0.0, 1.0, 241.65, 203.25)">
    <path d="M-223.85 -190.4 Q-224.75 -192.55 -224.45 -195.1 -224.1 -198.8 -221.65 -201.15 -219.2 -203.5 -216.05 -203.2 -212.95 -202.9 -211.0 -200.05 L-211.2 -199.7 Q-213.75 -201.05 -216.35 -199.6 L-216.75 -199.35 -218.3 -195.1 -218.5 -195.0 Q-219.2 -196.0 -219.75 -195.85 -221.5 -195.55 -221.0 -193.05 L-220.75 -192.05 -220.65 -191.85 -222.1 -191.05 Q-222.9 -190.55 -223.55 -190.4 L-223.85 -190.4 M-211.65 -196.5 L-211.2 -195.85 Q-211.15 -195.45 -211.35 -195.1 L-212.0 -194.65 -212.75 -194.8 -213.2 -195.45 -213.05 -196.2 -212.4 -196.65 -211.65 -196.5" fill="#000000" fill-rule="evenodd" stroke="none"/>
    <path d="M-210.75 -199.6 Q-209.45 -197.5 -209.35 -194.9 L-207.45 -189.9 -210.6 -190.3 Q-210.8 -189.05 -212.25 -187.6 L-213.25 -186.75 Q-213.85 -186.35 -214.45 -186.1 -214.85 -185.9 -215.2 -185.8 L-216.75 -185.3 -217.5 -185.1 -217.55 -184.65 -217.55 -184.6 Q-221.7 -185.45 -222.35 -185.95 -223.4 -186.6 -223.6 -187.9 L-223.65 -188.0 -223.7 -188.5 -223.5 -189.6 -223.55 -189.8 -223.7 -190.0 -223.55 -190.4 Q-222.9 -190.55 -222.1 -191.05 L-220.65 -191.85 -220.75 -192.05 -220.7 -192.0 -220.6 -191.9 -220.65 -191.85 -220.6 -191.9 -220.7 -192.0 -221.0 -193.05 Q-221.5 -195.55 -219.75 -195.85 -219.2 -196.0 -218.5 -195.0 L-218.3 -195.1 -216.75 -199.35 -216.35 -199.6 Q-213.75 -201.05 -211.2 -199.7 L-210.75 -199.6 M-219.8 -165.1 Q-217.15 -163.0 -212.55 -163.0 -208.0 -163.0 -209.15 -160.1 -210.3 -157.25 -213.45 -157.95 -216.6 -158.65 -220.0 -160.0 L-220.0 -159.75 -223.25 -159.5 -226.9 -159.25 Q-230.95 -159.25 -235.2 -162.1 L-236.35 -162.95 Q-240.95 -166.5 -240.95 -169.2 -240.95 -172.45 -232.2 -180.25 -231.6 -180.75 -230.7 -181.6 -229.6 -181.25 -228.3 -179.7 -226.95 -178.05 -226.95 -176.95 -226.95 -176.0 -227.3 -175.15 L-228.75 -173.35 Q-229.8 -170.95 -234.9 -167.8 -227.15 -162.5 -226.45 -162.5 -225.95 -162.5 -223.0 -164.4 -222.05 -164.4 -220.75 -162.6 L-220.65 -162.45 -220.0 -161.4 -220.0 -160.0 -220.0 -161.4 -220.65 -162.45 -220.75 -162.6 -219.8 -165.1 M-217.9 -193.8 L-218.5 -195.0 -217.9 -193.8 M-211.65 -196.5 L-212.4 -196.65 -213.05 -196.2 -213.2 -195.45 -212.75 -194.8 -212.0 -194.65 -211.35 -195.1 Q-211.15 -195.45 -211.2 -195.85 L-211.65 -196.5" fill="#ffcc99" fill-rule="evenodd" stroke="none"/>
    <path d="M-235.45 -158.4 L-235.65 -158.4 -235.45 -158.4" fill="#669999" fill-rule="evenodd" stroke="none"/>
    <path d="M-229.75 -116.95 Q-228.6 -114.95 -225.85 -113.35 -223.55 -112.05 -221.85 -111.7 -223.25 -111.0 -228.25 -111.0 -238.9 -111.0 -238.9 -114.3 -238.9 -115.25 -238.45 -115.8 -238.15 -116.2 -238.05 -116.95 L-229.75 -116.95 M-235.65 -136.8 L-236.85 -136.75 Q-237.3 -136.05 -238.05 -132.55 -238.6 -130.0 -240.5 -129.15 -241.65 -135.45 -241.65 -141.5 -241.65 -145.0 -238.5 -145.0 L-235.85 -144.35 -235.65 -144.4 -235.65 -136.8" fill="#996633" fill-rule="evenodd" stroke="none"/>
    <path d="M-218.2 -175.3 L-218.35 -173.6 -218.5 -175.2 -218.2 -175.3" fill="#cc99ff" fill-rule="evenodd" stroke="none"/>
    <path d="M-218.35 -173.6 Q-218.7 -168.65 -219.8 -165.1 L-220.75 -162.6 Q-222.05 -164.4 -223.0 -164.4 -225.95 -162.5 -226.45 -162.5 -227.15 -162.5 -234.9 -167.8 -229.8 -170.95 -228.75 -173.35 L-227.3 -175.15 Q-226.95 -176.0 -226.95 -176.95 -226.95 -178.05 -228.3 -179.7 -229.6 -181.25 -230.7 -181.6 L-227.2 -185.15 -227.05 -185.25 Q-219.3 -182.3 -218.5 -175.2 L-218.35 -173.6 M-223.7 -178.9 L-227.3 -175.15 -223.7 -178.9" fill="#ffffff" fill-rule="evenodd" stroke="none"/>
    <path d="M-224.0 -187.8 L-223.8 -187.9 -223.65 -188.0 -223.6 -187.9 -224.0 -187.8" fill="#0033ff" fill-rule="evenodd" stroke="none"/>
    <path d="M-217.55 -184.6 L-218.2 -175.3 -218.5 -175.2 Q-219.3 -182.3 -227.05 -185.25 L-224.0 -187.8 -223.6 -187.9 Q-223.4 -186.6 -222.35 -185.95 -221.7 -185.45 -217.55 -184.6 M-223.25 -159.5 L-214.85 -147.9 Q-207.6 -137.6 -207.6 -134.8 -207.6 -134.2 -208.0 -133.25 L-210.15 -133.1 Q-212.9 -133.1 -219.2 -134.65 L-219.9 -134.85 -219.2 -134.6 Q-220.05 -130.7 -224.55 -125.3 -229.25 -119.6 -229.7 -117.0 L-229.75 -116.95 -238.05 -116.95 -238.0 -117.9 -238.4 -118.25 Q-236.15 -121.0 -234.0 -125.95 -230.9 -133.35 -229.45 -135.6 L-229.3 -136.6 -229.4 -136.6 -231.5 -136.75 -235.0 -136.75 -235.65 -136.8 -235.65 -144.4 Q-234.25 -144.6 -232.4 -144.4 L-233.75 -147.15 -235.65 -153.1 -235.65 -158.4 -235.45 -158.4 -235.25 -161.1 -235.2 -162.1 Q-230.95 -159.25 -226.9 -159.25 L-223.25 -159.5 M-232.4 -144.4 L-229.9 -143.95 -222.1 -142.25 Q-235.45 -152.0 -235.45 -158.4 -235.45 -152.0 -222.1 -142.25 L-229.9 -143.95 -232.4 -144.4 M-230.15 -117.65 L-229.75 -116.95 -230.15 -117.65 M-219.9 -134.85 Q-225.35 -136.2 -229.3 -136.6 -225.35 -136.2 -219.9 -134.85" fill="#48599d" fill-rule="evenodd" stroke="none"/>
    <path d="M-211.0 -200.05 L-210.75 -199.65 -210.75 -199.6 Q-209.45 -197.5 -209.35 -194.9 L-207.45 -189.9 -210.6 -190.3 Q-210.8 -189.05 -212.25 -187.6 L-213.25 -186.75 Q-213.85 -186.35 -214.45 -186.1 -214.85 -185.9 -215.2 -185.8 L-216.75 -185.3 M-217.5 -185.1 L-217.55 -184.65 -217.55 -184.6 -218.2 -175.3 -218.35 -173.6 Q-218.7 -168.65 -219.8 -165.1 -217.15 -163.0 -212.55 -163.0 -208.0 -163.0 -209.15 -160.1 -210.3 -157.25 -213.45 -157.95 -216.6 -158.65 -220.0 -160.0 L-220.0 -159.75 -223.25 -159.5 -214.85 -147.9 Q-207.6 -137.6 -207.6 -134.8 -207.6 -134.2 -208.0 -133.25 L-210.15 -133.1 Q-212.9 -133.1 -219.2 -134.65 L-219.2 -134.6 Q-220.05 -130.7 -224.55 -125.3 -229.25 -119.6 -229.7 -117.0 L-229.7 -116.95 -229.75 -116.95 Q-228.6 -114.95 -225.85 -113.35 -223.55 -112.05 -221.85 -111.7 -223.25 -111.0 -228.25 -111.0 -238.9 -111.0 -238.9 -114.3 -238.9 -115.25 -238.45 -115.8 -238.15 -116.2 -238.05 -116.95 L-239.6 -116.95 -238.9 -117.65 -238.4 -118.25 Q-236.15 -121.0 -234.0 -125.95 -230.9 -133.35 -229.45 -135.6 M-229.3 -136.6 L-229.4 -136.6 -231.5 -136.75 -235.0 -136.75 -235.65 -136.75 -235.65 -136.8 -236.85 -136.75 Q-237.3 -136.05 -238.05 -132.55 -238.6 -130.0 -240.5 -129.15 -241.65 -135.45 -241.65 -141.5 -241.65 -145.0 -238.5 -145.0 L-235.85 -144.35 -235.65 -144.4 Q-234.25 -144.6 -232.4 -144.4 L-233.75 -147.15 -235.65 -153.1 -235.65 -158.4 -235.25 -161.1 -235.2 -162.1 -236.35 -162.95 Q-240.95 -166.5 -240.95 -169.2 -240.95 -172.45 -232.2 -180.25 -231.6 -180.75 -230.7 -181.6 L-227.2 -185.15 -227.05 -185.25 -224.0 -187.8 -223.8 -187.9 -223.7 -188.5 -223.5 -189.6 -223.55 -189.8 -223.7 -190.0 -223.85 -190.4 Q-224.75 -192.55 -224.45 -195.1 -224.1 -198.8 -221.65 -201.15 -219.2 -203.5 -216.05 -203.2 -212.95 -202.9 -211.0 -200.05 M-211.2 -199.7 L-210.75 -199.6 M-211.2 -199.7 Q-213.75 -201.05 -216.35 -199.6 L-216.75 -199.35 -218.3 -195.1 M-218.5 -195.0 L-217.9 -193.8 M-221.0 -193.05 Q-221.5 -195.55 -219.75 -195.85 -219.2 -196.0 -218.5 -195.0 M-220.7 -192.0 L-220.75 -192.05 -220.65 -191.85 -220.6 -191.9 -220.7 -192.0 M-221.0 -193.05 L-220.75 -192.05 M-223.55 -190.4 Q-222.9 -190.55 -222.1 -191.05 L-220.65 -191.85 M-217.55 -184.6 Q-221.7 -185.45 -222.35 -185.95 -223.4 -186.6 -223.6 -187.9 L-223.65 -188.0 -223.7 -188.5 M-223.85 -190.4 L-223.55 -190.4 -223.7 -190.0 M-223.8 -187.9 L-223.65 -188.0 M-220.75 -162.6 Q-222.05 -164.4 -223.0 -164.4 -225.95 -162.5 -226.45 -162.5 -227.15 -162.5 -234.9 -167.8 -229.8 -170.95 -228.75 -173.35 L-227.3 -175.15 Q-226.95 -176.0 -226.95 -176.95 -226.95 -178.05 -228.3 -179.7 -229.6 -181.25 -230.7 -181.6 M-227.3 -175.15 L-223.7 -178.9 M-235.2 -162.1 Q-230.95 -159.25 -226.9 -159.25 L-223.25 -159.5 M-235.25 -161.1 L-235.45 -158.4 Q-235.45 -152.0 -222.1 -142.25 L-229.9 -143.95 -232.4 -144.4 M-220.0 -160.0 L-220.0 -161.4 -220.65 -162.45 -220.75 -162.6 -219.8 -165.1 M-219.9 -134.85 L-219.2 -134.65 M-235.65 -136.8 L-235.0 -136.75 M-235.65 -144.4 L-235.65 -136.8 M-229.75 -116.95 L-230.15 -117.65 M-229.75 -116.95 L-238.05 -116.95 -238.0 -117.9 M-229.3 -136.6 Q-225.35 -136.2 -219.9 -134.85" fill="none" stroke="#000000" stroke-linecap="round" stroke-linejoin="round" stroke-width="0.05"/>
    <path d="M-218.5 -175.2 Q-219.3 -182.3 -227.05 -185.25" fill="none" stroke="#333333" stroke-linecap="round" stroke-linejoin="round" stroke-width="0.05"/>
  </g>
</svg>
