<?xml version="1.0" encoding="UTF-8" standalone="no"?>
<svg xmlns:ffdec="https://www.free-decompiler.com/flash" xmlns:xlink="http://www.w3.org/1999/xlink" ffdec:objectType="shape" height="93.35px" width="60.5px" xmlns="http://www.w3.org/2000/svg">
  <g transform="matrix(1.0, 0.0, 0.0, 1.0, 259.6, 204.75)">
    <path d="M-224.35 -191.9 Q-225.25 -194.05 -224.95 -196.6 -224.6 -200.3 -222.15 -202.65 -219.7 -205.0 -216.55 -204.7 -213.45 -204.4 -211.5 -201.55 L-211.7 -201.2 Q-214.25 -202.55 -216.85 -201.1 L-217.25 -200.85 -218.8 -196.6 -219.0 -196.5 Q-219.7 -197.5 -220.25 -197.35 -222.0 -197.05 -221.5 -194.55 L-221.25 -193.55 -221.15 -193.35 -222.6 -192.55 Q-223.4 -192.05 -224.05 -191.9 L-224.35 -191.9 M-212.15 -198.0 L-211.7 -197.35 Q-211.65 -196.95 -211.85 -196.6 -212.1 -196.25 -212.5 -196.15 L-213.25 -196.3 -213.7 -196.95 -213.55 -197.7 -212.9 -198.15 -212.15 -198.0" fill="#000000" fill-rule="evenodd" stroke="none"/>
    <path d="M-211.25 -201.1 Q-209.95 -199.0 -209.85 -196.4 L-207.95 -191.4 -211.1 -191.8 Q-211.3 -190.55 -212.75 -189.1 L-213.75 -188.25 -214.9 -187.6 -214.95 -187.6 -214.95 -187.55 -215.7 -187.3 -217.25 -186.8 -217.5 -186.9 -218.15 -185.5 Q-222.15 -185.85 -224.35 -189.15 L-224.0 -191.1 -224.05 -191.3 -224.2 -191.5 -224.05 -191.9 Q-223.4 -192.05 -222.6 -192.55 L-221.15 -193.35 -221.1 -193.4 -221.2 -193.5 -221.1 -193.4 -221.15 -193.35 -221.25 -193.55 -221.2 -193.5 -221.5 -194.55 Q-222.0 -197.05 -220.25 -197.35 -219.7 -197.5 -219.0 -196.5 L-218.8 -196.6 -217.25 -200.85 -216.85 -201.1 Q-214.25 -202.55 -211.7 -201.2 L-211.25 -201.1 M-218.35 -169.7 Q-216.9 -169.75 -213.7 -171.05 -210.55 -172.4 -209.4 -173.35 L-207.5 -175.4 Q-206.7 -176.45 -205.5 -176.5 -204.3 -176.6 -203.0 -175.65 -201.6 -174.65 -202.3 -172.95 -203.0 -171.3 -206.2 -169.85 L-211.1 -167.65 -213.85 -166.5 -216.3 -165.15 Q-217.8 -164.15 -219.3 -164.05 -218.4 -167.35 -218.35 -169.7 M-233.7 -166.0 L-233.85 -166.25 Q-234.15 -166.85 -236.25 -167.85 -238.55 -168.95 -239.35 -169.9 L-243.2 -174.7 Q-244.65 -177.1 -244.7 -178.6 -244.75 -180.1 -240.85 -181.7 L-234.75 -184.2 -231.05 -185.65 -229.9 -184.4 Q-227.75 -182.2 -228.95 -179.25 -230.75 -178.1 -232.75 -177.5 -235.5 -176.7 -238.65 -177.0 L-238.65 -176.6 Q-238.5 -174.85 -233.85 -170.35 L-233.35 -170.0 Q-232.35 -169.55 -229.9 -169.2 -228.1 -167.9 -228.1 -165.75 -228.1 -163.0 -230.15 -163.0 -230.7 -163.0 -232.15 -164.4 L-232.9 -165.1 -233.7 -166.0 M-218.4 -195.3 L-219.0 -196.5 -218.4 -195.3 M-212.15 -198.0 L-212.9 -198.15 -213.55 -197.7 -213.7 -196.95 -213.25 -196.3 -212.5 -196.15 Q-212.1 -196.25 -211.85 -196.6 -211.65 -196.95 -211.7 -197.35 L-212.15 -198.0" fill="#ffcc99" fill-rule="evenodd" stroke="none"/>
    <path d="M-221.4 -132.2 L-221.4 -128.5 -219.75 -126.65 -219.75 -124.5 Q-222.05 -124.95 -225.4 -127.9 -228.75 -130.9 -228.75 -132.5 -228.75 -133.35 -228.05 -133.8 -227.15 -134.35 -226.85 -134.7 -226.15 -135.05 -225.05 -135.75 L-222.2 -132.9 -221.4 -132.2 M-251.4 -117.95 L-251.5 -116.0 -248.1 -114.75 Q-244.9 -113.4 -244.9 -112.6 -244.9 -111.55 -245.5 -111.4 L-247.25 -111.45 Q-249.9 -111.45 -253.45 -112.95 L-259.6 -115.8 -256.6 -120.15 -256.55 -120.1 Q-253.7 -118.55 -251.4 -117.95" fill="#996633" fill-rule="evenodd" stroke="none"/>
    <path d="M-217.8 -174.4 L-217.7 -174.0 -217.85 -173.85 -218.35 -169.7 Q-218.4 -167.35 -219.3 -164.05 L-220.75 -159.75 -220.9 -159.05 -221.35 -159.0 -225.1 -158.85 Q-230.5 -158.85 -234.95 -160.25 -234.75 -160.35 -234.85 -160.5 -233.95 -163.55 -233.7 -166.0 L-232.9 -165.1 -232.15 -164.4 Q-230.7 -163.0 -230.15 -163.0 -228.1 -163.0 -228.1 -165.75 -228.1 -167.9 -229.9 -169.2 -232.35 -169.55 -233.35 -170.0 L-232.75 -177.5 Q-230.75 -178.1 -228.95 -179.25 -227.75 -182.2 -229.9 -184.4 L-231.05 -185.65 Q-229.45 -186.2 -227.8 -187.15 L-227.55 -186.75 Q-219.65 -182.45 -218.45 -177.4 L-217.8 -174.4 -217.85 -173.85 -217.8 -174.4" fill="#ffffff" fill-rule="evenodd" stroke="none"/>
    <path d="M-225.7 -148.2 L-225.75 -148.1 -226.0 -148.25 -225.7 -148.2 M-235.15 -160.4 L-235.05 -160.6 -234.85 -160.5 Q-234.75 -160.35 -234.95 -160.25 L-235.15 -160.4 M-256.9 -120.5 L-256.55 -120.1 -256.9 -120.5" fill="#0033ff" fill-rule="evenodd" stroke="none"/>
    <path d="M-235.15 -160.35 L-235.15 -160.4 -234.95 -160.25 -235.15 -160.35" fill="#37457b" fill-rule="evenodd" stroke="none"/>
    <path d="M-217.95 -185.05 Q-216.75 -184.2 -217.45 -177.45 L-217.45 -177.3 -217.8 -174.4 -218.45 -177.4 Q-219.65 -182.45 -227.55 -186.75 L-227.8 -187.15 -227.15 -187.55 -224.55 -189.4 -224.35 -189.15 Q-222.15 -185.85 -218.15 -185.5 L-217.95 -185.05 M-220.85 -159.05 Q-216.6 -157.5 -210.25 -153.6 L-199.1 -146.65 Q-203.4 -142.15 -207.85 -139.15 -210.9 -137.15 -220.75 -131.65 L-221.4 -132.2 -222.2 -132.9 -225.05 -135.75 Q-223.0 -137.05 -219.65 -139.65 -213.8 -144.2 -211.55 -145.45 L-211.5 -145.5 -211.75 -145.75 -225.7 -148.2 -226.0 -148.25 -234.5 -149.75 Q-235.9 -150.2 -236.65 -151.2 L-236.8 -151.35 Q-237.5 -152.4 -237.5 -154.0 -237.5 -155.4 -236.5 -157.7 L-235.15 -160.35 -234.95 -160.25 Q-230.5 -158.85 -225.1 -158.85 L-221.35 -159.0 -220.9 -159.05 -220.85 -159.05 M-225.75 -148.1 Q-226.85 -146.5 -227.6 -143.95 L-228.75 -139.75 Q-229.25 -138.15 -231.5 -135.6 L-234.5 -132.4 -240.9 -124.55 Q-244.8 -120.1 -249.25 -117.65 L-251.3 -117.95 -251.4 -117.95 Q-253.7 -118.55 -256.55 -120.1 L-256.9 -120.5 Q-255.25 -121.7 -251.15 -126.15 -246.25 -131.45 -243.5 -133.75 -242.65 -134.45 -241.35 -137.9 L-239.75 -142.5 Q-237.15 -149.35 -236.65 -151.2 -235.9 -150.2 -234.5 -149.75 L-226.0 -148.25 -225.75 -148.1" fill="#48599d" fill-rule="evenodd" stroke="none"/>
    <path d="M-211.5 -201.55 L-211.25 -201.15 -211.25 -201.1 Q-209.95 -199.0 -209.85 -196.4 L-207.95 -191.4 -211.1 -191.8 Q-211.3 -190.55 -212.75 -189.1 L-213.75 -188.25 -214.9 -187.6 -214.95 -187.6 -214.95 -187.55 -215.7 -187.3 -217.25 -186.8 M-217.5 -186.9 L-218.15 -185.5 -217.95 -185.5 -217.95 -185.05 Q-216.75 -184.2 -217.45 -177.45 L-217.45 -177.3 -217.8 -174.4 -217.85 -173.85 -218.35 -169.7 Q-216.9 -169.75 -213.7 -171.05 -210.55 -172.4 -209.4 -173.35 L-207.5 -175.4 Q-206.7 -176.45 -205.5 -176.5 -204.3 -176.6 -203.0 -175.65 -201.6 -174.65 -202.3 -172.95 -203.0 -171.3 -206.2 -169.85 L-211.1 -167.65 -213.85 -166.5 -216.3 -165.15 Q-217.8 -164.15 -219.3 -164.05 L-220.75 -159.75 -220.7 -159.1 -220.85 -159.05 Q-216.6 -157.5 -210.25 -153.6 L-199.1 -146.65 Q-203.4 -142.15 -207.85 -139.15 -210.9 -137.15 -220.75 -131.65 L-221.4 -132.2 -221.4 -128.5 -219.75 -126.65 -219.75 -124.5 Q-222.05 -124.95 -225.4 -127.9 -228.75 -130.9 -228.75 -132.5 -228.75 -133.35 -228.05 -133.8 -227.15 -134.35 -226.85 -134.7 -226.15 -135.05 -225.05 -135.75 -223.0 -137.05 -219.65 -139.65 -213.8 -144.2 -211.55 -145.45 L-211.5 -145.5 -211.75 -145.75 -225.7 -148.2 -225.75 -148.1 Q-226.85 -146.5 -227.6 -143.95 L-228.75 -139.75 Q-229.25 -138.15 -231.5 -135.6 L-234.5 -132.4 -240.9 -124.55 Q-244.8 -120.1 -249.25 -117.65 L-251.3 -117.95 -251.4 -117.95 -251.5 -116.0 -248.1 -114.75 Q-244.9 -113.4 -244.9 -112.6 -244.9 -111.55 -245.5 -111.4 L-247.25 -111.45 Q-249.9 -111.45 -253.45 -112.95 L-259.6 -115.8 -256.6 -120.15 -257.1 -120.4 -256.9 -120.5 Q-255.25 -121.7 -251.15 -126.15 -246.25 -131.45 -243.5 -133.75 -242.65 -134.45 -241.35 -137.9 L-239.75 -142.5 Q-237.15 -149.35 -236.65 -151.2 L-236.8 -151.35 Q-237.5 -152.4 -237.5 -154.0 -237.5 -155.4 -236.5 -157.7 L-235.15 -160.35 -235.15 -160.4 -235.05 -160.6 -234.85 -160.5 Q-233.95 -163.55 -233.7 -166.0 L-233.85 -166.25 Q-234.15 -166.85 -236.25 -167.85 -238.55 -168.95 -239.35 -169.9 L-243.2 -174.7 Q-244.65 -177.1 -244.7 -178.6 -244.75 -180.1 -240.85 -181.7 L-234.75 -184.2 -231.05 -185.65 Q-229.45 -186.2 -227.8 -187.15 L-227.15 -187.55 -224.55 -189.4 -224.55 -189.45 -224.35 -189.15 -224.0 -191.1 -224.05 -191.3 -224.2 -191.5 -224.35 -191.9 Q-225.25 -194.05 -224.95 -196.6 -224.6 -200.3 -222.15 -202.65 -219.7 -205.0 -216.55 -204.7 -213.45 -204.4 -211.5 -201.55 M-211.7 -201.2 L-211.25 -201.1 M-211.7 -201.2 Q-214.25 -202.55 -216.85 -201.1 L-217.25 -200.85 -218.8 -196.6 M-219.0 -196.5 L-218.4 -195.3 M-221.2 -193.5 L-221.1 -193.4 -221.15 -193.35 -222.6 -192.55 Q-223.4 -192.05 -224.05 -191.9 L-224.2 -191.5 M-221.2 -193.5 L-221.25 -193.55 -221.15 -193.35 M-221.25 -193.55 L-221.5 -194.55 Q-222.0 -197.05 -220.25 -197.35 -219.7 -197.5 -219.0 -196.5 M-217.95 -185.05 L-218.15 -185.5 Q-222.15 -185.85 -224.35 -189.15 M-224.35 -191.9 L-224.05 -191.9 M-232.75 -177.5 Q-235.5 -176.7 -238.65 -177.0 L-238.65 -176.6 Q-238.5 -174.85 -233.85 -170.35 L-233.35 -170.0 -232.75 -177.5 Q-230.75 -178.1 -228.95 -179.25 -227.75 -182.2 -229.9 -184.4 L-231.05 -185.65 M-233.35 -170.0 Q-232.35 -169.55 -229.9 -169.2 -228.1 -167.9 -228.1 -165.75 -228.1 -163.0 -230.15 -163.0 -230.7 -163.0 -232.15 -164.4 L-232.9 -165.1 -233.7 -166.0 M-234.85 -160.5 Q-234.75 -160.35 -234.95 -160.25 -230.5 -158.85 -225.1 -158.85 L-221.35 -159.0 -220.9 -159.05 -220.75 -159.75 M-226.0 -148.25 L-234.5 -149.75 Q-235.9 -150.2 -236.65 -151.2 M-219.3 -164.05 Q-218.4 -167.35 -218.35 -169.7 M-221.35 -159.0 L-220.9 -159.05 -220.85 -159.05 -220.9 -159.05 M-221.4 -132.2 L-222.2 -132.9 -225.05 -135.75 M-225.7 -148.2 L-226.0 -148.25 M-256.55 -120.1 Q-253.7 -118.55 -251.4 -117.95 M-256.6 -120.15 L-256.55 -120.1" fill="none" stroke="#000000" stroke-linecap="round" stroke-linejoin="round" stroke-width="0.05"/>
    <path d="M-217.8 -174.4 L-218.45 -177.4 Q-219.65 -182.45 -227.55 -186.75 L-227.8 -187.15" fill="none" stroke="#333333" stroke-linecap="round" stroke-linejoin="round" stroke-width="0.05"/>
  </g>
</svg>
