<?xml version="1.0" encoding="UTF-8" standalone="no"?>
<svg xmlns:ffdec="https://www.free-decompiler.com/flash" xmlns:xlink="http://www.w3.org/1999/xlink" ffdec:objectType="shape" height="944.0px" width="394.6px" xmlns="http://www.w3.org/2000/svg">
  <g transform="matrix(1.0, 0.0, 0.0, 1.0, 22.6, 559.6)">
    <path d="M251.3 31.85 Q250.1 34.7 246.25 33.75 249.3 33.6 251.3 31.85 M129.25 -283.0 L128.7 -281.8 128.55 -281.75 Q127.5 -281.35 127.55 -281.95 L129.25 -283.0 M128.05 -283.35 L127.95 -283.15 127.6 -282.4 126.7 -281.8 128.05 -283.35" fill="#cc3333" fill-rule="evenodd" stroke="none"/>
    <path d="M191.2 -368.05 L190.0 -410.15 187.25 -413.05 Q168.4 -433.45 142.25 -429.1 L139.25 -428.5 137.9 -430.15 141.6 -433.05 Q166.95 -451.9 195.2 -445.45 223.5 -439.05 238.2 -411.05 252.85 -383.05 245.3 -349.85 239.95 -326.4 225.7 -310.1 L223.5 -311.15 Q218.05 -314.2 212.55 -321.3 205.55 -330.3 202.15 -332.6 204.65 -335.05 208.5 -341.8 220.2 -362.15 205.9 -370.35 201.55 -372.85 192.6 -366.3 L192.55 -366.25 191.2 -368.05 M143.7 -398.95 Q147.1 -397.05 148.1 -393.35 149.1 -389.55 147.15 -386.15 145.2 -382.8 141.5 -381.8 137.75 -380.75 134.35 -382.7 131.0 -384.65 130.0 -388.4 128.95 -392.1 130.9 -395.5 132.85 -398.9 136.6 -399.95 140.3 -400.9 143.7 -398.95 M160.75 -322.8 Q163.9 -316.75 161.35 -312.25 160.25 -310.4 158.5 -309.25 155.95 -307.65 151.95 -307.45 145.1 -307.1 138.05 -311.15 132.8 -314.2 129.7 -318.35 128.65 -319.75 127.9 -321.25 125.7 -325.4 126.25 -328.8 126.45 -330.4 127.3 -331.8 129.85 -336.3 136.7 -336.6 143.5 -336.95 150.55 -332.9 157.6 -328.85 160.75 -322.8" fill="#000000" fill-rule="evenodd" stroke="none"/>
    <path d="M359.45 -515.2 L360.1 -516.45 359.45 -515.2 M312.5 -485.25 Q314.3 -483.85 318.1 -500.55 322.5 -519.7 324.5 -521.55 326.45 -523.45 330.7 -531.1 332.8 -534.85 339.15 -543.7 346.0 -553.35 350.0 -557.6 368.4 -564.9 371.6 -545.7 373.25 -539.2 367.85 -529.05 L363.6 -522.2 363.35 -522.35 360.1 -516.45 363.6 -522.2 370.5 -518.4 Q368.1 -514.1 368.25 -508.1 368.45 -502.1 365.5 -496.8 362.05 -490.55 354.0 -484.35 344.1 -476.7 337.5 -471.25 L337.2 -471.4 Q333.4 -461.95 330.9 -449.8 328.1 -436.95 325.55 -413.4 322.3 -383.65 320.9 -374.2 317.5 -351.65 312.05 -334.95 298.55 -293.45 292.3 -267.25 L287.85 -265.65 288.0 -255.5 Q238.25 -237.2 226.6 -258.55 L224.95 -259.3 Q228.35 -267.05 234.0 -277.6 L235.15 -279.75 251.4 -309.5 Q261.25 -328.25 267.65 -344.0 272.45 -355.95 276.05 -374.55 278.15 -385.35 282.1 -408.25 286.05 -428.85 291.85 -444.3 299.2 -464.35 311.3 -481.7 L312.5 -485.25 M309.95 -476.4 L311.3 -481.7 309.95 -476.4 M9.75 -523.0 L8.75 -523.75 Q10.25 -525.75 9.25 -526.5 L10.65 -528.35 Q10.45 -520.85 9.55 -518.45 10.45 -520.85 10.65 -528.35 L9.25 -526.5 Q10.25 -525.75 8.75 -523.75 L9.75 -523.0 M337.5 -472.25 L337.2 -471.4 337.5 -472.25 M-18.0 -536.1 Q-17.7 -541.0 -13.3 -546.8 -9.95 -551.2 -3.4 -553.55 3.6 -556.1 7.3 -553.3 10.45 -550.9 10.65 -535.65 L10.65 -528.35 16.15 -535.55 22.5 -535.5 Q22.6 -529.25 24.55 -519.6 L27.3 -504.25 Q29.5 -486.55 19.05 -474.7 36.2 -444.45 42.45 -430.85 53.5 -406.9 61.45 -376.2 65.0 -362.35 71.45 -349.95 L71.55 -349.75 71.7 -349.5 Q76.6 -340.05 83.25 -331.4 87.6 -325.7 97.0 -314.3 105.55 -303.6 111.5 -293.95 L112.35 -292.95 112.3 -292.95 Q98.5 -280.15 84.15 -275.95 69.7 -271.75 60.15 -274.2 L54.6 -289.55 Q42.0 -324.4 31.5 -351.25 L9.05 -406.8 Q-4.35 -440.0 -6.15 -447.1 -7.95 -454.15 -11.4 -460.3 -14.85 -466.4 -19.85 -479.6 -24.9 -492.8 -20.75 -506.2 -18.7 -512.9 -18.2 -516.0 -17.35 -521.4 -17.95 -534.5 L-18.0 -536.1 M139.25 -428.5 L142.25 -429.1 Q168.4 -433.45 187.25 -413.05 L190.0 -410.15 191.2 -368.05 192.55 -366.25 192.6 -366.3 Q201.55 -372.85 205.9 -370.35 220.2 -362.15 208.5 -341.8 L202.15 -332.6 Q205.55 -330.3 212.55 -321.3 218.05 -314.2 223.5 -311.15 L220.65 -306.8 220.35 -304.5 218.45 -284.55 219.4 -284.1 Q213.3 -276.4 193.65 -264.4 174.6 -252.8 156.7 -255.6 L156.85 -256.5 148.65 -286.45 136.4 -295.2 Q128.3 -301.05 122.0 -309.65 118.65 -314.3 115.8 -319.75 106.9 -336.7 109.25 -348.3 L80.2 -354.2 112.05 -392.7 Q120.1 -415.35 137.9 -430.15 L139.25 -428.5 M143.7 -398.95 Q140.3 -400.9 136.6 -399.95 132.85 -398.9 130.9 -395.5 128.95 -392.1 130.0 -388.4 131.0 -384.65 134.35 -382.7 137.75 -380.75 141.5 -381.8 145.2 -382.8 147.15 -386.15 149.1 -389.55 148.1 -393.35 147.1 -397.05 143.7 -398.95 M202.55 -334.5 L201.65 -332.95 202.15 -332.6 201.65 -332.95 202.55 -334.5 M160.75 -322.8 Q157.6 -328.85 150.55 -332.9 143.5 -336.95 136.7 -336.6 129.85 -336.3 127.3 -331.8 126.45 -330.4 126.25 -328.8 125.7 -325.4 127.9 -321.25 128.65 -319.75 129.7 -318.35 132.8 -314.2 138.05 -311.15 145.1 -307.1 151.95 -307.45 155.95 -307.65 158.5 -309.25 160.25 -310.4 161.35 -312.25 163.9 -316.75 160.75 -322.8 M150.6 -286.5 L148.65 -286.45 150.6 -286.5" fill="#ffcc99" fill-rule="evenodd" stroke="none"/>
    <path d="M292.3 -267.25 L292.3 -267.15 292.3 -267.05 292.25 -266.95 292.2 -266.7 292.1 -266.15 292.0 -265.7 291.95 -265.45 291.65 -263.85 290.75 -259.05 289.9 -255.1 288.0 -255.5 287.85 -265.65 292.3 -267.25 M220.45 -252.2 L222.75 -253.9 Q221.0 -249.45 220.45 -252.2 M132.75 -284.4 L132.5 -284.85 132.55 -284.9 132.75 -284.4 M90.15 -185.05 L89.9 -183.5 89.5 -183.55 89.65 -185.1 90.15 -185.05 M128.0 -284.3 Q128.2 -283.9 128.05 -283.35 L126.7 -281.8 126.15 -281.15 128.0 -284.3 M89.9 -183.5 L89.65 -185.1 89.9 -183.5" fill="#cc99ff" fill-rule="evenodd" stroke="none"/>
    <path d="M132.55 -284.9 L135.4 -286.4 132.75 -284.4 132.55 -284.9" fill="#0033ff" fill-rule="evenodd" stroke="none"/>
    <path d="M289.9 -255.1 L266.85 -151.8 258.25 -128.25 257.75 -127.0 252.7 -115.5 248.85 -107.55 Q246.75 -103.15 241.95 -80.05 237.1 -56.95 237.7 -27.15 238.15 -2.2 251.3 31.85 249.3 33.6 246.25 33.75 244.25 33.85 243.65 35.45 L242.7 35.2 242.4 35.3 Q239.35 36.25 237.15 37.15 234.25 38.3 232.9 39.4 229.15 42.35 222.7 44.5 L207.65 47.0 201.05 51.2 206.65 47.15 189.85 49.2 177.25 49.15 Q155.25 48.45 134.8 44.05 113.0 39.35 96.6 32.55 89.4 29.6 83.9 26.5 80.3 24.5 77.45 22.45 74.55 20.35 72.4 18.25 L69.7 15.55 67.25 13.0 64.1 8.65 63.2 7.4 Q71.9 -1.6 76.4 -16.75 80.0 -28.9 81.5 -47.7 L83.25 -81.7 Q84.25 -102.5 86.55 -115.15 88.35 -125.35 88.6 -141.05 L88.7 -158.2 88.65 -168.7 Q88.9 -176.35 89.5 -183.55 L89.9 -183.5 90.15 -185.05 Q101.1 -248.3 126.15 -281.15 101.1 -248.3 90.15 -185.05 L89.65 -185.1 88.9 -189.75 88.6 -191.3 88.55 -191.6 Q76.95 -212.8 72.7 -234.35 68.4 -255.85 60.15 -274.2 69.7 -271.75 84.15 -275.95 98.5 -280.15 112.3 -292.95 L112.35 -292.95 112.55 -293.1 113.2 -292.85 113.6 -292.65 114.05 -291.85 114.25 -291.6 Q116.6 -287.55 122.8 -286.45 127.25 -285.65 128.0 -284.3 L126.15 -281.15 127.55 -281.95 Q127.5 -281.35 128.55 -281.75 L128.7 -281.8 129.25 -283.0 132.5 -284.85 132.75 -284.4 Q121.75 -230.15 124.6 -171.85 160.6 -209.5 202.6 -241.05 211.05 -247.4 220.45 -252.2 221.0 -249.45 222.75 -253.9 L224.95 -259.25 224.95 -259.3 226.6 -258.55 Q238.25 -237.2 288.0 -255.5 L289.9 -255.1 M209.45 -217.7 Q217.75 -237.8 220.45 -252.2 217.75 -237.8 209.45 -217.7" fill="#ffffff" fill-rule="evenodd" stroke="none"/>
    <path d="M135.4 -286.4 L136.05 -286.6 132.75 -284.4 135.4 -286.4" fill="#37457b" fill-rule="evenodd" stroke="none"/>
    <path d="M243.65 35.45 Q243.15 36.6 243.5 38.6 244.2 42.95 244.2 59.05 244.2 71.75 236.1 103.8 L233.7 112.95 226.25 140.35 Q222.75 153.5 222.4 157.1 L220.9 180.1 Q229.85 286.0 235.85 330.15 241.85 374.3 242.1 382.1 L164.8 384.4 Q164.85 362.8 158.25 338.0 155.6 328.0 149.65 309.7 143.3 290.05 140.75 280.95 L140.75 280.85 140.35 279.4 Q136.6 265.65 128.2 227.15 130.8 235.85 128.4 216.05 L128.2 227.15 131.9 281.4 131.9 281.5 131.9 281.55 132.0 283.2 Q132.95 303.2 122.6 324.65 L119.0 351.65 119.0 384.4 44.55 384.4 53.4 340.3 Q61.95 296.7 61.95 287.05 61.95 284.0 57.8 272.95 53.65 261.85 53.65 256.3 53.65 235.4 62.25 155.75 70.8 76.05 73.5 56.4 L77.3 29.85 77.45 22.45 Q80.3 24.5 83.9 26.5 89.4 29.6 96.6 32.55 113.0 39.35 134.8 44.05 155.25 48.45 177.25 49.15 L189.85 49.2 206.65 47.15 201.05 51.2 207.65 47.0 222.7 44.5 Q229.15 42.35 232.9 39.4 234.25 38.3 237.15 37.15 239.35 36.25 242.4 35.3 L242.7 35.2 243.65 35.45 M219.4 -284.1 L219.6 -284.3 220.9 -283.75 234.0 -277.6 Q228.35 -267.05 224.95 -259.3 L224.95 -259.25 222.75 -253.9 220.45 -252.2 Q211.05 -247.4 202.6 -241.05 160.6 -209.5 124.6 -171.85 121.75 -230.15 132.75 -284.4 L136.05 -286.6 136.1 -286.6 Q142.4 -286.4 148.65 -286.45 L156.85 -256.5 156.7 -255.6 Q174.6 -252.8 193.65 -264.4 213.3 -276.4 219.4 -284.1 M154.9 -255.9 L156.7 -255.6 154.9 -255.9 M117.65 139.4 L117.65 144.95 Q122.75 169.8 128.4 216.05 122.75 169.8 117.65 144.95 L117.65 139.4" fill="#48599d" fill-rule="evenodd" stroke="none"/>
    <path d="M360.1 -516.45 L359.45 -515.2 M337.5 -471.25 Q344.1 -476.7 354.0 -484.35 362.05 -490.55 365.5 -496.8 368.45 -502.1 368.25 -508.1 368.1 -514.1 370.5 -518.4 L363.6 -522.2 360.1 -516.45 363.35 -522.35 363.6 -522.2 367.85 -529.05 Q373.25 -539.2 371.6 -545.7 368.4 -564.9 350.0 -557.6 346.0 -553.35 339.15 -543.7 332.8 -534.85 330.7 -531.1 326.45 -523.45 324.5 -521.55 322.5 -519.7 318.1 -500.55 314.3 -483.85 312.5 -485.25 312.2 -485.45 312.0 -486.0 L311.9 -486.25 311.45 -487.75 M311.3 -481.7 L309.95 -476.4 M337.2 -471.4 Q333.4 -461.95 330.9 -449.8 328.1 -436.95 325.55 -413.4 322.3 -383.65 320.9 -374.2 317.5 -351.65 312.05 -334.95 298.55 -293.45 292.3 -267.25 L292.3 -267.15 292.3 -267.05 292.25 -266.95 292.2 -266.7 292.1 -266.15 292.0 -265.7 291.95 -265.45 291.65 -263.85 290.75 -259.05 289.9 -255.1 266.85 -151.8 258.25 -128.25 257.75 -127.0 252.7 -115.5 248.85 -107.55 Q246.75 -103.15 241.95 -80.05 237.1 -56.95 237.7 -27.15 238.15 -2.2 251.3 31.85 250.1 34.7 246.25 33.75 M337.2 -471.4 L337.5 -472.25 M9.55 -518.45 Q10.45 -520.85 10.65 -528.35 L9.25 -526.5 Q10.25 -525.75 8.75 -523.75 L9.75 -523.0 M16.15 -535.55 L10.65 -528.35 10.65 -535.65 Q10.45 -550.9 7.3 -553.3 3.6 -556.1 -3.4 -553.55 -9.95 -551.2 -13.3 -546.8 -17.7 -541.0 -18.0 -536.1 M-17.95 -534.5 Q-17.35 -521.4 -18.2 -516.0 -18.7 -512.9 -20.75 -506.2 -24.9 -492.8 -19.85 -479.6 -14.85 -466.4 -11.4 -460.3 -7.95 -454.15 -6.15 -447.1 -4.35 -440.0 9.05 -406.8 L31.5 -351.25 Q42.0 -324.4 54.6 -289.55 L60.15 -274.2 Q69.7 -271.75 84.15 -275.95 98.5 -280.15 112.3 -292.95 L112.35 -292.95 112.55 -293.1 M111.5 -293.95 Q105.55 -303.6 97.0 -314.3 87.6 -325.7 83.25 -331.4 76.6 -340.05 71.7 -349.5 L71.55 -349.75 71.45 -349.95 Q65.0 -362.35 61.45 -376.2 53.5 -406.9 42.45 -430.85 36.2 -444.45 19.05 -474.7 29.5 -486.55 27.3 -504.25 L24.55 -519.6 Q22.6 -529.25 22.5 -535.5 L18.4 -538.6 16.15 -535.55 M139.25 -428.5 L142.25 -429.1 Q168.4 -433.45 187.25 -413.05 L190.0 -410.15 191.2 -368.05 M192.55 -366.25 L192.6 -366.3 Q201.55 -372.85 205.9 -370.35 220.2 -362.15 208.5 -341.8 204.65 -335.05 202.15 -332.6 205.55 -330.3 212.55 -321.3 218.05 -314.2 223.5 -311.15 L225.7 -310.1 Q239.95 -326.4 245.3 -349.85 252.85 -383.05 238.2 -411.05 223.5 -439.05 195.2 -445.45 166.95 -451.9 141.6 -433.05 L137.9 -430.15 Q120.1 -415.35 112.05 -392.7 L80.2 -354.2 109.25 -348.3 Q106.9 -336.7 115.8 -319.75 118.65 -314.3 122.0 -309.65 128.3 -301.05 136.4 -295.2 L148.65 -286.45 150.6 -286.5 M311.3 -481.7 L312.0 -486.0 M234.0 -277.6 L235.15 -279.75 251.4 -309.5 Q261.25 -328.25 267.65 -344.0 272.45 -355.95 276.05 -374.55 278.15 -385.35 282.1 -408.25 286.05 -428.85 291.85 -444.3 299.2 -464.35 311.3 -481.7 M202.15 -332.6 L201.65 -332.95 202.55 -334.5 M220.65 -306.8 L220.35 -304.5 223.25 -307.4 223.5 -311.15 M225.7 -310.1 L226.2 -309.85 M223.25 -307.4 L225.7 -310.1 M219.4 -284.1 L219.6 -284.3 220.9 -283.75 234.0 -277.6 Q228.35 -267.05 224.95 -259.3 L224.95 -259.25 222.75 -253.9 Q221.0 -249.45 220.45 -252.2 217.75 -237.8 209.45 -217.7 M226.6 -258.55 Q238.25 -237.2 288.0 -255.5 M132.5 -284.85 L129.25 -283.0 128.7 -281.8 M128.55 -281.75 Q127.5 -281.35 127.55 -281.95 L127.6 -282.4 127.95 -283.15 128.05 -283.35 128.6 -284.5 M90.15 -185.05 L89.9 -183.5 89.65 -185.1 89.5 -183.55 Q88.9 -176.35 88.65 -168.7 L88.7 -158.2 88.6 -141.05 Q88.35 -125.35 86.55 -115.15 84.25 -102.5 83.25 -81.7 L81.5 -47.7 Q80.0 -28.9 76.4 -16.75 71.9 -1.6 63.2 7.4 M64.1 8.65 L67.25 13.0 69.7 15.55 72.4 18.25 Q74.55 20.35 77.45 22.45 80.3 24.5 83.9 26.5 89.4 29.6 96.6 32.55 113.0 39.35 134.8 44.05 155.25 48.45 177.25 49.15 L189.85 49.2 206.65 47.15 M207.65 47.0 L222.7 44.5 Q229.15 42.35 232.9 39.4 234.25 38.3 237.15 37.15 239.35 36.25 242.4 35.3 L242.7 35.2 M219.4 -284.1 Q213.3 -276.4 193.65 -264.4 174.6 -252.8 156.7 -255.6 L154.9 -255.9 M220.35 -304.5 L218.45 -284.55 M60.15 -274.2 Q68.4 -255.85 72.7 -234.35 76.95 -212.8 88.55 -191.6 L88.6 -191.3 88.9 -189.75 89.65 -185.1 M132.55 -284.9 L135.4 -286.4 136.05 -286.6 136.1 -286.6 Q142.4 -286.4 148.65 -286.45 L156.85 -256.5 M132.55 -284.9 L132.5 -284.85 M128.0 -284.3 Q128.2 -283.9 128.05 -283.35 M126.15 -281.15 L126.7 -281.8 M113.2 -292.85 L113.6 -292.65 114.05 -291.85 114.25 -291.6 Q116.6 -287.55 122.8 -286.45 127.25 -285.65 128.0 -284.3 M88.6 -191.3 L87.95 -188.75 88.9 -189.75 M87.95 -188.75 L87.95 -188.7 87.8 -188.05 87.95 -188.75 M88.55 -191.6 L87.95 -188.7 M88.65 -168.7 L87.45 -165.6" fill="none" stroke="#000000" stroke-linecap="round" stroke-linejoin="round" stroke-width="0.05"/>
    <path d="M246.25 33.75 Q244.25 33.85 243.65 35.45 243.15 36.6 243.5 38.6 244.2 42.95 244.2 59.05 244.2 71.75 236.1 103.8 L233.7 112.95 226.25 140.35 Q222.75 153.5 222.4 157.1 L220.9 180.1 Q229.85 286.0 235.85 330.15 241.85 374.3 242.1 382.1 L244.1 382.05 M251.3 31.85 Q249.3 33.6 246.25 33.75 M77.45 22.45 L77.3 29.85 73.5 56.4 Q70.8 76.05 62.25 155.75 53.65 235.4 53.65 256.3 53.65 261.85 57.8 272.95 61.95 284.0 61.95 287.05 61.95 296.7 53.4 340.3 L44.55 384.4 M119.0 384.4 L119.0 351.65 122.6 324.65 Q132.95 303.2 132.0 283.2 L131.9 281.55 131.9 281.5 131.9 281.4 128.2 227.15 Q136.6 265.65 140.35 279.4 L140.75 280.85 140.75 280.95 Q143.3 290.05 149.65 309.7 155.6 328.0 158.25 338.0 164.85 362.8 164.8 384.4 L242.1 382.1 242.2 384.4 M128.4 216.05 Q122.75 169.8 117.65 144.95 L117.65 139.4 M128.4 216.05 Q130.8 235.85 128.2 227.15" fill="none" stroke="#000000" stroke-linecap="round" stroke-linejoin="round" stroke-width="0.05"/>
    <path d="M220.45 -252.2 Q211.05 -247.4 202.6 -241.05 160.6 -209.5 124.6 -171.85 121.75 -230.15 132.75 -284.4 M126.15 -281.15 Q101.1 -248.3 90.15 -185.05" fill="none" stroke="#333333" stroke-linecap="round" stroke-linejoin="round" stroke-width="0.05"/>
  </g>
</svg>
