<?xml version="1.0" encoding="UTF-8" standalone="no"?>
<svg xmlns:ffdec="https://www.free-decompiler.com/flash" xmlns:xlink="http://www.w3.org/1999/xlink" ffdec:objectType="shape" height="49.55px" width="91.95px" xmlns="http://www.w3.org/2000/svg">
  <g transform="matrix(1.0, 0.0, 0.0, 1.0, 46.0, 24.8)">
    <path d="M-4.55 1.3 L-4.35 1.25 -4.15 1.2 -4.1 1.2 -4.05 0.95 Q-4.05 -0.05 -4.5 -0.4 L-4.6 0.05 -4.65 0.5 -4.65 0.65 -4.85 1.1 -4.55 1.3 M-5.8 -1.6 L-5.9 -1.15 -6.0 -0.75 -6.0 -0.6 -6.15 -0.15 Q-6.1 0.0 -5.9 0.0 L-5.7 -0.05 -5.5 -0.1 -5.4 -0.1 -5.35 -0.3 Q-5.4 -1.3 -5.8 -1.6 M-1.05 -0.25 L-1.2 -0.2 -1.05 0.5 -0.7 0.95 Q-0.2 0.6 -0.25 -0.15 -0.25 -0.6 -0.95 -0.9 L-1.05 -0.25 M-15.35 -10.2 L-15.45 -10.15 -15.6 -9.75 -15.8 -9.4 -15.7 -9.2 -14.8 -10.0 Q-14.8 -10.45 -15.3 -10.7 L-15.35 -10.35 -15.35 -10.2 M-5.45 -4.95 L-5.4 -4.3 -5.5 -3.7 -5.25 -3.15 -4.9 -4.1 -4.7 -5.2 -5.25 -5.5 -5.3 -5.15 -5.3 -5.0 -5.45 -4.95 M-5.1 -10.7 L-4.75 -11.15 -4.55 -11.65 -3.65 -11.0 -3.0 -10.1 -2.8 -8.75 -3.8 -8.65 -5.15 -8.7 -5.15 -9.8 -5.1 -10.7 M0.2 -12.45 L-0.1 -11.05 0.45 -11.95 0.95 -12.85 0.9 -12.9 0.55 -12.65 0.25 -12.45 0.2 -12.45 M0.0 -10.4 L0.15 -10.5 0.1 -10.5 0.0 -10.4 -0.05 -10.4 -0.55 -10.8 -0.6 -10.25 -0.25 -8.7 Q0.0 -7.4 0.25 -7.4 L0.45 -7.7 0.55 -8.15 0.4 -8.5 0.3 -8.85 0.3 -8.65 Q0.05 -9.1 0.0 -10.4 M-1.1 -10.25 L-1.25 -10.45 -1.4 -10.55 -0.95 -11.25 Q-0.9 -12.0 -1.1 -12.45 L-2.0 -13.3 -2.4 -13.25 Q-3.0 -13.25 -4.0 -13.75 -5.05 -14.3 -5.65 -14.25 -5.9 -13.95 -6.1 -13.9 L-7.95 -14.2 -9.85 -14.6 Q-9.85 -14.2 -9.5 -14.05 L-8.9 -13.85 Q-8.6 -13.75 -8.55 -13.25 L-8.55 -12.95 -7.85 -12.6 -8.15 -12.45 -7.8 -11.4 -7.95 -11.05 -7.7 -10.35 -7.85 -10.15 -8.1 -10.25 -8.15 -10.05 -8.5 -8.85 -7.65 -8.35 Q-8.6 -8.2 -8.55 -7.5 L-8.3 -7.1 -8.4 -6.5 -8.45 -5.9 -8.55 -5.8 -8.95 -5.55 -9.0 -5.5 -8.95 -5.5 -9.15 -4.15 -9.05 -3.65 -8.9 -3.05 Q-8.85 -2.5 -9.1 -1.45 L-9.5 0.05 -8.5 -0.35 Q-7.85 -0.55 -7.55 -0.95 -6.65 -2.2 -6.65 -3.0 L-6.35 -5.0 -5.75 -6.9 -5.3 -7.0 -4.65 -6.8 -4.05 -6.6 -3.5 -6.7 -3.0 -6.8 -2.8 -6.75 -2.75 -6.6 -2.8 -6.25 -2.8 -5.85 Q-2.8 -5.55 -2.15 -5.5 L-2.6 -3.3 -2.55 -3.15 -2.55 -2.6 -2.75 -2.55 Q-2.6 -1.6 -2.25 -1.4 -1.75 -1.7 -1.75 -2.45 -1.8 -2.85 -2.3 -3.15 -2.0 -3.3 -1.65 -4.2 -1.65 -3.5 -1.1 -2.85 L-0.3 -1.8 0.1 -1.6 0.45 -1.05 0.9 -0.5 1.3 -0.65 1.65 -0.8 1.85 -0.7 2.3 -1.2 2.6 -1.75 2.1 -3.3 1.25 -4.6 0.25 -6.8 -0.65 -8.8 -0.6 -8.9 -0.9 -9.55 -1.1 -10.25 M-18.15 0.1 L-18.2 0.6 -18.3 1.0 -18.25 1.15 -18.5 1.6 -18.2 1.75 -18.0 1.7 -17.8 1.6 -17.7 1.6 -17.65 1.4 Q-17.65 0.4 -18.15 0.1 M-34.65 0.15 L-34.9 0.5 -35.1 0.6 -34.15 1.65 Q-33.85 1.45 -33.85 0.2 -33.85 -0.1 -34.45 -0.4 L-34.65 0.15 M-31.45 -5.95 L-31.8 -5.8 -32.05 -5.9 -32.1 -5.5 -32.05 -5.35 -32.2 -5.3 -32.2 -4.9 -32.15 -4.8 -32.0 -4.7 -31.6 -5.2 -31.35 -5.85 -31.45 -5.95 M-28.2 -9.4 L-28.15 -9.3 -28.35 -8.85 Q-28.2 -8.4 -27.65 -8.1 L-27.25 -8.5 Q-27.35 -9.35 -28.05 -9.95 L-28.2 -9.4 M-18.3 -3.75 L-18.9 -5.0 -18.85 -3.45 -19.0 -3.35 -18.9 -2.95 -18.5 -2.7 -18.25 -3.15 -18.3 -3.75 M-25.45 -13.15 L-26.2 -13.55 -28.15 -13.7 -30.15 -13.75 -31.2 -13.55 -32.25 -13.3 Q-33.45 -13.2 -33.9 -12.8 L-34.95 -11.5 -35.25 -10.9 -35.5 -10.3 -35.45 -10.1 Q-34.8 -9.95 -34.4 -9.05 L-33.8 -7.6 -33.0 -6.9 Q-32.65 -6.6 -31.8 -6.6 L-31.55 -6.6 -30.85 -6.4 -30.55 -6.5 Q-30.1 -6.5 -27.85 -4.0 L-27.3 -4.15 -27.2 -3.9 -27.55 -3.8 -27.15 -3.1 Q-27.1 -2.35 -27.8 -2.15 L-29.1 -2.0 -30.0 -1.9 -31.0 -1.9 Q-31.8 -1.9 -31.8 -2.35 L-31.8 -3.3 -33.35 -3.5 -34.95 -3.75 -35.65 -3.65 -35.35 -3.3 -35.4 -2.7 -35.55 -2.05 Q-35.5 -1.15 -34.5 -0.6 -33.7 -0.15 -32.6 -0.15 L-32.45 -0.15 -32.1 0.25 -31.65 0.75 -30.6 0.85 -28.8 0.4 -27.1 0.0 -26.7 0.5 -25.8 0.1 -26.25 -0.45 -25.75 -0.8 Q-24.1 -0.85 -24.1 -1.45 L-24.05 -2.45 -24.05 -3.4 -24.15 -3.85 -24.2 -4.4 -24.15 -4.7 -24.65 -5.65 -25.6 -6.2 -25.85 -6.55 -28.15 -7.5 Q-31.2 -8.7 -31.9 -10.6 L-31.6 -11.3 Q-31.25 -11.7 -30.9 -11.65 L-30.55 -11.65 -30.65 -11.05 -30.3 -10.85 -29.6 -10.9 -29.6 -11.35 -29.75 -11.65 -29.35 -11.7 -27.95 -11.2 Q-26.85 -10.8 -26.8 -10.5 -26.3 -10.55 -26.25 -10.3 L-26.3 -10.2 -25.3 -10.35 Q-24.9 -10.5 -24.5 -10.9 L-24.9 -12.2 -24.8 -12.55 -25.45 -13.15 M-19.4 -11.1 L-19.3 -11.2 -19.25 -11.6 -19.4 -12.6 -19.65 -13.6 Q-19.65 -14.25 -21.7 -14.2 L-22.25 -13.9 -22.7 -13.65 -23.1 -13.6 -23.1 -13.55 -22.75 -12.6 -22.4 -11.65 -22.4 -11.5 -22.4 -11.3 -22.65 -11.15 -22.65 -10.8 -22.45 -9.65 -22.25 -8.5 -22.15 -6.1 -22.15 -3.65 -22.25 -2.3 -22.4 -0.95 Q-22.4 0.0 -21.9 0.0 L-21.3 -0.05 -21.3 0.35 -21.5 0.45 Q-21.2 1.2 -20.55 1.5 -20.0 1.2 -20.0 0.85 -20.0 0.55 -20.7 0.05 L-19.5 -0.1 Q-19.25 -0.55 -19.3 -1.55 L-19.35 -2.3 -19.35 -3.1 Q-19.5 -5.9 -18.05 -6.2 -17.75 -6.15 -17.7 -5.95 L-17.8 -5.7 -17.85 -5.5 Q-17.85 -5.25 -17.05 -5.0 -16.6 -5.2 -16.6 -5.65 L-16.9 -6.1 -16.45 -6.3 -15.9 -6.4 -14.95 -6.35 -14.45 -5.9 -14.15 -5.7 -14.15 -5.55 -14.1 -5.3 -14.15 -5.2 -14.25 -5.1 -14.5 -5.15 -14.45 -3.6 -14.6 -3.5 -14.4 -2.95 -14.1 -2.6 Q-13.55 -2.95 -13.5 -3.2 L-13.65 -4.05 -13.6 -4.05 Q-13.15 -3.15 -13.15 -2.65 L-13.25 -1.45 -13.35 -0.25 -13.25 -0.15 Q-13.15 0.8 -12.8 0.95 -12.35 0.65 -12.35 -0.1 L-12.15 -0.1 -11.1 -0.1 -11.0 -1.0 -11.15 -1.55 -11.25 -2.15 -11.15 -3.15 -11.1 -4.15 -11.1 -4.45 -11.15 -4.85 -11.15 -5.6 Q-11.15 -6.05 -11.5 -6.85 L-11.9 -8.15 Q-11.4 -8.9 -11.45 -9.25 L-11.55 -9.6 -11.7 -9.75 -11.3 -10.25 -11.2 -10.85 -11.15 -11.35 -11.15 -11.85 Q-11.25 -13.9 -11.6 -14.35 L-12.3 -14.3 -13.05 -14.25 -13.55 -14.45 Q-14.25 -14.45 -14.5 -13.85 L-14.75 -12.65 -14.9 -11.5 -14.4 -9.65 Q-15.4 -8.8 -17.05 -8.75 L-18.0 -8.8 -18.95 -8.95 Q-19.3 -9.35 -19.4 -11.1 M34.85 -3.45 L34.75 -2.85 Q34.75 -2.45 35.2 -2.15 35.65 -2.4 35.65 -2.9 35.55 -3.75 35.25 -3.9 L34.85 -3.45 M25.4 -0.9 L25.0 -1.0 24.7 -0.75 Q24.7 -0.3 25.8 -0.3 L25.8 -0.55 25.85 -0.5 26.1 -0.4 26.3 -0.6 26.1 -1.15 25.75 -0.85 25.4 -0.9 M32.15 -1.45 L31.85 -1.1 31.6 -0.45 31.8 0.05 Q32.35 -0.15 32.6 -0.3 L32.75 -0.3 32.5 -0.95 32.15 -1.45 M25.95 -7.9 L26.35 -8.0 26.0 -8.95 25.7 -8.9 25.4 -8.2 Q25.4 -7.9 25.95 -7.9 M30.4 -11.75 L30.35 -11.15 Q30.35 -10.75 30.85 -10.55 31.55 -10.85 31.55 -11.25 L31.25 -12.4 30.75 -13.5 30.4 -11.75 M34.0 -4.65 L33.55 -4.6 33.05 -4.6 31.95 -4.6 Q31.1 -4.5 31.15 -4.15 31.15 -3.85 31.5 -3.2 L32.1 -2.4 31.85 -1.95 Q32.65 -2.1 33.55 -2.65 34.7 -3.35 34.65 -4.0 34.6 -4.7 34.0 -4.65 M34.4 -16.25 L33.5 -16.05 32.45 -15.85 31.55 -15.75 30.65 -15.7 30.65 -15.5 30.85 -15.15 31.0 -14.75 Q31.0 -14.25 31.35 -13.35 L31.65 -11.95 31.9 -10.0 32.2 -8.05 31.9 -7.65 Q31.9 -7.05 32.35 -6.75 L33.5 -6.5 34.65 -6.75 34.55 -7.35 34.75 -7.85 34.85 -8.35 Q34.85 -8.7 34.5 -8.9 L34.65 -9.05 34.75 -10.1 34.7 -10.6 34.7 -11.1 34.9 -11.65 35.05 -12.2 34.85 -13.0 Q34.6 -13.5 34.7 -13.8 34.9 -13.8 34.9 -14.35 L34.9 -15.2 Q34.8 -16.3 34.4 -16.25 M21.2 -1.0 Q21.15 -2.65 20.75 -2.9 L20.65 -2.15 20.55 -1.4 20.6 -1.25 20.35 -0.9 20.65 -0.65 20.85 -0.7 21.05 -0.8 21.15 -0.75 21.2 -1.0 M8.3 -3.95 L8.1 -2.9 8.45 -2.5 9.2 -2.7 8.65 -4.1 8.3 -3.95 M9.35 -12.3 L9.55 -12.3 10.55 -11.5 11.25 -10.6 11.25 -9.55 10.25 -8.95 7.85 -8.6 7.7 -8.7 7.75 -10.65 Q7.9 -12.1 8.2 -12.45 L8.35 -12.4 8.2 -11.95 8.05 -11.55 8.1 -11.45 Q8.45 -11.85 8.9 -11.85 L9.3 -11.95 9.45 -11.95 9.35 -12.3 M21.1 -5.5 Q21.3 -5.05 21.8 -4.75 L22.2 -5.15 Q22.2 -5.55 21.25 -6.05 L21.1 -5.5 M13.0 -5.35 L13.15 -5.95 12.2 -6.85 12.15 -6.45 12.15 -6.35 12.0 -6.3 12.25 -5.45 Q12.4 -5.0 12.7 -4.7 L13.0 -5.35 M13.95 -10.6 L13.8 -11.8 13.4 -13.05 12.8 -14.25 10.7 -14.75 8.45 -15.05 7.05 -14.85 5.65 -14.7 4.6 -14.65 3.55 -14.7 3.15 -14.5 2.65 -14.45 3.55 -13.75 4.45 -12.9 4.15 -12.1 Q3.9 -11.45 3.95 -11.05 L4.0 -10.45 4.1 -9.8 Q4.15 -9.05 3.5 -9.0 L3.8 -8.6 4.2 -8.3 4.25 -6.45 4.25 -5.45 4.25 -4.7 4.2 -3.4 4.2 -2.1 Q4.2 -1.35 4.85 -0.9 5.35 -0.5 6.15 -0.55 L6.45 -1.25 7.3 -0.45 7.55 -1.35 7.35 -2.3 6.9 -2.8 7.4 -6.0 Q8.5 -5.5 9.5 -4.6 L9.5 -4.35 Q9.5 -3.55 10.4 -2.3 L11.1 -2.15 11.6 -1.2 11.65 -1.15 12.35 -0.6 13.25 -0.1 Q12.4 0.4 12.45 0.6 L12.65 0.7 13.35 0.6 14.05 0.45 14.35 0.65 15.0 -0.05 15.4 -0.9 15.2 -1.15 Q14.6 -1.45 14.45 -1.95 L13.15 -3.6 11.75 -5.05 Q11.1 -5.9 11.1 -6.95 L12.6 -7.5 12.55 -7.65 12.85 -8.1 13.1 -8.45 14.05 -8.7 14.15 -9.4 13.95 -10.6 M19.2 -14.3 L18.6 -15.35 18.5 -15.4 18.35 -15.25 18.35 -15.55 Q17.75 -15.2 16.95 -15.1 L15.0 -15.5 14.95 -15.25 Q15.0 -14.95 15.85 -14.3 L16.7 -13.75 16.8 -13.35 16.95 -12.9 Q17.15 -12.9 17.2 -11.85 L17.15 -11.05 17.15 -10.25 Q17.55 -10.1 17.6 -9.6 L17.55 -8.5 17.5 -8.5 17.45 -8.5 17.5 -7.45 17.45 -7.05 17.5 -7.05 17.55 -6.2 17.7 -3.85 17.8 -2.2 17.7 -2.15 17.35 -3.3 16.6 -4.6 16.7 -2.9 16.75 -2.15 17.2 -2.0 17.15 -1.65 17.35 -1.4 17.65 -1.6 17.65 -1.55 Q17.75 -1.25 18.95 -0.6 L19.55 -0.85 20.05 -1.35 20.4 -1.8 20.3 -2.25 20.2 -2.75 20.35 -3.65 20.5 -4.55 20.3 -5.5 20.05 -6.45 Q20.05 -6.65 20.35 -6.65 L20.85 -6.55 20.9 -6.6 21.35 -6.55 21.65 -6.4 21.7 -6.25 22.1 -6.4 Q24.75 -3.55 24.85 -2.45 L26.35 -2.2 25.85 -1.3 27.1 -1.05 28.7 -1.35 28.75 -1.95 27.35 -4.2 25.65 -6.55 Q24.25 -7.85 24.2 -8.7 24.2 -9.25 23.7 -9.2 L23.45 -9.15 23.2 -9.15 22.75 -9.55 23.7 -11.1 24.55 -12.1 24.45 -11.2 25.2 -10.5 25.8 -11.65 25.15 -12.1 24.6 -12.1 24.8 -12.35 26.1 -13.5 26.7 -12.95 27.25 -13.25 27.45 -13.5 27.05 -14.45 27.55 -14.75 27.6 -14.6 28.05 -14.65 27.9 -15.0 26.25 -15.5 24.55 -15.75 24.35 -15.75 23.85 -15.0 23.1 -13.95 Q22.55 -13.3 22.0 -13.1 L20.5 -10.65 20.45 -11.35 20.0 -12.1 19.85 -12.1 19.85 -12.15 19.65 -12.75 19.2 -14.3 M0.55 8.4 L-0.55 8.45 8.4 23.9 -7.05 8.5 Q-21.0 8.15 -31.55 4.75 -44.95 0.5 -45.15 -6.2 -45.35 -12.95 -32.3 -18.1 -19.25 -23.25 -0.55 -23.9 18.1 -24.5 31.5 -20.25 44.8 -15.95 45.1 -9.2 45.3 -2.5 32.25 2.6 19.15 7.75 0.55 8.4" fill="#ffffff" fill-rule="evenodd" stroke="none"/>
    <path d="M19.2 -14.3 L19.65 -12.75 19.85 -12.15 19.85 -12.1 20.0 -12.1 20.45 -11.35 20.5 -10.65 22.0 -13.1 Q22.55 -13.3 23.1 -13.95 L23.85 -15.0 24.35 -15.75 24.55 -15.75 26.25 -15.5 27.9 -15.0 28.05 -14.65 27.6 -14.6 27.55 -14.75 27.05 -14.45 27.45 -13.5 27.25 -13.25 26.7 -12.95 26.1 -13.5 24.8 -12.35 24.6 -12.1 25.15 -12.1 25.8 -11.65 25.2 -10.5 24.45 -11.2 24.55 -12.1 23.7 -11.1 22.75 -9.55 23.2 -9.15 23.45 -9.15 23.7 -9.2 Q24.2 -9.25 24.2 -8.7 24.25 -7.85 25.65 -6.55 L27.35 -4.2 28.75 -1.95 28.7 -1.35 27.1 -1.05 25.85 -1.3 26.35 -2.2 24.85 -2.45 Q24.75 -3.55 22.1 -6.4 L21.7 -6.25 21.65 -6.4 21.35 -6.55 20.9 -6.6 20.85 -6.55 20.35 -6.65 Q20.05 -6.65 20.05 -6.45 L20.3 -5.5 20.5 -4.55 20.35 -3.65 20.2 -2.75 20.3 -2.25 20.4 -1.8 20.05 -1.35 19.55 -0.85 18.95 -0.6 Q17.75 -1.25 17.65 -1.55 L17.65 -1.6 17.35 -1.4 17.15 -1.65 17.2 -2.0 16.75 -2.15 16.7 -2.9 16.6 -4.6 17.35 -3.3 17.7 -2.15 17.8 -2.2 17.7 -3.85 17.55 -6.2 17.5 -7.05 17.45 -7.05 17.5 -7.45 17.45 -8.5 17.5 -8.5 17.55 -8.5 17.6 -9.6 Q17.55 -10.1 17.15 -10.25 L17.15 -11.05 17.2 -11.85 Q17.15 -12.9 16.95 -12.9 L16.8 -13.35 16.7 -13.75 15.85 -14.3 Q15.0 -14.95 14.95 -15.25 L15.0 -15.5 16.95 -15.1 Q17.75 -15.2 18.35 -15.55 L18.35 -15.25 18.5 -15.4 18.6 -15.35 19.2 -14.3 M13.95 -10.6 L14.15 -9.4 14.05 -8.7 13.1 -8.45 12.85 -8.1 12.55 -7.65 12.6 -7.5 11.1 -6.95 Q11.1 -5.9 11.75 -5.05 L13.15 -3.6 14.45 -1.95 Q14.6 -1.45 15.2 -1.15 L15.4 -0.9 15.0 -0.05 14.35 0.65 14.05 0.45 13.35 0.6 12.65 0.7 12.45 0.6 Q12.4 0.4 13.25 -0.1 L12.35 -0.6 11.65 -1.15 11.6 -1.2 11.1 -2.15 10.4 -2.3 Q9.5 -3.55 9.5 -4.35 L9.5 -4.6 Q8.5 -5.5 7.4 -6.0 L6.9 -2.8 7.35 -2.3 7.55 -1.35 7.3 -0.45 6.45 -1.25 6.15 -0.55 Q5.35 -0.5 4.85 -0.9 4.2 -1.35 4.2 -2.1 L4.2 -3.4 4.25 -4.7 4.25 -5.45 4.25 -6.45 4.2 -8.3 3.8 -8.6 3.5 -9.0 Q4.15 -9.05 4.1 -9.8 L4.0 -10.45 3.95 -11.05 Q3.9 -11.45 4.15 -12.1 L4.45 -12.9 3.55 -13.75 2.65 -14.45 3.15 -14.5 3.55 -14.7 4.6 -14.65 5.65 -14.7 7.05 -14.85 8.45 -15.05 10.7 -14.75 12.8 -14.25 13.4 -13.05 13.8 -11.8 13.95 -10.6 M13.0 -5.35 L12.7 -4.7 Q12.4 -5.0 12.25 -5.45 L12.0 -6.3 12.15 -6.35 12.15 -6.45 12.2 -6.85 13.15 -5.95 13.0 -5.35 M21.1 -5.5 L21.25 -6.05 Q22.2 -5.55 22.2 -5.15 L21.8 -4.75 Q21.3 -5.05 21.1 -5.5 M9.35 -12.3 L9.45 -11.95 9.3 -11.95 8.9 -11.85 Q8.45 -11.85 8.1 -11.45 L8.05 -11.55 8.2 -11.95 8.35 -12.4 8.2 -12.45 Q7.9 -12.1 7.75 -10.65 L7.7 -8.7 7.85 -8.6 10.25 -8.95 11.25 -9.55 11.25 -10.6 10.55 -11.5 9.55 -12.3 9.35 -12.3 M8.3 -3.95 L8.65 -4.1 9.2 -2.7 8.45 -2.5 8.1 -2.9 8.3 -3.95 M21.2 -1.0 L21.15 -0.75 21.05 -0.8 20.85 -0.7 20.65 -0.65 20.35 -0.9 20.6 -1.25 20.55 -1.4 20.65 -2.15 20.75 -2.9 Q21.15 -2.65 21.2 -1.0 M34.4 -16.25 Q34.8 -16.3 34.9 -15.2 L34.9 -14.35 Q34.9 -13.8 34.7 -13.8 34.6 -13.5 34.85 -13.0 L35.05 -12.2 34.9 -11.65 34.7 -11.1 34.7 -10.6 34.75 -10.1 34.65 -9.05 34.5 -8.9 Q34.85 -8.7 34.85 -8.35 L34.75 -7.85 34.55 -7.35 34.65 -6.75 33.5 -6.5 32.35 -6.75 Q31.9 -7.05 31.9 -7.65 L32.2 -8.05 31.9 -10.0 31.65 -11.95 31.35 -13.35 Q31.0 -14.25 31.0 -14.75 L30.85 -15.15 30.65 -15.5 30.65 -15.7 31.55 -15.75 32.45 -15.85 33.5 -16.05 34.4 -16.25 M34.0 -4.65 Q34.6 -4.7 34.65 -4.0 34.7 -3.35 33.55 -2.65 32.65 -2.1 31.85 -1.95 L32.1 -2.4 31.5 -3.2 Q31.15 -3.85 31.15 -4.15 31.1 -4.5 31.95 -4.6 L33.05 -4.6 33.55 -4.6 34.0 -4.65 M30.4 -11.75 L30.75 -13.5 31.25 -12.4 31.55 -11.25 Q31.55 -10.85 30.85 -10.55 30.35 -10.75 30.35 -11.15 L30.4 -11.75 M25.95 -7.9 Q25.4 -7.9 25.4 -8.2 L25.7 -8.9 26.0 -8.95 26.35 -8.0 25.95 -7.9 M32.15 -1.45 L32.5 -0.95 32.75 -0.3 32.6 -0.3 Q32.35 -0.15 31.8 0.05 L31.6 -0.45 31.85 -1.1 32.15 -1.45 M25.4 -0.9 L25.75 -0.85 26.1 -1.15 26.3 -0.6 26.1 -0.4 25.85 -0.5 25.8 -0.55 25.8 -0.3 Q24.7 -0.3 24.7 -0.75 L25.0 -1.0 25.4 -0.9 M34.85 -3.45 L35.25 -3.9 Q35.55 -3.75 35.65 -2.9 35.65 -2.4 35.2 -2.15 34.75 -2.45 34.75 -2.85 L34.85 -3.45 M-19.4 -11.1 Q-19.3 -9.35 -18.95 -8.95 L-18.0 -8.8 -17.05 -8.75 Q-15.4 -8.8 -14.4 -9.65 L-14.9 -11.5 -14.75 -12.65 -14.5 -13.85 Q-14.25 -14.45 -13.55 -14.45 L-13.05 -14.25 -12.3 -14.3 -11.6 -14.35 Q-11.25 -13.9 -11.15 -11.85 L-11.15 -11.35 -11.2 -10.85 -11.3 -10.25 -11.7 -9.75 -11.55 -9.6 -11.45 -9.25 Q-11.4 -8.9 -11.9 -8.15 L-11.5 -6.85 Q-11.15 -6.05 -11.15 -5.6 L-11.15 -4.85 -11.1 -4.45 -11.1 -4.15 -11.15 -3.15 -11.25 -2.15 -11.15 -1.55 -11.0 -1.0 -11.1 -0.1 -12.15 -0.1 -12.35 -0.1 Q-12.35 0.65 -12.8 0.95 -13.15 0.8 -13.25 -0.15 L-13.35 -0.25 -13.25 -1.45 -13.15 -2.65 Q-13.15 -3.15 -13.6 -4.05 L-13.65 -4.05 -13.5 -3.2 Q-13.55 -2.95 -14.1 -2.6 L-14.4 -2.95 -14.6 -3.5 -14.45 -3.6 -14.5 -5.15 -14.25 -5.1 -14.15 -5.2 -14.1 -5.3 -14.15 -5.55 -14.15 -5.7 -14.45 -5.9 -14.95 -6.35 -15.9 -6.4 -16.45 -6.3 -16.9 -6.1 -16.6 -5.65 Q-16.6 -5.2 -17.05 -5.0 -17.85 -5.25 -17.85 -5.5 L-17.8 -5.7 -17.7 -5.95 Q-17.75 -6.15 -18.05 -6.2 -19.5 -5.9 -19.35 -3.1 L-19.35 -2.3 -19.3 -1.55 Q-19.25 -0.55 -19.5 -0.1 L-20.7 0.05 Q-20.0 0.55 -20.0 0.85 -20.0 1.2 -20.55 1.5 -21.2 1.2 -21.5 0.45 L-21.3 0.35 -21.3 -0.05 -21.9 0.0 Q-22.4 0.0 -22.4 -0.95 L-22.25 -2.3 -22.15 -3.65 -22.15 -6.1 -22.25 -8.5 -22.45 -9.65 -22.65 -10.8 -22.65 -11.15 -22.4 -11.3 -22.4 -11.5 -22.4 -11.65 -22.75 -12.6 -23.1 -13.55 -23.1 -13.6 -22.7 -13.65 -22.25 -13.9 -21.7 -14.2 Q-19.65 -14.25 -19.65 -13.6 L-19.4 -12.6 -19.25 -11.6 -19.3 -11.2 -19.4 -11.1 M-25.45 -13.15 L-24.8 -12.55 -24.9 -12.2 -24.5 -10.9 Q-24.9 -10.5 -25.3 -10.35 L-26.3 -10.2 -26.25 -10.3 Q-26.3 -10.55 -26.8 -10.5 -26.85 -10.8 -27.95 -11.2 L-29.35 -11.7 -29.75 -11.65 -29.6 -11.35 -29.6 -10.9 -30.3 -10.85 -30.65 -11.05 -30.55 -11.65 -30.9 -11.65 Q-31.25 -11.7 -31.6 -11.3 L-31.9 -10.6 Q-31.2 -8.7 -28.15 -7.5 L-25.85 -6.55 -25.6 -6.2 -24.65 -5.65 -24.15 -4.7 -24.2 -4.4 -24.15 -3.85 -24.05 -3.4 -24.05 -2.45 -24.1 -1.45 Q-24.1 -0.85 -25.75 -0.8 L-26.25 -0.45 -25.8 0.1 -26.7 0.5 -27.1 0.0 -28.8 0.4 -30.6 0.85 -31.65 0.75 -32.1 0.25 -32.45 -0.15 -32.6 -0.15 Q-33.7 -0.15 -34.5 -0.6 -35.5 -1.15 -35.55 -2.05 L-35.4 -2.7 -35.35 -3.3 -35.65 -3.65 -34.95 -3.75 -33.35 -3.5 -31.8 -3.3 -31.8 -2.35 Q-31.8 -1.9 -31.0 -1.9 L-30.0 -1.9 -29.1 -2.0 -27.8 -2.15 Q-27.1 -2.35 -27.15 -3.1 L-27.55 -3.8 -27.2 -3.9 -27.3 -4.15 -27.85 -4.0 Q-30.1 -6.5 -30.55 -6.5 L-30.85 -6.4 -31.55 -6.6 -31.8 -6.6 Q-32.65 -6.6 -33.0 -6.9 L-33.8 -7.6 -34.4 -9.05 Q-34.8 -9.95 -35.45 -10.1 L-35.5 -10.3 -35.25 -10.9 -34.95 -11.5 -33.9 -12.8 Q-33.45 -13.2 -32.25 -13.3 L-31.2 -13.55 -30.15 -13.75 -28.15 -13.7 -26.2 -13.55 -25.45 -13.15 M-18.3 -3.75 L-18.25 -3.15 -18.5 -2.7 -18.9 -2.95 -19.0 -3.35 -18.85 -3.45 -18.9 -5.0 -18.3 -3.75 M-28.2 -9.4 L-28.05 -9.95 Q-27.35 -9.35 -27.25 -8.5 L-27.65 -8.1 Q-28.2 -8.4 -28.35 -8.85 L-28.15 -9.3 -28.2 -9.4 M-31.45 -5.95 L-31.35 -5.85 -31.6 -5.2 -32.0 -4.7 -32.15 -4.8 -32.2 -4.9 -32.2 -5.3 -32.05 -5.35 -32.1 -5.5 -32.05 -5.9 -31.8 -5.8 -31.45 -5.95 M-34.65 0.15 L-34.45 -0.4 Q-33.85 -0.1 -33.85 0.2 -33.85 1.45 -34.15 1.65 L-35.1 0.6 -34.9 0.5 -34.65 0.15 M-18.15 0.1 Q-17.65 0.4 -17.65 1.4 L-17.7 1.6 -17.8 1.6 -18.0 1.7 -18.2 1.75 -18.5 1.6 -18.25 1.15 -18.3 1.0 -18.2 0.6 -18.15 0.1 M-1.1 -10.25 L-0.9 -9.55 -0.6 -8.9 -0.65 -8.8 0.25 -6.8 1.25 -4.6 2.1 -3.3 2.6 -1.75 2.3 -1.2 1.85 -0.7 1.65 -0.8 1.3 -0.65 0.9 -0.5 0.45 -1.05 0.1 -1.6 -0.3 -1.8 -1.1 -2.85 Q-1.65 -3.5 -1.65 -4.2 -2.0 -3.3 -2.3 -3.15 -1.8 -2.85 -1.75 -2.45 -1.75 -1.7 -2.25 -1.4 -2.6 -1.6 -2.75 -2.55 L-2.55 -2.6 -2.55 -3.15 -2.6 -3.3 -2.15 -5.5 Q-2.8 -5.55 -2.8 -5.85 L-2.8 -6.25 -2.75 -6.6 -2.8 -6.75 -3.0 -6.8 -3.5 -6.7 -4.05 -6.6 -4.65 -6.8 -5.3 -7.0 -5.75 -6.9 -6.35 -5.0 -6.65 -3.0 Q-6.65 -2.2 -7.55 -0.95 -7.85 -0.55 -8.5 -0.35 L-9.5 0.05 -9.1 -1.45 Q-8.85 -2.5 -8.9 -3.05 L-9.05 -3.65 -9.15 -4.15 -8.95 -5.5 -9.0 -5.5 -8.95 -5.55 -8.55 -5.8 -8.45 -5.9 -8.4 -6.5 -8.3 -7.1 -8.55 -7.5 Q-8.6 -8.2 -7.65 -8.35 L-8.5 -8.85 -8.15 -10.05 -8.1 -10.25 -7.85 -10.15 -7.7 -10.35 -7.95 -11.05 -7.8 -11.4 -8.15 -12.45 -7.85 -12.6 -8.55 -12.95 -8.55 -13.25 Q-8.6 -13.75 -8.9 -13.85 L-9.5 -14.05 Q-9.85 -14.2 -9.85 -14.6 L-7.95 -14.2 -6.1 -13.9 Q-5.9 -13.95 -5.65 -14.25 -5.05 -14.3 -4.0 -13.75 -3.0 -13.25 -2.4 -13.25 L-2.0 -13.3 -1.1 -12.45 Q-0.9 -12.0 -0.95 -11.25 L-1.4 -10.55 -1.25 -10.45 -1.1 -10.25 M0.0 -10.4 Q0.05 -9.1 0.3 -8.65 L0.3 -8.85 0.4 -8.5 0.55 -8.15 0.45 -7.7 0.25 -7.4 Q0.0 -7.4 -0.25 -8.7 L-0.6 -10.25 -0.55 -10.8 -0.05 -10.4 0.0 -10.4 0.1 -10.5 0.15 -10.5 0.0 -10.4 M0.2 -12.45 L0.25 -12.45 0.55 -12.65 0.9 -12.9 0.95 -12.85 0.45 -11.95 -0.1 -11.05 0.2 -12.45 M-5.1 -10.7 L-5.15 -9.8 -5.15 -8.7 -3.8 -8.65 -2.8 -8.75 -3.0 -10.1 -3.65 -11.0 -4.55 -11.65 -4.75 -11.15 -5.1 -10.7 M-5.45 -4.95 L-5.3 -5.0 -5.3 -5.15 -5.25 -5.5 -4.7 -5.2 -4.9 -4.1 -5.25 -3.15 -5.5 -3.7 -5.4 -4.3 -5.45 -4.95 M-15.35 -10.2 L-15.35 -10.35 -15.3 -10.7 Q-14.8 -10.45 -14.8 -10.0 L-15.7 -9.2 -15.8 -9.4 -15.6 -9.75 -15.45 -10.15 -15.35 -10.2 M-1.05 -0.25 L-0.95 -0.9 Q-0.25 -0.6 -0.25 -0.15 -0.2 0.6 -0.7 0.95 L-1.05 0.5 -1.2 -0.2 -1.05 -0.25 M-5.8 -1.6 Q-5.4 -1.3 -5.35 -0.3 L-5.4 -0.1 -5.5 -0.1 -5.7 -0.05 -5.9 0.0 Q-6.1 0.0 -6.15 -0.15 L-6.0 -0.6 -6.0 -0.75 -5.9 -1.15 -5.8 -1.6 M-4.55 1.3 L-4.85 1.1 -4.65 0.65 -4.65 0.5 -4.6 0.05 -4.5 -0.4 Q-4.05 -0.05 -4.05 0.95 L-4.1 1.2 -4.15 1.2 -4.35 1.25 -4.55 1.3" fill="#000000" fill-rule="evenodd" stroke="none"/>
    <path d="M0.55 8.4 Q19.15 7.75 32.25 2.6 45.3 -2.5 45.1 -9.2 44.8 -15.95 31.5 -20.25 18.1 -24.5 -0.55 -23.9 -19.25 -23.25 -32.3 -18.1 -45.35 -12.95 -45.15 -6.2 -44.95 0.5 -31.55 4.75 -21.0 8.15 -7.05 8.5 L8.4 23.9 -0.55 8.45 0.55 8.4 Z" fill="none" stroke="#000000" stroke-linecap="round" stroke-linejoin="round" stroke-width="1.7000000000000002"/>
  </g>
</svg>
