<?xml version="1.0" encoding="UTF-8" standalone="no"?>
<svg xmlns:ffdec="https://www.free-decompiler.com/flash" xmlns:xlink="http://www.w3.org/1999/xlink" ffdec:objectType="shape" height="46.65px" width="412.85px" xmlns="http://www.w3.org/2000/svg">
  <g transform="matrix(1.0, 0.0, 0.0, 1.0, 224.4, -86.7)">
    <path d="M161.8 122.75 L155.55 133.35 -192.65 133.35 -209.5 122.7 161.8 122.75" fill="#000000" fill-rule="evenodd" stroke="none"/>
    <path d="M-219.65 109.95 L-222.85 109.25 Q-223.65 109.05 -224.1 108.35 -224.55 107.65 -224.35 106.85 -224.15 106.05 -223.45 105.6 -222.75 105.15 -221.95 105.35 L-221.65 105.45 Q-205.5 109.1 -176.2 110.4 L-175.0 110.4 -149.7 111.05 56.9 111.05 70.0 100.3 Q70.5 99.9 71.15 99.85 167.5 94.4 185.25 89.4 L185.85 89.2 187.4 89.35 Q188.1 89.7 188.35 90.5 188.6 91.3 188.25 92.05 L187.05 93.0 185.65 93.4 Q166.6 98.4 72.05 103.85 L58.9 114.6 57.6 115.05 -147.0 115.05 -149.7 115.05 Q-158.5 115.05 -175.0 114.45 -203.2 113.3 -219.65 109.95" fill="#e6e6e6" fill-rule="evenodd" stroke="none"/>
    <path d="M185.65 93.4 Q184.2 96.8 177.4 98.2 L161.8 122.75 -209.5 122.7 Q-216.95 116.35 -219.65 109.95 -203.2 113.3 -175.0 114.45 -158.5 115.05 -149.7 115.05 L-147.0 115.05 57.6 115.05 58.9 114.6 72.05 103.85 Q166.6 98.4 185.65 93.4" fill="url(#gradient0)" fill-rule="evenodd" stroke="none"/>
    <path d="M-221.65 105.45 L-212.85 98.7 -156.6 101.55 -148.6 106.85 49.0 106.8 62.85 95.85 178.35 86.75 Q183.0 86.4 185.25 89.4 167.5 94.4 71.15 99.85 70.5 99.9 70.0 100.3 L56.9 111.05 -149.7 111.05 -175.0 110.4 -176.2 110.4 Q-205.5 109.1 -221.65 105.45" fill="#eeeeee" fill-rule="evenodd" stroke="none"/>
    <path d="M185.65 93.4 Q184.2 96.8 177.4 98.2 L161.8 122.75 155.55 133.35 M-192.65 133.35 L-209.5 122.7 Q-216.95 116.35 -219.65 109.95 L-222.85 109.25 Q-223.65 109.05 -224.1 108.35 -224.55 107.65 -224.35 106.85 -224.15 106.05 -223.45 105.6 -222.75 105.15 -221.95 105.35 L-221.65 105.45 -212.85 98.7 -156.6 101.55 -148.6 106.85 49.0 106.8 62.85 95.85 178.35 86.75 Q183.0 86.4 185.25 89.4 L185.85 89.2 187.4 89.35 Q188.1 89.7 188.35 90.5 188.6 91.3 188.25 92.05 L187.05 93.0 185.65 93.4 Q166.6 98.4 72.05 103.85 L58.9 114.6 57.6 115.05 -147.0 115.05 -149.7 115.05 Q-158.5 115.05 -175.0 114.45 -203.2 113.3 -219.65 109.95 M185.25 89.4 Q167.5 94.4 71.15 99.85 70.5 99.9 70.0 100.3 L56.9 111.05 -149.7 111.05 -175.0 110.4 -176.2 110.4 Q-205.5 109.1 -221.65 105.45" fill="none" stroke="#000000" stroke-linecap="round" stroke-linejoin="round" stroke-width="0.05"/>
  </g>
  <defs>
    <linearGradient gradientTransform="matrix(0.0, -0.0179, 0.2474, 0.0, -17.0, 108.1)" gradientUnits="userSpaceOnUse" id="gradient0" spreadMethod="pad" x1="-819.2" x2="819.2">
      <stop offset="0.27058823529411763" stop-color="#e1e1e1"/>
      <stop offset="0.5803921568627451" stop-color="#b3b3b3"/>
    </linearGradient>
  </defs>
</svg>
