<?xml version="1.0" encoding="UTF-8" standalone="no"?>
<svg xmlns:ffdec="https://www.free-decompiler.com/flash" xmlns:xlink="http://www.w3.org/1999/xlink" ffdec:objectType="shape" height="41.7px" width="627.25px" xmlns="http://www.w3.org/2000/svg">
  <g transform="matrix(1.0, 0.0, 0.0, 1.0, 336.65, 12.15)">
    <path d="M-166.65 17.5 Q-155.85 15.95 -157.65 11.4 -159.85 5.95 -158.05 4.95 -156.25 3.9 -151.6 4.15 -147.0 4.4 -140.9 6.55 L-127.75 11.0 Q-122.95 12.6 -119.2 13.2 L-115.95 13.55 Q-111.25 13.7 -112.5 10.35 -113.75 7.0 -114.05 5.25 -114.4 3.45 -108.5 3.1 -102.65 2.75 -85.75 7.8 -71.65 11.95 -68.9 11.95 -65.65 11.95 -64.4 11.3 -63.55 10.9 -63.2 9.85 -62.85 8.8 -62.2 8.4 -61.1 7.75 -58.1 7.75 -55.2 7.75 -45.75 10.3 -36.4 12.8 -32.9 12.8 -29.25 12.8 -28.7 11.55 L-29.7 7.1 -29.8 6.05 -29.75 4.45 Q-29.35 1.5 -22.05 1.5 -16.75 1.45 -11.9 3.0 -9.0 3.85 -4.0 6.3 1.05 8.7 3.95 9.6 8.1 10.9 13.8 11.25 L15.05 11.3 15.5 11.3 Q22.25 11.5 21.05 8.7 L21.05 8.5 21.0 7.6 21.0 6.85 Q21.2 3.6 25.25 3.6 30.45 3.55 36.4 5.9 L45.45 9.35 Q47.6 10.05 50.65 10.55 L53.55 10.95 Q58.55 11.5 60.0 11.0 61.65 10.5 61.9 8.45 62.1 6.4 56.7 3.7 51.25 1.0 54.55 -0.25 57.8 -1.55 66.2 -0.3 74.6 0.95 88.35 6.3 100.6 11.1 105.55 11.1 108.85 11.1 110.45 10.4 111.5 9.9 112.35 8.8 113.2 7.6 114.05 7.2 115.5 6.5 118.45 6.5 122.05 6.5 127.75 8.45 L137.25 11.4 143.6 11.7 Q146.15 10.9 144.05 7.25 141.9 3.6 142.2 2.7 142.8 1.05 146.75 1.05 151.55 1.05 156.6 2.75 159.7 3.8 165.3 6.5 L171.8 9.7 Q177.0 11.9 185.15 12.45 191.0 12.4 191.1 10.25 191.2 8.05 186.85 5.6 L180.7 1.75 Q179.0 0.35 180.3 -0.8 L188.55 -1.1 Q195.5 -0.2 207.75 5.5 220.0 11.15 222.55 11.6 L225.8 11.8 227.9 10.95 Q230.3 9.4 224.45 5.25 221.7 3.45 220.35 1.25 219.05 -0.9 222.45 -1.4 225.8 -1.95 234.2 0.95 245.1 3.65 252.6 10.35 258.9 14.1 261.45 13.45 263.95 12.8 264.05 9.1 264.1 5.4 260.4 -0.7 256.7 -6.8 256.7 -9.15 256.7 -11.45 258.75 -11.8 L262.0 -11.75 Q285.5 -0.1 290.35 18.65 L290.35 29.55 -336.4 29.55 -336.4 20.2 -333.25 20.55 Q-328.55 20.7 -329.8 17.35 -331.05 14.0 -331.35 12.25 -331.7 10.45 -325.8 10.1 -319.95 9.75 -303.05 14.8 -288.95 18.95 -286.2 18.95 -282.95 18.95 -281.7 18.3 -280.85 17.9 -280.5 16.85 -280.15 15.8 -279.5 15.4 -278.4 14.75 -275.4 14.75 -272.5 14.75 -263.05 17.3 -253.7 19.8 -250.2 19.8 -246.55 19.8 -246.0 18.55 L-247.0 14.1 -247.1 13.05 -247.05 11.45 Q-246.65 8.5 -239.35 8.5 -234.05 8.45 -229.2 10.0 -226.3 10.85 -221.3 13.3 -216.25 15.7 -213.35 16.6 -209.2 17.9 -203.5 18.25 L-202.25 18.3 -201.8 18.3 Q-195.05 18.5 -196.25 15.7 L-196.25 15.5 -196.3 14.6 -196.3 13.85 Q-196.1 10.6 -192.05 10.6 -186.85 10.55 -180.9 12.9 L-171.85 16.35 -166.65 17.55 -166.65 17.5" fill="url(#gradient0)" fill-rule="evenodd" stroke="none"/>
    <path d="M290.35 18.65 Q285.5 -0.1 262.0 -11.75 L258.75 -11.8 Q256.7 -11.45 256.7 -9.15 256.7 -6.8 260.4 -0.7 264.1 5.4 264.05 9.1 263.95 12.8 261.45 13.45 258.9 14.1 252.6 10.35 245.1 3.65 234.2 0.95 225.8 -1.95 222.45 -1.4 219.05 -0.9 220.35 1.25 221.7 3.45 224.45 5.25 230.3 9.4 227.9 10.95 L225.8 11.8 222.55 11.6 Q220.0 11.15 207.75 5.5 195.5 -0.2 188.55 -1.1 L180.3 -0.8 Q179.0 0.35 180.7 1.75 L186.85 5.6 Q191.2 8.05 191.1 10.25 191.0 12.4 185.15 12.45 177.0 11.9 171.8 9.7 L165.3 6.5 Q159.7 3.8 156.6 2.75 151.55 1.05 146.75 1.05 142.8 1.05 142.2 2.7 141.9 3.6 144.05 7.25 146.15 10.9 143.6 11.7 L137.25 11.4 127.75 8.45 Q122.05 6.5 118.45 6.5 115.5 6.5 114.05 7.2 113.2 7.6 112.35 8.8 111.5 9.9 110.45 10.4 108.85 11.1 105.55 11.1 100.6 11.1 88.35 6.3 74.6 0.95 66.2 -0.3 57.8 -1.55 54.55 -0.25 51.25 1.0 56.7 3.7 62.1 6.4 61.9 8.45 61.65 10.5 60.0 11.0 58.55 11.5 53.55 10.95 L50.65 10.55 Q47.6 10.05 45.45 9.35 L36.4 5.9 Q30.45 3.55 25.25 3.6 21.2 3.6 21.0 6.85 L21.0 7.6 21.05 8.5 21.05 8.7 Q22.25 11.5 15.5 11.3 L15.05 11.3 13.8 11.25 Q8.1 10.9 3.95 9.6 1.05 8.7 -4.0 6.3 -9.0 3.85 -11.9 3.0 -16.75 1.45 -22.05 1.5 -29.35 1.5 -29.75 4.45 L-29.8 6.05 -29.7 7.1 -28.7 11.55 Q-29.25 12.8 -32.9 12.8 -36.4 12.8 -45.75 10.3 -55.2 7.75 -58.1 7.75 -61.1 7.75 -62.2 8.4 -62.85 8.8 -63.2 9.85 -63.55 10.9 -64.4 11.3 -65.65 11.95 -68.9 11.95 -71.65 11.95 -85.75 7.8 -102.65 2.75 -108.5 3.1 -114.4 3.45 -114.05 5.25 -113.75 7.0 -112.5 10.35 -111.25 13.7 -115.95 13.55 L-119.2 13.2 Q-122.95 12.6 -127.75 11.0 L-140.9 6.55 Q-147.0 4.4 -151.6 4.15 -156.25 3.9 -158.05 4.95 -159.85 5.95 -157.65 11.4 -155.85 15.95 -166.65 17.5 M-166.65 17.55 L-171.85 16.35 -180.9 12.9 Q-186.85 10.55 -192.05 10.6 -196.1 10.6 -196.3 13.85 L-196.3 14.6 -196.25 15.5 -196.25 15.7 Q-195.05 18.5 -201.8 18.3 L-202.25 18.3 -203.5 18.25 Q-209.2 17.9 -213.35 16.6 -216.25 15.7 -221.3 13.3 -226.3 10.85 -229.2 10.0 -234.05 8.45 -239.35 8.5 -246.65 8.5 -247.05 11.45 L-247.1 13.05 -247.0 14.1 -246.0 18.55 Q-246.55 19.8 -250.2 19.8 -253.7 19.8 -263.05 17.3 -272.5 14.75 -275.4 14.75 -278.4 14.75 -279.5 15.4 -280.15 15.8 -280.5 16.85 -280.85 17.9 -281.7 18.3 -282.95 18.95 -286.2 18.95 -288.95 18.95 -303.05 14.8 -319.95 9.75 -325.8 10.1 -331.7 10.45 -331.35 12.25 -331.05 14.0 -329.8 17.35 -328.55 20.7 -333.25 20.55 L-336.4 20.2 M21.05 8.5 L21.05 8.7 21.0 7.6 M-196.25 15.5 L-196.25 15.7 -196.3 14.6" fill="none" stroke="#000000" stroke-linecap="round" stroke-linejoin="round" stroke-width="0.5"/>
  </g>
  <defs>
    <linearGradient gradientTransform="matrix(0.0, 0.0169, -0.2876, 0.0, 22.8, 16.3)" gradientUnits="userSpaceOnUse" id="gradient0" spreadMethod="pad" x1="-819.2" x2="819.2">
      <stop offset="0.6666666666666666" stop-color="#97d6f0" stop-opacity="0.8"/>
      <stop offset="0.8549019607843137" stop-color="#97d6f0" stop-opacity="0.0"/>
    </linearGradient>
  </defs>
</svg>
