<?xml version="1.0" encoding="UTF-8" standalone="no"?>
<svg xmlns:ffdec="https://www.free-decompiler.com/flash" xmlns:xlink="http://www.w3.org/1999/xlink" ffdec:objectType="shape" height="45.95px" width="625.8px" xmlns="http://www.w3.org/2000/svg">
  <g transform="matrix(1.0, 0.0, 0.0, 1.0, 333.75, 19.25)">
    <path d="M-132.2 9.2 Q-123.9 11.15 -124.25 4.0 L-124.95 -6.45 Q-125.3 -9.85 -119.85 -10.45 -114.45 -11.1 -98.85 -1.65 -85.9 6.1 -83.35 6.1 -80.35 6.1 -79.2 4.9 -78.45 4.1 -78.1 2.2 -77.75 0.2 -77.2 -0.5 -76.15 -1.7 -73.4 -1.7 -70.7 -1.7 -62.0 3.0 -53.4 7.65 -50.15 7.7 -46.8 7.65 -46.3 5.35 L-47.25 -2.95 -47.3 -4.9 -47.25 -7.95 Q-46.9 -13.45 -40.2 -13.45 -35.3 -13.45 -30.85 -10.65 -28.15 -8.95 -23.55 -4.45 -18.95 0.05 -16.25 1.75 -13.55 3.45 -10.15 4.3 L-5.55 4.95 Q0.65 5.3 -0.45 0.05 L-0.45 -0.35 -0.5 -2.0 -0.5 -3.45 Q-0.35 -9.55 3.45 -9.55 8.2 -9.55 13.65 -5.15 19.1 -0.75 22.0 1.25 24.55 2.95 28.4 4.0 L29.5 4.3 Q34.1 5.35 35.45 4.4 36.95 3.4 37.15 -0.4 37.35 -4.25 32.4 -9.3 27.4 -14.35 30.4 -16.75 33.4 -19.2 41.15 -16.8 48.9 -14.45 61.55 -4.4 72.85 4.55 77.4 4.55 80.45 4.55 81.9 3.2 82.85 2.35 83.65 0.25 84.45 -1.95 85.25 -2.75 86.55 -4.1 89.25 -4.05 92.6 -4.1 97.85 -0.45 L106.6 5.1 Q110.1 7.05 112.45 5.65 114.8 4.2 112.85 -2.65 110.85 -9.55 111.15 -11.2 111.7 -14.25 115.35 -14.25 119.8 -14.25 124.45 -11.05 127.3 -9.1 132.45 -4.05 L138.5 1.9 Q143.25 6.05 150.75 7.0 156.15 7.0 156.25 2.95 156.35 -1.15 152.35 -5.8 148.3 -10.45 146.7 -13.0 145.05 -15.55 146.25 -17.75 147.45 -20.0 152.3 -18.25 157.1 -16.6 168.45 -5.95 179.75 4.65 182.55 5.45 185.35 6.25 187.1 5.85 188.85 5.4 190.1 4.25 192.35 1.35 186.95 -6.4 184.4 -9.85 183.2 -13.9 182.0 -18.0 185.1 -18.9 188.2 -19.9 200.85 -10.25 L208.05 -4.7 Q216.55 3.55 227.3 7.5 L227.9 7.65 Q232.5 8.85 232.75 1.15 232.95 -6.55 237.0 -4.85 240.0 -3.55 243.45 0.45 L248.15 5.8 249.0 6.8 248.15 5.8 249.35 7.15 249.0 6.8 251.35 9.3 251.4 9.35 Q254.5 11.4 258.1 10.5 261.7 9.55 262.5 6.9 263.3 4.2 263.35 1.45 263.4 -1.4 261.95 -5.25 260.45 -9.15 259.75 -12.35 259.0 -15.6 260.3 -16.4 261.6 -17.25 265.15 -17.35 268.65 -17.45 279.3 -4.1 288.2 7.0 291.8 21.7 L291.8 26.7 -171.4 26.7 -171.4 26.65 -171.65 26.7 -333.5 26.7 -333.5 19.05 -332.25 19.5 -332.25 19.6 Q-323.95 21.55 -324.3 14.4 L-325.0 3.95 Q-325.35 0.55 -319.9 -0.05 -314.5 -0.7 -298.9 8.75 -285.95 16.5 -283.4 16.5 -280.4 16.5 -279.25 15.3 -278.5 14.5 -278.15 12.6 -277.8 10.6 -277.25 9.9 -276.2 8.7 -273.45 8.7 -270.75 8.7 -262.05 13.4 -253.45 18.05 -250.2 18.1 -246.85 18.05 -246.35 15.75 L-247.3 7.45 -247.35 5.5 -247.3 2.45 Q-246.95 -3.05 -240.25 -3.05 -235.35 -3.05 -230.9 -0.25 -228.2 1.45 -223.6 5.95 -219.0 10.45 -216.3 12.15 -213.6 13.85 -210.2 14.7 L-205.6 15.35 Q-199.4 15.7 -200.5 10.45 L-200.5 10.05 -200.55 8.4 -200.55 6.95 Q-200.4 0.85 -196.6 0.85 -191.85 0.85 -186.4 5.25 L-178.05 11.65 Q-175.5 13.35 -171.65 14.4 L-171.65 14.25 Q-164.8 14.5 -167.1 5.5 -169.65 -4.4 -168.0 -6.35 -166.35 -8.3 -162.05 -7.8 -157.8 -7.3 -152.2 -3.35 L-140.1 5.0 Q-135.65 8.0 -132.2 9.1 L-132.2 9.2 M246.75 20.85 L246.75 20.55 244.25 20.55 246.75 20.85" fill="url(#gradient0)" fill-rule="evenodd" stroke="none"/>
    <path d="M248.15 5.8 L243.45 0.45 Q240.0 -3.55 237.0 -4.85 232.95 -6.55 232.75 1.15 232.5 8.85 227.9 7.65 L227.3 7.5 Q216.55 3.55 208.05 -4.7 L200.85 -10.25 Q188.2 -19.9 185.1 -18.9 182.0 -18.0 183.2 -13.9 184.4 -9.85 186.95 -6.4 192.35 1.35 190.1 4.25 188.85 5.4 187.1 5.85 185.35 6.25 182.55 5.45 179.75 4.65 168.45 -5.95 157.1 -16.6 152.3 -18.25 147.45 -20.0 146.25 -17.75 145.05 -15.55 146.7 -13.0 148.3 -10.45 152.35 -5.8 156.35 -1.15 156.25 2.95 156.15 7.0 150.75 7.0 143.25 6.05 138.5 1.9 L132.45 -4.05 Q127.3 -9.1 124.45 -11.05 119.8 -14.25 115.35 -14.25 111.7 -14.25 111.15 -11.2 110.85 -9.55 112.85 -2.65 114.8 4.2 112.45 5.65 110.1 7.05 106.6 5.1 L97.85 -0.45 Q92.6 -4.1 89.25 -4.05 86.55 -4.1 85.25 -2.75 84.45 -1.95 83.65 0.25 82.85 2.35 81.9 3.2 80.45 4.55 77.4 4.55 72.85 4.55 61.55 -4.4 48.9 -14.45 41.15 -16.8 33.4 -19.2 30.4 -16.75 27.4 -14.35 32.4 -9.3 37.35 -4.25 37.15 -0.4 36.95 3.4 35.45 4.4 34.1 5.35 29.5 4.3 L28.4 4.0 Q24.55 2.95 22.0 1.25 19.1 -0.75 13.65 -5.15 8.2 -9.55 3.45 -9.55 -0.35 -9.55 -0.5 -3.45 L-0.5 -2.0 -0.45 -0.35 -0.45 0.05 Q0.65 5.3 -5.55 4.95 L-10.15 4.3 Q-13.55 3.45 -16.25 1.75 -18.95 0.05 -23.55 -4.45 -28.15 -8.95 -30.85 -10.65 -35.3 -13.45 -40.2 -13.45 -46.9 -13.45 -47.25 -7.95 L-47.3 -4.9 -47.25 -2.95 -46.3 5.35 Q-46.8 7.65 -50.15 7.7 -53.4 7.65 -62.0 3.0 -70.7 -1.7 -73.4 -1.7 -76.15 -1.7 -77.2 -0.5 -77.75 0.2 -78.1 2.2 -78.45 4.1 -79.2 4.9 -80.35 6.1 -83.35 6.1 -85.9 6.1 -98.85 -1.65 -114.45 -11.1 -119.85 -10.45 -125.3 -9.85 -124.95 -6.45 L-124.25 4.0 Q-123.9 11.15 -132.2 9.2 M-132.2 9.1 Q-135.65 8.0 -140.1 5.0 L-152.2 -3.35 Q-157.8 -7.3 -162.05 -7.8 -166.35 -8.3 -168.0 -6.35 -169.65 -4.4 -167.1 5.5 -164.8 14.5 -171.65 14.25 M-171.65 14.4 Q-175.5 13.35 -178.05 11.65 L-186.4 5.25 Q-191.85 0.85 -196.6 0.85 -200.4 0.85 -200.55 6.95 L-200.55 8.4 -200.5 10.05 -200.5 10.45 Q-199.4 15.7 -205.6 15.35 L-210.2 14.7 Q-213.6 13.85 -216.3 12.15 -219.0 10.45 -223.6 5.95 -228.2 1.45 -230.9 -0.25 -235.35 -3.05 -240.25 -3.05 -246.95 -3.05 -247.3 2.45 L-247.35 5.5 -247.3 7.45 -246.35 15.75 Q-246.85 18.05 -250.2 18.1 -253.45 18.05 -262.05 13.4 -270.75 8.7 -273.45 8.7 -276.2 8.7 -277.25 9.9 -277.8 10.6 -278.15 12.6 -278.5 14.5 -279.25 15.3 -280.4 16.5 -283.4 16.5 -285.95 16.5 -298.9 8.75 -314.5 -0.7 -319.9 -0.05 -325.35 0.55 -325.0 3.95 L-324.3 14.4 Q-323.95 21.55 -332.25 19.6 M-332.25 19.5 L-333.5 19.05 M248.15 5.8 L249.35 7.15 M-0.45 -0.35 L-0.5 0.0 -0.45 0.05 M-200.55 8.4 L-200.55 10.4 -200.5 10.05 M-200.55 10.4 L-200.5 10.45 M-0.5 -2.0 L-0.5 0.0" fill="none" stroke="#000000" stroke-linecap="round" stroke-linejoin="round" stroke-width="0.5"/>
    <path d="M291.8 21.7 Q288.2 7.0 279.3 -4.1 268.65 -17.45 265.15 -17.35 261.6 -17.25 260.3 -16.4 259.0 -15.6 259.75 -12.35 260.45 -9.15 261.95 -5.25 263.4 -1.4 263.35 1.45 263.3 4.2 262.5 6.9 261.7 9.55 258.1 10.5 254.5 11.4 251.4 9.35 L251.35 9.3 249.0 6.8 248.15 5.8" fill="none" stroke="#000000" stroke-linecap="round" stroke-linejoin="round" stroke-width="0.5"/>
  </g>
  <defs>
    <linearGradient gradientTransform="matrix(0.0, 0.0317, -0.265, 0.0, 437.25, 4.9)" gradientUnits="userSpaceOnUse" id="gradient0" spreadMethod="pad" x1="-819.2" x2="819.2">
      <stop offset="0.6666666666666666" stop-color="#97d6f0" stop-opacity="0.8"/>
      <stop offset="0.8549019607843137" stop-color="#97d6f0" stop-opacity="0.0"/>
    </linearGradient>
  </defs>
</svg>
