<?xml version="1.0" encoding="UTF-8" standalone="no"?>
<svg xmlns:ffdec="https://www.free-decompiler.com/flash" xmlns:xlink="http://www.w3.org/1999/xlink" ffdec:objectType="shape" height="32.95px" width="596.85px" xmlns="http://www.w3.org/2000/svg">
  <g transform="matrix(1.0, 0.0, 0.0, 1.0, 325.8, 7.0)">
    <path d="M-162.25 15.05 Q-156.0 15.05 -153.95 13.9 -151.9 12.7 -152.45 11.05 L-153.55 7.3 Q-154.2 5.25 -150.65 4.05 -147.1 2.85 -138.85 5.65 -130.6 8.4 -127.45 9.7 L-117.3 13.85 Q-110.25 16.65 -112.8 9.85 -115.35 3.05 -113.65 1.7 -112.0 0.35 -107.75 0.7 -103.5 1.05 -97.85 3.75 L-85.75 9.5 Q-81.35 11.55 -77.9 12.35 L-74.9 12.8 Q-70.6 13.0 -71.7 8.7 L-73.15 2.05 Q-73.5 -0.25 -68.05 -0.7 -62.65 -1.15 -47.05 5.35 -34.1 10.7 -31.55 10.75 -28.55 10.75 -27.4 9.9 -26.65 9.35 -26.3 8.05 -25.95 6.65 -25.4 6.2 -24.35 5.35 -21.6 5.35 -18.9 5.35 -10.25 8.6 -1.6 11.8 1.6 11.8 4.95 11.8 5.45 10.2 L4.55 4.45 4.45 3.15 Q4.4 1.9 4.5 1.05 4.9 -2.75 11.6 -2.75 16.45 -2.75 20.95 -0.8 23.65 0.35 28.25 3.45 32.85 6.55 35.55 7.7 39.9 9.65 46.2 9.9 52.4 10.15 51.3 6.55 L51.25 5.15 51.25 4.15 Q51.45 -0.05 55.2 -0.05 59.95 -0.05 65.45 2.95 70.9 6.0 73.8 7.35 76.5 8.65 80.7 9.4 L81.25 9.5 Q85.85 10.2 87.2 9.55 88.7 8.85 88.9 6.25 89.1 3.6 84.15 0.1 79.15 -3.35 82.15 -5.0 85.15 -6.7 92.9 -5.05 100.65 -3.45 113.3 3.5 124.6 9.65 129.15 9.65 132.15 9.65 133.65 8.75 134.6 8.15 135.4 6.7 136.2 5.15 136.95 4.65 138.3 3.7 141.0 3.7 144.35 3.7 149.6 6.2 L158.35 10.05 Q161.85 11.35 164.2 10.4 166.55 9.4 164.6 4.7 162.6 -0.05 162.9 -1.2 163.45 -3.3 167.1 -3.3 171.55 -3.3 176.2 -1.1 179.0 0.2 184.2 3.7 L190.2 7.8 Q194.95 10.7 202.5 11.35 207.85 11.35 207.95 8.55 208.05 5.7 204.05 2.5 200.0 -0.7 198.4 -2.45 196.8 -4.2 198.0 -5.7 199.15 -7.25 204.0 -6.05 208.8 -4.9 220.15 2.4 231.45 9.7 234.25 10.3 L238.85 10.55 Q240.6 10.25 241.85 9.45 244.05 7.45 238.65 2.1 236.1 -0.25 234.9 -3.05 233.7 -5.9 236.85 -6.5 239.95 -7.2 243.4 -6.0 263.05 2.3 268.75 15.45 L271.05 13.6 271.05 25.95 -325.55 25.95 -325.55 16.15 -320.85 17.65 -317.85 18.1 Q-313.55 18.3 -314.65 14.0 L-316.1 7.35 Q-316.45 5.05 -311.0 4.6 -305.6 4.15 -290.0 10.65 -277.05 16.0 -274.5 16.05 -271.5 16.05 -270.35 15.2 -269.6 14.65 -269.25 13.35 -268.9 11.95 -268.35 11.5 -267.3 10.65 -264.55 10.65 -261.85 10.65 -253.2 13.9 -244.55 17.1 -241.35 17.1 -238.0 17.1 -237.5 15.5 L-238.4 9.75 -238.5 8.45 -238.45 6.35 Q-238.05 2.55 -231.35 2.55 -226.5 2.55 -222.0 4.5 -219.3 5.65 -214.7 8.75 -210.1 11.85 -207.4 13.0 -203.05 14.95 -196.75 15.2 -190.55 15.45 -191.65 11.85 L-191.7 10.45 -191.7 9.45 Q-191.5 5.25 -187.75 5.25 -183.0 5.25 -177.5 8.25 L-169.15 12.65 Q-166.45 13.95 -162.25 14.7 L-162.25 15.05" fill="url(#gradient0)" fill-rule="evenodd" stroke="none"/>
    <path d="M268.75 15.45 Q263.05 2.3 243.4 -6.0 239.95 -7.2 236.85 -6.5 233.7 -5.9 234.9 -3.05 236.1 -0.25 238.65 2.1 244.05 7.45 241.85 9.45 240.6 10.25 238.85 10.55 L234.25 10.3 Q231.45 9.7 220.15 2.4 208.8 -4.9 204.0 -6.05 199.15 -7.25 198.0 -5.7 196.8 -4.2 198.4 -2.45 200.0 -0.7 204.05 2.5 208.05 5.7 207.95 8.55 207.85 11.35 202.5 11.35 194.95 10.7 190.2 7.8 L184.2 3.7 Q179.0 0.2 176.2 -1.1 171.55 -3.3 167.1 -3.3 163.45 -3.3 162.9 -1.2 162.6 -0.05 164.6 4.7 166.55 9.4 164.2 10.4 161.85 11.35 158.35 10.05 L149.6 6.2 Q144.35 3.7 141.0 3.7 138.3 3.7 136.95 4.65 136.2 5.15 135.4 6.7 134.6 8.15 133.65 8.75 132.15 9.65 129.15 9.65 124.6 9.65 113.3 3.5 100.65 -3.45 92.9 -5.05 85.15 -6.7 82.15 -5.0 79.15 -3.35 84.15 0.1 89.1 3.6 88.9 6.25 88.7 8.85 87.2 9.55 85.85 10.2 81.25 9.5 L80.7 9.4 Q76.5 8.65 73.8 7.35 70.9 6.0 65.45 2.95 59.95 -0.05 55.2 -0.05 51.45 -0.05 51.25 4.15 L51.25 5.15 51.3 6.55 Q52.4 10.15 46.2 9.9 39.9 9.65 35.55 7.7 32.85 6.55 28.25 3.45 23.65 0.35 20.95 -0.8 16.45 -2.75 11.6 -2.75 4.9 -2.75 4.5 1.05 4.4 1.9 4.45 3.15 L4.55 4.45 5.45 10.2 Q4.95 11.8 1.6 11.8 -1.6 11.8 -10.25 8.6 -18.9 5.35 -21.6 5.35 -24.35 5.35 -25.4 6.2 -25.95 6.65 -26.3 8.05 -26.65 9.35 -27.4 9.9 -28.55 10.75 -31.55 10.75 -34.1 10.7 -47.05 5.35 -62.65 -1.15 -68.05 -0.7 -73.5 -0.25 -73.15 2.05 L-71.7 8.7 Q-70.6 13.0 -74.9 12.8 L-77.9 12.35 Q-81.35 11.55 -85.75 9.5 L-97.85 3.75 Q-103.5 1.05 -107.75 0.7 -112.0 0.35 -113.65 1.7 -115.35 3.05 -112.8 9.85 -110.25 16.65 -117.3 13.85 L-127.45 9.7 Q-130.6 8.4 -138.85 5.65 -147.1 2.85 -150.65 4.05 -154.2 5.25 -153.55 7.3 L-152.45 11.05 Q-151.9 12.7 -153.95 13.9 -156.0 15.05 -162.25 15.05 M-162.25 14.7 Q-166.45 13.95 -169.15 12.65 L-177.5 8.25 Q-183.0 5.25 -187.75 5.25 -191.5 5.25 -191.7 9.45 L-191.7 10.45 -191.65 11.85 Q-190.55 15.45 -196.75 15.2 -203.05 14.95 -207.4 13.0 -210.1 11.85 -214.7 8.75 -219.3 5.65 -222.0 4.5 -226.5 2.55 -231.35 2.55 -238.05 2.55 -238.45 6.35 L-238.5 8.45 -238.4 9.75 -237.5 15.5 Q-238.0 17.1 -241.35 17.1 -244.55 17.1 -253.2 13.9 -261.85 10.65 -264.55 10.65 -267.3 10.65 -268.35 11.5 -268.9 11.95 -269.25 13.35 -269.6 14.65 -270.35 15.2 -271.5 16.05 -274.5 16.05 -277.05 16.0 -290.0 10.65 -305.6 4.15 -311.0 4.6 -316.45 5.05 -316.1 7.35 L-314.65 14.0 Q-313.55 18.3 -317.85 18.1 L-320.85 17.65 -325.55 16.15" fill="none" stroke="#000000" stroke-linecap="round" stroke-linejoin="round" stroke-width="0.5"/>
  </g>
  <defs>
    <linearGradient gradientTransform="matrix(0.0, 0.0219, -0.2649, 0.0, 54.9, 12.2)" gradientUnits="userSpaceOnUse" id="gradient0" spreadMethod="pad" x1="-819.2" x2="819.2">
      <stop offset="0.6666666666666666" stop-color="#97d6f0" stop-opacity="0.8"/>
      <stop offset="0.8549019607843137" stop-color="#97d6f0" stop-opacity="0.0"/>
    </linearGradient>
  </defs>
</svg>
