<?xml version="1.0" encoding="UTF-8" standalone="no"?>
<svg xmlns:ffdec="https://www.free-decompiler.com/flash" xmlns:xlink="http://www.w3.org/1999/xlink" ffdec:objectType="shape" height="15.5px" width="15.5px" xmlns="http://www.w3.org/2000/svg">
  <g transform="matrix(1.0, 0.0, 0.0, 1.0, 7.75, 7.75)">
    <path d="M3.55 3.55 L0.0 0.0 3.55 -3.55 0.0 0.0 3.55 3.55 M7.0 7.0 L-7.0 7.0 -7.0 -7.0 7.0 -7.0 7.0 7.0 M-3.55 -3.55 L0.0 0.0 -3.55 3.55 0.0 0.0 -3.55 -3.55" fill="#000000" fill-rule="evenodd" stroke="none"/>
    <path d="M3.55 -3.55 L0.0 0.0 3.55 3.55 M7.0 7.0 L-7.0 7.0 -7.0 -7.0 7.0 -7.0 7.0 7.0 M-3.55 3.55 L0.0 0.0 -3.55 -3.55" fill="none" stroke="#666666" stroke-linecap="round" stroke-linejoin="round" stroke-width="1.5"/>
  </g>
</svg>
