<?xml version="1.0" encoding="UTF-8" standalone="no"?>
<svg xmlns:ffdec="https://www.free-decompiler.com/flash" xmlns:xlink="http://www.w3.org/1999/xlink" ffdec:objectType="shape" height="272.8px" width="307.95px" xmlns="http://www.w3.org/2000/svg">
  <g transform="matrix(1.0, 0.0, 0.0, 1.0, 153.95, 141.7)">
    <path d="M107.15 -107.4 L79.45 -93.75 98.0 -75.55 99.1 -74.15 Q78.75 -60.0 67.15 -60.3 62.2 -60.3 57.7 -61.4 L57.45 -61.45 56.9 -60.4 56.95 -59.25 56.95 -57.25 Q57.9 -32.8 54.6 -8.45 47.1 46.6 -10.25 52.8 L-10.65 52.95 -12.6 53.65 Q-18.45 55.55 -24.5 55.2 -29.95 54.9 -38.0 57.95 -40.45 58.85 -43.1 60.1 -54.6 65.35 -57.9 70.85 -61.25 76.35 -68.7 85.95 -76.2 95.5 -78.9 97.7 -81.65 99.85 -90.05 109.05 -98.5 118.25 -109.7 115.6 -120.9 112.95 -130.2 107.35 -139.5 101.7 -144.65 95.45 -149.95 89.0 -152.35 82.2 -154.95 74.75 -153.35 68.75 L-152.35 68.75 Q-145.85 67.55 -134.35 67.65 L-113.8 66.8 Q-106.35 65.85 -96.4 59.7 -87.0 53.85 -82.8 29.7 -82.2 28.25 -82.0 26.8 -76.5 -19.9 -43.9 -47.5 -21.75 -66.2 12.75 -77.4 L28.7 -82.85 28.35 -83.65 Q22.3 -111.25 37.25 -126.6 52.2 -142.0 69.05 -141.7 85.9 -141.35 97.6 -129.15 106.55 -119.8 108.45 -107.7 L107.15 -107.4 M29.65 -83.25 L28.7 -82.85 29.65 -83.25 M75.65 -119.85 Q74.65 -120.55 73.5 -120.9 L70.6 -121.3 68.35 -121.1 Q66.05 -120.65 64.15 -118.95 61.6 -116.35 61.55 -112.65 61.4 -108.9 63.75 -106.3 65.7 -104.35 68.15 -103.8 L70.25 -103.55 73.3 -104.05 Q74.4 -104.45 75.35 -105.2 L76.45 -106.15 Q79.3 -108.55 79.45 -112.25 79.5 -116.0 76.85 -118.85 L75.65 -119.85 M-38.25 55.75 L-38.0 57.95 -38.25 55.75" fill="url(#gradient0)" fill-rule="evenodd" stroke="none"/>
    <path d="M75.65 -119.85 L76.85 -118.85 Q79.5 -116.0 79.45 -112.25 79.3 -108.55 76.45 -106.15 L75.35 -105.2 Q74.4 -104.45 73.3 -104.05 L70.25 -103.55 68.15 -103.8 Q65.7 -104.35 63.75 -106.3 61.4 -108.9 61.55 -112.65 61.6 -116.35 64.15 -118.95 66.05 -120.65 68.35 -121.1 L70.6 -121.3 73.5 -120.9 Q74.65 -120.55 75.65 -119.85" fill="#000000" fill-rule="evenodd" stroke="none"/>
    <path d="M108.35 -107.15 L107.75 -107.35 107.15 -107.4 108.45 -107.7 108.45 -107.5 108.35 -107.15" fill="url(#gradient1)" fill-rule="evenodd" stroke="none"/>
    <path d="M108.35 -107.15 L108.5 -107.1 154.0 -90.75 99.35 -73.8 99.4 -74.4 99.1 -74.15 98.0 -75.55 79.45 -93.75 107.15 -107.4 107.75 -107.35 108.35 -107.15" fill="#ff9933" fill-rule="evenodd" stroke="none"/>
    <path d="M99.35 -73.8 L154.0 -90.75 108.5 -107.1 108.35 -107.15 M107.75 -107.35 L107.15 -107.4 M99.1 -74.15 L99.4 -74.4 M99.35 -73.8 L99.1 -74.15 Q78.75 -60.0 67.15 -60.3 62.2 -60.3 57.7 -61.4 L57.45 -61.45 M56.9 -60.4 L56.95 -59.25 56.95 -57.25 Q57.9 -32.8 54.6 -8.45 47.1 46.6 -10.25 52.8 L-10.65 52.95 -12.6 53.65 Q-18.45 55.55 -24.5 55.2 -29.95 54.9 -38.0 57.95 L-31.25 119.7 -29.2 131.1 M108.45 -107.5 L108.5 -107.1 M108.45 -107.5 L108.45 -107.7 Q106.55 -119.8 97.6 -129.15 85.9 -141.35 69.05 -141.7 52.2 -142.0 37.25 -126.6 22.3 -111.25 28.35 -83.65 M28.7 -82.85 L29.65 -83.25 M28.7 -82.85 L12.75 -77.4 Q-21.75 -66.2 -43.9 -47.5 -76.5 -19.9 -82.0 26.8 -82.2 28.25 -82.8 29.7 -87.0 53.85 -96.4 59.7 -106.35 65.85 -113.8 66.8 L-134.35 67.65 Q-145.85 67.55 -152.35 68.75 M-153.35 68.75 Q-154.95 74.75 -152.35 82.2 -149.95 89.0 -144.65 95.45 -139.5 101.7 -130.2 107.35 -120.9 112.95 -109.7 115.6 -98.5 118.25 -90.05 109.05 -81.65 99.85 -78.9 97.7 -76.2 95.5 -68.7 85.95 -61.25 76.35 -57.9 70.85 -54.6 65.35 -43.1 60.1 -40.45 58.85 -38.0 57.95 L-38.25 55.75 M-12.25 54.75 L38.45 125.3" fill="none" stroke="#333333" stroke-linecap="round" stroke-linejoin="round" stroke-width="0.05"/>
  </g>
  <defs>
    <linearGradient gradientTransform="matrix(-0.0921, 0.1711, -0.0818, -0.044, -21.85, -15.05)" gradientUnits="userSpaceOnUse" id="gradient0" spreadMethod="pad" x1="-819.2" x2="819.2">
      <stop offset="0.5490196078431373" stop-color="#cccccc"/>
      <stop offset="0.9254901960784314" stop-color="#999999"/>
    </linearGradient>
    <linearGradient gradientTransform="matrix(0.1602, 0.0, 0.0, 0.1574, -22.75, -12.75)" gradientUnits="userSpaceOnUse" id="gradient1" spreadMethod="pad" x1="-819.2" x2="819.2">
      <stop offset="0.16470588235294117" stop-color="#cccccc"/>
      <stop offset="1.0" stop-color="#999999"/>
    </linearGradient>
  </defs>
</svg>
