<?xml version="1.0" encoding="UTF-8" standalone="no"?>
<svg xmlns:ffdec="https://www.free-decompiler.com/flash" xmlns:xlink="http://www.w3.org/1999/xlink" ffdec:objectType="shape" height="54.5px" width="83.15px" xmlns="http://www.w3.org/2000/svg">
  <g transform="matrix(1.0, 0.0, 0.0, 1.0, 266.8, 167.0)">
    <path d="M-200.35 -162.3 Q-199.8 -161.75 -199.85 -160.95 -199.9 -160.25 -200.45 -159.75 -201.0 -159.2 -201.75 -159.25 -202.5 -159.3 -203.0 -159.85 -203.5 -160.35 -203.45 -161.1 L-202.9 -162.4 Q-202.35 -162.9 -201.55 -162.85 -200.85 -162.8 -200.35 -162.3" fill="#000000" fill-rule="evenodd" stroke="none"/>
    <path d="M-197.4 -151.55 L-199.05 -151.5 -201.65 -154.85 -194.9 -157.95 -194.8 -157.9 -183.65 -152.1 -197.4 -151.55" fill="#ff9933" fill-rule="evenodd" stroke="none"/>
    <path d="M-200.35 -162.3 Q-200.85 -162.8 -201.55 -162.85 -202.35 -162.9 -202.9 -162.4 L-203.45 -161.1 Q-203.5 -160.35 -203.0 -159.85 -202.5 -159.3 -201.75 -159.25 -201.0 -159.2 -200.45 -159.75 -199.9 -160.25 -199.85 -160.95 -199.8 -161.75 -200.35 -162.3 M-194.9 -157.95 L-201.65 -154.85 -199.05 -151.5 Q-201.0 -150.45 -203.3 -150.55 L-205.3 -150.85 Q-208.7 -148.15 -213.7 -145.65 L-216.0 -144.65 -217.35 -144.5 -217.3 -144.2 Q-216.65 -138.45 -215.2 -135.0 -213.45 -130.95 -211.65 -123.9 -209.4 -115.25 -210.25 -112.5 -212.6 -114.65 -219.15 -119.05 L-230.15 -126.8 Q-243.45 -137.1 -243.45 -146.05 -243.45 -147.65 -242.05 -149.65 L-240.15 -151.95 -235.5 -156.4 -240.15 -151.95 -242.05 -149.65 Q-244.55 -150.55 -246.4 -150.6 L-251.3 -150.8 -254.75 -150.2 Q-257.2 -149.65 -259.7 -148.45 -262.25 -147.25 -266.8 -146.0 -265.45 -152.6 -261.05 -155.5 -256.65 -158.4 -251.45 -157.35 L-241.5 -155.85 -235.5 -156.4 -234.45 -157.6 Q-230.15 -162.55 -228.05 -164.15 -224.35 -167.0 -219.95 -167.0 -215.6 -167.0 -212.85 -161.05 L-210.9 -160.7 Q-210.4 -163.05 -208.5 -164.8 -206.0 -167.1 -202.6 -166.95 -199.2 -166.8 -196.9 -164.3 -194.65 -161.8 -194.75 -158.4 L-194.8 -158.05 -194.9 -157.95 M-217.35 -163.5 Q-217.7 -163.05 -217.85 -161.4 L-218.0 -157.2 Q-218.0 -149.85 -217.35 -144.5 -218.0 -149.85 -218.0 -157.2 L-217.85 -161.4 Q-217.7 -163.05 -217.35 -163.5" fill="#cccccc" fill-rule="evenodd" stroke="none"/>
    <path d="M-199.05 -151.5 L-197.4 -151.55 Q-195.05 -143.2 -193.15 -137.7 -191.25 -132.3 -187.25 -123.25 L-187.45 -123.15 Q-193.25 -122.4 -204.25 -130.6 -215.3 -138.85 -216.0 -144.65 L-213.7 -145.65 Q-208.7 -148.15 -205.3 -150.85 L-203.3 -150.55 Q-201.0 -150.45 -199.05 -151.5" fill="#aeaeae" fill-rule="evenodd" stroke="none"/>
    <path d="M-199.05 -151.5 L-197.4 -151.55 -183.65 -152.1 -194.8 -157.9 -194.9 -157.95 -194.8 -158.05 -194.75 -158.4 Q-194.65 -161.8 -196.9 -164.3 -199.2 -166.8 -202.6 -166.95 -206.0 -167.1 -208.5 -164.8 -210.4 -163.05 -210.9 -160.7 L-212.85 -161.05 Q-215.6 -167.0 -219.95 -167.0 -224.35 -167.0 -228.05 -164.15 -230.15 -162.55 -234.45 -157.6 L-235.5 -156.4 -240.15 -151.95 -242.05 -149.65 Q-243.45 -147.65 -243.45 -146.05 -243.45 -137.1 -230.15 -126.8 L-219.15 -119.05 Q-212.6 -114.65 -210.25 -112.5 -209.4 -115.25 -211.65 -123.9 -213.45 -130.95 -215.2 -135.0 -216.65 -138.45 -217.3 -144.2 L-217.35 -144.5 Q-218.0 -149.85 -218.0 -157.2 L-217.85 -161.4 Q-217.7 -163.05 -217.35 -163.5 M-199.05 -151.5 Q-201.0 -150.45 -203.3 -150.55 L-205.3 -150.85 Q-208.7 -148.15 -213.7 -145.65 L-216.0 -144.65 Q-215.3 -138.85 -204.25 -130.6 -193.25 -122.4 -187.45 -123.15 L-187.2 -123.15 -187.25 -123.25 Q-191.25 -132.3 -193.15 -137.7 -195.05 -143.2 -197.4 -151.55 M-194.8 -158.05 L-194.8 -157.9 M-235.5 -156.4 L-241.5 -155.85 -251.45 -157.35 Q-256.65 -158.4 -261.05 -155.5 -265.45 -152.6 -266.8 -146.0 -262.25 -147.25 -259.7 -148.45 -257.2 -149.65 -254.75 -150.2 L-251.3 -150.8 -246.4 -150.6 Q-244.55 -150.55 -242.05 -149.65 M-216.0 -144.65 L-217.3 -144.2" fill="none" stroke="#333333" stroke-linecap="round" stroke-linejoin="round" stroke-width="0.05"/>
  </g>
</svg>
