<?xml version="1.0" encoding="UTF-8" standalone="no"?>
<svg xmlns:ffdec="https://www.free-decompiler.com/flash" xmlns:xlink="http://www.w3.org/1999/xlink" ffdec:objectType="shape" height="52.7px" width="217.65px" xmlns="http://www.w3.org/2000/svg">
  <g transform="matrix(1.0, 0.0, 0.0, 1.0, 108.8, 26.35)">
    <path d="M101.5 -25.0 Q107.5 -25.0 107.5 -19.0 L107.5 19.0 Q107.5 25.0 101.5 25.0 L-101.45 25.0 Q-107.45 25.0 -107.45 19.0 L-107.45 -19.0 Q-107.45 -25.0 -101.45 -25.0 L101.5 -25.0" fill="#ffffff" fill-rule="evenodd" stroke="none"/>
    <path d="M101.5 -25.0 L-101.45 -25.0 Q-107.45 -25.0 -107.45 -19.0 L-107.45 19.0 Q-107.45 25.0 -101.45 25.0 L101.5 25.0 Q107.5 25.0 107.5 19.0 L107.5 -19.0 Q107.5 -25.0 101.5 -25.0 Z" fill="none" stroke="#000000" stroke-linecap="round" stroke-linejoin="round" stroke-width="2.7"/>
  </g>
</svg>
