<?xml version="1.0" encoding="UTF-8" standalone="no"?>
<svg xmlns:ffdec="https://www.free-decompiler.com/flash" xmlns:xlink="http://www.w3.org/1999/xlink" ffdec:objectType="shape" height="152.65px" width="301.3px" xmlns="http://www.w3.org/2000/svg">
  <g transform="matrix(1.0, 0.0, 0.0, 1.0, 139.65, 76.6)">
    <path d="M94.65 -68.3 L94.95 -67.9 94.65 -68.3 M90.6 -7.85 L90.6 -68.7 90.6 -70.85 Q90.6 -72.5 91.2 -73.65 91.85 -74.85 92.75 -74.85 93.65 -74.85 94.3 -73.65 94.9 -72.5 94.95 -70.85 L94.95 -67.9 94.95 -67.85 94.95 -7.85 Q94.9 -6.2 94.3 -6.0 L92.75 -5.85 91.2 -6.0 Q90.6 -6.2 90.6 -7.85 M-66.4 -69.3 L-66.1 -68.9 -66.4 -69.3 M-70.45 -8.85 L-70.45 -69.8 -70.45 -71.85 Q-70.45 -73.5 -69.85 -74.65 -69.2 -75.85 -68.3 -75.85 -67.4 -75.85 -66.75 -74.65 -66.15 -73.5 -66.1 -71.85 L-66.1 -68.9 -66.1 -8.85 Q-66.15 -7.2 -66.75 -7.0 L-68.3 -6.85 -69.85 -7.0 Q-70.45 -7.2 -70.45 -8.85" fill="#ffffff" fill-rule="evenodd" stroke="none"/>
    <path d="M94.95 -67.9 L94.65 -68.3" fill="none" stroke="#000000" stroke-linecap="round" stroke-linejoin="round" stroke-width="0.05"/>
    <path d="M94.95 -67.85 Q117.6 -33.75 148.15 -9.85 L151.95 -6.9 M-70.45 -69.8 Q-93.25 -35.85 -125.9 -15.4 -127.95 -14.15 -130.05 -15.05 M-66.1 -68.9 L-66.4 -69.3 M90.6 -68.7 Q12.45 -50.5 -65.7 -70.9" fill="none" stroke="#000000" stroke-linecap="round" stroke-linejoin="round" stroke-width="0.05"/>
    <path d="M94.95 -7.85 L94.95 -67.85 94.95 -67.9 94.95 -70.85 Q94.9 -72.5 94.3 -73.65 93.65 -74.85 92.75 -74.85 91.85 -74.85 91.2 -73.65 90.6 -72.5 90.6 -70.85 L90.6 -68.7 90.6 -7.85 M-66.1 -68.9 L-66.1 -71.85 Q-66.15 -73.5 -66.75 -74.65 -67.4 -75.85 -68.3 -75.85 -69.2 -75.85 -69.85 -74.65 -70.45 -73.5 -70.45 -71.85 L-70.45 -69.8 -70.45 -8.85 M-66.1 -8.85 L-66.1 -68.9" fill="none" stroke="#000000" stroke-linecap="round" stroke-linejoin="round" stroke-width="1.5"/>
    <path d="M129.6 36.1 Q129.6 37.55 126.85 39.5 123.65 41.75 119.85 41.75 117.1 41.75 116.35 39.75 116.1 39.15 116.1 37.5 116.1 32.25 124.85 32.25 129.85 32.25 129.6 36.1 M133.1 32.25 Q133.1 30.65 134.4 29.3 136.3 27.25 140.35 27.25 L142.15 27.35 Q142.15 25.5 142.4 24.75 143.15 22.25 145.85 22.25 149.6 22.25 150.6 32.1 150.6 33.65 149.35 34.75 148.2 35.75 146.85 35.75 L144.6 35.3 139.85 35.75 Q133.1 35.75 133.1 32.25 M94.15 24.8 Q94.8 20.25 97.85 20.25 103.0 20.25 101.6 30.85 L101.65 35.65 Q102.25 34.45 103.65 33.05 106.35 30.25 108.85 30.25 114.6 30.25 114.6 36.75 114.6 41.75 104.85 41.75 L102.8 41.4 101.35 40.5 Q101.2 40.25 101.15 39.4 100.2 41.75 97.85 41.75 96.3 41.75 95.4 40.45 94.6 42.75 90.85 42.75 86.1 42.75 86.1 39.25 86.1 35.25 90.85 35.25 92.95 35.25 94.15 35.9 L94.1 31.1 94.15 24.8 M85.6 40.75 Q85.6 42.6 84.4 43.75 83.3 44.75 81.85 44.75 77.9 44.75 75.15 41.65 73.1 39.35 73.1 38.25 73.1 34.25 77.85 34.25 83.05 34.25 84.8 37.35 85.75 38.95 85.6 40.75 M-37.15 32.25 Q-35.25 32.25 -32.75 36.55 -30.4 34.25 -23.15 34.25 L-15.75 35.05 Q-14.8 34.25 -13.15 34.25 -9.4 34.25 -9.4 38.5 -9.4 42.75 -13.15 42.75 L-15.15 42.45 -23.15 42.75 Q-30.05 42.75 -32.4 41.7 -33.6 42.75 -36.15 42.75 -38.45 42.75 -39.65 41.95 -40.6 42.75 -42.15 42.75 -44.45 42.75 -46.85 39.65 -48.9 37.05 -48.9 36.25 -48.9 34.35 -46.6 31.75 -44.45 29.25 -43.15 29.25 -40.7 29.25 -39.4 33.0 -38.55 32.25 -37.15 32.25 M-82.3 40.75 Q-84.65 41.75 -87.65 41.75 -91.1 41.75 -93.35 39.0 L-94.05 38.05 Q-95.35 38.75 -97.65 38.75 -100.95 38.75 -102.2 37.7 -104.05 37.35 -104.6 35.9 L-105.35 36.5 Q-107.05 37.75 -108.65 37.75 L-109.55 37.7 -110.65 37.75 Q-114.6 37.75 -115.6 36.15 -115.9 35.7 -115.9 34.25 -115.9 30.25 -110.65 30.25 L-110.5 30.25 Q-109.1 29.25 -107.15 29.25 -104.4 29.25 -103.65 31.35 L-103.6 31.25 Q-102.5 30.25 -101.15 30.25 -100.05 30.25 -99.25 30.6 -97.5 29.25 -96.15 29.25 -92.45 29.25 -92.3 32.55 L-86.65 32.25 -80.7 32.9 -80.45 33.3 Q-84.9 33.55 -84.9 37.25 L-83.85 39.5 -82.3 40.75" fill="#444444" fill-rule="evenodd" stroke="none"/>
    <path d="M57.85 29.25 L59.9 29.6 59.1 27.75 Q59.1 26.6 60.1 25.55 61.35 24.25 63.35 24.25 69.75 24.25 72.6 42.35 72.6 47.75 68.35 47.75 62.7 47.75 62.35 42.75 L62.35 42.55 60.85 42.75 59.45 42.65 59.6 45.5 Q59.6 50.75 55.85 50.75 53.55 50.75 52.3 48.5 L51.25 47.75 50.85 47.75 50.25 47.7 49.35 47.75 Q47.2 47.75 45.85 43.4 44.25 44.75 42.85 44.75 39.5 44.75 38.45 42.45 L17.65 46.3 Q18.15 51.75 13.85 51.75 10.7 51.75 8.85 47.75 1.95 47.75 0.35 46.15 0.1 45.9 0.1 44.25 L0.2 43.5 -2.65 43.75 Q-7.45 43.75 -8.6 42.15 -8.9 41.75 -8.9 40.25 -8.9 38.3 -6.35 36.5 -3.15 34.25 2.35 34.25 3.95 34.25 4.95 34.75 L5.4 34.25 Q6.5 33.25 7.85 33.25 L8.9 33.35 Q10.75 28.25 13.85 28.25 L14.05 28.25 Q15.2 25.25 17.85 25.25 21.75 25.25 21.9 28.65 22.8 27.25 24.85 27.25 29.85 27.25 28.6 34.1 L28.6 34.95 Q33.4 34.6 33.75 32.65 L34.1 31.0 Q34.65 30.25 36.85 30.25 38.6 30.25 39.6 31.0 40.75 29.25 42.85 29.25 L46.2 29.6 47.1 29.35 Q47.15 24.25 50.85 24.25 52.9 24.25 54.6 26.25 L54.85 26.25 Q56.35 26.25 57.4 29.3 L57.85 29.25 M7.15 41.0 L7.2 40.75 5.85 40.4 5.3 41.1 6.65 41.0 7.15 41.0 M-80.7 32.9 Q-79.75 29.7 -73.9 29.3 L-73.85 23.75 Q-73.15 19.25 -69.65 19.25 -64.5 19.25 -65.4 29.1 L-65.35 31.35 -64.1 32.65 -63.9 32.55 -63.9 32.5 Q-63.9 30.8 -62.95 28.3 L-62.9 28.0 Q-62.65 26.95 -62.05 26.3 L-61.9 26.05 -61.85 25.75 Q-61.2 22.25 -58.15 22.25 -57.35 22.25 -56.45 23.1 -55.55 22.25 -54.15 22.25 -50.5 22.25 -49.4 31.75 L-49.55 33.6 Q-49.4 34.25 -49.4 35.1 -49.4 37.1 -50.65 39.25 -52.1 41.75 -54.15 41.75 L-56.6 41.25 -59.65 41.75 Q-62.9 41.75 -65.0 39.45 L-67.2 39.75 Q-68.4 40.75 -70.15 40.75 -71.95 40.75 -72.9 38.95 L-73.45 38.8 Q-73.85 41.75 -77.15 41.75 -80.35 41.75 -82.3 40.75 L-83.85 39.5 -84.9 37.25 Q-84.9 33.55 -80.45 33.3 L-80.7 32.9" fill="#333333" fill-rule="evenodd" stroke="none"/>
    <path d="M152.25 21.2 L152.25 45.75 M132.15 21.2 L132.15 45.75 M112.1 21.2 L112.1 45.75 M92.05 21.2 L92.05 45.75 M72.0 21.2 L72.0 45.75 M51.95 21.2 L51.95 45.75 M11.8 21.2 L11.8 45.75 M31.9 21.2 L31.9 45.75 M-27.7 20.6 L-27.7 45.15 M-8.25 21.2 L-8.25 45.75 M-67.8 20.6 L-67.8 45.15 M-47.75 20.6 L-47.75 45.15 M-87.85 20.6 L-87.85 45.15 M-107.95 20.6 L-107.95 45.15 M-128.0 20.6 L-128.0 45.15" fill="none" stroke="#000000" stroke-linecap="round" stroke-linejoin="round" stroke-width="6.5"/>
    <path d="M132.15 21.2 L132.15 45.75 M152.25 21.2 L152.25 45.75 M92.05 21.2 L92.05 45.75 M112.1 21.2 L112.1 45.75 M51.95 21.2 L51.95 45.75 M72.0 21.2 L72.0 45.75 M31.9 21.2 L31.9 45.75 M11.8 21.2 L11.8 45.75 M-27.7 20.6 L-27.7 45.15 M-8.25 21.2 L-8.25 45.75 M-47.75 20.6 L-47.75 45.15 M-67.8 20.6 L-67.8 45.15 M-107.95 20.6 L-107.95 45.15 M-87.85 20.6 L-87.85 45.15 M-128.0 20.6 L-128.0 45.15" fill="none" stroke="#52a001" stroke-linecap="round" stroke-linejoin="round" stroke-width="5.0"/>
    <path d="M155.6 -10.95 L155.6 -10.35 Q155.6 -8.6 155.65 -9.85 L155.6 15.05 Q48.6 23.65 -59.8 17.4 -95.15 15.35 -131.2 11.6 L-131.2 -18.85 Q-9.0 0.75 155.6 -10.95" fill="#ffffff" fill-rule="evenodd" stroke="none"/>
    <path d="M155.6 34.3 L155.65 34.3 157.15 41.2 Q24.4 64.75 -134.6 41.05 L-131.05 33.1 -131.0 33.1 Q16.35 53.15 154.75 34.4 L155.6 34.3" fill="#4e9801" fill-rule="evenodd" stroke="none"/>
    <path d="M157.45 47.25 Q156.7 58.9 149.05 70.0 10.55 79.85 -118.1 70.55 -129.7 61.0 -134.9 47.05 24.4 70.75 157.45 47.25" fill="#3c7601" fill-rule="evenodd" stroke="none"/>
    <path d="M-131.2 11.6 Q-95.15 15.35 -59.8 17.4 48.6 23.65 155.6 15.05 L155.6 23.95 Q50.05 32.3 -59.8 26.1 L-62.3 25.95 Q-96.65 23.9 -131.2 20.4 L-131.2 11.6" fill="#52a001" fill-rule="evenodd" stroke="none"/>
    <path d="M-134.6 41.05 Q24.4 64.75 157.15 41.2 158.35 41.0 159.35 41.7 160.4 42.4 160.6 43.65 160.8 44.85 160.1 45.85 159.4 46.85 158.2 47.1 L157.45 47.25 Q24.4 70.75 -134.9 47.05 L-136.1 46.9 Q-137.3 46.7 -138.05 45.7 -138.8 44.65 -138.6 43.45 -138.45 42.25 -137.4 41.5 -136.4 40.75 -135.2 40.95 L-134.6 41.05" fill="#56a901" fill-rule="evenodd" stroke="none"/>
    <path d="M-131.2 20.4 Q-96.65 23.9 -62.3 25.95 L-59.8 26.1 Q50.05 32.3 155.6 23.95" fill="none" stroke="#000000" stroke-linecap="round" stroke-linejoin="round" stroke-width="0.05"/>
    <path d="M155.6 34.3 L154.75 34.4 Q16.35 53.15 -131.0 33.1" fill="none" stroke="#000000" stroke-linecap="round" stroke-linejoin="round" stroke-width="0.05"/>
    <path d="M155.6 15.05 L155.65 -9.85 Q155.6 -8.6 155.6 -10.35 L155.6 -10.95 M-131.2 -18.85 L-131.2 11.6 -131.2 20.4 M155.6 15.05 L155.6 23.95 155.6 24.55 M155.6 -10.35 L155.65 -9.85 M157.15 41.2 L155.65 34.3 155.6 34.3 M-131.0 33.1 L-131.05 33.1 -134.6 41.05 -135.2 40.95 Q-136.4 40.75 -137.4 41.5 -138.45 42.25 -138.6 43.45 -138.8 44.65 -138.05 45.7 -137.3 46.7 -136.1 46.9 L-134.9 47.05 Q-129.7 61.0 -118.1 70.55 10.55 79.85 149.05 70.0 156.7 58.9 157.45 47.25 L158.2 47.1 Q159.4 46.85 160.1 45.85 160.8 44.85 160.6 43.65 160.4 42.4 159.35 41.7 158.35 41.0 157.15 41.2 M-131.05 33.1 L-131.0 33.0 -131.2 32.4" fill="none" stroke="#000000" stroke-linecap="round" stroke-linejoin="round" stroke-width="2.0"/>
    <path d="M155.6 -10.95 Q-9.0 0.75 -131.2 -18.85" fill="none" stroke="#000000" stroke-linecap="round" stroke-linejoin="round" stroke-width="2.0"/>
    <path d="M-131.2 11.6 Q-95.15 15.35 -59.8 17.4 48.6 23.65 155.6 15.05" fill="none" stroke="#333333" stroke-linecap="round" stroke-linejoin="round" stroke-width="2.0"/>
    <path d="M-134.6 41.05 Q24.4 64.75 157.15 41.2 M157.45 47.25 Q24.4 70.75 -134.9 47.05" fill="none" stroke="#333333" stroke-linecap="round" stroke-linejoin="round" stroke-width="2.0"/>
    <path d="M142.7 -1.7 L142.7 9.15 128.1 10.0 128.1 -0.65 142.7 -1.7 M115.3 10.65 L107.3 11.0 100.7 11.0 100.7 0.9 115.3 0.1 115.3 10.65 M87.9 11.0 L73.9 11.0 73.9 1.85 87.9 1.4 87.9 11.0 M61.1 11.0 L47.1 11.0 47.1 2.3 61.1 2.15 61.1 11.0 M7.5 11.0 L-6.5 11.0 -6.5 1.65 7.5 2.1 7.5 11.0 M34.3 11.0 L20.3 11.0 20.3 2.25 34.3 2.35 34.3 11.0 M-101.5 -4.3 L-101.5 7.7 -117.95 6.3 -117.95 -6.1 -101.5 -4.3 M-46.7 -0.1 L-46.7 10.9 -61.3 10.15 -61.3 -1.05 -46.7 -0.1 M-74.1 -1.9 L-74.1 9.5 -88.7 8.5 -88.7 -3.25 -74.1 -1.9 M-19.3 11.0 L-33.9 11.0 -33.9 0.6 -19.3 1.25 -19.3 11.0" fill="#444444" fill-rule="evenodd" stroke="none"/>
    <path d="M4.2 -25.4 L4.2 -31.45 33.55 -31.45 33.55 -25.4 4.2 -25.4" fill="#333333" fill-rule="evenodd" stroke="none"/>
    <path d="M4.2 -25.4 L33.55 -25.4 33.85 -6.65 Q18.9 -7.6 3.45 -7.5 L4.2 -25.4" fill="#ffffff" fill-rule="evenodd" stroke="none"/>
    <path d="M33.85 -6.65 Q18.9 -7.6 3.45 -7.5" fill="none" stroke="#999999" stroke-linecap="round" stroke-linejoin="round" stroke-width="0.05"/>
    <path d="M33.55 -25.4 L33.55 -31.45 4.2 -31.45 4.2 -25.4 3.45 -7.5 M33.55 -25.4 L33.85 -6.65" fill="none" stroke="#000000" stroke-linecap="round" stroke-linejoin="round" stroke-width="2.0"/>
  </g>
</svg>
