<?xml version="1.0" encoding="UTF-8" standalone="no"?>
<svg xmlns:ffdec="https://www.free-decompiler.com/flash" xmlns:xlink="http://www.w3.org/1999/xlink" ffdec:objectType="shape" height="33.0px" width="542.1px" xmlns="http://www.w3.org/2000/svg">
  <g transform="matrix(1.0, 0.0, 0.0, 1.0, 263.45, 9.25)">
    <path d="M-263.2 12.8 Q-255.4 12.8 -252.8 11.65 -250.25 10.45 -250.9 8.8 L-252.3 5.05 Q-253.1 3.0 -248.65 1.8 -244.25 0.6 -233.9 3.4 -223.6 6.15 -219.7 7.45 L-206.95 11.6 Q-198.15 14.4 -201.3 7.6 -204.5 0.8 -202.45 -0.55 -200.35 -1.9 -195.0 -1.55 -189.7 -1.2 -182.65 1.5 L-167.55 7.25 Q-162.0 9.3 -157.7 10.1 L-153.95 10.55 Q-148.55 10.75 -149.95 6.45 L-151.8 -0.2 Q-152.2 -2.5 -145.4 -2.95 -138.6 -3.4 -119.15 3.1 -102.9 8.45 -99.75 8.5 -95.95 8.5 -94.55 7.65 -93.6 7.1 -93.15 5.8 -92.75 4.4 -92.05 3.95 -90.75 3.1 -87.3 3.1 -83.95 3.1 -73.1 6.35 -62.3 9.55 -58.3 9.55 -54.1 9.55 -53.45 7.95 L-54.6 2.2 -54.7 0.9 -54.65 -1.2 Q-54.2 -5.0 -45.8 -5.0 -39.7 -5.0 -34.1 -3.05 -30.75 -1.9 -25.0 1.2 -19.2 4.3 -15.85 5.45 -10.35 7.4 -2.5 7.65 5.25 7.9 3.85 4.3 L3.85 2.9 3.85 1.9 Q4.05 -2.3 8.7 -2.3 14.7 -2.3 21.55 0.7 L32.0 5.1 Q35.55 6.5 41.35 7.25 47.1 7.95 48.75 7.3 50.65 6.6 50.9 4.0 51.15 1.35 44.95 -2.15 38.7 -5.6 42.45 -7.25 46.2 -8.95 55.9 -7.3 65.6 -5.7 81.4 1.25 95.5 7.4 101.2 7.4 105.0 7.4 106.85 6.5 108.05 5.9 109.05 4.45 110.05 2.9 111.0 2.4 112.65 1.45 116.05 1.45 120.25 1.45 126.75 3.95 L137.75 7.8 145.05 8.15 Q147.95 7.15 145.55 2.45 143.05 -2.3 143.45 -3.45 144.15 -5.55 148.65 -5.55 154.2 -5.55 160.05 -3.35 163.55 -2.05 170.05 1.45 L177.55 5.55 Q183.55 8.45 192.9 9.1 199.65 9.1 199.75 6.3 199.9 3.45 194.9 0.25 189.8 -2.95 187.8 -4.7 185.8 -6.45 187.3 -7.95 188.75 -9.5 194.8 -8.3 200.85 -7.15 215.05 0.15 229.2 7.45 232.65 8.05 L238.4 8.3 Q240.55 8.0 242.15 7.2 244.95 5.2 238.2 -0.15 235.0 -2.5 233.45 -5.3 231.95 -8.15 235.9 -8.75 239.75 -9.45 244.1 -8.25 268.65 0.05 275.8 13.2 L278.65 11.35 278.65 23.75 -263.2 23.75 -263.2 12.8" fill="url(#gradient0)" fill-rule="evenodd" stroke="none"/>
    <path d="M275.8 13.2 Q268.65 0.05 244.1 -8.25 239.75 -9.45 235.9 -8.75 231.95 -8.15 233.45 -5.3 235.0 -2.5 238.2 -0.15 244.95 5.2 242.15 7.2 240.55 8.0 238.4 8.3 L232.65 8.05 Q229.2 7.45 215.05 0.15 200.85 -7.15 194.8 -8.3 188.75 -9.5 187.3 -7.95 185.8 -6.45 187.8 -4.7 189.8 -2.95 194.9 0.25 199.9 3.45 199.75 6.3 199.65 9.1 192.9 9.1 183.55 8.45 177.55 5.55 L170.05 1.45 Q163.55 -2.05 160.05 -3.35 154.2 -5.55 148.65 -5.55 144.15 -5.55 143.45 -3.45 143.05 -2.3 145.55 2.45 147.95 7.15 145.05 8.15 L137.75 7.8 126.75 3.95 Q120.25 1.45 116.05 1.45 112.65 1.45 111.0 2.4 110.05 2.9 109.05 4.45 108.05 5.9 106.85 6.5 105.0 7.4 101.2 7.4 95.5 7.4 81.4 1.25 65.6 -5.7 55.9 -7.3 46.2 -8.95 42.45 -7.25 38.7 -5.6 44.95 -2.15 51.15 1.35 50.9 4.0 50.65 6.6 48.75 7.3 47.1 7.95 41.35 7.25 35.55 6.5 32.0 5.1 L21.55 0.7 Q14.7 -2.3 8.7 -2.3 4.05 -2.3 3.85 1.9 L3.85 2.9 3.85 4.3 Q5.25 7.9 -2.5 7.65 -10.35 7.4 -15.85 5.45 -19.2 4.3 -25.0 1.2 -30.75 -1.9 -34.1 -3.05 -39.7 -5.0 -45.8 -5.0 -54.2 -5.0 -54.65 -1.2 L-54.7 0.9 -54.6 2.2 -53.45 7.95 Q-54.1 9.55 -58.3 9.55 -62.3 9.55 -73.1 6.35 -83.95 3.1 -87.3 3.1 -90.75 3.1 -92.05 3.95 -92.75 4.4 -93.15 5.8 -93.6 7.1 -94.55 7.65 -95.95 8.5 -99.75 8.5 -102.9 8.45 -119.15 3.1 -138.6 -3.4 -145.4 -2.95 -152.2 -2.5 -151.8 -0.2 L-149.95 6.45 Q-148.55 10.75 -153.95 10.55 L-157.7 10.1 Q-162.0 9.3 -167.55 7.25 L-182.65 1.5 Q-189.7 -1.2 -195.0 -1.55 -200.35 -1.9 -202.45 -0.55 -204.5 0.8 -201.3 7.6 -198.15 14.4 -206.95 11.6 L-219.7 7.45 Q-223.6 6.15 -233.9 3.4 -244.25 0.6 -248.65 1.8 -253.1 3.0 -252.3 5.05 L-250.9 8.8 Q-250.25 10.45 -252.8 11.65 -255.4 12.8 -263.2 12.8 M-4.6 2.9 L-4.6 4.25" fill="none" stroke="#000000" stroke-linecap="round" stroke-linejoin="round" stroke-width="0.5"/>
  </g>
  <defs>
    <linearGradient gradientTransform="matrix(0.0, 0.0219, -0.3313, 0.0, 8.4, 9.95)" gradientUnits="userSpaceOnUse" id="gradient0" spreadMethod="pad" x1="-819.2" x2="819.2">
      <stop offset="0.6666666666666666" stop-color="#97d6f0" stop-opacity="0.8"/>
      <stop offset="0.8549019607843137" stop-color="#97d6f0" stop-opacity="0.0"/>
    </linearGradient>
  </defs>
</svg>
