<?xml version="1.0" encoding="UTF-8" standalone="no"?>
<svg xmlns:ffdec="https://www.free-decompiler.com/flash" xmlns:xlink="http://www.w3.org/1999/xlink" ffdec:objectType="shape" height="577.15px" width="785.2px" xmlns="http://www.w3.org/2000/svg">
  <g transform="matrix(1.0, 0.0, 0.0, 1.0, 379.45, 153.9)">
    <path d="M78.6 -16.3 L77.65 -16.9 78.6 -16.3 M107.55 -88.0 L107.9 -93.0 234.65 -84.25 284.95 70.55 Q273.75 65.65 262.2 61.5 214.3 44.25 160.4 39.1 105.8 37.05 47.15 55.45 L77.65 -16.9 107.55 -88.0" fill="url(#gradient0)" fill-rule="evenodd" stroke="none"/>
    <path d="M45.85 66.75 L45.95 64.25 291.25 74.3 272.4 255.55 44.05 255.55 42.35 172.3 45.85 66.75" fill="url(#gradient1)" fill-rule="evenodd" stroke="none"/>
    <path d="M-197.0 -109.4 L-197.2 -113.2 -41.05 -121.85 -40.95 -119.45 38.3 31.55 Q-26.55 14.65 -108.9 15.2 -187.85 21.35 -247.35 39.1 L-197.0 -109.4" fill="url(#gradient2)" fill-rule="evenodd" stroke="none"/>
    <path d="M44.05 255.55 L44.6 283.2 -204.5 287.0 -248.6 47.9 -248.6 46.65 39.65 37.95 42.35 172.3 44.05 255.55" fill="url(#gradient3)" fill-rule="evenodd" stroke="none"/>
    <path d="M-283.8 51.65 L-304.15 194.2 -358.75 185.35 -304.15 194.2 -283.8 51.65 M-219.75 207.5 L-220.9 207.7 -219.75 207.5 -210.85 254.25 -310.6 239.25 -310.45 237.95 -310.65 239.25 -367.15 230.7 -366.9 229.1 -358.75 185.35 -320.3 -21.3 -232.25 142.3 -219.75 207.5 M-254.9 246.7 L-252.7 202.55 -220.9 207.7 -252.7 202.55 -254.9 246.7 M-310.25 236.65 L-304.15 194.2 -252.7 202.55 -248.6 120.9 -252.7 202.55 -304.15 194.2 -310.25 236.65" fill="url(#gradient4)" fill-rule="evenodd" stroke="none"/>
    <path d="M-219.75 207.5 L-220.9 207.7 -219.75 207.5" fill="url(#gradient5)" fill-rule="evenodd" stroke="none"/>
    <path d="M77.65 -16.9 L78.6 -16.3 M107.55 -88.0 L77.65 -16.9 47.15 55.45 Q105.8 37.05 160.4 39.1 214.3 44.25 262.2 61.5 273.75 65.65 284.95 70.55 L234.65 -84.25 107.9 -93.0 M170.45 -109.4 L166.65 -110.65 M39.65 37.95 L39.6 36.55 M45.95 64.25 L291.25 74.3 272.4 255.55 44.05 255.55 44.6 283.2 -204.5 287.0 -248.6 47.9 M-248.6 46.65 L-249.85 46.65 M42.1 37.85 L39.65 37.95 42.35 172.3 45.85 66.75 M44.05 255.55 L42.35 172.3 M-197.2 -113.2 L-198.25 -113.15 M-197.2 -113.2 L-41.05 -121.85 -38.45 -122.0 M-40.95 -119.45 L38.3 31.55 Q-26.55 14.65 -108.9 15.2 -187.85 21.35 -247.35 39.1 L-197.0 -109.4 M-358.75 185.35 L-304.15 194.2 -283.8 51.65 M-219.75 207.5 L-210.85 254.25 -310.6 239.25 -310.65 239.25 -367.15 230.7 -369.4 230.35 M-220.9 207.7 L-252.7 202.55 -254.9 246.7 M-219.75 207.5 L-232.25 142.3 -320.3 -21.3 -358.75 185.35 -366.9 229.1 M-248.6 120.9 L-252.7 202.55 -304.15 194.2 -310.25 236.65 M-248.6 46.65 L39.65 37.95" fill="none" stroke="#000000" stroke-linecap="round" stroke-linejoin="round" stroke-width="5.0"/>
    <path d="M-201.8 -114.35 L-123.4 -117.7 -127.2 -148.9 M-41.55 -121.25 L-123.4 -117.7 -104.1 40.35 44.1 36.2 M-66.4 349.55 L-104.1 40.35 -251.55 44.5 M249.8 269.8 L400.5 195.1" fill="none" stroke="#000000" stroke-linecap="round" stroke-linejoin="round" stroke-width="5.0"/>
    <path d="M-201.8 -114.35 L-123.4 -117.7 -127.2 -148.9 M-41.55 -121.25 L-123.4 -117.7 -104.1 40.35 44.1 36.2 M-66.65 347.4 L-104.1 40.35 -251.55 44.5" fill="none" stroke="#9e783a" stroke-linecap="round" stroke-linejoin="round" stroke-width="5.0"/>
    <path d="M-66.4 349.55 L-66.65 347.4" fill="none" stroke="#000000" stroke-linecap="round" stroke-linejoin="round" stroke-width="5.0"/>
    <path d="M249.8 269.8 L400.5 195.1" fill="none" stroke="#956f31" stroke-linecap="round" stroke-linejoin="round" stroke-width="5.0"/>
    <path d="M234.75 -85.35 L167.6 -89.4 161.55 67.1 295.5 74.9 M98.0 -93.65 L167.6 -89.4 168.45 -111.6 M34.45 59.7 L161.55 67.1 153.25 282.1 M-325.35 -33.9 L-230.7 146.6 -243.55 81.85 M-176.85 249.25 L-230.7 146.6 -199.5 309.65 M-374.45 227.85 L-212.1 254.25" fill="none" stroke="#000000" stroke-linecap="round" stroke-linejoin="round" stroke-width="5.0"/>
    <path d="M-66.4 349.55 L-66.65 347.4" fill="none" stroke="#000000" stroke-linecap="round" stroke-linejoin="round" stroke-width="5.0"/>
    <path d="M234.75 -85.35 L167.6 -89.4 161.55 67.1 295.5 74.9 M98.0 -93.65 L167.6 -89.4 168.45 -111.6 M34.45 59.7 L161.55 67.1 153.25 282.1 M-325.35 -33.9 L-230.7 146.6 -243.55 81.85 M-176.85 249.25 L-230.7 146.6 -199.5 309.65 M-374.45 227.85 L-212.1 254.25" fill="none" stroke="#956f31" stroke-linecap="round" stroke-linejoin="round" stroke-width="5.0"/>
    <path d="M-66.4 349.55 L-66.65 347.4" fill="none" stroke="#000000" stroke-linecap="round" stroke-linejoin="round" stroke-width="5.0"/>
    <path d="M70.15 306.15 L70.2 306.15 70.3 306.15 81.35 305.4 82.3 305.6 81.6 309.1 72.15 309.75 72.15 315.6 79.55 315.15 80.35 315.35 79.65 318.85 72.15 319.3 72.15 326.4 68.45 326.65 68.45 319.55 52.15 320.5 52.15 327.6 48.45 327.8 48.45 320.7 32.15 321.25 32.15 328.5 28.45 328.65 28.45 321.4 12.15 322.0 12.15 329.2 8.45 329.3 8.45 322.1 -7.85 322.7 -7.85 329.7 -11.55 329.75 -11.55 322.75 -27.85 322.85 -27.85 329.9 -31.55 329.95 -31.55 322.85 -47.85 322.95 -47.85 329.95 -51.55 329.9 -51.55 322.9 -67.85 322.8 -67.85 329.75 -71.55 329.65 -71.55 322.8 -87.85 322.7 -87.85 329.3 -91.55 329.2 -91.55 322.6 -107.85 322.1 -107.85 328.65 -111.55 328.5 -111.55 321.95 -127.85 321.2 -127.85 327.8 -131.55 327.65 -131.55 321.05 -147.85 320.3 -147.85 326.75 -151.55 326.5 -151.55 320.1 -169.4 319.3 -169.45 315.6 -151.55 316.4 -151.55 310.45 -169.55 309.4 -169.6 305.7 -169.45 305.7 -129.7 307.85 -129.6 307.85 -109.7 308.6 -49.9 309.7 -49.7 309.65 -29.7 309.6 -29.45 309.65 10.1 308.85 10.2 308.85 30.25 308.15 30.3 308.15 70.15 306.15 M68.45 315.8 L68.45 309.95 52.15 310.85 52.15 316.8 68.45 315.8 M48.45 311.05 L32.15 311.8 32.15 317.55 48.45 317.0 48.45 311.05 M28.45 317.7 L28.45 311.95 12.15 312.5 12.15 318.25 28.45 317.7 M8.45 312.6 L-7.85 313.0 -7.85 319.0 8.45 318.4 8.45 312.6 M-11.55 319.05 L-11.55 313.1 -27.85 313.3 -27.85 319.15 -11.55 319.05 M-131.55 317.35 L-131.55 311.5 -147.85 310.65 -147.85 316.6 -131.55 317.35 M-111.55 318.25 L-111.55 312.25 -127.85 311.65 -127.85 317.5 -111.55 318.25 M-91.55 318.9 L-91.55 312.8 -107.85 312.35 -107.85 318.4 -91.55 318.9 M-87.85 312.9 L-87.85 319.0 -71.55 319.1 -71.55 313.2 -87.85 312.9 M-274.05 262.4 L-274.05 269.15 -257.75 272.25 -257.75 265.3 -274.05 262.4 M-294.05 258.55 L-294.05 264.95 -277.75 268.4 -277.75 261.7 -294.05 258.55 M-194.05 275.6 L-194.05 282.55 -177.75 284.6 -177.75 277.95 -194.05 275.6 M-237.75 275.85 L-237.75 268.75 -254.05 265.95 -254.05 272.95 -237.75 275.85 M-217.75 279.1 L-217.75 272.0 -234.05 269.4 -234.05 276.5 -217.75 279.1 M-214.05 272.55 L-214.05 279.65 -197.75 282.05 -197.75 275.1 -214.05 272.55 M-215.65 268.6 L-215.55 268.6 -195.8 271.65 -195.6 271.7 -195.55 271.7 -175.6 274.55 -174.5 275.15 Q-174.05 275.65 -174.05 276.35 L-174.05 298.35 -177.75 297.95 -177.75 288.35 -194.05 286.25 -194.05 296.05 -197.75 295.6 -197.75 285.75 -214.05 283.4 -214.05 293.4 -217.75 292.85 -217.75 282.85 -234.05 280.25 -234.05 290.25 -237.75 289.65 -237.75 279.6 -254.05 276.7 -254.05 286.65 -257.75 285.95 -257.75 276.05 -274.05 272.9 -274.05 282.55 -277.75 281.75 -277.75 272.15 -294.05 268.75 -294.05 277.9 -297.75 277.0 -297.75 256.3 -297.45 255.3 -296.6 254.6 -295.55 254.5 -275.6 258.35 -275.55 258.35 -275.45 258.35 -255.75 261.9 -255.65 261.95 -255.55 261.95 -255.35 262.0 -235.85 265.35 -235.6 265.4 -235.5 265.4 -235.4 265.45 -235.25 265.45 -215.75 268.55 -215.65 268.6 M-31.55 313.3 L-47.85 313.35 -47.85 319.25 -31.55 319.15 -31.55 313.3 M-51.55 319.2 L-51.55 313.35 -67.85 313.25 -67.85 319.1 -51.55 319.2" fill="#ffffff" fill-rule="evenodd" stroke="none"/>
    <path d="M68.45 315.8 L52.15 316.8 52.15 310.85 68.45 309.95 68.45 315.8 M70.15 306.15 L30.3 308.15 30.25 308.15 10.2 308.85 10.1 308.85 -29.45 309.65 -29.7 309.6 -49.7 309.65 -49.9 309.7 -109.7 308.6 -129.6 307.85 -129.7 307.85 -169.45 305.7 -169.6 305.7 -169.55 309.4 -151.55 310.45 -151.55 316.4 -169.45 315.6 -169.4 319.3 -151.55 320.1 -151.55 326.5 -147.85 326.75 -147.85 320.3 -131.55 321.05 -131.55 327.65 -127.85 327.8 -127.85 321.2 -111.55 321.95 -111.55 328.5 -107.85 328.65 -107.85 322.1 -91.55 322.6 -91.55 329.2 -87.85 329.3 -87.85 322.7 -71.55 322.8 -71.55 329.65 -67.85 329.75 -67.85 322.8 -51.55 322.9 -51.55 329.9 -47.85 329.95 -47.85 322.95 -31.55 322.85 -31.55 329.95 -27.85 329.9 -27.85 322.85 -11.55 322.75 -11.55 329.75 -7.85 329.7 -7.85 322.7 8.45 322.1 8.45 329.3 12.15 329.2 12.15 322.0 28.45 321.4 28.45 328.65 32.15 328.5 32.15 321.25 48.45 320.7 48.45 327.8 52.15 327.6 52.15 320.5 68.45 319.55 68.45 326.65 72.15 326.4 72.15 319.3 79.65 318.85 80.35 315.35 79.55 315.15 72.15 315.6 72.15 309.75 81.6 309.1 82.3 305.6 81.35 305.4 70.3 306.15 70.2 306.15 70.15 306.15 M48.45 311.05 L32.15 311.8 32.15 317.55 48.45 317.0 48.45 311.05 M28.45 317.7 L12.15 318.25 12.15 312.5 28.45 311.95 28.45 317.7 M8.45 312.6 L-7.85 313.0 -7.85 319.0 8.45 318.4 8.45 312.6 M-215.65 268.6 L-215.75 268.55 -235.25 265.45 -235.4 265.45 -235.5 265.4 -235.6 265.4 -235.85 265.35 -255.35 262.0 -255.55 261.95 -255.65 261.95 -255.75 261.9 -275.45 258.35 -275.55 258.35 -275.6 258.35 -295.55 254.5 -296.6 254.6 -297.45 255.3 -297.75 256.3 -297.75 277.0 -294.05 277.9 -294.05 268.75 -277.75 272.15 -277.75 281.75 -274.05 282.55 -274.05 272.9 -257.75 276.05 -257.75 285.95 -254.05 286.65 -254.05 276.7 -237.75 279.6 -237.75 289.65 -234.05 290.25 -234.05 280.25 -217.75 282.85 -217.75 292.85 -214.05 293.4 -214.05 283.4 -197.75 285.75 -197.75 295.6 -194.05 296.05 -194.05 286.25 -177.75 288.35 -177.75 297.95 -174.05 298.35 -174.05 276.35 Q-174.05 275.65 -174.5 275.15 L-175.6 274.55 -195.55 271.7 -195.6 271.7 -195.8 271.65 -215.55 268.6 -215.65 268.6 M-214.05 272.55 L-197.75 275.1 -197.75 282.05 -214.05 279.65 -214.05 272.55 M-217.75 279.1 L-234.05 276.5 -234.05 269.4 -217.75 272.0 -217.75 279.1 M-237.75 275.85 L-254.05 272.95 -254.05 265.95 -237.75 268.75 -237.75 275.85 M-194.05 275.6 L-177.75 277.95 -177.75 284.6 -194.05 282.55 -194.05 275.6 M-294.05 258.55 L-277.75 261.7 -277.75 268.4 -294.05 264.95 -294.05 258.55 M-274.05 262.4 L-257.75 265.3 -257.75 272.25 -274.05 269.15 -274.05 262.4 M-87.85 312.9 L-71.55 313.2 -71.55 319.1 -87.85 319.0 -87.85 312.9 M-91.55 318.9 L-107.85 318.4 -107.85 312.35 -91.55 312.8 -91.55 318.9 M-111.55 318.25 L-127.85 317.5 -127.85 311.65 -111.55 312.25 -111.55 318.25 M-131.55 317.35 L-147.85 316.6 -147.85 310.65 -131.55 311.5 -131.55 317.35 M-11.55 319.05 L-27.85 319.15 -27.85 313.3 -11.55 313.1 -11.55 319.05 M-31.55 313.3 L-47.85 313.35 -47.85 319.25 -31.55 319.15 -31.55 313.3 M-51.55 319.2 L-67.85 319.1 -67.85 313.25 -51.55 313.35 -51.55 319.2 Z" fill="none" stroke="#000000" stroke-linecap="round" stroke-linejoin="round" stroke-width="5.0"/>
    <path d="M70.15 306.15 L70.2 306.15 70.3 306.15 81.35 305.4 82.3 305.6 81.6 309.1 72.15 309.75 72.15 315.6 79.55 315.15 80.35 315.35 79.65 318.85 72.15 319.3 72.15 326.4 68.45 326.65 68.45 319.55 52.15 320.5 52.15 327.6 48.45 327.8 48.45 320.7 32.15 321.25 32.15 328.5 28.45 328.65 28.45 321.4 12.15 322.0 12.15 329.2 8.45 329.3 8.45 322.1 -7.85 322.7 -7.85 329.7 -11.55 329.75 -11.55 322.75 -27.85 322.85 -27.85 329.9 -31.55 329.95 -31.55 322.85 -47.85 322.95 -47.85 329.95 -51.55 329.9 -51.55 322.9 -67.85 322.8 -67.85 329.75 -71.55 329.65 -71.55 322.8 -87.85 322.7 -87.85 329.3 -91.55 329.2 -91.55 322.6 -107.85 322.1 -107.85 328.65 -111.55 328.5 -111.55 321.95 -127.85 321.2 -127.85 327.8 -131.55 327.65 -131.55 321.05 -147.85 320.3 -147.85 326.75 -151.55 326.5 -151.55 320.1 -169.4 319.3 -169.45 315.6 -151.55 316.4 -151.55 310.45 -169.55 309.4 -169.6 305.7 -169.45 305.7 -129.7 307.85 -129.6 307.85 -109.7 308.6 -49.9 309.7 -49.7 309.65 -29.7 309.6 -29.45 309.65 10.1 308.85 10.2 308.85 30.25 308.15 30.3 308.15 70.15 306.15 M68.45 315.8 L68.45 309.95 52.15 310.85 52.15 316.8 68.45 315.8 M48.45 311.05 L32.15 311.8 32.15 317.55 48.45 317.0 48.45 311.05 M28.45 317.7 L28.45 311.95 12.15 312.5 12.15 318.25 28.45 317.7 M8.45 312.6 L-7.85 313.0 -7.85 319.0 8.45 318.4 8.45 312.6 M-11.55 319.05 L-11.55 313.1 -27.85 313.3 -27.85 319.15 -11.55 319.05 M-131.55 317.35 L-131.55 311.5 -147.85 310.65 -147.85 316.6 -131.55 317.35 M-111.55 318.25 L-111.55 312.25 -127.85 311.65 -127.85 317.5 -111.55 318.25 M-91.55 318.9 L-91.55 312.8 -107.85 312.35 -107.85 318.4 -91.55 318.9 M-87.85 312.9 L-87.85 319.0 -71.55 319.1 -71.55 313.2 -87.85 312.9 M-31.55 313.3 L-47.85 313.35 -47.85 319.25 -31.55 319.15 -31.55 313.3 M-51.55 319.2 L-51.55 313.35 -67.85 313.25 -67.85 319.1 -51.55 319.2" fill="#956f31" fill-rule="evenodd" stroke="none"/>
    <path d="M-274.05 262.4 L-274.05 269.15 -257.75 272.25 -257.75 265.3 -274.05 262.4 M-294.05 258.55 L-294.05 264.95 -277.75 268.4 -277.75 261.7 -294.05 258.55 M-194.05 275.6 L-194.05 282.55 -177.75 284.6 -177.75 277.95 -194.05 275.6 M-237.75 275.85 L-237.75 268.75 -254.05 265.95 -254.05 272.95 -237.75 275.85 M-217.75 279.1 L-217.75 272.0 -234.05 269.4 -234.05 276.5 -217.75 279.1 M-214.05 272.55 L-214.05 279.65 -197.75 282.05 -197.75 275.1 -214.05 272.55 M-215.65 268.6 L-215.55 268.6 -195.8 271.65 -195.6 271.7 -195.55 271.7 -175.6 274.55 -174.5 275.15 Q-174.05 275.65 -174.05 276.35 L-174.05 298.35 -177.75 297.95 -177.75 288.35 -194.05 286.25 -194.05 296.05 -197.75 295.6 -197.75 285.75 -214.05 283.4 -214.05 293.4 -217.75 292.85 -217.75 282.85 -234.05 280.25 -234.05 290.25 -237.75 289.65 -237.75 279.6 -254.05 276.7 -254.05 286.65 -257.75 285.95 -257.75 276.05 -274.05 272.9 -274.05 282.55 -277.75 281.75 -277.75 272.15 -294.05 268.75 -294.05 277.9 -297.75 277.0 -297.75 256.3 -297.45 255.3 -296.6 254.6 -295.55 254.5 -275.6 258.35 -275.55 258.35 -275.45 258.35 -255.75 261.9 -255.65 261.95 -255.55 261.95 -255.35 262.0 -235.85 265.35 -235.6 265.4 -235.5 265.4 -235.4 265.45 -235.25 265.45 -215.75 268.55 -215.65 268.6" fill="url(#gradient6)" fill-rule="evenodd" stroke="none"/>
    <path d="M-297.75 277.0 L-297.7 277.0 -297.75 277.05 -297.75 277.0 M-247.35 381.05 L-247.0 381.1 -247.3 381.2 -247.35 381.05" fill="#ffffff" fill-rule="evenodd" stroke="none"/>
    <path d="M-297.7 277.0 L-294.05 277.9 -277.75 281.75 -274.05 282.55 -257.75 285.95 -254.05 286.65 -237.75 289.65 -234.05 290.25 -217.75 292.85 -214.05 293.4 -197.75 295.6 -194.05 296.05 -177.75 297.95 -174.05 298.35 -169.75 298.75 -169.3 325.35 -151.55 326.5 -147.85 326.75 -131.55 327.65 -127.85 327.8 -111.55 328.5 -107.85 328.65 -91.55 329.2 -87.85 329.3 -85.4 329.35 -71.55 329.65 -67.85 329.75 -51.55 329.9 -47.85 329.95 -31.55 329.95 -27.85 329.9 -11.55 329.75 -7.85 329.7 8.45 329.3 12.15 329.2 28.45 328.65 32.15 328.5 48.45 327.8 52.15 327.6 68.45 326.65 72.15 326.4 78.2 326.0 80.35 315.3 82.3 305.6 87.85 277.6 Q137.75 275.45 174.4 266.85 176.2 276.35 183.65 273.95 218.75 267.2 251.25 254.6 L249.8 269.8 249.85 269.8 248.7 278.1 Q216.15 296.9 183.55 308.15 178.65 323.15 171.45 336.3 L170.75 335.95 Q-62.7 362.6 -268.1 337.2 L-278.55 315.0 -278.85 314.5 -297.75 277.05 -297.7 277.0 M177.45 302.55 L171.1 316.9 Q125.35 322.8 78.2 326.0 125.35 322.8 171.1 316.9 L177.45 302.55 M177.45 302.0 Q213.05 290.35 249.8 269.8 213.05 290.35 177.45 302.0 M-169.3 325.35 Q-223.45 321.65 -278.55 315.0 -223.45 321.65 -169.3 325.35" fill="url(#gradient7)" fill-rule="evenodd" stroke="none"/>
    <path d="M171.4 336.35 L168.45 341.45 Q157.95 358.8 143.05 372.8 121.65 392.95 91.2 406.1 L-81.9 412.95 -229.65 418.9 -234.25 409.1 -244.85 409.1 -240.35 419.5 -268.3 420.75 -277.25 387.35 -274.75 378.6 -288.3 336.7 Q-290.6 330.2 -290.6 326.25 L-290.5 324.7 Q-290.35 321.7 -287.75 320.2 -286.7 319.7 -285.45 319.7 -283.5 319.7 -282.1 320.9 -280.7 322.15 -280.7 323.85 -280.7 325.55 -282.1 326.75 L-282.85 327.35 -283.0 328.75 Q-283.0 331.0 -280.05 332.65 -276.9 334.4 -276.5 336.0 L-266.5 359.1 -257.8 359.1 -265.45 342.8 -268.1 337.2 Q-62.7 362.6 170.75 335.95 L171.4 336.35 M-247.0 381.1 L-247.45 380.9 -247.45 381.05 -254.3 366.55 -263.25 366.55 -248.05 401.65 -237.7 401.65 -247.3 381.2 -247.0 381.1 Q-39.4 403.5 143.05 372.8 -39.4 403.5 -247.0 381.1 -161.45 413.5 -81.9 412.95 -161.45 413.5 -247.0 381.1 M-265.45 342.8 Q-62.2 367.55 168.45 341.45 -62.2 367.55 -265.45 342.8" fill="url(#gradient8)" fill-rule="evenodd" stroke="none"/>
    <path d="M249.8 269.8 L249.85 269.75 249.85 269.8 249.8 269.8" fill="url(#gradient9)" fill-rule="evenodd" stroke="none"/>
    <path d="M171.45 336.3 L171.4 336.35 170.75 335.95 171.45 336.3" fill="url(#gradient10)" fill-rule="evenodd" stroke="none"/>
    <path d="M80.35 315.3 L79.55 315.15 M-297.7 277.0 L-294.05 277.9 -277.75 281.75 -274.05 282.55 -257.75 285.95 -254.05 286.65 -237.75 289.65 -234.05 290.25 -217.75 292.85 -214.05 293.4 -197.75 295.6 -194.05 296.05 -177.75 297.95 -174.05 298.35 -169.75 298.75 -169.3 325.35 -151.55 326.5 -147.85 326.75 -131.55 327.65 -127.85 327.8 -111.55 328.5 -107.85 328.65 -91.55 329.2 -87.85 329.3 -85.4 329.35 -71.55 329.65 -67.85 329.75 -51.55 329.9 -47.85 329.95 -31.55 329.95 -27.85 329.9 -11.55 329.75 -7.85 329.7 8.45 329.3 12.15 329.2 28.45 328.65 32.15 328.5 48.45 327.8 52.15 327.6 68.45 326.65 72.15 326.4 78.2 326.0 80.35 315.3 82.3 305.6 81.35 305.4 M82.3 305.6 L87.85 277.6 Q137.75 275.45 174.4 266.85 176.2 276.35 183.65 273.95 218.75 267.2 251.25 254.6 L249.8 269.8 249.85 269.75 249.85 269.8 248.7 278.1 Q216.15 296.9 183.55 308.15 178.65 323.15 171.45 336.3 L171.4 336.35 168.45 341.45 Q157.95 358.8 143.05 372.8 121.65 392.95 91.2 406.1 L-81.9 412.95 -229.65 418.9 -234.25 409.1 -244.85 409.1 -240.35 419.5 -268.3 420.75 -277.25 387.35 -274.75 378.6 -288.3 336.7 Q-290.6 330.2 -290.6 326.25 L-290.5 324.7 Q-290.35 321.7 -287.75 320.2 -286.7 319.7 -285.45 319.7 -283.5 319.7 -282.1 320.9 -280.7 322.15 -280.7 323.85 -280.7 325.55 -282.1 326.75 L-282.85 327.35 -283.0 328.75 Q-283.0 331.0 -280.05 332.65 -276.9 334.4 -276.5 336.0 L-266.5 359.1 -257.8 359.1 -265.45 342.8 -268.1 337.2 -278.55 315.0 -278.85 314.5 -297.75 277.05 -297.8 276.95 -297.75 277.0 -297.7 277.0 M-297.75 277.05 L-297.75 277.0 M249.8 269.8 Q213.05 290.35 177.45 302.0 M78.2 326.0 Q125.35 322.8 171.1 316.9 L177.45 302.55 M-278.55 315.0 L-278.85 314.5 M-247.45 380.9 L-247.35 381.05 -247.0 381.1 -247.45 380.9 -247.45 381.05 -247.35 381.05 -247.3 381.2 -237.7 401.65 -248.05 401.65 -263.25 366.55 -254.3 366.55 -247.45 381.05 M-247.0 381.1 Q-39.4 403.5 143.05 372.8 M-278.55 315.0 Q-223.45 321.65 -169.3 325.35 M-247.0 381.1 Q-161.45 413.5 -81.9 412.95 M168.45 341.45 Q-62.2 367.55 -265.45 342.8" fill="none" stroke="#000000" stroke-linecap="round" stroke-linejoin="round" stroke-width="5.0"/>
    <path d="M385.65 312.15 L222.05 327.25 252.1 286.9 266.1 268.1 403.25 242.95 386.0 310.75 385.9 310.75 385.65 312.15 M385.9 310.75 L252.1 286.9 385.9 310.75" fill="url(#gradient11)" fill-rule="evenodd" stroke="none"/>
    <path d="M386.9 310.9 L386.0 310.75 385.65 312.15 222.05 327.25 252.1 286.9 266.1 268.1 403.25 242.95 386.0 310.75 385.9 310.75 252.1 286.9" fill="none" stroke="#000000" stroke-linecap="round" stroke-linejoin="round" stroke-width="5.0"/>
    <path d="M53.25 335.3 L53.25 344.7 43.75 344.7 43.75 335.3 53.25 335.3 M23.25 336.05 L23.25 345.45 13.75 345.45 13.75 336.05 23.25 336.05 M-96.75 336.8 L-96.75 346.2 -106.25 346.2 -106.25 336.8 -96.75 336.8 M-126.75 336.05 L-126.75 345.45 -136.25 345.45 -136.25 336.05 -126.75 336.05 M-36.75 346.2 L-46.25 346.2 -46.25 336.8 -36.75 336.8 -36.75 346.2 M-6.75 336.8 L-6.75 346.2 -16.25 346.2 -16.25 336.8 -6.75 336.8 M-66.75 336.8 L-66.75 346.2 -76.25 346.2 -76.25 336.8 -66.75 336.8" fill="#664a22" fill-rule="evenodd" stroke="none"/>
    <path d="M-166.25 335.3 L-156.75 335.3 -156.75 344.7 -166.25 344.7 -166.25 335.3" fill="#59411e" fill-rule="evenodd" stroke="none"/>
    <path d="M53.25 335.3 L53.25 344.7 43.75 344.7 43.75 335.3 53.25 335.3 M23.25 336.05 L23.25 345.45 13.75 345.45 13.75 336.05 23.25 336.05 M-166.25 335.3 L-156.75 335.3 -156.75 344.7 -166.25 344.7 -166.25 335.3 M-226.55 291.95 L-223.75 307.3 -220.7 321.0 M-286.6 298.1 L-223.75 307.3 M-96.75 336.8 L-96.75 346.2 -106.25 346.2 -106.25 336.8 -96.75 336.8 M-126.75 336.05 L-126.75 345.45 -136.25 345.45 -136.25 336.05 -126.75 336.05 M-36.75 346.2 L-46.25 346.2 -46.25 336.8 -36.75 336.8 -36.75 346.2 M-6.75 336.8 L-6.75 346.2 -16.25 346.2 -16.25 336.8 -6.75 336.8 M-66.75 336.8 L-66.75 346.2 -76.25 346.2 -76.25 336.8 -66.75 336.8 Z" fill="none" stroke="#000000" stroke-linecap="round" stroke-linejoin="round" stroke-width="5.0"/>
    <path d="M78.6 -16.3 L77.65 -16.9 78.6 -16.3 M107.55 -88.0 L107.9 -93.0 186.5 -87.55 234.65 -84.25 284.95 70.55 Q273.75 65.65 262.2 61.5 214.3 44.25 160.4 39.1 105.8 37.05 47.15 55.45 L77.65 -16.9 107.55 -88.0" fill="url(#gradient12)" fill-rule="evenodd" stroke="none"/>
    <path d="M45.85 66.75 L45.95 64.25 291.25 74.3 272.4 255.55 44.05 255.55 42.35 172.3 45.85 66.75" fill="url(#gradient13)" fill-rule="evenodd" stroke="none"/>
    <path d="M-197.2 -113.2 L-174.15 -114.45 -162.8 -115.1 -82.8 -119.55 -41.05 -121.85 -40.95 -119.45 38.3 31.55 Q-26.55 14.65 -108.9 15.2 -187.85 21.35 -247.35 39.1 L-197.0 -109.4 -197.2 -113.2" fill="url(#gradient14)" fill-rule="evenodd" stroke="none"/>
    <path d="M44.05 255.55 L44.6 283.2 -204.5 287.0 -248.6 47.9 -248.6 46.65 39.65 37.95 42.35 172.3 44.05 255.55" fill="url(#gradient15)" fill-rule="evenodd" stroke="none"/>
    <path d="M-283.8 51.65 L-304.15 194.2 -358.75 185.35 -304.15 194.2 -283.8 51.65 M-219.75 207.5 L-220.9 207.7 -219.75 207.5 -210.85 254.25 -310.6 239.25 -310.45 237.95 -310.65 239.25 -367.15 230.7 -366.9 229.1 -358.75 185.35 -320.3 -21.3 -232.25 142.3 -219.75 207.5 M-254.9 246.7 L-252.7 202.55 -220.9 207.7 -252.7 202.55 -254.9 246.7 M-252.7 202.55 L-248.6 120.9 -252.7 202.55 -304.15 194.2 -310.25 236.65 -304.15 194.2 -252.7 202.55" fill="url(#gradient16)" fill-rule="evenodd" stroke="none"/>
    <path d="M-219.75 207.5 L-220.9 207.7 -219.75 207.5" fill="url(#gradient17)" fill-rule="evenodd" stroke="none"/>
    <path d="M77.65 -16.9 L78.6 -16.3 M107.55 -88.0 L77.65 -16.9 47.15 55.45 Q105.8 37.05 160.4 39.1 214.3 44.25 262.2 61.5 273.75 65.65 284.95 70.55 L234.65 -84.25 186.5 -87.55 107.9 -93.0 M186.5 -87.55 L170.45 -109.4 166.65 -110.65 107.55 -98.05 M233.35 -89.25 L170.45 -109.4 M39.65 37.95 L39.6 36.55 M45.95 64.25 L291.25 74.3 272.4 255.55 44.05 255.55 44.6 283.2 72.3 337.3 M42.1 37.85 L39.65 37.95 42.35 172.3 45.85 66.75 M44.05 255.55 L42.35 172.3 M-41.05 -121.85 L-82.8 -119.55 -162.8 -115.1 -174.15 -114.45 -197.2 -113.2 -198.25 -113.15 M-197.0 -109.4 L-247.35 39.1 Q-187.85 21.35 -108.9 15.2 -26.55 14.65 38.3 31.55 L-40.95 -119.45 M-41.05 -121.85 L-38.45 -122.0 M-82.8 -119.55 L-124.0 -145.9 M-126.55 -147.15 L-47.25 -124.5 M-129.05 -147.15 Q-161.1 -132.65 -193.2 -118.2 M-174.15 -114.45 L-129.05 -144.65 -162.8 -115.1 M-248.6 46.65 L-249.85 46.65 M-358.75 185.35 L-304.15 194.2 -283.8 51.65 M-219.75 207.5 L-210.85 254.25 -310.6 239.25 -310.65 239.25 -367.15 230.7 -369.4 230.35 M-220.9 207.7 L-252.7 202.55 -254.9 246.7 M44.6 283.2 L-204.5 287.0 -248.6 47.9 M-219.75 207.5 L-232.25 142.3 -320.3 -21.3 -358.75 185.35 -360.6 185.05 M-252.7 202.55 L-304.15 194.2 -310.25 236.65 M-248.6 120.9 L-252.7 202.55 M-366.9 229.1 L-358.75 185.35 M-248.6 46.65 L39.65 37.95" fill="none" stroke="#000000" stroke-linecap="round" stroke-linejoin="round" stroke-width="0.05"/>
    <path d="M90.5 -42.7 Q159.7 -47.9 247.75 -36.5 M69.2 5.45 Q155.65 -2.2 204.3 5.6 L267.95 15.85 M41.35 127.6 L285.05 136.7 M275.4 198.0 L44.05 195.4 M-212.4 -63.4 Q-117.85 -83.0 -15.7 -70.2 M-226.5 -12.05 Q-98.85 -38.0 11.55 -16.6 M-237.6 123.8 L41.9 116.5 M-215.6 212.25 L44.85 205.45" fill="none" stroke="#5a4b3f" stroke-linecap="round" stroke-linejoin="round" stroke-width="0.05"/>
    <path d="M-201.8 -114.35 L-123.4 -117.7 -127.2 -148.9 M-41.55 -121.25 L-123.4 -117.7 -104.1 40.35 44.1 36.2 M-66.4 349.55 L-104.1 40.35 -251.55 44.5 M249.8 269.8 L400.5 195.1" fill="none" stroke="#000000" stroke-linecap="round" stroke-linejoin="round" stroke-width="10.0"/>
    <path d="M-66.4 349.55 L-66.65 347.4" fill="none" stroke="#000000" stroke-linecap="round" stroke-linejoin="round" stroke-width="7.0"/>
    <path d="M-201.8 -114.35 L-123.4 -117.7 -127.2 -148.9 M-41.55 -121.25 L-123.4 -117.7 -104.1 40.35 44.1 36.2 M-66.65 347.4 L-104.1 40.35 -251.55 44.5" fill="none" stroke="#9e783a" stroke-linecap="round" stroke-linejoin="round" stroke-width="7.0"/>
    <path d="M249.8 269.8 L400.5 195.1" fill="none" stroke="#956f31" stroke-linecap="round" stroke-linejoin="round" stroke-width="7.0"/>
    <path d="M234.75 -85.35 L167.6 -89.4 161.55 67.1 295.5 74.9 M98.0 -93.65 L167.6 -89.4 168.45 -111.6 M34.45 59.7 L161.55 67.1 153.25 282.1 M-325.35 -33.9 L-230.7 146.6 -243.55 81.85 M-176.85 249.25 L-230.7 146.6 -199.5 309.65 M-374.45 227.85 L-212.1 254.25" fill="none" stroke="#000000" stroke-linecap="round" stroke-linejoin="round" stroke-width="10.0"/>
    <path d="M-66.4 349.55 L-66.65 347.4" fill="none" stroke="#000000" stroke-linecap="round" stroke-linejoin="round" stroke-width="10.0"/>
    <path d="M-66.4 349.55 L-66.65 347.4" fill="none" stroke="#000000" stroke-linecap="round" stroke-linejoin="round" stroke-width="7.0"/>
    <path d="M234.75 -85.35 L167.6 -89.4 161.55 67.1 295.5 74.9 M98.0 -93.65 L167.6 -89.4 168.45 -111.6 M34.45 59.7 L161.55 67.1 153.25 282.1 M-325.35 -33.9 L-230.7 146.6 -243.55 81.85 M-176.85 249.25 L-230.7 146.6 -199.5 309.65 M-374.45 227.85 L-212.1 254.25" fill="none" stroke="#956f31" stroke-linecap="round" stroke-linejoin="round" stroke-width="7.0"/>
    <path d="M68.45 315.8 L68.45 309.95 52.15 310.85 52.15 316.8 68.45 315.8 M70.15 306.15 L70.2 306.15 70.3 306.15 81.35 305.4 82.3 305.6 81.6 309.1 72.15 309.75 72.15 315.6 79.55 315.15 80.35 315.35 79.65 318.85 72.15 319.3 72.15 326.4 68.45 326.65 68.45 319.55 52.15 320.5 52.15 327.6 48.45 327.8 48.45 320.7 32.15 321.25 32.15 328.5 28.45 328.65 28.45 321.4 12.15 322.0 12.15 329.2 8.45 329.3 8.45 322.1 -7.85 322.7 -7.85 329.7 -11.55 329.75 -11.55 322.75 -27.85 322.85 -27.85 329.9 -31.55 329.95 -31.55 322.85 -47.85 322.95 -47.85 329.95 -51.55 329.9 -51.55 322.9 -67.85 322.8 -67.85 329.75 -71.55 329.65 -71.55 322.8 -87.85 322.7 -87.85 329.3 -91.55 329.2 -91.55 322.6 -107.85 322.1 -107.85 328.65 -111.55 328.5 -111.55 321.95 -127.85 321.2 -127.85 327.8 -131.55 327.65 -131.55 321.05 -147.85 320.3 -147.85 326.75 -151.55 326.5 -151.55 320.1 -169.4 319.3 -169.45 315.6 -151.55 316.4 -151.55 310.45 -169.55 309.4 -169.6 305.7 -169.45 305.7 -129.7 307.85 -129.6 307.85 -109.7 308.6 -49.9 309.7 -49.7 309.65 -29.7 309.6 -29.45 309.65 10.1 308.85 10.2 308.85 30.25 308.15 30.3 308.15 70.15 306.15 M48.45 311.05 L32.15 311.8 32.15 317.55 48.45 317.0 48.45 311.05 M28.45 317.7 L28.45 311.95 12.15 312.5 12.15 318.25 28.45 317.7 M8.45 312.6 L-7.85 313.0 -7.85 319.0 8.45 318.4 8.45 312.6 M-11.55 319.05 L-11.55 313.1 -27.85 313.3 -27.85 319.15 -11.55 319.05 M-131.55 317.35 L-131.55 311.5 -147.85 310.65 -147.85 316.6 -131.55 317.35 M-111.55 318.25 L-111.55 312.25 -127.85 311.65 -127.85 317.5 -111.55 318.25 M-87.85 312.9 L-87.85 319.0 -71.55 319.1 -71.55 313.2 -87.85 312.9 M-91.55 318.9 L-91.55 312.8 -107.85 312.35 -107.85 318.4 -91.55 318.9 M-274.05 262.4 L-274.05 269.15 -257.75 272.25 -257.75 265.3 -274.05 262.4 M-294.05 258.55 L-294.05 264.95 -277.75 268.4 -277.75 261.7 -294.05 258.55 M-194.05 275.6 L-194.05 282.55 -177.75 284.6 -177.75 277.95 -194.05 275.6 M-217.75 279.1 L-217.75 272.0 -234.05 269.4 -234.05 276.5 -217.75 279.1 M-237.75 275.85 L-237.75 268.75 -254.05 265.95 -254.05 272.95 -237.75 275.85 M-214.05 272.55 L-214.05 279.65 -197.75 282.05 -197.75 275.1 -214.05 272.55 M-215.65 268.6 L-215.55 268.6 -195.8 271.65 -195.6 271.7 -195.55 271.7 -175.6 274.55 -174.5 275.15 Q-174.05 275.65 -174.05 276.35 L-174.05 298.35 -177.75 297.95 -177.75 288.35 -194.05 286.25 -194.05 296.05 -197.75 295.6 -197.75 285.75 -214.05 283.4 -214.05 293.4 -217.75 292.85 -217.75 282.85 -234.05 280.25 -234.05 290.25 -237.75 289.65 -237.75 279.6 -254.05 276.7 -254.05 286.65 -257.75 285.95 -257.75 276.05 -274.05 272.9 -274.05 282.55 -277.75 281.75 -277.75 272.15 -294.05 268.75 -294.05 277.9 -297.75 277.0 -297.75 256.3 -297.45 255.3 -296.6 254.6 -295.55 254.5 -275.6 258.35 -275.55 258.35 -275.45 258.35 -255.75 261.9 -255.65 261.95 -255.55 261.95 -255.35 262.0 -235.85 265.35 -235.6 265.4 -235.5 265.4 -235.4 265.45 -235.25 265.45 -215.75 268.55 -215.65 268.6 M-31.55 313.3 L-47.85 313.35 -47.85 319.25 -31.55 319.15 -31.55 313.3 M-51.55 319.2 L-51.55 313.35 -67.85 313.25 -67.85 319.1 -51.55 319.2" fill="#ffffff" fill-rule="evenodd" stroke="none"/>
    <path d="M70.15 306.15 L30.3 308.15 30.25 308.15 10.2 308.85 10.1 308.85 -29.45 309.65 -29.7 309.6 -49.7 309.65 -49.9 309.7 -109.7 308.6 -129.6 307.85 -129.7 307.85 -169.45 305.7 -169.6 305.7 -169.55 309.4 -151.55 310.45 -151.55 316.4 -169.45 315.6 -169.4 319.3 -151.55 320.1 -151.55 326.5 -147.85 326.75 -147.85 320.3 -131.55 321.05 -131.55 327.65 -127.85 327.8 -127.85 321.2 -111.55 321.95 -111.55 328.5 -107.85 328.65 -107.85 322.1 -91.55 322.6 -91.55 329.2 -87.85 329.3 -87.85 322.7 -71.55 322.8 -71.55 329.65 -67.85 329.75 -67.85 322.8 -51.55 322.9 -51.55 329.9 -47.85 329.95 -47.85 322.95 -31.55 322.85 -31.55 329.95 -27.85 329.9 -27.85 322.85 -11.55 322.75 -11.55 329.75 -7.85 329.7 -7.85 322.7 8.45 322.1 8.45 329.3 12.15 329.2 12.15 322.0 28.45 321.4 28.45 328.65 32.15 328.5 32.15 321.25 48.45 320.7 48.45 327.8 52.15 327.6 52.15 320.5 68.45 319.55 68.45 326.65 72.15 326.4 72.15 319.3 79.65 318.85 80.35 315.35 79.55 315.15 72.15 315.6 72.15 309.75 81.6 309.1 82.3 305.6 81.35 305.4 70.3 306.15 70.2 306.15 70.15 306.15 M68.45 315.8 L52.15 316.8 52.15 310.85 68.45 309.95 68.45 315.8 M48.45 311.05 L32.15 311.8 32.15 317.55 48.45 317.0 48.45 311.05 M28.45 317.7 L12.15 318.25 12.15 312.5 28.45 311.95 28.45 317.7 M8.45 312.6 L-7.85 313.0 -7.85 319.0 8.45 318.4 8.45 312.6 M-215.65 268.6 L-215.75 268.55 -235.25 265.45 -235.4 265.45 -235.5 265.4 -235.6 265.4 -235.85 265.35 -255.35 262.0 -255.55 261.95 -255.65 261.95 -255.75 261.9 -275.45 258.35 -275.55 258.35 -275.6 258.35 -295.55 254.5 -296.6 254.6 -297.45 255.3 -297.75 256.3 -297.75 277.0 -294.05 277.9 -294.05 268.75 -277.75 272.15 -277.75 281.75 -274.05 282.55 -274.05 272.9 -257.75 276.05 -257.75 285.95 -254.05 286.65 -254.05 276.7 -237.75 279.6 -237.75 289.65 -234.05 290.25 -234.05 280.25 -217.75 282.85 -217.75 292.85 -214.05 293.4 -214.05 283.4 -197.75 285.75 -197.75 295.6 -194.05 296.05 -194.05 286.25 -177.75 288.35 -177.75 297.95 -174.05 298.35 -174.05 276.35 Q-174.05 275.65 -174.5 275.15 L-175.6 274.55 -195.55 271.7 -195.6 271.7 -195.8 271.65 -215.55 268.6 -215.65 268.6 M-214.05 272.55 L-197.75 275.1 -197.75 282.05 -214.05 279.65 -214.05 272.55 M-237.75 275.85 L-254.05 272.95 -254.05 265.95 -237.75 268.75 -237.75 275.85 M-217.75 279.1 L-234.05 276.5 -234.05 269.4 -217.75 272.0 -217.75 279.1 M-194.05 275.6 L-177.75 277.95 -177.75 284.6 -194.05 282.55 -194.05 275.6 M-294.05 258.55 L-277.75 261.7 -277.75 268.4 -294.05 264.95 -294.05 258.55 M-274.05 262.4 L-257.75 265.3 -257.75 272.25 -274.05 269.15 -274.05 262.4 M-91.55 318.9 L-107.85 318.4 -107.85 312.35 -91.55 312.8 -91.55 318.9 M-87.85 312.9 L-71.55 313.2 -71.55 319.1 -87.85 319.0 -87.85 312.9 M-111.55 318.25 L-127.85 317.5 -127.85 311.65 -111.55 312.25 -111.55 318.25 M-131.55 317.35 L-147.85 316.6 -147.85 310.65 -131.55 311.5 -131.55 317.35 M-11.55 319.05 L-27.85 319.15 -27.85 313.3 -11.55 313.1 -11.55 319.05 M-31.55 313.3 L-47.85 313.35 -47.85 319.25 -31.55 319.15 -31.55 313.3 M-51.55 319.2 L-67.85 319.1 -67.85 313.25 -51.55 313.35 -51.55 319.2 Z" fill="none" stroke="#000000" stroke-linecap="round" stroke-linejoin="round" stroke-width="3.0"/>
    <path d="M68.45 315.8 L68.45 309.95 52.15 310.85 52.15 316.8 68.45 315.8 M70.15 306.15 L70.2 306.15 70.3 306.15 81.35 305.4 82.3 305.6 81.6 309.1 72.15 309.75 72.15 315.6 79.55 315.15 80.35 315.35 79.65 318.85 72.15 319.3 72.15 326.4 68.45 326.65 68.45 319.55 52.15 320.5 52.15 327.6 48.45 327.8 48.45 320.7 32.15 321.25 32.15 328.5 28.45 328.65 28.45 321.4 12.15 322.0 12.15 329.2 8.45 329.3 8.45 322.1 -7.85 322.7 -7.85 329.7 -11.55 329.75 -11.55 322.75 -27.85 322.85 -27.85 329.9 -31.55 329.95 -31.55 322.85 -47.85 322.95 -47.85 329.95 -51.55 329.9 -51.55 322.9 -67.85 322.8 -67.85 329.75 -71.55 329.65 -71.55 322.8 -87.85 322.7 -87.85 329.3 -91.55 329.2 -91.55 322.6 -107.85 322.1 -107.85 328.65 -111.55 328.5 -111.55 321.95 -127.85 321.2 -127.85 327.8 -131.55 327.65 -131.55 321.05 -147.85 320.3 -147.85 326.75 -151.55 326.5 -151.55 320.1 -169.4 319.3 -169.45 315.6 -151.55 316.4 -151.55 310.45 -169.55 309.4 -169.6 305.7 -169.45 305.7 -129.7 307.85 -129.6 307.85 -109.7 308.6 -49.9 309.7 -49.7 309.65 -29.7 309.6 -29.45 309.65 10.1 308.85 10.2 308.85 30.25 308.15 30.3 308.15 70.15 306.15 M48.45 311.05 L32.15 311.8 32.15 317.55 48.45 317.0 48.45 311.05 M28.45 317.7 L28.45 311.95 12.15 312.5 12.15 318.25 28.45 317.7 M8.45 312.6 L-7.85 313.0 -7.85 319.0 8.45 318.4 8.45 312.6 M-11.55 319.05 L-11.55 313.1 -27.85 313.3 -27.85 319.15 -11.55 319.05 M-131.55 317.35 L-131.55 311.5 -147.85 310.65 -147.85 316.6 -131.55 317.35 M-111.55 318.25 L-111.55 312.25 -127.85 311.65 -127.85 317.5 -111.55 318.25 M-87.85 312.9 L-87.85 319.0 -71.55 319.1 -71.55 313.2 -87.85 312.9 M-91.55 318.9 L-91.55 312.8 -107.85 312.35 -107.85 318.4 -91.55 318.9 M-31.55 313.3 L-47.85 313.35 -47.85 319.25 -31.55 319.15 -31.55 313.3 M-51.55 319.2 L-51.55 313.35 -67.85 313.25 -67.85 319.1 -51.55 319.2" fill="#956f31" fill-rule="evenodd" stroke="none"/>
    <path d="M-274.05 262.4 L-274.05 269.15 -257.75 272.25 -257.75 265.3 -274.05 262.4 M-294.05 258.55 L-294.05 264.95 -277.75 268.4 -277.75 261.7 -294.05 258.55 M-194.05 275.6 L-194.05 282.55 -177.75 284.6 -177.75 277.95 -194.05 275.6 M-217.75 279.1 L-217.75 272.0 -234.05 269.4 -234.05 276.5 -217.75 279.1 M-237.75 275.85 L-237.75 268.75 -254.05 265.95 -254.05 272.95 -237.75 275.85 M-214.05 272.55 L-214.05 279.65 -197.75 282.05 -197.75 275.1 -214.05 272.55 M-215.65 268.6 L-215.55 268.6 -195.8 271.65 -195.6 271.7 -195.55 271.7 -175.6 274.55 -174.5 275.15 Q-174.05 275.65 -174.05 276.35 L-174.05 298.35 -177.75 297.95 -177.75 288.35 -194.05 286.25 -194.05 296.05 -197.75 295.6 -197.75 285.75 -214.05 283.4 -214.05 293.4 -217.75 292.85 -217.75 282.85 -234.05 280.25 -234.05 290.25 -237.75 289.65 -237.75 279.6 -254.05 276.7 -254.05 286.65 -257.75 285.95 -257.75 276.05 -274.05 272.9 -274.05 282.55 -277.75 281.75 -277.75 272.15 -294.05 268.75 -294.05 277.9 -297.75 277.0 -297.75 256.3 -297.45 255.3 -296.6 254.6 -295.55 254.5 -275.6 258.35 -275.55 258.35 -275.45 258.35 -255.75 261.9 -255.65 261.95 -255.55 261.95 -255.35 262.0 -235.85 265.35 -235.6 265.4 -235.5 265.4 -235.4 265.45 -235.25 265.45 -215.75 268.55 -215.65 268.6" fill="url(#gradient18)" fill-rule="evenodd" stroke="none"/>
    <path d="M-297.75 277.0 L-297.7 277.0 -297.75 277.05 -297.75 277.0 M-247.35 381.05 L-247.0 381.1 -247.3 381.2 -247.35 381.05" fill="#ffffff" fill-rule="evenodd" stroke="none"/>
    <path d="M-297.7 277.0 L-294.05 277.9 -277.75 281.75 -274.05 282.55 -257.75 285.95 -254.05 286.65 -237.75 289.65 -234.05 290.25 -217.75 292.85 -214.05 293.4 -197.75 295.6 -194.05 296.05 -177.75 297.95 -174.05 298.35 -169.75 298.75 -169.3 325.35 -151.55 326.5 -147.85 326.75 -131.55 327.65 -127.85 327.8 -111.55 328.5 -107.85 328.65 -91.55 329.2 -87.85 329.3 -85.4 329.35 -71.55 329.65 -67.85 329.75 -51.55 329.9 -47.85 329.95 -31.55 329.95 -27.85 329.9 -11.55 329.75 -7.85 329.7 8.45 329.3 12.15 329.2 28.45 328.65 32.15 328.5 48.45 327.8 52.15 327.6 68.45 326.65 72.15 326.4 78.2 326.0 80.35 315.3 82.3 305.6 87.85 277.6 Q137.75 275.45 174.4 266.85 176.2 276.35 183.65 273.95 218.75 267.2 251.25 254.6 L249.8 269.8 249.85 269.8 248.7 278.1 Q216.15 296.9 183.55 308.15 178.65 323.15 171.45 336.3 L170.75 335.95 Q-62.7 362.6 -268.1 337.2 L-278.55 315.0 -278.85 314.5 -297.75 277.05 -297.7 277.0 M177.45 302.55 L171.1 316.9 Q125.35 322.8 78.2 326.0 125.35 322.8 171.1 316.9 L177.45 302.55 M177.45 302.0 Q213.05 290.35 249.8 269.8 213.05 290.35 177.45 302.0 M-169.3 325.35 Q-223.45 321.65 -278.55 315.0 -223.45 321.65 -169.3 325.35" fill="url(#gradient19)" fill-rule="evenodd" stroke="none"/>
    <path d="M171.4 336.35 L168.45 341.45 Q157.95 358.8 143.05 372.8 121.65 392.95 91.2 406.1 L-81.9 412.95 -229.65 418.9 -234.25 409.1 -244.85 409.1 -240.35 419.5 -268.3 420.75 -277.25 387.35 -274.75 378.6 -288.3 336.7 Q-290.6 330.2 -290.6 326.25 L-290.5 324.7 Q-290.35 321.7 -287.75 320.2 -286.7 319.7 -285.45 319.7 -283.5 319.7 -282.1 320.9 -280.7 322.15 -280.7 323.85 -280.7 325.55 -282.1 326.75 L-282.85 327.35 -283.0 328.75 Q-283.0 331.0 -280.05 332.65 -276.9 334.4 -276.5 336.0 L-266.5 359.1 -257.8 359.1 -265.45 342.8 -268.1 337.2 Q-62.7 362.6 170.75 335.95 L171.4 336.35 M-247.0 381.1 L-247.45 380.9 -247.45 381.05 -254.3 366.55 -263.25 366.55 -248.05 401.65 -237.7 401.65 -247.3 381.2 -247.0 381.1 Q-39.4 403.5 143.05 372.8 -39.4 403.5 -247.0 381.1 -161.45 413.5 -81.9 412.95 -161.45 413.5 -247.0 381.1 M-265.45 342.8 Q-62.2 367.55 168.45 341.45 -62.2 367.55 -265.45 342.8" fill="url(#gradient20)" fill-rule="evenodd" stroke="none"/>
    <path d="M249.8 269.8 L249.85 269.75 249.85 269.8 249.8 269.8" fill="url(#gradient21)" fill-rule="evenodd" stroke="none"/>
    <path d="M171.45 336.3 L171.4 336.35 170.75 335.95 171.45 336.3" fill="url(#gradient22)" fill-rule="evenodd" stroke="none"/>
    <path d="M80.35 315.3 L79.55 315.15 M-297.7 277.0 L-294.05 277.9 -277.75 281.75 -274.05 282.55 -257.75 285.95 -254.05 286.65 -237.75 289.65 -234.05 290.25 -217.75 292.85 -214.05 293.4 -197.75 295.6 -194.05 296.05 -177.75 297.95 -174.05 298.35 -169.75 298.75 -169.3 325.35 -151.55 326.5 -147.85 326.75 -131.55 327.65 -127.85 327.8 -111.55 328.5 -107.85 328.65 -91.55 329.2 -87.85 329.3 -85.4 329.35 -71.55 329.65 -67.85 329.75 -51.55 329.9 -47.85 329.95 -31.55 329.95 -27.85 329.9 -11.55 329.75 -7.85 329.7 8.45 329.3 12.15 329.2 28.45 328.65 32.15 328.5 48.45 327.8 52.15 327.6 68.45 326.65 72.15 326.4 78.2 326.0 80.35 315.3 82.3 305.6 81.35 305.4 M82.3 305.6 L87.85 277.6 Q137.75 275.45 174.4 266.85 176.2 276.35 183.65 273.95 218.75 267.2 251.25 254.6 L249.8 269.8 249.85 269.75 249.85 269.8 248.7 278.1 Q216.15 296.9 183.55 308.15 178.65 323.15 171.45 336.3 L171.4 336.35 168.45 341.45 Q157.95 358.8 143.05 372.8 121.65 392.95 91.2 406.1 L-81.9 412.95 -229.65 418.9 -234.25 409.1 -244.85 409.1 -240.35 419.5 -268.3 420.75 -277.25 387.35 -274.75 378.6 -288.3 336.7 Q-290.6 330.2 -290.6 326.25 L-290.5 324.7 Q-290.35 321.7 -287.75 320.2 -286.7 319.7 -285.45 319.7 -283.5 319.7 -282.1 320.9 -280.7 322.15 -280.7 323.85 -280.7 325.55 -282.1 326.75 L-282.85 327.35 -283.0 328.75 Q-283.0 331.0 -280.05 332.65 -276.9 334.4 -276.5 336.0 L-266.5 359.1 -257.8 359.1 -265.45 342.8 -268.1 337.2 -278.55 315.0 -278.85 314.5 -297.75 277.05 -297.8 276.95 -297.75 277.0 -297.7 277.0 M-297.75 277.05 L-297.75 277.0 M249.8 269.8 Q213.05 290.35 177.45 302.0 M78.2 326.0 Q125.35 322.8 171.1 316.9 L177.45 302.55 M-278.55 315.0 L-278.85 314.5 M-247.45 380.9 L-247.35 381.05 -247.0 381.1 -247.45 380.9 -247.45 381.05 -247.35 381.05 -247.3 381.2 -237.7 401.65 -248.05 401.65 -263.25 366.55 -254.3 366.55 -247.45 381.05 M-247.0 381.1 Q-39.4 403.5 143.05 372.8 M-278.55 315.0 Q-223.45 321.65 -169.3 325.35 M-247.0 381.1 Q-161.45 413.5 -81.9 412.95 M168.45 341.45 Q-62.2 367.55 -265.45 342.8" fill="none" stroke="#000000" stroke-linecap="round" stroke-linejoin="round" stroke-width="0.05"/>
    <path d="M385.65 312.15 L222.05 327.25 252.1 286.9 385.9 310.75 252.1 286.9 266.1 268.1 403.25 242.95 386.0 310.75 385.9 310.75 385.65 312.15" fill="url(#gradient23)" fill-rule="evenodd" stroke="none"/>
    <path d="M403.25 242.95 L390.35 204.55 M386.9 310.9 L386.0 310.75 385.65 312.15 222.05 327.25 174.25 309.7 M386.0 310.75 L385.9 310.75 252.1 286.9 222.05 327.25 M386.0 310.75 L403.25 242.95 266.1 268.1 252.1 286.9 M157.45 54.15 L155.85 62.55 158.0 54.25 M159.45 54.4 L158.65 63.1 158.65 63.2 152.55 133.8 148.65 178.9 144.75 224.0 138.3 298.25 136.45 319.7 M155.85 62.55 L155.75 62.85 141.6 133.8 147.65 133.8 157.55 63.1 157.55 63.0 158.75 54.35 M152.55 133.8 L147.65 133.8 141.3 178.9 148.65 178.9 M155.75 62.85 L137.15 133.8 141.6 133.8 132.6 178.85 141.3 178.9 135.0 224.0 144.75 224.0 M137.15 133.8 L125.35 178.8 132.6 178.85 123.6 224.0 135.0 224.0 124.55 298.4 138.3 298.25 M125.35 178.8 L113.5 224.0 123.6 224.0 108.75 298.55 124.55 298.4 121.4 320.95 M103.75 323.45 L108.75 298.55 93.9 298.7 87.4 323.5 M113.5 224.0 L93.9 298.7 M-106.0 45.2 L-114.95 121.45 -108.65 121.45 -105.25 45.25 M-108.65 121.45 L-102.15 121.45 M-119.9 163.65 L-125.2 208.8 -112.45 208.5 -110.5 163.55 -119.9 163.65 -114.95 121.45 -122.15 121.45 -130.6 163.8 -119.9 163.65 M-112.45 208.5 L-97.95 208.2 -99.7 163.4 -110.5 163.55 -108.65 121.45 M-104.25 45.3 L-99.7 163.4 M-106.85 45.05 L-122.15 121.45 M-139.65 209.1 L-149.45 258.25 -131.0 258.15 -125.2 208.8 -139.65 209.1 -130.6 163.8 M-152.95 286.2 L-134.3 285.95 -131.0 258.15 -114.65 258.0 -112.45 208.5 M-96.05 257.9 L-114.65 258.0 -115.85 285.65 -94.95 285.35 -96.05 257.9 -97.95 208.2 M-117.75 328.3 L-115.85 285.65 -134.3 285.95 -139.15 327.25 M-94.95 285.35 L-79.95 285.1 M-93.4 326.15 L-94.95 285.35 M-149.45 258.25 L-163.0 326.0" fill="none" stroke="#000000" stroke-linecap="round" stroke-linejoin="round" stroke-width="0.05"/>
    <path d="M157.9 41.6 L-12.4 -72.2 -15.8 -71.65 M-122.75 -145.95 L-12.4 -72.2 Q44.4 -68.95 101.25 -91.75 M-131.55 -143.85 L-314.0 -22.55 M342.85 216.55 L170.45 -108.15 M386.8 196.35 L172.2 -107.8 M-131.55 -138.8 L-293.9 13.95" fill="none" stroke="#000000" stroke-linecap="round" stroke-linejoin="round" stroke-width="0.05"/>
    <path d="M53.25 335.3 L53.25 344.7 43.75 344.7 43.75 335.3 53.25 335.3 M23.25 336.05 L23.25 345.45 13.75 345.45 13.75 336.05 23.25 336.05 M-166.25 335.3 L-156.75 335.3 -156.75 344.7 -166.25 344.7 -166.25 335.3 M-96.75 336.8 L-96.75 346.2 -106.25 346.2 -106.25 336.8 -96.75 336.8 M-126.75 336.05 L-126.75 345.45 -136.25 345.45 -136.25 336.05 -126.75 336.05 M-6.75 336.8 L-6.75 346.2 -16.25 346.2 -16.25 336.8 -6.75 336.8 M-36.75 346.2 L-46.25 346.2 -46.25 336.8 -36.75 336.8 -36.75 346.2 M-66.75 336.8 L-66.75 346.2 -76.25 346.2 -76.25 336.8 -66.75 336.8" fill="#59411e" fill-rule="evenodd" stroke="none"/>
    <path d="M53.25 335.3 L53.25 344.7 43.75 344.7 43.75 335.3 53.25 335.3 M23.25 336.05 L23.25 345.45 13.75 345.45 13.75 336.05 23.25 336.05 M-166.25 335.3 L-156.75 335.3 -156.75 344.7 -166.25 344.7 -166.25 335.3 M-226.55 291.95 L-223.75 307.3 -220.7 321.0 M-286.6 298.1 L-223.75 307.3 M-96.75 336.8 L-96.75 346.2 -106.25 346.2 -106.25 336.8 -96.75 336.8 M-126.75 336.05 L-126.75 345.45 -136.25 345.45 -136.25 336.05 -126.75 336.05 M-6.75 336.8 L-6.75 346.2 -16.25 346.2 -16.25 336.8 -6.75 336.8 M-36.75 346.2 L-46.25 346.2 -46.25 336.8 -36.75 336.8 -36.75 346.2 M-66.75 336.8 L-66.75 346.2 -76.25 346.2 -76.25 336.8 -66.75 336.8 Z" fill="none" stroke="#000000" stroke-linecap="round" stroke-linejoin="round" stroke-width="0.05"/>
  </g>
  <defs>
    <linearGradient gradientTransform="matrix(0.0071, -0.1006, 0.1447, 0.0103, 168.8, -27.9)" gradientUnits="userSpaceOnUse" id="gradient0" spreadMethod="pad" x1="-819.2" x2="819.2">
      <stop offset="0.03529411764705882" stop-color="#f1edeb"/>
      <stop offset="0.807843137254902" stop-color="#a5917c"/>
    </linearGradient>
    <linearGradient gradientTransform="matrix(0.0, -0.1168, 0.1519, 0.0, 162.8, 133.85)" gradientUnits="userSpaceOnUse" id="gradient1" spreadMethod="pad" x1="-819.2" x2="819.2">
      <stop offset="0.03529411764705882" stop-color="#f1edeb"/>
      <stop offset="0.807843137254902" stop-color="#a5917c"/>
    </linearGradient>
    <linearGradient gradientTransform="matrix(-0.0046, -0.088, 0.1741, -0.0092, -105.15, -62.05)" gradientUnits="userSpaceOnUse" id="gradient2" spreadMethod="pad" x1="-819.2" x2="819.2">
      <stop offset="0.03529411764705882" stop-color="#f1edeb"/>
      <stop offset="0.807843137254902" stop-color="#a5917c"/>
    </linearGradient>
    <linearGradient gradientTransform="matrix(0.0, -0.1586, 0.179, 0.0, -102.2, 125.85)" gradientUnits="userSpaceOnUse" id="gradient3" spreadMethod="pad" x1="-819.2" x2="819.2">
      <stop offset="0.03529411764705882" stop-color="#f1edeb"/>
      <stop offset="0.807843137254902" stop-color="#a5917c"/>
    </linearGradient>
    <linearGradient gradientTransform="matrix(0.0176, -0.1291, 0.0851, 0.0116, -273.45, 83.0)" gradientUnits="userSpaceOnUse" id="gradient4" spreadMethod="pad" x1="-819.2" x2="819.2">
      <stop offset="0.03529411764705882" stop-color="#f1edeb"/>
      <stop offset="0.807843137254902" stop-color="#a5917c"/>
    </linearGradient>
    <linearGradient gradientTransform="matrix(0.0, -0.0268, 0.0848, 0.0, -289.25, 111.9)" gradientUnits="userSpaceOnUse" id="gradient5" spreadMethod="pad" x1="-819.2" x2="819.2">
      <stop offset="0.03529411764705882" stop-color="#f1edeb"/>
      <stop offset="0.807843137254902" stop-color="#a5917c"/>
    </linearGradient>
    <linearGradient gradientTransform="matrix(0.0, -0.0617, 0.282, 0.0, -59.6, 370.25)" gradientUnits="userSpaceOnUse" id="gradient6" spreadMethod="pad" x1="-819.2" x2="819.2">
      <stop offset="0.0" stop-color="#623f15"/>
      <stop offset="0.7294117647058823" stop-color="#956f31"/>
    </linearGradient>
    <linearGradient gradientTransform="matrix(0.0, -0.0617, 0.282, 0.0, -59.6, 370.25)" gradientUnits="userSpaceOnUse" id="gradient7" spreadMethod="pad" x1="-819.2" x2="819.2">
      <stop offset="0.1607843137254902" stop-color="#703a18"/>
      <stop offset="0.5686274509803921" stop-color="#9e783a"/>
    </linearGradient>
    <linearGradient gradientTransform="matrix(0.0, -0.0617, 0.282, 0.0, -59.6, 370.25)" gradientUnits="userSpaceOnUse" id="gradient8" spreadMethod="pad" x1="-819.2" x2="819.2">
      <stop offset="0.10980392156862745" stop-color="#703a18"/>
      <stop offset="0.5686274509803921" stop-color="#9e783a"/>
    </linearGradient>
    <linearGradient gradientTransform="matrix(0.0, -0.0617, 0.282, 0.0, -59.6, 370.25)" gradientUnits="userSpaceOnUse" id="gradient9" spreadMethod="pad" x1="-819.2" x2="819.2">
      <stop offset="0.0" stop-color="#623f15"/>
      <stop offset="0.7294117647058823" stop-color="#956f31"/>
    </linearGradient>
    <linearGradient gradientTransform="matrix(0.282, 0.0, 0.0, 0.0617, -59.6, 370.2)" gradientUnits="userSpaceOnUse" id="gradient10" spreadMethod="pad" x1="-819.2" x2="819.2">
      <stop offset="0.0" stop-color="#623f15"/>
      <stop offset="0.7294117647058823" stop-color="#956f31"/>
    </linearGradient>
    <linearGradient gradientTransform="matrix(0.0393, -0.0609, 0.0643, 0.0415, 337.0, 270.95)" gradientUnits="userSpaceOnUse" id="gradient11" spreadMethod="pad" x1="-819.2" x2="819.2">
      <stop offset="0.03529411764705882" stop-color="#f1edeb"/>
      <stop offset="0.807843137254902" stop-color="#a5917c"/>
    </linearGradient>
    <linearGradient gradientTransform="matrix(0.0071, -0.1006, 0.1447, 0.0103, 168.8, -27.9)" gradientUnits="userSpaceOnUse" id="gradient12" spreadMethod="pad" x1="-819.2" x2="819.2">
      <stop offset="0.03529411764705882" stop-color="#f1edeb"/>
      <stop offset="0.807843137254902" stop-color="#a5917c"/>
    </linearGradient>
    <linearGradient gradientTransform="matrix(0.0, -0.1168, 0.1519, 0.0, 162.8, 133.85)" gradientUnits="userSpaceOnUse" id="gradient13" spreadMethod="pad" x1="-819.2" x2="819.2">
      <stop offset="0.03529411764705882" stop-color="#f1edeb"/>
      <stop offset="0.807843137254902" stop-color="#a5917c"/>
    </linearGradient>
    <linearGradient gradientTransform="matrix(-0.0046, -0.088, 0.1741, -0.0092, -105.15, -62.05)" gradientUnits="userSpaceOnUse" id="gradient14" spreadMethod="pad" x1="-819.2" x2="819.2">
      <stop offset="0.03529411764705882" stop-color="#f1edeb"/>
      <stop offset="0.807843137254902" stop-color="#a5917c"/>
    </linearGradient>
    <linearGradient gradientTransform="matrix(0.0, -0.1586, 0.179, 0.0, -102.2, 125.85)" gradientUnits="userSpaceOnUse" id="gradient15" spreadMethod="pad" x1="-819.2" x2="819.2">
      <stop offset="0.03529411764705882" stop-color="#f1edeb"/>
      <stop offset="0.807843137254902" stop-color="#a5917c"/>
    </linearGradient>
    <linearGradient gradientTransform="matrix(0.0176, -0.1291, 0.0851, 0.0116, -273.45, 83.0)" gradientUnits="userSpaceOnUse" id="gradient16" spreadMethod="pad" x1="-819.2" x2="819.2">
      <stop offset="0.03529411764705882" stop-color="#f1edeb"/>
      <stop offset="0.807843137254902" stop-color="#a5917c"/>
    </linearGradient>
    <linearGradient gradientTransform="matrix(0.0, -0.0268, 0.0848, 0.0, -289.25, 111.9)" gradientUnits="userSpaceOnUse" id="gradient17" spreadMethod="pad" x1="-819.2" x2="819.2">
      <stop offset="0.03529411764705882" stop-color="#f1edeb"/>
      <stop offset="0.807843137254902" stop-color="#a5917c"/>
    </linearGradient>
    <linearGradient gradientTransform="matrix(0.0, -0.0617, 0.282, 0.0, -59.6, 370.25)" gradientUnits="userSpaceOnUse" id="gradient18" spreadMethod="pad" x1="-819.2" x2="819.2">
      <stop offset="0.0" stop-color="#623f15"/>
      <stop offset="0.7294117647058823" stop-color="#956f31"/>
    </linearGradient>
    <linearGradient gradientTransform="matrix(0.0, -0.0617, 0.282, 0.0, -59.6, 370.25)" gradientUnits="userSpaceOnUse" id="gradient19" spreadMethod="pad" x1="-819.2" x2="819.2">
      <stop offset="0.1607843137254902" stop-color="#703a18"/>
      <stop offset="0.5686274509803921" stop-color="#9e783a"/>
    </linearGradient>
    <linearGradient gradientTransform="matrix(0.0, -0.0617, 0.282, 0.0, -59.6, 370.25)" gradientUnits="userSpaceOnUse" id="gradient20" spreadMethod="pad" x1="-819.2" x2="819.2">
      <stop offset="0.10980392156862745" stop-color="#703a18"/>
      <stop offset="0.5686274509803921" stop-color="#9e783a"/>
    </linearGradient>
    <linearGradient gradientTransform="matrix(0.0, -0.0617, 0.282, 0.0, -59.6, 370.25)" gradientUnits="userSpaceOnUse" id="gradient21" spreadMethod="pad" x1="-819.2" x2="819.2">
      <stop offset="0.0" stop-color="#623f15"/>
      <stop offset="0.7294117647058823" stop-color="#956f31"/>
    </linearGradient>
    <linearGradient gradientTransform="matrix(0.282, 0.0, 0.0, 0.0617, -59.6, 370.2)" gradientUnits="userSpaceOnUse" id="gradient22" spreadMethod="pad" x1="-819.2" x2="819.2">
      <stop offset="0.0" stop-color="#623f15"/>
      <stop offset="0.7294117647058823" stop-color="#956f31"/>
    </linearGradient>
    <linearGradient gradientTransform="matrix(0.0393, -0.0609, 0.0643, 0.0415, 337.0, 270.95)" gradientUnits="userSpaceOnUse" id="gradient23" spreadMethod="pad" x1="-819.2" x2="819.2">
      <stop offset="0.03529411764705882" stop-color="#f1edeb"/>
      <stop offset="0.807843137254902" stop-color="#a5917c"/>
    </linearGradient>
  </defs>
</svg>
