<?xml version="1.0" encoding="UTF-8" standalone="no"?>
<svg xmlns:ffdec="https://www.free-decompiler.com/flash" xmlns:xlink="http://www.w3.org/1999/xlink" ffdec:objectType="shape" height="174.1px" width="381.3px" xmlns="http://www.w3.org/2000/svg">
  <g transform="matrix(1.0, 0.0, 0.0, 1.0, 132.85, 110.75)">
    <path d="M115.45 0.2 L115.45 -8.3 115.45 -16.8 142.5 -19.85 169.1 -23.6 197.0 -28.4 Q209.8 -30.8 222.65 -33.55 L244.95 -38.6 243.15 -29.7 241.0 -18.95 M142.5 -19.85 L142.85 -11.4 169.25 -15.15 169.1 -23.6 M143.35 1.05 L142.85 -11.4 115.45 -8.3 M169.25 -15.15 L197.15 -19.95 197.0 -28.4 M222.7 -15.5 L222.7 -25.05 197.15 -19.95 197.45 -6.35 M169.5 -2.0 L169.25 -15.15 M222.65 -33.55 L222.7 -25.05 243.15 -29.7 M-124.45 -18.5 L-124.45 -24.6 -124.45 -33.75 Q-107.15 -31.4 -88.3 -30.2 -66.65 -28.85 -42.95 -28.95 M-88.3 -30.2 L-88.3 -21.1 Q-66.65 -19.7 -42.95 -19.8 M-88.3 -21.1 L-88.3 -14.15 M-88.3 -21.1 Q-107.15 -22.3 -124.45 -24.6 M-121.85 -6.45 L-126.2 19.7" fill="none" stroke="#000000" stroke-linecap="round" stroke-linejoin="round" stroke-width="5.0"/>
    <path d="M115.45 0.2 L115.45 -8.3 115.45 -16.8 142.5 -19.85 169.1 -23.6 197.0 -28.4 Q209.8 -30.8 222.65 -33.55 L244.95 -38.6 243.15 -29.7 241.0 -18.95 M142.5 -19.85 L142.85 -11.4 169.25 -15.15 169.1 -23.6 M143.35 1.05 L142.85 -11.4 115.45 -8.3 M169.25 -15.15 L197.15 -19.95 197.0 -28.4 M222.7 -15.5 L222.7 -25.05 197.15 -19.95 197.45 -6.35 M169.5 -2.0 L169.25 -15.15 M222.65 -33.55 L222.7 -25.05 243.15 -29.7 M-124.45 -18.5 L-124.45 -24.6 -124.45 -33.75 Q-107.15 -31.4 -88.3 -30.2 -66.65 -28.85 -42.95 -28.95 M-88.3 -30.2 L-88.3 -21.1 Q-66.65 -19.7 -42.95 -19.8 M-88.3 -21.1 L-88.3 -14.15 M-88.3 -21.1 Q-107.15 -22.3 -124.45 -24.6 M-121.85 -6.45 L-126.2 19.7" fill="none" stroke="#cccccc" stroke-linecap="round" stroke-linejoin="round" stroke-width="2.0"/>
    <path d="M42.5 -48.3 L42.55 -48.7 Q42.75 -50.7 44.95 -50.85 L45.1 -50.85 72.4 -53.55 68.3 -39.8 44.95 -37.35 Q42.5 -37.2 42.5 -39.75 L42.65 -39.75 42.5 -40.7 42.5 -48.3 M72.4 -53.55 L72.3 -54.6 72.7 -54.65 72.4 -53.55 M-9.8 -45.0 L-9.55 -46.25 Q-9.05 -47.5 -7.4 -47.55 L18.7 -48.3 Q19.55 -48.35 20.15 -48.0 L20.6 -47.65 Q21.1 -47.1 21.15 -45.95 L21.15 -39.05 21.0 -38.15 21.15 -38.15 Q21.15 -35.6 18.7 -35.5 L-7.4 -34.75 Q-9.85 -34.7 -9.8 -37.2 L-9.7 -37.2 -9.8 -38.15 -9.8 -45.0 M29.0 -46.85 Q29.0 -47.55 29.35 -48.1 L29.7 -48.6 Q30.45 -49.35 31.45 -49.3 L33.55 -49.3 Q34.55 -49.35 35.25 -48.6 L35.45 -48.35 Q35.95 -47.7 35.95 -46.85 L35.95 -40.05 35.75 -39.1 35.95 -39.05 Q35.95 -38.05 35.25 -37.3 34.55 -36.55 33.55 -36.55 L31.45 -36.55 Q30.4 -36.55 29.7 -37.3 29.0 -38.05 29.0 -39.05 L29.15 -39.1 Q29.0 -39.55 29.0 -40.05 L29.0 -46.85 M25.75 -3.8 L26.05 -3.5 Q26.8 -2.75 26.8 -1.7 L26.8 6.45 Q26.8 7.5 26.05 8.25 25.35 9.0 24.35 9.0 L22.25 9.0 Q21.25 9.0 20.55 8.25 19.85 7.5 19.85 6.45 L19.85 -1.7 Q19.85 -2.7 20.45 -3.4 L20.55 -3.5 Q21.25 -4.25 22.25 -4.2 L24.35 -4.2 Q25.15 -4.25 25.75 -3.8 M38.55 -4.65 L39.3 -4.8 61.0 -6.35 62.0 -6.25 Q63.4 -5.9 63.4 -3.8 L63.4 2.05 Q63.4 4.8 61.0 5.0 L39.3 6.55 Q36.85 6.75 36.85 4.0 L36.85 -1.85 Q36.85 -4.2 38.55 -4.65 M222.3 41.8 L219.75 48.85 217.2 53.4 -128.3 53.65 -128.65 46.4 222.3 41.8 M-46.05 -2.4 Q-44.7 -2.0 -44.7 -0.1 L-44.7 11.15 Q-44.7 13.6 -47.0 13.6 L-60.25 13.6 Q-62.55 13.6 -62.55 11.15 L-62.55 -0.1 Q-62.55 -2.0 -61.15 -2.4 L-60.25 -2.55 -47.0 -2.55 -46.05 -2.4 M-26.0 -45.55 L-24.95 -45.65 -24.3 -45.6 -24.2 -45.6 -22.9 -45.2 -21.75 -44.3 Q-20.65 -43.15 -20.5 -41.5 L-20.45 -41.0 Q-20.45 -39.05 -21.75 -37.7 -23.1 -36.3 -24.95 -36.3 -26.8 -36.3 -28.1 -37.7 -29.45 -39.05 -29.4 -41.0 L-29.4 -41.5 Q-29.25 -43.15 -28.1 -44.3 L-27.7 -44.7 Q-27.0 -45.3 -26.1 -45.55 L-26.0 -45.55 M-35.25 -2.4 L-34.3 -2.55 -21.05 -2.55 -20.15 -2.4 Q-18.75 -2.0 -18.75 -0.1 L-18.75 11.15 Q-18.75 13.6 -21.05 13.6 L-34.3 13.6 Q-36.6 13.6 -36.6 11.15 L-36.6 -0.1 Q-36.65 -2.0 -35.25 -2.4" fill="#000000" fill-rule="evenodd" stroke="none"/>
    <path d="M219.75 48.85 L213.6 62.35 -127.15 62.35 -128.3 53.65 217.2 53.4 219.75 48.85" fill="#cc0000" fill-rule="evenodd" stroke="none"/>
    <path d="M-19.8 -58.1 L-25.5 -57.9 -37.7 -109.75 -39.4 -109.4 -39.45 -109.75 -37.7 -109.75 -35.95 -109.75 -31.2 -95.1 -21.05 -95.1 -21.05 -96.55 -20.75 -96.55 -21.05 -96.6 Q-21.7 -96.75 -22.2 -97.25 -22.8 -97.9 -22.8 -98.8 L-22.8 -98.85 Q-22.8 -99.75 -22.2 -100.4 -21.55 -101.05 -20.7 -101.05 L-17.8 -101.05 Q-16.95 -101.05 -16.3 -100.4 -15.7 -99.75 -15.7 -98.85 L-15.7 -98.8 Q-15.7 -97.9 -16.3 -97.25 -16.85 -96.65 -17.6 -96.6 L-17.6 -95.4 -17.6 -95.1 -11.8 -95.1 -11.8 -93.0 -29.85 -90.1 -19.8 -58.1 M1.85 -7.7 L14.2 -8.1 13.35 -2.9 10.25 16.8 10.25 17.15 -2.85 17.3 0.85 -2.4 1.85 -7.7 M70.85 -11.15 Q83.35 -12.4 90.8 -14.95 L95.2 0.1 95.25 0.1 142.75 -4.6 Q167.45 -7.4 191.9 -11.6 216.95 -15.8 241.4 -22.9 L247.45 -24.8 237.8 0.8 153.2 9.9 Q71.3 17.6 15.05 17.25 L15.05 17.05 Q59.05 15.3 71.25 2.15 L74.25 1.9 71.95 -6.95 70.85 -11.15 M-87.8 16.3 L-80.6 -6.95 -65.25 -6.8 -66.45 -2.4 -71.7 16.95 -87.8 16.3 M74.25 1.9 L95.2 0.1 74.25 1.9 M-17.6 -96.6 L-17.8 -96.55 -20.75 -96.55 -17.8 -96.55 -17.6 -96.6 M-17.6 -95.1 L-21.05 -95.1 -17.6 -95.1" fill="#eeeeee" fill-rule="evenodd" stroke="none"/>
    <path d="M42.5 -40.7 L42.65 -39.75 42.5 -39.75 42.5 -40.7 M-26.1 -46.6 L-25.05 -46.7 -24.95 -46.7 -24.2 -46.65 -24.3 -45.6 -24.95 -45.65 -26.0 -45.55 -26.1 -46.6 M21.15 -38.15 L21.0 -38.15 21.15 -39.05 21.15 -38.15 M-9.8 -37.2 L-9.8 -38.15 -9.7 -37.2 -9.8 -37.2 M67.45 -36.15 L67.4 -36.15 67.35 -36.65 67.45 -36.15" fill="#e1e1e1" fill-rule="evenodd" stroke="none"/>
    <path d="M72.4 -53.55 L45.1 -50.85 44.95 -50.85 Q42.75 -50.7 42.55 -48.7 L42.5 -48.3 42.5 -49.2 42.55 -49.75 35.45 -49.4 Q35.95 -48.7 35.95 -47.8 L35.95 -46.85 Q35.95 -47.7 35.45 -48.35 L35.25 -48.6 Q34.55 -49.35 33.55 -49.3 L31.45 -49.3 Q30.45 -49.35 29.7 -48.6 L29.35 -48.1 Q29.0 -47.55 29.0 -46.85 L29.0 -47.8 Q29.0 -48.55 29.35 -49.15 L20.6 -48.7 Q21.15 -48.1 21.15 -46.9 L21.15 -45.95 Q21.1 -47.1 20.6 -47.65 L20.15 -48.0 Q19.55 -48.35 18.7 -48.3 L-7.4 -47.55 Q-9.05 -47.5 -9.55 -46.25 L-9.8 -45.0 -9.8 -45.95 Q-9.85 -46.75 -9.55 -47.3 L-24.2 -46.65 -24.95 -46.7 -25.05 -46.7 -26.1 -46.6 -42.45 -45.85 -41.65 -49.65 -41.6 -49.65 -7.5 -51.1 -7.4 -48.6 -7.4 -51.1 44.8 -54.2 60.55 -55.6 73.45 -57.15 72.7 -54.65 72.3 -54.6 72.4 -53.55 M1.85 -7.7 L0.85 -2.4 -20.15 -2.4 -21.05 -2.55 -34.3 -2.55 -35.25 -2.4 -46.05 -2.4 -47.0 -2.55 -60.25 -2.55 -61.15 -2.4 -66.45 -2.4 -65.25 -6.8 Q-31.85 -6.65 1.85 -7.7 M13.35 -2.9 L14.2 -8.1 64.3 -10.65 70.85 -11.15 71.95 -6.95 62.0 -6.25 61.0 -6.35 39.3 -4.8 38.55 -4.65 26.05 -3.8 25.75 -3.8 Q25.15 -4.25 24.35 -4.2 L22.25 -4.2 Q21.25 -4.25 20.55 -3.5 L20.45 -3.4 13.35 -2.9" fill="#b7b7b7" fill-rule="evenodd" stroke="none"/>
    <path d="M-25.5 -57.9 L-37.2 -57.65 -33.35 -74.1 -39.4 -109.4 -37.7 -109.75 -25.5 -57.9" fill="#d9d9d9" fill-rule="evenodd" stroke="none"/>
    <path d="M15.05 17.05 L15.05 17.25 15.05 17.05" fill="url(#gradient0)" fill-rule="evenodd" stroke="none"/>
    <path d="M-2.85 17.3 L10.25 17.15 10.3 17.15 15.05 17.05 15.05 17.25 Q71.3 17.6 153.2 9.9 L237.8 0.8 222.3 41.8 -128.65 46.4 -131.85 12.65 Q-112.05 15.05 -87.8 16.3 L-71.7 16.95 Q-41.95 17.9 -6.3 17.25 L-2.85 17.3" fill="url(#gradient1)" fill-rule="evenodd" stroke="none"/>
    <path d="M42.5 -48.3 L42.5 -40.7 42.5 -39.75 Q42.5 -37.2 44.95 -37.35 L68.3 -39.8 67.35 -36.65 67.4 -36.15 49.5 -34.35 -16.35 -30.3 Q-27.3 -16.55 -48.9 -13.95 L-42.45 -45.85 -26.1 -46.6 -26.0 -45.55 -26.1 -45.55 Q-27.0 -45.3 -27.7 -44.7 L-28.1 -44.3 Q-29.25 -43.15 -29.4 -41.5 L-29.4 -41.0 Q-29.45 -39.05 -28.1 -37.7 -26.8 -36.3 -24.95 -36.3 -23.1 -36.3 -21.75 -37.7 -20.45 -39.05 -20.45 -41.0 L-20.5 -41.5 Q-20.65 -43.15 -21.75 -44.3 L-22.9 -45.2 -24.2 -45.6 -24.3 -45.6 -24.2 -46.65 -9.55 -47.3 Q-9.85 -46.75 -9.8 -45.95 L-9.8 -45.0 -9.8 -38.15 -9.8 -37.2 Q-9.85 -34.7 -7.4 -34.75 L18.7 -35.5 Q21.15 -35.6 21.15 -38.15 L21.15 -39.05 21.15 -45.95 21.15 -46.9 Q21.15 -48.1 20.6 -48.7 L29.35 -49.15 Q29.0 -48.55 29.0 -47.8 L29.0 -46.85 29.0 -40.05 Q29.0 -39.55 29.15 -39.1 L29.0 -39.05 Q29.0 -38.05 29.7 -37.3 30.4 -36.55 31.45 -36.55 L33.55 -36.55 Q34.55 -36.55 35.25 -37.3 35.95 -38.05 35.95 -39.05 L35.75 -39.1 35.95 -40.05 35.95 -46.85 35.95 -47.8 Q35.95 -48.7 35.45 -49.4 L42.55 -49.75 42.5 -49.2 42.5 -48.3 M73.45 -57.15 L60.55 -55.6 44.8 -54.2 -7.4 -51.1 -7.5 -51.1 -41.6 -49.65 -41.65 -49.65 -47.6 -49.45 -45.55 -57.65 -37.2 -57.65 -25.5 -57.9 -19.8 -58.1 Q12.9 -59.25 62.55 -63.6 L66.05 -66.35 72.15 -66.35 79.15 -58.1 73.45 -57.15 M0.85 -2.4 L-2.85 17.3 -6.3 17.25 Q-41.95 17.9 -71.7 16.95 L-66.45 -2.4 -61.15 -2.4 Q-62.55 -2.0 -62.55 -0.1 L-62.55 11.15 Q-62.55 13.6 -60.25 13.6 L-47.0 13.6 Q-44.7 13.6 -44.7 11.15 L-44.7 -0.1 Q-44.7 -2.0 -46.05 -2.4 L-35.25 -2.4 Q-36.65 -2.0 -36.6 -0.1 L-36.6 11.15 Q-36.6 13.6 -34.3 13.6 L-21.05 13.6 Q-18.75 13.6 -18.75 11.15 L-18.75 -0.1 Q-18.75 -2.0 -20.15 -2.4 L0.85 -2.4 M10.25 16.8 L13.35 -2.9 20.45 -3.4 Q19.85 -2.7 19.85 -1.7 L19.85 6.45 Q19.85 7.5 20.55 8.25 21.25 9.0 22.25 9.0 L24.35 9.0 Q25.35 9.0 26.05 8.25 26.8 7.5 26.8 6.45 L26.8 -1.7 Q26.8 -2.75 26.05 -3.5 L26.05 -3.8 38.55 -4.65 Q36.85 -4.2 36.85 -1.85 L36.85 4.0 Q36.85 6.75 39.3 6.55 L61.0 5.0 Q63.4 4.8 63.4 2.05 L63.4 -3.8 Q63.4 -5.9 62.0 -6.25 L71.95 -6.95 74.25 1.9 71.25 2.15 Q59.05 15.3 15.05 17.05 L10.3 17.15 10.25 16.8" fill="#f7f7f7" fill-rule="evenodd" stroke="none"/>
    <path d="M14.2 -8.1 L1.85 -7.7 Q-31.85 -6.65 -65.25 -6.8 L-80.6 -6.95 -103.95 -7.4 -129.65 -9.25 -129.65 -19.75 Q-107.95 -13.3 -62.55 -13.4 L-48.9 -13.95 Q-27.3 -16.55 -16.35 -30.3 L49.5 -34.35 67.4 -36.15 67.45 -36.15 Q79.65 -38.0 84.8 -41.2 92.05 -28.9 94.8 -16.55 93.05 -15.7 90.8 -14.95 83.35 -12.4 70.85 -11.15 L64.3 -10.65 14.2 -8.1 M-49.05 -13.4 L-48.9 -13.95 -49.05 -13.4" fill="#f1f1f1" fill-rule="evenodd" stroke="none"/>
    <path d="M68.3 -39.8 L72.4 -53.55 M72.7 -54.65 L73.45 -57.15 60.55 -55.6 44.8 -54.2 -7.4 -51.1 -7.5 -51.1 -41.6 -49.65 -41.65 -49.65 -42.45 -45.85 -48.9 -13.95 -49.05 -13.4 M73.45 -57.15 L79.15 -58.1 72.15 -66.35 66.05 -66.35 62.55 -63.6 Q12.9 -59.25 -19.8 -58.1 L-25.5 -57.9 -37.2 -57.65 -45.55 -57.65 -47.6 -49.45 -41.65 -49.65 M14.2 -8.1 L1.85 -7.7 0.85 -2.4 -2.85 17.3 10.25 17.15 10.25 16.8 13.35 -2.9 14.2 -8.1 64.3 -10.65 70.85 -11.15 Q83.35 -12.4 90.8 -14.95 93.05 -15.7 94.8 -16.55 92.05 -28.9 84.8 -41.2 79.65 -38.0 67.45 -36.15 L67.4 -36.15 49.5 -34.35 -16.35 -30.3 Q-27.3 -16.55 -48.9 -13.95 L-62.55 -13.4 Q-107.95 -13.3 -129.65 -19.75 L-129.65 -9.25 -103.95 -7.4 -80.6 -6.95 -87.8 16.3 -71.7 16.95 Q-41.95 17.9 -6.3 17.25 L-2.85 17.3 M71.95 -6.95 L70.85 -11.15 M67.35 -36.65 L68.3 -39.8 M90.8 -14.95 L95.2 0.1 95.25 0.1 142.75 -4.6 Q167.45 -7.4 191.9 -11.6 216.95 -15.8 241.4 -22.9 L247.45 -24.8 237.8 0.8 222.3 41.8 219.75 48.85 213.6 62.35 -127.15 62.35 -128.3 53.65 -128.65 46.4 -131.85 12.65 Q-112.05 15.05 -87.8 16.3 M15.05 17.05 Q59.05 15.3 71.25 2.15 L74.25 1.9 71.95 -6.95 M10.3 17.15 L10.25 17.15 M15.05 17.05 L10.3 17.15 M95.2 0.1 L74.25 1.9 M-39.4 -109.4 L-33.35 -74.1 -37.2 -57.65 M-21.05 -96.6 Q-21.7 -96.75 -22.2 -97.25 -22.8 -97.9 -22.8 -98.8 L-22.8 -98.85 Q-22.8 -99.75 -22.2 -100.4 -21.55 -101.05 -20.7 -101.05 L-17.8 -101.05 Q-16.95 -101.05 -16.3 -100.4 -15.7 -99.75 -15.7 -98.85 L-15.7 -98.8 Q-15.7 -97.9 -16.3 -97.25 -16.85 -96.65 -17.6 -96.6 L-17.6 -95.4 M-17.6 -95.1 L-11.8 -95.1 -11.8 -93.0 -29.85 -90.1 -19.8 -58.1 M-39.4 -109.4 L-39.45 -109.75 -37.7 -109.75 -35.95 -109.75 -31.2 -95.1 -21.05 -95.1 -21.05 -96.55 -21.05 -96.6 -20.75 -96.55 -17.8 -96.55 -17.6 -96.6 M-21.05 -95.1 L-17.6 -95.1 M-65.25 -6.8 L-80.6 -6.95 M-66.45 -2.4 L-71.7 16.95 M-66.45 -2.4 L-65.25 -6.8 Q-31.85 -6.65 1.85 -7.7 M-128.65 46.4 L222.3 41.8" fill="none" stroke="#000000" stroke-linecap="round" stroke-linejoin="round" stroke-width="2.0"/>
  </g>
  <defs>
    <linearGradient gradientTransform="matrix(0.0, -0.0047, 0.2256, 0.0, 52.95, 27.5)" gradientUnits="userSpaceOnUse" id="gradient0" spreadMethod="pad" x1="-819.2" x2="819.2">
      <stop offset="0.34509803921568627" stop-color="#ffffff"/>
      <stop offset="0.8549019607843137" stop-color="#d9d9d9"/>
    </linearGradient>
    <linearGradient gradientTransform="matrix(0.0, -0.0452, 0.2256, 0.0, 53.0, 12.1)" gradientUnits="userSpaceOnUse" id="gradient1" spreadMethod="pad" x1="-819.2" x2="819.2">
      <stop offset="0.1411764705882353" stop-color="#ffffff"/>
      <stop offset="0.7294117647058823" stop-color="#c8c8c8"/>
    </linearGradient>
  </defs>
</svg>
