<?xml version="1.0" encoding="UTF-8" standalone="no"?>
<svg xmlns:ffdec="https://www.free-decompiler.com/flash" xmlns:xlink="http://www.w3.org/1999/xlink" ffdec:objectType="shape" height="41.65px" width="493.4px" xmlns="http://www.w3.org/2000/svg">
  <g transform="matrix(1.0, 0.0, 0.0, 1.0, 227.3, 11.45)">
    <path d="M-183.0 11.35 Q-173.7 12.9 -174.1 7.2 L-174.9 -1.15 Q-175.25 -3.9 -169.15 -4.35 -163.1 -4.9 -145.75 2.7 -131.2 8.9 -128.4 8.9 -125.0 8.9 -123.75 7.9 -122.9 7.3 -122.5 5.75 -122.15 4.15 -121.5 3.6 -120.35 2.65 -117.25 2.65 -114.25 2.65 -104.55 6.4 -94.9 10.1 -91.3 10.15 -87.55 10.1 -87.0 8.3 L-88.0 1.65 -88.1 0.05 -88.05 -2.35 Q-87.65 -6.75 -80.15 -6.75 -74.7 -6.75 -69.75 -4.55 -66.7 -3.15 -61.55 0.45 -56.4 4.05 -53.4 5.4 -48.5 7.65 -41.4 7.95 -34.5 8.25 -35.75 4.05 L-35.75 3.7 -35.8 2.4 -35.8 1.25 Q-35.6 -3.65 -31.4 -3.65 -26.05 -3.65 -19.95 -0.15 L-10.65 5.0 Q-7.45 6.55 -2.25 7.45 2.9 8.3 4.4 7.5 6.05 6.7 6.3 3.7 6.5 0.6 0.95 -3.45 -4.6 -7.5 -1.25 -9.4 2.1 -11.35 10.8 -9.45 19.45 -7.55 33.6 0.5 46.2 7.65 51.3 7.65 54.65 7.65 56.35 6.55 57.4 5.9 58.3 4.2 59.2 2.45 60.05 1.8 61.5 0.7 64.55 0.75 68.3 0.7 74.15 3.65 80.0 6.5 83.9 8.1 87.85 9.65 90.5 8.5 93.1 7.35 90.9 1.9 88.7 -3.65 89.0 -4.95 89.65 -7.4 93.7 -7.4 98.65 -7.4 103.85 -4.85 107.0 -3.3 112.8 0.75 L119.55 5.5 Q124.9 8.85 133.3 9.6 139.3 9.6 139.45 6.35 139.55 3.1 135.0 -0.65 130.5 -4.35 128.7 -6.4 126.9 -8.45 128.25 -10.2 129.55 -12.0 134.95 -10.6 140.35 -9.3 153.05 -0.75 165.7 7.7 168.8 8.35 L173.9 8.7 Q175.85 8.3 177.25 7.4 179.75 5.1 173.7 -1.15 170.9 -3.9 169.55 -7.15 168.2 -10.4 171.65 -11.15 175.15 -11.95 189.25 -4.2 L197.3 0.25 Q206.8 6.85 218.8 10.0 L219.5 10.1 Q225.1 7.3 225.15 3.05 225.15 -1.25 229.65 0.1 234.1 1.5 239.3 6.6 244.45 11.7 247.85 20.45 L237.75 20.45 237.75 22.0 -170.65 27.75 -226.7 30.2 -227.05 15.4 Q-219.4 15.6 -222.0 8.4 -224.85 0.5 -223.0 -1.1 -221.15 -2.65 -216.35 -2.25 -211.6 -1.85 -205.35 1.3 L-191.8 8.0 Q-186.85 10.4 -183.0 11.3 L-183.0 11.35 M266.1 -4.45 L266.1 -2.35 Q265.65 -4.25 266.1 -4.45" fill="url(#gradient0)" fill-rule="evenodd" stroke="none"/>
    <path d="M247.85 20.45 Q244.45 11.7 239.3 6.6 234.1 1.5 229.65 0.1 225.15 -1.25 225.15 3.05 225.1 7.3 219.5 10.1 L218.8 10.0 Q206.8 6.85 197.3 0.25 L189.25 -4.2 Q175.15 -11.95 171.65 -11.15 168.2 -10.4 169.55 -7.15 170.9 -3.9 173.7 -1.15 179.75 5.1 177.25 7.4 175.85 8.3 173.9 8.7 L168.8 8.35 Q165.7 7.7 153.05 -0.75 140.35 -9.3 134.95 -10.6 129.55 -12.0 128.25 -10.2 126.9 -8.45 128.7 -6.4 130.5 -4.35 135.0 -0.65 139.55 3.1 139.45 6.35 139.3 9.6 133.3 9.6 124.9 8.85 119.55 5.5 L112.8 0.75 Q107.0 -3.3 103.85 -4.85 98.65 -7.4 93.7 -7.4 89.65 -7.4 89.0 -4.95 88.7 -3.65 90.9 1.9 93.1 7.35 90.5 8.5 87.85 9.65 83.9 8.1 80.0 6.5 74.15 3.65 68.3 0.7 64.55 0.75 61.5 0.7 60.05 1.8 59.2 2.45 58.3 4.2 57.4 5.9 56.35 6.55 54.65 7.65 51.3 7.65 46.2 7.65 33.6 0.5 19.45 -7.55 10.8 -9.45 2.1 -11.35 -1.25 -9.4 -4.6 -7.5 0.95 -3.45 6.5 0.6 6.3 3.7 6.05 6.7 4.4 7.5 2.9 8.3 -2.25 7.45 -7.45 6.55 -10.65 5.0 L-19.95 -0.15 Q-26.05 -3.65 -31.4 -3.65 -35.6 -3.65 -35.8 1.25 L-35.8 2.4 -35.75 3.7 -35.75 4.05 Q-34.5 8.25 -41.4 7.95 -48.5 7.65 -53.4 5.4 -56.4 4.05 -61.55 0.45 -66.7 -3.15 -69.75 -4.55 -74.7 -6.75 -80.15 -6.75 -87.65 -6.75 -88.05 -2.35 L-88.1 0.05 -88.0 1.65 -87.0 8.3 Q-87.55 10.1 -91.3 10.15 -94.9 10.1 -104.55 6.4 -114.25 2.65 -117.25 2.65 -120.35 2.65 -121.5 3.6 -122.15 4.15 -122.5 5.75 -122.9 7.3 -123.75 7.9 -125.0 8.9 -128.4 8.9 -131.2 8.9 -145.75 2.7 -163.1 -4.9 -169.15 -4.35 -175.25 -3.9 -174.9 -1.15 L-174.1 7.2 Q-173.7 12.9 -183.0 11.35 M-183.0 11.3 Q-186.85 10.4 -191.8 8.0 L-205.35 1.3 Q-211.6 -1.85 -216.35 -2.25 -221.15 -2.65 -223.0 -1.1 -224.85 0.5 -222.0 8.4 -219.4 15.6 -227.05 15.4 M-35.75 3.7 L-35.8 4.0 -35.75 4.05 M-35.8 2.4 L-35.8 4.0" fill="none" stroke="#000000" stroke-linecap="round" stroke-linejoin="round" stroke-width="0.5"/>
  </g>
  <defs>
    <linearGradient gradientTransform="matrix(0.0, 0.0254, -0.2961, 0.0, 453.45, 7.9)" gradientUnits="userSpaceOnUse" id="gradient0" spreadMethod="pad" x1="-819.2" x2="819.2">
      <stop offset="0.6666666666666666" stop-color="#97d6f0" stop-opacity="0.8"/>
      <stop offset="0.8549019607843137" stop-color="#97d6f0" stop-opacity="0.0"/>
    </linearGradient>
  </defs>
</svg>
