<?xml version="1.0" encoding="UTF-8" standalone="no"?>
<svg xmlns:ffdec="https://www.free-decompiler.com/flash" xmlns:xlink="http://www.w3.org/1999/xlink" ffdec:objectType="shape" height="37.45px" width="473.3px" xmlns="http://www.w3.org/2000/svg">
  <g transform="matrix(1.0, 0.0, 0.0, 1.0, 227.35, 13.7)">
    <path d="M-227.1 11.7 L-224.3 11.75 Q-213.0 11.85 -214.25 7.9 -215.5 3.95 -215.8 1.85 -216.15 -0.3 -210.15 -0.7 -204.15 -1.1 -186.95 4.85 -172.6 9.75 -169.8 9.75 -166.45 9.75 -165.2 9.0 -164.35 8.5 -164.0 7.3 -163.65 6.05 -163.0 5.6 -161.85 4.85 -158.8 4.85 -155.8 4.8 -146.2 7.8 -136.7 10.75 -133.1 10.75 -129.4 10.75 -128.85 9.3 L-129.9 4.05 -129.95 2.8 -129.95 0.9 Q-129.5 -2.6 -122.1 -2.6 -116.7 -2.6 -111.75 -0.8 -108.8 0.25 -103.7 3.1 -98.55 5.95 -95.6 7.0 -90.75 8.8 -83.8 9.05 -76.95 9.25 -78.2 5.95 L-78.2 5.7 -78.25 4.65 -78.25 3.7 Q-78.05 -0.15 -73.85 -0.1 -68.6 -0.1 -62.55 2.65 L-53.35 6.7 Q-50.15 7.95 -45.05 8.6 -39.95 9.25 -38.5 8.7 -36.8 8.05 -36.55 5.65 -36.35 3.2 -41.85 0.05 -47.35 -3.15 -44.0 -4.7 -40.7 -6.25 -32.15 -4.7 -23.6 -3.25 -9.6 3.1 2.85 8.75 7.9 8.8 11.25 8.75 12.9 7.95 13.95 7.4 14.8 6.05 15.7 4.65 16.55 4.2 18.05 3.35 21.05 3.35 24.75 3.3 30.55 5.6 L40.2 9.15 46.7 9.45 Q49.25 8.55 47.1 4.25 44.9 -0.15 45.25 -1.15 45.85 -3.1 49.85 -3.1 54.75 -3.1 59.9 -1.1 63.05 0.15 68.8 3.35 L75.45 7.1 Q80.7 9.75 89.0 10.35 94.95 10.35 95.1 7.75 95.2 5.15 90.75 2.25 86.3 -0.7 84.5 -2.3 82.75 -3.9 84.05 -5.3 85.35 -6.7 90.7 -5.65 96.05 -4.6 108.6 2.15 121.1 8.85 124.15 9.35 L129.2 9.6 Q131.15 9.3 132.55 8.6 135.0 6.75 129.0 1.85 126.2 -0.3 124.9 -2.85 123.55 -5.45 127.0 -6.05 130.45 -6.65 144.4 -0.55 L152.35 2.95 Q161.75 8.15 173.6 10.65 L174.35 10.75 Q178.05 9.05 177.65 3.65 177.25 -1.8 182.65 -2.2 188.0 -2.6 194.2 0.85 L200.55 4.5 Q205.5 8.2 211.2 11.0 L214.35 12.4 Q220.9 15.3 222.5 12.1 224.1 8.75 218.65 -2.4 215.25 -8.0 216.9 -11.85 218.55 -15.75 227.3 -10.15 236.1 -4.55 245.7 19.15 L245.7 23.75 -227.3 23.75 -227.1 11.7" fill="url(#gradient0)" fill-rule="evenodd" stroke="none"/>
    <path d="M245.7 19.15 Q236.1 -4.55 227.3 -10.15 218.55 -15.75 216.9 -11.85 215.25 -8.0 218.65 -2.4 224.1 8.75 222.5 12.1 220.9 15.3 214.35 12.4 L211.2 11.0 Q205.5 8.2 200.55 4.5 L194.2 0.85 Q188.0 -2.6 182.65 -2.2 177.25 -1.8 177.65 3.65 178.05 9.05 174.35 10.75 L173.6 10.65 Q161.75 8.15 152.35 2.95 L144.4 -0.55 Q130.45 -6.65 127.0 -6.05 123.55 -5.45 124.9 -2.85 126.2 -0.3 129.0 1.85 135.0 6.75 132.55 8.6 131.15 9.3 129.2 9.6 L124.15 9.35 Q121.1 8.85 108.6 2.15 96.05 -4.6 90.7 -5.65 85.35 -6.7 84.05 -5.3 82.75 -3.9 84.5 -2.3 86.3 -0.7 90.75 2.25 95.2 5.15 95.1 7.75 94.95 10.35 89.0 10.35 80.7 9.75 75.45 7.1 L68.8 3.35 Q63.05 0.15 59.9 -1.1 54.75 -3.1 49.85 -3.1 45.85 -3.1 45.25 -1.15 44.9 -0.15 47.1 4.25 49.25 8.55 46.7 9.45 L40.2 9.15 30.55 5.6 Q24.75 3.3 21.05 3.35 18.05 3.35 16.55 4.2 15.7 4.65 14.8 6.05 13.95 7.4 12.9 7.95 11.25 8.75 7.9 8.8 2.85 8.75 -9.6 3.1 -23.6 -3.25 -32.15 -4.7 -40.7 -6.25 -44.0 -4.7 -47.35 -3.15 -41.85 0.05 -36.35 3.2 -36.55 5.65 -36.8 8.05 -38.5 8.7 -39.95 9.25 -45.05 8.6 -50.15 7.95 -53.35 6.7 L-62.55 2.65 Q-68.6 -0.1 -73.85 -0.1 -78.05 -0.15 -78.25 3.7 L-78.25 4.65 -78.2 5.7 -78.2 5.95 Q-76.95 9.25 -83.8 9.05 -90.75 8.8 -95.6 7.0 -98.55 5.95 -103.7 3.1 -108.8 0.25 -111.75 -0.8 -116.7 -2.6 -122.1 -2.6 -129.5 -2.6 -129.95 0.9 L-129.95 2.8 -129.9 4.05 -128.85 9.3 Q-129.4 10.75 -133.1 10.75 -136.7 10.75 -146.2 7.8 -155.8 4.8 -158.8 4.85 -161.85 4.85 -163.0 5.6 -163.65 6.05 -164.0 7.3 -164.35 8.5 -165.2 9.0 -166.45 9.75 -169.8 9.75 -172.6 9.75 -186.95 4.85 -204.15 -1.1 -210.15 -0.7 -216.15 -0.3 -215.8 1.85 -215.5 3.95 -214.25 7.9 -213.0 11.85 -224.3 11.75 L-227.1 11.7 M-78.25 4.65 L-78.2 5.9 -78.2 5.7 M-78.2 5.9 L-78.2 5.95" fill="none" stroke="#000000" stroke-linecap="round" stroke-linejoin="round" stroke-width="0.5"/>
  </g>
  <defs>
    <linearGradient gradientTransform="matrix(0.0, 0.0201, -0.2929, 0.0, 405.8, 9.0)" gradientUnits="userSpaceOnUse" id="gradient0" spreadMethod="pad" x1="-819.2" x2="819.2">
      <stop offset="0.6666666666666666" stop-color="#97d6f0" stop-opacity="0.8"/>
      <stop offset="0.8549019607843137" stop-color="#97d6f0" stop-opacity="0.0"/>
    </linearGradient>
  </defs>
</svg>
