<?xml version="1.0" encoding="UTF-8" standalone="no"?>
<svg xmlns:ffdec="https://www.free-decompiler.com/flash" xmlns:xlink="http://www.w3.org/1999/xlink" ffdec:objectType="shape" height="43.45px" width="474.45px" xmlns="http://www.w3.org/2000/svg">
  <g transform="matrix(1.0, 0.0, 0.0, 1.0, 229.05, 13.1)">
    <path d="M-228.8 14.25 Q-221.9 14.25 -219.65 13.15 -217.4 12.0 -217.95 10.4 L-219.2 6.8 Q-219.9 4.8 -216.0 3.7 -212.1 2.55 -202.95 5.2 L-190.45 9.1 -179.2 13.1 Q-171.45 15.8 -174.25 9.25 -177.05 2.7 -175.2 1.4 -173.4 0.1 -168.7 0.45 -164.0 0.8 -157.8 3.4 L-144.45 8.9 Q-139.55 10.9 -135.75 11.65 L-132.5 12.05 Q-127.7 12.3 -128.95 8.15 L-130.55 1.75 Q-130.9 -0.45 -124.9 -0.85 -118.95 -1.3 -101.8 4.95 -87.45 10.1 -84.7 10.1 -81.35 10.1 -80.1 9.3 -79.25 8.8 -78.85 7.5 -78.5 6.2 -77.9 5.75 -76.75 4.9 -73.7 4.9 -70.75 4.9 -61.15 8.05 -51.65 11.15 -48.1 11.15 -44.4 11.15 -43.85 9.6 L-44.9 4.1 -44.95 2.8 -44.9 0.8 Q-44.5 -2.85 -37.1 -2.85 -31.75 -2.85 -26.8 -1.0 -23.8 0.1 -18.75 3.1 -13.65 6.05 -10.7 7.2 -5.85 9.05 1.05 9.3 7.9 9.55 6.7 6.1 L6.7 5.85 6.65 4.7 6.65 3.75 Q6.85 -0.25 10.95 -0.25 16.25 -0.25 22.25 2.65 28.3 5.55 31.5 6.85 34.65 8.2 39.7 8.9 44.8 9.6 46.25 8.95 47.95 8.3 48.15 5.8 48.35 3.25 42.9 -0.1 37.4 -3.45 40.7 -5.05 44.0 -6.65 52.55 -5.05 61.1 -3.5 75.05 3.15 87.5 9.05 92.5 9.05 95.85 9.05 97.5 8.2 98.55 7.6 99.45 6.2 100.3 4.75 101.15 4.25 102.6 3.35 105.6 3.35 109.3 3.35 115.05 5.75 120.85 8.1 124.75 9.45 128.6 10.7 131.15 9.75 133.75 8.8 131.6 4.3 129.4 -0.3 129.75 -1.35 130.4 -3.4 134.35 -3.35 139.25 -3.4 144.4 -1.3 147.5 0.0 153.2 3.35 L159.85 7.3 Q165.1 10.05 173.4 10.7 179.3 10.7 179.45 8.0 179.55 5.25 175.1 2.2 170.6 -0.85 168.85 -2.55 167.1 -4.25 168.45 -5.7 169.7 -7.15 175.05 -6.05 180.35 -4.95 192.9 2.1 204.3 8.55 207.85 9.5 L208.1 9.55 208.95 9.6 213.9 9.95 Q215.9 9.6 217.4 8.5 220.2 5.9 215.15 -1.15 212.7 -4.3 211.85 -8.0 211.0 -11.7 214.55 -12.55 218.05 -13.4 221.65 -11.85 240.05 -1.95 245.15 13.25 L245.15 30.35 206.0 30.35 206.7 24.75 -228.8 24.75 -228.8 14.25 M207.7 9.5 L207.7 9.55 207.85 9.5 207.7 9.5" fill="url(#gradient0)" fill-rule="evenodd" stroke="none"/>
    <path d="M207.85 9.5 L207.7 9.55 207.7 9.5 207.85 9.5" fill="url(#gradient1)" fill-rule="evenodd" stroke="none"/>
    <path d="M207.85 9.5 Q204.3 8.55 192.9 2.1 180.35 -4.95 175.05 -6.05 169.7 -7.15 168.45 -5.7 167.1 -4.25 168.85 -2.55 170.6 -0.85 175.1 2.2 179.55 5.25 179.45 8.0 179.3 10.7 173.4 10.7 165.1 10.05 159.85 7.3 L153.2 3.35 Q147.5 0.0 144.4 -1.3 139.25 -3.4 134.35 -3.35 130.4 -3.4 129.75 -1.35 129.4 -0.3 131.6 4.3 133.75 8.8 131.15 9.75 128.6 10.7 124.75 9.45 120.85 8.1 115.05 5.75 109.3 3.35 105.6 3.35 102.6 3.35 101.15 4.25 100.3 4.75 99.45 6.2 98.55 7.6 97.5 8.2 95.85 9.05 92.5 9.05 87.5 9.05 75.05 3.15 61.1 -3.5 52.55 -5.05 44.0 -6.65 40.7 -5.05 37.4 -3.45 42.9 -0.1 48.35 3.25 48.15 5.8 47.95 8.3 46.25 8.95 44.8 9.6 39.7 8.9 34.65 8.2 31.5 6.85 28.3 5.55 22.25 2.65 16.25 -0.25 10.95 -0.25 6.85 -0.25 6.65 3.75 L6.65 4.7 6.7 5.85 6.7 6.1 Q7.9 9.55 1.05 9.3 -5.85 9.05 -10.7 7.2 -13.65 6.05 -18.75 3.1 -23.8 0.1 -26.8 -1.0 -31.75 -2.85 -37.1 -2.85 -44.5 -2.85 -44.9 0.8 L-44.95 2.8 -44.9 4.1 -43.85 9.6 Q-44.4 11.15 -48.1 11.15 -51.65 11.15 -61.15 8.05 -70.75 4.9 -73.7 4.9 -76.75 4.9 -77.9 5.75 -78.5 6.2 -78.85 7.5 -79.25 8.8 -80.1 9.3 -81.35 10.1 -84.7 10.1 -87.45 10.1 -101.8 4.95 -118.95 -1.3 -124.9 -0.85 -130.9 -0.45 -130.55 1.75 L-128.95 8.15 Q-127.7 12.3 -132.5 12.05 L-135.75 11.65 Q-139.55 10.9 -144.45 8.9 L-157.8 3.4 Q-164.0 0.8 -168.7 0.45 -173.4 0.1 -175.2 1.4 -177.05 2.7 -174.25 9.25 -171.45 15.8 -179.2 13.1 L-190.45 9.1 -202.95 5.2 Q-212.1 2.55 -216.0 3.7 -219.9 4.8 -219.2 6.8 L-217.95 10.4 Q-217.4 12.0 -219.65 13.15 -221.9 14.25 -228.8 14.25 M245.15 13.25 Q240.05 -1.95 221.65 -11.85 218.05 -13.4 214.55 -12.55 211.0 -11.7 211.85 -8.0 212.7 -4.3 215.15 -1.15 220.2 5.9 217.4 8.5 215.9 9.6 213.9 9.95 L208.95 9.6 208.1 9.55 207.85 9.5 207.7 9.5 M6.65 4.7 L6.65 6.05 6.7 5.85 M6.65 6.05 L6.7 6.1" fill="none" stroke="#000000" stroke-linecap="round" stroke-linejoin="round" stroke-width="0.5"/>
  </g>
  <defs>
    <linearGradient gradientTransform="matrix(0.0, 0.021, -0.2921, 0.0, 10.65, 11.5)" gradientUnits="userSpaceOnUse" id="gradient0" spreadMethod="pad" x1="-819.2" x2="819.2">
      <stop offset="0.6666666666666666" stop-color="#97d6f0" stop-opacity="0.8"/>
      <stop offset="0.8549019607843137" stop-color="#97d6f0" stop-opacity="0.0"/>
    </linearGradient>
    <linearGradient gradientTransform="matrix(-0.0036, 0.0289, -0.2921, 0.0, 10.8, 12.15)" gradientUnits="userSpaceOnUse" id="gradient1" spreadMethod="pad" x1="-819.2" x2="819.2">
      <stop offset="0.6666666666666666" stop-color="#97d6f0" stop-opacity="0.8"/>
      <stop offset="0.8549019607843137" stop-color="#97d6f0" stop-opacity="0.0"/>
    </linearGradient>
  </defs>
</svg>
