<?xml version="1.0" encoding="UTF-8" standalone="no"?>
<svg xmlns:ffdec="https://www.free-decompiler.com/flash" xmlns:xlink="http://www.w3.org/1999/xlink" ffdec:objectType="shape" height="344.65px" width="436.85px" xmlns="http://www.w3.org/2000/svg">
  <g transform="matrix(1.0, 0.0, 0.0, 1.0, 274.0, 185.75)">
    <path d="M107.5 76.2 L112.35 74.75 133.55 68.2 138.3 66.65 158.1 59.85 Q159.0 59.55 159.8 60.2 160.55 60.8 160.8 62.0 161.0 63.2 160.55 64.3 160.1 65.35 159.2 65.65 L156.5 66.6 138.9 72.6 136.55 73.35 113.55 80.55 108.7 81.95 103.15 83.55 Q77.6 90.85 52.25 96.45 L39.1 99.25 Q19.05 103.3 -0.85 106.35 -32.5 111.1 -63.75 113.2 L-63.75 107.2 Q-32.5 105.1 -0.85 100.3 19.05 97.25 39.1 93.15 L40.85 92.8 52.3 90.35 Q77.6 84.75 103.15 77.45 L107.5 76.2 M153.4 88.65 Q154.15 89.3 154.35 90.55 154.55 91.75 154.05 92.8 153.55 93.8 152.65 94.1 L152.45 94.15 136.35 98.7 121.75 102.5 121.7 102.5 107.15 106.1 92.6 109.4 92.6 109.45 78.15 112.6 78.1 112.65 63.75 115.45 63.7 115.45 49.45 118.1 49.35 118.1 35.1 120.45 35.05 120.45 20.9 122.65 6.75 124.6 6.7 124.6 -7.35 126.35 -7.4 126.35 -21.45 127.8 -35.4 129.05 -49.35 130.05 -63.25 130.85 -63.75 130.9 -63.75 124.9 -63.4 124.85 -49.55 124.05 -35.65 123.05 -21.75 121.8 -7.75 120.35 -7.75 120.4 6.3 118.6 6.3 118.65 20.45 116.7 34.55 114.5 48.85 112.15 48.8 112.15 63.1 109.5 77.5 106.7 77.4 106.7 91.9 103.5 93.2 103.2 103.15 100.95 106.4 100.2 106.35 100.2 120.9 96.6 135.5 92.8 151.75 88.25 Q152.6 87.95 153.4 88.65 M-267.4 118.05 L-269.55 117.65 Q-270.75 117.4 -271.45 116.4 -272.2 115.35 -271.95 114.15 -271.7 112.95 -270.7 112.25 -269.65 111.5 -268.45 111.75 L-267.8 111.9 -267.75 111.9 -261.4 113.0 -261.3 113.0 -241.05 116.55 -241.0 116.55 -219.65 119.85 -219.75 119.85 -208.6 121.1 -197.25 122.2 -197.2 122.2 -197.25 122.15 -190.75 122.65 -185.6 123.05 -173.55 123.9 -161.3 124.55 -148.8 125.1 -136.0 125.4 -122.9 125.6 -109.5 125.7 -95.85 125.6 -81.9 125.35 -69.25 125.05 -63.8 124.9 -63.8 130.9 -69.25 131.05 -81.75 131.35 -95.75 131.6 -109.5 131.7 -122.95 131.6 -123.0 131.6 -136.15 131.4 -149.0 131.1 -149.1 131.1 -161.6 130.55 -161.65 130.55 -173.95 129.9 -174.0 129.9 -186.05 129.05 -190.75 128.7 -197.7 128.15 -197.75 128.15 -209.25 127.05 -209.3 127.05 -220.4 125.8 -220.5 125.8 -242.0 122.45 -241.9 122.5 -262.5 118.9 -267.4 118.05 M-264.95 97.45 L-267.1 96.8 Q-268.3 96.4 -268.9 95.3 -269.5 94.2 -269.1 93.05 -268.75 91.85 -267.65 91.25 L-265.35 91.05 -252.2 94.6 -247.25 95.75 -230.65 98.95 -225.7 99.75 -220.3 100.55 -190.75 104.05 -189.65 104.15 Q-149.65 107.8 -96.1 108.4 L-96.0 108.4 -69.25 107.45 -63.8 107.2 -63.8 113.2 -69.25 113.45 -95.95 114.4 -96.05 114.4 Q-150.3 113.8 -190.75 110.05 L-204.35 108.65 -220.3 106.65 -227.45 105.55 -232.05 104.8 -249.9 101.35 -253.65 100.45 -264.95 97.45 M-148.05 42.7 L-154.05 42.7 Q-155.3 42.7 -156.15 41.85 -157.05 40.95 -157.05 39.7 -157.05 38.45 -156.15 37.6 -155.3 36.7 -154.05 36.7 L-63.8 36.7 -63.8 42.7 -69.25 42.7 -148.05 42.7 M91.9 103.5 L91.85 103.5 91.9 103.5 M-63.75 36.7 L-62.95 36.7 Q-62.05 36.7 -61.4 37.6 -60.75 38.45 -60.75 39.7 -60.75 40.95 -61.4 41.85 -62.05 42.7 -62.95 42.7 L-63.75 42.7 -63.75 36.7 M-262.5 118.9 L-262.4 118.9 -262.5 118.9" fill="#ffffff" fill-rule="evenodd" stroke="none"/>
    <path d="M91.9 103.5 L91.85 103.5 91.9 103.5 M6.3 118.65 L6.3 118.6 6.3 118.65 M-7.75 120.4 L-7.75 120.35 -7.75 120.4 M-63.75 124.9 L-63.75 130.9 -63.8 130.9 -63.8 124.9 -63.75 124.9 M-197.25 122.15 L-197.2 122.2 -197.25 122.2 -197.25 122.15" fill="#6ba3d8" fill-rule="evenodd" stroke="none"/>
    <path d="M-101.55 46.8 L-101.55 102.65 -120.7 102.65 -120.7 46.8 -101.55 46.8" fill="#8d6858" fill-rule="evenodd" stroke="none"/>
    <path d="M-172.5 62.7 L-148.05 62.7 -148.05 42.7 -69.25 42.7 -69.25 46.8 -80.1 46.8 -80.1 60.5 -69.25 60.5 -69.25 107.45 -96.0 108.4 -96.1 108.4 Q-149.65 107.8 -189.65 104.15 L-190.75 104.05 -190.75 84.6 -190.75 62.7 -189.9 62.7 -183.9 62.7 -180.5 62.7 -172.5 62.7 M-101.55 46.8 L-120.7 46.8 -120.7 102.65 -101.55 102.65 -101.55 46.8 M-125.2 46.8 L-142.8 46.8 -142.8 60.5 -125.2 60.5 -125.2 46.8 M-84.5 46.8 L-96.65 46.8 -96.65 60.5 -84.5 60.5 -84.5 46.8" fill="#ebebe9" fill-rule="evenodd" stroke="none"/>
    <path d="M-69.25 46.8 L-69.25 60.5 -80.1 60.5 -80.1 46.8 -69.25 46.8 M-84.5 46.8 L-84.5 60.5 -96.65 60.5 -96.65 46.8 -84.5 46.8 M-125.2 46.8 L-125.2 60.5 -142.8 60.5 -142.8 46.8 -125.2 46.8" fill="#333333" fill-rule="evenodd" stroke="none"/>
    <path d="M156.5 66.6 Q155.25 77.65 153.4 88.65 152.6 87.95 151.75 88.25 L135.5 92.8 120.9 96.6 106.35 100.2 106.4 100.2 103.15 100.95 93.2 103.2 91.9 103.5 77.4 106.7 77.5 106.7 63.1 109.5 48.8 112.15 48.85 112.15 34.55 114.5 20.45 116.7 6.3 118.65 6.3 118.6 -7.75 120.4 -7.75 120.35 -21.75 121.8 -35.65 123.05 -49.55 124.05 -63.4 124.85 -63.75 124.9 -63.8 124.9 -69.25 125.05 -81.9 125.35 -95.85 125.6 -109.5 125.7 -122.9 125.6 -136.0 125.4 -148.8 125.1 -161.3 124.55 -173.55 123.9 -185.6 123.05 -190.75 122.65 -197.25 122.15 -197.25 122.2 -208.6 121.1 -219.75 119.85 -219.65 119.85 -241.0 116.55 -241.05 116.55 -261.3 113.0 -261.4 113.0 -267.75 111.9 -267.75 111.8 Q-267.65 104.65 -265.0 97.55 L-264.95 97.45 -253.65 100.45 -249.9 101.35 -232.05 104.8 -227.45 105.55 -220.3 106.65 -204.35 108.65 -190.75 110.05 Q-150.3 113.8 -96.05 114.4 L-95.95 114.4 -69.25 113.45 -63.8 113.2 -63.75 113.2 Q-32.5 111.1 -0.85 106.35 19.05 103.3 39.1 99.25 L52.25 96.45 Q77.6 90.85 103.15 83.55 L108.7 81.95 113.55 80.55 136.55 73.35 138.9 72.6 156.5 66.6 M152.45 94.15 Q147.15 123.2 131.65 156.9 L-242.6 156.9 Q-257.8 143.4 -263.5 131.1 -266.5 124.55 -267.4 118.05 L-262.5 118.9 -241.9 122.5 -242.0 122.45 -220.5 125.8 -220.4 125.8 -209.3 127.05 -209.25 127.05 -197.75 128.15 -197.7 128.15 -190.75 128.7 -186.05 129.05 -174.0 129.9 -173.95 129.9 -161.65 130.55 -161.6 130.55 -149.1 131.1 -149.0 131.1 -136.15 131.4 -123.0 131.6 -122.95 131.6 -109.5 131.7 -95.75 131.6 -81.75 131.35 -69.25 131.05 -63.8 130.9 -63.75 130.9 -63.25 130.85 -49.35 130.05 -35.4 129.05 -21.45 127.8 -7.4 126.35 -7.35 126.35 6.7 124.6 6.75 124.6 20.9 122.65 35.05 120.45 35.1 120.45 49.35 118.1 49.45 118.1 63.7 115.45 63.75 115.45 78.1 112.65 78.15 112.6 92.6 109.45 92.6 109.4 107.15 106.1 121.7 102.5 121.75 102.5 136.35 98.7 152.45 94.15" fill="url(#gradient0)" fill-rule="evenodd" stroke="none"/>
    <path d="M63.55 74.75 L63.55 -179.75 Q63.55 -181.4 64.75 -182.55 65.9 -183.75 67.55 -183.75 69.2 -183.75 70.4 -182.55 71.55 -181.4 71.55 -179.75 L71.55 -135.7 71.6 -135.6 138.3 66.65 133.55 68.2 73.5 -113.8 112.35 74.75 107.5 76.2 71.55 -98.5 71.55 74.75 63.55 74.75 M-252.2 94.6 L-180.5 -80.8 -180.5 -128.3 Q-180.5 -129.95 -179.3 -131.1 -178.15 -132.3 -176.5 -132.3 -174.85 -132.3 -173.65 -131.1 -172.5 -129.95 -172.5 -128.3 L-172.5 62.7 -180.5 62.7 -180.5 -61.65 -225.7 99.75 -230.65 98.95 -191.75 -40.05 -247.25 95.75 -252.2 94.6" fill="#f6d741" fill-rule="evenodd" stroke="none"/>
    <path d="M40.85 92.8 L39.15 92.8 39.15 72.55 52.3 72.55 52.3 74.75 52.3 90.35 40.85 92.8 M-189.9 62.7 L-189.9 41.35 -189.85 41.0 Q-189.3 35.75 -190.95 33.25 -192.7 31.4 -196.5 31.75 L-197.3 31.75 -197.3 25.8 -197.0 25.75 Q-189.4 25.1 -186.2 29.55 -183.0 33.3 -183.9 41.5 L-183.9 62.7 -189.9 62.7" fill="#cccccc" fill-rule="evenodd" stroke="none"/>
    <path d="M63.55 74.75 L71.55 74.75 103.15 74.75 103.15 77.45 Q77.6 84.75 52.3 90.35 L52.3 74.75 63.55 74.75 M-0.85 100.3 L-0.85 82.4 39.1 82.4 39.1 93.15 Q19.05 97.25 -0.85 100.3 M-190.75 104.05 L-220.3 100.55 -220.3 84.6 -190.75 84.6 -190.75 104.05" fill="#aaaaaa" fill-rule="evenodd" stroke="none"/>
    <path d="M138.3 66.65 L71.6 -135.6 71.55 -135.7 71.55 -179.75 Q71.55 -181.4 70.4 -182.55 69.2 -183.75 67.55 -183.75 65.9 -183.75 64.75 -182.55 63.55 -181.4 63.55 -179.75 L63.55 74.75 71.55 74.75 71.55 -98.5 107.5 76.2 112.35 74.75 73.5 -113.8 133.55 68.2 138.3 66.65 158.1 59.85 Q159.0 59.55 159.8 60.2 160.55 60.8 160.8 62.0 161.0 63.2 160.55 64.3 160.1 65.35 159.2 65.65 L156.5 66.6 Q155.25 77.65 153.4 88.65 154.15 89.3 154.35 90.55 154.55 91.75 154.05 92.8 153.55 93.8 152.65 94.1 L152.45 94.15 Q147.15 123.2 131.65 156.9 L-242.6 156.9 Q-257.8 143.4 -263.5 131.1 -266.5 124.55 -267.4 118.05 L-269.55 117.65 Q-270.75 117.4 -271.45 116.4 -272.2 115.35 -271.95 114.15 -271.7 112.95 -270.7 112.25 -269.65 111.5 -268.45 111.75 L-267.8 111.9 -267.75 111.9 -267.75 111.8 Q-267.65 104.65 -265.0 97.55 L-264.95 97.45 -267.1 96.8 Q-268.3 96.4 -268.9 95.3 -269.5 94.2 -269.1 93.05 -268.75 91.85 -267.65 91.25 L-265.35 91.05 -252.2 94.6 -180.5 -80.8 -180.5 -128.3 Q-180.5 -129.95 -179.3 -131.1 -178.15 -132.3 -176.5 -132.3 -174.85 -132.3 -173.65 -131.1 -172.5 -129.95 -172.5 -128.3 L-172.5 62.7 -148.05 62.7 -148.05 42.7 -154.05 42.7 Q-155.3 42.7 -156.15 41.85 -157.05 40.95 -157.05 39.7 -157.05 38.45 -156.15 37.6 -155.3 36.7 -154.05 36.7 L-63.8 36.7 M-63.8 42.7 L-69.25 42.7 -69.25 46.8 -69.25 60.5 -69.25 107.45 -63.8 107.2 M-63.75 107.2 Q-32.5 105.1 -0.85 100.3 L-0.85 82.4 39.1 82.4 39.1 93.15 40.85 92.8 39.15 92.8 39.15 72.55 52.3 72.55 52.3 74.75 63.55 74.75 M-63.75 113.2 Q-32.5 111.1 -0.85 106.35 19.05 103.3 39.1 99.25 L52.25 96.45 Q77.6 90.85 103.15 83.55 L108.7 81.95 113.55 80.55 136.55 73.35 138.9 72.6 156.5 66.6 M107.5 76.2 L103.15 77.45 Q77.6 84.75 52.3 90.35 L40.85 92.8 M103.15 77.45 L103.15 74.75 71.55 74.75 M-63.75 130.9 L-63.25 130.85 -49.35 130.05 -35.4 129.05 -21.45 127.8 -7.4 126.35 -7.35 126.35 6.7 124.6 6.75 124.6 20.9 122.65 35.05 120.45 35.1 120.45 49.35 118.1 49.45 118.1 63.7 115.45 63.75 115.45 78.1 112.65 78.15 112.6 92.6 109.45 92.6 109.4 107.15 106.1 121.7 102.5 121.75 102.5 136.35 98.7 152.45 94.15 M153.4 88.65 Q152.6 87.95 151.75 88.25 L135.5 92.8 120.9 96.6 106.35 100.2 106.4 100.2 103.15 100.95 93.2 103.2 91.9 103.5 91.85 103.5 91.9 103.5 77.4 106.7 77.5 106.7 63.1 109.5 48.8 112.15 48.85 112.15 34.55 114.5 20.45 116.7 6.3 118.65 6.3 118.6 -7.75 120.4 -7.75 120.35 -21.75 121.8 -35.65 123.05 -49.55 124.05 -63.4 124.85 -63.75 124.9 M-63.8 130.9 L-69.25 131.05 -81.75 131.35 -95.75 131.6 -109.5 131.7 -122.95 131.6 -123.0 131.6 -136.15 131.4 -149.0 131.1 -149.1 131.1 -161.6 130.55 -161.65 130.55 -173.95 129.9 -174.0 129.9 -186.05 129.05 -190.75 128.7 -197.7 128.15 -197.75 128.15 -209.25 127.05 -209.3 127.05 -220.4 125.8 -220.5 125.8 -242.0 122.45 -241.9 122.5 -262.5 118.9 -267.4 118.05 M112.35 74.75 L133.55 68.2 M52.3 74.75 L52.3 90.35 M-63.75 42.7 L-62.95 42.7 Q-62.05 42.7 -61.4 41.85 -60.75 40.95 -60.75 39.7 -60.75 38.45 -61.4 37.6 -62.05 36.7 -62.95 36.7 L-63.75 36.7 M-63.8 124.9 L-69.25 125.05 -81.9 125.35 -95.85 125.6 -109.5 125.7 -122.9 125.6 -136.0 125.4 -148.8 125.1 -161.3 124.55 -173.55 123.9 -185.6 123.05 -190.75 122.65 -197.25 122.15 -197.2 122.2 -197.25 122.2 -208.6 121.1 -219.75 119.85 -219.65 119.85 -241.0 116.55 -241.05 116.55 -261.3 113.0 -261.4 113.0 -267.75 111.9 M-69.25 107.45 L-96.0 108.4 -96.1 108.4 Q-149.65 107.8 -189.65 104.15 L-190.75 104.05 -220.3 100.55 -225.7 99.75 -230.65 98.95 -247.25 95.75 -252.2 94.6 M-264.95 97.45 L-253.65 100.45 -249.9 101.35 -232.05 104.8 -227.45 105.55 -220.3 106.65 -204.35 108.65 -190.75 110.05 Q-150.3 113.8 -96.05 114.4 L-95.95 114.4 -69.25 113.45 -63.8 113.2 M-148.05 42.7 L-69.25 42.7 M-189.9 62.7 L-189.9 41.35 -189.85 41.0 Q-189.3 35.75 -190.95 33.25 -192.7 31.4 -196.5 31.75 L-197.3 31.75 -197.3 25.8 -197.0 25.75 Q-189.4 25.1 -186.2 29.55 -183.0 33.3 -183.9 41.5 L-183.9 62.7 -180.5 62.7 -180.5 -61.65 -225.7 99.75 M-190.75 84.6 L-190.75 62.7 -189.9 62.7 -183.9 62.7 M-180.5 62.7 L-172.5 62.7 M-190.75 84.6 L-220.3 84.6 -220.3 100.55 M-262.5 118.9 L-262.4 118.9 -262.5 118.9 M-190.75 104.05 L-190.75 84.6 M-247.25 95.75 L-191.75 -40.05 -230.65 98.95 M39.1 93.15 Q19.05 97.25 -0.85 100.3" fill="none" stroke="#000000" stroke-linecap="round" stroke-linejoin="round" stroke-width="4.0"/>
    <path d="M107.5 76.2 L112.35 74.75 133.55 68.2 138.3 66.65 158.1 59.85 Q159.0 59.55 159.8 60.2 160.55 60.8 160.8 62.0 161.0 63.2 160.55 64.3 160.1 65.35 159.2 65.65 L156.5 66.6 138.9 72.6 136.55 73.35 113.55 80.55 108.7 81.95 103.15 83.55 Q77.6 90.85 52.25 96.45 L39.1 99.25 Q19.05 103.3 -0.85 106.35 -32.5 111.1 -63.75 113.2 L-63.75 107.2 Q-32.5 105.1 -0.85 100.3 19.05 97.25 39.1 93.15 L40.85 92.8 52.3 90.35 Q77.6 84.75 103.15 77.45 L107.5 76.2 M153.4 88.65 Q154.15 89.3 154.35 90.55 154.55 91.75 154.05 92.8 153.55 93.8 152.65 94.1 L152.45 94.15 136.35 98.7 121.75 102.5 121.7 102.5 107.15 106.1 92.6 109.4 92.6 109.45 78.15 112.6 78.1 112.65 63.75 115.45 63.7 115.45 49.45 118.1 49.35 118.1 35.1 120.45 35.05 120.45 20.9 122.65 6.75 124.6 6.7 124.6 -7.35 126.35 -7.4 126.35 -21.45 127.8 -35.4 129.05 -49.35 130.05 -63.25 130.85 -63.75 130.9 -63.75 124.9 -63.4 124.85 -49.55 124.05 -35.65 123.05 -21.75 121.8 -7.75 120.35 -7.75 120.4 6.3 118.6 6.3 118.65 20.45 116.7 34.55 114.5 48.85 112.15 48.8 112.15 63.1 109.5 77.5 106.7 77.4 106.7 91.9 103.5 93.2 103.2 103.15 100.95 106.4 100.2 106.35 100.2 120.9 96.6 135.5 92.8 151.75 88.25 Q152.6 87.95 153.4 88.65 M-267.4 118.05 L-269.55 117.65 Q-270.75 117.4 -271.45 116.4 -272.2 115.35 -271.95 114.15 -271.7 112.95 -270.7 112.25 -269.65 111.5 -268.45 111.75 L-267.8 111.9 -267.75 111.9 -261.4 113.0 -261.3 113.0 -241.05 116.55 -241.0 116.55 -219.65 119.85 -219.75 119.85 -208.6 121.1 -197.25 122.2 -197.2 122.2 -197.25 122.15 -190.75 122.65 -185.6 123.05 -173.55 123.9 -161.3 124.55 -148.8 125.1 -136.0 125.4 -122.9 125.6 -109.5 125.7 -95.85 125.6 -81.9 125.35 -69.25 125.05 -63.8 124.9 -63.8 130.9 -69.25 131.05 -81.75 131.35 -95.75 131.6 -109.5 131.7 -122.95 131.6 -123.0 131.6 -136.15 131.4 -149.0 131.1 -149.1 131.1 -161.6 130.55 -161.65 130.55 -173.95 129.9 -174.0 129.9 -186.05 129.05 -190.75 128.7 -197.7 128.15 -197.75 128.15 -209.25 127.05 -209.3 127.05 -220.4 125.8 -220.5 125.8 -242.0 122.45 -241.9 122.5 -262.5 118.9 -267.4 118.05 M-264.95 97.45 L-267.1 96.8 Q-268.3 96.4 -268.9 95.3 -269.5 94.2 -269.1 93.05 -268.75 91.85 -267.65 91.25 L-265.35 91.05 -252.2 94.6 -247.25 95.75 -230.65 98.95 -225.7 99.75 -220.3 100.55 -190.75 104.05 -189.65 104.15 Q-149.65 107.8 -96.1 108.4 L-96.0 108.4 -69.25 107.45 -63.8 107.2 -63.8 113.2 -69.25 113.45 -95.95 114.4 -96.05 114.4 Q-150.3 113.8 -190.75 110.05 L-204.35 108.65 -220.3 106.65 -227.45 105.55 -232.05 104.8 -249.9 101.35 -253.65 100.45 -264.95 97.45 M-148.05 42.7 L-154.05 42.7 Q-155.3 42.7 -156.15 41.85 -157.05 40.95 -157.05 39.7 -157.05 38.45 -156.15 37.6 -155.3 36.7 -154.05 36.7 L-62.95 36.7 Q-62.05 36.7 -61.4 37.6 -60.75 38.45 -60.75 39.7 -60.75 40.95 -61.4 41.85 -62.05 42.7 -62.95 42.7 L-69.25 42.7 -148.05 42.7 M91.9 103.5 L91.85 103.5 91.9 103.5 M-262.5 118.9 L-262.4 118.9 -262.5 118.9" fill="#ffffff" fill-rule="evenodd" stroke="none"/>
    <path d="M91.9 103.5 L91.85 103.5 91.9 103.5 M6.3 118.65 L6.3 118.6 6.3 118.65 M-7.75 120.4 L-7.75 120.35 -7.75 120.4 M-63.75 124.9 L-63.75 130.9 -63.8 130.9 -63.8 124.9 -63.75 124.9 M-197.25 122.15 L-197.2 122.2 -197.25 122.2 -197.25 122.15" fill="#6ba3d8" fill-rule="evenodd" stroke="none"/>
    <path d="M-101.55 46.8 L-101.55 102.65 -120.7 102.65 -120.7 46.8 -101.55 46.8" fill="#8d6858" fill-rule="evenodd" stroke="none"/>
    <path d="M-172.5 62.7 L-148.05 62.7 -148.05 42.7 -69.25 42.7 -69.25 47.9 -80.1 47.9 -80.1 61.6 -69.25 61.6 -69.25 107.45 -96.0 108.4 -96.1 108.4 Q-149.65 107.8 -189.65 104.15 L-190.75 104.05 -190.75 84.6 -190.75 62.7 -189.9 62.7 -183.9 62.7 -180.5 62.7 -172.5 62.7 M-84.5 47.9 L-96.65 47.9 -96.65 61.6 -84.5 61.6 -84.5 47.9 M-101.55 46.8 L-120.7 46.8 -120.7 102.65 -101.55 102.65 -101.55 46.8 M-125.2 47.9 L-142.8 47.9 -142.8 61.6 -125.2 61.6 -125.2 47.9" fill="#ebebe9" fill-rule="evenodd" stroke="none"/>
    <path d="M-69.25 47.9 L-69.25 61.6 -80.1 61.6 -80.1 47.9 -69.25 47.9 M-84.5 47.9 L-84.5 61.6 -96.65 61.6 -96.65 47.9 -84.5 47.9 M-125.2 47.9 L-125.2 61.6 -142.8 61.6 -142.8 47.9 -125.2 47.9" fill="#333333" fill-rule="evenodd" stroke="none"/>
    <path d="M156.5 66.6 Q155.25 77.65 153.4 88.65 152.6 87.95 151.75 88.25 L135.5 92.8 120.9 96.6 106.35 100.2 106.4 100.2 103.15 100.95 93.2 103.2 91.9 103.5 77.4 106.7 77.5 106.7 63.1 109.5 48.8 112.15 48.85 112.15 34.55 114.5 20.45 116.7 6.3 118.65 6.3 118.6 -7.75 120.4 -7.75 120.35 -21.75 121.8 -35.65 123.05 -49.55 124.05 -63.4 124.85 -63.75 124.9 -63.8 124.9 -69.25 125.05 -81.9 125.35 -95.85 125.6 -109.5 125.7 -122.9 125.6 -136.0 125.4 -148.8 125.1 -161.3 124.55 -173.55 123.9 -185.6 123.05 -190.75 122.65 -197.25 122.15 -197.25 122.2 -208.6 121.1 -219.75 119.85 -219.65 119.85 -241.0 116.55 -241.05 116.55 -261.3 113.0 -261.4 113.0 -267.75 111.9 -267.75 111.8 Q-267.65 104.65 -265.0 97.55 L-264.95 97.45 -253.65 100.45 -249.9 101.35 -232.05 104.8 -227.45 105.55 -220.3 106.65 -204.35 108.65 -190.75 110.05 Q-150.3 113.8 -96.05 114.4 L-95.95 114.4 -69.25 113.45 -63.8 113.2 -63.75 113.2 Q-32.5 111.1 -0.85 106.35 19.05 103.3 39.1 99.25 L52.25 96.45 Q77.6 90.85 103.15 83.55 L108.7 81.95 113.55 80.55 136.55 73.35 138.9 72.6 156.5 66.6 M152.45 94.15 Q147.15 123.2 131.65 156.9 L-242.6 156.9 Q-257.8 143.4 -263.5 131.1 -266.5 124.55 -267.4 118.05 L-262.5 118.9 -241.9 122.5 -242.0 122.45 -220.5 125.8 -220.4 125.8 -209.3 127.05 -209.25 127.05 -197.75 128.15 -197.7 128.15 -190.75 128.7 -186.05 129.05 -174.0 129.9 -173.95 129.9 -161.65 130.55 -161.6 130.55 -149.1 131.1 -149.0 131.1 -136.15 131.4 -123.0 131.6 -122.95 131.6 -109.5 131.7 -95.75 131.6 -81.75 131.35 -69.25 131.05 -63.8 130.9 -63.75 130.9 -63.25 130.85 -49.35 130.05 -35.4 129.05 -21.45 127.8 -7.4 126.35 -7.35 126.35 6.7 124.6 6.75 124.6 20.9 122.65 35.05 120.45 35.1 120.45 49.35 118.1 49.45 118.1 63.7 115.45 63.75 115.45 78.1 112.65 78.15 112.6 92.6 109.45 92.6 109.4 107.15 106.1 121.7 102.5 121.75 102.5 136.35 98.7 152.45 94.15" fill="url(#gradient1)" fill-rule="evenodd" stroke="none"/>
    <path d="M63.55 74.75 L63.55 -179.75 Q63.55 -181.4 64.75 -182.55 65.9 -183.75 67.55 -183.75 69.2 -183.75 70.4 -182.55 71.55 -181.4 71.55 -179.75 L71.55 -135.7 71.6 -135.6 138.3 66.65 133.55 68.2 73.5 -113.8 112.35 74.75 107.5 76.2 71.55 -98.5 71.55 74.75 63.55 74.75 M-252.2 94.6 L-180.5 -80.8 -180.5 -128.3 Q-180.5 -129.95 -179.3 -131.1 -178.15 -132.3 -176.5 -132.3 -174.85 -132.3 -173.65 -131.1 -172.5 -129.95 -172.5 -128.3 L-172.5 62.7 -180.5 62.7 -180.5 -61.65 -225.7 99.75 -230.65 98.95 -191.75 -40.05 -247.25 95.75 -252.2 94.6" fill="#f6d741" fill-rule="evenodd" stroke="none"/>
    <path d="M40.85 92.8 L39.15 92.8 39.15 72.55 52.3 72.55 52.3 74.75 52.3 90.35 40.85 92.8 M-189.9 62.7 L-189.9 41.35 -189.85 41.0 Q-189.3 35.75 -190.95 33.25 -192.7 31.4 -196.5 31.75 L-197.3 31.75 -197.3 25.8 -197.0 25.75 Q-189.4 25.1 -186.2 29.55 -183.0 33.3 -183.9 41.5 L-183.9 62.7 -189.9 62.7" fill="#cccccc" fill-rule="evenodd" stroke="none"/>
    <path d="M63.55 74.75 L71.55 74.75 103.15 74.75 103.15 77.45 Q77.6 84.75 52.3 90.35 L52.3 74.75 63.55 74.75 M-0.85 100.3 L-0.85 82.4 39.1 82.4 39.1 93.15 Q19.05 97.25 -0.85 100.3 M-190.75 104.05 L-220.3 100.55 -220.3 84.6 -190.75 84.6 -190.75 104.05" fill="#aaaaaa" fill-rule="evenodd" stroke="none"/>
    <path d="M138.3 66.65 L71.6 -135.6 71.55 -135.7 71.55 -179.75 Q71.55 -181.4 70.4 -182.55 69.2 -183.75 67.55 -183.75 65.9 -183.75 64.75 -182.55 63.55 -181.4 63.55 -179.75 L63.55 74.75 71.55 74.75 71.55 -98.5 107.5 76.2 112.35 74.75 73.5 -113.8 133.55 68.2 138.3 66.65 158.1 59.85 Q159.0 59.55 159.8 60.2 160.55 60.8 160.8 62.0 161.0 63.2 160.55 64.3 160.1 65.35 159.2 65.65 L156.5 66.6 Q155.25 77.65 153.4 88.65 154.15 89.3 154.35 90.55 154.55 91.75 154.05 92.8 153.55 93.8 152.65 94.1 L152.45 94.15 Q147.15 123.2 131.65 156.9 L-242.6 156.9 Q-257.8 143.4 -263.5 131.1 -266.5 124.55 -267.4 118.05 L-269.55 117.65 Q-270.75 117.4 -271.45 116.4 -272.2 115.35 -271.95 114.15 -271.7 112.95 -270.7 112.25 -269.65 111.5 -268.45 111.75 L-267.8 111.9 -267.75 111.9 -267.75 111.8 Q-267.65 104.65 -265.0 97.55 L-264.95 97.45 -267.1 96.8 Q-268.3 96.4 -268.9 95.3 -269.5 94.2 -269.1 93.05 -268.75 91.85 -267.65 91.25 L-265.35 91.05 -252.2 94.6 -180.5 -80.8 -180.5 -128.3 Q-180.5 -129.95 -179.3 -131.1 -178.15 -132.3 -176.5 -132.3 -174.85 -132.3 -173.65 -131.1 -172.5 -129.95 -172.5 -128.3 L-172.5 62.7 -148.05 62.7 -148.05 42.7 -154.05 42.7 Q-155.3 42.7 -156.15 41.85 -157.05 40.95 -157.05 39.7 -157.05 38.45 -156.15 37.6 -155.3 36.7 -154.05 36.7 L-62.95 36.7 Q-62.05 36.7 -61.4 37.6 -60.75 38.45 -60.75 39.7 -60.75 40.95 -61.4 41.85 -62.05 42.7 -62.95 42.7 L-69.25 42.7 -69.25 47.9 -69.25 61.6 -69.25 107.45 -63.8 107.2 M-63.75 107.2 Q-32.5 105.1 -0.85 100.3 L-0.85 82.4 39.1 82.4 39.1 93.15 40.85 92.8 39.15 92.8 39.15 72.55 52.3 72.55 52.3 74.75 63.55 74.75 M-63.75 113.2 Q-32.5 111.1 -0.85 106.35 19.05 103.3 39.1 99.25 L52.25 96.45 Q77.6 90.85 103.15 83.55 L108.7 81.95 113.55 80.55 136.55 73.35 138.9 72.6 156.5 66.6 M107.5 76.2 L103.15 77.45 Q77.6 84.75 52.3 90.35 L40.85 92.8 M103.15 77.45 L103.15 74.75 71.55 74.75 M-63.75 130.9 L-63.25 130.85 -49.35 130.05 -35.4 129.05 -21.45 127.8 -7.4 126.35 -7.35 126.35 6.7 124.6 6.75 124.6 20.9 122.65 35.05 120.45 35.1 120.45 49.35 118.1 49.45 118.1 63.7 115.45 63.75 115.45 78.1 112.65 78.15 112.6 92.6 109.45 92.6 109.4 107.15 106.1 121.7 102.5 121.75 102.5 136.35 98.7 152.45 94.15 M153.4 88.65 Q152.6 87.95 151.75 88.25 L135.5 92.8 120.9 96.6 106.35 100.2 106.4 100.2 103.15 100.95 93.2 103.2 91.9 103.5 91.85 103.5 91.9 103.5 77.4 106.7 77.5 106.7 63.1 109.5 48.8 112.15 48.85 112.15 34.55 114.5 20.45 116.7 6.3 118.65 6.3 118.6 -7.75 120.4 -7.75 120.35 -21.75 121.8 -35.65 123.05 -49.55 124.05 -63.4 124.85 -63.75 124.9 M-63.8 130.9 L-69.25 131.05 -81.75 131.35 -95.75 131.6 -109.5 131.7 -122.95 131.6 -123.0 131.6 -136.15 131.4 -149.0 131.1 -149.1 131.1 -161.6 130.55 -161.65 130.55 -173.95 129.9 -174.0 129.9 -186.05 129.05 -190.75 128.7 -197.7 128.15 -197.75 128.15 -209.25 127.05 -209.3 127.05 -220.4 125.8 -220.5 125.8 -242.0 122.45 -241.9 122.5 -262.5 118.9 -267.4 118.05 M112.35 74.75 L133.55 68.2 M52.3 74.75 L52.3 90.35 M-63.8 124.9 L-69.25 125.05 -81.9 125.35 -95.85 125.6 -109.5 125.7 -122.9 125.6 -136.0 125.4 -148.8 125.1 -161.3 124.55 -173.55 123.9 -185.6 123.05 -190.75 122.65 -197.25 122.15 -197.2 122.2 -197.25 122.2 -208.6 121.1 -219.75 119.85 -219.65 119.85 -241.0 116.55 -241.05 116.55 -261.3 113.0 -261.4 113.0 -267.75 111.9 M-69.25 107.45 L-96.0 108.4 -96.1 108.4 Q-149.65 107.8 -189.65 104.15 L-190.75 104.05 -220.3 100.55 -225.7 99.75 -230.65 98.95 -247.25 95.75 -252.2 94.6 M-264.95 97.45 L-253.65 100.45 -249.9 101.35 -232.05 104.8 -227.45 105.55 -220.3 106.65 -204.35 108.65 -190.75 110.05 Q-150.3 113.8 -96.05 114.4 L-95.95 114.4 -69.25 113.45 -63.8 113.2 M-69.25 42.7 L-148.05 42.7 M-189.9 62.7 L-189.9 41.35 -189.85 41.0 Q-189.3 35.75 -190.95 33.25 -192.7 31.4 -196.5 31.75 L-197.3 31.75 -197.3 25.8 -197.0 25.75 Q-189.4 25.1 -186.2 29.55 -183.0 33.3 -183.9 41.5 L-183.9 62.7 -180.5 62.7 -180.5 -61.65 -225.7 99.75 M-183.9 62.7 L-189.9 62.7 -190.75 62.7 -190.75 84.6 -190.75 104.05 M-180.5 62.7 L-172.5 62.7 M-190.75 84.6 L-220.3 84.6 -220.3 100.55 M-262.5 118.9 L-262.4 118.9 -262.5 118.9 M-247.25 95.75 L-191.75 -40.05 -230.65 98.95 M39.1 93.15 Q19.05 97.25 -0.85 100.3" fill="none" stroke="#000000" stroke-linecap="round" stroke-linejoin="round" stroke-width="0.05"/>
    <path d="M-111.1 50.55 Q-109.0 50.55 -107.5 52.05 -106.0 53.55 -106.0 55.6 -106.0 57.7 -107.5 59.2 -109.0 60.7 -111.1 60.7 -113.15 60.7 -114.65 59.2 -116.15 57.7 -116.15 55.6 -116.15 53.55 -114.65 52.05 -113.15 50.55 -111.1 50.55" fill="#333333" fill-rule="evenodd" stroke="none"/>
    <path d="M63.3 -150.8 Q63.45 -149.65 62.6 -148.0 -2.25 -23.4 -68.85 71.3 M72.0 -161.0 L155.1 61.6 M-180.5 -109.05 L-265.15 93.35 M-172.75 -109.7 Q-74.7 -108.65 63.65 -162.25 M63.75 -161.7 Q6.05 -46.45 -72.05 36.6 M63.55 -134.95 Q26.4 1.4 -47.55 105.75" fill="none" stroke="#000000" stroke-linecap="round" stroke-linejoin="round" stroke-width="0.05"/>
  </g>
  <defs>
    <linearGradient gradientTransform="matrix(0.0, 0.0355, -0.2563, 0.0, -57.45, 123.2)" gradientUnits="userSpaceOnUse" id="gradient0" spreadMethod="pad" x1="-819.2" x2="819.2">
      <stop offset="0.35294117647058826" stop-color="#6089bc"/>
      <stop offset="0.8509803921568627" stop-color="#2e4d6b"/>
    </linearGradient>
    <linearGradient gradientTransform="matrix(0.0, 0.0355, -0.2563, 0.0, -57.45, 123.2)" gradientUnits="userSpaceOnUse" id="gradient1" spreadMethod="pad" x1="-819.2" x2="819.2">
      <stop offset="0.35294117647058826" stop-color="#6089bc"/>
      <stop offset="0.8509803921568627" stop-color="#2e4d6b"/>
    </linearGradient>
  </defs>
</svg>
