<?xml version="1.0" encoding="UTF-8" standalone="no"?>
<svg xmlns:ffdec="https://www.free-decompiler.com/flash" xmlns:xlink="http://www.w3.org/1999/xlink" ffdec:objectType="shape" height="37.2px" width="457.5px" xmlns="http://www.w3.org/2000/svg">
  <g transform="matrix(1.0, 0.0, 0.0, 1.0, 254.65, 12.15)">
    <path d="M-254.4 17.5 Q-243.6 15.95 -245.4 11.4 -247.6 5.95 -245.8 4.95 -244.0 3.9 -239.35 4.15 -234.75 4.4 -228.65 6.55 L-215.5 11.0 Q-210.7 12.6 -206.95 13.2 L-203.7 13.55 Q-199.0 13.7 -200.25 10.35 -201.5 7.0 -201.8 5.25 -202.15 3.45 -196.25 3.1 -190.4 2.75 -173.5 7.8 -159.4 11.95 -156.65 11.95 -153.4 11.95 -152.15 11.3 -151.3 10.9 -150.95 9.85 -150.6 8.8 -149.95 8.4 -148.85 7.75 -145.85 7.75 -142.95 7.75 -133.5 10.3 -124.15 12.8 -120.65 12.8 -117.0 12.8 -116.45 11.55 L-117.45 7.1 -117.55 6.05 -117.5 4.45 Q-117.1 1.5 -109.8 1.5 -104.5 1.45 -99.65 3.0 -96.75 3.85 -91.75 6.3 -86.7 8.7 -83.8 9.6 -79.05 11.1 -72.25 11.3 -65.5 11.5 -66.7 8.7 L-66.7 8.5 -66.75 7.6 -66.75 6.85 Q-66.55 3.6 -62.5 3.6 -57.3 3.55 -51.35 5.9 L-42.3 9.35 Q-39.2 10.4 -34.2 10.95 -29.2 11.5 -27.75 11.0 -26.1 10.5 -25.85 8.45 -25.65 6.4 -31.05 3.7 -36.5 1.0 -33.2 -0.25 -29.95 -1.55 -21.55 -0.3 -13.15 0.95 0.6 6.3 12.85 11.1 17.8 11.1 21.1 11.1 22.7 10.4 23.75 9.9 24.6 8.8 25.45 7.6 26.3 7.2 27.75 6.5 30.7 6.5 34.3 6.5 40.0 8.45 L49.5 11.4 55.85 11.7 Q58.4 10.9 56.3 7.25 54.15 3.6 54.45 2.7 55.05 1.05 59.0 1.05 63.8 1.05 68.85 2.75 71.95 3.8 77.55 6.5 L84.05 9.7 Q89.25 11.9 97.4 12.45 103.25 12.4 103.35 10.25 103.45 8.05 99.1 5.6 94.7 3.1 92.95 1.75 91.25 0.35 92.55 -0.8 L100.8 -1.1 Q107.75 -0.2 120.0 5.5 132.25 11.15 134.8 11.6 L138.05 11.8 140.15 10.95 Q142.55 9.4 136.7 5.25 133.95 3.45 132.6 1.25 131.3 -0.9 134.7 -1.4 138.05 -1.95 146.45 0.95 157.35 3.65 164.85 10.35 171.15 14.1 173.7 13.45 176.2 12.8 176.3 9.1 176.35 5.4 172.65 -0.7 168.95 -6.8 168.95 -9.15 168.95 -11.45 171.0 -11.8 L174.25 -11.75 Q197.75 -0.1 202.6 18.65 L202.6 25.05 -254.4 23.75 -254.4 17.5" fill="url(#gradient0)" fill-rule="evenodd" stroke="none"/>
    <path d="M202.6 18.65 Q197.75 -0.1 174.25 -11.75 L171.0 -11.8 Q168.95 -11.45 168.95 -9.15 168.95 -6.8 172.65 -0.7 176.35 5.4 176.3 9.1 176.2 12.8 173.7 13.45 171.15 14.1 164.85 10.35 157.35 3.65 146.45 0.95 138.05 -1.95 134.7 -1.4 131.3 -0.9 132.6 1.25 133.95 3.45 136.7 5.25 142.55 9.4 140.15 10.95 L138.05 11.8 134.8 11.6 Q132.25 11.15 120.0 5.5 107.75 -0.2 100.8 -1.1 L92.55 -0.8 Q91.25 0.35 92.95 1.75 94.7 3.1 99.1 5.6 103.45 8.05 103.35 10.25 103.25 12.4 97.4 12.45 89.25 11.9 84.05 9.7 L77.55 6.5 Q71.95 3.8 68.85 2.75 63.8 1.05 59.0 1.05 55.05 1.05 54.45 2.7 54.15 3.6 56.3 7.25 58.4 10.9 55.85 11.7 L49.5 11.4 40.0 8.45 Q34.3 6.5 30.7 6.5 27.75 6.5 26.3 7.2 25.45 7.6 24.6 8.8 23.75 9.9 22.7 10.4 21.1 11.1 17.8 11.1 12.85 11.1 0.6 6.3 -13.15 0.95 -21.55 -0.3 -29.95 -1.55 -33.2 -0.25 -36.5 1.0 -31.05 3.7 -25.65 6.4 -25.85 8.45 -26.1 10.5 -27.75 11.0 -29.2 11.5 -34.2 10.95 -39.2 10.4 -42.3 9.35 L-51.35 5.9 Q-57.3 3.55 -62.5 3.6 -66.55 3.6 -66.75 6.85 L-66.75 7.6 -66.7 8.5 -66.7 8.7 Q-65.5 11.5 -72.25 11.3 -79.05 11.1 -83.8 9.6 -86.7 8.7 -91.75 6.3 -96.75 3.85 -99.65 3.0 -104.5 1.45 -109.8 1.5 -117.1 1.5 -117.5 4.45 L-117.55 6.05 -117.45 7.1 -116.45 11.55 Q-117.0 12.8 -120.65 12.8 -124.15 12.8 -133.5 10.3 -142.95 7.75 -145.85 7.75 -148.85 7.75 -149.95 8.4 -150.6 8.8 -150.95 9.85 -151.3 10.9 -152.15 11.3 -153.4 11.95 -156.65 11.95 -159.4 11.95 -173.5 7.8 -190.4 2.75 -196.25 3.1 -202.15 3.45 -201.8 5.25 -201.5 7.0 -200.25 10.35 -199.0 13.7 -203.7 13.55 L-206.95 13.2 Q-210.7 12.6 -215.5 11.0 L-228.65 6.55 Q-234.75 4.4 -239.35 4.15 -244.0 3.9 -245.8 4.95 -247.6 5.95 -245.4 11.4 -243.6 15.95 -254.4 17.5 M-66.75 7.6 L-66.7 8.7 -66.7 8.5" fill="none" stroke="#000000" stroke-linecap="round" stroke-linejoin="round" stroke-width="0.5"/>
  </g>
  <defs>
    <linearGradient gradientTransform="matrix(0.0, 0.0169, -0.2876, 0.0, -62.8, 13.05)" gradientUnits="userSpaceOnUse" id="gradient0" spreadMethod="pad" x1="-819.2" x2="819.2">
      <stop offset="0.6666666666666666" stop-color="#97d6f0" stop-opacity="0.8"/>
      <stop offset="0.8549019607843137" stop-color="#97d6f0" stop-opacity="0.0"/>
    </linearGradient>
  </defs>
</svg>
