<?xml version="1.0" encoding="UTF-8" standalone="no"?>
<svg xmlns:ffdec="https://www.free-decompiler.com/flash" xmlns:xlink="http://www.w3.org/1999/xlink" ffdec:objectType="shape" height="51.95px" width="463.95px" xmlns="http://www.w3.org/2000/svg">
  <g transform="matrix(1.0, 0.0, 0.0, 1.0, 261.9, 23.75)">
    <path d="M-222.2 4.7 Q-213.9 6.65 -214.25 -0.5 L-214.95 -10.95 Q-215.3 -14.35 -209.85 -14.95 -204.45 -15.6 -188.85 -6.15 -175.9 1.6 -173.35 1.6 -170.35 1.6 -169.2 0.4 -168.45 -0.4 -168.1 -2.3 -167.75 -4.3 -167.2 -5.0 -166.15 -6.2 -163.4 -6.2 -160.7 -6.2 -152.0 -1.5 -143.4 3.15 -140.15 3.2 -136.8 3.15 -136.3 0.85 L-137.25 -7.45 -137.3 -9.4 -137.25 -12.45 Q-136.9 -17.95 -130.2 -17.95 -125.3 -17.95 -120.85 -15.15 -118.15 -13.45 -113.55 -8.95 -108.95 -4.45 -106.25 -2.75 -101.85 0.05 -95.55 0.45 -89.35 0.8 -90.45 -4.45 L-90.45 -4.85 -90.5 -6.5 -90.5 -7.95 Q-90.35 -14.05 -86.55 -14.05 -81.8 -14.05 -76.35 -9.65 -70.9 -5.25 -68.0 -3.25 -65.1 -1.3 -60.5 -0.2 -55.9 0.85 -54.55 -0.1 -53.05 -1.1 -52.85 -4.9 -52.65 -8.75 -57.6 -13.8 -62.6 -18.85 -59.6 -21.25 -56.6 -23.7 -48.85 -21.3 -41.1 -18.95 -28.45 -8.9 -17.15 0.05 -12.6 0.05 -9.55 0.05 -8.1 -1.3 -7.15 -2.15 -6.35 -4.25 -5.55 -6.45 -4.75 -7.25 -3.45 -8.6 -0.75 -8.55 2.6 -8.6 7.85 -4.95 13.1 -1.35 16.6 0.6 20.1 2.55 22.45 1.15 24.8 -0.3 22.85 -7.15 20.85 -14.05 21.15 -15.7 21.7 -18.75 25.35 -18.75 29.8 -18.75 34.45 -15.55 37.3 -13.6 42.45 -8.55 L48.5 -2.6 Q53.25 1.55 60.75 2.5 66.15 2.5 66.25 -1.55 66.35 -5.65 62.35 -10.3 58.3 -14.95 56.7 -17.5 55.05 -20.05 56.25 -22.25 57.45 -24.5 62.3 -22.75 67.1 -21.1 78.45 -10.45 89.75 0.15 92.55 0.95 95.35 1.75 97.1 1.35 98.85 0.9 100.1 -0.25 102.35 -3.15 96.95 -10.9 94.4 -14.35 93.2 -18.4 92.0 -22.5 95.1 -23.4 98.2 -24.4 110.85 -14.75 L118.05 -9.2 Q126.55 -0.95 137.3 3.0 L137.9 3.15 Q142.5 4.35 142.75 -3.35 142.95 -11.05 147.0 -9.35 150.0 -8.05 153.45 -4.05 L158.15 1.3 159.0 2.3 158.15 1.3 159.35 2.65 159.0 2.3 161.35 4.8 161.4 4.85 Q164.5 6.9 168.1 6.0 171.7 5.05 172.5 2.4 173.3 -0.3 173.35 -3.05 173.4 -5.9 171.95 -9.75 170.45 -13.65 169.75 -16.85 169.0 -20.1 170.3 -20.9 171.6 -21.75 175.15 -21.85 178.65 -21.95 189.3 -8.6 198.2 2.5 201.8 17.2 L201.8 23.15 -211.15 25.15 -261.3 28.2 -261.65 9.75 Q-254.8 10.0 -257.1 1.0 -259.65 -8.9 -258.0 -10.85 -256.35 -12.8 -252.05 -12.3 -247.8 -11.8 -242.2 -7.85 L-230.1 0.5 Q-225.65 3.5 -222.2 4.6 L-222.2 4.7 M156.75 16.35 L156.75 16.05 154.25 16.05 156.75 16.35" fill="url(#gradient0)" fill-rule="evenodd" stroke="none"/>
    <path d="M158.15 1.3 L153.45 -4.05 Q150.0 -8.05 147.0 -9.35 142.95 -11.05 142.75 -3.35 142.5 4.35 137.9 3.15 L137.3 3.0 Q126.55 -0.95 118.05 -9.2 L110.85 -14.75 Q98.2 -24.4 95.1 -23.4 92.0 -22.5 93.2 -18.4 94.4 -14.35 96.95 -10.9 102.35 -3.15 100.1 -0.25 98.85 0.9 97.1 1.35 95.35 1.75 92.55 0.95 89.75 0.15 78.45 -10.45 67.1 -21.1 62.3 -22.75 57.45 -24.5 56.25 -22.25 55.05 -20.05 56.7 -17.5 58.3 -14.95 62.35 -10.3 66.35 -5.65 66.25 -1.55 66.15 2.5 60.75 2.5 53.25 1.55 48.5 -2.6 L42.45 -8.55 Q37.3 -13.6 34.45 -15.55 29.8 -18.75 25.35 -18.75 21.7 -18.75 21.15 -15.7 20.85 -14.05 22.85 -7.15 24.8 -0.3 22.45 1.15 20.1 2.55 16.6 0.6 13.1 -1.35 7.85 -4.95 2.6 -8.6 -0.75 -8.55 -3.45 -8.6 -4.75 -7.25 -5.55 -6.45 -6.35 -4.25 -7.15 -2.15 -8.1 -1.3 -9.55 0.05 -12.6 0.05 -17.15 0.05 -28.45 -8.9 -41.1 -18.95 -48.85 -21.3 -56.6 -23.7 -59.6 -21.25 -62.6 -18.85 -57.6 -13.8 -52.65 -8.75 -52.85 -4.9 -53.05 -1.1 -54.55 -0.1 -55.9 0.85 -60.5 -0.2 -65.1 -1.3 -68.0 -3.25 -70.9 -5.25 -76.35 -9.65 -81.8 -14.05 -86.55 -14.05 -90.35 -14.05 -90.5 -7.95 L-90.5 -6.5 -90.45 -4.85 -90.45 -4.45 Q-89.35 0.8 -95.55 0.45 -101.85 0.05 -106.25 -2.75 -108.95 -4.45 -113.55 -8.95 -118.15 -13.45 -120.85 -15.15 -125.3 -17.95 -130.2 -17.95 -136.9 -17.95 -137.25 -12.45 L-137.3 -9.4 -137.25 -7.45 -136.3 0.85 Q-136.8 3.15 -140.15 3.2 -143.4 3.15 -152.0 -1.5 -160.7 -6.2 -163.4 -6.2 -166.15 -6.2 -167.2 -5.0 -167.75 -4.3 -168.1 -2.3 -168.45 -0.4 -169.2 0.4 -170.35 1.6 -173.35 1.6 -175.9 1.6 -188.85 -6.15 -204.45 -15.6 -209.85 -14.95 -215.3 -14.35 -214.95 -10.95 L-214.25 -0.5 Q-213.9 6.65 -222.2 4.7 M-222.2 4.6 Q-225.65 3.5 -230.1 0.5 L-242.2 -7.85 Q-247.8 -11.8 -252.05 -12.3 -256.35 -12.8 -258.0 -10.85 -259.65 -8.9 -257.1 1.0 -254.8 10.0 -261.65 9.75 M158.15 1.3 L159.35 2.65 M-90.5 -6.5 L-90.5 -4.5 -90.45 -4.85 M-90.5 -4.5 L-90.45 -4.45" fill="none" stroke="#000000" stroke-linecap="round" stroke-linejoin="round" stroke-width="0.5"/>
    <path d="M201.8 17.2 Q198.2 2.5 189.3 -8.6 178.65 -21.95 175.15 -21.85 171.6 -21.75 170.3 -20.9 169.0 -20.1 169.75 -16.85 170.45 -13.65 171.95 -9.75 173.4 -5.9 173.35 -3.05 173.3 -0.3 172.5 2.4 171.7 5.05 168.1 6.0 164.5 6.9 161.4 4.85 L161.35 4.8 159.0 2.3 158.15 1.3" fill="none" stroke="#000000" stroke-linecap="round" stroke-linejoin="round" stroke-width="0.5"/>
  </g>
  <defs>
    <linearGradient gradientTransform="matrix(0.0, 0.0317, -0.265, 0.0, 347.25, 0.4)" gradientUnits="userSpaceOnUse" id="gradient0" spreadMethod="pad" x1="-819.2" x2="819.2">
      <stop offset="0.6666666666666666" stop-color="#97d6f0" stop-opacity="0.8"/>
      <stop offset="0.8549019607843137" stop-color="#97d6f0" stop-opacity="0.0"/>
    </linearGradient>
  </defs>
</svg>
