<?xml version="1.0" encoding="UTF-8" standalone="no"?>
<svg xmlns:ffdec="https://www.free-decompiler.com/flash" xmlns:xlink="http://www.w3.org/1999/xlink" ffdec:objectType="shape" height="33.0px" width="433.55px" xmlns="http://www.w3.org/2000/svg">
  <g transform="matrix(1.0, 0.0, 0.0, 1.0, 233.55, 9.25)">
    <path d="M-233.3 12.8 Q-227.05 12.8 -225.0 11.65 -222.95 10.45 -223.5 8.8 L-224.6 5.05 Q-225.25 3.0 -221.7 1.8 -218.15 0.6 -209.9 3.4 -201.65 6.15 -198.5 7.45 L-188.35 11.6 Q-181.3 14.4 -183.85 7.6 -186.4 0.8 -184.7 -0.55 -183.05 -1.9 -178.8 -1.55 -174.55 -1.2 -168.9 1.5 L-156.8 7.25 Q-152.4 9.3 -148.95 10.1 L-145.95 10.55 Q-141.65 10.75 -142.75 6.45 L-144.2 -0.2 Q-144.55 -2.5 -139.1 -2.95 -133.7 -3.4 -118.1 3.1 -105.15 8.45 -102.6 8.5 -99.6 8.5 -98.45 7.65 -97.7 7.1 -97.35 5.8 -97.0 4.4 -96.45 3.95 -95.4 3.1 -92.65 3.1 -89.95 3.1 -81.3 6.35 -72.65 9.55 -69.45 9.55 -66.1 9.55 -65.6 7.95 L-66.5 2.2 -66.6 0.9 -66.55 -1.2 Q-66.15 -5.0 -59.45 -5.0 -54.6 -5.0 -50.1 -3.05 -47.4 -1.9 -42.8 1.2 -38.2 4.3 -35.5 5.45 -31.15 7.4 -24.85 7.65 -18.65 7.9 -19.75 4.3 L-19.8 2.9 -19.8 1.9 Q-19.6 -2.3 -15.85 -2.3 -11.1 -2.3 -5.6 0.7 L2.75 5.1 Q5.6 6.5 10.2 7.25 14.8 7.95 16.15 7.3 17.65 6.6 17.85 4.0 18.05 1.35 13.1 -2.15 8.1 -5.6 11.1 -7.25 14.1 -8.95 21.85 -7.3 29.6 -5.7 42.25 1.25 53.55 7.4 58.1 7.4 61.1 7.4 62.6 6.5 63.55 5.9 64.35 4.45 65.15 2.9 65.9 2.4 67.25 1.45 69.95 1.45 73.3 1.45 78.55 3.95 L87.3 7.8 Q90.8 9.1 93.15 8.15 95.5 7.15 93.55 2.45 91.55 -2.3 91.85 -3.45 92.4 -5.55 96.05 -5.55 100.5 -5.55 105.15 -3.35 107.95 -2.05 113.15 1.45 L119.15 5.55 Q123.9 8.45 131.45 9.1 136.8 9.1 136.9 6.3 137.0 3.45 133.0 0.25 128.95 -2.95 127.35 -4.7 125.75 -6.45 126.95 -7.95 128.1 -9.5 132.95 -8.3 137.75 -7.15 149.1 0.15 160.4 7.45 163.2 8.05 L167.8 8.3 Q169.55 8.0 170.8 7.2 173.0 5.2 167.6 -0.15 165.05 -2.5 163.85 -5.3 162.65 -8.15 165.8 -8.75 168.9 -9.45 172.35 -8.25 192.0 0.05 197.7 13.2 L200.0 11.35 200.0 23.75 -233.3 23.75 -233.3 12.8" fill="url(#gradient0)" fill-rule="evenodd" stroke="none"/>
    <path d="M197.7 13.2 Q192.0 0.05 172.35 -8.25 168.9 -9.45 165.8 -8.75 162.65 -8.15 163.85 -5.3 165.05 -2.5 167.6 -0.15 173.0 5.2 170.8 7.2 169.55 8.0 167.8 8.3 L163.2 8.05 Q160.4 7.45 149.1 0.15 137.75 -7.15 132.95 -8.3 128.1 -9.5 126.95 -7.95 125.75 -6.45 127.35 -4.7 128.95 -2.95 133.0 0.25 137.0 3.45 136.9 6.3 136.8 9.1 131.45 9.1 123.9 8.45 119.15 5.55 L113.15 1.45 Q107.95 -2.05 105.15 -3.35 100.5 -5.55 96.05 -5.55 92.4 -5.55 91.85 -3.45 91.55 -2.3 93.55 2.45 95.5 7.15 93.15 8.15 90.8 9.1 87.3 7.8 L78.55 3.95 Q73.3 1.45 69.95 1.45 67.25 1.45 65.9 2.4 65.15 2.9 64.35 4.45 63.55 5.9 62.6 6.5 61.1 7.4 58.1 7.4 53.55 7.4 42.25 1.25 29.6 -5.7 21.85 -7.3 14.1 -8.95 11.1 -7.25 8.1 -5.6 13.1 -2.15 18.05 1.35 17.85 4.0 17.65 6.6 16.15 7.3 14.8 7.95 10.2 7.25 5.6 6.5 2.75 5.1 L-5.6 0.7 Q-11.1 -2.3 -15.85 -2.3 -19.6 -2.3 -19.8 1.9 L-19.8 2.9 -19.75 4.3 Q-18.65 7.9 -24.85 7.65 -31.15 7.4 -35.5 5.45 -38.2 4.3 -42.8 1.2 -47.4 -1.9 -50.1 -3.05 -54.6 -5.0 -59.45 -5.0 -66.15 -5.0 -66.55 -1.2 L-66.6 0.9 -66.5 2.2 -65.6 7.95 Q-66.1 9.55 -69.45 9.55 -72.65 9.55 -81.3 6.35 -89.95 3.1 -92.65 3.1 -95.4 3.1 -96.45 3.95 -97.0 4.4 -97.35 5.8 -97.7 7.1 -98.45 7.65 -99.6 8.5 -102.6 8.5 -105.15 8.45 -118.1 3.1 -133.7 -3.4 -139.1 -2.95 -144.55 -2.5 -144.2 -0.2 L-142.75 6.45 Q-141.65 10.75 -145.95 10.55 L-148.95 10.1 Q-152.4 9.3 -156.8 7.25 L-168.9 1.5 Q-174.55 -1.2 -178.8 -1.55 -183.05 -1.9 -184.7 -0.55 -186.4 0.8 -183.85 7.6 -181.3 14.4 -188.35 11.6 L-198.5 7.45 Q-201.65 6.15 -209.9 3.4 -218.15 0.6 -221.7 1.8 -225.25 3.0 -224.6 5.05 L-223.5 8.8 Q-222.95 10.45 -225.0 11.65 -227.05 12.8 -233.3 12.8 M-26.55 2.9 L-26.5 4.25" fill="none" stroke="#000000" stroke-linecap="round" stroke-linejoin="round" stroke-width="0.5"/>
  </g>
  <defs>
    <linearGradient gradientTransform="matrix(0.0, 0.0219, -0.2649, 0.0, -16.15, 9.95)" gradientUnits="userSpaceOnUse" id="gradient0" spreadMethod="pad" x1="-819.2" x2="819.2">
      <stop offset="0.6666666666666666" stop-color="#97d6f0" stop-opacity="0.8"/>
      <stop offset="0.8549019607843137" stop-color="#97d6f0" stop-opacity="0.0"/>
    </linearGradient>
  </defs>
</svg>
