<?xml version="1.0" encoding="UTF-8" standalone="no"?>
<svg xmlns:ffdec="https://www.free-decompiler.com/flash" xmlns:xlink="http://www.w3.org/1999/xlink" ffdec:objectType="shape" height="66.65px" width="35.95px" xmlns="http://www.w3.org/2000/svg">
  <g transform="matrix(1.0, 0.0, 0.0, 1.0, 18.0, 33.35)">
    <path d="M-11.9 -28.65 Q-10.9 -29.05 -9.9 -28.65 -8.95 -28.25 -8.5 -27.25 L13.25 25.25 Q13.65 26.2 13.25 27.2 12.8 28.15 11.85 28.6 10.85 29.0 9.9 28.6 8.9 28.2 8.5 27.2 L-13.25 -25.3 Q-13.7 -26.3 -13.25 -27.25 -12.9 -28.25 -11.9 -28.65" fill="#ffffff" fill-rule="evenodd" stroke="none"/>
    <path d="M-11.9 -28.65 Q-12.9 -28.25 -13.25 -27.25 -13.7 -26.3 -13.25 -25.3 L8.5 27.2 Q8.9 28.2 9.9 28.6 10.85 29.0 11.85 28.6 12.8 28.15 13.25 27.2 13.65 26.2 13.25 25.25 L-8.5 -27.25 Q-8.95 -28.25 -9.9 -28.65 -10.9 -29.05 -11.9 -28.65 Z" fill="none" stroke="#000000" stroke-linecap="round" stroke-linejoin="round" stroke-width="9.0"/>
    <path d="M-13.25 -27.25 Q-12.9 -28.25 -11.9 -28.65 -10.9 -29.05 -9.9 -28.65 -8.95 -28.25 -8.5 -27.25 L13.25 25.25 Q13.65 26.2 13.25 27.2 12.8 28.15 11.85 28.6 10.85 29.0 9.9 28.6 8.9 28.2 8.5 27.2 L-13.25 -25.3 Q-13.7 -26.3 -13.25 -27.25" fill="#ffffff" fill-rule="evenodd" stroke="none"/>
  </g>
</svg>
