<?xml version="1.0" encoding="UTF-8" standalone="no"?>
<svg xmlns:ffdec="https://www.free-decompiler.com/flash" xmlns:xlink="http://www.w3.org/1999/xlink" ffdec:objectType="shape" height="49.0px" width="83.25px" xmlns="http://www.w3.org/2000/svg">
  <g transform="matrix(1.0, 0.0, 0.0, 1.0, 274.5, 203.5)">
    <path d="M-245.15 -198.35 L-238.1 -197.05 -231.35 -197.65 -216.55 -199.75 -211.15 -199.95 Q-202.95 -199.25 -195.75 -195.55 -198.05 -176.7 -194.75 -158.0 -206.6 -163.3 -219.2 -161.7 L-233.0 -159.85 -240.05 -160.2 Q-253.5 -162.75 -267.1 -161.25 L-271.0 -160.8 -269.85 -198.25 Q-257.5 -201.15 -245.15 -198.35" fill="#0000c8" fill-rule="evenodd" stroke="none"/>
    <path d="M-245.15 -198.35 L-238.1 -197.05 -231.35 -197.65 -216.55 -199.75 -211.15 -199.95 Q-202.95 -199.25 -195.75 -195.55 -198.05 -176.7 -194.75 -158.0 -206.6 -163.3 -219.2 -161.7 L-233.0 -159.85 -240.05 -160.2 Q-253.5 -162.75 -267.1 -161.25 L-271.0 -160.8 -269.85 -198.25 Q-257.5 -201.15 -245.15 -198.35 Z" fill="none" stroke="#000000" stroke-linecap="round" stroke-linejoin="round" stroke-width="7.0"/>
    <path d="M-245.15 -198.35 L-238.1 -197.05 -231.35 -197.65 -216.55 -199.75 -211.15 -199.95 Q-202.95 -199.25 -195.75 -195.55 -198.05 -176.7 -194.75 -158.0 -206.6 -163.3 -219.2 -161.7 L-233.0 -159.85 -240.05 -160.2 Q-253.5 -162.75 -267.1 -161.25 L-271.0 -160.8 -269.85 -198.25 Q-257.5 -201.15 -245.15 -198.35" fill="#3e3efd" fill-rule="evenodd" stroke="none"/>
    <path d="M-250.05 -199.25 L-248.55 -199.0 -248.6 -194.55 -238.55 -196.85 -250.15 -192.35 -250.05 -199.25 M-234.75 -196.25 L-234.95 -194.5 -240.8 -192.2 -235.2 -191.55 -235.35 -190.05 -246.25 -191.7 -234.75 -196.25 M-235.6 -186.05 L-235.65 -184.55 -239.2 -184.9 -235.75 -182.3 -235.75 -180.95 -246.3 -187.65 -235.6 -186.05 M-235.75 -178.6 L-248.8 -185.05 -248.9 -180.25 -250.4 -180.45 -250.25 -187.8 -235.75 -178.6 M-254.35 -180.85 L-255.85 -180.95 -255.8 -185.55 -266.9 -180.75 -254.25 -188.15 -254.35 -180.85 M-270.9 -180.65 L-270.9 -182.4 -264.1 -186.45 -270.9 -186.1 -270.9 -187.6 -258.15 -188.2 -270.9 -180.65 M-270.85 -191.65 L-270.85 -193.15 -265.55 -193.35 -270.85 -195.55 -270.85 -197.2 -258.65 -192.2 -270.85 -191.65 M-268.75 -198.5 L-266.05 -199.0 -255.6 -194.7 -255.2 -199.75 -254.05 -199.7 -254.4 -192.6 -268.75 -198.5" fill="#ffffff" fill-rule="evenodd" stroke="none"/>
    <path d="M-238.55 -196.85 L-234.75 -196.25 -246.25 -191.7 -235.35 -190.05 -235.6 -186.05 -246.3 -187.65 -235.75 -180.95 -235.75 -178.6 -250.25 -187.8 -250.4 -180.45 -254.35 -180.85 -254.25 -188.15 -266.9 -180.75 -270.9 -180.65 -258.15 -188.2 -270.9 -187.6 -270.85 -191.65 -258.65 -192.2 -270.85 -197.2 Q-270.85 -197.75 -270.2 -198.1 L-268.75 -198.5 -254.4 -192.6 -254.05 -199.7 -250.05 -199.25 -250.15 -192.35 -238.55 -196.85" fill="#cc0000" fill-rule="evenodd" stroke="none"/>
    <path d="M-254.4 -173.5 L-253.5 -176.2 -251.45 -173.65 -248.1 -173.45 -250.5 -171.15 -249.5 -167.4 -252.85 -169.2 -256.2 -167.0 -255.35 -170.8 -258.0 -173.0 -254.4 -173.5 M-211.1 -172.45 L-212.4 -170.9 -211.15 -168.2 -214.3 -169.3 -216.65 -167.85 -216.2 -170.5 -218.4 -172.3 -215.55 -172.75 -214.35 -174.6 -213.35 -172.75 -211.1 -172.45 M-222.4 -185.25 Q-221.6 -185.15 -222.0 -184.55 L-222.8 -183.15 -221.7 -180.55 -224.25 -181.15 -226.2 -179.15 -226.15 -181.85 -228.3 -183.0 -225.8 -184.15 -225.1 -186.35 -223.8 -184.8 -222.4 -185.25 M-211.15 -194.7 L-212.45 -193.3 -212.0 -191.4 -214.0 -192.15 -216.05 -191.0 -215.95 -193.25 -218.15 -194.9 -215.6 -195.2 -214.85 -197.65 -213.25 -195.1 -211.15 -194.7 M-208.3 -189.1 L-207.6 -187.55 -205.4 -187.15 -206.8 -185.5 -206.25 -183.0 -208.4 -184.05 -210.7 -182.55 -210.2 -185.3 -212.25 -187.2 -209.45 -187.6 -208.3 -189.1" fill="#ffffff" fill-rule="evenodd" stroke="none"/>
  </g>
</svg>
