<?xml version="1.0" encoding="UTF-8" standalone="no"?>
<svg xmlns:ffdec="https://www.free-decompiler.com/flash" xmlns:xlink="http://www.w3.org/1999/xlink" ffdec:objectType="shape" height="47.65px" width="83.7px" xmlns="http://www.w3.org/2000/svg">
  <g transform="matrix(1.0, 0.0, 0.0, 1.0, 274.65, 203.55)">
    <path d="M-263.1 -198.15 Q-251.25 -200.55 -239.75 -198.1 L-232.85 -196.75 Q-224.15 -195.35 -215.7 -198.65 -213.4 -199.55 -210.9 -199.95 -202.3 -200.55 -194.45 -197.2 -197.4 -183.45 -196.6 -169.5 L-195.8 -160.2 Q-203.8 -163.7 -212.5 -162.45 -216.75 -161.75 -220.7 -160.45 -224.4 -159.35 -228.15 -159.4 -237.2 -159.5 -246.05 -161.5 L-251.05 -161.9 -261.05 -161.3 Q-266.1 -161.2 -271.15 -161.5 L-271.15 -198.1 -263.1 -198.15" fill="#0000c8" fill-rule="evenodd" stroke="none"/>
    <path d="M-263.1 -198.15 Q-251.25 -200.55 -239.75 -198.1 L-232.85 -196.75 Q-224.15 -195.35 -215.7 -198.65 -213.4 -199.55 -210.9 -199.95 -202.3 -200.55 -194.45 -197.2 -197.4 -183.45 -196.6 -169.5 L-195.8 -160.2 Q-203.8 -163.7 -212.5 -162.45 -216.75 -161.75 -220.7 -160.45 -224.4 -159.35 -228.15 -159.4 -237.2 -159.5 -246.05 -161.5 L-251.05 -161.9 -261.05 -161.3 Q-266.1 -161.2 -271.15 -161.5 L-271.15 -198.1 -263.1 -198.15 Z" fill="none" stroke="#000000" stroke-linecap="round" stroke-linejoin="round" stroke-width="7.0"/>
    <path d="M-263.1 -198.15 Q-251.25 -200.55 -239.75 -198.1 L-232.85 -196.75 Q-224.15 -195.35 -215.7 -198.65 -213.4 -199.55 -210.9 -199.95 -202.3 -200.55 -194.45 -197.2 -197.4 -183.45 -196.6 -169.5 L-195.8 -160.2 Q-203.8 -163.7 -212.5 -162.45 -216.75 -161.75 -220.7 -160.45 -224.4 -159.35 -228.15 -159.4 -237.2 -159.5 -246.05 -161.5 L-251.05 -161.9 -261.05 -161.3 Q-266.1 -161.2 -271.15 -161.5 L-271.15 -198.1 -263.1 -198.15" fill="#3e3efd" fill-rule="evenodd" stroke="none"/>
    <path d="M-250.05 -199.5 L-248.55 -199.3 -248.5 -195.45 -239.9 -198.45 -237.35 -197.75 -249.8 -193.0 -250.15 -194.4 -250.05 -199.5 M-235.15 -197.1 L-233.2 -196.6 -233.95 -195.25 -240.2 -193.0 -234.1 -192.25 -234.4 -190.8 -245.75 -192.7 -235.15 -197.1 M-234.95 -186.8 L-235.15 -185.3 -238.85 -185.7 -235.35 -183.1 -235.5 -181.35 -245.25 -188.55 -234.95 -186.8 M-235.6 -179.25 L-248.8 -186.6 -248.6 -181.45 -250.1 -181.45 -250.3 -188.8 -235.6 -179.25 M-254.1 -181.15 L-255.6 -181.2 -255.75 -184.85 Q-260.75 -182.05 -266.8 -180.35 L-268.3 -180.15 -254.35 -187.4 -254.1 -181.15 M-271.15 -180.85 L-271.15 -182.65 -264.55 -186.05 -271.15 -186.4 -271.15 -187.9 -256.65 -188.4 -271.15 -180.85 M-271.15 -191.9 L-271.15 -193.4 -265.9 -193.0 -271.15 -195.45 -271.15 -197.1 -259.9 -191.95 -271.15 -191.9 M-267.95 -197.8 L-255.6 -194.05 -255.55 -198.9 -254.05 -199.15 -254.15 -192.75 -267.95 -197.8" fill="#ffffff" fill-rule="evenodd" stroke="none"/>
    <path d="M-237.35 -197.75 L-235.15 -197.1 -245.75 -192.7 -234.4 -190.8 -234.95 -186.8 -245.25 -188.55 -235.5 -181.35 -235.6 -179.25 -250.3 -188.8 -250.1 -181.45 -254.1 -181.15 -254.35 -187.4 -268.3 -180.15 -271.15 -180.85 -256.65 -188.4 -271.15 -187.9 -271.15 -191.9 -259.9 -191.95 -271.15 -197.1 -271.15 -198.1 -267.95 -197.8 -254.15 -192.75 -254.05 -199.15 -250.05 -199.5 -250.15 -194.4 -249.8 -193.0 -237.35 -197.75" fill="#cc0000" fill-rule="evenodd" stroke="none"/>
    <path d="M-258.0 -173.7 L-254.4 -174.2 -253.1 -177.2 -251.45 -174.35 -248.1 -174.15 -250.5 -171.85 -249.5 -168.1 -252.85 -169.9 -256.2 -167.7 -255.35 -171.5 -258.0 -173.7 M-215.35 -168.6 L-217.7 -167.15 -217.25 -169.8 -219.45 -171.6 -216.6 -172.05 -216.1 -173.65 -214.4 -172.05 -212.15 -171.75 -213.45 -170.2 -212.2 -167.5 -215.35 -168.6 M-225.8 -181.7 L-225.1 -183.9 -223.8 -182.35 -221.75 -182.35 -222.8 -180.7 -221.7 -178.1 -224.25 -178.7 -226.2 -176.7 -226.15 -179.4 -228.3 -180.55 -225.8 -181.7 M-211.65 -194.0 Q-210.8 -193.85 -211.45 -193.2 L-212.45 -192.25 -212.0 -190.35 -214.0 -191.1 -216.05 -189.95 -215.95 -192.2 -218.15 -193.85 -215.6 -194.15 -214.85 -196.6 -213.25 -194.05 -211.65 -194.0 M-210.6 -186.9 L-208.3 -187.2 -207.45 -188.8 -206.45 -187.15 -204.25 -186.75 -205.65 -185.1 -205.1 -182.6 -207.25 -183.65 -209.55 -182.15 -209.05 -184.9 -210.6 -186.9" fill="#ffffff" fill-rule="evenodd" stroke="none"/>
  </g>
</svg>
