<?xml version="1.0" encoding="UTF-8" standalone="no"?>
<svg xmlns:ffdec="https://www.free-decompiler.com/flash" xmlns:xlink="http://www.w3.org/1999/xlink" ffdec:objectType="shape" height="48.75px" width="84.3px" xmlns="http://www.w3.org/2000/svg">
  <g transform="matrix(1.0, 0.0, 0.0, 1.0, 274.55, 204.5)">
    <path d="M-236.3 -199.35 Q-228.55 -197.65 -220.7 -196.6 -218.85 -196.2 -216.95 -196.65 -213.85 -197.45 -211.0 -198.6 -202.65 -201.95 -193.75 -200.6 -194.7 -187.65 -196.2 -174.7 -196.95 -168.5 -197.05 -162.15 -205.75 -163.65 -214.4 -160.75 -217.3 -159.85 -220.35 -159.4 -230.95 -158.65 -241.1 -161.6 L-244.85 -162.3 -258.8 -160.3 Q-264.95 -159.35 -271.0 -160.2 L-271.05 -198.3 Q-258.75 -196.5 -246.8 -199.25 L-242.5 -199.8 -236.3 -199.35" fill="#0000c8" fill-rule="evenodd" stroke="none"/>
    <path d="M-236.3 -199.35 Q-228.55 -197.65 -220.7 -196.6 -218.85 -196.2 -216.95 -196.65 -213.85 -197.45 -211.0 -198.6 -202.65 -201.95 -193.75 -200.6 -194.7 -187.65 -196.2 -174.7 -196.95 -168.5 -197.05 -162.15 -205.75 -163.65 -214.4 -160.75 -217.3 -159.85 -220.35 -159.4 -230.95 -158.65 -241.1 -161.6 L-244.85 -162.3 -258.8 -160.3 Q-264.95 -159.35 -271.0 -160.2 L-271.05 -198.3 Q-258.75 -196.5 -246.8 -199.25 L-242.5 -199.8 -236.3 -199.35 Z" fill="none" stroke="#000000" stroke-linecap="round" stroke-linejoin="round" stroke-width="7.0"/>
    <path d="M-236.3 -199.35 Q-228.55 -197.65 -220.7 -196.6 -218.85 -196.2 -216.95 -196.65 -213.85 -197.45 -211.0 -198.6 -202.65 -201.95 -193.75 -200.6 -194.7 -187.65 -196.2 -174.7 -196.95 -168.5 -197.05 -162.15 -205.75 -163.65 -214.4 -160.75 -217.3 -159.85 -220.35 -159.4 -230.95 -158.65 -241.1 -161.6 L-244.85 -162.3 -258.8 -160.3 Q-264.95 -159.35 -271.0 -160.2 L-271.05 -198.3 Q-258.75 -196.5 -246.8 -199.25 L-242.5 -199.8 -236.3 -199.35" fill="#3e3efd" fill-rule="evenodd" stroke="none"/>
    <path d="M-235.9 -199.5 L-233.75 -199.05 -233.75 -198.0 -245.4 -193.0 -234.1 -192.1 -234.6 -188.15 -244.35 -189.0 -235.25 -183.65 -235.65 -181.45 -238.5 -183.45 Q-243.6 -186.95 -249.65 -188.7 L-250.15 -182.05 -254.15 -181.0 -254.1 -187.25 -266.95 -180.0 -270.85 -180.1 -258.3 -187.2 -271.0 -187.45 -271.05 -191.45 -259.35 -191.15 -271.05 -197.25 -271.05 -198.3 -268.05 -197.85 -254.7 -191.85 -254.05 -198.25 -250.05 -199.0 -250.1 -192.65 -235.9 -199.5" fill="#cc0000" fill-rule="evenodd" stroke="none"/>
    <path d="M-250.05 -199.0 L-248.55 -199.25 -248.55 -195.15 Q-244.1 -198.6 -238.55 -199.5 L-235.9 -199.5 -250.1 -192.65 -250.05 -199.0 M-233.75 -198.0 L-233.8 -196.45 -239.6 -194.3 -234.0 -193.6 -234.1 -192.1 -245.4 -193.0 -233.75 -198.0 M-234.6 -188.15 L-234.8 -186.65 -237.3 -187.0 -235.0 -185.3 -235.25 -183.65 -244.35 -189.0 -234.6 -188.15 M-235.65 -181.45 L-248.6 -186.85 -248.65 -182.3 -250.15 -182.05 -249.65 -188.7 Q-243.6 -186.95 -238.5 -183.45 L-235.65 -181.45 M-254.15 -181.0 L-255.65 -180.65 -255.6 -184.65 -263.95 -179.95 -266.95 -180.0 -254.1 -187.25 -254.15 -181.0 M-270.85 -180.1 L-271.0 -181.7 -264.5 -185.4 -271.0 -185.95 -271.0 -187.45 -258.3 -187.2 -270.85 -180.1 M-271.05 -191.45 L-271.05 -192.95 -266.25 -192.75 -271.05 -195.45 -271.05 -197.25 -259.35 -191.15 -271.05 -191.45 M-268.05 -197.85 L-264.8 -197.2 Q-260.15 -195.55 -255.6 -193.45 L-255.55 -198.05 -254.05 -198.25 -254.7 -191.85 -268.05 -197.85" fill="#ffffff" fill-rule="evenodd" stroke="none"/>
    <path d="M-257.3 -173.3 L-253.7 -173.85 -252.35 -176.9 -250.75 -174.0 -247.4 -173.8 -249.8 -171.5 -248.8 -167.75 -252.15 -169.55 -255.5 -167.35 -254.65 -171.15 -257.3 -173.3 M-215.9 -170.85 L-215.0 -173.0 -213.7 -171.25 -211.95 -171.65 -212.75 -169.6 -211.65 -166.8 -214.65 -167.65 -217.0 -165.8 -216.55 -168.5 -218.75 -169.9 -215.9 -170.85 M-222.4 -182.8 Q-221.55 -182.75 -222.0 -182.1 L-222.8 -180.7 -221.7 -178.1 -224.25 -178.7 -226.2 -176.7 -226.15 -179.4 -228.3 -180.55 -225.8 -181.7 -225.1 -183.9 -223.8 -182.35 -222.4 -182.8 M-212.1 -190.6 L-211.65 -188.75 -213.65 -189.1 -215.7 -187.6 -215.6 -189.85 -217.85 -190.9 -215.25 -191.9 -214.5 -194.45 -212.9 -192.2 -210.8 -192.15 -212.1 -190.6 M-209.7 -186.1 Q-210.25 -186.65 -209.6 -186.85 L-207.25 -187.0 -206.4 -188.6 -205.4 -187.0 -203.2 -186.75 -204.6 -185.05 -204.05 -182.55 -206.2 -183.5 -208.5 -181.9 -208.0 -184.65 -209.7 -186.1" fill="#ffffff" fill-rule="evenodd" stroke="none"/>
  </g>
</svg>
