<?xml version="1.0" encoding="UTF-8" standalone="no"?>
<svg xmlns:ffdec="https://www.free-decompiler.com/flash" xmlns:xlink="http://www.w3.org/1999/xlink" ffdec:objectType="shape" height="50.9px" width="83.4px" xmlns="http://www.w3.org/2000/svg">
  <g transform="matrix(1.0, 0.0, 0.0, 1.0, 274.7, 205.75)">
    <path d="M-230.9 -199.3 Q-218.45 -194.4 -205.9 -198.1 -203.25 -199.0 -200.9 -200.5 L-198.0 -202.25 Q-192.65 -186.4 -196.25 -170.0 L-197.4 -163.3 Q-205.85 -159.75 -214.6 -158.4 L-219.75 -158.85 Q-227.85 -161.05 -236.25 -161.55 L-241.25 -161.35 Q-256.25 -157.7 -271.2 -161.6 L-271.0 -198.45 Q-258.45 -196.9 -245.9 -199.35 -239.9 -200.45 -233.85 -200.25 L-230.9 -199.3" fill="#0000c8" fill-rule="evenodd" stroke="none"/>
    <path d="M-230.9 -199.3 Q-218.45 -194.4 -205.9 -198.1 -203.25 -199.0 -200.9 -200.5 L-198.0 -202.25 Q-192.65 -186.4 -196.25 -170.0 L-197.4 -163.3 Q-205.85 -159.75 -214.6 -158.4 L-219.75 -158.85 Q-227.85 -161.05 -236.25 -161.55 L-241.25 -161.35 Q-256.25 -157.7 -271.2 -161.6 L-271.0 -198.45 Q-258.45 -196.9 -245.9 -199.35 -239.9 -200.45 -233.85 -200.25 L-230.9 -199.3 Z" fill="none" stroke="#000000" stroke-linecap="round" stroke-linejoin="round" stroke-width="7.0"/>
    <path d="M-230.9 -199.3 Q-218.45 -194.4 -205.9 -198.1 -203.25 -199.0 -200.9 -200.5 L-198.0 -202.25 Q-192.65 -186.4 -196.25 -170.0 L-197.4 -163.3 Q-205.85 -159.75 -214.6 -158.4 L-219.75 -158.85 Q-227.85 -161.05 -236.25 -161.55 L-241.25 -161.35 Q-256.25 -157.7 -271.2 -161.6 L-271.0 -198.45 Q-258.45 -196.9 -245.9 -199.35 -239.9 -200.45 -233.85 -200.25 L-230.9 -199.3" fill="#3e3efd" fill-rule="evenodd" stroke="none"/>
    <path d="M-250.4 -198.3 L-248.9 -198.4 -248.9 -194.35 Q-245.15 -197.4 -240.95 -199.2 L-238.15 -200.35 -250.4 -191.6 -250.4 -198.3 M-235.35 -199.3 L-235.05 -198.05 -241.15 -193.8 -233.85 -194.2 -233.3 -192.7 -247.6 -191.2 -235.35 -199.3 M-232.65 -188.7 L-232.5 -187.2 -237.9 -187.05 -232.4 -184.9 -232.35 -183.15 -245.4 -187.55 -232.65 -188.7 M-232.8 -181.1 L-248.9 -184.9 -248.9 -179.6 -250.4 -179.4 -249.85 -186.75 -232.8 -181.1 M-254.4 -179.05 L-255.85 -179.0 -255.7 -183.5 -264.1 -179.45 -267.15 -179.95 -255.2 -185.35 -255.1 -185.4 -254.4 -185.8 -254.4 -179.05 M-270.7 -180.7 Q-271.2 -180.7 -270.7 -181.0 -266.6 -183.85 -262.0 -185.9 L-271.2 -186.65 -271.15 -188.15 -257.15 -186.6 -270.7 -180.7 M-271.15 -192.15 L-271.15 -193.65 -266.9 -193.45 -271.15 -195.35 -271.15 -196.95 -259.8 -191.35 -271.15 -192.15 M-269.3 -198.3 Q-263.3 -197.85 -258.25 -194.6 L-255.9 -193.2 -255.9 -198.05 -254.4 -198.05 -254.4 -190.85 -269.3 -198.3" fill="#ffffff" fill-rule="evenodd" stroke="none"/>
    <path d="M-238.15 -200.35 L-235.6 -200.5 -235.35 -199.3 -247.6 -191.2 -233.3 -192.7 -232.65 -188.7 -245.4 -187.55 -232.35 -183.15 -232.8 -181.1 -249.85 -186.75 -250.4 -179.4 -254.4 -179.05 -254.4 -185.8 -255.1 -185.4 -255.2 -185.35 -267.15 -179.95 -270.7 -180.7 -257.15 -186.6 -271.15 -188.15 -271.15 -192.15 -259.8 -191.35 -271.15 -196.95 -271.0 -198.45 -269.3 -198.3 -254.4 -190.85 -254.4 -198.05 -250.4 -198.3 -250.4 -191.6 -238.15 -200.35" fill="#cc0000" fill-rule="evenodd" stroke="none"/>
    <path d="M-250.75 -172.6 L-247.4 -172.4 -249.8 -170.1 -248.8 -166.35 -252.15 -168.15 -255.5 -165.95 -254.65 -169.75 -257.3 -171.95 -253.7 -172.45 -252.35 -175.5 -250.75 -172.6 M-215.9 -169.1 L-215.0 -171.3 -213.7 -169.7 -211.95 -170.2 -212.75 -168.1 -211.5 -165.75 -214.65 -166.0 -217.0 -163.9 -216.55 -166.7 -218.75 -167.6 -215.9 -169.1 M-203.2 -184.65 L-204.6 -182.85 -204.05 -180.4 -206.2 -181.25 -208.5 -179.55 -208.0 -182.3 -210.05 -184.0 -207.25 -184.65 -206.0 -186.0 -205.4 -184.8 -203.2 -184.65 M-222.7 -183.85 L-221.7 -182.35 -219.75 -182.65 -220.7 -180.7 -219.6 -178.1 -222.15 -178.7 -224.1 -176.7 -224.05 -179.4 -226.2 -180.55 -223.7 -181.7 -222.7 -183.85 M-211.0 -191.05 L-212.1 -189.2 -211.65 -187.35 -213.65 -187.7 -215.7 -186.2 -215.6 -188.45 -217.85 -189.5 -215.25 -190.5 -214.5 -193.05 -212.9 -190.8 -211.0 -191.05" fill="#ffffff" fill-rule="evenodd" stroke="none"/>
  </g>
</svg>
