<?xml version="1.0" encoding="UTF-8" standalone="no"?>
<svg xmlns:ffdec="https://www.free-decompiler.com/flash" xmlns:xlink="http://www.w3.org/1999/xlink" ffdec:objectType="shape" height="48.85px" width="83.35px" xmlns="http://www.w3.org/2000/svg">
  <g transform="matrix(1.0, 0.0, 0.0, 1.0, 274.5, 202.75)">
    <path d="M-220.05 -198.5 Q-210.15 -195.9 -200.1 -195.25 L-197.45 -195.55 Q-196.5 -181.1 -194.75 -166.6 -194.55 -164.9 -194.7 -163.1 L-195.2 -158.05 Q-202.2 -156.35 -209.05 -159.2 -220.75 -164.05 -232.7 -159.35 -236.85 -157.75 -241.25 -157.7 L-262.3 -159.45 -270.8 -159.95 -271.0 -198.3 Q-259.75 -198.7 -248.95 -196.1 L-243.45 -195.65 Q-237.05 -196.7 -230.75 -198.55 -225.5 -199.95 -220.05 -198.5" fill="#0000c8" fill-rule="evenodd" stroke="none"/>
    <path d="M-220.05 -198.5 Q-210.15 -195.9 -200.1 -195.25 L-197.45 -195.55 Q-196.5 -181.1 -194.75 -166.6 -194.55 -164.9 -194.7 -163.1 L-195.2 -158.05 Q-202.2 -156.35 -209.05 -159.2 -220.75 -164.05 -232.7 -159.35 -236.85 -157.75 -241.25 -157.7 L-262.3 -159.45 -270.8 -159.95 -271.0 -198.3 Q-259.75 -198.7 -248.95 -196.1 L-243.45 -195.65 Q-237.05 -196.7 -230.75 -198.55 -225.5 -199.95 -220.05 -198.5 Z" fill="none" stroke="#000000" stroke-linecap="round" stroke-linejoin="round" stroke-width="7.0"/>
    <path d="M-220.05 -198.5 Q-210.15 -195.9 -200.1 -195.25 L-197.45 -195.55 Q-196.5 -181.1 -194.75 -166.6 -194.55 -164.9 -194.7 -163.1 L-195.2 -158.05 Q-202.2 -156.35 -209.05 -159.2 -220.75 -164.05 -232.7 -159.35 -236.85 -157.75 -241.25 -157.7 L-262.3 -159.45 -270.8 -159.95 -271.0 -198.3 Q-259.75 -198.7 -248.95 -196.1 L-243.45 -195.65 Q-237.05 -196.7 -230.75 -198.55 -225.5 -199.95 -220.05 -198.5" fill="#3e3efd" fill-rule="evenodd" stroke="none"/>
    <path d="M-269.55 -198.4 Q-263.65 -198.1 -258.65 -194.5 L-256.4 -193.0 -256.4 -197.5 -254.9 -197.25 -254.65 -190.25 -269.55 -198.4 M-250.9 -196.55 L-249.4 -196.25 -249.35 -192.95 -238.3 -196.4 -250.65 -190.55 -250.9 -196.55 M-235.6 -196.05 L-235.55 -194.25 -240.35 -191.3 -235.5 -191.7 -235.4 -190.2 -248.1 -189.7 -235.6 -196.05 M-235.05 -186.2 L-234.85 -184.7 -240.75 -184.3 -234.3 -181.25 -234.0 -179.5 -247.1 -185.65 -235.05 -186.2 M-235.35 -177.9 L-237.9 -177.45 -248.55 -182.45 -248.25 -177.65 -249.75 -177.8 -250.25 -184.9 -235.35 -177.9 M-253.8 -178.7 L-255.35 -179.05 -255.7 -184.25 Q-258.2 -182.05 -261.3 -180.7 -263.85 -179.6 -266.55 -179.65 L-255.05 -186.25 -254.35 -186.15 -253.8 -178.7 M-270.25 -179.5 Q-271.0 -179.65 -270.4 -180.2 -267.05 -183.15 -263.2 -185.45 L-270.95 -185.2 -270.95 -186.7 -258.7 -186.6 -270.25 -179.5 M-270.95 -190.75 L-270.95 -192.25 -265.25 -192.5 -270.95 -195.15 -270.95 -196.8 -259.35 -190.7 -270.95 -190.75" fill="#ffffff" fill-rule="evenodd" stroke="none"/>
    <path d="M-270.95 -196.8 L-271.0 -198.3 -269.55 -198.4 -254.65 -190.25 -254.9 -197.25 -250.9 -196.55 -250.65 -190.55 -238.3 -196.4 -235.6 -197.3 -235.6 -196.05 -248.1 -189.7 -235.4 -190.2 -235.05 -186.2 -247.1 -185.65 -234.0 -179.5 -233.85 -178.3 -235.35 -177.9 -250.25 -184.9 -249.75 -177.8 -253.8 -178.7 -254.35 -186.15 -255.05 -186.25 -266.55 -179.65 -270.25 -179.5 -258.7 -186.6 -270.95 -186.7 -270.95 -190.75 -259.35 -190.7 -270.95 -196.8" fill="#cc0000" fill-rule="evenodd" stroke="none"/>
    <path d="M-252.7 -176.2 L-251.1 -173.3 -247.75 -173.1 -250.15 -170.8 -249.15 -167.05 -252.5 -168.85 -255.85 -166.65 -255.0 -170.45 -257.65 -172.65 -254.05 -173.15 -252.7 -176.2 M-211.6 -171.6 L-212.4 -169.5 -211.15 -167.15 -214.3 -167.4 -216.65 -165.3 -216.2 -168.1 -218.4 -169.0 -215.55 -170.5 -214.65 -172.7 -213.35 -171.1 -211.6 -171.6 M-204.95 -182.15 L-204.4 -179.7 -206.55 -180.55 -208.85 -178.85 -208.35 -181.6 -210.4 -183.3 -207.6 -183.95 -206.75 -185.65 -205.75 -184.1 -204.05 -184.2 -204.95 -182.15 M-222.05 -185.85 L-220.1 -186.15 -221.05 -184.2 -219.95 -181.6 -222.5 -182.2 -224.45 -180.2 -224.4 -182.9 -226.55 -184.05 -224.05 -185.2 -223.35 -187.4 -222.05 -185.85 M-212.45 -191.05 L-212.0 -189.2 -214.0 -189.65 -216.05 -188.2 -215.95 -190.45 -218.15 -191.8 -215.6 -192.5 -214.85 -195.05 -213.25 -192.7 -211.15 -192.65 -212.45 -191.05" fill="#ffffff" fill-rule="evenodd" stroke="none"/>
  </g>
</svg>
