<?xml version="1.0" encoding="UTF-8" standalone="no"?>
<svg xmlns:ffdec="https://www.free-decompiler.com/flash" xmlns:xlink="http://www.w3.org/1999/xlink" ffdec:objectType="shape" height="47.75px" width="462.4px" xmlns="http://www.w3.org/2000/svg">
  <g transform="matrix(1.0, 0.0, 0.0, 1.0, 258.9, 23.75)">
    <path d="M-258.65 4.65 L-256.2 4.7 Q-246.05 4.95 -247.15 -1.35 L-248.6 -10.95 Q-248.9 -14.35 -243.5 -14.95 -238.2 -15.6 -222.8 -6.15 -210.0 1.6 -207.5 1.6 L-206.6 1.6 Q-204.3 1.4 -203.35 0.4 -202.65 -0.4 -202.3 -2.3 -202.0 -4.3 -201.4 -5.0 -200.4 -6.2 -197.65 -6.2 -195.0 -6.2 -186.4 -1.5 -177.9 3.15 -174.7 3.2 -171.4 3.15 -170.9 0.85 L-171.85 -7.45 -171.9 -9.4 -171.85 -12.45 Q-171.5 -17.95 -164.85 -17.95 -160.05 -17.95 -155.65 -15.15 -153.0 -13.45 -148.45 -8.95 -143.85 -4.45 -141.2 -2.75 -136.85 0.05 -130.65 0.45 -124.55 0.8 -125.65 -4.45 L-125.65 -4.85 -125.7 -6.5 -125.7 -7.95 Q-125.5 -14.05 -121.8 -14.05 -117.05 -14.05 -111.65 -9.65 L-103.45 -3.25 Q-100.6 -1.3 -96.05 -0.2 -91.5 0.85 -90.2 -0.1 -88.7 -1.1 -88.45 -4.9 -88.3 -8.75 -93.2 -13.8 -98.1 -18.85 -95.15 -21.25 -92.2 -23.7 -84.55 -21.3 -76.9 -18.95 -64.35 -8.9 -53.25 0.05 -48.75 0.05 -45.75 0.05 -44.3 -1.3 -43.35 -2.15 -42.55 -4.25 -41.8 -6.45 -41.0 -7.25 -39.7 -8.6 -37.0 -8.55 -33.7 -8.6 -28.55 -4.95 L-19.9 0.6 Q-16.45 2.55 -14.1 1.15 -11.8 -0.3 -13.75 -7.15 -15.7 -14.05 -15.4 -15.7 -14.85 -18.75 -11.25 -18.75 -6.9 -18.75 -2.3 -15.55 0.5 -13.6 5.65 -8.55 L11.6 -2.6 Q16.3 1.55 23.7 2.5 29.0 2.5 29.15 -1.55 29.25 -5.65 25.25 -10.3 21.25 -14.95 19.7 -17.5 18.1 -20.05 19.25 -22.25 20.4 -24.5 25.2 -22.75 30.0 -21.1 41.2 -10.45 52.35 0.15 55.1 0.95 L59.6 1.35 Q61.35 0.9 62.6 -0.25 64.8 -3.15 59.45 -10.9 56.95 -14.35 55.75 -18.4 54.55 -22.5 57.65 -23.4 60.7 -24.4 73.15 -14.75 76.7 -11.95 80.3 -9.2 88.7 -0.95 99.3 3.0 L99.9 3.15 Q103.2 0.45 101.55 -3.95 99.05 -10.6 104.3 -11.65 109.55 -12.75 116.7 -7.35 123.8 -1.95 131.25 1.9 138.7 5.75 140.9 3.75 142.75 -0.4 140.65 -6.6 138.55 -12.8 139.85 -14.2 141.35 -15.65 144.6 -14.55 146.4 -13.95 149.4 -11.7 152.35 -9.5 156.0 -4.45 162.05 4.7 167.6 7.1 173.1 9.45 174.6 4.55 176.05 -0.4 173.6 -6.25 171.1 -12.15 176.55 -12.95 182.0 -13.8 191.05 -5.0 200.1 3.7 203.25 11.7 L203.5 12.35 203.5 24.0 160.4 24.0 160.4 10.1 160.3 10.1 160.3 23.75 -258.85 23.75 -258.65 4.65" fill="url(#gradient0)" fill-rule="evenodd" stroke="none"/>
    <path d="M203.25 11.7 Q200.1 3.7 191.05 -5.0 182.0 -13.8 176.55 -12.95 171.1 -12.15 173.6 -6.25 176.05 -0.4 174.6 4.55 173.1 9.45 167.6 7.1 162.05 4.7 156.0 -4.45 152.35 -9.5 149.4 -11.7 146.4 -13.95 144.6 -14.55 141.35 -15.65 139.85 -14.2 138.55 -12.8 140.65 -6.6 142.75 -0.4 140.9 3.75 138.7 5.75 131.25 1.9 123.8 -1.95 116.7 -7.35 109.55 -12.75 104.3 -11.65 99.05 -10.6 101.55 -3.95 103.2 0.45 99.9 3.15 L99.3 3.0 Q88.7 -0.95 80.3 -9.2 76.7 -11.95 73.15 -14.75 60.7 -24.4 57.65 -23.4 54.55 -22.5 55.75 -18.4 56.95 -14.35 59.45 -10.9 64.8 -3.15 62.6 -0.25 61.35 0.9 59.6 1.35 L55.1 0.95 Q52.35 0.15 41.2 -10.45 30.0 -21.1 25.2 -22.75 20.4 -24.5 19.25 -22.25 18.1 -20.05 19.7 -17.5 21.25 -14.95 25.25 -10.3 29.25 -5.65 29.15 -1.55 29.0 2.5 23.7 2.5 16.3 1.55 11.6 -2.6 L5.65 -8.55 Q0.5 -13.6 -2.3 -15.55 -6.9 -18.75 -11.25 -18.75 -14.85 -18.75 -15.4 -15.7 -15.7 -14.05 -13.75 -7.15 -11.8 -0.3 -14.1 1.15 -16.45 2.55 -19.9 0.6 L-28.55 -4.95 Q-33.7 -8.6 -37.0 -8.55 -39.7 -8.6 -41.0 -7.25 -41.8 -6.45 -42.55 -4.25 -43.35 -2.15 -44.3 -1.3 -45.75 0.05 -48.75 0.05 -53.25 0.05 -64.35 -8.9 -76.9 -18.95 -84.55 -21.3 -92.2 -23.7 -95.15 -21.25 -98.1 -18.85 -93.2 -13.8 -88.3 -8.75 -88.45 -4.9 -88.7 -1.1 -90.2 -0.1 -91.5 0.85 -96.05 -0.2 -100.6 -1.3 -103.45 -3.25 L-111.65 -9.65 Q-117.05 -14.05 -121.8 -14.05 -125.5 -14.05 -125.7 -7.95 L-125.7 -6.5 -125.65 -4.85 -125.65 -4.45 Q-124.55 0.8 -130.65 0.45 -136.85 0.05 -141.2 -2.75 -143.85 -4.45 -148.45 -8.95 -153.0 -13.45 -155.65 -15.15 -160.05 -17.95 -164.85 -17.95 -171.5 -17.95 -171.85 -12.45 L-171.9 -9.4 -171.85 -7.45 -170.9 0.85 Q-171.4 3.15 -174.7 3.2 -177.9 3.15 -186.4 -1.5 -195.0 -6.2 -197.65 -6.2 -200.4 -6.2 -201.4 -5.0 -202.0 -4.3 -202.3 -2.3 -202.65 -0.4 -203.35 0.4 -204.3 1.4 -206.6 1.6 L-207.5 1.6 Q-210.0 1.6 -222.8 -6.15 -238.2 -15.6 -243.5 -14.95 -248.9 -14.35 -248.6 -10.95 L-247.15 -1.35 Q-246.05 4.95 -256.2 4.7 L-258.65 4.65 M-125.7 -6.5 L-125.65 -4.5 -125.65 -4.85 M-125.65 -4.5 L-125.65 -4.45" fill="none" stroke="#000000" stroke-linecap="round" stroke-linejoin="round" stroke-width="0.5"/>
  </g>
  <defs>
    <linearGradient gradientTransform="matrix(0.0, 0.0317, -0.2617, 0.0, 306.65, 0.4)" gradientUnits="userSpaceOnUse" id="gradient0" spreadMethod="pad" x1="-819.2" x2="819.2">
      <stop offset="0.6666666666666666" stop-color="#97d6f0" stop-opacity="0.8"/>
      <stop offset="0.8549019607843137" stop-color="#97d6f0" stop-opacity="0.0"/>
    </linearGradient>
  </defs>
</svg>
