<?xml version="1.0" encoding="UTF-8" standalone="no"?>
<svg xmlns:ffdec="https://www.free-decompiler.com/flash" xmlns:xlink="http://www.w3.org/1999/xlink" ffdec:objectType="shape" height="348.25px" width="531.85px" xmlns="http://www.w3.org/2000/svg">
  <g transform="matrix(1.0, 0.0, 0.0, 1.0, 265.9, 176.35)">
    <path d="M-6.45 13.35 L29.0 -23.1 Q29.75 -23.85 30.8 -23.85 31.8 -23.85 32.55 -23.1 33.3 -22.4 33.3 -21.35 33.3 -20.35 32.6 -19.6 L29.25 -16.15 -4.45 18.5 -6.45 13.35 -4.45 18.5 10.25 56.0 10.25 56.5 -5.2 56.15 -5.2 34.3 -24.25 33.4 -28.8 6.95 -14.3 6.95 -9.0 6.95 -6.45 13.35 M20.0 56.7 L21.45 53.75 25.45 56.7 Q29.7 59.45 35.65 61.7 L35.7 61.75 36.0 61.65 Q41.8 59.75 46.05 56.5 L47.05 65.7 20.05 65.7 20.05 56.75 20.0 56.7 M36.1 -10.0 L39.55 -10.0 36.25 -1.4 36.1 -1.4 32.8 -10.0 36.1 -10.0 M20.6 56.75 L20.05 56.75 20.6 56.75" fill="#c54403" fill-rule="evenodd" stroke="none"/>
    <path d="M258.5 89.75 L255.9 89.3 Q257.3 89.0 258.5 89.75" fill="#666666" fill-rule="evenodd" stroke="none"/>
    <path d="M223.6 120.05 L228.5 121.0 Q240.9 124.15 245.0 133.75 L245.25 135.1 Q248.5 157.45 225.7 159.25 L51.85 167.15 Q113.75 158.2 173.4 138.45 L188.0 133.75 206.8 126.7 188.0 133.75 173.4 138.45 Q113.75 158.2 51.85 167.15 L42.3 167.55 -199.0 169.4 Q-223.5 169.8 -236.15 146.15 -243.15 132.95 -244.9 125.25 -218.45 129.2 -197.15 131.35 L-169.2 133.75 -93.85 135.85 Q15.3 140.05 90.2 133.75 L138.55 133.75 213.3 124.15 206.8 126.7 Q203.9 130.4 201.95 133.75 L201.9 133.75 201.9 133.8 Q200.0 136.95 198.95 139.75 196.85 147.1 203.45 151.3 L224.7 151.3 224.7 139.75 223.55 120.1 223.6 120.05" fill="url(#gradient0)" fill-rule="evenodd" stroke="none"/>
    <path d="M10.25 56.5 L19.95 56.75 20.0 56.7 20.05 56.75 20.05 65.7 47.05 65.7 52.0 65.7 53.15 86.5 110.35 86.5 110.4 94.4 53.65 96.65 Q24.8 96.9 -5.15 95.55 L-10.25 95.25 -10.25 65.55 -5.2 65.7 -5.2 65.55 -5.2 56.15 10.25 56.5 M19.95 56.75 L20.05 56.75 19.95 56.75 M53.15 86.5 L53.65 96.65 53.15 86.5" fill="#d34e01" fill-rule="evenodd" stroke="none"/>
    <path d="M17.65 49.65 Q14.2 44.85 14.05 39.05 14.95 35.65 16.2 34.5 16.65 34.05 17.2 33.95 L20.6 33.55 29.75 34.35 34.45 33.55 39.6 32.75 51.0 33.95 Q53.8 34.15 55.3 36.35 L55.4 36.5 Q56.1 37.55 56.5 39.05 L56.45 39.05 56.45 39.4 Q55.35 44.15 53.25 48.0 52.6 46.65 51.1 45.55 48.45 43.65 44.7 43.65 40.95 43.65 38.3 45.55 35.95 47.2 35.65 49.55 35.35 47.3 33.05 45.65 30.4 43.75 26.65 43.75 22.9 43.75 20.25 45.65 17.9 47.3 17.65 49.65 M55.85 39.05 L56.45 39.05 55.85 39.05" fill="#996c2b" fill-rule="evenodd" stroke="none"/>
    <path d="M56.5 39.05 L56.5 39.1 56.45 39.4 56.45 39.05 56.5 39.05 M-119.6 -11.25 L-122.05 -10.2 Q-121.05 -11.25 -119.6 -11.25 M-5.2 65.55 L-5.2 65.7 -10.25 65.55 -5.2 65.55" fill="#ffffff" fill-rule="evenodd" stroke="none"/>
    <path d="M21.45 53.75 Q19.2 51.8 17.65 49.65 17.9 47.3 20.25 45.65 22.9 43.75 26.65 43.75 30.4 43.75 33.05 45.65 35.35 47.3 35.65 49.55 L35.65 51.0 35.7 50.25 35.65 49.55 Q35.95 47.2 38.3 45.55 40.95 43.65 44.7 43.65 48.45 43.65 51.1 45.55 52.6 46.65 53.25 48.0 50.5 53.0 46.05 56.5 41.8 59.75 36.0 61.65 L35.65 61.65 35.65 61.7 Q29.7 59.45 25.45 56.7 L21.45 53.75 M35.65 61.65 L35.65 51.0 35.65 61.65" fill="#eecf98" fill-rule="evenodd" stroke="none"/>
    <path d="M-34.95 -101.05 L-33.55 -99.55 -25.0 -98.5 -24.95 -98.4 -23.55 -96.45 -21.55 -30.75 -15.45 0.9 -14.3 6.95 -28.8 6.95 -31.9 -11.25 -51.45 -11.25 -39.35 -101.05 -34.95 -101.05 M-37.6 -12.45 L-33.55 -99.55 -37.6 -12.45" fill="#f1b930" fill-rule="evenodd" stroke="none"/>
    <path d="M-122.6 21.95 L-118.7 -4.25 -119.6 -4.25 Q-121.05 -4.25 -122.05 -5.25 -123.1 -6.3 -123.1 -7.75 -123.1 -9.2 -122.05 -10.2 L-119.6 -11.25 -51.45 -11.25 -31.9 -11.25 -28.8 6.95 -24.25 33.4 Q-51.35 31.8 -76.4 28.85 L-76.4 0.65 -91.55 0.65 -91.55 26.95 -122.6 21.95 M-29.55 6.95 L-28.8 6.95 -29.55 6.95 M-98.3 15.7 L-98.3 1.1 -112.75 1.1 -114.5 15.7 -98.3 15.7" fill="url(#gradient1)" fill-rule="evenodd" stroke="none"/>
    <path d="M-122.6 21.95 L-91.55 26.95 -76.4 28.85 Q-51.35 31.8 -24.25 33.4 L-5.2 34.3 -5.2 56.15 -5.2 65.55 -10.25 65.55 Q-66.55 63.3 -121.3 54.9 L-127.35 53.95 -122.6 21.95" fill="url(#gradient2)" fill-rule="evenodd" stroke="none"/>
    <path d="M-91.55 26.95 L-91.55 0.65 -76.4 0.65 -76.4 28.85 -91.55 26.95" fill="#714431" fill-rule="evenodd" stroke="none"/>
    <path d="M-10.25 95.25 Q-73.45 91.75 -124.85 85.45 L-121.3 54.9 Q-66.55 63.3 -10.25 65.55 L-10.25 95.25 M-79.2 71.55 Q-79.2 69.5 -80.7 68.0 -82.15 66.55 -84.2 66.55 -86.25 66.55 -87.75 68.0 -89.2 69.5 -89.2 71.55 -89.2 73.6 -87.75 75.05 -86.25 76.55 -84.2 76.55 -82.15 76.55 -80.7 75.05 -79.2 73.6 -79.2 71.55 M-52.7 69.6 Q-54.75 69.6 -56.25 71.05 -57.7 72.55 -57.7 74.6 -57.7 76.65 -56.25 78.1 -54.75 79.6 -52.7 79.6 -50.65 79.6 -49.2 78.1 -47.7 76.65 -47.7 74.6 -47.7 72.55 -49.2 71.05 -50.65 69.6 -52.7 69.6 M-23.55 72.25 Q-25.6 72.25 -27.1 73.7 -28.55 75.2 -28.55 77.25 -28.55 79.3 -27.1 80.75 -25.6 82.25 -23.55 82.25 -21.5 82.25 -20.05 80.75 -18.55 79.3 -18.55 77.25 -18.55 75.2 -20.05 73.7 -21.5 72.25 -23.55 72.25" fill="url(#gradient3)" fill-rule="evenodd" stroke="none"/>
    <path d="M-52.7 69.6 Q-50.65 69.6 -49.2 71.05 -47.7 72.55 -47.7 74.6 -47.7 76.65 -49.2 78.1 -50.65 79.6 -52.7 79.6 -54.75 79.6 -56.25 78.1 -57.7 76.65 -57.7 74.6 -57.7 72.55 -56.25 71.05 -54.75 69.6 -52.7 69.6 M-79.2 71.55 Q-79.2 73.6 -80.7 75.05 -82.15 76.55 -84.2 76.55 -86.25 76.55 -87.75 75.05 -89.2 73.6 -89.2 71.55 -89.2 69.5 -87.75 68.0 -86.25 66.55 -84.2 66.55 -82.15 66.55 -80.7 68.0 -79.2 69.5 -79.2 71.55 M-23.55 72.25 Q-21.5 72.25 -20.05 73.7 -18.55 75.2 -18.55 77.25 -18.55 79.3 -20.05 80.75 -21.5 82.25 -23.55 82.25 -25.6 82.25 -27.1 80.75 -28.55 79.3 -28.55 77.25 -28.55 75.2 -27.1 73.7 -25.6 72.25 -23.55 72.25 M-98.3 15.7 L-114.5 15.7 -112.75 1.1 -98.3 1.1 -98.3 15.7" fill="#333333" fill-rule="evenodd" stroke="none"/>
    <path d="M110.4 94.4 Q191.7 88.7 263.45 68.7 263.2 80.05 258.5 89.75 257.3 89.0 255.9 89.3 150.8 111.0 45.65 113.8 L45.6 113.8 Q-117.05 115.8 -256.1 77.35 -257.1 77.05 -258.0 77.35 L-263.4 57.25 -262.85 56.7 Q-210.1 74.95 -124.85 85.45 -73.45 91.75 -10.25 95.25 L-5.15 95.55 Q24.8 96.9 53.65 96.65 L110.4 94.4 M-258.0 76.35 Q-257.1 76.05 -256.1 76.35 -117.05 114.8 45.65 112.8 150.8 110.0 255.9 88.3 150.8 110.0 45.65 112.8 -117.05 114.8 -256.1 76.35 -257.1 76.05 -258.0 76.35" fill="url(#gradient4)" fill-rule="evenodd" stroke="none"/>
    <path d="M258.5 89.75 L258.55 89.8 Q259.75 90.6 260.05 92.0 260.3 93.4 259.55 94.65 258.7 95.85 257.3 96.15 L254.3 96.75 Q150.05 118.05 45.8 120.8 L45.75 120.8 Q-116.85 122.8 -256.0 84.6 L-257.95 84.1 Q-259.35 83.7 -260.1 82.45 -260.8 81.15 -260.4 79.8 -260.05 78.4 -258.75 77.65 L-258.0 77.35 Q-257.1 77.05 -256.1 77.35 -117.05 115.8 45.6 113.8 L45.65 113.8 Q150.8 111.0 255.9 89.3 L258.5 89.75" fill="#262626" fill-rule="evenodd" stroke="none"/>
    <path d="M254.3 96.75 Q245.7 108.8 229.15 117.8 L227.5 118.5 223.6 120.05 223.55 120.05 223.55 120.1 214.2 123.8 213.3 124.15 138.55 133.75 90.2 133.75 -93.85 135.85 -169.2 133.75 -197.15 131.35 Q-218.45 129.2 -244.9 125.25 L-256.0 84.6 Q-116.85 122.8 45.75 120.8 L45.8 120.8 Q150.05 118.05 254.3 96.75" fill="url(#gradient5)" fill-rule="evenodd" stroke="none"/>
    <path d="M201.95 133.75 L201.9 133.8 201.95 133.75" fill="url(#gradient6)" fill-rule="evenodd" stroke="none"/>
    <path d="M90.2 133.75 Q15.3 140.05 -93.85 135.85 L90.2 133.75" fill="url(#gradient7)" fill-rule="evenodd" stroke="none"/>
    <path d="M-4.45 18.5 L29.25 -16.15 32.6 -19.6 Q33.3 -20.35 33.3 -21.35 33.3 -22.4 32.55 -23.1 31.8 -23.85 30.8 -23.85 29.75 -23.85 29.0 -23.1 L-6.45 13.35 -4.45 18.5 10.25 56.0 M10.25 56.5 L19.95 56.75 20.0 56.7 21.45 53.75 Q19.2 51.8 17.65 49.65 14.2 44.85 14.05 39.05 14.95 35.65 16.2 34.5 16.65 34.05 17.2 33.95 L20.6 33.55 29.75 34.35 34.45 33.55 39.6 32.75 51.0 33.95 Q53.8 34.15 55.3 36.35 L55.4 36.5 Q56.1 37.55 56.5 39.05 L56.5 39.1 56.45 39.4 Q55.35 44.15 53.25 48.0 50.5 53.0 46.05 56.5 L47.05 65.7 52.0 65.7 53.15 86.5 110.35 86.5 110.4 94.4 Q191.7 88.7 263.45 68.7 263.2 80.05 258.5 89.75 L258.55 89.8 Q259.75 90.6 260.05 92.0 260.3 93.4 259.55 94.65 258.7 95.85 257.3 96.15 L254.3 96.75 Q245.7 108.8 229.15 117.8 L227.5 118.5 223.6 120.05 223.55 120.05 223.55 120.1 214.2 123.8 213.3 124.15 206.8 126.7 M225.7 159.25 L225.2 159.85 M36.1 -10.0 L36.1 -19.9 Q35.75 -18.6 34.7 -17.55 33.1 -15.95 30.8 -15.95 L29.25 -16.15 M36.25 -1.4 L36.1 -1.4 36.1 2.5 36.2 2.5 Q36.9 2.55 37.4 3.05 38.0 3.65 38.0 4.45 L38.0 6.05 Q38.0 6.85 37.4 7.4 L37.0 7.75 36.05 8.0 36.0 8.0 35.9 8.0 Q35.35 7.85 34.9 7.4 34.35 6.85 34.05 6.1 M36.1 -1.4 L32.8 -10.0 M45.65 113.8 L45.6 113.8 M-258.0 77.35 L-258.75 77.65 Q-260.05 78.4 -260.4 79.8 -260.8 81.15 -260.1 82.45 -259.35 83.7 -257.95 84.1 L-256.0 84.6 -244.9 125.25 Q-243.15 132.95 -236.15 146.15 -223.5 169.8 -199.0 169.4 L42.3 167.55 51.85 167.15 M45.75 120.8 L45.8 120.8 M255.9 89.3 Q257.3 89.0 258.5 89.75 M56.5 39.05 L56.45 39.05 55.85 39.05 M53.25 48.0 Q52.6 46.65 51.1 45.55 48.45 43.65 44.7 43.65 40.95 43.65 38.3 45.55 35.95 47.2 35.65 49.55 L35.7 50.25 35.65 51.0 M36.0 61.65 Q41.8 59.75 46.05 56.5 M34.1 4.4 Q34.35 3.65 34.9 3.05 35.45 2.55 36.2 2.5 M17.65 49.65 Q17.9 47.3 20.25 45.65 22.9 43.75 26.65 43.75 30.4 43.75 33.05 45.65 35.35 47.3 35.65 49.55 M35.65 61.7 L35.65 61.65 M35.65 61.7 L35.7 61.75 36.0 61.65 M35.65 61.7 Q29.7 59.45 25.45 56.7 L21.45 53.75 M47.05 65.7 L20.05 65.7 20.05 56.75 19.95 56.75 M20.05 56.75 L20.6 56.75 M53.65 96.65 L53.15 86.5 M110.4 94.4 L53.65 96.65 Q24.8 96.9 -5.15 95.55 L-10.25 95.25 Q-73.45 91.75 -124.85 85.45 -210.1 74.95 -262.85 56.7 M-263.4 57.25 L-258.0 77.35 M-34.95 -101.05 L-33.55 -99.55 -25.0 -98.5 -26.75 -101.05 M-122.05 -10.2 Q-123.1 -9.2 -123.1 -7.75 -123.1 -6.3 -122.05 -5.25 -121.05 -4.25 -119.6 -4.25 L-118.7 -4.25 -122.6 21.95 -91.55 26.95 -76.4 28.85 Q-51.35 31.8 -24.25 33.4 L-28.8 6.95 -29.55 6.95 M-122.05 -10.2 Q-121.05 -11.25 -119.6 -11.25 L-51.45 -11.25 -39.35 -101.05 M-24.95 -98.45 L-25.0 -98.5 -24.95 -98.4 -23.55 -96.45 -21.55 -30.75 -15.45 0.9 -14.65 0.35 M-24.95 -98.45 L-23.6 -97.8 -23.55 -96.45 M-28.8 6.95 L-31.9 -11.25 -51.45 -11.25 M-6.45 13.35 L-9.0 6.95 -14.3 6.95 -28.8 6.95 M-14.3 6.95 L-15.45 0.9 M-5.2 56.15 L-5.2 34.3 -24.25 33.4 M-5.2 56.15 L-5.2 65.55 -5.2 65.7 -10.25 65.55 -10.25 95.25 M-10.25 65.55 Q-66.55 63.3 -121.3 54.9 L-124.85 85.45 M-127.35 53.95 L-127.45 54.5 M-122.6 21.95 L-127.35 53.95 -121.3 54.9 M10.25 56.5 L-5.2 56.15" fill="none" stroke="#000000" stroke-linecap="round" stroke-linejoin="round" stroke-width="5.0"/>
    <path d="M-24.95 -98.4 L-24.95 -98.45" fill="none" stroke="#000000" stroke-linecap="round" stroke-linejoin="round" stroke-width="5.0"/>
    <path d="M-33.55 -99.55 L-37.6 -12.45" fill="none" stroke="#e8910f" stroke-linecap="round" stroke-linejoin="round" stroke-width="5.0"/>
    <path d="M255.9 88.3 Q150.8 110.0 45.65 112.8 -117.05 114.8 -256.1 76.35 -257.1 76.05 -258.0 76.35" fill="none" stroke="#626262" stroke-linecap="round" stroke-linejoin="round" stroke-width="5.0"/>
    <path d="M223.6 120.05 L228.5 121.0 Q240.9 124.15 245.0 133.75 L245.25 135.1 Q248.5 157.45 225.7 159.25 L51.85 167.15 Q113.75 158.2 173.4 138.45 L188.0 133.75 206.8 126.7 Q203.9 130.4 201.95 133.75 L201.9 133.8 201.95 133.75 M223.6 120.05 L223.55 120.1 224.7 139.75 224.7 151.3 203.45 151.3 Q196.85 147.1 198.95 139.75 200.0 136.95 201.9 133.8" fill="none" stroke="#330000" stroke-linecap="round" stroke-linejoin="round" stroke-width="5.0"/>
    <path d="M35.65 49.55 L35.65 51.0" fill="none" stroke="#999999" stroke-linecap="round" stroke-linejoin="round" stroke-width="5.0"/>
    <path d="M35.65 51.0 L35.65 61.65" fill="none" stroke="#888888" stroke-linecap="round" stroke-linejoin="round" stroke-width="5.0"/>
    <path d="M-28.8 6.95 L-14.3 6.95 -9.0 6.95 -6.45 13.35 25.6 -19.6 Q25.3 -20.45 25.3 -21.45 25.3 -23.75 26.95 -25.35 L27.25 -25.6 28.75 -26.55 30.8 -26.95 Q33.1 -26.95 34.7 -25.35 36.3 -23.75 36.3 -21.45 L36.3 -21.1 36.1 -19.9 Q35.75 -18.6 34.7 -17.55 33.1 -15.95 30.8 -15.95 L29.25 -16.15 -4.45 18.5 10.25 56.0 10.25 56.5 -5.2 56.15 -5.2 34.3 -24.25 33.4 -28.8 6.95 M36.1 -10.0 L39.55 -10.0 36.25 -1.4 36.1 -1.4 32.8 -10.0 36.1 -10.0 M46.05 56.5 L47.05 65.7 20.05 65.7 20.05 56.75 20.0 56.7 21.45 53.75 25.45 56.7 Q29.7 59.45 35.65 61.7 L35.7 61.75 36.0 61.65 Q41.8 59.75 46.05 56.5 M25.6 -19.6 L29.0 -23.1 Q29.75 -23.85 30.8 -23.85 31.8 -23.85 32.55 -23.1 33.3 -22.4 33.3 -21.35 33.3 -20.35 32.6 -19.6 L29.25 -16.15 32.6 -19.6 Q33.3 -20.35 33.3 -21.35 33.3 -22.4 32.55 -23.1 31.8 -23.85 30.8 -23.85 29.75 -23.85 29.0 -23.1 L25.6 -19.6 M20.6 56.75 L20.05 56.75 20.6 56.75 M-4.45 18.5 L-6.45 13.35 -4.45 18.5" fill="#c54403" fill-rule="evenodd" stroke="none"/>
    <path d="M255.9 89.3 Q257.3 89.0 258.5 89.75 L255.9 89.3" fill="#666666" fill-rule="evenodd" stroke="none"/>
    <path d="M223.6 120.05 L228.5 121.0 Q240.9 124.15 245.0 133.75 L245.25 135.1 Q248.5 157.45 225.7 159.25 L51.85 167.15 Q113.75 158.2 173.4 138.45 L188.0 133.75 173.4 138.45 Q113.75 158.2 51.85 167.15 L42.3 167.55 -199.0 169.4 Q-223.5 169.8 -236.15 146.15 -243.15 132.95 -244.9 125.25 -218.45 129.2 -197.15 131.35 L-169.2 133.75 -93.85 135.85 Q15.3 140.05 90.2 133.75 L138.55 133.75 213.3 124.15 206.8 126.7 Q203.9 130.4 201.95 133.75 L201.9 133.75 201.9 133.8 Q200.0 136.95 198.95 139.75 196.85 147.1 203.45 151.3 L224.7 151.3 224.7 139.75 223.55 120.1 223.6 120.05 M188.0 133.75 L206.8 126.7 188.0 133.75" fill="url(#gradient8)" fill-rule="evenodd" stroke="none"/>
    <path d="M47.05 65.7 L52.0 65.7 53.15 86.5 110.35 86.5 110.4 94.4 53.65 96.65 53.15 86.5 53.65 96.65 Q24.8 96.9 -5.15 95.55 L-10.25 95.25 -10.25 65.55 -5.2 65.7 -5.2 65.55 -5.2 56.15 10.25 56.5 19.95 56.75 20.0 56.7 20.05 56.75 20.05 65.7 47.05 65.7 M20.05 56.75 L19.95 56.75 20.05 56.75" fill="#d34e01" fill-rule="evenodd" stroke="none"/>
    <path d="M55.3 36.35 L55.4 36.5 Q56.1 37.55 56.5 39.05 L56.45 39.05 56.45 39.4 Q55.35 44.15 53.25 48.0 52.6 46.65 51.1 45.55 48.45 43.65 44.7 43.65 40.95 43.65 38.3 45.55 35.95 47.2 35.65 49.55 35.35 47.3 33.05 45.65 30.4 43.75 26.65 43.75 22.9 43.75 20.25 45.65 17.9 47.3 17.65 49.65 14.2 44.85 14.05 39.05 14.95 35.65 16.2 34.5 16.65 34.05 17.2 33.95 L20.6 33.55 29.75 34.35 34.45 33.55 39.6 32.75 51.0 33.95 Q53.8 34.15 55.3 36.35 M55.85 39.05 L56.45 39.05 55.85 39.05" fill="#996c2b" fill-rule="evenodd" stroke="none"/>
    <path d="M-38.95 -104.05 L-38.85 -105.1 -38.55 -104.95 -38.95 -104.05 M-119.6 -11.25 L-122.05 -10.2 Q-121.05 -11.25 -119.6 -11.25 M56.5 39.05 L56.5 39.1 56.45 39.4 56.45 39.05 56.5 39.05 M-5.2 65.55 L-5.2 65.7 -10.25 65.55 -5.2 65.55" fill="#ffffff" fill-rule="evenodd" stroke="none"/>
    <path d="M53.25 48.0 Q50.5 53.0 46.05 56.5 41.8 59.75 36.0 61.65 L35.65 61.65 35.65 51.0 35.65 61.65 35.65 61.7 Q29.7 59.45 25.45 56.7 L21.45 53.75 Q19.2 51.8 17.65 49.65 17.9 47.3 20.25 45.65 22.9 43.75 26.65 43.75 30.4 43.75 33.05 45.65 35.35 47.3 35.65 49.55 L35.65 51.0 35.7 50.25 35.65 49.55 Q35.95 47.2 38.3 45.55 40.95 43.65 44.7 43.65 48.45 43.65 51.1 45.55 52.6 46.65 53.25 48.0" fill="#eecf98" fill-rule="evenodd" stroke="none"/>
    <path d="M-26.7 -161.6 L-28.2 -160.8 -26.7 -161.6 -28.8 -141.45 -30.25 -126.95 -31.65 -113.4 -31.65 -113.35 -32.1 -109.0 -29.45 -105.15 -29.4 -105.05 -29.45 -105.0 -29.5 -104.95 -25.0 -98.5 -33.55 -99.55 -37.8 -104.1 -38.55 -104.95 -38.85 -105.1 -38.95 -104.05 -41.8 -105.05 -41.9 -104.95 -42.0 -104.95 -58.9 -110.8 -58.95 -110.85 -58.95 -110.95 -58.95 -111.05 -58.7 -113.55 -59.35 -113.55 -59.45 -113.6 -59.45 -113.7 -59.45 -113.8 -59.35 -113.8 -57.9 -113.8 Q-57.85 -114.6 -57.4 -115.2 L-57.4 -119.85 -69.3 -119.85 Q-70.35 -119.85 -71.05 -120.55 -71.8 -121.3 -71.8 -122.35 -71.8 -123.4 -71.05 -124.1 -70.35 -124.85 -69.3 -124.85 L-43.45 -124.85 Q-42.4 -124.85 -41.65 -124.1 -40.95 -123.4 -40.95 -122.35 -40.95 -121.3 -41.65 -120.55 -42.4 -119.85 -43.45 -119.85 L-53.4 -119.85 -53.4 -115.2 Q-52.95 -114.6 -52.9 -113.8 L-36.85 -113.8 -31.5 -166.35 Q-31.4 -167.45 -30.55 -168.1 -29.7 -168.8 -28.6 -168.7 -27.55 -168.6 -26.85 -167.75 -26.2 -166.9 -26.3 -165.8 L-26.7 -161.6 M-33.5 -124.3 L-30.25 -126.95 -33.5 -124.3 M-30.85 -141.55 L-28.8 -141.45 -30.85 -141.55" fill="#000000" fill-rule="evenodd" stroke="none"/>
    <path d="M-38.55 -104.95 L-37.8 -104.1 -33.55 -99.55 -25.0 -98.5 -24.95 -98.4 -23.55 -96.45 -21.55 -30.75 -15.45 0.9 -14.3 6.95 -28.8 6.95 -31.9 -11.25 -51.45 -11.25 -38.95 -104.05 -37.8 -104.1 -38.95 -104.05 -38.55 -104.95 M-37.6 -12.45 L-33.55 -99.55 -37.6 -12.45" fill="#f1b930" fill-rule="evenodd" stroke="none"/>
    <path d="M-51.45 -11.25 L-31.9 -11.25 -28.8 6.95 -24.25 33.4 Q-51.35 31.8 -76.4 28.85 L-76.4 0.65 -91.55 0.65 -91.55 26.95 -122.6 21.95 -118.7 -4.25 -119.6 -4.25 Q-121.05 -4.25 -122.05 -5.25 -123.1 -6.3 -123.1 -7.75 -123.1 -9.2 -122.05 -10.2 L-119.6 -11.25 -51.45 -11.25 M-29.55 6.95 L-28.8 6.95 -29.55 6.95 M-98.3 15.7 L-98.3 1.1 -112.75 1.1 -114.5 15.7 -98.3 15.7" fill="url(#gradient9)" fill-rule="evenodd" stroke="none"/>
    <path d="M-122.6 21.95 L-91.55 26.95 -76.4 28.85 Q-51.35 31.8 -24.25 33.4 L-5.2 34.3 -5.2 56.15 -5.2 65.55 -10.25 65.55 Q-66.55 63.3 -121.3 54.9 L-127.35 53.95 -122.6 21.95" fill="url(#gradient10)" fill-rule="evenodd" stroke="none"/>
    <path d="M-91.55 26.95 L-91.55 0.65 -76.4 0.65 -76.4 28.85 -91.55 26.95" fill="#714431" fill-rule="evenodd" stroke="none"/>
    <path d="M-79.2 71.55 Q-79.2 69.5 -80.7 68.0 -82.15 66.55 -84.2 66.55 -86.25 66.55 -87.75 68.0 -89.2 69.5 -89.2 71.55 -89.2 73.6 -87.75 75.05 -86.25 76.55 -84.2 76.55 -82.15 76.55 -80.7 75.05 -79.2 73.6 -79.2 71.55 M-49.2 71.05 Q-50.65 69.6 -52.7 69.6 -54.75 69.6 -56.25 71.05 -57.7 72.55 -57.7 74.6 -57.7 76.65 -56.25 78.1 -54.75 79.6 -52.7 79.6 -50.65 79.6 -49.2 78.1 -47.7 76.65 -47.7 74.6 -47.7 72.55 -49.2 71.05 M-10.25 65.55 L-10.25 95.25 Q-73.45 91.75 -124.85 85.45 L-121.3 54.9 Q-66.55 63.3 -10.25 65.55 M-23.55 72.25 Q-25.6 72.25 -27.1 73.7 -28.55 75.2 -28.55 77.25 -28.55 79.3 -27.1 80.75 -25.6 82.25 -23.55 82.25 -21.5 82.25 -20.05 80.75 -18.55 79.3 -18.55 77.25 -18.55 75.2 -20.05 73.7 -21.5 72.25 -23.55 72.25" fill="url(#gradient11)" fill-rule="evenodd" stroke="none"/>
    <path d="M-49.2 71.05 Q-47.7 72.55 -47.7 74.6 -47.7 76.65 -49.2 78.1 -50.65 79.6 -52.7 79.6 -54.75 79.6 -56.25 78.1 -57.7 76.65 -57.7 74.6 -57.7 72.55 -56.25 71.05 -54.75 69.6 -52.7 69.6 -50.65 69.6 -49.2 71.05 M-79.2 71.55 Q-79.2 73.6 -80.7 75.05 -82.15 76.55 -84.2 76.55 -86.25 76.55 -87.75 75.05 -89.2 73.6 -89.2 71.55 -89.2 69.5 -87.75 68.0 -86.25 66.55 -84.2 66.55 -82.15 66.55 -80.7 68.0 -79.2 69.5 -79.2 71.55 M-23.55 72.25 Q-21.5 72.25 -20.05 73.7 -18.55 75.2 -18.55 77.25 -18.55 79.3 -20.05 80.75 -21.5 82.25 -23.55 82.25 -25.6 82.25 -27.1 80.75 -28.55 79.3 -28.55 77.25 -28.55 75.2 -27.1 73.7 -25.6 72.25 -23.55 72.25 M-98.3 15.7 L-114.5 15.7 -112.75 1.1 -98.3 1.1 -98.3 15.7" fill="#333333" fill-rule="evenodd" stroke="none"/>
    <path d="M110.4 94.4 Q191.7 88.7 263.45 68.7 263.2 80.05 258.5 89.75 257.3 89.0 255.9 89.3 150.8 111.0 45.65 113.8 L45.6 113.8 Q-117.05 115.8 -256.1 77.35 -257.1 77.05 -258.0 77.35 L-263.4 57.25 -262.85 56.7 Q-210.1 74.95 -124.85 85.45 -73.45 91.75 -10.25 95.25 L-5.15 95.55 Q24.8 96.9 53.65 96.65 L110.4 94.4 M-258.0 76.35 Q-257.1 76.05 -256.1 76.35 -117.05 114.8 45.65 112.8 150.8 110.0 255.9 88.3 150.8 110.0 45.65 112.8 -117.05 114.8 -256.1 76.35 -257.1 76.05 -258.0 76.35" fill="url(#gradient12)" fill-rule="evenodd" stroke="none"/>
    <path d="M258.5 89.75 L258.55 89.8 Q259.75 90.6 260.05 92.0 260.3 93.4 259.55 94.65 258.7 95.85 257.3 96.15 L254.3 96.75 Q150.05 118.05 45.8 120.8 L45.75 120.8 Q-116.85 122.8 -256.0 84.6 L-257.95 84.1 Q-259.35 83.7 -260.1 82.45 -260.8 81.15 -260.4 79.8 -260.05 78.4 -258.75 77.65 L-258.0 77.35 Q-257.1 77.05 -256.1 77.35 -117.05 115.8 45.6 113.8 L45.65 113.8 Q150.8 111.0 255.9 89.3 L258.5 89.75" fill="#262626" fill-rule="evenodd" stroke="none"/>
    <path d="M254.3 96.75 Q245.7 108.8 229.15 117.8 L227.5 118.5 223.6 120.05 223.55 120.05 223.55 120.1 214.2 123.8 213.3 124.15 138.55 133.75 90.2 133.75 -93.85 135.85 -169.2 133.75 -197.15 131.35 Q-218.45 129.2 -244.9 125.25 L-256.0 84.6 Q-116.85 122.8 45.75 120.8 L45.8 120.8 Q150.05 118.05 254.3 96.75" fill="url(#gradient13)" fill-rule="evenodd" stroke="none"/>
    <path d="M201.9 133.8 L201.95 133.75 201.9 133.8" fill="url(#gradient14)" fill-rule="evenodd" stroke="none"/>
    <path d="M90.2 133.75 Q15.3 140.05 -93.85 135.85 L90.2 133.75" fill="url(#gradient15)" fill-rule="evenodd" stroke="none"/>
    <path d="M-41.8 -105.05 L-38.95 -104.05 -38.85 -105.1 -38.55 -104.95 -37.8 -104.1 -33.55 -99.55 -25.0 -98.5 -29.5 -104.95 M-38.95 -104.05 L-37.8 -104.1 M-38.95 -104.05 L-51.45 -11.25 -31.9 -11.25 -28.8 6.95 -14.3 6.95 -15.45 0.9 -21.55 -30.75 -23.55 -96.45 -24.95 -98.4 -25.0 -98.5 -24.95 -98.45 -23.6 -97.8 -23.55 -96.45 M-122.05 -10.2 Q-123.1 -9.2 -123.1 -7.75 -123.1 -6.3 -122.05 -5.25 -121.05 -4.25 -119.6 -4.25 L-118.7 -4.25 -122.6 21.95 -91.55 26.95 -76.4 28.85 Q-51.35 31.8 -24.25 33.4 L-28.8 6.95 -29.55 6.95 M-119.6 -11.25 Q-121.05 -11.25 -122.05 -10.2 M-51.45 -11.25 L-119.6 -11.25 M-14.3 6.95 L-9.0 6.95 -6.45 13.35 25.6 -19.6 Q25.3 -20.45 25.3 -21.45 25.3 -23.75 26.95 -25.35 L27.25 -25.6 -14.65 0.35 -15.45 0.9 M27.25 -25.6 L28.75 -26.55 30.8 -26.95 Q33.1 -26.95 34.7 -25.35 36.3 -23.75 36.3 -21.45 L36.3 -21.1 36.1 -19.9 36.1 -10.0 39.55 -10.0 36.25 -1.4 36.1 -1.4 36.1 2.5 36.2 2.5 Q36.9 2.55 37.4 3.05 38.0 3.65 38.0 4.45 L38.0 6.05 Q38.0 6.85 37.4 7.4 L37.0 7.75 55.3 36.35 55.4 36.5 Q56.1 37.55 56.5 39.05 L56.5 39.1 56.45 39.4 Q55.35 44.15 53.25 48.0 50.5 53.0 46.05 56.5 L47.05 65.7 52.0 65.7 53.15 86.5 110.35 86.5 110.4 94.4 Q191.7 88.7 263.45 68.7 263.2 80.05 258.5 89.75 L258.55 89.8 Q259.75 90.6 260.05 92.0 260.3 93.4 259.55 94.65 258.7 95.85 257.3 96.15 L254.3 96.75 Q245.7 108.8 229.15 117.8 L227.5 118.5 223.6 120.05 223.55 120.05 223.55 120.1 214.2 123.8 213.3 124.15 206.8 126.7 M225.7 159.25 L225.2 159.85 M36.1 -19.9 Q35.75 -18.6 34.7 -17.55 33.1 -15.95 30.8 -15.95 L29.25 -16.15 -4.45 18.5 10.25 56.0 M10.25 56.5 L19.95 56.75 20.0 56.7 21.45 53.75 Q19.2 51.8 17.65 49.65 14.2 44.85 14.05 39.05 14.95 35.65 16.2 34.5 L35.6 7.95 35.75 8.0 35.9 8.0 Q35.35 7.85 34.9 7.4 34.35 6.85 34.05 6.1 L34.1 4.4 Q34.35 3.65 34.9 3.05 35.45 2.55 36.2 2.5 M29.25 -16.15 L32.6 -19.6 Q33.3 -20.35 33.3 -21.35 33.3 -22.4 32.55 -23.1 31.8 -23.85 30.8 -23.85 29.75 -23.85 29.0 -23.1 L25.6 -19.6 M36.1 -10.0 L32.8 -10.0 36.1 -1.4 M258.5 89.75 Q257.3 89.0 255.9 89.3 M-244.9 125.25 Q-243.15 132.95 -236.15 146.15 -223.5 169.8 -199.0 169.4 L42.3 167.55 51.85 167.15 M16.2 34.5 Q16.65 34.05 17.2 33.95 L20.6 33.55 29.75 34.35 34.45 33.55 39.6 32.75 51.0 33.95 Q53.8 34.15 55.3 36.35 M56.5 39.05 L56.45 39.05 55.85 39.05 M53.25 48.0 Q52.6 46.65 51.1 45.55 48.45 43.65 44.7 43.65 40.95 43.65 38.3 45.55 35.95 47.2 35.65 49.55 L35.7 50.25 35.65 51.0 M36.0 61.65 Q41.8 59.75 46.05 56.5 M37.0 7.75 L36.05 8.0 36.0 8.0 35.9 8.0 M17.65 49.65 Q17.9 47.3 20.25 45.65 22.9 43.75 26.65 43.75 30.4 43.75 33.05 45.65 35.35 47.3 35.65 49.55 M35.65 61.7 L35.65 61.65 M35.65 61.7 L35.7 61.75 36.0 61.65 M35.65 61.7 Q29.7 59.45 25.45 56.7 L21.45 53.75 M19.95 56.75 L20.05 56.75 20.05 65.7 47.05 65.7 M20.05 56.75 L20.6 56.75 M53.15 86.5 L53.65 96.65 110.4 94.4 M45.8 120.8 L45.75 120.8 M-256.0 84.6 L-244.9 125.25 M45.6 113.8 L45.65 113.8 M-6.45 13.35 L-4.45 18.5 M-5.2 56.15 L-5.2 34.3 -24.25 33.4 M-5.2 56.15 L-5.2 65.55 -5.2 65.7 -10.25 65.55 -10.25 95.25 -5.15 95.55 Q24.8 96.9 53.65 96.65 M-10.25 65.55 Q-66.55 63.3 -121.3 54.9 L-124.85 85.45 Q-73.45 91.75 -10.25 95.25 M-127.35 53.95 L-127.45 54.5 M-122.6 21.95 L-127.35 53.95 -121.3 54.9 M-256.0 84.6 L-257.95 84.1 Q-259.35 83.7 -260.1 82.45 -260.8 81.15 -260.4 79.8 -260.05 78.4 -258.75 77.65 L-258.0 77.35 -263.4 57.25 M-262.85 56.7 Q-210.1 74.95 -124.85 85.45 M10.25 56.5 L-5.2 56.15 M-14.65 0.35 L-6.65 -145.45" fill="none" stroke="#000000" stroke-linecap="round" stroke-linejoin="round" stroke-width="0.05"/>
    <path d="M223.6 120.05 L228.5 121.0 Q240.9 124.15 245.0 133.75 M223.6 120.05 L223.55 120.1 224.7 139.75 M198.95 139.75 Q200.0 136.95 201.9 133.8 L201.95 133.75 Q203.9 130.4 206.8 126.7 L188.0 133.75" fill="none" stroke="#330000" stroke-linecap="round" stroke-linejoin="round" stroke-width="0.05"/>
    <path d="M35.65 49.55 L35.65 51.0" fill="none" stroke="#999999" stroke-linecap="round" stroke-linejoin="round" stroke-width="0.05"/>
    <path d="M35.65 51.0 L35.65 61.65" fill="none" stroke="#888888" stroke-linecap="round" stroke-linejoin="round" stroke-width="0.05"/>
    <path d="M-26.7 -161.6 L-2.35 -175.35 M-28.2 -160.8 L-26.7 -161.6 M-30.25 -126.95 L-33.5 -124.3 M-28.8 -141.45 L-13.5 -140.9 -6.35 -146.85 M-28.8 -141.45 L-30.85 -141.55 M-30.25 -126.95 L-27.0 -129.7 -13.5 -140.9 M-24.95 -98.45 L-27.0 -129.7 M-24.95 -98.4 L-24.95 -98.45" fill="none" stroke="#000000" stroke-linecap="round" stroke-linejoin="round" stroke-width="2.0"/>
    <path d="M-33.55 -99.55 L-37.6 -12.45" fill="none" stroke="#e8910f" stroke-linecap="round" stroke-linejoin="round" stroke-width="2.0"/>
    <path d="M255.9 88.3 Q150.8 110.0 45.65 112.8 -117.05 114.8 -256.1 76.35 -257.1 76.05 -258.0 76.35" fill="none" stroke="#626262" stroke-linecap="round" stroke-linejoin="round" stroke-width="2.0"/>
    <path d="M245.0 133.75 L245.25 135.1 Q248.5 157.45 225.7 159.25 L51.85 167.15 Q113.75 158.2 173.4 138.45 L188.0 133.75 M224.7 139.75 L224.7 151.3 203.45 151.3 Q196.85 147.1 198.95 139.75 M201.9 133.8 L201.95 133.75" fill="none" stroke="#330000" stroke-linecap="round" stroke-linejoin="round" stroke-width="0.05"/>
  </g>
  <defs>
    <linearGradient gradientTransform="matrix(0.0, -0.0313, 0.2794, 0.0, -15.65, 149.8)" gradientUnits="userSpaceOnUse" id="gradient0" spreadMethod="pad" x1="-819.2" x2="819.2">
      <stop offset="0.0" stop-color="#5c1301"/>
      <stop offset="0.5098039215686274" stop-color="#a92201"/>
    </linearGradient>
    <linearGradient gradientTransform="matrix(0.0603, 0.0, 0.0, 0.0273, -86.6, 15.0)" gradientUnits="userSpaceOnUse" id="gradient1" spreadMethod="pad" x1="-819.2" x2="819.2">
      <stop offset="0.0" stop-color="#999999"/>
      <stop offset="0.33725490196078434" stop-color="#ffffff"/>
    </linearGradient>
    <linearGradient gradientTransform="matrix(0.0746, 0.0, 0.0, 0.0266, -81.6, 41.55)" gradientUnits="userSpaceOnUse" id="gradient2" spreadMethod="pad" x1="-819.2" x2="819.2">
      <stop offset="0.0" stop-color="#999999"/>
      <stop offset="0.33725490196078434" stop-color="#ffffff"/>
    </linearGradient>
    <linearGradient gradientTransform="matrix(0.0699, 0.0, 0.0, 0.0246, -67.55, 75.05)" gradientUnits="userSpaceOnUse" id="gradient3" spreadMethod="pad" x1="-819.2" x2="819.2">
      <stop offset="0.0" stop-color="#a73403"/>
      <stop offset="0.33725490196078434" stop-color="#d34e01"/>
    </linearGradient>
    <linearGradient gradientTransform="matrix(0.1968, 0.0501, -0.0206, 0.081, -138.05, 27.6)" gradientUnits="userSpaceOnUse" id="gradient4" spreadMethod="pad" x1="-819.2" x2="819.2">
      <stop offset="0.0" stop-color="#2b2b2b"/>
      <stop offset="0.788235294117647" stop-color="#515151"/>
    </linearGradient>
    <linearGradient gradientTransform="matrix(0.1968, 0.0501, -0.0206, 0.081, -138.05, 27.6)" gradientUnits="userSpaceOnUse" id="gradient5" spreadMethod="pad" x1="-819.2" x2="819.2">
      <stop offset="0.0" stop-color="#1a1a1a"/>
      <stop offset="0.788235294117647" stop-color="#484848"/>
    </linearGradient>
    <linearGradient gradientTransform="matrix(0.0, -0.0313, 0.2794, 0.0, -15.65, 143.8)" gradientUnits="userSpaceOnUse" id="gradient6" spreadMethod="pad" x1="-819.2" x2="819.2">
      <stop offset="0.0" stop-color="#5c1301"/>
      <stop offset="0.5098039215686274" stop-color="#a92201"/>
    </linearGradient>
    <linearGradient gradientTransform="matrix(0.1968, 0.0501, -0.0206, 0.081, -138.05, 21.6)" gradientUnits="userSpaceOnUse" id="gradient7" spreadMethod="pad" x1="-819.2" x2="819.2">
      <stop offset="0.0" stop-color="#1a1a1a"/>
      <stop offset="0.788235294117647" stop-color="#484848"/>
    </linearGradient>
    <linearGradient gradientTransform="matrix(0.0, -0.0313, 0.2794, 0.0, -15.65, 149.8)" gradientUnits="userSpaceOnUse" id="gradient8" spreadMethod="pad" x1="-819.2" x2="819.2">
      <stop offset="0.0" stop-color="#5c1301"/>
      <stop offset="0.5098039215686274" stop-color="#a92201"/>
    </linearGradient>
    <linearGradient gradientTransform="matrix(0.0603, 0.0, 0.0, 0.0273, -86.6, 15.0)" gradientUnits="userSpaceOnUse" id="gradient9" spreadMethod="pad" x1="-819.2" x2="819.2">
      <stop offset="0.0" stop-color="#999999"/>
      <stop offset="0.33725490196078434" stop-color="#ffffff"/>
    </linearGradient>
    <linearGradient gradientTransform="matrix(0.0746, 0.0, 0.0, 0.0266, -81.6, 41.55)" gradientUnits="userSpaceOnUse" id="gradient10" spreadMethod="pad" x1="-819.2" x2="819.2">
      <stop offset="0.0" stop-color="#999999"/>
      <stop offset="0.33725490196078434" stop-color="#ffffff"/>
    </linearGradient>
    <linearGradient gradientTransform="matrix(0.0699, 0.0, 0.0, 0.0246, -67.55, 75.05)" gradientUnits="userSpaceOnUse" id="gradient11" spreadMethod="pad" x1="-819.2" x2="819.2">
      <stop offset="0.0" stop-color="#a73403"/>
      <stop offset="0.33725490196078434" stop-color="#d34e01"/>
    </linearGradient>
    <linearGradient gradientTransform="matrix(0.1968, 0.0501, -0.0206, 0.081, -138.05, 27.6)" gradientUnits="userSpaceOnUse" id="gradient12" spreadMethod="pad" x1="-819.2" x2="819.2">
      <stop offset="0.0" stop-color="#2b2b2b"/>
      <stop offset="0.788235294117647" stop-color="#515151"/>
    </linearGradient>
    <linearGradient gradientTransform="matrix(0.1968, 0.0501, -0.0206, 0.081, -138.05, 27.6)" gradientUnits="userSpaceOnUse" id="gradient13" spreadMethod="pad" x1="-819.2" x2="819.2">
      <stop offset="0.0" stop-color="#1a1a1a"/>
      <stop offset="0.788235294117647" stop-color="#484848"/>
    </linearGradient>
    <linearGradient gradientTransform="matrix(0.0, -0.0313, 0.2794, 0.0, -15.65, 143.8)" gradientUnits="userSpaceOnUse" id="gradient14" spreadMethod="pad" x1="-819.2" x2="819.2">
      <stop offset="0.0" stop-color="#5c1301"/>
      <stop offset="0.5098039215686274" stop-color="#a92201"/>
    </linearGradient>
    <linearGradient gradientTransform="matrix(0.1968, 0.0501, -0.0206, 0.081, -138.05, 21.6)" gradientUnits="userSpaceOnUse" id="gradient15" spreadMethod="pad" x1="-819.2" x2="819.2">
      <stop offset="0.0" stop-color="#1a1a1a"/>
      <stop offset="0.788235294117647" stop-color="#484848"/>
    </linearGradient>
  </defs>
</svg>
