<?xml version="1.0" encoding="UTF-8" standalone="no"?>
<svg xmlns:ffdec="https://www.free-decompiler.com/flash" xmlns:xlink="http://www.w3.org/1999/xlink" ffdec:objectType="shape" height="37.15px" width="396.7px" xmlns="http://www.w3.org/2000/svg">
  <g transform="matrix(1.0, 0.0, 0.0, 1.0, 214.65, 12.15)">
    <path d="M-214.4 17.5 Q-205.05 15.9 -206.6 11.35 -208.5 5.9 -206.9 4.9 -205.35 3.85 -201.35 4.1 -197.35 4.35 -192.05 6.5 L-180.65 10.95 Q-176.5 12.55 -173.25 13.15 L-170.45 13.5 Q-166.35 13.7 -167.45 10.3 L-168.8 5.2 Q-169.1 3.4 -164.0 3.05 -158.9 2.7 -144.25 7.75 -132.05 11.9 -129.65 11.9 -126.8 11.9 -125.75 11.3 -125.0 10.85 -124.7 9.85 -124.4 8.75 -123.85 8.4 -122.9 7.75 -120.3 7.75 -117.75 7.75 -109.6 10.25 -101.5 12.75 -98.45 12.75 -95.3 12.75 -94.8 11.5 L-95.7 7.05 -95.75 6.05 -95.7 4.4 Q-95.35 1.45 -89.05 1.45 -84.45 1.45 -80.25 2.95 -77.7 3.85 -73.4 6.25 -69.05 8.65 -66.5 9.6 -62.4 11.05 -56.45 11.3 -50.65 11.45 -51.65 8.65 L-51.65 8.45 -51.7 7.55 -51.7 6.8 Q-51.55 3.55 -48.0 3.55 -43.5 3.55 -38.35 5.9 L-30.5 9.3 Q-27.8 10.35 -23.5 10.9 -19.15 11.45 -17.9 10.95 -16.45 10.45 -16.25 8.4 -16.1 6.35 -20.8 3.65 -25.5 0.95 -22.65 -0.3 -19.8 -1.6 -12.5 -0.35 -5.25 0.9 6.7 6.3 17.3 11.05 21.55 11.1 24.4 11.05 25.85 10.35 L27.5 8.8 Q28.2 7.6 28.95 7.15 30.2 6.45 32.75 6.5 35.9 6.45 40.8 8.4 L49.05 11.35 Q52.35 12.4 54.55 11.65 56.75 10.9 54.95 7.2 53.1 3.55 53.35 2.65 53.9 1.0 57.3 1.0 61.45 1.0 65.85 2.75 68.5 3.75 73.4 6.5 L79.05 9.65 Q83.55 11.85 90.6 12.4 95.65 12.4 95.75 10.2 95.85 8.0 92.05 5.55 L86.75 1.7 Q85.25 0.3 86.35 -0.85 L93.5 -1.15 Q99.55 -0.25 110.2 5.45 120.8 11.1 123.0 11.55 L125.85 11.75 127.65 10.9 Q129.75 9.35 124.65 5.25 122.25 3.4 121.1 1.2 120.0 -0.95 122.95 -1.45 125.85 -1.95 133.1 0.9 142.55 3.6 149.05 10.3 154.5 14.05 156.7 13.4 158.9 12.75 158.95 9.05 159.0 5.35 155.85 -0.75 152.6 -6.85 152.6 -9.2 152.6 -11.5 154.4 -11.8 L157.2 -11.75 Q177.55 -0.15 181.8 18.6 L181.8 25.0 -214.4 23.75 -214.4 17.5" fill="url(#gradient0)" fill-rule="evenodd" stroke="none"/>
    <path d="M181.8 18.6 Q177.55 -0.15 157.2 -11.75 L154.4 -11.8 Q152.6 -11.5 152.6 -9.2 152.6 -6.85 155.85 -0.75 159.0 5.35 158.95 9.05 158.9 12.75 156.7 13.4 154.5 14.05 149.05 10.3 142.55 3.6 133.1 0.9 125.85 -1.95 122.95 -1.45 120.0 -0.95 121.1 1.2 122.25 3.4 124.65 5.25 129.75 9.35 127.65 10.9 L125.85 11.75 123.0 11.55 Q120.8 11.1 110.2 5.45 99.55 -0.25 93.5 -1.15 L86.35 -0.85 Q85.25 0.3 86.75 1.7 L92.05 5.55 Q95.85 8.0 95.75 10.2 95.65 12.4 90.6 12.4 83.55 11.85 79.05 9.65 L73.4 6.5 Q68.5 3.75 65.85 2.75 61.45 1.0 57.3 1.0 53.9 1.0 53.35 2.65 53.1 3.55 54.95 7.2 56.75 10.9 54.55 11.65 52.35 12.4 49.05 11.35 L40.8 8.4 Q35.9 6.45 32.75 6.5 30.2 6.45 28.95 7.15 28.2 7.6 27.5 8.8 L25.85 10.35 Q24.4 11.05 21.55 11.1 17.3 11.05 6.7 6.3 -5.25 0.9 -12.5 -0.35 -19.8 -1.6 -22.65 -0.3 -25.5 0.95 -20.8 3.65 -16.1 6.35 -16.25 8.4 -16.45 10.45 -17.9 10.95 -19.15 11.45 -23.5 10.9 -27.8 10.35 -30.5 9.3 L-38.35 5.9 Q-43.5 3.55 -48.0 3.55 -51.55 3.55 -51.7 6.8 L-51.7 7.55 -51.65 8.45 -51.65 8.65 Q-50.65 11.45 -56.45 11.3 -62.4 11.05 -66.5 9.6 -69.05 8.65 -73.4 6.25 -77.7 3.85 -80.25 2.95 -84.45 1.45 -89.05 1.45 -95.35 1.45 -95.7 4.4 L-95.75 6.05 -95.7 7.05 -94.8 11.5 Q-95.3 12.75 -98.45 12.75 -101.5 12.75 -109.6 10.25 -117.75 7.75 -120.3 7.75 -122.9 7.75 -123.85 8.4 -124.4 8.75 -124.7 9.85 -125.0 10.85 -125.75 11.3 -126.8 11.9 -129.65 11.9 -132.05 11.9 -144.25 7.75 -158.9 2.7 -164.0 3.05 -169.1 3.4 -168.8 5.2 L-167.45 10.3 Q-166.35 13.7 -170.45 13.5 L-173.25 13.15 Q-176.5 12.55 -180.65 10.95 L-192.05 6.5 Q-197.35 4.35 -201.35 4.1 -205.35 3.85 -206.9 4.9 -208.5 5.9 -206.6 11.35 -205.05 15.9 -214.4 17.5 M-51.7 7.55 L-51.7 8.65 -51.65 8.45 M-51.7 8.65 L-51.65 8.65" fill="none" stroke="#000000" stroke-linecap="round" stroke-linejoin="round" stroke-width="0.5"/>
  </g>
  <defs>
    <linearGradient gradientTransform="matrix(0.0, 0.0169, -0.2493, 0.0, -48.3, 13.05)" gradientUnits="userSpaceOnUse" id="gradient0" spreadMethod="pad" x1="-819.2" x2="819.2">
      <stop offset="0.6666666666666666" stop-color="#97d6f0" stop-opacity="0.8"/>
      <stop offset="0.8549019607843137" stop-color="#97d6f0" stop-opacity="0.0"/>
    </linearGradient>
  </defs>
</svg>
