<?xml version="1.0" encoding="UTF-8" standalone="no"?>
<svg xmlns:ffdec="https://www.free-decompiler.com/flash" xmlns:xlink="http://www.w3.org/1999/xlink" ffdec:objectType="shape" height="32.6px" width="403.15px" xmlns="http://www.w3.org/2000/svg">
  <g transform="matrix(1.0, 0.0, 0.0, 1.0, 223.25, 4.45)">
    <path d="M-188.75 13.45 Q-181.55 14.65 -181.85 10.2 L-182.45 3.65 Q-182.75 1.55 -178.0 1.15 -173.3 0.7 -159.8 6.65 -148.5 11.5 -146.3 11.5 -143.7 11.5 -142.7 10.75 -142.05 10.25 -141.75 9.05 -141.45 7.8 -140.95 7.4 -140.05 6.6 -137.65 6.6 -135.3 6.6 -127.75 9.55 -120.3 12.5 -117.45 12.5 -114.55 12.5 -114.15 11.05 L-114.95 5.85 -115.0 4.6 -114.95 2.7 Q-114.65 -0.75 -108.8 -0.75 -104.6 -0.75 -100.7 1.05 -98.35 2.05 -94.35 4.9 L-88.0 8.8 Q-84.2 10.55 -78.7 10.8 -73.35 11.0 -74.3 7.75 L-74.3 7.5 -74.35 6.45 -74.35 5.5 Q-74.2 1.7 -70.9 1.7 -66.75 1.7 -62.0 4.45 L-54.75 8.45 Q-52.25 9.7 -48.25 10.35 -44.3 11.0 -43.1 10.45 -41.8 9.8 -41.6 7.45 -41.45 5.0 -45.75 1.85 -50.1 -1.3 -47.45 -2.8 -44.85 -4.35 -38.15 -2.85 -31.4 -1.35 -20.4 4.95 -10.6 10.55 -6.65 10.55 -4.0 10.5 -2.7 9.7 -1.9 9.15 -1.2 7.85 -0.5 6.45 0.15 5.95 1.3 5.1 3.65 5.15 6.55 5.1 11.15 7.4 15.7 9.65 18.75 10.9 21.75 12.1 23.8 11.2 25.85 10.3 24.15 6.0 22.45 1.7 22.7 0.7 23.15 -1.25 26.3 -1.25 30.15 -1.25 34.2 0.75 36.7 1.95 41.2 5.15 L46.45 8.85 Q50.55 11.45 57.1 12.1 61.75 12.1 61.85 9.55 61.95 6.95 58.45 4.05 54.95 1.15 53.55 -0.45 52.15 -2.05 53.2 -3.45 54.2 -4.8 58.4 -3.75 62.6 -2.7 72.45 3.95 82.3 10.6 84.7 11.1 L88.65 11.35 Q90.2 11.05 91.3 10.35 93.2 8.5 88.5 3.65 86.3 1.5 85.3 -1.0 84.25 -3.6 86.95 -4.15 89.65 -4.75 100.6 1.3 L106.85 4.75 Q114.25 9.9 123.6 12.4 L124.1 12.5 Q128.1 13.25 128.3 8.4 128.5 3.55 132.0 4.65 134.65 5.45 137.6 8.0 L141.7 11.3 141.9 11.45 142.45 11.95 141.9 11.45 142.75 12.15 142.45 11.95 144.45 13.5 144.55 13.55 Q147.25 14.85 150.35 14.25 153.45 13.65 154.15 12.0 154.85 10.3 154.9 8.6 154.95 6.8 153.7 4.4 152.35 1.95 151.75 -0.05 151.15 -2.1 152.25 -2.6 L156.45 -3.15 Q159.55 -3.25 168.8 5.1 176.5 12.1 179.65 21.3 L179.65 25.0 -179.15 26.25 -222.75 28.15 -223.0 16.6 Q-217.1 16.75 -219.1 11.15 -221.3 4.95 -219.85 3.7 -218.4 2.5 -214.7 2.8 -211.0 3.1 -206.15 5.6 L-195.6 10.8 Q-191.75 12.7 -188.75 13.4 L-188.75 13.45 M138.35 20.55 L140.5 20.75 140.5 20.55 138.35 20.55" fill="url(#gradient0)" fill-rule="evenodd" stroke="none"/>
    <path d="M141.9 11.45 L141.7 11.3 137.6 8.0 Q134.65 5.45 132.0 4.65 128.5 3.55 128.3 8.4 128.1 13.25 124.1 12.5 L123.6 12.4 Q114.25 9.9 106.85 4.75 L100.6 1.3 Q89.65 -4.75 86.95 -4.15 84.25 -3.6 85.3 -1.0 86.3 1.5 88.5 3.65 93.2 8.5 91.3 10.35 90.2 11.05 88.65 11.35 L84.7 11.1 Q82.3 10.6 72.45 3.95 62.6 -2.7 58.4 -3.75 54.2 -4.8 53.2 -3.45 52.15 -2.05 53.55 -0.45 54.95 1.15 58.45 4.05 61.95 6.95 61.85 9.55 61.75 12.1 57.1 12.1 50.55 11.45 46.45 8.85 L41.2 5.15 Q36.7 1.95 34.2 0.75 30.15 -1.25 26.3 -1.25 23.15 -1.25 22.7 0.7 22.45 1.7 24.15 6.0 25.85 10.3 23.8 11.2 21.75 12.1 18.75 10.9 15.7 9.65 11.15 7.4 6.55 5.1 3.65 5.15 1.3 5.1 0.15 5.95 -0.5 6.45 -1.2 7.85 -1.9 9.15 -2.7 9.7 -4.0 10.5 -6.65 10.55 -10.6 10.55 -20.4 4.95 -31.4 -1.35 -38.15 -2.85 -44.85 -4.35 -47.45 -2.8 -50.1 -1.3 -45.75 1.85 -41.45 5.0 -41.6 7.45 -41.8 9.8 -43.1 10.45 -44.3 11.0 -48.25 10.35 -52.25 9.7 -54.75 8.45 L-62.0 4.45 Q-66.75 1.7 -70.9 1.7 -74.2 1.7 -74.35 5.5 L-74.35 6.45 -74.3 7.5 -74.3 7.75 Q-73.35 11.0 -78.7 10.8 -84.2 10.55 -88.0 8.8 L-94.35 4.9 Q-98.35 2.05 -100.7 1.05 -104.6 -0.75 -108.8 -0.75 -114.65 -0.75 -114.95 2.7 L-115.0 4.6 -114.95 5.85 -114.15 11.05 Q-114.55 12.5 -117.45 12.5 -120.3 12.5 -127.75 9.55 -135.3 6.6 -137.65 6.6 -140.05 6.6 -140.95 7.4 -141.45 7.8 -141.75 9.05 -142.05 10.25 -142.7 10.75 -143.7 11.5 -146.3 11.5 -148.5 11.5 -159.8 6.65 -173.3 0.7 -178.0 1.15 -182.75 1.55 -182.45 3.65 L-181.85 10.2 Q-181.55 14.65 -188.75 13.45 M-188.75 13.4 Q-191.75 12.7 -195.6 10.8 L-206.15 5.6 Q-211.0 3.1 -214.7 2.8 -218.4 2.5 -219.85 3.7 -221.3 4.95 -219.1 11.15 -217.1 16.75 -223.0 16.6 M141.9 11.45 L142.75 12.15 M-74.35 6.45 L-74.3 7.7 -74.3 7.5 M-74.3 7.7 L-74.3 7.75" fill="none" stroke="#000000" stroke-linecap="round" stroke-linejoin="round" stroke-width="0.5"/>
    <path d="M179.65 21.3 Q176.5 12.1 168.8 5.1 159.55 -3.25 156.45 -3.15 L152.25 -2.6 Q151.15 -2.1 151.75 -0.05 152.35 1.95 153.7 4.4 154.95 6.8 154.9 8.6 154.85 10.3 154.15 12.0 153.45 13.65 150.35 14.25 147.25 14.85 144.55 13.55 L144.45 13.5 142.45 11.95 141.9 11.45" fill="none" stroke="#000000" stroke-linecap="round" stroke-linejoin="round" stroke-width="0.5"/>
  </g>
  <defs>
    <linearGradient gradientTransform="matrix(0.0, 0.0199, -0.2302, 0.0, 306.0, 10.75)" gradientUnits="userSpaceOnUse" id="gradient0" spreadMethod="pad" x1="-819.2" x2="819.2">
      <stop offset="0.6666666666666666" stop-color="#97d6f0" stop-opacity="0.8"/>
      <stop offset="0.8549019607843137" stop-color="#97d6f0" stop-opacity="0.0"/>
    </linearGradient>
  </defs>
</svg>
