<?xml version="1.0" encoding="UTF-8" standalone="no"?>
<svg xmlns:ffdec="https://www.free-decompiler.com/flash" xmlns:xlink="http://www.w3.org/1999/xlink" ffdec:objectType="shape" height="31.5px" width="413.5px" xmlns="http://www.w3.org/2000/svg">
  <g transform="matrix(1.0, 0.0, 0.0, 1.0, 226.3, 7.5)">
    <path d="M-226.05 11.25 L-223.85 11.3 Q-214.8 11.45 -215.8 7.3 L-217.05 1.0 Q-217.35 -1.2 -212.55 -1.65 -207.75 -2.05 -194.0 4.15 -182.55 9.25 -180.3 9.25 L-179.5 9.25 Q-177.5 9.15 -176.65 8.5 -175.95 7.95 -175.65 6.7 -175.4 5.35 -174.9 4.9 -174.0 4.1 -171.55 4.1 -169.15 4.1 -161.45 7.2 -153.85 10.25 -151.0 10.3 -148.05 10.3 -147.6 8.75 L-148.45 3.3 -148.5 2.0 -148.45 0.0 Q-148.15 -3.6 -142.2 -3.6 -137.9 -3.6 -133.95 -1.75 -131.6 -0.65 -127.5 2.3 L-121.05 6.4 Q-117.2 8.25 -111.6 8.5 -106.15 8.7 -107.15 5.3 L-107.15 5.0 -107.2 3.9 -107.2 2.95 Q-107.0 -1.05 -103.7 -1.0 -99.45 -1.05 -94.65 1.85 L-87.3 6.05 Q-84.75 7.35 -80.65 8.1 -76.6 8.75 -75.45 8.1 -74.1 7.45 -73.9 4.95 -73.75 2.45 -78.1 -0.85 -82.5 -4.15 -79.85 -5.8 -77.25 -7.4 -70.4 -5.85 -63.55 -4.25 -52.35 2.35 -42.4 8.25 -38.4 8.25 -35.7 8.25 -34.4 7.35 -33.55 6.8 -32.85 5.4 -32.15 3.95 -31.45 3.45 -30.3 2.55 -27.9 2.6 -24.95 2.55 -20.3 4.9 L-12.6 8.6 Q-9.5 9.9 -7.4 8.95 -5.35 8.0 -7.1 3.45 -8.85 -1.05 -8.55 -2.1 -8.05 -4.15 -4.85 -4.15 -0.95 -4.15 3.15 -2.05 5.65 -0.8 10.25 2.6 L15.55 6.5 Q19.8 9.2 26.4 9.85 31.15 9.85 31.25 7.2 31.35 4.5 27.8 1.45 24.2 -1.65 22.8 -3.3 21.35 -5.0 22.4 -6.45 23.45 -7.9 27.75 -6.75 32.0 -5.65 42.05 1.35 52.0 8.3 54.5 8.85 L58.5 9.1 61.15 8.05 Q63.15 6.1 58.35 1.0 56.1 -1.2 55.05 -3.9 54.0 -6.6 56.75 -7.2 59.45 -7.85 70.6 -1.5 L77.0 2.15 Q84.5 7.6 94.0 10.2 L94.55 10.3 Q97.5 8.5 96.0 5.6 93.75 1.2 98.45 0.5 103.15 -0.2 109.55 3.4 115.9 6.9 122.55 9.45 129.2 12.0 131.15 10.65 132.8 7.95 130.95 3.85 129.1 -0.2 130.25 -1.15 L134.5 -1.4 Q136.1 -1.0 138.75 0.5 141.4 1.95 144.7 5.3 150.1 11.3 155.05 12.85 159.95 14.4 161.3 11.2 162.6 7.95 160.4 4.05 158.2 0.2 163.05 -0.35 167.95 -0.85 176.05 4.9 184.1 10.6 186.95 15.9 L187.15 16.3 187.15 24.0 148.65 24.0 148.65 14.85 148.55 14.85 148.55 23.85 -226.25 23.85 -226.05 11.25" fill="url(#gradient0)" fill-rule="evenodd" stroke="none"/>
    <path d="M186.95 15.9 Q184.1 10.6 176.05 4.9 167.95 -0.85 163.05 -0.35 158.2 0.2 160.4 4.05 162.6 7.95 161.3 11.2 159.95 14.4 155.05 12.85 150.1 11.3 144.7 5.3 141.4 1.95 138.75 0.5 136.1 -1.0 134.5 -1.4 L130.25 -1.15 Q129.1 -0.2 130.95 3.85 132.8 7.95 131.15 10.65 129.2 12.0 122.55 9.45 115.9 6.9 109.55 3.4 103.15 -0.2 98.45 0.5 93.75 1.2 96.0 5.6 97.5 8.5 94.55 10.3 L94.0 10.2 Q84.5 7.6 77.0 2.15 L70.6 -1.5 Q59.45 -7.85 56.75 -7.2 54.0 -6.6 55.05 -3.9 56.1 -1.2 58.35 1.0 63.15 6.1 61.15 8.05 L58.5 9.1 54.5 8.85 Q52.0 8.3 42.05 1.35 32.0 -5.65 27.75 -6.75 23.45 -7.9 22.4 -6.45 21.35 -5.0 22.8 -3.3 24.2 -1.65 27.8 1.45 31.35 4.5 31.25 7.2 31.15 9.85 26.4 9.85 19.8 9.2 15.55 6.5 L10.25 2.6 Q5.65 -0.8 3.15 -2.05 -0.95 -4.15 -4.85 -4.15 -8.05 -4.15 -8.55 -2.1 -8.85 -1.05 -7.1 3.45 -5.35 8.0 -7.4 8.95 -9.5 9.9 -12.6 8.6 L-20.3 4.9 Q-24.95 2.55 -27.9 2.6 -30.3 2.55 -31.45 3.45 -32.15 3.95 -32.85 5.4 -33.55 6.8 -34.4 7.35 -35.7 8.25 -38.4 8.25 -42.4 8.25 -52.35 2.35 -63.55 -4.25 -70.4 -5.85 -77.25 -7.4 -79.85 -5.8 -82.5 -4.15 -78.1 -0.85 -73.75 2.45 -73.9 4.95 -74.1 7.45 -75.45 8.1 -76.6 8.75 -80.65 8.1 -84.75 7.35 -87.3 6.05 L-94.65 1.85 Q-99.45 -1.05 -103.7 -1.0 -107.0 -1.05 -107.2 2.95 L-107.2 3.9 -107.15 5.0 -107.15 5.3 Q-106.15 8.7 -111.6 8.5 -117.2 8.25 -121.05 6.4 L-127.5 2.3 Q-131.6 -0.65 -133.95 -1.75 -137.9 -3.6 -142.2 -3.6 -148.15 -3.6 -148.45 0.0 L-148.5 2.0 -148.45 3.3 -147.6 8.75 Q-148.05 10.3 -151.0 10.3 -153.85 10.25 -161.45 7.2 -169.15 4.1 -171.55 4.1 -174.0 4.1 -174.9 4.9 -175.4 5.35 -175.65 6.7 -175.95 7.95 -176.65 8.5 -177.5 9.15 -179.5 9.25 L-180.3 9.25 Q-182.55 9.25 -194.0 4.15 -207.75 -2.05 -212.55 -1.65 -217.35 -1.2 -217.05 1.0 L-215.8 7.3 Q-214.8 11.45 -223.85 11.3 L-226.05 11.25 M-107.15 5.0 L-107.15 5.25 -107.15 5.3 M-107.2 3.9 L-107.15 5.25" fill="none" stroke="#000000" stroke-linecap="round" stroke-linejoin="round" stroke-width="0.5"/>
  </g>
  <defs>
    <linearGradient gradientTransform="matrix(0.0, 0.0209, -0.234, 0.0, 279.4, 8.5)" gradientUnits="userSpaceOnUse" id="gradient0" spreadMethod="pad" x1="-819.2" x2="819.2">
      <stop offset="0.6666666666666666" stop-color="#97d6f0" stop-opacity="0.8"/>
      <stop offset="0.8549019607843137" stop-color="#97d6f0" stop-opacity="0.0"/>
    </linearGradient>
  </defs>
</svg>
