<?xml version="1.0" encoding="UTF-8" standalone="no"?>
<svg xmlns:ffdec="https://www.free-decompiler.com/flash" xmlns:xlink="http://www.w3.org/1999/xlink" ffdec:objectType="shape" height="28.6px" width="406.9px" xmlns="http://www.w3.org/2000/svg">
  <g transform="matrix(1.0, 0.0, 0.0, 1.0, 226.1, 4.85)">
    <path d="M-225.85 14.3 Q-220.0 14.25 -218.05 13.25 -216.15 12.25 -216.65 10.8 L-217.7 7.55 Q-218.25 5.8 -214.95 4.75 -211.65 3.7 -203.85 6.15 -196.1 8.55 -193.2 9.65 L-183.65 13.25 Q-177.05 15.7 -179.45 9.8 -181.8 3.85 -180.25 2.7 -178.7 1.55 -174.7 1.85 -170.7 2.15 -165.4 4.5 L-154.05 9.45 Q-149.9 11.25 -146.65 11.95 L-143.9 12.3 Q-139.85 12.5 -140.9 8.75 L-142.25 3.05 Q-142.55 1.05 -137.45 0.65 -132.35 0.25 -117.75 5.9 -105.55 10.5 -103.2 10.55 -100.35 10.55 -99.3 9.85 -98.55 9.35 -98.25 8.2 -97.95 7.0 -97.4 6.6 -96.45 5.85 -93.85 5.85 -91.35 5.85 -83.2 8.7 -75.1 11.45 -72.05 11.45 -68.9 11.45 -68.45 10.05 L-69.3 5.1 -69.4 3.95 -69.35 2.15 Q-69.0 -1.15 -62.7 -1.15 -58.15 -1.15 -53.95 0.55 -51.4 1.55 -47.1 4.25 -42.75 6.9 -40.25 7.95 -36.15 9.6 -30.2 9.85 -24.4 10.05 -25.4 6.95 L-25.45 5.7 -25.45 4.85 Q-25.3 1.2 -21.8 1.2 -17.3 1.2 -12.15 3.8 -7.05 6.4 -4.35 7.6 -1.65 8.8 2.7 9.45 7.0 10.05 8.25 9.5 9.65 8.9 9.85 6.65 10.05 4.35 5.4 1.35 0.7 -1.65 3.55 -3.1 6.35 -4.55 13.6 -3.1 20.85 -1.7 32.75 4.25 43.35 9.6 47.6 9.6 50.45 9.6 51.85 8.8 52.75 8.3 53.5 7.05 54.25 5.7 54.95 5.25 56.2 4.45 58.75 4.45 61.9 4.45 66.8 6.6 71.7 8.75 75.05 9.95 78.3 11.1 80.5 10.25 82.7 9.4 80.9 5.3 79.05 1.2 79.3 0.25 79.85 -1.6 83.25 -1.6 87.4 -1.6 91.75 0.3 94.4 1.45 99.3 4.45 L104.9 8.0 Q109.4 10.5 116.45 11.1 121.5 11.05 121.6 8.65 121.7 6.2 117.9 3.45 L112.6 -0.85 Q111.1 -2.4 112.25 -3.7 113.3 -5.0 117.85 -4.0 122.4 -3.0 133.05 3.35 143.65 9.65 146.25 10.15 L150.55 10.35 153.4 9.4 Q155.5 7.7 150.4 3.1 148.0 1.05 146.9 -1.4 145.75 -3.85 148.7 -4.4 151.6 -4.95 154.85 -3.9 173.25 3.25 178.65 14.65 L180.8 13.0 180.8 23.75 -225.85 23.75 -225.85 14.3" fill="url(#gradient0)" fill-rule="evenodd" stroke="none"/>
    <path d="M178.65 14.65 Q173.25 3.25 154.85 -3.9 151.6 -4.95 148.7 -4.4 145.75 -3.85 146.9 -1.4 148.0 1.05 150.4 3.1 155.5 7.7 153.4 9.4 L150.55 10.35 146.25 10.15 Q143.65 9.65 133.05 3.35 122.4 -3.0 117.85 -4.0 113.3 -5.0 112.25 -3.7 111.1 -2.4 112.6 -0.85 L117.9 3.45 Q121.7 6.2 121.6 8.65 121.5 11.05 116.45 11.1 109.4 10.5 104.9 8.0 L99.3 4.45 Q94.4 1.45 91.75 0.3 87.4 -1.6 83.25 -1.6 79.85 -1.6 79.3 0.25 79.05 1.2 80.9 5.3 82.7 9.4 80.5 10.25 78.3 11.1 75.05 9.95 71.7 8.75 66.8 6.6 61.9 4.45 58.75 4.45 56.2 4.45 54.95 5.25 54.25 5.7 53.5 7.05 52.75 8.3 51.85 8.8 50.45 9.6 47.6 9.6 43.35 9.6 32.75 4.25 20.85 -1.7 13.6 -3.1 6.35 -4.55 3.55 -3.1 0.7 -1.65 5.4 1.35 10.05 4.35 9.85 6.65 9.65 8.9 8.25 9.5 7.0 10.05 2.7 9.45 -1.65 8.8 -4.35 7.6 -7.05 6.4 -12.15 3.8 -17.3 1.2 -21.8 1.2 -25.3 1.2 -25.45 4.85 L-25.45 5.7 -25.4 6.95 Q-24.4 10.05 -30.2 9.85 -36.15 9.6 -40.25 7.95 -42.75 6.9 -47.1 4.25 -51.4 1.55 -53.95 0.55 -58.15 -1.15 -62.7 -1.15 -69.0 -1.15 -69.35 2.15 L-69.4 3.95 -69.3 5.1 -68.45 10.05 Q-68.9 11.45 -72.05 11.45 -75.1 11.45 -83.2 8.7 -91.35 5.85 -93.85 5.85 -96.45 5.85 -97.4 6.6 -97.95 7.0 -98.25 8.2 -98.55 9.35 -99.3 9.85 -100.35 10.55 -103.2 10.55 -105.55 10.5 -117.75 5.9 -132.35 0.25 -137.45 0.65 -142.55 1.05 -142.25 3.05 L-140.9 8.75 Q-139.85 12.5 -143.9 12.3 L-146.65 11.95 Q-149.9 11.25 -154.05 9.45 L-165.4 4.5 Q-170.7 2.15 -174.7 1.85 -178.7 1.55 -180.25 2.7 -181.8 3.85 -179.45 9.8 -177.05 15.7 -183.65 13.25 L-193.2 9.65 Q-196.1 8.55 -203.85 6.15 -211.65 3.7 -214.95 4.75 -218.25 5.8 -217.7 7.55 L-216.65 10.8 Q-216.15 12.25 -218.05 13.25 -220.0 14.25 -225.85 14.3 M-31.8 5.7 L-31.8 6.9" fill="none" stroke="#000000" stroke-linecap="round" stroke-linejoin="round" stroke-width="0.5"/>
  </g>
  <defs>
    <linearGradient gradientTransform="matrix(0.0, 0.0189, -0.2486, 0.0, -22.05, 11.8)" gradientUnits="userSpaceOnUse" id="gradient0" spreadMethod="pad" x1="-819.2" x2="819.2">
      <stop offset="0.6666666666666666" stop-color="#97d6f0" stop-opacity="0.8"/>
      <stop offset="0.8549019607843137" stop-color="#97d6f0" stop-opacity="0.0"/>
    </linearGradient>
  </defs>
</svg>
