<?xml version="1.0" encoding="UTF-8" standalone="no"?>
<svg xmlns:ffdec="https://www.free-decompiler.com/flash" xmlns:xlink="http://www.w3.org/1999/xlink" ffdec:objectType="shape" height="12.0px" width="12.0px" xmlns="http://www.w3.org/2000/svg">
  <g transform="matrix(1.0, 0.0, 0.0, 1.0, 6.0, 6.0)">
    <path d="M0.0 -6.0 Q2.45 -6.0 4.2 -4.2 6.0 -2.45 6.0 0.0 6.0 2.45 4.2 4.2 2.45 6.0 0.0 6.0 -2.5 6.0 -4.3 4.2 -6.05 2.45 -6.0 0.0 -6.05 -2.45 -4.3 -4.2 -2.5 -6.0 0.0 -6.0" fill="#2c3132" fill-rule="evenodd" stroke="none"/>
    <path d="M0.0 -6.0 Q2.45 -6.0 4.2 -4.2 6.0 -2.45 6.0 0.0 6.0 2.45 4.2 4.2 2.45 6.0 0.0 6.0 -2.5 6.0 -4.3 4.2 -6.05 2.45 -6.0 0.0 -6.05 -2.45 -4.3 -4.2 -2.5 -6.0 0.0 -6.0 Z" fill="none" stroke="#000000" stroke-linecap="round" stroke-linejoin="round" stroke-width="0.05"/>
  </g>
</svg>
