<?xml version="1.0" encoding="UTF-8" standalone="no"?>
<svg xmlns:ffdec="https://www.free-decompiler.com/flash" xmlns:xlink="http://www.w3.org/1999/xlink" ffdec:objectType="shape" height="111.55px" width="39.55px" xmlns="http://www.w3.org/2000/svg">
  <g transform="matrix(1.0, 0.0, 0.0, 1.0, 106.05, 60.65)">
    <path d="M-67.9 -60.65 L-66.85 -60.65 -66.85 -57.35 -67.9 -60.65" fill="#acb6b9" fill-rule="evenodd" stroke="none"/>
    <path d="M-71.7 -15.45 L-72.35 21.3 -78.45 21.3 -78.45 -15.45 -71.7 -15.45" fill="#c8c8c8" fill-rule="evenodd" stroke="none"/>
    <path d="M-78.45 -15.45 L-82.3 -15.45 -82.3 -35.6 -82.3 -60.65 -67.9 -60.65 -66.85 -57.35 -66.85 -35.6 -66.85 -15.45 -71.3 -15.45 -71.7 -15.45 -78.45 -15.45 M-66.85 -35.6 L-82.3 -35.6 -66.85 -35.6" fill="#dddddd" fill-rule="evenodd" stroke="none"/>
    <path d="M-78.45 -15.45 L-82.3 -15.45 -82.3 -35.6 -82.3 -60.65 M-66.85 -57.35 L-66.85 -35.6 -66.85 -15.45 -71.3 -15.45 -71.3 21.3 M-67.9 -60.65 L-66.85 -57.35 M-71.3 -15.45 L-71.7 -15.45 -78.45 -15.45 -78.45 21.3 -79.5 21.3 M-72.35 21.3 L-78.45 21.3 M-82.3 -35.6 L-66.85 -35.6" fill="none" stroke="#000000" stroke-linecap="round" stroke-linejoin="round" stroke-width="0.05"/>
    <path d="M-78.35 48.05 L-74.2 50.8 Q-76.85 50.3 -78.35 48.05 M-94.2 1.4 L-98.3 -1.3 Q-95.7 -0.8 -94.2 1.4" fill="#acb6b9" fill-rule="evenodd" stroke="none"/>
    <path d="M-66.6 45.65 L-67.6 40.8 Q-66.1 43.0 -66.6 45.65" fill="#58566a" fill-rule="evenodd" stroke="none"/>
    <path d="M-78.35 48.05 L-104.9 8.7 Q-106.45 6.45 -105.95 3.85 -105.45 1.2 -103.2 -0.3 -100.95 -1.85 -98.3 -1.3 L-94.2 1.4 -67.6 40.8 -66.6 45.65 Q-67.1 48.25 -69.35 49.8 -71.6 51.3 -74.2 50.8 L-78.35 48.05" fill="#eeeeee" fill-rule="evenodd" stroke="none"/>
    <path d="M-98.3 -1.3 Q-100.95 -1.85 -103.2 -0.3 -105.45 1.2 -105.95 3.85 -106.45 6.45 -104.9 8.7 L-78.35 48.05 Q-76.85 50.3 -74.2 50.8 -71.6 51.3 -69.35 49.8 -67.1 48.25 -66.6 45.65 -66.1 43.0 -67.6 40.8 L-94.2 1.4 Q-95.7 -0.8 -98.3 -1.3 Z" fill="none" stroke="#000000" stroke-linecap="round" stroke-linejoin="round" stroke-width="0.05"/>
    <path d="M-96.75 9.55 L-94.0 5.9 Q-94.65 8.25 -96.75 9.55" fill="#acb6b9" fill-rule="evenodd" stroke="none"/>
    <path d="M-89.6 -60.55 L-77.2 -60.55 -94.0 5.9 -96.75 9.55 Q-98.9 10.85 -101.3 10.25 -103.7 9.6 -105.0 7.5 -106.3 5.35 -105.65 2.95 L-89.6 -60.55" fill="#eeeeee" fill-rule="evenodd" stroke="none"/>
    <path d="M-89.6 -60.55 L-105.65 2.95 Q-106.3 5.35 -105.0 7.5 -103.7 9.6 -101.3 10.25 -98.9 10.85 -96.75 9.55 -94.65 8.25 -94.0 5.9 L-77.2 -60.55" fill="none" stroke="#000000" stroke-linecap="round" stroke-linejoin="round" stroke-width="0.05"/>
  </g>
</svg>
