<?xml version="1.0" encoding="UTF-8" standalone="no"?>
<svg xmlns:ffdec="https://www.free-decompiler.com/flash" xmlns:xlink="http://www.w3.org/1999/xlink" ffdec:objectType="shape" height="32.1px" width="28.05px" xmlns="http://www.w3.org/2000/svg">
  <g transform="matrix(1.0, 0.0, 0.0, 1.0, 14.0, 16.05)">
    <path d="M7.2 15.3 L7.2 10.05 7.2 15.3 -7.15 15.3 -13.15 15.3 Q-13.5 11.25 -12.7 8.5 -12.5 7.7 -11.85 7.0 L10.05 7.0 11.65 7.0 Q12.45 7.8 12.6 8.6 13.05 10.7 13.3 15.3 L7.2 15.3 M10.5 7.25 L10.05 7.0 10.5 7.25 M-6.95 10.05 L-7.15 15.3 -6.95 10.05" fill="#5f7efe" fill-rule="evenodd" stroke="none"/>
    <path d="M7.2 10.05 L7.2 15.3 M13.3 15.3 Q13.05 10.7 12.6 8.6 12.45 7.8 11.65 7.0 M-7.15 15.3 L-6.95 10.05 M-11.85 7.0 Q-12.5 7.7 -12.7 8.5 -13.5 11.25 -13.15 15.3" fill="none" stroke="#000000" stroke-linecap="round" stroke-linejoin="round" stroke-width="1.5"/>
    <path d="M10.05 7.0 L10.5 7.25" fill="none" stroke="#ffcc33" stroke-linecap="round" stroke-linejoin="round" stroke-width="1.5"/>
    <path d="M-4.9 -8.1 L-4.95 -8.1 Q-8.15 -9.3 -8.0 -10.7 -7.9 -12.1 -4.7 -14.2 -1.5 -16.3 3.85 -14.35 9.15 -12.45 8.7 -10.7 L8.3 -9.8 Q8.0 -9.35 6.9 -8.85 L5.95 -8.4 5.15 -8.1 5.0 -8.05 Q2.9 -10.3 0.0 -10.3 -2.85 -10.3 -4.9 -8.1" fill="#ffffff" fill-rule="evenodd" stroke="none"/>
    <path d="M5.05 -7.95 L5.1 -7.9 5.15 -7.85 6.55 -5.6 Q7.2 -4.0 7.2 -2.05 7.2 0.95 5.55 3.2 L5.45 3.35 5.1 3.75 Q3.0 6.2 0.0 6.2 -3.0 6.2 -5.1 3.75 -7.2 1.35 -7.2 -2.05 -7.2 -5.45 -5.1 -7.9 L-4.9 -8.1 Q-3.7 -7.4 -0.05 -7.35 L4.25 -7.75 5.05 -7.95 M-3.9 -3.2 Q-3.5 -2.8 -3.0 -2.8 -2.5 -2.8 -2.15 -3.2 -1.75 -3.55 -1.75 -4.05 -1.75 -4.55 -2.15 -4.95 -2.5 -5.3 -3.0 -5.3 -3.5 -5.3 -3.9 -4.95 L-4.25 -4.05 Q-4.25 -3.55 -3.9 -3.2 M4.05 -4.05 Q4.05 -4.55 3.65 -4.95 3.3 -5.3 2.8 -5.3 2.3 -5.3 1.9 -4.95 1.55 -4.55 1.55 -4.05 1.55 -3.55 1.9 -3.2 2.3 -2.8 2.8 -2.8 3.3 -2.8 3.65 -3.2 4.05 -3.55 4.05 -4.05 M-0.15 0.25 Q-1.5 0.25 -2.45 1.05 L-2.85 1.35 Q-3.5 2.0 -3.75 2.9 L-3.9 3.75 3.65 3.75 3.5 2.9 Q3.2 2.0 2.55 1.35 1.4 0.25 -0.15 0.25" fill="#ffcc99" fill-rule="evenodd" stroke="none"/>
    <path d="M-4.9 -8.1 Q-2.85 -10.3 0.0 -10.3 2.9 -10.3 5.0 -8.05 L4.25 -7.75 -0.05 -7.35 Q-3.7 -7.4 -4.9 -8.1 M4.05 -4.05 Q4.05 -3.55 3.65 -3.2 3.3 -2.8 2.8 -2.8 2.3 -2.8 1.9 -3.2 1.55 -3.55 1.55 -4.05 1.55 -4.55 1.9 -4.95 2.3 -5.3 2.8 -5.3 3.3 -5.3 3.65 -4.95 4.05 -4.55 4.05 -4.05 M-3.9 -3.2 Q-4.25 -3.55 -4.25 -4.05 L-3.9 -4.95 Q-3.5 -5.3 -3.0 -5.3 -2.5 -5.3 -2.15 -4.95 -1.75 -4.55 -1.75 -4.05 -1.75 -3.55 -2.15 -3.2 -2.5 -2.8 -3.0 -2.8 -3.5 -2.8 -3.9 -3.2 M-0.15 0.25 Q1.4 0.25 2.55 1.35 3.2 2.0 3.5 2.9 L3.65 3.75 -3.9 3.75 -3.75 2.9 Q-3.5 2.0 -2.85 1.35 L-2.45 1.05 Q-1.5 0.25 -0.15 0.25" fill="#000000" fill-rule="evenodd" stroke="none"/>
    <path d="M5.45 3.35 L6.0 3.8 Q9.9 5.35 11.5 6.85 L11.65 7.0 10.05 7.0 -9.95 7.0 -11.85 7.0 -11.7 6.85 Q-9.9 4.95 -5.1 3.75 -3.0 6.2 0.0 6.2 3.0 6.2 5.1 3.75 L5.45 3.35 M-7.45 5.6 L-9.95 7.0 -7.45 5.6 M7.95 5.85 L10.05 7.0 7.95 5.85" fill="#5f7efe" fill-rule="evenodd" stroke="none"/>
    <path d="M5.0 -8.05 L5.15 -8.1 5.95 -8.4 6.9 -8.85 Q8.0 -9.35 8.3 -9.8 L8.7 -10.7 Q9.15 -12.45 3.85 -14.35 -1.5 -16.3 -4.7 -14.2 -7.9 -12.1 -8.0 -10.7 -8.15 -9.3 -4.95 -8.1 L-4.9 -8.1 Q-2.85 -10.3 0.0 -10.3 2.9 -10.3 5.0 -8.05 L5.05 -7.95 5.15 -8.0 5.95 -8.4 M5.05 -7.95 L5.1 -7.9 5.15 -7.85 6.55 -5.6 Q7.2 -4.0 7.2 -2.05 7.2 0.95 5.55 3.2 L5.45 3.35 5.1 3.75 Q3.0 6.2 0.0 6.2 -3.0 6.2 -5.1 3.75 -7.2 1.35 -7.2 -2.05 -7.2 -5.45 -5.1 -7.9 L-4.9 -8.1 Q-3.7 -7.4 -0.05 -7.35 L4.25 -7.75 5.0 -8.05 M6.0 3.8 Q9.9 5.35 11.5 6.85 L11.65 7.0 M-11.85 7.0 L-11.7 6.85 Q-9.9 4.95 -5.1 3.75 M4.25 -7.75 L5.05 -7.95" fill="none" stroke="#000000" stroke-linecap="round" stroke-linejoin="round" stroke-width="1.5"/>
    <path d="M-9.95 7.0 L-7.45 5.6 M10.05 7.0 L7.95 5.85" fill="none" stroke="#ffcc33" stroke-linecap="round" stroke-linejoin="round" stroke-width="1.5"/>
  </g>
</svg>
