<?xml version="1.0" encoding="UTF-8" standalone="no"?>
<svg xmlns:ffdec="https://www.free-decompiler.com/flash" xmlns:xlink="http://www.w3.org/1999/xlink" ffdec:objectType="shape" height="176.65px" width="253.85px" xmlns="http://www.w3.org/2000/svg">
  <g transform="matrix(1.0, 0.0, 0.0, 1.0, 126.9, 91.45)">
    <path d="M-33.35 -37.7 Q-20.1 -60.8 -6.7 -69.65 L-6.75 -69.65 Q7.85 -79.55 14.5 -80.4 L24.9 -80.1 24.95 -80.1 Q28.9 -78.4 29.55 -76.05 30.1 -75.05 30.1 -72.1 30.25 -69.1 26.9 -61.5 L20.65 -48.1 20.65 -48.05 Q12.05 -29.95 11.85 -22.55 11.85 -19.9 12.35 -18.7 L12.35 -18.65 Q13.05 -17.95 14.7 -17.95 18.75 -18.0 23.4 -20.6 L23.45 -20.6 39.8 -30.05 39.9 -30.1 56.45 -40.15 Q64.15 -44.95 70.05 -44.8 76.95 -44.8 77.75 -42.15 78.6 -41.1 79.6 -36.85 80.8 -33.2 76.85 -20.65 L73.8 -11.8 74.8 -10.35 Q76.8 -10.55 84.95 -14.15 95.25 -18.75 103.25 -18.7 110.25 -19.1 116.5 -9.75 121.4 -2.4 124.75 -0.5 126.2 0.2 126.75 1.8 127.25 3.35 126.55 4.85 125.8 6.3 124.25 6.85 L121.2 6.65 Q116.4 4.5 109.85 -5.3 106.5 -10.3 103.25 -10.7 96.65 -10.65 88.2 -6.85 77.55 -2.15 74.75 -2.35 68.8 -2.35 68.0 -6.05 L67.25 -7.25 67.2 -7.3 Q64.8 -9.25 69.2 -23.05 72.1 -32.4 71.8 -35.0 L71.1 -37.65 71.05 -37.75 Q71.25 -36.8 70.05 -36.8 66.05 -36.65 60.65 -33.35 L43.85 -23.15 43.7 -23.05 27.3 -13.6 Q20.65 -9.9 14.7 -9.95 7.7 -9.95 5.35 -14.8 3.85 -17.2 3.85 -22.55 3.65 -31.05 13.4 -51.5 L19.6 -64.8 19.6 -64.75 Q21.95 -70.1 22.1 -72.1 L22.15 -72.85 21.75 -72.75 21.7 -72.8 15.75 -72.5 Q10.25 -71.45 -2.25 -63.0 -14.65 -54.55 -27.05 -32.55 L-27.95 -31.45 -33.3 -37.15 -33.55 -37.3 -33.5 -37.35 -33.35 -37.7" fill="#00ccff" fill-rule="evenodd" stroke="none"/>
    <path d="M-30.8 12.15 L-30.8 12.1 -30.75 12.1 -30.8 12.15 M-49.95 43.15 L-49.5 43.9 -49.55 43.85 -49.95 43.15 M-17.4 49.05 L-17.35 49.0 -17.25 49.05 -17.4 49.05 M18.05 26.7 L18.25 27.1 18.3 27.15 18.05 26.7 M1.3 15.3 L1.35 15.25 1.3 15.3 M-80.35 -39.9 L-80.35 -39.85 -80.35 -39.9" fill="#ccffff" fill-rule="evenodd" stroke="none"/>
    <path d="M-29.6 -85.9 Q-29.1 -87.6 -27.9 -88.95 -25.6 -91.45 -21.45 -91.45 -16.25 -91.45 -13.65 -87.7 -11.95 -85.3 -11.95 -83.2 -11.95 -80.0 -13.95 -77.9 -15.95 -75.85 -19.5 -75.5 L-20.95 -75.45 Q-26.85 -75.45 -28.95 -79.15 -29.95 -80.9 -29.95 -83.35 -29.95 -84.7 -29.6 -85.9" fill="#ffcc33" fill-rule="evenodd" stroke="none"/>
    <path d="M-19.5 -75.5 L-19.45 -73.7 Q-19.45 -68.9 -21.9 -65.45 -25.15 -60.95 -31.45 -60.95 -39.45 -60.95 -41.75 -67.2 -42.45 -69.15 -42.5 -71.5 L-42.45 -73.6 Q-42.45 -85.95 -30.95 -85.95 L-29.6 -85.9 Q-29.95 -84.7 -29.95 -83.35 -29.95 -80.9 -28.95 -79.15 -26.85 -75.45 -20.95 -75.45 L-19.5 -75.5" fill="#cc0033" fill-rule="evenodd" stroke="none"/>
    <path d="M-33.35 -37.7 L-33.5 -37.35 -33.55 -37.3 -34.0 -36.5 -33.3 -37.15 -27.95 -31.45 Q-23.55 -25.9 -22.35 -22.2 -21.3 -19.45 -22.55 -16.7 -23.85 -13.95 -26.6 -12.9 L-32.15 -13.1 Q-34.9 -14.35 -35.95 -17.15 -38.6 -23.3 -54.65 -40.5 -70.65 -57.7 -77.1 -63.25 -80.0 -65.75 -79.5 -67.6 -80.2 -69.25 -82.5 -70.2 L-77.05 -68.05 Q-69.3 -64.95 -53.5 -53.65 -43.0 -46.2 -37.55 -41.6 L-37.3 -41.4 -33.35 -37.7" fill="#669933" fill-rule="evenodd" stroke="none"/>
    <path d="M-33.55 -37.3 L-33.3 -37.15 -34.0 -36.5 -33.55 -37.3" fill="#ff0000" fill-rule="evenodd" stroke="none"/>
    <path d="M-30.8 12.15 Q-25.9 11.35 -22.15 12.05 L-19.45 12.8 Q-10.45 -0.35 -6.4 -14.4 -6.0 -16.05 -4.5 -16.8 -3.05 -17.6 -1.45 -17.15 L-1.5 -17.15 Q0.05 -16.8 0.9 -15.3 L0.95 -15.25 Q1.65 -13.8 1.3 -12.25 L1.25 -12.2 Q-3.6 4.65 -14.9 20.25 L-15.0 20.35 -15.0 20.4 Q-16.6 24.85 -17.65 29.7 L-17.65 29.9 Q-18.65 34.25 -18.35 36.65 L-18.3 36.85 Q-18.0 39.0 -17.3 40.7 L-16.3 41.1 Q-14.95 40.4 -11.9 35.35 L-11.8 35.2 -3.55 21.25 -3.4 21.0 Q-0.6 16.5 1.3 15.3 2.65 14.3 4.3 14.6 L4.35 14.6 Q5.9 14.85 6.9 16.15 L6.95 16.2 Q7.85 17.5 7.6 19.15 L7.6 19.2 6.25 25.5 Q13.9 18.2 18.4 18.55 L18.5 18.55 18.6 18.55 Q22.65 18.15 25.4 23.5 L25.4 23.55 27.85 30.1 Q29.7 35.5 32.1 36.1 L32.15 36.1 Q33.45 35.95 34.85 35.2 L34.9 32.8 Q34.95 27.9 39.5 19.15 45.05 8.25 50.65 9.45 56.9 9.95 58.05 14.7 L58.1 14.8 58.25 15.9 58.25 15.95 Q58.5 20.7 51.45 29.6 L44.25 37.8 46.55 37.95 Q49.35 37.5 54.1 32.75 L54.25 32.55 Q58.15 28.4 63.65 20.95 L64.05 20.4 69.7 12.05 Q70.6 10.65 72.2 10.35 73.8 10.0 75.2 10.95 76.6 11.85 76.95 13.45 77.25 15.05 76.35 16.45 L70.7 24.8 Q67.65 32.6 68.6 36.25 69.8 36.55 71.8 35.75 77.05 32.8 84.1 26.15 L84.3 25.9 84.35 25.85 93.55 17.6 Q94.6 16.65 96.0 16.6 97.4 16.55 98.55 17.35 99.65 18.1 100.05 19.55 L100.1 19.55 Q100.4 20.85 99.95 22.1 L99.95 22.15 Q97.4 28.1 92.8 37.1 L92.8 37.15 Q88.8 44.75 86.2 51.6 L77.65 51.6 78.1 50.45 78.05 50.45 Q80.4 44.05 83.85 37.05 79.1 40.95 75.15 42.95 L75.05 43.0 74.85 43.15 Q66.65 46.5 62.55 41.7 L62.5 41.65 62.05 41.05 62.0 41.0 61.95 40.9 Q60.95 39.45 60.55 37.55 L60.05 38.15 59.8 38.35 Q52.1 46.1 46.9 45.95 L46.85 45.95 Q41.0 46.1 38.55 43.95 L38.5 43.95 37.4 42.95 Q34.7 44.15 32.1 44.1 24.45 44.8 20.25 32.7 L20.2 32.4 18.25 27.1 18.05 26.7 Q15.05 27.7 9.25 33.9 2.95 40.6 0.9 43.65 L0.85 43.7 Q0.0 44.85 -1.35 45.25 L-1.35 45.3 Q-2.85 45.65 -4.2 45.0 L-4.15 45.0 Q-5.6 44.3 -6.1 42.9 L-6.1 42.95 -6.45 41.7 Q-12.45 50.65 -17.35 49.0 L-17.4 49.05 Q-23.0 48.1 -24.45 44.3 L-24.55 44.1 Q-25.75 41.5 -26.25 38.1 L-26.2 38.15 -26.4 36.45 -29.3 39.5 Q-35.3 45.6 -39.5 46.9 L-39.45 46.9 Q-46.05 49.15 -49.5 43.9 L-49.95 43.15 -49.95 43.1 Q-50.65 41.45 -50.65 38.9 -50.65 28.85 -43.5 20.9 -36.15 12.6 -30.8 12.1 L-30.8 12.15 M-64.65 51.6 Q-63.1 43.35 -59.7 34.3 L-59.65 34.2 -59.65 34.15 -59.4 33.5 -65.55 38.4 -65.6 38.4 -67.35 39.8 -67.4 39.8 -68.15 40.3 -68.6 40.55 Q-75.1 44.65 -79.45 42.7 -83.7 41.3 -83.6 37.15 -83.8 34.85 -81.55 31.2 L-81.45 31.0 -81.35 30.9 -75.85 23.45 Q-78.55 25.2 -82.9 28.35 -83.65 37.9 -87.9 43.85 L-87.95 43.85 Q-92.2 49.95 -102.25 54.5 L-102.35 54.55 -102.4 54.55 Q-109.95 57.8 -112.55 53.55 -115.5 50.6 -114.15 45.0 -113.65 40.65 -102.05 32.3 L-101.8 32.05 -90.8 24.15 -90.75 21.55 Q-90.95 19.85 -93.15 18.8 -97.45 16.8 -105.15 16.4 -114.45 15.95 -119.5 14.55 L-119.45 14.55 Q-127.6 12.65 -126.85 3.3 L-126.85 3.25 Q-126.65 -3.7 -113.6 -16.1 -101.75 -27.55 -91.75 -33.15 -82.5 -38.45 -80.35 -39.85 L-80.35 -39.9 Q-79.05 -40.8 -77.4 -40.5 L-77.35 -40.5 Q-75.75 -40.25 -74.8 -38.85 -73.9 -37.55 -74.15 -35.9 L-74.15 -35.85 Q-74.45 -34.25 -75.75 -33.3 -78.0 -31.75 -87.8 -26.2 -97.05 -20.95 -108.05 -10.3 -118.05 -0.85 -118.85 3.95 -119.05 6.15 -117.45 6.8 -112.95 7.95 -104.75 8.4 -95.05 8.9 -89.65 11.6 L-89.45 11.75 Q-84.1 14.4 -83.0 18.6 -78.25 15.35 -76.15 14.45 L-76.05 14.4 Q-68.2 9.95 -65.05 12.95 -64.0 13.7 -63.55 15.0 L-63.55 14.95 Q-63.1 16.25 -63.55 17.6 -65.45 23.05 -68.8 27.45 L-69.0 27.65 -74.0 34.45 -72.8 33.8 -72.35 33.45 -72.05 33.3 -71.85 33.2 -70.45 32.15 -70.45 32.1 -63.45 26.55 -63.25 26.35 Q-53.85 18.65 -50.9 16.9 L-50.45 16.6 Q-49.15 15.75 -47.6 16.2 -46.1 16.5 -45.15 17.85 -44.3 19.1 -44.5 20.7 L-44.5 20.75 Q-44.8 22.25 -46.0 23.25 -47.85 25.1 -52.15 37.0 -55.0 44.65 -56.45 51.6 L-64.65 51.6 M-23.75 19.85 L-29.5 20.05 Q-32.7 20.8 -37.55 26.25 -42.65 31.85 -42.65 38.9 L-42.6 39.45 -42.1 39.35 Q-39.35 38.2 -35.25 34.15 L-35.05 33.9 Q-27.45 26.1 -23.75 19.85 M-106.45 47.6 L-105.55 47.2 -105.25 47.1 Q-97.75 43.6 -94.45 39.2 -93.25 37.35 -92.4 35.15 L-97.1 38.55 -97.35 38.7 Q-105.4 44.5 -106.35 46.9 L-106.45 47.6 M45.75 22.3 L45.7 22.35 Q43.7 26.15 42.75 29.05 L46.0 25.2 45.95 25.2 Q50.35 19.7 51.1 16.65 L50.1 16.45 Q48.5 16.9 45.75 22.3" fill="url(#gradient0)" fill-rule="evenodd" stroke="none"/>
    <path d="M77.65 51.6 L86.2 51.6 85.6 52.95 Q82.9 59.1 82.05 68.0 81.25 76.2 81.85 78.1 83.05 81.1 82.85 82.1 L82.85 82.15 Q82.7 83.45 81.5 84.4 L81.45 84.45 Q80.2 85.3 78.6 85.2 76.9 85.1 75.85 84.05 74.75 83.0 74.85 81.75 L74.4 80.5 74.3 80.35 Q73.1 77.85 74.05 67.45 74.95 58.2 77.65 51.6 M-64.65 51.6 L-56.45 51.6 Q-57.45 55.75 -57.8 59.65 L-57.8 59.7 -59.65 79.9 Q-59.75 81.2 -61.0 82.2 L-61.05 82.2 Q-62.3 83.1 -63.9 83.0 -65.6 82.85 -66.65 81.85 L-66.65 81.8 Q-67.8 80.75 -67.65 79.4 L-65.8 59.2 Q-65.5 55.5 -64.65 51.6" fill="url(#gradient1)" fill-rule="evenodd" stroke="none"/>
  </g>
  <defs>
    <linearGradient gradientTransform="matrix(0.0, 0.0664, -0.0921, 0.0, 24.8, 37.05)" gradientUnits="userSpaceOnUse" id="gradient0" spreadMethod="pad" x1="-819.2" x2="819.2">
      <stop offset="0.25098039215686274" stop-color="#ccffff"/>
      <stop offset="1.0" stop-color="#018786"/>
    </linearGradient>
    <linearGradient gradientTransform="matrix(0.0, 0.056, -0.0921, 0.0, 24.8, 39.35)" gradientUnits="userSpaceOnUse" id="gradient1" spreadMethod="pad" x1="-819.2" x2="819.2">
      <stop offset="0.25098039215686274" stop-color="#ccffff"/>
      <stop offset="1.0" stop-color="#018786"/>
    </linearGradient>
  </defs>
</svg>
