<?xml version="1.0" encoding="UTF-8" standalone="no"?>
<svg xmlns:ffdec="https://www.free-decompiler.com/flash" xmlns:xlink="http://www.w3.org/1999/xlink" ffdec:objectType="shape" height="6.2px" width="7.05px" xmlns="http://www.w3.org/2000/svg">
  <g transform="matrix(1.0, 0.0, 0.0, 1.0, 3.5, 3.1)">
    <path d="M1.95 -1.65 Q2.8 -0.95 2.8 0.0 2.8 0.95 1.95 1.65 1.15 2.35 0.0 2.35 -1.1 2.35 -1.95 1.65 -2.75 0.95 -2.75 0.0 -2.75 -0.95 -1.95 -1.65 -1.1 -2.35 0.0 -2.35 1.15 -2.35 1.95 -1.65" fill="#ffcc99" fill-rule="evenodd" stroke="none"/>
    <path d="M1.95 -1.65 Q2.8 -0.95 2.8 0.0 2.8 0.95 1.95 1.65 1.15 2.35 0.0 2.35 -1.1 2.35 -1.95 1.65 -2.75 0.95 -2.75 0.0 -2.75 -0.95 -1.95 -1.65 -1.1 -2.35 0.0 -2.35 1.15 -2.35 1.95 -1.65 Z" fill="none" stroke="#000000" stroke-linecap="round" stroke-linejoin="round" stroke-width="1.5"/>
  </g>
</svg>
