<?xml version="1.0" encoding="UTF-8" standalone="no"?>
<svg xmlns:ffdec="https://www.free-decompiler.com/flash" xmlns:xlink="http://www.w3.org/1999/xlink" ffdec:objectType="shape" height="23.0px" width="18.25px" xmlns="http://www.w3.org/2000/svg">
  <g transform="matrix(1.0, 0.0, 0.0, 1.0, 9.1, 11.5)">
    <path d="M-5.25 -3.55 L-5.3 -3.55 Q-8.5 -4.75 -8.35 -6.15 -8.25 -7.55 -5.05 -9.65 -1.85 -11.75 3.5 -9.8 8.8 -7.9 8.35 -6.15 L7.95 -5.25 Q7.65 -4.8 6.55 -4.3 L5.6 -3.85 4.8 -3.55 4.65 -3.5 Q2.55 -5.75 -0.35 -5.75 -3.2 -5.75 -5.25 -3.55" fill="#ffffff" fill-rule="evenodd" stroke="none"/>
    <path d="M4.7 -3.4 L4.75 -3.35 4.8 -3.3 6.2 -1.05 Q6.85 0.55 6.85 2.5 6.85 5.5 5.2 7.75 L5.1 7.9 4.75 8.3 Q2.65 10.75 -0.35 10.75 -3.35 10.75 -5.45 8.3 -7.55 5.9 -7.55 2.5 -7.55 -0.9 -5.45 -3.35 L-5.25 -3.55 Q-4.05 -2.85 -0.4 -2.8 L3.9 -3.2 4.7 -3.4 M-3.2 5.9 Q-3.85 6.55 -4.1 7.45 L-4.25 8.3 3.3 8.3 3.15 7.45 Q2.85 6.55 2.2 5.9 1.05 4.8 -0.5 4.8 -1.85 4.8 -2.8 5.6 L-3.2 5.9 M-2.5 1.35 Q-2.1 1.0 -2.1 0.5 -2.1 0.0 -2.5 -0.4 -2.85 -0.75 -3.35 -0.75 -3.85 -0.75 -4.25 -0.4 L-4.6 0.5 Q-4.6 1.0 -4.25 1.35 -3.85 1.75 -3.35 1.75 -2.85 1.75 -2.5 1.35 M3.7 0.5 Q3.7 0.0 3.3 -0.4 2.95 -0.75 2.45 -0.75 1.95 -0.75 1.55 -0.4 1.2 0.0 1.2 0.5 1.2 1.0 1.55 1.35 1.95 1.75 2.45 1.75 2.95 1.75 3.3 1.35 3.7 1.0 3.7 0.5" fill="#ffcc99" fill-rule="evenodd" stroke="none"/>
    <path d="M-5.25 -3.55 Q-3.2 -5.75 -0.35 -5.75 2.55 -5.75 4.65 -3.5 L3.9 -3.2 -0.4 -2.8 Q-4.05 -2.85 -5.25 -3.55 M3.7 0.5 Q3.7 1.0 3.3 1.35 2.95 1.75 2.45 1.75 1.95 1.75 1.55 1.35 1.2 1.0 1.2 0.5 1.2 0.0 1.55 -0.4 1.95 -0.75 2.45 -0.75 2.95 -0.75 3.3 -0.4 3.7 0.0 3.7 0.5 M-2.5 1.35 Q-2.85 1.75 -3.35 1.75 -3.85 1.75 -4.25 1.35 -4.6 1.0 -4.6 0.5 L-4.25 -0.4 Q-3.85 -0.75 -3.35 -0.75 -2.85 -0.75 -2.5 -0.4 -2.1 0.0 -2.1 0.5 -2.1 1.0 -2.5 1.35 M-3.2 5.9 L-2.8 5.6 Q-1.85 4.8 -0.5 4.8 1.05 4.8 2.2 5.9 2.85 6.55 3.15 7.45 L3.3 8.3 -4.25 8.3 -4.1 7.45 Q-3.85 6.55 -3.2 5.9" fill="#000000" fill-rule="evenodd" stroke="none"/>
    <path d="M-5.25 -3.55 L-5.3 -3.55 Q-8.5 -4.75 -8.35 -6.15 -8.25 -7.55 -5.05 -9.65 -1.85 -11.75 3.5 -9.8 8.8 -7.9 8.35 -6.15 L7.95 -5.25 Q7.65 -4.8 6.55 -4.3 L5.6 -3.85 4.8 -3.45 4.7 -3.4 4.75 -3.35 4.8 -3.3 6.2 -1.05 Q6.85 0.55 6.85 2.5 6.85 5.5 5.2 7.75 L5.1 7.9 4.75 8.3 Q2.65 10.75 -0.35 10.75 -3.35 10.75 -5.45 8.3 -7.55 5.9 -7.55 2.5 -7.55 -0.9 -5.45 -3.35 L-5.25 -3.55 Q-3.2 -5.75 -0.35 -5.75 2.55 -5.75 4.65 -3.5 L4.8 -3.55 5.6 -3.85 M4.7 -3.4 L4.65 -3.5 3.9 -3.2 4.7 -3.4 M-5.25 -3.55 Q-4.05 -2.85 -0.4 -2.8 L3.9 -3.2" fill="none" stroke="#000000" stroke-linecap="round" stroke-linejoin="round" stroke-width="1.5"/>
  </g>
</svg>
