<?xml version="1.0" encoding="UTF-8" standalone="no"?>
<svg xmlns:ffdec="https://www.free-decompiler.com/flash" xmlns:xlink="http://www.w3.org/1999/xlink" ffdec:objectType="shape" height="77.8px" width="149.6px" xmlns="http://www.w3.org/2000/svg">
  <g transform="matrix(1.0, 0.0, 0.0, 1.0, 75.55, 34.3)">
    <path d="M-49.0 29.9 L-49.0 12.95 -49.0 -19.35 Q-12.6 -31.35 31.8 -31.3 L41.55 -2.75 47.35 14.3 55.6 14.0 Q63.3 13.65 71.05 11.7 60.8 16.4 51.2 18.65 41.6 20.85 20.6 23.0 -0.45 25.15 -23.25 29.5 L-50.5 34.8 Q-54.95 35.75 -74.05 42.0 -64.15 36.3 -53.85 31.95 L-49.0 29.9 Q-40.1 25.9 -30.55 22.65 -21.9 19.65 -12.9 17.55 L-3.0 15.65 Q5.3 14.05 13.75 13.5 21.75 13.2 29.8 13.3 L47.35 14.3 29.8 13.3 Q21.75 13.2 13.75 13.5 5.3 14.05 -3.0 15.65 L-12.9 17.55 Q-21.9 19.65 -30.55 22.65 -40.1 25.9 -49.0 29.9 M-49.0 12.95 L41.55 -2.75 -49.0 12.95" fill="#000000" fill-rule="evenodd" stroke="none"/>
    <path d="M-49.0 29.9 L-49.0 12.95 -49.0 -19.35 Q-12.6 -31.35 31.8 -31.3 L41.55 -2.75 47.35 14.3 55.6 14.0 Q63.3 13.65 71.05 11.7 M-49.0 29.9 Q-40.1 25.9 -30.55 22.65 -21.9 19.65 -12.9 17.55 L-3.0 15.65 Q5.3 14.05 13.75 13.5 21.75 13.2 29.8 13.3 L47.35 14.3 M41.55 -2.75 L-49.0 12.95" fill="none" stroke="#000000" stroke-linecap="round" stroke-linejoin="round" stroke-width="6.0"/>
    <path d="M41.55 -2.75 L47.35 14.3 29.8 13.3 Q21.75 13.2 13.75 13.5 5.3 14.05 -3.0 15.65 L-12.9 17.55 Q-21.9 19.65 -30.55 22.65 -40.1 25.9 -49.0 29.9 L-49.0 12.95 41.55 -2.75" fill="#733238" fill-rule="evenodd" stroke="none"/>
    <path d="M-49.0 12.95 L-49.0 -19.35 Q-12.6 -31.35 31.8 -31.3 L41.55 -2.75 -49.0 12.95" fill="#b08864" fill-rule="evenodd" stroke="none"/>
    <path d="M-49.0 12.95 L-49.0 -19.35 Q-12.6 -31.35 31.8 -31.3 L41.55 -2.75 47.35 14.3 M-49.0 29.9 L-49.0 12.95 41.55 -2.75" fill="none" stroke="#000000" stroke-linecap="round" stroke-linejoin="round" stroke-width="3.0"/>
    <path d="M30.1 -3.6 Q32.0 -2.45 33.45 -0.7 35.05 1.15 36.25 3.3 L38.0 6.95 38.0 6.9 38.9 9.75 40.1 15.2 34.95 15.95 33.65 7.85 Q33.0 3.8 31.5 0.05 L29.5 -4.0 30.1 -3.6 M13.05 11.0 L13.95 13.85 15.15 19.3 10.0 20.05 8.7 11.95 Q8.05 7.9 6.55 4.15 5.7 2.05 4.55 0.1 L5.15 0.5 Q7.05 1.65 8.5 3.4 10.1 5.25 11.3 7.4 L13.05 11.05 13.05 11.0 M-16.9 7.55 Q-15.3 9.4 -14.1 11.55 -13.1 13.3 -12.35 15.2 L-12.35 15.15 -11.45 18.0 -10.25 23.45 -15.4 24.2 -16.7 16.1 Q-17.35 12.05 -18.85 8.3 -19.7 6.2 -20.85 4.25 L-20.25 4.65 Q-18.35 5.8 -16.9 7.55 M-40.2 11.75 Q-38.6 13.6 -37.4 15.75 -36.4 17.5 -35.65 19.4 L-35.65 19.35 -34.75 22.2 -33.55 27.65 -38.7 28.4 -40.0 20.3 Q-40.65 16.25 -42.15 12.5 -43.0 10.4 -44.15 8.45 L-43.55 8.85 Q-41.65 10.0 -40.2 11.75" fill="#ffffff" fill-rule="evenodd" stroke="none"/>
    <path d="M1.85 -1.25 L1.7 -1.7 1.85 -2.15 2.25 -2.4 2.75 -2.4 5.95 -0.75 Q8.05 0.55 9.65 2.45 L9.65 2.4 Q11.3 4.35 12.6 6.65 13.7 8.45 14.45 10.5 L15.4 13.45 15.4 13.5 16.8 19.75 16.75 20.15 16.55 20.5 16.15 20.65 9.45 21.65 8.9 21.5 8.6 21.05 7.2 12.2 Q6.55 8.3 5.15 4.7 4.2 2.3 2.8 0.1 L1.85 -1.25 M30.1 -3.6 L29.5 -4.0 31.5 0.05 Q33.0 3.8 33.65 7.85 L34.95 15.95 40.1 15.2 38.9 9.75 38.0 6.9 38.0 6.95 36.25 3.3 Q35.05 1.15 33.45 -0.7 32.0 -2.45 30.1 -3.6 M27.2 -6.5 L27.7 -6.5 30.9 -4.85 Q33.0 -3.55 34.6 -1.65 L34.6 -1.7 Q36.25 0.25 37.55 2.55 38.65 4.35 39.4 6.4 L40.35 9.35 40.35 9.4 41.75 15.65 41.7 16.05 41.5 16.4 41.1 16.55 34.4 17.55 33.85 17.4 33.55 16.95 32.15 8.1 Q31.5 4.2 30.1 0.6 29.15 -1.8 27.75 -4.0 L26.8 -5.35 Q26.65 -5.6 26.65 -5.8 L26.8 -6.25 27.2 -6.5 M13.05 11.0 L13.05 11.05 11.3 7.4 Q10.1 5.25 8.5 3.4 7.05 1.65 5.15 0.5 L4.55 0.1 Q5.7 2.05 6.55 4.15 8.05 7.9 8.7 11.95 L10.0 20.05 15.15 19.3 13.95 13.85 13.05 11.0 M-15.75 6.6 L-15.75 6.55 Q-14.1 8.5 -12.8 10.8 -11.7 12.6 -10.95 14.65 L-10.0 17.6 -10.0 17.65 -8.6 23.9 -8.65 24.3 -8.85 24.65 -9.25 24.8 -15.95 25.8 -16.5 25.65 -16.8 25.2 -18.2 16.35 Q-18.85 12.45 -20.25 8.85 -21.2 6.45 -22.6 4.25 L-23.55 2.9 -23.7 2.45 -23.55 2.0 -23.15 1.75 -22.65 1.75 -19.45 3.4 Q-17.35 4.7 -15.75 6.6 M-16.9 7.55 Q-18.35 5.8 -20.25 4.65 L-20.85 4.25 Q-19.7 6.2 -18.85 8.3 -17.35 12.05 -16.7 16.1 L-15.4 24.2 -10.25 23.45 -11.45 18.0 -12.35 15.15 -12.35 15.2 Q-13.1 13.3 -14.1 11.55 -15.3 9.4 -16.9 7.55 M-39.05 10.8 L-39.05 10.75 Q-37.4 12.7 -36.1 15.0 -35.0 16.8 -34.25 18.85 L-33.3 21.8 -33.3 21.85 -31.9 28.1 -31.95 28.5 -32.15 28.85 -32.55 29.0 -39.25 30.0 -39.8 29.85 -40.1 29.4 -41.5 20.55 Q-42.15 16.65 -43.55 13.05 -44.5 10.65 -45.9 8.45 L-46.85 7.1 -47.0 6.65 -46.85 6.2 -46.45 5.95 -45.95 5.95 Q-44.25 6.65 -42.75 7.6 -40.65 8.9 -39.05 10.8 M-40.2 11.75 Q-41.65 10.0 -43.55 8.85 L-44.15 8.45 Q-43.0 10.4 -42.15 12.5 -40.65 16.25 -40.0 20.3 L-38.7 28.4 -33.55 27.65 -34.75 22.2 -35.65 19.35 -35.65 19.4 Q-36.4 17.5 -37.4 15.75 -38.6 13.6 -40.2 11.75" fill="#000000" fill-rule="evenodd" stroke="none"/>
    <path d="M-74.05 42.0 Q-64.15 36.3 -53.85 31.95 L-49.0 29.9 Q-40.1 25.9 -30.55 22.65 -21.9 19.65 -12.9 17.55 L-3.0 15.65 Q5.3 14.05 13.75 13.5 21.75 13.2 29.8 13.3 L47.35 14.3 55.6 14.0 Q63.3 13.65 71.05 11.7 60.8 16.4 51.2 18.65 41.6 20.85 20.6 23.0 -0.45 25.15 -23.25 29.5 L-50.5 34.8 Q-54.95 35.75 -74.05 42.0" fill="#b08864" fill-rule="evenodd" stroke="none"/>
    <path d="M71.05 11.7 Q60.8 16.4 51.2 18.65 41.6 20.85 20.6 23.0 -0.45 25.15 -23.25 29.5 L-50.5 34.8 Q-54.95 35.75 -74.05 42.0" fill="none" stroke="#000000" stroke-linecap="round" stroke-linejoin="round" stroke-width="3.0"/>
    <path d="M-74.05 42.0 Q-64.15 36.3 -53.85 31.95 L-49.0 29.9 Q-40.1 25.9 -30.55 22.65 -21.9 19.65 -12.9 17.55 L-3.0 15.65 Q5.3 14.05 13.75 13.5 21.75 13.2 29.8 13.3 L47.35 14.3 55.6 14.0 Q63.3 13.65 71.05 11.7" fill="none" stroke="#000000" stroke-linecap="round" stroke-linejoin="round" stroke-width="3.0"/>
  </g>
</svg>
