<?xml version="1.0" encoding="UTF-8" standalone="no"?>
<svg xmlns:ffdec="https://www.free-decompiler.com/flash" xmlns:xlink="http://www.w3.org/1999/xlink" ffdec:objectType="shape" height="30.2px" width="16.2px" xmlns="http://www.w3.org/2000/svg">
  <g transform="matrix(1.0, 0.0, 0.0, 1.0, 8.1, 15.1)">
    <path d="M-0.15 -4.1 L1.8 -6.9 Q2.35 -7.95 2.05 -9.1 1.9 -10.15 1.2 -10.9 -0.55 -12.9 -3.2 -13.4 L-5.45 -13.75 -6.45 -13.35 -6.65 -13.15 -6.55 -11.25 -4.85 -4.1 -4.45 -3.1 -4.25 -2.6 -3.65 -1.95 -2.35 -2.2 -0.15 -4.1 M3.2 -9.35 L3.25 -8.9 Q3.5 -7.85 3.2 -6.8 2.65 -5.05 1.45 -3.65 L0.95 -3.1 -0.05 -2.05 -2.55 0.3 -0.4 5.95 -0.4 5.9 1.6 11.2 Q2.3 12.4 3.55 13.05 L4.7 13.2 5.05 13.15 6.3 12.7 7.1 12.4 Q7.5 12.35 7.95 12.65 L8.1 13.1 7.9 13.65 7.05 14.35 5.2 15.0 3.45 14.95 Q0.85 14.15 -0.25 11.6 L-0.65 10.8 -0.9 10.15 -4.15 1.2 -4.8 0.4 Q-5.7 -2.1 -6.25 -4.65 L-7.25 -8.75 Q-7.85 -11.05 -8.05 -13.4 L-8.05 -14.3 Q-7.55 -15.15 -6.5 -15.1 L-5.3 -15.05 Q-2.25 -14.9 0.35 -13.25 2.5 -11.9 3.2 -9.35" fill="#000000" fill-rule="evenodd" stroke="none"/>
    <path d="M-3.2 -13.4 Q-0.55 -12.9 1.2 -10.9 1.9 -10.15 2.05 -9.1 2.35 -7.95 1.8 -6.9 L-0.15 -4.1 -3.2 -13.4" fill="#333333" fill-rule="evenodd" stroke="none"/>
    <path d="M-0.15 -4.1 L-2.35 -2.2 -3.8 -5.5 -4.75 -8.85 Q-5.4 -11.25 -5.45 -13.75 L-3.2 -13.4 -0.15 -4.1" fill="#484848" fill-rule="evenodd" stroke="none"/>
    <path d="M-2.35 -2.2 L-3.65 -1.95 -4.25 -2.6 -4.45 -3.1 -4.85 -4.1 -6.55 -11.25 -6.65 -13.15 -6.45 -13.35 -5.45 -13.75 Q-5.4 -11.25 -4.75 -8.85 L-3.8 -5.5 -2.35 -2.2" fill="#c8c8c8" fill-rule="evenodd" stroke="none"/>
  </g>
</svg>
