<?xml version="1.0" encoding="UTF-8" standalone="no"?>
<svg xmlns:ffdec="https://www.free-decompiler.com/flash" xmlns:xlink="http://www.w3.org/1999/xlink" ffdec:objectType="shape" height="96.8px" width="96.95px" xmlns="http://www.w3.org/2000/svg">
  <g transform="matrix(1.0, 0.0, 0.0, 1.0, 49.55, 44.4)">
    <path d="M-17.05 -33.2 L-18.85 -16.8 -21.15 -39.65 1.1 -20.35 -17.05 -33.2 M-48.55 -13.25 L-48.5 -13.3 -47.9 -13.55 -23.4 -16.1 -39.9 -12.05 -18.75 1.25 -28.8 29.4 -11.4 26.0 -12.95 28.0 -36.65 35.65 -21.8 2.75 -48.55 -13.25 M9.0 41.75 L17.8 19.85 19.5 19.5 10.25 51.4 -3.6 27.65 -3.3 25.3 9.0 41.75 M45.35 26.05 L45.3 26.25 21.75 19.65 21.0 18.65 39.15 21.15 31.65 1.9 33.6 3.85 45.4 26.05 45.35 26.05 M3.85 -21.85 L2.7 -21.5 23.4 -43.4 23.3 -18.65 46.4 -7.9 21.7 -15.95 21.7 -16.05 21.6 -15.95 21.0 -15.95 20.05 -34.3 3.85 -21.85" fill="#ffff00" fill-rule="evenodd" stroke="none"/>
    <path d="M3.85 -21.85 L20.05 -34.3 21.0 -15.95 21.6 -15.95 21.7 -16.05 21.7 -15.95 46.4 -7.9 23.3 -18.65 23.4 -43.4 2.7 -21.5 3.85 -21.85 M45.35 26.05 L45.4 26.05 33.6 3.85 31.65 1.9 39.15 21.15 21.0 18.65 21.75 19.65 45.3 26.25 45.35 26.05 M9.0 41.75 L-3.3 25.3 -3.6 27.65 10.25 51.4 19.5 19.5 17.8 19.85 9.0 41.75 M-48.55 -13.25 L-21.8 2.75 -36.65 35.65 -12.95 28.0 -11.4 26.0 -28.8 29.4 -18.75 1.25 -39.9 -12.05 -23.4 -16.1 -47.9 -13.55 -48.5 -13.3 -48.55 -13.25 M-17.05 -33.2 L1.1 -20.35 -21.15 -39.65 -18.85 -16.8 -17.05 -33.2 Z" fill="none" stroke="#000000" stroke-linecap="round" stroke-linejoin="round" stroke-width="2.0"/>
    <path d="M-17.05 -33.2 L-18.85 -16.8 -21.15 -39.65 1.1 -20.35 -17.05 -33.2 M-48.55 -13.25 L-48.5 -13.3 -47.9 -13.55 -23.4 -16.1 -39.9 -12.05 -18.75 1.25 -28.8 29.4 -11.4 26.0 -12.95 28.0 -36.65 35.65 -21.8 2.75 -48.55 -13.25 M9.0 41.75 L17.8 19.85 19.5 19.5 10.25 51.4 -3.6 27.65 -3.3 25.3 9.0 41.75 M45.35 26.05 L45.3 26.25 21.75 19.65 21.0 18.65 39.15 21.15 31.65 1.9 33.6 3.85 45.4 26.05 45.35 26.05 M3.85 -21.85 L2.7 -21.5 23.4 -43.4 23.3 -18.65 46.4 -7.9 21.7 -15.95 21.7 -16.05 21.6 -15.95 21.0 -15.95 20.05 -34.3 3.85 -21.85" fill="#ffff00" fill-rule="evenodd" stroke="none"/>
  </g>
</svg>
