<?xml version="1.0" encoding="UTF-8" standalone="no"?>
<svg xmlns:ffdec="https://www.free-decompiler.com/flash" xmlns:xlink="http://www.w3.org/1999/xlink" ffdec:objectType="shape" height="27.1px" width="83.35px" xmlns="http://www.w3.org/2000/svg">
  <g transform="matrix(1.0, 0.0, 0.0, 1.0, 37.5, 9.4)">
    <path d="M-15.25 12.5 Q-19.3 10.5 -25.5 10.55 -38.7 10.7 -37.35 7.25 -36.0 3.8 -31.65 3.75 -27.35 3.7 -22.65 4.9 -17.95 6.05 -15.65 6.05 L-14.5 5.95 Q-13.05 5.7 -13.05 4.6 -13.05 3.75 -14.45 2.3 -15.9 0.8 -15.9 -0.3 -15.9 -2.7 -11.15 -2.7 -9.15 -2.7 -5.55 -0.8 -1.95 1.05 0.75 1.05 2.55 1.05 2.7 -1.0 L2.55 -4.0 Q2.55 -5.9 4.25 -7.5 6.25 -9.4 9.1 -9.4 11.2 -9.4 11.95 -7.6 12.35 -6.65 12.55 -3.75 12.7 -0.95 13.25 0.15 14.15 1.9 16.45 1.9 17.9 1.9 20.75 0.3 23.6 -1.4 26.05 -1.35 30.2 -1.35 30.2 1.4 30.2 2.75 28.0 4.2 25.8 5.65 25.8 6.6 25.8 7.25 26.15 7.55 L27.2 7.85 31.55 7.4 39.2 7.1 Q43.9 7.25 45.25 9.7 46.65 12.15 44.7 12.7 42.75 13.15 38.7 12.6 L30.85 11.95 25.3 12.5 Q19.65 15.7 22.55 17.7 L-14.1 17.7 Q-13.45 15.45 -15.25 12.5" fill="url(#gradient0)" fill-rule="evenodd" stroke="none"/>
    <path d="M-15.25 12.5 Q-19.3 10.5 -25.5 10.55 -38.7 10.7 -37.35 7.25 -36.0 3.8 -31.65 3.75 -27.35 3.7 -22.65 4.9 -17.95 6.05 -15.65 6.05 L-14.5 5.95 Q-13.05 5.7 -13.05 4.6 -13.05 3.75 -14.45 2.3 -15.9 0.8 -15.9 -0.3 -15.9 -2.7 -11.15 -2.7 -9.15 -2.7 -5.55 -0.8 -1.95 1.05 0.75 1.05 2.55 1.05 2.7 -1.0 L2.55 -4.0 Q2.55 -5.9 4.25 -7.5 6.25 -9.4 9.1 -9.4 11.2 -9.4 11.95 -7.6 12.35 -6.65 12.55 -3.75 12.7 -0.95 13.25 0.15 14.15 1.9 16.45 1.9 17.9 1.9 20.75 0.3 23.6 -1.4 26.05 -1.35 30.2 -1.35 30.2 1.4 30.2 2.75 28.0 4.2 25.8 5.65 25.8 6.6 25.8 7.25 26.15 7.55 L27.2 7.85 31.55 7.4 39.2 7.1 Q43.9 7.25 45.25 9.7 46.65 12.15 44.7 12.7 42.75 13.15 38.7 12.6 L30.85 11.95 25.3 12.5" fill="none" stroke="#000000" stroke-linecap="round" stroke-linejoin="round" stroke-width="0.05"/>
  </g>
  <defs>
    <linearGradient gradientTransform="matrix(0.0, 0.0131, -0.0509, 0.0, 3.6, 9.1)" gradientUnits="userSpaceOnUse" id="gradient0" spreadMethod="pad" x1="-819.2" x2="819.2">
      <stop offset="0.6666666666666666" stop-color="#97d6f0" stop-opacity="0.8"/>
      <stop offset="0.8549019607843137" stop-color="#9cd8f1" stop-opacity="0.0"/>
    </linearGradient>
  </defs>
</svg>
