<?xml version="1.0" encoding="UTF-8" standalone="no"?>
<svg xmlns:ffdec="https://www.free-decompiler.com/flash" xmlns:xlink="http://www.w3.org/1999/xlink" ffdec:objectType="shape" height="26.15px" width="73.1px" xmlns="http://www.w3.org/2000/svg">
  <g transform="matrix(1.0, 0.0, 0.0, 1.0, 30.3, 7.9)">
    <path d="M-15.05 12.7 L-17.25 12.4 Q-18.4 11.95 -24.25 13.55 -27.45 13.5 -27.4 10.9 -27.35 8.3 -22.15 7.8 L-14.7 7.25 Q-12.5 7.25 -12.95 5.1 -13.45 2.9 -19.1 1.45 -24.8 0.0 -27.35 -1.25 -29.95 -2.5 -29.5 -4.85 -29.1 -7.2 -23.45 -7.15 -18.0 -7.2 -10.85 -2.3 -3.65 2.55 -0.35 2.55 1.75 2.55 2.55 1.45 3.0 0.75 3.2 -1.0 3.6 -4.65 6.95 -4.6 7.65 -4.65 8.7 -3.7 9.95 -2.55 9.95 -1.25 9.95 1.45 12.3 1.45 L21.95 -2.5 Q31.95 -6.5 37.45 -6.5 42.05 -6.5 42.05 -3.4 42.05 -1.15 39.45 -0.45 L30.85 0.65 Q25.9 1.2 22.3 2.45 18.7 3.7 18.25 5.35 17.75 7.0 20.25 7.3 L26.55 7.5 Q30.35 7.4 33.15 8.5 35.95 9.6 36.2 11.35 36.45 13.1 33.5 13.4 30.5 13.7 26.55 12.35 22.6 11.0 19.2 11.65 17.8 11.9 16.8 12.5 14.7 15.1 15.15 18.25 L-12.55 18.25 Q-12.9 15.2 -15.05 12.5 L-15.05 12.7" fill="url(#gradient0)" fill-rule="evenodd" stroke="none"/>
    <path d="M-15.05 12.7 L-17.25 12.4 Q-18.4 11.95 -24.25 13.55 -27.45 13.5 -27.4 10.9 -27.35 8.3 -22.15 7.8 L-14.7 7.25 Q-12.5 7.25 -12.95 5.1 -13.45 2.9 -19.1 1.45 -24.8 0.0 -27.35 -1.25 -29.95 -2.5 -29.5 -4.85 -29.1 -7.2 -23.45 -7.15 -18.0 -7.2 -10.85 -2.3 -3.65 2.55 -0.35 2.55 1.75 2.55 2.55 1.45 3.0 0.75 3.2 -1.0 3.6 -4.65 6.95 -4.6 7.65 -4.65 8.7 -3.7 9.95 -2.55 9.95 -1.25 9.95 1.45 12.3 1.45 L21.95 -2.5 Q31.95 -6.5 37.45 -6.5 42.05 -6.5 42.05 -3.4 42.05 -1.15 39.45 -0.45 L30.85 0.65 Q25.9 1.2 22.3 2.45 18.7 3.7 18.25 5.35 17.75 7.0 20.25 7.3 L26.55 7.5 Q30.35 7.4 33.15 8.5 35.95 9.6 36.2 11.35 36.45 13.1 33.5 13.4 30.5 13.7 26.55 12.35 22.6 11.0 19.2 11.65 17.8 11.9 16.8 12.5" fill="none" stroke="#000000" stroke-linecap="round" stroke-linejoin="round" stroke-width="1.5"/>
  </g>
  <defs>
    <linearGradient gradientTransform="matrix(0.0, 0.0106, -0.0437, 0.0, 5.4, 9.7)" gradientUnits="userSpaceOnUse" id="gradient0" spreadMethod="pad" x1="-819.2" x2="819.2">
      <stop offset="0.6666666666666666" stop-color="#97d6f0" stop-opacity="0.8"/>
      <stop offset="0.8549019607843137" stop-color="#9cd8f1" stop-opacity="0.0"/>
    </linearGradient>
  </defs>
</svg>
