<?xml version="1.0" encoding="UTF-8" standalone="no"?>
<svg xmlns:ffdec="https://www.free-decompiler.com/flash" xmlns:xlink="http://www.w3.org/1999/xlink" ffdec:objectType="shape" height="18.8px" width="359.45px" xmlns="http://www.w3.org/2000/svg">
  <g transform="matrix(1.0, 0.0, 0.0, 1.0, 179.7, 7.05)">
    <path d="M-165.9 11.35 Q-163.2 7.65 -171.45 4.4 -179.7 1.15 -179.7 -1.8 -179.7 -4.85 -176.1 -5.1 -172.55 -5.4 -163.4 0.85 -154.25 7.05 -151.2 7.5 -148.15 7.95 -146.35 6.7 -145.05 4.95 -146.85 3.85 -157.4 0.9 -152.65 -3.8 -150.9 -5.4 -148.15 -3.8 -146.45 -3.1 -138.0 2.4 L-133.5 5.7 Q-130.65 7.5 -127.8 7.05 -126.2 5.95 -126.45 5.15 -126.7 4.25 -128.0 1.9 L-129.95 -1.8 Q-130.65 -3.1 -129.8 -4.8 -129.0 -6.55 -125.4 -6.75 -121.8 -6.95 -119.05 -4.45 -117.1 -2.7 -115.75 1.1 L-113.65 6.6 Q-112.2 9.1 -109.35 9.1 -104.0 9.1 -103.35 4.75 L-103.6 0.5 Q-104.15 -3.85 -100.5 -2.3 -98.0 -1.6 -93.45 2.55 -89.5 7.1 -84.15 7.85 -78.8 8.65 -78.45 1.4 -78.25 -2.4 -77.9 -3.65 -77.2 -5.95 -75.3 -5.95 -72.6 -5.95 -72.0 -4.1 -71.7 -3.3 -71.9 -0.2 -72.1 2.45 -70.9 4.85 -69.7 7.15 -65.05 7.1 -60.45 7.05 -60.0 2.15 L-59.7 -4.25 Q-59.35 -7.55 -56.2 -6.95 -53.85 -6.95 -44.95 3.95 -36.7 10.05 -33.05 3.4 L-29.2 -3.45 Q-28.1 -4.85 -26.3 -4.85 -24.25 -4.9 -23.7 -2.9 -23.45 -2.2 -23.25 1.4 -22.85 7.6 -17.7 7.6 -12.85 7.55 -13.05 3.3 -14.05 -1.95 -12.8 -2.35 -8.9 -4.05 -6.8 -0.45 L-5.0 3.1 Q-3.85 5.5 -2.5 7.05 2.95 10.65 3.3 5.25 3.1 2.65 3.4 -0.1 3.9 -5.4 7.0 -5.95 10.05 -6.45 11.15 -4.6 12.2 -2.75 11.7 0.35 11.2 3.45 12.1 5.2 12.95 6.9 16.9 7.2 20.8 7.5 22.2 3.05 23.55 -1.35 26.25 -2.55 28.7 -3.1 31.0 -0.7 32.45 0.7 33.8 4.0 35.15 7.2 36.3 8.3 38.2 10.15 42.1 10.15 49.2 10.15 49.2 5.15 48.0 -1.2 49.1 -3.8 51.95 -4.85 53.85 -3.3 55.1 -2.3 56.5 0.7 58.2 4.4 58.95 5.4 60.55 7.6 62.85 7.6 66.5 7.55 67.7 5.55 68.5 4.2 68.35 1.1 68.15 -2.5 68.4 -3.35 68.9 -5.4 71.45 -5.4 73.95 -5.4 75.2 -3.35 75.85 -2.25 76.7 1.1 77.55 4.25 78.5 5.55 79.95 7.55 82.9 7.6 87.9 7.55 88.0 3.7 89.4 -1.7 91.95 -1.2 94.5 -0.75 95.6 3.95 96.1 6.05 96.8 6.85 97.95 8.1 100.9 8.0 103.85 7.85 105.7 6.55 107.55 5.2 108.15 2.55 108.75 -0.1 109.5 -1.05 110.85 -2.75 113.9 -2.9 116.95 -3.05 118.0 -0.05 119.05 2.9 120.35 5.0 124.25 9.65 128.1 5.0 129.65 3.35 131.25 -0.45 132.85 -4.3 134.85 -2.65 135.75 -2.45 135.55 2.9 135.4 7.0 138.9 7.05 140.8 7.05 142.45 5.45 L145.2 1.9 Q148.9 -3.3 153.2 -3.3 156.05 -3.3 156.05 -1.0 L155.45 7.05 Q154.9 11.25 158.5 9.65 162.1 8.0 168.1 4.4 174.1 0.8 176.75 0.8 178.35 0.8 179.0 1.35 181.5 3.6 175.7 6.85 172.2 8.8 170.65 11.75 L-165.9 11.35" fill="url(#gradient0)" fill-rule="evenodd" stroke="none"/>
    <path d="M170.65 11.75 Q172.2 8.8 175.7 6.85 181.5 3.6 179.0 1.35 178.35 0.8 176.75 0.8 174.1 0.8 168.1 4.4 162.1 8.0 158.5 9.65 154.9 11.25 155.45 7.05 L156.05 -1.0 Q156.05 -3.3 153.2 -3.3 148.9 -3.3 145.2 1.9 L142.45 5.45 Q140.8 7.05 138.9 7.05 135.4 7.0 135.55 2.9 135.75 -2.45 134.85 -2.65 132.85 -4.3 131.25 -0.45 129.65 3.35 128.1 5.0 124.25 9.65 120.35 5.0 119.05 2.9 118.0 -0.05 116.95 -3.05 113.9 -2.9 110.85 -2.75 109.5 -1.05 108.75 -0.1 108.15 2.55 107.55 5.2 105.7 6.55 103.85 7.85 100.9 8.0 97.95 8.1 96.8 6.85 96.1 6.05 95.6 3.95 94.5 -0.75 91.95 -1.2 89.4 -1.7 88.0 3.7 87.9 7.55 82.9 7.6 79.95 7.55 78.5 5.55 77.55 4.25 76.7 1.1 75.85 -2.25 75.2 -3.35 73.95 -5.4 71.45 -5.4 68.9 -5.4 68.4 -3.35 68.15 -2.5 68.35 1.1 68.5 4.2 67.7 5.55 66.5 7.55 62.85 7.6 60.55 7.6 58.95 5.4 58.2 4.4 56.5 0.7 55.1 -2.3 53.85 -3.3 51.95 -4.85 49.1 -3.8 48.0 -1.2 49.2 5.15 49.2 10.15 42.1 10.15 38.2 10.15 36.3 8.3 35.15 7.2 33.8 4.0 32.45 0.7 31.0 -0.7 28.7 -3.1 26.25 -2.55 23.55 -1.35 22.2 3.05 20.8 7.5 16.9 7.2 12.95 6.9 12.1 5.2 11.2 3.45 11.7 0.35 12.2 -2.75 11.15 -4.6 10.05 -6.45 7.0 -5.95 3.9 -5.4 3.4 -0.1 3.1 2.65 3.3 5.25 2.95 10.65 -2.5 7.05 -3.85 5.5 -5.0 3.1 L-6.8 -0.45 Q-8.9 -4.05 -12.8 -2.35 -14.05 -1.95 -13.05 3.3 -12.85 7.55 -17.7 7.6 -22.85 7.6 -23.25 1.4 -23.45 -2.2 -23.7 -2.9 -24.25 -4.9 -26.3 -4.85 -28.1 -4.85 -29.2 -3.45 L-33.05 3.4 Q-36.7 10.05 -44.95 3.95 -53.85 -6.95 -56.2 -6.95 -59.35 -7.55 -59.7 -4.25 L-60.0 2.15 Q-60.45 7.05 -65.05 7.1 -69.7 7.15 -70.9 4.85 -72.1 2.45 -71.9 -0.2 -71.7 -3.3 -72.0 -4.1 -72.6 -5.95 -75.3 -5.95 -77.2 -5.95 -77.9 -3.65 -78.25 -2.4 -78.45 1.4 -78.8 8.65 -84.15 7.85 -89.5 7.1 -93.45 2.55 -98.0 -1.6 -100.5 -2.3 -104.15 -3.85 -103.6 0.5 L-103.35 4.75 Q-104.0 9.1 -109.35 9.1 -112.2 9.1 -113.65 6.6 L-115.75 1.1 Q-117.1 -2.7 -119.05 -4.45 -121.8 -6.95 -125.4 -6.75 -129.0 -6.55 -129.8 -4.8 -130.65 -3.1 -129.95 -1.8 L-128.0 1.9 Q-126.7 4.25 -126.45 5.15 -126.2 5.95 -127.8 7.05 -130.65 7.5 -133.5 5.7 L-138.0 2.4 Q-146.45 -3.1 -148.15 -3.8 -150.9 -5.4 -152.65 -3.8 -157.4 0.9 -146.85 3.85 -145.05 4.95 -146.35 6.7 -148.15 7.95 -151.2 7.5 -154.25 7.05 -163.4 0.85 -172.55 -5.4 -176.1 -5.1 -179.7 -4.85 -179.7 -1.8 -179.7 1.15 -171.45 4.4 -163.2 7.65 -165.9 11.35" fill="none" stroke="#000000" stroke-linecap="round" stroke-linejoin="round" stroke-width="0.05"/>
  </g>
  <defs>
    <linearGradient gradientTransform="matrix(0.0, 0.0095, 0.2194, 0.0, -0.9, 6.5)" gradientUnits="userSpaceOnUse" id="gradient0" spreadMethod="pad" x1="-819.2" x2="819.2">
      <stop offset="0.6666666666666666" stop-color="#97d6f0" stop-opacity="0.8"/>
      <stop offset="0.8549019607843137" stop-color="#9cd8f1" stop-opacity="0.0"/>
    </linearGradient>
  </defs>
</svg>
