<?xml version="1.0" encoding="UTF-8" standalone="no"?>
<svg xmlns:ffdec="https://www.free-decompiler.com/flash" xmlns:xlink="http://www.w3.org/1999/xlink" ffdec:objectType="shape" height="15.95px" width="351.4px" xmlns="http://www.w3.org/2000/svg">
  <g transform="matrix(1.0, 0.0, 0.0, 1.0, 171.65, 3.65)">
    <path d="M-171.65 9.15 Q-165.85 9.05 -165.4 3.5 -165.15 0.3 -164.7 -0.75 -163.75 -2.7 -161.7 -2.7 -159.65 -2.7 -158.5 -1.6 -157.35 -0.5 -155.65 2.55 -154.0 5.6 -151.8 6.9 -149.65 8.15 -145.65 7.6 -141.7 7.0 -140.75 4.2 L-140.35 -1.3 Q-139.85 -4.05 -135.65 -3.55 -132.55 -3.55 -117.35 5.75 -106.55 9.35 -103.2 4.45 L-99.55 -0.6 Q-98.1 -1.8 -95.7 -1.75 -92.95 -1.75 -92.2 -0.1 -91.9 0.5 -91.6 3.5 -91.1 8.75 -84.2 8.8 -77.75 8.75 -78.0 5.15 -79.35 0.7 -77.65 0.3 -72.45 -1.1 -69.65 2.0 L-67.2 4.95 Q-65.7 7.0 -63.9 8.35 -56.65 11.4 -56.15 6.85 -56.4 4.6 -56.0 2.3 -55.35 -2.2 -51.2 -2.7 -47.1 -3.15 -45.65 -1.55 -44.25 0.0 -44.9 2.65 -45.55 5.3 -44.4 6.75 -43.2 8.2 -38.0 8.45 -32.75 8.7 -30.9 4.95 -29.05 1.2 -25.45 0.2 -22.15 -0.25 -19.1 1.8 -17.15 3.0 -15.35 5.75 -13.55 8.45 -12.0 9.4 -9.5 10.95 -4.25 11.0 5.2 11.0 5.25 6.75 3.65 1.35 5.1 -0.9 8.9 -1.75 11.45 -0.45 13.1 0.4 15.0 2.95 17.25 6.05 18.25 6.9 20.4 8.75 23.5 8.8 28.35 8.8 29.95 7.05 31.0 5.9 30.85 3.3 30.55 0.25 30.9 -0.5 31.55 -2.25 35.0 -2.2 38.3 -2.25 40.0 -0.5 40.85 0.45 42.0 3.3 43.15 6.0 44.4 7.05 46.35 8.8 50.3 8.8 56.95 8.75 58.8 5.45 58.95 0.9 62.4 1.3 65.8 1.7 67.25 5.75 67.9 7.5 68.85 8.15 70.4 9.25 74.35 9.15 78.3 9.0 80.75 7.9 83.2 6.75 84.05 4.55 84.85 2.3 85.85 1.5 87.65 0.0 91.75 -0.1 95.8 -0.2 97.2 2.3 98.6 4.8 100.35 6.55 105.55 10.5 110.7 6.55 112.8 5.2 114.95 2.0 117.05 -1.3 119.75 0.05 120.95 0.25 120.7 4.8 120.45 8.3 125.15 8.35 127.7 8.3 129.9 6.95 L133.6 3.95 Q138.5 -0.45 144.25 -0.4 148.05 -0.45 148.1 1.5 L147.3 8.35 Q146.5 11.9 151.35 10.5 156.15 9.1 164.2 6.05 172.2 3.0 175.75 3.05 L178.75 3.45 Q182.05 5.35 174.3 8.15 169.65 9.8 167.6 12.3 L-171.65 12.05 -171.65 9.15" fill="url(#gradient0)" fill-rule="evenodd" stroke="none"/>
    <path d="M167.6 12.3 Q169.65 9.8 174.3 8.15 182.05 5.35 178.75 3.45 L175.75 3.05 Q172.2 3.0 164.2 6.05 156.15 9.1 151.35 10.5 146.5 11.9 147.3 8.35 L148.1 1.5 Q148.05 -0.45 144.25 -0.4 138.5 -0.45 133.6 3.95 L129.9 6.95 Q127.7 8.3 125.15 8.35 120.45 8.3 120.7 4.8 120.95 0.25 119.75 0.05 117.05 -1.3 114.95 2.0 112.8 5.2 110.7 6.55 105.55 10.5 100.35 6.55 98.6 4.8 97.2 2.3 95.8 -0.2 91.75 -0.1 87.65 0.0 85.85 1.5 84.85 2.3 84.05 4.55 83.2 6.75 80.75 7.9 78.3 9.0 74.35 9.15 70.4 9.25 68.85 8.15 67.9 7.5 67.25 5.75 65.8 1.7 62.4 1.3 58.95 0.9 58.8 5.45 56.95 8.75 50.3 8.8 46.35 8.8 44.4 7.05 43.15 6.0 42.0 3.3 40.85 0.45 40.0 -0.5 38.3 -2.25 35.0 -2.2 31.55 -2.25 30.9 -0.5 30.55 0.25 30.85 3.3 31.0 5.9 29.95 7.05 28.35 8.8 23.5 8.8 20.4 8.75 18.25 6.9 17.25 6.05 15.0 2.95 13.1 0.4 11.45 -0.45 8.9 -1.75 5.1 -0.9 3.65 1.35 5.25 6.75 5.2 11.0 -4.25 11.0 -9.5 10.95 -12.0 9.4 -13.55 8.45 -15.35 5.75 -17.15 3.0 -19.1 1.8 -22.15 -0.25 -25.45 0.2 -29.05 1.2 -30.9 4.95 -32.75 8.7 -38.0 8.45 -43.2 8.2 -44.4 6.75 -45.55 5.3 -44.9 2.65 -44.25 0.0 -45.65 -1.55 -47.1 -3.15 -51.2 -2.7 -55.35 -2.2 -56.0 2.3 -56.4 4.6 -56.15 6.85 -56.65 11.4 -63.9 8.35 -65.7 7.0 -67.2 4.95 L-69.65 2.0 Q-72.45 -1.1 -77.65 0.3 -79.35 0.7 -78.0 5.15 -77.75 8.75 -84.2 8.8 -91.1 8.75 -91.6 3.5 -91.9 0.5 -92.2 -0.1 -92.95 -1.75 -95.7 -1.75 -98.1 -1.8 -99.55 -0.6 L-103.2 4.45 Q-106.55 9.35 -117.35 5.75 -132.55 -3.55 -135.65 -3.55 -139.85 -4.05 -140.35 -1.3 L-140.75 4.2 Q-141.7 7.0 -145.65 7.6 -149.65 8.15 -151.8 6.9 -154.0 5.6 -155.65 2.55 -157.35 -0.5 -158.5 -1.6 -159.65 -2.7 -161.7 -2.7 -163.75 -2.7 -164.7 -0.75 -165.15 0.3 -165.4 3.5 -165.85 9.05 -171.65 9.15" fill="none" stroke="#000000" stroke-linecap="round" stroke-linejoin="round" stroke-width="0.05"/>
  </g>
  <defs>
    <linearGradient gradientTransform="matrix(0.0, 0.0081, 0.2933, 0.0, -61.75, 7.85)" gradientUnits="userSpaceOnUse" id="gradient0" spreadMethod="pad" x1="-819.2" x2="819.2">
      <stop offset="0.6666666666666666" stop-color="#97d6f0" stop-opacity="0.8"/>
      <stop offset="0.8549019607843137" stop-color="#9cd8f1" stop-opacity="0.0"/>
    </linearGradient>
  </defs>
</svg>
