<?xml version="1.0" encoding="UTF-8" standalone="no"?>
<svg xmlns:ffdec="https://www.free-decompiler.com/flash" xmlns:xlink="http://www.w3.org/1999/xlink" ffdec:objectType="shape" height="64.65px" width="26.4px" xmlns="http://www.w3.org/2000/svg">
  <g transform="matrix(1.0, 0.0, 0.0, 1.0, 13.2, 32.3)">
    <path d="M1.7 -16.3 Q4.8 -10.65 6.85 -4.5 8.65 0.75 9.65 6.1 L10.6 13.95 11.7 30.85 -3.8 30.85 Q-3.8 18.95 -3.95 7.1 -4.1 -3.4 -6.1 -13.6 -7.5 -20.35 -10.0 -26.8 L-11.7 -30.8 Q-8.2 -28.55 -5.25 -25.6 -1.15 -21.5 1.7 -16.3" fill="#ffffff" fill-rule="evenodd" stroke="none"/>
    <path d="M1.7 -16.3 Q-1.15 -21.5 -5.25 -25.6 -8.2 -28.55 -11.7 -30.8 L-10.0 -26.8 Q-7.5 -20.35 -6.1 -13.6 -4.1 -3.4 -3.95 7.1 -3.8 18.95 -3.8 30.85 L11.7 30.85 10.6 13.95 9.65 6.1 Q8.65 0.75 6.85 -4.5 4.8 -10.65 1.7 -16.3 Z" fill="none" stroke="#000000" stroke-linecap="round" stroke-linejoin="round" stroke-width="3.0"/>
    <path d="M1.7 -16.3 Q4.8 -10.65 6.85 -4.5 8.65 0.75 9.65 6.1 L10.6 13.95 11.7 30.85 -3.8 30.85 Q-3.8 18.95 -3.95 7.1 -4.1 -3.4 -6.1 -13.6 -7.5 -20.35 -10.0 -26.8 L-11.7 -30.8 Q-8.2 -28.55 -5.25 -25.6 -1.15 -21.5 1.7 -16.3" fill="#ffffff" fill-rule="evenodd" stroke="none"/>
  </g>
</svg>
