<?xml version="1.0" encoding="UTF-8" standalone="no"?>
<svg xmlns:ffdec="https://www.free-decompiler.com/flash" xmlns:xlink="http://www.w3.org/1999/xlink" ffdec:objectType="shape" height="132.4px" width="135.2px" xmlns="http://www.w3.org/2000/svg">
  <g transform="matrix(1.0, 0.0, 0.0, 1.0, 67.6, 66.2)">
    <path d="M-0.35 -61.7 L43.1 -61.7 Q63.1 -61.7 63.1 -41.7 L63.1 29.0 63.1 41.7 Q63.1 61.7 43.1 61.7 L31.4 61.7 31.4 29.0 63.1 29.0 31.4 29.0 31.4 61.7 -0.35 61.7 -32.15 61.7 -43.1 61.7 Q-63.1 61.7 -63.1 41.7 L-63.1 29.0 -63.1 -41.7 Q-63.1 -61.7 -43.1 -61.7 L-0.35 -61.7 -0.35 29.0 31.4 29.0 31.4 -60.65 31.4 29.0 -0.35 29.0 -0.35 -61.7 M-63.1 29.0 L-32.15 29.0 -32.15 61.7 -32.15 29.0 -63.1 29.0 M-0.35 61.7 L-0.35 29.0 -32.15 29.0 -32.15 -60.7 -32.15 29.0 -0.35 29.0 -0.35 61.7" fill="#000000" fill-rule="evenodd" stroke="none"/>
    <path d="M63.1 29.0 L63.1 -41.7 Q63.1 -61.7 43.1 -61.7 L-0.35 -61.7 -43.1 -61.7 Q-63.1 -61.7 -63.1 -41.7 L-63.1 29.0 -63.1 41.7 Q-63.1 61.7 -43.1 61.7 L-32.15 61.7 -0.35 61.7 31.4 61.7 43.1 61.7 Q63.1 61.7 63.1 41.7 L63.1 29.0" fill="none" stroke="#ffffff" stroke-linecap="round" stroke-linejoin="round" stroke-width="9.0"/>
    <path d="M-0.35 -61.7 L-0.35 29.0 31.4 29.0 31.4 -60.65 M63.1 29.0 L31.4 29.0 31.4 61.7 M-32.15 -60.7 L-32.15 29.0 -0.35 29.0 -0.35 61.7 M-32.15 61.7 L-32.15 29.0 -63.1 29.0" fill="none" stroke="#ffffff" stroke-linecap="round" stroke-linejoin="round" stroke-width="5.0"/>
  </g>
</svg>
