<?xml version="1.0" encoding="UTF-8" standalone="no"?>
<svg xmlns:ffdec="https://www.free-decompiler.com/flash" xmlns:xlink="http://www.w3.org/1999/xlink" ffdec:objectType="shape" height="1013.4px" width="785.85px" xmlns="http://www.w3.org/2000/svg">
  <g transform="matrix(1.0, 0.0, 0.0, 1.0, 398.7, 231.8)">
    <path d="M24.3 -231.8 L36.3 -231.8 36.3 93.45 36.3 200.05 Q36.3 202.55 34.55 204.3 32.8 206.05 30.3 206.05 27.8 206.05 26.05 204.3 24.3 202.55 24.3 200.05 L24.3 93.45 24.3 -231.8 M-316.9 766.0 L-382.75 779.85 Q-388.55 781.3 -394.05 779.95 -395.7 779.5 -396.35 777.85 -398.2 773.05 -397.5 767.85 L-395.55 384.0 Q-395.55 382.85 -395.1 381.8 -380.85 345.25 -338.85 336.2 L-338.45 336.15 -1.7 286.9 -1.7 250.05 Q-1.7 247.55 0.05 245.8 1.8 244.05 4.3 244.05 6.8 244.05 8.55 245.8 10.3 247.55 10.3 250.05 L10.3 288.9 325.1 336.15 325.55 336.2 Q371.9 346.85 385.7 381.75 386.15 382.85 386.15 384.0 L386.15 767.85 Q386.15 769.5 385.85 769.5 L386.15 773.85 Q386.15 776.35 384.4 778.1 382.65 779.85 380.15 779.85 L379.4 779.85 319.0 767.85 374.15 768.0 374.15 385.2 Q361.7 356.85 322.95 347.95 L34.35 301.9 33.7 301.8 29.45 301.1 85.1 330.75 Q119.1 349.15 126.25 380.6 L126.3 380.9 Q128.4 389.1 128.25 397.95 L128.25 398.0 128.25 398.1 128.25 767.85 Q129.35 778.95 121.4 779.35 129.35 778.95 128.25 767.85 L129.05 767.85 Q130.3 779.5 121.5 779.35 L121.4 779.35 121.3 779.35 121.05 779.35 121.0 779.35 120.15 779.2 121.0 779.35 120.55 779.3 120.15 779.2 78.3 766.85 116.25 767.0 116.25 398.3 114.55 383.25 114.55 383.2 Q108.1 356.85 79.4 341.3 L1.45 299.35 -84.8 345.3 -85.05 345.4 Q-123.1 363.6 -127.65 386.55 L-127.65 768.0 -79.65 766.85 -125.05 779.85 -125.2 779.85 Q-130.1 780.9 -134.65 778.5 -139.25 776.1 -139.75 770.05 L-139.75 767.85 -139.65 767.85 -139.65 386.0 -139.55 385.1 Q-135.7 356.35 -90.25 334.6 L-90.45 334.7 -24.45 299.85 -23.7 299.4 -336.7 348.0 -336.3 347.95 Q-371.15 355.45 -383.55 385.2 L-385.5 767.95 -316.9 766.0 M-1.7 290.05 L-24.45 299.85 -1.7 290.05 M8.3 292.05 L33.7 301.8 8.3 292.05 M-27.7 -231.8 L-15.7 -231.8 -15.7 93.45 -15.7 208.05 Q-15.7 210.55 -17.45 212.3 -19.2 214.05 -21.7 214.05 -24.2 214.05 -25.95 212.3 -27.7 210.55 -27.7 208.05 L-27.7 93.45 -27.7 -231.8" fill="#cccc99" fill-rule="evenodd" stroke="none"/>
    <path d="M319.0 767.85 L379.4 779.85 380.15 779.85 Q382.65 779.85 384.4 778.1 386.15 776.35 386.15 773.85 L385.85 769.5 Q386.15 769.5 386.15 767.85 L386.15 384.0 Q386.15 382.85 385.7 381.75 371.9 346.85 325.55 336.2 L325.1 336.15 10.3 288.9 10.3 250.05 Q10.3 247.55 8.55 245.8 6.8 244.05 4.3 244.05 1.8 244.05 0.05 245.8 -1.7 247.55 -1.7 250.05 L-1.7 286.9 -338.45 336.15 -338.85 336.2 Q-380.85 345.25 -395.1 381.8 -395.55 382.85 -395.55 384.0 L-397.5 767.85 Q-398.2 773.05 -396.35 777.85 -395.7 779.5 -394.05 779.95 -388.55 781.3 -382.75 779.85 L-316.9 766.0 M-385.5 767.95 L-383.55 385.2 Q-371.15 355.45 -336.3 347.95 L-336.7 348.0 -23.7 299.4 -24.45 299.85 -90.45 334.7 -90.25 334.6 Q-135.7 356.35 -139.55 385.1 L-139.65 386.0 -139.65 767.85 -139.75 767.85 -139.75 770.05 Q-139.25 776.1 -134.65 778.5 -130.1 780.9 -125.2 779.85 L-125.05 779.85 -79.65 766.85 M-127.65 768.0 L-127.65 386.55 Q-123.1 363.6 -85.05 345.4 L-84.8 345.3 1.45 299.35 79.4 341.3 Q108.1 356.85 114.55 383.2 L114.55 383.25 116.25 398.3 116.25 767.0 M78.3 766.85 L120.15 779.2 121.0 779.35 121.05 779.35 121.3 779.35 121.4 779.35 Q129.35 778.95 128.25 767.85 L128.25 398.1 128.25 398.0 128.25 397.95 Q128.4 389.1 126.3 380.9 L126.25 380.6 Q119.1 349.15 85.1 330.75 L29.45 301.1 33.7 301.8 M34.35 301.9 L322.95 347.95 Q361.7 356.85 374.15 385.2 L374.15 768.0 M120.15 779.2 L120.55 779.3 M121.4 779.35 L121.5 779.35" fill="none" stroke="#666666" stroke-linecap="round" stroke-linejoin="round" stroke-width="2.0"/>
    <path d="M24.3 93.45 L24.3 200.05 Q24.3 202.55 26.05 204.3 27.8 206.05 30.3 206.05 32.8 206.05 34.55 204.3 36.3 202.55 36.3 200.05 L36.3 93.45 M-27.7 93.45 L-27.7 208.05 Q-27.7 210.55 -25.95 212.3 -24.2 214.05 -21.7 214.05 -19.2 214.05 -17.45 212.3 -15.7 210.55 -15.7 208.05 L-15.7 93.45" fill="none" stroke="#666666" stroke-linecap="round" stroke-linejoin="round" stroke-width="0.05"/>
    <path d="M-24.45 299.85 L-1.7 290.05 M33.7 301.8 L8.3 292.05 M33.7 301.8 L34.35 301.9 M-24.45 299.85 L-29.7 302.05" fill="none" stroke="#333333" stroke-linecap="round" stroke-linejoin="round" stroke-width="0.05"/>
    <path d="M24.3 -231.8 L24.3 93.45 M36.3 93.45 L36.3 -231.8 M-27.7 -231.8 L-27.7 93.45 M-15.7 93.45 L-15.7 -231.8" fill="none" stroke="#666666" stroke-linecap="round" stroke-linejoin="round" stroke-width="0.05"/>
  </g>
</svg>
