<?xml version="1.0" encoding="UTF-8" standalone="no"?>
<svg xmlns:ffdec="https://www.free-decompiler.com/flash" xmlns:xlink="http://www.w3.org/1999/xlink" ffdec:objectType="shape" height="70.5px" width="70.5px" xmlns="http://www.w3.org/2000/svg">
  <g transform="matrix(1.0, 0.0, 0.0, 1.0, 35.25, 35.25)">
    <path d="M23.5 -23.5 Q33.25 -13.75 33.25 0.0 33.25 13.75 23.5 23.5 13.75 33.25 0.0 33.25 -13.75 33.25 -23.5 23.5 -33.25 13.75 -33.25 0.0 -33.25 -13.75 -23.5 -23.5 -13.75 -33.25 0.0 -33.25 13.75 -33.25 23.5 -23.5" fill="#bfbfbf" fill-rule="evenodd" stroke="none"/>
    <path d="M23.5 -23.5 Q33.25 -13.75 33.25 0.0 33.25 13.75 23.5 23.5 13.75 33.25 0.0 33.25 -13.75 33.25 -23.5 23.5 -33.25 13.75 -33.25 0.0 -33.25 -13.75 -23.5 -23.5 -13.75 -33.25 0.0 -33.25 13.75 -33.25 23.5 -23.5 Z" fill="none" stroke="#000000" stroke-linecap="round" stroke-linejoin="round" stroke-width="4.0"/>
  </g>
</svg>
