<?xml version="1.0" encoding="UTF-8" standalone="no"?>
<svg xmlns:ffdec="https://www.free-decompiler.com/flash" xmlns:xlink="http://www.w3.org/1999/xlink" ffdec:objectType="shape" height="82.0px" width="30.0px" xmlns="http://www.w3.org/2000/svg">
  <g transform="matrix(1.0, 0.0, 0.0, 1.0, 15.0, 41.0)">
    <path d="M9.45 -35.5 Q13.0 -31.95 13.0 -27.0 L13.0 27.0 Q13.0 31.95 9.45 35.45 5.95 39.0 1.0 39.0 L-1.0 39.0 Q-5.95 39.0 -9.5 35.45 -13.0 31.95 -13.0 27.0 L-13.0 -27.0 Q-13.0 -31.95 -9.5 -35.5 -5.95 -39.0 -1.0 -39.0 L1.0 -39.0 Q5.95 -39.0 9.45 -35.5" fill="#d0d0d0" fill-rule="evenodd" stroke="none"/>
    <path d="M9.45 -35.5 Q5.95 -39.0 1.0 -39.0 L-1.0 -39.0 Q-5.95 -39.0 -9.5 -35.5 -13.0 -31.95 -13.0 -27.0 L-13.0 27.0 Q-13.0 31.95 -9.5 35.45 -5.95 39.0 -1.0 39.0 L1.0 39.0 Q5.95 39.0 9.45 35.45 13.0 31.95 13.0 27.0 L13.0 -27.0 Q13.0 -31.95 9.45 -35.5 Z" fill="none" stroke="#000000" stroke-linecap="round" stroke-linejoin="round" stroke-width="4.0"/>
  </g>
</svg>
