<?xml version="1.0" encoding="UTF-8" standalone="no"?>
<svg xmlns:ffdec="https://www.free-decompiler.com/flash" xmlns:xlink="http://www.w3.org/1999/xlink" ffdec:objectType="shape" height="278.25px" width="122.05px" xmlns="http://www.w3.org/2000/svg">
  <g transform="matrix(1.0, 0.0, 0.0, 1.0, 61.05, 139.1)">
    <path d="M39.25 -86.8 L36.95 -82.85 27.65 -44.0 Q26.1 -37.55 23.6 -31.25 21.2 -30.4 19.3 -28.35 16.05 -24.8 16.1 -19.85 16.05 -18.3 16.4 -16.85 11.9 -9.4 5.8 -3.1 5.05 -2.35 4.6 -1.3 -2.35 16.1 -7.55 34.25 -12.8 52.4 -17.2 70.8 -19.2 79.25 -20.5 87.65 L-20.6 88.35 Q-24.45 88.75 -28.0 90.15 -35.05 92.9 -35.05 98.15 -35.05 104.65 -30.85 107.1 -27.2 109.2 -21.55 107.85 L-20.0 107.55 Q-17.45 123.25 -5.25 133.4 L-3.05 135.15 -2.1 137.4 Q-7.35 139.15 -15.05 139.15 -26.4 139.15 -30.6 136.4 -32.7 135.0 -35.5 131.8 L-42.05 124.15 Q-44.0 121.85 -47.8 119.25 L-54.0 114.95 Q-61.05 109.45 -61.05 101.15 -61.05 96.6 -60.65 95.55 -59.8 93.15 -56.05 92.15 L-55.45 92.05 -55.85 90.25 Q-58.75 76.85 -48.4 45.35 -38.05 13.85 -38.05 3.15 -38.05 -5.75 -43.05 -12.45 -45.7 -16.0 -46.5 -17.7 -48.05 -20.95 -48.05 -25.35 -48.05 -32.05 -46.4 -34.35 -44.8 -36.7 -41.8 -39.75 -38.85 -42.8 -36.45 -47.35 -34.05 -51.95 -31.2 -55.7 -28.35 -59.5 -24.2 -71.05 -22.45 -76.05 -21.4 -79.85 L-21.4 -79.95 -21.35 -80.05 -21.85 -80.35 -23.0 -81.65 Q-25.45 -84.6 -26.85 -87.65 -29.05 -92.5 -29.05 -97.35 -29.05 -99.5 -26.7 -105.55 L-25.95 -107.3 -24.2 -106.6 -24.55 -110.4 Q-24.85 -114.85 -24.65 -121.75 L-24.65 -121.85 -24.15 -121.8 Q-23.1 -115.55 -21.55 -111.4 L-20.3 -108.3 Q-18.7 -104.85 -16.5 -101.55 -10.75 -92.85 -2.9 -88.75 -0.65 -89.35 1.55 -90.35 6.95 -92.85 11.95 -92.85 L16.05 -92.75 17.15 -90.6 Q18.5 -88.6 21.85 -85.95 L26.95 -79.85 Q27.8 -87.05 26.6 -94.2 25.5 -100.65 31.65 -101.3 41.0 -102.55 44.8 -93.65 L43.85 -92.25 Q41.25 -89.8 39.25 -86.8 M-12.05 -84.85 Q-21.7 -90.65 -24.2 -106.6 -21.7 -90.65 -12.05 -84.85 M-4.2 -67.75 Q-14.3 -65.0 -15.15 -54.25 -16.15 -41.8 -21.65 -30.6 -22.85 -28.2 -23.4 -25.55 -26.55 -10.1 -26.9 5.9 -27.0 9.4 -27.6 12.9 -31.1 32.35 -40.35 49.8 -46.45 61.4 -46.25 74.65 -46.2 76.55 -45.05 78.15 -37.85 76.95 -37.05 68.9 -35.5 53.8 -29.35 40.0 -26.25 32.95 -22.55 26.05 -16.8 15.5 -17.3 3.4 -17.4 0.9 -16.8 -1.5 -11.75 -22.75 0.4 -41.2 7.5 -52.05 6.95 -64.8 2.95 -69.8 -4.2 -67.75 M-54.05 99.15 L-55.45 92.05 -54.05 99.15" fill="#c4874d" fill-rule="evenodd" stroke="none"/>
    <path d="M44.8 -93.65 Q41.0 -102.55 31.65 -101.3 25.5 -100.65 26.6 -94.2 27.8 -87.05 26.95 -79.85 L21.85 -85.95 Q18.5 -88.6 17.15 -90.6 L16.05 -92.75 15.65 -93.85 Q14.95 -96.1 14.95 -98.85 14.95 -101.75 16.95 -107.75 18.95 -113.7 18.95 -117.85 18.95 -123.95 16.45 -129.35 14.25 -134.05 14.0 -137.7 25.55 -143.15 36.05 -127.5 46.55 -111.85 46.25 -103.05 46.05 -96.4 44.8 -93.65 M-24.65 -121.85 L-24.65 -121.75 Q-24.85 -114.85 -24.55 -110.4 L-25.95 -107.4 -25.95 -107.3 -26.7 -105.55 Q-29.05 -99.5 -29.05 -97.35 -29.05 -92.5 -26.85 -87.65 -25.45 -84.6 -23.0 -81.65 L-21.85 -80.35 -23.35 -81.3 Q-33.2 -87.7 -39.1 -94.7 -45.7 -102.55 -45.05 -111.7 -44.4 -120.9 -41.1 -126.4 -37.8 -131.95 -36.05 -132.85 -24.8 -141.05 -24.05 -133.85 L-24.55 -124.6 -24.55 -124.3 -24.65 -121.85" fill="#664422" fill-rule="evenodd" stroke="none"/>
    <path d="M36.95 -82.85 L39.25 -86.8 Q41.3 -85.3 42.95 -83.4 46.95 -78.85 50.15 -71.75 L51.65 -67.85 56.3 -49.9 59.8 -28.85 Q64.05 8.45 53.1 35.45 38.85 70.4 30.45 76.3 22.0 82.2 19.1 86.2 16.2 90.15 13.7 99.0 11.15 107.8 10.55 119.7 9.35 129.2 4.55 133.6 1.95 136.0 -2.1 137.4 L-3.05 135.15 -5.25 133.4 Q-17.45 123.25 -20.0 107.55 L-20.0 107.45 Q-15.65 106.1 -12.25 103.15 -8.05 99.5 -8.05 95.65 -8.05 94.0 -11.05 91.2 -14.3 88.15 -17.05 88.15 L-20.5 87.65 Q-19.2 79.25 -17.2 70.8 -12.8 52.4 -7.55 34.25 -2.35 16.1 4.6 -1.3 5.05 -2.35 5.8 -3.1 11.9 -9.4 16.4 -16.85 17.1 -13.8 19.3 -11.4 22.55 -7.85 27.1 -7.85 31.6 -7.85 34.85 -11.4 38.1 -14.9 38.1 -19.85 38.1 -24.8 34.85 -28.35 31.6 -31.85 27.1 -31.85 25.25 -31.85 23.6 -31.25 26.1 -37.55 27.65 -44.0 L36.95 -82.85" fill="#80552b" fill-rule="evenodd" stroke="none"/>
    <path d="M23.6 -31.25 Q25.25 -31.85 27.1 -31.85 31.6 -31.85 34.85 -28.35 38.1 -24.8 38.1 -19.85 38.1 -14.9 34.85 -11.4 31.6 -7.85 27.1 -7.85 22.55 -7.85 19.3 -11.4 17.1 -13.8 16.4 -16.85 16.05 -18.3 16.1 -19.85 16.05 -24.8 19.3 -28.35 21.2 -30.4 23.6 -31.25 M-17.05 88.15 Q-14.3 88.15 -11.05 91.2 -8.05 94.0 -8.05 95.65 -8.05 99.5 -12.25 103.15 -15.65 106.1 -20.0 107.45 L-21.55 107.85 Q-27.2 109.2 -30.85 107.1 -35.05 104.65 -35.05 98.15 -35.05 92.9 -28.0 90.15 -24.45 88.75 -20.6 88.35 L-17.05 88.15" fill="#000000" fill-rule="evenodd" stroke="none"/>
    <path d="M-24.15 -121.8 L-24.65 -121.85 -24.55 -124.3 -24.15 -121.8 M-24.55 -110.4 L-24.2 -106.6 -25.95 -107.4 -24.55 -110.4" fill="#8c6851" fill-rule="evenodd" stroke="none"/>
    <path d="M-25.95 -107.3 L-25.95 -107.4 -24.2 -106.6 -25.95 -107.3" fill="#6d513e" fill-rule="evenodd" stroke="none"/>
    <path d="M-21.4 -79.85 L-23.35 -81.3 -21.85 -80.35 -21.4 -79.85" fill="#4b372c" fill-rule="evenodd" stroke="none"/>
    <path d="M-4.2 -67.75 Q2.95 -69.8 6.95 -64.8 7.5 -52.05 0.4 -41.2 -11.75 -22.75 -16.8 -1.5 -17.4 0.9 -17.3 3.4 -16.8 15.5 -22.55 26.05 -26.25 32.95 -29.35 40.0 -35.5 53.8 -37.05 68.9 -37.85 76.95 -45.05 78.15 -46.2 76.55 -46.25 74.65 -46.45 61.4 -40.35 49.8 -31.1 32.35 -27.6 12.9 -27.0 9.4 -26.9 5.9 -26.55 -10.1 -23.4 -25.55 -22.85 -28.2 -21.65 -30.6 -16.15 -41.8 -15.15 -54.25 -14.3 -65.0 -4.2 -67.75" fill="#ddbb99" fill-rule="evenodd" stroke="none"/>
    <path d="M36.95 -82.85 L39.25 -86.8 Q41.25 -89.8 43.85 -92.25 L44.8 -93.65 Q46.05 -96.4 46.25 -103.05 46.55 -111.85 36.05 -127.5 25.55 -143.15 14.0 -137.7 L12.95 -137.85 M21.85 -85.95 Q18.5 -88.6 17.15 -90.6 L16.05 -92.75 11.95 -92.85 Q6.95 -92.85 1.55 -90.35 -0.65 -89.35 -2.9 -88.75 -10.75 -92.85 -16.5 -101.55 -18.7 -104.85 -20.3 -108.3 L-21.55 -111.4 Q-23.1 -115.55 -24.15 -121.8 L-24.55 -124.3 -24.65 -121.85 -24.65 -121.75 Q-24.85 -114.85 -24.55 -110.4 L-24.2 -106.6 Q-21.7 -90.65 -12.05 -84.85 M39.25 -86.8 Q41.3 -85.3 42.95 -83.4 46.95 -78.85 50.15 -71.75 L51.65 -67.85 56.3 -49.9 59.8 -28.85 Q64.05 8.45 53.1 35.45 38.85 70.4 30.45 76.3 22.0 82.2 19.1 86.2 16.2 90.15 13.7 99.0 11.15 107.8 10.55 119.7 9.35 129.2 4.55 133.6 1.95 136.0 -2.1 137.4 -7.35 139.15 -15.05 139.15 -26.4 139.15 -30.6 136.4 -32.7 135.0 -35.5 131.8 L-42.05 124.15 Q-44.0 121.85 -47.8 119.25 L-54.0 114.95 Q-61.05 109.45 -61.05 101.15 -61.05 96.6 -60.65 95.55 -59.8 93.15 -56.05 92.15 L-55.85 90.25 Q-58.75 76.85 -48.4 45.35 -38.05 13.85 -38.05 3.15 -38.05 -5.75 -43.05 -12.45 -45.7 -16.0 -46.5 -17.7 -48.05 -20.95 -48.05 -25.35 -48.05 -32.05 -46.4 -34.35 -44.8 -36.7 -41.8 -39.75 -38.85 -42.8 -36.45 -47.35 -34.05 -51.95 -31.2 -55.7 -28.35 -59.5 -24.2 -71.05 -22.45 -76.05 -21.4 -79.85 L-21.4 -79.95 -21.35 -80.05 -21.85 -80.35 -23.35 -81.3 Q-33.2 -87.7 -39.1 -94.7 -45.7 -102.55 -45.05 -111.7 -44.4 -120.9 -41.1 -126.4 -37.8 -131.95 -36.05 -132.85 -24.8 -141.05 -24.05 -133.85 L-24.55 -124.6 -24.55 -124.3 M16.05 -92.75 L15.65 -93.85 Q14.95 -96.1 14.95 -98.85 14.95 -101.75 16.95 -107.75 18.95 -113.7 18.95 -117.85 18.95 -123.95 16.45 -129.35 14.25 -134.05 14.0 -137.7 L13.95 -138.4 M-55.45 92.05 L-54.05 99.15" fill="none" stroke="#000000" stroke-linecap="round" stroke-linejoin="round" stroke-width="0.05"/>
  </g>
</svg>
