<?xml version="1.0" encoding="UTF-8" standalone="no"?>
<svg xmlns:ffdec="https://www.free-decompiler.com/flash" xmlns:xlink="http://www.w3.org/1999/xlink" ffdec:objectType="shape" height="114.45px" width="149.3px" xmlns="http://www.w3.org/2000/svg">
  <g transform="matrix(1.0, 0.0, 0.0, 1.0, 74.65, 57.2)">
    <path d="M10.25 -51.55 Q10.6 -49.25 10.25 -39.1 9.95 -30.55 11.45 -26.65 13.6 -21.0 20.1 -21.0 24.25 -21.0 37.8 -30.85 51.35 -40.7 55.6 -40.8 59.8 -40.95 60.9 -38.25 62.0 -35.55 59.2 -31.55 54.6 -26.9 44.25 -22.05 33.85 -17.25 33.2 -10.9 32.5 -4.6 38.55 -3.85 41.0 -3.55 52.15 -3.85 61.7 -4.1 66.45 -2.75 73.35 -0.7 74.65 5.45 75.0 9.05 67.3 9.6 L50.8 10.05 Q39.7 10.05 38.45 10.35 34.3 11.3 34.3 16.7 34.3 21.25 37.55 24.9 39.25 26.85 44.65 30.8 49.65 34.45 51.7 37.2 54.95 41.4 54.25 44.45 53.5 47.5 53.45 49.2 53.35 50.9 47.65 51.35 41.95 51.75 32.45 39.4 L25.8 30.85 Q22.3 27.0 19.65 27.0 14.55 27.0 12.7 31.75 11.45 34.8 11.3 42.15 11.05 50.05 10.4 52.5 9.1 57.25 5.0 57.25 -0.3 57.25 -1.95 52.95 -2.8 50.85 -3.15 43.5 -3.5 36.9 -5.25 34.05 -7.9 29.75 -14.9 29.75 -20.7 29.75 -28.75 35.05 -36.85 40.3 -43.95 40.3 -48.65 40.3 -49.9 39.35 -51.25 38.35 -51.25 34.5 -51.25 31.95 -47.65 30.25 -46.15 29.5 -39.8 27.6 -34.35 26.0 -31.95 24.35 -28.35 21.9 -28.35 18.1 -28.35 9.6 -45.3 9.6 L-60.9 10.5 -71.05 10.5 Q-74.65 9.8 -74.65 4.75 -74.65 1.6 -68.2 0.75 -64.5 0.25 -54.0 0.45 L-39.85 0.05 Q-33.4 -0.9 -33.4 -4.3 -33.4 -7.4 -36.85 -9.7 -38.75 -10.95 -44.4 -13.2 -49.8 -15.3 -51.95 -16.9 -55.4 -19.35 -55.4 -22.85 -55.4 -26.55 -50.6 -26.55 -46.75 -26.55 -37.9 -21.25 -29.05 -16.0 -22.9 -16.45 -20.9 -18.4 -20.1 -18.7 -19.2 -19.05 -19.2 -22.4 -19.2 -25.9 -28.1 -35.2 -37.05 -44.45 -37.05 -48.35 -37.05 -49.95 -36.15 -50.4 L-31.8 -50.85 Q-24.65 -50.85 -17.85 -39.8 L-13.0 -32.25 Q-10.25 -28.8 -7.5 -28.8 -3.25 -28.8 -2.2 -33.25 -1.6 -35.7 -1.9 -43.0 -2.15 -49.95 -1.2 -52.75 0.25 -57.2 5.2 -57.2 9.45 -57.2 10.25 -51.55" fill="#cc3300" fill-rule="evenodd" stroke="none"/>
  </g>
</svg>
