<?xml version="1.0" encoding="UTF-8" standalone="no"?>
<svg xmlns:ffdec="https://www.free-decompiler.com/flash" xmlns:xlink="http://www.w3.org/1999/xlink" ffdec:objectType="shape" height="36.25px" width="59.4px" xmlns="http://www.w3.org/2000/svg">
  <g transform="matrix(1.0, 0.0, 0.0, 1.0, 29.65, 32.3)">
    <path d="M-2.4 -23.6 Q-0.95 -18.9 -0.95 -12.2 -0.95 -5.5 -2.4 -0.75 -3.9 3.95 -5.95 3.95 -8.0 3.95 -9.45 -0.75 -10.95 -5.5 -10.95 -12.2 -10.95 -18.9 -9.45 -23.6 -8.0 -28.35 -5.95 -28.35 -3.9 -28.35 -2.4 -23.6 M-25.95 -32.3 Q-24.4 -32.3 -23.3 -29.05 -22.25 -25.85 -22.25 -21.25 -22.25 -16.65 -23.3 -13.4 -24.4 -10.2 -25.95 -10.2 -27.5 -10.2 -28.55 -13.4 -29.65 -16.65 -29.65 -21.25 -29.65 -25.85 -28.55 -29.05 -27.5 -32.3 -25.95 -32.3 M28.3 -26.4 Q29.75 -22.8 29.75 -17.65 29.75 -12.5 28.3 -8.85 26.8 -5.25 24.7 -5.25 22.6 -5.25 21.15 -8.85 19.65 -12.5 19.65 -17.65 19.65 -22.8 21.15 -26.4 22.6 -30.05 24.7 -30.05 26.8 -30.05 28.3 -26.4" fill="#fd3535" fill-rule="evenodd" stroke="none"/>
  </g>
</svg>
