<?xml version="1.0" encoding="UTF-8" standalone="no"?>
<svg xmlns:ffdec="https://www.free-decompiler.com/flash" xmlns:xlink="http://www.w3.org/1999/xlink" ffdec:objectType="shape" height="33.65px" width="57.7px" xmlns="http://www.w3.org/2000/svg">
  <g transform="matrix(1.0, 0.0, 0.0, 1.0, 29.75, -61.75)">
    <path d="M-26.35 68.8 Q-24.95 68.8 -23.95 72.7 -22.95 76.6 -22.95 82.1 -22.95 87.6 -23.95 91.5 -24.95 95.4 -26.35 95.4 -27.75 95.4 -28.75 91.5 -29.75 87.6 -29.75 82.1 -29.75 76.6 -28.75 72.7 -27.75 68.8 -26.35 68.8 M-8.9 65.2 Q-7.75 61.75 -6.1 61.75 -4.45 61.75 -3.25 65.2 -2.1 68.65 -2.1 73.55 -2.1 78.45 -3.25 81.9 -4.45 85.35 -6.1 85.35 -7.75 85.35 -8.9 81.9 -10.1 78.45 -10.1 73.55 -10.1 68.65 -8.9 65.2 M27.25 63.9 Q27.95 66.0 27.95 69.0 27.95 72.0 27.25 74.1 26.5 76.2 25.45 76.2 24.4 76.2 23.7 74.1 22.95 72.0 22.95 69.0 22.95 66.0 23.7 63.9 24.4 61.8 25.45 61.8 26.5 61.8 27.25 63.9" fill="#fd3535" fill-rule="evenodd" stroke="none"/>
  </g>
</svg>
