<?xml version="1.0" encoding="UTF-8" standalone="no"?>
<svg xmlns:ffdec="https://www.free-decompiler.com/flash" xmlns:xlink="http://www.w3.org/1999/xlink" ffdec:objectType="shape" height="46.9px" width="49.35px" xmlns="http://www.w3.org/2000/svg">
  <g transform="matrix(1.0, 0.0, 0.0, 1.0, 34.2, 35.6)">
    <path d="M-26.75 -31.05 Q-25.5 -26.5 -25.5 -20.05 -25.5 -13.6 -26.75 -9.05 -28.05 -4.5 -29.85 -4.5 -31.65 -4.5 -32.9 -9.05 -34.2 -13.6 -34.2 -20.05 -34.2 -26.5 -32.9 -31.05 -31.65 -35.6 -29.85 -35.6 -28.05 -35.6 -26.75 -31.05 M13.7 -16.5 Q15.15 -11.75 15.15 -5.0 15.15 1.75 13.7 6.55 12.2 11.3 10.1 11.3 8.0 11.3 6.55 6.55 5.05 1.75 5.05 -5.0 5.05 -11.75 6.55 -16.5 8.0 -21.3 10.1 -21.3 12.2 -21.3 13.7 -16.5" fill="#fd3535" fill-rule="evenodd" stroke="none"/>
  </g>
</svg>
