<?xml version="1.0" encoding="UTF-8" standalone="no"?>
<svg xmlns:ffdec="https://www.free-decompiler.com/flash" xmlns:xlink="http://www.w3.org/1999/xlink" ffdec:objectType="shape" height="37.95px" width="43.65px" xmlns="http://www.w3.org/2000/svg">
  <g transform="matrix(1.0, 0.0, 0.0, 1.0, 26.65, -37.2)">
    <path d="M-20.9 37.2 Q-18.5 37.2 -16.8 42.2 -15.15 47.2 -15.15 54.3 -15.15 61.4 -16.8 66.4 -18.5 71.4 -20.9 71.4 -23.3 71.4 -24.95 66.4 -26.65 61.4 -26.65 54.3 -26.65 47.2 -24.95 42.2 -23.3 37.2 -20.9 37.2 M15.85 53.05 Q17.0 56.85 17.0 62.2 17.0 67.55 15.85 71.35 14.65 75.15 12.95 75.15 11.25 75.15 10.1 71.35 8.9 67.55 8.9 62.2 8.9 56.85 10.1 53.05 11.25 49.25 12.95 49.25 14.65 49.25 15.85 53.05" fill="#fd3535" fill-rule="evenodd" stroke="none"/>
  </g>
</svg>
