<?xml version="1.0" encoding="UTF-8" standalone="no"?>
<svg xmlns:ffdec="https://www.free-decompiler.com/flash" xmlns:xlink="http://www.w3.org/1999/xlink" ffdec:objectType="shape" height="164.65px" width="497.6px" xmlns="http://www.w3.org/2000/svg">
  <g transform="matrix(1.0, 0.0, 0.0, 1.0, 334.25, 69.35)">
    <path d="M-9.7 -32.85 Q9.35 -33.5 25.7 -23.35 L29.15 -11.65 Q15.7 -12.35 3.3 -12.4 L-9.7 -12.25 -9.7 -32.85 -9.7 -12.25 3.3 -12.4 Q15.7 -12.35 29.15 -11.65 39.3 -9.5 46.45 -3.9 46.9 -6.0 48.2 -7.75 L48.05 -8.05 Q52.9 -15.0 64.4 -16.05 L80.4 -16.05 80.4 -0.05 65.8 -0.05 Q57.55 -0.35 52.95 -2.9 L52.75 -2.25 52.75 -2.15 Q52.35 -0.35 52.35 1.65 L52.35 1.9 Q55.4 5.65 57.65 10.35 89.65 13.85 101.75 20.3 L105.3 24.15 127.65 48.4 139.3 55.3 Q161.15 59.1 161.8 67.85 162.7 78.3 141.05 80.75 L140.9 80.85 140.85 80.9 Q122.65 91.85 45.55 93.3 19.4 93.9 -2.4 93.8 L-61.15 91.65 -80.15 89.45 -170.0 71.3 -174.3 82.1 -198.5 80.8 -207.1 63.75 -236.05 57.9 -239.65 60.4 Q-251.4 67.95 -269.0 70.3 -294.25 73.55 -329.7 42.45 L-307.1 -0.05 -332.75 -67.8 Q-307.2 -68.35 -295.65 -61.4 L-253.7 -0.2 -237.8 22.95 -237.7 23.1 -227.75 23.1 -232.65 13.4 -232.65 13.0 -202.85 13.4 -195.95 23.05 -137.6 22.9 -68.9 -5.6 -42.1 -25.05 Q-28.7 -33.2 -10.15 -32.85 L-9.7 -32.85 M-253.7 -0.2 L-307.1 -0.05 -253.7 -0.2 M48.2 -7.75 Q49.6 -4.75 52.95 -2.9 49.6 -4.75 48.2 -7.75 M52.35 1.9 Q52.5 4.35 54.7 13.45 55.0 14.75 54.35 15.9 53.65 17.05 52.35 17.35 51.0 17.65 49.85 17.0 48.7 16.25 48.4 14.95 L47.65 11.75 47.6 11.55 Q45.8 3.7 45.85 1.65 45.85 -1.0 46.35 -3.4 L46.45 -3.9 46.35 -3.4 Q45.85 -1.0 45.85 1.65 45.8 3.7 47.6 11.55 L47.65 11.75 48.4 14.95 Q48.7 16.25 49.85 17.0 51.0 17.65 52.35 17.35 53.65 17.05 54.35 15.9 55.0 14.75 54.7 13.45 52.5 4.35 52.35 1.9 M-55.0 26.1 Q-29.45 22.5 -2.45 21.15 L-2.4 21.15 3.3 20.9 13.15 20.55 Q25.55 20.25 38.25 20.4 70.8 20.75 105.3 24.15 70.8 20.75 38.25 20.4 25.55 20.25 13.15 20.55 L3.3 20.9 -2.4 21.15 -2.45 21.15 Q-29.45 22.5 -55.0 26.1 L-55.1 25.5 -55.25 -7.75 Q-34.9 -11.55 -9.7 -12.25 -34.9 -11.55 -55.25 -7.75 L-55.1 25.5 -55.0 26.1 -55.05 26.1 -55.0 26.1 M-61.5 27.05 Q-78.5 29.65 -94.85 33.25 L-188.6 33.3 -94.85 33.25 Q-78.5 29.65 -61.5 27.05 L-61.45 27.05 -55.05 26.1 -61.45 27.05 -61.5 27.05 -61.15 91.65 -61.5 27.05 M-2.4 21.5 L-2.4 93.8 -2.4 21.5 M-237.85 23.1 L-237.8 22.95 -237.85 23.1 -240.0 33.35 -222.55 33.35 -240.0 33.35 -237.85 23.1 M-170.0 71.3 L-166.95 63.55 -188.6 33.3 -195.95 23.05 -188.6 33.3 -166.95 63.55 -170.0 71.3 M-207.1 63.75 L-222.55 33.35 -227.75 23.1 -222.55 33.35 -207.1 63.75 M-239.6 37.8 L-239.95 37.85 -239.6 37.8 M-277.15 14.05 L-277.2 14.05 Q-286.4 14.0 -292.9 20.55 -299.45 27.05 -299.4 36.25 L-299.4 36.3 Q-299.45 45.45 -292.9 52.0 -286.4 58.45 -277.2 58.5 L-277.15 58.5 Q-268.0 58.45 -261.45 52.0 -255.0 45.45 -254.95 36.3 L-254.95 36.25 Q-255.0 27.05 -261.45 20.55 -268.0 14.0 -277.15 14.05 M-267.95 36.3 Q-268.0 40.1 -270.65 42.8 -273.4 45.5 -277.2 45.55 -281.05 45.5 -283.75 42.8 -286.45 40.1 -286.45 36.3 L-286.45 36.25 Q-286.45 32.45 -283.75 29.75 -281.05 27.0 -277.2 27.05 -273.4 27.0 -270.65 29.75 -268.0 32.45 -267.95 36.25 L-267.95 36.3 M140.6 80.4 L140.15 71.75 139.3 55.3 140.15 71.75 140.6 80.4 M3.3 -12.4 L3.3 20.9 3.3 -12.4" fill="#000000" fill-rule="evenodd" stroke="none"/>
    <path d="M29.15 -11.65 L25.7 -23.35 Q9.35 -33.5 -9.7 -32.85 L-10.15 -32.85 Q-28.7 -33.2 -42.1 -25.05 L-68.9 -5.6 -137.6 22.9 -195.95 23.05 -188.6 33.3 -166.95 63.55 -170.0 71.3 -174.3 82.1 -198.5 80.8 -207.1 63.75 -236.05 57.9 -239.65 60.4 Q-251.4 67.95 -269.0 70.3 -294.25 73.55 -329.7 42.45 L-307.1 -0.05 -332.75 -67.8 Q-307.2 -68.35 -295.65 -61.4 L-253.7 -0.2 -237.8 22.95 -237.7 23.1 -227.75 23.1 -232.65 13.4 M29.15 -11.65 Q39.3 -9.5 46.45 -3.9 46.9 -6.0 48.2 -7.75 L48.05 -8.05 Q52.9 -15.0 64.4 -16.05 L80.4 -16.05 80.4 -0.05 65.8 -0.05 Q57.55 -0.35 52.95 -2.9 L52.75 -2.25 52.75 -2.15 Q52.35 -0.35 52.35 1.65 L52.35 1.9 Q55.4 5.65 57.65 10.35 89.65 13.85 101.75 20.3 L105.3 24.15 127.65 48.4 139.3 55.3 Q161.15 59.1 161.8 67.85 162.7 78.3 141.05 80.75 L140.9 80.85 140.85 80.9 Q122.65 91.85 45.55 93.3 19.4 93.9 -2.4 93.8 L-61.15 91.65 -80.15 89.45 -170.0 71.3 M-232.65 13.0 L-202.85 13.4 -195.95 23.05 M46.45 -3.9 L46.35 -3.4 Q45.85 -1.0 45.85 1.65 45.8 3.7 47.6 11.55 L47.65 11.75 48.4 14.95 Q48.7 16.25 49.85 17.0 51.0 17.65 52.35 17.35 53.65 17.05 54.35 15.9 55.0 14.75 54.7 13.45 52.5 4.35 52.35 1.9 M52.95 -2.9 Q49.6 -4.75 48.2 -7.75 M-307.1 -0.05 L-253.7 -0.2 M-55.0 26.1 L-55.05 26.1 M-237.8 22.95 L-237.85 23.1 M-222.55 33.35 L-227.75 23.1 M-239.95 37.85 L-239.6 37.8 M-222.55 33.35 L-207.1 63.75 M-277.15 14.05 Q-268.0 14.0 -261.45 20.55 -255.0 27.05 -254.95 36.25 L-254.95 36.3 Q-255.0 45.45 -261.45 52.0 -268.0 58.45 -277.15 58.5 L-277.2 58.5 Q-286.4 58.45 -292.9 52.0 -299.45 45.45 -299.4 36.3 L-299.4 36.25 Q-299.45 27.05 -292.9 20.55 -286.4 14.0 -277.2 14.05 L-277.15 14.05 M-267.95 36.3 Q-268.0 40.1 -270.65 42.8 -273.4 45.5 -277.2 45.55 -281.05 45.5 -283.75 42.8 -286.45 40.1 -286.45 36.3 L-286.45 36.25 Q-286.45 32.45 -283.75 29.75 -281.05 27.0 -277.2 27.05 -273.4 27.0 -270.65 29.75 -268.0 32.45 -267.95 36.25 L-267.95 36.3 M139.3 55.3 L140.15 71.75 140.6 80.4" fill="none" stroke="#000000" stroke-linecap="round" stroke-linejoin="round" stroke-width="3.0"/>
    <path d="M-9.7 -32.85 L-9.7 -12.25 3.3 -12.4 Q15.7 -12.35 29.15 -11.65 M-55.0 26.1 L-55.1 25.5 -55.25 -7.75 Q-34.9 -11.55 -9.7 -12.25 M105.3 24.15 Q70.8 20.75 38.25 20.4 25.55 20.25 13.15 20.55 L3.3 20.9 -2.4 21.15 -2.45 21.15 Q-29.45 22.5 -55.0 26.1 M-55.05 26.1 L-61.45 27.05 -61.5 27.05 -61.15 91.65 M-2.4 93.8 L-2.4 21.5 M-188.6 33.3 L-94.85 33.25 Q-78.5 29.65 -61.5 27.05 M-237.85 23.1 L-240.0 33.35 -222.55 33.35 M3.3 20.9 L3.3 -12.4" fill="none" stroke="#751802" stroke-linecap="round" stroke-linejoin="round" stroke-width="3.0"/>
  </g>
</svg>
