<?xml version="1.0" encoding="UTF-8" standalone="no"?>
<svg xmlns:ffdec="https://www.free-decompiler.com/flash" xmlns:xlink="http://www.w3.org/1999/xlink" ffdec:objectType="shape" height="75.8px" width="678.15px" xmlns="http://www.w3.org/2000/svg">
  <g transform="matrix(1.0, 0.0, 0.0, 1.0, 331.85, 47.8)">
    <path d="M0.5 -25.0 L19.5 -20.6 19.5 -16.95 -1.35 -13.25 -1.5 -13.95 -19.45 -17.95 -19.45 -20.1 -18.45 -20.1 -18.45 -21.1 0.5 -25.0" fill="#000000" fill-rule="evenodd" stroke="none"/>
    <path d="M0.5 -25.0 L-18.45 -21.1 -18.45 -20.1 -19.45 -20.1 -19.45 -17.95 -1.5 -13.95 -1.35 -13.25 19.5 -16.95 19.5 -20.6 0.5 -25.0 M19.5 -16.25 L19.5 -8.0 M-19.45 -8.0 L-19.45 -17.3" fill="none" stroke="#000000" stroke-linecap="round" stroke-linejoin="round" stroke-width="4.0"/>
    <path d="M19.5 -8.0 L19.5 25.0 M-19.45 -8.0 L-19.45 25.0" fill="none" stroke="#000000" stroke-linecap="round" stroke-linejoin="round" stroke-width="4.0"/>
    <path d="M-0.45 -12.4 L-0.2 4.05 -0.15 -8.0 M0.35 25.0 L-0.2 4.05" fill="none" stroke="#000000" stroke-linecap="round" stroke-linejoin="round" stroke-width="6.0"/>
    <path d="M-318.3 -31.85 L-13.5 -27.65 -330.85 -10.8 -318.3 -31.85 M345.3 -46.8 L315.15 -27.65 -13.5 -27.65 345.3 -46.8" fill="#000000" fill-rule="evenodd" stroke="none"/>
    <path d="M345.3 -46.8 L-13.5 -27.65 315.15 -27.65 345.3 -46.8 M-318.3 -31.85 L-330.85 -10.8 -13.5 -27.65 -318.3 -31.85 Z" fill="none" stroke="#000000" stroke-linecap="round" stroke-linejoin="round" stroke-width="2.0"/>
  </g>
</svg>
