<?xml version="1.0" encoding="UTF-8" standalone="no"?>
<svg xmlns:ffdec="https://www.free-decompiler.com/flash" xmlns:xlink="http://www.w3.org/1999/xlink" ffdec:objectType="shape" height="131.1px" width="129.25px" xmlns="http://www.w3.org/2000/svg">
  <g transform="matrix(1.0, 0.0, 0.0, 1.0, 63.5, 63.35)">
    <path d="M-40.4 -37.1 L-37.1 -40.95 -39.5 -40.05 -40.4 -37.1 M6.65 -5.75 L5.95 -4.35 7.45 -3.9 8.75 3.65 22.2 1.4 22.05 14.85 35.85 11.55 37.1 23.45 43.5 21.25 46.7 16.6 49.5 17.8 39.1 47.9 62.75 26.45 65.75 27.4 53.85 50.9 56.95 51.95 46.35 67.75 42.85 56.25 26.6 63.15 23.75 62.4 41.5 30.0 24.15 30.15 23.35 28.05 25.6 23.25 13.1 17.8 15.0 10.7 1.25 8.7 2.0 -0.9 -10.3 2.1 -10.25 -4.8 -12.8 -6.5 -14.1 -17.1 -30.45 -8.4 -36.35 -9.1 -28.15 -35.5 -51.8 -21.6 -37.45 -49.5 -63.5 -41.3 -49.0 -63.35 -51.95 -53.7 -29.55 -53.5 -33.6 -42.5 -14.5 -43.55 -25.35 -21.5 -6.65 -23.9 -6.3 -15.55 5.95 -15.4 0.85 -9.45 6.65 -5.75" fill="#000000" fill-rule="evenodd" stroke="none"/>
  </g>
</svg>
