<?xml version="1.0" encoding="UTF-8" standalone="no"?>
<svg xmlns:ffdec="https://www.free-decompiler.com/flash" xmlns:xlink="http://www.w3.org/1999/xlink" ffdec:objectType="shape" height="140.5px" width="103.15px" xmlns="http://www.w3.org/2000/svg">
  <g transform="matrix(1.0, 0.0, 0.0, 1.0, 46.1, 69.75)">
    <path d="M57.05 -58.7 L49.15 -54.5 50.85 -52.9 Q52.65 -51.1 51.4 -49.25 45.25 -39.85 32.15 -45.4 L35.15 -42.65 Q37.55 -40.4 38.1 -37.45 40.45 -24.75 25.0 -29.15 25.75 -27.1 26.1 -25.0 27.65 -15.9 17.45 -15.85 L7.5 -2.2 Q9.2 -0.6 8.7 1.5 7.0 8.75 -0.95 9.05 L-0.7 15.6 -14.85 18.1 -8.05 29.6 -24.7 37.85 -11.7 53.2 -29.05 55.9 -12.3 68.1 -13.6 70.75 -46.1 57.9 -39.3 57.6 -38.15 59.9 -36.15 59.5 Q-41.85 46.2 -25.4 48.0 L-31.95 32.15 -17.0 30.0 Q-20.35 25.0 -22.4 19.45 -24.15 14.75 -19.8 12.05 -13.3 8.15 -8.2 8.1 L9.95 -14.2 8.35 -24.6 17.05 -25.5 16.95 -26.0 Q16.95 -40.5 29.55 -37.35 L21.3 -49.75 40.2 -53.1 30.6 -64.3 32.1 -69.75 57.05 -58.7" fill="#000000" fill-rule="evenodd" stroke="none"/>
  </g>
</svg>
