<?xml version="1.0" encoding="UTF-8" standalone="no"?>
<svg xmlns:ffdec="https://www.free-decompiler.com/flash" xmlns:xlink="http://www.w3.org/1999/xlink" ffdec:objectType="shape" height="49.95px" width="159.25px" xmlns="http://www.w3.org/2000/svg">
  <g transform="matrix(1.0, 0.0, 0.0, 1.0, 77.3, 24.45)">
    <path d="M-60.7 -14.0 Q-62.25 -12.35 -62.65 -10.0 -63.0 -7.8 -64.8 -7.3 -80.5 -2.5 -76.45 -19.15 L-71.4 -19.4 -70.2 -17.2 -61.6 -24.45 -41.1 -8.4 -40.25 -15.2 -23.7 -10.05 -19.7 -14.55 -9.35 -0.8 8.25 0.05 17.75 6.75 38.7 2.9 40.95 9.1 Q46.2 2.35 54.05 3.8 65.2 6.05 58.6 17.5 L71.2 9.8 81.95 23.8 80.6 25.3 71.05 18.35 50.9 25.5 51.25 12.75 36.55 20.1 33.25 11.9 16.65 17.65 5.7 4.95 -10.5 8.25 -18.4 -3.15 -20.25 -0.75 Q-21.6 1.15 -23.75 1.55 -31.65 2.65 -33.95 -7.15 L-36.75 -0.65 -60.7 -14.0" fill="#000000" fill-rule="evenodd" stroke="none"/>
  </g>
</svg>
