<?xml version="1.0" encoding="UTF-8" standalone="no"?>
<svg xmlns:ffdec="https://www.free-decompiler.com/flash" xmlns:xlink="http://www.w3.org/1999/xlink" ffdec:objectType="shape" height="99.95px" width="98.0px" xmlns="http://www.w3.org/2000/svg">
  <g transform="matrix(1.0, 0.0, 0.0, 1.0, -77.0, 49.95)">
    <path d="M80.7 -0.25 Q80.2 -1.85 81.0 -3.3 81.75 -4.8 83.35 -5.25 84.9 -5.75 86.4 -4.95 L163.5 35.9 163.5 -42.45 Q163.5 -44.1 164.7 -45.25 165.85 -46.45 167.5 -46.45 169.15 -46.45 170.35 -45.25 171.5 -44.1 171.5 -42.45 L171.5 42.5 Q171.5 43.9 170.6 45.05 169.7 46.15 168.3 46.45 166.9 46.7 165.65 46.05 L82.65 2.1 Q81.15 1.3 80.7 -0.25" fill="#cccccc" fill-rule="evenodd" stroke="none"/>
    <path d="M80.7 -0.25 Q81.15 1.3 82.65 2.1 L165.65 46.05 Q166.9 46.7 168.3 46.45 169.7 46.15 170.6 45.05 171.5 43.9 171.5 42.5 L171.5 -42.45 Q171.5 -44.1 170.35 -45.25 169.15 -46.45 167.5 -46.45 165.85 -46.45 164.7 -45.25 163.5 -44.1 163.5 -42.45 L163.5 35.9 86.4 -4.95 Q84.9 -5.75 83.35 -5.25 81.75 -4.8 81.0 -3.3 80.2 -1.85 80.7 -0.25 Z" fill="none" stroke="#000000" stroke-linecap="round" stroke-linejoin="round" stroke-width="7.0"/>
    <path d="M80.7 -0.25 Q80.2 -1.85 81.0 -3.3 81.75 -4.8 83.35 -5.25 84.9 -5.75 86.4 -4.95 L163.5 35.9 163.5 -42.45 Q163.5 -44.1 164.7 -45.25 165.85 -46.45 167.5 -46.45 169.15 -46.45 170.35 -45.25 171.5 -44.1 171.5 -42.45 L171.5 42.5 Q171.5 43.9 170.6 45.05 169.7 46.15 168.3 46.45 166.9 46.7 165.65 46.05 L82.65 2.1 Q81.15 1.3 80.7 -0.25" fill="#7e7c94" fill-rule="evenodd" stroke="none"/>
  </g>
</svg>
