<?xml version="1.0" encoding="UTF-8" standalone="no"?>
<svg xmlns:ffdec="https://www.free-decompiler.com/flash" xmlns:xlink="http://www.w3.org/1999/xlink" ffdec:objectType="shape" height="49.5px" width="49.5px" xmlns="http://www.w3.org/2000/svg">
  <g transform="matrix(1.0, 0.0, 0.0, 1.0, 24.75, 24.75)">
    <path d="M16.05 -16.1 Q22.75 -9.4 22.75 0.0 22.75 9.4 16.05 16.05 9.4 22.75 0.0 22.75 -9.4 22.75 -16.1 16.05 -22.75 9.4 -22.75 0.0 -22.75 -9.4 -16.1 -16.1 -9.4 -22.75 0.0 -22.75 9.4 -22.75 16.05 -16.1" fill="#000000" fill-rule="evenodd" stroke="none"/>
    <path d="M16.05 -16.1 Q22.75 -9.4 22.75 0.0 22.75 9.4 16.05 16.05 9.4 22.75 0.0 22.75 -9.4 22.75 -16.1 16.05 -22.75 9.4 -22.75 0.0 -22.75 -9.4 -16.1 -16.1 -9.4 -22.75 0.0 -22.75 9.4 -22.75 16.05 -16.1 Z" fill="none" stroke="#000000" stroke-linecap="round" stroke-linejoin="round" stroke-width="4.0"/>
    <path d="M7.6 -7.6 Q10.75 -4.45 10.8 0.05 10.75 4.5 7.6 7.65 4.45 10.8 0.0 10.8 -4.45 10.8 -7.6 7.65 -10.75 4.5 -10.75 0.05 -10.75 -4.45 -7.6 -7.6 -4.45 -10.75 0.0 -10.75 4.45 -10.75 7.6 -7.6" fill="#7e7c94" fill-rule="evenodd" stroke="none"/>
  </g>
</svg>
