<?xml version="1.0" encoding="UTF-8" standalone="no"?>
<svg xmlns:ffdec="https://www.free-decompiler.com/flash" xmlns:xlink="http://www.w3.org/1999/xlink" ffdec:objectType="shape" height="346.0px" width="288.05px" xmlns="http://www.w3.org/2000/svg">
  <g transform="matrix(1.0, 0.0, 0.0, 1.0, 144.0, 173.0)">
    <path d="M-101.15 -97.55 Q-98.15 -116.6 -90.0 -130.05 -58.7 -167.6 -10.0 -170.35 49.25 -173.15 87.7 -130.05 L88.3 -129.15 Q95.45 -118.3 96.55 -97.55 90.95 -46.9 56.35 -9.2 60.7 -10.8 68.2 -11.9 77.9 -13.4 95.35 -10.4 112.8 -7.45 125.6 8.5 138.4 24.4 136.2 42.95 133.95 61.45 129.45 76.15 124.9 90.8 124.65 89.9 124.35 89.0 121.15 95.7 117.95 102.45 108.95 117.05 L108.2 117.8 Q103.1 117.8 96.6 115.95 90.1 114.1 85.25 114.1 79.7 114.1 77.05 115.2 74.35 116.3 69.7 116.35 67.0 116.3 57.55 112.25 49.75 108.8 45.15 105.95 L43.85 105.1 43.2 104.6 43.1 104.45 Q41.8 100.7 40.55 93.35 39.0 84.25 40.05 80.45 41.05 76.65 43.0 65.2 L42.95 64.65 42.9 64.65 Q33.1 65.35 25.35 63.25 L-0.55 56.45 -7.25 59.05 Q-24.7 65.55 -42.9 65.0 L-42.9 65.65 Q-40.95 77.15 -39.95 80.95 -38.95 84.75 -40.5 93.85 -41.75 101.2 -43.0 104.9 L-43.1 105.1 -43.75 105.55 -45.1 106.45 Q-49.65 109.3 -57.45 112.75 -66.95 116.8 -69.6 116.8 -74.25 116.8 -76.95 115.7 -79.65 114.55 -85.15 114.6 -90.05 114.55 -96.55 116.45 -103.05 118.3 -108.15 118.3 L-108.9 117.55 Q-117.9 102.9 -121.1 96.2 -124.3 89.45 -124.55 90.4 -124.85 91.3 -129.35 76.6 -133.9 61.95 -136.1 43.45 -138.35 24.9 -125.55 8.95 -112.75 -7.0 -95.25 -9.95 -77.8 -12.9 -68.15 -11.45 L-59.85 -9.8 Q-84.45 -33.8 -96.15 -66.75 -101.35 -81.3 -101.25 -96.65 L-101.25 -97.55 -101.15 -97.55 -101.25 -96.65 -101.15 -97.55 M64.95 -117.75 Q55.25 -130.4 45.65 -136.8 36.05 -143.2 24.5 -144.95 L-2.0 -146.4 Q-33.55 -146.4 -51.85 -132.6 -70.2 -118.85 -71.85 -97.55 L-72.15 -97.55 -72.15 -97.45 Q-72.3 -94.8 -71.9 -85.65 -71.5 -76.55 -69.15 -71.4 -66.8 -66.25 -64.15 -58.05 -61.5 -49.9 -57.6 -45.25 L-45.95 -15.55 Q-41.35 -3.75 -32.95 11.6 -24.6 26.95 -20.3 30.35 L-19.6 30.35 Q-15.05 33.4 -9.15 35.3 -3.25 37.2 2.15 37.5 7.55 37.75 13.05 36.4 18.5 35.05 25.5 26.65 29.35 24.4 33.9 15.75 38.45 7.05 40.25 1.05 42.05 -4.95 51.15 -22.7 60.15 -40.5 65.25 -57.9 70.3 -75.3 73.7 -92.65 L74.1 -95.65 Q74.15 -96.6 76.85 -94.75 L72.95 -97.55 Q74.6 -105.05 64.95 -117.75 M55.7 -8.9 L56.35 -8.95 56.35 -9.2 55.7 -8.9 54.1 -8.2 55.7 -8.9 M-42.9 65.65 L-43.65 65.65 -42.9 65.65 M-42.9 65.0 L-45.15 64.9 -42.9 65.0 M-54.05 -7.7 Q-56.3 -8.85 -59.85 -9.8 -56.3 -8.85 -54.05 -7.7 M42.95 64.65 L45.2 64.45 42.95 64.65 M43.75 65.2 L43.0 65.2 43.75 65.2" fill="#99b8c4" fill-rule="evenodd" stroke="none"/>
    <path d="M108.95 117.05 Q122.7 125.25 128.3 129.95 141.55 140.95 141.55 151.55 141.55 156.1 140.1 157.8 138.1 160.05 131.95 160.8 128.7 159.6 124.1 158.85 123.5 161.8 122.25 163.7 120.0 167.15 113.1 166.75 106.15 166.3 102.6 163.95 99.05 161.6 100.05 160.8 L99.6 160.45 99.25 160.95 Q95.45 166.0 91.45 167.45 87.45 168.85 83.0 166.75 78.55 164.65 77.85 163.75 L77.25 163.65 Q76.5 167.0 74.45 168.55 71.45 170.75 62.9 169.7 54.25 168.6 47.9 161.85 42.1 155.7 39.75 145.9 L39.3 143.75 39.3 145.95 Q33.25 148.9 24.45 148.95 17.6 148.9 12.6 143.05 8.15 137.75 8.15 132.25 8.15 125.9 13.25 122.05 17.3 118.95 26.7 116.35 32.3 114.75 43.5 105.4 L43.75 105.95 45.15 105.95 Q49.75 108.8 57.55 112.25 67.0 116.3 69.7 116.35 74.35 116.3 77.05 115.2 79.7 114.1 85.25 114.1 90.1 114.1 96.6 115.95 103.1 117.8 108.2 117.8 L108.95 117.05 M-0.55 56.45 L-0.65 56.9 -7.25 59.05 -0.55 56.45 M-43.4 105.9 L-43.3 106.0 Q-32.25 115.25 -26.6 116.8 -17.25 119.45 -13.15 122.55 -8.05 126.4 -8.05 132.75 -8.1 138.25 -12.5 143.55 -17.55 149.4 -24.4 149.4 -33.2 149.4 -39.2 146.45 L-39.65 146.35 -39.65 146.4 Q-42.05 156.2 -47.8 162.3 -54.2 169.1 -62.8 170.15 -71.4 171.2 -74.35 169.05 -76.45 167.5 -77.15 164.1 L-77.5 160.85 -77.75 164.25 Q-78.5 165.15 -82.9 167.25 -87.35 169.35 -91.35 167.9 -95.35 166.45 -99.15 161.4 L-99.5 160.95 -100.0 161.3 Q-99.0 162.1 -102.5 164.45 -106.1 166.8 -113.0 167.2 -119.95 167.6 -122.2 164.2 -123.45 162.3 -124.0 159.35 -128.65 160.05 -131.85 161.3 -138.05 160.55 -140.0 158.3 -141.5 156.6 -141.5 152.0 -141.5 141.45 -128.2 130.4 -122.65 125.7 -108.9 117.55 L-108.15 118.3 Q-103.05 118.3 -96.55 116.45 -90.05 114.55 -85.15 114.6 -79.65 114.55 -76.95 115.7 -74.25 116.8 -69.6 116.8 -66.95 116.8 -57.45 112.75 -49.65 109.3 -45.1 106.45 L-43.65 106.45 -43.45 105.95 -43.4 105.9 M64.95 -117.75 Q74.6 -105.05 72.95 -97.55 L76.85 -94.75 Q74.15 -96.6 74.1 -95.65 L73.7 -92.65 Q70.3 -75.3 65.25 -57.9 60.15 -40.5 51.15 -22.7 42.05 -4.95 40.25 1.05 38.45 7.05 33.9 15.75 29.35 24.4 25.5 26.65 18.5 35.05 13.05 36.4 7.55 37.75 2.15 37.5 -3.25 37.2 -9.15 35.3 -15.05 33.4 -19.6 30.35 L-20.3 30.35 Q-24.6 26.95 -32.95 11.6 -41.35 -3.75 -45.95 -15.55 L-57.6 -45.25 Q-61.5 -49.9 -64.15 -58.05 -66.8 -66.25 -69.15 -71.4 -71.5 -76.55 -71.9 -85.65 -72.3 -94.8 -72.15 -97.45 L-72.15 -97.55 -71.85 -97.55 Q-70.2 -118.85 -51.85 -132.6 -33.55 -146.4 -2.0 -146.4 L24.5 -144.95 Q36.05 -143.2 45.65 -136.8 55.25 -130.4 64.95 -117.75 M-124.0 159.35 Q-124.45 156.95 -124.45 153.85 -124.45 145.85 -119.2 139.8 L-114.75 135.1 Q-112.2 132.45 -111.1 130.15 -112.2 132.45 -114.75 135.1 L-119.2 139.8 Q-124.45 145.85 -124.45 153.85 -124.45 156.95 -124.0 159.35 M-94.1 131.1 Q-94.3 131.7 -95.45 133.35 L-98.5 137.65 Q-102.95 144.35 -102.95 149.8 -102.95 156.05 -99.5 160.95 -102.95 156.05 -102.95 149.8 -102.95 144.35 -98.5 137.65 L-95.45 133.35 Q-94.3 131.7 -94.1 131.1 M-41.15 125.7 L-40.25 127.8 Q-36.85 135.85 -39.2 144.25 L-39.65 146.35 -39.2 144.25 Q-36.85 135.85 -40.25 127.8 L-41.15 125.7 M-77.5 160.85 Q-77.75 154.8 -74.2 145.45 -71.0 137.1 -68.85 133.85 -71.0 137.1 -74.2 145.45 -77.75 154.8 -77.5 160.85 M94.2 130.6 Q94.35 131.25 95.55 132.85 L98.6 137.15 Q103.0 143.85 103.05 149.3 103.0 155.55 99.6 160.45 103.0 155.55 103.05 149.3 103.0 143.85 98.6 137.15 L95.55 132.85 Q94.35 131.25 94.2 130.6 M111.2 129.65 Q112.3 131.95 114.8 134.65 L119.25 139.3 Q124.5 145.35 124.55 153.4 124.5 156.45 124.1 158.85 124.5 156.45 124.55 153.4 124.5 145.35 119.25 139.3 L114.8 134.65 Q112.3 131.95 111.2 129.65 M41.25 125.2 L40.35 127.3 Q36.9 135.35 39.3 143.75 36.9 135.35 40.35 127.3 L41.25 125.2 M77.25 163.65 L77.6 160.35 Q77.8 154.35 74.25 144.95 71.05 136.6 68.95 133.35 71.05 136.6 74.25 144.95 77.8 154.35 77.6 160.35 L77.25 163.65" fill="#dfe9ec" fill-rule="evenodd" stroke="none"/>
    <path d="M-101.15 -97.55 Q-98.15 -116.6 -90.0 -130.05 -58.7 -167.6 -10.0 -170.35 49.25 -173.15 87.7 -130.05 L88.3 -129.15 Q95.45 -118.3 96.55 -97.55 90.95 -46.9 56.35 -9.2 60.7 -10.8 68.2 -11.9 77.9 -13.4 95.35 -10.4 112.8 -7.45 125.6 8.5 138.4 24.4 136.2 42.95 133.95 61.45 129.45 76.15 124.9 90.8 124.65 89.9 124.35 89.0 121.15 95.7 117.95 102.45 108.95 117.05 122.7 125.25 128.3 129.95 141.55 140.95 141.55 151.55 141.55 156.1 140.1 157.8 138.1 160.05 131.95 160.8 128.7 159.6 124.1 158.85 123.5 161.8 122.25 163.7 120.0 167.15 113.1 166.75 106.15 166.3 102.6 163.95 99.05 161.6 100.05 160.8 M99.6 160.45 L99.25 160.95 Q95.45 166.0 91.45 167.45 87.45 168.85 83.0 166.75 78.55 164.65 77.85 163.75 M77.25 163.65 Q76.5 167.0 74.45 168.55 71.45 170.75 62.9 169.7 54.25 168.6 47.9 161.85 42.1 155.7 39.75 145.9 L39.3 143.75 Q36.9 135.35 40.35 127.3 L41.25 125.2 M39.3 145.95 Q33.25 148.9 24.45 148.95 17.6 148.9 12.6 143.05 8.15 137.75 8.15 132.25 8.15 125.9 13.25 122.05 17.3 118.95 26.7 116.35 32.3 114.75 43.5 105.4 L43.2 104.6 43.1 104.45 Q41.8 100.7 40.55 93.35 39.0 84.25 40.05 80.45 41.05 76.65 43.0 65.2 L43.75 65.2 M42.95 64.65 L42.9 64.65 Q33.1 65.35 25.35 63.25 L-0.55 56.45 M-0.65 56.9 L-7.25 59.05 Q-24.7 65.55 -42.9 65.0 L-45.15 64.9 M-42.9 65.65 Q-40.95 77.15 -39.95 80.95 -38.95 84.75 -40.5 93.85 -41.75 101.2 -43.0 104.9 L-43.1 105.1 -43.4 105.9 -43.3 106.0 Q-32.25 115.25 -26.6 116.8 -17.25 119.45 -13.15 122.55 -8.05 126.4 -8.05 132.75 -8.1 138.25 -12.5 143.55 -17.55 149.4 -24.4 149.4 -33.2 149.4 -39.2 146.45 M-39.65 146.35 L-39.65 146.4 Q-42.05 156.2 -47.8 162.3 -54.2 169.1 -62.8 170.15 -71.4 171.2 -74.35 169.05 -76.45 167.5 -77.15 164.1 L-77.5 160.85 Q-77.75 154.8 -74.2 145.45 -71.0 137.1 -68.85 133.85 M-77.75 164.25 Q-78.5 165.15 -82.9 167.25 -87.35 169.35 -91.35 167.9 -95.35 166.45 -99.15 161.4 L-99.5 160.95 Q-102.95 156.05 -102.95 149.8 -102.95 144.35 -98.5 137.65 L-95.45 133.35 Q-94.3 131.7 -94.1 131.1 M-100.0 161.3 Q-99.0 162.1 -102.5 164.45 -106.1 166.8 -113.0 167.2 -119.95 167.6 -122.2 164.2 -123.45 162.3 -124.0 159.35 -128.65 160.05 -131.85 161.3 -138.05 160.55 -140.0 158.3 -141.5 156.6 -141.5 152.0 -141.5 141.45 -128.2 130.4 -122.65 125.7 -108.9 117.55 -117.9 102.9 -121.1 96.2 -124.3 89.45 -124.55 90.4 -124.85 91.3 -129.35 76.6 -133.9 61.95 -136.1 43.45 -138.35 24.9 -125.55 8.95 -112.75 -7.0 -95.25 -9.95 -77.8 -12.9 -68.15 -11.45 L-59.85 -9.8 Q-84.45 -33.8 -96.15 -66.75 -101.35 -81.3 -101.25 -96.65 L-101.25 -97.55 M-101.15 -97.55 L-101.25 -96.65 M56.35 -9.2 L56.35 -8.95 55.7 -8.9 54.1 -8.2 M55.7 -8.9 L56.35 -9.2 M-59.85 -9.8 Q-56.3 -8.85 -54.05 -7.7 M-43.65 65.65 L-42.9 65.65 M-111.1 130.15 Q-112.2 132.45 -114.75 135.1 L-119.2 139.8 Q-124.45 145.85 -124.45 153.85 -124.45 156.95 -124.0 159.35 M-45.1 106.45 L-43.75 105.55 -43.1 105.1 M-39.65 146.35 L-39.2 144.25 Q-36.85 135.85 -40.25 127.8 L-41.15 125.7 M-45.1 106.45 L-43.65 106.45 -43.45 105.95 -43.4 105.9 -43.75 105.55 M45.2 64.45 L42.95 64.65 M45.15 105.95 L43.75 105.95 43.5 105.4 Q43.6 105.3 43.85 105.1 L43.2 104.6 M45.15 105.95 L43.85 105.1 M68.95 133.35 Q71.05 136.6 74.25 144.95 77.8 154.35 77.6 160.35 L77.25 163.65 M124.1 158.85 Q124.5 156.45 124.55 153.4 124.5 145.35 119.25 139.3 L114.8 134.65 Q112.3 131.95 111.2 129.65 M99.6 160.45 Q103.0 155.55 103.05 149.3 103.0 143.85 98.6 137.15 L95.55 132.85 Q94.35 131.25 94.2 130.6" fill="none" stroke="#000000" stroke-linecap="round" stroke-linejoin="round" stroke-width="5.0"/>
  </g>
</svg>
