<?xml version="1.0" encoding="UTF-8" standalone="no"?>
<svg xmlns:ffdec="https://www.free-decompiler.com/flash" xmlns:xlink="http://www.w3.org/1999/xlink" ffdec:objectType="shape" height="52.8px" width="29.3px" xmlns="http://www.w3.org/2000/svg">
  <g transform="matrix(1.0, 0.0, 0.0, 1.0, 14.6, 26.8)">
    <path d="M-5.7 -3.65 Q-7.0 -4.3 -7.3 -5.2 L-7.25 -6.45 Q-10.05 -7.0 -10.65 -9.25 L-10.85 -10.75 Q-13.0 -11.85 -13.6 -13.8 -14.2 -15.65 -13.2 -17.85 -12.3 -19.9 -10.3 -21.05 -8.35 -22.25 -5.3 -24.4 -2.25 -26.6 -0.85 -25.85 L1.2 -24.5 2.6 -23.5 Q3.35 -23.05 4.25 -22.85 5.15 -22.7 6.8 -21.35 8.4 -20.05 9.3 -18.15 9.65 -17.55 11.3 -16.3 12.9 -15.1 13.15 -13.5 13.45 -11.95 13.3 -10.3 13.15 -8.65 13.75 -6.35 14.3 -4.1 13.2 -0.25 12.05 3.6 11.65 7.35 11.2 11.1 9.95 14.3 8.75 17.5 6.0 22.75 L4.8 25.0 0.25 26.0 Q-5.2 25.6 -8.95 15.75 L-9.25 7.1 -8.9 6.6 -7.75 4.25 Q-6.9 2.3 -5.75 -3.45 L-5.7 -3.65 -3.9 -3.05 -5.7 -3.65 M-3.6 -3.9 L-3.9 -3.05 Q-4.2 -2.2 -3.5 -0.9 -3.1 -0.15 -2.3 0.4 L-1.65 0.8 Q0.3 2.35 2.3 2.5 5.0 2.65 5.8 0.85 L5.9 0.3 6.0 -0.15 3.9 -0.9 3.0 -0.95 3.9 -0.9 6.0 -0.15 5.9 0.3 5.8 0.85 Q5.0 2.65 2.3 2.5 0.3 2.35 -1.65 0.8 L-2.3 0.4 Q-3.1 -0.15 -3.5 -0.9 -4.2 -2.2 -3.9 -3.05 L-3.85 -3.0 -3.6 -3.9 Q-2.9 -5.45 1.6 -8.15 6.4 -11.05 6.7 -11.4 6.4 -11.05 1.6 -8.15 -2.9 -5.45 -3.6 -3.9 M-10.85 -10.75 Q-10.8 -12.2 -10.05 -13.9 -9.15 -15.85 -5.7 -18.3 L-1.35 -21.25 -5.7 -18.3 Q-9.15 -15.85 -10.05 -13.9 -10.8 -12.2 -10.85 -10.75 M9.15 -5.05 Q8.05 -3.65 3.9 -0.9 8.05 -3.65 9.15 -5.05 M3.55 -16.9 L1.5 -15.3 -1.55 -13.2 Q-5.7 -10.2 -6.6 -8.2 L-7.25 -6.45 -6.6 -8.2 Q-5.7 -10.2 -1.55 -13.2 L1.5 -15.3 3.55 -16.9" fill="#99b8c4" fill-rule="evenodd" stroke="none"/>
    <path d="M-5.7 -3.65 Q-7.0 -4.3 -7.3 -5.2 L-7.25 -6.45 Q-10.05 -7.0 -10.65 -9.25 L-10.85 -10.75 Q-13.0 -11.85 -13.6 -13.8 -14.2 -15.65 -13.2 -17.85 -12.3 -19.9 -10.3 -21.05 -8.35 -22.25 -5.3 -24.4 -2.25 -26.6 -0.85 -25.85 L1.2 -24.5 2.6 -23.5 Q3.35 -23.05 4.25 -22.85 5.15 -22.7 6.8 -21.35 8.4 -20.05 9.3 -18.15 9.65 -17.55 11.3 -16.3 12.9 -15.1 13.15 -13.5 13.45 -11.95 13.3 -10.3 13.15 -8.65 13.75 -6.35 14.3 -4.1 13.2 -0.25 12.05 3.6 11.65 7.35 11.2 11.1 9.95 14.3 8.75 17.5 6.0 22.75 L4.8 25.0 M-9.25 7.1 L-8.9 6.6 -7.75 4.25 Q-6.9 2.3 -5.75 -3.45 M-5.7 -3.65 L-3.9 -3.05 -3.6 -3.9 Q-2.9 -5.45 1.6 -8.15 6.4 -11.05 6.7 -11.4 M-7.25 -6.45 L-6.6 -8.2 Q-5.7 -10.2 -1.55 -13.2 L1.5 -15.3 3.55 -16.9 M-3.9 -3.05 Q-4.2 -2.2 -3.5 -0.9 -3.1 -0.15 -2.3 0.4 L-1.65 0.8 Q0.3 2.35 2.3 2.5 5.0 2.65 5.8 0.85 L5.9 0.3 6.0 -0.15 3.9 -0.9 3.0 -0.95 M3.9 -0.9 Q8.05 -3.65 9.15 -5.05 M-1.35 -21.25 L-5.7 -18.3 Q-9.15 -15.85 -10.05 -13.9 -10.8 -12.2 -10.85 -10.75 M-3.85 -3.0 L-3.9 -3.05" fill="none" stroke="#000000" stroke-linecap="round" stroke-linejoin="round" stroke-width="1.5"/>
  </g>
</svg>
