<?xml version="1.0" encoding="UTF-8" standalone="no"?>
<svg xmlns:ffdec="https://www.free-decompiler.com/flash" xmlns:xlink="http://www.w3.org/1999/xlink" ffdec:objectType="shape" height="85.25px" width="100.1px" xmlns="http://www.w3.org/2000/svg">
  <g transform="matrix(1.0, 0.0, 0.0, 1.0, 64.7, 2.45)">
    <path d="M-59.4 82.8 L-60.75 80.15 Q-61.75 77.9 -61.85 78.2 -62.0 78.5 -63.2 73.7 -64.45 68.85 -64.7 62.9 -65.0 56.85 -59.85 52.1 -54.65 47.3 -48.15 46.8 -41.65 46.3 -38.1 47.0 L-35.15 47.75 Q-43.5 39.45 -46.8 28.6 -48.3 23.8 -47.8 18.9 L-47.75 18.6 Q-46.1 12.55 -42.7 8.45 -30.1 -2.8 -12.1 -2.45 9.75 -1.85 22.65 12.95 L22.85 13.25 Q25.15 16.9 24.95 23.6 21.4 39.65 7.6 50.9 L12.05 50.3 Q15.6 50.1 21.95 51.5 28.3 52.85 32.55 58.3 34.65 61.0 35.4 63.8 L-8.35 72.55 -15.2 70.5 -17.8 71.15 Q-24.4 72.8 -31.05 72.15 L-31.35 72.15 -31.1 72.35 -30.5 77.0 -59.4 82.8 M17.6 24.0 L16.3 23.0 Q17.1 20.6 13.9 16.3 10.7 12.0 7.35 9.75 4.0 7.45 -0.2 6.6 L-9.9 5.45 Q-21.5 4.65 -28.6 8.6 -35.75 12.55 -36.95 19.35 L-37.1 19.3 -37.1 19.35 -37.35 23.15 Q-37.45 26.05 -36.75 27.8 -36.05 29.5 -35.3 32.2 -34.6 34.85 -33.25 36.45 L-29.85 46.25 Q-28.5 50.15 -25.85 55.3 -23.25 60.4 -21.75 61.6 L-21.5 61.65 Q-19.9 62.7 -17.8 63.5 -15.7 64.25 -13.7 64.45 -11.75 64.7 -9.65 64.4 -7.65 64.1 -4.8 61.6 -3.35 60.95 -1.4 58.3 0.55 55.65 1.4 53.75 2.2 51.85 6.05 46.4 9.9 40.95 12.3 35.5 14.65 30.05 16.4 24.6 L16.65 23.65 Q16.65 23.35 17.6 24.0 M7.35 50.95 L7.6 50.95 7.6 50.9 7.35 50.95 6.75 51.15 7.35 50.95 M-31.9 72.05 L-31.35 72.15 -31.9 72.05 M-33.05 48.55 Q-33.85 48.1 -35.15 47.75 -33.85 48.1 -33.05 48.55" fill="#99b8c4" fill-rule="evenodd" stroke="none"/>
    <path d="M17.6 24.0 Q16.65 23.35 16.65 23.65 L16.4 24.6 Q14.65 30.05 12.3 35.5 9.9 40.95 6.05 46.4 2.2 51.85 1.4 53.75 0.55 55.65 -1.4 58.3 -3.35 60.95 -4.8 61.6 -7.65 64.1 -9.65 64.4 -11.75 64.7 -13.7 64.45 -15.7 64.25 -17.8 63.5 -19.9 62.7 -21.5 61.65 L-21.75 61.6 Q-23.25 60.4 -25.85 55.3 -28.5 50.15 -29.85 46.25 L-33.25 36.45 Q-34.6 34.85 -35.3 32.2 -36.05 29.5 -36.75 27.8 -37.45 26.05 -37.35 23.15 L-37.1 19.35 -37.1 19.3 -36.95 19.35 Q-35.75 12.55 -28.6 8.6 -21.5 4.65 -9.9 5.45 L-0.2 6.6 Q4.0 7.45 7.35 9.75 10.7 12.0 13.9 16.3 17.1 20.6 16.3 23.0 L17.6 24.0" fill="#dfe9ec" fill-rule="evenodd" stroke="none"/>
    <path d="M-59.4 82.8 L-60.75 80.15 Q-61.75 77.9 -61.85 78.2 -62.0 78.5 -63.2 73.7 -64.45 68.85 -64.7 62.9 -65.0 56.85 -59.85 52.1 -54.65 47.3 -48.15 46.8 -41.65 46.3 -38.1 47.0 L-35.15 47.75 Q-43.5 39.45 -46.8 28.6 -48.3 23.8 -47.8 18.9 L-47.75 18.6 Q-46.1 12.55 -42.7 8.45 -30.1 -2.8 -12.1 -2.45 9.75 -1.85 22.65 12.95 L22.85 13.25 Q25.15 16.9 24.95 23.6 21.4 39.65 7.6 50.9 L12.05 50.3 Q15.6 50.1 21.95 51.5 28.3 52.85 32.55 58.3 34.65 61.0 35.4 63.8 M-8.35 72.55 L-15.2 70.5 M-17.8 71.15 Q-24.4 72.8 -31.05 72.15 L-31.35 72.15 -31.1 72.35 -30.5 77.0 M7.35 50.95 L7.6 50.9 7.6 50.95 7.35 50.95 6.75 51.15 M-35.15 47.75 Q-33.85 48.1 -33.05 48.55 M-31.35 72.15 L-31.9 72.05" fill="none" stroke="#000000" stroke-linecap="round" stroke-linejoin="round" stroke-width="0.05"/>
  </g>
</svg>
