<?xml version="1.0" encoding="UTF-8" standalone="no"?>
<svg xmlns:ffdec="https://www.free-decompiler.com/flash" xmlns:xlink="http://www.w3.org/1999/xlink" ffdec:objectType="shape" height="243.0px" width="203.15px" xmlns="http://www.w3.org/2000/svg">
  <g transform="matrix(1.0, 0.0, 0.0, 1.0, 120.85, 121.5)">
    <path d="M68.85 121.45 Q-31.9 122.15 -55.1 112.85 -78.35 103.55 -83.7 95.5 -89.1 87.4 -98.2 66.3 -107.35 45.15 -111.1 32.3 -114.9 19.45 -115.4 4.6 -116.0 -10.25 -119.2 -25.5 -122.4 -40.8 -119.35 -49.5 -116.35 -58.2 -116.45 -64.65 -116.55 -71.1 -115.0 -77.1 -113.5 -83.15 -106.8 -87.5 -100.15 -91.85 -98.5 -94.1 -94.45 -101.2 -87.65 -105.8 -80.9 -110.4 -77.4 -110.85 -73.9 -111.35 -70.8 -112.8 -67.75 -114.3 -65.0 -116.3 -62.25 -118.3 -56.55 -120.9 -50.9 -123.55 -39.65 -114.05 -28.45 -104.6 -21.15 -99.4 -13.85 -94.2 -10.9 -85.95 -7.7 -77.05 -10.5 -70.0 -13.45 -62.7 -22.25 -59.0 -21.95 -64.7 -24.45 -71.65 -27.25 -79.45 -40.05 -90.0 -53.4 -100.2 -56.0 -102.95 -53.4 -100.2 -40.05 -90.0 -27.25 -79.45 -24.45 -71.65 -21.95 -64.7 -22.25 -59.0 L-23.0 -58.7 -23.4 -53.2 Q-26.55 -44.7 -37.65 -43.4 -38.1 -46.3 -39.55 -50.35 -42.5 -58.55 -57.7 -71.4 L-68.95 -80.65 Q-74.8 -85.45 -76.5 -87.45 -74.8 -85.45 -68.95 -80.65 L-57.7 -71.4 Q-42.5 -58.55 -39.55 -50.35 -38.1 -46.3 -37.65 -43.4 L-37.85 -38.5 Q-39.2 -35.0 -44.5 -32.95 L-44.55 -32.9 -44.35 -32.25 Q-41.8 -9.35 -38.95 -1.6 -36.4 5.55 -35.1 8.05 -32.25 13.25 -27.5 18.3 -22.8 23.35 -20.2 26.6 -17.6 29.85 -14.35 37.5 -11.1 45.15 -10.0 49.55 -8.9 53.95 3.05 58.2 15.0 62.4 34.6 64.45 58.2 70.55 63.25 72.4 L76.85 77.35 Q87.75 92.7 76.85 114.3 73.35 118.7 69.1 121.35 L68.85 121.45 M-82.75 -25.1 L-91.15 -22.9 Q-90.85 -22.05 -91.0 -21.1 -91.2 -20.1 -90.75 -18.85 -88.1 -11.55 -77.5 -11.5 -69.65 -11.45 -61.7 -16.85 -56.6 -18.85 -54.0 -22.85 -50.85 -27.7 -51.6 -31.15 -47.5 -31.8 -44.55 -32.9 -47.5 -31.8 -51.6 -31.15 -50.85 -27.7 -54.0 -22.85 -56.6 -18.85 -61.7 -16.85 -69.65 -11.45 -77.5 -11.5 -88.1 -11.55 -90.75 -18.85 -91.2 -20.1 -91.0 -21.1 -90.85 -22.05 -91.15 -22.9 L-82.75 -25.1 -82.7 -25.1 -82.8 -25.1 -82.75 -25.1 -81.65 -24.25 -82.75 -25.1 M-101.85 -42.95 Q-98.1 -37.2 -82.8 -25.1 -98.1 -37.2 -101.85 -42.95 M-79.3 -25.1 L-82.7 -25.1 -79.3 -25.1 M-61.7 -16.85 L-59.25 -18.65 -61.7 -16.85 M-90.35 -66.95 Q-89.4 -65.5 -71.55 -52.8 -54.85 -40.9 -52.55 -34.55 -51.9 -32.7 -51.6 -31.15 L-52.15 -31.05 -51.6 -31.15 Q-51.9 -32.7 -52.55 -34.55 -54.85 -40.9 -71.55 -52.8 -89.4 -65.5 -90.35 -66.95" fill="#99b8c4" fill-rule="evenodd" stroke="none"/>
    <path d="M-22.25 -59.0 Q-13.45 -62.7 -10.5 -70.0 -7.7 -77.05 -10.9 -85.95 -13.85 -94.2 -21.15 -99.4 -28.45 -104.6 -39.65 -114.05 -50.9 -123.55 -56.55 -120.9 -62.25 -118.3 -65.0 -116.3 -67.75 -114.3 -70.8 -112.8 -73.9 -111.35 -77.4 -110.85 -80.9 -110.4 -87.65 -105.8 -94.45 -101.2 -98.5 -94.1 -100.15 -91.85 -106.8 -87.5 -113.5 -83.15 -115.0 -77.1 -116.55 -71.1 -116.45 -64.65 -116.35 -58.2 -119.35 -49.5 -122.4 -40.8 -119.2 -25.5 -116.0 -10.25 -115.4 4.6 -114.9 19.45 -111.1 32.3 -107.35 45.15 -98.2 66.3 -89.1 87.4 -83.7 95.5 -78.35 103.55 -55.1 112.85 -31.9 122.15 68.85 121.45 M76.85 77.35 L63.25 72.4 Q58.2 70.55 34.6 64.45 15.0 62.4 3.05 58.2 -8.9 53.95 -10.0 49.55 -11.1 45.15 -14.35 37.5 -17.6 29.85 -20.2 26.6 -22.8 23.35 -27.5 18.3 -32.25 13.25 -35.1 8.05 -36.4 5.55 -38.95 -1.6 -41.8 -9.35 -44.35 -32.25 M-44.55 -32.9 Q-47.5 -31.8 -51.6 -31.15 -50.85 -27.7 -54.0 -22.85 -56.6 -18.85 -61.7 -16.85 -69.65 -11.45 -77.5 -11.5 -88.1 -11.55 -90.75 -18.85 -91.2 -20.1 -91.0 -21.1 -90.85 -22.05 -91.15 -22.9 L-82.75 -25.1 -82.8 -25.1 Q-98.1 -37.2 -101.85 -42.95 M-82.8 -25.1 L-82.7 -25.1 -79.3 -25.1 M-82.7 -25.1 L-82.75 -25.1 -81.65 -24.25 M-22.25 -59.0 Q-21.95 -64.7 -24.45 -71.65 -27.25 -79.45 -40.05 -90.0 -53.4 -100.2 -56.0 -102.95 M-23.4 -53.2 Q-22.4 -55.95 -22.25 -59.0 L-23.0 -58.7 M-37.65 -43.4 Q-38.1 -46.3 -39.55 -50.35 -42.5 -58.55 -57.7 -71.4 L-68.95 -80.65 Q-74.8 -85.45 -76.5 -87.45 M-44.55 -32.9 L-44.5 -32.95 Q-39.2 -35.0 -37.85 -38.5 -37.2 -40.35 -37.65 -43.4 -26.55 -44.7 -23.4 -53.2 M-52.15 -31.05 L-51.6 -31.15 Q-51.9 -32.7 -52.55 -34.55 -54.85 -40.9 -71.55 -52.8 -89.4 -65.5 -90.35 -66.95 M-59.25 -18.65 L-61.7 -16.85" fill="none" stroke="#000000" stroke-linecap="round" stroke-linejoin="round" stroke-width="0.05"/>
  </g>
</svg>
