<?xml version="1.0" encoding="UTF-8" standalone="no"?>
<svg xmlns:ffdec="https://www.free-decompiler.com/flash" xmlns:xlink="http://www.w3.org/1999/xlink" ffdec:objectType="shape" height="161.65px" width="494.6px" xmlns="http://www.w3.org/2000/svg">
  <g transform="matrix(1.0, 0.0, 0.0, 1.0, 332.75, 67.85)">
    <path d="M-9.7 -32.85 Q9.35 -33.5 25.7 -23.35 L29.15 -11.65 Q15.7 -12.35 3.3 -12.4 L-6.6 -12.3 3.3 -12.4 Q15.7 -12.35 29.15 -11.65 49.2 -7.35 57.65 10.35 89.65 13.85 101.75 20.3 L105.3 24.15 109.7 28.9 109.4 29.15 Q122.6 47.9 127.1 72.2 L140.15 71.75 140.6 80.4 140.85 80.9 Q122.65 91.85 45.55 93.3 19.4 93.9 -2.4 93.8 L-61.15 91.65 -80.15 89.45 -123.3 80.75 -100.1 33.25 -94.85 33.25 Q-78.5 29.65 -61.5 27.05 L-61.4 41.8 -61.5 27.05 Q-78.5 29.65 -94.85 33.25 L-100.1 33.25 -142.8 33.3 -161.3 73.05 -236.05 57.9 -239.65 60.4 Q-251.4 67.95 -269.0 70.3 -294.25 73.55 -329.7 42.45 L-307.1 -0.05 -332.75 -67.8 Q-307.2 -68.35 -295.65 -61.4 L-253.7 -0.2 -237.8 22.95 -237.85 23.1 -237.7 23.1 -137.6 22.9 -68.9 -5.6 -42.1 -25.05 Q-28.7 -33.2 -10.15 -32.85 L-9.7 -32.85 -9.7 -12.25 -9.15 -12.25 -9.7 -12.25 -9.7 -32.85 M-6.6 -12.3 L-7.3 -13.35 -9.15 -12.25 -23.65 -3.85 -32.3 -10.9 -34.75 -12.9 -35.95 -10.55 Q-46.1 -9.45 -55.25 -7.75 L-55.2 -0.95 -55.25 -7.75 Q-46.1 -9.45 -35.95 -10.55 L-38.55 -5.45 -43.35 -6.75 -42.75 -0.6 -55.2 -0.95 -60.5 -1.1 -55.15 6.85 -55.15 8.9 -55.15 6.85 -54.2 8.35 -55.15 8.9 -68.9 16.65 -55.05 25.9 -55.05 26.1 -61.45 27.05 -61.5 27.05 -61.45 27.05 -55.05 26.1 -55.0 26.1 -55.05 25.95 -54.8 26.05 -51.15 28.5 -61.4 41.8 -65.3 46.8 -61.4 46.85 -48.95 47.0 -37.6 47.6 -36.4 63.2 -36.85 65.3 -12.85 49.8 -3.65 67.75 -2.4 65.3 5.6 49.7 21.45 56.9 22.05 49.7 25.3 49.7 41.6 49.7 43.45 49.7 Q49.45 49.7 49.45 43.7 L49.45 31.5 Q49.45 25.5 43.45 25.5 L42.5 25.5 38.15 20.5 38.3 20.4 48.6 11.4 35.55 5.5 37.7 0.55 18.55 0.0 20.7 -8.1 3.3 -0.2 3.3 -12.4 3.3 -0.2 1.8 0.45 -6.6 -12.3 M105.3 24.15 Q70.85 20.75 38.3 20.4 70.85 20.75 105.3 24.15 M92.5 34.65 L90.45 26.8 64.0 26.1 59.8 25.95 64.55 51.45 97.2 52.75 92.5 34.65 M107.8 34.55 L104.4 27.55 104.25 27.55 97.4 27.45 102.05 45.95 107.9 69.15 119.3 69.15 Q116.5 56.9 112.55 46.15 L112.5 45.95 107.85 34.6 107.8 34.55 M-2.4 93.8 L-2.4 65.3 -2.4 93.8 M-253.7 -0.2 L-307.1 -0.05 -253.7 -0.2 M-9.7 -12.25 L-32.3 -10.9 -9.7 -12.25 M-54.8 26.05 L-55.0 26.1 -54.8 26.05 M-61.15 91.65 L-61.4 46.85 -61.15 91.65 M-239.6 37.8 L-239.95 37.85 -239.6 37.8 M-142.8 33.3 L-240.0 33.35 -237.85 23.1 -240.0 33.35 -142.8 33.3 M-277.2 8.05 Q-288.9 8.0 -297.15 16.3 -305.45 24.55 -305.4 36.25 L-305.4 36.3 Q-305.45 47.95 -297.15 56.25 -288.9 64.45 -277.2 64.5 L-277.15 64.5 Q-265.5 64.45 -257.2 56.25 -249.0 47.95 -248.95 36.3 L-248.95 36.25 Q-249.0 24.55 -257.2 16.3 -265.5 8.0 -277.15 8.05 L-277.2 8.05" fill="url(#gradient0)" fill-rule="evenodd" stroke="none"/>
    <path d="M141.05 80.75 L140.9 80.85 140.6 80.4 141.05 80.75 M-237.8 22.95 L-237.7 23.1 -237.85 23.1 -237.8 22.95 M-10.15 -32.85 L-9.7 -32.85 -10.15 -32.85 M-55.05 25.9 L-55.05 25.95 -55.0 26.1 -55.05 26.1 -55.05 25.9 M-277.15 14.05 L-277.2 14.05 Q-286.4 14.0 -292.9 20.55 -299.45 27.05 -299.4 36.25 L-299.4 36.3 Q-299.45 45.45 -292.9 52.0 -286.4 58.45 -277.2 58.5 L-277.15 58.5 Q-268.0 58.45 -261.45 52.0 -255.0 45.45 -254.95 36.3 L-254.95 36.25 Q-255.0 27.05 -261.45 20.55 -268.0 14.0 -277.15 14.05 M-277.2 8.05 L-277.15 8.05 Q-265.5 8.0 -257.2 16.3 -249.0 24.55 -248.95 36.25 L-248.95 36.3 Q-249.0 47.95 -257.2 56.25 -265.5 64.45 -277.15 64.5 L-277.2 64.5 Q-288.9 64.45 -297.15 56.25 -305.45 47.95 -305.4 36.3 L-305.4 36.25 Q-305.45 24.55 -297.15 16.3 -288.9 8.0 -277.2 8.05" fill="#ffffff" fill-rule="evenodd" stroke="none"/>
    <path d="M140.9 80.85 L140.85 80.9 140.6 80.4 140.9 80.85" fill="url(#gradient1)" fill-rule="evenodd" stroke="none"/>
    <path d="M-123.3 80.75 L-161.3 73.05 -142.8 33.3 -100.1 33.25 -123.3 80.75" fill="url(#gradient2)" fill-rule="evenodd" stroke="none"/>
    <path d="M-267.95 36.3 Q-268.0 40.1 -270.65 42.8 -273.4 45.5 -277.2 45.55 -281.05 45.5 -283.75 42.8 -286.45 40.1 -286.45 36.3 L-286.45 36.25 Q-286.45 32.45 -283.75 29.75 -281.05 27.0 -277.2 27.05 -273.4 27.0 -270.65 29.75 -268.0 32.45 -267.95 36.25 L-267.95 36.3" fill="url(#gradient3)" fill-rule="evenodd" stroke="none"/>
    <path d="M64.0 26.1 L90.45 26.8 92.5 34.65 Q85.0 33.25 80.35 37.05 L80.35 35.85 Q80.35 33.15 77.85 30.5 75.35 32.15 75.35 35.75 75.35 37.95 76.65 39.95 L67.0 39.95 64.0 26.1 M102.05 45.95 L97.4 27.45 104.25 27.55 104.4 27.55 107.8 34.55 107.0 34.95 107.0 45.95 102.05 45.95 M37.6 33.2 L38.3 36.5 39.0 39.6 38.2 39.75 36.1 33.5 37.6 33.2 M40.55 46.8 L40.7 46.6 41.6 49.7 25.3 49.7 Q25.3 45.2 24.7 42.75 L24.15 41.15 24.2 41.15 41.3 49.0 40.55 46.8" fill="#333333" fill-rule="evenodd" stroke="none"/>
    <path d="M139.3 55.3 Q161.15 59.1 161.8 67.85 162.7 78.3 141.05 80.75 L140.6 80.4 140.15 71.75 139.3 55.3 M107.8 34.55 L107.85 34.6 107.0 34.95 107.8 34.55" fill="#000000" fill-rule="evenodd" stroke="none"/>
    <path d="M92.5 34.65 L97.2 52.75 64.55 51.45 59.8 25.95 64.0 26.1 67.0 39.95 76.65 39.95 Q75.35 37.95 75.35 35.75 75.35 32.15 77.85 30.5 80.35 33.15 80.35 35.85 L80.35 37.05 Q85.0 33.25 92.5 34.65 M107.85 34.6 L112.5 45.95 112.55 46.15 Q116.5 56.9 119.3 69.15 L107.9 69.15 102.05 45.95 107.0 45.95 107.0 34.95 107.85 34.6 M37.6 33.2 L47.2 30.95 42.5 25.5 43.45 25.5 Q49.45 25.5 49.45 31.5 L49.45 43.7 Q49.45 49.7 43.45 49.7 L41.6 49.7 40.7 46.6 40.55 46.8 38.2 39.75 39.0 39.6 38.3 36.5 37.6 33.2" fill="#1a1a1a" fill-rule="evenodd" stroke="none"/>
    <path d="M109.7 28.9 L127.65 48.4 139.3 55.3 140.15 71.75 127.1 72.2 Q122.6 47.9 109.4 29.15 L109.7 28.9" fill="url(#gradient4)" fill-rule="evenodd" stroke="none"/>
    <path d="M24.15 41.15 L24.7 42.75 Q25.3 45.2 25.3 49.7 L22.05 49.7 22.75 40.75 24.15 41.15" fill="#111111" fill-rule="evenodd" stroke="none"/>
    <path d="M29.15 -11.65 L25.7 -23.35 Q9.35 -33.5 -9.7 -32.85 L-10.15 -32.85 Q-28.7 -33.2 -42.1 -25.05 L-68.9 -5.6 -137.6 22.9 -237.7 23.1 -237.8 22.95 -237.85 23.1 M29.15 -11.65 Q49.2 -7.35 57.65 10.35 89.65 13.85 101.75 20.3 L105.3 24.15 109.7 28.9 127.65 48.4 139.3 55.3 Q161.15 59.1 161.8 67.85 162.7 78.3 141.05 80.75 L140.9 80.85 140.85 80.9 Q122.65 91.85 45.55 93.3 19.4 93.9 -2.4 93.8 L-61.15 91.65 -80.15 89.45 -123.3 80.75 -161.3 73.05 -236.05 57.9 -239.65 60.4 Q-251.4 67.95 -269.0 70.3 -294.25 73.55 -329.7 42.45 L-307.1 -0.05 -332.75 -67.8 Q-307.2 -68.35 -295.65 -61.4 L-253.7 -0.2 -237.8 22.95 M140.15 71.75 L139.3 55.3 M140.15 71.75 L140.6 80.4 M-307.1 -0.05 L-253.7 -0.2 M-55.0 26.1 L-55.05 26.1 M-239.95 37.85 L-239.6 37.8 M-277.15 14.05 Q-268.0 14.0 -261.45 20.55 -255.0 27.05 -254.95 36.25 L-254.95 36.3 Q-255.0 45.45 -261.45 52.0 -268.0 58.45 -277.15 58.5 L-277.2 58.5 Q-286.4 58.45 -292.9 52.0 -299.45 45.45 -299.4 36.3 L-299.4 36.25 Q-299.45 27.05 -292.9 20.55 -286.4 14.0 -277.2 14.05 L-277.15 14.05 M-267.95 36.3 Q-268.0 40.1 -270.65 42.8 -273.4 45.5 -277.2 45.55 -281.05 45.5 -283.75 42.8 -286.45 40.1 -286.45 36.3 L-286.45 36.25 Q-286.45 32.45 -283.75 29.75 -281.05 27.0 -277.2 27.05 -273.4 27.0 -270.65 29.75 -268.0 32.45 -267.95 36.25 L-267.95 36.3" fill="none" stroke="#000000" stroke-linecap="round" stroke-linejoin="round" stroke-width="0.05"/>
    <path d="M-9.7 -32.85 L-9.7 -12.25 -9.15 -12.25 M-6.6 -12.3 L3.3 -12.4 Q15.7 -12.35 29.15 -11.65 M3.3 -12.4 L3.3 -0.2 M38.3 20.4 Q70.85 20.75 105.3 24.15 M-2.4 65.3 L-2.4 93.8 M-55.2 -0.95 L-55.25 -7.75 Q-46.1 -9.45 -35.95 -10.55 M-32.3 -10.9 L-9.7 -12.25 M-55.15 8.9 L-55.15 6.85 M-61.4 41.8 L-61.5 27.05 Q-78.5 29.65 -94.85 33.25 L-100.1 33.25 -142.8 33.3 -240.0 33.35 -237.85 23.1 M-61.5 27.05 L-61.45 27.05 -55.05 26.1 M-55.05 25.95 L-55.0 26.1 -54.8 26.05 M-61.4 46.85 L-61.15 91.65" fill="none" stroke="#751802" stroke-linecap="round" stroke-linejoin="round" stroke-width="0.05"/>
    <path d="M3.3 -0.2 L20.7 -8.1 18.55 0.0 37.7 0.55 35.55 5.5 M24.2 41.15 L24.15 41.15 M22.05 49.7 L21.45 56.9 5.6 49.7 -2.4 65.3 -3.65 67.75 -12.85 49.8 -36.85 65.3 -36.4 63.2 M-42.75 -0.6 L-43.35 -6.75 -38.55 -5.45 M-48.95 47.0 L-37.6 47.6" fill="none" stroke="#000000" stroke-linecap="round" stroke-linejoin="round" stroke-width="2.0"/>
    <path d="M35.55 5.5 L48.6 11.4 38.3 20.4 38.15 20.5 42.5 25.5 47.2 30.95 37.6 33.2 M40.55 46.8 L41.3 49.0 24.2 41.15 M-6.6 -12.3 L1.8 0.45 3.3 -0.2 M-55.15 6.85 L-60.5 -1.1 -55.2 -0.95 -42.75 -0.6 M-35.95 -10.55 L-34.75 -12.9 -32.3 -10.9 -23.65 -3.85 -9.15 -12.25 M-38.55 -5.45 L-35.95 -10.55 M-55.15 8.9 L-68.9 16.65 -55.05 25.9 M-54.8 26.05 L-51.15 28.5 -61.4 41.8 -65.3 46.8 -61.4 46.85 -48.95 47.0 M-37.6 47.6 L-36.4 63.2" fill="none" stroke="#000000" stroke-linecap="round" stroke-linejoin="round" stroke-width="2.0"/>
  </g>
  <defs>
    <linearGradient gradientTransform="matrix(0.0, -0.0448, 0.0874, 0.0, 69.2, 57.1)" gradientUnits="userSpaceOnUse" id="gradient0" spreadMethod="pad" x1="-819.2" x2="819.2">
      <stop offset="0.10196078431372549" stop-color="#742006"/>
      <stop offset="0.6" stop-color="#fd4f24"/>
    </linearGradient>
    <linearGradient gradientTransform="matrix(0.0, -0.0104, 0.0875, 0.0, 69.2, 68.5)" gradientUnits="userSpaceOnUse" id="gradient1" spreadMethod="pad" x1="-819.2" x2="819.2">
      <stop offset="0.10196078431372549" stop-color="#742006"/>
      <stop offset="0.6" stop-color="#db5635"/>
    </linearGradient>
    <linearGradient gradientTransform="matrix(0.0, -0.0448, 0.0874, 0.0, 69.2, 57.1)" gradientUnits="userSpaceOnUse" id="gradient2" spreadMethod="pad" x1="-819.2" x2="819.2">
      <stop offset="0.13333333333333333" stop-color="#888888"/>
      <stop offset="0.6" stop-color="#ffffff"/>
    </linearGradient>
    <radialGradient cx="0" cy="0" gradientTransform="matrix(0.0153, 0.0, 0.0, 0.0153, -277.0, 33.0)" gradientUnits="userSpaceOnUse" id="gradient3" r="819.2" spreadMethod="pad">
      <stop offset="0.4470588235294118" stop-color="#ffffff"/>
      <stop offset="1.0" stop-color="#666666"/>
    </radialGradient>
    <linearGradient gradientTransform="matrix(0.0392, -0.0173, 0.0107, 0.0241, 126.0, 29.55)" gradientUnits="userSpaceOnUse" id="gradient4" spreadMethod="pad" x1="-819.2" x2="819.2">
      <stop offset="0.36470588235294116" stop-color="#333333"/>
      <stop offset="0.6" stop-color="#bbbbbb"/>
    </linearGradient>
  </defs>
</svg>
