<?xml version="1.0" encoding="UTF-8" standalone="no"?>
<svg xmlns:ffdec="https://www.free-decompiler.com/flash" xmlns:xlink="http://www.w3.org/1999/xlink" ffdec:objectType="shape" height="249.1px" width="208.45px" xmlns="http://www.w3.org/2000/svg">
  <g transform="matrix(1.0, 0.0, 0.0, 1.0, 103.75, 124.55)">
    <path d="M3.6 -59.55 Q-5.2 -63.25 -8.1 -70.55 -10.95 -77.6 -7.75 -86.5 -4.8 -94.75 2.5 -99.95 9.8 -105.15 21.05 -114.6 32.25 -124.1 37.9 -121.45 43.6 -118.85 46.35 -116.85 49.1 -114.85 52.2 -113.35 55.25 -111.9 58.75 -111.4 62.25 -110.95 69.05 -106.35 75.8 -101.75 79.85 -94.65 81.5 -92.4 88.2 -88.05 94.85 -83.7 96.4 -77.65 97.9 -71.65 97.85 -65.2 97.7 -58.75 100.75 -50.05 103.75 -41.35 100.55 -26.05 97.35 -10.8 96.8 4.05 96.25 18.9 92.5 31.75 88.7 44.6 79.6 65.75 70.45 86.85 65.1 94.95 59.7 103.0 36.45 112.3 13.35 121.55 -85.65 122.05 L-85.65 121.45 -88.1 121.45 Q-95.6 117.5 -102.2 80.8 L-101.25 78.9 -99.9 78.4 -81.9 71.85 Q-76.85 70.0 -53.2 63.9 -33.65 61.85 -21.7 57.65 -9.75 53.4 -8.65 49.0 -7.55 44.6 -4.3 36.95 -1.05 29.3 1.55 26.05 4.15 22.8 8.9 17.75 13.6 12.7 16.45 7.5 17.75 5.0 20.35 -2.15 23.15 -9.9 25.75 -32.8 L25.9 -33.5 Q20.55 -35.55 19.25 -39.05 L19.05 -43.95 Q7.9 -45.25 4.75 -53.75 L3.6 -59.55 Q3.3 -65.25 5.8 -72.2 8.6 -80.0 21.4 -90.55 34.75 -100.75 37.4 -103.5 34.75 -100.75 21.4 -90.55 8.6 -80.0 5.8 -72.2 3.3 -65.25 3.6 -59.55 L4.35 -59.25 3.6 -59.55 M19.05 -43.95 Q19.45 -46.85 20.9 -50.9 23.85 -59.1 39.05 -71.95 L50.3 -81.2 Q56.15 -86.0 57.9 -88.0 56.15 -86.0 50.3 -81.2 L39.05 -71.95 Q23.85 -59.1 20.9 -50.9 19.45 -46.85 19.05 -43.95 M33.95 -35.1 Q36.2 -41.45 52.95 -53.35 70.75 -66.05 71.75 -67.5 70.75 -66.05 52.95 -53.35 36.2 -41.45 33.95 -35.1 L32.95 -31.7 33.3 -31.6 33.95 -35.1 M40.6 -19.2 L43.05 -17.4 Q37.95 -19.4 35.35 -23.4 32.2 -28.25 32.95 -31.7 32.2 -28.25 35.35 -23.4 37.95 -19.4 43.05 -17.4 L40.6 -19.2 M63.0 -24.8 L64.1 -25.65 72.55 -23.45 Q72.2 -22.6 72.35 -21.65 72.55 -20.65 72.1 -19.4 69.45 -12.1 58.85 -12.05 51.0 -12.0 43.05 -17.4 51.0 -12.0 58.85 -12.05 69.45 -12.1 72.1 -19.4 72.55 -20.65 72.35 -21.65 72.2 -22.6 72.55 -23.45 L64.1 -25.65 63.0 -24.8 M32.95 -31.7 Q28.8 -32.4 25.9 -33.5 28.8 -32.4 32.95 -31.7 M64.05 -25.65 L64.1 -25.65 64.15 -25.65 64.05 -25.65 60.7 -25.65 64.05 -25.65 M83.25 -43.5 Q79.45 -37.75 64.15 -25.65 79.45 -37.75 83.25 -43.5" fill="#99b8c4" fill-rule="evenodd" stroke="none"/>
    <path d="M3.6 -59.55 Q-5.2 -63.25 -8.1 -70.55 -10.95 -77.6 -7.75 -86.5 -4.8 -94.75 2.5 -99.95 9.8 -105.15 21.05 -114.6 32.25 -124.1 37.9 -121.45 43.6 -118.85 46.35 -116.85 49.1 -114.85 52.2 -113.35 55.25 -111.9 58.75 -111.4 62.25 -110.95 69.05 -106.35 75.8 -101.75 79.85 -94.65 81.5 -92.4 88.2 -88.05 94.85 -83.7 96.4 -77.65 97.9 -71.65 97.85 -65.2 97.7 -58.75 100.75 -50.05 103.75 -41.35 100.55 -26.05 97.35 -10.8 96.8 4.05 96.25 18.9 92.5 31.75 88.7 44.6 79.6 65.75 70.45 86.85 65.1 94.95 59.7 103.0 36.45 112.3 13.35 121.55 -85.65 122.05 M-101.25 78.9 L-99.9 78.4 -81.9 71.85 Q-76.85 70.0 -53.2 63.9 -33.65 61.85 -21.7 57.65 -9.75 53.4 -8.65 49.0 -7.55 44.6 -4.3 36.95 -1.05 29.3 1.55 26.05 4.15 22.8 8.9 17.75 13.6 12.7 16.45 7.5 17.75 5.0 20.35 -2.15 23.15 -9.9 25.75 -32.8 M25.9 -33.5 Q20.55 -35.55 19.25 -39.05 18.55 -40.9 19.05 -43.95 7.9 -45.25 4.75 -53.75 3.75 -56.5 3.6 -59.55 3.3 -65.25 5.8 -72.2 8.6 -80.0 21.4 -90.55 34.75 -100.75 37.4 -103.5 M57.9 -88.0 Q56.15 -86.0 50.3 -81.2 L39.05 -71.95 Q23.85 -59.1 20.9 -50.9 19.45 -46.85 19.05 -43.95 M71.75 -67.5 Q70.75 -66.05 52.95 -53.35 36.2 -41.45 33.95 -35.1 L32.95 -31.7 Q32.2 -28.25 35.35 -23.4 37.95 -19.4 43.05 -17.4 L40.6 -19.2 M33.3 -31.6 L32.95 -31.7 Q28.8 -32.4 25.9 -33.5 M3.6 -59.55 L4.35 -59.25 M43.05 -17.4 Q51.0 -12.0 58.85 -12.05 69.45 -12.1 72.1 -19.4 72.55 -20.65 72.35 -21.65 72.2 -22.6 72.55 -23.45 L64.1 -25.65 63.0 -24.8 M64.05 -25.65 L64.1 -25.65 64.15 -25.65 64.05 -25.65 60.7 -25.65 M64.15 -25.65 Q79.45 -37.75 83.25 -43.5" fill="none" stroke="#000000" stroke-linecap="round" stroke-linejoin="round" stroke-width="5.0"/>
  </g>
</svg>
