<?xml version="1.0" encoding="UTF-8" standalone="no"?>
<svg xmlns:ffdec="https://www.free-decompiler.com/flash" xmlns:xlink="http://www.w3.org/1999/xlink" ffdec:objectType="shape" height="194.1px" width="319.25px" xmlns="http://www.w3.org/2000/svg">
  <g transform="matrix(1.0, 0.0, 0.0, 1.0, 159.6, 97.05)">
    <path d="M37.1 -59.35 Q41.3 -58.0 44.9 -56.15 52.45 -52.25 55.7 -49.75 L61.4 -44.55 61.5 -44.45 63.85 -42.05 61.5 -44.45 61.4 -44.55 55.7 -49.75 Q52.45 -52.25 44.9 -56.15 41.3 -58.0 37.1 -59.35 59.95 -81.2 78.75 -88.45 96.75 -95.4 124.0 -94.45 L127.7 -94.3 Q126.1 -91.95 123.85 -90.2 117.4 -85.15 109.35 -83.75 L107.15 -83.45 109.3 -83.2 Q125.75 -81.1 138.45 -73.8 151.35 -66.4 156.65 -56.5 L150.7 -59.5 Q142.95 -63.0 134.5 -63.0 L134.1 -63.4 134.5 -63.0 Q144.45 -52.15 148.6 -44.45 152.85 -36.65 153.45 -27.15 154.0 -17.7 151.5 -10.8 149.25 -4.8 146.0 -2.75 146.35 -6.45 145.9 -9.7 144.6 -18.45 137.2 -24.05 L137.5 -21.55 Q139.85 1.0 125.3 16.15 L122.0 19.3 121.95 12.8 Q121.95 8.35 119.3 2.6 103.4 25.1 76.65 27.8 74.65 37.4 69.85 48.65 65.9 58.4 59.95 66.65 L57.4 70.05 Q45.8 85.4 27.3 91.05 15.7 94.75 3.1 94.55 -16.8 94.25 -34.85 86.55 -44.4 82.5 -52.45 75.9 -58.85 70.75 -63.75 64.15 -69.15 56.9 -72.6 48.65 -78.4 35.75 -79.95 27.85 -81.6 19.4 -81.45 9.75 L-81.35 5.1 -81.45 9.75 Q-81.6 19.4 -79.95 27.85 -102.0 23.25 -119.2 2.6 -121.9 8.35 -121.9 12.8 L-121.95 19.3 Q-140.05 3.4 -137.45 -21.55 L-137.15 -24.05 Q-147.3 -16.35 -145.95 -2.75 -149.25 -4.8 -151.45 -10.8 -154.0 -17.7 -153.4 -27.15 -152.8 -36.65 -148.55 -44.45 -144.4 -52.15 -134.45 -63.0 -142.95 -63.0 -150.65 -59.5 L-156.6 -56.5 Q-151.3 -66.4 -138.4 -73.8 -125.75 -81.1 -109.25 -83.2 L-107.1 -83.45 -109.3 -83.75 Q-117.35 -85.15 -123.8 -90.2 -126.05 -91.95 -127.65 -94.3 -97.95 -95.85 -78.7 -88.45 -59.8 -81.15 -36.75 -59.05 L-23.0 -61.95 Q-4.4 -65.15 6.45 -64.15 L27.35 -61.6 Q32.55 -60.8 37.1 -59.35 M-62.7 -46.35 Q-57.85 -50.95 -51.85 -53.8 -45.8 -56.75 -36.75 -59.05 -45.8 -56.75 -51.85 -53.8 -57.85 -50.95 -62.7 -46.35 -73.95 -66.55 -95.05 -72.5 -99.0 -73.65 -103.2 -74.25 -99.35 -72.65 -96.05 -69.05 -92.25 -64.8 -92.55 -60.45 -95.2 -61.7 -105.15 -61.65 -115.1 -61.65 -122.75 -58.35 -130.4 -55.05 -135.7 -46.95 -132.4 -48.3 -125.85 -48.9 L-117.6 -50.1 Q-130.1 -42.05 -134.15 -30.55 -128.9 -34.05 -123.3 -35.3 -118.65 -36.4 -115.4 -36.2 -120.2 -17.4 -108.2 -2.25 L-105.5 0.75 Q-106.05 -4.85 -104.65 -8.9 -103.25 -12.85 -100.15 -14.5 -99.4 -8.85 -96.1 -3.9 -92.4 1.75 -81.35 5.1 -80.9 -12.75 -78.55 -20.45 -75.95 -29.1 -69.0 -39.0 -66.15 -43.15 -62.7 -46.35 M79.4 5.05 L79.2 8.4 Q78.5 18.9 76.65 27.8 78.5 18.9 79.2 8.4 L79.4 5.05 Q92.4 1.75 96.15 -3.9 99.45 -8.85 100.2 -14.5 103.25 -12.85 104.7 -8.9 106.1 -4.85 105.55 0.75 L108.25 -2.25 Q120.25 -17.4 115.45 -36.2 118.7 -36.4 123.35 -35.3 128.95 -34.05 134.2 -30.55 130.1 -42.05 117.65 -50.1 L125.9 -48.9 Q132.45 -48.3 135.75 -46.95 130.4 -55.05 122.8 -58.35 115.15 -61.65 105.2 -61.65 95.2 -61.7 92.6 -60.45 92.3 -64.8 96.1 -69.05 L95.1 -72.5 Q73.45 -66.4 62.2 -45.35 L63.85 -42.05 Q68.75 -36.85 74.75 -25.25 80.25 -14.55 79.4 5.05 M32.75 -35.25 L31.65 -33.65 Q30.9 -32.2 30.95 -30.4 30.9 -27.35 33.05 -25.25 35.2 -23.1 38.25 -23.05 41.3 -23.1 43.4 -25.25 45.55 -27.35 45.55 -30.4 45.55 -33.45 43.4 -35.6 41.35 -37.65 38.5 -37.7 L38.25 -37.7 36.6 -37.55 Q34.6 -37.1 33.05 -35.6 L32.75 -35.25 25.0 -30.7 32.75 -35.25 M46.05 -43.15 L36.6 -37.55 46.05 -43.15 M19.95 -15.5 Q18.25 -27.0 12.85 -33.0 6.65 -39.85 -3.4 -37.7 -13.45 -35.6 -15.6 -26.4 -17.85 -17.2 -17.95 -11.95 L-18.0 -2.9 Q-18.35 11.65 -13.15 17.65 -7.95 23.65 3.45 23.65 14.85 23.6 17.2 17.05 L18.1 14.55 Q22.95 0.95 20.3 -13.7 L19.95 -15.5 M103.65 -83.05 L107.15 -83.45 103.65 -83.05 M-103.6 -83.05 L-107.1 -83.45 -103.6 -83.05 M-134.05 -63.4 L-134.45 -63.0 -134.05 -63.4 M-34.05 -38.7 Q-37.1 -38.7 -39.25 -36.6 -41.35 -34.5 -41.4 -31.55 L-41.4 -31.2 Q-41.35 -28.3 -39.25 -26.25 -37.1 -24.1 -34.05 -24.05 -31.05 -24.1 -28.9 -26.25 -26.75 -28.35 -26.75 -31.4 -26.75 -32.55 -27.1 -33.6 -27.6 -35.25 -28.9 -36.6 L-28.95 -36.6 -30.75 -37.95 Q-32.25 -38.7 -34.05 -38.7 L-40.05 -43.15 -34.05 -38.7 M-21.85 -29.75 L-27.1 -33.6 -21.85 -29.75" fill="#99b8c4" fill-rule="evenodd" stroke="none"/>
    <path d="M36.6 -37.55 L38.25 -37.7 38.5 -37.7 Q41.35 -37.65 43.4 -35.6 45.55 -33.45 45.55 -30.4 45.55 -27.35 43.4 -25.25 41.3 -23.1 38.25 -23.05 35.2 -23.1 33.05 -25.25 30.9 -27.35 30.95 -30.4 30.9 -32.2 31.65 -33.65 L32.75 -35.25 33.05 -35.6 Q34.6 -37.1 36.6 -37.55 L32.75 -35.25 36.6 -37.55 M-27.1 -33.6 Q-26.75 -32.55 -26.75 -31.4 -26.75 -28.35 -28.9 -26.25 -31.05 -24.1 -34.05 -24.05 -37.1 -24.1 -39.25 -26.25 -41.35 -28.3 -41.4 -31.2 L-41.4 -31.55 Q-41.35 -34.5 -39.25 -36.6 -37.1 -38.7 -34.05 -38.7 -32.25 -38.7 -30.75 -37.95 L-28.95 -36.6 -28.9 -36.6 Q-27.6 -35.25 -27.1 -33.6 L-29.85 -35.65 -29.9 -35.65 -31.7 -37.0 -34.05 -38.7 -31.7 -37.0 -29.9 -35.65 -29.85 -35.65 -27.1 -33.6" fill="#000000" fill-rule="evenodd" stroke="none"/>
    <path d="M19.95 -15.5 L20.3 -13.7 Q22.95 0.95 18.1 14.55 L17.2 17.05 Q14.85 23.6 3.45 23.65 -7.95 23.65 -13.15 17.65 -18.35 11.65 -18.0 -2.9 L-17.95 -11.95 Q-17.85 -17.2 -15.6 -26.4 -13.45 -35.6 -3.4 -37.7 6.65 -39.85 12.85 -33.0 18.25 -27.0 19.95 -15.5" fill="#272012" fill-rule="evenodd" stroke="none"/>
    <path d="M-62.7 -46.35 Q-66.15 -43.15 -69.0 -39.0 -75.95 -29.1 -78.55 -20.45 -80.9 -12.75 -81.35 5.1 -92.4 1.75 -96.1 -3.9 -99.4 -8.85 -100.15 -14.5 -103.25 -12.85 -104.65 -8.9 -106.05 -4.85 -105.5 0.75 L-108.2 -2.25 Q-120.2 -17.4 -115.4 -36.2 -118.65 -36.4 -123.3 -35.3 -128.9 -34.05 -134.15 -30.55 -130.1 -42.05 -117.6 -50.1 L-125.85 -48.9 Q-132.4 -48.3 -135.7 -46.95 -130.4 -55.05 -122.75 -58.35 -115.1 -61.65 -105.15 -61.65 -95.2 -61.7 -92.55 -60.45 -92.25 -64.8 -96.05 -69.05 L-95.05 -72.5 Q-73.95 -66.55 -62.7 -46.35 M79.4 5.05 Q80.25 -14.55 74.75 -25.25 68.75 -36.85 63.85 -42.05 L62.2 -45.35 Q73.45 -66.4 95.1 -72.5 L96.1 -69.05 Q92.3 -64.8 92.6 -60.45 95.2 -61.7 105.2 -61.65 115.15 -61.65 122.8 -58.35 130.4 -55.05 135.75 -46.95 132.45 -48.3 125.9 -48.9 L117.65 -50.1 Q130.1 -42.05 134.2 -30.55 128.95 -34.05 123.35 -35.3 118.7 -36.4 115.45 -36.2 120.25 -17.4 108.25 -2.25 L105.55 0.75 Q106.1 -4.85 104.7 -8.9 103.25 -12.85 100.2 -14.5 99.45 -8.85 96.15 -3.9 92.4 1.75 79.4 5.05" fill="#dfe9ec" fill-rule="evenodd" stroke="none"/>
    <path d="M32.75 -35.25 L25.0 -30.7 M36.6 -37.55 L46.05 -43.15 M32.75 -35.25 L36.6 -37.55 M-34.05 -38.7 L-40.05 -43.15 M-27.1 -33.6 L-21.85 -29.75 M-34.05 -38.7 L-31.7 -37.0 -29.9 -35.65 -29.85 -35.65 -27.1 -33.6" fill="none" stroke="#000000" stroke-linecap="round" stroke-linejoin="round" stroke-width="3.0"/>
    <path d="M63.85 -42.05 L61.5 -44.45 61.4 -44.55 55.7 -49.75 Q52.45 -52.25 44.9 -56.15 41.3 -58.0 37.1 -59.35 32.55 -60.8 27.35 -61.6 L6.45 -64.15 Q-4.4 -65.15 -23.0 -61.95 L-36.75 -59.05 Q-45.8 -56.75 -51.85 -53.8 -57.85 -50.95 -62.7 -46.35 -66.15 -43.15 -69.0 -39.0 -75.95 -29.1 -78.55 -20.45 -80.9 -12.75 -81.35 5.1 L-81.45 9.75 Q-81.6 19.4 -79.95 27.85 -78.4 35.75 -72.6 48.65 -69.15 56.9 -63.75 64.15 -58.85 70.75 -52.45 75.9 -44.4 82.5 -34.85 86.55 -16.8 94.25 3.1 94.55 15.7 94.75 27.3 91.05 45.8 85.4 57.4 70.05 L59.95 66.65 Q65.9 58.4 69.85 48.65 74.65 37.4 76.65 27.8 78.5 18.9 79.2 8.4 L79.4 5.05 Q80.25 -14.55 74.75 -25.25 68.75 -36.85 63.85 -42.05 M37.1 -59.35 Q59.95 -81.2 78.75 -88.45 96.75 -95.4 124.0 -94.45 L127.7 -94.3 Q126.1 -91.95 123.85 -90.2 117.4 -85.15 109.35 -83.75 L107.15 -83.45 109.3 -83.2 Q125.75 -81.1 138.45 -73.8 151.35 -66.4 156.65 -56.5 L157.15 -55.6 M134.5 -63.0 Q142.95 -63.0 150.7 -59.5 L156.65 -56.5 M134.1 -63.4 L134.5 -63.0 Q144.45 -52.15 148.6 -44.45 152.85 -36.65 153.45 -27.15 154.0 -17.7 151.5 -10.8 149.25 -4.8 146.0 -2.75 L146.0 -2.7 145.0 -2.2 M107.15 -83.45 L103.65 -83.05 M76.65 27.8 Q103.4 25.1 119.3 2.6 121.95 8.35 121.95 12.8 L122.0 19.3 125.3 16.15 Q139.85 1.0 137.5 -21.55 L137.2 -24.05 Q144.6 -18.45 145.9 -9.7 146.35 -6.45 146.0 -2.75 M-36.75 -59.05 Q-59.8 -81.15 -78.7 -88.45 -97.95 -95.85 -127.65 -94.3 -126.05 -91.95 -123.8 -90.2 -117.35 -85.15 -109.3 -83.75 L-107.1 -83.45 -103.6 -83.05 M-107.1 -83.45 L-109.25 -83.2 Q-125.75 -81.1 -138.4 -73.8 -151.3 -66.4 -156.6 -56.5 L-150.65 -59.5 Q-142.95 -63.0 -134.45 -63.0 L-134.05 -63.4 M-156.6 -56.5 L-157.1 -55.6 M-134.45 -63.0 Q-144.4 -52.15 -148.55 -44.45 -152.8 -36.65 -153.4 -27.15 -154.0 -17.7 -151.45 -10.8 -149.25 -4.8 -145.95 -2.75 -147.3 -16.35 -137.15 -24.05 L-137.45 -21.55 Q-140.05 3.4 -121.95 19.3 L-121.9 12.8 Q-121.9 8.35 -119.2 2.6 -102.0 23.25 -79.95 27.85" fill="none" stroke="#000000" stroke-linecap="round" stroke-linejoin="round" stroke-width="5.0"/>
  </g>
</svg>
