<?xml version="1.0" encoding="UTF-8" standalone="no"?>
<svg xmlns:ffdec="https://www.free-decompiler.com/flash" xmlns:xlink="http://www.w3.org/1999/xlink" ffdec:objectType="shape" height="66.2px" width="214.85px" xmlns="http://www.w3.org/2000/svg">
  <g transform="matrix(1.0, 0.0, 0.0, 1.0, 81.65, 23.0)">
    <path d="M15.0 -23.0 Q97.4 -23.0 122.0 -12.9 130.65 -9.35 132.55 -4.25 133.2 -2.55 133.2 -0.2 L133.0 3.15 Q133.0 6.25 131.35 9.3 129.65 12.3 128.35 11.1 127.05 9.8 119.8 12.2 112.55 14.55 110.55 14.4 95.45 12.7 88.25 19.5 86.55 21.0 84.0 24.55 L82.55 26.6 Q82.05 29.25 79.25 30.45 73.45 36.05 64.0 36.05 L47.25 32.05 Q21.1 43.2 17.5 43.2 -15.3 43.2 -22.95 37.4 -25.15 35.7 -27.5 31.35 -29.9 27.0 -33.0 24.55 -35.9 22.2 -40.65 22.2 L-42.75 22.4 -50.5 23.1 Q-69.35 23.1 -77.25 11.5 -82.0 4.55 -81.65 -2.25 -81.3 -9.1 -74.8 -11.85 -68.3 -14.6 -63.75 -16.1 -59.2 -17.75 -42.25 -16.35 -25.3 -15.0 -12.55 -18.95 0.15 -23.0 4.75 -22.5 L15.0 -23.0" fill="#cc0000" fill-opacity="0.0" fill-rule="evenodd" stroke="none"/>
  </g>
</svg>
