<?xml version="1.0" encoding="UTF-8" standalone="no"?>
<svg xmlns:ffdec="https://www.free-decompiler.com/flash" xmlns:xlink="http://www.w3.org/1999/xlink" ffdec:objectType="shape" height="121.15px" width="74.95px" xmlns="http://www.w3.org/2000/svg">
  <g transform="matrix(1.0, 0.0, 0.0, 1.0, 105.95, 60.55)">
    <path d="M-74.0 -60.55 L-72.95 -60.55 -72.95 -57.25 -74.0 -60.55" fill="#acb6b9" fill-rule="evenodd" stroke="none"/>
    <path d="M-72.95 -35.5 L-72.95 -15.35 -78.45 -15.35 -78.45 21.4 -85.6 21.4 -85.6 -15.35 -88.4 -15.35 -88.4 -35.5 -88.4 -60.55 -74.0 -60.55 -72.95 -57.25 -72.95 -35.5 -88.4 -35.5 -72.95 -35.5 M-85.6 -15.35 L-78.45 -15.35 -85.6 -15.35" fill="#8c8c8c" fill-rule="evenodd" stroke="none"/>
    <path d="M-88.4 -35.5 L-88.4 -60.55 M-72.95 -60.55 L-72.95 -57.25 -72.95 -35.5" fill="none" stroke="#000000" stroke-linecap="round" stroke-linejoin="round" stroke-width="0.05"/>
    <path d="M-72.95 -35.5 L-72.95 -15.35 -78.45 -15.35 -78.45 21.4 -85.6 21.4 -85.6 -15.35 -88.4 -15.35 -88.4 -35.5 -72.95 -35.5 M-74.0 -60.55 L-72.95 -57.25 M-78.45 -15.35 L-85.6 -15.35" fill="none" stroke="#000000" stroke-linecap="round" stroke-linejoin="round" stroke-width="0.05"/>
    <path d="M-95.6 -0.8 L-100.45 -1.95 Q-97.8 -2.4 -95.6 -0.8 M-64.85 37.75 L-60.05 38.95 Q-62.7 39.35 -64.85 37.75" fill="#acb6b9" fill-rule="evenodd" stroke="none"/>
    <path d="M-54.6 31.5 L-57.2 27.25 Q-55.05 28.85 -54.6 31.5" fill="#58566a" fill-rule="evenodd" stroke="none"/>
    <path d="M-100.45 -1.95 L-95.6 -0.8 -57.2 27.25 -54.6 31.5 Q-54.2 34.15 -55.8 36.35 -57.4 38.5 -60.05 38.95 L-64.85 37.75 -103.25 9.7 Q-105.45 8.1 -105.85 5.45 -106.3 2.8 -104.7 0.65 -103.1 -1.55 -100.45 -1.95" fill="#b7b7b7" fill-rule="evenodd" stroke="none"/>
    <path d="M-95.6 -0.8 Q-97.8 -2.4 -100.45 -1.95 -103.1 -1.55 -104.7 0.65 -106.3 2.8 -105.85 5.45 -105.45 8.1 -103.25 9.7 L-64.85 37.75 Q-62.7 39.35 -60.05 38.95 -57.4 38.5 -55.8 36.35 -54.2 34.15 -54.6 31.5 -55.05 28.85 -57.2 27.25 L-95.6 -0.8 Z" fill="none" stroke="#000000" stroke-linecap="round" stroke-linejoin="round" stroke-width="0.05"/>
    <path d="M-96.75 9.55 L-94.0 5.9 Q-94.65 8.25 -96.75 9.55" fill="#acb6b9" fill-rule="evenodd" stroke="none"/>
    <path d="M-89.6 -60.55 L-77.2 -60.55 -94.0 5.9 -96.75 9.55 Q-98.9 10.85 -101.3 10.25 -103.7 9.6 -105.0 7.5 -106.3 5.35 -105.65 2.95 L-89.6 -60.55" fill="#b7b7b7" fill-rule="evenodd" stroke="none"/>
    <path d="M-89.6 -60.55 L-105.65 2.95 Q-106.3 5.35 -105.0 7.5 -103.7 9.6 -101.3 10.25 -98.9 10.85 -96.75 9.55 -94.65 8.25 -94.0 5.9 L-77.2 -60.55" fill="none" stroke="#000000" stroke-linecap="round" stroke-linejoin="round" stroke-width="0.05"/>
    <path d="M-31.0 32.7 Q-31.0 44.25 -39.2 52.4 -47.35 60.6 -58.9 60.6 -70.45 60.6 -78.65 52.4 -86.8 44.25 -86.8 32.7 -86.8 21.15 -78.65 12.95 -70.45 4.8 -58.9 4.8 -47.35 4.8 -39.2 12.95 -31.0 21.15 -31.0 32.7 M-47.85 21.6 Q-52.4 17.05 -58.9 17.05 -65.4 17.05 -69.95 21.6 -74.55 26.2 -74.55 32.7 -74.55 39.15 -69.95 43.75 -65.4 48.3 -58.9 48.35 -52.4 48.3 -47.85 43.75 -43.25 39.15 -43.25 32.7 -43.25 26.2 -47.85 21.6" fill="#222222" fill-rule="evenodd" stroke="none"/>
    <path d="M-47.85 21.6 Q-43.25 26.2 -43.25 32.7 -43.25 39.15 -47.85 43.75 -52.4 48.3 -58.9 48.35 -65.4 48.3 -69.95 43.75 -74.55 39.15 -74.55 32.7 -74.55 26.2 -69.95 21.6 -65.4 17.05 -58.9 17.05 -52.4 17.05 -47.85 21.6" fill="#8c8c8c" fill-rule="evenodd" stroke="none"/>
    <path d="M-31.0 32.7 Q-31.0 44.25 -39.2 52.4 -47.35 60.6 -58.9 60.6 -70.45 60.6 -78.65 52.4 -86.8 44.25 -86.8 32.7 -86.8 21.15 -78.65 12.95 -70.45 4.8 -58.9 4.8 -47.35 4.8 -39.2 12.95 -31.0 21.15 -31.0 32.7 M-47.85 21.6 Q-43.25 26.2 -43.25 32.7 -43.25 39.15 -47.85 43.75 -52.4 48.3 -58.9 48.35 -65.4 48.3 -69.95 43.75 -74.55 39.15 -74.55 32.7 -74.55 26.2 -69.95 21.6 -65.4 17.05 -58.9 17.05 -52.4 17.05 -47.85 21.6 Z" fill="none" stroke="#000000" stroke-linecap="round" stroke-linejoin="round" stroke-width="0.05"/>
  </g>
</svg>
