<?xml version="1.0" encoding="UTF-8" standalone="no"?>
<svg xmlns:ffdec="https://www.free-decompiler.com/flash" xmlns:xlink="http://www.w3.org/1999/xlink" ffdec:objectType="shape" height="150.1px" width="487.2px" xmlns="http://www.w3.org/2000/svg">
  <g transform="matrix(1.0, 0.0, 0.0, 1.0, 239.35, 42.4)">
    <path d="M120.3 -7.55 L112.05 -6.65 120.3 -9.05 120.55 -9.15 152.3 -17.45 161.3 -19.85 Q179.6 -22.45 195.55 -15.8 L195.6 -15.65 152.65 -11.0 120.3 -7.55 M209.3 16.75 L209.65 17.15 239.25 47.35 Q242.65 51.9 244.55 55.85 237.45 56.1 230.25 51.6 225.9 48.9 222.35 45.15 L232.95 44.35 215.75 27.0 214.1 28.2 212.85 25.25 213.5 24.75 212.0 23.25 209.4 17.0 209.65 17.15 209.4 17.0 209.3 16.75 M-184.8 68.25 Q-196.55 62.55 -207.05 56.3 L-213.65 56.5 Q-222.7 52.95 -222.3 46.15 L-238.0 40.2 -238.35 27.55 -170.1 21.4 -163.55 20.85 -158.95 23.65 Q-148.35 30.9 -149.95 43.45 -151.85 58.25 -169.2 59.55 L-170.1 21.4 -169.2 59.55 -172.35 60.4 Q-180.35 62.05 -184.8 68.25 M-228.65 -22.75 L-227.65 -27.85 -226.25 -35.3 Q-225.25 -39.55 -218.6 -40.25 L-194.85 -41.4 -194.85 -41.3 -197.35 -40.9 Q-211.7 -38.75 -221.2 -28.05 L-221.3 -27.9 -228.65 -22.75 M-170.1 -40.4 L-156.2 -38.95 -156.05 -38.95 -146.35 -37.55 -132.55 -34.9 Q-124.7 -33.05 -118.85 -29.15 -114.4 -26.25 -111.1 -22.1 L-89.1 7.2 Q-95.7 6.5 -101.3 3.35 -107.9 -0.4 -111.5 -6.75 -112.5 -8.5 -113.65 -12.6 -115.05 -17.45 -115.75 -19.2 -117.6 -23.7 -120.95 -25.55 -123.3 -26.85 -126.35 -26.85 L-138.9 -25.75 Q-146.3 -25.75 -151.55 -28.05 -155.05 -29.55 -159.85 -33.4 L-160.35 -33.8 Q-165.5 -37.9 -168.4 -39.55 L-170.1 -40.4 M-9.45 20.05 L23.95 17.55 23.95 17.65 Q20.9 18.4 15.9 20.15 7.45 23.1 4.35 23.1 2.05 23.1 -6.45 20.85 L-9.45 20.05 M30.0 17.05 L48.8 15.65 54.3 15.25 54.35 15.7 51.95 16.65 Q45.15 19.45 43.0 19.5 40.2 19.45 35.9 18.3 L30.05 17.3 30.0 17.05 M64.95 14.4 L91.4 12.4 113.7 2.05 118.5 -0.2 Q118.4 0.3 115.35 3.5 L114.9 4.0 114.75 4.2 114.0 5.1 113.7 2.05 114.0 5.1 113.8 5.35 Q112.95 6.45 112.5 7.45 110.35 12.0 109.45 12.7 108.0 13.85 103.2 13.85 L98.45 12.95 94.7 12.05 94.55 12.05 93.95 12.05 91.45 12.45 Q90.6 12.7 89.95 13.1 L89.45 13.5 87.1 15.55 Q83.5 19.0 77.7 19.0 74.6 19.0 69.6 16.45 L66.4 14.95 65.6 14.65 64.95 14.4 M152.3 -17.45 L152.65 -11.0 152.3 -17.45 M206.3 15.1 L206.2 15.2 Q203.85 18.4 199.2 18.35 L190.05 17.9 Q177.3 16.1 164.9 18.95 L154.75 20.95 143.9 21.95 Q134.05 22.15 124.15 21.6 117.4 21.2 110.8 23.1 L106.55 24.4 Q100.05 26.8 93.25 26.55 L76.95 24.8 Q72.35 24.1 68.1 25.8 64.6 27.35 61.0 28.05 L55.45 28.85 Q46.75 29.15 37.85 29.0 L27.8 29.6 Q21.7 30.5 15.7 31.95 L5.65 33.05 -10.3 32.15 -15.6 31.75 Q-26.05 31.85 -35.85 35.25 -38.2 36.1 -40.75 36.4 L-52.8 35.7 Q-56.25 35.15 -59.7 35.75 -63.3 36.5 -67.05 35.6 -71.1 34.9 -73.2 31.15 L115.15 18.0 153.95 15.3 194.9 12.4 Q200.05 11.9 206.3 15.1 M-89.5 88.55 Q-79.2 83.05 -66.1 79.2 L-34.5 71.95 Q-7.25 66.85 2.0 79.8 L2.2 80.7 -3.25 80.05 -10.15 79.0 Q-12.15 79.0 -17.05 81.25 -21.95 83.45 -25.8 83.45 -30.35 83.45 -35.75 81.5 -41.1 79.55 -47.95 79.55 -52.75 79.55 -56.85 82.05 -61.0 84.55 -63.85 86.85 -66.7 89.05 -70.4 90.25 -74.1 91.45 -79.35 90.4 -84.65 89.35 -88.7 93.15 -92.8 96.9 -95.65 98.0 -98.5 99.1 -105.2 100.65 L-107.35 101.15 Q-99.9 94.05 -89.5 88.55 L-89.45 89.15 -89.5 88.55 M-227.65 -27.85 L-221.3 -27.9 -227.65 -27.85 M-160.35 -33.8 L-156.2 -38.95 -160.35 -33.8 M-118.85 -29.15 L-120.95 -25.55 -118.85 -29.15" fill="#bcbbb2" fill-rule="evenodd" stroke="none"/>
    <path d="M195.6 -15.65 L206.2 14.75 206.3 15.1 Q200.05 11.9 194.9 12.4 L153.95 15.3 115.15 18.0 -73.2 31.15 -73.35 31.15 -74.3 31.25 Q-74.3 28.3 -70.6 27.0 L-70.35 26.95 -59.1 23.95 -59.0 23.8 -41.35 22.5 -35.4 22.65 -30.65 21.7 -9.45 20.05 -6.45 20.85 Q2.05 23.1 4.35 23.1 7.45 23.1 15.9 20.15 20.9 18.4 23.95 17.65 L24.9 17.45 28.5 17.2 30.05 17.3 35.9 18.3 Q40.2 19.45 43.0 19.5 45.15 19.45 51.95 16.65 L54.35 15.7 55.6 15.3 56.2 15.1 56.7 15.05 64.95 14.4 65.6 14.65 66.4 14.95 69.6 16.45 Q74.6 19.0 77.7 19.0 83.5 19.0 87.1 15.55 L89.45 13.5 89.95 13.1 Q90.6 12.7 91.45 12.45 L93.95 12.05 94.55 12.05 94.7 12.05 98.45 12.95 103.2 13.85 Q108.0 13.85 109.45 12.7 110.35 12.0 112.5 7.45 112.95 6.45 113.8 5.35 L114.0 5.3 114.0 5.1 114.75 4.2 114.9 4.0 115.35 3.5 Q118.4 0.3 118.5 -0.2 L120.3 -1.05 120.3 -7.55 152.65 -11.0 195.6 -15.65 M115.15 18.0 L114.0 5.3 115.15 18.0 M153.95 15.3 L152.65 -11.0 153.95 15.3" fill="url(#gradient0)" fill-rule="evenodd" stroke="none"/>
    <path d="M246.4 67.55 Q245.85 69.35 244.6 70.9 239.65 77.4 228.75 81.0 L216.05 48.65 246.4 67.55" fill="url(#gradient1)" fill-rule="evenodd" stroke="none"/>
    <path d="M206.2 14.75 L206.3 15.1 209.05 16.75 209.25 16.85 209.3 16.75 209.4 17.0 209.25 16.85 209.4 17.0 212.0 23.25 208.9 20.1 206.95 21.25 205.75 21.9 208.25 28.7 211.15 26.55 212.85 25.25 214.1 28.2 213.1 28.95 209.4 31.65 213.35 41.75 214.9 45.7 222.35 45.15 Q225.9 48.9 230.25 51.6 237.45 56.1 244.55 55.85 247.85 62.75 246.4 67.55 L216.05 48.65 228.75 81.0 Q222.0 83.2 213.05 84.3 L206.0 84.9 206.75 79.0 167.7 82.3 167.7 81.25 167.7 82.3 167.7 82.95 167.35 87.95 157.05 88.75 138.55 90.2 134.3 90.55 86.3 94.35 Q90.0 92.55 89.55 86.85 L88.7 78.4 Q87.6 71.25 77.8 69.95 L21.85 73.45 Q14.2 74.6 11.75 81.9 L10.8 93.35 Q9.9 99.0 16.1 99.9 L-24.9 102.8 Q5.0 96.2 2.2 80.7 L2.0 79.8 Q-7.25 66.85 -34.5 71.95 L-66.1 79.2 Q-79.2 83.05 -89.5 88.55 L-94.95 14.65 -88.4 14.05 -72.85 12.65 -70.35 26.95 -70.6 27.0 Q-74.3 28.3 -74.3 31.25 L-73.35 31.15 -73.2 31.15 Q-71.1 34.9 -67.05 35.6 -63.3 36.5 -59.7 35.75 -56.25 35.15 -52.8 35.7 L-40.75 36.4 Q-38.2 36.1 -35.85 35.25 -26.05 31.85 -15.6 31.75 L-10.3 32.15 5.65 33.05 15.7 31.95 Q21.7 30.5 27.8 29.6 L37.85 29.0 Q46.75 29.15 55.45 28.85 L61.0 28.05 Q64.6 27.35 68.1 25.8 72.35 24.1 76.95 24.8 L93.25 26.55 Q100.05 26.8 106.55 24.4 L110.8 23.1 Q117.4 21.2 124.15 21.6 134.05 22.15 143.9 21.95 L154.75 20.95 164.9 18.95 Q177.3 16.1 190.05 17.9 L199.2 18.35 Q203.85 18.4 206.2 15.2 L206.3 15.1 206.2 14.75 M188.55 44.4 L189.9 47.55 210.3 46.05 205.4 32.85 201.5 32.95 185.65 33.2 184.9 36.1 188.55 44.4 M202.15 24.1 L198.95 24.3 187.75 24.9 186.5 29.9 200.55 29.65 204.2 29.55 202.15 24.1 M166.25 48.45 Q165.45 37.4 164.25 26.35 L131.2 28.2 132.65 44.65 132.7 45.15 133.1 50.9 138.65 50.5 166.25 48.45 Q167.4 64.85 167.7 81.25 167.4 64.85 166.25 48.45 M194.35 50.75 L191.45 51.0 198.1 66.2 217.05 64.55 211.5 49.3 205.85 49.75 194.35 50.75 M127.05 47.45 L126.55 38.85 123.9 39.0 117.3 48.0 117.45 50.25 124.15 49.85 124.3 52.6 127.35 52.45 127.2 49.7 129.25 49.55 129.1 47.3 127.05 47.45 M79.7 58.2 L79.95 61.5 Q80.3 66.45 85.3 66.1 L98.55 65.1 Q103.5 64.75 103.15 59.75 L102.05 44.8 Q101.7 39.8 96.7 40.2 L83.45 41.2 Q78.45 41.55 78.85 46.55 L78.85 46.7 79.7 58.2 M112.65 39.6 L110.05 39.75 Q109.65 41.0 108.2 42.0 106.8 43.05 105.65 43.5 L105.75 45.85 Q108.05 45.05 109.7 43.6 L110.3 53.4 113.45 53.25 112.65 39.6 M134.3 83.55 L134.3 90.55 134.3 83.55 Q134.1 67.35 133.1 50.9 134.1 67.35 134.3 83.55 L167.7 81.25 134.3 83.55 M34.6 48.7 L34.5 48.7 33.55 48.65 Q30.0 48.65 27.45 51.15 24.95 53.7 24.95 57.25 24.95 60.8 27.45 63.3 L27.55 63.4 28.2 64.0 Q30.5 65.85 33.55 65.85 37.1 65.85 39.6 63.3 42.15 60.8 42.15 57.25 42.15 53.7 39.6 51.15 37.45 49.0 34.6 48.7 M26.2 44.95 L39.45 44.15 Q44.45 43.85 44.75 48.85 L45.65 63.8 Q45.95 68.8 40.95 69.1 L27.7 69.9 Q22.7 70.2 22.4 65.2 L21.5 50.25 21.5 49.85 Q21.4 45.25 26.2 44.95 21.4 45.25 21.5 49.85 L21.5 50.25 22.4 65.2 Q22.7 70.2 27.7 69.9 L40.95 69.1 Q45.95 68.8 45.65 63.8 L44.75 48.85 Q44.45 43.85 39.45 44.15 L26.2 44.95 M6.35 51.2 L4.05 50.9 Q0.5 50.9 -2.05 53.4 -4.55 55.95 -4.55 59.5 -4.55 62.85 -2.3 65.25 L-2.05 65.55 Q0.5 68.1 4.05 68.1 7.6 68.1 10.1 65.55 12.65 63.05 12.65 59.5 12.65 55.95 10.1 53.4 8.45 51.75 6.35 51.2 M-57.8 69.5 Q-55.25 72.05 -51.7 72.05 -48.15 72.05 -45.65 69.5 -43.1 67.0 -43.1 63.45 -43.1 59.9 -45.65 57.35 -47.35 55.65 -49.55 55.1 L-51.7 54.85 Q-55.25 54.85 -57.8 57.35 -60.3 59.9 -60.3 63.45 -60.3 66.75 -58.1 69.15 L-57.8 69.5" fill="url(#gradient2)" fill-rule="evenodd" stroke="none"/>
    <path d="M157.05 88.75 L154.8 92.8 142.3 93.5 138.55 90.2 157.05 88.75 M64.45 96.1 L64.2 103.7 58.05 104.15 56.3 96.75 64.45 96.1 M48.8 15.65 L49.8 7.85 55.1 7.55 56.7 15.05 56.2 15.1 54.3 15.25 48.8 15.65 M206.95 21.25 L208.9 20.1 212.0 23.25 213.5 24.75 212.85 25.25 211.15 26.55 206.95 21.25 M214.1 28.2 L215.75 27.0 232.95 44.35 222.35 45.15 214.9 45.7 213.35 41.75 214.95 39.8 Q217.1 37.2 218.95 36.4 L213.1 28.95 214.1 28.2 M201.5 32.95 L205.4 32.85 210.3 46.05 189.9 47.55 188.55 44.4 204.35 42.65 201.5 32.95 M198.95 24.3 L202.15 24.1 204.2 29.55 200.55 29.65 198.95 24.3 M132.65 44.65 L131.2 28.2 164.25 26.35 Q165.45 37.4 166.25 48.45 L138.65 50.5 Q138.85 49.15 139.4 47.6 141.0 43.1 144.15 43.1 145.25 43.1 146.7 44.0 147.65 44.55 148.95 44.75 149.4 41.6 151.15 39.8 L152.2 38.95 151.05 38.95 137.8 39.75 Q133.0 40.05 133.1 44.65 L132.65 44.65 M205.85 49.75 L211.5 49.3 217.05 64.55 198.1 66.2 191.45 51.0 194.35 50.75 Q200.4 53.7 202.25 58.25 L209.9 57.15 209.9 56.6 Q209.25 55.1 206.85 51.65 L205.85 49.75 M79.7 58.2 Q81.3 59.75 83.4 60.3 L85.65 60.6 86.5 60.6 85.6 58.5 Q85.6 53.7 91.2 51.45 L94.15 50.5 Q93.75 48.1 92.05 46.25 L91.7 45.9 Q89.2 43.4 85.65 43.4 82.1 43.4 79.55 45.9 L78.95 46.6 78.85 46.55 Q78.45 41.55 83.45 41.2 L96.7 40.2 Q101.7 39.8 102.05 44.8 L103.15 59.75 Q103.5 64.75 98.55 65.1 L85.3 66.1 Q80.3 66.45 79.95 61.5 L79.7 58.2 M28.2 64.0 L28.5 63.45 Q32.05 63.45 34.55 60.9 37.1 58.4 37.1 54.85 37.1 51.3 34.55 48.75 L34.6 48.7 Q37.45 49.0 39.6 51.15 42.15 53.7 42.15 57.25 42.15 60.8 39.6 63.3 37.1 65.85 33.55 65.85 30.5 65.85 28.2 64.0 M6.35 51.2 Q8.45 51.75 10.1 53.4 12.65 55.95 12.65 59.5 12.65 63.05 10.1 65.55 7.6 68.1 4.05 68.1 0.5 68.1 -2.05 65.55 L-2.0 65.35 -0.05 65.55 Q3.5 65.55 6.0 63.0 8.55 60.5 8.55 56.95 8.55 53.65 6.35 51.2 M-57.8 69.5 L-57.75 69.25 -56.0 69.4 Q-52.45 69.4 -49.95 66.85 -47.4 64.35 -47.4 60.8 -47.4 57.5 -49.55 55.1 -47.35 55.65 -45.65 57.35 -43.1 59.9 -43.1 63.45 -43.1 67.0 -45.65 69.5 -48.15 72.05 -51.7 72.05 -55.25 72.05 -57.8 69.5" fill="#333333" fill-rule="evenodd" stroke="none"/>
    <path d="M206.0 84.9 L205.5 88.3 167.2 89.95 167.35 87.95 167.7 82.95 167.7 82.3 206.75 79.0 206.0 84.9" fill="#b3b3b3" fill-rule="evenodd" stroke="none"/>
    <path d="M127.05 47.45 L129.1 47.3 129.25 49.55 127.2 49.7 127.35 52.45 124.3 52.6 124.15 49.85 117.45 50.25 117.3 48.0 123.9 39.0 126.55 38.85 127.05 47.45 M123.75 42.95 L120.2 47.85 124.0 47.6 123.75 42.95 M112.65 39.6 L113.45 53.25 110.3 53.4 109.7 43.6 Q108.05 45.05 105.75 45.85 L105.65 43.5 Q106.8 43.05 108.2 42.0 109.65 41.0 110.05 39.75 L112.65 39.6" fill="#605a53" fill-rule="evenodd" stroke="none"/>
    <path d="M86.3 94.35 L64.45 96.1 56.3 96.75 16.1 99.9 Q9.9 99.0 10.8 93.35 L11.75 81.9 Q14.2 74.6 21.85 73.45 L77.8 69.95 Q87.6 71.25 88.7 78.4 L89.55 86.85 Q90.0 92.55 86.3 94.35" fill="url(#gradient3)" fill-rule="evenodd" stroke="none"/>
    <path d="M-238.35 27.55 L-228.65 -22.75 -221.3 -27.9 -221.2 -27.9 -221.2 -28.05 Q-211.7 -38.75 -197.35 -40.9 L-194.85 -41.3 -194.85 -41.4 -170.1 -40.4 -168.4 -39.55 Q-165.5 -37.9 -160.35 -33.8 L-164.4 -28.7 -160.35 -33.8 -159.85 -33.4 Q-155.05 -29.55 -151.55 -28.05 -146.3 -25.75 -138.9 -25.75 L-126.35 -26.85 Q-123.3 -26.85 -120.95 -25.55 -117.6 -23.7 -115.75 -19.2 -115.05 -17.45 -113.65 -12.6 -112.5 -8.5 -111.5 -6.75 -107.9 -0.4 -101.3 3.35 -95.7 6.5 -89.1 7.2 L-88.6 7.85 -88.4 14.05 -94.95 14.65 -163.55 20.85 -170.1 21.4 -238.35 27.55 M-164.55 -28.7 L-221.2 -27.9 -164.55 -28.7 -164.45 -28.6 -164.55 -28.5 -164.5 -28.5 -164.45 -28.6 -164.4 -28.7 -164.55 -28.7 M-204.65 -13.45 L-204.75 -17.15 -196.5 -17.4 -196.55 -19.65 -204.8 -19.4 -204.9 -22.45 -196.05 -22.7 -196.1 -25.0 -208.35 -24.65 -207.95 -11.05 -195.4 -11.4 -195.45 -13.7 -204.65 -13.45 M-189.6 -25.2 L-192.9 -25.1 -192.55 -11.5 -189.25 -11.6 -189.4 -17.55 -182.9 -17.7 -182.7 -11.75 -179.35 -11.85 -179.75 -25.45 -183.1 -25.35 -182.95 -20.0 -189.45 -19.85 -189.6 -25.2 M-164.5 -28.5 L-131.5 -7.65 -120.95 -25.55 -131.5 -7.65 -164.5 -28.5" fill="url(#gradient4)" fill-rule="evenodd" stroke="none"/>
    <path d="M-204.65 -13.45 L-195.45 -13.7 -195.4 -11.4 -207.95 -11.05 -208.35 -24.65 -196.1 -25.0 -196.05 -22.7 -204.9 -22.45 -204.8 -19.4 -196.55 -19.65 -196.5 -17.4 -204.75 -17.15 -204.65 -13.45 M-189.6 -25.2 L-189.45 -19.85 -182.95 -20.0 -183.1 -25.35 -179.75 -25.45 -179.35 -11.85 -182.7 -11.75 -182.9 -17.7 -189.4 -17.55 -189.25 -11.6 -192.55 -11.5 -192.9 -25.1 -189.6 -25.2" fill="#524b47" fill-rule="evenodd" stroke="none"/>
    <path d="M-72.85 12.65 L-72.8 12.65 -60.65 13.3 -59.1 23.95 -70.35 26.95 -72.85 12.65" fill="url(#gradient5)" fill-rule="evenodd" stroke="none"/>
    <path d="M-24.9 102.8 L-31.0 103.95 -75.55 106.65 Q-98.25 107.25 -109.1 103.0 L-109.1 102.9 -107.35 101.15 -105.2 100.65 Q-98.5 99.1 -95.65 98.0 -92.8 96.9 -88.7 93.15 -84.65 89.35 -79.35 90.4 -74.1 91.45 -70.4 90.25 -66.7 89.05 -63.85 86.85 -61.0 84.55 -56.85 82.05 -52.75 79.55 -47.95 79.55 -41.1 79.55 -35.75 81.5 -30.35 83.45 -25.8 83.45 -21.95 83.45 -17.05 81.25 -12.15 79.0 -10.15 79.0 L-3.25 80.05 2.2 80.7 Q5.0 96.2 -24.9 102.8" fill="url(#gradient6)" fill-rule="evenodd" stroke="none"/>
    <path d="M-109.25 101.6 L-110.0 95.3 Q-142.3 86.7 -169.0 75.4 L-168.85 74.9 -169.2 59.55 -168.85 74.9 -169.05 75.35 Q-177.2 71.95 -184.8 68.25 -180.35 62.05 -172.35 60.4 L-169.2 59.55 Q-151.85 58.25 -149.95 43.45 -148.35 30.9 -158.95 23.65 L-163.55 20.85 -94.95 14.65 -89.5 88.55 Q-99.9 94.05 -107.35 101.15 L-109.25 101.6" fill="url(#gradient7)" fill-rule="evenodd" stroke="none"/>
    <path d="M-169.0 75.4 L-169.05 75.35 -168.85 74.9 -169.0 75.4" fill="url(#gradient8)" fill-rule="evenodd" stroke="none"/>
    <path d="M123.75 42.95 L124.0 47.6 120.2 47.85 123.75 42.95" fill="url(#gradient9)" fill-rule="evenodd" stroke="none"/>
    <path d="M120.3 -7.55 L112.05 -6.65 120.3 -9.05 120.3 -9.1 120.55 -9.15 152.3 -17.45 161.3 -19.85 Q179.6 -22.45 195.55 -15.8 L195.6 -15.65 206.2 14.75 206.3 15.1 209.05 16.75 209.25 16.85 209.4 17.0 209.65 17.15 239.25 47.35 Q242.65 51.9 244.55 55.85 247.85 62.75 246.4 67.55 245.85 69.35 244.6 70.9 239.65 77.4 228.75 81.0 222.0 83.2 213.05 84.3 L206.0 84.9 205.5 88.3 167.2 89.95 167.35 87.95 157.05 88.75 154.8 92.8 142.3 93.5 138.55 90.2 134.3 90.55 86.3 94.35 64.45 96.1 64.2 103.7 58.05 104.15 56.3 96.75 16.1 99.9 -24.9 102.8 -31.0 103.95 -75.55 106.65 Q-98.25 107.25 -109.1 103.0 L-109.2 102.95 -109.1 102.9 -109.25 101.6 -110.0 95.3 Q-142.3 86.7 -169.0 75.4 L-169.05 75.35 Q-177.2 71.95 -184.8 68.25 -196.55 62.55 -207.05 56.3 L-213.65 56.5 Q-222.7 52.95 -222.3 46.15 L-238.0 40.2 -238.35 27.55 -228.65 -22.75 -227.65 -27.85 -226.25 -35.3 Q-225.25 -39.55 -218.6 -40.25 L-194.85 -41.4 -170.1 -40.4 -156.2 -38.95 -156.05 -38.95 -146.35 -37.55 -132.55 -34.9 Q-124.7 -33.05 -118.85 -29.15 -114.4 -26.25 -111.1 -22.1 L-89.1 7.2 -88.6 7.85 -88.4 14.05 -72.85 12.65 -72.8 12.65 -60.65 13.3 -59.1 23.95 -59.0 23.8 -41.35 22.5 -30.65 21.7 -9.45 20.05 23.95 17.55 24.9 17.45 28.5 17.2 30.0 17.05 48.8 15.65 49.8 7.85 55.1 7.55 56.7 15.05 64.95 14.4 91.4 12.4 113.7 2.05 118.5 -0.2 120.3 -1.05 120.3 -7.55 M120.3 -9.05 L120.55 -9.15 M213.35 41.75 L214.9 45.7 222.35 45.15 M212.85 25.25 L211.15 26.55 M213.1 28.95 L214.1 28.2 M212.0 23.25 L213.5 24.75 212.85 25.25 M198.95 24.3 L202.15 24.1 M132.65 44.65 L131.2 28.2 164.25 26.35 Q165.45 37.4 166.25 48.45 L138.65 50.5 133.1 50.9 132.7 45.15 132.65 44.65 M167.7 81.25 L167.7 82.3 M114.0 5.3 L114.0 5.1 M157.05 88.75 L138.55 90.2 M56.7 15.05 L56.2 15.1 54.3 15.25 48.8 15.65 M64.45 96.1 L56.3 96.75 M-221.2 -27.9 L-221.3 -27.9 M-164.55 -28.7 L-164.4 -28.7 -164.45 -28.6 -164.55 -28.5 -164.5 -28.5 M-59.1 23.95 L-70.35 26.95 M-109.1 102.9 L-109.1 103.0 M-89.5 88.55 L-89.45 89.15" fill="none" stroke="#000000" stroke-linecap="round" stroke-linejoin="round" stroke-width="2.0"/>
    <path d="M120.3 -7.55 L152.65 -11.0 152.3 -17.45 M152.65 -11.0 L195.6 -15.65 M-74.3 31.25 Q-74.3 28.3 -70.6 27.0 L-70.35 26.95 M206.3 15.1 Q200.05 11.9 194.9 12.4 L153.95 15.3 115.15 18.0 -73.2 31.15 M166.25 48.45 Q167.4 64.85 167.7 81.25 L134.3 83.55 Q134.1 67.35 133.1 50.9 M167.7 82.3 L206.75 79.0 206.0 84.9 M167.35 87.95 L167.7 82.95 167.7 82.3 M114.0 5.3 L115.15 18.0 M113.7 2.05 L114.0 5.1 M134.3 90.55 L134.3 83.55 M26.2 44.95 Q21.4 45.25 21.5 49.85 L21.5 50.25 22.4 65.2 Q22.7 70.2 27.7 69.9 L40.95 69.1 Q45.95 68.8 45.65 63.8 L44.75 48.85 Q44.45 43.85 39.45 44.15 L26.2 44.95 M-89.5 88.55 Q-79.2 83.05 -66.1 79.2 L-34.5 71.95 Q-7.25 66.85 2.0 79.8 L2.2 80.7 Q5.0 96.2 -24.9 102.8 M152.65 -11.0 L153.95 15.3 M-221.2 -27.9 L-164.55 -28.7 M-107.35 101.15 L-109.1 102.9 M-107.35 101.15 Q-99.9 94.05 -89.5 88.55" fill="none" stroke="#7b7b7b" stroke-linecap="round" stroke-linejoin="round" stroke-width="2.0"/>
    <path d="M211.15 26.55 L208.25 28.7 205.75 21.9 206.95 21.25 208.9 20.1 212.0 23.25 M214.1 28.2 L215.75 27.0 232.95 44.35 222.35 45.15 M188.55 44.4 L189.9 47.55 210.3 46.05 205.4 32.85 201.5 32.95 185.65 33.2 184.9 36.1 188.55 44.4 M213.35 41.75 L209.4 31.65 213.1 28.95 M202.15 24.1 L204.2 29.55 200.55 29.65 186.5 29.9 187.75 24.9 198.95 24.3 M194.35 50.75 L191.45 51.0 198.1 66.2 217.05 64.55 211.5 49.3 205.85 49.75 194.35 50.75" fill="none" stroke="#333333" stroke-linecap="round" stroke-linejoin="round" stroke-width="2.0"/>
    <path d="M-73.35 31.15 L-74.3 31.25 M79.7 58.2 L79.95 61.5 Q80.3 66.45 85.3 66.1 L98.55 65.1 Q103.5 64.75 103.15 59.75 L102.05 44.8 Q101.7 39.8 96.7 40.2 L83.45 41.2 Q78.45 41.55 78.85 46.55 L78.85 46.7 79.7 58.2 M34.6 48.7 L34.5 48.7 33.55 48.65 Q30.0 48.65 27.45 51.15 24.95 53.7 24.95 57.25 24.95 60.8 27.45 63.3 L27.55 63.4 28.2 64.0 Q30.5 65.85 33.55 65.85 37.1 65.85 39.6 63.3 42.15 60.8 42.15 57.25 42.15 53.7 39.6 51.15 37.45 49.0 34.6 48.7 M-2.05 65.55 L-2.3 65.25 Q-4.55 62.85 -4.55 59.5 -4.55 55.95 -2.05 53.4 0.5 50.9 4.05 50.9 L6.35 51.2 Q8.45 51.75 10.1 53.4 12.65 55.95 12.65 59.5 12.65 63.05 10.1 65.55 7.6 68.1 4.05 68.1 0.5 68.1 -2.05 65.55 M-57.8 69.5 Q-55.25 72.05 -51.7 72.05 -48.15 72.05 -45.65 69.5 -43.1 67.0 -43.1 63.45 -43.1 59.9 -45.65 57.35 -47.35 55.65 -49.55 55.1 L-51.7 54.85 Q-55.25 54.85 -57.8 57.35 -60.3 59.9 -60.3 63.45 -60.3 66.75 -58.1 69.15 L-57.8 69.5" fill="none" stroke="#000000" stroke-linecap="round" stroke-linejoin="round" stroke-width="2.0"/>
    <path d="M-164.4 -28.7 L-160.35 -33.8 -156.2 -38.95 M-221.3 -27.9 L-227.65 -27.85 M-120.95 -25.55 L-118.85 -29.15 M-120.95 -25.55 L-131.5 -7.65 -164.5 -28.5 M-88.4 14.05 L-94.95 14.65 -89.5 88.55 M-163.55 20.85 L-170.1 21.4 -169.2 59.55 -168.85 74.9 M-238.35 27.55 L-170.1 21.4 M-163.55 20.85 L-94.95 14.65" fill="none" stroke="#666666" stroke-linecap="round" stroke-linejoin="round" stroke-width="2.0"/>
    <path d="M120.3 -9.05 L120.55 -9.15 152.3 -17.45 161.3 -19.85 Q179.6 -22.45 195.55 -15.8 L195.6 -15.65 152.65 -11.0 120.3 -7.55 112.05 -6.65 120.3 -9.05 M209.3 16.75 L209.65 17.15 239.25 47.35 Q242.65 51.9 244.55 55.85 237.45 56.1 230.25 51.6 225.9 48.9 222.35 45.15 L232.95 44.35 215.75 27.0 214.1 28.2 212.85 25.25 213.5 24.75 212.0 23.25 209.4 17.0 209.3 16.75 M-184.8 68.25 Q-196.55 62.55 -207.05 56.3 L-213.65 56.5 Q-222.7 52.95 -222.3 46.15 L-238.0 40.2 -238.35 27.55 -170.1 21.4 -163.55 20.85 -158.95 23.65 Q-148.35 30.9 -149.95 43.45 -151.85 58.25 -169.2 59.55 L-170.1 21.4 -169.2 59.55 -172.35 60.4 Q-180.35 62.05 -184.8 68.25 M-228.65 -22.75 L-227.65 -27.85 -226.25 -35.3 Q-225.25 -39.55 -218.6 -40.25 L-194.85 -41.4 -194.85 -41.3 -197.35 -40.9 Q-211.7 -38.75 -221.2 -28.05 L-221.3 -27.9 -228.65 -22.75 M-170.1 -40.4 L-156.2 -38.95 -156.05 -38.95 -146.35 -37.55 -132.55 -34.9 Q-124.7 -33.05 -118.85 -29.15 -114.4 -26.25 -111.1 -22.1 L-89.1 7.2 Q-95.7 6.5 -101.3 3.35 -107.9 -0.4 -111.5 -6.75 -112.5 -8.5 -113.65 -12.6 -115.05 -17.45 -115.75 -19.2 -117.6 -23.7 -120.95 -25.55 -123.3 -26.85 -126.35 -26.85 L-138.9 -25.75 Q-146.3 -25.75 -151.55 -28.05 -155.05 -29.55 -159.85 -33.4 L-160.35 -33.8 Q-165.5 -37.9 -168.4 -39.55 L-170.1 -40.4 M-9.45 20.05 L23.95 17.55 23.95 17.65 Q20.9 18.4 15.9 20.15 7.45 23.1 4.35 23.1 2.05 23.1 -6.45 20.85 L-9.45 20.05 M30.0 17.05 L48.8 15.65 54.3 15.25 54.35 15.7 51.95 16.65 Q45.15 19.45 43.0 19.5 40.2 19.45 35.9 18.3 L30.05 17.3 30.0 17.05 M64.95 14.4 L91.4 12.4 113.7 2.05 118.5 -0.2 Q118.4 0.3 115.35 3.5 L114.9 4.0 114.75 4.2 114.0 5.1 113.8 5.35 Q112.95 6.45 112.5 7.45 110.35 12.0 109.45 12.7 108.0 13.85 103.2 13.85 L98.45 12.95 94.7 12.05 94.55 12.05 93.95 12.05 91.45 12.45 Q90.6 12.7 89.95 13.1 L89.45 13.5 87.1 15.55 Q83.5 19.0 77.7 19.0 74.6 19.0 69.6 16.45 L66.4 14.95 65.6 14.65 64.95 14.4 M152.3 -17.45 L152.65 -11.0 152.3 -17.45 M209.4 17.0 L209.65 17.15 209.4 17.0 M206.3 15.1 L206.2 15.2 Q203.85 18.4 199.2 18.35 L190.05 17.9 Q177.3 16.1 164.9 18.95 L154.75 20.95 143.9 21.95 Q134.05 22.15 124.15 21.6 117.4 21.2 110.8 23.1 L106.55 24.4 Q100.05 26.8 93.25 26.55 L76.95 24.8 Q72.35 24.1 68.1 25.8 64.6 27.35 61.0 28.05 L55.45 28.85 Q46.75 29.15 37.85 29.0 L27.8 29.6 Q21.7 30.5 15.7 31.95 L5.65 33.05 -10.3 32.15 -15.6 31.75 Q-26.05 31.85 -35.85 35.25 -38.2 36.1 -40.75 36.4 L-52.8 35.7 Q-56.25 35.15 -59.7 35.75 -63.3 36.5 -67.05 35.6 -71.1 34.9 -73.2 31.15 L115.15 18.0 153.95 15.3 194.9 12.4 Q200.05 11.9 206.3 15.1 M113.7 2.05 L114.0 5.1 113.7 2.05 M-89.5 88.55 Q-79.2 83.05 -66.1 79.2 L-34.5 71.95 Q-7.25 66.85 2.0 79.8 L2.2 80.7 -3.25 80.05 -10.15 79.0 Q-12.15 79.0 -17.05 81.25 -21.95 83.45 -25.8 83.45 -30.35 83.45 -35.75 81.5 -41.1 79.55 -47.95 79.55 -52.75 79.55 -56.85 82.05 -61.0 84.55 -63.85 86.85 -66.7 89.05 -70.4 90.25 -74.1 91.45 -79.35 90.4 -84.65 89.35 -88.7 93.15 -92.8 96.9 -95.65 98.0 -98.5 99.1 -105.2 100.65 L-107.35 101.15 Q-99.9 94.05 -89.5 88.55 L-89.45 89.15 -89.5 88.55 M-227.65 -27.85 L-221.3 -27.9 -227.65 -27.85 M-156.2 -38.95 L-160.35 -33.8 -156.2 -38.95 M-120.95 -25.55 L-118.85 -29.15 -120.95 -25.55" fill="#bcbbb2" fill-rule="evenodd" stroke="none"/>
    <path d="M195.6 -15.65 L206.2 14.75 206.3 15.1 Q200.05 11.9 194.9 12.4 L153.95 15.3 115.15 18.0 114.0 5.3 115.15 18.0 -73.2 31.15 -73.35 31.15 -74.3 31.25 Q-74.3 28.3 -70.6 27.0 L-70.35 26.95 -59.1 23.95 -59.0 23.8 -41.35 22.5 -35.4 22.65 -30.65 21.7 -9.45 20.05 -6.45 20.85 Q2.05 23.1 4.35 23.1 7.45 23.1 15.9 20.15 20.9 18.4 23.95 17.65 L24.9 17.45 28.5 17.2 30.05 17.3 35.9 18.3 Q40.2 19.45 43.0 19.5 45.15 19.45 51.95 16.65 L54.35 15.7 55.6 15.3 56.2 15.1 56.7 15.05 64.95 14.4 65.6 14.65 66.4 14.95 69.6 16.45 Q74.6 19.0 77.7 19.0 83.5 19.0 87.1 15.55 L89.45 13.5 89.95 13.1 Q90.6 12.7 91.45 12.45 L93.95 12.05 94.55 12.05 94.7 12.05 98.45 12.95 103.2 13.85 Q108.0 13.85 109.45 12.7 110.35 12.0 112.5 7.45 112.95 6.45 113.8 5.35 L114.0 5.3 114.0 5.1 114.75 4.2 114.9 4.0 115.35 3.5 Q118.4 0.3 118.5 -0.2 L120.3 -1.05 120.3 -7.55 152.65 -11.0 195.6 -15.65 M152.65 -11.0 L153.95 15.3 152.65 -11.0" fill="url(#gradient10)" fill-rule="evenodd" stroke="none"/>
    <path d="M246.4 67.55 Q245.85 69.35 244.6 70.9 239.65 77.4 228.75 81.0 L216.05 48.65 246.4 67.55" fill="url(#gradient11)" fill-rule="evenodd" stroke="none"/>
    <path d="M206.2 14.75 L206.3 15.1 209.05 16.75 209.25 16.85 209.3 16.75 209.4 17.0 212.0 23.25 208.9 20.1 206.95 21.25 205.75 21.9 208.25 28.7 211.15 26.55 212.85 25.25 214.1 28.2 213.1 28.95 209.4 31.65 213.35 41.75 214.9 45.7 222.35 45.15 Q225.9 48.9 230.25 51.6 237.45 56.1 244.55 55.85 247.85 62.75 246.4 67.55 L216.05 48.65 228.75 81.0 Q222.0 83.2 213.05 84.3 L206.0 84.9 206.75 79.0 167.7 82.3 167.7 82.95 167.35 87.95 157.05 88.75 138.55 90.2 134.3 90.55 86.3 94.35 Q90.0 92.55 89.55 86.85 L88.7 78.4 Q87.6 71.25 77.8 69.95 L21.85 73.45 Q14.2 74.6 11.75 81.9 L10.8 93.35 Q9.9 99.0 16.1 99.9 L-24.9 102.8 Q5.0 96.2 2.2 80.7 L2.0 79.8 Q-7.25 66.85 -34.5 71.95 L-66.1 79.2 Q-79.2 83.05 -89.5 88.55 L-94.95 14.65 -88.4 14.05 -72.85 12.65 -70.35 26.95 -70.6 27.0 Q-74.3 28.3 -74.3 31.25 L-73.35 31.15 -73.2 31.15 Q-71.1 34.9 -67.05 35.6 -63.3 36.5 -59.7 35.75 -56.25 35.15 -52.8 35.7 L-40.75 36.4 Q-38.2 36.1 -35.85 35.25 -26.05 31.85 -15.6 31.75 L-10.3 32.15 5.65 33.05 15.7 31.95 Q21.7 30.5 27.8 29.6 L37.85 29.0 Q46.75 29.15 55.45 28.85 L61.0 28.05 Q64.6 27.35 68.1 25.8 72.35 24.1 76.95 24.8 L93.25 26.55 Q100.05 26.8 106.55 24.4 L110.8 23.1 Q117.4 21.2 124.15 21.6 134.05 22.15 143.9 21.95 L154.75 20.95 164.9 18.95 Q177.3 16.1 190.05 17.9 L199.2 18.35 Q203.85 18.4 206.2 15.2 L206.3 15.1 206.2 14.75 M209.4 17.0 L209.25 16.85 209.4 17.0 M188.55 44.4 L189.9 47.55 210.3 46.05 205.4 32.85 201.5 32.95 185.65 33.2 184.9 36.1 188.55 44.4 M202.15 24.1 L198.95 24.3 187.75 24.9 186.5 29.9 200.55 29.65 204.2 29.55 202.15 24.1 M138.65 50.5 L166.25 48.45 Q165.45 37.4 164.25 26.35 L131.2 28.2 132.65 44.65 132.7 45.15 133.1 50.9 138.65 50.5 M166.25 48.45 Q167.4 64.85 167.7 81.25 L134.3 83.55 Q134.1 67.35 133.1 50.9 134.1 67.35 134.3 83.55 L167.7 81.25 Q167.4 64.85 166.25 48.45 M194.35 50.75 L191.45 51.0 198.1 66.2 217.05 64.55 211.5 49.3 205.85 49.75 194.35 50.75 M167.7 81.25 L167.7 82.3 167.7 81.25 M126.55 38.85 L123.9 39.0 117.3 48.0 117.45 50.25 124.15 49.85 124.3 52.6 127.35 52.45 127.2 49.7 129.25 49.55 129.1 47.3 127.05 47.45 126.55 38.85 M79.7 58.2 L79.95 61.5 Q80.3 66.45 85.3 66.1 L98.55 65.1 Q103.5 64.75 103.15 59.75 L102.05 44.8 Q101.7 39.8 96.7 40.2 L83.45 41.2 Q78.45 41.55 78.85 46.55 L78.85 46.7 79.7 58.2 M112.65 39.6 L110.05 39.75 Q109.65 41.0 108.2 42.0 106.8 43.05 105.65 43.5 L105.75 45.85 Q108.05 45.05 109.7 43.6 L110.3 53.4 113.45 53.25 112.65 39.6 M134.3 90.55 L134.3 83.55 134.3 90.55 M26.2 44.95 L39.45 44.15 Q44.45 43.85 44.75 48.85 L45.65 63.8 Q45.95 68.8 40.95 69.1 L27.7 69.9 Q22.7 70.2 22.4 65.2 L21.5 50.25 21.5 49.85 Q21.4 45.25 26.2 44.95 21.4 45.25 21.5 49.85 L21.5 50.25 22.4 65.2 Q22.7 70.2 27.7 69.9 L40.95 69.1 Q45.95 68.8 45.65 63.8 L44.75 48.85 Q44.45 43.85 39.45 44.15 L26.2 44.95 M34.6 48.7 L34.5 48.7 33.55 48.65 Q30.0 48.65 27.45 51.15 24.95 53.7 24.95 57.25 24.95 60.8 27.45 63.3 L27.55 63.4 28.2 64.0 Q30.5 65.85 33.55 65.85 37.1 65.85 39.6 63.3 42.15 60.8 42.15 57.25 42.15 53.7 39.6 51.15 37.45 49.0 34.6 48.7 M-2.05 65.55 Q0.5 68.1 4.05 68.1 7.6 68.1 10.1 65.55 12.65 63.05 12.65 59.5 12.65 55.95 10.1 53.4 8.45 51.75 6.35 51.2 L4.05 50.9 Q0.5 50.9 -2.05 53.4 -4.55 55.95 -4.55 59.5 -4.55 62.85 -2.3 65.25 L-2.05 65.55 M-57.8 69.5 Q-55.25 72.05 -51.7 72.05 -48.15 72.05 -45.65 69.5 -43.1 67.0 -43.1 63.45 -43.1 59.9 -45.65 57.35 -47.35 55.65 -49.55 55.1 L-51.7 54.85 Q-55.25 54.85 -57.8 57.35 -60.3 59.9 -60.3 63.45 -60.3 66.75 -58.1 69.15 L-57.8 69.5" fill="url(#gradient12)" fill-rule="evenodd" stroke="none"/>
    <path d="M157.05 88.75 L154.8 92.8 142.3 93.5 138.55 90.2 157.05 88.75 M64.45 96.1 L64.2 103.7 58.05 104.15 56.3 96.75 64.45 96.1 M48.8 15.65 L49.8 7.85 55.1 7.55 56.7 15.05 56.2 15.1 54.3 15.25 48.8 15.65 M212.0 23.25 L213.5 24.75 212.85 25.25 211.15 26.55 206.95 21.25 208.9 20.1 212.0 23.25 M214.1 28.2 L215.75 27.0 232.95 44.35 222.35 45.15 214.9 45.7 213.35 41.75 214.95 39.8 Q217.1 37.2 218.95 36.4 L213.1 28.95 214.1 28.2 M201.5 32.95 L205.4 32.85 210.3 46.05 189.9 47.55 188.55 44.4 204.35 42.65 201.5 32.95 M198.95 24.3 L202.15 24.1 204.2 29.55 200.55 29.65 198.95 24.3 M132.65 44.65 L131.2 28.2 164.25 26.35 Q165.45 37.4 166.25 48.45 L138.65 50.5 Q138.85 49.15 139.4 47.6 141.0 43.1 144.15 43.1 145.25 43.1 146.7 44.0 147.65 44.55 148.95 44.75 149.4 41.6 151.15 39.8 L152.2 38.95 151.05 38.95 137.8 39.75 Q133.0 40.05 133.1 44.65 L132.65 44.65 M194.35 50.75 Q200.4 53.7 202.25 58.25 L209.9 57.15 209.9 56.6 Q209.25 55.1 206.85 51.65 L205.85 49.75 211.5 49.3 217.05 64.55 198.1 66.2 191.45 51.0 194.35 50.75 M78.85 46.55 Q78.45 41.55 83.45 41.2 L96.7 40.2 Q101.7 39.8 102.05 44.8 L103.15 59.75 Q103.5 64.75 98.55 65.1 L85.3 66.1 Q80.3 66.45 79.95 61.5 L79.7 58.2 Q81.3 59.75 83.4 60.3 L85.65 60.6 86.5 60.6 85.6 58.5 Q85.6 53.7 91.2 51.45 L94.15 50.5 Q93.75 48.1 92.05 46.25 L91.7 45.9 Q89.2 43.4 85.65 43.4 82.1 43.4 79.55 45.9 L78.95 46.6 78.85 46.55 M28.2 64.0 L28.5 63.45 Q32.05 63.45 34.55 60.9 37.1 58.4 37.1 54.85 37.1 51.3 34.55 48.75 L34.6 48.7 Q37.45 49.0 39.6 51.15 42.15 53.7 42.15 57.25 42.15 60.8 39.6 63.3 37.1 65.85 33.55 65.85 30.5 65.85 28.2 64.0 M6.35 51.2 Q8.45 51.75 10.1 53.4 12.65 55.95 12.65 59.5 12.65 63.05 10.1 65.55 7.6 68.1 4.05 68.1 0.5 68.1 -2.05 65.55 L-2.0 65.35 -0.05 65.55 Q3.5 65.55 6.0 63.0 8.55 60.5 8.55 56.95 8.55 53.65 6.35 51.2 M-57.8 69.5 L-57.75 69.25 -56.0 69.4 Q-52.45 69.4 -49.95 66.85 -47.4 64.35 -47.4 60.8 -47.4 57.5 -49.55 55.1 -47.35 55.65 -45.65 57.35 -43.1 59.9 -43.1 63.45 -43.1 67.0 -45.65 69.5 -48.15 72.05 -51.7 72.05 -55.25 72.05 -57.8 69.5" fill="#333333" fill-rule="evenodd" stroke="none"/>
    <path d="M206.0 84.9 L205.5 88.3 167.2 89.95 167.35 87.95 167.7 82.95 167.7 82.3 206.75 79.0 206.0 84.9" fill="#b3b3b3" fill-rule="evenodd" stroke="none"/>
    <path d="M123.75 42.95 L120.2 47.85 124.0 47.6 123.75 42.95 M126.55 38.85 L127.05 47.45 129.1 47.3 129.25 49.55 127.2 49.7 127.35 52.45 124.3 52.6 124.15 49.85 117.45 50.25 117.3 48.0 123.9 39.0 126.55 38.85 M112.65 39.6 L113.45 53.25 110.3 53.4 109.7 43.6 Q108.05 45.05 105.75 45.85 L105.65 43.5 Q106.8 43.05 108.2 42.0 109.65 41.0 110.05 39.75 L112.65 39.6" fill="#605a53" fill-rule="evenodd" stroke="none"/>
    <path d="M86.3 94.35 L64.45 96.1 56.3 96.75 16.1 99.9 Q9.9 99.0 10.8 93.35 L11.75 81.9 Q14.2 74.6 21.85 73.45 L77.8 69.95 Q87.6 71.25 88.7 78.4 L89.55 86.85 Q90.0 92.55 86.3 94.35" fill="url(#gradient13)" fill-rule="evenodd" stroke="none"/>
    <path d="M-238.35 27.55 L-228.65 -22.75 -221.3 -27.9 -221.2 -27.9 -221.2 -28.05 Q-211.7 -38.75 -197.35 -40.9 L-194.85 -41.3 -194.85 -41.4 -170.1 -40.4 -168.4 -39.55 Q-165.5 -37.9 -160.35 -33.8 L-164.4 -28.7 -160.35 -33.8 -159.85 -33.4 Q-155.05 -29.55 -151.55 -28.05 -146.3 -25.75 -138.9 -25.75 L-126.35 -26.85 Q-123.3 -26.85 -120.95 -25.55 L-131.5 -7.65 -164.5 -28.5 -131.5 -7.65 -120.95 -25.55 Q-117.6 -23.7 -115.75 -19.2 -115.05 -17.45 -113.65 -12.6 -112.5 -8.5 -111.5 -6.75 -107.9 -0.4 -101.3 3.35 -95.7 6.5 -89.1 7.2 L-88.6 7.85 -88.4 14.05 -94.95 14.65 -163.55 20.85 -170.1 21.4 -238.35 27.55 M-164.55 -28.7 L-221.2 -27.9 -164.55 -28.7 -164.45 -28.6 -164.4 -28.7 -164.55 -28.7 M-208.35 -24.65 L-207.95 -11.05 -195.4 -11.4 -195.45 -13.7 -204.65 -13.45 -204.75 -17.15 -196.5 -17.4 -196.55 -19.65 -204.8 -19.4 -204.9 -22.45 -196.05 -22.7 -196.1 -25.0 -208.35 -24.65 M-164.45 -28.6 L-164.55 -28.5 -164.5 -28.5 -164.45 -28.6 M-189.6 -25.2 L-192.9 -25.1 -192.55 -11.5 -189.25 -11.6 -189.4 -17.55 -182.9 -17.7 -182.7 -11.75 -179.35 -11.85 -179.75 -25.45 -183.1 -25.35 -182.95 -20.0 -189.45 -19.85 -189.6 -25.2" fill="url(#gradient14)" fill-rule="evenodd" stroke="none"/>
    <path d="M-208.35 -24.65 L-196.1 -25.0 -196.05 -22.7 -204.9 -22.45 -204.8 -19.4 -196.55 -19.65 -196.5 -17.4 -204.75 -17.15 -204.65 -13.45 -195.45 -13.7 -195.4 -11.4 -207.95 -11.05 -208.35 -24.65 M-189.6 -25.2 L-189.45 -19.85 -182.95 -20.0 -183.1 -25.35 -179.75 -25.45 -179.35 -11.85 -182.7 -11.75 -182.9 -17.7 -189.4 -17.55 -189.25 -11.6 -192.55 -11.5 -192.9 -25.1 -189.6 -25.2" fill="#524b47" fill-rule="evenodd" stroke="none"/>
    <path d="M-72.85 12.65 L-72.8 12.65 -60.65 13.3 -59.1 23.95 -70.35 26.95 -72.85 12.65" fill="url(#gradient15)" fill-rule="evenodd" stroke="none"/>
    <path d="M-24.9 102.8 L-31.0 103.95 -75.55 106.65 Q-98.25 107.25 -109.1 103.0 L-109.1 102.9 -107.35 101.15 -105.2 100.65 Q-98.5 99.1 -95.65 98.0 -92.8 96.9 -88.7 93.15 -84.65 89.35 -79.35 90.4 -74.1 91.45 -70.4 90.25 -66.7 89.05 -63.85 86.85 -61.0 84.55 -56.85 82.05 -52.75 79.55 -47.95 79.55 -41.1 79.55 -35.75 81.5 -30.35 83.45 -25.8 83.45 -21.95 83.45 -17.05 81.25 -12.15 79.0 -10.15 79.0 L-3.25 80.05 2.2 80.7 Q5.0 96.2 -24.9 102.8" fill="url(#gradient16)" fill-rule="evenodd" stroke="none"/>
    <path d="M-109.25 101.6 L-110.0 95.3 Q-142.3 86.7 -169.0 75.4 L-168.85 74.9 -169.2 59.55 -168.85 74.9 -169.05 75.35 Q-177.2 71.95 -184.8 68.25 -180.35 62.05 -172.35 60.4 L-169.2 59.55 Q-151.85 58.25 -149.95 43.45 -148.35 30.9 -158.95 23.65 L-163.55 20.85 -94.95 14.65 -89.5 88.55 Q-99.9 94.05 -107.35 101.15 L-109.25 101.6" fill="url(#gradient17)" fill-rule="evenodd" stroke="none"/>
    <path d="M-169.0 75.4 L-169.05 75.35 -168.85 74.9 -169.0 75.4" fill="url(#gradient18)" fill-rule="evenodd" stroke="none"/>
    <path d="M123.75 42.95 L124.0 47.6 120.2 47.85 123.75 42.95" fill="url(#gradient19)" fill-rule="evenodd" stroke="none"/>
    <path d="M120.55 -9.15 L120.3 -9.1 120.3 -9.05 120.55 -9.15 152.3 -17.45 161.3 -19.85 Q179.6 -22.45 195.55 -15.8 L195.6 -15.65 206.2 14.75 206.3 15.1 209.05 16.75 209.25 16.85 209.4 17.0 209.65 17.15 239.25 47.35 Q242.65 51.9 244.55 55.85 247.85 62.75 246.4 67.55 245.85 69.35 244.6 70.9 239.65 77.4 228.75 81.0 222.0 83.2 213.05 84.3 L206.0 84.9 205.5 88.3 167.2 89.95 167.35 87.95 157.05 88.75 154.8 92.8 142.3 93.5 138.55 90.2 134.3 90.55 86.3 94.35 64.45 96.1 64.2 103.7 58.05 104.15 56.3 96.75 16.1 99.9 -24.9 102.8 -31.0 103.95 -75.55 106.65 Q-98.25 107.25 -109.1 103.0 L-109.2 102.95 -109.1 102.9 -109.25 101.6 -110.0 95.3 Q-142.3 86.7 -169.0 75.4 L-169.05 75.35 Q-177.2 71.95 -184.8 68.25 -196.55 62.55 -207.05 56.3 L-213.65 56.5 Q-222.7 52.95 -222.3 46.15 L-238.0 40.2 -238.35 27.55 -228.65 -22.75 -227.65 -27.85 -226.25 -35.3 Q-225.25 -39.55 -218.6 -40.25 L-194.85 -41.4 -170.1 -40.4 -156.2 -38.95 -156.05 -38.95 -146.35 -37.55 -132.55 -34.9 Q-124.7 -33.05 -118.85 -29.15 -114.4 -26.25 -111.1 -22.1 L-89.1 7.2 -88.6 7.85 -88.4 14.05 -72.85 12.65 -72.8 12.65 -60.65 13.3 -59.1 23.95 -59.0 23.8 -41.35 22.5 -30.65 21.7 -9.45 20.05 23.95 17.55 24.9 17.45 28.5 17.2 30.0 17.05 48.8 15.65 49.8 7.85 55.1 7.55 56.7 15.05 64.95 14.4 91.4 12.4 113.7 2.05 118.5 -0.2 120.3 -1.05 120.3 -7.55 112.05 -6.65 120.3 -9.05 M212.0 23.25 L213.5 24.75 212.85 25.25 211.15 26.55 M214.1 28.2 L213.1 28.95 M213.35 41.75 L214.9 45.7 222.35 45.15 M198.95 24.3 L202.15 24.1 M138.65 50.5 L166.25 48.45 Q165.45 37.4 164.25 26.35 L131.2 28.2 132.65 44.65 132.7 45.15 133.1 50.9 138.65 50.5 M167.7 82.3 L167.7 81.25 M114.0 5.3 L114.0 5.1 M157.05 88.75 L138.55 90.2 M54.3 15.25 L48.8 15.65 M54.3 15.25 L56.2 15.1 56.7 15.05 M-89.5 88.55 L-89.45 89.15 M64.45 96.1 L56.3 96.75 M-221.2 -27.9 L-221.3 -27.9 M-164.55 -28.7 L-164.4 -28.7 -164.45 -28.6 -164.55 -28.5 -164.5 -28.5 M-59.1 23.95 L-70.35 26.95 M-109.1 102.9 L-109.1 103.0" fill="none" stroke="#000000" stroke-linecap="round" stroke-linejoin="round" stroke-width="0.05"/>
    <path d="M152.65 -11.0 L152.3 -17.45 M120.3 -7.55 L152.65 -11.0 195.6 -15.65 M-74.3 31.25 Q-74.3 28.3 -70.6 27.0 L-70.35 26.95 M133.1 50.9 Q134.1 67.35 134.3 83.55 L167.7 81.25 Q167.4 64.85 166.25 48.45 M206.0 84.9 L206.75 79.0 167.7 82.3 167.7 82.95 167.35 87.95 M153.95 15.3 L194.9 12.4 Q200.05 11.9 206.3 15.1 M114.0 5.3 L115.15 18.0 153.95 15.3 152.65 -11.0 M114.0 5.1 L113.7 2.05 M134.3 83.55 L134.3 90.55 M26.2 44.95 Q21.4 45.25 21.5 49.85 L21.5 50.25 22.4 65.2 Q22.7 70.2 27.7 69.9 L40.95 69.1 Q45.95 68.8 45.65 63.8 L44.75 48.85 Q44.45 43.85 39.45 44.15 L26.2 44.95 M2.2 80.7 L2.0 79.8 Q-7.25 66.85 -34.5 71.95 L-66.1 79.2 Q-79.2 83.05 -89.5 88.55 -99.9 94.05 -107.35 101.15 L-109.1 102.9 M-221.2 -27.9 L-164.55 -28.7 M-24.9 102.8 Q5.0 96.2 2.2 80.7 M115.15 18.0 L-73.2 31.15" fill="none" stroke="#7b7b7b" stroke-linecap="round" stroke-linejoin="round" stroke-width="0.05"/>
    <path d="M214.1 28.2 L215.75 27.0 232.95 44.35 222.35 45.15 M206.95 21.25 L205.75 21.9 208.25 28.7 211.15 26.55 M206.95 21.25 L208.9 20.1 212.0 23.25 M188.55 44.4 L189.9 47.55 210.3 46.05 205.4 32.85 201.5 32.95 185.65 33.2 184.9 36.1 188.55 44.4 M213.1 28.95 L209.4 31.65 213.35 41.75 M202.15 24.1 L204.2 29.55 200.55 29.65 186.5 29.9 187.75 24.9 198.95 24.3 M194.35 50.75 L191.45 51.0 198.1 66.2 217.05 64.55 211.5 49.3 205.85 49.75 194.35 50.75" fill="none" stroke="#333333" stroke-linecap="round" stroke-linejoin="round" stroke-width="0.05"/>
    <path d="M-73.35 31.15 L-74.3 31.25 M79.7 58.2 L79.95 61.5 Q80.3 66.45 85.3 66.1 L98.55 65.1 Q103.5 64.75 103.15 59.75 L102.05 44.8 Q101.7 39.8 96.7 40.2 L83.45 41.2 Q78.45 41.55 78.85 46.55 L78.85 46.7 79.7 58.2 M34.6 48.7 L34.5 48.7 33.55 48.65 Q30.0 48.65 27.45 51.15 24.95 53.7 24.95 57.25 24.95 60.8 27.45 63.3 L27.55 63.4 28.2 64.0 Q30.5 65.85 33.55 65.85 37.1 65.85 39.6 63.3 42.15 60.8 42.15 57.25 42.15 53.7 39.6 51.15 37.45 49.0 34.6 48.7 M-2.05 65.55 Q0.5 68.1 4.05 68.1 7.6 68.1 10.1 65.55 12.65 63.05 12.65 59.5 12.65 55.95 10.1 53.4 8.45 51.75 6.35 51.2 L4.05 50.9 Q0.5 50.9 -2.05 53.4 -4.55 55.95 -4.55 59.5 -4.55 62.85 -2.3 65.25 L-2.05 65.55 M-57.8 69.5 Q-55.25 72.05 -51.7 72.05 -48.15 72.05 -45.65 69.5 -43.1 67.0 -43.1 63.45 -43.1 59.9 -45.65 57.35 -47.35 55.65 -49.55 55.1 L-51.7 54.85 Q-55.25 54.85 -57.8 57.35 -60.3 59.9 -60.3 63.45 -60.3 66.75 -58.1 69.15 L-57.8 69.5" fill="none" stroke="#000000" stroke-linecap="round" stroke-linejoin="round" stroke-width="0.05"/>
    <path d="M-221.3 -27.9 L-227.65 -27.85 M-164.4 -28.7 L-160.35 -33.8 -156.2 -38.95 M-164.5 -28.5 L-131.5 -7.65 -120.95 -25.55 -118.85 -29.15 M-94.95 14.65 L-88.4 14.05 M-163.55 20.85 L-170.1 21.4 -169.2 59.55 -168.85 74.9 M-89.5 88.55 L-94.95 14.65 -163.55 20.85 M-238.35 27.55 L-170.1 21.4" fill="none" stroke="#666666" stroke-linecap="round" stroke-linejoin="round" stroke-width="0.05"/>
  </g>
  <defs>
    <linearGradient gradientTransform="matrix(-0.0029, -0.0361, 0.0243, -0.002, 134.7, 9.55)" gradientUnits="userSpaceOnUse" id="gradient0" spreadMethod="pad" x1="-819.2" x2="819.2">
      <stop offset="0.6352941176470588" stop-color="#ffffff"/>
      <stop offset="0.8352941176470589" stop-color="#cbc9bc"/>
      <stop offset="0.9490196078431372" stop-color="#9e9894"/>
    </linearGradient>
    <linearGradient gradientTransform="matrix(0.0159, 0.0206, -0.0107, 0.0083, 229.6, 69.7)" gradientUnits="userSpaceOnUse" id="gradient1" spreadMethod="pad" x1="-819.2" x2="819.2">
      <stop offset="0.0" stop-color="#666666"/>
      <stop offset="1.0" stop-color="#000000"/>
    </linearGradient>
    <linearGradient gradientTransform="matrix(0.0026, 0.0355, -0.2521, 0.0188, 43.85, 70.9)" gradientUnits="userSpaceOnUse" id="gradient2" spreadMethod="pad" x1="-819.2" x2="819.2">
      <stop offset="0.6352941176470588" stop-color="#ffffff"/>
      <stop offset="0.8352941176470589" stop-color="#cbc9bc"/>
      <stop offset="0.9490196078431372" stop-color="#9e9894"/>
    </linearGradient>
    <linearGradient gradientTransform="matrix(0.0034, 0.045, -0.0483, 0.0036, 50.7, 66.0)" gradientUnits="userSpaceOnUse" id="gradient3" spreadMethod="pad" x1="-819.2" x2="819.2">
      <stop offset="0.6352941176470588" stop-color="#848484"/>
      <stop offset="0.8352941176470589" stop-color="#4b483d"/>
      <stop offset="0.9490196078431372" stop-color="#242120"/>
    </linearGradient>
    <linearGradient gradientTransform="matrix(0.0, -0.0471, 0.0915, 0.0, -162.5, -16.15)" gradientUnits="userSpaceOnUse" id="gradient4" spreadMethod="pad" x1="-819.2" x2="819.2">
      <stop offset="0.6352941176470588" stop-color="#ffffff"/>
      <stop offset="0.8352941176470589" stop-color="#cbc9bc"/>
      <stop offset="0.9490196078431372" stop-color="#9e9894"/>
    </linearGradient>
    <linearGradient gradientTransform="matrix(0.0024, 0.0146, -0.0072, 0.0012, -65.55, 14.1)" gradientUnits="userSpaceOnUse" id="gradient5" spreadMethod="pad" x1="-819.2" x2="819.2">
      <stop offset="0.6352941176470588" stop-color="#848484"/>
      <stop offset="0.8352941176470589" stop-color="#4b483d"/>
      <stop offset="0.9490196078431372" stop-color="#242120"/>
    </linearGradient>
    <linearGradient gradientTransform="matrix(0.0047, 0.0272, -0.0683, 0.0117, -52.15, 88.35)" gradientUnits="userSpaceOnUse" id="gradient6" spreadMethod="pad" x1="-819.2" x2="819.2">
      <stop offset="0.6352941176470588" stop-color="#ffffff"/>
      <stop offset="0.8352941176470589" stop-color="#cbc9bc"/>
      <stop offset="0.9490196078431372" stop-color="#9e9894"/>
    </linearGradient>
    <linearGradient gradientTransform="matrix(-0.0104, 0.0425, -0.055, -0.0135, -126.5, 67.65)" gradientUnits="userSpaceOnUse" id="gradient7" spreadMethod="pad" x1="-819.2" x2="819.2">
      <stop offset="0.6352941176470588" stop-color="#ffffff"/>
      <stop offset="0.8352941176470589" stop-color="#cbc9bc"/>
      <stop offset="0.9490196078431372" stop-color="#9e9894"/>
    </linearGradient>
    <linearGradient gradientTransform="matrix(0.2539, 0.0, 0.0, 0.055, 38.8, 57.7)" gradientUnits="userSpaceOnUse" id="gradient8" spreadMethod="pad" x1="-819.2" x2="819.2">
      <stop offset="0.0" stop-color="#ffffff"/>
      <stop offset="0.807843137254902" stop-color="#b8b6a5"/>
      <stop offset="0.9490196078431372" stop-color="#8f8982"/>
    </linearGradient>
    <linearGradient gradientTransform="matrix(0.0019, 0.0356, 0.2524, -0.0134, 194.0, 61.9)" gradientUnits="userSpaceOnUse" id="gradient9" spreadMethod="pad" x1="-819.2" x2="819.2">
      <stop offset="0.6352941176470588" stop-color="#ffffff"/>
      <stop offset="0.8352941176470589" stop-color="#cbc9bc"/>
      <stop offset="0.9490196078431372" stop-color="#9e9894"/>
    </linearGradient>
    <linearGradient gradientTransform="matrix(-0.0029, -0.0361, 0.0243, -0.002, 134.7, 9.55)" gradientUnits="userSpaceOnUse" id="gradient10" spreadMethod="pad" x1="-819.2" x2="819.2">
      <stop offset="0.6352941176470588" stop-color="#ffffff"/>
      <stop offset="0.8352941176470589" stop-color="#cbc9bc"/>
      <stop offset="0.9490196078431372" stop-color="#9e9894"/>
    </linearGradient>
    <linearGradient gradientTransform="matrix(0.0159, 0.0206, -0.0107, 0.0083, 229.6, 69.7)" gradientUnits="userSpaceOnUse" id="gradient11" spreadMethod="pad" x1="-819.2" x2="819.2">
      <stop offset="0.0" stop-color="#666666"/>
      <stop offset="1.0" stop-color="#000000"/>
    </linearGradient>
    <linearGradient gradientTransform="matrix(0.0026, 0.0355, -0.2521, 0.0188, 43.85, 70.9)" gradientUnits="userSpaceOnUse" id="gradient12" spreadMethod="pad" x1="-819.2" x2="819.2">
      <stop offset="0.6352941176470588" stop-color="#ffffff"/>
      <stop offset="0.8352941176470589" stop-color="#cbc9bc"/>
      <stop offset="0.9490196078431372" stop-color="#9e9894"/>
    </linearGradient>
    <linearGradient gradientTransform="matrix(0.0034, 0.045, -0.0483, 0.0036, 50.7, 66.0)" gradientUnits="userSpaceOnUse" id="gradient13" spreadMethod="pad" x1="-819.2" x2="819.2">
      <stop offset="0.6352941176470588" stop-color="#848484"/>
      <stop offset="0.8352941176470589" stop-color="#4b483d"/>
      <stop offset="0.9490196078431372" stop-color="#242120"/>
    </linearGradient>
    <linearGradient gradientTransform="matrix(0.0, -0.0471, 0.0915, 0.0, -162.5, -16.15)" gradientUnits="userSpaceOnUse" id="gradient14" spreadMethod="pad" x1="-819.2" x2="819.2">
      <stop offset="0.6352941176470588" stop-color="#ffffff"/>
      <stop offset="0.8352941176470589" stop-color="#cbc9bc"/>
      <stop offset="0.9490196078431372" stop-color="#9e9894"/>
    </linearGradient>
    <linearGradient gradientTransform="matrix(0.0024, 0.0146, -0.0072, 0.0012, -65.55, 14.1)" gradientUnits="userSpaceOnUse" id="gradient15" spreadMethod="pad" x1="-819.2" x2="819.2">
      <stop offset="0.6352941176470588" stop-color="#848484"/>
      <stop offset="0.8352941176470589" stop-color="#4b483d"/>
      <stop offset="0.9490196078431372" stop-color="#242120"/>
    </linearGradient>
    <linearGradient gradientTransform="matrix(0.0047, 0.0272, -0.0683, 0.0117, -52.15, 88.35)" gradientUnits="userSpaceOnUse" id="gradient16" spreadMethod="pad" x1="-819.2" x2="819.2">
      <stop offset="0.6352941176470588" stop-color="#ffffff"/>
      <stop offset="0.8352941176470589" stop-color="#cbc9bc"/>
      <stop offset="0.9490196078431372" stop-color="#9e9894"/>
    </linearGradient>
    <linearGradient gradientTransform="matrix(-0.0104, 0.0425, -0.055, -0.0135, -126.5, 67.65)" gradientUnits="userSpaceOnUse" id="gradient17" spreadMethod="pad" x1="-819.2" x2="819.2">
      <stop offset="0.6352941176470588" stop-color="#ffffff"/>
      <stop offset="0.8352941176470589" stop-color="#cbc9bc"/>
      <stop offset="0.9490196078431372" stop-color="#9e9894"/>
    </linearGradient>
    <linearGradient gradientTransform="matrix(0.2539, 0.0, 0.0, 0.055, 38.8, 57.7)" gradientUnits="userSpaceOnUse" id="gradient18" spreadMethod="pad" x1="-819.2" x2="819.2">
      <stop offset="0.0" stop-color="#ffffff"/>
      <stop offset="0.807843137254902" stop-color="#b8b6a5"/>
      <stop offset="0.9490196078431372" stop-color="#8f8982"/>
    </linearGradient>
    <linearGradient gradientTransform="matrix(0.0019, 0.0356, 0.2524, -0.0134, 194.0, 61.9)" gradientUnits="userSpaceOnUse" id="gradient19" spreadMethod="pad" x1="-819.2" x2="819.2">
      <stop offset="0.6352941176470588" stop-color="#ffffff"/>
      <stop offset="0.8352941176470589" stop-color="#cbc9bc"/>
      <stop offset="0.9490196078431372" stop-color="#9e9894"/>
    </linearGradient>
  </defs>
</svg>
