<?xml version="1.0" encoding="UTF-8" standalone="no"?>
<svg xmlns:ffdec="https://www.free-decompiler.com/flash" xmlns:xlink="http://www.w3.org/1999/xlink" ffdec:objectType="shape" height="634.6px" width="634.6px" xmlns="http://www.w3.org/2000/svg">
  <g transform="matrix(1.0, 0.0, 0.0, 1.0, 317.3, 317.3)">
    <path d="M224.25 -224.4 Q252.55 -196.3 273.25 -162.4 293.25 -129.8 304.1 -93.1 315.25 -55.5 316.95 -16.25 318.55 19.9 312.75 55.65 306.6 93.55 290.95 128.75 275.2 164.1 251.05 194.3 228.35 222.7 200.45 246.05 170.65 271.0 135.7 287.8 101.05 304.35 63.35 311.4 27.9 318.0 -8.15 317.2 -47.65 316.35 -85.7 306.1 -122.75 296.2 -155.8 277.1 -189.95 257.4 -218.55 230.05 -247.4 202.4 -269.1 168.9 -289.95 136.75 -301.75 100.4 -313.8 63.35 -316.45 24.35 -318.95 -11.85 -313.95 -47.9 -308.6 -86.15 -293.85 -121.75 -279.1 -157.35 -255.95 -188.1 -234.05 -217.1 -206.65 -241.05 -177.25 -266.75 -142.45 -284.4 -108.25 -301.9 -70.85 -309.8 -31.75 -318.15 8.2 -317.2 47.7 -316.25 85.75 -306.0 122.7 -296.15 155.85 -277.05 189.95 -257.35 218.4 -230.0 L224.25 -224.35 224.25 -224.4 M151.05 -151.15 Q88.45 -213.75 -0.05 -213.75 -88.55 -213.75 -151.15 -151.15 -213.75 -88.55 -213.75 -0.05 -213.75 88.45 -151.15 151.05 -88.55 213.65 -0.05 213.65 88.45 213.65 151.05 151.05 213.65 88.45 213.65 -0.05 213.65 -88.55 151.05 -151.15" fill="#000066" fill-rule="evenodd" stroke="none"/>
    <path d="M37.55 -66.85 Q65.85 -48.5 89.85 -24.65 115.7 1.0 150.9 10.2 160.65 11.6 170.0 8.85 177.25 6.7 182.35 1.0 190.8 -8.5 192.7 -21.3 194.35 -10.45 190.8 -0.1 182.55 23.95 156.65 26.7 136.0 28.6 116.25 22.4 86.15 12.9 60.45 -5.55 33.15 11.4 6.1 28.7 3.5 30.35 1.3 32.55 -4.4 38.2 -5.55 46.1 -10.0 77.05 -13.5 108.15 -50.35 126.6 -82.05 152.7 L-102.6 152.0 Q-84.2 131.55 -58.7 121.0 -40.0 113.25 -31.35 94.95 -30.35 92.8 -30.1 90.6 -26.6 62.4 -23.8 34.15 L-34.75 23.9 -57.35 23.9 Q-56.8 40.2 -50.45 55.15 -47.45 62.25 -40.55 61.85 L-36.8 56.8 -36.2 58.65 Q-35.1 62.35 -36.15 66.0 -37.0 69.1 -39.9 70.5 -43.6 72.4 -47.75 72.5 -55.8 67.7 -60.2 59.25 -67.8 44.75 -82.2 38.75 -84.8 37.65 -87.1 36.25 -111.85 21.15 -136.15 5.4 L-184.8 3.35 -189.6 -6.95 -103.95 -56.3 Q-103.45 -53.25 -104.1 -50.0 -105.5 -43.45 -110.45 -38.95 -118.4 -31.6 -127.95 -27.5 L-110.45 -14.1 -83.4 -22.7 Q-69.3 -51.0 -42.95 -68.25 -33.8 -74.15 -23.3 -77.0 8.7 -85.6 37.55 -66.85" fill="#cc0000" fill-rule="evenodd" stroke="none"/>
    <path d="M37.55 -66.85 Q8.7 -85.6 -23.3 -77.0 -33.8 -74.15 -42.95 -68.25 -69.3 -51.0 -83.4 -22.7 L-110.45 -14.1 -127.95 -27.5 Q-118.4 -31.6 -110.45 -38.95 -105.5 -43.45 -104.1 -50.0 -103.45 -53.25 -103.95 -56.3 L-189.6 -6.95 -184.8 3.35 -136.15 5.4 Q-111.85 21.15 -87.1 36.25 -84.8 37.65 -82.2 38.75 -67.8 44.75 -60.2 59.25 -55.8 67.7 -47.75 72.5 -43.6 72.4 -39.9 70.5 -37.0 69.1 -36.15 66.0 -35.1 62.35 -36.2 58.65 L-36.8 56.8 -40.55 61.85 Q-47.45 62.25 -50.45 55.15 -56.8 40.2 -57.35 23.9 L-34.75 23.9 -23.8 34.15 Q-26.6 62.4 -30.1 90.6 -30.35 92.8 -31.35 94.95 -40.0 113.25 -58.7 121.0 -84.2 131.55 -102.6 152.0 L-82.05 152.7 Q-50.35 126.6 -13.5 108.15 -10.0 77.05 -5.55 46.1 -4.4 38.2 1.3 32.55 3.5 30.35 6.1 28.7 33.15 11.4 60.45 -5.55 86.15 12.9 116.25 22.4 136.0 28.6 156.65 26.7 182.55 23.95 190.8 -0.1 194.35 -10.45 192.7 -21.3 190.8 -8.5 182.35 1.0 177.25 6.7 170.0 8.85 160.65 11.6 150.9 10.2 115.7 1.0 89.85 -24.65 65.85 -48.5 37.55 -66.85 M151.05 -151.15 Q213.65 -88.55 213.65 -0.05 213.65 88.45 151.05 151.05 88.45 213.65 -0.05 213.65 -88.55 213.65 -151.15 151.05 -213.75 88.45 -213.75 -0.05 -213.75 -88.55 -151.15 -151.15 -88.55 -213.75 -0.05 -213.75 88.45 -213.75 151.05 -151.15" fill="#ffffff" fill-rule="evenodd" stroke="none"/>
  </g>
</svg>
