<?xml version="1.0" encoding="UTF-8" standalone="no"?>
<svg xmlns:ffdec="https://www.free-decompiler.com/flash" xmlns:xlink="http://www.w3.org/1999/xlink" ffdec:objectType="shape" height="169.9px" width="117.4px" xmlns="http://www.w3.org/2000/svg">
  <g transform="matrix(1.0, 0.0, 0.0, 1.0, 58.65, 84.95)">
    <path d="M-32.55 -25.65 Q-37.75 -28.15 -41.6 -31.2 -45.5 -34.35 -50.3 -39.1 -55.15 -43.9 -57.2 -47.8 -59.3 -51.75 -58.4 -53.45 -57.45 -55.2 -55.85 -56.25 -54.3 -57.25 -50.8 -55.4 -47.35 -53.55 -44.7 -51.8 L-38.05 -47.15 Q-34.05 -44.25 -30.85 -41.45 L-27.35 -38.65 Q-26.75 -39.25 -26.1 -40.5 L-27.1 -41.7 -32.6 -48.1 Q-37.25 -53.5 -40.6 -59.5 -44.05 -65.55 -43.9 -67.8 -43.8 -70.05 -40.8 -71.7 -37.8 -73.3 -29.15 -65.2 -20.6 -57.15 -16.75 -49.15 L-14.8 -49.9 Q-18.6 -59.45 -18.95 -70.95 -19.25 -82.55 -15.25 -84.5 -11.25 -86.5 -7.9 -79.1 -4.6 -71.7 -3.35 -67.25 -2.1 -62.85 -0.2 -51.3 8.0 -46.4 15.35 -40.45 L15.9 -40.35 16.2 -40.0 Q30.65 -51.0 39.0 -50.7 47.5 -50.45 48.8 -46.0 50.1 -41.55 47.25 -38.85 L42.05 -33.95 Q39.65 -31.75 36.3 -29.5 32.9 -27.3 27.95 -25.25 L21.35 -22.4 21.1 -22.25 Q18.25 -12.55 11.45 -6.25 L11.95 -5.65 Q19.55 9.55 34.7 33.55 48.8 55.85 56.35 66.75 L57.4 68.25 Q58.75 70.6 58.75 73.45 58.75 78.15 55.0 81.55 51.3 84.9 46.05 84.95 40.7 84.9 36.95 81.55 L36.3 80.95 Q34.9 79.45 34.2 77.8 21.85 60.15 4.9 26.6 L-6.75 2.3 -6.7 1.75 Q-12.9 1.85 -19.45 -3.7 -28.7 -11.5 -32.15 -25.8 L-32.55 -25.65 M9.05 -4.2 L11.45 -6.25 9.05 -4.2 M-6.7 1.75 L-6.65 1.75 Q-4.2 1.7 -1.75 0.75 -4.2 1.7 -6.65 1.75 L-6.7 1.75 M15.5 -39.45 L16.15 -39.95 16.2 -40.0 16.15 -39.95 15.5 -39.45" fill="#ffcc99" fill-rule="evenodd" stroke="none"/>
    <path d="M-32.55 -25.65 Q-37.75 -28.15 -41.6 -31.2 -45.5 -34.35 -50.3 -39.1 -55.15 -43.9 -57.2 -47.8 -59.3 -51.75 -58.4 -53.45 -57.45 -55.2 -55.85 -56.25 -54.3 -57.25 -50.8 -55.4 -47.35 -53.55 -44.7 -51.8 L-38.05 -47.15 Q-34.05 -44.25 -30.85 -41.45 L-27.35 -38.65 Q-26.75 -39.25 -26.1 -40.5 L-27.1 -41.7 -32.6 -48.1 Q-37.25 -53.5 -40.6 -59.5 -44.05 -65.55 -43.9 -67.8 -43.8 -70.05 -40.8 -71.7 -37.8 -73.3 -29.15 -65.2 -20.6 -57.15 -16.75 -49.15 L-14.8 -49.9 Q-18.6 -59.45 -18.95 -70.95 -19.25 -82.55 -15.25 -84.5 -11.25 -86.5 -7.9 -79.1 -4.6 -71.7 -3.35 -67.25 -2.1 -62.85 -0.2 -51.3 8.0 -46.4 15.35 -40.45 L15.9 -40.35 M16.2 -40.0 Q30.65 -51.0 39.0 -50.7 47.5 -50.45 48.8 -46.0 50.1 -41.55 47.25 -38.85 L42.05 -33.95 Q39.65 -31.75 36.3 -29.5 32.9 -27.3 27.95 -25.25 L21.35 -22.4 21.1 -22.25 Q18.25 -12.55 11.45 -6.25 L9.05 -4.2 M11.95 -5.65 Q19.55 9.55 34.7 33.55 48.8 55.85 56.35 66.75 L57.4 68.25 Q58.75 70.6 58.75 73.45 58.75 78.15 55.0 81.55 51.3 84.9 46.05 84.95 40.7 84.9 36.95 81.55 L36.3 80.95 Q34.9 79.45 34.2 77.8 21.85 60.15 4.9 26.6 L-6.75 2.3 M-6.7 1.75 Q-12.9 1.85 -19.45 -3.7 -28.7 -11.5 -32.15 -25.8 M16.2 -40.0 L16.15 -39.95 15.5 -39.45 M-1.75 0.75 Q-4.2 1.7 -6.65 1.75 L-6.7 1.75" fill="none" stroke="#000000" stroke-linecap="round" stroke-linejoin="round" stroke-width="0.05"/>
  </g>
</svg>
