<?xml version="1.0" encoding="UTF-8" standalone="no"?>
<svg xmlns:ffdec="https://www.free-decompiler.com/flash" xmlns:xlink="http://www.w3.org/1999/xlink" ffdec:objectType="shape" height="113.55px" width="56.75px" xmlns="http://www.w3.org/2000/svg">
  <g transform="matrix(1.0, 0.0, 0.0, 1.0, 30.2, 54.05)">
    <path d="M0.7 -25.0 L-0.4 -27.25 -1.55 -30.65 -2.55 -34.8 2.25 -34.5 -1.45 -30.7 2.5 -31.2 0.55 -28.15 3.5 -28.0 0.7 -25.0 M-2.45 -42.2 L1.5 -39.35 -2.9 -37.4 -2.9 -37.8 Q-2.95 -39.85 -2.45 -42.2 M-0.8 -47.05 L3.15 -44.5 -2.0 -43.0 -2.25 -43.05 -0.8 -47.05 -0.75 -47.1 -0.75 -47.15 -0.65 -47.05 -0.8 -47.05" fill="#ffffff" fill-rule="evenodd" stroke="none"/>
    <path d="M0.7 -25.0 L-0.4 -27.25 -1.55 -30.65 -2.55 -34.8 2.25 -34.5 -1.45 -30.7 2.5 -31.2 0.55 -28.15 3.5 -28.0 0.7 -25.0 M-2.45 -42.2 L1.5 -39.35 -2.9 -37.4 -2.9 -37.8 Q-2.95 -39.85 -2.45 -42.2 M-0.8 -47.05 L3.15 -44.5 -2.0 -43.0 -2.25 -43.05 -0.8 -47.05 Z" fill="none" stroke="#000000" stroke-linecap="round" stroke-linejoin="round" stroke-width="2.5"/>
    <path d="M-2.55 -34.8 L2.25 -34.5 -1.45 -30.7 2.5 -31.2 0.55 -28.15 3.5 -28.0 0.7 -25.0 1.45 -23.8 Q2.2 -22.45 3.85 -20.95 L4.15 -20.7 3.9 -20.65 3.5 -20.45 3.5 -20.4 4.4 -20.7 4.45 -20.65 5.75 -20.3 Q6.1 -19.85 6.05 -18.8 L6.15 -18.8 6.95 -19.05 Q7.35 -19.05 9.95 -17.9 L10.7 -17.45 17.15 -17.45 17.15 -16.9 18.5 -18.7 18.85 -8.55 18.75 -9.75 17.95 -14.9 17.95 -12.35 15.05 -12.35 15.05 -12.3 17.95 -12.3 17.95 -11.65 18.75 -9.6 18.85 -8.7 19.3 -1.4 19.3 -0.6 18.35 -1.35 14.5 -7.1 13.65 -8.35 12.0 -10.55 11.8 -11.3 11.2 -11.6 8.85 -13.3 9.4 -12.85 9.35 -12.9 Q8.5 -13.6 6.2 -14.55 2.85 -15.9 -0.1 -18.6 L-2.5 -21.35 Q-8.55 -29.35 -11.05 -34.15 -13.45 -38.55 -17.7 -49.2 L-17.75 -49.3 -17.95 -49.75 -18.1 -50.25 -18.25 -50.6 -18.25 -50.7 -18.35 -50.8 -18.4 -50.95 -18.45 -51.15 Q-18.0 -52.35 -17.1 -52.95 L-16.45 -53.15 Q-15.3 -53.4 -12.55 -52.35 -9.8 -51.35 -6.85 -49.2 -4.6 -47.55 -1.8 -47.25 L-0.75 -47.1 -0.75 -47.15 -0.65 -47.05 -0.8 -47.05 3.15 -44.5 -2.0 -43.0 -2.25 -43.05 -2.25 -43.0 -2.45 -42.2 1.5 -39.35 -2.9 -37.4 -2.7 -35.8 -2.55 -34.8 -1.55 -30.65 -0.4 -27.25 0.7 -25.0 -0.4 -27.25 -1.55 -30.65 -2.55 -34.8 M4.15 -20.8 L4.15 -20.85 4.25 -20.75 4.2 -20.8 4.15 -20.8 M17.85 12.65 Q16.9 20.2 15.35 26.15 L13.65 32.15 13.4 33.0 14.4 33.25 16.35 36.45 17.4 38.95 18.1 41.05 Q18.45 42.2 16.45 42.4 L15.25 42.6 9.95 43.0 9.5 44.1 Q7.75 48.65 6.8 52.7 L6.75 52.85 6.45 54.3 6.15 55.65 6.0 55.6 Q5.9 52.8 6.55 48.85 7.15 44.85 7.8 42.2 L10.6 30.3 Q13.0 19.9 12.9 11.45 L16.6 12.35 17.85 12.65 M0.7 -17.75 L-0.1 -18.6 0.7 -17.75 M-2.45 -42.2 Q-2.95 -39.85 -2.9 -37.8 L-2.9 -37.4 -2.9 -37.8 Q-2.95 -39.85 -2.45 -42.2 M-0.75 -47.1 L-0.8 -47.05 -2.25 -43.05 -0.8 -47.05 -0.75 -47.1" fill="#ffffff" fill-rule="evenodd" stroke="none"/>
    <path d="M-3.7 49.8 L-4.05 49.6 -3.95 49.05 -3.7 49.8 M-9.7 -12.35 L-10.55 -12.35 -11.05 -15.0 -11.65 -17.75 -11.9 -18.35 -12.05 -18.85 -14.0 -24.25 -14.4 -25.2 -14.3 -24.9 Q-15.65 -28.25 -16.05 -30.6 L-16.65 -34.4 -17.8 -39.5 Q-18.55 -42.8 -18.85 -47.2 L-18.85 -48.8 -18.85 -49.25 -18.85 -49.3 -18.8 -49.4 -18.75 -50.0 -18.65 -50.4 -18.6 -50.7 -18.55 -50.85 -18.5 -51.0 -18.45 -51.15 -18.4 -50.95 -18.35 -50.8 -18.25 -50.7 -18.25 -50.6 -18.1 -50.25 -17.95 -49.75 -17.75 -49.3 -17.7 -49.2 Q-13.45 -38.55 -11.05 -34.15 -8.55 -29.35 -2.5 -21.35 L-0.1 -18.6 Q2.85 -15.9 6.2 -14.55 8.5 -13.6 9.35 -12.9 L9.4 -12.85 9.8 -12.35 -9.7 -12.35 M0.7 -17.75 L-0.1 -18.6 0.7 -17.75 M12.0 -10.55 L11.2 -11.55 11.2 -11.6 11.8 -11.3 12.0 -10.55 M-14.9 -35.7 L-14.45 -34.2 -13.35 -33.1 Q-12.75 -32.7 -12.35 -32.9 -11.95 -33.15 -11.95 -33.9 -11.9 -34.65 -12.35 -35.4 L-13.45 -36.55 -14.5 -36.65 Q-14.9 -36.45 -14.9 -35.7 M-15.35 -38.75 L-14.55 -32.45 -15.35 -38.75" fill="#948e8e" fill-rule="evenodd" stroke="none"/>
    <path d="M-14.9 -35.7 Q-14.9 -36.45 -14.5 -36.65 L-13.45 -36.55 -12.35 -35.4 Q-11.9 -34.65 -11.95 -33.9 -11.95 -33.15 -12.35 -32.9 -12.75 -32.7 -13.35 -33.1 L-14.45 -34.2 -14.9 -35.7" fill="#333333" fill-rule="evenodd" stroke="none"/>
    <path d="M19.35 0.25 L21.0 2.9 24.95 10.3 Q26.9 15.1 23.8 14.25 L21.35 13.5 17.85 12.65 16.6 12.35 12.9 11.45 Q13.0 19.9 10.6 30.3 L7.8 42.2 Q7.15 44.85 6.55 48.85 5.9 52.8 6.0 55.6 L5.9 58.45 5.8 57.7 5.7 58.65 -2.3 58.65 -2.3 57.15 Q-2.6 53.65 -3.7 49.8 L-3.95 49.05 -4.0 48.9 -4.05 48.95 -3.95 49.05 -4.05 49.6 -5.9 48.9 -9.5 48.8 -10.35 48.85 -15.25 48.95 Q-17.25 48.95 -17.6 47.5 -17.95 46.0 -16.15 44.1 L-13.05 40.75 Q-8.85 37.1 -8.05 33.5 L-8.7 30.1 -9.5 24.35 -10.4 24.1 Q-15.9 22.55 -21.65 22.7 L-28.5 22.15 Q-29.7 21.4 -29.2 19.95 -28.75 18.45 -26.7 16.0 -24.65 13.6 -20.85 10.6 -17.1 7.6 -15.0 5.3 L-11.3 0.55 -11.1 0.5 -10.65 -8.6 -10.5 -11.3 -10.55 -12.3 -9.7 -12.35 9.8 -12.35 9.4 -12.85 8.85 -13.3 11.2 -11.6 11.2 -11.55 12.0 -10.55 13.65 -8.35 14.5 -7.1 18.35 -1.35 19.35 0.25 M9.85 10.6 L12.9 11.45 9.85 10.6" fill="url(#gradient0)" fill-rule="evenodd" stroke="none"/>
    <path d="M19.3 -0.6 L19.35 0.25 18.35 -1.35 14.5 -7.1 13.65 -8.35 12.0 -10.55 11.2 -11.55 M13.65 32.15 L14.4 33.25 M5.9 58.45 L5.8 57.7 5.7 58.65 M-4.05 48.95 L-4.0 48.9 M12.9 11.45 L9.85 10.6 M17.85 12.65 L16.6 12.35 12.9 11.45" fill="none" stroke="#000000" stroke-linecap="round" stroke-linejoin="round" stroke-width="0.05"/>
    <path d="M0.7 -25.0 L1.45 -23.8 Q2.2 -22.45 3.85 -20.95 M4.15 -20.7 L4.15 -20.8 4.15 -20.85 4.25 -20.75 4.4 -20.7 4.45 -20.65 5.75 -20.3 M18.5 -18.7 L18.85 -8.55 18.75 -9.75 18.75 -9.6 18.85 -8.7 19.3 -1.4 19.3 -0.6 M19.35 0.25 L21.0 2.9 24.95 10.3 Q26.9 15.1 23.8 14.25 L21.35 13.5 17.85 12.65 Q16.9 20.2 15.35 26.15 L13.65 32.15 M14.4 33.25 L16.35 36.45 17.4 38.95 18.1 41.05 Q18.45 42.2 16.45 42.4 L15.25 42.6 9.95 43.0 9.5 44.1 Q7.75 48.65 6.8 52.7 L6.75 52.85 6.45 54.3 6.15 55.65 5.9 58.45 M-2.3 58.65 L-2.3 57.15 Q-2.6 53.65 -3.7 49.8 L-4.05 49.6 -5.9 48.9 -9.5 48.8 -10.35 48.85 -15.25 48.95 Q-17.25 48.95 -17.6 47.5 -17.95 46.0 -16.15 44.1 L-13.05 40.75 Q-8.85 37.1 -8.05 33.5 L-8.7 30.1 -9.5 24.35 -10.4 24.1 Q-15.9 22.55 -21.65 22.7 L-28.5 22.15 Q-29.7 21.4 -29.2 19.95 -28.75 18.45 -26.7 16.0 -24.65 13.6 -20.85 10.6 -17.1 7.6 -15.0 5.3 L-11.3 0.55 M-11.1 0.5 L-10.65 -8.6 -10.5 -11.3 -10.55 -12.3 M-10.55 -12.35 L-11.05 -15.0 -11.65 -17.75 -11.9 -18.35 -12.05 -18.85 -14.0 -24.25 -14.4 -25.2 -14.3 -24.9 Q-15.65 -28.25 -16.05 -30.6 L-16.65 -34.4 -17.8 -39.5 Q-18.55 -42.8 -18.85 -47.2 L-18.85 -48.8 -18.85 -49.25 -18.85 -49.3 -18.8 -49.4 -18.75 -50.0 -18.65 -50.4 -18.6 -50.7 -18.55 -50.85 -18.5 -51.0 -18.45 -51.15 Q-18.0 -52.35 -17.1 -52.95 L-16.45 -53.15 Q-15.3 -53.4 -12.55 -52.35 -9.8 -51.35 -6.85 -49.2 -4.6 -47.55 -1.8 -47.25 L-0.75 -47.1 -0.8 -47.05 -0.65 -47.05 M-2.25 -43.05 L-2.25 -43.0 -2.45 -42.2 Q-2.95 -39.85 -2.9 -37.8 L-2.9 -37.4 -2.7 -35.8 -2.55 -34.8 -1.55 -30.65 -0.4 -27.25 0.7 -25.0 M-2.25 -43.05 L-0.8 -47.05 M-14.55 -32.45 L-15.35 -38.75" fill="none" stroke="#000000" stroke-linecap="round" stroke-linejoin="round" stroke-width="1.7000000000000002"/>
  </g>
  <defs>
    <linearGradient gradientTransform="matrix(0.0, 0.0433, -0.0336, 0.0, -1.8, 23.15)" gradientUnits="userSpaceOnUse" id="gradient0" spreadMethod="pad" x1="-819.2" x2="819.2">
      <stop offset="0.23529411764705882" stop-color="#948e8e"/>
      <stop offset="0.8666666666666667" stop-color="#676363"/>
    </linearGradient>
  </defs>
</svg>
