<?xml version="1.0" encoding="UTF-8" standalone="no"?>
<svg xmlns:ffdec="https://www.free-decompiler.com/flash" xmlns:xlink="http://www.w3.org/1999/xlink" ffdec:objectType="shape" height="19.1px" width="213.65px" xmlns="http://www.w3.org/2000/svg">
  <g transform="matrix(1.0, 0.0, 0.0, 1.0, 33.9, 6.05)">
    <path d="M-30.05 11.5 Q-29.4 10.4 -30.05 5.8 -30.65 1.15 -32.95 -0.85 -35.3 -2.9 -31.95 -4.85 -28.65 -6.85 -25.8 -3.35 -23.0 0.1 -22.75 4.65 -22.5 9.2 -17.65 8.4 -12.85 7.55 -13.05 3.3 -14.05 -1.95 -12.8 -2.35 -8.9 -4.05 -6.8 -0.45 L-5.0 3.1 Q-3.85 5.5 -2.5 7.05 2.95 10.65 3.3 5.25 3.1 2.65 3.4 -0.1 3.9 -5.4 7.0 -5.95 10.05 -6.45 11.15 -4.6 12.2 -2.75 11.7 0.35 11.2 3.45 12.1 5.2 12.95 6.9 16.9 7.2 20.8 7.5 22.2 3.05 23.55 -1.35 26.25 -2.55 28.7 -3.1 31.0 -0.7 32.45 0.7 33.8 4.0 35.15 7.2 36.3 8.3 38.2 10.15 42.1 10.15 49.2 10.15 49.2 5.15 48.0 -1.2 49.1 -3.8 51.95 -4.85 53.85 -3.3 55.1 -2.3 56.5 0.7 58.2 4.4 58.95 5.4 60.55 7.6 62.85 7.6 66.5 7.55 67.7 5.55 68.5 4.2 68.35 1.1 68.15 -2.5 68.4 -3.35 68.9 -5.4 71.45 -5.4 73.95 -5.4 75.2 -3.35 75.85 -2.25 76.7 1.1 77.55 4.25 78.5 5.55 79.95 7.55 82.9 7.6 87.9 7.55 88.0 3.7 89.4 -1.7 91.95 -1.2 94.5 -0.75 95.6 3.95 96.1 6.05 96.8 6.85 97.95 8.1 100.9 8.0 103.85 7.85 105.7 6.55 107.55 5.2 108.15 2.55 108.75 -0.1 109.5 -1.05 110.85 -2.75 113.9 -2.9 116.95 -3.05 118.0 -0.05 119.05 2.9 120.35 5.0 124.25 9.65 128.1 5.0 129.65 3.35 131.25 -0.45 132.85 -4.3 134.85 -2.65 135.75 -2.45 135.55 2.9 135.4 7.0 138.9 7.05 140.8 7.05 142.45 5.45 L145.2 1.9 Q148.9 -3.3 153.2 -3.3 156.05 -3.3 156.05 -1.0 L155.45 7.05 Q154.9 11.25 158.5 9.65 162.1 8.0 168.1 4.4 174.1 0.8 176.75 0.8 178.35 0.8 179.0 1.35 181.5 3.6 175.7 6.85 172.2 8.8 170.65 11.75 L-30.05 11.5" fill="url(#gradient0)" fill-rule="evenodd" stroke="none"/>
    <path d="M170.65 11.75 Q172.2 8.8 175.7 6.85 181.5 3.6 179.0 1.35 178.35 0.8 176.75 0.8 174.1 0.8 168.1 4.4 162.1 8.0 158.5 9.65 154.9 11.25 155.45 7.05 L156.05 -1.0 Q156.05 -3.3 153.2 -3.3 148.9 -3.3 145.2 1.9 L142.45 5.45 Q140.8 7.05 138.9 7.05 135.4 7.0 135.55 2.9 135.75 -2.45 134.85 -2.65 132.85 -4.3 131.25 -0.45 129.65 3.35 128.1 5.0 124.25 9.65 120.35 5.0 119.05 2.9 118.0 -0.05 116.95 -3.05 113.9 -2.9 110.85 -2.75 109.5 -1.05 108.75 -0.1 108.15 2.55 107.55 5.2 105.7 6.55 103.85 7.85 100.9 8.0 97.95 8.1 96.8 6.85 96.1 6.05 95.6 3.95 94.5 -0.75 91.95 -1.2 89.4 -1.7 88.0 3.7 87.9 7.55 82.9 7.6 79.95 7.55 78.5 5.55 77.55 4.25 76.7 1.1 75.85 -2.25 75.2 -3.35 73.95 -5.4 71.45 -5.4 68.9 -5.4 68.4 -3.35 68.15 -2.5 68.35 1.1 68.5 4.2 67.7 5.55 66.5 7.55 62.85 7.6 60.55 7.6 58.95 5.4 58.2 4.4 56.5 0.7 55.1 -2.3 53.85 -3.3 51.95 -4.85 49.1 -3.8 48.0 -1.2 49.2 5.15 49.2 10.15 42.1 10.15 38.2 10.15 36.3 8.3 35.15 7.2 33.8 4.0 32.45 0.7 31.0 -0.7 28.7 -3.1 26.25 -2.55 23.55 -1.35 22.2 3.05 20.8 7.5 16.9 7.2 12.95 6.9 12.1 5.2 11.2 3.45 11.7 0.35 12.2 -2.75 11.15 -4.6 10.05 -6.45 7.0 -5.95 3.9 -5.4 3.4 -0.1 3.1 2.65 3.3 5.25 2.95 10.65 -2.5 7.05 -3.85 5.5 -5.0 3.1 L-6.8 -0.45 Q-8.9 -4.05 -12.8 -2.35 -14.05 -1.95 -13.05 3.3 -12.85 7.55 -17.65 8.4 -22.5 9.2 -22.75 4.65 -23.0 0.1 -25.8 -3.35 -28.65 -6.85 -31.95 -4.85 -35.3 -2.9 -32.95 -0.85 -30.65 1.15 -30.05 5.8 -29.4 10.4 -30.05 11.5 -30.8 12.85 -31.95 13.05" fill="none" stroke="#000000" stroke-linecap="round" stroke-linejoin="round" stroke-width="0.05"/>
  </g>
  <defs>
    <linearGradient gradientTransform="matrix(0.0, 0.0095, 0.2194, 0.0, -0.9, 6.5)" gradientUnits="userSpaceOnUse" id="gradient0" spreadMethod="pad" x1="-819.2" x2="819.2">
      <stop offset="0.6666666666666666" stop-color="#97d6f0" stop-opacity="0.8"/>
      <stop offset="0.8549019607843137" stop-color="#9cd8f1" stop-opacity="0.0"/>
    </linearGradient>
  </defs>
</svg>
