<?xml version="1.0" encoding="UTF-8" standalone="no"?>
<svg xmlns:ffdec="https://www.free-decompiler.com/flash" xmlns:xlink="http://www.w3.org/1999/xlink" ffdec:objectType="shape" height="22.1px" width="196.25px" xmlns="http://www.w3.org/2000/svg">
  <g transform="matrix(1.0, 0.0, 0.0, 1.0, 16.5, 10.05)">
    <path d="M-16.5 7.3 L-15.35 7.35 Q-9.15 7.35 -8.65 0.0 L-8.1 -5.1 Q-7.45 -7.45 -5.0 -7.45 -2.8 -7.45 -1.5 -5.8 L1.75 1.3 Q4.75 8.15 14.5 3.05 28.2 -9.95 31.0 -9.95 34.8 -10.65 35.25 -6.7 L35.6 0.9 Q36.65 4.85 43.35 4.85 47.8 4.85 49.2 2.7 50.15 1.3 49.9 -1.9 49.7 -5.6 50.05 -6.55 50.75 -8.7 54.0 -8.7 56.3 -8.7 57.15 -5.95 57.55 -4.5 57.8 0.0 58.2 8.6 64.65 7.7 71.1 6.8 75.85 1.35 81.35 -3.55 84.35 -4.4 88.75 -6.25 88.15 -1.05 88.0 -0.3 87.8 3.95 88.55 9.15 95.0 9.2 98.45 9.15 100.2 6.2 L102.7 -0.35 Q104.35 -4.85 106.7 -6.95 110.0 -9.95 114.55 -9.7 119.1 -9.45 120.1 -7.35 121.15 -5.35 118.9 -2.95 116.6 -0.6 115.55 2.1 L114.8 5.1 117.2 6.75 119.05 6.9 Q122.05 6.6 124.2 5.05 L129.5 1.2 133.85 -1.6 137.75 -4.5 Q138.3 -4.65 138.35 -4.75 L138.3 -4.9 141.9 -6.25 Q147.1 -7.65 149.55 -4.6 152.85 -0.6 140.15 2.9 138.0 4.25 139.55 6.35 141.7 7.8 145.4 7.3 149.05 6.75 160.1 -0.65 171.1 -8.1 175.45 -7.7 179.7 -7.4 179.75 -3.8 179.7 -0.25 169.75 3.6 159.85 7.45 163.1 11.85 L-16.5 12.05 -16.5 7.3" fill="url(#gradient0)" fill-rule="evenodd" stroke="none"/>
    <path d="M-16.5 7.3 L-15.35 7.35 Q-9.15 7.35 -8.65 0.0 L-8.1 -5.1 Q-7.45 -7.45 -5.0 -7.45 -2.8 -7.45 -1.5 -5.8 L1.75 1.3 Q4.75 8.15 14.5 3.05 28.2 -9.95 31.0 -9.95 34.8 -10.65 35.25 -6.7 L35.6 0.9 Q36.65 4.85 43.35 4.85 47.8 4.85 49.2 2.7 50.15 1.3 49.9 -1.9 49.7 -5.6 50.05 -6.55 50.75 -8.7 54.0 -8.7 56.3 -8.7 57.15 -5.95 57.55 -4.5 57.8 0.0 58.2 8.6 64.65 7.7 71.1 6.8 75.85 1.35 81.35 -3.55 84.35 -4.4 88.75 -6.25 88.15 -1.05 88.0 -0.3 87.8 3.95 88.55 9.15 95.0 9.2 98.45 9.15 100.2 6.2 L102.7 -0.35 Q104.35 -4.85 106.7 -6.95 110.0 -9.95 114.55 -9.7 119.1 -9.45 120.1 -7.35 121.15 -5.35 118.9 -2.95 116.6 -0.6 115.55 2.1 L114.8 5.1 117.2 6.75 119.05 6.9 Q122.05 6.6 124.2 5.05 L129.5 1.2 133.85 -1.6 137.75 -4.5 Q138.3 -4.65 138.35 -4.75 L138.3 -4.9 141.9 -6.25 Q147.1 -7.65 149.55 -4.6 152.85 -0.6 140.15 2.9 138.0 4.25 139.55 6.35 141.7 7.8 145.4 7.3 149.05 6.75 160.1 -0.65 171.1 -8.1 175.45 -7.7 179.7 -7.4 179.75 -3.8 179.7 -0.25 169.75 3.6 159.85 7.45 163.1 11.85" fill="none" stroke="#000000" stroke-linecap="round" stroke-linejoin="round" stroke-width="0.05"/>
  </g>
  <defs>
    <linearGradient gradientTransform="matrix(0.0, 0.0113, -0.2642, 0.0, -35.55, 6.1)" gradientUnits="userSpaceOnUse" id="gradient0" spreadMethod="pad" x1="-819.2" x2="819.2">
      <stop offset="0.6666666666666666" stop-color="#97d6f0" stop-opacity="0.8"/>
      <stop offset="0.8549019607843137" stop-color="#9cd8f1" stop-opacity="0.0"/>
    </linearGradient>
  </defs>
</svg>
