<?xml version="1.0" encoding="UTF-8" standalone="no"?>
<svg xmlns:ffdec="https://www.free-decompiler.com/flash" xmlns:xlink="http://www.w3.org/1999/xlink" ffdec:objectType="shape" height="17.8px" width="192.7px" xmlns="http://www.w3.org/2000/svg">
  <g transform="matrix(1.0, 0.0, 0.0, 1.0, 12.95, 6.05)">
    <path d="M-12.95 8.35 Q-9.8 9.15 -9.5 5.25 -9.7 2.65 -9.4 -0.1 -8.85 -5.4 -5.55 -5.95 -2.25 -6.45 -1.1 -4.6 0.05 -2.75 -0.5 0.35 -1.05 3.45 -0.05 5.2 0.85 6.9 5.1 7.2 9.25 7.5 10.75 3.05 12.2 -1.35 15.1 -2.55 17.75 -3.1 20.2 -0.7 21.75 0.7 23.2 4.0 24.65 7.2 25.9 8.3 27.95 10.15 32.1 10.15 39.7 10.15 39.7 5.15 38.45 -1.2 39.6 -3.8 42.65 -4.85 44.7 -3.3 46.05 -2.3 47.55 0.7 49.4 4.4 50.2 5.4 51.9 7.6 54.35 7.6 58.3 7.55 59.55 5.55 60.45 4.2 60.25 1.1 60.05 -2.5 60.3 -3.35 60.85 -5.4 63.6 -5.4 66.25 -5.4 67.6 -3.35 68.3 -2.25 69.2 1.1 70.15 4.25 71.15 5.55 72.7 7.55 75.85 7.6 81.25 7.55 81.35 3.7 82.85 -1.7 85.6 -1.2 88.3 -0.75 89.5 3.95 90.05 6.05 90.8 6.85 92.0 8.1 95.2 8.0 98.35 7.85 100.35 6.55 102.3 5.2 102.95 2.55 103.6 -0.1 104.4 -1.05 105.85 -2.75 109.1 -2.9 112.4 -3.05 113.5 -0.05 114.65 2.9 116.05 5.0 120.25 9.65 124.35 5.0 126.0 3.35 127.75 -0.45 129.45 -4.3 131.6 -2.65 132.55 -2.45 132.35 2.9 132.2 7.0 135.95 7.05 138.0 7.05 139.75 5.45 L142.7 1.9 Q146.65 -3.3 151.3 -3.3 154.35 -3.3 154.35 -1.0 L153.7 7.05 Q153.1 11.25 156.95 9.65 160.85 8.0 167.25 4.4 173.7 0.8 176.55 0.8 178.25 0.8 178.95 1.35 181.65 3.6 175.4 6.85 171.65 8.8 170.0 11.75 L-12.95 11.55 -12.95 8.35" fill="url(#gradient0)" fill-rule="evenodd" stroke="none"/>
    <path d="M170.0 11.75 Q171.65 8.8 175.4 6.85 181.65 3.6 178.95 1.35 178.25 0.8 176.55 0.8 173.7 0.8 167.25 4.4 160.85 8.0 156.95 9.65 153.1 11.25 153.7 7.05 L154.35 -1.0 Q154.35 -3.3 151.3 -3.3 146.65 -3.3 142.7 1.9 L139.75 5.45 Q138.0 7.05 135.95 7.05 132.2 7.0 132.35 2.9 132.55 -2.45 131.6 -2.65 129.45 -4.3 127.75 -0.45 126.0 3.35 124.35 5.0 120.25 9.65 116.05 5.0 114.65 2.9 113.5 -0.05 112.4 -3.05 109.1 -2.9 105.85 -2.75 104.4 -1.05 103.6 -0.1 102.95 2.55 102.3 5.2 100.35 6.55 98.35 7.85 95.2 8.0 92.0 8.1 90.8 6.85 90.05 6.05 89.5 3.95 88.3 -0.75 85.6 -1.2 82.85 -1.7 81.35 3.7 81.25 7.55 75.85 7.6 72.7 7.55 71.15 5.55 70.15 4.25 69.2 1.1 68.3 -2.25 67.6 -3.35 66.25 -5.4 63.6 -5.4 60.85 -5.4 60.3 -3.35 60.05 -2.5 60.25 1.1 60.45 4.2 59.55 5.55 58.3 7.55 54.35 7.6 51.9 7.6 50.2 5.4 49.4 4.4 47.55 0.7 46.05 -2.3 44.7 -3.3 42.65 -4.85 39.6 -3.8 38.45 -1.2 39.7 5.15 39.7 10.15 32.1 10.15 27.95 10.15 25.9 8.3 24.65 7.2 23.2 4.0 21.75 0.7 20.2 -0.7 17.75 -3.1 15.1 -2.55 12.2 -1.35 10.75 3.05 9.25 7.5 5.1 7.2 0.85 6.9 -0.05 5.2 -1.05 3.45 -0.5 0.35 0.05 -2.75 -1.1 -4.6 -2.25 -6.45 -5.55 -5.95 -8.85 -5.4 -9.4 -0.1 -9.7 2.65 -9.5 5.25 -9.8 9.15 -12.95 8.35" fill="none" stroke="#000000" stroke-linecap="round" stroke-linejoin="round" stroke-width="0.05"/>
  </g>
  <defs>
    <linearGradient gradientTransform="matrix(0.0, 0.0095, 0.2354, 0.0, -14.0, 6.5)" gradientUnits="userSpaceOnUse" id="gradient0" spreadMethod="pad" x1="-819.2" x2="819.2">
      <stop offset="0.6666666666666666" stop-color="#97d6f0" stop-opacity="0.8"/>
      <stop offset="0.8549019607843137" stop-color="#9cd8f1" stop-opacity="0.0"/>
    </linearGradient>
  </defs>
</svg>
