<?xml version="1.0" encoding="UTF-8" standalone="no"?>
<svg xmlns:ffdec="https://www.free-decompiler.com/flash" xmlns:xlink="http://www.w3.org/1999/xlink" ffdec:objectType="shape" height="16.8px" width="52.85px" xmlns="http://www.w3.org/2000/svg">
  <g transform="matrix(1.0, 0.0, 0.0, 1.0, 26.4, 8.4)">
    <path d="M-23.4 3.0 L-20.35 0.35 -20.65 1.25 Q-17.4 -1.65 -13.2 -3.15 L-12.2 -3.55 Q-7.55 -2.2 -3.7 0.8 -2.75 1.55 -1.5 1.9 L3.65 2.35 Q6.9 -0.15 9.3 -3.5 10.0 -4.5 11.25 -4.85 L14.1 -5.4 Q16.9 -4.9 19.25 -3.05 21.2 -1.6 23.45 -0.8 M-22.15 5.4 L-20.65 1.25" fill="none" stroke="#000000" stroke-linecap="round" stroke-linejoin="round" stroke-width="6.0"/>
    <path d="M8.1 -4.35 Q9.05 -5.75 10.8 -6.25 L10.85 -6.3 14.0 -6.9 14.4 -6.85 Q17.5 -6.3 20.15 -4.25 L20.2 -4.2 Q21.95 -2.95 23.95 -2.2 L24.8 -1.45 24.85 -0.3 Q24.65 0.3 24.1 0.55 L22.95 0.65 Q20.5 -0.25 18.35 -1.85 16.35 -3.4 14.05 -3.85 L11.75 -3.4 11.65 -3.4 Q10.95 -3.2 10.55 -2.65 L10.55 -2.6 Q8.0 0.9 4.6 3.55 L3.85 3.85 Q0.85 4.25 -1.9 3.35 L-1.95 3.35 Q-3.5 2.9 -4.6 2.0 -8.05 -0.7 -12.15 -1.95 L-12.65 -1.75 -12.7 -1.7 Q-16.45 -0.4 -19.4 2.15 L-20.75 5.95 Q-20.95 6.5 -21.5 6.75 L-22.65 6.8 -23.5 6.05 -23.55 4.9 -23.4 4.5 -23.5 4.5 Q-24.15 4.45 -24.55 3.95 -24.95 3.5 -24.9 2.9 -24.85 2.25 -24.35 1.85 L-21.3 -0.8 -20.4 -1.15 -20.1 -1.15 Q-17.2 -3.3 -13.7 -4.55 L-12.75 -4.95 -11.75 -5.0 Q-6.85 -3.55 -2.75 -0.35 -2.05 0.2 -1.1 0.45 L-1.0 0.5 3.05 0.95 Q5.9 -1.35 8.1 -4.35" fill="#ff9999" fill-rule="evenodd" stroke="none"/>
  </g>
</svg>
