<?xml version="1.0" encoding="UTF-8" standalone="no"?>
<svg xmlns:ffdec="https://www.free-decompiler.com/flash" xmlns:xlink="http://www.w3.org/1999/xlink" ffdec:objectType="shape" height="64.95px" width="83.0px" xmlns="http://www.w3.org/2000/svg">
  <g transform="matrix(1.0, 0.0, 0.0, 1.0, -61.7, 15.15)">
    <path d="M75.1 8.6 L74.95 9.4 74.75 9.5 74.9 10.45 Q75.0 11.0 75.4 11.2 L76.1 10.5 76.05 10.1 76.55 10.75 77.15 10.35 Q79.25 11.6 81.5 11.65 L83.4 11.35 85.25 10.75 86.0 10.85 Q86.8 10.85 87.4 10.35 L87.5 7.0 Q87.65 4.5 88.65 4.3 L88.95 0.85 88.5 -1.5 Q88.0 -3.0 87.4 -3.5 85.5 -5.55 81.25 -5.55 77.25 -5.55 76.35 -3.8 75.5 -3.2 75.35 -3.0 74.8 -2.45 74.8 -1.8 L74.9 -1.65 74.6 -1.05 Q74.6 -0.9 74.75 -0.65 L74.9 -0.25 74.65 2.25 74.45 4.75 75.0 5.7 75.4 8.55 75.1 8.6 M103.35 6.7 L103.05 8.6 Q102.75 9.85 102.8 10.55 102.75 11.05 102.95 11.05 L103.7 11.1 104.3 11.1 103.7 11.8 104.6 12.5 105.75 11.75 104.45 11.1 104.8 11.1 Q106.75 11.1 107.05 10.55 L107.05 9.15 107.1 7.75 107.0 5.65 106.95 3.55 107.0 3.0 107.0 2.9 107.1 1.6 107.3 1.4 106.85 0.95 106.9 0.95 Q106.75 0.3 106.75 -0.65 L106.8 -2.45 106.9 -3.7 106.9 -4.3 106.75 -5.55 103.45 -4.65 Q102.65 -4.4 101.75 -3.0 101.0 -1.8 100.7 -0.75 L99.3 2.45 96.3 -3.4 94.45 -4.4 Q94.55 -5.05 94.0 -5.5 93.45 -5.85 92.75 -5.85 L89.4 -5.8 90.7 -5.05 Q90.8 -4.95 91.05 -4.85 L91.45 -4.65 Q91.05 -3.9 91.05 -2.35 L91.3 -2.35 91.05 -1.75 Q91.05 -1.4 91.35 -0.55 L91.6 0.55 90.7 1.0 91.2 1.25 91.75 1.4 91.4 2.2 Q91.05 2.75 91.05 3.1 L91.2 4.6 91.4 6.35 91.25 9.05 91.35 10.05 91.4 10.9 Q91.5 11.3 91.85 11.3 L93.05 11.15 94.15 11.0 94.45 11.05 94.65 8.45 Q94.65 4.15 94.1 2.95 94.2 1.5 94.5 0.75 L96.45 3.55 96.7 3.9 96.75 3.95 Q97.9 5.7 97.9 6.35 L97.85 6.5 98.6 7.45 Q99.2 8.25 100.35 8.15 L100.7 7.15 101.0 5.8 Q101.65 4.85 101.55 3.6 L101.55 3.15 Q101.55 2.5 101.9 2.05 L102.5 0.65 103.0 3.35 103.25 6.65 103.35 6.7 M83.8 -0.8 L84.05 -0.45 83.7 0.55 83.7 0.9 83.65 1.15 83.65 1.25 83.9 1.2 84.15 1.1 84.45 0.4 84.45 -0.55 84.35 -1.1 83.85 -1.45 83.8 -0.8 M79.45 0.0 L79.25 -0.7 79.05 -1.4 Q79.25 -2.05 80.15 -2.0 L80.65 -1.9 Q80.95 -1.75 81.1 -1.7 L81.2 -1.65 81.1 -1.35 81.0 -1.05 81.1 -0.95 Q82.1 -1.0 82.1 -1.8 L82.3 -2.05 82.5 -2.25 82.95 -2.25 84.1 -1.65 Q84.95 -1.0 85.0 -0.25 L84.65 1.25 Q84.9 1.45 84.95 2.15 L84.85 2.8 84.8 3.35 85.0 4.15 84.95 4.15 85.1 4.85 84.95 4.95 84.95 6.0 Q84.9 7.2 84.4 8.05 L84.35 8.05 82.85 9.5 80.95 9.8 Q78.65 9.8 78.45 6.45 L78.4 5.75 Q78.4 3.3 79.05 0.2 L79.25 0.2 79.45 0.0 M112.7 10.15 Q114.55 11.05 116.45 11.05 L119.4 10.55 Q121.2 9.9 121.85 8.95 122.4 10.3 123.35 10.7 L124.0 10.5 123.9 8.35 123.8 6.2 Q123.8 4.55 124.1 3.75 L123.35 4.0 122.7 4.2 Q122.15 4.2 121.95 3.7 121.65 3.2 121.2 3.2 L120.5 3.15 119.45 3.15 118.8 3.2 119.15 4.1 119.45 4.95 119.9 6.1 Q119.9 7.9 118.95 8.4 L116.05 8.7 Q114.65 8.7 114.35 7.3 L114.15 6.8 113.35 5.15 113.05 3.65 112.8 2.05 Q112.75 1.6 112.95 1.45 L112.3 0.0 112.9 -0.15 113.25 -1.45 Q113.5 -2.55 113.7 -2.5 L113.85 -2.55 114.55 -2.45 115.2 -2.35 115.5 -2.45 115.6 -2.4 116.1 -2.4 119.15 -1.9 119.3 -2.0 120.35 -1.45 121.4 -0.7 Q121.4 0.05 121.85 0.1 L122.15 -0.2 122.05 -0.3 123.2 -0.3 123.25 -1.1 122.95 -1.6 122.65 -2.15 123.0 -3.1 123.4 -4.05 123.2 -4.6 119.3 -5.05 115.4 -5.55 112.95 -5.15 110.5 -3.9 108.5 -2.55 108.6 -2.5 Q109.1 -2.5 109.8 -1.65 L109.5 -1.05 109.65 -0.65 109.85 -0.3 109.4 1.2 Q109.0 2.1 108.95 2.65 L108.95 2.75 109.1 2.85 109.5 2.75 109.65 2.95 110.0 5.65 Q109.95 6.55 110.55 7.75 L111.55 9.3 111.1 9.05 111.0 9.85 110.75 9.95 Q111.05 10.7 111.9 11.2 L112.55 10.45 112.55 10.25 112.7 10.15 M107.7 -4.05 L107.3 -4.5 107.15 -3.75 106.95 -3.7 Q107.25 -2.65 107.65 -2.4 L107.9 -2.8 107.6 -3.3 107.7 -3.7 107.7 -4.05 M100.9 -3.5 L100.9 -3.0 101.4 -2.8 101.6 -3.1 101.6 -3.15 101.95 -3.8 Q101.9 -4.4 102.15 -4.35 L101.75 -4.65 101.35 -4.9 100.9 -4.7 Q100.65 -4.6 100.65 -4.3 100.65 -4.15 100.8 -3.95 L100.9 -3.5 M128.05 -2.8 L127.6 -0.7 127.5 0.05 Q127.5 0.5 128.05 0.85 L128.95 0.05 128.6 -1.45 128.05 -2.8 M130.2 -5.5 L129.15 -5.35 128.1 -5.3 128.05 -5.1 128.2 -4.6 128.4 -4.0 Q128.4 -3.3 128.75 -2.1 L129.1 -0.15 129.1 0.0 129.1 0.05 129.3 2.55 129.55 4.6 129.75 4.55 132.75 4.75 132.4 4.25 132.55 4.05 132.75 2.65 132.75 1.95 132.7 1.25 132.95 0.5 133.2 -0.3 132.95 -1.35 Q132.7 -2.1 132.75 -2.5 133.05 -2.55 133.05 -3.25 L133.05 -4.45 Q133.05 -5.95 132.55 -5.95 L131.55 -5.7 130.2 -5.5 M120.6 -0.15 L119.85 -0.15 Q119.7 0.15 119.7 0.4 L119.85 1.35 120.3 1.1 120.2 0.4 120.6 -0.15 M114.95 -1.3 L114.8 -0.9 114.85 -0.3 114.85 0.35 114.65 1.0 114.65 1.25 Q114.6 1.4 115.15 1.5 L115.5 1.05 115.7 0.55 Q115.7 -0.7 114.95 -1.3 M132.55 -9.9 Q144.7 -4.6 144.7 2.95 144.7 10.45 132.55 15.75 121.6 20.55 106.55 21.05 L68.65 49.8 91.7 20.95 Q84.0 20.2 73.85 15.75 61.7 10.45 61.7 2.95 61.7 -4.6 73.85 -9.9 86.0 -15.2 103.2 -15.15 120.4 -15.2 132.55 -9.9 M79.3 5.35 L79.15 5.45 79.05 6.3 78.85 6.35 Q79.1 7.1 79.95 7.6 L80.15 7.3 79.95 6.8 79.75 6.55 80.0 6.3 80.5 5.5 80.05 4.85 79.95 5.35 79.55 5.2 79.45 5.15 79.3 5.35 M90.3 7.15 L90.1 7.55 89.9 8.8 89.75 10.05 89.75 10.2 89.55 10.75 89.85 10.95 90.1 10.9 90.35 10.85 90.65 10.15 90.75 8.95 90.75 7.2 90.65 6.9 Q90.4 6.9 90.3 7.15 M89.25 7.3 L89.4 6.7 Q89.35 6.05 88.65 5.65 L88.55 6.45 88.35 6.55 88.35 7.25 Q88.35 7.6 88.7 7.75 L88.75 7.7 89.25 7.3 M83.6 8.35 L83.65 8.3 84.15 7.9 84.3 7.3 Q84.25 6.65 83.5 6.25 L83.4 7.0 83.25 7.15 Q83.25 8.1 83.6 8.35 M98.5 7.6 L97.75 6.55 97.7 6.5 97.5 6.3 97.2 7.55 97.1 7.6 Q97.7 8.85 98.7 9.55 L99.1 9.1 98.5 7.6 M96.65 5.4 L96.4 4.05 96.05 3.95 95.75 4.95 96.0 5.8 95.55 5.9 95.85 6.2 96.6 6.05 96.65 5.4 M115.6 12.6 L115.5 13.1 115.4 13.65 115.4 13.8 115.1 14.35 Q115.2 14.55 115.5 14.55 L115.7 14.5 115.95 14.45 116.05 14.45 116.1 14.15 Q116.1 12.95 115.6 12.6 M120.6 14.35 Q121.25 13.95 121.25 13.0 121.25 12.55 120.4 12.05 L120.3 12.85 120.1 12.95 120.25 13.75 120.6 14.35 M108.55 9.3 Q108.55 8.95 108.7 8.7 L108.45 8.45 108.05 8.25 108.0 9.05 107.8 9.15 Q108.0 10.05 108.45 10.3 L108.65 9.85 108.55 9.3 M107.35 2.7 L107.2 2.95 Q107.2 3.25 107.7 3.55 108.5 3.0 108.5 2.45 L108.2 1.85 107.55 1.4 107.5 2.25 107.3 2.3 107.35 2.7 M113.7 11.7 L113.55 11.65 113.45 11.75 113.65 12.05 113.75 12.3 113.65 12.55 113.9 13.05 114.25 13.45 114.3 13.4 114.6 12.6 114.45 12.0 114.25 11.35 113.7 11.7 M118.4 5.65 L118.3 5.9 118.0 5.6 117.85 7.35 118.25 7.6 118.45 7.5 118.65 7.45 118.8 7.5 118.9 7.2 Q118.85 7.0 118.95 6.75 L118.95 6.3 118.55 5.4 118.4 5.65 M130.1 11.5 L129.7 11.95 Q129.4 12.35 129.4 12.75 L129.65 13.25 130.6 13.0 130.75 13.0 130.55 12.15 Q130.3 11.5 130.1 11.5 M122.85 12.0 L122.0 11.35 121.9 12.2 121.7 12.3 Q121.95 13.05 122.8 13.55 L123.0 13.05 122.85 12.0 M133.25 8.65 Q133.2 7.75 132.45 7.75 L131.9 7.75 131.3 7.75 131.25 7.75 131.0 7.85 130.25 7.75 130.0 7.75 Q129.0 7.85 129.05 8.25 129.05 8.65 129.4 9.4 L130.05 10.45 129.8 10.95 Q130.7 10.7 131.8 10.15 L133.1 9.1 133.25 8.65 M133.3 6.9 Q132.9 7.05 132.45 7.3 L133.35 7.0 133.3 6.9 M133.95 8.75 L133.4 9.3 133.3 10.0 Q133.25 10.5 133.8 10.85 134.35 10.55 134.35 10.0 134.3 8.95 133.95 8.75" fill="#ffffff" fill-rule="evenodd" stroke="none"/>
    <path d="M75.4 8.55 L75.0 5.7 74.45 4.75 74.65 2.25 74.9 -0.25 74.75 -0.65 Q74.6 -0.9 74.6 -1.05 L74.9 -1.65 74.8 -1.8 Q74.8 -2.45 75.35 -3.0 75.5 -3.2 76.35 -3.8 77.25 -5.55 81.25 -5.55 85.5 -5.55 87.4 -3.5 88.0 -3.0 88.5 -1.5 L88.95 0.85 88.65 4.3 Q87.65 4.5 87.5 7.0 L87.4 10.35 Q86.8 10.85 86.0 10.85 L85.25 10.75 83.4 11.35 81.5 11.65 Q79.25 11.6 77.15 10.35 L76.55 10.75 76.05 10.1 76.1 10.5 75.4 11.2 Q75.0 11.0 74.9 10.45 L74.75 9.5 74.95 9.4 75.1 8.6 75.55 9.0 75.4 8.55 M79.45 0.0 L79.25 0.2 79.05 0.2 Q78.4 3.3 78.4 5.75 L78.45 6.45 Q78.65 9.8 80.95 9.8 L82.85 9.5 84.35 8.05 84.4 8.05 Q84.9 7.2 84.95 6.0 L84.95 4.95 85.1 4.85 84.95 4.15 85.0 4.15 84.8 3.35 84.85 2.8 84.95 2.15 Q84.9 1.45 84.65 1.25 L85.0 -0.25 Q84.95 -1.0 84.1 -1.65 L82.95 -2.25 82.5 -2.25 82.3 -2.05 82.1 -1.8 Q82.1 -1.0 81.1 -0.95 L81.0 -1.05 81.1 -1.35 81.2 -1.65 81.1 -1.7 Q80.95 -1.75 80.65 -1.9 L80.15 -2.0 Q79.25 -2.05 79.05 -1.4 L79.25 -0.7 79.45 0.0 M83.8 -0.8 L83.85 -1.45 84.35 -1.1 84.45 -0.55 84.45 0.4 84.15 1.1 83.9 1.2 83.65 1.25 83.65 1.15 83.7 0.9 83.7 0.55 84.05 -0.45 83.8 -0.8 M103.25 6.65 L103.0 3.35 102.5 0.65 101.9 2.05 Q101.55 2.5 101.55 3.15 L101.55 3.6 Q101.65 4.85 101.0 5.8 L100.7 7.15 100.35 8.15 Q99.2 8.25 98.6 7.45 L97.85 6.5 97.9 6.35 Q97.9 5.7 96.75 3.95 L96.7 3.9 96.45 3.55 94.5 0.75 Q94.2 1.5 94.1 2.95 94.65 4.15 94.65 8.45 L94.45 11.05 94.15 11.0 93.05 11.15 91.85 11.3 Q91.5 11.3 91.4 10.9 L91.35 10.05 91.25 9.05 91.4 6.35 91.2 4.6 91.05 3.1 Q91.05 2.75 91.4 2.2 L91.75 1.4 91.2 1.25 90.7 1.0 91.6 0.55 91.35 -0.55 Q91.05 -1.4 91.05 -1.75 L91.3 -2.35 91.05 -2.35 Q91.05 -3.9 91.45 -4.65 L91.05 -4.85 Q90.8 -4.95 90.7 -5.05 L89.4 -5.8 92.75 -5.85 Q93.45 -5.85 94.0 -5.5 94.55 -5.05 94.45 -4.4 L96.3 -3.4 99.3 2.45 100.7 -0.75 Q101.0 -1.8 101.75 -3.0 102.65 -4.4 103.45 -4.65 L106.75 -5.55 106.9 -4.3 106.9 -3.7 106.8 -2.45 106.75 -0.65 Q106.75 0.3 106.9 0.95 L106.85 0.95 107.3 1.4 107.1 1.6 107.0 2.9 107.0 3.0 106.95 3.55 107.0 5.65 107.1 7.75 107.05 9.15 107.05 10.55 Q106.75 11.1 104.8 11.1 L104.45 11.1 105.75 11.75 104.6 12.5 103.7 11.8 104.3 11.1 103.7 11.1 102.95 11.05 Q102.75 11.05 102.8 10.55 102.75 9.85 103.05 8.6 L103.35 6.7 103.3 6.6 103.25 6.65 M100.9 -3.5 L100.8 -3.95 Q100.65 -4.15 100.65 -4.3 100.65 -4.6 100.9 -4.7 L101.35 -4.9 101.75 -4.65 102.15 -4.35 Q101.9 -4.4 101.95 -3.8 L101.6 -3.15 101.6 -3.1 101.4 -2.8 100.9 -3.0 100.9 -3.5 M107.7 -4.05 L107.7 -3.7 107.6 -3.3 107.9 -2.8 107.65 -2.4 Q107.25 -2.65 106.95 -3.7 L107.15 -3.75 107.3 -4.5 107.7 -4.05 M112.55 10.25 L112.55 10.45 111.9 11.2 Q111.05 10.7 110.75 9.95 L111.0 9.85 111.1 9.05 111.55 9.3 110.55 7.75 Q109.95 6.55 110.0 5.65 L109.65 2.95 109.5 2.75 109.1 2.85 108.95 2.75 108.95 2.65 Q109.0 2.1 109.4 1.2 L109.85 -0.3 109.65 -0.65 109.5 -1.05 109.8 -1.65 Q109.1 -2.5 108.6 -2.5 L108.5 -2.55 110.5 -3.9 112.95 -5.15 115.4 -5.55 119.3 -5.05 123.2 -4.6 123.4 -4.05 123.0 -3.1 122.65 -2.15 122.95 -1.6 123.25 -1.1 123.2 -0.3 122.05 -0.3 122.15 -0.2 121.85 0.1 Q121.4 0.05 121.4 -0.7 L120.35 -1.45 119.3 -2.0 119.15 -1.9 116.1 -2.4 115.6 -2.4 115.5 -2.45 115.2 -2.35 114.55 -2.45 113.85 -2.55 113.7 -2.5 Q113.5 -2.55 113.25 -1.45 L112.9 -0.15 112.3 0.0 112.95 1.45 Q112.75 1.6 112.8 2.05 L113.05 3.65 113.35 5.15 114.15 6.8 114.35 7.3 Q114.65 8.7 116.05 8.7 L118.95 8.4 Q119.9 7.9 119.9 6.1 L119.45 4.95 119.15 4.1 118.8 3.2 119.45 3.15 120.5 3.15 121.2 3.2 Q121.65 3.2 121.95 3.7 122.15 4.2 122.7 4.2 L123.35 4.0 124.1 3.75 Q123.8 4.55 123.8 6.2 L123.9 8.35 124.0 10.5 123.35 10.7 Q122.4 10.3 121.85 8.95 121.2 9.9 119.4 10.55 L116.45 11.05 Q114.55 11.05 112.7 10.15 L112.3 9.95 112.55 10.25 M114.95 -1.3 Q115.7 -0.7 115.7 0.55 L115.5 1.05 115.15 1.5 Q114.6 1.4 114.65 1.25 L114.65 1.0 114.85 0.35 114.85 -0.3 114.8 -0.9 114.95 -1.3 M120.6 -0.15 L120.2 0.4 120.3 1.1 119.85 1.35 119.7 0.4 Q119.7 0.15 119.85 -0.15 L120.6 -0.15 M130.2 -5.5 L131.55 -5.7 132.55 -5.95 Q133.05 -5.95 133.05 -4.45 L133.05 -3.25 Q133.05 -2.55 132.75 -2.5 132.7 -2.1 132.95 -1.35 L133.2 -0.3 132.95 0.5 132.7 1.25 132.75 1.95 132.75 2.65 132.55 4.05 132.4 4.25 132.75 4.75 129.75 4.55 129.55 4.6 129.3 2.55 129.1 0.05 129.1 0.0 129.1 -0.15 128.75 -2.1 Q128.4 -3.3 128.4 -4.0 L128.2 -4.6 128.05 -5.1 128.1 -5.3 129.15 -5.35 130.2 -5.5 M128.05 -2.8 L128.6 -1.45 128.95 0.05 128.05 0.85 Q127.5 0.5 127.5 0.05 L127.6 -0.7 128.05 -2.8 M133.95 8.75 Q134.3 8.95 134.35 10.0 134.35 10.55 133.8 10.85 133.25 10.5 133.3 10.0 L133.4 9.3 133.95 8.75 M133.3 6.9 L133.35 7.0 132.45 7.3 Q132.9 7.05 133.3 6.9 M133.25 8.65 L133.1 9.1 131.8 10.15 Q130.7 10.7 129.8 10.95 L130.05 10.45 129.4 9.4 Q129.05 8.65 129.05 8.25 129.0 7.85 130.0 7.75 L130.25 7.75 131.0 7.85 131.25 7.75 131.3 7.75 131.9 7.75 132.45 7.75 Q133.2 7.75 133.25 8.65 M122.85 12.0 L123.0 13.05 122.8 13.55 Q121.95 13.05 121.7 12.3 L121.9 12.2 122.0 11.35 122.85 12.0 M130.1 11.5 Q130.3 11.5 130.55 12.15 L130.75 13.0 130.6 13.0 129.65 13.25 129.4 12.75 Q129.4 12.35 129.7 11.95 L130.1 11.5 M118.4 5.65 L118.55 5.4 118.95 6.3 118.95 6.75 Q118.85 7.0 118.9 7.2 L118.8 7.5 118.65 7.45 118.45 7.5 118.25 7.6 117.85 7.35 118.0 5.6 118.3 5.9 118.4 5.65 M113.7 11.7 L114.25 11.35 114.45 12.0 114.6 12.6 114.3 13.4 114.25 13.45 113.9 13.05 113.65 12.55 113.75 12.3 113.65 12.05 113.45 11.75 113.55 11.65 113.7 11.7 M107.35 2.7 L107.3 2.3 107.5 2.25 107.55 1.4 108.2 1.85 108.5 2.45 Q108.5 3.0 107.7 3.55 107.2 3.25 107.2 2.95 L107.35 2.7 M108.55 9.3 L108.65 9.85 108.45 10.3 Q108.0 10.05 107.8 9.15 L108.0 9.05 108.05 8.25 108.45 8.45 108.7 8.7 Q108.55 8.95 108.55 9.3 M120.6 14.35 L120.25 13.75 120.1 12.95 120.3 12.85 120.4 12.05 Q121.25 12.55 121.25 13.0 121.25 13.95 120.6 14.35 M115.6 12.6 Q116.1 12.95 116.1 14.15 L116.05 14.45 115.95 14.45 115.7 14.5 115.5 14.55 Q115.2 14.55 115.1 14.35 L115.4 13.8 115.4 13.65 115.5 13.1 115.6 12.6 M96.65 5.4 L96.6 6.05 95.85 6.2 95.55 5.9 96.0 5.8 95.75 4.95 96.05 3.95 96.4 4.05 96.65 5.4 M98.5 7.6 L99.1 9.1 98.7 9.55 Q97.7 8.85 97.1 7.6 L97.2 7.55 97.5 6.3 97.7 6.5 97.75 6.55 98.5 7.6 M83.6 8.35 Q83.25 8.1 83.25 7.15 L83.4 7.0 83.5 6.25 Q84.25 6.65 84.3 7.3 L84.15 7.9 83.65 8.3 83.6 8.35 M89.25 7.3 L88.75 7.7 88.7 7.75 Q88.35 7.6 88.35 7.25 L88.35 6.55 88.55 6.45 88.65 5.65 Q89.35 6.05 89.4 6.7 L89.25 7.3 M90.3 7.15 Q90.4 6.9 90.65 6.9 L90.75 7.2 90.75 8.95 90.65 10.15 90.35 10.85 90.1 10.9 89.85 10.95 89.55 10.75 89.75 10.2 89.75 10.05 89.9 8.8 90.1 7.55 90.3 7.15 M79.3 5.35 L79.45 5.15 79.55 5.2 79.95 5.35 80.05 4.85 80.5 5.5 80.0 6.3 79.75 6.55 79.95 6.8 80.15 7.3 79.95 7.6 Q79.1 7.1 78.85 6.35 L79.05 6.3 79.15 5.45 79.3 5.35" fill="#000000" fill-rule="evenodd" stroke="none"/>
    <path d="M132.55 -9.9 Q144.7 -4.6 144.7 2.95 144.7 10.45 132.55 15.75 121.6 20.55 106.55 21.05 L68.65 49.8 91.7 20.95 Q84.0 20.2 73.85 15.75 61.7 10.45 61.7 2.95 61.7 -4.6 73.85 -9.9 86.0 -15.2 103.2 -15.15 120.4 -15.2 132.55 -9.9 Z" fill="none" stroke="#000000" stroke-linecap="round" stroke-linejoin="round" stroke-width="0.05"/>
  </g>
</svg>
