<?xml version="1.0" encoding="UTF-8" standalone="no"?>
<svg xmlns:ffdec="https://www.free-decompiler.com/flash" xmlns:xlink="http://www.w3.org/1999/xlink" ffdec:objectType="shape" height="74.0px" width="57.0px" xmlns="http://www.w3.org/2000/svg">
  <g transform="matrix(1.0, 0.0, 0.0, 1.0, 28.5, 37.0)">
    <path d="M19.45 -29.4 Q27.5 -22.8 27.5 -13.5 27.5 -4.2 19.45 2.4 13.0 7.7 5.4 8.75 L3.55 36.0 -4.1 8.25 Q-14.15 6.75 -19.45 2.4 -27.5 -4.2 -27.5 -13.5 -27.5 -22.8 -19.45 -29.4 -11.4 -36.0 0.0 -36.0 11.4 -36.0 19.45 -29.4" fill="#ffffff" fill-rule="evenodd" stroke="none"/>
    <path d="M19.45 -29.4 Q27.5 -22.8 27.5 -13.5 27.5 -4.2 19.45 2.4 13.0 7.7 5.4 8.75 L3.55 36.0 -4.1 8.25 Q-14.15 6.75 -19.45 2.4 -27.5 -4.2 -27.5 -13.5 -27.5 -22.8 -19.45 -29.4 -11.4 -36.0 0.0 -36.0 11.4 -36.0 19.45 -29.4 Z" fill="none" stroke="#000000" stroke-linecap="round" stroke-linejoin="round" stroke-width="2.0"/>
  </g>
</svg>
