<?xml version="1.0" encoding="UTF-8" standalone="no"?>
<svg xmlns:ffdec="https://www.free-decompiler.com/flash" xmlns:xlink="http://www.w3.org/1999/xlink" ffdec:objectType="shape" height="160.95px" width="296.35px" xmlns="http://www.w3.org/2000/svg">
  <g transform="matrix(1.0, 0.0, 0.0, 1.0, 148.2, 80.45)">
    <path d="M-90.8 34.1 Q-96.9 50.15 -83.65 50.9 L-57.2 50.65 Q-35.85 51.55 -32.65 33.05 -28.8 17.25 -48.9 19.15 L-72.15 21.2 Q-87.8 22.95 -90.8 34.1 M9.25 -50.35 Q2.3 -51.2 -1.85 -42.6 L-8.5 -2.65 Q-10.45 6.65 0.1 6.3 L45.05 1.55 Q56.2 0.35 59.65 -5.9 64.4 -19.35 64.1 -35.5 62.75 -52.75 51.0 -52.0 L9.25 -50.35 M-37.1 -50.55 Q-52.7 -51.3 -59.65 -40.05 L-75.15 -2.4 Q-79.65 8.1 -75.6 11.45 -73.8 13.75 -65.7 12.75 L-42.8 10.55 Q-27.5 6.7 -24.5 -3.45 L-18.45 -32.6 Q-17.35 -50.2 -37.1 -50.55 M146.9 -14.4 Q148.15 -6.3 148.15 -0.65 148.15 13.85 135.05 30.7 L126.75 40.25 133.65 21.05 Q141.0 -0.7 144.9 -9.65 L146.9 -14.4 M92.15 -66.65 Q94.15 -69.15 94.15 -72.65 94.15 -76.85 86.25 -80.45 L142.85 -80.2 137.7 -52.35 Q133.8 -33.95 128.4 -21.65 124.15 -11.95 116.5 9.3 108.65 31.1 104.9 39.85 104.2 41.5 88.5 67.9 L83.35 77.25 79.15 80.5 -148.2 79.45 -147.9 6.85 -142.0 2.9 Q-112.1 -17.2 -100.2 -28.9 -74.5 -54.1 -48.65 -62.75 -25.75 -70.4 16.15 -70.4 49.5 -70.4 63.95 -66.5 67.6 -65.55 72.35 -63.85 76.35 -62.65 81.15 -62.65 88.9 -62.65 92.15 -66.65" fill="#262626" fill-rule="evenodd" stroke="none"/>
  </g>
</svg>
