<?xml version="1.0" encoding="UTF-8" standalone="no"?>
<svg xmlns:ffdec="https://www.free-decompiler.com/flash" xmlns:xlink="http://www.w3.org/1999/xlink" ffdec:objectType="shape" height="285.35px" width="944.45px" xmlns="http://www.w3.org/2000/svg">
  <g transform="matrix(1.0, 0.0, 0.0, 1.0, 530.05, 156.7)">
    <path d="M162.85 -14.85 L260.4 -19.4 327.55 -22.5 327.7 -20.25 -13.5 4.15 -20.95 -5.05 -22.0 -4.45 -22.35 -6.1 -21.3 -6.35 162.85 -14.85 M260.4 -35.8 L316.25 -39.55 Q321.35 -37.8 324.4 -36.15 L260.55 -32.75 260.4 -35.8 M-129.3 -69.2 L-91.3 -69.95 -28.95 -34.3 -27.6 -28.6 -78.7 -57.0 -88.1 -62.2 -171.1 -59.55 -171.35 -59.6 -171.35 -68.35 -129.3 -69.2" fill="#d5d9de" fill-rule="evenodd" stroke="none"/>
    <path d="M-171.35 -59.6 L-208.25 -66.65 -208.25 -67.65 -171.35 -68.35 -171.35 -59.6" fill="#a9b7ca" fill-rule="evenodd" stroke="none"/>
    <path d="M-182.25 -87.35 L-137.1 -88.4 -129.3 -69.2 -171.35 -68.35 -208.25 -67.65 -218.65 -67.45 -218.65 -31.0 -221.0 -31.55 -229.1 -33.4 Q-261.9 -40.6 -299.3 -42.6 -312.65 -43.05 -327.1 -42.75 L-327.1 -42.8 -327.2 -43.35 -307.05 -66.7 Q-303.5 -70.15 -299.15 -72.7 -289.35 -78.5 -275.75 -79.65 L-275.75 -79.7 -182.15 -85.5 -182.05 -85.5 -182.25 -87.35 M-275.75 -41.95 L-275.75 -79.65 -275.75 -41.95 M-180.35 -68.7 L-182.05 -85.5 -180.35 -68.7" fill="#adb4b9" fill-rule="evenodd" stroke="none"/>
    <path d="M-419.0 49.8 Q-437.95 51.6 -456.15 56.35 -473.5 60.75 -489.4 68.95 -498.9 73.8 -509.5 75.25 -517.4 76.4 -525.5 75.7 -526.2 65.3 -513.05 52.2 L-498.6 39.25 Q-477.15 39.75 -456.25 42.65 -437.4 45.25 -419.0 49.8 M-354.5 -41.6 L-354.6 -42.6 -335.55 -59.8 -327.85 -65.7 Q-322.35 -69.6 -316.65 -72.7 -297.4 -83.35 -276.35 -84.9 L-275.75 -79.7 -275.75 -84.95 -270.0 -85.2 -182.25 -87.35 -182.15 -85.5 -275.75 -79.7 -275.75 -79.65 Q-289.35 -78.5 -299.15 -72.7 -303.5 -70.15 -307.05 -66.7 L-327.2 -43.35 -327.2 -42.75 -339.0 -42.4 -354.5 -41.6 M-339.15 -45.45 L-320.7 -63.45 -326.4 -63.45 -345.3 -45.45 -339.15 -45.45" fill="#fcfcfa" fill-rule="evenodd" stroke="none"/>
    <path d="M162.85 -14.85 L162.4 -29.1 162.85 -14.85 -21.3 -6.35 -22.35 -6.1 -26.85 -25.4 162.4 -29.1 260.4 -31.05 260.4 -19.4 260.4 -31.05 260.4 -32.75 260.55 -32.75 324.4 -36.15 Q330.0 -33.15 329.75 -29.7 330.8 -28.7 327.55 -22.5 L359.75 -23.95 359.8 -23.5 359.85 -22.55 327.7 -20.25 327.55 -22.5 260.4 -19.4 162.85 -14.85" fill="#b0b9bd" fill-rule="evenodd" stroke="none"/>
    <path d="M-208.25 -66.65 L-208.25 -28.2 -218.65 -31.0 -218.65 -67.45 -208.25 -67.65 -208.25 -66.65" fill="#8e9596" fill-rule="evenodd" stroke="none"/>
    <path d="M-398.35 -30.5 L-395.2 -31.75 Q-388.2 -34.35 -378.8 -35.8 -373.0 -37.1 -364.1 -35.8 L-359.65 -34.1 Q-354.5 -30.9 -359.75 -27.7 -368.0 -24.75 -376.2 -23.5 -385.4 -23.9 -395.5 -26.7 L-397.4 -27.25 Q-402.2 -28.9 -398.35 -30.5 M-339.15 -45.45 L-345.3 -45.45 -326.4 -63.45 -320.7 -63.45 -339.15 -45.45 M-475.95 74.45 Q-471.5 66.3 -456.25 63.0 L-449.85 61.85 Q-427.5 57.85 -424.55 65.3 -420.35 74.35 -434.0 90.2 -437.7 95.0 -441.1 98.3 -447.75 104.95 -456.25 105.45 L-463.2 104.9 -464.75 104.45 Q-471.6 102.45 -476.0 96.3 -481.75 86.5 -475.95 74.45" fill="#4d4d4d" fill-rule="evenodd" stroke="none"/>
    <path d="M354.1 -107.35 L378.7 -151.3 410.9 -153.2 376.5 -65.95 Q347.1 -79.6 354.1 -107.35" fill="url(#gradient0)" fill-rule="evenodd" stroke="none"/>
    <path d="M316.25 -39.55 L354.1 -107.35 Q347.1 -79.6 376.5 -65.95 L359.95 -23.95 359.75 -23.95 327.55 -22.5 Q330.8 -28.7 329.75 -29.7 330.0 -33.15 324.4 -36.15 321.35 -37.8 316.25 -39.55" fill="url(#gradient1)" fill-rule="evenodd" stroke="none"/>
    <path d="M359.75 -23.95 L359.95 -23.95 359.8 -23.5 359.75 -23.95" fill="url(#gradient2)" fill-rule="evenodd" stroke="none"/>
    <path d="M378.4 -23.9 L379.3 -23.8 Q385.7 -23.0 385.8 -20.95 389.05 -15.9 368.6 -13.35 L357.8 -11.6 304.8 -2.95 -82.4 60.35 -82.4 9.55 -82.2 8.85 -81.8 8.75 -22.0 -4.45 -20.95 -5.05 -13.5 4.15 327.7 -20.25 359.85 -22.55 378.4 -23.9" fill="url(#gradient3)" fill-rule="evenodd" stroke="none"/>
    <path d="M357.8 -11.6 L374.0 55.1 334.2 58.9 304.8 -2.95 357.8 -11.6" fill="url(#gradient4)" fill-rule="evenodd" stroke="none"/>
    <path d="M-131.45 80.1 Q-163.15 91.75 -193.7 99.95 L-201.4 101.85 -229.1 108.35 Q-335.6 131.8 -404.35 122.55 L-411.25 121.5 -411.4 122.15 Q-436.0 118.55 -456.25 113.55 -492.75 104.5 -514.95 91.0 -524.95 84.25 -525.5 75.7 -517.4 76.4 -509.5 75.25 -498.9 73.8 -489.4 68.95 -473.5 60.75 -456.15 56.35 -437.95 51.6 -419.0 49.8 L-386.4 -17.15 Q-391.0 -19.35 -395.85 -20.85 -410.65 -25.45 -427.8 -23.5 L-428.1 -23.9 -427.15 -24.75 Q-413.5 -33.75 -394.85 -37.55 -385.6 -39.45 -375.05 -40.05 L-354.55 -41.6 -354.5 -41.6 -339.0 -42.4 -327.2 -42.75 -327.1 -42.75 Q-312.65 -43.05 -299.3 -42.6 -261.9 -40.6 -229.1 -33.4 L-221.0 -31.55 -218.65 -31.0 -208.25 -28.2 -207.1 -27.85 -207.3 -27.25 -207.35 -26.95 -221.3 -29.0 -229.1 -30.85 Q-274.55 -41.15 -288.15 -35.3 -297.15 -31.55 -296.5 -21.3 L-296.65 -21.3 -344.15 -20.95 Q-371.1 -20.5 -379.8 -1.25 L-419.25 93.55 -262.7 84.6 -243.65 10.85 -243.7 10.55 -157.15 2.1 -157.15 -8.75 -151.1 -5.7 -149.25 -5.3 -98.35 5.45 -98.45 5.85 -131.55 10.6 -131.55 79.7 -131.45 80.1 M-398.35 -30.5 Q-402.2 -28.9 -397.4 -27.25 L-395.5 -26.7 Q-385.4 -23.9 -376.2 -23.5 -368.0 -24.75 -359.75 -27.7 -354.5 -30.9 -359.65 -34.1 L-364.1 -35.8 Q-373.0 -37.1 -378.8 -35.8 -388.2 -34.35 -395.2 -31.75 L-398.35 -30.5 M-148.6 -4.55 L-149.25 -5.3 -148.6 -4.55 M-475.95 74.45 Q-481.75 86.5 -476.0 96.3 -471.6 102.45 -464.75 104.45 L-463.2 104.9 -456.25 105.45 Q-447.75 104.95 -441.1 98.3 -437.7 95.0 -434.0 90.2 -420.35 74.35 -424.55 65.3 -427.5 57.85 -449.85 61.85 L-456.25 63.0 Q-471.5 66.3 -475.95 74.45" fill="url(#gradient5)" fill-rule="evenodd" stroke="none"/>
    <path d="M-428.1 -23.9 L-427.8 -23.5 Q-410.65 -25.45 -395.85 -20.85 -391.0 -19.35 -386.4 -17.15 L-419.0 49.8 Q-437.4 45.25 -456.25 42.65 -477.15 39.75 -498.6 39.25 L-428.1 -23.9" fill="url(#gradient6)" fill-rule="evenodd" stroke="none"/>
    <path d="M-243.75 10.55 L-252.75 -21.6 -296.5 -21.3 Q-297.15 -31.55 -288.15 -35.3 -274.55 -41.15 -229.1 -30.85 L-221.3 -29.0 -207.35 -26.95 -206.9 -26.85 -200.6 -25.9 -194.0 -23.8 Q-174.6 -17.35 -157.15 -8.75 L-157.15 2.1 -243.7 10.55 -243.75 10.55 M-252.75 -21.6 L-251.9 -21.6 -252.75 -21.6" fill="url(#gradient7)" fill-rule="evenodd" stroke="none"/>
    <path d="M-171.35 -59.55 L-171.35 -46.45 -171.35 -31.3 -171.35 -31.05 -149.25 -5.3 -151.1 -5.7 -157.15 -8.75 Q-174.6 -17.35 -194.0 -23.8 L-200.6 -25.9 -207.1 -27.85 -208.25 -28.2 -208.25 -66.65 -171.35 -59.6 -171.35 -59.55 M-157.15 -10.2 L-157.15 -8.75 -157.15 -10.2 M-177.0 -48.1 L-171.35 -46.45 -177.0 -48.1" fill="url(#gradient8)" fill-rule="evenodd" stroke="none"/>
    <path d="M-171.35 -59.55 L-171.1 -59.55 -88.1 -62.2 -78.7 -57.0 -171.35 -31.3 -171.35 -46.45 -171.35 -59.55 M-170.4 -46.2 L-171.35 -46.45 -170.4 -46.2" fill="url(#gradient9)" fill-rule="evenodd" stroke="none"/>
    <path d="M-207.3 -27.25 L-206.9 -26.85 -207.35 -26.95 -207.3 -27.25" fill="url(#gradient10)" fill-rule="evenodd" stroke="none"/>
    <path d="M-26.85 -25.4 L-22.35 -6.1 -22.0 -4.45 -81.8 8.75 -82.25 8.85 -98.35 5.45 -149.25 -5.3 -171.35 -31.05 -171.35 -31.3 -78.7 -57.0 -27.6 -28.6 -26.85 -25.4" fill="url(#gradient11)" fill-rule="evenodd" stroke="none"/>
    <path d="M-82.4 60.35 L-82.95 60.6 Q-107.5 71.3 -131.4 80.1 L-131.55 79.7 -131.55 10.6 -98.45 5.85 -98.35 5.45 -82.25 8.85 -82.4 9.55 -82.4 60.35" fill="url(#gradient12)" fill-rule="evenodd" stroke="none"/>
    <path d="M-131.55 79.7 L-131.4 80.1 -131.55 79.7" fill="url(#gradient13)" fill-rule="evenodd" stroke="none"/>
    <path d="M162.4 -29.1 L162.85 -14.85 M-276.35 -84.9 L-275.75 -79.7 M-275.75 -79.65 L-275.75 -41.95 M-182.05 -85.5 L-180.35 -68.7 M-171.35 -31.3 L-171.35 -46.45 M-171.35 -31.3 L-171.35 -31.05 M-98.45 5.85 L-131.55 10.6 -131.55 79.7 M-157.15 2.1 L-157.15 -8.75" fill="none" stroke="#666666" stroke-linecap="round" stroke-linejoin="round" stroke-width="7.0"/>
    <path d="M162.85 -14.85 L260.4 -19.4 260.4 -31.05 162.4 -29.1 -26.85 -25.4 -22.35 -6.1 -22.0 -4.45 -81.8 8.75 M-21.3 -6.35 L162.85 -14.85 M260.4 -32.75 L260.4 -35.8 316.25 -39.55 354.1 -107.35 378.7 -151.3 410.9 -153.2 376.5 -65.95 359.95 -23.95 363.5 -24.15 Q372.9 -24.45 378.4 -23.9 M379.3 -23.8 Q385.7 -23.0 385.8 -20.95 389.05 -15.9 368.6 -13.35 L357.8 -11.6 374.0 55.1 334.2 58.9 304.8 -2.95 -82.4 60.35 -82.95 60.6 Q-107.5 71.3 -131.4 80.1 L-131.45 80.1 Q-163.15 91.75 -193.7 99.95 L-201.4 101.85 -229.1 108.35 M-456.25 113.55 Q-492.75 104.5 -514.95 91.0 -524.95 84.25 -525.5 75.7 L-526.55 75.65 M260.4 -32.75 L260.4 -31.05 M327.55 -22.5 L359.75 -23.95 359.95 -23.95 359.8 -23.5 M327.55 -22.5 L260.4 -19.4 M-82.4 9.55 L-82.4 60.35 M357.8 -11.6 L304.8 -2.95 M-525.5 75.7 Q-526.2 65.3 -513.05 52.2 L-498.6 39.25 M-316.65 -72.7 Q-297.4 -83.35 -276.35 -84.9 L-275.75 -84.95 -270.0 -85.2 -182.25 -87.35 -137.1 -88.4 -129.3 -69.2 -91.3 -69.95 -28.95 -34.3 -27.6 -28.6 -26.85 -25.4 M-275.75 -79.7 L-275.75 -84.95 M-275.75 -79.7 L-275.75 -79.65 M-171.35 -59.55 L-171.35 -59.6 M-208.25 -66.65 L-208.25 -28.2 -207.1 -27.85 -200.6 -25.9 -194.0 -23.8 Q-174.6 -17.35 -157.15 -8.75 L-157.15 -10.2 M-208.25 -67.65 L-218.65 -67.45 -218.65 -31.0 -208.25 -28.2 M-208.25 -66.65 L-208.25 -67.65 -171.35 -68.35 -129.3 -69.2 M-229.1 -33.4 L-221.0 -31.55 -218.65 -31.0 M-149.25 -5.3 L-148.6 -4.55 M-157.15 -8.75 L-151.1 -5.7" fill="none" stroke="#000000" stroke-linecap="round" stroke-linejoin="round" stroke-width="7.0"/>
    <path d="M-428.1 -23.9 L-427.8 -23.5 Q-410.65 -25.45 -395.85 -20.85 -391.0 -19.35 -386.4 -17.15 L-419.0 49.8 Q-437.4 45.25 -456.25 42.65 -477.15 39.75 -498.6 39.25 L-428.1 -23.9 M-398.35 -30.5 L-395.2 -31.75 Q-388.2 -34.35 -378.8 -35.8 -373.0 -37.1 -364.1 -35.8 L-359.65 -34.1 Q-354.5 -30.9 -359.75 -27.7 -368.0 -24.75 -376.2 -23.5 -385.4 -23.9 -395.5 -26.7 L-397.4 -27.25 Q-402.2 -28.9 -398.35 -30.5 M-339.15 -45.45 L-320.7 -63.45 -326.4 -63.45 -345.3 -45.45 -339.15 -45.45 M-475.95 74.45 Q-481.75 86.5 -476.0 96.3 -471.6 102.45 -464.75 104.45 L-463.2 104.9 -456.25 105.45 Q-447.75 104.95 -441.1 98.3 -437.7 95.0 -434.0 90.2 -420.35 74.35 -424.55 65.3 -427.5 57.85 -449.85 61.85 L-456.25 63.0 Q-471.5 66.3 -475.95 74.45" fill="none" stroke="#1e1e1e" stroke-linecap="round" stroke-linejoin="round" stroke-width="7.0"/>
    <path d="M-229.1 108.35 Q-335.6 131.8 -404.35 122.55 L-411.25 121.5 M-411.4 122.15 Q-436.0 118.55 -456.25 113.55 M-81.8 8.75 L-82.2 8.85 -82.25 8.85 -98.35 5.45 -149.25 -5.3 -151.1 -5.7 M-428.1 -23.9 L-427.15 -24.75 Q-413.5 -33.75 -394.85 -37.55 -385.6 -39.45 -375.05 -40.05 L-354.55 -41.6 -354.5 -41.6 -339.0 -42.4 -327.2 -42.75 -327.1 -42.75 Q-312.65 -43.05 -299.3 -42.6 -261.9 -40.6 -229.1 -33.4 M-354.6 -42.6 L-335.55 -59.8 -327.85 -65.7 Q-322.35 -69.6 -316.65 -72.7 M-296.65 -21.3 L-344.15 -20.95 Q-371.1 -20.5 -379.8 -1.25 L-419.25 93.55 -262.7 84.6 -243.65 10.85 -243.75 10.55 -252.75 -21.6 -296.5 -21.3 M-251.9 -21.6 L-252.75 -21.6 M-243.7 10.55 L-243.75 10.55" fill="none" stroke="#000000" stroke-linecap="round" stroke-linejoin="round" stroke-width="7.0"/>
    <path d="M-327.2 -43.35 L-307.05 -66.7 Q-303.5 -70.15 -299.15 -72.7 -289.35 -78.5 -275.75 -79.65 M-182.05 -85.5 L-182.15 -85.5 -275.75 -79.7" fill="none" stroke="#999999" stroke-linecap="round" stroke-linejoin="round" stroke-width="7.0"/>
    <path d="M-171.35 -46.45 L-170.4 -46.2 M-171.35 -46.45 L-177.0 -48.1" fill="none" stroke="url(#gradient14)" stroke-linecap="round" stroke-linejoin="round" stroke-width="7.0"/>
    <path d="M162.85 -14.85 L260.4 -19.4 327.55 -22.5 327.7 -20.25 -13.5 4.15 -20.95 -5.05 -22.0 -4.45 -22.35 -6.1 -21.3 -6.35 162.85 -14.85 M260.4 -35.8 L316.25 -39.55 Q321.35 -37.8 324.4 -36.15 L260.55 -32.75 260.4 -35.8 M-129.3 -69.2 L-91.3 -69.95 -28.95 -34.3 -27.6 -28.6 -78.7 -57.0 -88.1 -62.2 -171.1 -59.55 -171.35 -59.6 -171.35 -68.35 -129.3 -69.2" fill="#d5d9de" fill-rule="evenodd" stroke="none"/>
    <path d="M-182.9 -87.3 L-182.25 -87.35 -182.1 -87.4 -182.1 -87.35 -137.1 -88.4 -129.3 -69.2 -171.35 -68.35 -180.35 -68.2 -182.05 -85.5 -180.35 -68.2 -208.25 -67.65 -218.65 -67.45 -218.65 -31.0 -221.0 -31.55 -229.1 -33.4 Q-261.9 -40.6 -299.3 -42.6 -312.65 -43.05 -327.1 -42.75 L-327.1 -42.8 -327.2 -43.35 -307.05 -66.7 Q-303.5 -70.15 -299.15 -72.7 -289.35 -78.5 -275.75 -79.65 L-275.75 -79.7 -182.9 -87.3 M-275.75 -41.95 L-275.75 -79.65 -275.75 -41.95 M-182.05 -85.5 L-182.1 -87.35 -182.05 -85.5 M-182.25 -87.35 L-182.1 -87.35 -182.25 -87.35" fill="#adb4b9" fill-rule="evenodd" stroke="none"/>
    <path d="M-419.0 49.8 Q-437.95 51.6 -456.15 56.35 -473.5 60.75 -489.4 68.95 -498.9 73.8 -509.5 75.25 -517.4 76.4 -525.5 75.7 -526.2 65.3 -513.05 52.2 L-498.6 39.25 Q-477.15 39.75 -456.25 42.65 -437.4 45.25 -419.0 49.8 M-354.6 -42.6 L-335.55 -59.8 -327.85 -65.7 Q-322.35 -69.6 -316.65 -72.7 -297.4 -83.35 -276.35 -84.9 L-275.75 -79.7 -275.75 -79.65 Q-289.35 -78.5 -299.15 -72.7 -303.5 -70.15 -307.05 -66.7 L-327.2 -43.35 -327.2 -42.75 -339.0 -42.4 -354.5 -41.6 -354.6 -42.6 M-275.75 -84.95 L-270.0 -85.2 -182.9 -87.3 -275.75 -79.7 -275.75 -84.95 M-339.15 -45.45 L-320.7 -63.45 -326.4 -63.45 -345.3 -45.45 -339.15 -45.45" fill="#fcfcfa" fill-rule="evenodd" stroke="none"/>
    <path d="M162.85 -14.85 L162.4 -29.1 162.85 -14.85 -21.3 -6.35 -22.35 -6.1 -26.85 -25.4 162.4 -29.1 260.4 -31.05 260.4 -32.75 260.55 -32.75 324.4 -36.15 Q330.0 -33.15 329.75 -29.7 330.8 -28.7 327.55 -22.5 L359.75 -23.95 359.8 -23.5 359.85 -22.55 327.7 -20.25 327.55 -22.5 260.4 -19.4 162.85 -14.85 M260.4 -31.05 L260.4 -19.4 260.4 -31.05" fill="#b0b9bd" fill-rule="evenodd" stroke="none"/>
    <path d="M-208.25 -66.65 L-208.25 -28.2 -218.65 -31.0 -218.65 -67.45 -208.25 -67.65 -208.25 -66.65" fill="#8e9596" fill-rule="evenodd" stroke="none"/>
    <path d="M-339.15 -45.45 L-345.3 -45.45 -326.4 -63.45 -320.7 -63.45 -339.15 -45.45" fill="#4d4d4d" fill-rule="evenodd" stroke="none"/>
    <path d="M-180.35 -68.2 L-171.35 -68.35 -171.35 -59.6 -208.25 -66.65 -208.25 -67.65 -180.35 -68.2" fill="#bbc8d5" fill-rule="evenodd" stroke="none"/>
    <path d="M316.25 -39.55 L355.6 -110.0 Q355.5 -90.5 382.1 -80.2 L359.95 -23.95 359.75 -23.95 327.55 -22.5 Q330.8 -28.7 329.75 -29.7 330.0 -33.15 324.4 -36.15 321.35 -37.8 316.25 -39.55" fill="url(#gradient15)" fill-rule="evenodd" stroke="none"/>
    <path d="M359.75 -23.95 L359.95 -23.95 359.8 -23.5 359.75 -23.95" fill="url(#gradient16)" fill-rule="evenodd" stroke="none"/>
    <path d="M-243.75 10.55 L-252.75 -21.6 -296.5 -21.3 Q-297.15 -31.55 -288.15 -35.3 -274.55 -41.15 -229.1 -30.85 L-221.3 -29.0 -207.35 -26.95 -206.9 -26.85 -200.6 -25.9 -194.0 -23.8 Q-174.6 -17.35 -157.15 -8.75 L-157.15 2.1 -243.7 10.55 -243.75 10.55" fill="url(#gradient17)" fill-rule="evenodd" stroke="none"/>
    <path d="M-171.35 -59.55 L-171.35 -46.45 -171.35 -31.3 -171.35 -31.05 -149.25 -5.3 -151.1 -5.7 -157.15 -8.75 Q-174.6 -17.35 -194.0 -23.8 L-200.6 -25.9 -207.1 -27.85 -208.25 -28.2 -208.25 -66.65 -171.35 -59.6 -171.35 -59.55 M-177.0 -48.1 L-171.35 -46.45 -177.0 -48.1" fill="url(#gradient18)" fill-rule="evenodd" stroke="none"/>
    <path d="M-171.1 -59.55 L-88.1 -62.2 -78.7 -57.0 -171.35 -31.3 -171.35 -46.45 -171.35 -59.55 -171.1 -59.55 M-170.4 -46.2 L-171.35 -46.45 -170.4 -46.2" fill="url(#gradient19)" fill-rule="evenodd" stroke="none"/>
    <path d="M-207.3 -27.25 L-206.9 -26.85 -207.35 -26.95 -207.3 -27.25" fill="url(#gradient20)" fill-rule="evenodd" stroke="none"/>
    <path d="M-131.4 80.1 L-131.55 79.7 -131.4 80.1" fill="url(#gradient21)" fill-rule="evenodd" stroke="none"/>
    <path d="M-428.1 -23.9 L-427.8 -23.5 Q-410.65 -25.45 -395.85 -20.85 -391.0 -19.35 -386.4 -17.15 L-419.0 49.8 Q-437.4 45.25 -456.25 42.65 -477.15 39.75 -498.6 39.25 L-428.1 -23.9" fill="url(#gradient22)" fill-rule="evenodd" stroke="none"/>
    <path d="M-398.35 -30.5 L-395.2 -31.75 Q-388.2 -34.35 -378.8 -35.8 -373.0 -37.1 -364.1 -35.8 L-359.65 -34.1 Q-354.5 -30.9 -359.75 -27.7 -368.0 -24.75 -376.2 -23.5 -385.4 -23.9 -395.5 -26.7 L-397.4 -27.25 Q-402.2 -28.9 -398.35 -30.5 M-475.95 74.45 Q-471.5 66.3 -456.25 63.0 L-449.85 61.85 Q-427.5 57.85 -424.55 65.3 -420.35 74.35 -434.0 90.2 -437.7 95.0 -441.1 98.3 -447.75 104.95 -456.25 105.45 L-463.2 104.9 -464.75 104.45 Q-471.6 102.45 -476.0 96.3 -481.75 86.5 -475.95 74.45" fill="#373737" fill-rule="evenodd" stroke="none"/>
    <path d="M378.4 -23.9 L379.3 -23.8 Q385.7 -23.0 385.8 -20.95 389.05 -15.9 368.6 -13.35 L357.8 -11.6 304.8 -2.95 -82.4 60.35 -82.4 9.55 -82.2 8.85 -81.8 8.75 -22.0 -4.45 -20.95 -5.05 -13.5 4.15 327.7 -20.25 359.85 -22.55 378.4 -23.9" fill="url(#gradient23)" fill-rule="evenodd" stroke="none"/>
    <path d="M-82.4 60.35 L-82.95 60.6 Q-107.5 71.3 -131.4 80.1 L-131.55 79.7 -131.55 10.6 -98.35 5.45 -131.55 10.6 -131.55 79.7 -131.45 80.1 Q-163.15 91.75 -193.7 99.95 L-201.4 101.85 -229.1 108.35 Q-335.6 131.8 -404.35 122.55 L-411.25 121.5 -411.4 122.15 Q-436.0 118.55 -456.25 113.55 -492.75 104.5 -514.95 91.0 -524.95 84.25 -525.5 75.7 -517.4 76.4 -509.5 75.25 -498.9 73.8 -489.4 68.95 -473.5 60.75 -456.15 56.35 -437.95 51.6 -419.0 49.8 L-386.4 -17.15 Q-391.0 -19.35 -395.85 -20.85 -410.65 -25.45 -427.8 -23.5 L-428.1 -23.9 -427.15 -24.75 Q-413.5 -33.75 -394.85 -37.55 -385.6 -39.45 -375.05 -40.05 L-354.55 -41.6 -354.5 -41.6 -339.0 -42.4 -327.2 -42.75 -327.1 -42.75 Q-312.65 -43.05 -299.3 -42.6 -261.9 -40.6 -229.1 -33.4 L-221.0 -31.55 -218.65 -31.0 -208.25 -28.2 -207.1 -27.85 -207.3 -27.25 -207.35 -26.95 -221.3 -29.0 -229.1 -30.85 Q-274.55 -41.15 -288.15 -35.3 -297.15 -31.55 -296.5 -21.3 L-296.65 -21.3 -344.15 -20.95 Q-371.1 -20.5 -379.8 -1.25 L-419.25 93.55 -262.7 84.6 -243.65 10.85 -243.7 10.55 -157.15 2.1 -157.15 -8.75 -151.1 -5.7 -149.25 -5.3 -148.6 -4.55 -149.25 -5.3 -98.35 5.45 -82.25 8.85 -82.4 9.55 -82.4 60.35 M-398.35 -30.5 Q-402.2 -28.9 -397.4 -27.25 L-395.5 -26.7 Q-385.4 -23.9 -376.2 -23.5 -368.0 -24.75 -359.75 -27.7 -354.5 -30.9 -359.65 -34.1 L-364.1 -35.8 Q-373.0 -37.1 -378.8 -35.8 -388.2 -34.35 -395.2 -31.75 L-398.35 -30.5 M-475.95 74.45 Q-481.75 86.5 -476.0 96.3 -471.6 102.45 -464.75 104.45 L-463.2 104.9 -456.25 105.45 Q-447.75 104.95 -441.1 98.3 -437.7 95.0 -434.0 90.2 -420.35 74.35 -424.55 65.3 -427.5 57.85 -449.85 61.85 L-456.25 63.0 Q-471.5 66.3 -475.95 74.45" fill="url(#gradient24)" fill-rule="evenodd" stroke="none"/>
    <path d="M-26.85 -25.4 L-22.35 -6.1 -22.0 -4.45 -81.8 8.75 -82.25 8.85 -98.35 5.45 -149.25 -5.3 -171.35 -31.05 -171.35 -31.3 -78.7 -57.0 -27.6 -28.6 -26.85 -25.4" fill="url(#gradient25)" fill-rule="evenodd" stroke="none"/>
    <path d="M357.8 -11.6 L374.0 55.1 334.2 58.9 304.8 -2.95 357.8 -11.6" fill="url(#gradient26)" fill-rule="evenodd" stroke="none"/>
    <path d="M355.6 -110.0 L378.7 -151.3 410.9 -153.2 382.1 -80.2 Q355.5 -90.5 355.6 -110.0" fill="url(#gradient27)" fill-rule="evenodd" stroke="none"/>
    <path d="M-229.1 108.35 Q-335.6 131.8 -404.35 122.55 L-411.25 121.5 M-411.4 122.15 Q-436.0 118.55 -456.25 113.55 M-81.8 8.75 L-82.2 8.85 -82.25 8.85 -98.35 5.45 -149.25 -5.3 -151.1 -5.7 M-354.5 -41.6 L-354.55 -41.6 -375.05 -40.05 Q-385.6 -39.45 -394.85 -37.55 -413.5 -33.75 -427.15 -24.75 L-428.1 -23.9 M-354.6 -42.6 L-335.55 -59.8 -327.85 -65.7 Q-322.35 -69.6 -316.65 -72.7 M-327.2 -42.75 L-327.1 -42.75 Q-312.65 -43.05 -299.3 -42.6 -261.9 -40.6 -229.1 -33.4 M-327.2 -42.75 L-339.0 -42.4 -354.5 -41.6 M-296.65 -21.3 L-344.15 -20.95 Q-371.1 -20.5 -379.8 -1.25 L-419.25 93.55 -262.7 84.6 -243.65 10.85 -243.75 10.55 -252.75 -21.6 -296.5 -21.3 M-243.75 10.55 L-243.7 10.55" fill="none" stroke="#000000" stroke-linecap="round" stroke-linejoin="round" stroke-width="0.05"/>
    <path d="M162.85 -14.85 L260.4 -19.4 260.4 -31.05 162.4 -29.1 -26.85 -25.4 -22.35 -6.1 -22.0 -4.45 -81.8 8.75 M-21.3 -6.35 L162.85 -14.85 M260.4 -31.05 L260.4 -32.75 260.4 -35.8 316.25 -39.55 355.6 -110.0 378.7 -151.3 410.9 -153.2 382.1 -80.2 359.95 -23.95 363.5 -24.15 Q372.9 -24.45 378.4 -23.9 M379.3 -23.8 Q385.7 -23.0 385.8 -20.95 389.05 -15.9 368.6 -13.35 L357.8 -11.6 374.0 55.1 334.2 58.9 304.8 -2.95 -82.4 60.35 -82.95 60.6 Q-107.5 71.3 -131.4 80.1 L-131.45 80.1 Q-163.15 91.75 -193.7 99.95 L-201.4 101.85 -229.1 108.35 M-456.25 113.55 Q-492.75 104.5 -514.95 91.0 -524.95 84.25 -525.5 75.7 L-526.55 75.65 M327.55 -22.5 L359.75 -23.95 359.95 -23.95 359.8 -23.5 M327.55 -22.5 L260.4 -19.4 M-82.4 9.55 L-82.4 60.35 M357.8 -11.6 L304.8 -2.95 M-525.5 75.7 Q-526.2 65.3 -513.05 52.2 L-498.6 39.25 M-316.65 -72.7 Q-297.4 -83.35 -276.35 -84.9 L-275.75 -84.95 -270.0 -85.2 -182.9 -87.3 -182.25 -87.35 -182.1 -87.35 -137.1 -88.4 -129.3 -69.2 -91.3 -69.95 -28.95 -34.3 -27.6 -28.6 -26.85 -25.4 M-275.75 -79.65 L-275.75 -79.7 M-180.35 -68.2 L-171.35 -68.35 -129.3 -69.2 M-171.35 -59.55 L-171.35 -59.6 M-208.25 -66.65 L-208.25 -28.2 -207.1 -27.85 -200.6 -25.9 -194.0 -23.8 Q-174.6 -17.35 -157.15 -8.75 L-151.1 -5.7 M-208.25 -67.65 L-208.25 -66.65 M-208.25 -67.65 L-218.65 -67.45 -218.65 -31.0 -208.25 -28.2 M-229.1 -33.4 L-221.0 -31.55 -218.65 -31.0 M-180.35 -68.2 L-208.25 -67.65 M-149.25 -5.3 L-148.6 -4.55" fill="none" stroke="#000000" stroke-linecap="round" stroke-linejoin="round" stroke-width="0.05"/>
    <path d="M-182.1 -87.4 L-182.1 -87.35 -182.05 -85.5" fill="none" stroke="#999999" stroke-linecap="round" stroke-linejoin="round" stroke-width="0.05"/>
    <path d="M-428.1 -23.9 L-427.8 -23.5 Q-410.65 -25.45 -395.85 -20.85 -391.0 -19.35 -386.4 -17.15 L-419.0 49.8 Q-437.4 45.25 -456.25 42.65 -477.15 39.75 -498.6 39.25 L-428.1 -23.9" fill="none" stroke="#1e1e1e" stroke-linecap="round" stroke-linejoin="round" stroke-width="0.05"/>
    <path d="M162.4 -29.1 L162.85 -14.85 M-275.75 -79.65 L-275.75 -41.95 M-182.05 -85.5 L-180.35 -68.2 M-171.35 -31.05 L-171.35 -31.3 -171.35 -46.45 M-98.35 5.45 L-131.55 10.6 -131.55 79.7 M-243.7 10.55 L-157.15 2.1 -157.15 -8.75" fill="none" stroke="#666666" stroke-linecap="round" stroke-linejoin="round" stroke-width="0.05"/>
    <path d="M-171.35 -46.45 L-170.4 -46.2 M-171.35 -46.45 L-177.0 -48.1" fill="none" stroke="url(#gradient28)" stroke-linecap="round" stroke-linejoin="round" stroke-width="0.05"/>
  </g>
  <defs>
    <linearGradient gradientTransform="matrix(0.0272, 0.0123, -0.0235, 0.0522, 376.05, -120.45)" gradientUnits="userSpaceOnUse" id="gradient0" spreadMethod="pad" x1="-819.2" x2="819.2">
      <stop offset="0.21176470588235294" stop-color="#ca4654"/>
      <stop offset="0.34509803921568627" stop-color="#992b36"/>
      <stop offset="0.7294117647058823" stop-color="#992b36"/>
      <stop offset="0.9725490196078431" stop-color="#570f25"/>
    </linearGradient>
    <linearGradient gradientTransform="matrix(0.0287, 0.0143, -0.0236, 0.0472, 351.35, -67.75)" gradientUnits="userSpaceOnUse" id="gradient1" spreadMethod="pad" x1="-819.2" x2="819.2">
      <stop offset="0.21176470588235294" stop-color="#546ccd"/>
      <stop offset="0.34509803921568627" stop-color="#3a449a"/>
      <stop offset="0.7294117647058823" stop-color="#3a449a"/>
      <stop offset="0.9725490196078431" stop-color="#1b2c6d"/>
    </linearGradient>
    <linearGradient gradientTransform="matrix(-0.0034, -0.0133, 0.2799, -0.0726, 144.8, -6.95)" gradientUnits="userSpaceOnUse" id="gradient2" spreadMethod="pad" x1="-819.2" x2="819.2">
      <stop offset="0.5843137254901961" stop-color="#b0b9bd"/>
      <stop offset="0.6901960784313725" stop-color="#6b6b6d"/>
    </linearGradient>
    <linearGradient gradientTransform="matrix(0.0106, 0.0785, -0.286, 0.0384, 155.7, -3.25)" gradientUnits="userSpaceOnUse" id="gradient3" spreadMethod="pad" x1="-819.2" x2="819.2">
      <stop offset="0.5843137254901961" stop-color="#b0b9bd"/>
      <stop offset="0.6901960784313725" stop-color="#6b6b6d"/>
    </linearGradient>
    <linearGradient gradientTransform="matrix(0.0705, -0.0279, 0.0153, 0.0387, 307.3, 28.55)" gradientUnits="userSpaceOnUse" id="gradient4" spreadMethod="pad" x1="-819.2" x2="819.2">
      <stop offset="0.5843137254901961" stop-color="#757977"/>
      <stop offset="0.6901960784313725" stop-color="#999d98"/>
    </linearGradient>
    <radialGradient cx="0" cy="0" fx="25.6" fy="0" gradientTransform="matrix(0.0366, 0.2237, -0.5612, 0.0918, -272.6, -26.35)" gradientUnits="userSpaceOnUse" id="gradient5" r="819.2" spreadMethod="pad">
      <stop offset="0.6196078431372549" stop-color="#b0b9bd"/>
      <stop offset="0.6901960784313725" stop-color="#6b6b6d"/>
    </radialGradient>
    <linearGradient gradientTransform="matrix(0.037, 0.0375, -0.0397, 0.0391, -462.2, 0.65)" gradientUnits="userSpaceOnUse" id="gradient6" spreadMethod="pad" x1="-819.2" x2="819.2">
      <stop offset="0.5843137254901961" stop-color="#fcfcfc"/>
      <stop offset="0.6901960784313725" stop-color="#4d4d4d"/>
    </linearGradient>
    <linearGradient gradientTransform="matrix(0.0044, 0.0457, -0.0784, 0.0075, -224.4, -19.6)" gradientUnits="userSpaceOnUse" id="gradient7" spreadMethod="pad" x1="-819.2" x2="819.2">
      <stop offset="0.5843137254901961" stop-color="#d6d7da"/>
      <stop offset="0.6901960784313725" stop-color="#b0b9bd"/>
    </linearGradient>
    <linearGradient gradientTransform="matrix(-0.0061, 0.0574, -0.0358, -0.0038, -183.5, -63.9)" gradientUnits="userSpaceOnUse" id="gradient8" spreadMethod="pad" x1="-819.2" x2="819.2">
      <stop offset="0.5843137254901961" stop-color="#d5d9dc"/>
      <stop offset="0.6901960784313725" stop-color="#a3a6a5"/>
    </linearGradient>
    <linearGradient gradientTransform="matrix(0.0018, 0.0364, -0.0538, 0.0027, -140.7, -56.9)" gradientUnits="userSpaceOnUse" id="gradient9" spreadMethod="pad" x1="-819.2" x2="819.2">
      <stop offset="0.5843137254901961" stop-color="#a0aab6"/>
      <stop offset="0.6901960784313725" stop-color="#8d8e86"/>
    </linearGradient>
    <radialGradient cx="0" cy="0" gradientTransform="matrix(0.3681, 0.0, 0.0, 0.3681, -225.3, 47.5)" gradientUnits="userSpaceOnUse" id="gradient10" r="819.2" spreadMethod="pad">
      <stop offset="0.49411764705882355" stop-color="#b0b9bd"/>
      <stop offset="0.803921568627451" stop-color="#6b6b6d"/>
    </radialGradient>
    <linearGradient gradientTransform="matrix(-0.0227, 0.0425, -0.0849, -0.0452, -52.55, -37.9)" gradientUnits="userSpaceOnUse" id="gradient11" spreadMethod="pad" x1="-819.2" x2="819.2">
      <stop offset="0.5843137254901961" stop-color="#a0aab6"/>
      <stop offset="0.6901960784313725" stop-color="#8d8e86"/>
    </linearGradient>
    <linearGradient gradientTransform="matrix(0.0237, 0.0642, -0.0405, 0.015, -108.8, 39.95)" gradientUnits="userSpaceOnUse" id="gradient12" spreadMethod="pad" x1="-819.2" x2="819.2">
      <stop offset="0.5843137254901961" stop-color="#b0b9bd"/>
      <stop offset="0.6901960784313725" stop-color="#6b6b6d"/>
    </linearGradient>
    <linearGradient gradientTransform="matrix(0.0301, 0.0, 0.0, 0.0456, -106.9, 42.8)" gradientUnits="userSpaceOnUse" id="gradient13" spreadMethod="pad" x1="-819.2" x2="819.2">
      <stop offset="0.6196078431372549" stop-color="#b0b9bd"/>
      <stop offset="0.6901960784313725" stop-color="#6b6b6d"/>
    </linearGradient>
    <radialGradient cx="0" cy="0" gradientTransform="matrix(0.0042, 0.0, 0.0, 0.0042, -173.7, -47.15)" gradientUnits="userSpaceOnUse" id="gradient14" r="819.2" spreadMethod="pad">
      <stop offset="0.49411764705882355" stop-color="#b0b9bd"/>
      <stop offset="0.803921568627451" stop-color="#6b6b6d"/>
    </radialGradient>
    <linearGradient gradientTransform="matrix(0.0287, 0.0143, -0.0236, 0.0472, 351.35, -67.75)" gradientUnits="userSpaceOnUse" id="gradient15" spreadMethod="pad" x1="-819.2" x2="819.2">
      <stop offset="0.21176470588235294" stop-color="#546ccd"/>
      <stop offset="0.34509803921568627" stop-color="#3a449a"/>
      <stop offset="0.7294117647058823" stop-color="#3a449a"/>
      <stop offset="0.9725490196078431" stop-color="#1b2c6d"/>
    </linearGradient>
    <linearGradient gradientTransform="matrix(-0.0034, -0.0133, 0.2799, -0.0726, 144.8, -6.95)" gradientUnits="userSpaceOnUse" id="gradient16" spreadMethod="pad" x1="-819.2" x2="819.2">
      <stop offset="0.5843137254901961" stop-color="#b0b9bd"/>
      <stop offset="0.6901960784313725" stop-color="#6b6b6d"/>
    </linearGradient>
    <linearGradient gradientTransform="matrix(0.0044, 0.0457, -0.0784, 0.0075, -224.4, -19.6)" gradientUnits="userSpaceOnUse" id="gradient17" spreadMethod="pad" x1="-819.2" x2="819.2">
      <stop offset="0.5843137254901961" stop-color="#d6d7da"/>
      <stop offset="0.6901960784313725" stop-color="#b0b9bd"/>
    </linearGradient>
    <linearGradient gradientTransform="matrix(-0.0061, 0.0574, -0.0358, -0.0038, -183.5, -63.9)" gradientUnits="userSpaceOnUse" id="gradient18" spreadMethod="pad" x1="-819.2" x2="819.2">
      <stop offset="0.5843137254901961" stop-color="#d5d9dc"/>
      <stop offset="0.6901960784313725" stop-color="#a3a6a5"/>
    </linearGradient>
    <linearGradient gradientTransform="matrix(0.0018, 0.0364, -0.0538, 0.0027, -140.7, -56.9)" gradientUnits="userSpaceOnUse" id="gradient19" spreadMethod="pad" x1="-819.2" x2="819.2">
      <stop offset="0.5843137254901961" stop-color="#a0aab6"/>
      <stop offset="0.6901960784313725" stop-color="#8d8e86"/>
    </linearGradient>
    <radialGradient cx="0" cy="0" gradientTransform="matrix(0.3681, 0.0, 0.0, 0.3681, -225.3, 47.5)" gradientUnits="userSpaceOnUse" id="gradient20" r="819.2" spreadMethod="pad">
      <stop offset="0.49411764705882355" stop-color="#b0b9bd"/>
      <stop offset="0.803921568627451" stop-color="#6b6b6d"/>
    </radialGradient>
    <linearGradient gradientTransform="matrix(0.0301, 0.0, 0.0, 0.0456, -106.9, 42.8)" gradientUnits="userSpaceOnUse" id="gradient21" spreadMethod="pad" x1="-819.2" x2="819.2">
      <stop offset="0.6196078431372549" stop-color="#b0b9bd"/>
      <stop offset="0.6901960784313725" stop-color="#6b6b6d"/>
    </linearGradient>
    <linearGradient gradientTransform="matrix(0.037, 0.0375, -0.0397, 0.0391, -462.2, 0.65)" gradientUnits="userSpaceOnUse" id="gradient22" spreadMethod="pad" x1="-819.2" x2="819.2">
      <stop offset="0.5843137254901961" stop-color="#fcfcfc"/>
      <stop offset="0.6901960784313725" stop-color="#373737"/>
    </linearGradient>
    <linearGradient gradientTransform="matrix(0.0106, 0.0785, -0.286, 0.0384, 155.7, -3.25)" gradientUnits="userSpaceOnUse" id="gradient23" spreadMethod="pad" x1="-819.2" x2="819.2">
      <stop offset="0.5843137254901961" stop-color="#b0b9bd"/>
      <stop offset="0.6901960784313725" stop-color="#959595"/>
    </linearGradient>
    <radialGradient cx="0" cy="0" fx="25.6" fy="0" gradientTransform="matrix(0.0366, 0.2237, -0.5612, 0.0918, -272.6, -26.35)" gradientUnits="userSpaceOnUse" id="gradient24" r="819.2" spreadMethod="pad">
      <stop offset="0.6196078431372549" stop-color="#b0b9bd"/>
      <stop offset="0.6901960784313725" stop-color="#999999"/>
    </radialGradient>
    <linearGradient gradientTransform="matrix(-0.0227, 0.0425, -0.0849, -0.0452, -52.55, -37.9)" gradientUnits="userSpaceOnUse" id="gradient25" spreadMethod="pad" x1="-819.2" x2="819.2">
      <stop offset="0.5843137254901961" stop-color="#a0aab6"/>
      <stop offset="0.6901960784313725" stop-color="#a0a09a"/>
    </linearGradient>
    <linearGradient gradientTransform="matrix(0.0705, -0.0279, 0.0153, 0.0387, 307.3, 28.55)" gradientUnits="userSpaceOnUse" id="gradient26" spreadMethod="pad" x1="-819.2" x2="819.2">
      <stop offset="0.5843137254901961" stop-color="#868a86"/>
      <stop offset="0.6901960784313725" stop-color="#b3b3b3"/>
    </linearGradient>
    <linearGradient gradientTransform="matrix(0.0272, 0.0123, -0.0235, 0.0522, 376.05, -120.45)" gradientUnits="userSpaceOnUse" id="gradient27" spreadMethod="pad" x1="-819.2" x2="819.2">
      <stop offset="0.21176470588235294" stop-color="#d36773"/>
      <stop offset="0.34509803921568627" stop-color="#b43240"/>
      <stop offset="0.7294117647058823" stop-color="#b43240"/>
      <stop offset="0.9725490196078431" stop-color="#821737"/>
    </linearGradient>
    <radialGradient cx="0" cy="0" gradientTransform="matrix(0.0042, 0.0, 0.0, 0.0042, -173.7, -47.15)" gradientUnits="userSpaceOnUse" id="gradient28" r="819.2" spreadMethod="pad">
      <stop offset="0.49411764705882355" stop-color="#b0b9bd"/>
      <stop offset="0.803921568627451" stop-color="#6b6b6d"/>
    </radialGradient>
  </defs>
</svg>
