<?xml version="1.0" encoding="UTF-8" standalone="no"?>
<svg xmlns:ffdec="https://www.free-decompiler.com/flash" xmlns:xlink="http://www.w3.org/1999/xlink" ffdec:objectType="shape" height="24.85px" width="69.85px" xmlns="http://www.w3.org/2000/svg">
  <g transform="matrix(1.0, 0.0, 0.0, 1.0, 116.0, 33.4)">
    <path d="M-92.0 -31.65 L-87.85 -31.8 Q-85.7 -31.9 -84.55 -30.35 -83.4 -28.85 -83.6 -26.1 L-83.8 -23.35 -95.2 -16.4 -95.25 -15.75 -95.0 -14.2 Q-94.65 -13.75 -93.8 -13.75 L-84.3 -14.15 -84.65 -9.8 -94.3 -9.4 Q-96.4 -9.35 -97.65 -10.95 -98.9 -12.55 -98.7 -15.2 L-97.95 -24.8 Q-97.45 -31.4 -92.0 -31.65 M-87.05 -26.0 Q-86.95 -27.45 -88.3 -27.4 L-92.85 -27.2 Q-94.4 -27.15 -94.55 -24.85 L-94.85 -20.95 -87.05 -25.95 -87.05 -26.0 M-109.65 -26.5 Q-110.6 -26.5 -110.9 -26.1 -111.3 -25.7 -111.4 -24.55 L-112.6 -8.7 -116.0 -8.55 -114.75 -24.85 Q-114.3 -30.75 -109.3 -30.95 L-104.95 -31.15 Q-99.9 -31.35 -100.35 -25.45 L-101.6 -9.15 -105.05 -9.0 -103.75 -25.75 Q-103.85 -26.75 -105.25 -26.7 L-109.65 -26.5 M-56.0 -25.0 Q-55.7 -24.6 -55.2 -24.65 L-51.05 -24.8 -50.25 -24.7 Q-48.75 -24.4 -47.9 -22.95 -47.05 -21.6 -47.2 -19.65 L-47.45 -16.3 Q-47.65 -13.9 -49.3 -12.15 -50.7 -11.1 -51.7 -11.05 L-60.85 -10.7 -60.5 -15.05 -51.75 -15.4 -51.3 -15.7 Q-50.85 -16.15 -50.8 -17.2 L-50.65 -18.85 Q-50.55 -20.45 -51.85 -20.4 L-55.65 -20.25 Q-58.55 -20.1 -59.45 -22.55 -59.85 -23.6 -59.75 -24.85 L-59.55 -27.6 Q-59.35 -30.05 -58.2 -31.5 -57.05 -33.0 -55.15 -33.05 L-46.15 -33.4 -46.5 -29.0 -55.25 -28.65 Q-56.1 -28.65 -56.2 -27.5 L-56.3 -25.95 Q-56.35 -25.35 -56.0 -25.0 M-68.8 -30.4 L-67.1 -15.6 -62.9 -32.75 -59.55 -32.9 -64.85 -12.25 Q-65.45 -10.2 -67.45 -10.1 -69.55 -10.05 -69.85 -13.15 L-71.45 -27.25 -75.35 -12.45 Q-75.85 -10.55 -76.95 -10.05 -77.7 -9.7 -78.2 -9.7 -80.25 -9.6 -80.5 -11.85 L-82.6 -32.0 -79.3 -32.15 -77.65 -15.25 -73.6 -30.65 Q-73.0 -32.8 -71.1 -32.85 -70.3 -32.9 -69.6 -32.3 -68.9 -31.8 -68.8 -30.4" fill="#ffffff" fill-rule="evenodd" stroke="none"/>
  </g>
</svg>
