<?xml version="1.0" encoding="UTF-8" standalone="no"?>
<svg xmlns:ffdec="https://www.free-decompiler.com/flash" xmlns:xlink="http://www.w3.org/1999/xlink" ffdec:objectType="shape" height="21.95px" width="87.85px" xmlns="http://www.w3.org/2000/svg">
  <g transform="matrix(1.0, 0.0, 0.0, 1.0, 42.05, 10.7)">
    <path d="M39.65 -10.7 L45.8 -10.7 37.4 2.7 37.4 11.25 32.1 11.25 32.1 2.7 23.75 -10.7 29.85 -10.7 34.6 -2.45 39.65 -10.7 M21.7 -10.7 L13.95 0.05 22.15 11.25 15.75 11.25 10.9 4.5 6.4 11.25 0.0 11.25 8.2 0.0 0.45 -10.7 6.8 -10.7 10.95 -4.55 15.35 -10.7 21.7 -10.7 M-36.45 -10.7 L-25.9 -10.7 -25.9 -6.0 -34.9 -6.0 Q-36.5 -6.0 -36.7 -4.9 L-36.75 -4.65 -36.75 -2.15 -25.9 -2.15 -25.9 2.6 -36.75 2.6 -36.75 11.25 -42.05 11.25 -42.05 -6.25 Q-42.05 -9.65 -39.25 -10.5 L-36.45 -10.7 M-20.85 -7.15 Q-20.4 -9.1 -19.0 -9.95 -17.75 -10.7 -15.4 -10.7 L-9.1 -10.7 Q-3.5 -10.7 -3.5 -6.0 L-3.5 6.5 Q-3.5 11.25 -9.15 11.25 L-15.4 11.25 Q-17.85 11.25 -19.05 10.55 -20.4 9.65 -20.85 7.65 L-21.0 6.5 -21.0 -6.0 -20.85 -7.15 M-15.65 -4.45 L-15.65 5.0 Q-15.65 6.5 -13.9 6.5 L-10.65 6.5 -9.25 6.25 Q-8.85 6.0 -8.85 5.15 L-8.85 -4.45 Q-8.85 -5.3 -9.25 -5.65 L-10.65 -5.95 -13.95 -5.95 -15.3 -5.65 Q-15.65 -5.35 -15.65 -4.45" fill="#ffffff" fill-rule="evenodd" stroke="none"/>
  </g>
</svg>
