<?xml version="1.0" encoding="UTF-8" standalone="no"?>
<svg xmlns:ffdec="https://www.free-decompiler.com/flash" xmlns:xlink="http://www.w3.org/1999/xlink" ffdec:objectType="shape" height="137.4px" width="156.45px" xmlns="http://www.w3.org/2000/svg">
  <g transform="matrix(1.0, 0.0, 0.0, 1.0, 238.7, 59.0)">
    <path d="M-137.2 -28.7 L-137.2 -28.6 -189.15 -27.3 -188.2 -55.65 -117.4 -57.65 Q-135.4 -53.75 -138.05 -35.65 L-138.45 -32.1 -138.5 -28.6 -137.2 -28.7" fill="#3a449a" fill-rule="evenodd" stroke="none"/>
    <path d="M-180.35 67.8 L-238.7 78.4 -237.1 44.6 -155.75 30.7 Q-176.3 38.55 -179.7 59.65 -180.3 63.5 -180.35 67.8 M-221.0 54.35 L-220.7 50.65 -227.15 51.7 Q-228.35 51.9 -228.85 52.2 -230.6 53.15 -230.8 55.8 L-231.85 69.5 -228.65 68.95 -228.15 62.15 -221.5 61.05 -221.2 57.35 -227.85 58.45 -227.7 56.5 -227.65 56.3 Q-227.5 55.4 -226.5 55.25 L-221.0 54.35 M-208.1 61.85 L-207.4 52.05 Q-207.1 48.35 -210.5 48.9 L-214.35 49.55 Q-215.75 49.8 -216.6 50.55 -217.45 51.35 -217.85 52.9 L-218.05 53.85 -218.75 63.65 -218.75 64.5 Q-218.6 66.0 -217.8 66.6 L-215.65 66.75 -211.85 66.1 Q-208.4 65.55 -208.1 61.85 M-211.75 52.85 L-210.9 52.95 Q-210.65 53.15 -210.7 53.8 L-211.3 61.35 -211.6 62.25 Q-211.85 62.5 -212.45 62.6 L-214.4 62.9 Q-215.5 63.1 -215.45 61.9 L-214.85 54.5 -214.6 53.5 Q-214.35 53.25 -213.75 53.15 L-211.75 52.85 M-177.15 43.35 L-180.85 43.95 -184.45 50.95 -186.85 44.95 -190.55 45.6 -186.25 55.25 -186.75 61.95 -183.55 61.4 -183.05 54.7 -177.15 43.35 M-191.75 45.8 L-195.6 46.45 -198.65 51.75 -200.8 47.3 -204.65 47.95 -200.6 55.55 -206.25 65.2 -202.35 64.55 -199.2 58.85 -196.65 63.6 -192.8 62.95 -197.1 55.0 -191.75 45.8" fill="#313982" fill-rule="evenodd" stroke="none"/>
    <path d="M-117.4 -57.65 L-117.25 -57.7 -82.55 -59.0 -82.25 -31.4 -137.2 -28.7 -138.5 -28.6 -138.45 -32.1 -138.05 -35.65 Q-135.4 -53.75 -117.4 -57.65" fill="#b43240" fill-rule="evenodd" stroke="none"/>
    <path d="M-115.75 34.95 L-115.45 31.5 -122.2 32.8 Q-123.6 33.05 -124.45 34.35 -125.35 35.55 -125.5 37.5 L-125.65 39.65 Q-125.7 40.6 -125.4 41.4 -124.75 43.15 -122.6 42.75 L-119.75 42.2 Q-118.8 42.0 -118.85 43.25 L-118.95 44.55 Q-119.0 45.35 -119.35 45.75 -119.5 46.0 -119.7 46.05 L-126.2 47.3 -126.5 50.7 -119.65 49.4 -117.85 48.3 Q-116.65 46.75 -116.45 44.85 L-116.3 42.25 Q-116.2 40.7 -116.8 39.75 -117.45 38.75 -118.55 38.7 L-119.15 38.7 -122.25 39.3 -122.85 39.1 -123.05 38.4 -123.0 37.2 Q-122.9 36.25 -122.25 36.2 L-115.75 34.95 M-155.75 30.7 L-154.05 30.05 -111.9 22.75 -112.05 55.5 -177.15 67.5 -177.2 67.5 -180.35 68.05 -180.35 67.8 Q-180.3 63.5 -179.7 59.65 -176.3 38.55 -155.75 30.7 M-125.45 33.4 L-127.95 33.9 -131.15 47.6 -132.4 36.35 Q-132.45 35.3 -132.95 35.0 -133.5 34.6 -134.1 34.75 -135.5 34.95 -135.95 36.7 L-139.0 49.05 -140.2 36.2 -142.7 36.7 -141.15 52.0 Q-140.95 53.7 -139.45 53.4 L-138.5 53.0 Q-137.7 52.5 -137.3 51.0 L-134.35 39.1 -133.2 49.8 Q-133.0 52.15 -131.4 51.9 -129.95 51.6 -129.45 49.95 L-125.45 33.4 M-144.15 38.2 Q-145.0 37.1 -146.6 37.45 L-149.7 38.0 Q-153.75 38.8 -154.15 44.0 L-154.7 51.5 Q-154.9 53.55 -153.95 54.65 -153.0 55.7 -151.45 55.45 L-144.25 54.05 -144.0 50.65 -151.05 52.05 Q-151.7 52.15 -151.95 51.85 L-152.15 50.65 -152.1 50.15 -143.6 43.5 -143.45 41.35 Q-143.3 39.2 -144.15 38.2 M-146.0 41.85 L-151.85 46.6 -151.6 43.55 Q-151.5 41.75 -150.35 41.55 L-146.95 40.9 Q-145.95 40.7 -146.0 41.85 M-159.6 43.35 Q-158.55 43.1 -158.45 43.9 L-159.45 57.0 -156.9 56.5 -155.95 43.75 Q-155.6 39.1 -159.35 39.85 L-162.6 40.5 Q-166.35 41.2 -166.7 45.85 L-167.65 58.55 -165.1 58.05 -164.2 45.7 Q-164.1 44.8 -163.8 44.45 -163.6 44.1 -162.85 44.0 L-159.6 43.35" fill="#ab323f" fill-rule="evenodd" stroke="none"/>
    <path d="M-115.75 34.95 L-122.25 36.2 Q-122.9 36.25 -123.0 37.2 L-123.05 38.4 -122.85 39.1 -122.25 39.3 -119.15 38.7 -118.55 38.7 Q-117.45 38.75 -116.8 39.75 -116.2 40.7 -116.3 42.25 L-116.45 44.85 Q-116.65 46.75 -117.85 48.3 L-119.65 49.4 -126.5 50.7 -126.2 47.3 -119.7 46.05 Q-119.5 46.0 -119.35 45.75 -119.0 45.35 -118.95 44.55 L-118.85 43.25 Q-118.8 42.0 -119.75 42.2 L-122.6 42.75 Q-124.75 43.15 -125.4 41.4 -125.7 40.6 -125.65 39.65 L-125.5 37.5 Q-125.35 35.55 -124.45 34.35 -123.6 33.05 -122.2 32.8 L-115.45 31.5 -115.75 34.95 M-159.6 43.35 L-162.85 44.0 Q-163.6 44.1 -163.8 44.45 -164.1 44.8 -164.2 45.7 L-165.1 58.05 -167.65 58.55 -166.7 45.85 Q-166.35 41.2 -162.6 40.5 L-159.35 39.85 Q-155.6 39.1 -155.95 43.75 L-156.9 56.5 -159.45 57.0 -158.45 43.9 Q-158.55 43.1 -159.6 43.35 M-146.0 41.85 Q-145.95 40.7 -146.95 40.9 L-150.35 41.55 Q-151.5 41.75 -151.6 43.55 L-151.85 46.6 -146.0 41.85 M-144.15 38.2 Q-143.3 39.2 -143.45 41.35 L-143.6 43.5 -152.1 50.15 -152.15 50.65 -151.95 51.85 Q-151.7 52.15 -151.05 52.05 L-144.0 50.65 -144.25 54.05 -151.45 55.45 Q-153.0 55.7 -153.95 54.65 -154.9 53.55 -154.7 51.5 L-154.15 44.0 Q-153.75 38.8 -149.7 38.0 L-146.6 37.45 Q-145.0 37.1 -144.15 38.2 M-125.45 33.4 L-129.45 49.95 Q-129.95 51.6 -131.4 51.9 -133.0 52.15 -133.2 49.8 L-134.35 39.1 -137.3 51.0 Q-137.7 52.5 -138.5 53.0 L-139.45 53.4 Q-140.95 53.7 -141.15 52.0 L-142.7 36.7 -140.2 36.2 -139.0 49.05 -135.95 36.7 Q-135.5 34.95 -134.1 34.75 -133.5 34.6 -132.95 35.0 -132.45 35.3 -132.4 36.35 L-131.15 47.6 -127.95 33.9 -125.45 33.4 M-191.75 45.8 L-197.1 55.0 -192.8 62.95 -196.65 63.6 -199.2 58.85 -202.35 64.55 -206.25 65.2 -200.6 55.55 -204.65 47.95 -200.8 47.3 -198.65 51.75 -195.6 46.45 -191.75 45.8 M-177.15 43.35 L-183.05 54.7 -183.55 61.4 -186.75 61.95 -186.25 55.25 -190.55 45.6 -186.85 44.95 -184.45 50.95 -180.85 43.95 -177.15 43.35 M-211.75 52.85 L-213.75 53.15 Q-214.35 53.25 -214.6 53.5 L-214.85 54.5 -215.45 61.9 Q-215.5 63.1 -214.4 62.9 L-212.45 62.6 Q-211.85 62.5 -211.6 62.25 L-211.3 61.35 -210.7 53.8 Q-210.65 53.15 -210.9 52.95 L-211.75 52.85 M-208.1 61.85 Q-208.4 65.55 -211.85 66.1 L-215.65 66.75 -217.8 66.6 Q-218.6 66.0 -218.75 64.5 L-218.75 63.65 -218.05 53.85 -217.85 52.9 Q-217.45 51.35 -216.6 50.55 -215.75 49.8 -214.35 49.55 L-210.5 48.9 Q-207.1 48.35 -207.4 52.05 L-208.1 61.85 M-221.0 54.35 L-226.5 55.25 Q-227.5 55.4 -227.65 56.3 L-227.7 56.5 -227.85 58.45 -221.2 57.35 -221.5 61.05 -228.15 62.15 -228.65 68.95 -231.85 69.5 -230.8 55.8 Q-230.6 53.15 -228.85 52.2 -228.35 51.9 -227.15 51.7 L-220.7 50.65 -221.0 54.35" fill="#ffffff" fill-rule="evenodd" stroke="none"/>
  </g>
</svg>
