<?xml version="1.0" encoding="UTF-8" standalone="no"?>
<svg xmlns:ffdec="https://www.free-decompiler.com/flash" xmlns:xlink="http://www.w3.org/1999/xlink" ffdec:objectType="shape" height="149.5px" width="99.3px" xmlns="http://www.w3.org/2000/svg">
  <g transform="matrix(1.0, 0.0, 0.0, 1.0, 49.65, 74.3)">
    <path d="M18.25 31.5 L18.2 31.6 17.9 32.55 17.65 33.3 17.05 32.3 17.0 32.25 18.25 31.5 M17.1 32.25 L18.2 31.6 17.0 32.25 17.1 32.25" fill="#365251" fill-rule="evenodd" stroke="none"/>
    <path d="M17.1 32.25 L17.0 32.25 18.2 31.6 17.1 32.25" fill="#4d4d4d" fill-rule="evenodd" stroke="none"/>
    <path d="M-16.9 69.8 L-16.9 69.75 -16.8 69.75 -16.9 69.8" fill="#999966" fill-rule="evenodd" stroke="none"/>
    <path d="M-16.9 69.75 L-19.05 69.35 Q-23.45 68.55 -29.85 66.25 -36.25 63.95 -42.05 60.75 -47.9 57.55 -48.2 56.5 L-48.7 55.05 Q-48.9 54.65 -48.7 54.05 -47.85 53.5 -46.5 53.4 -40.25 52.8 -23.85 61.05 -20.35 63.25 -15.1 64.6 L-15.6 65.5 Q-16.9 67.75 -16.9 69.35 L-16.9 69.55 -16.9 69.75 M-32.4 49.1 L-31.95 48.95 Q-30.2 48.4 -28.8 47.4 L-28.35 46.4 -27.8 45.4 Q-26.9 44.05 -24.0 44.55 L-24.0 44.45 Q-19.5 44.4 -19.5 46.35 -19.5 47.55 -19.9 48.5 L-19.8 49.05 Q-19.8 50.9 -22.65 50.9 L-22.7 50.9 Q-24.5 51.6 -27.3 51.65 -28.85 52.5 -29.85 52.5 L-30.8 52.15 -32.15 52.35 Q-34.05 52.35 -34.05 50.7 -34.05 49.45 -32.85 49.2 L-32.4 49.1 M-23.9 49.0 L-31.95 48.95 -23.9 49.0 M-22.0 46.2 L-28.35 46.4 -22.0 46.2 M-4.55 51.25 Q-3.1 48.2 -1.8 48.2 3.5 48.2 4.95 49.75 5.4 50.25 5.4 51.75 5.4 53.55 3.15 53.55 L-3.45 52.95 Q-4.55 52.5 -4.55 51.25 M-5.1 58.7 L-5.25 58.8 -5.6 58.8 Q-7.0 58.65 -6.95 57.2 -6.95 55.4 -5.5 54.8 L-3.75 54.5 Q1.85 54.5 3.45 55.7 L4.3 56.0 Q4.05 56.3 4.05 56.85 4.05 58.5 2.25 58.5 L-3.45 57.95 Q-4.1 57.95 -5.1 58.7 M-5.4 59.7 Q-2.25 59.7 -2.25 61.55 -2.25 63.15 -3.9 63.15 L-7.05 63.6 Q-10.3 63.6 -9.95 61.7 -9.95 59.7 -5.4 59.7 M4.3 56.0 Q-3.45 54.1 -5.5 54.8 -3.45 54.1 4.3 56.0" fill="#808055" fill-rule="evenodd" stroke="none"/>
    <path d="M17.0 32.25 L16.3 31.0 18.25 31.5 17.0 32.25" fill="#527a76" fill-rule="evenodd" stroke="none"/>
    <path d="M-6.1 -29.55 Q1.35 -27.55 3.9 -27.25 5.1 -27.1 10.35 -27.1 15.15 -27.1 20.25 -28.6 25.35 -30.2 30.15 -31.05 34.8 -31.85 42.95 -30.8 L43.4 -30.75 43.75 -30.4 44.1 -30.1 44.15 -30.05 Q46.8 -27.5 47.95 -23.85 49.3 -19.7 48.5 -13.6 47.7 -7.5 42.5 -3.7 37.65 -0.1 23.25 0.8 L21.7 16.35 Q20.35 24.95 18.25 31.5 L16.3 31.0 17.0 32.25 17.05 32.3 17.65 33.3 19.15 35.8 Q19.75 36.7 18.6 42.65 L16.65 49.7 13.6 49.75 13.35 49.75 13.35 49.55 13.7 49.2 13.25 49.25 10.15 49.55 9.85 49.55 -2.0 47.25 -3.95 46.85 -4.05 46.95 -6.7 46.5 -6.45 44.1 -6.45 34.0 Q-6.25 30.65 -4.85 28.65 -3.35 25.1 -2.05 17.85 -1.1 12.25 -1.1 3.05 -6.6 4.65 -10.9 5.35 L-16.95 6.4 -17.05 6.45 Q-15.35 11.2 -14.7 17.45 -14.25 22.15 -14.3 30.05 -13.75 34.95 -12.45 36.95 -11.15 39.0 -10.75 41.85 -10.55 43.6 -8.9 48.1 -15.95 41.05 -28.75 44.35 L-30.05 44.5 -30.25 44.6 -30.5 44.75 -30.95 44.85 -30.55 44.8 -28.75 44.35 Q-28.75 45.3 -29.55 46.1 -30.55 47.1 -32.7 47.9 L-32.85 47.5 -33.45 45.45 -36.5 34.6 Q-39.85 22.6 -40.1 18.3 -40.35 12.5 -41.8 3.9 L-42.9 -4.1 -43.1 -8.35 -42.9 -10.3 Q-42.0 -13.85 -37.7 -15.95 -36.6 -16.55 -32.5 -18.05 -29.0 -19.45 -27.0 -20.6 -23.7 -22.5 -6.9 -29.75 L-6.85 -29.75 -6.6 -29.7 -6.45 -29.65 -6.1 -29.55 M29.4 -26.7 Q13.45 -20.55 5.95 -18.5 -1.55 -16.45 -1.15 -2.9 L-1.1 3.05 -1.15 -2.9 Q-1.55 -16.45 5.95 -18.5 13.45 -20.55 29.4 -26.7 M-21.75 -1.8 Q-18.85 1.55 -17.1 6.4 L-17.05 6.45 -17.1 6.4 Q-18.85 1.55 -21.75 -1.8 M16.3 27.9 L16.3 31.0 16.3 27.9" fill="#588580" fill-rule="evenodd" stroke="none"/>
    <path d="M13.35 49.75 L13.4 49.95 13.45 50.35 14.15 54.15 Q14.95 57.9 14.95 61.95 14.95 66.0 1.2 73.1 -14.45 75.6 -16.5 73.1 -16.85 72.05 -16.9 69.8 L-16.85 69.8 -16.8 69.75 -16.9 69.75 -16.9 69.55 -16.9 69.35 Q-16.9 67.75 -15.6 65.5 L-15.1 64.6 -14.9 64.25 -14.65 63.85 -11.45 59.7 -10.0 57.95 Q-8.1 55.55 -6.8 53.35 L-6.7 53.15 -5.3 50.2 -5.25 50.25 -5.25 50.2 -4.3 47.2 -4.05 46.95 -3.95 46.85 -2.0 47.25 9.85 49.55 10.15 49.55 13.25 49.25 13.7 49.2 13.35 49.55 13.35 49.75 M-4.55 51.25 Q-4.55 52.5 -3.45 52.95 L3.15 53.55 Q5.4 53.55 5.4 51.75 5.4 50.25 4.95 49.75 3.5 48.2 -1.8 48.2 -3.1 48.2 -4.55 51.25 M-8.25 59.35 L-5.6 58.8 -8.25 59.35 M-5.1 58.7 Q-4.1 57.95 -3.45 57.95 L2.25 58.5 Q4.05 58.5 4.05 56.85 4.05 56.3 4.3 56.0 L3.45 55.7 Q1.85 54.5 -3.75 54.5 L-5.5 54.8 Q-6.95 55.4 -6.95 57.2 -7.0 58.65 -5.6 58.8 L-5.25 58.8 -5.1 58.7 -3.15 58.6 Q-1.5 58.55 2.3 60.0 -1.5 58.55 -3.15 58.6 L-5.1 58.7 M-5.4 59.7 Q-9.95 59.7 -9.95 61.7 -10.3 63.6 -7.05 63.6 L-3.9 63.15 Q-2.25 63.15 -2.25 61.55 -2.25 59.7 -5.4 59.7" fill="#aaaa80" fill-rule="evenodd" stroke="none"/>
    <path d="M-48.7 54.05 Q-48.1 52.25 -46.6 50.7 -44.6 48.55 -38.7 48.85 -37.05 49.35 -32.9 47.95 L-32.7 47.9 Q-30.55 47.1 -29.55 46.1 L-28.35 46.4 -29.55 46.1 Q-28.75 45.3 -28.75 44.35 -15.95 41.05 -8.9 48.1 L-7.95 50.6 -6.8 53.35 Q-8.1 55.55 -10.0 57.95 L-11.45 59.7 -14.65 63.85 -14.9 64.25 -15.1 64.6 Q-20.35 63.25 -23.85 61.05 -40.25 52.8 -46.5 53.4 -47.85 53.5 -48.7 54.05 M-31.95 48.95 L-32.4 49.1 -32.85 49.2 Q-34.05 49.45 -34.05 50.7 -34.05 52.35 -32.15 52.35 L-30.8 52.15 -29.85 52.5 Q-28.85 52.5 -27.3 51.65 -24.5 51.6 -22.7 50.9 L-22.65 50.9 Q-19.8 50.9 -19.8 49.05 L-19.9 48.5 Q-19.5 47.55 -19.5 46.35 -19.5 44.4 -24.0 44.45 L-24.0 44.55 Q-26.9 44.05 -27.8 45.4 L-28.35 46.4 -28.8 47.4 Q-30.2 48.4 -31.95 48.95" fill="#adad85" fill-rule="evenodd" stroke="none"/>
    <path d="M42.95 -30.8 Q34.8 -31.85 30.15 -31.05 25.35 -30.2 20.25 -28.6 15.15 -27.1 10.35 -27.1 5.1 -27.1 3.9 -27.25 1.35 -27.55 -6.1 -29.55 L-6.05 -29.95 -6.6 -31.8 -6.45 -29.65 -6.6 -29.7 -6.85 -29.75 -6.9 -29.75 Q-12.5 -47.45 -11.0 -57.1 -8.8 -71.3 8.7 -68.15 28.15 -87.45 40.15 -46.3 42.05 -39.8 43.75 -31.8 L44.15 -31.8 44.3 -31.0 43.4 -30.75 42.95 -31.05 42.95 -30.8 M-6.85 -29.75 L-6.45 -29.75 -6.55 -29.9 -6.85 -29.75" fill="#0263c1" fill-rule="evenodd" stroke="none"/>
    <path d="M40.15 -46.3 Q28.15 -87.45 8.7 -68.15 -8.8 -71.3 -11.0 -57.1" fill="none" stroke="#000000" stroke-linecap="round" stroke-linejoin="round" stroke-width="0.05"/>
    <path d="M-6.1 -29.55 Q1.35 -27.55 3.9 -27.25 5.1 -27.1 10.35 -27.1 15.15 -27.1 20.25 -28.6 25.35 -30.2 30.15 -31.05 34.8 -31.85 42.95 -30.8 L42.95 -31.05 43.4 -30.75 44.3 -31.0 44.15 -31.8 M-6.9 -29.75 L-6.85 -29.75 -6.55 -29.9 -6.45 -29.75 -6.85 -29.75 -6.6 -29.7 -6.45 -29.65 -6.1 -29.55 -6.05 -29.95 -6.6 -31.8 M-1.1 3.05 L-1.15 -2.9 Q-1.55 -16.45 5.95 -18.5 13.45 -20.55 29.4 -26.7 M44.3 -31.0 L44.35 -30.95 44.15 -30.05 Q46.8 -27.5 47.95 -23.85 49.3 -19.7 48.5 -13.6 47.7 -7.5 42.5 -3.7 37.65 -0.1 23.25 0.8 L21.7 16.35 Q20.35 24.95 18.25 31.5 L18.2 31.6 17.9 32.55 17.65 33.3 19.15 35.8 Q19.75 36.7 18.6 42.65 L16.65 49.7 13.6 49.75 13.35 49.75 13.4 49.95 13.45 50.35 14.15 54.15 Q14.95 57.9 14.95 61.95 14.95 66.0 1.2 73.1 -14.45 75.6 -16.5 73.1 -16.85 72.05 -16.9 69.8 L-16.9 69.75 -19.05 69.35 Q-23.45 68.55 -29.85 66.25 -36.25 63.95 -42.05 60.75 -47.9 57.55 -48.2 56.5 L-48.7 55.05 Q-48.9 54.65 -48.7 54.05 -48.1 52.25 -46.6 50.7 -44.6 48.55 -38.7 48.85 -37.05 49.35 -32.9 47.95 L-32.7 47.9 Q-30.55 47.1 -29.55 46.1 -28.75 45.3 -28.75 44.35 L-30.5 44.75 -30.25 44.6 -30.05 44.5 -28.75 44.35 Q-15.95 41.05 -8.9 48.1 L-7.95 50.6 -6.8 53.35 -6.7 53.15 -5.3 50.2 -5.25 50.25 -5.25 50.2 -4.3 47.2 M-32.85 47.5 L-32.95 47.35 -33.45 45.45 -36.5 34.6 Q-39.85 22.6 -40.1 18.3 -40.35 12.5 -41.8 3.9 L-42.9 -4.1 -43.1 -8.35 -42.9 -10.3 Q-42.0 -13.85 -37.7 -15.95 -36.6 -16.55 -32.5 -18.05 -29.0 -19.45 -27.0 -20.6 -23.7 -22.5 -6.9 -29.75 M43.4 -30.75 L43.75 -30.4 44.1 -30.1 44.15 -30.05 M42.95 -30.8 L43.4 -30.75 M-17.05 6.45 L-17.1 6.4 Q-18.85 1.55 -21.75 -1.8 M-6.45 44.1 L-6.45 34.0 Q-6.25 30.65 -4.85 28.65 -3.35 25.1 -2.05 17.85 -1.1 12.25 -1.1 3.05 -6.6 4.65 -10.9 5.35 L-16.95 6.4 -17.05 6.45 Q-15.35 11.2 -14.7 17.45 -14.25 22.15 -14.3 30.05 -13.75 34.95 -12.45 36.95 -11.15 39.0 -10.75 41.85 -10.55 43.6 -8.9 48.1 M-30.55 44.8 L-30.5 44.75 -30.95 44.85 -30.55 44.8 -28.75 44.35 -30.25 44.6 M-32.85 47.5 L-33.45 45.45 M-3.95 46.85 L-2.0 47.25 9.85 49.55 10.15 49.55 13.25 49.25 13.7 49.2 13.35 49.55 13.35 49.75 M-6.8 53.35 Q-8.1 55.55 -10.0 57.95 L-11.45 59.7 -14.65 63.85 -14.9 64.25 -15.1 64.6 -15.6 65.5 Q-16.9 67.75 -16.9 69.35 L-16.9 69.55 -16.9 69.75 -16.8 69.75 -16.9 69.8 -16.85 69.8 M17.65 33.3 L17.05 32.3 17.0 32.25 16.3 31.0 16.3 27.9" fill="none" stroke="#000000" stroke-linecap="round" stroke-linejoin="round" stroke-width="1.7000000000000002"/>
    <path d="M43.75 -31.8 Q42.05 -39.8 40.15 -46.3 M-11.0 -57.1 Q-12.5 -47.45 -6.9 -29.75" fill="none" stroke="#000000" stroke-linecap="round" stroke-linejoin="round" stroke-width="1.7000000000000002"/>
    <path d="M-32.4 49.1 L-31.95 48.95 -23.9 49.0 M-28.35 46.4 L-29.55 46.1 M-28.35 46.4 L-22.0 46.2 M-15.1 64.6 Q-20.35 63.25 -23.85 61.05 -40.25 52.8 -46.5 53.4 -47.85 53.5 -48.7 54.05 M-5.6 58.8 L-8.25 59.35 M-5.1 58.7 L-3.15 58.6 Q-1.5 58.55 2.3 60.0 M-5.5 54.8 Q-3.45 54.1 4.3 56.0" fill="none" stroke="#474730" stroke-linecap="round" stroke-linejoin="round" stroke-width="1.7000000000000002"/>
  </g>
</svg>
