<?xml version="1.0" encoding="UTF-8" standalone="no"?>
<svg xmlns:ffdec="https://www.free-decompiler.com/flash" xmlns:xlink="http://www.w3.org/1999/xlink" ffdec:objectType="shape" height="142.85px" width="137.6px" xmlns="http://www.w3.org/2000/svg">
  <g transform="matrix(1.0, 0.0, 0.0, 1.0, 68.8, 71.25)">
    <path d="M10.55 9.3 Q-7.4 28.3 -15.0 32.4 L-19.15 34.65 -25.15 37.95 -25.1 37.65 -24.8 32.65 -25.05 32.45 -25.55 31.9 -23.55 26.25 -20.45 27.85 -8.75 17.8 -8.5 17.0 -5.55 6.7 -5.75 3.55 1.85 -5.55 2.25 -5.5 Q6.2 2.0 10.5 9.2 L10.55 9.3" fill="#003366" fill-rule="evenodd" stroke="none"/>
    <path d="M-33.8 16.1 L-39.45 13.3 Q-37.4 11.25 -36.65 9.95 L-36.0 8.5 Q-35.6 7.2 -35.8 5.95 L-31.95 2.4 -20.25 9.7 -8.5 17.0 -8.75 17.8 -20.45 27.85 -23.55 26.25 -21.05 18.7 -20.8 18.65 -21.15 14.75 -21.8 14.2 Q-27.15 10.0 -33.15 13.45 -33.0 13.75 -33.2 14.65 -33.4 15.6 -33.8 16.1 M-60.2 42.3 L-60.2 42.35 Q-66.65 45.75 -67.85 39.0 L-67.7 38.7 Q-67.3 38.3 -66.15 38.0 L-65.0 37.8 Q-59.8 37.8 -59.7 40.9 L-60.2 42.3" fill="#404040" fill-rule="evenodd" stroke="none"/>
    <path d="M10.75 -53.3 L10.25 -52.05 Q9.45 -50.25 7.8 -49.0 L6.8 -48.35 Q3.85 -46.7 0.05 -47.6 -4.4 -48.7 -7.5 -52.75 -10.1 -56.05 -10.5 -59.7 L-10.6 -60.9 Q-10.3 -61.1 -10.5 -61.3 L-10.6 -61.4 -10.55 -61.45 -10.6 -61.45 -10.5 -62.45 Q-10.2 -64.4 -8.9 -66.75 L-8.9 -66.8 -8.9 -66.75 Q-10.2 -64.4 -10.5 -62.45 L-10.6 -61.45 -10.6 -61.4 -10.7 -61.3 -10.6 -61.4 -10.55 -61.3 -10.7 -61.3 Q-13.35 -61.25 -11.0 -60.95 L-11.05 -60.9 -16.0 -61.2 -13.3 -61.3 -17.7 -61.2 Q-23.0 -61.0 -25.85 -60.2 L-26.0 -60.05 -26.2 -59.85 -28.4 -57.75 -29.5 -56.5 -29.5 -56.25 -29.75 -56.25 -31.2 -54.3 -31.25 -54.25 -31.4 -54.1 -32.25 -52.4 -32.1 -53.0 -32.3 -52.65 -34.0 -49.35 -34.8 -47.25 -34.8 -47.1 Q-35.7 -49.55 -33.7 -54.95 -32.65 -57.9 -29.8 -60.45 L-26.5 -62.85 Q-22.1 -65.75 -19.8 -66.5 -17.5 -67.3 -12.75 -68.0 L-8.15 -67.65 -8.15 -67.6 -8.3 -67.4 -8.45 -67.55 -8.85 -66.85 -8.9 -66.8 Q-2.3 -52.2 7.25 -52.65 L10.05 -53.1 10.75 -53.3 M-11.05 -60.9 L-11.0 -60.95 -10.6 -60.9 -11.05 -60.9 M-13.3 -61.3 L-10.6 -61.45 -13.3 -61.3 M-41.65 -18.1 L-41.1 -17.9 -41.8 -17.6 -41.65 -18.1 M-60.6 25.8 L-60.55 25.6 -60.55 25.8 -60.6 25.8" fill="#666666" fill-rule="evenodd" stroke="none"/>
    <path d="M-47.25 35.35 L-47.8 34.0 Q-48.55 31.95 -48.6 30.7 -48.75 28.6 -47.4 25.7 -46.05 22.75 -45.0 21.25 -43.7 19.05 -41.8 18.7 -38.5 18.05 -36.85 22.45 -36.4 25.6 -38.45 28.05 L-39.8 29.35 -43.4 31.45 -43.4 31.5 -44.1 31.85 -44.2 31.95 -44.45 32.25 -45.5 33.35 -45.7 34.05 -47.25 35.35 M-46.85 21.2 L-46.6 21.0 -49.25 24.05 -48.7 23.2 -46.85 21.2 M-31.45 -38.9 Q-34.9 -41.4 -35.15 -45.25 L-34.3 -46.25 -33.9 -46.85 Q-31.95 -49.5 -30.65 -50.5 -29.5 -51.4 -26.7 -51.95 -14.7 -57.2 -11.05 -60.9 L-10.6 -60.9 -11.0 -60.95 -10.7 -61.3 -10.55 -61.3 -10.6 -60.9 -10.5 -59.7 Q-10.1 -56.05 -7.5 -52.75 -4.4 -48.7 0.05 -47.6 3.85 -46.7 6.8 -48.35 L8.95 -43.85 Q10.3 -39.95 9.1 -35.85 7.5 -31.05 4.8 -24.5 L4.7 -24.5 -4.6 -24.25 -4.9 -23.75 -5.25 -23.95 -5.0 -27.1 -11.95 -31.5 -28.3 -41.9 -28.8 -42.25 -31.45 -38.9 M-10.6 -61.45 L-10.55 -61.45 -10.6 -61.4 -10.6 -61.45 M-13.8 -44.05 L-15.15 -40.2 -12.75 -43.95 -15.15 -40.2 -13.8 -44.05" fill="#ffcc99" fill-rule="evenodd" stroke="none"/>
    <path d="M-35.15 -45.25 L-35.4 -44.9 -34.9 -46.95 -34.8 -47.1 -34.3 -46.25 -35.15 -45.25 M-11.0 -60.95 Q-13.35 -61.25 -10.7 -61.3 L-11.0 -60.95" fill="#4d331a" fill-rule="evenodd" stroke="none"/>
    <path d="M-61.0 54.45 L-61.0 54.05 -60.8 54.25 -61.0 54.45 M-45.7 34.05 L-45.5 33.35 -44.45 32.25 -44.15 32.65 -45.7 34.05" fill="#484848" fill-rule="evenodd" stroke="none"/>
    <path d="M-18.0 54.85 L-37.15 70.65 -61.0 55.05 -61.0 54.45 -60.8 54.25 -47.6 42.1 -47.35 44.3 Q-46.3 50.25 -41.1 53.1 -35.05 56.35 -25.95 50.65 L-18.0 54.85 M-56.55 26.75 L-55.8 30.35 -59.7 40.9 Q-59.8 37.8 -65.0 37.8 L-66.15 38.0 Q-67.3 38.3 -67.7 38.7 L-63.95 27.95 -60.95 25.9 -60.7 26.05 -60.6 25.8 -60.55 25.8 -60.5 25.8 -58.65 25.6 -56.55 26.75" fill="#373737" fill-rule="evenodd" stroke="none"/>
    <path d="M-25.95 50.65 Q-35.05 56.35 -41.1 53.1 -46.3 50.25 -47.35 44.3 L-47.6 42.1 -45.6 40.25 -25.95 50.65" fill="#000000" fill-rule="evenodd" stroke="none"/>
    <path d="M10.75 -53.3 L10.05 -53.1 7.25 -52.65 Q-2.3 -52.2 -8.9 -66.8 L-8.85 -66.85 -8.45 -67.55 -8.3 -67.4 -8.2 -67.5 -8.15 -67.55 -8.15 -67.6 -7.25 -68.55 Q-4.0 -71.05 0.5 -69.95 5.0 -68.9 8.1 -64.8 11.25 -60.75 11.1 -56.15 L10.9 -53.8 10.75 -53.3" fill="#2f2f2f" fill-rule="evenodd" stroke="none"/>
    <path d="M43.25 -55.8 Q45.55 -54.3 47.75 -51.45 52.6 -45.1 53.85 -37.55 L53.95 -36.9 Q54.85 -30.65 53.3 -23.55 51.9 -17.6 49.05 -12.4 46.6 -7.9 44.35 -6.15 39.3 -2.25 32.65 -2.25 L19.65 -3.75 2.25 -5.5 19.65 -3.75 32.65 -2.25 Q39.3 -2.25 44.35 -6.15 46.6 -7.9 49.05 -12.4 51.9 -17.6 53.3 -23.55 54.85 -30.65 53.95 -36.9 L53.95 -36.95 Q57.8 -32.8 60.8 -27.15 63.75 -21.55 67.25 -11.75 67.8 -10.2 67.85 -8.4 68.1 0.95 54.25 16.25 35.4 27.15 16.35 16.05 13.85 14.8 10.55 9.3 L10.5 9.2 Q6.2 2.0 2.25 -5.5 L2.05 -5.85 1.85 -5.55 -4.4 -6.35 -0.5 -10.2 2.05 -19.55 -4.9 -23.75 -4.6 -24.25 4.7 -24.5 4.8 -24.5 10.5 -23.65 10.85 -23.6 10.95 -23.6 18.4 -39.6 25.6 -44.2 36.85 -48.35 36.8 -48.85 Q37.2 -51.15 39.4 -53.85 41.6 -56.55 43.25 -55.8 M10.95 -23.6 Q19.7 -21.9 25.3 -23.55 25.55 -32.45 25.05 -36.05 24.55 -39.7 25.6 -44.2 24.55 -39.7 25.05 -36.05 25.55 -32.45 25.3 -23.55 19.7 -21.9 10.95 -23.6" fill="#0263c1" fill-rule="evenodd" stroke="none"/>
    <path d="M8.95 -43.85 L16.8 -44.25 Q18.7 -46.9 24.15 -51.1 32.35 -57.45 37.35 -57.65 40.35 -57.8 43.25 -55.8 41.6 -56.55 39.4 -53.85 37.2 -51.15 36.8 -48.85 L36.85 -48.35 25.6 -44.2 18.4 -39.6 10.95 -23.6 10.85 -23.6 10.5 -23.65 4.8 -24.5 Q7.5 -31.05 9.1 -35.85 10.3 -39.95 8.95 -43.85" fill="#ff6633" fill-rule="evenodd" stroke="none"/>
    <path d="M-31.25 -54.25 L-31.35 -54.05 -31.2 -54.3 -29.75 -56.25 -29.5 -56.25 -29.5 -56.5 -28.4 -57.75 -26.2 -59.85 -26.0 -60.05 -25.85 -60.2 Q-23.0 -61.0 -17.7 -61.2 L-13.3 -61.3 -16.0 -61.2 -11.05 -60.9 Q-14.7 -57.2 -26.7 -51.95 -29.5 -51.4 -30.65 -50.5 -31.95 -49.5 -33.9 -46.85 L-34.3 -46.25 -34.8 -47.1 -34.8 -47.25 -34.0 -49.35 -32.3 -52.65 -32.1 -53.0 -32.25 -52.4 -31.4 -54.1 -31.25 -54.25" fill="#8c5e2f" fill-rule="evenodd" stroke="none"/>
    <path d="M-25.15 37.95 L-25.45 42.3 -21.15 44.5 -18.0 54.85 -25.95 50.65 -45.6 40.25 -47.6 42.1 -60.8 54.25 -61.0 54.05 -54.8 42.05 -47.25 35.35 -45.7 34.05 -44.15 32.65 -44.45 32.25 -44.2 31.95 -44.1 31.85 -43.4 31.5 -43.4 31.45 -39.8 29.35 -38.45 28.05 Q-36.4 25.6 -36.85 22.45 L-36.0 22.2 -33.8 16.1 Q-33.4 15.6 -33.2 14.65 -33.0 13.75 -33.15 13.45 -27.15 10.0 -21.8 14.2 L-21.15 14.75 -20.8 18.65 -21.05 18.7 -23.55 26.25 -25.55 31.9 -25.05 32.45 -24.8 32.65 -25.1 37.65 -25.15 37.95 M-4.9 -23.75 L2.05 -19.55 -0.5 -10.2 -4.4 -6.35 -6.3 -4.55 -5.75 3.55 -5.55 6.7 -8.5 17.0 -20.25 9.7 -31.95 2.4 -35.8 5.95 Q-35.6 7.2 -36.0 8.5 L-38.45 9.0 Q-42.3 9.3 -44.25 7.4 -46.0 5.6 -46.35 1.65 -46.5 0.2 -46.25 -0.95 L-45.7 -2.75 -46.65 -3.3 -41.8 -17.6 -41.1 -17.9 Q-37.15 -19.4 -32.9 -18.95 L-28.3 -41.9 -11.95 -31.5 -5.0 -27.1 -5.25 -23.95 -4.9 -23.75 M-32.9 -18.95 L-31.1 -18.6 Q-28.4 -17.65 -28.1 -14.55 -27.85 -11.75 -28.35 -9.65 L-29.0 -7.2 -29.95 -3.15 Q-30.85 1.1 -31.8 2.3 L-31.95 2.4 -31.8 2.3 Q-30.85 1.1 -29.95 -3.15 L-29.0 -7.2 -28.35 -9.65 Q-27.85 -11.75 -28.1 -14.55 -28.4 -17.65 -31.1 -18.6 L-32.9 -18.95 M-38.45 28.05 Q-32.45 25.75 -26.6 30.9 L-25.55 31.9 -26.6 30.9 Q-32.45 25.75 -38.45 28.05 M-25.45 42.3 L-44.15 32.65 -25.45 42.3 M-11.95 -31.5 L-20.25 9.7 -11.95 -31.5" fill="#555555" fill-rule="evenodd" stroke="none"/>
    <path d="M-39.45 13.3 L-46.85 21.2 -47.7 22.0 -48.7 23.2 -50.15 24.7 -50.25 24.85 -54.1 23.35 -56.3 26.85 -56.55 26.75 -58.65 25.6 -60.5 25.8 -60.55 25.8 -60.55 25.6 -58.6 17.2 -56.2 16.45 -53.25 7.9 Q-50.3 7.6 -49.95 2.4 L-55.05 -1.35 -45.7 -31.5 -37.5 -31.2 -31.45 -38.9 -28.8 -42.25 -28.3 -41.9 -32.9 -18.95 Q-37.15 -19.4 -41.1 -17.9 L-41.65 -18.1 -39.05 -25.8 -43.95 -26.9 -50.4 -5.45 -46.65 -3.3 -45.7 -2.75 -46.25 -0.95 Q-46.5 0.2 -46.35 1.65 -46.0 5.6 -44.25 7.4 -42.3 9.3 -38.45 9.0 L-36.0 8.5 -36.65 9.95 Q-37.4 11.25 -39.45 13.3 M-48.0 7.4 L-55.1 16.7 -48.0 7.4" fill="#6f6f6f" fill-rule="evenodd" stroke="none"/>
    <path d="M43.25 -55.8 Q45.55 -54.3 47.75 -51.45 52.6 -45.1 53.85 -37.55 L53.95 -36.95 Q57.8 -32.8 60.8 -27.15 63.75 -21.55 67.25 -11.75 67.8 -10.2 67.85 -8.4 M16.35 16.05 Q13.85 14.8 10.55 9.3 -7.4 28.3 -15.0 32.4 L-19.15 34.65 -25.15 37.95 -25.45 42.3 M-47.25 35.35 L-47.8 34.0 Q-48.55 31.95 -48.6 30.7 -48.75 28.6 -47.4 25.7 -46.05 22.75 -45.0 21.25 -43.7 19.05 -41.8 18.7 -38.5 18.05 -36.85 22.45 L-36.0 22.2 -33.8 16.1 -39.45 13.3 -46.85 21.2 -46.6 21.0 M-48.7 23.2 L-50.15 24.7 -50.25 24.85 -54.1 23.35 -56.3 26.85 -56.55 26.75 -55.8 30.35 -59.7 40.9 -59.7 41.0 -60.2 42.3 -59.7 40.9 Q-59.8 37.8 -65.0 37.8 L-66.15 38.0 Q-67.3 38.3 -67.7 38.7 L-63.95 27.95 -60.95 25.9 -61.0 25.85 -60.9 25.8 -60.55 25.6 -58.6 17.2 -56.2 16.45 -53.25 7.9 Q-50.3 7.6 -49.95 2.4 L-55.05 -1.35 -45.7 -31.5 -37.5 -31.2 -31.45 -38.9 Q-34.9 -41.4 -35.15 -45.25 L-35.4 -44.9 -35.45 -44.7 -35.55 -44.05 M-60.2 42.35 Q-66.65 45.75 -67.85 39.0 L-67.7 38.7 M6.8 -48.35 L7.8 -49.0 Q9.45 -50.25 10.25 -52.05 L10.75 -53.3 10.05 -53.1 M-8.9 -66.8 L-8.9 -66.75 Q-10.2 -64.4 -10.5 -62.45 L-10.6 -61.45 -10.55 -61.45 -10.6 -61.4 -10.5 -61.3 Q-10.3 -61.1 -10.6 -60.9 L-11.0 -60.95 Q-13.35 -61.25 -10.7 -61.3 L-11.0 -60.95 -11.05 -60.9 -10.6 -60.9 -10.55 -61.3 -10.6 -61.4 -10.6 -61.45 -13.3 -61.3 -16.0 -61.2 M-10.5 -59.7 Q-10.1 -56.05 -7.5 -52.75 -4.4 -48.7 0.05 -47.6 3.85 -46.7 6.8 -48.35 L8.95 -43.85 16.8 -44.25 Q18.7 -46.9 24.15 -51.1 32.35 -57.45 37.35 -57.65 40.35 -57.8 43.25 -55.8 M25.6 -44.2 Q24.55 -39.7 25.05 -36.05 25.55 -32.45 25.3 -23.55 19.7 -21.9 10.95 -23.6 L10.85 -23.6 10.5 -23.65 4.8 -24.5 4.7 -24.5 -4.6 -24.25 M-4.9 -23.75 L2.05 -19.55 -0.5 -10.2 -4.4 -6.35 1.85 -5.55 2.05 -5.85 2.25 -5.5 19.65 -3.75 32.65 -2.25 Q39.3 -2.25 44.35 -6.15 46.6 -7.9 49.05 -12.4 51.9 -17.6 53.3 -23.55 54.85 -30.65 53.95 -36.9 L53.95 -36.95 M10.75 -53.3 L10.9 -53.8 11.1 -56.15 Q11.25 -60.75 8.1 -64.8 5.0 -68.9 0.5 -69.95 -4.0 -71.05 -7.25 -68.55 L-8.15 -67.65 -12.75 -68.0 Q-17.5 -67.3 -19.8 -66.5 -22.1 -65.75 -26.5 -62.85 L-29.8 -60.45 M-8.15 -67.6 L-8.15 -67.55 -8.2 -67.5 -8.3 -67.4 -8.45 -67.55 -8.85 -66.85 -8.9 -66.8 M8.95 -43.85 Q10.3 -39.95 9.1 -35.85 7.5 -31.05 4.8 -24.5 M1.85 -5.55 L2.25 -5.5 Q6.2 2.0 10.5 9.2 L10.55 9.3 M-31.2 -54.3 L-31.25 -54.25 -31.4 -54.1 M-34.8 -47.25 L-34.8 -47.1 -34.9 -46.95 -35.4 -44.9 M-34.3 -46.25 L-33.9 -46.85 Q-31.95 -49.5 -30.65 -50.5 -29.5 -51.4 -26.7 -51.95 -14.7 -57.2 -11.05 -60.9 M-8.15 -67.6 L-8.15 -67.65 M-10.6 -61.4 L-10.7 -61.3 -10.55 -61.3 M-46.65 -3.3 L-50.4 -5.45 -43.95 -26.9 -39.05 -25.8 -41.65 -18.1 -41.8 -17.6 -41.1 -17.9 Q-37.15 -19.4 -32.9 -18.95 L-28.3 -41.9 -28.8 -42.25 -31.45 -38.9 M-46.65 -3.3 L-45.7 -2.75 -46.25 -0.95 Q-46.5 0.2 -46.35 1.65 -46.0 5.6 -44.25 7.4 -42.3 9.3 -38.45 9.0 L-36.0 8.5 Q-35.6 7.2 -35.8 5.95 L-31.95 2.4 -31.8 2.3 Q-30.85 1.1 -29.95 -3.15 L-29.0 -7.2 -28.35 -9.65 Q-27.85 -11.75 -28.1 -14.55 -28.4 -17.65 -31.1 -18.6 L-32.9 -18.95 M-41.8 -17.6 L-46.65 -3.3 M-28.3 -41.9 L-11.95 -31.5 -5.0 -27.1 -5.25 -23.95 -4.9 -23.75 M-34.3 -46.25 L-35.15 -45.25 M-4.4 -6.35 L-6.3 -4.55 -5.75 3.55 1.85 -5.55 M-5.75 3.55 L-5.55 6.7 -8.5 17.0 -8.75 17.8 -20.45 27.85 -23.55 26.25 -25.55 31.9 -25.05 32.45 -24.8 32.65 -25.1 37.65 M-8.5 17.0 L-20.25 9.7 -31.95 2.4 M-36.0 8.5 L-36.65 9.95 Q-37.4 11.25 -39.45 13.3 M-44.45 32.25 L-44.2 31.95 -44.1 31.85 -43.4 31.5 -43.4 31.45 -39.8 29.35 -38.45 28.05 Q-36.4 25.6 -36.85 22.45 M-23.55 26.25 L-21.05 18.7 -20.8 18.65 -21.15 14.75 -21.8 14.2 Q-27.15 10.0 -33.15 13.45 -33.0 13.75 -33.2 14.65 -33.4 15.6 -33.8 16.1 M-25.55 31.9 L-26.6 30.9 Q-32.45 25.75 -38.45 28.05 M-48.7 23.2 L-46.85 21.2 -47.7 22.0 -48.7 23.2 M-60.6 25.8 L-60.9 25.8 -60.95 25.9 -60.7 26.05 -60.6 25.8 -60.55 25.6 M-60.55 25.8 L-60.5 25.8 -58.65 25.6 -56.55 26.75 M-45.7 34.05 L-45.5 33.35 -44.45 32.25 M-60.55 25.8 L-60.6 25.8 M-20.25 9.7 L-11.95 -31.5" fill="none" stroke="#000000" stroke-linecap="round" stroke-linejoin="round" stroke-width="1.9000000000000001"/>
    <path d="M-25.45 42.3 L-21.15 44.5 -18.0 54.85 -37.15 70.65 -61.0 55.05 M-61.0 54.05 L-54.8 42.05 -47.25 35.35 -45.7 34.05 -44.15 32.65 -25.45 42.3 M-34.8 -47.1 L-34.3 -46.25 M-34.8 -47.1 Q-35.7 -49.55 -33.7 -54.95 -32.65 -57.9 -29.8 -60.45 M-12.75 -43.95 L-15.15 -40.2 -13.8 -44.05 M-25.95 50.65 L-45.6 40.25 -47.6 42.1 -60.8 54.25 -61.0 54.45 M-18.0 54.85 L-25.95 50.65" fill="none" stroke="#000000" stroke-linecap="round" stroke-linejoin="round" stroke-width="1.9000000000000001"/>
    <path d="M-55.1 16.7 L-48.0 7.4" fill="none" stroke="#222222" stroke-linecap="round" stroke-linejoin="round" stroke-width="1.9000000000000001"/>
  </g>
</svg>
