<?xml version="1.0" encoding="UTF-8" standalone="no"?>
<svg xmlns:ffdec="https://www.free-decompiler.com/flash" xmlns:xlink="http://www.w3.org/1999/xlink" ffdec:objectType="shape" height="170.6px" width="272.65px" xmlns="http://www.w3.org/2000/svg">
  <g transform="matrix(1.0, 0.0, 0.0, 1.0, 139.55, 99.45)">
    <path d="M48.35 -59.95 L47.95 -60.0 Q31.65 -62.05 19.4 -69.0 L20.1 -74.8 20.35 -74.65 20.65 -74.65 Q38.2 -75.5 50.55 -67.1 L52.05 -66.05 52.15 -66.05 48.35 -59.95 M21.6 -88.15 Q27.35 -93.45 41.0 -89.75 50.55 -87.35 54.5 -80.5 L55.1 -80.6 55.15 -80.2 53.35 -71.3 Q48.55 -78.45 39.45 -80.85 28.95 -83.85 20.65 -79.6 L21.6 -88.15" fill="#ffae85" fill-rule="evenodd" stroke="none"/>
    <path d="M55.1 -80.6 L55.15 -80.6 Q65.7 -82.35 74.2 -78.05 84.3 -74.0 86.2 -66.35 L86.25 -66.35 86.2 -66.05 83.05 -58.45 Q78.9 -66.8 71.15 -69.45 64.0 -72.85 53.35 -71.3 L55.15 -80.2 55.1 -80.6 M76.15 -46.8 L76.05 -46.95 Q61.5 -49.25 48.7 -59.9 L48.35 -59.95 52.15 -66.05 Q71.1 -64.95 81.0 -53.75 L81.1 -53.7 81.0 -53.45 76.35 -47.05 76.15 -46.8" fill="#fb91a0" fill-rule="evenodd" stroke="none"/>
    <path d="M50.55 -67.1 L53.35 -71.3 52.35 -66.35 52.15 -66.05 52.05 -66.05 50.55 -67.1" fill="#fe824e" fill-rule="evenodd" stroke="none"/>
    <path d="M53.35 -71.3 Q64.0 -72.85 71.15 -69.45 78.9 -66.8 83.05 -58.45 L83.05 -58.4 81.1 -53.7 81.0 -53.75 Q71.1 -64.95 52.15 -66.05 L52.35 -66.35 53.35 -71.3" fill="#f85c7c" fill-rule="evenodd" stroke="none"/>
    <path d="M53.35 -71.3 L50.55 -67.1 Q38.2 -75.5 20.65 -74.65 L20.65 -79.6 Q28.95 -83.85 39.45 -80.85 48.55 -78.45 53.35 -71.3" fill="#fe8e5f" fill-rule="evenodd" stroke="none"/>
    <path d="M19.4 -69.0 L19.15 -69.15 18.95 -69.1 Q3.0 -67.95 -12.95 -74.25 L-11.65 -79.3 Q4.8 -82.8 20.1 -74.8 L19.4 -69.0 M-11.65 -93.15 Q-5.6 -98.3 5.9 -96.85 19.15 -95.15 21.3 -87.9 L21.6 -88.15 20.65 -79.6 Q13.95 -86.1 4.85 -87.45 -4.3 -88.85 -12.3 -83.6 L-11.65 -93.15" fill="#e3f2af" fill-rule="evenodd" stroke="none"/>
    <path d="M20.65 -79.6 L20.1 -74.8 Q4.8 -82.8 -11.65 -79.3 L-12.55 -79.7 -12.3 -83.6 Q-4.3 -88.85 4.85 -87.45 13.95 -86.1 20.65 -79.6" fill="#cae45f" fill-rule="evenodd" stroke="none"/>
    <path d="M86.25 -66.35 Q97.75 -65.25 104.05 -59.0 113.55 -51.4 113.3 -43.3 L113.4 -43.25 108.3 -37.3 Q107.35 -45.9 101.0 -52.2 94.35 -57.6 83.05 -58.4 L83.05 -58.45 86.2 -66.05 86.25 -66.35 M99.6 -28.55 Q85.4 -33.65 76.25 -46.65 L76.35 -47.05 81.0 -53.45 81.1 -53.7 81.3 -53.65 Q99.0 -47.75 105.5 -34.0 L105.5 -33.95 100.2 -28.75 99.6 -28.55" fill="#ff85b5" fill-rule="evenodd" stroke="none"/>
    <path d="M81.1 -53.7 L83.05 -58.4 81.3 -53.65 81.1 -53.7" fill="#fe5699" fill-rule="evenodd" stroke="none"/>
    <path d="M83.05 -58.4 Q94.35 -57.6 101.0 -52.2 107.35 -45.9 108.3 -37.3 L108.25 -37.2 105.5 -34.0 Q99.0 -47.75 81.3 -53.65 L83.05 -58.4" fill="#fe4e95" fill-rule="evenodd" stroke="none"/>
    <path d="M113.4 -43.25 Q122.25 -41.55 128.1 -32.2 137.15 -18.7 129.85 -10.05 L125.65 -7.8 Q127.65 -19.2 122.85 -28.2 118.35 -35.0 108.25 -37.2 L108.3 -37.3 113.4 -43.25 M123.15 -6.55 L119.9 -5.8 119.45 -6.1 Q106.3 -14.75 99.85 -28.4 L100.2 -28.75 105.5 -33.95 105.6 -33.75 Q121.3 -22.65 123.05 -7.4 L123.15 -6.55" fill="#d66a9c" fill-rule="evenodd" stroke="none"/>
    <path d="M125.65 -7.8 L123.45 -6.65 123.15 -6.55 123.05 -7.4 125.65 -7.8 M105.5 -33.95 L105.5 -34.0 108.25 -37.2 105.6 -33.75 105.5 -33.95" fill="#cb4e8d" fill-rule="evenodd" stroke="none"/>
    <path d="M105.6 -33.75 L108.25 -37.2 Q118.35 -35.0 122.85 -28.2 127.65 -19.2 125.65 -7.8 L123.05 -7.4 Q121.3 -22.65 105.6 -33.75" fill="#c63981" fill-rule="evenodd" stroke="none"/>
    <path d="M-107.1 -63.45 L-108.8 -66.7 Q-105.1 -75.3 -96.3 -78.65 -89.3 -82.3 -78.45 -79.3 L-77.3 -75.7 -77.5 -75.6 Q-94.4 -73.15 -107.1 -63.45" fill="#1b8fdc" fill-rule="evenodd" stroke="none"/>
    <path d="M-133.2 -41.45 L-133.65 -41.85 Q-134.6 -53.6 -125.85 -60.8 -117.35 -66.7 -108.85 -66.65 L-108.8 -66.7 -107.1 -63.45 -107.35 -63.3 Q-125.0 -56.55 -133.2 -41.45" fill="#1f70be" fill-rule="evenodd" stroke="none"/>
    <path d="M-103.7 -56.85 L-104.0 -56.5 Q-114.15 -43.15 -131.0 -38.95 L-131.05 -38.95 -133.2 -41.45 Q-125.0 -56.55 -107.35 -63.3 L-107.1 -63.45 -103.9 -57.3 -103.7 -56.85 M-133.65 -41.85 Q-147.4 -54.85 -129.2 -67.6 -120.75 -74.1 -112.3 -73.45 L-108.8 -66.7 -108.85 -66.65 Q-117.35 -66.7 -125.85 -60.8 -134.6 -53.6 -133.65 -41.85" fill="#5a9ae4" fill-rule="evenodd" stroke="none"/>
    <path d="M-74.9 -68.35 L-75.0 -68.3 Q-87.2 -59.05 -103.3 -56.9 L-103.9 -57.3 -107.1 -63.45 Q-94.4 -73.15 -77.5 -75.6 L-77.3 -75.7 -74.9 -68.35 M-112.3 -73.45 Q-110.55 -80.15 -98.75 -85.75 -89.25 -89.6 -80.9 -87.3 L-78.45 -79.3 Q-89.3 -82.3 -96.3 -78.65 -105.1 -75.3 -108.8 -66.7 L-112.3 -73.45" fill="#6ebcef" fill-rule="evenodd" stroke="none"/>
    <path d="M-12.55 -79.7 Q-23.55 -84.75 -45.15 -81.15 L-45.35 -83.9 Q-36.5 -89.3 -27.65 -89.45 -20.65 -89.55 -12.3 -83.6 L-12.55 -79.7" fill="#6ae16a" fill-rule="evenodd" stroke="none"/>
    <path d="M-12.95 -74.25 L-13.2 -74.35 Q-28.9 -70.25 -44.6 -74.35 L-45.15 -81.15 Q-23.55 -84.75 -12.55 -79.7 L-12.95 -74.25 M-46.05 -93.45 L-45.95 -93.6 Q-40.7 -100.4 -27.65 -99.3 -17.5 -99.45 -11.65 -93.15 L-12.3 -83.6 Q-20.65 -89.55 -27.65 -89.45 -36.5 -89.3 -45.35 -83.9 L-45.35 -83.95 -46.05 -93.45" fill="#a7efa6" fill-rule="evenodd" stroke="none"/>
    <path d="M-44.6 -74.35 L-44.7 -74.3 -44.9 -74.2 -45.0 -74.15 Q-52.05 -71.05 -59.3 -69.65 -66.8 -68.25 -74.6 -68.6 L-74.9 -68.35 -77.3 -75.7 Q-69.7 -79.9 -61.5 -81.25 -53.65 -82.5 -45.2 -81.15 L-45.15 -81.15 -44.6 -74.35 M-80.9 -87.3 Q-78.0 -93.15 -64.3 -96.5 -51.75 -97.8 -46.1 -93.45 L-46.05 -93.45 -45.35 -83.95 Q-53.9 -89.0 -62.45 -87.9 -71.5 -86.2 -78.1 -79.3 L-78.45 -79.3 -80.9 -87.3" fill="#8be7ff" fill-rule="evenodd" stroke="none"/>
    <path d="M-77.3 -75.7 L-78.45 -79.3 -78.1 -79.3 Q-71.5 -86.2 -62.45 -87.9 -53.9 -89.0 -45.35 -83.95 L-45.35 -83.9 -45.15 -81.15 -45.2 -81.15 Q-53.65 -82.5 -61.5 -81.25 -69.7 -79.9 -77.3 -75.7" fill="#35d6fd" fill-rule="evenodd" stroke="none"/>
    <path d="M55.1 -80.6 L55.15 -80.6 Q65.7 -82.35 74.2 -78.05 84.3 -74.0 86.2 -66.35 L86.25 -66.35 Q97.75 -65.25 104.05 -59.0 113.55 -51.4 113.3 -43.3 L113.4 -43.25 Q122.25 -41.55 128.1 -32.2 137.15 -18.7 129.85 -10.05 L125.65 -7.8 123.45 -6.65 123.15 -6.55 119.9 -5.8 119.45 -6.1 Q106.3 -14.75 99.85 -28.4 L99.8 -28.5 99.6 -28.55 Q85.4 -33.65 76.25 -46.65 L76.15 -46.8 76.05 -46.95 Q61.5 -49.25 48.7 -59.9 L48.35 -59.95 47.95 -60.0 Q31.65 -62.05 19.4 -69.0 L19.15 -69.15 18.95 -69.1 Q3.0 -67.95 -12.95 -74.25 L-13.2 -74.35 Q-28.9 -70.25 -44.6 -74.35 L-44.7 -74.3 -44.9 -74.2 -45.0 -74.15 Q-52.05 -71.05 -59.3 -69.65 -66.8 -68.25 -74.6 -68.6 L-74.9 -68.35 -75.0 -68.3 Q-87.2 -59.05 -103.3 -56.9 L-103.7 -56.85 -104.0 -56.5 Q-114.15 -43.15 -131.0 -38.95 L-131.05 -38.95 -133.2 -41.45 M-133.65 -41.85 Q-147.4 -54.85 -129.2 -67.6 -120.75 -74.1 -112.3 -73.45 -110.55 -80.15 -98.75 -85.75 -89.25 -89.6 -80.9 -87.3 -78.0 -93.15 -64.3 -96.5 -51.75 -97.8 -46.1 -93.45 L-46.05 -93.45 -45.95 -93.6 Q-40.7 -100.4 -27.65 -99.3 -17.5 -99.45 -11.65 -93.15 -5.6 -98.3 5.9 -96.85 19.15 -95.15 21.3 -87.9 L21.6 -88.15 Q27.35 -93.45 41.0 -89.75 50.55 -87.35 54.5 -80.5 L55.1 -80.6 M55.15 -80.2 L53.35 -71.3 M50.55 -67.1 L52.05 -66.05 52.15 -66.05 M20.65 -79.6 L21.6 -88.15 M20.1 -74.8 L20.35 -74.65 20.65 -74.65 M20.1 -74.8 L19.4 -69.0 M76.35 -47.05 L76.15 -46.8 M76.25 -46.65 L76.35 -47.05 M81.3 -53.65 L81.1 -53.7 M105.5 -34.0 L105.5 -33.95 105.6 -33.75 M123.05 -7.4 L123.15 -6.55 M100.2 -28.75 L99.6 -28.55 M100.2 -28.75 L99.85 -28.4 M105.5 -33.95 L100.2 -28.75 M-108.8 -66.7 L-108.85 -66.65 M-103.9 -57.3 L-103.7 -56.85 M-103.3 -56.9 L-103.9 -57.3 M-108.8 -66.7 L-112.3 -73.45" fill="none" stroke="#000000" stroke-linecap="round" stroke-linejoin="round" stroke-width="0.05"/>
    <path d="M-133.2 -41.45 L-133.65 -41.85 Q-134.6 -53.6 -125.85 -60.8 -117.35 -66.7 -108.85 -66.65 L-108.8 -66.7 -107.1 -63.45 -107.35 -63.3 Q-125.0 -56.55 -133.2 -41.45 M53.35 -71.3 Q64.0 -72.85 71.15 -69.45 78.9 -66.8 83.05 -58.45 L86.2 -66.05 M52.15 -66.05 L52.35 -66.35 53.35 -71.3 Q48.55 -78.45 39.45 -80.85 28.95 -83.85 20.65 -79.6 L20.65 -74.65 Q38.2 -75.5 50.55 -67.1 M52.15 -66.05 L48.35 -59.95 M20.65 -79.6 L20.1 -74.8 Q4.8 -82.8 -11.65 -79.3 L-12.55 -79.7 Q-23.55 -84.75 -45.15 -81.15 L-44.6 -74.35 M-12.3 -83.6 Q-4.3 -88.85 4.85 -87.45 13.95 -86.1 20.65 -79.6 M76.35 -47.05 L81.0 -53.45 81.1 -53.7 81.0 -53.75 Q71.1 -64.95 52.15 -66.05 M81.1 -53.7 L83.05 -58.4 83.05 -58.45 M83.05 -58.4 Q94.35 -57.6 101.0 -52.2 107.35 -45.9 108.3 -37.3 L113.4 -43.25 M81.3 -53.65 L83.05 -58.4 M105.6 -33.75 L108.25 -37.2 105.5 -34.0 Q99.0 -47.75 81.3 -53.65 M108.3 -37.3 L108.25 -37.2 Q118.35 -35.0 122.85 -28.2 127.65 -19.2 125.65 -7.8 L123.05 -7.4 Q121.3 -22.65 105.6 -33.75 M-103.9 -57.3 L-107.1 -63.45 Q-94.4 -73.15 -77.5 -75.6 L-77.3 -75.7 -78.45 -79.3 Q-89.3 -82.3 -96.3 -78.65 -105.1 -75.3 -108.8 -66.7 M-12.55 -79.7 L-12.95 -74.25 M-45.35 -83.9 Q-36.5 -89.3 -27.65 -89.45 -20.65 -89.55 -12.3 -83.6 L-11.65 -93.15 M-12.3 -83.6 L-12.55 -79.7 M-45.15 -81.15 L-45.35 -83.9 -45.35 -83.95 Q-53.9 -89.0 -62.45 -87.9 -71.5 -86.2 -78.1 -79.3 L-78.45 -79.3 -80.9 -87.3 M-77.3 -75.7 Q-69.7 -79.9 -61.5 -81.25 -53.65 -82.5 -45.2 -81.15 L-45.15 -81.15 M-45.35 -83.95 L-46.05 -93.45 M-77.3 -75.7 L-74.9 -68.35" fill="none" stroke="#666666" stroke-linecap="round" stroke-linejoin="round" stroke-width="0.05"/>
    <path d="M1.5 44.0 L1.15 44.2 -1.0 44.25 -0.95 44.0 1.5 44.0 -0.95 44.0 -1.0 44.25 Q-5.5 44.1 -9.7 42.45 -23.25 42.5 -32.65 39.6 L-35.0 39.05 -35.8 38.85 Q-35.85 37.4 -35.25 36.4 L-34.15 35.3 Q-34.0 35.15 -33.8 35.1 L-33.4 34.9 -32.95 34.75 -29.2 34.15 Q-26.75 33.9 -25.55 34.95 L-23.65 36.8 -19.6 36.0 Q-17.5 35.8 -14.75 36.75 -12.0 37.7 -10.2 38.65 -9.4 37.8 -7.65 37.25 -5.95 36.7 -3.6 37.25 -1.25 37.8 0.3 40.1 L1.35 42.25 1.4 42.35 1.55 43.85 1.55 43.9 1.5 44.0" fill="#e6e6e6" fill-rule="evenodd" stroke="none"/>
    <path d="M-1.0 44.25 L1.15 44.2 1.5 44.0 1.55 43.9 -12.05 70.6 -13.0 71.15 -1.0 44.25 M-32.65 39.6 L-27.65 68.4 -28.75 68.4 -35.0 39.05 -32.65 39.6" fill="#333333" fill-rule="evenodd" stroke="none"/>
    <path d="M1.35 42.25 L1.5 41.8" fill="none" stroke="#666666" stroke-linecap="round" stroke-linejoin="round" stroke-width="0.05"/>
    <path d="M-1.0 44.25 L1.15 44.2 1.5 44.0 -0.95 44.0 -1.0 44.25 Q-5.5 44.1 -9.7 42.45 -23.25 42.5 -32.65 39.6 L-27.65 68.4 M-28.75 68.4 L-35.0 39.05 -35.8 38.85 Q-35.85 37.4 -35.25 36.4 L-130.6 -39.05 M1.5 44.0 L1.55 43.9 1.55 43.85 1.4 42.35 1.35 42.25 0.3 40.1 Q-1.25 37.8 -3.6 37.25 -5.95 36.7 -7.65 37.25 -9.4 37.8 -10.2 38.65 -12.0 37.7 -14.75 36.75 -17.5 35.8 -19.6 36.0 L-23.65 36.8 -25.55 34.95 Q-26.75 33.9 -29.2 34.15 L-32.95 34.75 -33.4 34.9 -33.8 35.1 Q-34.0 35.15 -34.15 35.3 L-35.25 36.4 M1.5 41.8 L19.95 -68.5 M1.4 42.35 L76.3 -46.2 M1.5 41.8 L48.25 -60.5 M120.15 -6.95 L1.7 43.2 100.3 -28.3 M-35.0 39.05 L-32.65 39.6 M-13.0 71.15 L-1.0 44.25 M-32.95 34.75 L-12.15 -73.0 M-33.4 34.9 L-44.9 -75.65 M-33.8 35.1 L-73.95 -67.65 M-34.15 35.3 L-102.85 -56.0 M1.55 43.9 L-12.05 70.6" fill="none" stroke="#000000" stroke-linecap="round" stroke-linejoin="round" stroke-width="0.05"/>
  </g>
</svg>
