<?xml version="1.0" encoding="UTF-8" standalone="no"?>
<svg xmlns:ffdec="https://www.free-decompiler.com/flash" xmlns:xlink="http://www.w3.org/1999/xlink" ffdec:objectType="shape" height="87.55px" width="55.0px" xmlns="http://www.w3.org/2000/svg">
  <g transform="matrix(1.0, 0.0, 0.0, 1.0, 53.9, -53.95)">
    <path d="M-25.85 65.45 L-25.9 65.4 -25.9 65.05 -25.95 64.8 -26.4 64.8 -26.65 64.3 -26.65 63.85 -26.7 63.45 -26.8 60.75 Q-26.85 58.15 -25.0 57.05 -23.2 55.95 -20.5 56.1 -17.8 56.25 -16.6 57.1 -14.5 60.0 -14.85 62.5 -15.2 65.05 -15.8 65.45 L-16.1 62.6 Q-17.0 58.05 -20.7 58.05 -24.75 58.05 -25.65 60.85 L-25.95 62.75 -25.9 64.8 -25.95 64.8 -25.9 64.8 -25.85 65.45 M-18.45 63.45 L-19.15 63.75 -19.8 63.45 -20.05 62.8 Q-20.1 62.4 -19.8 62.1 -19.5 61.8 -19.15 61.8 -18.75 61.8 -18.45 62.1 -18.15 62.4 -18.15 62.8 -18.15 63.2 -18.45 63.45 M-22.4 62.8 L-22.75 63.45 Q-23.0 63.75 -23.4 63.75 L-24.05 63.45 -24.35 62.8 -24.05 62.1 Q-23.75 61.8 -23.4 61.8 -23.0 61.8 -22.75 62.1 -22.45 62.4 -22.4 62.8" fill="#000000" fill-rule="evenodd" stroke="none"/>
    <path d="M-38.1 57.65 L-37.9 56.8 Q-37.5 56.0 -36.1 55.0 -34.7 53.95 -34.05 53.95 -32.9 53.95 -32.55 54.25 -32.25 54.5 -31.9 56.05 -31.6 57.55 -33.5 60.55 -36.7 58.7 -38.1 57.65 M-24.7 70.0 L-24.8 69.8 Q-25.7 68.25 -25.85 65.45 L-25.9 64.8 -25.95 62.75 -25.65 60.85 Q-24.75 58.05 -20.7 58.05 -17.0 58.05 -16.1 62.6 L-15.8 65.45 -15.8 66.05 Q-15.8 69.85 -17.1 71.0 L-17.3 71.2 -17.5 71.3 Q-18.9 72.1 -22.05 71.7 -23.65 71.45 -24.6 70.1 L-24.7 70.0 M-4.5 62.2 Q-5.75 61.25 -6.3 60.35 -6.8 59.55 -6.8 58.85 L-5.25 56.8 -4.75 56.1 Q-4.35 55.7 -3.7 55.75 -2.0 55.7 -1.9 57.05 L-1.8 59.55 Q-3.4 59.8 -4.5 62.2 M-18.45 63.45 Q-18.15 63.2 -18.15 62.8 -18.15 62.4 -18.45 62.1 -18.75 61.8 -19.15 61.8 -19.5 61.8 -19.8 62.1 -20.1 62.4 -20.05 62.8 L-19.8 63.45 -19.15 63.75 -18.45 63.45 M-20.95 67.7 L-22.65 67.7 -21.65 64.3 -22.65 67.7 -20.95 67.7 M-22.4 62.8 Q-22.45 62.4 -22.75 62.1 -23.0 61.8 -23.4 61.8 -23.75 61.8 -24.05 62.1 L-24.35 62.8 -24.05 63.45 -23.4 63.75 Q-23.0 63.75 -22.75 63.45 L-22.4 62.8" fill="#ffcccc" fill-rule="evenodd" stroke="none"/>
    <path d="M-1.1 62.3 Q0.0 65.6 0.55 67.9 L1.0 70.1 1.1 71.3 1.1 73.2 -0.7 74.75 Q-3.2 77.1 -4.05 77.25 -4.6 77.35 -5.85 78.0 -8.0 79.7 -10.25 80.6 L-10.85 80.85 -14.8 81.1 Q-16.4 80.75 -15.8 83.15 -15.15 85.5 -18.45 91.45 -19.65 94.25 -18.0 96.65 -16.45 99.0 -16.45 101.7 -16.6 108.5 -15.5 112.6 L-12.45 122.7 Q-11.25 127.3 -11.05 131.45 L-11.05 134.15 -10.85 134.75 -14.1 134.85 -14.3 134.85 -14.55 134.85 Q-14.65 133.1 -16.8 120.6 -17.0 119.6 -18.4 116.35 -19.7 113.45 -19.7 111.7 -22.35 104.6 -22.55 102.65 L-25.2 102.2 -28.1 102.2 -28.35 101.7 -30.65 101.4 -30.9 101.25 -39.3 116.2 Q-43.6 123.45 -44.7 129.45 L-43.9 129.65 -44.75 129.55 -46.95 128.9 -48.3 128.3 -48.7 128.1 -48.15 125.9 Q-47.55 122.9 -46.95 121.9 L-44.95 117.55 Q-43.45 114.0 -42.4 112.75 -41.3 111.4 -40.05 108.05 -38.75 104.3 -38.15 103.4 -35.2 98.45 -32.5 93.0 L-32.65 91.3 Q-32.65 87.65 -30.7 87.0 -30.7 85.3 -31.1 84.6 L-31.1 78.6 -30.75 78.45 -30.95 78.35 Q-33.7 77.3 -37.15 75.0 -43.05 71.4 -43.05 69.35 -43.05 67.45 -41.7 65.4 L-39.1 61.15 -38.1 57.65 Q-36.7 58.7 -33.5 60.55 -34.6 63.75 -37.3 66.9 -36.7 67.75 -35.05 67.9 -33.25 68.0 -32.65 68.5 L-30.55 68.3 -30.05 68.1 Q-28.05 68.05 -27.2 68.5 L-25.7 69.65 -25.15 70.05 -24.7 70.0 -24.6 70.1 Q-23.65 71.45 -22.05 71.7 -18.9 72.1 -17.5 71.3 L-17.3 71.2 -16.3 71.7 -15.2 72.1 Q-13.65 70.85 -10.8 70.8 L-10.75 70.8 -10.05 70.8 -7.2 70.9 -3.45 70.6 -4.15 62.5 -4.5 62.2 Q-3.4 59.8 -1.8 59.55 L-1.75 60.4 -1.25 61.85 -1.1 62.3 M-29.75 78.75 L-30.75 78.45 -29.75 78.75 M-10.85 80.85 L-5.85 78.0 -10.85 80.85" fill="#333333" fill-rule="evenodd" stroke="none"/>
    <path d="M-10.85 80.85 Q-11.6 81.3 -12.9 81.8 L-12.9 81.95 Q-12.9 83.45 -13.85 86.55 -14.75 89.55 -15.3 90.05 L-15.35 90.05 -15.2 90.05 Q-15.05 90.6 -15.05 91.6 L-15.6 93.1 -15.65 93.3 Q-12.8 99.5 -12.65 109.0 -12.55 111.35 -11.9 114.1 L-10.9 116.95 Q-10.3 118.55 -9.9 120.85 -9.65 122.7 -9.45 127.6 L-9.25 131.3 -11.05 131.45 Q-11.25 127.3 -12.45 122.7 L-15.5 112.6 Q-16.6 108.5 -16.45 101.7 -16.45 99.0 -18.0 96.65 -19.65 94.25 -18.45 91.45 -15.15 85.5 -15.8 83.15 -16.4 80.75 -14.8 81.1 L-10.85 80.85 M-28.1 102.2 Q-28.4 103.1 -31.9 108.25 -33.65 112.3 -35.6 115.15 L-39.15 123.65 Q-41.25 128.35 -42.95 129.4 L-43.9 129.65 -44.7 129.45 Q-43.6 123.45 -39.3 116.2 L-30.9 101.25 -30.65 101.4 -28.35 101.7 -28.1 102.2 M-16.25 94.75 L-15.65 93.3 -16.25 94.75" fill="#595959" fill-rule="evenodd" stroke="none"/>
    <path d="M-9.25 131.3 L-8.95 133.65 -9.05 133.7 -10.65 134.65 -10.85 134.75 -11.05 134.15 -11.05 131.45 -9.25 131.3" fill="#666666" fill-rule="evenodd" stroke="none"/>
    <path d="M-9.05 133.7 L-8.95 135.8 -7.65 137.45 Q-6.45 138.9 -6.45 139.7 -6.45 141.5 -9.0 141.5 -11.55 141.5 -12.9 139.7 L-14.35 139.7 -14.45 138.7 -14.1 134.85 -10.85 134.75 -10.65 134.65 -9.05 133.7 M-42.95 129.4 L-42.8 134.1 Q-43.15 134.9 -44.2 135.1 L-46.5 135.65 -46.95 136.05 -47.1 136.4 Q-47.35 136.9 -48.15 137.1 L-50.75 137.25 -52.65 137.25 Q-53.9 137.05 -53.9 136.0 -49.35 130.4 -48.3 128.35 L-48.3 128.3 -46.95 128.9 -44.75 129.55 -43.9 129.65 -42.95 129.4" fill="#999999" fill-rule="evenodd" stroke="none"/>
    <path d="M-21.65 64.3 L-22.65 67.7 -20.95 67.7" fill="none" stroke="#666666" stroke-linecap="round" stroke-linejoin="round" stroke-width="0.05"/>
    <path d="M-1.1 62.3 Q0.0 65.6 0.55 67.9 L1.0 70.1 1.1 71.3 1.1 73.2 -0.7 74.75 Q-3.2 77.1 -4.05 77.25 -4.6 77.35 -5.85 78.0 L-10.85 80.85 Q-11.6 81.3 -12.9 81.8 M-12.9 81.95 Q-12.9 83.45 -13.85 86.55 -14.75 89.55 -15.3 90.05 L-15.35 90.05 -15.2 90.05 Q-15.05 90.6 -15.05 91.6 L-15.6 93.1 -15.65 93.3 Q-12.8 99.5 -12.65 109.0 -12.55 111.35 -11.9 114.1 L-10.9 116.95 Q-10.3 118.55 -9.9 120.85 -9.65 122.7 -9.45 127.6 L-9.25 131.3 -8.95 133.65 -9.05 133.7 -8.95 135.8 -7.65 137.45 Q-6.45 138.9 -6.45 139.7 -6.45 141.5 -9.0 141.5 -11.55 141.5 -12.9 139.7 L-14.35 139.7 -14.45 138.7 -14.1 134.85 -14.3 134.85 -14.55 134.85 Q-14.65 133.1 -16.8 120.6 -17.0 119.6 -18.4 116.35 -19.7 113.45 -19.7 111.7 -22.35 104.6 -22.55 102.65 L-25.2 102.2 -28.1 102.2 Q-28.4 103.1 -31.9 108.25 -33.65 112.3 -35.6 115.15 L-39.15 123.65 Q-41.25 128.35 -42.95 129.4 L-42.8 134.1 Q-43.15 134.9 -44.2 135.1 L-46.5 135.65 -46.95 136.05 -47.1 136.4 Q-47.35 136.9 -48.15 137.1 L-50.75 137.25 -52.65 137.25 Q-53.9 137.05 -53.9 136.0 -49.35 130.4 -48.3 128.35 L-48.3 128.3 -48.7 128.1 -48.15 125.9 Q-47.55 122.9 -46.95 121.9 L-44.95 117.55 Q-43.45 114.0 -42.4 112.75 -41.3 111.4 -40.05 108.05 -38.75 104.3 -38.15 103.4 -35.2 98.45 -32.5 93.0 L-32.65 91.3 Q-32.65 87.65 -30.7 87.0 -30.7 85.3 -31.1 84.6 L-31.1 78.6 -30.75 78.45 -30.95 78.35 Q-33.7 77.3 -37.15 75.0 -43.05 71.4 -43.05 69.35 -43.05 67.45 -41.7 65.4 L-39.1 61.15 -38.1 57.65 -37.9 56.8 Q-37.5 56.0 -36.1 55.0 -34.7 53.95 -34.05 53.95 -32.9 53.95 -32.55 54.25 -32.25 54.5 -31.9 56.05 -31.6 57.55 -33.5 60.55 -34.6 63.75 -37.3 66.9 -36.7 67.75 -35.05 67.9 -33.25 68.0 -32.65 68.5 L-30.55 68.3 -30.05 68.1 Q-28.05 68.05 -27.2 68.5 L-25.7 69.65 -25.15 70.05 -24.7 70.0 -24.8 69.8 Q-25.7 68.25 -25.85 65.45 L-25.9 65.4 -25.9 65.05 -25.95 64.8 -26.4 64.8 -26.65 64.3 -26.65 63.85 -26.7 63.45 -26.8 60.75 Q-26.85 58.15 -25.0 57.05 -23.2 55.95 -20.5 56.1 -17.8 56.25 -16.6 57.1 -14.5 60.0 -14.85 62.5 -15.2 65.05 -15.8 65.45 L-15.8 66.05 Q-15.8 69.85 -17.1 71.0 L-17.3 71.2 -16.3 71.7 -15.2 72.1 Q-13.65 70.85 -10.8 70.8 L-10.75 70.8 -10.05 70.8 -7.2 70.9 -3.45 70.6 -4.15 62.5 -4.5 62.2 Q-5.75 61.25 -6.3 60.35 -6.8 59.55 -6.8 58.85 L-5.25 56.8 -4.75 56.1 Q-4.35 55.7 -3.7 55.75 -2.0 55.7 -1.9 57.05 L-1.8 59.55 -1.75 60.4 -1.25 61.85 M-25.9 64.8 L-25.95 62.75 -25.65 60.85 Q-24.75 58.05 -20.7 58.05 -17.0 58.05 -16.1 62.6 L-15.8 65.45 M-17.5 71.3 L-17.3 71.2 M-25.9 64.8 L-25.95 64.8 M-25.85 65.45 L-25.9 64.8 M-24.7 70.0 L-24.6 70.1 M-30.75 78.45 L-29.75 78.75 M-15.65 93.3 L-16.25 94.75 M-43.9 129.65 L-42.95 129.4 M-10.85 134.75 L-10.65 134.65 -9.05 133.7 M-14.1 134.85 L-10.85 134.75 M-43.9 129.65 L-44.75 129.55 -46.95 128.9 -48.3 128.3" fill="none" stroke="#000000" stroke-linecap="round" stroke-linejoin="round" stroke-width="0.05"/>
  </g>
</svg>
