<?xml version="1.0" encoding="UTF-8" standalone="no"?>
<svg xmlns:ffdec="https://www.free-decompiler.com/flash" xmlns:xlink="http://www.w3.org/1999/xlink" ffdec:objectType="shape" height="30.65px" width="44.15px" xmlns="http://www.w3.org/2000/svg">
  <g transform="matrix(1.0, 0.0, 0.0, 1.0, 43.05, -53.95)">
    <path d="M-1.1 62.3 Q0.0 65.6 0.55 67.9 L1.0 70.1 1.1 71.3 1.1 73.2 -0.7 74.75 Q-3.2 77.1 -4.05 77.25 -4.6 77.35 -5.85 78.0 -8.0 79.7 -10.25 80.6 L-10.85 80.85 -14.8 81.1 Q-16.4 80.75 -15.8 83.15 -20.6 85.4 -24.35 84.1 L-31.1 81.6 -31.1 78.6 -30.75 78.45 -30.95 78.35 Q-33.7 77.3 -37.15 75.0 -43.05 71.4 -43.05 69.35 -43.05 67.45 -41.7 65.4 L-39.1 61.15 -38.1 57.65 Q-36.7 58.7 -33.5 60.55 -34.6 63.75 -37.3 66.9 -36.7 67.75 -35.05 67.9 -33.25 68.0 -32.65 68.5 L-30.55 68.3 -30.05 68.1 Q-28.05 68.05 -27.2 68.5 L-25.7 69.65 -25.15 70.05 -24.7 70.0 -24.6 70.1 Q-23.65 71.45 -22.05 71.7 -18.9 72.1 -17.5 71.3 L-17.3 71.2 -16.3 71.7 -15.2 72.1 Q-13.65 70.85 -10.8 70.8 L-10.75 70.8 -10.05 70.8 -7.2 70.9 -3.45 70.6 -4.15 62.5 -4.5 62.2 Q-3.4 59.8 -1.8 59.55 L-1.75 60.4 -1.25 61.85 -1.1 62.3 M-29.75 78.75 L-30.75 78.45 -29.75 78.75 M-10.85 80.85 L-5.85 78.0 -10.85 80.85" fill="#333333" fill-rule="evenodd" stroke="none"/>
    <path d="M-38.1 57.65 L-37.9 56.8 Q-37.5 56.0 -36.1 55.0 -34.7 53.95 -34.05 53.95 -32.9 53.95 -32.55 54.25 -32.25 54.5 -31.9 56.05 -31.6 57.55 -33.5 60.55 -36.7 58.7 -38.1 57.65 M-24.7 70.0 L-24.8 69.8 Q-25.7 68.25 -25.85 65.45 L-25.9 64.8 -25.95 62.75 -25.65 60.85 Q-24.75 58.05 -20.7 58.05 -17.0 58.05 -16.1 62.6 L-15.8 65.45 -15.8 66.05 Q-15.8 69.85 -17.1 71.0 L-17.3 71.2 -17.5 71.3 Q-18.9 72.1 -22.05 71.7 -23.65 71.45 -24.6 70.1 L-24.7 70.0 M-4.5 62.2 Q-5.75 61.25 -6.3 60.35 -6.8 59.55 -6.8 58.85 L-5.25 56.8 -4.75 56.1 Q-4.35 55.7 -3.7 55.75 -2.0 55.7 -1.9 57.05 L-1.8 59.55 Q-3.4 59.8 -4.5 62.2 M-18.15 62.8 Q-18.15 62.4 -18.45 62.1 -18.75 61.8 -19.15 61.8 -19.5 61.8 -19.8 62.1 -20.1 62.4 -20.05 62.8 L-19.8 63.45 -19.15 63.75 -18.45 63.45 Q-18.15 63.2 -18.15 62.8 M-20.95 67.7 L-22.65 67.7 -21.65 64.3 -22.65 67.7 -20.95 67.7 M-22.4 62.8 Q-22.45 62.4 -22.75 62.1 -23.0 61.8 -23.4 61.8 -23.75 61.8 -24.05 62.1 L-24.35 62.8 -24.05 63.45 -23.4 63.75 Q-23.0 63.75 -22.75 63.45 L-22.4 62.8" fill="#ffcccc" fill-rule="evenodd" stroke="none"/>
    <path d="M-25.85 65.45 L-25.9 65.4 -25.9 65.05 -25.95 64.8 -26.4 64.8 -26.65 64.3 -26.65 63.85 -26.7 63.45 -26.8 60.75 Q-26.85 58.15 -25.0 57.05 -23.2 55.95 -20.5 56.1 -17.8 56.25 -16.6 57.1 -14.5 60.0 -14.85 62.5 -15.2 65.05 -15.8 65.45 L-16.1 62.6 Q-17.0 58.05 -20.7 58.05 -24.75 58.05 -25.65 60.85 L-25.95 62.75 -25.9 64.8 -25.95 64.8 -25.9 64.8 -25.85 65.45 M-18.15 62.8 Q-18.15 63.2 -18.45 63.45 L-19.15 63.75 -19.8 63.45 -20.05 62.8 Q-20.1 62.4 -19.8 62.1 -19.5 61.8 -19.15 61.8 -18.75 61.8 -18.45 62.1 -18.15 62.4 -18.15 62.8 M-22.4 62.8 L-22.75 63.45 Q-23.0 63.75 -23.4 63.75 L-24.05 63.45 -24.35 62.8 -24.05 62.1 Q-23.75 61.8 -23.4 61.8 -23.0 61.8 -22.75 62.1 -22.45 62.4 -22.4 62.8" fill="#000000" fill-rule="evenodd" stroke="none"/>
    <path d="M-10.85 80.85 Q-11.6 81.3 -12.9 81.8 L-12.9 81.95 -13.0 83.1 -15.8 83.15 Q-16.4 80.75 -14.8 81.1 L-10.85 80.85" fill="#595959" fill-rule="evenodd" stroke="none"/>
    <path d="M-1.1 62.3 Q0.0 65.6 0.55 67.9 L1.0 70.1 1.1 71.3 1.1 73.2 -0.7 74.75 Q-3.2 77.1 -4.05 77.25 -4.6 77.35 -5.85 78.0 L-10.85 80.85 Q-11.6 81.3 -12.9 81.8 M-12.9 81.95 L-13.0 83.1 M-31.1 81.6 L-31.1 78.6 -30.75 78.45 -30.95 78.35 Q-33.7 77.3 -37.15 75.0 -43.05 71.4 -43.05 69.35 -43.05 67.45 -41.7 65.4 L-39.1 61.15 -38.1 57.65 -37.9 56.8 Q-37.5 56.0 -36.1 55.0 -34.7 53.95 -34.05 53.95 -32.9 53.95 -32.55 54.25 -32.25 54.5 -31.9 56.05 -31.6 57.55 -33.5 60.55 -34.6 63.75 -37.3 66.9 -36.7 67.75 -35.05 67.9 -33.25 68.0 -32.65 68.5 L-30.55 68.3 -30.05 68.1 Q-28.05 68.05 -27.2 68.5 L-25.7 69.65 -25.15 70.05 -24.7 70.0 -24.8 69.8 Q-25.7 68.25 -25.85 65.45 L-25.9 65.4 -25.9 65.05 -25.95 64.8 -26.4 64.8 -26.65 64.3 -26.65 63.85 -26.7 63.45 -26.8 60.75 Q-26.85 58.15 -25.0 57.05 -23.2 55.95 -20.5 56.1 -17.8 56.25 -16.6 57.1 -14.5 60.0 -14.85 62.5 -15.2 65.05 -15.8 65.45 L-15.8 66.05 Q-15.8 69.85 -17.1 71.0 L-17.3 71.2 -16.3 71.7 -15.2 72.1 Q-13.65 70.85 -10.8 70.8 L-10.75 70.8 -10.05 70.8 -7.2 70.9 -3.45 70.6 -4.15 62.5 -4.5 62.2 Q-5.75 61.25 -6.3 60.35 -6.8 59.55 -6.8 58.85 L-5.25 56.8 -4.75 56.1 Q-4.35 55.7 -3.7 55.75 -2.0 55.7 -1.9 57.05 L-1.8 59.55 -1.75 60.4 -1.25 61.85 M-25.9 64.8 L-25.95 62.75 -25.65 60.85 Q-24.75 58.05 -20.7 58.05 -17.0 58.05 -16.1 62.6 L-15.8 65.45 M-17.5 71.3 L-17.3 71.2 M-25.9 64.8 L-25.95 64.8 M-25.85 65.45 L-25.9 64.8 M-24.7 70.0 L-24.6 70.1 M-30.75 78.45 L-29.75 78.75" fill="none" stroke="#000000" stroke-linecap="round" stroke-linejoin="round" stroke-width="0.05"/>
    <path d="M-21.65 64.3 L-22.65 67.7 -20.95 67.7" fill="none" stroke="#666666" stroke-linecap="round" stroke-linejoin="round" stroke-width="0.05"/>
  </g>
</svg>
