<?xml version="1.0" encoding="UTF-8" standalone="no"?>
<svg xmlns:ffdec="https://www.free-decompiler.com/flash" xmlns:xlink="http://www.w3.org/1999/xlink" ffdec:objectType="shape" height="17.5px" width="19.2px" xmlns="http://www.w3.org/2000/svg">
  <g transform="matrix(1.0, 0.0, 0.0, 1.0, 30.9, -77.25)">
    <path d="M-27.05 82.2 Q-26.6 82.2 -26.3 82.45 -26.05 82.65 -26.05 83.0 L-26.75 82.8 -27.05 82.2 M-24.75 83.15 L-23.75 77.25 -22.8 82.6 -23.75 87.45 -24.1 87.15 Q-25.95 87.65 -25.15 91.65 L-26.1 89.1 -26.2 86.6 -25.7 86.65 Q-22.45 85.95 -24.75 83.15 M-21.85 84.05 L-20.5 83.45 -17.25 88.0 -17.25 94.75 -19.4 89.65 -20.3 94.55 -22.15 88.35 -21.85 84.05 M-17.45 83.65 L-16.9 83.2 -17.1 83.5 -17.45 83.65 M-13.3 81.8 L-11.7 90.4 -13.45 93.7 -14.35 89.65 -16.0 91.2 -16.05 89.0 -15.75 87.65 Q-15.15 83.55 -13.85 86.2 L-13.45 89.2 -12.95 85.0 -13.3 81.8 M-22.9 90.45 L-23.8 94.0 -23.4 90.25 -22.9 90.45 M-26.75 91.65 Q-27.95 95.5 -28.6 90.0 L-28.65 88.8 -27.8 88.65 -26.75 91.65 M-29.0 88.15 L-30.9 90.05 -30.9 81.8 -28.35 81.1 -29.0 88.15 M-27.45 86.05 L-27.4 85.3 Q-27.25 84.6 -26.95 85.7 L-27.45 86.05" fill="#990000" fill-rule="evenodd" stroke="none"/>
    <path d="M-27.05 82.2 L-26.75 82.8 -26.05 83.0 -24.75 83.15 Q-22.45 85.95 -25.7 86.65 L-26.2 86.6 -26.95 85.7 Q-27.25 84.6 -27.4 85.3 L-27.45 86.05 -27.8 88.65 -28.65 88.8 -29.0 88.15 -28.35 81.1 -27.05 82.2 M-22.8 82.6 L-22.15 83.0 Q-21.85 83.4 -21.85 84.05 L-22.15 88.35 -22.35 89.85 Q-22.55 90.45 -22.9 90.45 L-23.4 90.25 -23.75 87.45 -22.8 82.6 M-20.5 83.45 L-17.45 83.65 -17.1 83.5 -16.9 83.2 -13.3 81.8 -12.95 85.0 -13.55 85.35 -13.85 86.2 Q-15.15 83.55 -15.75 87.65 L-16.05 89.0 -16.1 88.45 Q-16.4 86.4 -17.25 88.0 L-20.5 83.45" fill="#660000" fill-rule="evenodd" stroke="none"/>
    <path d="M-16.0 91.2 L-17.25 94.75 -17.25 88.0 Q-16.4 86.4 -16.1 88.45 L-16.05 89.0 -16.0 91.2 M-23.8 94.0 Q-24.4 93.95 -24.75 93.3 -25.15 92.65 -25.15 91.65 -25.95 87.65 -24.1 87.15 L-23.75 87.45 -23.4 90.25 -23.8 94.0 M-26.1 89.1 L-26.75 91.65 -27.8 88.65 -27.45 86.05 -26.95 85.7 -26.2 86.6 -26.1 89.1 M-13.85 86.2 L-13.55 85.35 -12.95 85.0 -13.45 89.2 -13.85 86.2" fill="#cc0033" fill-rule="evenodd" stroke="none"/>
  </g>
</svg>
