<?xml version="1.0" encoding="UTF-8" standalone="no"?>
<svg xmlns:ffdec="https://www.free-decompiler.com/flash" xmlns:xlink="http://www.w3.org/1999/xlink" ffdec:objectType="shape" height="31.9px" width="102.35px" xmlns="http://www.w3.org/2000/svg">
  <g transform="matrix(1.0, 0.0, 0.0, 1.0, 51.2, 15.95)">
    <path d="M17.6 3.3 L17.6 3.15 16.8 3.55 17.6 3.3 M15.75 3.95 L15.55 4.05 14.85 3.95 14.6 3.95 Q13.75 4.05 13.75 4.4 13.75 4.75 14.1 5.45 L14.65 6.4 14.4 6.8 16.25 6.1 Q17.5 5.4 17.55 4.75 17.5 3.95 16.8 3.95 L16.35 3.95 15.8 3.95 15.75 3.95 M13.65 -3.0 L13.35 -4.35 12.85 -5.55 12.45 -3.7 12.35 -3.0 Q12.35 -2.6 12.85 -2.3 13.65 -2.7 13.65 -3.0 M17.35 -6.0 L17.35 -7.05 Q17.35 -8.4 16.9 -8.4 L16.0 -8.15 14.8 -8.0 13.85 -7.85 12.9 -7.85 12.85 -7.65 13.0 -7.2 13.2 -6.65 13.5 -4.9 13.8 -3.15 14.0 -0.75 14.2 1.1 14.4 1.05 17.1 1.25 16.75 0.8 16.9 0.6 17.1 -0.65 17.1 -1.3 17.05 -1.9 17.3 -2.6 17.5 -3.3 17.3 -4.25 Q17.05 -4.95 17.1 -5.3 L17.35 -6.0 M33.75 3.05 L50.4 12.2 27.5 8.4 Q25.15 9.6 22.05 10.7 12.2 14.25 4.15 15.0 L-8.0 15.2 Q-25.6 15.15 -38.0 10.7 -50.45 6.3 -50.45 0.0 -50.45 -6.35 -38.0 -10.8 -25.6 -15.2 -8.0 -15.2 9.6 -15.2 22.05 -10.8 34.5 -6.35 34.5 0.0 34.5 1.55 33.75 3.05 M-4.8 6.25 L-4.6 5.85 -4.75 5.35 -4.6 4.8 -4.8 4.6 -5.15 4.4 -5.2 5.1 -5.4 5.2 Q-5.2 6.0 -4.8 6.25 M-0.15 7.85 L-0.05 8.05 -0.15 8.25 0.1 8.75 0.45 9.05 0.7 8.3 0.6 7.8 0.45 7.2 -0.1 7.5 -0.25 7.45 -0.3 7.55 -0.15 7.85 M1.6 8.3 L1.55 8.8 1.45 9.25 1.45 9.4 1.2 9.9 1.55 10.05 1.7 10.0 1.95 10.0 2.05 10.0 2.1 9.75 Q2.1 8.65 1.6 8.3 M6.15 9.9 Q6.7 9.55 6.75 8.7 6.7 8.25 5.95 7.85 L5.9 8.55 5.7 8.65 5.85 9.35 6.15 9.9 M8.15 7.8 L7.4 7.2 7.3 7.95 7.1 8.05 Q7.35 8.7 8.1 9.15 L8.3 8.75 8.15 7.8 M-30.9 1.65 L-30.95 1.6 -31.1 1.75 -31.2 1.85 -31.35 2.65 -31.5 2.65 Q-31.3 3.35 -30.5 3.8 L-30.3 3.55 -30.5 3.1 -30.7 2.85 -30.45 2.65 -30.0 1.9 -30.4 1.35 -30.5 1.75 -30.9 1.65 M4.3 1.8 L4.15 2.05 4.05 2.3 3.8 2.0 3.65 3.55 4.0 3.8 4.2 3.7 4.4 3.65 4.55 3.7 4.6 3.45 4.65 3.05 4.65 2.65 Q4.65 2.05 4.3 1.8 M5.8 -2.65 Q5.75 -2.9 6.15 -3.15 L5.45 -3.15 5.35 -2.65 5.45 -1.8 5.9 -2.05 5.8 -2.65 M-4.8 -0.8 L-5.05 -1.4 -5.65 -1.75 -5.7 -1.0 -5.85 -0.95 -5.8 -0.6 -5.95 -0.4 -5.5 0.15 Q-4.8 -0.35 -4.8 -0.8 M-5.5 -6.35 L-5.5 -6.7 -5.85 -7.1 -5.95 -6.4 -6.15 -6.35 Q-5.9 -5.4 -5.55 -5.2 L-5.3 -5.55 Q-5.3 -5.85 -5.6 -6.05 L-5.5 -6.35 M1.05 -4.2 L0.9 -3.85 0.95 -3.3 0.95 -2.75 0.75 -2.15 0.75 -1.9 Q0.75 -1.8 1.25 -1.7 L1.55 -2.1 1.7 -2.55 Q1.7 -3.7 1.05 -4.2 M1.55 -5.25 L1.6 -5.2 2.1 -5.2 4.8 -4.75 5.0 -4.85 5.95 -4.35 6.85 -3.7 Q6.85 -3.0 7.25 -2.95 L7.55 -3.2 7.45 -3.3 8.5 -3.3 8.55 -4.0 8.25 -4.5 Q7.95 -4.8 8.0 -4.95 L8.3 -5.8 8.65 -6.7 8.5 -7.2 5.0 -7.6 1.45 -8.05 -0.75 -7.7 -2.95 -6.55 Q-4.8 -5.55 -4.8 -5.35 L-4.65 -5.3 Q-4.2 -5.3 -3.6 -4.55 L-3.85 -4.0 -3.7 -3.65 -3.55 -3.3 Q-3.55 -2.85 -3.95 -1.95 L-4.35 -0.55 -4.25 -0.5 -3.85 -0.55 -3.7 -0.4 Q-3.45 0.5 -3.45 2.05 -3.45 2.85 -2.9 3.95 L-2.05 5.35 -2.45 5.1 -2.55 5.85 -2.75 5.9 -1.7 7.05 -1.1 6.4 -1.35 5.9 Q0.5 6.9 2.4 6.9 L5.05 6.5 Q6.7 5.9 7.25 5.0 7.8 6.25 8.6 6.6 L9.2 6.45 9.15 4.5 9.05 2.55 Q9.0 1.05 9.3 0.35 L8.6 0.6 8.0 0.75 Q7.5 0.75 7.35 0.3 7.1 -0.15 6.7 -0.15 L6.05 -0.2 5.1 -0.2 4.55 -0.15 4.8 0.65 5.1 1.45 5.5 2.45 Q5.5 4.05 4.65 4.5 L2.05 4.8 Q0.8 4.8 0.5 3.55 L0.35 3.1 -0.4 1.6 -0.65 0.25 -0.9 -1.2 -0.75 -1.7 -1.35 -3.05 -0.8 -3.15 -0.45 -4.35 -0.1 -5.3 0.05 -5.35 0.65 -5.25 1.3 -5.15 1.55 -5.25 M-13.8 3.8 Q-14.3 2.95 -14.7 2.65 L-14.95 3.8 -15.05 3.8 Q-14.55 4.95 -13.6 5.6 -13.25 5.35 -13.25 5.15 -13.25 4.75 -13.8 3.8 M-15.65 0.6 L-16.0 0.55 -16.25 1.45 -16.05 2.2 -16.45 2.3 -16.2 2.55 -15.5 2.45 -15.45 1.8 -15.65 0.6 M-10.85 -7.2 L-11.25 -7.45 -11.6 -7.25 -11.85 -6.95 -11.7 -6.6 -11.6 -6.2 -11.6 -5.75 -11.2 -5.55 -10.7 -6.45 Q-10.7 -7.0 -10.5 -6.95 L-10.85 -7.2 M-21.2 3.4 L-21.35 3.8 -21.5 4.9 -21.7 6.0 -21.7 6.15 -21.85 6.65 -21.55 6.8 -21.35 6.8 -21.15 6.75 -20.85 6.1 -20.75 3.45 -20.85 3.2 -21.2 3.4 M-22.1 3.55 L-22.0 3.0 Q-22.0 2.4 -22.65 2.05 L-22.75 2.75 -22.9 2.85 -22.9 3.5 -22.65 3.95 -22.6 3.9 -22.1 3.55 M-26.6 3.55 Q-26.6 2.95 -27.3 2.6 L-27.4 3.3 -27.55 3.4 Q-27.55 4.3 -27.2 4.5 L-27.15 4.45 Q-26.6 4.15 -26.6 3.55 M-28.2 -5.05 L-27.8 -5.05 Q-26.0 -4.3 -25.95 -3.25 L-26.25 -1.9 Q-26.05 -1.75 -26.0 -1.1 L-26.1 -0.55 -26.1 0.0 -25.95 0.7 -26.0 0.7 -25.85 1.35 -26.0 1.45 -26.0 2.4 Q-26.05 3.5 -26.5 4.2 L-27.9 5.55 -29.6 5.8 Q-31.9 5.8 -31.9 2.15 -31.9 -0.05 -31.35 -2.85 L-31.15 -2.85 -30.95 -3.05 -31.15 -3.7 -31.35 -4.3 Q-31.15 -4.9 -30.3 -4.85 L-29.9 -4.75 -29.45 -4.6 -29.35 -4.55 -29.45 -4.25 -29.55 -4.0 -29.45 -3.9 Q-28.55 -3.9 -28.55 -4.65 L-28.4 -4.9 -28.2 -5.05 M-26.55 -4.0 L-27.0 -4.35 -27.0 -3.75 -26.8 -3.45 -27.1 -2.55 -27.1 -2.25 -27.15 -2.0 -27.15 -1.9 -26.95 -1.95 -26.75 -2.05 -26.45 -2.65 -26.45 -3.55 -26.55 -4.0 M-22.4 -2.3 L-22.8 -4.4 Q-23.25 -5.75 -23.8 -6.2 -25.5 -8.05 -29.3 -8.05 -32.95 -8.05 -33.75 -6.45 L-34.65 -5.75 Q-35.15 -5.25 -35.15 -4.65 L-35.05 -4.55 -35.3 -4.0 -35.2 -3.65 -35.05 -3.25 -35.25 -1.0 -35.5 1.25 -34.95 2.1 Q-34.9 3.9 -34.45 5.1 L-34.9 4.7 -35.0 5.45 -35.2 5.55 -35.05 6.4 -34.6 7.05 -34.0 6.45 -34.0 6.05 -33.55 6.65 -33.05 6.3 Q-31.15 7.45 -29.1 7.45 L-27.4 7.2 -25.75 6.65 -25.05 6.75 Q-24.3 6.75 -23.8 6.3 L-23.7 3.3 Q-23.55 1.0 -22.65 0.85 -22.4 -0.35 -22.4 -2.3 M-18.95 -8.3 L-22.0 -8.25 -20.8 -7.6 -20.5 -7.4 -20.15 -7.2 Q-20.5 -6.55 -20.5 -5.15 L-20.3 -5.15 -20.5 -4.65 -20.25 -3.55 -20.0 -2.55 -20.8 -2.15 -20.4 -1.9 -19.85 -1.75 -20.2 -1.05 -20.5 -0.25 -20.4 1.1 -20.2 2.65 -20.35 5.1 -20.25 6.0 -20.2 6.8 -19.75 7.15 -18.7 7.0 -17.7 6.85 -17.4 6.9 Q-17.25 6.3 -17.25 4.6 -17.25 0.7 -17.75 -0.4 L-17.4 -2.35 -15.6 0.15 Q-14.35 2.05 -14.3 2.65 L-14.35 2.8 -13.7 3.65 Q-13.15 4.35 -12.15 4.3 -11.9 4.05 -11.8 3.4 L-11.55 2.2 Q-10.95 1.35 -11.0 0.2 L-11.0 -0.2 Q-11.05 -0.8 -10.75 -1.2 L-10.15 -2.45 Q-9.9 -1.7 -9.75 0.0 L-9.5 2.95 -9.45 2.9 -9.4 3.0 -9.7 4.7 -9.9 6.5 Q-9.95 6.9 -9.8 6.9 L-9.1 7.0 -8.55 7.0 -9.1 7.6 -8.3 8.2 -7.25 7.55 -8.4 7.0 -8.1 7.0 Q-6.35 6.95 -6.05 6.5 L-6.05 5.2 -6.0 3.95 -6.1 2.05 -6.15 0.15 -6.0 -1.6 -5.85 -1.75 -6.25 -2.2 -6.2 -2.2 -6.35 -3.65 -6.3 -5.25 -6.2 -6.95 Q-6.2 -7.7 -6.35 -8.05 L-9.3 -7.2 Q-10.05 -7.0 -10.85 -5.75 L-11.8 -3.75 -13.05 -0.8 Q-13.9 -2.95 -15.75 -6.1 -16.35 -6.55 -17.4 -7.0 -17.35 -7.6 -17.85 -8.0 -18.35 -8.35 -18.95 -8.3 M14.35 7.7 L14.1 8.45 14.3 8.9 15.15 8.7 15.3 8.7 15.1 7.9 Q14.9 7.35 14.7 7.35 14.3 7.5 14.35 7.7 M18.2 4.85 L17.65 5.35 17.6 5.95 Q17.55 6.45 18.05 6.75 18.5 6.5 18.5 5.95 18.5 5.05 18.2 4.85" fill="#ffffff" fill-rule="evenodd" stroke="none"/>
    <path d="M17.35 -6.0 L17.1 -5.3 Q17.05 -4.95 17.3 -4.25 L17.5 -3.3 17.3 -2.6 17.05 -1.9 17.1 -1.3 17.1 -0.65 16.9 0.6 16.75 0.8 17.1 1.25 14.4 1.05 14.2 1.1 14.0 -0.75 13.8 -3.15 13.5 -4.9 13.2 -6.65 13.0 -7.2 12.85 -7.65 12.9 -7.85 13.85 -7.85 14.8 -8.0 16.0 -8.15 16.9 -8.4 Q17.35 -8.4 17.35 -7.05 L17.35 -6.0 M13.65 -3.0 Q13.65 -2.7 12.85 -2.3 12.35 -2.6 12.35 -3.0 L12.45 -3.7 12.85 -5.55 13.35 -4.35 13.65 -3.0 M15.75 3.95 L15.8 3.95 16.35 3.95 16.8 3.95 Q17.5 3.95 17.55 4.75 17.5 5.4 16.25 6.1 L14.4 6.8 14.65 6.4 14.1 5.45 Q13.75 4.75 13.75 4.4 13.75 4.05 14.6 3.95 L14.85 3.95 15.55 4.05 15.75 3.95 M17.6 3.3 L16.8 3.55 17.6 3.15 17.6 3.3 M18.2 4.85 Q18.5 5.05 18.5 5.95 18.5 6.5 18.05 6.75 17.55 6.45 17.6 5.95 L17.65 5.35 18.2 4.85 M14.35 7.7 Q14.3 7.5 14.7 7.35 14.9 7.35 15.1 7.9 L15.3 8.7 15.15 8.7 14.3 8.9 14.1 8.45 14.35 7.7 M-18.95 -8.3 Q-18.35 -8.35 -17.85 -8.0 -17.35 -7.6 -17.4 -7.0 -16.35 -6.55 -15.75 -6.1 -13.9 -2.95 -13.05 -0.8 L-11.8 -3.75 -10.85 -5.75 Q-10.05 -7.0 -9.3 -7.2 L-6.35 -8.05 Q-6.2 -7.7 -6.2 -6.95 L-6.3 -5.25 -6.35 -3.65 -6.2 -2.2 -6.25 -2.2 -5.85 -1.75 -6.0 -1.6 -6.15 0.15 -6.1 2.05 -6.0 3.95 -6.05 5.2 -6.05 6.5 Q-6.35 6.95 -8.1 7.0 L-8.4 7.0 -7.25 7.55 -8.3 8.2 -9.1 7.6 -8.55 7.0 -9.1 7.0 -9.8 6.9 Q-9.95 6.9 -9.9 6.5 L-9.7 4.7 -9.4 3.0 -9.45 2.9 -9.5 2.95 -9.75 0.0 Q-9.9 -1.7 -10.15 -2.45 L-10.75 -1.2 Q-11.05 -0.8 -11.0 -0.2 L-11.0 0.2 Q-10.95 1.35 -11.55 2.2 L-11.8 3.4 Q-11.9 4.05 -12.15 4.3 -13.15 4.35 -13.7 3.65 L-14.35 2.8 -14.3 2.65 Q-14.35 2.05 -15.6 0.15 L-17.4 -2.35 -17.75 -0.4 Q-17.25 0.7 -17.25 4.6 -17.25 6.3 -17.4 6.9 L-17.7 6.85 -18.7 7.0 -19.75 7.15 -20.2 6.8 -20.25 6.0 -20.35 5.1 -20.2 2.65 -20.4 1.1 -20.5 -0.25 -20.2 -1.05 -19.85 -1.75 -20.4 -1.9 -20.8 -2.15 -20.0 -2.55 -20.25 -3.55 -20.5 -4.65 -20.3 -5.15 -20.5 -5.15 Q-20.5 -6.55 -20.15 -7.2 L-20.5 -7.4 -20.8 -7.6 -22.0 -8.25 -18.95 -8.3 M-22.4 -2.3 Q-22.4 -0.35 -22.65 0.85 -23.55 1.0 -23.7 3.3 L-23.8 6.3 Q-24.3 6.75 -25.05 6.75 L-25.75 6.65 -27.4 7.2 -29.1 7.45 Q-31.15 7.45 -33.05 6.3 L-33.55 6.65 -34.0 6.05 -34.0 6.45 -34.6 7.05 -35.05 6.4 -35.2 5.55 -35.0 5.45 -34.9 4.7 -34.45 5.1 Q-34.9 3.9 -34.95 2.1 L-35.5 1.25 -35.25 -1.0 -35.05 -3.25 -35.2 -3.65 -35.3 -4.0 -35.05 -4.55 -35.15 -4.65 Q-35.15 -5.25 -34.65 -5.75 L-33.75 -6.45 Q-32.95 -8.05 -29.3 -8.05 -25.5 -8.05 -23.8 -6.2 -23.25 -5.75 -22.8 -4.4 L-22.4 -2.3 M-26.55 -4.0 L-26.45 -3.55 -26.45 -2.65 -26.75 -2.05 -26.95 -1.95 -27.15 -1.9 -27.15 -2.0 -27.1 -2.25 -27.1 -2.55 -26.8 -3.45 -27.0 -3.75 -27.0 -4.35 -26.55 -4.0 M-28.2 -5.05 L-28.4 -4.9 -28.55 -4.65 Q-28.55 -3.9 -29.45 -3.9 L-29.55 -4.0 -29.45 -4.25 -29.35 -4.55 -29.45 -4.6 -29.9 -4.75 -30.3 -4.85 Q-31.15 -4.9 -31.35 -4.3 L-31.15 -3.7 -30.95 -3.05 -31.15 -2.85 -31.35 -2.85 Q-31.9 -0.05 -31.9 2.15 -31.9 5.8 -29.6 5.8 L-27.9 5.55 -26.5 4.2 Q-26.05 3.5 -26.0 2.4 L-26.0 1.45 -25.85 1.35 -26.0 0.7 -25.95 0.7 -26.1 0.0 -26.1 -0.55 -26.0 -1.1 Q-26.05 -1.75 -26.25 -1.9 L-25.95 -3.25 Q-26.0 -4.3 -27.8 -5.05 L-28.2 -5.05 M-26.6 3.55 Q-26.6 4.15 -27.15 4.45 L-27.2 4.5 Q-27.55 4.3 -27.55 3.4 L-27.4 3.3 -27.3 2.6 Q-26.6 2.95 -26.6 3.55 M-22.1 3.55 L-22.6 3.9 -22.65 3.95 -22.9 3.5 -22.9 2.85 -22.75 2.75 -22.65 2.05 Q-22.0 2.4 -22.0 3.0 L-22.1 3.55 M-21.2 3.4 L-20.85 3.2 -20.75 3.45 -20.85 6.1 -21.15 6.75 -21.35 6.8 -21.55 6.8 -21.85 6.65 -21.7 6.15 -21.7 6.0 -21.5 4.9 -21.35 3.8 -21.2 3.4 M-10.85 -7.2 L-10.5 -6.95 Q-10.7 -7.0 -10.7 -6.45 L-11.2 -5.55 -11.6 -5.75 -11.6 -6.2 -11.7 -6.6 -11.85 -6.95 -11.6 -7.25 -11.25 -7.45 -10.85 -7.2 M-15.65 0.6 L-15.45 1.8 -15.5 2.45 -16.2 2.55 -16.45 2.3 -16.05 2.2 -16.25 1.45 -16.0 0.55 -15.65 0.6 M-13.8 3.8 Q-13.25 4.75 -13.25 5.15 -13.25 5.35 -13.6 5.6 -14.55 4.95 -15.05 3.8 L-14.95 3.8 -14.7 2.65 Q-14.3 2.95 -13.8 3.8 M1.55 -5.25 L1.3 -5.15 0.65 -5.25 0.05 -5.35 -0.1 -5.3 -0.45 -4.35 -0.8 -3.15 -1.35 -3.05 -0.75 -1.7 -0.9 -1.2 -0.65 0.25 -0.4 1.6 0.35 3.1 0.5 3.55 Q0.8 4.8 2.05 4.8 L4.65 4.5 Q5.5 4.05 5.5 2.45 L5.1 1.45 4.8 0.65 4.55 -0.15 5.1 -0.2 6.05 -0.2 6.7 -0.15 Q7.1 -0.15 7.35 0.3 7.5 0.75 8.0 0.75 L8.6 0.6 9.3 0.35 Q9.0 1.05 9.05 2.55 L9.15 4.5 9.2 6.45 8.6 6.6 Q7.8 6.25 7.25 5.0 6.7 5.9 5.05 6.5 L2.4 6.9 Q0.5 6.9 -1.35 5.9 L-1.1 6.4 -1.7 7.05 -2.75 5.9 -2.55 5.85 -2.45 5.1 -2.05 5.35 -2.9 3.95 Q-3.45 2.85 -3.45 2.05 -3.45 0.5 -3.7 -0.4 L-3.85 -0.55 -4.25 -0.5 -4.35 -0.55 -3.95 -1.95 Q-3.55 -2.85 -3.55 -3.3 L-3.7 -3.65 -3.85 -4.0 -3.6 -4.55 Q-4.2 -5.3 -4.65 -5.3 L-4.8 -5.35 Q-4.8 -5.55 -2.95 -6.55 L-0.75 -7.7 1.45 -8.05 5.0 -7.6 8.5 -7.2 8.65 -6.7 8.3 -5.8 8.0 -4.95 Q7.95 -4.8 8.25 -4.5 L8.55 -4.0 8.5 -3.3 7.45 -3.3 7.55 -3.2 7.25 -2.95 Q6.85 -3.0 6.85 -3.7 L5.95 -4.35 5.0 -4.85 4.8 -4.75 2.1 -5.2 1.6 -5.2 1.55 -5.25 M1.05 -4.2 Q1.7 -3.7 1.7 -2.55 L1.55 -2.1 1.25 -1.7 Q0.75 -1.8 0.75 -1.9 L0.75 -2.15 0.95 -2.75 0.95 -3.3 0.9 -3.85 1.05 -4.2 M-5.5 -6.35 L-5.6 -6.05 Q-5.3 -5.85 -5.3 -5.55 L-5.55 -5.2 Q-5.9 -5.4 -6.15 -6.35 L-5.95 -6.4 -5.85 -7.1 -5.5 -6.7 -5.5 -6.35 M-4.8 -0.8 Q-4.8 -0.35 -5.5 0.15 L-5.95 -0.4 -5.8 -0.6 -5.85 -0.95 -5.7 -1.0 -5.65 -1.75 -5.05 -1.4 -4.8 -0.8 M5.8 -2.65 L5.9 -2.05 5.45 -1.8 5.35 -2.65 5.45 -3.15 6.15 -3.15 Q5.75 -2.9 5.8 -2.65 M4.3 1.8 Q4.65 2.05 4.65 2.65 L4.65 3.05 4.6 3.45 4.55 3.7 4.4 3.65 4.2 3.7 4.0 3.8 3.65 3.55 3.8 2.0 4.05 2.3 4.15 2.05 4.3 1.8 M-30.9 1.65 L-30.5 1.75 -30.4 1.35 -30.0 1.9 -30.45 2.65 -30.7 2.85 -30.5 3.1 -30.3 3.55 -30.5 3.8 Q-31.3 3.35 -31.5 2.65 L-31.35 2.65 -31.2 1.85 -31.1 1.75 -30.95 1.6 -30.9 1.65 M8.15 7.8 L8.3 8.75 8.1 9.15 Q7.35 8.7 7.1 8.05 L7.3 7.95 7.4 7.2 8.15 7.8 M6.15 9.9 L5.85 9.35 5.7 8.65 5.9 8.55 5.95 7.85 Q6.7 8.25 6.75 8.7 6.7 9.55 6.15 9.9 M1.6 8.3 Q2.1 8.65 2.1 9.75 L2.05 10.0 1.95 10.0 1.7 10.0 1.55 10.05 1.2 9.9 1.45 9.4 1.45 9.25 1.55 8.8 1.6 8.3 M-0.15 7.85 L-0.3 7.55 -0.25 7.45 -0.1 7.5 0.45 7.2 0.6 7.8 0.7 8.3 0.45 9.05 0.1 8.75 -0.15 8.25 -0.05 8.05 -0.15 7.85 M-4.8 6.25 Q-5.2 6.0 -5.4 5.2 L-5.2 5.1 -5.15 4.4 -4.8 4.6 -4.6 4.8 -4.75 5.35 -4.6 5.85 -4.8 6.25" fill="#000000" fill-rule="evenodd" stroke="none"/>
    <path d="M33.75 3.05 L50.4 12.2 27.5 8.4 Q25.15 9.6 22.05 10.7 12.2 14.25 4.15 15.0 L-8.0 15.2 Q-25.6 15.15 -38.0 10.7 -50.45 6.3 -50.45 0.0 -50.45 -6.35 -38.0 -10.8 -25.6 -15.2 -8.0 -15.2 9.6 -15.2 22.05 -10.8 34.5 -6.35 34.5 0.0 34.5 1.55 33.75 3.05 Z" fill="none" stroke="#000000" stroke-linecap="round" stroke-linejoin="round" stroke-width="1.5"/>
  </g>
</svg>
