<?xml version="1.0" encoding="UTF-8" standalone="no"?>
<svg xmlns:ffdec="https://www.free-decompiler.com/flash" xmlns:xlink="http://www.w3.org/1999/xlink" ffdec:objectType="shape" height="227.9px" width="250.75px" xmlns="http://www.w3.org/2000/svg">
  <g transform="matrix(1.0, 0.0, 0.0, 1.0, 130.6, 75.65)">
    <path d="M1.5 44.0 L1.15 44.2 -1.0 44.25 -0.95 44.0 1.5 44.0 -0.95 44.0 -1.0 44.25 Q-5.5 44.1 -9.7 42.45 -23.25 42.5 -32.65 39.6 L-35.0 39.05 -35.8 38.85 Q-35.85 37.4 -35.25 36.4 L-34.15 35.3 Q-34.0 35.15 -33.8 35.1 L-33.4 34.9 -32.95 34.75 -29.2 34.15 Q-26.75 33.9 -25.55 34.95 L-23.65 36.8 -19.6 36.0 Q-17.5 35.8 -14.75 36.75 -12.0 37.7 -10.2 38.65 -9.4 37.8 -7.65 37.25 -5.95 36.7 -3.6 37.25 -1.25 37.8 0.3 40.1 L1.35 42.25 1.4 42.35 1.55 43.85 1.55 43.9 1.5 44.0" fill="#e6e6e6" fill-rule="evenodd" stroke="none"/>
    <path d="M-1.0 44.25 L1.15 44.2 1.5 44.0 1.55 43.9 -2.7 56.15 -3.25 56.9 -5.0 59.2 Q-5.0 60.0 -4.45 60.9 L-8.65 72.65 -5.45 72.8 -1.25 72.45 -2.05 63.3 -2.45 63.0 Q-1.2 60.3 0.65 60.05 L0.65 60.95 1.25 62.6 1.4 63.1 3.3 69.4 3.75 71.9 3.85 73.25 3.85 75.35 1.85 77.1 Q-0.95 79.75 -1.9 79.95 -2.55 80.1 -3.9 80.8 -6.35 82.7 -8.9 83.7 L-9.55 84.0 -3.9 80.8 -9.55 84.0 -14.0 84.25 Q-15.85 83.9 -15.1 86.55 -14.4 89.2 -18.15 95.9 -19.5 99.05 -17.65 101.75 -15.85 104.4 -15.9 107.45 -16.05 115.1 -14.8 119.7 L-11.4 131.1 Q-10.05 136.25 -9.8 140.9 L-9.8 143.95 -9.6 144.65 -13.25 144.8 -13.45 144.75 -13.75 144.75 Q-13.85 142.8 -16.3 128.7 -16.5 127.6 -18.1 123.95 -19.55 120.7 -19.55 118.7 -22.5 110.7 -22.7 108.55 -24.65 108.65 -25.75 108.0 L-29.0 108.0 -29.25 107.45 -31.85 107.1 -32.1 106.95 Q-33.8 110.45 -41.6 123.75 -46.4 131.95 -47.65 138.7 L-46.75 138.9 -47.7 138.8 Q-49.2 138.5 -51.7 137.4 L-52.15 137.2 -51.55 134.7 Q-50.85 131.3 -50.2 130.2 L-47.95 125.25 Q-46.25 121.3 -45.1 119.85 -43.85 118.35 -42.45 114.6 -40.95 110.4 -40.3 109.35 -36.95 103.8 -33.95 97.65 L-34.1 95.75 Q-34.1 91.65 -31.9 90.9 -31.9 89.0 -32.35 88.2 L-32.35 81.45 -31.95 81.25 -32.2 81.2 Q-35.3 80.0 -39.2 77.4 -45.8 73.35 -45.8 71.05 -45.8 68.9 -44.3 66.6 -41.85 62.85 -41.35 61.8 -40.9 60.75 -40.2 57.9 L-35.05 61.1 Q-36.3 64.7 -39.35 68.25 -38.65 69.25 -36.8 69.4 -34.75 69.55 -34.1 70.1 L-31.75 69.85 -31.2 69.6 Q-28.9 69.6 -28.0 70.1 L-26.25 71.35 -25.65 71.85 -25.15 71.8 -25.05 71.9 Q-24.0 73.4 -22.15 73.65 -18.65 74.1 -17.05 73.25 L-16.85 73.1 -15.7 73.7 -14.45 74.15 Q-12.7 72.75 -9.5 72.65 L-9.45 72.65 -8.65 72.65 -9.45 72.4 -1.0 44.25 M-32.65 39.6 L-31.15 68.9 -31.85 69.0 -35.0 39.05 -32.65 39.6 M-30.85 81.6 L-31.95 81.25 -30.85 81.6" fill="#333333" fill-rule="evenodd" stroke="none"/>
    <path d="M-25.15 71.8 L-25.25 71.55 Q-26.3 69.8 -26.45 66.65 L-26.5 65.95 -26.55 63.65 -26.25 61.5 Q-25.2 58.3 -20.65 58.3 -16.5 58.3 -15.45 63.45 -15.2 64.85 -15.1 66.65 L-15.1 67.35 Q-15.15 71.6 -16.6 72.9 L-16.85 73.1 -17.05 73.25 Q-18.65 74.1 -22.15 73.65 -24.0 73.4 -25.05 71.9 L-25.15 71.8 M-2.7 56.15 Q-2.25 55.7 -1.55 55.7 0.4 55.7 0.5 57.2 L0.65 60.05 Q-1.2 60.3 -2.45 63.0 -3.85 61.9 -4.45 60.9 -5.0 60.0 -5.0 59.2 L-3.25 56.9 -2.7 56.15 M-40.2 57.9 L-40.0 56.9 Q-39.55 56.05 -38.0 54.9 -36.4 53.7 -35.7 53.7 -34.4 53.7 -34.0 54.05 -33.6 54.35 -33.25 56.05 -32.95 57.8 -35.05 61.1 L-40.2 57.9" fill="#ffcccc" fill-rule="evenodd" stroke="none"/>
    <path d="M-26.45 66.65 L-26.5 66.6 -26.5 66.2 -26.55 65.95 -27.1 65.95 Q-27.1 65.55 -27.35 65.35 L-27.35 64.85 -27.4 64.4 -27.55 61.35 Q-27.55 58.45 -25.5 57.2 -23.5 55.95 -20.45 56.15 -17.4 56.3 -16.0 57.25 -13.65 60.5 -14.05 63.35 -14.45 66.2 -15.1 66.65 -15.2 64.85 -15.45 63.45 -16.5 58.3 -20.65 58.3 -25.2 58.3 -26.25 61.5 L-26.55 63.65 -26.5 65.95 -26.45 66.65 M-26.55 65.95 L-26.5 65.95 -26.55 65.95" fill="#000000" fill-rule="evenodd" stroke="none"/>
    <path d="M-7.5 143.45 L-7.45 145.8 -5.95 147.7 Q-4.6 149.35 -4.6 150.2 -4.6 152.25 -7.5 152.25 -10.35 152.25 -11.9 150.2 L-13.5 150.2 -13.6 149.1 -13.25 144.8 -9.6 144.65 -9.3 144.55 Q-8.3 144.1 -7.5 143.45 M-45.7 138.6 L-45.55 143.9 Q-45.9 144.85 -47.1 145.05 -49.0 145.3 -49.7 145.65 -50.15 145.85 -50.4 146.5 -50.65 147.05 -51.55 147.3 L-54.5 147.45 -56.6 147.45 Q-58.0 147.25 -58.0 146.05 -52.9 139.75 -51.7 137.45 L-51.7 137.4 Q-49.2 138.5 -47.7 138.8 L-46.75 138.9 -45.7 138.6" fill="#999999" fill-rule="evenodd" stroke="none"/>
    <path d="M-7.75 140.8 L-7.45 143.4 -7.5 143.45 Q-8.3 144.1 -9.3 144.55 L-9.6 144.65 -9.8 143.95 -9.8 140.9 -7.75 140.8" fill="#666666" fill-rule="evenodd" stroke="none"/>
    <path d="M-9.55 84.0 L-11.9 85.05 -11.9 85.2 Q-11.9 86.9 -12.95 90.4 -13.95 93.75 -14.55 94.3 L-14.65 94.35 -14.45 94.35 Q-14.3 94.95 -14.3 96.05 L-14.9 97.8 -14.95 98.0 Q-11.75 104.95 -11.6 115.65 -11.5 118.3 -10.75 121.4 L-9.65 124.6 Q-8.95 126.4 -8.5 129.0 -8.2 131.1 -8.0 136.6 L-7.75 140.8 -9.8 140.9 Q-10.05 136.25 -11.4 131.1 L-14.8 119.7 Q-16.05 115.1 -15.9 107.45 -15.85 104.4 -17.65 101.75 -19.5 99.05 -18.15 95.9 -14.4 89.2 -15.1 86.55 -15.85 83.9 -14.0 84.25 L-9.55 84.0 M-29.0 108.0 Q-29.3 109.05 -33.25 114.8 -35.2 119.4 -37.45 122.6 L-41.4 132.15 Q-43.8 137.45 -45.7 138.6 L-46.75 138.9 -47.65 138.7 Q-46.4 131.95 -41.6 123.75 -33.8 110.45 -32.1 106.95 L-31.85 107.1 -29.25 107.45 -29.0 108.0 M-15.65 99.6 L-14.95 98.0 -15.65 99.6" fill="#595959" fill-rule="evenodd" stroke="none"/>
    <path d="M-26.25 71.35 L-25.65 71.85 -25.15 71.8 -25.25 71.55 Q-26.3 69.8 -26.45 66.65 L-26.5 66.6 -26.5 66.2 -26.55 65.95 -27.1 65.95 Q-27.1 65.55 -27.35 65.35 L-27.35 64.85 -27.4 64.4 -27.55 61.35 Q-27.55 58.45 -25.5 57.2 -23.5 55.95 -20.45 56.15 -17.4 56.3 -16.0 57.25 -13.65 60.5 -14.05 63.35 -14.45 66.2 -15.1 66.65 L-15.1 67.35 Q-15.15 71.6 -16.6 72.9 L-16.85 73.1 -17.05 73.25 M-15.1 66.65 Q-15.2 64.85 -15.45 63.45 -16.5 58.3 -20.65 58.3 -25.2 58.3 -26.25 61.5 L-26.55 63.65 -26.5 65.95 -26.45 66.65 M-26.5 65.95 L-26.55 65.95 M-25.15 71.8 L-25.05 71.9" fill="none" stroke="#000000" stroke-linecap="round" stroke-linejoin="round" stroke-width="0.05"/>
    <path d="M1.35 42.25 L1.5 41.8" fill="none" stroke="#666666" stroke-linecap="round" stroke-linejoin="round" stroke-width="0.05"/>
    <path d="M1.5 41.8 L19.95 -68.5 M-1.0 44.25 L1.15 44.2 1.5 44.0 -0.95 44.0 -1.0 44.25 Q-5.5 44.1 -9.7 42.45 -23.25 42.5 -32.65 39.6 L-31.15 68.9 M-31.85 69.0 L-31.75 69.85 -31.2 69.6 Q-28.9 69.6 -28.0 70.1 L-26.25 71.35 M-16.85 73.1 L-15.7 73.7 -14.45 74.15 Q-12.7 72.75 -9.5 72.65 L-9.45 72.4 -1.0 44.25 M1.55 43.9 L1.55 43.85 1.4 42.35 1.35 42.25 0.3 40.1 Q-1.25 37.8 -3.6 37.25 -5.95 36.7 -7.65 37.25 -9.4 37.8 -10.2 38.65 -12.0 37.7 -14.75 36.75 -17.5 35.8 -19.6 36.0 L-23.65 36.8 -25.55 34.95 Q-26.75 33.9 -29.2 34.15 L-32.95 34.75 -33.4 34.9 -33.8 35.1 Q-34.0 35.15 -34.15 35.3 L-35.25 36.4 Q-35.85 37.4 -35.8 38.85 L-35.0 39.05 -32.65 39.6 M1.5 44.0 L1.55 43.9 -2.7 56.15 Q-2.25 55.7 -1.55 55.7 0.4 55.7 0.5 57.2 L0.65 60.05 0.65 60.95 1.25 62.6 M1.4 63.1 L3.3 69.4 3.75 71.9 3.85 73.25 3.85 75.35 1.85 77.1 Q-0.95 79.75 -1.9 79.95 -2.55 80.1 -3.9 80.8 L-9.55 84.0 -11.9 85.05 M-11.9 85.2 Q-11.9 86.9 -12.95 90.4 -13.95 93.75 -14.55 94.3 L-14.65 94.35 -14.45 94.35 Q-14.3 94.95 -14.3 96.05 L-14.9 97.8 -14.95 98.0 Q-11.75 104.95 -11.6 115.65 -11.5 118.3 -10.75 121.4 L-9.65 124.6 Q-8.95 126.4 -8.5 129.0 -8.2 131.1 -8.0 136.6 L-7.75 140.8 -7.45 143.4 -7.5 143.45 -7.45 145.8 -5.95 147.7 Q-4.6 149.35 -4.6 150.2 -4.6 152.25 -7.5 152.25 -10.35 152.25 -11.9 150.2 L-13.5 150.2 -13.6 149.1 -13.25 144.8 -13.45 144.75 -13.75 144.75 Q-13.85 142.8 -16.3 128.7 -16.5 127.6 -18.1 123.95 -19.55 120.7 -19.55 118.7 -22.5 110.7 -22.7 108.55 -24.65 108.65 -25.75 108.0 L-29.0 108.0 Q-29.3 109.05 -33.25 114.8 -35.2 119.4 -37.45 122.6 L-41.4 132.15 Q-43.8 137.45 -45.7 138.6 L-45.55 143.9 Q-45.9 144.85 -47.1 145.05 -49.0 145.3 -49.7 145.65 -50.15 145.85 -50.4 146.5 -50.65 147.05 -51.55 147.3 L-54.5 147.45 -56.6 147.45 Q-58.0 147.25 -58.0 146.05 -52.9 139.75 -51.7 137.45 L-51.7 137.4 -52.15 137.2 -51.55 134.7 Q-50.85 131.3 -50.2 130.2 L-47.95 125.25 Q-46.25 121.3 -45.1 119.85 -43.85 118.35 -42.45 114.6 -40.95 110.4 -40.3 109.35 -36.95 103.8 -33.95 97.65 L-34.1 95.75 Q-34.1 91.65 -31.9 90.9 -31.9 89.0 -32.35 88.2 L-32.35 81.45 -31.95 81.25 -32.2 81.2 Q-35.3 80.0 -39.2 77.4 -45.8 73.35 -45.8 71.05 -45.8 68.9 -44.3 66.6 -41.85 62.85 -41.35 61.8 -40.9 60.75 -40.2 57.9 L-40.0 56.9 Q-39.55 56.05 -38.0 54.9 -36.4 53.7 -35.7 53.7 -34.4 53.7 -34.0 54.05 -33.6 54.35 -33.25 56.05 -32.95 57.8 -35.05 61.1 -36.3 64.7 -39.35 68.25 -38.65 69.25 -36.8 69.4 -34.75 69.55 -34.1 70.1 L-31.75 69.85 M-2.7 56.15 L-3.25 56.9 -5.0 59.2 Q-5.0 60.0 -4.45 60.9 -3.85 61.9 -2.45 63.0 L-2.05 63.3 -1.25 72.45 -5.45 72.8 -8.65 72.65 -9.45 72.65 -9.5 72.65 M-8.65 72.65 L-4.45 60.9 M-31.95 81.25 L-30.85 81.6 M-31.85 69.0 L-35.0 39.05 M-9.6 144.65 L-9.3 144.55 Q-8.3 144.1 -7.5 143.45 M-9.6 144.65 L-13.25 144.8 M-45.7 138.6 L-46.75 138.9 -47.7 138.8 Q-49.2 138.5 -51.7 137.4 M-14.95 98.0 L-15.65 99.6 M-32.95 34.75 L-12.15 -73.0 M-33.4 34.9 L-44.9 -75.65 M-33.8 35.1 L-73.95 -67.65 M-34.15 35.3 L-102.85 -56.0 M-35.25 36.4 L-130.6 -39.05 M1.5 41.8 L48.25 -60.5 M1.4 42.35 L76.3 -46.2 M120.15 -6.95 L1.7 43.2 100.3 -28.3" fill="none" stroke="#000000" stroke-linecap="round" stroke-linejoin="round" stroke-width="0.05"/>
    <path d="M-18.9 62.55 Q-18.45 62.55 -18.15 62.9 -17.8 63.25 -17.8 63.65 -17.8 64.1 -18.15 64.4 -18.45 64.75 -18.9 64.75 -19.3 64.75 -19.65 64.4 L-19.95 63.65 -19.65 62.9 Q-19.3 62.55 -18.9 62.55 M-22.6 63.65 Q-22.6 64.1 -22.95 64.4 -23.25 64.75 -23.7 64.75 L-24.45 64.4 -24.75 63.65 -24.45 62.9 Q-24.1 62.55 -23.7 62.55 -23.25 62.55 -22.95 62.9 -22.6 63.25 -22.6 63.65" fill="#000000" fill-rule="evenodd" stroke="none"/>
    <path d="M-21.75 65.35 L-22.85 69.15" fill="none" stroke="#666666" stroke-linecap="round" stroke-linejoin="round" stroke-width="0.05"/>
    <path d="M-22.85 69.15 L-20.95 69.15" fill="none" stroke="#666666" stroke-linecap="round" stroke-linejoin="round" stroke-width="0.05"/>
  </g>
</svg>
