<?xml version="1.0" encoding="UTF-8" standalone="no"?>
<svg xmlns:ffdec="https://www.free-decompiler.com/flash" xmlns:xlink="http://www.w3.org/1999/xlink" ffdec:objectType="shape" height="311.05px" width="995.9px" xmlns="http://www.w3.org/2000/svg">
  <g transform="matrix(1.0, 0.0, 0.0, 1.0, 497.95, 155.5)">
    <path d="M285.3 -14.45 L285.3 -14.4 285.25 -14.45 285.3 -14.45" fill="#cf1226" fill-rule="evenodd" stroke="none"/>
    <path d="M285.25 -14.45 L285.3 -14.4 285.3 -14.45 409.1 -139.85 Q421.05 -151.05 447.35 -153.05 L487.0 -154.0 463.2 -104.1 462.95 -104.2 Q439.85 -73.1 413.55 -64.45 388.2 -56.2 372.9 -48.8 364.9 -44.9 359.6 -41.25 338.3 -27.85 325.5 -7.15 L313.6 -17.4 Q324.85 -17.95 324.65 -26.45 315.15 -23.05 308.05 -22.75 296.6 -15.6 287.25 -12.45 291.35 -4.8 309.05 -5.45 320.7 9.25 329.7 13.4 333.05 14.55 336.4 15.05 L337.5 15.0 343.1 14.45 344.3 13.5 349.65 15.35 Q352.25 26.15 328.1 34.3 285.75 30.0 243.35 27.75 L253.95 17.1 255.8 15.25 256.5 14.65 285.25 -14.45 M364.35 38.3 Q360.45 20.85 367.4 2.0 374.05 -12.25 393.75 -24.4 L423.75 -45.8 427.45 -48.8 Q438.7 -58.3 446.9 -69.9 L393.45 42.05 364.35 38.3" fill="#ff0000" fill-rule="evenodd" stroke="none"/>
    <path d="M328.1 34.3 Q352.25 26.15 349.65 15.35 346.75 3.6 337.0 6.0 330.95 8.4 335.2 10.1 L341.15 10.25 Q344.7 9.65 344.7 11.75 344.7 12.85 344.3 13.5 L343.1 14.45 337.5 15.0 336.4 15.05 Q333.05 14.55 329.7 13.4 320.7 9.25 309.05 -5.45 291.35 -4.8 287.25 -12.45 296.6 -15.6 308.05 -22.75 315.15 -23.05 324.65 -26.45 324.85 -17.95 313.6 -17.4 L325.5 -7.15 Q338.3 -27.85 359.6 -41.25 364.9 -44.9 372.9 -48.8 388.2 -56.2 413.55 -64.45 439.85 -73.1 462.95 -104.2 L462.45 -102.55 446.9 -69.9 Q438.7 -58.3 427.45 -48.8 L423.75 -45.8 393.75 -24.4 Q374.05 -12.25 367.4 2.0 360.45 20.85 364.35 38.3 L328.1 34.3 M-120.15 104.6 L-119.1 104.3 -119.1 104.75 -120.15 104.6" fill="#ffffff" fill-rule="evenodd" stroke="none"/>
    <path d="M253.95 17.1 L243.35 27.75 242.4 27.7 229.45 27.05 220.45 26.7 229.45 27.05 242.4 27.7 242.9 28.2 224.7 45.9 224.05 45.55 223.45 45.45 222.05 45.45 Q221.25 45.45 220.65 46.05 220.05 46.65 220.05 47.45 L220.05 50.45 199.2 70.75 198.15 70.75 Q162.55 70.9 127.2 71.65 L12.7 75.4 -74.65 84.75 -75.15 84.05 Q-75.75 83.45 -76.55 83.45 L-77.95 83.45 Q-78.75 83.45 -79.35 84.05 -79.9 84.6 -79.95 85.35 L-84.55 85.8 -84.55 85.45 Q-84.55 84.65 -85.15 84.05 -85.75 83.45 -86.55 83.45 L-87.95 83.45 Q-88.75 83.45 -89.35 84.05 -89.95 84.65 -89.95 85.45 L-89.95 86.4 -94.55 86.9 -94.55 85.45 Q-94.55 84.65 -95.15 84.05 -95.75 83.45 -96.55 83.45 L-97.95 83.45 Q-98.75 83.45 -99.35 84.05 -99.95 84.65 -99.95 85.45 L-99.95 87.45 -104.55 87.95 -104.55 85.45 Q-104.55 84.65 -105.15 84.05 -105.75 83.45 -106.55 83.45 L-107.95 83.45 Q-108.75 83.45 -109.35 84.05 -109.95 84.65 -109.95 85.45 L-109.95 88.55 -114.55 89.05 -114.55 85.45 Q-114.55 84.65 -115.15 84.05 -115.75 83.45 -116.55 83.45 L-117.95 83.45 Q-118.75 83.45 -119.35 84.05 -119.95 84.65 -119.95 85.45 L-119.95 89.6 -124.55 90.1 -124.55 89.9 -124.55 85.45 Q-124.55 84.65 -125.15 84.05 -125.75 83.45 -126.55 83.45 L-127.95 83.45 Q-128.75 83.45 -129.35 84.05 -129.95 84.65 -129.95 85.45 L-129.95 89.9 -129.75 90.65 -134.6 91.15 -135.1 91.2 Q-134.55 90.65 -134.55 89.9 L-134.55 85.45 Q-134.55 84.65 -135.15 84.05 -135.75 83.45 -136.55 83.45 L-137.95 83.45 Q-138.75 83.45 -139.35 84.05 -139.95 84.65 -139.95 85.45 L-139.95 89.9 Q-139.95 90.65 -139.35 91.25 L-139.3 91.7 -146.45 92.6 -146.55 91.85 -146.5 92.6 -149.4 93.0 Q-175.2 96.2 -196.95 99.8 L-219.4 103.8 Q-244.1 109.75 -247.2 115.35 L-247.2 115.45 Q-260.7 118.3 -262.05 125.5 -262.15 132.35 -236.8 137.05 -375.55 137.7 -435.8 131.2 -497.1 124.6 -496.45 101.5 L-496.25 99.8 Q-494.15 87.35 -470.0 76.45 -447.8 52.25 -416.1 40.05 -383.85 27.6 -299.0 25.9 L213.05 26.4 216.9 26.55 217.9 26.6 229.45 25.6 Q235.6 24.7 240.95 22.95 L241.75 22.65 Q248.35 20.35 253.65 16.8 L253.95 17.1 M451.15 50.95 L451.25 65.45 414.65 76.4 404.15 66.2 451.15 50.95 M391.25 48.65 L393.95 42.3 394.05 42.15 411.9 44.7 391.25 48.65 M220.45 26.7 L217.9 26.6 220.45 26.7 M194.45 75.35 L186.45 83.2 186.45 83.45 185.3 83.45 185.1 83.45 Q184.4 83.55 183.9 84.05 183.4 84.55 183.35 85.2 L183.3 85.45 183.3 86.2 179.1 90.3 178.7 89.9 178.7 85.45 Q178.7 84.65 178.1 84.05 177.5 83.45 176.7 83.45 L175.3 83.45 Q174.5 83.45 173.9 84.05 173.3 84.65 173.3 85.45 L173.3 89.9 Q173.3 90.65 173.9 91.25 174.5 91.85 175.3 91.85 L176.7 91.85 177.4 91.75 177.5 91.85 158.0 110.8 133.25 134.9 132.1 135.05 109.15 137.3 Q130.25 130.4 129.45 123.75 124.85 111.5 64.7 104.95 L64.25 104.9 64.3 102.65 Q75.75 103.0 84.45 102.5 101.9 101.45 108.15 96.75 L109.1 96.75 110.8 96.65 Q120.2 95.9 127.2 94.4 132.65 93.25 136.65 91.6 L140.0 91.25 Q152.5 89.85 153.05 87.8 L152.95 87.2 Q150.1 84.05 133.7 81.15 L133.7 80.75 194.45 75.35 M-146.55 91.85 Q-145.75 91.85 -145.15 91.25 -144.55 90.65 -144.55 89.9 L-144.55 85.45 Q-144.55 84.65 -145.15 84.05 -145.75 83.45 -146.55 83.45 L-147.95 83.45 Q-148.75 83.45 -149.35 84.05 L-149.4 84.1 Q-149.95 84.7 -149.95 85.45 L-149.95 89.9 Q-149.95 90.65 -149.4 91.2 L-149.35 91.25 Q-148.75 91.85 -147.95 91.85 L-146.55 91.85 M203.45 45.45 L202.05 45.45 Q201.25 45.45 200.65 46.05 200.05 46.65 200.05 47.45 L200.05 51.9 Q200.05 52.65 200.65 53.25 201.25 53.85 202.05 53.85 L203.45 53.85 Q204.25 53.85 204.85 53.25 205.45 52.65 205.45 51.9 L205.45 47.45 Q205.45 46.65 204.85 46.05 204.25 45.45 203.45 45.45 M210.65 46.05 Q210.05 46.65 210.05 47.45 L210.05 51.9 Q210.05 52.65 210.65 53.25 211.25 53.85 212.05 53.85 L213.45 53.85 Q214.25 53.85 214.85 53.25 215.45 52.65 215.45 51.9 L215.45 47.45 Q215.45 46.65 214.85 46.05 214.25 45.45 213.45 45.45 L212.05 45.45 Q211.25 45.45 210.65 46.05 M176.1 38.75 Q177.6 40.25 177.6 42.3 L177.6 56.5 Q177.6 58.55 176.1 60.0 174.65 61.5 172.6 61.5 L168.2 61.5 Q166.15 61.5 164.65 60.0 163.2 58.55 163.2 56.5 L163.2 42.3 Q163.2 40.25 164.65 38.75 166.15 37.3 168.2 37.3 L172.6 37.3 Q174.65 37.3 176.1 38.75 174.65 37.3 172.6 37.3 L168.2 37.3 Q166.15 37.3 164.65 38.75 163.2 40.25 163.2 42.3 L163.2 56.5 Q163.2 58.55 164.65 60.0 166.15 61.5 168.2 61.5 L172.6 61.5 Q174.65 61.5 176.1 60.0 177.6 58.55 177.6 56.5 L177.6 42.3 Q177.6 40.25 176.1 38.75 M193.45 45.45 L192.05 45.45 Q191.25 45.45 190.65 46.05 190.05 46.65 190.05 47.45 L190.05 51.9 Q190.05 52.65 190.65 53.25 191.25 53.85 192.05 53.85 L193.45 53.85 Q194.25 53.85 194.85 53.25 195.45 52.65 195.45 51.9 L195.45 47.45 Q195.45 46.65 194.85 46.05 194.25 45.45 193.45 45.45 M163.3 85.45 L163.3 89.9 Q163.3 90.65 163.9 91.25 164.5 91.85 165.3 91.85 L166.7 91.85 Q167.5 91.85 168.1 91.25 168.7 90.65 168.7 89.9 L168.7 85.45 Q168.7 84.65 168.1 84.05 167.5 83.45 166.7 83.45 L165.3 83.45 Q164.5 83.45 163.9 84.05 163.3 84.65 163.3 85.45 M130.05 47.45 L130.05 51.9 Q130.05 52.65 130.65 53.25 131.25 53.85 132.05 53.85 L133.45 53.85 Q134.25 53.85 134.85 53.25 135.45 52.65 135.45 51.9 L135.45 47.45 Q135.45 46.65 134.85 46.05 134.25 45.45 133.45 45.45 L132.05 45.45 Q131.25 45.45 130.65 46.05 130.05 46.65 130.05 47.45 M122.05 45.45 Q121.25 45.45 120.65 46.05 120.05 46.65 120.05 47.45 L120.05 51.9 Q120.05 52.65 120.65 53.25 121.25 53.85 122.05 53.85 L123.45 53.85 Q124.25 53.85 124.85 53.25 125.45 52.65 125.45 51.9 L125.45 47.45 Q125.45 46.65 124.85 46.05 124.25 45.45 123.45 45.45 L122.05 45.45 M140.05 47.45 L140.05 51.9 Q140.05 52.65 140.65 53.25 141.25 53.85 142.05 53.85 L143.45 53.85 Q144.25 53.85 144.85 53.25 145.45 52.65 145.45 51.9 L145.45 47.45 Q145.45 46.65 144.85 46.05 144.25 45.45 143.45 45.45 L142.05 45.45 Q141.25 45.45 140.65 46.05 140.05 46.65 140.05 47.45 M152.05 45.45 Q151.25 45.45 150.65 46.05 150.05 46.65 150.05 47.45 L150.05 51.9 Q150.05 52.65 150.65 53.25 151.25 53.85 152.05 53.85 L153.45 53.85 Q154.25 53.85 154.85 53.25 155.45 52.65 155.45 51.9 L155.45 47.45 Q155.45 46.65 154.85 46.05 154.25 45.45 153.45 45.45 L152.05 45.45 M90.05 47.45 L90.05 51.9 Q90.05 52.65 90.65 53.25 91.25 53.85 92.05 53.85 L93.45 53.85 Q94.25 53.85 94.85 53.25 95.45 52.65 95.45 51.9 L95.45 47.45 Q95.45 46.65 94.85 46.05 94.25 45.45 93.45 45.45 L92.05 45.45 Q91.25 45.45 90.65 46.05 90.05 46.65 90.05 47.45 M82.05 45.45 Q81.25 45.45 80.65 46.05 80.05 46.65 80.05 47.45 L80.05 51.9 Q80.05 52.65 80.65 53.25 81.25 53.85 82.05 53.85 L83.45 53.85 Q84.25 53.85 84.85 53.25 85.45 52.65 85.45 51.9 L85.45 47.45 Q85.45 46.65 84.85 46.05 84.25 45.45 83.45 45.45 L82.05 45.45 M100.05 47.45 L100.05 51.9 Q100.05 52.65 100.65 53.25 101.25 53.85 102.05 53.85 L103.45 53.85 Q104.25 53.85 104.85 53.25 105.45 52.65 105.45 51.9 L105.45 47.45 Q105.45 46.65 104.85 46.05 104.25 45.45 103.45 45.45 L102.05 45.45 Q101.25 45.45 100.65 46.05 100.05 46.65 100.05 47.45 M110.05 47.45 L110.05 51.9 Q110.05 52.65 110.65 53.25 111.25 53.85 112.05 53.85 L113.45 53.85 Q114.25 53.85 114.85 53.25 115.45 52.65 115.45 51.9 L115.45 47.45 Q115.45 46.65 114.85 46.05 114.25 45.45 113.45 45.45 L112.05 45.45 Q111.25 45.45 110.65 46.05 110.05 46.65 110.05 47.45 M156.7 83.45 L155.3 83.45 Q154.5 83.45 153.9 84.05 153.3 84.65 153.3 85.45 L153.3 89.9 Q153.3 90.65 153.9 91.25 154.5 91.85 155.3 91.85 L156.7 91.85 Q157.5 91.85 158.1 91.25 158.7 90.65 158.7 89.9 L158.7 85.45 Q158.7 84.65 158.1 84.05 157.5 83.45 156.7 83.45 M44.45 42.25 Q44.45 40.2 45.9 38.7 47.4 37.25 49.45 37.25 L53.85 37.25 Q55.9 37.25 57.35 38.7 58.85 40.2 58.85 42.25 L58.85 56.45 Q58.85 58.5 57.35 59.95 55.9 61.45 53.85 61.45 L49.45 61.45 Q47.4 61.45 45.9 59.95 44.45 58.5 44.45 56.45 L44.45 42.25 44.45 56.45 Q44.45 58.5 45.9 59.95 47.4 61.45 49.45 61.45 L53.85 61.45 Q55.9 61.45 57.35 59.95 58.85 58.5 58.85 56.45 L58.85 42.25 Q58.85 40.2 57.35 38.7 55.9 37.25 53.85 37.25 L49.45 37.25 Q47.4 37.25 45.9 38.7 44.45 40.2 44.45 42.25 M70.05 47.45 L70.05 51.9 Q70.05 52.65 70.65 53.25 71.25 53.85 72.05 53.85 L73.45 53.85 Q74.25 53.85 74.85 53.25 75.45 52.65 75.45 51.9 L75.45 47.45 Q75.45 46.65 74.85 46.05 74.25 45.45 73.45 45.45 L72.05 45.45 Q71.25 45.45 70.65 46.05 70.05 46.65 70.05 47.45 M1.65 46.05 Q1.05 46.65 1.05 47.45 L1.05 51.9 Q1.05 52.65 1.65 53.25 2.25 53.85 3.05 53.85 L4.45 53.85 Q5.25 53.85 5.85 53.25 6.45 52.65 6.45 51.9 L6.45 47.45 Q6.45 46.65 5.85 46.05 5.25 45.45 4.45 45.45 L3.05 45.45 Q2.25 45.45 1.65 46.05 M11.05 47.45 L11.05 51.9 Q11.05 52.65 11.65 53.25 12.25 53.85 13.05 53.85 L14.45 53.85 Q15.25 53.85 15.85 53.25 16.45 52.65 16.45 51.9 L16.45 47.45 Q16.45 46.65 15.85 46.05 15.25 45.45 14.45 45.45 L13.05 45.45 Q12.25 45.45 11.65 46.05 11.05 46.65 11.05 47.45 M21.65 46.05 Q21.05 46.65 21.05 47.45 L21.05 51.9 Q21.05 52.65 21.65 53.25 22.25 53.85 23.05 53.85 L24.45 53.85 Q25.25 53.85 25.85 53.25 26.45 52.65 26.45 51.9 L26.45 47.45 Q26.45 46.65 25.85 46.05 25.25 45.45 24.45 45.45 L23.05 45.45 Q22.25 45.45 21.65 46.05 M31.05 47.45 L31.05 51.9 Q31.05 52.65 31.65 53.25 32.25 53.85 33.05 53.85 L34.45 53.85 Q35.25 53.85 35.85 53.25 36.45 52.65 36.45 51.9 L36.45 47.45 Q36.45 46.65 35.85 46.05 35.25 45.45 34.45 45.45 L33.05 45.45 Q32.25 45.45 31.65 46.05 31.05 46.65 31.05 47.45 M-38.35 46.05 Q-38.95 46.65 -38.95 47.45 L-38.95 51.9 Q-38.95 52.65 -38.35 53.25 -37.75 53.85 -36.95 53.85 L-35.55 53.85 Q-34.75 53.85 -34.15 53.25 -33.55 52.65 -33.55 51.9 L-33.55 47.45 Q-33.55 46.65 -34.15 46.05 -34.75 45.45 -35.55 45.45 L-36.95 45.45 Q-37.75 45.45 -38.35 46.05 M-26.95 45.45 Q-27.75 45.45 -28.35 46.05 -28.95 46.65 -28.95 47.45 L-28.95 51.9 Q-28.95 52.65 -28.35 53.25 -27.75 53.85 -26.95 53.85 L-25.55 53.85 Q-24.75 53.85 -24.15 53.25 -23.55 52.65 -23.55 51.9 L-23.55 47.45 Q-23.55 46.65 -24.15 46.05 -24.75 45.45 -25.55 45.45 L-26.95 45.45 M-18.35 46.05 Q-18.95 46.65 -18.95 47.45 L-18.95 51.9 Q-18.95 52.65 -18.35 53.25 -17.75 53.85 -16.95 53.85 L-15.55 53.85 Q-14.75 53.85 -14.15 53.25 -13.55 52.65 -13.55 51.9 L-13.55 47.45 Q-13.55 46.65 -14.15 46.05 -14.75 45.45 -15.55 45.45 L-16.95 45.45 Q-17.75 45.45 -18.35 46.05 M-6.95 45.45 Q-7.75 45.45 -8.35 46.05 -8.95 46.65 -8.95 47.45 L-8.95 51.9 Q-8.95 52.65 -8.35 53.25 -7.75 53.85 -6.95 53.85 L-5.55 53.85 Q-4.75 53.85 -4.15 53.25 -3.55 52.65 -3.55 51.9 L-3.55 47.45 Q-3.55 46.65 -4.15 46.05 -4.75 45.45 -5.55 45.45 L-6.95 45.45 M-78.35 46.05 Q-78.95 46.65 -78.95 47.45 L-78.95 51.9 Q-78.95 52.65 -78.35 53.25 -77.75 53.85 -76.95 53.85 L-75.55 53.85 Q-74.75 53.85 -74.15 53.25 -73.55 52.65 -73.55 51.9 L-73.55 47.45 Q-73.55 46.65 -74.15 46.05 -74.75 45.45 -75.55 45.45 L-76.95 45.45 Q-77.75 45.45 -78.35 46.05 M-68.95 47.45 L-68.95 51.9 Q-68.95 52.65 -68.35 53.25 -67.75 53.85 -66.95 53.85 L-65.55 53.85 Q-64.75 53.85 -64.15 53.25 -63.55 52.65 -63.55 51.9 L-63.55 47.45 Q-63.55 46.65 -64.15 46.05 -64.75 45.45 -65.55 45.45 L-66.95 45.45 Q-67.75 45.45 -68.35 46.05 -68.95 46.65 -68.95 47.45 M-58.35 46.05 Q-58.95 46.65 -58.95 47.45 L-58.95 51.9 Q-58.95 52.65 -58.35 53.25 -57.75 53.85 -56.95 53.85 L-55.55 53.85 Q-54.75 53.85 -54.15 53.25 -53.55 52.65 -53.55 51.9 L-53.55 47.45 Q-53.55 46.65 -54.15 46.05 -54.75 45.45 -55.55 45.45 L-56.95 45.45 Q-57.75 45.45 -58.35 46.05 M-48.95 47.45 L-48.95 51.9 Q-48.95 52.65 -48.35 53.25 -47.75 53.85 -46.95 53.85 L-45.55 53.85 Q-44.75 53.85 -44.15 53.25 -43.55 52.65 -43.55 51.9 L-43.55 47.45 Q-43.55 46.65 -44.15 46.05 -44.75 45.45 -45.55 45.45 L-46.95 45.45 Q-47.75 45.45 -48.35 46.05 -48.95 46.65 -48.95 47.45 M-118.35 46.05 Q-118.95 46.65 -118.95 47.45 L-118.95 51.9 Q-118.95 52.65 -118.35 53.25 -117.75 53.85 -116.95 53.85 L-115.55 53.85 Q-114.75 53.85 -114.15 53.25 -113.55 52.65 -113.55 51.9 L-113.55 47.45 Q-113.55 46.65 -114.15 46.05 -114.75 45.45 -115.55 45.45 L-116.95 45.45 Q-117.75 45.45 -118.35 46.05 M-108.95 47.45 L-108.95 51.9 Q-108.95 52.65 -108.35 53.25 -107.75 53.85 -106.95 53.85 L-105.55 53.85 Q-104.75 53.85 -104.15 53.25 -103.55 52.65 -103.55 51.9 L-103.55 47.45 Q-103.55 46.65 -104.15 46.05 -104.75 45.45 -105.55 45.45 L-106.95 45.45 Q-107.75 45.45 -108.35 46.05 -108.95 46.65 -108.95 47.45 M-96.95 45.45 Q-97.75 45.45 -98.35 46.05 -98.95 46.65 -98.95 47.45 L-98.95 51.9 Q-98.95 52.65 -98.35 53.25 -97.75 53.85 -96.95 53.85 L-95.55 53.85 Q-94.75 53.85 -94.15 53.25 -93.55 52.65 -93.55 51.9 L-93.55 47.45 Q-93.55 46.65 -94.15 46.05 -94.75 45.45 -95.55 45.45 L-96.95 45.45 M-88.95 47.45 L-88.95 51.9 Q-88.95 52.65 -88.35 53.25 -87.75 53.85 -86.95 53.85 L-85.55 53.85 Q-84.75 53.85 -84.15 53.25 -83.55 52.65 -83.55 51.9 L-83.55 47.45 Q-83.55 46.65 -84.15 46.05 -84.75 45.45 -85.55 45.45 L-86.95 45.45 Q-87.75 45.45 -88.35 46.05 -88.95 46.65 -88.95 47.45 M-156.95 45.45 Q-157.75 45.45 -158.35 46.05 -158.95 46.65 -158.95 47.45 L-158.95 51.9 Q-158.95 52.65 -158.35 53.25 -157.75 53.85 -156.95 53.85 L-155.55 53.85 Q-154.75 53.85 -154.15 53.25 -153.55 52.65 -153.55 51.9 L-153.55 47.45 Q-153.55 46.65 -154.15 46.05 -154.75 45.45 -155.55 45.45 L-156.95 45.45 M-148.95 47.45 L-148.95 51.9 Q-148.95 52.65 -148.35 53.25 -147.75 53.85 -146.95 53.85 L-145.55 53.85 Q-144.75 53.85 -144.15 53.25 -143.55 52.65 -143.55 51.9 L-143.55 47.45 Q-143.55 46.65 -144.15 46.05 -144.75 45.45 -145.55 45.45 L-146.95 45.45 Q-147.75 45.45 -148.35 46.05 -148.95 46.65 -148.95 47.45 M-136.95 45.45 Q-137.75 45.45 -138.35 46.05 -138.95 46.65 -138.95 47.45 L-138.95 51.9 Q-138.95 52.65 -138.35 53.25 -137.75 53.85 -136.95 53.85 L-135.55 53.85 Q-134.75 53.85 -134.15 53.25 -133.55 52.65 -133.55 51.9 L-133.55 47.45 Q-133.55 46.65 -134.15 46.05 -134.75 45.45 -135.55 45.45 L-136.95 45.45 M-128.35 46.05 Q-128.95 46.65 -128.95 47.45 L-128.95 51.9 Q-128.95 52.65 -128.35 53.25 -127.75 53.85 -126.95 53.85 L-125.55 53.85 Q-124.75 53.85 -124.15 53.25 -123.55 52.65 -123.55 51.9 L-123.55 47.45 Q-123.55 46.65 -124.15 46.05 -124.75 45.45 -125.55 45.45 L-126.95 45.45 Q-127.75 45.45 -128.35 46.05 M-159.95 85.45 L-159.95 89.9 Q-159.95 90.65 -159.35 91.25 -158.75 91.85 -157.95 91.85 L-156.55 91.85 Q-155.75 91.85 -155.15 91.25 -154.55 90.65 -154.55 89.9 L-154.55 85.45 Q-154.55 84.65 -155.15 84.05 -155.75 83.45 -156.55 83.45 L-157.95 83.45 Q-158.75 83.45 -159.35 84.05 -159.95 84.65 -159.95 85.45 M-198.35 46.05 Q-198.95 46.65 -198.95 47.45 L-198.95 51.9 Q-198.95 52.65 -198.35 53.25 -197.75 53.85 -196.95 53.85 L-195.55 53.85 Q-194.75 53.85 -194.15 53.25 -193.55 52.65 -193.55 51.9 L-193.55 47.45 Q-193.55 46.65 -194.15 46.05 -194.75 45.45 -195.55 45.45 L-196.95 45.45 Q-197.75 45.45 -198.35 46.05 M-188.95 47.45 L-188.95 51.9 Q-188.95 52.65 -188.35 53.25 -187.75 53.85 -186.95 53.85 L-185.55 53.85 Q-184.75 53.85 -184.15 53.25 -183.55 52.65 -183.55 51.9 L-183.55 47.45 Q-183.55 46.65 -184.15 46.05 -184.75 45.45 -185.55 45.45 L-186.95 45.45 Q-187.75 45.45 -188.35 46.05 -188.95 46.65 -188.95 47.45 M-178.35 46.05 Q-178.95 46.65 -178.95 47.45 L-178.95 51.9 Q-178.95 52.65 -178.35 53.25 -177.75 53.85 -176.95 53.85 L-175.55 53.85 Q-174.75 53.85 -174.15 53.25 -173.55 52.65 -173.55 51.9 L-173.55 47.45 Q-173.55 46.65 -174.15 46.05 -174.75 45.45 -175.55 45.45 L-176.95 45.45 Q-177.75 45.45 -178.35 46.05 M-168.95 47.45 L-168.95 51.9 Q-168.95 52.65 -168.35 53.25 -167.75 53.85 -166.95 53.85 L-165.55 53.85 Q-164.75 53.85 -164.15 53.25 -163.55 52.65 -163.55 51.9 L-163.55 47.45 Q-163.55 46.65 -164.15 46.05 -164.75 45.45 -165.55 45.45 L-166.95 45.45 Q-167.75 45.45 -168.35 46.05 -168.95 46.65 -168.95 47.45 M-239.35 46.05 Q-239.95 46.65 -239.95 47.45 L-239.95 51.9 Q-239.95 52.65 -239.35 53.25 -238.75 53.85 -237.95 53.85 L-236.55 53.85 Q-235.75 53.85 -235.15 53.25 -234.55 52.65 -234.55 51.9 L-234.55 47.45 Q-234.55 46.65 -235.15 46.05 -235.75 45.45 -236.55 45.45 L-237.95 45.45 Q-238.75 45.45 -239.35 46.05 M-229.95 47.45 L-229.95 51.9 Q-229.95 52.65 -229.35 53.25 -228.75 53.85 -227.95 53.85 L-226.55 53.85 Q-225.75 53.85 -225.15 53.25 -224.55 52.65 -224.55 51.9 L-224.55 47.45 Q-224.55 46.65 -225.15 46.05 -225.75 45.45 -226.55 45.45 L-227.95 45.45 Q-228.75 45.45 -229.35 46.05 -229.95 46.65 -229.95 47.45 M-217.0 38.75 Q-215.5 37.3 -213.45 37.3 L-209.05 37.3 Q-207.0 37.3 -205.55 38.75 -204.05 40.25 -204.05 42.3 L-204.05 56.5 Q-204.05 58.55 -205.55 60.0 -207.0 61.5 -209.05 61.5 L-213.45 61.5 Q-215.5 61.5 -217.0 60.0 -218.1 58.9 -218.35 57.45 L-218.4 57.2 -218.45 56.5 -218.45 42.3 Q-218.45 40.25 -217.0 38.75 -218.45 40.25 -218.45 42.3 L-218.45 56.5 -218.4 57.2 -218.35 57.45 Q-218.1 58.9 -217.0 60.0 -215.5 61.5 -213.45 61.5 L-209.05 61.5 Q-207.0 61.5 -205.55 60.0 -204.05 58.55 -204.05 56.5 L-204.05 42.3 Q-204.05 40.25 -205.55 38.75 -207.0 37.3 -209.05 37.3 L-213.45 37.3 Q-215.5 37.3 -217.0 38.75 M-229.65 78.4 L-229.6 78.4 -229.6 57.8 -229.65 57.8 -382.7 57.8 -382.7 78.4 -229.65 78.4 M-229.95 85.45 L-229.95 89.9 Q-229.95 90.65 -229.35 91.25 -228.75 91.85 -227.95 91.85 L-226.55 91.85 Q-225.75 91.85 -225.15 91.25 -224.55 90.65 -224.55 89.9 L-224.55 85.45 Q-224.55 84.65 -225.15 84.05 -225.75 83.45 -226.55 83.45 L-227.95 83.45 Q-228.75 83.45 -229.35 84.05 -229.95 84.65 -229.95 85.45 M-239.35 84.05 Q-239.95 84.65 -239.95 85.45 L-239.95 89.9 Q-239.95 90.65 -239.35 91.25 -238.75 91.85 -237.95 91.85 L-236.55 91.85 Q-235.75 91.85 -235.15 91.25 -234.55 90.65 -234.55 89.9 L-234.55 85.45 Q-234.55 84.65 -235.15 84.05 -235.75 83.45 -236.55 83.45 L-237.95 83.45 Q-238.75 83.45 -239.35 84.05 M-209.95 85.45 L-209.95 89.9 Q-209.95 90.65 -209.35 91.25 -208.75 91.85 -207.95 91.85 L-206.55 91.85 Q-205.75 91.85 -205.15 91.25 -204.55 90.65 -204.55 89.9 L-204.55 85.45 Q-204.55 84.65 -205.15 84.05 -205.75 83.45 -206.55 83.45 L-207.95 83.45 Q-208.75 83.45 -209.35 84.05 -209.95 84.65 -209.95 85.45 M-219.95 85.45 L-219.95 89.9 Q-219.95 90.65 -219.35 91.25 -218.75 91.85 -217.95 91.85 L-216.55 91.85 Q-215.75 91.85 -215.15 91.25 -214.55 90.65 -214.55 89.9 L-214.55 85.45 Q-214.55 84.65 -215.15 84.05 -215.75 83.45 -216.55 83.45 L-217.95 83.45 Q-218.75 83.45 -219.35 84.05 -219.95 84.65 -219.95 85.45 M-189.95 85.45 L-189.95 89.9 Q-189.95 90.65 -189.35 91.25 -188.75 91.85 -187.95 91.85 L-186.55 91.85 Q-185.75 91.85 -185.15 91.25 -184.55 90.65 -184.55 89.9 L-184.55 85.45 Q-184.55 84.65 -185.15 84.05 -185.75 83.45 -186.55 83.45 L-187.95 83.45 Q-188.75 83.45 -189.35 84.05 -189.95 84.65 -189.95 85.45 M-199.35 84.05 Q-199.95 84.65 -199.95 85.45 L-199.95 89.9 Q-199.95 90.65 -199.35 91.25 -198.75 91.85 -197.95 91.85 L-196.55 91.85 Q-195.75 91.85 -195.15 91.25 -194.55 90.65 -194.55 89.9 L-194.55 85.45 Q-194.55 84.65 -195.15 84.05 -195.75 83.45 -196.55 83.45 L-197.95 83.45 Q-198.75 83.45 -199.35 84.05 M-169.95 85.45 L-169.95 89.9 Q-169.95 90.65 -169.35 91.25 -168.75 91.85 -167.95 91.85 L-166.55 91.85 Q-165.75 91.85 -165.15 91.25 -164.55 90.65 -164.55 89.9 L-164.55 85.45 Q-164.55 84.65 -165.15 84.05 -165.75 83.45 -166.55 83.45 L-167.95 83.45 Q-168.75 83.45 -169.35 84.05 -169.95 84.65 -169.95 85.45 M-179.95 85.45 L-179.95 89.9 Q-179.95 90.65 -179.35 91.25 -178.75 91.85 -177.95 91.85 L-176.55 91.85 Q-175.75 91.85 -175.15 91.25 -174.55 90.65 -174.55 89.9 L-174.55 85.45 Q-174.55 84.65 -175.15 84.05 -175.75 83.45 -176.55 83.45 L-177.95 83.45 Q-178.75 83.45 -179.35 84.05 -179.95 84.65 -179.95 85.45 M-279.35 46.05 Q-279.95 46.65 -279.95 47.45 L-279.95 51.9 Q-279.95 52.65 -279.35 53.25 -278.75 53.85 -277.95 53.85 L-276.55 53.85 Q-275.75 53.85 -275.15 53.25 -274.55 52.65 -274.55 51.9 L-274.55 47.45 Q-274.55 46.65 -275.15 46.05 -275.75 45.45 -276.55 45.45 L-277.95 45.45 Q-278.75 45.45 -279.35 46.05 M-269.95 47.45 L-269.95 51.9 Q-269.95 52.65 -269.35 53.25 -268.75 53.85 -267.95 53.85 L-266.55 53.85 Q-265.75 53.85 -265.15 53.25 -264.55 52.65 -264.55 51.9 L-264.55 47.45 Q-264.55 46.65 -265.15 46.05 -265.75 45.45 -266.55 45.45 L-267.95 45.45 Q-268.75 45.45 -269.35 46.05 -269.95 46.65 -269.95 47.45 M-259.35 46.05 Q-259.95 46.65 -259.95 47.45 L-259.95 51.9 Q-259.95 52.65 -259.35 53.25 -258.75 53.85 -257.95 53.85 L-256.55 53.85 Q-255.75 53.85 -255.15 53.25 -254.55 52.65 -254.55 51.9 L-254.55 47.45 Q-254.55 46.65 -255.15 46.05 -255.75 45.45 -256.55 45.45 L-257.95 45.45 Q-258.75 45.45 -259.35 46.05 M-249.95 47.45 L-249.95 51.9 Q-249.95 52.65 -249.35 53.25 -248.75 53.85 -247.95 53.85 L-246.55 53.85 Q-245.75 53.85 -245.15 53.25 -244.55 52.65 -244.55 51.9 L-244.55 47.45 Q-244.55 46.65 -245.15 46.05 -245.75 45.45 -246.55 45.45 L-247.95 45.45 Q-248.75 45.45 -249.35 46.05 -249.95 46.65 -249.95 47.45 M-319.35 46.05 Q-319.95 46.65 -319.95 47.45 L-319.95 51.9 Q-319.95 52.65 -319.35 53.25 -318.75 53.85 -317.95 53.85 L-316.55 53.85 Q-315.75 53.85 -315.15 53.25 -314.55 52.65 -314.55 51.9 L-314.55 47.45 Q-314.55 46.65 -315.15 46.05 -315.75 45.45 -316.55 45.45 L-317.95 45.45 Q-318.75 45.45 -319.35 46.05 M-309.95 47.45 L-309.95 51.9 Q-309.95 52.65 -309.35 53.25 -308.75 53.85 -307.95 53.85 L-306.55 53.85 Q-305.75 53.85 -305.15 53.25 -304.55 52.65 -304.55 51.9 L-304.55 47.45 Q-304.55 46.65 -305.15 46.05 -305.75 45.45 -306.55 45.45 L-307.95 45.45 Q-308.75 45.45 -309.35 46.05 -309.95 46.65 -309.95 47.45 M-299.35 46.05 Q-299.95 46.65 -299.95 47.45 L-299.95 51.9 Q-299.95 52.65 -299.35 53.25 -298.75 53.85 -297.95 53.85 L-296.55 53.85 Q-295.75 53.85 -295.15 53.25 -294.55 52.65 -294.55 51.9 L-294.55 47.45 Q-294.55 46.65 -295.15 46.05 -295.75 45.45 -296.55 45.45 L-297.95 45.45 Q-298.75 45.45 -299.35 46.05 M-289.95 47.45 L-289.95 51.9 Q-289.95 52.65 -289.35 53.25 -288.75 53.85 -287.95 53.85 L-286.55 53.85 Q-285.75 53.85 -285.15 53.25 -284.55 52.65 -284.55 51.9 L-284.55 47.45 Q-284.55 46.65 -285.15 46.05 -285.75 45.45 -286.55 45.45 L-287.95 45.45 Q-288.75 45.45 -289.35 46.05 -289.95 46.65 -289.95 47.45 M-312.85 84.0 Q-313.45 83.4 -314.25 83.4 L-315.65 83.4 Q-316.45 83.4 -317.05 84.0 -317.65 84.6 -317.65 85.4 L-317.65 89.85 Q-317.65 90.6 -317.05 91.2 -316.45 91.8 -315.65 91.8 L-314.25 91.8 Q-313.45 91.8 -312.85 91.2 -312.25 90.6 -312.25 89.85 L-312.25 85.4 Q-312.25 84.6 -312.85 84.0 M-305.65 83.4 Q-306.45 83.4 -307.05 84.0 -307.65 84.6 -307.65 85.4 L-307.65 89.85 Q-307.65 90.6 -307.05 91.2 -306.45 91.8 -305.65 91.8 L-304.25 91.8 Q-303.45 91.8 -302.85 91.2 -302.25 90.6 -302.25 89.85 L-302.25 85.4 Q-302.25 84.6 -302.85 84.0 -303.45 83.4 -304.25 83.4 L-305.65 83.4 M-322.85 84.0 Q-323.45 83.4 -324.25 83.4 L-325.65 83.4 Q-326.45 83.4 -327.05 84.0 -327.65 84.6 -327.65 85.4 L-327.65 89.85 Q-327.65 90.6 -327.05 91.2 -326.45 91.8 -325.65 91.8 L-324.25 91.8 Q-323.45 91.8 -322.85 91.2 -322.25 90.6 -322.25 89.85 L-322.25 85.4 Q-322.25 84.6 -322.85 84.0 M-292.85 84.0 Q-293.45 83.4 -294.25 83.4 L-295.65 83.4 Q-296.45 83.4 -297.05 84.0 -297.65 84.6 -297.65 85.4 L-297.65 89.85 Q-297.65 90.6 -297.05 91.2 -296.45 91.8 -295.65 91.8 L-294.25 91.8 Q-293.45 91.8 -292.85 91.2 -292.25 90.6 -292.25 89.85 L-292.25 85.4 Q-292.25 84.6 -292.85 84.0 M-285.65 83.4 Q-286.45 83.4 -287.05 84.0 -287.65 84.6 -287.65 85.4 L-287.65 89.85 Q-287.65 90.6 -287.05 91.2 -286.45 91.8 -285.65 91.8 L-284.25 91.8 Q-283.45 91.8 -282.85 91.2 -282.25 90.6 -282.25 89.85 L-282.25 85.4 Q-282.25 84.6 -282.85 84.0 -283.45 83.4 -284.25 83.4 L-285.65 83.4 M-249.95 85.45 L-249.95 89.9 Q-249.95 90.65 -249.35 91.25 -248.75 91.85 -247.95 91.85 L-246.55 91.85 Q-245.75 91.85 -245.15 91.25 -244.55 90.65 -244.55 89.9 L-244.55 85.45 Q-244.55 84.65 -245.15 84.05 -245.75 83.45 -246.55 83.45 L-247.95 83.45 Q-248.75 83.45 -249.35 84.05 -249.95 84.65 -249.95 85.45 M-259.95 85.45 L-259.95 89.9 Q-259.95 90.65 -259.35 91.25 -258.75 91.85 -257.95 91.85 L-256.55 91.85 Q-255.75 91.85 -255.15 91.25 -254.55 90.65 -254.55 89.9 L-254.55 85.45 Q-254.55 84.65 -255.15 84.05 -255.75 83.45 -256.55 83.45 L-257.95 83.45 Q-258.75 83.45 -259.35 84.05 -259.95 84.65 -259.95 85.45 M-293.75 106.65 Q-292.25 108.15 -292.25 110.2 L-292.25 124.4 Q-292.25 126.45 -293.75 127.9 -295.2 129.4 -297.25 129.4 L-301.65 129.4 Q-303.7 129.4 -305.2 127.9 -306.3 126.8 -306.55 125.35 L-306.6 125.1 -306.65 124.4 -306.65 110.2 Q-306.65 108.15 -305.2 106.65 -303.7 105.2 -301.65 105.2 L-297.25 105.2 Q-295.2 105.2 -293.75 106.65 -295.2 105.2 -297.25 105.2 L-301.65 105.2 Q-303.7 105.2 -305.2 106.65 -306.65 108.15 -306.65 110.2 L-306.65 124.4 -306.6 125.1 -306.55 125.35 Q-306.3 126.8 -305.2 127.9 -303.7 129.4 -301.65 129.4 L-297.25 129.4 Q-295.2 129.4 -293.75 127.9 -292.25 126.45 -292.25 124.4 L-292.25 110.2 Q-292.25 108.15 -293.75 106.65 M-339.35 46.05 Q-339.95 46.65 -339.95 47.45 L-339.95 51.9 Q-339.95 52.65 -339.35 53.25 -338.75 53.85 -337.95 53.85 L-336.55 53.85 Q-335.75 53.85 -335.15 53.25 -334.55 52.65 -334.55 51.9 L-334.55 47.45 Q-334.55 46.65 -335.15 46.05 -335.75 45.45 -336.55 45.45 L-337.95 45.45 Q-338.75 45.45 -339.35 46.05 M-329.95 47.45 L-329.95 51.9 Q-329.95 52.65 -329.35 53.25 -328.75 53.85 -327.95 53.85 L-326.55 53.85 Q-325.75 53.85 -325.15 53.25 -324.55 52.65 -324.55 51.9 L-324.55 47.45 Q-324.55 46.65 -325.15 46.05 -325.75 45.45 -326.55 45.45 L-327.95 45.45 Q-328.75 45.45 -329.35 46.05 -329.95 46.65 -329.95 47.45 M-392.85 84.0 Q-393.45 83.4 -394.25 83.4 L-395.65 83.4 Q-396.45 83.4 -397.05 84.0 -397.65 84.6 -397.65 85.4 L-397.65 89.85 Q-397.65 90.6 -397.05 91.2 -396.45 91.8 -395.65 91.8 L-394.25 91.8 Q-393.45 91.8 -392.85 91.2 -392.25 90.6 -392.25 89.85 L-392.25 85.4 Q-392.25 84.6 -392.85 84.0 M-387.05 84.0 Q-387.65 84.6 -387.65 85.4 L-387.65 89.85 Q-387.65 90.6 -387.05 91.2 -386.45 91.8 -385.65 91.8 L-384.25 91.8 Q-383.45 91.8 -382.85 91.2 -382.25 90.6 -382.25 89.85 L-382.25 85.4 Q-382.25 84.6 -382.85 84.0 -383.45 83.4 -384.25 83.4 L-385.65 83.4 Q-386.45 83.4 -387.05 84.0 M-372.85 84.0 Q-373.45 83.4 -374.25 83.4 L-375.65 83.4 Q-376.45 83.4 -377.05 84.0 -377.65 84.6 -377.65 85.4 L-377.65 89.85 Q-377.65 90.6 -377.05 91.2 -376.45 91.8 -375.65 91.8 L-374.25 91.8 Q-373.45 91.8 -372.85 91.2 -372.25 90.6 -372.25 89.85 L-372.25 85.4 Q-372.25 84.6 -372.85 84.0 M-367.65 85.4 L-367.65 89.85 Q-367.65 90.6 -367.05 91.2 -366.45 91.8 -365.65 91.8 L-364.25 91.8 Q-363.45 91.8 -362.85 91.2 -362.25 90.6 -362.25 89.85 L-362.25 85.4 Q-362.25 84.6 -362.85 84.0 -363.45 83.4 -364.25 83.4 L-365.65 83.4 Q-366.45 83.4 -367.05 84.0 -367.65 84.6 -367.65 85.4 M-347.05 84.0 Q-347.65 84.6 -347.65 85.4 L-347.65 89.85 Q-347.65 90.6 -347.05 91.2 -346.45 91.8 -345.65 91.8 L-344.25 91.8 Q-343.45 91.8 -342.85 91.2 -342.25 90.6 -342.25 89.85 L-342.25 85.4 Q-342.25 84.6 -342.85 84.0 -343.45 83.4 -344.25 83.4 L-345.65 83.4 Q-346.45 83.4 -347.05 84.0 M-352.85 84.0 Q-353.45 83.4 -354.25 83.4 L-355.65 83.4 Q-356.45 83.4 -357.05 84.0 -357.65 84.6 -357.65 85.4 L-357.65 89.85 Q-357.65 90.6 -357.05 91.2 -356.45 91.8 -355.65 91.8 L-354.25 91.8 Q-353.45 91.8 -352.85 91.2 -352.25 90.6 -352.25 89.85 L-352.25 85.4 Q-352.25 84.6 -352.85 84.0 M-332.85 84.0 Q-333.45 83.4 -334.25 83.4 L-335.65 83.4 Q-336.45 83.4 -337.05 84.0 -337.65 84.6 -337.65 85.4 L-337.65 89.85 Q-337.65 90.6 -337.05 91.2 -336.45 91.8 -335.65 91.8 L-334.25 91.8 Q-333.45 91.8 -332.85 91.2 -332.25 90.6 -332.25 89.85 L-332.25 85.4 Q-332.25 84.6 -332.85 84.0 M-452.9 70.0 L-456.3 70.3 -461.3 78.1 -459.0 78.45 -453.55 78.45 -452.9 70.0 M-462.1 70.75 L-468.35 77.05 -464.5 77.6 -458.2 70.45 -462.1 70.75 M-447.65 69.55 L-450.7 69.8 -450.7 78.45 -441.75 78.45 -447.35 69.55 -447.65 69.55 M-407.9 76.8 Q-406.4 78.3 -406.4 80.35 L-406.4 94.55 Q-406.4 96.6 -407.9 98.05 -409.35 99.55 -411.4 99.55 L-415.8 99.55 Q-417.85 99.55 -419.35 98.05 -420.8 96.6 -420.8 94.55 L-420.8 80.35 Q-420.8 78.3 -419.35 76.8 -417.85 75.35 -415.8 75.35 L-411.4 75.35 Q-409.35 75.35 -407.9 76.8 -409.35 75.35 -411.4 75.35 L-415.8 75.35 Q-417.85 75.35 -419.35 76.8 -420.8 78.3 -420.8 80.35 L-420.8 94.55 Q-420.8 96.6 -419.35 98.05 -417.85 99.55 -415.8 99.55 L-411.4 99.55 Q-409.35 99.55 -407.9 98.05 -406.4 96.6 -406.4 94.55 L-406.4 80.35 Q-406.4 78.3 -407.9 76.8" fill="url(#gradient0)" fill-rule="evenodd" stroke="none"/>
    <path d="M243.35 27.75 Q285.75 30.0 328.1 34.3 L323.8 35.65 Q294.9 44.25 277.4 56.6 260.6 68.85 264.65 77.55 L277.4 67.7 Q289.65 58.1 314.75 48.15 339.85 38.2 365.75 43.45 L364.35 38.3 393.45 42.05 393.95 42.3 391.25 48.65 293.05 67.5 293.1 67.55 325.25 100.2 Q302.1 105.8 279.1 110.8 231.1 121.2 183.8 128.9 L133.25 134.9 158.0 110.8 177.5 91.85 178.05 91.35 178.05 91.3 178.1 91.25 178.2 91.15 179.1 90.3 183.3 86.2 183.3 89.9 Q183.3 90.65 183.9 91.25 184.5 91.85 185.3 91.85 L186.7 91.85 Q187.5 91.85 188.1 91.25 188.7 90.65 188.7 89.9 L188.7 85.45 Q188.7 84.65 188.1 84.05 187.5 83.45 186.7 83.45 L186.45 83.2 194.45 75.35 202.3 74.65 202.85 74.35 203.0 74.65 Q218.4 79.9 227.2 90.45 L233.85 90.45 232.45 73.25 246.45 57.15 236.3 57.15 208.65 71.25 208.35 70.7 199.2 70.75 220.05 50.45 220.05 51.9 Q220.05 52.65 220.65 53.25 221.25 53.85 222.05 53.85 L223.45 53.85 Q224.25 53.85 224.85 53.25 225.45 52.65 225.45 51.9 L225.45 47.45 Q225.45 46.65 224.85 46.05 L224.7 45.9 242.9 28.2 243.35 27.75 M244.85 46.05 Q244.25 45.45 243.45 45.45 L242.05 45.45 Q241.25 45.45 240.65 46.05 240.05 46.65 240.05 47.45 L240.05 51.9 Q240.05 52.65 240.65 53.25 241.25 53.85 242.05 53.85 L243.45 53.85 Q244.25 53.85 244.85 53.25 245.45 52.65 245.45 51.9 L245.45 47.45 Q245.45 46.65 244.85 46.05 M250.65 46.05 Q250.05 46.65 250.05 47.45 L250.05 51.9 Q250.05 52.65 250.65 53.25 251.25 53.85 252.05 53.85 L253.45 53.85 Q254.25 53.85 254.85 53.25 255.45 52.65 255.45 51.9 L255.45 47.45 Q255.45 46.65 254.85 46.05 254.25 45.45 253.45 45.45 L252.05 45.45 Q251.25 45.45 250.65 46.05 M260.65 46.05 Q260.05 46.65 260.05 47.45 L260.05 51.9 Q260.05 52.65 260.65 53.25 261.25 53.85 262.05 53.85 L263.45 53.85 Q264.25 53.85 264.85 53.25 265.45 52.65 265.45 51.9 L265.45 47.45 Q265.45 46.65 264.85 46.05 264.25 45.45 263.45 45.45 L262.05 45.45 Q261.25 45.45 260.65 46.05 M230.05 47.45 L230.05 51.9 Q230.05 52.65 230.65 53.25 231.25 53.85 232.05 53.85 L233.45 53.85 Q234.25 53.85 234.85 53.25 235.45 52.65 235.45 51.9 L235.45 47.45 Q235.45 46.65 234.85 46.05 234.25 45.45 233.45 45.45 L232.05 45.45 Q231.25 45.45 230.65 46.05 230.05 46.65 230.05 47.45 M193.9 84.05 Q193.3 84.65 193.3 85.45 L193.3 89.9 Q193.3 90.65 193.9 91.25 194.5 91.85 195.3 91.85 L196.7 91.85 Q197.5 91.85 198.1 91.25 198.7 90.65 198.7 89.9 L198.7 85.45 Q198.7 84.65 198.1 84.05 197.5 83.45 196.7 83.45 L195.3 83.45 Q194.5 83.45 193.9 84.05 M208.1 84.05 Q207.5 83.45 206.7 83.45 L205.3 83.45 Q204.5 83.45 203.9 84.05 203.3 84.65 203.3 85.45 L203.3 89.9 Q203.3 90.65 203.9 91.25 204.5 91.85 205.3 91.85 L206.7 91.85 Q207.5 91.85 208.1 91.25 208.7 90.65 208.7 89.9 L208.7 85.45 Q208.7 84.65 208.1 84.05" fill="url(#gradient1)" fill-rule="evenodd" stroke="none"/>
    <path d="M349.65 15.35 L344.3 13.5 Q344.7 12.85 344.7 11.75 344.7 9.65 341.15 10.25 L335.2 10.1 Q330.95 8.4 337.0 6.0 346.75 3.6 349.65 15.35" fill="#fe121c" fill-rule="evenodd" stroke="none"/>
    <path d="M364.35 38.3 L365.75 43.45 Q339.85 38.2 314.75 48.15 289.65 58.1 277.4 67.7 L264.65 77.55 Q260.6 68.85 277.4 56.6 294.9 44.25 323.8 35.65 L328.1 34.3 364.35 38.3" fill="#dedddc" fill-rule="evenodd" stroke="none"/>
    <path d="M382.0 70.5 L402.95 66.55 404.15 66.2 414.65 76.4 374.75 87.55 382.0 70.5" fill="#999999" fill-rule="evenodd" stroke="none"/>
    <path d="M382.0 70.5 L374.75 87.55 Q349.9 94.25 325.25 100.2 L293.1 67.55 Q297.2 70.95 304.2 72.95 324.75 78.8 370.35 72.7 L382.0 70.5" fill="#c10202" fill-rule="evenodd" stroke="none"/>
    <path d="M260.65 46.05 Q261.25 45.45 262.05 45.45 L263.45 45.45 Q264.25 45.45 264.85 46.05 265.45 46.65 265.45 47.45 L265.45 51.9 Q265.45 52.65 264.85 53.25 264.25 53.85 263.45 53.85 L262.05 53.85 Q261.25 53.85 260.65 53.25 260.05 52.65 260.05 51.9 L260.05 47.45 Q260.05 46.65 260.65 46.05 M250.65 46.05 Q251.25 45.45 252.05 45.45 L253.45 45.45 Q254.25 45.45 254.85 46.05 255.45 46.65 255.45 47.45 L255.45 51.9 Q255.45 52.65 254.85 53.25 254.25 53.85 253.45 53.85 L252.05 53.85 Q251.25 53.85 250.65 53.25 250.05 52.65 250.05 51.9 L250.05 47.45 Q250.05 46.65 250.65 46.05 M244.85 46.05 Q245.45 46.65 245.45 47.45 L245.45 51.9 Q245.45 52.65 244.85 53.25 244.25 53.85 243.45 53.85 L242.05 53.85 Q241.25 53.85 240.65 53.25 240.05 52.65 240.05 51.9 L240.05 47.45 Q240.05 46.65 240.65 46.05 241.25 45.45 242.05 45.45 L243.45 45.45 Q244.25 45.45 244.85 46.05 M224.7 45.9 L224.85 46.05 Q225.45 46.65 225.45 47.45 L225.45 51.9 Q225.45 52.65 224.85 53.25 224.25 53.85 223.45 53.85 L222.05 53.85 Q221.25 53.85 220.65 53.25 220.05 52.65 220.05 51.9 L220.05 50.45 220.05 47.45 Q220.05 46.65 220.65 46.05 221.25 45.45 222.05 45.45 L223.45 45.45 224.05 45.55 224.7 45.9 M186.7 83.45 Q187.5 83.45 188.1 84.05 188.7 84.65 188.7 85.45 L188.7 89.9 Q188.7 90.65 188.1 91.25 187.5 91.85 186.7 91.85 L185.3 91.85 Q184.5 91.85 183.9 91.25 183.3 90.65 183.3 89.9 L183.3 86.2 183.3 85.45 183.35 85.2 Q183.4 84.55 183.9 84.05 184.4 83.55 185.1 83.45 L185.3 83.45 186.45 83.45 186.7 83.45 M178.2 91.15 L178.1 91.25 178.05 91.3 178.05 91.35 177.4 91.75 176.7 91.85 175.3 91.85 Q174.5 91.85 173.9 91.25 173.3 90.65 173.3 89.9 L173.3 85.45 Q173.3 84.65 173.9 84.05 174.5 83.45 175.3 83.45 L176.7 83.45 Q177.5 83.45 178.1 84.05 178.7 84.65 178.7 85.45 L178.7 89.9 Q178.7 90.6 178.2 91.15 M-146.55 91.85 L-147.95 91.85 Q-148.75 91.85 -149.35 91.25 L-149.4 91.2 Q-149.95 90.65 -149.95 89.9 L-149.95 85.45 Q-149.95 84.7 -149.4 84.1 L-149.35 84.05 Q-148.75 83.45 -147.95 83.45 L-146.55 83.45 Q-145.75 83.45 -145.15 84.05 -144.55 84.65 -144.55 85.45 L-144.55 89.9 Q-144.55 90.65 -145.15 91.25 -145.75 91.85 -146.55 91.85 M-139.35 91.25 Q-139.95 90.65 -139.95 89.9 L-139.95 85.45 Q-139.95 84.65 -139.35 84.05 -138.75 83.45 -137.95 83.45 L-136.55 83.45 Q-135.75 83.45 -135.15 84.05 -134.55 84.65 -134.55 85.45 L-134.55 89.9 Q-134.55 90.65 -135.1 91.2 L-138.8 91.65 -139.35 91.25 M-129.75 90.65 L-129.95 89.9 -129.95 85.45 Q-129.95 84.65 -129.35 84.05 -128.75 83.45 -127.95 83.45 L-126.55 83.45 Q-125.75 83.45 -125.15 84.05 -124.55 84.65 -124.55 85.45 L-124.55 89.9 -124.55 90.1 -129.75 90.65 M-119.95 89.6 L-119.95 85.45 Q-119.95 84.65 -119.35 84.05 -118.75 83.45 -117.95 83.45 L-116.55 83.45 Q-115.75 83.45 -115.15 84.05 -114.55 84.65 -114.55 85.45 L-114.55 89.05 -119.95 89.6 M-109.95 88.55 L-109.95 85.45 Q-109.95 84.65 -109.35 84.05 -108.75 83.45 -107.95 83.45 L-106.55 83.45 Q-105.75 83.45 -105.15 84.05 -104.55 84.65 -104.55 85.45 L-104.55 87.95 -109.95 88.55 M-99.95 87.45 L-99.95 85.45 Q-99.95 84.65 -99.35 84.05 -98.75 83.45 -97.95 83.45 L-96.55 83.45 Q-95.75 83.45 -95.15 84.05 -94.55 84.65 -94.55 85.45 L-94.55 86.9 -99.95 87.45 M-89.95 86.4 L-89.95 85.45 Q-89.95 84.65 -89.35 84.05 -88.75 83.45 -87.95 83.45 L-86.55 83.45 Q-85.75 83.45 -85.15 84.05 -84.55 84.65 -84.55 85.45 L-84.55 85.8 -89.95 86.4 M-79.95 85.35 Q-79.9 84.6 -79.35 84.05 -78.75 83.45 -77.95 83.45 L-76.55 83.45 Q-75.75 83.45 -75.15 84.05 L-74.65 84.75 -79.95 85.35 M210.65 46.05 Q211.25 45.45 212.05 45.45 L213.45 45.45 Q214.25 45.45 214.85 46.05 215.45 46.65 215.45 47.45 L215.45 51.9 Q215.45 52.65 214.85 53.25 214.25 53.85 213.45 53.85 L212.05 53.85 Q211.25 53.85 210.65 53.25 210.05 52.65 210.05 51.9 L210.05 47.45 Q210.05 46.65 210.65 46.05 M203.45 45.45 Q204.25 45.45 204.85 46.05 205.45 46.65 205.45 47.45 L205.45 51.9 Q205.45 52.65 204.85 53.25 204.25 53.85 203.45 53.85 L202.05 53.85 Q201.25 53.85 200.65 53.25 200.05 52.65 200.05 51.9 L200.05 47.45 Q200.05 46.65 200.65 46.05 201.25 45.45 202.05 45.45 L203.45 45.45 M230.05 47.45 Q230.05 46.65 230.65 46.05 231.25 45.45 232.05 45.45 L233.45 45.45 Q234.25 45.45 234.85 46.05 235.45 46.65 235.45 47.45 L235.45 51.9 Q235.45 52.65 234.85 53.25 234.25 53.85 233.45 53.85 L232.05 53.85 Q231.25 53.85 230.65 53.25 230.05 52.65 230.05 51.9 L230.05 47.45 M193.45 45.45 Q194.25 45.45 194.85 46.05 195.45 46.65 195.45 47.45 L195.45 51.9 Q195.45 52.65 194.85 53.25 194.25 53.85 193.45 53.85 L192.05 53.85 Q191.25 53.85 190.65 53.25 190.05 52.65 190.05 51.9 L190.05 47.45 Q190.05 46.65 190.65 46.05 191.25 45.45 192.05 45.45 L193.45 45.45 M163.3 85.45 Q163.3 84.65 163.9 84.05 164.5 83.45 165.3 83.45 L166.7 83.45 Q167.5 83.45 168.1 84.05 168.7 84.65 168.7 85.45 L168.7 89.9 Q168.7 90.65 168.1 91.25 167.5 91.85 166.7 91.85 L165.3 91.85 Q164.5 91.85 163.9 91.25 163.3 90.65 163.3 89.9 L163.3 85.45 M193.9 84.05 Q194.5 83.45 195.3 83.45 L196.7 83.45 Q197.5 83.45 198.1 84.05 198.7 84.65 198.7 85.45 L198.7 89.9 Q198.7 90.65 198.1 91.25 197.5 91.85 196.7 91.85 L195.3 91.85 Q194.5 91.85 193.9 91.25 193.3 90.65 193.3 89.9 L193.3 85.45 Q193.3 84.65 193.9 84.05 M208.1 84.05 Q208.7 84.65 208.7 85.45 L208.7 89.9 Q208.7 90.65 208.1 91.25 207.5 91.85 206.7 91.85 L205.3 91.85 Q204.5 91.85 203.9 91.25 203.3 90.65 203.3 89.9 L203.3 85.45 Q203.3 84.65 203.9 84.05 204.5 83.45 205.3 83.45 L206.7 83.45 Q207.5 83.45 208.1 84.05 M110.05 47.45 Q110.05 46.65 110.65 46.05 111.25 45.45 112.05 45.45 L113.45 45.45 Q114.25 45.45 114.85 46.05 115.45 46.65 115.45 47.45 L115.45 51.9 Q115.45 52.65 114.85 53.25 114.25 53.85 113.45 53.85 L112.05 53.85 Q111.25 53.85 110.65 53.25 110.05 52.65 110.05 51.9 L110.05 47.45 M100.05 47.45 Q100.05 46.65 100.65 46.05 101.25 45.45 102.05 45.45 L103.45 45.45 Q104.25 45.45 104.85 46.05 105.45 46.65 105.45 47.45 L105.45 51.9 Q105.45 52.65 104.85 53.25 104.25 53.85 103.45 53.85 L102.05 53.85 Q101.25 53.85 100.65 53.25 100.05 52.65 100.05 51.9 L100.05 47.45 M82.05 45.45 L83.45 45.45 Q84.25 45.45 84.85 46.05 85.45 46.65 85.45 47.45 L85.45 51.9 Q85.45 52.65 84.85 53.25 84.25 53.85 83.45 53.85 L82.05 53.85 Q81.25 53.85 80.65 53.25 80.05 52.65 80.05 51.9 L80.05 47.45 Q80.05 46.65 80.65 46.05 81.25 45.45 82.05 45.45 M90.05 47.45 Q90.05 46.65 90.65 46.05 91.25 45.45 92.05 45.45 L93.45 45.45 Q94.25 45.45 94.85 46.05 95.45 46.65 95.45 47.45 L95.45 51.9 Q95.45 52.65 94.85 53.25 94.25 53.85 93.45 53.85 L92.05 53.85 Q91.25 53.85 90.65 53.25 90.05 52.65 90.05 51.9 L90.05 47.45 M152.05 45.45 L153.45 45.45 Q154.25 45.45 154.85 46.05 155.45 46.65 155.45 47.45 L155.45 51.9 Q155.45 52.65 154.85 53.25 154.25 53.85 153.45 53.85 L152.05 53.85 Q151.25 53.85 150.65 53.25 150.05 52.65 150.05 51.9 L150.05 47.45 Q150.05 46.65 150.65 46.05 151.25 45.45 152.05 45.45 M140.05 47.45 Q140.05 46.65 140.65 46.05 141.25 45.45 142.05 45.45 L143.45 45.45 Q144.25 45.45 144.85 46.05 145.45 46.65 145.45 47.45 L145.45 51.9 Q145.45 52.65 144.85 53.25 144.25 53.85 143.45 53.85 L142.05 53.85 Q141.25 53.85 140.65 53.25 140.05 52.65 140.05 51.9 L140.05 47.45 M122.05 45.45 L123.45 45.45 Q124.25 45.45 124.85 46.05 125.45 46.65 125.45 47.45 L125.45 51.9 Q125.45 52.65 124.85 53.25 124.25 53.85 123.45 53.85 L122.05 53.85 Q121.25 53.85 120.65 53.25 120.05 52.65 120.05 51.9 L120.05 47.45 Q120.05 46.65 120.65 46.05 121.25 45.45 122.05 45.45 M130.05 47.45 Q130.05 46.65 130.65 46.05 131.25 45.45 132.05 45.45 L133.45 45.45 Q134.25 45.45 134.85 46.05 135.45 46.65 135.45 47.45 L135.45 51.9 Q135.45 52.65 134.85 53.25 134.25 53.85 133.45 53.85 L132.05 53.85 Q131.25 53.85 130.65 53.25 130.05 52.65 130.05 51.9 L130.05 47.45 M156.7 83.45 Q157.5 83.45 158.1 84.05 158.7 84.65 158.7 85.45 L158.7 89.9 Q158.7 90.65 158.1 91.25 157.5 91.85 156.7 91.85 L155.3 91.85 Q154.5 91.85 153.9 91.25 153.3 90.65 153.3 89.9 L153.3 85.45 Q153.3 84.65 153.9 84.05 154.5 83.45 155.3 83.45 L156.7 83.45 M31.05 47.45 Q31.05 46.65 31.65 46.05 32.25 45.45 33.05 45.45 L34.45 45.45 Q35.25 45.45 35.85 46.05 36.45 46.65 36.45 47.45 L36.45 51.9 Q36.45 52.65 35.85 53.25 35.25 53.85 34.45 53.85 L33.05 53.85 Q32.25 53.85 31.65 53.25 31.05 52.65 31.05 51.9 L31.05 47.45 M21.65 46.05 Q22.25 45.45 23.05 45.45 L24.45 45.45 Q25.25 45.45 25.85 46.05 26.45 46.65 26.45 47.45 L26.45 51.9 Q26.45 52.65 25.85 53.25 25.25 53.85 24.45 53.85 L23.05 53.85 Q22.25 53.85 21.65 53.25 21.05 52.65 21.05 51.9 L21.05 47.45 Q21.05 46.65 21.65 46.05 M11.05 47.45 Q11.05 46.65 11.65 46.05 12.25 45.45 13.05 45.45 L14.45 45.45 Q15.25 45.45 15.85 46.05 16.45 46.65 16.45 47.45 L16.45 51.9 Q16.45 52.65 15.85 53.25 15.25 53.85 14.45 53.85 L13.05 53.85 Q12.25 53.85 11.65 53.25 11.05 52.65 11.05 51.9 L11.05 47.45 M1.65 46.05 Q2.25 45.45 3.05 45.45 L4.45 45.45 Q5.25 45.45 5.85 46.05 6.45 46.65 6.45 47.45 L6.45 51.9 Q6.45 52.65 5.85 53.25 5.25 53.85 4.45 53.85 L3.05 53.85 Q2.25 53.85 1.65 53.25 1.05 52.65 1.05 51.9 L1.05 47.45 Q1.05 46.65 1.65 46.05 M70.05 47.45 Q70.05 46.65 70.65 46.05 71.25 45.45 72.05 45.45 L73.45 45.45 Q74.25 45.45 74.85 46.05 75.45 46.65 75.45 47.45 L75.45 51.9 Q75.45 52.65 74.85 53.25 74.25 53.85 73.45 53.85 L72.05 53.85 Q71.25 53.85 70.65 53.25 70.05 52.65 70.05 51.9 L70.05 47.45 M-48.95 47.45 Q-48.95 46.65 -48.35 46.05 -47.75 45.45 -46.95 45.45 L-45.55 45.45 Q-44.75 45.45 -44.15 46.05 -43.55 46.65 -43.55 47.45 L-43.55 51.9 Q-43.55 52.65 -44.15 53.25 -44.75 53.85 -45.55 53.85 L-46.95 53.85 Q-47.75 53.85 -48.35 53.25 -48.95 52.65 -48.95 51.9 L-48.95 47.45 M-58.35 46.05 Q-57.75 45.45 -56.95 45.45 L-55.55 45.45 Q-54.75 45.45 -54.15 46.05 -53.55 46.65 -53.55 47.45 L-53.55 51.9 Q-53.55 52.65 -54.15 53.25 -54.75 53.85 -55.55 53.85 L-56.95 53.85 Q-57.75 53.85 -58.35 53.25 -58.95 52.65 -58.95 51.9 L-58.95 47.45 Q-58.95 46.65 -58.35 46.05 M-68.95 47.45 Q-68.95 46.65 -68.35 46.05 -67.75 45.45 -66.95 45.45 L-65.55 45.45 Q-64.75 45.45 -64.15 46.05 -63.55 46.65 -63.55 47.45 L-63.55 51.9 Q-63.55 52.65 -64.15 53.25 -64.75 53.85 -65.55 53.85 L-66.95 53.85 Q-67.75 53.85 -68.35 53.25 -68.95 52.65 -68.95 51.9 L-68.95 47.45 M-78.35 46.05 Q-77.75 45.45 -76.95 45.45 L-75.55 45.45 Q-74.75 45.45 -74.15 46.05 -73.55 46.65 -73.55 47.45 L-73.55 51.9 Q-73.55 52.65 -74.15 53.25 -74.75 53.85 -75.55 53.85 L-76.95 53.85 Q-77.75 53.85 -78.35 53.25 -78.95 52.65 -78.95 51.9 L-78.95 47.45 Q-78.95 46.65 -78.35 46.05 M-6.95 45.45 L-5.55 45.45 Q-4.75 45.45 -4.15 46.05 -3.55 46.65 -3.55 47.45 L-3.55 51.9 Q-3.55 52.65 -4.15 53.25 -4.75 53.85 -5.55 53.85 L-6.95 53.85 Q-7.75 53.85 -8.35 53.25 -8.95 52.65 -8.95 51.9 L-8.95 47.45 Q-8.95 46.65 -8.35 46.05 -7.75 45.45 -6.95 45.45 M-18.35 46.05 Q-17.75 45.45 -16.95 45.45 L-15.55 45.45 Q-14.75 45.45 -14.15 46.05 -13.55 46.65 -13.55 47.45 L-13.55 51.9 Q-13.55 52.65 -14.15 53.25 -14.75 53.85 -15.55 53.85 L-16.95 53.85 Q-17.75 53.85 -18.35 53.25 -18.95 52.65 -18.95 51.9 L-18.95 47.45 Q-18.95 46.65 -18.35 46.05 M-26.95 45.45 L-25.55 45.45 Q-24.75 45.45 -24.15 46.05 -23.55 46.65 -23.55 47.45 L-23.55 51.9 Q-23.55 52.65 -24.15 53.25 -24.75 53.85 -25.55 53.85 L-26.95 53.85 Q-27.75 53.85 -28.35 53.25 -28.95 52.65 -28.95 51.9 L-28.95 47.45 Q-28.95 46.65 -28.35 46.05 -27.75 45.45 -26.95 45.45 M-38.35 46.05 Q-37.75 45.45 -36.95 45.45 L-35.55 45.45 Q-34.75 45.45 -34.15 46.05 -33.55 46.65 -33.55 47.45 L-33.55 51.9 Q-33.55 52.65 -34.15 53.25 -34.75 53.85 -35.55 53.85 L-36.95 53.85 Q-37.75 53.85 -38.35 53.25 -38.95 52.65 -38.95 51.9 L-38.95 47.45 Q-38.95 46.65 -38.35 46.05 M-159.95 85.45 Q-159.95 84.65 -159.35 84.05 -158.75 83.45 -157.95 83.45 L-156.55 83.45 Q-155.75 83.45 -155.15 84.05 -154.55 84.65 -154.55 85.45 L-154.55 89.9 Q-154.55 90.65 -155.15 91.25 -155.75 91.85 -156.55 91.85 L-157.95 91.85 Q-158.75 91.85 -159.35 91.25 -159.95 90.65 -159.95 89.9 L-159.95 85.45 M-128.35 46.05 Q-127.75 45.45 -126.95 45.45 L-125.55 45.45 Q-124.75 45.45 -124.15 46.05 -123.55 46.65 -123.55 47.45 L-123.55 51.9 Q-123.55 52.65 -124.15 53.25 -124.75 53.85 -125.55 53.85 L-126.95 53.85 Q-127.75 53.85 -128.35 53.25 -128.95 52.65 -128.95 51.9 L-128.95 47.45 Q-128.95 46.65 -128.35 46.05 M-136.95 45.45 L-135.55 45.45 Q-134.75 45.45 -134.15 46.05 -133.55 46.65 -133.55 47.45 L-133.55 51.9 Q-133.55 52.65 -134.15 53.25 -134.75 53.85 -135.55 53.85 L-136.95 53.85 Q-137.75 53.85 -138.35 53.25 -138.95 52.65 -138.95 51.9 L-138.95 47.45 Q-138.95 46.65 -138.35 46.05 -137.75 45.45 -136.95 45.45 M-148.95 47.45 Q-148.95 46.65 -148.35 46.05 -147.75 45.45 -146.95 45.45 L-145.55 45.45 Q-144.75 45.45 -144.15 46.05 -143.55 46.65 -143.55 47.45 L-143.55 51.9 Q-143.55 52.65 -144.15 53.25 -144.75 53.85 -145.55 53.85 L-146.95 53.85 Q-147.75 53.85 -148.35 53.25 -148.95 52.65 -148.95 51.9 L-148.95 47.45 M-156.95 45.45 L-155.55 45.45 Q-154.75 45.45 -154.15 46.05 -153.55 46.65 -153.55 47.45 L-153.55 51.9 Q-153.55 52.65 -154.15 53.25 -154.75 53.85 -155.55 53.85 L-156.95 53.85 Q-157.75 53.85 -158.35 53.25 -158.95 52.65 -158.95 51.9 L-158.95 47.45 Q-158.95 46.65 -158.35 46.05 -157.75 45.45 -156.95 45.45 M-88.95 47.45 Q-88.95 46.65 -88.35 46.05 -87.75 45.45 -86.95 45.45 L-85.55 45.45 Q-84.75 45.45 -84.15 46.05 -83.55 46.65 -83.55 47.45 L-83.55 51.9 Q-83.55 52.65 -84.15 53.25 -84.75 53.85 -85.55 53.85 L-86.95 53.85 Q-87.75 53.85 -88.35 53.25 -88.95 52.65 -88.95 51.9 L-88.95 47.45 M-96.95 45.45 L-95.55 45.45 Q-94.75 45.45 -94.15 46.05 -93.55 46.65 -93.55 47.45 L-93.55 51.9 Q-93.55 52.65 -94.15 53.25 -94.75 53.85 -95.55 53.85 L-96.95 53.85 Q-97.75 53.85 -98.35 53.25 -98.95 52.65 -98.95 51.9 L-98.95 47.45 Q-98.95 46.65 -98.35 46.05 -97.75 45.45 -96.95 45.45 M-108.95 47.45 Q-108.95 46.65 -108.35 46.05 -107.75 45.45 -106.95 45.45 L-105.55 45.45 Q-104.75 45.45 -104.15 46.05 -103.55 46.65 -103.55 47.45 L-103.55 51.9 Q-103.55 52.65 -104.15 53.25 -104.75 53.85 -105.55 53.85 L-106.95 53.85 Q-107.75 53.85 -108.35 53.25 -108.95 52.65 -108.95 51.9 L-108.95 47.45 M-118.35 46.05 Q-117.75 45.45 -116.95 45.45 L-115.55 45.45 Q-114.75 45.45 -114.15 46.05 -113.55 46.65 -113.55 47.45 L-113.55 51.9 Q-113.55 52.65 -114.15 53.25 -114.75 53.85 -115.55 53.85 L-116.95 53.85 Q-117.75 53.85 -118.35 53.25 -118.95 52.65 -118.95 51.9 L-118.95 47.45 Q-118.95 46.65 -118.35 46.05 M-229.95 47.45 Q-229.95 46.65 -229.35 46.05 -228.75 45.45 -227.95 45.45 L-226.55 45.45 Q-225.75 45.45 -225.15 46.05 -224.55 46.65 -224.55 47.45 L-224.55 51.9 Q-224.55 52.65 -225.15 53.25 -225.75 53.85 -226.55 53.85 L-227.95 53.85 Q-228.75 53.85 -229.35 53.25 -229.95 52.65 -229.95 51.9 L-229.95 47.45 M-239.35 46.05 Q-238.75 45.45 -237.95 45.45 L-236.55 45.45 Q-235.75 45.45 -235.15 46.05 -234.55 46.65 -234.55 47.45 L-234.55 51.9 Q-234.55 52.65 -235.15 53.25 -235.75 53.85 -236.55 53.85 L-237.95 53.85 Q-238.75 53.85 -239.35 53.25 -239.95 52.65 -239.95 51.9 L-239.95 47.45 Q-239.95 46.65 -239.35 46.05 M-168.95 47.45 Q-168.95 46.65 -168.35 46.05 -167.75 45.45 -166.95 45.45 L-165.55 45.45 Q-164.75 45.45 -164.15 46.05 -163.55 46.65 -163.55 47.45 L-163.55 51.9 Q-163.55 52.65 -164.15 53.25 -164.75 53.85 -165.55 53.85 L-166.95 53.85 Q-167.75 53.85 -168.35 53.25 -168.95 52.65 -168.95 51.9 L-168.95 47.45 M-178.35 46.05 Q-177.75 45.45 -176.95 45.45 L-175.55 45.45 Q-174.75 45.45 -174.15 46.05 -173.55 46.65 -173.55 47.45 L-173.55 51.9 Q-173.55 52.65 -174.15 53.25 -174.75 53.85 -175.55 53.85 L-176.95 53.85 Q-177.75 53.85 -178.35 53.25 -178.95 52.65 -178.95 51.9 L-178.95 47.45 Q-178.95 46.65 -178.35 46.05 M-188.95 47.45 Q-188.95 46.65 -188.35 46.05 -187.75 45.45 -186.95 45.45 L-185.55 45.45 Q-184.75 45.45 -184.15 46.05 -183.55 46.65 -183.55 47.45 L-183.55 51.9 Q-183.55 52.65 -184.15 53.25 -184.75 53.85 -185.55 53.85 L-186.95 53.85 Q-187.75 53.85 -188.35 53.25 -188.95 52.65 -188.95 51.9 L-188.95 47.45 M-198.35 46.05 Q-197.75 45.45 -196.95 45.45 L-195.55 45.45 Q-194.75 45.45 -194.15 46.05 -193.55 46.65 -193.55 47.45 L-193.55 51.9 Q-193.55 52.65 -194.15 53.25 -194.75 53.85 -195.55 53.85 L-196.95 53.85 Q-197.75 53.85 -198.35 53.25 -198.95 52.65 -198.95 51.9 L-198.95 47.45 Q-198.95 46.65 -198.35 46.05 M-289.95 47.45 Q-289.95 46.65 -289.35 46.05 -288.75 45.45 -287.95 45.45 L-286.55 45.45 Q-285.75 45.45 -285.15 46.05 -284.55 46.65 -284.55 47.45 L-284.55 51.9 Q-284.55 52.65 -285.15 53.25 -285.75 53.85 -286.55 53.85 L-287.95 53.85 Q-288.75 53.85 -289.35 53.25 -289.95 52.65 -289.95 51.9 L-289.95 47.45 M-299.35 46.05 Q-298.75 45.45 -297.95 45.45 L-296.55 45.45 Q-295.75 45.45 -295.15 46.05 -294.55 46.65 -294.55 47.45 L-294.55 51.9 Q-294.55 52.65 -295.15 53.25 -295.75 53.85 -296.55 53.85 L-297.95 53.85 Q-298.75 53.85 -299.35 53.25 -299.95 52.65 -299.95 51.9 L-299.95 47.45 Q-299.95 46.65 -299.35 46.05 M-309.95 47.45 Q-309.95 46.65 -309.35 46.05 -308.75 45.45 -307.95 45.45 L-306.55 45.45 Q-305.75 45.45 -305.15 46.05 -304.55 46.65 -304.55 47.45 L-304.55 51.9 Q-304.55 52.65 -305.15 53.25 -305.75 53.85 -306.55 53.85 L-307.95 53.85 Q-308.75 53.85 -309.35 53.25 -309.95 52.65 -309.95 51.9 L-309.95 47.45 M-319.35 46.05 Q-318.75 45.45 -317.95 45.45 L-316.55 45.45 Q-315.75 45.45 -315.15 46.05 -314.55 46.65 -314.55 47.45 L-314.55 51.9 Q-314.55 52.65 -315.15 53.25 -315.75 53.85 -316.55 53.85 L-317.95 53.85 Q-318.75 53.85 -319.35 53.25 -319.95 52.65 -319.95 51.9 L-319.95 47.45 Q-319.95 46.65 -319.35 46.05 M-249.95 47.45 Q-249.95 46.65 -249.35 46.05 -248.75 45.45 -247.95 45.45 L-246.55 45.45 Q-245.75 45.45 -245.15 46.05 -244.55 46.65 -244.55 47.45 L-244.55 51.9 Q-244.55 52.65 -245.15 53.25 -245.75 53.85 -246.55 53.85 L-247.95 53.85 Q-248.75 53.85 -249.35 53.25 -249.95 52.65 -249.95 51.9 L-249.95 47.45 M-259.35 46.05 Q-258.75 45.45 -257.95 45.45 L-256.55 45.45 Q-255.75 45.45 -255.15 46.05 -254.55 46.65 -254.55 47.45 L-254.55 51.9 Q-254.55 52.65 -255.15 53.25 -255.75 53.85 -256.55 53.85 L-257.95 53.85 Q-258.75 53.85 -259.35 53.25 -259.95 52.65 -259.95 51.9 L-259.95 47.45 Q-259.95 46.65 -259.35 46.05 M-269.95 47.45 Q-269.95 46.65 -269.35 46.05 -268.75 45.45 -267.95 45.45 L-266.55 45.45 Q-265.75 45.45 -265.15 46.05 -264.55 46.65 -264.55 47.45 L-264.55 51.9 Q-264.55 52.65 -265.15 53.25 -265.75 53.85 -266.55 53.85 L-267.95 53.85 Q-268.75 53.85 -269.35 53.25 -269.95 52.65 -269.95 51.9 L-269.95 47.45 M-279.35 46.05 Q-278.75 45.45 -277.95 45.45 L-276.55 45.45 Q-275.75 45.45 -275.15 46.05 -274.55 46.65 -274.55 47.45 L-274.55 51.9 Q-274.55 52.65 -275.15 53.25 -275.75 53.85 -276.55 53.85 L-277.95 53.85 Q-278.75 53.85 -279.35 53.25 -279.95 52.65 -279.95 51.9 L-279.95 47.45 Q-279.95 46.65 -279.35 46.05 M-179.95 85.45 Q-179.95 84.65 -179.35 84.05 -178.75 83.45 -177.95 83.45 L-176.55 83.45 Q-175.75 83.45 -175.15 84.05 -174.55 84.65 -174.55 85.45 L-174.55 89.9 Q-174.55 90.65 -175.15 91.25 -175.75 91.85 -176.55 91.85 L-177.95 91.85 Q-178.75 91.85 -179.35 91.25 -179.95 90.65 -179.95 89.9 L-179.95 85.45 M-169.95 85.45 Q-169.95 84.65 -169.35 84.05 -168.75 83.45 -167.95 83.45 L-166.55 83.45 Q-165.75 83.45 -165.15 84.05 -164.55 84.65 -164.55 85.45 L-164.55 89.9 Q-164.55 90.65 -165.15 91.25 -165.75 91.85 -166.55 91.85 L-167.95 91.85 Q-168.75 91.85 -169.35 91.25 -169.95 90.65 -169.95 89.9 L-169.95 85.45 M-199.35 84.05 Q-198.75 83.45 -197.95 83.45 L-196.55 83.45 Q-195.75 83.45 -195.15 84.05 -194.55 84.65 -194.55 85.45 L-194.55 89.9 Q-194.55 90.65 -195.15 91.25 -195.75 91.85 -196.55 91.85 L-197.95 91.85 Q-198.75 91.85 -199.35 91.25 -199.95 90.65 -199.95 89.9 L-199.95 85.45 Q-199.95 84.65 -199.35 84.05 M-189.95 85.45 Q-189.95 84.65 -189.35 84.05 -188.75 83.45 -187.95 83.45 L-186.55 83.45 Q-185.75 83.45 -185.15 84.05 -184.55 84.65 -184.55 85.45 L-184.55 89.9 Q-184.55 90.65 -185.15 91.25 -185.75 91.85 -186.55 91.85 L-187.95 91.85 Q-188.75 91.85 -189.35 91.25 -189.95 90.65 -189.95 89.9 L-189.95 85.45 M-219.95 85.45 Q-219.95 84.65 -219.35 84.05 -218.75 83.45 -217.95 83.45 L-216.55 83.45 Q-215.75 83.45 -215.15 84.05 -214.55 84.65 -214.55 85.45 L-214.55 89.9 Q-214.55 90.65 -215.15 91.25 -215.75 91.85 -216.55 91.85 L-217.95 91.85 Q-218.75 91.85 -219.35 91.25 -219.95 90.65 -219.95 89.9 L-219.95 85.45 M-209.95 85.45 Q-209.95 84.65 -209.35 84.05 -208.75 83.45 -207.95 83.45 L-206.55 83.45 Q-205.75 83.45 -205.15 84.05 -204.55 84.65 -204.55 85.45 L-204.55 89.9 Q-204.55 90.65 -205.15 91.25 -205.75 91.85 -206.55 91.85 L-207.95 91.85 Q-208.75 91.85 -209.35 91.25 -209.95 90.65 -209.95 89.9 L-209.95 85.45 M-239.35 84.05 Q-238.75 83.45 -237.95 83.45 L-236.55 83.45 Q-235.75 83.45 -235.15 84.05 -234.55 84.65 -234.55 85.45 L-234.55 89.9 Q-234.55 90.65 -235.15 91.25 -235.75 91.85 -236.55 91.85 L-237.95 91.85 Q-238.75 91.85 -239.35 91.25 -239.95 90.65 -239.95 89.9 L-239.95 85.45 Q-239.95 84.65 -239.35 84.05 M-229.95 85.45 Q-229.95 84.65 -229.35 84.05 -228.75 83.45 -227.95 83.45 L-226.55 83.45 Q-225.75 83.45 -225.15 84.05 -224.55 84.65 -224.55 85.45 L-224.55 89.9 Q-224.55 90.65 -225.15 91.25 -225.75 91.85 -226.55 91.85 L-227.95 91.85 Q-228.75 91.85 -229.35 91.25 -229.95 90.65 -229.95 89.9 L-229.95 85.45 M-285.65 83.4 L-284.25 83.4 Q-283.45 83.4 -282.85 84.0 -282.25 84.6 -282.25 85.4 L-282.25 89.85 Q-282.25 90.6 -282.85 91.2 -283.45 91.8 -284.25 91.8 L-285.65 91.8 Q-286.45 91.8 -287.05 91.2 -287.65 90.6 -287.65 89.85 L-287.65 85.4 Q-287.65 84.6 -287.05 84.0 -286.45 83.4 -285.65 83.4 M-292.85 84.0 Q-292.25 84.6 -292.25 85.4 L-292.25 89.85 Q-292.25 90.6 -292.85 91.2 -293.45 91.8 -294.25 91.8 L-295.65 91.8 Q-296.45 91.8 -297.05 91.2 -297.65 90.6 -297.65 89.85 L-297.65 85.4 Q-297.65 84.6 -297.05 84.0 -296.45 83.4 -295.65 83.4 L-294.25 83.4 Q-293.45 83.4 -292.85 84.0 M-322.85 84.0 Q-322.25 84.6 -322.25 85.4 L-322.25 89.85 Q-322.25 90.6 -322.85 91.2 -323.45 91.8 -324.25 91.8 L-325.65 91.8 Q-326.45 91.8 -327.05 91.2 -327.65 90.6 -327.65 89.85 L-327.65 85.4 Q-327.65 84.6 -327.05 84.0 -326.45 83.4 -325.65 83.4 L-324.25 83.4 Q-323.45 83.4 -322.85 84.0 M-305.65 83.4 L-304.25 83.4 Q-303.45 83.4 -302.85 84.0 -302.25 84.6 -302.25 85.4 L-302.25 89.85 Q-302.25 90.6 -302.85 91.2 -303.45 91.8 -304.25 91.8 L-305.65 91.8 Q-306.45 91.8 -307.05 91.2 -307.65 90.6 -307.65 89.85 L-307.65 85.4 Q-307.65 84.6 -307.05 84.0 -306.45 83.4 -305.65 83.4 M-312.85 84.0 Q-312.25 84.6 -312.25 85.4 L-312.25 89.85 Q-312.25 90.6 -312.85 91.2 -313.45 91.8 -314.25 91.8 L-315.65 91.8 Q-316.45 91.8 -317.05 91.2 -317.65 90.6 -317.65 89.85 L-317.65 85.4 Q-317.65 84.6 -317.05 84.0 -316.45 83.4 -315.65 83.4 L-314.25 83.4 Q-313.45 83.4 -312.85 84.0 M-259.95 85.45 Q-259.95 84.65 -259.35 84.05 -258.75 83.45 -257.95 83.45 L-256.55 83.45 Q-255.75 83.45 -255.15 84.05 -254.55 84.65 -254.55 85.45 L-254.55 89.9 Q-254.55 90.65 -255.15 91.25 -255.75 91.85 -256.55 91.85 L-257.95 91.85 Q-258.75 91.85 -259.35 91.25 -259.95 90.65 -259.95 89.9 L-259.95 85.45 M-249.95 85.45 Q-249.95 84.65 -249.35 84.05 -248.75 83.45 -247.95 83.45 L-246.55 83.45 Q-245.75 83.45 -245.15 84.05 -244.55 84.65 -244.55 85.45 L-244.55 89.9 Q-244.55 90.65 -245.15 91.25 -245.75 91.85 -246.55 91.85 L-247.95 91.85 Q-248.75 91.85 -249.35 91.25 -249.95 90.65 -249.95 89.9 L-249.95 85.45 M-329.95 47.45 Q-329.95 46.65 -329.35 46.05 -328.75 45.45 -327.95 45.45 L-326.55 45.45 Q-325.75 45.45 -325.15 46.05 -324.55 46.65 -324.55 47.45 L-324.55 51.9 Q-324.55 52.65 -325.15 53.25 -325.75 53.85 -326.55 53.85 L-327.95 53.85 Q-328.75 53.85 -329.35 53.25 -329.95 52.65 -329.95 51.9 L-329.95 47.45 M-339.35 46.05 Q-338.75 45.45 -337.95 45.45 L-336.55 45.45 Q-335.75 45.45 -335.15 46.05 -334.55 46.65 -334.55 47.45 L-334.55 51.9 Q-334.55 52.65 -335.15 53.25 -335.75 53.85 -336.55 53.85 L-337.95 53.85 Q-338.75 53.85 -339.35 53.25 -339.95 52.65 -339.95 51.9 L-339.95 47.45 Q-339.95 46.65 -339.35 46.05 M-367.65 85.4 Q-367.65 84.6 -367.05 84.0 -366.45 83.4 -365.65 83.4 L-364.25 83.4 Q-363.45 83.4 -362.85 84.0 -362.25 84.6 -362.25 85.4 L-362.25 89.85 Q-362.25 90.6 -362.85 91.2 -363.45 91.8 -364.25 91.8 L-365.65 91.8 Q-366.45 91.8 -367.05 91.2 -367.65 90.6 -367.65 89.85 L-367.65 85.4 M-372.85 84.0 Q-372.25 84.6 -372.25 85.4 L-372.25 89.85 Q-372.25 90.6 -372.85 91.2 -373.45 91.8 -374.25 91.8 L-375.65 91.8 Q-376.45 91.8 -377.05 91.2 -377.65 90.6 -377.65 89.85 L-377.65 85.4 Q-377.65 84.6 -377.05 84.0 -376.45 83.4 -375.65 83.4 L-374.25 83.4 Q-373.45 83.4 -372.85 84.0 M-387.05 84.0 Q-386.45 83.4 -385.65 83.4 L-384.25 83.4 Q-383.45 83.4 -382.85 84.0 -382.25 84.6 -382.25 85.4 L-382.25 89.85 Q-382.25 90.6 -382.85 91.2 -383.45 91.8 -384.25 91.8 L-385.65 91.8 Q-386.45 91.8 -387.05 91.2 -387.65 90.6 -387.65 89.85 L-387.65 85.4 Q-387.65 84.6 -387.05 84.0 M-392.85 84.0 Q-392.25 84.6 -392.25 85.4 L-392.25 89.85 Q-392.25 90.6 -392.85 91.2 -393.45 91.8 -394.25 91.8 L-395.65 91.8 Q-396.45 91.8 -397.05 91.2 -397.65 90.6 -397.65 89.85 L-397.65 85.4 Q-397.65 84.6 -397.05 84.0 -396.45 83.4 -395.65 83.4 L-394.25 83.4 Q-393.45 83.4 -392.85 84.0 M-332.85 84.0 Q-332.25 84.6 -332.25 85.4 L-332.25 89.85 Q-332.25 90.6 -332.85 91.2 -333.45 91.8 -334.25 91.8 L-335.65 91.8 Q-336.45 91.8 -337.05 91.2 -337.65 90.6 -337.65 89.85 L-337.65 85.4 Q-337.65 84.6 -337.05 84.0 -336.45 83.4 -335.65 83.4 L-334.25 83.4 Q-333.45 83.4 -332.85 84.0 M-352.85 84.0 Q-352.25 84.6 -352.25 85.4 L-352.25 89.85 Q-352.25 90.6 -352.85 91.2 -353.45 91.8 -354.25 91.8 L-355.65 91.8 Q-356.45 91.8 -357.05 91.2 -357.65 90.6 -357.65 89.85 L-357.65 85.4 Q-357.65 84.6 -357.05 84.0 -356.45 83.4 -355.65 83.4 L-354.25 83.4 Q-353.45 83.4 -352.85 84.0 M-347.05 84.0 Q-346.45 83.4 -345.65 83.4 L-344.25 83.4 Q-343.45 83.4 -342.85 84.0 -342.25 84.6 -342.25 85.4 L-342.25 89.85 Q-342.25 90.6 -342.85 91.2 -343.45 91.8 -344.25 91.8 L-345.65 91.8 Q-346.45 91.8 -347.05 91.2 -347.65 90.6 -347.65 89.85 L-347.65 85.4 Q-347.65 84.6 -347.05 84.0 M-452.9 70.0 L-453.55 78.45 -459.0 78.45 -461.3 78.1 -456.3 70.3 -452.9 70.0 M-447.65 69.55 L-447.35 69.55 -441.75 78.45 -450.7 78.45 -450.7 69.8 -447.65 69.55 M-462.1 70.75 L-458.2 70.45 -464.5 77.6 -468.35 77.05 -462.1 70.75" fill="#000000" fill-rule="evenodd" stroke="none"/>
    <path d="M140.0 91.25 L136.65 91.6 127.2 92.3 109.1 93.15 105.25 93.25 76.5 93.25 Q60.55 92.25 21.4 86.75 60.55 92.25 76.5 93.25 L105.25 93.25 109.1 93.15 110.8 96.65 109.1 96.75 108.15 96.75 81.05 96.75 84.45 102.5 Q75.75 103.0 64.3 102.65 L64.25 102.65 64.15 102.65 55.45 107.6 37.6 108.1 30.65 98.95 40.45 98.15 41.5 98.25 41.5 92.9 23.7 89.8 21.4 86.75 17.25 81.25 15.3 78.7 17.25 78.65 17.25 81.25 73.0 83.4 132.2 80.85 132.2 80.75 133.7 80.75 132.2 80.85 133.7 81.15 140.0 91.25 M65.3 100.6 L41.5 98.25 65.3 100.6 M79.3 93.95 L74.45 96.75 64.15 102.65 74.45 96.75 79.3 93.95 M74.45 96.75 L81.05 96.75 74.45 96.75" fill="#808080" fill-rule="evenodd" stroke="none"/>
    <path d="M208.65 71.25 L236.3 57.15 246.45 57.15 232.45 73.25 233.85 90.45 227.2 90.45 Q218.4 79.9 203.0 74.65 L202.85 74.35 202.3 74.65 201.95 74.65 208.65 71.25" fill="#bfbfbf" fill-rule="evenodd" stroke="none"/>
    <path d="M194.45 74.85 L194.45 75.35 133.7 80.75 132.2 80.75 132.2 80.85 73.0 83.4 17.25 81.25 17.25 78.65 127.2 76.6 194.45 74.85" fill="#555555" fill-rule="evenodd" stroke="none"/>
    <path d="M133.7 81.15 Q150.1 84.05 152.95 87.2 L153.05 87.8 Q152.5 89.85 140.0 91.25 L133.7 81.15 M136.65 91.6 Q132.65 93.25 127.2 94.4 120.2 95.9 110.8 96.65 L109.1 93.15 127.2 92.3 136.65 91.6 M108.15 96.75 Q101.9 101.45 84.45 102.5 L81.05 96.75 108.15 96.75" fill="#eeeeee" fill-rule="evenodd" stroke="none"/>
    <path d="M-6.2 80.95 L-6.2 90.45 7.7 87.0 23.7 89.8 30.65 98.95 10.9 100.75 10.2 100.8 6.25 98.3 6.4 95.35 Q-5.65 91.2 -27.9 87.9 L-27.9 82.1 -27.25 81.95 -6.9 80.95 -6.2 80.95" fill="#9a9b96" fill-rule="evenodd" stroke="none"/>
    <path d="M-27.9 87.9 Q-5.65 91.2 6.4 95.35 L6.25 98.3 4.25 132.5 4.0 136.0 Q-25.55 142.5 -48.25 142.65 -65.9 142.75 -76.65 140.2 L-77.7 139.7 -77.75 88.35 -59.15 86.85 Q-43.6 86.2 -29.35 87.65 L-27.9 87.9" fill="url(#gradient2)" fill-rule="evenodd" stroke="none"/>
    <path d="M21.4 86.75 L23.7 89.8 7.7 87.0 -6.2 90.45 -6.2 80.95 -6.2 80.85 3.6 78.85 15.3 78.7 17.25 81.25 21.4 86.75 20.45 86.6 21.4 86.75" fill="#cdcfce" fill-rule="evenodd" stroke="none"/>
    <path d="M23.7 89.8 L41.5 92.9 41.5 98.25 40.45 98.15 30.65 98.95 23.7 89.8" fill="#585856" fill-rule="evenodd" stroke="none"/>
    <path d="M64.3 102.65 L64.25 104.9 64.25 104.95 64.25 108.65 Q53.15 111.0 42.85 112.1 L42.75 112.1 37.95 112.55 28.1 113.0 Q22.8 110.15 15.55 108.8 L37.6 108.1 55.45 107.6 64.15 102.65 64.25 102.65 64.3 102.65" fill="#69666d" fill-rule="evenodd" stroke="none"/>
    <path d="M64.25 104.9 L64.7 104.95 64.25 104.95 64.25 104.9" fill="url(#gradient3)" fill-rule="evenodd" stroke="none"/>
    <path d="M64.7 104.95 Q124.85 111.5 129.45 123.75 130.25 130.4 109.15 137.3 L70.6 140.5 42.85 112.85 42.85 112.1 Q53.15 111.0 64.25 108.65 L64.25 104.95 64.7 104.95" fill="url(#gradient4)" fill-rule="evenodd" stroke="none"/>
    <path d="M42.75 112.1 L42.85 112.85 42.5 120.2 Q30.65 124.6 14.9 124.8 L14.9 124.45 Q29.55 123.5 34.1 117.75 31.75 115.0 28.1 113.0 L37.95 112.55 42.75 112.1" fill="#cbcbc9" fill-rule="evenodd" stroke="none"/>
    <path d="M42.85 112.85 L70.6 140.5 Q16.6 144.35 -33.05 144.5 -70.95 145.6 -107.1 145.0 L-107.1 144.75 -101.2 141.6 -101.2 139.85 -96.25 138.1 -96.25 135.65 Q-86.35 135.25 -82.0 132.5 L-81.9 138.0 -77.7 139.7 -76.65 140.2 Q-65.9 142.75 -48.25 142.65 -25.55 142.5 4.0 136.0 L4.25 132.5 9.55 130.05 9.65 128.3 14.8 126.55 14.85 124.8 14.9 124.8 Q30.65 124.6 42.5 120.2 L42.85 112.85" fill="url(#gradient5)" fill-rule="evenodd" stroke="none"/>
    <path d="M28.1 113.0 Q31.75 115.0 34.1 117.75 29.55 123.5 14.9 124.45 L15.4 108.8 15.55 108.8 Q22.8 110.15 28.1 113.0" fill="url(#gradient6)" fill-rule="evenodd" stroke="none"/>
    <path d="M6.25 98.3 L10.2 100.8 10.95 101.3 10.85 104.1 9.65 128.3 9.55 130.05 4.25 132.5 6.25 98.3" fill="url(#gradient7)" fill-rule="evenodd" stroke="none"/>
    <path d="M10.9 100.75 L30.65 98.95 37.6 108.1 15.55 108.8 15.4 108.8 15.5 106.2 10.85 104.1 10.95 101.3 10.9 100.75 M-101.2 116.0 L-101.2 112.5 -106.8 109.0 -106.8 106.9 -119.1 104.75 -119.1 104.3 -106.0 100.8 -105.85 100.0 -94.25 101.75 -82.35 117.05 -82.35 118.5 -96.25 119.15 -96.25 118.45 -101.2 116.0" fill="#a9a298" fill-rule="evenodd" stroke="none"/>
    <path d="M14.85 124.8 L14.8 126.55 9.65 128.3 10.85 104.1 15.5 106.2 15.4 108.8 14.9 124.45 14.85 124.8" fill="url(#gradient8)" fill-rule="evenodd" stroke="none"/>
    <path d="M-77.7 139.7 L-81.9 138.0 -82.0 132.5 -82.2 124.75 -82.35 118.5 -82.35 117.05 -82.65 103.55 -82.95 91.5 -78.05 88.35 -77.75 88.35 -77.7 139.7" fill="url(#gradient9)" fill-rule="evenodd" stroke="none"/>
    <path d="M-146.5 92.6 L-146.55 91.85 -146.45 92.6 -146.5 92.6" fill="url(#gradient10)" fill-rule="evenodd" stroke="none"/>
    <path d="M-139.05 95.25 L-139.0 95.25 -119.05 92.85 -119.1 104.3 -120.15 104.6 -120.95 104.45 -139.05 102.05 -139.05 95.25" fill="#9b9e97" fill-rule="evenodd" stroke="none"/>
    <path d="M-119.1 104.3 L-119.05 92.85 -107.8 91.85 -106.55 91.75 -105.8 91.7 -102.95 91.5 -102.25 91.5 -94.25 101.75 -105.85 100.0 -106.0 100.8 -119.1 104.3" fill="#c4c6c5" fill-rule="evenodd" stroke="none"/>
    <path d="M-102.25 91.5 L-82.95 91.5 -82.65 103.55 -94.25 101.75 -102.25 91.5" fill="#787878" fill-rule="evenodd" stroke="none"/>
    <path d="M-96.25 119.15 L-82.35 118.5 -82.2 124.75 Q-86.1 122.1 -96.25 120.9 L-96.25 119.15 M-190.9 141.05 L-230.2 137.3 -246.7 117.2 Q-245.5 118.55 -241.65 119.95 -235.0 120.95 -230.5 125.05 -227.55 127.75 -221.4 129.4 L-214.3 130.7 -192.25 133.4 -190.9 141.05" fill="#494949" fill-rule="evenodd" stroke="none"/>
    <path d="M-96.25 135.65 L-96.25 138.1 -101.2 139.85 -101.2 116.0 -96.25 118.45 -96.25 119.15 -96.25 120.9 -96.25 135.65" fill="url(#gradient11)" fill-rule="evenodd" stroke="none"/>
    <path d="M-101.2 139.85 L-101.2 141.6 -107.1 144.75 -106.8 109.0 -101.2 112.5 -101.2 116.0 -101.2 139.85" fill="url(#gradient12)" fill-rule="evenodd" stroke="none"/>
    <path d="M-82.35 117.05 L-94.25 101.75 -82.65 103.55 -82.35 117.05" fill="#585954" fill-rule="evenodd" stroke="none"/>
    <path d="M-139.05 102.05 L-120.95 104.45 -120.15 104.6 -119.1 104.75 -106.8 106.9 -106.8 109.0 -107.1 144.75 -107.6 145.0 -107.1 145.0 -107.15 147.2 Q-146.55 158.2 -185.95 151.5 L-186.0 151.5 -187.05 102.9 Q-177.1 100.6 -163.9 100.6 L-139.05 102.05" fill="url(#gradient13)" fill-rule="evenodd" stroke="none"/>
    <path d="M-82.0 132.5 Q-86.35 135.25 -96.25 135.65 L-96.25 120.9 Q-86.1 122.1 -82.2 124.75 L-82.0 132.5" fill="url(#gradient14)" fill-rule="evenodd" stroke="none"/>
    <path d="M-139.05 95.25 L-139.05 102.05 -163.9 100.6 -161.2 99.8 Q-155.95 98.3 -149.4 97.05 L-139.05 95.25" fill="#ccd4d7" fill-rule="evenodd" stroke="none"/>
    <path d="M-248.55 73.95 Q-251.6 73.3 -255.2 70.35 L-255.2 70.4 Q-258.9 67.35 -258.95 64.85 -258.95 62.35 -257.9 61.2 L-257.8 61.15 -257.8 61.1 -257.7 61.05 Q-256.55 60.05 -253.5 59.75 -250.05 59.4 -245.3 60.5 -240.55 61.5 -236.75 64.8 L-236.3 65.2 -236.25 65.25 Q-233.15 68.1 -233.1 70.6 -233.05 73.2 -234.85 74.55 -236.75 75.9 -241.85 75.5 L-241.9 75.5 -242.0 75.5 -242.25 75.6 -242.4 75.75 -242.8 76.25 -242.75 76.2 Q-246.5 79.2 -250.6 77.65 L-249.75 77.3 Q-248.45 76.6 -248.15 74.55 L-248.25 74.2 Q-248.35 74.0 -248.55 73.95 M-241.85 73.4 L-240.35 73.05 -240.35 73.1 Q-238.4 72.35 -239.1 70.35 L-239.1 70.4 -239.6 69.15 Q-241.55 65.85 -244.7 63.55 -246.05 62.55 -247.5 62.15 L-247.55 62.1 -248.45 61.95 -248.85 61.9 -249.85 62.0 -249.9 62.0 -250.85 62.2 Q-251.55 62.45 -251.75 63.5 -251.9 64.45 -251.55 65.45 -250.2 68.9 -247.45 71.4 L-246.25 72.35 Q-244.3 73.5 -241.85 73.4 M-302.35 68.9 L-300.65 63.55 -300.65 63.45 Q-300.5 61.5 -299.5 60.6 -298.45 59.7 -296.5 59.85 -293.5 60.3 -291.05 63.4 L-283.85 75.15 -289.75 75.2 -294.45 65.8 -294.7 65.55 -295.05 65.55 -295.35 65.8 -300.0 75.3 -305.45 75.35 -314.3 59.95 Q-310.15 59.6 -307.15 62.85 L-303.25 69.05 -302.95 69.25 -302.6 69.2 -302.35 68.9 M-316.1 62.9 L-322.8 62.65 -323.15 62.75 -323.35 63.05 -323.25 63.4 -316.55 75.45 -322.45 75.5 -329.55 63.35 -329.75 63.2 -330.0 63.1 Q-336.35 63.1 -339.05 59.75 L-322.85 60.15 Q-317.95 59.85 -316.1 62.9 M-274.6 70.0 L-268.05 69.85 -267.75 69.75 -267.55 69.55 -267.55 69.25 -267.7 69.0 -268.35 68.35 -276.15 61.95 -276.45 61.8 -276.75 61.9 -276.95 62.15 -276.95 62.45 -275.05 69.65 -274.9 69.9 -274.6 70.0 M-273.8 71.9 L-274.05 72.0 -274.25 72.25 -274.3 72.5 -273.7 75.05 -279.9 75.1 -283.3 59.65 Q-275.35 59.0 -270.45 62.6 L-256.3 74.9 -261.9 74.95 -264.85 71.9 -265.0 71.8 -265.2 71.75 -273.8 71.9 M-372.1 59.6 L-365.25 60.15 Q-361.75 60.9 -360.7 63.8 L-360.7 63.75 Q-359.9 66.4 -364.65 68.1 -370.15 69.95 -370.6 70.55 L-370.65 70.55 Q-371.25 71.2 -370.75 72.5 -370.35 73.7 -366.35 73.6 L-366.3 73.6 Q-362.85 73.55 -359.05 71.75 L-356.7 74.3 -358.55 75.05 -362.25 76.1 -365.4 76.45 -369.75 76.05 Q-373.25 75.55 -375.8 73.25 L-377.25 71.65 -377.2 71.7 Q-377.9 70.4 -377.5 69.3 -376.75 67.4 -371.8 65.85 -369.15 64.95 -368.0 64.45 L-367.15 63.95 Q-366.85 63.6 -367.0 63.35 -367.0 63.15 -367.15 63.05 -367.45 61.95 -369.35 61.6 -371.2 61.25 -373.35 61.65 L-376.2 61.85 Q-377.05 61.7 -377.7 61.2 L-377.75 61.15 -378.6 60.35 -372.1 59.6 M-340.6 70.2 L-340.25 70.05 -340.1 69.7 -340.25 69.35 -343.75 65.75 Q-345.6 63.9 -347.2 63.3 L-348.9 62.8 -349.15 63.0 -349.2 63.4 -347.75 69.7 -347.6 69.95 -347.3 70.05 -340.6 70.2 M-337.05 72.7 Q-337.15 72.6 -337.2 72.6 L-337.4 72.55 -346.55 72.7 -346.8 72.8 -347.0 73.05 -347.0 73.35 -346.45 75.7 -352.1 75.75 -355.8 60.2 Q-347.25 59.0 -341.3 64.1 L-329.3 75.55 -334.25 75.6 -337.05 72.7" fill="#2c3a43" fill-rule="evenodd" stroke="none"/>
    <path d="M-236.8 137.05 Q-262.15 132.35 -262.05 125.5 -260.7 118.3 -247.2 115.45 -247.45 116.2 -246.85 117.0 L-246.7 117.2 -230.2 137.3 -232.85 137.0 -236.8 137.05" fill="#8d8d8d" fill-rule="evenodd" stroke="none"/>
    <path d="M-186.0 151.5 L-188.5 151.05 Q-189.9 145.95 -190.9 141.05 L-192.25 133.4 Q-193.8 122.85 -193.4 113.2 -193.25 108.75 -192.65 104.45 -190.0 103.55 -187.05 102.9 L-186.0 151.5" fill="url(#gradient15)" fill-rule="evenodd" stroke="none"/>
    <path d="M-193.4 113.2 Q-193.8 122.85 -192.25 133.4 L-214.3 130.7 -221.4 129.4 -193.4 113.2" fill="#2f2f2f" fill-rule="evenodd" stroke="none"/>
    <path d="M199.2 70.75 L208.35 70.7 208.65 71.25 201.95 74.65 194.45 74.85 127.2 76.6 17.25 78.65 15.3 78.7 3.6 78.85 -6.2 80.85 -6.9 80.95 -27.25 81.95 -27.9 82.0 -28.25 82.15 -59.15 86.85 -77.75 88.35 -78.05 88.35 -82.95 91.5 -102.25 91.5 -102.95 91.5 -105.8 91.7 -106.55 91.75 -107.8 91.85 -119.05 92.85 -139.0 95.25 -139.05 95.25 -149.4 97.05 Q-155.95 98.3 -161.2 99.8 L-163.9 100.6 Q-177.1 100.6 -187.05 102.9 -190.0 103.55 -192.65 104.45 -193.25 108.75 -193.4 113.2 L-221.4 129.4 Q-227.55 127.75 -230.5 125.05 -235.0 120.95 -241.65 119.95 -245.5 118.55 -246.7 117.2 L-246.85 117.0 Q-247.45 116.2 -247.2 115.45 L-247.2 115.35 Q-244.1 109.75 -219.4 103.8 L-196.95 99.8 Q-175.2 96.2 -149.4 93.0 L-146.5 92.6 -146.45 92.6 -139.3 91.7 -138.8 91.65 -135.1 91.2 -134.6 91.15 -129.75 90.65 -124.55 90.1 -119.95 89.6 -114.55 89.05 -109.95 88.55 -104.55 87.95 -99.95 87.45 -94.55 86.9 -89.95 86.4 -84.55 85.8 -79.95 85.35 -74.65 84.75 12.7 75.4 127.2 71.65 Q162.55 70.9 198.15 70.75 L199.2 70.75" fill="url(#gradient16)" fill-rule="evenodd" stroke="none"/>
    <path d="M-229.65 78.4 L-382.7 78.4 -382.7 57.8 -229.65 57.8 -229.65 78.4 M-248.15 74.55 Q-248.45 76.6 -249.75 77.3 L-250.6 77.65 Q-246.5 79.2 -242.75 76.2 L-242.8 76.25 -242.4 75.75 -242.25 75.6 -242.0 75.5 -241.9 75.5 -241.85 75.5 Q-236.75 75.9 -234.85 74.55 -233.05 73.2 -233.1 70.6 -233.15 68.1 -236.25 65.25 L-236.3 65.2 -236.75 64.8 Q-240.55 61.5 -245.3 60.5 -250.05 59.4 -253.5 59.75 -256.55 60.05 -257.7 61.05 L-257.8 61.1 -257.8 61.15 -257.9 61.2 Q-258.95 62.35 -258.95 64.85 -258.9 67.35 -255.2 70.4 L-255.2 70.35 Q-251.6 73.3 -248.55 73.95 L-248.15 74.55 M-241.85 73.4 Q-244.3 73.5 -246.25 72.35 L-247.45 71.4 Q-250.2 68.9 -251.55 65.45 -251.9 64.45 -251.75 63.5 -251.55 62.45 -250.85 62.2 L-249.9 62.0 -249.85 62.0 -248.85 61.9 -248.45 61.95 -247.55 62.1 -247.5 62.15 Q-246.05 62.55 -244.7 63.55 -241.55 65.85 -239.6 69.15 L-239.1 70.4 -239.1 70.35 Q-238.4 72.35 -240.35 73.1 L-240.35 73.05 -241.85 73.4 M-303.25 69.05 L-307.15 62.85 Q-310.15 59.6 -314.3 59.95 L-305.45 75.35 -300.0 75.3 -295.35 65.8 -295.05 65.55 -294.7 65.55 -294.45 65.8 -289.75 75.2 -283.85 75.15 -291.05 63.4 Q-293.5 60.3 -296.5 59.85 -298.45 59.7 -299.5 60.6 -300.5 61.5 -300.65 63.45 L-300.65 63.55 -302.35 68.9 -303.25 69.05 M-316.1 62.9 Q-317.95 59.85 -322.85 60.15 L-339.05 59.75 Q-336.35 63.1 -330.0 63.1 L-329.75 63.2 -329.55 63.35 -322.45 75.5 -316.55 75.45 -323.25 63.4 -323.35 63.05 -323.15 62.75 -322.8 62.65 -316.1 62.9 M-275.05 69.65 L-276.95 62.45 -276.95 62.15 -276.75 61.9 -276.45 61.8 -276.15 61.95 -268.35 68.35 -267.7 69.0 -267.55 69.25 -267.55 69.55 -267.75 69.75 -268.05 69.85 -274.6 70.0 Q-274.85 69.8 -275.05 69.65 M-274.3 72.5 L-273.8 71.9 -265.2 71.75 -264.85 71.9 -261.9 74.95 -256.3 74.9 -270.45 62.6 Q-275.35 59.0 -283.3 59.65 L-279.9 75.1 -273.7 75.05 -274.3 72.5 M-372.1 59.6 L-378.6 60.35 -377.75 61.15 -377.7 61.2 Q-377.05 61.7 -376.2 61.85 L-373.35 61.65 Q-371.2 61.25 -369.35 61.6 -367.45 61.95 -367.15 63.05 -367.0 63.15 -367.0 63.35 -366.85 63.6 -367.15 63.95 L-368.0 64.45 Q-369.15 64.95 -371.8 65.85 -376.75 67.4 -377.5 69.3 -377.9 70.4 -377.2 71.7 L-377.25 71.65 -375.8 73.25 Q-373.25 75.55 -369.75 76.05 L-365.4 76.45 -362.25 76.1 -358.55 75.05 -356.7 74.3 -359.05 71.75 Q-362.85 73.55 -366.3 73.6 L-366.35 73.6 Q-370.35 73.7 -370.75 72.5 -371.25 71.2 -370.65 70.55 L-370.6 70.55 Q-370.15 69.95 -364.65 68.1 -359.9 66.4 -360.7 63.75 L-360.7 63.8 Q-361.75 60.9 -365.25 60.15 L-372.1 59.6 M-340.6 70.2 L-347.3 70.05 -347.75 69.7 -349.2 63.4 -349.15 63.0 -348.9 62.8 -347.2 63.3 Q-345.6 63.9 -343.75 65.75 L-340.25 69.35 -340.6 70.2 M-337.4 72.55 L-337.05 72.7 -334.25 75.6 -329.3 75.55 -341.3 64.1 Q-347.25 59.0 -355.8 60.2 L-352.1 75.75 -346.45 75.7 -347.0 73.35 -347.0 73.05 -346.8 72.8 -346.55 72.7 -337.4 72.55" fill="url(#gradient17)" fill-rule="evenodd" stroke="none"/>
    <path d="M285.3 -14.45 L285.25 -14.45 256.5 14.65 255.8 15.25 253.65 16.8 Q248.35 20.35 241.75 22.65 L240.95 22.95 Q235.6 24.7 229.45 25.6 L217.9 26.6 216.9 26.55 213.05 26.4 -299.0 25.9 Q-383.85 27.6 -416.1 40.05 -447.8 52.25 -470.0 76.45 -494.15 87.35 -496.25 99.8 L-496.45 101.5 Q-497.1 124.6 -435.8 131.2 -375.55 137.7 -236.8 137.05 L-232.85 137.0 -230.2 137.3 -190.9 141.05 Q-189.9 145.95 -188.5 151.05 L-186.0 151.5 -185.95 151.5 Q-146.55 158.2 -107.15 147.2 L-107.1 145.0 Q-70.95 145.6 -33.05 144.5 16.6 144.35 70.6 140.5 L109.15 137.3 132.1 135.05 133.25 134.9 183.8 128.9 Q231.1 121.2 279.1 110.8 302.1 105.8 325.25 100.2 349.9 94.25 374.75 87.55 L414.65 76.4 451.25 65.45 452.1 65.15 M463.2 -104.1 L487.0 -154.0 447.35 -153.05 Q421.05 -151.05 409.1 -139.85 L285.3 -14.45 M462.45 -102.55 L463.2 -104.1 M446.9 -69.9 L462.45 -102.55 M411.9 44.7 L443.1 38.7 450.45 38.4 496.45 36.3 451.15 50.95 451.25 65.45 M391.25 48.65 L411.9 44.7 394.05 42.15 393.45 42.05 446.9 -69.9 M404.15 66.2 L402.95 66.55 382.0 70.5 370.35 72.7 Q324.75 78.8 304.2 72.95 297.2 70.95 293.1 67.55 L293.05 67.5 391.25 48.65 M404.15 66.2 L451.15 50.95 M199.2 70.75 L208.35 70.7 M208.65 71.25 L236.3 57.15 246.45 57.15 232.45 73.25 233.85 90.45 227.2 90.45 Q218.4 79.9 203.0 74.65 M202.3 74.65 L194.45 75.35 133.7 80.75 132.2 80.85 133.7 81.15 Q150.1 84.05 152.95 87.2 L153.05 87.8 Q152.5 89.85 140.0 91.25 L136.65 91.6 Q132.65 93.25 127.2 94.4 120.2 95.9 110.8 96.65 L109.1 96.75 108.15 96.75 Q101.9 101.45 84.45 102.5 75.75 103.0 64.3 102.65 L64.25 104.9 64.7 104.95 M-247.2 115.45 L-247.2 115.35 Q-244.1 109.75 -219.4 103.8 L-196.95 99.8 Q-175.2 96.2 -149.4 93.0 L-146.5 92.6 -146.45 92.6 -139.3 91.7 -138.8 91.65 -135.1 91.2 -134.6 91.15 -129.75 90.65 -124.55 90.1 -119.95 89.6 -114.55 89.05 -109.95 88.55 -104.55 87.95 -99.95 87.45 -94.55 86.9 -89.95 86.4 -84.55 85.8 -79.95 85.35 -74.65 84.75 12.7 75.4 127.2 71.65 Q162.55 70.9 198.15 70.75 L199.2 70.75 M-84.55 85.45 L-84.55 85.8 M201.95 74.65 L202.3 74.65 M201.95 74.65 L194.45 74.85 127.2 76.6 17.25 78.65 15.3 78.7 3.6 78.85 -6.2 80.85 -6.2 80.95 M208.65 71.25 L201.95 74.65 M23.7 89.8 L41.5 92.9 M41.5 98.25 L65.3 100.6 M109.1 93.15 L127.2 92.3 136.65 91.6 M108.15 96.75 L81.05 96.75 74.45 96.75 79.3 93.95 M7.7 87.0 L23.7 89.8 M30.65 98.95 L40.45 98.15 41.5 98.25 M-27.9 87.9 Q-5.65 91.2 6.4 95.35 L6.25 98.3 10.2 100.8 10.9 100.75 30.65 98.95 M37.6 108.1 L55.45 107.6 64.15 102.65 74.45 96.75 M21.4 86.75 L20.45 86.6 M64.15 102.65 L64.25 102.65 64.3 102.65 M64.25 104.9 L64.25 104.95 64.25 108.65 Q53.15 111.0 42.85 112.1 L42.85 112.85 42.5 120.2 Q30.65 124.6 14.9 124.8 L14.85 124.8 14.8 126.55 9.65 128.3 9.55 130.05 4.25 132.5 4.0 136.0 Q-25.55 142.5 -48.25 142.65 -65.9 142.75 -76.65 140.2 L-77.7 139.7 -81.9 138.0 -82.0 132.5 Q-86.35 135.25 -96.25 135.65 L-96.25 138.1 -101.2 139.85 -101.2 141.6 -107.1 144.75 -107.1 145.0 -107.6 145.0 -107.1 144.75 -106.8 109.0 -101.2 112.5 -101.2 116.0 -96.25 118.45 -96.25 119.15 -82.35 118.5 -82.35 117.05 -82.65 103.55 -82.95 91.5 -78.05 88.35 -77.75 88.35 -77.7 139.7 M42.85 112.1 L42.75 112.1 37.95 112.55 28.1 113.0 Q31.75 115.0 34.1 117.75 29.55 123.5 14.9 124.45 L14.85 124.8 M10.2 100.8 L10.95 101.3 10.85 104.1 15.5 106.2 15.4 108.8 15.55 108.8 37.6 108.1 M15.4 108.8 L15.55 108.8 Q22.8 110.15 28.1 113.0 M10.85 104.1 L9.65 128.3 M15.4 108.8 L14.9 124.45 M6.25 98.3 L4.25 132.5 M450.45 38.4 L304.2 72.95 M-59.15 86.85 L-77.75 88.35 M-27.9 82.0 L-27.9 82.1 -27.25 81.95 -27.9 82.0 -28.25 82.15 -27.9 82.1 M-27.9 87.9 L-29.35 87.65 Q-43.6 86.2 -59.15 86.85 M-6.2 80.85 L-6.9 80.95 -27.25 81.95 M-119.05 92.85 L-139.0 95.25 -139.05 95.25 -149.4 97.05 Q-155.95 98.3 -161.2 99.8 L-163.9 100.6 -139.05 102.05 -120.95 104.45 M-119.05 92.85 L-107.8 91.85 -106.55 91.75 -105.8 91.7 -102.95 91.5 -102.25 91.5 -82.95 91.5 M-119.1 104.3 L-119.1 104.75 -106.8 106.9 -106.8 109.0 M-96.25 119.15 L-96.25 120.9 Q-86.1 122.1 -82.2 124.75 L-82.35 118.5 M-120.15 104.6 L-119.1 104.75 M-82.0 132.5 L-82.2 124.75 M-101.2 116.0 L-101.2 139.85 M-96.25 120.9 L-96.25 135.65 M-246.7 117.2 L-246.85 117.0 Q-247.45 116.2 -247.2 115.45 M-187.05 102.9 Q-190.0 103.55 -192.65 104.45 -193.25 108.75 -193.4 113.2 -193.8 122.85 -192.25 133.4 L-190.9 141.05 M-163.9 100.6 Q-177.1 100.6 -187.05 102.9 L-186.0 151.5 M-192.25 133.4 L-214.3 130.7 -221.4 129.4 Q-227.55 127.75 -230.5 125.05 -235.0 120.95 -241.65 119.95 -245.5 118.55 -246.7 117.2 M-193.4 113.2 L-221.4 129.4" fill="none" stroke="#000000" stroke-linecap="round" stroke-linejoin="round" stroke-width="3.0"/>
    <path d="M328.1 34.3 L364.35 38.3 M220.45 26.7 L229.45 27.05 242.4 27.7 243.35 27.75" fill="none" stroke="#999999" stroke-linecap="round" stroke-linejoin="round" stroke-width="3.0"/>
    <path d="M243.35 27.75 Q285.75 30.0 328.1 34.3 M393.45 42.05 L364.35 38.3" fill="none" stroke="#b10101" stroke-linecap="round" stroke-linejoin="round" stroke-width="3.0"/>
    <path d="M217.9 26.6 L220.45 26.7" fill="none" stroke="#000000" stroke-linecap="round" stroke-linejoin="round" stroke-width="3.0"/>
    <path d="M176.1 38.75 Q174.65 37.3 172.6 37.3 L168.2 37.3 Q166.15 37.3 164.65 38.75 163.2 40.25 163.2 42.3 L163.2 56.5 Q163.2 58.55 164.65 60.0 166.15 61.5 168.2 61.5 L172.6 61.5 Q174.65 61.5 176.1 60.0 177.6 58.55 177.6 56.5 L177.6 42.3 Q177.6 40.25 176.1 38.75 M44.45 42.25 L44.45 56.45 Q44.45 58.5 45.9 59.95 47.4 61.45 49.45 61.45 L53.85 61.45 Q55.9 61.45 57.35 59.95 58.85 58.5 58.85 56.45 L58.85 42.25 Q58.85 40.2 57.35 38.7 55.9 37.25 53.85 37.25 L49.45 37.25 Q47.4 37.25 45.9 38.7 44.45 40.2 44.45 42.25 M-120.95 104.45 L-120.15 104.6 -119.1 104.3 -106.0 100.8 M-217.0 38.75 Q-218.45 40.25 -218.45 42.3 L-218.45 56.5 -218.4 57.2 -218.35 57.45 Q-218.1 58.9 -217.0 60.0 -215.5 61.5 -213.45 61.5 L-209.05 61.5 Q-207.0 61.5 -205.55 60.0 -204.05 58.55 -204.05 56.5 L-204.05 42.3 Q-204.05 40.25 -205.55 38.75 -207.0 37.3 -209.05 37.3 L-213.45 37.3 Q-215.5 37.3 -217.0 38.75 M-293.75 106.65 Q-295.2 105.2 -297.25 105.2 L-301.65 105.2 Q-303.7 105.2 -305.2 106.65 -306.65 108.15 -306.65 110.2 L-306.65 124.4 -306.6 125.1 -306.55 125.35 Q-306.3 126.8 -305.2 127.9 -303.7 129.4 -301.65 129.4 L-297.25 129.4 Q-295.2 129.4 -293.75 127.9 -292.25 126.45 -292.25 124.4 L-292.25 110.2 Q-292.25 108.15 -293.75 106.65 M-407.9 76.8 Q-409.35 75.35 -411.4 75.35 L-415.8 75.35 Q-417.85 75.35 -419.35 76.8 -420.8 78.3 -420.8 80.35 L-420.8 94.55 Q-420.8 96.6 -419.35 98.05 -417.85 99.55 -415.8 99.55 L-411.4 99.55 Q-409.35 99.55 -407.9 98.05 -406.4 96.6 -406.4 94.55 L-406.4 80.35 Q-406.4 78.3 -407.9 76.8" fill="none" stroke="#666666" stroke-linecap="round" stroke-linejoin="round" stroke-width="3.0"/>
    <path d="M17.25 81.25 L73.0 83.4 132.2 80.85 M109.1 93.15 L105.25 93.25 76.5 93.25 Q60.55 92.25 21.4 86.75 M-59.15 86.85 L-28.25 82.15" fill="none" stroke="#515151" stroke-linecap="round" stroke-linejoin="round" stroke-width="3.0"/>
  </g>
  <defs>
    <linearGradient gradientTransform="matrix(0.0, 0.0679, -0.4513, 0.0, -126.75, 81.5)" gradientUnits="userSpaceOnUse" id="gradient0" spreadMethod="pad" x1="-819.2" x2="819.2">
      <stop offset="0.611764705882353" stop-color="#ffffff"/>
      <stop offset="1.0" stop-color="#999999"/>
    </linearGradient>
    <linearGradient gradientTransform="matrix(0.0051, 0.0652, -0.1586, 0.0125, 266.55, 86.65)" gradientUnits="userSpaceOnUse" id="gradient1" spreadMethod="pad" x1="-819.2" x2="819.2">
      <stop offset="0.611764705882353" stop-color="#ff0000"/>
      <stop offset="1.0" stop-color="#4b0117"/>
    </linearGradient>
    <linearGradient gradientTransform="matrix(0.0, -0.0342, 0.0514, 0.0, -35.7, 114.65)" gradientUnits="userSpaceOnUse" id="gradient2" spreadMethod="pad" x1="-819.2" x2="819.2">
      <stop offset="0.0" stop-color="#aeaeae"/>
      <stop offset="0.34509803921568627" stop-color="#ffffff"/>
      <stop offset="0.6784313725490196" stop-color="#ffffff"/>
      <stop offset="1.0" stop-color="#aeaeae"/>
    </linearGradient>
    <linearGradient gradientTransform="matrix(0.0529, 0.0, 0.0, 0.0217, 86.15, 122.7)" gradientUnits="userSpaceOnUse" id="gradient3" spreadMethod="pad" x1="-819.2" x2="819.2">
      <stop offset="0.611764705882353" stop-color="#adadad"/>
      <stop offset="1.0" stop-color="#6f6f6f"/>
    </linearGradient>
    <linearGradient gradientTransform="matrix(9.0E-4, 0.0218, -0.0525, 0.0021, 86.3, 122.0)" gradientUnits="userSpaceOnUse" id="gradient4" spreadMethod="pad" x1="-819.2" x2="819.2">
      <stop offset="0.611764705882353" stop-color="#adadad"/>
      <stop offset="1.0" stop-color="#6f6f6f"/>
    </linearGradient>
    <linearGradient gradientTransform="matrix(0.0, 0.0206, -0.1085, 0.0, -19.5, 123.85)" gradientUnits="userSpaceOnUse" id="gradient5" spreadMethod="pad" x1="-819.2" x2="819.2">
      <stop offset="0.611764705882353" stop-color="#555555"/>
      <stop offset="1.0" stop-color="#404040"/>
    </linearGradient>
    <linearGradient gradientTransform="matrix(0.0, 0.0096, -0.0117, 0.0, 24.5, 116.6)" gradientUnits="userSpaceOnUse" id="gradient6" spreadMethod="pad" x1="-819.2" x2="819.2">
      <stop offset="0.09803921568627451" stop-color="#222222"/>
      <stop offset="0.4745098039215686" stop-color="#626262"/>
      <stop offset="0.5686274509803921" stop-color="#626262"/>
      <stop offset="0.9176470588235294" stop-color="#222222"/>
    </linearGradient>
    <linearGradient gradientTransform="matrix(0.0, -0.0209, 0.0041, 0.0, 7.6, 115.4)" gradientUnits="userSpaceOnUse" id="gradient7" spreadMethod="pad" x1="-819.2" x2="819.2">
      <stop offset="0.09803921568627451" stop-color="#666666"/>
      <stop offset="0.4745098039215686" stop-color="#999999"/>
      <stop offset="0.5686274509803921" stop-color="#999999"/>
      <stop offset="0.9176470588235294" stop-color="#666666"/>
    </linearGradient>
    <linearGradient gradientTransform="matrix(0.0, 0.0148, -0.0036, 0.0, 12.6, 116.2)" gradientUnits="userSpaceOnUse" id="gradient8" spreadMethod="pad" x1="-819.2" x2="819.2">
      <stop offset="0.0" stop-color="#aeaeae"/>
      <stop offset="0.34509803921568627" stop-color="#ffffff"/>
      <stop offset="0.6784313725490196" stop-color="#ffffff"/>
      <stop offset="1.0" stop-color="#aeaeae"/>
    </linearGradient>
    <linearGradient gradientTransform="matrix(0.0, -0.0313, 0.0032, 0.0, -80.35, 114.05)" gradientUnits="userSpaceOnUse" id="gradient9" spreadMethod="pad" x1="-819.2" x2="819.2">
      <stop offset="0.09803921568627451" stop-color="#666666"/>
      <stop offset="0.4745098039215686" stop-color="#cccccc"/>
      <stop offset="0.5686274509803921" stop-color="#cccccc"/>
      <stop offset="0.9176470588235294" stop-color="#666666"/>
    </linearGradient>
    <linearGradient gradientTransform="matrix(0.4513, 0.0, 0.0, 0.0679, -126.8, 81.5)" gradientUnits="userSpaceOnUse" id="gradient10" spreadMethod="pad" x1="-819.2" x2="819.2">
      <stop offset="0.611764705882353" stop-color="#ffffff"/>
      <stop offset="1.0" stop-color="#999999"/>
    </linearGradient>
    <linearGradient gradientTransform="matrix(0.0, 0.0146, -0.003, 0.0, -98.7, 127.9)" gradientUnits="userSpaceOnUse" id="gradient11" spreadMethod="pad" x1="-819.2" x2="819.2">
      <stop offset="0.0" stop-color="#aeaeae"/>
      <stop offset="0.34509803921568627" stop-color="#ffffff"/>
      <stop offset="0.6784313725490196" stop-color="#ffffff"/>
      <stop offset="1.0" stop-color="#aeaeae"/>
    </linearGradient>
    <linearGradient gradientTransform="matrix(0.0, -0.0218, 0.0036, 0.0, -104.15, 126.9)" gradientUnits="userSpaceOnUse" id="gradient12" spreadMethod="pad" x1="-819.2" x2="819.2">
      <stop offset="0.09803921568627451" stop-color="#666666"/>
      <stop offset="0.4745098039215686" stop-color="#999999"/>
      <stop offset="0.5686274509803921" stop-color="#999999"/>
      <stop offset="0.9176470588235294" stop-color="#666666"/>
    </linearGradient>
    <linearGradient gradientTransform="matrix(0.0, 0.0326, -0.049, 0.0, -146.9, 127.3)" gradientUnits="userSpaceOnUse" id="gradient13" spreadMethod="pad" x1="-819.2" x2="819.2">
      <stop offset="0.0" stop-color="#aeaeae"/>
      <stop offset="0.34509803921568627" stop-color="#ffffff"/>
      <stop offset="0.6784313725490196" stop-color="#ffffff"/>
      <stop offset="1.0" stop-color="#aeaeae"/>
    </linearGradient>
    <linearGradient gradientTransform="matrix(0.0, -0.009, 0.0087, 0.0, -89.15, 128.3)" gradientUnits="userSpaceOnUse" id="gradient14" spreadMethod="pad" x1="-819.2" x2="819.2">
      <stop offset="0.09803921568627451" stop-color="#222222"/>
      <stop offset="0.4745098039215686" stop-color="#626262"/>
      <stop offset="0.5686274509803921" stop-color="#626262"/>
      <stop offset="0.9176470588235294" stop-color="#222222"/>
    </linearGradient>
    <linearGradient gradientTransform="matrix(0.0, -0.0297, 0.0046, 0.0, -189.75, 127.2)" gradientUnits="userSpaceOnUse" id="gradient15" spreadMethod="pad" x1="-819.2" x2="819.2">
      <stop offset="0.09803921568627451" stop-color="#666666"/>
      <stop offset="0.4745098039215686" stop-color="#cccccc"/>
      <stop offset="0.5686274509803921" stop-color="#cccccc"/>
      <stop offset="0.9176470588235294" stop-color="#666666"/>
    </linearGradient>
    <linearGradient gradientTransform="matrix(0.0148, 0.0459, -0.2427, 0.0779, -65.55, 79.4)" gradientUnits="userSpaceOnUse" id="gradient16" spreadMethod="pad" x1="-819.2" x2="819.2">
      <stop offset="0.32941176470588235" stop-color="#bfbfbf"/>
      <stop offset="0.396078431372549" stop-color="#808080"/>
    </linearGradient>
    <linearGradient gradientTransform="matrix(0.0, 0.0679, 0.4513, 0.0, -485.55, 81.5)" gradientUnits="userSpaceOnUse" id="gradient17" spreadMethod="pad" x1="-819.2" x2="819.2">
      <stop offset="0.611764705882353" stop-color="#ffffff"/>
      <stop offset="1.0" stop-color="#999999"/>
    </linearGradient>
  </defs>
</svg>
