<?xml version="1.0" encoding="UTF-8" standalone="no"?>
<svg xmlns:ffdec="https://www.free-decompiler.com/flash" xmlns:xlink="http://www.w3.org/1999/xlink" ffdec:objectType="shape" height="36.8px" width="38.7px" xmlns="http://www.w3.org/2000/svg">
  <g transform="matrix(1.0, 0.0, 0.0, 1.0, 65.95, 139.9)">
    <path d="M-43.6 -122.8 L-43.6 -112.35 -38.0 -122.3 -43.6 -122.8 M-50.1 -134.9 Q-50.1 -136.25 -49.15 -137.2 -48.2 -138.15 -46.85 -138.15 -45.5 -138.15 -44.55 -137.2 -43.6 -136.25 -43.6 -134.9 L-43.6 -124.85 -36.3 -124.15 Q-35.95 -124.1 -35.7 -123.85 L-35.4 -123.3 -35.5 -122.65 -41.85 -111.35 -32.25 -111.35 Q-30.9 -111.35 -29.95 -110.4 -29.0 -109.45 -29.0 -108.1 -29.0 -106.75 -29.95 -105.8 -30.9 -104.85 -32.25 -104.85 L-60.95 -104.85 Q-62.3 -104.85 -63.25 -105.8 -64.2 -106.75 -64.2 -108.1 -64.2 -109.45 -63.25 -110.4 -62.3 -111.35 -60.95 -111.35 L-50.1 -111.35 -50.1 -134.9" fill="#959595" fill-rule="evenodd" stroke="none"/>
    <path d="M-50.1 -134.9 L-50.1 -111.35 -60.95 -111.35 Q-62.3 -111.35 -63.25 -110.4 -64.2 -109.45 -64.2 -108.1 -64.2 -106.75 -63.25 -105.8 -62.3 -104.85 -60.95 -104.85 L-32.25 -104.85 Q-30.9 -104.85 -29.95 -105.8 -29.0 -106.75 -29.0 -108.1 -29.0 -109.45 -29.95 -110.4 -30.9 -111.35 -32.25 -111.35 L-41.85 -111.35 -35.5 -122.65 -35.4 -123.3 -35.7 -123.85 Q-35.95 -124.1 -36.3 -124.15 L-43.6 -124.85 -43.6 -134.9 Q-43.6 -136.25 -44.55 -137.2 -45.5 -138.15 -46.85 -138.15 -48.2 -138.15 -49.15 -137.2 -50.1 -136.25 -50.1 -134.9 M-43.6 -122.8 L-38.0 -122.3 -43.6 -112.35 -43.6 -122.8 Z" fill="none" stroke="#000000" stroke-linecap="round" stroke-linejoin="round" stroke-width="3.5"/>
    <path d="M-46.85 -134.9 L-46.85 -109.0 M-60.95 -108.1 L-32.25 -108.1" fill="none" stroke="#959595" stroke-linecap="round" stroke-linejoin="round" stroke-width="6.5"/>
    <path d="M-46.35 -124.1 L-36.4 -123.15 -43.8 -109.95" fill="none" stroke="#959595" stroke-linecap="round" stroke-linejoin="round" stroke-width="2.0"/>
    <path d="M-48.8 -115.6 L-48.8 -134.4" fill="none" stroke="#cccccc" stroke-linecap="round" stroke-linejoin="round" stroke-width="2.0"/>
  </g>
</svg>
