<?xml version="1.0" encoding="UTF-8" standalone="no"?>
<svg xmlns:ffdec="https://www.free-decompiler.com/flash" xmlns:xlink="http://www.w3.org/1999/xlink" ffdec:objectType="shape" height="25.75px" width="25.75px" xmlns="http://www.w3.org/2000/svg">
  <g transform="matrix(1.0, 0.0, 0.0, 1.0, 12.85, 12.85)">
    <path d="M0.1 -6.35 L0.0 -6.35 Q-2.6 -6.4 -4.4 -4.5 L-4.45 -4.5 Q-6.35 -2.6 -6.35 0.0 -6.35 2.6 -4.45 4.5 L-4.4 4.55 Q-2.6 6.4 0.05 6.4 2.65 6.4 4.5 4.55 L4.5 4.5 Q6.4 2.6 6.4 0.0 6.4 -2.6 4.5 -4.5 2.65 -6.4 0.1 -6.35 M0.0 -12.85 L0.1 -12.85 Q5.35 -12.9 9.1 -9.1 L9.15 -9.05 Q12.9 -5.25 12.9 0.0 12.9 5.25 9.15 9.1 L9.1 9.1 Q5.35 12.9 0.05 12.9 -5.3 12.9 -9.05 9.1 -12.85 5.25 -12.85 0.0 -12.85 -5.25 -9.05 -9.05 L-9.05 -9.1 Q-5.3 -12.9 0.0 -12.85" fill="#262626" fill-rule="evenodd" stroke="none"/>
    <path d="M0.1 -6.35 Q2.65 -6.4 4.5 -4.5 6.4 -2.6 6.4 0.0 6.4 2.6 4.5 4.5 L4.5 4.55 Q2.65 6.4 0.05 6.4 -2.6 6.4 -4.4 4.55 L-4.45 4.5 Q-6.35 2.6 -6.35 0.0 -6.35 -2.6 -4.45 -4.5 L-4.4 -4.5 Q-2.6 -6.4 0.0 -6.35 L0.1 -6.35" fill="#cccccc" fill-rule="evenodd" stroke="none"/>
    <path d="M-10.4 2.15 L-10.4 2.05 -10.5 1.55 -10.55 1.5 -10.65 0.0 Q-10.65 -4.4 -7.5 -7.55 L-5.0 -9.4 -4.25 -9.5 -3.65 -9.0 -3.6 -8.25 -4.05 -7.65 -6.1 -6.15 Q-8.65 -3.6 -8.65 0.0 L-8.55 1.2 -8.55 1.15 -8.45 1.55 -8.45 1.8 -8.6 2.3 Q-8.8 2.65 -9.2 2.8 L-9.95 2.65 -10.4 2.15" fill="#999999" fill-rule="evenodd" stroke="none"/>
    <path d="M-10.4 2.15 L-9.95 2.65 -9.2 2.8 Q-8.8 2.65 -8.6 2.3 L-8.45 1.8 Q-7.95 4.25 -6.1 6.1 L-5.55 6.6 Q-5.25 6.85 -5.2 7.25 -5.15 7.65 -5.4 8.0 L-6.1 8.35 -6.85 8.15 -7.5 7.5 Q-9.8 5.2 -10.4 2.15" fill="#737373" fill-rule="evenodd" stroke="none"/>
  </g>
</svg>
