<?xml version="1.0" encoding="UTF-8" standalone="no"?>
<svg xmlns:ffdec="https://www.free-decompiler.com/flash" xmlns:xlink="http://www.w3.org/1999/xlink" ffdec:objectType="shape" height="8.85px" width="32.25px" xmlns="http://www.w3.org/2000/svg">
  <g transform="matrix(1.0, 0.0, 0.0, 1.0, 16.15, 4.4)">
    <path d="M-12.95 -2.9 Q-13.5 -2.9 -13.75 -2.35 L-13.95 -0.2 -13.7 1.4 -13.3 2.15 -12.7 2.35 Q-12.2 2.4 -12.0 1.85 -11.7 1.3 -11.8 -0.25 -11.85 -1.75 -12.15 -2.3 -12.4 -2.85 -12.95 -2.9 M-16.15 -0.35 L-15.95 -2.2 -15.7 -3.05 -15.25 -3.7 Q-14.9 -4.05 -14.4 -4.2 L-13.1 -4.4 Q-11.4 -4.35 -10.6 -3.4 -9.7 -2.45 -9.6 -0.2 -9.55 0.75 -9.65 1.5 L-10.05 2.7 -11.05 3.6 -12.65 3.9 Q-14.45 3.85 -15.25 2.85 -16.05 1.8 -16.15 -0.35 M11.5 -1.55 L10.75 1.3 12.5 1.3 11.5 -1.55 M-4.7 0.7 Q-5.0 0.3 -5.4 0.3 -5.8 0.3 -6.15 0.65 -6.45 1.0 -6.4 1.5 -6.4 2.05 -6.05 2.4 L-5.35 2.7 -4.6 2.45 Q-4.3 2.1 -4.3 1.55 -4.35 1.0 -4.7 0.7 M9.95 4.3 L7.4 4.25 10.05 -3.7 12.75 -3.6 16.1 4.45 13.55 4.4 13.1 3.1 10.3 3.0 9.95 4.3 M-1.0 -2.0 Q-1.0 -2.85 -0.35 -3.45 0.35 -4.0 1.95 -4.0 3.3 -3.95 4.05 -3.4 4.85 -2.8 5.1 -1.8 L3.05 -1.5 2.65 -2.3 Q2.4 -2.55 2.0 -2.6 L1.4 -2.4 1.25 -1.8 Q1.25 -1.4 1.55 -1.15 1.85 -0.85 2.25 -0.85 L2.55 -0.85 2.75 0.75 2.05 0.55 Q1.55 0.55 1.3 0.85 1.0 1.2 1.05 1.75 1.05 2.3 1.4 2.6 1.7 2.95 2.15 2.95 L2.85 2.75 3.2 1.8 5.4 2.15 4.85 3.4 3.85 4.1 2.15 4.3 Q1.0 4.3 0.3 3.9 L-0.8 2.9 Q-1.2 2.25 -1.2 1.55 L-1.0 0.6 -0.45 -0.05 0.25 -0.3 -0.65 -1.05 -1.0 -2.0 M-4.6 -1.85 L-4.9 -2.5 Q-5.15 -2.85 -5.55 -2.85 L-6.2 -2.55 -6.4 -1.9 -6.15 -1.25 Q-5.9 -1.0 -5.55 -1.0 -5.1 -1.0 -4.85 -1.2 -4.6 -1.45 -4.6 -1.85 M-8.2 -1.05 L-8.5 -2.1 Q-8.55 -3.0 -7.85 -3.6 -7.1 -4.2 -5.5 -4.2 -4.3 -4.15 -3.55 -3.65 -2.55 -2.95 -2.55 -1.95 -2.5 -1.35 -2.85 -0.85 L-3.55 -0.3 Q-2.85 -0.05 -2.5 0.5 -2.15 1.0 -2.1 1.7 -2.05 2.4 -2.4 3.0 L-3.4 3.85 -5.3 4.1 -6.6 3.95 -7.6 3.5 -8.3 2.7 -8.65 1.55 Q-8.7 0.95 -8.35 0.45 L-7.45 -0.4 -8.2 -1.05" fill="#2c3a43" fill-rule="evenodd" stroke="none"/>
  </g>
</svg>
