<?xml version="1.0" encoding="UTF-8" standalone="no"?>
<svg xmlns:ffdec="https://www.free-decompiler.com/flash" xmlns:xlink="http://www.w3.org/1999/xlink" ffdec:objectType="shape" height="18.85px" width="118.9px" xmlns="http://www.w3.org/2000/svg">
  <g transform="matrix(1.0, 0.0, 0.0, 1.0, 361.15, -59.45)">
    <path d="M-350.8 70.35 L-361.15 59.75 -355.6 59.75 -349.7 66.25 -347.85 59.75 -342.1 59.75 -345.65 70.6 -343.2 77.95 -348.25 77.95 -350.8 70.35 M-329.1 69.9 L-337.0 69.9 -338.15 66.45 -330.25 66.45 -331.3 63.25 -339.9 63.25 -341.0 59.75 -327.35 59.75 -321.45 77.95 -335.05 77.95 -336.2 74.5 -327.6 74.5 -329.1 69.9 M-272.85 70.35 L-283.2 59.75 -277.65 59.75 -271.75 66.25 -269.9 59.75 -264.15 59.75 -267.7 70.6 -265.25 77.95 -270.3 77.95 -272.85 70.35 M-259.9 59.75 L-256.45 59.45 Q-252.85 59.45 -249.95 61.05 -247.05 62.6 -246.2 65.15 -245.55 67.05 -246.2 68.3 -246.8 69.55 -248.9 70.3 L-250.9 70.85 -252.95 71.3 Q-253.7 71.5 -254.15 71.95 -254.65 72.35 -254.4 73.05 L-253.7 74.05 -252.6 74.6 -251.4 74.85 -250.2 74.95 -246.85 74.35 Q-245.25 73.7 -244.15 72.55 L-243.65 72.55 -242.25 76.9 -245.15 77.9 -249.1 78.3 Q-253.1 78.3 -256.0 76.65 -258.9 75.0 -259.75 72.25 -260.45 70.4 -259.8 69.25 -259.1 68.05 -257.3 67.4 L-255.4 66.85 -253.6 66.45 Q-252.1 66.1 -251.75 65.7 -251.35 65.3 -251.55 64.6 L-252.15 63.75 Q-252.65 63.35 -253.2 63.15 L-254.4 62.85 -255.6 62.75 Q-257.3 62.75 -258.75 63.35 -260.15 63.95 -261.0 64.8 L-261.45 64.8 -262.8 60.65 Q-261.6 60.1 -259.9 59.75 M-312.25 59.75 L-306.0 59.75 -300.1 77.95 -304.7 77.95 -308.9 65.3 -312.45 77.95 -317.35 77.95 -323.3 59.75 -318.65 59.75 -315.25 70.2 -312.25 59.75 M-293.75 63.8 Q-294.95 64.5 -295.2 65.8 -295.4 67.05 -294.85 68.85 -294.3 70.65 -293.2 71.9 -292.15 73.15 -290.7 73.85 -289.45 74.45 -288.25 74.5 L-285.35 74.55 -285.25 74.55 -289.0 63.15 -289.1 63.15 -291.8 63.2 Q-292.9 63.25 -293.75 63.8 M-291.25 59.75 L-285.0 59.75 -279.1 77.95 -285.4 77.95 -289.4 77.7 Q-291.3 77.45 -293.2 76.5 -295.45 75.45 -297.35 73.45 -299.25 71.4 -300.05 68.9 -300.95 66.25 -300.4 64.3 -299.9 62.35 -298.3 61.2 -296.95 60.25 -295.2 60.0 L-291.25 59.75" fill="#2c3a43" fill-rule="evenodd" stroke="none"/>
  </g>
</svg>
