<?xml version="1.0" encoding="UTF-8" standalone="no"?>
<svg xmlns:ffdec="https://www.free-decompiler.com/flash" xmlns:xlink="http://www.w3.org/1999/xlink" ffdec:objectType="shape" height="25.2px" width="15.0px" xmlns="http://www.w3.org/2000/svg">
  <g transform="matrix(1.0, 0.0, 0.0, 1.0, 21.35, 60.2)">
    <path d="M-19.85 -58.7 Q-18.3 -60.2 -16.15 -60.2 L-11.55 -60.2 Q-9.45 -60.2 -7.9 -58.7 -6.35 -57.15 -6.35 -55.0 L-6.35 -40.2 Q-6.35 -38.05 -7.9 -36.55 -9.45 -35.0 -11.55 -35.0 L-16.15 -35.0 Q-18.3 -35.0 -19.85 -36.55 -21.4 -38.05 -21.35 -40.2 L-21.35 -55.0 Q-21.4 -57.15 -19.85 -58.7" fill="#000000" fill-rule="evenodd" stroke="none"/>
    <path d="M-19.85 -58.7 Q-21.4 -57.15 -21.35 -55.0 L-21.35 -40.2 Q-21.4 -38.05 -19.85 -36.55 -18.3 -35.0 -16.15 -35.0 L-11.55 -35.0 Q-9.45 -35.0 -7.9 -36.55 -6.35 -38.05 -6.35 -40.2 L-6.35 -55.0 Q-6.35 -57.15 -7.9 -58.7 -9.45 -60.2 -11.55 -60.2 L-16.15 -60.2 Q-18.3 -60.2 -19.85 -58.7 Z" fill="none" stroke="#666666" stroke-linecap="round" stroke-linejoin="round" stroke-width="0.05"/>
  </g>
</svg>
