<?xml version="1.0" encoding="UTF-8" standalone="no"?>
<svg xmlns:ffdec="https://www.free-decompiler.com/flash" xmlns:xlink="http://www.w3.org/1999/xlink" ffdec:objectType="shape" height="13.0px" width="15.6px" xmlns="http://www.w3.org/2000/svg">
  <g transform="matrix(1.0, 0.0, 0.0, 1.0, 20.3, 40.15)">
    <path d="M-20.0 -37.45 L-20.0 -37.55 -19.85 -37.8 Q-19.3 -38.25 -17.0 -39.15 -10.45 -41.75 -6.65 -37.7 L-5.25 -35.9 -4.75 -33.7 -4.7 -32.2 -4.75 -32.0 Q-5.05 -30.55 -6.6 -28.85 -8.25 -27.05 -12.25 -27.15 L-12.15 -28.7 -12.2 -27.85 -12.15 -28.6 -12.25 -28.6 -12.3 -27.15 Q-15.5 -26.95 -17.8 -28.6 -20.15 -30.25 -20.3 -35.8 L-16.65 -33.5 Q-20.0 -36.6 -20.0 -37.45 M-8.8 -31.5 Q-6.3 -30.95 -4.75 -33.7 -6.3 -30.95 -8.8 -31.5 M-12.75 -34.1 Q-11.1 -32.25 -10.85 -30.9 L-12.2 -30.3 -12.25 -28.6 -12.2 -30.3 -10.85 -30.9 Q-11.1 -32.25 -12.75 -34.1" fill="#f4983e" fill-rule="evenodd" stroke="none"/>
    <path d="M-20.15 -37.2 L-20.15 -37.3 -20.0 -37.45 Q-20.0 -36.6 -16.65 -33.5 L-20.3 -35.8 -20.15 -37.2" fill="#995109" fill-rule="evenodd" stroke="none"/>
    <path d="M-5.25 -35.9 L-4.75 -33.7 M-12.3 -27.15 Q-15.5 -26.95 -17.8 -28.6 -20.15 -30.25 -20.3 -35.8 L-20.15 -37.2" fill="none" stroke="#000000" stroke-linecap="round" stroke-linejoin="round" stroke-width="0.05"/>
    <path d="M-20.0 -37.45 L-20.0 -37.55 -19.85 -37.8 Q-19.3 -38.25 -17.0 -39.15 -10.45 -41.75 -6.65 -37.7 L-5.25 -35.9 M-4.75 -33.7 L-4.7 -32.2 -4.75 -32.0 Q-5.05 -30.55 -6.6 -28.85 -8.25 -27.05 -12.25 -27.15 M-12.2 -27.85 L-12.3 -27.15 M-12.2 -27.85 L-12.15 -28.6 M-12.25 -28.6 L-12.2 -30.3 -10.85 -30.9 Q-11.1 -32.25 -12.75 -34.1 M-4.75 -33.7 Q-6.3 -30.95 -8.8 -31.5 M-16.65 -33.5 Q-20.0 -36.6 -20.0 -37.45" fill="none" stroke="#502b05" stroke-linecap="round" stroke-linejoin="round" stroke-width="0.05"/>
  </g>
</svg>
