<?xml version="1.0" encoding="UTF-8" standalone="no"?>
<svg xmlns:ffdec="https://www.free-decompiler.com/flash" xmlns:xlink="http://www.w3.org/1999/xlink" ffdec:objectType="shape" height="22.55px" width="24.55px" xmlns="http://www.w3.org/2000/svg">
  <g transform="matrix(1.0, 0.0, 0.0, 1.0, 23.6, 40.85)">
    <path d="M0.95 -28.9 L0.45 -25.2 -1.55 -25.1 -1.95 -24.5 -2.05 -23.85 Q-4.05 -25.3 -5.65 -25.6 -7.35 -25.95 -9.3 -24.9 L-11.0 -23.85 -10.85 -24.45 -10.55 -24.65 -12.95 -24.55 Q-16.2 -26.5 -19.5 -30.65 -22.45 -34.3 -20.5 -40.1 L-20.4 -40.2 -20.05 -40.5 -14.95 -40.85 Q-3.45 -40.85 -0.1 -32.5 L0.95 -28.9 M-11.5 -30.7 Q-10.1 -26.85 -10.55 -24.65 -10.1 -26.85 -11.5 -30.7" fill="#f4983e" fill-rule="evenodd" stroke="none"/>
    <path d="M-12.95 -24.55 L-10.55 -24.65 -10.85 -24.45 -11.0 -23.85 -9.3 -24.9 Q-7.35 -25.95 -5.65 -25.6 -4.05 -25.3 -2.05 -23.85 L-1.95 -24.5 -1.55 -25.1 0.45 -25.2 -0.4 -22.95 Q-1.65 -20.8 -5.25 -19.0 -8.9 -17.25 -14.85 -19.8 L-13.75 -22.1 -14.9 -19.85 -13.9 -21.95 -14.0 -22.0 -12.95 -24.55" fill="#d26f0b" fill-rule="evenodd" stroke="none"/>
    <path d="M-20.5 -40.1 Q-22.45 -34.3 -19.5 -30.65 -16.2 -26.5 -12.95 -24.55 L-14.0 -22.0 -14.9 -19.85 Q-19.85 -21.45 -22.45 -25.3 -25.0 -29.2 -21.95 -37.75 L-20.9 -39.75 -20.8 -39.9 -20.5 -40.1" fill="#995109" fill-rule="evenodd" stroke="none"/>
    <path d="M0.45 -25.2 L0.95 -28.9 M-20.9 -39.75 L-21.95 -37.75 Q-25.0 -29.2 -22.45 -25.3 -19.85 -21.45 -14.9 -19.85" fill="none" stroke="#000000" stroke-linecap="round" stroke-linejoin="round" stroke-width="0.05"/>
    <path d="M0.95 -28.9 L-0.1 -32.5 Q-3.45 -40.85 -14.95 -40.85 L-20.05 -40.5 -20.4 -40.2 -20.5 -40.1 Q-22.45 -34.3 -19.5 -30.65 -16.2 -26.5 -12.95 -24.55 L-10.55 -24.65 Q-10.1 -26.85 -11.5 -30.7 M0.45 -25.2 L-1.55 -25.1 -1.95 -24.5 -2.05 -23.85 Q-4.05 -25.3 -5.65 -25.6 -7.35 -25.95 -9.3 -24.9 L-11.0 -23.85 -10.85 -24.45 -10.55 -24.65 M-14.0 -22.0 L-12.95 -24.55 M-14.85 -19.8 Q-8.9 -17.25 -5.25 -19.0 -1.65 -20.8 -0.4 -22.95 L0.45 -25.2 M-13.9 -21.95 L-14.9 -19.85" fill="none" stroke="#502b05" stroke-linecap="round" stroke-linejoin="round" stroke-width="0.05"/>
  </g>
</svg>
