<?xml version="1.0" encoding="UTF-8" standalone="no"?>
<svg xmlns:ffdec="https://www.free-decompiler.com/flash" xmlns:xlink="http://www.w3.org/1999/xlink" ffdec:objectType="shape" height="68.1px" width="47.9px" xmlns="http://www.w3.org/2000/svg">
  <g transform="matrix(1.0, 0.0, 0.0, 1.0, 24.1, 41.5)">
    <path d="M-5.2 -41.3 L-2.4 -41.5 -1.5 -40.75 Q3.35 -35.05 6.4 -24.0 9.45 -13.0 12.95 -3.5 16.4 5.95 21.45 13.2 L23.5 16.45 19.9 16.75 10.15 2.1 Q5.3 -5.05 1.85 -14.6 -1.6 -24.2 -3.0 -31.15 L-5.2 -41.3 M-22.85 -41.0 L-19.4 -41.05 -18.7 -37.35 Q-17.35 -27.45 -14.05 -23.1 -10.75 -18.8 -7.1 -4.6 -3.5 9.6 2.6 17.65 0.9 17.5 -0.4 18.35 L-0.75 18.6 Q-5.45 12.0 -11.45 4.85 -17.5 -2.35 -18.45 -10.45 L-20.55 -26.35 -22.85 -41.0" fill="#f4983e" fill-rule="evenodd" stroke="none"/>
    <path d="M-0.95 24.2 L-12.15 11.3 Q-17.85 4.85 -20.0 -4.7 -22.2 -14.3 -23.55 -23.6 -24.9 -32.95 -22.85 -41.0 L-20.55 -26.35 -18.45 -10.45 Q-17.5 -2.35 -11.45 4.85 -5.45 12.0 -0.75 18.6 L-0.95 24.2 M-6.3 -37.6 L-6.25 -38.4 Q-6.1 -39.95 -5.2 -41.3 L-3.0 -31.15 Q-1.6 -24.2 1.85 -14.6 5.3 -5.05 10.15 2.1 L19.9 16.75 19.65 18.2 19.65 20.8 Q17.15 19.7 13.8 17.05 10.4 14.35 4.15 -0.75 -2.15 -15.9 -3.1 -23.0 -4.1 -30.1 -6.3 -37.6" fill="#995109" fill-rule="evenodd" stroke="none"/>
    <path d="M-18.7 -37.35 Q-12.5 -40.2 -6.3 -37.6 -4.1 -30.1 -3.1 -23.0 -2.15 -15.9 4.15 -0.75 10.4 14.35 13.8 17.05 17.15 19.7 19.65 20.8 9.6 16.8 3.2 21.55 L3.25 20.4 Q3.3 18.9 2.6 17.65 -3.5 9.6 -7.1 -4.6 -10.75 -18.8 -14.05 -23.1 -17.35 -27.45 -18.7 -37.35" fill="#f48313" fill-rule="evenodd" stroke="none"/>
    <path d="M23.5 16.45 Q24.2 19.9 23.35 23.25 L23.05 24.25 Q12.95 28.3 0.4 25.3 -0.5 25.0 -0.95 24.2 L-0.75 18.6 -0.4 18.35 Q0.9 17.5 2.6 17.65 3.3 18.9 3.25 20.4 L3.2 21.55 Q9.6 16.8 19.65 20.8 L19.65 18.2 19.9 16.75 23.5 16.45" fill="#d26f0b" fill-rule="evenodd" stroke="none"/>
    <path d="M-5.2 -41.3 L-2.4 -41.5 -1.5 -40.75 Q3.35 -35.05 6.4 -24.0 9.45 -13.0 12.95 -3.5 16.4 5.95 21.45 13.2 L23.5 16.45 M-0.95 24.2 L-12.15 11.3 Q-17.85 4.85 -20.0 -4.7 -22.2 -14.3 -23.55 -23.6 -24.9 -32.95 -22.85 -41.0 L-19.4 -41.05 -18.7 -37.35 Q-12.5 -40.2 -6.3 -37.6 L-6.25 -38.4 Q-6.1 -39.95 -5.2 -41.3" fill="none" stroke="#000000" stroke-linecap="round" stroke-linejoin="round" stroke-width="0.05"/>
    <path d="M23.5 16.45 Q24.2 19.9 23.35 23.25 L23.05 24.25 Q12.95 28.3 0.4 25.3 -0.5 25.0 -0.95 24.2 L-0.75 18.6 Q-5.45 12.0 -11.45 4.85 -17.5 -2.35 -18.45 -10.45 L-20.55 -26.35 -22.85 -41.0 M-5.2 -41.3 L-3.0 -31.15 Q-1.6 -24.2 1.85 -14.6 5.3 -5.05 10.15 2.1 L19.9 16.75 23.5 16.45 M-18.7 -37.35 Q-17.35 -27.45 -14.05 -23.1 -10.75 -18.8 -7.1 -4.6 -3.5 9.6 2.6 17.65 3.3 18.9 3.25 20.4 L3.2 21.55 Q9.6 16.8 19.65 20.8 17.15 19.7 13.8 17.05 10.4 14.35 4.15 -0.75 -2.15 -15.9 -3.1 -23.0 -4.1 -30.1 -6.3 -37.6 M2.6 17.65 Q0.9 17.5 -0.4 18.35 L-0.75 18.6 M19.9 16.75 L19.65 18.2 19.65 20.8" fill="none" stroke="#502b05" stroke-linecap="round" stroke-linejoin="round" stroke-width="0.05"/>
  </g>
</svg>
