<?xml version="1.0" encoding="UTF-8" standalone="no"?>
<svg xmlns:ffdec="https://www.free-decompiler.com/flash" xmlns:xlink="http://www.w3.org/1999/xlink" ffdec:objectType="shape" height="83.0px" width="47.65px" xmlns="http://www.w3.org/2000/svg">
  <g transform="matrix(1.0, 0.0, 0.0, 1.0, 23.8, 41.5)">
    <path d="M-5.2 -41.25 L-4.6 -38.5 -3.55 -33.35 -2.6 -28.65 -1.25 -22.35 -0.25 -18.35 0.85 -14.35 2.0 -10.35 3.25 -6.4 4.7 -2.35 6.25 1.65 7.85 5.7 10.5 11.75 12.85 17.05 Q14.4 20.4 16.25 23.7 L19.9 30.75 Q19.15 33.1 19.65 35.8 L17.0 31.3 14.05 25.8 10.7 18.8 7.8 12.4 6.1 8.4 4.6 4.6 2.75 -0.9 0.8 -7.05 -1.3 -14.35 -2.75 -19.75 -3.95 -25.0 -5.45 -32.2 -6.3 -36.7 -6.3 -36.75 -6.3 -37.0 Q-6.25 -40.15 -5.2 -41.25 M-22.85 -40.85 L-22.3 -36.05 -19.75 -19.9 Q-18.25 -11.7 -15.85 -2.5 -13.5 6.7 -9.5 15.9 -5.5 25.1 -0.75 33.05 L-1.05 34.45 -1.1 39.05 -0.95 40.0 -4.05 35.4 Q-6.2 32.15 -11.0 23.1 -15.75 11.55 -17.65 4.1 L-20.6 -7.65 Q-21.55 -11.95 -22.15 -16.35 L-23.2 -23.75 Q-23.65 -26.75 -23.7 -29.7 L-23.8 -35.7 -23.45 -39.65 -22.85 -40.85" fill="#995109" fill-rule="evenodd" stroke="none"/>
    <path d="M19.9 30.75 L16.25 23.7 Q14.4 20.4 12.85 17.05 L10.5 11.75 7.85 5.7 6.25 1.65 4.7 -2.35 3.25 -6.4 2.0 -10.35 0.85 -14.35 -0.25 -18.35 -1.25 -22.35 -2.6 -28.65 -3.55 -33.35 -4.6 -38.5 -5.2 -41.25 -2.4 -41.5 Q-1.6 -41.05 -1.45 -40.2 0.35 -28.2 3.65 -16.55 L6.05 -8.55 8.9 -0.3 12.1 7.85 13.9 11.8 15.7 15.55 17.5 19.05 19.35 22.25 20.25 23.8 21.05 25.15 21.75 26.4 22.25 27.5 23.1 29.25 23.5 30.4 Q21.4 29.95 19.9 30.75 M-18.7 -36.35 L-18.05 -31.1 -17.15 -25.1 -16.35 -20.55 -15.4 -15.4 -14.05 -8.85 Q-13.3 -5.45 -12.35 -2.4 L-10.1 4.5 -7.8 10.9 -5.35 17.0 -2.6 22.95 0.65 28.9 2.6 31.9 0.7 32.05 Q-0.35 32.25 -0.75 33.05 -5.5 25.1 -9.5 15.9 -13.5 6.7 -15.85 -2.5 -18.25 -11.7 -19.75 -19.9 L-22.3 -36.05 -22.85 -40.85 -20.5 -41.2 Q-19.1 -41.35 -19.0 -39.95 L-18.7 -36.4 -18.7 -36.35" fill="#f4983e" fill-rule="evenodd" stroke="none"/>
    <path d="M-6.3 -36.7 L-5.45 -32.2 -3.95 -25.0 -2.75 -19.75 -1.3 -14.35 0.8 -7.05 2.75 -0.9 4.6 4.6 6.1 8.4 7.8 12.4 10.7 18.8 14.05 25.8 17.0 31.3 19.65 35.8 Q6.75 35.6 3.2 36.7 3.35 33.55 2.8 32.3 L2.6 31.9 0.65 28.9 -2.6 22.95 -5.35 17.0 -7.8 10.9 -10.1 4.5 -12.35 -2.4 Q-13.3 -5.45 -14.05 -8.85 L-15.4 -15.4 -16.35 -20.55 -17.15 -25.1 -18.05 -31.1 -18.7 -36.35 -6.3 -36.7" fill="#f48313" fill-rule="evenodd" stroke="none"/>
    <path d="M19.65 35.8 Q19.15 33.1 19.9 30.75 21.4 29.95 23.5 30.4 23.8 30.95 23.85 32.6 L23.6 37.65 23.2 39.65 Q22.75 41.4 16.7 41.0 10.65 40.55 6.9 41.1 L0.95 41.45 0.2 41.2 -0.65 40.55 -0.85 40.25 -0.95 40.0 -1.1 39.05 -1.05 34.45 -0.75 33.05 Q-0.35 32.25 0.7 32.05 L2.6 31.9 2.8 32.3 Q3.35 33.55 3.2 36.7 6.75 35.6 19.65 35.8" fill="#d26f0b" fill-rule="evenodd" stroke="none"/>
    <path d="M-5.2 -41.25 L-5.2 -41.3 -5.2 -41.25" fill="#ec7702" fill-rule="evenodd" stroke="none"/>
    <path d="M19.9 30.75 L16.25 23.7 Q14.4 20.4 12.85 17.05 L10.5 11.75 7.85 5.7 6.25 1.65 4.7 -2.35 3.25 -6.4 2.0 -10.35 0.85 -14.35 -0.25 -18.35 -1.25 -22.35 -2.6 -28.65 -3.55 -33.35 -4.6 -38.5 -5.2 -41.25 M-6.3 -36.7 L-5.45 -32.2 -3.95 -25.0 -2.75 -19.75 -1.3 -14.35 0.8 -7.05 2.75 -0.9 4.6 4.6 6.1 8.4 7.8 12.4 10.7 18.8 14.05 25.8 17.0 31.3 19.65 35.8 Q19.15 33.1 19.9 30.75 21.4 29.95 23.5 30.4 23.8 30.95 23.85 32.6 L23.6 37.65 23.2 39.65 Q22.75 41.4 16.7 41.0 10.65 40.55 6.9 41.1 L0.95 41.45 0.2 41.2 -0.65 40.55 -0.85 40.25 -0.95 40.0 -1.1 39.05 -1.05 34.45 -0.75 33.05 Q-0.35 32.25 0.7 32.05 L2.6 31.9 2.8 32.3 Q3.35 33.55 3.2 36.7 6.75 35.6 19.65 35.8 M2.6 31.9 L0.65 28.9 -2.6 22.95 -5.35 17.0 -7.8 10.9 -10.1 4.5 -12.35 -2.4 Q-13.3 -5.45 -14.05 -8.85 L-15.4 -15.4 -16.35 -20.55 -17.15 -25.1 -18.05 -31.1 -18.7 -36.35 M-22.85 -40.85 L-22.3 -36.05 -19.75 -19.9 Q-18.25 -11.7 -15.85 -2.5 -13.5 6.7 -9.5 15.9 -5.5 25.1 -0.75 33.05" fill="none" stroke="#502b05" stroke-linecap="round" stroke-linejoin="round" stroke-width="0.05"/>
    <path d="M-5.2 -41.25 Q-6.25 -40.15 -6.3 -37.0 L-6.3 -36.75 -6.3 -36.7 -18.7 -36.35 -18.7 -36.4 -19.0 -39.95 Q-19.1 -41.35 -20.5 -41.2 L-22.85 -40.85 -23.45 -39.65 -23.8 -35.7 -23.7 -29.7 Q-23.65 -26.75 -23.2 -23.75 L-22.15 -16.35 Q-21.55 -11.95 -20.6 -7.65 L-17.65 4.1 Q-15.75 11.55 -11.0 23.1 -6.2 32.15 -4.05 35.4 L-0.95 40.0 M23.5 30.4 L23.1 29.25 22.25 27.5 21.75 26.4 21.05 25.15 20.25 23.8 19.35 22.25 17.5 19.05 15.7 15.55 13.9 11.8 12.1 7.85 8.9 -0.3 6.05 -8.55 3.65 -16.55 Q0.35 -28.2 -1.45 -40.2 -1.6 -41.05 -2.4 -41.5 L-5.2 -41.25 -5.2 -41.3 -5.2 -41.25" fill="none" stroke="#000000" stroke-linecap="round" stroke-linejoin="round" stroke-width="0.05"/>
  </g>
</svg>
