<?xml version="1.0" encoding="UTF-8" standalone="no"?>
<svg xmlns:ffdec="https://www.free-decompiler.com/flash" xmlns:xlink="http://www.w3.org/1999/xlink" ffdec:objectType="shape" height="157.3px" width="124.95px" xmlns="http://www.w3.org/2000/svg">
  <g transform="matrix(1.0, 0.0, 0.0, 1.0, 62.45, 78.65)">
    <path d="M54.4 -17.7 L54.75 -16.9 Q55.8 -14.35 59.25 -11.85 62.7 -9.35 62.5 -7.15 62.25 -4.95 61.85 -4.0 61.4 -3.05 56.45 -2.9 51.45 -2.8 46.3 -9.05 45.1 -10.7 44.05 -13.3 L47.6 -13.05 Q51.2 -13.05 54.4 -17.7 M-44.5 -10.6 L-44.55 -10.55 Q-46.0 -5.75 -48.35 -3.5 -50.7 -1.25 -53.8 -0.05 -56.95 1.15 -58.7 1.15 -60.8 1.15 -61.6 0.3 -62.45 -0.6 -62.45 -3.05 -62.45 -5.75 -61.95 -6.2 -60.35 -6.9 -58.25 -8.45 L-54.6 -11.85 Q-52.65 -13.9 -51.55 -14.35 L-50.65 -16.5 Q-48.4 -15.8 -45.3 -11.0 L-44.5 -10.6 M-5.2 -53.2 Q-7.2 -56.75 -7.2 -61.4 -7.2 -62.9 -6.8 -64.45 L-6.8 -64.5 -2.05 -64.25 Q-1.1 -68.2 0.9 -70.45 2.85 -72.7 6.85 -73.0 L14.5 -72.8 Q17.8 -72.35 19.2 -71.7 20.0 -69.0 20.0 -64.75 L20.0 -64.2 Q19.9 -56.35 17.5 -51.9 L16.8 -50.75 Q13.6 -46.1 7.2 -46.1 1.1 -46.1 -3.0 -50.3 -4.3 -51.65 -5.2 -53.2 M14.5 -63.3 Q14.9 -62.85 15.4 -62.85 15.9 -62.85 16.25 -63.3 16.65 -63.75 16.65 -64.35 16.65 -64.95 16.25 -65.4 15.9 -65.85 15.4 -65.85 14.9 -65.85 14.5 -65.4 14.15 -64.95 14.15 -64.35 14.15 -63.75 14.5 -63.3 M9.55 -65.0 Q9.55 -65.7 9.0 -66.2 8.45 -66.7 7.65 -66.7 6.85 -66.7 6.3 -66.2 5.75 -65.7 5.75 -65.0 5.75 -64.3 6.3 -63.8 6.85 -63.3 7.65 -63.3 8.45 -63.3 9.0 -63.8 9.55 -64.3 9.55 -65.0 M9.55 -54.9 L14.55 -52.4 15.4 -61.2 14.55 -52.4 9.55 -54.9" fill="#ffcc99" fill-rule="evenodd" stroke="none"/>
    <path d="M-6.8 -64.5 Q-7.7 -68.7 -3.75 -73.95 0.2 -79.25 7.8 -78.55 15.4 -77.9 17.9 -74.55 18.7 -73.45 19.2 -71.7 17.8 -72.35 14.5 -72.8 L6.85 -73.0 Q2.85 -72.7 0.9 -70.45 -1.1 -68.2 -2.05 -64.25 L-6.8 -64.5 M9.55 -65.0 Q9.55 -64.3 9.0 -63.8 8.45 -63.3 7.65 -63.3 6.85 -63.3 6.3 -63.8 5.75 -64.3 5.75 -65.0 5.75 -65.7 6.3 -66.2 6.85 -66.7 7.65 -66.7 8.45 -66.7 9.0 -66.2 9.55 -65.7 9.55 -65.0 M14.5 -63.3 Q14.15 -63.75 14.15 -64.35 14.15 -64.95 14.5 -65.4 14.9 -65.85 15.4 -65.85 15.9 -65.85 16.25 -65.4 16.65 -64.95 16.65 -64.35 16.65 -63.75 16.25 -63.3 15.9 -62.85 15.4 -62.85 14.9 -62.85 14.5 -63.3" fill="#000000" fill-rule="evenodd" stroke="none"/>
    <path d="M54.4 -17.7 Q51.2 -13.05 47.6 -13.05 L44.05 -13.3 Q42.05 -18.05 40.5 -20.6 37.55 -25.4 29.2 -29.95 22.9 -33.4 16.65 -35.25 L15.65 -35.4 13.25 -25.2 Q12.5 -22.55 11.75 -14.85 11.4 -11.35 11.6 -8.9 L11.55 -8.9 Q9.9 -7.85 4.5 -6.4 -14.25 -2.0 -17.1 -6.35 L-17.15 -6.4 -15.15 -23.95 Q-15.15 -32.7 -15.55 -36.9 -18.05 -35.15 -25.35 -33.8 -36.5 -30.05 -36.95 -27.75 -37.4 -27.6 -40.05 -20.55 -42.05 -15.3 -44.5 -10.6 L-45.3 -11.0 Q-48.4 -15.8 -50.65 -16.5 -49.85 -18.85 -49.25 -22.0 L-47.85 -30.2 Q-45.75 -40.0 -38.6 -43.6 -36.25 -44.8 -21.45 -48.65 -9.8 -51.65 -5.2 -53.2 -4.3 -51.65 -3.0 -50.3 1.1 -46.1 7.2 -46.1 13.6 -46.1 16.8 -50.75 L17.5 -51.9 18.3 -51.55 Q37.95 -40.8 41.85 -37.55 45.7 -34.35 49.7 -26.9 L54.4 -17.7 M15.8 -36.1 L15.65 -35.45 15.65 -35.4 15.65 -35.45 15.8 -36.1" fill="#336633" fill-rule="evenodd" stroke="none"/>
    <path d="M11.55 -8.9 L17.15 0.25 Q21.7 8.15 28.35 17.05 31.65 21.25 31.75 25.35 31.85 29.4 28.5 38.15 25.15 46.9 24.15 50.95 L22.4 56.9 22.3 57.3 19.4 58.05 Q13.2 59.0 7.2 57.95 L7.0 57.9 7.0 55.95 Q14.15 38.9 14.15 31.25 10.9 27.3 10.45 24.35 L10.45 24.3 10.35 23.7 10.35 24.3 10.35 24.35 Q10.35 33.75 5.65 42.9 L1.65 50.1 Q-0.65 54.35 -1.75 57.65 L-1.75 60.75 -1.95 60.75 Q-7.55 66.0 -14.85 64.2 L-16.4 63.05 -16.4 57.65 Q-14.85 50.15 -11.05 41.2 -8.45 35.05 -8.45 27.05 -8.45 23.0 -9.9 19.45 -10.6 17.75 -14.8 12.4 -19.0 7.0 -17.65 -2.15 L-17.15 -6.35 -17.1 -6.35 Q-14.25 -2.0 4.5 -6.4 9.9 -7.85 11.55 -8.9 M2.85 7.45 Q2.95 8.55 5.55 11.8 8.4 15.3 8.7 16.2 10.1 20.05 10.35 23.3 L10.35 23.7 10.35 23.3 Q10.1 20.05 8.7 16.2 8.4 15.3 5.55 11.8 2.95 8.55 2.85 7.45" fill="#669999" fill-rule="evenodd" stroke="none"/>
    <path d="M22.55 57.1 L25.95 63.0 Q28.1 66.8 30.3 68.3 31.3 71.65 26.7 73.35 21.55 75.0 14.95 69.45 L12.15 65.95 Q8.65 61.9 7.1 58.85 L7.15 58.5 7.2 57.95 Q13.2 59.0 19.4 58.05 L22.3 57.3 22.55 57.1 M-1.75 60.9 Q-0.6 62.05 1.6 66.1 5.0 70.7 5.1 74.1 5.15 77.5 0.5 78.5 -4.2 79.5 -10.55 74.25 -16.45 69.3 -16.8 63.65 L-16.45 63.55 -14.85 64.2 Q-7.55 66.0 -1.95 60.75 L-1.75 60.9" fill="#996633" fill-rule="evenodd" stroke="none"/>
    <path d="M44.05 -13.3 Q45.1 -10.7 46.3 -9.05 51.45 -2.8 56.45 -2.9 61.4 -3.05 61.85 -4.0 62.25 -4.95 62.5 -7.15 62.7 -9.35 59.25 -11.85 55.8 -14.35 54.75 -16.9 L54.4 -17.7 49.7 -26.9 Q45.7 -34.35 41.85 -37.55 37.95 -40.8 18.3 -51.55 M44.05 -13.3 Q42.05 -18.05 40.5 -20.6 37.55 -25.4 29.2 -29.95 22.9 -33.4 16.65 -35.25 M15.65 -35.4 L13.25 -25.2 Q12.5 -22.55 11.75 -14.85 11.4 -11.35 11.6 -8.9 L11.55 -8.9 17.15 0.25 Q21.7 8.15 28.35 17.05 31.65 21.25 31.75 25.35 31.85 29.4 28.5 38.15 25.15 46.9 24.15 50.95 L22.4 56.9 22.55 57.1 25.95 63.0 Q28.1 66.8 30.3 68.3 31.3 71.65 26.7 73.35 21.55 75.0 14.95 69.45 L12.15 65.95 Q8.65 61.9 7.1 58.85 M7.15 58.5 L7.0 57.9 7.0 55.95 Q14.15 38.9 14.15 31.25 10.9 27.3 10.45 24.35 L10.45 24.3 10.35 23.7 10.35 24.3 10.35 24.35 Q10.35 33.75 5.65 42.9 L1.65 50.1 Q-0.65 54.35 -1.75 57.65 L-1.75 60.75 -1.75 60.9 Q-0.6 62.05 1.6 66.1 5.0 70.7 5.1 74.1 5.15 77.5 0.5 78.5 -4.2 79.5 -10.55 74.25 -16.45 69.3 -16.8 63.65 L-16.8 63.6 Q-16.85 63.35 -16.4 63.05 L-16.4 57.65 Q-14.85 50.15 -11.05 41.2 -8.45 35.05 -8.45 27.05 -8.45 23.0 -9.9 19.45 -10.6 17.75 -14.8 12.4 -19.0 7.0 -17.65 -2.15 L-17.15 -6.35 -17.15 -6.4 -15.15 -23.95 Q-15.15 -32.7 -15.55 -36.9 -18.05 -35.15 -25.35 -33.8 -36.5 -30.05 -36.95 -27.75 -37.4 -27.6 -40.05 -20.55 -42.05 -15.3 -44.5 -10.6 L-44.55 -10.55 Q-46.0 -5.75 -48.35 -3.5 -50.7 -1.25 -53.8 -0.05 -56.95 1.15 -58.7 1.15 -60.8 1.15 -61.6 0.3 -62.45 -0.6 -62.45 -3.05 -62.45 -5.75 -61.95 -6.2 -60.35 -6.9 -58.25 -8.45 L-54.6 -11.85 Q-52.65 -13.9 -51.55 -14.35 L-50.65 -16.5 Q-49.85 -18.85 -49.25 -22.0 L-47.85 -30.2 Q-45.75 -40.0 -38.6 -43.6 -36.25 -44.8 -21.45 -48.65 -9.8 -51.65 -5.2 -53.2 -7.2 -56.75 -7.2 -61.4 -7.2 -62.9 -6.8 -64.45 L-6.8 -64.5 Q-7.7 -68.7 -3.75 -73.95 0.2 -79.25 7.8 -78.55 15.4 -77.9 17.9 -74.55 18.7 -73.45 19.2 -71.7 20.0 -69.0 20.0 -64.75 L20.0 -64.2 Q19.9 -56.35 17.5 -51.9 L16.8 -50.75 Q13.6 -46.1 7.2 -46.1 1.1 -46.1 -3.0 -50.3 -4.3 -51.65 -5.2 -53.2 M19.2 -71.7 Q17.8 -72.35 14.5 -72.8 L6.85 -73.0 Q2.85 -72.7 0.9 -70.45 -1.1 -68.2 -2.05 -64.25 L-6.8 -64.5 M15.4 -61.2 L14.55 -52.4 9.55 -54.9 M15.65 -35.4 L15.65 -35.45 15.8 -36.1 M-17.1 -6.35 L-17.15 -6.4 M-17.1 -6.35 Q-14.25 -2.0 4.5 -6.4 9.9 -7.85 11.55 -8.9 M10.35 23.7 L10.35 23.3 Q10.1 20.05 8.7 16.2 8.4 15.3 5.55 11.8 2.95 8.55 2.85 7.45 M-14.85 64.2 Q-7.55 66.0 -1.95 60.75 L-1.75 60.9 M7.2 57.95 L7.0 57.9 M-14.85 64.2 L-16.45 63.55 M22.4 56.9 L22.3 57.3 19.4 58.05 Q13.2 59.0 7.2 57.95" fill="none" stroke="#000000" stroke-linecap="round" stroke-linejoin="round" stroke-width="0.05"/>
  </g>
</svg>
