<?xml version="1.0" encoding="UTF-8" standalone="no"?>
<svg xmlns:ffdec="https://www.free-decompiler.com/flash" xmlns:xlink="http://www.w3.org/1999/xlink" ffdec:objectType="shape" height="31.0px" width="40.3px" xmlns="http://www.w3.org/2000/svg">
  <g transform="matrix(1.0, 0.0, 0.0, 1.0, 24.55, 41.45)">
    <path d="M6.2 -19.65 Q8.75 -19.25 12.5 -17.5 L12.35 -18.3 12.7 -19.05 15.75 -19.15 15.45 -16.35 Q14.55 -13.6 9.75 -11.35 4.95 -9.15 -5.4 -12.35 L-4.75 -15.25 -5.5 -12.35 -4.85 -15.1 -5.05 -15.1 -4.6 -18.35 -0.95 -18.5 -1.35 -18.2 -1.3 -17.45 0.85 -18.8 Q3.45 -20.1 6.2 -19.65 M-1.3 -17.2 L-1.3 -17.45 -1.3 -17.2" fill="#d26f0b" fill-rule="evenodd" stroke="none"/>
    <path d="M12.7 -19.05 L12.35 -18.3 12.5 -17.5 Q8.75 -19.25 6.2 -19.65 -2.7 -22.95 -6.5 -29.0 -10.35 -35.05 -9.25 -40.05 L-8.3 -41.45 Q-2.75 -31.45 2.1 -26.4 6.95 -21.4 12.7 -19.05 M-5.5 -12.35 L-5.5 -12.4 Q-13.85 -14.4 -19.55 -19.3 -25.3 -24.25 -24.45 -35.0 L-23.05 -40.0 Q-24.5 -31.25 -17.5 -26.0 -10.5 -20.8 -4.6 -18.35 L-5.05 -15.1 -5.5 -12.35" fill="#995109" fill-rule="evenodd" stroke="none"/>
    <path d="M6.2 -19.65 Q3.45 -20.1 0.85 -18.8 L-1.3 -17.45 -1.35 -18.2 -0.95 -18.5 Q-1.2 -21.25 -5.15 -26.1 L-9.95 -31.6 Q-16.35 -39.15 -19.15 -40.3 L-17.5 -40.25 Q-13.45 -40.75 -9.25 -40.05 -10.35 -35.05 -6.5 -29.0 -2.7 -22.95 6.2 -19.65" fill="#f48313" fill-rule="evenodd" stroke="none"/>
    <path d="M15.75 -19.15 L12.7 -19.05 Q6.95 -21.4 2.1 -26.4 -2.75 -31.45 -8.3 -41.45 -1.55 -39.55 6.5 -34.75 14.55 -29.95 15.75 -19.15 M-23.05 -40.0 L-18.7 -40.35 -19.15 -40.3 Q-16.35 -39.15 -9.95 -31.6 L-5.15 -26.1 Q-1.2 -21.25 -0.95 -18.5 L-4.6 -18.35 Q-10.5 -20.8 -17.5 -26.0 -24.5 -31.25 -23.05 -40.0" fill="#f4983e" fill-rule="evenodd" stroke="none"/>
    <path d="M12.7 -19.05 L12.35 -18.3 12.5 -17.5 Q8.75 -19.25 6.2 -19.65 3.45 -20.1 0.85 -18.8 L-1.3 -17.45 -1.3 -17.2 M12.7 -19.05 L15.75 -19.15 15.45 -16.35 Q14.55 -13.6 9.75 -11.35 4.95 -9.15 -5.4 -12.35 M-8.3 -41.45 Q-2.75 -31.45 2.1 -26.4 6.95 -21.4 12.7 -19.05 M6.2 -19.65 Q-2.7 -22.95 -6.5 -29.0 -10.35 -35.05 -9.25 -40.05 M-19.15 -40.3 Q-16.35 -39.15 -9.95 -31.6 L-5.15 -26.1 Q-1.2 -21.25 -0.95 -18.5 L-1.35 -18.2 -1.3 -17.45 M-5.5 -12.35 L-4.85 -15.1 M-4.6 -18.35 L-0.95 -18.5 M-5.05 -15.1 L-4.6 -18.35 Q-10.5 -20.8 -17.5 -26.0 -24.5 -31.25 -23.05 -40.0" fill="none" stroke="#502b05" stroke-linecap="round" stroke-linejoin="round" stroke-width="0.05"/>
    <path d="M15.75 -19.15 Q14.55 -29.95 6.5 -34.75 -1.55 -39.55 -8.3 -41.45 L-9.25 -40.05 Q-13.45 -40.75 -17.5 -40.25 L-19.15 -40.3 -18.7 -40.35 -23.05 -40.0 -24.45 -35.0 Q-25.3 -24.25 -19.55 -19.3 -13.85 -14.4 -5.5 -12.4 L-5.5 -12.35" fill="none" stroke="#000000" stroke-linecap="round" stroke-linejoin="round" stroke-width="0.05"/>
  </g>
</svg>
