<?xml version="1.0" encoding="UTF-8" standalone="no"?>
<svg xmlns:ffdec="https://www.free-decompiler.com/flash" xmlns:xlink="http://www.w3.org/1999/xlink" ffdec:objectType="shape" height="52.85px" width="48.15px" xmlns="http://www.w3.org/2000/svg">
  <g transform="matrix(1.0, 0.0, 0.0, 1.0, 24.3, 41.5)">
    <path d="M-5.2 -41.4 L-2.4 -41.5 Q-1.6 -41.25 -1.45 -40.75 0.35 -33.55 4.3 -29.4 8.2 -25.3 8.6 -22.55 9.0 -19.85 10.15 -18.5 11.3 -17.2 12.3 -14.45 13.25 -11.7 14.85 -10.35 16.4 -9.05 16.7 -7.75 17.0 -6.45 17.7 -5.35 18.4 -4.25 19.35 -3.3 L20.25 -2.35 21.05 -1.55 21.75 -0.8 22.25 -0.15 23.1 0.9 23.5 1.6 19.9 1.8 16.25 -2.45 Q14.4 -4.4 12.85 -6.4 L10.5 -9.6 8.25 -12.3 6.7 -13.75 4.05 -16.55 Q2.0 -18.9 2.25 -20.25 2.5 -21.65 1.95 -22.85 L0.85 -25.25 -0.25 -27.65 -1.25 -30.05 -2.6 -33.8 -3.55 -36.65 -4.6 -39.7 -5.2 -41.4 M-22.85 -41.15 L-20.5 -41.35 Q-19.1 -41.45 -19.0 -40.6 L-18.7 -38.45 -18.05 -35.3 Q-17.65 -33.25 -17.15 -32.6 L-15.75 -30.3 -14.7 -28.75 Q-14.55 -28.9 -11.75 -25.1 -8.9 -21.3 -8.95 -18.35 -9.05 -15.45 -7.5 -13.35 -5.95 -11.25 -6.3 -9.75 -6.65 -8.3 -5.35 -6.45 L-2.6 -2.9 0.65 0.7 2.6 2.5 0.7 2.55 Q-0.35 2.65 -0.75 3.15 -8.2 0.4 -12.15 -9.3 -16.1 -19.05 -18.15 -21.1 -20.25 -23.15 -20.75 -28.3 -21.25 -33.5 -22.3 -38.25 L-22.85 -41.15" fill="#f4983e" fill-rule="evenodd" stroke="none"/>
    <path d="M-0.95 9.15 L-1.1 9.1 -1.1 9.45 -3.6 8.95 Q-10.5 7.25 -12.3 1.9 -14.15 -3.5 -18.1 -9.9 L-22.25 -17.0 -22.95 -19.1 Q-23.5 -20.6 -23.8 -26.1 L-24.25 -33.4 Q-24.35 -35.25 -24.1 -35.7 -23.85 -36.2 -23.8 -38.05 -23.75 -39.9 -23.45 -40.4 L-22.85 -41.15 -22.3 -38.25 Q-21.25 -33.5 -20.75 -28.3 -20.25 -23.15 -18.15 -21.1 -16.1 -19.05 -12.15 -9.3 -8.2 0.4 -0.75 3.15 L-1.05 4.0 -1.05 7.1 -1.1 9.05 -0.95 9.15 M-6.3 -38.65 L-6.3 -38.7 -6.3 -38.8 Q-6.25 -40.7 -5.2 -41.4 L-4.6 -39.7 -3.55 -36.65 -2.6 -33.8 -1.25 -30.05 -0.25 -27.65 0.85 -25.25 1.95 -22.85 Q2.5 -21.65 2.25 -20.25 2.0 -18.9 4.05 -16.55 L6.7 -13.75 8.25 -12.3 10.5 -9.6 12.85 -6.4 Q14.4 -4.4 16.25 -2.45 L19.9 1.8 Q19.15 3.2 19.65 4.8 L16.6 2.45 13.05 0.1 Q11.2 -1.15 10.45 -3.3 9.7 -5.5 8.7 -6.55 L6.0 -9.5 3.2 -12.45 Q2.15 -13.55 0.8 -16.25 -0.6 -18.95 -0.9 -20.7 -1.2 -22.4 -2.1 -23.7 -3.0 -25.0 -3.75 -27.65 L-5.1 -32.15 Q-5.75 -34.0 -5.8 -35.65 -5.9 -37.3 -6.3 -38.65 M-1.1 9.1 L-1.1 9.05 -1.1 9.1 -1.1 9.05 -3.6 8.95 -1.1 9.05 -1.1 9.1" fill="#995109" fill-rule="evenodd" stroke="none"/>
    <path d="M-18.7 -38.45 Q-13.3 -41.0 -9.85 -39.65 -6.4 -38.3 -6.3 -38.65 -5.9 -37.3 -5.8 -35.65 -5.75 -34.0 -5.1 -32.15 L-3.75 -27.65 Q-3.0 -25.0 -2.1 -23.7 -1.2 -22.4 -0.9 -20.7 -0.6 -18.95 0.8 -16.25 2.15 -13.55 3.2 -12.45 L6.0 -9.5 8.7 -6.55 Q9.7 -5.5 10.45 -3.3 11.2 -1.15 13.05 0.1 L16.6 2.45 19.65 4.8 Q11.35 8.2 3.2 5.35 3.35 3.5 2.8 2.7 L2.6 2.5 0.65 0.7 -2.6 -2.9 -5.35 -6.45 Q-6.65 -8.3 -6.3 -9.75 -5.95 -11.25 -7.5 -13.35 -9.05 -15.45 -8.95 -18.35 -8.9 -21.3 -11.75 -25.1 -14.55 -28.9 -14.7 -28.75 L-15.75 -30.3 -17.15 -32.6 Q-17.65 -33.25 -18.05 -35.3 L-18.7 -38.45" fill="#f48313" fill-rule="evenodd" stroke="none"/>
    <path d="M23.5 1.6 L23.85 2.9 23.6 5.95 23.2 7.15 Q22.75 8.15 16.55 10.0 10.35 11.85 7.95 11.2 L2.55 10.1 -0.75 9.4 -0.7 9.3 -0.95 9.15 -1.1 9.05 -1.05 7.1 -1.05 4.0 -0.75 3.15 Q-0.35 2.65 0.7 2.55 L2.6 2.5 2.8 2.7 Q3.35 3.5 3.2 5.35 11.35 8.2 19.65 4.8 19.15 3.2 19.9 1.8 L23.5 1.6" fill="#d26f0b" fill-rule="evenodd" stroke="none"/>
    <path d="M-5.2 -41.4 L-2.4 -41.5 Q-1.6 -41.25 -1.45 -40.75 0.35 -33.55 4.3 -29.4 8.2 -25.3 8.6 -22.55 9.0 -19.85 10.15 -18.5 11.3 -17.2 12.3 -14.45 13.25 -11.7 14.85 -10.35 16.4 -9.05 16.7 -7.75 17.0 -6.45 17.7 -5.35 18.4 -4.25 19.35 -3.3 L20.25 -2.35 21.05 -1.55 21.75 -0.8 22.25 -0.15 23.1 0.9 23.5 1.6 M-0.95 9.15 L-1.1 9.1 -1.1 9.05 -3.6 8.95 Q-10.5 7.25 -12.3 1.9 -14.15 -3.5 -18.1 -9.9 L-22.25 -17.0 -22.95 -19.1 Q-23.5 -20.6 -23.8 -26.1 L-24.25 -33.4 Q-24.35 -35.25 -24.1 -35.7 -23.85 -36.2 -23.8 -38.05 -23.75 -39.9 -23.45 -40.4 L-22.85 -41.15 -20.5 -41.35 Q-19.1 -41.45 -19.0 -40.6 L-18.7 -38.45 Q-13.3 -41.0 -9.85 -39.65 -6.4 -38.3 -6.3 -38.65 L-6.3 -38.7 -6.3 -38.8 Q-6.25 -40.7 -5.2 -41.4" fill="none" stroke="#000000" stroke-linecap="round" stroke-linejoin="round" stroke-width="0.05"/>
    <path d="M23.5 1.6 L23.85 2.9 23.6 5.95 23.2 7.15 Q22.75 8.15 16.55 10.0 10.35 11.85 7.95 11.2 L2.55 10.1 -0.75 9.4 M-1.1 9.1 L-1.1 9.45 M-5.2 -41.4 L-4.6 -39.7 -3.55 -36.65 -2.6 -33.8 -1.25 -30.05 -0.25 -27.65 0.85 -25.25 1.95 -22.85 Q2.5 -21.65 2.25 -20.25 2.0 -18.9 4.05 -16.55 L6.7 -13.75 8.25 -12.3 10.5 -9.6 12.85 -6.4 Q14.4 -4.4 16.25 -2.45 L19.9 1.8 23.5 1.6 M-6.3 -38.65 Q-5.9 -37.3 -5.8 -35.65 -5.75 -34.0 -5.1 -32.15 L-3.75 -27.65 Q-3.0 -25.0 -2.1 -23.7 -1.2 -22.4 -0.9 -20.7 -0.6 -18.95 0.8 -16.25 2.15 -13.55 3.2 -12.45 L6.0 -9.5 8.7 -6.55 Q9.7 -5.5 10.45 -3.3 11.2 -1.15 13.05 0.1 L16.6 2.45 19.65 4.8 Q19.15 3.2 19.9 1.8 M2.6 2.5 L0.65 0.7 -2.6 -2.9 -5.35 -6.45 Q-6.65 -8.3 -6.3 -9.75 -5.95 -11.25 -7.5 -13.35 -9.05 -15.45 -8.95 -18.35 -8.9 -21.3 -11.75 -25.1 -14.55 -28.9 -14.7 -28.75 L-15.75 -30.3 -17.15 -32.6 Q-17.65 -33.25 -18.05 -35.3 L-18.7 -38.45 M-0.75 3.15 Q-8.2 0.4 -12.15 -9.3 -16.1 -19.05 -18.15 -21.1 -20.25 -23.15 -20.75 -28.3 -21.25 -33.5 -22.3 -38.25 L-22.85 -41.15 M-0.75 3.15 L-1.05 4.0 -1.05 7.1 -1.1 9.05 -1.1 9.1 M19.65 4.8 Q11.35 8.2 3.2 5.35 3.35 3.5 2.8 2.7 L2.6 2.5 0.7 2.55 Q-0.35 2.65 -0.75 3.15" fill="none" stroke="#502b05" stroke-linecap="round" stroke-linejoin="round" stroke-width="0.05"/>
  </g>
</svg>
