<?xml version="1.0" encoding="UTF-8" standalone="no"?>
<svg xmlns:ffdec="https://www.free-decompiler.com/flash" xmlns:xlink="http://www.w3.org/1999/xlink" ffdec:objectType="shape" height="25.95px" width="14.15px" xmlns="http://www.w3.org/2000/svg">
  <g transform="matrix(1.0, 0.0, 0.0, 1.0, 21.8, 60.05)">
    <path d="M-21.2 -51.0 L-21.2 -56.3 -19.3 -58.3 -19.2 -58.25 -19.3 -58.3 -19.25 -58.4 -19.9 -58.6 -15.2 -60.05 -12.6 -58.35 Q-11.65 -57.6 -10.7 -55.8 L-9.6 -53.65 Q-10.35 -52.55 -11.2 -52.55 L-12.05 -52.55 -12.9 -54.3 Q-13.6 -55.45 -15.6 -56.55 L-19.2 -58.25 -19.2 -57.95 -19.2 -57.85 -19.4 -55.4 -19.8 -52.95 -19.85 -51.55 -19.85 -51.5 -21.2 -51.0 M-19.25 -58.4 L-19.2 -58.35 -19.2 -58.25 -19.2 -58.35 -19.25 -58.4" fill="#336633" fill-rule="evenodd" stroke="none"/>
    <path d="M-9.6 -53.65 L-9.5 -53.45 Q-9.25 -52.85 -8.4 -52.2 -7.6 -51.65 -7.65 -51.1 L-7.8 -50.35 Q-7.9 -50.15 -9.1 -50.1 -10.3 -50.05 -11.55 -51.55 L-12.05 -52.55 -11.2 -52.55 Q-10.35 -52.55 -9.6 -53.65" fill="#ffcc99" fill-rule="evenodd" stroke="none"/>
    <path d="M-21.2 -51.0 L-19.85 -51.5 -19.35 -50.8 -19.4 -50.8 -19.05 -50.25 -19.0 -50.2 -17.65 -49.1 Q-14.95 -47.05 -14.05 -45.8 -13.25 -44.6 -12.95 -42.4 L-12.45 -39.2 -12.15 -37.75 -12.15 -37.65 -12.65 -37.15 Q-13.85 -36.3 -15.2 -35.85 L-15.3 -35.8 -15.5 -36.2 Q-16.1 -43.0 -20.6 -46.7 L-20.45 -46.55 -18.6 -43.8 -18.4 -43.4 -18.45 -43.45 -19.6 -44.8 -20.0 -45.4 -20.45 -46.55 -20.0 -45.4 -21.8 -47.95 Q-21.0 -46.9 -21.15 -47.5 L-21.2 -47.5 -21.2 -47.55 -21.2 -51.0 M-19.4 -50.8 L-19.55 -50.95 -19.35 -50.8 -19.55 -50.95 -19.4 -50.8 M-19.05 -50.25 L-18.5 -49.35 -19.0 -50.2 -18.5 -49.35 -19.05 -50.25 M-21.2 -47.55 L-21.15 -47.5 -21.2 -47.55" fill="#669999" fill-rule="evenodd" stroke="none"/>
    <path d="M-12.15 -37.65 L-12.1 -37.7 -10.7 -36.85 Q-9.85 -36.3 -9.2 -36.2 -8.6 -35.65 -9.35 -34.75 -10.3 -33.8 -12.3 -34.25 L-13.25 -34.65 Q-14.45 -35.15 -15.15 -35.6 L-15.15 -35.7 -15.2 -35.85 Q-13.85 -36.3 -12.65 -37.15 L-12.15 -37.65" fill="#996633" fill-rule="evenodd" stroke="none"/>
    <path d="M-21.2 -51.0 L-19.85 -51.5 -19.85 -51.55 -19.8 -52.95 -19.4 -55.4 -19.2 -57.85 -19.2 -57.95 -19.2 -58.25 -19.3 -58.3 -19.9 -58.6 -19.25 -58.4 -19.2 -58.35 -19.2 -58.25 -15.6 -56.55 Q-13.6 -55.45 -12.9 -54.3 L-12.05 -52.55 -11.55 -51.55 Q-10.3 -50.05 -9.1 -50.1 -7.9 -50.15 -7.8 -50.35 L-7.65 -51.1 Q-7.6 -51.65 -8.4 -52.2 -9.25 -52.85 -9.5 -53.45 L-9.6 -53.65 -10.7 -55.8 Q-11.65 -57.6 -12.6 -58.35 L-15.2 -60.05 M-19.35 -50.8 L-19.85 -51.5 M-19.35 -50.8 L-19.4 -50.8 -19.05 -50.25 -19.0 -50.2 -19.35 -50.8 -19.55 -50.95 -19.4 -50.8 M-20.0 -45.4 L-19.6 -44.8 -18.45 -43.45 -18.4 -43.4 -18.6 -43.8 -20.45 -46.55 -20.0 -45.4 -21.8 -47.95 Q-21.0 -46.9 -21.15 -47.5 L-21.2 -47.55 M-12.15 -37.75 L-12.15 -37.65 -12.65 -37.15 Q-13.85 -36.3 -15.2 -35.85 L-15.3 -35.8 -15.15 -35.7 M-12.1 -37.7 L-12.15 -37.75 -12.45 -39.2 -12.95 -42.4 Q-13.25 -44.6 -14.05 -45.8 -14.95 -47.05 -17.65 -49.1 L-19.0 -50.2 -18.5 -49.35 -19.05 -50.25 M-15.15 -35.6 Q-14.45 -35.15 -13.25 -34.65 L-12.3 -34.25 Q-10.3 -33.8 -9.35 -34.75 -8.6 -35.65 -9.2 -36.2 -9.85 -36.3 -10.7 -36.85 L-12.1 -37.7 M-18.4 -43.4 L-18.3 -43.25 Q-17.9 -42.7 -21.25 -44.45 -20.1 -44.1 -20.0 -45.4 M-15.3 -35.8 L-15.5 -36.2 Q-16.1 -43.0 -20.6 -46.7 L-20.45 -46.55" fill="none" stroke="#000000" stroke-linecap="round" stroke-linejoin="round" stroke-width="0.05"/>
  </g>
</svg>
