<?xml version="1.0" encoding="UTF-8" standalone="no"?>
<svg xmlns:ffdec="https://www.free-decompiler.com/flash" xmlns:xlink="http://www.w3.org/1999/xlink" ffdec:objectType="shape" height="296.55px" width="677.05px" xmlns="http://www.w3.org/2000/svg">
  <g transform="matrix(1.0, 0.0, 0.0, 1.0, 262.05, 142.5)">
    <path d="M413.65 -141.15 L262.0 12.9" fill="none" stroke="#ffffff" stroke-linecap="round" stroke-linejoin="round" stroke-opacity="0.7019608" stroke-width="2.75"/>
    <path d="M-107.6 125.7 L-106.95 125.1 -107.1 142.6 -127.9 142.55 -126.95 141.8 Q-125.4 140.45 -122.15 139.0 -118.95 137.55 -115.55 138.05 L-115.75 137.4 Q-116.25 135.15 -115.35 132.7 -114.5 130.8 -111.95 129.1 L-108.1 126.1 -107.6 125.7 M-106.9 122.4 L-109.4 123.75 Q-112.7 125.0 -114.65 126.05 L-116.35 127.1 Q-119.1 128.95 -120.8 131.75 L-122.3 130.5 Q-120.85 130.35 -120.85 129.25 L-123.0 129.85 Q-124.5 130.85 -125.7 131.35 -125.2 132.3 -122.9 132.1 -121.4 133.95 -120.2 134.4 L-119.35 134.6 -119.2 134.55 -118.5 134.45 -118.35 134.3 -118.3 134.1 Q-118.3 133.8 -118.75 133.95 L-119.5 133.95 Q-120.1 133.75 -119.3 133.4 -118.05 133.0 -117.65 134.55 -117.3 135.9 -120.4 137.15 L-121.0 137.35 Q-124.75 138.65 -127.0 140.35 -128.6 141.6 -128.7 142.55 L-138.8 142.55 -106.85 112.1 -106.9 122.4 M5.05 113.3 L5.4 112.95 4.4 130.2 -15.2 130.25 -14.25 129.45 Q-12.7 128.1 -9.5 126.65 -6.25 125.2 -2.9 125.7 L-3.05 125.05 Q-3.6 122.8 -2.7 120.3 -1.85 118.4 0.7 116.7 L4.55 113.7 5.05 113.3 M5.55 110.1 L3.25 111.35 Q-0.05 112.6 -2.0 113.7 L-3.7 114.75 Q-6.5 116.6 -8.15 119.4 L-9.65 118.15 Q-8.2 118.0 -8.25 116.9 -9.45 117.4 -10.35 117.5 -11.85 118.5 -13.05 119.0 -12.5 119.95 -10.25 119.75 -8.75 121.6 -7.55 122.05 L-6.65 122.2 -6.55 122.2 -5.85 122.1 -5.7 121.95 -5.6 121.75 Q-5.65 121.45 -6.1 121.55 L-6.85 121.6 Q-7.4 121.4 -6.6 121.05 -5.35 120.65 -5.0 122.15 -4.65 123.55 -7.75 124.8 L-8.3 125.0 Q-12.05 126.3 -14.3 128.05 -15.9 129.3 -16.0 130.25 L-26.1 130.25 6.2 99.25 5.55 110.1" fill="#ff0000" fill-rule="evenodd" stroke="none"/>
    <path d="M-119.1 104.3 L-119.1 104.75 -120.15 104.6 -119.1 104.3" fill="#ffffff" fill-rule="evenodd" stroke="none"/>
    <path d="M15.3 78.7 L17.25 78.65 17.25 81.25 15.3 78.7 M21.4 86.75 Q60.55 92.25 76.5 93.25 L105.25 93.25 109.1 93.15 105.25 93.25 76.5 93.25 Q60.55 92.25 21.4 86.75 L17.25 81.25 73.0 83.4 132.2 80.85 133.7 81.15 140.0 91.25 136.65 91.6 127.2 92.3 109.1 93.15 110.8 96.65 109.1 96.75 108.15 96.75 81.05 96.75 74.45 96.75 64.15 102.65 74.45 96.75 79.3 93.95 74.45 96.75 81.05 96.75 84.45 102.5 Q75.75 103.0 64.3 102.65 L64.25 102.65 64.15 102.65 55.45 107.6 37.6 108.1 30.65 98.95 40.45 98.15 41.5 98.25 41.5 92.9 23.7 89.8 21.4 86.75 M65.3 100.6 L41.5 98.25 65.3 100.6 M133.7 80.75 L132.2 80.85 132.2 80.75 133.7 80.75" fill="#808080" fill-rule="evenodd" stroke="none"/>
    <path d="M-146.45 92.6 L-139.3 91.7 -138.8 91.65 -135.1 91.2 -134.6 91.15 -119.95 89.6 -84.55 85.8 12.7 75.4 127.2 71.65 Q162.55 70.9 198.15 70.75 L199.2 70.75 208.35 70.7 208.65 71.25 201.95 74.65 208.65 71.25 236.3 57.15 246.45 57.15 232.45 73.25 233.85 90.45 227.2 90.45 Q218.4 79.9 203.0 74.65 L202.85 74.35 202.3 74.65 201.95 74.65 194.45 74.85 127.2 76.6 17.25 78.65 15.3 78.7 3.6 78.85 -6.2 80.85 -6.9 80.95 -27.25 81.95 -27.9 82.0 -28.25 82.15 -59.15 86.85 -77.75 88.35 -78.05 88.35 -82.95 91.5 -102.25 91.5 -102.95 91.5 -105.8 91.7 -106.55 91.75 -107.8 91.85 -119.05 92.85 -139.0 95.25 -139.05 95.25 -149.4 97.05 Q-155.95 98.3 -161.2 99.8 L-163.9 100.6 -172.95 100.9 -172.8 96.1 -149.4 93.0 -146.5 92.6 -146.45 92.6" fill="#bfbfbf" fill-rule="evenodd" stroke="none"/>
    <path d="M17.25 78.65 L127.2 76.6 194.45 74.85 194.45 75.35 133.7 80.75 132.2 80.75 132.2 80.85 73.0 83.4 17.25 81.25 17.25 78.65" fill="#555555" fill-rule="evenodd" stroke="none"/>
    <path d="M110.8 96.65 L109.1 93.15 127.2 92.3 136.65 91.6 Q132.65 93.25 127.2 94.4 120.2 95.9 110.8 96.65 M140.0 91.25 L133.7 81.15 Q150.1 84.05 152.95 87.2 L153.05 87.8 Q152.5 89.85 140.0 91.25 M81.05 96.75 L108.15 96.75 Q101.9 101.45 84.45 102.5 L81.05 96.75" fill="#eeeeee" fill-rule="evenodd" stroke="none"/>
    <path d="M-59.15 86.85 L-28.25 82.15 -27.9 82.15 -27.9 82.1 -27.25 81.95 -6.9 80.95 -6.2 80.95 -6.2 90.45 7.7 87.0 23.7 89.8 30.65 98.95 10.9 100.75 10.2 100.8 6.25 98.3 6.4 95.35 Q-5.65 91.2 -27.9 87.9 L-29.35 87.65 Q-43.6 86.2 -59.15 86.85" fill="#9a9b96" fill-rule="evenodd" stroke="none"/>
    <path d="M-77.75 88.35 L-59.15 86.85 Q-43.6 86.2 -29.35 87.65 L-27.9 87.9 Q-5.65 91.2 6.4 95.35 L6.25 98.3 4.25 132.5 4.0 136.0 Q-25.55 142.5 -48.25 142.65 -65.9 142.75 -76.65 140.2 L-77.7 139.7 -77.75 88.35" fill="url(#gradient0)" fill-rule="evenodd" stroke="none"/>
    <path d="M-6.2 80.85 L3.6 78.85 15.3 78.7 17.25 81.25 21.4 86.75 23.7 89.8 7.7 87.0 -6.2 90.45 -6.2 80.95 -6.2 80.85" fill="#cdcfce" fill-rule="evenodd" stroke="none"/>
    <path d="M23.7 89.8 L41.5 92.9 41.5 98.25 40.45 98.15 30.65 98.95 23.7 89.8" fill="#585856" fill-rule="evenodd" stroke="none"/>
    <path d="M64.3 102.65 L64.25 104.9 64.25 104.95 64.25 108.65 Q53.15 111.0 42.85 112.1 L42.75 112.1 37.95 112.55 28.1 113.0 Q22.8 110.15 15.55 108.8 L37.6 108.1 55.45 107.6 64.15 102.65 64.25 102.65 64.3 102.65" fill="#69666d" fill-rule="evenodd" stroke="none"/>
    <path d="M64.25 104.9 L64.7 104.95 64.25 104.95 64.25 104.9" fill="url(#gradient1)" fill-rule="evenodd" stroke="none"/>
    <path d="M42.85 112.85 L42.5 120.2 Q30.65 124.6 14.9 124.8 L14.9 124.45 Q29.55 123.5 34.1 117.75 31.75 115.0 28.1 113.0 L37.95 112.55 42.75 112.1 42.85 112.85" fill="#cbcbc9" fill-rule="evenodd" stroke="none"/>
    <path d="M28.1 113.0 Q31.75 115.0 34.1 117.75 29.55 123.5 14.9 124.45 L15.4 108.8 15.55 108.8 Q22.8 110.15 28.1 113.0" fill="url(#gradient2)" fill-rule="evenodd" stroke="none"/>
    <path d="M9.65 128.3 L9.55 130.05 4.25 132.5 6.25 98.3 10.2 100.8 10.95 101.3 10.85 104.1 9.65 128.3" fill="url(#gradient3)" fill-rule="evenodd" stroke="none"/>
    <path d="M10.9 100.75 L30.65 98.95 37.6 108.1 15.55 108.8 15.4 108.8 15.5 106.2 10.85 104.1 10.95 101.3 10.9 100.75 M-101.2 116.0 L-101.2 112.5 -106.8 109.0 -106.8 106.9 -119.1 104.75 -119.1 104.3 -106.0 100.8 -105.85 100.0 -94.25 101.75 -82.35 117.05 -82.35 118.5 -96.25 119.15 -96.25 118.45 -101.2 116.0" fill="#a9a298" fill-rule="evenodd" stroke="none"/>
    <path d="M-82.95 91.5 L-78.05 88.35 -77.75 88.35 -77.7 139.7 -81.9 138.0 -82.0 132.5 -82.2 124.75 -82.35 118.5 -82.35 117.05 -82.65 103.55 -82.95 91.5" fill="url(#gradient4)" fill-rule="evenodd" stroke="none"/>
    <path d="M-146.45 92.6 L-146.5 92.6 -146.55 91.85 -146.45 92.6" fill="url(#gradient5)" fill-rule="evenodd" stroke="none"/>
    <path d="M-139.05 95.25 L-139.0 95.25 -119.05 92.85 -119.1 104.3 -120.15 104.6 -120.95 104.45 -139.05 102.05 -139.05 95.25" fill="#9b9e97" fill-rule="evenodd" stroke="none"/>
    <path d="M-119.05 92.85 L-107.8 91.85 -106.55 91.75 -105.8 91.7 -102.95 91.5 -102.25 91.5 -94.25 101.75 -105.85 100.0 -106.0 100.8 -119.1 104.3 -119.05 92.85" fill="#c4c6c5" fill-rule="evenodd" stroke="none"/>
    <path d="M-102.25 91.5 L-82.95 91.5 -82.65 103.55 -94.25 101.75 -102.25 91.5" fill="#787878" fill-rule="evenodd" stroke="none"/>
    <path d="M-190.9 141.05 L-230.2 137.3 -246.7 117.2 Q-245.5 118.55 -241.65 119.95 -234.7 122.1 -231.1 124.95 -227.55 127.8 -221.4 129.4 L-214.3 130.7 -192.25 133.4 -190.9 141.05 M-96.25 119.15 L-82.35 118.5 -82.2 124.75 Q-86.1 122.1 -96.25 120.9 L-96.25 119.15" fill="#494949" fill-rule="evenodd" stroke="none"/>
    <path d="M-101.2 139.85 L-101.2 141.6 -107.1 144.75 -106.8 109.0 -101.2 112.5 -101.2 116.0 -101.2 139.85" fill="url(#gradient6)" fill-rule="evenodd" stroke="none"/>
    <path d="M-82.35 117.05 L-94.25 101.75 -82.65 103.55 -82.35 117.05" fill="#585954" fill-rule="evenodd" stroke="none"/>
    <path d="M-172.95 100.9 L-163.9 100.6 -139.05 102.05 -120.95 104.45 -120.15 104.6 -119.1 104.75 -106.8 106.9 -106.8 109.0 -107.1 144.75 -107.6 145.0 -107.1 145.0 -107.15 147.2 Q-146.55 158.2 -185.95 151.5 L-186.0 151.5 -187.05 102.9 Q-180.65 101.4 -172.95 100.9" fill="url(#gradient7)" fill-rule="evenodd" stroke="none"/>
    <path d="M-82.0 132.5 Q-86.35 135.25 -96.25 135.65 L-96.25 120.9 Q-86.1 122.1 -82.2 124.75 L-82.0 132.5" fill="url(#gradient8)" fill-rule="evenodd" stroke="none"/>
    <path d="M-163.9 100.6 L-161.2 99.8 Q-155.95 98.3 -149.4 97.05 L-139.05 95.25 -139.05 102.05 -163.9 100.6" fill="#ccd4d7" fill-rule="evenodd" stroke="none"/>
    <path d="M-230.2 137.3 L-232.85 137.0 -236.8 137.05 Q-262.15 132.35 -262.05 125.5 -260.7 118.3 -247.2 115.45 -247.45 116.2 -246.85 117.0 L-246.7 117.2 -230.2 137.3" fill="#8d8d8d" fill-rule="evenodd" stroke="none"/>
    <path d="M-186.0 151.5 L-188.5 151.05 Q-189.9 145.95 -190.9 141.05 L-192.25 133.4 Q-193.8 122.85 -193.4 113.2 -193.25 108.75 -192.65 104.45 -190.0 103.55 -187.05 102.9 L-186.0 151.5" fill="url(#gradient9)" fill-rule="evenodd" stroke="none"/>
    <path d="M-221.4 129.4 L-193.4 113.2 Q-193.8 122.85 -192.25 133.4 L-214.3 130.7 -221.4 129.4" fill="#2f2f2f" fill-rule="evenodd" stroke="none"/>
    <path d="M-172.8 96.1 L-172.95 100.9 Q-180.65 101.4 -187.05 102.9 -190.0 103.55 -192.65 104.45 -193.25 108.75 -193.4 113.2 L-221.4 129.4 Q-227.55 127.8 -231.1 124.95 -234.7 122.1 -241.65 119.95 -245.5 118.55 -246.7 117.2 L-246.85 117.0 Q-247.45 116.2 -247.2 115.45 L-247.2 115.35 Q-244.1 109.75 -219.4 103.8 L-196.95 99.8 -172.8 96.1" fill="url(#gradient10)" fill-rule="evenodd" stroke="none"/>
    <path d="M14.85 124.8 L14.8 126.55 9.65 128.3 10.85 104.1 15.5 106.2 15.4 108.8 14.9 124.45 14.85 124.8" fill="url(#gradient11)" fill-rule="evenodd" stroke="none"/>
    <path d="M-96.25 135.65 L-96.25 138.1 -101.2 139.85 -101.2 116.0 -96.25 118.45 -96.25 119.15 -96.25 120.9 -96.25 135.65" fill="url(#gradient12)" fill-rule="evenodd" stroke="none"/>
    <path d="M208.35 70.7 L199.2 70.75 198.15 70.75 Q162.55 70.9 127.2 71.65 L12.7 75.4 -84.55 85.8 -119.95 89.6 -134.6 91.15 -135.1 91.2 -138.8 91.65 -139.3 91.7 -146.45 92.6 -146.5 92.6 -149.4 93.0 -172.8 96.1 -196.95 99.8 -219.4 103.8 Q-244.1 109.75 -247.2 115.35 L-247.2 115.45 Q-247.45 116.2 -246.85 117.0 L-246.7 117.2 Q-245.5 118.55 -241.65 119.95 -234.7 122.1 -231.1 124.95 -227.55 127.8 -221.4 129.4 L-214.3 130.7 -192.25 133.4 -190.9 141.05 -230.2 137.3 -232.85 137.0 -236.8 137.05 M-172.95 100.9 L-163.9 100.6 -139.05 102.05 -120.95 104.45 M-82.95 91.5 L-78.05 88.35 -77.75 88.35 -59.15 86.85 Q-43.6 86.2 -29.35 87.65 L-27.9 87.9 Q-5.65 91.2 6.4 95.35 L6.25 98.3 10.2 100.8 10.9 100.75 30.65 98.95 40.45 98.15 41.5 98.25 65.3 100.6 M15.3 78.7 L17.25 78.65 M194.45 74.85 L201.95 74.65 208.65 71.25 236.3 57.15 246.45 57.15 232.45 73.25 233.85 90.45 227.2 90.45 Q218.4 79.9 203.0 74.65 M194.45 75.35 L202.3 74.65 201.95 74.65 M109.1 93.15 L127.2 92.3 136.65 91.6 140.0 91.25 Q152.5 89.85 153.05 87.8 L152.95 87.2 Q150.1 84.05 133.7 81.15 L132.2 80.85 133.7 80.75 194.45 75.35 M108.15 96.75 L109.1 96.75 110.8 96.65 Q120.2 95.9 127.2 94.4 132.65 93.25 136.65 91.6 M81.05 96.75 L108.15 96.75 Q101.9 101.45 84.45 102.5 75.75 103.0 64.3 102.65 L64.25 104.9 64.7 104.95 M64.25 104.95 L64.25 108.65 Q53.15 111.0 42.85 112.1 L42.85 112.85 42.5 120.2 Q30.65 124.6 14.9 124.8 L14.85 124.8 14.8 126.55 9.65 128.3 9.55 130.05 4.25 132.5 4.0 136.0 Q-25.55 142.5 -48.25 142.65 -65.9 142.75 -76.65 140.2 L-77.7 139.7 -81.9 138.0 -82.0 132.5 Q-86.35 135.25 -96.25 135.65 L-96.25 138.1 -101.2 139.85 -101.2 141.6 -107.1 144.75 -107.1 145.0 -107.15 147.2 Q-146.55 158.2 -185.95 151.5 L-186.0 151.5 -188.5 151.05 Q-189.9 145.95 -190.9 141.05 M64.15 102.65 L74.45 96.75 79.3 93.95 M64.25 104.95 L64.25 104.9 M64.15 102.65 L64.25 102.65 64.3 102.65 M42.85 112.1 L42.75 112.1 37.95 112.55 28.1 113.0 Q31.75 115.0 34.1 117.75 29.55 123.5 14.9 124.45 L14.85 124.8 M37.6 108.1 L55.45 107.6 64.15 102.65 M10.2 100.8 L10.95 101.3 10.85 104.1 15.5 106.2 15.4 108.8 15.55 108.8 37.6 108.1 M15.4 108.8 L15.55 108.8 Q22.8 110.15 28.1 113.0 M14.9 124.45 L15.4 108.8 M6.25 98.3 L4.25 132.5 M81.05 96.75 L74.45 96.75 M-28.25 82.15 L-27.9 82.1 -27.9 82.0 M-6.2 80.95 L-6.2 80.85 M-84.55 85.8 L-84.55 85.45 M-106.8 109.0 L-101.2 112.5 -101.2 116.0 -96.25 118.45 -96.25 119.15 -82.35 118.5 -82.35 117.05 -82.65 103.55 -82.95 91.5 M-119.1 104.3 L-119.1 104.75 -106.8 106.9 -106.8 109.0 -107.1 144.75 -107.6 145.0 -107.1 145.0 M-96.25 119.15 L-96.25 120.9 Q-86.1 122.1 -82.2 124.75 L-82.35 118.5 M-120.15 104.6 L-119.1 104.75 M-82.2 124.75 L-82.0 132.5 M-96.25 120.9 L-96.25 135.65 M-193.4 113.2 Q-193.25 108.75 -192.65 104.45 -190.0 103.55 -187.05 102.9 -180.65 101.4 -172.95 100.9 M-192.25 133.4 Q-193.8 122.85 -193.4 113.2" fill="none" stroke="#000000" stroke-linecap="round" stroke-linejoin="round" stroke-width="0.05"/>
    <path d="M-163.9 100.6 L-161.2 99.8 Q-155.95 98.3 -149.4 97.05 L-139.05 95.25 -139.0 95.25 -119.05 92.85 -107.8 91.85 -106.55 91.75 -105.8 91.7 -102.95 91.5 -102.25 91.5 -82.95 91.5 M-59.15 86.85 L-28.25 82.15 M-27.25 81.95 L-6.9 80.95 M-6.2 80.85 L3.6 78.85 15.3 78.7 M17.25 78.65 L127.2 76.6 194.45 74.85 M109.1 93.15 L105.25 93.25 76.5 93.25 Q60.55 92.25 21.4 86.75 M132.2 80.85 L73.0 83.4 17.25 81.25" fill="none" stroke="#515151" stroke-linecap="round" stroke-linejoin="round" stroke-width="0.05"/>
    <path d="M-120.15 104.6 L-119.1 104.3 M-120.95 104.45 L-120.15 104.6" fill="none" stroke="#666666" stroke-linecap="round" stroke-linejoin="round" stroke-width="1.0"/>
    <path d="M10.85 104.1 L9.65 128.3 M-101.2 116.0 L-101.2 139.85" fill="none" stroke="#333333" stroke-linecap="round" stroke-linejoin="round" stroke-width="0.05"/>
  </g>
  <defs>
    <linearGradient gradientTransform="matrix(0.0, -0.0342, 0.0514, 0.0, -35.7, 114.65)" gradientUnits="userSpaceOnUse" id="gradient0" spreadMethod="pad" x1="-819.2" x2="819.2">
      <stop offset="0.0" stop-color="#aeaeae"/>
      <stop offset="0.34509803921568627" stop-color="#ffffff"/>
      <stop offset="0.6784313725490196" stop-color="#ffffff"/>
      <stop offset="1.0" stop-color="#aeaeae"/>
    </linearGradient>
    <linearGradient gradientTransform="matrix(0.0529, 0.0, 0.0, 0.0217, 86.15, 122.7)" gradientUnits="userSpaceOnUse" id="gradient1" spreadMethod="pad" x1="-819.2" x2="819.2">
      <stop offset="0.611764705882353" stop-color="#adadad"/>
      <stop offset="1.0" stop-color="#6f6f6f"/>
    </linearGradient>
    <linearGradient gradientTransform="matrix(0.0, 0.0096, -0.0117, 0.0, 24.5, 116.6)" gradientUnits="userSpaceOnUse" id="gradient2" spreadMethod="pad" x1="-819.2" x2="819.2">
      <stop offset="0.09803921568627451" stop-color="#222222"/>
      <stop offset="0.4745098039215686" stop-color="#626262"/>
      <stop offset="0.5686274509803921" stop-color="#626262"/>
      <stop offset="0.9176470588235294" stop-color="#222222"/>
    </linearGradient>
    <linearGradient gradientTransform="matrix(0.0, -0.0209, 0.0041, 0.0, 7.6, 115.4)" gradientUnits="userSpaceOnUse" id="gradient3" spreadMethod="pad" x1="-819.2" x2="819.2">
      <stop offset="0.09803921568627451" stop-color="#666666"/>
      <stop offset="0.4745098039215686" stop-color="#999999"/>
      <stop offset="0.5686274509803921" stop-color="#999999"/>
      <stop offset="0.9176470588235294" stop-color="#666666"/>
    </linearGradient>
    <linearGradient gradientTransform="matrix(0.0, -0.0313, 0.0032, 0.0, -80.35, 114.05)" gradientUnits="userSpaceOnUse" id="gradient4" spreadMethod="pad" x1="-819.2" x2="819.2">
      <stop offset="0.09803921568627451" stop-color="#666666"/>
      <stop offset="0.4745098039215686" stop-color="#cccccc"/>
      <stop offset="0.5686274509803921" stop-color="#cccccc"/>
      <stop offset="0.9176470588235294" stop-color="#666666"/>
    </linearGradient>
    <linearGradient gradientTransform="matrix(0.4513, 0.0, 0.0, 0.0679, -126.8, 81.5)" gradientUnits="userSpaceOnUse" id="gradient5" spreadMethod="pad" x1="-819.2" x2="819.2">
      <stop offset="0.611764705882353" stop-color="#ffffff"/>
      <stop offset="1.0" stop-color="#999999"/>
    </linearGradient>
    <linearGradient gradientTransform="matrix(0.0, -0.0218, 0.0036, 0.0, -104.15, 126.9)" gradientUnits="userSpaceOnUse" id="gradient6" spreadMethod="pad" x1="-819.2" x2="819.2">
      <stop offset="0.09803921568627451" stop-color="#666666"/>
      <stop offset="0.4745098039215686" stop-color="#999999"/>
      <stop offset="0.5686274509803921" stop-color="#999999"/>
      <stop offset="0.9176470588235294" stop-color="#666666"/>
    </linearGradient>
    <linearGradient gradientTransform="matrix(0.0, 0.0326, -0.049, 0.0, -146.9, 127.3)" gradientUnits="userSpaceOnUse" id="gradient7" spreadMethod="pad" x1="-819.2" x2="819.2">
      <stop offset="0.0" stop-color="#aeaeae"/>
      <stop offset="0.34509803921568627" stop-color="#ffffff"/>
      <stop offset="0.6784313725490196" stop-color="#ffffff"/>
      <stop offset="1.0" stop-color="#aeaeae"/>
    </linearGradient>
    <linearGradient gradientTransform="matrix(0.0, -0.009, 0.0087, 0.0, -89.15, 128.3)" gradientUnits="userSpaceOnUse" id="gradient8" spreadMethod="pad" x1="-819.2" x2="819.2">
      <stop offset="0.09803921568627451" stop-color="#222222"/>
      <stop offset="0.4745098039215686" stop-color="#626262"/>
      <stop offset="0.5686274509803921" stop-color="#626262"/>
      <stop offset="0.9176470588235294" stop-color="#222222"/>
    </linearGradient>
    <linearGradient gradientTransform="matrix(0.0, -0.0297, 0.0046, 0.0, -189.75, 127.2)" gradientUnits="userSpaceOnUse" id="gradient9" spreadMethod="pad" x1="-819.2" x2="819.2">
      <stop offset="0.09803921568627451" stop-color="#666666"/>
      <stop offset="0.4745098039215686" stop-color="#cccccc"/>
      <stop offset="0.5686274509803921" stop-color="#cccccc"/>
      <stop offset="0.9176470588235294" stop-color="#666666"/>
    </linearGradient>
    <linearGradient gradientTransform="matrix(0.015, 0.0458, -0.242, 0.0791, -48.5, 74.75)" gradientUnits="userSpaceOnUse" id="gradient10" spreadMethod="pad" x1="-819.2" x2="819.2">
      <stop offset="0.32941176470588235" stop-color="#bfbfbf"/>
      <stop offset="0.396078431372549" stop-color="#808080"/>
    </linearGradient>
    <linearGradient gradientTransform="matrix(0.0, 0.0148, -0.0036, 0.0, 12.6, 116.2)" gradientUnits="userSpaceOnUse" id="gradient11" spreadMethod="pad" x1="-819.2" x2="819.2">
      <stop offset="0.09803921568627451" stop-color="#919191"/>
      <stop offset="0.34509803921568627" stop-color="#ffffff"/>
      <stop offset="0.6784313725490196" stop-color="#ffffff"/>
      <stop offset="0.9098039215686274" stop-color="#808080"/>
    </linearGradient>
    <linearGradient gradientTransform="matrix(0.0, 0.0146, -0.003, 0.0, -98.7, 127.9)" gradientUnits="userSpaceOnUse" id="gradient12" spreadMethod="pad" x1="-819.2" x2="819.2">
      <stop offset="0.09803921568627451" stop-color="#919191"/>
      <stop offset="0.34509803921568627" stop-color="#ffffff"/>
      <stop offset="0.6784313725490196" stop-color="#ffffff"/>
      <stop offset="0.9098039215686274" stop-color="#808080"/>
    </linearGradient>
  </defs>
</svg>
