<?xml version="1.0" encoding="UTF-8" standalone="no"?>
<svg xmlns:ffdec="https://www.free-decompiler.com/flash" xmlns:xlink="http://www.w3.org/1999/xlink" ffdec:objectType="shape" height="47.7px" width="95.75px" xmlns="http://www.w3.org/2000/svg">
  <g transform="matrix(1.0, 0.0, 0.0, 1.0, 47.7, 18.4)">
    <path d="M33.5 -12.75 Q47.3 -7.8 47.3 -0.8 47.3 6.2 33.5 11.1 22.6 15.0 8.1 15.85 L-15.95 28.55 -3.1 16.05 Q-19.75 15.9 -33.15 11.1 -46.95 6.2 -46.95 -0.8 -46.95 -7.8 -33.15 -12.75 -19.35 -17.65 0.2 -17.65 19.7 -17.65 33.5 -12.75" fill="#ffffff" fill-rule="evenodd" stroke="none"/>
    <path d="M33.5 -12.75 Q47.3 -7.8 47.3 -0.8 47.3 6.2 33.5 11.1 22.6 15.0 8.1 15.85 L-15.95 28.55 -3.1 16.05 Q-19.75 15.9 -33.15 11.1 -46.95 6.2 -46.95 -0.8 -46.95 -7.8 -33.15 -12.75 -19.35 -17.65 0.2 -17.65 19.7 -17.65 33.5 -12.75 Z" fill="none" stroke="#333333" stroke-linecap="round" stroke-linejoin="round" stroke-width="1.5"/>
    <path d="M36.8 -7.35 L36.8 -6.45 Q36.8 -5.9 36.55 -5.9 36.45 -5.6 36.7 -5.05 L36.9 -4.25 36.7 -3.6 36.5 -3.05 36.5 -2.55 36.5 -2.0 36.35 -0.95 36.2 -0.8 36.55 -0.2 36.4 0.35 36.2 0.85 36.3 1.45 35.05 1.65 33.9 1.35 Q33.45 1.0 33.45 0.4 33.45 0.15 33.75 0.0 L33.55 -2.05 33.35 -4.1 33.05 -5.55 Q32.75 -6.5 32.75 -7.0 L32.6 -7.45 32.45 -7.85 32.45 -8.0 33.4 -8.05 34.35 -8.15 35.45 -8.3 36.35 -8.5 Q36.8 -8.5 36.8 -7.35 M35.55 3.6 Q36.2 3.6 36.2 4.35 36.2 5.05 34.95 5.65 34.05 6.2 33.2 6.35 L33.45 5.9 32.85 5.0 32.55 4.0 Q32.55 3.65 33.4 3.6 L34.55 3.6 35.05 3.6 35.55 3.6 M28.75 -5.65 L28.2 -5.35 27.6 -5.9 26.2 -4.75 26.0 -4.5 26.55 -4.5 27.2 -4.0 26.55 -2.8 Q26.1 -3.05 25.8 -3.55 L25.95 -4.45 25.0 -3.45 24.0 -1.95 24.4 -1.45 24.65 -1.45 24.9 -1.5 Q25.45 -1.5 25.45 -0.95 25.45 -0.05 26.9 1.3 L28.6 3.8 29.95 6.25 29.9 6.85 28.2 7.1 26.9 6.8 27.45 5.9 25.9 5.6 Q25.8 4.45 23.15 1.35 L22.75 1.5 22.7 1.35 22.4 1.15 21.95 1.1 21.85 1.15 21.35 1.05 Q21.05 1.05 21.05 1.25 L21.25 2.25 21.45 3.25 21.25 4.15 21.05 5.1 21.15 5.6 21.25 6.1 20.85 6.55 20.3 7.05 19.65 7.3 Q18.45 6.6 18.35 6.3 L18.35 6.25 18.0 6.45 17.8 6.15 17.9 5.8 17.45 5.6 17.4 4.8 17.4 3.0 18.1 4.45 18.45 5.7 18.5 5.6 18.5 3.9 18.4 1.45 18.4 0.55 18.35 0.55 18.4 0.15 18.35 -0.95 18.45 -1.0 18.5 -1.0 18.6 -2.1 Q18.6 -2.65 18.15 -2.8 L18.2 -3.65 18.25 -4.5 18.0 -5.65 17.85 -6.1 17.8 -6.55 16.9 -7.15 Q16.05 -7.8 16.05 -8.15 L16.1 -8.4 Q17.05 -7.95 18.05 -7.95 L19.6 -8.3 19.6 -8.0 19.75 -8.15 19.85 -8.1 20.4 -7.0 20.85 -5.35 Q20.85 -4.9 21.0 -4.75 L21.0 -4.65 21.2 -4.65 21.65 -3.85 21.65 -3.15 23.3 -5.65 Q23.9 -5.85 24.45 -6.45 L25.25 -7.55 25.85 -8.3 26.1 -8.3 27.85 -8.0 29.5 -7.45 29.65 -7.05 29.2 -7.05 29.15 -7.2 28.65 -6.9 29.0 -5.9 28.75 -5.65 M32.05 -3.95 L32.45 -5.75 32.95 -4.6 33.2 -3.35 Q33.2 -2.95 32.45 -2.65 31.95 -2.9 31.95 -3.3 L32.05 -3.95 M27.3 -1.15 L27.65 -0.15 27.25 -0.05 Q26.65 -0.05 26.65 -0.4 L27.0 -1.15 27.3 -1.15 M33.15 7.25 Q33.15 7.0 33.5 6.85 L33.85 7.4 34.05 8.1 33.9 8.1 33.1 8.4 32.9 7.9 33.15 7.25 M26.85 7.6 L26.8 7.85 Q25.7 7.85 25.7 7.35 L26.0 7.1 26.4 7.2 26.8 7.3 27.15 6.95 27.35 7.55 27.15 7.75 26.85 7.65 26.85 7.6 M36.35 4.9 L36.85 4.45 Q37.15 4.65 37.15 5.5 37.15 6.05 36.7 6.25 36.25 5.95 36.25 5.55 L36.35 4.9 M-19.8 -5.55 L-19.85 -5.1 -19.95 -5.0 Q-19.9 -3.15 -19.6 -2.75 L-18.6 -2.55 -17.65 -2.45 Q-15.9 -2.45 -14.8 -3.3 -14.8 -4.05 -15.25 -5.25 L-15.05 -6.45 -14.8 -7.7 Q-14.5 -8.3 -13.8 -8.3 L-13.25 -8.1 -12.5 -8.1 -11.75 -8.1 Q-11.35 -7.6 -11.35 -5.5 L-11.35 -4.95 -11.4 -4.45 Q-11.4 -4.15 -11.55 -3.8 L-11.95 -3.3 -11.8 -3.15 -11.7 -2.75 Q-11.7 -2.4 -12.25 -1.65 L-11.9 -0.3 Q-11.55 0.6 -11.55 1.05 L-11.55 1.8 -11.55 2.25 -11.55 2.55 -11.7 3.6 -11.8 4.65 -11.7 5.25 -11.55 5.85 -11.7 6.8 -12.8 6.7 -13.0 6.7 Q-13.0 7.5 -13.5 7.8 L-13.95 6.65 -14.05 6.5 -13.9 5.25 -13.75 4.0 -14.15 2.55 -14.15 3.45 -14.75 4.05 -15.05 3.65 -15.2 3.1 -15.05 3.0 -15.05 1.35 -14.8 1.45 -14.7 1.35 -14.65 1.2 -14.7 0.95 -14.7 0.8 -15.0 0.6 -15.5 0.1 -16.5 0.05 -17.05 0.1 -17.55 0.3 Q-17.25 0.5 -17.25 0.8 -17.25 1.25 -17.75 1.45 -18.55 1.2 -18.55 0.9 L-18.5 0.7 -18.4 0.45 Q-18.4 0.25 -18.75 0.15 -20.25 0.4 -20.25 3.35 L-20.25 4.15 -20.2 4.95 Q-20.2 6.0 -20.45 6.45 L-21.7 6.6 Q-21.0 7.1 -21.0 7.45 L-21.6 8.1 Q-22.25 7.8 -22.55 7.0 L-22.35 6.9 -22.35 6.5 -23.0 6.5 Q-23.5 6.5 -23.5 5.5 L-23.3 4.1 -23.1 2.7 -23.05 0.15 -23.05 -2.4 -23.2 -3.6 -23.35 -4.8 -23.35 -5.15 -23.1 -5.3 -23.1 -5.5 -23.1 -5.65 -23.45 -6.65 -23.75 -7.65 -23.75 -7.75 -23.35 -7.75 -22.9 -8.0 -22.3 -8.3 Q-20.15 -8.3 -20.15 -7.65 L-19.95 -6.6 -19.8 -5.55 M-26.25 -7.35 L-25.55 -6.75 -25.7 -6.35 -25.3 -5.0 Q-25.7 -4.55 -26.15 -4.45 L-27.2 -4.3 -27.15 -4.4 Q-27.15 -4.65 -27.7 -4.65 -27.75 -4.95 -28.9 -5.4 L-30.35 -5.95 -30.75 -5.9 -30.6 -5.6 -30.6 -5.15 -31.35 -5.15 Q-31.7 -5.15 -31.7 -5.35 L-31.6 -6.0 -31.95 -6.0 Q-32.3 -6.05 -32.7 -5.65 L-33.05 -4.9 Q-32.4 -2.9 -29.25 -1.55 L-26.85 -0.5 -26.6 -0.1 Q-26.25 0.05 -25.65 0.5 L-25.15 1.5 -25.2 1.8 -25.15 2.35 -25.1 2.85 -25.15 3.85 -25.25 4.9 Q-25.25 5.5 -26.95 5.5 L-27.5 5.9 -27.05 6.45 -28.0 6.85 -28.4 6.35 -30.2 6.7 -32.1 7.05 -33.15 6.9 -33.6 6.4 -34.0 5.95 -34.15 5.95 -36.1 5.45 Q-37.15 4.85 -37.15 3.85 L-37.0 3.2 -36.9 2.6 -37.15 2.2 -36.45 2.15 -34.8 2.45 -33.15 2.7 -33.25 3.7 Q-33.25 4.2 -32.4 4.2 L-31.4 4.2 -30.45 4.15 -29.1 4.05 Q-28.35 3.85 -28.35 3.1 -28.35 2.8 -28.7 2.35 L-28.35 2.25 -28.45 1.95 -29.05 2.1 Q-31.3 -0.6 -31.8 -0.6 L-32.1 -0.5 Q-32.5 -0.55 -32.8 -0.75 L-33.1 -0.75 Q-33.95 -0.75 -34.3 -1.1 L-35.15 -1.85 -35.7 -3.4 Q-36.05 -4.3 -36.75 -4.5 L-36.8 -4.7 -36.5 -5.35 -36.2 -5.95 -35.05 -7.3 Q-34.55 -7.7 -33.3 -7.75 L-32.2 -8.0 -31.1 -8.15 -29.05 -8.0 -27.0 -7.8 -26.25 -7.35 M-19.65 1.35 L-19.05 2.7 -19.1 3.3 Q-19.1 3.6 -19.35 3.75 L-19.75 3.5 -19.8 3.1 -19.65 3.0 -19.65 1.35 M-28.3 -2.55 L-28.7 -2.15 Q-29.25 -2.5 -29.4 -2.95 L-29.15 -3.4 -29.2 -3.55 -29.05 -4.1 Q-28.3 -3.45 -28.3 -2.55 M-33.1 0.1 L-32.75 -0.05 -32.65 0.05 -32.9 0.7 -33.35 1.25 -33.5 1.1 -33.55 1.0 -33.55 0.6 -33.4 0.55 -33.4 0.4 -33.35 0.0 -33.1 0.1 M-36.55 6.6 L-36.3 6.2 -36.05 5.65 Q-35.45 6.0 -35.45 6.3 -35.45 7.6 -35.8 7.8 -36.55 7.35 -36.75 6.7 L-36.55 6.6 M-18.75 8.35 L-18.95 8.4 -19.15 8.45 -19.45 8.25 -19.2 7.8 -19.25 7.65 -19.15 7.2 -19.05 6.7 Q-18.55 7.1 -18.55 8.1 L-18.65 8.35 -18.75 8.35 M14.7 -4.55 L14.85 -3.3 15.0 -2.05 14.85 -1.35 13.85 -1.1 13.55 -0.75 Q13.25 -0.5 13.25 -0.25 L13.3 -0.1 11.7 0.35 Q11.7 1.5 12.35 2.45 L13.75 4.0 15.0 5.7 Q15.2 6.25 15.8 6.6 L16.0 6.85 15.55 7.7 14.85 8.45 14.55 8.25 13.8 8.35 13.05 8.45 12.85 8.35 13.7 7.6 12.8 7.1 12.1 6.5 12.05 6.5 12.05 6.45 11.55 5.4 10.8 5.2 Q9.95 3.9 9.95 3.05 L9.95 2.8 Q8.95 1.85 7.8 1.25 7.7 2.95 7.2 4.6 L7.6 5.1 7.8 6.1 Q7.8 6.9 7.5 7.05 6.9 6.7 6.65 6.2 L6.3 6.9 Q5.5 6.9 4.95 6.45 4.3 6.0 4.3 5.2 L4.4 3.85 4.5 2.5 4.5 1.7 4.55 0.65 4.55 -1.25 4.15 -1.6 3.8 -2.0 Q4.5 -2.05 4.5 -2.85 L4.45 -3.5 4.4 -4.15 4.65 -5.25 4.95 -6.05 4.05 -7.0 3.15 -7.75 3.65 -7.8 4.1 -7.95 5.15 -7.9 6.25 -7.85 7.75 -8.0 9.2 -8.15 11.55 -7.8 13.7 -7.15 14.3 -5.9 14.7 -4.55 M13.3 2.8 Q13.0 2.5 12.85 2.0 L12.65 1.1 12.8 1.05 12.8 0.95 12.85 0.55 Q13.8 1.1 13.8 1.5 L13.65 2.15 13.3 2.8 M22.3 1.7 Q23.25 2.25 23.25 2.65 L22.8 3.05 22.1 2.25 22.3 1.7 M10.05 -5.25 L10.15 -4.9 10.0 -4.9 9.6 -4.8 Q9.15 -4.8 8.75 -4.4 L8.7 -4.5 8.85 -4.95 9.05 -5.4 8.85 -5.45 Q8.55 -5.1 8.35 -3.6 L8.2 -1.55 8.35 -1.45 10.85 -1.75 Q11.05 -2.0 12.0 -2.3 L12.0 -3.4 11.3 -4.4 10.3 -5.25 10.05 -5.25 M9.05 3.3 L9.55 4.75 8.75 4.95 8.4 4.5 8.7 3.4 9.05 3.3 M21.6 4.95 Q22.05 5.25 22.05 6.95 L22.0 7.2 21.85 7.15 21.65 7.25 21.45 7.3 21.15 7.05 21.4 6.65 21.35 6.5 21.5 5.75 21.6 4.95 M0.9 -5.9 L1.25 -6.15 1.3 -6.1 0.8 -5.2 0.15 -4.25 0.5 -5.7 0.55 -5.7 0.9 -5.9 M-1.75 -6.7 L-0.85 -5.8 Q-0.65 -5.3 -0.7 -4.55 L-1.2 -3.8 -1.05 -3.7 -0.9 -3.5 -0.7 -2.75 -0.45 -2.05 -0.5 -1.95 0.35 0.2 1.35 2.5 Q1.85 2.95 2.15 3.9 L2.65 5.55 2.3 6.1 1.85 6.6 1.65 6.5 1.25 6.65 0.85 6.8 0.4 6.2 0.05 5.6 -0.4 5.4 -1.2 4.2 -1.65 2.8 Q-2.1 3.75 -2.45 3.9 -1.9 4.2 -1.9 4.6 -1.9 5.4 -2.4 5.7 -2.75 5.5 -2.9 4.5 L-2.7 4.45 -2.65 3.9 -2.75 3.7 -2.15 1.45 Q-2.85 1.35 -2.85 1.05 L-2.8 0.65 -2.75 0.25 -2.8 0.1 -3.0 0.05 -3.55 0.15 -4.1 0.25 -4.75 0.0 -5.4 -0.2 -5.9 -0.1 -6.55 1.8 -6.95 3.85 Q-6.95 4.7 -7.95 6.0 -8.3 6.4 -9.0 6.6 L-10.05 7.0 -9.6 5.4 -9.3 3.75 -9.4 3.15 -9.5 2.6 -9.25 1.2 -9.3 1.2 -9.25 1.2 -8.85 0.9 -8.75 0.8 -8.65 0.15 -8.55 -0.45 -8.8 -0.85 Q-8.8 -1.6 -7.85 -1.75 L-8.7 -2.3 -8.25 -3.5 -8.2 -3.75 -7.95 -3.6 -7.8 -3.8 -8.0 -4.55 -7.85 -4.9 -8.2 -6.05 -7.9 -6.2 -8.6 -6.55 -8.6 -6.85 Q-8.6 -7.4 -8.95 -7.5 L-9.55 -7.75 Q-9.9 -7.9 -9.9 -8.3 L-7.95 -7.85 -6.0 -7.45 -5.55 -7.8 Q-4.9 -7.8 -3.8 -7.2 -2.75 -6.65 -2.15 -6.65 L-1.75 -6.7 M0.2 -3.55 L0.3 -3.55 0.35 -3.7 0.4 -3.65 0.3 -3.55 0.25 -3.55 Q0.25 -2.2 0.5 -1.75 L0.5 -1.95 0.6 -1.6 0.7 -1.2 0.6 -0.75 0.4 -0.45 Q0.15 -0.45 -0.1 -1.8 L-0.35 -3.5 -0.3 -4.0 0.2 -3.55 M-5.05 -4.1 L-5.15 -3.15 -5.2 -2.0 -3.8 -1.9 -2.75 -2.0 -2.85 -3.4 -3.55 -4.35 -4.45 -5.05 Q-4.45 -4.75 -4.7 -4.55 L-5.05 -4.1 M-4.85 1.7 L-5.05 2.8 -5.5 3.8 -5.7 3.25 -5.6 2.6 -5.6 1.9 -5.45 1.85 -5.45 1.7 -5.4 1.35 -4.85 1.7 M-15.2 -3.7 L-16.15 -2.9 -16.25 -3.1 -16.05 -3.45 -15.85 -3.85 -15.75 -3.95 -15.75 -4.05 -15.7 -4.45 Q-15.2 -4.15 -15.2 -3.7 M-1.25 7.7 L-1.35 7.0 -1.2 6.95 -1.1 6.25 Q-0.35 6.65 -0.35 7.1 -0.35 7.9 -0.9 8.2 L-1.25 7.7 M-6.25 5.85 L-6.15 5.4 Q-5.7 5.75 -5.7 6.75 L-5.75 7.0 -5.85 7.0 -6.05 7.05 -6.25 7.1 -6.55 6.9 -6.35 6.45 -6.35 6.3 -6.25 5.85 M-4.9 7.15 L-4.8 6.7 Q-4.35 7.1 -4.35 8.1 L-4.4 8.35 -4.5 8.35 -4.7 8.4 -4.9 8.45 -5.2 8.25 -5.0 7.8 -5.0 7.65 -4.9 7.15" fill="#000000" fill-rule="evenodd" stroke="none"/>
  </g>
</svg>
