<?xml version="1.0" encoding="UTF-8" standalone="no"?>
<svg xmlns:ffdec="https://www.free-decompiler.com/flash" xmlns:xlink="http://www.w3.org/1999/xlink" ffdec:objectType="shape" height="144.6px" width="504.05px" xmlns="http://www.w3.org/2000/svg">
  <g transform="matrix(1.0, 0.0, 0.0, 1.0, 255.6, 105.5)">
    <path d="M35.35 20.55 L41.45 20.55 41.45 -2.4 31.15 -2.4 31.15 16.2 31.15 -2.4 41.45 -2.4 41.45 20.55 35.35 20.55 M36.5 -24.75 L36.5 -6.95 36.5 -24.75 M115.7 -36.95 Q131.65 -32.15 146.85 -23.85 L146.9 -23.8 152.1 -20.85 Q157.85 -17.45 163.5 -13.5 L176.55 -4.5 176.45 -4.35 186.0 -0.85 Q198.25 2.15 208.1 5.25 223.5 10.05 233.1 15.15 243.4 20.6 246.95 26.3 247.25 31.05 233.05 33.85 L233.0 33.85 232.95 33.85 Q216.55 37.0 180.85 37.55 L180.15 37.55 179.95 37.55 179.45 37.55 Q111.3 37.8 43.15 37.15 L8.4 36.75 4.55 36.7 -3.85 36.55 -53.2 35.7 -57.5 37.25 -67.15 37.25 -68.1 35.4 -77.55 35.2 -89.1 34.95 -95.05 34.8 -141.15 33.6 -150.5 33.35 -190.35 31.0 Q-204.65 30.7 -218.95 28.05 -226.7 26.55 -234.45 24.45 L-234.45 8.05 -254.1 7.55 -252.25 4.3 -234.45 -8.85 -234.45 -10.25 -233.95 -10.25 -232.5 -13.6 -232.55 -13.75 -212.4 -22.9 -217.55 -45.15 -216.15 -45.2 -216.7 -45.2 -217.55 -45.2 -231.15 -104.0 -218.5 -104.0 -212.95 -103.55 Q-204.0 -102.55 -196.0 -98.5 -188.35 -94.6 -182.85 -88.05 L-131.3 -35.1 Q-126.0 -29.85 -113.15 -27.6 L31.35 -44.4 Q57.55 -46.4 82.45 -43.4 L89.5 -42.4 Q102.75 -40.4 115.7 -36.95 M48.5 17.3 L48.5 25.7 56.85 25.7 56.85 17.3 48.5 17.3 56.85 17.3 56.85 25.7 48.5 25.7 48.5 17.3 M205.4 23.25 L205.4 19.75 204.1 19.75 204.1 23.2 205.4 23.25 206.25 23.25 Q210.15 22.95 209.75 20.25 L209.75 14.0 Q209.75 11.5 206.45 10.35 L190.05 6.75 Q184.1 5.45 183.45 9.0 L183.45 14.55 183.45 9.0 Q184.1 5.45 190.05 6.75 L206.45 10.35 Q209.75 11.5 209.75 14.0 L209.75 20.25 Q210.15 22.95 206.25 23.25 L205.4 23.25 204.1 23.2 200.05 23.15 204.1 23.2 204.1 19.75 205.4 19.75 205.4 23.25 M34.9 30.55 L35.2 30.35 34.75 30.4 34.9 30.55 M-215.8 -45.25 L-216.15 -45.2 -215.8 -45.25 M-168.15 -55.55 L-173.45 -51.45 -169.7 -46.4 -164.2 -50.6 -168.15 -55.55 -164.2 -50.6 -169.7 -46.4 -173.45 -51.45 -168.15 -55.55 M-200.75 -9.8 L-199.9 -10.15 -200.95 -10.2 -200.75 -9.8 M-23.6 13.05 L-23.6 4.0 -36.9 4.0 -36.9 8.05 -36.9 4.0 -23.6 4.0 -23.6 13.05 M-13.5 13.05 L-13.5 8.1 -20.15 8.1 -20.15 13.05 -13.5 13.05 -20.15 13.05 -20.15 8.1 -13.5 8.1 -13.5 13.05 M-69.7 -16.35 L-77.85 -16.35 -77.85 -10.55 -69.7 -10.55 -69.7 -16.35 -69.7 -10.55 -77.85 -10.55 -77.85 -16.35 -69.7 -16.35 M-126.15 -17.75 L-126.15 -25.7 -126.15 -17.75 M-188.0 -10.7 L-188.0 -18.2 -188.0 -10.7 M-3.8 32.45 L-3.85 32.35 -3.85 32.45 -3.8 32.45 M-51.25 25.1 L-50.0 25.25 -51.25 25.1 M-71.6 28.85 L-71.75 28.55 -72.6 28.55 -71.6 28.85 M-131.45 9.35 L-138.1 9.35 -138.1 14.8 -131.45 14.8 -131.45 9.35 -131.45 14.8 -138.1 14.8 -138.1 9.35 -131.45 9.35" fill="#000000" fill-rule="evenodd" stroke="none"/>
    <path d="M36.5 -6.95 L36.5 -24.75 M31.15 16.2 L31.15 -2.4 41.45 -2.4 41.45 20.55 35.35 20.55 M115.7 -36.95 Q131.65 -32.15 146.85 -23.85 L146.9 -23.8 152.1 -20.85 Q157.85 -17.45 163.5 -13.5 L176.55 -4.5 176.45 -4.35 186.0 -0.85 Q198.25 2.15 208.1 5.25 223.5 10.05 233.1 15.15 243.4 20.6 246.95 26.3 247.25 31.05 233.05 33.85 L233.0 33.85 232.95 33.85 Q216.55 37.0 180.85 37.55 L180.15 37.55 179.95 37.55 179.45 37.55 Q111.3 37.8 43.15 37.15 L8.4 36.75 4.55 36.7 -3.85 36.55 -53.2 35.7 -57.5 37.25 -67.15 37.25 -68.1 35.4 -77.55 35.2 -89.1 34.95 -95.05 34.8 -141.15 33.6 -150.5 33.35 -190.35 31.0 Q-204.65 30.7 -218.95 28.05 -226.7 26.55 -234.45 24.45 L-234.45 8.05 -254.1 7.55 -252.25 4.3 -234.45 -8.85 -234.45 -10.25 -233.95 -10.25 -232.5 -13.6 -232.55 -13.75 -212.4 -22.9 -217.55 -45.15 -216.15 -45.2 -216.7 -45.2 -217.55 -45.2 -231.15 -104.0 -218.5 -104.0 -212.95 -103.55 Q-204.0 -102.55 -196.0 -98.5 -188.35 -94.6 -182.85 -88.05 L-131.3 -35.1 Q-126.0 -29.85 -113.15 -27.6 L31.35 -44.4 Q57.55 -46.4 82.45 -43.4 L89.5 -42.4 Q102.75 -40.4 115.7 -36.95 M183.45 14.55 L183.45 9.0 Q184.1 5.45 190.05 6.75 L206.45 10.35 Q209.75 11.5 209.75 14.0 L209.75 20.25 Q210.15 22.95 206.25 23.25 L205.4 23.25 204.1 23.2 200.05 23.15 M204.1 23.2 L204.1 19.75 205.4 19.75 205.4 23.25 M48.5 17.3 L56.85 17.3 56.85 25.7 48.5 25.7 48.5 17.3 M34.9 30.55 L35.2 30.35 34.75 30.4 34.9 30.55 M-168.15 -55.55 L-164.2 -50.6 -169.7 -46.4 -173.45 -51.45 -168.15 -55.55 M-216.15 -45.2 L-215.8 -45.25 M-200.75 -9.8 L-199.9 -10.15 -200.95 -10.2 -200.75 -9.8 M-188.0 -18.2 L-188.0 -10.7 M-126.15 -25.7 L-126.15 -17.75 M-69.7 -16.35 L-69.7 -10.55 -77.85 -10.55 -77.85 -16.35 -69.7 -16.35 M-13.5 13.05 L-20.15 13.05 -20.15 8.1 -13.5 8.1 -13.5 13.05 M-36.9 8.05 L-36.9 4.0 -23.6 4.0 -23.6 13.05 M-3.8 32.45 L-3.85 32.45 -3.85 32.35 -3.8 32.45 M-50.0 25.25 L-51.25 25.1 M-71.6 28.85 L-71.75 28.55 -72.6 28.55 -71.6 28.85 M-131.45 9.35 L-131.45 14.8 -138.1 14.8 -138.1 9.35 -131.45 9.35 Z" fill="none" stroke="#000000" stroke-linecap="round" stroke-linejoin="round" stroke-width="3.0"/>
  </g>
</svg>
