<?xml version="1.0" encoding="UTF-8" standalone="no"?>
<svg xmlns:ffdec="https://www.free-decompiler.com/flash" xmlns:xlink="http://www.w3.org/1999/xlink" ffdec:objectType="shape" height="126.1px" width="123.9px" xmlns="http://www.w3.org/2000/svg">
  <g transform="matrix(1.0, 0.0, 0.0, 1.0, 61.35, 55.55)">
    <path d="M29.4 -25.8 L29.6 -25.5 29.4 -25.5 29.4 -25.8" fill="#767269" fill-rule="evenodd" stroke="none"/>
    <path d="M56.55 64.05 L56.6 64.55 56.55 64.55 56.55 64.05" fill="#515151" fill-rule="evenodd" stroke="none"/>
    <path d="M10.25 29.3 L10.15 29.45 9.7 29.5 10.25 29.3" fill="#666666" fill-rule="evenodd" stroke="none"/>
    <path d="M10.15 29.45 L10.25 29.3 9.8 30.4 10.15 29.45 M9.8 30.7 L9.8 30.4 10.6 31.0 9.8 30.7" fill="#666633" fill-rule="evenodd" stroke="none"/>
    <path d="M-55.35 48.65 L-55.65 48.6 -55.3 47.5 -55.35 48.65" fill="#55552b" fill-rule="evenodd" stroke="none"/>
    <path d="M-6.05 27.65 L-5.75 27.3 -5.5 28.1 -6.05 27.65" fill="#333333" fill-rule="evenodd" stroke="none"/>
    <path d="M29.4 -25.5 L29.1 -25.55 29.05 -25.55 29.4 -25.8 29.4 -25.5 M-5.2 -1.85 L-5.8 -1.8 -5.25 -1.95 -5.2 -1.85" fill="url(#gradient0)" fill-rule="evenodd" stroke="none"/>
    <path d="M29.05 -25.55 L29.1 -25.4 Q35.8 -9.1 30.0 8.25 L29.7 8.85 23.15 5.65 Q13.95 16.15 10.25 29.3 L9.7 29.5 Q-0.35 30.75 -5.5 28.1 L-5.75 27.3 Q-2.3 22.5 -2.3 11.3 -2.3 7.3 -5.2 -1.85 L-5.25 -1.95 -5.8 -3.65 -9.75 -14.85 -9.75 -14.9 Q6.95 -27.4 29.05 -25.55" fill="url(#gradient1)" fill-rule="evenodd" stroke="none"/>
    <path d="M-38.55 30.3 Q-43.3 27.0 -46.85 21.7 -52.95 12.7 -53.75 2.05 -54.55 -8.65 -51.6 -16.55 -48.7 -24.45 -41.8 -31.0 -36.0 -36.5 -24.7 -40.9 -20.1 -46.8 -12.0 -48.7 L-10.5 -49.0 Q-4.65 -50.05 0.85 -49.0 16.55 -46.0 29.4 -25.8 L29.05 -25.55 Q6.95 -27.4 -9.75 -14.9 L-9.75 -14.85 -5.8 -3.65 -5.25 -1.95 -5.8 -1.8 -5.2 -1.85 Q-2.3 7.3 -2.3 11.3 -2.3 22.5 -5.75 27.3 L-6.05 27.65 Q-9.5 32.15 -15.55 34.6 -21.85 37.1 -31.3 33.9 -35.25 32.6 -38.55 30.3" fill="url(#gradient2)" fill-rule="evenodd" stroke="none"/>
    <path d="M29.7 8.85 L32.6 10.25 31.6 17.4 41.35 27.15 39.9 29.3 35.05 36.4 35.0 36.45 32.9 39.5 10.6 31.0 10.45 31.3 Q19.15 38.25 21.45 51.3 L-2.55 51.45 -55.35 48.65 -55.3 47.5 Q-52.1 35.9 -38.55 30.3 -35.25 32.6 -31.3 33.9 -21.85 37.1 -15.55 34.6 -9.5 32.15 -6.05 27.65 L-5.5 28.1 Q-0.35 30.75 9.7 29.5 L9.8 30.7 10.6 31.0 9.8 30.4 10.25 29.3 Q13.95 16.15 23.15 5.65 L29.7 8.85" fill="#727138" fill-rule="evenodd" stroke="none"/>
    <path d="M39.9 29.3 Q55.35 43.35 56.55 64.05 L56.55 64.55 48.65 64.55 48.45 63.0 Q47.6 52.95 43.45 46.55 39.3 40.1 35.2 36.55 L35.05 36.4 39.9 29.3" fill="#7b7b7b" fill-rule="evenodd" stroke="none"/>
    <path d="M-38.55 30.3 Q-43.3 27.0 -46.85 21.7 -52.95 12.7 -53.75 2.05 -54.55 -8.65 -51.6 -16.55 -48.7 -24.45 -41.8 -31.0 -36.0 -36.5 -24.7 -40.9 -20.1 -46.8 -12.0 -48.7 L-10.5 -49.0 Q-4.65 -50.05 0.85 -49.0 16.55 -46.0 29.4 -25.8 M29.05 -25.55 L29.1 -25.4 Q35.8 -9.1 30.0 8.25 L29.7 8.85 32.6 10.25 31.6 17.4 41.35 27.15 39.9 29.3 Q55.35 43.35 56.55 64.05 L56.55 64.55 48.65 64.55 48.45 63.0 Q47.6 52.95 43.45 46.55 39.3 40.1 35.2 36.55 L35.05 36.4 35.0 36.45 32.9 39.5 10.6 31.0 10.45 31.3 Q19.15 38.25 21.45 51.3 L-2.55 51.45 -55.35 48.65 -55.3 47.5 Q-52.1 35.9 -38.55 30.3 -35.25 32.6 -31.3 33.9 -21.85 37.1 -15.55 34.6 -9.5 32.15 -6.05 27.65 L-5.5 28.1 Q-0.35 30.75 9.7 29.5 L9.8 30.7 10.6 31.0 9.8 30.4 10.25 29.3 Q13.95 16.15 23.15 5.65 L29.7 8.85 M39.9 29.3 L35.05 36.4" fill="none" stroke="#333333" stroke-linecap="round" stroke-linejoin="round" stroke-width="12.0"/>
    <path d="M29.4 -25.8 L29.05 -25.55 Q6.95 -27.4 -9.75 -14.9 L-9.75 -14.85 -5.8 -3.65 -5.25 -1.95 -5.8 -1.8 -12.65 0.45 -32.05 -24.3 Q-29.8 -34.35 -24.7 -40.9 -29.8 -34.35 -32.05 -24.3 L-12.65 0.45 -5.8 -1.8 -5.2 -1.85 Q-2.3 7.3 -2.3 11.3 -2.3 22.5 -5.75 27.3 L-6.05 27.65 Q-9.5 32.15 -15.55 34.6 -21.85 37.1 -31.3 33.9 -35.25 32.6 -38.55 30.3 -43.3 27.0 -46.85 21.7 -52.95 12.7 -53.75 2.05 -54.55 -8.65 -51.6 -16.55 -48.7 -24.45 -41.8 -31.0 -36.0 -36.5 -24.7 -40.9 -20.1 -46.8 -12.0 -48.7 L-10.5 -49.0 Q-4.65 -50.05 0.85 -49.0 16.55 -46.0 29.4 -25.8" fill="url(#gradient3)" fill-rule="evenodd" stroke="none"/>
    <path d="M29.4 -25.5 L29.4 -25.8 29.6 -25.5 29.4 -25.5" fill="#767269" fill-rule="evenodd" stroke="none"/>
    <path d="M-5.25 -1.95 L-5.8 -3.65 -9.75 -14.85 -9.75 -14.9 Q6.95 -27.4 29.05 -25.55 L29.1 -25.4 Q35.8 -9.1 30.0 8.25 L29.7 8.85 23.15 5.65 22.95 5.9 21.85 7.2 22.65 5.75 22.95 5.9 22.65 5.75 21.85 7.2 Q14.7 15.8 11.2 26.25 L10.25 29.3 9.7 29.5 9.35 29.55 11.2 26.25 9.35 29.55 Q-0.45 30.7 -5.5 28.1 L-5.75 27.3 Q-2.3 22.5 -2.3 11.3 -2.3 7.3 -5.2 -1.85 L-5.25 -1.95" fill="url(#gradient4)" fill-rule="evenodd" stroke="none"/>
    <path d="M29.4 -25.8 L29.4 -25.5 29.1 -25.55 29.05 -25.55 29.4 -25.8 M-5.8 -1.8 L-5.25 -1.95 -5.2 -1.85 -5.8 -1.8" fill="url(#gradient5)" fill-rule="evenodd" stroke="none"/>
    <path d="M29.7 8.85 L32.6 10.25 32.55 10.6 22.95 5.9 32.55 10.6 31.6 17.4 41.35 27.15 39.9 29.3 38.45 31.4 35.05 36.4 35.0 36.45 32.9 39.5 10.6 31.0 9.8 30.4 10.25 29.3 11.2 26.25 21.85 7.2 11.2 26.25 Q14.7 15.8 21.85 7.2 L22.95 5.9 23.15 5.65 29.7 8.85 M32.6 39.1 L38.45 31.4 32.6 39.1 M9.8 30.7 L10.6 31.0 10.5 31.2 10.45 31.3 Q19.15 38.25 21.45 51.3 L-2.55 51.45 -55.35 48.65 -55.3 47.5 Q-52.1 35.9 -38.55 30.3 -35.25 32.6 -31.3 33.9 -21.85 37.1 -15.55 34.6 -9.5 32.15 -6.05 27.65 L-5.5 28.1 Q-0.45 30.7 9.35 29.55 L9.7 29.5 9.8 30.7 M9.35 29.55 L8.8 30.5 10.5 31.2 8.8 30.5 9.35 29.55" fill="#727138" fill-rule="evenodd" stroke="none"/>
    <path d="M10.25 29.3 L10.15 29.45 9.7 29.5 10.25 29.3" fill="#666666" fill-rule="evenodd" stroke="none"/>
    <path d="M10.25 29.3 L9.8 30.4 10.6 31.0 9.8 30.7 9.8 30.4 10.15 29.45 10.25 29.3" fill="#666633" fill-rule="evenodd" stroke="none"/>
    <path d="M39.9 29.3 L40.0 29.4 38.45 31.4 40.0 29.4 Q55.35 43.4 56.55 64.05 L56.55 64.55 48.65 64.55 48.45 63.0 Q47.6 52.95 43.45 46.55 39.3 40.1 35.2 36.55 L35.05 36.4 38.45 31.4 39.9 29.3" fill="#7b7b7b" fill-rule="evenodd" stroke="none"/>
    <path d="M56.55 64.05 L56.6 64.55 56.55 64.55 56.55 64.05" fill="#515151" fill-rule="evenodd" stroke="none"/>
    <path d="M-5.5 28.1 L-6.05 27.65 -5.75 27.3 -5.5 28.1" fill="#333333" fill-rule="evenodd" stroke="none"/>
    <path d="M-55.3 47.5 L-55.35 48.65 -55.65 48.6 -55.3 47.5" fill="#55552b" fill-rule="evenodd" stroke="none"/>
    <path d="M32.55 10.6 L34.0 11.3 M22.95 5.9 L32.55 10.6 M40.0 29.4 L42.8 25.65 M22.95 5.9 L22.65 5.75 21.85 7.2 11.2 26.25 9.35 29.55 8.8 30.5 10.5 31.2 20.15 35.15 M38.45 31.4 L32.6 39.1 M38.45 31.4 L40.0 29.4" fill="none" stroke="#333333" stroke-linecap="round" stroke-linejoin="round" stroke-width="0.05"/>
    <path d="M-24.7 -40.9 Q-29.8 -34.35 -32.05 -24.3 L-12.65 0.45 -5.8 -1.8" fill="none" stroke="#515151" stroke-linecap="round" stroke-linejoin="round" stroke-width="0.05"/>
  </g>
  <defs>
    <radialGradient cx="0" cy="0" gradientTransform="matrix(0.096, 0.0, 0.0, 0.1267, 1.05, -3.75)" gradientUnits="userSpaceOnUse" id="gradient0" r="819.2" spreadMethod="pad">
      <stop offset="0.3843137254901961" stop-color="#888844"/>
      <stop offset="0.7098039215686275" stop-color="#505027"/>
    </radialGradient>
    <radialGradient cx="0" cy="0" gradientTransform="matrix(0.0587, 0.0, 0.0, 0.0738, -15.9, -2.1)" gradientUnits="userSpaceOnUse" id="gradient1" r="819.2" spreadMethod="pad">
      <stop offset="0.6196078431372549" stop-color="#333333"/>
      <stop offset="0.8666666666666667" stop-color="#b3b3b3"/>
    </radialGradient>
    <radialGradient cx="0" cy="0" gradientTransform="matrix(0.096, 0.0, 0.0, 0.1267, 1.05, -3.75)" gradientUnits="userSpaceOnUse" id="gradient2" r="819.2" spreadMethod="pad">
      <stop offset="0.3843137254901961" stop-color="#99994d"/>
      <stop offset="0.7098039215686275" stop-color="#666633"/>
    </radialGradient>
    <radialGradient cx="0" cy="0" gradientTransform="matrix(0.096, 0.0, 0.0, 0.1267, 1.05, -3.75)" gradientUnits="userSpaceOnUse" id="gradient3" r="819.2" spreadMethod="pad">
      <stop offset="0.3843137254901961" stop-color="#99994d"/>
      <stop offset="0.7098039215686275" stop-color="#666633"/>
    </radialGradient>
    <radialGradient cx="0" cy="0" gradientTransform="matrix(0.0587, 0.0, 0.0, 0.0738, -15.9, -2.1)" gradientUnits="userSpaceOnUse" id="gradient4" r="819.2" spreadMethod="pad">
      <stop offset="0.6196078431372549" stop-color="#333333"/>
      <stop offset="0.8666666666666667" stop-color="#b3b3b3"/>
    </radialGradient>
    <radialGradient cx="0" cy="0" gradientTransform="matrix(0.096, 0.0, 0.0, 0.1267, 1.05, -3.75)" gradientUnits="userSpaceOnUse" id="gradient5" r="819.2" spreadMethod="pad">
      <stop offset="0.3843137254901961" stop-color="#888844"/>
      <stop offset="0.7098039215686275" stop-color="#505027"/>
    </radialGradient>
  </defs>
</svg>
