<?xml version="1.0" encoding="UTF-8" standalone="no"?>
<svg xmlns:ffdec="https://www.free-decompiler.com/flash" xmlns:xlink="http://www.w3.org/1999/xlink" ffdec:objectType="shape" height="16.45px" width="16.45px" xmlns="http://www.w3.org/2000/svg">
  <g transform="matrix(1.0, 0.0, 0.0, 1.0, 8.2, 8.2)">
    <path d="M8.25 0.05 Q8.25 3.4 5.85 5.85 3.4 8.25 0.05 8.25 -3.4 8.25 -5.8 5.85 -8.2 3.4 -8.2 0.05 -8.2 -3.4 -5.8 -5.8 -3.4 -8.2 0.05 -8.2 3.4 -8.2 5.85 -5.8 8.25 -3.4 8.25 0.05 M2.6 -2.5 Q1.5 -3.6 0.0 -3.55 -1.5 -3.6 -2.5 -2.5 -3.6 -1.45 -3.6 0.05 -3.6 1.5 -2.5 2.6 -1.5 3.65 0.0 3.65 1.5 3.65 2.6 2.6 3.65 1.5 3.65 0.05 3.65 -1.45 2.6 -2.5" fill="#2b2b2b" fill-rule="evenodd" stroke="none"/>
    <path d="M2.6 -2.5 Q3.65 -1.45 3.65 0.05 3.65 1.5 2.6 2.6 1.5 3.65 0.0 3.65 -1.5 3.65 -2.5 2.6 -3.6 1.5 -3.6 0.05 -3.6 -1.45 -2.5 -2.5 -1.5 -3.6 0.0 -3.55 1.5 -3.6 2.6 -2.5" fill="#e6e6e6" fill-rule="evenodd" stroke="none"/>
    <path d="M8.25 0.05 Q8.25 3.4 5.85 5.85 3.4 8.25 0.05 8.25 -3.4 8.25 -5.8 5.85 -8.2 3.4 -8.2 0.05 -8.2 -3.4 -5.8 -5.8 -3.4 -8.2 0.05 -8.2 3.4 -8.2 5.85 -5.8 8.25 -3.4 8.25 0.05 Z" fill="none" stroke="#000000" stroke-linecap="round" stroke-linejoin="round" stroke-width="0.05"/>
  </g>
</svg>
