<?xml version="1.0" encoding="UTF-8" standalone="no"?>
<svg xmlns:ffdec="https://www.free-decompiler.com/flash" xmlns:xlink="http://www.w3.org/1999/xlink" ffdec:objectType="shape" height="167.35px" width="501.05px" xmlns="http://www.w3.org/2000/svg">
  <g transform="matrix(1.0, 0.0, 0.0, 1.0, 254.1, 104.0)">
    <path d="M83.65 45.6 L83.25 43.4 83.65 45.6 75.45 42.15 74.95 41.7 74.9 41.05 76.6 35.0 77.05 34.4 77.75 34.35 78.3 34.8 78.4 35.5 76.95 40.75 83.25 43.4 86.65 42.95 88.4 52.95 Q88.55 53.6 88.15 54.2 87.7 54.8 87.05 54.9 L85.75 54.65 Q85.15 54.2 85.05 53.55 L83.65 45.6" fill="#dddddd" fill-rule="evenodd" stroke="none"/>
    <path d="M86.65 42.95 L83.25 43.4 81.85 35.55 Q81.7 34.85 82.15 34.25 82.55 33.65 83.25 33.55 L84.5 33.85 Q85.05 34.25 85.2 34.95 L86.65 42.95" fill="#bbbbbb" fill-rule="evenodd" stroke="none"/>
    <path d="M83.65 45.6 L85.05 53.55 Q85.15 54.2 85.75 54.65 L87.05 54.9 Q87.7 54.8 88.15 54.2 88.55 53.6 88.4 52.95 L86.65 42.95 85.2 34.95 Q85.05 34.25 84.5 33.85 L83.25 33.55 Q82.55 33.65 82.15 34.25 81.7 34.85 81.85 35.55 L83.25 43.4 76.95 40.75 78.4 35.5 78.3 34.8 77.75 34.35 77.05 34.4 76.6 35.0 74.9 41.05 74.95 41.7 75.45 42.15 83.65 45.6" fill="none" stroke="#000000" stroke-linecap="round" stroke-linejoin="round" stroke-width="0.05"/>
    <path d="M83.25 43.4 L83.65 45.6" fill="none" stroke="#000000" stroke-linecap="round" stroke-linejoin="round" stroke-width="0.05"/>
    <path d="M86.65 42.95 L83.25 43.4" fill="none" stroke="#333333" stroke-linecap="round" stroke-linejoin="round" stroke-width="0.05"/>
    <path d="M-69.65 30.95 Q-69.05 30.25 -68.15 30.25 -67.25 30.2 -66.6 30.8 -65.95 31.4 -65.9 32.3 -65.85 33.2 -66.45 33.9 L-82.35 51.2 Q-83.0 51.85 -83.85 51.9 -84.8 51.95 -85.45 51.35 -86.1 50.75 -86.15 49.85 -86.2 48.95 -85.55 48.3 L-69.65 30.95" fill="#dddddd" fill-rule="evenodd" stroke="none"/>
    <path d="M-69.65 30.95 L-85.55 48.3 Q-86.2 48.95 -86.15 49.85 -86.1 50.75 -85.45 51.35 -84.8 51.95 -83.85 51.9 -83.0 51.85 -82.35 51.2 L-66.45 33.9 Q-65.85 33.2 -65.9 32.3 -65.95 31.4 -66.6 30.8 -67.25 30.2 -68.15 30.25 -69.05 30.25 -69.65 30.95 Z" fill="none" stroke="#000000" stroke-linecap="round" stroke-linejoin="round" stroke-width="0.05"/>
    <path d="M-74.2 59.5 Q-78.05 63.3 -83.5 63.35 -88.95 63.3 -92.75 59.5 -96.6 55.65 -96.6 50.2 -96.6 44.75 -92.75 40.9 -88.95 37.05 -83.5 37.1 -78.05 37.05 -74.2 40.9 -70.4 44.75 -70.35 50.2 -70.4 55.65 -74.2 59.5 M-78.5 55.2 Q-76.45 53.1 -76.45 50.2 -76.45 47.25 -78.5 45.2 -80.6 43.15 -83.5 43.15 -86.45 43.15 -88.5 45.2 -90.55 47.25 -90.55 50.2 -90.55 53.1 -88.5 55.2 -86.45 57.25 -83.5 57.25 -80.6 57.25 -78.5 55.2" fill="#2b2b2b" fill-rule="evenodd" stroke="none"/>
    <path d="M-78.5 55.2 Q-80.6 57.25 -83.5 57.25 -86.45 57.25 -88.5 55.2 -90.55 53.1 -90.55 50.2 -90.55 47.25 -88.5 45.2 -86.45 43.15 -83.5 43.15 -80.6 43.15 -78.5 45.2 -76.45 47.25 -76.45 50.2 -76.45 53.1 -78.5 55.2" fill="#dddddd" fill-rule="evenodd" stroke="none"/>
    <path d="M-74.2 59.5 Q-78.05 63.3 -83.5 63.35 -88.95 63.3 -92.75 59.5 -96.6 55.65 -96.6 50.2 -96.6 44.75 -92.75 40.9 -88.95 37.05 -83.5 37.1 -78.05 37.05 -74.2 40.9 -70.4 44.75 -70.35 50.2 -70.4 55.65 -74.2 59.5 Z" fill="none" stroke="#000000" stroke-linecap="round" stroke-linejoin="round" stroke-width="0.05"/>
    <path d="M-81.15 47.85 Q-80.2 48.8 -80.2 50.2 -80.2 51.55 -81.15 52.55 -82.15 53.5 -83.5 53.5 -84.9 53.5 -85.85 52.55 -86.8 51.55 -86.8 50.2 -86.8 48.8 -85.85 47.85 -84.9 46.9 -83.5 46.9 -82.15 46.9 -81.15 47.85 Z" fill="none" stroke="#000000" stroke-linecap="round" stroke-linejoin="round" stroke-width="0.05"/>
    <path d="M180.15 -3.0 L176.15 1.95 137.75 -0.85 32.25 -26.2 32.1 -26.6 32.1 -26.65 26.4 -43.85 31.35 -44.4 36.95 -29.35 99.3 -14.45 82.4 -43.05 82.45 -43.4 89.5 -42.4 89.45 -42.1 107.25 -12.55 134.35 -6.05 134.45 -6.5 146.65 -23.35 146.9 -23.8 152.1 -20.85 141.9 -5.7 143.4 -3.2 144.3 -3.15 173.85 -0.85 174.35 -1.55 176.45 -4.35 177.1 -4.1 180.15 -3.0 M-52.25 19.85 L-53.35 20.4 -53.55 20.55 Q-55.1 21.65 -55.1 23.2 L-55.3 23.75 -85.55 23.8 -89.0 23.8 -89.05 23.8 -90.05 22.7 -53.6 19.9 -52.25 19.85 M-52.4 21.75 Q-51.4 21.15 -49.95 21.2 -48.55 21.15 -47.5 21.75 -46.5 22.35 -46.5 23.25 -46.5 24.05 -47.5 24.65 -48.55 25.25 -49.95 25.25 -51.4 25.25 -52.4 24.65 -53.4 24.05 -53.4 23.25 -53.4 22.35 -52.4 21.75" fill="#a6a6a6" fill-rule="evenodd" stroke="none"/>
    <path d="M-41.8 19.6 L-39.9 19.6 -39.45 16.05 -26.4 16.25 -21.35 17.05 Q-19.2 17.6 -17.55 18.4 L1.9 19.1 Q17.2 19.95 30.95 21.9 L34.75 22.5 40.7 23.6 Q45.65 24.85 47.4 26.65 48.15 27.4 48.3 28.25 48.15 30.4 44.4 31.4 L43.15 31.7 28.05 33.3 28.0 32.5 Q32.45 31.95 34.85 30.55 L34.9 30.55 34.85 30.55 Q32.45 31.95 28.0 32.5 L28.05 33.3 24.5 33.6 8.4 34.25 13.7 31.4 1.95 29.9 -9.7 28.5 -10.7 29.1 -9.7 28.5 1.95 29.9 -3.8 32.45 -3.85 32.35 Q-7.25 30.7 -10.7 29.1 L-12.45 30.2 -17.4 30.2 Q-19.7 31.3 -22.95 32.15 L-24.2 29.0 -24.45 28.5 -24.45 29.1 -33.9 29.1 -26.15 26.4 -45.15 25.15 -45.95 25.85 -47.45 26.65 Q-48.05 28.0 -49.55 28.7 L-51.7 29.25 -52.4 29.35 -63.7 29.1 -72.5 27.1 -71.6 28.85 -89.0 23.85 -89.0 23.8 -85.55 23.8 -55.3 23.75 -55.05 23.75 -55.1 23.2 Q-55.1 21.65 -53.55 20.55 L-53.35 20.4 -52.25 19.85 Q-51.15 19.4 -49.75 19.45 L-47.6 19.75 -45.95 19.7 -45.95 20.55 -45.95 19.7 -41.8 19.6 M35.2 30.35 Q37.9 30.05 38.7 27.8 L38.75 27.7 38.8 26.8 Q38.8 25.95 37.8 25.45 L36.65 24.95 36.5 24.9 30.7 23.45 Q24.55 22.15 16.45 21.3 L1.8 20.15 -15.55 19.55 Q-16.45 18.9 -17.55 18.4 -16.45 18.9 -15.55 19.55 L1.8 20.15 16.45 21.3 Q24.55 22.15 30.7 23.45 L36.5 24.9 36.65 24.95 37.8 25.45 Q38.8 25.95 38.8 26.8 L38.75 27.7 38.7 27.8 Q37.9 30.05 35.2 30.35 L34.75 30.4 34.9 30.55 35.2 30.35 M28.0 32.5 L24.5 32.75 13.7 31.4 24.5 32.75 28.0 32.5 M34.75 30.4 L15.8 29.15 Q20.55 27.85 20.85 25.05 20.2 22.3 16.45 21.3 20.2 22.3 20.85 25.05 20.55 27.85 15.8 29.15 L34.75 30.4 M-39.9 19.6 L-39.85 19.6 -37.3 19.55 -33.2 19.5 Q-21.45 19.95 -18.2 24.0 -18.0 25.5 -20.15 26.8 L-26.15 26.4 -20.15 26.8 Q-18.0 25.5 -18.2 24.0 -21.45 19.95 -33.2 19.5 L-37.3 19.55 -39.85 19.6 -39.9 19.6 M-15.55 19.55 Q-13.0 21.4 -12.0 24.2 -12.2 25.85 -13.35 27.25 -14.7 28.9 -17.4 30.2 -14.7 28.9 -13.35 27.25 -12.2 25.85 -12.0 24.2 -13.0 21.4 -15.55 19.55 M-20.15 26.8 Q-21.7 27.7 -24.45 28.5 -21.7 27.7 -20.15 26.8 M-47.45 26.65 L-49.75 27.0 Q-52.0 26.95 -53.55 25.85 -54.85 24.95 -55.05 23.75 -54.85 24.95 -53.55 25.85 -52.0 26.95 -49.75 27.0 L-47.45 26.65 M-52.4 21.75 Q-53.4 22.35 -53.4 23.25 -53.4 24.05 -52.4 24.65 -51.4 25.25 -49.95 25.25 -48.55 25.25 -47.5 24.65 -46.5 24.05 -46.5 23.25 -46.5 22.35 -47.5 21.75 -48.55 21.15 -49.95 21.2 -51.4 21.15 -52.4 21.75 M-45.95 20.55 Q-46.7 20.0 -47.6 19.75 -46.7 20.0 -45.95 20.55 -44.4 21.65 -44.4 23.2 -44.4 24.3 -45.15 25.15 -44.4 24.3 -44.4 23.2 -44.4 21.65 -45.95 20.55 M-85.55 23.8 L-72.5 27.1 -85.55 23.8 M-13.35 27.25 L15.8 29.15 -13.35 27.25" fill="#b7b7b7" fill-rule="evenodd" stroke="none"/>
    <path d="M-53.2 35.7 L-57.5 37.25 -67.15 37.25 -68.1 35.4 -71.6 28.85 -72.5 27.1 -63.7 29.1 -52.4 29.35 -51.7 29.25 -49.55 28.7 Q-48.05 28.0 -47.45 26.65 L-45.95 25.85 -45.15 25.15 -26.15 26.4 -33.9 29.1 -24.45 29.1 -24.2 29.0 -22.95 32.15 Q-19.7 31.3 -17.4 30.2 L-12.45 30.2 -10.7 29.1 Q-7.25 30.7 -3.85 32.35 L-3.85 32.45 -3.8 32.45 1.95 29.9 13.7 31.4 8.4 34.25 4.55 34.25 -3.85 34.05 -41.4 31.7 -41.45 31.45 -53.2 35.7 M-41.45 31.45 L-36.65 29.7 -36.05 29.75 -33.9 29.1 -36.05 29.75 -36.65 29.7 -41.45 31.45 M-36.65 29.7 L-49.55 28.7 -36.65 29.7 M-3.85 34.05 L-3.85 32.45 -3.85 34.05" fill="#c8c8c8" fill-rule="evenodd" stroke="none"/>
    <path d="M174.35 -1.55 L173.85 -0.85 144.3 -3.15 145.75 -7.9 150.6 -7.5 151.35 -9.75 173.3 -5.15 174.35 -1.55" fill="#666666" fill-rule="evenodd" stroke="none"/>
    <path d="M26.4 -43.85 L32.1 -26.65 32.1 -26.6 32.25 -26.2 137.75 -0.85 176.15 1.95 180.15 -3.0 184.2 -1.5 186.0 -0.85 Q198.25 2.15 208.1 5.25 223.5 10.05 233.1 15.15 243.4 20.6 246.95 26.3 247.25 31.05 233.05 33.85 L233.0 33.85 232.95 33.85 Q216.55 37.0 180.85 37.55 L180.15 37.55 179.95 37.55 179.45 37.55 Q111.3 37.8 43.15 37.15 L8.4 36.75 4.55 36.7 -3.85 36.55 -53.2 35.7 -41.45 31.45 -41.4 31.7 -3.85 34.05 4.55 34.25 8.4 34.25 24.5 33.6 28.05 33.3 43.15 31.7 44.4 31.4 Q48.15 30.4 48.3 28.25 48.15 27.4 47.4 26.65 45.65 24.85 40.7 23.6 L34.75 22.5 30.95 21.9 Q17.2 19.95 1.9 19.1 L-17.55 18.4 Q-19.2 17.6 -21.35 17.05 L-26.4 16.25 -39.45 16.05 -39.9 19.6 -41.8 19.6 -41.8 -6.5 -41.8 19.6 -45.95 19.7 -47.6 19.75 -49.75 19.45 Q-51.15 19.4 -52.25 19.85 L-53.6 19.9 -90.05 22.7 -89.05 23.8 -89.0 23.85 -71.6 28.85 -68.1 35.4 -89.1 34.95 -141.15 33.6 -150.5 33.35 -190.35 31.0 Q-204.65 30.7 -218.95 28.05 -226.7 26.55 -234.45 24.45 L-234.45 8.05 -254.1 7.55 -252.25 4.3 -234.45 -8.85 -234.45 -10.25 -233.95 -10.25 -232.5 -13.6 -181.0 -19.6 -164.35 -21.6 -141.15 -24.3 -113.15 -27.6 -103.2 -28.75 -76.95 -31.8 -76.95 -22.45 -103.2 -19.6 -103.2 -28.75 -103.2 -19.6 -76.95 -22.45 -76.95 -31.8 -42.75 -35.8 -9.0 -39.7 26.4 -43.85 M36.45 -2.4 L31.15 -2.4 31.15 20.55 41.45 20.55 41.45 -2.4 41.45 20.55 31.15 20.55 31.15 -2.4 36.45 -2.4 41.45 -2.4 41.95 -5.95 Q58.75 -3.7 68.7 0.75 L68.5 25.65 64.05 27.4 57.75 29.3 57.6 29.3 Q51.4 30.85 44.4 31.4 51.4 30.85 57.6 29.3 L57.75 29.3 64.05 27.4 68.5 25.65 68.7 0.75 Q58.75 -3.7 41.95 -5.95 L36.5 -6.95 36.45 -6.6 36.45 -2.4 M32.1 -26.65 L-9.0 -26.4 -9.0 -39.7 -9.0 -26.4 32.1 -26.65 M-41.8 -6.95 Q2.9 -9.6 31.65 -7.1 L36.45 -6.6 31.65 -7.1 Q2.9 -9.6 -41.8 -6.95 L-41.85 -6.95 -42.7 -6.9 -42.75 -7.45 -42.7 -6.9 -41.85 -6.9 -41.8 -6.5 -41.8 -6.95 M36.5 -24.75 L36.5 -6.95 36.5 -24.75 M56.85 17.3 L48.5 17.3 48.5 25.7 56.85 25.7 56.85 17.3 56.85 25.7 48.5 25.7 48.5 17.3 56.85 17.3 M68.7 0.75 Q71.4 2.0 73.6 3.6 L72.1 23.85 68.5 25.65 72.1 23.85 73.6 3.6 Q71.4 2.0 68.7 0.75 M179.45 37.1 L179.45 27.75 64.15 27.75 179.45 27.75 179.45 3.8 176.15 1.95 179.45 3.8 179.45 27.75 179.45 37.1 M188.9 22.9 L188.9 19.75 190.25 19.75 190.25 22.95 204.1 23.2 204.1 19.75 205.4 19.75 205.4 23.25 204.1 23.2 205.4 23.25 205.4 19.75 204.1 19.75 204.1 23.2 190.25 22.95 188.9 22.9 187.9 22.9 187.4 22.85 Q184.0 22.2 183.45 19.4 L183.45 9.0 Q184.1 5.45 190.05 6.75 L206.45 10.35 Q209.75 11.5 209.75 14.0 L209.75 20.25 Q210.15 22.95 206.25 23.25 L205.4 23.25 206.25 23.25 Q210.15 22.95 209.75 20.25 L209.75 14.0 Q209.75 11.5 206.45 10.35 L190.05 6.75 Q184.1 5.45 183.45 9.0 L183.45 19.4 Q184.0 22.2 187.4 22.85 L187.9 22.9 188.9 22.9 190.25 22.95 190.25 19.75 188.9 19.75 188.9 22.9 M232.9 33.35 L232.9 15.55 232.9 33.35 M179.45 3.8 L184.2 -1.5 179.45 3.8 M-199.9 -10.15 L-200.95 -10.2 -200.75 -9.8 -235.75 4.7 -232.1 7.55 -234.45 8.05 -232.1 7.55 -218.95 4.85 -174.9 -4.15 -174.9 -4.6 Q-177.7 -8.8 -192.9 -9.85 L-199.75 -10.15 -199.9 -10.15 M-188.0 -10.7 L-188.0 -18.2 -188.0 -10.7 M-165.05 -21.0 L-165.05 -12.9 -192.9 -9.85 -165.05 -12.9 -165.05 -21.0 M-165.05 -12.9 L-141.15 -15.5 -141.15 22.55 -190.35 20.5 -218.95 19.3 -218.95 4.85 -218.95 19.3 -190.35 20.5 -141.15 22.55 -141.15 -15.5 -165.05 -12.9 M-126.15 -25.7 L-126.15 -17.1 -141.15 -15.5 -141.15 -24.3 -141.15 -15.5 -126.15 -17.1 -126.15 -25.7 M-234.45 -8.85 L-200.95 -10.2 -234.45 -8.85 M-77.85 -10.55 L-69.7 -10.55 -69.7 -16.35 -77.85 -16.35 -77.85 -10.55 -77.85 -16.35 -69.7 -16.35 -69.7 -10.55 -77.85 -10.55 M-9.0 -26.4 L-42.75 -26.2 -42.75 -35.8 -42.75 -26.2 -9.0 -26.4 M-126.15 -17.1 L-103.2 -19.6 -126.15 -17.1 M-13.5 13.05 L-13.5 8.1 -20.15 8.1 -20.15 13.05 -13.5 13.05 -20.15 13.05 -20.15 8.1 -13.5 8.1 -13.5 13.05 M-55.3 -6.05 L-42.7 -6.9 -55.3 -6.05 M-76.95 -22.45 L-42.75 -26.2 -42.75 -7.45 -42.75 -26.2 -76.95 -22.45 M-23.6 4.0 L-36.9 4.0 -36.9 13.05 -23.6 13.05 -23.6 4.0 -23.6 13.05 -36.9 13.05 -36.9 4.0 -23.6 4.0 M-24.45 29.1 L-24.45 28.5 -24.2 29.0 -24.45 29.1 M-55.3 23.75 L-55.1 23.2 -55.05 23.75 -55.3 23.75 M-90.1 22.7 L-90.05 22.7 -90.1 22.7 -141.15 22.55 -141.15 33.6 -141.15 22.55 -90.1 22.7 M-89.0 23.85 L-89.1 34.95 -89.0 23.85 M-252.25 4.3 L-236.3 4.3 -235.75 4.7 -236.3 4.3 -252.25 4.3 M-190.35 20.5 L-190.35 31.0 -190.35 20.5 M-131.45 9.35 L-138.1 9.35 -138.1 14.8 -131.45 14.8 -131.45 9.35 -131.45 14.8 -138.1 14.8 -138.1 9.35 -131.45 9.35 M-218.95 28.05 L-218.95 19.3 -218.95 28.05" fill="url(#gradient0)" fill-rule="evenodd" stroke="none"/>
    <path d="M36.45 -2.4 L36.45 -6.6 36.5 -6.95 41.95 -5.95 41.45 -2.4 36.45 -2.4 M41.95 -5.95 L36.45 -6.6 41.95 -5.95 M-200.75 -9.8 L-199.9 -10.15 -199.75 -10.15 -192.9 -9.85 Q-177.7 -8.8 -174.9 -4.6 L-174.9 -4.15 -218.95 4.85 -232.1 7.55 -235.75 4.7 -200.75 -9.8" fill="url(#gradient1)" fill-rule="evenodd" stroke="none"/>
    <path d="M-232.55 -13.75 L-212.4 -22.9 -217.55 -45.15 -216.15 -45.2 -216.7 -45.2 -217.55 -45.2 -228.45 -92.25 -231.15 -104.0 -218.5 -104.0 -212.95 -103.55 Q-204.0 -102.55 -196.0 -98.5 -188.35 -94.6 -182.85 -88.05 L-180.7 -85.8 -142.1 -46.15 -131.3 -35.1 Q-126.0 -29.85 -113.15 -27.6 L-141.15 -24.3 -164.35 -21.6 -200.2 -85.8 -187.55 -85.8 -180.7 -85.8 -187.55 -85.8 -142.1 -36.5 -142.1 -46.15 -142.1 -36.5 -187.55 -85.8 -200.2 -85.8 -164.35 -21.6 -181.0 -19.6 -232.5 -13.6 -232.55 -13.75 M-228.45 -92.25 L-217.1 -92.25 -214.5 -85.8 -195.6 -37.4 -191.25 -26.35 -189.9 -22.9 -212.4 -22.9 -189.9 -22.9 -191.25 -26.35 -195.6 -37.4 -214.5 -85.8 -217.1 -92.25 -228.45 -92.25 M-168.15 -55.55 L-173.45 -51.45 -169.7 -46.4 -164.2 -50.6 -168.15 -55.55 -164.2 -50.6 -169.7 -46.4 -173.45 -51.45 -168.15 -55.55 M-207.65 -23.2 L-212.95 -45.35 -214.65 -45.3 -215.25 -45.25 -215.8 -45.25 -216.15 -45.2 -215.8 -45.25 -215.25 -45.25 -214.65 -45.3 -212.95 -45.35 -207.65 -23.2 M-191.25 -26.35 L-184.0 -28.95 -188.8 -40.2 -195.6 -37.4 -188.8 -40.2 -184.0 -28.95 -191.25 -26.35 M-189.9 -22.9 L-181.0 -22.9 -181.0 -19.6 -181.0 -22.9 -189.9 -22.9 M-214.5 -85.8 L-200.2 -85.8 -214.5 -85.8" fill="url(#gradient2)" fill-rule="evenodd" stroke="none"/>
    <path d="M-41.8 -6.95 L-41.8 -6.5 -41.85 -6.9 -42.7 -6.9 -41.85 -6.95 -41.8 -6.95 M-42.75 -7.45 L-42.7 -6.9 -42.75 -7.45" fill="url(#gradient3)" fill-rule="evenodd" stroke="none"/>
    <path d="M31.35 -44.4 L26.4 -43.85 -9.0 -39.7 -42.75 -35.8 -76.95 -31.8 -76.95 -32.25 M146.9 -23.8 L146.85 -23.85 Q131.65 -32.15 115.7 -36.95 102.75 -40.4 89.5 -42.4 M82.45 -43.4 Q57.55 -46.4 31.35 -44.4 M176.45 -4.35 L176.55 -4.5 163.5 -13.5 Q157.85 -17.45 152.1 -20.85 M176.55 -4.5 L177.1 -4.1 M180.15 -3.0 L184.2 -1.5 186.0 -0.85 Q198.25 2.15 208.1 5.25 223.5 10.05 233.1 15.15 243.4 20.6 246.95 26.3 247.25 31.05 233.05 33.85 L233.0 33.85 232.95 33.85 Q216.55 37.0 180.85 37.55 L180.15 37.55 179.95 37.55 179.45 37.55 Q111.3 37.8 43.15 37.15 L8.4 36.75 4.55 36.7 -3.85 36.55 -53.2 35.7 -57.5 37.25 -67.15 37.25 -68.1 35.4 -89.1 34.95 -141.15 33.6 -150.5 33.35 -190.35 31.0 Q-204.65 30.7 -218.95 28.05 -226.7 26.55 -234.45 24.45 L-234.45 8.05 -254.1 7.55 -252.25 4.3 -234.45 -8.85 -234.45 -10.25 -233.95 -10.25 -232.5 -13.6 -233.0 -13.5 -232.55 -13.75 -212.4 -22.9 -217.55 -45.15 -217.55 -45.2 -228.45 -92.25 -231.15 -104.0 -218.5 -104.0 -212.95 -103.55 Q-204.0 -102.55 -196.0 -98.5 -188.35 -94.6 -182.85 -88.05 L-180.7 -85.8 -142.1 -46.15 -131.3 -35.1 Q-126.0 -29.85 -113.15 -27.6 L-103.2 -28.75 -76.95 -31.8 M-55.1 23.2 L-55.05 23.75 M-45.95 19.7 L-47.6 19.75 M-90.05 22.7 L-90.1 22.7 M-89.0 23.85 L-89.05 23.8" fill="none" stroke="#000000" stroke-linecap="round" stroke-linejoin="round" stroke-width="0.05"/>
    <path d="M26.4 -43.85 L32.1 -26.65 32.1 -26.6 32.25 -26.2 137.75 -0.85 176.15 1.95 180.15 -3.0 177.1 -4.1 176.45 -4.35 174.35 -1.55 173.85 -0.85 144.3 -3.15 143.4 -3.2 141.9 -5.7 152.1 -20.85 146.9 -23.8 146.65 -23.35 134.45 -6.5 134.35 -6.05 107.25 -12.55 89.45 -42.1 89.5 -42.4 82.45 -43.4 82.4 -43.05 99.3 -14.45 36.95 -29.35 31.35 -44.4 M-9.0 -39.7 L-9.0 -26.4 32.1 -26.65 M41.45 -2.4 L41.45 20.55 31.15 20.55 31.15 -2.4 36.45 -2.4 41.45 -2.4 M36.45 -6.6 L31.65 -7.1 Q2.9 -9.6 -41.8 -6.95 L-41.85 -6.95 -42.7 -6.9 -55.3 -6.05 M-41.8 -6.5 L-41.8 19.6 M44.4 31.4 Q51.4 30.85 57.6 29.3 L57.75 29.3 64.05 27.4 68.5 25.65 68.7 0.75 Q58.75 -3.7 41.95 -5.95 L36.45 -6.6 36.5 -6.95 36.5 -24.75 M144.3 -3.15 L145.75 -7.9 150.6 -7.5 151.35 -9.75 173.3 -5.15 174.35 -1.55 M204.1 23.2 L205.4 23.25 205.4 19.75 204.1 19.75 204.1 23.2 190.25 22.95 188.9 22.9 187.9 22.9 187.4 22.85 Q184.0 22.2 183.45 19.4 L183.45 9.0 Q184.1 5.45 190.05 6.75 L206.45 10.35 Q209.75 11.5 209.75 14.0 L209.75 20.25 Q210.15 22.95 206.25 23.25 L205.4 23.25 M232.9 15.55 L232.9 33.35 M190.25 22.95 L190.25 19.75 188.9 19.75 188.9 22.9 M64.15 27.75 L179.45 27.75 179.45 3.8 176.15 1.95 M179.45 27.75 L179.45 37.1 M68.5 25.65 L72.1 23.85 73.6 3.6 Q71.4 2.0 68.7 0.75 M56.85 17.3 L56.85 25.7 48.5 25.7 48.5 17.3 56.85 17.3 M24.5 33.6 L8.4 34.25 M184.2 -1.5 L179.45 3.8 M-180.7 -85.8 L-187.55 -85.8 -142.1 -36.5 -142.1 -46.15 M-187.55 -85.8 L-200.2 -85.8 -164.35 -21.6 -141.15 -24.3 -113.15 -27.6 M-168.15 -55.55 L-164.2 -50.6 -169.7 -46.4 -173.45 -51.45 -168.15 -55.55 M-212.4 -22.9 L-189.9 -22.9 -191.25 -26.35 -195.6 -37.4 -214.5 -85.8 -217.1 -92.25 -228.45 -92.25 M-216.15 -45.2 L-217.55 -45.15 M-216.15 -45.2 L-215.8 -45.25 -215.25 -45.25 -214.65 -45.3 -212.95 -45.35 -207.65 -23.2 M-232.55 -13.75 L-232.5 -13.6 -181.0 -19.6 -181.0 -22.9 -189.9 -22.9 M-195.6 -37.4 L-188.8 -40.2 -184.0 -28.95 -191.25 -26.35 M-199.9 -10.15 L-200.95 -10.2 -234.45 -8.85 M-200.75 -9.8 L-199.9 -10.15 -199.75 -10.15 -192.9 -9.85 -165.05 -12.9 -165.05 -21.0 M-188.0 -18.2 L-188.0 -10.7 M-181.0 -19.6 L-164.35 -21.6 M-174.9 -4.15 L-218.95 4.85 -218.95 19.3 -190.35 20.5 -141.15 22.55 -141.15 -15.5 -165.05 -12.9 M-192.9 -9.85 Q-177.7 -8.8 -174.9 -4.6 M-200.2 -85.8 L-214.5 -85.8 M-141.15 -24.3 L-141.15 -15.5 -126.15 -17.1 -126.15 -25.7 M-103.2 -28.75 L-103.2 -19.6 -76.95 -22.45 -76.95 -31.8 M-103.2 -19.6 L-126.15 -17.1 M-42.75 -35.8 L-42.75 -26.2 -9.0 -26.4 M-77.85 -10.55 L-77.85 -16.35 -69.7 -16.35 -69.7 -10.55 -77.85 -10.55 M-42.75 -7.45 L-42.7 -6.9 M-42.75 -7.45 L-42.75 -26.2 -76.95 -22.45 M-13.5 13.05 L-20.15 13.05 -20.15 8.1 -13.5 8.1 -13.5 13.05 M-23.6 4.0 L-23.6 13.05 -36.9 13.05 -36.9 4.0 -23.6 4.0 M-45.15 25.15 L-45.95 25.85 -47.45 26.65 M-55.1 23.2 Q-55.1 21.65 -53.55 20.55 L-53.35 20.4 -52.25 19.85 -53.6 19.9 -90.05 22.7 -89.05 23.8 -89.0 23.8 -85.55 23.8 M-55.3 23.75 L-55.1 23.2 M-47.6 19.75 Q-46.7 20.0 -45.95 20.55 M-52.25 19.85 Q-51.15 19.4 -49.75 19.45 L-47.6 19.75 M-90.1 22.7 L-141.15 22.55 -141.15 33.6 M-89.1 34.95 L-89.0 23.85 M-131.45 9.35 L-131.45 14.8 -138.1 14.8 -138.1 9.35 -131.45 9.35 M-190.35 31.0 L-190.35 20.5 M-235.75 4.7 L-236.3 4.3 -252.25 4.3 M-232.1 7.55 L-234.45 8.05 M-232.1 7.55 L-235.75 4.7 -200.75 -9.8 M-218.95 19.3 L-218.95 28.05 M-218.95 4.85 L-232.1 7.55" fill="none" stroke="#666666" stroke-linecap="round" stroke-linejoin="round" stroke-width="0.05"/>
    <path d="M-41.8 19.6 L-39.9 19.6 -39.45 16.05 -26.4 16.25 -21.35 17.05 Q-19.2 17.6 -17.55 18.4 L1.9 19.1 Q17.2 19.95 30.95 21.9 L34.75 22.5 40.7 23.6 Q45.65 24.85 47.4 26.65 48.15 27.4 48.3 28.25 48.15 30.4 44.4 31.4 L43.15 31.7 28.05 33.3 24.5 33.6 M-17.55 18.4 Q-16.45 18.9 -15.55 19.55 L1.8 20.15 16.45 21.3 Q24.55 22.15 30.7 23.45 L36.5 24.9 36.65 24.95 37.8 25.45 Q38.8 25.95 38.8 26.8 L38.75 27.7 38.7 27.8 Q37.9 30.05 35.2 30.35 L34.9 30.55 34.85 30.55 Q32.45 31.95 28.0 32.5 L28.05 33.3 M8.4 34.25 L4.55 34.25 -3.85 34.05 -41.4 31.7 -41.45 31.45 -53.2 35.7 M13.7 31.4 L8.4 34.25 M1.95 29.9 L13.7 31.4 24.5 32.75 28.0 32.5 M35.2 30.35 L34.75 30.4 34.9 30.55 M16.45 21.3 Q20.2 22.3 20.85 25.05 20.55 27.85 15.8 29.15 L34.75 30.4 M-17.4 30.2 Q-14.7 28.9 -13.35 27.25 -12.2 25.85 -12.0 24.2 -13.0 21.4 -15.55 19.55 M-26.15 26.4 L-20.15 26.8 Q-18.0 25.5 -18.2 24.0 -21.45 19.95 -33.2 19.5 L-37.3 19.55 -39.85 19.6 -39.9 19.6 M-24.45 29.1 L-33.9 29.1 -36.05 29.75 -36.65 29.7 -41.45 31.45 M-33.9 29.1 L-26.15 26.4 -45.15 25.15 Q-44.4 24.3 -44.4 23.2 -44.4 21.65 -45.95 20.55 L-45.95 19.7 -41.8 19.6 M-47.45 26.65 Q-48.05 28.0 -49.55 28.7 L-36.65 29.7 M-24.2 29.0 L-22.95 32.15 Q-19.7 31.3 -17.4 30.2 L-12.45 30.2 -10.7 29.1 -9.7 28.5 1.95 29.9 -3.8 32.45 -3.85 32.45 -3.85 34.05 M-24.45 29.1 L-24.2 29.0 -24.45 28.5 Q-21.7 27.7 -20.15 26.8 M-3.85 32.35 L-3.85 32.45 M-3.85 32.35 Q-7.25 30.7 -10.7 29.1 M-85.55 23.8 L-55.3 23.75 -55.05 23.75 Q-54.85 24.95 -53.55 25.85 -52.0 26.95 -49.75 27.0 L-47.45 26.65 M-52.4 21.75 Q-51.4 21.15 -49.95 21.2 -48.55 21.15 -47.5 21.75 -46.5 22.35 -46.5 23.25 -46.5 24.05 -47.5 24.65 -48.55 25.25 -49.95 25.25 -51.4 25.25 -52.4 24.65 -53.4 24.05 -53.4 23.25 -53.4 22.35 -52.4 21.75 M-71.6 28.85 L-68.1 35.4 M-71.6 28.85 L-72.5 27.1 -85.55 23.8 M-72.5 27.1 L-63.7 29.1 -52.4 29.35 -51.7 29.25 -49.55 28.7 M-89.0 23.85 L-71.6 28.85 M15.8 29.15 L-13.35 27.25" fill="none" stroke="#4d4d4d" stroke-linecap="round" stroke-linejoin="round" stroke-width="0.05"/>
    <path d="M-175.35 -4.15 L-175.2 -3.95 -216.15 28.65 -234.9 24.45 -234.45 8.05 -175.35 -4.15" fill="url(#gradient4)" fill-rule="evenodd" stroke="none"/>
  </g>
  <defs>
    <linearGradient gradientTransform="matrix(0.0, -0.0343, 0.2369, 0.0, 46.15, 4.25)" gradientUnits="userSpaceOnUse" id="gradient0" spreadMethod="pad" x1="-819.2" x2="819.2">
      <stop offset="0.19607843137254902" stop-color="#e1e1e1"/>
      <stop offset="0.3333333333333333" stop-color="#b4b4b4"/>
    </linearGradient>
    <linearGradient gradientTransform="matrix(0.0, -0.0076, 0.0318, 0.0, -115.1, 28.75)" gradientUnits="userSpaceOnUse" id="gradient1" spreadMethod="pad" x1="-819.2" x2="819.2">
      <stop offset="0.19607843137254902" stop-color="#e1e1e1"/>
      <stop offset="0.3333333333333333" stop-color="#b4b4b4"/>
    </linearGradient>
    <linearGradient gradientTransform="matrix(-0.0742, 0.0545, -0.0232, -0.0315, -206.7, -52.25)" gradientUnits="userSpaceOnUse" id="gradient2" spreadMethod="pad" x1="-819.2" x2="819.2">
      <stop offset="0.19607843137254902" stop-color="#e1e1e1"/>
      <stop offset="0.3333333333333333" stop-color="#b4b4b4"/>
    </linearGradient>
    <linearGradient gradientTransform="matrix(0.0, -0.0298, 0.0607, 0.0, -91.45, -1.75)" gradientUnits="userSpaceOnUse" id="gradient3" spreadMethod="pad" x1="-819.2" x2="819.2">
      <stop offset="0.19607843137254902" stop-color="#e1e1e1"/>
      <stop offset="0.3333333333333333" stop-color="#b4b4b4"/>
    </linearGradient>
    <linearGradient gradientTransform="matrix(0.0, 0.0258, -0.0365, 0.0, -203.35, 4.3)" gradientUnits="userSpaceOnUse" id="gradient4" spreadMethod="pad" x1="-819.2" x2="819.2">
      <stop offset="0.19607843137254902" stop-color="#000000" stop-opacity="0.7019608"/>
      <stop offset="0.803921568627451" stop-color="#000000" stop-opacity="0.0"/>
    </linearGradient>
  </defs>
</svg>
