<?xml version="1.0" encoding="UTF-8" standalone="no"?>
<svg xmlns:ffdec="https://www.free-decompiler.com/flash" xmlns:xlink="http://www.w3.org/1999/xlink" ffdec:objectType="shape" height="33.05px" width="70.45px" xmlns="http://www.w3.org/2000/svg">
  <g transform="matrix(1.0, 0.0, 0.0, 1.0, -113.05, 37.55)">
    <path d="M116.45 -13.7 Q117.65 -15.45 117.65 -17.75 117.65 -21.05 116.1 -22.8 114.55 -24.55 114.55 -27.0 114.55 -28.3 115.35 -31.3 116.1 -34.25 116.1 -36.05 M128.45 -32.95 Q125.75 -30.8 125.75 -29.1 125.75 -28.1 126.5 -23.95 126.5 -21.75 123.55 -19.45 120.6 -17.15 120.7 -15.25 M155.8 -11.75 Q155.85 -14.6 153.45 -16.75 150.95 -19.05 150.8 -21.0 M174.7 -6.0 Q174.8 -8.15 177.7 -9.55 181.8 -11.55 182.0 -14.45" fill="none" stroke="#333333" stroke-linecap="round" stroke-linejoin="round" stroke-width="3.0"/>
  </g>
</svg>
