<?xml version="1.0" encoding="UTF-8" standalone="no"?>
<svg xmlns:ffdec="https://www.free-decompiler.com/flash" xmlns:xlink="http://www.w3.org/1999/xlink" ffdec:objectType="shape" height="50.15px" width="156.75px" xmlns="http://www.w3.org/2000/svg">
  <g transform="matrix(1.0, 0.0, 0.0, 1.0, 78.35, 25.1)">
    <path d="M43.65 -2.2 L43.4 -1.75 31.2 15.1 31.1 15.55 4.0 9.05 -13.8 -20.5 -13.75 -20.8 Q-0.5 -18.8 12.45 -15.35 28.4 -10.55 43.6 -2.25 L43.65 -2.2 M-20.8 -21.8 L-20.85 -21.45 -3.95 7.15 -66.3 -7.75 -71.9 -22.8 Q-45.7 -24.8 -20.8 -21.8 M73.2 17.25 L70.6 20.75 40.15 18.4 38.65 15.9 48.85 0.75 Q54.6 4.15 60.25 8.1 L73.3 17.1 73.2 17.25" fill="url(#gradient0)" fill-rule="evenodd" stroke="none"/>
    <path d="M-13.75 -20.8 L-13.8 -20.5 4.0 9.05 31.1 15.55 31.2 15.1 43.4 -1.75 43.65 -2.2 48.85 0.75 38.65 15.9 40.15 18.4 70.6 20.75 73.2 17.25 73.85 17.5 76.9 18.6 72.9 23.55 34.5 20.75 -71.0 -4.6 -71.15 -5.0 -71.15 -5.05 -76.85 -22.25 -71.9 -22.8 -66.3 -7.75 -3.95 7.15 -20.85 -21.45 -20.8 -21.8 -13.75 -20.8" fill="#a6a6a6" fill-rule="evenodd" stroke="none"/>
    <path d="M-13.75 -20.8 L-13.8 -20.5 4.0 9.05 31.1 15.55 31.2 15.1 43.4 -1.75 43.65 -2.2 43.6 -2.25 Q28.4 -10.55 12.45 -15.35 -0.5 -18.8 -13.75 -20.8 L-20.8 -21.8 -20.85 -21.45 -3.95 7.15 -66.3 -7.75 -71.9 -22.8 -76.85 -22.25 -71.15 -5.05 -71.15 -5.0 -71.0 -4.6 34.5 20.75 72.9 23.55 76.9 18.6 73.85 17.5 73.2 17.25 70.6 20.75 40.15 18.4 38.65 15.9 48.85 0.75 43.65 -2.2 M73.85 17.5 L73.3 17.1 73.2 17.25 M73.3 17.1 L60.25 8.1 Q54.6 4.15 48.85 0.75 M-71.9 -22.8 Q-45.7 -24.8 -20.8 -21.8" fill="none" stroke="#333333" stroke-linecap="round" stroke-linejoin="round" stroke-width="3.0"/>
    <path d="M-13.75 -20.8 Q-0.5 -18.8 12.45 -15.35 28.4 -10.55 43.6 -2.25 L43.65 -2.2 43.4 -1.75 31.2 15.1 31.1 15.55 4.0 9.05 -13.8 -20.5 -13.75 -20.8 M48.85 0.75 Q54.6 4.15 60.25 8.1 L73.3 17.1 73.2 17.25 70.6 20.75 40.15 18.4 38.65 15.9 48.85 0.75 M-71.9 -22.8 Q-45.7 -24.8 -20.8 -21.8 L-20.85 -21.45 -3.95 7.15 -66.3 -7.75 -71.9 -22.8" fill="url(#gradient1)" fill-rule="evenodd" stroke="none"/>
    <path d="M-13.75 -20.8 L-13.8 -20.5 4.0 9.05 31.1 15.55 31.2 15.1 43.4 -1.75 43.65 -2.2 48.85 0.75 38.65 15.9 40.15 18.4 70.6 20.75 73.2 17.25 73.85 17.5 76.9 18.6 72.9 23.55 34.5 20.75 -71.0 -4.6 -71.15 -5.0 -71.15 -5.05 -76.85 -22.25 -71.9 -22.8 -66.3 -7.75 -3.95 7.15 -20.85 -21.45 -20.8 -21.8 -13.75 -20.8" fill="#a6a6a6" fill-rule="evenodd" stroke="none"/>
    <path d="M43.65 -2.2 L43.6 -2.25 Q28.4 -10.55 12.45 -15.35 -0.5 -18.8 -13.75 -20.8 M48.85 0.75 Q54.6 4.15 60.25 8.1 L73.3 17.1 73.85 17.5 M-76.85 -22.25 L-71.9 -22.8 Q-45.7 -24.8 -20.8 -21.8 M73.2 17.25 L73.3 17.1" fill="none" stroke="#000000" stroke-linecap="round" stroke-linejoin="round" stroke-width="0.05"/>
    <path d="M-13.75 -20.8 L-13.8 -20.5 4.0 9.05 31.1 15.55 31.2 15.1 43.4 -1.75 43.65 -2.2 48.85 0.75 38.65 15.9 40.15 18.4 70.6 20.75 73.2 17.25 73.85 17.5 76.9 18.6 72.9 23.55 34.5 20.75 -71.0 -4.6 -71.15 -5.0 -71.15 -5.05 -76.85 -22.25 M-20.8 -21.8 L-13.75 -20.8 M-20.8 -21.8 L-20.85 -21.45 -3.95 7.15 -66.3 -7.75 -71.9 -22.8" fill="none" stroke="#666666" stroke-linecap="round" stroke-linejoin="round" stroke-width="0.05"/>
  </g>
  <defs>
    <radialGradient cx="0" cy="0" gradientTransform="matrix(0.1648, 0.038, -0.0099, 0.0429, -8.7, 4.3)" gradientUnits="userSpaceOnUse" id="gradient0" r="819.2" spreadMethod="pad">
      <stop offset="0.43137254901960786" stop-color="#b4d1d3"/>
      <stop offset="0.5529411764705883" stop-color="#f8f9fb"/>
    </radialGradient>
    <radialGradient cx="0" cy="0" gradientTransform="matrix(0.1648, 0.038, -0.0099, 0.0429, -8.7, 4.3)" gradientUnits="userSpaceOnUse" id="gradient1" r="819.2" spreadMethod="pad">
      <stop offset="0.43137254901960786" stop-color="#b4d1d3"/>
      <stop offset="0.5529411764705883" stop-color="#f8f9fb"/>
    </radialGradient>
  </defs>
</svg>
