<?xml version="1.0" encoding="UTF-8" standalone="no"?>
<svg xmlns:ffdec="https://www.free-decompiler.com/flash" xmlns:xlink="http://www.w3.org/1999/xlink" ffdec:objectType="shape" height="204.4px" width="198.8px" xmlns="http://www.w3.org/2000/svg">
  <g transform="matrix(1.0, 0.0, 0.0, 1.0, 99.4, 102.2)">
    <path d="M-82.85 56.2 L-99.4 49.0 Q-94.4 36.95 -94.4 35.3 -94.4 30.15 -90.7 27.6 -88.4 26.0 -82.25 24.5 -75.55 22.85 -72.85 21.4 -68.0 18.85 -66.35 13.85 -61.7 -1.5 -58.8 -4.35 -58.3 -4.85 -50.8 -7.55 -44.35 -9.9 -42.95 -13.45 -41.95 -15.95 -42.0 -19.9 L-42.2 -26.55 Q-42.15 -34.6 -35.35 -38.35 -24.7 -44.35 -12.65 -55.05 -11.15 -56.35 -10.0 -60.05 -8.85 -63.7 -6.65 -65.65 -4.65 -67.45 -1.35 -68.1 3.1 -69.0 3.95 -69.4 9.7 -72.1 16.25 -77.7 24.25 -84.55 26.7 -86.1 27.65 -86.7 31.5 -88.05 34.55 -89.15 35.8 -90.6 36.4 -91.3 38.0 -95.55 39.45 -99.35 41.05 -100.45 43.7 -102.15 53.85 -102.2 L66.85 -101.95 67.15 -101.8 67.4 -101.65 Q69.75 -100.45 71.35 -100.45 74.1 -97.85 81.1 -95.6 89.35 -92.9 90.2 -92.1 92.15 -90.2 92.6 -87.25 L92.4 -86.85 Q89.7 -88.5 82.7 -91.35 71.55 -95.85 69.0 -95.85 63.8 -94.35 60.85 -94.35 L60.8 -94.9 Q49.0 -95.55 48.8 -91.25 45.25 -89.95 42.55 -88.35 41.35 -87.65 37.45 -82.5 33.9 -77.8 32.7 -77.75 18.25 -77.1 13.9 -58.05 13.2 -55.05 9.7 -53.15 4.75 -50.5 1.7 -46.7 -1.3 -43.0 -2.2 -38.85 -3.25 -34.25 -5.05 -31.55 -7.15 -28.4 -10.1 -25.65 L-14.85 -21.7 Q-19.7 -17.6 -19.5 -11.95 -19.35 -8.9 -21.05 -6.85 -22.2 -5.45 -25.1 -3.75 -32.1 0.4 -33.85 4.75 L-36.0 10.8 Q-37.1 13.95 -38.2 15.6 -41.2 20.1 -49.7 21.35 -56.15 22.35 -61.55 29.35 -66.35 35.65 -67.1 41.9 -67.5 45.0 -69.7 46.35 -70.75 47.0 -74.4 48.0 -81.05 49.85 -82.85 56.2" fill="url(#gradient0)" fill-rule="evenodd" stroke="none"/>
    <path d="M92.45 -86.85 L92.7 -86.65 Q93.1 -84.6 93.7 -83.5 L93.6 -83.2 93.6 -83.15 Q92.6 -80.35 89.5 -75.55 84.95 -68.5 84.95 -61.9 84.95 -56.0 80.2 -49.1 77.55 -45.2 72.1 -38.35 70.45 -35.95 70.1 -32.75 L69.9 -26.85 Q69.55 -18.85 63.0 -11.95 57.65 -6.35 55.65 -3.25 51.25 3.5 51.65 10.0 52.0 15.55 50.15 18.85 48.9 21.0 45.65 23.35 41.85 26.05 40.6 27.6 38.0 30.7 37.3 35.7 37.25 36.5 37.55 42.5 37.55 48.6 35.8 50.9 L27.45 59.2 Q24.25 66.5 22.4 69.5 18.45 76.0 13.15 78.9 9.85 80.7 5.0 89.4 L2.85 93.45 -82.85 56.2 Q-81.05 49.85 -74.4 48.0 -70.75 47.0 -69.7 46.35 -67.5 45.0 -67.1 41.9 -66.35 35.65 -61.55 29.35 -56.15 22.35 -49.7 21.35 -41.2 20.1 -38.2 15.6 -37.1 13.95 -36.0 10.8 L-33.85 4.75 Q-32.1 0.4 -25.1 -3.75 -22.2 -5.45 -21.05 -6.85 -19.35 -8.9 -19.5 -11.95 -19.7 -17.6 -14.85 -21.7 L-10.1 -25.65 Q-7.15 -28.4 -5.05 -31.55 -3.25 -34.25 -2.2 -38.85 -1.3 -43.0 1.7 -46.7 4.75 -50.5 9.7 -53.15 13.2 -55.05 13.9 -58.05 18.25 -77.1 32.7 -77.75 33.9 -77.8 37.45 -82.5 41.35 -87.65 42.55 -88.35 45.25 -89.95 48.8 -91.25 49.0 -95.55 60.8 -94.9 L60.85 -94.35 Q63.8 -94.35 69.0 -95.85 71.55 -95.85 82.7 -91.35 89.7 -88.5 92.4 -86.85 L92.45 -86.85" fill="url(#gradient1)" fill-rule="evenodd" stroke="none"/>
    <path d="M94.05 -83.0 Q99.4 -76.35 99.4 -74.0 99.4 -71.6 97.5 -67.05 95.55 -62.5 95.55 -61.9 95.55 -59.8 96.7 -57.6 97.8 -55.4 97.8 -53.95 97.8 -51.6 94.4 -47.9 90.95 -44.25 90.95 -40.6 L90.8 -32.25 Q90.6 -30.1 89.7 -28.75 L86.55 -24.55 Q83.7 -20.5 80.35 -14.2 79.55 -12.65 79.65 -5.55 79.75 1.2 78.1 3.25 77.25 5.9 72.95 11.3 68.7 16.55 68.25 18.35 67.5 21.4 67.5 38.8 L63.75 47.15 Q63.45 47.8 58.35 50.0 53.1 52.3 52.4 53.2 50.15 56.0 49.35 60.15 48.75 63.55 48.65 71.3 44.15 77.9 37.45 82.15 29.9 86.95 23.0 102.2 L2.85 93.45 5.0 89.4 Q9.85 80.7 13.15 78.9 18.45 76.0 22.4 69.5 24.25 66.5 27.45 59.2 L35.8 50.9 Q37.55 48.6 37.55 42.5 37.25 36.5 37.3 35.7 38.0 30.7 40.6 27.6 41.85 26.05 45.65 23.35 48.9 21.0 50.15 18.85 52.0 15.55 51.65 10.0 51.25 3.5 55.65 -3.25 57.65 -6.35 63.0 -11.95 69.55 -18.85 69.9 -26.85 L70.1 -32.75 Q70.45 -35.95 72.1 -38.35 77.55 -45.2 80.2 -49.1 84.95 -56.0 84.95 -61.9 84.95 -68.5 89.5 -75.55 92.6 -80.35 93.6 -83.15 L94.05 -83.0" fill="url(#gradient2)" fill-rule="evenodd" stroke="none"/>
    <path d="M92.6 -87.25 L92.7 -86.9 92.45 -86.85 92.4 -86.85 92.6 -87.25" fill="url(#gradient3)" fill-rule="evenodd" stroke="none"/>
    <path d="M92.7 -86.9 L92.7 -86.85 92.45 -86.85 92.7 -86.9" fill="url(#gradient4)" fill-rule="evenodd" stroke="none"/>
    <path d="M93.6 -83.2 L94.05 -83.0 93.6 -83.15 93.6 -83.2" fill="url(#gradient5)" fill-rule="evenodd" stroke="none"/>
  </g>
  <defs>
    <linearGradient gradientTransform="matrix(0.0799, -0.1117, 0.0411, 0.0294, -5.05, -21.9)" gradientUnits="userSpaceOnUse" id="gradient0" spreadMethod="pad" x1="-819.2" x2="819.2">
      <stop offset="0.07058823529411765" stop-color="#ff6600" stop-opacity="0.0"/>
      <stop offset="0.3176470588235294" stop-color="#ff6600"/>
    </linearGradient>
    <linearGradient gradientTransform="matrix(0.0495, -0.1115, 0.0581, 0.0258, 9.35, -16.85)" gradientUnits="userSpaceOnUse" id="gradient1" spreadMethod="pad" x1="-819.2" x2="819.2">
      <stop offset="0.07058823529411765" stop-color="#ffffcc" stop-opacity="0.0"/>
      <stop offset="0.3176470588235294" stop-color="#ffffcc"/>
    </linearGradient>
    <linearGradient gradientTransform="matrix(0.0379, -0.1148, 0.0257, 0.0085, 54.3, 8.25)" gradientUnits="userSpaceOnUse" id="gradient2" spreadMethod="pad" x1="-819.2" x2="819.2">
      <stop offset="0.07058823529411765" stop-color="#ff6600" stop-opacity="0.0"/>
      <stop offset="0.3176470588235294" stop-color="#ff6600"/>
    </linearGradient>
    <linearGradient gradientTransform="matrix(0.0092, -0.0129, 0.0412, 0.0295, -2.7, -24.95)" gradientUnits="userSpaceOnUse" id="gradient3" spreadMethod="pad" x1="-819.2" x2="819.2">
      <stop offset="0.07058823529411765" stop-color="#ff6600" stop-opacity="0.0"/>
      <stop offset="0.3176470588235294" stop-color="#ff6600"/>
    </linearGradient>
    <linearGradient gradientTransform="matrix(0.1172, 0.0, 0.0, 0.0967, -3.35, -23.0)" gradientUnits="userSpaceOnUse" id="gradient4" spreadMethod="pad" x1="-819.2" x2="819.2">
      <stop offset="0.07058823529411765" stop-color="#ff6600" stop-opacity="0.0"/>
      <stop offset="0.3176470588235294" stop-color="#ff6600"/>
    </linearGradient>
    <linearGradient gradientTransform="matrix(0.0589, 0.0, 0.0, 0.1132, 51.1, 9.5)" gradientUnits="userSpaceOnUse" id="gradient5" spreadMethod="pad" x1="-819.2" x2="819.2">
      <stop offset="0.07058823529411765" stop-color="#ff6600" stop-opacity="0.0"/>
      <stop offset="0.3176470588235294" stop-color="#ff6600"/>
    </linearGradient>
  </defs>
</svg>
