<?xml version="1.0" encoding="UTF-8" standalone="no"?>
<svg xmlns:ffdec="https://www.free-decompiler.com/flash" xmlns:xlink="http://www.w3.org/1999/xlink" ffdec:objectType="shape" height="190.85px" width="176.95px" xmlns="http://www.w3.org/2000/svg">
  <g transform="matrix(1.0, 0.0, 0.0, 1.0, 80.15, 101.55)">
    <path d="M-60.25 39.95 L-80.15 29.65 Q-80.05 18.35 -74.7 12.35 -71.15 8.4 -62.9 5.25 -54.35 2.0 -52.0 -0.3 -47.55 -4.65 -49.1 -13.55 -49.95 -18.5 -41.95 -24.2 -37.5 -27.15 -35.55 -28.6 -32.15 -31.15 -31.0 -33.25 -33.35 -41.05 -29.0 -47.45 -24.9 -53.6 -16.55 -55.85 L-9.3 -56.8 -0.75 -57.45 Q0.3 -58.45 3.6 -63.25 L8.25 -70.3 Q11.9 -76.6 16.45 -79.1 19.65 -80.95 27.15 -82.4 29.05 -83.65 29.65 -89.65 30.2 -94.6 34.0 -94.5 45.25 -94.05 49.1 -94.5 51.05 -94.7 54.5 -98.0 57.9 -101.3 58.95 -101.3 L74.8 -101.3 80.65 -101.55 86.55 -100.95 Q93.0 -99.0 93.0 -89.25 93.0 -85.25 94.9 -76.15 96.8 -67.1 96.8 -64.3 96.8 -61.75 94.15 -56.6 91.5 -51.45 91.5 -43.1 91.5 -40.5 90.2 -38.3 L87.35 -34.35 Q83.15 -28.5 83.15 -18.9 83.15 -15.75 79.7 -12.75 75.3 -9.45 73.3 -7.5 69.65 -3.75 71.05 6.0 71.75 10.75 70.15 14.4 69.2 16.55 66.25 20.05 63.3 23.6 62.3 25.9 60.6 29.7 61.2 34.75 62.15 42.75 55.25 49.5 L50.2 54.35 Q47.8 57.1 47.6 59.7 47.5 61.45 48.0 67.75 48.35 72.65 47.6 75.55 46.5 79.5 42.55 81.0 37.75 82.15 35.5 83.25 L35.5 89.3 18.0 80.3 Q20.15 71.65 24.85 67.7 26.95 65.95 27.55 64.9 28.65 63.0 28.65 59.3 28.65 44.45 34.0 40.75 43.45 34.35 43.75 24.9 44.05 16.75 44.35 15.15 45.4 8.9 49.1 6.0 61.2 -3.45 61.2 -9.0 61.2 -16.85 61.7 -18.9 62.95 -23.95 68.05 -26.4 73.9 -29.25 74.0 -35.0 L73.7 -39.85 Q73.5 -42.75 74.05 -44.5 74.65 -46.45 79.9 -51.7 84.5 -56.3 84.75 -61.95 85.05 -69.55 86.85 -73.05 88.5 -76.25 88.5 -82.4 88.5 -89.3 86.25 -91.5 83.9 -93.75 76.65 -93.75 72.75 -93.75 65.45 -92.25 59.05 -91.0 52.85 -91.5 48.8 -91.8 44.5 -85.1 39.75 -77.8 36.25 -77.05 22.25 -74.0 19.55 -64.95 20.0 -58.0 17.35 -53.15 14.2 -47.45 7.5 -46.85 -3.7 -45.85 -4.0 -40.45 L-3.7 -35.2 Q-3.65 -31.85 -5.25 -29.4 -7.35 -26.2 -14.25 -21.4 -21.15 -16.6 -24.15 -12.05 -25.65 -9.8 -25.6 -6.4 -25.2 -2.35 -25.15 -0.3 -24.95 7.3 -33.25 11.3 L-45.2 17.05 Q-56.7 23.3 -56.7 27.15 -56.7 33.4 -57.45 34.55 -58.9 36.65 -60.25 39.95" fill="url(#gradient0)" fill-rule="evenodd" stroke="none"/>
    <path d="M18.0 80.3 L-60.25 39.95 Q-58.9 36.65 -57.45 34.55 -56.7 33.4 -56.7 27.15 -56.7 23.3 -45.2 17.05 L-33.25 11.3 Q-24.95 7.3 -25.15 -0.3 -25.2 -2.35 -25.6 -6.4 -25.65 -9.8 -24.15 -12.05 -21.15 -16.6 -14.25 -21.4 -7.35 -26.2 -5.25 -29.4 -3.65 -31.85 -3.7 -35.2 L-4.0 -40.45 Q-3.7 -45.85 7.5 -46.85 14.2 -47.45 17.35 -53.15 20.0 -58.0 19.55 -64.95 22.25 -74.0 36.25 -77.05 39.75 -77.8 44.5 -85.1 48.8 -91.8 52.85 -91.5 59.05 -91.0 65.45 -92.25 72.75 -93.75 76.65 -93.75 83.9 -93.75 86.25 -91.5 88.5 -89.3 88.5 -82.4 88.5 -76.25 86.85 -73.05 85.05 -69.55 84.75 -61.95 84.5 -56.3 79.9 -51.7 74.65 -46.45 74.05 -44.5 73.5 -42.75 73.7 -39.85 L74.0 -35.0 Q73.9 -29.25 68.05 -26.4 62.95 -23.95 61.7 -18.9 61.2 -16.85 61.2 -9.0 61.2 -3.45 49.1 6.0 45.4 8.9 44.35 15.15 44.05 16.75 43.75 24.9 43.45 34.35 34.0 40.75 28.65 44.45 28.65 59.3 28.65 63.0 27.55 64.9 26.95 65.95 24.85 67.7 20.15 71.65 18.0 80.3" fill="url(#gradient1)" fill-rule="evenodd" stroke="none"/>
  </g>
  <defs>
    <linearGradient gradientTransform="matrix(0.0557, -0.1044, 0.0745, 0.0397, 23.1, -25.15)" gradientUnits="userSpaceOnUse" id="gradient0" spreadMethod="pad" x1="-819.2" x2="819.2">
      <stop offset="0.07058823529411765" stop-color="#ff6600" stop-opacity="0.0"/>
      <stop offset="0.3176470588235294" stop-color="#ff6600"/>
    </linearGradient>
    <linearGradient gradientTransform="matrix(0.0629, -0.0974, 0.0472, 0.0305, 26.15, -17.35)" gradientUnits="userSpaceOnUse" id="gradient1" spreadMethod="pad" x1="-819.2" x2="819.2">
      <stop offset="0.07058823529411765" stop-color="#ffffcc" stop-opacity="0.0"/>
      <stop offset="0.3176470588235294" stop-color="#ffffcc"/>
    </linearGradient>
  </defs>
</svg>
