<?xml version="1.0" encoding="UTF-8" standalone="no"?>
<svg xmlns:ffdec="https://www.free-decompiler.com/flash" xmlns:xlink="http://www.w3.org/1999/xlink" ffdec:objectType="shape" height="186.0px" width="173.45px" xmlns="http://www.w3.org/2000/svg">
  <g transform="matrix(1.0, 0.0, 0.0, 1.0, 71.35, 105.8)">
    <path d="M102.1 -91.7 L102.05 -86.25 Q102.05 -85.35 99.75 -93.2 L102.1 -91.7 M99.35 -93.5 L99.35 -93.45 99.45 -92.55 Q98.7 -90.75 94.35 -85.8 87.55 -78.2 84.95 -73.3 82.3 -68.4 82.35 -60.55 82.8 -50.8 82.4 -45.35 82.15 -41.7 78.4 -40.5 72.95 -38.85 72.55 -38.5 67.65 -34.3 69.55 -24.9 70.6 -19.65 69.0 -17.45 67.9 -15.95 64.45 -15.1 60.2 -14.05 58.65 -13.15 55.5 -11.2 54.35 -6.75 53.85 -4.9 53.6 -1.1 L52.9 4.85 Q51.4 11.8 44.6 15.05 39.9 17.35 39.25 24.3 38.9 28.45 39.25 38.5 39.05 45.0 32.55 47.75 28.8 49.15 26.95 49.9 23.65 51.25 21.9 52.95 18.55 56.2 14.4 64.25 L13.4 66.25 -55.3 30.95 Q-52.2 28.5 -50.45 21.0 -48.2 11.2 -45.35 9.05 -43.55 7.7 -33.2 2.45 -26.1 -1.15 -24.15 -5.25 -22.25 -9.25 -19.0 -10.9 -17.6 -11.65 -13.45 -12.5 -10.4 -13.15 -9.3 -14.6 -7.75 -16.7 -8.3 -21.9 -9.0 -28.4 -1.75 -32.7 L3.45 -35.85 Q5.9 -37.75 6.0 -40.0 3.55 -50.65 11.1 -54.6 13.3 -55.75 18.35 -57.2 23.55 -58.65 25.65 -59.7 28.65 -61.2 29.85 -64.35 L31.15 -70.05 Q31.8 -73.45 33.25 -74.95 35.35 -77.0 40.0 -77.05 45.3 -77.1 49.9 -81.7 L58.2 -90.75 Q60.45 -92.8 74.05 -93.75 74.7 -93.9 79.45 -97.3 84.0 -100.55 85.4 -100.55 88.05 -100.55 99.2 -93.55 L99.35 -93.5" fill="url(#gradient0)" fill-rule="evenodd" stroke="none"/>
    <path d="M-55.3 30.95 Q-63.3 26.8 -71.35 22.7 L-66.1 6.25 Q-64.15 -0.3 -60.45 -3.75 -58.2 -5.85 -54.2 -7.1 L-47.6 -8.9 Q-40.25 -11.25 -40.75 -19.55 -41.15 -27.45 -36.7 -32.25 -32.35 -37.0 -24.9 -37.0 -16.9 -37.05 -15.0 -45.75 -14.45 -48.05 -13.75 -52.75 -12.95 -56.65 -11.3 -58.2 -6.35 -62.85 0.4 -65.85 L14.3 -71.05 Q17.4 -72.2 17.6 -75.7 17.8 -79.75 20.3 -81.65 22.1 -82.95 26.9 -84.55 31.35 -86.1 33.25 -86.25 36.3 -86.6 38.65 -89.3 40.0 -90.85 42.2 -94.95 44.4 -98.95 45.85 -100.6 48.2 -103.2 51.35 -103.55 L82.4 -105.8 Q97.25 -105.8 100.55 -100.6 101.95 -98.4 102.1 -94.45 L102.1 -91.7 99.75 -93.2 99.0 -95.65 99.35 -93.5 99.2 -93.55 Q88.05 -100.55 85.4 -100.55 84.0 -100.55 79.45 -97.3 74.7 -93.9 74.05 -93.75 60.45 -92.8 58.2 -90.75 L49.9 -81.7 Q45.3 -77.1 40.0 -77.05 35.35 -77.0 33.25 -74.95 31.8 -73.45 31.15 -70.05 L29.85 -64.35 Q28.65 -61.2 25.65 -59.7 23.55 -58.65 18.35 -57.2 13.3 -55.75 11.1 -54.6 3.55 -50.65 6.0 -40.0 5.9 -37.75 3.45 -35.85 L-1.75 -32.7 Q-9.0 -28.4 -8.3 -21.9 -7.75 -16.7 -9.3 -14.6 -10.4 -13.15 -13.45 -12.5 -17.6 -11.65 -19.0 -10.9 -22.25 -9.25 -24.15 -5.25 -26.1 -1.15 -33.2 2.45 -43.55 7.7 -45.35 9.05 -48.2 11.2 -50.45 21.0 -52.2 28.5 -55.3 30.95 M99.45 -92.55 Q101.55 -77.05 99.65 -73.3 97.35 -68.8 97.55 -56.7 97.55 -54.25 93.65 -51.75 L88.5 -48.35 Q87.75 -47.4 87.75 -36.65 87.75 -29.9 81.65 -24.0 L77.45 -19.55 Q75.55 -16.95 75.55 -13.95 77.05 -5.25 77.05 -3.35 77.05 -0.65 72.4 3.15 67.05 6.95 65.7 8.3 63.0 11.05 63.3 15.6 L64.2 23.4 Q64.2 26.0 59.65 29.8 55.1 33.65 55.1 36.65 L57.45 48.0 Q57.45 53.55 54.35 56.95 L45.35 65.05 Q42.85 67.5 42.05 73.5 41.55 77.5 40.65 80.2 L13.4 66.25 14.4 64.25 Q18.55 56.2 21.9 52.95 23.65 51.25 26.95 49.9 28.8 49.15 32.55 47.75 39.05 45.0 39.25 38.5 38.9 28.45 39.25 24.3 39.9 17.35 44.6 15.05 51.4 11.8 52.9 4.85 L53.6 -1.1 Q53.85 -4.9 54.35 -6.75 55.5 -11.2 58.65 -13.15 60.2 -14.05 64.45 -15.1 67.9 -15.95 69.0 -17.45 70.6 -19.65 69.55 -24.9 67.65 -34.3 72.55 -38.5 72.95 -38.85 78.4 -40.5 82.15 -41.7 82.4 -45.35 82.8 -50.8 82.35 -60.55 82.3 -68.4 84.95 -73.3 87.55 -78.2 94.35 -85.8 98.7 -90.75 99.45 -92.55" fill="url(#gradient1)" fill-rule="evenodd" stroke="none"/>
  </g>
  <defs>
    <linearGradient gradientTransform="matrix(0.0592, -0.0974, 0.0466, 0.0284, 28.6, -27.3)" gradientUnits="userSpaceOnUse" id="gradient0" spreadMethod="pad" x1="-819.2" x2="819.2">
      <stop offset="0.07058823529411765" stop-color="#ffffcc" stop-opacity="0.0"/>
      <stop offset="0.3176470588235294" stop-color="#ffffcc"/>
    </linearGradient>
    <linearGradient gradientTransform="matrix(0.0501, -0.094, 0.0184, 0.0098, 67.7, -3.7)" gradientUnits="userSpaceOnUse" id="gradient1" spreadMethod="pad" x1="-819.2" x2="819.2">
      <stop offset="0.07058823529411765" stop-color="#ff6600" stop-opacity="0.0"/>
      <stop offset="0.3176470588235294" stop-color="#ff6600"/>
    </linearGradient>
  </defs>
</svg>
