<?xml version="1.0" encoding="UTF-8" standalone="no"?>
<svg xmlns:ffdec="https://www.free-decompiler.com/flash" xmlns:xlink="http://www.w3.org/1999/xlink" ffdec:objectType="shape" height="148.15px" width="89.4px" xmlns="http://www.w3.org/2000/svg">
  <g transform="matrix(1.0, 0.0, 0.0, 1.0, 44.65, 74.05)">
    <path d="M12.4 -44.65 Q14.5 -42.9 16.2 -39.35 19.5 -33.05 11.8 -23.7 L11.8 -25.65 Q11.8 -27.55 10.95 -29.25 14.0 -34.2 12.6 -37.65 11.45 -40.05 10.1 -41.3 L11.7 -43.6 12.25 -44.35 12.2 -44.35 12.4 -44.65" fill="#99994d" fill-rule="evenodd" stroke="none"/>
    <path d="M8.25 -64.3 L8.4 -64.4 8.4 -64.3 8.3 -64.3 8.25 -64.3 M-4.4 -55.65 L-4.2 -55.75 -4.15 -55.7 -4.4 -55.65" fill="url(#gradient0)" fill-rule="evenodd" stroke="none"/>
    <path d="M8.4 -64.4 L8.25 -64.3 Q0.25 -65.0 -5.85 -60.4 L-4.4 -56.35 -4.2 -55.75 -4.4 -55.65 -6.85 -54.85 -13.95 -63.85 Q-13.15 -67.5 -11.25 -69.9 -13.15 -67.5 -13.95 -63.85 L-6.85 -54.85 -4.4 -55.65 -4.15 -55.7 Q-3.1 -52.4 -3.1 -50.9 -3.15 -46.85 -4.4 -45.1 L-4.45 -45.0 Q-5.75 -43.35 -7.95 -42.45 L-9.15 -42.15 Q-11.1 -41.85 -13.65 -42.7 -15.1 -43.2 -16.3 -44.0 L-17.0 -44.55 Q-18.3 -45.65 -19.3 -47.1 -21.55 -50.4 -21.8 -54.3 -22.1 -58.15 -21.05 -61.0 -20.0 -63.9 -17.5 -66.3 -15.4 -68.3 -11.25 -69.9 -9.6 -72.05 -6.65 -72.7 L-6.1 -72.85 Q-4.0 -73.25 -1.95 -72.85 3.75 -71.75 8.4 -64.4" fill="url(#gradient1)" fill-rule="evenodd" stroke="none"/>
    <path d="M8.4 -64.3 L8.4 -64.4 8.45 -64.3 8.4 -64.3" fill="#767269" fill-rule="evenodd" stroke="none"/>
    <path d="M-4.2 -55.75 L-4.4 -56.35 -5.85 -60.4 Q0.25 -65.0 8.25 -64.3 L8.3 -64.25 Q10.7 -58.35 8.6 -52.05 L8.5 -51.8 6.15 -52.95 6.05 -52.9 5.95 -52.95 5.65 -52.4 5.95 -52.95 6.05 -52.9 5.65 -52.4 Q3.05 -49.3 1.8 -45.5 L1.45 -44.4 1.25 -44.3 1.1 -44.25 1.8 -45.5 1.1 -44.25 Q-2.45 -43.85 -4.3 -44.8 L-4.4 -45.1 Q-3.15 -46.85 -3.1 -50.9 -3.1 -52.4 -4.15 -55.7 L-4.2 -55.75" fill="url(#gradient2)" fill-rule="evenodd" stroke="none"/>
    <path d="M8.5 -51.8 L9.55 -51.3 9.55 -51.15 6.05 -52.9 9.55 -51.15 9.2 -48.7 12.75 -45.15 12.4 -44.65 12.2 -44.35 11.7 -43.6 10.1 -41.3 9.65 -40.65 9.5 -40.7 5.1 -42.4 1.55 -43.75 1.25 -43.95 1.45 -44.4 1.8 -45.5 Q3.05 -49.3 5.65 -52.4 L1.8 -45.5 5.65 -52.4 6.05 -52.9 6.15 -52.95 8.5 -51.8 M1.25 -44.3 L1.25 -43.95 1.25 -43.85 1.55 -43.75 1.55 -43.65 0.9 -43.95 1.1 -44.25 1.25 -44.3 M9.5 -40.7 L11.7 -43.6 9.5 -40.7" fill="#727138" fill-rule="evenodd" stroke="none"/>
    <path d="M12.2 -44.35 L12.25 -44.35 11.7 -43.6 12.2 -44.35" fill="#7b7b7b" fill-rule="evenodd" stroke="none"/>
    <path d="M-20.7 -38.2 L-17.0 -44.55 -16.3 -44.0 Q-15.1 -43.2 -13.65 -42.7 -11.1 -41.85 -9.15 -42.15 L-7.95 -42.45 Q-5.75 -43.35 -4.45 -45.0 L-4.3 -44.8 Q-2.45 -43.85 1.1 -44.25 L0.9 -43.95 1.55 -43.65 1.9 -43.55 1.7 -43.0 6.15 -38.9 Q9.7 -36.4 9.15 -31.65 6.65 -34.3 3.1 -34.3 0.4 -34.3 0.25 -27.3 L-0.25 -27.3 Q-0.25 -40.15 -8.95 -40.15 L-9.0 -40.15 Q-15.75 -40.15 -18.6 -35.8 -20.0 -33.65 -20.55 -30.15 L-20.65 -29.6 -22.85 -29.85 -22.9 -30.45 -23.1 -31.8 Q-22.6 -34.4 -21.3 -37.0 L-21.25 -37.1 -20.9 -37.85 -20.7 -38.2 M1.55 -43.75 L1.25 -43.85 1.25 -43.95 1.4 -44.3 1.45 -44.4 1.25 -43.95 1.55 -43.75" fill="#666633" fill-rule="evenodd" stroke="none"/>
    <path d="M1.4 -44.3 L1.25 -44.3 1.45 -44.4 1.4 -44.3" fill="#666666" fill-rule="evenodd" stroke="none"/>
    <path d="M11.8 -23.7 L11.8 -22.25 Q11.45 -20.3 9.4 -20.3 L9.35 -20.3 Q6.35 -20.3 3.6 -21.75 0.25 -23.55 0.25 -26.4 L0.25 -27.3 Q0.4 -34.3 3.1 -34.3 6.65 -34.3 9.15 -31.65 L9.4 -31.4 10.95 -29.25 Q11.8 -27.55 11.8 -25.65 L11.8 -23.7" fill="#7c7c3f" fill-rule="evenodd" stroke="none"/>
    <path d="M9.4 -20.3 Q9.35 -18.6 7.5 -16.0 L11.8 -7.75 11.8 -1.1 10.3 -1.1 11.2 -0.7 11.25 -0.7 11.4 -0.6 11.2 -0.2 10.3 -1.1 6.1 -5.75 3.2 -8.6 5.05 -10.65 Q5.1 -13.05 3.2 -14.75 L-0.75 -17.9 -1.25 -17.9 -1.25 -20.8 Q-0.25 -22.1 -0.25 -27.3 L0.25 -27.3 0.25 -26.4 Q0.25 -23.55 3.6 -21.75 6.35 -20.3 9.35 -20.3 L9.4 -20.3 M26.8 7.5 L26.95 7.65 25.45 9.45 26.8 7.5 M-22.55 -37.35 L-22.4 -37.75 -22.4 -37.35 -22.55 -37.35" fill="#55552b" fill-rule="evenodd" stroke="none"/>
    <path d="M11.4 -0.6 Q21.95 3.95 26.8 7.5 L25.45 9.45 Q22.9 7.4 17.45 5.9 L17.3 6.45 Q15.55 11.8 12.55 13.8 L12.3 14.0 12.35 16.0 -6.5 16.8 -6.5 15.95 Q-7.8 14.9 -7.85 11.65 L-4.2 5.4 -0.95 8.1 Q5.55 13.6 12.3 14.0 5.55 13.6 -0.95 8.1 L-4.2 5.4 -10.9 -0.05 Q-13.7 -1.95 -16.4 -7.9 L-17.8 -11.2 Q-20.2 -17.35 -20.8 -21.7 L-21.0 -24.45 Q-21.0 -27.3 -20.65 -29.6 -21.0 -27.3 -21.0 -24.45 L-20.8 -21.7 -21.75 -21.5 -21.75 -21.55 -22.85 -29.85 -20.65 -29.6 -20.55 -30.15 Q-20.0 -33.65 -18.6 -35.8 -15.75 -40.15 -9.0 -40.15 L-8.95 -40.15 Q-0.25 -40.15 -0.25 -27.3 -0.25 -22.1 -1.25 -20.8 L-1.25 -17.9 -1.25 -12.05 -1.25 -17.9 -0.75 -17.9 3.2 -14.75 Q5.1 -13.05 5.05 -10.65 L3.2 -8.6 6.1 -5.75 10.3 -1.1 11.2 -0.2 11.4 -0.6 M26.95 7.65 L28.25 8.7 Q30.55 10.75 37.5 15.15 43.25 19.6 43.25 24.55 43.25 29.25 43.05 30.25 42.55 33.15 40.3 34.25 40.05 36.55 41.75 41.0 41.75 43.0 39.9 45.25 38.45 47.0 37.0 47.8 33.7 53.9 34.4 60.35 L34.5 61.35 Q35.1 65.45 40.1 68.25 45.1 71.05 43.25 72.95 L38.05 72.5 27.65 69.65 Q20.95 67.6 20.0 66.2 L20.0 62.8 Q20.4 62.4 21.25 60.05 21.9 58.25 23.2 57.55 L23.4 57.45 23.4 53.1 Q24.45 50.5 25.35 45.8 L26.75 39.4 26.85 39.35 30.35 39.1 30.65 39.05 Q32.85 38.45 33.1 34.3 L32.6 34.25 32.6 23.2 Q33.6 18.3 27.3 16.7 L27.25 16.45 27.7 14.0 Q28.0 11.45 25.45 9.45 L26.95 7.65 M-24.85 -38.7 L-22.35 -38.45 -20.7 -38.2 -20.9 -37.85 -21.25 -37.1 -21.3 -37.0 Q-22.6 -34.4 -23.1 -31.8 -23.7 -35.95 -24.85 -38.7 M-6.5 -12.55 Q-4.0 -12.65 -1.45 -11.55 0.8 -10.6 3.1 -8.65 L3.2 -8.6 3.1 -8.65 Q0.8 -10.6 -1.45 -11.55 -4.0 -12.65 -6.5 -12.55 M16.65 6.25 L17.3 6.45 16.65 6.25 M17.45 5.9 L17.6 5.3 Q14.3 2.75 11.2 -0.2 14.3 2.75 17.6 5.3 L17.45 5.9 M-22.55 -37.35 L-22.4 -37.35 -22.4 -37.75 -22.55 -37.35" fill="#444422" fill-rule="evenodd" stroke="none"/>
    <path d="M26.75 39.4 L25.7 39.55 23.15 39.7 16.65 39.75 16.15 39.75 12.75 39.75 Q4.9 39.75 1.15 40.05 L-9.2 41.25 -9.3 41.25 -13.75 41.8 -29.25 42.95 Q-29.6 37.8 -32.75 24.5 -36.2 9.8 -37.0 4.35 L-40.4 -14.55 -40.45 -14.6 Q-44.15 -35.7 -43.6 -37.35 -42.9 -39.6 -40.65 -40.85 -38.45 -42.1 -33.15 -43.05 -27.9 -44.0 -25.8 -40.55 L-24.85 -38.7 Q-23.7 -35.95 -23.1 -31.8 L-22.9 -30.45 -22.85 -29.85 -21.75 -21.55 -21.75 -21.5 -21.7 -21.05 -19.9 -10.9 -19.15 -6.8 Q-17.4 3.05 -16.45 13.85 L-16.45 13.9 -16.2 16.95 -6.5 16.8 12.35 16.0 13.5 15.95 16.55 15.95 25.95 16.4 26.3 16.5 27.3 16.7 Q33.6 18.3 32.6 23.2 L32.6 34.25 33.1 34.3 Q32.85 38.45 30.65 39.05 L30.35 39.1 26.85 39.35 26.75 39.4 M5.5 21.45 Q4.8 22.0 4.5 23.45 L4.3 24.95 4.3 27.5 Q4.9 29.7 7.9 29.7 9.15 29.7 9.65 29.1 9.35 27.9 7.8 25.0 6.2 22.05 5.5 21.45 M12.75 22.2 L12.75 37.2 Q11.05 36.0 8.4 35.2 5.25 34.2 3.6 33.3 L-3.15 33.3 3.6 33.3 Q5.25 34.2 8.4 35.2 11.05 36.0 12.75 37.2 L12.75 22.2 M20.6 32.95 L21.0 33.3 21.6 33.4 Q24.9 33.8 30.15 36.2 L30.15 33.3 Q27.4 26.85 26.8 23.7 22.65 29.65 22.0 30.95 L20.65 32.9 20.6 32.95 16.15 37.7 20.6 32.95 M2.6 32.8 L2.6 21.7 2.6 32.8 M-32.9 -37.15 L-33.15 -38.2 -35.1 -38.45 Q-36.6 -38.25 -37.25 -37.0 -35.55 -35.55 -34.6 -35.55 L-34.05 -35.6 Q-32.25 -29.8 -29.8 -24.2 L-30.0 -18.3 Q-30.0 -10.3 -29.25 -5.1 -28.85 -2.25 -28.25 -0.25 L-27.2 -0.65 -27.1 -5.5 Q-26.3 -13.75 -26.15 -18.05 L-26.15 -21.05 -26.15 -26.55 Q-26.85 -28.35 -27.05 -32.35 -27.25 -35.45 -28.75 -37.0 -29.4 -36.8 -29.85 -36.15 L-30.4 -35.55 Q-30.9 -35.55 -31.6 -36.25 -32.2 -36.9 -32.9 -36.95 L-32.9 -37.15 M-31.65 -0.45 Q-32.65 -4.3 -33.6 -14.55 L-40.4 -14.55 -33.6 -14.55 Q-32.65 -4.3 -31.65 -0.45 M-24.9 -8.25 Q-23.95 -6.1 -23.95 1.7 -23.95 5.9 -24.8 7.7 -25.7 9.65 -28.85 12.25 -25.7 9.65 -24.8 7.7 -23.95 5.9 -23.95 1.7 -23.95 -6.1 -24.9 -8.25 M-27.5 17.25 Q-27.65 17.1 -27.75 17.1 -28.5 17.1 -28.8 17.9 -29.05 17.6 -29.25 17.6 L-30.35 17.85 -30.45 20.0 -29.0 30.0 Q-26.95 39.85 -23.7 39.85 L-22.7 39.75 -20.6 39.85 Q-14.55 39.85 -13.65 39.2 -13.1 38.85 -13.5 37.95 -13.85 37.1 -14.6 36.7 L-22.65 36.35 -22.7 36.15 Q-22.4 34.8 -23.15 34.35 L-24.75 28.8 Q-22.05 32.1 -18.65 32.1 -17.7 32.1 -16.95 31.2 -20.75 24.65 -24.2 25.45 -24.35 23.45 -25.75 20.25 -25.9 18.1 -27.35 17.1 L-27.5 17.25 M-17.65 14.0 L-27.35 14.0 -17.65 14.0 M-9.45 40.05 Q-8.5 38.05 -8.5 35.25 -8.5 32.45 -9.65 30.4 -10.85 28.3 -17.85 27.1 -24.9 25.85 -24.9 17.85 -24.9 25.85 -17.85 27.1 -10.85 28.3 -9.65 30.4 -8.5 32.45 -8.5 35.25 -8.5 38.05 -9.45 40.05" fill="#8d868d" fill-rule="evenodd" stroke="none"/>
    <path d="M-4.3 -44.8 L-4.45 -45.0 -4.4 -45.1 -4.3 -44.8" fill="#333333" fill-rule="evenodd" stroke="none"/>
    <path d="M-32.9 -37.15 L-32.9 -36.95 Q-32.2 -36.9 -31.6 -36.25 -30.9 -35.55 -30.4 -35.55 L-29.85 -36.15 Q-29.4 -36.8 -28.75 -37.0 -27.25 -35.45 -27.05 -32.35 -26.85 -28.35 -26.15 -26.55 L-26.15 -21.05 -26.15 -18.05 Q-26.3 -13.75 -27.1 -5.5 L-27.2 -0.65 -28.25 -0.25 Q-28.85 -2.25 -29.25 -5.1 -30.0 -10.3 -30.0 -18.3 L-29.8 -24.2 Q-32.25 -29.8 -34.05 -35.6 L-34.6 -35.55 Q-35.55 -35.55 -37.25 -37.0 -36.6 -38.25 -35.1 -38.45 L-33.15 -38.2 -32.9 -37.15 M-27.5 17.25 L-27.35 17.1 Q-25.9 18.1 -25.75 20.25 -24.35 23.45 -24.2 25.45 -20.75 24.65 -16.95 31.2 -17.7 32.1 -18.65 32.1 -22.05 32.1 -24.75 28.8 L-23.15 34.35 Q-22.4 34.8 -22.7 36.15 L-22.65 36.35 -14.6 36.7 Q-13.85 37.1 -13.5 37.95 -13.1 38.85 -13.65 39.2 -14.55 39.85 -20.6 39.85 L-22.7 39.75 -23.7 39.85 Q-26.95 39.85 -29.0 30.0 L-30.45 20.0 -30.35 17.85 -29.25 17.6 Q-29.05 17.6 -28.8 17.9 -28.5 17.1 -27.75 17.1 -27.65 17.1 -27.5 17.25" fill="#6b6761" fill-rule="evenodd" stroke="none"/>
    <path d="M12.7 14.0 L13.25 14.0 14.3 14.75 13.5 15.95 12.35 16.0 12.3 14.0 12.7 14.0 M-19.9 -10.9 L-21.7 -21.05 -21.75 -21.5 -20.8 -21.7 Q-20.2 -17.35 -17.8 -11.2 L-19.9 -10.9" fill="#272714" fill-rule="evenodd" stroke="none"/>
    <path d="M-6.5 16.8 L-16.2 16.95 -16.45 13.9 -16.45 13.85 Q-17.4 3.05 -19.15 -6.8 L-19.9 -10.9 -17.8 -11.2 -16.4 -7.9 Q-13.7 -1.95 -10.9 -0.05 L-4.2 5.4 -7.85 11.65 Q-7.8 14.9 -6.5 15.95 L-6.5 16.8" fill="#38381d" fill-rule="evenodd" stroke="none"/>
    <path d="M27.25 16.45 L27.3 16.7 26.3 16.5 27.25 16.45" fill="#33331a" fill-rule="evenodd" stroke="none"/>
    <path d="M25.45 9.45 Q28.0 11.45 27.7 14.0 L27.25 16.45 26.3 16.5 25.95 16.4 16.55 15.95 Q15.2 15.35 14.3 14.75 15.2 15.35 16.55 15.95 L13.5 15.95 14.3 14.75 13.25 14.0 12.7 14.0 12.55 13.8 Q15.55 11.8 17.3 6.45 L17.45 5.9 Q22.9 7.4 25.45 9.45" fill="#434223" fill-rule="evenodd" stroke="none"/>
    <path d="M5.5 21.45 Q6.2 22.05 7.8 25.0 9.35 27.9 9.65 29.1 9.15 29.7 7.9 29.7 4.9 29.7 4.3 27.5 L4.3 24.95 4.5 23.45 Q4.8 22.0 5.5 21.45 M21.0 33.3 L20.6 32.95 20.65 32.9 22.0 30.95 Q22.65 29.65 26.8 23.7 27.4 26.85 30.15 33.3 L30.15 36.2 Q24.9 33.8 21.6 33.4 L21.0 33.3" fill="#625e59" fill-rule="evenodd" stroke="none"/>
    <path d="M12.55 13.8 L12.7 14.0 12.3 14.0 12.55 13.8" fill="#ffcccc" fill-rule="evenodd" stroke="none"/>
    <path d="M8.4 -64.4 Q3.75 -71.75 -1.95 -72.85 -4.0 -73.25 -6.1 -72.85 L-6.65 -72.7 Q-9.6 -72.05 -11.25 -69.9 -13.15 -67.5 -13.95 -63.85 L-6.85 -54.85 -4.4 -55.65 M8.25 -64.3 L8.3 -64.25 Q10.7 -58.35 8.6 -52.05 L8.5 -51.8 M9.55 -51.15 L10.05 -50.9 M6.05 -52.9 L9.55 -51.15 9.2 -48.7 12.75 -45.15 12.4 -44.65 12.2 -44.35 M11.8 -23.7 L11.8 -22.25 Q11.45 -20.3 9.4 -20.3 9.35 -18.6 7.5 -16.0 L11.8 -7.75 11.8 -1.1 11.8 -1.0 11.2 -0.7 11.25 -0.7 11.4 -0.6 Q21.95 3.95 26.8 7.5 L26.95 7.65 28.25 8.7 Q30.55 10.75 37.5 15.15 43.25 19.6 43.25 24.55 43.25 29.25 43.05 30.25 42.55 33.15 40.3 34.25 40.05 36.55 41.75 41.0 41.75 43.0 39.9 45.25 38.45 47.0 37.0 47.8 33.7 53.9 34.4 60.35 L34.5 61.35 Q35.1 65.45 40.1 68.25 45.1 71.05 43.25 72.95 L38.05 72.5 27.65 69.65 Q20.95 67.6 20.0 66.2 L20.0 62.8 Q20.4 62.4 21.25 60.05 21.9 58.25 23.2 57.55 L23.4 57.45 23.4 53.1 Q24.45 50.5 25.35 45.8 L26.75 39.4 25.7 39.55 23.15 39.7 16.65 39.75 16.15 39.75 12.75 39.75 Q4.9 39.75 1.15 40.05 L-9.2 41.25 -9.3 41.25 -13.75 41.8 -29.25 42.95 M-40.4 -14.55 L-40.45 -14.6 M-24.85 -38.7 L-22.35 -38.45 -20.7 -38.2 -17.0 -44.55 Q-18.3 -45.65 -19.3 -47.1 -21.55 -50.4 -21.8 -54.3 -22.1 -58.15 -21.05 -61.0 -20.0 -63.9 -17.5 -66.3 -15.4 -68.3 -11.25 -69.9 M6.05 -52.9 L5.95 -52.95 5.65 -52.4 1.8 -45.5 1.1 -44.25 0.9 -43.95 1.55 -43.65 1.9 -43.55 5.1 -42.4 9.5 -40.7 11.7 -43.6 12.25 -44.35 M10.95 -29.25 Q11.8 -27.55 11.8 -25.65 L11.8 -23.7 M1.7 -43.0 L6.15 -38.9 Q9.7 -36.4 9.15 -31.65 L9.4 -31.4 10.95 -29.25 M9.15 -31.65 Q6.65 -34.3 3.1 -34.3 0.4 -34.3 0.25 -27.3 L0.25 -26.4 Q0.25 -23.55 3.6 -21.75 6.35 -20.3 9.35 -20.3 L9.4 -20.3 M3.2 -8.6 L6.1 -5.75 10.3 -1.1 11.2 -0.2 Q14.3 2.75 17.6 5.3 L17.45 5.9 17.3 6.45 Q15.55 11.8 12.55 13.8 L12.3 14.0 12.7 14.0 M3.2 -8.6 L3.1 -8.65 Q0.8 -10.6 -1.45 -11.55 -4.0 -12.65 -6.5 -12.55 M11.2 -0.7 L10.3 -1.1 M-0.75 -17.9 L3.2 -14.75 Q5.1 -13.05 5.05 -10.65 M25.45 9.45 Q28.0 11.45 27.7 14.0 L27.25 16.45 26.3 16.5 27.3 16.7 Q33.6 18.3 32.6 23.2 L32.6 34.25 33.1 34.3 Q32.85 38.45 30.65 39.05 L30.35 39.1 26.85 39.35 26.75 39.4 M25.45 9.45 Q22.9 7.4 17.45 5.9 M13.25 14.0 L14.3 14.75 Q15.2 15.35 16.55 15.95 L25.95 16.4 26.3 16.5 M17.3 6.45 L16.65 6.25 M13.5 15.95 L12.35 16.0 -6.5 16.8 -16.2 16.95 M12.3 14.0 Q5.55 13.6 -0.95 8.1 L-4.2 5.4 -7.85 11.65 Q-7.8 14.9 -6.5 15.95 M13.5 15.95 L16.55 15.95 M-3.15 33.3 L3.6 33.3 Q5.25 34.2 8.4 35.2 11.05 36.0 12.75 37.2 L12.75 22.2 M20.6 32.95 L16.15 37.7 M20.6 32.95 L20.65 32.9 22.0 30.95 Q22.65 29.65 26.8 23.7 27.4 26.85 30.15 33.3 L30.15 36.2 Q24.9 33.8 21.6 33.4 L21.0 33.3 M2.6 21.7 L2.6 32.8 M-0.25 -27.3 Q-0.25 -40.15 -8.95 -40.15 L-9.0 -40.15 Q-15.75 -40.15 -18.6 -35.8 -20.0 -33.65 -20.55 -30.15 L-20.65 -29.6 Q-21.0 -27.3 -21.0 -24.45 L-20.8 -21.7 Q-20.2 -17.35 -17.8 -11.2 L-16.4 -7.9 Q-13.7 -1.95 -10.9 -0.05 L-4.2 5.4 M-23.1 -31.8 Q-22.6 -34.4 -21.3 -37.0 L-21.25 -37.1 -20.9 -37.85 -20.7 -38.2 M-40.4 -14.55 L-33.6 -14.55 Q-32.65 -4.3 -31.65 -0.45 M-1.25 -17.9 L-1.25 -12.05 M-0.25 -27.3 Q-0.25 -22.1 -1.25 -20.8 L-1.25 -17.9 M-28.85 12.25 Q-25.7 9.65 -24.8 7.7 -23.95 5.9 -23.95 1.7 -23.95 -6.1 -24.9 -8.25 M-24.9 17.85 Q-24.9 25.85 -17.85 27.1 -10.85 28.3 -9.65 30.4 -8.5 32.45 -8.5 35.25 -8.5 38.05 -9.45 40.05 M-27.35 14.0 L-17.65 14.0" fill="none" stroke="#000000" stroke-linecap="round" stroke-linejoin="round" stroke-width="2.0"/>
    <path d="M12.4 -44.65 Q14.5 -42.9 16.2 -39.35 19.5 -33.05 11.8 -23.7 M-29.25 42.95 Q-29.6 37.8 -32.75 24.5 -36.2 9.8 -37.0 4.35 L-40.4 -14.55 M-40.45 -14.6 Q-44.15 -35.7 -43.6 -37.35 -42.9 -39.6 -40.65 -40.85 -38.45 -42.1 -33.15 -43.05 -27.9 -44.0 -25.8 -40.55 L-24.85 -38.7 Q-23.7 -35.95 -23.1 -31.8 L-22.9 -30.45 -22.85 -29.85 -21.75 -21.55 -21.75 -21.5 -21.7 -21.05 -19.9 -10.9 -19.15 -6.8 Q-17.4 3.05 -16.45 13.85 L-16.45 13.9 -16.2 16.95 M10.1 -41.3 Q11.45 -40.05 12.6 -37.65 14.0 -34.2 10.95 -29.25" fill="none" stroke="#000000" stroke-linecap="round" stroke-linejoin="round" stroke-width="2.0"/>
    <path d="M6.45 -43.2 Q5.9 -43.9 6.05 -44.7 6.1 -45.5 6.8 -46.0 7.4 -46.55 8.25 -46.4 13.05 -46.05 16.2 -39.35 19.55 -32.95 11.5 -23.3 10.95 -22.7 10.15 -22.6 9.3 -22.55 8.7 -23.05 8.05 -23.6 7.95 -24.4 7.9 -25.25 8.45 -25.85 14.45 -33.05 12.6 -37.65 10.55 -41.95 7.8 -42.45 6.95 -42.55 6.45 -43.2" fill="#99994d" fill-rule="evenodd" stroke="none"/>
    <path d="M6.45 -43.2 Q6.95 -42.55 7.8 -42.45 10.55 -41.95 12.6 -37.65 14.45 -33.05 8.45 -25.85 7.9 -25.25 7.95 -24.4 8.05 -23.6 8.7 -23.05 9.3 -22.55 10.15 -22.6 10.95 -22.7 11.5 -23.3 19.55 -32.95 16.2 -39.35 13.05 -46.05 8.25 -46.4 7.4 -46.55 6.8 -46.0 6.1 -45.5 6.05 -44.7 5.9 -43.9 6.45 -43.2 Z" fill="none" stroke="#333333" stroke-linecap="round" stroke-linejoin="round" stroke-width="0.05"/>
    <path d="M-40.45 -14.6 Q-44.15 -35.7 -43.6 -37.35 -42.9 -39.6 -40.65 -40.85 -38.45 -42.1 -33.15 -43.05 -27.9 -44.0 -25.8 -40.55 L-24.85 -38.7 Q-23.7 -35.95 -23.1 -31.8 L-22.9 -30.45 -22.85 -29.85 -21.75 -21.55 -21.75 -21.5 -21.7 -21.05 -19.9 -10.9 -19.15 -6.8 Q-17.4 3.05 -16.45 13.85 L-16.45 13.9 -16.2 16.95 -6.5 16.8 12.35 16.0 13.5 15.95 16.55 15.95 25.95 16.4 26.3 16.5 27.3 16.7 Q33.6 18.3 32.6 23.2 L32.6 34.25 33.1 34.3 Q32.85 38.45 30.65 39.05 L30.35 39.1 26.85 39.35 26.75 39.4 25.7 39.55 23.15 39.7 16.65 39.75 16.15 39.75 12.75 39.75 Q4.9 39.75 1.15 40.05 L-9.2 41.25 -9.3 41.25 -13.75 41.8 -29.25 42.95 Q-29.6 37.8 -32.75 24.5 -36.2 9.8 -37.0 4.35 L-40.4 -14.55 -40.45 -14.6 M-33.15 -38.2 L-35.1 -38.45 Q-36.6 -38.25 -37.25 -37.0 -35.55 -35.55 -34.6 -35.55 L-34.05 -35.6 Q-32.25 -29.8 -29.8 -24.2 L-30.0 -18.3 Q-30.0 -10.3 -29.25 -5.1 -28.85 -2.25 -28.25 -0.25 L-27.2 -0.65 -27.1 -5.5 Q-26.3 -13.75 -26.15 -18.05 L-26.15 -21.05 -26.15 -26.55 Q-26.85 -28.35 -27.05 -32.35 -27.25 -35.45 -28.75 -37.0 -29.4 -36.8 -29.85 -36.15 L-30.4 -35.55 Q-30.9 -35.55 -31.6 -36.25 -32.2 -36.9 -32.9 -36.95 L-32.9 -37.15 -33.15 -38.2 M-31.65 -0.45 Q-32.65 -4.3 -33.6 -14.55 L-40.4 -14.55 -33.6 -14.55 Q-32.65 -4.3 -31.65 -0.45 M-24.9 -8.25 Q-23.95 -6.1 -23.95 1.7 -23.95 5.9 -24.8 7.7 -25.7 9.65 -28.85 12.25 -25.7 9.65 -24.8 7.7 -23.95 5.9 -23.95 1.7 -23.95 -6.1 -24.9 -8.25 M21.0 33.3 L21.6 33.4 Q24.9 33.8 30.15 36.2 L30.15 33.3 Q27.4 26.85 26.8 23.7 22.65 29.65 22.0 30.95 L20.65 32.9 20.6 32.95 21.0 33.3 M16.15 37.7 L20.6 32.95 16.15 37.7 M7.8 25.0 Q6.2 22.05 5.5 21.45 4.8 22.0 4.5 23.45 L4.3 24.95 4.3 27.5 Q4.9 29.7 7.9 29.7 9.15 29.7 9.65 29.1 9.35 27.9 7.8 25.0 M2.6 32.8 L2.6 21.7 2.6 32.8 M-9.45 40.05 Q-8.5 38.05 -8.5 35.25 -8.5 32.45 -9.65 30.4 -10.85 28.3 -17.85 27.1 -24.9 25.85 -24.9 17.85 -24.9 25.85 -17.85 27.1 -10.85 28.3 -9.65 30.4 -8.5 32.45 -8.5 35.25 -8.5 38.05 -9.45 40.05 M12.75 22.2 L12.75 37.2 Q11.05 36.0 8.4 35.2 5.25 34.2 3.6 33.3 L-3.15 33.3 3.6 33.3 Q5.25 34.2 8.4 35.2 11.05 36.0 12.75 37.2 L12.75 22.2 M-13.65 39.2 Q-13.1 38.85 -13.5 37.95 -13.85 37.1 -14.6 36.7 L-22.65 36.35 -22.7 36.15 Q-22.4 34.8 -23.15 34.35 L-24.75 28.8 Q-22.05 32.1 -18.65 32.1 -17.7 32.1 -16.95 31.2 -20.75 24.65 -24.2 25.45 -24.35 23.45 -25.75 20.25 -25.9 18.1 -27.35 17.1 L-27.5 17.25 Q-27.65 17.1 -27.75 17.1 -28.5 17.1 -28.8 17.9 -29.05 17.6 -29.25 17.6 L-30.35 17.85 -30.45 20.0 -29.0 30.0 Q-26.95 39.85 -23.7 39.85 L-22.7 39.75 -20.6 39.85 Q-14.55 39.85 -13.65 39.2 M-17.65 14.0 L-27.35 14.0 -17.65 14.0" fill="#8d868d" fill-rule="evenodd" stroke="none"/>
    <path d="M-17.0 -44.55 Q-18.3 -45.65 -19.3 -47.1 -21.55 -50.4 -21.8 -54.3 -22.1 -58.15 -21.05 -61.0 -20.0 -63.9 -17.5 -66.3 -15.4 -68.3 -11.25 -69.9 -9.6 -72.05 -6.65 -72.7 L-6.1 -72.85 Q-4.0 -73.25 -1.95 -72.85 3.75 -71.75 8.4 -64.4 L8.25 -64.3 Q0.25 -65.0 -5.85 -60.4 L-4.4 -56.35 -4.2 -55.75 -4.4 -55.65 -4.15 -55.7 Q-3.1 -52.4 -3.1 -50.9 -3.15 -46.85 -4.4 -45.1 L-4.45 -45.0 Q-5.75 -43.35 -7.95 -42.45 L-9.15 -42.15 Q-11.1 -41.85 -13.65 -42.7 -15.1 -43.2 -16.3 -44.0 L-17.0 -44.55 M-11.25 -69.9 Q-13.15 -67.5 -13.95 -63.85 L-6.85 -54.85 -4.4 -55.65 -6.85 -54.85 -13.95 -63.85 Q-13.15 -67.5 -11.25 -69.9" fill="url(#gradient3)" fill-rule="evenodd" stroke="none"/>
    <path d="M-33.15 -38.2 L-32.9 -37.15 -32.9 -36.95 Q-32.2 -36.9 -31.6 -36.25 -30.9 -35.55 -30.4 -35.55 L-29.85 -36.15 Q-29.4 -36.8 -28.75 -37.0 -27.25 -35.45 -27.05 -32.35 -26.85 -28.35 -26.15 -26.55 L-26.15 -21.05 -26.15 -18.05 Q-26.3 -13.75 -27.1 -5.5 L-27.2 -0.65 -28.25 -0.25 Q-28.85 -2.25 -29.25 -5.1 -30.0 -10.3 -30.0 -18.3 L-29.8 -24.2 Q-32.25 -29.8 -34.05 -35.6 L-34.6 -35.55 Q-35.55 -35.55 -37.25 -37.0 -36.6 -38.25 -35.1 -38.45 L-33.15 -38.2 M-13.65 39.2 Q-14.55 39.85 -20.6 39.85 L-22.7 39.75 -23.7 39.85 Q-26.95 39.85 -29.0 30.0 L-30.45 20.0 -30.35 17.85 -29.25 17.6 Q-29.05 17.6 -28.8 17.9 -28.5 17.1 -27.75 17.1 -27.65 17.1 -27.5 17.25 L-27.35 17.1 Q-25.9 18.1 -25.75 20.25 -24.35 23.45 -24.2 25.45 -20.75 24.65 -16.95 31.2 -17.7 32.1 -18.65 32.1 -22.05 32.1 -24.75 28.8 L-23.15 34.35 Q-22.4 34.8 -22.7 36.15 L-22.65 36.35 -14.6 36.7 Q-13.85 37.1 -13.5 37.95 -13.1 38.85 -13.65 39.2" fill="#6b6761" fill-rule="evenodd" stroke="none"/>
    <path d="M-20.7 -38.2 L-17.0 -44.55 -16.3 -44.0 Q-15.1 -43.2 -13.65 -42.7 -11.1 -41.85 -9.15 -42.15 L-7.95 -42.45 Q-5.75 -43.35 -4.45 -45.0 L-4.3 -44.8 Q-2.45 -43.85 1.1 -44.25 L0.9 -43.95 1.55 -43.65 1.9 -43.55 1.7 -43.0 6.15 -38.9 Q9.7 -36.4 9.15 -31.65 6.65 -34.3 3.1 -34.3 0.4 -34.3 0.25 -27.3 L-0.25 -27.3 Q-0.25 -40.15 -8.95 -40.15 L-9.0 -40.15 Q-15.75 -40.15 -18.6 -35.8 -20.0 -33.65 -20.55 -30.15 L-20.65 -29.6 -22.85 -29.85 -22.9 -30.45 -23.1 -31.8 Q-22.6 -34.4 -21.3 -37.0 L-21.25 -37.1 -20.9 -37.85 -20.7 -38.2 M1.4 -44.3 L1.45 -44.4 1.25 -43.95 1.55 -43.75 1.25 -43.85 1.25 -43.95 1.4 -44.3" fill="#666633" fill-rule="evenodd" stroke="none"/>
    <path d="M-24.85 -38.7 L-22.35 -38.45 -20.7 -38.2 -20.9 -37.85 -21.25 -37.1 -21.3 -37.0 Q-22.6 -34.4 -23.1 -31.8 -23.7 -35.95 -24.85 -38.7 M-22.85 -29.85 L-20.65 -29.6 -20.55 -30.15 Q-20.0 -33.65 -18.6 -35.8 -15.75 -40.15 -9.0 -40.15 L-8.95 -40.15 Q-0.25 -40.15 -0.25 -27.3 -0.25 -22.1 -1.25 -20.8 L-1.25 -17.9 -1.25 -12.05 -1.25 -17.9 -0.75 -17.9 3.2 -14.75 Q5.1 -13.05 5.05 -10.65 L3.2 -8.6 3.1 -8.65 Q0.8 -10.6 -1.45 -11.55 -4.0 -12.65 -6.5 -12.55 -4.0 -12.65 -1.45 -11.55 0.8 -10.6 3.1 -8.65 L3.2 -8.6 6.1 -5.75 10.3 -1.1 11.2 -0.2 11.4 -0.6 Q21.95 3.95 26.8 7.5 L25.45 9.45 Q22.9 7.4 17.45 5.9 L17.3 6.45 Q15.55 11.8 12.55 13.8 L12.3 14.0 Q5.55 13.6 -0.95 8.1 L-4.2 5.4 -0.95 8.1 Q5.55 13.6 12.3 14.0 L12.35 16.0 -6.5 16.8 -6.5 15.95 Q-7.8 14.9 -7.85 11.65 L-4.2 5.4 -10.9 -0.05 Q-13.7 -1.95 -16.4 -7.9 L-17.8 -11.2 Q-20.2 -17.35 -20.8 -21.7 L-21.0 -24.45 Q-21.0 -27.3 -20.65 -29.6 -21.0 -27.3 -21.0 -24.45 L-20.8 -21.7 -21.75 -21.5 -21.75 -21.55 -22.85 -29.85 M-22.4 -37.75 L-22.55 -37.35 -22.4 -37.35 -22.4 -37.75 M16.65 6.25 L17.3 6.45 16.65 6.25 M26.95 7.65 L28.25 8.7 Q30.55 10.75 37.5 15.15 43.25 19.6 43.25 24.55 43.25 29.25 43.05 30.25 42.55 33.15 40.3 34.25 40.05 36.55 41.75 41.0 41.75 43.0 39.9 45.25 38.45 47.0 37.0 47.8 33.7 53.9 34.4 60.35 L34.5 61.35 Q35.1 65.45 40.1 68.25 45.1 71.05 43.25 72.95 L38.05 72.5 27.65 69.65 Q20.95 67.6 20.0 66.2 L20.0 62.8 Q20.4 62.4 21.25 60.05 21.9 58.25 23.2 57.55 L23.4 57.45 23.4 53.1 Q24.45 50.5 25.35 45.8 L26.75 39.4 26.85 39.35 30.35 39.1 30.65 39.05 Q32.85 38.45 33.1 34.3 L32.6 34.25 32.6 23.2 Q33.6 18.3 27.3 16.7 L27.25 16.45 27.7 14.0 Q28.0 11.45 25.45 9.45 L26.95 7.65 M17.45 5.9 L17.6 5.3 Q14.3 2.75 11.2 -0.2 14.3 2.75 17.6 5.3 L17.45 5.9" fill="#444422" fill-rule="evenodd" stroke="none"/>
    <path d="M-0.25 -27.3 L0.25 -27.3 0.25 -26.4 Q0.25 -23.55 3.6 -21.75 6.35 -20.3 9.35 -20.3 L9.4 -20.3 Q9.35 -18.6 7.5 -16.0 L11.8 -7.75 11.8 -1.1 10.3 -1.1 11.2 -0.7 11.25 -0.7 11.4 -0.6 11.2 -0.2 10.3 -1.1 6.1 -5.75 3.2 -8.6 5.05 -10.65 Q5.1 -13.05 3.2 -14.75 L-0.75 -17.9 -1.25 -17.9 -1.25 -20.8 Q-0.25 -22.1 -0.25 -27.3 M-22.4 -37.75 L-22.4 -37.35 -22.55 -37.35 -22.4 -37.75 M26.8 7.5 L26.95 7.65 25.45 9.45 26.8 7.5" fill="#55552b" fill-rule="evenodd" stroke="none"/>
    <path d="M-21.75 -21.5 L-20.8 -21.7 Q-20.2 -17.35 -17.8 -11.2 L-19.9 -10.9 -21.7 -21.05 -21.75 -21.5 M13.5 15.95 L12.35 16.0 12.3 14.0 12.7 14.0 13.25 14.0 14.3 14.75 13.5 15.95" fill="#272714" fill-rule="evenodd" stroke="none"/>
    <path d="M-17.8 -11.2 L-16.4 -7.9 Q-13.7 -1.95 -10.9 -0.05 L-4.2 5.4 -7.85 11.65 Q-7.8 14.9 -6.5 15.95 L-6.5 16.8 -16.2 16.95 -16.45 13.9 -16.45 13.85 Q-17.4 3.05 -19.15 -6.8 L-19.9 -10.9 -17.8 -11.2" fill="#38381d" fill-rule="evenodd" stroke="none"/>
    <path d="M8.4 -64.4 L8.45 -64.3 8.4 -64.3 8.4 -64.4" fill="#767269" fill-rule="evenodd" stroke="none"/>
    <path d="M8.4 -64.3 L8.3 -64.3 8.25 -64.3 8.4 -64.4 8.4 -64.3 M-4.15 -55.7 L-4.4 -55.65 -4.2 -55.75 -4.15 -55.7" fill="url(#gradient4)" fill-rule="evenodd" stroke="none"/>
    <path d="M8.25 -64.3 L8.3 -64.25 Q10.7 -58.35 8.6 -52.05 L8.5 -51.8 6.15 -52.95 6.05 -52.9 5.65 -52.4 Q3.05 -49.3 1.8 -45.5 L1.45 -44.4 1.25 -44.3 1.1 -44.25 Q-2.45 -43.85 -4.3 -44.8 L-4.4 -45.1 Q-3.15 -46.85 -3.1 -50.9 -3.1 -52.4 -4.15 -55.7 L-4.2 -55.75 -4.4 -56.35 -5.85 -60.4 Q0.25 -65.0 8.25 -64.3 M1.1 -44.25 L1.8 -45.5 1.1 -44.25 M6.05 -52.9 L5.95 -52.95 5.65 -52.4 5.95 -52.95 6.05 -52.9" fill="url(#gradient5)" fill-rule="evenodd" stroke="none"/>
    <path d="M1.4 -44.3 L1.25 -44.3 1.45 -44.4 1.4 -44.3" fill="#666666" fill-rule="evenodd" stroke="none"/>
    <path d="M8.5 -51.8 L9.55 -51.3 9.55 -51.15 9.2 -48.7 12.75 -45.15 12.2 -44.35 11.7 -43.6 9.5 -40.7 11.7 -43.6 9.65 -40.65 9.5 -40.7 5.1 -42.4 1.55 -43.75 1.55 -43.65 0.9 -43.95 1.1 -44.25 1.25 -44.3 1.25 -43.95 1.25 -43.85 1.55 -43.75 1.25 -43.95 1.45 -44.4 1.8 -45.5 5.65 -52.4 1.8 -45.5 Q3.05 -49.3 5.65 -52.4 L6.05 -52.9 6.15 -52.95 8.5 -51.8 M6.05 -52.9 L9.55 -51.15 6.05 -52.9" fill="#727138" fill-rule="evenodd" stroke="none"/>
    <path d="M-4.3 -44.8 L-4.45 -45.0 -4.4 -45.1 -4.3 -44.8" fill="#333333" fill-rule="evenodd" stroke="none"/>
    <path d="M11.7 -43.6 L12.2 -44.35 12.25 -44.35 11.7 -43.6" fill="#7b7b7b" fill-rule="evenodd" stroke="none"/>
    <path d="M0.25 -27.3 Q0.4 -34.3 3.1 -34.3 6.65 -34.3 9.15 -31.65 L9.4 -31.4 Q11.8 -28.8 11.8 -25.65 L11.8 -22.25 Q11.45 -20.3 9.4 -20.3 L9.35 -20.3 Q6.35 -20.3 3.6 -21.75 0.25 -23.55 0.25 -26.4 L0.25 -27.3" fill="#7c7c3f" fill-rule="evenodd" stroke="none"/>
    <path d="M12.55 13.8 Q15.55 11.8 17.3 6.45 L17.45 5.9 Q22.9 7.4 25.45 9.45 28.0 11.45 27.7 14.0 L27.25 16.45 26.3 16.5 25.95 16.4 16.55 15.95 13.5 15.95 14.3 14.75 13.25 14.0 12.7 14.0 12.55 13.8 M16.55 15.95 Q15.2 15.35 14.3 14.75 15.2 15.35 16.55 15.95" fill="#434223" fill-rule="evenodd" stroke="none"/>
    <path d="M27.3 16.7 L26.3 16.5 27.25 16.45 27.3 16.7" fill="#33331a" fill-rule="evenodd" stroke="none"/>
    <path d="M20.6 32.95 L20.65 32.9 22.0 30.95 Q22.65 29.65 26.8 23.7 27.4 26.85 30.15 33.3 L30.15 36.2 Q24.9 33.8 21.6 33.4 L21.0 33.3 20.6 32.95 M7.8 25.0 Q9.35 27.9 9.65 29.1 9.15 29.7 7.9 29.7 4.9 29.7 4.3 27.5 L4.3 24.95 4.5 23.45 Q4.8 22.0 5.5 21.45 6.2 22.05 7.8 25.0" fill="#625e59" fill-rule="evenodd" stroke="none"/>
    <path d="M12.3 14.0 L12.55 13.8 12.7 14.0 12.3 14.0" fill="#ffcccc" fill-rule="evenodd" stroke="none"/>
    <path d="M-40.45 -14.6 Q-44.15 -35.7 -43.6 -37.35 -42.9 -39.6 -40.65 -40.85 -38.45 -42.1 -33.15 -43.05 -27.9 -44.0 -25.8 -40.55 L-24.85 -38.7 Q-23.7 -35.95 -23.1 -31.8 L-22.9 -30.45 -22.85 -29.85 -21.75 -21.55 -21.75 -21.5 -21.7 -21.05 -19.9 -10.9 -19.15 -6.8 Q-17.4 3.05 -16.45 13.85 L-16.45 13.9 -16.2 16.95 M-29.25 42.95 Q-29.6 37.8 -32.75 24.5 -36.2 9.8 -37.0 4.35 L-40.4 -14.55" fill="none" stroke="#000000" stroke-linecap="round" stroke-linejoin="round" stroke-width="0.05"/>
    <path d="M-17.0 -44.55 Q-18.3 -45.65 -19.3 -47.1 -21.55 -50.4 -21.8 -54.3 -22.1 -58.15 -21.05 -61.0 -20.0 -63.9 -17.5 -66.3 -15.4 -68.3 -11.25 -69.9 -9.6 -72.05 -6.65 -72.7 L-6.1 -72.85 Q-4.0 -73.25 -1.95 -72.85 3.75 -71.75 8.4 -64.4 M8.25 -64.3 L8.3 -64.25 Q10.7 -58.35 8.6 -52.05 L8.5 -51.8 M9.55 -51.15 L10.05 -50.9 M1.9 -43.55 L1.55 -43.65 0.9 -43.95 1.1 -44.25 1.8 -45.5 5.65 -52.4 5.95 -52.95 6.05 -52.9 9.55 -51.15 9.2 -48.7 12.75 -45.15 12.2 -44.35 M5.1 -42.4 L9.5 -40.7 11.7 -43.6 12.25 -44.35 M5.1 -42.4 L1.9 -43.55" fill="none" stroke="#333333" stroke-linecap="round" stroke-linejoin="round" stroke-width="0.05"/>
    <path d="M-24.85 -38.7 L-22.35 -38.45 -20.7 -38.2 -17.0 -44.55 M-20.7 -38.2 L-20.9 -37.85 -21.25 -37.1 -21.3 -37.0 Q-22.6 -34.4 -23.1 -31.8 M-20.65 -29.6 L-20.55 -30.15 Q-20.0 -33.65 -18.6 -35.8 -15.75 -40.15 -9.0 -40.15 L-8.95 -40.15 Q-0.25 -40.15 -0.25 -27.3 -0.25 -22.1 -1.25 -20.8 L-1.25 -17.9 -1.25 -12.05 M0.25 -27.3 Q0.4 -34.3 3.1 -34.3 6.65 -34.3 9.15 -31.65 9.7 -36.4 6.15 -38.9 L1.7 -43.0 M-20.8 -21.7 L-21.0 -24.45 Q-21.0 -27.3 -20.65 -29.6 M-20.8 -21.7 Q-20.2 -17.35 -17.8 -11.2 L-16.4 -7.9 Q-13.7 -1.95 -10.9 -0.05 L-4.2 5.4 -0.95 8.1 Q5.55 13.6 12.3 14.0 L12.55 13.8 Q15.55 11.8 17.3 6.45 L16.65 6.25 M-40.4 -14.55 L-40.45 -14.6 M-16.2 16.95 L-6.5 16.8 12.35 16.0 13.5 15.95 16.55 15.95 25.95 16.4 26.3 16.5 27.25 16.45 27.7 14.0 Q28.0 11.45 25.45 9.45 22.9 7.4 17.45 5.9 L17.3 6.45 M-6.5 15.95 Q-7.8 14.9 -7.85 11.65 L-4.2 5.4 M-28.85 12.25 Q-25.7 9.65 -24.8 7.7 -23.95 5.9 -23.95 1.7 -23.95 -6.1 -24.9 -8.25 M-40.4 -14.55 L-33.6 -14.55 Q-32.65 -4.3 -31.65 -0.45 M9.4 -20.3 L9.35 -20.3 Q6.35 -20.3 3.6 -21.75 0.25 -23.55 0.25 -26.4 L0.25 -27.3 M9.15 -31.65 L9.4 -31.4 Q11.8 -28.8 11.8 -25.65 L11.8 -22.25 Q11.45 -20.3 9.4 -20.3 9.35 -18.6 7.5 -16.0 L11.8 -7.75 11.8 -1.1 11.8 -1.0 11.2 -0.7 11.25 -0.7 11.4 -0.6 Q21.95 3.95 26.8 7.5 L26.95 7.65 28.25 8.7 Q30.55 10.75 37.5 15.15 43.25 19.6 43.25 24.55 43.25 29.25 43.05 30.25 42.55 33.15 40.3 34.25 40.05 36.55 41.75 41.0 41.75 43.0 39.9 45.25 38.45 47.0 37.0 47.8 33.7 53.9 34.4 60.35 L34.5 61.35 Q35.1 65.45 40.1 68.25 45.1 71.05 43.25 72.95 L38.05 72.5 27.65 69.65 Q20.95 67.6 20.0 66.2 L20.0 62.8 Q20.4 62.4 21.25 60.05 21.9 58.25 23.2 57.55 L23.4 57.45 23.4 53.1 Q24.45 50.5 25.35 45.8 L26.75 39.4 25.7 39.55 23.15 39.7 16.65 39.75 16.15 39.75 12.75 39.75 Q4.9 39.75 1.15 40.05 L-9.2 41.25 -9.3 41.25 -13.75 41.8 -29.25 42.95 M5.05 -10.65 Q5.1 -13.05 3.2 -14.75 L-0.75 -17.9 M3.2 -8.6 L3.1 -8.65 Q0.8 -10.6 -1.45 -11.55 -4.0 -12.65 -6.5 -12.55 M10.3 -1.1 L11.2 -0.7 M10.3 -1.1 L11.2 -0.2 Q14.3 2.75 17.6 5.3 L17.45 5.9 M10.3 -1.1 L6.1 -5.75 3.2 -8.6 M26.75 39.4 L26.85 39.35 30.35 39.1 30.65 39.05 Q32.85 38.45 33.1 34.3 L32.6 34.25 32.6 23.2 Q33.6 18.3 27.3 16.7 L26.3 16.5 M20.6 32.95 L20.65 32.9 22.0 30.95 Q22.65 29.65 26.8 23.7 27.4 26.85 30.15 33.3 L30.15 36.2 Q24.9 33.8 21.6 33.4 L21.0 33.3 M20.6 32.95 L16.15 37.7 M12.3 14.0 L12.7 14.0 M13.25 14.0 L14.3 14.75 Q15.2 15.35 16.55 15.95 M-3.15 33.3 L3.6 33.3 Q5.25 34.2 8.4 35.2 11.05 36.0 12.75 37.2 L12.75 22.2 M-24.9 17.85 Q-24.9 25.85 -17.85 27.1 -10.85 28.3 -9.65 30.4 -8.5 32.45 -8.5 35.25 -8.5 38.05 -9.45 40.05 M2.6 21.7 L2.6 32.8 M-27.35 14.0 L-17.65 14.0" fill="none" stroke="#000000" stroke-linecap="round" stroke-linejoin="round" stroke-width="0.05"/>
    <path d="M-4.4 -55.65 L-6.85 -54.85 -13.95 -63.85 Q-13.15 -67.5 -11.25 -69.9" fill="none" stroke="#515151" stroke-linecap="round" stroke-linejoin="round" stroke-width="0.05"/>
  </g>
  <defs>
    <radialGradient cx="0" cy="0" gradientTransform="matrix(0.0349, 0.0, 0.0, 0.0461, -1.9, -56.4)" gradientUnits="userSpaceOnUse" id="gradient0" r="819.2" spreadMethod="pad">
      <stop offset="0.3843137254901961" stop-color="#888844"/>
      <stop offset="0.7098039215686275" stop-color="#505027"/>
    </radialGradient>
    <radialGradient cx="0" cy="0" gradientTransform="matrix(0.0349, 0.0, 0.0, 0.0461, -1.9, -56.4)" gradientUnits="userSpaceOnUse" id="gradient1" r="819.2" spreadMethod="pad">
      <stop offset="0.3843137254901961" stop-color="#99994d"/>
      <stop offset="0.7098039215686275" stop-color="#666633"/>
    </radialGradient>
    <radialGradient cx="0" cy="0" gradientTransform="matrix(0.0213, 0.0, 0.0, 0.0268, -8.1, -55.8)" gradientUnits="userSpaceOnUse" id="gradient2" r="819.2" spreadMethod="pad">
      <stop offset="0.6196078431372549" stop-color="#333333"/>
      <stop offset="0.8666666666666667" stop-color="#b3b3b3"/>
    </radialGradient>
    <radialGradient cx="0" cy="0" gradientTransform="matrix(0.0349, 0.0, 0.0, 0.0461, -1.9, -56.4)" gradientUnits="userSpaceOnUse" id="gradient3" r="819.2" spreadMethod="pad">
      <stop offset="0.3843137254901961" stop-color="#99994d"/>
      <stop offset="0.7098039215686275" stop-color="#666633"/>
    </radialGradient>
    <radialGradient cx="0" cy="0" gradientTransform="matrix(0.0349, 0.0, 0.0, 0.0461, -1.9, -56.4)" gradientUnits="userSpaceOnUse" id="gradient4" r="819.2" spreadMethod="pad">
      <stop offset="0.3843137254901961" stop-color="#888844"/>
      <stop offset="0.7098039215686275" stop-color="#505027"/>
    </radialGradient>
    <radialGradient cx="0" cy="0" gradientTransform="matrix(0.0213, 0.0, 0.0, 0.0268, -8.1, -55.8)" gradientUnits="userSpaceOnUse" id="gradient5" r="819.2" spreadMethod="pad">
      <stop offset="0.6196078431372549" stop-color="#333333"/>
      <stop offset="0.8666666666666667" stop-color="#b3b3b3"/>
    </radialGradient>
  </defs>
</svg>
