<?xml version="1.0" encoding="UTF-8" standalone="no"?>
<svg xmlns:ffdec="https://www.free-decompiler.com/flash" xmlns:xlink="http://www.w3.org/1999/xlink" ffdec:objectType="shape" height="127.45px" width="56.75px" xmlns="http://www.w3.org/2000/svg">
  <g transform="matrix(1.0, 0.0, 0.0, 1.0, 27.2, 57.05)">
    <path d="M2.2 -50.05 L2.25 -50.1 2.25 -50.15 2.35 -50.05 2.2 -50.05 6.15 -47.5 1.0 -46.0 0.75 -46.05 Q1.25 -47.9 2.2 -50.05 M5.25 -37.5 L1.55 -33.7 5.5 -34.2 3.55 -31.15 6.5 -31.0 3.7 -28.0 2.6 -30.25 Q1.95 -31.85 1.45 -33.65 L0.45 -37.8 5.25 -37.5 M4.5 -42.35 L0.1 -40.4 0.1 -40.8 Q0.05 -42.85 0.55 -45.2 L4.5 -42.35" fill="#ffffff" fill-rule="evenodd" stroke="none"/>
    <path d="M2.2 -50.05 L6.15 -47.5 1.0 -46.0 0.75 -46.05 Q1.25 -47.9 2.2 -50.05 M5.25 -37.5 L1.55 -33.7 5.5 -34.2 3.55 -31.15 6.5 -31.0 3.7 -28.0 2.6 -30.25 Q1.95 -31.85 1.45 -33.65 L0.45 -37.8 5.25 -37.5 M4.5 -42.35 L0.1 -40.4 0.1 -40.8 Q0.05 -42.85 0.55 -45.2 L4.5 -42.35 Z" fill="none" stroke="#000000" stroke-linecap="round" stroke-linejoin="round" stroke-width="2.5"/>
    <path d="M-15.45 -54.15 Q-15.0 -55.35 -14.1 -55.95 L-13.45 -56.15 Q-12.3 -56.4 -9.55 -55.35 -6.8 -54.35 -3.85 -52.2 -1.6 -50.55 1.2 -50.25 L2.25 -50.1 2.25 -50.15 2.35 -50.05 2.2 -50.05 6.15 -47.5 1.0 -46.0 0.75 -46.05 0.75 -46.0 0.55 -45.2 4.5 -42.35 0.1 -40.4 0.3 -38.8 0.45 -37.8 5.25 -37.5 1.55 -33.7 5.5 -34.2 3.55 -31.15 6.5 -31.0 3.7 -28.0 4.45 -26.8 Q5.2 -25.45 6.85 -23.95 L7.15 -23.7 6.9 -23.65 6.3 -23.35 6.3 -23.3 6.35 -23.35 7.4 -23.7 7.45 -23.65 8.75 -23.3 Q9.15 -22.8 9.05 -21.55 L10.55 -20.9 11.45 -20.55 20.4 -20.45 20.4 -19.1 21.75 -21.5 21.8 -16.4 21.95 -11.3 22.3 -2.6 22.3 -1.65 21.35 -2.55 17.5 -9.5 16.65 -10.95 15.0 -13.65 14.85 -13.85 15.0 -13.65 15.0 -13.6 14.85 -13.85 14.0 -15.2 Q11.15 -18.0 8.65 -19.0 6.2 -20.0 4.8 -21.0 L1.95 -23.0 Q0.5 -24.0 -1.25 -26.45 -3.0 -28.9 -3.95 -30.8 L-7.6 -37.1 Q-10.3 -41.5 -12.5 -46.85 L-14.75 -52.3 -14.95 -52.75 -15.1 -53.25 -15.25 -53.6 -15.25 -53.7 -15.35 -53.8 -15.4 -53.95 -15.45 -54.15 M7.15 -23.8 L7.15 -23.85 7.25 -23.75 7.2 -23.8 7.15 -23.8 M20.85 14.25 Q19.9 23.3 18.35 30.45 L16.65 37.7 16.4 38.7 17.4 38.95 19.35 42.85 20.4 45.85 21.1 48.4 Q21.45 49.8 19.45 50.05 L18.25 50.25 12.95 50.7 12.5 52.05 Q10.75 57.5 9.8 62.35 L9.75 62.55 9.45 64.3 9.15 65.9 9.0 65.85 Q8.9 62.45 9.55 57.7 10.15 52.95 10.8 49.75 L13.6 35.45 Q16.0 22.95 15.9 12.8 L19.6 13.9 20.85 14.25 M3.7 -28.0 L2.6 -30.25 Q1.95 -31.85 1.45 -33.65 L0.45 -37.8 1.45 -33.65 Q1.95 -31.85 2.6 -30.25 L3.7 -28.0 M0.1 -40.4 L0.1 -40.8 Q0.05 -42.85 0.55 -45.2 0.05 -42.85 0.1 -40.8 L0.1 -40.4 M0.75 -46.05 Q1.25 -47.9 2.2 -50.05 L2.25 -50.1 2.2 -50.05 Q1.25 -47.9 0.75 -46.05" fill="#ffffff" fill-rule="evenodd" stroke="none"/>
    <path d="M22.35 -0.7 L24.0 2.55 27.95 11.45 Q29.9 17.2 26.8 16.2 L24.35 15.3 20.85 14.25 19.6 13.9 15.9 12.8 Q16.0 22.95 13.6 35.45 L10.8 49.75 Q10.15 52.95 9.55 57.7 8.9 62.45 9.0 65.85 L8.9 69.25 8.8 68.4 8.7 69.55 0.7 69.55 0.7 67.7 Q0.4 63.5 -0.7 58.9 -1.5 58.3 -2.9 57.8 L-6.5 57.7 -7.35 57.75 -12.25 57.9 Q-14.25 57.85 -14.6 56.1 -14.95 54.35 -13.15 52.0 L-10.05 48.05 Q-5.85 43.65 -5.05 39.3 L-5.7 35.2 -6.5 28.3 -7.4 28.0 Q-12.9 26.15 -18.65 26.35 -24.4 26.55 -25.5 25.65 -26.7 24.75 -26.2 23.0 -25.75 21.2 -23.7 18.3 -21.65 15.4 -17.85 11.8 -14.1 8.15 -12.0 5.4 L-8.3 -0.3 -8.1 -0.4 -7.65 -11.25 -7.5 -14.55 Q-7.45 -15.45 -8.05 -18.2 -8.65 -20.95 -8.9 -21.35 L-9.05 -21.85 -11.0 -27.25 -11.4 -28.2 -11.3 -27.9 Q-12.65 -31.25 -13.05 -33.6 L-13.65 -37.4 -14.8 -42.5 Q-15.55 -45.8 -15.85 -50.2 L-15.85 -51.8 -15.85 -52.25 -15.85 -52.3 -15.8 -52.4 -15.75 -53.0 -15.65 -53.4 -15.6 -53.7 -15.55 -53.85 -15.5 -54.0 -15.45 -54.15 -15.4 -53.95 -15.35 -53.8 -15.25 -53.7 -15.25 -53.6 -15.1 -53.25 -14.95 -52.75 -14.75 -52.3 -12.5 -46.85 Q-10.3 -41.5 -7.6 -37.1 L-3.95 -30.8 Q-3.0 -28.9 -1.25 -26.45 0.5 -24.0 1.95 -23.0 L4.8 -21.0 Q6.2 -20.0 8.65 -19.0 11.15 -18.0 14.0 -15.2 L14.85 -13.85 15.0 -13.6 15.0 -13.65 16.65 -10.95 17.5 -9.5 21.35 -2.55 22.35 -0.7 M12.85 11.8 L15.9 12.8 12.85 11.8 M-11.9 -38.7 L-11.45 -37.2 -10.35 -36.1 Q-9.75 -35.7 -9.35 -35.9 -8.95 -36.15 -8.95 -36.9 -8.9 -37.65 -9.35 -38.4 L-10.45 -39.55 -11.5 -39.65 Q-11.9 -39.45 -11.9 -38.7 M-12.35 -41.75 L-11.55 -35.45 -12.35 -41.75 M-1.05 57.9 L-0.95 58.0 -1.0 57.8 -1.05 57.9" fill="#948e8e" fill-rule="evenodd" stroke="none"/>
    <path d="M-11.9 -38.7 Q-11.9 -39.45 -11.5 -39.65 L-10.45 -39.55 -9.35 -38.4 Q-8.9 -37.65 -8.95 -36.9 -8.95 -36.15 -9.35 -35.9 -9.75 -35.7 -10.35 -36.1 L-11.45 -37.2 -11.9 -38.7" fill="#333333" fill-rule="evenodd" stroke="none"/>
    <path d="M16.65 37.7 L17.4 38.95 M14.0 -15.2 L14.85 -13.85 15.0 -13.65 16.65 -10.95 17.5 -9.5 21.35 -2.55 22.35 -0.7 M15.9 12.8 L12.85 11.8 M15.9 12.8 L19.6 13.9 20.85 14.25 M-1.05 57.9 L-1.0 57.8" fill="none" stroke="#000000" stroke-linecap="round" stroke-linejoin="round" stroke-width="0.05"/>
    <path d="M-15.45 -54.15 Q-15.0 -55.35 -14.1 -55.95 L-13.45 -56.15 Q-12.3 -56.4 -9.55 -55.35 -6.8 -54.35 -3.85 -52.2 -1.6 -50.55 1.2 -50.25 L2.25 -50.1 2.2 -50.05 Q1.25 -47.9 0.75 -46.05 L0.75 -46.0 0.55 -45.2 Q0.05 -42.85 0.1 -40.8 L0.1 -40.4 0.3 -38.8 0.45 -37.8 1.45 -33.65 Q1.95 -31.85 2.6 -30.25 L3.7 -28.0 4.45 -26.8 Q5.2 -25.45 6.85 -23.95 M2.35 -50.05 L2.2 -50.05 M7.15 -23.7 L7.15 -23.8 7.15 -23.85 7.25 -23.75 7.4 -23.7 7.45 -23.65 8.75 -23.3 M21.75 -21.5 L21.8 -16.4 21.95 -11.3 22.3 -2.6 22.3 -1.65 M22.35 -0.7 L24.0 2.55 27.95 11.45 Q29.9 17.2 26.8 16.2 L24.35 15.3 20.85 14.25 Q19.9 23.3 18.35 30.45 L16.65 37.7 M17.4 38.95 L19.35 42.85 20.4 45.85 21.1 48.4 Q21.45 49.8 19.45 50.05 L18.25 50.25 12.95 50.7 12.5 52.05 Q10.75 57.5 9.8 62.35 L9.75 62.55 9.45 64.3 9.15 65.9 8.9 69.25 M0.7 69.55 L0.7 67.7 Q0.4 63.5 -0.7 58.9 -1.5 58.3 -2.9 57.8 L-6.5 57.7 -7.35 57.75 -12.25 57.9 Q-14.25 57.85 -14.6 56.1 -14.95 54.35 -13.15 52.0 L-10.05 48.05 Q-5.85 43.65 -5.05 39.3 L-5.7 35.2 -6.5 28.3 -7.4 28.0 Q-12.9 26.15 -18.65 26.35 -24.4 26.55 -25.5 25.65 -26.7 24.75 -26.2 23.0 -25.75 21.2 -23.7 18.3 -21.65 15.4 -17.85 11.8 -14.1 8.15 -12.0 5.4 L-8.3 -0.3 M-8.1 -0.4 L-7.65 -11.25 -7.5 -14.55 Q-7.45 -15.45 -8.05 -18.2 -8.65 -20.95 -8.9 -21.35 L-9.05 -21.85 -11.0 -27.25 -11.4 -28.2 -11.3 -27.9 Q-12.65 -31.25 -13.05 -33.6 L-13.65 -37.4 -14.8 -42.5 Q-15.55 -45.8 -15.85 -50.2 L-15.85 -51.8 -15.85 -52.25 -15.85 -52.3 -15.8 -52.4 -15.75 -53.0 -15.65 -53.4 -15.6 -53.7 -15.55 -53.85 -15.5 -54.0 -15.45 -54.15 M-11.55 -35.45 L-12.35 -41.75" fill="none" stroke="#000000" stroke-linecap="round" stroke-linejoin="round" stroke-width="1.7000000000000002"/>
    <path d="M22.3 -1.65 L22.35 -0.7 M8.9 69.25 L8.8 68.4 8.7 69.55" fill="none" stroke="#000000" stroke-linecap="round" stroke-linejoin="round" stroke-width="0.05"/>
  </g>
</svg>
