<?xml version="1.0" encoding="UTF-8" standalone="no"?>
<svg xmlns:ffdec="https://www.free-decompiler.com/flash" xmlns:xlink="http://www.w3.org/1999/xlink" ffdec:objectType="shape" height="114.55px" width="56.75px" xmlns="http://www.w3.org/2000/svg">
  <g transform="matrix(1.0, 0.0, 0.0, 1.0, 27.2, 54.05)">
    <path d="M2.2 -47.05 L2.25 -47.1 2.25 -47.15 2.35 -47.05 2.2 -47.05 6.15 -44.5 1.0 -43.0 0.75 -43.05 Q1.25 -44.9 2.2 -47.05 M0.1 -37.8 Q0.05 -39.85 0.55 -42.2 L4.5 -39.35 0.1 -37.4 0.1 -37.8 M2.6 -27.25 Q1.95 -28.85 1.45 -30.65 L0.45 -34.8 5.25 -34.5 1.55 -30.7 5.5 -31.2 3.55 -28.15 6.5 -28.0 3.7 -25.0 2.6 -27.25" fill="#ffffff" fill-rule="evenodd" stroke="none"/>
    <path d="M2.2 -47.05 L6.15 -44.5 1.0 -43.0 0.75 -43.05 Q1.25 -44.9 2.2 -47.05 M0.1 -37.8 Q0.05 -39.85 0.55 -42.2 L4.5 -39.35 0.1 -37.4 0.1 -37.8 M2.6 -27.25 Q1.95 -28.85 1.45 -30.65 L0.45 -34.8 5.25 -34.5 1.55 -30.7 5.5 -31.2 3.55 -28.15 6.5 -28.0 3.7 -25.0 2.6 -27.25 Z" fill="none" stroke="#000000" stroke-linecap="round" stroke-linejoin="round" stroke-width="2.5"/>
    <path d="M2.25 -47.1 L2.2 -47.05 Q1.25 -44.9 0.75 -43.05 1.25 -44.9 2.2 -47.05 L2.25 -47.1 2.25 -47.15 2.35 -47.05 2.2 -47.05 6.15 -44.5 1.0 -43.0 0.75 -43.05 0.75 -43.0 0.55 -42.2 4.5 -39.35 0.1 -37.4 0.3 -35.8 0.45 -34.8 1.45 -30.65 Q1.95 -28.85 2.6 -27.25 L3.7 -25.0 2.6 -27.25 Q1.95 -28.85 1.45 -30.65 L0.45 -34.8 5.25 -34.5 1.55 -30.7 5.5 -31.2 3.55 -28.15 6.5 -28.0 3.7 -25.0 4.45 -23.8 Q5.2 -22.45 6.85 -20.95 L7.15 -20.7 6.9 -20.65 6.55 -20.45 6.65 -20.45 7.4 -20.7 7.45 -20.65 7.9 -20.45 21.2 -20.6 21.2 -17.15 21.55 -17.15 22.0 -18.05 22.0 -15.65 22.05 -12.4 22.3 -5.1 22.3 -4.2 21.35 -5.05 17.5 -11.25 16.65 -12.6 15.05 -14.95 Q13.05 -15.95 10.8 -16.45 L5.8 -17.8 Q3.05 -18.65 0.0 -22.0 -5.65 -29.55 -8.05 -34.15 -10.45 -38.55 -14.7 -49.2 L-14.75 -49.3 -14.95 -49.75 -15.1 -50.25 -15.25 -50.6 -15.25 -50.7 -15.35 -50.8 -15.4 -50.95 -15.45 -51.15 Q-15.0 -52.35 -14.1 -52.95 L-13.45 -53.15 Q-12.3 -53.4 -9.55 -52.35 -6.8 -51.35 -3.85 -49.2 -1.6 -47.55 1.2 -47.25 L2.25 -47.1 M0.55 -42.2 Q0.05 -39.85 0.1 -37.8 L0.1 -37.4 0.1 -37.8 Q0.05 -39.85 0.55 -42.2 M7.25 -20.75 L7.2 -20.8 7.15 -20.8 7.15 -20.85 7.25 -20.75 M15.9 8.75 L19.6 9.75 20.85 10.05 Q19.9 18.15 18.35 24.6 L16.65 31.1 19.35 35.7 20.4 38.4 21.1 40.7 Q21.45 41.95 19.45 42.15 L18.25 42.35 12.95 42.75 12.5 44.0 Q10.75 48.85 9.8 53.25 L9.75 53.4 9.45 55.0 9.15 56.4 9.0 56.35 Q8.9 53.3 9.55 49.05 10.15 44.75 10.8 41.9 L13.6 29.1 Q16.0 17.85 15.9 8.75 M16.65 31.1 L16.4 32.0 16.65 31.1" fill="#ffffff" fill-rule="evenodd" stroke="none"/>
    <path d="M-15.45 -51.15 L-15.4 -50.95 -15.35 -50.8 -15.25 -50.7 -15.25 -50.6 -15.1 -50.25 -14.95 -49.75 -14.75 -49.3 -14.7 -49.2 Q-10.45 -38.55 -8.05 -34.15 -5.65 -29.55 0.0 -22.0 3.05 -18.65 5.8 -17.8 L10.8 -16.45 Q13.05 -15.95 15.05 -14.95 L16.65 -12.6 17.5 -11.25 21.35 -5.05 22.35 -3.35 24.0 -0.45 27.95 7.55 Q29.9 12.7 26.8 11.8 L24.35 10.95 20.85 10.05 19.6 9.75 15.9 8.75 Q16.0 17.85 13.6 29.1 L10.8 41.9 Q10.15 44.75 9.55 49.05 8.9 53.3 9.0 56.35 L8.9 59.4 8.8 58.65 8.7 59.65 0.7 59.65 0.7 58.0 Q0.4 54.25 -0.7 50.1 -1.5 49.55 -2.9 49.15 L-6.5 49.05 -7.35 49.05 -12.25 49.2 Q-14.25 49.2 -14.6 47.6 -14.95 46.0 -13.15 43.95 L-10.05 40.35 Q-5.85 36.4 -5.05 32.5 L-5.7 28.85 -6.5 22.65 -7.4 22.4 Q-12.9 20.7 -18.65 20.9 -24.4 21.1 -25.5 20.3 -26.7 19.45 -26.2 17.9 -25.75 16.3 -23.7 13.7 -21.65 11.05 -17.85 7.85 -14.1 4.6 -12.0 2.1 -9.95 -0.4 -8.3 -3.0 L-8.1 -3.1 -7.65 -12.85 -7.5 -15.8 -7.5 -16.0 -7.5 -16.15 -7.05 -15.2 -7.5 -16.2 -7.55 -16.75 -7.5 -16.25 -11.4 -25.2 -11.3 -24.9 Q-12.65 -28.25 -13.05 -30.6 L-13.65 -34.4 -14.8 -39.5 Q-15.55 -42.8 -15.85 -47.2 L-15.85 -48.8 -15.85 -49.25 -15.85 -49.3 -15.8 -49.4 -15.75 -50.0 -15.65 -50.4 -15.6 -50.7 -15.55 -50.85 -15.5 -51.0 -15.45 -51.15 M12.85 7.85 L15.9 8.75 12.85 7.85 M-11.45 -34.2 L-10.35 -33.1 Q-9.75 -32.7 -9.35 -32.9 -8.95 -33.15 -8.95 -33.9 -8.9 -34.65 -9.35 -35.4 L-10.45 -36.55 -11.5 -36.65 Q-11.9 -36.45 -11.9 -35.7 L-11.45 -34.2 M-12.35 -38.75 L-11.55 -32.45 -12.35 -38.75 M-9.05 -18.85 L-9.95 -21.35 -7.5 -16.2 -7.5 -16.0 -8.9 -18.35 -9.05 -18.85 M-1.05 49.2 L-0.95 49.3 -1.0 49.15 -1.05 49.2" fill="#948e8e" fill-rule="evenodd" stroke="none"/>
    <path d="M-11.45 -34.2 L-11.9 -35.7 Q-11.9 -36.45 -11.5 -36.65 L-10.45 -36.55 -9.35 -35.4 Q-8.9 -34.65 -8.95 -33.9 -8.95 -33.15 -9.35 -32.9 -9.75 -32.7 -10.35 -33.1 L-11.45 -34.2" fill="#333333" fill-rule="evenodd" stroke="none"/>
    <path d="M15.05 -14.95 L16.65 -12.6 17.5 -11.25 21.35 -5.05 22.35 -3.35 M15.9 8.75 L12.85 7.85 M20.85 10.05 L19.6 9.75 15.9 8.75 M-1.05 49.2 L-1.0 49.15" fill="none" stroke="#000000" stroke-linecap="round" stroke-linejoin="round" stroke-width="0.05"/>
    <path d="M0.75 -43.05 Q1.25 -44.9 2.2 -47.05 L2.25 -47.1 1.2 -47.25 Q-1.6 -47.55 -3.85 -49.2 -6.8 -51.35 -9.55 -52.35 -12.3 -53.4 -13.45 -53.15 L-14.1 -52.95 Q-15.0 -52.35 -15.45 -51.15 L-15.5 -51.0 -15.55 -50.85 -15.6 -50.7 -15.65 -50.4 -15.75 -50.0 -15.8 -49.4 -15.85 -49.3 -15.85 -49.25 -15.85 -48.8 -15.85 -47.2 Q-15.55 -42.8 -14.8 -39.5 L-13.65 -34.4 -13.05 -30.6 Q-12.65 -28.25 -11.3 -24.9 L-11.4 -25.2 -7.5 -16.25 -7.5 -16.2 -7.5 -16.15 -7.5 -16.0 -7.5 -15.8 -7.65 -12.85 -8.1 -3.1 M22.3 -4.2 L22.3 -5.1 22.05 -12.4 22.0 -15.65 22.0 -18.05 21.85 -21.45 M7.9 -20.45 L7.45 -20.65 7.4 -20.7 7.25 -20.75 7.15 -20.85 7.15 -20.8 7.15 -20.7 M6.85 -20.95 Q5.2 -22.45 4.45 -23.8 L3.7 -25.0 2.6 -27.25 Q1.95 -28.85 1.45 -30.65 L0.45 -34.8 0.3 -35.8 0.1 -37.4 0.1 -37.8 Q0.05 -39.85 0.55 -42.2 L0.75 -43.0 0.75 -43.05 M2.2 -47.05 L2.35 -47.05 M20.85 10.05 L24.35 10.95 26.8 11.8 Q29.9 12.7 27.95 7.55 L24.0 -0.45 22.35 -3.35 M9.15 56.4 L9.45 55.0 9.75 53.4 9.8 53.25 Q10.75 48.85 12.5 44.0 L12.95 42.75 18.25 42.35 19.45 42.15 Q21.45 41.95 21.1 40.7 L20.4 38.4 19.35 35.7 16.65 31.1 18.35 24.6 Q19.9 18.15 20.85 10.05 M-8.3 -3.0 Q-9.95 -0.4 -12.0 2.1 -14.1 4.6 -17.85 7.85 -21.65 11.05 -23.7 13.7 -25.75 16.3 -26.2 17.9 -26.7 19.45 -25.5 20.3 -24.4 21.1 -18.65 20.9 -12.9 20.7 -7.4 22.4 L-6.5 22.65 -5.7 28.85 -5.05 32.5 Q-5.85 36.4 -10.05 40.35 L-13.15 43.95 Q-14.95 46.0 -14.6 47.6 -14.25 49.2 -12.25 49.2 L-7.35 49.05 -6.5 49.05 -2.9 49.15 Q-1.5 49.55 -0.7 50.1 0.4 54.25 0.7 58.0 L0.7 59.65 M8.9 59.4 L9.15 56.4 M-11.55 -32.45 L-12.35 -38.75" fill="none" stroke="#000000" stroke-linecap="round" stroke-linejoin="round" stroke-width="1.7000000000000002"/>
    <path d="M22.35 -3.35 L22.3 -4.2 M8.7 59.65 L8.8 58.65 8.9 59.4" fill="none" stroke="#000000" stroke-linecap="round" stroke-linejoin="round" stroke-width="0.05"/>
  </g>
</svg>
