<?xml version="1.0" encoding="UTF-8" standalone="no"?>
<svg xmlns:ffdec="https://www.free-decompiler.com/flash" xmlns:xlink="http://www.w3.org/1999/xlink" ffdec:objectType="shape" height="57.6px" width="83.0px" xmlns="http://www.w3.org/2000/svg">
  <g transform="matrix(1.0, 0.0, 0.0, 1.0, 41.5, 39.0)">
    <path d="M3.35 -2.8 L-22.55 18.6 -5.55 -2.9 Q-19.2 -3.65 -29.35 -8.1 -41.5 -13.4 -41.5 -20.9 -41.5 -28.45 -29.35 -33.75 -17.2 -39.05 0.0 -39.0 17.2 -39.05 29.35 -33.75 41.5 -28.45 41.5 -20.9 41.5 -13.4 29.35 -8.1 18.4 -3.3 3.35 -2.8 M9.35 -13.6 L9.5 -13.7 9.1 -13.9 9.35 -13.6 M-27.8 -15.3 L-28.1 -15.25 -27.65 -14.85 -27.8 -15.3" fill="#ffffff" fill-rule="evenodd" stroke="none"/>
    <path d="M3.35 -2.8 L-22.55 18.6 -5.55 -2.9 Q-19.2 -3.65 -29.35 -8.1 -41.5 -13.4 -41.5 -20.9 -41.5 -28.45 -29.35 -33.75 -17.2 -39.05 0.0 -39.0 17.2 -39.05 29.35 -33.75 41.5 -28.45 41.5 -20.9 41.5 -13.4 29.35 -8.1 18.4 -3.3 3.35 -2.8 Z" fill="none" stroke="#000000" stroke-linecap="round" stroke-linejoin="round" stroke-width="0.05"/>
  </g>
</svg>
