<?xml version="1.0" encoding="UTF-8" standalone="no"?>
<svg xmlns:ffdec="https://www.free-decompiler.com/flash" xmlns:xlink="http://www.w3.org/1999/xlink" ffdec:objectType="shape" height="16.55px" width="62.65px" xmlns="http://www.w3.org/2000/svg">
  <g transform="matrix(1.0, 0.0, 0.0, 1.0, 31.3, 8.25)">
    <path d="M-20.8 -7.45 Q-20.25 -6.9 -20.2 -6.4 L-20.2 -6.35 -20.7 -5.9 -21.35 -5.3 -22.15 -5.65 -22.95 -6.0 -23.3 -5.4 -23.6 -4.75 -23.7 -4.75 Q-23.9 -4.75 -24.1 -5.0 L-24.4 -5.5 -25.7 -5.45 Q-26.75 -5.3 -26.75 -5.0 L-26.6 -4.1 -26.45 -3.2 -26.4 -3.2 -25.95 -3.2 -22.8 -3.2 Q-22.1 -3.2 -21.85 -2.8 L-21.65 -1.7 Q-21.65 -1.4 -22.2 -0.85 L-22.8 -0.9 -23.35 -1.1 -26.0 -0.85 -26.15 -1.3 -26.5 -0.1 -26.75 1.15 Q-26.75 1.65 -25.65 1.65 L-24.6 1.55 -23.55 1.45 -23.0 1.55 -22.7 1.25 Q-21.2 1.45 -20.8 1.8 -20.35 2.2 -20.35 3.55 -20.35 4.4 -20.65 5.1 L-21.9 4.15 Q-21.95 4.45 -22.65 4.45 L-23.05 4.45 -23.45 4.4 -24.2 4.6 -24.35 4.7 -24.6 4.75 -25.7 4.75 -25.9 4.7 -26.65 4.9 -26.85 5.6 -27.75 5.05 -28.1 4.55 -29.2 5.35 Q-29.6 5.4 -29.6 5.05 L-29.6 -0.7 -31.05 -0.6 -29.35 -1.25 -29.9 -2.0 -29.65 -2.25 -29.55 -3.75 -29.7 -5.65 -29.45 -5.8 -29.6 -7.3 -29.55 -7.35 -31.3 -7.95 -30.3 -8.0 -29.3 -8.0 -28.05 -7.9 -26.75 -7.75 -26.25 -7.6 -25.8 -7.45 -23.5 -7.75 -22.1 -7.65 -20.8 -7.45 M-30.5 3.5 L-30.25 2.65 Q-29.65 3.0 -29.65 3.45 L-29.75 4.05 -29.85 4.6 Q-29.95 5.25 -30.3 5.25 -30.6 5.25 -30.6 4.45 L-30.5 3.5 M-28.05 5.35 Q-27.6 5.65 -27.6 6.55 L-27.65 6.75 -27.75 6.75 -27.95 6.8 -28.1 6.85 -28.4 6.65 -28.2 6.25 -28.2 6.15 -28.15 5.75 -28.05 5.35 M-25.8 7.35 L-25.9 6.75 -25.75 6.7 -25.7 6.05 Q-25.25 6.3 -25.25 7.35 -25.25 7.7 -25.5 7.85 L-25.8 7.35 M-15.2 -2.25 L-14.5 -2.55 -14.3 -2.0 -14.3 -1.85 -14.25 -2.05 -14.05 -1.85 -14.35 -1.75 -14.3 -1.75 -14.6 -1.3 -14.6 -1.2 Q-14.95 -1.25 -15.15 -1.4 L-15.2 -2.25 M-18.25 -0.6 L-17.65 -0.75 -17.05 0.15 Q-16.65 0.65 -16.65 1.1 L-16.75 1.45 -16.9 1.4 -16.5 1.65 Q-16.3 1.85 -16.35 2.1 L-15.35 2.15 -13.9 1.5 -13.95 -0.35 -13.55 -0.35 Q-14.0 -0.75 -14.0 -1.5 L-13.65 -2.4 -13.25 -3.4 -13.35 -3.55 -13.9 -5.85 -13.65 -6.85 -13.45 -7.75 -12.3 -8.1 -12.2 -8.1 -11.5 -7.55 Q-11.0 -7.2 -10.7 -7.25 L-10.55 -6.65 -10.6 -6.15 -10.7 -5.65 -10.65 -5.3 -10.65 -4.95 Q-10.65 -4.75 -10.8 -4.5 L-10.95 -4.15 -11.25 -3.8 -11.15 -3.1 -11.1 -2.4 -11.15 -1.75 -11.1 -0.75 -11.05 0.25 Q-11.05 2.35 -11.75 4.15 L-12.9 4.45 Q-13.65 4.6 -14.0 4.9 L-14.55 4.95 -15.05 5.0 -17.0 4.85 -17.8 4.25 -18.9 3.0 -19.25 2.95 -19.45 2.65 -19.3 2.65 Q-19.9 2.45 -19.9 0.25 L-19.55 -0.3 -18.95 -0.7 -18.25 -0.6 M-21.15 0.55 L-21.55 0.6 -21.8 -0.05 -21.4 -0.15 -21.15 0.55 M-21.6 5.5 L-21.55 5.75 -21.45 6.05 -21.6 6.3 -21.95 5.85 -22.05 5.25 -21.9 5.15 -21.8 4.55 Q-21.6 4.7 -21.6 5.5 M-24.4 5.55 L-24.35 4.9 Q-23.65 5.3 -23.65 5.65 -23.65 6.4 -24.15 6.65 L-24.45 6.2 -24.55 5.6 -24.4 5.55 M-18.95 3.3 L-18.25 4.0 Q-17.8 4.55 -17.8 4.85 L-18.1 4.9 -18.8 4.85 -19.05 4.4 -19.1 3.8 -19.0 3.75 -19.0 3.6 -18.95 3.3 M-18.1 5.45 Q-17.7 5.75 -17.7 6.65 L-17.75 6.9 -17.85 6.9 -18.05 6.95 -18.2 7.0 -18.45 6.8 -18.3 6.4 -18.3 6.25 -18.2 5.8 -18.1 5.45 M18.2 -7.85 L20.45 -7.8 22.7 -7.75 23.6 -7.5 23.85 -6.5 Q23.85 -5.25 23.15 -5.25 L22.7 -5.3 22.25 -5.35 21.45 -5.15 20.6 -5.0 20.3 -5.05 20.15 -4.95 19.9 -3.4 19.65 -1.75 19.6 -1.45 19.65 -0.95 19.65 -0.45 19.65 0.1 19.6 0.6 19.75 2.85 19.9 5.1 Q19.9 6.25 19.5 6.25 L19.1 6.15 18.65 6.0 Q18.3 6.0 18.25 6.4 16.9 6.15 16.9 5.2 L16.95 4.0 17.0 2.8 16.7 2.2 16.4 1.65 16.55 0.7 16.75 -0.25 16.95 -0.7 17.2 -1.15 Q17.2 -2.0 16.75 -2.0 L16.6 -2.0 16.5 -3.6 16.35 -5.2 16.25 -5.25 15.25 -5.15 15.0 -5.2 12.2 -5.0 12.2 -7.65 12.5 -8.0 13.05 -8.2 14.15 -8.0 15.25 -7.85 16.0 -8.0 16.75 -8.1 17.15 -8.0 17.55 -7.85 17.9 -7.85 18.2 -7.85 M20.9 -4.55 L21.15 -2.8 21.1 -1.45 20.6 -2.6 20.35 -3.8 20.55 -4.7 20.9 -4.55 M6.8 -5.45 Q6.8 -5.3 6.4 -5.3 5.65 -5.3 5.2 -5.95 L5.15 -5.75 5.3 -5.1 5.2 -4.9 4.6 -4.95 4.55 -5.1 4.45 -4.45 Q4.8 -4.0 4.8 -3.25 L4.4 -2.5 Q4.0 -2.55 4.0 -2.7 L4.0 -2.9 4.2 -3.3 3.75 -3.4 3.65 -3.05 3.7 -2.9 3.55 -1.25 Q3.55 0.75 4.45 1.6 4.45 2.15 5.2 2.3 L6.35 2.4 Q9.1 2.4 9.35 1.45 L9.7 1.05 Q9.75 0.7 9.95 0.6 L10.05 0.65 10.8 0.25 11.7 0.7 11.65 0.75 11.8 1.0 11.95 1.25 11.85 2.0 11.75 2.7 11.8 2.95 11.3 3.75 9.4 4.35 Q8.3 4.9 7.55 4.85 L7.25 5.3 7.15 5.35 7.05 5.3 5.55 4.9 3.95 4.3 4.2 4.6 Q4.0 4.6 2.85 3.6 2.1 2.9 1.55 1.8 1.0 0.65 1.0 -0.3 L0.75 -0.95 0.45 -1.45 0.9 -1.85 0.95 -2.55 0.9 -3.25 0.9 -3.9 0.8 -4.2 0.65 -4.5 0.85 -4.95 0.8 -5.1 1.0 -5.6 1.25 -6.1 2.65 -7.05 3.45 -7.75 4.45 -7.95 5.15 -7.95 7.8 -7.5 10.5 -7.05 11.7 -4.45 11.55 -4.15 11.45 -4.25 Q11.35 -3.75 10.9 -3.75 L10.55 -3.75 10.15 -3.8 9.55 -3.7 9.5 -4.3 8.45 -5.05 7.2 -5.3 Q7.15 -5.5 6.95 -5.5 L6.8 -5.45 M7.1 -4.85 L7.15 -5.3 7.85 -4.95 8.35 -4.4 8.0 -4.15 7.55 -3.95 7.35 -4.05 7.5 -4.05 7.55 -4.15 7.55 -4.25 7.2 -4.35 7.1 -4.85 M14.55 -3.55 L13.95 -2.75 13.4 -3.35 Q13.4 -4.05 14.2 -4.85 L14.55 -3.55 M14.1 -0.75 L13.9 -1.0 14.35 -1.35 14.6 -1.8 14.65 -1.8 14.65 1.3 13.5 1.45 14.25 -0.45 14.1 -0.75 M5.9 -1.85 L6.35 -2.8 Q6.7 -2.55 6.7 -1.8 L6.7 -1.3 6.45 -1.0 6.05 -1.25 6.05 -1.65 5.9 -1.85 M9.9 5.0 L9.9 5.5 9.65 5.9 9.3 5.7 9.2 5.35 9.35 5.25 9.45 4.65 9.9 5.0 M5.75 5.7 L5.8 5.05 6.45 5.55 6.65 6.3 6.45 6.7 Q5.8 6.35 5.6 5.75 L5.75 5.7 M8.25 7.45 L7.95 7.0 7.85 6.4 8.0 6.3 8.05 5.7 Q8.7 6.05 8.7 6.45 8.7 7.15 8.25 7.45 M16.95 7.6 Q16.95 7.1 17.7 6.45 L18.2 8.15 17.6 8.3 Q16.95 7.95 16.95 7.6 M22.6 6.25 L22.0 5.55 22.0 3.8 22.6 4.8 23.0 5.9 22.6 6.25 M-2.5 -7.75 L-1.1 -7.65 0.2 -7.45 0.8 -6.4 0.8 -6.35 0.3 -5.9 -0.35 -5.3 -1.15 -5.65 -1.95 -6.0 -2.3 -5.4 -2.6 -4.75 -2.7 -4.75 -3.1 -5.0 -3.4 -5.5 -4.7 -5.45 Q-5.75 -5.3 -5.75 -5.0 L-5.6 -4.1 -5.45 -3.2 -5.4 -3.2 -4.95 -3.2 -1.8 -3.2 Q-1.1 -3.2 -0.85 -2.8 L-0.65 -1.7 Q-0.65 -1.4 -1.2 -0.85 L-1.8 -0.9 Q-2.2 -0.95 -2.35 -1.1 L-5.0 -0.85 -5.15 -1.3 -5.5 -0.1 -5.75 1.15 Q-5.75 1.65 -4.65 1.65 L-3.6 1.55 -2.55 1.45 -2.0 1.55 -1.7 1.25 Q-0.2 1.45 0.2 1.8 0.65 2.2 0.65 3.55 L0.35 5.1 -0.9 4.15 Q-0.95 4.45 -1.65 4.45 L-2.05 4.45 -2.45 4.4 -3.2 4.6 -3.35 4.7 -3.6 4.75 -4.7 4.75 -4.9 4.7 -5.65 4.9 -5.85 5.6 -6.75 5.05 -7.1 4.55 -8.2 5.35 Q-8.6 5.4 -8.6 5.05 L-8.6 -0.7 -10.05 -0.6 -8.35 -1.25 -8.9 -2.0 -8.65 -2.25 -8.55 -3.75 -8.7 -5.65 -8.45 -5.8 -8.6 -7.3 -8.55 -7.35 -10.3 -7.95 -9.3 -8.0 -8.3 -8.0 -7.05 -7.9 -5.75 -7.75 -5.25 -7.6 -4.8 -7.45 -2.5 -7.75 M-14.0 -6.95 Q-14.0 -6.5 -14.5 -5.85 -14.9 -5.9 -14.9 -6.05 L-14.85 -6.3 -14.65 -6.9 -14.35 -7.55 Q-14.0 -7.25 -14.0 -6.95 M-14.4 1.3 L-14.55 1.35 -14.75 1.4 -15.0 1.2 -14.8 0.8 -14.85 0.65 -14.7 0.2 -14.55 -0.25 -14.25 0.35 -14.25 1.1 -14.3 1.3 -14.4 1.3 M-10.5 2.7 Q-10.25 2.9 -10.25 3.25 L-10.65 3.5 -11.0 3.35 -11.25 3.05 -11.1 2.95 -11.05 2.35 -10.5 2.7 M-10.85 5.15 L-11.0 6.15 -11.8 6.1 -12.0 5.5 Q-12.0 5.0 -11.0 4.1 L-11.15 4.75 -10.85 5.15 M-14.5 5.65 L-14.4 5.05 Q-13.75 5.4 -13.75 5.8 -13.75 6.55 -14.2 6.8 L-14.5 6.35 -14.65 5.75 -14.5 5.65 M-7.05 5.35 Q-6.6 5.65 -6.6 6.55 L-6.65 6.75 -6.75 6.75 -6.95 6.8 -7.1 6.85 -7.4 6.65 -7.2 6.25 -7.2 6.15 -7.15 5.75 -7.05 5.35 M-8.75 4.05 L-8.85 4.6 Q-8.95 5.25 -9.3 5.25 -9.6 5.25 -9.6 4.45 L-9.5 3.5 -9.25 2.65 Q-8.65 3.0 -8.65 3.45 L-8.75 4.05 M4.2 -1.15 L4.15 -1.85 4.65 -1.05 4.85 -0.05 4.8 0.2 4.7 0.15 4.5 0.2 4.35 0.25 4.05 0.05 4.25 -0.3 4.25 -0.45 4.2 -1.15 M-0.15 0.55 L-0.55 0.6 -0.8 -0.05 -0.4 -0.15 -0.15 0.55 M-0.6 5.5 L-0.55 5.75 -0.45 6.05 -0.6 6.3 -0.95 5.85 -1.05 5.25 -0.9 5.15 -0.8 4.55 Q-0.6 4.7 -0.6 5.5 M-3.4 5.55 L-3.35 4.9 Q-2.65 5.3 -2.65 5.65 -2.65 6.4 -3.15 6.65 L-3.45 6.2 -3.55 5.6 -3.4 5.55 M-4.5 7.85 L-4.8 7.35 -4.9 6.75 -4.75 6.7 -4.7 6.05 Q-4.25 6.3 -4.25 7.35 -4.25 7.7 -4.5 7.85 M2.45 5.65 L2.45 5.05 2.45 3.95 2.8 5.05 2.95 6.25 2.9 6.35 2.3 5.7 2.45 5.65 M30.2 -8.25 Q30.6 -8.25 30.6 -7.15 L30.65 -6.05 30.4 -5.75 30.55 -4.95 30.75 -4.15 30.55 -3.6 30.35 -3.05 30.35 -2.6 30.4 -2.05 30.25 -1.0 30.1 -0.9 30.45 -0.3 30.25 0.2 Q30.1 0.5 30.1 0.7 L30.2 1.25 29.1 1.5 28.05 1.2 Q27.65 0.85 27.65 0.25 27.65 0.0 27.9 -0.15 L27.75 -2.1 27.55 -4.05 27.3 -5.4 Q27.0 -6.35 27.0 -6.8 L26.9 -7.25 26.75 -7.6 26.8 -7.8 27.6 -7.85 28.45 -7.9 29.45 -8.1 30.2 -8.25 M27.05 -3.65 Q27.05 -3.35 26.35 -3.05 25.95 -3.25 25.95 -3.65 L26.0 -4.2 26.35 -5.8 26.8 -4.8 27.05 -3.65 M29.05 3.3 L29.45 3.3 29.9 3.3 Q30.5 3.3 30.5 3.95 30.5 4.55 29.4 5.15 L27.85 5.75 28.05 5.35 27.55 4.55 Q27.25 4.0 27.25 3.65 27.25 3.35 28.0 3.3 L29.05 3.3 M27.75 6.5 L28.1 6.2 28.45 6.65 28.55 6.85 28.6 7.3 28.45 7.3 27.7 7.55 27.55 7.1 27.6 6.85 27.75 6.5 M30.6 4.45 L31.05 4.05 Q31.35 4.2 31.35 5.0 L30.95 5.65 Q30.55 5.4 30.55 5.0 L30.6 4.45" fill="#000000" fill-rule="evenodd" stroke="none"/>
  </g>
</svg>
