<?xml version="1.0" encoding="UTF-8" standalone="no"?>
<svg xmlns:ffdec="https://www.free-decompiler.com/flash" xmlns:xlink="http://www.w3.org/1999/xlink" ffdec:objectType="shape" height="59.75px" width="83.0px" xmlns="http://www.w3.org/2000/svg">
  <g transform="matrix(1.0, 0.0, 0.0, 1.0, 41.5, 39.0)">
    <path d="M0.15 -17.15 L-0.15 -15.25 -0.4 -13.3 -0.25 -12.8 0.5 -12.75 1.1 -12.75 0.5 -12.05 1.4 -11.35 2.55 -12.1 1.25 -12.75 1.6 -12.75 Q3.55 -12.75 3.85 -13.3 L3.85 -14.7 3.9 -16.1 3.8 -18.2 3.75 -20.3 3.8 -20.85 3.8 -20.95 3.9 -22.25 4.1 -22.45 3.65 -22.9 3.7 -22.9 Q3.55 -23.55 3.55 -24.5 L3.6 -26.3 3.7 -27.55 3.7 -28.15 3.55 -29.4 0.25 -28.5 Q-0.55 -28.25 -1.45 -26.85 L-2.5 -24.6 -3.9 -21.4 Q-4.85 -23.75 -6.9 -27.25 -7.55 -27.75 -8.75 -28.25 -8.65 -28.9 -9.2 -29.35 -9.75 -29.7 -10.45 -29.7 L-13.8 -29.65 -12.5 -28.9 -12.15 -28.7 -11.75 -28.5 Q-12.15 -27.75 -12.15 -26.2 L-11.9 -26.2 -12.15 -25.6 -11.85 -24.4 -11.6 -23.3 -12.5 -22.85 -12.0 -22.6 -11.45 -22.45 -11.8 -21.65 -12.15 -20.75 -12.0 -19.25 -11.8 -17.5 -11.95 -14.8 -11.85 -13.8 -11.8 -12.95 -11.35 -12.55 -10.15 -12.7 -9.05 -12.85 -8.75 -12.8 -8.55 -15.4 Q-8.55 -19.7 -9.1 -20.9 L-8.7 -23.1 -6.75 -20.3 -6.5 -19.95 -6.45 -19.9 Q-5.3 -18.15 -5.3 -17.5 L-5.35 -17.35 -4.6 -16.4 Q-4.0 -15.6 -2.85 -15.7 -2.6 -16.0 -2.5 -16.7 L-2.2 -18.05 Q-1.55 -19.0 -1.65 -20.25 L-1.65 -20.7 Q-1.65 -21.35 -1.3 -21.8 L-0.7 -23.2 Q-0.4 -22.35 -0.2 -20.5 L0.05 -17.2 0.15 -17.15 M4.5 -27.9 L4.1 -28.35 3.95 -27.6 3.75 -27.55 Q4.05 -26.5 4.45 -26.25 L4.7 -26.65 4.4 -27.15 4.5 -27.55 4.5 -27.9 M25.4 -25.3 L24.85 -26.65 24.4 -24.55 24.3 -23.8 Q24.3 -23.35 24.85 -23.0 25.75 -23.45 25.75 -23.8 L25.4 -25.3 M24.9 -29.15 L24.85 -28.95 25.0 -28.45 25.2 -27.85 Q25.2 -27.15 25.55 -25.95 L25.9 -24.0 25.9 -23.85 25.9 -23.8 26.1 -21.3 26.35 -19.25 26.55 -19.3 29.55 -19.1 29.2 -19.6 29.35 -19.8 29.55 -21.2 29.55 -21.9 29.5 -22.6 29.75 -23.35 30.0 -24.15 29.75 -25.2 Q29.5 -25.95 29.55 -26.35 29.85 -26.4 29.85 -27.1 L29.85 -28.3 Q29.85 -29.8 29.35 -29.8 L28.35 -29.55 27.0 -29.35 25.95 -29.2 24.9 -29.15 M9.5 -13.7 Q11.35 -12.8 13.25 -12.8 L16.2 -13.3 Q18.0 -13.95 18.65 -14.9 19.2 -13.55 20.15 -13.15 L20.8 -13.35 20.7 -15.5 20.6 -17.65 Q20.6 -19.3 20.9 -20.1 L20.15 -19.85 19.5 -19.65 Q18.95 -19.65 18.75 -20.15 18.45 -20.65 18.0 -20.65 L17.3 -20.7 16.25 -20.7 15.6 -20.65 15.95 -19.75 16.25 -18.9 16.7 -17.75 Q16.7 -15.95 15.75 -15.45 L12.85 -15.15 Q11.45 -15.15 11.15 -16.55 L10.95 -17.05 10.15 -18.7 9.85 -20.2 9.6 -21.8 Q9.55 -22.25 9.75 -22.4 L9.1 -23.85 9.7 -24.0 10.05 -25.3 Q10.3 -26.4 10.5 -26.35 L10.65 -26.4 11.35 -26.3 12.0 -26.2 12.3 -26.3 12.4 -26.25 12.9 -26.25 15.95 -25.75 16.1 -25.85 17.15 -25.3 18.2 -24.55 Q18.2 -23.8 18.65 -23.75 L18.95 -24.05 18.85 -24.15 20.0 -24.15 20.05 -24.95 19.75 -25.45 19.45 -26.0 Q19.45 -26.3 19.8 -26.95 L20.2 -27.9 20.0 -28.45 16.1 -28.9 12.2 -29.4 9.75 -29.0 7.3 -27.75 5.3 -26.4 5.4 -26.35 Q5.9 -26.35 6.6 -25.5 L6.3 -24.9 6.45 -24.5 6.65 -24.15 6.2 -22.65 Q5.8 -21.75 5.75 -21.2 L5.75 -21.1 5.9 -21.0 6.3 -21.1 6.45 -20.9 6.8 -18.2 Q6.75 -17.3 7.35 -16.1 7.8 -15.15 8.35 -14.55 L7.9 -14.8 7.8 -14.0 7.55 -13.9 Q7.85 -13.15 8.7 -12.65 L9.35 -13.4 9.35 -13.6 9.5 -13.7 M26.5 -11.9 Q26.2 -11.5 26.2 -11.1 L26.45 -10.6 27.4 -10.85 27.55 -10.85 27.35 -11.7 26.9 -12.35 26.5 -11.9 M29.25 -16.1 L28.7 -16.1 28.1 -16.1 28.05 -16.1 27.8 -16.0 27.05 -16.1 26.8 -16.1 Q25.8 -16.0 25.85 -15.6 25.85 -15.2 26.2 -14.45 L26.85 -13.4 26.6 -12.9 Q27.5 -13.15 28.6 -13.7 L29.9 -14.75 30.05 -15.2 Q30.0 -16.1 29.25 -16.1 M30.15 -16.85 L30.1 -16.95 29.25 -16.55 30.15 -16.85 M30.6 -13.0 Q31.15 -13.3 31.15 -13.85 31.1 -14.9 30.75 -15.1 L30.2 -14.55 30.1 -13.85 Q30.05 -13.35 30.6 -13.0 M10.25 -12.1 L10.45 -11.8 10.55 -11.55 10.45 -11.3 10.7 -10.8 11.05 -10.4 11.1 -10.45 11.4 -11.25 11.25 -11.85 11.05 -12.5 10.5 -12.15 10.35 -12.2 10.25 -12.1 M12.75 -9.4 L12.85 -9.4 12.9 -9.7 Q12.9 -10.9 12.4 -11.25 L12.3 -10.75 12.2 -10.2 12.2 -10.05 11.9 -9.5 Q12.0 -9.3 12.3 -9.3 L12.5 -9.35 12.75 -9.4 M17.1 -11.0 L16.9 -10.9 17.05 -10.1 Q17.15 -9.75 17.4 -9.5 18.05 -9.9 18.05 -10.85 18.05 -11.3 17.2 -11.8 L17.1 -11.0 M18.7 -11.65 L18.5 -11.55 Q18.75 -10.8 19.6 -10.3 L19.8 -10.8 19.65 -11.85 18.8 -12.5 18.7 -11.65 M4.8 -14.8 L4.6 -14.7 Q4.8 -13.8 5.25 -13.55 L5.45 -14.0 5.35 -14.55 5.5 -15.15 5.25 -15.4 4.85 -15.6 4.8 -14.8 M5.0 -22.0 L4.35 -22.45 4.3 -21.6 4.1 -21.55 4.15 -21.15 4.0 -20.9 Q4.0 -20.6 4.5 -20.3 5.3 -20.85 5.3 -21.4 L5.0 -22.0 M14.65 -16.5 L15.05 -16.25 15.25 -16.35 15.45 -16.4 15.6 -16.35 15.7 -16.65 15.75 -17.1 15.75 -17.55 15.35 -18.45 15.2 -18.2 15.1 -17.95 14.8 -18.25 14.65 -16.5 M16.5 -23.45 L16.65 -22.5 17.1 -22.75 17.0 -23.45 17.4 -24.0 16.65 -24.0 16.5 -23.45 M11.75 -25.15 L11.6 -24.75 11.65 -24.15 11.65 -23.5 11.45 -22.85 11.45 -22.6 Q11.4 -22.45 11.95 -22.35 L12.3 -22.8 12.5 -23.3 Q12.5 -24.55 11.75 -25.15 M3.35 -2.8 L-13.95 20.75 -5.55 -2.9 Q-19.2 -3.65 -29.35 -8.1 -41.5 -13.4 -41.5 -20.9 -41.5 -28.45 -29.35 -33.75 -17.2 -39.05 0.0 -39.0 17.2 -39.05 29.35 -33.75 41.5 -28.45 41.5 -20.9 41.5 -13.4 29.35 -8.1 18.4 -3.3 3.35 -2.8 M-28.1 -15.25 L-28.25 -14.45 -28.45 -14.35 -28.3 -13.4 Q-28.2 -12.85 -27.8 -12.65 -27.15 -13.05 -27.1 -13.35 L-27.15 -13.75 -26.65 -13.1 -26.05 -13.5 Q-23.95 -12.25 -21.7 -12.2 L-19.8 -12.5 -17.95 -13.1 -17.2 -13.0 Q-16.4 -13.0 -15.8 -13.5 L-15.7 -16.85 Q-15.55 -19.35 -14.55 -19.55 -14.25 -20.85 -14.25 -23.0 -14.25 -23.95 -14.7 -25.35 -15.2 -26.85 -15.8 -27.35 -17.7 -29.4 -21.95 -29.4 -25.95 -29.4 -26.85 -27.65 L-27.85 -26.85 Q-28.4 -26.3 -28.4 -25.65 L-28.3 -25.5 -28.6 -24.9 -28.45 -24.5 -28.3 -24.1 -28.55 -21.6 -28.75 -19.1 -28.2 -18.15 -27.8 -15.3 -28.1 -15.25 M-18.85 -24.95 L-19.35 -25.3 -19.4 -24.65 -19.15 -24.3 -19.5 -23.3 -19.5 -22.95 -19.55 -22.7 -19.55 -22.6 -19.3 -22.65 -19.05 -22.75 -18.75 -23.45 -18.75 -24.4 -18.85 -24.95 M-20.25 -26.1 L-19.1 -25.5 Q-18.25 -24.85 -18.2 -24.1 L-18.55 -22.6 -18.25 -21.7 -18.35 -21.05 -18.4 -20.5 -18.2 -19.7 -18.25 -19.7 Q-18.1 -19.45 -18.1 -19.0 L-18.25 -18.9 -18.25 -17.85 Q-18.3 -16.65 -18.8 -15.8 L-18.85 -15.8 -20.35 -14.35 -22.25 -14.05 Q-24.55 -14.05 -24.75 -17.4 L-24.8 -18.1 Q-24.8 -20.55 -24.15 -23.65 L-23.95 -23.65 -23.75 -23.85 -23.95 -24.55 -24.15 -25.25 Q-23.95 -25.9 -23.05 -25.85 L-22.55 -25.75 -22.1 -25.55 -22.0 -25.5 -22.1 -25.2 -22.2 -24.9 -22.1 -24.8 Q-21.1 -24.85 -21.1 -25.65 L-20.9 -25.9 -20.7 -26.1 -20.25 -26.1 M-14.65 -17.4 L-14.85 -17.3 -14.85 -16.6 Q-14.85 -16.25 -14.5 -16.1 L-14.45 -16.15 -13.95 -16.55 -13.8 -17.15 Q-13.85 -17.8 -14.55 -18.2 L-14.65 -17.4 M-12.45 -16.65 L-12.55 -16.95 -12.9 -16.7 -13.1 -16.3 -13.3 -15.05 -13.45 -13.8 -13.45 -13.65 -13.65 -13.1 -13.35 -12.9 -13.1 -12.95 -12.85 -13.0 -12.55 -13.7 -12.45 -14.9 -12.45 -16.65 M-19.8 -16.85 L-19.95 -16.7 Q-19.95 -15.75 -19.6 -15.5 L-19.55 -15.55 -19.05 -15.95 Q-18.9 -16.25 -18.9 -16.55 -18.95 -17.2 -19.7 -17.6 L-19.8 -16.85 M-5.5 -17.35 L-5.7 -17.55 -6.0 -16.3 -6.1 -16.25 Q-5.5 -15.0 -4.5 -14.3 L-4.1 -14.75 Q-4.1 -15.2 -4.7 -16.25 L-5.45 -17.3 -5.5 -17.35 M-7.15 -19.9 L-7.45 -18.9 -7.2 -18.05 -7.65 -17.95 -7.35 -17.65 -6.6 -17.8 -6.55 -18.45 -6.8 -19.8 -7.15 -19.9 M-23.65 -18.65 L-23.75 -18.7 -23.9 -18.5 -24.05 -18.4 -24.15 -17.55 -24.35 -17.5 Q-24.1 -16.75 -23.25 -16.25 L-23.05 -16.55 -23.25 -17.05 -23.45 -17.3 -23.2 -17.55 -22.7 -18.35 -23.15 -19.0 -23.25 -18.5 -23.65 -18.65 M-1.85 -28.75 L-2.3 -28.55 -2.55 -28.15 -2.4 -27.8 -2.3 -27.35 -2.3 -26.85 Q-2.3 -26.75 -1.8 -26.65 L-1.6 -26.95 -1.6 -27.0 -1.25 -27.65 Q-1.3 -28.25 -1.05 -28.2 L-1.45 -28.5 -1.85 -28.75" fill="#ffffff" fill-rule="evenodd" stroke="none"/>
    <path d="M24.9 -29.15 L25.95 -29.2 27.0 -29.35 28.35 -29.55 29.35 -29.8 Q29.85 -29.8 29.85 -28.3 L29.85 -27.1 Q29.85 -26.4 29.55 -26.35 29.5 -25.95 29.75 -25.2 L30.0 -24.15 29.75 -23.35 29.5 -22.6 29.55 -21.9 29.55 -21.2 29.35 -19.8 29.2 -19.6 29.55 -19.1 26.55 -19.3 26.35 -19.25 26.1 -21.3 25.9 -23.8 25.9 -23.85 25.9 -24.0 25.55 -25.95 Q25.2 -27.15 25.2 -27.85 L25.0 -28.45 24.85 -28.95 24.9 -29.15 M25.4 -25.3 L25.75 -23.8 Q25.75 -23.45 24.85 -23.0 24.3 -23.35 24.3 -23.8 L24.4 -24.55 24.85 -26.65 25.4 -25.3 M4.5 -27.9 L4.5 -27.55 4.4 -27.15 4.7 -26.65 4.45 -26.25 Q4.05 -26.5 3.75 -27.55 L3.95 -27.6 4.1 -28.35 4.5 -27.9 M0.05 -17.2 L-0.2 -20.5 Q-0.4 -22.35 -0.7 -23.2 L-1.3 -21.8 Q-1.65 -21.35 -1.65 -20.7 L-1.65 -20.25 Q-1.55 -19.0 -2.2 -18.05 L-2.5 -16.7 Q-2.6 -16.0 -2.85 -15.7 -4.0 -15.6 -4.6 -16.4 L-5.35 -17.35 -5.3 -17.5 Q-5.3 -18.15 -6.45 -19.9 L-6.5 -19.95 -6.75 -20.3 -8.7 -23.1 -9.1 -20.9 Q-8.55 -19.7 -8.55 -15.4 L-8.75 -12.8 -9.05 -12.85 -10.15 -12.7 -11.35 -12.55 -11.8 -12.95 -11.85 -13.8 -11.95 -14.8 -11.8 -17.5 -12.0 -19.25 -12.15 -20.75 -11.8 -21.65 -11.45 -22.45 -12.0 -22.6 -12.5 -22.85 -11.6 -23.3 -11.85 -24.4 -12.15 -25.6 -11.9 -26.2 -12.15 -26.2 Q-12.15 -27.75 -11.75 -28.5 L-12.15 -28.7 -12.5 -28.9 -13.8 -29.65 -10.45 -29.7 Q-9.75 -29.7 -9.2 -29.35 -8.65 -28.9 -8.75 -28.25 -7.55 -27.75 -6.9 -27.25 -4.85 -23.75 -3.9 -21.4 L-2.5 -24.6 -1.45 -26.85 Q-0.55 -28.25 0.25 -28.5 L3.55 -29.4 3.7 -28.15 3.7 -27.55 3.6 -26.3 3.55 -24.5 Q3.55 -23.55 3.7 -22.9 L3.65 -22.9 4.1 -22.45 3.9 -22.25 3.8 -20.95 3.8 -20.85 3.75 -20.3 3.8 -18.2 3.9 -16.1 3.85 -14.7 3.85 -13.3 Q3.55 -12.75 1.6 -12.75 L1.25 -12.75 2.55 -12.1 1.4 -11.35 0.5 -12.05 1.1 -12.75 0.5 -12.75 -0.25 -12.8 -0.4 -13.3 -0.15 -15.25 0.15 -17.15 0.1 -17.25 0.05 -17.2 M9.35 -13.6 L9.35 -13.4 8.7 -12.65 Q7.85 -13.15 7.55 -13.9 L7.8 -14.0 7.9 -14.8 8.35 -14.55 Q7.8 -15.15 7.35 -16.1 6.75 -17.3 6.8 -18.2 L6.45 -20.9 6.3 -21.1 5.9 -21.0 5.75 -21.1 5.75 -21.2 Q5.8 -21.75 6.2 -22.65 L6.65 -24.15 6.45 -24.5 6.3 -24.9 6.6 -25.5 Q5.9 -26.35 5.4 -26.35 L5.3 -26.4 7.3 -27.75 9.75 -29.0 12.2 -29.4 16.1 -28.9 20.0 -28.45 20.2 -27.9 19.8 -26.95 Q19.45 -26.3 19.45 -26.0 L19.75 -25.45 20.05 -24.95 20.0 -24.15 18.85 -24.15 18.95 -24.05 18.65 -23.75 Q18.2 -23.8 18.2 -24.55 L17.15 -25.3 16.1 -25.85 15.95 -25.75 12.9 -26.25 12.4 -26.25 12.3 -26.3 12.0 -26.2 11.35 -26.3 10.65 -26.4 10.5 -26.35 Q10.3 -26.4 10.05 -25.3 L9.7 -24.0 9.1 -23.85 9.75 -22.4 Q9.55 -22.25 9.6 -21.8 L9.85 -20.2 10.15 -18.7 10.95 -17.05 11.15 -16.55 Q11.45 -15.15 12.85 -15.15 L15.75 -15.45 Q16.7 -15.95 16.7 -17.75 L16.25 -18.9 15.95 -19.75 15.6 -20.65 16.25 -20.7 17.3 -20.7 18.0 -20.65 Q18.45 -20.65 18.75 -20.15 18.95 -19.65 19.5 -19.65 L20.15 -19.85 20.9 -20.1 Q20.6 -19.3 20.6 -17.65 L20.7 -15.5 20.8 -13.35 20.15 -13.15 Q19.2 -13.55 18.65 -14.9 18.0 -13.95 16.2 -13.3 L13.25 -12.8 Q11.35 -12.8 9.5 -13.7 L9.1 -13.9 9.35 -13.6 M11.75 -25.15 Q12.5 -24.55 12.5 -23.3 L12.3 -22.8 11.95 -22.35 Q11.4 -22.45 11.45 -22.6 L11.45 -22.85 11.65 -23.5 11.65 -24.15 11.6 -24.75 11.75 -25.15 M16.5 -23.45 L16.65 -24.0 17.4 -24.0 17.0 -23.45 17.1 -22.75 16.65 -22.5 16.5 -23.45 M14.65 -16.5 L14.8 -18.25 15.1 -17.95 15.2 -18.2 15.35 -18.45 15.75 -17.55 15.75 -17.1 15.7 -16.65 15.6 -16.35 15.45 -16.4 15.25 -16.35 15.05 -16.25 14.65 -16.5 M5.0 -22.0 L5.3 -21.4 Q5.3 -20.85 4.5 -20.3 4.0 -20.6 4.0 -20.9 L4.15 -21.15 4.1 -21.55 4.3 -21.6 4.35 -22.45 5.0 -22.0 M4.8 -14.8 L4.85 -15.6 5.25 -15.4 5.5 -15.15 5.35 -14.55 5.45 -14.0 5.25 -13.55 Q4.8 -13.8 4.6 -14.7 L4.8 -14.8 M18.7 -11.65 L18.8 -12.5 19.65 -11.85 19.8 -10.8 19.6 -10.3 Q18.75 -10.8 18.5 -11.55 L18.7 -11.65 M17.1 -11.0 L17.2 -11.8 Q18.05 -11.3 18.05 -10.85 18.05 -9.9 17.4 -9.5 17.15 -9.75 17.05 -10.1 L16.9 -10.9 17.1 -11.0 M12.75 -9.4 L12.5 -9.35 12.3 -9.3 Q12.0 -9.3 11.9 -9.5 L12.2 -10.05 12.2 -10.2 12.3 -10.75 12.4 -11.25 Q12.9 -10.9 12.9 -9.7 L12.85 -9.4 12.75 -9.4 M10.25 -12.1 L10.35 -12.2 10.5 -12.15 11.05 -12.5 11.25 -11.85 11.4 -11.25 11.1 -10.45 11.05 -10.4 10.7 -10.8 10.45 -11.3 10.55 -11.55 10.45 -11.8 10.25 -12.1 M30.6 -13.0 Q30.05 -13.35 30.1 -13.85 L30.2 -14.55 30.75 -15.1 Q31.1 -14.9 31.15 -13.85 31.15 -13.3 30.6 -13.0 M30.15 -16.85 L29.25 -16.55 30.1 -16.95 30.15 -16.85 M29.25 -16.1 Q30.0 -16.1 30.05 -15.2 L29.9 -14.75 28.6 -13.7 Q27.5 -13.15 26.6 -12.9 L26.85 -13.4 26.2 -14.45 Q25.85 -15.2 25.85 -15.6 25.8 -16.0 26.8 -16.1 L27.05 -16.1 27.8 -16.0 28.05 -16.1 28.1 -16.1 28.7 -16.1 29.25 -16.1 M26.5 -11.9 L26.9 -12.35 27.35 -11.7 27.55 -10.85 27.4 -10.85 26.45 -10.6 26.2 -11.1 Q26.2 -11.5 26.5 -11.9 M-20.25 -26.1 L-20.7 -26.1 -20.9 -25.9 -21.1 -25.65 Q-21.1 -24.85 -22.1 -24.8 L-22.2 -24.9 -22.1 -25.2 -22.0 -25.5 -22.1 -25.55 -22.55 -25.75 -23.05 -25.85 Q-23.95 -25.9 -24.15 -25.25 L-23.95 -24.55 -23.75 -23.85 -23.95 -23.65 -24.15 -23.65 Q-24.8 -20.55 -24.8 -18.1 L-24.75 -17.4 Q-24.55 -14.05 -22.25 -14.05 L-20.35 -14.35 -18.85 -15.8 -18.8 -15.8 Q-18.3 -16.65 -18.25 -17.85 L-18.25 -18.9 -18.1 -19.0 Q-18.1 -19.45 -18.25 -19.7 L-18.2 -19.7 -18.4 -20.5 -18.35 -21.05 -18.25 -21.7 -18.55 -22.6 -18.2 -24.1 Q-18.25 -24.85 -19.1 -25.5 L-20.25 -26.1 M-18.85 -24.95 L-18.75 -24.4 -18.75 -23.45 -19.05 -22.75 -19.3 -22.65 -19.55 -22.6 -19.55 -22.7 -19.5 -22.95 -19.5 -23.3 -19.15 -24.3 -19.4 -24.65 -19.35 -25.3 -18.85 -24.95 M-27.8 -15.3 L-28.2 -18.15 -28.75 -19.1 -28.55 -21.6 -28.3 -24.1 -28.45 -24.5 -28.6 -24.9 -28.3 -25.5 -28.4 -25.65 Q-28.4 -26.3 -27.85 -26.85 L-26.85 -27.65 Q-25.95 -29.4 -21.95 -29.4 -17.7 -29.4 -15.8 -27.35 -15.2 -26.85 -14.7 -25.35 -14.25 -23.95 -14.25 -23.0 -14.25 -20.85 -14.55 -19.55 -15.55 -19.35 -15.7 -16.85 L-15.8 -13.5 Q-16.4 -13.0 -17.2 -13.0 L-17.95 -13.1 -19.8 -12.5 -21.7 -12.2 Q-23.95 -12.25 -26.05 -13.5 L-26.65 -13.1 -27.15 -13.75 -27.1 -13.35 Q-27.15 -13.05 -27.8 -12.65 -28.2 -12.85 -28.3 -13.4 L-28.45 -14.35 -28.25 -14.45 -28.1 -15.25 -27.65 -14.85 -27.8 -15.3 M-1.85 -28.75 L-1.45 -28.5 -1.05 -28.2 Q-1.3 -28.25 -1.25 -27.65 L-1.6 -27.0 -1.6 -26.95 -1.8 -26.65 Q-2.3 -26.75 -2.3 -26.85 L-2.3 -27.35 -2.4 -27.8 -2.55 -28.15 -2.3 -28.55 -1.85 -28.75 M-23.65 -18.65 L-23.25 -18.5 -23.15 -19.0 -22.7 -18.35 -23.2 -17.55 -23.45 -17.3 -23.25 -17.05 -23.05 -16.55 -23.25 -16.25 Q-24.1 -16.75 -24.35 -17.5 L-24.15 -17.55 -24.05 -18.4 -23.9 -18.5 -23.75 -18.7 -23.65 -18.65 M-7.15 -19.9 L-6.8 -19.8 -6.55 -18.45 -6.6 -17.8 -7.35 -17.65 -7.65 -17.95 -7.2 -18.05 -7.45 -18.9 -7.15 -19.9 M-5.5 -17.35 L-5.45 -17.3 -4.7 -16.25 Q-4.1 -15.2 -4.1 -14.75 L-4.5 -14.3 Q-5.5 -15.0 -6.1 -16.25 L-6.0 -16.3 -5.7 -17.55 -5.5 -17.35 M-19.8 -16.85 L-19.7 -17.6 Q-18.95 -17.2 -18.9 -16.55 -18.9 -16.25 -19.05 -15.95 L-19.55 -15.55 -19.6 -15.5 Q-19.95 -15.75 -19.95 -16.7 L-19.8 -16.85 M-12.45 -16.65 L-12.45 -14.9 -12.55 -13.7 -12.85 -13.0 -13.1 -12.95 -13.35 -12.9 -13.65 -13.1 -13.45 -13.65 -13.45 -13.8 -13.3 -15.05 -13.1 -16.3 -12.9 -16.7 -12.55 -16.95 -12.45 -16.65 M-14.65 -17.4 L-14.55 -18.2 Q-13.85 -17.8 -13.8 -17.15 L-13.95 -16.55 -14.45 -16.15 -14.5 -16.1 Q-14.85 -16.25 -14.85 -16.6 L-14.85 -17.3 -14.65 -17.4" fill="#000000" fill-rule="evenodd" stroke="none"/>
    <path d="M3.35 -2.8 L-13.95 20.75 -5.55 -2.9 Q-19.2 -3.65 -29.35 -8.1 -41.5 -13.4 -41.5 -20.9 -41.5 -28.45 -29.35 -33.75 -17.2 -39.05 0.0 -39.0 17.2 -39.05 29.35 -33.75 41.5 -28.45 41.5 -20.9 41.5 -13.4 29.35 -8.1 18.4 -3.3 3.35 -2.8 Z" fill="none" stroke="#000000" stroke-linecap="round" stroke-linejoin="round" stroke-width="0.05"/>
  </g>
</svg>
