<?xml version="1.0" encoding="UTF-8" standalone="no"?>
<svg xmlns:ffdec="https://www.free-decompiler.com/flash" xmlns:xlink="http://www.w3.org/1999/xlink" ffdec:objectType="shape" height="153.0px" width="179.5px" xmlns="http://www.w3.org/2000/svg">
  <g transform="matrix(1.0, 0.0, 0.0, 1.0, 89.75, 76.5)">
    <path d="M15.0 1.15 L0.7 -36.6 0.55 -37.4 0.5 -37.7 0.45 -38.0 0.3 -38.85 0.15 -39.7 0.0 -40.55 -0.1 -41.4 -0.3 -42.95 Q-0.7 -46.55 -0.6 -49.8 -0.55 -54.3 0.4 -58.1 L4.4 -58.9 12.4 -76.2 19.55 -76.5 13.95 -59.45 Q14.15 -54.1 17.15 -48.8 38.4 -10.0 65.85 17.05 L62.55 19.2 34.05 18.1 33.9 18.1 32.6 18.1 32.4 18.1 31.4 18.1 26.95 18.2 24.4 18.3 21.2 12.7 21.0 12.35 15.9 2.9 15.55 2.2 15.0 1.15" fill="#e6e6e6" fill-rule="evenodd" stroke="none"/>
    <path d="M-51.05 31.6 Q-33.85 25.85 -15.6 22.55 L-3.7 20.65 Q7.6 19.1 19.35 18.5 L24.4 18.3 26.95 18.2 31.4 18.1 32.4 18.1 32.6 18.1 33.9 18.1 32.8 19.7 31.9 20.9 28.2 25.1 27.9 25.4 26.95 26.25 26.9 26.3 26.9 25.85 Q26.9 22.85 24.65 20.75 22.5 18.65 19.35 18.65 16.2 18.65 13.95 20.75 L13.85 20.9 13.8 20.95 -3.7 23.1 -4.1 23.15 -15.6 25.1 -20.75 26.05 Q-28.35 27.7 -35.6 29.75 -42.2 31.7 -48.95 34.0 L-51.05 31.6" fill="#f7f7f7" fill-rule="evenodd" stroke="none"/>
    <path d="M33.9 18.1 L34.05 18.15 32.4 22.0 Q30.3 26.3 26.95 30.55 L25.0 32.9 24.9 33.0 24.65 33.0 24.65 32.9 Q24.5 32.5 23.45 31.95 L24.55 31.1 24.65 31.0 Q26.25 29.45 26.7 27.5 L26.9 26.3 26.95 26.25 27.9 25.4 28.2 25.1 31.9 20.9 32.8 19.7 33.9 18.1 M16.45 32.9 L15.05 34.9 -42.15 41.65 -48.95 34.0 Q-42.2 31.7 -35.6 29.75 -28.35 27.7 -20.75 26.05 L-15.6 25.1 -4.1 23.15 -3.7 23.1 13.8 20.95 Q12.7 22.05 12.2 23.45 L10.85 24.45 -3.7 25.75 -6.5 26.1 -15.6 27.8 -24.95 29.95 -24.95 37.9 16.45 32.9" fill="#3c3c3c" fill-rule="evenodd" stroke="none"/>
    <path d="M85.9 33.85 L89.75 37.2 Q86.25 45.5 82.35 53.55 L63.2 55.9 62.4 52.2 Q42.95 56.6 25.95 57.6 L25.6 62.25 Q-8.6 66.3 -37.15 63.45 -66.35 60.55 -78.8 57.45 -91.3 54.35 -89.5 49.8 -87.95 45.8 -64.5 36.5 -57.85 33.85 -51.05 31.6 L-48.95 34.0 -42.15 41.65 15.05 34.9 24.15 33.8 24.9 33.0 25.0 32.9 26.95 30.55 Q30.3 26.3 32.4 22.0 L34.05 18.15 34.05 18.1 62.55 19.2 Q50.75 26.5 39.85 29.9 38.55 31.55 40.45 33.2 L40.45 33.3 Q56.3 36.85 83.3 34.7 L83.75 34.55 85.9 33.85" fill="url(#gradient0)" fill-rule="evenodd" stroke="none"/>
    <path d="M65.85 17.05 L66.35 16.75 69.05 19.1 68.2 19.7 Q54.5 28.55 40.45 33.3 L40.45 33.2 Q38.55 31.55 39.85 29.9 50.75 26.5 62.55 19.2 L65.85 17.05" fill="#fdf8ef" fill-rule="evenodd" stroke="none"/>
    <path d="M69.05 19.1 L85.9 33.85 83.75 34.55 83.3 34.7 Q56.3 36.85 40.45 33.3 54.5 28.55 68.2 19.7 L69.05 19.1" fill="#999999" fill-rule="evenodd" stroke="none"/>
    <path d="M63.2 55.9 L64.5 62.8 53.2 64.55 33.4 67.55 33.15 67.55 25.35 64.85 25.6 62.25 25.95 57.6 Q42.95 56.6 62.4 52.2 L63.2 55.9" fill="#e1e1e1" fill-rule="evenodd" stroke="none"/>
    <path d="M26.9 26.3 L26.7 27.5 Q26.25 29.45 24.65 31.0 L24.55 31.1 23.85 30.5 Q22.8 29.8 21.35 29.8 L20.0 29.8 Q18.75 29.75 18.7 28.05 L18.8 24.8 12.55 24.8 10.3 24.8 10.85 24.45 12.2 23.45 Q12.7 22.05 13.8 20.95 L13.85 20.9 13.95 20.75 Q16.2 18.65 19.35 18.65 22.5 18.65 24.65 20.75 26.9 22.85 26.9 25.85 L26.9 26.3" fill="#737373" fill-rule="evenodd" stroke="none"/>
    <path d="M24.55 31.1 L23.45 31.95 22.2 32.6 19.35 33.1 17.45 32.9 16.65 32.7 Q15.3 32.25 14.35 31.3 13.2 30.2 12.75 29.15 L10.9 29.15 12.4 25.8 12.55 24.8 18.8 24.8 18.7 28.05 Q18.75 29.75 20.0 29.8 L21.35 29.8 Q22.8 29.8 23.85 30.5 L24.55 31.1" fill="#ffcccc" fill-rule="evenodd" stroke="none"/>
    <path d="M23.45 31.95 Q24.5 32.5 24.65 32.9 L24.65 33.0 24.9 33.0 24.15 33.8 15.05 34.9 16.45 32.9 16.65 32.7 17.45 32.9 19.35 33.1 22.2 32.6 23.45 31.95" fill="#666666" fill-rule="evenodd" stroke="none"/>
    <path d="M53.2 64.55 L53.35 66.5 Q53.35 70.65 50.4 73.55 47.5 76.5 43.35 76.5 39.2 76.5 36.25 73.55 33.7 71.0 33.4 67.55 L53.2 64.55" fill="#333333" fill-rule="evenodd" stroke="none"/>
    <path d="M15.0 1.15 L0.7 -36.6 0.55 -37.4 0.5 -37.7 0.45 -38.0 0.3 -38.85 0.15 -39.7 0.0 -40.55 -0.1 -41.4 -0.3 -42.95 Q-0.7 -46.55 -0.6 -49.8 -0.55 -54.3 0.4 -58.1 L4.4 -58.9 12.4 -76.2 19.55 -76.5 13.95 -59.45 Q14.15 -54.1 17.15 -48.8 38.4 -10.0 65.85 17.05 L66.35 16.75 69.05 19.1 85.9 33.85 89.75 37.2 Q86.25 45.5 82.35 53.55 L63.2 55.9 64.5 62.8 53.2 64.55 53.35 66.5 Q53.35 70.65 50.4 73.55 47.5 76.5 43.35 76.5 39.2 76.5 36.25 73.55 33.7 71.0 33.4 67.55 L33.15 67.55 25.35 64.85 25.6 62.25 Q-8.6 66.3 -37.15 63.45 -66.35 60.55 -78.8 57.45 -91.3 54.35 -89.5 49.8 -87.95 45.8 -64.5 36.5 -57.85 33.85 -51.05 31.6 -33.85 25.85 -15.6 22.55 L-3.7 20.65 Q7.6 19.1 19.35 18.5 L24.4 18.3 21.2 12.7 21.0 12.35 15.9 2.9 15.0 1.15 15.55 2.2 15.9 2.9 M34.05 18.15 L34.05 18.1 33.9 18.1 32.8 19.7 31.9 20.9 28.2 25.1 M27.9 25.4 L26.95 26.25 26.9 26.3 26.7 27.5 Q26.25 29.45 24.65 31.0 L24.55 31.1 23.45 31.95 Q24.5 32.5 24.65 32.9 L24.65 33.0 24.9 33.0 25.0 32.9 26.95 30.55 Q30.3 26.3 32.4 22.0 L34.05 18.15 M33.9 18.1 L32.6 18.1 M31.4 18.1 L26.95 18.2 24.4 18.3 M40.45 33.3 Q56.3 36.85 83.3 34.7 L83.75 34.55 85.9 33.85 M40.45 33.3 L40.45 33.2 Q38.55 31.55 39.85 29.9 50.75 26.5 62.55 19.2 L34.05 18.1 M63.2 55.9 L62.4 52.2 Q42.95 56.6 25.95 57.6 L25.6 62.25 M13.8 20.95 L13.85 20.9 13.95 20.75 Q16.2 18.65 19.35 18.65 22.5 18.65 24.65 20.75 26.9 22.85 26.9 25.85 L26.9 26.3 M24.55 31.1 L23.85 30.5 Q22.8 29.8 21.35 29.8 L20.0 29.8 Q18.75 29.75 18.7 28.05 L18.8 24.8 12.55 24.8 12.4 25.8 10.9 29.15 12.75 29.15 Q13.2 30.2 14.35 31.3 15.3 32.25 16.65 32.7 L17.45 32.9 19.35 33.1 22.2 32.6 23.45 31.95 M15.05 34.9 L24.15 33.8 24.9 33.0 M16.45 32.9 L15.05 34.9 -42.15 41.65 -48.95 34.0 -51.05 31.6 M16.65 32.7 L16.45 32.9 -24.95 37.9 -24.95 29.95 -15.6 27.8 -6.5 26.1 -3.7 25.75 10.85 24.45 12.2 23.45 Q12.7 22.05 13.8 20.95 M33.4 67.55 L53.2 64.55 M10.85 24.45 L10.3 24.8 12.55 24.8 M62.55 19.2 L65.85 17.05" fill="none" stroke="#000000" stroke-linecap="round" stroke-linejoin="round" stroke-width="0.05"/>
  </g>
  <defs>
    <linearGradient gradientTransform="matrix(0.002, 0.0571, -0.2714, 0.0095, 133.9, 17.6)" gradientUnits="userSpaceOnUse" id="gradient0" spreadMethod="pad" x1="-819.2" x2="819.2">
      <stop offset="0.7254901960784313" stop-color="#ffffff"/>
      <stop offset="0.9176470588235294" stop-color="#96989c"/>
    </linearGradient>
  </defs>
</svg>
