<?xml version="1.0" encoding="UTF-8" standalone="no"?>
<svg xmlns:ffdec="https://www.free-decompiler.com/flash" xmlns:xlink="http://www.w3.org/1999/xlink" ffdec:objectType="shape" height="138.75px" width="288.9px" xmlns="http://www.w3.org/2000/svg">
  <g transform="matrix(1.0, 0.0, 0.0, 1.0, 144.45, 69.35)">
    <path d="M113.15 59.7 L131.85 -22.9 134.55 -23.0 144.45 -24.75 134.55 -23.0 131.85 -22.9 113.15 59.7 Q50.5 62.4 -9.5 62.75 -65.2 63.3 -116.9 68.25 L-128.45 69.4 Q-124.55 61.35 -121.05 53.05 L-124.9 49.7 Q-114.9 46.35 -105.75 40.3 -62.25 44.85 61.9 49.5 L103.8 -21.75 95.65 -25.1 144.45 -25.1 144.45 -24.75 138.75 58.5 113.15 59.7 M106.85 -22.05 L131.85 -22.9 106.85 -22.05 M-23.6 49.3 L-23.6 54.35 -23.45 56.8 -23.0 58.0 -22.1 58.8 -20.6 59.05 -18.9 58.75 -18.0 57.95 -17.55 56.85 Q-17.4 56.05 -17.4 54.45 L-17.4 49.3 -18.95 49.3 -18.95 54.5 -19.0 56.1 Q-19.1 56.7 -19.5 57.05 -19.85 57.4 -20.55 57.4 L-21.55 57.1 -21.95 56.25 -22.0 54.6 -22.0 49.3 -23.6 49.3 M-29.0 50.4 Q-29.3 49.85 -29.8 49.6 L-30.95 49.3 Q-32.05 49.3 -32.75 50.15 -33.3 50.85 -33.3 51.75 -33.3 53.0 -32.15 53.75 -32.85 53.95 -33.25 54.55 -33.65 55.15 -33.65 56.0 -33.65 57.3 -32.9 58.15 -32.15 59.05 -31.0 59.05 -29.95 59.05 -29.25 58.3 -28.55 57.55 -28.45 56.35 L-29.9 56.15 Q-29.95 56.8 -30.3 57.2 -30.6 57.55 -31.0 57.55 L-31.8 57.1 -32.1 55.95 -31.8 54.85 Q-31.5 54.45 -31.05 54.45 L-30.4 54.6 -30.55 53.1 -31.45 52.75 Q-31.8 52.4 -31.8 51.85 L-31.55 51.1 Q-31.3 50.8 -30.95 50.8 -30.55 50.8 -30.3 51.1 -30.0 51.45 -29.95 52.05 L-28.55 51.8 Q-28.7 50.9 -29.0 50.4 M-28.0 56.35 L-25.05 56.35 -25.05 54.5 -28.0 54.5 -28.0 56.35 M-41.45 49.95 Q-42.15 49.3 -43.2 49.3 -44.35 49.3 -45.0 50.05 -45.65 50.8 -45.65 51.95 L-45.45 53.2 -44.85 54.4 -43.9 55.65 -43.0 56.7 -42.7 57.2 -45.65 57.2 -45.65 58.9 -40.4 58.9 Q-40.5 57.95 -40.95 57.05 -41.35 56.2 -42.6 54.75 L-43.85 53.2 -44.15 52.1 -43.9 51.15 Q-43.6 50.8 -43.15 50.8 -42.7 50.8 -42.4 51.15 -42.15 51.5 -42.1 52.3 L-40.6 52.1 Q-40.75 50.6 -41.45 49.95 M-48.3 50.8 Q-48.95 50.15 -49.2 49.3 L-50.45 49.3 -50.45 58.9 -48.95 58.9 -48.95 52.0 Q-48.1 52.9 -47.0 53.35 L-47.0 51.7 -48.3 50.8 M-39.9 56.95 L-38.95 56.95 -38.95 58.9 -37.5 58.9 -37.5 56.95 -34.3 56.95 -34.3 55.35 -37.7 49.3 -38.95 49.3 -38.95 55.35 -39.9 55.35 -39.9 56.95 M-37.5 55.35 L-37.5 52.1 -35.7 55.35 -37.5 55.35" fill="url(#gradient0)" fill-rule="evenodd" stroke="none"/>
    <path d="M-28.0 56.35 L-28.0 54.5 -25.05 54.5 -25.05 56.35 -28.0 56.35 M-29.0 50.4 Q-28.7 50.9 -28.55 51.8 L-29.95 52.05 Q-30.0 51.45 -30.3 51.1 -30.55 50.8 -30.95 50.8 -31.3 50.8 -31.55 51.1 L-31.8 51.85 Q-31.8 52.4 -31.45 52.75 L-30.55 53.1 -30.4 54.6 -31.05 54.45 Q-31.5 54.45 -31.8 54.85 L-32.1 55.95 -31.8 57.1 -31.0 57.55 Q-30.6 57.55 -30.3 57.2 -29.95 56.8 -29.9 56.15 L-28.45 56.35 Q-28.55 57.55 -29.25 58.3 -29.95 59.05 -31.0 59.05 -32.15 59.05 -32.9 58.15 -33.65 57.3 -33.65 56.0 -33.65 55.15 -33.25 54.55 -32.85 53.95 -32.15 53.75 -33.3 53.0 -33.3 51.75 -33.3 50.85 -32.75 50.15 -32.05 49.3 -30.95 49.3 L-29.8 49.6 Q-29.3 49.85 -29.0 50.4 M-23.6 49.3 L-22.0 49.3 -22.0 54.6 -21.95 56.25 -21.55 57.1 -20.55 57.4 Q-19.85 57.4 -19.5 57.05 -19.1 56.7 -19.0 56.1 L-18.95 54.5 -18.95 49.3 -17.4 49.3 -17.4 54.45 Q-17.4 56.05 -17.55 56.85 L-18.0 57.95 -18.9 58.75 -20.6 59.05 -22.1 58.8 -23.0 58.0 -23.45 56.8 -23.6 54.35 -23.6 49.3 M-37.5 55.35 L-35.7 55.35 -37.5 52.1 -37.5 55.35 M-39.9 56.95 L-39.9 55.35 -38.95 55.35 -38.95 49.3 -37.7 49.3 -34.3 55.35 -34.3 56.95 -37.5 56.95 -37.5 58.9 -38.95 58.9 -38.95 56.95 -39.9 56.95 M-48.3 50.8 L-47.0 51.7 -47.0 53.35 Q-48.1 52.9 -48.95 52.0 L-48.95 58.9 -50.45 58.9 -50.45 49.3 -49.2 49.3 Q-48.95 50.15 -48.3 50.8 M-41.45 49.95 Q-40.75 50.6 -40.6 52.1 L-42.1 52.3 Q-42.15 51.5 -42.4 51.15 -42.7 50.8 -43.15 50.8 -43.6 50.8 -43.9 51.15 L-44.15 52.1 -43.85 53.2 -42.6 54.75 Q-41.35 56.2 -40.95 57.05 -40.5 57.95 -40.4 58.9 L-45.65 58.9 -45.65 57.2 -42.7 57.2 -43.0 56.7 -43.9 55.65 -44.85 54.4 -45.45 53.2 -45.65 51.95 Q-45.65 50.8 -45.0 50.05 -44.35 49.3 -43.2 49.3 -42.15 49.3 -41.45 49.95" fill="#4d4e4d" fill-rule="evenodd" stroke="none"/>
    <path d="M-141.75 34.95 L-144.45 32.6 -140.05 29.55 Q-125.75 19.3 -110.2 3.65 -89.15 -19.05 -64.9 -39.95 L-53.15 -43.15 -39.3 -69.35 -36.6 -69.35 -50.45 -40.7 -50.6 -40.7 -50.65 -40.65 -64.0 -37.1 Q-78.9 -25.05 -94.75 -7.6 L-120.05 17.7 -120.05 17.95 Q-129.95 27.0 -140.05 33.85 L-141.75 34.95" fill="#fdf8ef" fill-rule="evenodd" stroke="none"/>
    <path d="M-36.6 -69.35 L-29.05 -69.35 -37.8 -40.7 -50.45 -40.7 -36.6 -69.35" fill="#c4c4c4" fill-rule="evenodd" stroke="none"/>
    <path d="M-105.75 40.3 Q-114.9 46.35 -124.9 49.7 L-141.75 34.95 -140.05 33.85 Q-129.95 27.0 -120.05 17.95 L-120.05 17.7 -94.75 -7.6 Q-78.9 -25.05 -64.0 -37.1 L-50.65 -40.65 -50.45 -40.7 -37.8 -40.7 Q-48.7 -32.7 -51.95 -27.15 L-82.4 18.3 Q-93.25 31.9 -105.75 40.3" fill="#999999" fill-rule="evenodd" stroke="none"/>
    <path d="M-50.45 -40.7 L-50.65 -40.65 -50.6 -40.7 -50.45 -40.7" fill="#514f4d" fill-rule="evenodd" stroke="none"/>
    <path d="M144.45 -24.75 L134.55 -23.0 131.85 -22.9 113.15 59.7 138.75 58.5 144.45 -24.75 144.45 -25.1 95.65 -25.1 103.8 -21.75 61.9 49.5 Q-62.25 44.85 -105.75 40.3 -114.9 46.35 -124.9 49.7 L-121.05 53.05 Q-124.55 61.35 -128.45 69.4 L-116.9 68.25 Q-65.2 63.3 -9.5 62.75 50.5 62.4 113.15 59.7 M131.85 -22.9 L106.85 -22.05 M-141.75 34.95 L-144.45 32.6 -140.05 29.55 Q-125.75 19.3 -110.2 3.65 -89.15 -19.05 -64.9 -39.95 L-53.15 -43.15 -39.3 -69.35 -36.6 -69.35 -29.05 -69.35 -37.8 -40.7 Q-48.7 -32.7 -51.95 -27.15 L-82.4 18.3 Q-93.25 31.9 -105.75 40.3 M-50.45 -40.7 L-50.65 -40.65 -50.6 -40.7 -50.45 -40.7 M-141.75 34.95 L-124.9 49.7" fill="none" stroke="#000000" stroke-linecap="round" stroke-linejoin="round" stroke-width="0.05"/>
  </g>
  <defs>
    <linearGradient gradientTransform="matrix(0.002, 0.0571, -0.2714, 0.0095, -76.9, 33.45)" gradientUnits="userSpaceOnUse" id="gradient0" spreadMethod="pad" x1="-819.2" x2="819.2">
      <stop offset="0.7254901960784313" stop-color="#ffffff"/>
      <stop offset="0.9176470588235294" stop-color="#96989c"/>
    </linearGradient>
  </defs>
</svg>
