<?xml version="1.0" encoding="UTF-8" standalone="no"?>
<svg xmlns:ffdec="https://www.free-decompiler.com/flash" xmlns:xlink="http://www.w3.org/1999/xlink" ffdec:objectType="shape" height="330.6px" width="901.25px" xmlns="http://www.w3.org/2000/svg">
  <g transform="matrix(1.0, 0.0, 0.0, 1.0, 495.85, 191.0)">
    <path d="M35.45 -42.05 L37.05 -35.9 -322.65 -17.15 -323.7 -17.1 -323.1 -17.15 -322.6 -17.15 -105.45 -31.55 35.45 -42.05 M24.95 -39.0 L-105.45 -31.55 24.95 -39.0 M-264.2 -15.75 L-190.25 -18.85 38.4 -30.6 40.1 -23.85 -325.9 -12.55 -327.15 -12.5 -325.9 -12.55 -264.2 -15.75 M155.05 -50.3 L220.6 -54.8 221.05 -45.0 220.6 -54.8 280.7 -58.95 281.45 -48.0 221.05 -45.0 157.4 -41.85 155.05 -50.3 M161.4 -27.4 L158.8 -36.75 221.3 -39.95 221.8 -29.2 221.3 -39.95 281.75 -43.05 282.55 -31.0 221.8 -29.2 161.4 -27.4 M-29.05 -24.0 L-190.25 -18.85 -29.05 -24.0" fill="#ba2501" fill-rule="evenodd" stroke="none"/>
    <path d="M74.05 -44.7 L74.45 -37.75 37.05 -35.9 35.45 -42.05 74.05 -44.7 M74.75 -32.45 L75.15 -24.85 40.1 -23.85 38.4 -30.6 74.75 -32.45 M98.75 -25.55 L98.4 -33.65 158.8 -36.75 161.4 -27.4 98.75 -25.55 M98.15 -38.95 L97.75 -46.35 155.05 -50.3 157.4 -41.85 98.15 -38.95" fill="#761801" fill-rule="evenodd" stroke="none"/>
    <path d="M-32.2 -117.7 L-32.65 -117.85 -35.7 -127.45 Q-4.8 -140.35 35.35 -149.6 74.85 -158.95 99.35 -149.6 100.1 -149.2 100.9 -148.75 107.2 -145.25 114.0 -140.3 124.5 -132.6 136.0 -121.4 124.5 -132.6 114.0 -140.3 107.2 -145.25 100.9 -148.75 108.15 -150.75 121.5 -152.05 145.3 -150.45 154.3 -140.55 156.9 -135.65 148.85 -128.85 L152.95 -126.0 156.2 -123.55 146.7 -118.25 142.7 -107.1 175.95 -83.0 191.45 -96.9 193.95 -95.0 218.7 -95.85 242.95 -96.65 Q276.8 -98.6 279.25 -81.1 L280.5 -62.35 280.5 -62.25 280.7 -58.95 220.6 -54.8 155.05 -50.3 150.4 -66.95 152.9 -67.15 145.9 -92.2 142.7 -94.65 135.4 -120.85 135.55 -120.9 136.2 -121.2 136.0 -121.4 135.55 -120.9 135.35 -121.0 Q107.25 -131.15 90.6 -140.3 87.15 -142.2 84.2 -144.05 78.8 -140.25 68.85 -137.3 L63.2 -135.8 53.4 -133.8 Q44.05 -132.15 32.3 -130.95 L-17.55 -127.95 -32.2 -117.7 M282.65 -29.95 L282.65 -29.85 283.85 -11.0 Q284.85 4.5 230.95 16.0 L223.9 16.85 209.0 18.5 208.95 18.5 202.65 19.15 198.55 76.35 197.15 76.4 184.45 58.95 197.15 76.4 189.2 76.75 189.2 76.65 182.25 55.95 184.45 58.95 185.3 48.05 187.35 20.55 188.95 -0.95 Q196.65 -6.15 203.95 -2.0 L202.65 19.15 203.95 -2.0 Q196.65 -6.15 188.95 -0.95 L187.35 20.55 175.05 21.6 161.4 -27.4 221.8 -29.2 282.55 -31.0 282.55 -30.95 282.65 -29.95 M205.95 76.05 L264.2 73.8 Q352.9 70.9 384.75 80.15 L384.8 80.2 385.1 93.0 385.55 113.25 Q361.75 124.3 304.4 129.15 L206.15 134.25 196.0 100.45 385.1 93.0 196.0 100.45 189.5 78.85 189.85 78.75 189.95 78.7 198.4 78.1 198.55 76.35 205.95 76.05 M114.0 -140.3 Q134.1 -138.3 148.85 -128.85 134.1 -138.3 114.0 -140.3 M26.6 -76.95 L16.95 -65.0 20.95 -59.0 31.0 -59.65 35.45 -42.05 -105.45 -31.55 -322.6 -17.15 -312.9 -30.85 -435.0 -16.0 -458.4 -16.45 -487.35 -17.05 -458.4 -16.45 -469.65 -4.6 Q-481.25 -9.6 -487.35 -17.05 L-487.6 -17.9 -487.9 -17.8 Q-491.35 -22.3 -492.85 -27.65 L-492.0 -28.0 Q-469.15 -26.35 -463.1 -41.05 -461.2 -45.7 -461.0 -52.0 L-455.0 -104.0 Q-447.55 -178.2 -417.0 -187.0 L-413.95 -187.2 Q-382.1 -187.8 -347.0 -133.0 L-169.05 -88.0 -29.45 -116.75 20.95 -99.15 26.6 -76.95 M37.05 -35.9 L38.4 -30.6 -190.25 -18.85 -264.2 -15.75 -325.0 -13.85 -264.2 -15.75 -325.9 -12.55 40.1 -23.85 52.95 26.45 19.5 26.3 15.6 26.25 20.95 16.0 Q12.45 13.4 3.95 17.05 L-0.75 25.8 3.95 17.05 Q12.45 13.4 20.95 16.0 L15.6 26.25 -14.9 84.6 -33.65 85.3 -0.75 25.8 -340.95 8.6 -325.9 -12.55 -325.0 -13.85 -322.65 -17.15 37.05 -35.9 M219.65 -75.9 L220.6 -54.8 219.65 -75.9 Q205.1 -77.85 202.4 -83.3 204.4 -87.45 219.0 -90.1 204.4 -87.45 202.4 -83.3 205.1 -77.85 219.65 -75.9 L242.7 -74.8 219.65 -75.9 M218.7 -95.85 L219.0 -90.1 218.7 -95.85 M158.8 -36.75 L157.4 -41.85 221.05 -45.0 281.45 -48.0 281.75 -43.05 221.3 -39.95 221.05 -45.0 221.3 -39.95 158.8 -36.75 M219.0 -90.1 Q227.95 -91.75 241.65 -92.85 L242.7 -75.35 241.65 -92.85 Q227.95 -91.75 219.0 -90.1 M162.05 -67.55 L178.55 -68.8 155.75 -86.0 162.05 -67.55 M223.9 16.85 L221.8 -29.2 223.9 16.85 M73.6 105.25 L81.8 136.55 Q-54.2 137.15 -227.95 130.65 L-227.2 92.75 -33.95 85.35 -33.95 85.85 -15.6 85.85 -14.9 84.6 -2.05 84.1 48.25 82.15 48.3 82.7 48.05 83.2 48.3 82.7 65.0 82.7 65.55 81.5 67.4 81.4 73.6 105.25 -227.0 114.0 73.6 105.25 M66.7 78.75 L65.55 81.5 48.55 82.15 60.6 55.5 66.7 78.75 M19.95 25.0 L19.5 26.3 19.95 25.0 M-413.0 -164.0 L-412.15 -164.05 -413.0 -164.0 M-374.0 -166.0 L-412.15 -164.05 -413.95 -187.2 -412.15 -164.05 -374.0 -166.0 M-412.15 -164.05 L-403.0 -45.0 -463.1 -41.05 -403.0 -45.0 -412.15 -164.05 M-313.0 -32.0 Q-407.85 -34.9 -450.0 -29.0 L-487.6 -17.9 -450.0 -29.0 Q-407.85 -34.9 -313.0 -32.0 M-43.1 -94.35 L-47.45 -62.7 -0.05 -67.0 -2.05 -103.0 -43.1 -94.35 M-143.05 -74.0 L-143.05 -54.0 -121.9 -55.9 -118.5 -79.05 -143.05 -74.0 M-107.4 -81.3 L-111.8 -56.85 -63.05 -61.25 -63.0 -61.25 -58.05 -91.25 -107.4 -81.3" fill="#ffffff" fill-rule="evenodd" stroke="none"/>
    <path d="M189.5 78.85 L196.0 100.45 73.6 105.25 67.4 81.4 74.25 81.15 181.85 77.0 183.0 78.55 182.95 78.95 183.3 78.95 189.5 78.75 189.5 78.8 189.5 78.85 M73.95 82.0 L74.25 81.15 73.95 82.0" fill="#8ea0ac" fill-rule="evenodd" stroke="none"/>
    <path d="M70.15 -113.65 L94.25 -120.15 94.8 -108.3 97.75 -46.35 98.15 -38.95 98.4 -33.65 98.75 -25.55 100.55 11.65 77.2 12.7 75.15 -24.85 74.75 -32.45 74.45 -37.75 74.05 -44.7 73.1 -62.35 71.1 -98.7 70.8 -104.0 70.3 -113.0 70.15 -113.65 M158.15 22.8 L182.25 55.95 189.2 76.65 188.95 76.75 189.2 76.75 197.15 76.4 198.4 78.1 189.95 78.7 189.5 78.75 183.3 78.95 183.0 78.55 181.85 77.0 141.8 23.85 135.0 13.75 Q142.7 9.9 150.4 12.15 L158.15 22.8 M73.8 26.25 L77.7 16.9 Q85.7 13.65 93.65 16.4 L89.55 25.95 66.7 78.75 60.6 55.5 73.8 26.25" fill="#728896" fill-rule="evenodd" stroke="none"/>
    <path d="M-32.2 -117.7 L-17.55 -127.95 32.3 -130.95 Q44.05 -132.15 53.4 -133.8 L63.2 -135.8 68.85 -137.3 Q78.8 -140.25 84.2 -144.05 87.15 -142.2 90.6 -140.3 107.25 -131.15 135.35 -121.0 L135.4 -120.85 Q119.4 -113.5 94.8 -108.3 L94.25 -120.15 70.15 -113.65 70.3 -113.0 70.8 -104.0 Q49.0 -100.75 22.15 -98.7 L20.95 -99.15 -29.45 -116.75 -32.2 -117.7 M95.25 -120.45 L94.25 -120.15 94.2 -120.95 94.25 -120.15 95.25 -120.45" fill="#536571" fill-rule="evenodd" stroke="none"/>
    <path d="M196.0 100.45 L206.15 134.25 Q148.5 136.25 81.8 136.55 L73.6 105.25 196.0 100.45" fill="#8599a5" fill-rule="evenodd" stroke="none"/>
    <path d="M-322.65 -17.15 L-325.0 -13.85 -325.9 -12.55 -340.95 8.6 -431.0 4.0 Q-454.8 1.75 -469.65 -4.6 L-458.4 -16.45 -435.0 -16.0 -312.9 -30.85 -322.6 -17.15 -323.1 -17.15 -323.7 -17.1 -322.65 -17.15 M-325.9 -12.55 L-327.15 -12.5 -325.9 -12.55 M-323.1 -17.15 L-437.0 -10.0 -325.0 -13.85 -437.0 -10.0 -323.1 -17.15" fill="#6f818d" fill-rule="evenodd" stroke="none"/>
    <path d="M384.8 80.2 Q400.2 84.65 402.2 92.0 404.25 104.55 385.55 113.25 L385.1 93.0 384.8 80.2" fill="#2b2b2b" fill-rule="evenodd" stroke="none"/>
    <path d="M208.95 18.5 L205.95 76.05 198.55 76.35 202.65 19.15 208.95 18.5 M185.3 48.05 L184.45 58.95 182.25 55.95 158.15 22.8 164.95 22.35 164.95 23.0 185.3 48.05 M89.55 25.95 L93.7 25.85 74.25 81.15 67.4 81.4 65.55 81.5 66.7 78.75 89.55 25.95 M19.5 26.3 L-2.05 84.1 -14.9 84.6 15.6 26.25 19.5 26.3" fill="#333333" fill-rule="evenodd" stroke="none"/>
    <path d="M156.2 -123.55 L191.45 -96.9 175.95 -83.0 142.7 -107.1 146.7 -118.25 156.2 -123.55 M71.1 -98.7 L73.1 -62.35 31.0 -59.65 20.95 -59.0 16.95 -65.0 26.6 -76.95 41.95 -96.0 71.1 -98.7 M150.4 -66.95 L124.95 -65.0 113.95 -103.0 128.95 -105.0 142.7 -94.65 145.9 -92.2 152.9 -67.15 150.4 -66.95 M162.05 -67.55 L155.75 -86.0 178.55 -68.8 162.05 -67.55 M-107.4 -81.3 L-58.05 -91.25 -63.0 -61.25 -63.05 -61.25 -111.8 -56.85 -107.4 -81.3 M-143.05 -74.0 L-118.5 -79.05 -121.9 -55.9 -143.05 -54.0 -143.05 -74.0 M-43.1 -94.35 L-2.05 -103.0 -0.05 -67.0 -47.45 -62.7 -43.1 -94.35" fill="#373737" fill-rule="evenodd" stroke="none"/>
    <path d="M70.8 -104.0 L71.1 -98.7 41.95 -96.0 26.6 -76.95 20.95 -99.15 22.15 -98.7 Q49.0 -100.75 70.8 -104.0 M73.1 -62.35 L74.05 -44.7 35.45 -42.05 31.0 -59.65 73.1 -62.35 M74.45 -37.75 L74.75 -32.45 38.4 -30.6 37.05 -35.9 74.45 -37.75 M75.15 -24.85 L77.2 12.7 100.55 11.65 98.75 -25.55 161.4 -27.4 175.05 21.6 164.95 22.35 158.15 22.8 150.4 12.15 Q142.7 9.9 135.0 13.75 L141.8 23.85 93.7 25.85 89.55 25.95 93.65 16.4 Q85.7 13.65 77.7 16.9 L73.8 26.25 52.95 26.45 40.1 -23.85 75.15 -24.85 M98.4 -33.65 L98.15 -38.95 157.4 -41.85 158.8 -36.75 98.4 -33.65 M97.75 -46.35 L94.8 -108.3 Q119.4 -113.5 135.4 -120.85 L142.7 -94.65 128.95 -105.0 113.95 -103.0 124.95 -65.0 150.4 -66.95 155.05 -50.3 97.75 -46.35 M93.95 25.0 L93.7 25.85 93.95 25.0" fill="#98a9b4" fill-rule="evenodd" stroke="none"/>
    <path d="M280.5 -62.25 Q307.4 -63.6 322.8 -50.1 315.05 -35.25 282.75 -30.0 L282.55 -30.95 282.55 -31.0 281.75 -43.05 281.45 -48.0 280.7 -58.95 280.5 -62.25" fill="url(#gradient0)" fill-rule="evenodd" stroke="none"/>
    <path d="M100.9 -148.75 Q100.1 -149.2 99.35 -149.6 74.85 -158.95 35.35 -149.6 -4.8 -140.35 -35.7 -127.45 L-32.65 -117.85 -32.2 -117.7 -29.45 -116.75 -169.05 -88.0 -347.0 -133.0 Q-382.1 -187.8 -413.95 -187.2 L-414.0 -188.0 M135.35 -121.0 L135.55 -120.9 136.2 -121.2 136.0 -121.4 Q124.5 -132.6 114.0 -140.3 107.2 -145.25 100.9 -148.75 108.15 -150.75 121.5 -152.05 145.3 -150.45 154.3 -140.55 156.9 -135.65 148.85 -128.85 L152.95 -126.0 156.2 -123.55 191.45 -96.9 193.95 -95.0 218.7 -95.85 242.95 -96.65 Q276.8 -98.6 279.25 -81.1 L280.5 -62.35 280.5 -62.25 Q307.4 -63.6 322.8 -50.1 315.05 -35.25 282.75 -30.0 L282.65 -29.95 282.65 -29.85 283.85 -11.0 Q284.85 4.5 230.95 16.0 L223.9 16.85 209.0 18.5 208.95 18.5 205.95 76.05 264.2 73.8 Q352.9 70.9 384.75 80.15 L384.8 80.2 Q400.2 84.65 402.2 92.0 404.25 104.55 385.55 113.25 L385.55 114.0 M94.2 -120.95 L94.25 -120.15 95.25 -120.45 M94.8 -108.3 L94.25 -120.15 70.15 -113.65 M70.3 -113.0 L70.8 -104.0 71.1 -98.7 73.1 -62.35 74.05 -44.7 74.45 -37.75 74.75 -32.45 75.15 -24.85 77.2 12.7 100.55 11.65 98.75 -25.55 98.4 -33.65 98.15 -38.95 97.75 -46.35 94.8 -108.3 Q119.4 -113.5 135.4 -120.85 L135.55 -120.9 M148.85 -128.85 Q134.1 -138.3 114.0 -140.3 M219.65 -75.9 Q205.1 -77.85 202.4 -83.3 204.4 -87.45 219.0 -90.1 227.95 -91.75 241.65 -92.85 L242.7 -75.35 M280.7 -58.95 L280.5 -62.25 M70.8 -104.0 Q49.0 -100.75 22.15 -98.7 L20.95 -99.15 -29.45 -116.75 M219.65 -75.9 L242.7 -74.8 M281.75 -43.05 L281.45 -48.0 280.7 -58.95 M202.65 19.15 L203.95 -2.0 Q196.65 -6.15 188.95 -0.95 L187.35 20.55 185.3 48.05 184.45 58.95 197.15 76.4 198.55 76.35 202.65 19.15 208.95 18.5 M281.75 -43.05 L282.55 -31.0 282.55 -30.95 282.65 -29.95 M175.05 21.6 L187.35 20.55 M385.1 93.0 L384.8 80.2 M385.55 113.25 L385.1 93.0 M206.15 134.25 L304.4 129.15 Q361.75 124.3 385.55 113.25 M164.95 23.0 L185.3 48.05 M175.05 21.6 L164.95 22.35 158.15 22.8 182.25 55.95 184.45 58.95 M198.55 76.35 L198.4 78.1 189.95 78.7 M81.8 136.55 Q148.5 136.25 206.15 134.25 M198.4 78.1 L197.15 76.4 M189.2 76.75 L188.95 76.75 M189.85 78.75 L189.5 78.75 183.3 78.95 182.95 78.95 183.0 78.55 181.85 77.0 74.25 81.15 73.95 82.0 M183.0 78.55 L183.3 78.95 M205.95 76.05 L198.55 76.35 M158.15 22.8 L150.4 12.15 Q142.7 9.9 135.0 13.75 L141.8 23.85 181.85 77.0 M89.55 25.95 L93.7 25.85 93.95 25.0 M73.8 26.25 L77.7 16.9 Q85.7 13.65 93.65 16.4 L89.55 25.95 66.7 78.75 65.55 81.5 67.4 81.4 74.25 81.15 93.7 25.85 141.8 23.85 M73.8 26.25 L52.95 26.45 19.5 26.3 -2.05 84.1 48.25 82.15 48.55 82.15 60.6 55.5 73.8 26.25 M-0.75 25.8 L3.95 17.05 Q12.45 13.4 20.95 16.0 L15.6 26.25 19.5 26.3 19.95 25.0 M48.3 82.7 L48.05 83.2 M48.3 82.7 L48.55 82.15 M65.55 81.5 L65.0 82.7 48.3 82.7 M-340.95 8.6 L-0.75 25.8 -33.65 85.3 -33.95 85.35 -227.2 92.75 -227.95 130.65 Q-54.2 137.15 81.8 136.55 M-14.9 84.6 L15.6 26.25 M-487.6 -17.9 L-487.9 -17.8 -487.35 -17.05 -458.4 -16.45 -435.0 -16.0 -312.9 -30.85 M-487.9 -17.8 L-490.0 -17.0 -487.35 -17.05 Q-481.25 -9.6 -469.65 -4.6 -454.8 1.75 -431.0 4.0 L-340.95 8.6 M-487.9 -17.8 Q-491.35 -22.3 -492.85 -27.65 M-492.0 -28.0 Q-469.15 -26.35 -463.1 -41.05 L-464.0 -41.0 M-412.15 -164.05 L-413.0 -164.0 M-463.1 -41.05 Q-461.2 -45.7 -461.0 -52.0 L-455.0 -104.0 Q-447.55 -178.2 -417.0 -187.0 L-413.95 -187.2 M-487.6 -17.9 L-450.0 -29.0 Q-407.85 -34.9 -313.0 -32.0 M-33.95 85.85 L-15.6 85.85 -14.9 84.6 -2.05 84.1 M-33.95 85.85 L-33.65 85.3 M-227.2 92.75 L-227.2 92.0" fill="none" stroke="#000000" stroke-linecap="round" stroke-linejoin="round" stroke-width="6.0"/>
    <path d="M-32.2 -117.7 L-17.55 -127.95 32.3 -130.95 Q44.05 -132.15 53.4 -133.8 L63.2 -135.8 68.85 -137.3 Q78.8 -140.25 84.2 -144.05 87.15 -142.2 90.6 -140.3 107.25 -131.15 135.35 -121.0" fill="none" stroke="#6f6f6f" stroke-linecap="round" stroke-linejoin="round" stroke-width="6.0"/>
    <path d="M220.6 -54.8 L219.65 -75.9 M219.0 -90.1 L218.7 -95.85 M221.8 -29.2 L223.9 16.85 M221.05 -45.0 L221.3 -39.95 M-413.95 -187.2 L-412.15 -164.05 -374.0 -166.0 M-463.1 -41.05 L-403.0 -45.0 -412.15 -164.05" fill="none" stroke="#848484" stroke-linecap="round" stroke-linejoin="round" stroke-width="6.0"/>
    <path d="M221.05 -45.0 L220.6 -54.8 M221.8 -29.2 L221.3 -39.95" fill="none" stroke="#651401" stroke-linecap="round" stroke-linejoin="round" stroke-width="6.0"/>
    <path d="M196.0 100.45 L73.6 105.25" fill="none" stroke="#555555" stroke-linecap="round" stroke-linejoin="round" stroke-width="6.0"/>
    <path d="M385.1 93.0 L196.0 100.45 M73.6 105.25 L-227.0 114.0" fill="none" stroke="#666666" stroke-linecap="round" stroke-linejoin="round" stroke-width="6.0"/>
    <path d="M-325.0 -13.85 L-437.0 -10.0 -323.1 -17.15" fill="none" stroke="#660000" stroke-linecap="round" stroke-linejoin="round" stroke-width="6.0"/>
    <path d="M-105.45 -31.55 L24.95 -39.0 M-325.0 -13.85 L-264.2 -15.75 -190.25 -18.85 -29.05 -24.0 M-322.6 -17.15 L-105.45 -31.55 M-323.1 -17.15 L-322.6 -17.15" fill="none" stroke="#ba2501" stroke-linecap="round" stroke-linejoin="round" stroke-width="6.0"/>
    <path d="M38.4 -30.6 L40.1 -23.85 -325.9 -12.55 -327.15 -12.5 -325.9 -12.55 -264.2 -15.75 -190.25 -18.85 38.4 -30.6 M37.05 -35.9 L-322.65 -17.15 -323.7 -17.1 -323.1 -17.15 -322.6 -17.15 -105.45 -31.55 35.45 -42.05 37.05 -35.9 M24.95 -39.0 L-105.45 -31.55 24.95 -39.0 M155.05 -50.3 L220.6 -54.8 221.05 -45.0 220.6 -54.8 280.7 -58.95 281.45 -48.0 221.05 -45.0 157.4 -41.85 155.05 -50.3 M161.4 -27.4 L158.8 -36.75 221.3 -39.95 221.8 -29.2 221.3 -39.95 281.75 -43.05 282.55 -31.0 221.8 -29.2 161.4 -27.4 M-29.05 -24.0 L-190.25 -18.85 -29.05 -24.0" fill="#ba2501" fill-rule="evenodd" stroke="none"/>
    <path d="M74.05 -44.7 L74.45 -37.75 37.05 -35.9 35.45 -42.05 74.05 -44.7 M74.75 -32.45 L75.15 -24.85 40.1 -23.85 38.4 -30.6 74.75 -32.45 M98.75 -25.55 L98.4 -33.65 158.8 -36.75 161.4 -27.4 98.75 -25.55 M98.15 -38.95 L97.75 -46.35 155.05 -50.3 157.4 -41.85 98.15 -38.95" fill="#761801" fill-rule="evenodd" stroke="none"/>
    <path d="M-32.2 -117.7 L-32.65 -117.85 -35.7 -127.45 Q-4.8 -140.35 35.35 -149.6 74.85 -158.95 99.35 -149.6 100.1 -149.2 100.9 -148.75 107.2 -145.25 114.0 -140.3 124.5 -132.6 136.0 -121.4 124.5 -132.6 114.0 -140.3 107.2 -145.25 100.9 -148.75 108.15 -150.75 121.5 -152.05 145.3 -150.45 154.3 -140.55 156.9 -135.65 148.85 -128.85 L152.95 -126.0 156.2 -123.55 146.7 -118.25 142.7 -107.1 175.95 -83.0 191.45 -96.9 193.95 -95.0 218.7 -95.85 242.95 -96.65 Q276.8 -98.6 279.25 -81.1 L280.5 -62.35 280.5 -62.25 280.7 -58.95 220.6 -54.8 155.05 -50.3 150.4 -66.95 152.9 -67.15 145.9 -92.2 142.7 -94.65 135.4 -120.85 135.55 -120.9 136.2 -121.2 136.0 -121.4 135.55 -120.9 135.35 -121.0 Q107.25 -131.15 90.6 -140.3 87.15 -142.2 84.2 -144.05 78.8 -140.25 68.85 -137.3 L63.2 -135.8 53.4 -133.8 Q44.05 -132.15 32.3 -130.95 L-17.55 -127.95 -32.2 -117.7 M282.65 -29.95 L282.65 -29.85 283.85 -11.0 Q284.85 4.5 230.95 16.0 L223.9 16.85 209.0 18.5 208.95 18.5 202.65 19.15 198.55 76.35 197.15 76.4 184.45 58.95 197.15 76.4 189.2 76.75 189.2 76.65 182.25 55.95 184.45 58.95 185.3 48.05 187.35 20.55 188.95 -0.95 Q196.65 -6.15 203.95 -2.0 L202.65 19.15 203.95 -2.0 Q196.65 -6.15 188.95 -0.95 L187.35 20.55 175.05 21.6 161.4 -27.4 221.8 -29.2 282.55 -31.0 282.55 -30.95 282.65 -29.95 M205.95 76.05 L264.2 73.8 Q352.9 70.9 384.75 80.15 L384.8 80.2 385.1 93.0 385.55 113.25 Q361.75 124.3 304.4 129.15 L206.15 134.25 196.0 100.45 189.5 78.85 189.85 78.75 189.95 78.7 198.4 78.1 198.55 76.35 205.95 76.05 M114.0 -140.3 Q134.1 -138.3 148.85 -128.85 134.1 -138.3 114.0 -140.3 M26.6 -76.95 L16.95 -65.0 20.95 -59.0 31.0 -59.65 35.45 -42.05 -105.45 -31.55 -322.6 -17.15 -312.9 -30.85 -435.0 -16.0 -458.4 -16.45 -487.35 -17.05 -458.4 -16.45 -469.65 -4.6 Q-481.25 -9.6 -487.35 -17.05 L-487.6 -17.9 -487.9 -17.8 Q-491.35 -22.3 -492.85 -27.65 L-492.0 -28.0 Q-469.15 -26.35 -463.1 -41.05 -461.2 -45.7 -461.0 -52.0 L-455.0 -104.0 Q-447.55 -178.2 -417.0 -187.0 L-413.95 -187.2 -412.15 -164.05 -374.0 -166.0 -412.15 -164.05 -413.95 -187.2 Q-382.1 -187.8 -347.0 -133.0 L-169.05 -88.0 -29.45 -116.75 20.95 -99.15 26.6 -76.95 M37.05 -35.9 L38.4 -30.6 -190.25 -18.85 -264.2 -15.75 -325.0 -13.85 -264.2 -15.75 -325.9 -12.55 40.1 -23.85 52.95 26.45 19.5 26.3 19.95 25.0 19.5 26.3 15.6 26.25 20.95 16.0 Q12.45 13.4 3.95 17.05 L-0.75 25.8 3.95 17.05 Q12.45 13.4 20.95 16.0 L15.6 26.25 -14.9 84.6 -2.05 84.1 48.25 82.15 48.3 82.7 48.05 83.2 48.3 82.7 65.0 82.7 65.55 81.5 67.4 81.4 73.6 105.25 81.8 136.55 Q-54.2 137.15 -227.95 130.65 L-227.2 92.75 -33.95 85.35 -33.95 85.85 -15.6 85.85 -14.9 84.6 -33.65 85.3 -0.75 25.8 -340.95 8.6 -325.9 -12.55 -325.0 -13.85 -322.65 -17.15 37.05 -35.9 M219.65 -75.9 L220.6 -54.8 219.65 -75.9 Q205.1 -77.85 202.4 -83.3 204.4 -87.45 219.0 -90.1 204.4 -87.45 202.4 -83.3 205.1 -77.85 219.65 -75.9 L242.7 -74.8 219.65 -75.9 M218.7 -95.85 L219.0 -90.1 218.7 -95.85 M158.8 -36.75 L157.4 -41.85 221.05 -45.0 221.3 -39.95 158.8 -36.75 M242.7 -75.35 L241.65 -92.85 Q227.95 -91.75 219.0 -90.1 227.95 -91.75 241.65 -92.85 L242.7 -75.35 M162.05 -67.55 L178.55 -68.8 155.75 -86.0 162.05 -67.55 M221.3 -39.95 L221.05 -45.0 281.45 -48.0 281.75 -43.05 221.3 -39.95 M66.7 78.75 L65.55 81.5 48.55 82.15 60.6 55.5 66.7 78.75 M-227.0 114.0 L73.6 105.25 -227.0 114.0 M385.1 93.0 L196.0 100.45 385.1 93.0 M221.8 -29.2 L223.9 16.85 221.8 -29.2 M-413.0 -164.0 L-412.15 -164.05 -413.0 -164.0 M-412.15 -164.05 L-403.0 -45.0 -463.1 -41.05 -403.0 -45.0 -412.15 -164.05 M-313.0 -32.0 Q-407.85 -34.9 -450.0 -29.0 L-487.6 -17.9 -450.0 -29.0 Q-407.85 -34.9 -313.0 -32.0 M-43.1 -94.35 L-47.45 -62.7 -0.05 -67.0 -2.05 -103.0 -43.1 -94.35 M-143.05 -74.0 L-143.05 -54.0 -121.9 -55.9 -118.5 -79.05 -143.05 -74.0 M-107.4 -81.3 L-111.8 -56.85 -63.05 -61.25 -63.0 -61.25 -58.05 -91.25 -107.4 -81.3" fill="#ffffff" fill-rule="evenodd" stroke="none"/>
    <path d="M181.85 77.0 L183.0 78.55 182.95 78.95 183.3 78.95 189.5 78.75 189.5 78.8 189.5 78.85 196.0 100.45 73.6 105.25 67.4 81.4 74.25 81.15 73.95 82.0 74.25 81.15 181.85 77.0" fill="#8ea0ac" fill-rule="evenodd" stroke="none"/>
    <path d="M70.15 -113.65 L94.25 -120.15 94.8 -108.3 97.75 -46.35 98.15 -38.95 98.4 -33.65 98.75 -25.55 100.55 11.65 77.2 12.7 75.15 -24.85 74.75 -32.45 74.45 -37.75 74.05 -44.7 73.1 -62.35 71.1 -98.7 70.8 -104.0 70.3 -113.0 70.15 -113.65 M197.15 76.4 L198.4 78.1 189.95 78.7 189.5 78.75 183.3 78.95 183.0 78.55 181.85 77.0 141.8 23.85 135.0 13.75 Q142.7 9.9 150.4 12.15 L158.15 22.8 182.25 55.95 189.2 76.65 188.95 76.75 189.2 76.75 197.15 76.4 M73.8 26.25 L77.7 16.9 Q85.7 13.65 93.65 16.4 L89.55 25.95 66.7 78.75 60.6 55.5 73.8 26.25" fill="#728896" fill-rule="evenodd" stroke="none"/>
    <path d="M-32.2 -117.7 L-17.55 -127.95 32.3 -130.95 Q44.05 -132.15 53.4 -133.8 L63.2 -135.8 68.85 -137.3 Q78.8 -140.25 84.2 -144.05 87.15 -142.2 90.6 -140.3 107.25 -131.15 135.35 -121.0 L135.4 -120.85 Q119.4 -113.5 94.8 -108.3 L94.25 -120.15 70.15 -113.65 70.3 -113.0 70.8 -104.0 Q49.0 -100.75 22.15 -98.7 L20.95 -99.15 -29.45 -116.75 -32.2 -117.7 M95.25 -120.45 L94.25 -120.15 94.2 -120.95 94.25 -120.15 95.25 -120.45" fill="#536571" fill-rule="evenodd" stroke="none"/>
    <path d="M206.15 134.25 Q148.5 136.25 81.8 136.55 L73.6 105.25 196.0 100.45 206.15 134.25" fill="#8599a5" fill-rule="evenodd" stroke="none"/>
    <path d="M-322.65 -17.15 L-325.0 -13.85 -325.9 -12.55 -340.95 8.6 -431.0 4.0 Q-454.8 1.75 -469.65 -4.6 L-458.4 -16.45 -435.0 -16.0 -312.9 -30.85 -322.6 -17.15 -323.1 -17.15 -323.7 -17.1 -322.65 -17.15 M-325.9 -12.55 L-327.15 -12.5 -325.9 -12.55 M-437.0 -10.0 L-325.0 -13.85 -437.0 -10.0 -323.1 -17.15 -437.0 -10.0" fill="#6f818d" fill-rule="evenodd" stroke="none"/>
    <path d="M384.8 80.2 Q400.2 84.65 402.2 92.0 404.25 104.55 385.55 113.25 L385.1 93.0 384.8 80.2" fill="#2b2b2b" fill-rule="evenodd" stroke="none"/>
    <path d="M208.95 18.5 L205.95 76.05 198.55 76.35 202.65 19.15 208.95 18.5 M185.3 48.05 L184.45 58.95 182.25 55.95 158.15 22.8 164.95 22.35 164.95 23.0 185.3 48.05 M89.55 25.95 L93.7 25.85 74.25 81.15 67.4 81.4 65.55 81.5 66.7 78.75 89.55 25.95 M19.5 26.3 L-2.05 84.1 -14.9 84.6 15.6 26.25 19.5 26.3" fill="#333333" fill-rule="evenodd" stroke="none"/>
    <path d="M156.2 -123.55 L191.45 -96.9 175.95 -83.0 142.7 -107.1 146.7 -118.25 156.2 -123.55 M71.1 -98.7 L73.1 -62.35 31.0 -59.65 20.95 -59.0 16.95 -65.0 26.6 -76.95 41.95 -96.0 71.1 -98.7 M150.4 -66.95 L124.95 -65.0 113.95 -103.0 128.95 -105.0 142.7 -94.65 145.9 -92.2 152.9 -67.15 150.4 -66.95 M162.05 -67.55 L155.75 -86.0 178.55 -68.8 162.05 -67.55 M-107.4 -81.3 L-58.05 -91.25 -63.0 -61.25 -63.05 -61.25 -111.8 -56.85 -107.4 -81.3 M-143.05 -74.0 L-118.5 -79.05 -121.9 -55.9 -143.05 -54.0 -143.05 -74.0 M-43.1 -94.35 L-2.05 -103.0 -0.05 -67.0 -47.45 -62.7 -43.1 -94.35" fill="#373737" fill-rule="evenodd" stroke="none"/>
    <path d="M70.8 -104.0 L71.1 -98.7 41.95 -96.0 26.6 -76.95 20.95 -99.15 22.15 -98.7 Q49.0 -100.75 70.8 -104.0 M73.1 -62.35 L74.05 -44.7 35.45 -42.05 31.0 -59.65 73.1 -62.35 M74.45 -37.75 L74.75 -32.45 38.4 -30.6 37.05 -35.9 74.45 -37.75 M75.15 -24.85 L77.2 12.7 100.55 11.65 98.75 -25.55 161.4 -27.4 175.05 21.6 164.95 22.35 158.15 22.8 150.4 12.15 Q142.7 9.9 135.0 13.75 L141.8 23.85 93.7 25.85 93.95 25.0 93.7 25.85 89.55 25.95 93.65 16.4 Q85.7 13.65 77.7 16.9 L73.8 26.25 52.95 26.45 40.1 -23.85 75.15 -24.85 M98.4 -33.65 L98.15 -38.95 157.4 -41.85 158.8 -36.75 98.4 -33.65 M97.75 -46.35 L94.8 -108.3 Q119.4 -113.5 135.4 -120.85 L142.7 -94.65 128.95 -105.0 113.95 -103.0 124.95 -65.0 150.4 -66.95 155.05 -50.3 97.75 -46.35" fill="#98a9b4" fill-rule="evenodd" stroke="none"/>
    <path d="M280.5 -62.25 Q307.4 -63.6 322.8 -50.1 315.05 -35.25 282.75 -30.0 L282.55 -30.95 282.55 -31.0 281.75 -43.05 281.45 -48.0 280.7 -58.95 280.5 -62.25" fill="url(#gradient1)" fill-rule="evenodd" stroke="none"/>
    <path d="M100.9 -148.75 Q100.1 -149.2 99.35 -149.6 74.85 -158.95 35.35 -149.6 -4.8 -140.35 -35.7 -127.45 L-32.65 -117.85 -32.2 -117.7 -29.45 -116.75 20.95 -99.15 22.15 -98.7 Q49.0 -100.75 70.8 -104.0 L71.1 -98.7 73.1 -62.35 74.05 -44.7 74.45 -37.75 74.75 -32.45 75.15 -24.85 77.2 12.7 100.55 11.65 98.75 -25.55 98.4 -33.65 98.15 -38.95 97.75 -46.35 94.8 -108.3 Q119.4 -113.5 135.4 -120.85 L135.55 -120.9 136.2 -121.2 136.0 -121.4 Q124.5 -132.6 114.0 -140.3 107.2 -145.25 100.9 -148.75 108.15 -150.75 121.5 -152.05 145.3 -150.45 154.3 -140.55 156.9 -135.65 148.85 -128.85 L152.95 -126.0 156.2 -123.55 191.45 -96.9 193.95 -95.0 218.7 -95.85 242.95 -96.65 Q276.8 -98.6 279.25 -81.1 L280.5 -62.35 280.5 -62.25 Q307.4 -63.6 322.8 -50.1 315.05 -35.25 282.75 -30.0 L282.65 -29.95 282.65 -29.85 283.85 -11.0 Q284.85 4.5 230.95 16.0 L223.9 16.85 209.0 18.5 208.95 18.5 205.95 76.05 264.2 73.8 Q352.9 70.9 384.75 80.15 L384.8 80.2 Q400.2 84.65 402.2 92.0 404.25 104.55 385.55 113.25 L385.55 114.0 M135.35 -121.0 L135.55 -120.9 M94.8 -108.3 L94.25 -120.15 70.15 -113.65 M70.3 -113.0 L70.8 -104.0 M94.2 -120.95 L94.25 -120.15 95.25 -120.45 M148.85 -128.85 Q134.1 -138.3 114.0 -140.3 M219.65 -75.9 Q205.1 -77.85 202.4 -83.3 204.4 -87.45 219.0 -90.1 227.95 -91.75 241.65 -92.85 L242.7 -75.35 M280.7 -58.95 L280.5 -62.25 M219.65 -75.9 L242.7 -74.8 M202.65 19.15 L203.95 -2.0 Q196.65 -6.15 188.95 -0.95 L187.35 20.55 185.3 48.05 184.45 58.95 197.15 76.4 198.55 76.35 202.65 19.15 208.95 18.5 M281.75 -43.05 L282.55 -31.0 282.55 -30.95 282.65 -29.95 M281.75 -43.05 L281.45 -48.0 280.7 -58.95 M384.8 80.2 L385.1 93.0 385.55 113.25 Q361.75 124.3 304.4 129.15 L206.15 134.25 Q148.5 136.25 81.8 136.55 -54.2 137.15 -227.95 130.65 L-227.2 92.75 -227.2 92.0 M187.35 20.55 L175.05 21.6 164.95 22.35 158.15 22.8 150.4 12.15 Q142.7 9.9 135.0 13.75 L141.8 23.85 181.85 77.0 183.0 78.55 183.3 78.95 189.5 78.75 189.85 78.75 M164.95 23.0 L185.3 48.05 M182.25 55.95 L184.45 58.95 M198.4 78.1 L198.55 76.35 205.95 76.05 M198.4 78.1 L197.15 76.4 M189.2 76.75 L188.95 76.75 M182.25 55.95 L158.15 22.8 M189.95 78.7 L198.4 78.1 M183.0 78.55 L182.95 78.95 183.3 78.95 M93.7 25.85 L93.95 25.0 M89.55 25.95 L93.7 25.85 141.8 23.85 M73.8 26.25 L77.7 16.9 Q85.7 13.65 93.65 16.4 L89.55 25.95 66.7 78.75 65.55 81.5 67.4 81.4 74.25 81.15 93.7 25.85 M73.8 26.25 L52.95 26.45 19.5 26.3 -2.05 84.1 48.25 82.15 48.55 82.15 60.6 55.5 73.8 26.25 M19.5 26.3 L19.95 25.0 M15.6 26.25 L19.5 26.3 M-0.75 25.8 L3.95 17.05 Q12.45 13.4 20.95 16.0 L15.6 26.25 -14.9 84.6 -2.05 84.1 M48.3 82.7 L48.05 83.2 M48.3 82.7 L48.55 82.15 M65.55 81.5 L65.0 82.7 48.3 82.7 M74.25 81.15 L73.95 82.0 M181.85 77.0 L74.25 81.15 M-340.95 8.6 L-0.75 25.8 -33.65 85.3 -33.95 85.85 -15.6 85.85 -14.9 84.6 M-33.95 85.35 L-227.2 92.75 M-487.6 -17.9 L-487.9 -17.8 -487.35 -17.05 -458.4 -16.45 -435.0 -16.0 -312.9 -30.85 M-492.0 -28.0 Q-469.15 -26.35 -463.1 -41.05 L-464.0 -41.0 M-492.85 -27.65 Q-491.35 -22.3 -487.9 -17.8 L-490.0 -17.0 -487.35 -17.05 Q-481.25 -9.6 -469.65 -4.6 -454.8 1.75 -431.0 4.0 L-340.95 8.6 M-412.15 -164.05 L-413.0 -164.0 M-463.1 -41.05 Q-461.2 -45.7 -461.0 -52.0 L-455.0 -104.0 Q-447.55 -178.2 -417.0 -187.0 L-413.95 -187.2 -414.0 -188.0 M-29.45 -116.75 L-169.05 -88.0 -347.0 -133.0 Q-382.1 -187.8 -413.95 -187.2 M-487.6 -17.9 L-450.0 -29.0 Q-407.85 -34.9 -313.0 -32.0 M-33.95 85.35 L-33.65 85.3" fill="none" stroke="#000000" stroke-linecap="round" stroke-linejoin="round" stroke-width="0.05"/>
    <path d="M-325.0 -13.85 L-264.2 -15.75 -190.25 -18.85 -29.05 -24.0 M-105.45 -31.55 L24.95 -39.0 M-322.6 -17.15 L-105.45 -31.55 M-323.1 -17.15 L-322.6 -17.15" fill="none" stroke="#ba2501" stroke-linecap="round" stroke-linejoin="round" stroke-width="0.05"/>
    <path d="M73.6 105.25 L-227.0 114.0 M196.0 100.45 L385.1 93.0" fill="none" stroke="#666666" stroke-linecap="round" stroke-linejoin="round" stroke-width="0.05"/>
    <path d="M220.6 -54.8 L219.65 -75.9 M219.0 -90.1 L218.7 -95.85 M221.05 -45.0 L221.3 -39.95 M223.9 16.85 L221.8 -29.2 M-413.95 -187.2 L-412.15 -164.05 -374.0 -166.0 M-463.1 -41.05 L-403.0 -45.0 -412.15 -164.05" fill="none" stroke="#848484" stroke-linecap="round" stroke-linejoin="round" stroke-width="0.05"/>
    <path d="M-32.2 -117.7 L-17.55 -127.95 32.3 -130.95 Q44.05 -132.15 53.4 -133.8 L63.2 -135.8 68.85 -137.3 Q78.8 -140.25 84.2 -144.05 87.15 -142.2 90.6 -140.3 107.25 -131.15 135.35 -121.0" fill="none" stroke="#6f6f6f" stroke-linecap="round" stroke-linejoin="round" stroke-width="0.05"/>
    <path d="M73.6 105.25 L196.0 100.45" fill="none" stroke="#555555" stroke-linecap="round" stroke-linejoin="round" stroke-width="0.05"/>
    <path d="M221.05 -45.0 L220.6 -54.8 M221.8 -29.2 L221.3 -39.95" fill="none" stroke="#651401" stroke-linecap="round" stroke-linejoin="round" stroke-width="0.05"/>
    <path d="M-437.0 -10.0 L-323.1 -17.15" fill="none" stroke="#660000" stroke-linecap="round" stroke-linejoin="round" stroke-width="0.05"/>
    <path d="M-325.0 -13.85 L-437.0 -10.0" fill="none" stroke="#660000" stroke-linecap="round" stroke-linejoin="round" stroke-width="0.05"/>
    <path d="M-366.4 -108.6 Q-364.45 -107.4 -361.9 -107.7 L-361.8 -107.75 -361.7 -107.85 -357.5 -114.35 -357.45 -114.5 -357.5 -114.7 -357.7 -114.8 Q-367.35 -117.65 -366.95 -122.3 -359.85 -124.15 -355.45 -116.8 L-355.35 -116.65 -355.1 -116.6 Q-350.6 -117.6 -347.7 -112.2 L-347.6 -112.05 Q-341.4 -108.25 -341.4 -104.9 -341.6 -103.65 -344.75 -103.1 -348.25 -102.55 -355.05 -102.85 L-355.2 -102.85 -355.35 -102.65 Q-361.05 -88.85 -370.05 -82.9 L-370.2 -82.75 Q-373.1 -71.15 -377.5 -67.95 -380.55 -70.0 -380.25 -73.0 L-377.05 -71.75 -376.85 -71.7 -376.7 -71.8 -376.6 -72.0 Q-375.6 -79.55 -375.85 -83.3 -376.15 -87.35 -377.9 -87.3 -380.25 -87.85 -381.75 -86.35 -383.25 -84.95 -383.85 -81.6 -385.05 -75.7 -384.35 -71.85 L-381.3 -54.1 -381.15 -53.95 -381.0 -53.85 Q-365.4 -52.15 -356.2 -48.0 L-385.15 -48.0 -390.55 -72.8 -390.55 -72.85 Q-392.5 -78.3 -394.85 -80.75 L-394.9 -80.8 Q-406.35 -86.7 -411.35 -95.8 L-411.5 -95.95 -411.7 -95.95 -411.9 -95.8 Q-428.3 -75.2 -438.35 -80.5 -449.45 -88.35 -448.45 -99.1 -445.0 -90.85 -441.3 -87.65 -437.25 -84.15 -432.9 -86.7 L-432.85 -86.75 Q-422.15 -95.25 -415.1 -109.0 L-415.1 -109.05 Q-412.65 -114.85 -409.85 -119.4 -404.6 -127.95 -397.9 -132.25 -392.9 -135.05 -387.35 -133.9 -377.3 -130.85 -368.15 -112.05 L-366.55 -108.75 -366.4 -108.6 M-407.0 -91.0 L-409.85 -119.4 -407.0 -91.0" fill="#ba2501" fill-rule="evenodd" stroke="none"/>
    <path d="M-409.85 -119.4 L-407.0 -91.0" fill="none" stroke="#760101" stroke-linecap="round" stroke-linejoin="round" stroke-width="0.05"/>
  </g>
  <defs>
    <linearGradient gradientTransform="matrix(0.0, -0.0197, 0.0258, 0.0, 299.95, -42.0)" gradientUnits="userSpaceOnUse" id="gradient0" spreadMethod="pad" x1="-819.2" x2="819.2">
      <stop offset="0.24313725490196078" stop-color="#3f0408"/>
      <stop offset="0.615686274509804" stop-color="#ba2501"/>
    </linearGradient>
    <linearGradient gradientTransform="matrix(0.0, -0.0197, 0.0258, 0.0, 299.95, -42.0)" gradientUnits="userSpaceOnUse" id="gradient1" spreadMethod="pad" x1="-819.2" x2="819.2">
      <stop offset="0.24313725490196078" stop-color="#3f0408"/>
      <stop offset="0.615686274509804" stop-color="#ba2501"/>
    </linearGradient>
  </defs>
</svg>
