<?xml version="1.0" encoding="UTF-8" standalone="no"?>
<svg xmlns:ffdec="https://www.free-decompiler.com/flash" xmlns:xlink="http://www.w3.org/1999/xlink" ffdec:objectType="shape" height="253.0px" width="275.25px" xmlns="http://www.w3.org/2000/svg">
  <g transform="matrix(1.0, 0.0, 0.0, 1.0, 137.6, 126.5)">
    <path d="M-84.15 -83.6 L-84.55 -87.75 Q-84.9 -95.1 -80.05 -106.15 L-73.05 -122.5 Q-70.95 -127.75 -70.5 -126.1 -56.25 -111.95 -51.85 -103.15 -47.5 -94.4 -48.95 -77.55 -49.8 -67.75 -51.2 -58.65 -32.55 -56.65 -16.0 -53.45 2.15 -49.95 28.5 -43.65 54.8 -37.4 59.15 -35.5 L63.7 -33.55 Q94.7 -37.9 123.4 -37.65 L124.4 123.6 Q115.65 122.0 104.2 116.6 82.55 106.4 70.75 96.15 58.9 85.9 52.4 84.7 45.9 83.5 37.35 83.0 28.8 82.55 17.95 80.25 7.05 77.9 0.75 72.0 -5.6 66.1 -13.15 56.6 -20.7 47.1 -27.6 31.35 -34.5 15.55 -38.85 14.15 -43.25 12.75 -54.3 13.85 L-73.85 14.75 Q-82.25 14.55 -87.7 13.2 -93.1 11.85 -96.5 13.3 -99.95 14.7 -101.5 16.95 -103.05 19.2 -106.35 23.2 -109.7 27.2 -116.1 28.9 -122.45 30.6 -122.45 24.9 -122.45 22.5 -119.65 18.55 -121.9 19.85 -124.3 20.55 L-125.75 20.95 Q-126.8 -2.3 -129.35 -6.4 L-129.8 -6.7 -126.05 -11.7 Q-115.2 -26.85 -109.0 -33.85 L-95.2 -49.55 -92.55 -52.4 -92.55 -52.45 Q-102.0 -63.65 -103.75 -78.2 -105.45 -92.2 -104.35 -100.85 -98.1 -98.95 -93.15 -94.75 -88.25 -90.55 -84.85 -83.5 L-84.15 -83.6 Q-83.4 -78.4 -81.45 -73.3 -78.7 -66.25 -76.45 -62.5 L-74.95 -60.3 -81.7 -59.7 Q-86.55 -58.5 -92.55 -52.45 -86.55 -58.5 -81.7 -59.7 L-74.95 -60.3 -76.45 -62.5 Q-78.7 -66.25 -81.45 -73.3 -83.4 -78.4 -84.15 -83.6 M-89.5 0.95 Q-92.05 -0.6 -101.4 2.05 -110.8 4.65 -119.65 18.55 -110.8 4.65 -101.4 2.05 -92.05 -0.6 -89.5 0.95 M-74.95 -60.3 Q-71.95 -56.0 -64.75 -46.95 -71.95 -56.0 -74.95 -60.3 M-53.55 -45.9 Q-52.25 -52.1 -51.2 -58.65 -52.25 -52.1 -53.55 -45.9" fill="#b58147" fill-rule="evenodd" stroke="none"/>
    <path d="M-129.8 -6.7 L-129.35 -6.4 -129.8 -6.7" fill="#997457" fill-rule="evenodd" stroke="none"/>
    <path d="M-129.35 -6.4 Q-126.8 -2.3 -125.75 20.95 L-126.75 21.1 Q-132.7 22.05 -135.55 19.55 -138.4 17.0 -137.25 8.95 -136.35 2.55 -129.8 -6.7 L-129.35 -6.4" fill="#372615" fill-rule="evenodd" stroke="none"/>
    <path d="M-84.15 -83.6 L-84.55 -87.75 Q-84.9 -95.1 -80.05 -106.15 L-73.05 -122.5 Q-70.95 -127.75 -70.5 -126.1 -56.25 -111.95 -51.85 -103.15 -47.5 -94.4 -48.95 -77.55 -49.8 -67.75 -51.2 -58.65 -32.55 -56.65 -16.0 -53.45 2.15 -49.95 28.5 -43.65 54.8 -37.4 59.15 -35.5 L63.7 -33.55 Q94.7 -37.9 123.4 -37.65 L123.4 -39.5 M-104.35 -100.85 L-104.9 -101.05 M-92.55 -52.45 L-92.55 -52.4 -95.2 -49.55 -109.0 -33.85 Q-115.2 -26.85 -126.05 -11.7 L-129.8 -6.7 Q-136.35 2.55 -137.25 8.95 -138.4 17.0 -135.55 19.55 -132.7 22.05 -126.75 21.1 L-125.75 20.95 -124.3 20.55 Q-121.9 19.85 -119.65 18.55 -110.8 4.65 -101.4 2.05 -92.05 -0.6 -89.5 0.95 M-84.85 -83.5 Q-88.25 -90.55 -93.15 -94.75 -98.1 -98.95 -104.35 -100.85 -105.45 -92.2 -103.75 -78.2 -102.0 -63.65 -92.55 -52.45 -86.55 -58.5 -81.7 -59.7 L-74.95 -60.3 -76.45 -62.5 Q-78.7 -66.25 -81.45 -73.3 -83.4 -78.4 -84.15 -83.6 M-51.2 -58.65 Q-52.25 -52.1 -53.55 -45.9 M-64.75 -46.95 Q-71.95 -56.0 -74.95 -60.3 M124.4 123.6 Q115.65 122.0 104.2 116.6 82.55 106.4 70.75 96.15 58.9 85.9 52.4 84.7 45.9 83.5 37.35 83.0 28.8 82.55 17.95 80.25 7.05 77.9 0.75 72.0 -5.6 66.1 -13.15 56.6 -20.7 47.1 -27.6 31.35 -34.5 15.55 -38.85 14.15 -43.25 12.75 -54.3 13.85 L-73.85 14.75 Q-82.25 14.55 -87.7 13.2 -93.1 11.85 -96.5 13.3 -99.95 14.7 -101.5 16.95 -103.05 19.2 -106.35 23.2 -109.7 27.2 -116.1 28.9 -122.45 30.6 -122.45 24.9 -122.45 22.5 -119.65 18.55 M-124.3 20.55 L-124.3 21.15 M137.65 123.35 Q132.1 124.95 124.4 123.6 L124.4 126.5 M123.4 -37.65 L124.4 123.6" fill="none" stroke="#000000" stroke-linecap="round" stroke-linejoin="round" stroke-width="0.05"/>
  </g>
</svg>
