<?xml version="1.0" encoding="UTF-8" standalone="no"?>
<svg xmlns:ffdec="https://www.free-decompiler.com/flash" xmlns:xlink="http://www.w3.org/1999/xlink" ffdec:objectType="shape" height="148.05px" width="70.9px" xmlns="http://www.w3.org/2000/svg">
  <g transform="matrix(1.0, 0.0, 0.0, 1.0, 35.45, 74.0)">
    <path d="M-17.15 -40.0 Q-6.95 -73.25 25.95 -72.35 32.5 -52.6 34.7 -38.35 37.0 -23.55 32.1 -15.65 27.15 -7.8 18.25 2.3 L-3.0 26.2 Q-15.35 39.95 -15.1 45.1 -14.85 50.25 -11.7 54.0 -9.5 56.65 -4.8 57.8 1.2 59.3 2.1 59.8 5.25 61.55 5.25 66.15 5.25 74.05 -12.0 74.05 -22.45 74.05 -28.6 69.0 -35.45 63.4 -35.45 52.65 -35.45 37.15 -31.4 29.8 -27.4 22.4 -19.3 5.65 -11.35 -11.0 -17.15 -40.0" fill="#b58147" fill-rule="evenodd" stroke="none"/>
    <path d="M-17.3 -40.7 L-17.15 -40.0 Q-11.35 -11.0 -19.3 5.65 -27.4 22.4 -31.4 29.8 -35.45 37.15 -35.45 52.65 -35.45 63.4 -28.6 69.0 -22.45 74.05 -12.0 74.05 5.25 74.05 5.25 66.15 5.25 61.55 2.1 59.8 1.2 59.3 -4.8 57.8 -9.5 56.65 -11.7 54.0 -14.85 50.25 -15.1 45.1 -15.35 39.95 -3.0 26.2 L18.25 2.3 Q27.15 -7.8 32.1 -15.65 37.0 -23.55 34.7 -38.35 32.5 -52.6 25.95 -72.35 L25.4 -74.0" fill="none" stroke="#000000" stroke-linecap="round" stroke-linejoin="round" stroke-width="0.05"/>
  </g>
</svg>
