<?xml version="1.0" encoding="UTF-8" standalone="no"?>
<svg xmlns:ffdec="https://www.free-decompiler.com/flash" xmlns:xlink="http://www.w3.org/1999/xlink" ffdec:objectType="shape" height="50.3px" width="38.65px" xmlns="http://www.w3.org/2000/svg">
  <g transform="matrix(1.0, 0.0, 0.0, 1.0, 18.9, 10.45)">
    <path d="M2.25 -2.2 L2.25 -3.6 Q2.25 -5.1 1.65 -5.1 L0.5 -4.85 -0.95 -4.6 -2.2 -4.5 -3.4 -4.5 -3.45 -4.2 -3.45 -4.15 -3.45 -4.1 -3.25 -3.5 -3.1 -2.8 -2.65 -0.65 -2.25 1.55 -2.0 4.65 -1.85 6.45 -2.15 6.95 -1.9 7.85 -2.15 8.4 Q-2.15 9.35 -1.5 9.85 -0.95 10.3 0.0 10.35 L1.6 9.95 1.45 9.05 1.7 8.3 1.95 7.5 1.7 6.8 1.95 6.15 1.85 5.7 1.9 4.7 1.9 3.9 1.9 3.65 1.9 2.95 1.9 2.85 2.1 2.25 2.4 1.4 2.35 1.0 2.4 0.7 2.1 -0.4 1.95 -1.1 Q2.25 -1.1 2.25 -1.95 L2.25 -2.2 M13.75 -5.4 Q19.25 -0.9 19.25 5.45 19.25 11.8 13.75 16.35 9.3 20.0 4.1 20.7 L2.85 39.35 -2.4 20.35 Q-9.3 19.3 -12.9 16.35 -18.45 11.8 -18.4 5.45 -18.45 -0.9 -12.9 -5.4 -7.4 -9.95 0.4 -9.95 8.2 -9.95 13.75 -5.4 M-2.85 1.85 L-3.25 0.15 Q-3.6 -1.2 -3.9 -1.3 L-4.4 1.05 -4.5 1.9 Q-4.5 2.4 -3.9 2.75 -2.85 2.3 -2.85 1.85 M-2.2 12.45 L-1.75 13.9 -1.0 15.15 -1.3 15.8 Q-0.25 15.6 1.0 14.85 2.6 13.9 2.6 12.9 2.6 11.75 1.75 11.8 L1.1 11.8 0.45 11.85 -1.05 11.85 Q-2.2 11.9 -2.2 12.45" fill="#ffffff" fill-rule="evenodd" stroke="none"/>
    <path d="M-3.45 -4.15 L-3.45 -4.2 -3.4 -4.5 -2.2 -4.5 -0.95 -4.6 0.5 -4.85 1.65 -5.1 Q2.25 -5.1 2.25 -3.6 L2.25 -2.2 Q2.25 -1.55 1.95 -1.55 L1.95 -1.1 2.1 -0.4 2.4 0.7 2.35 1.0 2.1 1.45 Q1.8 1.95 1.85 2.2 L1.9 2.85 1.9 2.95 1.9 3.65 1.9 3.9 1.7 5.15 1.45 5.3 1.85 5.7 1.95 6.15 1.7 6.8 1.7 6.85 1.45 7.55 1.6 8.35 0.0 8.7 Q-0.95 8.7 -1.5 8.3 L-1.9 7.85 -2.15 6.95 -1.85 6.45 -1.75 6.4 -2.0 3.6 -2.25 0.85 -2.65 -1.1 -3.1 -3.05 -3.25 -3.65 -3.45 -4.15 M-2.85 1.85 Q-2.85 2.3 -3.9 2.75 -4.5 2.4 -4.5 1.9 L-4.4 1.05 -3.9 -1.3 Q-3.6 -1.2 -3.25 0.15 L-2.85 1.85 M-2.2 12.45 Q-2.2 11.9 -1.05 11.85 L0.45 11.85 1.1 11.8 1.75 11.8 Q2.6 11.75 2.6 12.9 2.6 13.9 1.0 14.85 -0.25 15.6 -1.3 15.8 L-1.0 15.15 -1.75 13.9 -2.2 12.45" fill="#000000" fill-rule="evenodd" stroke="none"/>
    <path d="M13.75 -5.4 Q19.25 -0.9 19.25 5.45 19.25 11.8 13.75 16.35 9.3 20.0 4.1 20.7 L2.85 39.35 -2.4 20.35 Q-9.3 19.3 -12.9 16.35 -18.45 11.8 -18.4 5.45 -18.45 -0.9 -12.9 -5.4 -7.4 -9.95 0.4 -9.95 8.2 -9.95 13.75 -5.4 Z" fill="none" stroke="#000000" stroke-linecap="round" stroke-linejoin="round" stroke-width="1.0"/>
  </g>
</svg>
