<?xml version="1.0" encoding="UTF-8" standalone="no"?>
<svg xmlns:ffdec="https://www.free-decompiler.com/flash" xmlns:xlink="http://www.w3.org/1999/xlink" ffdec:objectType="shape" height="10.5px" width="51.85px" xmlns="http://www.w3.org/2000/svg">
  <g transform="matrix(1.0, 0.0, 0.0, 1.0, 26.0, 5.25)">
    <path d="M7.85 -4.4 Q8.6 -3.75 9.55 -3.2 L9.85 -2.1 11.55 -2.2 12.75 -1.75 Q15.75 0.0 20.5 0.0 L21.1 0.0 23.4 0.6 Q24.45 1.55 25.85 2.15 25.65 4.3 23.9 4.8 L14.6 5.25 Q5.65 5.25 3.65 3.65 3.0 3.1 3.1 2.45 L3.2 2.25 2.6 2.25 Q2.15 3.45 0.9 3.75 L-11.4 4.25 Q-22.85 4.25 -25.35 2.65 -26.15 2.1 -26.0 1.45 L-25.65 0.75 -25.6 -0.05 -23.5 0.0 Q-15.8 0.0 -12.5 -3.25 L-11.4 -3.25 -7.3 -3.15 Q-7.0 -3.9 -6.35 -4.25 -4.65 -5.25 1.1 -5.25 5.6 -5.25 7.85 -4.4" fill="#ffffff" fill-rule="evenodd" stroke="none"/>
  </g>
</svg>
