<?xml version="1.0" encoding="UTF-8" standalone="no"?>
<svg xmlns:ffdec="https://www.free-decompiler.com/flash" xmlns:xlink="http://www.w3.org/1999/xlink" ffdec:objectType="shape" height="21.6px" width="66.95px" xmlns="http://www.w3.org/2000/svg">
  <g transform="matrix(1.0, 0.0, 0.0, 1.0, 33.45, 10.8)">
    <path d="M-6.25 -7.8 L-2.45 -7.7 Q-2.35 -9.05 -1.45 -9.55 0.65 -10.8 7.75 -10.8 21.7 -10.8 26.05 -8.3 28.0 -7.15 28.0 -4.55 L27.75 -2.9 29.5 -1.5 Q34.0 2.55 33.45 6.5 32.85 10.4 17.95 10.7 3.0 11.0 1.25 10.4 -0.55 9.8 -0.65 8.95 L-0.55 8.55 -5.25 8.7 -6.85 8.55 -14.25 8.7 Q-22.0 8.7 -24.95 7.7 -30.8 7.65 -32.2 6.1 -32.5 5.75 -32.5 4.2 -32.5 2.0 -31.25 1.2 L-30.95 1.05 -32.45 0.45 -33.45 -0.25 Q-32.0 -4.35 -28.65 -5.05 L-22.75 -5.8 -19.15 -5.75 Q-18.85 -6.5 -18.2 -6.8 -15.9 -7.8 -6.25 -7.8" fill="#ffffff" fill-rule="evenodd" stroke="none"/>
  </g>
</svg>
