<?xml version="1.0" encoding="UTF-8" standalone="no"?>
<svg xmlns:ffdec="https://www.free-decompiler.com/flash" xmlns:xlink="http://www.w3.org/1999/xlink" ffdec:objectType="shape" height="167.85px" width="120.95px" xmlns="http://www.w3.org/2000/svg">
  <g transform="matrix(1.0, 0.0, 0.0, 1.0, -129.85, 130.85)">
    <path d="M250.8 -109.5 Q250.8 -100.65 243.15 -94.4 235.5 -88.15 224.7 -88.15 213.9 -88.15 206.25 -94.4 198.6 -100.65 198.6 -109.5 198.6 -118.35 206.25 -124.6 213.9 -130.85 224.7 -130.85 235.5 -130.85 243.15 -124.6 250.8 -118.35 250.8 -109.5" fill="url(#gradient0)" fill-rule="evenodd" stroke="none"/>
    <path d="M187.9 -21.05 Q197.85 -11.1 197.85 3.0 197.85 17.1 187.9 27.05 177.95 37.0 163.85 37.0 149.75 37.0 139.8 27.05 129.85 17.1 129.85 3.0 129.85 -11.1 139.8 -21.05 149.75 -31.0 163.85 -31.0 177.95 -31.0 187.9 -21.05" fill="url(#gradient1)" fill-rule="evenodd" stroke="none"/>
  </g>
  <defs>
    <radialGradient cx="0" cy="0" gradientTransform="matrix(0.0325, 0.0, 0.0, 0.0266, 224.7, -109.5)" gradientUnits="userSpaceOnUse" id="gradient0" r="819.2" spreadMethod="pad">
      <stop offset="0.17254901960784313" stop-color="#ffffff"/>
      <stop offset="0.5176470588235295" stop-color="#ffffff" stop-opacity="0.0"/>
    </radialGradient>
    <radialGradient cx="0" cy="0" gradientTransform="matrix(0.0423, 0.0, 0.0, 0.0423, 163.85, 3.0)" gradientUnits="userSpaceOnUse" id="gradient1" r="819.2" spreadMethod="pad">
      <stop offset="0.19215686274509805" stop-color="#ffffff"/>
      <stop offset="0.5647058823529412" stop-color="#ffffff" stop-opacity="0.0"/>
    </radialGradient>
  </defs>
</svg>
