<?xml version="1.0" encoding="UTF-8" standalone="no"?>
<svg xmlns:ffdec="https://www.free-decompiler.com/flash" xmlns:xlink="http://www.w3.org/1999/xlink" ffdec:objectType="shape" height="216.05px" width="552.95px" xmlns="http://www.w3.org/2000/svg">
  <g transform="matrix(1.0, 0.0, 0.0, 1.0, 5.0, 160.95)">
    <path d="M153.75 -72.5 L153.75 -87.95 Q156.1 -87.6 157.9 -85.8 160.2 -83.5 160.2 -80.25 160.2 -77.0 157.9 -74.7 156.1 -72.9 153.75 -72.5 M210.45 -87.85 L211.4 -88.05 212.4 -88.1 Q215.65 -88.1 217.95 -85.8 220.25 -83.5 220.25 -80.25 220.25 -77.0 217.95 -74.7 215.65 -72.4 212.4 -72.4 L211.4 -72.45 210.45 -72.6 Q208.45 -73.1 206.85 -74.7 204.55 -77.0 204.55 -80.25 204.55 -83.5 206.85 -85.8 208.4 -87.35 210.45 -87.85 M188.4 -74.7 Q186.1 -72.4 182.85 -72.4 180.3 -72.4 178.35 -73.8 L177.3 -74.7 Q175.0 -77.0 175.0 -80.25 175.0 -83.5 177.3 -85.8 L178.35 -86.7 Q180.3 -88.1 182.85 -88.1 186.1 -88.1 188.4 -85.8 190.7 -83.5 190.7 -80.25 190.7 -77.0 188.4 -74.7 M311.0 -80.25 Q311.0 -83.5 313.3 -85.8 315.6 -88.1 318.85 -88.1 322.1 -88.1 324.4 -85.8 326.7 -83.5 326.7 -80.25 326.7 -77.0 324.4 -74.7 322.1 -72.4 318.85 -72.4 315.6 -72.4 313.3 -74.7 311.0 -77.0 311.0 -80.25 M390.15 -80.25 Q390.15 -77.0 387.85 -74.7 385.55 -72.4 382.3 -72.4 379.05 -72.4 376.75 -74.7 374.45 -77.0 374.45 -80.25 374.45 -83.5 376.75 -85.8 379.05 -88.1 382.3 -88.1 385.55 -88.1 387.85 -85.8 390.15 -83.5 390.15 -80.25 M354.2 -87.85 L355.25 -87.5 Q356.65 -86.95 357.8 -85.8 360.1 -83.5 360.1 -80.25 360.1 -77.0 357.8 -74.7 356.65 -73.55 355.25 -72.95 L354.2 -72.6 353.25 -72.45 352.25 -72.4 Q349.0 -72.4 346.7 -74.7 344.4 -77.0 344.4 -80.25 344.4 -83.5 346.7 -85.8 349.0 -88.1 352.25 -88.1 L353.25 -88.05 354.2 -87.85" fill="#000000" fill-rule="evenodd" stroke="none"/>
    <path d="M394.35 -103.45 L394.35 -57.7 153.75 -57.7 153.75 -72.5 Q156.1 -72.9 157.9 -74.7 160.2 -77.0 160.2 -80.25 160.2 -83.5 157.9 -85.8 156.1 -87.6 153.75 -87.95 L153.75 -103.45 394.35 -103.45 M211.4 -88.05 L210.4 -88.1 210.45 -87.85 Q208.4 -87.35 206.85 -85.8 204.55 -83.5 204.55 -80.25 204.55 -77.0 206.85 -74.7 208.45 -73.1 210.45 -72.6 L210.4 -72.4 211.4 -72.45 212.4 -72.4 Q215.65 -72.4 217.95 -74.7 220.25 -77.0 220.25 -80.25 220.25 -83.5 217.95 -85.8 215.65 -88.1 212.4 -88.1 L211.4 -88.05 M390.15 -80.25 Q390.15 -83.5 387.85 -85.8 385.55 -88.1 382.3 -88.1 379.05 -88.1 376.75 -85.8 374.45 -83.5 374.45 -80.25 374.45 -77.0 376.75 -74.7 379.05 -72.4 382.3 -72.4 385.55 -72.4 387.85 -74.7 390.15 -77.0 390.15 -80.25 M311.0 -80.25 Q311.0 -77.0 313.3 -74.7 315.6 -72.4 318.85 -72.4 322.1 -72.4 324.4 -74.7 326.7 -77.0 326.7 -80.25 326.7 -83.5 324.4 -85.8 322.1 -88.1 318.85 -88.1 315.6 -88.1 313.3 -85.8 311.0 -83.5 311.0 -80.25 M188.4 -74.7 Q190.7 -77.0 190.7 -80.25 190.7 -83.5 188.4 -85.8 186.1 -88.1 182.85 -88.1 180.3 -88.1 178.35 -86.7 L177.3 -85.8 Q175.0 -83.5 175.0 -80.25 175.0 -77.0 177.3 -74.7 L178.35 -73.8 Q180.3 -72.4 182.85 -72.4 186.1 -72.4 188.4 -74.7 M354.2 -87.85 L354.25 -88.1 353.25 -88.05 352.25 -88.1 Q349.0 -88.1 346.7 -85.8 344.4 -83.5 344.4 -80.25 344.4 -77.0 346.7 -74.7 349.0 -72.4 352.25 -72.4 L353.25 -72.45 354.25 -72.4 354.2 -72.6 355.25 -72.95 Q356.65 -73.55 357.8 -74.7 360.1 -77.0 360.1 -80.25 360.1 -83.5 357.8 -85.8 356.65 -86.95 355.25 -87.5 L354.2 -87.85" fill="url(#gradient0)" fill-rule="evenodd" stroke="none"/>
    <path d="M153.75 -103.45 L161.0 -109.6 171.05 -109.6 Q209.9 -157.85 274.3 -160.95 332.25 -160.65 375.9 -109.6 L388.2 -109.6 394.35 -103.45 394.35 -57.7 Q406.05 -46.65 419.95 -40.0 507.35 -22.3 547.95 17.0 L349.7 17.0 Q328.85 43.05 294.95 47.3 L292.2 50.65 289.95 50.65 287.15 55.1 257.0 55.1 253.65 50.65 250.3 50.65 248.1 47.3 Q216.6 39.75 197.85 17.0 L-5.0 17.0 Q25.7 -20.75 123.0 -40.0 L153.75 -57.7 153.75 -72.5 153.75 -87.95 153.75 -103.45 394.35 -103.45 M153.75 -57.7 L394.35 -57.7 M419.95 -40.0 L123.0 -40.0 M171.05 -109.6 L375.9 -109.6 M253.65 50.65 L289.95 50.65 M197.85 17.0 L349.7 17.0" fill="none" stroke="#000000" stroke-linecap="round" stroke-linejoin="round" stroke-width="0.05"/>
  </g>
  <defs>
    <linearGradient gradientTransform="matrix(0.1294, 0.0, 0.0, 0.0279, 313.95, -77.9)" gradientUnits="userSpaceOnUse" id="gradient0" spreadMethod="pad" x1="-819.2" x2="819.2">
      <stop offset="0.34901960784313724" stop-color="#72636b"/>
      <stop offset="0.41568627450980394" stop-color="#5a505a"/>
      <stop offset="0.7450980392156863" stop-color="#564b55"/>
      <stop offset="0.8392156862745098" stop-color="#929ac8"/>
    </linearGradient>
  </defs>
</svg>
