<?xml version="1.0" encoding="UTF-8" standalone="no"?>
<svg xmlns:ffdec="https://www.free-decompiler.com/flash" xmlns:xlink="http://www.w3.org/1999/xlink" ffdec:objectType="shape" height="87.2px" width="295.4px" xmlns="http://www.w3.org/2000/svg">
  <g transform="matrix(1.0, 0.0, 0.0, 1.0, -123.0, 126.8)">
    <path d="M142.65 -86.75 L142.25 -86.95 142.0 -86.7 142.0 -86.15 142.3 -85.65 142.7 -85.45 142.95 -85.75 142.9 -86.25 142.65 -86.75 M141.45 -88.2 L141.8 -88.3 Q142.4 -88.4 143.0 -87.8 L143.85 -86.45 143.85 -86.4 143.9 -86.3 Q144.1 -85.5 143.85 -84.85 143.6 -84.2 143.05 -84.15 L142.35 -84.25 141.85 -84.6 Q141.25 -85.2 141.0 -86.05 140.7 -86.9 140.95 -87.55 L141.4 -88.2 141.45 -88.2 M150.35 -82.65 L150.5 -82.4 Q150.95 -81.6 150.6 -80.9 150.25 -80.25 149.35 -80.05 L147.45 -80.35 Q146.5 -80.8 146.1 -81.55 145.6 -82.35 145.95 -83.05 146.3 -83.7 147.25 -83.85 L147.55 -83.95 147.6 -83.95 149.05 -83.7 149.1 -83.65 149.2 -83.6 150.35 -82.65 M148.6 -82.55 L147.95 -82.65 147.55 -82.4 147.6 -81.9 148.1 -81.5 148.7 -81.4 Q149.0 -81.45 149.15 -81.65 L149.1 -82.15 148.6 -82.55 M157.4 -80.75 L157.0 -81.0 156.45 -80.9 156.0 -80.5 155.95 -80.05 Q156.05 -79.85 156.3 -79.8 L156.9 -79.9 157.35 -80.3 157.4 -80.75 M158.75 -81.45 Q159.05 -80.85 158.65 -80.05 158.25 -79.35 157.45 -78.95 L157.4 -78.9 157.35 -78.85 155.75 -78.65 Q154.9 -78.8 154.6 -79.45 154.25 -80.1 154.65 -80.85 155.05 -81.6 155.95 -82.0 L157.6 -82.25 Q158.45 -82.1 158.75 -81.45 M211.8 -80.15 Q211.9 -81.0 212.55 -81.7 213.2 -82.4 214.05 -82.55 214.85 -82.7 215.35 -82.2 215.85 -81.75 215.8 -80.9 215.65 -80.1 215.05 -79.4 L215.05 -79.35 215.0 -79.3 Q214.35 -78.7 213.55 -78.55 212.7 -78.4 212.2 -78.85 211.7 -79.35 211.8 -80.15 M214.5 -80.65 L214.4 -81.05 213.95 -81.15 Q213.65 -81.1 213.4 -80.85 L213.15 -80.35 Q213.1 -80.1 213.3 -79.9 L213.75 -79.8 214.2 -80.15 214.5 -80.65 M313.8 -81.2 Q313.1 -81.3 312.4 -81.75 L312.3 -81.8 312.25 -81.85 Q311.6 -82.35 311.25 -82.95 L311.25 -83.0 311.25 -83.05 311.15 -83.3 Q310.8 -84.2 311.2 -84.85 L312.0 -85.4 312.55 -85.45 Q313.45 -85.5 314.35 -84.85 315.2 -84.25 315.5 -83.35 315.8 -82.5 315.4 -81.85 315.0 -81.3 314.25 -81.2 L314.1 -81.2 313.8 -81.2 M304.45 -86.2 Q304.45 -86.55 304.75 -86.9 305.2 -87.45 306.1 -87.65 L307.75 -87.6 308.25 -87.4 308.75 -86.8 Q309.0 -86.25 308.55 -85.75 308.1 -85.25 307.3 -85.0 L307.2 -85.0 305.6 -85.05 Q304.75 -85.3 304.55 -85.85 L304.45 -86.2 M306.5 -86.7 Q306.2 -86.65 306.05 -86.45 305.85 -86.3 305.95 -86.1 306.0 -85.9 306.3 -85.85 L306.85 -85.85 Q307.15 -85.9 307.35 -86.1 L307.45 -86.45 307.05 -86.7 306.5 -86.7 M313.0 -84.0 L312.75 -83.95 312.6 -83.8 Q312.4 -83.6 312.55 -83.3 312.65 -83.0 313.0 -82.8 313.25 -82.6 313.5 -82.55 L313.6 -82.55 314.05 -82.75 314.05 -83.3 313.65 -83.75 313.0 -84.0 M318.65 -76.3 Q318.8 -76.1 319.05 -76.1 L319.4 -76.35 319.55 -76.95 319.35 -77.5 318.9 -77.7 318.55 -77.4 Q318.4 -77.2 318.4 -76.85 318.45 -76.55 318.65 -76.3 M317.2 -76.8 Q317.1 -77.75 317.6 -78.45 318.0 -79.15 318.75 -79.2 319.45 -79.25 320.0 -78.6 320.55 -78.0 320.65 -77.1 L320.65 -77.0 320.65 -76.95 Q320.7 -76.0 320.3 -75.3 319.85 -74.65 319.15 -74.6 318.45 -74.55 317.85 -75.2 317.3 -75.85 317.2 -76.8 M384.15 -73.9 L383.25 -74.5 Q382.65 -74.95 382.4 -75.5 L382.15 -76.1 Q381.95 -77.0 382.45 -77.55 383.0 -78.1 383.95 -77.95 384.9 -77.85 385.7 -77.2 L385.8 -77.1 385.9 -77.1 Q386.65 -76.4 386.85 -75.5 387.1 -74.6 386.55 -74.05 386.0 -73.5 385.05 -73.6 L384.15 -73.9 M378.75 -86.6 Q381.25 -88.0 382.25 -85.05 L382.35 -85.0 382.4 -84.95 383.35 -83.55 383.45 -83.35 Q383.65 -82.5 383.15 -81.95 382.6 -81.4 381.65 -81.5 380.7 -81.6 379.85 -82.3 379.0 -83.0 378.75 -86.6 M391.65 -74.2 L393.15 -73.85 393.2 -73.85 393.25 -73.8 394.0 -73.25 394.45 -72.6 Q394.8 -71.85 394.35 -71.2 393.95 -70.6 393.0 -70.5 392.05 -70.45 391.2 -70.9 390.25 -71.4 389.95 -72.15 389.6 -72.9 390.0 -73.5 390.45 -74.1 391.4 -74.2 L391.65 -74.2 M384.95 -76.25 L384.35 -76.6 383.85 -76.45 Q383.65 -76.3 383.75 -75.95 L384.15 -75.4 Q384.4 -75.2 384.75 -75.1 L385.25 -75.25 385.35 -75.7 384.95 -76.25 M381.55 -84.1 L380.9 -84.4 380.4 -84.3 Q380.2 -84.1 380.3 -83.8 L380.7 -83.25 381.35 -82.95 381.85 -83.1 381.9 -83.6 381.55 -84.1 M393.0 -72.5 L392.55 -72.85 391.9 -73.0 Q391.55 -73.0 391.45 -72.8 L391.4 -72.35 391.85 -71.95 392.5 -71.8 392.95 -72.0 393.0 -72.5" fill="#c002c1" fill-rule="evenodd" stroke="none"/>
    <path d="M142.65 -86.75 L142.9 -86.25 142.95 -85.75 142.7 -85.45 142.3 -85.65 142.0 -86.15 142.0 -86.7 142.25 -86.95 142.65 -86.75 M148.6 -82.55 L149.1 -82.15 149.15 -81.65 Q149.0 -81.45 148.7 -81.4 L148.1 -81.5 147.6 -81.9 147.55 -82.4 147.95 -82.65 148.6 -82.55 M157.4 -80.75 L157.35 -80.3 156.9 -79.9 156.3 -79.8 Q156.05 -79.85 155.95 -80.05 L156.0 -80.5 156.45 -80.9 157.0 -81.0 157.4 -80.75 M214.5 -80.65 L214.2 -80.15 213.75 -79.8 213.3 -79.9 Q213.1 -80.1 213.15 -80.35 L213.4 -80.85 Q213.65 -81.1 213.95 -81.15 L214.4 -81.05 214.5 -80.65 M313.0 -84.0 L313.65 -83.75 314.05 -83.3 314.05 -82.75 313.6 -82.55 313.5 -82.55 Q313.25 -82.6 313.0 -82.8 312.65 -83.0 312.55 -83.3 312.4 -83.6 312.6 -83.8 L312.75 -83.95 313.0 -84.0 M306.5 -86.7 L307.05 -86.7 307.45 -86.45 307.35 -86.1 Q307.15 -85.9 306.85 -85.85 L306.3 -85.85 Q306.0 -85.9 305.95 -86.1 305.85 -86.3 306.05 -86.45 306.2 -86.65 306.5 -86.7 M318.65 -76.3 Q318.45 -76.55 318.4 -76.85 318.4 -77.2 318.55 -77.4 L318.9 -77.7 319.35 -77.5 319.55 -76.95 319.4 -76.35 319.05 -76.1 Q318.8 -76.1 318.65 -76.3 M381.55 -84.1 L381.9 -83.6 381.85 -83.1 381.35 -82.95 380.7 -83.25 380.3 -83.8 Q380.2 -84.1 380.4 -84.3 L380.9 -84.4 381.55 -84.1 M384.95 -76.25 L385.35 -75.7 385.25 -75.25 384.75 -75.1 Q384.4 -75.2 384.15 -75.4 L383.75 -75.95 Q383.65 -76.3 383.85 -76.45 L384.35 -76.6 384.95 -76.25 M393.0 -72.5 L392.95 -72.0 392.5 -71.8 391.85 -71.95 391.4 -72.35 391.45 -72.8 Q391.55 -73.0 391.9 -73.0 L392.55 -72.85 393.0 -72.5" fill="#540154" fill-rule="evenodd" stroke="none"/>
    <path d="M143.05 -93.5 Q142.0 -88.95 145.5 -85.8 L145.95 -85.45 147.2 -84.25 147.55 -83.95 147.25 -83.85 Q146.3 -83.7 145.95 -83.05 145.6 -82.35 146.1 -81.55 146.5 -80.8 147.45 -80.35 L149.35 -80.05 Q150.25 -80.25 150.6 -80.9 150.95 -81.6 150.5 -82.4 L150.35 -82.65 152.15 -82.55 Q154.9 -83.05 157.2 -84.5 160.7 -83.35 160.1 -79.65 157.9 -78.45 155.3 -77.95 L155.3 -77.9 155.15 -77.9 154.5 -77.8 Q150.1 -77.2 146.35 -79.3 L144.85 -80.45 Q143.2 -82.2 142.35 -84.25 L143.05 -84.15 Q143.6 -84.2 143.85 -84.85 144.1 -85.5 143.9 -86.3 L143.85 -86.4 143.85 -86.45 143.0 -87.8 Q142.4 -88.4 141.8 -88.3 L141.45 -88.2 141.45 -88.45 Q141.7 -91.15 143.05 -93.5 M158.75 -81.45 Q158.45 -82.1 157.6 -82.25 L155.95 -82.0 Q155.05 -81.6 154.65 -80.85 154.25 -80.1 154.6 -79.45 154.9 -78.8 155.75 -78.65 L157.35 -78.85 157.4 -78.9 157.45 -78.95 Q158.25 -79.35 158.65 -80.05 159.05 -80.85 158.75 -81.45 M215.6 -76.65 L215.4 -76.25 214.05 -73.3 214.05 -73.25 214.55 -73.05 Q210.3 -71.55 209.15 -75.6 L211.45 -80.45 Q214.4 -86.45 219.95 -87.0 221.7 -87.2 223.7 -86.35 L222.4 -86.2 Q220.75 -86.0 219.5 -84.9 217.35 -83.0 216.55 -79.3 L216.35 -78.25 216.45 -79.35 215.6 -76.65 M211.8 -80.15 Q211.7 -79.35 212.2 -78.85 212.7 -78.4 213.55 -78.55 214.35 -78.7 215.0 -79.3 L215.05 -79.35 215.05 -79.4 Q215.65 -80.1 215.8 -80.9 215.85 -81.75 215.35 -82.2 214.85 -82.7 214.05 -82.55 213.2 -82.4 212.55 -81.7 211.9 -81.0 211.8 -80.15 M308.25 -87.4 L312.85 -87.05 314.65 -86.35 Q318.4 -84.2 320.1 -80.05 L320.25 -79.75 320.35 -79.35 320.4 -79.3 Q321.5 -76.25 321.4 -73.2 317.8 -71.95 315.75 -75.15 315.65 -77.45 314.8 -79.75 L314.0 -81.05 313.8 -81.2 314.1 -81.2 314.25 -81.2 Q315.0 -81.3 315.4 -81.85 315.8 -82.5 315.5 -83.35 315.2 -84.25 314.35 -84.85 313.45 -85.5 312.55 -85.45 L312.0 -85.4 311.2 -84.85 Q310.8 -84.2 311.15 -83.3 L311.25 -83.05 310.95 -83.15 310.8 -83.2 309.2 -83.65 308.6 -83.85 Q304.15 -85.3 300.75 -82.15 302.1 -84.5 304.25 -86.05 L304.45 -86.2 304.55 -85.85 Q304.75 -85.3 305.6 -85.05 L307.2 -85.0 307.3 -85.0 Q308.1 -85.25 308.55 -85.75 309.0 -86.25 308.75 -86.8 L308.25 -87.4 M317.2 -76.8 Q317.3 -75.85 317.85 -75.2 318.45 -74.55 319.15 -74.6 319.85 -74.65 320.3 -75.3 320.7 -76.0 320.65 -76.95 L320.65 -77.0 320.65 -77.1 Q320.55 -78.0 320.0 -78.6 319.45 -79.25 318.75 -79.2 318.0 -79.15 317.6 -78.45 317.1 -77.75 317.2 -76.8 M398.85 -76.2 Q398.9 -74.0 397.25 -71.9 395.6 -69.75 393.05 -69.45 L393.05 -69.35 391.2 -69.65 Q389.6 -70.0 388.0 -70.9 386.4 -71.8 384.7 -73.35 L384.15 -73.9 385.05 -73.6 Q386.0 -73.5 386.55 -74.05 387.1 -74.6 386.85 -75.5 386.65 -76.4 385.9 -77.1 L385.8 -77.1 385.7 -77.2 Q384.9 -77.85 383.95 -77.95 383.0 -78.1 382.45 -77.55 381.95 -77.0 382.15 -76.1 L382.4 -75.5 380.1 -77.7 376.05 -81.8 Q375.15 -84.2 378.75 -86.6 379.0 -83.0 379.85 -82.3 380.7 -81.6 381.65 -81.5 382.6 -81.4 383.15 -81.95 383.65 -82.5 383.45 -83.35 L383.35 -83.55 384.8 -81.8 388.15 -77.55 Q389.65 -75.65 391.65 -74.2 L391.4 -74.2 Q390.45 -74.1 390.0 -73.5 389.6 -72.9 389.95 -72.15 390.25 -71.4 391.2 -70.9 392.05 -70.45 393.0 -70.5 393.95 -70.6 394.35 -71.2 394.8 -71.85 394.45 -72.6 L394.0 -73.25 394.65 -73.25 Q397.05 -73.3 398.4 -75.1 L398.85 -76.2" fill="#ff00fc" fill-rule="evenodd" stroke="none"/>
    <path d="M398.85 -76.2 L398.9 -76.35 398.9 -77.05 Q398.75 -79.4 397.75 -80.8 L395.6 -82.95 Q394.4 -83.75 393.35 -83.45 392.35 -83.15 392.3 -82.6 L392.35 -81.35 Q392.45 -80.6 393.75 -79.2 L395.15 -78.15 Q395.75 -77.55 393.5 -78.3 391.25 -79.05 390.4 -81.15 389.55 -83.3 390.85 -85.0 392.1 -86.75 395.4 -85.55 398.75 -84.4 400.75 -81.35 402.75 -78.35 402.7 -75.5 402.6 -72.7 399.9 -71.0 397.15 -69.3 395.05 -69.25 L393.05 -69.35 393.05 -69.45 Q395.6 -69.75 397.25 -71.9 398.9 -74.0 398.85 -76.2" fill="url(#gradient0)" fill-rule="evenodd" stroke="none"/>
    <path d="M347.4 -96.55 Q345.25 -89.0 348.15 -85.25 351.25 -81.25 353.2 -79.5 L357.5 -75.4 357.9 -75.0 Q355.1 -71.8 352.3 -75.0 L350.05 -77.3 Q341.3 -85.8 346.05 -94.7 L347.4 -96.55" fill="url(#gradient1)" fill-rule="evenodd" stroke="none"/>
    <path d="M309.2 -83.65 L308.6 -83.75 305.75 -83.5 305.55 -83.45 Q303.3 -82.55 302.4 -78.9 301.5 -75.3 308.2 -71.95 L308.2 -71.85 Q296.9 -72.2 300.7 -82.0 L300.75 -82.15 Q304.15 -85.3 308.6 -83.85 L309.2 -83.65" fill="url(#gradient2)" fill-rule="evenodd" stroke="none"/>
    <path d="M223.7 -86.35 Q227.9 -84.55 233.05 -78.2 L232.95 -78.15 Q220.65 -86.5 216.9 -79.2 L216.55 -79.3 Q217.35 -83.0 219.5 -84.9 220.75 -86.0 222.4 -86.2 L223.7 -86.35" fill="url(#gradient3)" fill-rule="evenodd" stroke="none"/>
    <path d="M179.85 -74.55 L183.3 -77.4 188.0 -81.0 Q190.1 -82.55 193.65 -86.15 197.0 -89.6 195.6 -97.7 201.7 -86.85 190.85 -78.45 188.25 -76.4 186.5 -74.55 182.4 -70.85 179.85 -74.55" fill="url(#gradient4)" fill-rule="evenodd" stroke="none"/>
    <path d="M155.7 -92.35 L155.6 -92.3 Q149.4 -96.45 146.75 -93.75 144.05 -91.1 144.35 -88.7 L144.4 -88.45 Q144.6 -87.15 145.6 -85.85 L145.95 -85.45 145.5 -85.8 Q142.0 -88.95 143.05 -93.5 L143.15 -93.6 Q149.75 -102.0 155.65 -92.35 L155.7 -92.35" fill="url(#gradient5)" fill-rule="evenodd" stroke="none"/>
    <path d="M155.7 -92.35 L155.85 -92.1 M155.7 -92.35 L155.65 -92.35 Q149.75 -102.0 143.15 -93.6 L143.05 -93.5 Q141.7 -91.15 141.45 -88.45 L141.45 -88.2 141.4 -88.2 M145.95 -85.45 L145.6 -85.85 Q144.6 -87.15 144.4 -88.45 L144.35 -88.7 Q144.05 -91.1 146.75 -93.75 149.4 -96.45 155.6 -92.3 M142.35 -84.25 Q143.2 -82.2 144.85 -80.45 L146.35 -79.3 Q150.1 -77.2 154.5 -77.8 L154.85 -77.85 155.15 -77.9 155.3 -77.9 155.3 -77.95 Q157.9 -78.45 160.1 -79.65 M157.2 -84.5 Q154.9 -83.05 152.15 -82.55 L150.35 -82.65 M147.55 -83.95 L147.2 -84.25 145.95 -85.45 Q146.7 -84.75 147.6 -83.95 M223.7 -86.35 Q227.9 -84.55 233.05 -78.2 M232.95 -78.15 Q220.65 -86.5 216.9 -79.2 L215.6 -76.65 215.4 -76.25 214.05 -73.3 214.05 -73.25 M209.15 -75.6 L211.45 -80.45 Q214.4 -86.45 219.95 -87.0 221.7 -87.2 223.7 -86.35 M186.5 -74.55 Q188.25 -76.4 190.85 -78.45 201.7 -86.85 195.6 -97.7 197.0 -89.6 193.65 -86.15 190.1 -82.55 188.0 -81.0 L183.3 -77.4 179.85 -74.55 M195.6 -97.7 L195.4 -98.05 M308.25 -87.4 L312.85 -87.05 314.65 -86.35 Q318.4 -84.2 320.1 -80.05 L320.25 -79.75 320.35 -79.35 320.4 -79.3 Q321.5 -76.25 321.4 -73.2 M315.75 -75.15 Q315.65 -77.45 314.8 -79.75 L314.0 -81.05 313.8 -81.2 M311.25 -82.95 L311.0 -83.05 309.2 -83.65 308.6 -83.75 305.75 -83.5 305.55 -83.45 Q303.3 -82.55 302.4 -78.9 301.5 -75.3 308.2 -71.95 M308.2 -71.85 L308.5 -71.85 M311.25 -83.05 L311.25 -83.0 M311.25 -83.05 L310.95 -83.15 310.8 -83.2 309.2 -83.65 M300.75 -82.15 L300.7 -82.0 Q296.9 -72.2 308.2 -71.85 M304.45 -86.2 L304.25 -86.05 Q302.1 -84.5 300.75 -82.15 M393.05 -69.35 L395.05 -69.25 Q397.15 -69.3 399.9 -71.0 402.6 -72.7 402.7 -75.5 402.75 -78.35 400.75 -81.35 398.75 -84.4 395.4 -85.55 392.1 -86.75 390.85 -85.0 389.55 -83.3 390.4 -81.15 391.25 -79.05 393.5 -78.3 395.75 -77.55 395.15 -78.15 L393.75 -79.2 Q392.45 -80.6 392.35 -81.35 L392.3 -82.6 Q392.35 -83.15 393.35 -83.45 394.4 -83.75 395.6 -82.95 L397.75 -80.8 Q398.75 -79.4 398.9 -77.05 L398.9 -76.35 398.85 -76.2 398.4 -75.1 Q397.05 -73.3 394.65 -73.25 L394.0 -73.25 M393.05 -69.35 L391.2 -69.65 Q389.6 -70.0 388.0 -70.9 386.4 -71.8 384.7 -73.35 L384.15 -73.9 M382.4 -75.5 L380.1 -77.7 376.05 -81.8 M383.35 -83.55 L384.8 -81.8 388.15 -77.55 Q389.65 -75.65 391.65 -74.2 M357.9 -75.0 L357.5 -75.4 353.2 -79.5 Q351.25 -81.25 348.15 -85.25 345.25 -89.0 347.4 -96.55 M346.05 -94.7 Q341.3 -85.8 350.05 -77.3 L352.3 -75.0" fill="none" stroke="#333333" stroke-linecap="round" stroke-linejoin="round" stroke-width="0.05"/>
    <path d="M137.3 -104.2 L127.2 -105.75 129.85 -113.45 137.3 -104.2 M134.45 -73.05 L130.15 -63.75 123.5 -68.4 134.45 -73.05 M307.65 -109.8 L308.85 -97.95 301.25 -104.8 307.65 -109.8 M184.7 -107.35 L180.4 -98.05 173.75 -102.7 184.7 -107.35 M225.3 -114.5 L217.6 -121.2 223.9 -126.3 225.3 -114.5 M234.65 -67.45 L230.35 -58.15 223.7 -62.8 234.65 -67.45 M183.05 -52.1 L174.15 -57.1 179.3 -63.4 183.05 -52.1 M162.2 -40.1 L154.55 -49.2 164.65 -47.85 162.2 -40.1 M299.95 -58.15 L295.65 -48.85 289.0 -53.5 299.95 -58.15 M250.75 -87.85 L240.9 -90.7 244.5 -98.0 250.75 -87.85 M354.25 -124.05 L349.95 -114.75 343.3 -119.4 354.25 -124.05 M403.55 -109.6 L395.35 -115.75 401.35 -121.3 403.55 -109.6 M387.9 -95.25 L398.85 -99.9 394.55 -90.6 387.9 -95.25 M346.95 -47.3 L357.9 -51.95 353.6 -42.65 346.95 -47.3 M407.7 -97.7 L417.9 -98.6 417.15 -90.5 407.7 -97.7 M405.05 -71.0 L413.0 -64.6 406.9 -59.25 405.05 -71.0" fill="#ccccff" fill-opacity="0.6" fill-rule="evenodd" stroke="none"/>
    <path d="M225.3 -114.5 L217.6 -121.2 223.9 -126.3 225.3 -114.5" fill="none" stroke="#000000" stroke-linecap="round" stroke-linejoin="round" stroke-width="1.0"/>
    <path d="M137.3 -104.2 L127.2 -105.75 129.85 -113.45 137.3 -104.2 M134.45 -73.05 L130.15 -63.75 123.5 -68.4 134.45 -73.05 M307.65 -109.8 L308.85 -97.95 301.25 -104.8 307.65 -109.8 M184.7 -107.35 L180.4 -98.05 173.75 -102.7 184.7 -107.35 M234.65 -67.45 L230.35 -58.15 223.7 -62.8 234.65 -67.45 M183.05 -52.1 L174.15 -57.1 179.3 -63.4 183.05 -52.1 M162.2 -40.1 L154.55 -49.2 164.65 -47.85 162.2 -40.1 M299.95 -58.15 L295.65 -48.85 289.0 -53.5 299.95 -58.15 M250.75 -87.85 L240.9 -90.7 244.5 -98.0 250.75 -87.85 M354.25 -124.05 L349.95 -114.75 343.3 -119.4 354.25 -124.05 M403.55 -109.6 L395.35 -115.75 401.35 -121.3 403.55 -109.6 M387.9 -95.25 L398.85 -99.9 394.55 -90.6 387.9 -95.25 M346.95 -47.3 L357.9 -51.95 353.6 -42.65 346.95 -47.3 M407.7 -97.7 L417.9 -98.6 417.15 -90.5 407.7 -97.7 M405.05 -71.0 L413.0 -64.6 406.9 -59.25 405.05 -71.0 Z" fill="none" stroke="#000000" stroke-linecap="round" stroke-linejoin="round" stroke-width="1.0"/>
  </g>
  <defs>
    <linearGradient gradientTransform="matrix(-0.0017, -0.0102, -0.007, 5.0E-4, 396.65, -77.9)" gradientUnits="userSpaceOnUse" id="gradient0" spreadMethod="pad" x1="-819.2" x2="819.2">
      <stop offset="0.2901960784313726" stop-color="#970198"/>
      <stop offset="0.6274509803921569" stop-color="#db02db"/>
    </linearGradient>
    <linearGradient gradientTransform="matrix(-0.0105, -0.0194, -0.0085, 0.0046, 352.8, -70.4)" gradientUnits="userSpaceOnUse" id="gradient1" spreadMethod="pad" x1="-819.2" x2="819.2">
      <stop offset="0.2901960784313726" stop-color="#970198"/>
      <stop offset="0.6274509803921569" stop-color="#db02db"/>
    </linearGradient>
    <linearGradient gradientTransform="matrix(0.0017, 0.0076, 0.0064, -0.0013, 305.0, -77.8)" gradientUnits="userSpaceOnUse" id="gradient2" spreadMethod="pad" x1="-819.2" x2="819.2">
      <stop offset="0.2901960784313726" stop-color="#970198"/>
      <stop offset="0.6274509803921569" stop-color="#db02db"/>
    </linearGradient>
    <linearGradient gradientTransform="matrix(0.0101, 8.0E-4, -4.0E-4, 0.0046, 225.05, -82.4)" gradientUnits="userSpaceOnUse" id="gradient3" spreadMethod="pad" x1="-819.2" x2="819.2">
      <stop offset="0.2901960784313726" stop-color="#970198"/>
      <stop offset="0.6274509803921569" stop-color="#db02db"/>
    </linearGradient>
    <linearGradient gradientTransform="matrix(0.0126, -0.0181, 0.0079, 0.0055, 187.35, -71.9)" gradientUnits="userSpaceOnUse" id="gradient4" spreadMethod="pad" x1="-819.2" x2="819.2">
      <stop offset="0.2901960784313726" stop-color="#970198"/>
      <stop offset="0.6274509803921569" stop-color="#db02db"/>
    </linearGradient>
    <linearGradient gradientTransform="matrix(0.0074, -0.0025, 0.0021, 0.0062, 149.0, -92.05)" gradientUnits="userSpaceOnUse" id="gradient5" spreadMethod="pad" x1="-819.2" x2="819.2">
      <stop offset="0.2901960784313726" stop-color="#970198"/>
      <stop offset="0.6274509803921569" stop-color="#db02db"/>
    </linearGradient>
  </defs>
</svg>
