<?xml version="1.0" encoding="UTF-8" standalone="no"?>
<svg xmlns:ffdec="https://www.free-decompiler.com/flash" xmlns:xlink="http://www.w3.org/1999/xlink" ffdec:objectType="shape" height="170.25px" width="405.5px" xmlns="http://www.w3.org/2000/svg">
  <g transform="matrix(1.0, 0.0, 0.0, 1.0, -67.65, 172.85)">
    <path d="M186.55 -72.8 L186.4 -73.45 186.5 -73.75 185.3 -72.25 184.1 -72.25 183.4 -74.25 Q182.95 -74.95 183.2 -75.6 183.4 -76.25 184.2 -76.5 L185.5 -76.55 185.8 -76.5 185.85 -76.45 185.95 -76.4 186.7 -76.05 187.15 -75.5 186.55 -72.8 M180.9 -73.3 L179.25 -72.8 178.3 -73.4 178.25 -73.45 178.2 -73.5 Q177.6 -74.1 177.5 -74.8 177.4 -75.4 177.65 -75.75 L177.85 -76.05 Q178.25 -76.5 179.0 -76.35 L180.35 -75.6 Q180.9 -75.0 181.05 -74.25 L180.9 -73.3 M209.8 -100.0 Q210.45 -99.8 210.75 -98.95 L210.7 -97.35 210.7 -97.25 210.7 -97.2 Q210.4 -96.35 209.75 -95.9 209.05 -95.4 208.35 -95.6 207.7 -95.85 207.45 -96.6 207.15 -97.45 207.45 -98.35 207.75 -99.25 208.45 -99.7 209.1 -100.2 209.8 -100.0 M207.3 -82.9 L208.3 -83.45 Q209.05 -83.5 209.65 -82.8 210.3 -82.1 210.45 -81.1 L210.45 -81.0 210.45 -80.9 Q210.5 -79.9 210.05 -79.15 209.6 -78.35 208.85 -78.3 208.05 -78.25 207.45 -78.95 206.8 -79.65 206.7 -80.7 206.55 -81.75 207.05 -82.55 L207.3 -82.9 M209.1 -73.15 Q210.75 -76.25 211.55 -76.2 212.3 -76.2 212.85 -75.45 213.4 -74.7 213.4 -73.7 L213.4 -73.6 213.4 -73.5 213.35 -73.0 212.15 -73.9 212.0 -74.25 211.55 -74.5 211.4 -74.5 213.45 -72.45 210.1 -73.05 209.05 -73.1 209.1 -73.15 M212.65 -87.45 Q212.15 -86.8 211.45 -86.8 210.75 -86.8 210.25 -87.45 209.75 -88.1 209.7 -89.0 L209.7 -89.05 209.7 -89.15 Q209.7 -90.05 210.15 -90.7 210.65 -91.4 211.35 -91.4 211.95 -91.45 212.45 -90.95 L212.6 -90.8 213.15 -89.15 Q213.15 -88.2 212.65 -87.5 L212.65 -87.45 M209.35 -97.1 L209.65 -97.6 209.7 -98.2 209.4 -98.55 208.95 -98.4 208.6 -97.95 208.6 -97.35 208.9 -97.0 209.35 -97.1 M209.2 -80.9 L208.95 -81.5 208.55 -81.75 Q208.25 -81.75 208.1 -81.45 L208.0 -80.8 Q208.05 -80.45 208.25 -80.2 208.45 -79.95 208.7 -79.95 208.95 -80.0 209.1 -80.25 L209.2 -80.9 M211.75 -89.7 L211.35 -89.9 210.95 -89.65 Q210.8 -89.45 210.8 -89.1 L211.0 -88.5 Q211.15 -88.3 211.4 -88.3 L211.8 -88.55 211.95 -89.1 211.75 -89.7 M184.65 -74.75 L186.3 -73.85 186.05 -74.85 185.95 -75.1 185.45 -75.45 184.9 -75.45 184.55 -75.2 Q184.45 -75.0 184.65 -74.75 M178.75 -75.05 L178.65 -74.65 178.9 -74.15 Q179.1 -73.95 179.4 -73.9 L179.75 -74.0 179.85 -74.4 179.6 -74.85 179.15 -75.1 178.75 -75.05 M319.8 -93.0 L321.2 -92.85 322.3 -91.65 322.3 -91.55 322.35 -91.45 Q322.7 -90.6 322.55 -89.8 322.35 -89.05 321.7 -88.75 L320.3 -88.9 Q319.5 -89.35 319.15 -90.2 318.75 -91.1 318.95 -91.9 319.15 -92.75 319.8 -93.0 M316.75 -73.4 L316.15 -73.8 316.0 -74.05 315.95 -74.3 Q315.75 -75.05 316.0 -75.85 L316.05 -75.95 316.05 -76.0 Q316.35 -77.0 317.1 -77.5 L317.4 -77.65 318.65 -77.8 Q319.4 -77.6 319.7 -76.7 320.0 -75.8 319.7 -74.8 319.5 -74.2 316.75 -73.4 M314.5 -93.3 L313.0 -93.35 312.9 -93.4 312.8 -93.4 311.5 -94.15 311.5 -94.2 311.45 -94.2 311.3 -94.45 Q310.65 -95.2 310.85 -95.9 311.0 -96.4 311.4 -96.7 L311.9 -96.95 Q312.75 -97.25 313.8 -96.95 314.8 -96.65 315.4 -95.9 315.95 -95.2 315.8 -94.45 315.6 -93.8 314.9 -93.45 L314.75 -93.4 314.5 -93.3 M314.05 -95.35 L313.5 -95.7 312.85 -95.7 312.6 -95.55 312.5 -95.35 Q312.4 -95.15 312.6 -94.9 312.85 -94.65 313.2 -94.55 L313.75 -94.5 313.85 -94.5 314.2 -94.85 314.05 -95.35 M320.9 -91.6 L320.45 -91.65 320.2 -91.25 Q320.15 -91.0 320.25 -90.7 L320.65 -90.2 321.1 -90.15 321.35 -90.55 321.3 -91.1 320.9 -91.6 M306.3 -96.35 L305.8 -96.15 305.45 -95.75 Q305.3 -95.55 305.45 -95.4 L305.9 -95.3 Q306.15 -95.3 306.4 -95.45 L306.8 -95.85 306.75 -96.2 306.3 -96.35 M307.25 -97.4 L307.9 -97.0 Q308.3 -96.55 308.05 -95.9 L307.1 -94.8 307.05 -94.8 307.0 -94.75 305.45 -94.3 Q304.6 -94.3 304.2 -94.7 L304.0 -95.05 Q303.9 -95.4 304.1 -95.8 304.35 -96.45 305.1 -96.9 305.85 -97.4 306.7 -97.4 L307.25 -97.4 M321.95 -84.15 Q322.7 -84.7 323.45 -84.45 324.2 -84.2 324.45 -83.3 324.75 -82.45 324.4 -81.45 324.0 -80.5 323.25 -79.95 322.45 -79.45 321.7 -79.65 320.95 -79.9 320.7 -80.75 320.45 -81.6 320.75 -82.55 L320.8 -82.65 320.85 -82.7 Q321.2 -83.65 321.95 -84.15 M321.95 -82.25 L321.9 -81.6 Q322.0 -81.3 322.25 -81.2 L322.75 -81.3 323.1 -81.85 323.15 -82.5 322.85 -82.85 322.35 -82.75 321.95 -82.25 M317.2 -75.55 L317.2 -74.9 317.5 -74.55 318.0 -74.65 318.4 -75.2 318.4 -75.85 318.05 -76.25 317.6 -76.1 317.2 -75.55 M392.5 -77.4 Q392.65 -76.75 392.35 -76.25 392.0 -75.75 391.25 -75.75 390.5 -75.8 389.8 -76.35 389.05 -76.95 388.8 -77.7 388.55 -78.5 388.9 -79.0 389.25 -79.55 390.05 -79.5 L390.1 -79.5 Q390.8 -79.5 391.45 -79.0 L391.5 -78.9 391.55 -78.85 Q392.2 -78.3 392.45 -77.55 L392.5 -77.4 M378.95 -83.75 L380.15 -83.55 Q380.75 -83.25 380.85 -82.5 380.9 -81.75 380.35 -81.0 L378.95 -80.05 377.45 -80.1 Q376.8 -80.5 376.75 -81.25 376.65 -82.0 377.25 -82.7 L378.2 -83.5 378.6 -83.65 378.65 -83.65 378.7 -83.65 378.95 -83.75 M395.35 -58.4 L395.4 -59.0 Q395.6 -59.95 396.3 -60.3 L397.85 -60.15 Q398.65 -59.75 399.1 -58.85 L399.15 -58.75 399.2 -58.7 Q399.6 -57.75 399.4 -56.85 399.2 -55.95 398.5 -55.6 L396.95 -55.7 396.25 -56.3 Q395.9 -56.65 395.7 -57.15 395.35 -57.8 395.35 -58.4 M404.9 -52.3 L405.05 -51.5 Q405.0 -50.7 404.35 -50.25 403.7 -49.85 402.85 -50.05 401.95 -50.3 401.35 -51.05 400.7 -51.8 400.75 -52.65 400.75 -53.5 401.4 -53.9 L402.95 -54.05 403.2 -54.0 Q403.9 -53.75 404.4 -53.15 L404.45 -53.1 404.5 -53.05 404.9 -52.3 M399.75 -65.6 L399.7 -65.45 Q399.55 -64.55 398.85 -64.2 L397.3 -64.25 Q396.45 -64.7 396.0 -65.65 395.5 -66.65 395.7 -67.55 395.85 -68.5 396.55 -68.85 L398.15 -68.75 398.85 -68.15 399.4 -67.45 399.45 -67.35 399.45 -67.25 Q399.85 -66.45 399.75 -65.6 M385.4 -78.4 L384.8 -78.65 384.3 -78.5 Q384.1 -78.3 384.2 -78.0 L384.6 -77.45 Q384.85 -77.2 385.2 -77.15 L385.65 -77.3 385.75 -77.85 385.4 -78.4 M386.2 -79.3 L386.25 -79.25 Q387.0 -78.6 387.25 -77.75 387.45 -76.85 386.95 -76.2 386.4 -75.6 385.5 -75.65 384.55 -75.7 383.7 -76.4 382.9 -77.1 382.7 -78.0 382.45 -78.95 382.95 -79.5 383.45 -80.15 384.45 -80.05 385.3 -80.0 386.1 -79.4 L386.2 -79.3 M390.05 -77.75 L390.4 -77.25 390.9 -77.05 Q391.15 -77.05 391.25 -77.2 L391.25 -77.65 390.95 -78.05 390.45 -78.3 390.1 -78.15 390.05 -77.75 M378.75 -82.5 L378.25 -82.15 378.1 -81.7 Q378.1 -81.45 378.3 -81.35 L378.85 -81.3 379.35 -81.65 379.5 -82.1 379.25 -82.45 378.75 -82.5 M397.85 -67.3 L397.35 -67.35 Q397.1 -67.25 397.1 -66.9 397.0 -66.6 397.2 -66.25 L397.65 -65.75 398.15 -65.7 398.4 -66.15 398.3 -66.8 397.85 -67.3 M393.45 -72.75 L393.5 -72.65 Q394.1 -71.8 394.1 -70.9 394.05 -69.95 393.45 -69.5 392.8 -69.05 391.9 -69.3 391.0 -69.6 390.35 -70.45 389.7 -71.35 389.75 -72.25 389.75 -73.2 390.4 -73.65 L391.9 -73.85 393.4 -72.8 393.45 -72.75 M392.45 -72.0 L391.9 -72.4 391.4 -72.35 Q391.2 -72.2 391.25 -71.85 L391.45 -71.25 391.95 -70.85 392.45 -70.9 392.65 -71.4 392.45 -72.0 M396.9 -57.7 L397.35 -57.2 397.85 -57.15 398.1 -57.55 398.0 -58.25 397.6 -58.75 397.1 -58.8 396.8 -58.35 396.9 -57.7 M402.4 -51.8 Q402.6 -51.55 402.95 -51.45 L403.45 -51.5 403.65 -51.9 403.4 -52.45 402.9 -52.8 402.4 -52.75 Q402.15 -52.6 402.2 -52.35 L402.4 -51.8" fill="#c002c1" fill-rule="evenodd" stroke="none"/>
    <path d="M209.35 -97.1 L208.9 -97.0 208.6 -97.35 208.6 -97.95 208.95 -98.4 209.4 -98.55 209.7 -98.2 209.65 -97.6 209.35 -97.1 M211.75 -89.7 L211.95 -89.1 211.8 -88.55 211.4 -88.3 Q211.15 -88.3 211.0 -88.5 L210.8 -89.1 Q210.8 -89.45 210.95 -89.65 L211.35 -89.9 211.75 -89.7 M209.2 -80.9 L209.1 -80.25 Q208.95 -80.0 208.7 -79.95 208.45 -79.95 208.25 -80.2 208.05 -80.45 208.0 -80.8 L208.1 -81.45 Q208.25 -81.75 208.55 -81.75 L208.95 -81.5 209.2 -80.9 M211.4 -74.5 L211.55 -74.5 212.0 -74.25 212.15 -73.9 211.4 -74.5 M184.65 -74.75 Q184.45 -75.0 184.55 -75.2 L184.9 -75.45 185.45 -75.45 185.95 -75.1 186.05 -74.85 186.3 -73.85 184.65 -74.75 M178.75 -75.05 L179.15 -75.1 179.6 -74.85 179.85 -74.4 179.75 -74.0 179.4 -73.9 Q179.1 -73.95 178.9 -74.15 L178.65 -74.65 178.75 -75.05 M314.05 -95.35 L314.2 -94.85 313.85 -94.5 313.75 -94.5 313.2 -94.55 Q312.85 -94.65 312.6 -94.9 312.4 -95.15 312.5 -95.35 L312.6 -95.55 312.85 -95.7 313.5 -95.7 314.05 -95.35 M320.9 -91.6 L321.3 -91.1 321.35 -90.55 321.1 -90.15 320.65 -90.2 320.25 -90.7 Q320.15 -91.0 320.2 -91.25 L320.45 -91.65 320.9 -91.6 M306.3 -96.35 L306.75 -96.2 306.8 -95.85 306.4 -95.45 Q306.15 -95.3 305.9 -95.3 L305.45 -95.4 Q305.3 -95.55 305.45 -95.75 L305.8 -96.15 306.3 -96.35 M321.95 -82.25 L322.35 -82.75 322.85 -82.85 323.15 -82.5 323.1 -81.85 322.75 -81.3 322.25 -81.2 Q322.0 -81.3 321.9 -81.6 L321.95 -82.25 M317.2 -75.55 L317.6 -76.1 318.05 -76.25 318.4 -75.85 318.4 -75.2 318.0 -74.65 317.5 -74.55 317.2 -74.9 317.2 -75.55 M385.4 -78.4 L385.75 -77.85 385.65 -77.3 385.2 -77.15 Q384.85 -77.2 384.6 -77.45 L384.2 -78.0 Q384.1 -78.3 384.3 -78.5 L384.8 -78.65 385.4 -78.4 M390.05 -77.75 L390.1 -78.15 390.45 -78.3 390.95 -78.05 391.25 -77.65 391.25 -77.2 Q391.15 -77.05 390.9 -77.05 L390.4 -77.25 390.05 -77.75 M378.75 -82.5 L379.25 -82.45 379.5 -82.1 379.35 -81.65 378.85 -81.3 378.3 -81.35 Q378.1 -81.45 378.1 -81.7 L378.25 -82.15 378.75 -82.5 M397.85 -67.3 L398.3 -66.8 398.4 -66.15 398.15 -65.7 397.65 -65.75 397.2 -66.25 Q397.0 -66.6 397.1 -66.9 397.1 -67.25 397.35 -67.35 L397.85 -67.3 M392.45 -72.0 L392.65 -71.4 392.45 -70.9 391.95 -70.85 391.45 -71.25 391.25 -71.85 Q391.2 -72.2 391.4 -72.35 L391.9 -72.4 392.45 -72.0 M396.9 -57.7 L396.8 -58.35 397.1 -58.8 397.6 -58.75 398.0 -58.25 398.1 -57.55 397.85 -57.15 397.35 -57.2 396.9 -57.7 M402.4 -51.8 L402.2 -52.35 Q402.15 -52.6 402.4 -52.75 L402.9 -52.8 403.4 -52.45 403.65 -51.9 403.45 -51.5 402.95 -51.45 Q402.6 -51.55 402.4 -51.8" fill="#540154" fill-rule="evenodd" stroke="none"/>
    <path d="M188.05 -75.45 L186.55 -72.8 187.15 -75.5 186.7 -76.05 188.05 -75.45 M184.1 -72.25 L183.15 -72.25 180.9 -73.3 181.05 -74.25 Q180.9 -75.0 180.35 -75.6 L179.0 -76.35 Q178.25 -76.5 177.85 -76.05 L177.65 -75.75 176.65 -77.95 Q175.35 -81.45 176.7 -83.95 L177.5 -85.2 Q177.05 -83.7 178.95 -81.2 180.8 -78.75 183.5 -77.45 L185.5 -76.55 184.2 -76.5 Q183.4 -76.25 183.2 -75.6 182.95 -74.95 183.4 -74.25 L184.1 -72.25 M209.8 -100.0 Q209.1 -100.2 208.45 -99.7 207.75 -99.25 207.45 -98.35 207.15 -97.45 207.45 -96.6 207.7 -95.85 208.35 -95.6 209.05 -95.4 209.75 -95.9 210.4 -96.35 210.7 -97.2 L210.7 -97.25 210.7 -97.35 210.75 -98.95 Q210.45 -99.8 209.8 -100.0 M215.6 -107.3 L214.45 -106.65 Q213.05 -105.75 212.4 -104.2 211.25 -101.55 212.1 -97.85 L212.4 -96.8 212.0 -97.85 212.4 -95.05 212.4 -94.6 Q212.35 -92.65 212.45 -90.95 211.95 -91.45 211.35 -91.4 210.65 -91.4 210.15 -90.7 209.7 -90.05 209.7 -89.15 L209.7 -89.05 209.7 -89.0 Q209.75 -88.1 210.25 -87.45 210.75 -86.8 211.45 -86.8 212.15 -86.8 212.65 -87.45 L212.9 -85.6 Q213.65 -81.45 214.0 -76.15 L214.15 -72.4 213.35 -73.0 213.4 -73.5 213.4 -73.6 213.4 -73.7 Q213.4 -74.7 212.85 -75.45 212.3 -76.2 211.55 -76.2 210.75 -76.25 209.1 -73.15 208.05 -73.75 207.45 -74.75 L207.45 -78.95 Q208.05 -78.25 208.85 -78.3 209.6 -78.35 210.05 -79.15 210.5 -79.9 210.45 -80.9 L210.45 -81.0 210.45 -81.1 Q210.3 -82.1 209.65 -82.8 209.05 -83.5 208.3 -83.45 L207.3 -82.9 207.2 -84.55 Q206.9 -90.0 207.0 -96.7 207.1 -103.45 211.9 -106.25 213.4 -107.2 215.6 -107.3 M210.1 -73.05 L213.45 -72.45 Q210.9 -72.3 210.1 -73.05 M319.8 -93.0 Q319.15 -92.75 318.95 -91.9 318.75 -91.1 319.15 -90.2 319.5 -89.35 320.3 -88.9 L321.7 -88.75 Q322.35 -89.05 322.55 -89.8 322.7 -90.6 322.35 -91.45 L322.3 -91.55 322.3 -91.65 321.2 -92.85 319.8 -93.0 M307.25 -97.4 Q309.25 -98.4 311.7 -98.55 L313.65 -98.45 Q317.9 -97.6 320.8 -94.25 L321.05 -94.0 321.3 -93.65 321.35 -93.65 Q325.05 -89.0 324.9 -83.1 324.75 -79.45 323.35 -76.15 L322.55 -73.8 Q318.35 -71.7 316.75 -73.4 319.5 -74.2 319.7 -74.8 320.0 -75.8 319.7 -76.7 319.4 -77.6 318.65 -77.8 L317.4 -77.65 318.9 -82.45 319.05 -84.4 Q318.8 -88.8 315.9 -92.25 L314.7 -93.2 314.5 -93.3 314.75 -93.4 314.9 -93.45 Q315.6 -93.8 315.8 -94.45 315.95 -95.2 315.4 -95.9 314.8 -96.65 313.8 -96.95 312.75 -97.25 311.9 -96.95 L311.4 -96.7 Q311.0 -96.4 310.85 -95.9 310.65 -95.2 311.3 -94.45 L311.45 -94.2 311.15 -94.2 311.0 -94.2 309.3 -94.15 308.7 -94.15 Q304.0 -94.1 301.8 -90.0 302.35 -92.65 303.9 -94.85 L304.0 -95.0 304.0 -95.05 304.2 -94.7 Q304.6 -94.3 305.45 -94.3 L307.0 -94.75 307.05 -94.8 307.1 -94.8 308.05 -95.9 Q308.3 -96.55 307.9 -97.0 L307.25 -97.4 M316.15 -73.8 L315.7 -73.8 315.95 -74.3 316.0 -74.05 316.15 -73.8 M321.95 -84.15 Q321.2 -83.65 320.85 -82.7 L320.8 -82.65 320.75 -82.55 Q320.45 -81.6 320.7 -80.75 320.95 -79.9 321.7 -79.65 322.45 -79.45 323.25 -79.95 324.0 -80.5 324.4 -81.45 324.75 -82.45 324.45 -83.3 324.2 -84.2 323.45 -84.45 322.7 -84.7 321.95 -84.15 M347.05 -74.85 Q353.05 -76.25 354.95 -78.2 357.1 -80.45 356.85 -82.0 L357.45 -80.65 Q358.45 -78.25 357.1 -75.25 353.35 -70.35 347.05 -74.85 M390.1 -79.5 L390.05 -79.5 Q389.25 -79.55 388.9 -79.0 388.55 -78.5 388.8 -77.7 389.05 -76.95 389.8 -76.35 390.5 -75.8 391.25 -75.75 392.0 -75.75 392.35 -76.25 392.65 -76.75 392.5 -77.4 L395.75 -73.8 Q397.45 -71.5 398.6 -68.8 L398.85 -68.15 398.15 -68.75 396.55 -68.85 Q395.85 -68.5 395.7 -67.55 395.5 -66.65 396.0 -65.65 396.45 -64.7 397.3 -64.25 L398.85 -64.2 Q399.55 -64.55 399.7 -65.45 L399.75 -65.6 400.25 -63.5 401.5 -58.35 Q402.0 -56.05 403.2 -54.0 L402.95 -54.05 401.4 -53.9 Q400.75 -53.5 400.75 -52.65 400.7 -51.8 401.35 -51.05 401.95 -50.3 402.85 -50.05 403.7 -49.85 404.35 -50.25 405.0 -50.7 405.05 -51.5 L404.9 -52.3 405.5 -52.05 Q407.7 -51.3 409.7 -52.5 L410.6 -53.4 Q409.7 -51.35 407.25 -49.9 404.85 -48.5 402.4 -49.05 L402.35 -48.95 400.8 -49.85 Q399.5 -50.7 398.45 -52.1 397.4 -53.55 396.55 -55.55 L396.25 -56.3 396.95 -55.7 398.5 -55.6 Q399.2 -55.95 399.4 -56.85 399.6 -57.75 399.2 -58.7 L399.15 -58.75 399.1 -58.85 Q398.65 -59.75 397.85 -60.15 L396.3 -60.3 Q395.6 -59.95 395.4 -59.0 L395.35 -58.4 394.25 -61.25 Q392.9 -64.6 390.95 -67.65 L390.9 -67.7 390.6 -68.2 388.65 -71.35 386.3 -74.15 Q385.1 -75.4 383.45 -76.35 381.3 -77.55 379.0 -78.35 L375.05 -78.9 375.1 -81.55 376.65 -82.75 378.2 -83.5 377.25 -82.7 Q376.65 -82.0 376.75 -81.25 376.8 -80.5 377.45 -80.1 L378.95 -80.05 380.35 -81.0 Q380.9 -81.75 380.85 -82.5 380.75 -83.25 380.15 -83.55 L378.95 -83.75 381.6 -84.1 382.8 -83.95 Q385.55 -83.3 387.8 -81.45 L390.1 -79.5 M386.2 -79.3 L386.1 -79.4 Q385.3 -80.0 384.45 -80.05 383.45 -80.15 382.95 -79.5 382.45 -78.95 382.7 -78.0 382.9 -77.1 383.7 -76.4 384.55 -75.7 385.5 -75.65 386.4 -75.6 386.95 -76.2 387.45 -76.85 387.25 -77.75 387.0 -78.6 386.25 -79.25 L386.2 -79.3 M374.5 -92.15 L373.85 -91.7 373.85 -92.15 374.5 -92.15 M393.45 -72.75 L393.4 -72.8 391.9 -73.85 390.4 -73.65 Q389.75 -73.2 389.75 -72.25 389.7 -71.35 390.35 -70.45 391.0 -69.6 391.9 -69.3 392.8 -69.05 393.45 -69.5 394.05 -69.95 394.1 -70.9 394.1 -71.8 393.5 -72.65 L393.45 -72.75" fill="#ff00fc" fill-rule="evenodd" stroke="none"/>
    <path d="M390.6 -68.2 L390.9 -67.7 390.6 -68.15 390.6 -68.2" fill="#970198" fill-rule="evenodd" stroke="none"/>
    <path d="M340.7 -110.55 Q338.55 -103.0 341.45 -99.25 344.55 -95.25 346.5 -93.5 L350.8 -89.4 354.75 -85.15 Q355.85 -83.85 356.75 -82.2 L356.85 -82.0 Q357.1 -80.45 354.95 -78.2 353.05 -76.25 347.05 -74.85 L347.3 -75.25 348.45 -76.35 Q353.4 -81.55 343.35 -91.3 334.6 -99.8 339.35 -108.7 L340.7 -110.55" fill="url(#gradient0)" fill-rule="evenodd" stroke="none"/>
    <path d="M375.05 -78.9 L379.0 -78.35 Q381.3 -77.55 383.45 -76.35 385.1 -75.4 386.3 -74.15 L388.65 -71.35 390.6 -68.2 390.6 -68.15 388.3 -71.05 386.45 -72.8 Q384.55 -74.15 383.15 -74.55 381.7 -75.0 381.1 -73.85 L380.95 -73.55 Q377.25 -73.35 375.05 -78.9" fill="url(#gradient1)" fill-rule="evenodd" stroke="none"/>
    <path d="M402.35 -48.95 L402.4 -49.05 Q404.85 -48.5 407.25 -49.9 409.7 -51.35 410.6 -53.4 L410.7 -53.5 411.0 -54.2 Q411.85 -56.4 411.6 -58.1 411.3 -59.8 410.6 -60.9 409.8 -62.05 408.75 -62.1 407.7 -62.15 407.45 -61.7 L406.9 -60.5 Q406.7 -59.75 407.3 -58.0 L408.05 -56.5 Q408.35 -55.75 406.65 -57.2 404.95 -58.65 405.1 -60.95 405.25 -63.25 407.15 -64.45 409.0 -65.65 411.55 -63.4 414.05 -61.15 414.55 -57.6 415.05 -54.05 413.75 -51.4 412.45 -48.8 409.25 -48.15 406.05 -47.5 404.15 -48.2 L402.35 -48.95" fill="url(#gradient2)" fill-rule="evenodd" stroke="none"/>
    <path d="M309.3 -94.15 L308.7 -94.05 Q307.15 -93.75 306.1 -92.9 L305.95 -92.75 Q304.1 -91.2 304.45 -87.45 304.7 -83.7 312.15 -82.75 L312.2 -82.65 Q301.35 -79.3 301.8 -89.85 L301.8 -90.0 Q304.0 -94.1 308.7 -94.15 L309.3 -94.15" fill="url(#gradient3)" fill-rule="evenodd" stroke="none"/>
    <path d="M212.1 -97.85 Q211.25 -101.55 212.4 -104.2 213.05 -105.75 214.45 -106.65 L215.6 -107.3 Q220.15 -107.5 227.5 -103.95 L227.45 -103.85 Q212.75 -106.15 212.45 -97.95 L212.1 -97.85" fill="url(#gradient4)" fill-rule="evenodd" stroke="none"/>
    <path d="M177.5 -85.2 L177.6 -85.35 179.9 -88.1 184.35 -91.85 189.05 -95.45 Q191.15 -97.0 194.7 -100.6 198.05 -104.05 196.65 -112.15 202.75 -101.3 191.9 -92.9 180.85 -84.35 185.15 -78.6 186.55 -76.7 188.35 -75.5 L188.05 -75.45 186.7 -76.05 185.95 -76.4 185.85 -76.45 185.8 -76.5 185.5 -76.55 183.5 -77.45 Q180.8 -78.75 178.95 -81.2 177.05 -83.7 177.5 -85.2" fill="url(#gradient5)" fill-rule="evenodd" stroke="none"/>
    <path d="M196.65 -112.15 L196.45 -112.5 M177.5 -85.2 L177.6 -85.35 179.9 -88.1 184.35 -91.85 189.05 -95.45 Q191.15 -97.0 194.7 -100.6 198.05 -104.05 196.65 -112.15 202.75 -101.3 191.9 -92.9 180.85 -84.35 185.15 -78.6 186.55 -76.7 188.35 -75.5 M177.65 -75.75 L176.65 -77.95 Q175.35 -81.45 176.7 -83.95 L177.5 -85.2 M212.45 -97.95 Q212.75 -106.15 227.45 -103.85 M227.5 -103.95 Q220.15 -107.5 215.6 -107.3 213.4 -107.2 211.9 -106.25 207.1 -103.45 207.0 -96.7 206.9 -90.0 207.2 -84.55 L207.3 -82.9 M207.45 -78.95 L207.45 -74.75 M214.15 -72.4 L214.0 -76.15 Q213.65 -81.45 212.9 -85.6 L212.65 -87.45 M212.45 -90.95 Q212.35 -92.65 212.4 -94.6 L212.4 -95.05 212.45 -97.95 M307.25 -97.4 Q309.25 -98.4 311.7 -98.55 L313.65 -98.45 Q317.9 -97.6 320.8 -94.25 L321.05 -94.0 321.3 -93.65 321.35 -93.65 Q325.05 -89.0 324.9 -83.1 324.75 -79.45 323.35 -76.15 L322.55 -73.8 M315.7 -73.8 L315.95 -74.3 M317.4 -77.65 L318.9 -82.45 319.05 -84.4 Q318.8 -88.8 315.9 -92.25 L314.7 -93.2 314.5 -93.3 M311.5 -94.15 L311.25 -94.15 309.3 -94.15 308.7 -94.05 Q307.15 -93.75 306.1 -92.9 L305.95 -92.75 Q304.1 -91.2 304.45 -87.45 304.7 -83.7 312.15 -82.75 M312.2 -82.65 L312.45 -82.75 M311.45 -94.2 L311.5 -94.2 M311.45 -94.2 L311.15 -94.2 311.0 -94.2 309.3 -94.15 M301.8 -90.0 L301.8 -89.85 Q301.35 -79.3 312.2 -82.65 M304.0 -95.05 L304.0 -95.0 303.9 -94.85 Q302.35 -92.65 301.8 -90.0 M356.85 -82.0 L356.75 -82.2 Q355.85 -83.85 354.75 -85.15 L350.8 -89.4 346.5 -93.5 Q344.55 -95.25 341.45 -99.25 338.55 -103.0 340.7 -110.55 M339.35 -108.7 Q334.6 -99.8 343.35 -91.3 353.4 -81.55 348.45 -76.35 L347.3 -75.25 M356.85 -82.0 L357.45 -80.65 Q358.45 -78.25 357.1 -75.25 M390.1 -79.5 L387.8 -81.45 Q385.55 -83.3 382.8 -83.95 L381.6 -84.1 378.95 -83.75 M378.2 -83.5 L376.65 -82.75 375.1 -81.55 M390.9 -67.7 L390.95 -67.65 Q392.9 -64.6 394.25 -61.25 L395.35 -58.4 M396.25 -56.3 L396.55 -55.55 Q397.4 -53.55 398.45 -52.1 399.5 -50.7 400.8 -49.85 L402.35 -48.95 404.15 -48.2 Q406.05 -47.5 409.25 -48.15 412.45 -48.8 413.75 -51.4 415.05 -54.05 414.55 -57.6 414.05 -61.15 411.55 -63.4 409.0 -65.65 407.15 -64.45 405.25 -63.25 405.1 -60.95 404.95 -58.65 406.65 -57.2 408.35 -55.75 408.05 -56.5 L407.3 -58.0 Q406.7 -59.75 406.9 -60.5 L407.45 -61.7 Q407.7 -62.15 408.75 -62.1 409.8 -62.05 410.6 -60.9 411.3 -59.8 411.6 -58.1 411.85 -56.4 411.0 -54.2 L410.7 -53.5 410.6 -53.4 409.7 -52.5 Q407.7 -51.3 405.5 -52.05 L404.9 -52.3 M403.2 -54.0 Q402.0 -56.05 401.5 -58.35 L400.25 -63.5 399.75 -65.6 M398.85 -68.15 L398.6 -68.8 Q397.45 -71.5 395.75 -73.8 L392.5 -77.4 M380.95 -73.55 L381.1 -73.85 Q381.7 -75.0 383.15 -74.55 384.55 -74.15 386.45 -72.8 L388.3 -71.05 390.6 -68.15 390.9 -67.7" fill="none" stroke="#333333" stroke-linecap="round" stroke-linejoin="round" stroke-width="0.05"/>
    <path d="M373.85 -91.7 L374.5 -92.15" fill="none" stroke="#333333" stroke-linecap="round" stroke-linejoin="round" stroke-width="0.05"/>
    <path d="M134.9 -90.45 Q131.6 -87.1 132.95 -82.6 L133.15 -82.05 133.6 -80.4 133.75 -79.95 133.45 -80.05 131.9 -80.0 Q131.25 -79.6 131.25 -78.65 131.2 -77.75 131.8 -76.9 132.35 -76.0 133.25 -75.65 L134.8 -75.75 Q135.4 -76.2 135.45 -77.1 L135.45 -77.35 Q136.1 -76.8 136.95 -76.4 141.15 -74.7 145.45 -75.85 L147.25 -76.6 151.45 -79.55 Q151.3 -78.85 151.65 -78.3 152.1 -77.65 153.05 -77.65 154.0 -77.65 155.0 -78.25 L156.45 -79.75 Q156.9 -80.65 156.15 -81.3 155.4 -81.95 154.5 -81.95 L154.25 -81.95 156.8 -84.2 157.35 -84.75 Q160.9 -80.55 157.35 -76.3 L154.65 -74.35 Q151.9 -71.95 148.45 -70.7 142.85 -68.75 137.25 -70.75 L137.2 -70.75 137.1 -70.8 136.5 -71.1 Q132.4 -72.85 130.3 -76.6 129.85 -77.4 129.65 -78.35 129.1 -80.7 129.45 -82.95 L130.0 -82.45 Q130.5 -82.2 131.05 -82.65 131.6 -83.1 131.85 -83.9 L131.85 -83.95 131.85 -84.0 Q132.05 -84.85 131.85 -85.6 131.6 -86.45 131.1 -86.7 L130.7 -86.75 130.85 -86.95 Q132.5 -89.15 134.9 -90.45 M147.7 -74.8 L147.65 -74.7 147.6 -74.65 Q146.8 -74.05 146.55 -73.15 146.25 -72.25 146.75 -71.6 147.2 -71.0 148.15 -71.05 149.05 -71.05 149.9 -71.7 150.7 -72.35 151.0 -73.25 151.25 -74.15 150.8 -74.8 150.35 -75.4 149.4 -75.4 148.5 -75.4 147.7 -74.8 M138.2 -73.6 Q137.45 -73.15 137.4 -72.4 137.35 -71.7 138.0 -71.15 138.55 -70.6 139.45 -70.5 L139.55 -70.5 139.6 -70.5 Q140.5 -70.45 141.25 -70.85 141.95 -71.3 142.05 -72.0 142.1 -72.7 141.45 -73.25 140.85 -73.85 139.9 -73.9 138.9 -74.05 138.2 -73.6" fill="#ff00fc" fill-rule="evenodd" stroke="none"/>
    <path d="M135.45 -77.35 L135.45 -77.1 Q135.4 -76.2 134.8 -75.75 L133.25 -75.65 Q132.35 -76.0 131.8 -76.9 131.2 -77.75 131.25 -78.65 131.25 -79.6 131.9 -80.0 L133.45 -80.05 133.75 -79.95 133.8 -79.9 134.9 -78.95 134.9 -78.85 135.0 -78.8 135.45 -77.35 M147.7 -74.8 Q148.5 -75.4 149.4 -75.4 150.35 -75.4 150.8 -74.8 151.25 -74.15 151.0 -73.25 150.7 -72.35 149.9 -71.7 149.05 -71.05 148.15 -71.05 147.2 -71.0 146.75 -71.6 146.25 -72.25 146.55 -73.15 146.8 -74.05 147.6 -74.65 L147.65 -74.7 147.7 -74.8 M154.25 -81.95 L154.5 -81.95 Q155.4 -81.95 156.15 -81.3 156.9 -80.65 156.45 -79.75 L155.0 -78.25 Q154.0 -77.65 153.05 -77.65 152.1 -77.65 151.65 -78.3 151.3 -78.85 151.45 -79.55 L151.5 -79.8 Q151.75 -80.7 152.6 -81.3 L152.65 -81.35 152.75 -81.4 Q153.45 -81.9 154.25 -81.95 M154.5 -79.85 L154.5 -80.35 154.0 -80.55 153.4 -80.35 153.0 -79.85 Q152.85 -79.55 153.05 -79.3 153.15 -79.15 153.5 -79.15 L154.1 -79.35 154.5 -79.85 M130.7 -86.75 L131.1 -86.7 Q131.6 -86.45 131.85 -85.6 132.05 -84.85 131.85 -84.0 L131.85 -83.95 131.85 -83.9 Q131.6 -83.1 131.05 -82.65 130.5 -82.2 130.0 -82.45 L129.45 -82.95 129.2 -83.5 Q128.95 -84.3 129.2 -85.15 129.45 -86.05 130.0 -86.45 L130.7 -86.75 M130.35 -83.8 L130.75 -83.9 131.0 -84.35 131.0 -84.9 130.75 -85.25 130.4 -85.2 Q130.2 -85.05 130.15 -84.7 L130.15 -84.15 130.35 -83.8 M140.5 -72.1 L140.3 -72.5 139.75 -72.7 139.15 -72.6 138.9 -72.25 Q138.85 -72.05 139.1 -71.85 139.3 -71.65 139.65 -71.6 L140.25 -71.7 140.5 -72.1 M133.9 -78.2 L133.4 -78.65 132.9 -78.6 132.7 -78.15 132.9 -77.55 133.4 -77.15 133.9 -77.15 134.1 -77.6 133.9 -78.2 M138.2 -73.6 Q138.9 -74.05 139.9 -73.9 140.85 -73.85 141.45 -73.25 142.1 -72.7 142.05 -72.0 141.95 -71.3 141.25 -70.85 140.5 -70.45 139.6 -70.5 L139.55 -70.5 139.45 -70.5 Q138.55 -70.6 138.0 -71.15 137.35 -71.7 137.4 -72.4 137.45 -73.15 138.2 -73.6 M149.45 -73.8 Q149.3 -74.0 149.0 -74.0 L148.4 -73.75 148.0 -73.2 Q147.85 -72.9 148.05 -72.7 148.2 -72.5 148.5 -72.5 L149.1 -72.75 149.5 -73.3 149.45 -73.8" fill="#c002c1" fill-rule="evenodd" stroke="none"/>
    <path d="M134.9 -90.45 L135.0 -90.5 Q145.0 -94.2 145.05 -82.9 L145.1 -82.9 145.0 -82.9 Q141.8 -89.65 138.15 -88.75 134.45 -87.9 133.45 -85.65 L133.4 -85.45 Q132.9 -84.2 133.05 -82.6 L133.15 -82.05 132.95 -82.6 Q131.6 -87.1 134.9 -90.45" fill="url(#gradient6)" fill-rule="evenodd" stroke="none"/>
    <path d="M154.5 -79.85 L154.1 -79.35 153.5 -79.15 Q153.15 -79.15 153.05 -79.3 152.85 -79.55 153.0 -79.85 L153.4 -80.35 154.0 -80.55 154.5 -80.35 154.5 -79.85 M130.35 -83.8 L130.15 -84.15 130.15 -84.7 Q130.2 -85.05 130.4 -85.2 L130.75 -85.25 131.0 -84.9 131.0 -84.35 130.75 -83.9 130.35 -83.8 M133.9 -78.2 L134.1 -77.6 133.9 -77.15 133.4 -77.15 132.9 -77.55 132.7 -78.15 132.9 -78.6 133.4 -78.65 133.9 -78.2 M140.5 -72.1 L140.25 -71.7 139.65 -71.6 Q139.3 -71.65 139.1 -71.85 138.85 -72.05 138.9 -72.25 L139.15 -72.6 139.75 -72.7 140.3 -72.5 140.5 -72.1 M149.45 -73.8 L149.5 -73.3 149.1 -72.75 148.5 -72.5 Q148.2 -72.5 148.05 -72.7 147.85 -72.9 148.0 -73.2 L148.4 -73.75 149.0 -74.0 Q149.3 -74.0 149.45 -73.8" fill="#540154" fill-rule="evenodd" stroke="none"/>
    <path d="M145.1 -82.9 L145.05 -82.9 Q145.0 -94.2 135.0 -90.5 L134.9 -90.45 Q132.5 -89.15 130.85 -86.95 L130.7 -86.75 M133.15 -82.05 L133.05 -82.6 Q132.9 -84.2 133.4 -85.45 L133.45 -85.65 Q134.45 -87.9 138.15 -88.75 141.8 -89.65 145.0 -82.9 M145.1 -82.9 L145.1 -82.6 M151.45 -79.55 L147.25 -76.6 145.45 -75.85 Q141.15 -74.7 136.95 -76.4 136.1 -76.8 135.45 -77.35 M133.75 -79.95 L133.6 -80.4 133.15 -82.05 133.8 -79.9 M157.35 -84.75 L156.8 -84.2 154.25 -81.95 M137.1 -70.8 L137.2 -70.75 137.25 -70.75 Q142.85 -68.75 148.45 -70.7 151.9 -71.95 154.65 -74.35 L157.35 -76.3 M129.45 -82.95 Q129.1 -80.7 129.65 -78.35 129.85 -77.4 130.3 -76.6 132.4 -72.85 136.5 -71.1 L136.8 -70.9 137.1 -70.8" fill="none" stroke="#333333" stroke-linecap="round" stroke-linejoin="round" stroke-width="0.05"/>
    <path d="M96.15 -137.05 L86.05 -138.6 88.7 -146.3 96.15 -137.05 M79.1 -72.25 L74.8 -62.95 68.15 -67.6 79.1 -72.25 M123.15 -13.15 L115.5 -22.25 125.6 -20.9 123.15 -13.15 M277.65 -158.5 L278.85 -146.65 271.25 -153.5 277.65 -158.5 M233.65 -156.7 L225.95 -163.4 232.25 -168.5 233.65 -156.7 M176.65 -172.35 L172.35 -163.05 165.7 -167.7 176.65 -172.35 M199.35 -14.4 L203.1 -3.1 194.2 -8.1 199.35 -14.4 M263.15 -24.7 L258.85 -15.4 252.2 -20.05 263.15 -24.7 M297.35 -10.25 L287.5 -13.1 291.1 -20.4 297.35 -10.25 M422.1 -148.1 L428.1 -153.65 430.3 -141.95 422.1 -148.1 M436.3 -115.2 L447.25 -119.85 442.95 -110.55 436.3 -115.2 M472.65 -102.5 L471.9 -94.4 462.45 -101.6 472.65 -102.5 M363.35 -165.95 L359.05 -156.65 352.4 -161.3 363.35 -165.95 M341.1 -21.0 L336.8 -11.7 330.15 -16.35 341.1 -21.0 M416.0 -26.7 L411.7 -17.4 405.05 -22.05 416.0 -26.7 M455.15 -41.3 L453.3 -53.05 461.25 -46.65 455.15 -41.3" fill="#ccccff" fill-opacity="0.6" fill-rule="evenodd" stroke="none"/>
    <path d="M96.15 -137.05 L86.05 -138.6 88.7 -146.3 96.15 -137.05 M79.1 -72.25 L74.8 -62.95 68.15 -67.6 79.1 -72.25 M123.15 -13.15 L115.5 -22.25 125.6 -20.9 123.15 -13.15 M277.65 -158.5 L278.85 -146.65 271.25 -153.5 277.65 -158.5 M233.65 -156.7 L225.95 -163.4 232.25 -168.5 233.65 -156.7 M176.65 -172.35 L172.35 -163.05 165.7 -167.7 176.65 -172.35 M199.35 -14.4 L203.1 -3.1 194.2 -8.1 199.35 -14.4 M263.15 -24.7 L258.85 -15.4 252.2 -20.05 263.15 -24.7 M297.35 -10.25 L287.5 -13.1 291.1 -20.4 297.35 -10.25 M422.1 -148.1 L428.1 -153.65 430.3 -141.95 422.1 -148.1 M436.3 -115.2 L447.25 -119.85 442.95 -110.55 436.3 -115.2 M472.65 -102.5 L471.9 -94.4 462.45 -101.6 472.65 -102.5 M363.35 -165.95 L359.05 -156.65 352.4 -161.3 363.35 -165.95 M341.1 -21.0 L336.8 -11.7 330.15 -16.35 341.1 -21.0 M416.0 -26.7 L411.7 -17.4 405.05 -22.05 416.0 -26.7 M455.15 -41.3 L453.3 -53.05 461.25 -46.65 455.15 -41.3 Z" fill="none" stroke="#000000" stroke-linecap="round" stroke-linejoin="round" stroke-width="1.0"/>
  </g>
  <defs>
    <linearGradient gradientTransform="matrix(-0.0105, -0.0194, -0.0085, 0.0046, 346.1, -84.4)" gradientUnits="userSpaceOnUse" id="gradient0" spreadMethod="pad" x1="-819.2" x2="819.2">
      <stop offset="0.2901960784313726" stop-color="#970198"/>
      <stop offset="0.6274509803921569" stop-color="#db02db"/>
    </linearGradient>
    <linearGradient gradientTransform="matrix(0.0168, 0.0404, 0.0206, -0.0085, 395.45, -48.9)" gradientUnits="userSpaceOnUse" id="gradient1" spreadMethod="pad" x1="-819.2" x2="819.2">
      <stop offset="0.2901960784313726" stop-color="#970198"/>
      <stop offset="0.6274509803921569" stop-color="#db02db"/>
    </linearGradient>
    <linearGradient gradientTransform="matrix(0.0029, -0.0102, -0.0066, -0.0019, 409.35, -55.75)" gradientUnits="userSpaceOnUse" id="gradient2" spreadMethod="pad" x1="-819.2" x2="819.2">
      <stop offset="0.2901960784313726" stop-color="#970198"/>
      <stop offset="0.6274509803921569" stop-color="#db02db"/>
    </linearGradient>
    <linearGradient gradientTransform="matrix(0.0041, 0.0067, 0.0056, -0.0033, 307.25, -87.25)" gradientUnits="userSpaceOnUse" id="gradient3" spreadMethod="pad" x1="-819.2" x2="819.2">
      <stop offset="0.2901960784313726" stop-color="#970198"/>
      <stop offset="0.6274509803921569" stop-color="#db02db"/>
    </linearGradient>
    <linearGradient gradientTransform="matrix(0.0094, -0.0036, 0.0017, 0.0043, 218.45, -104.35)" gradientUnits="userSpaceOnUse" id="gradient4" spreadMethod="pad" x1="-819.2" x2="819.2">
      <stop offset="0.2901960784313726" stop-color="#970198"/>
      <stop offset="0.6274509803921569" stop-color="#db02db"/>
    </linearGradient>
    <linearGradient gradientTransform="matrix(0.0126, -0.0181, 0.0079, 0.0055, 188.4, -86.35)" gradientUnits="userSpaceOnUse" id="gradient5" spreadMethod="pad" x1="-819.2" x2="819.2">
      <stop offset="0.2901960784313726" stop-color="#970198"/>
      <stop offset="0.6274509803921569" stop-color="#db02db"/>
    </linearGradient>
    <linearGradient gradientTransform="matrix(0.0077, 0.0018, -0.0015, 0.0064, 139.2, -86.1)" gradientUnits="userSpaceOnUse" id="gradient6" spreadMethod="pad" x1="-819.2" x2="819.2">
      <stop offset="0.2901960784313726" stop-color="#970198"/>
      <stop offset="0.6274509803921569" stop-color="#db02db"/>
    </linearGradient>
  </defs>
</svg>
