<?xml version="1.0" encoding="UTF-8" standalone="no"?>
<svg xmlns:ffdec="https://www.free-decompiler.com/flash" xmlns:xlink="http://www.w3.org/1999/xlink" ffdec:objectType="shape" height="89.5px" width="308.7px" xmlns="http://www.w3.org/2000/svg">
  <g transform="matrix(1.0, 0.0, 0.0, 1.0, -106.8, 138.5)">
    <path d="M108.45 -99.95 L108.85 -99.9 Q109.35 -99.65 109.6 -98.8 109.8 -98.05 109.6 -97.2 L109.6 -97.15 109.6 -97.1 Q109.35 -96.3 108.8 -95.85 108.25 -95.4 107.75 -95.65 L107.2 -96.15 106.95 -96.7 Q106.7 -97.5 106.95 -98.35 107.2 -99.25 107.75 -99.65 108.1 -99.95 108.45 -99.95 M146.5 -103.05 L147.1 -102.6 Q147.6 -102.05 147.3 -101.5 147.0 -100.95 146.15 -100.7 L144.25 -100.6 Q143.25 -100.85 142.75 -101.4 142.25 -101.95 142.55 -102.5 L142.7 -102.75 143.7 -103.3 145.55 -103.35 145.6 -103.35 145.7 -103.35 146.5 -103.05 M132.0 -95.15 L132.25 -95.15 Q133.15 -95.15 133.65 -94.5 134.05 -93.85 133.8 -92.95 133.5 -92.05 132.65 -91.45 131.75 -90.85 130.8 -90.85 129.85 -90.85 129.4 -91.5 129.05 -92.05 129.2 -92.75 L129.25 -93.0 Q129.5 -93.9 130.35 -94.5 L130.4 -94.55 130.5 -94.6 132.0 -95.15 M113.2 -90.55 L113.2 -90.3 Q113.15 -89.4 112.55 -88.95 L111.0 -88.85 Q110.1 -89.2 109.55 -90.1 108.95 -90.95 109.0 -91.85 109.0 -92.8 109.65 -93.2 L111.2 -93.25 111.5 -93.15 111.55 -93.1 112.65 -92.15 112.65 -92.05 112.75 -92.0 113.2 -90.55 M145.7 -102.2 L145.2 -102.45 144.55 -102.45 Q144.2 -102.4 144.15 -102.2 144.05 -102.0 144.2 -101.85 144.4 -101.65 144.75 -101.6 L145.4 -101.6 Q145.7 -101.7 145.8 -101.85 L145.7 -102.2 M152.15 -96.75 L152.2 -97.2 151.85 -97.7 151.2 -97.95 150.75 -97.8 Q150.6 -97.65 150.7 -97.35 150.8 -97.05 151.1 -96.85 L151.7 -96.6 Q152.0 -96.6 152.15 -96.75 M153.55 -95.8 Q153.05 -95.25 152.1 -95.3 151.2 -95.35 150.4 -95.9 L150.35 -95.95 150.25 -96.0 Q149.45 -96.65 149.25 -97.4 149.0 -98.25 149.5 -98.8 149.95 -99.4 150.9 -99.3 151.8 -99.3 152.65 -98.65 153.5 -98.05 153.75 -97.2 154.0 -96.35 153.55 -95.8 M142.25 -96.1 Q141.95 -95.25 141.1 -94.6 L141.05 -94.6 141.0 -94.55 Q140.1 -94.0 139.2 -94.05 138.25 -94.1 137.85 -94.75 137.4 -95.4 137.7 -96.25 138.0 -97.15 138.9 -97.75 139.8 -98.35 140.75 -98.3 141.7 -98.3 142.15 -97.65 142.55 -97.0 142.25 -96.1 M132.25 -93.55 L131.75 -93.75 131.15 -93.55 130.75 -93.05 Q130.6 -92.75 130.8 -92.5 130.9 -92.35 131.25 -92.35 L131.85 -92.55 132.25 -93.05 132.25 -93.55 M140.8 -96.1 L140.75 -96.6 140.3 -96.85 139.65 -96.65 139.25 -96.1 Q139.1 -95.85 139.25 -95.6 139.4 -95.4 139.75 -95.4 L140.35 -95.6 140.8 -96.1 M125.4 -87.9 L125.45 -88.0 Q126.25 -88.6 127.15 -88.6 128.1 -88.6 128.55 -88.0 129.0 -87.35 128.75 -86.45 128.45 -85.55 127.65 -84.9 126.8 -84.25 125.9 -84.25 124.95 -84.2 124.5 -84.8 124.0 -85.45 124.3 -86.35 124.55 -87.25 125.35 -87.85 L125.4 -87.9 M127.2 -87.0 L126.75 -87.2 126.15 -86.95 125.75 -86.4 Q125.6 -86.1 125.8 -85.9 125.95 -85.7 126.25 -85.7 126.55 -85.75 126.85 -85.95 L127.25 -86.5 127.2 -87.0 M111.85 -90.8 L111.65 -91.4 111.15 -91.85 110.65 -91.8 110.45 -91.35 110.65 -90.75 111.15 -90.35 111.65 -90.35 111.85 -90.8 M117.65 -87.1 Q118.6 -87.05 119.2 -86.45 119.85 -85.9 119.8 -85.2 119.7 -84.5 119.0 -84.05 L117.35 -83.7 117.3 -83.7 117.2 -83.7 Q116.3 -83.8 115.75 -84.35 115.1 -84.9 115.15 -85.6 115.2 -86.35 115.95 -86.8 116.65 -87.25 117.65 -87.1 M118.25 -85.3 L118.05 -85.7 117.5 -85.9 116.9 -85.8 116.65 -85.45 Q116.6 -85.25 116.85 -85.05 117.05 -84.85 117.4 -84.8 L118.0 -84.9 118.25 -85.3 M108.15 -98.4 L107.9 -97.9 107.9 -97.35 Q107.95 -97.1 108.1 -97.0 L108.5 -97.1 108.75 -97.55 108.75 -98.1 108.5 -98.45 108.15 -98.4 M298.05 -117.0 Q297.95 -117.35 298.15 -117.75 298.4 -118.4 299.15 -118.85 299.9 -119.35 300.75 -119.35 L301.3 -119.35 Q301.7 -119.25 301.95 -118.95 302.35 -118.5 302.1 -117.85 L301.15 -116.75 301.1 -116.75 301.05 -116.7 Q300.3 -116.3 299.5 -116.25 298.65 -116.25 298.25 -116.65 L298.05 -117.0 M306.95 -80.2 L306.45 -80.9 306.4 -81.0 306.35 -81.05 Q305.85 -81.9 305.85 -82.75 305.8 -83.5 306.05 -83.9 L306.3 -84.1 307.4 -84.25 308.55 -83.1 309.1 -81.3 Q309.1 -80.35 308.7 -79.9 L307.55 -79.8 306.95 -80.2 M310.0 -96.25 Q309.8 -97.0 310.05 -97.8 L310.1 -97.9 310.1 -97.95 Q310.4 -98.95 311.15 -99.45 L311.45 -99.6 312.7 -99.75 Q313.45 -99.55 313.75 -98.65 314.05 -97.75 313.75 -96.75 313.4 -95.75 312.65 -95.2 311.85 -94.7 311.1 -94.9 310.35 -95.15 310.05 -96.0 L310.0 -96.25 M308.55 -115.25 L307.05 -115.3 306.95 -115.35 306.85 -115.35 Q306.05 -115.65 305.55 -116.1 L305.55 -116.15 305.5 -116.15 305.35 -116.4 Q304.7 -117.15 304.9 -117.85 305.05 -118.35 305.45 -118.65 L305.95 -118.9 Q306.8 -119.2 307.85 -118.9 L309.45 -117.85 Q310.0 -117.15 309.85 -116.4 309.65 -115.75 308.95 -115.4 L308.8 -115.35 308.55 -115.25 M300.8 -118.15 L300.35 -118.3 299.85 -118.1 299.5 -117.7 Q299.35 -117.5 299.5 -117.35 L299.95 -117.25 300.45 -117.4 300.85 -117.8 300.8 -118.15 M316.35 -113.6 L316.35 -113.5 316.4 -113.4 Q316.75 -112.55 316.6 -111.75 316.4 -111.0 315.75 -110.7 L314.35 -110.85 Q313.55 -111.3 313.2 -112.15 312.8 -113.05 313.0 -113.85 313.2 -114.7 313.85 -114.95 L315.25 -114.8 316.35 -113.6 M314.5 -113.6 Q314.3 -113.5 314.25 -113.2 314.2 -112.95 314.3 -112.65 L314.7 -112.15 315.15 -112.1 315.4 -112.5 315.35 -113.05 314.95 -113.55 314.5 -113.6 M306.9 -117.65 L306.65 -117.5 306.55 -117.3 Q306.45 -117.1 306.65 -116.85 306.9 -116.6 307.25 -116.5 L307.8 -116.45 307.9 -116.45 308.25 -116.8 308.1 -117.3 307.55 -117.65 306.9 -117.65 M317.5 -106.4 Q318.25 -106.15 318.5 -105.25 318.8 -104.4 318.45 -103.4 318.05 -102.45 317.3 -101.9 316.5 -101.4 315.75 -101.6 315.0 -101.85 314.75 -102.7 314.5 -103.55 314.8 -104.5 L314.85 -104.6 314.9 -104.65 Q315.25 -105.6 316.0 -106.1 316.75 -106.65 317.5 -106.4 M317.15 -103.8 L317.2 -104.45 316.9 -104.8 316.4 -104.7 316.0 -104.2 315.95 -103.55 Q316.05 -103.25 316.3 -103.15 L316.8 -103.25 317.15 -103.8 M185.55 -96.35 L185.8 -96.25 185.9 -96.2 185.95 -96.2 186.05 -96.15 187.2 -95.05 Q187.6 -94.35 187.3 -93.65 187.0 -93.05 186.15 -92.85 185.3 -92.7 184.45 -93.1 183.6 -93.5 183.2 -94.25 182.75 -95.0 183.05 -95.6 183.35 -96.25 184.2 -96.45 L185.55 -96.35 M182.55 -73.8 L181.3 -74.3 181.25 -74.9 180.85 -75.25 Q180.6 -75.3 180.4 -75.05 L180.15 -74.7 179.0 -75.05 178.95 -75.1 179.3 -75.85 179.8 -76.4 Q180.5 -77.05 181.3 -76.9 182.05 -76.75 182.45 -75.85 182.8 -75.0 182.6 -73.95 L182.55 -73.8 M167.6 -101.05 L167.35 -101.15 Q166.7 -101.5 166.35 -102.15 L166.3 -102.25 166.25 -102.3 Q165.9 -103.05 166.0 -103.75 166.05 -104.3 166.4 -104.6 L166.65 -104.8 Q167.15 -105.15 167.85 -104.8 L168.9 -103.7 Q169.3 -103.0 169.2 -102.2 169.1 -101.5 168.55 -101.15 L167.6 -101.05 M174.1 -103.15 L174.4 -103.0 174.45 -102.95 174.5 -102.9 175.15 -102.3 175.45 -101.65 Q175.65 -100.9 175.25 -100.35 174.85 -99.8 174.0 -99.75 173.2 -99.75 172.45 -100.25 171.7 -100.8 171.45 -101.55 171.2 -102.3 171.65 -102.85 172.05 -103.45 172.85 -103.45 L174.1 -103.15 M167.5 -102.35 L167.9 -102.3 168.1 -102.65 168.0 -103.2 167.65 -103.55 167.25 -103.6 167.05 -103.25 167.15 -102.7 Q167.25 -102.45 167.5 -102.35 M172.85 -102.1 L172.8 -101.65 173.15 -101.2 173.7 -101.0 174.1 -101.2 174.15 -101.65 173.8 -102.05 173.25 -102.25 172.85 -102.1 M215.25 -119.05 L215.5 -119.0 Q216.3 -118.8 216.95 -118.0 217.5 -117.25 217.55 -116.4 217.55 -115.55 217.05 -115.1 L215.65 -114.9 Q214.85 -115.1 214.3 -115.8 L214.25 -115.85 214.2 -115.95 Q213.65 -116.65 213.6 -117.45 213.55 -118.3 214.15 -118.75 214.6 -119.15 215.25 -119.05 M231.2 -100.85 L232.15 -100.45 Q232.9 -99.95 233.25 -99.0 L233.25 -98.9 233.3 -98.8 233.35 -97.25 233.25 -97.0 Q232.95 -96.1 232.2 -95.85 231.45 -95.65 230.7 -96.15 229.95 -96.75 229.6 -97.75 229.25 -98.75 229.6 -99.65 229.85 -100.55 230.65 -100.8 L231.2 -100.85 M235.05 -92.05 L235.2 -91.95 Q235.65 -91.55 235.65 -90.6 235.65 -89.75 235.15 -88.9 L235.15 -88.8 235.1 -88.75 Q234.6 -88.0 233.9 -87.7 L233.85 -87.65 232.65 -87.8 Q232.15 -88.25 232.15 -89.15 232.15 -90.1 232.7 -90.95 233.2 -91.85 233.95 -92.1 L235.05 -92.05 M224.85 -79.05 L224.4 -78.3 Q223.8 -77.65 222.8 -77.45 L222.7 -77.45 222.6 -77.45 221.45 -77.5 Q221.1 -77.55 220.8 -77.7 L220.6 -77.8 Q219.95 -78.25 219.85 -78.9 219.7 -79.7 220.35 -80.35 221.0 -81.05 222.05 -81.2 L223.95 -81.0 Q224.75 -80.6 224.9 -79.8 L224.9 -79.1 224.85 -79.05 M215.75 -85.25 L215.9 -85.6 Q216.4 -86.4 217.35 -86.75 L217.45 -86.75 217.55 -86.8 218.9 -86.95 219.35 -86.85 Q220.25 -86.6 220.55 -85.85 220.8 -85.15 220.3 -84.35 219.75 -83.55 218.75 -83.15 L216.85 -83.05 Q215.9 -83.35 215.65 -84.1 215.45 -84.65 215.75 -85.25 M224.5 -92.9 L224.1 -93.7 224.1 -93.75 224.05 -93.85 Q223.75 -94.85 224.0 -95.7 L224.25 -96.2 Q224.5 -96.65 225.05 -96.85 225.75 -97.1 226.55 -96.55 227.35 -96.05 227.7 -95.0 228.05 -94.0 227.75 -93.1 227.45 -92.2 226.75 -91.95 226.0 -91.7 225.2 -92.2 L224.5 -92.9 M218.6 -106.4 Q217.65 -106.6 216.9 -107.35 216.15 -108.15 216.1 -109.05 L216.05 -109.5 Q216.1 -110.15 216.55 -110.5 217.1 -111.05 218.05 -110.85 218.95 -110.7 219.65 -109.95 L219.7 -109.9 219.8 -109.85 Q220.45 -109.1 220.55 -108.2 220.65 -107.3 220.1 -106.75 219.5 -106.25 218.6 -106.4 M209.05 -124.4 Q209.7 -123.95 210.05 -123.05 L210.05 -123.0 210.1 -122.95 210.15 -121.3 Q209.85 -120.5 209.2 -120.25 208.55 -120.05 207.85 -120.5 207.15 -121.0 206.85 -121.9 206.5 -122.8 206.8 -123.6 207.0 -124.4 207.7 -124.6 208.35 -124.85 209.05 -124.4 M218.25 -109.4 L217.75 -109.3 Q217.55 -109.15 217.6 -108.85 L217.9 -108.25 Q218.15 -108.0 218.5 -107.9 L219.0 -108.0 219.1 -108.5 218.8 -109.05 218.25 -109.4 M208.25 -123.2 L207.95 -122.85 208.0 -122.25 Q208.1 -121.95 208.35 -121.8 L208.75 -121.7 209.05 -122.05 209.0 -122.65 208.7 -123.1 208.25 -123.2 M216.2 -116.7 L216.0 -117.25 215.5 -117.6 215.05 -117.55 Q214.85 -117.4 214.9 -117.1 L215.1 -116.55 Q215.3 -116.3 215.6 -116.2 L216.05 -116.3 216.2 -116.7 M225.1 -105.45 L224.55 -105.4 Q224.35 -105.25 224.4 -104.95 L224.6 -104.35 225.15 -103.9 225.65 -103.95 Q225.85 -104.15 225.85 -104.45 L225.6 -105.05 225.1 -105.45 M226.55 -105.85 L226.6 -105.8 226.65 -105.75 Q227.2 -104.95 227.25 -104.0 227.2 -103.1 226.6 -102.6 L225.05 -102.4 Q224.15 -102.7 223.5 -103.55 222.85 -104.4 222.9 -105.3 222.85 -106.25 223.5 -106.75 L225.05 -106.95 Q225.9 -106.7 226.55 -105.85 M231.7 -99.05 L231.2 -99.2 230.9 -98.8 230.9 -98.15 Q231.0 -97.8 231.25 -97.6 L231.75 -97.45 232.1 -97.85 232.05 -98.5 231.7 -99.05 M234.4 -90.55 L234.0 -90.6 Q233.75 -90.5 233.55 -90.2 L233.35 -89.6 Q233.3 -89.3 233.5 -89.15 L233.9 -89.1 234.35 -89.5 234.55 -90.1 234.4 -90.55 M225.2 -94.85 Q225.1 -94.55 225.25 -94.2 L225.65 -93.65 226.15 -93.55 226.45 -93.95 226.4 -94.6 226.05 -95.15 225.55 -95.25 225.2 -94.85 M229.25 -87.55 Q229.75 -86.95 229.5 -86.0 229.25 -85.15 228.45 -84.5 L228.4 -84.45 228.3 -84.4 Q227.5 -83.85 226.6 -83.8 225.65 -83.8 225.2 -84.4 224.7 -85.05 224.95 -85.95 225.2 -86.85 226.05 -87.5 226.9 -88.15 227.85 -88.15 228.75 -88.2 229.25 -87.55 M223.1 -78.95 L223.25 -79.45 222.9 -79.8 222.25 -79.9 Q221.9 -79.85 221.7 -79.6 L221.5 -79.15 Q221.5 -78.9 221.8 -78.75 L222.5 -78.7 Q222.85 -78.75 223.1 -78.95 M228.0 -85.95 L227.95 -86.5 227.5 -86.65 226.9 -86.4 226.5 -85.9 Q226.35 -85.6 226.55 -85.4 226.7 -85.2 227.0 -85.2 L227.65 -85.45 228.0 -85.95 M212.35 -81.05 Q213.1 -80.65 213.15 -79.9 213.2 -79.2 212.5 -78.55 211.8 -78.0 210.8 -77.8 L210.75 -77.8 210.65 -77.8 208.95 -78.1 Q208.2 -78.5 208.15 -79.25 208.1 -79.95 208.85 -80.55 209.55 -81.2 210.6 -81.35 211.6 -81.5 212.35 -81.05 M211.3 -79.2 L211.55 -79.65 211.25 -80.0 210.65 -80.1 210.05 -79.85 Q209.75 -79.65 209.8 -79.4 L210.05 -79.05 210.7 -78.95 211.3 -79.2 M218.55 -85.65 L217.9 -85.6 217.35 -85.2 Q217.15 -84.95 217.25 -84.7 L217.65 -84.4 218.2 -84.4 218.3 -84.45 218.85 -84.85 218.95 -85.35 Q218.85 -85.6 218.55 -85.65 M184.5 -94.55 L184.95 -94.2 185.55 -94.1 185.9 -94.35 185.85 -94.8 185.45 -95.2 184.85 -95.3 Q184.55 -95.25 184.45 -95.05 184.35 -94.85 184.5 -94.55 M184.2 -87.3 L184.55 -87.7 184.6 -88.35 184.25 -88.9 183.8 -89.05 183.4 -88.7 183.4 -88.05 Q183.5 -87.7 183.75 -87.45 183.95 -87.25 184.2 -87.3 M189.55 -88.35 Q189.85 -89.25 190.6 -89.5 191.3 -89.75 192.1 -89.2 192.8 -88.65 193.15 -87.6 193.45 -86.6 193.15 -85.7 192.8 -84.8 192.1 -84.55 191.35 -84.35 190.6 -84.85 189.85 -85.4 189.55 -86.35 L189.55 -86.45 189.5 -86.5 Q189.25 -87.5 189.55 -88.35 M185.9 -88.7 Q186.15 -87.65 185.8 -86.75 185.45 -85.9 184.65 -85.7 183.9 -85.55 183.2 -86.1 182.5 -86.7 182.2 -87.65 L182.2 -87.75 182.2 -87.8 Q181.95 -88.85 182.3 -89.65 182.65 -90.55 183.4 -90.7 184.15 -90.9 184.9 -90.3 185.6 -89.75 185.9 -88.7 M190.7 -86.8 L191.05 -86.25 191.55 -86.15 191.9 -86.5 191.85 -87.2 191.5 -87.75 191.05 -87.85 190.7 -87.5 190.7 -86.8 M187.45 -82.1 Q188.1 -81.75 188.2 -80.8 188.3 -79.9 187.8 -79.0 L187.75 -78.9 187.75 -78.85 Q187.2 -78.0 186.35 -77.6 L184.8 -77.65 Q184.1 -78.05 184.0 -79.0 183.9 -79.95 184.45 -80.85 185.0 -81.8 185.9 -82.15 L187.45 -82.1 M186.1 -80.65 L185.65 -80.2 185.45 -79.55 Q185.5 -79.25 185.7 -79.1 185.9 -78.95 186.2 -79.1 L186.7 -79.55 186.85 -80.2 186.65 -80.65 186.1 -80.65 M177.75 -94.55 L177.4 -95.1 176.8 -95.4 176.3 -95.25 176.2 -94.75 Q176.25 -94.45 176.55 -94.2 176.85 -93.95 177.15 -93.9 L177.65 -94.05 177.75 -94.55 M178.3 -96.1 Q179.05 -95.4 179.25 -94.5 179.45 -93.6 178.95 -93.0 178.4 -92.4 177.45 -92.5 176.55 -92.6 175.8 -93.2 L175.75 -93.25 175.7 -93.35 Q174.95 -94.05 174.75 -94.9 174.55 -95.85 175.1 -96.4 175.6 -97.0 176.55 -96.9 177.5 -96.85 178.3 -96.1 M312.45 -97.15 L312.45 -97.8 312.1 -98.2 311.65 -98.05 311.25 -97.5 311.25 -96.85 311.55 -96.5 312.05 -96.6 312.45 -97.15 M312.25 -90.9 Q313.0 -90.65 313.35 -89.75 313.65 -88.9 313.4 -87.95 L313.4 -87.85 313.35 -87.8 Q313.0 -86.8 312.3 -86.25 311.55 -85.75 310.8 -86.0 310.0 -86.2 309.7 -87.05 309.35 -87.95 309.65 -88.95 309.95 -90.0 310.7 -90.5 311.45 -91.1 312.25 -90.9 M311.0 -88.55 L310.95 -87.9 Q311.05 -87.6 311.3 -87.55 L311.8 -87.65 312.15 -88.2 312.15 -88.9 311.8 -89.25 Q311.55 -89.35 311.35 -89.1 L311.0 -88.55 M307.05 -82.7 Q306.85 -82.6 306.9 -82.25 L307.1 -81.65 307.5 -81.25 Q307.7 -81.1 307.85 -81.25 L308.0 -81.7 307.8 -82.3 307.4 -82.75 307.05 -82.7 M313.3 -77.75 L313.3 -77.3 313.75 -76.8 Q314.05 -76.6 314.35 -76.55 314.6 -76.55 314.75 -76.75 L314.75 -77.25 314.3 -77.75 313.7 -78.0 313.3 -77.75 M311.95 -78.7 Q312.3 -79.35 313.2 -79.35 314.0 -79.35 314.85 -78.8 L314.9 -78.75 315.0 -78.7 316.15 -77.25 Q316.45 -76.4 316.1 -75.75 315.7 -75.15 314.85 -75.1 313.95 -75.1 313.1 -75.7 312.2 -76.35 311.9 -77.2 311.55 -78.1 311.95 -78.7 M415.15 -64.2 L415.05 -63.8 415.05 -63.7 415.0 -63.65 414.95 -63.45 Q414.6 -62.85 414.1 -62.55 L412.8 -62.65 Q412.15 -63.05 411.9 -63.9 411.65 -64.8 411.95 -65.6 412.2 -66.45 412.9 -66.75 L414.2 -66.7 Q414.85 -66.3 415.1 -65.45 L415.15 -64.2 M404.9 -56.95 Q404.45 -56.4 403.65 -56.15 L403.55 -56.15 403.5 -56.15 401.9 -56.2 401.75 -56.25 Q401.1 -56.55 400.95 -57.05 400.7 -57.65 401.2 -58.25 401.65 -58.85 402.55 -59.05 403.4 -59.3 404.2 -59.05 404.95 -58.8 405.2 -58.2 405.4 -57.6 404.95 -57.0 L404.9 -56.95 M390.55 -56.6 L389.65 -56.6 389.55 -56.65 389.45 -56.65 Q388.55 -56.85 387.95 -57.4 L387.85 -57.55 Q387.2 -58.25 387.35 -59.0 387.45 -59.8 388.35 -60.2 L390.25 -60.4 Q391.3 -60.25 391.95 -59.55 392.55 -58.85 392.45 -58.05 392.3 -57.3 391.45 -56.85 L390.55 -56.6 M376.55 -61.5 Q375.9 -61.1 375.15 -61.05 L375.1 -61.05 375.0 -61.05 374.15 -61.15 Q373.75 -61.25 373.45 -61.5 372.75 -62.05 372.85 -62.8 372.85 -63.55 373.6 -64.15 374.3 -64.75 375.3 -64.75 376.25 -64.85 376.9 -64.3 377.55 -63.8 377.55 -63.05 377.45 -62.3 376.75 -61.7 L376.55 -61.5 M382.5 -65.75 L383.55 -65.7 384.75 -65.2 385.2 -64.8 Q385.85 -64.15 385.7 -63.35 385.5 -62.6 384.7 -62.15 L382.85 -61.95 382.75 -61.95 382.7 -61.95 Q381.7 -62.2 381.1 -62.85 380.45 -63.55 380.6 -64.35 380.75 -65.15 381.6 -65.55 L382.5 -65.75 M376.0 -62.9 L375.8 -63.3 375.2 -63.45 Q374.85 -63.45 374.65 -63.25 L374.35 -62.8 374.6 -62.4 375.15 -62.25 375.75 -62.45 376.0 -62.9 M383.85 -64.1 L383.25 -64.4 382.6 -64.35 382.25 -63.95 Q382.2 -63.75 382.45 -63.5 382.65 -63.25 383.05 -63.2 L383.7 -63.25 384.05 -63.6 383.85 -64.1 M390.0 -59.1 L389.35 -59.0 389.0 -58.65 Q388.95 -58.4 389.2 -58.15 389.4 -57.95 389.75 -57.85 L390.45 -57.95 390.75 -58.3 390.6 -58.8 390.0 -59.1 M402.35 -57.4 L402.7 -57.1 403.25 -57.1 403.7 -57.4 403.8 -57.75 403.5 -58.05 402.9 -58.05 402.45 -57.75 Q402.25 -57.6 402.35 -57.4 M397.45 -60.75 L396.8 -60.55 396.55 -60.15 Q396.55 -59.9 396.8 -59.7 L397.45 -59.5 398.1 -59.7 398.35 -60.15 398.05 -60.55 397.45 -60.75 M404.1 -61.45 Q403.9 -62.25 404.5 -62.95 405.1 -63.7 406.15 -63.95 L408.1 -63.8 Q408.95 -63.45 409.15 -62.7 409.3 -61.95 408.7 -61.2 408.1 -60.5 407.15 -60.25 L407.05 -60.2 407.0 -60.2 405.15 -60.3 Q404.3 -60.7 404.1 -61.45 M397.5 -58.25 L397.45 -58.25 397.35 -58.25 Q396.3 -58.3 395.6 -58.85 394.8 -59.4 394.85 -60.2 394.8 -61.0 395.6 -61.55 396.35 -62.1 397.45 -62.1 398.5 -62.1 399.25 -61.55 400.0 -61.0 400.0 -60.2 400.0 -59.4 399.25 -58.85 398.5 -58.3 397.5 -58.25 M407.15 -62.6 L406.5 -62.6 Q406.1 -62.55 405.9 -62.3 405.7 -62.05 405.75 -61.8 405.8 -61.55 406.15 -61.45 L406.8 -61.4 Q407.15 -61.5 407.35 -61.75 L407.5 -62.25 407.15 -62.6 M413.05 -64.95 L413.0 -64.35 413.3 -63.95 413.7 -63.95 414.05 -64.35 414.05 -64.95 413.8 -65.35 413.35 -65.35 413.05 -64.95" fill="#c002c1" fill-rule="evenodd" stroke="none"/>
    <path d="M145.7 -102.2 L145.8 -101.85 Q145.7 -101.7 145.4 -101.6 L144.75 -101.6 Q144.4 -101.65 144.2 -101.85 144.05 -102.0 144.15 -102.2 144.2 -102.4 144.55 -102.45 L145.2 -102.45 145.7 -102.2 M152.15 -96.75 Q152.0 -96.6 151.7 -96.6 L151.1 -96.85 Q150.8 -97.05 150.7 -97.35 150.6 -97.65 150.75 -97.8 L151.2 -97.95 151.85 -97.7 152.2 -97.2 152.15 -96.75 M140.8 -96.1 L140.35 -95.6 139.75 -95.4 Q139.4 -95.4 139.25 -95.6 139.1 -95.85 139.25 -96.1 L139.65 -96.65 140.3 -96.85 140.75 -96.6 140.8 -96.1 M132.25 -93.55 L132.25 -93.05 131.85 -92.55 131.25 -92.35 Q130.9 -92.35 130.8 -92.5 130.6 -92.75 130.75 -93.05 L131.15 -93.55 131.75 -93.75 132.25 -93.55 M127.2 -87.0 L127.25 -86.5 126.85 -85.95 Q126.55 -85.75 126.25 -85.7 125.95 -85.7 125.8 -85.9 125.6 -86.1 125.75 -86.4 L126.15 -86.95 126.75 -87.2 127.2 -87.0 M111.85 -90.8 L111.65 -90.35 111.15 -90.35 110.65 -90.75 110.45 -91.35 110.65 -91.8 111.15 -91.85 111.65 -91.4 111.85 -90.8 M108.15 -98.4 L108.5 -98.45 108.75 -98.1 108.75 -97.55 108.5 -97.1 108.1 -97.0 Q107.95 -97.1 107.9 -97.35 L107.9 -97.9 108.15 -98.4 M118.25 -85.3 L118.0 -84.9 117.4 -84.8 Q117.05 -84.85 116.85 -85.05 116.6 -85.25 116.65 -85.45 L116.9 -85.8 117.5 -85.9 118.05 -85.7 118.25 -85.3 M300.8 -118.15 L300.85 -117.8 300.45 -117.4 299.95 -117.25 299.5 -117.35 Q299.35 -117.5 299.5 -117.7 L299.85 -118.1 300.35 -118.3 300.8 -118.15 M306.9 -117.65 L307.55 -117.65 308.1 -117.3 308.25 -116.8 307.9 -116.45 307.8 -116.45 307.25 -116.5 Q306.9 -116.6 306.65 -116.85 306.45 -117.1 306.55 -117.3 L306.65 -117.5 306.9 -117.65 M314.5 -113.6 L314.95 -113.55 315.35 -113.05 315.4 -112.5 315.15 -112.1 314.7 -112.15 314.3 -112.65 Q314.2 -112.95 314.25 -113.2 314.3 -113.5 314.5 -113.6 M317.15 -103.8 L316.8 -103.25 316.3 -103.15 Q316.05 -103.25 315.95 -103.55 L316.0 -104.2 316.4 -104.7 316.9 -104.8 317.2 -104.45 317.15 -103.8 M181.3 -74.3 L180.15 -74.7 180.4 -75.05 Q180.6 -75.3 180.85 -75.25 L181.25 -74.9 181.3 -74.3 M167.5 -102.35 Q167.25 -102.45 167.15 -102.7 L167.05 -103.25 167.25 -103.6 167.65 -103.55 168.0 -103.2 168.1 -102.65 167.9 -102.3 167.5 -102.35 M172.85 -102.1 L173.25 -102.25 173.8 -102.05 174.15 -101.65 174.1 -101.2 173.7 -101.0 173.15 -101.2 172.8 -101.65 172.85 -102.1 M216.2 -116.7 L216.05 -116.3 215.6 -116.2 Q215.3 -116.3 215.1 -116.55 L214.9 -117.1 Q214.85 -117.4 215.05 -117.55 L215.5 -117.6 216.0 -117.25 216.2 -116.7 M208.25 -123.2 L208.7 -123.1 209.0 -122.65 209.05 -122.05 208.75 -121.7 208.35 -121.8 Q208.1 -121.95 208.0 -122.25 L207.95 -122.85 208.25 -123.2 M218.25 -109.4 L218.8 -109.05 219.1 -108.5 219.0 -108.0 218.5 -107.9 Q218.15 -108.0 217.9 -108.25 L217.6 -108.85 Q217.55 -109.15 217.75 -109.3 L218.25 -109.4 M225.1 -105.45 L225.6 -105.05 225.85 -104.45 Q225.85 -104.15 225.65 -103.95 L225.15 -103.9 224.6 -104.35 224.4 -104.95 Q224.35 -105.25 224.55 -105.4 L225.1 -105.45 M231.7 -99.05 L232.05 -98.5 232.1 -97.85 231.75 -97.45 231.25 -97.6 Q231.0 -97.8 230.9 -98.15 L230.9 -98.8 231.2 -99.2 231.7 -99.05 M234.4 -90.55 L234.55 -90.1 234.35 -89.5 233.9 -89.1 233.5 -89.15 Q233.3 -89.3 233.35 -89.6 L233.55 -90.2 Q233.75 -90.5 234.0 -90.6 L234.4 -90.55 M225.2 -94.85 L225.55 -95.25 226.05 -95.15 226.4 -94.6 226.45 -93.95 226.15 -93.55 225.65 -93.65 225.25 -94.2 Q225.1 -94.55 225.2 -94.85 M228.0 -85.95 L227.65 -85.45 227.0 -85.2 Q226.7 -85.2 226.55 -85.4 226.35 -85.6 226.5 -85.9 L226.9 -86.4 227.5 -86.65 227.95 -86.5 228.0 -85.95 M223.1 -78.95 Q222.85 -78.75 222.5 -78.7 L221.8 -78.75 Q221.5 -78.9 221.5 -79.15 L221.7 -79.6 Q221.9 -79.85 222.25 -79.9 L222.9 -79.8 223.25 -79.45 223.1 -78.95 M211.3 -79.2 L210.7 -78.95 210.05 -79.05 209.8 -79.4 Q209.75 -79.65 210.05 -79.85 L210.65 -80.1 211.25 -80.0 211.55 -79.65 211.3 -79.2 M218.55 -85.65 Q218.85 -85.6 218.95 -85.35 L218.85 -84.85 218.3 -84.45 218.2 -84.4 217.65 -84.4 217.25 -84.7 Q217.15 -84.95 217.35 -85.2 L217.9 -85.6 218.55 -85.65 M184.5 -94.55 Q184.35 -94.85 184.45 -95.05 184.55 -95.25 184.85 -95.3 L185.45 -95.2 185.85 -94.8 185.9 -94.35 185.55 -94.1 184.95 -94.2 184.5 -94.55 M184.2 -87.3 Q183.95 -87.25 183.75 -87.45 183.5 -87.7 183.4 -88.05 L183.4 -88.7 183.8 -89.05 184.25 -88.9 184.6 -88.35 184.55 -87.7 184.2 -87.3 M190.7 -86.8 L190.7 -87.5 191.05 -87.85 191.5 -87.75 191.85 -87.2 191.9 -86.5 191.55 -86.15 191.05 -86.25 190.7 -86.8 M177.75 -94.55 L177.65 -94.05 177.15 -93.9 Q176.85 -93.95 176.55 -94.2 176.25 -94.45 176.2 -94.75 L176.3 -95.25 176.8 -95.4 177.4 -95.1 177.75 -94.55 M186.1 -80.65 L186.65 -80.65 186.85 -80.2 186.7 -79.55 186.2 -79.1 Q185.9 -78.95 185.7 -79.1 185.5 -79.25 185.45 -79.55 L185.65 -80.2 186.1 -80.65 M312.45 -97.15 L312.05 -96.6 311.55 -96.5 311.25 -96.85 311.25 -97.5 311.65 -98.05 312.1 -98.2 312.45 -97.8 312.45 -97.15 M311.0 -88.55 L311.35 -89.1 Q311.55 -89.35 311.8 -89.25 L312.15 -88.9 312.15 -88.2 311.8 -87.65 311.3 -87.55 Q311.05 -87.6 310.95 -87.9 L311.0 -88.55 M313.3 -77.75 L313.7 -78.0 314.3 -77.75 314.75 -77.25 314.75 -76.75 Q314.6 -76.55 314.35 -76.55 314.05 -76.6 313.75 -76.8 L313.3 -77.3 313.3 -77.75 M307.05 -82.7 L307.4 -82.75 307.8 -82.3 308.0 -81.7 307.85 -81.25 Q307.7 -81.1 307.5 -81.25 L307.1 -81.65 306.9 -82.25 Q306.85 -82.6 307.05 -82.7 M376.0 -62.9 L375.75 -62.45 375.15 -62.25 374.6 -62.4 374.35 -62.8 374.65 -63.25 Q374.85 -63.45 375.2 -63.45 L375.8 -63.3 376.0 -62.9 M383.85 -64.1 L384.05 -63.6 383.7 -63.25 383.05 -63.2 Q382.65 -63.25 382.45 -63.5 382.2 -63.75 382.25 -63.95 L382.6 -64.35 383.25 -64.4 383.85 -64.1 M390.0 -59.1 L390.6 -58.8 390.75 -58.3 390.45 -57.95 389.75 -57.85 Q389.4 -57.95 389.2 -58.15 388.95 -58.4 389.0 -58.65 L389.35 -59.0 390.0 -59.1 M397.45 -60.75 L398.05 -60.55 398.35 -60.15 398.1 -59.7 397.45 -59.5 396.8 -59.7 Q396.55 -59.9 396.55 -60.15 L396.8 -60.55 397.45 -60.75 M402.35 -57.4 Q402.25 -57.6 402.45 -57.75 L402.9 -58.05 403.5 -58.05 403.8 -57.75 403.7 -57.4 403.25 -57.1 402.7 -57.1 402.35 -57.4 M413.05 -64.95 L413.35 -65.35 413.8 -65.35 414.05 -64.95 414.05 -64.35 413.7 -63.95 413.3 -63.95 413.0 -64.35 413.05 -64.95 M407.15 -62.6 L407.5 -62.25 407.35 -61.75 Q407.15 -61.5 406.8 -61.4 L406.15 -61.45 Q405.8 -61.55 405.75 -61.8 405.7 -62.05 405.9 -62.3 406.1 -62.55 406.5 -62.6 L407.15 -62.6" fill="#540154" fill-rule="evenodd" stroke="none"/>
    <path d="M107.2 -96.15 L107.75 -95.65 Q108.25 -95.4 108.8 -95.85 109.35 -96.3 109.6 -97.1 L109.6 -97.15 109.6 -97.2 Q109.8 -98.05 109.6 -98.8 109.35 -99.65 108.85 -99.9 L108.45 -99.95 108.6 -100.15 Q110.25 -102.35 112.65 -103.65 109.35 -100.3 110.7 -95.8 L110.9 -95.25 Q111.05 -94.45 111.35 -93.6 L111.5 -93.15 111.2 -93.25 109.65 -93.2 Q109.0 -92.8 109.0 -91.85 108.95 -90.95 109.55 -90.1 110.1 -89.2 111.0 -88.85 L112.55 -88.95 Q113.15 -89.4 113.2 -90.3 L113.2 -90.55 114.7 -89.6 Q118.9 -87.9 123.2 -89.05 L125.0 -89.8 Q127.2 -91.1 129.2 -92.75 129.05 -92.05 129.4 -91.5 129.85 -90.85 130.8 -90.85 131.75 -90.85 132.65 -91.45 133.5 -92.05 133.8 -92.95 134.05 -93.85 133.65 -94.5 133.15 -95.15 132.25 -95.15 L132.0 -95.15 134.55 -97.4 Q137.2 -100.15 140.55 -101.85 L142.7 -102.75 142.55 -102.5 Q142.25 -101.95 142.75 -101.4 143.25 -100.85 144.25 -100.6 L146.15 -100.7 Q147.0 -100.95 147.3 -101.5 147.6 -102.05 147.1 -102.6 L146.5 -103.05 146.95 -103.0 147.75 -102.85 149.0 -102.45 Q152.35 -101.05 153.9 -97.6 L155.4 -94.7 157.1 -90.6 Q153.75 -95.8 147.55 -95.4 142.9 -95.1 139.1 -92.45 L132.4 -87.55 Q129.65 -85.15 126.2 -83.9 120.6 -81.95 115.0 -83.95 L114.95 -83.95 114.85 -84.0 114.25 -84.3 Q110.15 -86.05 108.05 -89.8 107.6 -90.6 107.4 -91.55 106.85 -93.9 107.2 -96.15 M142.25 -96.1 Q142.55 -97.0 142.15 -97.65 141.7 -98.3 140.75 -98.3 139.8 -98.35 138.9 -97.75 138.0 -97.15 137.7 -96.25 137.4 -95.4 137.85 -94.75 138.25 -94.1 139.2 -94.05 140.1 -94.0 141.0 -94.55 L141.05 -94.6 141.1 -94.6 Q141.95 -95.25 142.25 -96.1 M153.55 -95.8 Q154.0 -96.35 153.75 -97.2 153.5 -98.05 152.65 -98.65 151.8 -99.3 150.9 -99.3 149.95 -99.4 149.5 -98.8 149.0 -98.25 149.25 -97.4 149.45 -96.65 150.25 -96.0 L150.35 -95.95 150.4 -95.9 Q151.2 -95.35 152.1 -95.3 153.05 -95.25 153.55 -95.8 M125.4 -87.9 L125.35 -87.85 Q124.55 -87.25 124.3 -86.35 124.0 -85.45 124.5 -84.8 124.95 -84.2 125.9 -84.25 126.8 -84.25 127.65 -84.9 128.45 -85.55 128.75 -86.45 129.0 -87.35 128.55 -88.0 128.1 -88.6 127.15 -88.6 126.25 -88.6 125.45 -88.0 L125.4 -87.9 M117.65 -87.1 Q116.65 -87.25 115.95 -86.8 115.2 -86.35 115.15 -85.6 115.1 -84.9 115.75 -84.35 116.3 -83.8 117.2 -83.7 L117.3 -83.7 117.35 -83.7 119.0 -84.05 Q119.7 -84.5 119.8 -85.2 119.85 -85.9 119.2 -86.45 118.6 -87.05 117.65 -87.1 M298.05 -117.0 L298.25 -116.65 Q298.65 -116.25 299.5 -116.25 300.3 -116.3 301.05 -116.7 L301.1 -116.75 301.15 -116.75 302.1 -117.85 Q302.35 -118.5 301.95 -118.95 301.7 -119.25 301.3 -119.35 303.3 -120.35 305.75 -120.5 L307.7 -120.4 Q311.95 -119.55 314.85 -116.2 L315.1 -115.95 315.35 -115.6 315.4 -115.6 Q319.1 -110.95 318.95 -105.05 318.8 -101.4 317.4 -98.1 L314.75 -90.35 Q313.45 -86.0 314.6 -81.55 316.0 -76.1 321.2 -74.25 L321.0 -74.0 317.75 -74.35 314.4 -74.85 Q310.65 -75.3 308.3 -78.05 L307.55 -79.1 307.15 -79.85 306.95 -80.2 307.55 -79.8 308.7 -79.9 Q309.1 -80.35 309.1 -81.3 L308.55 -83.1 307.4 -84.25 306.3 -84.1 306.05 -83.9 Q306.0 -85.05 306.25 -86.2 306.85 -89.85 308.65 -93.1 L310.0 -96.25 310.05 -96.0 Q310.35 -95.15 311.1 -94.9 311.85 -94.7 312.65 -95.2 313.4 -95.75 313.75 -96.75 314.05 -97.75 313.75 -98.65 313.45 -99.55 312.7 -99.75 L311.45 -99.6 312.95 -104.4 313.1 -106.35 Q312.85 -110.75 309.95 -114.2 L308.75 -115.15 308.55 -115.25 308.8 -115.35 308.95 -115.4 Q309.65 -115.75 309.85 -116.4 310.0 -117.15 309.45 -117.85 L307.85 -118.9 Q306.8 -119.2 305.95 -118.9 L305.45 -118.65 Q305.05 -118.35 304.9 -117.85 304.7 -117.15 305.35 -116.4 L305.5 -116.15 305.2 -116.15 305.05 -116.15 303.35 -116.1 302.75 -116.1 Q298.05 -116.05 295.85 -111.95 296.4 -114.6 297.95 -116.8 L298.05 -116.95 298.05 -117.0 M316.35 -113.6 L315.25 -114.8 313.85 -114.95 Q313.2 -114.7 313.0 -113.85 312.8 -113.05 313.2 -112.15 313.55 -111.3 314.35 -110.85 L315.75 -110.7 Q316.4 -111.0 316.6 -111.75 316.75 -112.55 316.4 -113.4 L316.35 -113.5 316.35 -113.6 M317.5 -106.4 Q316.75 -106.65 316.0 -106.1 315.25 -105.6 314.9 -104.65 L314.85 -104.6 314.8 -104.5 Q314.5 -103.55 314.75 -102.7 315.0 -101.85 315.75 -101.6 316.5 -101.4 317.3 -101.9 318.05 -102.45 318.45 -103.4 318.8 -104.4 318.5 -105.25 318.25 -106.15 317.5 -106.4 M177.45 -100.35 L178.6 -99.45 Q180.1 -98.35 182.9 -97.2 L185.55 -96.35 184.2 -96.45 Q183.35 -96.25 183.05 -95.6 182.75 -95.0 183.2 -94.25 183.6 -93.5 184.45 -93.1 185.3 -92.7 186.15 -92.85 187.0 -93.05 187.3 -93.65 187.6 -94.35 187.2 -95.05 L186.05 -96.15 Q189.0 -94.85 191.5 -92.7 L191.75 -92.45 Q192.8 -91.2 193.45 -89.55 194.45 -86.7 192.4 -83.0 L190.1 -79.6 187.4 -75.95 186.0 -73.9 185.7 -73.9 183.0 -73.6 182.55 -73.8 182.6 -73.95 Q182.8 -75.0 182.45 -75.85 182.05 -76.75 181.3 -76.9 180.5 -77.05 179.8 -76.4 L179.3 -75.85 180.2 -78.35 180.75 -79.75 180.6 -79.85 182.25 -82.6 Q183.05 -84.35 182.25 -86.55 181.4 -88.8 179.4 -90.35 L176.6 -92.1 171.65 -95.8 Q169.7 -97.45 168.0 -100.35 L167.6 -101.05 168.55 -101.15 Q169.1 -101.5 169.2 -102.2 169.3 -103.0 168.9 -103.7 L167.85 -104.8 Q167.15 -105.15 166.65 -104.8 L166.4 -104.6 Q166.15 -105.75 166.05 -107.0 165.8 -110.75 167.8 -112.7 L168.9 -113.7 Q168.05 -112.4 169.15 -109.45 170.25 -106.6 172.5 -104.55 L174.1 -103.15 172.85 -103.45 Q172.05 -103.45 171.65 -102.85 171.2 -102.3 171.45 -101.55 171.7 -100.8 172.45 -100.25 173.2 -99.75 174.0 -99.75 174.85 -99.8 175.25 -100.35 175.65 -100.9 175.45 -101.65 L175.15 -102.3 177.45 -100.35 M212.75 -122.25 L213.05 -121.9 215.25 -119.05 Q214.6 -119.15 214.15 -118.75 213.55 -118.3 213.6 -117.45 213.65 -116.65 214.2 -115.95 L214.25 -115.85 214.3 -115.8 Q214.85 -115.1 215.65 -114.9 L217.05 -115.1 Q217.55 -115.55 217.55 -116.4 L218.9 -115.05 Q222.0 -112.2 225.5 -108.15 L230.4 -102.1 231.2 -100.85 230.65 -100.8 Q229.85 -100.55 229.6 -99.65 229.25 -98.75 229.6 -97.75 229.95 -96.75 230.7 -96.15 231.45 -95.65 232.2 -95.85 232.95 -96.1 233.25 -97.0 L233.35 -97.25 234.15 -95.8 Q235.1 -94.1 235.05 -92.05 L233.95 -92.1 Q233.2 -91.85 232.7 -90.95 232.15 -90.1 232.15 -89.15 232.15 -88.25 232.65 -87.8 L233.85 -87.65 233.9 -87.7 232.8 -85.65 232.15 -84.7 Q230.3 -82.15 227.85 -80.65 L225.8 -79.55 224.9 -79.1 224.9 -79.8 Q224.75 -80.6 223.95 -81.0 L222.05 -81.2 Q221.0 -81.05 220.35 -80.35 219.7 -79.7 219.85 -78.9 219.95 -78.25 220.6 -77.8 L210.35 -76.5 208.1 -76.1 206.5 -78.2 206.4 -79.65 Q206.4 -80.85 207.0 -81.8 208.6 -82.65 210.6 -83.3 L215.75 -85.25 Q215.45 -84.65 215.65 -84.1 215.9 -83.35 216.85 -83.05 L218.75 -83.15 Q219.75 -83.55 220.3 -84.35 220.8 -85.15 220.55 -85.85 220.25 -86.6 219.35 -86.85 L218.9 -86.95 222.7 -89.6 Q224.25 -90.85 224.5 -92.9 L225.2 -92.2 Q226.0 -91.7 226.75 -91.95 227.45 -92.2 227.75 -93.1 228.05 -94.0 227.7 -95.0 227.35 -96.05 226.55 -96.55 225.75 -97.1 225.05 -96.85 224.5 -96.65 224.25 -96.2 L223.4 -98.7 Q222.35 -101.35 220.05 -104.55 L218.6 -106.4 Q219.5 -106.25 220.1 -106.75 220.65 -107.3 220.55 -108.2 220.45 -109.1 219.8 -109.85 L219.7 -109.9 219.65 -109.95 Q218.95 -110.7 218.05 -110.85 217.1 -111.05 216.55 -110.5 216.1 -110.15 216.05 -109.5 L215.0 -110.75 Q211.45 -114.9 207.45 -120.3 203.45 -125.75 205.55 -130.9 206.2 -132.55 207.85 -133.95 L207.35 -132.75 Q206.8 -131.2 207.2 -129.55 207.9 -126.8 210.8 -124.35 L211.7 -123.65 210.7 -124.25 212.75 -122.25 M209.05 -124.4 Q208.35 -124.85 207.7 -124.6 207.0 -124.4 206.8 -123.6 206.5 -122.8 206.85 -121.9 207.15 -121.0 207.85 -120.5 208.55 -120.05 209.2 -120.25 209.85 -120.5 210.15 -121.3 L210.1 -122.95 210.05 -123.0 210.05 -123.05 Q209.7 -123.95 209.05 -124.4 M226.55 -105.85 Q225.9 -106.7 225.05 -106.95 L223.5 -106.75 Q222.85 -106.25 222.9 -105.3 222.85 -104.4 223.5 -103.55 224.15 -102.7 225.05 -102.4 L226.6 -102.6 Q227.2 -103.1 227.25 -104.0 227.2 -104.95 226.65 -105.75 L226.6 -105.8 226.55 -105.85 M229.25 -87.55 Q228.75 -88.2 227.85 -88.15 226.9 -88.15 226.05 -87.5 225.2 -86.85 224.95 -85.95 224.7 -85.05 225.2 -84.4 225.65 -83.8 226.6 -83.8 227.5 -83.85 228.3 -84.4 L228.4 -84.45 228.45 -84.5 Q229.25 -85.15 229.5 -86.0 229.75 -86.95 229.25 -87.55 M212.35 -81.05 Q211.6 -81.5 210.6 -81.35 209.55 -81.2 208.85 -80.55 208.1 -79.95 208.15 -79.25 208.2 -78.5 208.95 -78.1 L210.65 -77.8 210.75 -77.8 210.8 -77.8 Q211.8 -78.0 212.5 -78.55 213.2 -79.2 213.15 -79.9 213.1 -80.65 212.35 -81.05 M185.9 -88.7 Q185.6 -89.75 184.9 -90.3 184.15 -90.9 183.4 -90.7 182.65 -90.55 182.3 -89.65 181.95 -88.85 182.2 -87.8 L182.2 -87.75 182.2 -87.65 Q182.5 -86.7 183.2 -86.1 183.9 -85.55 184.65 -85.7 185.45 -85.9 185.8 -86.75 186.15 -87.65 185.9 -88.7 M189.55 -88.35 Q189.25 -87.5 189.5 -86.5 L189.55 -86.45 189.55 -86.35 Q189.85 -85.4 190.6 -84.85 191.35 -84.35 192.1 -84.55 192.8 -84.8 193.15 -85.7 193.45 -86.6 193.15 -87.6 192.8 -88.65 192.1 -89.2 191.3 -89.75 190.6 -89.5 189.85 -89.25 189.55 -88.35 M187.45 -82.1 L185.9 -82.15 Q185.0 -81.8 184.45 -80.85 183.9 -79.95 184.0 -79.0 184.1 -78.05 184.8 -77.65 L186.35 -77.6 Q187.2 -78.0 187.75 -78.85 L187.75 -78.9 187.8 -79.0 Q188.3 -79.9 188.2 -80.8 188.1 -81.75 187.45 -82.1 M178.3 -96.1 Q177.5 -96.85 176.55 -96.9 175.6 -97.0 175.1 -96.4 174.55 -95.85 174.75 -94.9 174.95 -94.05 175.7 -93.35 L175.75 -93.25 175.8 -93.2 Q176.55 -92.6 177.45 -92.5 178.4 -92.4 178.95 -93.0 179.45 -93.6 179.25 -94.5 179.05 -95.4 178.3 -96.1 M312.25 -90.9 Q311.45 -91.1 310.7 -90.5 309.95 -90.0 309.65 -88.95 309.35 -87.95 309.7 -87.05 310.0 -86.2 310.8 -86.0 311.55 -85.75 312.3 -86.25 313.0 -86.8 313.35 -87.8 L313.4 -87.85 313.4 -87.95 Q313.65 -88.9 313.35 -89.75 313.0 -90.65 312.25 -90.9 M311.95 -78.7 Q311.55 -78.1 311.9 -77.2 312.2 -76.35 313.1 -75.7 313.95 -75.1 314.85 -75.1 315.7 -75.15 316.1 -75.75 316.45 -76.4 316.15 -77.25 L315.0 -78.7 314.9 -78.75 314.85 -78.8 Q314.0 -79.35 313.2 -79.35 312.3 -79.35 311.95 -78.7 M395.45 -63.25 L399.2 -62.95 402.85 -63.15 Q404.55 -63.4 406.3 -64.2 408.5 -65.2 410.55 -66.55 L412.35 -68.05 Q414.5 -70.2 413.7 -73.05 414.55 -71.5 415.05 -69.75 415.6 -67.85 415.45 -65.85 L415.15 -64.2 415.1 -65.45 Q414.85 -66.3 414.2 -66.7 L412.9 -66.75 Q412.2 -66.45 411.95 -65.6 411.65 -64.8 411.9 -63.9 412.15 -63.05 412.8 -62.65 L414.1 -62.55 Q414.6 -62.85 414.95 -63.45 414.45 -62.2 413.65 -61.1 L412.8 -60.2 Q410.6 -58.35 407.85 -57.65 L404.9 -56.95 404.95 -57.0 Q405.4 -57.6 405.2 -58.2 404.95 -58.8 404.2 -59.05 403.4 -59.3 402.55 -59.05 401.65 -58.85 401.2 -58.25 400.7 -57.65 400.95 -57.05 401.1 -56.55 401.75 -56.25 L396.95 -55.8 391.25 -56.45 390.55 -56.6 391.45 -56.85 Q392.3 -57.3 392.45 -58.05 392.55 -58.85 391.95 -59.55 391.3 -60.25 390.25 -60.4 L388.35 -60.2 Q387.45 -59.8 387.35 -59.0 387.2 -58.25 387.85 -57.55 L387.95 -57.4 385.95 -58.25 381.05 -60.3 Q378.85 -61.25 376.55 -61.5 L376.75 -61.7 Q377.45 -62.3 377.55 -63.05 377.55 -63.8 376.9 -64.3 376.25 -64.85 375.3 -64.75 374.3 -64.75 373.6 -64.15 372.85 -63.55 372.85 -62.8 372.75 -62.05 373.45 -61.5 373.75 -61.25 374.15 -61.15 L373.6 -60.8 Q371.65 -59.5 371.45 -57.15 371.4 -56.5 371.65 -55.9 370.5 -57.85 370.8 -60.65 371.1 -63.5 373.0 -65.1 L372.95 -65.2 374.65 -65.9 377.85 -66.45 381.75 -65.95 382.5 -65.75 381.6 -65.55 Q380.75 -65.15 380.6 -64.35 380.45 -63.55 381.1 -62.85 381.7 -62.2 382.7 -61.95 L382.75 -61.95 382.85 -61.95 384.7 -62.15 Q385.5 -62.6 385.7 -63.35 385.85 -64.15 385.2 -64.8 L384.75 -65.2 387.7 -64.45 Q391.2 -63.5 394.85 -63.3 L394.9 -63.3 395.45 -63.25 M397.5 -58.25 Q398.5 -58.3 399.25 -58.85 400.0 -59.4 400.0 -60.2 400.0 -61.0 399.25 -61.55 398.5 -62.1 397.45 -62.1 396.35 -62.1 395.6 -61.55 394.8 -61.0 394.85 -60.2 394.8 -59.4 395.6 -58.85 396.3 -58.3 397.35 -58.25 L397.45 -58.25 397.5 -58.25 M404.1 -61.45 Q404.3 -60.7 405.15 -60.3 L407.0 -60.2 407.05 -60.2 407.15 -60.25 Q408.1 -60.5 408.7 -61.2 409.3 -61.95 409.15 -62.7 408.95 -63.45 408.1 -63.8 L406.15 -63.95 Q405.1 -63.7 404.5 -62.95 403.9 -62.25 404.1 -61.45" fill="#ff00fc" fill-rule="evenodd" stroke="none"/>
    <path d="M395.45 -63.3 L395.45 -63.25 394.9 -63.3 395.45 -63.3" fill="#970198" fill-rule="evenodd" stroke="none"/>
    <path d="M303.35 -116.1 L302.75 -116.0 Q301.2 -115.7 300.15 -114.85 L300.0 -114.7 Q298.15 -113.15 298.5 -109.4 298.75 -105.65 306.2 -104.7 L306.25 -104.6 Q295.4 -101.25 295.85 -111.8 L295.85 -111.95 Q298.05 -116.05 302.75 -116.1 L303.35 -116.1" fill="url(#gradient0)" fill-rule="evenodd" stroke="none"/>
    <path d="M314.75 -90.35 Q314.8 -88.8 315.5 -87.25 L315.7 -86.8 Q318.25 -81.75 325.95 -82.5 325.6 -79.9 324.2 -78.1 L321.2 -74.25 Q316.0 -76.1 314.6 -81.55 313.45 -86.0 314.75 -90.35" fill="url(#gradient1)" fill-rule="evenodd" stroke="none"/>
    <path d="M168.9 -113.7 L169.1 -113.85 172.05 -115.8 177.35 -118.15 182.9 -120.25 Q185.35 -121.1 189.8 -123.6 194.0 -125.95 195.0 -134.1 197.75 -122.0 184.95 -117.0 171.9 -111.95 174.4 -105.2 175.45 -102.3 177.45 -100.35 L175.15 -102.3 174.5 -102.9 174.45 -102.95 174.4 -103.0 174.1 -103.15 172.5 -104.55 Q170.25 -106.6 169.15 -109.45 168.05 -112.4 168.9 -113.7" fill="url(#gradient2)" fill-rule="evenodd" stroke="none"/>
    <path d="M178.95 -75.1 L178.5 -75.35 177.85 -76.15 179.6 -78.6 180.6 -79.85 180.75 -79.75 180.2 -78.35 179.3 -75.85 178.95 -75.1" fill="url(#gradient3)" fill-rule="evenodd" stroke="none"/>
    <path d="M219.4 -138.5 L219.4 -138.45 Q206.3 -131.35 211.05 -124.6 L210.8 -124.35 Q207.9 -126.8 207.2 -129.55 206.8 -131.2 207.35 -132.75 L207.85 -133.95 Q211.4 -136.85 219.4 -138.5" fill="url(#gradient4)" fill-rule="evenodd" stroke="none"/>
    <path d="M221.45 -77.5 Q217.55 -75.65 215.45 -74.15 L214.25 -73.15 213.65 -73.35 Q209.65 -74.5 209.2 -74.9 L208.7 -75.3 208.1 -76.1 210.35 -76.5 220.6 -77.8 220.8 -77.7 Q221.1 -77.55 221.45 -77.5" fill="url(#gradient5)" fill-rule="evenodd" stroke="none"/>
    <path d="M110.9 -95.25 L110.7 -95.8 Q109.35 -100.3 112.65 -103.65 L112.75 -103.7 Q122.75 -107.4 122.8 -96.1 L122.85 -96.1 122.75 -96.1 Q119.55 -102.85 115.9 -101.95 112.2 -101.1 111.2 -98.85 L111.15 -98.65 Q110.65 -97.4 110.8 -95.8 L110.9 -95.25" fill="url(#gradient6)" fill-rule="evenodd" stroke="none"/>
    <path d="M139.1 -92.45 Q142.9 -95.1 147.55 -95.4 153.75 -95.8 157.1 -90.6 L157.15 -90.55 158.95 -85.05 159.75 -82.2 159.85 -80.4 159.3 -78.5 158.85 -77.85 Q158.15 -77.05 155.8 -75.85 153.6 -74.75 153.7 -74.45 150.9 -78.8 150.2 -83.15 148.85 -91.8 142.8 -92.7 L142.3 -92.75 139.1 -92.45" fill="url(#gradient7)" fill-rule="evenodd" stroke="none"/>
    <path d="M378.95 -85.3 Q382.75 -86.65 385.8 -86.55 389.45 -86.4 394.55 -85.3 399.65 -84.25 406.2 -80.1 411.5 -76.7 413.65 -73.15 L413.7 -73.05 Q414.5 -70.2 412.35 -68.05 L410.55 -66.55 Q408.5 -65.2 406.3 -64.2 404.55 -63.4 402.85 -63.15 L399.2 -62.95 395.45 -63.25 395.45 -63.3 399.15 -63.4 401.65 -63.85 Q403.85 -64.6 405.05 -65.5 406.2 -66.4 405.65 -67.55 405.1 -68.75 403.0 -70.05 400.9 -71.4 397.5 -72.6 394.05 -73.8 391.45 -74.2 L385.8 -74.85 Q382.75 -75.15 379.65 -74.0 377.15 -75.7 377.35 -79.2 377.55 -82.7 378.95 -85.3" fill="url(#gradient8)" fill-rule="evenodd" stroke="none"/>
    <path d="M371.65 -55.9 L371.7 -55.75 372.05 -55.1 Q373.35 -53.1 374.85 -52.3 376.35 -51.55 377.7 -51.45 379.05 -51.4 379.75 -52.25 380.45 -53.05 380.25 -53.55 L379.55 -54.65 377.35 -55.85 375.7 -56.1 Q374.85 -56.35 377.05 -56.85 379.25 -57.35 381.0 -55.85 382.75 -54.4 382.6 -52.15 382.45 -49.9 379.15 -49.2 375.85 -48.55 372.7 -50.2 369.55 -51.9 368.2 -54.5 366.85 -57.15 368.2 -60.1 369.55 -63.1 371.3 -64.2 372.15 -64.8 372.95 -65.2 L373.0 -65.1 Q371.1 -63.5 370.8 -60.65 370.5 -57.85 371.65 -55.9" fill="url(#gradient9)" fill-rule="evenodd" stroke="none"/>
    <path d="M107.2 -96.15 Q106.85 -93.9 107.4 -91.55 107.6 -90.6 108.05 -89.8 110.15 -86.05 114.25 -84.3 L114.55 -84.1 114.85 -84.0 114.95 -83.95 115.0 -83.95 Q120.6 -81.95 126.2 -83.9 129.65 -85.15 132.4 -87.55 L139.1 -92.45 142.3 -92.75 142.8 -92.7 Q148.85 -91.8 150.2 -83.15 150.9 -78.8 153.7 -74.45 M157.1 -90.6 L155.4 -94.7 153.9 -97.6 Q152.35 -101.05 149.0 -102.45 L147.75 -102.85 146.95 -103.0 146.5 -103.05 M142.7 -102.75 L140.55 -101.85 Q137.2 -100.15 134.55 -97.4 L132.0 -95.15 M129.2 -92.75 Q127.2 -91.1 125.0 -89.8 L123.2 -89.05 Q118.9 -87.9 114.7 -89.6 L113.2 -90.55 M111.5 -93.15 L111.35 -93.6 Q111.05 -94.45 110.9 -95.25 L111.55 -93.1 M112.65 -103.65 Q110.25 -102.35 108.6 -100.15 L108.45 -99.95 M112.65 -103.65 L112.75 -103.7 Q122.75 -107.4 122.8 -96.1 L122.85 -96.1 122.85 -95.8 M159.75 -82.2 L158.95 -85.05 157.15 -90.55 157.1 -90.6 M122.75 -96.1 Q119.55 -102.85 115.9 -101.95 112.2 -101.1 111.2 -98.85 L111.15 -98.65 Q110.65 -97.4 110.8 -95.8 L110.9 -95.25 M301.3 -119.35 Q303.3 -120.35 305.75 -120.5 L307.7 -120.4 Q311.95 -119.55 314.85 -116.2 L315.1 -115.95 315.35 -115.6 315.4 -115.6 Q319.1 -110.95 318.95 -105.05 318.8 -101.4 317.4 -98.1 L314.75 -90.35 Q314.8 -88.8 315.5 -87.25 L315.7 -86.8 Q318.25 -81.75 325.95 -82.5 M321.0 -74.0 L317.75 -74.35 314.4 -74.85 Q310.65 -75.3 308.3 -78.05 L307.55 -79.1 307.15 -79.85 306.95 -80.2 M306.05 -83.9 Q306.0 -85.05 306.25 -86.2 306.85 -89.85 308.65 -93.1 L310.0 -96.25 M311.45 -99.6 L312.95 -104.4 313.1 -106.35 Q312.85 -110.75 309.95 -114.2 L308.75 -115.15 308.55 -115.25 M305.55 -116.1 L305.3 -116.1 303.35 -116.1 302.75 -116.0 Q301.2 -115.7 300.15 -114.85 L300.0 -114.7 Q298.15 -113.15 298.5 -109.4 298.75 -105.65 306.2 -104.7 M306.25 -104.6 L306.5 -104.7 M306.25 -104.6 Q295.4 -101.25 295.85 -111.8 L295.85 -111.95 Q296.4 -114.6 297.95 -116.8 L298.05 -116.95 298.05 -117.0 M303.35 -116.1 L305.05 -116.15 305.2 -116.15 305.5 -116.15 305.55 -116.15 M195.0 -134.1 L194.9 -134.5 M168.9 -113.7 L169.1 -113.85 172.05 -115.8 177.35 -118.15 182.9 -120.25 Q185.35 -121.1 189.8 -123.6 194.0 -125.95 195.0 -134.1 197.75 -122.0 184.95 -117.0 171.9 -111.95 174.4 -105.2 175.45 -102.3 177.45 -100.35 L178.6 -99.45 Q180.1 -98.35 182.9 -97.2 L185.55 -96.35 M186.05 -96.15 Q189.0 -94.85 191.5 -92.7 L191.75 -92.45 Q192.8 -91.2 193.45 -89.55 194.45 -86.7 192.4 -83.0 L190.1 -79.6 187.4 -75.95 186.0 -73.9 M177.85 -76.15 L179.6 -78.6 180.6 -79.85 182.25 -82.6 Q183.05 -84.35 182.25 -86.55 181.4 -88.8 179.4 -90.35 L176.6 -92.1 171.65 -95.8 Q169.7 -97.45 168.0 -100.35 L167.6 -101.05 M166.4 -104.6 Q166.15 -105.75 166.05 -107.0 165.8 -110.75 167.8 -112.7 L168.9 -113.7 M219.4 -138.45 Q206.3 -131.35 211.05 -124.6 L212.75 -122.25 213.05 -121.9 215.25 -119.05 M217.55 -116.4 L218.9 -115.05 Q222.0 -112.2 225.5 -108.15 L230.4 -102.1 231.2 -100.85 M233.35 -97.25 L234.15 -95.8 Q235.1 -94.1 235.05 -92.05 M233.9 -87.7 L232.8 -85.65 232.15 -84.7 Q230.3 -82.15 227.85 -80.65 L225.8 -79.55 224.85 -79.05 M221.45 -77.5 Q217.55 -75.65 215.45 -74.15 L214.25 -73.15 M207.0 -81.8 Q208.6 -82.65 210.6 -83.3 L215.75 -85.25 M218.9 -86.95 L222.7 -89.6 Q224.25 -90.85 224.5 -92.9 M224.25 -96.2 L223.4 -98.7 Q222.35 -101.35 220.05 -104.55 L218.6 -106.4 M216.05 -109.5 L215.0 -110.75 Q211.45 -114.9 207.45 -120.3 203.45 -125.75 205.55 -130.9 206.2 -132.55 207.85 -133.95 211.4 -136.85 219.4 -138.5 M225.8 -79.55 L224.9 -79.1 M413.7 -73.05 L413.65 -73.15 Q411.5 -76.7 406.2 -80.1 399.65 -84.25 394.55 -85.3 389.45 -86.4 385.8 -86.55 382.75 -86.65 378.95 -85.3 M379.65 -74.0 Q382.75 -75.15 385.8 -74.85 L391.45 -74.2 Q394.05 -73.8 397.5 -72.6 400.9 -71.4 403.0 -70.05 405.1 -68.75 405.65 -67.55 406.2 -66.4 405.05 -65.5 403.85 -64.6 401.65 -63.85 L399.15 -63.4 395.45 -63.3 394.9 -63.3 394.85 -63.3 Q391.2 -63.5 387.7 -64.45 L384.75 -65.2 M413.7 -73.05 Q414.55 -71.5 415.05 -69.75 415.6 -67.85 415.45 -65.85 L415.15 -64.2 M414.95 -63.45 Q414.45 -62.2 413.65 -61.1 L412.8 -60.2 Q410.6 -58.35 407.85 -57.65 L404.9 -56.95 M401.75 -56.25 L396.95 -55.8 391.25 -56.45 390.55 -56.6 M387.95 -57.4 L385.95 -58.25 381.05 -60.3 Q378.85 -61.25 376.55 -61.5 M374.15 -61.15 L373.6 -60.8 Q371.65 -59.5 371.45 -57.15 371.4 -56.5 371.65 -55.9 L371.7 -55.75 372.05 -55.1 Q373.35 -53.1 374.85 -52.3 376.35 -51.55 377.7 -51.45 379.05 -51.4 379.75 -52.25 380.45 -53.05 380.25 -53.55 L379.55 -54.65 377.35 -55.85 375.7 -56.1 Q374.85 -56.35 377.05 -56.85 379.25 -57.35 381.0 -55.85 382.75 -54.4 382.6 -52.15 382.45 -49.9 379.15 -49.2 375.85 -48.55 372.7 -50.2 369.55 -51.9 368.2 -54.5 366.85 -57.15 368.2 -60.1 369.55 -63.1 371.3 -64.2 372.15 -64.8 372.95 -65.2 L374.65 -65.9 377.85 -66.45 381.75 -65.95 382.5 -65.75" fill="none" stroke="#333333" stroke-linecap="round" stroke-linejoin="round" stroke-width="0.05"/>
  </g>
  <defs>
    <linearGradient gradientTransform="matrix(0.0041, 0.0067, 0.0056, -0.0033, 301.3, -109.2)" gradientUnits="userSpaceOnUse" id="gradient0" spreadMethod="pad" x1="-819.2" x2="819.2">
      <stop offset="0.2901960784313726" stop-color="#970198"/>
      <stop offset="0.6274509803921569" stop-color="#db02db"/>
    </linearGradient>
    <linearGradient gradientTransform="matrix(0.0306, 0.017, 0.007, -0.0123, 343.1, -77.05)" gradientUnits="userSpaceOnUse" id="gradient1" spreadMethod="pad" x1="-819.2" x2="819.2">
      <stop offset="0.2901960784313726" stop-color="#970198"/>
      <stop offset="0.6274509803921569" stop-color="#db02db"/>
    </linearGradient>
    <linearGradient gradientTransform="matrix(0.0173, -0.0138, 0.006, 0.0075, 179.7, -111.7)" gradientUnits="userSpaceOnUse" id="gradient2" spreadMethod="pad" x1="-819.2" x2="819.2">
      <stop offset="0.2901960784313726" stop-color="#970198"/>
      <stop offset="0.6274509803921569" stop-color="#db02db"/>
    </linearGradient>
    <linearGradient gradientTransform="matrix(0.0241, 0.0045, -0.0045, 0.0244, 189.3, -55.85)" gradientUnits="userSpaceOnUse" id="gradient3" spreadMethod="pad" x1="-819.2" x2="819.2">
      <stop offset="0.2901960784313726" stop-color="#970198"/>
      <stop offset="0.6274509803921569" stop-color="#db02db"/>
    </linearGradient>
    <linearGradient gradientTransform="matrix(0.0053, -0.0086, 0.004, 0.0025, 211.95, -133.35)" gradientUnits="userSpaceOnUse" id="gradient4" spreadMethod="pad" x1="-819.2" x2="819.2">
      <stop offset="0.2901960784313726" stop-color="#970198"/>
      <stop offset="0.6274509803921569" stop-color="#db02db"/>
    </linearGradient>
    <linearGradient gradientTransform="matrix(0.013, 0.0228, -0.0193, 0.011, 213.55, -55.6)" gradientUnits="userSpaceOnUse" id="gradient5" spreadMethod="pad" x1="-819.2" x2="819.2">
      <stop offset="0.2901960784313726" stop-color="#970198"/>
      <stop offset="0.6274509803921569" stop-color="#db02db"/>
    </linearGradient>
    <linearGradient gradientTransform="matrix(0.0077, 0.0018, -0.0015, 0.0064, 116.95, -99.3)" gradientUnits="userSpaceOnUse" id="gradient6" spreadMethod="pad" x1="-819.2" x2="819.2">
      <stop offset="0.2901960784313726" stop-color="#970198"/>
      <stop offset="0.6274509803921569" stop-color="#db02db"/>
    </linearGradient>
    <linearGradient gradientTransform="matrix(0.0256, 0.0237, -0.0097, 0.0105, 160.35, -69.8)" gradientUnits="userSpaceOnUse" id="gradient7" spreadMethod="pad" x1="-819.2" x2="819.2">
      <stop offset="0.2901960784313726" stop-color="#970198"/>
      <stop offset="0.6274509803921569" stop-color="#db02db"/>
    </linearGradient>
    <linearGradient gradientTransform="matrix(-0.0425, -0.0104, -0.0053, 0.0217, 377.0, -70.8)" gradientUnits="userSpaceOnUse" id="gradient8" spreadMethod="pad" x1="-819.2" x2="819.2">
      <stop offset="0.2901960784313726" stop-color="#970198"/>
      <stop offset="0.6274509803921569" stop-color="#db02db"/>
    </linearGradient>
    <linearGradient gradientTransform="matrix(0.0065, 0.0084, 0.0054, -0.0042, 374.25, -55.55)" gradientUnits="userSpaceOnUse" id="gradient9" spreadMethod="pad" x1="-819.2" x2="819.2">
      <stop offset="0.2901960784313726" stop-color="#970198"/>
      <stop offset="0.6274509803921569" stop-color="#db02db"/>
    </linearGradient>
  </defs>
</svg>
