<?xml version="1.0" encoding="UTF-8" standalone="no"?>
<svg xmlns:ffdec="https://www.free-decompiler.com/flash" xmlns:xlink="http://www.w3.org/1999/xlink" ffdec:objectType="shape" height="60.1px" width="34.7px" xmlns="http://www.w3.org/2000/svg">
  <g transform="matrix(1.0, 0.0, 0.0, 1.0, 17.35, 30.05)">
    <path d="M0.15 -30.05 Q-1.95 -22.5 0.95 -18.7 4.05 -14.75 6.05 -13.0 L10.25 -8.9 14.3 -4.65 16.2 -1.7 16.35 -1.55 Q16.6 0.05 14.45 2.3 12.3 4.55 9.45 5.5 L7.4 6.15 7.1 6.25 6.95 6.25 6.95 6.3 6.1 6.6 3.2 7.4 Q5.8 6.4 7.95 4.15 12.9 -1.05 2.85 -10.8 -5.9 -19.25 -1.15 -28.2 L0.15 -30.05" fill="url(#gradient0)" fill-rule="evenodd" stroke="none"/>
    <path d="M3.2 7.4 L6.1 6.6 5.65 7.0 Q5.05 7.6 5.25 8.35 5.4 8.95 6.15 9.35 L7.8 9.5 9.2 8.65 Q9.75 8.05 9.6 7.4 9.4 6.7 8.65 6.4 L7.4 6.15 9.45 5.5 Q12.3 4.55 14.45 2.3 16.6 0.05 16.35 -1.55 L16.95 -0.15 Q18.0 2.45 16.35 5.75 L15.1 7.8 14.9 7.6 Q14.55 7.05 13.85 7.1 13.1 7.1 12.45 7.7 11.8 8.2 11.6 8.9 11.4 9.65 11.7 10.15 12.1 10.55 12.55 10.6 L11.95 11.15 Q9.25 13.2 6.8 13.9 L0.8 15.35 Q0.0 15.2 -2.45 15.9 -4.9 16.55 -6.55 18.25 -8.15 19.95 -8.15 21.9 -8.1 23.25 -7.65 25.05 L-7.85 25.1 -7.85 26.6 -8.0 29.3 -8.25 28.5 Q-8.65 27.7 -9.45 27.6 -10.2 27.35 -10.9 28.05 -11.3 28.4 -11.2 29.8 L-12.75 30.05 Q-13.95 29.0 -14.85 28.95 L-15.4 26.0 -16.5 21.6 -17.25 17.55 Q-17.75 13.35 -15.7 11.15 -14.45 9.8 -13.0 9.15 -12.8 9.0 -12.65 9.0 -9.55 7.95 -6.3 7.95 -7.2 8.0 -7.8 8.5 -8.45 9.0 -8.45 9.75 -8.35 10.45 -7.65 10.95 -7.0 11.4 -6.0 11.35 -5.05 11.3 -4.4 10.8 -3.75 10.3 -3.8 9.6 -3.85 8.9 -4.5 8.4 -5.05 8.0 -5.75 7.95 L-3.05 8.15 1.85 7.85 3.2 7.4 M2.7 10.95 L0.85 11.05 Q-0.2 11.35 -0.7 12.15 -1.2 12.9 -1.0 13.65 -0.75 14.35 0.15 14.65 1.05 14.95 1.95 14.65 L2.05 14.65 2.15 14.6 Q3.1 14.25 3.6 13.5 4.1 12.7 3.85 12.0 3.65 11.25 2.7 10.95 M-6.05 13.95 Q-6.65 13.45 -7.55 13.75 -8.45 14.0 -9.1 14.9 -9.7 15.75 -9.7 16.65 -9.75 17.55 -9.1 18.05 -8.5 18.55 -7.6 18.3 -6.75 18.05 -6.1 17.25 L-6.05 17.15 -6.0 17.1 Q-5.4 16.25 -5.4 15.35 -5.4 14.4 -6.05 13.95 M-12.4 25.5 Q-11.6 25.4 -11.15 24.5 -10.7 23.7 -10.8 22.65 -10.95 21.55 -11.6 20.85 -12.3 20.2 -13.05 20.35 -13.85 20.4 -14.3 21.2 -14.75 22.05 -14.6 23.05 L-14.65 23.15 -14.65 23.25 Q-14.45 24.2 -13.85 24.85 -13.15 25.55 -12.4 25.5 M-12.55 13.75 Q-12.5 12.8 -13.1 12.3 -13.65 11.75 -14.55 12.0 -15.45 12.2 -16.15 13.05 -16.85 13.85 -16.9 14.8 -17.0 15.75 -16.4 16.25 L-14.85 16.5 Q-14.05 16.35 -13.35 15.55 L-13.3 15.5 -13.25 15.4 Q-12.6 14.65 -12.55 13.75" fill="#ff00fc" fill-rule="evenodd" stroke="none"/>
    <path d="M6.1 6.6 L6.95 6.3 6.95 6.25 7.1 6.25 7.4 6.15 8.65 6.4 Q9.4 6.7 9.6 7.4 9.75 8.05 9.2 8.65 L7.8 9.5 6.15 9.35 Q5.4 8.95 5.25 8.35 5.05 7.6 5.65 7.0 L6.1 6.6 M15.1 7.8 L15.1 8.8 Q14.9 9.45 14.3 10.0 L14.25 10.1 14.2 10.1 12.85 10.65 12.55 10.6 Q12.1 10.55 11.7 10.15 11.4 9.65 11.6 8.9 11.8 8.2 12.45 7.7 13.1 7.1 13.85 7.1 14.55 7.05 14.9 7.6 L15.1 7.8 M-8.0 29.45 L-9.35 29.55 Q-9.45 29.25 -9.7 29.2 L-10.15 29.4 -10.35 29.65 -11.15 29.75 -11.2 29.8 Q-11.3 28.4 -10.9 28.05 -10.2 27.35 -9.45 27.6 -8.65 27.7 -8.25 28.5 L-8.0 29.3 -8.0 29.45 M-6.3 7.95 L-6.2 7.95 -6.15 7.9 -6.05 7.9 -5.75 7.95 Q-5.05 8.0 -4.5 8.4 -3.85 8.9 -3.8 9.6 -3.75 10.3 -4.4 10.8 -5.05 11.3 -6.0 11.35 -7.0 11.4 -7.65 10.95 -8.35 10.45 -8.45 9.75 -8.45 9.0 -7.8 8.5 -7.2 8.0 -6.3 7.95 M2.7 10.95 Q3.65 11.25 3.85 12.0 4.1 12.7 3.6 13.5 3.1 14.25 2.15 14.6 L2.05 14.65 1.95 14.65 Q1.05 14.95 0.15 14.65 -0.75 14.35 -1.0 13.65 -1.2 12.9 -0.7 12.15 -0.2 11.35 0.85 11.05 L2.7 10.95 M13.9 8.45 L13.55 8.35 13.1 8.55 12.75 9.0 12.8 9.4 13.15 9.5 13.65 9.3 13.95 8.85 13.9 8.45 M1.95 12.25 L1.3 12.3 0.7 12.7 Q0.5 12.95 0.6 13.15 L1.0 13.5 1.6 13.45 2.2 13.05 2.3 12.55 1.95 12.25 M-5.5 9.95 L-5.25 9.6 Q-5.25 9.35 -5.55 9.25 L-6.1 9.05 -6.7 9.25 -6.9 9.65 -6.65 10.0 -6.05 10.2 Q-5.7 10.15 -5.5 9.95 M8.2 7.7 L7.85 7.35 7.25 7.3 Q7.0 7.3 6.8 7.55 6.6 7.7 6.7 8.0 L7.0 8.3 7.5 8.35 8.0 8.05 8.2 7.7 M-6.05 13.95 Q-5.4 14.4 -5.4 15.35 -5.4 16.25 -6.0 17.1 L-6.05 17.15 -6.1 17.25 Q-6.75 18.05 -7.6 18.3 -8.5 18.55 -9.1 18.05 -9.75 17.55 -9.7 16.65 -9.7 15.75 -9.1 14.9 -8.45 14.0 -7.55 13.75 -6.65 13.45 -6.05 13.95 M-7.0 15.35 L-7.45 15.3 -8.05 15.75 -8.25 16.3 -8.1 16.75 -7.55 16.8 Q-7.25 16.7 -7.05 16.45 L-6.85 15.85 Q-6.8 15.5 -7.0 15.35 M-12.4 25.5 Q-13.15 25.55 -13.85 24.85 -14.45 24.2 -14.65 23.25 L-14.65 23.15 -14.6 23.05 Q-14.75 22.05 -14.3 21.2 -13.85 20.4 -13.05 20.35 -12.3 20.2 -11.6 20.85 -10.95 21.55 -10.8 22.65 -10.7 23.7 -11.15 24.5 -11.6 25.4 -12.4 25.5 M-12.7 23.75 L-12.25 23.4 -12.15 22.8 Q-12.2 22.4 -12.4 22.2 L-12.9 22.0 -13.3 22.3 -13.4 23.0 -13.15 23.55 -12.7 23.75 M-12.55 13.75 Q-12.6 14.65 -13.25 15.4 L-13.3 15.5 -13.35 15.55 Q-14.05 16.35 -14.85 16.5 L-16.4 16.25 Q-17.0 15.75 -16.9 14.8 -16.85 13.85 -16.15 13.05 -15.45 12.2 -14.55 12.0 -13.65 11.75 -13.1 12.3 -12.5 12.8 -12.55 13.75 M-14.15 13.65 Q-14.3 13.45 -14.6 13.55 L-15.15 13.9 -15.45 14.5 -15.25 15.0 -14.8 15.1 -14.25 14.7 -13.95 14.15 -14.15 13.65" fill="#c002c1" fill-rule="evenodd" stroke="none"/>
    <path d="M-9.35 29.55 L-10.35 29.65 -10.15 29.4 -9.7 29.2 Q-9.45 29.25 -9.35 29.55 M1.95 12.25 L2.3 12.55 2.2 13.05 1.6 13.45 1.0 13.5 0.6 13.15 Q0.5 12.95 0.7 12.7 L1.3 12.3 1.95 12.25 M13.9 8.45 L13.95 8.85 13.65 9.3 13.15 9.5 12.8 9.4 12.75 9.0 13.1 8.55 13.55 8.35 13.9 8.45 M8.2 7.7 L8.0 8.05 7.5 8.35 7.0 8.3 6.7 8.0 Q6.6 7.7 6.8 7.55 7.0 7.3 7.25 7.3 L7.85 7.35 8.2 7.7 M-5.5 9.95 Q-5.7 10.15 -6.05 10.2 L-6.65 10.0 -6.9 9.65 -6.7 9.25 -6.1 9.05 -5.55 9.25 Q-5.25 9.35 -5.25 9.6 L-5.5 9.95 M-7.0 15.35 Q-6.8 15.5 -6.85 15.85 L-7.05 16.45 Q-7.25 16.7 -7.55 16.8 L-8.1 16.75 -8.25 16.3 -8.05 15.75 -7.45 15.3 -7.0 15.35 M-12.7 23.75 L-13.15 23.55 -13.4 23.0 -13.3 22.3 -12.9 22.0 -12.4 22.2 Q-12.2 22.4 -12.15 22.8 L-12.25 23.4 -12.7 23.75 M-14.15 13.65 L-13.95 14.15 -14.25 14.7 -14.8 15.1 -15.25 15.0 -15.45 14.5 -15.15 13.9 -14.6 13.55 Q-14.3 13.45 -14.15 13.65" fill="#540154" fill-rule="evenodd" stroke="none"/>
    <path d="M-7.65 25.05 L-7.2 26.6 -6.6 29.5 -8.0 29.45 -8.0 29.3 -7.85 26.6 -7.85 25.1 -7.65 25.05" fill="url(#gradient1)" fill-rule="evenodd" stroke="none"/>
    <path d="M16.35 -1.55 L16.2 -1.7 14.3 -4.65 10.25 -8.9 6.05 -13.0 Q4.05 -14.75 0.95 -18.7 -1.95 -22.5 0.15 -30.05 M-1.15 -28.2 Q-5.9 -19.25 2.85 -10.8 12.9 -1.05 7.95 4.15 5.8 6.4 3.2 7.4 L1.85 7.85 -3.05 8.15 -5.75 7.95 M16.35 -1.55 L16.95 -0.15 Q18.0 2.45 16.35 5.75 L15.1 7.8 M12.55 10.6 L11.95 11.15 Q9.25 13.2 6.8 13.9 L0.8 15.35 Q0.0 15.2 -2.45 15.9 -4.9 16.55 -6.55 18.25 -8.15 19.95 -8.15 21.9 -8.1 23.25 -7.65 25.05 L-7.2 26.6 -6.6 29.5 M-14.85 28.95 L-15.4 26.0 -16.5 21.6 -17.25 17.55 Q-17.75 13.35 -15.7 11.15 -14.45 9.8 -13.0 9.15 -12.8 9.0 -12.65 9.0 -9.55 7.95 -6.3 7.95" fill="none" stroke="#333333" stroke-linecap="round" stroke-linejoin="round" stroke-width="0.05"/>
  </g>
  <defs>
    <linearGradient gradientTransform="matrix(-0.0105, -0.0194, -0.0085, 0.0046, 5.6, -3.9)" gradientUnits="userSpaceOnUse" id="gradient0" spreadMethod="pad" x1="-819.2" x2="819.2">
      <stop offset="0.2901960784313726" stop-color="#970198"/>
      <stop offset="0.6274509803921569" stop-color="#db02db"/>
    </linearGradient>
    <linearGradient gradientTransform="matrix(-0.0239, -0.0053, -0.0054, 0.0242, -25.05, 43.7)" gradientUnits="userSpaceOnUse" id="gradient1" spreadMethod="pad" x1="-819.2" x2="819.2">
      <stop offset="0.2901960784313726" stop-color="#970198"/>
      <stop offset="0.6274509803921569" stop-color="#db02db"/>
    </linearGradient>
  </defs>
</svg>
