<?xml version="1.0" encoding="UTF-8" standalone="no"?>
<svg xmlns:ffdec="https://www.free-decompiler.com/flash" xmlns:xlink="http://www.w3.org/1999/xlink" ffdec:objectType="shape" height="325.95px" width="475.0px" xmlns="http://www.w3.org/2000/svg">
  <g transform="matrix(1.0, 0.0, 0.0, 1.0, 281.5, -137.6)">
    <path d="M-42.25 200.75 L-43.05 200.1 Q-45.0 198.5 -47.4 197.2 -61.9 189.2 -73.7 189.5 -85.5 189.75 -93.9 193.9 -102.3 198.05 -103.7 205.35 -105.15 212.6 -102.3 214.9 -99.5 217.2 -94.6 219.4 -89.7 221.6 -77.15 219.2 L-66.15 215.2 Q-60.4 214.0 -72.05 224.4 -83.7 234.75 -99.3 231.5 -114.85 228.25 -121.45 214.15 -128.0 200.0 -110.15 184.95 -92.35 169.9 -67.5 169.65 -42.65 169.4 -25.75 180.8 -8.9 192.2 -7.35 214.85 -5.8 237.5 -12.5 250.15 -15.85 256.35 -19.4 261.7 L-20.15 261.2 Q-13.85 244.95 -21.3 226.95 -28.8 208.95 -42.25 200.75 M-65.15 216.2 L-65.15 215.2 -66.15 215.2 -65.15 215.2 -65.15 216.2" fill="url(#gradient0)" fill-rule="evenodd" stroke="none"/>
    <path d="M-244.15 344.9 L-243.65 344.4 -243.25 344.05 Q-237.9 339.35 -231.6 338.75 -225.1 338.1 -221.4 342.2 -217.7 346.2 -219.0 352.65 -220.25 359.05 -225.75 364.1 -231.25 369.1 -237.75 369.75 -244.25 370.4 -247.95 366.35 -251.65 362.25 -250.4 355.9 -249.2 349.7 -244.15 344.9 M-279.7 395.5 L-280.45 392.75 -280.55 392.2 -280.6 391.75 -280.75 390.05 Q-281.0 385.35 -278.55 382.0 -275.55 377.9 -270.35 378.2 -265.15 378.45 -260.7 382.95 -256.35 387.45 -255.35 393.55 -254.35 399.6 -257.35 403.7 -260.35 407.8 -265.55 407.5 -270.75 407.2 -275.15 402.75 -278.3 399.5 -279.7 395.5 M-241.15 317.3 Q-240.2 312.55 -236.15 308.5 L-235.75 308.1 -235.4 307.8 Q-230.95 303.75 -225.6 302.85 L-224.35 302.65 Q-219.65 302.2 -216.7 304.85 -213.45 307.8 -214.35 313.0 -215.25 318.15 -219.85 322.5 -224.4 326.85 -230.0 327.85 -235.55 328.75 -238.85 325.8 -242.15 322.8 -241.25 317.65 L-241.15 317.3 M-154.95 267.7 Q-152.5 265.9 -149.3 264.8 L-148.65 264.6 -148.15 264.4 Q-142.0 262.5 -136.5 264.0 L-135.4 264.35 Q-129.15 266.4 -127.45 271.6 -125.75 276.8 -129.5 282.2 -133.3 287.5 -140.35 289.85 -147.4 292.15 -153.65 290.1 -159.85 288.05 -161.55 282.85 -163.3 277.6 -159.5 272.3 -157.65 269.6 -154.95 267.7 M-53.35 251.1 Q-51.05 246.65 -46.6 243.75 L-46.05 243.45 -45.65 243.2 Q-42.9 241.55 -40.1 240.95 L-34.6 240.8 Q-28.9 241.7 -26.55 246.55 -24.25 251.4 -26.7 257.35 -29.15 263.25 -34.9 266.8 -40.65 270.35 -46.35 269.45 -52.05 268.55 -54.35 263.7 -56.65 258.85 -54.25 252.95 L-53.35 251.1 M-271.75 389.15 Q-272.7 390.55 -272.35 392.65 -272.0 394.75 -270.55 396.35 -269.15 397.9 -267.45 398.0 -265.8 398.05 -264.85 396.65 -263.9 395.2 -264.25 393.1 -264.6 391.0 -266.0 389.45 -267.45 387.9 -269.1 387.8 -270.8 387.7 -271.75 389.15 M-169.2 303.7 Q-166.55 308.55 -169.35 314.5 -172.1 320.4 -178.65 323.95 -185.15 327.5 -191.65 326.6 -198.15 325.7 -200.75 320.85 -203.4 316.0 -200.65 310.1 -198.0 304.4 -191.95 300.9 L-191.35 300.6 -190.85 300.35 Q-184.55 297.05 -178.3 297.95 -171.8 298.85 -169.2 303.7 M-179.75 309.0 Q-180.6 307.45 -182.8 307.2 -185.0 306.95 -187.25 308.2 -189.55 309.45 -190.55 311.45 -191.55 313.4 -190.7 314.95 -189.9 316.5 -187.65 316.75 -185.45 316.95 -183.2 315.75 -180.95 314.5 -179.9 312.55 -178.9 310.55 -179.75 309.0 M-230.6 312.85 Q-232.2 314.35 -232.6 316.1 -232.95 317.85 -231.9 318.8 -230.85 319.75 -228.95 319.35 -227.1 318.95 -225.5 317.5 -223.9 315.95 -223.55 314.25 -223.15 312.5 -224.2 311.55 -225.3 310.55 -227.15 310.95 -229.05 311.3 -230.6 312.85 M-229.7 353.3 Q-229.2 351.1 -230.35 349.85 -231.55 348.5 -233.75 348.8 -235.95 349.1 -237.85 350.85 -239.8 352.6 -240.3 354.75 -240.8 356.9 -239.6 358.2 -238.4 359.5 -236.2 359.2 -234.05 358.9 -232.1 357.2 -230.2 355.45 -229.7 353.3 M-45.4 254.3 Q-46.25 256.25 -45.5 257.8 -44.8 259.35 -42.85 259.6 -40.9 259.8 -38.9 258.6 -36.9 257.35 -36.0 255.4 -35.1 253.4 -35.85 251.85 -36.6 250.3 -38.55 250.05 -40.5 249.8 -42.45 251.05 -44.5 252.3 -45.4 254.3 M-91.2 300.9 L-95.25 299.95 Q-101.45 297.8 -103.05 292.55 -104.7 287.3 -100.85 282.05 -97.15 276.95 -90.5 274.7 L-89.85 274.5 -89.35 274.35 Q-82.55 272.4 -76.6 274.5 -70.4 276.65 -68.75 281.9 -67.15 287.15 -71.0 292.45 -72.95 295.05 -75.6 296.9 -78.4 298.8 -82.0 299.9 -86.8 301.4 -91.2 300.9 M-80.15 285.05 Q-80.7 283.35 -82.8 282.7 L-87.35 282.8 Q-89.85 283.55 -91.2 285.3 -92.6 287.05 -92.05 288.75 -91.55 290.4 -89.4 291.05 L-84.85 290.95 Q-82.4 290.2 -81.0 288.45 -79.6 286.7 -80.15 285.05 M-149.85 275.4 Q-151.2 277.15 -150.6 278.8 -150.05 280.5 -147.95 281.1 L-143.35 280.95 Q-140.9 280.1 -139.55 278.35 -138.2 276.6 -138.75 274.95 -139.3 273.25 -141.45 272.6 L-146.0 272.8 Q-148.5 273.6 -149.85 275.4" fill="#c002c1" fill-rule="evenodd" stroke="none"/>
    <path d="M-162.85 324.3 Q-176.05 329.0 -186.55 334.8 -198.45 341.35 -208.05 348.4 -217.7 355.45 -225.75 366.0 -236.05 379.55 -243.75 394.55 -247.4 401.75 -249.8 409.6 -255.95 429.75 -241.45 444.7 -251.7 437.95 -260.55 429.1 -270.4 419.2 -275.95 406.6 -278.35 401.1 -279.7 395.5 -278.3 399.5 -275.15 402.75 -270.75 407.2 -265.55 407.5 -260.35 407.8 -257.35 403.7 -254.35 399.6 -255.35 393.55 -256.35 387.45 -260.7 382.95 -265.15 378.45 -270.35 378.2 -275.55 377.9 -278.55 382.0 -281.0 385.35 -280.75 390.05 -282.15 381.0 -280.85 371.55 -280.25 367.35 -278.7 363.35 -271.45 344.85 -256.75 331.35 L-241.15 317.3 -241.25 317.65 Q-242.15 322.8 -238.85 325.8 -235.55 328.75 -230.0 327.85 -224.4 326.85 -219.85 322.5 -215.25 318.15 -214.35 313.0 -213.45 307.8 -216.7 304.85 -219.65 302.2 -224.35 302.65 -211.4 292.0 -196.6 283.85 -179.05 274.25 -159.75 268.95 L-154.95 267.7 Q-157.65 269.6 -159.5 272.3 -163.3 277.6 -161.55 282.85 -159.85 288.05 -153.65 290.1 -147.4 292.15 -140.35 289.85 -133.3 287.5 -129.5 282.2 -125.75 276.8 -127.45 271.6 -129.15 266.4 -135.4 264.35 L-136.5 264.0 -121.4 262.3 -84.9 258.75 Q-68.5 257.3 -53.35 251.1 L-54.25 252.95 Q-56.65 258.85 -54.35 263.7 -52.05 268.55 -46.35 269.45 -40.65 270.35 -34.9 266.8 -29.15 263.25 -26.7 257.35 -24.25 251.4 -26.55 246.55 -28.9 241.7 -34.6 240.8 L-40.1 240.95 -37.85 237.15 Q-30.45 222.5 -36.95 207.7 -38.75 203.65 -42.25 200.75 -28.8 208.95 -21.3 226.95 -13.85 244.95 -20.15 261.2 L-19.4 261.7 Q-23.15 267.15 -27.15 271.65 -34.2 279.6 -44.9 285.55 -55.6 291.5 -70.4 295.5 L-75.6 296.9 Q-72.95 295.05 -71.0 292.45 -67.15 287.15 -68.75 281.9 -70.4 276.65 -76.6 274.5 -82.55 272.4 -89.35 274.35 L-89.85 274.5 -90.5 274.7 Q-97.15 276.95 -100.85 282.05 -104.7 287.3 -103.05 292.55 -101.45 297.8 -95.25 299.95 L-91.2 300.9 -111.65 305.95 Q-136.05 311.9 -158.85 322.8 L-159.35 323.05 -162.85 324.3 M-244.15 344.9 Q-249.2 349.7 -250.4 355.9 -251.65 362.25 -247.95 366.35 -244.25 370.4 -237.75 369.75 -231.25 369.1 -225.75 364.1 -220.25 359.05 -219.0 352.65 -217.7 346.2 -221.4 342.2 -225.1 338.1 -231.6 338.75 -237.9 339.35 -243.25 344.05 L-243.65 344.4 -244.15 344.9 M-169.2 303.7 Q-171.8 298.85 -178.3 297.95 -184.55 297.05 -190.85 300.35 L-191.35 300.6 -191.95 300.9 Q-198.0 304.4 -200.65 310.1 -203.4 316.0 -200.75 320.85 -198.15 325.7 -191.65 326.6 -185.15 327.5 -178.65 323.95 -172.1 320.4 -169.35 314.5 -166.55 308.55 -169.2 303.7" fill="#ff00fc" fill-rule="evenodd" stroke="none"/>
    <path d="M-271.75 389.15 Q-270.8 387.7 -269.1 387.8 -267.45 387.9 -266.0 389.45 -264.6 391.0 -264.25 393.1 -263.9 395.2 -264.85 396.65 -265.8 398.05 -267.45 398.0 -269.15 397.9 -270.55 396.35 -272.0 394.75 -272.35 392.65 -272.7 390.55 -271.75 389.15 M-179.75 309.0 Q-178.9 310.55 -179.9 312.55 -180.95 314.5 -183.2 315.75 -185.45 316.95 -187.65 316.75 -189.9 316.5 -190.7 314.95 -191.55 313.4 -190.55 311.45 -189.55 309.45 -187.25 308.2 -185.0 306.95 -182.8 307.2 -180.6 307.45 -179.75 309.0 M-229.7 353.3 Q-230.2 355.45 -232.1 357.2 -234.05 358.9 -236.2 359.2 -238.4 359.5 -239.6 358.2 -240.8 356.9 -240.3 354.75 -239.8 352.6 -237.85 350.85 -235.95 349.1 -233.75 348.8 -231.55 348.5 -230.35 349.85 -229.2 351.1 -229.7 353.3 M-230.6 312.85 Q-229.05 311.3 -227.15 310.95 -225.3 310.55 -224.2 311.55 -223.15 312.5 -223.55 314.25 -223.9 315.95 -225.5 317.5 -227.1 318.95 -228.95 319.35 -230.85 319.75 -231.9 318.8 -232.95 317.85 -232.6 316.1 -232.2 314.35 -230.6 312.85 M-45.4 254.3 Q-44.5 252.3 -42.45 251.05 -40.5 249.8 -38.55 250.05 -36.6 250.3 -35.85 251.85 -35.1 253.4 -36.0 255.4 -36.9 257.35 -38.9 258.6 -40.9 259.8 -42.85 259.6 -44.8 259.35 -45.5 257.8 -46.25 256.25 -45.4 254.3 M-80.15 285.05 Q-79.6 286.7 -81.0 288.45 -82.4 290.2 -84.85 290.95 L-89.4 291.05 Q-91.55 290.4 -92.05 288.75 -92.6 287.05 -91.2 285.3 -89.85 283.55 -87.35 282.8 L-82.8 282.7 Q-80.7 283.35 -80.15 285.05 M-149.85 275.4 Q-148.5 273.6 -146.0 272.8 L-141.45 272.6 Q-139.3 273.25 -138.75 274.95 -138.2 276.6 -139.55 278.35 -140.9 280.1 -143.35 280.95 L-147.95 281.1 Q-150.05 280.5 -150.6 278.8 -151.2 277.15 -149.85 275.4" fill="#540154" fill-rule="evenodd" stroke="none"/>
    <path d="M-162.65 324.7 L-162.85 324.3 -159.35 323.05 -162.65 324.7" fill="#970198" fill-rule="evenodd" stroke="none"/>
    <path d="M-162.65 324.7 Q-175.55 331.1 -184.75 337.4 -193.15 343.1 -198.45 348.75 -209.7 360.5 -213.75 369.85 -217.85 379.2 -210.6 384.55 -203.4 389.9 -186.2 391.05 -169.05 392.15 -144.25 388.15 -119.45 384.15 -102.05 377.8 -84.7 371.4 -65.4 363.0 -46.1 354.6 -30.65 337.45 -15.25 320.25 -8.55 291.7 -1.9 263.15 10.15 238.8 22.2 214.4 58.8 177.5 74.2 161.95 92.9 151.65 97.75 148.95 102.85 146.65 109.05 143.8 115.6 141.5 L118.85 140.4 122.0 139.4 122.7 139.25 129.6 138.0 136.8 137.6 Q160.3 137.6 176.9 154.2 193.5 170.8 193.5 194.3 193.5 217.75 176.9 234.4 L172.75 238.2 Q164.55 242.85 155.7 247.95 L128.75 263.35 Q123.7 266.25 118.85 269.6 110.55 275.35 102.85 282.6 97.75 287.35 92.9 292.75 86.55 299.75 80.7 307.9 59.4 337.1 49.85 353.0 40.25 368.85 17.9 395.95 -4.45 423.05 -26.95 434.3 -49.45 445.5 -84.2 455.85 -118.95 466.2 -172.2 462.65 -216.05 459.7 -240.9 445.05 L-241.45 444.7 Q-255.95 429.75 -249.8 409.6 -247.4 401.75 -243.75 394.55 -236.05 379.55 -225.75 366.0 -217.7 355.45 -208.05 348.4 -198.45 341.35 -186.55 334.8 -176.05 329.0 -162.85 324.3 L-162.65 324.7" fill="url(#gradient1)" fill-rule="evenodd" stroke="none"/>
    <path d="M172.75 238.2 L176.9 234.4 Q193.5 217.75 193.5 194.3 193.5 170.8 176.9 154.2 160.3 137.6 136.8 137.6 L129.6 138.0 122.7 139.25 122.0 139.4 118.85 140.4 115.6 141.5 Q109.05 143.8 102.85 146.65 97.75 148.95 92.9 151.65 74.2 161.95 58.8 177.5 22.2 214.4 10.15 238.8 -1.9 263.15 -8.55 291.7 -15.25 320.25 -30.65 337.45 -46.1 354.6 -65.4 363.0 -84.7 371.4 -102.05 377.8 -119.45 384.15 -144.25 388.15 -169.05 392.15 -186.2 391.05 -203.4 389.9 -210.6 384.55 -217.85 379.2 -213.75 369.85 -209.7 360.5 -198.45 348.75 -193.15 343.1 -184.75 337.4 -175.55 331.1 -162.65 324.7 L-159.35 323.05 -158.85 322.8 Q-136.05 311.9 -111.65 305.95 L-91.2 300.9 M-241.45 444.7 L-240.9 445.05 Q-216.05 459.7 -172.2 462.65 -118.95 466.2 -84.2 455.85 -49.45 445.5 -26.95 434.3 -4.45 423.05 17.9 395.95 40.25 368.85 49.85 353.0 59.4 337.1 80.7 307.9 86.55 299.75 92.9 292.75 97.75 287.35 102.85 282.6 110.55 275.35 118.85 269.6 123.7 266.25 128.75 263.35 L155.7 247.95 Q164.9 244.75 172.75 238.2 M122.0 139.4 Q118.7 140.25 115.6 141.5 M-66.15 215.2 L-77.15 219.2 Q-89.7 221.6 -94.6 219.4 -99.5 217.2 -102.3 214.9 -105.15 212.6 -103.7 205.35 -102.3 198.05 -93.9 193.9 -85.5 189.75 -73.7 189.5 -61.9 189.2 -47.4 197.2 -45.0 198.5 -43.05 200.1 L-42.25 200.75 Q-38.75 203.65 -36.95 207.7 -30.45 222.5 -37.85 237.15 L-40.1 240.95 M-19.4 261.7 Q-15.85 256.35 -12.5 250.15 -5.8 237.5 -7.35 214.85 -8.9 192.2 -25.75 180.8 -42.65 169.4 -67.5 169.65 -92.35 169.9 -110.15 184.95 -128.0 200.0 -121.45 214.15 -114.85 228.25 -99.3 231.5 -83.7 234.75 -72.05 224.4 -60.4 214.0 -66.15 215.2 L-65.15 215.2 -65.15 216.2 M-280.75 390.05 Q-282.15 381.0 -280.85 371.55 -280.25 367.35 -278.7 363.35 -271.45 344.85 -256.75 331.35 L-241.15 317.3 M-224.35 302.65 Q-211.4 292.0 -196.6 283.85 -179.05 274.25 -159.75 268.95 L-154.95 267.7 M-136.5 264.0 L-121.4 262.3 -84.9 258.75 Q-68.5 257.3 -53.35 251.1 M-75.6 296.9 L-70.4 295.5 Q-55.6 291.5 -44.9 285.55 -34.2 279.6 -27.15 271.65 -23.15 267.15 -19.4 261.7 M-279.7 395.5 Q-278.35 401.1 -275.95 406.6 -270.4 419.2 -260.55 429.1 -251.7 437.95 -241.45 444.7" fill="none" stroke="#333333" stroke-linecap="round" stroke-linejoin="round" stroke-width="0.05"/>
  </g>
  <defs>
    <linearGradient gradientTransform="matrix(-0.0673, -0.0297, -0.0192, 0.0434, -59.4, 207.45)" gradientUnits="userSpaceOnUse" id="gradient0" spreadMethod="pad" x1="-819.2" x2="819.2">
      <stop offset="0.2901960784313726" stop-color="#970198"/>
      <stop offset="0.6274509803921569" stop-color="#db02db"/>
    </linearGradient>
    <linearGradient gradientTransform="matrix(0.2934, -0.0773, -0.0395, -0.1497, -25.15, 309.25)" gradientUnits="userSpaceOnUse" id="gradient1" spreadMethod="pad" x1="-819.2" x2="819.2">
      <stop offset="0.2901960784313726" stop-color="#5b015c"/>
      <stop offset="0.6274509803921569" stop-color="#db02db"/>
    </linearGradient>
  </defs>
</svg>
