<?xml version="1.0" encoding="UTF-8" standalone="no"?>
<svg xmlns:ffdec="https://www.free-decompiler.com/flash" xmlns:xlink="http://www.w3.org/1999/xlink" ffdec:objectType="shape" height="325.95px" width="475.0px" xmlns="http://www.w3.org/2000/svg">
  <g transform="matrix(1.0, 0.0, 0.0, 1.0, 268.45, 77.1)">
    <path d="M-267.7 -3.6 L-267.55 -5.25 -267.5 -5.7 -267.4 -6.25 -266.65 -9.0 Q-265.25 -13.05 -262.1 -16.3 -257.7 -20.75 -252.5 -21.05 -247.3 -21.35 -244.3 -17.25 -241.3 -13.15 -242.3 -7.05 -243.3 -1.0 -247.65 3.5 -252.1 8.0 -257.3 8.3 -262.5 8.55 -265.5 4.45 -267.95 1.1 -267.7 -3.6 M-78.15 85.6 Q-73.75 85.05 -68.95 86.55 -65.35 87.65 -62.55 89.6 -59.9 91.4 -57.95 94.05 -54.1 99.3 -55.7 104.55 -57.35 109.8 -63.55 112.0 -69.5 114.05 -76.3 112.1 L-76.8 111.95 -77.45 111.75 Q-84.1 109.5 -87.8 104.45 -91.65 99.15 -90.0 93.9 -88.4 88.65 -82.2 86.5 -80.25 85.8 -78.15 85.6 M-27.05 145.5 Q-29.85 144.9 -32.6 143.3 L-33.0 143.05 -33.55 142.7 Q-38.0 139.8 -40.3 135.35 L-41.2 133.5 Q-43.6 127.6 -41.3 122.75 -39.0 117.9 -33.3 117.0 -27.6 116.1 -21.85 119.65 -16.1 123.2 -13.65 129.15 -11.2 135.05 -13.5 139.9 -15.85 144.75 -21.55 145.65 L-27.05 145.5 M-123.45 122.45 Q-128.95 123.95 -135.1 122.05 L-135.6 121.9 -136.25 121.7 Q-139.45 120.55 -141.9 118.8 -144.6 116.85 -146.45 114.2 -150.25 108.85 -148.5 103.65 -146.8 98.4 -140.6 96.35 -134.35 94.3 -127.3 96.65 -120.25 98.95 -116.45 104.3 -112.7 109.65 -114.4 114.85 -116.1 120.05 -122.35 122.15 L-123.45 122.45 M-211.3 83.8 L-212.55 83.65 Q-217.9 82.7 -222.35 78.65 L-222.7 78.35 -223.1 77.95 Q-227.15 73.9 -228.1 69.2 L-228.2 68.8 Q-229.1 63.65 -225.8 60.65 -222.5 57.7 -216.95 58.65 -211.35 59.6 -206.8 63.95 -202.2 68.3 -201.3 73.45 -200.4 78.65 -203.65 81.6 -206.6 84.25 -211.3 83.8 M-258.7 -2.65 Q-257.75 -1.25 -256.05 -1.3 -254.4 -1.45 -252.95 -3.0 -251.55 -4.55 -251.2 -6.65 -250.85 -8.75 -251.8 -10.15 -252.75 -11.6 -254.4 -11.5 -256.1 -11.45 -257.5 -9.9 -258.95 -8.3 -259.3 -6.2 -259.65 -4.1 -258.7 -2.65 M-76.35 95.4 Q-78.5 96.05 -79.0 97.75 -79.55 99.4 -78.15 101.15 -76.8 102.9 -74.3 103.7 L-69.75 103.8 Q-67.65 103.1 -67.1 101.45 -66.55 99.75 -67.95 98.0 -69.35 96.25 -71.8 95.5 L-76.35 95.4 M-156.15 82.75 Q-158.75 87.6 -165.25 88.5 -171.5 89.4 -177.8 86.15 L-178.3 85.9 -178.9 85.55 Q-184.95 82.05 -187.6 76.35 -190.35 70.45 -187.7 65.6 -185.1 60.75 -178.6 59.85 -172.1 58.95 -165.6 62.5 -159.05 66.05 -156.3 72.0 -153.5 77.9 -156.15 82.75 M-126.5 108.1 Q-127.85 106.35 -130.3 105.55 L-134.9 105.35 Q-137.0 105.95 -137.55 107.65 -138.15 109.3 -136.8 111.1 -135.45 112.85 -132.95 113.65 L-128.4 113.85 Q-126.25 113.2 -125.7 111.55 -125.15 109.85 -126.5 108.1 M-22.95 131.1 Q-23.85 129.1 -25.85 127.9 -27.85 126.65 -29.8 126.9 -31.75 127.1 -32.45 128.65 -33.2 130.2 -32.35 132.2 -31.45 134.15 -29.4 135.4 -27.45 136.65 -25.5 136.4 -23.55 136.15 -22.8 134.6 -22.05 133.05 -22.95 131.1 M-224.7 16.7 Q-218.2 17.35 -212.7 22.4 -207.2 27.4 -205.95 33.8 -204.65 40.25 -208.35 44.3 -212.05 48.35 -218.55 47.7 -224.85 47.1 -230.2 42.4 L-230.6 42.05 -231.1 41.6 Q-236.15 36.75 -237.35 30.6 -238.6 24.2 -234.9 20.15 -231.2 16.05 -224.7 16.7 M-212.45 69.0 Q-214.05 67.5 -215.9 67.1 -217.8 66.7 -218.85 67.65 -219.9 68.6 -219.55 70.35 -219.15 72.1 -217.55 73.65 -216.0 75.15 -214.1 75.55 -212.25 75.9 -211.15 74.95 -210.1 73.95 -210.5 72.25 -210.85 70.5 -212.45 69.0 M-223.15 27.25 Q-225.35 26.95 -226.55 28.25 -227.75 29.55 -227.25 31.7 -226.75 33.85 -224.8 35.6 -222.9 37.35 -220.7 37.65 -218.5 37.95 -217.3 36.65 -216.15 35.35 -216.65 33.2 -217.15 31.0 -219.05 29.3 -221.0 27.55 -223.15 27.25 M-174.6 69.75 Q-176.85 69.95 -177.65 71.5 -178.5 73.05 -177.5 75.05 -176.5 77.0 -174.2 78.25 -171.95 79.5 -169.75 79.25 -167.55 79.0 -166.7 77.45 -165.85 75.9 -166.85 73.95 -167.9 71.95 -170.15 70.75 -172.4 69.5 -174.6 69.75" fill="#c002c1" fill-rule="evenodd" stroke="none"/>
    <path d="M-266.65 -9.0 Q-265.3 -14.65 -262.9 -20.15 -257.35 -32.75 -247.5 -42.65 -238.65 -51.5 -228.4 -58.25 -242.9 -43.3 -236.75 -23.15 -234.35 -15.3 -230.7 -8.1 -223.0 6.9 -212.7 20.45 -204.65 31.0 -195.0 38.05 -185.4 45.1 -173.5 51.7 L-173.1 51.9 Q-162.75 57.55 -149.8 62.2 L-146.3 63.4 -145.8 63.65 Q-123.0 74.55 -98.6 80.5 L-78.15 85.6 Q-80.25 85.8 -82.2 86.5 -88.4 88.65 -90.0 93.9 -91.65 99.15 -87.8 104.45 -84.1 109.5 -77.45 111.75 L-76.8 111.95 -76.3 112.1 Q-69.5 114.05 -63.55 112.0 -57.35 109.8 -55.7 104.55 -54.1 99.3 -57.95 94.05 -59.9 91.4 -62.55 89.6 L-57.35 90.95 Q-42.55 94.95 -31.85 100.9 -21.15 106.85 -14.1 114.8 -10.1 119.3 -6.35 124.8 L-7.1 125.25 Q-0.8 141.5 -8.25 159.5 -15.75 177.5 -29.2 185.75 -25.7 182.8 -23.9 178.75 -17.4 163.95 -24.8 149.3 -25.8 147.3 -27.05 145.5 L-21.55 145.65 Q-15.85 144.75 -13.5 139.9 -11.2 135.05 -13.65 129.15 -16.1 123.2 -21.85 119.65 -27.6 116.1 -33.3 117.0 -39.0 117.9 -41.3 122.75 -43.6 127.6 -41.2 133.5 L-40.3 135.35 Q-55.45 129.15 -71.85 127.7 L-108.35 124.15 -123.45 122.45 -122.35 122.15 Q-116.1 120.05 -114.4 114.85 -112.7 109.65 -116.45 104.3 -120.25 98.95 -127.3 96.65 -134.35 94.3 -140.6 96.35 -146.8 98.4 -148.5 103.65 -150.25 108.85 -146.45 114.2 -144.6 116.85 -141.9 118.8 L-146.7 117.5 Q-166.0 112.2 -183.55 102.6 -198.35 94.45 -211.3 83.8 -206.6 84.25 -203.65 81.6 -200.4 78.65 -201.3 73.45 -202.2 68.3 -206.8 63.95 -211.35 59.6 -216.95 58.65 -222.5 57.7 -225.8 60.65 -229.1 63.65 -228.2 68.8 L-228.1 69.2 -243.7 55.1 Q-258.4 41.6 -265.65 23.1 -267.2 19.1 -267.8 14.9 -269.1 5.45 -267.7 -3.6 -267.95 1.1 -265.5 4.45 -262.5 8.55 -257.3 8.3 -252.1 8.0 -247.65 3.5 -243.3 -1.0 -242.3 -7.05 -241.3 -13.15 -244.3 -17.25 -247.3 -21.35 -252.5 -21.05 -257.7 -20.75 -262.1 -16.3 -265.25 -13.05 -266.65 -9.0 M-156.15 82.75 Q-153.5 77.9 -156.3 72.0 -159.05 66.05 -165.6 62.5 -172.1 58.95 -178.6 59.85 -185.1 60.75 -187.7 65.6 -190.35 70.45 -187.6 76.35 -184.95 82.05 -178.9 85.55 L-178.3 85.9 -177.8 86.15 Q-171.5 89.4 -165.25 88.5 -158.75 87.6 -156.15 82.75 M-224.7 16.7 Q-231.2 16.05 -234.9 20.15 -238.6 24.2 -237.35 30.6 -236.15 36.75 -231.1 41.6 L-230.6 42.05 -230.2 42.4 Q-224.85 47.1 -218.55 47.7 -212.05 48.35 -208.35 44.3 -204.65 40.25 -205.95 33.8 -207.2 27.4 -212.7 22.4 -218.2 17.35 -224.7 16.7" fill="#ff00fc" fill-rule="evenodd" stroke="none"/>
    <path d="M-258.7 -2.65 Q-259.65 -4.1 -259.3 -6.2 -258.95 -8.3 -257.5 -9.9 -256.1 -11.45 -254.4 -11.5 -252.75 -11.6 -251.8 -10.15 -250.85 -8.75 -251.2 -6.65 -251.55 -4.55 -252.95 -3.0 -254.4 -1.45 -256.05 -1.3 -257.75 -1.25 -258.7 -2.65 M-76.35 95.4 L-71.8 95.5 Q-69.35 96.25 -67.95 98.0 -66.55 99.75 -67.1 101.45 -67.65 103.1 -69.75 103.8 L-74.3 103.7 Q-76.8 102.9 -78.15 101.15 -79.55 99.4 -79.0 97.75 -78.5 96.05 -76.35 95.4 M-126.5 108.1 Q-125.15 109.85 -125.7 111.55 -126.25 113.2 -128.4 113.85 L-132.95 113.65 Q-135.45 112.85 -136.8 111.1 -138.15 109.3 -137.55 107.65 -137.0 105.95 -134.9 105.35 L-130.3 105.55 Q-127.85 106.35 -126.5 108.1 M-22.95 131.1 Q-22.05 133.05 -22.8 134.6 -23.55 136.15 -25.5 136.4 -27.45 136.65 -29.4 135.4 -31.45 134.15 -32.35 132.2 -33.2 130.2 -32.45 128.65 -31.75 127.1 -29.8 126.9 -27.85 126.65 -25.85 127.9 -23.85 129.1 -22.95 131.1 M-223.15 27.25 Q-221.0 27.55 -219.05 29.3 -217.15 31.0 -216.65 33.2 -216.15 35.35 -217.3 36.65 -218.5 37.95 -220.7 37.65 -222.9 37.35 -224.8 35.6 -226.75 33.85 -227.25 31.7 -227.75 29.55 -226.55 28.25 -225.35 26.95 -223.15 27.25 M-212.45 69.0 Q-210.85 70.5 -210.5 72.25 -210.1 73.95 -211.15 74.95 -212.25 75.9 -214.1 75.55 -216.0 75.15 -217.55 73.65 -219.15 72.1 -219.55 70.35 -219.9 68.6 -218.85 67.65 -217.8 66.7 -215.9 67.1 -214.05 67.5 -212.45 69.0 M-174.6 69.75 Q-172.4 69.5 -170.15 70.75 -167.9 71.95 -166.85 73.95 -165.85 75.9 -166.7 77.45 -167.55 79.0 -169.75 79.25 -171.95 79.5 -174.2 78.25 -176.5 77.0 -177.5 75.05 -178.5 73.05 -177.65 71.5 -176.85 69.95 -174.6 69.75" fill="#540154" fill-rule="evenodd" stroke="none"/>
    <path d="M-171.7 49.05 Q-162.5 55.35 -149.6 61.8 L-149.8 62.2 Q-162.75 57.55 -173.1 51.9 L-173.5 51.7 -171.7 49.05" fill="url(#gradient0)" fill-rule="evenodd" stroke="none"/>
    <path d="M-149.6 61.8 L-146.3 63.4 -149.8 62.2 -149.6 61.8" fill="#970198" fill-rule="evenodd" stroke="none"/>
    <path d="M-6.35 124.8 Q-2.8 130.1 0.55 136.3 7.25 148.95 5.7 171.6 4.15 194.25 -12.7 205.65 -29.6 217.05 -54.45 216.8 -79.3 216.55 -97.1 201.5 -114.95 186.45 -108.4 172.3 -101.8 158.2 -86.25 154.95 -70.65 151.7 -59.0 162.1 -47.35 172.45 -53.1 171.25 L-64.1 167.25 Q-76.65 164.85 -81.55 167.05 -86.45 169.25 -89.25 171.55 -92.1 173.85 -90.65 181.15 -89.25 188.4 -80.85 192.55 -72.45 196.7 -60.65 197.0 -48.85 197.25 -34.35 189.3 L-30.0 186.4 -29.2 185.75 Q-15.75 177.5 -8.25 159.5 -0.8 141.5 -7.1 125.25 L-6.35 124.8 M-53.1 171.25 L-52.1 171.25 -52.1 170.25 -52.1 171.25 -53.1 171.25" fill="url(#gradient1)" fill-rule="evenodd" stroke="none"/>
    <path d="M-228.4 -58.25 L-227.85 -58.55 Q-203.0 -73.25 -159.15 -76.15 -105.9 -79.75 -71.15 -69.4 -36.4 -59.05 -13.9 -47.8 8.6 -36.6 30.95 -9.5 53.3 17.6 62.9 33.5 72.45 49.35 93.75 78.6 99.6 86.7 105.95 93.75 110.8 99.1 115.9 103.9 123.6 111.1 131.9 116.85 L141.8 123.1 168.75 138.55 185.8 148.3 189.95 152.1 Q206.55 168.7 206.55 192.15 206.55 215.65 189.95 232.25 173.35 248.85 149.85 248.85 L142.65 248.5 135.75 247.25 135.05 247.05 131.9 246.05 128.65 244.95 Q122.1 242.65 115.9 239.8 110.8 237.5 105.95 234.8 87.25 224.5 71.85 209.0 35.25 172.05 23.2 147.7 11.15 123.3 4.5 94.75 -2.2 66.2 -17.6 49.05 -33.05 31.85 -52.35 23.45 -71.65 15.05 -89.0 8.7 -106.4 2.3 -131.2 -1.7 -156.0 -5.7 -173.15 -4.55 -190.35 -3.45 -197.55 1.9 -204.8 7.25 -200.7 16.6 -196.65 25.95 -185.4 37.75 -180.1 43.35 -171.7 49.05 L-173.5 51.7 Q-185.4 45.1 -195.0 38.05 -204.65 31.0 -212.7 20.45 -223.0 6.9 -230.7 -8.1 -234.35 -15.3 -236.75 -23.15 -242.9 -43.3 -228.4 -58.25" fill="url(#gradient2)" fill-rule="evenodd" stroke="none"/>
    <path d="M-266.65 -9.0 Q-265.3 -14.65 -262.9 -20.15 -257.35 -32.75 -247.5 -42.65 -238.65 -51.5 -228.4 -58.25 L-227.85 -58.55 Q-203.0 -73.25 -159.15 -76.15 -105.9 -79.75 -71.15 -69.4 -36.4 -59.05 -13.9 -47.8 8.6 -36.6 30.95 -9.5 53.3 17.6 62.9 33.5 72.45 49.35 93.75 78.6 99.6 86.7 105.95 93.75 110.8 99.1 115.9 103.9 123.6 111.1 131.9 116.85 L141.8 123.1 168.75 138.55 Q177.95 141.7 185.8 148.3 L189.95 152.1 Q206.55 168.7 206.55 192.15 206.55 215.65 189.95 232.25 173.35 248.85 149.85 248.85 L142.65 248.5 135.75 247.25 135.05 247.05 Q131.75 246.2 128.65 244.95 122.1 242.65 115.9 239.8 110.8 237.5 105.95 234.8 87.25 224.5 71.85 209.0 35.25 172.05 23.2 147.7 11.15 123.3 4.5 94.75 -2.2 66.2 -17.6 49.05 -33.05 31.85 -52.35 23.45 -71.65 15.05 -89.0 8.7 -106.4 2.3 -131.2 -1.7 -156.0 -5.7 -173.15 -4.55 -190.35 -3.45 -197.55 1.9 -204.8 7.25 -200.7 16.6 -196.65 25.95 -185.4 37.75 -180.1 43.35 -171.7 49.05 -162.5 55.35 -149.6 61.8 L-146.3 63.4 -145.8 63.65 Q-123.0 74.55 -98.6 80.5 L-78.15 85.6 M-62.55 89.6 L-57.35 90.95 Q-42.55 94.95 -31.85 100.9 -21.15 106.85 -14.1 114.8 -10.1 119.3 -6.35 124.8 -2.8 130.1 0.55 136.3 7.25 148.95 5.7 171.6 4.15 194.25 -12.7 205.65 -29.6 217.05 -54.45 216.8 -79.3 216.55 -97.1 201.5 -114.95 186.45 -108.4 172.3 -101.8 158.2 -86.25 154.95 -70.65 151.7 -59.0 162.1 -47.35 172.45 -53.1 171.25 L-64.1 167.25 Q-76.65 164.85 -81.55 167.05 -86.45 169.25 -89.25 171.55 -92.1 173.85 -90.65 181.15 -89.25 188.4 -80.85 192.55 -72.45 196.7 -60.65 197.0 -48.85 197.25 -34.35 189.3 L-30.0 186.4 -29.2 185.75 Q-25.7 182.8 -23.9 178.75 -17.4 163.95 -24.8 149.3 -25.8 147.3 -27.05 145.5 M-40.3 135.35 Q-55.45 129.15 -71.85 127.7 L-108.35 124.15 -123.45 122.45 M-141.9 118.8 L-146.7 117.5 Q-166.0 112.2 -183.55 102.6 -198.35 94.45 -211.3 83.8 M-228.1 69.2 L-243.7 55.1 Q-258.4 41.6 -265.65 23.1 -267.2 19.1 -267.8 14.9 -269.1 5.45 -267.7 -3.6 M-52.1 170.25 L-52.1 171.25 -53.1 171.25 M128.65 244.95 L131.9 246.05 135.05 247.05" fill="none" stroke="#333333" stroke-linecap="round" stroke-linejoin="round" stroke-width="0.05"/>
  </g>
  <defs>
    <linearGradient gradientTransform="matrix(0.2934, 0.0773, -0.0395, 0.1497, -12.1, 77.2)" gradientUnits="userSpaceOnUse" id="gradient0" spreadMethod="pad" x1="-819.2" x2="819.2">
      <stop offset="0.2901960784313726" stop-color="#970198"/>
      <stop offset="0.6274509803921569" stop-color="#db02db"/>
    </linearGradient>
    <linearGradient gradientTransform="matrix(-0.0673, 0.0297, -0.0192, -0.0434, -46.35, 179.0)" gradientUnits="userSpaceOnUse" id="gradient1" spreadMethod="pad" x1="-819.2" x2="819.2">
      <stop offset="0.2901960784313726" stop-color="#970198"/>
      <stop offset="0.6274509803921569" stop-color="#db02db"/>
    </linearGradient>
    <linearGradient gradientTransform="matrix(0.2934, 0.0773, -0.0395, 0.1497, -12.1, 77.2)" gradientUnits="userSpaceOnUse" id="gradient2" spreadMethod="pad" x1="-819.2" x2="819.2">
      <stop offset="0.2901960784313726" stop-color="#5b015c"/>
      <stop offset="0.6274509803921569" stop-color="#db02db"/>
    </linearGradient>
  </defs>
</svg>
