<?xml version="1.0" encoding="UTF-8" standalone="no"?>
<svg xmlns:ffdec="https://www.free-decompiler.com/flash" xmlns:xlink="http://www.w3.org/1999/xlink" ffdec:objectType="shape" height="497.6px" width="418.45px" xmlns="http://www.w3.org/2000/svg">
  <g transform="matrix(1.0, 0.0, 0.0, 1.0, 223.85, -137.4)">
    <path d="M58.4 548.65 Q56.55 550.6 53.9 552.4 L53.35 552.75 52.9 553.0 Q47.15 556.45 40.95 557.0 36.05 557.4 33.0 555.8 L31.25 554.55 Q28.05 551.6 30.0 546.9 31.9 542.15 37.8 538.45 43.7 534.7 50.2 534.2 56.65 533.65 59.85 536.6 63.05 539.55 61.15 544.3 60.2 546.55 58.4 548.65 M-55.05 532.7 Q-60.25 534.25 -66.1 532.85 L-66.8 532.65 -67.3 532.5 Q-74.1 530.55 -77.95 525.6 L-79.2 523.85 Q-81.8 519.6 -80.6 515.2 -79.2 509.95 -73.1 507.55 -67.1 505.15 -59.9 507.1 -52.8 509.0 -48.7 514.15 -44.7 519.2 -46.1 524.5 -47.5 529.75 -53.55 532.15 L-55.05 532.7 M-188.0 548.65 Q-186.55 553.5 -187.7 559.15 L-187.85 559.8 -188.0 560.3 Q-189.4 565.6 -192.6 569.25 L-192.85 569.55 -194.45 571.1 Q-199.4 575.35 -204.55 574.3 -209.75 573.2 -212.2 567.35 -214.7 561.55 -212.95 554.45 -211.3 547.35 -206.4 543.1 -201.5 538.9 -196.3 540.0 -191.15 541.05 -188.65 546.85 L-188.0 548.65 M86.3 484.4 Q90.8 486.8 91.2 492.85 91.6 498.85 87.65 505.0 83.7 511.1 77.7 513.7 71.75 516.3 67.25 513.9 62.75 511.45 62.35 505.45 61.95 499.65 65.5 493.85 L65.9 493.3 66.2 492.85 Q70.05 487.1 75.8 484.6 81.8 481.95 86.3 484.4 M76.3 494.05 Q74.25 495.0 72.9 497.15 71.55 499.25 71.6 501.35 71.65 503.35 73.1 504.15 L76.55 504.0 Q78.55 503.0 79.9 500.9 81.25 498.8 81.2 496.75 81.15 494.65 79.75 493.9 L76.3 494.05 M43.35 543.45 Q41.3 544.75 40.6 546.35 39.85 547.9 40.9 548.9 41.9 549.85 44.1 549.6 46.3 549.35 48.35 548.05 50.4 546.75 51.15 545.2 51.85 543.6 50.8 542.65 49.75 541.7 47.6 541.95 45.4 542.15 43.35 543.45 M0.4 515.3 L-4.2 515.45 Q-6.3 516.25 -6.7 518.0 -7.1 519.7 -5.6 521.35 -4.15 522.95 -1.6 523.6 L2.95 523.4 Q5.0 522.6 5.45 520.9 5.85 519.2 4.4 517.55 2.9 515.9 0.4 515.3 M-126.4 494.4 Q-130.4 489.2 -128.9 484.0 -127.4 478.8 -121.35 476.7 -115.35 474.55 -108.25 476.75 -101.2 478.95 -97.25 484.15 -93.3 489.35 -94.75 494.55 -96.25 499.7 -102.25 501.85 -108.05 503.9 -114.75 502.05 L-115.4 501.85 -115.9 501.65 Q-122.6 499.45 -126.4 494.4 M3.0 507.05 Q9.85 508.85 13.85 513.7 18.05 518.7 16.8 524.05 15.5 529.35 9.5 531.9 3.45 534.45 -3.75 532.7 -10.95 531.0 -15.15 526.0 -19.35 520.95 -18.05 515.65 -16.8 510.3 -10.8 507.75 -5.05 505.3 1.8 506.75 L2.45 506.9 3.0 507.05 M-113.0 493.7 L-108.45 493.8 Q-106.4 493.15 -105.9 491.5 -105.45 489.8 -106.85 488.1 -108.3 486.4 -110.7 485.65 L-115.2 485.5 Q-117.3 486.15 -117.75 487.85 -118.25 489.5 -116.85 491.2 -115.5 492.9 -113.0 493.7 M-158.5 497.85 Q-156.35 502.25 -159.05 507.5 -161.75 512.65 -167.75 515.6 -173.7 518.5 -179.5 517.45 -185.25 516.35 -187.4 511.95 -189.6 507.55 -186.9 502.35 -184.3 497.35 -178.75 494.45 L-178.2 494.2 -177.75 494.0 Q-172.0 491.3 -166.45 492.35 -160.65 493.4 -158.5 497.85 M-196.1 621.25 L-201.35 621.1 Q-206.0 619.55 -209.6 614.45 -213.2 609.35 -213.7 603.65 -213.9 601.45 -213.55 599.7 -213.05 596.8 -211.2 595.0 -208.3 592.05 -203.65 593.6 -199.2 595.05 -195.7 599.8 L-195.35 600.25 -195.1 600.65 Q-191.75 605.55 -191.3 611.05 -190.8 616.75 -193.75 619.7 -194.8 620.75 -196.1 621.25 M-69.35 518.65 Q-69.85 520.3 -68.4 522.0 -67.0 523.7 -64.5 524.35 -62.0 525.05 -59.9 524.3 -57.85 523.55 -57.4 521.85 -56.95 520.15 -58.35 518.5 -59.8 516.8 -62.25 516.15 -64.75 515.45 -66.8 516.2 -68.9 516.95 -69.35 518.65 M-168.15 502.2 Q-168.85 500.75 -170.8 500.45 -172.8 500.15 -174.85 501.15 -176.95 502.2 -177.95 503.95 -178.9 505.65 -178.2 507.05 -177.5 508.5 -175.55 508.8 -173.6 509.05 -171.5 508.05 -169.4 507.05 -168.45 505.3 -167.45 503.6 -168.15 502.2 M-203.9 560.75 Q-203.15 562.7 -201.5 563.1 -199.85 563.45 -198.2 561.95 -196.6 560.45 -196.0 558.0 -195.45 555.5 -196.2 553.5 -196.95 551.5 -198.6 551.2 -200.3 550.85 -201.9 552.35 -203.5 553.8 -204.1 556.3 -204.7 558.75 -203.9 560.75 M-198.55 608.55 Q-198.75 606.6 -200.0 604.8 -201.3 603.0 -202.85 602.45 -204.4 601.85 -205.35 602.8 -206.3 603.75 -206.05 605.7 -205.85 607.6 -204.6 609.4 -203.35 611.15 -201.8 611.75 -200.25 612.3 -199.3 611.4 -198.35 610.45 -198.55 608.55" fill="#c002c1" fill-rule="evenodd" stroke="none"/>
    <path d="M76.3 494.05 L79.75 493.9 Q81.15 494.65 81.2 496.75 81.25 498.8 79.9 500.9 78.55 503.0 76.55 504.0 L73.1 504.15 Q71.65 503.35 71.6 501.35 71.55 499.25 72.9 497.15 74.25 495.0 76.3 494.05 M0.4 515.3 Q2.9 515.9 4.4 517.55 5.85 519.2 5.45 520.9 5.0 522.6 2.95 523.4 L-1.6 523.6 Q-4.15 522.95 -5.6 521.35 -7.1 519.7 -6.7 518.0 -6.3 516.25 -4.2 515.45 L0.4 515.3 M43.35 543.45 Q45.4 542.15 47.6 541.95 49.75 541.7 50.8 542.65 51.85 543.6 51.15 545.2 50.4 546.75 48.35 548.05 46.3 549.35 44.1 549.6 41.9 549.85 40.9 548.9 39.85 547.9 40.6 546.35 41.3 544.75 43.35 543.45 M-113.0 493.7 Q-115.5 492.9 -116.85 491.2 -118.25 489.5 -117.75 487.85 -117.3 486.15 -115.2 485.5 L-110.7 485.65 Q-108.3 486.4 -106.85 488.1 -105.45 489.8 -105.9 491.5 -106.4 493.15 -108.45 493.8 L-113.0 493.7 M-168.15 502.2 Q-167.45 503.6 -168.45 505.3 -169.4 507.05 -171.5 508.05 -173.6 509.05 -175.55 508.8 -177.5 508.5 -178.2 507.05 -178.9 505.65 -177.95 503.95 -176.95 502.2 -174.85 501.15 -172.8 500.15 -170.8 500.45 -168.85 500.75 -168.15 502.2 M-69.35 518.65 Q-68.9 516.95 -66.8 516.2 -64.75 515.45 -62.25 516.15 -59.8 516.8 -58.35 518.5 -56.95 520.15 -57.4 521.85 -57.85 523.55 -59.9 524.3 -62.0 525.05 -64.5 524.35 -67.0 523.7 -68.4 522.0 -69.85 520.3 -69.35 518.65 M-203.9 560.75 Q-204.7 558.75 -204.1 556.3 -203.5 553.8 -201.9 552.35 -200.3 550.85 -198.6 551.2 -196.95 551.5 -196.2 553.5 -195.45 555.5 -196.0 558.0 -196.6 560.45 -198.2 561.95 -199.85 563.45 -201.5 563.1 -203.15 562.7 -203.9 560.75 M-198.55 608.55 Q-198.35 610.45 -199.3 611.4 -200.25 612.3 -201.8 611.75 -203.35 611.15 -204.6 609.4 -205.85 607.6 -206.05 605.7 -206.3 603.75 -205.35 602.8 -204.4 601.85 -202.85 602.45 -201.3 603.0 -200.0 604.8 -198.75 606.6 -198.55 608.55" fill="#540154" fill-rule="evenodd" stroke="none"/>
    <path d="M96.85 441.95 Q96.7 457.3 95.65 472.7 94.75 485.15 93.1 495.4 91.45 521.45 73.1 538.8 69.85 541.9 66.05 544.3 L61.1 547.25 58.4 548.65 Q60.2 546.55 61.15 544.3 63.05 539.55 59.85 536.6 56.65 533.65 50.2 534.2 43.7 534.7 37.8 538.45 31.9 542.15 30.0 546.9 28.05 551.6 31.25 554.55 L33.0 555.8 Q25.05 556.5 16.75 555.5 -8.95 552.45 -32.7 541.05 L-55.05 532.7 -53.55 532.15 Q-47.5 529.75 -46.1 524.5 -44.7 519.2 -48.7 514.15 -52.8 509.0 -59.9 507.1 -67.1 505.15 -73.1 507.55 -79.2 509.95 -80.6 515.2 -81.8 519.6 -79.2 523.85 -95.95 518.1 -113.45 515.0 L-127.15 514.45 Q-157.65 517.6 -180.8 538.75 -185.2 543.3 -188.0 548.65 L-188.65 546.85 Q-191.15 541.05 -196.3 540.0 -201.5 538.9 -206.4 543.1 -211.3 547.35 -212.95 554.45 -214.7 561.55 -212.2 567.35 -209.75 573.2 -204.55 574.3 -199.4 575.35 -194.45 571.1 L-192.85 569.55 -192.85 569.75 -192.8 573.0 Q-192.6 579.2 -191.65 584.55 L-191.35 588.8 Q-189.35 621.0 -159.9 635.0 -178.65 632.15 -194.6 622.15 L-195.95 621.35 -196.1 621.25 Q-194.8 620.75 -193.75 619.7 -190.8 616.75 -191.3 611.05 -191.75 605.55 -195.1 600.65 L-195.35 600.25 -195.7 599.8 Q-199.2 595.05 -203.65 593.6 -208.3 592.05 -211.2 595.0 -213.05 596.8 -213.55 599.7 -221.25 585.95 -223.4 569.35 -224.3 562.6 -223.35 556.1 -219.05 526.55 -196.8 505.4 L-192.55 501.45 -192.55 501.4 Q-161.2 474.65 -120.0 473.95 -94.45 473.55 -70.85 482.45 L-15.55 497.9 Q15.65 505.7 46.5 496.35 87.65 483.85 96.85 441.95 M86.3 484.4 Q81.8 481.95 75.8 484.6 70.05 487.1 66.2 492.85 L65.9 493.3 65.5 493.85 Q61.95 499.65 62.35 505.45 62.75 511.45 67.25 513.9 71.75 516.3 77.7 513.7 83.7 511.1 87.65 505.0 91.6 498.85 91.2 492.85 90.8 486.8 86.3 484.4 M3.0 507.05 L2.45 506.9 1.8 506.75 Q-5.05 505.3 -10.8 507.75 -16.8 510.3 -18.05 515.65 -19.35 520.95 -15.15 526.0 -10.95 531.0 -3.75 532.7 3.45 534.45 9.5 531.9 15.5 529.35 16.8 524.05 18.05 518.7 13.85 513.7 9.85 508.85 3.0 507.05 M-126.4 494.4 Q-122.6 499.45 -115.9 501.65 L-115.4 501.85 -114.75 502.05 Q-108.05 503.9 -102.25 501.85 -96.25 499.7 -94.75 494.55 -93.3 489.35 -97.25 484.15 -101.2 478.95 -108.25 476.75 -115.35 474.55 -121.35 476.7 -127.4 478.8 -128.9 484.0 -130.4 489.2 -126.4 494.4 M-158.5 497.85 Q-160.65 493.4 -166.45 492.35 -172.0 491.3 -177.75 494.0 L-178.2 494.2 -178.75 494.45 Q-184.3 497.35 -186.9 502.35 -189.6 507.55 -187.4 511.95 -185.25 516.35 -179.5 517.45 -173.7 518.5 -167.75 515.6 -161.75 512.65 -159.05 507.5 -156.35 502.25 -158.5 497.85" fill="#ff00fc" fill-rule="evenodd" stroke="none"/>
    <path d="M149.1 138.4 L144.25 137.7 146.35 137.4 149.1 138.4" fill="url(#gradient0)" fill-rule="evenodd" stroke="none"/>
    <path d="M-191.65 584.55 L-190.75 588.7 -190.75 588.75 Q-188.0 599.5 -181.8 606.35 L-180.9 607.3 Q-169.05 619.35 -142.95 616.1 -116.9 612.85 -112.85 561.35 L-112.2 561.15 -112.2 561.2 Q-84.8 634.6 -158.85 635.0 L-159.9 635.0 Q-189.35 621.0 -191.35 588.8 L-191.65 584.55" fill="url(#gradient1)" fill-rule="evenodd" stroke="none"/>
    <path d="M149.1 138.4 Q165.45 141.45 177.95 153.95 L179.75 155.8 Q194.55 171.85 194.55 194.05 194.55 217.5 177.95 234.15 L174.35 237.45 Q165.95 240.8 156.5 245.15 151.5 247.4 146.85 250.1 130.15 259.8 117.1 275.25 112.05 281.25 107.95 287.45 86.5 320.0 91.2 358.95 93.75 380.2 95.45 401.45 96.95 421.55 96.85 441.6 L96.85 441.95 Q87.65 483.85 46.5 496.35 15.65 505.7 -15.55 497.9 -4.75 497.0 6.05 491.8 7.6 491.1 9.1 490.35 46.05 469.7 34.0 410.5 24.55 364.0 16.5 317.35 -1.05 215.65 90.9 155.6 96.15 153.0 101.3 150.7 123.8 140.75 144.25 137.7 L149.1 138.4" fill="url(#gradient2)" fill-rule="evenodd" stroke="none"/>
    <path d="M149.1 138.4 Q165.45 141.45 177.95 153.95 L179.75 155.8 Q194.55 171.85 194.55 194.05 194.55 217.5 177.95 234.15 L174.35 237.45 Q165.95 240.8 156.5 245.15 151.5 247.4 146.85 250.1 130.15 259.8 117.1 275.25 112.05 281.25 107.95 287.45 86.5 320.0 91.2 358.95 93.75 380.2 95.45 401.45 96.95 421.55 96.85 441.6 L96.85 441.95 Q96.7 457.3 95.65 472.7 94.75 485.15 93.1 495.4 91.45 521.45 73.1 538.8 69.85 541.9 66.05 544.3 L61.1 547.25 58.4 548.65 M33.0 555.8 Q25.05 556.5 16.75 555.5 -8.95 552.45 -32.7 541.05 L-55.05 532.7 M-79.2 523.85 Q-95.95 518.1 -113.45 515.0 L-127.15 514.45 Q-157.65 517.6 -180.8 538.75 -185.2 543.3 -188.0 548.65 M-192.6 569.25 Q-192.3 577.6 -191.65 584.55 L-190.75 588.7 -190.75 588.75 Q-188.0 599.5 -181.8 606.35 L-180.9 607.3 Q-169.05 619.35 -142.95 616.1 -116.9 612.85 -112.85 561.35 M-112.2 561.15 L-112.9 559.35 M144.25 137.7 L149.1 138.4 M144.25 137.7 Q123.8 140.75 101.3 150.7 96.15 153.0 90.9 155.6 -1.05 215.65 16.5 317.35 24.55 364.0 34.0 410.5 46.05 469.7 9.1 490.35 7.6 491.1 6.05 491.8 -4.75 497.0 -15.55 497.9 L-70.85 482.45 Q-94.45 473.55 -120.0 473.95 -161.2 474.65 -192.55 501.4 L-192.55 501.45 -192.8 501.65 -194.9 503.55 -196.8 505.4 Q-219.05 526.55 -223.35 556.1 -224.3 562.6 -223.4 569.35 -221.25 585.95 -213.55 599.7 M194.25 231.35 L194.6 230.35 M-112.2 561.15 L-112.2 561.2 Q-84.8 634.6 -158.85 635.0 L-159.9 635.0 Q-178.65 632.15 -194.6 622.15 L-195.95 621.35 -196.1 621.25 M-191.65 584.55 Q-192.6 579.2 -192.8 573.0 L-192.85 569.75 -192.85 569.55" fill="none" stroke="#333333" stroke-linecap="round" stroke-linejoin="round" stroke-width="0.05"/>
  </g>
  <defs>
    <linearGradient gradientTransform="matrix(0.108, -0.2161, -0.0886, -0.0443, 67.1, 299.0)" gradientUnits="userSpaceOnUse" id="gradient0" spreadMethod="pad" x1="-819.2" x2="819.2">
      <stop offset="0.2901960784313726" stop-color="#970198"/>
      <stop offset="0.6274509803921569" stop-color="#db02db"/>
    </linearGradient>
    <linearGradient gradientTransform="matrix(0.0453, -0.0301, -0.0251, -0.0378, -142.3, 596.4)" gradientUnits="userSpaceOnUse" id="gradient1" spreadMethod="pad" x1="-819.2" x2="819.2">
      <stop offset="0.2901960784313726" stop-color="#970198"/>
      <stop offset="0.6274509803921569" stop-color="#db02db"/>
    </linearGradient>
    <linearGradient gradientTransform="matrix(0.108, -0.2161, -0.0886, -0.0443, 67.1, 299.0)" gradientUnits="userSpaceOnUse" id="gradient2" spreadMethod="pad" x1="-819.2" x2="819.2">
      <stop offset="0.2901960784313726" stop-color="#5b015c"/>
      <stop offset="0.6274509803921569" stop-color="#db02db"/>
    </linearGradient>
  </defs>
</svg>
