<?xml version="1.0" encoding="UTF-8" standalone="no"?>
<svg xmlns:ffdec="https://www.free-decompiler.com/flash" xmlns:xlink="http://www.w3.org/1999/xlink" ffdec:objectType="shape" height="325.95px" width="475.0px" xmlns="http://www.w3.org/2000/svg">
  <g transform="matrix(1.0, 0.0, 0.0, 1.0, 269.75, -140.0)">
    <path d="M-54.4 217.6 Q-48.65 216.4 -60.3 226.8 -71.95 237.15 -87.55 233.9 -103.1 230.65 -109.7 216.55 -116.25 202.4 -98.4 187.35 -80.6 172.3 -55.75 172.05 -30.9 171.8 -14.0 183.2 2.85 194.6 4.4 217.25 5.95 239.9 -0.75 252.55 -4.1 258.75 -7.65 264.1 L-8.4 263.6 Q-2.1 247.35 -9.55 229.35 -17.05 211.35 -30.5 203.15 L-31.3 202.5 Q-33.25 200.9 -35.65 199.6 -50.15 191.6 -61.95 191.9 -73.75 192.15 -82.15 196.3 -90.55 200.45 -91.95 207.75 -93.4 215.0 -90.55 217.3 -87.75 219.6 -82.85 221.8 -77.95 224.0 -65.4 221.6 L-54.4 217.6 -53.4 217.6 -53.4 218.6 -53.4 217.6 -54.4 217.6" fill="url(#gradient0)" fill-rule="evenodd" stroke="none"/>
    <path d="M-63.85 299.3 Q-66.65 301.2 -70.25 302.3 -75.05 303.8 -79.45 303.3 L-83.5 302.35 Q-89.7 300.2 -91.3 294.95 -92.95 289.7 -89.1 284.45 -85.4 279.35 -78.75 277.1 L-78.1 276.9 -77.6 276.75 Q-70.8 274.8 -64.85 276.9 -58.65 279.05 -57.0 284.3 -55.4 289.55 -59.25 294.85 -61.2 297.45 -63.85 299.3 M-269.0 392.45 Q-269.25 387.75 -266.8 384.4 -263.8 380.3 -258.6 380.6 -253.4 380.85 -248.95 385.35 -244.6 389.85 -243.6 395.95 -242.6 402.0 -245.6 406.1 -248.6 410.2 -253.8 409.9 -259.0 409.6 -263.4 405.15 -266.55 401.9 -267.95 397.9 L-268.7 395.15 -268.8 394.6 -268.85 394.15 -269.0 392.45 M-229.4 319.7 Q-228.45 314.95 -224.4 310.9 L-224.0 310.5 -223.65 310.2 Q-219.2 306.15 -213.85 305.25 L-212.6 305.05 Q-207.9 304.6 -204.95 307.25 -201.7 310.2 -202.6 315.4 -203.5 320.55 -208.1 324.9 -212.65 329.25 -218.25 330.25 -223.8 331.15 -227.1 328.2 -230.4 325.2 -229.5 320.05 L-229.4 319.7 M-143.2 270.1 Q-140.75 268.3 -137.55 267.2 L-136.9 267.0 -136.4 266.8 Q-130.25 264.9 -124.75 266.4 L-123.65 266.75 Q-117.4 268.8 -115.7 274.0 -114.0 279.2 -117.75 284.6 -121.55 289.9 -128.6 292.25 -135.65 294.55 -141.9 292.5 -148.1 290.45 -149.8 285.25 -151.55 280.0 -147.75 274.7 -145.9 272.0 -143.2 270.1 M-41.6 253.5 Q-39.3 249.05 -34.85 246.15 L-34.3 245.85 -33.9 245.6 Q-31.15 243.95 -28.35 243.35 L-22.85 243.2 Q-17.15 244.1 -14.8 248.95 -12.5 253.8 -14.95 259.75 -17.4 265.65 -23.15 269.2 -28.9 272.75 -34.6 271.85 -40.3 270.95 -42.6 266.1 -44.9 261.25 -42.5 255.35 L-41.6 253.5 M-260.6 395.05 Q-260.25 397.15 -258.8 398.75 -257.4 400.3 -255.7 400.4 -254.05 400.45 -253.1 399.05 -252.15 397.6 -252.5 395.5 -252.85 393.4 -254.25 391.85 -255.7 390.3 -257.35 390.2 -259.05 390.1 -260.0 391.55 -260.95 392.95 -260.6 395.05 M-180.2 303.3 L-179.6 303.0 -179.1 302.75 Q-172.8 299.45 -166.55 300.35 -160.05 301.25 -157.45 306.1 -154.8 310.95 -157.6 316.9 -160.35 322.8 -166.9 326.35 -173.4 329.9 -179.9 329.0 -186.4 328.1 -189.0 323.25 -191.65 318.4 -188.9 312.5 -186.25 306.8 -180.2 303.3 M-178.8 313.85 Q-179.8 315.8 -178.95 317.35 -178.15 318.9 -175.9 319.15 -173.7 319.35 -171.45 318.15 -169.2 316.9 -168.15 314.95 -167.15 312.95 -168.0 311.4 -168.85 309.85 -171.05 309.6 -173.25 309.35 -175.5 310.6 -177.8 311.85 -178.8 313.85 M-215.4 313.35 Q-217.3 313.7 -218.85 315.25 -220.45 316.75 -220.85 318.5 -221.2 320.25 -220.15 321.2 -219.1 322.15 -217.2 321.75 -215.35 321.35 -213.75 319.9 -212.15 318.35 -211.8 316.65 -211.4 314.9 -212.45 313.95 -213.55 312.95 -215.4 313.35 M-219.85 341.15 Q-213.35 340.5 -209.65 344.6 -205.95 348.6 -207.25 355.05 -208.5 361.45 -214.0 366.5 -219.5 371.5 -226.0 372.15 -232.5 372.8 -236.2 368.75 -239.9 364.65 -238.65 358.3 -237.45 352.1 -232.4 347.3 L-231.9 346.8 -231.5 346.45 Q-226.15 341.75 -219.85 341.15 M-217.95 355.7 Q-217.45 353.5 -218.6 352.25 -219.8 350.9 -222.0 351.2 -224.2 351.5 -226.1 353.25 -228.05 355.0 -228.55 357.15 -229.05 359.3 -227.85 360.6 -226.65 361.9 -224.45 361.6 -222.3 361.3 -220.35 359.6 -218.45 357.85 -217.95 355.7 M-80.3 291.15 Q-79.8 292.8 -77.65 293.45 L-73.1 293.35 Q-70.65 292.6 -69.25 290.85 -67.85 289.1 -68.4 287.45 -68.95 285.75 -71.05 285.1 L-75.6 285.2 Q-78.1 285.95 -79.45 287.7 -80.85 289.45 -80.3 291.15 M-24.1 254.25 Q-24.85 252.7 -26.8 252.45 -28.75 252.2 -30.7 253.45 -32.75 254.7 -33.65 256.7 -34.5 258.65 -33.75 260.2 -33.05 261.75 -31.1 262.0 -29.15 262.2 -27.15 261.0 -25.15 259.75 -24.25 257.8 -23.35 255.8 -24.1 254.25 M-127.0 277.35 Q-127.55 275.65 -129.7 275.0 L-134.25 275.2 Q-136.75 276.0 -138.1 277.8 -139.45 279.55 -138.85 281.2 -138.3 282.9 -136.2 283.5 L-131.6 283.35 Q-129.15 282.5 -127.8 280.75 -126.45 279.0 -127.0 277.35" fill="#c002c1" fill-rule="evenodd" stroke="none"/>
    <path d="M-174.4 337.0 L-174.8 337.2 Q-186.7 343.75 -196.3 350.8 -205.95 357.85 -214.0 368.4 -224.3 381.95 -232.0 396.95 -235.65 404.15 -238.05 412.0 -244.2 432.15 -229.7 447.1 -239.95 440.35 -248.8 431.5 -258.65 421.6 -264.2 409.0 -266.6 403.5 -267.95 397.9 -266.55 401.9 -263.4 405.15 -259.0 409.6 -253.8 409.9 -248.6 410.2 -245.6 406.1 -242.6 402.0 -243.6 395.95 -244.6 389.85 -248.95 385.35 -253.4 380.85 -258.6 380.6 -263.8 380.3 -266.8 384.4 -269.25 387.75 -269.0 392.45 -270.4 383.4 -269.1 373.95 -268.5 369.75 -266.95 365.75 -259.7 347.25 -245.0 333.75 L-229.4 319.7 -229.5 320.05 Q-230.4 325.2 -227.1 328.2 -223.8 331.15 -218.25 330.25 -212.65 329.25 -208.1 324.9 -203.5 320.55 -202.6 315.4 -201.7 310.2 -204.95 307.25 -207.9 304.6 -212.6 305.05 -199.65 294.4 -184.85 286.25 -167.3 276.65 -148.0 271.35 L-143.2 270.1 Q-145.9 272.0 -147.75 274.7 -151.55 280.0 -149.8 285.25 -148.1 290.45 -141.9 292.5 -135.65 294.55 -128.6 292.25 -121.55 289.9 -117.75 284.6 -114.0 279.2 -115.7 274.0 -117.4 268.8 -123.65 266.75 L-124.75 266.4 -109.65 264.7 -73.15 261.15 Q-56.75 259.7 -41.6 253.5 L-42.5 255.35 Q-44.9 261.25 -42.6 266.1 -40.3 270.95 -34.6 271.85 -28.9 272.75 -23.15 269.2 -17.4 265.65 -14.95 259.75 -12.5 253.8 -14.8 248.95 -17.15 244.1 -22.85 243.2 L-28.35 243.35 Q-27.1 241.55 -26.1 239.55 -18.7 224.9 -25.2 210.1 -27.0 206.05 -30.5 203.15 -17.05 211.35 -9.55 229.35 -2.1 247.35 -8.4 263.6 L-7.65 264.1 Q-11.4 269.55 -15.4 274.05 -22.45 282.0 -33.15 287.95 -43.85 293.9 -58.65 297.9 L-63.85 299.3 Q-61.2 297.45 -59.25 294.85 -55.4 289.55 -57.0 284.3 -58.65 279.05 -64.85 276.9 -70.8 274.8 -77.6 276.75 L-78.1 276.9 -78.75 277.1 Q-85.4 279.35 -89.1 284.45 -92.95 289.7 -91.3 294.95 -89.7 300.2 -83.5 302.35 L-79.45 303.3 -99.9 308.35 Q-124.3 314.3 -147.1 325.2 L-147.6 325.45 -151.1 326.7 Q-164.05 331.3 -174.4 337.0 M-180.2 303.3 Q-186.25 306.8 -188.9 312.5 -191.65 318.4 -189.0 323.25 -186.4 328.1 -179.9 329.0 -173.4 329.9 -166.9 326.35 -160.35 322.8 -157.6 316.9 -154.8 310.95 -157.45 306.1 -160.05 301.25 -166.55 300.35 -172.8 299.45 -179.1 302.75 L-179.6 303.0 -180.2 303.3 M-219.85 341.15 Q-226.15 341.75 -231.5 346.45 L-231.9 346.8 -232.4 347.3 Q-237.45 352.1 -238.65 358.3 -239.9 364.65 -236.2 368.75 -232.5 372.8 -226.0 372.15 -219.5 371.5 -214.0 366.5 -208.5 361.45 -207.25 355.05 -205.95 348.6 -209.65 344.6 -213.35 340.5 -219.85 341.15" fill="#ff00fc" fill-rule="evenodd" stroke="none"/>
    <path d="M-260.6 395.05 Q-260.95 392.95 -260.0 391.55 -259.05 390.1 -257.35 390.2 -255.7 390.3 -254.25 391.85 -252.85 393.4 -252.5 395.5 -252.15 397.6 -253.1 399.05 -254.05 400.45 -255.7 400.4 -257.4 400.3 -258.8 398.75 -260.25 397.15 -260.6 395.05 M-178.8 313.85 Q-177.8 311.85 -175.5 310.6 -173.25 309.35 -171.05 309.6 -168.85 309.85 -168.0 311.4 -167.15 312.95 -168.15 314.95 -169.2 316.9 -171.45 318.15 -173.7 319.35 -175.9 319.15 -178.15 318.9 -178.95 317.35 -179.8 315.8 -178.8 313.85 M-215.4 313.35 Q-213.55 312.95 -212.45 313.95 -211.4 314.9 -211.8 316.65 -212.15 318.35 -213.75 319.9 -215.35 321.35 -217.2 321.75 -219.1 322.15 -220.15 321.2 -221.2 320.25 -220.85 318.5 -220.45 316.75 -218.85 315.25 -217.3 313.7 -215.4 313.35 M-217.95 355.7 Q-218.45 357.85 -220.35 359.6 -222.3 361.3 -224.45 361.6 -226.65 361.9 -227.85 360.6 -229.05 359.3 -228.55 357.15 -228.05 355.0 -226.1 353.25 -224.2 351.5 -222.0 351.2 -219.8 350.9 -218.6 352.25 -217.45 353.5 -217.95 355.7 M-24.1 254.25 Q-23.35 255.8 -24.25 257.8 -25.15 259.75 -27.15 261.0 -29.15 262.2 -31.1 262.0 -33.05 261.75 -33.75 260.2 -34.5 258.65 -33.65 256.7 -32.75 254.7 -30.7 253.45 -28.75 252.2 -26.8 252.45 -24.85 252.7 -24.1 254.25 M-80.3 291.15 Q-80.85 289.45 -79.45 287.7 -78.1 285.95 -75.6 285.2 L-71.05 285.1 Q-68.95 285.75 -68.4 287.45 -67.85 289.1 -69.25 290.85 -70.65 292.6 -73.1 293.35 L-77.65 293.45 Q-79.8 292.8 -80.3 291.15 M-127.0 277.35 Q-126.45 279.0 -127.8 280.75 -129.15 282.5 -131.6 283.35 L-136.2 283.5 Q-138.3 282.9 -138.85 281.2 -139.45 279.55 -138.1 277.8 -136.75 276.0 -134.25 275.2 L-129.7 275.0 Q-127.55 275.65 -127.0 277.35" fill="#540154" fill-rule="evenodd" stroke="none"/>
    <path d="M-173.0 339.8 L-174.4 337.0 Q-164.05 331.3 -151.1 326.7 L-150.9 327.1 Q-163.8 333.5 -173.0 339.8" fill="url(#gradient1)" fill-rule="evenodd" stroke="none"/>
    <path d="M-147.6 325.45 L-150.9 327.1 -151.1 326.7 -147.6 325.45" fill="#970198" fill-rule="evenodd" stroke="none"/>
    <path d="M-173.0 339.8 Q-181.4 345.5 -186.7 351.15 -197.95 362.9 -202.0 372.25 -206.1 381.6 -198.85 386.95 -191.65 392.3 -174.45 393.45 -157.3 394.55 -132.5 390.55 -107.7 386.55 -90.3 380.2 -72.95 373.8 -53.65 365.4 -34.35 357.0 -18.9 339.85 -3.5 322.65 3.2 294.1 9.85 265.55 21.9 241.2 33.95 216.8 70.55 179.9 85.95 164.35 104.65 154.05 109.5 151.35 114.6 149.05 120.8 146.2 127.35 143.9 L130.6 142.8 133.75 141.8 134.45 141.65 Q137.8 140.8 141.35 140.4 L148.55 140.0 Q172.05 140.0 188.65 156.6 205.25 173.2 205.25 196.7 205.25 220.15 188.65 236.8 L184.5 240.6 167.45 250.35 140.5 265.75 Q135.45 268.65 130.6 272.0 122.3 277.75 114.6 285.0 109.5 289.75 104.65 295.15 98.3 302.15 92.45 310.3 71.15 339.5 61.6 355.4 52.0 371.25 29.65 398.35 7.3 425.45 -15.2 436.7 -37.7 447.9 -72.45 458.25 -107.2 468.6 -160.45 465.05 -204.3 462.1 -229.15 447.45 L-229.7 447.1 Q-244.2 432.15 -238.05 412.0 -235.65 404.15 -232.0 396.95 -224.3 381.95 -214.0 368.4 -205.95 357.85 -196.3 350.8 -186.7 343.75 -174.8 337.2 L-174.4 337.0 -173.0 339.8" fill="url(#gradient2)" fill-rule="evenodd" stroke="none"/>
    <path d="M184.5 240.6 L188.65 236.8 Q205.25 220.15 205.25 196.7 205.25 173.2 188.65 156.6 172.05 140.0 148.55 140.0 L141.35 140.4 Q137.8 140.8 134.45 141.65 L133.75 141.8 130.6 142.8 127.35 143.9 Q120.8 146.2 114.6 149.05 109.5 151.35 104.65 154.05 85.95 164.35 70.55 179.9 33.95 216.8 21.9 241.2 9.85 265.55 3.2 294.1 -3.5 322.65 -18.9 339.85 -34.35 357.0 -53.65 365.4 -72.95 373.8 -90.3 380.2 -107.7 386.55 -132.5 390.55 -157.3 394.55 -174.45 393.45 -191.65 392.3 -198.85 386.95 -206.1 381.6 -202.0 372.25 -197.95 362.9 -186.7 351.15 -181.4 345.5 -173.0 339.8 -163.8 333.5 -150.9 327.1 L-147.6 325.45 -147.1 325.2 Q-124.3 314.3 -99.9 308.35 L-79.45 303.3 M-229.7 447.1 L-229.15 447.45 Q-204.3 462.1 -160.45 465.05 -107.2 468.6 -72.45 458.25 -37.7 447.9 -15.2 436.7 7.3 425.45 29.65 398.35 52.0 371.25 61.6 355.4 71.15 339.5 92.45 310.3 98.3 302.15 104.65 295.15 109.5 289.75 114.6 285.0 122.3 277.75 130.6 272.0 135.45 268.65 140.5 265.75 L167.45 250.35 Q176.65 247.15 184.5 240.6 M133.75 141.8 Q130.45 142.65 127.35 143.9 M-7.65 264.1 Q-4.1 258.75 -0.75 252.55 5.95 239.9 4.4 217.25 2.85 194.6 -14.0 183.2 -30.9 171.8 -55.75 172.05 -80.6 172.3 -98.4 187.35 -116.25 202.4 -109.7 216.55 -103.1 230.65 -87.55 233.9 -71.95 237.15 -60.3 226.8 -48.65 216.4 -54.4 217.6 L-53.4 217.6 -53.4 218.6 M-54.4 217.6 L-65.4 221.6 Q-77.95 224.0 -82.85 221.8 -87.75 219.6 -90.55 217.3 -93.4 215.0 -91.95 207.75 -90.55 200.45 -82.15 196.3 -73.75 192.15 -61.95 191.9 -50.15 191.6 -35.65 199.6 -33.25 200.9 -31.3 202.5 L-30.5 203.15 Q-27.0 206.05 -25.2 210.1 -18.7 224.9 -26.1 239.55 -27.1 241.55 -28.35 243.35 M-7.65 264.1 Q-11.4 269.55 -15.4 274.05 -22.45 282.0 -33.15 287.95 -43.85 293.9 -58.65 297.9 L-63.85 299.3 M-267.95 397.9 Q-266.6 403.5 -264.2 409.0 -258.65 421.6 -248.8 431.5 -239.95 440.35 -229.7 447.1 M-269.0 392.45 Q-270.4 383.4 -269.1 373.95 -268.5 369.75 -266.95 365.75 -259.7 347.25 -245.0 333.75 L-229.4 319.7 M-212.6 305.05 Q-199.65 294.4 -184.85 286.25 -167.3 276.65 -148.0 271.35 L-143.2 270.1 M-124.75 266.4 L-109.65 264.7 -73.15 261.15 Q-56.75 259.7 -41.6 253.5" fill="none" stroke="#333333" stroke-linecap="round" stroke-linejoin="round" stroke-width="0.05"/>
  </g>
  <defs>
    <linearGradient gradientTransform="matrix(-0.0673, -0.0297, -0.0192, 0.0434, -47.65, 209.85)" gradientUnits="userSpaceOnUse" id="gradient0" spreadMethod="pad" x1="-819.2" x2="819.2">
      <stop offset="0.2901960784313726" stop-color="#970198"/>
      <stop offset="0.6274509803921569" stop-color="#db02db"/>
    </linearGradient>
    <linearGradient gradientTransform="matrix(0.2934, -0.0773, -0.0395, -0.1497, -13.4, 311.65)" gradientUnits="userSpaceOnUse" id="gradient1" spreadMethod="pad" x1="-819.2" x2="819.2">
      <stop offset="0.2901960784313726" stop-color="#970198"/>
      <stop offset="0.6274509803921569" stop-color="#db02db"/>
    </linearGradient>
    <linearGradient gradientTransform="matrix(0.2934, -0.0773, -0.0395, -0.1497, -13.4, 311.65)" gradientUnits="userSpaceOnUse" id="gradient2" spreadMethod="pad" x1="-819.2" x2="819.2">
      <stop offset="0.2901960784313726" stop-color="#5b015c"/>
      <stop offset="0.6274509803921569" stop-color="#db02db"/>
    </linearGradient>
  </defs>
</svg>
