<?xml version="1.0" encoding="UTF-8" standalone="no"?>
<svg xmlns:ffdec="https://www.free-decompiler.com/flash" xmlns:xlink="http://www.w3.org/1999/xlink" ffdec:objectType="shape" height="673.0px" width="423.85px" xmlns="http://www.w3.org/2000/svg">
  <g transform="matrix(1.0, 0.0, 0.0, 1.0, 218.4, -136.35)">
    <path d="M69.2 453.65 L71.55 457.25 66.9 456.25 65.35 456.2 69.2 453.65" fill="url(#gradient0)" fill-rule="evenodd" stroke="none"/>
    <path d="M71.55 457.25 Q75.15 458.5 78.5 461.3 L79.0 461.75 79.4 462.1 Q84.55 466.9 85.85 473.05 86.55 476.35 85.95 479.05 L85.85 479.4 Q85.2 481.7 83.55 483.55 79.9 487.65 73.4 487.05 66.9 486.5 61.4 481.55 55.85 476.65 54.5 470.25 53.15 463.85 56.8 459.8 59.95 456.2 65.35 456.2 L66.9 456.25 71.55 457.25 M107.65 563.05 Q110.55 567.2 110.65 573.55 L110.65 574.2 110.65 574.7 Q110.5 581.4 107.35 586.7 104.05 592.2 99.45 592.95 L98.25 593.05 Q94.45 593.1 91.65 589.25 88.45 584.85 88.5 577.85 88.55 570.85 91.8 565.35 95.1 559.9 99.65 559.15 104.25 558.4 107.45 562.8 L107.65 563.05 M69.3 617.3 Q67.6 622.3 63.2 626.3 L62.65 626.7 62.25 627.05 Q56.75 631.5 50.5 631.95 46.45 632.2 43.55 630.7 41.75 629.75 40.45 628.2 36.9 624.05 38.4 617.7 39.85 611.35 45.5 606.55 51.15 601.75 57.65 601.3 64.15 600.85 67.7 605.05 71.25 609.2 69.8 615.55 L69.3 617.3 M-93.65 672.3 L-93.8 672.5 Q-97.05 677.35 -103.35 679.6 -109.65 681.85 -115.3 680.15 L-117.0 679.5 Q-121.15 677.65 -122.55 673.75 -124.2 669.1 -120.95 664.25 -117.8 659.55 -111.9 657.3 L-111.35 657.1 -110.9 656.95 Q-104.85 654.9 -99.4 656.6 -93.8 658.3 -92.15 663.0 -90.55 667.55 -93.65 672.3 M14.75 430.9 Q16.65 437.15 13.8 441.35 10.95 445.5 5.0 445.15 -1.0 444.85 -6.55 440.25 -12.15 435.6 -14.05 429.4 -16.0 423.15 -13.15 419.0 -10.3 414.85 -4.35 415.15 1.35 415.45 6.75 419.65 L7.25 420.1 7.65 420.4 Q12.9 424.9 14.75 430.9 M5.15 433.7 Q6.1 432.35 5.4 430.3 4.65 428.2 2.7 426.6 0.75 424.95 -1.25 424.8 -3.3 424.6 -4.2 425.95 -5.1 427.3 -4.4 429.4 -3.7 431.45 -1.75 433.05 0.2 434.65 2.25 434.85 4.25 435.05 5.15 433.7 M21.95 503.9 Q17.7 501.95 14.35 497.95 L13.95 497.4 13.6 496.95 Q9.35 491.3 9.2 485.0 9.15 483.55 9.35 482.25 9.95 477.65 13.35 475.05 17.65 471.65 24.0 473.4 30.25 475.1 34.85 481.0 39.45 486.8 39.65 493.4 39.8 499.9 35.5 503.3 31.15 506.7 24.9 504.95 L21.95 503.9 M20.3 484.55 Q18.9 485.65 19.05 487.85 19.2 490.05 20.8 492.1 22.35 494.15 24.5 494.8 26.6 495.45 28.0 494.4 29.4 493.3 29.25 491.1 29.1 488.85 27.5 486.85 25.9 484.8 23.8 484.15 21.7 483.45 20.3 484.55 M65.75 467.2 Q64.55 468.5 65.1 470.65 65.65 472.8 67.55 474.5 69.45 476.2 71.65 476.5 73.85 476.75 75.05 475.45 76.2 474.15 75.7 472.0 75.15 469.85 73.25 468.15 71.3 466.4 69.1 466.15 66.9 465.85 65.75 467.2 M68.2 511.75 Q73.35 509.85 78.8 513.4 84.05 516.75 86.7 523.25 L86.9 523.9 87.1 524.4 Q89.45 531.05 87.7 537.1 85.9 543.4 80.75 545.3 75.6 547.2 70.15 543.65 64.65 540.1 62.1 533.15 59.45 526.2 61.25 519.95 63.05 513.65 68.2 511.75 M78.85 526.85 Q77.9 524.4 76.1 523.15 74.3 521.85 72.65 522.5 71.0 523.1 70.45 525.25 69.9 527.4 70.85 529.8 71.7 532.2 73.55 533.5 75.35 534.75 77.0 534.15 78.65 533.55 79.2 531.4 79.7 529.25 78.85 526.85 M33.15 559.4 Q36.35 558.05 39.75 557.9 46.3 557.6 49.75 561.9 53.2 566.15 51.6 572.5 49.95 578.8 44.2 583.5 38.4 588.2 31.9 588.5 25.35 588.8 21.9 584.55 19.5 581.6 19.55 577.8 19.5 575.95 20.05 573.95 21.6 567.85 26.9 563.3 L27.45 562.9 27.85 562.55 Q30.4 560.55 33.15 559.4 M-51.15 617.35 Q-45.1 619.7 -43.6 624.85 -42.1 630.05 -46.1 635.05 -50.0 639.85 -56.65 641.8 L-57.3 642.0 -57.85 642.1 Q-64.75 643.75 -70.6 641.5 -76.75 639.1 -78.25 633.9 -79.35 630.0 -77.3 626.2 L-75.65 623.7 Q-71.65 618.7 -64.5 616.85 -57.35 614.95 -51.2 617.3 L-51.15 617.35 M37.05 567.8 Q34.8 568.0 32.85 569.65 30.8 571.25 30.2 573.4 29.55 575.5 30.7 576.9 31.8 578.25 34.0 578.1 36.2 577.9 38.2 576.25 40.2 574.65 40.85 572.55 41.45 570.4 40.35 569.05 39.25 567.65 37.05 567.8 M97.35 580.45 Q98.35 582.0 99.85 581.8 101.3 581.55 102.4 579.65 103.45 577.75 103.45 575.35 103.45 572.9 102.45 571.35 101.4 569.8 99.9 570.05 98.45 570.3 97.4 572.2 96.35 574.05 96.35 576.5 96.3 578.9 97.35 580.45 M59.1 612.85 Q57.95 611.5 55.8 611.75 53.6 611.95 51.65 613.6 49.65 615.25 49.1 617.4 48.5 619.55 49.65 620.9 50.75 622.25 53.0 622.0 55.15 621.75 57.15 620.1 59.1 618.45 59.7 616.3 60.25 614.15 59.1 612.85 M-42.05 387.95 Q-45.15 381.8 -45.65 375.35 -46.25 368.55 -43.7 365.4 -41.2 362.2 -37.05 364.45 -32.95 366.6 -29.65 372.95 -26.35 379.25 -25.8 386.05 -25.25 392.75 -27.75 395.95 -30.25 399.1 -34.35 396.9 -38.3 394.8 -41.5 388.95 L-41.8 388.4 -42.05 387.95 M9.95 624.1 Q11.95 629.2 8.5 634.75 5.2 640.05 -1.2 642.8 L-1.85 643.05 -2.35 643.25 Q-9.0 645.7 -15.05 644.05 -21.35 642.35 -23.35 637.25 -25.4 632.15 -21.9 626.6 -18.5 621.05 -11.55 618.35 -4.7 615.6 1.65 617.3 7.95 619.0 9.95 624.1 M-33.9 378.5 Q-35.05 376.25 -36.45 375.45 -37.85 374.6 -38.65 375.65 -39.45 376.65 -39.2 378.95 -39.0 381.25 -37.85 383.45 -36.7 385.6 -35.3 386.45 -33.9 387.25 -33.1 386.25 -32.3 385.2 -32.55 382.95 -32.8 380.65 -33.9 378.5 M-177.0 665.5 Q-171.85 661.35 -166.0 661.1 -160.2 660.9 -157.15 664.7 -154.1 668.5 -155.55 674.1 -156.95 679.5 -161.7 683.55 L-162.15 683.9 -162.55 684.2 Q-167.55 688.05 -173.1 688.3 -178.95 688.5 -182.0 684.7 -185.1 680.9 -183.6 675.25 -182.15 669.65 -177.0 665.5 M-166.95 677.9 Q-165.15 676.45 -164.55 674.55 -164.0 672.65 -165.0 671.45 -166.0 670.25 -167.95 670.4 -169.9 670.55 -171.7 672.0 -173.5 673.4 -174.05 675.3 -174.65 677.15 -173.65 678.4 -172.65 679.65 -170.7 679.5 -168.75 679.35 -166.95 677.9 M-3.5 626.6 Q-5.7 626.1 -8.05 627.05 -10.45 628.0 -11.7 629.8 -12.95 631.65 -12.3 633.3 -11.65 634.9 -9.5 635.45 -7.35 635.9 -4.95 635.0 -2.55 634.05 -1.3 632.2 -0.05 630.35 -0.7 628.75 -1.4 627.1 -3.5 626.6 M-64.2 633.7 L-59.6 633.8 Q-57.1 633.15 -55.65 631.5 -54.25 629.85 -54.7 628.15 -55.2 626.5 -57.3 625.8 L-61.9 625.7 Q-64.4 626.35 -65.8 628.0 -67.25 629.65 -66.75 631.3 -66.3 632.95 -64.2 633.7 M-108.8 664.45 Q-111.0 665.2 -112.2 666.8 -113.35 668.4 -112.8 669.95 -112.3 671.4 -110.35 671.95 L-106.25 671.65 Q-104.05 670.9 -102.9 669.3 -101.7 667.65 -102.25 666.2 -102.8 664.65 -104.7 664.15 -106.6 663.65 -108.8 664.45" fill="#c002c1" fill-rule="evenodd" stroke="none"/>
    <path d="M-41.1 303.25 L-39.65 303.8 Q-46.45 327.1 -36.6 349.8 -20.9 386.05 9.65 411.05 L65.35 456.2 Q59.95 456.2 56.8 459.8 53.15 463.85 54.5 470.25 55.85 476.65 61.4 481.55 66.9 486.5 73.4 487.05 79.9 487.65 83.55 483.55 85.2 481.7 85.85 479.4 L89.55 485.45 Q94.5 493.65 97.55 499.5 106.85 517.2 108.3 539.0 L108.55 546.95 Q108.55 555.5 107.65 563.05 L107.45 562.8 Q104.25 558.4 99.65 559.15 95.1 559.9 91.8 565.35 88.55 570.85 88.5 577.85 88.45 584.85 91.65 589.25 94.45 593.1 98.25 593.05 91.15 605.05 79.2 611.8 L69.3 617.3 69.8 615.55 Q71.25 609.2 67.7 605.05 64.15 600.85 57.65 601.3 51.15 601.75 45.5 606.55 39.85 611.35 38.4 617.7 36.9 624.05 40.45 628.2 41.75 629.75 43.55 630.7 L34.1 635.0 Q18.4 641.7 -16.85 652.95 -52.15 664.1 -80.8 669.4 L-93.65 672.3 Q-90.55 667.55 -92.15 663.0 -93.8 658.3 -99.4 656.6 -104.85 654.9 -110.9 656.95 L-111.35 657.1 -111.9 657.3 Q-117.8 659.55 -120.95 664.25 -124.2 669.1 -122.55 673.75 -121.15 677.65 -117.0 679.5 -129.2 683.65 -143.45 689.35 -153.55 691.3 -162.9 693.65 L-154.95 693.65 -162.7 694.5 Q-188.75 698.15 -203.1 712.05 -211.4 720.1 -213.85 731.45 -214.8 735.85 -215.1 740.25 -219.9 726.0 -217.7 713.8 -210.95 675.75 -167.6 658.5 -124.25 641.2 -88.1 629.65 L-77.3 626.2 Q-79.35 630.0 -78.25 633.9 -76.75 639.1 -70.6 641.5 -64.75 643.75 -57.85 642.1 L-57.3 642.0 -56.65 641.8 Q-50.0 639.85 -46.1 635.05 -42.1 630.05 -43.6 624.85 -45.1 619.7 -51.15 617.35 -42.05 614.1 -35.9 611.6 -10.4 601.1 5.45 589.6 13.5 583.65 19.55 577.8 19.5 581.6 21.9 584.55 25.35 588.8 31.9 588.5 38.4 588.2 44.2 583.5 49.95 578.8 51.6 572.5 53.2 566.15 49.75 561.9 46.3 557.6 39.75 557.9 36.35 558.05 33.15 559.4 39.25 546.2 34.45 533.25 28.25 516.65 21.95 503.9 L24.9 504.95 Q31.15 506.7 35.5 503.3 39.8 499.9 39.65 493.4 39.45 486.8 34.85 481.0 30.25 475.1 24.0 473.4 17.65 471.65 13.35 475.05 9.95 477.65 9.35 482.25 -0.35 467.85 -13.5 451.9 -29.6 432.5 -37.7 414.0 -45.85 395.45 -48.45 373.8 -51.2 350.6 -48.5 333.55 -45.8 316.5 -41.7 305.0 L-41.1 303.3 -41.1 303.25 M14.75 430.9 Q12.9 424.9 7.65 420.4 L7.25 420.1 6.75 419.65 Q1.35 415.45 -4.35 415.15 -10.3 414.85 -13.15 419.0 -16.0 423.15 -14.05 429.4 -12.15 435.6 -6.55 440.25 -1.0 444.85 5.0 445.15 10.95 445.5 13.8 441.35 16.65 437.15 14.75 430.9 M68.2 511.75 Q63.05 513.65 61.25 519.95 59.45 526.2 62.1 533.15 64.65 540.1 70.15 543.65 75.6 547.2 80.75 545.3 85.9 543.4 87.7 537.1 89.45 531.05 87.1 524.4 L86.9 523.9 86.7 523.25 Q84.05 516.75 78.8 513.4 73.35 509.85 68.2 511.75 M9.95 624.1 Q7.95 619.0 1.65 617.3 -4.7 615.6 -11.55 618.35 -18.5 621.05 -21.9 626.6 -25.4 632.15 -23.35 637.25 -21.35 642.35 -15.05 644.05 -9.0 645.7 -2.35 643.25 L-1.85 643.05 -1.2 642.8 Q5.2 640.05 8.5 634.75 11.95 629.2 9.95 624.1 M-42.05 387.95 L-41.8 388.4 -41.5 388.95 Q-38.3 394.8 -34.35 396.9 -30.25 399.1 -27.75 395.95 -25.25 392.75 -25.8 386.05 -26.35 379.25 -29.65 372.95 -32.95 366.6 -37.05 364.45 -41.2 362.2 -43.7 365.4 -46.25 368.55 -45.65 375.35 -45.15 381.8 -42.05 387.95 M-177.0 665.5 Q-182.15 669.65 -183.6 675.25 -185.1 680.9 -182.0 684.7 -178.95 688.5 -173.1 688.3 -167.55 688.05 -162.55 684.2 L-162.15 683.9 -161.7 683.55 Q-156.95 679.5 -155.55 674.1 -154.1 668.5 -157.15 664.7 -160.2 660.9 -166.0 661.1 -171.85 661.35 -177.0 665.5" fill="#ff00fc" fill-rule="evenodd" stroke="none"/>
    <path d="M5.15 433.7 Q4.25 435.05 2.25 434.85 0.2 434.65 -1.75 433.05 -3.7 431.45 -4.4 429.4 -5.1 427.3 -4.2 425.95 -3.3 424.6 -1.25 424.8 0.75 424.95 2.7 426.6 4.65 428.2 5.4 430.3 6.1 432.35 5.15 433.7 M20.3 484.55 Q21.7 483.45 23.8 484.15 25.9 484.8 27.5 486.85 29.1 488.85 29.25 491.1 29.4 493.3 28.0 494.4 26.6 495.45 24.5 494.8 22.35 494.15 20.8 492.1 19.2 490.05 19.05 487.85 18.9 485.65 20.3 484.55 M65.75 467.2 Q66.9 465.85 69.1 466.15 71.3 466.4 73.25 468.15 75.15 469.85 75.7 472.0 76.2 474.15 75.05 475.45 73.85 476.75 71.65 476.5 69.45 476.2 67.55 474.5 65.65 472.8 65.1 470.65 64.55 468.5 65.75 467.2 M78.85 526.85 Q79.7 529.25 79.2 531.4 78.65 533.55 77.0 534.15 75.35 534.75 73.55 533.5 71.7 532.2 70.85 529.8 69.9 527.4 70.45 525.25 71.0 523.1 72.65 522.5 74.3 521.85 76.1 523.15 77.9 524.4 78.85 526.85 M37.05 567.8 Q39.25 567.65 40.35 569.05 41.45 570.4 40.85 572.55 40.2 574.65 38.2 576.25 36.2 577.9 34.0 578.1 31.8 578.25 30.7 576.9 29.55 575.5 30.2 573.4 30.8 571.25 32.85 569.65 34.8 568.0 37.05 567.8 M97.35 580.45 Q96.3 578.9 96.35 576.5 96.35 574.05 97.4 572.2 98.45 570.3 99.9 570.05 101.4 569.8 102.45 571.35 103.45 572.9 103.45 575.35 103.45 577.75 102.4 579.65 101.3 581.55 99.85 581.8 98.35 582.0 97.35 580.45 M59.1 612.85 Q60.25 614.15 59.7 616.3 59.1 618.45 57.15 620.1 55.15 621.75 53.0 622.0 50.75 622.25 49.65 620.9 48.5 619.55 49.1 617.4 49.65 615.25 51.65 613.6 53.6 611.95 55.8 611.75 57.95 611.5 59.1 612.85 M-33.9 378.5 Q-32.8 380.65 -32.55 382.95 -32.3 385.2 -33.1 386.25 -33.9 387.25 -35.3 386.45 -36.7 385.6 -37.85 383.45 -39.0 381.25 -39.2 378.95 -39.45 376.65 -38.65 375.65 -37.85 374.6 -36.45 375.45 -35.05 376.25 -33.9 378.5 M-166.95 677.9 Q-168.75 679.35 -170.7 679.5 -172.65 679.65 -173.65 678.4 -174.65 677.15 -174.05 675.3 -173.5 673.4 -171.7 672.0 -169.9 670.55 -167.95 670.4 -166.0 670.25 -165.0 671.45 -164.0 672.65 -164.55 674.55 -165.15 676.45 -166.95 677.9 M-3.5 626.6 Q-1.4 627.1 -0.7 628.75 -0.05 630.35 -1.3 632.2 -2.55 634.05 -4.95 635.0 -7.35 635.9 -9.5 635.45 -11.65 634.9 -12.3 633.3 -12.95 631.65 -11.7 629.8 -10.45 628.0 -8.05 627.05 -5.7 626.1 -3.5 626.6 M-64.2 633.7 Q-66.3 632.95 -66.75 631.3 -67.25 629.65 -65.8 628.0 -64.4 626.35 -61.9 625.7 L-57.3 625.8 Q-55.2 626.5 -54.7 628.15 -54.25 629.85 -55.65 631.5 -57.1 633.15 -59.6 633.8 L-64.2 633.7 M-108.8 664.45 Q-106.6 663.65 -104.7 664.15 -102.8 664.65 -102.25 666.2 -101.7 667.65 -102.9 669.3 -104.05 670.9 -106.25 671.65 L-110.35 671.95 Q-112.3 671.4 -112.8 669.95 -113.35 668.4 -112.2 666.8 -111.0 665.2 -108.8 664.45" fill="#540154" fill-rule="evenodd" stroke="none"/>
    <path d="M-215.1 740.25 Q-214.8 735.85 -213.85 731.45 -211.4 720.1 -203.1 712.05 -188.75 698.15 -162.7 694.5 L-162.1 697.05 Q-214.6 719.35 -163.5 809.1 L-163.95 809.35 Q-205.05 770.3 -215.1 740.25" fill="url(#gradient1)" fill-rule="evenodd" stroke="none"/>
    <path d="M-41.1 303.25 Q-37.15 292.4 -31.0 279.3 -24.35 265.1 5.4 230.35 30.4 201.05 101.85 158.65 114.65 151.05 129.0 143.05 L130.65 142.1 Q140.3 136.4 154.35 136.35 173.3 138.5 187.4 152.55 204.0 169.15 204.2 192.6 204.35 216.05 187.9 232.65 L181.75 238.35 Q175.2 242.2 168.2 246.4 L128.8 270.4 127.55 272.25 Q91.65 290.3 66.05 321.9 L62.8 325.9 56.85 332.1 Q51.35 337.8 46.3 351.3 41.25 364.8 41.35 381.6 41.4 398.35 48.5 415.7 54.8 431.1 69.2 453.65 L65.35 456.2 9.65 411.05 Q-20.9 386.05 -36.6 349.8 -46.45 327.1 -39.65 303.8 L-41.1 303.25 M-37.85 299.9 L-39.65 303.8 -37.85 299.9" fill="url(#gradient2)" fill-rule="evenodd" stroke="none"/>
    <path d="M128.8 270.4 L168.2 246.4 Q175.2 242.2 181.75 238.35 L187.9 232.65 Q204.35 216.05 204.2 192.6 204.0 169.15 187.4 152.55 173.3 138.5 154.35 136.35 140.3 136.4 130.65 142.1 L129.0 143.05 Q114.65 151.05 101.85 158.65 30.4 201.05 5.4 230.35 -24.35 265.1 -31.0 279.3 -37.15 292.4 -41.1 303.25 L-41.1 303.3 -41.7 305.0 Q-45.8 316.5 -48.5 333.55 -51.2 350.6 -48.45 373.8 -45.85 395.45 -37.7 414.0 -29.6 432.5 -13.5 451.9 -0.35 467.85 9.35 482.25 M-39.65 303.8 L-37.85 299.9 M127.55 272.25 Q91.65 290.3 66.05 321.9 L62.8 325.9 56.85 332.1 Q51.35 337.8 46.3 351.3 41.25 364.8 41.35 381.6 41.4 398.35 48.5 415.7 54.8 431.1 69.2 453.65 L71.55 457.25 M85.95 479.05 L89.55 485.45 Q94.5 493.65 97.55 499.5 106.85 517.2 108.3 539.0 L108.4 540.4 108.45 541.65 108.45 542.3 108.55 544.3 108.55 546.95 Q108.55 555.5 107.65 563.05 M98.25 593.05 Q91.15 605.05 79.2 611.8 L69.3 617.3 M43.55 630.7 L34.1 635.0 Q18.4 641.7 -16.85 652.95 -52.15 664.1 -80.8 669.4 L-93.65 672.3 M-117.0 679.5 Q-129.2 683.65 -143.45 689.35 L-140.35 688.75 M205.45 227.35 L205.15 228.2 M85.85 479.4 L89.55 485.45 M21.95 503.9 Q28.25 516.65 34.45 533.25 39.25 546.2 33.15 559.4 M19.55 577.8 Q13.5 583.65 5.45 589.6 -10.4 601.1 -35.9 611.6 -42.05 614.1 -51.15 617.35 M-77.3 626.2 L-88.1 629.65 Q-124.25 641.2 -167.6 658.5 -210.95 675.75 -217.7 713.8 -219.9 726.0 -215.1 740.25 -205.05 770.3 -163.95 809.35 M-143.45 689.35 L-162.1 697.05 Q-214.6 719.35 -163.5 809.1" fill="none" stroke="#333333" stroke-linecap="round" stroke-linejoin="round" stroke-width="0.05"/>
  </g>
  <defs>
    <linearGradient gradientTransform="matrix(0.16, -0.0871, -0.0735, -0.135, 105.05, 299.45)" gradientUnits="userSpaceOnUse" id="gradient0" spreadMethod="pad" x1="-819.2" x2="819.2">
      <stop offset="0.2901960784313726" stop-color="#970198"/>
      <stop offset="0.6274509803921569" stop-color="#db02db"/>
    </linearGradient>
    <linearGradient gradientTransform="matrix(0.0, 0.0701, 0.0323, 0.0, -188.6, 751.9)" gradientUnits="userSpaceOnUse" id="gradient1" spreadMethod="pad" x1="-819.2" x2="819.2">
      <stop offset="0.2901960784313726" stop-color="#970198"/>
      <stop offset="0.6274509803921569" stop-color="#db02db"/>
    </linearGradient>
    <linearGradient gradientTransform="matrix(0.16, -0.0871, -0.0735, -0.135, 105.05, 299.45)" gradientUnits="userSpaceOnUse" id="gradient2" spreadMethod="pad" x1="-819.2" x2="819.2">
      <stop offset="0.2901960784313726" stop-color="#5b015c"/>
      <stop offset="0.6274509803921569" stop-color="#db02db"/>
    </linearGradient>
  </defs>
</svg>
