<?xml version="1.0" encoding="UTF-8" standalone="no"?>
<svg xmlns:ffdec="https://www.free-decompiler.com/flash" xmlns:xlink="http://www.w3.org/1999/xlink" ffdec:objectType="shape" height="673.4px" width="423.85px" xmlns="http://www.w3.org/2000/svg">
  <g transform="matrix(1.0, 0.0, 0.0, 1.0, 228.05, -137.7)">
    <path d="M-50.75 305.0 L-49.3 305.55 Q-56.1 328.85 -46.25 351.55 -30.55 387.8 0.0 412.8 L55.7 457.95 Q50.3 457.95 47.15 461.55 43.5 465.6 44.85 472.0 46.2 478.4 51.75 483.3 57.25 488.25 63.75 488.8 70.25 489.4 73.9 485.3 75.55 483.45 76.2 481.15 L79.9 487.2 Q84.85 495.4 87.9 501.25 97.2 518.95 98.65 540.75 L98.9 548.7 Q98.9 557.25 98.0 564.8 L97.8 564.55 Q94.6 560.15 90.0 560.9 85.45 561.65 82.15 567.1 78.9 572.6 78.85 579.6 78.8 586.6 82.0 591.0 84.8 594.85 88.6 594.8 81.5 606.8 69.55 613.55 L59.65 619.05 60.15 617.3 Q61.6 610.95 58.05 606.8 54.5 602.6 48.0 603.05 41.5 603.5 35.85 608.3 30.2 613.1 28.75 619.45 27.25 625.8 30.8 629.95 32.1 631.5 33.9 632.45 L24.45 636.75 Q8.75 643.45 -26.5 654.7 -61.8 665.85 -90.45 671.15 -96.4 672.25 -103.3 674.05 -100.2 669.3 -101.8 664.75 -103.45 660.05 -109.05 658.35 -114.5 656.65 -120.55 658.7 L-121.0 658.85 -121.55 659.05 Q-127.45 661.3 -130.6 666.0 -133.85 670.85 -132.2 675.5 -130.8 679.4 -126.65 681.25 -138.85 685.4 -153.1 691.1 -163.2 693.05 -172.55 695.4 L-164.6 695.4 -172.35 696.25 Q-198.4 699.9 -212.75 713.8 -221.05 721.85 -223.5 733.2 -224.45 737.6 -224.75 742.0 -229.55 727.75 -227.35 715.55 -220.6 677.5 -177.25 660.25 -133.9 642.95 -97.75 631.4 L-86.95 627.95 Q-89.0 631.75 -87.9 635.65 -86.4 640.85 -80.25 643.25 -74.4 645.5 -67.5 643.85 L-66.95 643.75 -66.3 643.55 Q-59.65 641.6 -55.75 636.8 -51.75 631.8 -53.25 626.6 -54.75 621.45 -60.8 619.1 L-45.55 613.35 Q-20.05 602.85 -4.2 591.35 3.85 585.4 9.9 579.55 9.85 583.35 12.25 586.3 15.7 590.55 22.25 590.25 28.75 589.95 34.55 585.25 40.3 580.55 41.95 574.25 43.55 567.9 40.1 563.65 36.65 559.35 30.1 559.65 26.7 559.8 23.5 561.15 29.6 547.95 24.8 535.0 18.6 518.4 12.3 505.65 13.7 506.3 15.25 506.7 21.5 508.45 25.85 505.05 30.15 501.65 30.0 495.15 29.8 488.55 25.2 482.75 20.6 476.85 14.35 475.15 8.0 473.4 3.7 476.8 0.3 479.4 -0.3 484.0 -10.0 469.6 -23.15 453.65 -39.25 434.25 -47.35 415.75 -55.5 397.2 -58.1 375.55 -60.85 352.35 -58.15 335.3 -55.45 318.25 -51.35 306.75 L-50.75 305.05 -50.75 305.0 M5.1 432.65 Q3.25 426.65 -2.0 422.15 L-2.4 421.85 -2.9 421.4 Q-8.3 417.2 -14.0 416.9 -19.95 416.6 -22.8 420.75 -25.65 424.9 -23.7 431.15 -21.8 437.35 -16.2 442.0 -10.65 446.6 -4.65 446.9 1.3 447.25 4.15 443.1 7.0 438.9 5.1 432.65 M52.45 534.9 Q55.0 541.85 60.5 545.4 65.95 548.95 71.1 547.05 76.25 545.15 78.05 538.85 79.8 532.8 77.45 526.15 L77.25 525.65 77.05 525.0 Q74.4 518.5 69.15 515.15 63.7 511.6 58.55 513.5 53.4 515.4 51.6 521.7 49.8 527.95 52.45 534.9 M-53.35 367.15 Q-55.9 370.3 -55.3 377.1 -54.8 383.55 -51.7 389.7 L-51.45 390.15 -51.15 390.7 Q-47.95 396.55 -44.0 398.65 -39.9 400.85 -37.4 397.7 -34.9 394.5 -35.45 387.8 -36.0 381.0 -39.3 374.7 -42.6 368.35 -46.7 366.2 -50.85 363.95 -53.35 367.15 M-175.65 662.85 Q-181.5 663.1 -186.65 667.25 -191.8 671.4 -193.25 677.0 -194.75 682.65 -191.65 686.45 -188.6 690.25 -182.75 690.05 -177.2 689.8 -172.2 685.95 L-171.8 685.65 -171.35 685.3 Q-166.6 681.25 -165.2 675.85 -163.75 670.25 -166.8 666.45 -169.85 662.65 -175.65 662.85 M-31.55 628.35 Q-35.05 633.9 -33.0 639.0 -31.0 644.1 -24.7 645.8 -18.65 647.45 -12.0 645.0 L-11.5 644.8 -10.85 644.55 Q-4.45 641.8 -1.15 636.5 2.3 630.95 0.3 625.85 -1.7 620.75 -8.0 619.05 -14.35 617.35 -21.2 620.1 -28.15 622.8 -31.55 628.35" fill="#ff00fc" fill-rule="evenodd" stroke="none"/>
    <path d="M61.9 459.0 Q65.5 460.25 68.85 463.05 L69.35 463.5 69.75 463.85 Q74.9 468.65 76.2 474.8 76.9 478.1 76.3 480.8 L76.2 481.15 Q75.55 483.45 73.9 485.3 70.25 489.4 63.75 488.8 57.25 488.25 51.75 483.3 46.2 478.4 44.85 472.0 43.5 465.6 47.15 461.55 50.3 457.95 55.7 457.95 L57.25 458.0 Q59.6 458.2 61.9 459.0 M98.0 564.8 Q100.9 568.95 101.0 575.3 L101.0 575.95 101.0 576.45 Q100.85 583.15 97.7 588.45 94.4 593.95 89.8 594.7 L88.6 594.8 Q84.8 594.85 82.0 591.0 78.8 586.6 78.85 579.6 78.9 572.6 82.15 567.1 85.45 561.65 90.0 560.9 94.6 560.15 97.8 564.55 L98.0 564.8 M59.65 619.05 Q57.95 624.05 53.55 628.05 L53.0 628.45 52.6 628.8 Q47.1 633.25 40.85 633.7 36.8 633.95 33.9 632.45 32.1 631.5 30.8 629.95 27.25 625.8 28.75 619.45 30.2 613.1 35.85 608.3 41.5 603.5 48.0 603.05 54.5 602.6 58.05 606.8 61.6 610.95 60.15 617.3 L59.65 619.05 M-103.3 674.05 L-103.45 674.25 Q-106.7 679.1 -113.0 681.35 -119.3 683.6 -124.95 681.9 L-126.65 681.25 Q-130.8 679.4 -132.2 675.5 -133.85 670.85 -130.6 666.0 -127.45 661.3 -121.55 659.05 L-121.0 658.85 -120.55 658.7 Q-114.5 656.65 -109.05 658.35 -103.45 660.05 -101.8 664.75 -100.2 669.3 -103.3 674.05 M-0.3 484.0 Q0.3 479.4 3.7 476.8 8.0 473.4 14.35 475.15 20.6 476.85 25.2 482.75 29.8 488.55 30.0 495.15 30.15 501.65 25.85 505.05 21.5 508.45 15.25 506.7 13.7 506.3 12.3 505.65 8.05 503.7 4.7 499.7 L4.3 499.15 3.95 498.7 Q-0.3 493.05 -0.45 486.75 L-0.3 484.0 M5.1 432.65 Q7.0 438.9 4.15 443.1 1.3 447.25 -4.65 446.9 -10.65 446.6 -16.2 442.0 -21.8 437.35 -23.7 431.15 -25.65 424.9 -22.8 420.75 -19.95 416.6 -14.0 416.9 -8.3 417.2 -2.9 421.4 L-2.4 421.85 -2.0 422.15 Q3.25 426.65 5.1 432.65 M23.5 561.15 Q26.7 559.8 30.1 559.65 36.65 559.35 40.1 563.65 43.55 567.9 41.95 574.25 40.3 580.55 34.55 585.25 28.75 589.95 22.25 590.25 15.7 590.55 12.25 586.3 9.85 583.35 9.9 579.55 9.85 577.7 10.4 575.7 11.95 569.6 17.25 565.05 L17.8 564.65 18.2 564.3 Q20.75 562.3 23.5 561.15 M-60.8 619.1 Q-54.75 621.45 -53.25 626.6 -51.75 631.8 -55.75 636.8 -59.65 641.6 -66.3 643.55 L-66.95 643.75 -67.5 643.85 Q-74.4 645.5 -80.25 643.25 -86.4 640.85 -87.9 635.65 -89.0 631.75 -86.95 627.95 L-85.3 625.45 Q-81.3 620.45 -74.15 618.6 -67.0 616.7 -60.85 619.05 L-60.8 619.1 M17.85 488.6 Q16.25 486.55 14.15 485.9 12.05 485.2 10.65 486.3 9.25 487.4 9.4 489.6 9.55 491.8 11.15 493.85 12.7 495.9 14.85 496.55 16.95 497.2 18.35 496.15 19.75 495.05 19.6 492.85 19.45 490.6 17.85 488.6 M56.1 468.95 Q54.9 470.25 55.45 472.4 56.0 474.55 57.9 476.25 59.8 477.95 62.0 478.25 64.2 478.5 65.4 477.2 66.55 475.9 66.05 473.75 65.5 471.6 63.6 469.9 61.65 468.15 59.45 467.9 57.25 467.6 56.1 468.95 M52.45 534.9 Q49.8 527.95 51.6 521.7 53.4 515.4 58.55 513.5 63.7 511.6 69.15 515.15 74.4 518.5 77.05 525.0 L77.25 525.65 77.45 526.15 Q79.8 532.8 78.05 538.85 76.25 545.15 71.1 547.05 65.95 548.95 60.5 545.4 55.0 541.85 52.45 534.9 M66.45 524.9 Q64.65 523.6 63.0 524.25 61.35 524.85 60.8 527.0 60.25 529.15 61.2 531.55 62.05 533.95 63.9 535.25 65.7 536.5 67.35 535.9 69.0 535.3 69.55 533.15 70.05 531.0 69.2 528.6 68.25 526.15 66.45 524.9 M30.7 570.8 Q29.6 569.4 27.4 569.55 25.15 569.75 23.2 571.4 21.15 573.0 20.55 575.15 19.9 577.25 21.05 578.65 22.15 580.0 24.35 579.85 26.55 579.65 28.55 578.0 30.55 576.4 31.2 574.3 31.8 572.15 30.7 570.8 M93.8 577.1 Q93.8 574.65 92.8 573.1 91.75 571.55 90.25 571.8 88.8 572.05 87.75 573.95 86.7 575.8 86.7 578.25 86.65 580.65 87.7 582.2 88.7 583.75 90.2 583.55 91.65 583.3 92.75 581.4 93.8 579.5 93.8 577.1 M42.0 615.35 Q40.0 617.0 39.45 619.15 38.85 621.3 40.0 622.65 41.1 624.0 43.35 623.75 45.5 623.5 47.5 621.85 49.45 620.2 50.05 618.05 50.6 615.9 49.45 614.6 48.3 613.25 46.15 613.5 43.95 613.7 42.0 615.35 M-53.35 367.15 Q-50.85 363.95 -46.7 366.2 -42.6 368.35 -39.3 374.7 -36.0 381.0 -35.45 387.8 -34.9 394.5 -37.4 397.7 -39.9 400.85 -44.0 398.65 -47.95 396.55 -51.15 390.7 L-51.45 390.15 -51.7 389.7 Q-54.8 383.55 -55.3 377.1 -55.9 370.3 -53.35 367.15 M-48.85 380.7 Q-48.65 383.0 -47.5 385.2 -46.35 387.35 -44.95 388.2 -43.55 389.0 -42.75 388.0 -41.95 386.95 -42.2 384.7 -42.45 382.4 -43.55 380.25 -44.7 378.0 -46.1 377.2 -47.5 376.35 -48.3 377.4 -49.1 378.4 -48.85 380.7 M-6.95 428.35 Q-8.9 426.7 -10.9 426.55 -12.95 426.35 -13.85 427.7 -14.75 429.05 -14.05 431.15 -13.35 433.2 -11.4 434.8 -9.45 436.4 -7.4 436.6 -5.4 436.8 -4.5 435.45 -3.55 434.1 -4.25 432.05 -5.0 429.95 -6.95 428.35 M-175.65 662.85 Q-169.85 662.65 -166.8 666.45 -163.75 670.25 -165.2 675.85 -166.6 681.25 -171.35 685.3 L-171.8 685.65 -172.2 685.95 Q-177.2 689.8 -182.75 690.05 -188.6 690.25 -191.65 686.45 -194.75 682.65 -193.25 677.0 -191.8 671.4 -186.65 667.25 -181.5 663.1 -175.65 662.85 M-183.3 680.15 Q-182.3 681.4 -180.35 681.25 -178.4 681.1 -176.6 679.65 -174.8 678.2 -174.2 676.3 -173.65 674.4 -174.65 673.2 -175.65 672.0 -177.6 672.15 -179.55 672.3 -181.35 673.75 -183.15 675.15 -183.7 677.05 -184.3 678.9 -183.3 680.15 M-21.95 635.05 Q-21.3 636.65 -19.15 637.2 -17.0 637.65 -14.6 636.75 -12.2 635.8 -10.95 633.95 -9.7 632.1 -10.35 630.5 -11.05 628.85 -13.15 628.35 -15.35 627.85 -17.7 628.8 -20.1 629.75 -21.35 631.55 -22.6 633.4 -21.95 635.05 M-31.55 628.35 Q-28.15 622.8 -21.2 620.1 -14.35 617.35 -8.0 619.05 -1.7 620.75 0.3 625.85 2.3 630.95 -1.15 636.5 -4.45 641.8 -10.85 644.55 L-11.5 644.8 -12.0 645.0 Q-18.65 647.45 -24.7 645.8 -31.0 644.1 -33.0 639.0 -35.05 633.9 -31.55 628.35 M-66.95 627.55 L-71.55 627.45 Q-74.05 628.1 -75.45 629.75 -76.9 631.4 -76.4 633.05 -75.95 634.7 -73.85 635.45 L-69.25 635.55 Q-66.75 634.9 -65.3 633.25 -63.9 631.6 -64.35 629.9 -64.85 628.25 -66.95 627.55 M-122.45 671.7 Q-121.95 673.15 -120.0 673.7 L-115.9 673.4 Q-113.7 672.65 -112.55 671.05 -111.35 669.4 -111.9 667.95 -112.45 666.4 -114.35 665.9 L-118.45 666.2 Q-120.65 666.95 -121.85 668.55 -123.0 670.15 -122.45 671.7" fill="#c002c1" fill-rule="evenodd" stroke="none"/>
    <path d="M17.85 488.6 Q19.45 490.6 19.6 492.85 19.75 495.05 18.35 496.15 16.95 497.2 14.85 496.55 12.7 495.9 11.15 493.85 9.55 491.8 9.4 489.6 9.25 487.4 10.65 486.3 12.05 485.2 14.15 485.9 16.25 486.55 17.85 488.6 M56.1 468.95 Q57.25 467.6 59.45 467.9 61.65 468.15 63.6 469.9 65.5 471.6 66.05 473.75 66.55 475.9 65.4 477.2 64.2 478.5 62.0 478.25 59.8 477.95 57.9 476.25 56.0 474.55 55.45 472.4 54.9 470.25 56.1 468.95 M66.45 524.9 Q68.25 526.15 69.2 528.6 70.05 531.0 69.55 533.15 69.0 535.3 67.35 535.9 65.7 536.5 63.9 535.25 62.05 533.95 61.2 531.55 60.25 529.15 60.8 527.0 61.35 524.85 63.0 524.25 64.65 523.6 66.45 524.9 M30.7 570.8 Q31.8 572.15 31.2 574.3 30.55 576.4 28.55 578.0 26.55 579.65 24.35 579.85 22.15 580.0 21.05 578.65 19.9 577.25 20.55 575.15 21.15 573.0 23.2 571.4 25.15 569.75 27.4 569.55 29.6 569.4 30.7 570.8 M93.8 577.1 Q93.8 579.5 92.75 581.4 91.65 583.3 90.2 583.55 88.7 583.75 87.7 582.2 86.65 580.65 86.7 578.25 86.7 575.8 87.75 573.95 88.8 572.05 90.25 571.8 91.75 571.55 92.8 573.1 93.8 574.65 93.8 577.1 M42.0 615.35 Q43.95 613.7 46.15 613.5 48.3 613.25 49.45 614.6 50.6 615.9 50.05 618.05 49.45 620.2 47.5 621.85 45.5 623.5 43.35 623.75 41.1 624.0 40.0 622.65 38.85 621.3 39.45 619.15 40.0 617.0 42.0 615.35 M-6.95 428.35 Q-5.0 429.95 -4.25 432.05 -3.55 434.1 -4.5 435.45 -5.4 436.8 -7.4 436.6 -9.45 436.4 -11.4 434.8 -13.35 433.2 -14.05 431.15 -14.75 429.05 -13.85 427.7 -12.95 426.35 -10.9 426.55 -8.9 426.7 -6.95 428.35 M-48.85 380.7 Q-49.1 378.4 -48.3 377.4 -47.5 376.35 -46.1 377.2 -44.7 378.0 -43.55 380.25 -42.45 382.4 -42.2 384.7 -41.95 386.95 -42.75 388.0 -43.55 389.0 -44.95 388.2 -46.35 387.35 -47.5 385.2 -48.65 383.0 -48.85 380.7 M-183.3 680.15 Q-184.3 678.9 -183.7 677.05 -183.15 675.15 -181.35 673.75 -179.55 672.3 -177.6 672.15 -175.65 672.0 -174.65 673.2 -173.65 674.4 -174.2 676.3 -174.8 678.2 -176.6 679.65 -178.4 681.1 -180.35 681.25 -182.3 681.4 -183.3 680.15 M-21.95 635.05 Q-22.6 633.4 -21.35 631.55 -20.1 629.75 -17.7 628.8 -15.35 627.85 -13.15 628.35 -11.05 628.85 -10.35 630.5 -9.7 632.1 -10.95 633.95 -12.2 635.8 -14.6 636.75 -17.0 637.65 -19.15 637.2 -21.3 636.65 -21.95 635.05 M-66.95 627.55 Q-64.85 628.25 -64.35 629.9 -63.9 631.6 -65.3 633.25 -66.75 634.9 -69.25 635.55 L-73.85 635.45 Q-75.95 634.7 -76.4 633.05 -76.9 631.4 -75.45 629.75 -74.05 628.1 -71.55 627.45 L-66.95 627.55 M-122.45 671.7 Q-123.0 670.15 -121.85 668.55 -120.65 666.95 -118.45 666.2 L-114.35 665.9 Q-112.45 666.4 -111.9 667.95 -111.35 669.4 -112.55 671.05 -113.7 672.65 -115.9 673.4 L-120.0 673.7 Q-121.95 673.15 -122.45 671.7" fill="#540154" fill-rule="evenodd" stroke="none"/>
    <path d="M59.55 455.4 L61.9 459.0 Q59.6 458.2 57.25 458.0 L55.7 457.95 59.55 455.4" fill="url(#gradient0)" fill-rule="evenodd" stroke="none"/>
    <path d="M-224.75 742.0 Q-224.45 737.6 -223.5 733.2 -221.05 721.85 -212.75 713.8 -198.4 699.9 -172.35 696.25 L-171.75 698.8 Q-224.25 721.1 -173.15 810.85 L-173.6 811.1 Q-214.7 772.05 -224.75 742.0" fill="url(#gradient1)" fill-rule="evenodd" stroke="none"/>
    <path d="M100.95 151.2 Q111.05 142.4 123.55 139.35 L130.45 138.1 137.65 137.7 144.7 138.1 Q163.65 140.25 177.75 154.3 194.35 170.9 194.35 194.4 194.35 217.85 177.75 234.5 173.1 239.15 167.95 242.5 L162.8 245.25 161.7 245.95 119.15 272.15 117.9 274.0 Q82.0 292.05 56.4 323.65 L53.15 327.65 47.2 333.85 Q41.7 339.55 36.65 353.05 31.6 366.55 31.7 383.35 31.75 400.1 38.85 417.45 45.15 432.85 59.55 455.4 L55.7 457.95 0.0 412.8 Q-30.55 387.8 -46.25 351.55 -56.1 328.85 -49.3 305.55 L-50.75 305.0 Q-46.8 294.15 -40.65 281.05 -34.0 266.85 -4.25 232.1 20.55 203.05 99.8 152.2 L97.6 154.3 Q94.65 157.25 101.1 151.35 L100.95 151.2 M-47.5 301.65 L-49.3 305.55 -47.5 301.65" fill="url(#gradient2)" fill-rule="evenodd" stroke="none"/>
    <path d="M167.95 242.5 Q173.1 239.15 177.75 234.5 194.35 217.85 194.35 194.4 194.35 170.9 177.75 154.3 163.65 140.25 144.7 138.1 L137.65 137.7 130.45 138.1 123.55 139.35 Q111.05 142.4 100.95 151.2 L99.8 152.2 Q20.55 203.05 -4.25 232.1 -34.0 266.85 -40.65 281.05 -46.8 294.15 -50.75 305.0 L-50.75 305.05 -51.35 306.75 Q-55.45 318.25 -58.15 335.3 -60.85 352.35 -58.1 375.55 -55.5 397.2 -47.35 415.75 -39.25 434.25 -23.15 453.65 -10.0 469.6 -0.3 484.0 M-49.3 305.55 L-47.5 301.65 M119.15 272.15 L161.7 245.95 162.8 245.25 M167.95 242.5 Q164.9 244.4 161.7 245.95 M117.9 274.0 Q82.0 292.05 56.4 323.65 L53.15 327.65 47.2 333.85 Q41.7 339.55 36.65 353.05 31.6 366.55 31.7 383.35 31.75 400.1 38.85 417.45 45.15 432.85 59.55 455.4 L61.9 459.0 M76.3 480.8 L79.9 487.2 Q84.85 495.4 87.9 501.25 97.2 518.95 98.65 540.75 L98.75 542.15 98.8 543.4 98.8 544.05 98.9 546.05 98.9 548.7 Q98.9 557.25 98.0 564.8 M88.6 594.8 Q81.5 606.8 69.55 613.55 L59.65 619.05 M33.9 632.45 L24.45 636.75 Q8.75 643.45 -26.5 654.7 -61.8 665.85 -90.45 671.15 -96.4 672.25 -103.3 674.05 M-126.65 681.25 Q-138.85 685.4 -153.1 691.1 L-150.0 690.5 M195.8 229.1 L195.5 229.95 M12.3 505.65 Q18.6 518.4 24.8 535.0 29.6 547.95 23.5 561.15 M9.9 579.55 Q3.85 585.4 -4.2 591.35 -20.05 602.85 -45.55 613.35 L-60.8 619.1 M-86.95 627.95 L-97.75 631.4 Q-133.9 642.95 -177.25 660.25 -220.6 677.5 -227.35 715.55 -229.55 727.75 -224.75 742.0 -214.7 772.05 -173.6 811.1 M-153.1 691.1 Q-162.0 694.65 -171.75 698.8 -224.25 721.1 -173.15 810.85 M76.2 481.15 L79.9 487.2" fill="none" stroke="#333333" stroke-linecap="round" stroke-linejoin="round" stroke-width="0.05"/>
  </g>
  <defs>
    <linearGradient gradientTransform="matrix(0.16, -0.0871, -0.0735, -0.135, 95.4, 301.2)" gradientUnits="userSpaceOnUse" id="gradient0" spreadMethod="pad" x1="-819.2" x2="819.2">
      <stop offset="0.2901960784313726" stop-color="#970198"/>
      <stop offset="0.6274509803921569" stop-color="#db02db"/>
    </linearGradient>
    <linearGradient gradientTransform="matrix(0.0, 0.0701, 0.0323, 0.0, -198.25, 753.65)" gradientUnits="userSpaceOnUse" id="gradient1" spreadMethod="pad" x1="-819.2" x2="819.2">
      <stop offset="0.2901960784313726" stop-color="#970198"/>
      <stop offset="0.6274509803921569" stop-color="#db02db"/>
    </linearGradient>
    <linearGradient gradientTransform="matrix(0.16, -0.0871, -0.0735, -0.135, 95.4, 301.2)" gradientUnits="userSpaceOnUse" id="gradient2" spreadMethod="pad" x1="-819.2" x2="819.2">
      <stop offset="0.2901960784313726" stop-color="#5b015c"/>
      <stop offset="0.6274509803921569" stop-color="#db02db"/>
    </linearGradient>
  </defs>
</svg>
