<?xml version="1.0" encoding="UTF-8" standalone="no"?>
<svg xmlns:ffdec="https://www.free-decompiler.com/flash" xmlns:xlink="http://www.w3.org/1999/xlink" ffdec:objectType="shape" height="497.65px" width="418.45px" xmlns="http://www.w3.org/2000/svg">
  <g transform="matrix(1.0, 0.0, 0.0, 1.0, 211.85, 248.8)">
    <path d="M88.55 -117.75 L85.1 -117.95 Q83.65 -117.15 83.6 -115.1 83.55 -113.05 84.9 -110.9 86.25 -108.8 88.3 -107.85 L91.75 -107.7 Q93.15 -108.45 93.2 -110.5 93.25 -112.6 91.9 -114.7 90.55 -116.8 88.55 -117.75 M99.65 -118.75 Q103.6 -112.65 103.2 -106.65 102.8 -100.6 98.3 -98.15 93.8 -95.75 87.8 -98.35 82.05 -100.9 78.2 -106.65 L77.9 -107.05 77.5 -107.6 Q73.95 -113.45 74.35 -119.25 74.75 -125.25 79.25 -127.65 83.75 -130.1 89.7 -127.5 95.7 -124.9 99.65 -118.75 M70.4 -162.4 Q72.2 -160.35 73.15 -158.05 75.05 -153.35 71.85 -150.4 68.65 -147.45 62.2 -147.95 55.7 -148.5 49.8 -152.2 43.9 -155.95 42.0 -160.65 40.05 -165.4 43.25 -168.35 L45.0 -169.55 Q48.05 -171.2 52.95 -170.75 59.15 -170.25 64.9 -166.8 L65.35 -166.55 65.9 -166.2 Q68.55 -164.4 70.4 -162.4 M-43.05 -146.45 L-41.55 -145.95 Q-35.5 -143.55 -34.1 -138.3 -32.7 -133.0 -36.7 -127.9 -40.8 -122.8 -47.9 -120.9 -55.1 -118.95 -61.1 -121.35 -67.2 -123.75 -68.6 -129.0 -69.8 -133.4 -67.2 -137.65 L-65.95 -139.4 Q-62.1 -144.35 -55.3 -146.3 L-54.8 -146.45 -54.1 -146.6 Q-48.25 -148.05 -43.05 -146.45 M-176.0 -162.45 L-176.65 -160.65 Q-179.15 -154.85 -184.3 -153.75 -189.5 -152.7 -194.4 -156.9 -199.3 -161.15 -200.95 -168.25 -202.7 -175.35 -200.2 -181.15 -197.75 -187.0 -192.55 -188.05 -187.4 -189.15 -182.45 -184.9 L-180.85 -183.3 -180.6 -183.05 Q-177.4 -179.4 -176.0 -174.05 L-175.85 -173.55 -175.7 -172.9 Q-174.55 -167.3 -176.0 -162.45 M-184.1 -235.05 Q-182.8 -234.55 -181.75 -233.5 -178.8 -230.55 -179.3 -224.85 -179.75 -219.35 -183.1 -214.4 L-183.35 -214.05 -183.7 -213.55 Q-187.2 -208.85 -191.65 -207.4 -196.3 -205.85 -199.2 -208.8 -201.05 -210.6 -201.55 -213.5 -201.9 -215.25 -201.7 -217.4 -201.2 -223.15 -197.6 -228.2 -194.0 -233.35 -189.35 -234.85 L-184.1 -235.05 M60.35 -161.85 Q58.3 -163.15 56.1 -163.4 53.9 -163.65 52.9 -162.65 51.85 -161.7 52.6 -160.1 53.3 -158.55 55.35 -157.25 57.4 -155.95 59.6 -155.7 61.75 -155.5 62.8 -156.4 63.85 -157.4 63.15 -158.95 62.4 -160.55 60.35 -161.85 M25.85 -127.45 Q21.85 -122.65 15.0 -120.8 L14.45 -120.7 13.8 -120.55 Q6.95 -119.1 1.2 -121.55 -4.8 -124.1 -6.05 -129.4 -7.35 -134.75 -3.15 -139.75 1.05 -144.8 8.25 -146.5 15.45 -148.25 21.5 -145.7 27.5 -143.15 28.8 -137.8 30.05 -132.5 25.85 -127.45 M10.4 -137.35 Q7.85 -136.75 6.4 -135.1 4.9 -133.5 5.3 -131.75 5.7 -130.05 7.8 -129.25 L12.4 -129.05 Q14.9 -129.7 16.4 -131.3 17.85 -133.0 17.45 -134.7 17.0 -136.4 14.95 -137.2 L10.4 -137.35 M-189.8 -225.5 Q-191.35 -224.95 -192.6 -223.15 -193.85 -221.4 -194.05 -219.45 -194.3 -217.55 -193.35 -216.6 -192.4 -215.65 -190.85 -216.2 -189.3 -216.8 -188.0 -218.6 -186.75 -220.4 -186.55 -222.3 -186.35 -224.25 -187.3 -225.15 -188.25 -226.1 -189.8 -225.5 M-189.5 -176.85 Q-191.15 -176.5 -191.9 -174.5 -192.7 -172.55 -192.1 -170.05 -191.5 -167.6 -189.9 -166.1 -188.3 -164.65 -186.6 -164.95 -184.95 -165.3 -184.2 -167.3 -183.45 -169.3 -184.0 -171.8 -184.6 -174.25 -186.2 -175.75 -187.85 -177.25 -189.5 -176.85 M-167.5 -131.25 Q-161.7 -132.3 -155.75 -129.35 -149.75 -126.45 -147.05 -121.25 -144.35 -116.05 -146.5 -111.6 -148.65 -107.2 -154.45 -106.15 -160.0 -105.1 -165.75 -107.75 L-166.2 -107.95 -166.75 -108.25 Q-172.3 -111.15 -174.9 -116.15 -177.6 -121.35 -175.4 -125.75 -173.25 -130.15 -167.5 -131.25 M-166.2 -120.85 Q-166.9 -119.45 -165.95 -117.7 -164.95 -116.0 -162.85 -114.95 -160.8 -113.95 -158.8 -114.2 -156.85 -114.55 -156.15 -115.95 -155.45 -117.4 -156.45 -119.1 -157.4 -120.85 -159.5 -121.85 -161.6 -122.85 -163.55 -122.55 -165.5 -122.3 -166.2 -120.85 M-105.75 -101.6 Q-105.3 -99.95 -103.2 -99.3 L-98.7 -99.4 Q-96.3 -100.2 -94.85 -101.9 -93.45 -103.6 -93.9 -105.25 -94.4 -106.95 -96.45 -107.6 L-101.0 -107.45 Q-103.5 -106.7 -104.85 -105.0 -106.25 -103.3 -105.75 -101.6 M-56.4 -135.8 Q-57.85 -134.1 -57.35 -132.4 -56.9 -130.75 -54.8 -130.0 -52.75 -129.25 -50.25 -129.95 -47.8 -130.6 -46.35 -132.3 -44.95 -133.95 -45.4 -135.65 -45.85 -137.35 -47.9 -138.1 -50.0 -138.85 -52.5 -138.15 -55.0 -137.5 -56.4 -135.8 M-103.4 -115.6 L-102.75 -115.8 Q-96.05 -117.7 -90.25 -115.65 -84.25 -113.5 -82.75 -108.3 -81.3 -103.15 -85.25 -97.95 -89.2 -92.75 -96.25 -90.55 -103.35 -88.35 -109.35 -90.5 -115.4 -92.6 -116.9 -97.8 -118.4 -103.0 -114.4 -108.2 -110.6 -113.25 -103.9 -115.45 L-103.4 -115.6" fill="#c002c1" fill-rule="evenodd" stroke="none"/>
    <path d="M88.55 -117.75 Q90.55 -116.8 91.9 -114.7 93.25 -112.6 93.2 -110.5 93.15 -108.45 91.75 -107.7 L88.3 -107.85 Q86.25 -108.8 84.9 -110.9 83.55 -113.05 83.6 -115.1 83.65 -117.15 85.1 -117.95 L88.55 -117.75 M60.35 -161.85 Q62.4 -160.55 63.15 -158.95 63.85 -157.4 62.8 -156.4 61.75 -155.5 59.6 -155.7 57.4 -155.95 55.35 -157.25 53.3 -158.55 52.6 -160.1 51.85 -161.7 52.9 -162.65 53.9 -163.65 56.1 -163.4 58.3 -163.15 60.35 -161.85 M10.4 -137.35 L14.95 -137.2 Q17.0 -136.4 17.45 -134.7 17.85 -133.0 16.4 -131.3 14.9 -129.7 12.4 -129.05 L7.8 -129.25 Q5.7 -130.05 5.3 -131.75 4.9 -133.5 6.4 -135.1 7.85 -136.75 10.4 -137.35 M-189.8 -225.5 Q-188.25 -226.1 -187.3 -225.15 -186.35 -224.25 -186.55 -222.3 -186.75 -220.4 -188.0 -218.6 -189.3 -216.8 -190.85 -216.2 -192.4 -215.65 -193.35 -216.6 -194.3 -217.55 -194.05 -219.45 -193.85 -221.4 -192.6 -223.15 -191.35 -224.95 -189.8 -225.5 M-189.5 -176.85 Q-187.85 -177.25 -186.2 -175.75 -184.6 -174.25 -184.0 -171.8 -183.45 -169.3 -184.2 -167.3 -184.95 -165.3 -186.6 -164.95 -188.3 -164.65 -189.9 -166.1 -191.5 -167.6 -192.1 -170.05 -192.7 -172.55 -191.9 -174.5 -191.15 -176.5 -189.5 -176.85 M-166.2 -120.85 Q-165.5 -122.3 -163.55 -122.55 -161.6 -122.85 -159.5 -121.85 -157.4 -120.85 -156.45 -119.1 -155.45 -117.4 -156.15 -115.95 -156.85 -114.55 -158.8 -114.2 -160.8 -113.95 -162.85 -114.95 -164.95 -116.0 -165.95 -117.7 -166.9 -119.45 -166.2 -120.85 M-56.4 -135.8 Q-55.0 -137.5 -52.5 -138.15 -50.0 -138.85 -47.9 -138.1 -45.85 -137.35 -45.4 -135.65 -44.95 -133.95 -46.35 -132.3 -47.8 -130.6 -50.25 -129.95 -52.75 -129.25 -54.8 -130.0 -56.9 -130.75 -57.35 -132.4 -57.85 -134.1 -56.4 -135.8 M-105.75 -101.6 Q-106.25 -103.3 -104.85 -105.0 -103.5 -106.7 -101.0 -107.45 L-96.45 -107.6 Q-94.4 -106.95 -93.9 -105.25 -93.45 -103.6 -94.85 -101.9 -96.3 -100.2 -98.7 -99.4 L-103.2 -99.3 Q-105.3 -99.95 -105.75 -101.6" fill="#540154" fill-rule="evenodd" stroke="none"/>
    <path d="M99.65 -118.75 Q95.7 -124.9 89.7 -127.5 83.75 -130.1 79.25 -127.65 74.75 -125.25 74.35 -119.25 73.95 -113.45 77.5 -107.6 L77.9 -107.05 78.2 -106.65 Q82.05 -100.9 87.8 -98.35 93.8 -95.75 98.3 -98.15 102.8 -100.6 103.2 -106.65 103.6 -112.65 99.65 -118.75 M70.4 -162.4 L73.1 -161.0 78.05 -158.1 Q81.85 -155.7 85.1 -152.6 103.45 -135.25 105.1 -109.2 106.75 -98.95 107.65 -86.45 108.7 -71.1 108.85 -55.7 99.65 -97.65 58.5 -110.15 27.65 -119.5 -3.55 -111.65 L-58.85 -96.25 Q-82.45 -87.35 -108.0 -87.75 -149.2 -88.45 -180.55 -115.2 L-184.8 -119.15 Q-207.05 -140.35 -211.35 -169.9 -212.3 -176.4 -211.4 -183.15 -209.25 -199.75 -201.55 -213.5 -201.05 -210.6 -199.2 -208.8 -196.3 -205.85 -191.65 -207.4 -187.2 -208.85 -183.7 -213.55 L-183.35 -214.05 -183.1 -214.4 Q-179.75 -219.35 -179.3 -224.85 -178.8 -230.55 -181.75 -233.5 -182.8 -234.55 -184.1 -235.05 L-183.95 -235.15 -182.6 -235.95 Q-166.65 -245.95 -147.9 -248.75 -177.35 -234.8 -179.35 -202.6 L-179.65 -198.35 Q-180.6 -193.0 -180.8 -186.75 L-180.85 -183.5 -180.85 -183.3 -182.45 -184.9 Q-187.4 -189.15 -192.55 -188.05 -197.75 -187.0 -200.2 -181.15 -202.7 -175.35 -200.95 -168.25 -199.3 -161.15 -194.4 -156.9 -189.5 -152.7 -184.3 -153.75 -179.15 -154.85 -176.65 -160.65 L-176.0 -162.45 Q-173.2 -157.1 -168.8 -152.55 -145.65 -131.4 -115.15 -128.25 L-101.45 -128.8 Q-83.95 -131.9 -67.2 -137.65 -69.8 -133.4 -68.6 -129.0 -67.2 -123.75 -61.1 -121.35 -55.1 -118.95 -47.9 -120.9 -40.8 -122.8 -36.7 -127.9 -32.7 -133.0 -34.1 -138.3 -35.5 -143.55 -41.55 -145.95 L-43.05 -146.45 -20.7 -154.85 Q3.05 -166.25 28.75 -169.3 37.05 -170.3 45.0 -169.55 L43.25 -168.35 Q40.05 -165.4 42.0 -160.65 43.9 -155.95 49.8 -152.2 55.7 -148.5 62.2 -147.95 68.65 -147.45 71.85 -150.4 75.05 -153.35 73.15 -158.05 72.2 -160.35 70.4 -162.4 M25.85 -127.45 Q30.05 -132.5 28.8 -137.8 27.5 -143.15 21.5 -145.7 15.45 -148.25 8.25 -146.5 1.05 -144.8 -3.15 -139.75 -7.35 -134.75 -6.05 -129.4 -4.8 -124.1 1.2 -121.55 6.95 -119.1 13.8 -120.55 L14.45 -120.7 15.0 -120.8 Q21.85 -122.65 25.85 -127.45 M-167.5 -131.25 Q-173.25 -130.15 -175.4 -125.75 -177.6 -121.35 -174.9 -116.15 -172.3 -111.15 -166.75 -108.25 L-166.2 -107.95 -165.75 -107.75 Q-160.0 -105.1 -154.45 -106.15 -148.65 -107.2 -146.5 -111.6 -144.35 -116.05 -147.05 -121.25 -149.75 -126.45 -155.75 -129.35 -161.7 -132.3 -167.5 -131.25 M-103.4 -115.6 L-103.9 -115.45 Q-110.6 -113.25 -114.4 -108.2 -118.4 -103.0 -116.9 -97.8 -115.4 -92.6 -109.35 -90.5 -103.35 -88.35 -96.25 -90.55 -89.2 -92.75 -85.25 -97.95 -81.3 -103.15 -82.75 -108.3 -84.25 -113.5 -90.25 -115.65 -96.05 -117.7 -102.75 -115.8 L-103.4 -115.6" fill="#ff00fc" fill-rule="evenodd" stroke="none"/>
    <path d="M161.1 247.85 L158.35 248.85 156.25 248.55 161.1 247.85" fill="url(#gradient0)" fill-rule="evenodd" stroke="none"/>
    <path d="M-179.65 -198.35 L-179.35 -202.6 -178.75 -202.45 -179.65 -198.35" fill="url(#gradient1)" fill-rule="evenodd" stroke="none"/>
    <path d="M-3.55 -111.65 Q27.65 -119.5 58.5 -110.15 99.65 -97.65 108.85 -55.7 L108.85 -55.4 Q108.95 -35.35 107.45 -15.25 105.75 6.0 103.2 27.25 98.5 66.2 119.95 98.75 124.05 104.95 129.1 110.95 142.15 126.4 158.85 136.1 163.5 138.8 168.5 141.1 177.95 145.4 186.35 148.75 L189.95 152.1 Q206.55 168.7 206.55 192.15 206.55 214.35 191.75 230.4 L189.95 232.25 Q177.45 244.75 161.1 247.85 L156.25 248.55 Q135.8 245.45 113.3 235.5 108.15 233.2 102.9 230.6 10.95 170.55 28.5 68.85 36.55 22.2 46.0 -24.3 58.05 -83.5 21.1 -104.1 L18.05 -105.6 Q7.25 -110.75 -3.55 -111.65" fill="url(#gradient2)" fill-rule="evenodd" stroke="none"/>
    <path d="M-179.35 -202.6 Q-177.35 -234.8 -147.9 -248.75 L-146.85 -248.75 Q-72.8 -248.4 -100.2 -175.0 L-100.2 -174.95 -100.85 -175.15 Q-104.9 -226.65 -130.95 -229.9 -157.05 -233.15 -168.9 -221.1 L-169.8 -220.15 Q-176.0 -213.3 -178.75 -202.55 L-178.75 -202.45 -179.35 -202.6" fill="url(#gradient3)" fill-rule="evenodd" stroke="none"/>
    <path d="M108.85 -55.7 Q108.7 -71.1 107.65 -86.45 106.75 -98.95 105.1 -109.2 103.45 -135.25 85.1 -152.6 81.85 -155.7 78.05 -158.1 L73.1 -161.0 70.4 -162.4 M45.0 -169.55 Q37.05 -170.3 28.75 -169.3 3.05 -166.25 -20.7 -154.85 L-43.05 -146.45 M-67.2 -137.65 Q-83.95 -131.9 -101.45 -128.8 L-115.15 -128.25 Q-145.65 -131.4 -168.8 -152.55 -173.2 -157.1 -176.0 -162.45 M-180.85 -183.3 L-180.85 -183.5 -180.8 -186.75 Q-180.6 -193.0 -179.65 -198.35 L-178.75 -202.45 -178.75 -202.55 Q-176.0 -213.3 -169.8 -220.15 L-168.9 -221.1 Q-157.05 -233.15 -130.95 -229.9 -104.9 -226.65 -100.85 -175.15 M-147.9 -248.75 Q-166.65 -245.95 -182.6 -235.95 L-183.95 -235.15 -184.1 -235.05 M-201.55 -213.5 Q-209.25 -199.75 -211.4 -183.15 -212.3 -176.4 -211.35 -169.9 -207.05 -140.35 -184.8 -119.15 L-182.9 -117.35 -180.8 -115.4 -180.55 -115.2 Q-149.2 -88.45 -108.0 -87.75 -82.45 -87.35 -58.85 -96.25 L-3.55 -111.65 Q7.25 -110.75 18.05 -105.6 L21.1 -104.1 Q58.05 -83.5 46.0 -24.3 36.55 22.2 28.5 68.85 10.95 170.55 102.9 230.6 108.15 233.2 113.3 235.5 135.8 245.45 156.25 248.55 L161.1 247.85 Q177.45 244.75 189.95 232.25 L191.75 230.4 Q206.55 214.35 206.55 192.15 206.55 168.7 189.95 152.1 L186.35 148.75 Q177.95 145.4 168.5 141.1 163.5 138.8 158.85 136.1 142.15 126.4 129.1 110.95 124.05 104.95 119.95 98.75 98.5 66.2 103.2 27.25 105.75 6.0 107.45 -15.25 108.95 -35.35 108.85 -55.4 L108.85 -55.7 M206.25 154.85 L206.6 155.85 M-147.9 -248.75 L-146.85 -248.75 Q-72.8 -248.4 -100.2 -175.0 L-100.2 -174.95 -100.2 -174.9 -100.9 -173.15 M-180.6 -183.05 Q-180.3 -191.4 -179.65 -198.35" fill="none" stroke="#333333" stroke-linecap="round" stroke-linejoin="round" stroke-width="0.05"/>
  </g>
  <defs>
    <linearGradient gradientTransform="matrix(0.108, 0.2161, -0.0886, 0.0443, 79.1, 87.2)" gradientUnits="userSpaceOnUse" id="gradient0" spreadMethod="pad" x1="-819.2" x2="819.2">
      <stop offset="0.2901960784313726" stop-color="#970198"/>
      <stop offset="0.6274509803921569" stop-color="#db02db"/>
    </linearGradient>
    <linearGradient gradientTransform="matrix(0.0453, 0.0301, -0.0251, 0.0378, -130.3, -210.2)" gradientUnits="userSpaceOnUse" id="gradient1" spreadMethod="pad" x1="-819.2" x2="819.2">
      <stop offset="0.2901960784313726" stop-color="#970198"/>
      <stop offset="0.6274509803921569" stop-color="#db02db"/>
    </linearGradient>
    <linearGradient gradientTransform="matrix(0.108, 0.2161, -0.0886, 0.0443, 79.1, 87.2)" gradientUnits="userSpaceOnUse" id="gradient2" spreadMethod="pad" x1="-819.2" x2="819.2">
      <stop offset="0.2901960784313726" stop-color="#5b015c"/>
      <stop offset="0.6274509803921569" stop-color="#db02db"/>
    </linearGradient>
    <linearGradient gradientTransform="matrix(0.0453, 0.0301, -0.0251, 0.0378, -130.3, -210.2)" gradientUnits="userSpaceOnUse" id="gradient3" spreadMethod="pad" x1="-819.2" x2="819.2">
      <stop offset="0.2901960784313726" stop-color="#5b015c"/>
      <stop offset="0.6274509803921569" stop-color="#db02db"/>
    </linearGradient>
  </defs>
</svg>
