<?xml version="1.0" encoding="UTF-8" standalone="no"?>
<svg xmlns:ffdec="https://www.free-decompiler.com/flash" xmlns:xlink="http://www.w3.org/1999/xlink" ffdec:objectType="shape" height="497.6px" width="418.45px" xmlns="http://www.w3.org/2000/svg">
  <g transform="matrix(1.0, 0.0, 0.0, 1.0, 213.55, -135.85)">
    <path d="M159.4 136.85 L154.55 136.15 156.65 135.85 159.4 136.85" fill="url(#gradient0)" fill-rule="evenodd" stroke="none"/>
    <path d="M86.6 492.5 L90.05 492.35 Q91.45 493.1 91.5 495.2 91.55 497.25 90.2 499.35 88.85 501.45 86.85 502.45 L83.4 502.6 Q81.95 501.8 81.9 499.8 81.85 497.7 83.2 495.6 84.55 493.45 86.6 492.5 M57.9 540.4 Q60.05 540.15 61.1 541.1 62.15 542.05 61.45 543.65 60.7 545.2 58.65 546.5 56.6 547.8 54.4 548.05 52.2 548.3 51.2 547.35 50.15 546.35 50.9 544.8 51.6 543.2 53.65 541.9 55.7 540.6 57.9 540.4 M-102.7 492.15 Q-105.2 491.35 -106.55 489.65 -107.95 487.95 -107.45 486.3 -107.0 484.6 -104.9 483.95 L-100.4 484.1 Q-98.0 484.85 -96.55 486.55 -95.15 488.25 -95.6 489.95 -96.1 491.6 -98.15 492.25 L-102.7 492.15 M10.7 513.75 Q13.2 514.35 14.7 516.0 16.15 517.65 15.75 519.35 15.3 521.05 13.25 521.85 L8.7 522.05 Q6.15 521.4 4.7 519.8 3.2 518.15 3.6 516.45 4.0 514.7 6.1 513.9 L10.7 513.75 M-158.15 503.75 Q-159.1 505.5 -161.2 506.5 -163.3 507.5 -165.25 507.25 -167.2 506.95 -167.9 505.5 -168.6 504.1 -167.65 502.4 -166.65 500.65 -164.55 499.6 -162.5 498.6 -160.5 498.9 -158.55 499.2 -157.85 500.65 -157.15 502.05 -158.15 503.75 M-59.05 517.1 Q-58.6 515.4 -56.5 514.65 -54.45 513.9 -51.95 514.6 -49.5 515.25 -48.05 516.95 -46.65 518.6 -47.1 520.3 -47.55 522.0 -49.6 522.75 -51.7 523.5 -54.2 522.8 -56.7 522.15 -58.1 520.45 -59.55 518.75 -59.05 517.1 M-185.9 551.95 Q-185.15 553.95 -185.7 556.45 -186.3 558.9 -187.9 560.4 -189.55 561.9 -191.2 561.55 -192.85 561.15 -193.6 559.2 -194.4 557.2 -193.8 554.75 -193.2 552.25 -191.6 550.8 -190.0 549.3 -188.3 549.65 -186.65 549.95 -185.9 551.95 M-195.05 601.25 Q-194.1 600.3 -192.55 600.9 -191.0 601.45 -189.7 603.25 -188.45 605.05 -188.25 607.0 -188.05 608.9 -189.0 609.85 -189.95 610.75 -191.5 610.2 -193.05 609.6 -194.3 607.85 -195.55 606.05 -195.75 604.15 -196.0 602.2 -195.05 601.25" fill="#540154" fill-rule="evenodd" stroke="none"/>
    <path d="M68.7 547.1 Q66.85 549.05 64.2 550.85 L63.65 551.2 63.2 551.45 Q57.45 554.9 51.25 555.45 46.35 555.85 43.3 554.25 L41.55 553.0 Q38.35 550.05 40.3 545.35 42.2 540.6 48.1 536.9 54.0 533.15 60.5 532.65 66.95 532.1 70.15 535.05 73.35 538.0 71.45 542.75 70.5 545.0 68.7 547.1 M-44.75 531.15 Q-49.95 532.7 -55.8 531.3 L-56.5 531.1 -57.0 530.95 Q-63.8 529.0 -67.65 524.05 L-68.9 522.3 Q-71.5 518.05 -70.3 513.65 -68.9 508.4 -62.8 506.0 -56.8 503.6 -49.6 505.55 -42.5 507.45 -38.4 512.6 -34.4 517.65 -35.8 522.95 -37.2 528.2 -43.25 530.6 L-44.75 531.15 M-177.7 547.1 Q-176.25 551.95 -177.4 557.6 L-177.55 558.25 -177.7 558.75 Q-179.1 564.05 -182.3 567.7 L-182.55 568.0 -184.15 569.55 Q-189.1 573.8 -194.25 572.75 -199.45 571.65 -201.9 565.8 -204.4 560.0 -202.65 552.9 -201.0 545.8 -196.1 541.55 -191.2 537.35 -186.0 538.45 -180.85 539.5 -178.35 545.3 L-177.7 547.1 M96.6 482.85 Q101.1 485.25 101.5 491.3 101.9 497.3 97.95 503.45 94.0 509.55 88.0 512.15 82.05 514.75 77.55 512.35 73.05 509.9 72.65 503.9 72.25 498.1 75.8 492.3 L76.2 491.75 76.5 491.3 Q80.35 485.55 86.1 483.05 92.1 480.4 96.6 482.85 M86.6 492.5 Q84.55 493.45 83.2 495.6 81.85 497.7 81.9 499.8 81.95 501.8 83.4 502.6 L86.85 502.45 Q88.85 501.45 90.2 499.35 91.55 497.25 91.5 495.2 91.45 493.1 90.05 492.35 L86.6 492.5 M57.9 540.4 Q55.7 540.6 53.65 541.9 51.6 543.2 50.9 544.8 50.15 546.35 51.2 547.35 52.2 548.3 54.4 548.05 56.6 547.8 58.65 546.5 60.7 545.2 61.45 543.65 62.15 542.05 61.1 541.1 60.05 540.15 57.9 540.4 M12.1 505.2 L12.75 505.35 13.3 505.5 Q20.15 507.3 24.15 512.15 28.35 517.15 27.1 522.5 25.8 527.8 19.8 530.35 13.75 532.9 6.55 531.15 -0.65 529.45 -4.85 524.45 -9.05 519.4 -7.75 514.1 -6.5 508.75 -0.5 506.2 5.25 503.75 12.1 505.2 M10.7 513.75 L6.1 513.9 Q4.0 514.7 3.6 516.45 3.2 518.15 4.7 519.8 6.15 521.4 8.7 522.05 L13.25 521.85 Q15.3 521.05 15.75 519.35 16.15 517.65 14.7 516.0 13.2 514.35 10.7 513.75 M-102.7 492.15 L-98.15 492.25 Q-96.1 491.6 -95.6 489.95 -95.15 488.25 -96.55 486.55 -98.0 484.85 -100.4 484.1 L-104.9 483.95 Q-107.0 484.6 -107.45 486.3 -107.95 487.95 -106.55 489.65 -105.2 491.35 -102.7 492.15 M-148.75 505.95 Q-151.45 511.1 -157.45 514.05 -163.4 516.95 -169.2 515.9 -174.95 514.8 -177.1 510.4 -179.3 506.0 -176.6 500.8 -174.0 495.8 -168.45 492.9 L-167.9 492.65 Q-167.7 492.5 -167.45 492.45 -161.7 489.75 -156.15 490.8 -150.35 491.85 -148.2 496.3 -146.05 500.7 -148.75 505.95 M-116.1 492.85 Q-120.1 487.65 -118.6 482.45 -117.1 477.25 -111.05 475.15 -105.05 473.0 -97.95 475.2 -90.9 477.4 -86.95 482.6 -83.0 487.8 -84.45 493.0 -85.95 498.15 -91.95 500.3 -97.75 502.35 -104.45 500.5 L-105.1 500.3 -105.6 500.1 Q-112.3 497.9 -116.1 492.85 M-158.15 503.75 Q-157.15 502.05 -157.85 500.65 -158.55 499.2 -160.5 498.9 -162.5 498.6 -164.55 499.6 -166.65 500.65 -167.65 502.4 -168.6 504.1 -167.9 505.5 -167.2 506.95 -165.25 507.25 -163.3 507.5 -161.2 506.5 -159.1 505.5 -158.15 503.75 M-59.05 517.1 Q-59.55 518.75 -58.1 520.45 -56.7 522.15 -54.2 522.8 -51.7 523.5 -49.6 522.75 -47.55 522.0 -47.1 520.3 -46.65 518.6 -48.05 516.95 -49.5 515.25 -51.95 514.6 -54.45 513.9 -56.5 514.65 -58.6 515.4 -59.05 517.1 M-203.25 598.15 Q-202.75 595.25 -200.9 593.45 -198.0 590.5 -193.35 592.05 -188.9 593.5 -185.4 598.25 L-185.05 598.7 -184.8 599.1 Q-181.45 604.0 -181.0 609.5 -180.5 615.2 -183.45 618.15 -184.5 619.2 -185.8 619.7 L-191.05 619.55 Q-195.7 618.0 -199.3 612.9 -202.9 607.8 -203.4 602.1 -203.6 599.9 -203.25 598.15 M-185.9 551.95 Q-186.65 549.95 -188.3 549.65 -190.0 549.3 -191.6 550.8 -193.2 552.25 -193.8 554.75 -194.4 557.2 -193.6 559.2 -192.85 561.15 -191.2 561.55 -189.55 561.9 -187.9 560.4 -186.3 558.9 -185.7 556.45 -185.15 553.95 -185.9 551.95 M-195.05 601.25 Q-196.0 602.2 -195.75 604.15 -195.55 606.05 -194.3 607.85 -193.05 609.6 -191.5 610.2 -189.95 610.75 -189.0 609.85 -188.05 608.9 -188.25 607.0 -188.45 605.05 -189.7 603.25 -191.0 601.45 -192.55 600.9 -194.1 600.3 -195.05 601.25" fill="#c002c1" fill-rule="evenodd" stroke="none"/>
    <path d="M107.15 440.4 Q107.0 455.75 105.95 471.15 105.05 483.6 103.4 493.85 101.75 519.9 83.4 537.25 80.15 540.35 76.35 542.75 L71.4 545.7 68.7 547.1 Q70.5 545.0 71.45 542.75 73.35 538.0 70.15 535.05 66.95 532.1 60.5 532.65 54.0 533.15 48.1 536.9 42.2 540.6 40.3 545.35 38.35 550.05 41.55 553.0 L43.3 554.25 Q35.35 554.95 27.05 553.95 1.35 550.9 -22.4 539.5 L-44.75 531.15 -43.25 530.6 Q-37.2 528.2 -35.8 522.95 -34.4 517.65 -38.4 512.6 -42.5 507.45 -49.6 505.55 -56.8 503.6 -62.8 506.0 -68.9 508.4 -70.3 513.65 -71.5 518.05 -68.9 522.3 -85.65 516.55 -103.15 513.45 L-116.85 512.9 Q-147.35 516.05 -170.5 537.2 -174.9 541.75 -177.7 547.1 L-178.35 545.3 Q-180.85 539.5 -186.0 538.45 -191.2 537.35 -196.1 541.55 -201.0 545.8 -202.65 552.9 -204.4 560.0 -201.9 565.8 -199.45 571.65 -194.25 572.75 -189.1 573.8 -184.15 569.55 L-182.55 568.0 -182.55 568.2 -182.5 571.45 Q-182.3 577.65 -181.35 583.0 L-181.05 587.25 Q-180.35 598.75 -176.1 607.95 -168.5 624.45 -149.6 633.45 -168.35 630.6 -184.3 620.6 L-185.65 619.8 -185.8 619.7 Q-184.5 619.2 -183.45 618.15 -180.5 615.2 -181.0 609.5 -181.45 604.0 -184.8 599.1 L-185.05 598.7 -185.4 598.25 Q-188.9 593.5 -193.35 592.05 -198.0 590.5 -200.9 593.45 -202.75 595.25 -203.25 598.15 -210.95 584.4 -213.1 567.8 -214.0 561.05 -213.05 554.55 -208.75 525.0 -186.5 503.85 L-182.25 499.9 -182.25 499.85 Q-150.9 473.1 -109.7 472.4 -84.15 472.0 -60.55 480.9 L-5.25 496.35 Q25.95 504.15 56.8 494.8 97.95 482.3 107.15 440.4 M96.6 482.85 Q92.1 480.4 86.1 483.05 80.35 485.55 76.5 491.3 L76.2 491.75 75.8 492.3 Q72.25 498.1 72.65 503.9 73.05 509.9 77.55 512.35 82.05 514.75 88.0 512.15 94.0 509.55 97.95 503.45 101.9 497.3 101.5 491.3 101.1 485.25 96.6 482.85 M12.1 505.2 Q5.25 503.75 -0.5 506.2 -6.5 508.75 -7.75 514.1 -9.05 519.4 -4.85 524.45 -0.65 529.45 6.55 531.15 13.75 532.9 19.8 530.35 25.8 527.8 27.1 522.5 28.35 517.15 24.15 512.15 20.15 507.3 13.3 505.5 L12.75 505.35 12.1 505.2 M-116.1 492.85 Q-112.3 497.9 -105.6 500.1 L-105.1 500.3 -104.45 500.5 Q-97.75 502.35 -91.95 500.3 -85.95 498.15 -84.45 493.0 -83.0 487.8 -86.95 482.6 -90.9 477.4 -97.95 475.2 -105.05 473.0 -111.05 475.15 -117.1 477.25 -118.6 482.45 -120.1 487.65 -116.1 492.85 M-148.75 505.95 Q-146.05 500.7 -148.2 496.3 -150.35 491.85 -156.15 490.8 -161.7 489.75 -167.45 492.45 -167.7 492.5 -167.9 492.65 L-168.45 492.9 Q-174.0 495.8 -176.6 500.8 -179.3 506.0 -177.1 510.4 -174.95 514.8 -169.2 515.9 -163.4 516.95 -157.45 514.05 -151.45 511.1 -148.75 505.95" fill="#ff00fc" fill-rule="evenodd" stroke="none"/>
    <path d="M-181.35 583.0 L-180.45 587.15 -180.45 587.2 Q-177.7 597.95 -171.5 604.8 L-170.6 605.75 -176.1 607.95 Q-180.35 598.75 -181.05 587.25 L-181.35 583.0 M-102.55 559.8 L-101.9 559.6 -101.9 559.65 -102.55 559.8" fill="url(#gradient1)" fill-rule="evenodd" stroke="none"/>
    <path d="M159.4 136.85 Q175.75 139.9 188.25 152.4 L190.05 154.25 Q204.85 170.3 204.85 192.5 204.85 215.95 188.25 232.6 L184.65 235.9 Q176.25 239.25 166.8 243.6 161.8 245.85 157.15 248.55 140.45 258.25 127.4 273.7 122.35 279.7 118.25 285.9 96.8 318.45 101.5 357.4 104.05 378.65 105.75 399.9 107.25 420.0 107.15 440.05 L107.15 440.4 Q97.95 482.3 56.8 494.8 25.95 504.15 -5.25 496.35 5.55 495.45 16.35 490.25 L19.4 488.8 Q56.35 468.15 44.3 408.95 34.85 362.45 26.8 315.8 9.25 214.1 101.2 154.05 106.45 151.45 111.6 149.15 134.1 139.2 154.55 136.15 L159.4 136.85" fill="url(#gradient2)" fill-rule="evenodd" stroke="none"/>
    <path d="M-170.6 605.75 Q-158.75 617.8 -132.65 614.55 -106.6 611.3 -102.55 559.8 L-101.9 559.65 Q-74.5 633.05 -148.55 633.45 L-149.6 633.45 Q-168.5 624.45 -176.1 607.95 L-170.6 605.75" fill="url(#gradient3)" fill-rule="evenodd" stroke="none"/>
    <path d="M159.4 136.85 Q175.75 139.9 188.25 152.4 L190.05 154.25 Q204.85 170.3 204.85 192.5 204.85 215.95 188.25 232.6 L184.65 235.9 Q176.25 239.25 166.8 243.6 161.8 245.85 157.15 248.55 140.45 258.25 127.4 273.7 122.35 279.7 118.25 285.9 96.8 318.45 101.5 357.4 104.05 378.65 105.75 399.9 107.25 420.0 107.15 440.05 L107.15 440.4 Q107.0 455.75 105.95 471.15 105.05 483.6 103.4 493.85 101.75 519.9 83.4 537.25 80.15 540.35 76.35 542.75 L71.4 545.7 68.7 547.1 M43.3 554.25 Q35.35 554.95 27.05 553.95 1.35 550.9 -22.4 539.5 L-44.75 531.15 M-68.9 522.3 Q-85.65 516.55 -103.15 513.45 L-116.85 512.9 Q-147.35 516.05 -170.5 537.2 -174.9 541.75 -177.7 547.1 M-182.3 567.7 Q-182.0 576.05 -181.35 583.0 L-180.45 587.15 -180.45 587.2 Q-177.7 597.95 -171.5 604.8 L-170.6 605.75 Q-158.75 617.8 -132.65 614.55 -106.6 611.3 -102.55 559.8 M-101.9 559.6 L-102.6 557.8 M154.55 136.15 L159.4 136.85 M154.55 136.15 Q134.1 139.2 111.6 149.15 106.45 151.45 101.2 154.05 9.25 214.1 26.8 315.8 34.85 362.45 44.3 408.95 56.35 468.15 19.4 488.8 L16.35 490.25 Q5.55 495.45 -5.25 496.35 L-60.55 480.9 Q-84.15 472.0 -109.7 472.4 -150.9 473.1 -182.25 499.85 L-182.25 499.9 -182.5 500.1 -184.6 502.0 -186.5 503.85 Q-208.75 525.0 -213.05 554.55 -214.0 561.05 -213.1 567.8 -210.95 584.4 -203.25 598.15 M204.55 229.8 L204.9 228.8 M-101.9 559.65 L-101.9 559.6 M-185.8 619.7 L-185.65 619.8 -184.3 620.6 Q-168.35 630.6 -149.6 633.45 L-148.55 633.45 Q-74.5 633.05 -101.9 559.65 M-181.35 583.0 Q-182.3 577.65 -182.5 571.45 L-182.55 568.2 -182.55 568.0" fill="none" stroke="#333333" stroke-linecap="round" stroke-linejoin="round" stroke-width="0.05"/>
  </g>
  <defs>
    <linearGradient gradientTransform="matrix(0.108, -0.2161, -0.0886, -0.0443, 77.4, 297.45)" gradientUnits="userSpaceOnUse" id="gradient0" spreadMethod="pad" x1="-819.2" x2="819.2">
      <stop offset="0.2901960784313726" stop-color="#970198"/>
      <stop offset="0.6274509803921569" stop-color="#db02db"/>
    </linearGradient>
    <linearGradient gradientTransform="matrix(0.0453, -0.0301, -0.0251, -0.0378, -132.0, 594.85)" gradientUnits="userSpaceOnUse" id="gradient1" spreadMethod="pad" x1="-819.2" x2="819.2">
      <stop offset="0.2901960784313726" stop-color="#970198"/>
      <stop offset="0.6274509803921569" stop-color="#db02db"/>
    </linearGradient>
    <linearGradient gradientTransform="matrix(0.108, -0.2161, -0.0886, -0.0443, 77.4, 297.45)" gradientUnits="userSpaceOnUse" id="gradient2" spreadMethod="pad" x1="-819.2" x2="819.2">
      <stop offset="0.2901960784313726" stop-color="#5b015c"/>
      <stop offset="0.6274509803921569" stop-color="#db02db"/>
    </linearGradient>
    <linearGradient gradientTransform="matrix(0.0453, -0.0301, -0.0251, -0.0378, -132.0, 594.85)" gradientUnits="userSpaceOnUse" id="gradient3" spreadMethod="pad" x1="-819.2" x2="819.2">
      <stop offset="0.2901960784313726" stop-color="#5b015c"/>
      <stop offset="0.6274509803921569" stop-color="#db02db"/>
    </linearGradient>
  </defs>
</svg>
