<?xml version="1.0" encoding="UTF-8" standalone="no"?>
<svg xmlns:ffdec="https://www.free-decompiler.com/flash" xmlns:xlink="http://www.w3.org/1999/xlink" ffdec:objectType="shape" height="663.35px" width="353.95px" xmlns="http://www.w3.org/2000/svg">
  <g transform="matrix(1.0, 0.0, 0.0, 1.0, -0.7, -136.55)">
    <path d="M123.9 470.55 L130.7 478.2 130.0 479.3 Q125.6 476.45 120.5 473.5 L123.9 470.55" fill="url(#gradient0)" fill-rule="evenodd" stroke="none"/>
    <path d="M111.05 288.05 Q97.95 306.7 94.25 331.9 L93.4 337.8 Q95.0 353.6 100.55 367.75 98.45 366.6 96.0 366.6 90.5 366.5 86.55 371.65 82.75 376.55 82.45 383.55 L82.45 384.2 82.4 384.75 Q82.4 391.8 86.1 396.9 89.85 402.25 95.35 402.35 100.8 402.4 104.8 397.25 108.75 392.1 108.9 384.7 L108.9 384.45 Q111.8 389.2 115.2 393.75 131.15 414.95 164.7 437.4 L191.15 454.6 Q205.95 464.3 214.2 471.3 236.7 490.3 236.7 511.2 236.7 523.45 232.9 534.25 L231.85 536.45 Q220.85 556.4 204.55 572.0 208.6 567.55 209.35 562.2 210.2 556.35 206.7 552.9 203.2 549.4 197.4 550.3 191.6 551.2 186.9 555.95 182.2 560.65 181.35 566.45 180.5 572.25 184.0 575.75 187.5 579.2 193.3 578.35 197.85 577.65 201.75 574.6 194.75 580.9 186.85 586.5 171.25 600.5 164.15 611.3 161.35 615.6 159.1 620.15 153.5 629.4 148.45 638.2 149.1 635.8 148.95 633.35 148.65 627.8 144.65 625.25 140.6 622.6 135.2 624.45 129.75 626.3 126.15 631.55 122.55 636.7 122.85 642.25 123.15 647.75 127.15 650.4 131.15 653.0 136.6 651.15 140.75 649.7 143.9 646.3 L136.85 659.35 Q127.2 677.8 126.95 699.35 126.75 720.85 135.7 727.5 130.9 725.8 126.05 723.65 108.1 715.65 100.85 690.75 98.45 682.5 97.3 674.5 L99.3 675.1 Q103.55 675.8 107.15 672.15 110.7 668.5 111.5 662.6 112.25 656.75 109.85 652.1 107.4 647.45 103.15 646.75 99.7 646.2 96.7 648.5 L97.5 642.75 Q101.35 619.7 110.25 604.5 119.1 589.3 133.5 568.65 138.1 565.05 147.4 550.25 156.7 535.45 156.7 519.0 156.7 502.55 147.4 493.1 140.75 486.35 130.0 479.3 L130.7 478.2 123.9 470.55 111.8 456.3 Q113.9 457.9 116.4 458.85 122.5 461.2 127.15 458.3 131.75 455.35 132.2 448.85 132.65 442.35 128.7 436.1 124.75 429.85 118.7 427.5 112.6 425.15 108.0 428.1 103.35 431.0 102.9 437.5 102.5 442.65 104.9 447.65 98.75 439.6 94.75 433.35 84.3 416.8 77.85 391.55 71.4 366.3 82.2 335.65 L82.55 334.6 82.85 333.8 Q83.95 330.8 85.15 327.9 95.0 303.8 111.05 288.05 M92.9 338.5 L93.4 337.8 92.9 338.5 M215.85 482.1 Q210.45 482.35 207.0 487.7 203.65 492.85 203.9 499.85 L203.95 500.5 204.0 501.05 Q204.6 508.1 208.6 512.95 212.75 518.05 218.15 517.8 223.55 517.6 227.05 512.2 230.5 506.8 230.05 499.4 229.55 492.05 225.4 486.95 221.25 481.9 215.85 482.1 M174.25 455.85 L173.8 455.5 Q168.2 451.15 161.95 450.85 155.35 450.55 151.9 454.85 148.45 459.1 150.1 465.45 151.7 471.75 157.5 476.45 163.25 481.15 169.8 481.45 176.3 481.75 179.8 477.5 183.25 473.2 181.65 466.9 180.05 460.8 174.75 456.25 L174.25 455.85 M180.4 511.7 Q175.95 506.9 170.55 507.5 165.1 508.1 161.8 513.75 158.65 519.1 159.25 526.05 L159.3 526.75 159.4 527.25 Q160.3 534.25 164.6 538.9 169.0 543.65 174.45 543.05 179.9 542.45 183.2 536.85 186.45 531.2 185.65 523.85 184.85 516.5 180.4 511.7 M131.0 577.6 L130.7 578.2 130.45 578.7 Q127.25 585.0 128.25 591.2 129.2 597.65 134.05 600.2 138.85 602.75 144.75 599.9 150.6 597.1 154.05 590.55 157.5 584.05 156.55 577.6 155.55 571.15 150.75 568.6 145.9 566.05 140.05 568.85 134.4 571.55 131.0 577.6" fill="#ff00fc" fill-rule="evenodd" stroke="none"/>
    <path d="M100.55 367.75 Q103.15 369.05 105.25 371.95 108.95 377.2 108.9 384.45 L108.9 384.7 Q108.75 392.1 104.8 397.25 100.8 402.4 95.35 402.35 89.85 402.25 86.1 396.9 82.4 391.8 82.4 384.75 L82.45 384.2 82.45 383.55 Q82.75 376.55 86.55 371.65 90.5 366.5 96.0 366.6 98.45 366.6 100.55 367.75 M204.55 572.0 L204.15 572.4 203.8 572.75 203.4 573.2 201.75 574.6 Q197.85 577.65 193.3 578.35 187.5 579.2 184.0 575.75 180.5 572.25 181.35 566.45 182.2 560.65 186.9 555.95 191.6 551.2 197.4 550.3 203.2 549.4 206.7 552.9 210.2 556.35 209.35 562.2 208.6 567.55 204.55 572.0 M104.9 447.65 Q102.5 442.65 102.9 437.5 103.35 431.0 108.0 428.1 112.6 425.15 118.7 427.5 124.75 429.85 128.7 436.1 132.65 442.35 132.2 448.85 131.75 455.35 127.15 458.3 122.5 461.2 116.4 458.85 113.9 457.9 111.8 456.3 108.9 454.1 106.65 450.75 L106.35 450.3 106.0 449.7 104.9 447.65 M96.7 648.5 Q99.7 646.2 103.15 646.75 107.4 647.45 109.85 652.1 112.25 656.75 111.5 662.6 110.7 668.5 107.15 672.15 103.55 675.8 99.3 675.1 L97.3 674.5 Q94.45 673.25 92.6 669.75 90.25 665.3 90.9 659.65 L90.95 659.25 91.05 658.7 Q91.9 653.2 95.35 649.7 L96.7 648.5 M143.9 646.3 Q140.75 649.7 136.6 651.15 131.15 653.0 127.15 650.4 123.15 647.75 122.85 642.25 122.55 636.7 126.15 631.55 129.75 626.3 135.2 624.45 140.6 622.6 144.65 625.25 148.65 627.8 148.95 633.35 149.1 635.8 148.45 638.2 147.7 641.0 145.9 643.75 L145.65 644.1 145.3 644.6 143.9 646.3 M98.35 380.05 Q97.15 378.2 95.4 378.15 93.6 378.1 92.35 379.9 91.05 381.7 91.05 384.3 91.0 386.85 92.2 388.7 93.4 390.55 95.2 390.6 96.95 390.6 98.2 388.8 99.5 387.0 99.55 384.45 99.55 381.85 98.35 380.05 M168.85 462.6 Q166.85 460.95 164.65 460.75 162.4 460.6 161.3 462.0 160.2 463.35 160.85 465.5 161.45 467.6 163.45 469.2 165.45 470.85 167.65 471.05 169.85 471.2 171.0 469.85 172.1 468.45 171.5 466.35 170.85 464.2 168.85 462.6 M174.25 455.85 L174.75 456.25 Q180.05 460.8 181.65 466.9 183.25 473.2 179.8 477.5 176.3 481.75 169.8 481.45 163.25 481.15 157.5 476.45 151.7 471.75 150.1 465.45 148.45 459.1 151.9 454.85 155.35 450.55 161.95 450.85 168.2 451.15 173.8 455.5 L174.25 455.85 M215.85 482.1 Q221.25 481.9 225.4 486.95 229.55 492.05 230.05 499.4 230.5 506.8 227.05 512.2 223.55 517.6 218.15 517.8 212.75 518.05 208.6 512.95 204.6 508.1 204.0 501.05 L203.95 500.5 203.9 499.85 Q203.65 492.85 207.0 487.7 210.45 482.35 215.85 482.1 M220.8 499.75 Q220.65 497.15 219.3 495.4 217.95 493.65 216.25 493.7 214.5 493.75 213.4 495.65 212.25 497.5 212.45 500.1 212.6 502.65 213.95 504.45 215.3 506.2 217.05 506.1 218.75 506.05 219.85 504.15 220.95 502.3 220.8 499.75 M180.4 511.7 Q184.85 516.5 185.65 523.85 186.45 531.2 183.2 536.85 179.9 542.45 174.45 543.05 169.0 543.65 164.6 538.9 160.3 534.25 159.4 527.25 L159.3 526.75 159.25 526.05 Q158.65 519.1 161.8 513.75 165.1 508.1 170.55 507.5 175.95 506.9 180.4 511.7 M176.35 524.8 Q176.05 522.25 174.6 520.55 173.15 518.9 171.45 519.1 169.65 519.25 168.65 521.2 167.55 523.15 167.85 525.75 168.15 528.3 169.6 529.95 171.05 531.6 172.8 531.45 174.55 531.25 175.6 529.3 176.6 527.35 176.35 524.8 M113.85 438.1 Q112.35 439.05 112.3 441.25 112.2 443.45 113.6 445.65 114.95 447.8 117.0 448.65 119.0 449.5 120.5 448.6 122.0 447.65 122.1 445.45 122.15 443.2 120.8 441.05 119.4 438.9 117.4 438.05 115.35 437.15 113.85 438.1 M200.25 563.7 Q200.6 561.75 199.5 560.65 198.35 559.5 196.4 559.9 194.45 560.25 192.85 561.9 191.2 563.55 190.85 565.5 190.45 567.45 191.6 568.6 192.75 569.7 194.7 569.35 196.65 568.95 198.3 567.3 199.9 565.65 200.25 563.7 M131.0 577.6 Q134.4 571.55 140.05 568.85 145.9 566.05 150.75 568.6 155.55 571.15 156.55 577.6 157.5 584.05 154.05 590.55 150.6 597.1 144.75 599.9 138.85 602.75 134.05 600.2 129.2 597.65 128.25 591.2 127.25 585.0 130.45 578.7 L130.7 578.2 131.0 577.6 M139.2 633.65 L136.1 633.55 Q134.25 634.2 133.0 636.0 131.75 637.8 131.8 639.7 131.8 641.55 133.1 642.4 L136.2 642.6 Q138.0 641.85 139.3 640.05 140.55 638.25 140.5 636.4 140.45 634.5 139.2 633.65 M141.5 578.85 Q139.5 579.9 138.3 582.15 137.1 584.45 137.35 586.65 137.6 588.8 139.2 589.65 140.7 590.45 142.7 589.4 144.65 588.4 145.85 586.15 147.05 583.85 146.8 581.7 146.5 579.5 145.0 578.65 143.4 577.85 141.5 578.85 M103.75 657.7 Q102.95 656.1 101.6 655.9 100.25 655.65 99.1 656.95 97.9 658.25 97.65 660.3 97.35 662.3 98.15 663.95 98.9 665.5 100.3 665.75 101.65 665.95 102.8 664.7 103.95 663.4 104.25 661.35 104.5 659.3 103.75 657.7" fill="#c002c1" fill-rule="evenodd" stroke="none"/>
    <path d="M98.35 380.05 Q99.55 381.85 99.55 384.45 99.5 387.0 98.2 388.8 96.95 390.6 95.2 390.6 93.4 390.55 92.2 388.7 91.0 386.85 91.05 384.3 91.05 381.7 92.35 379.9 93.6 378.1 95.4 378.15 97.15 378.2 98.35 380.05 M168.85 462.6 Q170.85 464.2 171.5 466.35 172.1 468.45 171.0 469.85 169.85 471.2 167.65 471.05 165.45 470.85 163.45 469.2 161.45 467.6 160.85 465.5 160.2 463.35 161.3 462.0 162.4 460.6 164.65 460.75 166.85 460.95 168.85 462.6 M220.8 499.75 Q220.95 502.3 219.85 504.15 218.75 506.05 217.05 506.1 215.3 506.2 213.95 504.45 212.6 502.65 212.45 500.1 212.25 497.5 213.4 495.65 214.5 493.75 216.25 493.7 217.95 493.65 219.3 495.4 220.65 497.15 220.8 499.75 M176.35 524.8 Q176.6 527.35 175.6 529.3 174.55 531.25 172.8 531.45 171.05 531.6 169.6 529.95 168.15 528.3 167.85 525.75 167.55 523.15 168.65 521.2 169.65 519.25 171.45 519.1 173.15 518.9 174.6 520.55 176.05 522.25 176.35 524.8 M200.25 563.7 Q199.9 565.65 198.3 567.3 196.65 568.95 194.7 569.35 192.75 569.7 191.6 568.6 190.45 567.45 190.85 565.5 191.2 563.55 192.85 561.9 194.45 560.25 196.4 559.9 198.35 559.5 199.5 560.65 200.6 561.75 200.25 563.7 M113.85 438.1 Q115.35 437.15 117.4 438.05 119.4 438.9 120.8 441.05 122.15 443.2 122.1 445.45 122.0 447.65 120.5 448.6 119.0 449.5 117.0 448.65 114.95 447.8 113.6 445.65 112.2 443.45 112.3 441.25 112.35 439.05 113.85 438.1 M141.5 578.85 Q143.4 577.85 145.0 578.65 146.5 579.5 146.8 581.7 147.05 583.85 145.85 586.15 144.65 588.4 142.7 589.4 140.7 590.45 139.2 589.65 137.6 588.8 137.35 586.65 137.1 584.45 138.3 582.15 139.5 579.9 141.5 578.85 M139.2 633.65 Q140.45 634.5 140.5 636.4 140.55 638.25 139.3 640.05 138.0 641.85 136.2 642.6 L133.1 642.4 Q131.8 641.55 131.8 639.7 131.75 637.8 133.0 636.0 134.25 634.2 136.1 633.55 L139.2 633.65 M103.75 657.7 Q104.5 659.3 104.25 661.35 103.95 663.4 102.8 664.7 101.65 665.95 100.3 665.75 98.9 665.5 98.15 663.95 97.35 662.3 97.65 660.3 97.9 658.25 99.1 656.95 100.25 655.65 101.6 655.9 102.95 656.1 103.75 657.7" fill="#540154" fill-rule="evenodd" stroke="none"/>
    <path d="M159.1 620.15 Q154.8 629.0 152.7 639.0 L148.45 638.2 Q153.5 629.4 159.1 620.15" fill="url(#gradient1)" fill-rule="evenodd" stroke="none"/>
    <path d="M120.5 473.5 Q101.25 460.55 85.95 451.05 74.35 443.85 60.9 432.65 L57.1 429.65 Q24.25 403.75 9.95 364.3 2.4 343.05 0.95 313.75 -0.5 284.25 6.1 260.2 12.7 236.1 20.95 222.45 48.5 176.55 97.65 153.85 L97.3 154.15 97.7 153.85 97.7 153.8 97.8 153.75 Q100.1 151.8 102.0 150.85 L102.8 150.45 107.35 148.25 114.45 145.25 Q122.0 140.3 130.7 138.2 134.05 137.35 137.6 136.95 L144.0 136.55 144.8 136.55 Q168.3 136.55 184.9 153.15 201.5 169.75 201.5 193.25 201.5 216.7 184.9 233.35 181.45 236.8 177.7 239.55 L167.2 245.55 146.9 257.15 Q125.35 268.65 112.4 286.2 L111.05 288.05 Q95.0 303.8 85.15 327.9 83.95 330.8 82.85 333.8 L82.55 334.6 82.2 335.65 Q71.4 366.3 77.85 391.55 84.3 416.8 94.75 433.35 98.75 439.6 104.9 447.65 L106.0 449.7 106.35 450.3 106.65 450.75 Q108.9 454.1 111.8 456.3 L123.9 470.55 120.5 473.5" fill="url(#gradient2)" fill-rule="evenodd" stroke="none"/>
    <path d="M152.7 639.0 Q150.7 648.45 150.7 658.95 150.7 708.8 247.65 710.2 343.1 711.55 354.35 797.15 328.4 746.5 295.2 741.3 260.4 735.85 242.45 736.25 224.5 736.55 201.25 735.9 L161.0 733.45 Q149.25 732.15 137.05 727.95 L135.7 727.5 Q126.75 720.85 126.95 699.35 127.2 677.8 136.85 659.35 L143.9 646.3 145.3 644.6 145.65 644.1 145.9 643.75 Q147.7 641.0 148.45 638.2 L152.7 639.0" fill="url(#gradient3)" fill-rule="evenodd" stroke="none"/>
    <path d="M120.5 473.5 Q101.25 460.55 85.95 451.05 74.35 443.85 60.9 432.65 L57.1 429.65 Q24.25 403.75 9.95 364.3 2.4 343.05 0.95 313.75 -0.5 284.25 6.1 260.2 12.7 236.1 20.95 222.45 48.5 176.55 97.65 153.85 L97.3 154.15 97.7 153.85 97.7 153.8 97.8 153.75 Q100.1 151.8 102.0 150.85 L102.8 150.45 107.35 148.25 114.45 145.25 Q122.0 140.3 130.7 138.2 134.05 137.35 137.6 136.95 L144.0 136.55 144.8 136.55 Q168.3 136.55 184.9 153.15 201.5 169.75 201.5 193.25 201.5 216.7 184.9 233.35 181.45 236.8 177.7 239.55 172.7 243.15 167.2 245.55 L146.9 257.15 Q125.35 268.65 112.4 286.2 L111.05 288.05 Q97.95 306.7 94.25 331.9 L93.4 337.8 Q95.0 353.6 100.55 367.75 M108.9 384.45 Q111.8 389.2 115.2 393.75 131.15 414.95 164.7 437.4 L191.15 454.6 Q205.95 464.3 214.2 471.3 236.7 490.3 236.7 511.2 236.7 523.45 232.9 534.25 L231.85 536.45 Q220.85 556.4 204.55 572.0 M201.75 574.6 Q194.75 580.9 186.85 586.5 171.25 600.5 164.15 611.3 161.35 615.6 159.1 620.15 154.8 629.0 152.7 639.0 150.7 648.45 150.7 658.95 150.7 708.8 247.65 710.2 343.1 711.55 354.35 797.15 L354.65 799.9 M130.0 479.3 Q140.75 486.35 147.4 493.1 156.7 502.55 156.7 519.0 156.7 535.45 147.4 550.25 138.1 565.05 133.5 568.65 119.1 589.3 110.25 604.5 101.35 619.7 97.5 642.75 L96.7 648.5 M97.3 674.5 Q98.45 682.5 100.85 690.75 108.1 715.65 126.05 723.65 130.9 725.8 135.7 727.5 L137.05 727.95 Q149.25 732.15 161.0 733.45 L201.25 735.9 Q224.5 736.55 242.45 736.25 260.4 735.85 295.2 741.3 328.4 746.5 354.35 797.15 M93.4 337.8 L92.9 338.5 M204.45 227.5 L203.0 227.95 M177.7 239.55 L167.2 245.55 M120.5 473.5 Q125.6 476.45 130.0 479.3" fill="none" stroke="#333333" stroke-linecap="round" stroke-linejoin="round" stroke-width="0.05"/>
  </g>
  <defs>
    <linearGradient gradientTransform="matrix(0.146, -0.0872, -0.0882, -0.1478, 128.8, 302.25)" gradientUnits="userSpaceOnUse" id="gradient0" spreadMethod="pad" x1="-819.2" x2="819.2">
      <stop offset="0.2901960784313726" stop-color="#970198"/>
      <stop offset="0.6274509803921569" stop-color="#db02db"/>
    </linearGradient>
    <linearGradient gradientTransform="matrix(0.1454, 0.048, 0.0209, -0.0634, 200.85, 688.15)" gradientUnits="userSpaceOnUse" id="gradient1" spreadMethod="pad" x1="-819.2" x2="819.2">
      <stop offset="0.2901960784313726" stop-color="#970198"/>
      <stop offset="0.6274509803921569" stop-color="#db02db"/>
    </linearGradient>
    <linearGradient gradientTransform="matrix(0.146, -0.0872, -0.0882, -0.1478, 128.8, 302.25)" gradientUnits="userSpaceOnUse" id="gradient2" spreadMethod="pad" x1="-819.2" x2="819.2">
      <stop offset="0.2901960784313726" stop-color="#5b015c"/>
      <stop offset="0.6274509803921569" stop-color="#db02db"/>
    </linearGradient>
    <linearGradient gradientTransform="matrix(0.1454, 0.048, 0.0209, -0.0634, 200.85, 688.15)" gradientUnits="userSpaceOnUse" id="gradient3" spreadMethod="pad" x1="-819.2" x2="819.2">
      <stop offset="0.2901960784313726" stop-color="#5b015c"/>
      <stop offset="0.6274509803921569" stop-color="#db02db"/>
    </linearGradient>
  </defs>
</svg>
