<?xml version="1.0" encoding="UTF-8" standalone="no"?>
<svg xmlns:ffdec="https://www.free-decompiler.com/flash" xmlns:xlink="http://www.w3.org/1999/xlink" ffdec:objectType="shape" height="673.0px" width="423.85px" xmlns="http://www.w3.org/2000/svg">
  <g transform="matrix(1.0, 0.0, 0.0, 1.0, 216.95, -138.0)">
    <path d="M70.65 455.3 L73.0 458.9 Q70.7 458.1 68.35 457.9 L66.8 457.85 70.65 455.3" fill="url(#gradient0)" fill-rule="evenodd" stroke="none"/>
    <path d="M73.0 458.9 Q76.6 460.15 79.95 462.95 L80.45 463.4 80.85 463.75 Q86.0 468.55 87.3 474.7 88.0 478.0 87.4 480.7 L87.3 481.05 Q86.65 483.35 85.0 485.2 81.35 489.3 74.85 488.7 68.35 488.15 62.85 483.2 57.3 478.3 55.95 471.9 54.6 465.5 58.25 461.45 61.4 457.85 66.8 457.85 L68.35 457.9 Q70.7 458.1 73.0 458.9 M109.1 564.7 Q112.0 568.85 112.1 575.2 L112.1 575.85 112.1 576.35 Q111.95 583.05 108.8 588.35 105.5 593.85 100.9 594.6 L99.7 594.7 Q95.9 594.75 93.1 590.9 89.9 586.5 89.95 579.5 90.0 572.5 93.25 567.0 96.55 561.55 101.1 560.8 105.7 560.05 108.9 564.45 L109.1 564.7 M70.75 618.95 Q69.05 623.95 64.65 627.95 L64.1 628.35 63.7 628.7 Q58.2 633.15 51.95 633.6 47.9 633.85 45.0 632.35 43.2 631.4 41.9 629.85 38.35 625.7 39.85 619.35 41.3 613.0 46.95 608.2 52.6 603.4 59.1 602.95 65.6 602.5 69.15 606.7 72.7 610.85 71.25 617.2 L70.75 618.95 M-92.2 673.95 L-92.35 674.15 Q-95.6 679.0 -101.9 681.25 -108.2 683.5 -113.85 681.8 L-115.55 681.15 Q-119.7 679.3 -121.1 675.4 -122.75 670.75 -119.5 665.9 -116.35 661.2 -110.45 658.95 L-109.9 658.75 -109.45 658.6 Q-103.4 656.55 -97.95 658.25 -92.35 659.95 -90.7 664.65 -89.1 669.2 -92.2 673.95 M16.2 432.55 Q18.1 438.8 15.25 443.0 12.4 447.15 6.45 446.8 0.45 446.5 -5.1 441.9 -10.7 437.25 -12.6 431.05 -14.55 424.8 -11.7 420.65 -8.85 416.5 -2.9 416.8 2.8 417.1 8.2 421.3 L8.7 421.75 9.1 422.05 Q14.35 426.55 16.2 432.55 M6.6 435.35 Q7.55 434.0 6.85 431.95 6.1 429.85 4.15 428.25 2.2 426.6 0.2 426.45 -1.85 426.25 -2.75 427.6 -3.65 428.95 -2.95 431.05 -2.25 433.1 -0.3 434.7 1.65 436.3 3.7 436.5 5.7 436.7 6.6 435.35 M23.4 505.55 Q19.15 503.6 15.8 499.6 L15.4 499.05 15.05 498.6 Q10.8 492.95 10.65 486.65 10.6 485.2 10.8 483.9 11.4 479.3 14.8 476.7 19.1 473.3 25.45 475.05 31.7 476.75 36.3 482.65 40.9 488.45 41.1 495.05 41.25 501.55 36.95 504.95 32.6 508.35 26.35 506.6 24.8 506.2 23.4 505.55 M20.5 489.5 Q20.65 491.7 22.25 493.75 23.8 495.8 25.95 496.45 28.05 497.1 29.45 496.05 30.85 494.95 30.7 492.75 30.55 490.5 28.95 488.5 27.35 486.45 25.25 485.8 23.15 485.1 21.75 486.2 20.35 487.3 20.5 489.5 M67.2 468.85 Q66.0 470.15 66.55 472.3 67.1 474.45 69.0 476.15 70.9 477.85 73.1 478.15 75.3 478.4 76.5 477.1 77.65 475.8 77.15 473.65 76.6 471.5 74.7 469.8 72.75 468.05 70.55 467.8 68.35 467.5 67.2 468.85 M69.65 513.4 Q74.8 511.5 80.25 515.05 85.5 518.4 88.15 524.9 L88.35 525.55 88.55 526.05 Q90.9 532.7 89.15 538.75 87.35 545.05 82.2 546.95 77.05 548.85 71.6 545.3 66.1 541.75 63.55 534.8 60.9 527.85 62.7 521.6 64.5 515.3 69.65 513.4 M74.1 524.15 Q72.45 524.75 71.9 526.9 71.35 529.05 72.3 531.45 73.15 533.85 75.0 535.15 76.8 536.4 78.45 535.8 80.1 535.2 80.65 533.05 81.15 530.9 80.3 528.5 79.35 526.05 77.55 524.8 75.75 523.5 74.1 524.15 M34.6 561.05 Q37.8 559.7 41.2 559.55 47.75 559.25 51.2 563.55 54.65 567.8 53.05 574.15 51.4 580.45 45.65 585.15 39.85 589.85 33.35 590.15 26.8 590.45 23.35 586.2 20.95 583.25 21.0 579.45 20.95 577.6 21.5 575.6 23.05 569.5 28.35 564.95 L28.9 564.55 29.3 564.2 Q31.85 562.2 34.6 561.05 M-49.7 619.0 Q-43.65 621.35 -42.15 626.5 -40.65 631.7 -44.65 636.7 -48.55 641.5 -55.2 643.45 L-55.85 643.65 -56.4 643.75 Q-63.3 645.4 -69.15 643.15 -75.3 640.75 -76.8 635.55 -77.9 631.65 -75.85 627.85 L-74.2 625.35 Q-70.2 620.35 -63.05 618.5 -55.9 616.6 -49.75 618.95 L-49.7 619.0 M34.3 571.3 Q32.25 572.9 31.65 575.05 31.0 577.15 32.15 578.55 33.25 579.9 35.45 579.75 37.65 579.55 39.65 577.9 41.65 576.3 42.3 574.2 42.9 572.05 41.8 570.7 40.7 569.3 38.5 569.45 36.25 569.65 34.3 571.3 M98.8 582.1 Q99.8 583.65 101.3 583.45 102.75 583.2 103.85 581.3 104.9 579.4 104.9 577.0 104.9 574.55 103.9 573.0 102.85 571.45 101.35 571.7 99.9 571.95 98.85 573.85 97.8 575.7 97.8 578.15 97.75 580.55 98.8 582.1 M57.25 613.4 Q55.05 613.6 53.1 615.25 51.1 616.9 50.55 619.05 49.95 621.2 51.1 622.55 52.2 623.9 54.45 623.65 56.6 623.4 58.6 621.75 60.55 620.1 61.15 617.95 61.7 615.8 60.55 614.5 59.4 613.15 57.25 613.4 M11.4 625.75 Q13.4 630.85 9.95 636.4 6.65 641.7 0.25 644.45 L-0.4 644.7 -0.9 644.9 Q-7.55 647.35 -13.6 645.7 -19.9 644.0 -21.9 638.9 -23.95 633.8 -20.45 628.25 -17.05 622.7 -10.1 620.0 -3.25 617.25 3.1 618.95 9.4 620.65 11.4 625.75 M0.75 630.4 Q0.05 628.75 -2.05 628.25 -4.25 627.75 -6.6 628.7 -9.0 629.65 -10.25 631.45 -11.5 633.3 -10.85 634.95 -10.2 636.55 -8.05 637.1 -5.9 637.55 -3.5 636.65 -1.1 635.7 0.15 633.85 1.4 632.0 0.75 630.4 M-40.6 389.6 Q-43.7 383.45 -44.2 377.0 -44.8 370.2 -42.25 367.05 -39.75 363.85 -35.6 366.1 -31.5 368.25 -28.2 374.6 -24.9 380.9 -24.35 387.7 -23.8 394.4 -26.3 397.6 -28.8 400.75 -32.9 398.55 -36.85 396.45 -40.05 390.6 L-40.35 390.05 -40.6 389.6 M-35.0 377.1 Q-36.4 376.25 -37.2 377.3 -38.0 378.3 -37.75 380.6 -37.55 382.9 -36.4 385.1 -35.25 387.25 -33.85 388.1 -32.45 388.9 -31.65 387.9 -30.85 386.85 -31.1 384.6 -31.35 382.3 -32.45 380.15 -33.6 377.9 -35.0 377.1 M-175.55 667.15 Q-170.4 663.0 -164.55 662.75 -158.75 662.55 -155.7 666.35 -152.65 670.15 -154.1 675.75 -155.5 681.15 -160.25 685.2 L-160.7 685.55 -161.1 685.85 Q-166.1 689.7 -171.65 689.95 -177.5 690.15 -180.55 686.35 -183.65 682.55 -182.15 676.9 -180.7 671.3 -175.55 667.15 M-163.1 676.2 Q-162.55 674.3 -163.55 673.1 -164.55 671.9 -166.5 672.05 -168.45 672.2 -170.25 673.65 -172.05 675.05 -172.6 676.95 -173.2 678.8 -172.2 680.05 -171.2 681.3 -169.25 681.15 -167.3 681.0 -165.5 679.55 -163.7 678.1 -163.1 676.2 M-62.75 635.35 L-58.15 635.45 Q-55.65 634.8 -54.2 633.15 -52.8 631.5 -53.25 629.8 -53.75 628.15 -55.85 627.45 L-60.45 627.35 Q-62.95 628.0 -64.35 629.65 -65.8 631.3 -65.3 632.95 -64.85 634.6 -62.75 635.35 M-107.35 666.1 Q-109.55 666.85 -110.75 668.45 -111.9 670.05 -111.35 671.6 -110.85 673.05 -108.9 673.6 L-104.8 673.3 Q-102.6 672.55 -101.45 670.95 -100.25 669.3 -100.8 667.85 -101.35 666.3 -103.25 665.8 L-107.35 666.1" fill="#c002c1" fill-rule="evenodd" stroke="none"/>
    <path d="M-39.65 304.9 L-38.2 305.45 Q-45.0 328.75 -35.15 351.45 -19.45 387.7 11.1 412.7 L66.8 457.85 Q61.4 457.85 58.25 461.45 54.6 465.5 55.95 471.9 57.3 478.3 62.85 483.2 68.35 488.15 74.85 488.7 81.35 489.3 85.0 485.2 86.65 483.35 87.3 481.05 L91.0 487.1 Q95.95 495.3 99.0 501.15 108.3 518.85 109.75 540.65 L110.0 548.6 Q110.0 557.15 109.1 564.7 L108.9 564.45 Q105.7 560.05 101.1 560.8 96.55 561.55 93.25 567.0 90.0 572.5 89.95 579.5 89.9 586.5 93.1 590.9 95.9 594.75 99.7 594.7 92.6 606.7 80.65 613.45 L70.75 618.95 71.25 617.2 Q72.7 610.85 69.15 606.7 65.6 602.5 59.1 602.95 52.6 603.4 46.95 608.2 41.3 613.0 39.85 619.35 38.35 625.7 41.9 629.85 43.2 631.4 45.0 632.35 L35.55 636.65 Q19.85 643.35 -15.4 654.6 -50.7 665.75 -79.35 671.05 -85.3 672.15 -92.2 673.95 -89.1 669.2 -90.7 664.65 -92.35 659.95 -97.95 658.25 -103.4 656.55 -109.45 658.6 L-109.9 658.75 -110.45 658.95 Q-116.35 661.2 -119.5 665.9 -122.75 670.75 -121.1 675.4 -119.7 679.3 -115.55 681.15 -127.75 685.3 -142.0 691.0 L-161.45 695.3 -153.5 695.3 -161.25 696.15 Q-187.3 699.8 -201.65 713.7 -209.95 721.75 -212.4 733.1 -213.35 737.5 -213.65 741.9 -218.45 727.65 -216.25 715.45 -209.5 677.4 -166.15 660.15 -122.8 642.85 -86.65 631.3 L-75.85 627.85 Q-77.9 631.65 -76.8 635.55 -75.3 640.75 -69.15 643.15 -63.3 645.4 -56.4 643.75 L-55.85 643.65 -55.2 643.45 Q-48.55 641.5 -44.65 636.7 -40.65 631.7 -42.15 626.5 -43.65 621.35 -49.7 619.0 -40.6 615.75 -34.45 613.25 -8.95 602.75 6.9 591.25 14.95 585.3 21.0 579.45 20.95 583.25 23.35 586.2 26.8 590.45 33.35 590.15 39.85 589.85 45.65 585.15 51.4 580.45 53.05 574.15 54.65 567.8 51.2 563.55 47.75 559.25 41.2 559.55 37.8 559.7 34.6 561.05 40.7 547.85 35.9 534.9 29.7 518.3 23.4 505.55 24.8 506.2 26.35 506.6 32.6 508.35 36.95 504.95 41.25 501.55 41.1 495.05 40.9 488.45 36.3 482.65 31.7 476.75 25.45 475.05 19.1 473.3 14.8 476.7 11.4 479.3 10.8 483.9 1.1 469.5 -12.05 453.55 -28.15 434.15 -36.25 415.65 -44.4 397.1 -47.0 375.45 -49.75 352.25 -47.05 335.2 -44.35 318.15 -40.25 306.65 L-39.65 304.95 -39.65 304.9 M16.2 432.55 Q14.35 426.55 9.1 422.05 L8.7 421.75 8.2 421.3 Q2.8 417.1 -2.9 416.8 -8.85 416.5 -11.7 420.65 -14.55 424.8 -12.6 431.05 -10.7 437.25 -5.1 441.9 0.45 446.5 6.45 446.8 12.4 447.15 15.25 443.0 18.1 438.8 16.2 432.55 M69.65 513.4 Q64.5 515.3 62.7 521.6 60.9 527.85 63.55 534.8 66.1 541.75 71.6 545.3 77.05 548.85 82.2 546.95 87.35 545.05 89.15 538.75 90.9 532.7 88.55 526.05 L88.35 525.55 88.15 524.9 Q85.5 518.4 80.25 515.05 74.8 511.5 69.65 513.4 M11.4 625.75 Q9.4 620.65 3.1 618.95 -3.25 617.25 -10.1 620.0 -17.05 622.7 -20.45 628.25 -23.95 633.8 -21.9 638.9 -19.9 644.0 -13.6 645.7 -7.55 647.35 -0.9 644.9 L-0.4 644.7 0.25 644.45 Q6.65 641.7 9.95 636.4 13.4 630.85 11.4 625.75 M-40.6 389.6 L-40.35 390.05 -40.05 390.6 Q-36.85 396.45 -32.9 398.55 -28.8 400.75 -26.3 397.6 -23.8 394.4 -24.35 387.7 -24.9 380.9 -28.2 374.6 -31.5 368.25 -35.6 366.1 -39.75 363.85 -42.25 367.05 -44.8 370.2 -44.2 377.0 -43.7 383.45 -40.6 389.6 M-175.55 667.15 Q-180.7 671.3 -182.15 676.9 -183.65 682.55 -180.55 686.35 -177.5 690.15 -171.65 689.95 -166.1 689.7 -161.1 685.85 L-160.7 685.55 -160.25 685.2 Q-155.5 681.15 -154.1 675.75 -152.65 670.15 -155.7 666.35 -158.75 662.55 -164.55 662.75 -170.4 663.0 -175.55 667.15" fill="#ff00fc" fill-rule="evenodd" stroke="none"/>
    <path d="M6.6 435.35 Q5.7 436.7 3.7 436.5 1.65 436.3 -0.3 434.7 -2.25 433.1 -2.95 431.05 -3.65 428.95 -2.75 427.6 -1.85 426.25 0.2 426.45 2.2 426.6 4.15 428.25 6.1 429.85 6.85 431.95 7.55 434.0 6.6 435.35 M20.5 489.5 Q20.35 487.3 21.75 486.2 23.15 485.1 25.25 485.8 27.35 486.45 28.95 488.5 30.55 490.5 30.7 492.75 30.85 494.95 29.45 496.05 28.05 497.1 25.95 496.45 23.8 495.8 22.25 493.75 20.65 491.7 20.5 489.5 M67.2 468.85 Q68.35 467.5 70.55 467.8 72.75 468.05 74.7 469.8 76.6 471.5 77.15 473.65 77.65 475.8 76.5 477.1 75.3 478.4 73.1 478.15 70.9 477.85 69.0 476.15 67.1 474.45 66.55 472.3 66.0 470.15 67.2 468.85 M74.1 524.15 Q75.75 523.5 77.55 524.8 79.35 526.05 80.3 528.5 81.15 530.9 80.65 533.05 80.1 535.2 78.45 535.8 76.8 536.4 75.0 535.15 73.15 533.85 72.3 531.45 71.35 529.05 71.9 526.9 72.45 524.75 74.1 524.15 M34.3 571.3 Q36.25 569.65 38.5 569.45 40.7 569.3 41.8 570.7 42.9 572.05 42.3 574.2 41.65 576.3 39.65 577.9 37.65 579.55 35.45 579.75 33.25 579.9 32.15 578.55 31.0 577.15 31.65 575.05 32.25 572.9 34.3 571.3 M98.8 582.1 Q97.75 580.55 97.8 578.15 97.8 575.7 98.85 573.85 99.9 571.95 101.35 571.7 102.85 571.45 103.9 573.0 104.9 574.55 104.9 577.0 104.9 579.4 103.85 581.3 102.75 583.2 101.3 583.45 99.8 583.65 98.8 582.1 M57.25 613.4 Q59.4 613.15 60.55 614.5 61.7 615.8 61.15 617.95 60.55 620.1 58.6 621.75 56.6 623.4 54.45 623.65 52.2 623.9 51.1 622.55 49.95 621.2 50.55 619.05 51.1 616.9 53.1 615.25 55.05 613.6 57.25 613.4 M0.75 630.4 Q1.4 632.0 0.15 633.85 -1.1 635.7 -3.5 636.65 -5.9 637.55 -8.05 637.1 -10.2 636.55 -10.85 634.95 -11.5 633.3 -10.25 631.45 -9.0 629.65 -6.6 628.7 -4.25 627.75 -2.05 628.25 0.05 628.75 0.75 630.4 M-35.0 377.1 Q-33.6 377.9 -32.45 380.15 -31.35 382.3 -31.1 384.6 -30.85 386.85 -31.65 387.9 -32.45 388.9 -33.85 388.1 -35.25 387.25 -36.4 385.1 -37.55 382.9 -37.75 380.6 -38.0 378.3 -37.2 377.3 -36.4 376.25 -35.0 377.1 M-163.1 676.2 Q-163.7 678.1 -165.5 679.55 -167.3 681.0 -169.25 681.15 -171.2 681.3 -172.2 680.05 -173.2 678.8 -172.6 676.95 -172.05 675.05 -170.25 673.65 -168.45 672.2 -166.5 672.05 -164.55 671.9 -163.55 673.1 -162.55 674.3 -163.1 676.2 M-62.75 635.35 Q-64.85 634.6 -65.3 632.95 -65.8 631.3 -64.35 629.65 -62.95 628.0 -60.45 627.35 L-55.85 627.45 Q-53.75 628.15 -53.25 629.8 -52.8 631.5 -54.2 633.15 -55.65 634.8 -58.15 635.45 L-62.75 635.35 M-107.35 666.1 L-103.25 665.8 Q-101.35 666.3 -100.8 667.85 -100.25 669.3 -101.45 670.95 -102.6 672.55 -104.8 673.3 L-108.9 673.6 Q-110.85 673.05 -111.35 671.6 -111.9 670.05 -110.75 668.45 -109.55 666.85 -107.35 666.1" fill="#540154" fill-rule="evenodd" stroke="none"/>
    <path d="M-39.65 304.9 Q-35.7 294.05 -29.55 280.95 -22.9 266.75 6.85 232.0 31.85 202.7 103.3 160.3 116.1 152.7 130.45 144.7 L132.1 143.75 Q141.75 138.05 155.8 138.0 174.75 140.15 188.85 154.2 205.45 170.8 205.65 194.25 205.8 217.7 189.35 234.3 L183.2 240.0 169.65 248.05 130.25 272.05 129.0 273.9 Q93.1 291.95 67.5 323.55 L64.25 327.55 58.3 333.75 Q52.8 339.45 47.75 352.95 42.7 366.45 42.8 383.25 42.85 400.0 49.95 417.35 56.25 432.75 70.65 455.3 L66.8 457.85 11.1 412.7 Q-19.45 387.7 -35.15 351.45 -45.0 328.75 -38.2 305.45 L-39.65 304.9 M-36.4 301.55 L-38.2 305.45 -36.4 301.55" fill="url(#gradient1)" fill-rule="evenodd" stroke="none"/>
    <path d="M-213.65 741.9 Q-213.35 737.5 -212.4 733.1 -209.95 721.75 -201.65 713.7 -187.3 699.8 -161.25 696.15 L-160.65 698.7 Q-213.15 721.0 -162.05 810.75 L-162.5 811.0 Q-203.6 771.95 -213.65 741.9" fill="url(#gradient2)" fill-rule="evenodd" stroke="none"/>
    <path d="M130.25 272.05 L169.65 248.05 183.2 240.0 189.35 234.3 Q205.8 217.7 205.65 194.25 205.45 170.8 188.85 154.2 174.75 140.15 155.8 138.0 141.75 138.05 132.1 143.75 L130.45 144.7 Q116.1 152.7 103.3 160.3 31.85 202.7 6.85 232.0 -22.9 266.75 -29.55 280.95 -35.7 294.05 -39.65 304.9 L-39.65 304.95 -40.25 306.65 Q-44.35 318.15 -47.05 335.2 -49.75 352.25 -47.0 375.45 -44.4 397.1 -36.25 415.65 -28.15 434.15 -12.05 453.55 1.1 469.5 10.8 483.9 M-38.2 305.45 L-36.4 301.55 M129.0 273.9 Q93.1 291.95 67.5 323.55 L64.25 327.55 58.3 333.75 Q52.8 339.45 47.75 352.95 42.7 366.45 42.8 383.25 42.85 400.0 49.95 417.35 56.25 432.75 70.65 455.3 L73.0 458.9 M87.4 480.7 L91.0 487.1 Q95.95 495.3 99.0 501.15 108.3 518.85 109.75 540.65 L109.85 542.05 109.9 543.3 109.9 543.95 110.0 545.95 110.0 548.6 Q110.0 557.15 109.1 564.7 M99.7 594.7 Q92.6 606.7 80.65 613.45 L70.75 618.95 M45.0 632.35 L35.55 636.65 Q19.85 643.35 -15.4 654.6 -50.7 665.75 -79.35 671.05 -85.3 672.15 -92.2 673.95 M-115.55 681.15 Q-127.75 685.3 -142.0 691.0 L-138.9 690.4 M206.9 229.0 L206.6 229.85 M87.3 481.05 L91.0 487.1 M23.4 505.55 Q29.7 518.3 35.9 534.9 40.7 547.85 34.6 561.05 M21.0 579.45 Q14.95 585.3 6.9 591.25 -8.95 602.75 -34.45 613.25 -40.6 615.75 -49.7 619.0 M-75.85 627.85 L-86.65 631.3 Q-122.8 642.85 -166.15 660.15 -209.5 677.4 -216.25 715.45 -218.45 727.65 -213.65 741.9 -203.6 771.95 -162.5 811.0 M-142.0 691.0 L-160.65 698.7 Q-213.15 721.0 -162.05 810.75" fill="none" stroke="#333333" stroke-linecap="round" stroke-linejoin="round" stroke-width="0.05"/>
  </g>
  <defs>
    <linearGradient gradientTransform="matrix(0.16, -0.0871, -0.0735, -0.135, 106.5, 301.1)" gradientUnits="userSpaceOnUse" id="gradient0" spreadMethod="pad" x1="-819.2" x2="819.2">
      <stop offset="0.2901960784313726" stop-color="#970198"/>
      <stop offset="0.6274509803921569" stop-color="#db02db"/>
    </linearGradient>
    <linearGradient gradientTransform="matrix(0.16, -0.0871, -0.0735, -0.135, 106.5, 301.1)" gradientUnits="userSpaceOnUse" id="gradient1" spreadMethod="pad" x1="-819.2" x2="819.2">
      <stop offset="0.2901960784313726" stop-color="#5b015c"/>
      <stop offset="0.6274509803921569" stop-color="#db02db"/>
    </linearGradient>
    <linearGradient gradientTransform="matrix(0.0, 0.0701, 0.0323, 0.0, -187.15, 753.55)" gradientUnits="userSpaceOnUse" id="gradient2" spreadMethod="pad" x1="-819.2" x2="819.2">
      <stop offset="0.2901960784313726" stop-color="#5b015c"/>
      <stop offset="0.6274509803921569" stop-color="#db02db"/>
    </linearGradient>
  </defs>
</svg>
