<?xml version="1.0" encoding="UTF-8" standalone="no"?>
<svg xmlns:ffdec="https://www.free-decompiler.com/flash" xmlns:xlink="http://www.w3.org/1999/xlink" ffdec:objectType="shape" height="663.35px" width="353.95px" xmlns="http://www.w3.org/2000/svg">
  <g transform="matrix(1.0, 0.0, 0.0, 1.0, -5.75, 414.5)">
    <path d="M157.75 -253.6 Q159.85 -243.6 164.15 -234.75 158.55 -244.0 153.5 -252.8 L157.75 -253.6" fill="url(#gradient0)" fill-rule="evenodd" stroke="none"/>
    <path d="M164.15 -234.75 Q166.4 -230.2 169.2 -225.9 176.3 -215.1 191.9 -201.1 199.8 -195.5 206.8 -189.15 202.9 -192.25 198.35 -192.9 192.55 -193.8 189.05 -190.3 185.55 -186.85 186.4 -181.05 187.25 -175.25 191.95 -170.5 196.65 -165.8 202.45 -164.9 208.25 -164.0 211.75 -167.45 215.25 -170.95 214.4 -176.75 213.65 -182.15 209.6 -186.6 225.9 -171.0 236.9 -151.05 L237.95 -148.85 Q241.75 -138.05 241.75 -125.8 241.75 -104.9 219.25 -85.9 211.0 -78.9 196.2 -69.2 178.75 -58.05 169.75 -52.0 136.2 -29.55 120.25 -8.35 116.85 -3.8 113.95 0.95 L113.95 0.75 Q113.8 -6.7 109.85 -11.8 105.85 -17.0 100.4 -16.9 94.9 -16.85 91.15 -11.5 87.45 -6.4 87.45 0.65 L87.5 1.2 87.5 1.9 Q87.8 8.85 91.6 13.8 95.55 18.9 101.05 18.85 103.5 18.8 105.6 17.7 100.05 31.8 98.45 47.65 L99.3 53.5 Q103.0 78.7 116.1 97.35 100.05 81.6 90.2 57.5 L87.9 51.65 87.6 50.85 87.25 49.8 Q76.45 19.1 82.9 -6.15 89.35 -31.4 99.8 -47.9 103.8 -54.2 109.95 -62.2 107.55 -57.25 107.95 -52.1 108.4 -45.6 113.05 -42.7 117.65 -39.75 123.75 -42.1 129.8 -44.45 133.75 -50.7 137.7 -56.95 137.25 -63.45 136.8 -69.95 132.2 -72.85 127.55 -75.8 121.45 -73.45 118.95 -72.5 116.85 -70.9 122.25 -77.55 128.95 -85.1 L135.75 -92.8 135.05 -93.9 Q145.8 -100.95 152.45 -107.65 161.75 -117.15 161.75 -133.6 161.75 -150.05 152.45 -164.85 143.15 -179.65 138.55 -183.25 124.15 -203.9 115.3 -219.1 106.4 -234.3 102.55 -257.35 L101.75 -263.05 Q104.75 -260.8 108.2 -261.35 112.45 -262.05 114.9 -266.65 117.3 -271.35 116.55 -277.2 115.75 -283.1 112.2 -286.7 108.6 -290.4 104.35 -289.7 L102.35 -289.1 Q103.5 -297.1 105.9 -305.3 113.15 -330.25 131.1 -338.2 135.95 -340.4 140.75 -342.05 131.8 -335.45 132.0 -313.9 132.25 -292.4 141.9 -273.95 145.25 -267.55 148.95 -260.9 145.8 -264.3 141.65 -265.75 136.2 -267.6 132.2 -264.95 128.2 -262.35 127.9 -256.85 127.6 -251.3 131.2 -246.1 134.8 -240.9 140.25 -239.05 145.65 -237.2 149.7 -239.8 153.7 -242.4 154.0 -247.95 154.15 -250.4 153.5 -252.8 158.55 -244.0 164.15 -234.75 M149.8 -214.5 Q143.9 -217.35 139.1 -214.75 134.25 -212.25 133.3 -205.75 132.3 -199.6 135.5 -193.25 L135.75 -192.8 136.05 -192.2 Q139.45 -186.15 145.1 -183.45 150.95 -180.65 155.8 -183.2 160.6 -185.75 161.6 -192.15 162.55 -198.65 159.1 -205.15 155.65 -211.7 149.8 -214.5 M156.95 -69.4 Q160.4 -65.15 167.0 -65.45 173.25 -65.75 178.85 -70.1 L179.3 -70.4 179.8 -70.85 Q185.1 -75.4 186.7 -81.45 188.3 -87.8 184.85 -92.05 181.35 -96.35 174.85 -96.05 168.3 -95.75 162.55 -91.05 156.75 -86.35 155.15 -80.05 153.5 -73.7 156.95 -69.4 M169.65 -153.45 Q165.35 -148.85 164.45 -141.85 L164.35 -141.3 164.3 -140.65 Q163.7 -133.7 166.85 -128.3 170.15 -122.7 175.6 -122.1 181.0 -121.5 185.45 -126.25 189.9 -131.1 190.7 -138.4 191.5 -145.8 188.25 -151.4 184.95 -157.05 179.5 -157.65 174.05 -158.25 169.65 -153.45 M223.2 -132.4 Q217.8 -132.65 213.65 -127.55 209.65 -122.7 209.05 -115.6 L209.0 -115.1 208.95 -114.4 Q208.7 -107.45 212.05 -102.3 215.5 -96.95 220.9 -96.7 226.3 -96.5 230.45 -101.55 234.6 -106.65 235.1 -114.0 235.55 -121.4 232.1 -126.75 228.6 -132.2 223.2 -132.4 M97.95 46.9 L98.45 47.65 97.95 46.9" fill="#ff00fc" fill-rule="evenodd" stroke="none"/>
    <path d="M138.15 -257.0 L141.25 -257.15 Q143.05 -256.45 144.35 -254.65 145.6 -252.85 145.55 -250.95 145.5 -249.1 144.25 -248.25 L141.15 -248.1 Q139.3 -248.8 138.05 -250.6 136.8 -252.4 136.85 -254.3 136.85 -256.15 138.15 -257.0 M102.7 -274.85 Q102.4 -276.9 103.2 -278.5 103.95 -280.1 105.35 -280.3 106.7 -280.55 107.85 -279.25 109.0 -278.0 109.3 -275.95 109.55 -273.9 108.8 -272.3 108.0 -270.7 106.65 -270.45 105.3 -270.25 104.15 -271.5 102.95 -272.85 102.7 -274.85 M144.25 -204.2 L147.75 -204.0 Q149.7 -203.0 150.9 -200.7 152.1 -198.45 151.85 -196.25 151.55 -194.1 150.05 -193.25 148.45 -192.45 146.55 -193.45 144.55 -194.5 143.35 -196.75 142.15 -199.05 142.4 -201.2 142.65 -203.4 144.25 -204.2 M122.05 -63.25 L125.55 -63.15 Q127.05 -62.25 127.15 -60.0 127.2 -57.8 125.85 -55.65 124.45 -53.5 122.45 -52.6 L118.9 -52.7 Q117.4 -53.65 117.35 -55.8 117.25 -58.05 118.65 -60.2 120.0 -62.4 122.05 -63.25 M205.3 -178.3 Q205.65 -176.35 204.55 -175.2 203.4 -174.1 201.45 -174.5 199.5 -174.85 197.9 -176.5 196.25 -178.15 195.9 -180.1 195.5 -182.05 196.65 -183.15 197.8 -184.3 199.75 -183.9 201.7 -183.55 203.35 -181.9 204.95 -180.25 205.3 -178.3 M100.25 -5.15 Q102.0 -5.2 103.25 -3.4 104.55 -1.6 104.6 1.0 104.6 3.55 103.4 5.4 102.2 7.2 100.45 7.25 98.65 7.3 97.4 5.5 96.1 3.7 96.1 1.1 96.05 -1.45 97.25 -3.3 98.45 -5.15 100.25 -5.15 M180.65 -143.85 Q181.65 -141.95 181.4 -139.35 181.1 -136.85 179.65 -135.15 178.2 -133.5 176.5 -133.65 174.7 -133.85 173.7 -135.8 172.6 -137.75 172.9 -140.3 173.2 -142.9 174.65 -144.55 176.1 -146.2 177.85 -146.0 179.6 -145.85 180.65 -143.85 M166.35 -76.55 Q165.25 -77.95 165.9 -80.05 166.5 -82.2 168.5 -83.8 170.5 -85.45 172.7 -85.6 174.9 -85.8 176.05 -84.4 177.15 -83.05 176.55 -80.95 175.9 -78.8 173.9 -77.15 171.9 -75.55 169.7 -75.35 167.45 -75.2 166.35 -76.55 M217.5 -114.65 Q217.65 -117.25 219.0 -119.0 220.35 -120.8 222.1 -120.7 223.8 -120.65 224.9 -118.75 226.0 -116.9 225.85 -114.3 225.7 -111.75 224.35 -110.0 223.0 -108.25 221.3 -108.3 219.55 -108.35 218.45 -110.2 217.3 -112.1 217.5 -114.65" fill="#540154" fill-rule="evenodd" stroke="none"/>
    <path d="M206.8 -189.15 L208.45 -187.75 208.85 -187.3 209.2 -187.0 209.6 -186.6 Q213.65 -182.15 214.4 -176.75 215.25 -170.95 211.75 -167.45 208.25 -164.0 202.45 -164.9 196.65 -165.8 191.95 -170.5 187.25 -175.25 186.4 -181.05 185.55 -186.85 189.05 -190.3 192.55 -193.8 198.35 -192.9 202.9 -192.25 206.8 -189.15 M113.95 0.95 Q114.0 8.2 110.3 13.45 108.2 16.35 105.6 17.7 103.5 18.8 101.05 18.85 95.55 18.9 91.6 13.8 87.8 8.85 87.5 1.9 L87.5 1.2 87.45 0.65 Q87.45 -6.4 91.15 -11.5 94.9 -16.85 100.4 -16.9 105.85 -17.0 109.85 -11.8 113.8 -6.7 113.95 0.75 L113.95 0.95 M101.75 -263.05 L100.4 -264.3 Q96.95 -267.8 96.1 -273.3 L96.0 -273.8 95.95 -274.25 Q95.3 -279.9 97.65 -284.35 99.5 -287.85 102.35 -289.1 L104.35 -289.7 Q108.6 -290.4 112.2 -286.7 115.75 -283.1 116.55 -277.2 117.3 -271.35 114.9 -266.65 112.45 -262.05 108.2 -261.35 104.75 -260.8 101.75 -263.05 M148.95 -260.9 L150.35 -259.15 150.7 -258.7 150.95 -258.3 Q152.75 -255.6 153.5 -252.8 154.15 -250.4 154.0 -247.95 153.7 -242.4 149.7 -239.8 145.65 -237.2 140.25 -239.05 134.8 -240.9 131.2 -246.1 127.6 -251.3 127.9 -256.85 128.2 -262.35 132.2 -264.95 136.2 -267.6 141.65 -265.75 145.8 -264.3 148.95 -260.9 M138.15 -257.0 Q136.85 -256.15 136.85 -254.3 136.8 -252.4 138.05 -250.6 139.3 -248.8 141.15 -248.1 L144.25 -248.25 Q145.5 -249.1 145.55 -250.95 145.6 -252.85 144.35 -254.65 143.05 -256.45 141.25 -257.15 L138.15 -257.0 M102.7 -274.85 Q102.95 -272.85 104.15 -271.5 105.3 -270.25 106.65 -270.45 108.0 -270.7 108.8 -272.3 109.55 -273.9 109.3 -275.95 109.0 -278.0 107.85 -279.25 106.7 -280.55 105.35 -280.3 103.95 -280.1 103.2 -278.5 102.4 -276.9 102.7 -274.85 M149.8 -214.5 Q155.65 -211.7 159.1 -205.15 162.55 -198.65 161.6 -192.15 160.6 -185.75 155.8 -183.2 150.95 -180.65 145.1 -183.45 139.45 -186.15 136.05 -192.2 L135.75 -192.8 135.5 -193.25 Q132.3 -199.6 133.3 -205.75 134.25 -212.25 139.1 -214.75 143.9 -217.35 149.8 -214.5 M144.25 -204.2 Q142.65 -203.4 142.4 -201.2 142.15 -199.05 143.35 -196.75 144.55 -194.5 146.55 -193.45 148.45 -192.45 150.05 -193.25 151.55 -194.1 151.85 -196.25 152.1 -198.45 150.9 -200.7 149.7 -203.0 147.75 -204.0 L144.25 -204.2 M116.85 -70.9 Q118.95 -72.5 121.45 -73.45 127.55 -75.8 132.2 -72.85 136.8 -69.95 137.25 -63.45 137.7 -56.95 133.75 -50.7 129.8 -44.45 123.75 -42.1 117.65 -39.75 113.05 -42.7 108.4 -45.6 107.95 -52.1 107.55 -57.25 109.95 -62.2 L111.05 -64.3 111.4 -64.85 111.7 -65.3 Q113.95 -68.7 116.85 -70.9 M122.05 -63.25 Q120.0 -62.4 118.65 -60.2 117.25 -58.05 117.35 -55.8 117.4 -53.65 118.9 -52.7 L122.45 -52.6 Q124.45 -53.5 125.85 -55.65 127.2 -57.8 127.15 -60.0 127.05 -62.25 125.55 -63.15 L122.05 -63.25 M156.95 -69.4 Q153.5 -73.7 155.15 -80.05 156.75 -86.35 162.55 -91.05 168.3 -95.75 174.85 -96.05 181.35 -96.35 184.85 -92.05 188.3 -87.8 186.7 -81.45 185.1 -75.4 179.8 -70.85 L179.3 -70.4 178.85 -70.1 Q173.25 -65.75 167.0 -65.45 160.4 -65.15 156.95 -69.4 M100.25 -5.15 Q98.45 -5.15 97.25 -3.3 96.05 -1.45 96.1 1.1 96.1 3.7 97.4 5.5 98.65 7.3 100.45 7.25 102.2 7.2 103.4 5.4 104.6 3.55 104.6 1.0 104.55 -1.6 103.25 -3.4 102.0 -5.2 100.25 -5.15 M205.3 -178.3 Q204.95 -180.25 203.35 -181.9 201.7 -183.55 199.75 -183.9 197.8 -184.3 196.65 -183.15 195.5 -182.05 195.9 -180.1 196.25 -178.15 197.9 -176.5 199.5 -174.85 201.45 -174.5 203.4 -174.1 204.55 -175.2 205.65 -176.35 205.3 -178.3 M169.65 -153.45 Q174.05 -158.25 179.5 -157.65 184.95 -157.05 188.25 -151.4 191.5 -145.8 190.7 -138.4 189.9 -131.1 185.45 -126.25 181.0 -121.5 175.6 -122.1 170.15 -122.7 166.85 -128.3 163.7 -133.7 164.3 -140.65 L164.35 -141.3 164.45 -141.85 Q165.35 -148.85 169.65 -153.45 M180.65 -143.85 Q179.6 -145.85 177.85 -146.0 176.1 -146.2 174.65 -144.55 173.2 -142.9 172.9 -140.3 172.6 -137.75 173.7 -135.8 174.7 -133.85 176.5 -133.65 178.2 -133.5 179.65 -135.15 181.1 -136.85 181.4 -139.35 181.65 -141.95 180.65 -143.85 M223.2 -132.4 Q228.6 -132.2 232.1 -126.75 235.55 -121.4 235.1 -114.0 234.6 -106.65 230.45 -101.55 226.3 -96.5 220.9 -96.7 215.5 -96.95 212.05 -102.3 208.7 -107.45 208.95 -114.4 L209.0 -115.1 209.05 -115.6 Q209.65 -122.7 213.65 -127.55 217.8 -132.65 223.2 -132.4 M217.5 -114.65 Q217.3 -112.1 218.45 -110.2 219.55 -108.35 221.3 -108.3 223.0 -108.25 224.35 -110.0 225.7 -111.75 225.85 -114.3 226.0 -116.9 224.9 -118.75 223.8 -120.65 222.1 -120.7 220.35 -120.8 219.0 -119.0 217.65 -117.25 217.5 -114.65 M166.35 -76.55 Q167.45 -75.2 169.7 -75.35 171.9 -75.55 173.9 -77.15 175.9 -78.8 176.55 -80.95 177.15 -83.05 176.05 -84.4 174.9 -85.8 172.7 -85.6 170.5 -85.45 168.5 -83.8 166.5 -82.2 165.9 -80.05 165.25 -77.95 166.35 -76.55" fill="#c002c1" fill-rule="evenodd" stroke="none"/>
    <path d="M125.55 -88.1 L135.05 -93.9 135.75 -92.8 128.95 -85.1 125.55 -88.1" fill="url(#gradient1)" fill-rule="evenodd" stroke="none"/>
    <path d="M116.1 97.35 L117.45 99.2 Q130.4 116.75 151.95 128.3 L172.25 139.9 182.75 145.9 Q186.5 148.6 189.95 152.1 206.55 168.7 206.55 192.15 206.55 215.65 189.95 232.25 173.35 248.85 149.85 248.85 L149.05 248.85 142.65 248.5 135.75 247.25 Q127.05 245.1 119.5 240.2 L112.4 237.15 107.85 235.0 107.05 234.6 Q105.15 233.6 102.85 231.65 L102.75 231.6 102.35 231.25 102.7 231.6 Q53.55 208.85 26.0 162.95 17.75 149.3 11.15 125.25 4.55 101.15 6.0 71.65 7.45 42.35 15.0 21.1 29.3 -18.35 62.15 -44.25 L65.95 -47.2 Q79.4 -58.45 91.0 -65.65 106.3 -75.15 125.55 -88.1 L128.95 -85.1 Q122.25 -77.55 116.85 -70.9 113.95 -68.7 111.7 -65.3 L111.4 -64.85 111.05 -64.3 109.95 -62.2 Q103.8 -54.2 99.8 -47.9 89.35 -31.4 82.9 -6.15 76.45 19.1 87.25 49.8 L87.6 50.85 87.9 51.65 90.2 57.5 Q100.05 81.6 116.1 97.35" fill="url(#gradient2)" fill-rule="evenodd" stroke="none"/>
    <path d="M140.75 -342.05 L142.1 -342.55 Q154.3 -346.75 166.05 -348.0 L206.3 -350.5 Q229.55 -351.15 247.5 -350.8 265.45 -350.45 300.25 -355.9 333.45 -361.1 359.4 -411.75 348.15 -326.15 252.7 -324.75 155.75 -323.4 155.75 -273.55 155.75 -263.05 157.75 -253.6 L153.5 -252.8 Q152.75 -255.6 150.95 -258.3 L150.7 -258.7 150.35 -259.15 148.95 -260.9 Q145.25 -267.55 141.9 -273.95 132.25 -292.4 132.0 -313.9 131.8 -335.45 140.75 -342.05" fill="url(#gradient3)" fill-rule="evenodd" stroke="none"/>
    <path d="M359.4 -411.75 L359.7 -414.5 M140.75 -342.05 L142.1 -342.55 Q154.3 -346.75 166.05 -348.0 L206.3 -350.5 Q229.55 -351.15 247.5 -350.8 265.45 -350.45 300.25 -355.9 333.45 -361.1 359.4 -411.75 348.15 -326.15 252.7 -324.75 155.75 -323.4 155.75 -273.55 155.75 -263.05 157.75 -253.6 159.85 -243.6 164.15 -234.75 166.4 -230.2 169.2 -225.9 176.3 -215.1 191.9 -201.1 199.8 -195.5 206.8 -189.15 M209.6 -186.6 Q225.9 -171.0 236.9 -151.05 L237.95 -148.85 Q241.75 -138.05 241.75 -125.8 241.75 -104.9 219.25 -85.9 211.0 -78.9 196.2 -69.2 178.75 -58.05 169.75 -52.0 136.2 -29.55 120.25 -8.35 116.85 -3.8 113.95 0.95 M105.6 17.7 Q100.05 31.8 98.45 47.65 L99.3 53.5 Q103.0 78.7 116.1 97.35 L117.45 99.2 Q130.4 116.75 151.95 128.3 L172.25 139.9 Q177.75 142.25 182.75 145.9 186.5 148.6 189.95 152.1 206.55 168.7 206.55 192.15 206.55 215.65 189.95 232.25 173.35 248.85 149.85 248.85 L149.05 248.85 142.65 248.5 135.75 247.25 Q127.05 245.1 119.5 240.2 L112.4 237.15 107.85 235.0 107.05 234.6 Q105.15 233.6 102.85 231.65 L102.75 231.6 102.35 231.25 102.7 231.6 Q53.55 208.85 26.0 162.95 17.75 149.3 11.15 125.25 4.55 101.15 6.0 71.65 7.45 42.35 15.0 21.1 29.3 -18.35 62.15 -44.25 L65.95 -47.2 Q79.4 -58.45 91.0 -65.65 106.3 -75.15 125.55 -88.1 L135.05 -93.9 Q145.8 -100.95 152.45 -107.65 161.75 -117.15 161.75 -133.6 161.75 -150.05 152.45 -164.85 143.15 -179.65 138.55 -183.25 124.15 -203.9 115.3 -219.1 106.4 -234.3 102.55 -257.35 L101.75 -263.05 M102.35 -289.1 Q103.5 -297.1 105.9 -305.3 113.15 -330.25 131.1 -338.2 135.95 -340.4 140.75 -342.05 M182.75 145.9 L172.25 139.9 M209.5 157.9 L208.05 157.5 M98.45 47.65 L97.95 46.9" fill="none" stroke="#333333" stroke-linecap="round" stroke-linejoin="round" stroke-width="0.05"/>
  </g>
  <defs>
    <linearGradient gradientTransform="matrix(0.1454, -0.048, 0.0209, 0.0634, 205.9, -302.75)" gradientUnits="userSpaceOnUse" id="gradient0" spreadMethod="pad" x1="-819.2" x2="819.2">
      <stop offset="0.2901960784313726" stop-color="#970198"/>
      <stop offset="0.6274509803921569" stop-color="#db02db"/>
    </linearGradient>
    <linearGradient gradientTransform="matrix(0.146, 0.0872, -0.0882, 0.1478, 133.85, 83.15)" gradientUnits="userSpaceOnUse" id="gradient1" spreadMethod="pad" x1="-819.2" x2="819.2">
      <stop offset="0.2901960784313726" stop-color="#970198"/>
      <stop offset="0.6274509803921569" stop-color="#db02db"/>
    </linearGradient>
    <linearGradient gradientTransform="matrix(0.146, 0.0872, -0.0882, 0.1478, 133.85, 83.15)" gradientUnits="userSpaceOnUse" id="gradient2" spreadMethod="pad" x1="-819.2" x2="819.2">
      <stop offset="0.2901960784313726" stop-color="#5b015c"/>
      <stop offset="0.6274509803921569" stop-color="#db02db"/>
    </linearGradient>
    <linearGradient gradientTransform="matrix(0.1454, -0.048, 0.0209, 0.0634, 205.9, -302.75)" gradientUnits="userSpaceOnUse" id="gradient3" spreadMethod="pad" x1="-819.2" x2="819.2">
      <stop offset="0.2901960784313726" stop-color="#5b015c"/>
      <stop offset="0.6274509803921569" stop-color="#db02db"/>
    </linearGradient>
  </defs>
</svg>
