<?xml version="1.0" encoding="UTF-8" standalone="no"?>
<svg xmlns:ffdec="https://www.free-decompiler.com/flash" xmlns:xlink="http://www.w3.org/1999/xlink" ffdec:objectType="shape" height="325.95px" width="475.0px" xmlns="http://www.w3.org/2000/svg">
  <g transform="matrix(1.0, 0.0, 0.0, 1.0, 267.0, -139.5)">
    <path d="M-2.9 251.5 L2.0 252.05 Q-1.35 258.25 -4.9 263.6 L-5.65 263.1 Q-3.45 257.4 -2.9 251.5" fill="url(#gradient0)" fill-rule="evenodd" stroke="none"/>
    <path d="M-61.1 298.8 Q-63.9 300.7 -67.5 301.8 -72.3 303.3 -76.7 302.8 L-80.75 301.85 Q-86.95 299.7 -88.55 294.45 -90.2 289.2 -86.35 283.95 -82.65 278.85 -76.0 276.6 L-75.35 276.4 -74.85 276.25 Q-68.05 274.3 -62.1 276.4 -55.9 278.55 -54.25 283.8 -52.65 289.05 -56.5 294.35 -58.45 296.95 -61.1 298.8 M-265.2 397.4 L-265.95 394.65 -266.05 394.1 -266.1 393.65 -266.25 391.95 Q-266.5 387.25 -264.05 383.9 -261.05 379.8 -255.85 380.1 -250.65 380.35 -246.2 384.85 -241.85 389.35 -240.85 395.45 -239.85 401.5 -242.85 405.6 -245.85 409.7 -251.05 409.4 -256.25 409.1 -260.65 404.65 -263.8 401.4 -265.2 397.4 M-226.65 319.2 Q-225.7 314.45 -221.65 310.4 L-221.25 310.0 -220.9 309.7 Q-216.45 305.65 -211.1 304.75 L-209.85 304.55 Q-205.15 304.1 -202.2 306.75 -198.95 309.7 -199.85 314.9 -200.75 320.05 -205.35 324.4 -209.9 328.75 -215.5 329.75 -221.05 330.65 -224.35 327.7 -227.65 324.7 -226.75 319.55 L-226.65 319.2 M-140.45 269.6 Q-138.0 267.8 -134.8 266.7 L-134.15 266.5 -133.65 266.3 Q-127.5 264.4 -122.0 265.9 L-120.9 266.25 Q-114.65 268.3 -112.95 273.5 -111.25 278.7 -115.0 284.1 -118.8 289.4 -125.85 291.75 -132.9 294.05 -139.15 292.0 -145.35 289.95 -147.05 284.75 -148.8 279.5 -145.0 274.2 -143.15 271.5 -140.45 269.6 M-38.85 253.0 Q-36.55 248.55 -32.1 245.65 L-31.55 245.35 -31.15 245.1 Q-28.4 243.45 -25.6 242.85 L-20.1 242.7 Q-14.4 243.6 -12.05 248.45 -9.75 253.3 -12.2 259.25 -14.65 265.15 -20.4 268.7 -26.15 272.25 -31.85 271.35 -37.55 270.45 -39.85 265.6 -42.15 260.75 -39.75 254.85 L-38.85 253.0 M-257.25 391.05 Q-258.2 392.45 -257.85 394.55 -257.5 396.65 -256.05 398.25 -254.65 399.8 -252.95 399.9 -251.3 399.95 -250.35 398.55 -249.4 397.1 -249.75 395.0 -250.1 392.9 -251.5 391.35 -252.95 389.8 -254.6 389.7 -256.3 389.6 -257.25 391.05 M-177.45 302.8 L-176.85 302.5 -176.35 302.25 Q-170.05 298.95 -163.8 299.85 -157.3 300.75 -154.7 305.6 -152.05 310.45 -154.85 316.4 -157.6 322.3 -164.15 325.85 -170.65 329.4 -177.15 328.5 -183.65 327.6 -186.25 322.75 -188.9 317.9 -186.15 312.0 -183.5 306.3 -177.45 302.8 M-176.05 313.35 Q-177.05 315.3 -176.2 316.85 -175.4 318.4 -173.15 318.65 -170.95 318.85 -168.7 317.65 -166.45 316.4 -165.4 314.45 -164.4 312.45 -165.25 310.9 -166.1 309.35 -168.3 309.1 -170.5 308.85 -172.75 310.1 -175.05 311.35 -176.05 313.35 M-218.1 318.0 Q-218.45 319.75 -217.4 320.7 -216.35 321.65 -214.45 321.25 -212.6 320.85 -211.0 319.4 -209.4 317.85 -209.05 316.15 -208.65 314.4 -209.7 313.45 -210.8 312.45 -212.65 312.85 -214.55 313.2 -216.1 314.75 -217.7 316.25 -218.1 318.0 M-229.15 346.3 L-228.75 345.95 Q-223.4 341.25 -217.1 340.65 -210.6 340.0 -206.9 344.1 -203.2 348.1 -204.5 354.55 -205.75 360.95 -211.25 366.0 -216.75 371.0 -223.25 371.65 -229.75 372.3 -233.45 368.25 -237.15 364.15 -235.9 357.8 -234.7 351.6 -229.65 346.8 L-229.15 346.3 M-217.6 359.1 Q-215.7 357.35 -215.2 355.2 -214.7 353.0 -215.85 351.75 -217.05 350.4 -219.25 350.7 -221.45 351.0 -223.35 352.75 -225.3 354.5 -225.8 356.65 -226.3 358.8 -225.1 360.1 -223.9 361.4 -221.7 361.1 -219.55 360.8 -217.6 359.1 M-76.7 287.2 Q-78.1 288.95 -77.55 290.65 -77.05 292.3 -74.9 292.95 L-70.35 292.85 Q-67.9 292.1 -66.5 290.35 -65.1 288.6 -65.65 286.95 -66.2 285.25 -68.3 284.6 L-72.85 284.7 Q-75.35 285.45 -76.7 287.2 M-24.05 251.95 Q-26.0 251.7 -27.95 252.95 -30.0 254.2 -30.9 256.2 -31.75 258.15 -31.0 259.7 -30.3 261.25 -28.35 261.5 -26.4 261.7 -24.4 260.5 -22.4 259.25 -21.5 257.3 -20.6 255.3 -21.35 253.75 -22.1 252.2 -24.05 251.95 M-125.05 280.25 Q-123.7 278.5 -124.25 276.85 -124.8 275.15 -126.95 274.5 L-131.5 274.7 Q-134.0 275.5 -135.35 277.3 -136.7 279.05 -136.1 280.7 -135.55 282.4 -133.45 283.0 L-128.85 282.85 Q-126.4 282.0 -125.05 280.25" fill="#c002c1" fill-rule="evenodd" stroke="none"/>
    <path d="M-171.65 336.5 L-172.05 336.7 Q-183.95 343.25 -193.55 350.3 -203.2 357.35 -211.25 367.9 -221.55 381.45 -229.25 396.45 -232.9 403.65 -235.3 411.5 -241.45 431.65 -226.95 446.6 -237.2 439.85 -246.05 431.0 -255.9 421.1 -261.45 408.5 -263.85 403.0 -265.2 397.4 -263.8 401.4 -260.65 404.65 -256.25 409.1 -251.05 409.4 -245.85 409.7 -242.85 405.6 -239.85 401.5 -240.85 395.45 -241.85 389.35 -246.2 384.85 -250.65 380.35 -255.85 380.1 -261.05 379.8 -264.05 383.9 -266.5 387.25 -266.25 391.95 -267.65 382.9 -266.35 373.45 -265.75 369.25 -264.2 365.25 -256.95 346.75 -242.25 333.25 L-226.65 319.2 -226.75 319.55 Q-227.65 324.7 -224.35 327.7 -221.05 330.65 -215.5 329.75 -209.9 328.75 -205.35 324.4 -200.75 320.05 -199.85 314.9 -198.95 309.7 -202.2 306.75 -205.15 304.1 -209.85 304.55 -196.9 293.9 -182.1 285.75 -164.55 276.15 -145.25 270.85 L-140.45 269.6 Q-143.15 271.5 -145.0 274.2 -148.8 279.5 -147.05 284.75 -145.35 289.95 -139.15 292.0 -132.9 294.05 -125.85 291.75 -118.8 289.4 -115.0 284.1 -111.25 278.7 -112.95 273.5 -114.65 268.3 -120.9 266.25 L-122.0 265.9 -106.9 264.2 -70.4 260.65 Q-54.0 259.2 -38.85 253.0 L-39.75 254.85 Q-42.15 260.75 -39.85 265.6 -37.55 270.45 -31.85 271.35 -26.15 272.25 -20.4 268.7 -14.65 265.15 -12.2 259.25 -9.75 253.3 -12.05 248.45 -14.4 243.6 -20.1 242.7 L-25.6 242.85 Q-24.35 241.05 -23.35 239.05 -15.95 224.4 -22.45 209.6 -24.25 205.55 -27.75 202.65 -14.3 210.85 -6.8 228.85 -2.0 240.55 -2.9 251.5 -3.45 257.4 -5.65 263.1 L-4.9 263.6 Q-8.65 269.05 -12.65 273.55 -19.7 281.5 -30.4 287.45 -41.1 293.4 -55.9 297.4 L-61.1 298.8 Q-58.45 296.95 -56.5 294.35 -52.65 289.05 -54.25 283.8 -55.9 278.55 -62.1 276.4 -68.05 274.3 -74.85 276.25 L-75.35 276.4 -76.0 276.6 Q-82.65 278.85 -86.35 283.95 -90.2 289.2 -88.55 294.45 -86.95 299.7 -80.75 301.85 L-76.7 302.8 -97.15 307.85 Q-121.55 313.8 -144.35 324.7 L-144.85 324.95 -148.35 326.2 Q-161.3 330.8 -171.65 336.5 M-177.45 302.8 Q-183.5 306.3 -186.15 312.0 -188.9 317.9 -186.25 322.75 -183.65 327.6 -177.15 328.5 -170.65 329.4 -164.15 325.85 -157.6 322.3 -154.85 316.4 -152.05 310.45 -154.7 305.6 -157.3 300.75 -163.8 299.85 -170.05 298.95 -176.35 302.25 L-176.85 302.5 -177.45 302.8 M-229.15 346.3 L-229.65 346.8 Q-234.7 351.6 -235.9 357.8 -237.15 364.15 -233.45 368.25 -229.75 372.3 -223.25 371.65 -216.75 371.0 -211.25 366.0 -205.75 360.95 -204.5 354.55 -203.2 348.1 -206.9 344.1 -210.6 340.0 -217.1 340.65 -223.4 341.25 -228.75 345.95 L-229.15 346.3" fill="#ff00fc" fill-rule="evenodd" stroke="none"/>
    <path d="M-257.25 391.05 Q-256.3 389.6 -254.6 389.7 -252.95 389.8 -251.5 391.35 -250.1 392.9 -249.75 395.0 -249.4 397.1 -250.35 398.55 -251.3 399.95 -252.95 399.9 -254.65 399.8 -256.05 398.25 -257.5 396.65 -257.85 394.55 -258.2 392.45 -257.25 391.05 M-176.05 313.35 Q-175.05 311.35 -172.75 310.1 -170.5 308.85 -168.3 309.1 -166.1 309.35 -165.25 310.9 -164.4 312.45 -165.4 314.45 -166.45 316.4 -168.7 317.65 -170.95 318.85 -173.15 318.65 -175.4 318.4 -176.2 316.85 -177.05 315.3 -176.05 313.35 M-218.1 318.0 Q-217.7 316.25 -216.1 314.75 -214.55 313.2 -212.65 312.85 -210.8 312.45 -209.7 313.45 -208.65 314.4 -209.05 316.15 -209.4 317.85 -211.0 319.4 -212.6 320.85 -214.45 321.25 -216.35 321.65 -217.4 320.7 -218.45 319.75 -218.1 318.0 M-217.6 359.1 Q-219.55 360.8 -221.7 361.1 -223.9 361.4 -225.1 360.1 -226.3 358.8 -225.8 356.65 -225.3 354.5 -223.35 352.75 -221.45 351.0 -219.25 350.7 -217.05 350.4 -215.85 351.75 -214.7 353.0 -215.2 355.2 -215.7 357.35 -217.6 359.1 M-76.7 287.2 Q-75.35 285.45 -72.85 284.7 L-68.3 284.6 Q-66.2 285.25 -65.65 286.95 -65.1 288.6 -66.5 290.35 -67.9 292.1 -70.35 292.85 L-74.9 292.95 Q-77.05 292.3 -77.55 290.65 -78.1 288.95 -76.7 287.2 M-24.05 251.95 Q-22.1 252.2 -21.35 253.75 -20.6 255.3 -21.5 257.3 -22.4 259.25 -24.4 260.5 -26.4 261.7 -28.35 261.5 -30.3 261.25 -31.0 259.7 -31.75 258.15 -30.9 256.2 -30.0 254.2 -27.95 252.95 -26.0 251.7 -24.05 251.95 M-125.05 280.25 Q-126.4 282.0 -128.85 282.85 L-133.45 283.0 Q-135.55 282.4 -136.1 280.7 -136.7 279.05 -135.35 277.3 -134.0 275.5 -131.5 274.7 L-126.95 274.5 Q-124.8 275.15 -124.25 276.85 -123.7 278.5 -125.05 280.25" fill="#540154" fill-rule="evenodd" stroke="none"/>
    <path d="M-170.25 339.3 L-171.65 336.5 Q-161.3 330.8 -148.35 326.2 L-148.15 326.6 Q-161.05 333.0 -170.25 339.3" fill="url(#gradient1)" fill-rule="evenodd" stroke="none"/>
    <path d="M-144.85 324.95 L-148.15 326.6 -148.35 326.2 -144.85 324.95" fill="#970198" fill-rule="evenodd" stroke="none"/>
    <path d="M-170.25 339.3 Q-178.65 345.0 -183.95 350.65 -195.2 362.4 -199.25 371.75 -203.35 381.1 -196.1 386.45 -188.9 391.8 -171.7 392.95 -154.55 394.05 -129.75 390.05 -104.95 386.05 -87.55 379.7 -70.2 373.3 -50.9 364.9 -31.6 356.5 -16.15 339.35 -0.75 322.15 5.95 293.6 12.6 265.05 24.65 240.7 36.7 216.3 73.3 179.4 88.7 163.85 107.4 153.55 112.25 150.85 117.35 148.55 123.55 145.7 130.1 143.4 L133.35 142.3 136.5 141.3 137.2 141.15 144.1 139.9 151.3 139.5 Q174.8 139.5 191.4 156.1 208.0 172.7 208.0 196.2 208.0 219.65 191.4 236.3 L187.25 240.1 Q179.05 244.75 170.2 249.85 L143.25 265.25 Q138.2 268.15 133.35 271.5 125.05 277.25 117.35 284.5 112.25 289.25 107.4 294.65 101.05 301.65 95.2 309.8 73.9 339.0 64.35 354.9 54.75 370.75 32.4 397.85 10.05 424.95 -12.45 436.2 -34.95 447.4 -69.7 457.75 -104.45 468.1 -157.7 464.55 -201.55 461.6 -226.4 446.95 L-226.95 446.6 Q-241.45 431.65 -235.3 411.5 -232.9 403.65 -229.25 396.45 -221.55 381.45 -211.25 367.9 -203.2 357.35 -193.55 350.3 -183.95 343.25 -172.05 336.7 L-171.65 336.5 -170.25 339.3" fill="url(#gradient2)" fill-rule="evenodd" stroke="none"/>
    <path d="M-51.65 217.1 Q-45.9 215.9 -57.55 226.3 -69.2 236.65 -84.8 233.4 -100.35 230.15 -106.95 216.05 -113.5 201.9 -95.65 186.85 -77.85 171.8 -53.0 171.55 -28.15 171.3 -11.25 182.7 5.6 194.1 7.15 216.75 8.7 239.4 2.0 252.05 L-2.9 251.5 Q-2.0 240.55 -6.8 228.85 -14.3 210.85 -27.75 202.65 L-28.55 202.0 Q-30.5 200.4 -32.9 199.1 -47.4 191.1 -59.2 191.4 -71.0 191.65 -79.4 195.8 -87.8 199.95 -89.2 207.25 -90.65 214.5 -87.8 216.8 -85.0 219.1 -80.1 221.3 -75.2 223.5 -62.65 221.1 L-51.65 217.1 -50.65 217.1 -50.65 218.1 -50.65 217.1 -51.65 217.1" fill="url(#gradient3)" fill-rule="evenodd" stroke="none"/>
    <path d="M187.25 240.1 L191.4 236.3 Q208.0 219.65 208.0 196.2 208.0 172.7 191.4 156.1 174.8 139.5 151.3 139.5 L144.1 139.9 137.2 141.15 136.5 141.3 133.35 142.3 130.1 143.4 Q123.55 145.7 117.35 148.55 112.25 150.85 107.4 153.55 88.7 163.85 73.3 179.4 36.7 216.3 24.65 240.7 12.6 265.05 5.95 293.6 -0.75 322.15 -16.15 339.35 -31.6 356.5 -50.9 364.9 -70.2 373.3 -87.55 379.7 -104.95 386.05 -129.75 390.05 -154.55 394.05 -171.7 392.95 -188.9 391.8 -196.1 386.45 -203.35 381.1 -199.25 371.75 -195.2 362.4 -183.95 350.65 -178.65 345.0 -170.25 339.3 -161.05 333.0 -148.15 326.6 L-144.85 324.95 -144.35 324.7 Q-121.55 313.8 -97.15 307.85 L-76.7 302.8 M-226.95 446.6 L-226.4 446.95 Q-201.55 461.6 -157.7 464.55 -104.45 468.1 -69.7 457.75 -34.95 447.4 -12.45 436.2 10.05 424.95 32.4 397.85 54.75 370.75 64.35 354.9 73.9 339.0 95.2 309.8 101.05 301.65 107.4 294.65 112.25 289.25 117.35 284.5 125.05 277.25 133.35 271.5 138.2 268.15 143.25 265.25 L170.2 249.85 Q179.4 246.65 187.25 240.1 M136.5 141.3 Q133.2 142.15 130.1 143.4 M2.0 252.05 Q8.7 239.4 7.15 216.75 5.6 194.1 -11.25 182.7 -28.15 171.3 -53.0 171.55 -77.85 171.8 -95.65 186.85 -113.5 201.9 -106.95 216.05 -100.35 230.15 -84.8 233.4 -69.2 236.65 -57.55 226.3 -45.9 215.9 -51.65 217.1 L-50.65 217.1 -50.65 218.1 M-51.65 217.1 L-62.65 221.1 Q-75.2 223.5 -80.1 221.3 -85.0 219.1 -87.8 216.8 -90.65 214.5 -89.2 207.25 -87.8 199.95 -79.4 195.8 -71.0 191.65 -59.2 191.4 -47.4 191.1 -32.9 199.1 -30.5 200.4 -28.55 202.0 L-27.75 202.65 Q-24.25 205.55 -22.45 209.6 -15.95 224.4 -23.35 239.05 -24.35 241.05 -25.6 242.85 M2.0 252.05 Q-1.35 258.25 -4.9 263.6 -8.65 269.05 -12.65 273.55 -19.7 281.5 -30.4 287.45 -41.1 293.4 -55.9 297.4 L-61.1 298.8 M-266.25 391.95 Q-267.65 382.9 -266.35 373.45 -265.75 369.25 -264.2 365.25 -256.95 346.75 -242.25 333.25 L-226.65 319.2 M-209.85 304.55 Q-196.9 293.9 -182.1 285.75 -164.55 276.15 -145.25 270.85 L-140.45 269.6 M-122.0 265.9 L-106.9 264.2 -70.4 260.65 Q-54.0 259.2 -38.85 253.0 M-265.2 397.4 Q-263.85 403.0 -261.45 408.5 -255.9 421.1 -246.05 431.0 -237.2 439.85 -226.95 446.6" fill="none" stroke="#333333" stroke-linecap="round" stroke-linejoin="round" stroke-width="0.05"/>
  </g>
  <defs>
    <linearGradient gradientTransform="matrix(-0.0673, -0.0297, -0.0192, 0.0434, -44.9, 209.35)" gradientUnits="userSpaceOnUse" id="gradient0" spreadMethod="pad" x1="-819.2" x2="819.2">
      <stop offset="0.2901960784313726" stop-color="#970198"/>
      <stop offset="0.6274509803921569" stop-color="#db02db"/>
    </linearGradient>
    <linearGradient gradientTransform="matrix(0.2934, -0.0773, -0.0395, -0.1497, -10.65, 311.15)" gradientUnits="userSpaceOnUse" id="gradient1" spreadMethod="pad" x1="-819.2" x2="819.2">
      <stop offset="0.2901960784313726" stop-color="#970198"/>
      <stop offset="0.6274509803921569" stop-color="#db02db"/>
    </linearGradient>
    <linearGradient gradientTransform="matrix(0.2934, -0.0773, -0.0395, -0.1497, -10.65, 311.15)" gradientUnits="userSpaceOnUse" id="gradient2" spreadMethod="pad" x1="-819.2" x2="819.2">
      <stop offset="0.2901960784313726" stop-color="#5b015c"/>
      <stop offset="0.6274509803921569" stop-color="#db02db"/>
    </linearGradient>
    <linearGradient gradientTransform="matrix(-0.0673, -0.0297, -0.0192, 0.0434, -44.9, 209.35)" gradientUnits="userSpaceOnUse" id="gradient3" spreadMethod="pad" x1="-819.2" x2="819.2">
      <stop offset="0.2901960784313726" stop-color="#5b015c"/>
      <stop offset="0.6274509803921569" stop-color="#db02db"/>
    </linearGradient>
  </defs>
</svg>
