<?xml version="1.0" encoding="UTF-8" standalone="no"?>
<svg xmlns:ffdec="https://www.free-decompiler.com/flash" xmlns:xlink="http://www.w3.org/1999/xlink" ffdec:objectType="shape" height="663.35px" width="353.95px" xmlns="http://www.w3.org/2000/svg">
  <g transform="matrix(1.0, 0.0, 0.0, 1.0, -6.35, -140.45)">
    <path d="M129.55 474.45 L136.35 482.1 135.65 483.2 Q131.25 480.35 126.15 477.4 L129.55 474.45" fill="url(#gradient0)" fill-rule="evenodd" stroke="none"/>
    <path d="M116.7 291.95 Q103.6 310.6 99.9 335.8 L99.05 341.7 Q100.65 357.5 106.2 371.65 104.1 370.5 101.65 370.5 96.15 370.4 92.2 375.55 88.4 380.45 88.1 387.45 L88.1 388.1 88.05 388.65 Q88.05 395.7 91.75 400.8 95.5 406.15 101.0 406.25 106.45 406.3 110.45 401.15 114.4 396.0 114.55 388.6 L114.55 388.35 Q117.45 393.1 120.85 397.65 136.8 418.85 170.35 441.3 L196.8 458.5 Q211.6 468.2 219.85 475.2 242.35 494.2 242.35 515.1 242.35 527.35 238.55 538.15 L237.5 540.35 Q226.5 560.3 210.2 575.9 214.25 571.45 215.0 566.1 215.85 560.25 212.35 556.8 208.85 553.3 203.05 554.2 197.25 555.1 192.55 559.85 187.85 564.55 187.0 570.35 186.15 576.15 189.65 579.65 193.15 583.1 198.95 582.25 203.5 581.55 207.4 578.5 200.4 584.8 192.5 590.4 176.9 604.4 169.8 615.2 167.0 619.5 164.75 624.05 159.15 633.3 154.1 642.1 154.75 639.7 154.6 637.25 154.3 631.7 150.3 629.15 146.25 626.5 140.85 628.35 135.4 630.2 131.8 635.45 128.2 640.6 128.5 646.15 128.8 651.65 132.8 654.3 136.8 656.9 142.25 655.05 146.4 653.6 149.55 650.2 145.85 656.85 142.5 663.25 132.85 681.7 132.6 703.25 132.4 724.75 141.35 731.4 136.55 729.7 131.7 727.55 113.75 719.55 106.5 694.65 104.1 686.4 102.95 678.4 103.9 678.85 104.95 679.0 109.2 679.7 112.8 676.05 116.35 672.4 117.15 666.5 117.9 660.65 115.5 656.0 113.05 651.35 108.8 650.65 105.35 650.1 102.35 652.4 L103.15 646.65 Q107.0 623.6 115.9 608.4 124.75 593.2 139.15 572.55 143.75 568.95 153.05 554.15 162.35 539.35 162.35 522.9 162.35 506.45 153.05 497.0 146.4 490.25 135.65 483.2 L136.35 482.1 129.55 474.45 117.45 460.2 Q119.55 461.8 122.05 462.75 128.15 465.1 132.8 462.2 137.4 459.25 137.85 452.75 138.3 446.25 134.35 440.0 130.4 433.75 124.35 431.4 118.25 429.05 113.65 432.0 109.0 434.9 108.55 441.4 108.15 446.55 110.55 451.55 104.4 443.5 100.4 437.25 89.95 420.7 83.5 395.45 77.05 370.2 87.85 339.55 L88.2 338.5 88.5 337.7 90.8 331.8 Q100.65 307.7 116.7 291.95 M98.55 342.4 L99.05 341.7 98.55 342.4 M221.5 486.0 Q216.1 486.25 212.65 491.6 209.3 496.75 209.55 503.75 L209.6 504.4 209.65 504.95 Q210.25 512.0 214.25 516.85 218.4 521.95 223.8 521.7 229.2 521.5 232.7 516.1 236.15 510.7 235.7 503.3 235.2 495.95 231.05 490.85 226.9 485.8 221.5 486.0 M179.45 459.4 Q173.85 455.05 167.6 454.75 161.0 454.45 157.55 458.75 154.1 463.0 155.75 469.35 157.35 475.65 163.15 480.35 168.9 485.05 175.45 485.35 181.95 485.65 185.45 481.4 188.9 477.1 187.3 470.8 185.7 464.7 180.4 460.15 L179.9 459.75 179.45 459.4 M176.2 511.4 Q170.75 512.0 167.45 517.65 164.3 523.0 164.9 529.95 L164.95 530.65 165.05 531.15 Q165.95 538.15 170.25 542.8 174.65 547.55 180.1 546.95 185.55 546.35 188.85 540.75 192.1 535.1 191.3 527.75 190.5 520.4 186.05 515.6 181.6 510.8 176.2 511.4 M136.65 581.5 L136.35 582.1 136.1 582.6 Q132.9 588.9 133.9 595.1 134.85 601.55 139.7 604.1 144.5 606.65 150.4 603.8 156.25 601.0 159.7 594.45 163.15 587.95 162.2 581.5 161.2 575.05 156.4 572.5 151.55 569.95 145.7 572.75 140.05 575.45 136.65 581.5" fill="#ff00fc" fill-rule="evenodd" stroke="none"/>
    <path d="M106.2 371.65 Q108.8 372.95 110.9 375.85 114.6 381.1 114.55 388.35 L114.55 388.6 Q114.4 396.0 110.45 401.15 106.45 406.3 101.0 406.25 95.5 406.15 91.75 400.8 88.05 395.7 88.05 388.65 L88.1 388.1 88.1 387.45 Q88.4 380.45 92.2 375.55 96.15 370.4 101.65 370.5 104.1 370.5 106.2 371.65 M210.2 575.9 L209.8 576.3 209.45 576.65 209.05 577.1 207.4 578.5 Q203.5 581.55 198.95 582.25 193.15 583.1 189.65 579.65 186.15 576.15 187.0 570.35 187.85 564.55 192.55 559.85 197.25 555.1 203.05 554.2 208.85 553.3 212.35 556.8 215.85 560.25 215.0 566.1 214.25 571.45 210.2 575.9 M110.55 451.55 Q108.15 446.55 108.55 441.4 109.0 434.9 113.65 432.0 118.25 429.05 124.35 431.4 130.4 433.75 134.35 440.0 138.3 446.25 137.85 452.75 137.4 459.25 132.8 462.2 128.15 465.1 122.05 462.75 119.55 461.8 117.45 460.2 114.55 458.0 112.3 454.65 L112.0 454.2 111.65 453.6 110.55 451.55 M102.35 652.4 Q105.35 650.1 108.8 650.65 113.05 651.35 115.5 656.0 117.9 660.65 117.15 666.5 116.35 672.4 112.8 676.05 109.2 679.7 104.95 679.0 103.9 678.85 102.95 678.4 100.1 677.15 98.25 673.65 95.9 669.2 96.55 663.55 L96.6 663.15 96.7 662.6 Q97.55 657.1 101.0 653.6 L102.35 652.4 M149.55 650.2 Q146.4 653.6 142.25 655.05 136.8 656.9 132.8 654.3 128.8 651.65 128.5 646.15 128.2 640.6 131.8 635.45 135.4 630.2 140.85 628.35 146.25 626.5 150.3 629.15 154.3 631.7 154.6 637.25 154.75 639.7 154.1 642.1 153.35 644.9 151.55 647.65 L151.3 648.0 150.95 648.5 149.55 650.2 M96.7 388.2 Q96.65 390.75 97.85 392.6 99.05 394.45 100.85 394.5 102.6 394.5 103.85 392.7 105.15 390.9 105.2 388.35 105.2 385.75 104.0 383.95 102.8 382.1 101.05 382.05 99.25 382.0 98.0 383.8 96.7 385.6 96.7 388.2 M174.5 466.5 Q172.5 464.85 170.3 464.65 168.05 464.5 166.95 465.9 165.85 467.25 166.5 469.4 167.1 471.5 169.1 473.1 171.1 474.75 173.3 474.95 175.5 475.1 176.65 473.75 177.75 472.35 177.15 470.25 176.5 468.1 174.5 466.5 M179.45 459.4 L179.9 459.75 180.4 460.15 Q185.7 464.7 187.3 470.8 188.9 477.1 185.45 481.4 181.95 485.65 175.45 485.35 168.9 485.05 163.15 480.35 157.35 475.65 155.75 469.35 154.1 463.0 157.55 458.75 161.0 454.45 167.6 454.75 173.85 455.05 179.45 459.4 M221.5 486.0 Q226.9 485.8 231.05 490.85 235.2 495.95 235.7 503.3 236.15 510.7 232.7 516.1 229.2 521.5 223.8 521.7 218.4 521.95 214.25 516.85 210.25 512.0 209.65 504.95 L209.6 504.4 209.55 503.75 Q209.3 496.75 212.65 491.6 216.1 486.25 221.5 486.0 M226.45 503.65 Q226.3 501.05 224.95 499.3 223.6 497.55 221.9 497.6 220.15 497.65 219.05 499.55 217.9 501.4 218.1 504.0 218.25 506.55 219.6 508.35 220.95 510.1 222.7 510.0 224.4 509.95 225.5 508.05 226.6 506.2 226.45 503.65 M176.2 511.4 Q181.6 510.8 186.05 515.6 190.5 520.4 191.3 527.75 192.1 535.1 188.85 540.75 185.55 546.35 180.1 546.95 174.65 547.55 170.25 542.8 165.95 538.15 165.05 531.15 L164.95 530.65 164.9 529.95 Q164.3 523.0 167.45 517.65 170.75 512.0 176.2 511.4 M182.0 528.7 Q181.7 526.15 180.25 524.45 178.8 522.8 177.1 523.0 175.3 523.15 174.3 525.1 173.2 527.05 173.5 529.65 173.8 532.2 175.25 533.85 176.7 535.5 178.45 535.35 180.2 535.15 181.25 533.2 182.25 531.25 182.0 528.7 M126.45 444.95 Q125.05 442.8 123.05 441.95 121.0 441.05 119.5 442.0 118.0 442.95 117.95 445.15 117.85 447.35 119.25 449.55 120.6 451.7 122.65 452.55 124.65 453.4 126.15 452.5 127.65 451.55 127.75 449.35 127.8 447.1 126.45 444.95 M202.05 563.8 Q200.1 564.15 198.5 565.8 196.85 567.45 196.5 569.4 196.1 571.35 197.25 572.5 198.4 573.6 200.35 573.25 202.3 572.85 203.95 571.2 205.55 569.55 205.9 567.6 206.25 565.65 205.15 564.55 204.0 563.4 202.05 563.8 M136.65 581.5 Q140.05 575.45 145.7 572.75 151.55 569.95 156.4 572.5 161.2 575.05 162.2 581.5 163.15 587.95 159.7 594.45 156.25 601.0 150.4 603.8 144.5 606.65 139.7 604.1 134.85 601.55 133.9 595.1 132.9 588.9 136.1 582.6 L136.35 582.1 136.65 581.5 M141.75 637.45 Q139.9 638.1 138.65 639.9 137.4 641.7 137.45 643.6 137.45 645.45 138.75 646.3 L141.85 646.5 Q143.65 645.75 144.95 643.95 146.2 642.15 146.15 640.3 146.1 638.4 144.85 637.55 L141.75 637.45 M144.85 593.55 Q146.35 594.35 148.35 593.3 150.3 592.3 151.5 590.05 152.7 587.75 152.45 585.6 152.15 583.4 150.65 582.55 L147.15 582.75 Q145.15 583.8 143.95 586.05 142.75 588.35 143.0 590.55 143.25 592.7 144.85 593.55 M103.3 664.2 Q103.0 666.2 103.8 667.85 104.55 669.4 105.95 669.65 107.3 669.85 108.45 668.6 109.6 667.3 109.9 665.25 110.15 663.2 109.4 661.6 108.6 660.0 107.25 659.8 105.9 659.55 104.75 660.85 103.55 662.15 103.3 664.2" fill="#c002c1" fill-rule="evenodd" stroke="none"/>
    <path d="M96.7 388.2 Q96.7 385.6 98.0 383.8 99.25 382.0 101.05 382.05 102.8 382.1 104.0 383.95 105.2 385.75 105.2 388.35 105.15 390.9 103.85 392.7 102.6 394.5 100.85 394.5 99.05 394.45 97.85 392.6 96.65 390.75 96.7 388.2 M174.5 466.5 Q176.5 468.1 177.15 470.25 177.75 472.35 176.65 473.75 175.5 475.1 173.3 474.95 171.1 474.75 169.1 473.1 167.1 471.5 166.5 469.4 165.85 467.25 166.95 465.9 168.05 464.5 170.3 464.65 172.5 464.85 174.5 466.5 M226.45 503.65 Q226.6 506.2 225.5 508.05 224.4 509.95 222.7 510.0 220.95 510.1 219.6 508.35 218.25 506.55 218.1 504.0 217.9 501.4 219.05 499.55 220.15 497.65 221.9 497.6 223.6 497.55 224.95 499.3 226.3 501.05 226.45 503.65 M182.0 528.7 Q182.25 531.25 181.25 533.2 180.2 535.15 178.45 535.35 176.7 535.5 175.25 533.85 173.8 532.2 173.5 529.65 173.2 527.05 174.3 525.1 175.3 523.15 177.1 523.0 178.8 522.8 180.25 524.45 181.7 526.15 182.0 528.7 M202.05 563.8 Q204.0 563.4 205.15 564.55 206.25 565.65 205.9 567.6 205.55 569.55 203.95 571.2 202.3 572.85 200.35 573.25 198.4 573.6 197.25 572.5 196.1 571.35 196.5 569.4 196.85 567.45 198.5 565.8 200.1 564.15 202.05 563.8 M126.45 444.95 Q127.8 447.1 127.75 449.35 127.65 451.55 126.15 452.5 124.65 453.4 122.65 452.55 120.6 451.7 119.25 449.55 117.85 447.35 117.95 445.15 118.0 442.95 119.5 442.0 121.0 441.05 123.05 441.95 125.05 442.8 126.45 444.95 M144.85 593.55 Q143.25 592.7 143.0 590.55 142.75 588.35 143.95 586.05 145.15 583.8 147.15 582.75 L150.65 582.55 Q152.15 583.4 152.45 585.6 152.7 587.75 151.5 590.05 150.3 592.3 148.35 593.3 146.35 594.35 144.85 593.55 M141.75 637.45 L144.85 637.55 Q146.1 638.4 146.15 640.3 146.2 642.15 144.95 643.95 143.65 645.75 141.85 646.5 L138.75 646.3 Q137.45 645.45 137.45 643.6 137.4 641.7 138.65 639.9 139.9 638.1 141.75 637.45 M103.3 664.2 Q103.55 662.15 104.75 660.85 105.9 659.55 107.25 659.8 108.6 660.0 109.4 661.6 110.15 663.2 109.9 665.25 109.6 667.3 108.45 668.6 107.3 669.85 105.95 669.65 104.55 669.4 103.8 667.85 103.0 666.2 103.3 664.2" fill="#540154" fill-rule="evenodd" stroke="none"/>
    <path d="M164.75 624.05 Q160.45 632.9 158.35 642.9 L154.1 642.1 Q159.15 633.3 164.75 624.05" fill="url(#gradient1)" fill-rule="evenodd" stroke="none"/>
    <path d="M126.15 477.4 Q106.9 464.45 91.6 454.95 80.0 447.75 66.55 436.55 L62.75 433.55 Q29.9 407.65 15.6 368.2 8.05 346.95 6.6 317.65 5.15 288.15 11.75 264.1 18.35 240.0 26.6 226.35 54.15 180.45 103.3 157.75 L102.95 158.05 103.35 157.75 103.35 157.7 103.45 157.65 Q105.75 155.7 107.65 154.75 L108.45 154.35 Q110.7 153.2 113.0 152.15 L120.1 149.15 Q127.65 144.2 136.35 142.1 L143.25 140.85 149.65 140.45 150.45 140.45 Q173.95 140.45 190.55 157.05 207.15 173.65 207.15 197.15 207.15 220.6 190.55 237.25 187.1 240.7 183.35 243.45 L172.85 249.45 152.55 261.05 Q131.0 272.55 118.05 290.1 L116.7 291.95 Q100.65 307.7 90.8 331.8 L88.5 337.7 88.2 338.5 87.85 339.55 Q77.05 370.2 83.5 395.45 89.95 420.7 100.4 437.25 104.4 443.5 110.55 451.55 L111.65 453.6 112.0 454.2 112.3 454.65 Q114.55 458.0 117.45 460.2 L129.55 474.45 126.15 477.4" fill="url(#gradient2)" fill-rule="evenodd" stroke="none"/>
    <path d="M158.35 642.9 Q156.35 652.35 156.35 662.85 156.35 712.7 253.3 714.1 348.75 715.45 360.0 801.05 334.05 750.4 300.85 745.2 266.05 739.75 248.1 740.15 230.15 740.45 206.9 739.8 L166.65 737.35 Q154.9 736.05 142.7 731.85 L141.35 731.4 Q132.4 724.75 132.6 703.25 132.85 681.7 142.5 663.25 145.85 656.85 149.55 650.2 L150.95 648.5 151.3 648.0 151.55 647.65 Q153.35 644.9 154.1 642.1 L158.35 642.9" fill="url(#gradient3)" fill-rule="evenodd" stroke="none"/>
    <path d="M126.15 477.4 Q106.9 464.45 91.6 454.95 80.0 447.75 66.55 436.55 L62.75 433.55 Q29.9 407.65 15.6 368.2 8.05 346.95 6.6 317.65 5.15 288.15 11.75 264.1 18.35 240.0 26.6 226.35 54.15 180.45 103.3 157.75 L102.95 158.05 103.35 157.75 103.35 157.7 103.45 157.65 Q105.75 155.7 107.65 154.75 L108.45 154.35 Q110.7 153.2 113.0 152.15 L120.1 149.15 Q127.65 144.2 136.35 142.1 L143.25 140.85 149.65 140.45 150.45 140.45 Q173.95 140.45 190.55 157.05 207.15 173.65 207.15 197.15 207.15 220.6 190.55 237.25 187.1 240.7 183.35 243.45 178.35 247.05 172.85 249.45 L152.55 261.05 Q131.0 272.55 118.05 290.1 L116.7 291.95 Q103.6 310.6 99.9 335.8 L99.05 341.7 Q100.65 357.5 106.2 371.65 M114.55 388.35 Q117.45 393.1 120.85 397.65 136.8 418.85 170.35 441.3 L196.8 458.5 Q211.6 468.2 219.85 475.2 242.35 494.2 242.35 515.1 242.35 527.35 238.55 538.15 L237.5 540.35 Q226.5 560.3 210.2 575.9 M207.4 578.5 Q200.4 584.8 192.5 590.4 176.9 604.4 169.8 615.2 167.0 619.5 164.75 624.05 160.45 632.9 158.35 642.9 156.35 652.35 156.35 662.85 156.35 712.7 253.3 714.1 348.75 715.45 360.0 801.05 L360.3 803.8 M135.65 483.2 Q146.4 490.25 153.05 497.0 162.35 506.45 162.35 522.9 162.35 539.35 153.05 554.15 143.75 568.95 139.15 572.55 124.75 593.2 115.9 608.4 107.0 623.6 103.15 646.65 L102.35 652.4 M102.95 678.4 Q104.1 686.4 106.5 694.65 113.75 719.55 131.7 727.55 136.55 729.7 141.35 731.4 L142.7 731.85 Q154.9 736.05 166.65 737.35 L206.9 739.8 Q230.15 740.45 248.1 740.15 266.05 739.75 300.85 745.2 334.05 750.4 360.0 801.05 M99.05 341.7 L98.55 342.4 M210.1 231.4 L208.65 231.85 M183.35 243.45 L172.85 249.45 M126.15 477.4 Q131.25 480.35 135.65 483.2" fill="none" stroke="#333333" stroke-linecap="round" stroke-linejoin="round" stroke-width="0.05"/>
  </g>
  <defs>
    <linearGradient gradientTransform="matrix(0.146, -0.0872, -0.0882, -0.1478, 134.45, 306.15)" gradientUnits="userSpaceOnUse" id="gradient0" spreadMethod="pad" x1="-819.2" x2="819.2">
      <stop offset="0.2901960784313726" stop-color="#970198"/>
      <stop offset="0.6274509803921569" stop-color="#db02db"/>
    </linearGradient>
    <linearGradient gradientTransform="matrix(0.1454, 0.048, 0.0209, -0.0634, 206.5, 692.05)" gradientUnits="userSpaceOnUse" id="gradient1" spreadMethod="pad" x1="-819.2" x2="819.2">
      <stop offset="0.2901960784313726" stop-color="#970198"/>
      <stop offset="0.6274509803921569" stop-color="#db02db"/>
    </linearGradient>
    <linearGradient gradientTransform="matrix(0.146, -0.0872, -0.0882, -0.1478, 134.45, 306.15)" gradientUnits="userSpaceOnUse" id="gradient2" spreadMethod="pad" x1="-819.2" x2="819.2">
      <stop offset="0.2901960784313726" stop-color="#5b015c"/>
      <stop offset="0.6274509803921569" stop-color="#db02db"/>
    </linearGradient>
    <linearGradient gradientTransform="matrix(0.1454, 0.048, 0.0209, -0.0634, 206.5, 692.05)" gradientUnits="userSpaceOnUse" id="gradient3" spreadMethod="pad" x1="-819.2" x2="819.2">
      <stop offset="0.2901960784313726" stop-color="#5b015c"/>
      <stop offset="0.6274509803921569" stop-color="#db02db"/>
    </linearGradient>
  </defs>
</svg>
