<?xml version="1.0" encoding="UTF-8" standalone="no"?>
<svg xmlns:ffdec="https://www.free-decompiler.com/flash" xmlns:xlink="http://www.w3.org/1999/xlink" ffdec:objectType="shape" height="153.5px" width="740.25px" xmlns="http://www.w3.org/2000/svg">
  <g transform="matrix(1.0, 0.0, 0.0, 1.0, 370.1, 81.25)">
    <path d="M-289.35 33.5 L-321.35 70.5 -346.35 70.5 -363.85 70.5 -363.85 37.5 -346.35 37.5 -346.35 33.5 -335.35 33.5 -299.35 33.5 -289.35 33.5 M-349.35 -33.5 L-349.35 -25.5 -363.85 -25.5 -363.85 -33.5 -349.35 -33.5 M-363.85 -45.5 L-363.85 -75.5 -346.35 -75.5 -321.85 -75.5 -289.35 -40.0 -301.35 -40.0 -333.35 -40.0 -333.85 -40.0 -333.85 -45.5 -346.35 -45.5 -363.85 -45.5 M-346.35 -75.5 L-346.35 -66.5 -346.35 -45.5 -346.35 -66.5 -346.35 -75.5 M-346.35 -66.5 L-323.85 -70.0 -301.35 -40.0 -323.85 -70.0 -346.35 -66.5 M-323.85 -70.0 L-321.85 -75.5 -323.85 -70.0 M-321.35 70.5 L-325.35 63.5 -299.35 33.5 -325.35 63.5 -321.35 70.5 M-325.35 63.5 L-346.35 60.5 -346.35 37.5 -346.35 60.5 -325.35 63.5 M-346.35 70.5 L-346.35 60.5 -346.35 70.5" fill="#c4c5c7" fill-rule="evenodd" stroke="none"/>
    <path d="M-363.85 37.5 L-363.85 25.0 -346.35 25.0 -346.35 22.5 -335.35 22.5 -335.35 33.5 -346.35 33.5 -346.35 37.5 -363.85 37.5 M-346.35 6.0 L-349.35 6.0 -349.35 3.5 -359.35 3.5 -359.35 0.5 -368.35 0.5 -368.35 -4.5 -359.35 -4.5 -359.35 -6.5 -349.35 -6.5 -349.35 -9.0 -346.35 -9.0 -346.35 -18.0 -338.35 -18.0 -338.35 -9.0 -334.35 -9.0 -334.35 6.0 -346.35 6.0 M-346.35 -33.5 L-349.35 -33.5 -363.85 -33.5 -363.85 -45.5 -346.35 -45.5 -333.85 -45.5 -333.85 -40.0 -333.85 -33.5 -346.35 -33.5 M-346.35 -9.0 L-338.35 -9.0 -346.35 -9.0 M-289.35 -27.0 L-289.35 -16.5 -301.85 -16.5 -301.85 -27.0 -310.85 -27.0 -310.85 -36.5 -301.85 -36.5 -301.85 -27.0 -289.35 -27.0 M-289.35 16.0 L-289.35 27.0 -302.35 27.0 -302.35 16.0 -289.35 16.0 M-312.35 -26.0 L-312.35 -17.0 -321.35 -17.0 -321.35 -26.0 -312.35 -26.0 M-299.6 11.75 L-307.85 11.75 -307.85 3.5 -299.6 3.5 -299.6 11.75 M-312.35 17.0 L-312.35 26.5 -321.85 26.5 -321.85 17.0 -312.35 17.0 M-346.35 33.5 L-346.35 25.0 -346.35 33.5 M-359.35 -4.5 L-359.35 0.5 -359.35 -4.5 M-349.35 3.5 L-349.35 -6.5 -349.35 3.5" fill="#ebebeb" fill-rule="evenodd" stroke="none"/>
    <path d="M-346.35 22.5 L-346.35 6.0 -334.35 6.0 -334.35 -9.0 -338.35 -9.0 -338.35 -18.0 -346.35 -18.0 -346.35 -33.5 -333.85 -33.5 -333.85 -40.0 -333.35 -40.0 -301.35 -40.0 -289.35 -40.0 -289.35 -27.0 -301.85 -27.0 -301.85 -36.5 -310.85 -36.5 -310.85 -27.0 -301.85 -27.0 -301.85 -16.5 -289.35 -16.5 -289.35 16.0 -302.35 16.0 -302.35 27.0 -289.35 27.0 -289.35 33.5 -299.35 33.5 -335.35 33.5 -335.35 22.5 -346.35 22.5 M-312.35 -26.0 L-321.35 -26.0 -321.35 -17.0 -312.35 -17.0 -312.35 -26.0 M-312.35 17.0 L-321.85 17.0 -321.85 26.5 -312.35 26.5 -312.35 17.0 M-299.6 11.75 L-299.6 3.5 -307.85 3.5 -307.85 11.75 -299.6 11.75" fill="#b2b3b5" fill-rule="evenodd" stroke="none"/>
    <path d="M-26.25 -41.5 L-7.6 -41.5 -7.35 -41.5 38.55 -41.5 50.05 -41.5 50.1 -41.5 82.6 -41.5 99.1 -41.5 116.9 -35.75 134.7 -30.0 146.65 -30.0 242.2 -30.0 252.15 -27.0 279.65 -27.0 279.65 -25.5 284.65 -25.5 284.65 -27.0 293.65 -27.0 352.65 -14.0 352.65 4.25 293.65 17.5 284.65 17.5 284.65 16.0 279.65 16.0 279.65 17.5 253.15 17.5 252.15 17.8 243.7 20.0 146.65 20.0 134.7 20.0 116.9 25.25 99.1 30.5 82.6 30.5 49.85 30.5 49.6 30.5 39.2 30.5 -7.35 30.5 -7.75 30.5 -26.35 30.5 -26.4 30.5 -35.35 30.5 -55.85 30.5 -64.85 30.5 -69.85 37.5 -274.85 37.5 -280.35 33.5 -289.35 33.5 -289.35 27.0 -289.35 16.0 -289.35 -16.5 -289.35 -27.0 -289.35 -40.0 -280.35 -40.0 -274.85 -47.5 -69.85 -47.5 -64.85 -41.5 -55.85 -41.5 -35.35 -41.5 -26.35 -41.5 -26.25 -41.5 M160.6 -8.0 L160.6 -3.0 169.6 -3.0 169.6 -8.0 160.6 -8.0 169.6 -8.0 169.6 -3.0 160.6 -3.0 160.6 -8.0 M259.15 -12.0 L272.65 -12.0 272.65 -22.0 259.15 -22.0 259.15 -12.0 259.15 -22.0 272.65 -22.0 272.65 -12.0 259.15 -12.0 M-55.85 -33.0 L-55.85 -22.0 -44.85 -22.0 -44.85 -33.0 -55.85 -33.0 -55.85 -41.5 -55.85 -33.0 -44.85 -33.0 -44.85 -22.0 -55.85 -22.0 -55.85 11.75 -44.85 11.75 -44.85 22.75 -55.85 22.75 -55.85 30.5 -55.85 22.75 -44.85 22.75 -44.85 11.75 -55.85 11.75 -55.85 -22.0 -55.85 -33.0 M-86.35 -39.45 L-86.35 -4.0 -103.35 -4.0 -152.35 -4.0 -152.35 -39.5 -152.35 -4.0 -103.35 -4.0 -103.35 -39.5 -103.35 -4.0 -86.35 -4.0 -86.35 -39.45 M-267.35 -4.0 L-239.85 -4.0 -239.85 30.0 -239.85 -4.0 -267.35 -4.0 -267.35 30.0 -267.35 -4.0 -267.35 -39.5 -267.35 -4.0 M-197.35 -39.5 L-197.35 -4.0 -239.85 -4.0 -239.85 -39.5 -239.85 -4.0 -197.35 -4.0 -197.35 -39.5 M-197.35 30.0 L-197.35 -4.0 -152.35 -4.0 -152.35 30.0 -152.35 -4.0 -197.35 -4.0 -197.35 30.0 M50.1 -41.5 L49.6 30.5 50.1 -41.5 M-55.85 11.75 L-55.85 22.75 -55.85 11.75 M259.15 12.5 L272.65 12.5 272.65 2.5 259.15 2.5 259.15 12.5 259.15 2.5 272.65 2.5 272.65 12.5 259.15 12.5 M-280.35 33.5 L-280.35 -40.0 -280.35 33.5 M-7.35 -41.5 L-7.35 30.5 -7.35 -41.5 M-69.85 -47.5 L-69.85 37.5 -69.85 -47.5 M-64.85 30.5 L-64.85 -41.5 -64.85 30.5 M-35.35 30.5 L-35.35 -41.5 -35.35 30.5 M-103.35 -4.0 L-103.35 30.0 -103.35 -4.0 M-86.35 -4.0 L-86.35 30.05 -86.35 -4.0 M-274.85 37.5 L-274.85 -47.5 -274.85 37.5 M116.9 25.25 L116.9 -35.75 116.9 25.25 M-26.35 30.5 L-26.35 -41.5 -26.35 30.5 M99.1 -41.5 L99.1 30.5 99.1 -41.5 M146.65 20.0 L146.65 -30.0 146.65 20.0 M252.15 -27.0 L252.15 17.8 252.15 -27.0 M279.65 16.0 L279.65 -25.5 279.65 16.0 M82.6 30.5 L82.6 -41.5 82.6 30.5 M134.7 -30.0 L134.7 20.0 134.7 -30.0 M238.2 14.5 L238.2 -24.5 238.2 14.5 M247.7 13.0 L247.7 -23.5 247.7 13.0 M197.7 14.5 L197.7 -24.5 197.7 14.5 M243.7 14.5 L243.7 -24.0 243.7 14.5 M210.7 14.5 L210.7 -24.5 210.7 14.5 M284.65 -25.5 L284.65 16.0 284.65 -25.5" fill="url(#gradient0)" fill-rule="evenodd" stroke="none"/>
    <path d="M352.65 -14.0 Q368.35 -9.3 368.4 -4.65 368.45 0.0 353.65 4.0 L352.65 4.25 352.65 -14.0" fill="url(#gradient1)" fill-rule="evenodd" stroke="none"/>
    <path d="M19.05 -79.5 L14.8 -71.35 -7.6 -68.35 -7.6 -79.5 -7.6 -68.35 14.8 -71.35 19.05 -79.5 50.05 -41.5 38.55 -41.5 -7.35 -41.5 -7.6 -41.5 -26.25 -41.5 -26.25 -79.5 -7.6 -79.5 19.05 -79.5 M-7.6 -68.35 L-7.6 -41.5 -7.6 -68.35 M14.8 -71.35 L38.55 -41.5 14.8 -71.35" fill="#f5f5f6" fill-rule="evenodd" stroke="none"/>
    <path d="M49.85 30.5 L18.9 69.5 -7.75 69.5 -26.4 69.5 -26.4 30.5 -26.35 30.5 -7.75 30.5 -7.35 30.5 39.2 30.5 14.65 61.35 -7.75 57.9 -7.75 30.5 -7.75 57.9 14.65 61.35 39.2 30.5 49.6 30.5 49.85 30.5 M-7.75 69.5 L-7.75 57.9 -7.75 69.5 M18.9 69.5 L14.65 61.35 18.9 69.5" fill="#caccce" fill-rule="evenodd" stroke="none"/>
    <path d="M-7.6 -79.5 L-7.6 -68.35 14.8 -71.35 19.05 -79.5 -7.6 -79.5 -26.25 -79.5 -26.25 -41.5 -7.6 -41.5 -7.6 -68.35 M50.05 -41.5 L50.1 -41.5 82.6 -41.5 99.1 -41.5 116.9 -35.75 134.7 -30.0 146.65 -30.0 242.2 -30.0 252.15 -27.0 279.65 -27.0 279.65 -25.5 284.65 -25.5 284.65 -27.0 293.65 -27.0 352.65 -14.0 Q368.35 -9.3 368.4 -4.65 368.45 0.0 353.65 4.0 L352.65 4.25 293.65 17.5 284.65 17.5 284.65 16.0 279.65 16.0 279.65 17.5 253.15 17.5 252.15 17.8 243.7 20.0 146.65 20.0 134.7 20.0 116.9 25.25 99.1 30.5 82.6 30.5 49.85 30.5 18.9 69.5 -7.75 69.5 -26.4 69.5 -26.4 30.5 -35.35 30.5 -55.85 30.5 -64.85 30.5 -69.85 37.5 -274.85 37.5 -280.35 33.5 -289.35 33.5 -321.35 70.5 -346.35 70.5 -363.85 70.5 -363.85 37.5 -363.85 25.0 -346.35 25.0 -346.35 22.5 -346.35 6.0 -349.35 6.0 -349.35 3.5 -359.35 3.5 -359.35 0.5 -368.35 0.5 -368.35 -4.5 -359.35 -4.5 -359.35 -6.5 -349.35 -6.5 -349.35 -9.0 -346.35 -9.0 -346.35 -18.0 -346.35 -33.5 -349.35 -33.5 -349.35 -25.5 -363.85 -25.5 -363.85 -33.5 -363.85 -45.5 -363.85 -75.5 -346.35 -75.5 -321.85 -75.5 -289.35 -40.0 -280.35 -40.0 -274.85 -47.5 -69.85 -47.5 -64.85 -41.5 -55.85 -41.5 -35.35 -41.5 -26.35 -41.5 -26.25 -41.5 M38.55 -41.5 L14.8 -71.35 M50.05 -41.5 L19.05 -79.5 M38.55 -41.5 L50.05 -41.5 M259.15 -12.0 L259.15 -22.0 272.65 -22.0 272.65 -12.0 259.15 -12.0 M-346.35 -45.5 L-346.35 -66.5 -346.35 -75.5 M-333.35 -40.0 L-301.35 -40.0 -323.85 -70.0 -346.35 -66.5 M-333.85 -40.0 L-333.85 -45.5 -346.35 -45.5 -363.85 -45.5 M-346.35 -33.5 L-333.85 -33.5 -333.85 -40.0 M-349.35 -33.5 L-363.85 -33.5 M-338.35 -9.0 L-338.35 -18.0 -346.35 -18.0 M-346.35 6.0 L-334.35 6.0 -334.35 -9.0 -338.35 -9.0 -346.35 -9.0 M-321.85 -75.5 L-323.85 -70.0 M-301.35 -40.0 L-289.35 -40.0 -289.35 -27.0 -289.35 -16.5 -289.35 16.0 -289.35 27.0 -289.35 33.5 M-299.35 33.5 L-325.35 63.5 -321.35 70.5 M-289.35 -16.5 L-301.85 -16.5 -301.85 -27.0 -310.85 -27.0 -310.85 -36.5 -301.85 -36.5 -301.85 -27.0 -289.35 -27.0 M-312.35 -26.0 L-312.35 -17.0 -321.35 -17.0 -321.35 -26.0 -312.35 -26.0 M-267.35 30.0 L-267.35 -4.0 -267.35 -39.5 M-239.85 -39.5 L-239.85 -4.0 -197.35 -4.0 -197.35 -39.5 M-239.85 30.0 L-239.85 -4.0 -267.35 -4.0 M-152.35 -39.5 L-152.35 -4.0 -103.35 -4.0 -103.35 -39.5 M-103.35 -4.0 L-86.35 -4.0 -86.35 -39.45 M-55.85 -41.5 L-55.85 -33.0 -44.85 -33.0 -44.85 -22.0 -55.85 -22.0 -55.85 11.75 -44.85 11.75 -44.85 22.75 -55.85 22.75 -55.85 30.5 M-55.85 -22.0 L-55.85 -33.0 M-7.6 -41.5 L-7.35 -41.5 38.55 -41.5 M-152.35 30.0 L-152.35 -4.0 -197.35 -4.0 -197.35 30.0 M39.2 30.5 L-7.35 30.5 -7.75 30.5 -7.75 57.9 14.65 61.35 39.2 30.5 49.6 30.5 50.1 -41.5 M-7.75 30.5 L-26.35 30.5 -26.4 30.5 M-55.85 22.75 L-55.85 11.75 M-7.75 57.9 L-7.75 69.5 M-299.6 11.75 L-307.85 11.75 -307.85 3.5 -299.6 3.5 -299.6 11.75 M-289.35 27.0 L-302.35 27.0 -302.35 16.0 -289.35 16.0 M-312.35 17.0 L-312.35 26.5 -321.85 26.5 -321.85 17.0 -312.35 17.0 M-335.35 33.5 L-346.35 33.5 -346.35 37.5 -346.35 60.5 -325.35 63.5 M-346.35 37.5 L-363.85 37.5 M-346.35 25.0 L-346.35 33.5 M-335.35 33.5 L-335.35 22.5 -346.35 22.5 M-346.35 60.5 L-346.35 70.5 M-299.35 33.5 L-335.35 33.5 M259.15 12.5 L259.15 2.5 272.65 2.5 272.65 12.5 259.15 12.5 M49.85 30.5 L49.6 30.5 M14.65 61.35 L18.9 69.5 M-7.35 30.5 L-7.35 -41.5 M-280.35 -40.0 L-280.35 33.5 M-349.35 -6.5 L-349.35 3.5 M-359.35 0.5 L-359.35 -4.5 M-274.85 -47.5 L-274.85 37.5 M-86.35 30.05 L-86.35 -4.0 M-103.35 30.0 L-103.35 -4.0 M-35.35 -41.5 L-35.35 30.5 M-64.85 -41.5 L-64.85 30.5 M-69.85 37.5 L-69.85 -47.5 M99.1 30.5 L99.1 -41.5 M134.7 20.0 L134.7 -30.0 M82.6 -41.5 L82.6 30.5 M279.65 -25.5 L279.65 16.0 M252.15 17.8 L252.15 -27.0 M352.65 -14.0 L352.65 4.25 M284.65 16.0 L284.65 -25.5 M210.7 -24.5 L210.7 14.5 M243.7 -24.0 L243.7 14.5 M197.7 -24.5 L197.7 14.5 M247.7 -23.5 L247.7 13.0 M238.2 -24.5 L238.2 14.5" fill="none" stroke="#000000" stroke-linecap="round" stroke-linejoin="round" stroke-width="3.5"/>
    <path d="M160.6 -8.0 L169.6 -8.0 169.6 -3.0 160.6 -3.0 160.6 -8.0 M-26.35 -41.5 L-26.35 30.5 M116.9 -35.75 L116.9 25.25 M146.65 -30.0 L146.65 20.0" fill="none" stroke="#000000" stroke-linecap="round" stroke-linejoin="round" stroke-width="3.5"/>
    <path d="M-289.35 33.5 L-321.35 70.5 -346.35 70.5 -363.85 70.5 -363.85 37.5 -346.35 37.5 -346.35 33.5 -335.35 33.5 -299.35 33.5 -289.35 33.5 M-349.35 -33.5 L-349.35 -25.5 -363.85 -25.5 -363.85 -33.5 -349.35 -33.5 M-363.85 -45.5 L-363.85 -75.5 -346.35 -75.5 -321.85 -75.5 -289.35 -40.0 -301.35 -40.0 -333.35 -40.0 -333.85 -40.0 -333.85 -45.5 -346.35 -45.5 -363.85 -45.5 M-346.35 -75.5 L-346.35 -66.5 -346.35 -45.5 -346.35 -66.5 -346.35 -75.5 M-346.35 -66.5 L-323.85 -68.7 -301.35 -40.0 -323.85 -68.7 -346.35 -66.5 M-323.85 -68.7 L-321.85 -75.5 -323.85 -68.7 M-321.35 70.5 L-325.35 63.5 -299.35 33.5 -325.35 63.5 -321.35 70.5 M-325.35 63.5 L-346.35 60.5 -346.35 37.5 -346.35 60.5 -325.35 63.5 M-346.35 70.5 L-346.35 60.5 -346.35 70.5" fill="#c4c5c7" fill-rule="evenodd" stroke="none"/>
    <path d="M-363.85 37.5 L-363.85 25.0 -346.35 25.0 -346.35 22.5 -335.35 22.5 -335.35 33.5 -346.35 33.5 -346.35 37.5 -363.85 37.5 M-346.35 6.0 L-349.35 6.0 -349.35 3.5 -359.35 3.5 -359.35 0.5 -368.35 0.5 -368.35 -4.5 -359.35 -4.5 -359.35 -6.5 -349.35 -6.5 -349.35 -9.0 -346.35 -9.0 -346.35 -18.0 -338.35 -18.0 -338.35 -9.0 -334.35 -9.0 -334.35 6.0 -346.35 6.0 M-346.35 -33.5 L-349.35 -33.5 -363.85 -33.5 -363.85 -45.5 -346.35 -45.5 -333.85 -45.5 -333.85 -40.0 -333.85 -33.5 -346.35 -33.5 M-338.35 -9.0 L-346.35 -9.0 -338.35 -9.0 M-301.85 -36.5 L-301.85 -27.0 -310.85 -27.0 -310.85 -36.5 -301.85 -36.5 M-289.35 -27.0 L-289.35 -16.5 -301.85 -16.5 -301.85 -27.0 -289.35 -27.0 M-289.35 16.0 L-289.35 27.0 -302.35 27.0 -302.35 16.0 -289.35 16.0 M-312.35 -26.0 L-312.35 -17.0 -321.35 -17.0 -321.35 -26.0 -312.35 -26.0 M-299.6 11.75 L-307.85 11.75 -307.85 3.5 -299.6 3.5 -299.6 11.75 M-312.35 17.0 L-312.35 26.5 -321.85 26.5 -321.85 17.0 -312.35 17.0 M-346.35 33.5 L-346.35 25.0 -346.35 33.5 M-359.35 -4.5 L-359.35 0.5 -359.35 -4.5 M-349.35 3.5 L-349.35 -6.5 -349.35 3.5" fill="#ebebeb" fill-rule="evenodd" stroke="none"/>
    <path d="M-346.35 22.5 L-346.35 6.0 -334.35 6.0 -334.35 -9.0 -338.35 -9.0 -338.35 -18.0 -346.35 -18.0 -346.35 -33.5 -333.85 -33.5 -333.85 -40.0 -333.35 -40.0 -301.35 -40.0 -289.35 -40.0 -289.35 -27.0 -301.85 -27.0 -301.85 -16.5 -289.35 -16.5 -289.35 16.0 -302.35 16.0 -302.35 27.0 -289.35 27.0 -289.35 33.5 -299.35 33.5 -335.35 33.5 -335.35 22.5 -346.35 22.5 M-301.85 -36.5 L-310.85 -36.5 -310.85 -27.0 -301.85 -27.0 -301.85 -36.5 M-312.35 -26.0 L-321.35 -26.0 -321.35 -17.0 -312.35 -17.0 -312.35 -26.0 M-312.35 17.0 L-321.85 17.0 -321.85 26.5 -312.35 26.5 -312.35 17.0 M-299.6 11.75 L-299.6 3.5 -307.85 3.5 -307.85 11.75 -299.6 11.75" fill="#b2b3b5" fill-rule="evenodd" stroke="none"/>
    <path d="M-7.6 -41.5 L-7.35 -41.5 38.55 -41.5 49.9 -41.5 50.05 -41.5 82.6 -41.5 99.1 -41.5 116.9 -35.75 134.7 -30.0 146.65 -30.0 242.2 -30.0 252.15 -27.0 279.65 -27.0 279.65 -25.5 284.65 -25.5 284.65 -27.0 293.65 -27.0 352.65 -14.0 352.65 4.25 293.65 17.5 284.65 17.5 284.65 16.0 279.65 16.0 279.65 17.5 253.15 17.5 252.15 17.8 243.7 20.0 146.65 20.0 134.7 20.0 116.9 25.25 99.1 30.5 82.6 30.5 49.9 30.5 49.85 30.5 39.2 30.5 -7.35 30.5 -7.75 30.5 -26.35 30.5 -26.4 30.5 -35.35 30.5 -55.85 30.5 -64.85 30.5 -69.85 37.5 -274.85 37.5 -280.35 33.5 -289.35 33.5 -289.35 27.0 -289.35 16.0 -289.35 -16.5 -289.35 -27.0 -289.35 -40.0 -280.35 -40.0 -274.85 -47.5 -69.85 -47.5 -64.85 -41.5 -55.85 -41.5 -35.35 -41.5 -26.35 -41.5 -26.25 -41.5 -7.6 -41.5 M160.6 -8.0 L160.6 -3.0 169.6 -3.0 169.6 -8.0 160.6 -8.0 169.6 -8.0 169.6 -3.0 160.6 -3.0 160.6 -8.0 M259.15 -12.0 L272.65 -12.0 272.65 -22.0 259.15 -22.0 259.15 -12.0 259.15 -22.0 272.65 -22.0 272.65 -12.0 259.15 -12.0 M-55.85 -22.0 L-55.85 -33.0 -55.85 -41.5 -55.85 -33.0 -44.85 -33.0 -44.85 -22.0 -55.85 -22.0 -55.85 11.75 -44.85 11.75 -44.85 22.75 -55.85 22.75 -55.85 30.5 -55.85 22.75 -44.85 22.75 -44.85 11.75 -55.85 11.75 -55.85 -22.0 -44.85 -22.0 -44.85 -33.0 -55.85 -33.0 -55.85 -22.0 M-7.35 -41.5 L-7.35 30.5 -7.35 -41.5 M-55.85 11.75 L-55.85 22.75 -55.85 11.75 M259.15 12.5 L272.65 12.5 272.65 2.5 259.15 2.5 259.15 12.5 259.15 2.5 272.65 2.5 272.65 12.5 259.15 12.5 M-69.85 -47.5 L-69.85 37.5 -69.85 -47.5 M-64.85 30.5 L-64.85 -41.5 -64.85 30.5 M-280.35 -40.0 L-280.35 33.5 -280.35 -40.0 M-274.85 37.5 L-274.85 -47.5 -274.85 37.5 M-26.35 30.5 L-26.35 -41.5 -26.35 30.5 M-35.35 -41.5 L-35.35 30.5 -35.35 -41.5 M116.9 25.25 L116.9 -35.75 116.9 25.25 M99.1 -41.5 L99.1 30.5 99.1 -41.5 M146.65 20.0 L146.65 -30.0 146.65 20.0 M252.15 -27.0 L252.15 17.8 252.15 -27.0 M279.65 16.0 L279.65 -25.5 279.65 16.0 M82.6 30.5 L82.6 -41.5 82.6 30.5 M134.7 -30.0 L134.7 20.0 134.7 -30.0 M284.65 -25.5 L284.65 16.0 284.65 -25.5 M210.7 14.5 L210.7 -24.5 210.7 14.5 M243.7 14.5 L243.7 -24.0 243.7 14.5 M197.7 14.5 L197.7 -24.5 197.7 14.5 M247.7 13.0 L247.7 -23.5 247.7 13.0 M238.2 14.5 L238.2 -24.5 238.2 14.5 M49.9 30.5 L49.9 -41.5 49.9 30.5" fill="url(#gradient2)" fill-rule="evenodd" stroke="none"/>
    <path d="M352.65 -14.0 Q368.35 -9.3 368.4 -4.65 368.45 0.0 353.65 4.0 L352.65 4.25 352.65 -14.0" fill="url(#gradient3)" fill-rule="evenodd" stroke="none"/>
    <path d="M19.05 -79.5 L14.8 -71.35 -7.6 -68.35 14.8 -71.35 19.05 -79.5 49.9 -41.65 50.05 -41.5 49.9 -41.5 38.55 -41.5 -7.35 -41.5 -7.6 -41.5 -7.6 -68.35 -7.6 -79.5 -7.6 -68.35 -7.6 -41.5 -26.25 -41.5 -26.25 -79.5 -7.6 -79.5 19.05 -79.5 M14.8 -71.35 L38.55 -41.5 14.8 -71.35 M49.9 -41.5 L49.9 -41.65 49.9 -41.5" fill="#f5f5f6" fill-rule="evenodd" stroke="none"/>
    <path d="M49.85 30.5 L18.9 69.5 -7.75 69.5 -26.4 69.5 -26.4 30.5 -26.35 30.5 -7.75 30.5 -7.75 57.9 -7.75 69.5 -7.75 57.9 -7.75 30.5 -7.35 30.5 39.2 30.5 14.65 61.35 18.9 69.5 14.65 61.35 39.2 30.5 49.85 30.5 M-7.75 57.9 L14.65 61.35 -7.75 57.9" fill="#caccce" fill-rule="evenodd" stroke="none"/>
    <path d="M160.6 -8.0 L169.6 -8.0 169.6 -3.0 160.6 -3.0 160.6 -8.0 M-26.35 -41.5 L-26.35 30.5 M116.9 -35.75 L116.9 25.25 M146.65 -30.0 L146.65 20.0" fill="none" stroke="#000000" stroke-linecap="round" stroke-linejoin="round" stroke-width="2.0"/>
    <path d="M19.05 -79.5 L-7.6 -79.5 -7.6 -68.35 -7.6 -41.5 -7.35 -41.5 38.55 -41.5 49.9 -41.5 50.05 -41.5 49.9 -41.65 19.05 -79.5 M50.05 -41.5 L82.6 -41.5 99.1 -41.5 116.9 -35.75 134.7 -30.0 146.65 -30.0 242.2 -30.0 252.15 -27.0 279.65 -27.0 279.65 -25.5 284.65 -25.5 284.65 -27.0 293.65 -27.0 352.65 -14.0 Q368.35 -9.3 368.4 -4.65 368.45 0.0 353.65 4.0 L352.65 4.25 293.65 17.5 284.65 17.5 284.65 16.0 279.65 16.0 279.65 17.5 253.15 17.5 252.15 17.8 243.7 20.0 146.65 20.0 134.7 20.0 116.9 25.25 99.1 30.5 82.6 30.5 49.9 30.5 49.85 30.5 18.9 69.5 -7.75 69.5 -26.4 69.5 -26.4 30.5 -35.35 30.5 -55.85 30.5 -64.85 30.5 -69.85 37.5 -274.85 37.5 -280.35 33.5 -289.35 33.5 -321.35 70.5 -346.35 70.5 -363.85 70.5 -363.85 37.5 -363.85 25.0 -346.35 25.0 -346.35 22.5 -346.35 6.0 -349.35 6.0 -349.35 3.5 -359.35 3.5 -359.35 0.5 -368.35 0.5 -368.35 -4.5 -359.35 -4.5 -359.35 -6.5 -349.35 -6.5 -349.35 -9.0 -346.35 -9.0 -346.35 -18.0 -338.35 -18.0 -338.35 -9.0 -334.35 -9.0 -334.35 6.0 -346.35 6.0 M-346.35 -33.5 L-349.35 -33.5 -349.35 -25.5 -363.85 -25.5 -363.85 -33.5 -363.85 -45.5 -363.85 -75.5 -346.35 -75.5 -321.85 -75.5 -289.35 -40.0 -280.35 -40.0 -274.85 -47.5 -69.85 -47.5 -64.85 -41.5 -55.85 -41.5 -35.35 -41.5 -26.35 -41.5 -26.25 -41.5 -26.25 -79.5 -7.6 -79.5 M-333.35 -40.0 L-301.35 -40.0 -289.35 -40.0 -289.35 -27.0 -289.35 -16.5 -289.35 16.0 -289.35 27.0 -289.35 33.5 M-346.35 -45.5 L-333.85 -45.5 -333.85 -40.0 -333.85 -33.5 -346.35 -33.5 M-363.85 -45.5 L-346.35 -45.5 M-349.35 -33.5 L-363.85 -33.5 M-346.35 -9.0 L-338.35 -9.0 M-301.85 -36.5 L-310.85 -36.5 -310.85 -27.0 -301.85 -27.0 -301.85 -36.5 M-289.35 -27.0 L-301.85 -27.0 -301.85 -16.5 -289.35 -16.5 M-55.85 -41.5 L-55.85 -33.0 -44.85 -33.0 -44.85 -22.0 -55.85 -22.0 -55.85 11.75 -44.85 11.75 -44.85 22.75 -55.85 22.75 -55.85 30.5 M-55.85 -33.0 L-55.85 -22.0 M-26.25 -41.5 L-7.6 -41.5 M-7.35 30.5 L-7.35 -41.5 M-7.75 30.5 L-26.35 30.5 -26.4 30.5 M-55.85 22.75 L-55.85 11.75 M-289.35 16.0 L-302.35 16.0 -302.35 27.0 -289.35 27.0 M-346.35 37.5 L-363.85 37.5 M-335.35 33.5 L-346.35 33.5 -346.35 37.5 M-346.35 25.0 L-346.35 33.5 M-335.35 33.5 L-335.35 22.5 -346.35 22.5 M39.2 30.5 L49.85 30.5 M-349.35 -6.5 L-349.35 3.5 M-359.35 0.5 L-359.35 -4.5 M-274.85 -47.5 L-274.85 37.5 M-280.35 33.5 L-280.35 -40.0 M-64.85 -41.5 L-64.85 30.5 M-69.85 37.5 L-69.85 -47.5 M-35.35 30.5 L-35.35 -41.5 M99.1 30.5 L99.1 -41.5 M134.7 20.0 L134.7 -30.0 M82.6 -41.5 L82.6 30.5 M279.65 -25.5 L279.65 16.0 M252.15 17.8 L252.15 -27.0 M352.65 -14.0 L352.65 4.25 M284.65 16.0 L284.65 -25.5" fill="none" stroke="#000000" stroke-linecap="round" stroke-linejoin="round" stroke-width="1.2000000000000002"/>
    <path d="M49.9 -41.65 L49.9 -41.5 49.9 30.5 M259.15 -12.0 L259.15 -22.0 272.65 -22.0 272.65 -12.0 259.15 -12.0 M-312.35 -26.0 L-312.35 -17.0 -321.35 -17.0 -321.35 -26.0 -312.35 -26.0 M-299.6 11.75 L-307.85 11.75 -307.85 3.5 -299.6 3.5 -299.6 11.75 M-312.35 17.0 L-312.35 26.5 -321.85 26.5 -321.85 17.0 -312.35 17.0 M259.15 12.5 L259.15 2.5 272.65 2.5 272.65 12.5 259.15 12.5 M238.2 -24.5 L238.2 14.5 M247.7 -23.5 L247.7 13.0 M197.7 -24.5 L197.7 14.5 M243.7 -24.0 L243.7 14.5 M210.7 -24.5 L210.7 14.5" fill="none" stroke="#000000" stroke-linecap="round" stroke-linejoin="round" stroke-width="1.5"/>
    <path d="M-7.6 -68.35 L14.8 -71.35 19.05 -79.5 M38.55 -41.5 L14.8 -71.35 M-346.35 -18.0 L-346.35 -33.5 M-346.35 -45.5 L-346.35 -66.5 -346.35 -75.5 M-301.35 -40.0 L-323.85 -68.7 -346.35 -66.5 M-321.85 -75.5 L-323.85 -68.7 M-299.35 33.5 L-325.35 63.5 -321.35 70.5 M-7.75 30.5 L-7.35 30.5 39.2 30.5 14.65 61.35 18.9 69.5 M-7.75 69.5 L-7.75 57.9 -7.75 30.5 M-346.35 37.5 L-346.35 60.5 -325.35 63.5 M-346.35 60.5 L-346.35 70.5 M-299.35 33.5 L-335.35 33.5 M14.65 61.35 L-7.75 57.9" fill="none" stroke="#666666" stroke-linecap="round" stroke-linejoin="round" stroke-width="1.5"/>
    <path d="M18.25 -7.2 Q19.25 -8.25 20.65 -8.25 22.1 -8.25 23.1 -7.2 24.1 -6.2 24.1 -4.8 24.1 -3.35 23.1 -2.35 22.1 -1.35 20.65 -1.35 19.25 -1.35 18.25 -2.35 17.2 -3.35 17.2 -4.8 17.2 -6.2 18.25 -7.2 M11.25 -23.2 L17.8 -10.25 16.3 -9.15 Q14.6 -7.45 14.5 -5.0 L0.05 -5.0 Q0.15 -13.4 6.1 -19.35 8.45 -21.75 11.25 -23.2 M30.5 -22.95 Q33.0 -21.6 35.2 -19.35 41.2 -13.4 41.25 -4.9 L26.85 -4.9 Q26.8 -7.4 25.05 -9.15 24.35 -9.85 23.55 -10.25 L30.5 -22.95 M8.35 11.8 L16.95 0.15 Q18.55 1.35 20.65 1.4 22.75 1.35 24.35 0.2 L32.85 11.85 Q27.6 15.8 20.65 15.8 13.65 15.8 8.35 11.8" fill="url(#gradient4)" fill-rule="evenodd" stroke="none"/>
    <path d="M-240.4 -19.65 Q-238.05 -22.05 -235.25 -23.5 L-228.7 -10.55 -230.2 -9.45 Q-231.9 -7.75 -232.0 -5.3 L-246.45 -5.3 Q-246.35 -13.7 -240.4 -19.65 M-229.3 -5.1 Q-229.3 -6.5 -228.25 -7.5 -227.25 -8.55 -225.85 -8.55 -224.4 -8.55 -223.4 -7.5 -222.4 -6.5 -222.4 -5.1 -222.4 -3.65 -223.4 -2.65 -224.4 -1.65 -225.85 -1.65 -227.25 -1.65 -228.25 -2.65 -229.3 -3.65 -229.3 -5.1 M-219.65 -5.2 Q-219.7 -7.7 -221.45 -9.45 L-222.95 -10.55 -216.0 -23.25 Q-213.5 -21.9 -211.3 -19.65 -205.3 -13.7 -205.25 -5.2 L-219.65 -5.2 M-225.85 15.5 Q-232.85 15.5 -238.15 11.5 L-229.55 -0.15 Q-227.95 1.05 -225.85 1.1 -223.75 1.05 -222.15 -0.1 L-213.65 11.55 Q-218.9 15.5 -225.85 15.5" fill="url(#gradient5)" fill-rule="evenodd" stroke="none"/>
  </g>
  <defs>
    <linearGradient gradientTransform="matrix(0.0, 0.0439, -0.0238, 0.0, 63.1, -5.5)" gradientUnits="userSpaceOnUse" id="gradient0" spreadMethod="pad" x1="-819.2" x2="819.2">
      <stop offset="0.13333333333333333" stop-color="#fafafa"/>
      <stop offset="0.7529411764705882" stop-color="#caccce"/>
    </linearGradient>
    <linearGradient gradientTransform="matrix(7.0E-4, 0.0111, -0.0099, 6.0E-4, 360.2, -5.4)" gradientUnits="userSpaceOnUse" id="gradient1" spreadMethod="pad" x1="-819.2" x2="819.2">
      <stop offset="0.13333333333333333" stop-color="#666666"/>
      <stop offset="0.7529411764705882" stop-color="#000000"/>
    </linearGradient>
    <linearGradient gradientTransform="matrix(0.0, 0.0439, -0.0238, 0.0, 63.1, -5.5)" gradientUnits="userSpaceOnUse" id="gradient2" spreadMethod="pad" x1="-819.2" x2="819.2">
      <stop offset="0.13333333333333333" stop-color="#fafafa"/>
      <stop offset="0.7529411764705882" stop-color="#caccce"/>
    </linearGradient>
    <linearGradient gradientTransform="matrix(7.0E-4, 0.0111, -0.0099, 6.0E-4, 360.2, -5.4)" gradientUnits="userSpaceOnUse" id="gradient3" spreadMethod="pad" x1="-819.2" x2="819.2">
      <stop offset="0.13333333333333333" stop-color="#666666"/>
      <stop offset="0.7529411764705882" stop-color="#000000"/>
    </linearGradient>
    <linearGradient gradientTransform="matrix(0.0, 0.0238, -0.0251, 0.0, 20.65, -3.7)" gradientUnits="userSpaceOnUse" id="gradient4" spreadMethod="pad" x1="-819.2" x2="819.2">
      <stop offset="0.09803921568627451" stop-color="#666666"/>
      <stop offset="1.0" stop-color="#2b2b2b"/>
    </linearGradient>
    <linearGradient gradientTransform="matrix(0.0, 0.0238, -0.0251, 0.0, -225.85, -4.0)" gradientUnits="userSpaceOnUse" id="gradient5" spreadMethod="pad" x1="-819.2" x2="819.2">
      <stop offset="0.09803921568627451" stop-color="#666666"/>
      <stop offset="1.0" stop-color="#2b2b2b"/>
    </linearGradient>
  </defs>
</svg>
