<?xml version="1.0" encoding="UTF-8" standalone="no"?>
<svg xmlns:ffdec="https://www.free-decompiler.com/flash" xmlns:xlink="http://www.w3.org/1999/xlink" ffdec:objectType="shape" height="331.0px" width="498.95px" xmlns="http://www.w3.org/2000/svg">
  <g transform="matrix(1.0, 0.0, 0.0, 1.0, 250.0, 166.0)">
    <path d="M248.95 165.0 L-250.0 165.0 -250.0 -166.0 248.95 -166.0 248.95 165.0" fill="url(#gradient0)" fill-rule="evenodd" stroke="none"/>
    <path d="M-59.7 16.2 L-48.6 4.0 -50.65 20.2 -35.55 26.85 -52.0 30.95 -54.2 48.75 -62.2 33.5 -79.5 37.85 -67.1 24.25 -74.8 9.55 -59.7 16.2 M-18.8 -27.95 L-13.1 -43.6 -7.85 -27.95 8.7 -27.95 -4.65 -18.55 0.6 -2.85 -13.55 -12.25 -28.25 -1.9 -22.35 -18.1 -37.25 -27.95 -18.8 -27.95 M-7.85 -77.4 L-14.3 -60.65 -18.4 -77.3 -36.2 -77.2 -20.9 -87.45 -24.9 -103.6 -11.85 -93.6 1.85 -102.75 -4.0 -87.55 9.1 -77.45 -7.85 -77.4 M-57.2 -107.45 L-64.05 -123.15 -81.6 -120.05 -68.25 -132.75 -74.85 -147.95 -60.35 -140.3 -48.35 -151.65 -51.6 -135.7 -36.95 -128.0 -53.65 -125.0 -57.2 -107.45 M-216.8 -7.75 L-199.05 -56.6 -244.0 -86.35 -188.3 -86.35 -171.15 -133.5 -155.25 -86.35 -105.4 -86.35 -145.7 -57.95 -129.7 -10.6 -172.5 -39.0 -216.8 -7.75" fill="#ffff00" fill-rule="evenodd" stroke="none"/>
  </g>
  <defs>
    <linearGradient gradientTransform="matrix(0.0, 0.202, -0.3045, 0.0, -0.5, -0.5)" gradientUnits="userSpaceOnUse" id="gradient0" spreadMethod="pad" x1="-819.2" x2="819.2">
      <stop offset="0.0" stop-color="#fe4e4e"/>
      <stop offset="0.48627450980392156" stop-color="#fd0802"/>
      <stop offset="0.48627450980392156" stop-color="#fd0802"/>
      <stop offset="1.0" stop-color="#c90303"/>
    </linearGradient>
  </defs>
</svg>
