<?xml version="1.0" encoding="UTF-8" standalone="no"?>
<svg xmlns:ffdec="https://www.free-decompiler.com/flash" xmlns:xlink="http://www.w3.org/1999/xlink" ffdec:objectType="shape" height="36.0px" width="167.45px" xmlns="http://www.w3.org/2000/svg">
  <g transform="matrix(1.0, 0.0, 0.0, 1.0, 97.5, 63.75)">
    <path d="M39.95 -60.7 L69.2 -63.0 65.0 -55.55 Q58.3 -42.8 55.4 -28.5 L28.35 -31.95 Q33.1 -47.3 39.95 -60.7" fill="#00b6a7" fill-rule="evenodd" stroke="none"/>
    <path d="M39.95 -60.7 Q33.1 -47.3 28.35 -31.95 L-0.5 -35.6 Q2.3 -44.3 5.9 -52.35 L8.5 -57.9 39.95 -60.7" fill="#f3214e" fill-rule="evenodd" stroke="none"/>
    <path d="M-0.5 -35.6 L-5.85 -36.3 -6.65 -36.7 -6.75 -36.4 -19.95 -37.7 -22.4 -37.7 -29.5 -38.2 Q-26.75 -46.3 -23.35 -53.75 L-0.85 -56.85 8.5 -57.9 5.9 -52.35 Q2.3 -44.3 -0.5 -35.6" fill="#fd806a" fill-rule="evenodd" stroke="none"/>
    <path d="M-29.5 -38.2 L-31.85 -38.4 -59.1 -39.6 -55.85 -48.2 -37.8 -51.45 -23.35 -53.75 Q-26.75 -46.3 -29.5 -38.2" fill="#fcbd6d" fill-rule="evenodd" stroke="none"/>
    <path d="M-59.1 -39.6 L-59.6 -39.6 Q-78.15 -40.0 -96.75 -39.45 L-73.55 -44.5 -55.85 -48.2 -59.1 -39.6" fill="#ffe09b" fill-rule="evenodd" stroke="none"/>
    <path d="M28.35 -31.95 L55.4 -28.5 Q58.3 -42.8 65.0 -55.55 L69.2 -63.0 39.95 -60.7 8.5 -57.9 -0.85 -56.85 -23.35 -53.75 -37.8 -51.45 -55.85 -48.2 -73.55 -44.5 -96.75 -39.45 Q-78.15 -40.0 -59.6 -39.6 L-59.1 -39.6 -31.85 -38.4 -29.5 -38.2 -22.4 -37.7 -19.95 -37.7 -6.75 -36.4 -5.85 -36.3 -0.5 -35.6 28.35 -31.95 Z" fill="none" stroke="#000000" stroke-linecap="round" stroke-linejoin="round" stroke-width="1.5"/>
  </g>
</svg>
