<?xml version="1.0" encoding="UTF-8" standalone="no"?>
<svg xmlns:ffdec="https://www.free-decompiler.com/flash" xmlns:xlink="http://www.w3.org/1999/xlink" ffdec:objectType="shape" height="12.35px" width="11.95px" xmlns="http://www.w3.org/2000/svg">
  <g transform="matrix(1.0, 0.0, 0.0, 1.0, 6.0, 6.15)">
    <path d="M-0.65 -0.9 L1.4 -4.6 0.4 -5.4 Q2.35 -5.4 3.8 -3.75 5.2 -2.15 5.2 0.2 5.05 -1.8 4.25 -2.9 3.4 -4.05 2.4 -3.8 1.35 -3.6 0.7 -2.15 0.05 -0.7 0.2 0.8 L-0.65 -0.9 M-1.15 -5.15 L-4.25 -3.05 -5.1 -1.1 Q-5.1 -2.75 -3.95 -3.95 -2.8 -5.15 -1.15 -5.15 M0.0 5.45 Q-2.05 5.45 -3.45 4.55 -4.9 3.6 -4.9 2.3 L-3.95 2.65 -3.6 3.7 0.0 5.45" fill="#eb0000" fill-rule="evenodd" stroke="none"/>
    <path d="M0.4 -5.4 L1.4 -4.6 -0.65 -0.9 -1.8 0.2 -1.85 -2.75 -2.75 -3.45 -4.25 -3.05 -1.15 -5.15 0.4 -5.4 M-5.2 -0.35 L-5.1 -1.1 -5.2 -0.35" fill="#cc0000" fill-rule="evenodd" stroke="none"/>
    <path d="M0.2 0.8 Q0.05 -0.7 0.7 -2.15 1.35 -3.6 2.4 -3.8 3.4 -4.05 4.25 -2.9 5.05 -1.8 5.2 0.2 5.2 2.4 3.9 3.9 2.55 5.45 0.7 5.45 L1.45 5.05 0.2 0.8" fill="#ff9900" fill-rule="evenodd" stroke="none"/>
    <path d="M-0.65 -0.9 L0.2 0.8 1.45 5.05 0.7 5.45 0.0 5.45 -3.6 3.7 -3.95 2.65 Q-3.05 2.65 -2.4 1.95 -1.8 1.2 -1.8 0.2 L-0.65 -0.9" fill="#ff6600" fill-rule="evenodd" stroke="none"/>
    <path d="M-4.25 -3.05 L-2.75 -3.45 -1.85 -2.75 -1.8 0.2 Q-1.8 1.2 -2.4 1.95 -3.05 2.65 -3.95 2.65 L-4.9 2.3 -5.25 0.25 -5.2 -0.35 -5.1 -1.1 -4.25 -3.05" fill="#990000" fill-rule="evenodd" stroke="none"/>
    <path d="M5.2 0.2 Q5.2 -2.15 3.8 -3.75 2.35 -5.4 0.4 -5.4 L-1.15 -5.15 Q-2.8 -5.15 -3.95 -3.95 -5.1 -2.75 -5.1 -1.1 L-5.2 -0.35 -5.25 0.25 -4.9 2.3 Q-4.9 3.6 -3.45 4.55 -2.05 5.45 0.0 5.45 L0.7 5.45 Q2.55 5.45 3.9 3.9 5.2 2.4 5.2 0.2 Z" fill="none" stroke="#000000" stroke-linecap="round" stroke-linejoin="round" stroke-width="1.5"/>
  </g>
</svg>
