<?xml version="1.0" encoding="UTF-8" standalone="no"?>
<svg xmlns:ffdec="https://www.free-decompiler.com/flash" xmlns:xlink="http://www.w3.org/1999/xlink" ffdec:objectType="shape" height="120.95px" width="98.2px" xmlns="http://www.w3.org/2000/svg">
  <g transform="matrix(1.0, 0.0, 0.0, 1.0, 28.65, 51.6)">
    <path d="M-0.05 48.9 L-0.5 49.15 -6.0 49.15 -6.0 47.7 -0.45 43.0 -0.45 39.45 -0.95 39.4 -1.0 39.4 -5.6 18.95 -5.8 17.6 -4.3 2.65 -4.2 0.8 Q-5.3 -0.05 -5.3 -2.75 L-4.85 -5.4 Q-5.9 -5.75 -6.0 -7.85 -5.85 -9.0 -6.0 -9.45 L-6.9 -10.85 Q-9.0 -10.1 -12.75 -10.4 L-22.6 -9.8 -22.55 -9.7 Q-22.75 -8.2 -25.2 -8.95 L-27.1 -10.9 Q-28.0 -11.55 -27.4 -13.15 -26.85 -14.8 -25.2 -14.7 L-23.65 -14.45 Q-22.45 -14.7 -21.1 -13.55 -20.8 -13.6 -19.75 -14.0 L-16.75 -15.1 -13.65 -16.2 -13.65 -16.3 Q-14.2 -17.6 -13.05 -22.25 -12.45 -24.85 -11.25 -26.75 -17.4 -25.3 -18.65 -28.05 L-17.15 -28.75 -18.2 -33.75 -19.6 -33.35 Q-20.5 -39.5 -15.8 -40.95 -9.75 -41.95 -7.75 -34.15 -6.8 -36.8 -4.2 -38.7 L-4.2 -38.75 Q-1.05 -41.25 1.7 -44.25 L1.35 -44.35 1.35 -45.1 5.2 -50.6 6.05 -50.25 6.25 -50.15 Q8.1 -50.45 9.5 -49.45 L9.75 -49.3 9.75 -49.25 9.9 -49.15 Q11.5 -47.75 11.2 -45.8 12.1 -45.5 12.1 -45.1 12.1 -44.3 11.35 -43.45 L11.4 -43.25 Q13.15 -39.85 18.7 -36.75 26.45 -32.5 27.35 -28.7 28.35 -24.95 26.55 -21.9 24.85 -19.05 21.05 -16.5 18.3 -14.75 16.65 -11.25 L16.3 -10.55 Q16.6 -9.55 16.25 -8.5 15.85 -7.0 14.45 -6.2 L13.45 -5.8 11.5 -5.9 Q10.0 -6.3 9.25 -7.7 L7.05 -11.65 Q6.15 -10.55 5.35 -10.2 L7.25 -7.75 Q8.85 -5.2 8.75 -2.25 8.6 0.65 7.5 2.15 6.35 3.6 6.2 3.25 5.75 6.7 5.45 12.55 L5.05 20.5 Q5.1 22.45 6.8 27.3 8.5 32.15 9.25 36.15 L8.95 37.2 Q11.35 38.95 14.2 42.0 L14.2 42.05 12.4 44.3 9.75 46.5 9.25 46.8 6.75 48.35 Q4.7 49.6 3.25 49.9 1.75 50.2 1.45 50.45 0.0 49.55 -0.05 48.9 L0.0 48.85 -0.05 48.9 M3.35 41.5 Q4.0 43.45 3.05 44.75 L2.85 45.0 -0.2 48.7 0.0 48.85 -0.2 48.7 2.85 45.0 3.05 44.75 Q4.0 43.45 3.35 41.5 L3.25 41.05 3.3 41.2 3.05 41.5 3.35 41.5 M2.8 39.65 L3.25 41.05 2.8 39.65 M-1.5 -36.0 L-2.0 -36.0 -2.05 -35.95 -2.1 -35.95 -4.0 -33.8 -2.0 -33.45 -1.5 -36.0 M2.8 -40.05 L2.8 -37.2 2.6 -36.25 3.75 -36.25 3.5 -36.0 4.1 -34.85 4.15 -34.6 5.5 -34.05 13.25 -20.45 12.1 -18.45 15.35 -12.55 15.65 -13.1 Q17.4 -16.25 20.1 -17.95 23.55 -20.25 25.05 -22.8 26.45 -25.25 25.65 -28.25 24.75 -31.4 17.85 -35.2 11.55 -38.7 9.75 -42.6 L9.7 -42.9 9.55 -43.2 7.7 -41.7 7.45 -41.55 6.1 -41.35 Q5.05 -40.05 2.8 -40.05 M3.85 20.5 L3.95 20.9 3.85 20.5 M-0.3 30.4 L-0.45 30.2 -0.3 30.4" fill="#000000" fill-rule="evenodd" stroke="none"/>
    <path d="M-0.05 48.9 L-0.5 49.15 -6.0 49.15 -6.0 47.7 -0.45 43.0 -0.45 39.45 -0.95 39.4 -1.0 39.4 -5.6 18.95 -5.8 17.6 -4.3 2.65 -4.2 0.8 Q-5.3 -0.05 -5.3 -2.75 L-4.85 -5.4 Q-5.9 -5.75 -6.0 -7.85 -5.85 -9.0 -6.0 -9.45 L-6.9 -10.85 Q-9.0 -10.1 -12.75 -10.4 L-22.6 -9.8 -22.55 -9.7 Q-22.75 -8.2 -25.2 -8.95 L-27.1 -10.9 Q-28.0 -11.55 -27.4 -13.15 -26.85 -14.8 -25.2 -14.7 L-23.65 -14.45 Q-22.45 -14.7 -21.1 -13.55 -20.8 -13.6 -19.75 -14.0 L-16.75 -15.1 -13.65 -16.2 -13.65 -16.3 Q-14.2 -17.6 -13.05 -22.25 -12.45 -24.85 -11.25 -26.75 -17.4 -25.3 -18.65 -28.05 L-17.15 -28.75 -18.2 -33.75 -19.6 -33.35 Q-20.5 -39.5 -15.8 -40.95 -9.75 -41.95 -7.75 -34.15 -6.8 -36.8 -4.2 -38.7 L-4.2 -38.75 Q-1.05 -41.25 1.7 -44.25 L1.35 -44.35 1.35 -45.1 5.2 -50.6 6.05 -50.25 6.25 -50.15 Q8.1 -50.45 9.5 -49.45 L9.75 -49.3 9.75 -49.25 9.9 -49.15 Q11.5 -47.75 11.2 -45.8 12.1 -45.5 12.1 -45.1 12.1 -44.3 11.35 -43.45 L11.4 -43.25 Q13.15 -39.85 18.7 -36.75 26.45 -32.5 27.35 -28.7 28.35 -24.95 26.55 -21.9 24.85 -19.05 21.05 -16.5 18.3 -14.75 16.65 -11.25 L16.3 -10.55 Q16.6 -9.55 16.25 -8.5 15.85 -7.0 14.45 -6.2 L13.45 -5.8 11.5 -5.9 Q10.0 -6.3 9.25 -7.7 L7.05 -11.65 Q6.15 -10.55 5.35 -10.2 L7.25 -7.75 Q8.85 -5.2 8.75 -2.25 8.6 0.65 7.5 2.15 6.35 3.6 6.2 3.25 5.75 6.7 5.45 12.55 L5.05 20.5 Q5.1 22.45 6.8 27.3 8.5 32.15 9.25 36.15 L8.95 37.2 Q11.35 38.95 14.2 42.0 L14.2 42.05 12.4 44.3 9.75 46.5 9.25 46.8 6.75 48.35 Q4.7 49.6 3.25 49.9 1.75 50.2 1.45 50.45 0.0 49.55 -0.05 48.9 M2.8 -40.05 Q5.05 -40.05 6.1 -41.35 L7.45 -41.55 7.7 -41.7 9.55 -43.2 9.7 -42.9 9.75 -42.6 Q11.55 -38.7 17.85 -35.2 24.75 -31.4 25.65 -28.25 26.45 -25.25 25.05 -22.8 23.55 -20.25 20.1 -17.95 17.4 -16.25 15.65 -13.1 L15.35 -12.55 12.1 -18.45 13.25 -20.45 5.5 -34.05 4.15 -34.6 4.1 -34.85 3.5 -36.0 3.75 -36.25 2.6 -36.25 2.8 -37.2 2.8 -40.05" fill="none" stroke="#000000" stroke-linecap="round" stroke-linejoin="round" stroke-width="2.0"/>
    <path d="M-0.05 48.9 L0.0 48.85 -0.2 48.7 2.85 45.0 3.05 44.75 Q4.0 43.45 3.35 41.5 L3.25 41.05 2.8 39.65 M3.3 41.2 L3.25 41.05 M3.95 20.9 L3.85 20.5 M-0.05 48.9 L0.0 48.85" fill="none" stroke="#000000" stroke-linecap="round" stroke-linejoin="round" stroke-width="2.0"/>
    <path d="M1.7 -44.25 L1.35 -44.35 1.35 -45.1 5.2 -50.6 6.05 -50.25 6.25 -50.15 8.8 -48.15 Q8.2 -44.7 6.85 -42.95 L6.1 -41.35 Q5.05 -40.05 2.8 -40.05 L2.8 -37.2 2.6 -36.25 2.55 -36.25 -1.75 -36.05 Q0.4 -37.65 0.9 -38.5 0.4 -37.65 -1.75 -36.05 L-2.0 -36.0 0.9 -38.5 2.8 -40.3 4.4 -42.0 Q4.9 -42.55 4.85 -43.25 4.8 -44.0 4.3 -44.5 3.75 -45.0 3.05 -44.95 2.3 -44.9 1.8 -44.35 L1.7 -44.25 M7.05 -11.65 Q6.15 -10.55 5.35 -10.2 L7.25 -7.75 Q8.85 -5.2 8.75 -2.25 8.6 0.65 7.5 2.15 6.35 3.6 6.2 3.25 5.75 6.7 5.45 12.55 L5.05 20.5 Q5.1 22.45 6.8 27.3 8.5 32.15 9.25 36.15 L8.95 37.2 8.65 37.85 7.3 39.65 5.85 40.8 Q4.65 41.45 3.35 41.5 L3.25 41.05 2.8 39.65 -0.3 30.45 -0.3 30.4 -0.45 30.2 -3.6 24.0 -3.65 23.95 Q-5.15 20.75 -5.6 18.95 L-5.8 17.6 -4.3 2.65 -4.2 0.8 Q-5.3 -0.05 -5.3 -2.75 L-4.85 -5.4 Q-5.9 -5.75 -6.0 -7.85 -5.85 -9.0 -6.0 -9.45 L-6.9 -10.85 -7.35 -11.6 Q-8.0 -12.8 -7.95 -13.3 -8.9 -11.25 -11.4 -10.65 L-12.75 -10.4 -22.6 -9.8 -22.55 -9.7 Q-22.75 -8.2 -25.2 -8.95 L-27.1 -10.9 Q-28.0 -11.55 -27.4 -13.15 -26.85 -14.8 -25.2 -14.7 L-23.65 -14.45 -23.3 -14.2 -22.75 -13.7 -21.1 -13.55 Q-20.8 -13.6 -19.75 -14.0 L-16.75 -15.1 -13.65 -16.2 -13.65 -16.3 Q-14.2 -17.6 -13.05 -22.25 -12.45 -24.85 -11.25 -26.75 -10.3 -28.4 -8.4 -29.55 L-8.2 -29.7 -8.2 -29.75 -8.25 -30.6 Q-8.3 -32.2 -7.85 -33.7 L-7.85 -33.75 -7.75 -34.15 -7.45 -34.85 Q-6.4 -35.95 -3.55 -34.55 L-4.0 -33.8 -4.2 -33.5 -4.45 -32.9 -4.55 -32.7 -4.75 -30.7 -4.55 -29.2 -4.35 -28.45 -4.15 -27.85 -4.15 -27.8 -3.35 -25.55 -3.25 -25.1 -3.2 -25.0 -3.15 -24.85 Q-2.25 -21.65 -1.65 -18.35 -1.55 -17.65 -1.95 -17.05 -2.4 -16.45 -3.1 -16.3 -3.8 -16.2 -4.4 -16.6 -5.0 -17.05 -5.1 -17.75 L-5.35 -19.0 -5.65 -20.5 -6.35 -18.15 -6.75 -17.0 -6.8 -16.95 -6.25 -16.4 -5.45 -15.65 -5.4 -15.55 -5.25 -15.45 Q-3.65 -14.05 -1.35 -13.3 0.15 -13.95 1.3 -15.0 2.55 -16.2 2.8 -17.35 L2.7 -19.55 7.05 -11.65 M2.4 12.4 L-2.95 9.6 -2.95 11.65 2.45 14.95 2.4 12.4 M3.85 20.5 L3.95 20.9 3.85 20.5 M2.55 19.95 L2.55 18.3 -2.95 14.75 -2.95 16.9 -2.95 17.15 -2.95 17.4 2.55 20.45 2.55 19.95 M2.75 22.0 L-2.85 19.3 -2.7 21.15 -2.65 21.4 3.3 24.1 2.8 22.25 2.75 22.0 M0.35 29.45 L0.45 29.75 6.15 31.55 6.45 31.7 Q4.75 28.2 3.8 25.6 L3.75 25.4 -2.3 23.35 -2.3 23.45 -1.35 25.9 Q0.0 28.2 0.35 29.45 M-8.85 -21.35 Q-9.85 -22.35 -10.55 -22.35 -12.5 -22.35 -12.5 -16.6 L-12.5 -16.3 Q-12.4 -13.75 -10.7 -13.75 -9.6 -13.75 -8.7 -16.35 -7.95 -18.55 -7.95 -19.85 -7.95 -20.4 -8.85 -21.35 M-7.35 -11.6 L-6.25 -16.4 -7.35 -11.6" fill="#373737" fill-rule="evenodd" stroke="none"/>
    <path d="M6.25 -50.15 Q8.1 -50.45 9.5 -49.45 L9.75 -49.3 9.75 -49.25 9.9 -49.15 Q11.5 -47.75 11.2 -45.8 12.1 -45.5 12.1 -45.1 12.1 -44.3 11.35 -43.45 L11.35 -43.5 11.05 -44.2 10.55 -44.7 10.0 -44.75 9.9 -44.7 9.4 -44.25 Q9.25 -43.95 9.4 -43.6 L9.55 -43.2 7.7 -41.7 7.45 -41.55 6.1 -41.35 6.85 -42.95 Q8.2 -44.7 8.8 -48.15 L6.25 -50.15" fill="#6a6a6a" fill-rule="evenodd" stroke="none"/>
    <path d="M11.35 -43.45 L11.4 -43.25 Q13.15 -39.85 18.7 -36.75 26.45 -32.5 27.35 -28.7 28.35 -24.95 26.55 -21.9 24.85 -19.05 21.05 -16.5 18.3 -14.75 16.65 -11.25 L16.3 -10.55 15.85 -9.4 15.35 -8.9 14.7 -8.85 14.2 -9.35 Q14.05 -9.65 14.2 -10.0 L15.1 -12.05 15.1 -12.0 15.35 -12.55 15.65 -13.1 Q17.4 -16.25 20.1 -17.95 23.55 -20.25 25.05 -22.8 26.45 -25.25 25.65 -28.25 24.75 -31.4 17.85 -35.2 11.55 -38.7 9.75 -42.6 L9.7 -42.9 9.55 -43.2 9.4 -43.6 Q9.25 -43.95 9.4 -44.25 L9.9 -44.7 10.0 -44.75 10.55 -44.7 11.05 -44.2 11.35 -43.5 11.35 -43.45 M4.15 -34.6 L5.5 -34.05 13.25 -20.45 12.1 -18.45 5.15 -31.1 4.4 -33.75 4.15 -34.6 M-1.7 -33.1 L-0.75 -33.8 Q0.65 -34.6 2.15 -34.15 2.9 -33.95 3.5 -33.45 L4.45 -32.3 4.9 -31.5 0.5 -29.2 -1.7 -33.1" fill="#999999" fill-rule="evenodd" stroke="none"/>
    <path d="M-7.45 -34.85 Q-6.45 -37.05 -4.2 -38.7 L-4.2 -38.75 Q-1.05 -41.25 1.7 -44.25 L1.8 -44.35 Q2.3 -44.9 3.05 -44.95 3.75 -45.0 4.3 -44.5 4.8 -44.0 4.85 -43.25 4.9 -42.55 4.4 -42.0 L2.8 -40.3 0.9 -38.5 -2.0 -36.0 -2.05 -35.95 -2.1 -35.95 -3.55 -34.55 Q-6.4 -35.95 -7.45 -34.85 M-4.55 -32.7 L-4.45 -32.9 -4.45 -32.85 -4.55 -32.7" fill="#aaaaaa" fill-rule="evenodd" stroke="none"/>
    <path d="M-1.75 -36.05 L2.55 -36.25 2.6 -36.25 3.75 -36.25 3.5 -36.0 4.1 -34.85 4.15 -34.6 4.4 -33.75 5.15 -31.1 4.9 -31.5 4.45 -32.3 3.5 -33.45 Q2.9 -33.95 2.15 -34.15 0.65 -34.6 -0.75 -33.8 L-1.7 -33.1 -2.0 -33.45 -1.5 -36.0 -1.8 -36.0 -2.0 -36.0 -1.75 -36.05 -1.8 -36.0 -1.75 -36.05" fill="#cccccc" fill-rule="evenodd" stroke="none"/>
    <path d="M12.1 -18.45 L14.6 -13.75 10.5 -11.4 0.5 -29.2 4.9 -31.5 5.15 -31.1 12.1 -18.45" fill="#fe4545" fill-rule="evenodd" stroke="none"/>
    <path d="M16.3 -10.55 Q16.6 -9.55 16.25 -8.5 15.85 -7.0 14.45 -6.2 L13.45 -5.8 10.5 -11.4 14.6 -13.75 15.35 -12.55 15.1 -12.0 15.1 -12.05 14.2 -10.0 Q14.05 -9.65 14.2 -9.35 L14.7 -8.85 15.35 -8.9 15.85 -9.4 16.3 -10.55" fill="#404040" fill-rule="evenodd" stroke="none"/>
    <path d="M0.8 -23.05 L2.7 -19.55 2.8 -17.35 Q2.55 -16.2 1.3 -15.0 0.15 -13.95 -1.35 -13.3 -3.65 -14.05 -5.25 -15.45 L-5.4 -15.55 -5.45 -15.65 -6.25 -16.4 -6.8 -16.95 -6.75 -17.0 -6.35 -18.15 -5.65 -20.5 -5.35 -19.0 -5.1 -17.75 Q-5.0 -17.05 -4.4 -16.6 -3.8 -16.2 -3.1 -16.3 -2.4 -16.45 -1.95 -17.05 -1.55 -17.65 -1.65 -18.35 -2.25 -21.65 -3.15 -24.85 L-2.15 -25.1 -1.75 -25.25 Q-1.45 -25.15 -0.8 -22.15 L0.8 -23.05" fill="#515151" fill-rule="evenodd" stroke="none"/>
    <path d="M7.95 -10.0 L7.05 -11.65 2.7 -19.55 0.8 -23.05 -1.9 -27.95 0.5 -29.2 10.5 -11.4 7.95 -10.0" fill="#650101" fill-rule="evenodd" stroke="none"/>
    <path d="M13.45 -5.8 L11.5 -5.9 Q10.0 -6.3 9.25 -7.7 L7.95 -10.0 10.5 -11.4 13.45 -5.8" fill="#1a1a1a" fill-rule="evenodd" stroke="none"/>
    <path d="M2.4 12.4 L2.45 14.95 -2.95 11.65 -2.95 9.6 2.4 12.4 M2.75 22.0 L2.8 22.25 3.3 24.1 -2.65 21.4 -2.7 21.15 -2.85 19.3 2.75 22.0 M2.55 19.95 L2.55 20.45 -2.95 17.4 -2.95 17.15 -2.95 16.9 -2.95 14.75 2.55 18.3 2.55 19.95 M0.35 29.45 Q0.0 28.2 -1.35 25.9 L-2.3 23.45 -2.3 23.35 3.75 25.4 3.8 25.6 Q4.75 28.2 6.45 31.7 L6.15 31.55 0.45 29.75 0.35 29.45" fill="#aeaeae" fill-rule="evenodd" stroke="none"/>
    <path d="M8.95 37.2 Q11.35 38.95 14.2 42.0 L14.2 42.05 12.4 44.3 9.75 46.5 9.75 45.55 Q8.4 45.45 6.45 44.15 6.45 42.2 5.85 40.8 L7.3 39.65 8.65 37.85 8.95 37.2 M3.3 41.2 L3.05 41.5 3.35 41.5 Q4.0 43.45 3.05 44.75 L2.85 45.0 1.1 43.65 1.1 39.55 2.8 39.65 3.25 41.05 3.3 41.2" fill="#e6e6e6" fill-rule="evenodd" stroke="none"/>
    <path d="M-0.45 39.45 L-0.95 39.4 -1.0 39.4 -5.6 18.95 Q-5.15 20.75 -3.65 23.95 L-3.6 24.0 -0.45 30.2 -0.3 30.4 -0.3 30.45 2.8 39.65 1.1 39.55 -0.45 39.45 M-6.9 -10.85 Q-9.0 -10.1 -12.75 -10.4 L-11.4 -10.65 Q-8.9 -11.25 -7.95 -13.3 -8.0 -12.8 -7.35 -11.6 L-6.9 -10.85 M-23.65 -14.45 Q-22.45 -14.7 -21.1 -13.55 L-22.75 -13.7 -23.3 -14.2 -23.65 -14.45 M-17.15 -28.75 L-18.2 -33.75 -16.7 -34.25 -15.75 -29.45 -17.15 -28.75 M-4.55 -32.7 L-4.45 -32.85 -4.45 -32.9 -4.2 -33.5 -4.55 -32.05 Q-4.55 -30.15 -4.05 -28.45 -3.3 -26.0 -3.35 -25.55 L-4.15 -27.8 -4.15 -27.85 -4.35 -28.45 -4.55 -29.2 -4.75 -30.7 -4.55 -32.7" fill="#222222" fill-rule="evenodd" stroke="none"/>
    <path d="M9.75 46.5 L9.25 46.8 6.75 48.35 Q4.7 49.6 3.25 49.9 1.75 50.2 1.45 50.45 0.0 49.55 -0.05 48.9 L-0.5 49.15 -6.0 49.15 -6.0 47.7 -0.45 43.0 -0.45 39.45 1.1 39.55 1.1 43.65 2.85 45.0 3.05 44.75 Q4.0 43.45 3.35 41.5 4.65 41.45 5.85 40.8 6.45 42.2 6.45 44.15 8.4 45.45 9.75 45.55 L9.75 46.5 M0.0 48.85 L-0.2 48.7 2.85 45.0 -0.2 48.7 0.0 48.85 -0.05 48.9 0.0 48.85" fill="#bbbbbb" fill-rule="evenodd" stroke="none"/>
    <path d="M-1.7 -33.1 L0.5 -29.2 -1.9 -27.95 -2.25 -28.6 Q-3.05 -30.0 -2.65 -31.55 L-1.7 -33.1" fill="#626262" fill-rule="evenodd" stroke="none"/>
    <path d="M-8.85 -21.35 Q-7.95 -20.4 -7.95 -19.85 -7.95 -18.55 -8.7 -16.35 -9.6 -13.75 -10.7 -13.75 -12.4 -13.75 -12.5 -16.3 L-12.5 -16.6 Q-12.5 -22.35 -10.55 -22.35 -9.85 -22.35 -8.85 -21.35" fill="#7b7b7b" fill-rule="evenodd" stroke="none"/>
    <path d="M-11.25 -26.75 Q-17.4 -25.3 -18.65 -28.05 L-17.15 -28.75 -15.75 -29.45 -16.7 -34.25 -18.2 -33.75 -19.6 -33.35 Q-20.5 -39.5 -15.8 -40.95 -9.75 -41.95 -7.75 -34.15 L-7.85 -33.75 -7.85 -33.7 Q-8.3 -32.2 -8.25 -30.6 L-8.2 -29.75 -8.2 -29.7 -8.4 -29.55 Q-10.3 -28.4 -11.25 -26.75" fill="url(#gradient0)" fill-rule="evenodd" stroke="none"/>
    <path d="M0.9 -38.5 Q0.4 -37.65 -1.75 -36.05 L-1.8 -36.0 -2.1 -35.8 -3.5 -34.55 -4.0 -33.8 -4.2 -33.5 -4.55 -32.05 Q-4.55 -30.15 -4.05 -28.45 -3.3 -26.0 -3.35 -25.55 M3.95 20.9 L3.85 20.5 M3.35 41.5 L3.25 41.05 3.3 41.2 M2.8 39.65 L3.25 41.05 M3.35 41.5 Q4.0 43.45 3.05 44.75 L2.85 45.0 -0.2 48.7 0.0 48.85 -0.05 48.9 0.0 48.85 M-6.25 -16.4 L-7.35 -11.6" fill="none" stroke="#000000" stroke-linecap="round" stroke-linejoin="round" stroke-width="0.05"/>
    <path d="M-3.55 -34.55 L-3.5 -34.55" fill="none" stroke="#000000" stroke-linecap="round" stroke-linejoin="round" stroke-width="0.05"/>
    <path d="M18.0 65.95 Q16.0 63.65 16.0 60.6 16.0 57.0 18.75 54.4 L19.7 53.65 Q18.05 53.4 16.85 52.15 15.4 50.65 15.4 48.5 15.4 46.35 16.85 44.8 18.1 43.6 19.7 43.35 16.55 43.35 14.35 40.95 12.15 38.6 12.15 35.2 12.15 31.8 14.35 29.4 L15.55 28.35 Q13.9 27.95 12.6 26.65 10.7 24.75 10.7 22.05 10.7 19.35 12.6 17.45 L13.45 16.75 Q11.65 16.55 10.35 15.15 8.9 13.55 8.9 11.25 8.9 8.95 10.35 7.35 L10.8 6.9 Q9.35 6.6 8.25 5.35 6.85 3.7 6.85 1.35 6.85 -1.0 8.25 -2.65 L8.85 -3.2 Q8.3 -3.8 8.3 -4.55 L8.3 -4.6 7.55 -5.15 Q6.55 -6.05 6.55 -7.35 6.55 -8.65 7.55 -9.55 8.55 -10.45 9.95 -10.45 11.35 -10.45 12.35 -9.55 13.35 -8.65 13.35 -7.35 L13.2 -6.35 14.85 -6.65 Q16.7 -6.65 18.0 -5.45 19.3 -4.2 19.3 -2.5 19.3 -1.6 18.95 -0.85 L20.45 -1.05 Q22.65 -1.05 24.2 0.45 25.8 2.0 25.8 4.15 25.8 5.4 25.25 6.45 26.2 5.5 27.55 5.5 28.9 5.5 29.85 6.45 30.8 7.4 30.8 8.75 L30.5 10.2 32.3 9.9 Q34.5 9.9 36.05 11.4 37.65 12.95 37.65 15.1 L37.55 16.15 37.95 16.55 Q38.8 17.55 39.05 18.85 42.55 19.1 45.1 21.65 47.95 24.5 47.95 28.55 L47.8 30.45 Q49.25 29.75 51.05 29.75 54.2 29.75 56.4 31.85 58.6 34.0 58.6 37.0 58.6 39.15 57.45 40.9 59.3 39.8 61.7 39.8 64.95 39.8 67.25 41.8 L68.5 43.25 Q69.55 44.8 69.55 46.75 69.55 49.65 67.25 51.65 64.95 53.7 61.7 53.7 L60.3 53.6 Q59.65 54.85 58.5 55.9 56.05 58.15 52.55 58.15 49.2 58.15 46.8 56.1 L46.75 56.2 46.8 56.95 Q46.8 59.75 44.5 61.75 42.2 63.75 38.95 63.75 36.65 63.75 34.8 62.75 L34.6 63.2 Q33.9 65.2 32.2 66.75 29.45 69.35 25.5 69.35 21.55 69.35 18.75 66.75 L18.0 65.95" fill="url(#gradient1)" fill-rule="evenodd" stroke="none"/>
    <path d="M18.0 65.95 Q16.0 63.65 16.0 60.6 16.0 57.0 18.75 54.4 L19.7 53.65 Q18.05 53.4 16.85 52.15 15.4 50.65 15.4 48.5 15.4 46.35 16.85 44.8 18.1 43.6 19.7 43.35 16.55 43.35 14.35 40.95 12.15 38.6 12.15 35.2 12.15 31.8 14.35 29.4 L15.55 28.35 Q13.9 27.95 12.6 26.65 10.7 24.75 10.7 22.05 10.7 19.35 12.6 17.45 L13.45 16.75 Q11.65 16.55 10.35 15.15 8.9 13.55 8.9 11.25 8.9 8.95 10.35 7.35 L10.8 6.9 Q9.35 6.6 8.25 5.35 6.85 3.7 6.85 1.35 6.85 -1.0 8.25 -2.65 L8.85 -3.2 Q8.3 -3.8 8.3 -4.55 L8.3 -4.6 7.55 -5.15 Q6.55 -6.05 6.55 -7.35 6.55 -8.65 7.55 -9.55 8.55 -10.45 9.95 -10.45 11.35 -10.45 12.35 -9.55 13.35 -8.65 13.35 -7.35 L13.2 -6.35 14.85 -6.65 Q16.7 -6.65 18.0 -5.45 19.3 -4.2 19.3 -2.5 19.3 -1.6 18.95 -0.85 L20.45 -1.05 Q22.65 -1.05 24.2 0.45 25.8 2.0 25.8 4.15 25.8 5.4 25.25 6.45 26.2 5.5 27.55 5.5 28.9 5.5 29.85 6.45 30.8 7.4 30.8 8.75 L30.5 10.2 32.3 9.9 Q34.5 9.9 36.05 11.4 37.65 12.95 37.65 15.1 L37.55 16.15 37.95 16.55 Q38.8 17.55 39.05 18.85 42.55 19.1 45.1 21.65 47.95 24.5 47.95 28.55 L47.8 30.45 Q49.25 29.75 51.05 29.75 54.2 29.75 56.4 31.85 58.6 34.0 58.6 37.0 58.6 39.15 57.45 40.9 59.3 39.8 61.7 39.8 64.95 39.8 67.25 41.8 L68.5 43.25" fill="none" stroke="#999999" stroke-linecap="round" stroke-linejoin="round" stroke-width="0.05"/>
  </g>
  <defs>
    <radialGradient cx="0" cy="0" gradientTransform="matrix(0.0278, 0.0, 0.0, 0.0278, -30.15, -35.95)" gradientUnits="userSpaceOnUse" id="gradient0" r="819.2" spreadMethod="pad">
      <stop offset="0.611764705882353" stop-color="#db9393"/>
      <stop offset="1.0" stop-color="#d10303"/>
    </radialGradient>
    <linearGradient gradientTransform="matrix(0.0225, 0.0456, -0.0302, 0.0149, 25.85, 24.15)" gradientUnits="userSpaceOnUse" id="gradient1" spreadMethod="pad" x1="-819.2" x2="819.2">
      <stop offset="0.5411764705882353" stop-color="#ffffff" stop-opacity="0.8"/>
      <stop offset="1.0" stop-color="#ffffff" stop-opacity="0.0"/>
    </linearGradient>
  </defs>
</svg>
