<?xml version="1.0" encoding="UTF-8" standalone="no"?>
<svg xmlns:ffdec="https://www.free-decompiler.com/flash" xmlns:xlink="http://www.w3.org/1999/xlink" ffdec:objectType="shape" height="120.9px" width="96.05px" xmlns="http://www.w3.org/2000/svg">
  <g transform="matrix(1.0, 0.0, 0.0, 1.0, 29.25, 53.1)">
    <path d="M-0.65 47.4 L-1.1 47.65 -6.6 47.65 -6.6 46.2 -1.05 41.5 -1.05 37.95 -1.55 37.9 -1.6 37.9 -6.2 17.45 -6.4 16.1 -4.9 1.15 -4.8 -0.7 Q-5.9 -1.55 -5.9 -4.25 L-5.45 -6.9 Q-6.5 -7.25 -6.6 -9.35 -6.45 -10.5 -6.6 -10.95 L-7.5 -12.35 Q-9.6 -11.6 -13.35 -11.9 L-23.2 -11.3 -23.15 -11.2 Q-23.35 -9.7 -25.8 -10.45 L-27.7 -12.4 Q-28.6 -13.05 -28.0 -14.65 -27.45 -16.3 -25.8 -16.2 L-24.25 -15.95 Q-23.05 -16.2 -21.7 -15.05 -21.4 -15.1 -20.35 -15.5 L-17.35 -16.6 -14.25 -17.7 -14.25 -17.8 Q-14.8 -19.1 -13.65 -23.75 -13.05 -26.35 -11.85 -28.25 -18.0 -26.8 -19.25 -29.55 L-17.75 -30.25 -18.8 -35.25 -20.2 -34.85 Q-21.1 -41.0 -16.4 -42.45 -10.35 -43.45 -8.35 -35.65 -7.4 -38.3 -4.8 -40.2 L-4.8 -40.25 Q-1.65 -42.75 1.1 -45.75 L0.75 -45.85 0.75 -46.6 4.6 -52.1 5.45 -51.75 5.65 -51.65 Q7.5 -51.95 8.9 -50.95 L9.15 -50.8 9.15 -50.75 9.3 -50.65 Q10.9 -49.25 10.6 -47.3 11.5 -47.0 11.5 -46.6 11.5 -45.8 10.75 -44.95 L10.8 -44.75 Q12.55 -41.35 18.1 -38.25 25.85 -34.0 26.75 -30.2 27.75 -26.45 25.95 -23.4 24.25 -20.55 20.45 -18.0 17.7 -16.25 16.05 -12.75 L15.7 -12.05 Q16.0 -11.05 15.65 -10.0 15.25 -8.5 13.85 -7.7 L12.85 -7.3 10.9 -7.4 Q9.4 -7.8 8.65 -9.2 L6.45 -13.15 Q5.55 -12.05 4.75 -11.7 L6.65 -9.25 Q8.25 -6.7 8.15 -3.75 8.0 -0.85 6.9 0.65 5.75 2.1 5.6 1.75 5.15 5.2 4.85 11.05 L4.45 19.0 Q4.5 20.95 6.2 25.8 7.9 30.65 8.65 34.65 L8.35 35.7 Q10.75 37.45 13.6 40.5 L13.6 40.55 11.8 42.8 9.15 45.0 8.65 45.3 6.15 46.85 Q4.1 48.1 2.65 48.4 1.15 48.7 0.85 48.95 -0.6 48.05 -0.65 47.4 L-0.6 47.35 -0.65 47.4 M2.75 40.0 Q3.4 41.95 2.45 43.25 L2.25 43.5 -0.8 47.2 -0.6 47.35 -0.8 47.2 2.25 43.5 2.45 43.25 Q3.4 41.95 2.75 40.0 L2.65 39.55 2.7 39.7 2.45 40.0 2.75 40.0 M2.2 38.15 L2.65 39.55 2.2 38.15 M9.1 -44.4 L8.95 -44.7 7.1 -43.2 6.85 -43.05 Q6.1 -42.7 5.5 -42.85 4.45 -41.55 2.2 -41.55 L2.2 -38.7 2.0 -37.75 3.15 -37.75 2.9 -37.5 3.5 -36.35 3.55 -36.1 4.9 -35.55 12.65 -21.95 11.5 -19.95 14.75 -14.05 15.05 -14.6 Q16.8 -17.75 19.5 -19.45 22.95 -21.75 24.45 -24.3 25.85 -26.75 25.05 -29.75 24.15 -32.9 17.25 -36.7 10.95 -40.2 9.15 -44.1 L9.1 -44.4 M-2.65 -37.45 L-2.7 -37.45 Q-3.95 -36.5 -4.6 -35.3 L-2.6 -34.95 -2.1 -37.5 -2.6 -37.5 -2.65 -37.45 M-1.05 28.7 L-0.9 28.9 -1.05 28.7 M3.25 19.0 L3.35 19.4 3.25 19.0" fill="#000000" fill-rule="evenodd" stroke="none"/>
    <path d="M-0.65 47.4 L-1.1 47.65 -6.6 47.65 -6.6 46.2 -1.05 41.5 -1.05 37.95 -1.55 37.9 -1.6 37.9 -6.2 17.45 -6.4 16.1 -4.9 1.15 -4.8 -0.7 Q-5.9 -1.55 -5.9 -4.25 L-5.45 -6.9 Q-6.5 -7.25 -6.6 -9.35 -6.45 -10.5 -6.6 -10.95 L-7.5 -12.35 Q-9.6 -11.6 -13.35 -11.9 L-23.2 -11.3 -23.15 -11.2 Q-23.35 -9.7 -25.8 -10.45 L-27.7 -12.4 Q-28.6 -13.05 -28.0 -14.65 -27.45 -16.3 -25.8 -16.2 L-24.25 -15.95 Q-23.05 -16.2 -21.7 -15.05 -21.4 -15.1 -20.35 -15.5 L-17.35 -16.6 -14.25 -17.7 -14.25 -17.8 Q-14.8 -19.1 -13.65 -23.75 -13.05 -26.35 -11.85 -28.25 -18.0 -26.8 -19.25 -29.55 L-17.75 -30.25 -18.8 -35.25 -20.2 -34.85 Q-21.1 -41.0 -16.4 -42.45 -10.35 -43.45 -8.35 -35.65 -7.4 -38.3 -4.8 -40.2 L-4.8 -40.25 Q-1.65 -42.75 1.1 -45.75 L0.75 -45.85 0.75 -46.6 4.6 -52.1 5.45 -51.75 5.65 -51.65 Q7.5 -51.95 8.9 -50.95 L9.15 -50.8 9.15 -50.75 9.3 -50.65 Q10.9 -49.25 10.6 -47.3 11.5 -47.0 11.5 -46.6 11.5 -45.8 10.75 -44.95 L10.8 -44.75 Q12.55 -41.35 18.1 -38.25 25.85 -34.0 26.75 -30.2 27.75 -26.45 25.95 -23.4 24.25 -20.55 20.45 -18.0 17.7 -16.25 16.05 -12.75 L15.7 -12.05 Q16.0 -11.05 15.65 -10.0 15.25 -8.5 13.85 -7.7 L12.85 -7.3 10.9 -7.4 Q9.4 -7.8 8.65 -9.2 L6.45 -13.15 Q5.55 -12.05 4.75 -11.7 L6.65 -9.25 Q8.25 -6.7 8.15 -3.75 8.0 -0.85 6.9 0.65 5.75 2.1 5.6 1.75 5.15 5.2 4.85 11.05 L4.45 19.0 Q4.5 20.95 6.2 25.8 7.9 30.65 8.65 34.65 L8.35 35.7 Q10.75 37.45 13.6 40.5 L13.6 40.55 11.8 42.8 9.15 45.0 8.65 45.3 6.15 46.85 Q4.1 48.1 2.65 48.4 1.15 48.7 0.85 48.95 -0.6 48.05 -0.65 47.4 L-0.6 47.35 -0.8 47.2 2.25 43.5 2.45 43.25 Q3.4 41.95 2.75 40.0 L2.65 39.55 2.2 38.15 M2.7 39.7 L2.65 39.55 M9.1 -44.4 L9.15 -44.1 Q10.95 -40.2 17.25 -36.7 24.15 -32.9 25.05 -29.75 25.85 -26.75 24.45 -24.3 22.95 -21.75 19.5 -19.45 16.8 -17.75 15.05 -14.6 L14.75 -14.05 11.5 -19.95 12.65 -21.95 4.9 -35.55 3.55 -36.1 3.5 -36.35 2.9 -37.5 3.15 -37.75 2.0 -37.75 2.2 -38.7 2.2 -41.55 Q4.45 -41.55 5.5 -42.85 6.1 -42.7 6.85 -43.05 L7.1 -43.2 8.95 -44.7 9.1 -44.4 M-0.6 47.35 L-0.65 47.4 M3.35 19.4 L3.25 19.0" fill="none" stroke="#000000" stroke-linecap="round" stroke-linejoin="round" stroke-width="2.0"/>
    <path d="M5.65 -51.65 L8.2 -49.65 Q7.6 -46.2 6.25 -44.45 L5.5 -42.85 Q4.45 -41.55 2.2 -41.55 L2.2 -38.7 2.0 -37.75 1.95 -37.75 -2.35 -37.55 Q-0.2 -39.15 0.3 -40.0 -0.2 -39.15 -2.35 -37.55 L-2.6 -37.5 0.3 -40.0 2.2 -41.8 3.8 -43.5 Q4.3 -44.05 4.25 -44.75 L3.7 -46.0 Q3.15 -46.5 2.45 -46.45 1.7 -46.4 1.2 -45.85 L1.1 -45.75 0.75 -45.85 0.75 -46.6 4.6 -52.1 5.45 -51.75 5.65 -51.65 M6.45 -13.15 Q5.55 -12.05 4.75 -11.7 L6.65 -9.25 Q8.25 -6.7 8.15 -3.75 8.0 -0.85 6.9 0.65 5.75 2.1 5.6 1.75 5.15 5.2 4.85 11.05 L4.45 19.0 Q4.5 20.95 6.2 25.8 7.9 30.65 8.65 34.65 L8.35 35.7 8.05 36.35 6.7 38.15 5.25 39.3 Q4.05 39.95 2.75 40.0 L2.65 39.55 2.2 38.15 -0.9 28.95 -0.9 28.9 -1.05 28.7 -4.2 22.5 -4.25 22.45 -6.2 17.45 -6.4 16.1 -4.9 1.15 -4.8 -0.7 Q-5.9 -1.55 -5.9 -4.25 L-5.45 -6.9 Q-6.5 -7.25 -6.6 -9.35 -6.45 -10.5 -6.6 -10.95 L-7.5 -12.35 -7.95 -13.1 -6.85 -17.9 -7.95 -13.1 Q-8.6 -14.3 -8.55 -14.8 -9.5 -12.75 -12.0 -12.15 L-13.35 -11.9 -23.2 -11.3 -23.15 -11.2 Q-23.35 -9.7 -25.8 -10.45 L-27.7 -12.4 Q-28.6 -13.05 -28.0 -14.65 -27.45 -16.3 -25.8 -16.2 L-24.25 -15.95 -23.9 -15.7 -23.35 -15.2 -21.7 -15.05 Q-21.4 -15.1 -20.35 -15.5 L-17.35 -16.6 -14.25 -17.7 -14.25 -17.8 Q-14.8 -19.1 -13.65 -23.75 -13.05 -26.35 -11.85 -28.25 -10.9 -29.9 -9.0 -31.05 L-8.8 -31.2 -8.8 -31.25 -8.85 -32.1 Q-8.9 -33.7 -8.45 -35.2 L-8.45 -35.25 -8.35 -35.65 -8.05 -36.35 Q-7.0 -37.45 -4.15 -36.05 L-4.6 -35.3 -4.8 -35.0 -5.05 -34.4 -5.15 -34.2 -5.35 -32.2 -5.15 -30.7 -4.95 -29.95 -4.75 -29.35 -4.75 -29.3 -3.95 -27.05 -3.85 -26.6 -3.8 -26.5 -3.75 -26.35 Q-2.85 -23.15 -2.25 -19.85 -2.15 -19.15 -2.55 -18.55 -3.0 -17.95 -3.7 -17.8 -4.4 -17.7 -5.0 -18.1 -5.6 -18.55 -5.7 -19.25 L-5.95 -20.5 -6.25 -22.0 -6.95 -19.65 -7.35 -18.5 -7.4 -18.45 -6.85 -17.9 -6.05 -17.15 -6.0 -17.05 -5.85 -16.95 Q-4.25 -15.55 -1.95 -14.8 -0.45 -15.45 0.7 -16.5 1.95 -17.7 2.2 -18.85 L2.1 -21.05 6.45 -13.15 M3.2 24.1 L3.15 23.9 -2.9 21.85 -2.9 21.95 -1.95 24.4 Q-0.6 26.7 -0.25 27.95 L-0.15 28.25 5.55 30.05 5.85 30.2 Q4.15 26.7 3.2 24.1 M2.15 20.5 L-3.45 17.8 -3.3 19.65 -3.25 19.9 2.7 22.6 2.2 20.75 2.15 20.5 M1.95 18.45 L1.95 16.8 -3.55 13.25 -3.55 15.4 -3.55 15.65 -3.55 15.9 1.95 18.95 1.95 18.45 M3.25 19.0 L3.35 19.4 3.25 19.0 M1.8 10.9 L-3.55 8.1 -3.55 10.15 1.85 13.45 1.8 10.9 M-9.45 -22.85 Q-10.45 -23.85 -11.15 -23.85 -13.1 -23.85 -13.1 -18.1 L-13.1 -17.8 Q-13.0 -15.25 -11.3 -15.25 -10.2 -15.25 -9.3 -17.85 -8.55 -20.05 -8.55 -21.35 -8.55 -21.9 -9.45 -22.85" fill="#373737" fill-rule="evenodd" stroke="none"/>
    <path d="M5.5 -42.85 L6.25 -44.45 Q7.6 -46.2 8.2 -49.65 L5.65 -51.65 Q7.5 -51.95 8.9 -50.95 L9.15 -50.8 9.15 -50.75 9.3 -50.65 Q10.9 -49.25 10.6 -47.3 11.5 -47.0 11.5 -46.6 11.5 -45.8 10.75 -44.95 L10.75 -45.0 10.45 -45.7 9.95 -46.2 9.4 -46.25 9.3 -46.2 8.8 -45.75 Q8.65 -45.45 8.8 -45.1 L8.95 -44.7 7.1 -43.2 6.85 -43.05 Q6.1 -42.7 5.5 -42.85" fill="#6a6a6a" fill-rule="evenodd" stroke="none"/>
    <path d="M8.95 -44.7 L8.8 -45.1 Q8.65 -45.45 8.8 -45.75 L9.3 -46.2 9.4 -46.25 9.95 -46.2 10.45 -45.7 10.75 -45.0 10.75 -44.95 10.8 -44.75 Q12.55 -41.35 18.1 -38.25 25.85 -34.0 26.75 -30.2 27.75 -26.45 25.95 -23.4 24.25 -20.55 20.45 -18.0 17.7 -16.25 16.05 -12.75 L15.7 -12.05 15.25 -10.9 14.75 -10.4 14.1 -10.35 13.6 -10.85 Q13.45 -11.15 13.6 -11.5 L14.5 -13.55 14.5 -13.5 14.75 -14.05 15.05 -14.6 Q16.8 -17.75 19.5 -19.45 22.95 -21.75 24.45 -24.3 25.85 -26.75 25.05 -29.75 24.15 -32.9 17.25 -36.7 10.95 -40.2 9.15 -44.1 L9.1 -44.4 8.95 -44.7 M3.55 -36.1 L4.9 -35.55 12.65 -21.95 11.5 -19.95 4.55 -32.6 3.8 -35.25 3.55 -36.1 M-2.3 -34.6 L-1.35 -35.3 Q0.05 -36.1 1.55 -35.65 L2.9 -34.95 3.85 -33.8 4.3 -33.0 -0.1 -30.7 -2.3 -34.6" fill="#999999" fill-rule="evenodd" stroke="none"/>
    <path d="M1.1 -45.75 L1.2 -45.85 Q1.7 -46.4 2.45 -46.45 3.15 -46.5 3.7 -46.0 L4.25 -44.75 Q4.3 -44.05 3.8 -43.5 L2.2 -41.8 0.3 -40.0 -2.6 -37.5 -2.65 -37.45 -2.7 -37.45 -4.15 -36.05 Q-7.0 -37.45 -8.05 -36.35 -7.05 -38.55 -4.8 -40.2 L-4.8 -40.25 Q-1.65 -42.75 1.1 -45.75 M-5.05 -34.4 L-5.05 -34.35 -5.15 -34.2 -5.05 -34.4" fill="#aaaaaa" fill-rule="evenodd" stroke="none"/>
    <path d="M-2.35 -37.55 L1.95 -37.75 2.0 -37.75 3.15 -37.75 2.9 -37.5 3.5 -36.35 3.55 -36.1 3.8 -35.25 4.55 -32.6 4.3 -33.0 3.85 -33.8 2.9 -34.95 1.55 -35.65 Q0.05 -36.1 -1.35 -35.3 L-2.3 -34.6 -2.6 -34.95 -2.1 -37.5 -2.4 -37.5 -2.35 -37.55 -2.4 -37.5 -2.6 -37.5 -2.35 -37.55" fill="#cccccc" fill-rule="evenodd" stroke="none"/>
    <path d="M11.5 -19.95 L14.0 -15.25 9.9 -12.9 -0.1 -30.7 4.3 -33.0 4.55 -32.6 11.5 -19.95" fill="#fe4545" fill-rule="evenodd" stroke="none"/>
    <path d="M15.7 -12.05 Q16.0 -11.05 15.65 -10.0 15.25 -8.5 13.85 -7.7 L12.85 -7.3 9.9 -12.9 14.0 -15.25 14.75 -14.05 14.5 -13.5 14.5 -13.55 13.6 -11.5 Q13.45 -11.15 13.6 -10.85 L14.1 -10.35 14.75 -10.4 15.25 -10.9 15.7 -12.05" fill="#404040" fill-rule="evenodd" stroke="none"/>
    <path d="M2.1 -21.05 L2.2 -18.85 Q1.95 -17.7 0.7 -16.5 -0.45 -15.45 -1.95 -14.8 -4.25 -15.55 -5.85 -16.95 L-6.0 -17.05 -6.05 -17.15 -6.85 -17.9 -7.4 -18.45 -7.35 -18.5 -6.95 -19.65 -6.25 -22.0 -5.95 -20.5 -5.7 -19.25 Q-5.6 -18.55 -5.0 -18.1 -4.4 -17.7 -3.7 -17.8 -3.0 -17.95 -2.55 -18.55 -2.15 -19.15 -2.25 -19.85 -2.85 -23.15 -3.75 -26.35 L-2.75 -26.6 -2.35 -26.75 Q-2.05 -26.65 -1.4 -23.65 L0.2 -24.55 2.1 -21.05" fill="#515151" fill-rule="evenodd" stroke="none"/>
    <path d="M7.35 -11.5 L6.45 -13.15 2.1 -21.05 0.2 -24.55 -2.5 -29.45 -0.1 -30.7 9.9 -12.9 7.35 -11.5" fill="#650101" fill-rule="evenodd" stroke="none"/>
    <path d="M12.85 -7.3 L10.9 -7.4 Q9.4 -7.8 8.65 -9.2 L7.35 -11.5 9.9 -12.9 12.85 -7.3" fill="#1a1a1a" fill-rule="evenodd" stroke="none"/>
    <path d="M3.2 24.1 Q4.15 26.7 5.85 30.2 L5.55 30.05 -0.15 28.25 -0.25 27.95 Q-0.6 26.7 -1.95 24.4 L-2.9 21.95 -2.9 21.85 3.15 23.9 3.2 24.1 M1.95 18.45 L1.95 18.95 -3.55 15.9 -3.55 15.65 -3.55 15.4 -3.55 13.25 1.95 16.8 1.95 18.45 M2.15 20.5 L2.2 20.75 2.7 22.6 -3.25 19.9 -3.3 19.65 -3.45 17.8 2.15 20.5 M1.8 10.9 L1.85 13.45 -3.55 10.15 -3.55 8.1 1.8 10.9" fill="#aeaeae" fill-rule="evenodd" stroke="none"/>
    <path d="M8.35 35.7 Q10.75 37.45 13.6 40.5 L13.6 40.55 11.8 42.8 9.15 45.0 9.15 44.05 Q7.8 43.95 5.85 42.65 5.85 40.7 5.25 39.3 L6.7 38.15 8.05 36.35 8.35 35.7 M2.75 40.0 Q3.4 41.95 2.45 43.25 L2.25 43.5 Q1.5 43.15 0.5 42.15 L0.5 38.05 2.2 38.15 2.65 39.55 2.7 39.7 2.45 40.0 2.75 40.0" fill="#e6e6e6" fill-rule="evenodd" stroke="none"/>
    <path d="M-1.05 37.95 L-1.55 37.9 -1.6 37.9 -6.2 17.45 -4.25 22.45 -4.2 22.5 -1.05 28.7 -0.9 28.9 -0.9 28.95 2.2 38.15 0.5 38.05 -1.05 37.95 M-7.5 -12.35 Q-9.6 -11.6 -13.35 -11.9 L-12.0 -12.15 Q-9.5 -12.75 -8.55 -14.8 -8.6 -14.3 -7.95 -13.1 L-7.5 -12.35 M-24.25 -15.95 Q-23.05 -16.2 -21.7 -15.05 L-23.35 -15.2 -23.9 -15.7 -24.25 -15.95 M-17.75 -30.25 L-18.8 -35.25 -17.3 -35.75 -16.35 -30.95 -17.75 -30.25 M-4.8 -35.0 L-5.15 -33.55 Q-5.15 -31.65 -4.65 -29.95 L-3.95 -27.05 -4.75 -29.3 -4.75 -29.35 -4.95 -29.95 -5.15 -30.7 -5.35 -32.2 -5.15 -34.2 -5.05 -34.35 -5.05 -34.4 -4.8 -35.0" fill="#222222" fill-rule="evenodd" stroke="none"/>
    <path d="M9.15 45.0 L8.65 45.3 6.15 46.85 Q4.1 48.1 2.65 48.4 1.15 48.7 0.85 48.95 -0.6 48.05 -0.65 47.4 L-1.1 47.65 -6.6 47.65 -6.6 46.2 -1.05 41.5 -1.05 37.95 0.5 38.05 0.5 42.15 Q1.5 43.15 2.25 43.5 L2.45 43.25 Q3.4 41.95 2.75 40.0 4.05 39.95 5.25 39.3 5.85 40.7 5.85 42.65 7.8 43.95 9.15 44.05 L9.15 45.0 M-0.6 47.35 L-0.8 47.2 2.25 43.5 -0.8 47.2 -0.6 47.35 -0.65 47.4 -0.6 47.35" fill="#bbbbbb" fill-rule="evenodd" stroke="none"/>
    <path d="M-2.5 -29.45 L-2.85 -30.1 Q-3.65 -31.5 -3.25 -33.05 L-2.3 -34.6 -0.1 -30.7 -2.5 -29.45" fill="#626262" fill-rule="evenodd" stroke="none"/>
    <path d="M-9.45 -22.85 Q-8.55 -21.9 -8.55 -21.35 -8.55 -20.05 -9.3 -17.85 -10.2 -15.25 -11.3 -15.25 -13.0 -15.25 -13.1 -17.8 L-13.1 -18.1 Q-13.1 -23.85 -11.15 -23.85 -10.45 -23.85 -9.45 -22.85" fill="#7b7b7b" fill-rule="evenodd" stroke="none"/>
    <path d="M-11.85 -28.25 Q-18.0 -26.8 -19.25 -29.55 L-17.75 -30.25 -16.35 -30.95 -17.3 -35.75 -18.8 -35.25 -20.2 -34.85 Q-21.1 -41.0 -16.4 -42.45 -10.35 -43.45 -8.35 -35.65 L-8.45 -35.25 -8.45 -35.2 Q-8.9 -33.7 -8.85 -32.1 L-8.8 -31.25 -8.8 -31.2 -9.0 -31.05 Q-10.9 -29.9 -11.85 -28.25" fill="url(#gradient0)" fill-rule="evenodd" stroke="none"/>
    <path d="M0.3 -40.0 Q-0.2 -39.15 -2.35 -37.55 L-2.4 -37.5 -2.7 -37.3 -4.1 -36.05 -4.6 -35.3 -4.8 -35.0 -5.15 -33.55 Q-5.15 -31.65 -4.65 -29.95 L-3.95 -27.05 M-6.85 -17.9 L-7.95 -13.1 M3.35 19.4 L3.25 19.0 M2.25 43.5 L2.45 43.25 Q3.4 41.95 2.75 40.0 L2.65 39.55 2.2 38.15 M2.7 39.7 L2.65 39.55 M2.25 43.5 L-0.8 47.2 -0.6 47.35 -0.65 47.4 -0.6 47.35 M-4.1 -36.05 L-4.15 -36.05" fill="none" stroke="#000000" stroke-linecap="round" stroke-linejoin="round" stroke-width="0.05"/>
    <path d="M19.75 67.0 L19.4 66.7 Q18.15 65.65 18.15 64.1 18.15 62.55 19.4 61.45 L19.45 61.4 17.65 60.15 Q15.65 58.3 15.65 55.65 15.65 53.0 17.65 51.1 L18.2 50.65 Q17.3 49.5 17.3 48.0 17.3 46.4 18.35 45.2 16.65 44.65 15.35 43.35 13.2 41.2 13.2 38.15 13.2 35.1 15.35 32.9 L16.5 32.0 15.9 32.0 Q13.1 32.0 11.1 30.25 9.1 28.5 9.1 26.0 9.1 23.5 11.1 21.75 L11.7 21.3 10.15 20.2 Q8.65 18.7 8.65 16.55 8.65 14.4 10.15 12.9 10.8 12.25 11.55 11.9 L11.6 11.4 11.55 11.4 Q9.35 11.4 7.75 9.9 6.2 8.4 6.2 6.25 6.2 4.1 7.75 2.6 8.45 1.95 9.3 1.6 L7.7 0.65 Q6.2 -0.55 6.2 -2.25 6.2 -3.95 7.7 -5.2 L7.75 -5.25 7.15 -5.75 Q6.2 -6.75 6.2 -8.2 6.2 -9.65 7.15 -10.7 8.15 -11.7 9.5 -11.7 10.85 -11.7 11.8 -10.7 L12.7 -9.05 13.8 -9.2 Q15.25 -9.2 16.25 -8.2 17.3 -7.15 17.3 -5.7 L17.25 -5.05 17.75 -5.1 Q19.8 -5.1 21.25 -3.7 22.7 -2.3 22.7 -0.35 22.7 0.8 22.2 1.75 L23.7 1.5 Q25.3 1.5 26.45 2.45 27.6 3.45 27.6 4.8 L27.5 5.6 28.25 5.55 Q30.75 5.55 32.5 7.3 34.25 9.05 34.25 11.55 34.25 13.2 33.5 14.55 34.95 13.8 36.7 13.8 39.8 13.8 41.95 16.15 44.15 18.5 44.15 21.85 44.15 23.75 43.45 25.4 44.9 24.55 46.75 24.55 49.55 24.55 51.55 26.45 53.55 28.4 53.55 31.15 L53.4 32.55 55.4 32.35 Q58.9 32.35 61.35 34.65 63.85 36.95 63.85 40.2 63.85 41.95 63.1 45.15 63.75 43.7 64.35 44.05 L65.05 44.55 Q66.8 46.0 66.8 48.05 66.8 50.1 65.05 51.55 63.3 53.0 60.8 53.0 58.3 53.0 56.55 51.55 L56.0 51.0 55.5 51.55 Q54.1 53.0 52.15 53.0 L50.7 52.8 50.7 53.0 Q50.7 55.9 48.25 57.95 45.85 60.0 42.45 60.0 40.7 60.0 39.2 59.45 38.55 61.5 37.0 63.1 34.5 65.75 30.9 65.75 28.65 65.75 26.8 64.7 26.6 65.85 25.55 66.7 24.3 67.8 22.5 67.8 20.95 67.8 19.75 67.0" fill="url(#gradient1)" fill-rule="evenodd" stroke="none"/>
    <path d="M19.75 67.0 L19.4 66.7 Q18.15 65.65 18.15 64.1 18.15 62.55 19.4 61.45 L19.45 61.4 17.65 60.15 Q15.65 58.3 15.65 55.65 15.65 53.0 17.65 51.1 L18.2 50.65 Q17.3 49.5 17.3 48.0 17.3 46.4 18.35 45.2 16.65 44.65 15.35 43.35 13.2 41.2 13.2 38.15 13.2 35.1 15.35 32.9 L16.5 32.0 15.9 32.0 Q13.1 32.0 11.1 30.25 9.1 28.5 9.1 26.0 9.1 23.5 11.1 21.75 L11.7 21.3 10.15 20.2 Q8.65 18.7 8.65 16.55 8.65 14.4 10.15 12.9 10.8 12.25 11.55 11.9 L11.6 11.4 11.55 11.4 Q9.35 11.4 7.75 9.9 6.2 8.4 6.2 6.25 6.2 4.1 7.75 2.6 8.45 1.95 9.3 1.6 L7.7 0.65 Q6.2 -0.55 6.2 -2.25 6.2 -3.95 7.7 -5.2 L7.75 -5.25 7.15 -5.75 Q6.2 -6.75 6.2 -8.2 6.2 -9.65 7.15 -10.7 8.15 -11.7 9.5 -11.7 10.85 -11.7 11.8 -10.7 L12.7 -9.05 13.8 -9.2 Q15.25 -9.2 16.25 -8.2 17.3 -7.15 17.3 -5.7 L17.25 -5.05 17.75 -5.1 Q19.8 -5.1 21.25 -3.7 22.7 -2.3 22.7 -0.35 22.7 0.8 22.2 1.75 L23.7 1.5 Q25.3 1.5 26.45 2.45 27.6 3.45 27.6 4.8 L27.5 5.6 28.25 5.55 Q30.75 5.55 32.5 7.3 34.25 9.05 34.25 11.55 34.25 13.2 33.5 14.55 34.95 13.8 36.7 13.8 39.8 13.8 41.95 16.15 44.15 18.5 44.15 21.85 44.15 23.75 43.45 25.4 44.9 24.55 46.75 24.55 49.55 24.55 51.55 26.45 53.55 28.4 53.55 31.15 L53.4 32.55 55.4 32.35 Q58.9 32.35 61.35 34.65 63.85 36.95 63.85 40.2 63.85 41.95 63.1 45.15" fill="none" stroke="#999999" stroke-linecap="round" stroke-linejoin="round" stroke-width="0.05"/>
  </g>
  <defs>
    <radialGradient cx="0" cy="0" gradientTransform="matrix(0.0278, 0.0, 0.0, 0.0278, -30.75, -37.45)" gradientUnits="userSpaceOnUse" id="gradient0" r="819.2" spreadMethod="pad">
      <stop offset="0.611764705882353" stop-color="#db9393"/>
      <stop offset="1.0" stop-color="#d10303"/>
    </radialGradient>
    <linearGradient gradientTransform="matrix(0.0259, 0.0438, -0.0278, 0.0164, 26.1, 26.35)" gradientUnits="userSpaceOnUse" id="gradient1" spreadMethod="pad" x1="-819.2" x2="819.2">
      <stop offset="0.5411764705882353" stop-color="#ffffff" stop-opacity="0.8"/>
      <stop offset="1.0" stop-color="#ffffff" stop-opacity="0.0"/>
    </linearGradient>
  </defs>
</svg>
