<?xml version="1.0" encoding="UTF-8" standalone="no"?>
<svg xmlns:ffdec="https://www.free-decompiler.com/flash" xmlns:xlink="http://www.w3.org/1999/xlink" ffdec:objectType="shape" height="38.6px" width="911.6px" xmlns="http://www.w3.org/2000/svg">
  <g transform="matrix(1.0, 0.0, 0.0, 1.0, 469.6, 57.3)">
    <path d="M205.8 -32.25 Q207.55 -32.65 208.75 -33.55 226.0 -46.65 250.35 -51.2 L260.45 -51.7 Q275.75 -51.15 289.8 -46.2 300.85 -42.25 312.95 -41.4 331.05 -40.0 347.3 -35.2 L351.05 -34.3 Q367.65 -31.3 385.45 -33.85 389.5 -34.45 393.2 -33.15 416.45 -24.7 442.0 -22.4 L442.0 -18.7 181.15 -18.7 Q189.65 -29.1 205.8 -32.25 M3.05 -46.45 Q17.7 -42.25 33.6 -41.65 37.85 -41.4 41.6 -39.95 70.05 -29.1 101.1 -23.55 102.9 -23.2 104.6 -23.55 115.95 -25.45 126.15 -29.75 L142.9 -18.7 -469.15 -18.7 -469.6 -18.9 Q-443.05 -33.3 -418.3 -49.05 -410.75 -53.8 -402.0 -56.9 L-398.55 -57.15 Q-369.7 -50.1 -340.85 -42.3 L-304.85 -28.6 -281.95 -29.2 -219.35 -38.55 Q-208.9 -30.1 -193.8 -29.75 -189.25 -29.55 -185.1 -28.15 -167.75 -22.45 -148.85 -22.7 -136.6 -22.95 -124.45 -22.4 -98.15 -20.75 -86.0 -37.3 -64.65 -39.45 -43.65 -42.8 -24.65 -46.0 -5.35 -47.4 -0.9 -47.65 3.05 -46.45" fill="#000000" fill-rule="evenodd" stroke="none"/>
  </g>
</svg>
