<?xml version="1.0" encoding="UTF-8" standalone="no"?>
<svg xmlns:ffdec="https://www.free-decompiler.com/flash" xmlns:xlink="http://www.w3.org/1999/xlink" ffdec:objectType="shape" height="43.95px" width="146.75px" xmlns="http://www.w3.org/2000/svg">
  <g transform="matrix(1.0, 0.0, 0.0, 1.0, 275.45, 172.5)">
    <path d="M-201.95 -148.75 L-199.7 -149.75 Q-199.25 -150.05 -198.95 -150.45 L-199.15 -150.6 -198.8 -150.7 -198.95 -150.45 -198.8 -150.7 -163.6 -159.15 Q-160.4 -160.6 -159.65 -161.7 -158.7 -163.0 -158.35 -164.45 -154.7 -165.2 -152.1 -163.7 -150.75 -162.9 -147.5 -159.7 -147.45 -160.6 -146.6 -161.85 L-145.15 -158.8 Q-144.05 -156.3 -142.55 -153.65 L-142.6 -153.65 -140.2 -149.55 -139.15 -147.85 -139.05 -147.65 -138.9 -147.55 Q-139.4 -146.3 -139.4 -145.1 L-139.4 -144.9 Q-140.7 -144.8 -142.35 -145.6 L-145.1 -147.0 -145.95 -147.0 -147.5 -146.35 -147.55 -146.2 Q-148.85 -140.9 -155.1 -139.85 L-167.65 -139.8 -176.5 -136.7 -182.1 -134.35 Q-184.35 -133.35 -185.7 -132.35 -186.6 -131.7 -187.65 -131.25 L-187.55 -132.65 Q-187.55 -136.15 -190.5 -137.6 L-190.4 -137.8 -175.2 -146.7 Q-172.7 -147.95 -166.85 -149.5 L-162.4 -150.5 Q-160.45 -151.05 -158.55 -152.4 -160.45 -151.05 -162.4 -150.5 L-166.85 -149.5 Q-172.7 -147.95 -175.2 -146.7 L-190.4 -137.8 -190.8 -137.7 -193.15 -136.65 -195.2 -135.3 -195.35 -135.15 -197.85 -135.15 -199.15 -134.9 -200.0 -134.65 -212.6 -135.05 Q-215.2 -134.75 -220.95 -136.8 -228.95 -139.65 -230.7 -140.1 L-241.3 -142.15 -250.8 -142.95 -246.65 -146.4 Q-244.25 -148.45 -242.4 -148.9 L-241.95 -148.9 -241.65 -148.75 Q-239.8 -147.8 -238.05 -147.8 L-231.3 -147.45 -225.2 -147.1 -223.65 -146.8 -222.85 -146.55 -222.4 -146.4 -219.5 -145.4 Q-217.95 -144.85 -212.5 -146.3 -207.1 -147.75 -202.05 -148.45 L-201.95 -148.75 M-144.4 -164.1 L-142.3 -166.0 Q-140.35 -167.7 -136.5 -167.7 -132.75 -167.75 -130.05 -164.1 -127.4 -160.5 -130.0 -155.85 -130.9 -157.25 -134.25 -156.15 -135.35 -155.75 -135.55 -153.75 -137.25 -153.4 -137.8 -152.2 -139.6 -154.95 -141.7 -159.2 -143.65 -163.35 -144.15 -163.8 L-144.3 -164.0 -144.4 -164.1" fill="#010287" fill-rule="evenodd" stroke="none"/>
    <path d="M-198.95 -150.45 Q-199.25 -150.05 -199.7 -149.75 L-201.95 -148.75 -202.05 -148.45 Q-207.1 -147.75 -212.5 -146.3 -217.95 -144.85 -219.5 -145.4 L-222.4 -146.4 -222.85 -146.55 -223.65 -146.8 Q-229.15 -148.35 -230.55 -149.2 -235.0 -151.7 -236.35 -151.85 L-235.65 -152.25 Q-232.0 -154.3 -231.3 -156.6 -223.3 -154.75 -210.95 -148.75 -210.6 -148.75 -209.8 -149.1 L-199.85 -151.45 -199.25 -150.75 -199.15 -150.6 -198.95 -150.45" fill="#01014b" fill-rule="evenodd" stroke="none"/>
    <path d="M-201.9 -154.75 Q-203.7 -158.9 -202.45 -164.1 L-168.85 -172.2 -167.05 -172.3 Q-163.2 -173.0 -160.65 -171.25 L-159.05 -169.7 -158.0 -169.65 -157.1 -169.2 -157.15 -169.0 -157.0 -168.65 -156.8 -168.35 Q-157.5 -167.55 -160.85 -166.7 -161.5 -165.55 -162.7 -164.85 L-201.9 -154.75" fill="#66cccc" fill-rule="evenodd" stroke="none"/>
    <path d="M-198.45 -151.95 Q-198.5 -151.25 -198.8 -150.7 -198.5 -151.25 -198.45 -151.95 M-199.15 -150.6 L-199.25 -150.75 -199.85 -151.45 Q-201.15 -153.0 -201.9 -154.75 L-162.7 -164.85 Q-161.5 -165.55 -160.85 -166.7 -157.5 -167.55 -156.8 -168.35 -156.4 -167.75 -156.4 -167.15 L-156.4 -166.9 -156.3 -166.65 -156.1 -166.45 -156.0 -166.4 Q-156.3 -165.8 -156.95 -165.35 -157.65 -164.85 -158.25 -164.8 L-158.35 -164.45 Q-158.7 -163.0 -159.65 -161.7 -160.4 -160.6 -163.6 -159.15 L-198.8 -150.7 -199.15 -150.6" fill="#267373" fill-rule="evenodd" stroke="none"/>
    <path d="M-231.3 -156.6 Q-232.0 -154.3 -235.65 -152.25 L-236.35 -151.85 Q-239.9 -150.0 -241.1 -150.6 L-241.1 -149.8 -241.6 -148.85 -241.95 -148.9 -242.4 -148.9 Q-244.25 -148.45 -246.65 -146.4 L-250.8 -142.95 -251.05 -143.0 -251.35 -142.9 -251.55 -142.85 Q-257.5 -141.3 -263.3 -141.45 -266.1 -141.55 -269.3 -140.15 -272.1 -139.0 -275.45 -139.65 -273.9 -142.4 -270.6 -144.2 -267.05 -146.1 -263.6 -145.95 -258.9 -145.7 -249.65 -148.25 L-249.2 -148.6 -249.65 -148.6 -252.05 -148.3 -262.85 -148.3 -254.25 -152.05 Q-251.35 -153.35 -247.95 -154.15 -245.6 -154.7 -244.05 -155.75 -242.65 -156.75 -240.8 -157.05 -239.8 -157.2 -237.6 -158.65 -235.5 -160.0 -234.5 -160.0 -233.25 -160.0 -232.25 -159.35 -231.15 -158.6 -231.15 -157.65 L-231.3 -156.6 M-157.1 -169.2 L-157.0 -169.3 -156.7 -169.5 Q-149.9 -170.35 -145.05 -164.9 L-145.05 -164.85 -144.4 -164.1 -144.3 -164.0 -144.15 -163.8 Q-143.65 -163.35 -141.7 -159.2 -139.6 -154.95 -137.8 -152.2 L-137.55 -151.85 -137.5 -151.65 -137.5 -151.45 -137.7 -149.9 Q-137.7 -148.1 -137.3 -147.55 L-137.2 -147.25 -137.25 -147.05 -137.05 -147.0 -134.0 -149.15 -133.95 -149.1 -134.0 -145.85 Q-133.4 -146.1 -132.15 -146.85 -131.0 -146.85 -131.0 -145.35 -131.0 -144.3 -131.9 -143.0 -132.95 -141.45 -134.35 -141.45 -136.4 -141.45 -136.4 -142.55 L-136.1 -143.65 -138.2 -143.7 Q-139.3 -143.95 -139.4 -144.9 L-139.4 -145.1 Q-139.4 -146.3 -138.9 -147.55 L-139.05 -147.65 -139.15 -147.85 -140.2 -149.55 -142.6 -153.65 -142.55 -153.65 Q-144.05 -156.3 -145.15 -158.8 L-146.6 -161.85 -146.7 -162.05 -146.65 -162.0 Q-150.0 -166.9 -155.85 -166.4 L-156.0 -166.4 -156.1 -166.45 -156.3 -166.65 -156.4 -166.9 -156.4 -167.15 Q-156.4 -167.75 -156.8 -168.35 L-157.0 -168.65 -157.15 -169.0 -157.1 -169.2 M-249.2 -148.6 L-249.1 -148.65 -248.85 -148.8 -247.4 -149.9 Q-244.25 -152.25 -243.55 -152.25 -242.85 -152.25 -241.1 -151.05 L-241.1 -150.6 -241.1 -151.05 Q-242.85 -152.25 -243.55 -152.25 -244.25 -152.25 -247.4 -149.9 L-248.85 -148.8 -249.1 -148.65 -249.2 -148.6 M-260.9 -143.95 Q-257.15 -143.55 -253.85 -145.55 L-249.65 -148.25 -253.85 -145.55 Q-257.15 -143.55 -260.9 -143.95" fill="#ff6600" fill-rule="evenodd" stroke="none"/>
    <path d="M-130.0 -155.85 L-129.9 -155.65 Q-129.15 -155.65 -129.15 -154.4 -129.15 -153.65 -130.4 -151.35 -131.75 -148.75 -132.75 -148.75 -133.4 -148.75 -133.95 -149.1 L-134.0 -149.15 -137.05 -147.0 -137.25 -147.05 -137.2 -147.25 -137.3 -147.55 Q-137.7 -148.1 -137.7 -149.9 L-137.5 -151.45 -137.5 -151.65 -137.55 -151.85 -137.8 -152.2 Q-137.25 -153.4 -135.55 -153.75 -135.35 -155.75 -134.25 -156.15 -130.9 -157.25 -130.0 -155.85 M-187.65 -131.25 L-188.9 -130.85 Q-190.75 -130.4 -192.2 -129.4 -193.45 -128.55 -195.45 -128.55 -198.35 -128.55 -199.5 -129.15 -201.05 -129.9 -201.05 -132.1 -201.05 -133.85 -200.6 -134.3 L-200.0 -134.65 -199.15 -134.9 -197.85 -135.15 -195.35 -135.15 -195.2 -135.3 -193.15 -136.65 -190.8 -137.7 -190.5 -137.6 Q-187.55 -136.15 -187.55 -132.65 L-187.65 -131.25 M-135.55 -153.75 L-135.6 -152.75 Q-135.6 -151.7 -135.0 -150.45 L-134.0 -149.15 -135.0 -150.45 Q-135.6 -151.7 -135.6 -152.75 L-135.55 -153.75" fill="#fec289" fill-rule="evenodd" stroke="none"/>
    <path d="M-199.15 -150.6 L-199.25 -150.75 -199.85 -151.45 -209.8 -149.1 M-198.8 -150.7 L-199.15 -150.6 M-199.85 -151.45 Q-201.15 -153.0 -201.9 -154.75 -203.7 -158.9 -202.45 -164.1 L-168.85 -172.2 -167.05 -172.3 Q-163.2 -173.0 -160.65 -171.25 L-159.05 -169.7 -158.0 -169.65 -157.1 -169.2 M-144.4 -164.1 L-142.3 -166.0 Q-140.35 -167.7 -136.5 -167.7 -132.75 -167.75 -130.05 -164.1 -127.4 -160.5 -130.0 -155.85 L-129.9 -155.65 Q-129.15 -155.65 -129.15 -154.4 -129.15 -153.65 -130.4 -151.35 -131.75 -148.75 -132.75 -148.75 -133.4 -148.75 -133.95 -149.1 M-139.4 -144.9 Q-140.7 -144.8 -142.35 -145.6 L-145.1 -147.0 -145.95 -147.0 -147.5 -146.35 -147.55 -146.2 Q-148.85 -140.9 -155.1 -139.85 L-167.65 -139.8 -176.5 -136.7 -182.1 -134.35 Q-184.35 -133.35 -185.7 -132.35 -186.6 -131.7 -187.65 -131.25 L-188.9 -130.85 Q-190.75 -130.4 -192.2 -129.4 -193.45 -128.55 -195.45 -128.55 -198.35 -128.55 -199.5 -129.15 -201.05 -129.9 -201.05 -132.1 -201.05 -133.85 -200.6 -134.3 L-200.0 -134.65 -212.6 -135.05 M-190.4 -137.8 L-175.2 -146.7 Q-172.7 -147.95 -166.85 -149.5 L-162.4 -150.5 Q-160.45 -151.05 -158.55 -152.4 M-158.35 -164.45 Q-158.7 -163.0 -159.65 -161.7 -160.4 -160.6 -163.6 -159.15 L-198.8 -150.7 M-190.4 -137.8 L-190.8 -137.7 -190.5 -137.6 Q-187.55 -136.15 -187.55 -132.65 L-187.65 -131.25 M-190.8 -137.7 L-193.15 -136.65 -195.2 -135.3 -195.35 -135.15 -197.85 -135.15 -199.15 -134.9 -200.0 -134.65 M-156.0 -166.4 Q-156.3 -165.8 -156.95 -165.35 -157.65 -164.85 -158.25 -164.8 L-158.35 -164.45 Q-154.7 -165.2 -152.1 -163.7 -150.75 -162.9 -147.5 -159.7 -147.45 -160.6 -146.6 -161.85 M-134.0 -149.15 L-135.0 -150.45 Q-135.6 -151.7 -135.6 -152.75 L-135.55 -153.75 Q-137.25 -153.4 -137.8 -152.2 M-130.0 -155.85 Q-130.9 -157.25 -134.25 -156.15 -135.35 -155.75 -135.55 -153.75" fill="none" stroke="#000000" stroke-linecap="round" stroke-linejoin="round" stroke-width="0.05"/>
    <path d="M-198.8 -150.7 Q-198.5 -151.25 -198.45 -151.95 M-201.95 -148.75 L-199.7 -149.75 Q-199.25 -150.05 -198.95 -150.45 L-198.8 -150.7 M-209.8 -149.1 Q-210.6 -148.75 -210.95 -148.75 -223.3 -154.75 -231.3 -156.6 -232.0 -154.3 -235.65 -152.25 L-236.35 -151.85 Q-235.0 -151.7 -230.55 -149.2 -229.15 -148.35 -223.65 -146.8 L-222.85 -146.55 -222.4 -146.4 -219.5 -145.4 Q-217.95 -144.85 -212.5 -146.3 -207.1 -147.75 -202.05 -148.45 M-157.1 -169.2 L-157.0 -169.3 -156.7 -169.5 Q-149.9 -170.35 -145.05 -164.9 L-145.05 -164.85 -144.4 -164.1 -144.3 -164.0 -144.15 -163.8 Q-143.65 -163.35 -141.7 -159.2 -139.6 -154.95 -137.8 -152.2 L-137.55 -151.85 -137.5 -151.65 -137.5 -151.45 -137.7 -149.9 Q-137.7 -148.1 -137.3 -147.55 L-137.2 -147.25 -137.25 -147.05 -137.05 -147.0 -134.0 -149.15 -133.95 -149.1 -134.0 -145.85 Q-133.4 -146.1 -132.15 -146.85 -131.0 -146.85 -131.0 -145.35 -131.0 -144.3 -131.9 -143.0 -132.95 -141.45 -134.35 -141.45 -136.4 -141.45 -136.4 -142.55 L-136.1 -143.65 -138.2 -143.7 Q-139.3 -143.95 -139.4 -144.9 L-139.4 -145.1 Q-139.4 -146.3 -138.9 -147.55 L-139.05 -147.65 -139.15 -147.85 -140.2 -149.55 -142.6 -153.65 -142.55 -153.65 Q-144.05 -156.3 -145.15 -158.8 L-146.6 -161.85 -146.7 -162.05 -146.65 -162.0 Q-150.0 -166.9 -155.85 -166.4 L-156.0 -166.4 -156.1 -166.45 -156.3 -166.65 -156.4 -166.9 -156.4 -167.15 Q-156.4 -167.75 -156.8 -168.35 L-157.0 -168.65 -157.15 -169.0 -157.1 -169.2 M-212.6 -135.05 Q-215.2 -134.75 -220.95 -136.8 -228.95 -139.65 -230.7 -140.1 L-241.3 -142.15 -250.8 -142.95 -251.35 -142.9 -251.55 -142.85 Q-257.5 -141.3 -263.3 -141.45 -266.1 -141.55 -269.3 -140.15 -272.1 -139.0 -275.45 -139.65 -273.9 -142.4 -270.6 -144.2 -267.05 -146.1 -263.6 -145.95 -258.9 -145.7 -249.65 -148.25 L-249.2 -148.6 -249.65 -148.6 -252.05 -148.3 -262.85 -148.3 -254.25 -152.05 Q-251.35 -153.35 -247.95 -154.15 -245.6 -154.7 -244.05 -155.75 -242.65 -156.75 -240.8 -157.05 -239.8 -157.2 -237.6 -158.65 -235.5 -160.0 -234.5 -160.0 -233.25 -160.0 -232.25 -159.35 -231.15 -158.6 -231.15 -157.65 L-231.3 -156.6 M-241.95 -148.9 L-241.65 -148.75 -241.6 -148.85 -241.95 -148.9 -242.4 -148.9 Q-244.25 -148.45 -246.65 -146.4 L-250.8 -142.95 -251.05 -143.0 -251.35 -142.9 M-236.35 -151.85 Q-239.9 -150.0 -241.1 -150.6 L-241.1 -149.8 -241.6 -148.85 M-241.1 -150.6 L-241.1 -151.05 Q-242.85 -152.25 -243.55 -152.25 -244.25 -152.25 -247.4 -149.9 L-248.85 -148.8 -249.1 -148.65 -249.2 -148.6 M-241.65 -148.75 Q-239.8 -147.8 -238.05 -147.8 L-231.3 -147.45 -225.2 -147.1 -223.65 -146.8 M-249.65 -148.25 L-253.85 -145.55 Q-257.15 -143.55 -260.9 -143.95" fill="none" stroke="#000000" stroke-linecap="round" stroke-linejoin="round" stroke-width="0.05"/>
  </g>
</svg>
