<?xml version="1.0" encoding="UTF-8" standalone="no"?>
<svg xmlns:ffdec="https://www.free-decompiler.com/flash" xmlns:xlink="http://www.w3.org/1999/xlink" ffdec:objectType="shape" height="142.6px" width="284.35px" xmlns="http://www.w3.org/2000/svg">
  <g transform="matrix(1.0, 0.0, 0.0, 1.0, 136.15, 66.35)">
    <path d="M-133.8 17.3 L-116.55 15.5 Q-105.8 14.6 -99.0 15.4 -92.1 16.15 -83.8 22.8 -74.75 29.95 -70.65 31.2 -63.15 41.15 -56.75 47.3 -88.35 43.9 -105.75 34.45 -109.35 32.45 -116.25 29.95 -123.2 27.45 -129.75 24.15 -134.25 21.9 -133.8 17.3 M60.7 49.25 L58.0 48.35 Q42.6 42.25 27.3 43.6 L26.2 43.75 -7.0 47.3 -7.25 47.35 -15.0 48.05 -18.8 48.35 -18.9 48.35 -27.5 48.7 -27.55 48.7 -31.1 48.35 -31.25 48.15 -32.95 46.2 -27.45 45.65 Q-25.0 45.85 -19.05 45.45 L-15.25 45.15 -15.15 45.15 -10.65 44.75 -7.55 44.3 Q3.7 42.45 14.75 35.05 L31.0 24.05 Q34.7 21.45 38.95 19.2 43.15 16.95 46.05 19.1 L46.1 19.45 Q51.2 25.85 33.65 35.2 25.35 38.35 25.9 41.05 L27.05 40.95 27.15 40.95 36.65 40.55 Q42.85 40.5 51.9 40.95 60.95 41.35 61.85 45.25 62.75 49.15 62.05 48.95 61.35 48.75 60.7 49.25 M-84.05 11.25 L-87.6 12.8 -88.65 13.15 Q-92.85 13.2 -97.45 11.3 -101.85 9.45 -104.3 6.95 -103.1 5.25 -100.9 5.3 L-96.5 5.05 Q-94.25 4.7 -91.0 4.95 L-86.55 5.5 -83.8 6.2 Q-81.35 6.5 -81.25 8.1 -81.15 9.75 -84.05 11.25" fill="#ffffff" fill-rule="evenodd" stroke="none"/>
    <path d="M-133.8 17.3 Q-133.6 15.2 -132.4 12.65 -128.5 4.4 -120.2 -0.45 -111.95 -5.35 -86.95 -9.65 -62.0 -14.0 -32.7 -14.65 -26.35 -15.5 -22.75 -17.1 -19.25 -18.75 -17.65 -26.75 -16.1 -34.75 -15.45 -44.45 -14.8 -54.1 -11.45 -63.2 -5.65 -70.85 -1.8 -42.8 2.0 -14.75 15.25 -10.35 28.5 -6.0 54.65 8.5 65.45 15.25 75.85 25.0 86.25 34.7 91.8 41.15 93.85 43.55 96.1 45.15 L97.55 46.1 Q102.95 48.05 108.0 48.4 115.65 48.9 120.7 45.5 128.85 40.0 133.15 38.85 139.05 37.2 145.4 41.25 L146.15 41.75 146.6 42.05 Q147.2 43.35 143.7 43.9 139.65 44.55 137.05 49.15 L133.3 54.55 Q131.15 57.55 129.4 58.8 123.8 62.7 116.15 60.85 113.25 60.15 109.55 58.55 107.4 57.65 103.4 55.75 L98.4 53.5 Q95.2 51.95 88.25 51.1 L87.8 51.15 87.4 51.1 73.45 51.0 Q66.8 50.8 61.9 49.6 L62.05 48.95 Q62.75 49.15 61.85 45.25 60.95 41.35 51.9 40.95 42.85 40.5 36.65 40.55 L27.15 40.95 27.05 40.95 25.9 41.05 Q25.35 38.35 33.65 35.2 51.2 25.85 46.1 19.45 L46.05 19.1 Q43.15 16.95 38.95 19.2 34.7 21.45 31.0 24.05 L14.75 35.05 Q3.7 42.45 -7.55 44.3 L-10.65 44.75 -15.15 45.15 -15.25 45.15 -19.05 45.45 Q-25.0 45.85 -27.45 45.65 L-32.95 46.2 -31.25 48.15 -31.1 48.35 Q-29.55 49.8 -27.5 51.1 -23.8 53.4 -17.6 60.85 -12.6 66.85 -11.0 69.8 -7.8 73.9 -10.45 74.45 -12.0 75.4 -16.45 73.45 L-25.45 69.6 Q-30.0 67.7 -36.75 62.9 -43.5 58.1 -52.05 51.4 L-56.35 47.65 -56.75 47.3 Q-63.15 41.15 -70.65 31.2 -74.75 29.95 -83.8 22.8 -92.1 16.15 -99.0 15.4 -105.8 14.6 -116.55 15.5 L-133.8 17.3 M-71.4 30.2 L-70.65 31.2 -71.4 30.2 M-32.95 46.2 L-33.6 46.25 -32.95 46.2 M-84.05 11.25 Q-81.15 9.75 -81.25 8.1 -81.35 6.5 -83.8 6.2 L-86.55 5.5 -91.0 4.95 Q-94.25 4.7 -96.5 5.05 L-100.9 5.3 Q-103.1 5.25 -104.3 6.95 -101.85 9.45 -97.45 11.3 -92.85 13.2 -88.65 13.15 L-87.6 12.8 -84.05 11.25" fill="#000000" fill-rule="evenodd" stroke="none"/>
    <path d="M88.25 51.1 Q95.2 51.95 98.4 53.5 L103.4 55.75 Q107.4 57.65 109.55 58.55 113.25 60.15 116.15 60.85 123.8 62.7 129.4 58.8 131.15 57.55 133.3 54.55 L137.05 49.15 Q139.65 44.55 143.7 43.9 147.2 43.35 146.6 42.05 L146.15 41.75 145.4 41.25 Q139.05 37.2 133.15 38.85 128.85 40.0 120.7 45.5 115.65 48.9 108.0 48.4 102.95 48.05 97.55 46.1 L96.1 45.15 Q93.85 43.55 91.8 41.15 86.25 34.7 75.85 25.0 65.45 15.25 54.65 8.5 28.5 -6.0 15.25 -10.35 2.0 -14.75 -1.8 -42.8 -5.65 -70.85 -11.45 -63.2 -14.8 -54.1 -15.45 -44.45 -16.1 -34.75 -17.65 -26.75 -19.25 -18.75 -22.75 -17.1 -26.35 -15.5 -32.7 -14.65 -62.0 -14.0 -86.95 -9.65 -111.95 -5.35 -120.2 -0.45 -128.5 4.4 -132.4 12.65 -133.6 15.2 -133.8 17.3 L-134.65 17.4 M-70.65 31.2 L-71.4 30.2 M87.8 51.15 L87.4 51.1 73.45 51.0 Q66.8 50.8 61.9 49.6 L60.7 49.25 58.0 48.35 Q42.6 42.25 27.3 43.6 L26.2 43.75 -7.0 47.3 -7.25 47.35 -15.0 48.05 -18.8 48.35 -18.9 48.35 -27.5 48.7 -27.55 48.7 -31.1 48.35 Q-29.55 49.8 -27.5 51.1 -23.8 53.4 -17.6 60.85 -12.6 66.85 -11.0 69.8 -7.8 73.9 -10.45 74.45 -12.0 75.4 -16.45 73.45 L-25.45 69.6 Q-30.0 67.7 -36.75 62.9 -43.5 58.1 -52.05 51.4 L-56.35 47.65 -56.75 47.3 Q-88.35 43.9 -105.75 34.45 -109.35 32.45 -116.25 29.95 -123.2 27.45 -129.75 24.15 -134.25 21.9 -133.8 17.3 M-32.95 46.2 L-31.25 48.15 -31.1 48.35 M-33.6 46.25 L-32.95 46.2 M-56.75 47.3 Q-63.15 41.15 -70.65 31.2" fill="none" stroke="#000000" stroke-linecap="round" stroke-linejoin="round" stroke-width="3.0"/>
  </g>
</svg>
