<?xml version="1.0" encoding="UTF-8" standalone="no"?>
<svg xmlns:ffdec="https://www.free-decompiler.com/flash" xmlns:xlink="http://www.w3.org/1999/xlink" ffdec:objectType="shape" height="143.1px" width="286.25px" xmlns="http://www.w3.org/2000/svg">
  <g transform="matrix(1.0, 0.0, 0.0, 1.0, 135.5, 69.95)">
    <path d="M-133.15 22.95 L-116.05 19.85 Q-105.35 18.15 -98.55 18.4 -91.7 18.65 -83.45 24.75 -74.45 31.25 -70.35 32.2 -62.9 41.65 -56.5 47.35 -87.95 46.3 -105.25 38.1 -108.85 36.35 -115.7 34.35 -122.6 32.35 -129.1 29.55 -133.6 27.6 -133.15 22.95 M60.7 32.45 L58.0 32.25 Q47.6 30.9 37.2 33.05 32.25 34.05 27.3 35.85 L26.9 36.0 Q16.6 40.5 -2.9 43.0 L-3.1 43.0 -3.15 43.0 -8.6 43.9 -10.05 44.2 -10.1 44.2 -28.65 47.45 -29.0 48.05 -29.1 48.0 -31.0 46.5 -31.2 46.35 -32.85 44.5 -27.4 43.5 Q-23.5 43.6 -10.65 41.35 L-9.15 41.1 -8.8 41.0 -3.4 39.75 Q3.6 38.1 10.55 34.35 L14.75 30.55 31.0 14.85 Q34.75 11.15 39.0 7.75 43.2 4.3 46.1 5.7 51.25 11.15 33.65 25.5 25.35 31.05 25.9 33.6 L26.4 33.45 26.45 33.4 Q30.65 31.9 36.35 30.25 L36.65 30.15 Q42.9 28.4 51.95 26.35 60.95 24.3 61.9 28.0 62.8 31.7 62.1 31.75 61.35 31.75 60.7 32.45 M-90.6 7.35 L-86.2 7.55 -83.45 8.05 Q-81.05 8.15 -80.9 9.75 -80.8 11.4 -83.7 13.15 -85.55 14.25 -87.2 14.95 L-88.25 15.4 Q-92.45 15.8 -97.0 14.2 -101.4 12.7 -103.8 10.35 -102.65 8.55 -100.45 8.45 L-96.05 7.85 -90.6 7.35" fill="#ffffff" fill-rule="evenodd" stroke="none"/>
    <path d="M-22.0 -21.2 Q-19.1 -23.4 -17.75 -30.45 L-16.55 -37.9 Q-15.9 -42.8 -15.55 -48.25 -14.9 -57.9 -11.5 -66.85 -5.7 -74.35 -1.85 -46.25 0.5 -29.0 6.4 -20.55 10.1 -16.25 15.25 -15.9 28.5 -15.1 54.7 -7.5 65.5 -3.6 75.9 3.5 86.35 10.55 91.9 15.65 93.9 17.45 96.15 18.45 L95.8 19.2 97.7 19.0 101.85 18.4 105.05 17.85 107.2 17.3 120.35 16.2 Q132.4 15.45 140.6 20.35 158.5 30.85 139.4 26.95 120.3 23.0 111.7 24.95 103.1 26.9 100.5 26.85 L90.85 27.05 86.85 27.2 85.75 27.5 73.5 30.75 Q66.95 32.3 62.15 32.45 L62.1 31.75 Q62.8 31.7 61.9 28.0 60.95 24.3 51.95 26.35 42.9 28.4 36.65 30.15 L36.35 30.25 Q30.65 31.9 26.45 33.4 L26.4 33.45 25.9 33.6 Q25.35 31.05 33.65 25.5 51.25 11.15 46.1 5.7 43.2 4.3 39.0 7.75 34.75 11.15 31.0 14.85 L14.75 30.55 10.55 34.35 Q3.6 38.1 -3.4 39.75 L-8.8 41.0 -9.15 41.1 -10.65 41.35 Q-23.5 43.6 -27.4 43.5 L-32.85 44.5 -31.2 46.35 -31.0 46.5 -29.1 48.0 -29.0 48.05 -27.4 49.0 Q-23.75 51.05 -17.55 58.1 -12.6 63.75 -11.0 66.6 -7.85 70.5 -10.5 71.25 -12.0 72.3 -16.4 70.65 L-25.4 67.45 Q-29.9 65.85 -36.6 61.55 L-51.85 51.15 -56.15 47.7 -56.5 47.35 Q-62.9 41.65 -70.35 32.2 -74.45 31.25 -83.45 24.75 -91.7 18.65 -98.55 18.4 -105.35 18.15 -116.05 19.85 L-133.15 22.95 Q-133.0 20.8 -131.75 18.15 -127.9 9.55 -119.65 4.05 -111.45 -1.45 -86.6 -7.65 -61.8 -13.9 -32.65 -16.7 -26.3 -18.05 -22.75 -19.95 L-21.95 -20.45 -22.0 -21.2 M-71.1 31.25 L-70.35 32.2 -71.1 31.25 M87.85 26.9 L87.5 27.0 87.45 27.0 87.75 26.95 87.85 26.9 M-33.5 44.6 L-32.85 44.5 -33.5 44.6 M-90.6 7.35 L-96.05 7.85 -100.45 8.45 Q-102.65 8.55 -103.8 10.35 -101.4 12.7 -97.0 14.2 -92.45 15.8 -88.25 15.4 L-87.2 14.95 Q-85.55 14.25 -83.7 13.15 -80.8 11.4 -80.9 9.75 -81.05 8.15 -83.45 8.05 L-86.2 7.55 -90.6 7.35" fill="#000000" fill-rule="evenodd" stroke="none"/>
    <path d="M96.15 18.45 Q93.9 17.45 91.9 15.65 86.35 10.55 75.9 3.5 65.5 -3.6 54.7 -7.5 28.5 -15.1 15.25 -15.9 10.1 -16.25 6.4 -20.55 0.5 -29.0 -1.85 -46.25 -5.7 -74.35 -11.5 -66.85 -14.9 -57.9 -15.55 -48.25 -15.9 -42.8 -16.55 -37.9 L-17.75 -30.45 Q-19.1 -23.4 -22.0 -21.2 M-21.95 -20.45 L-22.75 -19.95 Q-26.3 -18.05 -32.65 -16.7 -61.8 -13.9 -86.6 -7.65 -111.45 -1.45 -119.65 4.05 -127.9 9.55 -131.75 18.15 -133.0 20.8 -133.15 22.95 L-134.0 23.1 M-70.35 32.2 L-71.1 31.25 M97.7 19.0 L101.85 18.4 105.05 17.85 107.2 17.3 120.35 16.2 Q132.4 15.45 140.6 20.35 158.5 30.85 139.4 26.95 120.3 23.0 111.7 24.95 103.1 26.9 100.5 26.85 L90.85 27.05 86.85 27.2 85.75 27.5 73.5 30.75 Q66.95 32.3 62.15 32.45 L60.7 32.45 58.0 32.25 Q47.6 30.9 37.2 33.05 32.25 34.05 27.3 35.85 L26.9 36.0 Q16.6 40.5 -2.9 43.0 L-3.1 43.0 -3.15 43.0 -8.6 43.9 -10.05 44.2 -10.1 44.2 -28.65 47.45 M-29.0 48.05 L-27.4 49.0 Q-23.75 51.05 -17.55 58.1 -12.6 63.75 -11.0 66.6 -7.85 70.5 -10.5 71.25 -12.0 72.3 -16.4 70.65 L-25.4 67.45 Q-29.9 65.85 -36.6 61.55 L-51.85 51.15 -56.15 47.7 -56.5 47.35 Q-87.95 46.3 -105.25 38.1 -108.85 36.35 -115.7 34.35 -122.6 32.35 -129.1 29.55 -133.6 27.6 -133.15 22.95 M97.7 19.0 L96.15 18.45 M95.8 19.2 L97.7 19.0 M87.85 26.9 L87.5 27.0 87.45 27.0 M62.1 31.75 Q61.35 31.75 60.7 32.45 M62.1 31.75 Q62.8 31.7 61.9 28.0 60.95 24.3 51.95 26.35 42.9 28.4 36.65 30.15 L36.35 30.25 Q30.65 31.9 26.45 33.4 L26.4 33.45 25.9 33.6 Q25.35 31.05 33.65 25.5 51.25 11.15 46.1 5.7 43.2 4.3 39.0 7.75 34.75 11.15 31.0 14.85 L14.75 30.55 10.55 34.35 Q3.6 38.1 -3.4 39.75 L-8.8 41.0 -9.15 41.1 -10.65 41.35 Q-23.5 43.6 -27.4 43.5 L-32.85 44.5 -31.2 46.35 -31.0 46.5 -29.1 48.0 -29.0 48.05 M-32.85 44.5 L-33.5 44.6 M-56.5 47.35 Q-62.9 41.65 -70.35 32.2" fill="none" stroke="#000000" stroke-linecap="round" stroke-linejoin="round" stroke-width="3.0"/>
  </g>
</svg>
