<?xml version="1.0" encoding="UTF-8" standalone="no"?>
<svg xmlns:ffdec="https://www.free-decompiler.com/flash" xmlns:xlink="http://www.w3.org/1999/xlink" ffdec:objectType="shape" height="169.85px" width="289.4px" xmlns="http://www.w3.org/2000/svg">
  <g transform="matrix(1.0, 0.0, 0.0, 1.0, 135.6, 63.3)">
    <path d="M-134.1 22.55 Q-129.9 25.2 -121.65 25.4 L-112.25 25.35 -101.95 25.85 Q-91.75 27.05 -83.65 33.05 L-77.2 38.45 -71.85 42.6 -69.95 46.35 -67.8 50.2 -86.8 46.5 -111.4 41.9 Q-119.7 40.5 -126.9 35.55 -134.05 30.6 -134.05 23.85 L-134.05 23.2 -134.1 22.55 M-7.1 50.85 Q-1.4 49.2 3.35 47.3 L3.75 47.1 Q10.5 44.3 15.3 40.9 26.95 32.45 34.55 26.15 L38.85 22.4 Q42.95 18.75 44.8 18.55 L47.35 18.3 48.15 18.6 Q49.7 20.15 47.9 24.0 46.1 27.75 30.0 39.2 L30.2 39.7 Q15.7 44.8 3.8 48.4 L1.65 49.05 -6.95 51.4 -7.0 51.4 -7.1 50.85 M-86.65 16.3 Q-79.6 17.85 -79.55 20.05 -79.5 22.5 -88.35 24.75 L-89.95 24.75 Q-92.6 24.3 -97.3 21.75 -103.7 18.15 -103.75 15.85 -103.8 14.7 -103.0 14.55 L-101.1 14.6 Q-92.9 14.85 -86.65 16.3" fill="#ffffff" fill-rule="evenodd" stroke="none"/>
    <path d="M-134.1 22.55 Q-134.2 19.2 -133.05 16.3 -124.95 2.65 -109.15 -0.3 L-107.3 -0.6 Q-101.5 -2.25 -94.65 -3.3 L-74.45 -6.55 Q-70.85 -6.4 -58.0 -8.3 L-31.6 -11.05 Q-22.35 -11.6 -18.35 -16.55 L-17.95 -16.6 -17.8 -16.7 Q-16.45 -18.85 -15.8 -21.6 -15.1 -24.55 -14.2 -32.3 L-12.5 -45.55 -11.4 -51.6 Q-9.25 -61.75 -6.05 -61.8 -2.05 -61.95 -1.3 -54.4 L-1.05 -51.9 Q-0.4 -45.95 0.55 -41.25 L1.55 -36.25 4.1 -23.45 Q6.5 -11.3 17.15 -8.6 27.75 -5.95 40.7 -5.7 53.7 -5.5 64.7 -6.4 74.7 -7.2 84.1 -6.25 L85.7 -6.05 84.1 -6.5 97.3 -7.3 Q99.9 -7.75 101.2 -8.4 L107.7 -11.75 112.85 -14.3 Q116.75 -16.2 119.75 -17.05 127.8 -19.35 133.75 -15.5 135.6 -14.3 137.95 -11.25 L142.05 -5.75 Q144.85 -1.1 149.15 -0.55 152.85 -0.15 152.2 1.25 L151.75 1.55 151.0 2.15 Q144.35 6.7 138.1 5.25 133.6 4.2 124.9 -1.15 119.5 -4.5 111.45 -3.6 106.5 -3.05 101.3 -1.0 L98.1 0.35 97.5 0.65 97.6 0.8 Q84.8 11.85 76.6 18.5 67.0 26.2 43.25 35.0 L30.2 39.7 30.0 39.2 Q46.1 27.75 47.9 24.0 49.7 20.15 48.15 18.6 L47.35 18.3 44.8 18.55 Q42.95 18.75 38.85 22.4 L34.55 26.15 Q26.95 32.45 15.3 40.9 10.5 44.3 3.75 47.1 L3.35 47.3 Q-1.4 49.2 -7.1 50.85 L-20.05 53.1 -35.9 53.7 -47.95 53.35 -47.95 53.65 -47.95 54.05 Q-42.8 56.3 -37.35 61.05 -31.6 66.1 -28.4 69.4 -25.25 72.65 -19.35 82.4 -15.05 93.2 -14.95 97.6 L-14.5 102.95 Q-14.15 106.7 -21.6 103.7 -29.1 100.7 -37.05 95.2 -45.0 89.7 -49.45 83.25 -53.95 76.8 -58.25 68.9 -62.35 61.3 -63.65 57.75 L-67.8 50.2 -69.95 46.35 -71.85 42.6 -77.2 38.45 -83.65 33.05 Q-91.75 27.05 -101.95 25.85 L-112.25 25.35 -121.65 25.4 Q-129.9 25.2 -134.1 22.55 M-70.35 43.55 L-71.85 42.6 -70.35 43.55 M-86.65 16.3 Q-92.9 14.85 -101.1 14.6 L-103.0 14.55 Q-103.8 14.7 -103.75 15.85 -103.7 18.15 -97.3 21.75 -92.6 24.3 -89.95 24.75 L-88.35 24.75 Q-79.5 22.5 -79.55 20.05 -79.6 17.85 -86.65 16.3" fill="#000000" fill-rule="evenodd" stroke="none"/>
    <path d="M85.7 -6.05 L84.1 -6.25 Q74.7 -7.2 64.7 -6.4 53.7 -5.5 40.7 -5.7 27.75 -5.95 17.15 -8.6 6.5 -11.3 4.1 -23.45 L1.55 -36.25 0.55 -41.25 Q-0.4 -45.95 -1.05 -51.9 L-1.3 -54.4 Q-2.05 -61.95 -6.05 -61.8 -9.25 -61.75 -11.4 -51.6 L-12.5 -45.55 -14.2 -32.3 Q-15.1 -24.55 -15.8 -21.6 -16.45 -18.85 -17.8 -16.7 L-17.95 -16.6 -18.35 -16.55 Q-22.35 -11.6 -31.6 -11.05 L-58.0 -8.3 Q-70.85 -6.4 -74.45 -6.55 L-94.65 -3.3 Q-101.5 -2.25 -107.3 -0.6 L-109.15 -0.3 Q-124.95 2.65 -133.05 16.3 -134.2 19.2 -134.1 22.55 L-134.05 23.2 -134.05 23.85 Q-134.05 30.6 -126.9 35.55 -119.7 40.5 -111.4 41.9 L-86.8 46.5 -67.8 50.2 -63.65 57.75 Q-62.35 61.3 -58.25 68.9 -53.95 76.8 -49.45 83.25 -45.0 89.7 -37.05 95.2 -29.1 100.7 -21.6 103.7 -14.15 106.7 -14.5 102.95 L-14.95 97.6 Q-15.05 93.2 -19.35 82.4 -25.25 72.65 -28.4 69.4 -31.6 66.1 -37.35 61.05 -42.8 56.3 -47.95 54.05 L-47.95 53.65 M-71.85 42.6 L-70.35 43.55 M97.5 0.65 L98.1 0.35 101.3 -1.0 Q106.5 -3.05 111.45 -3.6 119.5 -4.5 124.9 -1.15 133.6 4.2 138.1 5.25 144.35 6.7 151.0 2.15 L151.75 1.55 152.2 1.25 Q152.85 -0.15 149.15 -0.55 144.85 -1.1 142.05 -5.75 L137.95 -11.25 Q135.6 -14.3 133.75 -15.5 127.8 -19.35 119.75 -17.05 116.75 -16.2 112.85 -14.3 L107.7 -11.75 101.2 -8.4 Q99.9 -7.75 97.3 -7.3 L84.1 -6.5 M97.6 0.8 L98.1 0.35 M30.2 39.7 L43.25 35.0 Q67.0 26.2 76.6 18.5 84.8 11.85 97.6 0.8 M-7.0 51.4 L-6.95 51.4 1.65 49.05 3.8 48.4 Q15.7 44.8 30.2 39.7 M-71.85 42.6 L-69.95 46.35 -67.8 50.2 M-47.95 53.35 L-35.9 53.7 -20.05 53.1 -7.1 50.85 M-20.05 53.1 L-7.05 51.4 -7.0 51.4" fill="none" stroke="#000000" stroke-linecap="round" stroke-linejoin="round" stroke-width="3.0"/>
  </g>
</svg>
