<?xml version="1.0" encoding="UTF-8" standalone="no"?>
<svg xmlns:ffdec="https://www.free-decompiler.com/flash" xmlns:xlink="http://www.w3.org/1999/xlink" ffdec:objectType="shape" height="142.8px" width="286.55px" xmlns="http://www.w3.org/2000/svg">
  <g transform="matrix(1.0, 0.0, 0.0, 1.0, 136.4, 70.6)">
    <path d="M-134.1 16.1 L-116.8 13.85 -99.25 13.25 Q-92.45 13.85 -84.5 20.35 -75.85 27.3 -71.75 28.45 -64.8 38.2 -58.7 44.25 -90.05 41.65 -106.9 32.6 -110.45 30.7 -117.2 28.35 -124.0 26.0 -130.35 22.9 -134.75 20.7 -134.1 16.1 M59.15 35.1 L56.45 34.8 Q41.2 32.0 25.6 36.85 L25.2 37.0 Q14.7 41.0 -4.95 42.5 L-5.2 42.5 -10.45 43.1 -10.7 43.15 -12.15 43.35 -12.2 43.35 -30.85 45.7 -31.35 46.2 -33.15 44.65 -33.35 44.5 -34.95 42.55 -29.4 41.85 -12.6 40.5 -11.05 40.3 -10.95 40.3 -10.75 40.25 -5.3 39.25 Q1.8 37.95 8.9 34.55 L13.3 30.95 30.3 16.1 Q34.25 12.55 38.65 9.35 43.0 6.1 45.85 7.65 L45.85 8.0 Q50.75 13.35 32.45 26.85 23.85 31.95 24.3 34.55 L24.85 34.4 25.6 36.85 24.9 34.35 Q29.25 33.0 35.2 31.65 41.5 30.15 50.65 28.6 59.8 26.95 60.55 30.75 61.25 34.5 60.55 34.45 59.8 34.4 59.15 35.1 M-83.65 3.65 Q-81.25 3.9 -81.2 5.5 -81.2 7.15 -84.2 8.75 L-87.75 10.35 -88.85 10.75 Q-93.05 10.95 -97.55 9.15 -101.85 7.4 -104.15 4.95 -102.9 3.2 -100.7 3.2 L-96.25 2.8 -90.8 2.6 -86.4 3.05 -83.65 3.65" fill="#ffffff" fill-rule="evenodd" stroke="none"/>
    <path d="M-20.9 -22.55 Q-17.9 -24.6 -16.15 -31.6 -15.3 -35.1 -14.6 -38.95 -13.7 -43.85 -13.05 -49.25 -11.95 -58.85 -8.15 -67.65 -1.95 -74.85 0.5 -46.6 1.95 -29.25 7.5 -20.5 11.0 -16.05 16.1 -15.45 29.3 -14.0 55.05 -5.1 65.65 -0.65 75.75 6.95 85.8 14.5 91.1 19.85 93.85 22.6 97.15 23.6 L97.05 23.85 97.2 23.85 98.65 23.95 99.45 24.0 Q110.95 24.9 114.8 26.65 118.65 28.35 138.5 25.25 158.3 22.1 139.5 31.9 131.25 36.4 124.2 35.3 L110.55 33.65 101.9 32.65 96.4 31.2 86.55 30.85 86.15 30.9 86.15 30.95 72.0 34.0 60.55 35.15 60.55 34.45 Q61.25 34.5 60.55 30.75 59.8 26.95 50.65 28.6 41.5 30.15 35.2 31.65 29.25 33.0 24.9 34.35 L24.85 34.4 24.3 34.55 Q23.85 31.95 32.45 26.85 50.75 13.35 45.85 8.0 L45.85 7.65 Q43.0 6.1 38.65 9.35 34.25 12.55 30.3 16.1 L13.3 30.95 8.9 34.55 Q1.8 37.95 -5.3 39.25 L-10.75 40.25 -10.95 40.3 -11.05 40.3 -12.6 40.5 -29.4 41.85 -34.95 42.55 -33.35 44.5 -33.15 44.65 -31.35 46.2 -31.25 46.25 -29.7 47.3 Q-26.15 49.55 -20.3 56.9 -15.65 62.75 -14.2 65.65 -11.2 69.7 -13.9 70.35 -15.45 71.35 -19.8 69.5 L-28.6 65.85 Q-33.05 64.0 -39.5 59.4 -46.0 54.75 -54.25 48.25 L-58.35 44.6 -58.7 44.25 Q-64.8 38.2 -71.75 28.45 -75.85 27.3 -84.5 20.35 -92.45 13.85 -99.25 13.25 L-116.8 13.85 -134.1 16.1 Q-133.8 13.95 -132.45 11.35 -128.15 2.95 -119.65 -2.1 -111.15 -7.25 -86.05 -12.2 -60.95 -17.2 -31.75 -18.6 -25.35 -19.6 -21.7 -21.35 -21.25 -21.55 -20.85 -21.8 L-20.9 -22.55 M-72.5 27.4 L-71.75 28.45 -72.5 27.4 M-35.6 42.6 L-34.95 42.55 -35.6 42.6 M-83.65 3.65 L-86.4 3.05 -90.8 2.6 -96.25 2.8 -100.7 3.2 Q-102.9 3.2 -104.15 4.95 -101.85 7.4 -97.55 9.15 -93.05 10.95 -88.85 10.75 L-87.75 10.35 -84.2 8.75 Q-81.2 7.15 -81.2 5.5 -81.25 3.9 -83.65 3.65" fill="#000000" fill-rule="evenodd" stroke="none"/>
    <path d="M97.15 23.6 Q93.85 22.6 91.1 19.85 85.8 14.5 75.75 6.95 65.65 -0.65 55.05 -5.1 29.3 -14.0 16.1 -15.45 11.0 -16.05 7.5 -20.5 1.95 -29.25 0.5 -46.6 -1.95 -74.85 -8.15 -67.65 -11.95 -58.85 -13.05 -49.25 -13.7 -43.85 -14.6 -38.95 -15.3 -35.1 -16.15 -31.6 -17.9 -24.6 -20.9 -22.55 M-20.85 -21.8 Q-21.25 -21.55 -21.7 -21.35 -25.35 -19.6 -31.75 -18.6 -60.95 -17.2 -86.05 -12.2 -111.15 -7.25 -119.65 -2.1 -128.15 2.95 -132.45 11.35 -133.8 13.95 -134.1 16.1 L-134.9 16.2 M-71.75 28.45 L-72.5 27.4 M86.15 30.9 L86.55 30.85 96.4 31.2 101.9 32.65 110.55 33.65 124.2 35.3 Q131.25 36.4 139.5 31.9 158.3 22.1 138.5 25.25 118.65 28.35 114.8 26.65 110.95 24.9 99.45 24.0 L98.65 23.95 97.2 23.85 97.05 23.85 M97.15 23.6 L98.65 23.95 M86.55 30.85 L86.15 30.95 72.0 34.0 60.55 35.15 59.15 35.1 56.45 34.8 Q41.2 32.0 25.6 36.85 L25.2 37.0 Q14.7 41.0 -4.95 42.5 L-5.2 42.5 -10.45 43.1 -10.7 43.15 -12.15 43.35 -12.2 43.35 -30.85 45.7 M-31.35 46.2 L-31.25 46.25 -29.7 47.3 Q-26.15 49.55 -20.3 56.9 -15.65 62.75 -14.2 65.65 -11.2 69.7 -13.9 70.35 -15.45 71.35 -19.8 69.5 L-28.6 65.85 Q-33.05 64.0 -39.5 59.4 -46.0 54.75 -54.25 48.25 L-58.35 44.6 -58.7 44.25 Q-90.05 41.65 -106.9 32.6 -110.45 30.7 -117.2 28.35 -124.0 26.0 -130.35 22.9 -134.75 20.7 -134.1 16.1 M59.15 35.1 Q59.8 34.4 60.55 34.45 M24.85 34.4 L24.3 34.55 M-34.95 42.55 L-33.35 44.5 -33.15 44.65 -31.35 46.2 M24.85 34.4 L24.9 34.35 M-34.95 42.55 L-35.6 42.6 M-58.7 44.25 Q-64.8 38.2 -71.75 28.45" fill="none" stroke="#000000" stroke-linecap="round" stroke-linejoin="round" stroke-width="3.0"/>
  </g>
</svg>
