<?xml version="1.0" encoding="UTF-8" standalone="no"?>
<svg xmlns:ffdec="https://www.free-decompiler.com/flash" xmlns:xlink="http://www.w3.org/1999/xlink" ffdec:objectType="shape" height="169.85px" width="150.7px" xmlns="http://www.w3.org/2000/svg">
  <g transform="matrix(1.0, 0.0, 0.0, 1.0, 135.6, 63.3)">
    <path d="M-2.65 -2.7 L-3.55 -6.35 Q-3.55 -15.05 3.55 -15.05 4.9 -15.05 6.15 -14.3 8.2 -14.15 9.9 -11.85 11.8 -10.6 12.6 -7.9 13.05 -6.2 13.1 -4.45 14.25 -0.1 15.1 6.2 L14.35 18.1 Q14.35 19.85 12.95 27.3 12.95 28.2 13.65 30.1 14.35 32.05 14.35 32.9 14.35 35.9 13.65 38.45 13.2 47.4 5.75 47.4 1.5 47.4 -0.25 44.6 -2.65 42.8 -2.8 38.75 L-2.65 37.75 Q-1.05 38.85 1.4 38.85 8.55 38.85 8.55 29.8 8.8 27.55 8.0 25.3 L7.7 24.5 8.6 22.05 Q10.05 17.35 10.05 12.85 L10.05 12.8 Q11.55 10.7 11.55 7.95 11.7 4.3 10.8 0.7 8.95 -6.45 3.55 -6.45 -1.05 -6.45 -2.65 -2.7" fill="#ff0033" fill-rule="evenodd" stroke="none"/>
    <path d="M-2.65 37.75 Q-4.3 36.6 -5.1 34.3 L-5.65 29.75 Q-5.65 27.05 -5.0 25.2 L-5.1 24.95 -5.65 20.1 Q-5.65 14.55 -4.95 11.95 -4.45 10.1 -3.55 8.8 -3.9 6.7 -3.55 4.55 -3.55 -0.2 -2.9 -2.05 L-2.65 -2.7 Q-1.05 -6.45 3.55 -6.45 8.95 -6.45 10.8 0.7 11.7 4.3 11.55 7.95 11.55 10.7 10.05 12.8 L10.05 12.85 Q10.05 17.35 8.6 22.05 L7.7 24.5 8.0 25.3 Q8.8 27.55 8.55 29.8 8.55 38.85 1.4 38.85 -1.05 38.85 -2.65 37.75" fill="#ba0126" fill-rule="evenodd" stroke="none"/>
    <path d="M-134.1 22.55 Q-129.9 25.2 -121.65 25.4 L-112.25 25.35 -101.95 25.85 Q-91.75 27.05 -83.65 33.05 L-77.2 38.45 -71.85 42.6 -69.95 46.35 -67.8 50.2 -86.8 46.5 -111.4 41.9 Q-119.7 40.5 -126.9 35.55 -134.05 30.6 -134.05 23.85 L-134.05 23.2 -134.1 22.55 M-7.1 50.85 Q-1.4 49.2 3.35 47.3 L3.75 47.1 Q7.15 45.7 10.1 44.1 L10.6 44.4 Q10.1 45.55 10.05 46.45 L3.8 48.4 1.65 49.05 -6.95 51.4 -7.0 51.4 -7.1 50.85 M-97.3 21.75 Q-103.7 18.15 -103.75 15.85 -103.8 14.7 -103.0 14.55 L-101.1 14.6 Q-92.9 14.85 -86.65 16.3 -79.6 17.85 -79.55 20.05 -79.5 22.5 -88.35 24.75 L-89.95 24.75 Q-92.6 24.3 -97.3 21.75" fill="#ffffff" fill-rule="evenodd" stroke="none"/>
    <path d="M10.6 -11.7 Q9.25 -10.45 8.4 -8.4 7.15 -5.4 7.15 -1.75 7.15 2.45 8.25 4.4 L9.0 5.55 Q7.15 9.05 7.15 12.4 L7.1 13.95 Q7.2 15.65 7.7 17.05 L8.05 17.8 Q7.85 19.1 7.85 25.35 L7.65 27.55 Q7.5 30.1 7.9 32.2 L8.4 34.05 Q7.15 36.0 7.15 38.05 7.5 42.4 10.1 44.1 7.15 45.7 3.75 47.1 L3.35 47.3 Q-1.4 49.2 -7.1 50.85 L-20.05 53.1 -35.9 53.7 -47.95 53.35 -47.95 53.65 -47.95 54.05 Q-42.8 56.3 -37.35 61.05 -31.6 66.1 -28.4 69.4 -25.25 72.65 -19.35 82.4 -15.05 93.2 -14.95 97.6 L-14.5 102.95 Q-14.15 106.7 -21.6 103.7 -29.1 100.7 -37.05 95.2 -45.0 89.7 -49.45 83.25 -53.95 76.8 -58.25 68.9 -62.35 61.3 -63.65 57.75 L-67.8 50.2 -69.95 46.35 -71.85 42.6 -77.2 38.45 -83.65 33.05 Q-91.75 27.05 -101.95 25.85 L-112.25 25.35 -121.65 25.4 Q-129.9 25.2 -134.1 22.55 -134.2 19.2 -133.05 16.3 -124.95 2.65 -109.15 -0.3 L-107.3 -0.6 Q-101.5 -2.25 -94.65 -3.3 L-74.45 -6.55 Q-70.85 -6.4 -58.0 -8.3 L-31.6 -11.05 Q-22.35 -11.6 -18.35 -16.55 L-17.95 -16.6 -17.8 -16.7 Q-16.45 -18.85 -15.8 -21.6 -15.1 -24.55 -14.2 -32.3 L-12.5 -45.55 -11.4 -51.6 Q-9.25 -61.75 -6.05 -61.8 -2.05 -61.95 -1.3 -54.4 L-1.05 -51.9 Q-0.4 -45.95 0.55 -41.25 L1.55 -36.25 4.1 -23.45 Q5.65 -15.6 10.6 -11.7 M-70.35 43.55 L-71.85 42.6 -70.35 43.55 M-97.3 21.75 Q-92.6 24.3 -89.95 24.75 L-88.35 24.75 Q-79.5 22.5 -79.55 20.05 -79.6 17.85 -86.65 16.3 -92.9 14.85 -101.1 14.6 L-103.0 14.55 Q-103.8 14.7 -103.75 15.85 -103.7 18.15 -97.3 21.75" fill="#000000" fill-rule="evenodd" stroke="none"/>
    <path d="M10.6 -11.7 Q5.65 -15.6 4.1 -23.45 L1.55 -36.25 0.55 -41.25 Q-0.4 -45.95 -1.05 -51.9 L-1.3 -54.4 Q-2.05 -61.95 -6.05 -61.8 -9.25 -61.75 -11.4 -51.6 L-12.5 -45.55 -14.2 -32.3 Q-15.1 -24.55 -15.8 -21.6 -16.45 -18.85 -17.8 -16.7 L-17.95 -16.6 -18.35 -16.55 Q-22.35 -11.6 -31.6 -11.05 L-58.0 -8.3 Q-70.85 -6.4 -74.45 -6.55 L-94.65 -3.3 Q-101.5 -2.25 -107.3 -0.6 L-109.15 -0.3 Q-124.95 2.65 -133.05 16.3 -134.2 19.2 -134.1 22.55 L-134.05 23.2 -134.05 23.85 Q-134.05 30.6 -126.9 35.55 -119.7 40.5 -111.4 41.9 L-86.8 46.5 -67.8 50.2 -63.65 57.75 Q-62.35 61.3 -58.25 68.9 -53.95 76.8 -49.45 83.25 -45.0 89.7 -37.05 95.2 -29.1 100.7 -21.6 103.7 -14.15 106.7 -14.5 102.95 L-14.95 97.6 Q-15.05 93.2 -19.35 82.4 -25.25 72.65 -28.4 69.4 -31.6 66.1 -37.35 61.05 -42.8 56.3 -47.95 54.05 L-47.95 53.65 M-71.85 42.6 L-70.35 43.55 M-7.0 51.4 L-6.95 51.4 1.65 49.05 3.8 48.4 10.05 46.45 M-71.85 42.6 L-69.95 46.35 -67.8 50.2 M-47.95 53.35 L-35.9 53.7 -20.05 53.1 -7.1 50.85 M-20.05 53.1 L-7.05 51.4 -7.0 51.4" fill="none" stroke="#000000" stroke-linecap="round" stroke-linejoin="round" stroke-width="3.0"/>
  </g>
</svg>
