<?xml version="1.0" encoding="UTF-8" standalone="no"?>
<svg xmlns:ffdec="https://www.free-decompiler.com/flash" xmlns:xlink="http://www.w3.org/1999/xlink" ffdec:objectType="shape" height="142.8px" width="153.9px" xmlns="http://www.w3.org/2000/svg">
  <g transform="matrix(1.0, 0.0, 0.0, 1.0, 136.4, 70.6)">
    <path d="M0.35 -8.35 Q-1.4 -12.9 -1.4 -13.65 -1.4 -15.95 0.35 -18.15 2.05 -20.4 8.35 -19.25 14.65 -18.15 16.25 -5.25 17.8 7.6 17.4 24.3 16.95 40.95 10.4 40.95 3.8 40.95 1.45 32.2 L1.45 32.1 Q2.95 33.05 4.95 33.05 11.95 33.05 12.25 24.4 L12.45 22.05 13.55 13.6 Q14.35 11.75 14.35 8.9 14.4 4.15 12.0 2.2 L12.25 -0.75 Q12.45 -3.35 11.6 -5.6 10.0 -10.05 4.95 -10.05 2.1 -10.05 0.35 -8.35" fill="#ff0033" fill-rule="evenodd" stroke="none"/>
    <path d="M0.35 -8.35 Q2.1 -10.05 4.95 -10.05 10.0 -10.05 11.6 -5.6 12.45 -3.35 12.25 -0.75 L12.0 2.2 Q14.4 4.15 14.35 8.9 14.35 11.75 13.55 13.6 L12.45 22.05 12.25 24.4 Q11.95 33.05 4.95 33.05 2.95 33.05 1.45 32.1 -1.0 30.5 -2.1 26.4 L-2.8 19.3 -2.15 14.1 -2.3 10.95 Q-2.45 7.95 -2.15 5.75 -2.8 4.2 -2.8 2.5 -2.8 -5.45 0.35 -8.35" fill="#ba0126" fill-rule="evenodd" stroke="none"/>
    <path d="M-134.1 16.1 L-116.8 13.85 -99.25 13.25 Q-92.45 13.85 -84.5 20.35 -75.85 27.3 -71.75 28.45 -64.8 38.2 -58.7 44.25 -90.05 41.65 -106.9 32.6 -110.45 30.7 -117.2 28.35 -124.0 26.0 -130.35 22.9 -134.75 20.7 -134.1 16.1 M-34.95 42.55 L-29.4 41.85 -12.6 40.5 -11.05 40.3 -10.95 40.3 -10.75 40.25 -5.3 39.25 Q1.8 37.95 8.9 34.55 L10.05 33.65 Q11.4 35.3 14.0 35.75 12.95 38.55 12.95 40.25 L-4.95 42.5 -5.2 42.5 -10.45 43.1 -10.7 43.15 -12.15 43.35 -12.2 43.35 -30.85 45.7 -31.35 46.2 -33.15 44.65 -33.35 44.5 -34.95 42.55 M-88.85 10.75 Q-93.05 10.95 -97.55 9.15 -101.85 7.4 -104.15 4.95 -102.9 3.2 -100.7 3.2 L-96.25 2.8 -90.8 2.6 -86.4 3.05 -83.65 3.65 Q-81.25 3.9 -81.2 5.5 -81.2 7.15 -84.2 8.75 L-87.75 10.35 -88.85 10.75" fill="#ffffff" fill-rule="evenodd" stroke="none"/>
    <path d="M-20.9 -22.55 Q-17.9 -24.6 -16.15 -31.6 -15.3 -35.1 -14.6 -38.95 -13.7 -43.85 -13.05 -49.25 -11.95 -58.85 -8.15 -67.65 -1.95 -74.85 0.5 -46.6 1.95 -29.25 7.5 -20.5 9.65 -17.75 12.45 -16.45 10.9 -15.7 9.7 -14.15 7.85 -11.75 7.85 -9.35 7.9 -7.4 8.9 -5.65 9.45 -4.6 10.3 -3.85 9.0 -2.15 8.55 0.7 7.95 4.4 8.55 9.25 7.8 14.05 8.55 18.5 8.9 20.5 9.55 22.1 8.55 24.1 8.55 27.35 8.3 31.5 10.05 33.65 L8.9 34.55 Q1.8 37.95 -5.3 39.25 L-10.75 40.25 -10.95 40.3 -11.05 40.3 -12.6 40.5 -29.4 41.85 -34.95 42.55 -33.35 44.5 -33.15 44.65 -31.35 46.2 -31.25 46.25 -29.7 47.3 Q-26.15 49.55 -20.3 56.9 -15.65 62.75 -14.2 65.65 -11.2 69.7 -13.9 70.35 -15.45 71.35 -19.8 69.5 L-28.6 65.85 Q-33.05 64.0 -39.5 59.4 -46.0 54.75 -54.25 48.25 L-58.35 44.6 -58.7 44.25 Q-64.8 38.2 -71.75 28.45 -75.85 27.3 -84.5 20.35 -92.45 13.85 -99.25 13.25 L-116.8 13.85 -134.1 16.1 Q-133.8 13.95 -132.45 11.35 -128.15 2.95 -119.65 -2.1 -111.15 -7.25 -86.05 -12.2 -60.95 -17.2 -31.75 -18.6 -25.35 -19.6 -21.7 -21.35 -21.25 -21.55 -20.85 -21.8 L-20.9 -22.55 M-72.5 27.4 L-71.75 28.45 -72.5 27.4 M-35.6 42.6 L-34.95 42.55 -35.6 42.6 M-88.85 10.75 L-87.75 10.35 -84.2 8.75 Q-81.2 7.15 -81.2 5.5 -81.25 3.9 -83.65 3.65 L-86.4 3.05 -90.8 2.6 -96.25 2.8 -100.7 3.2 Q-102.9 3.2 -104.15 4.95 -101.85 7.4 -97.55 9.15 -93.05 10.95 -88.85 10.75" fill="#000000" fill-rule="evenodd" stroke="none"/>
    <path d="M12.45 -16.45 Q9.65 -17.75 7.5 -20.5 1.95 -29.25 0.5 -46.6 -1.95 -74.85 -8.15 -67.65 -11.95 -58.85 -13.05 -49.25 -13.7 -43.85 -14.6 -38.95 -15.3 -35.1 -16.15 -31.6 -17.9 -24.6 -20.9 -22.55 M-20.85 -21.8 Q-21.25 -21.55 -21.7 -21.35 -25.35 -19.6 -31.75 -18.6 -60.95 -17.2 -86.05 -12.2 -111.15 -7.25 -119.65 -2.1 -128.15 2.95 -132.45 11.35 -133.8 13.95 -134.1 16.1 L-134.9 16.2 M-71.75 28.45 L-72.5 27.4 M-34.95 42.55 L-33.35 44.5 -33.15 44.65 -31.35 46.2 -31.25 46.25 -29.7 47.3 Q-26.15 49.55 -20.3 56.9 -15.65 62.75 -14.2 65.65 -11.2 69.7 -13.9 70.35 -15.45 71.35 -19.8 69.5 L-28.6 65.85 Q-33.05 64.0 -39.5 59.4 -46.0 54.75 -54.25 48.25 L-58.35 44.6 -58.7 44.25 Q-90.05 41.65 -106.9 32.6 -110.45 30.7 -117.2 28.35 -124.0 26.0 -130.35 22.9 -134.75 20.7 -134.1 16.1 M-30.85 45.7 L-12.2 43.35 -12.15 43.35 -10.7 43.15 -10.45 43.1 -5.2 42.5 -4.95 42.5 12.95 40.25 M-34.95 42.55 L-35.6 42.6 M-58.7 44.25 Q-64.8 38.2 -71.75 28.45" fill="none" stroke="#000000" stroke-linecap="round" stroke-linejoin="round" stroke-width="3.0"/>
  </g>
</svg>
