<?xml version="1.0" encoding="UTF-8" standalone="no"?>
<svg xmlns:ffdec="https://www.free-decompiler.com/flash" xmlns:xlink="http://www.w3.org/1999/xlink" ffdec:objectType="shape" height="57.75px" width="68.7px" xmlns="http://www.w3.org/2000/svg">
  <g transform="matrix(1.0, 0.0, 0.0, 1.0, 135.6, 7.75)">
    <path d="M-84.65 3.55 L-85.55 0.25 Q-85.55 -7.75 -78.45 -7.75 -77.1 -7.75 -75.85 -7.05 -73.8 -6.9 -72.1 -4.85 -70.2 -3.7 -69.4 -1.2 -68.95 0.35 -68.9 1.95 -67.75 5.9 -66.9 11.7 L-67.65 22.6 Q-67.65 24.2 -69.05 31.0 -69.05 31.85 -68.35 33.6 -67.65 35.35 -67.65 36.15 -67.65 38.85 -68.35 41.2 -68.8 49.4 -76.25 49.4 -80.5 49.4 -82.25 46.85 -84.65 45.2 -84.8 41.5 L-84.65 40.55 Q-83.05 41.6 -80.6 41.6 -73.45 41.6 -73.45 33.3 -73.2 31.25 -74.0 29.2 L-74.3 28.45 -73.4 26.2 Q-71.95 21.9 -71.95 17.8 L-71.95 17.75 Q-70.45 15.8 -70.45 13.3 -70.3 9.95 -71.2 6.7 -73.05 0.15 -78.45 0.15 -83.05 0.1 -84.65 3.55" fill="#ff0033" fill-rule="evenodd" stroke="none"/>
    <path d="M-84.65 40.55 Q-86.3 39.5 -87.1 37.45 L-87.65 33.25 Q-87.65 30.8 -87.0 29.1 L-87.1 28.85 -87.65 24.45 Q-87.65 19.35 -86.95 16.95 -86.45 15.25 -85.55 14.05 -85.9 12.15 -85.55 10.2 -85.55 5.85 -84.9 4.15 L-84.65 3.55 Q-83.05 0.1 -78.45 0.15 -73.05 0.15 -71.2 6.7 -70.3 9.95 -70.45 13.3 -70.45 15.8 -71.95 17.75 L-71.95 17.8 Q-71.95 21.9 -73.4 26.2 L-74.3 28.45 -74.0 29.2 Q-73.2 31.25 -73.45 33.3 -73.45 41.6 -80.6 41.6 -83.05 41.6 -84.65 40.55" fill="#ba0126" fill-rule="evenodd" stroke="none"/>
    <path d="M-134.1 22.55 Q-129.9 25.2 -121.65 25.4 L-112.25 25.35 -101.95 25.85 Q-91.75 27.05 -83.65 33.05 L-77.2 38.45 -77.15 38.5 -77.15 41.75 Q-77.05 45.35 -76.55 48.5 L-86.8 46.5 -111.4 41.9 Q-119.7 40.5 -126.9 35.55 -134.05 30.6 -134.05 23.85 L-134.05 23.2 -134.1 22.55 M-97.3 21.75 Q-103.7 18.15 -103.75 15.85 -103.8 14.7 -103.0 14.55 L-101.1 14.6 Q-92.9 14.85 -86.65 16.3 -79.6 17.85 -79.55 20.05 -79.5 22.5 -88.35 24.75 L-89.95 24.75 Q-92.6 24.3 -97.3 21.75" fill="#ffffff" fill-rule="evenodd" stroke="none"/>
    <path d="M-134.1 22.55 Q-134.2 19.2 -133.05 16.3 -124.95 2.65 -109.15 -0.3 L-107.3 -0.6 Q-101.5 -2.25 -94.65 -3.3 L-79.6 -5.75 Q-80.15 -3.85 -80.15 -2.0 L-80.05 0.75 Q-79.75 3.75 -78.9 6.25 -77.4 10.5 -74.4 12.45 -76.15 15.2 -76.15 18.35 L-75.8 20.45 Q-75.3 22.8 -74.35 24.75 -73.35 26.85 -71.95 28.25 L-74.35 30.05 Q-77.15 32.85 -77.15 36.75 L-77.15 38.5 -77.2 38.45 -83.65 33.05 Q-91.75 27.05 -101.95 25.85 L-112.25 25.35 -121.65 25.4 Q-129.9 25.2 -134.1 22.55 M-97.3 21.75 Q-92.6 24.3 -89.95 24.75 L-88.35 24.75 Q-79.5 22.5 -79.55 20.05 -79.6 17.85 -86.65 16.3 -92.9 14.85 -101.1 14.6 L-103.0 14.55 Q-103.8 14.7 -103.75 15.85 -103.7 18.15 -97.3 21.75" fill="#000000" fill-rule="evenodd" stroke="none"/>
    <path d="M-79.6 -5.75 L-94.65 -3.3 Q-101.5 -2.25 -107.3 -0.6 L-109.15 -0.3 Q-124.95 2.65 -133.05 16.3 -134.2 19.2 -134.1 22.55 L-134.05 23.2 -134.05 23.85 Q-134.05 30.6 -126.9 35.55 -119.7 40.5 -111.4 41.9 L-86.8 46.5 -76.55 48.5" fill="none" stroke="#000000" stroke-linecap="round" stroke-linejoin="round" stroke-width="3.0"/>
  </g>
</svg>
