<?xml version="1.0" encoding="UTF-8" standalone="no"?>
<svg xmlns:ffdec="https://www.free-decompiler.com/flash" xmlns:xlink="http://www.w3.org/1999/xlink" ffdec:objectType="shape" height="59.6px" width="81.4px" xmlns="http://www.w3.org/2000/svg">
  <g transform="matrix(1.0, 0.0, 0.0, 1.0, 136.15, 13.25)">
    <path d="M-78.85 -1.2 L-78.9 -2.45 Q-79.0 -5.15 -78.65 -7.15 -77.6 -12.75 -72.5 -13.2 L-71.65 -13.25 -71.6 -13.25 -71.55 -13.25 -71.45 -13.25 Q-65.25 -13.2 -63.1 -6.6 -62.2 -3.75 -62.2 0.7 L-62.4 2.8 Q-61.9 3.8 -61.65 5.05 -61.0 8.05 -62.4 2.8 L-62.85 21.7 -62.9 27.25 Q-62.9 34.3 -63.7 37.6 -65.8 46.3 -72.7 46.3 -76.85 46.3 -79.2 42.9 -80.8 40.55 -80.8 38.6 L-80.65 37.55 Q-78.95 41.35 -74.45 41.35 -68.95 41.35 -67.6 36.15 -67.25 34.85 -67.25 29.6 -67.25 23.8 -67.4 23.15 -67.75 21.7 -68.35 20.6 L-66.45 19.05 Q-64.35 16.75 -64.35 13.85 -66.8 -3.15 -73.75 -3.15 -77.05 -3.15 -78.85 -1.2" fill="#ff0033" fill-rule="evenodd" stroke="none"/>
    <path d="M-80.65 37.55 L-81.25 35.75 Q-81.7 34.0 -81.65 31.75 L-81.55 29.5 Q-81.55 23.9 -81.25 22.75 -80.7 20.55 -79.35 19.3 -80.35 17.9 -80.75 15.8 -81.35 12.75 -80.8 9.3 -80.8 3.25 -80.6 2.35 -80.1 0.1 -78.85 -1.2 -77.05 -3.15 -73.75 -3.15 -66.8 -3.15 -64.35 13.85 -64.35 16.75 -66.45 19.05 L-68.35 20.6 Q-67.75 21.7 -67.4 23.15 -67.25 23.8 -67.25 29.6 -67.25 34.85 -67.6 36.15 -68.95 41.35 -74.45 41.35 -78.95 41.35 -80.65 37.55" fill="#ba0126" fill-rule="evenodd" stroke="none"/>
    <path d="M-133.8 17.3 L-116.55 15.5 Q-105.8 14.6 -99.0 15.4 -92.1 16.15 -83.8 22.8 -74.95 29.8 -70.8 31.15 -74.15 34.95 -74.15 43.5 L-73.8 44.85 Q-93.4 41.15 -105.75 34.45 -109.35 32.45 -116.25 29.95 -123.2 27.45 -129.75 24.15 -134.25 21.9 -133.8 17.3 M-84.05 11.25 L-87.6 12.8 -88.65 13.15 Q-92.85 13.2 -97.45 11.3 -101.85 9.45 -104.3 6.95 -103.1 5.25 -100.9 5.3 L-96.5 5.05 Q-94.25 4.7 -91.0 4.95 L-86.55 5.5 -83.8 6.2 Q-81.35 6.5 -81.25 8.1 -81.15 9.75 -84.05 11.25" fill="#ffffff" fill-rule="evenodd" stroke="none"/>
    <path d="M-133.8 17.3 Q-133.6 15.2 -132.4 12.65 -128.5 4.4 -120.2 -0.45 -111.95 -5.35 -86.95 -9.65 L-74.45 -11.55 Q-74.8 -7.95 -74.15 -3.25 L-74.15 2.2 Q-73.95 7.9 -73.1 12.55 L-72.3 16.1 Q-73.15 18.6 -73.15 22.1 -73.15 27.15 -71.25 30.1 L-70.75 31.1 -71.25 30.1 -70.6 30.95 -70.75 31.1 -70.8 31.15 Q-74.95 29.8 -83.8 22.8 -92.1 16.15 -99.0 15.4 -105.8 14.6 -116.55 15.5 L-133.8 17.3 M-54.75 30.7 L-54.95 32.35 -55.6 31.55 -54.75 30.7 M-84.05 11.25 Q-81.15 9.75 -81.25 8.1 -81.35 6.5 -83.8 6.2 L-86.55 5.5 -91.0 4.95 Q-94.25 4.7 -96.5 5.05 L-100.9 5.3 Q-103.1 5.25 -104.3 6.95 -101.85 9.45 -97.45 11.3 -92.85 13.2 -88.65 13.15 L-87.6 12.8 -84.05 11.25" fill="#000000" fill-rule="evenodd" stroke="none"/>
    <path d="M-74.45 -11.55 L-86.95 -9.65 Q-111.95 -5.35 -120.2 -0.45 -128.5 4.4 -132.4 12.65 -133.6 15.2 -133.8 17.3 L-134.65 17.4 M-70.75 31.1 L-71.25 30.1 M-73.8 44.85 Q-93.4 41.15 -105.75 34.45 -109.35 32.45 -116.25 29.95 -123.2 27.45 -129.75 24.15 -134.25 21.9 -133.8 17.3" fill="none" stroke="#000000" stroke-linecap="round" stroke-linejoin="round" stroke-width="3.0"/>
  </g>
</svg>
