<?xml version="1.0" encoding="UTF-8" standalone="no"?>
<svg xmlns:ffdec="https://www.free-decompiler.com/flash" xmlns:xlink="http://www.w3.org/1999/xlink" ffdec:objectType="shape" height="61.55px" width="78.3px" xmlns="http://www.w3.org/2000/svg">
  <g transform="matrix(1.0, 0.0, 0.0, 1.0, 135.5, 13.55)">
    <path d="M-75.3 35.3 L-75.15 35.35 Q-73.2 38.1 -69.6 38.1 -62.5 38.1 -62.5 29.8 -62.5 26.2 -63.35 23.6 L-63.95 22.1 Q-62.35 15.35 -61.0 5.35 -61.0 1.15 -61.85 -1.65 -63.75 -7.8 -69.25 -7.8 -72.55 -7.8 -74.7 -5.6 L-75.2 -5.05 -75.3 -6.2 Q-75.3 -9.0 -73.45 -11.0 -71.15 -13.55 -66.85 -13.55 L-66.55 -13.55 Q-59.5 -13.4 -57.75 -4.75 -56.85 -0.3 -57.4 4.4 -57.4 11.85 -59.2 22.35 L-59.5 27.0 Q-60.1 32.6 -61.8 35.55 -60.45 37.3 -60.2 40.3 -60.2 42.7 -61.7 44.7 -63.75 47.5 -67.85 47.5 -74.8 47.5 -75.3 40.3 L-75.1 38.9 -75.3 36.1 -75.3 35.3" fill="#ff0033" fill-rule="evenodd" stroke="none"/>
    <path d="M-75.2 -5.05 L-74.7 -5.6 Q-72.55 -7.8 -69.25 -7.8 -63.75 -7.8 -61.85 -1.65 -61.0 1.15 -61.0 5.35 -62.35 15.35 -63.95 22.1 L-63.35 23.6 Q-62.5 26.2 -62.5 29.8 -62.5 38.1 -69.6 38.1 -73.2 38.1 -75.15 35.35 L-75.3 35.3 Q-78.9 33.5 -78.9 27.45 -78.9 21.3 -77.8 14.6 -76.7 7.95 -76.7 -0.8 -76.7 -3.2 -75.2 -5.05" fill="#ba0126" fill-rule="evenodd" stroke="none"/>
    <path d="M-133.15 22.95 L-116.05 19.85 Q-105.35 18.15 -98.55 18.4 -91.7 18.65 -83.45 24.75 -76.2 29.95 -72.15 31.65 -72.15 36.5 -71.35 38.75 -70.55 41.2 -68.95 42.7 -69.8 44.35 -70.0 46.5 -91.85 44.45 -105.25 38.1 -108.85 36.35 -115.7 34.35 -122.6 32.35 -129.1 29.55 -133.6 27.6 -133.15 22.95 M-88.25 15.4 Q-92.45 15.8 -97.0 14.2 -101.4 12.7 -103.8 10.35 -102.65 8.55 -100.45 8.45 L-96.05 7.85 -90.6 7.35 -86.2 7.55 -83.45 8.05 Q-81.05 8.15 -80.9 9.75 -80.8 11.4 -83.7 13.15 -85.55 14.25 -87.2 14.95 L-88.25 15.4" fill="#ffffff" fill-rule="evenodd" stroke="none"/>
    <path d="M-70.85 -11.2 L-71.15 -3.9 -71.25 -1.1 Q-71.25 1.75 -70.65 4.0 L-70.1 5.6 -70.35 6.0 Q-73.15 10.95 -73.15 15.35 L-73.15 17.45 Q-73.05 19.8 -72.35 21.75 L-71.35 23.85 Q-72.15 26.1 -72.15 31.6 L-72.15 31.65 Q-76.2 29.95 -83.45 24.75 -91.7 18.65 -98.55 18.4 -105.35 18.15 -116.05 19.85 L-133.15 22.95 Q-133.0 20.8 -131.75 18.15 -127.9 9.55 -119.65 4.05 -111.45 -1.45 -86.6 -7.65 -78.95 -9.6 -70.85 -11.2 M-88.25 15.4 L-87.2 14.95 Q-85.55 14.25 -83.7 13.15 -80.8 11.4 -80.9 9.75 -81.05 8.15 -83.45 8.05 L-86.2 7.55 -90.6 7.35 -96.05 7.85 -100.45 8.45 Q-102.65 8.55 -103.8 10.35 -101.4 12.7 -97.0 14.2 -92.45 15.8 -88.25 15.4" fill="#000000" fill-rule="evenodd" stroke="none"/>
    <path d="M-70.85 -11.2 Q-78.95 -9.6 -86.6 -7.65 -111.45 -1.45 -119.65 4.05 -127.9 9.55 -131.75 18.15 -133.0 20.8 -133.15 22.95 L-134.0 23.1 M-70.0 46.5 Q-91.85 44.45 -105.25 38.1 -108.85 36.35 -115.7 34.35 -122.6 32.35 -129.1 29.55 -133.6 27.6 -133.15 22.95" fill="none" stroke="#000000" stroke-linecap="round" stroke-linejoin="round" stroke-width="3.0"/>
  </g>
</svg>
