<?xml version="1.0" encoding="UTF-8" standalone="no"?>
<svg xmlns:ffdec="https://www.free-decompiler.com/flash" xmlns:xlink="http://www.w3.org/1999/xlink" ffdec:objectType="shape" height="60.75px" width="75.5px" xmlns="http://www.w3.org/2000/svg">
  <g transform="matrix(1.0, 0.0, 0.0, 1.0, 136.4, 15.85)">
    <path d="M-78.05 -4.4 Q-79.8 -8.95 -79.8 -9.7 -79.8 -12.0 -78.05 -14.2 -76.35 -16.45 -70.05 -15.3 -63.75 -14.2 -62.15 -1.3 -60.6 11.55 -61.0 28.25 -61.45 44.9 -68.0 44.9 -74.6 44.9 -76.95 36.15 L-76.95 36.05 Q-75.45 37.0 -73.45 37.0 -66.45 37.0 -66.15 28.35 L-65.95 26.0 -64.85 17.55 Q-64.05 15.7 -64.05 12.85 -64.0 8.1 -66.4 6.15 L-66.15 3.2 Q-65.95 0.6 -66.8 -1.65 -68.4 -6.1 -73.45 -6.1 -76.3 -6.1 -78.05 -4.4" fill="#ff0033" fill-rule="evenodd" stroke="none"/>
    <path d="M-78.05 -4.4 Q-76.3 -6.1 -73.45 -6.1 -68.4 -6.1 -66.8 -1.65 -65.95 0.6 -66.15 3.2 L-66.4 6.15 Q-64.0 8.1 -64.05 12.85 -64.05 15.7 -64.85 17.55 L-65.95 26.0 -66.15 28.35 Q-66.45 37.0 -73.45 37.0 -75.45 37.0 -76.95 36.05 -79.4 34.45 -80.5 30.35 L-81.2 23.25 -80.55 18.05 -80.7 14.9 Q-80.85 11.9 -80.55 9.7 -81.2 8.15 -81.2 6.45 -81.2 -1.5 -78.05 -4.4" fill="#ba0126" fill-rule="evenodd" stroke="none"/>
    <path d="M-134.1 16.1 L-116.8 13.85 -99.25 13.25 Q-92.45 13.85 -84.5 20.35 -77.7 25.8 -73.7 27.7 -73.35 30.15 -72.65 32.3 L-71.15 35.9 Q-72.15 38.4 -72.15 41.5 L-71.9 42.75 Q-93.8 39.65 -106.9 32.6 -110.45 30.7 -117.2 28.35 -124.0 26.0 -130.35 22.9 -134.75 20.7 -134.1 16.1 M-88.85 10.75 Q-93.05 10.95 -97.55 9.15 -101.85 7.4 -104.15 4.95 -102.9 3.2 -100.7 3.2 L-96.25 2.8 -90.8 2.6 -86.4 3.05 -83.65 3.65 Q-81.25 3.9 -81.2 5.5 -81.2 7.15 -84.2 8.75 L-87.75 10.35 -88.85 10.75" fill="#ffffff" fill-rule="evenodd" stroke="none"/>
    <path d="M-134.1 16.1 Q-133.8 13.95 -132.45 11.35 -128.15 2.95 -119.65 -2.1 -111.15 -7.25 -86.05 -12.2 L-74.1 -14.35 Q-75.15 -12.05 -75.15 -9.4 -75.15 -6.85 -73.95 -4.4 -75.15 -1.5 -75.15 3.0 L-75.2 5.35 Q-75.1 7.8 -74.4 9.8 L-73.55 11.65 -73.65 12.0 Q-74.15 13.85 -74.15 21.0 L-74.05 24.75 -73.7 27.7 Q-77.7 25.8 -84.5 20.35 -92.45 13.85 -99.25 13.25 L-116.8 13.85 -134.1 16.1 M-88.85 10.75 L-87.75 10.35 -84.2 8.75 Q-81.2 7.15 -81.2 5.5 -81.25 3.9 -83.65 3.65 L-86.4 3.05 -90.8 2.6 -96.25 2.8 -100.7 3.2 Q-102.9 3.2 -104.15 4.95 -101.85 7.4 -97.55 9.15 -93.05 10.95 -88.85 10.75" fill="#000000" fill-rule="evenodd" stroke="none"/>
    <path d="M-74.1 -14.35 L-86.05 -12.2 Q-111.15 -7.25 -119.65 -2.1 -128.15 2.95 -132.45 11.35 -133.8 13.95 -134.1 16.1 L-134.9 16.2 M-71.9 42.75 Q-93.8 39.65 -106.9 32.6 -110.45 30.7 -117.2 28.35 -124.0 26.0 -130.35 22.9 -134.75 20.7 -134.1 16.1" fill="none" stroke="#000000" stroke-linecap="round" stroke-linejoin="round" stroke-width="3.0"/>
  </g>
</svg>
