<?xml version="1.0" encoding="UTF-8" standalone="no"?>
<svg xmlns:ffdec="https://www.free-decompiler.com/flash" xmlns:xlink="http://www.w3.org/1999/xlink" ffdec:objectType="shape" height="21.95px" width="31.1px" xmlns="http://www.w3.org/2000/svg">
  <g transform="matrix(1.0, 0.0, 0.0, 1.0, 16.85, 8.95)">
    <path d="M12.4 6.25 L12.5 6.1 13.4 7.45 12.4 6.25" fill="#97d6f0" fill-rule="evenodd" stroke="none"/>
    <path d="M-15.25 5.55 Q-13.95 2.2 -15.65 -1.55 -17.35 -5.3 -14.2 -3.55 L-11.8 -2.1 Q-10.6 -1.3 -9.45 -1.3 -8.2 -1.3 -8.85 -4.8 -9.45 -8.35 -8.6 -8.35 -6.25 -8.35 -2.0 -3.7 2.15 0.95 3.3 0.95 4.5 0.95 5.15 -0.1 6.45 -0.6 8.15 0.65 9.55 1.65 12.5 6.1 L12.4 6.25 Q13.95 8.55 13.5 12.35 L13.55 12.4 Q16.15 13.45 8.8 12.7 L-8.1 10.2 Q-17.65 8.45 -14.75 5.45 L-15.25 5.55" fill="url(#gradient0)" fill-rule="evenodd" stroke="none"/>
    <path d="M12.5 6.1 Q9.55 1.65 8.15 0.65 6.45 -0.6 5.15 -0.1 4.5 0.95 3.3 0.95 2.15 0.95 -2.0 -3.7 -6.25 -8.35 -8.6 -8.35 -9.45 -8.35 -8.85 -4.8 -8.2 -1.3 -9.45 -1.3 -10.6 -1.3 -11.8 -2.1 L-14.2 -3.55 Q-17.35 -5.3 -15.65 -1.55 -13.95 2.2 -15.25 5.55 M12.5 6.1 L13.4 7.45" fill="none" stroke="#000000" stroke-linecap="round" stroke-linejoin="round" stroke-width="1.2000000000000002"/>
  </g>
  <defs>
    <linearGradient gradientTransform="matrix(2.0E-4, 0.0133, -0.0184, 3.0E-4, -1.0, 2.35)" gradientUnits="userSpaceOnUse" id="gradient0" spreadMethod="pad" x1="-819.2" x2="819.2">
      <stop offset="0.6666666666666666" stop-color="#97d6f0" stop-opacity="0.8"/>
      <stop offset="0.8549019607843137" stop-color="#97d6f0" stop-opacity="0.0"/>
    </linearGradient>
  </defs>
</svg>
