<?xml version="1.0" encoding="UTF-8" standalone="no"?>
<svg xmlns:ffdec="https://www.free-decompiler.com/flash" xmlns:xlink="http://www.w3.org/1999/xlink" ffdec:objectType="shape" height="18.35px" width="31.2px" xmlns="http://www.w3.org/2000/svg">
  <g transform="matrix(1.0, 0.0, 0.0, 1.0, 16.45, 3.0)">
    <path d="M-15.95 7.5 Q-13.15 2.05 -12.55 1.4 -11.4 0.15 -10.35 0.15 -8.75 0.15 -6.5 1.15 L-3.45 2.15 Q-0.95 2.15 0.25 -0.15 1.45 -2.45 2.1 -2.5 2.7 -2.55 7.25 3.55 11.8 9.65 14.25 14.85 9.35 14.35 -2.1 11.65 -14.65 8.65 -15.85 7.75 L-15.95 7.5" fill="url(#gradient0)" fill-rule="evenodd" stroke="none"/>
    <path d="M14.25 14.85 Q11.8 9.65 7.25 3.55 2.7 -2.55 2.1 -2.5 1.45 -2.45 0.25 -0.15 -0.95 2.15 -3.45 2.15 L-6.5 1.15 Q-8.75 0.15 -10.35 0.15 -11.4 0.15 -12.55 1.4 -13.15 2.05 -15.95 7.5" fill="none" stroke="#000000" stroke-linecap="round" stroke-linejoin="round" stroke-width="1.0"/>
  </g>
  <defs>
    <linearGradient gradientTransform="matrix(-0.0011, 0.0097, -0.0187, -0.002, -0.2, 5.2)" gradientUnits="userSpaceOnUse" id="gradient0" spreadMethod="pad" x1="-819.2" x2="819.2">
      <stop offset="0.6666666666666666" stop-color="#97d6f0" stop-opacity="0.8"/>
      <stop offset="0.8549019607843137" stop-color="#97d6f0" stop-opacity="0.0"/>
    </linearGradient>
  </defs>
</svg>
