<?xml version="1.0" encoding="UTF-8" standalone="no"?>
<svg xmlns:ffdec="https://www.free-decompiler.com/flash" xmlns:xlink="http://www.w3.org/1999/xlink" ffdec:objectType="shape" height="20.65px" width="66.7px" xmlns="http://www.w3.org/2000/svg">
  <g transform="matrix(1.0, 0.0, 0.0, 1.0, 50.95, 10.25)">
    <path d="M13.4 -7.15 L15.0 -6.55 Q16.2 -5.15 15.45 -3.35 L14.55 -1.2 Q12.3 4.2 7.75 7.75 3.85 10.75 -1.1 10.35 L-2.0 10.2 Q-4.1 9.95 -5.75 8.7 -8.55 6.6 -10.25 3.6 L-10.9 2.25 -12.1 -0.25 -14.75 -6.15 -41.6 -5.8 Q-44.3 -5.35 -46.3 -3.45 -47.05 -2.7 -47.3 -1.55 L-47.4 -0.85 -47.4 1.7 Q-47.35 2.5 -47.45 3.3 -47.55 4.1 -48.3 4.65 L-49.25 4.6 -50.15 3.9 -50.8 1.95 -50.85 -1.85 Q-50.65 -3.55 -49.6 -4.9 -46.5 -9.0 -41.2 -9.4 L-39.5 -9.55 -15.35 -9.65 Q-14.5 -10.25 -13.45 -10.25 L-3.5 -9.65 4.5 -8.75 Q9.05 -8.35 13.4 -7.15 M12.3 -2.4 Q12.65 -3.25 12.35 -4.35 L12.1 -4.8 Q10.45 -5.6 8.65 -5.85 L-5.3 -7.45 -7.4 -7.4 -8.45 -7.4 Q-9.25 -7.35 -10.0 -6.65 L-10.35 -4.2 -8.3 0.95 Q-6.85 3.9 -4.6 6.2 -3.05 7.9 -0.8 8.15 1.15 8.5 2.9 7.75 7.65 5.9 10.3 1.45 L12.3 -2.4" fill="#000000" fill-rule="evenodd" stroke="none"/>
    <path d="M-10.35 -4.2 L-3.5 -4.65 3.05 -4.2 Q7.8 -3.85 12.3 -2.4 L10.3 1.45 -8.3 0.95 -10.35 -4.2" fill="#484848" fill-rule="evenodd" stroke="none"/>
    <path d="M12.3 -2.4 Q7.8 -3.85 3.05 -4.2 L-3.5 -4.65 -10.35 -4.2 -10.0 -6.65 Q-9.25 -7.35 -8.45 -7.4 L-7.4 -7.4 -5.3 -7.45 8.65 -5.85 Q10.45 -5.6 12.1 -4.8 L12.35 -4.35 Q12.65 -3.25 12.3 -2.4" fill="#c8c8c8" fill-rule="evenodd" stroke="none"/>
    <path d="M-8.3 0.95 L10.3 1.45 Q7.65 5.9 2.9 7.75 1.15 8.5 -0.8 8.15 -3.05 7.9 -4.6 6.2 -6.85 3.9 -8.3 0.95" fill="#333333" fill-rule="evenodd" stroke="none"/>
  </g>
</svg>
