<?xml version="1.0" encoding="UTF-8" standalone="no"?>
<svg xmlns:ffdec="https://www.free-decompiler.com/flash" xmlns:xlink="http://www.w3.org/1999/xlink" ffdec:objectType="shape" height="79.4px" width="160.5px" xmlns="http://www.w3.org/2000/svg">
  <g transform="matrix(1.0, 0.0, 0.0, 1.0, 63.4, 45.4)">
    <path d="M70.3 -27.0 Q70.9 -28.05 71.8 -28.6 L73.25 -28.75 Q73.8 -28.4 73.8 -27.4 73.8 -26.4 73.2 -25.35 72.55 -24.3 71.65 -23.8 L70.25 -23.6 Q69.65 -23.95 69.7 -24.95 69.65 -25.95 70.3 -27.0" fill="#000000" fill-rule="evenodd" stroke="none"/>
    <path d="M-7.25 -14.15 L-6.85 -15.35 Q-4.4 -22.6 -4.7 -30.2 -5.0 -37.75 -3.75 -39.25 -2.55 -40.8 -0.25 -40.15 2.1 -39.55 5.95 -36.85 9.75 -34.15 14.55 -29.15 19.3 -24.2 23.0 -21.4 26.6 -18.7 30.45 -16.55 L30.6 -16.25 45.6 -15.7 53.0 -15.3 Q55.55 -15.5 58.9 -19.85 62.25 -24.25 65.05 -26.5 L67.0 -28.1 69.05 -29.8 74.45 -34.7 Q77.9 -37.9 82.95 -41.3 L84.95 -42.45 85.45 -42.7 85.5 -42.75 85.55 -42.75 85.7 -42.85 86.45 -43.15 87.0 -43.3 87.35 -43.4 87.6 -43.5 87.8 -43.5 88.0 -43.55 87.8 -43.35 87.7 -43.15 87.55 -43.0 87.5 -42.9 87.2 -42.55 86.75 -42.0 86.25 -41.4 82.6 -36.0 73.9 -23.65 Q70.2 -18.65 67.0 -9.75 65.7 -6.15 64.5 -1.9 60.25 12.8 49.65 13.15 L53.0 13.15 49.65 13.85 48.1 14.15 44.5 16.4 42.6 17.5 Q36.4 21.15 33.5 22.6 32.3 23.15 31.0 23.85 L30.95 23.85 31.0 23.85 26.75 26.05 Q22.85 28.05 14.95 31.25 7.4 33.85 8.75 29.75 L9.95 26.5 11.3 21.9 11.75 20.3 Q12.5 17.45 13.2 15.35 -0.2 15.5 -16.65 12.35 L-35.55 8.65 -46.0 7.0 -56.75 6.3 -58.95 6.15 -60.15 6.05 -61.65 5.9 -61.65 -4.7 -59.2 -4.7 Q-53.7 -5.05 -47.6 -6.55 -46.85 -7.6 -46.2 -9.4 -45.55 -11.2 -46.0 -14.15 L-46.05 -15.3 -46.3 -21.75 Q-46.25 -24.35 -43.9 -24.8 -41.6 -25.3 -38.5 -22.9 L-33.25 -18.85 Q-27.5 -13.3 -21.75 -12.25 L-16.35 -13.1 -7.25 -14.15 M14.5 11.35 L13.2 15.35 14.5 11.35 M70.3 -27.0 Q69.65 -25.95 69.7 -24.95 69.65 -23.95 70.25 -23.6 L71.65 -23.8 Q72.55 -24.3 73.2 -25.35 73.8 -26.4 73.8 -27.4 73.8 -28.4 73.25 -28.75 L71.8 -28.6 Q70.9 -28.05 70.3 -27.0 M75.2 -31.2 L68.15 -25.95 75.2 -31.2 M48.1 14.15 Q49.15 13.4 49.65 13.15 49.15 13.4 48.1 14.15 M-46.2 -6.95 L-46.3 -7.0 -46.4 -6.9 -46.2 -6.95" fill="#948e8e" fill-rule="evenodd" stroke="none"/>
    <path d="M-56.75 6.3 L-46.0 7.0 -35.55 8.65 -16.65 12.35 Q-0.2 15.5 13.2 15.35 12.5 17.45 11.75 20.3 L11.3 21.9 Q-0.7 20.6 -10.1 18.6 L-19.65 16.35 -20.9 16.0 -21.3 17.4 -26.45 19.95 -30.4 21.35 -33.75 22.2 Q-35.6 22.7 -35.9 20.1 L-36.15 18.5 -36.8 11.5 -38.6 10.9 Q-45.75 8.6 -52.15 7.35 L-52.4 7.3 -54.75 6.85 -56.85 6.5 -56.75 6.3 M88.0 -43.55 L91.15 -43.2 91.85 -42.45 Q92.9 -41.3 93.55 -37.3 94.2 -33.25 93.65 -28.2 93.25 -24.35 94.8 -20.75 L95.35 -19.4 95.45 -19.4 95.35 -19.2 95.3 -19.4 94.85 -12.9 89.5 -18.05 89.45 -18.35 89.4 -18.35 88.3 -18.0 87.6 -11.25 82.15 -15.25 80.35 -13.95 79.25 -13.0 82.15 -7.05 75.05 -8.85 78.4 -4.55 73.35 -4.75 75.2 -1.1 69.65 -2.4 68.7 -0.6 Q67.4 1.75 67.0 4.45 L66.95 4.8 Q66.8 6.05 67.0 7.25 67.25 8.9 68.2 10.45 71.75 16.3 77.55 19.85 L82.0 16.75 81.35 22.05 86.5 17.75 86.5 24.2 87.05 24.35 91.7 17.95 92.5 25.0 93.0 25.0 93.25 25.25 Q90.35 29.55 73.95 25.65 L67.0 24.1 Q56.5 21.95 53.0 22.8 L50.05 23.05 33.55 23.8 33.5 23.8 33.5 22.6 Q36.4 21.15 42.6 17.5 L44.5 16.4 48.1 14.15 49.65 13.85 53.0 13.15 49.65 13.15 Q60.25 12.8 64.5 -1.9 65.7 -6.15 67.0 -9.75 70.2 -18.65 73.9 -23.65 L82.6 -36.0 86.25 -41.4 86.75 -42.0 87.2 -42.55 87.5 -42.9 87.55 -43.0 87.7 -43.15 87.8 -43.35 88.0 -43.55 M92.5 25.0 L92.45 25.0 87.05 24.35 92.45 25.0 92.5 25.0 M86.5 24.2 Q83.55 23.55 81.2 22.35 L81.15 22.35 Q79.1 21.3 77.55 19.85 79.1 21.3 81.15 22.35 L81.2 22.35 Q83.55 23.55 86.5 24.2 M89.45 -18.35 L95.35 -19.4 89.45 -18.35 M82.15 -15.25 L82.6 -15.55 Q85.1 -17.05 88.3 -18.0 85.1 -17.05 82.6 -15.55 L82.15 -15.25 M69.65 -2.4 L71.65 -5.25 74.9 -8.95 79.25 -13.0 74.9 -8.95 71.65 -5.25 69.65 -2.4 M30.95 23.85 L31.0 23.85 30.95 23.85" fill="#ffffff" fill-rule="evenodd" stroke="none"/>
    <path d="M30.45 -16.55 Q26.6 -18.7 23.0 -21.4 19.3 -24.2 14.55 -29.15 9.75 -34.15 5.95 -36.85 2.1 -39.55 -0.25 -40.15 -2.55 -40.8 -3.75 -39.25 -5.0 -37.75 -4.7 -30.2 -4.4 -22.6 -6.85 -15.35 L-7.25 -14.15 M-21.75 -12.25 Q-27.5 -13.3 -33.25 -18.85 L-38.5 -22.9 Q-41.6 -25.3 -43.9 -24.8 -46.25 -24.35 -46.3 -21.75 L-46.05 -15.3 -46.0 -14.15 Q-45.55 -11.2 -46.2 -9.4 -46.85 -7.6 -47.6 -6.55 M13.2 15.35 L14.5 11.35 M48.1 14.15 L44.5 16.4 42.6 17.5 Q36.4 21.15 33.5 22.6 32.3 23.15 31.0 23.85 L26.75 26.05 Q22.85 28.05 14.95 31.25 7.4 33.85 8.75 29.75 L9.95 26.5 11.3 21.9 11.75 20.3 Q12.5 17.45 13.2 15.35 M49.65 13.15 Q49.15 13.4 48.1 14.15 M-19.65 16.35 L-21.3 17.4 -26.45 19.95 -30.4 21.35 -33.75 22.2 Q-35.6 22.7 -35.9 20.1 L-36.15 18.5 -36.8 11.5 M-46.3 -7.0 L-46.2 -6.95" fill="none" stroke="#000000" stroke-linecap="round" stroke-linejoin="round" stroke-width="3.5"/>
    <path d="M-7.25 -14.15 L-16.35 -13.1 -21.75 -12.25 M-47.6 -6.55 Q-53.7 -5.05 -59.2 -4.7 L-61.65 -4.7 M-61.65 5.9 L-60.15 6.05 -58.95 6.15 -56.85 6.5 -54.75 6.85 -52.4 7.3 -52.15 7.35 Q-45.75 8.6 -38.6 10.9 L-36.8 11.5 M30.6 -16.25 L45.6 -15.7 53.0 -15.3 Q55.55 -15.5 58.9 -19.85 62.25 -24.25 65.05 -26.5 L67.0 -28.1 69.05 -29.8 74.45 -34.7 Q77.9 -37.9 82.95 -41.3 L84.95 -42.45 85.45 -42.7 85.5 -42.75 85.55 -42.75 85.7 -42.85 86.45 -43.15 87.0 -43.3 87.35 -43.4 87.6 -43.5 87.8 -43.5 88.0 -43.55 91.15 -43.2 91.85 -42.45 Q92.9 -41.3 93.55 -37.3 94.2 -33.25 93.65 -28.2 93.25 -24.35 94.8 -20.75 L95.35 -19.4 89.45 -18.35 89.4 -18.35 88.3 -18.0 87.6 -11.25 82.15 -15.25 80.35 -13.95 79.25 -13.0 82.15 -7.05 75.05 -8.85 78.4 -4.55 73.35 -4.75 75.2 -1.1 69.65 -2.4 68.7 -0.6 Q67.4 1.75 67.0 4.45 L66.95 4.8 Q66.8 6.05 67.0 7.25 67.25 8.9 68.2 10.45 71.75 16.3 77.55 19.85 L82.0 16.75 81.35 22.05 86.5 17.75 86.5 24.2 87.05 24.35 91.7 17.95 92.5 25.0 93.0 25.0 M95.35 -19.2 L95.3 -19.4 94.85 -12.9 89.5 -18.05 89.45 -18.35 M93.25 25.25 L93.35 25.05 93.35 24.7 M68.15 -25.95 L75.2 -31.2 M33.5 23.8 L33.55 23.8 50.05 23.05 53.0 22.8 Q56.5 21.95 67.0 24.1 L73.95 25.65 Q90.35 29.55 93.25 25.25 M79.25 -13.0 L74.9 -8.95 71.65 -5.25 69.65 -2.4 M88.3 -18.0 Q85.1 -17.05 82.6 -15.55 L82.15 -15.25 M77.55 19.85 Q79.1 21.3 81.15 22.35 L81.2 22.35 Q83.55 23.55 86.5 24.2 M87.05 24.35 L92.45 25.0 92.5 25.0 M31.0 23.85 L33.5 23.8 M30.95 23.85 L31.0 23.85 M11.3 21.9 Q-0.7 20.6 -10.1 18.6 L-19.65 16.35" fill="none" stroke="#000000" stroke-linecap="round" stroke-linejoin="round" stroke-width="3.5"/>
    <path d="M73.8 -27.4 Q73.8 -26.4 73.2 -25.35 72.55 -24.3 71.65 -23.8 L70.25 -23.6 Q69.65 -23.95 69.7 -24.95 69.65 -25.95 70.3 -27.0 70.9 -28.05 71.8 -28.6 L73.25 -28.75 Q73.8 -28.4 73.8 -27.4" fill="#000000" fill-rule="evenodd" stroke="none"/>
    <path d="M30.45 -16.55 L30.6 -16.25 45.6 -15.7 53.0 -15.3 Q55.55 -15.5 58.9 -19.85 L60.0 -21.3 Q62.7 -24.65 65.05 -26.5 L69.05 -29.8 74.45 -34.7 Q77.9 -37.9 82.95 -41.3 L84.95 -42.45 85.45 -42.7 85.5 -42.75 85.55 -42.75 85.7 -42.85 86.45 -43.15 87.0 -43.3 87.35 -43.4 87.6 -43.5 87.8 -43.5 88.0 -43.55 87.8 -43.35 87.7 -43.15 87.55 -43.0 87.5 -42.9 87.2 -42.55 86.75 -42.0 86.25 -41.4 82.6 -36.0 73.9 -23.65 Q68.75 -16.65 64.5 -1.9 62.75 4.05 60.0 7.65 55.95 12.95 49.65 13.15 L53.0 13.15 49.65 13.85 48.1 14.15 44.5 16.4 42.6 17.5 Q36.4 21.15 33.5 22.6 32.3 23.15 31.0 23.85 L30.95 23.85 31.0 23.85 26.75 26.05 Q22.85 28.05 14.95 31.25 7.4 33.85 8.75 29.75 L9.95 26.5 11.3 21.9 11.75 20.3 Q12.5 17.45 13.2 15.35 -0.2 15.5 -16.65 12.35 L-35.55 8.65 -46.0 7.0 -56.75 6.3 -58.95 6.15 -60.15 6.05 -61.65 5.9 -61.65 -4.7 -59.2 -4.7 Q-53.7 -5.05 -47.6 -6.55 -46.85 -7.6 -46.2 -9.4 -45.55 -11.2 -46.0 -14.15 L-46.05 -15.3 -46.3 -21.75 Q-46.25 -24.35 -43.9 -24.8 -41.6 -25.3 -38.5 -22.9 L-33.25 -18.85 Q-27.5 -13.3 -21.75 -12.25 L-16.35 -13.1 -7.25 -14.15 -6.85 -15.35 Q-4.4 -22.6 -4.7 -30.2 -5.0 -37.75 -3.75 -39.25 -2.55 -40.8 -0.25 -40.15 2.1 -39.55 5.95 -36.85 9.75 -34.15 14.55 -29.15 19.3 -24.2 23.0 -21.4 26.6 -18.7 30.45 -16.55 M73.8 -27.4 Q73.8 -28.4 73.25 -28.75 L71.8 -28.6 Q70.9 -28.05 70.3 -27.0 69.65 -25.95 69.7 -24.95 69.65 -23.95 70.25 -23.6 L71.65 -23.8 Q72.55 -24.3 73.2 -25.35 73.8 -26.4 73.8 -27.4 M75.2 -31.2 L68.15 -25.95 75.2 -31.2 M-46.2 -6.95 L-46.3 -7.0 -46.4 -6.9 -46.2 -6.95 M14.5 11.35 L13.2 15.35 14.5 11.35 M48.1 14.15 Q49.15 13.4 49.65 13.15 49.15 13.4 48.1 14.15" fill="#948e8e" fill-rule="evenodd" stroke="none"/>
    <path d="M88.0 -43.55 L91.15 -43.2 91.85 -42.45 Q92.9 -41.3 93.55 -37.3 94.2 -33.25 93.65 -28.2 93.25 -24.35 94.8 -20.75 L95.35 -19.4 95.45 -19.4 95.35 -19.2 95.3 -19.4 94.85 -12.9 89.5 -18.05 89.45 -18.35 89.4 -18.35 88.3 -18.0 87.6 -11.25 82.15 -15.25 80.35 -13.95 79.25 -13.0 82.15 -7.05 75.05 -8.85 78.4 -4.55 73.35 -4.75 75.2 -1.1 69.65 -2.4 68.7 -0.6 Q67.3 1.9 66.95 4.8 66.6 7.75 68.2 10.45 71.75 16.3 77.55 19.85 L82.0 16.75 81.35 22.05 86.5 17.75 86.5 24.2 87.05 24.35 91.7 17.95 92.5 25.0 93.0 25.0 93.25 25.25 Q90.35 29.55 73.95 25.65 65.35 23.55 60.0 22.9 55.15 22.3 53.0 22.8 L50.05 23.05 33.55 23.8 33.5 23.8 33.5 22.6 Q36.4 21.15 42.6 17.5 L44.5 16.4 48.1 14.15 49.65 13.85 53.0 13.15 49.65 13.15 Q55.95 12.95 60.0 7.65 62.75 4.05 64.5 -1.9 68.75 -16.65 73.9 -23.65 L82.6 -36.0 86.25 -41.4 86.75 -42.0 87.2 -42.55 87.5 -42.9 87.55 -43.0 87.7 -43.15 87.8 -43.35 88.0 -43.55 M69.65 -2.4 L71.65 -5.25 74.9 -8.95 79.25 -13.0 74.9 -8.95 71.65 -5.25 69.65 -2.4 M89.45 -18.35 L95.35 -19.4 89.45 -18.35 M82.15 -15.25 L82.6 -15.55 Q85.1 -17.05 88.3 -18.0 85.1 -17.05 82.6 -15.55 L82.15 -15.25 M11.3 21.9 Q-0.7 20.6 -10.1 18.6 L-19.65 16.35 -20.9 16.0 -21.3 17.4 -26.45 19.95 -30.4 21.35 -33.75 22.2 Q-35.6 22.7 -35.9 20.1 L-36.15 18.5 -36.8 11.5 -38.6 10.9 Q-45.75 8.6 -52.15 7.35 L-52.4 7.3 -54.75 6.85 -56.85 6.5 -56.75 6.3 -46.0 7.0 -35.55 8.65 -16.65 12.35 Q-0.2 15.5 13.2 15.35 12.5 17.45 11.75 20.3 L11.3 21.9 M92.5 25.0 L92.45 25.0 87.05 24.35 92.45 25.0 92.5 25.0 M86.5 24.2 Q83.55 23.55 81.2 22.35 L81.15 22.35 Q79.1 21.3 77.55 19.85 79.1 21.3 81.15 22.35 L81.2 22.35 Q83.55 23.55 86.5 24.2 M31.0 23.85 L30.95 23.85 31.0 23.85" fill="#ffffff" fill-rule="evenodd" stroke="none"/>
    <path d="M68.7 -0.6 Q67.3 1.9 66.95 4.8 66.6 7.75 68.2 10.45 71.75 16.3 77.55 19.85 79.1 21.3 81.15 22.35 L81.2 22.35 Q83.55 23.55 86.5 24.2 L87.05 24.35 92.45 25.0 92.5 25.0 93.0 25.0" fill="none" stroke="#333333" stroke-linecap="round" stroke-linejoin="round" stroke-width="0.05"/>
    <path d="M30.6 -16.25 L45.6 -15.7 53.0 -15.3 Q55.55 -15.5 58.9 -19.85 L60.0 -21.3 Q62.7 -24.65 65.05 -26.5 L69.05 -29.8 74.45 -34.7 Q77.9 -37.9 82.95 -41.3 L84.95 -42.45 85.45 -42.7 85.5 -42.75 85.55 -42.75 85.7 -42.85 86.45 -43.15 87.0 -43.3 87.35 -43.4 87.6 -43.5 87.8 -43.5 88.0 -43.55 91.15 -43.2 91.85 -42.45 Q92.9 -41.3 93.55 -37.3 94.2 -33.25 93.65 -28.2 93.25 -24.35 94.8 -20.75 L95.35 -19.4 89.45 -18.35 89.4 -18.35 88.3 -18.0 Q85.1 -17.05 82.6 -15.55 L82.15 -15.25 80.35 -13.95 79.25 -13.0 74.9 -8.95 71.65 -5.25 69.65 -2.4 68.7 -0.6 M95.35 -19.2 L95.3 -19.4 M93.25 25.25 L93.35 25.05 93.35 24.7 M68.15 -25.95 L75.2 -31.2 M33.5 23.8 L33.55 23.8 50.05 23.05 53.0 22.8 Q55.15 22.3 60.0 22.9 65.35 23.55 73.95 25.65 90.35 29.55 93.25 25.25 M-61.65 -4.7 L-59.2 -4.7 Q-53.7 -5.05 -47.6 -6.55 M-21.75 -12.25 L-16.35 -13.1 -7.25 -14.15 M11.3 21.9 Q-0.7 20.6 -10.1 18.6 L-19.65 16.35 M-36.8 11.5 L-38.6 10.9 Q-45.75 8.6 -52.15 7.35 L-52.4 7.3 -54.75 6.85 -56.85 6.5 -58.95 6.15 -60.15 6.05 -61.65 5.9 M30.95 23.85 L31.0 23.85 33.5 23.8" fill="none" stroke="#333333" stroke-linecap="round" stroke-linejoin="round" stroke-width="0.05"/>
    <path d="M-7.25 -14.15 L-6.85 -15.35 Q-4.4 -22.6 -4.7 -30.2 -5.0 -37.75 -3.75 -39.25 -2.55 -40.8 -0.25 -40.15 2.1 -39.55 5.95 -36.85 9.75 -34.15 14.55 -29.15 19.3 -24.2 23.0 -21.4 26.6 -18.7 30.45 -16.55 M48.1 14.15 L44.5 16.4 42.6 17.5 Q36.4 21.15 33.5 22.6 32.3 23.15 31.0 23.85 L26.75 26.05 Q22.85 28.05 14.95 31.25 7.4 33.85 8.75 29.75 L9.95 26.5 11.3 21.9 11.75 20.3 Q12.5 17.45 13.2 15.35 L14.5 11.35 M-46.3 -7.0 L-46.2 -6.95 M-47.6 -6.55 Q-46.85 -7.6 -46.2 -9.4 -45.55 -11.2 -46.0 -14.15 L-46.05 -15.3 -46.3 -21.75 Q-46.25 -24.35 -43.9 -24.8 -41.6 -25.3 -38.5 -22.9 L-33.25 -18.85 Q-27.5 -13.3 -21.75 -12.25 M-19.65 16.35 L-21.3 17.4 -26.45 19.95 -30.4 21.35 -33.75 22.2 Q-35.6 22.7 -35.9 20.1 L-36.15 18.5 -36.8 11.5 M49.65 13.15 Q49.15 13.4 48.1 14.15" fill="none" stroke="#000000" stroke-linecap="round" stroke-linejoin="round" stroke-width="0.05"/>
  </g>
</svg>
