<?xml version="1.0" encoding="UTF-8" standalone="no"?>
<svg xmlns:ffdec="https://www.free-decompiler.com/flash" xmlns:xlink="http://www.w3.org/1999/xlink" ffdec:objectType="shape" height="40.75px" width="30.45px" xmlns="http://www.w3.org/2000/svg">
  <g transform="matrix(1.0, 0.0, 0.0, 1.0, -47.45, 38.6)">
    <path d="M72.4 -38.6 Q73.7 -38.75 74.5 -37.5 L75.4 -36.05 Q77.7 -32.4 77.9 -28.15 78.0 -24.55 75.65 -21.7 L75.2 -21.25 Q74.15 -20.1 72.7 -19.6 70.2 -18.85 67.7 -19.1 L66.6 -19.3 64.6 -19.6 59.9 -20.55 55.15 -13.65 55.2 -13.65 50.7 -7.1 Q49.8 -5.3 50.1 -3.3 50.25 -2.5 50.85 -1.85 L51.2 -1.5 52.75 -0.4 53.7 0.3 Q54.1 0.7 54.1 1.4 L53.7 1.95 52.9 2.15 51.45 1.75 Q50.15 1.05 49.15 0.15 48.2 -0.7 47.85 -1.9 46.7 -5.55 48.7 -8.9 L49.35 -10.0 49.9 -10.8 49.85 -10.8 57.55 -21.7 Q57.55 -22.45 58.0 -23.1 60.15 -26.1 62.6 -28.8 L66.6 -33.25 Q68.75 -35.8 71.35 -37.9 L72.4 -38.6 M73.7 -35.2 Q73.35 -35.8 72.55 -36.05 L72.2 -36.1 Q71.0 -35.5 70.1 -34.5 L63.15 -26.8 62.3 -25.5 61.85 -24.85 Q61.55 -24.35 61.65 -23.6 L62.95 -22.35 66.95 -21.4 Q69.3 -21.0 71.65 -21.35 73.35 -21.6 74.45 -22.85 75.5 -23.85 75.8 -25.2 76.7 -28.9 75.2 -32.35 L73.7 -35.2" fill="#000000" fill-rule="evenodd" stroke="none"/>
    <path d="M62.95 -22.35 L61.65 -23.6 Q61.55 -24.35 61.85 -24.85 L62.3 -25.5 63.15 -26.8 70.1 -34.5 Q71.0 -35.5 72.2 -36.1 L72.55 -36.05 Q73.35 -35.8 73.7 -35.2 70.9 -33.15 68.7 -30.4 L65.6 -26.65 Q64.1 -24.65 62.95 -22.35" fill="#c8c8c8" fill-rule="evenodd" stroke="none"/>
    <path d="M62.95 -22.35 Q64.1 -24.65 65.6 -26.65 L68.7 -30.4 Q70.9 -33.15 73.7 -35.2 L75.2 -32.35 66.95 -21.4 62.95 -22.35" fill="#484848" fill-rule="evenodd" stroke="none"/>
    <path d="M75.2 -32.35 Q76.7 -28.9 75.8 -25.2 75.5 -23.85 74.45 -22.85 73.35 -21.6 71.65 -21.35 69.3 -21.0 66.95 -21.4 L75.2 -32.35" fill="#333333" fill-rule="evenodd" stroke="none"/>
  </g>
</svg>
