<?xml version="1.0" encoding="UTF-8" standalone="no"?>
<svg xmlns:ffdec="https://www.free-decompiler.com/flash" xmlns:xlink="http://www.w3.org/1999/xlink" ffdec:objectType="shape" height="76.1px" width="176.8px" xmlns="http://www.w3.org/2000/svg">
  <g transform="matrix(1.0, 0.0, 0.0, 1.0, 63.4, 42.1)">
    <path d="M-61.65 -4.7 L-59.2 -4.7 Q-53.7 -5.05 -47.6 -6.55 -46.85 -7.6 -46.2 -9.4 -45.55 -11.2 -46.0 -14.15 L-46.05 -15.3 -46.3 -21.75 Q-46.25 -24.35 -43.9 -24.8 -41.6 -25.3 -38.5 -22.9 L-33.25 -18.85 Q-27.5 -13.3 -21.75 -12.25 L-16.35 -13.1 -7.25 -14.15 -6.85 -15.35 Q-4.4 -22.6 -4.7 -30.2 -5.0 -37.75 -3.75 -39.25 -2.55 -40.8 -0.25 -40.15 2.1 -39.55 5.95 -36.85 9.75 -34.15 14.55 -29.15 19.3 -24.2 23.0 -21.4 26.6 -18.7 30.45 -16.55 L30.6 -16.25 45.6 -15.7 59.1 -13.7 Q68.7 -11.85 83.85 -7.3 L101.55 -2.1 107.9 -0.25 Q110.45 0.5 111.25 1.95 L111.65 3.25 111.65 3.45 111.6 3.95 111.25 4.65 Q109.95 6.65 104.5 8.9 101.6 10.05 99.0 11.15 L94.45 13.0 93.15 12.4 92.7 12.25 92.6 12.2 92.05 13.95 Q81.8 18.2 72.6 20.1 64.5 21.7 53.3 22.8 L50.05 23.05 33.55 23.8 33.5 23.8 33.5 22.6 Q32.3 23.15 31.0 23.85 L26.75 26.05 Q22.85 28.05 14.95 31.25 7.4 33.85 8.75 29.75 L9.95 26.5 11.3 21.9 Q-0.7 20.6 -10.1 18.6 L-19.65 16.35 -20.9 16.0 -21.3 17.4 -26.45 19.95 -30.4 21.35 -33.75 22.2 Q-35.6 22.7 -35.9 20.1 L-36.15 18.5 -36.8 11.5 -38.6 10.9 Q-45.75 8.6 -52.15 7.35 L-52.4 7.3 -54.75 6.85 -56.85 6.5 -56.75 6.3 -58.95 6.15 -60.15 6.05 -61.65 5.9 -61.65 -4.7 M49.4 13.15 L48.1 14.15 44.5 16.4 42.6 17.5 Q36.4 21.15 33.5 22.6 36.4 21.15 42.6 17.5 L44.5 16.4 48.1 14.15 49.4 13.15 M14.5 11.35 L13.2 15.35 Q12.5 17.45 11.75 20.3 L11.3 21.9 11.75 20.3 Q12.5 17.45 13.2 15.35 L14.5 11.35 M-46.2 -6.95 L-46.3 -7.0 -46.4 -6.9 -46.2 -6.95" fill="#000000" fill-rule="evenodd" stroke="none"/>
    <path d="M-61.65 -4.7 L-59.2 -4.7 Q-53.7 -5.05 -47.6 -6.55 -46.85 -7.6 -46.2 -9.4 -45.55 -11.2 -46.0 -14.15 L-46.05 -15.3 -46.3 -21.75 Q-46.25 -24.35 -43.9 -24.8 -41.6 -25.3 -38.5 -22.9 L-33.25 -18.85 Q-27.5 -13.3 -21.75 -12.25 L-16.35 -13.1 -7.25 -14.15 -6.85 -15.35 Q-4.4 -22.6 -4.7 -30.2 -5.0 -37.75 -3.75 -39.25 -2.55 -40.8 -0.25 -40.15 2.1 -39.55 5.95 -36.85 9.75 -34.15 14.55 -29.15 19.3 -24.2 23.0 -21.4 26.6 -18.7 30.45 -16.55 M30.6 -16.25 L45.6 -15.7 59.1 -13.7 Q68.7 -11.85 83.85 -7.3 L101.55 -2.1 107.9 -0.25 Q110.45 0.5 111.25 1.95 L111.65 3.25 111.65 3.45 111.6 3.95 111.25 4.65 Q109.95 6.65 104.5 8.9 101.6 10.05 99.0 11.15 L94.45 13.0 92.65 13.7 92.05 13.95 Q81.8 18.2 72.6 20.1 64.5 21.7 53.3 22.8 L50.05 23.05 33.55 23.8 33.5 23.8 31.0 23.85 26.75 26.05 Q22.85 28.05 14.95 31.25 7.4 33.85 8.75 29.75 L9.95 26.5 11.3 21.9 Q-0.7 20.6 -10.1 18.6 L-19.65 16.35 -21.3 17.4 -26.45 19.95 -30.4 21.35 -33.75 22.2 Q-35.6 22.7 -35.9 20.1 L-36.15 18.5 -36.8 11.5 -38.6 10.9 Q-45.75 8.6 -52.15 7.35 L-52.4 7.3 -54.75 6.85 -56.85 6.5 -58.95 6.15 -60.15 6.05 -61.65 5.9 M33.5 22.6 Q36.4 21.15 42.6 17.5 L44.5 16.4 48.1 14.15 49.4 13.15 M33.5 22.6 Q32.3 23.15 31.0 23.85 M11.3 21.9 L11.75 20.3 Q12.5 17.45 13.2 15.35 L14.5 11.35 M-46.3 -7.0 L-46.2 -6.95" fill="none" stroke="#000000" stroke-linecap="round" stroke-linejoin="round" stroke-width="3.5"/>
    <path d="M30.45 -16.55 L30.6 -16.25 45.6 -15.7 59.1 -13.7 60.0 -13.5 61.0 -13.3 66.0 -12.2 Q73.65 -10.35 83.85 -7.3 L101.55 -2.1 107.9 -0.25 Q110.45 0.5 111.25 1.95 L111.65 3.25 111.65 3.45 111.6 3.95 Q110.4 3.25 108.95 3.1 L104.1 2.95 Q95.25 2.95 87.55 4.65 79.8 6.35 66.75 9.8 L66.0 10.0 61.0 11.25 60.0 11.5 48.1 14.15 44.5 16.4 42.6 17.5 Q36.4 21.15 33.5 22.6 32.3 23.15 31.0 23.85 L26.75 26.05 Q22.85 28.05 14.95 31.25 7.4 33.85 8.75 29.75 L9.95 26.5 11.3 21.9 11.75 20.3 Q12.5 17.45 13.2 15.35 -0.2 15.5 -16.65 12.35 L-35.55 8.65 -46.0 7.0 -56.75 6.3 -58.95 6.15 -60.15 6.05 -61.65 5.9 -61.65 -4.7 -59.2 -4.7 Q-53.7 -5.05 -47.6 -6.55 -46.85 -7.6 -46.2 -9.4 -45.55 -11.2 -46.0 -14.15 L-46.05 -15.3 -46.3 -21.75 Q-46.25 -24.35 -43.9 -24.8 -41.6 -25.3 -38.5 -22.9 L-33.25 -18.85 Q-27.5 -13.3 -21.75 -12.25 L-16.35 -13.1 -7.25 -14.15 -6.85 -15.35 Q-4.4 -22.6 -4.7 -30.2 -5.0 -37.75 -3.75 -39.25 -2.55 -40.8 -0.25 -40.15 2.1 -39.55 5.95 -36.85 9.75 -34.15 14.55 -29.15 19.3 -24.2 23.0 -21.4 26.6 -18.7 30.45 -16.55 M89.3 -1.5 L86.2 -2.8 83.55 -3.9 86.2 -2.8 Q85.6 -2.65 85.2 -2.2 84.4 -1.4 84.4 -0.35 84.4 0.7 85.2 1.45 85.95 2.2 87.0 2.25 88.05 2.2 88.85 1.45 89.55 0.7 89.6 -0.35 L89.3 -1.5 91.9 -0.45 89.3 -1.5 M-46.3 -7.0 L-46.4 -6.9 -46.2 -6.95 -46.3 -7.0 M14.5 11.35 L13.2 15.35 14.5 11.35 M49.4 13.15 L48.1 14.15 49.4 13.15 M30.95 23.85 L31.0 23.85 30.95 23.85" fill="#948e8e" fill-rule="evenodd" stroke="none"/>
    <path d="M111.6 3.95 L111.25 4.65 Q109.95 6.65 104.5 8.9 101.6 10.05 99.0 11.15 89.6 7.95 79.6 9.3 L76.55 9.8 76.6 10.1 78.25 10.0 Q85.75 9.55 92.6 12.2 L92.05 13.95 Q81.8 18.2 72.6 20.1 L66.0 21.25 61.0 21.95 60.0 22.05 53.3 22.8 50.05 23.05 33.55 23.8 33.5 23.8 33.5 22.6 Q36.4 21.15 42.6 17.5 L44.5 16.4 48.1 14.15 60.0 11.5 61.0 11.25 66.0 10.0 66.75 9.8 Q79.8 6.35 87.55 4.65 95.25 2.95 104.1 2.95 L108.95 3.1 Q110.4 3.25 111.6 3.95 M11.3 21.9 Q-0.7 20.6 -10.1 18.6 L-19.65 16.35 -20.9 16.0 -21.3 17.4 -26.45 19.95 -30.4 21.35 -33.75 22.2 Q-35.6 22.7 -35.9 20.1 L-36.15 18.5 -36.8 11.5 -38.6 10.9 Q-45.75 8.6 -52.15 7.35 L-52.4 7.3 -54.75 6.85 -56.85 6.5 -56.75 6.3 -46.0 7.0 -35.55 8.65 -16.65 12.35 Q-0.2 15.5 13.2 15.35 12.5 17.45 11.75 20.3 L11.3 21.9 M31.0 23.85 L30.95 23.85 31.0 23.85" fill="#ffffff" fill-rule="evenodd" stroke="none"/>
    <path d="M99.0 11.15 L94.45 13.0 93.15 12.4 92.7 12.25 92.6 12.2 Q85.75 9.55 78.25 10.0 L76.6 10.1 76.55 9.8 79.6 9.3 Q89.6 7.95 99.0 11.15 M86.2 -2.8 L89.3 -1.5 89.6 -0.35 Q89.55 0.7 88.85 1.45 88.05 2.2 87.0 2.25 85.95 2.2 85.2 1.45 84.4 0.7 84.4 -0.35 84.4 -1.4 85.2 -2.2 85.6 -2.65 86.2 -2.8" fill="#000000" fill-rule="evenodd" stroke="none"/>
    <path d="M66.0 -12.2 Q73.65 -10.35 83.85 -7.3 L101.55 -2.1 107.9 -0.25 Q110.45 0.5 111.25 1.95 L111.65 3.25 111.65 3.45 111.6 3.95 111.25 4.65 Q109.95 6.65 104.5 8.9 101.6 10.05 99.0 11.15 L94.45 13.0 92.65 13.7 92.05 13.95 Q81.8 18.2 72.6 20.1 L66.0 21.25" fill="none" stroke="#000000" stroke-linecap="round" stroke-linejoin="round" stroke-width="0.05"/>
    <path d="M30.6 -16.25 L45.6 -15.7 59.1 -13.7 60.0 -13.5 61.0 -13.3 66.0 -12.2 M66.0 21.25 L61.0 21.95 60.0 22.05 53.3 22.8 50.05 23.05 33.55 23.8 33.5 23.8 31.0 23.85 26.75 26.05 Q22.85 28.05 14.95 31.25 7.4 33.85 8.75 29.75 L9.95 26.5 11.3 21.9 Q-0.7 20.6 -10.1 18.6 L-19.65 16.35 -21.3 17.4 -26.45 19.95 -30.4 21.35 -33.75 22.2 Q-35.6 22.7 -35.9 20.1 L-36.15 18.5 -36.8 11.5 -38.6 10.9 Q-45.75 8.6 -52.15 7.35 L-52.4 7.3 -54.75 6.85 -56.85 6.5 -58.95 6.15 -60.15 6.05 -61.65 5.9 M-61.65 -4.7 L-59.2 -4.7 Q-53.7 -5.05 -47.6 -6.55 -46.85 -7.6 -46.2 -9.4 -45.55 -11.2 -46.0 -14.15 L-46.05 -15.3 -46.3 -21.75 Q-46.25 -24.35 -43.9 -24.8 -41.6 -25.3 -38.5 -22.9 L-33.25 -18.85 Q-27.5 -13.3 -21.75 -12.25 L-16.35 -13.1 -7.25 -14.15 -6.85 -15.35 Q-4.4 -22.6 -4.7 -30.2 -5.0 -37.75 -3.75 -39.25 -2.55 -40.8 -0.25 -40.15 2.1 -39.55 5.95 -36.85 9.75 -34.15 14.55 -29.15 19.3 -24.2 23.0 -21.4 26.6 -18.7 30.45 -16.55 M86.2 -2.8 L89.3 -1.5 91.9 -0.45 M86.2 -2.8 L83.55 -3.9 M-46.3 -7.0 L-46.2 -6.95 M13.2 15.35 L14.5 11.35 M48.1 14.15 L44.5 16.4 42.6 17.5 Q36.4 21.15 33.5 22.6 32.3 23.15 31.0 23.85 L30.95 23.85 M48.1 14.15 L49.4 13.15 M11.3 21.9 L11.75 20.3 Q12.5 17.45 13.2 15.35" fill="none" stroke="#000000" stroke-linecap="round" stroke-linejoin="round" stroke-width="0.05"/>
  </g>
</svg>
