<?xml version="1.0" encoding="UTF-8" standalone="no"?>
<svg xmlns:ffdec="https://www.free-decompiler.com/flash" xmlns:xlink="http://www.w3.org/1999/xlink" ffdec:objectType="shape" height="332.85px" width="809.65px" xmlns="http://www.w3.org/2000/svg">
  <g transform="matrix(1.0, 0.0, 0.0, 1.0, 403.6, 165.4)">
    <path d="M-208.8 31.35 L-208.75 31.95 -208.8 31.95 -208.8 31.35" fill="#e1e1e1" fill-rule="evenodd" stroke="none"/>
    <path d="M-71.95 -47.8 L36.2 -67.65 73.2 -29.5 43.2 -30.45 12.2 -62.65 43.2 -30.45 Q4.95 -31.05 -31.85 -29.65 L-31.85 -29.6 Q-55.3 -32.5 -71.95 -47.8 M-84.75 26.9 L-84.85 26.35 -84.65 26.9 -84.75 26.9 M-23.85 20.95 Q-26.3 21.25 -30.55 22.4 L10.65 9.1 39.85 1.75 79.05 -3.5 71.05 6.4 Q70.4 7.2 70.55 8.2 25.75 13.35 -18.85 20.35 L-23.85 20.95 M87.9 6.3 L97.45 -5.45 Q132.5 -9.0 169.3 -10.6 L162.85 -2.15 Q162.25 -1.4 162.35 -0.5 125.05 2.25 87.9 6.3" fill="#fbfbfb" fill-rule="evenodd" stroke="none"/>
    <path d="M39.85 1.75 L83.8 -9.35 79.05 -3.5 39.85 1.75 M97.45 -5.45 L104.35 -13.95 114.05 -15.75 Q145.35 -14.05 169.4 -10.75 L169.3 -10.6 Q132.5 -9.0 97.45 -5.45 M17.75 -6.4 L27.2 -17.65 Q44.75 -17.75 60.95 -17.5 L17.75 -6.4" fill="#333333" fill-rule="evenodd" stroke="none"/>
    <path d="M-123.55 -78.1 L-162.3 -137.95 Q-180.55 -148.95 -217.1 -148.9 L-217.1 -159.9 -177.1 -160.05 -153.55 -160.15 6.9 -160.9 6.9 -149.9 Q-80.6 -150.4 -135.3 -135.95 L-96.2 -78.1 -83.8 -61.65 Q-78.35 -53.7 -71.95 -47.8 L-72.8 -47.65 -71.95 -47.8 Q-55.3 -32.5 -31.85 -29.6 L-31.85 -29.65 Q4.95 -31.05 43.2 -30.45 L73.2 -29.5 107.35 -27.65 115.8 -29.45 115.9 -29.45 155.7 -36.0 155.65 -36.0 Q175.85 -39.45 195.85 -41.95 219.35 -44.95 242.9 -46.85 L258.9 -48.15 259.1 -48.15 395.1 -50.15 395.6 -50.1 397.1 -49.8 397.45 -49.7 Q399.6 -49.0 400.65 -47.05 L400.7 -46.95 401.4 -44.95 Q401.75 -43.15 401.25 -41.45 L401.25 -41.4 400.75 -40.2 400.6 -40.0 Q398.7 -37.3 395.35 -37.15 L395.3 -37.15 362.9 -36.15 338.85 -6.6 Q334.4 -5.9 322.8 -6.6 322.8 -7.5 323.35 -8.15 L346.35 -36.4 284.85 -35.5 260.55 -5.6 244.1 -5.05 Q244.05 -6.0 244.7 -6.7 L267.65 -34.85 200.05 -29.35 192.1 -18.95 178.8 -1.65 192.1 -18.95 208.15 -16.65 Q214.9 -10.7 215.6 -3.8 L178.8 -1.65 162.35 -0.5 Q162.25 -1.4 162.85 -2.15 L169.3 -10.6 169.4 -10.75 177.25 -20.9 169.4 -10.75 Q145.35 -14.05 114.05 -15.75 L104.35 -13.95 97.45 -5.45 87.9 6.3 70.55 8.25 70.55 8.2 Q70.4 7.2 71.05 6.4 L79.05 -3.5 83.8 -9.35 39.85 1.75 10.65 9.1 -30.55 22.4 Q-26.3 21.25 -23.85 20.95 -40.95 25.35 -76.4 26.2 L-84.75 26.9 -84.65 26.9 14.25 -5.45 14.4 -5.5 17.75 -6.4 14.4 -5.5 14.25 -5.45 -84.65 26.9 -84.85 26.35 -66.6 7.1 -123.55 -78.1 M-258.8 31.4 L-283.8 14.35 -283.8 -3.65 -299.8 -3.65 -299.8 -13.65 -241.8 -13.65 -241.8 -3.65 -258.8 -3.65 Q-261.45 10.7 -240.8 18.35 L-208.8 31.35 -208.8 31.95 Q-233.65 32.0 -258.8 31.4 M156.95 -23.3 L147.3 -21.85 147.35 -21.9 114.05 -15.75 147.35 -21.9 147.3 -21.85 156.95 -23.3 177.25 -20.9 181.85 -26.95 156.95 -23.3 M60.95 -17.5 Q44.75 -17.75 27.2 -17.65 L17.75 -6.4 60.95 -17.5 69.8 -19.75 69.9 -19.8 107.35 -27.65 69.9 -19.8 69.8 -19.75 60.95 -17.5 M-66.6 7.1 L-31.85 -29.6 -66.6 7.1 M-283.8 -3.65 L-258.8 -3.65 -283.8 -3.65 M-162.3 -137.95 L-177.1 -160.05 -162.3 -137.95 M-135.3 -135.95 L-136.1 -135.9 -135.3 -135.95 -153.55 -160.15 -135.3 -135.95" fill="#ffffff" fill-rule="evenodd" stroke="none"/>
    <path d="M-399.1 80.4 L-399.1 46.6 -386.75 36.45 -347.65 36.45 -325.15 50.9 -325.15 80.4 -399.1 80.4" fill="#999999" fill-rule="evenodd" stroke="none"/>
    <path d="M-349.25 132.9 L-349.25 140.95 -364.8 140.95 -364.5 162.95 -381.95 162.95 -381.95 121.15 -399.1 89.5 -399.1 80.4 -325.15 80.4 -325.15 86.8 -349.25 104.5 -349.25 105.6 -349.25 132.9" fill="#777777" fill-rule="evenodd" stroke="none"/>
    <path d="M-329.1 132.9 L-349.25 132.9 -349.25 105.6 -328.05 105.6 Q-331.2 111.85 -333.8 118.35 L-329.1 132.9" fill="#595959" fill-rule="evenodd" stroke="none"/>
    <path d="M338.85 -6.6 Q367.45 -6.5 396.15 -5.65 L360.15 7.35 299.15 75.35 285.15 76.35 Q165.0 91.25 61.15 118.35 -8.1 134.65 -76.85 134.35 L-328.65 134.35 -329.1 132.9 -333.8 118.35 Q-331.2 111.85 -328.05 105.6 -306.6 62.75 -259.8 31.4 L-258.8 31.4 Q-233.65 32.0 -208.8 31.95 L-208.75 31.95 Q-145.9 31.7 -84.8 26.9 L-84.75 26.9 -76.4 26.2 Q-40.95 25.35 -23.85 20.95 L-18.85 20.35 Q25.75 13.35 70.55 8.2 L70.55 8.25 87.9 6.3 Q125.05 2.25 162.35 -0.5 L178.8 -1.65 215.6 -3.8 244.1 -5.05 260.55 -5.6 Q291.6 -6.55 322.8 -6.6 334.4 -5.9 338.85 -6.6" fill="url(#gradient0)" fill-rule="evenodd" stroke="none"/>
    <path d="M285.15 76.35 L237.15 117.35 Q200.5 147.9 140.15 162.95 L-319.45 162.95 -328.65 134.35 -76.85 134.35 Q-8.1 134.65 61.15 118.35 165.0 91.25 285.15 76.35" fill="url(#gradient1)" fill-rule="evenodd" stroke="none"/>
    <path d="M-123.55 -78.1 L-162.3 -137.95 Q-180.55 -148.95 -217.1 -148.9 L-217.1 -159.9 -177.1 -160.05 -153.55 -160.15 6.9 -160.9 6.9 -149.9 Q-80.6 -150.4 -135.3 -135.95 L-96.2 -78.1 -83.8 -61.65 Q-78.35 -53.7 -71.95 -47.8 L36.2 -67.65 73.2 -29.5 107.35 -27.65 M338.85 -6.6 Q367.45 -6.5 396.15 -5.65 L360.15 7.35 299.15 75.35 285.15 76.35 237.15 117.35 Q200.5 147.9 140.15 162.95 L-319.45 162.95 -328.65 134.35 -329.1 132.9 -349.25 132.9 -349.25 140.95 -364.8 140.95 -364.5 162.95 M-381.95 162.95 L-381.95 121.15 -399.1 89.5 -399.1 80.4 -399.1 46.6 -386.75 36.45 -347.65 36.45 -325.15 50.9 -325.15 80.4 -325.15 86.8 -349.25 104.5 -349.25 105.6 -328.05 105.6 Q-306.6 62.75 -259.8 31.4 L-258.8 31.4 -283.8 14.35 -283.8 -3.65 -299.8 -3.65 -299.8 -13.65 -241.8 -13.65 -241.8 -3.65 -258.8 -3.65 Q-261.45 10.7 -240.8 18.35 L-208.8 31.35 M-208.75 31.95 Q-145.9 31.7 -84.8 26.9 L-84.75 26.9 -76.4 26.2 M-84.85 26.35 L-66.6 7.1 -123.55 -78.1 M192.1 -18.95 L208.15 -16.65 Q214.9 -10.7 215.6 -3.8 L244.1 -5.05 M215.6 -3.8 L178.8 -1.65 M260.55 -5.6 Q291.6 -6.55 322.8 -6.6 M156.95 -23.3 L177.25 -20.9 M-136.1 -135.9 L-135.3 -135.95 M-71.95 -47.8 L-72.8 -47.65 M-31.85 -29.6 Q-55.3 -32.5 -71.95 -47.8 M-23.85 20.95 L-18.85 20.35 Q25.75 13.35 70.55 8.2 M-208.75 31.95 L-208.8 31.95 Q-233.65 32.0 -258.8 31.4 M-325.15 80.4 L-399.1 80.4 M-329.1 132.9 L-333.8 118.35 Q-331.2 111.85 -328.05 105.6 M-349.25 105.6 L-349.25 132.9 M87.9 6.3 Q125.05 2.25 162.35 -0.5" fill="none" stroke="#000000" stroke-linecap="round" stroke-linejoin="round" stroke-width="9.0"/>
    <path d="M107.35 -27.65 L115.8 -29.45 115.9 -29.45 155.7 -36.0 155.65 -36.0 Q175.85 -39.45 195.85 -41.95 219.35 -44.95 242.9 -46.85 L258.9 -48.15 259.1 -48.15 395.1 -50.15 395.6 -50.1 397.1 -49.8 397.45 -49.7 Q399.6 -49.0 400.65 -47.05 L400.7 -46.95 401.4 -44.95 Q401.75 -43.15 401.25 -41.45 L401.25 -41.4 400.75 -40.2 400.6 -40.0 Q398.7 -37.3 395.35 -37.15 L395.3 -37.15 362.9 -36.15 338.85 -6.6 Q334.4 -5.9 322.8 -6.6 322.8 -7.5 323.35 -8.15 L346.35 -36.4 284.85 -35.5 260.55 -5.6 244.1 -5.05 Q244.05 -6.0 244.7 -6.7 L267.65 -34.85 200.05 -29.35 192.1 -18.95 178.8 -1.65 162.35 -0.5 Q162.25 -1.4 162.85 -2.15 L169.3 -10.6 169.4 -10.75 177.25 -20.9 181.85 -26.95 156.95 -23.3 147.3 -21.85 147.35 -21.9 114.05 -15.75 104.35 -13.95 97.45 -5.45 87.9 6.3 70.55 8.25 70.55 8.2 Q70.4 7.2 71.05 6.4 L79.05 -3.5 83.8 -9.35 39.85 1.75 10.65 9.1 -30.55 22.4 Q-26.3 21.25 -23.85 20.95 -40.95 25.35 -76.4 26.2 M17.75 -6.4 L14.4 -5.5 14.25 -5.45 -84.65 26.9 -84.75 26.9 M60.95 -17.5 L69.8 -19.75 69.9 -19.8 107.35 -27.65 M60.95 -17.5 L17.75 -6.4" fill="none" stroke="#000000" stroke-linecap="round" stroke-linejoin="round" stroke-width="9.0"/>
    <path d="M43.2 -30.45 L73.2 -29.5 M12.2 -62.65 L43.2 -30.45 Q4.95 -31.05 -31.85 -29.65 L-31.85 -29.6 -66.6 7.1 M-177.1 -160.05 L-162.3 -137.95 M-258.8 -3.65 L-283.8 -3.65 M-135.3 -135.95 L-153.55 -160.15" fill="none" stroke="#666666" stroke-linecap="round" stroke-linejoin="round" stroke-width="9.0"/>
    <path d="M285.15 76.35 Q165.0 91.25 61.15 118.35 -8.1 134.65 -76.85 134.35 L-328.65 134.35" fill="none" stroke="#333333" stroke-linecap="round" stroke-linejoin="round" stroke-width="9.0"/>
    <path d="M-208.8 31.35 L-208.75 31.95 -208.8 31.95 -208.8 31.35" fill="#e1e1e1" fill-rule="evenodd" stroke="none"/>
    <path d="M-71.95 -47.8 L36.2 -67.65 73.2 -29.5 43.2 -30.45 12.2 -62.65 43.2 -30.45 Q4.95 -31.05 -31.85 -29.65 L-31.85 -29.6 Q-55.3 -32.5 -71.95 -47.8 M-84.75 26.9 L-84.85 26.35 -84.65 26.9 -84.75 26.9 M-23.85 20.95 Q-26.3 21.25 -30.55 22.4 L10.65 9.1 39.85 1.75 79.05 -3.5 71.05 6.4 Q70.4 7.2 70.55 8.2 25.75 13.35 -18.85 20.35 L-23.85 20.95 M87.9 6.3 L97.45 -5.45 Q132.5 -9.0 169.3 -10.6 L162.85 -2.15 Q162.25 -1.4 162.35 -0.5 125.05 2.25 87.9 6.3" fill="#fbfbfb" fill-rule="evenodd" stroke="none"/>
    <path d="M39.85 1.75 L83.8 -9.35 79.05 -3.5 39.85 1.75 M97.45 -5.45 L104.35 -13.95 114.05 -15.75 Q145.35 -14.05 169.4 -10.75 L169.3 -10.6 Q132.5 -9.0 97.45 -5.45 M17.75 -6.4 L27.2 -17.65 Q44.75 -17.75 60.95 -17.5 L17.75 -6.4" fill="#333333" fill-rule="evenodd" stroke="none"/>
    <path d="M-123.55 -78.1 L-162.3 -137.95 Q-180.55 -148.95 -217.1 -148.9 L-217.1 -159.9 -177.1 -160.05 -153.55 -160.15 6.9 -160.9 6.9 -149.9 Q-80.6 -150.4 -135.3 -135.95 L-96.2 -78.1 -83.8 -61.65 Q-78.35 -53.7 -71.95 -47.8 L-72.8 -47.65 -71.95 -47.8 Q-55.3 -32.5 -31.85 -29.6 L-31.85 -29.65 Q4.95 -31.05 43.2 -30.45 L73.2 -29.5 107.35 -27.65 115.8 -29.45 115.9 -29.45 155.7 -36.0 155.65 -36.0 Q175.85 -39.45 195.85 -41.95 219.35 -44.95 242.9 -46.85 L258.9 -48.15 259.1 -48.15 395.1 -50.15 395.6 -50.1 397.1 -49.8 397.45 -49.7 Q399.6 -49.0 400.65 -47.05 L400.7 -46.95 401.4 -44.95 Q401.75 -43.15 401.25 -41.45 L401.25 -41.4 400.75 -40.2 400.6 -40.0 Q398.7 -37.3 395.35 -37.15 L395.3 -37.15 362.9 -36.15 338.85 -6.6 Q334.4 -5.9 322.8 -6.6 322.8 -7.5 323.35 -8.15 L346.35 -36.4 284.85 -35.5 260.55 -5.6 244.1 -5.05 Q244.05 -6.0 244.7 -6.7 L267.65 -34.85 200.05 -29.35 192.1 -18.95 178.8 -1.65 192.1 -18.95 208.15 -16.65 Q214.9 -10.7 215.6 -3.8 L178.8 -1.65 162.35 -0.5 Q162.25 -1.4 162.85 -2.15 L169.3 -10.6 169.4 -10.75 177.25 -20.9 169.4 -10.75 Q145.35 -14.05 114.05 -15.75 L104.35 -13.95 97.45 -5.45 87.9 6.3 70.55 8.25 70.55 8.2 Q70.4 7.2 71.05 6.4 L79.05 -3.5 83.8 -9.35 39.85 1.75 10.65 9.1 -30.55 22.4 Q-26.3 21.25 -23.85 20.95 -40.95 25.35 -76.4 26.2 L-84.75 26.9 -84.65 26.9 14.25 -5.45 14.4 -5.5 17.75 -6.4 14.4 -5.5 14.25 -5.45 -84.65 26.9 -84.85 26.35 -66.6 7.1 -123.55 -78.1 M-258.8 31.4 L-283.8 14.35 -283.8 -3.65 -299.8 -3.65 -299.8 -13.65 -241.8 -13.65 -241.8 -3.65 -258.8 -3.65 Q-261.45 10.7 -240.8 18.35 L-208.8 31.35 -208.8 31.95 Q-233.65 32.0 -258.8 31.4 M156.95 -23.3 L147.3 -21.85 147.35 -21.9 114.05 -15.75 147.35 -21.9 147.3 -21.85 156.95 -23.3 177.25 -20.9 181.85 -26.95 156.95 -23.3 M60.95 -17.5 Q44.75 -17.75 27.2 -17.65 L17.75 -6.4 60.95 -17.5 69.8 -19.75 69.9 -19.8 107.35 -27.65 69.9 -19.8 69.8 -19.75 60.95 -17.5 M-66.6 7.1 L-31.85 -29.6 -66.6 7.1 M-283.8 -3.65 L-258.8 -3.65 -283.8 -3.65 M-162.3 -137.95 L-177.1 -160.05 -162.3 -137.95 M-135.3 -135.95 L-136.1 -135.9 -135.3 -135.95 -153.55 -160.15 -135.3 -135.95" fill="#ffffff" fill-rule="evenodd" stroke="none"/>
    <path d="M-399.1 80.4 L-399.1 46.6 -386.75 36.45 -347.65 36.45 -325.15 50.9 -325.15 80.4 -399.1 80.4" fill="#999999" fill-rule="evenodd" stroke="none"/>
    <path d="M-349.25 132.9 L-349.25 140.95 -364.8 140.95 -364.5 162.95 -381.95 162.95 -381.95 121.15 -399.1 89.5 -399.1 80.4 -325.15 80.4 -325.15 86.8 -349.25 104.5 -349.25 105.6 -349.25 132.9" fill="#777777" fill-rule="evenodd" stroke="none"/>
    <path d="M-329.1 132.9 L-349.25 132.9 -349.25 105.6 -328.05 105.6 Q-331.2 111.85 -333.8 118.35 L-329.1 132.9" fill="#595959" fill-rule="evenodd" stroke="none"/>
    <path d="M338.85 -6.6 Q367.45 -6.5 396.15 -5.65 L360.15 7.35 299.15 75.35 285.15 76.35 Q165.0 91.25 61.15 118.35 -8.1 134.65 -76.85 134.35 L-328.65 134.35 -329.1 132.9 -333.8 118.35 Q-331.2 111.85 -328.05 105.6 -306.6 62.75 -259.8 31.4 L-258.8 31.4 Q-233.65 32.0 -208.8 31.95 L-208.75 31.95 Q-145.9 31.7 -84.8 26.9 L-84.75 26.9 -76.4 26.2 Q-40.95 25.35 -23.85 20.95 L-18.85 20.35 Q25.75 13.35 70.55 8.2 L70.55 8.25 87.9 6.3 Q125.05 2.25 162.35 -0.5 L178.8 -1.65 215.6 -3.8 244.1 -5.05 260.55 -5.6 Q291.6 -6.55 322.8 -6.6 334.4 -5.9 338.85 -6.6" fill="url(#gradient2)" fill-rule="evenodd" stroke="none"/>
    <path d="M285.15 76.35 L237.15 117.35 Q200.5 147.9 140.15 162.95 L-319.45 162.95 -328.65 134.35 -76.85 134.35 Q-8.1 134.65 61.15 118.35 165.0 91.25 285.15 76.35" fill="url(#gradient3)" fill-rule="evenodd" stroke="none"/>
    <path d="M-123.55 -78.1 L-162.3 -137.95 Q-180.55 -148.95 -217.1 -148.9 L-217.1 -159.9 -177.1 -160.05 -153.55 -160.15 6.9 -160.9 6.9 -149.9 Q-80.6 -150.4 -135.3 -135.95 L-96.2 -78.1 -83.8 -61.65 Q-78.35 -53.7 -71.95 -47.8 L36.2 -67.65 73.2 -29.5 107.35 -27.65 M338.85 -6.6 Q367.45 -6.5 396.15 -5.65 L360.15 7.35 299.15 75.35 285.15 76.35 237.15 117.35 Q200.5 147.9 140.15 162.95 L-319.45 162.95 -328.65 134.35 -329.1 132.9 -349.25 132.9 -349.25 140.95 -364.8 140.95 -364.5 162.95 M-381.95 162.95 L-381.95 121.15 -399.1 89.5 -399.1 80.4 -399.1 46.6 -386.75 36.45 -347.65 36.45 -325.15 50.9 -325.15 80.4 -325.15 86.8 -349.25 104.5 -349.25 105.6 -328.05 105.6 Q-306.6 62.75 -259.8 31.4 L-258.8 31.4 -283.8 14.35 -283.8 -3.65 -299.8 -3.65 -299.8 -13.65 -241.8 -13.65 -241.8 -3.65 -258.8 -3.65 Q-261.45 10.7 -240.8 18.35 L-208.8 31.35 M-208.75 31.95 Q-145.9 31.7 -84.8 26.9 L-84.75 26.9 -76.4 26.2 M-84.85 26.35 L-66.6 7.1 -123.55 -78.1 M192.1 -18.95 L208.15 -16.65 Q214.9 -10.7 215.6 -3.8 L244.1 -5.05 M215.6 -3.8 L178.8 -1.65 M260.55 -5.6 Q291.6 -6.55 322.8 -6.6 M156.95 -23.3 L177.25 -20.9 M-136.1 -135.9 L-135.3 -135.95 M-71.95 -47.8 L-72.8 -47.65 M-31.85 -29.6 Q-55.3 -32.5 -71.95 -47.8 M-23.85 20.95 L-18.85 20.35 Q25.75 13.35 70.55 8.2 M-208.75 31.95 L-208.8 31.95 Q-233.65 32.0 -258.8 31.4 M-325.15 80.4 L-399.1 80.4 M-329.1 132.9 L-333.8 118.35 Q-331.2 111.85 -328.05 105.6 M-349.25 105.6 L-349.25 132.9 M87.9 6.3 Q125.05 2.25 162.35 -0.5" fill="none" stroke="#000000" stroke-linecap="round" stroke-linejoin="round" stroke-width="1.0"/>
    <path d="M107.35 -27.65 L115.8 -29.45 115.9 -29.45 155.7 -36.0 155.65 -36.0 Q175.85 -39.45 195.85 -41.95 219.35 -44.95 242.9 -46.85 L258.9 -48.15 259.1 -48.15 395.1 -50.15 395.6 -50.1 397.1 -49.8 397.45 -49.7 Q399.6 -49.0 400.65 -47.05 L400.7 -46.95 401.4 -44.95 Q401.75 -43.15 401.25 -41.45 L401.25 -41.4 400.75 -40.2 400.6 -40.0 Q398.7 -37.3 395.35 -37.15 L395.3 -37.15 362.9 -36.15 338.85 -6.6 Q334.4 -5.9 322.8 -6.6 322.8 -7.5 323.35 -8.15 L346.35 -36.4 284.85 -35.5 260.55 -5.6 244.1 -5.05 Q244.05 -6.0 244.7 -6.7 L267.65 -34.85 200.05 -29.35 192.1 -18.95 178.8 -1.65 162.35 -0.5 Q162.25 -1.4 162.85 -2.15 L169.3 -10.6 169.4 -10.75 177.25 -20.9 181.85 -26.95 156.95 -23.3 147.3 -21.85 147.35 -21.9 114.05 -15.75 104.35 -13.95 97.45 -5.45 87.9 6.3 70.55 8.25 70.55 8.2 Q70.4 7.2 71.05 6.4 L79.05 -3.5 83.8 -9.35 39.85 1.75 10.65 9.1 -30.55 22.4 Q-26.3 21.25 -23.85 20.95 -40.95 25.35 -76.4 26.2 M17.75 -6.4 L14.4 -5.5 14.25 -5.45 -84.65 26.9 -84.75 26.9 M60.95 -17.5 L69.8 -19.75 69.9 -19.8 107.35 -27.65 M60.95 -17.5 L17.75 -6.4" fill="none" stroke="#000000" stroke-linecap="round" stroke-linejoin="round" stroke-width="1.0"/>
    <path d="M-135.3 -135.95 L-153.55 -160.15" fill="none" stroke="#666666" stroke-linecap="round" stroke-linejoin="round" stroke-width="1.0"/>
    <path d="M43.2 -30.45 L73.2 -29.5 M12.2 -62.65 L43.2 -30.45 Q4.95 -31.05 -31.85 -29.65 L-31.85 -29.6 -66.6 7.1 M-177.1 -160.05 L-162.3 -137.95 M-258.8 -3.65 L-283.8 -3.65" fill="none" stroke="#666666" stroke-linecap="round" stroke-linejoin="round" stroke-width="0.05"/>
    <path d="M285.15 76.35 Q165.0 91.25 61.15 118.35 -8.1 134.65 -76.85 134.35 L-328.65 134.35" fill="none" stroke="#333333" stroke-linecap="round" stroke-linejoin="round" stroke-width="0.05"/>
  </g>
  <defs>
    <linearGradient gradientTransform="matrix(0.0, -0.1505, 0.4455, 0.0, 7.85, 44.65)" gradientUnits="userSpaceOnUse" id="gradient0" spreadMethod="pad" x1="-819.2" x2="819.2">
      <stop offset="0.09803921568627451" stop-color="#444444"/>
      <stop offset="0.4745098039215686" stop-color="#a2a2a2"/>
    </linearGradient>
    <linearGradient gradientTransform="matrix(0.0, -0.1782, 0.3746, 0.0, -8.9, 64.3)" gradientUnits="userSpaceOnUse" id="gradient1" spreadMethod="pad" x1="-819.2" x2="819.2">
      <stop offset="0.0" stop-color="#1e1e1e"/>
      <stop offset="0.4745098039215686" stop-color="#515151"/>
    </linearGradient>
    <linearGradient gradientTransform="matrix(0.0, -0.1505, 0.4455, 0.0, 7.85, 44.65)" gradientUnits="userSpaceOnUse" id="gradient2" spreadMethod="pad" x1="-819.2" x2="819.2">
      <stop offset="0.09803921568627451" stop-color="#444444"/>
      <stop offset="0.4745098039215686" stop-color="#a2a2a2"/>
    </linearGradient>
    <linearGradient gradientTransform="matrix(0.0, -0.1782, 0.3746, 0.0, -8.9, 64.3)" gradientUnits="userSpaceOnUse" id="gradient3" spreadMethod="pad" x1="-819.2" x2="819.2">
      <stop offset="0.0" stop-color="#1e1e1e"/>
      <stop offset="0.4745098039215686" stop-color="#515151"/>
    </linearGradient>
  </defs>
</svg>
