<?xml version="1.0" encoding="UTF-8" standalone="no"?>
<svg xmlns:ffdec="https://www.free-decompiler.com/flash" xmlns:xlink="http://www.w3.org/1999/xlink" ffdec:objectType="shape" height="27.25px" width="194.0px" xmlns="http://www.w3.org/2000/svg">
  <g transform="matrix(1.0, 0.0, 0.0, 1.0, 97.1, 12.8)">
    <path d="M56.7 6.35 Q58.6 7.15 59.65 7.1 60.65 7.05 60.8 5.55 60.95 4.05 59.3 1.65 57.65 -0.75 57.6 -2.3 57.5 -3.85 61.4 -2.45 65.35 -1.1 68.05 0.85 70.7 2.8 72.2 3.1 73.65 3.4 74.15 1.8 74.55 -0.05 73.6 -2.25 L70.65 -8.65 Q68.9 -12.7 71.7 -12.25 74.2 -11.5 78.45 -6.65 L84.05 0.75 Q89.45 7.8 88.65 0.75 L87.8 -5.35 Q88.2 -10.45 91.75 -5.5 95.5 -1.1 96.4 10.65 L96.2 10.65 96.2 13.4 56.7 14.45 56.7 6.35" fill="url(#gradient0)" fill-rule="evenodd" stroke="none"/>
    <path d="M56.7 6.35 L56.7 14.45 -96.9 13.7 -96.6 8.5 Q-92.3 8.5 -92.0 5.85 -92.05 1.65 -90.9 1.5 -89.0 1.05 -86.8 2.55 L-84.1 4.35 -82.0 6.15 Q-77.4 9.55 -77.2 7.5 -77.05 5.4 -77.9 3.1 -78.8 0.75 -72.6 2.3 -66.2 4.75 -62.25 7.0 -58.3 9.25 -59.1 5.4 -59.95 1.6 -59.75 0.1 -59.5 -1.35 -57.0 -1.0 -54.5 -0.7 -51.05 2.5 -47.65 5.7 -45.7 6.7 -43.75 7.65 -43.25 6.35 -42.8 5.0 -42.95 2.1 -43.1 -0.8 -40.8 -0.75 -37.6 -0.75 -32.55 2.6 -27.45 5.95 -24.6 6.0 -20.4 5.95 -20.0 3.85 -19.65 1.75 -16.8 1.75 -13.55 1.75 -8.45 4.15 -3.3 6.55 -2.1 6.55 1.15 6.55 1.55 4.45 1.95 2.3 4.65 2.3 7.35 2.3 13.15 4.7 18.95 7.1 19.8 7.1 22.75 7.1 22.65 5.3 L22.5 1.2 Q22.45 -1.4 27.95 0.85 L32.9 3.75 Q37.95 6.8 40.65 6.75 43.3 6.7 42.65 3.9 41.95 1.1 46.05 1.7 50.1 2.3 53.3 4.45 55.2 5.7 56.7 6.35" fill="url(#gradient1)" fill-rule="evenodd" stroke="none"/>
    <path d="M96.4 10.65 Q95.5 -1.1 91.75 -5.5 88.2 -10.45 87.8 -5.35 L88.65 0.75 Q89.45 7.8 84.05 0.75 L78.45 -6.65 Q74.2 -11.5 71.7 -12.25 68.9 -12.7 70.65 -8.65 L73.6 -2.25 Q74.55 -0.05 74.15 1.8 73.65 3.4 72.2 3.1 70.7 2.8 68.05 0.85 65.35 -1.1 61.4 -2.45 57.5 -3.85 57.6 -2.3 57.65 -0.75 59.3 1.65 60.95 4.05 60.8 5.55 60.65 7.05 59.65 7.1 58.6 7.15 56.7 6.35 55.2 5.7 53.3 4.45 50.1 2.3 46.05 1.7 41.95 1.1 42.65 3.9 43.3 6.7 40.65 6.75 37.95 6.8 32.9 3.75 L27.95 0.85 Q22.45 -1.4 22.5 1.2 L22.65 5.3 Q22.75 7.1 19.8 7.1 18.95 7.1 13.15 4.7 7.35 2.3 4.65 2.3 1.95 2.3 1.55 4.45 1.15 6.55 -2.1 6.55 -3.3 6.55 -8.45 4.15 -13.55 1.75 -16.8 1.75 -19.65 1.75 -20.0 3.85 -20.4 5.95 -24.6 6.0 -27.45 5.95 -32.55 2.6 -37.6 -0.75 -40.8 -0.75 -43.1 -0.8 -42.95 2.1 -42.8 5.0 -43.25 6.35 -43.75 7.65 -45.7 6.7 -47.65 5.7 -51.05 2.5 -54.5 -0.7 -57.0 -1.0 -59.5 -1.35 -59.75 0.1 -59.95 1.6 -59.1 5.4 -58.3 9.25 -62.25 7.0 -66.2 4.75 -72.6 2.3 -78.8 0.75 -77.9 3.1 -77.05 5.4 -77.2 7.5 -77.4 9.55 -82.0 6.15 L-84.1 4.35 -86.8 2.55 Q-89.0 1.05 -90.9 1.5 -92.05 1.65 -92.0 5.85 -92.3 8.5 -96.6 8.5" fill="none" stroke="#000000" stroke-linecap="round" stroke-linejoin="round" stroke-width="1.0"/>
  </g>
  <defs>
    <linearGradient gradientTransform="matrix(0.0, 0.0118, -0.1181, 0.0, 1.35, 5.8)" gradientUnits="userSpaceOnUse" id="gradient0" spreadMethod="pad" x1="-819.2" x2="819.2">
      <stop offset="0.6666666666666666" stop-color="#97d6f0" stop-opacity="0.8"/>
      <stop offset="0.8549019607843137" stop-color="#97d6f0" stop-opacity="0.0"/>
    </linearGradient>
    <linearGradient gradientTransform="matrix(0.0, 0.011, -0.1181, 0.0, 1.35, 6.3)" gradientUnits="userSpaceOnUse" id="gradient1" spreadMethod="pad" x1="-819.2" x2="819.2">
      <stop offset="0.6666666666666666" stop-color="#97d6f0" stop-opacity="0.8"/>
      <stop offset="0.8549019607843137" stop-color="#97d6f0" stop-opacity="0.0"/>
    </linearGradient>
  </defs>
</svg>
