<?xml version="1.0" encoding="UTF-8" standalone="no"?>
<svg xmlns:ffdec="https://www.free-decompiler.com/flash" xmlns:xlink="http://www.w3.org/1999/xlink" ffdec:objectType="shape" height="23.6px" width="189.65px" xmlns="http://www.w3.org/2000/svg">
  <g transform="matrix(1.0, 0.0, 0.0, 1.0, 87.4, 9.7)">
    <path d="M62.65 5.15 L62.75 5.2 63.6 5.6 67.4 5.85 Q69.85 5.05 66.4 -0.1 61.2 -7.8 70.45 -2.8 L81.55 3.75 Q89.35 8.35 85.55 -1.3 83.95 -5.3 84.0 -7.25 84.0 -10.1 87.35 -8.8 88.85 -8.2 90.3 -7.25 94.4 -4.5 98.25 1.4 102.05 7.15 101.75 11.35 L101.45 11.35 101.45 13.1 100.85 13.65 100.85 13.9 -86.9 13.9 -86.9 8.85 Q-79.85 9.35 -84.25 5.1 -88.4 0.15 -78.65 3.25 -68.9 7.4 -66.75 7.75 -64.6 8.05 -65.85 5.35 -67.1 2.65 -64.7 2.4 -62.25 2.15 -59.45 3.35 -56.7 4.6 -53.65 6.3 -49.05 9.3 -48.45 7.05 L-47.55 3.85 Q-46.85 1.05 -41.7 1.85 -39.0 2.4 -34.25 4.45 -29.55 6.5 -26.45 7.25 -23.4 7.95 -22.55 6.25 -22.3 5.65 -23.05 3.65 -24.7 1.6 -21.8 1.4 -18.9 1.15 -12.25 3.6 L-2.9 6.65 Q-0.25 7.25 -0.55 5.7 -0.9 3.35 -0.1 2.6 0.7 1.85 3.65 1.85 8.15 1.85 12.85 3.65 15.45 4.65 21.2 6.25 26.9 7.8 25.4 5.0 23.9 2.15 25.4 1.45 L30.1 1.6 Q33.3 2.45 38.7 4.75 44.1 7.05 45.6 7.05 48.0 7.05 48.05 5.0 48.0 2.05 48.15 3.0 48.3 0.35 54.95 1.85 58.45 2.8 61.3 4.4 L62.65 5.15" fill="url(#gradient0)" fill-rule="evenodd" stroke="none"/>
    <path d="M62.65 5.15 L61.3 4.4 61.45 4.45 62.65 5.15 M100.85 13.9 L100.85 13.65 101.95 13.9 100.85 13.9" fill="url(#gradient1)" fill-rule="evenodd" stroke="none"/>
    <path d="M101.75 11.35 Q102.05 7.15 98.25 1.4 94.4 -4.5 90.3 -7.25 88.85 -8.2 87.35 -8.8 84.0 -10.1 84.0 -7.25 83.95 -5.3 85.55 -1.3 89.35 8.35 81.55 3.75 L70.45 -2.8 Q61.2 -7.8 66.4 -0.1 69.85 5.05 67.4 5.85 L63.6 5.6 62.75 5.2 62.65 5.15 61.3 4.4 Q58.45 2.8 54.95 1.85 48.3 0.35 48.15 3.0 48.0 2.05 48.05 5.0 48.0 7.05 45.6 7.05 44.1 7.05 38.7 4.75 33.3 2.45 30.1 1.6 L25.4 1.45 Q23.9 2.15 25.4 5.0 26.9 7.8 21.2 6.25 15.45 4.65 12.85 3.65 8.15 1.85 3.65 1.85 0.7 1.85 -0.1 2.6 -0.9 3.35 -0.55 5.7 -0.25 7.25 -2.9 6.65 L-12.25 3.6 Q-18.9 1.15 -21.8 1.4 -24.7 1.6 -23.05 3.65 -22.3 5.65 -22.55 6.25 -23.4 7.95 -26.45 7.25 -29.55 6.5 -34.25 4.45 -39.0 2.4 -41.7 1.85 -46.85 1.05 -47.55 3.85 L-48.45 7.05 Q-49.05 9.3 -53.65 6.3 -56.7 4.6 -59.45 3.35 -62.25 2.15 -64.7 2.4 -67.1 2.65 -65.85 5.35 -64.6 8.05 -66.75 7.75 -68.9 7.4 -78.65 3.25 -88.4 0.15 -84.25 5.1 -79.85 9.35 -86.9 8.85 M62.65 5.15 L61.45 4.45 61.3 4.4" fill="none" stroke="#000000" stroke-linecap="round" stroke-linejoin="round" stroke-width="1.0"/>
  </g>
  <defs>
    <linearGradient gradientTransform="matrix(0.0, 0.0121, -0.1284, 0.0, -1.85, 7.55)" gradientUnits="userSpaceOnUse" id="gradient0" spreadMethod="pad" x1="-819.2" x2="819.2">
      <stop offset="0.6666666666666666" stop-color="#97d6f0" stop-opacity="0.8"/>
      <stop offset="0.8549019607843137" stop-color="#97d6f0" stop-opacity="0.0"/>
    </linearGradient>
    <linearGradient gradientTransform="matrix(0.0, 0.0121, -0.1284, 0.0, 18.65, 7.55)" gradientUnits="userSpaceOnUse" id="gradient1" spreadMethod="pad" x1="-819.2" x2="819.2">
      <stop offset="0.6666666666666666" stop-color="#97d6f0" stop-opacity="0.8"/>
      <stop offset="0.8549019607843137" stop-color="#97d6f0" stop-opacity="0.0"/>
    </linearGradient>
  </defs>
</svg>
