<?xml version="1.0" encoding="UTF-8" standalone="no"?>
<svg xmlns:ffdec="https://www.free-decompiler.com/flash" xmlns:xlink="http://www.w3.org/1999/xlink" ffdec:objectType="shape" height="36.6px" width="91.65px" xmlns="http://www.w3.org/2000/svg">
  <g transform="matrix(1.0, 0.0, 0.0, 1.0, 241.1, 177.4)">
    <path d="M-158.2 -177.25 L-156.2 -177.4 Q-153.4 -176.05 -151.25 -173.9 -147.8 -166.45 -151.05 -168.15 -154.75 -171.85 -155.85 -172.15 L-156.15 -172.2 Q-155.8 -175.05 -158.2 -177.25" fill="#333333" fill-rule="evenodd" stroke="none"/>
    <path d="M-224.5 -163.2 L-225.25 -163.65 -225.35 -163.7 -225.35 -174.1 Q-220.2 -174.1 -208.35 -174.55 L-198.8 -175.0 -191.3 -175.8 -180.05 -175.4 -158.2 -177.25 Q-155.8 -175.05 -156.15 -172.2 L-162.15 -171.9 -171.05 -171.3 Q-174.75 -171.25 -178.55 -169.9 L-183.55 -168.4 Q-185.45 -168.15 -193.95 -165.0 L-194.3 -164.85 Q-199.55 -163.05 -202.7 -162.7 -199.85 -161.2 -199.5 -160.8 -198.6 -159.85 -198.6 -156.6 -198.6 -154.4 -200.05 -152.3 L-203.25 -148.65 Q-204.0 -147.85 -204.6 -146.25 -206.95 -147.65 -209.4 -147.45 -208.25 -149.9 -205.6 -153.55 L-205.6 -155.45 -211.1 -155.85 -217.3 -155.85 Q-219.7 -156.0 -220.9 -158.1 -222.1 -157.1 -223.2 -156.7 L-229.6 -156.1 Q-232.95 -156.1 -236.05 -156.95 -234.25 -157.55 -234.35 -161.0 L-234.05 -160.95 -228.1 -160.5 Q-225.7 -160.9 -224.5 -163.1 L-224.45 -163.15 -224.4 -163.15 -224.5 -163.2 M-198.8 -175.0 Q-195.05 -169.65 -194.3 -164.85 -195.05 -169.65 -198.8 -175.0 M-220.9 -158.1 L-221.2 -158.65 Q-222.55 -161.65 -224.4 -163.15 -222.55 -161.65 -221.2 -158.65 L-220.9 -158.1 M-213.9 -164.8 L-208.9 -164.4 Q-205.65 -164.2 -203.9 -163.3 L-202.7 -162.7 -203.9 -163.3 Q-205.65 -164.2 -208.9 -164.4 L-213.9 -164.8" fill="#ffffff" fill-rule="evenodd" stroke="none"/>
    <path d="M-204.6 -146.25 L-205.2 -144.6 Q-204.65 -140.8 -206.35 -140.8 -207.65 -140.8 -209.0 -142.05 -210.3 -143.3 -210.3 -144.4 -210.3 -145.6 -209.4 -147.45 -206.95 -147.65 -204.6 -146.25 M-236.05 -156.95 L-236.6 -157.15 Q-241.05 -158.55 -241.1 -160.3 -241.15 -162.1 -239.45 -161.95 L-234.35 -161.0 Q-234.25 -157.55 -236.05 -156.95" fill="#ffcc99" fill-rule="evenodd" stroke="none"/>
    <path d="M-224.5 -163.2 L-225.25 -163.65 -225.35 -163.7 -225.35 -174.1 Q-220.2 -174.1 -208.35 -174.55 L-198.8 -175.0 -191.3 -175.8 -180.05 -175.4 -158.2 -177.25 -156.2 -177.4 Q-153.4 -176.05 -151.25 -173.9 -147.8 -166.45 -151.05 -168.15 -154.75 -171.85 -155.85 -172.15 L-156.15 -172.2 -162.15 -171.9 -171.05 -171.3 Q-174.75 -171.25 -178.55 -169.9 L-183.55 -168.4 Q-185.45 -168.15 -193.95 -165.0 L-194.3 -164.85 Q-199.55 -163.05 -202.7 -162.7 -199.85 -161.2 -199.5 -160.8 -198.6 -159.85 -198.6 -156.6 -198.6 -154.4 -200.05 -152.3 L-203.25 -148.65 Q-204.0 -147.85 -204.6 -146.25 L-205.2 -144.6 Q-204.65 -140.8 -206.35 -140.8 -207.65 -140.8 -209.0 -142.05 -210.3 -143.3 -210.3 -144.4 -210.3 -145.6 -209.4 -147.45 -208.25 -149.9 -205.6 -153.55 L-205.6 -155.45 -211.1 -155.85 -217.3 -155.85 Q-219.7 -156.0 -220.9 -158.1 -222.1 -157.1 -223.2 -156.7 L-229.6 -156.1 Q-232.95 -156.1 -236.05 -156.95 L-236.6 -157.15 Q-241.05 -158.55 -241.1 -160.3 -241.15 -162.1 -239.45 -161.95 L-234.35 -161.0 -234.05 -160.95 -228.1 -160.5 Q-225.7 -160.9 -224.5 -163.1 L-224.5 -163.2 -224.4 -163.15 Q-222.55 -161.65 -221.2 -158.65 L-220.9 -158.1 M-194.3 -164.85 Q-195.05 -169.65 -198.8 -175.0 M-234.35 -161.0 Q-234.25 -157.55 -236.05 -156.95 M-202.7 -162.7 L-203.9 -163.3 Q-205.65 -164.2 -208.9 -164.4 L-213.9 -164.8 M-204.6 -146.25 Q-206.95 -147.65 -209.4 -147.45 M-158.2 -177.25 Q-155.8 -175.05 -156.15 -172.2" fill="none" stroke="#333333" stroke-linecap="round" stroke-linejoin="round" stroke-width="0.05"/>
  </g>
</svg>
