<?xml version="1.0" encoding="UTF-8" standalone="no"?>
<svg xmlns:ffdec="https://www.free-decompiler.com/flash" xmlns:xlink="http://www.w3.org/1999/xlink" ffdec:objectType="shape" height="30.15px" width="108.9px" xmlns="http://www.w3.org/2000/svg">
  <g transform="matrix(1.0, 0.0, 0.0, 1.0, 258.05, 177.3)">
    <path d="M-250.55 -149.25 Q-255.5 -147.15 -256.45 -147.15 L-258.05 -147.25 -257.2 -149.95 Q-256.75 -151.3 -253.35 -153.05 -251.75 -149.85 -250.55 -149.25" fill="#ffcc99" fill-rule="evenodd" stroke="none"/>
    <path d="M-199.15 -174.4 Q-195.85 -169.0 -195.05 -165.1 -195.85 -169.0 -199.15 -174.4 L-195.75 -175.2 -194.5 -165.3 -195.05 -165.1 -196.6 -164.5 Q-195.7 -162.45 -196.7 -161.3 -197.55 -160.3 -199.15 -160.3 -201.45 -160.3 -202.8 -161.85 L-206.65 -160.1 Q-209.5 -158.75 -212.1 -158.1 L-219.2 -156.1 Q-221.95 -155.3 -225.1 -155.05 L-231.9 -154.6 Q-238.9 -153.95 -245.3 -151.6 L-250.55 -149.25 Q-251.75 -149.85 -253.35 -153.05 -250.0 -154.85 -243.7 -157.1 -231.15 -161.6 -224.9 -162.8 L-224.25 -162.95 -223.85 -162.9 -223.65 -163.05 -222.7 -164.15 Q-223.4 -166.6 -223.0 -167.15 L-222.6 -167.5 -222.95 -174.65 -218.9 -175.2 -212.0 -174.5 -205.95 -173.9 -199.15 -174.4 M-215.15 -164.15 L-223.65 -163.05 -215.15 -164.15 M-196.6 -164.5 L-202.8 -161.85 -196.6 -164.5" fill="#ffffff" fill-rule="evenodd" stroke="none"/>
    <path d="M-195.05 -165.1 Q-195.85 -169.0 -199.15 -174.4 L-205.95 -173.9 -212.0 -174.5 -218.9 -175.2 -222.95 -174.65 M-223.65 -163.05 L-215.15 -164.15 M-194.5 -165.3 L-195.05 -165.1 -196.6 -164.5 Q-195.7 -162.45 -196.7 -161.3 -197.55 -160.3 -199.15 -160.3 -201.45 -160.3 -202.8 -161.85 L-206.65 -160.1 Q-209.5 -158.75 -212.1 -158.1 L-219.2 -156.1 Q-221.95 -155.3 -225.1 -155.05 L-231.9 -154.6 Q-238.9 -153.95 -245.3 -151.6 L-250.55 -149.25 Q-255.5 -147.15 -256.45 -147.15 L-258.05 -147.25 -257.2 -149.95 Q-256.75 -151.3 -253.35 -153.05 -250.0 -154.85 -243.7 -157.1 -231.15 -161.6 -224.9 -162.8 L-224.25 -162.95 -223.65 -163.05 M-199.15 -174.4 L-195.75 -175.2 M-202.8 -161.85 L-196.6 -164.5 M-250.55 -149.25 Q-251.75 -149.85 -253.35 -153.05" fill="none" stroke="#333333" stroke-linecap="round" stroke-linejoin="round" stroke-width="0.05"/>
    <path d="M-194.5 -165.3 L-195.75 -175.2 -194.15 -175.6 -190.3 -175.8 -158.9 -177.15 -156.6 -171.95 -157.45 -171.8 Q-171.8 -174.1 -194.5 -165.3" fill="#ffffff" fill-rule="evenodd" stroke="none"/>
    <path d="M-156.6 -171.95 L-158.9 -177.15 -155.3 -177.3 Q-153.65 -176.55 -152.2 -173.35 -150.75 -170.05 -149.15 -168.15 L-149.15 -167.55 Q-151.5 -165.85 -156.15 -172.0 L-156.6 -171.95" fill="#333333" fill-rule="evenodd" stroke="none"/>
    <path d="M-194.5 -165.3 Q-171.8 -174.1 -157.45 -171.8 L-156.6 -171.95 -158.9 -177.15 -190.3 -175.8 -194.15 -175.6 -195.75 -175.2 M-156.6 -171.95 L-156.15 -172.0 Q-151.5 -165.85 -149.15 -167.55 L-149.15 -168.15 Q-150.75 -170.05 -152.2 -173.35 -153.65 -176.55 -155.3 -177.3 L-158.9 -177.15" fill="none" stroke="#333333" stroke-linecap="round" stroke-linejoin="round" stroke-width="0.05"/>
  </g>
</svg>
