<?xml version="1.0" encoding="UTF-8" standalone="no"?>
<svg xmlns:ffdec="https://www.free-decompiler.com/flash" xmlns:xlink="http://www.w3.org/1999/xlink" ffdec:objectType="shape" height="20.85px" width="19.8px" xmlns="http://www.w3.org/2000/svg">
  <g transform="matrix(1.0, 0.0, 0.0, 1.0, 9.9, 10.4)">
    <path d="M-5.55 -3.5 Q-6.8 -4.4 -7.2 -5.9 -7.65 -7.55 -7.5 -8.25 -7.25 -9.7 -5.35 -10.2 L-1.85 -10.3 2.8 -9.4 Q5.35 -8.65 7.0 -7.6 8.9 -6.4 9.3 -4.95 L9.55 -3.65 Q9.45 -3.15 8.9 -2.75 6.25 -4.45 0.9 -4.75 -3.65 -4.65 -5.4 -3.6 L-5.55 -3.5" fill="#ffffff" fill-rule="evenodd" stroke="none"/>
    <path d="M8.25 -2.15 L8.6 -2.05 9.0 -1.8 Q9.6 -1.3 9.8 -0.45 10.05 0.4 9.8 1.15 L8.85 2.05 8.75 2.05 Q9.05 3.7 8.7 5.3 L8.1 6.85 Q6.8 9.55 4.2 10.25 L4.0 10.3 Q1.45 10.9 -0.9 9.3 -2.35 8.35 -3.25 6.95 L-5.75 7.35 -4.55 2.7 -4.45 1.55 Q-4.35 -0.95 -2.7 -2.85 4.4 -3.6 7.25 -2.0 L7.35 -1.95 7.7 -2.15 8.25 -2.15 M-1.25 1.7 Q-1.1 1.35 -1.2 1.0 L-1.6 0.5 -2.3 0.4 -2.8 0.8 -2.9 1.45 -2.5 2.0 -1.8 2.1 -1.25 1.7 M6.65 -0.15 Q6.6 -0.75 6.8 -1.2 L7.2 -1.85 7.35 -1.95 7.2 -1.85 6.8 -1.2 Q6.6 -0.75 6.65 -0.15" fill="#ffcc99" fill-rule="evenodd" stroke="none"/>
    <path d="M-5.55 -3.5 L-5.4 -3.6 Q-3.65 -4.65 0.9 -4.75 6.25 -4.45 8.9 -2.75 L8.3 -2.45 8.25 -2.15 7.7 -2.15 7.35 -1.95 7.25 -2.0 Q4.4 -3.6 -2.7 -2.85 L-5.1 -2.55 -9.9 -1.7 Q-8.15 -2.75 -5.55 -3.5 M-1.25 1.7 L-1.8 2.1 -2.5 2.0 -2.9 1.45 -2.8 0.8 -2.3 0.4 -1.6 0.5 -1.2 1.0 Q-1.1 1.35 -1.25 1.7" fill="#000000" fill-rule="evenodd" stroke="none"/>
    <path d="M8.9 -2.75 Q9.45 -3.15 9.55 -3.65 L9.3 -4.95 Q8.9 -6.4 7.0 -7.6 5.35 -8.65 2.8 -9.4 L-1.85 -10.3 -5.35 -10.2 Q-7.25 -9.7 -7.5 -8.25 -7.65 -7.55 -7.2 -5.9 -6.8 -4.4 -5.55 -3.5 L-5.4 -3.6 Q-3.65 -4.65 0.9 -4.75 6.25 -4.45 8.9 -2.75 L8.3 -2.45 M8.25 -2.15 L8.6 -2.05 9.0 -1.8 Q9.6 -1.3 9.8 -0.45 10.05 0.4 9.8 1.15 L8.85 2.05 8.75 2.05 Q9.05 3.7 8.7 5.3 L8.1 6.85 Q6.8 9.55 4.2 10.25 L4.0 10.3 Q1.45 10.9 -0.9 9.3 -2.35 8.35 -3.25 6.95 L-5.75 7.35 -4.55 2.7 -4.45 1.55 Q-4.35 -0.95 -2.7 -2.85 L-5.1 -2.55 -9.9 -1.7 Q-8.15 -2.75 -5.55 -3.5 M-2.7 -2.85 Q4.4 -3.6 7.25 -2.0 L7.35 -1.95 7.7 -2.15 8.25 -2.15 M-1.25 1.7 Q-1.1 1.35 -1.2 1.0 L-1.6 0.5 -2.3 0.4 -2.8 0.8 -2.9 1.45 -2.5 2.0 -1.8 2.1 -1.25 1.7 M7.35 -1.95 L7.2 -1.85 6.8 -1.2 Q6.6 -0.75 6.65 -0.15" fill="none" stroke="#333333" stroke-linecap="round" stroke-linejoin="round" stroke-width="0.05"/>
  </g>
</svg>
