<?xml version="1.0" encoding="UTF-8" standalone="no"?>
<svg xmlns:ffdec="https://www.free-decompiler.com/flash" xmlns:xlink="http://www.w3.org/1999/xlink" ffdec:objectType="shape" height="35.45px" width="94.05px" xmlns="http://www.w3.org/2000/svg">
  <g transform="matrix(1.0, 0.0, 0.0, 1.0, 243.0, 180.9)">
    <path d="M-164.7 -173.55 L-166.95 -173.8 -170.85 -173.95 -174.85 -173.9 -186.15 -174.1 -174.85 -173.9 -170.85 -173.95 -166.95 -173.8 -164.7 -173.55 Q-162.75 -172.85 -159.1 -172.25 -158.25 -169.8 -156.6 -167.3 L-184.4 -165.65 Q-187.2 -165.4 -192.0 -164.0 L-193.7 -163.5 Q-196.65 -168.0 -200.15 -175.05 -196.65 -168.0 -193.7 -163.5 -197.25 -162.6 -199.9 -162.45 L-205.4 -159.05 -206.1 -158.8 -205.9 -151.55 Q-205.85 -148.45 -208.4 -148.45 -210.05 -148.45 -212.85 -150.15 -216.1 -152.1 -217.3 -152.45 L-217.3 -152.5 -217.3 -152.45 Q-223.1 -145.45 -226.1 -145.45 -228.2 -145.45 -230.95 -147.3 L-235.55 -150.35 -236.8 -150.7 Q-236.8 -151.9 -236.15 -153.05 -235.6 -154.1 -235.05 -154.2 L-234.4 -153.85 Q-232.6 -152.85 -227.9 -151.25 L-222.6 -159.6 Q-225.3 -160.5 -226.0 -160.95 -227.0 -161.7 -228.6 -164.4 -230.2 -166.95 -230.2 -167.55 -230.2 -173.15 -223.35 -173.95 -216.5 -174.8 -215.8 -174.1 L-206.45 -174.1 -202.55 -174.65 -200.25 -175.05 -200.15 -175.05 -198.6 -175.2 -198.0 -175.4 Q-195.3 -176.15 -186.3 -174.1 L-186.15 -174.1 -187.85 -174.5 -179.3 -176.65 Q-175.15 -178.05 -171.65 -178.55 L-164.15 -179.15 -161.35 -179.6 -159.0 -175.6 -159.15 -174.95 -161.85 -174.3 Q-163.45 -173.7 -164.7 -173.55 M-213.0 -158.15 L-214.05 -156.65 -217.3 -152.5 -214.05 -156.65 Q-213.4 -156.15 -212.2 -156.3 L-212.4 -158.1 -213.0 -158.15 -210.9 -161.15 -213.0 -158.15 M-212.4 -158.1 Q-208.7 -158.1 -206.1 -158.8 -208.7 -158.1 -212.4 -158.1 M-220.05 -163.7 L-222.55 -159.7 -222.6 -159.6 -222.55 -159.7 -220.05 -163.7" fill="#ffffff" fill-rule="evenodd" stroke="none"/>
    <path d="M-236.8 -150.7 L-238.7 -151.25 Q-241.75 -152.15 -242.7 -153.8 -243.7 -155.45 -241.4 -155.75 L-238.6 -155.95 Q-238.15 -155.85 -235.05 -154.2 -235.6 -154.1 -236.15 -153.05 -236.8 -151.9 -236.8 -150.7" fill="#ffcc99" fill-rule="evenodd" stroke="none"/>
    <path d="M-159.0 -175.6 L-161.35 -179.6 Q-159.25 -180.1 -158.3 -180.9 L-154.15 -177.35 Q-151.55 -175.05 -151.05 -173.05 -150.6 -171.7 -159.0 -175.6 M-156.6 -167.3 Q-158.25 -169.8 -159.1 -172.25 L-154.5 -171.6 Q-151.4 -168.6 -148.95 -164.55 -148.7 -162.55 -151.7 -164.55 L-156.4 -167.3 -156.6 -167.3" fill="#333333" fill-rule="evenodd" stroke="none"/>
    <path d="M-186.15 -174.1 L-174.85 -173.9 -170.85 -173.95 -166.95 -173.8 -164.7 -173.55 Q-163.45 -173.7 -161.85 -174.3 L-159.15 -174.95 M-159.0 -175.6 L-161.35 -179.6 -164.15 -179.15 -171.65 -178.55 Q-175.15 -178.05 -179.3 -176.65 L-187.85 -174.5 M-186.15 -174.1 L-186.3 -174.1 Q-195.3 -176.15 -198.0 -175.4 L-198.6 -175.2 -200.15 -175.05 Q-196.65 -168.0 -193.7 -163.5 L-192.0 -164.0 Q-187.2 -165.4 -184.4 -165.65 L-156.6 -167.3 Q-158.25 -169.8 -159.1 -172.25 -162.75 -172.85 -164.7 -173.55 M-235.05 -154.2 L-234.4 -153.85 Q-232.6 -152.85 -227.9 -151.25 L-222.6 -159.6 Q-225.3 -160.5 -226.0 -160.95 -227.0 -161.7 -228.6 -164.4 -230.2 -166.95 -230.2 -167.55 -230.2 -173.15 -223.35 -173.95 -216.5 -174.8 -215.8 -174.1 L-206.45 -174.1 -202.55 -174.65 -200.25 -175.05 -200.15 -175.05 M-193.7 -163.5 Q-197.25 -162.6 -199.9 -162.45 L-205.4 -159.05 -206.1 -158.8 -205.9 -151.55 Q-205.85 -148.45 -208.4 -148.45 -210.05 -148.45 -212.85 -150.15 -216.1 -152.1 -217.3 -152.45 L-217.3 -152.5 -217.3 -152.45 Q-223.1 -145.45 -226.1 -145.45 -228.2 -145.45 -230.95 -147.3 L-235.55 -150.35 -236.8 -150.7 -238.7 -151.25 Q-241.75 -152.15 -242.7 -153.8 -243.7 -155.45 -241.4 -155.75 L-238.6 -155.95 Q-238.15 -155.85 -235.05 -154.2 -235.6 -154.1 -236.15 -153.05 -236.8 -151.9 -236.8 -150.7 M-214.05 -156.65 L-213.0 -158.15 -210.9 -161.15 M-214.05 -156.65 L-217.3 -152.5 M-222.6 -159.6 L-222.55 -159.7 -220.05 -163.7 M-206.1 -158.8 Q-208.7 -158.1 -212.4 -158.1 L-212.2 -156.3 Q-213.4 -156.15 -214.05 -156.65 M-212.4 -158.1 L-213.0 -158.15 M-161.35 -179.6 Q-159.25 -180.1 -158.3 -180.9 L-154.15 -177.35 Q-151.55 -175.05 -151.05 -173.05 -150.6 -171.7 -159.0 -175.6 M-159.1 -172.25 L-154.5 -171.6 Q-151.4 -168.6 -148.95 -164.55 -148.7 -162.55 -151.7 -164.55 L-156.4 -167.3 -156.6 -167.3" fill="none" stroke="#333333" stroke-linecap="round" stroke-linejoin="round" stroke-width="0.05"/>
  </g>
</svg>
