<?xml version="1.0" encoding="UTF-8" standalone="no"?>
<svg xmlns:ffdec="https://www.free-decompiler.com/flash" xmlns:xlink="http://www.w3.org/1999/xlink" ffdec:objectType="shape" height="39.7px" width="41.9px" xmlns="http://www.w3.org/2000/svg">
  <g transform="matrix(1.0, 0.0, 0.0, 1.0, 20.9, 19.8)">
    <path d="M-8.4 12.9 L-8.55 13.8 -9.7 13.4 Q-11.45 12.95 -12.65 11.5 -13.05 12.45 -14.1 12.7 -15.2 12.95 -16.05 12.3 L-16.1 11.7 -14.0 10.1 Q-14.05 9.15 -14.45 8.05 L-14.55 7.4 Q-16.1 8.5 -17.75 7.85 L-19.1 7.2 -19.5 6.35 -19.4 5.5 -18.85 5.2 Q-17.35 5.15 -15.95 5.95 L-15.5 4.7 -16.1 3.85 -19.4 3.3 Q-20.2 3.1 -20.7 2.25 L-20.9 1.75 -20.4 0.75 -16.8 1.0 Q-17.1 0.55 -16.9 -0.1 L-16.3 -1.55 -17.7 -0.6 Q-18.7 -0.55 -19.35 -1.35 -19.95 -2.05 -20.2 -3.25 L-19.65 -4.0 -17.4 -3.3 -16.4 -3.5 -16.5 -4.35 Q-18.75 -5.5 -19.4 -8.1 L-19.4 -9.35 -18.05 -9.35 -17.6 -9.1 -16.6 -7.75 -15.75 -7.0 -16.15 -8.35 -15.9 -9.0 -14.35 -8.9 -13.8 -8.25 -13.05 -8.95 Q-14.95 -10.3 -15.05 -12.45 L-15.0 -13.85 -14.85 -14.15 -14.3 -14.6 -12.5 -11.75 -12.05 -13.15 -11.5 -12.85 -10.35 -14.25 -9.0 -14.35 -8.4 -15.3 -9.65 -16.95 -9.45 -17.85 -7.25 -17.7 -6.65 -17.25 -6.4 -16.0 -5.9 -15.4 -5.65 -15.05 -5.4 -14.9 -5.2 -14.75 -3.55 -15.85 -2.8 -16.15 -2.1 -15.95 -2.0 -15.8 -1.6 -15.5 -1.6 -18.35 -1.3 -19.8 -0.6 -19.75 0.75 -15.25 3.35 -15.3 3.65 -15.75 4.05 -15.9 4.35 -15.45 4.45 -17.4 5.2 -17.85 7.4 -14.3 8.8 -13.6 9.55 -14.75 11.0 -14.8 11.6 -16.2 13.5 -16.6 14.05 -16.0 Q13.8 -13.8 12.1 -12.15 L11.3 -11.45 12.3 -10.5 13.3 -10.35 13.55 -10.8 16.8 -10.95 17.1 -10.25 13.85 -7.35 14.35 -6.85 15.45 -6.6 15.7 -6.45 15.85 -6.2 15.85 -6.05 17.9 -6.4 19.05 -6.5 19.65 -6.2 19.75 -5.2 17.95 -4.6 16.05 -3.45 16.55 -2.75 17.65 -3.35 Q19.35 -3.3 20.35 -1.9 21.55 -0.3 20.45 0.9 19.6 0.9 18.95 0.2 L17.85 -1.45 17.15 -0.25 16.4 0.0 Q15.1 -0.4 14.1 -1.0 L12.55 -1.55 Q11.8 -2.1 11.15 -2.75 L9.8 -4.1 6.2 -3.75 Q4.2 -3.55 3.3 -1.85 L2.5 -0.55 Q2.15 0.05 1.55 0.35 L-0.15 1.2 Q-2.95 2.1 -3.15 5.15 L-3.55 4.7 Q-4.25 3.9 -5.25 3.75 -6.95 3.95 -7.4 5.35 -8.15 7.45 -6.6 9.0 -7.0 8.7 -6.95 9.25 L-7.0 9.65 -8.5 12.95 -8.4 12.9 M10.85 5.05 Q10.4 6.0 9.45 6.15 8.45 6.1 8.05 5.1 7.6 4.1 8.4 3.4 L10.6 3.35 Q11.3 4.1 10.85 5.05" fill="#000000" fill-rule="evenodd" stroke="none"/>
    <path d="M-7.0 9.65 L-6.95 9.25 Q-7.0 8.7 -6.6 9.0 L-7.0 9.65" fill="#93633a" fill-rule="evenodd" stroke="none"/>
    <path d="M12.55 -1.55 L13.6 2.1 Q13.9 3.5 14.5 4.8 L16.0 8.05 17.2 10.95 14.55 11.2 Q14.75 13.15 14.25 15.1 L13.55 16.5 Q13.15 16.95 12.6 17.1 L9.2 17.65 3.5 17.2 1.4 16.7 -1.6 19.9 -4.55 17.8 Q-5.75 16.95 -6.55 15.65 L-8.4 12.9 -8.5 12.95 -7.0 9.65 -6.6 9.0 Q-8.15 7.45 -7.4 5.35 -6.95 3.95 -5.25 3.75 -4.25 3.9 -3.55 4.7 L-3.15 5.15 Q-2.95 2.1 -0.15 1.2 L1.55 0.35 Q2.15 0.05 2.5 -0.55 L3.3 -1.85 Q4.2 -3.55 6.2 -3.75 L9.8 -4.1 11.15 -2.75 Q11.8 -2.1 12.55 -1.55 M10.85 5.05 Q11.3 4.1 10.6 3.35 L8.4 3.4 Q7.6 4.1 8.05 5.1 8.45 6.1 9.45 6.15 10.4 6.0 10.85 5.05" fill="#ba7d56" fill-rule="evenodd" stroke="none"/>
    <path d="M12.55 -1.55 L13.6 2.1 Q13.9 3.5 14.5 4.8 L16.0 8.05 17.2 10.95 14.55 11.2 Q14.75 13.15 14.25 15.1 L13.55 16.5 Q13.15 16.95 12.6 17.1 L9.2 17.65 3.5 17.2 1.4 16.7" fill="none" stroke="#000000" stroke-linecap="round" stroke-linejoin="round" stroke-width="0.05"/>
    <path d="M1.4 16.7 L-1.6 19.9 M-6.6 9.0 L-7.0 9.65" fill="none" stroke="#000000" stroke-linecap="round" stroke-linejoin="round" stroke-width="0.05"/>
  </g>
</svg>
