<?xml version="1.0" encoding="UTF-8" standalone="no"?>
<svg xmlns:ffdec="https://www.free-decompiler.com/flash" xmlns:xlink="http://www.w3.org/1999/xlink" ffdec:objectType="shape" height="41.25px" width="40.35px" xmlns="http://www.w3.org/2000/svg">
  <g transform="matrix(1.0, 0.0, 0.0, 1.0, 42.3, 15.45)">
    <path d="M-33.85 9.45 L-34.9 10.7 -36.45 12.65 -37.2 12.8 -38.4 12.1 -38.55 14.05 Q-38.8 15.0 -39.55 15.4 -41.1 14.9 -40.8 12.9 -40.65 11.2 -39.15 10.35 L-37.9 10.35 -37.8 9.5 -40.0 9.4 -41.9 9.75 -42.3 8.85 -41.9 8.3 Q-41.45 7.9 -40.85 7.8 L-38.9 7.1 -38.95 7.0 -38.95 6.7 -38.8 6.45 -37.95 5.7 -37.8 5.0 -42.0 4.05 -42.1 3.3 -39.2 1.85 -38.75 2.15 -37.95 1.5 -37.55 0.2 -38.6 0.0 Q-40.85 -0.65 -42.15 -2.45 L-41.95 -3.2 -40.1 -3.8 -38.9 -2.85 -37.6 -3.5 -36.4 -2.9 -35.5 -4.15 -35.35 -8.35 -34.45 -8.3 -33.4 -6.65 -33.4 -7.2 -32.95 -7.25 -32.5 -7.0 -30.2 -8.2 -31.2 -12.8 -30.6 -13.2 -29.65 -12.05 Q-28.8 -10.9 -28.25 -9.6 L-28.05 -10.05 -28.05 -10.2 -27.55 -10.75 -26.75 -10.85 -24.75 -10.65 -24.65 -10.9 -24.5 -11.15 -24.45 -11.6 -24.3 -12.35 -24.7 -13.55 -24.4 -14.25 Q-23.75 -15.3 -22.55 -15.45 L-21.95 -14.75 -22.25 -12.7 -21.25 -12.15 -20.0 -12.75 -18.35 -12.05 -18.0 -12.6 -16.95 -11.6 -16.75 -14.95 -16.05 -14.85 -15.75 -14.65 -15.05 -13.45 Q-14.1 -11.55 -15.1 -9.4 L-14.1 -9.15 -13.95 -10.0 Q-13.6 -11.0 -12.65 -10.85 L-12.1 -10.4 -11.8 -9.05 -11.4 -10.1 -11.2 -11.75 -10.95 -12.2 -9.75 -12.85 -9.15 -11.75 Q-8.45 -9.2 -9.85 -7.1 L-9.55 -6.3 -8.55 -6.6 -6.95 -8.3 -6.1 -7.9 Q-5.75 -6.75 -5.9 -5.85 -6.1 -4.85 -7.0 -4.4 L-8.7 -4.55 -7.45 -3.55 Q-6.95 -3.1 -7.0 -2.55 L-4.0 -4.5 -3.05 -3.9 -3.0 -3.35 Q-3.0 -2.4 -3.6 -1.8 L-6.25 0.25 -6.35 1.3 -5.35 2.15 Q-4.5 0.8 -3.2 0.1 L-2.55 0.1 -2.05 0.8 Q-1.85 1.25 -2.0 1.75 -2.25 2.4 -2.85 2.95 -4.0 4.3 -5.85 4.1 L-5.65 4.75 -5.05 6.75 -2.45 7.1 -2.2 7.65 Q-2.6 8.65 -3.7 8.95 -4.75 9.25 -5.55 8.6 -5.9 10.45 -7.2 11.7 L-7.8 12.4 -8.0 12.6 -8.55 11.9 -8.45 11.85 -11.35 9.75 -11.6 9.4 Q-11.8 8.9 -12.0 9.35 -11.45 7.25 -13.1 5.8 -14.15 4.75 -15.75 5.45 -16.55 6.05 -16.75 7.1 L-16.9 7.7 Q-18.55 5.1 -21.4 5.7 L-23.3 5.75 -24.6 5.45 -25.9 4.7 Q-27.55 3.65 -29.35 4.45 L-32.65 5.9 -33.2 7.7 -33.85 9.45 M-26.7 13.05 Q-26.55 14.1 -27.4 14.65 -28.3 15.0 -29.15 14.4 -30.0 13.75 -29.75 12.75 -29.2 11.35 -27.8 11.75 -26.8 11.95 -26.7 13.05" fill="#000000" fill-rule="evenodd" stroke="none"/>
    <path d="M-12.0 9.35 Q-11.8 8.9 -11.6 9.4 L-11.35 9.75 -12.0 9.35" fill="#93633a" fill-rule="evenodd" stroke="none"/>
    <path d="M-33.85 9.45 L-33.2 7.7 -32.65 5.9 -29.35 4.45 Q-27.55 3.65 -25.9 4.7 L-24.6 5.45 -23.3 5.75 -21.4 5.7 Q-18.55 5.1 -16.9 7.7 L-16.75 7.1 Q-16.55 6.05 -15.75 5.45 -14.15 4.75 -13.1 5.8 -11.45 7.25 -12.0 9.35 L-11.35 9.75 -8.45 11.85 -8.55 11.9 -8.0 12.6 -7.8 12.4 Q-7.1 13.15 -7.45 14.4 -7.95 16.2 -9.1 17.9 L-11.05 21.3 -15.25 19.95 -16.85 21.4 Q-19.05 23.25 -21.6 24.55 L-24.85 25.75 -25.95 25.65 -27.25 24.8 Q-28.65 23.3 -29.4 21.55 L-31.85 22.6 Q-32.2 21.05 -32.2 19.5 L-32.45 15.95 Q-32.6 14.5 -33.0 13.15 L-33.85 9.45 M-26.7 13.05 Q-26.8 11.95 -27.8 11.75 -29.2 11.35 -29.75 12.75 -30.0 13.75 -29.15 14.4 -28.3 15.0 -27.4 14.65 -26.55 14.1 -26.7 13.05" fill="#ba7d56" fill-rule="evenodd" stroke="none"/>
    <path d="M-11.05 21.3 L-15.25 19.95 -16.85 21.4 Q-19.05 23.25 -21.6 24.55 L-24.85 25.75 -25.95 25.65 -27.25 24.8 Q-28.65 23.3 -29.4 21.55 L-31.85 22.6 Q-32.2 21.05 -32.2 19.5 L-32.45 15.95 Q-32.6 14.5 -33.0 13.15 L-33.85 9.45 M-11.35 9.75 L-12.0 9.35" fill="none" stroke="#000000" stroke-linecap="round" stroke-linejoin="round" stroke-width="0.05"/>
  </g>
</svg>
