<?xml version="1.0" encoding="UTF-8" standalone="no"?>
<svg xmlns:ffdec="https://www.free-decompiler.com/flash" xmlns:xlink="http://www.w3.org/1999/xlink" ffdec:objectType="shape" height="165.0px" width="310.0px" xmlns="http://www.w3.org/2000/svg">
  <g transform="matrix(1.0, 0.0, 0.0, 1.0, 155.0, 82.5)">
    <path d="M154.1 -13.9 Q152.4 9.0 106.1 21.7 69.4 31.85 21.8 31.05 L-33.25 81.65 -0.4 30.1 -4.05 29.8 Q-67.95 25.1 -111.85 5.6 -155.8 -13.8 -154.1 -36.65 -152.4 -59.55 -106.1 -72.4 -59.8 -85.1 4.05 -80.4 67.9 -75.7 111.85 -56.3 155.75 -36.8 154.1 -13.9" fill="#ffffff" fill-rule="evenodd" stroke="none"/>
    <path d="M154.1 -13.9 Q152.4 9.0 106.1 21.7 69.4 31.85 21.8 31.05 L-33.25 81.65 -0.4 30.1 -4.05 29.8 Q-67.95 25.1 -111.85 5.6 -155.8 -13.8 -154.1 -36.65 -152.4 -59.55 -106.1 -72.4 -59.8 -85.1 4.05 -80.4 67.9 -75.7 111.85 -56.3 155.75 -36.8 154.1 -13.9 Z" fill="none" stroke="#000000" stroke-linecap="round" stroke-linejoin="round" stroke-width="1.7000000000000002"/>
  </g>
</svg>
