<?xml version="1.0" encoding="UTF-8" standalone="no"?>
<svg xmlns:ffdec="https://www.free-decompiler.com/flash" xmlns:xlink="http://www.w3.org/1999/xlink" ffdec:objectType="shape" height="81.65px" width="52.0px" xmlns="http://www.w3.org/2000/svg">
  <g transform="matrix(1.0, 0.0, 0.0, 1.0, 251.5, 197.1)">
    <path d="M-242.7 -196.1 L-250.5 -116.45" fill="none" stroke="#362216" stroke-linecap="round" stroke-linejoin="round" stroke-width="2.0"/>
    <path d="M-239.35 -143.55 L-244.5 -142.2 Q-246.75 -141.55 -247.2 -141.15 -248.05 -139.75 -249.1 -139.35 L-249.95 -141.0 Q-251.15 -144.75 -247.75 -145.8 L-245.45 -146.25 Q-234.2 -149.1 -233.45 -152.1 -232.75 -155.15 -232.35 -158.6 -231.95 -162.05 -232.15 -167.85 L-231.45 -177.15 -231.35 -177.45 Q-228.55 -185.55 -228.5 -186.7 -228.5 -188.3 -230.0 -189.35 -231.55 -190.4 -238.2 -191.25 L-240.4 -191.55 -243.35 -190.85 -244.4 -190.95 Q-244.6 -191.25 -244.45 -192.6 -244.15 -195.0 -239.1 -194.75 L-231.55 -193.75 -225.1 -192.9 Q-223.2 -192.45 -222.85 -191.35 -222.6 -190.45 -223.05 -187.15 L-223.85 -178.65 Q-217.55 -171.35 -213.2 -166.8 -212.1 -165.1 -211.95 -162.6 L-211.95 -154.45 Q-211.95 -149.3 -212.5 -140.5 -212.5 -137.05 -208.8 -133.2 L-203.95 -127.95 -212.75 -127.95 -216.25 -131.2 Q-221.0 -136.05 -220.95 -139.1 L-220.95 -155.4 -220.95 -157.0 -226.0 -160.4 Q-226.5 -156.45 -227.4 -153.35 L-229.05 -147.7 Q-229.85 -146.25 -233.45 -145.1 L-239.35 -143.55" fill="#ba7d56" fill-rule="evenodd" stroke="none"/>
    <path d="M-239.35 -143.55 L-233.45 -145.1 Q-229.85 -146.25 -229.05 -147.7 L-227.4 -153.35 Q-226.5 -156.45 -226.0 -160.4 L-220.95 -157.0 -220.95 -155.4 Q-223.95 -149.9 -226.2 -147.3 -228.45 -144.65 -231.2 -143.25 L-233.45 -141.8 -233.45 -141.6 -233.6 -134.6 -233.4 -127.95 -239.65 -127.95 -239.65 -137.75 -239.6 -142.05 -239.35 -143.55 M-233.45 -142.5 L-233.45 -141.8 -233.45 -142.5" fill="#9c6541" fill-rule="evenodd" stroke="none"/>
    <path d="M-239.35 -143.55 L-244.5 -142.2 Q-246.75 -141.55 -247.2 -141.15 -248.05 -139.75 -249.1 -139.35 L-249.95 -141.0 Q-251.15 -144.75 -247.75 -145.8 L-245.45 -146.25 Q-234.2 -149.1 -233.45 -152.1 -232.75 -155.15 -232.35 -158.6 -231.95 -162.05 -232.15 -167.85 L-231.45 -177.15 -231.35 -177.45 Q-228.55 -185.55 -228.5 -186.7 -228.5 -188.3 -230.0 -189.35 -231.55 -190.4 -238.2 -191.25 L-240.4 -191.55 -243.35 -190.85 -244.4 -190.95 Q-244.6 -191.25 -244.45 -192.6 -244.15 -195.0 -239.1 -194.75 L-231.55 -193.75 -225.1 -192.9 Q-223.2 -192.45 -222.85 -191.35 -222.6 -190.45 -223.05 -187.15 L-223.85 -178.65 Q-217.55 -171.35 -213.2 -166.8 -212.1 -165.1 -211.95 -162.6 L-211.95 -154.45 Q-211.95 -149.3 -212.5 -140.5 -212.5 -137.05 -208.8 -133.2 L-203.95 -127.95 -203.25 -126.95 M-220.95 -155.4 L-220.95 -157.0 -226.0 -160.4 Q-226.5 -156.45 -227.4 -153.35 L-229.05 -147.7 Q-229.85 -146.25 -233.45 -145.1 L-239.35 -143.55 -239.6 -142.05 -239.65 -137.75 -239.65 -127.95 -239.65 -126.95 M-233.4 -127.95 L-233.6 -134.6 -233.45 -141.6 -233.45 -141.8 -233.45 -142.5 M-220.95 -155.4 L-220.95 -139.1 Q-221.0 -136.05 -216.25 -131.2 L-212.75 -127.95 Q-211.1 -126.65 -210.1 -126.45 M-233.45 -141.8 L-231.2 -143.25 Q-228.45 -144.65 -226.2 -147.3 -223.95 -149.9 -220.95 -155.4 M-233.35 -126.95 L-233.4 -127.95" fill="none" stroke="#000000" stroke-linecap="round" stroke-linejoin="round" stroke-width="0.05"/>
    <path d="M-203.95 -127.95 L-199.5 -127.95 M-239.65 -127.95 L-233.4 -127.95 -212.75 -127.95 -203.95 -127.95 M-239.65 -127.95 L-240.15 -127.95" fill="none" stroke="#000000" stroke-linecap="round" stroke-linejoin="round" stroke-width="0.05"/>
  </g>
</svg>
