<?xml version="1.0" encoding="UTF-8" standalone="no"?>
<svg xmlns:ffdec="https://www.free-decompiler.com/flash" xmlns:xlink="http://www.w3.org/1999/xlink" ffdec:objectType="shape" height="55.0px" width="19.9px" xmlns="http://www.w3.org/2000/svg">
  <g transform="matrix(1.0, 0.0, 0.0, 1.0, 239.8, 171.0)">
    <path d="M-238.8 -137.6 L-236.55 -117.0" fill="none" stroke="#362216" stroke-linecap="round" stroke-linejoin="round" stroke-width="2.0"/>
    <path d="M-222.3 -170.8 L-221.8 -170.6 -221.8 -170.65 Q-220.75 -169.95 -219.95 -168.4 L-219.9 -168.0 Q-219.95 -167.8 -220.15 -167.7 L-220.5 -167.65 -220.75 -167.9 Q-221.45 -169.2 -222.2 -169.75 L-222.45 -169.85 Q-225.05 -170.6 -225.95 -168.25 L-225.95 -167.85 -226.0 -167.85 Q-226.3 -165.5 -224.25 -164.75 L-224.2 -164.7 -223.7 -164.6 Q-223.0 -164.65 -222.25 -165.05 -221.8 -165.35 -222.0 -166.1 -222.3 -167.0 -222.8 -167.4 -223.2 -167.8 -223.65 -167.6 -223.95 -167.5 -223.8 -166.95 L-223.8 -166.55 -224.05 -166.3 -224.45 -166.35 -224.7 -166.7 Q-225.15 -168.2 -224.05 -168.55 -223.15 -168.9 -222.25 -168.2 -221.5 -167.6 -221.15 -166.3 -220.65 -164.8 -221.8 -164.15 -222.75 -163.6 -223.7 -163.65 L-224.45 -163.7 Q-227.35 -164.75 -226.95 -168.0 L-226.9 -168.0 -226.9 -168.55 -226.85 -168.65 Q-225.65 -171.75 -222.3 -170.8" fill="#cccc99" fill-rule="evenodd" stroke="none"/>
  </g>
</svg>
