<?xml version="1.0" encoding="UTF-8" standalone="no"?>
<svg xmlns:ffdec="https://www.free-decompiler.com/flash" xmlns:xlink="http://www.w3.org/1999/xlink" ffdec:objectType="shape" height="64.4px" width="27.0px" xmlns="http://www.w3.org/2000/svg">
  <g transform="matrix(1.0, 0.0, 0.0, 1.0, 237.0, 185.4)">
    <path d="M-236.0 -184.4 L-234.1 -176.6 M-223.75 -134.8 L-220.4 -122.0 M-230.0 -159.35 L-226.0 -142.6" fill="none" stroke="#362216" stroke-linecap="round" stroke-linejoin="round" stroke-width="2.0"/>
    <path d="M-211.9 -167.5 L-211.85 -167.5 Q-210.85 -166.8 -210.05 -165.3 L-210.0 -164.9 -210.2 -164.6 -210.6 -164.55 -210.85 -164.8 Q-211.55 -166.05 -212.35 -166.65 L-212.55 -166.75 Q-215.15 -167.45 -216.05 -165.1 L-216.1 -164.75 -216.1 -164.7 Q-216.4 -162.35 -214.35 -161.6 L-214.3 -161.6 -213.85 -161.5 Q-213.1 -161.5 -212.4 -161.95 -211.9 -162.3 -212.1 -163.0 -212.4 -163.9 -212.9 -164.3 L-213.75 -164.5 Q-214.05 -164.35 -213.9 -163.85 L-213.9 -163.45 -214.15 -163.2 -214.55 -163.3 -214.8 -163.6 Q-215.25 -165.05 -214.15 -165.45 -213.25 -165.8 -212.4 -165.1 -211.65 -164.55 -211.25 -163.2 -210.8 -161.7 -211.85 -161.05 -212.8 -160.5 -213.75 -160.5 L-214.55 -160.65 Q-217.4 -161.7 -217.05 -164.9 L-217.0 -164.9 -216.95 -165.4 -216.95 -165.55 Q-215.75 -168.65 -212.4 -167.7 L-211.9 -167.5" fill="#cccc99" fill-rule="evenodd" stroke="none"/>
  </g>
</svg>
