<?xml version="1.0" encoding="UTF-8" standalone="no"?>
<svg xmlns:ffdec="https://www.free-decompiler.com/flash" xmlns:xlink="http://www.w3.org/1999/xlink" ffdec:objectType="shape" height="48.15px" width="235.95px" xmlns="http://www.w3.org/2000/svg">
  <g transform="matrix(1.0, 0.0, 0.0, 1.0, 117.95, 24.05)">
    <path d="M3.45 6.1 L32.4 6.1 Q61.35 7.35 89.25 1.15 108.5 -4.2 118.0 -12.75 112.05 -0.4 101.8 8.1 97.7 11.45 93.25 14.15 88.5 17.0 83.6 19.05 78.8 21.05 73.55 22.35 68.4 23.45 63.25 23.95 L57.9 24.1 -33.5 24.1 Q-40.6 23.75 -47.5 22.45 L-53.9 21.2 Q-59.8 19.8 -65.45 17.8 -70.55 15.9 -75.3 13.15 L-83.15 8.1 Q-105.65 -7.15 -117.95 -24.05 -74.8 0.4 -39.0 3.8 -18.25 6.45 3.45 6.1" fill="url(#gradient0)" fill-rule="evenodd" stroke="none"/>
    <path d="M3.45 6.1 L32.4 6.1 Q61.35 7.35 89.25 1.15 108.5 -4.2 118.0 -12.75 112.05 -0.4 101.8 8.1 97.7 11.45 93.25 14.15 88.5 17.0 83.6 19.05 78.8 21.05 73.55 22.35 68.4 23.45 63.25 23.95 L57.9 24.1 -33.5 24.1 Q-40.6 23.75 -47.5 22.45 L-53.9 21.2 Q-59.8 19.8 -65.45 17.8 -70.55 15.9 -75.3 13.15 L-83.15 8.1 Q-105.65 -7.15 -117.95 -24.05 -74.8 0.4 -39.0 3.8" fill="none" stroke="#000000" stroke-linecap="round" stroke-linejoin="round" stroke-width="0.05"/>
    <path d="M-39.0 3.8 Q-18.25 6.45 3.45 6.1" fill="none" stroke="#000000" stroke-linecap="round" stroke-linejoin="round" stroke-width="0.05"/>
    <path d="M104.05 -1.1 L104.6 -1.3 105.1 -1.1 105.35 -0.55 105.1 -0.05 104.6 0.2 104.05 -0.05 103.85 -0.55 104.05 -1.1 M-93.75 -7.9 L-93.2 -8.1 Q-92.9 -8.1 -92.7 -7.9 L-92.45 -7.35 Q-92.45 -7.05 -92.7 -6.85 -92.9 -6.6 -93.2 -6.6 -93.5 -6.6 -93.75 -6.85 L-93.95 -7.35 -93.75 -7.9 M-88.65 -5.55 L-88.4 -5.0 Q-88.4 -4.7 -88.65 -4.5 -88.85 -4.25 -89.15 -4.25 L-89.7 -4.5 -89.9 -5.0 -89.7 -5.55 -89.15 -5.75 -88.65 -5.55 M-84.75 -3.45 L-84.5 -2.9 Q-84.5 -2.6 -84.75 -2.4 -84.95 -2.15 -85.25 -2.15 L-85.8 -2.4 -86.0 -2.9 -85.8 -3.45 -85.25 -3.65 -84.75 -3.45 M-81.75 -1.45 L-81.2 -1.65 Q-80.9 -1.65 -80.7 -1.45 L-80.45 -0.9 Q-80.45 -0.6 -80.7 -0.4 -80.9 -0.15 -81.2 -0.15 L-81.75 -0.4 -81.95 -0.9 -81.75 -1.45 M-6.35 10.7 L-5.8 10.5 -5.3 10.7 -5.05 11.25 -5.3 11.75 -5.8 12.0 -6.35 11.75 -6.55 11.25 -6.35 10.7 M-9.8 11.75 L-10.3 12.0 -10.85 11.75 -11.05 11.25 -10.85 10.7 -10.3 10.5 -9.8 10.7 -9.55 11.25 -9.8 11.75 M-1.85 10.8 L-1.3 10.6 -0.8 10.8 -0.55 11.35 -0.8 11.85 -1.3 12.1 -1.85 11.85 -2.05 11.35 -1.85 10.8 M-18.8 10.7 L-18.55 11.25 -18.8 11.75 -19.3 12.0 -19.85 11.75 -20.05 11.25 -19.85 10.7 -19.3 10.5 -18.8 10.7 M-15.35 10.7 L-14.8 10.5 -14.3 10.7 -14.05 11.25 -14.3 11.75 -14.8 12.0 -15.35 11.75 -15.55 11.25 -15.35 10.7 M-27.9 10.65 Q-27.65 10.9 -27.65 11.2 L-27.9 11.7 -28.4 11.95 -28.95 11.7 -29.15 11.2 -28.95 10.65 -28.4 10.45 -27.9 10.65 M-24.35 10.7 L-23.8 10.5 -23.3 10.7 -23.05 11.25 -23.3 11.75 -23.8 12.0 -24.35 11.75 -24.55 11.25 -24.35 10.7 M-36.95 10.1 L-36.7 10.65 -36.95 11.15 Q-37.15 11.4 -37.45 11.4 L-38.0 11.15 -38.2 10.65 -38.0 10.1 -37.45 9.9 -36.95 10.1 M-33.45 10.45 L-32.9 10.25 -32.4 10.45 Q-32.15 10.7 -32.15 11.0 L-32.4 11.5 -32.9 11.75 -33.45 11.5 -33.65 11.0 -33.45 10.45 M-46.55 8.75 L-46.05 8.95 -45.8 9.5 -46.05 10.0 Q-46.25 10.25 -46.55 10.25 L-47.1 10.0 -47.3 9.5 -47.1 8.95 -46.55 8.75 M-50.25 8.75 L-50.5 9.25 -51.0 9.5 -51.55 9.25 -51.75 8.75 -51.55 8.2 -51.0 8.0 -50.5 8.2 -50.25 8.75 M-42.55 9.6 L-42.0 9.4 -41.5 9.6 -41.25 10.15 -41.5 10.65 -42.0 10.9 -42.55 10.65 -42.75 10.15 -42.55 9.6 M-56.0 7.3 L-55.45 7.1 -54.95 7.3 Q-54.7 7.55 -54.7 7.85 L-54.95 8.35 Q-55.15 8.6 -55.45 8.6 L-56.0 8.35 -56.2 7.85 -56.0 7.3 M-60.45 6.25 L-59.9 6.05 -59.4 6.25 Q-59.15 6.5 -59.15 6.8 L-59.4 7.3 -59.9 7.55 -60.45 7.3 -60.65 6.8 -60.45 6.25 M-64.8 5.05 L-64.25 4.85 -63.75 5.05 Q-63.5 5.3 -63.5 5.6 L-63.75 6.1 Q-63.95 6.35 -64.25 6.35 L-64.8 6.1 -65.0 5.6 -64.8 5.05 M-68.1 3.65 L-67.85 4.2 -68.1 4.7 -68.6 4.95 -69.15 4.7 -69.35 4.2 -69.15 3.65 -68.6 3.45 Q-68.3 3.45 -68.1 3.65 M-73.4 2.1 L-72.85 1.9 -72.35 2.1 -72.1 2.65 -72.35 3.15 Q-72.55 3.4 -72.85 3.4 L-73.4 3.15 -73.6 2.65 -73.4 2.1 M-76.55 0.4 L-76.3 0.95 -76.55 1.45 Q-76.75 1.7 -77.05 1.7 L-77.6 1.45 -77.8 0.95 -77.6 0.4 -77.05 0.2 -76.55 0.4 M100.1 0.9 L100.65 0.7 101.15 0.9 101.4 1.45 101.15 1.95 100.65 2.2 100.1 1.95 99.9 1.45 100.1 0.9 M96.95 2.75 L97.2 3.3 96.95 3.8 96.45 4.05 95.9 3.8 95.7 3.3 95.9 2.75 96.45 2.55 96.95 2.75 M91.75 4.45 L92.3 4.25 92.8 4.45 93.05 5.0 92.8 5.5 92.3 5.75 91.75 5.5 91.55 5.0 91.75 4.45 M88.1 5.7 L88.6 5.9 88.85 6.45 88.6 6.95 88.1 7.2 87.55 6.95 87.35 6.45 87.55 5.9 88.1 5.7 M84.25 7.2 L84.5 7.75 84.25 8.25 83.75 8.5 83.2 8.25 83.0 7.75 83.2 7.2 83.75 7.0 84.25 7.2 M75.05 9.0 L75.55 9.2 75.8 9.75 75.55 10.25 75.05 10.5 74.5 10.25 74.3 9.75 74.5 9.2 75.05 9.0 M71.35 10.5 L71.1 11.0 70.6 11.25 70.05 11.0 69.85 10.5 70.05 9.95 70.6 9.75 71.1 9.95 71.35 10.5 M78.85 8.3 L79.4 8.1 79.9 8.3 80.15 8.85 79.9 9.35 79.4 9.6 78.85 9.35 78.65 8.85 78.85 8.3 M62.2 11.0 L62.45 11.55 62.2 12.05 61.7 12.3 61.15 12.05 60.95 11.55 61.15 11.0 61.7 10.8 62.2 11.0 M65.6 10.55 L66.15 10.35 66.65 10.55 66.9 11.1 66.65 11.6 66.15 11.85 65.6 11.6 65.4 11.1 65.6 10.55 M53.2 11.4 L53.45 11.95 53.2 12.45 52.7 12.7 52.15 12.45 51.95 11.95 52.15 11.4 52.7 11.2 53.2 11.4 M56.7 11.3 L57.25 11.1 57.75 11.3 58.0 11.85 57.75 12.35 57.25 12.6 56.7 12.35 56.5 11.85 56.7 11.3 M44.2 11.3 L44.45 11.85 44.2 12.35 43.7 12.6 43.15 12.35 42.95 11.85 43.15 11.3 43.7 11.1 44.2 11.3 M47.65 11.3 L48.2 11.1 48.7 11.3 48.95 11.85 48.7 12.35 48.2 12.6 47.65 12.35 47.45 11.85 47.65 11.3 M30.7 12.15 L30.2 12.4 Q29.9 12.4 29.65 12.15 L29.45 11.65 29.65 11.1 30.2 10.9 30.7 11.1 30.95 11.65 30.7 12.15 M35.2 11.2 L35.45 11.75 35.2 12.25 34.7 12.5 34.15 12.25 33.95 11.75 34.15 11.2 34.7 11.0 35.2 11.2 M38.65 11.2 L39.2 11.0 39.7 11.2 39.95 11.75 39.7 12.25 39.2 12.5 38.65 12.25 38.45 11.75 38.65 11.2 M21.7 11.0 L21.95 11.55 21.7 12.05 21.2 12.3 Q20.9 12.3 20.65 12.05 L20.45 11.55 20.65 11.0 21.2 10.8 21.7 11.0 M25.15 11.1 L25.7 10.9 26.2 11.1 26.45 11.65 26.2 12.15 25.7 12.4 Q25.4 12.4 25.15 12.15 L24.95 11.65 25.15 11.1 M12.7 10.9 L12.95 11.45 12.7 11.95 12.2 12.2 11.65 11.95 11.45 11.45 11.65 10.9 12.2 10.7 12.7 10.9 M16.15 11.0 L16.7 10.8 17.2 11.0 17.45 11.55 17.2 12.05 16.7 12.3 16.15 12.05 15.95 11.55 16.15 11.0 M3.7 10.8 L3.95 11.35 3.7 11.85 3.2 12.1 2.65 11.85 2.45 11.35 2.65 10.8 3.2 10.6 3.7 10.8 M7.15 10.9 L7.7 10.7 8.2 10.9 8.45 11.45 8.2 11.95 7.7 12.2 7.15 11.95 6.95 11.45 7.15 10.9" fill="#ddddbb" fill-rule="evenodd" stroke="none"/>
  </g>
  <defs>
    <linearGradient gradientTransform="matrix(0.0, 0.0294, -0.144, 0.0, 0.0, 0.0)" gradientUnits="userSpaceOnUse" id="gradient0" spreadMethod="pad" x1="-819.2" x2="819.2">
      <stop offset="0.47058823529411764" stop-color="#c87451"/>
      <stop offset="1.0" stop-color="#6d503d"/>
    </linearGradient>
  </defs>
</svg>
