<?xml version="1.0" encoding="UTF-8" standalone="no"?>
<svg xmlns:ffdec="https://www.free-decompiler.com/flash" xmlns:xlink="http://www.w3.org/1999/xlink" ffdec:objectType="shape" height="15.4px" width="27.65px" xmlns="http://www.w3.org/2000/svg">
  <g transform="matrix(1.0, 0.0, 0.0, 1.0, 15.35, 2.95)">
    <path d="M11.5 9.15 L11.55 9.15 11.55 9.2 11.5 9.15 M11.8 9.5 L11.7 9.4 11.15 7.5 12.3 10.1 11.8 9.5" fill="#97d6f0" fill-rule="evenodd" stroke="none"/>
    <path d="M-14.85 4.2 L-12.55 1.4 Q-11.4 0.15 -10.35 0.15 -8.75 0.15 -6.5 1.15 L-3.45 2.15 Q-0.95 2.15 0.25 -0.15 1.45 -2.45 2.1 -2.45 3.3 -2.45 6.85 1.75 8.6 3.85 11.55 9.15 L11.5 9.15 Q9.1 14.3 -3.4 11.45 -17.25 8.3 -13.65 3.5 L-14.85 4.2" fill="url(#gradient0)" fill-rule="evenodd" stroke="none"/>
    <path d="M11.55 9.15 Q8.6 3.85 6.85 1.75 3.3 -2.45 2.1 -2.45 1.45 -2.45 0.25 -0.15 -0.95 2.15 -3.45 2.15 L-6.5 1.15 Q-8.75 0.15 -10.35 0.15 -11.4 0.15 -12.55 1.4 L-14.85 4.2 M11.55 9.15 L11.55 9.2 11.8 9.5" fill="none" stroke="#000000" stroke-linecap="round" stroke-linejoin="round" stroke-width="1.0"/>
  </g>
  <defs>
    <linearGradient gradientTransform="matrix(-0.0014, 0.0089, -0.0162, -0.0026, -1.25, 4.45)" gradientUnits="userSpaceOnUse" id="gradient0" spreadMethod="pad" x1="-819.2" x2="819.2">
      <stop offset="0.6666666666666666" stop-color="#97d6f0" stop-opacity="0.8"/>
      <stop offset="0.8549019607843137" stop-color="#97d6f0" stop-opacity="0.0"/>
    </linearGradient>
  </defs>
</svg>
