<?xml version="1.0" encoding="UTF-8" standalone="no"?>
<svg xmlns:ffdec="https://www.free-decompiler.com/flash" xmlns:xlink="http://www.w3.org/1999/xlink" ffdec:objectType="shape" height="34.95px" width="82.05px" xmlns="http://www.w3.org/2000/svg">
  <g transform="matrix(1.0, 0.0, 0.0, 1.0, 41.0, 17.45)">
    <path d="M-40.25 16.75 L-36.95 12.0 Q-34.65 8.3 -31.95 8.0 -29.3 7.7 -25.2 10.65 -21.15 13.6 -17.7 13.0 -14.25 12.4 -17.55 7.25 -21.95 -2.0 -14.0 1.5 -9.2 5.85 -6.65 8.5 -4.15 11.1 -1.85 9.7 1.25 7.45 -0.45 3.05 -2.15 -1.35 -3.25 -3.05 -4.3 -4.8 -4.8 -7.55 -5.3 -10.35 -3.05 -10.95 -0.85 -11.55 3.45 -5.05 L8.3 2.25 Q9.95 4.5 11.5 4.5 12.75 4.5 13.35 3.9 15.65 2.3 13.35 -7.3 11.1 -16.95 15.75 -16.7 20.2 -14.75 22.75 -7.45 L26.7 4.5 Q28.8 8.25 32.25 2.4 35.6 -3.45 36.75 -6.25 37.85 -9.05 39.6 -7.4 41.3 -5.8 39.0 3.3 36.9 11.5 31.8 16.75 L-40.25 16.75" fill="url(#gradient0)" fill-rule="evenodd" stroke="none"/>
    <path d="M31.8 16.75 Q36.9 11.5 39.0 3.3 41.3 -5.8 39.6 -7.4 37.85 -9.05 36.75 -6.25 35.6 -3.45 32.25 2.4 28.8 8.25 26.7 4.5 L22.75 -7.45 Q20.2 -14.75 15.75 -16.7 11.1 -16.95 13.35 -7.3 15.65 2.3 13.35 3.9 12.75 4.5 11.5 4.5 9.95 4.5 8.3 2.25 L3.45 -5.05 Q-0.85 -11.55 -3.05 -10.95 -5.3 -10.35 -4.8 -7.55 -4.3 -4.8 -3.25 -3.05 -2.15 -1.35 -0.45 3.05 1.25 7.45 -1.85 9.7 -4.15 11.1 -6.65 8.5 -9.2 5.85 -14.0 1.5 -21.95 -2.0 -17.55 7.25 -14.25 12.4 -17.7 13.0 -21.15 13.6 -25.2 10.65 -29.3 7.7 -31.95 8.0 -34.65 8.3 -36.95 12.0 L-40.25 16.75" fill="none" stroke="#000000" stroke-linecap="round" stroke-linejoin="round" stroke-width="1.5"/>
  </g>
  <defs>
    <linearGradient gradientTransform="matrix(0.0, 0.0143, -0.0497, 0.0, -0.65, 9.3)" gradientUnits="userSpaceOnUse" id="gradient0" spreadMethod="pad" x1="-819.2" x2="819.2">
      <stop offset="0.6666666666666666" stop-color="#97d6f0" stop-opacity="0.8"/>
      <stop offset="0.8549019607843137" stop-color="#97d6f0" stop-opacity="0.0"/>
    </linearGradient>
  </defs>
</svg>
