<?xml version="1.0" encoding="UTF-8" standalone="no"?>
<svg xmlns:ffdec="https://www.free-decompiler.com/flash" xmlns:xlink="http://www.w3.org/1999/xlink" ffdec:objectType="shape" height="25.7px" width="71.7px" xmlns="http://www.w3.org/2000/svg">
  <g transform="matrix(1.0, 0.0, 0.0, 1.0, 33.1, 8.25)">
    <path d="M-32.35 16.7 Q-32.05 13.05 -31.45 11.75 -29.65 7.9 -26.3 11.05 -22.95 14.15 -20.45 14.65 -18.0 15.05 -18.0 12.15 L-19.8 5.3 Q-18.85 2.2 -13.7 5.7 -8.6 9.2 -4.5 10.9 -0.4 12.55 -2.55 6.7 -4.05 1.25 -3.6 -0.6 -2.2 -3.85 0.0 -1.3 L6.15 5.05 Q10.05 8.85 12.05 6.95 14.0 5.0 13.8 -1.3 13.65 -7.6 16.75 -7.5 19.8 -7.45 21.25 -2.5 L23.95 5.8 Q25.2 9.15 27.75 6.95 30.25 4.75 32.7 3.5 35.1 2.25 36.0 2.75 L37.35 3.8 Q37.8 4.3 37.85 6.05 37.9 7.75 35.45 11.35 33.2 14.65 32.3 16.7 L-32.35 16.7" fill="url(#gradient0)" fill-rule="evenodd" stroke="none"/>
    <path d="M32.3 16.7 Q33.2 14.65 35.45 11.35 37.9 7.75 37.85 6.05 37.8 4.3 37.35 3.8 L36.0 2.75 Q35.1 2.25 32.7 3.5 30.25 4.75 27.75 6.95 25.2 9.15 23.95 5.8 L21.25 -2.5 Q19.8 -7.45 16.75 -7.5 13.65 -7.6 13.8 -1.3 14.0 5.0 12.05 6.95 10.05 8.85 6.15 5.05 L0.0 -1.3 Q-2.2 -3.85 -3.6 -0.6 -4.05 1.25 -2.55 6.7 -0.4 12.55 -4.5 10.9 -8.6 9.2 -13.7 5.7 -18.85 2.2 -19.8 5.3 L-18.0 12.15 Q-18.0 15.05 -20.45 14.65 -22.95 14.15 -26.3 11.05 -29.65 7.9 -31.45 11.75 -32.05 13.05 -32.35 16.7" fill="none" stroke="#000000" stroke-linecap="round" stroke-linejoin="round" stroke-width="1.5"/>
  </g>
  <defs>
    <linearGradient gradientTransform="matrix(0.0, 0.0072, -0.0428, 0.0, 1.1, 11.15)" gradientUnits="userSpaceOnUse" id="gradient0" spreadMethod="pad" x1="-819.2" x2="819.2">
      <stop offset="0.6666666666666666" stop-color="#97d6f0" stop-opacity="0.8"/>
      <stop offset="0.8549019607843137" stop-color="#97d6f0" stop-opacity="0.0"/>
    </linearGradient>
  </defs>
</svg>
