<?xml version="1.0" encoding="UTF-8" standalone="no"?>
<svg xmlns:ffdec="https://www.free-decompiler.com/flash" xmlns:xlink="http://www.w3.org/1999/xlink" ffdec:objectType="shape" height="17.1px" width="47.65px" xmlns="http://www.w3.org/2000/svg">
  <g transform="matrix(1.0, 0.0, 0.0, 1.0, 15.5, -1.0)">
    <path d="M-14.75 17.3 Q-10.9 15.9 -10.85 11.75 L-10.6 8.6 Q-10.1 7.2 -8.25 7.2 -5.45 7.2 -1.6 10.5 2.25 13.8 4.2 13.8 5.9 13.8 5.8 10.55 5.45 4.6 5.7 3.4 6.8 0.1 10.2 3.4 12.75 6.85 14.4 9.9 16.0 12.95 18.3 12.7 20.6 12.4 20.45 7.4 20.3 2.35 22.05 2.35 25.0 2.3 28.45 8.55 31.75 14.4 31.25 16.95 L31.25 17.35 -14.75 17.3" fill="url(#gradient0)" fill-rule="evenodd" stroke="none"/>
    <path d="M-14.75 17.3 Q-10.9 15.9 -10.85 11.75 L-10.6 8.6 Q-10.1 7.2 -8.25 7.2 -5.45 7.2 -1.6 10.5 2.25 13.8 4.2 13.8 5.9 13.8 5.8 10.55 5.45 4.6 5.7 3.4 6.8 0.1 10.2 3.4 12.75 6.85 14.4 9.9 16.0 12.95 18.3 12.7 20.6 12.4 20.45 7.4 20.3 2.35 22.05 2.35 25.0 2.3 28.45 8.55 31.75 14.4 31.25 16.95 L31.25 17.35" fill="none" stroke="#000000" stroke-linecap="round" stroke-linejoin="round" stroke-width="1.5"/>
    <path d="M31.25 17.35 L32.15 17.35 M-14.75 17.3 L-15.45 17.5" fill="none" stroke="#000000" stroke-linecap="round" stroke-linejoin="round" stroke-width="0.05"/>
  </g>
  <defs>
    <linearGradient gradientTransform="matrix(0.0, 0.0095, -0.0281, 0.0, 9.2, 11.15)" gradientUnits="userSpaceOnUse" id="gradient0" spreadMethod="pad" x1="-819.2" x2="819.2">
      <stop offset="0.6666666666666666" stop-color="#97d6f0" stop-opacity="0.8"/>
      <stop offset="0.8549019607843137" stop-color="#97d6f0" stop-opacity="0.0"/>
    </linearGradient>
  </defs>
</svg>
