<?xml version="1.0" encoding="UTF-8" standalone="no"?>
<svg xmlns:ffdec="https://www.free-decompiler.com/flash" xmlns:xlink="http://www.w3.org/1999/xlink" ffdec:objectType="shape" height="18.6px" width="43.65px" xmlns="http://www.w3.org/2000/svg">
  <g transform="matrix(1.0, 0.0, 0.0, 1.0, 17.95, 0.0)">
    <path d="M24.8 16.2 L24.8 17.1 -8.9 17.1 -9.5 17.85 -13.2 14.95 Q-18.05 11.2 -17.05 8.75 -16.1 6.25 -5.85 12.35 -4.05 13.35 -1.55 14.0 0.9 14.65 1.7 11.55 2.5 8.4 2.25 6.5 1.55 -0.8 9.15 7.8 16.75 16.4 16.6 9.7 16.4 3.0 16.55 2.3 16.8 0.75 18.15 0.75 19.95 0.75 22.75 5.25 25.55 9.75 24.8 16.2" fill="url(#gradient0)" fill-rule="evenodd" stroke="none"/>
    <path d="M-9.5 17.85 L-13.2 14.95 Q-18.05 11.2 -17.05 8.75 -16.1 6.25 -5.85 12.35 -4.05 13.35 -1.55 14.0 0.9 14.65 1.7 11.55 2.5 8.4 2.25 6.5 1.55 -0.8 9.15 7.8 16.75 16.4 16.6 9.7 16.4 3.0 16.55 2.3 16.8 0.75 18.15 0.75 19.95 0.75 22.75 5.25 25.55 9.75 24.8 16.2" fill="none" stroke="#000000" stroke-linecap="round" stroke-linejoin="round" stroke-width="1.5"/>
  </g>
  <defs>
    <linearGradient gradientTransform="matrix(0.0, 0.0104, -0.0257, 0.0, 3.9, 9.3)" gradientUnits="userSpaceOnUse" id="gradient0" spreadMethod="pad" x1="-819.2" x2="819.2">
      <stop offset="0.6666666666666666" stop-color="#97d6f0" stop-opacity="0.8"/>
      <stop offset="0.8549019607843137" stop-color="#97d6f0" stop-opacity="0.0"/>
    </linearGradient>
  </defs>
</svg>
