<?xml version="1.0" encoding="UTF-8" standalone="no"?>
<svg xmlns:ffdec="https://www.free-decompiler.com/flash" xmlns:xlink="http://www.w3.org/1999/xlink" ffdec:objectType="shape" height="49.35px" width="141.35px" xmlns="http://www.w3.org/2000/svg">
  <g transform="matrix(1.0, 0.0, 0.0, 1.0, 70.65, 24.65)">
    <path d="M6.0 21.2 L-0.35 22.45 Q-7.3 23.75 -14.35 24.1 L-64.5 24.1 -70.05 16.8 -63.2 6.1 -51.35 6.1 Q-29.65 6.45 -8.85 3.8 26.9 0.4 70.1 -24.05 57.75 -7.15 35.3 8.1 L27.4 13.15 Q22.65 15.9 17.55 17.8 L14.2 18.95 6.0 21.2" fill="url(#gradient0)" fill-rule="evenodd" stroke="none"/>
    <path d="M6.0 21.2 L14.2 18.95 17.55 17.8 Q22.65 15.9 27.4 13.15 L35.3 8.1 Q57.75 -7.15 70.1 -24.05 26.9 0.4 -8.85 3.8 -29.65 6.45 -51.35 6.1 L-63.2 6.1 -70.05 16.8 -64.5 24.1 -14.35 24.1 Q-7.3 23.75 -0.35 22.45 L6.0 21.2 Z" fill="none" stroke="#000000" stroke-linecap="round" stroke-linejoin="round" stroke-width="1.2000000000000002"/>
    <path d="M45.8 -7.9 L46.05 -7.35 45.8 -6.85 Q45.6 -6.6 45.3 -6.6 45.0 -6.6 44.75 -6.85 L44.55 -7.35 44.75 -7.9 45.3 -8.1 45.8 -7.9 M40.75 -5.55 L41.3 -5.75 41.8 -5.55 42.05 -5.0 41.8 -4.5 Q41.6 -4.25 41.3 -4.25 L40.75 -4.5 40.55 -5.0 40.75 -5.55 M38.25 -2.95 L38.0 -2.45 Q37.8 -2.2 37.5 -2.2 37.2 -2.2 36.95 -2.45 L36.75 -2.95 36.95 -3.5 37.5 -3.7 38.0 -3.5 38.25 -2.95 M28.85 0.3 L29.4 0.1 29.9 0.3 30.15 0.85 29.9 1.35 29.4 1.6 28.85 1.35 28.65 0.85 28.85 0.3 M32.95 -1.55 L33.5 -1.75 34.0 -1.55 34.25 -1.0 34.0 -0.5 Q33.8 -0.25 33.5 -0.25 33.2 -0.25 32.95 -0.5 L32.75 -1.0 32.95 -1.55 M25.25 1.8 L25.75 2.0 26.0 2.55 25.75 3.05 25.25 3.3 Q24.95 3.3 24.7 3.05 L24.5 2.55 24.7 2.0 25.25 1.8 M20.5 3.55 L21.05 3.35 21.55 3.55 21.8 4.1 21.55 4.6 21.05 4.85 20.5 4.6 20.3 4.1 20.5 3.55 M4.3 8.15 L4.55 8.7 4.3 9.2 3.8 9.45 3.25 9.2 3.05 8.7 3.25 8.15 3.8 7.95 4.3 8.15 M-1.2 8.9 L-0.65 8.7 -0.15 8.9 0.1 9.45 -0.15 9.95 Q-0.35 10.2 -0.65 10.2 L-1.2 9.95 -1.4 9.45 -1.2 8.9 M17.3 4.95 L17.55 5.5 17.3 6.0 16.8 6.25 16.25 6.0 16.05 5.5 16.25 4.95 16.8 4.75 17.3 4.95 M13.25 6.7 L13.0 7.2 12.5 7.45 11.95 7.2 11.75 6.7 11.95 6.15 12.5 5.95 13.0 6.15 13.25 6.7 M7.6 7.2 L8.15 7.0 8.65 7.2 8.9 7.75 8.65 8.25 8.15 8.5 7.6 8.25 7.4 7.75 7.6 7.2 M-22.35 11.25 L-22.6 11.75 -23.1 12.0 -23.65 11.75 -23.85 11.25 -23.65 10.7 -23.1 10.5 Q-22.8 10.5 -22.6 10.7 L-22.35 11.25 M-19.15 10.65 L-18.6 10.45 Q-18.3 10.45 -18.1 10.65 L-17.85 11.2 -18.1 11.7 -18.6 11.95 -19.15 11.7 -19.35 11.2 -19.15 10.65 M-13.6 10.4 L-13.35 10.95 -13.6 11.45 -14.1 11.7 -14.65 11.45 -14.85 10.95 -14.65 10.4 -14.1 10.2 Q-13.8 10.2 -13.6 10.4 M-10.15 10.05 L-9.6 9.85 Q-9.3 9.85 -9.1 10.05 L-8.85 10.6 -9.1 11.1 -9.6 11.35 -10.15 11.1 -10.35 10.6 -10.15 10.05 M-4.65 9.55 L-4.4 10.1 -4.65 10.6 Q-4.85 10.85 -5.15 10.85 L-5.7 10.6 -5.9 10.1 -5.7 9.55 -5.15 9.35 -4.65 9.55 M-41.65 10.8 L-41.1 10.6 Q-40.8 10.6 -40.6 10.8 L-40.35 11.35 -40.6 11.85 -41.1 12.1 -41.65 11.85 -41.85 11.35 -41.65 10.8 M-36.1 10.8 L-35.85 11.35 -36.1 11.85 -36.6 12.1 -37.15 11.85 -37.35 11.35 -37.15 10.8 -36.6 10.6 Q-36.3 10.6 -36.1 10.8 M-28.35 11.25 L-28.15 10.7 -27.6 10.5 Q-27.3 10.5 -27.1 10.7 L-26.85 11.25 -27.1 11.75 -27.6 12.0 -28.15 11.75 -28.35 11.25 M-32.65 10.7 L-32.1 10.5 Q-31.8 10.5 -31.6 10.7 L-31.35 11.25 -31.6 11.75 -32.1 12.0 -32.65 11.75 -32.85 11.25 -32.65 10.7 M-62.85 11.65 L-63.1 12.15 -63.6 12.4 -64.15 12.15 -64.35 11.65 -64.15 11.1 -63.6 10.9 Q-63.3 10.9 -63.1 11.1 L-62.85 11.65 M-59.65 11.0 L-59.1 10.8 Q-58.8 10.8 -58.6 11.0 L-58.35 11.55 -58.6 12.05 -59.1 12.3 -59.65 12.05 -59.85 11.55 -59.65 11.0 M-54.1 11.0 L-53.85 11.55 -54.1 12.05 -54.6 12.3 -55.15 12.05 -55.35 11.55 -55.15 11.0 -54.6 10.8 Q-54.3 10.8 -54.1 11.0 M-50.65 10.9 L-50.1 10.7 Q-49.8 10.7 -49.6 10.9 L-49.35 11.45 -49.6 11.95 -50.1 12.2 -50.65 11.95 -50.85 11.45 -50.65 10.9 M-45.1 10.9 L-44.85 11.45 -45.1 11.95 -45.6 12.2 -46.15 11.95 -46.35 11.45 -46.15 10.9 -45.6 10.7 Q-45.3 10.7 -45.1 10.9" fill="#ddddbb" fill-rule="evenodd" stroke="none"/>
  </g>
  <defs>
    <linearGradient gradientTransform="matrix(0.0, 0.0294, 0.144, 0.0, -47.9, 0.0)" gradientUnits="userSpaceOnUse" id="gradient0" spreadMethod="pad" x1="-819.2" x2="819.2">
      <stop offset="0.47058823529411764" stop-color="#c87451"/>
      <stop offset="1.0" stop-color="#6d503d"/>
    </linearGradient>
  </defs>
</svg>
