<?xml version="1.0" encoding="UTF-8" standalone="no"?>
<svg xmlns:ffdec="https://www.free-decompiler.com/flash" xmlns:xlink="http://www.w3.org/1999/xlink" ffdec:objectType="shape" height="38.05px" width="103.85px" xmlns="http://www.w3.org/2000/svg">
  <g transform="matrix(1.0, 0.0, 0.0, 1.0, 51.95, 19.0)">
    <path d="M51.3 0.45 L44.45 11.15 50.0 18.45 8.7 18.45 3.4 18.3 Q-1.8 17.8 -6.95 16.7 -12.2 15.4 -16.95 13.4 -21.9 11.35 -26.6 8.5 -31.1 5.8 -35.15 2.45 -45.45 -6.05 -51.35 -18.4 -41.9 -9.85 -22.65 -4.5 5.25 1.7 34.25 0.45 L51.3 0.45" fill="url(#gradient0)" fill-rule="evenodd" stroke="none"/>
    <path d="M51.3 0.45 L34.25 0.45 Q5.25 1.7 -22.65 -4.5 -41.9 -9.85 -51.35 -18.4 -45.45 -6.05 -35.15 2.45 -31.1 5.8 -26.6 8.5 -21.9 11.35 -16.95 13.4 -12.2 15.4 -6.95 16.7 -1.8 17.8 3.4 18.3 L8.7 18.45 50.0 18.45 44.45 11.15 51.3 0.45 Z" fill="none" stroke="#000000" stroke-linecap="round" stroke-linejoin="round" stroke-width="1.2000000000000002"/>
    <path d="M43.2 5.45 L43.75 5.25 44.25 5.45 44.5 6.0 44.25 6.5 43.75 6.75 43.2 6.5 43.0 6.0 43.2 5.45 M21.75 5.75 L22.0 6.3 21.75 6.8 21.25 7.05 20.7 6.8 20.5 6.3 20.7 5.75 21.25 5.55 21.75 5.75 M25.2 5.65 L25.75 5.45 26.25 5.65 26.5 6.2 26.25 6.7 25.75 6.95 25.2 6.7 25.0 6.2 25.2 5.65 M29.7 5.65 L30.25 5.45 30.75 5.65 31.0 6.2 30.75 6.7 30.25 6.95 29.7 6.7 29.5 6.2 29.7 5.65 M34.2 5.55 Q34.45 5.35 34.75 5.35 L35.25 5.55 35.5 6.1 35.25 6.6 34.75 6.85 34.2 6.6 34.0 6.1 34.2 5.55 M38.7 5.55 L39.25 5.35 39.75 5.55 40.0 6.1 39.75 6.6 39.25 6.85 38.7 6.6 38.5 6.1 38.7 5.55 M3.7 5.2 L3.95 5.75 3.7 6.25 3.2 6.5 2.65 6.25 2.45 5.75 2.65 5.2 3.2 5.0 3.7 5.2 M7.2 5.55 L7.75 5.35 8.25 5.55 8.5 6.1 8.25 6.6 7.75 6.85 7.2 6.6 7.0 6.1 7.2 5.55 M12.75 5.75 L13.0 6.3 12.75 6.8 12.25 7.05 11.7 6.8 11.5 6.3 11.7 5.75 12.25 5.55 12.75 5.75 M16.2 5.75 Q16.45 5.55 16.75 5.55 L17.25 5.75 17.5 6.3 17.25 6.8 16.75 7.05 16.2 6.8 16.0 6.3 16.2 5.75 M-19.3 0.75 L-18.8 0.95 -18.55 1.5 -18.8 2.0 -19.3 2.25 -19.85 2.0 -20.05 1.5 -19.85 0.95 -19.3 0.75 M-15.4 2.15 L-14.85 1.95 -14.35 2.15 -14.1 2.7 -14.35 3.2 Q-14.55 3.45 -14.85 3.45 L-15.4 3.2 -15.6 2.7 -15.4 2.15 M-11.0 3.15 L-10.45 2.95 -9.95 3.15 Q-9.7 3.4 -9.7 3.7 L-9.95 4.2 Q-10.15 4.45 -10.45 4.45 L-11.0 4.2 -11.2 3.7 -11.0 3.15 M-5.9 3.8 L-5.4 4.0 -5.15 4.55 -5.4 5.05 -5.9 5.3 -6.45 5.05 -6.65 4.55 -6.45 4.0 -5.9 3.8 M-1.9 4.65 L-1.35 4.45 -0.85 4.65 -0.6 5.2 -0.85 5.7 Q-1.05 5.95 -1.35 5.95 L-1.9 5.7 -2.1 5.2 -1.9 4.65 M-36.65 -5.75 L-36.1 -5.95 Q-35.8 -5.95 -35.6 -5.75 L-35.35 -5.2 Q-35.35 -4.9 -35.6 -4.7 -35.8 -4.45 -36.1 -4.45 -36.4 -4.45 -36.65 -4.7 -36.85 -4.9 -36.85 -5.2 L-36.65 -5.75 M-39.35 -7.4 Q-39.35 -7.1 -39.6 -6.9 -39.8 -6.65 -40.1 -6.65 L-40.65 -6.9 Q-40.85 -7.1 -40.85 -7.4 L-40.65 -7.95 -40.1 -8.15 Q-39.8 -8.15 -39.6 -7.95 L-39.35 -7.4 M-32.6 -3.75 L-32.05 -3.95 -31.55 -3.75 -31.3 -3.2 Q-31.3 -2.9 -31.55 -2.7 -31.75 -2.45 -32.05 -2.45 -32.35 -2.45 -32.6 -2.7 L-32.8 -3.2 -32.6 -3.75 M-24.2 -0.4 L-23.65 -0.6 -23.15 -0.4 -22.9 0.15 -23.15 0.65 Q-23.35 0.9 -23.65 0.9 L-24.2 0.65 -24.4 0.15 -24.2 -0.4 M-27.4 -2.0 L-27.15 -1.45 Q-27.15 -1.15 -27.4 -0.95 -27.6 -0.7 -27.9 -0.7 L-28.45 -0.95 -28.65 -1.45 -28.45 -2.0 -27.9 -2.2 -27.4 -2.0" fill="#ddddbb" fill-rule="evenodd" stroke="none"/>
  </g>
  <defs>
    <linearGradient gradientTransform="matrix(0.0, 0.0294, 0.144, 0.0, 66.6, -5.65)" gradientUnits="userSpaceOnUse" id="gradient0" spreadMethod="pad" x1="-819.2" x2="819.2">
      <stop offset="0.47058823529411764" stop-color="#c87451"/>
      <stop offset="1.0" stop-color="#6d503d"/>
    </linearGradient>
  </defs>
</svg>
