<?xml version="1.0" encoding="UTF-8" standalone="no"?>
<svg xmlns:ffdec="https://www.free-decompiler.com/flash" xmlns:xlink="http://www.w3.org/1999/xlink" ffdec:objectType="shape" height="26.9px" width="115.15px" xmlns="http://www.w3.org/2000/svg">
  <g transform="matrix(1.0, 0.0, 0.0, 1.0, 265.35, 181.3)">
    <path d="M-175.85 -170.5 L-177.25 -170.5 -175.85 -171.25 -175.85 -170.5 M-228.6 -165.85 L-228.95 -166.05 -228.6 -166.0 -228.6 -165.85" fill="#7e5134" fill-rule="evenodd" stroke="none"/>
    <path d="M-228.2 -175.15 L-226.15 -175.4 -218.25 -176.55 Q-208.35 -176.6 -204.8 -175.55 -201.25 -174.5 -198.35 -174.3 -196.55 -175.85 -189.8 -175.75 L-189.5 -175.8 -177.85 -176.45 Q-174.85 -178.7 -170.8 -179.8 -167.65 -180.65 -164.6 -180.5 L-162.75 -180.45 -161.75 -180.6 -158.6 -181.3 -150.2 -176.05 Q-149.9 -174.65 -154.15 -175.75 -158.4 -176.85 -158.95 -176.6 L-159.4 -176.45 -164.45 -176.8 Q-166.5 -176.45 -167.45 -175.9 L-169.6 -174.75 -159.95 -174.05 -155.95 -173.7 -150.65 -168.2 -150.65 -167.1 -152.55 -167.1 Q-154.45 -168.8 -157.85 -170.5 L-175.85 -170.5 -175.85 -171.25 Q-171.75 -173.55 -169.6 -174.75 -171.75 -173.55 -175.85 -171.25 L-177.25 -170.5 Q-183.5 -167.1 -185.6 -166.7 L-190.1 -166.2 -194.55 -165.9 -196.5 -165.8 -193.85 -161.85 -193.7 -161.6 Q-193.45 -161.3 -191.65 -160.75 -190.35 -160.35 -190.35 -158.65 -190.35 -156.85 -188.4 -157.0 -186.5 -157.2 -186.5 -156.2 -186.5 -154.95 -187.35 -154.6 L-189.7 -154.4 Q-191.7 -154.4 -192.65 -154.95 L-196.25 -157.8 -197.4 -159.1 Q-199.8 -161.7 -200.75 -162.0 -213.4 -155.0 -216.1 -155.0 -218.55 -155.0 -220.95 -157.9 L-222.05 -159.35 Q-225.3 -164.05 -228.6 -165.85 L-228.6 -166.0 -228.95 -166.05 -244.45 -166.9 Q-248.65 -166.25 -253.15 -164.55 L-258.45 -161.4 Q-261.3 -159.9 -262.9 -159.45 -265.75 -158.75 -265.3 -161.3 -265.0 -163.1 -261.15 -165.5 L-256.85 -167.85 Q-248.85 -171.85 -245.05 -172.9 -241.25 -173.95 -234.9 -174.5 L-228.25 -175.15 -228.2 -175.15 M-215.55 -163.15 Q-211.65 -165.4 -210.1 -165.8 L-205.15 -167.4 Q-201.75 -168.6 -199.8 -168.6 -198.6 -168.6 -196.5 -165.8 -198.6 -168.6 -199.8 -168.6 -201.75 -168.6 -205.15 -167.4 L-210.1 -165.8 Q-211.65 -165.4 -215.55 -163.15 M-228.25 -175.15 L-228.6 -166.0 -228.25 -175.15" fill="#ba7d56" fill-rule="evenodd" stroke="none"/>
    <path d="M-228.25 -175.15 L-228.2 -175.15 M-228.6 -165.85 L-228.6 -166.0 -228.25 -175.15" fill="none" stroke="#000000" stroke-linecap="round" stroke-linejoin="round" stroke-width="0.05"/>
    <path d="M-228.2 -175.15 L-226.15 -175.4 -218.25 -176.55 Q-208.35 -176.6 -204.8 -175.55 -201.25 -174.5 -198.35 -174.3 -196.55 -175.85 -189.8 -175.75 L-189.5 -175.8 -177.85 -176.45 Q-174.85 -178.7 -170.8 -179.8 -167.65 -180.65 -164.6 -180.5 L-162.75 -180.45 -161.75 -180.6 -158.6 -181.3 -150.2 -176.05 Q-149.9 -174.65 -154.15 -175.75 -158.4 -176.85 -158.95 -176.6 M-159.4 -176.45 L-164.45 -176.8 Q-166.5 -176.45 -167.45 -175.9 L-169.6 -174.75 -159.95 -174.05 -155.95 -173.7 -150.65 -168.2 -150.65 -167.1 -152.55 -167.1 Q-154.45 -168.8 -157.85 -170.5 L-175.85 -170.5 -177.25 -170.5 Q-183.5 -167.1 -185.6 -166.7 L-190.1 -166.2 -194.55 -165.9 -196.5 -165.8 -193.85 -161.85 -193.7 -161.6 Q-193.45 -161.3 -191.65 -160.75 -190.35 -160.35 -190.35 -158.65 -190.35 -156.85 -188.4 -157.0 -186.5 -157.2 -186.5 -156.2 -186.5 -154.95 -187.35 -154.6 L-189.7 -154.4 Q-191.7 -154.4 -192.65 -154.95 L-196.25 -157.8 -197.4 -159.1 Q-199.8 -161.7 -200.75 -162.0 -213.4 -155.0 -216.1 -155.0 -218.55 -155.0 -220.95 -157.9 L-222.05 -159.35 Q-225.3 -164.05 -228.6 -165.85 L-228.95 -166.05 -244.45 -166.9 Q-248.65 -166.25 -253.15 -164.55 L-258.45 -161.4 Q-261.3 -159.9 -262.9 -159.45 -265.75 -158.75 -265.3 -161.3 -265.0 -163.1 -261.15 -165.5 L-256.85 -167.85 Q-248.85 -171.85 -245.05 -172.9 -241.25 -173.95 -234.9 -174.5 L-228.25 -175.15 M-196.5 -165.8 Q-198.6 -168.6 -199.8 -168.6 -201.75 -168.6 -205.15 -167.4 L-210.1 -165.8 Q-211.65 -165.4 -215.55 -163.15 M-175.85 -171.25 L-177.25 -170.5 M-169.6 -174.75 Q-171.75 -173.55 -175.85 -171.25" fill="none" stroke="#000000" stroke-linecap="round" stroke-linejoin="round" stroke-width="0.05"/>
  </g>
</svg>
