<?xml version="1.0" encoding="UTF-8" standalone="no"?>
<svg xmlns:ffdec="https://www.free-decompiler.com/flash" xmlns:xlink="http://www.w3.org/1999/xlink" ffdec:objectType="shape" height="35.45px" width="94.05px" xmlns="http://www.w3.org/2000/svg">
  <g transform="matrix(1.0, 0.0, 0.0, 1.0, 243.0, 180.9)">
    <path d="M-159.0 -175.55 L-159.0 -175.6 -158.65 -175.7 -158.95 -175.55 -159.0 -175.55 M-159.0 -175.6 L-158.95 -175.55 -159.0 -175.6" fill="#ffffff" fill-rule="evenodd" stroke="none"/>
    <path d="M-213.0 -158.15 L-212.8 -158.4 -212.4 -158.1 -213.0 -158.15" fill="#93633a" fill-rule="evenodd" stroke="none"/>
    <path d="M-186.35 -174.85 L-186.15 -174.1 -187.85 -174.5 -186.35 -174.85" fill="#7e5134" fill-rule="evenodd" stroke="none"/>
    <path d="M-164.7 -173.55 L-166.95 -173.8 -170.85 -173.95 -174.85 -173.9 -186.15 -174.1 -174.85 -173.9 -170.85 -173.95 -166.95 -173.8 -164.7 -173.55 Q-162.75 -172.85 -159.1 -172.25 L-154.5 -171.6 Q-151.4 -168.6 -148.95 -164.55 -148.7 -162.55 -151.7 -164.55 L-156.4 -167.3 -156.6 -167.3 -184.4 -165.65 -189.0 -164.8 -192.0 -164.0 -193.7 -163.5 Q-197.25 -162.6 -199.9 -162.45 L-205.4 -159.05 -206.1 -158.8 -205.9 -151.55 Q-205.85 -148.45 -208.4 -148.45 -210.05 -148.45 -212.85 -150.15 -216.1 -152.1 -217.3 -152.45 L-217.3 -152.5 -217.3 -152.45 Q-223.1 -145.45 -226.1 -145.45 -228.2 -145.45 -230.95 -147.3 L-235.55 -150.35 -236.8 -150.7 -238.7 -151.25 Q-241.75 -152.15 -242.7 -153.8 -243.7 -155.45 -241.4 -155.75 L-238.6 -155.95 Q-238.15 -155.85 -235.05 -154.2 L-234.4 -153.85 Q-232.6 -152.85 -227.9 -151.25 L-222.6 -159.6 Q-225.3 -160.5 -226.0 -160.95 -227.0 -161.7 -228.6 -164.4 -230.2 -166.95 -230.2 -167.55 -230.2 -173.15 -223.35 -173.95 L-214.05 -175.1 -210.35 -175.45 Q-204.45 -175.85 -202.8 -175.45 L-200.65 -175.05 -200.15 -175.05 -198.6 -175.2 -198.0 -175.4 -190.5 -174.95 -187.95 -174.45 -186.3 -174.1 -186.15 -174.1 -186.35 -174.85 -179.3 -176.65 Q-175.15 -178.05 -171.65 -178.55 L-164.15 -179.15 -161.35 -179.6 Q-159.25 -180.1 -158.3 -180.9 L-154.15 -177.35 Q-151.55 -175.05 -151.05 -173.05 -150.6 -171.7 -158.95 -175.55 L-158.65 -175.7 -159.0 -175.6 -159.0 -175.55 -161.85 -174.3 Q-163.45 -173.7 -164.7 -173.55 M-220.05 -163.7 L-222.55 -159.7 -222.6 -159.6 -222.55 -159.7 -220.05 -163.7 M-214.05 -156.65 L-217.3 -152.5 -214.05 -156.65 Q-213.4 -156.15 -212.2 -156.3 L-212.4 -158.1 -212.8 -158.4 -213.0 -158.15 -214.05 -156.65 M-210.9 -161.1 L-212.8 -158.4 -210.9 -161.1 M-212.4 -158.1 Q-208.7 -158.1 -206.1 -158.8 -208.7 -158.1 -212.4 -158.1" fill="#ba7d56" fill-rule="evenodd" stroke="none"/>
    <path d="M-186.15 -174.1 L-174.85 -173.9 -170.85 -173.95 -166.95 -173.8 -164.7 -173.55 Q-163.45 -173.7 -161.85 -174.3 L-159.0 -175.55 -158.95 -175.55 -159.0 -175.6 M-158.65 -175.7 L-158.95 -175.55 Q-150.6 -171.7 -151.05 -173.05 -151.55 -175.05 -154.15 -177.35 L-158.3 -180.9 Q-159.25 -180.1 -161.35 -179.6 L-164.15 -179.15 -171.65 -178.55 Q-175.15 -178.05 -179.3 -176.65 L-186.35 -174.85 -187.85 -174.5 M-186.15 -174.1 L-186.3 -174.1 -187.95 -174.45 -190.5 -174.95 -198.0 -175.4 -198.6 -175.2 -200.15 -175.05 -200.65 -175.05 -202.8 -175.45 Q-204.45 -175.85 -210.35 -175.45 L-214.05 -175.1 -223.35 -173.95 Q-230.2 -173.15 -230.2 -167.55 -230.2 -166.95 -228.6 -164.4 -227.0 -161.7 -226.0 -160.95 -225.3 -160.5 -222.6 -159.6 L-222.55 -159.7 -220.05 -163.7 M-206.1 -158.8 L-205.4 -159.05 -199.9 -162.45 Q-197.25 -162.6 -193.7 -163.5 L-192.0 -164.0 -189.0 -164.8 -184.4 -165.65 -156.6 -167.3 -156.4 -167.3 -151.7 -164.55 Q-148.7 -162.55 -148.95 -164.55 -151.4 -168.6 -154.5 -171.6 L-159.1 -172.25 Q-162.75 -172.85 -164.7 -173.55 M-222.6 -159.6 L-227.9 -151.25 Q-232.6 -152.85 -234.4 -153.85 L-235.05 -154.2 Q-238.15 -155.85 -238.6 -155.95 L-241.4 -155.75 Q-243.7 -155.45 -242.7 -153.8 -241.75 -152.15 -238.7 -151.25 L-236.8 -150.7 -235.55 -150.35 -230.95 -147.3 Q-228.2 -145.45 -226.1 -145.45 -223.1 -145.45 -217.3 -152.45 L-217.3 -152.5 -214.05 -156.65 -213.0 -158.15 -212.8 -158.4 -210.9 -161.1 M-217.3 -152.5 L-217.3 -152.45 Q-216.1 -152.1 -212.85 -150.15 -210.05 -148.45 -208.4 -148.45 -205.85 -148.45 -205.9 -151.55 L-206.1 -158.8 Q-208.7 -158.1 -212.4 -158.1 L-212.2 -156.3 Q-213.4 -156.15 -214.05 -156.65 M-212.4 -158.1 L-213.0 -158.15" fill="none" stroke="#000000" stroke-linecap="round" stroke-linejoin="round" stroke-width="0.05"/>
  </g>
</svg>
