<?xml version="1.0" encoding="UTF-8" standalone="no"?>
<svg xmlns:ffdec="https://www.free-decompiler.com/flash" xmlns:xlink="http://www.w3.org/1999/xlink" ffdec:objectType="shape" height="92.4px" width="161.35px" xmlns="http://www.w3.org/2000/svg">
  <g transform="matrix(1.0, 0.0, 0.0, 1.0, 64.0, 68.8)">
    <path d="M54.95 -8.3 L57.2 -8.75 57.15 -9.1 Q55.9 -11.15 55.35 -13.45 L52.8 -18.55 49.85 -24.3 Q49.35 -26.05 51.4 -29.6 L57.9 -40.15 59.15 -42.85 59.25 -43.05 Q58.8 -44.8 59.4 -45.9 L61.25 -45.25 Q65.0 -43.15 63.1 -39.8 L62.8 -39.25 61.65 -37.75 Q54.9 -27.0 56.65 -24.1 58.35 -21.2 60.65 -18.15 62.9 -15.15 67.4 -10.75 67.5 -10.65 69.5 -9.3 L71.15 -10.75 70.9 -12.0 Q70.6 -13.7 70.75 -15.4 70.85 -16.4 71.1 -17.4 L71.5 -17.95 Q71.9 -18.25 72.35 -18.35 L73.9 -18.5 74.65 -18.45 74.85 -20.05 Q75.7 -19.75 76.55 -19.25 77.45 -18.75 78.45 -18.3 L80.05 -17.75 82.2 -17.05 82.85 -16.2 83.6 -15.35 83.35 -13.25 Q83.2 -12.05 82.2 -11.55 L81.4 -11.1 80.85 -10.55 80.3 -9.6 Q79.7 -7.95 77.9 -7.85 L78.2 -7.65 Q78.65 -7.2 78.7 -6.6 78.55 -5.6 77.75 -5.35 76.45 -4.95 75.6 -5.9 L75.2 -5.65 73.2 -4.8 73.25 -4.9 72.7 -4.8 72.9 -4.1 Q73.15 -3.15 73.9 -2.4 L74.0 -2.35 73.9 -2.3 Q73.4 -2.1 73.25 -1.5 73.1 -0.9 73.45 -0.35 L73.8 -0.3 74.8 -1.55 76.0 -1.2 76.4 -1.15 Q75.7 -0.25 76.05 0.75 L76.45 1.55 Q76.65 1.75 76.95 1.8 L77.45 1.75 77.6 1.45 Q77.65 0.55 77.2 -0.3 L78.0 -0.55 78.45 -0.2 78.75 1.8 Q78.8 2.25 79.3 2.6 L79.6 2.7 80.25 2.45 80.15 0.3 80.8 0.4 81.65 0.05 81.05 0.85 Q81.0 1.45 81.45 1.85 81.85 2.2 82.6 2.4 L83.05 2.1 82.7 0.75 82.8 0.15 83.3 0.2 Q83.95 1.55 85.5 2.0 L86.2 2.05 86.25 1.2 86.1 0.95 85.35 0.35 84.9 -0.15 85.7 0.05 86.05 -0.05 Q86.4 -0.5 86.05 -1.0 L85.9 -1.15 86.25 -1.5 Q87.0 -0.6 88.15 -0.5 L89.0 -0.5 89.15 -0.6 89.45 -0.9 87.75 -2.0 88.6 -2.25 88.45 -2.6 89.3 -3.25 89.35 -4.05 89.95 -4.4 90.9 -3.6 91.45 -3.7 Q91.7 -4.4 91.4 -5.05 L91.15 -5.4 90.4 -5.55 90.05 -5.85 89.85 -6.05 89.75 -6.15 89.7 -6.3 90.35 -7.25 90.55 -7.7 90.45 -8.1 90.6 -8.35 91.85 -8.35 92.75 -8.5 92.7 -8.95 91.1 -9.45 91.3 -10.55 91.5 -12.1 91.7 -12.4 91.65 -12.45 92.05 -13.15 Q92.35 -13.25 93.55 -12.55 95.4 -11.55 93.95 -7.85 L93.55 -6.85 Q92.4 -4.35 89.8 -0.2 L86.6 5.45 Q85.45 7.05 84.3 6.95 83.35 6.85 80.5 5.15 76.85 3.1 74.0 1.75 L73.9 1.75 Q61.15 4.25 53.65 6.2 51.65 6.3 49.4 5.2 L42.3 1.25 30.45 -6.05 Q27.4 -7.75 22.25 -6.4 16.1 -4.85 14.45 -4.65 L18.7 -12.0 Q20.55 -12.9 24.15 -13.85 L33.35 -14.1 47.55 -6.15 48.9 -5.35 Q52.65 -7.55 54.95 -8.3 M69.2 -9.05 L69.5 -9.3 69.2 -9.05 M78.25 -16.15 Q77.65 -15.9 77.55 -15.35 77.55 -14.75 78.15 -14.5 78.7 -14.2 79.15 -14.65 79.75 -15.25 79.25 -15.95 78.8 -16.4 78.25 -16.15 M-16.6 19.35 L-17.65 19.5 -25.3 19.95 -31.8 20.25 Q-33.75 20.15 -34.3 19.15 -34.7 18.3 -34.85 15.0 L-35.45 7.65 Q-44.5 -1.8 -50.2 -7.1 -51.4 -8.75 -51.65 -11.25 L-52.15 -19.4 Q-52.45 -24.55 -52.35 -33.35 -52.6 -36.8 -56.5 -40.4 -61.15 -44.75 -62.2 -46.05 L-53.7 -46.45 Q-51.95 -45.4 -49.15 -42.85 -44.15 -38.3 -44.0 -35.2 L-43.1 -18.95 -43.0 -17.35 Q-39.15 -15.35 -37.25 -13.85 L-35.65 -12.2 -35.4 -12.4 Q-34.35 -14.6 -32.65 -16.3 L-29.75 -21.2 -26.5 -26.75 Q-25.3 -28.1 -21.2 -28.35 L-8.8 -28.55 -5.8 -28.9 -5.6 -29.0 Q-4.4 -30.3 -3.15 -30.4 L-2.65 -28.45 Q-2.45 -24.2 -6.25 -23.95 L-6.9 -23.9 -8.8 -24.05 Q-21.5 -23.95 -23.0 -20.95 -24.55 -17.95 -25.85 -14.35 -27.2 -10.85 -28.5 -4.65 L-28.6 -2.1 -26.45 -1.5 -25.5 -2.4 -22.75 -4.35 -20.85 -5.1 -20.15 -5.05 -19.4 -4.6 Q-18.55 -3.75 -18.05 -2.7 L-16.6 -3.35 -16.35 -1.55 -16.15 0.6 -15.75 2.25 Q-15.4 3.3 -15.2 4.45 L-15.55 5.45 -15.85 6.55 -17.75 7.5 -19.8 7.4 Q-20.2 7.1 -20.6 6.95 L-21.35 6.8 -22.5 6.85 Q-24.2 7.25 -25.25 5.8 L-25.3 6.15 Q-25.4 6.75 -25.9 7.15 L-27.45 7.0 Q-28.5 6.1 -28.15 4.85 L-28.6 4.65 -30.35 3.45 -30.25 3.45 -30.6 3.05 -31.1 3.6 Q-31.85 4.35 -32.0 5.45 L-33.1 5.3 Q-33.75 5.5 -34.0 6.1 L-33.85 6.4 -32.25 6.55 Q-32.0 7.05 -31.9 7.75 L-31.75 8.1 Q-32.85 8.0 -33.5 8.85 L-34.0 9.6 -33.9 10.15 -33.6 10.55 -33.25 10.55 Q-32.45 10.1 -32.0 9.25 L-31.4 9.8 -31.45 10.4 -32.95 11.7 Q-33.35 12.0 -33.3 12.6 L-33.25 12.9 -32.7 13.3 -30.95 12.05 -30.65 12.65 -29.9 13.2 -30.9 13.15 Q-31.45 13.4 -31.5 14.0 L-31.35 15.25 -30.85 15.45 -29.9 14.45 -29.4 14.25 -29.15 14.65 -29.15 14.7 Q-29.95 15.95 -29.45 17.5 L-29.1 18.1 -28.4 17.7 -28.25 17.45 -28.15 16.45 -27.95 15.8 -27.75 16.6 -27.45 16.85 Q-26.9 16.95 -26.65 16.35 L-26.6 16.15 -26.1 16.25 Q-26.5 17.35 -25.95 18.4 L-25.5 19.1 -25.3 19.2 -24.9 19.25 -24.85 17.25 -24.2 17.8 -24.0 17.5 -23.0 17.85 -22.3 17.5 -21.65 17.8 -21.85 19.05 -21.45 19.45 Q-20.75 19.3 -20.35 18.65 L-20.2 18.25 -20.45 17.55 -20.4 17.1 -20.35 16.85 -20.3 16.7 -20.2 16.55 -19.05 16.6 -18.55 16.55 -18.3 16.2 -18.0 16.2 -17.3 17.3 -16.7 17.95 -16.35 17.7 -16.75 16.05 -15.75 15.6 -14.3 14.95 -13.95 15.0 -13.95 14.9 -13.15 14.85 Q-12.9 15.1 -12.85 16.45 -12.75 18.55 -16.6 19.35 M-28.95 -2.2 L-28.6 -2.1 -28.95 -2.2 M-18.8 3.15 Q-18.0 3.35 -17.7 2.5 -17.55 1.9 -18.05 1.55 L-19.1 1.45 Q-19.6 1.75 -19.5 2.4 -19.45 3.05 -18.8 3.15" fill="#ba7d56" fill-rule="evenodd" stroke="none"/>
    <path d="M75.6 -5.9 Q76.45 -4.95 77.75 -5.35 78.55 -5.6 78.7 -6.6 78.65 -7.2 78.2 -7.65 L77.9 -7.85 Q79.7 -7.95 80.3 -9.6 L80.85 -10.55 81.4 -11.1 82.2 -11.55 Q83.2 -12.05 83.35 -13.25 L83.6 -15.35 82.85 -16.2 82.2 -17.05 81.9 -18.0 Q81.55 -18.6 81.35 -19.35 L81.5 -19.8 81.9 -20.0 82.2 -20.2 81.25 -20.9 Q80.85 -21.3 80.85 -21.8 81.6 -22.4 82.5 -21.65 83.3 -21.05 83.3 -20.05 L82.95 -19.4 83.35 -19.1 84.05 -20.2 84.45 -21.25 85.05 -21.2 85.2 -20.8 85.15 -20.1 84.9 -18.9 85.0 -18.9 85.15 -18.8 85.2 -18.7 85.35 -18.0 85.6 -17.7 87.4 -19.6 87.8 -19.4 87.65 -17.45 87.4 -17.35 87.45 -16.7 88.05 -16.15 88.45 -16.6 Q89.45 -17.6 90.75 -17.7 L91.1 -17.35 90.8 -16.2 90.0 -15.9 89.95 -15.05 89.25 -14.6 89.65 -13.75 91.65 -12.45 91.7 -12.4 91.5 -12.1 91.4 -11.95 90.25 -11.95 90.5 -11.75 90.4 -11.5 90.35 -11.5 90.15 -11.35 90.1 -9.8 91.1 -9.45 92.7 -8.95 92.75 -8.5 91.85 -8.35 90.6 -8.35 90.2 -8.4 90.35 -8.15 90.45 -8.1 90.55 -7.7 90.35 -7.25 89.7 -6.3 89.75 -6.15 89.85 -6.05 90.05 -5.85 90.4 -5.55 91.15 -5.4 91.4 -5.05 Q91.7 -4.4 91.45 -3.7 L90.9 -3.6 89.95 -4.4 89.35 -4.05 89.3 -3.25 88.45 -2.6 88.6 -2.25 87.75 -2.0 89.45 -0.9 89.15 -0.6 89.0 -0.5 88.15 -0.5 Q87.0 -0.6 86.25 -1.5 L86.1 -1.75 85.7 -1.3 85.9 -1.15 86.05 -1.0 Q86.4 -0.5 86.05 -0.05 L85.7 0.05 84.9 -0.15 85.35 0.35 86.1 0.95 86.25 1.2 86.2 2.05 85.5 2.0 Q83.95 1.55 83.3 0.2 L82.8 0.15 82.7 0.75 83.05 2.1 82.6 2.4 Q81.85 2.2 81.45 1.85 81.0 1.45 81.05 0.85 L81.65 0.05 80.8 0.4 80.15 0.3 80.25 2.45 79.6 2.7 79.3 2.6 Q78.8 2.25 78.75 1.8 L78.45 -0.2 78.0 -0.55 77.2 -0.3 Q77.65 0.55 77.6 1.45 L77.45 1.75 76.95 1.8 Q76.65 1.75 76.45 1.55 L76.05 0.75 Q75.7 -0.25 76.4 -1.15 L76.0 -1.2 74.8 -1.55 73.8 -0.3 73.45 -0.35 Q73.1 -0.9 73.25 -1.5 73.4 -2.1 73.9 -2.3 L74.0 -2.35 73.9 -2.4 Q73.15 -3.15 72.9 -4.1 L72.7 -4.8 73.25 -4.9 73.2 -4.8 75.2 -5.65 75.45 -5.7 Q75.75 -5.65 75.6 -5.9 M78.25 -16.15 Q78.8 -16.4 79.25 -15.95 79.75 -15.25 79.15 -14.65 78.7 -14.2 78.15 -14.5 77.55 -14.75 77.55 -15.35 77.65 -15.9 78.25 -16.15 M-12.8 2.6 L-12.5 2.75 -12.45 1.55 Q-12.35 1.0 -11.9 0.75 -11.0 1.0 -11.1 2.2 -11.2 3.25 -12.05 3.8 L-12.8 3.8 -12.8 4.3 -11.5 4.3 -10.4 4.1 -10.15 4.6 -10.35 4.95 Q-10.65 5.2 -11.0 5.25 L-12.15 5.7 -12.1 5.8 -12.1 5.95 -12.15 6.1 -12.65 6.55 -12.75 6.95 -10.2 7.5 -10.15 7.95 -11.85 8.8 -12.1 8.7 -12.6 9.05 -12.8 9.85 -12.2 9.95 Q-10.85 10.25 -10.0 11.3 L-10.1 11.8 -11.2 12.15 -11.95 11.65 -12.7 12.05 -13.45 11.7 -13.95 12.5 -13.95 14.9 -13.95 15.0 -14.3 14.95 -14.5 14.95 -15.15 14.0 -15.15 14.3 -15.4 14.35 -15.45 14.35 -15.7 14.2 -17.0 15.0 -16.75 16.05 -16.35 17.7 -16.7 17.95 -17.3 17.3 -18.0 16.2 -18.15 15.85 -18.25 16.1 -18.3 16.2 -18.55 16.55 -19.05 16.6 -20.2 16.55 -20.3 16.7 -20.35 16.85 -20.4 17.1 -20.45 17.55 -20.2 18.25 -20.35 18.65 Q-20.75 19.3 -21.45 19.45 L-21.85 19.05 -21.65 17.8 -22.3 17.5 -23.0 17.85 -24.0 17.5 -24.2 17.8 -24.85 17.25 -24.9 19.25 -25.3 19.2 -25.5 19.1 -25.95 18.4 Q-26.5 17.35 -26.1 16.25 L-26.0 16.0 -26.6 15.85 -26.6 16.15 -26.65 16.35 Q-26.9 16.95 -27.45 16.85 L-27.75 16.6 -27.95 15.8 -28.15 16.45 -28.25 17.45 -28.4 17.7 -29.1 18.1 -29.45 17.5 Q-29.95 15.95 -29.15 14.7 L-29.15 14.65 -29.35 14.25 -29.4 14.25 -29.9 14.45 -30.85 15.45 -31.35 15.25 -31.5 14.0 Q-31.45 13.4 -30.9 13.15 L-29.9 13.2 -30.65 12.65 -30.95 12.05 -32.7 13.3 -33.25 12.9 -33.3 12.6 Q-33.35 12.0 -32.95 11.7 L-31.45 10.4 -31.4 9.8 -32.0 9.25 Q-32.45 10.1 -33.25 10.55 L-33.6 10.55 -33.9 10.15 -34.0 9.6 -33.5 8.85 Q-32.85 8.0 -31.75 8.1 L-31.9 7.75 Q-32.0 7.05 -32.25 6.55 L-33.85 6.4 -34.0 6.1 Q-33.75 5.5 -33.1 5.3 L-32.0 5.45 Q-31.85 4.35 -31.1 3.6 L-30.6 3.05 -30.25 3.45 -30.35 3.45 -28.6 4.65 -28.4 4.85 Q-28.3 5.15 -28.15 4.85 -28.5 6.1 -27.45 7.0 L-25.9 7.15 Q-25.4 6.75 -25.3 6.15 L-25.25 5.8 Q-24.2 7.25 -22.5 6.85 L-21.35 6.8 -20.6 6.95 Q-20.2 7.1 -19.8 7.4 L-17.75 7.5 -15.85 6.55 -15.55 5.45 -15.2 4.45 -14.55 3.65 -13.7 2.45 -13.25 2.35 -12.8 2.6 M-18.8 3.15 Q-19.45 3.05 -19.5 2.4 -19.6 1.75 -19.1 1.45 L-18.05 1.55 Q-17.55 1.9 -17.7 2.5 -18.0 3.35 -18.8 3.15" fill="#000000" fill-rule="evenodd" stroke="none"/>
    <path d="M29.45 -30.55 L32.55 -35.95 41.3 -31.05 45.0 -28.9 Q47.3 -27.4 48.45 -24.3 L48.65 -23.8 50.6 -17.95 Q51.3 -15.95 54.95 -8.3 52.65 -7.55 48.9 -5.35 L47.55 -6.15 Q44.2 -11.4 43.05 -14.65 41.85 -17.95 42.0 -21.0 L41.85 -23.65 41.65 -23.8 35.6 -27.3 29.45 -30.55 M42.4 -23.3 L41.85 -23.65 42.4 -23.3 M-43.1 -18.95 Q-40.45 -24.6 -38.3 -27.35 -36.2 -30.1 -33.55 -31.65 L-31.35 -33.2 -31.35 -33.45 -31.65 -40.4 Q-31.9 -44.8 -32.25 -47.35 L-26.0 -47.65 -25.4 -37.6 -25.25 -33.35 Q-25.25 -30.6 -27.25 -27.95 L-27.6 -27.55 -31.45 -22.7 -37.25 -13.85 Q-39.15 -15.35 -43.0 -17.35 L-43.1 -18.95 M-31.35 -32.55 L-31.35 -33.2 -31.35 -32.55" fill="#9c6541" fill-rule="evenodd" stroke="none"/>
    <path d="M75.6 -5.9 Q75.75 -5.65 75.45 -5.7 L75.2 -5.65 75.6 -5.9 M-28.15 4.85 Q-28.3 5.15 -28.4 4.85 L-28.6 4.65 -28.15 4.85" fill="#93633a" fill-rule="evenodd" stroke="none"/>
    <path d="M59.15 -42.85 L34.35 -67.8 M93.95 -7.85 L96.35 -5.5 M91.3 -10.55 L90.35 -11.5 M62.8 -39.25 L81.9 -20.0 M-5.8 -28.9 L1.85 -63.3 M-6.9 -23.9 L-12.8 2.6 M-16.6 19.35 L-17.3 22.6 M-15.75 15.6 L-15.45 14.35" fill="none" stroke="#362216" stroke-linecap="round" stroke-linejoin="round" stroke-width="2.0"/>
    <path d="M31.9 -36.3 Q32.25 -36.15 32.55 -35.95 L32.8 -36.4 M28.85 -30.85 L29.45 -30.55 32.55 -35.95 41.3 -31.05 45.0 -28.9 Q47.3 -27.4 48.45 -24.3 L48.65 -23.8 50.6 -17.95 Q51.3 -15.95 54.95 -8.3 L57.2 -8.75 M57.15 -9.1 Q55.9 -11.15 55.35 -13.45 L52.8 -18.55 49.85 -24.3 Q49.35 -26.05 51.4 -29.6 L57.9 -40.15 59.15 -42.85 59.25 -43.05 Q58.8 -44.8 59.4 -45.9 L61.25 -45.25 Q65.0 -43.15 63.1 -39.8 L62.8 -39.25 61.65 -37.75 Q54.9 -27.0 56.65 -24.1 58.35 -21.2 60.65 -18.15 62.9 -15.15 67.4 -10.75 67.5 -10.65 69.5 -9.3 L69.2 -9.05 M29.45 -30.55 L35.6 -27.3 41.65 -23.8 41.85 -23.65 42.4 -23.3 M18.7 -12.0 Q17.5 -11.4 17.05 -10.85 M14.45 -4.65 L13.55 -3.1 M14.45 -4.65 L18.7 -12.0 Q20.55 -12.9 24.15 -13.85 L33.35 -14.1 47.55 -6.15 Q44.2 -11.4 43.05 -14.65 41.85 -17.95 42.0 -21.0 L41.85 -23.65 M93.95 -7.85 L93.55 -6.85 Q92.4 -4.35 89.8 -0.2 L86.6 5.45 Q85.45 7.05 84.3 6.95 83.35 6.85 80.5 5.15 76.85 3.1 74.0 1.75 L73.9 1.75 Q61.15 4.25 53.65 6.2 51.65 6.3 49.4 5.2 L42.3 1.25 30.45 -6.05 Q27.4 -7.75 22.25 -6.4 16.1 -4.85 14.45 -4.65 M54.95 -8.3 Q52.65 -7.55 48.9 -5.35 L47.55 -6.15 M82.2 -17.05 L80.05 -17.75 78.45 -18.3 Q77.45 -18.75 76.55 -19.25 75.7 -19.75 74.85 -20.05 L74.65 -18.45 73.9 -18.5 72.35 -18.35 Q71.9 -18.25 71.5 -17.95 L71.1 -17.4 Q70.85 -16.4 70.75 -15.4 70.6 -13.7 70.9 -12.0 L71.15 -10.75 69.5 -9.3 M75.6 -5.9 L75.2 -5.65 M91.65 -12.45 L92.05 -13.15 Q92.35 -13.25 93.55 -12.55 95.4 -11.55 93.95 -7.85 M90.45 -8.1 L90.6 -8.35 M85.9 -1.15 L86.25 -1.5 M91.5 -12.1 L91.3 -10.55 91.1 -9.45 M82.8 0.15 L83.3 0.2 M-53.7 -46.45 Q-54.85 -47.15 -55.55 -47.2 M-16.6 19.35 L-17.65 19.5 -25.3 19.95 -31.8 20.25 Q-33.75 20.15 -34.3 19.15 -34.7 18.3 -34.85 15.0 L-35.45 7.65 Q-44.5 -1.8 -50.2 -7.1 -51.4 -8.75 -51.65 -11.25 L-52.15 -19.4 Q-52.45 -24.55 -52.35 -33.35 -52.6 -36.8 -56.5 -40.4 -61.15 -44.75 -62.2 -46.05 L-64.0 -46.0 M-53.7 -46.45 Q-51.95 -45.4 -49.15 -42.85 -44.15 -38.3 -44.0 -35.2 L-43.1 -18.95 Q-40.45 -24.6 -38.3 -27.35 -36.2 -30.1 -33.55 -31.65 L-31.35 -33.2 -31.35 -33.45 -31.65 -40.4 Q-31.9 -44.8 -32.25 -47.35 L-32.35 -48.05 M-43.1 -18.95 L-43.0 -17.35 Q-39.15 -15.35 -37.25 -13.85 L-31.45 -22.7 -27.6 -27.55 -27.25 -27.95 Q-25.25 -30.6 -25.25 -33.35 L-25.4 -37.6 -26.0 -47.65 -32.25 -47.35 M-62.2 -46.05 L-53.7 -46.45 M-35.4 -12.4 Q-34.35 -14.6 -32.65 -16.3 L-29.75 -21.2 -26.5 -26.75 Q-25.3 -28.1 -21.2 -28.35 L-8.8 -28.55 -5.8 -28.9 -5.6 -29.0 Q-4.4 -30.3 -3.15 -30.4 L-2.65 -28.45 Q-2.45 -24.2 -6.25 -23.95 L-6.9 -23.9 -8.8 -24.05 Q-21.5 -23.95 -23.0 -20.95 -24.55 -17.95 -25.85 -14.35 -27.2 -10.85 -28.5 -4.65 L-28.6 -2.1 -26.45 -1.5 -25.5 -2.4 -22.75 -4.35 -20.85 -5.1 -20.15 -5.05 -19.4 -4.6 Q-18.55 -3.75 -18.05 -2.7 L-16.6 -3.35 -16.35 -1.55 -16.15 0.6 -15.75 2.25 Q-15.4 3.3 -15.2 4.45 M-13.95 14.9 L-13.15 14.85 Q-12.9 15.1 -12.85 16.45 -12.75 18.55 -16.6 19.35 M-26.05 -48.4 L-26.0 -47.65 -25.5 -47.7 M-31.35 -33.2 L-31.35 -32.55 M-28.6 -2.1 L-28.95 -2.2 M-37.25 -13.85 L-35.65 -12.2 M-18.3 16.2 L-18.0 16.2 M-16.75 16.05 L-15.75 15.6 -14.3 14.95 M-28.15 4.85 L-28.6 4.65 M-29.4 14.25 L-29.15 14.65 M-26.6 16.15 L-26.1 16.25" fill="none" stroke="#000000" stroke-linecap="round" stroke-linejoin="round" stroke-width="0.05"/>
  </g>
</svg>
