<?xml version="1.0" encoding="UTF-8" standalone="no"?>
<svg xmlns:ffdec="https://www.free-decompiler.com/flash" xmlns:xlink="http://www.w3.org/1999/xlink" ffdec:objectType="shape" height="90.25px" width="65.25px" xmlns="http://www.w3.org/2000/svg">
  <g transform="matrix(1.0, 0.0, 0.0, 1.0, 17.1, -2.4)">
    <path d="M-13.45 8.45 L-12.5 7.95 Q-10.05 6.65 -5.45 5.05 L0.6 2.65 Q2.45 2.05 3.3 2.85 3.95 3.5 5.15 6.65 L8.1 13.35 Q19.7 19.3 26.85 22.45 28.45 23.6 29.55 25.85 L32.7 33.4 37.45 46.45 Q38.75 49.65 43.6 51.8 L44.25 52.05 44.6 52.25 44.6 52.55 Q48.15 55.95 48.15 56.55 L42.95 63.85 41.0 63.85 41.0 57.8 40.9 57.75 37.5 56.45 Q31.25 53.75 30.15 50.95 L24.0 35.9 23.4 34.4 Q19.1 33.8 16.85 33.0 15.45 32.5 14.8 32.0 L14.65 32.25 Q14.3 34.65 13.3 36.8 13.15 37.1 12.15 42.4 L10.9 48.65 Q10.2 50.35 6.4 51.9 L-5.2 56.15 -7.9 57.45 -8.05 57.6 Q-8.8 59.2 -9.9 59.7 L-11.0 58.05 Q-12.65 54.05 -9.1 52.6 L-8.45 52.4 -6.65 51.9 Q5.25 47.65 5.7 44.35 6.15 41.0 6.25 37.2 6.35 33.4 5.6 27.2 L4.9 24.85 4.85 24.75 2.6 24.9 2.05 26.05 0.1 28.8 -1.5 30.1 -2.15 30.3 -3.0 30.1 -4.9 28.75 -6.0 29.85 -6.85 28.2 -7.75 26.3 -8.65 24.85 -9.9 22.95 -9.95 21.9 -10.0 20.75 -8.5 19.25 Q-7.65 18.4 -6.5 18.7 L-5.6 18.85 -4.85 18.7 -3.8 18.3 Q-2.35 17.35 -0.9 18.45 L-0.95 18.1 Q-1.05 17.45 -0.7 16.95 0.0 16.25 0.8 16.55 2.05 17.0 2.15 18.35 L2.65 18.4 4.7 18.95 4.65 19.0 5.1 19.25 5.35 18.6 Q5.8 17.6 5.6 16.55 6.15 16.7 6.7 16.35 L7.25 15.3 7.05 15.05 5.5 15.4 Q5.05 15.0 4.75 14.4 L4.5 14.1 Q5.55 13.8 5.9 12.85 L6.1 11.95 5.9 11.45 5.45 11.2 5.1 11.35 Q4.5 12.0 4.35 12.95 L3.6 12.65 3.45 12.05 4.5 10.35 Q4.7 9.9 4.5 9.4 L4.35 9.1 3.7 8.9 2.45 10.65 2.0 10.2 1.1 9.9 2.05 9.65 Q2.45 9.2 2.35 8.65 L1.8 7.5 1.25 7.45 0.7 8.75 0.25 9.1 -0.1 8.75 Q0.2 7.3 -0.7 6.05 L-1.25 5.55 -1.8 6.15 -1.85 6.45 -1.6 7.4 -1.6 8.05 -2.05 7.4 Q-2.25 7.3 -2.4 7.25 -3.0 7.35 -3.0 8.0 L-2.95 8.2 -3.45 8.3 Q-3.5 7.1 -4.35 6.3 L-5.0 5.8 -5.15 5.75 -5.6 5.85 -4.95 7.75 -5.8 7.4 -5.85 7.75 -6.95 7.75 -7.5 8.3 -8.15 8.25 -8.4 7.05 -8.9 6.8 Q-9.55 7.1 -9.7 7.9 L-9.7 8.3 -9.2 8.9 -9.1 9.35 -9.1 9.6 -9.1 9.75 -9.15 9.9 -10.25 10.25 -10.7 10.45 -10.8 10.85 -11.1 10.95 -12.15 10.15 -12.85 9.75 -13.15 10.1 -12.2 11.5 -13.05 12.25 -14.15 13.35 -14.5 13.45 -14.45 13.5 -15.2 13.8 -16.0 12.4 Q-16.85 10.45 -13.45 8.45 M44.6 52.55 L44.25 52.05 44.6 52.55 M-6.25 24.75 L-5.25 24.5 Q-4.9 24.05 -5.15 23.5 -5.45 22.9 -6.1 23.0 -6.9 23.05 -6.9 23.95 -6.85 24.55 -6.25 24.75" fill="#ba7d56" fill-rule="evenodd" stroke="none"/>
    <path d="M0.25 9.1 L0.7 8.75 1.25 7.45 1.8 7.5 2.35 8.65 Q2.45 9.2 2.05 9.65 L1.1 9.9 2.0 10.2 2.45 10.65 3.7 8.9 4.35 9.1 4.5 9.4 Q4.7 9.9 4.5 10.35 L3.45 12.05 3.6 12.65 4.35 12.95 Q4.5 12.0 5.1 11.35 L5.45 11.2 5.9 11.45 6.1 11.95 5.9 12.85 Q5.55 13.8 4.5 14.1 L4.75 14.4 Q5.05 15.0 5.5 15.4 L7.05 15.05 7.25 15.3 6.7 16.35 Q6.15 16.7 5.6 16.55 5.8 17.6 5.35 18.6 L5.1 19.25 4.65 19.0 4.7 18.95 2.65 18.4 2.4 18.25 Q2.15 18.0 2.15 18.35 2.05 17.0 0.8 16.55 0.0 16.25 -0.7 16.95 -1.05 17.45 -0.95 18.1 L-0.9 18.45 Q-2.35 17.35 -3.8 18.3 L-4.85 18.7 -5.6 18.85 -6.5 18.7 Q-7.65 18.4 -8.5 19.25 L-10.0 20.75 -9.95 21.9 -9.9 22.95 -10.25 23.9 -10.65 25.3 -11.1 25.55 -11.55 25.5 -11.9 25.4 -11.55 26.55 Q-11.5 27.1 -11.85 27.5 -12.8 27.55 -13.0 26.4 -13.3 25.4 -12.65 24.6 L-11.95 24.35 -12.1 23.85 -13.35 24.25 -14.3 24.85 -14.7 24.45 -14.6 24.05 -14.15 23.55 -13.2 22.75 -13.3 22.7 -13.3 22.55 -13.3 22.35 -13.0 21.8 -13.0 21.4 -15.6 21.7 -15.8 21.3 -14.45 19.9 -14.2 19.95 -13.85 19.45 -13.9 18.65 -14.5 18.75 Q-15.95 18.85 -17.05 18.15 L-17.1 17.7 -16.15 17.0 -15.3 17.2 -14.75 16.55 -13.95 16.7 -13.7 15.8 -14.45 13.5 -14.5 13.45 -14.15 13.35 -14.0 13.3 -13.1 14.0 -13.15 13.65 -12.9 13.55 -12.85 13.55 -12.6 13.6 -11.65 12.4 -12.2 11.5 -13.15 10.1 -12.85 9.75 -12.15 10.15 -11.1 10.95 -10.8 11.25 -10.8 10.95 -10.8 10.85 -10.7 10.45 -10.25 10.25 -9.15 9.9 -9.1 9.75 -9.1 9.6 -9.1 9.35 -9.2 8.9 -9.7 8.3 -9.7 7.9 Q-9.55 7.1 -8.9 6.8 L-8.4 7.05 -8.15 8.25 -7.5 8.3 -6.95 7.75 -5.85 7.75 -5.8 7.4 -4.95 7.75 -5.6 5.85 -5.15 5.75 -5.0 5.8 -4.35 6.3 Q-3.5 7.1 -3.45 8.3 L-3.5 8.55 -2.9 8.5 -2.95 8.2 -3.0 8.0 Q-3.0 7.35 -2.4 7.25 -2.25 7.3 -2.05 7.4 L-1.6 8.05 -1.6 7.4 -1.85 6.45 -1.8 6.15 -1.25 5.55 -0.7 6.05 Q0.2 7.3 -0.1 8.75 L0.25 9.15 0.25 9.1 M-6.25 24.75 Q-6.85 24.55 -6.9 23.95 -6.9 23.05 -6.1 23.0 -5.45 22.9 -5.15 23.5 -4.9 24.05 -5.25 24.5 L-6.25 24.75" fill="#000000" fill-rule="evenodd" stroke="none"/>
    <path d="M2.15 18.35 Q2.15 18.0 2.4 18.25 L2.65 18.4 2.15 18.35" fill="#93633a" fill-rule="evenodd" stroke="none"/>
    <path d="M24.0 35.9 Q23.3 42.05 22.25 45.35 21.1 48.65 19.15 51.0 L17.6 53.2 17.65 53.4 20.2 59.85 20.7 61.0 20.8 61.3 Q23.9 66.05 24.7 66.85 22.3 69.15 14.9 72.35 14.25 72.35 14.0 72.0 15.9 67.8 16.2 65.7 L16.1 65.75 13.45 59.25 11.9 55.3 Q10.95 52.7 12.0 49.6 L12.2 49.05 14.25 43.25 Q14.95 41.2 16.85 33.0 19.1 33.8 23.4 34.4 L24.0 35.9 M17.35 52.55 L17.6 53.2 17.35 52.55" fill="#9c6541" fill-rule="evenodd" stroke="none"/>
    <path d="M-13.45 8.45 L-12.5 7.95 Q-10.05 6.65 -5.45 5.05 L0.6 2.65 Q2.45 2.05 3.3 2.85 3.95 3.5 5.15 6.65 L8.1 13.35 Q19.7 19.3 26.85 22.45 28.45 23.6 29.55 25.85 L32.7 33.4 37.45 46.45 Q38.75 49.65 43.6 51.8 L44.25 52.05 44.6 52.25 M44.6 52.55 Q48.15 55.95 48.15 56.55 L42.95 63.85 41.0 63.85 41.0 57.8 40.9 57.75 37.5 56.45 Q31.25 53.75 30.15 50.95 L24.0 35.9 Q23.3 42.05 22.25 45.35 21.1 48.65 19.15 51.0 L17.6 53.2 17.65 53.4 20.2 59.85 20.7 61.0 20.8 61.3 Q23.9 66.05 24.7 66.85 22.3 69.15 14.9 72.35 14.25 72.35 14.0 72.0 15.9 67.8 16.2 65.7 M16.1 65.75 L13.45 59.25 11.9 55.3 Q10.95 52.7 12.0 49.6 L12.2 49.05 14.25 43.25 Q14.95 41.2 16.85 33.0 15.45 32.5 14.8 32.0 M14.65 32.25 Q14.3 34.65 13.3 36.8 13.15 37.1 12.15 42.4 L10.9 48.65 Q10.2 50.35 6.4 51.9 L-5.2 56.15 -7.9 57.45 -8.05 57.6 Q-8.8 59.2 -9.9 59.7 L-11.0 58.05 Q-12.65 54.05 -9.1 52.6 L-8.45 52.4 -6.65 51.9 Q5.25 47.65 5.7 44.35 6.15 41.0 6.25 37.2 6.35 33.4 5.6 27.2 L4.9 24.85 4.85 24.75 2.6 24.9 2.05 26.05 0.1 28.8 -1.5 30.1 -2.15 30.3 -3.0 30.1 -4.9 28.75 -6.0 29.85 -6.85 28.2 -7.75 26.3 -8.65 24.85 -9.9 22.95 M2.65 18.4 L2.15 18.35 M24.0 35.9 L23.4 34.4 Q19.1 33.8 16.85 33.0 M17.6 53.2 L17.35 52.55 M44.25 52.05 L44.6 52.55 M-2.95 8.2 L-3.45 8.3 M-10.8 10.85 L-11.1 10.95 M-12.2 11.5 L-13.05 12.25 -14.15 13.35 M-14.45 13.5 L-15.2 13.8 -16.0 12.4 Q-16.85 10.45 -13.45 8.45 M0.25 9.1 L-0.1 8.75" fill="none" stroke="#000000" stroke-linecap="round" stroke-linejoin="round" stroke-width="0.05"/>
    <path d="M-7.9 57.45 L-4.0 91.65 M-13.05 12.25 L-12.85 13.55 M-13.45 8.45 L-13.85 5.15 M-8.45 52.4 L-11.55 25.5" fill="none" stroke="#362216" stroke-linecap="round" stroke-linejoin="round" stroke-width="2.0"/>
  </g>
</svg>
