<?xml version="1.0" encoding="UTF-8" standalone="no"?>
<svg xmlns:ffdec="https://www.free-decompiler.com/flash" xmlns:xlink="http://www.w3.org/1999/xlink" ffdec:objectType="shape" height="57.05px" width="84.0px" xmlns="http://www.w3.org/2000/svg">
  <g transform="matrix(1.0, 0.0, 0.0, 1.0, 268.65, 190.75)">
    <path d="M-214.35 -175.55 Q-213.45 -175.3 -213.05 -174.55 L-212.75 -173.7 -212.75 -173.2 Q-212.75 -171.2 -213.3 -171.0 L-214.8 -170.95 -214.9 -171.0 -215.6 -171.1 -217.6 -171.2 -217.7 -171.2 Q-217.55 -171.75 -217.7 -172.15 -217.9 -172.65 -218.55 -172.95 -219.8 -173.55 -222.05 -173.8 -224.15 -174.05 -226.2 -172.65 -227.5 -175.05 -227.65 -176.8 L-225.35 -177.15 -220.3 -176.7 -215.05 -175.7 -214.65 -175.65 -214.35 -175.55 M-243.65 -157.95 Q-244.1 -158.9 -243.75 -160.5 L-243.65 -160.9 Q-242.95 -161.6 -240.95 -161.6 -240.0 -161.6 -238.45 -160.6 -238.8 -159.6 -238.8 -158.6 L-238.6 -158.5 Q-234.5 -156.65 -232.2 -156.7 L-229.3 -156.6 -228.65 -156.5 -228.5 -156.45 Q-227.75 -156.1 -227.6 -154.8 L-227.55 -154.0 -227.55 -153.7 Q-227.6 -151.4 -229.0 -152.0 L-229.3 -152.15 -229.4 -152.35 Q-229.7 -152.8 -230.95 -153.05 L-231.85 -153.2 -232.0 -153.25 Q-234.25 -153.6 -237.75 -154.8 -241.3 -156.05 -242.9 -157.1 L-243.65 -157.95 M-237.65 -170.6 Q-235.85 -170.7 -234.3 -174.05 L-234.25 -174.0 Q-231.25 -173.05 -229.6 -173.1 -229.9 -172.1 -230.5 -171.25 -231.85 -169.5 -234.05 -169.5 -236.9 -169.5 -237.65 -170.6" fill="#ffcc99" fill-rule="evenodd" stroke="none"/>
    <path d="M-243.65 -160.9 L-243.5 -161.45 Q-242.55 -164.75 -237.8 -170.9 L-237.7 -170.65 -237.65 -170.6 Q-236.9 -169.5 -234.05 -169.5 -231.85 -169.5 -230.5 -171.25 -229.9 -172.1 -229.6 -173.1 L-229.4 -174.7 Q-229.4 -175.5 -229.55 -176.15 L-227.65 -176.8 Q-227.5 -175.05 -226.2 -172.65 L-226.45 -172.45 Q-228.65 -170.85 -229.55 -169.1 -230.8 -166.75 -230.25 -159.2 L-238.6 -158.5 -238.8 -158.6 Q-238.8 -159.6 -238.45 -160.6 -240.0 -161.6 -240.95 -161.6 -242.95 -161.6 -243.65 -160.9 M-237.2 -164.45 Q-237.2 -163.2 -238.0 -161.65 L-238.45 -160.6 -238.0 -161.65 Q-237.2 -163.2 -237.2 -164.45" fill="#99cc00" fill-rule="evenodd" stroke="none"/>
    <path d="M-237.8 -170.9 Q-238.85 -172.45 -237.75 -175.85 -236.65 -179.25 -233.25 -179.1 -229.85 -178.95 -229.55 -176.15 -229.4 -175.5 -229.4 -174.7 L-229.6 -173.1 Q-231.25 -173.05 -234.25 -174.0 L-234.3 -174.05 Q-235.85 -170.7 -237.65 -170.6 L-237.7 -170.65 -237.8 -170.9" fill="#ff0000" fill-rule="evenodd" stroke="none"/>
    <path d="M-224.1 -159.55 Q-204.75 -160.2 -185.4 -158.4 L-193.8 -148.15 -232.65 -147.95 -232.7 -147.95 -232.5 -148.15 -229.4 -152.35 -229.3 -152.15 -229.0 -152.0 Q-227.6 -151.4 -227.55 -153.7 L-227.55 -154.0 -227.6 -154.8 -224.1 -159.55 M-234.8 -147.85 L-234.9 -147.95 -264.05 -147.85 Q-267.9 -150.2 -267.9 -153.8 -256.05 -156.5 -243.65 -157.95 L-242.9 -157.1 Q-241.3 -156.05 -237.75 -154.8 -234.25 -153.6 -232.0 -153.25 L-231.9 -153.15 -231.85 -153.2 -230.95 -153.05 -234.8 -147.85 M-228.5 -156.45 L-228.65 -156.5 -229.3 -156.6 -232.2 -156.7 Q-234.5 -156.65 -238.6 -158.5 L-230.25 -159.2 -226.35 -159.45 -226.3 -159.4 -228.5 -156.45 M-232.5 -148.15 L-232.65 -147.95 -232.5 -148.15" fill="#ffcc00" fill-rule="evenodd" stroke="none"/>
    <path d="M-214.35 -175.55 L-210.75 -180.5 -210.6 -183.65 Q-207.05 -188.2 -202.5 -190.0 -202.25 -182.65 -209.05 -179.95 L-213.05 -174.55 Q-213.45 -175.3 -214.35 -175.55 M-215.6 -171.1 L-224.1 -159.55 -227.6 -154.8 Q-227.75 -156.1 -228.5 -156.45 L-226.3 -159.4 -217.6 -171.15 -217.6 -171.2 -215.6 -171.1 M-232.65 -147.95 L-233.6 -146.65 Q-236.4 -138.8 -243.65 -134.45 -245.05 -138.45 -240.85 -143.5 -236.55 -147.35 -235.05 -147.55 L-234.8 -147.85 -230.95 -153.05 Q-229.7 -152.8 -229.4 -152.35 L-232.5 -148.15 -232.7 -147.95 -232.65 -147.95" fill="#8f5601" fill-rule="evenodd" stroke="none"/>
    <path d="M-213.05 -174.55 L-209.05 -179.95 Q-202.25 -182.65 -202.5 -190.0 -207.05 -188.2 -210.6 -183.65 L-210.75 -180.5 -214.35 -175.55 Q-213.45 -175.3 -213.05 -174.55 L-212.75 -173.7 -212.75 -173.2 Q-212.75 -171.2 -213.3 -171.0 L-214.8 -170.95 -214.9 -171.0 -215.6 -171.1 -224.1 -159.55 Q-204.75 -160.2 -185.4 -158.4 L-193.8 -148.15 -232.65 -147.95 -233.6 -146.65 Q-236.4 -138.8 -243.65 -134.45 -245.05 -138.45 -240.85 -143.5 -236.55 -147.35 -235.05 -147.55 L-234.8 -147.85 -230.95 -153.05 Q-229.7 -152.8 -229.4 -152.35 L-229.3 -152.15 -229.0 -152.0 Q-227.6 -151.4 -227.55 -153.7 L-227.55 -154.0 -227.6 -154.8 Q-227.75 -156.1 -228.5 -156.45 L-228.65 -156.5 -229.3 -156.6 -232.2 -156.7 Q-234.5 -156.65 -238.6 -158.5 L-230.25 -159.2 -226.35 -159.45 M-234.9 -147.95 L-264.05 -147.85 Q-267.9 -150.2 -267.9 -153.8 -256.05 -156.5 -243.65 -157.95 -244.1 -158.9 -243.75 -160.5 L-243.65 -160.9 -243.5 -161.45 Q-242.55 -164.75 -237.8 -170.9 -238.85 -172.45 -237.75 -175.85 -236.65 -179.25 -233.25 -179.1 -229.85 -178.95 -229.55 -176.15 L-227.65 -176.8 -225.35 -177.15 -220.3 -176.7 -215.05 -175.7 -214.65 -175.65 -214.35 -175.55 M-237.65 -170.6 Q-235.85 -170.7 -234.3 -174.05 L-234.25 -174.0 Q-231.25 -173.05 -229.6 -173.1 L-229.4 -174.7 Q-229.4 -175.5 -229.55 -176.15 M-229.6 -173.1 Q-229.9 -172.1 -230.5 -171.25 -231.85 -169.5 -234.05 -169.5 -236.9 -169.5 -237.65 -170.6 L-237.7 -170.65 -237.8 -170.9 M-230.25 -159.2 Q-230.8 -166.75 -229.55 -169.1 -228.65 -170.85 -226.45 -172.45 L-226.2 -172.65 Q-227.5 -175.05 -227.65 -176.8 M-238.45 -160.6 L-238.0 -161.65 Q-237.2 -163.2 -237.2 -164.45 M-238.6 -158.5 L-238.8 -158.6 Q-238.8 -159.6 -238.45 -160.6 -240.0 -161.6 -240.95 -161.6 -242.95 -161.6 -243.65 -160.9 M-243.65 -157.95 L-242.9 -157.1 Q-241.3 -156.05 -237.75 -154.8 -234.25 -153.6 -232.0 -153.25 L-231.85 -153.2 -230.95 -153.05 M-226.3 -159.4 L-217.6 -171.15 -217.6 -171.2 -217.7 -171.2 Q-217.55 -171.75 -217.7 -172.15 -217.9 -172.65 -218.55 -172.95 -219.8 -173.55 -222.05 -173.8 -224.15 -174.05 -226.2 -172.65 M-227.6 -154.8 L-224.1 -159.55 M-231.9 -153.15 L-231.85 -153.2 M-226.3 -159.4 L-228.5 -156.45 M-217.6 -171.2 L-215.6 -171.1 M-232.7 -147.95 L-232.65 -147.95 -232.5 -148.15 -229.4 -152.35" fill="none" stroke="#000000" stroke-linecap="round" stroke-linejoin="round" stroke-width="1.5"/>
    <path d="M-214.35 -175.55 Q-213.45 -175.3 -213.05 -174.55 L-212.75 -173.7 -212.75 -173.2 Q-212.75 -171.2 -213.3 -171.0 L-214.8 -170.95 -214.9 -171.0 -215.6 -171.1 -217.6 -171.2 -217.7 -171.2 Q-217.55 -171.75 -217.7 -172.15 -217.9 -172.65 -218.55 -172.95 -219.8 -173.55 -222.05 -173.8 -224.15 -174.05 -226.2 -172.65 -227.5 -175.05 -227.65 -176.8 L-225.35 -177.15 -220.3 -176.7 -215.05 -175.7 -214.65 -175.65 -214.35 -175.55 M-237.65 -170.6 Q-235.85 -170.7 -234.3 -174.05 L-234.25 -174.0 Q-231.25 -173.05 -229.6 -173.1 -229.9 -172.1 -230.5 -171.25 -231.85 -169.5 -234.05 -169.5 -236.9 -169.5 -237.65 -170.6 M-243.65 -160.9 Q-242.95 -161.6 -240.95 -161.6 -240.0 -161.6 -238.45 -160.6 -238.8 -159.6 -238.8 -158.6 L-238.6 -158.5 Q-234.5 -156.65 -232.2 -156.7 L-229.3 -156.6 -228.65 -156.5 -228.5 -156.45 Q-227.75 -156.1 -227.6 -154.8 L-227.55 -154.0 -227.55 -153.7 Q-227.6 -151.4 -229.0 -152.0 L-229.3 -152.15 -229.4 -152.35 Q-229.7 -152.8 -230.95 -153.05 L-231.85 -153.2 -232.0 -153.25 Q-234.25 -153.6 -237.75 -154.8 -241.3 -156.05 -242.9 -157.1 L-243.65 -157.95 Q-244.1 -158.9 -243.75 -160.5 L-243.65 -160.9" fill="#ffcc99" fill-rule="evenodd" stroke="none"/>
    <path d="M-227.65 -176.8 Q-227.5 -175.05 -226.2 -172.65 L-226.45 -172.45 Q-228.65 -170.85 -229.55 -169.1 -230.8 -166.75 -230.25 -159.2 L-238.6 -158.5 -238.8 -158.6 Q-238.8 -159.6 -238.45 -160.6 -240.0 -161.6 -240.95 -161.6 -242.95 -161.6 -243.65 -160.9 L-243.5 -161.45 Q-242.55 -164.75 -237.8 -170.9 L-237.7 -170.65 -237.65 -170.6 Q-236.9 -169.5 -234.05 -169.5 -231.85 -169.5 -230.5 -171.25 -229.9 -172.1 -229.6 -173.1 L-229.4 -174.7 Q-229.4 -175.5 -229.55 -176.15 L-227.65 -176.8 M-237.2 -164.45 Q-237.2 -163.2 -238.0 -161.65 L-238.45 -160.6 -238.0 -161.65 Q-237.2 -163.2 -237.2 -164.45" fill="#99cc00" fill-rule="evenodd" stroke="none"/>
    <path d="M-229.6 -173.1 Q-231.25 -173.05 -234.25 -174.0 L-234.3 -174.05 Q-235.85 -170.7 -237.65 -170.6 L-237.7 -170.65 -237.8 -170.9 Q-238.85 -172.45 -237.75 -175.85 -236.65 -179.25 -233.25 -179.1 -229.85 -178.95 -229.55 -176.15 -229.4 -175.5 -229.4 -174.7 L-229.6 -173.1" fill="#ff0000" fill-rule="evenodd" stroke="none"/>
    <path d="M-232.65 -147.95 L-232.7 -147.95 -232.5 -148.15 -232.65 -147.95 -232.5 -148.15 -232.5 -147.95 -232.65 -147.95" fill="#ffcc00" fill-rule="evenodd" stroke="none"/>
    <path d="M-213.05 -174.55 Q-213.45 -175.3 -214.35 -175.55 L-210.75 -180.5 -210.6 -183.65 Q-207.05 -188.2 -202.5 -190.0 -202.25 -182.65 -209.05 -179.95 L-213.05 -174.55 M-217.6 -171.2 L-215.6 -171.1 -224.1 -159.55 -227.6 -154.8 Q-227.75 -156.1 -228.5 -156.45 L-226.3 -159.4 -217.6 -171.15 -217.6 -171.2 M-230.95 -153.05 Q-229.7 -152.8 -229.4 -152.35 L-232.5 -148.15 -232.7 -147.95 -232.65 -147.95 -233.6 -146.65 Q-236.4 -138.8 -243.65 -134.45 -245.05 -138.45 -240.85 -143.5 -236.55 -147.35 -235.05 -147.55 L-234.8 -147.85 -230.95 -153.05" fill="#8f5601" fill-rule="evenodd" stroke="none"/>
    <path d="M-243.65 -157.95 L-242.9 -157.1 Q-241.3 -156.05 -237.75 -154.8 -234.25 -153.6 -232.0 -153.25 L-231.9 -153.15 -231.85 -153.2 -230.95 -153.05 -234.8 -147.85 -234.9 -147.95 -264.05 -147.85 Q-267.9 -150.2 -267.9 -153.8 -256.05 -156.5 -243.65 -157.95 M-229.4 -152.35 L-229.3 -152.15 -229.0 -152.0 Q-227.6 -151.4 -227.55 -153.7 L-227.55 -154.0 -227.6 -154.8 -224.1 -159.55 Q-204.75 -160.2 -185.4 -158.4 L-193.8 -148.15 -232.5 -147.95 -232.5 -148.15 -229.4 -152.35 M-228.5 -156.45 L-228.65 -156.5 -229.3 -156.6 -232.2 -156.7 Q-234.5 -156.65 -238.6 -158.5 L-230.25 -159.2 -226.35 -159.45 -226.3 -159.4 -228.5 -156.45" fill="#cc99ff" fill-rule="evenodd" stroke="none"/>
    <path d="M-214.35 -175.55 Q-213.45 -175.3 -213.05 -174.55 L-209.05 -179.95 Q-202.25 -182.65 -202.5 -190.0 -207.05 -188.2 -210.6 -183.65 L-210.75 -180.5 -214.35 -175.55 -214.65 -175.65 -215.05 -175.7 -220.3 -176.7 -225.35 -177.15 -227.65 -176.8 Q-227.5 -175.05 -226.2 -172.65 -224.15 -174.05 -222.05 -173.8 -219.8 -173.55 -218.55 -172.95 -217.9 -172.65 -217.7 -172.15 -217.55 -171.75 -217.7 -171.2 L-217.6 -171.2 -215.6 -171.1 -214.9 -171.0 -214.8 -170.95 -213.3 -171.0 Q-212.75 -171.2 -212.75 -173.2 L-212.75 -173.7 -213.05 -174.55 M-237.65 -170.6 Q-235.85 -170.7 -234.3 -174.05 L-234.25 -174.0 Q-231.25 -173.05 -229.6 -173.1 L-229.4 -174.7 Q-229.4 -175.5 -229.55 -176.15 -229.85 -178.95 -233.25 -179.1 -236.65 -179.25 -237.75 -175.85 -238.85 -172.45 -237.8 -170.9 L-237.7 -170.65 -237.65 -170.6 Q-236.9 -169.5 -234.05 -169.5 -231.85 -169.5 -230.5 -171.25 -229.9 -172.1 -229.6 -173.1 M-229.55 -176.15 L-227.65 -176.8 M-230.25 -159.2 Q-230.8 -166.75 -229.55 -169.1 -228.65 -170.85 -226.45 -172.45 L-226.2 -172.65 M-238.45 -160.6 L-238.0 -161.65 Q-237.2 -163.2 -237.2 -164.45 M-238.6 -158.5 L-238.8 -158.6 Q-238.8 -159.6 -238.45 -160.6 -240.0 -161.6 -240.95 -161.6 -242.95 -161.6 -243.65 -160.9 L-243.75 -160.5 Q-244.1 -158.9 -243.65 -157.95 L-242.9 -157.1 Q-241.3 -156.05 -237.75 -154.8 -234.25 -153.6 -232.0 -153.25 L-231.85 -153.2 -230.95 -153.05 Q-229.7 -152.8 -229.4 -152.35 L-229.3 -152.15 -229.0 -152.0 Q-227.6 -151.4 -227.55 -153.7 L-227.55 -154.0 -227.6 -154.8 Q-227.75 -156.1 -228.5 -156.45 L-228.65 -156.5 -229.3 -156.6 -232.2 -156.7 Q-234.5 -156.65 -238.6 -158.5 L-230.25 -159.2 -226.35 -159.45 M-226.3 -159.4 L-217.6 -171.15 -217.6 -171.2 M-227.6 -154.8 L-224.1 -159.55 -215.6 -171.1 M-231.9 -153.15 L-231.85 -153.2 M-228.5 -156.45 L-226.3 -159.4 M-232.65 -147.95 L-232.7 -147.95 M-232.5 -148.15 L-229.4 -152.35 M-232.5 -148.15 L-232.65 -147.95 -232.5 -147.95 -193.8 -148.15 -185.4 -158.4 Q-204.75 -160.2 -224.1 -159.55 M-234.9 -147.95 L-264.05 -147.85 Q-267.9 -150.2 -267.9 -153.8 -256.05 -156.5 -243.65 -157.95 M-232.65 -147.95 L-233.6 -146.65 Q-236.4 -138.8 -243.65 -134.45 -245.05 -138.45 -240.85 -143.5 -236.55 -147.35 -235.05 -147.55 L-234.8 -147.85 -230.95 -153.05 M-243.65 -160.9 L-243.5 -161.45 Q-242.55 -164.75 -237.8 -170.9" fill="none" stroke="#000000" stroke-linecap="round" stroke-linejoin="round" stroke-width="0.05"/>
  </g>
</svg>
