<?xml version="1.0" encoding="UTF-8" standalone="no"?>
<svg xmlns:ffdec="https://www.free-decompiler.com/flash" xmlns:xlink="http://www.w3.org/1999/xlink" ffdec:objectType="shape" height="33.6px" width="83.05px" xmlns="http://www.w3.org/2000/svg">
  <g transform="matrix(1.0, 0.0, 0.0, 1.0, 268.1, 180.5)">
    <path d="M-236.85 -172.2 Q-236.95 -172.05 -237.25 -172.4 -237.6 -172.75 -237.15 -174.9 -236.7 -177.05 -235.1 -178.45 -233.55 -179.85 -232.35 -179.75 -231.2 -179.65 -229.7 -178.35 -228.2 -177.05 -228.2 -175.55 L-228.3 -173.6 Q-231.5 -173.35 -234.15 -174.65 -235.1 -172.6 -236.4 -172.0 L-236.7 -171.95 -236.85 -172.2" fill="#ff0000" fill-rule="evenodd" stroke="none"/>
    <path d="M-210.0 -166.1 L-210.0 -165.9 -210.1 -165.25 Q-210.4 -164.55 -211.35 -164.0 -212.3 -163.5 -213.0 -163.5 -213.65 -163.5 -213.85 -164.1 L-213.85 -164.15 -214.25 -164.8 Q-214.6 -165.15 -215.15 -165.35 L-216.95 -165.7 -217.75 -166.05 Q-218.25 -166.25 -218.75 -166.55 L-222.25 -168.5 -224.65 -168.65 -225.2 -168.65 Q-225.1 -171.65 -223.9 -172.8 -220.3 -172.15 -218.75 -170.6 -216.35 -168.05 -214.55 -167.75 L-212.95 -167.5 -211.9 -167.25 Q-210.25 -166.8 -210.0 -166.1 M-243.45 -159.25 Q-245.6 -159.65 -245.6 -161.6 -245.6 -162.8 -243.1 -165.8 L-242.95 -166.0 Q-241.7 -166.4 -240.6 -165.7 -239.55 -165.1 -239.2 -163.95 L-240.25 -162.6 -239.6 -162.6 Q-237.7 -161.85 -234.9 -161.6 L-233.35 -161.3 -232.6 -160.85 Q-232.25 -160.5 -232.3 -159.95 L-232.45 -159.15 Q-232.6 -158.7 -232.9 -158.35 L-233.5 -157.85 -234.15 -157.55 -236.1 -157.4 -236.35 -157.35 -236.6 -157.45 -236.45 -157.9 Q-236.1 -159.3 -236.75 -159.35 L-242.3 -159.2 -243.45 -159.25 M-228.3 -173.6 L-228.4 -173.2 -229.3 -171.5 Q-230.6 -169.8 -232.45 -169.8 -236.1 -169.8 -236.75 -171.9 L-236.4 -172.0 Q-235.1 -172.6 -234.15 -174.65 -231.5 -173.35 -228.3 -173.6 M-242.25 -162.6 L-240.25 -162.6 -242.25 -162.6" fill="#ffcc99" fill-rule="evenodd" stroke="none"/>
    <path d="M-230.75 -159.65 L-230.75 -158.6 -230.6 -157.8 -234.15 -157.55 -233.5 -157.85 -232.9 -158.35 Q-232.6 -158.7 -232.45 -159.15 L-230.75 -159.65 M-242.95 -166.0 L-240.75 -169.05 Q-239.25 -171.3 -236.8 -171.95 L-236.75 -171.9 Q-236.1 -169.8 -232.45 -169.8 -230.6 -169.8 -229.3 -171.5 L-228.4 -173.2 -223.9 -172.8 Q-225.1 -171.65 -225.2 -168.65 L-227.45 -168.45 -230.75 -166.05 -230.85 -161.4 -231.15 -161.3 -230.85 -161.4 -230.85 -161.3 -231.15 -161.3 -232.6 -160.85 -233.35 -161.3 -234.9 -161.6 Q-237.7 -161.85 -239.6 -162.6 L-240.25 -162.6 -239.2 -163.95 Q-239.55 -165.1 -240.6 -165.7 -241.7 -166.4 -242.95 -166.0 M-237.6 -166.25 L-239.2 -163.95 -237.6 -166.25" fill="#99cc00" fill-rule="evenodd" stroke="none"/>
    <path d="M-230.6 -157.8 Q-209.05 -159.25 -185.8 -158.25 L-193.8 -147.65 -263.95 -147.7 Q-266.95 -149.8 -267.35 -153.35 L-253.35 -155.55 -258.35 -153.2 -245.25 -153.7 -236.6 -157.45 -236.35 -157.35 -236.25 -157.35 -235.5 -157.25 Q-234.85 -157.25 -234.15 -157.55 L-230.6 -157.8" fill="#ffcc00" fill-rule="evenodd" stroke="none"/>
    <path d="M-211.9 -167.25 L-208.15 -168.45 -203.5 -172.3 -191.1 -172.35 Q-196.6 -166.75 -200.2 -166.8 L-200.4 -166.7 -207.6 -166.85 -210.0 -166.1 Q-210.25 -166.8 -211.9 -167.25 M-214.25 -164.8 L-230.75 -159.65 -232.45 -159.15 -232.3 -159.95 Q-232.25 -160.5 -232.6 -160.85 L-231.15 -161.3 -230.85 -161.3 -230.85 -161.4 -216.95 -165.7 -215.15 -165.35 Q-214.6 -165.15 -214.25 -164.8 M-253.35 -155.55 L-245.9 -159.05 -243.45 -159.25 -242.3 -159.2 -236.75 -159.35 Q-236.1 -159.3 -236.45 -157.9 L-236.6 -157.45 -245.25 -153.7 -258.35 -153.2 -253.35 -155.55" fill="#8f5601" fill-rule="evenodd" stroke="none"/>
    <path d="M-211.9 -167.25 L-208.15 -168.45 -203.5 -172.3 -191.1 -172.35 Q-196.6 -166.75 -200.2 -166.8 L-200.4 -166.7 -207.6 -166.85 -210.0 -166.1 -210.0 -165.9 -210.1 -165.25 Q-210.4 -164.55 -211.35 -164.0 -212.3 -163.5 -213.0 -163.5 -213.65 -163.5 -213.85 -164.1 L-213.85 -164.15 -214.25 -164.8 -230.75 -159.65 -230.75 -158.6 -230.6 -157.8 Q-209.05 -159.25 -185.8 -158.25 L-193.8 -147.65 -263.95 -147.7 Q-266.95 -149.8 -267.35 -153.35 L-253.35 -155.55 -245.9 -159.05 -243.45 -159.25 Q-245.6 -159.65 -245.6 -161.6 -245.6 -162.8 -243.1 -165.8 L-242.95 -166.0 -240.75 -169.05 Q-239.25 -171.3 -236.8 -171.95 L-236.85 -172.2 Q-236.95 -172.05 -237.25 -172.4 -237.6 -172.75 -237.15 -174.9 -236.7 -177.05 -235.1 -178.45 -233.55 -179.85 -232.35 -179.75 -231.2 -179.65 -229.7 -178.35 -228.2 -177.05 -228.2 -175.55 L-228.3 -173.6 -228.4 -173.2 -223.9 -172.8 Q-220.3 -172.15 -218.75 -170.6 -216.35 -168.05 -214.55 -167.75 L-212.95 -167.5 -211.9 -167.25 Q-210.25 -166.8 -210.0 -166.1 M-236.4 -172.0 Q-235.1 -172.6 -234.15 -174.65 -231.5 -173.35 -228.3 -173.6 M-225.2 -168.65 Q-225.1 -171.65 -223.9 -172.8 M-216.95 -165.7 L-217.75 -166.05 Q-218.25 -166.25 -218.75 -166.55 L-222.25 -168.5 -224.65 -168.65 -225.2 -168.65 -227.45 -168.45 -230.75 -166.05 -230.85 -161.4 -216.95 -165.7 -215.15 -165.35 Q-214.6 -165.15 -214.25 -164.8 M-228.4 -173.2 L-229.3 -171.5 Q-230.6 -169.8 -232.45 -169.8 -236.1 -169.8 -236.75 -171.9 L-236.8 -171.95 -236.7 -171.95 -236.85 -172.2 M-231.15 -161.3 L-230.85 -161.4 -230.85 -161.3 M-231.15 -161.3 L-232.6 -160.85 Q-232.25 -160.5 -232.3 -159.95 L-232.45 -159.15 -230.75 -159.65 M-236.75 -171.9 L-236.4 -172.0 -236.7 -171.95 M-240.25 -162.6 L-239.2 -163.95 Q-239.55 -165.1 -240.6 -165.7 -241.7 -166.4 -242.95 -166.0 M-232.6 -160.85 L-233.35 -161.3 -234.9 -161.6 Q-237.7 -161.85 -239.6 -162.6 L-240.25 -162.6 -242.25 -162.6 M-239.2 -163.95 L-237.6 -166.25 M-232.45 -159.15 Q-232.6 -158.7 -232.9 -158.35 L-233.5 -157.85 -234.15 -157.55 -230.6 -157.8 M-236.6 -157.45 L-236.45 -157.9 Q-236.1 -159.3 -236.75 -159.35 L-242.3 -159.2 -243.45 -159.25 M-236.35 -157.35 L-236.1 -157.4 -236.25 -157.35 -236.35 -157.35 -236.6 -157.45 -245.25 -153.7 -258.35 -153.2 -253.35 -155.55 M-234.15 -157.55 Q-234.85 -157.25 -235.5 -157.25 L-236.25 -157.35" fill="none" stroke="#000000" stroke-linecap="round" stroke-linejoin="round" stroke-width="1.5"/>
    <path d="M-236.85 -172.2 Q-236.95 -172.05 -237.25 -172.4 -237.6 -172.75 -237.15 -174.9 -236.7 -177.05 -235.1 -178.45 -233.55 -179.85 -232.35 -179.75 -231.2 -179.65 -229.7 -178.35 -228.2 -177.05 -228.2 -175.55 L-228.3 -173.6 Q-231.5 -173.35 -234.15 -174.65 -235.1 -172.6 -236.4 -172.0 L-236.7 -171.95 -236.85 -172.2" fill="#ff0000" fill-rule="evenodd" stroke="none"/>
    <path d="M-210.0 -166.1 L-210.0 -165.9 -210.1 -165.25 Q-210.4 -164.55 -211.35 -164.0 -212.3 -163.5 -213.0 -163.5 -213.65 -163.5 -213.85 -164.1 L-213.85 -164.15 -214.25 -164.8 Q-214.6 -165.15 -215.15 -165.35 L-216.95 -165.7 -217.75 -166.05 Q-218.25 -166.25 -218.75 -166.55 L-222.25 -168.5 -224.65 -168.65 -225.2 -168.65 Q-225.1 -171.65 -223.9 -172.8 -220.3 -172.15 -218.75 -170.6 -216.35 -168.05 -214.55 -167.75 L-212.95 -167.5 -211.9 -167.25 Q-210.25 -166.8 -210.0 -166.1 M-243.45 -159.25 Q-245.6 -159.65 -245.6 -161.6 -245.6 -162.8 -243.1 -165.8 L-242.95 -166.0 Q-241.7 -166.4 -240.6 -165.7 -239.55 -165.1 -239.2 -163.95 L-240.25 -162.6 -239.6 -162.6 Q-237.7 -161.85 -234.9 -161.6 L-233.35 -161.3 -232.6 -160.85 Q-232.25 -160.5 -232.3 -159.95 L-232.45 -159.15 Q-232.6 -158.7 -232.9 -158.35 L-233.5 -157.85 -234.15 -157.55 -236.1 -157.4 -236.35 -157.35 -236.6 -157.45 -236.45 -157.9 Q-236.1 -159.3 -236.75 -159.35 L-242.3 -159.2 -243.45 -159.25 M-228.3 -173.6 L-228.4 -173.2 -229.3 -171.5 Q-230.6 -169.8 -232.45 -169.8 -236.1 -169.8 -236.75 -171.9 L-236.4 -172.0 Q-235.1 -172.6 -234.15 -174.65 -231.5 -173.35 -228.3 -173.6 M-242.25 -162.6 L-240.25 -162.6 -242.25 -162.6" fill="#ffcc99" fill-rule="evenodd" stroke="none"/>
    <path d="M-230.75 -159.65 L-230.75 -158.6 -230.6 -157.8 -234.15 -157.55 -233.5 -157.85 -232.9 -158.35 Q-232.6 -158.7 -232.45 -159.15 L-230.75 -159.65 M-242.95 -166.0 L-240.75 -169.05 Q-239.25 -171.3 -236.8 -171.95 L-236.75 -171.9 Q-236.1 -169.8 -232.45 -169.8 -230.6 -169.8 -229.3 -171.5 L-228.4 -173.2 -223.9 -172.8 Q-225.1 -171.65 -225.2 -168.65 L-227.45 -168.45 -230.75 -166.05 -230.85 -161.4 -230.85 -161.3 -231.15 -161.3 -230.85 -161.4 -231.15 -161.3 -232.6 -160.85 -233.35 -161.3 -234.9 -161.6 Q-237.7 -161.85 -239.6 -162.6 L-240.25 -162.6 -239.2 -163.95 Q-239.55 -165.1 -240.6 -165.7 -241.7 -166.4 -242.95 -166.0 M-237.6 -166.25 L-239.2 -163.95 -237.6 -166.25" fill="#99cc00" fill-rule="evenodd" stroke="none"/>
    <path d="M-211.9 -167.25 L-208.15 -168.45 -203.5 -172.3 -191.1 -172.35 Q-196.6 -166.75 -200.2 -166.8 L-200.4 -166.7 -207.6 -166.85 -210.0 -166.1 Q-210.25 -166.8 -211.9 -167.25 M-214.25 -164.8 L-230.75 -159.65 -232.45 -159.15 -232.3 -159.95 Q-232.25 -160.5 -232.6 -160.85 L-231.15 -161.3 -230.85 -161.3 -230.85 -161.4 -216.95 -165.7 -215.15 -165.35 Q-214.6 -165.15 -214.25 -164.8 M-253.35 -155.55 L-245.9 -159.05 -243.45 -159.25 -242.3 -159.2 -236.75 -159.35 Q-236.1 -159.3 -236.45 -157.9 L-236.6 -157.45 -245.25 -153.7 -258.35 -153.2 -253.35 -155.55" fill="#8f5601" fill-rule="evenodd" stroke="none"/>
    <path d="M-230.6 -157.8 Q-209.05 -159.25 -185.8 -158.25 L-193.8 -147.65 -263.95 -147.7 Q-266.95 -149.8 -267.35 -153.35 L-253.35 -155.55 -258.35 -153.2 -245.25 -153.7 -236.6 -157.45 -236.35 -157.35 -236.25 -157.35 -235.5 -157.25 Q-234.85 -157.25 -234.15 -157.55 L-230.6 -157.8" fill="#cc99ff" fill-rule="evenodd" stroke="none"/>
    <path d="M-211.9 -167.25 L-208.15 -168.45 -203.5 -172.3 -191.1 -172.35 Q-196.6 -166.75 -200.2 -166.8 L-200.4 -166.7 -207.6 -166.85 -210.0 -166.1 -210.0 -165.9 -210.1 -165.25 Q-210.4 -164.55 -211.35 -164.0 -212.3 -163.5 -213.0 -163.5 -213.65 -163.5 -213.85 -164.1 L-213.85 -164.15 -214.25 -164.8 -230.75 -159.65 -230.75 -158.6 -230.6 -157.8 Q-209.05 -159.25 -185.8 -158.25 L-193.8 -147.65 -263.95 -147.7 Q-266.95 -149.8 -267.35 -153.35 L-253.35 -155.55 -245.9 -159.05 -243.45 -159.25 Q-245.6 -159.65 -245.6 -161.6 -245.6 -162.8 -243.1 -165.8 L-242.95 -166.0 -240.75 -169.05 Q-239.25 -171.3 -236.8 -171.95 L-236.85 -172.2 Q-236.95 -172.05 -237.25 -172.4 -237.6 -172.75 -237.15 -174.9 -236.7 -177.05 -235.1 -178.45 -233.55 -179.85 -232.35 -179.75 -231.2 -179.65 -229.7 -178.35 -228.2 -177.05 -228.2 -175.55 L-228.3 -173.6 -228.4 -173.2 -223.9 -172.8 Q-220.3 -172.15 -218.75 -170.6 -216.35 -168.05 -214.55 -167.75 L-212.95 -167.5 -211.9 -167.25 Q-210.25 -166.8 -210.0 -166.1 M-236.4 -172.0 Q-235.1 -172.6 -234.15 -174.65 -231.5 -173.35 -228.3 -173.6 M-225.2 -168.65 Q-225.1 -171.65 -223.9 -172.8 M-216.95 -165.7 L-217.75 -166.05 Q-218.25 -166.25 -218.75 -166.55 L-222.25 -168.5 -224.65 -168.65 -225.2 -168.65 -227.45 -168.45 -230.75 -166.05 -230.85 -161.4 -216.95 -165.7 -215.15 -165.35 Q-214.6 -165.15 -214.25 -164.8 M-228.4 -173.2 L-229.3 -171.5 Q-230.6 -169.8 -232.45 -169.8 -236.1 -169.8 -236.75 -171.9 L-236.8 -171.95 -236.7 -171.95 -236.85 -172.2 M-230.85 -161.3 L-230.85 -161.4 -231.15 -161.3 -232.6 -160.85 Q-232.25 -160.5 -232.3 -159.95 L-232.45 -159.15 -230.75 -159.65 M-236.75 -171.9 L-236.4 -172.0 -236.7 -171.95 M-232.6 -160.85 L-233.35 -161.3 -234.9 -161.6 Q-237.7 -161.85 -239.6 -162.6 L-240.25 -162.6 -242.25 -162.6 M-240.25 -162.6 L-239.2 -163.95 Q-239.55 -165.1 -240.6 -165.7 -241.7 -166.4 -242.95 -166.0 M-239.2 -163.95 L-237.6 -166.25 M-232.45 -159.15 Q-232.6 -158.7 -232.9 -158.35 L-233.5 -157.85 -234.15 -157.55 -230.6 -157.8 M-236.6 -157.45 L-236.45 -157.9 Q-236.1 -159.3 -236.75 -159.35 L-242.3 -159.2 -243.45 -159.25 M-236.1 -157.4 L-236.35 -157.35 -236.25 -157.35 -236.1 -157.4 M-234.15 -157.55 Q-234.85 -157.25 -235.5 -157.25 L-236.25 -157.35 M-236.35 -157.35 L-236.6 -157.45 -245.25 -153.7 -258.35 -153.2 -253.35 -155.55" fill="none" stroke="#000000" stroke-linecap="round" stroke-linejoin="round" stroke-width="0.05"/>
  </g>
</svg>
