<?xml version="1.0" encoding="UTF-8" standalone="no"?>
<svg xmlns:ffdec="https://www.free-decompiler.com/flash" xmlns:xlink="http://www.w3.org/1999/xlink" ffdec:objectType="shape" height="34.4px" width="83.35px" xmlns="http://www.w3.org/2000/svg">
  <g transform="matrix(1.0, 0.0, 0.0, 1.0, 268.4, 181.35)">
    <path d="M-226.75 -175.15 Q-230.0 -176.4 -231.5 -176.45 -233.6 -172.75 -234.35 -172.0 L-234.65 -172.25 -234.8 -172.35 -235.1 -172.65 Q-236.25 -173.7 -236.3 -175.2 -236.35 -176.7 -235.7 -177.75 L-234.15 -179.7 Q-233.25 -180.55 -230.5 -180.6 -227.8 -180.65 -226.95 -178.15 -226.15 -175.7 -226.75 -175.15" fill="#ff0000" fill-rule="evenodd" stroke="none"/>
    <path d="M-234.35 -172.0 Q-233.6 -172.75 -231.5 -176.45 -230.0 -176.4 -226.75 -175.15 -227.05 -173.5 -228.25 -172.4 -228.85 -171.8 -229.55 -171.5 -230.5 -171.05 -231.65 -171.05 -232.95 -171.05 -234.35 -172.0 M-230.9 -168.55 L-230.9 -168.45 -230.85 -167.9 Q-230.8 -166.7 -231.85 -167.0 L-233.15 -167.05 -234.0 -167.45 -233.15 -167.05 -233.25 -167.1 -233.6 -167.25 -233.65 -167.2 -239.45 -164.85 -241.5 -163.95 Q-243.95 -162.95 -244.15 -162.95 -246.65 -162.95 -246.65 -165.75 L-246.5 -167.1 -246.2 -167.1 Q-245.05 -168.6 -242.0 -168.9 L-240.6 -169.2 -239.0 -169.55 -238.95 -169.6 -238.65 -169.4 -235.3 -168.0 -233.95 -167.4 -234.0 -167.45 Q-234.8 -168.1 -235.25 -169.8 L-235.35 -170.3 -235.3 -170.5 Q-235.15 -171.0 -234.05 -171.0 -233.35 -171.0 -232.25 -170.3 -231.0 -169.5 -230.9 -168.6 L-230.9 -168.55 M-225.65 -165.85 L-224.6 -167.95 -221.15 -165.9 -214.25 -161.45 -213.1 -160.35 -213.05 -160.25 Q-212.6 -159.15 -213.3 -159.0 L-213.85 -158.85 -215.15 -158.5 -217.1 -159.15 -217.3 -159.5 -217.45 -160.35 -217.55 -162.25 -217.55 -162.85 -225.65 -165.85 M-233.65 -167.2 L-233.95 -167.4 -233.65 -167.2 M-238.65 -169.4 L-239.0 -169.55 -238.65 -169.4" fill="#ffcc99" fill-rule="evenodd" stroke="none"/>
    <path d="M-235.1 -172.65 L-234.8 -172.35 -234.65 -172.25 -234.35 -172.0 Q-232.95 -171.05 -231.65 -171.05 -230.5 -171.05 -229.55 -171.5 -228.1 -170.2 -224.6 -167.95 L-225.65 -165.85 -225.7 -165.7 -230.85 -167.9 -230.9 -168.45 -230.9 -168.55 -230.85 -168.55 -230.9 -168.6 Q-231.0 -169.5 -232.25 -170.3 -233.35 -171.0 -234.05 -171.0 -235.15 -171.0 -235.3 -170.5 L-235.35 -170.3 -235.25 -169.8 -239.4 -171.6 -239.55 -171.7 -239.0 -172.1 -239.0 -172.15 Q-237.4 -173.1 -235.1 -172.65 M-229.25 -165.3 L-230.15 -163.75 Q-231.1 -162.25 -231.35 -161.1 L-231.35 -155.05 -242.55 -154.55 Q-242.45 -160.7 -241.5 -163.95 L-239.45 -164.85 -233.65 -167.2 -233.6 -167.25 -233.25 -167.1 -229.25 -165.3 M-233.65 -167.2 L-233.45 -167.15 -233.25 -167.1 -233.45 -167.15 -233.65 -167.2" fill="#99cc00" fill-rule="evenodd" stroke="none"/>
    <path d="M-231.35 -155.05 L-209.05 -156.4 -208.55 -156.45 -203.65 -156.8 -185.8 -158.25 -193.95 -147.7 -263.65 -147.7 Q-266.95 -149.8 -267.65 -153.9 -255.4 -154.05 -242.55 -154.55 L-231.35 -155.05" fill="#ffcc00" fill-rule="evenodd" stroke="none"/>
    <path d="M-235.25 -169.8 Q-234.8 -168.1 -234.0 -167.45 L-235.3 -168.0 -238.65 -169.4 -238.95 -169.6 -239.0 -169.55 -239.9 -169.95 Q-242.15 -169.3 -242.6 -169.4 L-242.85 -169.45 Q-248.8 -170.85 -255.7 -177.3 L-246.2 -176.85 Q-243.15 -175.0 -239.55 -171.7 L-239.4 -171.6 -235.25 -169.8 M-233.15 -167.05 L-231.85 -167.0 Q-230.8 -166.7 -230.85 -167.9 L-225.7 -165.7 -217.55 -162.25 -217.45 -160.35 -233.15 -167.05 M-209.05 -156.4 L-210.45 -157.35 -213.85 -158.85 -213.3 -159.0 Q-212.6 -159.15 -213.05 -160.25 L-213.05 -160.3 -210.25 -159.1 -206.1 -159.65 -203.65 -156.8 -208.55 -156.45 -209.05 -156.4" fill="#8f5601" fill-rule="evenodd" stroke="none"/>
    <path d="M-234.35 -172.0 Q-233.6 -172.75 -231.5 -176.45 -230.0 -176.4 -226.75 -175.15 -226.15 -175.7 -226.95 -178.15 -227.8 -180.65 -230.5 -180.6 -233.25 -180.55 -234.15 -179.7 L-235.7 -177.75 Q-236.35 -176.7 -236.3 -175.2 -236.25 -173.7 -235.1 -172.65 L-234.8 -172.35 -234.65 -172.25 -234.35 -172.0 Q-232.95 -171.05 -231.65 -171.05 -230.5 -171.05 -229.55 -171.5 -228.85 -171.8 -228.25 -172.4 -227.05 -173.5 -226.75 -175.15 M-230.85 -167.9 L-230.9 -168.45 -230.9 -168.55 -230.9 -168.6 Q-231.0 -169.5 -232.25 -170.3 -233.35 -171.0 -234.05 -171.0 -235.15 -171.0 -235.3 -170.5 L-235.35 -170.3 -235.25 -169.8 Q-234.8 -168.1 -234.0 -167.45 L-233.15 -167.05 -231.85 -167.0 Q-230.8 -166.7 -230.85 -167.9 L-225.7 -165.7 -217.55 -162.25 -217.45 -160.35 -233.15 -167.05 -233.25 -167.1 -233.45 -167.15 -233.65 -167.2 -239.45 -164.85 -241.5 -163.95 Q-242.45 -160.7 -242.55 -154.55 L-231.35 -155.05 -209.05 -156.4 -210.45 -157.35 -213.85 -158.85 -215.15 -158.5 -217.1 -159.15 -217.3 -159.5 -217.45 -160.35 M-225.65 -165.85 L-224.6 -167.95 Q-228.1 -170.2 -229.55 -171.5 M-230.85 -168.55 L-230.9 -168.6 M-229.25 -165.3 L-230.15 -163.75 Q-231.1 -162.25 -231.35 -161.1 L-231.35 -155.05 M-233.95 -167.4 L-234.0 -167.45 -235.3 -168.0 -238.65 -169.4 -239.0 -169.55 -238.95 -169.6 M-233.95 -167.4 L-233.65 -167.2 -233.6 -167.25 M-235.25 -169.8 L-239.4 -171.6 -239.55 -171.7 Q-243.15 -175.0 -246.2 -176.85 L-255.7 -177.3 Q-248.8 -170.85 -242.85 -169.45 L-242.6 -169.4 Q-242.15 -169.3 -239.9 -169.95 L-239.0 -169.55 -240.6 -169.2 -242.0 -168.9 Q-245.05 -168.6 -246.2 -167.1 L-246.5 -167.1 -246.65 -165.75 Q-246.65 -162.95 -244.15 -162.95 -243.95 -162.95 -241.5 -163.95 M-239.55 -171.7 L-239.0 -172.15 Q-237.4 -173.1 -235.1 -172.65 M-239.55 -171.7 L-239.0 -172.1 M-217.55 -162.85 L-217.55 -162.25 M-224.6 -167.95 L-221.15 -165.9 -214.25 -161.45 -213.1 -160.35 -213.05 -160.3 -210.25 -159.1 -206.1 -159.65 -203.65 -156.8 -185.8 -158.25 -193.95 -147.7 -263.65 -147.7 Q-266.95 -149.8 -267.65 -153.9 -255.4 -154.05 -242.55 -154.55 M-213.05 -160.25 L-213.1 -160.35 M-213.85 -158.85 L-213.3 -159.0 Q-212.6 -159.15 -213.05 -160.25 M-203.65 -156.8 L-208.55 -156.45 -209.05 -156.4" fill="none" stroke="#000000" stroke-linecap="round" stroke-linejoin="round" stroke-width="1.5"/>
    <path d="M-226.75 -175.15 Q-230.0 -176.4 -231.5 -176.45 -233.6 -172.75 -234.35 -172.0 L-234.65 -172.25 -234.8 -172.35 -235.1 -172.65 Q-236.25 -173.7 -236.3 -175.2 -236.35 -176.7 -235.7 -177.75 L-234.15 -179.7 Q-233.25 -180.55 -230.5 -180.6 -227.8 -180.65 -226.95 -178.15 -226.15 -175.7 -226.75 -175.15" fill="#ff0000" fill-rule="evenodd" stroke="none"/>
    <path d="M-234.35 -172.0 Q-233.6 -172.75 -231.5 -176.45 -230.0 -176.4 -226.75 -175.15 -227.05 -173.5 -228.25 -172.4 -228.85 -171.8 -229.55 -171.5 -230.5 -171.05 -231.65 -171.05 -232.95 -171.05 -234.35 -172.0 M-235.25 -169.8 L-235.35 -170.3 -235.3 -170.5 Q-235.15 -171.0 -234.05 -171.0 -233.35 -171.0 -232.25 -170.3 -231.0 -169.5 -230.9 -168.6 L-230.9 -168.55 -230.9 -168.45 -230.85 -167.9 Q-230.8 -166.7 -231.85 -167.0 L-233.15 -167.05 -234.0 -167.45 -233.15 -167.05 -233.25 -167.1 -233.6 -167.25 -233.65 -167.2 -233.95 -167.4 -233.65 -167.2 -239.45 -164.85 -241.5 -163.95 Q-243.95 -162.95 -244.15 -162.95 -246.65 -162.95 -246.65 -165.75 L-246.5 -167.1 -246.2 -167.1 Q-245.05 -168.6 -242.0 -168.9 L-240.6 -169.2 -239.0 -169.55 -238.65 -169.4 -239.0 -169.55 -238.95 -169.6 -238.65 -169.4 -235.3 -168.0 -233.95 -167.4 -234.0 -167.45 Q-234.8 -168.1 -235.25 -169.8 M-217.55 -162.25 L-217.55 -162.85 -225.65 -165.85 -224.6 -167.95 -221.15 -165.9 -214.25 -161.45 -213.1 -160.35 -213.05 -160.25 Q-212.6 -159.15 -213.3 -159.0 L-213.85 -158.85 -215.15 -158.5 -217.1 -159.15 -217.3 -159.5 -217.45 -160.35 -217.55 -162.25" fill="#ffcc99" fill-rule="evenodd" stroke="none"/>
    <path d="M-235.1 -172.65 L-234.8 -172.35 -234.65 -172.25 -234.35 -172.0 Q-232.95 -171.05 -231.65 -171.05 -230.5 -171.05 -229.55 -171.5 -228.1 -170.2 -224.6 -167.95 L-225.65 -165.85 -225.7 -165.7 -230.85 -167.9 -230.9 -168.45 -230.9 -168.55 -230.85 -168.55 -230.9 -168.6 Q-231.0 -169.5 -232.25 -170.3 -233.35 -171.0 -234.05 -171.0 -235.15 -171.0 -235.3 -170.5 L-235.35 -170.3 -235.25 -169.8 -239.4 -171.6 -239.55 -171.7 -239.0 -172.1 -239.0 -172.15 Q-237.4 -173.1 -235.1 -172.65 M-229.25 -165.3 L-230.15 -163.75 Q-231.1 -162.25 -231.35 -161.1 L-231.35 -155.05 -242.55 -154.55 Q-242.45 -160.7 -241.5 -163.95 L-239.45 -164.85 -233.65 -167.2 -233.6 -167.25 -233.25 -167.1 -233.45 -167.15 -233.65 -167.2 -233.45 -167.15 -233.25 -167.1 -229.25 -165.3" fill="#99cc00" fill-rule="evenodd" stroke="none"/>
    <path d="M-235.25 -169.8 Q-234.8 -168.1 -234.0 -167.45 L-235.3 -168.0 -238.65 -169.4 -238.95 -169.6 -239.0 -169.55 -239.9 -169.95 Q-242.15 -169.3 -242.6 -169.4 L-242.85 -169.45 Q-248.8 -170.85 -255.7 -177.3 L-246.2 -176.85 Q-243.15 -175.0 -239.55 -171.7 L-239.4 -171.6 -235.25 -169.8 M-233.15 -167.05 L-231.85 -167.0 Q-230.8 -166.7 -230.85 -167.9 L-225.7 -165.7 -217.55 -162.25 -217.45 -160.35 -233.15 -167.05 M-213.05 -160.3 L-210.25 -159.1 -206.1 -159.65 -203.65 -156.8 -208.55 -156.45 -209.05 -156.4 -210.45 -157.35 -213.85 -158.85 -213.3 -159.0 Q-212.6 -159.15 -213.05 -160.25 L-213.05 -160.3" fill="#8f5601" fill-rule="evenodd" stroke="none"/>
    <path d="M-234.35 -172.0 Q-233.6 -172.75 -231.5 -176.45 -230.0 -176.4 -226.75 -175.15 -226.15 -175.7 -226.95 -178.15 -227.8 -180.65 -230.5 -180.6 -233.25 -180.55 -234.15 -179.7 L-235.7 -177.75 Q-236.35 -176.7 -236.3 -175.2 -236.25 -173.7 -235.1 -172.65 L-234.8 -172.35 -234.65 -172.25 -234.35 -172.0 Q-232.95 -171.05 -231.65 -171.05 -230.5 -171.05 -229.55 -171.5 -228.85 -171.8 -228.25 -172.4 -227.05 -173.5 -226.75 -175.15 M-230.9 -168.6 Q-231.0 -169.5 -232.25 -170.3 -233.35 -171.0 -234.05 -171.0 -235.15 -171.0 -235.3 -170.5 L-235.35 -170.3 -235.25 -169.8 Q-234.8 -168.1 -234.0 -167.45 L-233.15 -167.05 -231.85 -167.0 Q-230.8 -166.7 -230.85 -167.9 L-230.9 -168.45 -230.9 -168.55 -230.9 -168.6 -230.85 -168.55 M-229.25 -165.3 L-230.15 -163.75 Q-231.1 -162.25 -231.35 -161.1 L-231.35 -155.05 M-242.55 -154.55 Q-242.45 -160.7 -241.5 -163.95 -243.95 -162.95 -244.15 -162.95 -246.65 -162.95 -246.65 -165.75 L-246.5 -167.1 -246.2 -167.1 Q-245.05 -168.6 -242.0 -168.9 L-240.6 -169.2 -239.0 -169.55 -239.9 -169.95 Q-242.15 -169.3 -242.6 -169.4 L-242.85 -169.45 Q-248.8 -170.85 -255.7 -177.3 L-246.2 -176.85 Q-243.15 -175.0 -239.55 -171.7 L-239.0 -172.15 Q-237.4 -173.1 -235.1 -172.65 M-225.7 -165.7 L-217.55 -162.25 -217.55 -162.85 M-225.65 -165.85 L-224.6 -167.95 Q-228.1 -170.2 -229.55 -171.5 M-225.7 -165.7 L-230.85 -167.9 M-234.0 -167.45 L-233.95 -167.4 -233.65 -167.2 -233.6 -167.25 M-233.25 -167.1 L-233.15 -167.05 -217.45 -160.35 -217.55 -162.25 M-233.65 -167.2 L-233.45 -167.15 -233.25 -167.1 M-235.3 -168.0 L-234.0 -167.45 M-235.3 -168.0 L-238.65 -169.4 -239.0 -169.55 -238.95 -169.6 M-239.0 -172.1 L-239.55 -171.7 -239.4 -171.6 -235.25 -169.8 M-241.5 -163.95 L-239.45 -164.85 -233.65 -167.2 M-224.6 -167.95 L-221.15 -165.9 -214.25 -161.45 -213.1 -160.35 -213.05 -160.3 -210.25 -159.1 -206.1 -159.65 -203.65 -156.8 M-209.05 -156.4 L-210.45 -157.35 -213.85 -158.85 -215.15 -158.5 -217.1 -159.15 -217.3 -159.5 -217.45 -160.35 M-213.05 -160.25 Q-212.6 -159.15 -213.3 -159.0 L-213.85 -158.85 M-213.1 -160.35 L-213.05 -160.25" fill="none" stroke="#000000" stroke-linecap="round" stroke-linejoin="round" stroke-width="0.05"/>
    <path d="M-209.05 -156.4 L-208.55 -156.45 -203.65 -156.8 -185.8 -158.25 -193.95 -147.7 -263.65 -147.7 Q-266.95 -149.8 -267.65 -153.9 -255.4 -154.05 -242.55 -154.55 L-231.35 -155.05 -209.05 -156.4" fill="#cc99ff" fill-rule="evenodd" stroke="none"/>
    <path d="M-209.05 -156.4 L-208.55 -156.45 -203.65 -156.8 -185.8 -158.25 -193.95 -147.7 -263.65 -147.7 Q-266.95 -149.8 -267.65 -153.9 -255.4 -154.05 -242.55 -154.55 L-231.35 -155.05 -209.05 -156.4 Z" fill="none" stroke="#000000" stroke-linecap="round" stroke-linejoin="round" stroke-width="0.05"/>
  </g>
</svg>
