<?xml version="1.0" encoding="UTF-8" standalone="no"?>
<svg xmlns:ffdec="https://www.free-decompiler.com/flash" xmlns:xlink="http://www.w3.org/1999/xlink" ffdec:objectType="shape" height="53.8px" width="83.35px" xmlns="http://www.w3.org/2000/svg">
  <g transform="matrix(1.0, 0.0, 0.0, 1.0, 268.4, 200.75)">
    <path d="M-186.1 -158.25 L-185.8 -158.25 -193.95 -147.7 -263.65 -147.7 Q-266.85 -149.75 -267.6 -153.6 -252.0 -152.6 -236.7 -152.95 -211.0 -153.65 -186.1 -158.25" fill="#ffcc00" fill-rule="evenodd" stroke="none"/>
    <path d="M-238.1 -175.25 L-238.0 -175.3 -237.75 -175.5 -235.55 -177.0 Q-234.3 -178.3 -232.6 -179.0 L-230.5 -179.5 -228.35 -179.65 -228.3 -179.65 -228.05 -180.75 -227.6 -181.4 Q-226.9 -181.4 -226.65 -180.95 L-226.15 -180.0 -226.1 -179.9 -225.05 -178.0 Q-224.8 -177.6 -225.3 -176.4 L-225.45 -176.15 -226.6 -175.75 -226.95 -175.8 -227.5 -175.95 -228.25 -176.55 -229.65 -176.4 -231.2 -176.3 Q-231.3 -175.9 -234.95 -172.25 L-234.95 -172.1 -234.95 -172.25 Q-231.3 -175.9 -231.2 -176.3 L-229.65 -176.4 Q-229.45 -174.3 -230.15 -173.15 -231.0 -171.85 -233.7 -170.9 -234.35 -171.8 -234.95 -172.1 L-235.1 -171.65 Q-235.9 -171.75 -236.85 -172.45 -237.75 -173.2 -238.1 -175.25" fill="#ffcc99" fill-rule="evenodd" stroke="none"/>
    <path d="M-237.75 -175.5 L-236.8 -178.8 Q-236.0 -180.05 -233.6 -180.05 L-230.5 -179.5 -232.6 -179.0 Q-234.3 -178.3 -235.55 -177.0 L-237.75 -175.5" fill="#ff0000" fill-rule="evenodd" stroke="none"/>
    <path d="M-241.8 -159.05 L-241.45 -162.9 -240.65 -168.6 -240.5 -168.6 -240.95 -168.85 Q-241.35 -169.2 -241.35 -170.6 -241.35 -172.8 -239.3 -174.35 L-238.1 -175.25 Q-237.75 -173.2 -236.85 -172.45 -235.9 -171.75 -235.1 -171.65 L-234.95 -172.1 Q-234.35 -171.8 -233.7 -170.9 -231.75 -167.2 -231.65 -162.8 L-231.6 -159.35 -231.6 -158.55 -231.6 -157.3 Q-233.8 -155.75 -237.55 -155.9 -239.95 -155.9 -241.85 -156.75 L-241.85 -157.7 -241.8 -159.05 M-240.5 -168.6 L-239.1 -168.45 Q-237.65 -168.45 -236.35 -169.8 -235.5 -170.7 -235.1 -171.65 -235.5 -170.7 -236.35 -169.8 -237.65 -168.45 -239.1 -168.45 L-240.5 -168.6" fill="#99cc00" fill-rule="evenodd" stroke="none"/>
    <path d="M-244.65 -157.4 Q-244.05 -158.25 -241.8 -159.05 L-241.85 -157.7 -241.85 -156.75 Q-239.95 -155.9 -237.55 -155.9 -233.8 -155.75 -231.6 -157.3 L-231.6 -158.55 -231.6 -159.35 Q-229.75 -159.2 -228.7 -158.7 -227.25 -158.05 -227.35 -156.75 -227.55 -154.55 -230.15 -153.9 L-236.7 -153.15 Q-240.7 -153.05 -242.75 -153.85 -244.85 -154.7 -245.0 -156.25 L-244.65 -157.4" fill="#996699" fill-rule="evenodd" stroke="none"/>
    <path d="M-267.6 -153.6 L-267.65 -153.9 Q-256.4 -156.15 -244.65 -157.4 L-245.0 -156.25 Q-244.85 -154.7 -242.75 -153.85 -240.7 -153.05 -236.7 -153.15 L-230.15 -153.9 Q-227.55 -154.55 -227.35 -156.75 -227.25 -158.05 -228.7 -158.7 L-223.5 -158.95 -223.1 -159.0 -221.35 -159.05 -220.45 -159.05 Q-203.75 -159.55 -186.1 -158.25 -211.0 -153.65 -236.7 -152.95 -252.0 -152.6 -267.6 -153.6" fill="#fede5f" fill-rule="evenodd" stroke="none"/>
    <path d="M-228.05 -180.75 L-229.1 -185.2 -233.2 -190.7 -232.05 -200.0 -226.7 -191.85 -227.7 -186.75 -226.15 -180.0 -226.65 -180.95 Q-226.9 -181.4 -227.6 -181.4 L-228.05 -180.75 M-225.3 -176.4 L-221.35 -159.05 -223.1 -159.0 -226.95 -175.8 -226.6 -175.75 -225.45 -176.15 -225.3 -176.4" fill="#8f5601" fill-rule="evenodd" stroke="none"/>
    <path d="M-186.1 -158.25 L-185.8 -158.25 -193.95 -147.7 -263.65 -147.7 Q-266.85 -149.75 -267.6 -153.6 L-267.65 -153.9 Q-256.4 -156.15 -244.65 -157.4 -244.05 -158.25 -241.8 -159.05 L-241.45 -162.9 -240.65 -168.6 -240.5 -168.6 -240.95 -168.85 Q-241.35 -169.2 -241.35 -170.6 -241.35 -172.8 -239.3 -174.35 L-238.1 -175.25 -238.0 -175.3 -237.75 -175.5 -236.8 -178.8 Q-236.0 -180.05 -233.6 -180.05 L-230.5 -179.5 -228.35 -179.65 -228.3 -179.65 -228.05 -180.75 -229.1 -185.2 -233.2 -190.7 -232.05 -200.0 -226.7 -191.85 -227.7 -186.75 -226.15 -180.0 -226.1 -179.9 -225.05 -178.0 Q-224.8 -177.6 -225.3 -176.4 L-221.35 -159.05 -220.45 -159.05 Q-203.75 -159.55 -186.1 -158.25 -211.0 -153.65 -236.7 -152.95 -252.0 -152.6 -267.6 -153.6 M-230.5 -179.5 L-232.6 -179.0 Q-234.3 -178.3 -235.55 -177.0 L-237.75 -175.5 M-228.05 -180.75 L-227.6 -181.4 Q-226.9 -181.4 -226.65 -180.95 L-226.15 -180.0 M-234.95 -172.1 L-234.95 -172.25 Q-231.3 -175.9 -231.2 -176.3 L-229.65 -176.4 -228.25 -176.55 -227.5 -175.95 -226.95 -175.8 -226.6 -175.75 -225.45 -176.15 -225.3 -176.4 M-233.7 -170.9 Q-234.35 -171.8 -234.95 -172.1 L-235.1 -171.65 Q-235.5 -170.7 -236.35 -169.8 -237.65 -168.45 -239.1 -168.45 L-240.5 -168.6 M-235.1 -171.65 Q-235.9 -171.75 -236.85 -172.45 -237.75 -173.2 -238.1 -175.25 M-231.6 -159.35 L-231.6 -158.55 -231.6 -157.3 Q-233.8 -155.75 -237.55 -155.9 -239.95 -155.9 -241.85 -156.75 L-241.85 -157.7 -241.8 -159.05 M-228.7 -158.7 Q-227.25 -158.05 -227.35 -156.75 -227.55 -154.55 -230.15 -153.9 L-236.7 -153.15 Q-240.7 -153.05 -242.75 -153.85 -244.85 -154.7 -245.0 -156.25 L-244.65 -157.4 M-228.7 -158.7 Q-229.75 -159.2 -231.6 -159.35 L-231.65 -162.8 Q-231.75 -167.2 -233.7 -170.9 -231.0 -171.85 -230.15 -173.15 -229.45 -174.3 -229.65 -176.4 M-223.1 -159.0 L-223.5 -158.95 -228.7 -158.7 M-226.95 -175.8 L-223.1 -159.0 -221.35 -159.05" fill="none" stroke="#000000" stroke-linecap="round" stroke-linejoin="round" stroke-width="1.5"/>
    <path d="M-186.1 -158.25 L-185.8 -158.25 -185.9 -158.1 -186.1 -158.25" fill="#ffcc00" fill-rule="evenodd" stroke="none"/>
    <path d="M-238.1 -175.25 L-238.0 -175.3 -237.75 -175.5 -235.55 -177.0 Q-234.3 -178.3 -232.6 -179.0 L-230.5 -179.5 -228.35 -179.65 -228.3 -179.65 -228.05 -180.75 -227.6 -181.4 Q-226.9 -181.4 -226.65 -180.95 L-226.15 -180.0 -226.1 -179.9 -225.05 -178.0 Q-224.8 -177.6 -225.3 -176.4 L-225.45 -176.15 -226.6 -175.75 -226.95 -175.8 -227.5 -175.95 -228.25 -176.55 -229.65 -176.4 -231.2 -176.3 Q-231.3 -175.9 -234.95 -172.25 L-234.95 -172.1 -234.95 -172.25 Q-231.3 -175.9 -231.2 -176.3 L-229.65 -176.4 Q-229.45 -174.3 -230.15 -173.15 -231.0 -171.85 -233.7 -170.9 -234.35 -171.8 -234.95 -172.1 L-235.1 -171.65 Q-235.9 -171.75 -236.85 -172.45 -237.75 -173.2 -238.1 -175.25" fill="#ffcc99" fill-rule="evenodd" stroke="none"/>
    <path d="M-237.75 -175.5 L-236.8 -178.8 Q-236.0 -180.05 -233.6 -180.05 L-230.5 -179.5 -232.6 -179.0 Q-234.3 -178.3 -235.55 -177.0 L-237.75 -175.5" fill="#ff0000" fill-rule="evenodd" stroke="none"/>
    <path d="M-241.8 -159.05 L-241.45 -162.9 -240.65 -168.6 -240.5 -168.6 -240.95 -168.85 Q-241.35 -169.2 -241.35 -170.6 -241.35 -172.8 -239.3 -174.35 L-238.1 -175.25 Q-237.75 -173.2 -236.85 -172.45 -235.9 -171.75 -235.1 -171.65 L-234.95 -172.1 Q-234.35 -171.8 -233.7 -170.9 -231.75 -167.2 -231.65 -162.8 L-231.6 -159.35 -231.6 -158.55 -231.6 -157.3 Q-233.8 -155.75 -237.55 -155.9 -239.95 -155.9 -241.85 -156.75 L-241.85 -157.7 -241.8 -159.05 M-240.5 -168.6 L-239.1 -168.45 Q-237.65 -168.45 -236.35 -169.8 -235.5 -170.7 -235.1 -171.65 -235.5 -170.7 -236.35 -169.8 -237.65 -168.45 -239.1 -168.45 L-240.5 -168.6" fill="#99cc00" fill-rule="evenodd" stroke="none"/>
    <path d="M-244.65 -157.4 Q-244.05 -158.25 -241.8 -159.05 L-241.85 -157.7 -241.85 -156.75 Q-239.95 -155.9 -237.55 -155.9 -233.8 -155.75 -231.6 -157.3 L-231.6 -158.55 -231.6 -159.35 Q-229.75 -159.2 -228.7 -158.7 -227.25 -158.05 -227.35 -156.75 -227.55 -154.55 -230.15 -153.9 L-236.7 -153.15 Q-240.7 -153.05 -242.75 -153.85 -244.85 -154.7 -245.0 -156.25 L-244.65 -157.4" fill="#996699" fill-rule="evenodd" stroke="none"/>
    <path d="M-228.05 -180.75 L-229.1 -185.2 -233.2 -190.7 -232.05 -200.0 -226.7 -191.85 -227.7 -186.75 -226.15 -180.0 -226.65 -180.95 Q-226.9 -181.4 -227.6 -181.4 L-228.05 -180.75 M-225.3 -176.4 L-221.35 -159.05 -223.1 -159.0 -226.95 -175.8 -226.6 -175.75 -225.45 -176.15 -225.3 -176.4" fill="#8f5601" fill-rule="evenodd" stroke="none"/>
    <path d="M-186.1 -158.25 L-185.9 -158.1 -193.95 -147.7 -263.65 -147.7 Q-266.85 -149.75 -267.6 -153.6 -252.0 -152.6 -236.7 -152.95 -211.0 -153.65 -186.1 -158.25" fill="#cb9afe" fill-rule="evenodd" stroke="none"/>
    <path d="M-267.6 -153.6 L-267.65 -153.9 Q-256.4 -156.15 -244.65 -157.4 L-245.0 -156.25 Q-244.85 -154.7 -242.75 -153.85 -240.7 -153.05 -236.7 -153.15 L-230.15 -153.9 Q-227.55 -154.55 -227.35 -156.75 -227.25 -158.05 -228.7 -158.7 L-223.5 -158.95 -223.1 -159.0 -221.35 -159.05 -220.45 -159.05 Q-203.75 -159.55 -186.1 -158.25 -211.0 -153.65 -236.7 -152.95 -252.0 -152.6 -267.6 -153.6" fill="#e1c4ff" fill-rule="evenodd" stroke="none"/>
    <path d="M-185.9 -158.1 L-185.8 -158.25 -186.1 -158.25 Q-211.0 -153.65 -236.7 -152.95 -252.0 -152.6 -267.6 -153.6 L-267.65 -153.9 Q-256.4 -156.15 -244.65 -157.4 -244.05 -158.25 -241.8 -159.05 L-241.45 -162.9 -240.65 -168.6 -240.5 -168.6 -240.95 -168.85 Q-241.35 -169.2 -241.35 -170.6 -241.35 -172.8 -239.3 -174.35 L-238.1 -175.25 -238.0 -175.3 -237.75 -175.5 -236.8 -178.8 Q-236.0 -180.05 -233.6 -180.05 L-230.5 -179.5 -228.35 -179.65 -228.3 -179.65 -228.05 -180.75 -229.1 -185.2 -233.2 -190.7 -232.05 -200.0 -226.7 -191.85 -227.7 -186.75 -226.15 -180.0 -226.1 -179.9 -225.05 -178.0 Q-224.8 -177.6 -225.3 -176.4 L-221.35 -159.05 -220.45 -159.05 Q-203.75 -159.55 -186.1 -158.25 M-185.9 -158.1 L-193.95 -147.7 -263.65 -147.7 Q-266.85 -149.75 -267.6 -153.6 M-237.75 -175.5 L-235.55 -177.0 Q-234.3 -178.3 -232.6 -179.0 L-230.5 -179.5 M-226.15 -180.0 L-226.65 -180.95 Q-226.9 -181.4 -227.6 -181.4 L-228.05 -180.75 M-234.95 -172.1 L-234.95 -172.25 Q-231.3 -175.9 -231.2 -176.3 L-229.65 -176.4 -228.25 -176.55 -227.5 -175.95 -226.95 -175.8 -226.6 -175.75 -225.45 -176.15 -225.3 -176.4 M-233.7 -170.9 Q-234.35 -171.8 -234.95 -172.1 L-235.1 -171.65 Q-235.5 -170.7 -236.35 -169.8 -237.65 -168.45 -239.1 -168.45 L-240.5 -168.6 M-235.1 -171.65 Q-235.9 -171.75 -236.85 -172.45 -237.75 -173.2 -238.1 -175.25 M-244.65 -157.4 L-245.0 -156.25 Q-244.85 -154.7 -242.75 -153.85 -240.7 -153.05 -236.7 -153.15 L-230.15 -153.9 Q-227.55 -154.55 -227.35 -156.75 -227.25 -158.05 -228.7 -158.7 -229.75 -159.2 -231.6 -159.35 L-231.6 -158.55 -231.6 -157.3 Q-233.8 -155.75 -237.55 -155.9 -239.95 -155.9 -241.85 -156.75 L-241.85 -157.7 -241.8 -159.05 M-223.1 -159.0 L-223.5 -158.95 -228.7 -158.7 M-229.65 -176.4 Q-229.45 -174.3 -230.15 -173.15 -231.0 -171.85 -233.7 -170.9 -231.75 -167.2 -231.65 -162.8 L-231.6 -159.35 M-226.95 -175.8 L-223.1 -159.0 -221.35 -159.05" fill="none" stroke="#000000" stroke-linecap="round" stroke-linejoin="round" stroke-width="0.05"/>
  </g>
</svg>
