<?xml version="1.0" encoding="UTF-8" standalone="no"?>
<svg xmlns:ffdec="https://www.free-decompiler.com/flash" xmlns:xlink="http://www.w3.org/1999/xlink" ffdec:objectType="shape" height="53.8px" width="83.35px" xmlns="http://www.w3.org/2000/svg">
  <g transform="matrix(1.0, 0.0, 0.0, 1.0, 268.4, 200.75)">
    <path d="M-186.1 -158.25 L-185.8 -158.25 -193.95 -147.7 -263.65 -147.7 Q-266.85 -149.75 -267.6 -153.6 -225.85 -150.9 -186.1 -158.25" fill="#ffcc00" fill-rule="evenodd" stroke="none"/>
    <path d="M-230.65 -178.15 Q-227.0 -179.95 -222.35 -180.35 L-222.4 -180.0 -221.85 -180.3 -221.6 -180.4 -221.0 -180.45 -220.2 -180.05 -219.95 -179.9 -219.45 -179.45 Q-219.05 -178.95 -219.05 -178.25 -219.05 -176.55 -220.1 -176.15 L-220.95 -176.0 -221.0 -176.0 -221.85 -176.55 -222.25 -177.05 -222.45 -177.4 -222.75 -178.35 -222.65 -176.9 -226.55 -176.45 Q-229.15 -175.15 -230.6 -173.2 -233.8 -172.55 -234.8 -175.2 -233.35 -176.75 -231.0 -177.95 L-230.65 -178.15 M-222.75 -178.35 L-222.8 -178.9 Q-222.8 -179.6 -222.4 -180.0 -222.8 -179.6 -222.8 -178.9 L-222.75 -178.35" fill="#ffcc99" fill-rule="evenodd" stroke="none"/>
    <path d="M-237.55 -170.85 Q-238.4 -172.2 -238.4 -173.85 -238.4 -176.15 -236.8 -177.5 -235.35 -178.7 -233.25 -178.7 -231.75 -178.7 -230.65 -178.15 L-231.0 -177.95 Q-233.35 -176.75 -234.8 -175.2 -235.9 -174.05 -236.5 -172.7 L-237.55 -170.85" fill="#ff0000" fill-rule="evenodd" stroke="none"/>
    <path d="M-241.7 -158.85 L-241.7 -159.0 -241.55 -161.75 -240.65 -165.5 Q-240.35 -167.05 -238.6 -169.35 L-237.55 -170.85 -236.5 -172.7 Q-235.9 -174.05 -234.8 -175.2 -233.8 -172.55 -230.6 -173.2 -232.4 -170.9 -232.4 -167.7 -232.4 -166.15 -231.65 -162.7 -231.2 -160.55 -231.1 -158.8 L-230.9 -157.85 -230.9 -157.5 -231.5 -157.25 -233.55 -156.5 -237.05 -156.15 -239.5 -156.3 -240.95 -157.15 -241.7 -157.8 -241.7 -158.85" fill="#99cc00" fill-rule="evenodd" stroke="none"/>
    <path d="M-244.3 -156.85 L-241.7 -158.85 -241.7 -157.8 -240.95 -157.15 -239.5 -156.3 -237.05 -156.15 -233.55 -156.5 -231.5 -157.25 -230.9 -157.5 -230.9 -157.85 -231.1 -158.8 -228.55 -158.15 -228.3 -158.0 Q-227.2 -157.35 -227.7 -155.45 -228.25 -153.4 -236.55 -153.55 -244.9 -153.8 -244.55 -155.75 L-244.3 -156.85" fill="#996699" fill-rule="evenodd" stroke="none"/>
    <path d="M-267.6 -153.6 L-267.65 -153.9 -244.3 -156.85 -244.55 -155.75 Q-244.9 -153.8 -236.55 -153.55 -228.25 -153.4 -227.7 -155.45 -227.2 -157.35 -228.3 -158.0 L-226.8 -158.1 -226.2 -158.1 -224.45 -158.2 -223.7 -158.25 Q-205.45 -159.0 -186.1 -158.25 -225.85 -150.9 -267.6 -153.6" fill="#fede5f" fill-rule="evenodd" stroke="none"/>
    <path d="M-221.85 -180.35 L-220.8 -185.7 -222.75 -191.3 -217.4 -200.0 -215.4 -189.55 -219.1 -185.65 -220.2 -180.05 -221.0 -180.45 -221.6 -180.4 -221.85 -180.35 M-221.0 -176.0 L-224.45 -158.2 -226.2 -158.1 -222.45 -177.4 -222.25 -177.05 -221.85 -176.55 -221.0 -176.0" fill="#8f5601" fill-rule="evenodd" stroke="none"/>
    <path d="M-186.1 -158.25 L-185.8 -158.25 -193.95 -147.7 -263.65 -147.7 Q-266.85 -149.75 -267.6 -153.6 L-267.65 -153.9 -244.3 -156.85 -241.7 -158.85 -241.7 -159.0 -241.55 -161.75 -240.65 -165.5 Q-240.35 -167.05 -238.6 -169.35 L-237.55 -170.85 Q-238.4 -172.2 -238.4 -173.85 -238.4 -176.15 -236.8 -177.5 -235.35 -178.7 -233.25 -178.7 -231.75 -178.7 -230.65 -178.15 -227.0 -179.95 -222.35 -180.35 L-221.85 -180.35 -220.8 -185.7 -222.75 -191.3 -217.4 -200.0 -215.4 -189.55 -219.1 -185.65 -220.2 -180.05 -219.95 -179.9 -219.45 -179.45 Q-219.05 -178.95 -219.05 -178.25 -219.05 -176.55 -220.1 -176.15 L-220.95 -176.0 -221.0 -176.0 -224.45 -158.2 -223.7 -158.25 Q-205.45 -159.0 -186.1 -158.25 -225.85 -150.9 -267.6 -153.6 M-221.6 -180.4 L-221.85 -180.35 -221.85 -180.3 -221.6 -180.4 -221.0 -180.45 -220.2 -180.05 M-222.4 -180.0 L-222.35 -180.35 M-221.85 -180.3 L-222.4 -180.0 Q-222.8 -179.6 -222.8 -178.9 L-222.75 -178.35 -222.45 -177.4 -222.25 -177.05 -221.85 -176.55 -221.0 -176.0 M-222.65 -176.9 L-226.55 -176.45 Q-229.15 -175.15 -230.6 -173.2 -232.4 -170.9 -232.4 -167.7 -232.4 -166.15 -231.65 -162.7 -231.2 -160.55 -231.1 -158.8 L-228.55 -158.15 -228.3 -158.0 -226.8 -158.1 -226.2 -158.1 -222.45 -177.4 M-234.8 -175.2 Q-233.35 -176.75 -231.0 -177.95 L-230.65 -178.15 M-234.8 -175.2 Q-235.9 -174.05 -236.5 -172.7 L-237.55 -170.85 M-231.1 -158.8 L-230.9 -157.85 -230.9 -157.5 -231.5 -157.25 -233.55 -156.5 -237.05 -156.15 -239.5 -156.3 -240.95 -157.15 -241.7 -157.8 -241.7 -158.85 M-226.2 -158.1 L-224.45 -158.2 M-228.3 -158.0 Q-227.2 -157.35 -227.7 -155.45 -228.25 -153.4 -236.55 -153.55 -244.9 -153.8 -244.55 -155.75 L-244.3 -156.85 M-230.6 -173.2 Q-233.8 -172.55 -234.8 -175.2" fill="none" stroke="#000000" stroke-linecap="round" stroke-linejoin="round" stroke-width="1.5"/>
    <path d="M-186.1 -158.25 L-185.8 -158.25 -185.9 -158.1 -186.1 -158.25" fill="#ffcc00" fill-rule="evenodd" stroke="none"/>
    <path d="M-230.65 -178.15 Q-227.0 -179.95 -222.35 -180.35 L-222.4 -180.0 -221.85 -180.3 -221.6 -180.4 -221.0 -180.45 -220.2 -180.05 -219.95 -179.9 -219.45 -179.45 Q-219.05 -178.95 -219.05 -178.25 -219.05 -176.55 -220.1 -176.15 L-220.95 -176.0 -221.0 -176.0 -221.85 -176.55 -222.25 -177.05 -222.45 -177.4 -222.75 -178.35 -222.65 -176.9 -226.55 -176.45 Q-229.15 -175.15 -230.6 -173.2 -233.8 -172.55 -234.8 -175.2 -233.35 -176.75 -231.0 -177.95 L-230.65 -178.15 M-222.75 -178.35 L-222.8 -178.9 Q-222.8 -179.6 -222.4 -180.0 -222.8 -179.6 -222.8 -178.9 L-222.75 -178.35" fill="#ffcc99" fill-rule="evenodd" stroke="none"/>
    <path d="M-237.55 -170.85 Q-238.4 -172.2 -238.4 -173.85 -238.4 -176.15 -236.8 -177.5 -235.35 -178.7 -233.25 -178.7 -231.75 -178.7 -230.65 -178.15 L-231.0 -177.95 Q-233.35 -176.75 -234.8 -175.2 -235.9 -174.05 -236.5 -172.7 L-237.55 -170.85" fill="#ff0000" fill-rule="evenodd" stroke="none"/>
    <path d="M-241.7 -158.85 L-241.7 -159.0 -241.55 -161.75 -240.65 -165.5 Q-240.35 -167.05 -238.6 -169.35 L-237.55 -170.85 -236.5 -172.7 Q-235.9 -174.05 -234.8 -175.2 -233.8 -172.55 -230.6 -173.2 -232.4 -170.9 -232.4 -167.7 -232.4 -166.15 -231.65 -162.7 -231.2 -160.55 -231.1 -158.8 L-230.9 -157.85 -230.9 -157.5 -231.5 -157.25 -233.55 -156.5 -237.05 -156.15 -239.5 -156.3 -240.95 -157.15 -241.7 -157.8 -241.7 -158.85" fill="#99cc00" fill-rule="evenodd" stroke="none"/>
    <path d="M-244.3 -156.85 L-241.7 -158.85 -241.7 -157.8 -240.95 -157.15 -239.5 -156.3 -237.05 -156.15 -233.55 -156.5 -231.5 -157.25 -230.9 -157.5 -230.9 -157.85 -231.1 -158.8 -228.55 -158.15 -228.3 -158.0 Q-227.2 -157.35 -227.7 -155.45 -228.1 -153.9 -232.9 -153.6 L-236.55 -153.55 Q-244.9 -153.8 -244.55 -155.75 L-244.3 -156.85" fill="#996699" fill-rule="evenodd" stroke="none"/>
    <path d="M-232.85 -153.1 L-236.55 -152.95 -236.55 -153.55 -232.9 -153.6 -232.85 -153.1" fill="#fede5f" fill-rule="evenodd" stroke="none"/>
    <path d="M-221.85 -180.35 L-220.8 -185.7 -222.75 -191.3 -217.4 -200.0 -215.4 -189.55 -219.1 -185.65 -220.2 -180.05 -221.0 -180.45 -221.6 -180.4 -221.85 -180.35 M-221.0 -176.0 L-224.45 -158.2 -226.2 -158.1 -222.45 -177.4 -222.25 -177.05 -221.85 -176.55 -221.0 -176.0" fill="#8f5601" fill-rule="evenodd" stroke="none"/>
    <path d="M-186.1 -158.25 L-185.9 -158.1 -193.95 -147.7 -263.65 -147.7 Q-266.85 -149.75 -267.6 -153.6 -251.95 -152.6 -236.55 -152.95 L-232.85 -153.1 Q-209.15 -154.0 -186.1 -158.25" fill="#cb9afe" fill-rule="evenodd" stroke="none"/>
    <path d="M-267.6 -153.6 L-267.65 -153.9 -244.3 -156.85 -244.55 -155.75 Q-244.9 -153.8 -236.55 -153.55 L-236.55 -152.95 Q-251.95 -152.6 -267.6 -153.6 M-224.45 -158.2 L-223.7 -158.25 Q-205.45 -159.0 -186.1 -158.25 -209.15 -154.0 -232.85 -153.1 L-232.9 -153.6 Q-228.1 -153.9 -227.7 -155.45 -227.2 -157.35 -228.3 -158.0 L-226.8 -158.1 -226.2 -158.1 -224.45 -158.2" fill="#e1c4ff" fill-rule="evenodd" stroke="none"/>
    <path d="M-185.9 -158.1 L-185.8 -158.25 -186.1 -158.25 Q-209.15 -154.0 -232.85 -153.1 L-236.55 -152.95 Q-251.95 -152.6 -267.6 -153.6 L-267.65 -153.9 -244.3 -156.85 -241.7 -158.85 -241.7 -159.0 -241.55 -161.75 -240.65 -165.5 Q-240.35 -167.05 -238.6 -169.35 L-237.55 -170.85 Q-238.4 -172.2 -238.4 -173.85 -238.4 -176.15 -236.8 -177.5 -235.35 -178.7 -233.25 -178.7 -231.75 -178.7 -230.65 -178.15 -227.0 -179.95 -222.35 -180.35 L-221.85 -180.35 -220.8 -185.7 -222.75 -191.3 -217.4 -200.0 -215.4 -189.55 -219.1 -185.65 -220.2 -180.05 -219.95 -179.9 -219.45 -179.45 Q-219.05 -178.95 -219.05 -178.25 -219.05 -176.55 -220.1 -176.15 L-220.95 -176.0 -221.0 -176.0 -224.45 -158.2 -223.7 -158.25 Q-205.45 -159.0 -186.1 -158.25 M-185.9 -158.1 L-193.95 -147.7 -263.65 -147.7 Q-266.85 -149.75 -267.6 -153.6 M-221.6 -180.4 L-221.85 -180.3 -222.4 -180.0 Q-222.8 -179.6 -222.8 -178.9 L-222.75 -178.35 -222.45 -177.4 -222.25 -177.05 -221.85 -176.55 -221.0 -176.0 M-221.85 -180.3 L-221.85 -180.35 -221.6 -180.4 -221.0 -180.45 -220.2 -180.05 M-222.4 -180.0 L-222.35 -180.35 M-230.65 -178.15 L-231.0 -177.95 Q-233.35 -176.75 -234.8 -175.2 -233.8 -172.55 -230.6 -173.2 -229.15 -175.15 -226.55 -176.45 L-222.65 -176.9 M-231.1 -158.8 Q-231.2 -160.55 -231.65 -162.7 -232.4 -166.15 -232.4 -167.7 -232.4 -170.9 -230.6 -173.2 M-237.55 -170.85 L-236.5 -172.7 Q-235.9 -174.05 -234.8 -175.2 M-232.9 -153.6 L-236.55 -153.55 Q-244.9 -153.8 -244.55 -155.75 L-244.3 -156.85 M-241.7 -158.85 L-241.7 -157.8 -240.95 -157.15 -239.5 -156.3 -237.05 -156.15 -233.55 -156.5 -231.5 -157.25 -230.9 -157.5 -230.9 -157.85 -231.1 -158.8 -228.55 -158.15 -228.3 -158.0 -226.8 -158.1 -226.2 -158.1 -222.45 -177.4 M-224.45 -158.2 L-226.2 -158.1 M-228.3 -158.0 Q-227.2 -157.35 -227.7 -155.45 -228.1 -153.9 -232.9 -153.6" fill="none" stroke="#000000" stroke-linecap="round" stroke-linejoin="round" stroke-width="0.05"/>
  </g>
</svg>
