<?xml version="1.0" encoding="UTF-8" standalone="no"?>
<svg xmlns:ffdec="https://www.free-decompiler.com/flash" xmlns:xlink="http://www.w3.org/1999/xlink" ffdec:objectType="shape" height="45.35px" width="83.35px" xmlns="http://www.w3.org/2000/svg">
  <g transform="matrix(1.0, 0.0, 0.0, 1.0, 268.4, 192.3)">
    <path d="M-186.1 -158.25 L-185.8 -158.25 -193.95 -147.7 -264.55 -147.7 Q-266.85 -149.75 -267.6 -153.6 -251.85 -152.6 -236.35 -153.0 -210.85 -153.7 -186.1 -158.25" fill="#ffcc00" fill-rule="evenodd" stroke="none"/>
    <path d="M-243.4 -158.0 L-243.45 -158.5 -242.9 -162.2 -240.5 -160.4 -240.5 -158.6 -241.35 -158.3 -242.05 -158.15 -243.4 -158.0 M-227.85 -177.1 L-223.85 -177.5 -218.0 -176.6 -215.0 -175.8 -214.1 -175.5 -212.6 -174.65 -212.35 -174.3 -212.25 -173.9 Q-212.25 -170.45 -214.15 -170.45 L-215.05 -170.7 -215.45 -170.9 -216.65 -172.05 -217.25 -172.8 -217.7 -173.45 -223.65 -174.3 -226.8 -173.95 Q-227.3 -176.8 -227.85 -177.1" fill="#ffcc99" fill-rule="evenodd" stroke="none"/>
    <path d="M-242.9 -162.2 L-242.55 -164.3 Q-242.3 -165.6 -241.05 -166.95 L-238.55 -169.4 -237.8 -170.3 Q-234.9 -173.8 -232.65 -175.2 -231.35 -176.05 -229.85 -176.55 L-227.85 -177.1 Q-227.3 -176.8 -226.8 -173.95 L-226.85 -173.95 Q-227.55 -172.45 -228.95 -170.3 -230.15 -168.3 -231.3 -167.0 -231.8 -166.2 -231.8 -163.9 L-231.65 -159.65 -231.65 -159.05 -231.6 -157.1 Q-233.25 -155.75 -237.0 -155.75 -239.65 -155.7 -240.5 -156.5 L-240.5 -158.6 -240.5 -160.4 -242.9 -162.2 M-240.5 -163.1 L-240.5 -160.4 -240.5 -163.1" fill="#99cc00" fill-rule="evenodd" stroke="none"/>
    <path d="M-237.8 -170.3 L-238.1 -172.4 Q-238.1 -174.9 -236.6 -176.45 -235.2 -177.9 -233.25 -177.9 -231.8 -177.9 -229.85 -176.55 -231.35 -176.05 -232.65 -175.2 -234.9 -173.8 -237.8 -170.3" fill="#ff0000" fill-rule="evenodd" stroke="none"/>
    <path d="M-231.65 -159.65 Q-230.8 -159.85 -229.65 -159.2 L-229.15 -158.9 -228.0 -157.9 Q-227.6 -157.4 -227.6 -156.85 L-227.6 -156.8 Q-227.6 -155.15 -230.75 -154.0 -233.45 -153.05 -236.35 -153.05 L-242.35 -153.4 Q-244.45 -153.75 -244.65 -155.35 -244.85 -157.0 -244.15 -157.45 L-243.4 -157.95 -242.05 -158.15 -241.35 -158.3 -240.5 -158.6 -240.5 -156.5 Q-239.65 -155.7 -237.0 -155.75 -233.25 -155.75 -231.6 -157.1 L-231.65 -159.05 -231.65 -159.65" fill="#996699" fill-rule="evenodd" stroke="none"/>
    <path d="M-267.6 -153.6 L-267.65 -153.9 Q-255.85 -156.6 -243.4 -158.0 L-243.4 -157.95 -244.15 -157.45 Q-244.85 -157.0 -244.65 -155.35 -244.45 -153.75 -242.35 -153.4 L-236.35 -153.05 Q-233.45 -153.05 -230.75 -154.0 -227.6 -155.15 -227.6 -156.8 L-227.6 -156.85 Q-227.6 -157.4 -228.0 -157.9 L-229.15 -158.9 -229.65 -159.2 -227.25 -159.3 -226.3 -159.35 -224.1 -159.45 -223.4 -159.45 -186.1 -158.25 Q-210.85 -153.7 -236.35 -153.0 -251.85 -152.6 -267.6 -153.6" fill="#fede5f" fill-rule="evenodd" stroke="none"/>
    <path d="M-214.1 -175.5 L-211.2 -179.3 -210.9 -185.35 -201.55 -191.55 -203.8 -183.05 -208.95 -179.45 -209.0 -179.45 -212.6 -174.65 -214.1 -175.5 M-215.45 -170.9 L-224.1 -159.45 -226.3 -159.35 -216.65 -172.05 -215.45 -170.9" fill="#8f5601" fill-rule="evenodd" stroke="none"/>
    <path d="M-186.1 -158.25 L-185.8 -158.25 -193.95 -147.7 -264.55 -147.7 Q-266.85 -149.75 -267.6 -153.6 L-267.65 -153.9 Q-255.85 -156.6 -243.4 -158.0 L-243.45 -158.5 -242.9 -162.2 -242.55 -164.3 Q-242.3 -165.6 -241.05 -166.95 L-238.55 -169.4 -237.8 -170.3 -238.1 -172.4 Q-238.1 -174.9 -236.6 -176.45 -235.2 -177.9 -233.25 -177.9 -231.8 -177.9 -229.85 -176.55 L-227.85 -177.1 -223.85 -177.5 -218.0 -176.6 -215.0 -175.8 -214.1 -175.5 -211.2 -179.3 -210.9 -185.35 -201.55 -191.55 -203.8 -183.05 -208.95 -179.45 -209.0 -179.45 -212.6 -174.65 -212.35 -174.3 -212.25 -173.9 Q-212.25 -170.45 -214.15 -170.45 L-215.05 -170.7 -215.45 -170.9 -224.1 -159.45 -223.4 -159.45 -186.1 -158.25 Q-210.85 -153.7 -236.35 -153.0 -251.85 -152.6 -267.6 -153.6 M-214.1 -175.5 L-212.6 -174.65 M-226.8 -173.95 Q-227.3 -176.8 -227.85 -177.1 M-237.8 -170.3 Q-234.9 -173.8 -232.65 -175.2 -231.35 -176.05 -229.85 -176.55 M-226.8 -173.95 L-226.85 -173.95 Q-227.55 -172.45 -228.95 -170.3 -230.15 -168.3 -231.3 -167.0 -231.8 -166.2 -231.8 -163.9 L-231.65 -159.65 Q-230.8 -159.85 -229.65 -159.2 L-227.25 -159.3 -226.3 -159.35 -216.65 -172.05 -217.25 -172.8 -217.7 -173.45 -223.65 -174.3 -226.8 -173.95 M-231.65 -159.65 L-231.65 -159.05 -231.6 -157.1 Q-233.25 -155.75 -237.0 -155.75 -239.65 -155.7 -240.5 -156.5 L-240.5 -158.6 -241.35 -158.3 -242.05 -158.15 -243.4 -157.95 -244.15 -157.45 Q-244.85 -157.0 -244.65 -155.35 -244.45 -153.75 -242.35 -153.4 L-236.35 -153.05 Q-233.45 -153.05 -230.75 -154.0 -227.6 -155.15 -227.6 -156.8 L-227.6 -156.85 Q-227.6 -157.4 -228.0 -157.9 L-229.15 -158.9 -229.65 -159.2 M-240.5 -158.6 L-240.5 -160.4 -242.9 -162.2 M-226.3 -159.35 L-224.1 -159.45 M-240.5 -160.4 L-240.5 -163.1 M-216.65 -172.05 L-215.45 -170.9 M-243.4 -158.0 L-243.4 -157.95 M-242.05 -158.15 L-243.4 -158.0" fill="none" stroke="#000000" stroke-linecap="round" stroke-linejoin="round" stroke-width="1.5"/>
    <path d="M-186.1 -158.25 L-185.8 -158.25 -185.9 -158.1 -186.1 -158.25" fill="#ffcc00" fill-rule="evenodd" stroke="none"/>
    <path d="M-243.4 -158.0 L-243.45 -158.5 -242.9 -162.2 -240.5 -160.4 -240.5 -158.6 -241.35 -158.3 -242.05 -158.15 -243.4 -158.0 M-227.85 -177.1 L-223.85 -177.5 -218.0 -176.6 -215.0 -175.8 -214.1 -175.5 -212.6 -174.65 -212.35 -174.3 -212.25 -173.9 Q-212.25 -170.45 -214.15 -170.45 L-215.05 -170.7 -215.45 -170.9 -216.65 -172.05 -217.25 -172.8 -217.7 -173.45 -223.65 -174.3 -226.8 -173.95 Q-227.3 -176.8 -227.85 -177.1" fill="#ffcc99" fill-rule="evenodd" stroke="none"/>
    <path d="M-242.9 -162.2 L-242.55 -164.3 Q-242.3 -165.6 -241.05 -166.95 L-238.55 -169.4 -237.8 -170.3 Q-234.9 -173.8 -232.65 -175.2 -231.35 -176.05 -229.85 -176.55 L-227.85 -177.1 Q-227.3 -176.8 -226.8 -173.95 L-226.85 -173.95 Q-227.55 -172.45 -228.95 -170.3 -230.15 -168.3 -231.3 -167.0 -231.8 -166.2 -231.8 -163.9 L-231.65 -159.65 -231.65 -159.05 -231.6 -157.1 Q-233.25 -155.75 -237.0 -155.75 -239.65 -155.7 -240.5 -156.5 L-240.5 -158.6 -240.5 -160.4 -242.9 -162.2 M-240.5 -163.1 L-240.5 -160.4 -240.5 -163.1" fill="#99cc00" fill-rule="evenodd" stroke="none"/>
    <path d="M-237.8 -170.3 L-238.1 -172.4 Q-238.1 -174.9 -236.6 -176.45 -235.2 -177.9 -233.25 -177.9 -231.8 -177.9 -229.85 -176.55 -231.35 -176.05 -232.65 -175.2 -234.9 -173.8 -237.8 -170.3" fill="#ff0000" fill-rule="evenodd" stroke="none"/>
    <path d="M-231.65 -159.65 Q-230.8 -159.85 -229.65 -159.2 L-229.15 -158.9 -228.0 -157.9 Q-227.6 -157.4 -227.6 -156.85 L-227.6 -156.8 Q-227.6 -155.15 -230.75 -154.0 -233.45 -153.05 -236.35 -153.05 L-242.3 -153.4 -242.35 -153.4 Q-244.45 -153.75 -244.65 -155.35 -244.85 -157.0 -244.15 -157.45 L-243.4 -157.95 -242.05 -158.15 -241.35 -158.3 -240.5 -158.6 -240.5 -156.5 Q-239.65 -155.7 -237.0 -155.75 -233.25 -155.75 -231.6 -157.1 L-231.65 -159.05 -231.65 -159.65" fill="#996699" fill-rule="evenodd" stroke="none"/>
    <path d="M-236.35 -153.0 L-242.35 -152.9 -242.35 -153.4 -242.3 -153.4 -236.35 -153.05 -236.35 -153.0" fill="#fede5f" fill-rule="evenodd" stroke="none"/>
    <path d="M-214.1 -175.5 L-211.2 -179.3 -210.9 -185.35 -201.55 -191.55 -203.8 -183.05 -208.95 -179.45 -209.0 -179.45 -212.6 -174.65 -214.1 -175.5 M-215.45 -170.9 L-224.1 -159.45 -226.3 -159.35 -216.65 -172.05 -215.45 -170.9" fill="#8f5601" fill-rule="evenodd" stroke="none"/>
    <path d="M-186.1 -158.25 L-185.9 -158.1 -193.95 -147.7 -264.55 -147.7 Q-266.85 -149.75 -267.6 -153.6 -254.9 -152.8 -242.35 -152.9 L-236.35 -153.0 Q-210.85 -153.7 -186.1 -158.25" fill="#cb9afe" fill-rule="evenodd" stroke="none"/>
    <path d="M-267.6 -153.6 L-267.65 -153.9 Q-255.85 -156.6 -243.4 -158.0 L-243.4 -157.95 -244.15 -157.45 Q-244.85 -157.0 -244.65 -155.35 -244.45 -153.75 -242.35 -153.4 L-242.35 -152.9 Q-254.9 -152.8 -267.6 -153.6 M-224.1 -159.45 L-223.4 -159.45 -186.1 -158.25 Q-210.85 -153.7 -236.35 -153.0 L-236.35 -153.05 Q-233.45 -153.05 -230.75 -154.0 -227.6 -155.15 -227.6 -156.8 L-227.6 -156.85 Q-227.6 -157.4 -228.0 -157.9 L-229.15 -158.9 -229.65 -159.2 -227.25 -159.3 -226.3 -159.35 -224.1 -159.45" fill="#e1c4ff" fill-rule="evenodd" stroke="none"/>
    <path d="M-185.9 -158.1 L-185.8 -158.25 -186.1 -158.25 Q-210.85 -153.7 -236.35 -153.0 L-242.35 -152.9 Q-254.9 -152.8 -267.6 -153.6 L-267.65 -153.9 Q-255.85 -156.6 -243.4 -158.0 L-243.45 -158.5 -242.9 -162.2 -242.55 -164.3 Q-242.3 -165.6 -241.05 -166.95 L-238.55 -169.4 -237.8 -170.3 -238.1 -172.4 Q-238.1 -174.9 -236.6 -176.45 -235.2 -177.9 -233.25 -177.9 -231.8 -177.9 -229.85 -176.55 L-227.85 -177.1 -223.85 -177.5 -218.0 -176.6 -215.0 -175.8 -214.1 -175.5 -211.2 -179.3 -210.9 -185.35 -201.55 -191.55 -203.8 -183.05 -208.95 -179.45 -209.0 -179.45 -212.6 -174.65 -212.35 -174.3 -212.25 -173.9 Q-212.25 -170.45 -214.15 -170.45 L-215.05 -170.7 -215.45 -170.9 -224.1 -159.45 -223.4 -159.45 -186.1 -158.25 M-185.9 -158.1 L-193.95 -147.7 -264.55 -147.7 Q-266.85 -149.75 -267.6 -153.6 M-212.6 -174.65 L-214.1 -175.5 M-226.8 -173.95 L-226.85 -173.95 Q-227.55 -172.45 -228.95 -170.3 -230.15 -168.3 -231.3 -167.0 -231.8 -166.2 -231.8 -163.9 L-231.65 -159.65 Q-230.8 -159.85 -229.65 -159.2 L-227.25 -159.3 -226.3 -159.35 -216.65 -172.05 -217.25 -172.8 -217.7 -173.45 -223.65 -174.3 -226.8 -173.95 Q-227.3 -176.8 -227.85 -177.1 M-229.85 -176.55 Q-231.35 -176.05 -232.65 -175.2 -234.9 -173.8 -237.8 -170.3 M-231.65 -159.65 L-231.65 -159.05 -231.6 -157.1 Q-233.25 -155.75 -237.0 -155.75 -239.65 -155.7 -240.5 -156.5 L-240.5 -158.6 -241.35 -158.3 -242.05 -158.15 -243.4 -157.95 -244.15 -157.45 Q-244.85 -157.0 -244.65 -155.35 -244.45 -153.75 -242.35 -153.4 L-242.3 -153.4 -236.35 -153.05 Q-233.45 -153.05 -230.75 -154.0 -227.6 -155.15 -227.6 -156.8 L-227.6 -156.85 Q-227.6 -157.4 -228.0 -157.9 L-229.15 -158.9 -229.65 -159.2 M-240.5 -158.6 L-240.5 -160.4 -242.9 -162.2 M-224.1 -159.45 L-226.3 -159.35 M-240.5 -160.4 L-240.5 -163.1 M-216.65 -172.05 L-215.45 -170.9 M-243.4 -157.95 L-243.4 -158.0 -242.05 -158.15" fill="none" stroke="#000000" stroke-linecap="round" stroke-linejoin="round" stroke-width="0.05"/>
  </g>
</svg>
