<?xml version="1.0" encoding="UTF-8" standalone="no"?>
<svg xmlns:ffdec="https://www.free-decompiler.com/flash" xmlns:xlink="http://www.w3.org/1999/xlink" ffdec:objectType="shape" height="34.6px" width="83.35px" xmlns="http://www.w3.org/2000/svg">
  <g transform="matrix(1.0, 0.0, 0.0, 1.0, 268.4, 181.55)">
    <path d="M-186.1 -158.25 L-185.8 -158.25 -193.95 -147.7 -264.55 -147.7 Q-266.85 -149.75 -267.6 -153.6 -225.85 -150.9 -186.1 -158.25" fill="#ffcc00" fill-rule="evenodd" stroke="none"/>
    <path d="M-237.35 -171.75 Q-238.3 -177.4 -236.1 -179.5 -235.1 -180.8 -233.4 -180.8 -231.5 -180.8 -229.9 -179.15 -228.55 -177.75 -228.05 -175.85 L-229.35 -175.85 -232.8 -175.85 -233.0 -175.1 -233.0 -174.0 -234.95 -173.85 Q-235.7 -173.6 -237.35 -171.75" fill="#ff0000" fill-rule="evenodd" stroke="none"/>
    <path d="M-242.1 -166.25 L-242.4 -166.4 Q-242.0 -167.85 -240.6 -168.95 L-237.8 -171.35 -237.55 -171.6 -237.35 -171.75 Q-235.7 -173.6 -234.95 -173.85 L-233.0 -174.0 -231.55 -174.05 -229.1 -173.95 -224.3 -173.3 -224.3 -169.25 -225.95 -169.25 -228.95 -169.25 Q-228.8 -167.9 -229.6 -166.6 L-231.45 -163.85 -231.45 -161.7 -231.45 -159.9 -231.45 -158.7 -231.45 -157.1 Q-232.2 -156.45 -236.5 -156.45 L-241.45 -156.75 -241.55 -156.75 -241.55 -157.4 -241.4 -158.7 Q-240.9 -163.05 -240.2 -165.1 L-242.1 -166.25 M-239.45 -166.55 L-240.2 -165.1 -239.45 -166.55 M-241.4 -158.7 L-241.3 -158.7 -241.4 -158.7" fill="#99cc00" fill-rule="evenodd" stroke="none"/>
    <path d="M-241.4 -158.7 Q-244.55 -159.2 -244.55 -161.5 -244.55 -162.6 -243.65 -164.25 L-242.1 -166.25 -240.2 -165.1 Q-240.9 -163.05 -241.4 -158.7 M-229.35 -175.85 L-229.1 -173.95 -231.55 -174.05 -233.0 -174.0 -233.0 -175.1 -232.8 -175.85 -229.35 -175.85 M-224.3 -173.3 Q-218.4 -171.9 -216.0 -167.9 L-214.4 -167.65 -213.15 -167.4 -213.0 -167.35 Q-212.3 -166.95 -212.25 -165.75 L-212.25 -165.6 -212.25 -165.2 Q-212.3 -164.3 -212.55 -164.15 L-214.25 -164.0 -215.65 -164.15 -216.55 -164.45 -217.4 -165.35 -218.0 -165.8 -218.7 -166.3 -220.7 -167.75 Q-222.6 -169.0 -224.3 -169.25 L-224.3 -173.3" fill="#ffcc99" fill-rule="evenodd" stroke="none"/>
    <path d="M-243.05 -158.4 L-241.4 -158.7 -241.55 -157.4 -241.55 -156.75 -241.45 -156.75 -236.5 -156.45 Q-232.2 -156.45 -231.45 -157.1 L-231.45 -158.7 -230.75 -158.7 Q-229.5 -158.4 -228.75 -157.75 -227.9 -157.05 -227.7 -155.9 -227.45 -153.85 -234.95 -153.85 L-243.8 -154.5 Q-245.15 -155.15 -245.3 -156.35 L-245.3 -156.55 Q-245.3 -157.6 -243.85 -158.15 L-243.05 -158.4" fill="#996699" fill-rule="evenodd" stroke="none"/>
    <path d="M-267.6 -153.6 L-267.65 -153.9 -251.35 -155.95 -245.3 -156.55 -245.3 -156.35 Q-245.15 -155.15 -243.8 -154.5 L-234.95 -153.85 Q-227.45 -153.85 -227.7 -155.9 -227.9 -157.05 -228.75 -157.75 -208.15 -158.9 -186.1 -158.25 -225.85 -150.9 -267.6 -153.6" fill="#fede5f" fill-rule="evenodd" stroke="none"/>
    <path d="M-251.35 -155.95 L-247.6 -158.5 -243.05 -158.4 -243.85 -158.15 Q-245.3 -157.6 -245.3 -156.55 L-251.35 -155.95 M-213.0 -167.35 L-209.55 -168.4 -204.4 -173.2 -192.5 -172.9 -201.0 -166.4 -208.8 -166.8 -212.25 -165.75 Q-212.3 -166.95 -213.0 -167.35 M-216.55 -164.45 L-231.45 -159.9 -231.45 -161.7 -218.0 -165.8 -217.4 -165.35 -216.55 -164.45" fill="#8f5601" fill-rule="evenodd" stroke="none"/>
    <path d="M-186.1 -158.25 L-185.8 -158.25 -193.95 -147.7 -264.55 -147.7 Q-266.85 -149.75 -267.6 -153.6 L-267.65 -153.9 -251.35 -155.95 -247.6 -158.5 -243.05 -158.4 -241.4 -158.7 Q-244.55 -159.2 -244.55 -161.5 -244.55 -162.6 -243.65 -164.25 L-242.1 -166.25 -242.4 -166.4 Q-242.0 -167.85 -240.6 -168.95 L-237.8 -171.35 -237.55 -171.6 -237.35 -171.75 Q-238.3 -177.4 -236.1 -179.5 -235.1 -180.8 -233.4 -180.8 -231.5 -180.8 -229.9 -179.15 -228.55 -177.75 -228.05 -175.85 L-229.35 -175.85 -229.1 -173.95 -224.3 -173.3 Q-218.4 -171.9 -216.0 -167.9 L-214.4 -167.65 -213.15 -167.4 -213.0 -167.35 -209.55 -168.4 -204.4 -173.2 -192.5 -172.9 -201.0 -166.4 -208.8 -166.8 -212.25 -165.75 -212.25 -165.6 -212.25 -165.2 Q-212.3 -164.3 -212.55 -164.15 L-214.25 -164.0 -215.65 -164.15 -216.55 -164.45 -231.45 -159.9 -231.45 -158.7 -230.75 -158.7 Q-229.5 -158.4 -228.75 -157.75 -208.15 -158.9 -186.1 -158.25 -225.85 -150.9 -267.6 -153.6 M-233.0 -174.0 L-234.95 -173.85 Q-235.7 -173.6 -237.35 -171.75 M-229.35 -175.85 L-232.8 -175.85 -233.0 -175.1 -233.0 -174.0 -231.55 -174.05 -229.1 -173.95 M-224.3 -169.25 L-225.95 -169.25 -228.95 -169.25 Q-228.8 -167.9 -229.6 -166.6 L-231.45 -163.85 -231.45 -161.7 -218.0 -165.8 -218.7 -166.3 -220.7 -167.75 Q-222.6 -169.0 -224.3 -169.25 L-224.3 -173.3 M-240.2 -165.1 L-239.45 -166.55 M-242.1 -166.25 L-240.2 -165.1 Q-240.9 -163.05 -241.4 -158.7 L-241.3 -158.7 -241.4 -158.7 -241.55 -157.4 -241.55 -156.75 -241.45 -156.75 -236.5 -156.45 Q-232.2 -156.45 -231.45 -157.1 L-231.45 -158.7 M-228.75 -157.75 Q-227.9 -157.05 -227.7 -155.9 -227.45 -153.85 -234.95 -153.85 L-243.8 -154.5 Q-245.15 -155.15 -245.3 -156.35 L-245.3 -156.55 -251.35 -155.95 M-231.45 -161.7 L-231.45 -159.9 M-216.55 -164.45 L-217.4 -165.35 -218.0 -165.8 M-212.25 -165.75 Q-212.3 -166.95 -213.0 -167.35 M-245.3 -156.55 Q-245.3 -157.6 -243.85 -158.15 L-243.05 -158.4" fill="none" stroke="#000000" stroke-linecap="round" stroke-linejoin="round" stroke-width="1.5"/>
    <path d="M-186.1 -158.25 L-185.8 -158.25 -185.9 -158.1 -186.1 -158.25" fill="#ffcc00" fill-rule="evenodd" stroke="none"/>
    <path d="M-237.35 -171.75 Q-238.3 -177.4 -236.1 -179.5 -235.1 -180.8 -233.4 -180.8 -231.5 -180.8 -229.9 -179.15 -228.55 -177.75 -228.05 -175.85 L-229.35 -175.85 -232.8 -175.85 -233.0 -175.1 -233.0 -174.0 -234.95 -173.85 Q-235.7 -173.6 -237.35 -171.75" fill="#ff0000" fill-rule="evenodd" stroke="none"/>
    <path d="M-231.45 -159.9 L-231.45 -158.7 -231.45 -157.1 Q-232.2 -156.45 -236.5 -156.45 L-241.45 -156.75 -241.55 -156.75 -241.55 -157.4 -241.4 -158.7 Q-240.9 -163.05 -240.2 -165.1 L-242.1 -166.25 -242.4 -166.4 Q-242.0 -167.85 -240.6 -168.95 L-237.8 -171.35 -237.55 -171.6 -237.35 -171.75 Q-235.7 -173.6 -234.95 -173.85 L-233.0 -174.0 -231.55 -174.05 -229.1 -173.95 -224.3 -173.3 -224.3 -169.25 -225.95 -169.25 -228.95 -169.25 Q-228.8 -167.9 -229.6 -166.6 L-231.45 -163.85 -231.45 -161.7 -231.45 -159.9 M-239.45 -166.55 L-240.2 -165.1 -239.45 -166.55 M-241.4 -158.7 L-241.3 -158.7 -241.4 -158.7" fill="#99cc00" fill-rule="evenodd" stroke="none"/>
    <path d="M-212.25 -165.75 L-212.25 -165.6 -212.25 -165.2 Q-212.3 -164.3 -212.55 -164.15 L-214.25 -164.0 -215.65 -164.15 -216.55 -164.45 -217.4 -165.35 -218.0 -165.8 -218.7 -166.3 -220.7 -167.75 Q-222.6 -169.0 -224.3 -169.25 L-224.3 -173.3 Q-218.4 -171.9 -216.0 -167.9 L-214.4 -167.65 -213.15 -167.4 -213.0 -167.35 Q-212.3 -166.95 -212.25 -165.75 M-241.4 -158.7 Q-244.55 -159.2 -244.55 -161.5 -244.55 -162.6 -243.65 -164.25 L-242.1 -166.25 -240.2 -165.1 Q-240.9 -163.05 -241.4 -158.7 M-229.35 -175.85 L-229.1 -173.95 -231.55 -174.05 -233.0 -174.0 -233.0 -175.1 -232.8 -175.85 -229.35 -175.85" fill="#ffcc99" fill-rule="evenodd" stroke="none"/>
    <path d="M-231.45 -158.7 L-230.75 -158.7 Q-229.5 -158.4 -228.75 -157.75 -227.9 -157.05 -227.7 -155.9 -227.45 -153.85 -234.95 -153.85 L-243.8 -154.5 Q-245.15 -155.15 -245.3 -156.35 L-245.3 -156.55 Q-245.3 -157.6 -243.85 -158.15 L-243.05 -158.4 -241.4 -158.7 -241.55 -157.4 -241.55 -156.75 -241.45 -156.75 -236.5 -156.45 Q-232.2 -156.45 -231.45 -157.1 L-231.45 -158.7" fill="#996699" fill-rule="evenodd" stroke="none"/>
    <path d="M-213.0 -167.35 L-209.55 -168.4 -204.4 -173.2 -192.5 -172.9 -201.0 -166.4 -208.8 -166.8 -212.25 -165.75 Q-212.3 -166.95 -213.0 -167.35 M-216.55 -164.45 L-231.45 -159.9 -231.45 -161.7 -218.0 -165.8 -217.4 -165.35 -216.55 -164.45 M-251.35 -155.95 L-247.6 -158.5 -243.05 -158.4 -243.85 -158.15 Q-245.3 -157.6 -245.3 -156.55 L-251.35 -155.95" fill="#8f5601" fill-rule="evenodd" stroke="none"/>
    <path d="M-185.9 -158.1 L-193.95 -147.7 -264.55 -147.7 Q-266.85 -149.75 -267.6 -153.6 -225.85 -150.9 -186.1 -158.25 L-185.9 -158.1" fill="#cb9afe" fill-rule="evenodd" stroke="none"/>
    <path d="M-228.75 -157.75 Q-208.15 -158.9 -186.1 -158.25 -225.85 -150.9 -267.6 -153.6 L-267.65 -153.9 -251.35 -155.95 -245.3 -156.55 -245.3 -156.35 Q-245.15 -155.15 -243.8 -154.5 L-234.95 -153.85 Q-227.45 -153.85 -227.7 -155.9 -227.9 -157.05 -228.75 -157.75" fill="#e1c4ff" fill-rule="evenodd" stroke="none"/>
    <path d="M-213.0 -167.35 L-209.55 -168.4 -204.4 -173.2 -192.5 -172.9 -201.0 -166.4 -208.8 -166.8 -212.25 -165.75 -212.25 -165.6 -212.25 -165.2 Q-212.3 -164.3 -212.55 -164.15 L-214.25 -164.0 -215.65 -164.15 -216.55 -164.45 -231.45 -159.9 -231.45 -158.7 -230.75 -158.7 Q-229.5 -158.4 -228.75 -157.75 -208.15 -158.9 -186.1 -158.25 L-185.8 -158.25 -185.9 -158.1 -193.95 -147.7 -264.55 -147.7 Q-266.85 -149.75 -267.6 -153.6 L-267.65 -153.9 -251.35 -155.95 -247.6 -158.5 -243.05 -158.4 -241.4 -158.7 Q-244.55 -159.2 -244.55 -161.5 -244.55 -162.6 -243.65 -164.25 L-242.1 -166.25 -242.4 -166.4 Q-242.0 -167.85 -240.6 -168.95 L-237.8 -171.35 -237.55 -171.6 -237.35 -171.75 Q-238.3 -177.4 -236.1 -179.5 -235.1 -180.8 -233.4 -180.8 -231.5 -180.8 -229.9 -179.15 -228.55 -177.75 -228.05 -175.85 L-229.35 -175.85 -229.1 -173.95 -224.3 -173.3 Q-218.4 -171.9 -216.0 -167.9 L-214.4 -167.65 -213.15 -167.4 -213.0 -167.35 Q-212.3 -166.95 -212.25 -165.75 M-233.0 -174.0 L-233.0 -175.1 -232.8 -175.85 -229.35 -175.85 M-237.35 -171.75 Q-235.7 -173.6 -234.95 -173.85 L-233.0 -174.0 -231.55 -174.05 -229.1 -173.95 M-224.3 -169.25 L-225.95 -169.25 -228.95 -169.25 Q-228.8 -167.9 -229.6 -166.6 L-231.45 -163.85 -231.45 -161.7 -218.0 -165.8 -218.7 -166.3 -220.7 -167.75 Q-222.6 -169.0 -224.3 -169.25 L-224.3 -173.3 M-240.2 -165.1 L-239.45 -166.55 M-242.1 -166.25 L-240.2 -165.1 Q-240.9 -163.05 -241.4 -158.7 L-241.3 -158.7 -241.4 -158.7 -241.55 -157.4 -241.55 -156.75 -241.45 -156.75 -236.5 -156.45 Q-232.2 -156.45 -231.45 -157.1 L-231.45 -158.7 M-245.3 -156.55 L-245.3 -156.35 Q-245.15 -155.15 -243.8 -154.5 L-234.95 -153.85 Q-227.45 -153.85 -227.7 -155.9 -227.9 -157.05 -228.75 -157.75 M-231.45 -161.7 L-231.45 -159.9 M-216.55 -164.45 L-217.4 -165.35 -218.0 -165.8 M-251.35 -155.95 L-245.3 -156.55 Q-245.3 -157.6 -243.85 -158.15 L-243.05 -158.4 M-267.6 -153.6 Q-225.85 -150.9 -186.1 -158.25" fill="none" stroke="#000000" stroke-linecap="round" stroke-linejoin="round" stroke-width="0.05"/>
  </g>
</svg>
