<?xml version="1.0" encoding="UTF-8" standalone="no"?>
<svg xmlns:ffdec="https://www.free-decompiler.com/flash" xmlns:xlink="http://www.w3.org/1999/xlink" ffdec:objectType="shape" height="34.6px" width="83.35px" xmlns="http://www.w3.org/2000/svg">
  <g transform="matrix(1.0, 0.0, 0.0, 1.0, 268.4, 181.55)">
    <path d="M-201.4 -156.9 L-185.8 -158.25 -193.95 -147.7 -264.55 -147.7 Q-266.85 -149.75 -267.6 -153.6 L-267.65 -153.9 -244.8 -154.65 -244.7 -154.65 Q-235.5 -152.75 -227.6 -155.35 L-209.9 -156.3 -207.75 -156.45 -207.5 -156.5 -201.4 -156.9" fill="#ffcc00" fill-rule="evenodd" stroke="none"/>
    <path d="M-241.65 -163.5 L-244.4 -163.25 Q-246.65 -163.45 -246.55 -164.8 -246.45 -166.2 -244.9 -167.55 -243.45 -168.9 -243.45 -169.3 -243.35 -167.45 -242.75 -166.75 L-241.45 -165.8 -241.65 -163.5 M-227.8 -175.4 Q-227.95 -173.25 -229.3 -171.8 L-230.05 -171.1 -232.6 -172.0 Q-231.5 -174.3 -231.15 -176.7 L-227.8 -175.4 M-224.9 -168.55 L-221.8 -166.75 Q-216.2 -163.35 -213.8 -161.35 L-212.1 -159.7 Q-210.9 -159.3 -211.55 -158.0 L-213.25 -157.85 -214.75 -157.8 Q-216.8 -157.8 -217.95 -159.8 L-218.6 -161.25 Q-222.75 -163.55 -224.6 -163.8 -225.05 -163.85 -226.7 -164.65 -225.1 -165.85 -224.9 -168.55" fill="#ffcc99" fill-rule="evenodd" stroke="none"/>
    <path d="M-236.6 -172.7 L-237.05 -175.3 Q-237.05 -177.35 -235.4 -178.95 -233.6 -180.8 -230.8 -180.8 -227.45 -180.8 -227.45 -176.1 L-227.45 -175.25 -227.8 -175.4 -231.15 -176.7 Q-231.5 -174.3 -232.6 -172.0 L-236.4 -172.7 -236.6 -172.7" fill="#ff0000" fill-rule="evenodd" stroke="none"/>
    <path d="M-242.25 -157.0 L-242.25 -158.0 -241.65 -163.5 -241.45 -165.8 -242.75 -166.75 Q-243.35 -167.45 -243.45 -169.3 L-243.45 -169.35 -242.6 -169.9 -242.2 -170.15 -241.15 -170.8 -239.45 -171.8 -239.35 -171.85 -236.6 -172.7 -236.4 -172.7 -232.6 -172.0 -230.05 -171.1 -229.7 -170.95 Q-227.6 -170.05 -225.05 -168.6 L-224.9 -168.55 Q-225.1 -165.85 -226.7 -164.65 L-226.85 -164.7 -230.1 -166.35 -230.35 -164.9 Q-231.45 -159.2 -231.55 -157.0 L-232.55 -157.1 -241.25 -157.1 -242.25 -157.0 M-241.35 -167.45 L-241.45 -165.8 -241.35 -167.45" fill="#99cc00" fill-rule="evenodd" stroke="none"/>
    <path d="M-242.95 -170.1 L-245.9 -169.8 -255.25 -177.7 -247.6 -177.7 -241.9 -173.1 -239.4 -171.9 -239.45 -171.8 -241.15 -170.8 -242.2 -170.15 -242.95 -170.1 M-213.8 -161.35 L-211.0 -160.2 -204.95 -160.45 -201.4 -156.9 -207.5 -156.5 -207.75 -156.45 -209.9 -156.3 -213.25 -157.85 -211.55 -158.0 Q-210.9 -159.3 -212.1 -159.7 L-213.8 -161.35 M-230.35 -164.9 L-230.1 -166.35 -226.85 -164.7 -226.7 -164.65 Q-225.05 -163.85 -224.6 -163.8 -222.75 -163.55 -218.6 -161.25 L-217.95 -159.8 -230.35 -164.9" fill="#8f5601" fill-rule="evenodd" stroke="none"/>
    <path d="M-244.7 -154.65 Q-244.2 -156.65 -242.25 -157.0 L-241.25 -157.1 -232.55 -157.1 -231.55 -157.0 Q-228.25 -156.65 -227.6 -155.35 -235.5 -152.75 -244.7 -154.65" fill="#996699" fill-rule="evenodd" stroke="none"/>
    <path d="M-201.4 -156.9 L-185.8 -158.25 -193.95 -147.7 -264.55 -147.7 Q-266.85 -149.75 -267.6 -153.6 L-267.65 -153.9 -244.8 -154.65 -244.7 -154.65 Q-244.2 -156.65 -242.25 -157.0 L-242.25 -158.0 -241.65 -163.5 -244.4 -163.25 Q-246.65 -163.45 -246.55 -164.8 -246.45 -166.2 -244.9 -167.55 -243.45 -168.9 -243.45 -169.3 L-243.45 -169.35 -242.6 -169.9 -242.65 -169.95 -242.95 -170.1 -245.9 -169.8 -255.25 -177.7 -247.6 -177.7 -241.9 -173.1 -239.4 -171.9 -239.35 -171.85 -236.6 -172.7 -237.05 -175.3 Q-237.05 -177.35 -235.4 -178.95 -233.6 -180.8 -230.8 -180.8 -227.45 -180.8 -227.45 -176.1 L-227.45 -175.25 -227.8 -175.4 Q-227.95 -173.25 -229.3 -171.8 L-230.05 -171.1 -229.7 -170.95 Q-227.6 -170.05 -225.05 -168.6 L-224.9 -168.55 -221.8 -166.75 Q-216.2 -163.35 -213.8 -161.35 L-211.0 -160.2 -204.95 -160.45 -201.4 -156.9 -207.5 -156.5 -207.75 -156.45 -209.9 -156.3 -227.6 -155.35 Q-235.5 -152.75 -244.7 -154.65 M-227.8 -175.4 L-231.15 -176.7 Q-231.5 -174.3 -232.6 -172.0 L-230.05 -171.1 M-226.7 -164.65 L-226.85 -164.7 -230.1 -166.35 -230.35 -164.9 -217.95 -159.8 -218.6 -161.25 Q-222.75 -163.55 -224.6 -163.8 -225.05 -163.85 -226.7 -164.65 -225.1 -165.85 -224.9 -168.55 M-232.6 -172.0 L-236.4 -172.7 -236.6 -172.7 M-239.45 -171.8 L-239.35 -171.85 M-239.45 -171.8 L-241.15 -170.8 -242.2 -170.15 -242.6 -169.9 M-242.2 -170.15 L-242.95 -170.1 M-243.45 -169.3 Q-243.35 -167.45 -242.75 -166.75 L-241.45 -165.8 -241.35 -167.45 M-241.45 -165.8 L-241.65 -163.5 M-231.55 -157.0 L-232.55 -157.1 -241.25 -157.1 -242.25 -157.0 M-231.55 -157.0 Q-228.25 -156.65 -227.6 -155.35 M-230.35 -164.9 Q-231.45 -159.2 -231.55 -157.0 M-213.25 -157.85 L-214.75 -157.8 Q-216.8 -157.8 -217.95 -159.8 M-213.8 -161.35 L-212.1 -159.7 Q-210.9 -159.3 -211.55 -158.0 L-213.25 -157.85 -209.9 -156.3" fill="none" stroke="#000000" stroke-linecap="round" stroke-linejoin="round" stroke-width="1.5"/>
    <path d="M-267.6 -153.6 L-267.65 -153.9 -267.6 -153.9 -267.6 -153.6" fill="#ffcc00" fill-rule="evenodd" stroke="none"/>
    <path d="M-241.65 -163.5 L-244.4 -163.25 Q-246.65 -163.45 -246.55 -164.8 -246.45 -166.2 -244.9 -167.55 -243.45 -168.9 -243.45 -169.3 -243.35 -167.45 -242.75 -166.75 L-241.45 -165.8 -241.65 -163.5 M-227.8 -175.4 Q-227.95 -173.25 -229.3 -171.8 L-230.05 -171.1 -232.6 -172.0 Q-231.5 -174.3 -231.15 -176.7 L-227.8 -175.4 M-224.9 -168.55 L-221.8 -166.75 Q-216.2 -163.35 -213.8 -161.35 L-212.1 -159.7 Q-210.9 -159.3 -211.55 -158.0 L-213.25 -157.85 -214.75 -157.8 Q-216.8 -157.8 -217.95 -159.8 L-218.6 -161.25 Q-222.75 -163.55 -224.6 -163.8 -225.05 -163.85 -226.7 -164.65 -225.1 -165.85 -224.9 -168.55" fill="#ffcc99" fill-rule="evenodd" stroke="none"/>
    <path d="M-236.6 -172.7 L-237.05 -175.3 Q-237.05 -177.35 -235.4 -178.95 -233.6 -180.8 -230.8 -180.8 -227.45 -180.8 -227.45 -176.1 L-227.45 -175.25 -227.8 -175.4 -231.15 -176.7 Q-231.5 -174.3 -232.6 -172.0 L-236.4 -172.7 -236.6 -172.7" fill="#ff0000" fill-rule="evenodd" stroke="none"/>
    <path d="M-242.25 -157.0 L-242.25 -158.0 -241.65 -163.5 -241.45 -165.8 -242.75 -166.75 Q-243.35 -167.45 -243.45 -169.3 L-243.45 -169.35 -242.6 -169.9 -242.2 -170.15 -241.15 -170.8 -239.45 -171.8 -239.35 -171.85 -236.6 -172.7 -236.4 -172.7 -232.6 -172.0 -230.05 -171.1 -229.7 -170.95 Q-227.6 -170.05 -225.05 -168.6 L-224.9 -168.55 Q-225.1 -165.85 -226.7 -164.65 L-226.85 -164.7 -230.1 -166.35 -230.35 -164.9 Q-231.45 -159.2 -231.55 -157.0 L-232.55 -157.1 -241.25 -157.1 -242.25 -157.0 M-241.35 -167.45 L-241.45 -165.8 -241.35 -167.45" fill="#99cc00" fill-rule="evenodd" stroke="none"/>
    <path d="M-242.95 -170.1 L-245.9 -169.8 -255.25 -177.7 -247.6 -177.7 -241.9 -173.1 -239.4 -171.9 -239.45 -171.8 -241.15 -170.8 -242.2 -170.15 -242.95 -170.1 M-213.8 -161.35 L-211.0 -160.2 -204.95 -160.45 -201.4 -156.9 -207.5 -156.5 -207.75 -156.45 -209.9 -156.3 -213.25 -157.85 -211.55 -158.0 Q-210.9 -159.3 -212.1 -159.7 L-213.8 -161.35 M-230.35 -164.9 L-230.1 -166.35 -226.85 -164.7 -226.7 -164.65 Q-225.05 -163.85 -224.6 -163.8 -222.75 -163.55 -218.6 -161.25 L-217.95 -159.8 -230.35 -164.9" fill="#8f5601" fill-rule="evenodd" stroke="none"/>
    <path d="M-244.7 -154.65 Q-244.2 -156.65 -242.25 -157.0 L-241.25 -157.1 -232.55 -157.1 -231.55 -157.0 Q-228.25 -156.65 -227.6 -155.35 -235.5 -152.75 -244.7 -154.65" fill="#996699" fill-rule="evenodd" stroke="none"/>
    <path d="M-201.4 -156.9 L-185.8 -158.25 -193.95 -147.7 -264.55 -147.7 Q-266.85 -149.75 -267.6 -153.6 L-267.6 -153.9 -244.8 -154.65 -244.7 -154.65 Q-235.5 -152.75 -227.6 -155.35 L-209.9 -156.3 -207.75 -156.45 -207.5 -156.5 -201.4 -156.9" fill="#cb9afe" fill-rule="evenodd" stroke="none"/>
    <path d="M-201.4 -156.9 L-185.8 -158.25 -193.95 -147.7 -264.55 -147.7 Q-266.85 -149.75 -267.6 -153.6 L-267.65 -153.9 -267.6 -153.9 -244.8 -154.65 -244.7 -154.65 Q-244.2 -156.65 -242.25 -157.0 L-242.25 -158.0 -241.65 -163.5 -244.4 -163.25 Q-246.65 -163.45 -246.55 -164.8 -246.45 -166.2 -244.9 -167.55 -243.45 -168.9 -243.45 -169.3 L-243.45 -169.35 -242.6 -169.9 -242.65 -169.95 -242.95 -170.1 -245.9 -169.8 -255.25 -177.7 -247.6 -177.7 -241.9 -173.1 -239.4 -171.9 -239.35 -171.85 -236.6 -172.7 -237.05 -175.3 Q-237.05 -177.35 -235.4 -178.95 -233.6 -180.8 -230.8 -180.8 -227.45 -180.8 -227.45 -176.1 L-227.45 -175.25 -227.8 -175.4 Q-227.95 -173.25 -229.3 -171.8 L-230.05 -171.1 -229.7 -170.95 Q-227.6 -170.05 -225.05 -168.6 L-224.9 -168.55 -221.8 -166.75 Q-216.2 -163.35 -213.8 -161.35 L-211.0 -160.2 -204.95 -160.45 -201.4 -156.9 -207.5 -156.5 -207.75 -156.45 -209.9 -156.3 -227.6 -155.35 Q-235.5 -152.75 -244.7 -154.65 M-227.8 -175.4 L-231.15 -176.7 Q-231.5 -174.3 -232.6 -172.0 L-230.05 -171.1 M-226.7 -164.65 L-226.85 -164.7 -230.1 -166.35 -230.35 -164.9 -217.95 -159.8 -218.6 -161.25 Q-222.75 -163.55 -224.6 -163.8 -225.05 -163.85 -226.7 -164.65 -225.1 -165.85 -224.9 -168.55 M-232.6 -172.0 L-236.4 -172.7 -236.6 -172.7 M-239.45 -171.8 L-239.35 -171.85 M-239.45 -171.8 L-241.15 -170.8 -242.2 -170.15 -242.6 -169.9 M-242.2 -170.15 L-242.95 -170.1 M-243.45 -169.3 Q-243.35 -167.45 -242.75 -166.75 L-241.45 -165.8 -241.35 -167.45 M-241.45 -165.8 L-241.65 -163.5 M-231.55 -157.0 L-232.55 -157.1 -241.25 -157.1 -242.25 -157.0 M-231.55 -157.0 Q-228.25 -156.65 -227.6 -155.35 M-230.35 -164.9 Q-231.45 -159.2 -231.55 -157.0 M-213.25 -157.85 L-214.75 -157.8 Q-216.8 -157.8 -217.95 -159.8 M-213.8 -161.35 L-212.1 -159.7 Q-210.9 -159.3 -211.55 -158.0 L-213.25 -157.85 -209.9 -156.3" fill="none" stroke="#000000" stroke-linecap="round" stroke-linejoin="round" stroke-width="0.05"/>
  </g>
</svg>
