<?xml version="1.0" encoding="UTF-8" standalone="no"?>
<svg xmlns:ffdec="https://www.free-decompiler.com/flash" xmlns:xlink="http://www.w3.org/1999/xlink" ffdec:objectType="shape" height="19.8px" width="55.7px" xmlns="http://www.w3.org/2000/svg">
  <g transform="matrix(1.0, 0.0, 0.0, 1.0, 27.85, 9.9)">
    <path d="M-26.0 -7.8 Q-25.15 -9.5 -21.25 -9.5 -17.2 -9.5 -15.35 -7.55 -14.8 -7.05 -14.3 -5.65 -13.85 -4.2 -13.85 -3.35 -13.85 -1.25 -14.15 0.05 -15.05 0.2 -15.25 2.6 L-15.3 5.85 -16.7 6.3 -17.4 6.2 -19.2 6.8 -21.05 7.1 Q-23.15 7.1 -25.25 5.85 L-25.25 5.8 -25.8 6.2 -26.25 5.65 -26.25 6.0 Q-26.25 6.3 -26.9 6.65 L-27.4 5.95 -27.55 5.0 -27.35 4.95 -27.25 4.15 -26.8 4.5 -27.3 1.35 -27.85 0.45 -27.6 -1.95 -27.4 -4.4 -27.55 -4.75 -27.7 -5.15 -27.4 -5.75 -27.5 -5.9 -27.0 -7.05 -26.0 -7.8 M-20.45 -5.9 Q-20.45 -5.05 -21.4 -5.05 L-21.5 -5.15 -21.4 -5.45 -21.35 -5.75 -21.4 -5.85 -21.85 -5.95 -22.3 -6.1 Q-23.15 -6.1 -23.4 -5.5 L-23.2 -4.85 -22.95 -4.15 -23.2 -4.0 -23.4 -4.0 Q-24.0 -0.95 -24.0 1.35 -24.0 5.3 -21.6 5.3 L-19.75 5.0 Q-18.65 4.2 -18.25 3.6 -17.75 2.85 -17.75 1.65 L-17.75 0.6 -17.6 0.5 Q-17.6 0.1 -17.75 -0.15 L-17.7 -0.15 -17.8 -0.9 -17.75 -1.5 -17.75 -2.05 -17.95 -2.95 -17.7 -4.4 Q-17.7 -5.5 -19.65 -6.35 L-20.05 -6.35 -20.3 -6.1 -20.45 -5.9 M-19.0 -3.05 L-18.95 -3.3 -18.9 -3.6 -18.6 -4.6 -18.85 -4.95 -18.75 -5.55 -18.25 -5.2 -18.15 -4.7 -18.15 -3.75 -18.5 -3.1 -18.7 -3.0 -18.95 -2.95 -19.0 -3.05 M-9.2 -8.4 L-7.4 -7.45 Q-5.45 -4.05 -4.55 -1.8 L-3.15 -4.9 -2.15 -7.0 Q-1.25 -8.4 -0.55 -8.6 L2.65 -9.5 2.8 -8.3 2.7 -6.55 2.65 -4.8 Q2.65 -3.85 2.8 -3.3 L2.75 -3.25 3.15 -2.8 3.0 -2.6 2.85 -0.75 2.9 1.3 3.0 3.3 2.95 4.65 2.95 6.05 Q2.65 6.55 0.75 6.55 L0.45 6.55 1.65 7.15 0.55 7.85 -0.3 7.2 0.3 6.55 -0.35 6.55 -1.05 6.5 -1.2 6.0 -0.9 4.15 -0.65 2.3 -0.65 2.2 -0.7 2.25 -0.95 -0.9 Q-1.15 -2.7 -1.45 -3.5 L-2.05 -2.15 -2.35 -1.15 -2.35 -0.7 Q-2.25 0.55 -2.95 1.45 L-3.15 2.7 Q-3.25 3.4 -3.5 3.7 -4.6 3.8 -5.25 3.0 L-5.95 2.1 -5.9 1.95 Q-5.9 1.3 -7.25 -0.8 L-9.15 -3.4 -9.55 -1.3 Q-9.0 -0.15 -9.0 4.0 L-9.2 6.5 -9.5 6.45 -10.6 6.6 -11.7 6.75 Q-12.1 6.75 -12.15 6.35 L-12.25 5.5 -12.3 4.55 -12.15 1.95 -12.35 0.3 -12.5 -1.2 -12.15 -2.05 Q-11.8 -2.6 -11.8 -2.8 L-12.35 -2.95 -12.8 -3.2 -11.95 -3.6 -12.2 -4.7 -12.45 -5.85 -12.3 -6.4 -12.5 -6.4 Q-12.5 -7.9 -12.15 -8.6 L-12.45 -8.85 Q-12.75 -8.9 -12.8 -9.05 L-14.1 -9.75 -10.85 -9.8 -9.7 -9.45 Q-9.1 -9.0 -9.2 -8.4 M-12.85 5.65 L-13.2 6.3 -13.4 6.35 -13.65 6.4 -13.95 6.2 -13.75 5.7 -13.75 5.55 -13.6 4.35 -13.4 3.15 -13.25 2.75 -12.9 2.5 Q-12.75 2.5 -12.75 2.75 L-12.85 5.65 M-13.55 2.9 L-14.05 3.3 -14.1 3.35 -14.4 2.8 -14.4 2.15 -14.25 2.05 -14.15 1.3 Q-13.45 1.7 -13.45 2.3 L-13.55 2.9 M-19.1 1.85 Q-18.35 2.25 -18.35 2.85 -18.35 3.55 -19.0 3.85 L-19.0 3.9 Q-19.4 3.7 -19.4 2.7 L-19.2 2.6 -19.1 1.85 M-22.0 1.15 L-22.5 1.9 -22.75 2.15 -22.55 2.4 -22.35 2.9 -22.55 3.15 Q-23.35 2.7 -23.6 1.95 L-23.4 1.9 -23.3 1.1 -23.15 1.0 -23.0 0.85 -22.95 0.85 -22.55 1.0 -22.45 0.5 -22.0 1.15 M-1.8 -8.4 L-2.0 -7.8 -2.5 -6.85 -2.95 -7.05 -2.95 -7.55 -3.1 -7.95 -3.2 -8.3 -2.95 -8.65 -2.6 -8.85 -2.15 -8.65 -1.8 -8.4 M10.75 -9.5 L14.55 -9.0 18.35 -8.6 18.55 -8.1 Q18.55 -7.75 18.15 -7.15 L17.75 -6.2 18.1 -5.7 18.4 -5.2 18.35 -4.4 17.25 -4.4 17.35 -4.35 17.0 -4.1 Q16.6 -4.1 16.6 -4.85 L15.6 -5.55 14.55 -6.05 14.45 -5.95 11.5 -6.5 11.0 -6.45 10.9 -6.55 10.65 -6.45 10.0 -6.55 9.35 -6.65 9.15 -6.55 Q9.0 -6.55 8.75 -5.55 L8.35 -4.3 7.8 -4.2 8.45 -2.75 Q8.3 -2.6 8.3 -2.2 L8.55 -0.65 8.85 0.85 9.65 2.45 9.75 2.8 9.8 2.9 Q10.15 4.25 11.45 4.25 L14.2 3.95 Q15.15 3.5 15.15 1.75 L14.7 0.6 14.4 -0.2 14.1 -1.1 14.75 -1.1 15.75 -1.1 16.4 -1.05 Q16.9 -1.05 17.1 -0.6 17.35 -0.1 17.85 -0.1 L18.45 -0.3 19.2 -0.55 Q18.9 0.25 18.9 1.8 L19.0 3.9 19.1 6.0 18.45 6.15 Q17.55 5.8 17.05 4.45 16.4 5.45 14.65 6.0 L11.8 6.5 Q9.85 6.5 7.85 5.45 L8.05 5.95 7.4 6.65 Q6.65 6.2 6.35 5.45 L6.55 5.35 6.65 4.55 7.05 4.8 6.15 3.35 Q5.55 2.15 5.55 1.3 L5.25 -1.3 5.1 -1.55 4.7 -1.4 4.6 -1.55 5.0 -3.0 5.45 -4.4 5.3 -4.75 Q5.15 -5.0 5.15 -5.15 L5.4 -5.8 Q4.75 -6.6 4.25 -6.6 4.15 -6.6 4.15 -6.65 L6.1 -7.9 8.45 -9.1 10.75 -9.5 M3.6 -8.1 L3.55 -7.7 3.5 -7.35 3.8 -6.85 3.5 -6.5 Q3.15 -6.65 2.85 -7.7 L3.05 -7.75 3.15 -8.55 3.6 -8.1 M3.35 -2.0 L3.45 -2.8 4.05 -2.4 4.35 -1.8 Q4.35 -1.25 3.55 -0.8 3.15 -1.0 3.15 -1.3 L3.2 -1.6 3.15 -1.9 3.35 -2.0 M10.3 -4.4 L10.25 -5.05 10.35 -5.4 Q11.1 -4.85 11.1 -3.6 L10.9 -3.15 10.55 -2.7 Q10.05 -2.8 10.1 -2.95 L10.1 -3.2 10.3 -3.8 10.3 -4.4 M21.65 -9.3 L22.7 -9.35 23.75 -9.4 25.0 -9.65 25.95 -9.9 Q26.45 -9.9 26.45 -8.45 L26.45 -6.95 Q26.4 -6.55 26.2 -6.55 26.1 -6.2 26.35 -5.45 L26.6 -4.4 26.35 -3.7 26.1 -2.95 26.15 -2.3 26.15 -1.65 26.0 -0.2 25.8 -0.05 Q26.2 0.3 26.2 0.75 L26.05 1.3 22.8 1.3 23.1 0.95 22.85 -1.65 22.65 -4.3 22.3 -6.15 Q21.95 -7.35 21.95 -8.0 L21.8 -8.55 21.6 -9.1 21.65 -9.3 M15.45 -3.75 L15.55 -3.1 15.1 -2.85 15.0 -3.8 15.1 -4.3 15.85 -4.3 15.45 -3.75 M21.2 -4.85 L21.6 -6.8 22.2 -5.6 22.5 -4.15 Q22.5 -3.75 21.6 -3.35 21.1 -3.65 21.1 -4.1 L21.2 -4.85 M27.85 5.65 Q27.85 6.25 27.35 6.5 26.85 6.2 26.85 5.7 L26.95 5.0 27.5 4.5 Q27.85 4.7 27.85 5.65 M23.7 3.55 L25.0 3.55 25.55 3.55 26.05 3.55 Q26.8 3.55 26.8 4.4 26.8 5.15 25.45 5.85 L23.5 6.6 23.75 6.1 23.1 5.15 Q22.75 4.4 22.75 4.0 22.75 3.65 23.7 3.55 M23.1 8.35 Q23.1 8.0 23.4 7.6 23.4 7.35 23.8 7.2 L24.2 7.8 24.4 8.6 24.25 8.6 23.35 8.85 23.1 8.35 M14.2 2.35 L14.15 2.8 14.1 3.05 13.95 3.05 13.75 3.1 13.55 3.15 Q13.3 3.15 13.2 2.9 L13.3 1.25 13.6 1.5 13.7 1.3 13.85 1.05 Q14.2 1.3 14.2 1.9 L14.2 2.35 M15.85 9.65 L15.5 9.1 15.35 8.35 15.55 8.25 15.65 7.45 Q16.45 7.95 16.45 8.4 16.45 9.3 15.85 9.65 M17.95 8.9 Q17.15 8.45 16.85 7.7 L17.05 7.6 17.15 6.8 17.95 7.45 Q18.15 7.75 18.15 8.4 L17.95 8.9 M3.85 4.6 L3.95 3.8 4.3 4.0 4.5 4.25 4.4 4.8 4.5 5.35 4.25 5.8 Q3.85 5.55 3.7 4.65 L3.85 4.6 M9.75 6.8 L9.9 7.4 10.05 8.0 9.75 8.75 9.7 8.8 9.35 8.4 9.1 7.95 9.25 7.7 9.1 7.45 8.95 7.2 9.0 7.05 9.15 7.1 9.75 6.8 M11.0 7.95 Q11.55 8.35 11.55 9.5 L11.45 9.8 11.35 9.75 11.1 9.8 10.9 9.9 Q10.65 9.9 10.55 9.65 L10.8 9.15 10.8 9.0 10.9 8.45 11.0 7.95 M-7.85 1.8 L-8.1 1.55 -7.7 1.45 -7.95 0.6 -7.65 -0.35 -7.3 -0.25 -7.1 1.05 -7.2 1.7 -7.85 1.8 M-6.55 3.1 L-6.3 1.9 -5.3 3.2 -4.7 4.6 -5.15 5.05 Q-6.05 4.4 -6.65 3.2 L-6.55 3.1" fill="#000000" fill-rule="evenodd" stroke="none"/>
  </g>
</svg>
