<?xml version="1.0" encoding="UTF-8" standalone="no"?>
<svg xmlns:ffdec="https://www.free-decompiler.com/flash" xmlns:xlink="http://www.w3.org/1999/xlink" ffdec:objectType="shape" height="17.3px" width="33.3px" xmlns="http://www.w3.org/2000/svg">
  <g transform="matrix(1.0, 0.0, 0.0, 1.0, 19.65, 6.25)">
    <path d="M-10.5 0.4 L-10.5 0.45 -10.55 0.4 -10.65 0.3 -10.75 0.15 Q-11.2 -0.35 -10.5 0.4 L-10.55 0.4 -10.5 0.4 M-10.55 0.4 L-10.65 0.45 -10.75 0.2 -10.55 0.4" fill="#97d6f0" fill-rule="evenodd" stroke="none"/>
    <path d="M13.05 8.7 L9.3 5.6 Q16.9 12.6 11.25 10.15 -3.15 13.75 -17.8 2.9 L-14.15 4.1 Q-19.9 1.9 -19.05 0.35 L-13.75 0.2 -10.75 0.45 -10.55 0.75 -10.65 0.45 -10.55 0.4 -10.4 0.6 -10.5 0.45 -10.5 0.4 Q-10.1 -0.5 -13.4 -2.6 -16.25 -4.7 -13.9 -5.6 L-12.25 -5.75 Q-8.75 -4.95 -5.6 -2.45 -2.5 0.0 -1.0 0.9 L0.2 0.9 Q-0.4 -3.9 1.4 -3.9 4.1 -3.9 8.7 2.1 L13.05 8.7" fill="url(#gradient0)" fill-rule="evenodd" stroke="none"/>
    <path d="M13.05 8.7 L8.7 2.1 Q4.1 -3.9 1.4 -3.9 -0.4 -3.9 0.2 0.9 L-1.0 0.9 Q-2.5 0.0 -5.6 -2.45 -8.75 -4.95 -12.25 -5.75 L-13.9 -5.6 Q-16.25 -4.7 -13.4 -2.6 -10.1 -0.5 -10.5 0.4 -11.2 -0.35 -10.75 0.15 L-10.65 0.3 -10.55 0.4 -10.5 0.45 -10.4 0.6 -10.55 0.4 -10.65 0.45 -10.55 0.75 -10.75 0.45 -13.75 0.2 -19.05 0.35 Q-19.9 1.9 -14.15 4.1 M-10.55 0.4 L-10.5 0.4 M-10.75 0.2 L-10.75 0.45 -10.65 0.45 -10.75 0.2 -10.75 0.15 M-10.75 0.2 L-10.55 0.4" fill="none" stroke="#000000" stroke-linecap="round" stroke-linejoin="round" stroke-width="1.0"/>
  </g>
  <defs>
    <linearGradient gradientTransform="matrix(-0.0014, 0.0089, -0.0204, -0.0033, -2.3, 2.9)" gradientUnits="userSpaceOnUse" id="gradient0" spreadMethod="pad" x1="-819.2" x2="819.2">
      <stop offset="0.6666666666666666" stop-color="#97d6f0" stop-opacity="0.8"/>
      <stop offset="0.8549019607843137" stop-color="#97d6f0" stop-opacity="0.0"/>
    </linearGradient>
  </defs>
</svg>
