<?xml version="1.0" encoding="UTF-8" standalone="no"?>
<svg xmlns:ffdec="https://www.free-decompiler.com/flash" xmlns:xlink="http://www.w3.org/1999/xlink" ffdec:objectType="shape" height="95.4px" width="131.2px" xmlns="http://www.w3.org/2000/svg">
  <g transform="matrix(1.0, 0.0, 0.0, 1.0, 274.3, 189.9)">
    <path d="M-264.9 -127.5 Q-263.5 -130.3 -259.25 -130.8 -255.1 -131.3 -249.9 -129.3 -246.15 -127.85 -245.15 -127.8 -244.8 -127.75 -244.8 -127.9 L-233.0 -126.75 -224.3 -125.15 -213.1 -123.05 Q-206.3 -121.6 -205.75 -121.8 -203.2 -122.2 -199.9 -127.1 -196.65 -132.05 -196.6 -134.05 -197.1 -140.75 -196.05 -146.0 -195.05 -151.25 -191.9 -155.45 L-186.45 -162.65 -179.2 -172.55 -171.45 -180.85 -166.35 -188.0 -165.0 -186.2 Q-161.25 -181.15 -158.8 -175.35 -154.6 -181.0 -147.65 -188.75 L-146.15 -189.55 Q-143.85 -184.8 -143.6 -183.5 -143.45 -182.8 -143.45 -178.1 -143.45 -171.45 -148.5 -162.75 -150.85 -158.65 -151.2 -145.7 -152.4 -138.95 -156.15 -132.9 -158.15 -129.7 -165.05 -122.0 L-165.3 -121.45 -166.8 -118.6 Q-169.7 -113.55 -173.7 -111.85 L-173.8 -111.8 -173.7 -111.5 Q-171.85 -111.25 -168.3 -109.55 -164.8 -107.9 -161.8 -108.05 -158.85 -108.2 -150.9 -105.45 L-150.4 -104.9 -146.3 -94.85 -146.9 -94.85 Q-155.45 -98.65 -160.9 -100.15 L-161.3 -100.25 -164.0 -100.25 Q-168.8 -97.7 -173.55 -96.75 L-183.2 -96.05 Q-188.1 -96.3 -193.55 -97.85 -199.0 -99.4 -204.4 -102.5 -209.8 -105.65 -213.2 -109.4 -216.6 -113.15 -226.45 -115.7 L-245.15 -117.25 -258.1 -117.5 Q-257.45 -118.05 -257.2 -118.8 L-256.75 -119.95 -256.0 -121.05 -253.2 -123.5 -253.55 -124.9 -264.9 -127.5 M-206.3 -121.2 L-205.75 -121.8 -206.3 -121.2 M-165.05 -122.0 Q-163.05 -126.6 -162.95 -130.75 -162.8 -136.45 -161.6 -139.8 L-158.45 -147.5 Q-155.7 -154.15 -155.35 -156.9 -155.05 -159.65 -155.4 -163.5 -155.75 -167.35 -158.25 -173.95 L-158.8 -175.35 -158.25 -173.95 Q-155.75 -167.35 -155.4 -163.5 -155.05 -159.65 -155.35 -156.9 -155.7 -154.15 -158.45 -147.5 L-161.6 -139.8 Q-162.8 -136.45 -162.95 -130.75 -163.05 -126.6 -165.05 -122.0 M-176.05 -111.15 L-173.8 -111.8 -176.05 -111.15" fill="#ffffff" fill-rule="evenodd" stroke="none"/>
    <path d="M-258.1 -117.5 L-259.75 -117.5 -259.8 -117.65 -258.6 -122.8 -260.2 -122.5 -260.8 -122.3 Q-261.4 -122.15 -261.8 -122.6 -263.35 -124.2 -265.2 -123.25 -265.55 -125.15 -265.1 -126.9 L-264.9 -127.5 -253.55 -124.9 -253.2 -123.5 -256.0 -121.05 -256.75 -119.95 -257.2 -118.8 Q-257.45 -118.05 -258.1 -117.5" fill="#000000" fill-rule="evenodd" stroke="none"/>
    <path d="M-259.95 -117.55 L-273.9 -117.7 Q-274.15 -118.45 -273.5 -119.05 -272.7 -119.7 -271.7 -120.15 L-265.2 -123.25 Q-263.35 -124.2 -261.8 -122.6 -261.4 -122.15 -260.8 -122.3 L-260.2 -122.5 -258.6 -122.8 -259.8 -117.65 -259.95 -117.55" fill="#ff9900" fill-rule="evenodd" stroke="none"/>
    <path d="M-264.9 -127.5 Q-263.5 -130.3 -259.25 -130.8 -255.1 -131.3 -249.9 -129.3 -246.15 -127.85 -245.15 -127.8 -244.8 -127.75 -244.8 -127.9 L-233.0 -126.75 -224.3 -125.15 -213.1 -123.05 Q-206.3 -121.6 -205.75 -121.8 -203.2 -122.2 -199.9 -127.1 -196.65 -132.05 -196.6 -134.05 -197.1 -140.75 -196.05 -146.0 -195.05 -151.25 -191.9 -155.45 L-186.45 -162.65 -179.2 -172.55 -171.45 -180.85 -166.35 -188.0 -165.0 -186.2 Q-161.25 -181.15 -158.8 -175.35 -154.6 -181.0 -147.65 -188.75 L-146.15 -189.55 Q-143.85 -184.8 -143.6 -183.5 -143.45 -182.8 -143.45 -178.1 -143.45 -171.45 -148.5 -162.75 -150.85 -158.65 -151.2 -145.7 -152.4 -138.95 -156.15 -132.9 -158.15 -129.7 -165.05 -122.0 L-165.3 -121.45 -166.8 -118.6 Q-169.7 -113.55 -173.7 -111.85 L-173.7 -111.5 Q-171.85 -111.25 -168.3 -109.55 -164.8 -107.9 -161.8 -108.05 -158.85 -108.2 -150.9 -105.45 L-150.4 -104.9 -146.3 -94.85 -146.9 -94.85 Q-155.45 -98.65 -160.9 -100.15 L-161.3 -100.25 -164.0 -100.25 Q-168.8 -97.7 -173.55 -96.75 L-183.2 -96.05 Q-188.1 -96.3 -193.55 -97.85 -199.0 -99.4 -204.4 -102.5 -209.8 -105.65 -213.2 -109.4 -216.6 -113.15 -226.45 -115.7 L-245.15 -117.25 -258.1 -117.5 -259.75 -117.5 -259.95 -117.55 -273.9 -117.7 Q-274.15 -118.45 -273.5 -119.05 -272.7 -119.7 -271.7 -120.15 L-265.2 -123.25 Q-265.55 -125.15 -265.1 -126.9 L-264.9 -127.5 M-205.75 -121.8 L-206.3 -121.2 M-173.7 -111.85 L-173.8 -111.8 -176.05 -111.15 M-158.8 -175.35 L-158.25 -173.95 Q-155.75 -167.35 -155.4 -163.5 -155.05 -159.65 -155.35 -156.9 -155.7 -154.15 -158.45 -147.5 L-161.6 -139.8 Q-162.8 -136.45 -162.95 -130.75 -163.05 -126.6 -165.05 -122.0" fill="none" stroke="#000000" stroke-linecap="round" stroke-linejoin="round" stroke-width="0.7000000000000001"/>
  </g>
</svg>
