<?xml version="1.0" encoding="UTF-8" standalone="no"?>
<svg xmlns:ffdec="https://www.free-decompiler.com/flash" xmlns:xlink="http://www.w3.org/1999/xlink" ffdec:objectType="shape" height="45.8px" width="131.75px" xmlns="http://www.w3.org/2000/svg">
  <g transform="matrix(1.0, 0.0, 0.0, 1.0, 278.7, 151.8)">
    <path d="M-262.5 -120.3 L-264.15 -120.3 -264.2 -120.45 -263.0 -125.6 -264.6 -125.3 -265.2 -125.1 Q-265.8 -124.95 -266.2 -125.4 -267.75 -127.0 -269.6 -126.05 -269.95 -127.95 -269.5 -129.7 L-269.3 -130.3 -257.95 -127.7 -257.6 -126.3 -260.4 -123.85 -261.15 -122.75 -261.6 -121.6 Q-261.85 -120.85 -262.5 -120.3" fill="#000000" fill-rule="evenodd" stroke="none"/>
    <path d="M-264.35 -120.35 L-278.3 -120.5 Q-278.55 -121.25 -277.9 -121.85 -277.1 -122.5 -276.1 -122.95 L-269.6 -126.05 Q-267.75 -127.0 -266.2 -125.4 -265.8 -124.95 -265.2 -125.1 L-264.6 -125.3 -263.0 -125.6 -264.2 -120.45 -264.35 -120.35" fill="#ff9900" fill-rule="evenodd" stroke="none"/>
    <path d="M-204.75 -113.7 L-237.75 -113.6 Q-233.95 -113.9 -223.95 -116.75 L-220.1 -117.95 Q-216.85 -119.05 -214.0 -120.35 -207.15 -123.4 -202.65 -127.45 -207.15 -123.4 -214.0 -120.35 -216.85 -119.05 -220.1 -117.95 -222.15 -121.25 -250.55 -120.05 L-262.5 -120.3 Q-261.85 -120.85 -261.6 -121.6 L-261.15 -122.75 -260.4 -123.85 -257.6 -126.3 -257.95 -127.7 -269.3 -130.3 Q-267.9 -133.1 -263.65 -133.6 -259.5 -134.1 -254.3 -132.1 -249.5 -130.25 -249.25 -130.45 L-202.65 -127.45 -202.3 -127.75 -200.45 -129.6 Q-193.1 -137.85 -193.1 -144.5 L-193.5 -151.45 Q-178.35 -151.35 -171.35 -145.7 -164.4 -140.15 -164.4 -129.4 -164.4 -121.55 -169.8 -118.5 L-170.35 -118.2 Q-174.05 -116.35 -177.85 -115.4 L-178.3 -115.25 -182.6 -114.5 -200.1 -113.7 -204.75 -113.7 -200.1 -113.7 -182.6 -114.5 -178.3 -115.25 -177.85 -115.4 Q-174.05 -116.35 -170.35 -118.2 L-169.8 -118.5 -165.15 -118.5 Q-150.45 -114.1 -147.7 -110.35 L-147.5 -110.1 Q-150.85 -106.95 -159.35 -106.85 -163.25 -109.85 -168.55 -112.4 L-171.6 -113.75 Q-172.15 -110.05 -173.2 -109.45 L-177.15 -107.6 Q-180.65 -106.05 -190.45 -106.4 -200.3 -106.8 -204.75 -113.7 M-177.85 -115.4 Q-175.35 -115.3 -171.6 -113.75 -175.35 -115.3 -177.85 -115.4" fill="#ffffff" fill-rule="evenodd" stroke="none"/>
    <path d="M-220.1 -117.95 L-223.95 -116.75 Q-233.95 -113.9 -237.75 -113.6 L-204.75 -113.7 -200.1 -113.7 -182.6 -114.5 -178.3 -115.25 -177.85 -115.4 Q-174.05 -116.35 -170.35 -118.2 L-169.8 -118.5 Q-164.4 -121.55 -164.4 -129.4 -164.4 -140.15 -171.35 -145.7 -178.35 -151.35 -193.5 -151.45 L-193.1 -144.5 Q-193.1 -137.85 -200.45 -129.6 L-202.3 -127.75 -202.65 -127.45 Q-207.15 -123.4 -214.0 -120.35 -216.85 -119.05 -220.1 -117.95 -222.15 -121.25 -250.55 -120.05 L-262.5 -120.3 -264.15 -120.3 -264.35 -120.35 -278.3 -120.5 Q-278.55 -121.25 -277.9 -121.85 -277.1 -122.5 -276.1 -122.95 L-269.6 -126.05 Q-269.95 -127.95 -269.5 -129.7 L-269.3 -130.3 Q-267.9 -133.1 -263.65 -133.6 -259.5 -134.1 -254.3 -132.1 -249.5 -130.25 -249.25 -130.45 L-202.65 -127.45 M-204.75 -113.7 Q-200.3 -106.8 -190.45 -106.4 -180.65 -106.05 -177.15 -107.6 L-173.2 -109.45 Q-172.15 -110.05 -171.6 -113.75 -175.35 -115.3 -177.85 -115.4 M-147.7 -110.35 Q-150.45 -114.1 -165.15 -118.5 L-169.8 -118.5 M-171.6 -113.75 L-168.55 -112.4 Q-163.25 -109.85 -159.35 -106.85 -150.85 -106.95 -147.5 -110.1 L-147.3 -110.35 -147.7 -110.35" fill="none" stroke="#000000" stroke-linecap="round" stroke-linejoin="round" stroke-width="0.7000000000000001"/>
  </g>
</svg>
