<?xml version="1.0" encoding="UTF-8" standalone="no"?>
<svg xmlns:ffdec="https://www.free-decompiler.com/flash" xmlns:xlink="http://www.w3.org/1999/xlink" ffdec:objectType="shape" height="27.35px" width="99.75px" xmlns="http://www.w3.org/2000/svg">
  <g transform="matrix(1.0, 0.0, 0.0, 1.0, 260.55, 198.5)">
    <path d="M-203.8 -181.45 L-207.4 -181.3 -213.8 -181.95 Q-215.15 -181.95 -219.8 -179.1 -224.45 -176.25 -229.45 -176.25 -233.55 -176.25 -234.2 -177.1 L-232.0 -178.9 Q-230.35 -180.4 -230.4 -182.5 L-230.4 -182.75 Q-230.3 -184.05 -230.7 -184.5 -231.1 -185.0 -232.6 -185.0 -234.55 -185.0 -235.65 -184.0 L-238.2 -181.1 -238.55 -180.65 Q-240.4 -182.5 -239.75 -185.45 L-239.7 -185.45 -230.9 -185.9 Q-229.5 -186.35 -227.15 -188.4 -226.75 -188.65 -225.75 -190.0 L-225.3 -190.55 -220.35 -189.75 Q-216.0 -189.15 -213.85 -191.25 -211.75 -193.4 -209.6 -193.15 L-206.75 -192.85 -207.6 -191.45 Q-210.05 -185.05 -203.8 -181.45" fill="#ff0000" fill-rule="evenodd" stroke="none"/>
    <path d="M-239.75 -185.45 L-241.1 -185.45 -241.1 -185.5 Q-245.7 -193.65 -250.55 -193.25 -250.9 -194.6 -249.85 -195.5 L-247.7 -197.0 Q-246.1 -198.5 -242.05 -198.5 -238.65 -198.5 -236.85 -197.75 L-231.95 -195.5 Q-229.8 -194.65 -226.7 -193.95 -224.7 -193.25 -224.7 -191.65 L-225.3 -190.55 -225.75 -190.0 Q-226.75 -188.65 -227.15 -188.4 -229.5 -186.35 -230.9 -185.9 L-239.7 -185.45 -239.75 -185.45" fill="#ffcc00" fill-rule="evenodd" stroke="none"/>
    <path d="M-206.75 -192.85 L-206.3 -192.8 -196.2 -191.35 Q-187.55 -189.85 -180.45 -190.0 L-170.85 -190.8 Q-168.35 -191.45 -167.0 -190.15 -165.65 -188.9 -162.45 -187.45 -159.25 -186.05 -162.2 -185.95 L-162.35 -185.85 -166.45 -186.7 -173.1 -187.05 Q-177.55 -186.85 -181.05 -185.65 -184.6 -184.5 -191.05 -183.75 L-200.2 -182.05 -203.8 -181.45 Q-210.05 -185.05 -207.6 -191.45 L-206.75 -192.85 M-234.2 -177.1 L-235.35 -176.05 Q-239.75 -171.15 -242.4 -171.15 -243.6 -171.15 -247.9 -172.7 L-252.8 -174.4 -257.35 -174.8 Q-260.55 -175.25 -260.55 -177.05 -260.55 -178.9 -255.7 -178.9 -254.5 -178.9 -249.85 -177.25 -245.2 -175.65 -244.1 -175.65 -242.7 -176.0 -240.9 -177.9 L-238.55 -180.65 -238.2 -181.1 -235.65 -184.0 Q-234.55 -185.0 -232.6 -185.0 -231.1 -185.0 -230.7 -184.5 -230.3 -184.05 -230.4 -182.75 L-230.4 -182.5 Q-230.35 -180.4 -232.0 -178.9 L-234.2 -177.1 M-241.2 -185.45 Q-242.8 -183.9 -245.0 -183.9 -247.25 -183.9 -248.3 -186.0 -248.7 -185.7 -249.8 -185.45 -250.65 -190.45 -250.55 -193.25 -245.7 -193.65 -241.1 -185.5 L-241.2 -185.45" fill="#ffcc99" fill-rule="evenodd" stroke="none"/>
    <path d="M-206.75 -192.85 L-206.3 -192.8 -196.2 -191.35 Q-187.55 -189.85 -180.45 -190.0 L-170.85 -190.8 Q-168.35 -191.45 -167.0 -190.15 -165.65 -188.9 -162.45 -187.45 -159.25 -186.05 -162.2 -185.95 L-162.35 -185.85 -166.45 -186.7 -173.1 -187.05 Q-177.55 -186.85 -181.05 -185.65 -184.6 -184.5 -191.05 -183.75 L-200.2 -182.05 -203.8 -181.45 -207.4 -181.3 -213.8 -181.95 Q-215.15 -181.95 -219.8 -179.1 -224.45 -176.25 -229.45 -176.25 -233.55 -176.25 -234.2 -177.1 L-235.35 -176.05 Q-239.75 -171.15 -242.4 -171.15 -243.6 -171.15 -247.9 -172.7 L-252.8 -174.4 -257.35 -174.8 Q-260.55 -175.25 -260.55 -177.05 -260.55 -178.9 -255.7 -178.9 -254.5 -178.9 -249.85 -177.25 -245.2 -175.65 -244.1 -175.65 -242.7 -176.0 -240.9 -177.9 L-238.55 -180.65 Q-240.4 -182.5 -239.75 -185.45 L-241.1 -185.45 -241.2 -185.45 Q-242.8 -183.9 -245.0 -183.9 -247.25 -183.9 -248.3 -186.0 -248.7 -185.7 -249.8 -185.45 -250.65 -190.45 -250.55 -193.25 -250.9 -194.6 -249.85 -195.5 L-247.7 -197.0 Q-246.1 -198.5 -242.05 -198.5 -238.65 -198.5 -236.85 -197.75 L-231.95 -195.5 Q-229.8 -194.65 -226.7 -193.95 -224.7 -193.25 -224.7 -191.65 L-225.3 -190.55 -220.35 -189.75 Q-216.0 -189.15 -213.85 -191.25 -211.75 -193.4 -209.6 -193.15 L-206.75 -192.85 -207.6 -191.45 Q-210.05 -185.05 -203.8 -181.45 M-225.3 -190.55 L-225.75 -190.0 Q-226.75 -188.65 -227.15 -188.4 -229.5 -186.35 -230.9 -185.9 L-239.7 -185.45 -239.75 -185.45 M-241.1 -185.45 L-241.1 -185.5 Q-245.7 -193.65 -250.55 -193.25 M-238.55 -180.65 L-238.2 -181.1 -235.65 -184.0 Q-234.55 -185.0 -232.6 -185.0 -231.1 -185.0 -230.7 -184.5 -230.3 -184.05 -230.4 -182.75 L-230.4 -182.5 Q-230.35 -180.4 -232.0 -178.9 L-234.2 -177.1" fill="none" stroke="#000000" stroke-linecap="round" stroke-linejoin="round" stroke-width="0.05"/>
  </g>
</svg>
