<?xml version="1.0" encoding="UTF-8" standalone="no"?>
<svg xmlns:ffdec="https://www.free-decompiler.com/flash" xmlns:xlink="http://www.w3.org/1999/xlink" ffdec:objectType="shape" height="27.65px" width="94.55px" xmlns="http://www.w3.org/2000/svg">
  <g transform="matrix(1.0, 0.0, 0.0, 1.0, 257.35, 198.35)">
    <path d="M-207.55 -193.05 Q-209.45 -191.55 -209.45 -188.5 -209.45 -185.45 -207.85 -183.9 -206.3 -182.35 -202.2 -181.3 L-210.1 -180.3 -210.45 -180.3 -216.65 -180.9 -218.4 -185.15 -219.15 -187.45 -219.85 -188.55 Q-220.35 -189.35 -221.15 -189.6 L-217.7 -189.65 Q-213.8 -192.95 -211.35 -193.0 L-207.55 -193.05 M-220.0 -179.1 Q-224.95 -176.05 -229.65 -176.15 -234.4 -176.25 -235.95 -177.35 L-237.35 -178.55 -238.55 -181.05 Q-239.5 -182.65 -239.3 -184.75 L-238.7 -184.75 -232.9 -185.5 -234.65 -184.5 Q-236.0 -183.6 -236.0 -182.95 -236.0 -180.5 -233.75 -180.45 L-229.8 -180.8 Q-228.05 -181.25 -226.1 -182.55 L-223.75 -183.95 Q-222.2 -182.5 -220.0 -179.1" fill="#ff0000" fill-rule="evenodd" stroke="none"/>
    <path d="M-239.3 -184.75 L-239.6 -184.75 Q-241.25 -184.8 -242.2 -186.1 -243.35 -188.45 -244.25 -189.65 -247.2 -193.45 -251.0 -192.9 L-251.05 -192.85 Q-250.95 -194.4 -248.8 -196.15 -246.2 -198.15 -243.0 -198.35 -239.8 -198.6 -235.0 -196.35 -230.2 -194.15 -227.75 -193.7 -225.35 -193.3 -226.7 -191.6 L-226.85 -191.4 Q-224.5 -190.55 -222.6 -190.55 L-222.8 -189.65 Q-224.35 -189.4 -227.0 -188.3 L-231.7 -186.15 -232.85 -185.55 -232.9 -185.5 -238.7 -184.75 -239.3 -184.75" fill="#ffcc00" fill-rule="evenodd" stroke="none"/>
    <path d="M-207.55 -193.05 L-204.4 -192.65 -195.0 -191.0 Q-189.2 -189.8 -180.95 -190.05 -172.7 -190.3 -170.85 -191.6 -169.1 -191.95 -168.3 -190.85 L-166.65 -188.6 -162.9 -185.4 Q-162.2 -184.0 -165.7 -185.25 -169.2 -186.5 -176.0 -186.5 -180.6 -186.5 -193.2 -183.35 L-202.2 -181.3 Q-206.3 -182.35 -207.85 -183.9 -209.45 -185.45 -209.45 -188.5 -209.45 -191.55 -207.55 -193.05 M-216.65 -180.9 L-216.35 -180.3 -213.55 -172.95 Q-212.9 -170.7 -214.25 -170.7 -215.65 -170.7 -216.55 -171.85 -217.45 -173.0 -217.55 -173.75 -218.0 -176.15 -219.2 -177.75 L-220.0 -179.1 Q-222.2 -182.5 -223.75 -183.95 L-226.1 -182.55 Q-228.05 -181.25 -229.8 -180.8 L-233.75 -180.45 Q-236.0 -180.5 -236.0 -182.95 -236.0 -183.6 -234.65 -184.5 L-232.9 -185.5 -231.7 -186.15 -227.0 -188.3 Q-224.35 -189.4 -222.8 -189.65 L-222.15 -189.7 -221.15 -189.6 Q-220.35 -189.35 -219.85 -188.55 L-219.15 -187.45 -218.4 -185.15 -216.65 -180.9 M-235.95 -177.35 Q-236.5 -176.15 -239.2 -173.65 -241.95 -171.15 -243.65 -171.3 -245.35 -171.45 -248.8 -173.65 -252.3 -175.85 -254.85 -175.5 -257.45 -175.15 -257.35 -176.25 -257.25 -177.4 -256.0 -177.85 L-250.35 -177.65 -245.0 -176.0 Q-244.3 -176.0 -238.55 -181.05 L-237.35 -178.55 -235.95 -177.35 M-239.6 -184.75 Q-241.9 -183.8 -243.1 -183.8 -244.15 -183.8 -245.05 -184.4 -246.4 -185.3 -247.25 -185.6 -247.95 -184.85 -248.75 -184.85 L-250.45 -188.7 Q-251.25 -190.85 -251.0 -192.45 L-251.0 -192.65 -251.0 -192.9 Q-247.2 -193.45 -244.25 -189.65 -243.35 -188.45 -242.2 -186.1 -241.25 -184.8 -239.6 -184.75" fill="#ffcc99" fill-rule="evenodd" stroke="none"/>
    <path d="M-202.2 -181.3 L-193.2 -183.35 Q-180.6 -186.5 -176.0 -186.5 -169.2 -186.5 -165.7 -185.25 -162.2 -184.0 -162.9 -185.4 L-166.65 -188.6 -168.3 -190.85 Q-169.1 -191.95 -170.85 -191.6 -172.7 -190.3 -180.95 -190.05 -189.2 -189.8 -195.0 -191.0 L-204.4 -192.65 -207.55 -193.05 Q-209.45 -191.55 -209.45 -188.5 -209.45 -185.45 -207.85 -183.9 -206.3 -182.35 -202.2 -181.3 L-210.1 -180.3 -210.45 -180.3 -216.65 -180.9 -216.35 -180.3 -213.55 -172.95 Q-212.9 -170.7 -214.25 -170.7 -215.65 -170.7 -216.55 -171.85 -217.45 -173.0 -217.55 -173.75 -218.0 -176.15 -219.2 -177.75 L-220.0 -179.1 Q-224.95 -176.05 -229.65 -176.15 -234.4 -176.25 -235.95 -177.35 -236.5 -176.15 -239.2 -173.65 -241.95 -171.15 -243.65 -171.3 -245.35 -171.45 -248.8 -173.65 -252.3 -175.85 -254.85 -175.5 -257.45 -175.15 -257.35 -176.25 -257.25 -177.4 -256.0 -177.85 L-250.35 -177.65 -245.0 -176.0 Q-244.3 -176.0 -238.55 -181.05 -239.5 -182.65 -239.3 -184.75 L-239.6 -184.75 Q-241.9 -183.8 -243.1 -183.8 -244.15 -183.8 -245.05 -184.4 -246.4 -185.3 -247.25 -185.6 -247.95 -184.85 -248.75 -184.85 L-250.45 -188.7 Q-251.25 -190.85 -251.0 -192.45 L-251.05 -192.65 -251.05 -192.85 Q-250.95 -194.4 -248.8 -196.15 -246.2 -198.15 -243.0 -198.35 -239.8 -198.6 -235.0 -196.35 -230.2 -194.15 -227.75 -193.7 -225.35 -193.3 -226.7 -191.6 L-226.85 -191.4 Q-224.5 -190.55 -222.6 -190.55 L-222.8 -189.65 -222.15 -189.7 -221.15 -189.6 -217.7 -189.65 Q-213.8 -192.95 -211.35 -193.0 L-207.55 -193.05 M-221.15 -189.6 Q-220.35 -189.35 -219.85 -188.55 L-219.15 -187.45 -218.4 -185.15 -216.65 -180.9 M-222.8 -189.65 Q-224.35 -189.4 -227.0 -188.3 L-231.7 -186.15 -232.9 -185.5 -234.65 -184.5 Q-236.0 -183.6 -236.0 -182.95 -236.0 -180.5 -233.75 -180.45 L-229.8 -180.8 Q-228.05 -181.25 -226.1 -182.55 L-223.75 -183.95 Q-222.2 -182.5 -220.0 -179.1 M-239.3 -184.75 L-238.7 -184.75 -232.9 -185.5 -232.85 -185.55 -231.7 -186.15 M-238.55 -181.05 L-237.35 -178.55 -235.95 -177.35 M-251.0 -192.9 Q-247.2 -193.45 -244.25 -189.65 -243.35 -188.45 -242.2 -186.1 -241.25 -184.8 -239.6 -184.75 M-251.0 -192.45 L-251.0 -192.65 -251.0 -192.9" fill="none" stroke="#000000" stroke-linecap="round" stroke-linejoin="round" stroke-width="0.05"/>
  </g>
</svg>
