<?xml version="1.0" encoding="UTF-8" standalone="no"?>
<svg xmlns:ffdec="https://www.free-decompiler.com/flash" xmlns:xlink="http://www.w3.org/1999/xlink" ffdec:objectType="shape" height="22.25px" width="98.25px" xmlns="http://www.w3.org/2000/svg">
  <g transform="matrix(1.0, 0.0, 0.0, 1.0, 260.25, 198.3)">
    <path d="M-203.45 -181.2 Q-208.8 -180.45 -214.8 -180.9 -216.4 -181.0 -217.45 -180.0 -218.9 -178.65 -220.1 -178.25 L-223.8 -176.8 -227.55 -176.1 Q-230.15 -175.75 -233.45 -177.3 -236.7 -178.85 -238.25 -183.0 L-238.1 -183.1 -234.4 -179.9 Q-233.3 -179.0 -231.45 -179.0 -229.65 -179.05 -229.75 -180.55 -229.95 -182.1 -231.1 -183.55 L-233.9 -186.4 -234.3 -186.75 Q-229.95 -186.15 -227.3 -187.75 -225.7 -188.65 -225.0 -189.95 L-221.7 -189.55 -217.2 -189.35 Q-217.1 -189.95 -215.1 -191.3 -213.1 -192.65 -210.6 -192.65 L-208.35 -192.5 Q-210.2 -192.65 -210.2 -189.1 -210.2 -186.05 -207.65 -183.6 -205.45 -181.45 -203.45 -181.2" fill="#ff0000" fill-rule="evenodd" stroke="none"/>
    <path d="M-250.6 -191.25 L-250.85 -193.4 Q-250.85 -195.4 -248.95 -196.9 -247.15 -198.3 -244.85 -198.3 -242.2 -198.3 -237.2 -196.2 -232.25 -194.15 -229.7 -194.15 -227.65 -194.15 -227.1 -194.55 L-226.95 -194.5 -227.9 -192.05 -224.45 -192.15 Q-224.5 -190.95 -225.0 -189.95 -225.7 -188.65 -227.3 -187.75 -229.95 -186.15 -234.3 -186.75 L-238.65 -191.05 Q-241.75 -194.3 -243.7 -194.3 -245.7 -194.3 -249.0 -192.2 L-250.6 -191.25" fill="#ffcc00" fill-rule="evenodd" stroke="none"/>
    <path d="M-184.6 -186.9 L-172.5 -186.9 Q-172.3 -187.35 -171.0 -187.75 L-169.7 -188.0 -166.1 -186.65 -164.15 -186.4 -162.0 -185.9 Q-162.05 -185.55 -162.65 -185.0 L-167.75 -184.75 -173.75 -184.4 -181.4 -183.35 Q-182.8 -183.05 -185.6 -181.95 L-190.45 -181.5 -199.8 -181.85 Q-195.75 -182.75 -186.9 -186.15 L-184.6 -186.9 -186.9 -186.15 Q-195.75 -182.75 -199.8 -181.85 L-199.85 -181.85 -203.45 -181.2 Q-205.45 -181.45 -207.65 -183.6 -210.2 -186.05 -210.2 -189.1 -210.2 -192.65 -208.35 -192.5 L-200.1 -191.35 -189.7 -190.1 Q-186.45 -190.1 -183.0 -191.15 -179.55 -192.25 -177.25 -192.5 -174.95 -192.75 -174.35 -193.3 -173.8 -193.9 -173.15 -193.6 -172.5 -193.35 -169.0 -191.55 -165.7 -189.7 -165.5 -188.9 L-166.65 -188.45 Q-167.4 -188.2 -171.3 -189.9 L-175.4 -189.2 Q-177.8 -189.2 -180.75 -188.2 L-184.6 -186.9 M-238.35 -183.3 L-241.25 -185.95 Q-241.6 -185.4 -244.05 -185.45 -246.5 -185.55 -247.75 -186.35 -249.0 -187.2 -249.0 -187.55 L-254.7 -186.15 Q-257.8 -184.25 -259.6 -185.6 -261.45 -187.0 -258.05 -187.95 -254.7 -188.9 -253.3 -189.7 L-250.6 -191.25 -249.0 -192.2 Q-245.7 -194.3 -243.7 -194.3 -241.75 -194.3 -238.65 -191.05 L-234.3 -186.75 -233.9 -186.4 -231.1 -183.55 Q-229.95 -182.1 -229.75 -180.55 -229.65 -179.05 -231.45 -179.0 -233.3 -179.0 -234.4 -179.9 L-238.1 -183.1 -238.35 -183.3 M-241.25 -185.95 L-244.05 -188.8 -249.0 -187.55 -244.05 -188.8 -241.25 -185.95" fill="#ffcc99" fill-rule="evenodd" stroke="none"/>
    <path d="M-199.8 -181.85 L-190.45 -181.5 -185.6 -181.95 Q-182.8 -183.05 -181.4 -183.35 L-173.75 -184.4 -167.75 -184.75 -162.65 -185.0 Q-162.05 -185.55 -162.0 -185.9 L-164.15 -186.4 -166.1 -186.65 -169.7 -188.0 -171.0 -187.75 Q-172.3 -187.35 -172.5 -186.9 L-184.6 -186.9 -186.9 -186.15 Q-195.75 -182.75 -199.8 -181.85 L-199.85 -181.85 -203.45 -181.2 Q-208.8 -180.45 -214.8 -180.9 -216.4 -181.0 -217.45 -180.0 -218.9 -178.65 -220.1 -178.25 L-223.8 -176.8 -227.55 -176.1 Q-230.15 -175.75 -233.45 -177.3 -236.7 -178.85 -238.25 -183.0 L-238.35 -183.3 -241.25 -185.95 Q-241.6 -185.4 -244.05 -185.45 -246.5 -185.55 -247.75 -186.35 -249.0 -187.2 -249.0 -187.55 L-254.7 -186.15 Q-257.8 -184.25 -259.6 -185.6 -261.45 -187.0 -258.05 -187.95 -254.7 -188.9 -253.3 -189.7 L-250.6 -191.25 -250.85 -193.4 Q-250.85 -195.4 -248.95 -196.9 -247.15 -198.3 -244.85 -198.3 -242.2 -198.3 -237.2 -196.2 -232.25 -194.15 -229.7 -194.15 -227.65 -194.15 -227.1 -194.55 L-226.95 -194.55 -226.95 -194.5 -227.9 -192.05 -224.45 -192.15 Q-224.5 -190.95 -225.0 -189.95 L-221.7 -189.55 -217.2 -189.35 Q-217.1 -189.95 -215.1 -191.3 -213.1 -192.65 -210.6 -192.65 L-208.35 -192.5 -200.1 -191.35 -189.7 -190.1 Q-186.45 -190.1 -183.0 -191.15 -179.55 -192.25 -177.25 -192.5 -174.95 -192.75 -174.35 -193.3 -173.8 -193.9 -173.15 -193.6 -172.5 -193.35 -169.0 -191.55 -165.7 -189.7 -165.5 -188.9 L-166.65 -188.45 Q-167.4 -188.2 -171.3 -189.9 L-175.4 -189.2 Q-177.8 -189.2 -180.75 -188.2 L-184.6 -186.9 M-208.35 -192.5 Q-210.2 -192.65 -210.2 -189.1 -210.2 -186.05 -207.65 -183.6 -205.45 -181.45 -203.45 -181.2 M-225.0 -189.95 Q-225.7 -188.65 -227.3 -187.75 -229.95 -186.15 -234.3 -186.75 L-233.9 -186.4 -231.1 -183.55 Q-229.95 -182.1 -229.75 -180.55 -229.65 -179.05 -231.45 -179.0 -233.3 -179.0 -234.4 -179.9 L-238.1 -183.1 -238.35 -183.3 M-250.6 -191.25 L-249.0 -192.2 Q-245.7 -194.3 -243.7 -194.3 -241.75 -194.3 -238.65 -191.05 L-234.3 -186.75 M-249.0 -187.55 L-244.05 -188.8 -241.25 -185.95" fill="none" stroke="#000000" stroke-linecap="round" stroke-linejoin="round" stroke-width="0.05"/>
  </g>
</svg>
