<?xml version="1.0" encoding="UTF-8" standalone="no"?>
<svg xmlns:ffdec="https://www.free-decompiler.com/flash" xmlns:xlink="http://www.w3.org/1999/xlink" ffdec:objectType="shape" height="22.95px" width="98.75px" xmlns="http://www.w3.org/2000/svg">
  <g transform="matrix(1.0, 0.0, 0.0, 1.0, 260.15, 198.65)">
    <path d="M-207.25 -192.7 L-206.4 -192.65 Q-201.55 -192.3 -195.05 -190.45 L-191.6 -189.45 -187.05 -191.05 Q-184.1 -191.95 -181.85 -191.55 -179.65 -191.2 -176.85 -192.35 -174.1 -193.55 -172.7 -193.5 -171.35 -193.45 -169.6 -192.4 L-166.05 -190.4 Q-165.0 -189.85 -165.15 -189.15 L-168.2 -189.2 Q-171.55 -189.95 -173.4 -189.2 L-176.8 -187.85 -176.9 -187.85 -176.85 -187.8 -176.75 -187.8 Q-175.55 -187.35 -173.95 -187.2 L-171.15 -187.15 -168.95 -187.4 Q-167.95 -187.65 -166.0 -186.55 -164.05 -185.5 -161.95 -183.45 -159.9 -181.45 -165.3 -183.0 -170.75 -184.6 -182.5 -183.2 L-196.3 -181.3 -203.55 -180.65 -204.1 -180.65 Q-206.2 -181.3 -208.2 -183.3 -209.9 -185.0 -209.9 -188.0 -209.9 -190.1 -209.05 -191.2 L-207.25 -192.7 M-211.75 -180.7 L-211.65 -180.6 -211.6 -180.55 Q-209.5 -178.65 -209.85 -177.4 -210.25 -176.2 -212.3 -176.15 -213.6 -176.15 -216.75 -179.55 L-221.6 -185.3 -222.65 -185.3 -226.95 -182.6 Q-229.95 -179.6 -232.45 -179.6 -235.35 -179.6 -235.35 -182.25 -235.35 -183.85 -233.8 -184.4 -233.55 -184.35 -231.55 -185.6 -230.35 -186.3 -228.7 -187.35 L-227.5 -188.0 Q-223.1 -190.55 -221.6 -190.55 -220.05 -190.55 -218.15 -188.55 L-216.5 -186.5 Q-214.35 -183.35 -212.55 -181.5 L-211.75 -180.7 M-239.85 -185.6 Q-241.15 -184.1 -244.2 -184.1 L-246.15 -184.45 -248.25 -185.9 -249.95 -185.6 -250.3 -189.15 Q-253.45 -188.5 -255.35 -187.15 -256.75 -186.2 -259.3 -186.2 -260.05 -186.2 -260.15 -186.45 L-260.15 -187.55 Q-260.15 -189.75 -250.35 -192.7 L-250.35 -192.65 -250.1 -192.6 Q-245.2 -192.2 -242.3 -187.65 -241.45 -186.3 -239.9 -185.8 L-239.85 -185.6 M-191.6 -189.45 L-186.85 -188.15 -181.2 -188.4 -176.9 -187.85 -181.2 -188.4 -186.85 -188.15 -191.6 -189.45 M-250.3 -189.15 L-250.5 -190.75 -250.35 -192.65 -250.5 -190.75 -250.3 -189.15" fill="#ffcc99" fill-rule="evenodd" stroke="none"/>
    <path d="M-250.35 -192.7 L-250.25 -193.65 Q-250.05 -195.75 -247.9 -197.15 -245.75 -198.55 -242.95 -198.65 -240.2 -198.75 -238.4 -197.8 -236.6 -196.85 -234.0 -195.95 -231.45 -195.05 -227.15 -196.05 -227.2 -195.65 -228.0 -194.65 -228.8 -193.65 -229.2 -193.55 -228.9 -192.95 -226.55 -192.9 -226.85 -191.9 -228.8 -190.4 L-226.4 -189.9 -227.5 -188.0 -228.7 -187.35 Q-230.35 -186.3 -231.55 -185.6 L-237.95 -185.55 -239.85 -185.8 -239.9 -185.8 Q-241.45 -186.3 -242.3 -187.65 -245.2 -192.2 -250.1 -192.6 L-250.35 -192.7" fill="#996633" fill-rule="evenodd" stroke="none"/>
    <path d="M-204.1 -180.65 Q-209.6 -180.3 -211.6 -180.65 L-211.75 -180.7 -212.55 -181.5 Q-214.35 -183.35 -216.5 -186.5 L-218.15 -188.55 -218.15 -188.6 -213.8 -191.35 Q-211.5 -192.9 -207.25 -192.7 L-209.05 -191.2 Q-209.9 -190.1 -209.9 -188.0 -209.9 -185.0 -208.2 -183.3 -206.2 -181.3 -204.1 -180.65 M-216.75 -179.55 L-222.0 -177.2 -227.1 -175.9 -228.85 -175.7 -230.7 -175.75 Q-231.95 -175.85 -233.6 -176.65 -235.25 -177.5 -237.0 -179.5 -238.7 -181.45 -239.85 -185.6 L-239.85 -185.8 -237.95 -185.55 -231.55 -185.6 Q-233.55 -184.35 -233.8 -184.4 -235.35 -183.85 -235.35 -182.25 -235.35 -179.6 -232.45 -179.6 -229.95 -179.6 -226.95 -182.6 L-222.65 -185.3 -221.6 -185.3 -216.75 -179.55" fill="#000000" fill-rule="evenodd" stroke="none"/>
    <path d="M-207.25 -192.7 L-206.4 -192.65 Q-201.55 -192.3 -195.05 -190.45 L-191.6 -189.45 -187.05 -191.05 Q-184.1 -191.95 -181.85 -191.55 -179.65 -191.2 -176.85 -192.35 -174.1 -193.55 -172.7 -193.5 -171.35 -193.45 -169.6 -192.4 L-166.05 -190.4 Q-165.0 -189.85 -165.15 -189.15 L-168.2 -189.2 Q-171.55 -189.95 -173.4 -189.2 L-176.8 -187.85 -176.9 -187.85 -176.85 -187.8 -176.75 -187.8 Q-175.55 -187.35 -173.95 -187.2 L-171.15 -187.15 -168.95 -187.4 Q-167.95 -187.65 -166.0 -186.55 -164.05 -185.5 -161.95 -183.45 -159.9 -181.45 -165.3 -183.0 -170.75 -184.6 -182.5 -183.2 L-196.3 -181.3 -203.55 -180.65 -204.1 -180.65 Q-209.6 -180.3 -211.6 -180.65 L-211.75 -180.7 -211.65 -180.6 -211.6 -180.55 Q-209.5 -178.65 -209.85 -177.4 -210.25 -176.2 -212.3 -176.15 -213.6 -176.15 -216.75 -179.55 L-222.0 -177.2 -227.1 -175.9 -228.85 -175.7 -230.7 -175.75 Q-231.95 -175.85 -233.6 -176.65 -235.25 -177.5 -237.0 -179.5 -238.7 -181.45 -239.85 -185.6 -241.15 -184.1 -244.2 -184.1 L-246.15 -184.45 -248.25 -185.9 -249.95 -185.6 -250.3 -189.15 Q-253.45 -188.5 -255.35 -187.15 -256.75 -186.2 -259.3 -186.2 -260.05 -186.2 -260.15 -186.45 L-260.15 -187.55 Q-260.15 -189.75 -250.35 -192.7 L-250.25 -193.65 Q-250.05 -195.75 -247.9 -197.15 -245.75 -198.55 -242.95 -198.65 -240.2 -198.75 -238.4 -197.8 -236.6 -196.85 -234.0 -195.95 -231.45 -195.05 -227.15 -196.05 -227.2 -195.65 -228.0 -194.65 -228.8 -193.65 -229.2 -193.55 -228.9 -192.95 -226.55 -192.9 -226.85 -191.9 -228.8 -190.4 L-226.4 -189.9 -227.5 -188.0 Q-223.1 -190.55 -221.6 -190.55 -220.05 -190.55 -218.15 -188.55 L-218.15 -188.6 -213.8 -191.35 Q-211.5 -192.9 -207.25 -192.7 L-209.05 -191.2 Q-209.9 -190.1 -209.9 -188.0 -209.9 -185.0 -208.2 -183.3 -206.2 -181.3 -204.1 -180.65 M-176.9 -187.85 L-181.2 -188.4 -186.85 -188.15 -191.6 -189.45 M-211.75 -180.7 L-212.55 -181.5 Q-214.35 -183.35 -216.5 -186.5 L-218.15 -188.55 M-231.55 -185.6 Q-233.55 -184.35 -233.8 -184.4 -235.35 -183.85 -235.35 -182.25 -235.35 -179.6 -232.45 -179.6 -229.95 -179.6 -226.95 -182.6 L-222.65 -185.3 -221.6 -185.3 -216.75 -179.55 M-227.5 -188.0 L-228.7 -187.35 Q-230.35 -186.3 -231.55 -185.6 L-237.95 -185.55 -239.85 -185.8 -239.9 -185.8 Q-241.45 -186.3 -242.3 -187.65 -245.2 -192.2 -250.1 -192.6 L-250.35 -192.65 -250.5 -190.75 -250.3 -189.15 M-239.85 -185.6 L-239.9 -185.8 M-250.1 -192.6 L-250.35 -192.7 -250.35 -192.65" fill="none" stroke="#000000" stroke-linecap="round" stroke-linejoin="round" stroke-width="0.05"/>
  </g>
</svg>
