<?xml version="1.0" encoding="UTF-8" standalone="no"?>
<svg xmlns:ffdec="https://www.free-decompiler.com/flash" xmlns:xlink="http://www.w3.org/1999/xlink" ffdec:objectType="shape" height="22.95px" width="105.6px" xmlns="http://www.w3.org/2000/svg">
  <g transform="matrix(1.0, 0.0, 0.0, 1.0, 268.5, 198.45)">
    <path d="M-206.05 -192.95 Q-201.5 -192.55 -195.95 -191.0 -190.0 -189.35 -186.8 -189.3 L-178.55 -189.75 Q-173.45 -190.3 -172.8 -190.8 -172.15 -191.3 -171.05 -191.3 -169.95 -191.35 -166.45 -189.05 -162.9 -186.7 -162.9 -186.0 -162.9 -185.35 -164.3 -185.75 L-172.45 -186.35 Q-176.65 -186.35 -183.5 -184.95 L-191.55 -183.35 -195.25 -182.85 -200.35 -182.2 -203.5 -181.7 -204.4 -181.55 Q-205.05 -181.55 -206.55 -183.25 -208.05 -185.0 -208.45 -187.25 -208.85 -189.5 -208.15 -190.7 -207.45 -191.9 -206.05 -192.95 M-211.55 -180.65 Q-209.3 -177.75 -209.3 -176.8 -209.3 -175.5 -210.8 -175.5 -213.5 -175.5 -215.6 -179.45 L-215.7 -179.6 Q-216.3 -180.8 -218.25 -182.35 L-221.9 -185.15 Q-222.1 -184.05 -226.0 -181.7 -230.15 -179.15 -232.8 -179.15 -235.35 -179.15 -235.35 -181.7 L-234.8 -183.0 Q-234.3 -184.4 -230.2 -186.85 L-229.9 -187.05 -229.55 -187.25 -224.6 -189.5 -221.25 -190.1 Q-220.6 -190.1 -219.3 -189.05 -217.5 -187.6 -214.45 -184.1 L-211.55 -180.65 M-238.05 -180.3 Q-254.25 -179.95 -258.1 -180.45 -261.95 -180.95 -263.5 -180.4 -265.1 -179.9 -266.2 -179.9 -268.5 -179.9 -268.5 -181.2 -268.5 -182.45 -266.85 -182.8 L-264.65 -183.15 -253.3 -184.4 Q-246.35 -184.95 -246.5 -185.4 L-246.9 -185.8 Q-247.45 -185.3 -248.25 -185.25 L-249.4 -188.05 Q-250.4 -190.55 -250.45 -191.8 L-250.4 -192.75 Q-246.7 -193.9 -242.75 -189.5 -240.55 -187.05 -238.65 -186.0 L-239.8 -185.4 Q-239.1 -182.35 -238.05 -180.3 M-246.5 -185.4 Q-244.05 -183.1 -239.8 -185.4 -244.05 -183.1 -246.5 -185.4" fill="#ffcc99" fill-rule="evenodd" stroke="none"/>
    <path d="M-250.4 -192.75 L-250.4 -194.35 Q-246.6 -199.9 -240.4 -197.9 -234.2 -195.9 -231.85 -195.45 L-226.95 -195.35 -228.05 -194.1 Q-228.55 -193.3 -229.35 -193.05 -228.0 -192.3 -225.65 -193.1 -226.3 -191.4 -226.95 -190.85 L-223.7 -190.85 -224.6 -189.5 -229.55 -187.25 -229.9 -187.05 -230.2 -186.85 Q-231.45 -186.55 -232.35 -185.95 -233.25 -185.35 -236.0 -185.25 -237.25 -185.2 -238.65 -186.0 -240.55 -187.05 -242.75 -189.5 -246.7 -193.9 -250.4 -192.75" fill="#996633" fill-rule="evenodd" stroke="none"/>
    <path d="M-204.4 -181.55 Q-207.15 -180.75 -211.55 -180.65 L-214.45 -184.1 Q-217.5 -187.6 -219.3 -189.05 -217.05 -189.25 -214.35 -191.35 -211.65 -193.45 -206.8 -193.05 L-206.05 -192.95 Q-207.45 -191.9 -208.15 -190.7 -208.85 -189.5 -208.45 -187.25 -208.05 -185.0 -206.55 -183.25 -205.05 -181.55 -204.4 -181.55 M-215.65 -179.45 Q-216.6 -179.3 -217.75 -178.65 -219.75 -177.55 -220.7 -177.2 L-224.3 -175.9 -228.45 -175.5 Q-233.45 -175.5 -235.7 -177.2 -237.05 -178.25 -238.05 -180.3 -239.1 -182.35 -239.8 -185.4 L-238.65 -186.0 Q-237.25 -185.2 -236.0 -185.25 -233.25 -185.35 -232.35 -185.95 -231.45 -186.55 -230.2 -186.85 -234.3 -184.4 -234.8 -183.0 L-235.35 -181.7 Q-235.35 -179.15 -232.8 -179.15 -230.15 -179.15 -226.0 -181.7 -222.1 -184.05 -221.9 -185.15 L-218.25 -182.35 Q-216.3 -180.8 -215.7 -179.6 L-215.65 -179.45" fill="#000000" fill-rule="evenodd" stroke="none"/>
    <path d="M-206.05 -192.95 Q-201.5 -192.55 -195.95 -191.0 -190.0 -189.35 -186.8 -189.3 L-178.55 -189.75 Q-173.45 -190.3 -172.8 -190.8 -172.15 -191.3 -171.05 -191.3 -169.95 -191.35 -166.45 -189.05 -162.9 -186.7 -162.9 -186.0 -162.9 -185.35 -164.3 -185.75 L-172.45 -186.35 Q-176.65 -186.35 -183.5 -184.95 L-191.55 -183.35 -195.25 -182.85 -200.35 -182.2 -203.5 -181.7 -204.4 -181.55 Q-207.15 -180.75 -211.55 -180.65 -209.3 -177.75 -209.3 -176.8 -209.3 -175.5 -210.8 -175.5 -213.5 -175.5 -215.6 -179.45 L-215.65 -179.45 Q-216.6 -179.3 -217.75 -178.65 -219.75 -177.55 -220.7 -177.2 L-224.3 -175.9 -228.45 -175.5 Q-233.45 -175.5 -235.7 -177.2 -237.05 -178.25 -238.05 -180.3 -254.25 -179.95 -258.1 -180.45 -261.95 -180.95 -263.5 -180.4 -265.1 -179.9 -266.2 -179.9 -268.5 -179.9 -268.5 -181.2 -268.5 -182.45 -266.85 -182.8 L-264.65 -183.15 -253.3 -184.4 Q-246.35 -184.95 -246.5 -185.4 L-246.9 -185.8 Q-247.45 -185.3 -248.25 -185.25 L-249.4 -188.05 Q-250.4 -190.55 -250.45 -191.8 L-250.4 -192.75 -250.4 -194.35 Q-246.6 -199.9 -240.4 -197.9 -234.2 -195.9 -231.85 -195.45 L-226.95 -195.35 -228.05 -194.1 Q-228.55 -193.3 -229.35 -193.05 -228.0 -192.3 -225.65 -193.1 -226.3 -191.4 -226.95 -190.85 L-223.7 -190.85 -224.6 -189.5 -221.25 -190.1 Q-220.6 -190.1 -219.3 -189.05 -217.05 -189.25 -214.35 -191.35 -211.65 -193.45 -206.8 -193.05 L-206.05 -192.95 Q-207.45 -191.9 -208.15 -190.7 -208.85 -189.5 -208.45 -187.25 -208.05 -185.0 -206.55 -183.25 -205.05 -181.55 -204.4 -181.55 M-215.7 -179.6 Q-216.3 -180.8 -218.25 -182.35 L-221.9 -185.15 Q-222.1 -184.05 -226.0 -181.7 -230.15 -179.15 -232.8 -179.15 -235.35 -179.15 -235.35 -181.7 L-234.8 -183.0 Q-234.3 -184.4 -230.2 -186.85 -231.45 -186.55 -232.35 -185.95 -233.25 -185.35 -236.0 -185.25 -237.25 -185.2 -238.65 -186.0 L-239.8 -185.4 Q-239.1 -182.35 -238.05 -180.3 M-215.7 -179.6 L-215.6 -179.45 M-211.55 -180.65 L-214.45 -184.1 Q-217.5 -187.6 -219.3 -189.05 M-230.2 -186.85 L-229.9 -187.05 -229.55 -187.25 -224.6 -189.5 M-238.65 -186.0 Q-240.55 -187.05 -242.75 -189.5 -246.7 -193.9 -250.4 -192.75 M-239.8 -185.4 Q-244.05 -183.1 -246.5 -185.4" fill="none" stroke="#000000" stroke-linecap="round" stroke-linejoin="round" stroke-width="0.05"/>
  </g>
</svg>
