<?xml version="1.0" encoding="UTF-8" standalone="no"?>
<svg xmlns:ffdec="https://www.free-decompiler.com/flash" xmlns:xlink="http://www.w3.org/1999/xlink" ffdec:objectType="shape" height="27.75px" width="94.85px" xmlns="http://www.w3.org/2000/svg">
  <g transform="matrix(1.0, 0.0, 0.0, 1.0, 257.35, 198.45)">
    <path d="M-207.65 -193.05 L-207.6 -193.05 -207.65 -192.95 -207.65 -193.05" fill="#ff0000" fill-rule="evenodd" stroke="none"/>
    <path d="M-251.05 -192.85 L-251.05 -192.9 -251.0 -192.9 -251.05 -192.85" fill="#ffcc00" fill-rule="evenodd" stroke="none"/>
    <path d="M-207.65 -192.95 L-205.35 -192.8 -192.45 -190.95 Q-188.8 -190.55 -172.95 -193.15 -170.9 -193.95 -166.15 -190.1 L-165.1 -189.1 Q-165.15 -188.25 -168.2 -189.35 -170.15 -190.1 -173.0 -190.1 -175.15 -190.1 -181.9 -187.6 L-183.7 -186.9 -176.15 -186.95 Q-174.25 -186.8 -172.5 -187.45 L-169.6 -188.15 Q-168.65 -188.15 -165.8 -186.7 -163.05 -185.35 -162.5 -184.65 L-168.45 -184.9 -168.85 -185.0 -169.05 -184.95 -178.4 -183.65 Q-187.75 -181.15 -194.4 -181.35 L-195.0 -181.4 -195.2 -181.4 -200.8 -181.6 -201.2 -181.5 -202.3 -181.3 Q-206.3 -182.35 -207.85 -183.9 -209.45 -185.45 -209.45 -188.5 -209.45 -191.5 -207.65 -192.95 M-216.65 -180.9 L-216.35 -180.3 -213.55 -172.95 Q-212.9 -170.7 -214.25 -170.7 -215.65 -170.7 -216.55 -171.85 -217.45 -173.0 -217.55 -173.75 -218.0 -176.15 -219.2 -177.75 L-220.0 -179.1 Q-222.2 -182.5 -223.75 -183.95 L-226.1 -182.55 Q-228.05 -181.25 -229.8 -180.8 L-233.75 -180.45 Q-236.0 -180.5 -236.0 -182.95 -236.0 -183.6 -234.65 -184.5 L-232.9 -185.5 -231.7 -186.15 -227.0 -188.3 Q-224.35 -189.4 -222.8 -189.65 L-222.15 -189.7 -221.15 -189.6 Q-220.35 -189.35 -219.85 -188.55 L-219.15 -187.45 -218.4 -185.15 -216.65 -180.9 M-235.95 -177.35 Q-236.5 -176.15 -239.2 -173.65 -241.95 -171.15 -243.65 -171.3 -245.35 -171.45 -248.8 -173.65 -252.3 -175.85 -254.85 -175.5 -257.45 -175.15 -257.35 -176.25 -257.25 -177.4 -256.0 -177.85 L-250.35 -177.65 -245.0 -176.0 Q-244.3 -176.0 -238.55 -181.05 L-237.35 -178.55 -235.95 -177.35 M-239.6 -184.75 Q-241.9 -183.8 -243.1 -183.8 -244.15 -183.8 -245.05 -184.4 -246.4 -185.3 -247.25 -185.6 -247.95 -184.85 -248.75 -184.85 L-250.45 -188.7 Q-251.25 -190.85 -251.0 -192.45 L-251.0 -192.65 -251.0 -192.9 Q-247.2 -193.45 -244.25 -189.65 -243.35 -188.45 -242.2 -186.1 -241.25 -184.8 -239.6 -184.75 M-200.8 -181.6 Q-197.85 -182.65 -196.45 -183.45 -194.95 -184.35 -191.6 -184.75 -188.8 -185.1 -183.7 -186.9 -188.8 -185.1 -191.6 -184.75 -194.95 -184.35 -196.45 -183.45 -197.85 -182.65 -200.8 -181.6" fill="#ffcc99" fill-rule="evenodd" stroke="none"/>
    <path d="M-239.3 -184.75 L-239.6 -184.75 Q-241.25 -184.8 -242.2 -186.1 -243.35 -188.45 -244.25 -189.65 -247.2 -193.45 -251.0 -192.9 L-251.05 -192.9 Q-250.95 -194.45 -248.8 -196.15 -246.2 -198.15 -243.0 -198.35 -239.8 -198.6 -235.0 -196.35 -230.2 -194.15 -227.75 -193.7 -225.35 -193.3 -226.7 -191.6 L-226.85 -191.4 -226.75 -191.35 Q-224.45 -190.55 -222.6 -190.55 L-222.8 -189.65 Q-224.35 -189.4 -227.0 -188.3 L-231.7 -186.15 -232.85 -185.55 -232.9 -185.5 -238.7 -184.75 -239.3 -184.75" fill="#996633" fill-rule="evenodd" stroke="none"/>
    <path d="M-202.3 -181.25 Q-207.35 -180.3 -210.1 -180.3 L-210.45 -180.3 -216.65 -180.9 -218.4 -185.15 -219.15 -187.45 -219.85 -188.55 Q-220.35 -189.35 -221.15 -189.6 L-217.7 -189.65 Q-213.8 -192.95 -211.35 -193.0 L-207.65 -193.05 -207.65 -192.95 Q-209.45 -191.5 -209.45 -188.5 -209.45 -185.45 -207.85 -183.9 -206.3 -182.35 -202.3 -181.3 L-202.3 -181.25 M-220.0 -179.1 Q-224.95 -176.05 -229.65 -176.15 -234.4 -176.25 -235.95 -177.35 L-237.35 -178.55 -238.55 -181.05 Q-239.5 -182.65 -239.3 -184.75 L-238.7 -184.75 -232.9 -185.5 -234.65 -184.5 Q-236.0 -183.6 -236.0 -182.95 -236.0 -180.5 -233.75 -180.45 L-229.8 -180.8 Q-228.05 -181.25 -226.1 -182.55 L-223.75 -183.95 Q-222.2 -182.5 -220.0 -179.1" fill="#000000" fill-rule="evenodd" stroke="none"/>
    <path d="M-207.65 -192.95 L-205.35 -192.8 -192.45 -190.95 Q-188.8 -190.55 -172.95 -193.15 -170.9 -193.95 -166.15 -190.1 L-165.1 -189.1 Q-165.15 -188.25 -168.2 -189.35 -170.15 -190.1 -173.0 -190.1 -175.15 -190.1 -181.9 -187.6 L-183.7 -186.9 -176.15 -186.95 Q-174.25 -186.8 -172.5 -187.45 L-169.6 -188.15 Q-168.65 -188.15 -165.8 -186.7 -163.05 -185.35 -162.5 -184.65 L-168.45 -184.9 -168.85 -185.0 -169.05 -184.95 -178.4 -183.65 Q-187.75 -181.15 -194.4 -181.35 L-195.0 -181.4 -195.2 -181.4 -200.8 -181.6 -201.2 -181.5 -202.3 -181.3 -202.2 -181.3 -202.3 -181.25 Q-207.35 -180.3 -210.1 -180.3 L-210.45 -180.3 -216.65 -180.9 -216.35 -180.3 -213.55 -172.95 Q-212.9 -170.7 -214.25 -170.7 -215.65 -170.7 -216.55 -171.85 -217.45 -173.0 -217.55 -173.75 -218.0 -176.15 -219.2 -177.75 L-220.0 -179.1 Q-224.95 -176.05 -229.65 -176.15 -234.4 -176.25 -235.95 -177.35 -236.5 -176.15 -239.2 -173.65 -241.95 -171.15 -243.65 -171.3 -245.35 -171.45 -248.8 -173.65 -252.3 -175.85 -254.85 -175.5 -257.45 -175.15 -257.35 -176.25 -257.25 -177.4 -256.0 -177.85 L-250.35 -177.65 -245.0 -176.0 Q-244.3 -176.0 -238.55 -181.05 -239.5 -182.65 -239.3 -184.75 L-239.6 -184.75 Q-241.9 -183.8 -243.1 -183.8 -244.15 -183.8 -245.05 -184.4 -246.4 -185.3 -247.25 -185.6 -247.95 -184.85 -248.75 -184.85 L-250.45 -188.7 Q-251.25 -190.85 -251.0 -192.45 L-251.05 -192.65 -251.05 -192.85 -251.05 -192.9 Q-250.95 -194.45 -248.8 -196.15 -246.2 -198.15 -243.0 -198.35 -239.8 -198.6 -235.0 -196.35 -230.2 -194.15 -227.75 -193.7 -225.35 -193.3 -226.7 -191.6 L-226.85 -191.4 -226.75 -191.35 Q-224.45 -190.55 -222.6 -190.55 L-222.8 -189.65 -222.15 -189.7 -221.15 -189.6 -217.7 -189.65 Q-213.8 -192.95 -211.35 -193.0 L-207.65 -193.05 -207.6 -193.05 -207.55 -193.05 -207.65 -192.95 Q-209.45 -191.5 -209.45 -188.5 -209.45 -185.45 -207.85 -183.9 -206.3 -182.35 -202.3 -181.3 M-183.7 -186.9 Q-188.8 -185.1 -191.6 -184.75 -194.95 -184.35 -196.45 -183.45 -197.85 -182.65 -200.8 -181.6 M-216.65 -180.9 L-218.4 -185.15 -219.15 -187.45 -219.85 -188.55 Q-220.35 -189.35 -221.15 -189.6 M-222.8 -189.65 Q-224.35 -189.4 -227.0 -188.3 L-231.7 -186.15 -232.9 -185.5 -234.65 -184.5 Q-236.0 -183.6 -236.0 -182.95 -236.0 -180.5 -233.75 -180.45 L-229.8 -180.8 Q-228.05 -181.25 -226.1 -182.55 L-223.75 -183.95 Q-222.2 -182.5 -220.0 -179.1 M-232.9 -185.5 L-238.7 -184.75 -239.3 -184.75 M-238.55 -181.05 L-237.35 -178.55 -235.95 -177.35 M-231.7 -186.15 L-232.85 -185.55 -232.9 -185.5 M-239.6 -184.75 Q-241.25 -184.8 -242.2 -186.1 -243.35 -188.45 -244.25 -189.65 -247.2 -193.45 -251.0 -192.9 L-251.0 -192.65 -251.0 -192.45" fill="none" stroke="#000000" stroke-linecap="round" stroke-linejoin="round" stroke-width="0.05"/>
  </g>
</svg>
