<?xml version="1.0" encoding="UTF-8" standalone="no"?>
<svg xmlns:ffdec="https://www.free-decompiler.com/flash" xmlns:xlink="http://www.w3.org/1999/xlink" ffdec:objectType="shape" height="100.7px" width="295.25px" xmlns="http://www.w3.org/2000/svg">
  <g transform="matrix(1.0, 0.0, 0.0, 1.0, 208.7, -139.15)">
    <path d="M36.45 236.5 L44.25 239.35 36.45 239.35 36.45 236.5" fill="#69bfea" fill-opacity="0.5019608" fill-rule="evenodd" stroke="none"/>
    <path d="M-208.2 239.35 Q-181.8 230.25 -161.5 218.7 -150.2 212.25 -135.8 202.75 L-100.85 179.65 Q-85.6 169.7 -66.3 159.85 -50.65 151.4 -33.15 145.5 -16.2 139.6 2.3 139.65 20.25 139.65 36.85 145.05 51.95 150.05 62.75 159.85 76.8 172.5 84.55 192.25 86.7 201.55 85.75 208.6 84.8 215.6 76.5 205.2 68.15 194.75 55.95 188.95 43.7 183.1 33.65 182.9 23.6 182.7 13.6 187.0 3.6 191.2 3.65 207.45 3.7 223.7 36.45 236.5 L36.45 239.35 -208.2 239.35" fill="#69bfea" fill-opacity="0.9019608" fill-rule="evenodd" stroke="none"/>
    <path d="M-208.2 239.35 Q-181.8 230.25 -161.5 218.7 -150.2 212.25 -135.8 202.75 L-100.85 179.65 Q-85.6 169.7 -66.3 159.85 -50.65 151.4 -33.15 145.5 -16.2 139.6 2.3 139.65 20.25 139.65 36.85 145.05 51.95 150.05 62.75 159.85 76.8 172.5 84.55 192.25 86.7 201.55 85.75 208.6 84.8 215.6 76.5 205.2 68.15 194.75 55.95 188.95 43.7 183.1 33.65 182.9 23.6 182.7 13.6 187.0 3.6 191.2 3.65 207.45 3.7 223.7 36.45 236.5 L44.25 239.35" fill="none" stroke="#000000" stroke-linecap="round" stroke-linejoin="round" stroke-width="1.0"/>
  </g>
</svg>
