<?xml version="1.0" encoding="UTF-8" standalone="no"?>
<svg xmlns:ffdec="https://www.free-decompiler.com/flash" xmlns:xlink="http://www.w3.org/1999/xlink" ffdec:objectType="shape" height="52.2px" width="186.7px" xmlns="http://www.w3.org/2000/svg">
  <g transform="matrix(1.0, 0.0, 0.0, 1.0, 95.65, 27.25)">
    <path d="M-65.8 -8.7 L-89.85 -16.45 Q-91.45 -16.95 -92.2 -18.4 -92.95 -19.9 -92.45 -21.45 -91.95 -23.05 -90.45 -23.8 L-87.4 -24.05 9.95 7.2 Q41.0 15.25 83.9 13.65 85.55 13.6 86.8 14.75 88.0 15.85 88.05 17.5 88.1 19.15 87.0 20.4 85.85 21.6 84.2 21.65 40.0 23.35 7.95 14.95 L7.75 14.85 -37.1 0.5 Q-51.6 14.25 -80.35 15.3 -69.15 4.95 -65.8 -8.7" fill="#ffffff" fill-rule="evenodd" stroke="none"/>
    <path d="M-37.1 0.5 L7.75 14.85 7.95 14.95 Q40.0 23.35 84.2 21.65 85.85 21.6 87.0 20.4 88.1 19.15 88.05 17.5 88.0 15.85 86.8 14.75 85.55 13.6 83.9 13.65 41.0 15.25 9.95 7.2 L-87.4 -24.05 -90.45 -23.8 Q-91.95 -23.05 -92.45 -21.45 -92.95 -19.9 -92.2 -18.4 -91.45 -16.95 -89.85 -16.45 L-65.8 -8.7" fill="none" stroke="#000000" stroke-linecap="round" stroke-linejoin="round" stroke-width="6.0"/>
    <path d="M-80.35 15.3 Q-51.6 14.25 -37.1 0.5" fill="none" stroke="#186c81" stroke-linecap="round" stroke-linejoin="round" stroke-width="6.0"/>
    <path d="M-65.8 -8.7 Q-69.15 4.95 -80.35 15.3" fill="none" stroke="#227388" stroke-linecap="round" stroke-linejoin="round" stroke-width="6.0"/>
    <path d="M-89.85 -16.45 Q-91.45 -16.95 -92.2 -18.4 -92.95 -19.9 -92.45 -21.45 -91.95 -23.05 -90.45 -23.8 L-87.4 -24.05 9.95 7.2 Q41.0 15.25 83.9 13.65 85.55 13.6 86.8 14.75 88.0 15.85 88.05 17.5 88.1 19.15 87.0 20.4 85.85 21.6 84.2 21.65 40.0 23.35 7.95 14.95 L7.75 14.85 -37.1 0.5 -40.35 3.3 Q-54.25 -1.75 -67.35 -3.55 -66.45 -6.1 -65.8 -8.7 L-89.85 -16.45" fill="#ffffff" fill-rule="evenodd" stroke="none"/>
    <path d="M-40.35 3.3 Q-54.65 14.35 -80.35 15.3 -71.3 6.95 -67.35 -3.55 -54.25 -1.75 -40.35 3.3" fill="#bee4f3" fill-rule="evenodd" stroke="none"/>
  </g>
</svg>
