<?xml version="1.0" encoding="UTF-8" standalone="no"?>
<svg xmlns:ffdec="https://www.free-decompiler.com/flash" xmlns:xlink="http://www.w3.org/1999/xlink" ffdec:objectType="shape" height="13.15px" width="21.6px" xmlns="http://www.w3.org/2000/svg">
  <g transform="matrix(1.0, 0.0, 0.0, 1.0, 200.3, 177.95)">
    <path d="M-191.6 -177.05 Q-183.3 -177.25 -181.15 -177.95 -179.15 -173.75 -178.7 -168.45 L-182.2 -166.9 Q-185.1 -165.6 -186.7 -165.45 L-194.0 -164.8 -195.95 -164.95 -196.55 -165.75 Q-196.9 -171.7 -198.15 -172.9 L-200.3 -174.85 Q-198.3 -176.85 -191.6 -177.05" fill="#cc3333" fill-rule="evenodd" stroke="none"/>
    <path d="M-191.6 -177.05 Q-183.3 -177.25 -181.15 -177.95 -179.15 -173.75 -178.7 -168.45 L-182.2 -166.9 Q-185.1 -165.6 -186.7 -165.45 L-194.0 -164.8 -195.95 -164.95 -196.55 -165.75 Q-196.9 -171.7 -198.15 -172.9 L-200.3 -174.85 Q-198.3 -176.85 -191.6 -177.05 Z" fill="none" stroke="#000000" stroke-linecap="round" stroke-linejoin="round" stroke-width="0.05"/>
  </g>
</svg>
