<?xml version="1.0" encoding="UTF-8" standalone="no"?>
<svg xmlns:ffdec="https://www.free-decompiler.com/flash" xmlns:xlink="http://www.w3.org/1999/xlink" ffdec:objectType="shape" height="33.35px" width="95.2px" xmlns="http://www.w3.org/2000/svg">
  <g transform="matrix(1.0, 0.0, 0.0, 1.0, 244.85, 178.8)">
    <path d="M-190.9 -176.4 L-178.45 -176.45 -168.9 -177.5 -159.35 -177.5 Q-159.35 -178.35 -157.0 -178.8 -155.0 -176.45 -150.65 -170.5 -148.65 -168.25 -150.65 -168.4 -155.1 -169.75 -156.4 -171.8 L-156.8 -171.8 -162.5 -171.2 -168.05 -170.1 -175.1 -169.95 Q-180.35 -169.65 -182.5 -168.6 -184.5 -167.65 -189.25 -166.6 L-189.75 -166.5 Q-195.75 -167.8 -193.65 -173.75 -193.3 -174.75 -192.3 -175.5 L-190.9 -176.4 M-195.1 -164.8 L-195.65 -164.55 Q-203.9 -160.1 -207.0 -158.95 L-207.1 -158.9 Q-207.65 -146.55 -210.4 -146.55 -210.95 -146.55 -213.8 -148.15 -216.65 -149.7 -218.15 -150.25 L-220.25 -148.55 Q-224.15 -145.45 -225.15 -145.45 -226.65 -145.45 -229.45 -147.0 L-233.6 -149.3 -237.65 -150.5 -244.85 -151.2 -244.85 -153.75 Q-244.25 -155.45 -240.65 -155.45 L-235.85 -154.75 -233.45 -153.85 Q-230.1 -152.25 -229.3 -152.25 -226.75 -152.25 -221.3 -160.75 L-221.4 -160.75 -224.35 -160.85 Q-225.4 -161.1 -226.15 -162.0 L-226.75 -162.35 -227.7 -163.05 -227.95 -163.35 -228.1 -165.55 Q-228.1 -168.1 -227.4 -169.6 -226.8 -170.9 -223.6 -173.4 -220.4 -175.95 -215.4 -175.7 L-208.4 -175.35 -203.65 -175.2 -200.7 -175.15 Q-197.0 -172.95 -195.1 -164.8 M-220.65 -161.8 L-221.3 -160.75 -220.65 -161.8 M-211.45 -158.9 L-208.5 -158.6 -207.1 -158.9 -208.5 -158.6 -211.45 -158.9 -212.5 -157.2 Q-214.3 -154.1 -215.8 -152.45 -216.5 -151.65 -218.15 -150.25 -216.5 -151.65 -215.8 -152.45 -214.3 -154.1 -212.5 -157.2 L-211.45 -158.9 -209.95 -161.05 -211.45 -158.9" fill="#ffcc99" fill-rule="evenodd" stroke="none"/>
    <path d="M-190.9 -176.4 L-192.3 -175.5 Q-193.3 -174.75 -193.65 -173.75 -195.75 -167.8 -189.75 -166.5 -193.25 -165.7 -195.1 -164.8 -197.0 -172.95 -200.7 -175.15 L-197.25 -176.2 -190.9 -176.4" fill="#10709a" fill-rule="evenodd" stroke="none"/>
    <path d="M-189.75 -166.5 L-189.25 -166.6 Q-184.5 -167.65 -182.5 -168.6 -180.35 -169.65 -175.1 -169.95 L-168.05 -170.1 -162.5 -171.2 -156.8 -171.8 -156.4 -171.8 Q-155.1 -169.75 -150.65 -168.4 -148.65 -168.25 -150.65 -170.5 -155.0 -176.45 -157.0 -178.8 -159.35 -178.35 -159.35 -177.5 L-168.9 -177.5 -178.45 -176.45 -190.9 -176.4 -197.25 -176.2 -200.7 -175.15 Q-197.0 -172.95 -195.1 -164.8 L-195.65 -164.55 Q-203.9 -160.1 -207.0 -158.95 L-207.1 -158.9 Q-207.65 -146.55 -210.4 -146.55 -210.95 -146.55 -213.8 -148.15 -216.65 -149.7 -218.15 -150.25 L-220.25 -148.55 Q-224.15 -145.45 -225.15 -145.45 -226.65 -145.45 -229.45 -147.0 L-233.6 -149.3 -237.65 -150.5 -244.85 -151.2 -244.85 -153.75 Q-244.25 -155.45 -240.65 -155.45 L-235.85 -154.75 -233.45 -153.85 Q-230.1 -152.25 -229.3 -152.25 -226.75 -152.25 -221.3 -160.75 L-221.4 -160.75 -224.35 -160.85 Q-225.4 -161.1 -226.15 -162.0 L-226.75 -162.35 -227.7 -163.05 -227.95 -163.35 -228.1 -165.55 Q-228.1 -168.1 -227.4 -169.6 -226.8 -170.9 -223.6 -173.4 -220.4 -175.95 -215.4 -175.7 L-208.4 -175.35 -203.65 -175.2 -200.7 -175.15 M-189.75 -166.5 Q-193.25 -165.7 -195.1 -164.8 M-218.15 -150.25 Q-216.5 -151.65 -215.8 -152.45 -214.3 -154.1 -212.5 -157.2 L-211.45 -158.9 -209.95 -161.05 M-207.1 -158.9 L-208.5 -158.6 -211.45 -158.9 M-221.3 -160.75 L-220.65 -161.8" fill="none" stroke="#333333" stroke-linecap="round" stroke-linejoin="round" stroke-width="0.05"/>
    <path d="M-190.9 -176.4 L-192.3 -175.5 Q-193.3 -174.75 -193.65 -173.75 -195.75 -167.8 -189.75 -166.5" fill="none" stroke="#000000" stroke-linecap="round" stroke-linejoin="round" stroke-width="0.05"/>
  </g>
</svg>
