<?xml version="1.0" encoding="UTF-8" standalone="no"?>
<svg xmlns:ffdec="https://www.free-decompiler.com/flash" xmlns:xlink="http://www.w3.org/1999/xlink" ffdec:objectType="shape" height="15.0px" width="21.6px" xmlns="http://www.w3.org/2000/svg">
  <g transform="matrix(1.0, 0.0, 0.0, 1.0, 201.2, 177.8)">
    <path d="M-192.5 -176.9 Q-184.2 -177.1 -182.05 -177.8 -180.05 -173.6 -179.6 -168.3 L-183.1 -166.75 Q-186.0 -165.45 -187.6 -165.3 L-193.7 -163.5 Q-198.2 -162.55 -197.55 -162.9 L-196.9 -163.45 Q-197.8 -171.55 -199.05 -172.75 L-201.2 -174.7 Q-199.2 -176.7 -192.5 -176.9" fill="#cc3333" fill-rule="evenodd" stroke="none"/>
    <path d="M-192.5 -176.9 Q-184.2 -177.1 -182.05 -177.8 -180.05 -173.6 -179.6 -168.3 L-183.1 -166.75 Q-186.0 -165.45 -187.6 -165.3 L-193.7 -163.5 Q-198.2 -162.55 -197.55 -162.9 L-196.9 -163.45 Q-197.8 -171.55 -199.05 -172.75 L-201.2 -174.7 Q-199.2 -176.7 -192.5 -176.9 Z" fill="none" stroke="#000000" stroke-linecap="round" stroke-linejoin="round" stroke-width="0.05"/>
  </g>
</svg>
