<?xml version="1.0" encoding="UTF-8" standalone="no"?>
<svg xmlns:ffdec="https://www.free-decompiler.com/flash" xmlns:xlink="http://www.w3.org/1999/xlink" ffdec:objectType="shape" height="22.2px" width="80.95px" xmlns="http://www.w3.org/2000/svg">
  <g transform="matrix(1.0, 0.0, 0.0, 1.0, 227.25, 176.8)">
    <path d="M-225.8 -161.95 L-227.05 -165.65 -227.25 -169.05 Q-227.25 -173.4 -223.85 -174.1 L-216.8 -175.1 -212.1 -174.8 -207.65 -175.4 -202.15 -175.1 -199.65 -174.5 -199.35 -174.6 Q-195.1 -169.45 -194.2 -163.95 L-195.95 -163.7 -194.15 -161.8 Q-191.8 -159.9 -190.5 -159.4 L-189.9 -159.25 Q-186.3 -158.8 -186.3 -157.15 -186.3 -156.15 -187.8 -155.45 -189.15 -154.8 -190.55 -154.8 -192.0 -154.8 -193.75 -155.55 -195.4 -156.3 -197.35 -157.75 L-201.6 -161.4 Q-205.15 -160.65 -210.8 -157.55 -216.05 -154.6 -216.2 -154.6 L-217.2 -154.65 Q-220.6 -155.1 -223.45 -158.45 L-225.8 -161.95 M-189.5 -175.35 L-187.15 -175.3 -152.45 -176.8 Q-150.8 -176.05 -149.35 -172.85 -147.9 -169.55 -146.3 -167.65 L-146.3 -167.05 Q-148.65 -165.35 -153.3 -171.5 L-153.75 -171.45 -153.8 -171.6 -154.6 -171.3 Q-166.1 -171.6 -176.6 -168.65 L-183.05 -166.9 -186.55 -165.6 Q-187.8 -165.0 -188.4 -165.0 L-189.7 -164.75 Q-193.2 -166.35 -194.15 -169.35 -194.8 -173.8 -189.5 -175.35 M-216.65 -162.85 Q-213.15 -163.9 -209.2 -166.9 -208.2 -167.7 -201.3 -168.8 -200.8 -168.8 -196.1 -163.85 L-195.95 -163.7 -196.1 -163.85 Q-200.8 -168.8 -201.3 -168.8 -208.2 -167.7 -209.2 -166.9 -213.15 -163.9 -216.65 -162.85 -219.3 -162.05 -218.45 -161.25 -219.3 -162.05 -216.65 -162.85" fill="#ffcc99" fill-rule="evenodd" stroke="none"/>
    <path d="M-199.35 -174.6 Q-194.75 -176.5 -189.5 -175.35 -194.8 -173.8 -194.15 -169.35 -193.2 -166.35 -189.7 -164.75 L-194.2 -163.95 Q-195.1 -169.45 -199.35 -174.6" fill="#10709a" fill-rule="evenodd" stroke="none"/>
    <path d="M-225.8 -161.95 L-227.05 -165.65 -227.25 -169.05 Q-227.25 -173.4 -223.85 -174.1 L-216.8 -175.1 -212.1 -174.8 -207.65 -175.4 -202.15 -175.1 -199.65 -174.5 -199.35 -174.6 Q-194.75 -176.5 -189.5 -175.35 L-187.15 -175.3 -152.45 -176.8 Q-150.8 -176.05 -149.35 -172.85 -147.9 -169.55 -146.3 -167.65 L-146.3 -167.05 Q-148.65 -165.35 -153.3 -171.5 L-153.75 -171.45 -154.6 -171.3 Q-166.1 -171.6 -176.6 -168.65 L-183.05 -166.9 -186.55 -165.6 Q-187.8 -165.0 -188.4 -165.0 L-189.7 -164.75 -194.2 -163.95 -195.95 -163.7 -194.15 -161.8 Q-191.8 -159.9 -190.5 -159.4 L-189.9 -159.25 Q-186.3 -158.8 -186.3 -157.15 -186.3 -156.15 -187.8 -155.45 -189.15 -154.8 -190.55 -154.8 -192.0 -154.8 -193.75 -155.55 -195.4 -156.3 -197.35 -157.75 L-201.6 -161.4 Q-205.15 -160.65 -210.8 -157.55 -216.05 -154.6 -216.2 -154.6 L-217.2 -154.65 Q-220.6 -155.1 -223.45 -158.45 L-225.8 -161.95 -226.85 -163.5 M-195.95 -163.7 L-196.1 -163.85 Q-200.8 -168.8 -201.3 -168.8 -208.2 -167.7 -209.2 -166.9 -213.15 -163.9 -216.65 -162.85 M-199.35 -174.6 Q-195.1 -169.45 -194.2 -163.95 M-153.75 -171.45 L-153.8 -171.6" fill="none" stroke="#333333" stroke-linecap="round" stroke-linejoin="round" stroke-width="0.05"/>
    <path d="M-216.65 -162.85 Q-219.3 -162.05 -218.45 -161.25 M-189.5 -175.35 Q-194.8 -173.8 -194.15 -169.35 -193.2 -166.35 -189.7 -164.75" fill="none" stroke="#000000" stroke-linecap="round" stroke-linejoin="round" stroke-width="0.05"/>
  </g>
</svg>
