<?xml version="1.0" encoding="UTF-8" standalone="no"?>
<svg xmlns:ffdec="https://www.free-decompiler.com/flash" xmlns:xlink="http://www.w3.org/1999/xlink" ffdec:objectType="shape" height="15.0px" width="21.6px" xmlns="http://www.w3.org/2000/svg">
  <g transform="matrix(1.0, 0.0, 0.0, 1.0, 199.3, 177.5)">
    <path d="M-195.3 -162.8 Q-195.05 -163.0 -195.35 -165.8 -195.65 -168.6 -197.0 -170.85 L-199.3 -174.4 Q-197.3 -176.4 -190.6 -176.6 L-180.15 -177.5 Q-178.15 -173.3 -177.7 -168.0 L-181.2 -166.45 Q-184.1 -165.15 -185.7 -165.0 L-191.8 -163.2 -195.3 -162.5 -195.3 -162.8" fill="#cc3333" fill-rule="evenodd" stroke="none"/>
    <path d="M-195.3 -162.8 Q-195.05 -163.0 -195.35 -165.8 -195.65 -168.6 -197.0 -170.85 L-199.3 -174.4 Q-197.3 -176.4 -190.6 -176.6 L-180.15 -177.5 Q-178.15 -173.3 -177.7 -168.0 L-181.2 -166.45 Q-184.1 -165.15 -185.7 -165.0 L-191.8 -163.2 -195.3 -162.5" fill="none" stroke="#000000" stroke-linecap="round" stroke-linejoin="round" stroke-width="0.05"/>
  </g>
</svg>
