<?xml version="1.0" encoding="UTF-8" standalone="no"?>
<svg xmlns:ffdec="https://www.free-decompiler.com/flash" xmlns:xlink="http://www.w3.org/1999/xlink" ffdec:objectType="shape" height="257.65px" width="94.1px" xmlns="http://www.w3.org/2000/svg">
  <g transform="matrix(1.0, 0.0, 0.0, 1.0, 47.05, 128.8)">
    <path d="M-30.15 -110.75 L-31.3 -111.75 -27.75 -114.95 -25.15 -116.9 Q-21.15 -119.7 -16.6 -121.45 L-17.05 -123.1 Q-17.55 -124.9 -16.65 -126.5 -15.75 -128.15 -13.95 -128.6 -12.15 -129.1 -10.5 -128.2 -8.9 -127.3 -8.4 -125.5 13.0 -48.0 2.55 31.85 L1.9 37.2 1.85 37.25 1.75 37.95 Q1.6 39.1 0.9 40.0 -1.35 59.7 -3.15 69.55 -8.0 95.4 -15.25 121.45 L-12.0 121.45 -11.05 121.5 Q12.55 122.45 42.85 117.1 44.3 116.75 45.55 117.65 46.7 118.5 47.0 119.95 47.25 121.35 46.4 122.65 L46.4 122.7 Q45.5 123.85 44.05 124.15 12.75 129.75 -11.6 128.65 L-11.65 128.65 -31.5 128.65 -31.0 127.15 -11.6 127.15 Q12.65 128.25 43.8 122.65 L45.15 121.8 Q45.65 121.05 45.5 120.2 45.35 119.35 44.65 118.85 43.95 118.35 43.1 118.55 12.4 124.0 -11.45 122.95 L-11.5 122.95 -11.6 122.95 -29.65 122.95 -29.2 121.45 -24.6 121.45 -21.85 111.4 -31.15 105.35 Q-37.35 101.1 -43.05 96.7 L-42.35 95.35 -30.45 104.0 -20.1 110.7 -23.05 121.45 -16.8 121.45 Q-9.5 95.25 -4.65 69.25 -2.9 59.75 -0.7 41.1 -0.3 40.55 0.0 39.4 L0.3 37.75 0.4 37.05 0.4 37.0 1.1 31.65 Q11.5 -47.85 -9.85 -125.1 -10.2 -126.3 -11.25 -126.9 -12.35 -127.5 -13.55 -127.2 -14.75 -126.85 -15.35 -125.75 -15.95 -124.7 -15.65 -123.5 5.4 -47.45 -4.85 30.85 L-5.1 32.8 -5.4 33.1 -44.35 35.45 -45.6 34.05 -13.65 32.1 -6.45 31.65 -6.35 30.7 -6.35 30.65 Q1.0 -25.4 -7.75 -80.3 L-7.85 -80.35 -7.75 -80.5 Q-10.25 -95.95 -14.0 -111.25 L-16.2 -120.0 Q-20.55 -118.3 -24.4 -115.55 L-26.65 -113.9 -30.15 -110.75 M-6.35 -51.55 L-6.35 -51.4 -6.4 -51.4 -6.35 -51.55 M-39.65 90.5 Q-34.0 94.95 -27.8 99.2 L-20.0 104.3 Q-15.4 86.05 -12.0 67.9 -10.25 58.2 -8.0 38.75 L-14.85 39.2 -39.75 40.7 -41.0 39.25 -6.3 37.15 Q-8.65 58.0 -10.55 68.15 -14.15 87.35 -19.05 106.7 L-28.5 100.5 -40.4 91.8 -39.65 90.5" fill="#000000" fill-rule="evenodd" stroke="none"/>
    <path d="M-44.35 35.45 L-5.4 33.1 -5.1 32.8 -4.85 30.85 Q5.4 -47.45 -15.65 -123.5 -15.95 -124.7 -15.35 -125.75 -14.75 -126.85 -13.55 -127.2 -12.35 -127.5 -11.25 -126.9 -10.2 -126.3 -9.85 -125.1 11.5 -47.85 1.1 31.65 L0.4 37.0 0.4 37.05 0.3 37.75 0.0 39.4 Q-0.3 40.55 -0.7 41.1 -2.9 59.75 -4.65 69.25 -9.5 95.25 -16.8 121.45 L-23.05 121.45 -20.1 110.7 -30.45 104.0 -42.35 95.35 -40.4 91.8 -28.5 100.5 -19.05 106.7 Q-14.15 87.35 -10.55 68.15 -8.65 58.0 -6.3 37.15 L-41.0 39.25 -44.35 35.45" fill="#ff6699" fill-rule="evenodd" stroke="none"/>
    <path d="M-14.0 -111.25 Q-10.25 -95.95 -7.75 -80.5 L-7.85 -80.35 -22.35 -85.15 -14.5 -96.9 -24.05 -105.35 -20.95 -107.9 -20.55 -108.2 Q-17.35 -110.35 -14.0 -111.25 M-13.65 32.1 L-45.6 34.05 -47.05 32.35 -30.85 23.3 -12.3 23.9 -13.65 32.1 M-24.7 -81.65 L-8.3 -76.15 -7.35 -76.05 Q-6.45 -64.1 -6.35 -51.55 L-6.4 -51.4 -24.35 -53.95 -35.25 -66.0 -24.7 -81.65 M-20.15 -49.3 L-6.7 -47.4 -6.35 -47.35 Q-6.45 -33.05 -7.5 -17.95 L-32.55 -19.5 -13.9 -42.4 -20.15 -49.3 M-35.65 -15.7 L-7.8 -13.95 Q-8.95 -0.35 -10.9 13.9 L-11.15 15.65 -11.75 19.9 -11.9 19.85 -24.05 19.5 -13.9 13.8 -43.7 -5.85 -35.65 -15.7 M-39.75 40.7 L-14.85 39.2 Q-17.55 56.25 -21.05 74.05 L-21.1 74.35 -24.25 89.4 -34.9 81.8 -22.9 59.9 -39.75 40.7" fill="#99cccc" fill-opacity="0.5019608" fill-rule="evenodd" stroke="none"/>
    <path d="M-30.15 -110.75 L-26.65 -113.9 -24.4 -115.55 Q-20.55 -118.3 -16.2 -120.0 L-14.0 -111.25 Q-17.35 -110.35 -20.55 -108.2 L-20.95 -107.9 -24.05 -105.35 -30.15 -110.75 M-7.85 -80.35 L-7.75 -80.3 Q1.0 -25.4 -6.35 30.65 L-6.35 30.7 -6.45 31.65 -13.65 32.1 -12.3 23.9 -30.85 23.3 -24.05 19.5 -11.9 19.85 -11.75 19.9 -11.15 15.65 -10.9 13.9 Q-8.95 -0.35 -7.8 -13.95 L-35.65 -15.7 -32.55 -19.5 -7.5 -17.95 Q-6.45 -33.05 -6.35 -47.35 -5.65 -47.4 -5.0 -47.75 L-6.7 -47.4 -20.15 -49.3 -24.35 -53.95 -6.4 -51.4 -6.35 -51.4 -6.35 -51.55 Q-6.45 -64.1 -7.35 -76.05 L-8.3 -76.15 -24.7 -81.65 -22.35 -85.15 -7.85 -80.35 M-14.85 39.2 L-8.0 38.75 Q-10.25 58.2 -12.0 67.9 -15.4 86.05 -20.0 104.3 L-27.8 99.2 Q-34.0 94.95 -39.65 90.5 L-34.9 81.8 -24.25 89.4 -21.1 74.35 -21.05 74.05 Q-17.55 56.25 -14.85 39.2" fill="#ffff66" fill-rule="evenodd" stroke="none"/>
    <path d="M-6.7 -47.4 L-5.0 -47.75 Q-5.65 -47.4 -6.35 -47.35 L-6.7 -47.4" fill="#ff6633" fill-rule="evenodd" stroke="none"/>
    <path d="M-29.65 122.95 L-11.6 122.95 -11.5 122.95 -11.45 122.95 Q12.4 124.0 43.1 118.55 43.95 118.35 44.65 118.85 45.35 119.35 45.5 120.2 45.65 121.05 45.15 121.8 L43.8 122.65 Q12.65 128.25 -11.6 127.15 L-31.0 127.15 -29.65 122.95" fill="#ffffff" fill-rule="evenodd" stroke="none"/>
  </g>
</svg>
