<?xml version="1.0" encoding="UTF-8" standalone="no"?>
<svg xmlns:ffdec="https://www.free-decompiler.com/flash" xmlns:xlink="http://www.w3.org/1999/xlink" ffdec:objectType="shape" height="164.5px" width="63.05px" xmlns="http://www.w3.org/2000/svg">
  <g transform="matrix(1.0, 0.0, 0.0, 1.0, 31.5, 82.25)">
    <path d="M31.1 -82.25 Q32.45 -54.35 29.75 -26.3 L29.55 -24.25 Q32.45 -53.4 31.1 -82.25" fill="#ffff66" fill-rule="evenodd" stroke="none"/>
    <path d="M-1.55 -24.55 Q-3.2 -25.15 -4.05 -26.4 -4.95 -27.7 -5.1 -30.8 -5.25 -33.9 -3.1 -36.1 -1.0 -38.3 2.55 -38.1 6.05 -37.95 7.55 -35.7 9.05 -33.45 9.0 -31.45 8.95 -29.5 8.65 -29.1 L8.65 -29.0 Q6.65 -28.55 5.7 -26.15 5.3 -25.15 4.6 -24.6 L-1.55 -24.55" fill="#734d26" fill-rule="evenodd" stroke="none"/>
    <path d="M8.65 -29.0 Q8.6 -26.8 8.2 -25.05 7.8 -23.25 7.25 -22.55 L6.55 -21.65 6.5 -18.8 -1.6 -20.7 -1.55 -24.55 4.6 -24.6 Q5.3 -25.15 5.7 -26.15 6.65 -28.55 8.65 -29.0 M19.4 -10.95 Q22.3 -11.3 24.6 -10.9 25.75 -10.7 26.45 -9.6 L27.5 -7.75 27.55 -7.75 27.55 -7.7 27.5 -7.7 24.95 -8.25 Q23.2 -8.3 22.45 -7.4 L21.9 -8.0 19.4 -10.95 M-22.15 -12.1 Q-21.15 -13.8 -19.35 -14.1 L-15.8 -14.2 Q-17.15 -12.95 -18.15 -11.35 -19.3 -12.25 -20.5 -12.25 L-22.15 -12.1" fill="#ffcc99" fill-rule="evenodd" stroke="none"/>
    <path d="M6.5 -18.8 L6.75 -18.75 6.75 -17.2 5.95 -16.8 Q5.35 -15.1 9.65 -13.3 13.05 -11.9 16.05 -8.8 L17.6 -7.1 19.3 -5.1 Q22.1 -1.8 25.0 1.15 24.5 1.15 25.7 1.65 L26.15 1.8 26.3 1.85 Q28.15 2.6 30.3 2.8 L30.15 3.35 Q29.45 4.65 26.4 4.6 L25.75 4.35 25.35 4.15 25.25 4.1 Q17.55 0.7 14.8 -1.6 13.6 -2.6 13.3 -3.35 L13.1 -3.35 13.1 -1.25 11.45 0.05 11.05 3.15 11.0 3.25 11.0 3.45 10.95 3.5 Q10.05 9.95 8.8 13.4 7.85 16.05 9.45 24.45 L9.75 26.05 Q11.05 33.45 11.15 39.5 11.2 46.15 12.65 49.05 L15.45 55.9 15.55 56.25 20.0 68.15 Q21.05 70.2 21.85 75.4 L25.75 80.1 26.95 81.55 26.45 82.25 24.8 82.25 24.35 82.25 23.0 82.25 Q21.15 81.8 20.4 79.2 L19.2 74.75 18.95 73.75 Q18.25 70.9 17.0 69.4 L14.7 65.9 13.6 64.0 13.45 63.75 12.95 62.9 Q10.9 59.25 9.7 55.2 L8.95 52.4 Q7.95 48.15 6.2 43.0 L5.8 41.8 5.6 41.25 5.5 40.75 5.45 40.75 4.95 39.45 2.75 33.75 0.5 28.8 -1.0 28.8 Q-3.15 36.45 -5.75 41.0 L-6.3 41.9 Q-9.2 46.6 -9.7 49.55 L-10.5 51.9 -11.6 54.2 -15.05 60.05 Q-19.9 67.55 -20.9 71.7 -21.95 75.85 -22.9 77.2 L-24.65 79.2 Q-25.45 79.85 -25.45 80.3 L-30.55 80.35 -31.45 79.0 -31.45 77.3 Q-31.45 75.75 -30.4 74.4 L-28.05 71.6 Q-26.75 70.15 -26.0 65.55 -25.35 60.9 -24.1 58.8 L-21.9 55.1 Q-20.55 53.15 -19.7 50.45 L-19.0 48.0 -18.3 45.45 -17.75 43.45 Q-16.65 39.15 -15.85 33.8 L-15.7 32.8 Q-15.1 28.25 -15.05 26.55 -15.0 24.6 -14.35 21.65 -13.75 18.65 -12.2 15.2 -10.75 11.85 -11.05 -3.5 L-11.05 -5.25 Q-12.15 -5.7 -12.5 -6.1 L-15.15 -3.3 -16.65 -1.75 Q-18.9 0.2 -21.2 0.2 -23.65 0.2 -24.3 -1.55 L-24.55 -2.8 -24.65 -5.35 Q-24.65 -9.85 -23.45 -11.3 L-22.15 -12.1 -20.5 -12.25 Q-19.3 -12.25 -18.15 -11.35 -17.15 -12.95 -15.8 -14.2 -14.35 -15.7 -12.45 -16.8 L-10.65 -17.7 Q-7.1 -19.3 -3.25 -19.0 L-1.9 -20.75 -1.85 -20.8 -1.6 -20.7 6.5 -18.8 M-18.85 -10.1 L-18.15 -11.35 -18.85 -10.1 M7.0 15.2 L2.25 15.15 Q2.65 16.75 3.5 18.2 -4.75 18.1 -10.35 16.8 -13.25 30.35 8.6 28.65 6.95 17.6 7.0 15.2 M2.75 33.75 L3.15 33.6 2.75 33.75" fill="#333333" fill-rule="evenodd" stroke="none"/>
    <path d="M6.75 -17.2 L7.75 -17.0 Q13.0 -15.9 15.55 -14.1 L16.8 -13.15 Q18.55 -11.85 19.4 -10.95 L21.9 -8.0 22.45 -7.4 Q23.2 -8.3 24.95 -8.25 L27.5 -7.7 27.55 -7.7 Q30.6 -6.2 30.55 -0.6 L30.3 2.8 Q28.15 2.6 26.3 1.85 L26.15 1.8 25.7 1.65 Q24.5 1.15 25.0 1.15 22.1 -1.8 19.3 -5.1 L17.6 -7.1 16.05 -8.8 Q13.05 -11.9 9.65 -13.3 5.35 -15.1 5.95 -16.8 L6.75 -17.2 M13.1 -1.25 L12.95 3.35 12.95 3.45 12.95 3.6 12.6 10.9 12.2 17.1 Q12.35 18.45 13.35 21.75 14.3 25.0 14.7 28.55 L15.2 34.4 15.25 34.75 15.25 35.0 15.8 40.15 16.05 41.95 16.1 42.0 16.5 44.15 17.5 47.2 17.65 47.5 19.2 51.55 Q20.2 54.5 22.1 58.9 23.9 63.25 24.4 75.05 24.75 76.15 26.05 77.8 27.05 79.2 27.05 80.35 L26.95 81.55 25.75 80.1 21.85 75.4 Q21.05 70.2 20.0 68.15 L15.55 56.25 15.45 55.9 12.65 49.05 Q11.2 46.15 11.15 39.5 11.05 33.45 9.75 26.05 L9.45 24.45 Q7.85 16.05 8.8 13.4 10.05 9.95 10.95 3.5 L11.0 3.45 11.0 3.25 11.05 3.15 11.45 0.05 13.1 -1.25 M26.3 -3.3 L24.25 -5.35 22.45 -7.4 24.25 -5.35 26.3 -3.3 M11.5 3.35 L11.4 3.5 11.5 3.5 11.5 3.35" fill="#444444" fill-rule="evenodd" stroke="none"/>
    <path d="M5.6 41.25 L5.45 40.75 5.5 40.75 5.6 41.25 M11.5 3.35 L11.5 3.5 11.4 3.5 11.5 3.35 M2.75 33.75 L3.15 33.6 2.75 33.75" fill="#99cccc" fill-opacity="0.5019608" fill-rule="evenodd" stroke="none"/>
    <path d="M7.0 15.2 Q6.95 17.6 8.6 28.65 -13.25 30.35 -10.35 16.8 -4.75 18.1 3.5 18.2 2.65 16.75 2.25 15.15 L7.0 15.2" fill="url(#gradient0)" fill-rule="evenodd" stroke="none"/>
    <path d="M-1.55 -24.55 Q-3.2 -25.15 -4.05 -26.4 -4.95 -27.7 -5.1 -30.8 -5.25 -33.9 -3.1 -36.1 -1.0 -38.3 2.55 -38.1 6.05 -37.95 7.55 -35.7 9.05 -33.45 9.0 -31.45 8.95 -29.5 8.65 -29.1 L8.65 -29.0 Q8.6 -26.8 8.2 -25.05 7.8 -23.25 7.25 -22.55 L6.55 -21.65 6.5 -18.8 -1.6 -20.7 -1.55 -24.55 M7.75 -17.0 Q13.0 -15.9 15.55 -14.1 L16.8 -13.15 M19.4 -10.95 Q22.3 -11.3 24.6 -10.9 25.75 -10.7 26.45 -9.6 L27.5 -7.75 27.55 -7.75 27.55 -7.7 Q30.6 -6.2 30.55 -0.6 L30.3 2.8 30.15 3.35 Q29.45 4.65 26.4 4.6 L25.75 4.35 M14.8 -1.6 Q13.6 -2.6 13.3 -3.35 M13.1 -3.35 L13.1 -1.25 12.95 3.35 12.95 3.45 12.95 3.6 12.6 10.9 12.2 17.1 Q12.35 18.45 13.35 21.75 14.3 25.0 14.7 28.55 L15.2 34.4 15.25 34.75 15.25 35.0 15.8 40.15 16.05 41.95 16.1 42.0 16.5 44.15 17.5 47.2 17.65 47.5 19.2 51.55 Q20.2 54.5 22.1 58.9 23.9 63.25 24.4 75.05 24.75 76.15 26.05 77.8 27.05 79.2 27.05 80.35 L26.95 81.55 26.45 82.25 24.8 82.25 24.35 82.25 23.0 82.25 Q21.15 81.8 20.4 79.2 L19.2 74.75 18.95 73.75 Q18.25 70.9 17.0 69.4 L14.7 65.9 13.6 64.0 13.45 63.75 12.95 62.9 Q10.9 59.25 9.7 55.2 L8.95 52.4 Q7.95 48.15 6.2 43.0 L5.8 41.8 M5.6 41.25 L5.45 40.75 4.95 39.45 2.75 33.75 0.5 28.8 -1.0 28.8 Q-3.15 36.45 -5.75 41.0 L-6.3 41.9 Q-9.2 46.6 -9.7 49.55 L-10.5 51.9 -11.6 54.2 -15.05 60.05 Q-19.9 67.55 -20.9 71.7 -21.95 75.85 -22.9 77.2 L-24.65 79.2 Q-25.45 79.85 -25.45 80.3 L-30.55 80.35 -31.45 79.0 -31.45 77.3 Q-31.45 75.75 -30.4 74.4 L-28.05 71.6 Q-26.75 70.15 -26.0 65.55 -25.35 60.9 -24.1 58.8 L-21.9 55.1 Q-20.55 53.15 -19.7 50.45 L-19.0 48.0 -18.3 45.45 -17.75 43.45 Q-16.65 39.15 -15.85 33.8 L-15.7 32.8 Q-15.1 28.25 -15.05 26.55 -15.0 24.6 -14.35 21.65 -13.75 18.65 -12.2 15.2 -10.75 11.85 -11.05 -3.5 L-11.05 -5.25 Q-12.15 -5.7 -12.5 -6.1 L-15.15 -3.3 -16.65 -1.75 Q-18.9 0.2 -21.2 0.2 -23.65 0.2 -24.3 -1.55 L-24.55 -2.8 -24.65 -5.35 Q-24.65 -9.85 -23.45 -11.3 L-22.15 -12.1 Q-21.15 -13.8 -19.35 -14.1 L-15.8 -14.2 Q-14.35 -15.7 -12.45 -16.8 L-10.65 -17.7 M-18.15 -11.35 Q-19.3 -12.25 -20.5 -12.25 L-22.15 -12.1 M-15.8 -14.2 Q-17.15 -12.95 -18.15 -11.35 L-18.85 -10.1 M22.45 -7.4 L21.9 -8.0 19.4 -10.95 M27.55 -7.7 L27.5 -7.7 24.95 -8.25 Q23.2 -8.3 22.45 -7.4 L24.25 -5.35 26.3 -3.3" fill="none" stroke="#000000" stroke-linecap="round" stroke-linejoin="round" stroke-width="0.05"/>
  </g>
  <defs>
    <linearGradient gradientTransform="matrix(-1.0E-4, 0.0085, -0.0103, -1.0E-4, 0.2, 22.05)" gradientUnits="userSpaceOnUse" id="gradient0" spreadMethod="pad" x1="-819.2" x2="819.2">
      <stop offset="0.0" stop-color="#333333"/>
      <stop offset="1.0" stop-color="#444444"/>
    </linearGradient>
  </defs>
</svg>
