<?xml version="1.0" encoding="UTF-8" standalone="no"?>
<svg xmlns:ffdec="https://www.free-decompiler.com/flash" xmlns:xlink="http://www.w3.org/1999/xlink" ffdec:objectType="shape" height="80.05px" width="998.8px" xmlns="http://www.w3.org/2000/svg">
  <g transform="matrix(1.0, 0.0, 0.0, 1.0, 495.45, 20.7)">
    <path d="M23.9 -15.3 Q29.1 -17.75 36.35 -18.15 47.95 -18.9 78.45 -17.05 114.1 -14.9 130.15 -16.6 L138.55 -18.05 143.1 -18.85 Q149.45 -18.9 158.0 -15.75 L160.3 -14.9 161.1 -15.1 Q167.15 -17.0 168.7 -17.0 174.35 -17.0 181.0 -14.0 L184.05 -13.65 197.65 -17.5 Q200.85 -18.35 199.85 -16.95 212.15 -20.85 218.65 -17.6 225.1 -14.35 225.65 -15.35 226.25 -16.35 229.15 -16.1 L240.35 -16.7 265.0 -17.45 Q283.0 -17.45 286.9 -19.1 287.85 -19.55 285.1 -17.2 291.7 -19.75 298.35 -17.15 304.95 -14.55 319.1 -17.65 322.25 -17.2 346.9 -17.15 354.25 -17.15 356.1 -18.05 L358.75 -19.5 Q359.8 -19.85 367.8 -19.7 L377.25 -19.25 377.55 -18.7 Q378.2 -18.2 379.8 -18.15 439.35 -19.25 441.65 -19.95 L458.05 -20.7 483.65 -18.7 Q484.9 -18.75 488.15 -19.7 491.3 -20.7 492.6 -20.7 499.1 -20.7 500.95 -18.4 501.9 -17.25 501.55 -15.85 501.55 -14.35 499.0 -12.5 L503.35 24.15 -495.45 59.35 -494.55 15.0 Q-495.5 13.4 -495.05 10.6 -495.05 4.3 -489.5 4.35 -466.0 4.35 -447.7 6.45 -446.5 6.55 -442.3 8.75 L-438.05 10.95 Q-435.2 10.95 -435.6 9.9 L-436.2 7.65 Q-434.85 4.65 -408.5 5.7 -407.55 1.35 -400.75 1.4 -399.5 1.35 -397.5 2.55 -395.55 3.65 -394.2 3.65 -393.4 3.6 -392.15 2.85 -390.7 1.7 -389.55 1.1 -385.2 -1.55 -378.1 -1.5 -358.05 -1.5 -350.7 1.65 -347.65 3.2 -346.05 3.75 -343.3 4.75 -338.85 4.75 -336.1 4.75 -335.1 4.05 -334.3 3.1 -333.35 2.6 -329.85 0.4 -312.95 0.4 -311.65 0.4 -310.3 1.55 -309.0 2.65 -307.7 2.65 -305.2 2.65 -297.95 0.6 -290.7 -1.5 -286.95 -1.45 -282.05 -1.45 -278.2 -0.1 L-274.95 1.2 -257.7 -0.5 -218.65 -4.15 Q-148.3 -9.5 -41.25 -9.45 -6.8 -9.45 8.85 -11.4 17.95 -12.6 23.9 -15.3" fill="#ffffff" fill-rule="evenodd" stroke="none"/>
  </g>
</svg>
