<?xml version="1.0" encoding="UTF-8" standalone="no"?>
<svg xmlns:ffdec="https://www.free-decompiler.com/flash" xmlns:xlink="http://www.w3.org/1999/xlink" ffdec:objectType="shape" height="36.6px" width="91.65px" xmlns="http://www.w3.org/2000/svg">
  <g transform="matrix(1.0, 0.0, 0.0, 1.0, 241.1, 177.4)">
    <path d="M-193.95 -165.0 L-194.3 -164.85 -194.3 -164.9 -193.95 -165.0 M-204.35 -146.9 L-204.6 -146.25 -205.2 -144.6 Q-204.65 -140.8 -206.35 -140.8 -207.65 -140.8 -209.0 -142.05 -210.3 -143.3 -210.3 -144.4 -210.3 -145.6 -209.4 -147.45 L-209.35 -147.55 -208.4 -148.5 Q-206.95 -149.75 -205.15 -147.9 L-204.35 -146.9 M-234.55 -156.6 L-235.2 -156.75 -236.05 -156.95 -236.6 -157.15 Q-241.05 -158.55 -241.1 -160.3 -241.15 -162.1 -239.45 -161.95 L-234.35 -161.0 -234.05 -160.95 Q-232.95 -158.4 -234.55 -156.6 M-224.5 -163.1 L-224.45 -163.15 -224.4 -163.15 -224.5 -163.1" fill="#ffcc99" fill-rule="evenodd" stroke="none"/>
    <path d="M-224.5 -163.2 L-225.25 -163.65 -225.35 -163.7 -225.35 -174.1 Q-219.65 -176.05 -208.75 -176.1 -203.45 -176.1 -198.8 -175.0 -196.15 -176.05 -194.15 -176.0 L-191.3 -175.8 -180.05 -175.4 -158.2 -177.25 -156.2 -177.4 Q-155.05 -176.85 -154.0 -176.15 L-151.25 -173.9 Q-147.8 -166.45 -151.05 -168.15 L-153.5 -170.5 Q-155.15 -171.95 -155.85 -172.15 L-156.15 -172.2 -162.15 -171.9 -171.05 -171.3 Q-174.75 -171.25 -178.55 -169.9 L-183.55 -168.4 Q-184.8 -168.25 -189.0 -166.75 L-193.95 -165.0 -194.3 -164.9 -194.3 -164.85 Q-199.55 -163.05 -202.7 -162.7 -199.85 -161.2 -199.5 -160.8 -198.6 -159.85 -198.6 -156.6 -198.6 -154.4 -200.05 -152.3 L-203.25 -148.65 -204.35 -146.9 -205.15 -147.9 Q-206.95 -149.75 -208.4 -148.5 L-209.35 -147.55 Q-208.2 -150.0 -205.6 -153.55 L-205.6 -155.45 -211.1 -155.85 -217.3 -155.85 Q-219.25 -155.95 -220.4 -157.35 L-220.7 -157.75 -220.9 -158.1 -221.2 -158.65 Q-222.55 -161.65 -224.4 -163.15 L-224.5 -163.2 M-213.1 -164.45 L-208.9 -164.4 Q-205.65 -164.2 -203.9 -163.3 L-202.7 -162.7 -203.9 -163.3 Q-205.65 -164.2 -208.9 -164.4 L-213.1 -164.45" fill="#333333" fill-rule="evenodd" stroke="none"/>
    <path d="M-220.9 -158.1 Q-222.1 -157.1 -223.2 -156.7 L-229.6 -156.1 -234.55 -156.6 Q-232.95 -158.4 -234.05 -160.95 L-228.1 -160.5 Q-225.7 -160.9 -224.5 -163.1 L-224.4 -163.15 Q-222.55 -161.65 -221.2 -158.65 L-220.9 -158.1" fill="#1a1a1a" fill-rule="evenodd" stroke="none"/>
    <path d="M-220.4 -157.35 L-220.7 -157.75" fill="none" stroke="#000000" stroke-linecap="round" stroke-linejoin="round" stroke-width="0.05"/>
    <path d="M-224.5 -163.2 L-225.25 -163.65 -225.35 -163.7 -225.35 -174.1 Q-219.65 -176.05 -208.75 -176.1 -203.45 -176.1 -198.8 -175.0 -196.15 -176.05 -194.15 -176.0 L-191.3 -175.8 -180.05 -175.4 -158.2 -177.25 -156.2 -177.4 Q-155.05 -176.85 -154.0 -176.15 L-151.25 -173.9 Q-147.8 -166.45 -151.05 -168.15 L-153.5 -170.5 Q-155.15 -171.95 -155.85 -172.15 L-156.15 -172.2 -162.15 -171.9 -171.05 -171.3 Q-174.75 -171.25 -178.55 -169.9 L-183.55 -168.4 Q-184.8 -168.25 -189.0 -166.75 L-193.95 -165.0 -194.3 -164.85 Q-199.55 -163.05 -202.7 -162.7 -199.85 -161.2 -199.5 -160.8 -198.6 -159.85 -198.6 -156.6 -198.6 -154.4 -200.05 -152.3 L-203.25 -148.65 -204.35 -146.9 -204.6 -146.25 -205.2 -144.6 Q-204.65 -140.8 -206.35 -140.8 -207.65 -140.8 -209.0 -142.05 -210.3 -143.3 -210.3 -144.4 -210.3 -145.6 -209.4 -147.45 L-209.35 -147.55 Q-208.2 -150.0 -205.6 -153.55 L-205.6 -155.45 -211.1 -155.85 -217.3 -155.85 Q-219.25 -155.95 -220.4 -157.35 M-220.7 -157.75 L-220.9 -158.1 Q-222.1 -157.1 -223.2 -156.7 L-229.6 -156.1 -234.55 -156.6 -235.2 -156.75 -236.05 -156.95 -236.6 -157.15 Q-241.05 -158.55 -241.1 -160.3 -241.15 -162.1 -239.45 -161.95 L-234.35 -161.0 -234.05 -160.95 -228.1 -160.5 Q-225.7 -160.9 -224.5 -163.1 L-224.5 -163.2 -224.4 -163.15 Q-222.55 -161.65 -221.2 -158.65 L-220.9 -158.1 M-194.3 -164.9 L-194.3 -164.85 M-234.55 -156.6 Q-232.95 -158.4 -234.05 -160.95 M-202.7 -162.7 L-203.9 -163.3 Q-205.65 -164.2 -208.9 -164.4 L-213.1 -164.45 M-204.35 -146.9 L-205.15 -147.9 Q-206.95 -149.75 -208.4 -148.5 L-209.35 -147.55" fill="none" stroke="#000000" stroke-linecap="round" stroke-linejoin="round" stroke-width="0.05"/>
  </g>
</svg>
