<?xml version="1.0" encoding="UTF-8" standalone="no"?>
<svg xmlns:ffdec="https://www.free-decompiler.com/flash" xmlns:xlink="http://www.w3.org/1999/xlink" ffdec:objectType="shape" height="24.15px" width="96.6px" xmlns="http://www.w3.org/2000/svg">
  <g transform="matrix(1.0, 0.0, 0.0, 1.0, 245.8, 180.85)">
    <path d="M-199.05 -163.0 L-199.05 -159.9 Q-200.2 -157.55 -203.7 -159.9 -204.9 -160.55 -205.15 -161.25 L-202.2 -162.25 -199.05 -163.0 M-237.7 -166.5 L-238.9 -166.25 -238.95 -166.2 -238.9 -166.15 Q-239.25 -165.2 -240.75 -164.65 L-244.1 -163.25 Q-245.95 -162.45 -245.8 -164.95 -245.7 -167.5 -243.95 -168.0 L-241.3 -168.9 -239.1 -170.1 -239.05 -170.15 Q-237.5 -168.05 -237.7 -166.5 M-239.1 -170.1 L-239.05 -170.15 -239.1 -170.1" fill="#ffcc99" fill-rule="evenodd" stroke="none"/>
    <path d="M-239.05 -170.15 L-237.55 -171.0 -232.65 -173.35 Q-230.25 -174.35 -227.25 -174.35 L-224.55 -173.9 -219.85 -175.2 -209.75 -175.6 -199.4 -174.55 Q-195.5 -176.1 -190.9 -175.5 L-190.25 -175.6 -181.85 -176.45 Q-179.75 -176.5 -175.25 -177.7 L-169.75 -179.2 -161.9 -180.2 -157.85 -180.85 Q-155.5 -179.45 -154.75 -178.5 -153.45 -176.9 -149.2 -174.15 L-149.2 -174.0 Q-149.15 -173.7 -150.1 -173.55 -151.05 -173.4 -158.3 -176.2 L-161.15 -176.25 -166.9 -175.1 -173.15 -173.4 -174.2 -172.85 -175.6 -171.85 -180.45 -168.8 Q-183.45 -167.1 -185.4 -166.35 L-186.0 -166.15 -186.5 -166.05 -189.4 -165.3 -194.6 -164.05 -199.05 -163.0 -202.2 -162.25 -205.15 -161.25 -210.0 -158.9 Q-214.05 -156.7 -217.05 -156.7 L-217.6 -156.7 Q-222.35 -157.05 -225.25 -162.85 L-227.25 -167.1 Q-228.35 -169.0 -229.7 -169.0 -231.2 -169.0 -234.0 -167.8 -236.2 -166.9 -237.7 -166.5 -237.5 -168.05 -239.05 -170.15 M-214.95 -164.15 L-219.65 -170.45 Q-221.95 -173.05 -224.55 -173.9 -221.95 -173.05 -219.65 -170.45 L-214.95 -164.15" fill="#333333" fill-rule="evenodd" stroke="none"/>
    <path d="M-175.6 -171.85 L-165.5 -170.6 -161.9 -170.3 -160.35 -170.35 Q-157.4 -170.2 -155.25 -169.5 -154.4 -167.65 -150.85 -163.4 L-150.9 -161.95 -152.4 -162.0 -157.85 -165.6 -158.1 -165.7 -158.15 -165.75 -158.25 -165.8 Q-169.15 -165.8 -185.4 -166.35 -183.45 -167.1 -180.45 -168.8 L-175.6 -171.85" fill="#1a1a1a" fill-rule="evenodd" stroke="none"/>
    <path d="M-239.05 -170.15 L-237.55 -171.0 -232.65 -173.35 Q-230.25 -174.35 -227.25 -174.35 L-224.55 -173.9 -219.85 -175.2 -209.75 -175.6 -199.4 -174.55 Q-195.5 -176.1 -190.9 -175.5 L-190.25 -175.6 -181.85 -176.45 Q-179.75 -176.5 -175.25 -177.7 L-169.75 -179.2 -161.9 -180.2 -157.85 -180.85 Q-155.5 -179.45 -154.75 -178.5 -153.45 -176.9 -149.2 -174.15 L-149.2 -174.0 Q-149.15 -173.7 -150.1 -173.55 -151.05 -173.4 -158.3 -176.2 L-161.15 -176.25 -166.9 -175.1 -173.15 -173.4 -174.2 -172.85 -175.6 -171.85 -165.5 -170.6 -161.9 -170.3 -160.35 -170.35 Q-157.4 -170.2 -155.25 -169.5 -154.4 -167.65 -150.85 -163.4 L-150.9 -161.95 -152.4 -162.0 -157.85 -165.6 -158.1 -165.7 -158.25 -165.8 Q-169.15 -165.8 -185.4 -166.35 L-186.0 -166.15 -186.5 -166.05 -189.4 -165.3 -194.6 -164.05 -199.05 -163.0 -199.05 -159.9 Q-200.2 -157.55 -203.7 -159.9 -204.9 -160.55 -205.15 -161.25 L-210.0 -158.9 Q-214.05 -156.7 -217.05 -156.7 L-217.6 -156.7 Q-222.35 -157.05 -225.25 -162.85 L-227.25 -167.1 Q-228.35 -169.0 -229.7 -169.0 -231.2 -169.0 -234.0 -167.8 -236.2 -166.9 -237.7 -166.5 L-238.9 -166.25 -238.9 -166.15 Q-239.25 -165.2 -240.75 -164.65 L-244.1 -163.25 Q-245.95 -162.45 -245.8 -164.95 -245.7 -167.5 -243.95 -168.0 L-241.3 -168.9 -239.1 -170.1 -239.05 -170.15 Q-237.5 -168.05 -237.7 -166.5 M-199.05 -163.0 L-202.2 -162.25 -205.15 -161.25 M-175.6 -171.85 L-180.45 -168.8 Q-183.45 -167.1 -185.4 -166.35 M-239.05 -170.15 L-239.1 -170.1 M-238.95 -166.2 L-238.9 -166.15 M-224.55 -173.9 Q-221.95 -173.05 -219.65 -170.45 L-214.95 -164.15 M-158.1 -165.7 L-158.15 -165.75 -158.25 -165.8" fill="none" stroke="#000000" stroke-linecap="round" stroke-linejoin="round" stroke-width="0.05"/>
  </g>
</svg>
