<?xml version="1.0" encoding="UTF-8" standalone="no"?>
<svg xmlns:ffdec="https://www.free-decompiler.com/flash" xmlns:xlink="http://www.w3.org/1999/xlink" ffdec:objectType="shape" height="30.15px" width="108.9px" xmlns="http://www.w3.org/2000/svg">
  <g transform="matrix(1.0, 0.0, 0.0, 1.0, 258.05, 177.3)">
    <path d="M-196.6 -164.5 Q-195.7 -162.45 -196.7 -161.3 -197.55 -160.3 -199.15 -160.3 -201.45 -160.3 -202.8 -161.85 L-196.6 -164.5 M-248.3 -150.25 L-250.55 -149.25 Q-255.5 -147.15 -256.45 -147.15 L-258.05 -147.25 -257.2 -149.95 Q-256.75 -151.3 -253.35 -153.05 L-249.55 -154.85 -249.1 -151.65 -248.3 -150.25" fill="#ffcc99" fill-rule="evenodd" stroke="none"/>
    <path d="M-222.95 -174.65 L-218.35 -175.65 -210.9 -176.1 -203.65 -175.4 -199.15 -174.4 -195.75 -175.2 -194.15 -175.6 -192.0 -175.7 -190.3 -175.8 -155.3 -177.3 Q-153.65 -176.55 -152.2 -173.35 -150.75 -170.05 -149.15 -168.15 L-149.15 -167.55 Q-151.5 -165.85 -156.15 -172.0 L-157.45 -171.8 Q-170.8 -173.95 -191.35 -166.5 L-191.45 -166.45 -194.5 -165.3 -195.05 -165.1 -196.6 -164.5 -202.8 -161.85 -206.65 -160.1 Q-209.5 -158.75 -212.1 -158.1 L-213.65 -157.7 -219.2 -156.1 Q-221.95 -155.3 -225.1 -155.05 L-231.9 -154.6 Q-238.9 -153.95 -245.3 -151.6 L-248.3 -150.25 -249.1 -151.65 -249.55 -154.85 -243.7 -157.1 Q-231.15 -161.6 -224.9 -162.8 L-224.25 -162.95 -223.85 -162.9 -223.65 -163.05 -222.7 -164.15 Q-223.4 -166.6 -223.0 -167.15 L-222.6 -167.5 -222.95 -174.65 M-215.2 -164.15 L-223.65 -163.05 -215.2 -164.15" fill="#333333" fill-rule="evenodd" stroke="none"/>
    <path d="M-191.45 -166.45 L-191.35 -166.5" fill="none" stroke="#000000" stroke-linecap="round" stroke-linejoin="round" stroke-width="0.05"/>
    <path d="M-191.35 -166.5 Q-170.8 -173.95 -157.45 -171.8 L-156.15 -172.0 Q-151.5 -165.85 -149.15 -167.55 L-149.15 -168.15 Q-150.75 -170.05 -152.2 -173.35 -153.65 -176.55 -155.3 -177.3 L-190.3 -175.8 -192.0 -175.7 -194.15 -175.6 -195.75 -175.2 -199.15 -174.4 -203.65 -175.4 -210.9 -176.1 -218.35 -175.65 -222.95 -174.65 M-223.65 -163.05 L-215.2 -164.15 M-196.6 -164.5 Q-195.7 -162.45 -196.7 -161.3 -197.55 -160.3 -199.15 -160.3 -201.45 -160.3 -202.8 -161.85 L-206.65 -160.1 Q-209.5 -158.75 -212.1 -158.1 L-213.65 -157.7 -219.2 -156.1 Q-221.95 -155.3 -225.1 -155.05 L-231.9 -154.6 Q-238.9 -153.95 -245.3 -151.6 L-248.3 -150.25 -250.55 -149.25 Q-255.5 -147.15 -256.45 -147.15 L-258.05 -147.25 -257.2 -149.95 Q-256.75 -151.3 -253.35 -153.05 L-249.55 -154.85 -243.7 -157.1 Q-231.15 -161.6 -224.9 -162.8 L-224.25 -162.95 -223.65 -163.05 M-196.6 -164.5 L-195.05 -165.1 -194.5 -165.3 -191.45 -166.45 M-202.8 -161.85 L-196.6 -164.5 M-248.3 -150.25 L-249.1 -151.65 -249.55 -154.85" fill="none" stroke="#000000" stroke-linecap="round" stroke-linejoin="round" stroke-width="0.05"/>
  </g>
</svg>
