<?xml version="1.0" encoding="UTF-8" standalone="no"?>
<svg xmlns:ffdec="https://www.free-decompiler.com/flash" xmlns:xlink="http://www.w3.org/1999/xlink" ffdec:objectType="shape" height="33.35px" width="139.15px" xmlns="http://www.w3.org/2000/svg">
  <g transform="matrix(1.0, 0.0, 0.0, 1.0, 60.3, 26.3)">
    <path d="M-47.0 6.55 Q-48.35 5.85 -50.1 5.25 -56.45 3.1 -58.3 1.55 -59.35 0.0 -58.5 -1.5 -56.25 -3.75 -52.05 -1.0 L-49.45 0.3 Q-44.5 4.25 -42.95 2.45 -41.2 0.85 -44.8 -2.3 -45.75 -3.15 -53.05 -7.75 -59.8 -12.5 -59.8 -14.6 -59.8 -16.25 -59.05 -16.85 -55.3 -19.5 -51.55 -16.85 -45.45 -10.4 -41.05 -6.65 -36.65 -2.9 -32.8 -2.35 -28.95 -1.85 -29.05 -8.65 L-28.9 -14.9 Q-28.25 -18.8 -25.0 -18.75 -21.95 -18.75 -20.3 -17.5 -19.5 -16.85 -16.2 -11.85 -12.95 -6.9 -9.5 -6.7 -6.05 -6.5 -4.8 -9.65 L-1.9 -16.3 Q-0.25 -19.8 1.4 -21.85 3.0 -23.95 6.95 -23.65 10.9 -23.35 6.95 -8.55 7.15 -4.85 10.95 -8.2 L18.95 -19.45 Q24.0 -24.55 28.05 -25.7 29.9 -26.05 32.15 -25.15 34.9 -23.3 32.15 -19.4 L26.9 -14.3 Q22.95 -9.55 26.15 -7.1 28.0 -5.6 33.25 -8.35 L39.0 -12.5 44.05 -16.3 Q50.3 -20.75 56.05 -20.05 57.15 -19.8 57.85 -19.05 58.5 -18.3 57.55 -16.2 57.3 -15.4 53.65 -12.5 50.75 -10.15 51.55 -6.75 52.85 -5.2 56.8 -6.75 58.2 -7.4 63.15 -10.4 68.1 -13.4 72.3 -13.65 76.45 -13.95 77.7 -11.95 78.9 -9.95 77.95 -7.95 76.95 -6.0 74.35 -4.45 72.7 -3.45 68.25 -2.35 63.35 -1.15 61.25 -0.15 58.15 1.3 55.35 6.55 L-47.0 6.55" fill="url(#gradient0)" fill-rule="evenodd" stroke="none"/>
    <path d="M-47.0 6.55 Q-48.35 5.85 -50.1 5.25 -56.45 3.1 -58.3 1.55 -59.35 0.0 -58.5 -1.5 -56.25 -3.75 -52.05 -1.0 L-49.45 0.3 Q-44.5 4.25 -42.95 2.45 -41.2 0.85 -44.8 -2.3 -45.75 -3.15 -53.05 -7.75 -59.8 -12.5 -59.8 -14.6 -59.8 -16.25 -59.05 -16.85 -55.3 -19.5 -51.55 -16.85 -45.45 -10.4 -41.05 -6.65 -36.65 -2.9 -32.8 -2.35 -28.95 -1.85 -29.05 -8.65 L-28.9 -14.9 Q-28.25 -18.8 -25.0 -18.75 -21.95 -18.75 -20.3 -17.5 -19.5 -16.85 -16.2 -11.85 -12.95 -6.9 -9.5 -6.7 -6.05 -6.5 -4.8 -9.65 L-1.9 -16.3 Q-0.25 -19.8 1.4 -21.85 3.0 -23.95 6.95 -23.65 10.9 -23.35 6.95 -8.55 7.15 -4.85 10.95 -8.2 L18.95 -19.45 Q24.0 -24.55 28.05 -25.7 29.9 -26.05 32.15 -25.15 34.9 -23.3 32.15 -19.4 L26.9 -14.3 Q22.95 -9.55 26.15 -7.1 28.0 -5.6 33.25 -8.35 L39.0 -12.5 44.05 -16.3 Q50.3 -20.75 56.05 -20.05 57.15 -19.8 57.85 -19.05 58.5 -18.3 57.55 -16.2 57.3 -15.4 53.65 -12.5 50.75 -10.15 51.55 -6.75 52.85 -5.2 56.8 -6.75 58.2 -7.4 63.15 -10.4 68.1 -13.4 72.3 -13.65 76.45 -13.95 77.7 -11.95 78.9 -9.95 77.95 -7.95 76.95 -6.0 74.35 -4.45 72.7 -3.45 68.25 -2.35 63.35 -1.15 61.25 -0.15 58.15 1.3 55.35 6.55" fill="none" stroke="#000000" stroke-linecap="round" stroke-linejoin="round" stroke-width="1.0"/>
  </g>
  <defs>
    <linearGradient gradientTransform="matrix(3.0E-4, 0.0204, -0.0843, 0.0012, 9.35, -8.6)" gradientUnits="userSpaceOnUse" id="gradient0" spreadMethod="pad" x1="-819.2" x2="819.2">
      <stop offset="0.6666666666666666" stop-color="#97d6f0" stop-opacity="0.8"/>
      <stop offset="0.8549019607843137" stop-color="#97d6f0" stop-opacity="0.0"/>
    </linearGradient>
  </defs>
</svg>
