<?xml version="1.0" encoding="UTF-8" standalone="no"?>
<svg xmlns:ffdec="https://www.free-decompiler.com/flash" xmlns:xlink="http://www.w3.org/1999/xlink" ffdec:objectType="shape" height="65.25px" width="154.45px" xmlns="http://www.w3.org/2000/svg">
  <g transform="matrix(1.0, 0.0, 0.0, 1.0, 72.4, 59.05)">
    <path d="M-49.45 5.15 Q-51.55 3.55 -55.2 2.2 L-62.3 -0.05 Q-71.55 -1.75 -71.85 -4.8 -72.15 -7.9 -70.6 -8.9 -69.1 -9.9 -66.8 -9.9 -64.75 -9.9 -59.05 -7.3 -53.4 -4.7 -50.7 -4.3 L-45.05 -3.9 Q-42.1 -3.9 -41.3 -6.7 -40.5 -9.55 -44.45 -11.6 L-58.15 -18.45 Q-67.85 -23.2 -67.85 -28.8 -67.85 -31.35 -67.5 -31.75 L-64.85 -32.9 Q-62.55 -33.7 -59.6 -32.0 -56.7 -30.3 -53.3 -27.1 L-48.15 -22.35 -41.55 -16.4 Q-36.75 -12.05 -31.3 -13.15 -25.9 -14.3 -30.7 -20.15 L-38.65 -32.9 Q-45.45 -42.4 -45.5 -47.15 -45.55 -51.9 -43.35 -52.8 -41.2 -53.75 -38.3 -53.2 -35.45 -52.65 -33.85 -45.9 L-30.2 -35.6 Q-25.05 -17.25 -18.3 -17.0 -11.6 -16.7 -13.05 -27.55 L-15.55 -45.95 Q-16.5 -53.45 -14.65 -55.95 -12.75 -58.5 -9.35 -58.55 -5.95 -58.6 -4.45 -53.9 -2.95 -49.2 -4.0 -38.4 -5.1 -27.65 -4.4 -22.55 -3.75 -17.5 0.85 -17.4 5.4 -17.35 7.05 -22.3 8.7 -27.25 8.7 -36.2 8.7 -45.2 10.0 -49.1 11.95 -54.95 15.4 -54.95 18.0 -54.95 18.7 -50.6 19.35 -46.3 17.25 -37.8 15.15 -29.3 15.05 -22.75 14.95 -16.25 19.95 -16.2 24.95 -16.2 27.45 -20.8 L34.15 -33.25 Q42.2 -46.35 48.9 -46.35 51.45 -46.35 52.6 -45.2 53.75 -44.1 53.5 -40.65 53.25 -37.25 44.3 -28.95 35.35 -20.65 35.75 -16.15 36.15 -11.65 40.7 -12.8 45.2 -14.0 55.65 -23.15 66.1 -32.3 68.05 -32.85 73.25 -36.35 75.15 -34.3 76.8 -33.35 76.55 -30.05 76.45 -26.7 70.7 -24.55 L63.1 -21.4 Q60.35 -20.2 52.9 -14.85 45.45 -9.55 47.05 -7.0 48.65 -4.5 52.25 -5.55 55.8 -6.6 57.4 -7.35 59.0 -8.15 64.8 -10.25 70.6 -12.4 74.75 -12.75 78.9 -13.2 80.4 -11.0 81.85 -8.85 81.5 -7.0 81.15 -5.15 72.45 -4.15 63.75 -3.15 60.35 -2.1 56.95 -1.1 54.35 0.15 51.7 1.4 50.9 5.7 L-49.45 5.15" fill="url(#gradient0)" fill-rule="evenodd" stroke="none"/>
    <path d="M-49.45 5.15 Q-51.55 3.55 -55.2 2.2 L-62.3 -0.05 Q-71.55 -1.75 -71.85 -4.8 -72.15 -7.9 -70.6 -8.9 -69.1 -9.9 -66.8 -9.9 -64.75 -9.9 -59.05 -7.3 -53.4 -4.7 -50.7 -4.3 L-45.05 -3.9 Q-42.1 -3.9 -41.3 -6.7 -40.5 -9.55 -44.45 -11.6 L-58.15 -18.45 Q-67.85 -23.2 -67.85 -28.8 -67.85 -31.35 -67.5 -31.75 L-64.85 -32.9 Q-62.55 -33.7 -59.6 -32.0 -56.7 -30.3 -53.3 -27.1 L-48.15 -22.35 -41.55 -16.4 Q-36.75 -12.05 -31.3 -13.15 -25.9 -14.3 -30.7 -20.15 L-38.65 -32.9 Q-45.45 -42.4 -45.5 -47.15 -45.55 -51.9 -43.35 -52.8 -41.2 -53.75 -38.3 -53.2 -35.45 -52.65 -33.85 -45.9 L-30.2 -35.6 Q-25.05 -17.25 -18.3 -17.0 -11.6 -16.7 -13.05 -27.55 L-15.55 -45.95 Q-16.5 -53.45 -14.65 -55.95 -12.75 -58.5 -9.35 -58.55 -5.95 -58.6 -4.45 -53.9 -2.95 -49.2 -4.0 -38.4 -5.1 -27.65 -4.4 -22.55 -3.75 -17.5 0.85 -17.4 5.4 -17.35 7.05 -22.3 8.7 -27.25 8.7 -36.2 8.7 -45.2 10.0 -49.1 11.95 -54.95 15.4 -54.95 18.0 -54.95 18.7 -50.6 19.35 -46.3 17.25 -37.8 15.15 -29.3 15.05 -22.75 14.95 -16.25 19.95 -16.2 24.95 -16.2 27.45 -20.8 L34.15 -33.25 Q42.2 -46.35 48.9 -46.35 51.45 -46.35 52.6 -45.2 53.75 -44.1 53.5 -40.65 53.25 -37.25 44.3 -28.95 35.35 -20.65 35.75 -16.15 36.15 -11.65 40.7 -12.8 45.2 -14.0 55.65 -23.15 66.1 -32.3 68.05 -32.85 73.25 -36.35 75.15 -34.3 76.8 -33.35 76.55 -30.05 76.45 -26.7 70.7 -24.55 L63.1 -21.4 Q60.35 -20.2 52.9 -14.85 45.45 -9.55 47.05 -7.0 48.65 -4.5 52.25 -5.55 55.8 -6.6 57.4 -7.35 59.0 -8.15 64.8 -10.25 70.6 -12.4 74.75 -12.75 78.9 -13.2 80.4 -11.0 81.85 -8.85 81.5 -7.0 81.15 -5.15 72.45 -4.15 63.75 -3.15 60.35 -2.1 56.95 -1.1 54.35 0.15 51.7 1.4 50.9 5.7" fill="none" stroke="#000000" stroke-linecap="round" stroke-linejoin="round" stroke-width="1.0"/>
  </g>
  <defs>
    <linearGradient gradientTransform="matrix(4.0E-4, 0.0275, -0.0934, 0.0013, 3.7, -13.65)" gradientUnits="userSpaceOnUse" id="gradient0" spreadMethod="pad" x1="-819.2" x2="819.2">
      <stop offset="0.6666666666666666" stop-color="#97d6f0" stop-opacity="0.8"/>
      <stop offset="0.8549019607843137" stop-color="#97d6f0" stop-opacity="0.0"/>
    </linearGradient>
  </defs>
</svg>
