<?xml version="1.0" encoding="UTF-8" standalone="no"?>
<svg xmlns:ffdec="https://www.free-decompiler.com/flash" xmlns:xlink="http://www.w3.org/1999/xlink" ffdec:objectType="shape" height="70.95px" width="197.0px" xmlns="http://www.w3.org/2000/svg">
  <g transform="matrix(1.0, 0.0, 0.0, 1.0, 94.0, 76.85)">
    <path d="M66.1 -54.65 Q64.9 -52.8 59.45 -49.95 55.5 -47.95 51.95 -45.35 L60.7 -58.2 Q63.0 -60.45 65.15 -58.45 67.25 -56.5 66.1 -54.65 M21.8 -69.9 Q21.9 -67.7 19.1 -62.15 17.05 -58.25 15.65 -54.05 15.3 -65.35 15.3 -69.65 15.9 -72.85 18.8 -72.45 21.65 -72.1 21.8 -69.9 M36.55 -50.9 Q34.15 -48.3 32.2 -45.35 L35.15 -57.5 Q36.25 -59.85 38.4 -58.95 40.55 -58.05 40.2 -56.35 39.85 -54.6 36.55 -50.9 M75.6 -32.65 L79.85 -36.0 Q81.75 -37.5 85.7 -39.25 89.6 -41.0 91.85 -40.9 94.0 -40.8 94.4 -37.9 94.75 -35.05 91.6 -34.4 86.35 -34.4 75.6 -32.65 M57.8 -32.65 L65.65 -42.4 69.25 -42.3 Q70.85 -40.55 69.8 -39.15 68.7 -37.75 64.15 -35.85 60.85 -34.5 57.8 -32.65 M68.0 -19.9 L80.35 -22.05 Q82.95 -21.95 83.0 -19.6 83.0 -17.25 81.3 -16.9 79.6 -16.55 74.9 -18.1 L68.0 -19.9 M94.8 -13.25 Q99.1 -13.35 101.1 -12.4 103.05 -11.5 102.3 -8.65 101.55 -5.85 98.4 -6.5 93.55 -8.5 82.95 -11.0 L88.15 -12.5 94.8 -13.25 M-93.5 -9.8 Q-93.7 -12.7 -91.55 -13.2 -89.45 -13.75 -85.2 -12.75 -81.0 -11.8 -78.85 -10.7 L-74.05 -8.2 -90.1 -6.9 Q-93.35 -6.9 -93.5 -9.8 M-84.0 -45.75 Q-82.35 -48.15 -80.35 -47.25 -78.35 -46.35 -74.75 -41.3 -72.2 -37.7 -69.1 -34.5 -79.3 -39.4 -83.1 -41.35 -85.7 -43.35 -84.0 -45.75 M-9.0 -74.7 Q-8.25 -72.65 -9.3 -66.55 -10.1 -62.2 -10.2 -57.75 L-15.1 -72.55 Q-15.5 -75.8 -12.6 -76.25 -9.75 -76.75 -9.0 -74.7 M-25.5 -60.2 Q-24.55 -58.75 -24.2 -53.75 -24.0 -50.25 -23.2 -46.75 L-29.9 -57.35 Q-30.8 -59.8 -28.65 -60.7 -26.5 -61.65 -25.5 -60.2 M-46.35 -69.3 Q-45.0 -67.6 -44.05 -61.45 -43.45 -57.15 -42.1 -52.9 L-51.45 -65.35 Q-52.85 -68.3 -50.25 -69.65 -47.7 -71.05 -46.35 -69.3 M-56.0 -48.25 Q-54.55 -47.3 -52.4 -42.75 -50.95 -39.55 -48.95 -36.55 L-59.0 -44.0 Q-60.75 -46.0 -59.1 -47.6 -57.45 -49.25 -56.0 -48.25 M-73.0 -19.85 Q-71.25 -19.95 -66.85 -17.6 -63.75 -15.95 -60.4 -14.75 L-72.9 -14.65 Q-75.45 -15.2 -75.1 -17.5 -74.75 -19.8 -73.0 -19.85" fill="#abd6e7" fill-opacity="0.8" fill-rule="evenodd" stroke="none"/>
    <path d="M66.1 -54.65 Q64.9 -52.8 59.45 -49.95 55.5 -47.95 51.95 -45.35 L60.7 -58.2 Q63.0 -60.45 65.15 -58.45 67.25 -56.5 66.1 -54.65 M21.8 -69.9 Q21.9 -67.7 19.1 -62.15 17.05 -58.25 15.65 -54.05 15.3 -65.35 15.3 -69.65 15.9 -72.85 18.8 -72.45 21.65 -72.1 21.8 -69.9 M36.55 -50.9 Q34.15 -48.3 32.2 -45.35 L35.15 -57.5 Q36.25 -59.85 38.4 -58.95 40.55 -58.05 40.2 -56.35 39.85 -54.6 36.55 -50.9 M75.6 -32.65 Q86.35 -34.4 91.6 -34.4 94.75 -35.05 94.4 -37.9 94.0 -40.8 91.85 -40.9 89.6 -41.0 85.7 -39.25 81.75 -37.5 79.85 -36.0 L75.6 -32.65 M57.8 -32.65 L65.65 -42.4 69.25 -42.3 Q70.85 -40.55 69.8 -39.15 68.7 -37.75 64.15 -35.85 60.85 -34.5 57.8 -32.65 M68.0 -19.9 L80.35 -22.05 Q82.95 -21.95 83.0 -19.6 83.0 -17.25 81.3 -16.9 79.6 -16.55 74.9 -18.1 L68.0 -19.9 M94.8 -13.25 L88.15 -12.5 82.95 -11.0 Q93.55 -8.5 98.4 -6.5 101.55 -5.85 102.3 -8.65 103.05 -11.5 101.1 -12.4 99.1 -13.35 94.8 -13.25 M-93.5 -9.8 Q-93.7 -12.7 -91.55 -13.2 -89.45 -13.75 -85.2 -12.75 -81.0 -11.8 -78.85 -10.7 L-74.05 -8.2 -90.1 -6.9 Q-93.35 -6.9 -93.5 -9.8 M-84.0 -45.75 Q-82.35 -48.15 -80.35 -47.25 -78.35 -46.35 -74.75 -41.3 -72.2 -37.7 -69.1 -34.5 -79.3 -39.4 -83.1 -41.35 -85.7 -43.35 -84.0 -45.75 M-9.0 -74.7 Q-8.25 -72.65 -9.3 -66.55 -10.1 -62.2 -10.2 -57.75 L-15.1 -72.55 Q-15.5 -75.8 -12.6 -76.25 -9.75 -76.75 -9.0 -74.7 M-25.5 -60.2 Q-24.55 -58.75 -24.2 -53.75 -24.0 -50.25 -23.2 -46.75 L-29.9 -57.35 Q-30.8 -59.8 -28.65 -60.7 -26.5 -61.65 -25.5 -60.2 M-46.35 -69.3 Q-45.0 -67.6 -44.05 -61.45 -43.45 -57.15 -42.1 -52.9 L-51.45 -65.35 Q-52.85 -68.3 -50.25 -69.65 -47.7 -71.05 -46.35 -69.3 M-56.0 -48.25 Q-54.55 -47.3 -52.4 -42.75 -50.95 -39.55 -48.95 -36.55 L-59.0 -44.0 Q-60.75 -46.0 -59.1 -47.6 -57.45 -49.25 -56.0 -48.25 M-73.0 -19.85 Q-71.25 -19.95 -66.85 -17.6 -63.75 -15.95 -60.4 -14.75 L-72.9 -14.65 Q-75.45 -15.2 -75.1 -17.5 -74.75 -19.8 -73.0 -19.85 Z" fill="none" stroke="#000000" stroke-linecap="round" stroke-linejoin="round" stroke-width="1.0"/>
  </g>
</svg>
