<?xml version="1.0" encoding="UTF-8" standalone="no"?>
<svg xmlns:ffdec="https://www.free-decompiler.com/flash" xmlns:xlink="http://www.w3.org/1999/xlink" ffdec:objectType="shape" height="73.6px" width="218.85px" xmlns="http://www.w3.org/2000/svg">
  <g transform="matrix(1.0, 0.0, 0.0, 1.0, 106.35, 90.9)">
    <path d="M9.45 -89.2 Q9.85 -87.9 8.55 -84.2 7.6 -81.6 7.15 -78.9 L4.8 -88.3 Q4.8 -90.3 6.95 -90.4 9.05 -90.5 9.45 -89.2 M111.3 -22.1 Q112.55 -21.1 111.55 -19.2 110.55 -17.3 108.4 -18.3 L99.15 -25.1 Q102.25 -24.2 105.5 -23.75 110.0 -23.1 111.3 -22.1 M86.35 -59.6 Q90.5 -61.6 92.1 -61.45 93.7 -61.35 93.95 -59.2 94.15 -57.05 91.8 -56.65 L80.3 -57.25 Q83.45 -58.2 86.35 -59.6 M-104.85 -22.2 Q-103.45 -23.0 -98.9 -22.9 L-92.45 -23.25 -102.6 -17.95 Q-104.9 -17.35 -105.6 -19.4 -106.3 -21.4 -104.85 -22.2 M-68.65 -62.6 L-80.1 -61.45 Q-82.45 -61.75 -82.35 -63.85 -82.25 -66.0 -80.6 -66.2 -79.0 -66.45 -74.8 -64.65 -71.8 -63.4 -68.65 -62.6" fill="#abd6e7" fill-opacity="0.8" fill-rule="evenodd" stroke="none"/>
    <path d="M9.45 -89.2 Q9.85 -87.9 8.55 -84.2 7.6 -81.6 7.15 -78.9 L4.8 -88.3 Q4.8 -90.3 6.95 -90.4 9.05 -90.5 9.45 -89.2 M86.35 -59.6 Q83.45 -58.2 80.3 -57.25 L91.8 -56.65 Q94.15 -57.05 93.95 -59.2 93.7 -61.35 92.1 -61.45 90.5 -61.6 86.35 -59.6 M111.3 -22.1 Q110.0 -23.1 105.5 -23.75 102.25 -24.2 99.15 -25.1 L108.4 -18.3 Q110.55 -17.3 111.55 -19.2 112.55 -21.1 111.3 -22.1 M-104.85 -22.2 Q-103.45 -23.0 -98.9 -22.9 L-92.45 -23.25 -102.6 -17.95 Q-104.9 -17.35 -105.6 -19.4 -106.3 -21.4 -104.85 -22.2 M-68.65 -62.6 L-80.1 -61.45 Q-82.45 -61.75 -82.35 -63.85 -82.25 -66.0 -80.6 -66.2 -79.0 -66.45 -74.8 -64.65 -71.8 -63.4 -68.65 -62.6 Z" fill="none" stroke="#000000" stroke-linecap="round" stroke-linejoin="round" stroke-width="1.0"/>
  </g>
</svg>
