<?xml version="1.0" encoding="UTF-8" standalone="no"?>
<svg xmlns:ffdec="https://www.free-decompiler.com/flash" xmlns:xlink="http://www.w3.org/1999/xlink" ffdec:objectType="shape" height="57.0px" width="197.0px" xmlns="http://www.w3.org/2000/svg">
  <g transform="matrix(1.0, 0.0, 0.0, 1.0, 94.0, 62.9)">
    <path d="M59.45 -41.25 Q55.5 -39.65 51.95 -37.55 L60.7 -47.85 Q63.0 -49.65 65.15 -48.05 67.25 -46.5 66.1 -45.0 64.9 -43.55 59.45 -41.25 M38.4 -48.45 Q40.55 -47.75 40.2 -46.35 39.85 -44.95 36.55 -42.0 34.15 -39.95 32.2 -37.55 L35.15 -47.3 Q36.25 -49.15 38.4 -48.45 M19.1 -51.0 Q17.05 -47.9 15.65 -44.55 15.3 -53.55 15.3 -57.0 15.9 -59.55 18.8 -59.25 21.65 -58.95 21.8 -57.2 21.9 -55.45 19.1 -51.0 M80.35 -18.95 Q82.95 -18.85 83.0 -17.0 83.0 -15.1 81.3 -14.8 79.6 -14.55 74.9 -15.8 L68.0 -17.2 80.35 -18.95 M65.65 -35.2 Q67.7 -36.55 69.25 -35.15 70.85 -33.75 69.8 -32.6 68.7 -31.5 64.15 -29.95 60.85 -28.9 57.8 -27.4 L65.65 -35.2 M94.8 -11.9 Q99.1 -12.0 101.1 -11.2 103.05 -10.5 102.3 -8.2 101.55 -6.0 98.4 -6.5 93.55 -8.1 82.95 -10.1 L88.15 -11.3 94.8 -11.9 M75.6 -27.4 Q77.9 -28.95 79.85 -30.1 81.75 -31.3 85.7 -32.7 89.6 -34.1 91.85 -34.0 94.0 -33.95 94.4 -31.6 94.75 -29.35 91.6 -28.8 L75.6 -27.4 M-84.0 -37.9 Q-82.35 -39.8 -80.35 -39.1 -78.35 -38.35 -74.75 -34.35 -72.2 -31.45 -69.1 -28.9 L-83.1 -34.35 Q-85.7 -35.95 -84.0 -37.9 M-91.55 -11.85 L-85.2 -11.5 Q-81.0 -10.75 -78.85 -9.85 L-74.05 -7.85 -90.1 -6.8 Q-93.35 -6.8 -93.5 -9.15 -93.7 -11.45 -91.55 -11.85 M-24.2 -44.3 Q-24.0 -41.5 -23.2 -38.7 L-29.9 -47.15 Q-30.8 -49.15 -28.65 -49.85 -26.5 -50.6 -25.5 -49.45 -24.55 -48.3 -24.2 -44.3 M-9.3 -54.55 Q-10.1 -51.05 -10.2 -47.5 L-15.1 -59.35 Q-15.5 -61.95 -12.6 -62.3 -9.75 -62.7 -9.0 -61.05 -8.25 -59.4 -9.3 -54.55 M-44.05 -50.45 Q-43.45 -47.0 -42.1 -43.6 L-51.45 -53.55 Q-52.85 -55.95 -50.25 -57.0 -47.7 -58.15 -46.35 -56.75 -45.0 -55.35 -44.05 -50.45 M-56.0 -39.9 Q-54.55 -39.15 -52.4 -35.5 -50.95 -32.95 -48.95 -30.55 L-59.0 -36.5 Q-60.75 -38.1 -59.1 -39.35 -57.45 -40.7 -56.0 -39.9 M-66.85 -15.4 Q-63.75 -14.05 -60.4 -13.1 L-72.9 -13.0 Q-75.45 -13.45 -75.1 -15.3 -74.75 -17.15 -73.0 -17.2 -71.25 -17.25 -66.85 -15.4" fill="#abd6e7" fill-opacity="0.8" fill-rule="evenodd" stroke="none"/>
    <path d="M59.45 -41.25 Q55.5 -39.65 51.95 -37.55 L60.7 -47.85 Q63.0 -49.65 65.15 -48.05 67.25 -46.5 66.1 -45.0 64.9 -43.55 59.45 -41.25 M38.4 -48.45 Q40.55 -47.75 40.2 -46.35 39.85 -44.95 36.55 -42.0 34.15 -39.95 32.2 -37.55 L35.15 -47.3 Q36.25 -49.15 38.4 -48.45 M19.1 -51.0 Q17.05 -47.9 15.65 -44.55 15.3 -53.55 15.3 -57.0 15.9 -59.55 18.8 -59.25 21.65 -58.95 21.8 -57.2 21.9 -55.45 19.1 -51.0 M80.35 -18.95 Q82.95 -18.85 83.0 -17.0 83.0 -15.1 81.3 -14.8 79.6 -14.55 74.9 -15.8 L68.0 -17.2 80.35 -18.95 M65.65 -35.2 Q67.7 -36.55 69.25 -35.15 70.85 -33.75 69.8 -32.6 68.7 -31.5 64.15 -29.95 60.85 -28.9 57.8 -27.4 L65.65 -35.2 M75.6 -27.4 L91.6 -28.8 Q94.75 -29.35 94.4 -31.6 94.0 -33.95 91.85 -34.0 89.6 -34.1 85.7 -32.7 81.75 -31.3 79.85 -30.1 77.9 -28.95 75.6 -27.4 M94.8 -11.9 L88.15 -11.3 82.95 -10.1 Q93.55 -8.1 98.4 -6.5 101.55 -6.0 102.3 -8.2 103.05 -10.5 101.1 -11.2 99.1 -12.0 94.8 -11.9 M-84.0 -37.9 Q-82.35 -39.8 -80.35 -39.1 -78.35 -38.35 -74.75 -34.35 -72.2 -31.45 -69.1 -28.9 L-83.1 -34.35 Q-85.7 -35.95 -84.0 -37.9 M-91.55 -11.85 L-85.2 -11.5 Q-81.0 -10.75 -78.85 -9.85 L-74.05 -7.85 -90.1 -6.8 Q-93.35 -6.8 -93.5 -9.15 -93.7 -11.45 -91.55 -11.85 M-24.2 -44.3 Q-24.0 -41.5 -23.2 -38.7 L-29.9 -47.15 Q-30.8 -49.15 -28.65 -49.85 -26.5 -50.6 -25.5 -49.45 -24.55 -48.3 -24.2 -44.3 M-9.3 -54.55 Q-10.1 -51.05 -10.2 -47.5 L-15.1 -59.35 Q-15.5 -61.95 -12.6 -62.3 -9.75 -62.7 -9.0 -61.05 -8.25 -59.4 -9.3 -54.55 M-44.05 -50.45 Q-43.45 -47.0 -42.1 -43.6 L-51.45 -53.55 Q-52.85 -55.95 -50.25 -57.0 -47.7 -58.15 -46.35 -56.75 -45.0 -55.35 -44.05 -50.45 M-56.0 -39.9 Q-54.55 -39.15 -52.4 -35.5 -50.95 -32.95 -48.95 -30.55 L-59.0 -36.5 Q-60.75 -38.1 -59.1 -39.35 -57.45 -40.7 -56.0 -39.9 M-66.85 -15.4 Q-63.75 -14.05 -60.4 -13.1 L-72.9 -13.0 Q-75.45 -13.45 -75.1 -15.3 -74.75 -17.15 -73.0 -17.2 -71.25 -17.25 -66.85 -15.4 Z" fill="none" stroke="#000000" stroke-linecap="round" stroke-linejoin="round" stroke-width="1.0"/>
  </g>
</svg>
