<?xml version="1.0" encoding="UTF-8" standalone="no"?>
<svg xmlns:ffdec="https://www.free-decompiler.com/flash" xmlns:xlink="http://www.w3.org/1999/xlink" ffdec:objectType="shape" height="55.2px" width="218.85px" xmlns="http://www.w3.org/2000/svg">
  <g transform="matrix(1.0, 0.0, 0.0, 1.0, 106.85, 62.9)">
    <path d="M6.55 -57.05 Q5.6 -54.8 5.15 -52.5 L2.8 -60.6 Q2.8 -62.3 4.95 -62.4 7.05 -62.45 7.45 -61.35 7.85 -60.25 6.55 -57.05 M105.0 -13.3 Q109.5 -12.75 110.8 -11.9 112.05 -11.0 111.05 -9.4 110.05 -7.75 107.9 -8.6 L98.65 -14.45 105.0 -13.3 M-99.4 -12.55 L-92.95 -12.85 Q-100.3 -9.5 -103.1 -8.3 -105.4 -7.8 -106.1 -9.55 -106.8 -11.3 -105.35 -11.95 -103.95 -12.65 -99.4 -12.55 M-85.6 -38.6 Q-84.0 -38.8 -79.8 -37.25 -76.8 -36.2 -73.65 -35.5 L-85.1 -34.5 Q-87.45 -34.75 -87.35 -36.55 -87.25 -38.4 -85.6 -38.6" fill="#abd6e7" fill-opacity="0.8" fill-rule="evenodd" stroke="none"/>
    <path d="M6.55 -57.05 Q5.6 -54.8 5.15 -52.5 L2.8 -60.6 Q2.8 -62.3 4.95 -62.4 7.05 -62.45 7.45 -61.35 7.85 -60.25 6.55 -57.05 M105.0 -13.3 L98.65 -14.45 107.9 -8.6 Q110.05 -7.75 111.05 -9.4 112.05 -11.0 110.8 -11.9 109.5 -12.75 105.0 -13.3 M-99.4 -12.55 L-92.95 -12.85 Q-100.3 -9.5 -103.1 -8.3 -105.4 -7.8 -106.1 -9.55 -106.8 -11.3 -105.35 -11.95 -103.95 -12.65 -99.4 -12.55 M-85.6 -38.6 Q-84.0 -38.8 -79.8 -37.25 -76.8 -36.2 -73.65 -35.5 L-85.1 -34.5 Q-87.45 -34.75 -87.35 -36.55 -87.25 -38.4 -85.6 -38.6 Z" fill="none" stroke="#000000" stroke-linecap="round" stroke-linejoin="round" stroke-width="1.0"/>
    <path d="M93.45 -38.15 Q93.65 -36.3 91.3 -35.95 L79.8 -36.45 Q82.95 -37.3 85.85 -38.5 90.0 -40.2 91.6 -40.1 93.2 -40.0 93.45 -38.15" fill="#abd6e7" fill-opacity="0.8" fill-rule="evenodd" stroke="none"/>
    <path d="M93.45 -38.15 Q93.2 -40.0 91.6 -40.1 90.0 -40.2 85.85 -38.5 82.95 -37.3 79.8 -36.45 L91.3 -35.95 Q93.65 -36.3 93.45 -38.15 Z" fill="none" stroke="#000000" stroke-linecap="round" stroke-linejoin="round" stroke-width="1.0"/>
  </g>
</svg>
