<?xml version="1.0" encoding="UTF-8" standalone="no"?>
<svg xmlns:ffdec="https://www.free-decompiler.com/flash" xmlns:xlink="http://www.w3.org/1999/xlink" ffdec:objectType="shape" height="80.3px" width="152.1px" xmlns="http://www.w3.org/2000/svg">
  <g transform="matrix(1.0, 0.0, 0.0, 1.0, 77.55, 34.8)">
    <path d="M-49.0 12.95 L-49.0 -19.35 Q-39.6 -22.4 -30.3 -24.55 -10.25 -29.1 10.1 -30.55 L31.8 -31.3 41.55 -2.75 -49.0 12.95 M47.35 14.3 L71.05 11.7 Q53.8 19.55 34.8 21.45 L20.6 23.0 Q-16.9 27.3 -53.5 36.1 -63.9 38.7 -74.05 42.0 L-49.0 29.9 Q-29.2 20.8 -7.95 16.6 10.7 12.65 29.8 13.3 L47.35 14.3" fill="#b08864" fill-rule="evenodd" stroke="none"/>
    <path d="M-49.0 12.95 L41.55 -2.75 47.35 14.3 29.8 13.3 Q10.7 12.65 -7.95 16.6 -29.2 20.8 -49.0 29.9 L-49.0 12.95" fill="#733238" fill-rule="evenodd" stroke="none"/>
    <path d="M41.55 -2.75 L31.8 -31.3 10.1 -30.55 Q-10.25 -29.1 -30.3 -24.55 -39.6 -22.4 -49.0 -19.35 L-49.0 12.95 41.55 -2.75 47.35 14.3 71.05 11.7 Q53.8 19.55 34.8 21.45 L20.6 23.0 Q-16.9 27.3 -53.5 36.1 -63.9 38.7 -74.05 42.0 L-49.0 29.9 -49.0 12.95 M47.35 14.3 L29.8 13.3 Q10.7 12.65 -7.95 16.6 -29.2 20.8 -49.0 29.9" fill="none" stroke="#000000" stroke-linecap="round" stroke-linejoin="round" stroke-width="7.0"/>
    <path d="M-49.0 12.95 L41.55 -2.75 47.35 14.3 29.8 13.3 Q10.7 12.65 -7.95 16.6 -29.2 20.8 -49.0 29.9 L-49.0 12.95" fill="#733238" fill-rule="evenodd" stroke="none"/>
    <path d="M-49.0 12.95 L-49.0 -19.35 Q-39.6 -22.4 -30.3 -24.55 -10.25 -29.1 10.1 -30.55 L31.8 -31.3 41.55 -2.75 -49.0 12.95" fill="#b08864" fill-rule="evenodd" stroke="none"/>
    <path d="M41.55 -2.75 L31.8 -31.3 10.1 -30.55 Q-10.25 -29.1 -30.3 -24.55 -39.6 -22.4 -49.0 -19.35 L-49.0 12.95 41.55 -2.75 47.35 14.3 M-49.0 29.9 L-49.0 12.95" fill="none" stroke="#000000" stroke-linecap="round" stroke-linejoin="round" stroke-width="0.05"/>
    <path d="M28.85 -4.6 L30.25 -3.8 31.95 -2.35 Q39.35 4.9 40.4 15.4 L34.75 16.25 Q34.3 5.05 28.85 -4.6 M-9.95 23.65 L-15.6 24.5 -19.05 8.35 -21.5 3.65 Q-18.7 5.05 -16.75 7.45 -10.9 14.45 -9.95 23.65 M5.25 0.35 Q10.9 4.4 13.3 10.95 L15.45 19.5 9.8 20.35 Q9.3 9.05 3.9 -0.5 L5.25 0.35 M-33.25 27.85 L-38.9 28.7 Q-39.4 17.4 -44.8 7.85 L-43.45 8.75 Q-36.45 13.75 -34.5 22.15 L-33.25 27.85" fill="#ffffff" fill-rule="evenodd" stroke="none"/>
    <path d="M28.85 -4.6 Q34.3 5.05 34.75 16.25 L40.4 15.4 Q39.35 4.9 31.95 -2.35 L30.25 -3.8 28.85 -4.6 M27.3 -6.25 Q40.4 0.25 41.5 15.7 L41.5 16.0 34.2 17.35 Q33.35 5.0 27.15 -5.6 26.8 -6.2 27.3 -6.25 M16.55 20.1 L9.25 21.45 2.65 -2.15 Q15.45 4.65 16.55 19.8 L16.55 20.1 M5.25 0.35 L3.9 -0.5 Q9.3 9.05 9.8 20.35 L15.45 19.5 13.3 10.95 Q10.9 4.4 5.25 0.35 M-9.95 23.65 Q-10.9 14.45 -16.75 7.45 -18.7 5.05 -21.5 3.65 L-19.05 8.35 -15.6 24.5 -9.95 23.65 M-8.85 24.25 L-16.15 25.6 -20.0 8.75 -23.35 2.15 Q-12.9 6.0 -10.25 17.7 L-8.85 24.25 M-34.45 18.95 L-32.15 28.45 -39.45 29.8 Q-40.3 17.5 -46.5 6.85 L-46.65 6.35 Q-40.9 7.7 -37.6 12.9 -35.75 15.85 -34.45 18.95 M-33.25 27.85 L-34.5 22.15 Q-36.45 13.75 -43.45 8.75 L-44.8 7.85 Q-39.4 17.4 -38.9 28.7 L-33.25 27.85" fill="#000000" fill-rule="evenodd" stroke="none"/>
    <path d="M71.05 11.7 Q58.95 17.4 45.65 19.45 L4.7 25.4 Q-14.4 27.8 -33.55 31.25 -54.2 34.95 -74.05 42.0 -57.55 32.9 -39.95 25.95 -19.95 18.1 1.2 14.95 15.3 12.75 29.75 13.85 50.65 15.95 71.05 11.7" fill="#b08864" fill-rule="evenodd" stroke="none"/>
    <path d="M71.05 11.7 Q50.65 15.95 29.75 13.85 15.3 12.75 1.2 14.95 -19.95 18.1 -39.95 25.95 -57.55 32.9 -74.05 42.0" fill="none" stroke="#000000" stroke-linecap="round" stroke-linejoin="round" stroke-width="0.05"/>
    <path d="M-74.05 42.0 Q-54.2 34.95 -33.55 31.25 -14.4 27.8 4.7 25.4 L45.65 19.45 Q58.95 17.4 71.05 11.7" fill="none" stroke="#000000" stroke-linecap="round" stroke-linejoin="round" stroke-width="0.05"/>
  </g>
</svg>
