<?xml version="1.0" encoding="UTF-8" standalone="no"?>
<svg xmlns:ffdec="https://www.free-decompiler.com/flash" xmlns:xlink="http://www.w3.org/1999/xlink" ffdec:objectType="shape" height="61.2px" width="96.35px" xmlns="http://www.w3.org/2000/svg">
  <g transform="matrix(1.0, 0.0, 0.0, 1.0, 49.0, 31.3)">
    <path d="M41.55 -2.75 L47.35 14.3 29.8 13.3 Q21.75 13.2 13.75 13.5 5.3 14.05 -3.0 15.65 L-12.9 17.55 Q-21.9 19.65 -30.55 22.65 -40.1 25.9 -49.0 29.9 L-49.0 12.95 41.55 -2.75" fill="#733238" fill-rule="evenodd" stroke="none"/>
    <path d="M-49.0 12.95 L-49.0 -19.35 Q-12.6 -31.35 31.8 -31.3 L41.55 -2.75 -49.0 12.95" fill="#b08864" fill-rule="evenodd" stroke="none"/>
    <path d="M-49.0 12.95 L-49.0 -19.35 Q-12.6 -31.35 31.8 -31.3 L41.55 -2.75 47.35 14.3 M-49.0 29.9 L-49.0 12.95 41.55 -2.75" fill="none" stroke="#000000" stroke-linecap="round" stroke-linejoin="round" stroke-width="0.05"/>
  </g>
</svg>
