<?xml version="1.0" encoding="UTF-8" standalone="no"?>
<svg xmlns:ffdec="https://www.free-decompiler.com/flash" xmlns:xlink="http://www.w3.org/1999/xlink" ffdec:objectType="shape" height="30.3px" width="145.1px" xmlns="http://www.w3.org/2000/svg">
  <g transform="matrix(1.0, 0.0, 0.0, 1.0, 74.05, -11.7)">
    <path d="M-74.05 42.0 Q-64.15 36.3 -53.85 31.95 L-49.0 29.9 Q-40.1 25.9 -30.55 22.65 -21.9 19.65 -12.9 17.55 L-3.0 15.65 Q5.3 14.05 13.75 13.5 21.75 13.2 29.8 13.3 L47.35 14.3 55.6 14.0 Q63.3 13.65 71.05 11.7 60.8 16.4 51.2 18.65 41.6 20.85 20.6 23.0 -0.45 25.15 -23.25 29.5 L-50.5 34.8 Q-54.95 35.75 -74.05 42.0" fill="#b08864" fill-rule="evenodd" stroke="none"/>
    <path d="M-74.05 42.0 Q-64.15 36.3 -53.85 31.95 L-49.0 29.9 Q-40.1 25.9 -30.55 22.65 -21.9 19.65 -12.9 17.55 L-3.0 15.65 Q5.3 14.05 13.75 13.5 21.75 13.2 29.8 13.3 L47.35 14.3 55.6 14.0 Q63.3 13.65 71.05 11.7" fill="none" stroke="#000000" stroke-linecap="round" stroke-linejoin="round" stroke-width="0.05"/>
    <path d="M71.05 11.7 Q60.8 16.4 51.2 18.65 41.6 20.85 20.6 23.0 -0.45 25.15 -23.25 29.5 L-50.5 34.8 Q-54.95 35.75 -74.05 42.0" fill="none" stroke="#000000" stroke-linecap="round" stroke-linejoin="round" stroke-width="0.05"/>
  </g>
</svg>
