<?xml version="1.0" encoding="UTF-8" standalone="no"?>
<svg xmlns:ffdec="https://www.free-decompiler.com/flash" xmlns:xlink="http://www.w3.org/1999/xlink" ffdec:objectType="shape" height="99.85px" width="738.45px" xmlns="http://www.w3.org/2000/svg">
  <g transform="matrix(1.0, 0.0, 0.0, 1.0, 369.2, 49.45)">
    <path d="M180.05 -7.25 Q184.35 -9.4 198.9 -7.85 198.4 -9.05 198.4 -10.7 198.4 -12.9 199.7 -14.45 201.1 -16.1 203.4 -16.1 203.9 -16.1 208.8 -13.9 213.7 -11.7 215.65 -11.7 215.15 -12.7 215.15 -14.1 215.15 -15.15 216.6 -16.6 218.0 -18.05 218.0 -18.85 218.0 -20.1 217.0 -20.85 216.0 -21.6 216.0 -22.85 216.0 -25.75 222.7 -28.25 229.4 -30.8 234.55 -29.85 239.65 -28.9 246.45 -25.95 L246.95 -25.7 246.5 -25.95 248.3 -25.55 249.9 -22.8 Q251.1 -20.25 249.05 -19.4 247.0 -18.55 245.3 -15.9 243.55 -13.3 231.1 -6.8 218.65 -0.25 195.75 3.05 L196.2 3.6 Q196.5 4.0 196.5 5.55 196.5 6.8 195.35 7.5 L192.15 8.65 Q185.95 10.6 181.5 14.55 174.0 21.25 163.5 20.75 150.6 18.8 142.65 18.65 141.55 23.5 139.15 26.7 134.65 32.8 123.5 32.8 121.1 32.8 115.85 29.65 L114.75 30.15 95.6 31.0 Q95.2 31.0 94.9 31.5 L94.0 32.65 Q91.95 34.25 85.1 34.25 77.65 34.25 75.4 32.25 74.35 31.4 74.35 29.35 74.35 26.95 84.45 23.5 88.8 22.0 91.4 21.25 L93.0 19.25 Q96.2 15.6 98.35 15.6 L107.4 16.05 Q112.85 14.8 124.25 14.8 124.0 14.05 124.0 12.55 124.0 10.0 124.7 9.3 125.5 8.5 128.95 8.25 L140.2 7.65 161.75 5.9 Q161.25 4.4 161.25 3.3 161.25 0.8 163.5 -0.55 167.2 -2.85 175.65 0.3 177.9 -1.65 177.9 -2.6 177.9 -6.2 180.05 -7.25 M287.5 -9.6 Q287.5 -17.7 298.0 -13.45 302.25 -14.0 302.65 -17.0 303.15 -21.05 304.9 -22.45 L307.55 -22.35 311.7 -20.95 Q315.0 -20.1 317.95 -20.95 L317.9 -21.95 Q317.9 -24.05 319.65 -25.7 321.85 -27.85 326.15 -27.85 329.75 -27.85 331.6 -26.8 L344.25 -26.85 Q363.05 -26.85 367.75 -23.95 370.15 -22.5 368.75 -20.95 368.75 -18.8 365.5 -17.45 363.8 -13.05 354.7 -6.1 343.4 2.55 336.9 2.55 L333.4 2.2 Q332.7 6.4 326.65 6.4 L326.15 6.4 Q323.2 8.3 317.1 8.75 305.85 9.6 298.25 11.05 L297.75 12.9 Q296.7 15.15 289.9 15.15 L286.65 14.55 286.2 14.75 282.4 17.4 Q280.75 18.5 278.0 18.5 L275.55 18.15 Q269.3 19.95 258.5 20.4 L255.65 21.8 248.25 21.95 240.25 21.55 240.5 21.2 236.85 22.0 233.15 23.05 219.4 29.9 Q215.05 29.9 213.15 28.7 L212.9 28.55 209.3 29.5 Q209.3 31.8 209.0 32.65 208.6 33.95 207.0 33.65 L202.45 32.2 200.45 31.75 187.75 34.85 186.55 36.7 Q184.45 39.45 175.3 37.7 L164.7 39.95 164.1 40.5 Q161.55 42.6 156.95 41.5 L147.5 43.15 Q147.2 46.8 145.15 46.8 140.9 45.8 137.0 45.8 135.35 45.8 134.65 46.5 134.25 46.95 133.6 48.1 132.0 50.4 125.5 50.4 113.2 50.4 103.15 47.9 L96.35 48.0 Q77.15 48.0 72.9 45.25 71.5 44.4 71.8 43.3 L72.35 42.25 72.45 39.25 Q72.75 38.25 74.6 37.9 76.1 37.65 90.9 37.6 92.4 35.8 95.15 35.8 96.4 35.8 101.35 37.25 L102.35 37.55 110.7 37.15 Q110.75 35.75 111.15 35.25 113.65 32.45 132.4 34.8 134.35 31.0 136.5 30.05 137.95 29.4 140.3 30.1 L144.2 30.95 Q146.5 30.9 148.5 28.65 154.9 21.55 165.9 23.35 171.4 24.25 175.9 26.55 177.25 26.55 178.0 24.7 179.05 21.95 179.8 21.2 183.6 16.9 198.4 21.55 198.6 18.3 199.75 17.4 201.3 16.15 206.75 16.15 207.95 16.15 211.95 17.35 220.65 14.3 222.75 13.0 228.9 9.15 242.05 8.0 L257.2 7.3 Q257.7 6.85 258.45 6.6 L264.25 5.9 268.75 4.8 Q268.7 3.3 269.45 2.05 271.05 -0.45 275.75 -0.45 278.95 -0.45 280.7 0.75 L281.65 1.5 282.55 1.2 Q282.4 -0.3 283.05 -2.1 284.4 -5.7 289.0 -5.85 287.5 -7.35 287.5 -9.6 M-129.25 18.95 Q-131.45 21.05 -135.35 21.05 L-136.55 20.7 Q-139.9 22.05 -148.1 22.05 -158.7 22.05 -161.2 19.4 -162.0 18.55 -161.95 17.5 L-161.75 16.8 Q-165.7 17.15 -166.1 18.35 L-166.6 19.5 Q-167.2 20.05 -169.6 20.05 -188.1 20.05 -190.1 16.8 -190.45 16.25 -190.55 13.75 -190.6 11.85 -192.35 10.8 -196.65 8.2 -202.3 5.35 -205.85 3.4 -205.85 1.65 -205.85 -3.45 -200.35 -3.45 -180.45 -3.45 -171.8 0.1 L-163.5 3.45 Q-157.4 5.5 -148.1 6.9 -134.0 9.0 -131.55 9.85 -127.45 11.25 -127.45 15.15 -127.45 17.25 -129.25 18.95 M-155.55 37.2 Q-155.5 37.65 -155.6 38.1 -155.6 40.95 -157.25 41.9 -160.9 44.0 -173.75 44.0 -176.7 44.0 -178.05 42.75 L-199.25 43.4 Q-203.25 41.85 -211.95 39.6 -220.65 37.3 -223.8 37.3 -226.95 37.3 -228.9 39.0 -230.9 40.65 -240.6 40.65 -249.25 40.65 -250.45 39.65 L-251.0 38.6 -251.55 37.75 Q-259.7 37.9 -264.75 36.05 L-275.35 34.8 Q-279.05 33.75 -279.95 31.7 L-280.2 29.15 Q-302.1 30.95 -304.5 28.85 -304.95 28.45 -304.75 27.15 -304.6 26.3 -306.35 26.3 -307.45 26.3 -312.8 28.6 -318.15 30.9 -323.35 30.9 -330.2 30.9 -331.5 28.6 L-331.9 27.0 Q-332.05 26.3 -333.3 25.25 -334.6 24.15 -337.35 25.8 -340.1 27.45 -347.05 27.25 L-367.75 25.0 -369.2 24.8 Q-368.6 22.05 -365.35 20.05 -358.9 16.15 -343.35 16.15 -327.8 16.15 -324.4 18.35 -323.6 20.55 -321.1 20.55 -319.25 20.55 -313.35 18.35 -307.45 16.15 -304.2 16.15 -295.15 15.2 -287.25 15.9 -272.65 17.2 -270.3 24.65 -265.65 23.05 -251.35 23.05 L-242.75 21.8 -231.2 20.0 Q-215.9 18.55 -208.7 26.05 L-207.95 27.25 Q-199.8 27.85 -197.0 29.85 -194.75 31.5 -193.45 31.9 -190.5 32.8 -183.7 32.8 -177.8 32.8 -175.2 34.4 -172.2 33.25 -166.85 33.25 -158.7 33.25 -156.35 35.55 -155.6 36.3 -155.55 37.2" fill="url(#gradient0)" fill-rule="evenodd" stroke="none"/>
    <path d="M118.1 -26.75 Q117.35 -25.5 115.05 -23.6 108.2 -18.05 103.5 -10.7 102.2 -8.65 100.5 0.35 L100.1 1.6 Q102.8 0.15 106.05 -1.45 L117.15 -6.75 117.15 -7.1 Q117.15 -8.55 135.5 -21.7 153.65 -34.7 154.9 -34.7 160.45 -34.7 161.15 -33.2 161.4 -32.6 162.15 -32.2 L162.25 -34.1 161.3 -34.7 Q156.4 -38.0 156.4 -39.6 156.4 -44.15 162.3 -44.4 L162.15 -45.6 Q162.15 -47.6 163.65 -48.95 165.15 -50.35 176.25 -47.8 187.3 -45.25 188.1 -42.05 188.7 -39.4 192.25 -39.95 187.35 -38.6 186.65 -34.2 186.65 -31.75 175.5 -24.85 163.1 -17.2 162.4 -16.35 157.8 -10.8 137.55 -5.2 129.75 -0.9 114.0 6.8 92.75 17.15 91.25 17.15 L89.0 16.85 85.9 19.5 Q78.7 25.5 76.25 25.5 72.3 25.5 71.05 23.15 70.5 22.15 70.5 20.5 70.5 18.3 76.15 13.5 75.2 12.8 74.65 11.55 L74.15 8.55 Q74.15 5.8 77.75 1.7 L83.9 -4.6 Q83.05 -8.7 83.25 -11.6 83.55 -16.35 87.5 -17.0 86.85 -17.95 86.45 -19.25 L86.0 -23.7 Q84.9 -24.95 84.9 -27.45 84.9 -32.2 91.75 -33.2 90.85 -36.0 88.75 -37.6 86.9 -39.05 86.9 -39.6 86.9 -42.6 88.75 -43.45 91.1 -44.45 100.0 -44.45 114.7 -44.45 118.4 -38.15 120.25 -35.0 119.15 -31.6 119.15 -28.55 118.1 -26.75 M108.4 -31.35 L109.4 -31.95 Q108.7 -34.05 106.65 -34.45 L106.9 -34.2 108.4 -31.35 M92.3 -14.2 L91.9 -14.25 92.15 -13.9 92.3 -14.2" fill="url(#gradient1)" fill-rule="evenodd" stroke="none"/>
  </g>
  <defs>
    <linearGradient gradientTransform="matrix(0.0, 0.0615, -0.4507, 0.0, 0.05, 0.0)" gradientUnits="userSpaceOnUse" id="gradient0" spreadMethod="pad" x1="-819.2" x2="819.2">
      <stop offset="0.00784313725490196" stop-color="#463f26" stop-opacity="0.2"/>
      <stop offset="0.27450980392156865" stop-color="#463f26" stop-opacity="0.84313726"/>
      <stop offset="0.9803921568627451" stop-color="#262115" stop-opacity="0.9019608"/>
    </linearGradient>
    <linearGradient gradientTransform="matrix(0.0, 0.0602, -0.0743, 0.0, 138.55, -13.8)" gradientUnits="userSpaceOnUse" id="gradient1" spreadMethod="pad" x1="-819.2" x2="819.2">
      <stop offset="0.00784313725490196" stop-color="#463f26" stop-opacity="0.2"/>
      <stop offset="0.27450980392156865" stop-color="#463f26" stop-opacity="0.84313726"/>
      <stop offset="0.9803921568627451" stop-color="#262115" stop-opacity="0.9019608"/>
    </linearGradient>
  </defs>
</svg>
