<?xml version="1.0" encoding="UTF-8" standalone="no"?>
<svg xmlns:ffdec="https://www.free-decompiler.com/flash" xmlns:xlink="http://www.w3.org/1999/xlink" ffdec:objectType="shape" height="193.0px" width="276.0px" xmlns="http://www.w3.org/2000/svg">
  <g transform="matrix(1.0, 0.0, 0.0, 1.0, 138.0, 96.5)">
    <path d="M-6.0 -58.5 L19.15 -87.5 26.0 -46.5 66.0 -69.5 49.8 -18.3 104.0 -38.5 82.9 -2.8 130.0 5.5 130.4 6.0 90.25 35.95 137.0 57.5 80.7 66.65 131.65 95.5 -137.0 95.5 -137.0 -55.5 -98.1 -23.45 -105.0 -79.5 -70.85 -51.5 -63.0 -90.5 -41.95 -60.2 -25.0 -95.5 -6.0 -58.5" fill="#ffff00" fill-rule="evenodd" stroke="none"/>
    <path d="M-6.0 -58.5 L19.15 -87.5 26.0 -46.5 66.0 -69.5 49.8 -18.3 104.0 -38.5 82.9 -2.8 130.0 5.5 130.4 6.0 90.25 35.95 137.0 57.5 80.7 66.65 131.65 95.5 -137.0 95.5 -137.0 -55.5 -98.1 -23.45 -105.0 -79.5 -70.85 -51.5 -63.0 -90.5 -41.95 -60.2 -25.0 -95.5 -6.0 -58.5 Z" fill="none" stroke="#000000" stroke-linecap="round" stroke-linejoin="round" stroke-width="2.0"/>
  </g>
</svg>
