<?xml version="1.0" encoding="UTF-8" standalone="no"?>
<svg xmlns:ffdec="https://www.free-decompiler.com/flash" xmlns:xlink="http://www.w3.org/1999/xlink" ffdec:objectType="shape" height="193.0px" width="276.0px" xmlns="http://www.w3.org/2000/svg">
  <g transform="matrix(1.0, 0.0, 0.0, 1.0, 138.0, 96.5)">
    <path d="M-6.0 -58.5 L19.15 -87.5 26.0 -46.5 66.0 -69.5 59.0 -27.5 104.0 -38.5 77.1 2.95 130.0 5.5 130.4 6.0 96.0 32.5 137.0 57.5 91.0 65.5 131.65 95.5 -137.0 95.5 -137.0 -55.5 -105.0 -31.5 -105.0 -79.5 -65.1 -46.9 -63.0 -90.5 -39.0 -62.5 -38.65 -62.35 -25.0 -95.5 -6.0 -58.5" fill="#ffff00" fill-rule="evenodd" stroke="none"/>
    <path d="M-6.0 -58.5 L19.15 -87.5 26.0 -46.5 66.0 -69.5 59.0 -27.5 104.0 -38.5 77.1 2.95 130.0 5.5 130.4 6.0 96.0 32.5 137.0 57.5 91.0 65.5 131.65 95.5 -137.0 95.5 -137.0 -55.5 -105.0 -31.5 -105.0 -79.5 -65.1 -46.9 -63.0 -90.5 -39.0 -62.5 -38.65 -62.35 -25.0 -95.5 -6.0 -58.5 Z" fill="none" stroke="#000000" stroke-linecap="round" stroke-linejoin="round" stroke-width="2.0"/>
  </g>
</svg>
