<?xml version="1.0" encoding="UTF-8" standalone="no"?>
<svg xmlns:ffdec="https://www.free-decompiler.com/flash" xmlns:xlink="http://www.w3.org/1999/xlink" ffdec:objectType="shape" height="72.35px" width="72.35px" xmlns="http://www.w3.org/2000/svg">
  <g transform="matrix(1.0, 0.0, 0.0, 1.0, 78.6, 49.5)">
    <path d="M-63.6 -41.75 L-71.4 -45.15 Q-69.65 -46.0 -67.1 -46.0 L-17.75 -46.0 Q-12.55 -46.0 -10.75 -42.65 L-18.4 -42.0 -18.75 -42.3 Q-19.75 -43.0 -21.4 -43.0 L-60.4 -43.0 Q-62.6 -43.0 -63.6 -41.75" fill="#a7a7a6" fill-rule="evenodd" stroke="none"/>
    <path d="M-73.9 16.35 Q-75.1 14.4 -75.1 11.35 L-75.1 -38.0 Q-75.1 -43.45 -71.4 -45.15 L-63.6 -41.75 Q-64.4 -40.8 -64.4 -39.0 L-64.4 3.0 Q-64.4 4.25 -64.0 5.1 L-73.9 16.35" fill="#f6f5fa" fill-rule="evenodd" stroke="none"/>
    <path d="M-64.0 5.1 Q-64.4 4.25 -64.4 3.0 L-64.4 -39.0 Q-64.4 -40.8 -63.6 -41.75 -62.6 -43.0 -60.4 -43.0 L-21.4 -43.0 Q-19.75 -43.0 -18.75 -42.3 L-18.4 -42.0 Q-17.4 -41.0 -17.4 -39.0 L-17.4 3.0 Q-17.4 4.1 -17.7 4.95 -18.35 6.55 -20.3 6.9 L-21.4 7.0 -60.4 7.0 -61.05 7.0 Q-63.25 6.75 -64.0 5.1 M-27.55 -41.3 L-22.25 -41.3 Q-20.65 -41.3 -19.7 -40.65 -20.65 -41.3 -22.25 -41.3 L-27.55 -41.3 M-19.35 -40.35 Q-18.35 -39.4 -18.35 -37.45 L-18.35 4.25 -18.35 -37.45 Q-18.35 -39.4 -19.35 -40.35" fill="#d0d0d0" fill-rule="evenodd" stroke="none"/>
    <path d="M-10.75 -42.65 Q-9.75 -40.8 -9.75 -38.0 L-9.75 11.35 -9.95 13.7 -17.7 4.95 Q-17.4 4.1 -17.4 3.0 L-17.4 -39.0 Q-17.4 -41.0 -18.4 -42.0 L-10.75 -42.65" fill="#dadbdb" fill-rule="evenodd" stroke="none"/>
    <path d="M-9.95 13.7 Q-10.55 16.75 -12.75 18.2 L-20.3 6.9 Q-18.35 6.55 -17.7 4.95 L-9.95 13.7" fill="#cdcdd0" fill-rule="evenodd" stroke="none"/>
    <path d="M-12.75 18.2 Q-14.65 19.35 -17.75 19.35 L-67.1 19.35 -70.7 18.8 -61.05 7.0 -60.4 7.0 -21.4 7.0 -20.3 6.9 -12.75 18.2" fill="#b2b2ae" fill-rule="evenodd" stroke="none"/>
    <path d="M-73.9 16.35 L-64.0 5.1 Q-63.25 6.75 -61.05 7.0 L-70.7 18.8 Q-72.85 18.05 -73.9 16.35" fill="#d0d0d2" fill-rule="evenodd" stroke="none"/>
    <path d="M-18.35 4.25 L-18.35 -37.45 Q-18.35 -39.4 -19.35 -40.35 M-19.7 -40.65 Q-20.65 -41.3 -22.25 -41.3 L-27.55 -41.3" fill="none" stroke="#333333" stroke-linecap="round" stroke-linejoin="round" stroke-width="8.0"/>
    <path d="M-71.4 -45.15 Q-75.1 -43.45 -75.1 -38.0 L-75.1 11.35 Q-75.1 14.4 -73.9 16.35 -72.85 18.05 -70.7 18.8 L-67.1 19.35 -17.75 19.35 Q-14.65 19.35 -12.75 18.2 -10.55 16.75 -9.95 13.7 L-9.75 11.35 -9.75 -38.0 Q-9.75 -40.8 -10.75 -42.65 -12.55 -46.0 -17.75 -46.0 L-67.1 -46.0 Q-69.65 -46.0 -71.4 -45.15 Z" fill="none" stroke="#000000" stroke-linecap="round" stroke-linejoin="round" stroke-width="7.0"/>
    <path d="M-12.75 18.2 Q-14.65 19.35 -17.75 19.35 L-67.1 19.35 -70.7 18.8 -61.05 7.0 -60.4 7.0 -21.4 7.0 -20.3 6.9 -12.75 18.2" fill="#b2b2ae" fill-rule="evenodd" stroke="none"/>
    <path d="M-70.7 18.8 Q-72.85 18.05 -73.9 16.35 L-64.0 5.1 Q-63.25 6.75 -61.05 7.0 L-70.7 18.8" fill="#d0d0d2" fill-rule="evenodd" stroke="none"/>
    <path d="M-9.95 13.7 Q-10.55 16.75 -12.75 18.2 L-20.3 6.9 Q-18.35 6.55 -17.7 4.95 L-9.95 13.7" fill="#cdcdd0" fill-rule="evenodd" stroke="none"/>
    <path d="M-63.6 -41.75 Q-62.6 -43.0 -60.4 -43.0 L-21.4 -43.0 Q-19.75 -43.0 -18.75 -42.3 L-18.4 -42.0 Q-17.4 -41.0 -17.4 -39.0 L-17.4 3.0 Q-17.4 4.1 -17.7 4.95 -18.35 6.55 -20.3 6.9 L-21.4 7.0 -60.4 7.0 -61.05 7.0 Q-63.25 6.75 -64.0 5.1 -64.4 4.25 -64.4 3.0 L-64.4 -39.0 Q-64.4 -40.8 -63.6 -41.75 M-27.55 -41.3 L-22.25 -41.3 Q-20.65 -41.3 -19.7 -40.65 -18.35 -39.4 -18.35 -37.45 L-18.35 4.25 -18.35 -37.45 Q-18.35 -39.4 -19.7 -40.65 -20.65 -41.3 -22.25 -41.3 L-27.55 -41.3" fill="#d0d0d0" fill-rule="evenodd" stroke="none"/>
    <path d="M-71.4 -45.15 L-63.6 -41.75 Q-64.4 -40.8 -64.4 -39.0 L-64.4 3.0 Q-64.4 4.25 -64.0 5.1 L-73.9 16.35 Q-75.1 14.4 -75.1 11.35 L-75.1 -38.0 Q-75.1 -43.45 -71.4 -45.15" fill="#ffffff" fill-rule="evenodd" stroke="none"/>
    <path d="M-71.4 -45.15 Q-69.65 -46.0 -67.1 -46.0 L-17.75 -46.0 Q-12.55 -46.0 -10.75 -42.65 L-18.4 -42.0 -18.75 -42.3 Q-19.75 -43.0 -21.4 -43.0 L-60.4 -43.0 Q-62.6 -43.0 -63.6 -41.75 L-71.4 -45.15" fill="#dddddd" fill-rule="evenodd" stroke="none"/>
    <path d="M-18.4 -42.0 L-10.75 -42.65 Q-9.75 -40.8 -9.75 -38.0 L-9.75 11.35 -9.95 13.7 -17.7 4.95 Q-17.4 4.1 -17.4 3.0 L-17.4 -39.0 Q-17.4 -41.0 -18.4 -42.0" fill="#dcddde" fill-rule="evenodd" stroke="none"/>
    <path d="M-18.35 4.25 L-18.35 -37.45 Q-18.35 -39.4 -19.7 -40.65 -20.65 -41.3 -22.25 -41.3 L-27.55 -41.3" fill="none" stroke="#ffffff" stroke-linecap="round" stroke-linejoin="round" stroke-width="3.0"/>
    <path d="M-51.4 -25.05 Q-50.65 -24.4 -47.65 -23.7 -44.7 -23.0 -43.3 -22.25 -41.9 -21.5 -41.1 -20.2 -40.3 -18.95 -40.3 -17.05 -40.3 -15.3 -41.25 -13.8 -42.2 -12.3 -43.95 -11.55 -45.7 -10.85 -48.3 -10.85 -52.1 -10.85 -54.15 -12.6 -56.2 -14.35 -56.6 -17.7 L-52.65 -18.1 Q-52.3 -16.1 -51.2 -15.2 -50.1 -14.25 -48.3 -14.25 -46.3 -14.25 -45.3 -15.1 -44.35 -15.9 -44.35 -17.0 -44.35 -17.75 -44.75 -18.25 L-46.2 -19.1 -49.45 -20.0 Q-52.7 -20.8 -54.0 -21.95 -55.85 -23.6 -55.85 -26.0 -55.85 -27.5 -55.0 -28.85 -54.15 -30.2 -52.5 -30.9 -50.85 -31.6 -48.55 -31.6 -44.8 -31.6 -42.85 -29.95 -40.95 -28.3 -40.85 -25.5 L-44.9 -25.35 Q-45.15 -26.9 -46.0 -27.55 -46.9 -28.25 -48.6 -28.25 -50.35 -28.25 -51.35 -27.5 -52.0 -27.05 -52.0 -26.25 -52.0 -25.55 -51.4 -25.05" fill="#000000" fill-rule="evenodd" stroke="none"/>
  </g>
</svg>
