<?xml version="1.0" encoding="UTF-8" standalone="no"?>
<svg xmlns:ffdec="https://www.free-decompiler.com/flash" xmlns:xlink="http://www.w3.org/1999/xlink" ffdec:objectType="shape" height="20.75px" width="16.3px" xmlns="http://www.w3.org/2000/svg">
  <g transform="matrix(1.0, 0.0, 0.0, 1.0, 56.6, 31.6)">
    <path d="M-51.4 -25.05 Q-50.65 -24.4 -47.65 -23.7 -44.7 -23.0 -43.3 -22.25 -41.9 -21.5 -41.1 -20.2 -40.3 -18.95 -40.3 -17.05 -40.3 -15.3 -41.25 -13.8 -42.2 -12.3 -43.95 -11.55 -45.7 -10.85 -48.3 -10.85 -52.1 -10.85 -54.15 -12.6 -56.2 -14.35 -56.6 -17.7 L-52.65 -18.1 Q-52.3 -16.1 -51.2 -15.2 -50.1 -14.25 -48.3 -14.25 -46.3 -14.25 -45.3 -15.1 -44.35 -15.9 -44.35 -17.0 -44.35 -17.75 -44.75 -18.25 L-46.2 -19.1 -49.45 -20.0 Q-52.7 -20.8 -54.0 -21.95 -55.85 -23.6 -55.85 -26.0 -55.85 -27.5 -55.0 -28.85 -54.15 -30.2 -52.5 -30.9 -50.85 -31.6 -48.55 -31.6 -44.8 -31.6 -42.85 -29.95 -40.95 -28.3 -40.85 -25.5 L-44.9 -25.35 Q-45.15 -26.9 -46.0 -27.55 -46.9 -28.25 -48.6 -28.25 -50.35 -28.25 -51.35 -27.5 -52.0 -27.05 -52.0 -26.25 -52.0 -25.55 -51.4 -25.05" fill="#000000" fill-rule="evenodd" stroke="none"/>
  </g>
</svg>
