<?xml version="1.0" encoding="UTF-8" standalone="no"?>
<svg xmlns:ffdec="https://www.free-decompiler.com/flash" xmlns:xlink="http://www.w3.org/1999/xlink" ffdec:objectType="shape" height="313.05px" width="851.5px" xmlns="http://www.w3.org/2000/svg">
  <g transform="matrix(1.0, 0.0, 0.0, 1.0, 425.75, 156.55)">
    <path d="M234.65 -117.4 Q266.4 -113.1 297.25 -103.95 327.4 -95.0 355.65 -80.75 385.05 -65.95 407.05 -41.95 424.45 -22.85 425.7 2.35 425.95 6.8 424.5 11.2 415.4 39.0 390.65 55.7 362.3 74.75 330.8 87.35 300.4 99.55 268.6 107.4 236.15 115.45 203.0 120.05 170.2 124.3 137.05 126.9 L71.75 131.55 Q45.65 133.15 19.7 132.5 L-38.65 128.85 Q-71.8 126.4 -104.9 122.75 -136.4 119.75 -167.8 113.55 -200.65 107.35 -233.35 100.25 -264.7 93.6 -295.75 85.4 -328.5 76.65 -360.3 65.2 -388.65 54.85 -412.65 36.65 -428.2 24.85 -425.3 6.8 -424.8 3.7 -423.0 1.0 -409.85 -19.3 -388.3 -30.95 -359.55 -46.5 -328.8 -56.95 -299.9 -67.0 -270.25 -75.15 -238.25 -83.9 -205.95 -91.0 L-139.75 -105.25 Q-115.15 -110.2 -90.4 -113.4 L-25.25 -120.55 31.5 -125.35 Q64.5 -128.0 97.55 -127.45 L153.95 -124.8 168.8 -123.8 Q201.8 -122.15 234.65 -117.4" fill="#000000" fill-rule="evenodd" stroke="none"/>
    <path d="M-406.45 -15.3 L-414.6 -8.8 Q-428.15 1.85 -423.85 18.25 -423.0 21.45 -421.6 24.25 L-423.75 19.6 Q-429.05 6.4 -419.55 -5.0 -415.9 -9.35 -411.5 -13.15 -386.7 -34.75 -355.9 -47.1 -334.45 -55.6 -312.55 -62.6 L-312.3 -152.6 -311.75 -152.9 -245.15 -156.55 Q-229.25 -156.4 -214.6 -150.3 -200.4 -144.4 -188.55 -134.75 -169.0 -118.65 -149.75 -102.1 L-149.55 -101.65 Q-250.7 -84.6 -346.75 -48.65 -379.3 -36.55 -406.45 -15.3 M-312.3 152.35 L-312.55 80.5 Q-362.8 68.15 -406.25 40.6 -415.1 35.0 -420.35 26.4 -418.15 29.85 -414.9 32.5 -388.85 53.7 -356.75 64.65 -326.05 75.15 -295.6 83.8 -265.9 92.25 -235.8 98.85 L-175.6 111.65 Q-167.65 113.45 -162.45 112.4 -184.55 136.75 -214.8 150.0 -231.15 157.15 -249.05 156.45 L-312.05 152.55 -312.3 152.35" fill="#000000" fill-rule="evenodd" stroke="none"/>
    <path d="M65.75 47.95 L64.75 49.95 64.75 43.1 65.75 47.95 M49.15 63.9 L50.0 60.15 50.75 68.35 49.15 63.9" fill="#000000" fill-rule="evenodd" stroke="none"/>
  </g>
</svg>
