<?xml version="1.0" encoding="UTF-8" standalone="no"?>
<svg xmlns:ffdec="https://www.free-decompiler.com/flash" xmlns:xlink="http://www.w3.org/1999/xlink" ffdec:objectType="shape" height="288.9px" width="222.2px" xmlns="http://www.w3.org/2000/svg">
  <g transform="matrix(1.0, 0.0, 0.0, 1.0, 118.65, 93.05)">
    <path d="M88.4 -92.8 Q100.7 -92.8 100.85 -80.8 L103.55 183.9 Q103.65 195.85 91.4 195.85 L-103.5 195.65 Q-115.8 195.6 -115.95 183.65 L-118.65 -81.05 Q-118.8 -93.05 -106.5 -93.05 L88.4 -92.8" fill="url(#gradient0)" fill-rule="evenodd" stroke="none"/>
    <path d="M83.75 95.05 L86.25 99.3 88.65 95.05 91.15 95.05 87.25 101.3 87.25 105.8 85.1 105.8 85.1 101.3 81.25 95.05 83.75 95.05 M7.6 96.3 Q8.2 97.1 8.2 98.35 8.2 99.35 7.85 100.05 L6.95 101.1 5.85 101.6 3.6 101.75 2.2 101.75 2.2 105.8 0.1 105.8 0.1 95.05 3.5 95.05 6.05 95.2 Q6.95 95.45 7.6 96.3 M4.8 96.95 L3.25 96.9 2.2 96.9 2.2 99.95 3.4 99.95 5.1 99.75 Q5.5 99.6 5.75 99.25 L6.0 98.4 Q6.0 97.8 5.65 97.45 L4.8 96.95 M38.55 95.05 L40.55 95.25 Q41.5 95.55 42.15 96.25 42.8 96.95 43.15 98.0 43.5 99.05 43.5 100.55 L43.2 102.8 Q42.8 104.0 42.05 104.7 41.5 105.25 40.55 105.55 L38.65 105.8 34.6 105.8 34.6 95.05 38.55 95.05 M25.2 96.9 L19.45 96.9 19.45 99.25 24.8 99.25 24.8 101.05 19.45 101.05 19.45 104.0 25.4 104.0 25.4 105.8 17.35 105.8 17.35 95.05 25.2 95.05 25.2 96.9 M39.5 97.0 L37.7 96.9 36.75 96.9 36.75 104.0 38.35 104.0 39.65 103.9 40.5 103.45 41.05 102.4 41.3 100.45 41.05 98.55 Q40.85 97.85 40.45 97.5 40.1 97.1 39.5 97.0 M68.45 95.05 L70.35 95.15 71.45 95.6 72.25 96.5 Q72.6 97.05 72.6 97.75 72.6 98.5 72.2 99.15 L71.1 100.1 Q72.05 100.4 72.6 101.05 73.1 101.75 73.1 102.7 L72.8 104.1 71.85 105.2 70.4 105.75 67.85 105.8 64.25 105.8 64.25 95.05 68.45 95.05 M67.6 96.85 L66.35 96.85 66.35 99.35 67.8 99.35 69.35 99.3 Q69.9 99.25 70.2 98.9 L70.5 98.05 70.25 97.25 Q69.95 96.95 69.45 96.9 L67.6 96.85 M70.0 101.25 L68.1 101.1 66.35 101.1 66.35 104.0 68.35 104.0 69.8 103.95 70.6 103.5 70.9 102.6 70.65 101.75 70.0 101.25 M77.75 119.3 L77.85 133.45 79.5 133.45 Q81.7 133.45 82.65 132.85 83.6 132.35 84.1 130.9 84.6 129.55 84.55 126.5 84.5 122.35 83.35 120.8 82.2 119.3 79.45 119.3 L77.75 119.3 M51.55 113.45 L60.1 127.75 60.0 113.4 66.65 113.4 66.8 139.3 60.2 139.3 51.6 125.1 51.7 139.35 45.15 139.35 45.0 113.45 51.55 113.45 M59.3 147.5 L59.3 150.05 51.8 150.1 51.85 153.5 58.85 153.45 58.85 156.05 51.85 156.05 51.85 160.2 59.6 160.15 59.65 162.75 49.1 162.75 49.0 147.5 59.3 147.5 M67.4 147.5 L73.2 157.7 73.1 147.5 75.7 147.5 75.8 162.75 73.0 162.75 67.35 152.8 67.4 162.75 64.8 162.75 64.7 147.5 67.4 147.5 M70.7 113.4 L81.1 113.4 Q84.1 113.4 86.05 114.4 87.95 115.35 89.2 117.1 90.45 118.85 91.05 121.25 91.6 123.6 91.65 126.25 91.65 130.4 90.85 132.7 90.0 134.95 88.55 136.55 87.1 138.1 85.45 138.6 L81.25 139.3 70.85 139.3 70.7 113.4 M34.5 113.45 L43.1 139.35 35.8 139.35 34.65 135.1 26.7 135.1 25.6 139.35 18.45 139.35 26.75 113.45 34.5 113.45 M16.15 147.55 L21.9 157.75 21.85 147.5 24.45 147.5 24.55 162.75 21.75 162.75 16.1 152.85 16.15 162.75 13.55 162.8 13.45 147.55 16.15 147.55 M7.95 147.55 L8.05 162.8 5.3 162.8 5.2 147.55 7.95 147.55 M16.45 132.95 L16.5 139.35 -1.45 139.35 -1.6 113.45 5.4 113.45 5.55 132.95 16.45 132.95 M33.15 129.45 L30.6 120.15 28.15 129.45 33.15 129.45 M34.3 147.5 L36.9 157.95 39.25 147.5 43.5 147.5 43.6 162.75 40.95 162.75 40.9 150.8 38.2 162.75 35.5 162.75 32.75 150.8 32.85 162.75 30.2 162.75 30.1 147.5 34.3 147.5 M80.4 147.5 L91.4 147.45 91.45 150.05 87.35 150.05 87.45 162.75 84.65 162.75 84.55 150.05 80.4 150.05 80.4 147.5 M-44.65 95.05 L-44.65 96.9 -50.4 96.9 -50.4 99.25 -45.05 99.25 -45.05 101.05 -50.4 101.05 -50.4 104.0 -44.45 104.0 -44.45 105.8 -52.5 105.8 -52.5 95.05 -44.65 95.05 M-68.55 95.05 L-65.85 103.0 -63.25 95.05 -61.0 95.05 -64.8 105.8 -67.05 105.8 -70.85 95.05 -68.55 95.05 M-79.2 96.9 L-84.95 96.9 -84.95 99.25 -79.6 99.25 -79.6 101.05 -84.95 101.05 -84.95 104.0 -79.0 104.0 -79.0 105.8 -87.05 105.8 -87.05 95.05 -79.2 95.05 -79.2 96.9 M-17.8 96.25 L-16.4 95.3 -14.15 94.9 Q-11.8 94.9 -10.4 96.35 -9.0 97.8 -9.0 100.45 -9.0 103.05 -10.35 104.5 -11.75 106.0 -14.1 106.0 -16.45 106.0 -17.85 104.55 -19.25 103.05 -19.25 100.5 -19.25 98.85 -18.75 97.75 L-17.8 96.25 M-14.1 96.75 Q-15.45 96.75 -16.25 97.65 -17.05 98.55 -17.05 100.4 -17.05 102.25 -16.2 103.2 -15.4 104.15 -14.1 104.15 -12.85 104.15 -12.0 103.2 -11.2 102.25 -11.2 100.4 -11.2 98.55 -12.0 97.65 -12.8 96.75 -14.1 96.75 M-33.1 95.15 L-33.1 104.0 -27.75 104.0 -27.75 105.8 -35.2 105.8 -35.2 95.15 -33.1 95.15 M-102.1 96.9 L-103.05 96.9 -103.05 104.0 -101.45 104.0 -100.15 103.9 -99.3 103.45 Q-98.95 103.15 -98.75 102.4 -98.5 101.7 -98.5 100.45 -98.5 99.2 -98.75 98.55 -98.95 97.85 -99.35 97.5 -99.7 97.1 -100.3 97.0 L-102.1 96.9 M-101.25 95.05 L-99.25 95.25 Q-98.3 95.55 -97.65 96.25 -97.0 96.95 -96.65 98.0 -96.3 99.05 -96.3 100.55 -96.3 101.85 -96.6 102.8 -97.0 104.0 -97.75 104.7 -98.3 105.25 -99.25 105.55 L-101.15 105.8 -105.2 105.8 -105.2 95.05 -101.25 95.05 M-87.05 147.6 L-81.3 157.8 -81.35 147.6 -78.75 147.6 -78.65 162.85 -81.45 162.85 -87.15 152.9 -87.05 162.85 -89.65 162.85 -89.75 147.6 -87.05 147.6 M-95.15 139.45 L-99.7 119.7 -99.6 139.45 -105.3 139.45 -105.45 113.55 -96.25 113.55 -92.6 129.3 -89.2 113.5 -79.95 113.5 -79.8 139.4 -85.55 139.4 -85.65 119.65 -89.95 139.4 -95.15 139.45 M-95.05 147.6 L-95.0 150.2 -102.5 150.2 -102.5 153.6 -95.5 153.6 -95.5 156.15 -102.5 156.15 -102.45 160.3 -94.7 160.3 -94.7 162.85 -105.2 162.85 -105.3 147.6 -95.05 147.6 M-15.4 121.95 Q-10.85 123.1 -8.85 124.25 -6.85 125.4 -5.95 127.1 -5.0 128.85 -5.0 130.95 -5.0 133.4 -6.15 135.55 -7.4 137.6 -9.55 138.75 -11.7 139.8 -14.95 139.8 -20.8 139.8 -23.0 137.25 -24.65 135.4 -25.25 132.85 L-25.6 130.8 -18.9 130.35 Q-18.7 132.2 -18.0 133.15 -16.9 134.7 -14.85 134.7 -13.4 134.7 -12.6 133.95 -11.8 133.1 -11.8 132.05 -11.8 131.0 -12.6 130.25 -13.4 129.45 -16.15 128.75 -20.85 127.55 -22.8 125.65 -24.8 123.7 -24.8 120.7 -24.85 118.65 -23.75 116.85 -22.85 115.1 -20.8 114.05 -18.75 113.0 -15.2 113.0 -10.85 113.0 -8.55 114.9 -6.3 116.7 -5.8 120.75 L-12.4 121.25 Q-12.65 119.5 -13.5 118.65 -14.4 117.85 -15.85 117.85 -17.1 117.85 -17.7 118.45 -18.35 119.0 -18.3 119.85 -18.35 120.5 -17.8 121.05 -17.3 121.55 -15.4 121.95 M-29.1 113.5 L-29.0 128.95 Q-29.0 131.2 -29.55 133.25 -30.2 135.3 -31.5 136.8 -32.85 138.35 -34.3 138.95 -36.35 139.85 -39.25 139.85 L-42.8 139.6 Q-44.75 139.3 -46.05 138.55 -47.45 137.7 -48.5 136.3 -49.6 134.8 -50.0 133.3 -50.7 130.8 -50.7 128.95 L-50.8 113.5 -43.8 113.5 -43.7 129.3 Q-43.7 131.35 -42.65 132.6 -41.65 133.75 -39.75 133.75 -37.95 133.75 -36.95 132.6 -35.95 131.45 -35.95 129.3 L-36.05 113.5 -29.1 113.5 M-33.65 148.0 Q-32.7 148.4 -32.05 149.5 -31.45 150.55 -31.45 151.85 -31.45 153.6 -32.3 154.7 -33.2 155.8 -35.05 156.1 L-33.55 157.4 -31.95 159.85 -30.2 162.8 -33.55 162.8 -35.6 159.55 Q-36.7 157.7 -37.1 157.3 L-37.95 156.65 -39.35 156.45 -39.95 156.45 -39.9 162.8 -42.7 162.8 -42.8 147.55 -36.9 147.55 -33.65 148.0 M-4.55 147.55 L1.1 162.8 -1.9 162.8 -3.2 159.35 -8.7 159.35 -9.85 162.8 -12.8 162.8 -7.5 147.55 -4.55 147.55 M-16.05 147.55 L-16.0 150.1 -20.1 150.1 -20.05 162.8 -22.8 162.8 -22.9 150.15 -27.05 150.15 -27.05 147.55 -16.05 147.55 M-61.55 113.5 L-52.9 139.4 -60.2 139.4 -61.4 135.15 -69.35 135.15 -70.45 139.4 -77.55 139.4 -69.25 113.5 -61.55 113.5 M-63.05 147.6 L-63.0 150.15 -67.1 150.15 -67.05 162.85 -69.85 162.85 -69.9 150.15 -74.05 150.15 -74.1 147.6 -63.05 147.6 M-62.9 129.55 L-65.4 120.25 -67.85 129.55 -62.9 129.55 M-48.2 147.55 L-48.15 150.15 -55.65 150.15 -55.6 153.55 -48.6 153.55 -48.6 156.1 -55.6 156.1 -55.6 160.25 -47.85 160.25 -47.85 162.8 -58.35 162.85 -58.45 147.6 -48.2 147.55 M-6.05 151.1 L-7.85 156.75 -4.1 156.75 -6.05 151.1 M-34.3 152.05 Q-34.3 151.3 -34.65 150.8 -35.05 150.35 -35.7 150.2 L-37.75 150.15 -39.95 150.15 -39.95 154.05 -37.85 154.05 -35.35 153.8 Q-34.85 153.65 -34.6 153.2 -34.3 152.7 -34.3 152.05" fill="#000000" fill-rule="evenodd" stroke="none"/>
    <path d="M-60.95 183.2 L-60.6 183.2 -60.75 181.85 -60.4 181.85 -60.5 181.15 -60.3 177.85 -57.05 177.3 -53.2 178.0 Q-49.5 179.05 -48.5 180.6 L-49.45 181.85 -49.85 181.85 -51.35 183.15 -51.7 183.15 -51.9 183.35 -60.9 183.4 -60.95 183.2 M-51.25 173.35 L-55.05 175.65 Q-59.15 175.65 -60.25 173.55 L-60.3 173.4 -51.25 173.35" fill="#e6e6e6" fill-rule="evenodd" stroke="none"/>
    <path d="M34.6 -1.25 Q35.5 -1.25 33.75 0.95 31.95 3.1 28.9 7.3 25.85 11.45 23.75 17.4 23.5 22.5 23.8 24.4 24.05 26.3 19.65 21.8 15.25 17.25 14.45 15.85 L11.6 15.75 Q8.95 16.75 5.0 16.75 L4.8 19.6 Q5.7 21.95 0.8 19.45 -1.8 18.05 -1.9 17.35 L-11.7 18.1 -19.2 18.3 -18.1 25.4 Q-19.95 27.35 -29.45 19.85 -40.0 19.2 -47.5 17.05 -47.4 15.2 -42.75 12.8 -48.4 13.45 -50.45 16.1 L-51.4 15.75 -55.05 14.25 Q-59.95 12.05 -60.0 10.75 L-55.05 8.65 Q-50.65 6.85 -49.35 6.5 -42.1 4.5 -34.8 4.2 -32.4 4.05 -28.15 4.35 -24.6 4.15 -22.0 1.7 -20.85 0.6 -17.5 -1.55 -13.5 -4.25 -12.25 -4.2 -10.85 -4.15 -10.3 -2.6 L-9.85 0.85 Q-9.3 5.8 -5.9 6.0 -4.45 6.0 -0.45 3.65 3.5 1.3 5.7 1.4 6.5 1.45 7.3 5.15 8.0 8.3 7.95 9.0 L14.55 9.3 Q17.4 8.0 19.4 6.35 21.4 4.75 25.35 2.45 29.3 0.2 31.5 -0.55 33.7 -1.35 34.6 -1.25 M49.8 14.55 Q57.0 7.0 49.6 -0.3 L-5.0 -54.0 Q-8.75 -57.7 -12.4 -57.7 -16.05 -57.6 -19.65 -53.8 L-73.8 2.95 -73.8 3.0 Q-81.0 10.5 -73.5 17.8 L-18.95 71.5 Q-15.25 75.15 -11.6 75.15 -8.0 75.0 -4.35 71.25 L49.8 14.55 M51.6 16.25 L51.6 16.3 -2.55 73.0 Q-7.0 77.65 -11.55 77.65 -16.15 77.8 -20.7 73.3 L-75.25 19.6 Q-84.5 10.5 -75.6 1.25 L-21.45 -55.5 Q-17.0 -60.15 -12.45 -60.15 -7.9 -60.3 -3.25 -55.8 L51.35 -2.1 Q60.5 6.9 51.6 16.25" fill="#000000" fill-rule="evenodd" stroke="none"/>
    <path d="M34.6 -1.25 Q33.7 -1.35 31.5 -0.55 29.3 0.2 25.35 2.45 21.4 4.75 19.4 6.35 17.4 8.0 14.55 9.3 L7.95 9.0 Q8.0 8.3 7.3 5.15 6.5 1.45 5.7 1.4 3.5 1.3 -0.45 3.65 -4.45 6.0 -5.9 6.0 -9.3 5.8 -9.85 0.85 L-10.3 -2.6 Q-10.85 -4.15 -12.25 -4.2 -13.5 -4.25 -17.5 -1.55 -20.85 0.6 -22.0 1.7 -24.6 4.15 -28.15 4.35 -32.4 4.05 -34.8 4.2 -42.1 4.5 -49.35 6.5 -50.65 6.85 -55.05 8.65 L-60.0 10.75 Q-59.95 12.05 -55.05 14.25 L-51.4 15.75 -50.45 16.1 Q-48.4 13.45 -42.75 12.8 -47.4 15.2 -47.5 17.05 -40.0 19.2 -29.45 19.85 -19.95 27.35 -18.1 25.4 L-19.2 18.3 -11.7 18.1 -1.9 17.35 Q-1.8 18.05 0.8 19.45 5.7 21.95 4.8 19.6 L5.0 16.75 Q8.95 16.75 11.6 15.75 L14.45 15.85 Q15.25 17.25 19.65 21.8 24.05 26.3 23.8 24.4 23.5 22.5 23.75 17.4 25.85 11.45 28.9 7.3 31.95 3.1 33.75 0.95 35.5 -1.25 34.6 -1.25 M49.8 14.55 L-4.35 71.25 Q-8.0 75.0 -11.6 75.15 -15.25 75.15 -18.95 71.5 L-73.5 17.8 Q-81.0 10.5 -73.8 3.0 L-73.8 2.95 -19.65 -53.8 Q-16.05 -57.6 -12.4 -57.7 -8.75 -57.7 -5.0 -54.0 L49.6 -0.3 Q57.0 7.0 49.8 14.55" fill="#ffcc33" fill-rule="evenodd" stroke="none"/>
    <path d="M27.3 -13.65 Q26.8 -11.85 25.15 -10.5 22.8 -8.55 19.55 -8.5 16.25 -8.55 13.9 -10.5 12.3 -11.85 11.85 -13.55 11.35 -11.85 9.7 -10.5 7.35 -8.55 4.1 -8.5 0.8 -8.55 -1.55 -10.5 -3.2 -11.85 -3.65 -13.55 -4.15 -11.85 -5.8 -10.5 -8.15 -8.55 -11.4 -8.5 L-12.5 -8.55 Q-15.05 -8.85 -17.0 -10.5 -18.65 -11.85 -19.1 -13.55 -19.6 -11.85 -21.25 -10.5 -23.6 -8.55 -26.85 -8.5 -30.15 -8.55 -32.5 -10.5 -34.15 -11.85 -34.6 -13.55 -35.1 -11.85 -36.7 -10.5 -39.05 -8.55 -42.3 -8.5 -45.6 -8.55 -47.95 -10.5 -49.6 -11.85 -50.05 -13.65" fill="none" stroke="#000000" stroke-linecap="round" stroke-linejoin="round" stroke-width="1.5"/>
  </g>
  <defs>
    <linearGradient gradientTransform="matrix(0.1364, 7.0E-4, -9.0E-4, 0.1766, -7.6, 51.4)" gradientUnits="userSpaceOnUse" id="gradient0" spreadMethod="pad" x1="-819.2" x2="819.2">
      <stop offset="0.1411764705882353" stop-color="#ffffff"/>
      <stop offset="1.0" stop-color="#b1b69e"/>
    </linearGradient>
  </defs>
</svg>
