<?xml version="1.0" encoding="UTF-8" standalone="no"?>
<svg xmlns:ffdec="https://www.free-decompiler.com/flash" xmlns:xlink="http://www.w3.org/1999/xlink" ffdec:objectType="shape" height="274.95px" width="274.95px" xmlns="http://www.w3.org/2000/svg">
  <g transform="matrix(1.0, 0.0, 0.0, 1.0, 176.3, 136.3)">
    <path d="M14.95 -7.2 L83.7 -17.65 Q85.0 -8.55 85.0 1.15 85.0 11.2 83.6 20.7 L14.9 9.6 Q15.5 5.45 15.5 1.05 15.5 -3.2 14.95 -7.2 M-160.95 -20.1 L-92.4 -8.3 Q-93.15 -3.8 -93.15 1.05 -93.15 4.8 -92.7 8.4 L-161.6 17.9 Q-162.65 9.75 -162.65 1.15 -162.65 -9.8 -160.95 -20.1" fill="#921c00" fill-rule="evenodd" stroke="none"/>
    <path d="M-148.55 -56.95 L-86.95 -24.45 Q-91.05 -16.95 -92.4 -8.3 L-160.95 -20.1 Q-157.8 -39.75 -148.55 -56.95" fill="#fffc00" fill-rule="evenodd" stroke="none"/>
    <path d="M-148.55 -56.95 Q-140.05 -72.75 -126.45 -86.5 L-125.7 -87.25 -76.95 -37.75 -77.3 -37.4 Q-83.25 -31.4 -86.95 -24.45 L-148.55 -56.95" fill="#00b700" fill-rule="evenodd" stroke="none"/>
    <path d="M-125.7 -87.25 Q-111.15 -101.45 -94.35 -109.9 L-93.9 -110.15 -63.0 -47.8 Q-70.5 -44.05 -76.95 -37.75 L-125.7 -87.25" fill="#4bafe0" fill-rule="evenodd" stroke="none"/>
    <path d="M-56.65 -121.5 L-46.65 -52.75 Q-55.35 -51.6 -63.0 -47.8 L-93.9 -110.15 Q-76.5 -118.85 -56.65 -121.5" fill="#b9429e" fill-rule="evenodd" stroke="none"/>
    <path d="M-19.05 -121.2 L-30.15 -52.65 -38.85 -53.25 -46.65 -52.75 -56.65 -121.5 -38.8 -122.65 Q-28.65 -122.65 -19.05 -121.2" fill="#941c04" fill-rule="evenodd" stroke="none"/>
    <path d="M-19.05 -121.2 Q0.95 -118.25 18.4 -108.95 L-13.7 -47.25 Q-21.4 -51.35 -30.15 -52.65 L-19.05 -121.2" fill="#fdff01" fill-rule="evenodd" stroke="none"/>
    <path d="M18.4 -108.95 L24.95 -105.2 Q37.4 -97.55 48.45 -86.5 L49.1 -85.85 -0.25 -37.15 -0.55 -37.4 Q-6.65 -43.5 -13.7 -47.25 L18.4 -108.95" fill="#04b300" fill-rule="evenodd" stroke="none"/>
    <path d="M49.1 -85.85 Q63.0 -71.7 71.55 -55.4 L9.6 -23.75 Q5.85 -30.95 -0.25 -37.15 L49.1 -85.85" fill="#4bafe3" fill-rule="evenodd" stroke="none"/>
    <path d="M14.95 -7.2 Q13.65 -16.05 9.6 -23.75 L71.55 -55.4 Q80.8 -37.8 83.7 -17.65 L14.95 -7.2" fill="#b9429c" fill-rule="evenodd" stroke="none"/>
    <path d="M14.9 9.6 L83.6 20.7 Q80.6 40.65 71.35 58.05 L9.5 26.0 Q13.55 18.35 14.9 9.6 M-97.25 110.55 L-64.45 49.1 Q-56.6 53.35 -47.55 54.75 L-58.7 123.5 Q-79.3 120.35 -97.25 110.55" fill="#ffff00" fill-rule="evenodd" stroke="none"/>
    <path d="M9.5 26.0 L71.35 58.05 Q62.65 74.35 48.45 88.4 L48.25 88.6 -0.6 39.45 -0.55 39.35 Q5.7 33.2 9.5 26.0" fill="#00b500" fill-rule="evenodd" stroke="none"/>
    <path d="M48.25 88.6 L44.0 92.7 Q31.9 103.9 18.2 111.25 L-13.8 49.35 Q-6.75 45.6 -0.6 39.45 L48.25 88.6" fill="#4ab1de" fill-rule="evenodd" stroke="none"/>
    <path d="M-32.15 46.35 L-31.8 46.3 Q-25.2 46.35 -19.5 42.95 L-17.7 41.8 -13.8 49.35 18.2 111.25 Q0.1 120.85 -20.7 123.75 L-30.85 54.85 -32.15 46.35" fill="#fffdf8" fill-rule="evenodd" stroke="none"/>
    <path d="M-47.55 54.75 L-38.85 55.4 -30.85 54.85 -20.7 123.75 -38.8 124.95 -58.7 123.5 -47.55 54.75" fill="#911e01" fill-rule="evenodd" stroke="none"/>
    <path d="M-77.45 39.2 L-77.3 39.35 Q-71.35 45.3 -64.45 49.1 L-97.25 110.55 Q-112.85 102.0 -126.45 88.4 L-126.8 88.05 -77.45 39.2" fill="#00b600" fill-rule="evenodd" stroke="none"/>
    <path d="M-87.65 25.2 Q-83.85 32.75 -77.45 39.2 L-126.8 88.05 -128.95 85.9 Q-142.05 72.1 -150.05 56.2 L-87.65 25.2" fill="#4dafe0" fill-rule="evenodd" stroke="none"/>
    <path d="M-161.6 17.9 L-92.7 8.4 Q-91.6 17.35 -87.65 25.2 L-150.05 56.2 Q-159.05 38.35 -161.6 17.9" fill="#b8439b" fill-rule="evenodd" stroke="none"/>
    <path d="M83.7 -17.65 L96.45 -19.6 Q97.85 -9.5 97.9 1.2 97.85 12.25 96.35 22.75 L83.6 20.7 Q85.0 11.2 85.0 1.15 85.0 -8.55 83.7 -17.65 M-18.8 136.55 L-38.85 137.9 Q-50.15 137.9 -60.8 136.3 L-58.7 123.5 -38.8 124.95 -20.7 123.75 -18.8 136.55 M-174.45 19.65 Q-175.55 10.65 -175.55 1.2 -175.55 -10.95 -173.7 -22.3 L-160.95 -20.1 Q-162.65 -9.8 -162.65 1.15 -162.65 9.75 -161.6 17.9 L-174.45 19.65 M-58.5 -134.25 L-38.85 -135.55 Q-27.6 -135.55 -16.95 -133.95 L-19.05 -121.2 Q-28.65 -122.65 -38.8 -122.65 L-56.65 -121.5 -58.5 -134.25" fill="#6d1900" fill-rule="evenodd" stroke="none"/>
    <path d="M49.1 -85.85 L48.45 -86.5 Q37.4 -97.55 24.95 -105.2 L18.4 -108.95 24.35 -120.45 Q36.8 -113.85 48.05 -104.3 52.9 -100.25 57.5 -95.6 L58.25 -94.9 49.1 -85.85 M82.8 64.0 Q74.45 79.6 61.55 93.4 L57.5 97.55 57.3 97.75 48.25 88.6 48.45 88.4 Q62.65 74.35 71.35 58.05 L82.8 64.0 M-103.35 122.0 Q-120.6 112.55 -135.65 97.55 L-136.0 97.15 -126.8 88.05 -126.45 88.4 Q-112.85 102.0 -97.25 110.55 L-103.35 122.0 M-160.0 -63.0 Q-150.65 -80.45 -135.65 -95.6 L-134.75 -96.5 -125.7 -87.25 -126.45 -86.5 Q-140.05 -72.75 -148.55 -56.95 L-160.0 -63.0" fill="#007c00" fill-rule="evenodd" stroke="none"/>
    <path d="M24.35 -120.45 L18.4 -108.95 Q0.95 -118.25 -19.05 -121.2 L-16.95 -133.95 Q5.1 -130.65 24.35 -120.45 M96.35 22.75 Q93.05 44.75 82.8 64.0 L71.35 58.05 Q80.6 40.65 83.6 20.7 L96.35 22.75 M-60.8 136.3 Q-83.55 132.8 -103.35 122.0 L-97.25 110.55 Q-79.3 120.35 -58.7 123.5 L-60.8 136.3 M-173.7 -22.3 Q-170.2 -44.05 -160.0 -63.0 L-148.55 -56.95 Q-157.8 -39.75 -160.95 -20.1 L-173.7 -22.3" fill="#c8c700" fill-rule="evenodd" stroke="none"/>
    <path d="M49.1 -85.85 L58.25 -94.9 Q73.65 -79.3 83.05 -61.3 L71.55 -55.4 Q63.0 -71.7 49.1 -85.85 M57.3 97.75 Q41.95 113.2 24.15 122.75 L18.2 111.25 Q31.9 103.9 44.0 92.7 L48.25 88.6 57.3 97.75 M-136.0 97.15 Q-141.8 91.35 -146.7 85.2 -155.55 74.1 -161.7 61.95 L-150.05 56.2 Q-142.05 72.1 -128.95 85.9 L-126.8 88.05 -136.0 97.15 M-134.75 -96.5 Q-126.55 -104.5 -117.7 -110.85 -109.0 -117.1 -99.65 -121.75 L-93.9 -110.15 -94.35 -109.9 Q-111.15 -101.45 -125.7 -87.25 L-134.75 -96.5" fill="#209bd7" fill-rule="evenodd" stroke="none"/>
    <path d="M71.55 -55.4 L83.05 -61.3 Q93.25 -41.85 96.45 -19.6 L83.7 -17.65 Q80.8 -37.8 71.55 -55.4 M-161.7 61.95 Q-171.6 42.25 -174.45 19.65 L-161.6 17.9 Q-159.05 38.35 -150.05 56.2 L-161.7 61.95 M-99.65 -121.75 Q-80.45 -131.35 -58.5 -134.25 L-56.65 -121.5 Q-76.5 -118.85 -93.9 -110.15 L-99.65 -121.75" fill="#96327a" fill-rule="evenodd" stroke="none"/>
    <path d="M24.15 122.75 Q4.2 133.4 -18.8 136.55 L-20.7 123.75 Q0.1 120.85 18.2 111.25 L24.15 122.75" fill="#eaebef" fill-rule="evenodd" stroke="none"/>
    <path d="M-77.45 39.2 L-71.2 33.0 -71.1 33.15 Q-66.1 38.15 -60.3 41.3 L-64.45 49.1 Q-71.35 45.3 -77.3 39.35 L-77.45 39.2" fill="#00d900" fill-rule="evenodd" stroke="none"/>
    <path d="M9.6 -23.75 L1.75 -19.75 Q-1.4 -25.75 -6.55 -30.95 L-0.25 -37.15 Q5.85 -30.95 9.6 -23.75 M-6.85 33.2 L-0.6 39.45 Q-6.75 45.6 -13.8 49.35 L-17.7 41.8 -17.85 41.55 -17.85 41.5 -17.6 41.4 Q-11.85 38.2 -6.85 33.2 M-76.95 -37.75 Q-70.5 -44.05 -63.0 -47.8 L-59.1 -39.9 Q-65.4 -36.75 -70.8 -31.5 L-76.95 -37.75 M-17.6 41.4 L-17.85 41.55 -17.6 41.4 M-71.2 33.0 L-77.45 39.2 Q-83.85 32.75 -87.65 25.2 L-79.75 21.3 Q-76.6 27.6 -71.2 33.0" fill="#6ebde6" fill-rule="evenodd" stroke="none"/>
    <path d="M-0.25 -37.15 L-6.55 -30.95 -6.8 -31.2 Q-11.9 -36.3 -17.8 -39.45 L-13.7 -47.25 Q-6.65 -43.5 -0.55 -37.4 L-0.25 -37.15 M1.65 21.95 L9.5 26.0 Q5.7 33.2 -0.55 39.35 L-0.6 39.45 -6.85 33.2 -6.8 33.15 Q-1.55 27.95 1.65 21.95 M-86.95 -24.45 Q-83.25 -31.4 -77.3 -37.4 L-76.95 -37.75 -70.8 -31.5 -71.1 -31.2 Q-76.1 -26.15 -79.2 -20.35 L-86.95 -24.45" fill="#00d500" fill-rule="evenodd" stroke="none"/>
    <path d="M1.75 -19.75 L9.6 -23.75 Q13.65 -16.05 14.95 -7.2 L6.2 -5.9 Q5.1 -13.3 1.75 -19.75 M-59.1 -39.9 L-63.0 -47.8 Q-55.35 -51.6 -46.65 -52.75 L-45.4 -44.05 Q-52.7 -43.1 -59.1 -39.9 M-79.75 21.3 L-87.65 25.2 Q-91.6 17.35 -92.7 8.4 L-84.0 7.2 Q-83.1 14.7 -79.75 21.3" fill="#c757a9" fill-rule="evenodd" stroke="none"/>
    <path d="M-30.15 -52.65 Q-21.4 -51.35 -13.7 -47.25 L-17.8 -39.45 Q-24.2 -42.85 -31.55 -43.95 L-30.15 -52.65 M14.9 9.6 Q13.55 18.35 9.5 26.0 L1.65 21.95 Q5.05 15.55 6.15 8.2 L14.9 9.6 M-92.4 -8.3 Q-91.05 -16.95 -86.95 -24.45 L-79.2 -20.35 Q-82.6 -14.05 -83.75 -6.8 L-92.4 -8.3 M-64.45 49.1 L-60.3 41.3 Q-53.75 44.9 -46.15 46.05 L-47.55 54.75 Q-56.6 53.35 -64.45 49.1" fill="#ffff21" fill-rule="evenodd" stroke="none"/>
    <path d="M6.2 -5.9 L14.95 -7.2 Q15.5 -3.2 15.5 1.05 15.5 5.45 14.9 9.6 L6.15 8.2 Q6.65 4.7 6.65 1.05 6.65 -2.55 6.2 -5.9 M-46.65 -52.75 L-38.85 -53.25 -30.15 -52.65 -31.55 -43.95 -38.85 -44.5 -45.4 -44.05 -46.65 -52.75 M-92.4 -8.3 L-83.75 -6.8 Q-84.4 -3.0 -84.4 1.05 -84.4 4.2 -84.0 7.2 L-92.7 8.4 Q-93.15 4.8 -93.15 1.05 -93.15 -3.8 -92.4 -8.3 M-46.15 46.05 L-38.85 46.55 -32.35 46.15 -32.15 46.1 -32.15 46.15 -32.15 46.35 -30.85 54.85 -38.85 55.4 -47.55 54.75 -46.15 46.05 M-32.35 46.15 L-32.15 46.15 -32.35 46.15" fill="#902d0e" fill-rule="evenodd" stroke="none"/>
    <path d="M1.75 -19.75 Q5.1 -13.3 6.2 -5.9 6.65 -2.55 6.65 1.05 6.65 4.7 6.15 8.2 5.05 15.55 1.65 21.95 -1.55 27.95 -6.8 33.15 L-6.85 33.2 Q-11.85 38.2 -17.6 41.4 L-17.85 41.5 -17.85 41.55 -17.7 41.8 -19.5 42.95 Q-25.2 46.35 -31.8 46.3 L-32.15 46.35 -32.15 46.15 -32.15 46.1 -32.35 46.15 -38.85 46.55 -46.15 46.05 Q-53.75 44.9 -60.3 41.3 -66.1 38.15 -71.1 33.15 L-71.2 33.0 Q-76.6 27.6 -79.75 21.3 -83.1 14.7 -84.0 7.2 -84.4 4.2 -84.4 1.05 -84.4 -3.0 -83.75 -6.8 -82.6 -14.05 -79.2 -20.35 -76.1 -26.15 -71.1 -31.2 L-70.8 -31.5 Q-65.4 -36.75 -59.1 -39.9 -52.7 -43.1 -45.4 -44.05 L-38.85 -44.5 -31.55 -43.95 Q-24.2 -42.85 -17.8 -39.45 -11.9 -36.3 -6.8 -31.2 L-6.55 -30.95 Q-1.4 -25.75 1.75 -19.75" fill="#fbfbfb" fill-rule="evenodd" stroke="none"/>
    <path d="M58.25 -94.9 L57.5 -95.6 Q52.9 -100.25 48.05 -104.3 36.8 -113.85 24.35 -120.45 5.1 -130.65 -16.95 -133.95 -27.6 -135.55 -38.85 -135.55 L-58.5 -134.25 Q-80.45 -131.35 -99.65 -121.75 -109.0 -117.1 -117.7 -110.85 -126.55 -104.5 -134.75 -96.5 L-135.65 -95.6 Q-150.65 -80.45 -160.0 -63.0 -170.2 -44.05 -173.7 -22.3 -175.55 -10.95 -175.55 1.2 -175.55 10.65 -174.45 19.65 -171.6 42.25 -161.7 61.95 -155.55 74.1 -146.7 85.2 -141.8 91.35 -136.0 97.15 L-135.65 97.55 Q-120.6 112.55 -103.35 122.0 -83.55 132.8 -60.8 136.3 -50.15 137.9 -38.85 137.9 L-18.8 136.55 Q4.2 133.4 24.15 122.75 41.95 113.2 57.3 97.75 L57.5 97.55 61.55 93.4 Q74.45 79.6 82.8 64.0 93.05 44.75 96.35 22.75 97.85 12.25 97.9 1.2 97.85 -9.5 96.45 -19.6 93.25 -41.85 83.05 -61.3 73.65 -79.3 58.25 -94.9" fill="none" stroke="#000000" stroke-linecap="round" stroke-linejoin="round" stroke-width="1.5"/>
    <path d="M-32.15 46.15 L-32.35 46.15 M-17.85 41.55 L-17.6 41.4" fill="none" stroke="#333333" stroke-linecap="round" stroke-linejoin="round" stroke-width="0.05"/>
  </g>
</svg>
