<?xml version="1.0" encoding="UTF-8" standalone="no"?>
<svg xmlns:ffdec="https://www.free-decompiler.com/flash" xmlns:xlink="http://www.w3.org/1999/xlink" ffdec:objectType="shape" height="23.45px" width="23.4px" xmlns="http://www.w3.org/2000/svg">
  <g transform="matrix(1.0, 0.0, 0.0, 1.0, 11.7, 11.75)">
    <path d="M8.25 -8.3 Q11.7 -4.85 11.7 0.0 11.7 4.85 8.25 8.25 4.85 11.7 0.0 11.7 -4.85 11.7 -8.3 8.25 -11.7 4.85 -11.7 0.0 -11.7 -4.85 -8.3 -8.3 -7.15 -9.45 -4.45 -10.45 L-4.35 -10.55 -1.4 -11.6 -0.55 -11.7 -0.3 -11.75 -0.3 -11.7 0.0 -11.7 Q4.85 -11.7 8.25 -8.3 M-5.15 -9.35 L-5.25 -9.0 -5.25 -8.85 -5.15 -9.35" fill="url(#gradient0)" fill-rule="evenodd" stroke="none"/>
  </g>
  <defs>
    <radialGradient cx="0" cy="0" gradientTransform="matrix(0.0226, 0.0, 0.0, 0.0226, -1.95, -6.35)" gradientUnits="userSpaceOnUse" id="gradient0" r="819.2" spreadMethod="pad">
      <stop offset="0.34509803921568627" stop-color="#b9b5ac"/>
      <stop offset="1.0" stop-color="#5b5c4e"/>
    </radialGradient>
  </defs>
</svg>
