<?xml version="1.0" encoding="UTF-8" standalone="no"?>
<svg xmlns:ffdec="https://www.free-decompiler.com/flash" xmlns:xlink="http://www.w3.org/1999/xlink" ffdec:objectType="shape" height="433.9px" width="707.2px" xmlns="http://www.w3.org/2000/svg">
  <g transform="matrix(1.0, 0.0, 0.0, 1.0, 353.6, 216.95)">
    <path d="M-344.0 205.45 Q-343.7 205.65 -343.7 205.95 -343.7 206.25 -344.0 206.45 L-344.7 206.65 -345.4 206.45 -345.7 205.95 -345.4 205.45 -344.7 205.25 -344.0 205.45 M-335.55 142.9 Q-333.4 143.1 -335.2 144.15 L-336.2 142.85 -335.55 142.9 M-340.8 46.55 Q-340.5 46.75 -340.5 47.05 -340.5 47.35 -340.8 47.55 L-341.5 47.75 Q-341.9 47.75 -342.2 47.55 L-342.5 47.05 -342.2 46.55 -341.5 46.35 -340.8 46.55 M-47.5 211.75 Q-47.2 211.95 -47.2 212.25 L-47.5 212.75 -48.2 212.95 Q-48.6 212.95 -48.9 212.75 L-49.2 212.25 -48.9 211.75 -48.2 211.55 -47.5 211.75 M-219.9 185.65 Q-219.6 185.85 -219.6 186.15 -219.6 186.45 -219.9 186.65 L-220.6 186.85 -221.3 186.65 -221.6 186.15 -221.3 185.65 -220.6 185.45 -219.9 185.65 M-227.8 132.75 Q-227.5 132.95 -227.5 133.25 L-227.8 133.75 -228.5 133.95 -229.2 133.75 -229.5 133.25 -229.2 132.75 -228.5 132.55 -227.8 132.75 M-290.2 186.45 Q-289.9 186.65 -289.9 186.95 L-290.2 187.45 -290.9 187.65 -291.6 187.45 -291.9 186.95 -291.6 186.45 -290.9 186.25 -290.2 186.45 M-291.8 115.35 Q-291.5 115.55 -291.5 115.85 -291.5 116.15 -291.8 116.35 L-292.5 116.55 Q-292.9 116.55 -293.2 116.35 L-293.5 115.85 -293.2 115.35 -292.5 115.15 -291.8 115.35 M-275.2 73.45 Q-274.9 73.65 -274.9 73.95 L-275.2 74.45 -275.9 74.65 -276.6 74.45 -276.9 73.95 -276.6 73.45 -275.9 73.25 -275.2 73.45 M-312.35 6.25 L-312.1 6.75 -312.35 7.25 -313.05 7.45 -313.7 7.25 -314.0 6.75 -313.7 6.25 -313.05 6.05 -312.35 6.25 M-249.1 20.45 Q-248.8 20.65 -248.8 20.95 L-249.1 21.45 -249.8 21.65 Q-250.2 21.65 -250.5 21.45 L-250.8 20.95 -250.5 20.45 -249.8 20.25 -249.1 20.45 M-225.45 75.1 Q-222.6 74.85 -224.5 76.15 L-225.4 75.35 -225.45 75.1 M-229.35 25.95 L-229.1 26.45 -229.35 26.95 Q-229.65 27.15 -230.05 27.15 L-230.7 26.95 -231.0 26.45 -230.7 25.95 -230.05 25.75 -229.35 25.95 M-27.75 149.35 L-27.5 149.85 -27.75 150.35 Q-28.05 150.55 -28.45 150.55 L-29.1 150.35 -29.4 149.85 -29.1 149.35 -28.45 149.15 -27.75 149.35 M-124.45 184.0 Q-122.25 184.15 -124.1 185.25 L-125.1 183.95 -124.45 184.0 M-116.3 127.95 Q-116.0 128.15 -116.0 128.45 -116.0 128.75 -116.3 128.95 L-117.0 129.15 -117.7 128.95 -118.0 128.45 -117.7 127.95 -117.0 127.75 -116.3 127.95 M-159.0 53.65 Q-158.7 53.85 -158.7 54.15 L-159.0 54.65 -159.7 54.85 -160.4 54.65 -160.7 54.15 -160.4 53.65 -159.7 53.45 -159.0 53.65 M-62.55 72.65 L-62.3 73.15 -62.55 73.65 -63.25 73.85 -63.9 73.65 -64.2 73.15 -63.9 72.65 -63.25 72.45 -62.55 72.65 M-55.4 37.85 Q-55.1 38.05 -55.1 38.35 -55.1 38.65 -55.4 38.85 L-56.1 39.05 -56.8 38.85 -57.1 38.35 -56.8 37.85 -56.1 37.65 -55.4 37.85 M-78.35 25.95 L-78.1 26.45 -78.35 26.95 Q-78.65 27.15 -79.05 27.15 L-79.7 26.95 -80.0 26.45 -79.7 25.95 -79.05 25.75 -78.35 25.95 M-60.2 19.65 Q-59.9 19.85 -59.9 20.15 L-60.2 20.65 -60.9 20.85 -61.6 20.65 -61.9 20.15 -61.6 19.65 -60.9 19.45 -60.2 19.65 M-21.4 46.55 Q-21.1 46.75 -21.1 47.05 L-21.4 47.55 -22.1 47.75 -22.8 47.55 -23.1 47.05 -22.8 46.55 -22.1 46.35 -21.4 46.55 M-33.3 26.75 Q-33.0 26.95 -33.0 27.25 -33.0 27.55 -33.3 27.75 L-34.0 27.95 -34.7 27.75 -35.0 27.25 -34.7 26.75 -34.0 26.55 -33.3 26.75 M-63.3 -55.45 Q-63.0 -55.25 -63.0 -54.95 -63.0 -54.65 -63.3 -54.45 L-64.0 -54.25 -64.7 -54.45 -65.0 -54.95 -64.7 -55.45 -64.0 -55.65 -63.3 -55.45 M-13.5 -80.75 L-13.2 -80.25 Q-13.2 -79.95 -13.5 -79.75 L-14.2 -79.55 -14.9 -79.75 -15.2 -80.25 -14.9 -80.75 -14.2 -80.95 -13.5 -80.75 M-111.55 -18.25 L-111.3 -17.75 Q-111.3 -17.45 -111.55 -17.25 L-112.25 -17.05 -112.9 -17.25 -113.2 -17.75 -112.9 -18.25 -112.25 -18.45 -111.55 -18.25 M-126.6 -80.75 L-126.3 -80.25 Q-126.3 -79.95 -126.6 -79.75 L-127.3 -79.55 Q-127.7 -79.55 -128.0 -79.75 L-128.3 -80.25 -128.0 -80.75 -127.3 -80.95 -126.6 -80.75 M-65.7 -128.15 L-65.4 -127.65 Q-65.4 -127.35 -65.7 -127.15 L-66.4 -126.95 Q-66.8 -126.95 -67.1 -127.15 L-67.4 -127.65 -67.1 -128.15 -66.4 -128.35 -65.7 -128.15 M-76.25 -166.95 Q-74.1 -166.85 -75.9 -165.75 L-76.9 -167.05 -76.25 -166.95 M-21.4 -174.05 L-21.1 -173.55 Q-21.1 -173.25 -21.4 -173.05 L-22.1 -172.85 -22.8 -173.05 -23.1 -173.55 -22.8 -174.05 -22.1 -174.25 -21.4 -174.05 M-178.75 -48.35 L-178.5 -47.85 Q-178.5 -47.55 -178.75 -47.35 L-179.45 -47.15 -180.1 -47.35 -180.4 -47.85 -180.1 -48.35 -179.45 -48.55 -178.75 -48.35 M-238.05 -28.55 L-237.8 -28.05 Q-237.8 -27.75 -238.05 -27.55 L-238.75 -27.35 Q-239.15 -27.35 -239.4 -27.55 L-239.7 -28.05 -239.4 -28.55 -238.75 -28.75 -238.05 -28.55 M-312.35 -79.15 L-312.1 -78.65 Q-312.1 -78.35 -312.35 -78.15 L-313.05 -77.95 -313.7 -78.15 -314.0 -78.65 -313.7 -79.15 -313.05 -79.35 -312.35 -79.15 M-290.7 -116.55 L-291.7 -115.15 -292.7 -116.55 -290.7 -116.55 M-272.8 -165.35 L-272.5 -164.85 Q-272.5 -164.55 -272.8 -164.35 L-273.5 -164.15 -274.2 -164.35 -274.5 -164.85 -274.2 -165.35 -273.5 -165.55 -272.8 -165.35 M-204.85 -106.85 L-204.6 -106.35 Q-204.6 -106.05 -204.85 -105.85 -205.15 -105.65 -205.55 -105.65 L-206.2 -105.85 -206.5 -106.35 -206.2 -106.85 -205.55 -107.05 -204.85 -106.85 M-216.7 -172.45 L-216.4 -171.95 Q-216.4 -171.65 -216.7 -171.45 L-217.4 -171.25 -218.1 -171.45 -218.4 -171.95 -218.1 -172.45 -217.4 -172.65 -216.7 -172.45 M-188.7 -175.05 L-189.7 -173.65 -190.7 -175.05 -188.7 -175.05 M-238.05 -216.75 L-237.8 -216.25 Q-237.8 -215.95 -238.05 -215.75 L-238.75 -215.55 Q-239.15 -215.55 -239.4 -215.75 L-239.7 -216.25 -239.4 -216.75 -238.75 -216.95 -238.05 -216.75 M-1.7 -215.95 L-1.4 -215.45 Q-1.4 -215.15 -1.7 -214.95 L-2.4 -214.75 -3.1 -214.95 -3.4 -215.45 -3.1 -215.95 -2.4 -216.15 -1.7 -215.95 M-96.5 -208.05 Q-96.2 -207.85 -96.2 -207.55 -96.2 -207.25 -96.5 -207.05 L-97.2 -206.85 Q-97.6 -206.85 -97.9 -207.05 L-98.2 -207.55 -97.9 -208.05 -97.2 -208.25 -96.5 -208.05 M-351.9 -38.85 Q-351.6 -38.65 -351.6 -38.35 -351.6 -38.05 -351.9 -37.85 L-352.6 -37.65 -353.3 -37.85 -353.6 -38.35 -353.3 -38.85 -352.6 -39.05 -351.9 -38.85 M-332.9 -121.85 Q-332.6 -121.65 -332.6 -121.35 -332.6 -121.05 -332.9 -120.85 L-333.6 -120.65 -334.3 -120.85 -334.6 -121.35 -334.3 -121.85 -333.6 -122.05 -332.9 -121.85 M-339.2 -204.05 L-338.9 -203.55 Q-338.9 -203.25 -339.2 -203.05 L-339.9 -202.85 -340.6 -203.05 -340.9 -203.55 -340.6 -204.05 -339.9 -204.25 -339.2 -204.05 M178.6 207.05 L178.9 207.55 178.6 208.05 177.9 208.25 177.2 208.05 176.9 207.55 Q176.9 207.25 177.2 207.05 L177.9 206.85 178.6 207.05 M301.1 212.55 L301.4 213.05 301.1 213.55 300.4 213.75 299.7 213.55 299.4 213.05 Q299.4 212.75 299.7 212.55 L300.4 212.35 301.1 212.55 M50.25 201.4 Q52.45 201.55 50.6 202.65 L49.6 201.35 50.25 201.4 M106.9 168.05 L105.9 169.45 104.9 168.05 106.9 168.05 M89.25 105.05 L89.5 105.55 89.25 106.05 88.55 106.25 Q88.15 106.25 87.9 106.05 87.6 105.85 87.6 105.55 87.6 105.25 87.9 105.05 88.15 104.85 88.55 104.85 L89.25 105.05 M125.35 75.7 Q127.45 75.8 125.7 76.95 L124.7 75.65 125.35 75.7 M100.3 13.35 L100.6 13.85 100.3 14.35 99.6 14.55 98.9 14.35 Q98.6 14.15 98.6 13.85 98.6 13.55 98.9 13.35 L99.6 13.15 100.3 13.35 M287.7 183.35 L288.0 183.85 287.7 184.35 287.0 184.55 286.3 184.35 286.0 183.85 Q286.0 183.55 286.3 183.35 L287.0 183.15 287.7 183.35 M320.1 135.85 L320.4 136.35 320.1 136.85 319.4 137.05 318.7 136.85 318.4 136.35 Q318.4 136.05 318.7 135.85 L319.4 135.65 320.1 135.85 M216.5 165.15 L216.8 165.65 216.5 166.15 215.8 166.35 215.1 166.15 214.8 165.65 Q214.8 165.35 215.1 165.15 L215.8 164.95 216.5 165.15 M196.0 140.65 Q196.3 140.85 196.3 141.15 L196.0 141.65 195.3 141.85 194.6 141.65 Q194.3 141.45 194.3 141.15 194.3 140.85 194.6 140.65 L195.3 140.45 196.0 140.65 M239.45 108.25 L239.7 108.75 239.45 109.25 238.75 109.45 238.1 109.25 Q237.8 109.05 237.8 108.75 237.8 108.45 238.1 108.25 L238.75 108.05 239.45 108.25 M182.5 61.55 Q182.8 61.75 182.8 62.05 L182.5 62.55 181.8 62.75 181.1 62.55 Q180.8 62.35 180.8 62.05 180.8 61.75 181.1 61.55 L181.8 61.35 182.5 61.55 M180.15 20.45 L180.4 20.95 180.15 21.45 179.45 21.65 178.8 21.45 Q178.5 21.25 178.5 20.95 178.5 20.65 178.8 20.45 L179.45 20.25 180.15 20.45 M282.9 72.65 L283.2 73.15 282.9 73.65 282.2 73.85 281.5 73.65 281.2 73.15 Q281.2 72.85 281.5 72.65 L282.2 72.45 282.9 72.65 M243.4 39.45 L243.7 39.95 243.4 40.45 242.7 40.65 242.0 40.45 Q241.7 40.25 241.7 39.95 241.7 39.65 242.0 39.45 L242.7 39.25 243.4 39.45 M317.7 41.05 L318.0 41.55 317.7 42.05 Q317.4 42.25 317.0 42.25 L316.3 42.05 316.0 41.55 Q316.0 41.25 316.3 41.05 L317.0 40.85 317.7 41.05 M353.3 215.75 L353.6 216.25 353.3 216.75 352.6 216.95 351.9 216.75 Q351.6 216.55 351.6 216.25 351.6 215.95 351.9 215.75 L352.6 215.55 353.3 215.75 M331.05 175.5 Q333.8 175.3 332.0 176.55 L331.1 175.75 331.05 175.5 M333.4 157.75 Q333.4 157.45 333.7 157.25 L334.4 157.05 335.1 157.25 335.4 157.75 335.1 158.25 334.4 158.45 333.7 158.25 333.4 157.75 M344.35 101.0 Q346.55 101.1 344.7 102.25 L343.7 100.95 344.35 101.0 M330.35 -48.35 L330.6 -47.85 330.35 -47.35 329.65 -47.15 329.0 -47.35 Q328.7 -47.55 328.7 -47.85 328.7 -48.15 329.0 -48.35 L329.65 -48.55 330.35 -48.35 M339.85 -79.15 L340.1 -78.65 339.85 -78.15 339.15 -77.95 338.5 -78.15 Q338.2 -78.35 338.2 -78.65 L338.5 -79.15 339.15 -79.35 339.85 -79.15 M332.7 -112.35 L333.0 -111.85 332.7 -111.35 332.0 -111.15 331.3 -111.35 Q331.0 -111.55 331.0 -111.85 L331.3 -112.35 332.0 -112.55 332.7 -112.35 M346.8 -137.15 L347.1 -137.65 347.8 -137.85 348.5 -137.65 348.8 -137.15 348.5 -136.65 Q348.2 -136.45 347.8 -136.45 L347.1 -136.65 Q346.8 -136.85 346.8 -137.15 M338.25 -187.45 L338.5 -186.95 338.25 -186.45 337.55 -186.25 336.9 -186.45 Q336.6 -186.65 336.6 -186.95 336.6 -187.25 336.9 -187.45 L337.55 -187.65 338.25 -187.45 M296.4 -4.85 L296.7 -4.35 296.4 -3.85 295.7 -3.65 295.0 -3.85 Q294.7 -4.05 294.7 -4.35 L295.0 -4.85 295.7 -5.05 296.4 -4.85 M268.7 -7.25 L269.0 -6.75 268.7 -6.25 Q268.4 -6.05 268.0 -6.05 L267.3 -6.25 Q267.0 -6.45 267.0 -6.75 267.0 -7.05 267.3 -7.25 L268.0 -7.45 268.7 -7.25 M279.0 -20.65 L279.3 -20.15 279.0 -19.65 278.3 -19.45 277.6 -19.65 Q277.3 -19.85 277.3 -20.15 L277.6 -20.65 278.3 -20.85 279.0 -20.65 M282.8 -58.75 L283.45 -58.7 Q285.65 -58.5 283.8 -57.45 L282.8 -58.75 M291.35 -91.9 Q293.6 -91.75 291.7 -90.65 L290.7 -91.95 291.35 -91.9 M234.7 -37.25 L235.0 -36.75 234.7 -36.25 234.0 -36.05 233.3 -36.25 Q233.0 -36.45 233.0 -36.75 233.0 -37.05 233.3 -37.25 L234.0 -37.45 234.7 -37.25 M213.35 -93.35 L213.6 -92.85 213.35 -92.35 212.65 -92.15 212.0 -92.35 Q211.7 -92.55 211.7 -92.85 211.7 -93.15 212.0 -93.35 L212.65 -93.55 213.35 -93.35 M241.0 -113.15 L241.3 -112.65 Q241.3 -112.35 241.0 -112.15 L240.3 -111.95 239.6 -112.15 Q239.3 -112.35 239.3 -112.65 239.3 -112.95 239.6 -113.15 L240.3 -113.35 241.0 -113.15 M190.95 -141.7 Q193.15 -141.6 191.3 -140.45 L190.3 -141.75 190.95 -141.7 M223.6 -190.65 L223.9 -190.15 223.6 -189.65 222.9 -189.45 222.2 -189.65 Q221.9 -189.85 221.9 -190.15 L222.2 -190.65 222.9 -190.85 223.6 -190.65 M282.9 -144.75 L283.2 -144.25 282.9 -143.75 282.2 -143.55 281.5 -143.75 Q281.2 -143.95 281.2 -144.25 L281.5 -144.75 282.2 -144.95 282.9 -144.75 M127.75 -33.4 Q129.95 -33.25 128.1 -32.15 L127.1 -33.45 127.75 -33.4 M42.6 -9.55 L42.9 -9.05 42.6 -8.55 Q42.3 -8.35 41.9 -8.35 L41.2 -8.55 Q40.9 -8.75 40.9 -9.05 L41.2 -9.55 41.9 -9.75 42.6 -9.55 M49.7 -88.65 L50.0 -88.15 49.7 -87.65 49.0 -87.45 48.3 -87.65 Q48.0 -87.85 48.0 -88.15 48.0 -88.45 48.3 -88.65 L49.0 -88.85 49.7 -88.65 M10.2 -180.35 L10.5 -179.85 10.2 -179.35 9.5 -179.15 8.8 -179.35 Q8.5 -179.55 8.5 -179.85 L8.8 -180.35 9.5 -180.55 10.2 -180.35 M64.7 -156.65 L65.0 -156.15 64.7 -155.65 64.0 -155.45 63.3 -155.65 Q63.0 -155.85 63.0 -156.15 63.0 -156.45 63.3 -156.65 L64.0 -156.85 64.7 -156.65 M132.7 -101.25 L133.0 -100.75 132.7 -100.25 132.0 -100.05 131.3 -100.25 Q131.0 -100.45 131.0 -100.75 131.0 -101.05 131.3 -101.25 L132.0 -101.45 132.7 -101.25 M117.7 -166.65 L117.7 -167.75 119.4 -167.75 119.4 -166.65 117.7 -166.65 M116.85 -209.5 Q119.65 -209.7 117.8 -208.45 L116.9 -209.25 116.85 -209.5 M29.4 -209.35 Q30.8 -209.15 29.2 -208.45 27.5 -209.75 29.4 -209.35 M314.55 -206.45 L314.8 -205.95 314.55 -205.45 313.85 -205.25 313.2 -205.45 Q312.9 -205.65 312.9 -205.95 L313.2 -206.45 313.85 -206.65 314.55 -206.45 M174.6 -211.15 L174.9 -210.65 174.6 -210.15 173.9 -209.95 173.2 -210.15 Q172.9 -210.35 172.9 -210.65 L173.2 -211.15 173.9 -211.35 174.6 -211.15" fill="#ffffff" fill-rule="evenodd" stroke="none"/>
  </g>
</svg>
