<?xml version="1.0" encoding="UTF-8" standalone="no"?>
<svg xmlns:ffdec="https://www.free-decompiler.com/flash" xmlns:xlink="http://www.w3.org/1999/xlink" ffdec:objectType="shape" height="263.9px" width="145.15px" xmlns="http://www.w3.org/2000/svg">
  <g transform="matrix(1.0, 0.0, 0.0, 1.0, 72.55, 131.95)">
    <path d="M-15.1 -117.05 Q-12.0 -114.1 -9.5 -109.1 L-7.4 -105.2 Q-7.45 -99.85 -11.7 -96.95 -9.75 -96.85 -7.7 -94.35 -6.0 -92.3 -4.05 -88.05 L-3.45 -93.3 Q-1.15 -106.9 -1.15 -108.05 -1.15 -112.45 -2.95 -115.05 -4.8 -117.6 -4.8 -120.25 -4.8 -124.8 -0.95 -125.75 L6.7 -126.45 Q9.45 -126.9 13.8 -129.55 17.65 -131.95 20.95 -131.95 23.5 -131.95 27.3 -128.9 L34.0 -122.95 34.5 -122.35 Q33.95 -121.25 32.7 -120.45 31.2 -119.55 29.7 -119.55 28.5 -119.55 27.85 -120.35 26.75 -121.65 24.65 -122.7 L23.75 -122.7 23.25 -120.7 Q23.25 -116.45 25.1 -114.45 L25.1 -112.15 22.35 -112.15 20.55 -114.2 Q19.3 -115.15 17.3 -114.95 L16.8 -111.9 Q16.8 -108.4 18.65 -106.65 L26.5 -102.45 Q26.5 -96.2 28.35 -93.35 L29.6 -91.7 Q30.15 -90.9 30.15 -90.1 30.15 -88.85 27.4 -88.2 26.0 -88.2 24.15 -91.65 22.35 -95.15 21.15 -95.15 L16.8 -90.05 Q13.5 -98.3 11.75 -99.25 L10.15 -98.1 Q9.1 -97.25 9.0 -95.6 5.65 -96.3 4.65 -99.35 4.05 -103.1 3.45 -104.8 L3.0 -104.8 Q2.7 -102.8 2.65 -99.4 L2.55 -94.65 Q2.55 -83.6 7.65 -77.25 11.25 -72.7 21.45 -67.05 22.9 -70.0 30.45 -76.05 38.15 -82.2 40.75 -82.2 43.15 -82.2 44.45 -79.95 45.35 -78.4 45.35 -76.95 45.35 -75.7 44.0 -69.65 42.6 -63.6 42.6 -59.7 36.0 -59.55 31.35 -55.1 L24.2 -46.35 9.75 -51.75 6.05 -53.05 Q5.75 -53.6 5.75 -54.15 5.65 -62.8 2.35 -68.25 L-2.15 -75.95 Q-3.3 -78.15 -3.7 -83.0 L-4.05 -88.05 -3.7 -83.0 Q-3.3 -78.15 -2.15 -75.95 L2.35 -68.25 Q5.65 -62.8 5.75 -54.15 5.75 -53.6 6.05 -53.05 L5.3 -53.25 4.3 -53.45 Q0.85 -56.65 -1.15 -56.45 L-1.15 -51.4 Q-3.95 -52.4 -7.55 -55.1 L-9.2 -56.35 Q-12.85 -59.2 -15.9 -59.2 L-19.65 -58.85 Q-20.05 -58.35 -20.95 -54.15 L-25.5 -53.7 -25.5 -51.85 -24.25 -49.5 Q-23.35 -47.8 -23.25 -46.75 L-28.1 -46.45 Q-30.15 -45.75 -30.15 -42.9 -30.15 -41.8 -29.2 -37.85 -29.2 -36.6 -32.4 -34.8 -35.65 -33.05 -35.65 -31.35 -35.65 -29.15 -33.8 -26.45 -32.0 -23.75 -32.0 -22.35 -32.0 -21.2 -33.8 -18.9 -35.65 -16.6 -35.65 -15.3 -35.65 -14.85 -34.7 -13.45 -33.8 -12.05 -33.8 -10.6 -33.8 -9.2 -35.2 -3.3 -35.2 -2.35 -34.25 -0.95 -33.35 0.4 -33.35 1.3 -33.35 3.2 -36.1 7.35 -38.9 11.5 -38.9 13.8 L-38.45 21.35 -43.05 29.15 Q-43.05 30.3 -42.1 32.2 -42.1 33.1 -43.7 35.4 -45.3 37.7 -45.3 39.3 -45.3 40.5 -44.4 41.85 -43.5 43.25 -43.5 44.4 -43.5 45.55 -44.85 47.85 -46.2 50.15 -46.2 51.3 -46.2 52.65 -42.5 62.1 -38.7 71.75 -36.15 73.85 L-35.75 74.35 Q-37.15 75.75 -38.9 75.75 -41.7 75.75 -46.3 71.55 -49.4 68.65 -51.8 65.55 -53.45 63.45 -54.8 59.35 -56.2 55.25 -56.4 51.75 -57.75 32.75 -57.75 17.45 L-57.75 3.4 Q-57.75 1.9 -56.15 -2.55 -54.55 -7.0 -54.55 -7.85 L-54.35 -16.15 Q-57.6 -17.6 -58.75 -18.6 -61.6 -21.0 -60.05 -24.7 -63.5 -25.0 -64.35 -29.1 -64.65 -30.55 -64.65 -36.65 -64.65 -45.85 -64.2 -50.0 L-58.25 -50.45 Q-59.65 -52.0 -60.0 -54.55 L-60.55 -58.3 -61.0 -58.7 -61.0 -58.75 -59.35 -60.45 -58.75 -59.95 -57.3 -64.75 -52.2 -75.35 Q-53.25 -86.05 -55.45 -92.45 -58.9 -102.65 -69.1 -110.05 -64.5 -119.2 -55.4 -122.0 -49.9 -126.0 -41.45 -126.0 -36.6 -126.0 -32.1 -125.0 L-32.05 -125.0 Q-32.8 -122.2 -35.1 -120.2 -38.45 -117.2 -39.7 -112.95 -40.1 -111.65 -39.55 -110.25 -38.25 -107.2 -38.45 -104.15 -38.55 -102.8 -39.2 -101.8 L-43.5 -95.15 -43.5 -93.3 -41.2 -93.3 -39.8 -96.3 -37.5 -96.25 -36.6 -95.6 -33.8 -95.6 -33.8 -101.1 -34.2 -101.2 Q-32.9 -104.9 -30.25 -107.95 -29.15 -109.15 -28.95 -110.8 L-28.75 -112.65 -15.95 -116.25 -15.85 -116.3 -15.1 -117.05 M-40.75 -69.8 Q-52.5 -61.95 -54.15 -53.75 -55.25 -48.35 -54.1 -33.7 L-54.35 -16.15 -54.1 -33.7 Q-55.25 -48.35 -54.15 -53.75 -52.5 -61.95 -40.75 -69.8 M-31.9 32.45 L-28.55 27.15 Q-24.25 20.7 -21.85 16.35 -19.5 12.05 -19.15 -1.8 L-17.7 -0.7 Q-16.3 0.1 -16.2 2.15 L-15.85 4.8 Q-15.45 5.3 -10.25 6.75 -5.7 8.0 -5.7 10.3 -5.7 12.05 -10.95 17.3 L-18.65 24.6 -18.65 26.45 -12.05 26.55 Q-6.05 26.85 -4.8 27.85 L-11.45 32.1 Q-15.85 35.2 -15.85 37.25 -15.85 38.4 -15.4 38.4 -13.8 38.4 -9.05 40.3 -3.9 42.35 -3.9 43.65 -3.9 47.55 -10.55 53.55 -17.25 59.55 -17.25 60.95 -17.25 63.0 -15.85 63.8 -14.5 64.6 -14.5 66.0 -14.5 67.5 -16.55 69.25 -18.65 71.05 -18.65 72.95 -18.65 75.7 -15.85 77.45 -14.2 78.5 -9.65 80.05 -5.2 81.55 -3.45 82.75 -0.65 84.65 -0.65 87.65 -0.65 90.15 -4.1 92.8 -7.95 95.75 -8.5 97.35 L-8.5 99.2 Q-6.75 100.05 -3.0 102.4 -3.65 103.75 -6.2 105.9 L-9.9 108.85 -9.9 112.1 -2.5 112.55 -7.05 119.45 Q-4.3 118.85 0.25 121.75 -0.95 123.5 -3.95 126.75 L-5.75 128.7 -22.05 131.95 -22.1 131.95 Q-24.3 124.8 -25.7 113.05 -26.85 103.7 -26.85 99.65 -25.75 90.85 -26.4 86.3 -26.7 84.3 -28.35 79.65 -29.7 75.8 -29.7 72.45 -29.7 69.85 -28.75 65.65 L-27.85 61.6 Q-27.85 58.8 -28.8 55.45 L-32.45 43.45 -32.45 33.4 -31.9 32.45 M50.9 -52.3 Q43.8 -43.05 42.8 -43.05 41.6 -43.05 37.75 -44.7 33.95 -46.35 30.15 -46.35 31.15 -48.8 34.2 -49.85 40.0 -51.9 40.75 -52.3 L50.9 -52.3" fill="#ffffff" fill-rule="evenodd" stroke="none"/>
    <path d="M34.5 -122.35 Q36.95 -119.45 37.9 -113.8 L39.25 -104.45 Q39.6 -101.35 42.85 -94.55 43.75 -87.5 47.1 -83.55 50.4 -79.65 54.15 -67.05 56.2 -60.2 61.1 -47.0 64.75 -35.0 63.3 -24.25 63.0 -21.75 67.65 -5.85 72.6 10.9 72.6 17.9 L71.6 33.8 Q71.6 38.15 68.7 39.65 L61.0 41.6 Q55.55 42.9 46.3 43.9 L31.75 44.85 31.55 44.85 22.9 44.2 Q20.65 39.95 18.85 34.4 16.8 27.95 16.8 24.3 L17.75 12.1 Q17.75 7.15 16.55 -3.35 15.2 -15.25 15.0 -18.7 14.9 -20.8 12.0 -24.0 9.2 -27.05 9.45 -29.3 9.9 -33.95 9.9 -42.4 9.9 -46.9 9.0 -49.1 L8.95 -49.25 8.9 -49.3 7.05 -51.6 6.05 -53.05 9.75 -51.75 24.2 -46.35 31.35 -55.1 Q36.0 -59.55 42.6 -59.7 42.6 -63.6 44.0 -69.65 45.35 -75.7 45.35 -76.95 45.35 -78.4 44.45 -79.95 43.15 -82.2 40.75 -82.2 38.15 -82.2 30.45 -76.05 22.9 -70.0 21.45 -67.05 11.25 -72.7 7.65 -77.25 2.55 -83.6 2.55 -94.65 L2.65 -99.4 Q2.7 -102.8 3.0 -104.8 L3.45 -104.8 Q4.05 -103.1 4.65 -99.35 5.65 -96.3 9.0 -95.6 9.1 -97.25 10.15 -98.1 L11.75 -99.25 Q13.5 -98.3 16.8 -90.05 L21.15 -95.15 Q22.35 -95.15 24.15 -91.65 26.0 -88.2 27.4 -88.2 30.15 -88.85 30.15 -90.1 30.15 -90.9 29.6 -91.7 L28.35 -93.35 Q26.5 -96.2 26.5 -102.45 L18.65 -106.65 Q16.8 -108.4 16.8 -111.9 L17.3 -114.95 Q19.3 -115.15 20.55 -114.2 L22.35 -112.15 25.1 -112.15 25.1 -114.45 Q23.25 -116.45 23.25 -120.7 L23.75 -122.7 24.65 -122.7 Q26.75 -121.65 27.85 -120.35 28.5 -119.55 29.7 -119.55 31.2 -119.55 32.7 -120.45 33.95 -121.25 34.5 -122.35 M-15.95 -116.25 L-16.45 -118.05 -15.1 -117.05 -15.85 -116.3 -15.95 -116.25 M50.9 -52.3 L40.75 -52.3 Q40.0 -51.9 34.2 -49.85 31.15 -48.8 30.15 -46.35 33.95 -46.35 37.75 -44.7 41.6 -43.05 42.8 -43.05 43.8 -43.05 50.9 -52.3" fill="#999999" fill-rule="evenodd" stroke="none"/>
    <path d="M31.55 44.85 L31.55 45.75 Q31.55 48.95 30.15 54.95 30.15 56.7 30.85 57.95 31.55 59.25 31.55 60.95 31.55 66.9 25.95 77.2 L23.55 81.6 18.65 90.9 Q16.85 96.2 17.0 105.85 L17.3 126.2 10.7 126.5 Q5.1 126.85 -3.65 128.35 L-3.95 126.75 Q-0.95 123.5 0.25 121.75 -4.3 118.85 -7.05 119.45 L-2.5 112.55 -9.9 112.1 -9.9 108.85 -6.2 105.9 Q-3.65 103.75 -3.0 102.4 -6.75 100.05 -8.5 99.2 L-8.5 97.35 Q-7.95 95.75 -4.1 92.8 -0.65 90.15 -0.65 87.65 -0.65 84.65 -3.45 82.75 -5.2 81.55 -9.65 80.05 -14.2 78.5 -15.85 77.45 -18.65 75.7 -18.65 72.95 -18.65 71.05 -16.55 69.25 -14.5 67.5 -14.5 66.0 -14.5 64.6 -15.85 63.8 -17.25 63.0 -17.25 60.95 -17.25 59.55 -10.55 53.55 -3.9 47.55 -3.9 43.65 -3.9 42.35 -9.05 40.3 -13.8 38.4 -15.4 38.4 -15.85 38.4 -15.85 37.25 -15.85 35.2 -11.45 32.1 L-4.8 27.85 Q-6.05 26.85 -12.05 26.55 L-18.65 26.45 -18.65 24.6 -10.95 17.3 Q-5.7 12.05 -5.7 10.3 -5.7 8.0 -10.25 6.75 -15.45 5.3 -15.85 4.8 L-16.2 2.15 Q-16.3 0.1 -17.7 -0.7 L-19.15 -1.8 Q-19.5 12.05 -21.85 16.35 -24.25 20.7 -28.55 27.15 L-31.9 32.45 -32.45 32.4 -32.45 33.4 -33.35 35.15 Q-34.05 36.65 -34.1 40.3 -34.1 42.1 -34.25 43.35 -34.45 44.65 -34.75 45.3 -35.75 47.65 -39.35 52.65 L-39.35 57.3 -36.1 62.3 Q-33.35 66.9 -33.35 68.3 -33.35 70.55 -34.75 72.95 L-35.75 74.35 -36.15 73.85 Q-38.7 71.75 -42.5 62.1 -46.2 52.65 -46.2 51.3 -46.2 50.15 -44.85 47.85 -43.5 45.55 -43.5 44.4 -43.5 43.25 -44.4 41.85 -45.3 40.5 -45.3 39.3 -45.3 37.7 -43.7 35.4 -42.1 33.1 -42.1 32.2 -43.05 30.3 -43.05 29.15 L-38.45 21.35 -38.9 13.8 Q-38.9 11.5 -36.1 7.35 -33.35 3.2 -33.35 1.3 -33.35 0.4 -34.25 -0.95 -35.2 -2.35 -35.2 -3.3 -33.8 -9.2 -33.8 -10.6 -33.8 -12.05 -34.7 -13.45 -35.65 -14.85 -35.65 -15.3 -35.65 -16.6 -33.8 -18.9 -32.0 -21.2 -32.0 -22.35 -32.0 -23.75 -33.8 -26.45 -35.65 -29.15 -35.65 -31.35 -35.65 -33.05 -32.4 -34.8 -29.2 -36.6 -29.2 -37.85 -30.15 -41.8 -30.15 -42.9 -30.15 -45.75 -28.1 -46.45 L-23.25 -46.75 Q-23.35 -47.8 -24.25 -49.5 L-25.5 -51.85 -25.5 -53.7 -20.95 -54.15 Q-20.05 -58.35 -19.65 -58.85 L-15.9 -59.2 Q-12.85 -59.2 -9.2 -56.35 L-7.55 -55.1 Q-6.25 -47.75 -8.2 -38.4 -10.4 -27.85 -15.4 -26.05 -15.4 -22.6 -17.25 -17.9 -19.1 -13.25 -19.1 -6.75 L-19.15 -1.8 -19.1 -6.75 Q-19.1 -13.25 -17.25 -17.9 -15.4 -22.6 -15.4 -26.05 -10.4 -27.85 -8.2 -38.4 -6.25 -47.75 -7.55 -55.1 -3.95 -52.4 -1.15 -51.4 L-1.15 -56.45 Q0.85 -56.65 4.3 -53.45 L8.95 -49.25 9.0 -49.1 Q9.9 -46.9 9.9 -42.4 9.9 -33.95 9.45 -29.3 9.2 -27.05 12.0 -24.0 14.9 -20.8 15.0 -18.7 15.2 -15.25 16.55 -3.35 17.75 7.15 17.75 12.1 L16.8 24.3 Q16.8 27.95 18.85 34.4 20.65 39.95 22.9 44.2 L31.55 44.85 M-15.95 -116.25 L-28.75 -112.65 -28.95 -110.8 Q-29.15 -109.15 -30.25 -107.95 -32.9 -104.9 -34.2 -101.2 L-33.8 -101.1 -33.8 -95.6 -36.6 -95.6 -37.5 -96.25 -39.8 -96.3 -41.2 -93.3 -43.5 -93.3 -43.5 -95.15 -39.2 -101.8 Q-38.55 -102.8 -38.45 -104.15 -38.25 -107.2 -39.55 -110.25 -40.1 -111.65 -39.7 -112.95 -38.45 -117.2 -35.1 -120.2 -32.8 -122.2 -32.05 -125.0 -23.5 -123.2 -16.45 -118.05 L-15.95 -116.25" fill="url(#gradient0)" fill-rule="evenodd" stroke="none"/>
    <path d="M-69.1 -110.05 Q-58.9 -102.65 -55.45 -92.45 -53.25 -86.05 -52.2 -75.35 L-57.3 -64.75 -58.75 -59.95 -59.35 -60.45 Q-63.25 -64.75 -66.0 -69.25 -77.15 -87.65 -69.35 -110.1 L-69.1 -110.05" fill="url(#gradient1)" fill-rule="evenodd" stroke="none"/>
    <path d="M23.55 81.6 L23.75 88.15 Q25.5 95.2 28.35 125.9 L17.3 126.2 17.0 105.85 Q16.85 96.2 18.65 90.9 L23.55 81.6" fill="#777777" fill-rule="evenodd" stroke="none"/>
    <path d="M-15.1 -117.05 Q-12.0 -114.1 -9.5 -109.1 L-7.4 -105.2 Q-7.45 -99.85 -11.7 -96.95 -9.75 -96.85 -7.7 -94.35 -6.0 -92.3 -4.05 -88.05 L-3.45 -93.3 Q-1.15 -106.9 -1.15 -108.05 -1.15 -112.45 -2.95 -115.05 -4.8 -117.6 -4.8 -120.25 -4.8 -124.8 -0.95 -125.75 L6.7 -126.45 Q9.45 -126.9 13.8 -129.55 17.65 -131.95 20.95 -131.95 23.5 -131.95 27.3 -128.9 L34.0 -122.95 34.5 -122.35 Q36.95 -119.45 37.9 -113.8 L39.25 -104.45 Q39.6 -101.35 42.85 -94.55 43.75 -87.5 47.1 -83.55 50.4 -79.65 54.15 -67.05 56.2 -60.2 61.1 -47.0 64.75 -35.0 63.3 -24.25 63.0 -21.75 67.65 -5.85 72.6 10.9 72.6 17.9 L71.6 33.8 Q71.6 38.15 68.7 39.65 L61.0 41.6 Q55.55 42.9 46.3 43.9 L31.75 44.85 31.55 44.85 22.9 44.2 Q20.65 39.95 18.85 34.4 16.8 27.95 16.8 24.3 L17.75 12.1 Q17.75 7.15 16.55 -3.35 15.2 -15.25 15.0 -18.7 14.9 -20.8 12.0 -24.0 9.2 -27.05 9.45 -29.3 9.9 -33.95 9.9 -42.4 9.9 -46.9 9.0 -49.1 L8.95 -49.25 8.9 -49.3 7.05 -51.6 6.05 -53.05 Q5.75 -53.6 5.75 -54.15 5.65 -62.8 2.35 -68.25 L-2.15 -75.95 Q-3.3 -78.15 -3.7 -83.0 L-4.05 -88.05 M31.55 45.75 Q31.55 48.95 30.15 54.95 30.15 56.7 30.85 57.95 31.55 59.25 31.55 60.95 31.55 66.9 25.95 77.2 L23.55 81.6 23.75 88.15 Q25.5 95.2 28.35 125.9 L17.3 126.2 17.3 126.8 M-16.45 -118.05 Q-23.5 -123.2 -32.05 -125.0 M-32.1 -125.0 Q-36.6 -126.0 -41.45 -126.0 -49.9 -126.0 -55.4 -122.0 -64.5 -119.2 -69.1 -110.05 -58.9 -102.65 -55.45 -92.45 -53.25 -86.05 -52.2 -75.35 L-57.3 -64.75 -58.75 -59.95 -59.35 -60.45 Q-63.25 -64.75 -66.0 -69.25 L-66.9 -67.05 -66.9 -64.3 -61.0 -58.75 -61.0 -58.7 -60.55 -58.3 -60.0 -54.55 Q-59.65 -52.0 -58.25 -50.45 L-64.2 -50.0 Q-64.65 -45.85 -64.65 -36.65 -64.65 -30.55 -64.35 -29.1 -63.5 -25.0 -60.05 -24.7 -61.6 -21.0 -58.75 -18.6 -57.6 -17.6 -54.35 -16.15 L-54.1 -33.7 Q-55.25 -48.35 -54.15 -53.75 -52.5 -61.95 -40.75 -69.8 M-15.1 -117.05 L-16.45 -118.05 M-69.1 -110.05 L-69.35 -110.2 -69.35 -110.1 Q-77.15 -87.65 -66.0 -69.25 M-35.75 74.35 L-34.75 72.95 Q-33.35 70.55 -33.35 68.3 -33.35 66.9 -36.1 62.3 L-39.35 57.3 -39.35 52.65 Q-35.75 47.65 -34.75 45.3 -34.45 44.65 -34.25 43.35 -34.1 42.1 -34.1 40.3 -34.05 36.65 -33.35 35.15 L-32.45 33.4 -32.45 32.4 -31.9 32.45 -28.55 27.15 Q-24.25 20.7 -21.85 16.35 -19.5 12.05 -19.15 -1.8 L-19.1 -6.75 Q-19.1 -13.25 -17.25 -17.9 -15.4 -22.6 -15.4 -26.05 -10.4 -27.85 -8.2 -38.4 -6.25 -47.75 -7.55 -55.1 M-54.35 -16.15 L-54.55 -7.85 Q-54.55 -7.0 -56.15 -2.55 -57.75 1.9 -57.75 3.4 L-57.75 17.45 Q-57.75 32.75 -56.4 51.75 -56.2 55.25 -54.8 59.35 -53.45 63.45 -51.8 65.55 -49.4 68.65 -46.3 71.55 -41.7 75.75 -38.9 75.75 -37.15 75.75 -35.75 74.35 M-3.65 128.35 Q5.1 126.85 10.7 126.5 L17.3 126.2 17.0 105.85 Q16.85 96.2 18.65 90.9 L23.55 81.6 M-31.9 32.45 L-32.45 33.4 -32.45 43.45 -28.8 55.45 Q-27.85 58.8 -27.85 61.6 L-28.75 65.65 Q-29.7 69.85 -29.7 72.45 -29.7 75.8 -28.35 79.65 -26.7 84.3 -26.4 86.3 -25.75 90.85 -26.85 99.65 -26.85 103.7 -25.7 113.05 -24.3 124.8 -22.1 131.95 L-22.05 131.95 -5.75 128.7 -3.65 128.35" fill="none" stroke="#000000" stroke-linecap="round" stroke-linejoin="round" stroke-width="0.05"/>
  </g>
  <defs>
    <linearGradient gradientTransform="matrix(-0.0309, 0.0015, -0.0055, -0.1126, 23.8, 35.2)" gradientUnits="userSpaceOnUse" id="gradient0" spreadMethod="pad" x1="-819.2" x2="819.2">
      <stop offset="0.0" stop-color="#666666"/>
      <stop offset="1.0" stop-color="#b3b3b3"/>
    </linearGradient>
    <linearGradient gradientTransform="matrix(-0.0062, -0.0306, 0.0108, -0.0022, -62.85, -85.25)" gradientUnits="userSpaceOnUse" id="gradient1" spreadMethod="pad" x1="-819.2" x2="819.2">
      <stop offset="0.00392156862745098" stop-color="#3c332b"/>
      <stop offset="0.36470588235294116" stop-color="#9a876d"/>
      <stop offset="1.0" stop-color="#fbf9ee"/>
    </linearGradient>
  </defs>
</svg>
