<?xml version="1.0" encoding="UTF-8" standalone="no"?>
<svg xmlns:ffdec="https://www.free-decompiler.com/flash" xmlns:xlink="http://www.w3.org/1999/xlink" ffdec:objectType="shape" height="8.1px" width="11.9px" xmlns="http://www.w3.org/2000/svg">
  <g transform="matrix(1.0, 0.0, 0.0, 1.0, 243.7, 139.6)">
    <path d="M-234.9 -138.55 L-234.3 -138.1 -233.8 -137.85 Q-232.15 -136.8 -232.15 -135.35 -232.15 -133.9 -233.8 -132.9 -235.45 -131.85 -237.75 -131.85 -240.05 -131.85 -241.7 -132.9 -243.35 -133.9 -243.35 -135.35 -243.35 -136.8 -241.7 -137.85 L-241.15 -138.15 -240.65 -138.55 Q-239.45 -139.25 -237.75 -139.25 L-236.35 -139.1 -234.9 -138.55" fill="#000000" fill-rule="evenodd" stroke="none"/>
    <path d="M-234.9 -138.55 L-234.3 -138.1 -233.8 -137.85 Q-232.15 -136.8 -232.15 -135.35 -232.15 -133.9 -233.8 -132.9 -235.45 -131.85 -237.75 -131.85 -240.05 -131.85 -241.7 -132.9 -243.35 -133.9 -243.35 -135.35 -243.35 -136.8 -241.7 -137.85 L-241.15 -138.15 -240.65 -138.55 Q-239.45 -139.25 -237.75 -139.25 L-236.35 -139.1 -234.9 -138.55 Z" fill="none" stroke="#333333" stroke-linecap="round" stroke-linejoin="round" stroke-width="0.7000000000000001"/>
    <path d="M-234.3 -138.1 Q-233.7 -137.5 -233.7 -136.75 -233.7 -135.7 -234.9 -135.0 L-235.05 -134.9 Q-236.2 -134.25 -237.75 -134.25 -239.45 -134.25 -240.65 -135.0 -241.8 -135.7 -241.8 -136.75 L-241.8 -136.8 -241.75 -137.15 -241.15 -138.15 -240.65 -138.55 Q-239.45 -139.25 -237.75 -139.25 L-236.35 -139.1 -234.9 -138.55 -234.3 -138.1" fill="#ffff00" fill-rule="evenodd" stroke="none"/>
    <path d="M-241.15 -138.15 L-241.75 -137.15 -241.8 -136.8 -241.8 -136.75 Q-241.8 -135.7 -240.65 -135.0 -239.45 -134.25 -237.75 -134.25 -236.2 -134.25 -235.05 -134.9 L-234.9 -135.0 Q-233.7 -135.7 -233.7 -136.75 -233.7 -137.5 -234.3 -138.1 L-233.8 -137.85 Q-232.15 -136.8 -232.15 -135.35 -232.15 -133.9 -233.8 -132.9 -235.45 -131.85 -237.75 -131.85 -240.05 -131.85 -241.7 -132.9 -243.35 -133.9 -243.35 -135.35 -243.35 -136.8 -241.7 -137.85 L-241.15 -138.15" fill="#ffcc00" fill-rule="evenodd" stroke="none"/>
  </g>
</svg>
