<?xml version="1.0" encoding="UTF-8" standalone="no"?>
<svg xmlns:ffdec="https://www.free-decompiler.com/flash" xmlns:xlink="http://www.w3.org/1999/xlink" ffdec:objectType="shape" height="15.15px" width="22.5px" xmlns="http://www.w3.org/2000/svg">
  <g transform="matrix(1.0, 0.0, 0.0, 1.0, 249.2, 143.7)">
    <path d="M-232.4 -141.8 Q-230.65 -140.6 -230.2 -139.05 -227.05 -137.35 -227.05 -134.9 -227.05 -132.45 -230.25 -130.65 -233.45 -128.9 -237.95 -128.9 -242.45 -128.9 -245.65 -130.65 -248.85 -132.45 -248.85 -134.9 -248.85 -137.25 -245.9 -138.9 L-245.6 -139.75 Q-245.05 -140.9 -243.7 -141.8 -241.35 -143.35 -238.05 -143.35 -234.75 -143.35 -232.4 -141.8" fill="#000000" fill-rule="evenodd" stroke="none"/>
    <path d="M-232.4 -141.8 Q-234.75 -143.35 -238.05 -143.35 -241.35 -143.35 -243.7 -141.8 -245.05 -140.9 -245.6 -139.75 L-245.9 -138.9 Q-248.85 -137.25 -248.85 -134.9 -248.85 -132.45 -245.65 -130.65 -242.45 -128.9 -237.95 -128.9 -233.45 -128.9 -230.25 -130.65 -227.05 -132.45 -227.05 -134.9 -227.05 -137.35 -230.2 -139.05 -230.65 -140.6 -232.4 -141.8 Z" fill="none" stroke="#333333" stroke-linecap="round" stroke-linejoin="round" stroke-width="0.7000000000000001"/>
    <path d="M-245.9 -138.9 L-246.05 -137.95 Q-246.05 -135.7 -243.7 -134.15 -241.5 -132.65 -237.75 -132.55 L-237.5 -132.55 Q-234.55 -132.7 -232.4 -134.15 -230.05 -135.7 -230.05 -137.95 L-230.2 -139.05 Q-227.05 -137.35 -227.05 -134.9 -227.05 -132.45 -230.25 -130.65 -233.45 -128.9 -237.95 -128.9 -242.45 -128.9 -245.65 -130.65 -248.85 -132.45 -248.85 -134.9 -248.85 -137.25 -245.9 -138.9" fill="#ffcc00" fill-rule="evenodd" stroke="none"/>
    <path d="M-230.2 -139.05 L-230.05 -137.95 Q-230.05 -135.7 -232.4 -134.15 -234.55 -132.7 -237.5 -132.55 L-237.75 -132.55 Q-241.5 -132.65 -243.7 -134.15 -246.05 -135.7 -246.05 -137.95 L-245.9 -138.9 -245.6 -139.75 Q-245.05 -140.9 -243.7 -141.8 -241.35 -143.35 -238.05 -143.35 -234.75 -143.35 -232.4 -141.8 -230.65 -140.6 -230.2 -139.05" fill="#ffff00" fill-rule="evenodd" stroke="none"/>
  </g>
</svg>
