<?xml version="1.0" encoding="UTF-8" standalone="no"?>
<svg xmlns:ffdec="https://www.free-decompiler.com/flash" xmlns:xlink="http://www.w3.org/1999/xlink" ffdec:objectType="shape" height="20.1px" width="30.15px" xmlns="http://www.w3.org/2000/svg">
  <g transform="matrix(1.0, 0.0, 0.0, 1.0, 252.9, 147.25)">
    <path d="M-238.0 -146.9 L-237.8 -146.9 Q-235.35 -146.8 -231.2 -144.2 L-230.35 -143.1 -227.4 -141.75 Q-223.1 -139.3 -223.1 -135.85 -223.1 -132.4 -227.4 -129.95 -231.75 -127.5 -237.85 -127.5 -243.95 -127.5 -248.25 -129.95 -252.6 -132.4 -252.55 -135.85 -252.6 -139.3 -248.25 -141.75 L-248.15 -141.6 -247.75 -142.05 -245.1 -144.1 Q-240.8 -146.9 -238.0 -146.9" fill="#000000" fill-rule="evenodd" stroke="none"/>
    <path d="M-238.0 -146.9 Q-240.8 -146.9 -245.1 -144.1 L-247.75 -142.05 -248.15 -141.6 -248.25 -141.75 Q-252.6 -139.3 -252.55 -135.85 -252.6 -132.4 -248.25 -129.95 -243.95 -127.5 -237.85 -127.5 -231.75 -127.5 -227.4 -129.95 -223.1 -132.4 -223.1 -135.85 -223.1 -139.3 -227.4 -141.75 L-230.35 -143.1 -231.2 -144.2 Q-235.35 -146.8 -237.8 -146.9 L-238.0 -146.9 Z" fill="none" stroke="#333333" stroke-linecap="round" stroke-linejoin="round" stroke-width="0.7000000000000001"/>
    <path d="M-248.15 -141.6 Q-249.35 -140.35 -249.35 -139.4 L-249.15 -138.5 Q-248.6 -137.1 -246.3 -135.55 -243.4 -133.6 -240.55 -133.35 L-240.0 -133.35 -240.0 -133.25 -238.85 -133.05 Q-235.7 -133.05 -232.3 -134.75 -228.5 -136.65 -228.5 -139.05 -228.5 -140.45 -229.85 -142.45 L-230.35 -143.1 -227.4 -141.75 Q-223.1 -139.3 -223.1 -135.85 -223.1 -132.4 -227.4 -129.95 -231.75 -127.5 -237.85 -127.5 -243.95 -127.5 -248.25 -129.95 -252.6 -132.4 -252.55 -135.85 -252.6 -139.3 -248.25 -141.75 L-248.15 -141.6" fill="#ffcc00" fill-rule="evenodd" stroke="none"/>
    <path d="M-230.35 -143.1 L-229.85 -142.45 Q-228.5 -140.45 -228.5 -139.05 -228.5 -136.65 -232.3 -134.75 -235.7 -133.05 -238.85 -133.05 L-240.0 -133.25 -240.0 -133.35 -240.55 -133.35 Q-243.4 -133.6 -246.3 -135.55 -248.6 -137.1 -249.15 -138.5 L-249.35 -139.4 Q-249.35 -140.35 -248.15 -141.6 L-247.75 -142.05 -245.1 -144.1 Q-240.8 -146.9 -238.0 -146.9 L-237.8 -146.9 Q-235.35 -146.8 -231.2 -144.2 L-230.35 -143.1" fill="#ffff00" fill-rule="evenodd" stroke="none"/>
  </g>
</svg>
