<?xml version="1.0" encoding="UTF-8" standalone="no"?>
<svg xmlns:ffdec="https://www.free-decompiler.com/flash" xmlns:xlink="http://www.w3.org/1999/xlink" ffdec:objectType="shape" height="36.75px" width="49.9px" xmlns="http://www.w3.org/2000/svg">
  <g transform="matrix(1.0, 0.0, 0.0, 1.0, 262.85, 160.9)">
    <path d="M-228.25 -158.05 L-224.15 -154.55 Q-221.85 -153.25 -217.45 -151.2 -214.25 -149.25 -214.25 -146.8 -214.25 -144.85 -215.75 -143.25 L-216.0 -142.95 Q-213.3 -140.35 -213.3 -137.15 -213.3 -131.95 -220.5 -128.2 -227.75 -124.5 -237.9 -124.5 -248.05 -124.5 -255.25 -128.2 -262.5 -131.95 -262.5 -137.15 -262.5 -139.35 -261.2 -141.3 L-261.35 -141.75 -261.55 -144.35 Q-261.5 -145.9 -260.75 -146.9 -257.25 -149.9 -257.1 -150.95 -256.5 -154.85 -255.85 -155.7 -255.0 -156.8 -252.15 -156.8 L-246.85 -157.45 Q-243.6 -158.05 -241.45 -158.9 -239.35 -159.8 -235.2 -160.55 L-232.25 -160.15 Q-230.1 -159.55 -228.25 -158.05 M-232.25 -155.85 L-231.6 -155.85 -232.15 -155.85 -232.25 -155.85 M-259.8 -138.8 L-259.85 -138.8 -259.8 -138.75 -259.8 -138.8" fill="#000000" fill-rule="evenodd" stroke="none"/>
    <path d="M-228.25 -158.05 Q-230.1 -159.55 -232.25 -160.15 L-235.2 -160.55 Q-239.35 -159.8 -241.45 -158.9 -243.6 -158.05 -246.85 -157.45 L-252.15 -156.8 Q-255.0 -156.8 -255.85 -155.7 -256.5 -154.85 -257.1 -150.95 -257.25 -149.9 -260.75 -146.9 -261.5 -145.9 -261.55 -144.35 L-261.35 -141.75 -261.2 -141.3 Q-262.5 -139.35 -262.5 -137.15 -262.5 -131.95 -255.25 -128.2 -248.05 -124.5 -237.9 -124.5 -227.75 -124.5 -220.5 -128.2 -213.3 -131.95 -213.3 -137.15 -213.3 -140.35 -216.0 -142.95 L-215.75 -143.25 Q-214.25 -144.85 -214.25 -146.8 -214.25 -149.25 -217.45 -151.2 -221.85 -153.25 -224.15 -154.55 L-228.25 -158.05 Z" fill="none" stroke="#333333" stroke-linecap="round" stroke-linejoin="round" stroke-width="0.7000000000000001"/>
    <path d="M-261.2 -141.3 L-261.35 -141.75 -261.55 -144.35 Q-261.5 -145.9 -260.75 -146.9 -257.25 -149.9 -257.1 -150.95 -256.5 -154.85 -255.85 -155.7 -255.0 -156.8 -252.15 -156.8 L-246.85 -157.45 Q-243.6 -158.05 -241.45 -158.9 -239.35 -159.8 -235.2 -160.55 L-232.25 -160.15 Q-230.7 -159.7 -229.25 -158.8 L-228.25 -158.05 -226.95 -156.95 Q-226.7 -156.35 -226.75 -155.65 -225.8 -155.3 -225.1 -154.6 -223.95 -153.45 -224.1 -152.0 -224.2 -151.0 -224.95 -150.25 L-223.95 -149.5 Q-222.8 -148.35 -222.95 -146.9 -223.1 -145.5 -224.55 -144.65 -225.3 -144.2 -226.2 -144.05 -225.7 -143.2 -225.8 -142.2 -225.95 -140.8 -227.4 -139.95 L-227.8 -139.75 -227.0 -139.05 Q-225.8 -137.9 -225.95 -136.45 -226.1 -135.3 -227.15 -134.5 L-229.95 -134.35 -229.7 -134.5 Q-228.3 -135.35 -228.05 -137.15 -227.95 -138.5 -228.4 -139.5 L-230.6 -139.35 -231.7 -139.6 Q-230.9 -139.35 -229.5 -140.2 -228.1 -141.05 -227.9 -142.9 L-227.9 -144.05 -228.85 -144.3 -227.9 -144.3 Q-228.05 -145.25 -228.6 -145.95 -227.6 -145.6 -226.85 -144.85 L-226.7 -144.9 Q-225.3 -145.8 -225.05 -147.6 -224.9 -148.95 -225.35 -149.95 L-225.7 -149.7 Q-226.45 -149.25 -227.35 -149.1 -227.7 -148.1 -228.85 -147.4 L-230.15 -146.9 Q-229.0 -145.8 -229.15 -144.4 L-229.15 -144.3 Q-229.4 -142.95 -230.75 -142.1 -231.8 -141.5 -233.1 -141.45 L-232.95 -140.2 -233.0 -139.95 Q-233.25 -138.75 -234.55 -137.95 -235.5 -137.4 -236.6 -137.3 L-236.4 -137.15 Q-235.25 -136.0 -235.4 -134.55 -235.55 -133.15 -237.0 -132.25 L-237.4 -132.05 -238.85 -131.65 -240.2 -131.45 Q-241.6 -131.45 -243.75 -132.2 L-246.1 -133.15 -251.15 -135.3 -255.85 -136.4 Q-257.8 -137.1 -259.1 -138.1 L-259.8 -138.75 -259.8 -138.8 -259.85 -138.8 Q-260.75 -139.55 -260.9 -140.15 L-261.2 -141.3 M-232.25 -155.85 L-231.6 -155.85 -232.15 -155.85 -232.25 -155.85 M-229.05 -152.95 L-228.25 -152.3 Q-227.4 -151.45 -227.25 -150.45 -226.4 -151.3 -226.2 -152.7 -226.0 -154.35 -226.75 -155.5 -226.95 -154.15 -228.35 -153.3 L-229.05 -152.95" fill="#ffff00" fill-rule="evenodd" stroke="none"/>
    <path d="M-261.2 -141.3 L-260.9 -140.15 Q-260.75 -139.55 -259.85 -138.8 L-259.8 -138.75 -259.1 -138.1 Q-257.8 -137.1 -255.85 -136.4 L-251.15 -135.3 -246.1 -133.15 -243.75 -132.2 Q-241.6 -131.45 -240.2 -131.45 L-238.85 -131.65 -237.4 -132.05 -236.6 -132.3 -232.25 -134.0 -231.95 -134.15 -229.95 -134.35 -227.15 -134.5 -222.9 -134.6 Q-220.65 -135.15 -219.4 -137.25 L-218.7 -138.95 -218.1 -140.4 -217.0 -141.85 -216.0 -142.95 Q-213.3 -140.35 -213.3 -137.15 -213.3 -131.95 -220.5 -128.2 -227.75 -124.5 -237.9 -124.5 -248.05 -124.5 -255.25 -128.2 -262.5 -131.95 -262.5 -137.15 -262.5 -139.35 -261.2 -141.3" fill="#fd9124" fill-rule="evenodd" stroke="none"/>
    <path d="M-237.4 -132.05 L-237.0 -132.25 Q-235.55 -133.15 -235.4 -134.55 -235.25 -136.0 -236.4 -137.15 L-236.6 -137.3 Q-235.5 -137.4 -234.55 -137.95 -233.25 -138.75 -233.0 -139.95 L-232.95 -140.2 -233.1 -141.45 Q-231.8 -141.5 -230.75 -142.1 -229.4 -142.95 -229.15 -144.3 L-229.15 -144.4 Q-229.0 -145.8 -230.15 -146.9 L-228.85 -147.4 Q-227.7 -148.1 -227.35 -149.1 -226.45 -149.25 -225.7 -149.7 L-225.35 -149.95 Q-224.9 -148.95 -225.05 -147.6 -225.3 -145.8 -226.7 -144.9 L-226.85 -144.85 Q-227.6 -145.6 -228.6 -145.95 -228.05 -145.25 -227.9 -144.3 L-228.85 -144.3 -227.9 -144.05 -227.9 -142.9 Q-228.1 -141.05 -229.5 -140.2 -230.9 -139.35 -231.7 -139.6 L-230.6 -139.35 -228.4 -139.5 Q-227.95 -138.5 -228.05 -137.15 -228.3 -135.35 -229.7 -134.5 L-229.95 -134.35 -231.95 -134.15 -232.25 -134.0 -236.6 -132.3 -237.4 -132.05 M-227.15 -134.5 Q-226.1 -135.3 -225.95 -136.45 -225.8 -137.9 -227.0 -139.05 L-227.8 -139.75 -227.4 -139.95 Q-225.95 -140.8 -225.8 -142.2 -225.7 -143.2 -226.2 -144.05 -225.3 -144.2 -224.55 -144.65 -223.1 -145.5 -222.95 -146.9 -222.8 -148.35 -223.95 -149.5 L-224.95 -150.25 Q-224.2 -151.0 -224.1 -152.0 -223.95 -153.45 -225.1 -154.6 -225.8 -155.3 -226.75 -155.65 -226.7 -156.35 -226.95 -156.95 L-224.75 -155.05 -224.7 -155.05 -224.15 -154.55 Q-221.85 -153.25 -217.45 -151.2 -214.25 -149.25 -214.25 -146.8 -214.25 -144.85 -215.75 -143.25 L-216.0 -142.95 -217.0 -141.85 -218.1 -140.4 -218.7 -138.95 -219.4 -137.25 Q-220.65 -135.15 -222.9 -134.6 L-227.15 -134.5 M-229.05 -152.95 L-228.35 -153.3 Q-226.95 -154.15 -226.75 -155.5 -226.0 -154.35 -226.2 -152.7 -226.4 -151.3 -227.25 -150.45 -227.4 -151.45 -228.25 -152.3 L-229.05 -152.95" fill="#ffcc00" fill-rule="evenodd" stroke="none"/>
  </g>
</svg>
