<?xml version="1.0" encoding="UTF-8" standalone="no"?>
<svg xmlns:ffdec="https://www.free-decompiler.com/flash" xmlns:xlink="http://www.w3.org/1999/xlink" ffdec:objectType="shape" height="38.85px" width="51.95px" xmlns="http://www.w3.org/2000/svg">
  <g transform="matrix(1.0, 0.0, 0.0, 1.0, 264.3, 164.65)">
    <path d="M-228.95 -161.95 L-224.0 -158.3 Q-220.4 -156.65 -215.65 -155.05 -212.7 -153.6 -212.7 -150.15 -212.7 -146.4 -215.25 -144.35 L-215.9 -143.85 Q-213.6 -141.45 -213.6 -138.55 -213.6 -133.45 -220.75 -129.75 -227.9 -126.15 -237.9 -126.15 -247.95 -126.15 -255.05 -129.75 -262.2 -133.45 -262.2 -138.55 -262.2 -140.6 -261.0 -142.5 -264.55 -144.3 -263.85 -146.45 -263.0 -149.3 -262.05 -150.55 L-259.65 -153.35 Q-259.35 -153.75 -258.2 -156.65 -257.25 -159.0 -255.95 -159.65 L-250.7 -160.5 Q-248.25 -160.85 -245.9 -162.2 -242.4 -164.3 -235.3 -164.3 -231.9 -164.3 -228.95 -161.95" fill="#000000" fill-rule="evenodd" stroke="none"/>
    <path d="M-228.95 -161.95 Q-231.9 -164.3 -235.3 -164.3 -242.4 -164.3 -245.9 -162.2 -248.25 -160.85 -250.7 -160.5 L-255.95 -159.65 Q-257.25 -159.0 -258.2 -156.65 -259.35 -153.75 -259.65 -153.35 L-262.05 -150.55 Q-263.0 -149.3 -263.85 -146.45 -264.55 -144.3 -261.0 -142.5 -262.2 -140.6 -262.2 -138.55 -262.2 -133.45 -255.05 -129.75 -247.95 -126.15 -237.9 -126.15 -227.9 -126.15 -220.75 -129.75 -213.6 -133.45 -213.6 -138.55 -213.6 -141.45 -215.9 -143.85 L-215.25 -144.35 Q-212.7 -146.4 -212.7 -150.15 -212.7 -153.6 -215.65 -155.05 -220.4 -156.65 -224.0 -158.3 L-228.95 -161.95 Z" fill="none" stroke="#333333" stroke-linecap="round" stroke-linejoin="round" stroke-width="0.7000000000000001"/>
    <path d="M-229.85 -162.6 Q-229.3 -161.55 -229.5 -160.1 -229.75 -158.35 -231.1 -157.45 L-230.9 -157.2 -229.7 -156.65 -230.4 -156.5 Q-229.85 -155.45 -230.05 -154.0 L-230.35 -152.85 -230.4 -152.8 Q-230.85 -151.8 -231.9 -151.2 L-232.0 -151.15 -232.6 -150.85 -232.35 -150.2 Q-232.15 -149.45 -232.25 -148.45 -232.55 -146.55 -234.15 -145.65 -234.45 -145.55 -234.7 -145.4 L-234.75 -145.4 -235.4 -146.1 Q-236.3 -146.9 -237.5 -147.3 -236.65 -146.35 -236.6 -145.0 L-236.65 -144.1 -236.85 -143.3 -237.0 -142.9 Q-237.5 -141.9 -238.5 -141.3 L-239.25 -140.95 -238.4 -140.35 -237.0 -140.65 Q-236.5 -140.8 -236.05 -141.05 -234.4 -141.95 -234.2 -143.4 L-234.35 -144.7 Q-232.9 -144.75 -231.7 -145.4 -230.1 -146.25 -229.85 -147.65 L-229.85 -147.75 Q-229.65 -149.2 -230.95 -150.4 -230.15 -150.55 -229.45 -150.9 -228.15 -151.65 -227.75 -152.7 -226.75 -152.85 -225.85 -153.3 L-225.45 -153.55 Q-224.95 -152.5 -225.1 -151.1 -225.4 -149.2 -227.0 -148.3 L-227.15 -148.2 -226.45 -147.4 Q-225.85 -146.5 -225.95 -145.45 -226.15 -144.0 -227.8 -143.1 L-228.3 -142.9 -227.35 -142.2 Q-225.95 -141.0 -226.15 -139.5 -226.3 -138.4 -227.3 -137.6 L-229.65 -137.85 -229.85 -137.8 Q-230.75 -137.7 -232.7 -136.7 L-232.75 -136.7 -233.15 -136.45 -234.1 -136.0 Q-235.2 -135.4 -236.25 -134.95 L-236.7 -134.8 Q-238.15 -134.3 -239.4 -134.15 L-240.0 -134.15 -244.15 -134.65 Q-246.4 -135.3 -248.75 -136.65 L-248.95 -136.8 -249.6 -137.3 Q-251.0 -138.25 -252.9 -139.15 L-253.35 -139.4 -253.4 -139.4 -258.3 -141.35 -259.45 -141.8 -261.0 -142.5 Q-264.55 -144.3 -263.85 -146.45 -263.0 -149.3 -262.05 -150.55 L-259.65 -153.35 Q-259.35 -153.75 -258.2 -156.65 -257.25 -159.0 -255.95 -159.65 L-250.7 -160.5 Q-248.25 -160.85 -245.9 -162.2 -242.4 -164.3 -235.3 -164.3 -232.4 -164.3 -229.85 -162.6 M-227.05 -159.4 L-227.05 -159.3 -227.25 -159.55 -227.05 -159.5 -227.05 -159.4 M-238.4 -140.35 L-239.65 -140.4 Q-239.25 -139.45 -239.4 -138.2 -239.7 -136.3 -241.3 -135.4 L-241.25 -134.45 Q-239.95 -134.5 -238.85 -135.1 -237.2 -136.05 -237.0 -137.5 -236.8 -139.0 -238.15 -140.2 L-238.4 -140.35" fill="#ffff00" fill-rule="evenodd" stroke="none"/>
    <path d="M-222.85 -137.65 L-221.2 -138.85 -220.85 -139.25 -218.45 -142.4 -217.85 -142.65 Q-216.8 -143.2 -215.9 -143.85 -213.6 -141.45 -213.6 -138.55 -213.6 -133.45 -220.75 -129.75 -227.9 -126.15 -237.9 -126.15 -247.95 -126.15 -255.05 -129.75 -262.2 -133.45 -262.2 -138.55 -262.2 -140.6 -261.0 -142.5 L-259.45 -141.8 -258.3 -141.35 -253.4 -139.4 -253.4 -138.95 Q-253.45 -136.0 -248.9 -133.85 -244.4 -131.7 -238.0 -131.7 L-236.05 -131.75 Q-230.95 -132.05 -227.1 -133.85 -223.65 -135.5 -222.85 -137.65" fill="#fd9124" fill-rule="evenodd" stroke="none"/>
    <path d="M-252.9 -139.15 L-253.4 -138.95 -253.4 -139.4 -253.35 -139.4 -252.9 -139.15" fill="#ff6600" fill-rule="evenodd" stroke="none"/>
    <path d="M-229.85 -162.6 L-228.95 -161.95 -227.15 -160.55 -224.8 -158.8 -224.0 -158.3 Q-220.4 -156.65 -215.65 -155.05 -212.7 -153.6 -212.7 -150.15 -212.7 -146.4 -215.25 -144.35 L-215.9 -143.85 Q-216.8 -143.2 -217.85 -142.65 L-218.45 -142.4 -220.85 -139.25 -221.2 -138.85 -222.85 -137.65 Q-223.8 -137.15 -224.85 -137.15 L-227.3 -137.6 Q-226.3 -138.4 -226.15 -139.5 -225.95 -141.0 -227.35 -142.2 L-228.3 -142.9 -227.8 -143.1 Q-226.15 -144.0 -225.95 -145.45 -225.85 -146.5 -226.45 -147.4 L-227.15 -148.2 -227.0 -148.3 Q-225.4 -149.2 -225.1 -151.1 -224.95 -152.5 -225.45 -153.55 L-225.85 -153.3 Q-226.75 -152.85 -227.75 -152.7 -228.15 -151.65 -229.45 -150.9 -230.15 -150.55 -230.95 -150.4 -229.65 -149.2 -229.85 -147.75 L-229.85 -147.65 Q-230.1 -146.25 -231.7 -145.4 -232.9 -144.75 -234.35 -144.7 L-234.2 -143.4 Q-234.4 -141.95 -236.05 -141.05 -236.5 -140.8 -237.0 -140.65 L-238.4 -140.35 -239.25 -140.95 -238.5 -141.3 Q-237.5 -141.9 -237.0 -142.9 L-236.85 -143.3 -236.65 -144.1 -236.6 -145.0 Q-236.65 -146.35 -237.5 -147.3 -236.3 -146.9 -235.4 -146.1 L-234.75 -145.4 -234.7 -145.4 Q-234.45 -145.55 -234.15 -145.65 -232.55 -146.55 -232.25 -148.45 -232.15 -149.45 -232.35 -150.2 L-232.6 -150.85 -232.0 -151.15 -231.9 -151.2 Q-230.85 -151.8 -230.4 -152.8 L-230.35 -152.85 -230.05 -154.0 Q-229.85 -155.45 -230.4 -156.5 L-229.7 -156.65 -230.9 -157.2 -231.1 -157.45 Q-229.75 -158.35 -229.5 -160.1 -229.3 -161.55 -229.85 -162.6 M-227.05 -159.4 L-227.05 -159.5 -227.25 -159.55 -227.05 -159.3 -227.05 -159.4 M-238.4 -140.35 L-238.15 -140.2 Q-236.8 -139.0 -237.0 -137.5 -237.2 -136.05 -238.85 -135.1 -239.95 -134.5 -241.25 -134.45 L-241.3 -135.4 Q-239.7 -136.3 -239.4 -138.2 -239.25 -139.45 -239.65 -140.4 L-238.4 -140.35" fill="#ffcc00" fill-rule="evenodd" stroke="none"/>
    <path d="M-227.3 -137.6 L-224.85 -137.15 Q-223.8 -137.15 -222.85 -137.65 -223.65 -135.5 -227.1 -133.85 -230.95 -132.05 -236.05 -131.75 L-236.6 -134.2 -236.6 -134.25 -236.7 -134.8 -236.25 -134.95 Q-235.2 -135.4 -234.1 -136.0 L-233.15 -136.45 -232.75 -136.7 -232.7 -136.7 Q-230.75 -137.7 -229.85 -137.8 L-229.65 -137.85 -227.3 -137.6" fill="#ec3102" fill-rule="evenodd" stroke="none"/>
    <path d="M-236.7 -134.8 L-236.6 -134.25 -236.6 -134.2 -236.05 -131.75 -238.0 -131.7 Q-244.4 -131.7 -248.9 -133.85 -253.45 -136.0 -253.4 -138.95 L-252.9 -139.15 Q-251.0 -138.25 -249.6 -137.3 L-248.95 -136.8 -248.75 -136.65 Q-246.4 -135.3 -244.15 -134.65 L-240.0 -134.15 -239.4 -134.15 Q-238.15 -134.3 -236.7 -134.8" fill="#fd481c" fill-rule="evenodd" stroke="none"/>
  </g>
</svg>
