<?xml version="1.0" encoding="UTF-8" standalone="no"?>
<svg xmlns:ffdec="https://www.free-decompiler.com/flash" xmlns:xlink="http://www.w3.org/1999/xlink" ffdec:objectType="shape" height="41.75px" width="54.15px" xmlns="http://www.w3.org/2000/svg">
  <g transform="matrix(1.0, 0.0, 0.0, 1.0, 264.9, 168.25)">
    <path d="M-252.15 -140.75 L-249.5 -140.45 -249.35 -140.45 -249.3 -140.45 -249.1 -140.5 -248.9 -140.5 Q-245.05 -140.9 -242.9 -141.65 L-242.7 -141.75 -242.25 -141.95 -242.05 -141.75 -239.45 -139.55 Q-238.45 -138.95 -235.95 -138.95 L-234.35 -138.95 -232.6 -139.15 Q-231.75 -139.35 -230.25 -140.55 -228.1 -142.15 -227.35 -143.35 -223.4 -141.55 -223.4 -139.0 -223.4 -136.35 -227.7 -134.45 -232.0 -132.55 -238.05 -132.55 -244.1 -132.55 -248.4 -134.45 -252.7 -136.35 -252.7 -139.0 -252.7 -139.9 -252.15 -140.75" fill="#ff9900" fill-rule="evenodd" stroke="none"/>
    <path d="M-217.5 -143.5 Q-215.7 -141.25 -215.7 -138.7 -215.7 -133.8 -222.2 -130.3 -228.75 -126.85 -237.95 -126.85 -247.2 -126.85 -253.7 -130.3 -260.25 -133.8 -260.25 -138.7 -260.25 -141.5 -258.05 -143.9 L-256.45 -142.7 -254.5 -141.65 -252.15 -140.75 Q-252.7 -139.9 -252.7 -139.0 -252.7 -136.35 -248.4 -134.45 -244.1 -132.55 -238.05 -132.55 -232.0 -132.55 -227.7 -134.45 -223.4 -136.35 -223.4 -139.0 -223.4 -141.55 -227.35 -143.35 L-227.15 -143.75 Q-226.5 -143.3 -224.55 -142.8 L-221.9 -142.5 Q-219.6 -142.5 -217.5 -143.5" fill="#ffcc00" fill-rule="evenodd" stroke="none"/>
    <path d="M-258.05 -143.9 L-258.35 -144.2 -258.95 -144.5 Q-263.2 -146.55 -263.95 -147.9 -264.8 -149.35 -264.45 -152.3 -264.1 -155.3 -258.95 -158.3 -258.4 -161.95 -257.05 -163.15 -254.85 -165.25 -249.05 -164.15 -246.95 -166.8 -239.3 -166.55 -237.05 -167.9 -234.95 -167.9 -231.6 -167.9 -229.65 -166.65 L-228.85 -166.05 Q-226.05 -163.4 -224.05 -162.7 L-218.95 -161.05 Q-215.85 -160.1 -213.3 -158.25 -210.8 -156.4 -211.15 -152.15 -211.5 -147.95 -214.8 -145.2 -216.1 -144.15 -217.5 -143.5 -219.6 -142.5 -221.9 -142.5 L-224.55 -142.8 Q-226.5 -143.3 -227.15 -143.75 L-227.35 -143.35 Q-228.1 -142.15 -230.25 -140.55 -231.75 -139.35 -232.6 -139.15 L-234.35 -138.95 -235.95 -138.95 Q-238.45 -138.95 -239.45 -139.55 L-242.05 -141.75 -242.25 -141.95 -242.7 -141.75 -242.9 -141.65 Q-245.05 -140.9 -248.9 -140.5 L-249.1 -140.5 -249.3 -140.45 -249.35 -140.45 -249.5 -140.45 -252.15 -140.75 -254.5 -141.65 -256.45 -142.7 -258.05 -143.9" fill="#ffff00" fill-rule="evenodd" stroke="none"/>
    <path d="M-258.05 -143.9 L-258.35 -144.2 -258.95 -144.5 Q-263.2 -146.55 -263.95 -147.9 -264.8 -149.35 -264.45 -152.3 -264.1 -155.3 -258.95 -158.3 -258.4 -161.95 -257.05 -163.15 -254.85 -165.25 -249.05 -164.15 -246.95 -166.8 -239.3 -166.55 -237.05 -167.9 -234.95 -167.9 -231.6 -167.9 -229.65 -166.65 L-228.85 -166.05 Q-226.05 -163.4 -224.05 -162.7 L-218.95 -161.05 Q-215.85 -160.1 -213.3 -158.25 -210.8 -156.4 -211.15 -152.15 -211.5 -147.95 -214.8 -145.2 -216.1 -144.15 -217.5 -143.5 -215.7 -141.25 -215.7 -138.7 -215.7 -133.8 -222.2 -130.3 -228.75 -126.85 -237.95 -126.85 -247.2 -126.85 -253.7 -130.3 -260.25 -133.8 -260.25 -138.7 -260.25 -141.5 -258.05 -143.9 Z" fill="none" stroke="#333333" stroke-linecap="round" stroke-linejoin="round" stroke-width="0.7000000000000001"/>
    <path d="M-258.05 -143.9 L-258.35 -144.2 -258.95 -144.5 Q-263.2 -146.55 -263.95 -147.9 -264.8 -149.35 -264.45 -152.3 -264.1 -155.3 -258.95 -158.3 -258.4 -161.95 -257.05 -163.15 -254.85 -165.25 -249.05 -164.15 -246.95 -166.8 -239.3 -166.55 -237.05 -167.9 -234.95 -167.9 -231.6 -167.9 -229.65 -166.65 L-228.85 -166.05 -227.9 -165.2 Q-227.4 -164.2 -227.55 -162.75 -227.75 -161.1 -228.95 -160.25 L-228.7 -160.05 -227.7 -159.55 -228.3 -159.4 Q-227.9 -158.4 -228.0 -157.1 L-228.3 -156.05 -228.3 -156.0 Q-228.7 -155.05 -229.6 -154.5 L-229.65 -154.45 -228.85 -153.8 -228.75 -153.75 Q-227.7 -152.65 -227.85 -151.3 L-227.85 -151.2 -227.55 -151.2 -226.65 -151.25 Q-226.8 -152.15 -227.3 -152.8 -226.3 -152.45 -225.6 -151.75 L-225.45 -151.8 Q-224.1 -152.65 -223.9 -154.4 -223.75 -155.7 -224.15 -156.65 L-224.6 -157.35 -223.8 -156.95 -222.85 -156.25 Q-221.7 -155.15 -221.85 -153.75 -222.0 -152.4 -223.4 -151.55 -224.15 -151.1 -225.0 -150.95 -224.5 -150.15 -224.6 -149.2 -224.75 -147.85 -226.1 -147.0 L-226.55 -146.8 -225.75 -146.15 Q-224.6 -145.05 -224.75 -143.65 L-224.95 -142.9 -226.95 -143.6 -226.8 -144.35 Q-226.65 -145.65 -227.1 -146.55 L-229.2 -146.45 -230.3 -146.65 -230.6 -146.65 -231.55 -147.05 -231.5 -147.25 Q-231.45 -147.9 -231.65 -148.45 L-232.45 -148.55 -233.5 -148.75 -233.55 -147.95 Q-233.75 -146.2 -235.1 -145.35 L-235.75 -145.0 -235.0 -144.5 -236.1 -144.5 Q-235.75 -143.65 -235.9 -142.45 -236.1 -140.7 -237.45 -139.9 L-237.85 -139.65 -238.8 -139.25 -239.45 -139.55 -242.05 -141.75 -242.25 -141.95 -242.7 -141.75 -242.9 -141.65 Q-245.05 -140.9 -248.9 -140.5 L-249.1 -140.5 -249.3 -140.45 -249.35 -140.45 -249.5 -140.45 -252.15 -140.75 -254.5 -141.65 -256.45 -142.7 -258.05 -143.9 M-225.5 -162.0 L-225.7 -162.25 -225.5 -162.2 -225.5 -162.05 -225.5 -162.0 M-229.7 -140.95 L-230.45 -141.15 -229.35 -141.25 -229.7 -140.95" fill="#ffff00" fill-rule="evenodd" stroke="none"/>
    <path d="M-217.5 -143.5 Q-215.7 -141.25 -215.7 -138.7 -215.7 -133.8 -222.2 -130.3 -228.75 -126.85 -237.95 -126.85 -247.2 -126.85 -253.7 -130.3 -260.25 -133.8 -260.25 -138.7 -260.25 -141.5 -258.05 -143.9 L-256.45 -142.7 -254.5 -141.65 -252.15 -140.75 Q-252.7 -139.9 -252.7 -139.0 -252.7 -136.35 -248.4 -134.45 -244.1 -132.55 -238.05 -132.55 L-236.75 -132.55 Q-231.55 -132.75 -227.7 -134.45 -223.4 -136.35 -223.4 -139.0 -223.4 -140.7 -225.1 -142.05 L-225.4 -142.25 -227.05 -143.25 -227.35 -143.35 -227.15 -143.75 -226.95 -143.6 -224.95 -142.9 -224.9 -142.9 -224.55 -142.8 -221.9 -142.5 Q-219.6 -142.5 -217.5 -143.5" fill="#fd9124" fill-rule="evenodd" stroke="none"/>
    <path d="M-242.9 -141.65 L-242.7 -141.75 -242.25 -141.95 -242.05 -141.75 -242.9 -141.65" fill="#ff3300" fill-rule="evenodd" stroke="none"/>
    <path d="M-227.9 -165.2 Q-226.8 -164.2 -225.75 -163.55 -224.85 -163.0 -224.05 -162.7 L-218.95 -161.05 Q-215.85 -160.1 -213.3 -158.25 -210.8 -156.4 -211.15 -152.15 -211.5 -147.95 -214.8 -145.2 -216.1 -144.15 -217.5 -143.5 -219.6 -142.5 -221.9 -142.5 L-224.55 -142.8 -224.9 -142.9 -224.95 -142.9 -224.75 -143.65 Q-224.6 -145.05 -225.75 -146.15 L-226.55 -146.8 -226.1 -147.0 Q-224.75 -147.85 -224.6 -149.2 -224.5 -150.15 -225.0 -150.95 -224.15 -151.1 -223.4 -151.55 -222.0 -152.4 -221.85 -153.75 -221.7 -155.15 -222.85 -156.25 L-223.8 -156.95 -224.6 -157.35 -224.15 -156.65 Q-223.75 -155.7 -223.9 -154.4 -224.1 -152.65 -225.45 -151.8 L-225.6 -151.75 Q-226.3 -152.45 -227.3 -152.8 -226.8 -152.15 -226.65 -151.25 L-227.55 -151.2 -227.85 -151.2 -227.85 -151.3 Q-227.7 -152.65 -228.75 -153.75 L-228.85 -153.8 -229.65 -154.45 -229.6 -154.5 Q-228.7 -155.05 -228.3 -156.0 L-228.3 -156.05 -228.0 -157.1 Q-227.9 -158.4 -228.3 -159.4 L-227.7 -159.55 -228.7 -160.05 -228.95 -160.25 Q-227.75 -161.1 -227.55 -162.75 -227.4 -164.2 -227.9 -165.2 M-238.8 -139.25 L-237.85 -139.65 -237.45 -139.9 Q-236.1 -140.7 -235.9 -142.45 -235.75 -143.65 -236.1 -144.5 L-235.0 -144.5 -235.75 -145.0 -235.1 -145.35 Q-233.75 -146.2 -233.55 -147.95 L-233.5 -148.75 -232.45 -148.55 -231.65 -148.45 Q-231.45 -147.9 -231.5 -147.25 L-231.55 -147.05 -230.6 -146.65 -230.3 -146.65 -229.2 -146.45 -227.1 -146.55 Q-226.65 -145.65 -226.8 -144.35 L-226.95 -143.6 -227.15 -143.75 -227.35 -143.35 Q-227.95 -142.45 -229.35 -141.25 L-230.45 -141.15 -229.7 -140.95 -230.25 -140.55 Q-231.75 -139.35 -232.6 -139.15 L-234.35 -138.95 -235.95 -138.95 -237.35 -139.0 -237.8 -139.05 -238.8 -139.25 M-225.5 -162.0 L-225.5 -162.05 -225.5 -162.2 -225.7 -162.25 -225.5 -162.0" fill="#ffcc00" fill-rule="evenodd" stroke="none"/>
    <path d="M-227.35 -143.35 L-227.05 -143.25 -225.4 -142.25 -225.1 -142.05 Q-223.4 -140.7 -223.4 -139.0 -223.4 -136.35 -227.7 -134.45 -231.55 -132.75 -236.75 -132.55 L-237.5 -136.1 -237.5 -136.15 -237.8 -139.05 -237.35 -139.0 -235.95 -138.95 -234.35 -138.95 -232.6 -139.15 Q-231.75 -139.35 -230.25 -140.55 L-229.7 -140.95 -229.35 -141.25 Q-227.95 -142.45 -227.35 -143.35" fill="#ec3102" fill-rule="evenodd" stroke="none"/>
    <path d="M-252.15 -140.75 L-249.5 -140.45 -249.35 -140.45 -249.3 -140.45 -249.1 -140.5 -248.9 -140.5 Q-245.05 -140.9 -242.9 -141.65 L-242.05 -141.75 -239.45 -139.55 -238.8 -139.25 -237.8 -139.05 -237.5 -136.15 -237.5 -136.1 -236.75 -132.55 -238.05 -132.55 Q-244.1 -132.55 -248.4 -134.45 -252.7 -136.35 -252.7 -139.0 -252.7 -139.9 -252.15 -140.75" fill="#fd481c" fill-rule="evenodd" stroke="none"/>
  </g>
</svg>
