<?xml version="1.0" encoding="UTF-8" standalone="no"?>
<svg xmlns:ffdec="https://www.free-decompiler.com/flash" xmlns:xlink="http://www.w3.org/1999/xlink" ffdec:objectType="shape" height="50.55px" width="57.9px" xmlns="http://www.w3.org/2000/svg">
  <g transform="matrix(1.0, 0.0, 0.0, 1.0, 266.6, 175.5)">
    <path d="M-235.15 -175.1 L-234.05 -175.1 Q-230.85 -174.8 -227.5 -171.6 -223.65 -167.9 -219.35 -167.5 -215.15 -167.1 -212.0 -163.6 -208.85 -160.15 -209.05 -157.5 -209.3 -154.85 -213.0 -151.45 -216.75 -148.1 -218.65 -147.5 L-221.9 -147.25 -221.9 -147.2 -224.0 -147.0 -223.35 -146.6 Q-217.3 -143.8 -217.3 -139.85 -217.3 -139.1 -217.55 -138.35 -216.5 -137.3 -216.5 -136.5 -216.5 -135.8 -217.35 -134.6 L-218.3 -132.65 Q-218.4 -131.35 -219.6 -130.6 L-223.2 -128.75 Q-225.7 -127.4 -229.95 -127.55 -231.05 -127.6 -233.15 -126.5 -235.3 -125.3 -236.5 -125.3 -239.4 -125.3 -243.05 -126.4 L-246.2 -127.55 -250.1 -127.25 Q-252.35 -127.25 -253.4 -127.8 L-257.15 -130.65 Q-258.05 -131.4 -258.05 -132.65 L-258.2 -134.3 -260.3 -138.0 -259.85 -139.3 Q-259.35 -140.6 -258.6 -141.0 -257.95 -143.65 -254.25 -145.75 -256.05 -146.0 -257.65 -147.1 L-261.65 -149.45 Q-263.8 -150.6 -264.9 -152.1 -266.05 -153.6 -266.25 -156.55 L-266.2 -158.0 Q-265.95 -160.2 -264.45 -162.05 -262.6 -164.45 -260.5 -164.3 L-260.2 -164.3 -260.35 -165.75 Q-260.25 -167.75 -258.5 -169.4 -256.25 -171.5 -253.0 -171.5 L-250.05 -171.2 Q-248.35 -170.9 -247.3 -171.6 -246.25 -172.35 -244.6 -172.95 -242.95 -173.6 -240.5 -172.5 L-238.95 -174.0 Q-238.05 -174.75 -236.7 -175.0 L-235.15 -175.1 M-250.4 -139.2 Q-249.55 -138.05 -247.3 -137.15 -243.55 -135.65 -238.25 -135.65 -232.95 -135.65 -229.25 -137.15 -226.45 -138.25 -225.75 -139.75 -226.45 -138.25 -229.25 -137.15 -232.95 -135.65 -238.25 -135.65 -243.55 -135.65 -247.3 -137.15 -249.55 -138.05 -250.4 -139.2 M-229.85 -147.75 L-229.95 -147.5 -229.85 -147.75 M-258.6 -141.0 L-258.75 -139.85 Q-258.75 -135.9 -252.6 -133.05 -246.55 -130.25 -238.0 -130.25 -229.45 -130.25 -223.35 -133.05 -218.5 -135.35 -217.55 -138.35 -218.5 -135.35 -223.35 -133.05 -229.45 -130.25 -238.0 -130.25 -246.55 -130.25 -252.6 -133.05 -258.75 -135.9 -258.75 -139.85 L-258.6 -141.0 M-247.45 -144.4 L-247.4 -144.45 -247.5 -144.5 -247.45 -144.4" fill="#000000" fill-rule="evenodd" stroke="none"/>
    <path d="M-235.15 -175.1 L-234.05 -175.1 Q-230.85 -174.8 -227.5 -171.6 -223.65 -167.9 -219.35 -167.5 -215.15 -167.1 -212.0 -163.6 -208.85 -160.15 -209.05 -157.5 -209.3 -154.85 -213.0 -151.45 -216.75 -148.1 -218.65 -147.5 L-221.9 -147.25 -221.9 -147.2 -224.0 -147.0 -223.35 -146.6 Q-217.3 -143.8 -217.3 -139.85 -217.3 -139.1 -217.55 -138.35 -216.5 -137.3 -216.5 -136.5 -216.5 -135.8 -217.35 -134.6 L-218.3 -132.65 Q-218.4 -131.35 -219.6 -130.6 L-223.2 -128.75 Q-225.7 -127.4 -229.95 -127.55 -231.05 -127.6 -233.15 -126.5 -235.3 -125.3 -236.5 -125.3 -239.4 -125.3 -243.05 -126.4 L-246.2 -127.55 -250.1 -127.25 Q-252.35 -127.25 -253.4 -127.8 L-257.15 -130.65 Q-258.05 -131.4 -258.05 -132.65 L-258.2 -134.3 -260.3 -138.0 -259.85 -139.3 Q-259.35 -140.6 -258.6 -141.0 -257.95 -143.65 -254.25 -145.75 -256.05 -146.0 -257.65 -147.1 L-261.65 -149.45 Q-263.8 -150.6 -264.9 -152.1 -266.05 -153.6 -266.25 -156.55 L-266.2 -158.0 Q-265.95 -160.2 -264.45 -162.05 -262.6 -164.45 -260.5 -164.3 L-260.2 -164.3 -260.35 -165.75 Q-260.25 -167.75 -258.5 -169.4 -256.25 -171.5 -253.0 -171.5 L-250.05 -171.2 Q-248.35 -170.9 -247.3 -171.6 -246.25 -172.35 -244.6 -172.95 -242.95 -173.6 -240.5 -172.5 L-238.95 -174.0 Q-238.05 -174.75 -236.7 -175.0 L-235.15 -175.1 M-217.55 -138.35 Q-218.5 -135.35 -223.35 -133.05 -229.45 -130.25 -238.0 -130.25 -246.55 -130.25 -252.6 -133.05 -258.75 -135.9 -258.75 -139.85 L-258.6 -141.0 M-229.95 -147.5 L-229.85 -147.75 M-225.75 -139.75 Q-226.45 -138.25 -229.25 -137.15 -232.95 -135.65 -238.25 -135.65 -243.55 -135.65 -247.3 -137.15 -249.55 -138.05 -250.4 -139.2 M-247.45 -144.4 L-247.4 -144.45 -247.5 -144.5 -247.45 -144.4 Z" fill="none" stroke="#333333" stroke-linecap="round" stroke-linejoin="round" stroke-width="0.7000000000000001"/>
    <path d="M-254.25 -145.75 Q-256.05 -146.0 -257.65 -147.1 L-261.65 -149.45 Q-263.8 -150.6 -264.9 -152.1 -266.05 -153.6 -266.25 -156.55 L-266.2 -158.0 Q-265.95 -160.2 -264.45 -162.05 -262.6 -164.45 -260.5 -164.3 L-260.2 -164.3 -260.35 -165.75 Q-260.25 -167.75 -258.5 -169.4 -256.25 -171.5 -253.0 -171.5 L-250.05 -171.2 Q-248.35 -170.9 -247.3 -171.6 -246.25 -172.35 -244.6 -172.95 -242.95 -173.6 -240.5 -172.5 L-238.95 -174.0 Q-238.05 -174.75 -236.7 -175.0 L-235.15 -175.1 -234.05 -175.1 Q-230.85 -174.8 -227.55 -171.65 L-227.5 -171.6 -228.1 -170.95 Q-226.8 -169.8 -226.9 -168.35 -225.85 -167.95 -225.05 -167.2 -223.7 -166.0 -223.9 -164.5 -224.05 -163.45 -224.9 -162.7 -224.25 -162.4 -223.75 -161.9 -222.4 -160.7 -222.55 -159.2 -222.75 -157.75 -224.4 -156.8 L-226.3 -156.15 Q-225.7 -155.3 -225.8 -154.25 -226.0 -152.8 -227.65 -151.85 L-228.15 -151.65 -227.2 -150.95 Q-225.85 -149.75 -226.0 -148.25 -226.1 -147.55 -226.55 -146.95 L-228.95 -147.45 Q-228.55 -148.1 -228.45 -148.95 -228.25 -150.4 -228.8 -151.4 L-231.3 -151.25 -232.6 -151.5 Q-231.7 -151.25 -230.1 -152.15 -228.5 -153.05 -228.25 -154.95 L-228.25 -156.2 -229.35 -156.4 -229.7 -156.4 -229.7 -156.5 Q-229.5 -158.0 -230.8 -159.2 L-232.2 -159.0 Q-232.0 -158.25 -232.1 -157.25 -232.35 -155.35 -233.95 -154.45 -234.3 -154.25 -234.55 -154.15 L-234.15 -153.45 -235.15 -153.5 -236.4 -153.75 -236.45 -152.9 Q-236.7 -150.95 -238.3 -150.05 L-239.05 -149.7 -238.2 -149.1 -237.95 -148.9 Q-236.6 -147.7 -236.8 -146.2 -236.95 -144.95 -238.25 -144.1 L-238.65 -143.85 -239.4 -143.5 -240.35 -143.25 -240.2 -143.1 -241.85 -143.1 -243.95 -143.25 -246.0 -143.75 -247.4 -144.45 -247.5 -144.5 -250.0 -145.9 -251.1 -145.75 -253.65 -145.7 -254.25 -145.75 M-231.95 -145.45 L-232.1 -145.3 -232.15 -145.3 -232.8 -145.45 -231.95 -145.45" fill="#ffff00" fill-rule="evenodd" stroke="none"/>
    <path d="M-217.55 -138.35 Q-216.5 -137.3 -216.5 -136.5 -216.5 -135.8 -217.35 -134.6 L-218.3 -132.65 Q-218.4 -131.35 -219.6 -130.6 L-223.2 -128.75 Q-225.7 -127.4 -229.95 -127.55 -231.05 -127.6 -233.15 -126.5 -235.3 -125.3 -236.5 -125.3 -239.4 -125.3 -243.05 -126.4 L-246.2 -127.55 -250.1 -127.25 Q-252.35 -127.25 -253.4 -127.8 L-257.15 -130.65 Q-258.05 -131.4 -258.05 -132.65 L-258.2 -134.3 -260.3 -138.0 -259.85 -139.3 Q-259.35 -140.6 -258.6 -141.0 L-258.75 -139.85 Q-258.75 -135.9 -252.6 -133.05 -246.55 -130.25 -238.0 -130.25 -229.45 -130.25 -223.35 -133.05 -218.5 -135.35 -217.55 -138.35 M-247.4 -144.45 L-246.0 -143.75 Q-246.0 -142.55 -250.4 -139.2 -251.0 -139.95 -251.0 -140.8 -251.0 -142.9 -247.45 -144.4 L-247.4 -144.45 M-232.1 -145.3 L-231.85 -145.25 -229.25 -144.45 Q-225.5 -142.95 -225.5 -140.8 -225.5 -140.25 -225.75 -139.75 -228.6 -140.9 -230.45 -142.15 -232.55 -143.55 -232.55 -145.0 L-232.15 -145.3 -232.1 -145.3" fill="#484848" fill-rule="evenodd" stroke="none"/>
    <path d="M-224.0 -147.0 L-223.35 -146.6 Q-217.3 -143.8 -217.3 -139.85 -217.3 -139.1 -217.55 -138.35 -218.5 -135.35 -223.35 -133.05 -229.45 -130.25 -238.0 -130.25 -246.55 -130.25 -252.6 -133.05 -258.75 -135.9 -258.75 -139.85 L-258.6 -141.0 Q-257.95 -143.65 -254.25 -145.75 L-253.65 -145.7 -251.1 -145.75 -250.0 -145.9 -247.5 -144.5 -247.45 -144.4 Q-251.0 -142.9 -251.0 -140.8 -251.0 -139.95 -250.4 -139.2 -249.55 -138.05 -247.3 -137.15 -243.55 -135.65 -238.25 -135.65 L-238.1 -135.65 -237.45 -135.65 -233.45 -136.0 Q-231.15 -136.4 -229.25 -137.15 -226.45 -138.25 -225.75 -139.75 -225.5 -140.25 -225.5 -140.8 -225.5 -142.95 -229.25 -144.45 L-231.85 -145.25 -232.1 -145.3 -231.95 -145.45 -231.85 -145.55 Q-230.5 -146.6 -229.95 -147.5 L-229.85 -147.75 -228.95 -147.45 -226.55 -146.95 -225.8 -146.9 -224.0 -147.0" fill="#fd9124" fill-rule="evenodd" stroke="none"/>
    <path d="M-237.45 -135.65 L-238.1 -135.65 -238.25 -135.65 -237.5 -135.8 -237.45 -135.65" fill="#ff3300" fill-rule="evenodd" stroke="none"/>
    <path d="M-227.5 -171.6 Q-223.65 -167.9 -219.35 -167.5 -215.15 -167.1 -212.0 -163.6 -208.85 -160.15 -209.05 -157.5 -209.3 -154.85 -213.0 -151.45 -216.75 -148.1 -218.65 -147.5 L-221.9 -147.25 -221.9 -147.2 -224.0 -147.0 -225.8 -146.9 -226.55 -146.95 Q-226.1 -147.55 -226.0 -148.25 -225.85 -149.75 -227.2 -150.95 L-228.15 -151.65 -227.65 -151.85 Q-226.0 -152.8 -225.8 -154.25 -225.7 -155.3 -226.3 -156.15 L-224.4 -156.8 Q-222.75 -157.75 -222.55 -159.2 -222.4 -160.7 -223.75 -161.9 -224.25 -162.4 -224.9 -162.7 -224.05 -163.45 -223.9 -164.5 -223.7 -166.0 -225.05 -167.2 -225.85 -167.95 -226.9 -168.35 -226.8 -169.8 -228.1 -170.95 L-227.5 -171.6 M-240.2 -143.1 L-240.35 -143.25 -239.4 -143.5 -238.65 -143.85 -238.25 -144.1 Q-236.95 -144.95 -236.8 -146.2 -236.6 -147.7 -237.95 -148.9 L-238.2 -149.1 -239.05 -149.7 -238.3 -150.05 Q-236.7 -150.95 -236.45 -152.9 L-236.4 -153.75 -235.15 -153.5 -234.15 -153.45 -234.55 -154.15 Q-234.3 -154.25 -233.95 -154.45 -232.35 -155.35 -232.1 -157.25 -232.0 -158.25 -232.2 -159.0 L-230.8 -159.2 Q-229.5 -158.0 -229.7 -156.5 L-229.7 -156.4 -229.35 -156.4 -228.25 -156.2 -228.25 -154.95 Q-228.5 -153.05 -230.1 -152.15 -231.7 -151.25 -232.6 -151.5 L-231.3 -151.25 -228.8 -151.4 Q-228.25 -150.4 -228.45 -148.95 -228.55 -148.1 -228.95 -147.45 L-229.85 -147.75 -229.95 -147.5 Q-230.5 -146.6 -231.85 -145.55 L-231.95 -145.45 -232.8 -145.45 -232.15 -145.3 -232.55 -145.0 -234.65 -143.9 -235.5 -143.6 -238.25 -143.2 -239.4 -143.15 -240.2 -143.1" fill="#ffcc00" fill-rule="evenodd" stroke="none"/>
    <path d="M-225.75 -139.75 Q-226.45 -138.25 -229.25 -137.15 -231.15 -136.4 -233.45 -136.0 L-237.45 -135.65 -237.5 -135.8 -237.85 -137.4 -237.85 -137.45 -238.15 -140.35 -238.15 -140.7 -238.25 -141.55 -238.25 -141.65 -238.25 -143.2 -235.5 -143.6 -234.65 -143.9 -232.55 -145.0 Q-232.55 -143.55 -230.45 -142.15 -228.6 -140.9 -225.75 -139.75" fill="#ec3102" fill-rule="evenodd" stroke="none"/>
    <path d="M-246.0 -143.75 L-243.95 -143.25 -241.85 -143.1 -240.2 -143.1 -239.4 -143.15 -238.25 -143.2 -238.25 -141.65 -238.25 -141.55 -238.15 -140.7 -238.15 -140.35 -237.85 -137.45 -237.85 -137.4 -237.5 -135.8 -238.25 -135.65 Q-243.55 -135.65 -247.3 -137.15 -249.55 -138.05 -250.4 -139.2 -246.0 -142.55 -246.0 -143.75" fill="#fd481c" fill-rule="evenodd" stroke="none"/>
    <path d="M-229.85 -147.75 L-229.95 -147.5" fill="none" stroke="#ff0000" stroke-linecap="round" stroke-linejoin="round" stroke-width="0.05"/>
  </g>
</svg>
