<?xml version="1.0" encoding="UTF-8" standalone="no"?>
<svg xmlns:ffdec="https://www.free-decompiler.com/flash" xmlns:xlink="http://www.w3.org/1999/xlink" ffdec:objectType="shape" height="53.5px" width="57.3px" xmlns="http://www.w3.org/2000/svg">
  <g transform="matrix(1.0, 0.0, 0.0, 1.0, 266.5, 178.75)">
    <path d="M-233.3 -178.2 Q-230.25 -177.55 -227.4 -174.75 -224.1 -171.5 -224.15 -169.4 L-223.4 -169.4 Q-212.1 -167.95 -210.3 -163.0 -208.5 -158.05 -211.15 -156.05 -213.8 -154.05 -215.05 -152.15 L-217.2 -149.3 Q-218.15 -148.35 -219.85 -148.2 L-221.85 -148.1 Q-217.3 -145.55 -217.3 -142.1 -217.3 -141.2 -217.6 -140.35 -216.1 -138.35 -215.4 -132.85 -215.4 -130.75 -218.05 -129.15 -220.55 -127.6 -223.2 -127.7 -226.75 -127.9 -228.35 -127.7 -230.0 -127.55 -231.1 -126.6 -232.1 -125.75 -233.9 -125.75 L-237.0 -126.05 -239.4 -126.65 Q-241.4 -125.6 -243.05 -125.6 -245.25 -125.6 -248.15 -126.4 L-250.85 -127.25 -256.8 -127.7 Q-258.7 -128.7 -260.0 -134.0 -260.65 -134.15 -261.65 -135.35 -262.65 -136.6 -262.65 -137.15 L-260.95 -139.5 -258.7 -141.65 -258.75 -142.1 Q-258.75 -145.15 -255.05 -147.55 L-255.45 -147.9 -258.0 -150.2 -258.25 -150.2 Q-260.45 -150.25 -263.1 -152.3 -266.15 -154.65 -266.15 -157.3 L-265.7 -160.55 -264.2 -163.25 Q-262.75 -165.55 -259.95 -166.2 -259.45 -169.8 -256.95 -171.7 -254.3 -173.65 -250.4 -172.8 L-248.45 -174.05 Q-246.95 -175.05 -246.05 -175.05 L-242.35 -174.75 Q-241.65 -176.05 -239.65 -177.15 -237.4 -178.4 -235.25 -178.4 L-234.85 -178.4 -233.3 -178.2" fill="#000000" fill-rule="evenodd" stroke="none"/>
    <path d="M-233.3 -178.2 Q-230.25 -177.55 -227.4 -174.75 -224.1 -171.5 -224.15 -169.4 L-223.4 -169.4 Q-212.1 -167.95 -210.3 -163.0 -208.5 -158.05 -211.15 -156.05 -213.8 -154.05 -215.05 -152.15 L-217.2 -149.3 Q-218.15 -148.35 -219.85 -148.2 L-221.85 -148.1 Q-217.3 -145.55 -217.3 -142.1 -217.3 -141.2 -217.6 -140.35 -216.1 -138.35 -215.4 -132.85 -215.4 -130.75 -218.05 -129.15 -220.55 -127.6 -223.2 -127.7 -226.75 -127.9 -228.35 -127.7 -230.0 -127.55 -231.1 -126.6 -232.1 -125.75 -233.9 -125.75 L-237.0 -126.05 -239.4 -126.65 Q-241.4 -125.6 -243.05 -125.6 -245.25 -125.6 -248.15 -126.4 L-250.85 -127.25 -256.8 -127.7 Q-258.7 -128.7 -260.0 -134.0 -260.65 -134.15 -261.65 -135.35 -262.65 -136.6 -262.65 -137.15 L-260.95 -139.5 -258.7 -141.65 -258.75 -142.1 Q-258.75 -145.15 -255.05 -147.55 L-255.45 -147.9 -258.0 -150.2 -258.25 -150.2 Q-260.45 -150.25 -263.1 -152.3 -266.15 -154.65 -266.15 -157.3 L-265.7 -160.55 -264.2 -163.25 Q-262.75 -165.55 -259.95 -166.2 -259.45 -169.8 -256.95 -171.7 -254.3 -173.65 -250.4 -172.8 L-248.45 -174.05 Q-246.95 -175.05 -246.05 -175.05 L-242.35 -174.75 Q-241.65 -176.05 -239.65 -177.15 -237.4 -178.4 -235.25 -178.4 L-234.85 -178.4 -233.3 -178.2 Z" fill="none" stroke="#333333" stroke-linecap="round" stroke-linejoin="round" stroke-width="0.7000000000000001"/>
    <path d="M-255.05 -147.55 L-255.45 -147.9 -258.0 -150.2 -258.25 -150.2 Q-260.45 -150.25 -263.1 -152.3 -266.15 -154.65 -266.15 -157.3 L-265.7 -160.55 -264.2 -163.25 Q-262.75 -165.55 -259.95 -166.2 -259.45 -169.8 -256.95 -171.7 -254.3 -173.65 -250.4 -172.8 L-248.45 -174.05 Q-246.95 -175.05 -246.05 -175.05 L-242.35 -174.75 Q-241.65 -176.05 -239.65 -177.15 -237.4 -178.4 -235.25 -178.4 L-234.85 -178.4 -233.3 -178.2 Q-231.95 -177.9 -230.55 -177.15 L-228.55 -175.75 -228.9 -175.2 Q-229.75 -176.1 -230.95 -176.55 -229.9 -175.2 -230.1 -173.05 -230.35 -171.1 -231.75 -170.1 L-231.5 -169.85 -230.3 -169.3 -229.45 -168.5 Q-228.45 -167.55 -228.3 -166.4 L-228.3 -165.55 -228.4 -164.9 Q-228.8 -163.75 -230.1 -162.95 -230.75 -162.55 -231.55 -162.35 L-230.65 -161.0 -229.85 -161.25 Q-228.7 -160.85 -227.85 -160.0 L-227.65 -160.1 Q-226.1 -161.1 -225.85 -163.15 -225.65 -164.7 -226.15 -165.8 L-226.65 -166.65 -225.75 -166.2 -224.6 -165.35 Q-223.3 -164.0 -223.45 -162.35 -223.65 -160.8 -225.25 -159.8 -226.15 -159.25 -227.15 -159.1 -226.55 -158.15 -226.65 -157.0 -226.85 -155.4 -228.45 -154.4 L-228.95 -154.15 -228.0 -153.4 Q-226.7 -152.05 -226.85 -150.4 -227.0 -149.45 -227.6 -148.7 L-229.55 -149.05 -231.45 -147.2 -231.55 -147.1 -232.25 -147.15 -233.5 -147.4 Q-232.65 -147.15 -231.05 -148.15 -229.5 -149.15 -229.25 -151.2 -229.05 -152.75 -229.55 -153.9 L-232.05 -153.7 -233.3 -154.0 Q-232.45 -153.75 -230.85 -154.7 -229.3 -155.7 -229.05 -157.8 L-229.05 -159.15 -230.1 -159.35 -230.45 -159.35 Q-230.7 -157.85 -232.25 -156.9 -233.45 -156.15 -234.85 -156.1 -234.65 -155.45 -234.75 -154.7 -234.95 -153.1 -236.55 -152.1 -237.6 -151.5 -238.8 -151.4 L-238.6 -151.2 Q-237.3 -149.85 -237.45 -148.2 -237.6 -147.15 -238.35 -146.35 L-239.25 -145.6 Q-240.35 -144.95 -241.65 -144.9 L-241.65 -144.45 -241.7 -144.45 -242.1 -144.5 -242.8 -144.55 -242.9 -144.55 -243.4 -144.6 -245.15 -144.8 -246.25 -144.9 -247.3 -145.05 -249.0 -145.25 -249.4 -145.35 Q-251.15 -145.65 -254.6 -147.15 L-255.05 -147.55 M-227.75 -172.4 L-227.75 -172.25 -227.75 -172.2 -227.95 -172.45 -227.75 -172.4" fill="#ffff00" fill-rule="evenodd" stroke="none"/>
    <path d="M-221.85 -148.1 Q-217.3 -145.55 -217.3 -142.1 -217.3 -141.2 -217.6 -140.35 -218.65 -137.5 -223.35 -135.3 -228.9 -132.75 -236.5 -132.5 L-238.0 -132.5 Q-246.55 -132.5 -252.6 -135.3 -258.4 -137.95 -258.7 -141.65 L-258.75 -142.1 Q-258.75 -145.15 -255.05 -147.55 L-254.6 -147.15 Q-251.15 -145.65 -249.4 -145.35 -251.1 -144.2 -251.1 -142.75 -251.1 -141.8 -250.3 -140.9 L-249.95 -140.55 Q-249.05 -139.75 -247.35 -139.05 -243.6 -137.5 -238.3 -137.5 L-237.5 -137.5 Q-232.7 -137.6 -229.25 -139.05 L-228.75 -139.25 -227.4 -139.85 -227.3 -139.9 -227.45 -139.95 Q-225.5 -141.2 -225.5 -142.75 -225.5 -144.9 -229.25 -146.45 L-231.1 -147.1 -231.45 -147.2 -229.55 -149.05 -227.6 -148.7 -223.7 -148.2 -221.85 -148.1" fill="#fd9124" fill-rule="evenodd" stroke="none"/>
    <path d="M-217.6 -140.35 Q-216.1 -138.35 -215.4 -132.85 -215.4 -130.75 -218.05 -129.15 -220.55 -127.6 -223.2 -127.7 -226.75 -127.9 -228.35 -127.7 -230.0 -127.55 -231.1 -126.6 -232.1 -125.75 -233.9 -125.75 L-237.0 -126.05 -239.4 -126.65 Q-241.4 -125.6 -243.05 -125.6 -245.25 -125.6 -248.15 -126.4 L-250.85 -127.25 -256.8 -127.7 Q-258.7 -128.7 -260.0 -134.0 -260.65 -134.15 -261.65 -135.35 -262.65 -136.6 -262.65 -137.15 L-260.95 -139.5 -258.7 -141.65 Q-258.4 -137.95 -252.6 -135.3 -246.55 -132.5 -238.0 -132.5 L-236.5 -132.5 Q-228.9 -132.75 -223.35 -135.3 -218.65 -137.5 -217.6 -140.35 M-249.4 -145.35 L-249.0 -145.25 -247.3 -145.05 -246.25 -144.9 Q-246.15 -142.3 -250.15 -141.05 L-250.3 -140.9 Q-251.1 -141.8 -251.1 -142.75 -251.1 -144.2 -249.4 -145.35 M-231.55 -147.1 L-231.45 -147.2 -231.1 -147.1 -229.25 -146.45 Q-225.5 -144.9 -225.5 -142.75 -225.5 -141.2 -227.45 -139.95 -230.25 -141.15 -231.15 -141.9 -232.1 -142.65 -232.3 -144.1 L-232.7 -146.15 -232.7 -146.3 -231.55 -147.1" fill="#484848" fill-rule="evenodd" stroke="none"/>
    <path d="M-227.45 -139.95 L-227.3 -139.9 -227.4 -139.85 -227.45 -139.95 M-232.75 -146.25 L-232.7 -146.3 -232.7 -146.15 -232.75 -146.25" fill="#ff9900" fill-rule="evenodd" stroke="none"/>
    <path d="M-237.5 -137.5 L-238.3 -137.5 -237.5 -137.65 -237.5 -137.5" fill="#ff3300" fill-rule="evenodd" stroke="none"/>
    <path d="M-249.95 -140.55 L-250.3 -140.9 -250.15 -141.05 -249.95 -140.55" fill="#666666" fill-rule="evenodd" stroke="none"/>
    <path d="M-228.55 -175.75 L-227.4 -174.75 Q-224.1 -171.5 -224.15 -169.4 L-223.4 -169.4 Q-212.1 -167.95 -210.3 -163.0 -208.5 -158.05 -211.15 -156.05 -213.8 -154.05 -215.05 -152.15 L-217.2 -149.3 Q-218.15 -148.35 -219.85 -148.2 L-221.85 -148.1 -223.7 -148.2 -227.6 -148.7 Q-227.0 -149.45 -226.85 -150.4 -226.7 -152.05 -228.0 -153.4 L-228.95 -154.15 -228.45 -154.4 Q-226.85 -155.4 -226.65 -157.0 -226.55 -158.15 -227.15 -159.1 -226.15 -159.25 -225.25 -159.8 -223.65 -160.8 -223.45 -162.35 -223.3 -164.0 -224.6 -165.35 L-225.75 -166.2 -226.65 -166.65 -226.15 -165.8 Q-225.65 -164.7 -225.85 -163.15 -226.1 -161.1 -227.65 -160.1 L-227.85 -160.0 Q-228.7 -160.85 -229.85 -161.25 L-230.65 -161.0 -231.55 -162.35 Q-230.75 -162.55 -230.1 -162.95 -228.8 -163.75 -228.4 -164.9 L-228.3 -165.55 -228.3 -166.4 Q-228.45 -167.55 -229.45 -168.5 L-230.3 -169.3 -231.5 -169.85 -231.75 -170.1 Q-230.35 -171.1 -230.1 -173.05 -229.9 -175.2 -230.95 -176.55 -229.75 -176.1 -228.9 -175.2 L-228.55 -175.75 M-241.65 -144.45 L-241.65 -144.9 Q-240.35 -144.95 -239.25 -145.6 L-238.35 -146.35 Q-237.6 -147.15 -237.45 -148.2 -237.3 -149.85 -238.6 -151.2 L-238.8 -151.4 Q-237.6 -151.5 -236.55 -152.1 -234.95 -153.1 -234.75 -154.7 -234.65 -155.45 -234.85 -156.1 -233.45 -156.15 -232.25 -156.9 -230.7 -157.85 -230.45 -159.35 L-230.1 -159.35 -229.05 -159.15 -229.05 -157.8 Q-229.3 -155.7 -230.85 -154.7 -232.45 -153.75 -233.3 -154.0 L-232.05 -153.7 -229.55 -153.9 Q-229.05 -152.75 -229.25 -151.2 -229.5 -149.15 -231.05 -148.15 -232.65 -147.15 -233.5 -147.4 L-232.25 -147.15 -231.55 -147.1 -232.7 -146.3 -232.75 -146.25 -233.15 -146.05 Q-235.5 -144.8 -238.35 -144.5 -239.9 -144.35 -241.65 -144.45 M-227.75 -172.4 L-227.95 -172.45 -227.75 -172.2 -227.75 -172.25 -227.75 -172.4" fill="#ffcc00" fill-rule="evenodd" stroke="none"/>
    <path d="M-227.4 -139.85 L-228.75 -139.25 -229.25 -139.05 Q-232.7 -137.6 -237.5 -137.5 L-237.5 -137.65 -237.95 -139.55 -237.95 -139.6 -238.35 -143.8 -238.35 -144.5 Q-235.5 -144.8 -233.15 -146.05 L-232.75 -146.25 -232.7 -146.15 -232.3 -144.1 Q-232.1 -142.65 -231.15 -141.9 -230.25 -141.15 -227.45 -139.95 L-227.4 -139.85" fill="#ec3102" fill-rule="evenodd" stroke="none"/>
    <path d="M-246.25 -144.9 L-245.15 -144.8 -243.4 -144.6 -242.9 -144.55 -242.8 -144.55 -242.1 -144.5 -241.7 -144.45 -241.65 -144.45 Q-239.9 -144.35 -238.35 -144.5 L-238.35 -143.8 -237.95 -139.6 -237.95 -139.55 -237.5 -137.65 -238.3 -137.5 Q-243.6 -137.5 -247.35 -139.05 -249.05 -139.75 -249.95 -140.55 L-250.15 -141.05 Q-246.15 -142.3 -246.25 -144.9" fill="#fd481c" fill-rule="evenodd" stroke="none"/>
  </g>
</svg>
