<?xml version="1.0" encoding="UTF-8" standalone="no"?>
<svg xmlns:ffdec="https://www.free-decompiler.com/flash" xmlns:xlink="http://www.w3.org/1999/xlink" ffdec:objectType="shape" height="56.75px" width="58.3px" xmlns="http://www.w3.org/2000/svg">
  <g transform="matrix(1.0, 0.0, 0.0, 1.0, 267.1, 181.4)">
    <path d="M-233.15 -180.75 Q-229.95 -180.1 -226.8 -177.25 -223.9 -174.65 -222.05 -171.35 -219.95 -170.4 -214.0 -168.9 -209.15 -167.1 -209.15 -163.3 -209.15 -160.65 -211.1 -158.55 -213.65 -155.8 -214.1 -154.7 -215.75 -150.75 -218.65 -149.65 L-221.6 -149.2 Q-217.45 -146.7 -217.45 -143.45 L-217.5 -142.75 -216.45 -141.85 Q-215.2 -140.55 -215.4 -139.2 -215.5 -138.45 -214.0 -136.65 -212.45 -134.8 -212.45 -134.25 -212.45 -131.1 -217.05 -129.4 L-223.65 -126.95 Q-224.35 -126.4 -227.7 -126.3 L-232.25 -126.2 -236.8 -125.35 -240.95 -125.0 -245.55 -125.6 -249.05 -126.5 -257.3 -126.95 Q-259.75 -127.85 -260.3 -132.35 -260.1 -134.8 -260.6 -135.05 -262.95 -136.3 -262.95 -138.15 -262.95 -139.1 -261.75 -141.35 -260.6 -143.25 -258.9 -143.15 L-258.9 -143.45 Q-258.9 -146.85 -254.35 -149.4 L-255.2 -150.0 -255.4 -150.2 -255.65 -150.45 -256.1 -150.9 -256.7 -151.5 -256.95 -151.7 -257.7 -152.4 Q-262.05 -152.0 -264.4 -154.15 -266.8 -156.35 -266.75 -159.55 -266.7 -162.8 -265.3 -164.2 L-260.85 -168.1 Q-260.9 -169.65 -260.0 -171.55 -258.45 -174.05 -257.3 -174.7 -256.15 -175.35 -254.25 -175.3 -252.35 -175.3 -250.2 -174.35 L-247.35 -176.95 Q-245.5 -178.0 -242.25 -177.45 L-241.05 -178.6 -239.7 -179.95 -239.6 -180.0 -237.95 -180.75 -237.15 -181.0 -236.75 -181.05 -235.1 -180.95 -233.15 -180.75 M-235.85 -165.25 L-235.6 -164.9 -235.6 -164.85 -235.55 -164.9 -235.85 -165.25 M-233.15 -148.7 L-233.25 -148.65 -233.1 -148.6 -233.15 -148.7" fill="#000000" fill-rule="evenodd" stroke="none"/>
    <path d="M-233.15 -180.75 Q-229.95 -180.1 -226.8 -177.25 -223.9 -174.65 -222.05 -171.35 -219.95 -170.4 -214.0 -168.9 -209.15 -167.1 -209.15 -163.3 -209.15 -160.65 -211.1 -158.55 -213.65 -155.8 -214.1 -154.7 -215.75 -150.75 -218.65 -149.65 L-221.6 -149.2 Q-217.45 -146.7 -217.45 -143.45 L-217.5 -142.75 -216.45 -141.85 Q-215.2 -140.55 -215.4 -139.2 -215.5 -138.45 -214.0 -136.65 -212.45 -134.8 -212.45 -134.25 -212.45 -131.1 -217.05 -129.4 L-223.65 -126.95 Q-224.35 -126.4 -227.7 -126.3 L-232.25 -126.2 -236.8 -125.35 -240.95 -125.0 -245.55 -125.6 -249.05 -126.5 -257.3 -126.95 Q-259.75 -127.85 -260.3 -132.35 -260.1 -134.8 -260.6 -135.05 -262.95 -136.3 -262.95 -138.15 -262.95 -139.1 -261.75 -141.35 -260.6 -143.25 -258.9 -143.15 L-258.9 -143.45 Q-258.9 -146.85 -254.35 -149.4 L-255.2 -150.0 -255.4 -150.2 -255.65 -150.45 -256.1 -150.9 -256.7 -151.5 -256.95 -151.7 -257.7 -152.4 Q-262.05 -152.0 -264.4 -154.15 -266.8 -156.35 -266.75 -159.55 -266.7 -162.8 -265.3 -164.2 L-260.85 -168.1 Q-260.9 -169.65 -260.0 -171.55 -258.45 -174.05 -257.3 -174.7 -256.15 -175.35 -254.25 -175.3 -252.35 -175.3 -250.2 -174.35 L-247.35 -176.95 Q-245.5 -178.0 -242.25 -177.45 L-241.05 -178.6 -239.7 -179.95 -239.6 -180.0 -237.95 -180.75 -237.15 -181.0 -236.75 -181.05 -235.1 -180.95 -233.15 -180.75 Z" fill="none" stroke="#333333" stroke-linecap="round" stroke-linejoin="round" stroke-width="0.7000000000000001"/>
    <path d="M-254.35 -149.4 L-255.2 -150.0 -255.4 -150.2 -255.65 -150.45 -256.1 -150.9 -256.7 -151.5 -256.95 -151.7 -257.7 -152.4 Q-262.05 -152.0 -264.4 -154.15 -266.8 -156.35 -266.75 -159.55 -266.7 -162.8 -265.3 -164.2 L-260.85 -168.1 Q-260.9 -169.65 -260.0 -171.55 -258.45 -174.05 -257.3 -174.7 -256.15 -175.35 -254.25 -175.3 -252.35 -175.3 -250.2 -174.35 L-247.35 -176.95 Q-245.5 -178.0 -242.25 -177.45 L-241.05 -178.6 -239.7 -179.95 -239.6 -180.0 -237.15 -181.0 -236.75 -181.05 -235.1 -180.95 Q-232.55 -180.95 -230.05 -179.6 -228.9 -178.95 -227.7 -178.0 L-226.8 -177.25 -224.9 -175.3 -225.5 -174.75 -227.35 -176.1 -227.35 -175.95 -227.35 -175.9 Q-227.6 -174.2 -229.2 -173.1 L-230.0 -172.7 -229.1 -171.85 Q-228.1 -170.8 -227.9 -169.5 L-227.9 -168.55 -228.05 -167.85 Q-227.05 -168.05 -226.15 -168.6 L-225.8 -168.85 -226.25 -169.8 -225.35 -169.3 -224.2 -168.35 Q-222.85 -166.9 -223.0 -165.05 -223.2 -163.3 -224.85 -162.2 -225.7 -161.65 -226.75 -161.45 -226.15 -160.35 -226.25 -159.1 -226.45 -157.35 -228.1 -156.25 L-228.6 -156.0 -227.65 -155.15 Q-226.3 -153.7 -226.45 -151.85 -226.6 -150.5 -227.6 -149.55 L-227.85 -149.6 -229.8 -150.25 Q-229.05 -151.25 -228.9 -152.75 -228.7 -154.45 -229.25 -155.7 L-231.75 -155.5 -233.05 -155.8 Q-232.15 -155.55 -230.55 -156.6 -228.95 -157.7 -228.7 -160.0 L-228.7 -161.5 -229.8 -161.75 -230.15 -161.75 -230.15 -161.85 Q-229.95 -163.6 -231.25 -165.05 L-232.65 -164.85 Q-232.45 -163.95 -232.55 -162.75 -232.8 -160.45 -234.4 -159.35 L-235.0 -159.0 -234.6 -158.15 Q-234.4 -157.45 -234.5 -156.6 -234.7 -154.85 -236.3 -153.75 -237.4 -153.05 -238.65 -152.95 L-238.4 -152.7 Q-237.05 -151.25 -237.25 -149.45 -237.4 -148.25 -238.2 -147.35 L-238.75 -146.8 -241.2 -146.65 -241.55 -146.6 -242.0 -146.6 -243.5 -146.6 -245.45 -146.8 -245.95 -146.9 -247.55 -147.5 -249.35 -148.4 -251.7 -148.45 Q-253.15 -148.65 -254.35 -149.4 M-235.55 -164.9 L-235.85 -165.25 -235.6 -164.9 -235.6 -164.85 -235.55 -164.9" fill="#ffff00" fill-rule="evenodd" stroke="none"/>
    <path d="M-245.95 -146.9 L-245.45 -146.8 -245.95 -146.9 M-237.5 -139.2 L-237.5 -139.05 -238.35 -139.05 -237.5 -139.2 M-249.55 -141.75 L-249.3 -142.1 -249.5 -141.75 -249.55 -141.75" fill="#ff3300" fill-rule="evenodd" stroke="none"/>
    <path d="M-221.6 -149.2 Q-217.45 -146.7 -217.45 -143.45 L-217.5 -142.75 Q-218.0 -139.25 -223.5 -136.65 -228.95 -134.15 -236.35 -133.85 L-238.15 -133.85 Q-246.7 -133.85 -252.75 -136.65 -258.65 -139.35 -258.9 -143.15 L-258.9 -143.45 Q-258.9 -146.85 -254.35 -149.4 -253.15 -148.65 -251.7 -148.45 L-249.35 -148.4 -247.55 -147.5 Q-250.9 -146.05 -250.9 -144.05 -250.9 -142.8 -249.55 -141.75 L-249.5 -141.75 Q-248.65 -141.1 -247.25 -140.5 -243.55 -139.05 -238.35 -139.05 L-237.5 -139.05 Q-232.85 -139.15 -229.5 -140.5 -228.15 -141.05 -227.3 -141.65 -225.8 -142.7 -225.8 -144.05 -225.8 -146.15 -229.5 -147.6 L-231.25 -148.2 -232.6 -148.5 -233.1 -148.6 -233.15 -148.7 -230.8 -150.55 -229.8 -150.25 -227.85 -149.6 -227.6 -149.55 -223.65 -149.15 -221.6 -149.2" fill="#fd9124" fill-rule="evenodd" stroke="none"/>
    <path d="M-217.5 -142.75 L-216.45 -141.85 Q-215.2 -140.55 -215.4 -139.2 -215.5 -138.45 -214.0 -136.65 -212.45 -134.8 -212.45 -134.25 -212.45 -131.1 -217.05 -129.4 L-223.65 -126.95 Q-224.35 -126.4 -227.7 -126.3 L-232.25 -126.2 -236.8 -125.35 -240.95 -125.0 -245.55 -125.6 -249.05 -126.5 -257.3 -126.95 Q-259.75 -127.85 -260.3 -132.35 -260.1 -134.8 -260.6 -135.05 -262.95 -136.3 -262.95 -138.15 -262.95 -139.1 -261.75 -141.35 -260.6 -143.25 -258.9 -143.15 -258.65 -139.35 -252.75 -136.65 -246.7 -133.85 -238.15 -133.85 L-236.35 -133.85 Q-228.95 -134.15 -223.5 -136.65 -218.0 -139.25 -217.5 -142.75 M-247.55 -147.5 L-245.95 -146.9 Q-246.1 -143.45 -249.3 -142.1 L-249.55 -141.75 Q-250.9 -142.8 -250.9 -144.05 -250.9 -146.05 -247.55 -147.5 M-227.3 -141.65 Q-231.5 -143.55 -232.55 -146.7 L-233.1 -148.6 -232.6 -148.5 -231.25 -148.2 -229.5 -147.6 Q-225.8 -146.15 -225.8 -144.05 -225.8 -142.7 -227.3 -141.65" fill="#484848" fill-rule="evenodd" stroke="none"/>
    <path d="M-224.9 -175.3 Q-223.25 -173.5 -222.05 -171.35 -219.95 -170.4 -214.0 -168.9 -209.15 -167.1 -209.15 -163.3 -209.15 -160.65 -211.1 -158.55 -213.65 -155.8 -214.1 -154.7 -215.75 -150.75 -218.65 -149.65 L-221.6 -149.2 -223.65 -149.15 -227.6 -149.55 Q-226.6 -150.5 -226.45 -151.85 -226.3 -153.7 -227.65 -155.15 L-228.6 -156.0 -228.1 -156.25 Q-226.45 -157.35 -226.25 -159.1 -226.15 -160.35 -226.75 -161.45 -225.7 -161.65 -224.85 -162.2 -223.2 -163.3 -223.0 -165.05 -222.85 -166.9 -224.2 -168.35 L-225.35 -169.3 -226.25 -169.8 -225.8 -168.85 -226.15 -168.6 Q-227.05 -168.05 -228.05 -167.85 L-227.9 -168.55 -227.9 -169.5 Q-228.1 -170.8 -229.1 -171.85 L-230.0 -172.7 -229.2 -173.1 Q-227.6 -174.2 -227.35 -175.9 L-227.35 -175.95 -227.35 -176.1 -225.5 -174.75 -224.9 -175.3 M-238.75 -146.8 L-238.2 -147.35 Q-237.4 -148.25 -237.25 -149.45 -237.05 -151.25 -238.4 -152.7 L-238.65 -152.95 Q-237.4 -153.05 -236.3 -153.75 -234.7 -154.85 -234.5 -156.6 -234.4 -157.45 -234.6 -158.15 L-235.0 -159.0 -234.4 -159.35 Q-232.8 -160.45 -232.55 -162.75 -232.45 -163.95 -232.65 -164.85 L-231.25 -165.05 Q-229.95 -163.6 -230.15 -161.85 L-230.15 -161.75 -229.8 -161.75 -228.7 -161.5 -228.7 -160.0 Q-228.95 -157.7 -230.55 -156.6 -232.15 -155.55 -233.05 -155.8 L-231.75 -155.5 -229.25 -155.7 Q-228.7 -154.45 -228.9 -152.75 -229.05 -151.25 -229.8 -150.25 L-230.8 -150.55 -233.15 -148.7 -233.25 -148.65 -233.35 -148.55 Q-235.0 -147.55 -236.25 -147.25 L-238.2 -146.9 -238.75 -146.8" fill="#ffcc00" fill-rule="evenodd" stroke="none"/>
    <path d="M-233.25 -148.65 L-233.1 -148.6 -232.55 -146.7 Q-231.5 -143.55 -227.3 -141.65 -228.15 -141.05 -229.5 -140.5 -232.85 -139.15 -237.5 -139.05 L-237.5 -139.2 -237.8 -140.45 -237.8 -140.5 -238.2 -144.7 -238.2 -146.9 -236.25 -147.25 Q-235.0 -147.55 -233.35 -148.55 L-233.25 -148.65" fill="#ec3102" fill-rule="evenodd" stroke="none"/>
    <path d="M-245.45 -146.8 L-243.5 -146.6 -242.0 -146.6 -241.55 -146.6 -241.2 -146.65 -238.75 -146.8 -238.2 -146.9 -238.2 -144.7 -237.8 -140.5 -237.8 -140.45 -237.5 -139.2 -238.35 -139.05 Q-243.55 -139.05 -247.25 -140.5 -248.65 -141.1 -249.5 -141.75 L-249.3 -142.1 Q-246.1 -143.45 -245.95 -146.9 L-245.45 -146.8" fill="#fd481c" fill-rule="evenodd" stroke="none"/>
  </g>
</svg>
