<?xml version="1.0" encoding="UTF-8" standalone="no"?>
<svg xmlns:ffdec="https://www.free-decompiler.com/flash" xmlns:xlink="http://www.w3.org/1999/xlink" ffdec:objectType="shape" height="59.5px" width="58.6px" xmlns="http://www.w3.org/2000/svg">
  <g transform="matrix(1.0, 0.0, 0.0, 1.0, 267.8, 183.85)">
    <path d="M-226.65 -180.1 Q-224.35 -177.7 -223.4 -174.05 -218.5 -173.8 -214.4 -170.55 -210.3 -167.25 -209.75 -165.05 -209.2 -162.85 -210.05 -161.3 -210.9 -159.7 -213.95 -156.05 -217.0 -152.45 -224.5 -152.55 L-223.65 -152.15 Q-217.6 -149.35 -217.6 -145.4 -217.6 -144.4 -218.0 -143.45 -217.15 -143.8 -216.0 -142.45 -214.9 -141.15 -215.05 -140.2 L-216.0 -136.7 Q-216.0 -135.65 -214.95 -134.8 -213.9 -133.95 -213.9 -132.0 -213.9 -127.3 -220.1 -126.65 -226.85 -124.7 -229.3 -124.7 L-239.0 -125.3 -242.6 -124.7 -248.3 -125.6 -255.6 -126.2 Q-259.7 -128.1 -260.75 -130.2 -261.2 -130.95 -261.85 -133.35 -262.3 -135.05 -262.95 -135.05 -263.45 -135.05 -264.05 -135.95 -264.65 -136.85 -264.65 -137.65 -264.65 -138.9 -262.3 -141.85 -260.25 -144.5 -259.0 -144.9 L-259.05 -145.4 Q-259.05 -148.65 -254.95 -151.05 L-256.45 -152.6 Q-264.9 -153.85 -266.85 -158.45 -267.45 -159.85 -267.45 -161.55 -267.45 -164.0 -265.1 -166.0 -262.6 -168.1 -262.0 -168.9 -260.2 -174.05 -258.35 -175.75 -255.7 -178.25 -250.35 -177.15 -248.6 -179.35 -243.65 -179.0 -242.45 -179.7 -240.0 -182.2 L-239.8 -182.4 Q-238.2 -183.3 -236.75 -183.4 L-235.95 -183.45 -236.0 -183.5 -235.6 -183.5 Q-229.9 -183.5 -226.65 -180.1 M-257.0 -137.55 Q-258.35 -137.55 -258.35 -136.85 -258.35 -136.45 -257.15 -135.95 L-256.75 -135.8 -256.5 -135.75 -256.35 -135.7 -255.0 -135.2 Q-253.5 -135.2 -253.5 -136.05 -253.5 -137.55 -257.0 -137.55 M-242.3 -131.25 Q-242.55 -130.05 -241.0 -129.45 L-240.25 -129.7 -238.5 -130.05 -238.5 -131.1 -240.45 -131.4 -242.3 -131.25" fill="#000000" fill-rule="evenodd" stroke="none"/>
    <path d="M-226.65 -180.1 Q-224.35 -177.7 -223.4 -174.05 -218.5 -173.8 -214.4 -170.55 -210.3 -167.25 -209.75 -165.05 -209.2 -162.85 -210.05 -161.3 -210.9 -159.7 -213.95 -156.05 -217.0 -152.45 -224.5 -152.55 L-223.65 -152.15 Q-217.6 -149.35 -217.6 -145.4 -217.6 -144.4 -218.0 -143.45 -217.15 -143.8 -216.0 -142.45 -214.9 -141.15 -215.05 -140.2 L-216.0 -136.7 Q-216.0 -135.65 -214.95 -134.8 -213.9 -133.95 -213.9 -132.0 -213.9 -127.3 -220.1 -126.65 -226.85 -124.7 -229.3 -124.7 L-239.0 -125.3 -242.6 -124.7 -248.3 -125.6 -255.6 -126.2 Q-259.7 -128.1 -260.75 -130.2 -261.2 -130.95 -261.85 -133.35 -262.3 -135.05 -262.95 -135.05 -263.45 -135.05 -264.05 -135.95 -264.65 -136.85 -264.65 -137.65 -264.65 -138.9 -262.3 -141.85 -260.25 -144.5 -259.0 -144.9 L-259.05 -145.4 Q-259.05 -148.65 -254.95 -151.05 L-256.45 -152.6 Q-264.9 -153.85 -266.85 -158.45 -267.45 -159.85 -267.45 -161.55 -267.45 -164.0 -265.1 -166.0 -262.6 -168.1 -262.0 -168.9 -260.2 -174.05 -258.35 -175.75 -255.7 -178.25 -250.35 -177.15 -248.6 -179.35 -243.65 -179.0 -242.45 -179.7 -240.0 -182.2 L-239.8 -182.4 Q-238.2 -183.3 -236.75 -183.4 L-235.95 -183.45 -236.0 -183.5 -235.6 -183.5 Q-229.9 -183.5 -226.65 -180.1 M-242.3 -131.25 L-240.45 -131.4 -238.5 -131.1 -238.5 -130.05 -240.25 -129.7 -241.0 -129.45 Q-242.55 -130.05 -242.3 -131.25 M-257.0 -137.55 Q-253.5 -137.55 -253.5 -136.05 -253.5 -135.2 -255.0 -135.2 L-256.35 -135.7 -256.5 -135.75 -256.75 -135.8 -257.15 -135.95 Q-258.35 -136.45 -258.35 -136.85 -258.35 -137.55 -257.0 -137.55 Z" fill="none" stroke="#333333" stroke-linecap="round" stroke-linejoin="round" stroke-width="0.7000000000000001"/>
    <path d="M-254.95 -151.05 L-256.45 -152.6 Q-264.9 -153.85 -266.85 -158.45 -267.45 -159.85 -267.45 -161.55 -267.45 -164.0 -265.1 -166.0 -262.6 -168.1 -262.0 -168.9 -260.2 -174.05 -258.35 -175.75 -255.7 -178.25 -250.35 -177.15 -248.6 -179.35 -243.65 -179.0 -242.45 -179.7 -240.0 -182.2 L-239.8 -182.4 Q-238.2 -183.3 -236.75 -183.4 L-235.95 -183.45 -236.0 -183.5 -235.6 -183.5 -231.1 -182.85 -231.15 -182.65 Q-230.0 -182.2 -229.1 -181.2 -227.8 -179.85 -227.95 -178.15 -226.9 -177.7 -226.1 -176.8 -225.4 -176.1 -225.1 -175.3 -224.85 -174.5 -224.95 -173.6 -225.05 -172.35 -225.9 -171.45 L-224.8 -170.5 Q-223.45 -169.1 -223.6 -167.3 -223.8 -165.55 -225.45 -164.45 -226.3 -163.9 -227.35 -163.7 -226.7 -162.65 -226.85 -161.45 -227.05 -159.7 -228.65 -158.65 L-229.15 -158.35 -228.2 -157.55 Q-226.85 -156.1 -227.05 -154.3 -227.25 -152.6 -228.85 -151.5 L-229.7 -151.05 -229.3 -150.2 -231.85 -150.15 -232.2 -150.15 -232.35 -150.15 -232.55 -150.15 -232.5 -150.75 -233.8 -151.05 Q-232.9 -150.8 -231.3 -151.85 -229.75 -152.9 -229.45 -155.2 -229.3 -156.85 -229.8 -158.05 L-232.3 -157.9 -233.55 -158.2 Q-232.7 -157.9 -231.1 -158.95 -229.5 -160.05 -229.25 -162.3 L-229.25 -163.75 -230.35 -164.0 -230.7 -164.0 Q-230.95 -162.35 -232.5 -161.3 -233.7 -160.55 -235.15 -160.5 L-235.0 -158.95 Q-235.2 -157.25 -236.85 -156.15 -237.9 -155.5 -239.15 -155.35 L-238.9 -155.15 -237.85 -153.4 -237.75 -151.9 Q-237.85 -151.15 -238.2 -150.55 -238.65 -149.75 -239.55 -149.1 L-240.55 -148.45 -241.2 -148.3 -242.15 -148.2 -244.45 -148.05 -246.25 -148.05 -246.7 -148.05 -249.2 -148.25 Q-251.6 -148.65 -253.4 -149.85 L-254.95 -151.05 M-226.35 -171.05 L-226.75 -170.75 Q-227.65 -170.2 -228.65 -170.0 -229.05 -168.75 -230.3 -167.9 L-231.8 -167.3 Q-231.15 -166.6 -230.85 -165.8 L-230.05 -166.1 Q-228.9 -165.65 -228.05 -164.7 L-227.9 -164.8 Q-226.3 -165.9 -226.0 -168.15 -225.85 -169.8 -226.35 -171.05 M-230.55 -174.8 L-229.65 -173.95 Q-228.7 -172.9 -228.5 -171.65 -227.55 -172.7 -227.35 -174.45 -227.1 -176.5 -227.95 -177.9 -228.15 -176.25 -229.75 -175.2 -230.15 -174.95 -230.55 -174.8" fill="#ffff00" fill-rule="evenodd" stroke="none"/>
    <path d="M-249.2 -148.25 L-246.7 -148.05 -246.25 -148.05 Q-246.05 -146.75 -246.6 -145.45 -247.2 -144.05 -249.0 -143.35 L-249.2 -143.1 Q-251.0 -144.25 -251.0 -145.7 -251.0 -147.1 -249.2 -148.25 M-232.2 -150.15 L-231.85 -150.15 -229.25 -149.2 Q-225.5 -147.75 -225.5 -145.7 -225.5 -144.1 -227.85 -142.8 L-228.1 -143.15 -228.8 -143.35 Q-231.75 -144.5 -232.2 -147.2 L-232.2 -150.15 M-218.0 -143.45 Q-217.15 -143.8 -216.0 -142.45 -214.9 -141.15 -215.05 -140.2 L-216.0 -136.7 Q-216.0 -135.65 -214.95 -134.8 -213.9 -133.95 -213.9 -132.0 -213.9 -127.3 -220.1 -126.65 -226.85 -124.7 -229.3 -124.7 L-239.0 -125.3 -242.6 -124.7 -248.3 -125.6 -255.6 -126.2 Q-259.7 -128.1 -260.75 -130.2 -261.2 -130.95 -261.85 -133.35 -262.3 -135.05 -262.95 -135.05 -263.45 -135.05 -264.05 -135.95 -264.65 -136.85 -264.65 -137.65 -264.65 -138.9 -262.3 -141.85 -260.25 -144.5 -259.0 -144.9 -258.65 -141.25 -252.9 -138.6 -246.85 -135.8 -238.3 -135.8 -229.75 -135.8 -223.65 -138.6 -219.15 -140.7 -218.0 -143.45 M-238.5 -131.1 L-240.45 -131.4 -242.3 -131.25 Q-242.55 -130.05 -241.0 -129.45 L-240.25 -129.7 -238.5 -130.05 -238.5 -131.1 M-257.0 -137.55 Q-258.35 -137.55 -258.35 -136.85 -258.35 -136.45 -257.15 -135.95 L-256.75 -135.8 -256.5 -135.75 -256.35 -135.7 -255.0 -135.2 Q-253.5 -135.2 -253.5 -136.05 -253.5 -137.55 -257.0 -137.55" fill="#484848" fill-rule="evenodd" stroke="none"/>
    <path d="M-240.55 -148.45 L-239.55 -149.1 Q-238.65 -149.75 -238.2 -150.55 -237.85 -151.15 -237.75 -151.9 L-237.85 -153.4 -238.9 -155.15 -239.15 -155.35 Q-237.9 -155.5 -236.85 -156.15 -235.2 -157.25 -235.0 -158.95 L-235.15 -160.5 Q-233.7 -160.55 -232.5 -161.3 -230.95 -162.35 -230.7 -164.0 L-230.35 -164.0 -229.25 -163.75 -229.25 -162.3 Q-229.5 -160.05 -231.1 -158.95 -232.7 -157.9 -233.55 -158.2 L-232.3 -157.9 -229.8 -158.05 Q-229.3 -156.85 -229.45 -155.2 -229.75 -152.9 -231.3 -151.85 -232.9 -150.8 -233.8 -151.05 L-232.5 -150.75 -232.55 -150.15 -236.85 -150.6 -237.3 -150.8 -238.2 -149.9 Q-239.55 -148.75 -240.55 -148.45 M-229.3 -150.2 L-229.7 -151.05 -228.85 -151.5 Q-227.25 -152.6 -227.05 -154.3 -226.85 -156.1 -228.2 -157.55 L-229.15 -158.35 -228.65 -158.65 Q-227.05 -159.7 -226.85 -161.45 -226.7 -162.65 -227.35 -163.7 -226.3 -163.9 -225.45 -164.45 -223.8 -165.55 -223.6 -167.3 -223.45 -169.1 -224.8 -170.5 L-225.9 -171.45 Q-225.05 -172.35 -224.95 -173.6 -224.85 -174.5 -225.1 -175.3 -225.4 -176.1 -226.1 -176.8 -226.9 -177.7 -227.95 -178.15 -227.8 -179.85 -229.1 -181.2 -230.0 -182.2 -231.15 -182.65 L-231.1 -182.85 Q-228.5 -182.0 -226.65 -180.1 -224.9 -178.3 -223.95 -175.75 L-223.4 -174.05 Q-218.5 -173.8 -214.4 -170.55 -210.3 -167.25 -209.75 -165.05 -209.2 -162.85 -210.05 -161.3 -210.9 -159.7 -213.95 -156.05 -217.0 -152.45 -224.5 -152.55 L-223.65 -152.15 -224.6 -152.55 Q-226.0 -150.7 -228.05 -150.3 L-229.3 -150.2 M-230.55 -174.8 Q-230.15 -174.95 -229.75 -175.2 -228.15 -176.25 -227.95 -177.9 -227.1 -176.5 -227.35 -174.45 -227.55 -172.7 -228.5 -171.65 -228.7 -172.9 -229.65 -173.95 L-230.55 -174.8 M-226.35 -171.05 Q-225.85 -169.8 -226.0 -168.15 -226.3 -165.9 -227.9 -164.8 L-228.05 -164.7 Q-228.9 -165.65 -230.05 -166.1 L-230.85 -165.8 Q-231.15 -166.6 -231.8 -167.3 L-230.3 -167.9 Q-229.05 -168.75 -228.65 -170.0 -227.65 -170.2 -226.75 -170.75 L-226.35 -171.05" fill="#ffcc00" fill-rule="evenodd" stroke="none"/>
    <path d="M-254.95 -151.05 L-253.4 -149.85 Q-251.6 -148.65 -249.2 -148.25 -251.0 -147.1 -251.0 -145.7 -251.0 -144.25 -249.2 -143.1 L-247.3 -142.2 Q-243.55 -140.75 -238.25 -140.75 L-237.05 -140.75 Q-232.55 -140.9 -229.25 -142.2 -228.5 -142.5 -227.9 -142.8 L-227.85 -142.8 Q-225.5 -144.1 -225.5 -145.7 -225.5 -147.75 -229.25 -149.2 L-231.85 -150.15 -229.3 -150.2 -228.05 -150.3 Q-226.0 -150.7 -224.6 -152.55 L-223.65 -152.15 Q-217.6 -149.35 -217.6 -145.4 -217.6 -144.4 -218.0 -143.45 -219.15 -140.7 -223.65 -138.6 -229.75 -135.8 -238.3 -135.8 -246.85 -135.8 -252.9 -138.6 -258.65 -141.25 -259.0 -144.9 L-259.05 -145.4 Q-259.05 -148.65 -254.95 -151.05" fill="#fd9124" fill-rule="evenodd" stroke="none"/>
    <path d="M-232.55 -150.15 L-232.35 -150.15 -232.2 -150.15 -232.2 -147.2 Q-231.75 -144.5 -228.8 -143.35 L-228.1 -143.15 -227.85 -142.8 -227.9 -142.8 Q-228.5 -142.5 -229.25 -142.2 -232.55 -140.9 -237.05 -140.75 L-237.8 -144.15 -237.8 -144.2 -238.2 -148.4 -238.2 -149.9 -237.3 -150.8 -236.85 -150.6 -232.55 -150.15" fill="#ec3102" fill-rule="evenodd" stroke="none"/>
    <path d="M-246.25 -148.05 L-244.45 -148.05 -242.15 -148.2 -241.2 -148.3 -240.55 -148.45 Q-239.55 -148.75 -238.2 -149.9 L-238.2 -148.4 -237.8 -144.2 -237.8 -144.15 -237.05 -140.75 -238.25 -140.75 Q-243.55 -140.75 -247.3 -142.2 L-249.2 -143.1 -249.0 -143.35 Q-247.2 -144.05 -246.6 -145.45 -246.05 -146.75 -246.25 -148.05" fill="#fd481c" fill-rule="evenodd" stroke="none"/>
  </g>
</svg>
