<?xml version="1.0" encoding="UTF-8" standalone="no"?>
<svg xmlns:ffdec="https://www.free-decompiler.com/flash" xmlns:xlink="http://www.w3.org/1999/xlink" ffdec:objectType="shape" height="61.4px" width="57.85px" xmlns="http://www.w3.org/2000/svg">
  <g transform="matrix(1.0, 0.0, 0.0, 1.0, 266.5, 185.3)">
    <path d="M-222.95 -174.95 Q-216.3 -172.35 -212.95 -170.45 -209.6 -168.55 -209.05 -165.95 -208.5 -163.4 -212.05 -160.45 -214.65 -157.5 -216.8 -155.85 L-219.65 -153.15 -220.8 -152.05 Q-218.05 -149.85 -217.8 -147.45 L-215.2 -145.75 Q-212.75 -144.1 -212.75 -142.5 -212.75 -141.15 -215.7 -138.0 -214.95 -137.95 -213.35 -136.75 -211.55 -135.35 -211.55 -134.3 -211.55 -133.55 -215.55 -130.2 L-220.7 -125.9 Q-222.1 -124.7 -235.5 -124.7 -242.5 -124.7 -243.5 -125.75 -245.45 -124.25 -248.1 -124.25 -251.3 -124.25 -254.25 -126.05 -257.75 -127.2 -260.45 -129.05 -266.0 -136.25 -266.0 -138.45 -266.0 -139.7 -258.95 -145.35 L-259.2 -146.9 Q-259.2 -150.15 -255.05 -152.6 -255.55 -153.4 -255.55 -154.55 -260.75 -154.5 -263.55 -156.65 -266.4 -158.85 -266.1 -163.65 -265.85 -168.5 -260.9 -170.6 L-261.05 -171.95 Q-261.05 -179.45 -254.55 -179.45 L-251.9 -179.25 Q-249.2 -183.1 -244.55 -182.3 L-243.35 -181.95 Q-242.75 -182.4 -238.7 -184.25 -237.3 -184.95 -234.9 -184.95 -230.1 -184.95 -227.75 -182.85 -225.7 -181.05 -223.0 -175.1 L-222.95 -174.95 M-234.0 -151.55 L-234.05 -151.6 -234.1 -151.55 -234.0 -151.55 -233.35 -149.2 -232.25 -148.75 -226.55 -149.25 -229.05 -150.45 -234.0 -151.55 M-254.1 -136.4 L-254.25 -137.25 Q-254.95 -137.25 -256.3 -137.85 -257.55 -138.35 -257.75 -138.6 -258.5 -137.8 -259.05 -137.8 -259.25 -137.75 -259.25 -137.15 -259.25 -135.85 -258.5 -135.2 -255.4 -134.25 -254.1 -136.4 M-240.85 -129.65 Q-237.7 -128.9 -238.5 -129.9 L-238.5 -131.1 Q-239.85 -131.7 -240.95 -131.7 L-242.6 -130.95 Q-241.75 -130.0 -240.85 -129.65" fill="#000000" fill-rule="evenodd" stroke="none"/>
    <path d="M-222.95 -174.95 Q-216.3 -172.35 -212.95 -170.45 -209.6 -168.55 -209.05 -165.95 -208.5 -163.4 -212.05 -160.45 -214.65 -157.5 -216.8 -155.85 L-219.65 -153.15 -220.8 -152.05 Q-218.05 -149.85 -217.8 -147.45 L-215.2 -145.75 Q-212.75 -144.1 -212.75 -142.5 -212.75 -141.15 -215.7 -138.0 -214.95 -137.95 -213.35 -136.75 -211.55 -135.35 -211.55 -134.3 -211.55 -133.55 -215.55 -130.2 L-220.7 -125.9 Q-222.1 -124.7 -235.5 -124.7 -242.5 -124.7 -243.5 -125.75 -245.45 -124.25 -248.1 -124.25 -251.3 -124.25 -254.25 -126.05 -257.75 -127.2 -260.45 -129.05 -266.0 -136.25 -266.0 -138.45 -266.0 -139.7 -258.95 -145.35 L-259.2 -146.9 Q-259.2 -150.15 -255.05 -152.6 -255.55 -153.4 -255.55 -154.55 -260.75 -154.5 -263.55 -156.65 -266.4 -158.85 -266.1 -163.65 -265.85 -168.5 -260.9 -170.6 L-261.05 -171.95 Q-261.05 -179.45 -254.55 -179.45 L-251.9 -179.25 Q-249.2 -183.1 -244.55 -182.3 L-243.35 -181.95 Q-242.75 -182.4 -238.7 -184.25 -237.3 -184.95 -234.9 -184.95 -230.1 -184.95 -227.75 -182.85 -225.7 -181.05 -223.0 -175.1 L-222.95 -174.95 M-234.0 -151.55 L-229.05 -150.45 -226.55 -149.25 -232.25 -148.75 -233.35 -149.2 -234.0 -151.55 M-240.85 -129.65 Q-241.75 -130.0 -242.6 -130.95 L-240.95 -131.7 Q-239.85 -131.7 -238.5 -131.1 L-238.5 -129.9 Q-237.7 -128.9 -240.85 -129.65 M-254.1 -136.4 Q-255.4 -134.25 -258.5 -135.2 -259.25 -135.85 -259.25 -137.15 -259.25 -137.75 -259.05 -137.8 -258.5 -137.8 -257.75 -138.6 -257.55 -138.35 -256.3 -137.85 -254.95 -137.25 -254.25 -137.25 L-254.1 -136.4 Z" fill="none" stroke="#333333" stroke-linecap="round" stroke-linejoin="round" stroke-width="0.7000000000000001"/>
    <path d="M-255.05 -152.6 Q-255.55 -153.4 -255.55 -154.55 -260.75 -154.5 -263.55 -156.65 -266.4 -158.85 -266.1 -163.65 -265.85 -168.5 -260.9 -170.6 L-261.05 -171.95 Q-261.05 -179.45 -254.55 -179.45 L-251.9 -179.25 Q-249.2 -183.1 -244.55 -182.3 L-243.35 -181.95 Q-242.75 -182.4 -238.7 -184.25 -237.3 -184.95 -234.9 -184.95 -231.85 -184.95 -229.75 -184.1 L-228.8 -183.6 -228.75 -183.95 -228.7 -183.6 Q-228.5 -182.2 -228.6 -181.05 -228.85 -178.85 -230.35 -177.75 L-230.05 -177.45 -228.85 -176.85 -227.9 -175.95 Q-226.9 -174.9 -226.7 -173.6 L-226.7 -172.6 -226.85 -171.9 Q-227.25 -170.6 -228.6 -169.7 -229.3 -169.25 -230.1 -169.05 L-231.6 -168.85 Q-231.35 -167.9 -231.45 -166.65 -231.75 -164.3 -233.4 -163.2 L-234.0 -162.85 -233.6 -162.0 Q-232.1 -162.05 -230.85 -162.85 -229.25 -163.95 -229.0 -165.65 L-228.6 -165.65 -227.5 -165.7 -227.5 -165.4 -227.5 -163.85 Q-227.7 -161.85 -228.95 -160.75 L-228.55 -160.4 Q-227.95 -160.2 -227.4 -159.8 L-226.4 -158.9 Q-225.0 -157.4 -225.2 -155.55 -225.4 -153.8 -227.1 -152.65 -227.8 -152.2 -228.6 -152.0 L-230.1 -152.7 -231.55 -153.4 -234.05 -151.6 -234.1 -151.55 -235.7 -150.65 Q-236.95 -150.0 -238.5 -149.85 L-238.75 -149.85 -239.9 -149.85 -241.6 -150.0 Q-242.9 -150.2 -243.75 -150.6 L-245.3 -151.4 -245.35 -151.45 -245.55 -151.55 -247.7 -152.95 Q-248.85 -151.25 -252.15 -151.25 -254.25 -151.25 -255.05 -152.6 M-226.15 -180.95 L-225.55 -180.05 -226.15 -180.35 -226.15 -180.15 -226.15 -180.1 -226.35 -180.4 -226.15 -180.35 -226.15 -180.95 M-223.05 -175.2 L-223.0 -175.1 -222.95 -174.95 -223.1 -175.05 -223.05 -175.2 M-224.05 -173.35 L-224.5 -172.95 -225.0 -173.85 -224.05 -173.35" fill="#ffff00" fill-rule="evenodd" stroke="none"/>
    <path d="M-220.8 -152.05 Q-218.05 -149.85 -217.8 -147.45 L-217.75 -146.9 Q-217.75 -142.95 -223.8 -140.1 -229.9 -137.3 -238.45 -137.3 -247.0 -137.3 -253.05 -140.1 -257.95 -142.35 -258.95 -145.35 L-259.2 -146.9 Q-259.2 -150.15 -255.05 -152.6 -254.25 -151.25 -252.15 -151.25 -248.85 -151.25 -247.7 -152.95 L-245.55 -151.55 -245.55 -151.45 -245.55 -151.05 -247.6 -150.45 Q-251.4 -149.1 -251.4 -147.2 -251.4 -145.3 -247.6 -143.95 L-246.5 -143.6 -246.4 -143.55 Q-242.95 -142.6 -238.3 -142.6 L-237.4 -142.6 -231.55 -143.25 -229.05 -143.95 Q-225.2 -145.3 -225.2 -147.2 -225.2 -148.35 -226.55 -149.25 L-229.05 -150.45 -234.0 -151.55 -234.05 -151.6 -231.55 -153.4 -230.1 -152.7 -228.6 -152.0 -228.35 -151.85 Q-224.95 -150.25 -223.65 -150.75 -222.3 -151.25 -221.35 -151.7 L-220.8 -152.05" fill="#fd9124" fill-rule="evenodd" stroke="none"/>
    <path d="M-237.4 -142.6 L-238.3 -142.6 -237.45 -142.75 -237.4 -142.6" fill="#ff3300" fill-rule="evenodd" stroke="none"/>
    <path d="M-217.8 -147.45 L-215.2 -145.75 Q-212.75 -144.1 -212.75 -142.5 -212.75 -141.15 -215.7 -138.0 -214.95 -137.95 -213.35 -136.75 -211.55 -135.35 -211.55 -134.3 -211.55 -133.55 -215.55 -130.2 L-220.7 -125.9 Q-222.1 -124.7 -235.5 -124.7 -242.5 -124.7 -243.5 -125.75 -245.45 -124.25 -248.1 -124.25 -251.3 -124.25 -254.25 -126.05 -257.75 -127.2 -260.45 -129.05 -266.0 -136.25 -266.0 -138.45 -266.0 -139.7 -258.95 -145.35 -257.95 -142.35 -253.05 -140.1 -247.0 -137.3 -238.45 -137.3 -229.9 -137.3 -223.8 -140.1 -217.75 -142.95 -217.75 -146.9 L-217.8 -147.45 M-226.55 -149.25 Q-225.2 -148.35 -225.2 -147.2 -225.2 -145.3 -229.05 -143.95 L-231.55 -143.25 -233.35 -149.2 -232.25 -148.75 -226.55 -149.25 M-246.4 -143.55 L-246.5 -143.6 -247.6 -143.95 Q-251.4 -145.3 -251.4 -147.2 -251.4 -149.1 -247.6 -150.45 L-245.55 -151.05 -245.8 -147.4 Q-245.9 -145.75 -246.2 -144.65 L-246.4 -143.55 M-242.6 -130.95 Q-241.75 -130.0 -240.85 -129.65 -237.7 -128.9 -238.5 -129.9 L-238.5 -131.1 Q-239.85 -131.7 -240.95 -131.7 L-242.6 -130.95 M-256.3 -137.85 Q-257.55 -138.35 -257.75 -138.6 -258.5 -137.8 -259.05 -137.8 -259.25 -137.75 -259.25 -137.15 -259.25 -135.85 -258.5 -135.2 -255.4 -134.25 -254.1 -136.4 L-254.25 -137.25 Q-254.95 -137.25 -256.3 -137.85" fill="#484848" fill-rule="evenodd" stroke="none"/>
    <path d="M-245.55 -151.55 L-245.35 -151.45 -245.3 -151.4 -245.55 -151.45 -245.55 -151.55" fill="#ff9900" fill-rule="evenodd" stroke="none"/>
    <path d="M-228.7 -183.6 L-228.1 -183.15 Q-227.3 -182.75 -226.15 -180.95 L-226.15 -180.35 -226.35 -180.4 -226.15 -180.1 -226.15 -180.15 -226.15 -180.35 -225.55 -180.05 -223.05 -175.2 -223.1 -175.05 -222.95 -174.95 Q-216.3 -172.35 -212.95 -170.45 -209.6 -168.55 -209.05 -165.95 -208.5 -163.4 -212.05 -160.45 -214.65 -157.5 -216.8 -155.85 L-219.65 -153.15 -220.8 -152.05 -221.35 -151.7 Q-222.3 -151.25 -223.65 -150.75 -224.95 -150.25 -228.35 -151.85 L-228.6 -152.0 Q-227.8 -152.2 -227.1 -152.65 -225.4 -153.8 -225.2 -155.55 -225.0 -157.4 -226.4 -158.9 L-227.4 -159.8 Q-227.95 -160.2 -228.55 -160.4 L-228.95 -160.75 Q-227.7 -161.85 -227.5 -163.85 L-227.5 -165.4 -227.5 -165.7 -228.6 -165.65 -229.0 -165.65 Q-229.25 -163.95 -230.85 -162.85 -232.1 -162.05 -233.6 -162.0 L-234.0 -162.85 -233.4 -163.2 Q-231.75 -164.3 -231.45 -166.65 -231.35 -167.9 -231.6 -168.85 L-230.1 -169.05 Q-229.3 -169.25 -228.6 -169.7 -227.25 -170.6 -226.85 -171.9 L-226.7 -172.6 -226.7 -173.6 Q-226.9 -174.9 -227.9 -175.95 L-228.85 -176.85 -230.05 -177.45 -230.35 -177.75 Q-228.85 -178.85 -228.6 -181.05 -228.5 -182.2 -228.7 -183.6 M-224.05 -173.35 L-225.0 -173.85 -224.5 -172.95 -224.05 -173.35" fill="#ffcc00" fill-rule="evenodd" stroke="none"/>
    <path d="M-238.5 -149.85 Q-236.95 -150.0 -235.7 -150.65 L-234.1 -151.55 -234.0 -151.55 -233.35 -149.2 -231.55 -143.25 -237.4 -142.6 -237.45 -142.75 -238.1 -145.8 -238.1 -145.85 -238.5 -149.85" fill="#ec3102" fill-rule="evenodd" stroke="none"/>
    <path d="M-245.3 -151.4 L-243.75 -150.6 Q-242.9 -150.2 -241.6 -150.0 L-239.9 -149.85 -238.75 -149.85 -238.5 -149.85 -238.1 -145.85 -238.1 -145.8 -237.45 -142.75 -238.3 -142.6 Q-242.95 -142.6 -246.4 -143.55 L-246.2 -144.65 Q-245.9 -145.75 -245.8 -147.4 L-245.55 -151.05 -245.55 -151.45 -245.3 -151.4" fill="#fd481c" fill-rule="evenodd" stroke="none"/>
  </g>
</svg>
