<?xml version="1.0" encoding="UTF-8" standalone="no"?>
<svg xmlns:ffdec="https://www.free-decompiler.com/flash" xmlns:xlink="http://www.w3.org/1999/xlink" ffdec:objectType="shape" height="67.55px" width="57.45px" xmlns="http://www.w3.org/2000/svg">
  <g transform="matrix(1.0, 0.0, 0.0, 1.0, 266.8, 190.8)">
    <path d="M-221.9 -177.95 L-218.6 -177.35 Q-215.95 -176.4 -214.7 -174.9 L-211.45 -171.5 Q-209.9 -169.75 -209.7 -167.05 -209.55 -164.35 -210.95 -163.2 -212.35 -162.05 -216.2 -160.2 -219.1 -157.4 -221.35 -155.85 -217.0 -153.35 -217.0 -150.05 L-217.05 -149.45 -213.4 -146.85 Q-211.55 -145.1 -211.55 -143.0 -211.55 -141.9 -212.55 -140.7 -213.6 -139.4 -214.95 -138.9 -210.8 -138.75 -210.8 -135.35 -210.8 -133.25 -216.8 -128.75 -223.0 -124.1 -226.65 -124.1 -228.8 -124.1 -230.15 -124.65 -231.4 -124.05 -231.6 -124.0 L-236.1 -123.6 -238.75 -123.65 Q-239.05 -123.7 -240.45 -124.45 L-240.8 -124.6 -247.85 -123.75 Q-251.95 -123.75 -253.8 -124.55 -256.45 -125.7 -257.75 -128.15 -263.6 -128.0 -264.0 -134.25 -264.8 -134.65 -265.45 -135.6 -266.45 -137.05 -266.45 -138.45 -266.45 -140.35 -263.45 -143.3 -260.7 -146.05 -258.55 -146.85 -259.75 -148.35 -259.75 -150.05 -259.75 -153.1 -255.95 -155.55 L-257.2 -156.35 -257.4 -156.5 Q-262.05 -156.35 -264.05 -158.35 -265.85 -160.15 -265.85 -164.3 -265.85 -166.85 -264.6 -169.0 -263.0 -171.4 -262.2 -173.15 -262.9 -176.2 -261.25 -179.15 -259.6 -182.2 -256.85 -182.25 -255.2 -182.25 -254.25 -183.35 L-252.2 -185.4 Q-250.15 -186.6 -247.95 -186.85 L-244.7 -186.65 Q-243.65 -186.25 -242.55 -186.2 L-239.7 -189.1 Q-237.15 -191.4 -230.45 -189.8 -223.75 -188.25 -221.9 -177.95 M-242.4 -152.0 L-242.35 -152.1 -242.4 -152.15 -242.4 -152.0 M-220.15 -139.2 Q-219.2 -139.3 -219.2 -140.3 -219.2 -141.2 -220.1 -141.2 L-222.3 -139.2 -220.15 -139.2 M-229.3 -154.6 L-231.95 -155.6 Q-232.4 -153.65 -233.45 -152.6 L-227.85 -152.2 -224.8 -151.75 Q-225.45 -153.1 -227.7 -154.2 L-228.35 -154.35 -229.3 -154.6 M-241.55 -130.05 Q-238.3 -129.35 -237.6 -131.1 L-240.0 -131.55 Q-242.45 -131.55 -242.45 -130.8 -242.45 -130.2 -241.7 -130.05 L-241.65 -130.05 -241.55 -130.05 M-227.75 -135.75 Q-227.95 -136.95 -229.1 -136.95 -230.3 -137.0 -233.35 -135.0 L-229.35 -134.75 Q-227.6 -134.6 -227.75 -135.75 M-249.05 -152.15 L-251.3 -153.0 -251.35 -153.0 Q-252.55 -151.9 -252.55 -150.7 L-252.5 -150.45 -251.1 -151.55 Q-250.35 -152.1 -249.05 -152.15 M-257.9 -139.05 L-259.55 -139.05 -260.0 -138.3 Q-260.0 -137.7 -258.85 -137.15 L-257.5 -136.7 Q-257.9 -137.85 -257.9 -139.05" fill="#000000" fill-rule="evenodd" stroke="none"/>
    <path d="M-221.9 -177.95 Q-223.75 -188.25 -230.45 -189.8 -237.15 -191.4 -239.7 -189.1 L-242.55 -186.2 Q-243.65 -186.25 -244.7 -186.65 L-247.95 -186.85 Q-250.15 -186.6 -252.2 -185.4 L-254.25 -183.35 Q-255.2 -182.25 -256.85 -182.25 -259.6 -182.2 -261.25 -179.15 -262.9 -176.2 -262.2 -173.15 -263.0 -171.4 -264.6 -169.0 -265.85 -166.85 -265.85 -164.3 -265.85 -160.15 -264.05 -158.35 -262.05 -156.35 -257.4 -156.5 L-257.2 -156.35 -255.95 -155.55 Q-259.75 -153.1 -259.75 -150.05 -259.75 -148.35 -258.55 -146.85 -260.7 -146.05 -263.45 -143.3 -266.45 -140.35 -266.45 -138.45 -266.45 -137.05 -265.45 -135.6 -264.8 -134.65 -264.0 -134.25 -263.6 -128.0 -257.75 -128.15 -256.45 -125.7 -253.8 -124.55 -251.95 -123.75 -247.85 -123.75 L-240.8 -124.6 -240.45 -124.45 Q-239.05 -123.7 -238.75 -123.65 L-236.1 -123.6 -231.6 -124.0 Q-231.4 -124.05 -230.15 -124.65 -228.8 -124.1 -226.65 -124.1 -223.0 -124.1 -216.8 -128.75 -210.8 -133.25 -210.8 -135.35 -210.8 -138.75 -214.95 -138.9 -213.6 -139.4 -212.55 -140.7 -211.55 -141.9 -211.55 -143.0 -211.55 -145.1 -213.4 -146.85 L-217.05 -149.45 -217.0 -150.05 Q-217.0 -153.35 -221.35 -155.85 -219.1 -157.4 -216.2 -160.2 -212.35 -162.05 -210.95 -163.2 -209.55 -164.35 -209.7 -167.05 -209.9 -169.75 -211.45 -171.5 L-214.7 -174.9 Q-215.95 -176.4 -218.6 -177.35 L-221.9 -177.95 M-229.3 -154.6 L-228.35 -154.35 -227.7 -154.2 Q-225.45 -153.1 -224.8 -151.75 L-227.85 -152.2 -233.45 -152.6 Q-232.4 -153.65 -231.95 -155.6 L-229.3 -154.6 M-220.15 -139.2 L-222.3 -139.2 -220.1 -141.2 Q-219.2 -141.2 -219.2 -140.3 -219.2 -139.3 -220.15 -139.2 M-241.55 -130.05 Q-238.3 -129.35 -237.6 -131.1 L-240.0 -131.55 Q-242.45 -131.55 -242.45 -130.8 -242.45 -130.2 -241.7 -130.05 L-241.65 -130.05 -241.55 -130.05 M-227.75 -135.75 Q-227.95 -136.95 -229.1 -136.95 -230.3 -137.0 -233.35 -135.0 L-229.35 -134.75 Q-227.6 -134.6 -227.75 -135.75 M-249.05 -152.15 L-251.3 -153.0 -251.35 -153.0 Q-252.55 -151.9 -252.55 -150.7 L-252.5 -150.45 -251.1 -151.55 Q-250.35 -152.1 -249.05 -152.15 M-257.9 -139.05 Q-257.9 -137.85 -257.5 -136.7 L-258.85 -137.15 Q-260.0 -137.7 -260.0 -138.3 L-259.55 -139.05 -257.9 -139.05 Z" fill="none" stroke="#333333" stroke-linecap="round" stroke-linejoin="round" stroke-width="0.7000000000000001"/>
    <path d="M-223.45 -183.4 L-223.9 -183.85 Q-224.85 -184.85 -226.15 -185.4 L-226.15 -185.25 -226.15 -185.15 Q-225.15 -183.55 -225.4 -181.15 -225.65 -179.2 -226.85 -178.0 L-226.85 -176.95 -227.0 -176.15 Q-227.5 -174.7 -229.1 -173.75 -229.95 -173.25 -230.9 -173.0 L-232.65 -172.8 Q-232.35 -171.75 -232.5 -170.4 -232.85 -167.85 -234.8 -166.6 L-235.5 -166.2 -235.05 -165.3 Q-233.25 -165.35 -231.8 -166.2 -229.85 -167.4 -229.55 -169.3 L-229.55 -169.45 Q-229.45 -170.45 -229.8 -171.3 L-228.8 -171.65 Q-227.35 -171.15 -226.3 -170.05 L-226.1 -170.2 Q-224.15 -171.4 -223.8 -174.0 -223.6 -175.9 -224.2 -177.3 L-224.8 -178.3 -223.65 -177.75 -222.3 -176.7 Q-220.6 -175.05 -220.85 -173.0 -221.1 -171.05 -223.1 -169.8 -224.15 -169.15 -225.4 -168.95 -224.65 -167.75 -224.8 -166.35 -225.05 -164.4 -227.05 -163.15 L-227.65 -162.85 -228.45 -162.5 Q-227.85 -161.15 -228.05 -159.2 -228.35 -156.65 -230.3 -155.4 L-230.9 -155.1 -231.95 -155.6 -232.25 -154.5 -232.35 -154.25 Q-232.8 -153.25 -233.45 -152.6 L-233.6 -152.45 -233.7 -152.35 Q-235.05 -151.2 -237.15 -151.3 L-238.65 -151.35 -241.55 -151.8 Q-241.0 -152.0 -240.5 -152.3 -239.2 -153.1 -238.65 -154.25 L-238.25 -155.5 -238.25 -155.55 Q-238.05 -157.55 -239.7 -159.2 L-239.95 -159.45 Q-238.45 -159.55 -237.15 -160.35 -235.15 -161.55 -234.9 -163.55 -234.8 -164.45 -235.05 -165.3 L-236.3 -165.35 -237.8 -165.7 -237.85 -164.5 Q-238.15 -161.95 -240.15 -160.7 L-241.0 -160.2 -239.95 -159.45 -241.55 -159.5 Q-241.05 -158.2 -241.25 -156.5 -241.55 -153.9 -243.5 -152.7 L-243.45 -151.85 -244.65 -151.7 -245.1 -151.7 -246.2 -151.75 -246.25 -151.75 -246.35 -151.75 -246.85 -151.8 -246.9 -151.8 -247.0 -151.8 -248.55 -152.0 -249.05 -152.15 -251.3 -153.0 -251.35 -153.0 -255.95 -155.55 -257.2 -156.35 -257.4 -156.5 Q-262.05 -156.35 -264.05 -158.35 -265.85 -160.15 -265.85 -164.3 -265.85 -166.85 -264.6 -169.0 -263.0 -171.4 -262.2 -173.15 -262.9 -176.2 -261.25 -179.15 -259.6 -182.2 -256.85 -182.25 -255.2 -182.25 -254.25 -183.35 L-252.2 -185.4 Q-250.15 -186.6 -247.95 -186.85 L-244.7 -186.65 Q-243.65 -186.25 -242.55 -186.2 L-239.7 -189.1 Q-237.15 -191.4 -230.45 -189.8 L-229.55 -189.55 Q-228.9 -188.15 -229.15 -186.2 -229.45 -183.8 -231.15 -182.6 L-230.8 -182.25 Q-230.05 -182.0 -229.4 -181.55 L-228.4 -182.0 Q-226.45 -183.25 -226.15 -185.15 L-226.4 -185.5 -226.15 -185.4 Q-226.05 -186.9 -227.0 -188.2 -224.85 -186.55 -223.45 -183.4" fill="#ffff00" fill-rule="evenodd" stroke="none"/>
    <path d="M-238.55 -145.15 L-238.0 -145.3 -237.95 -145.15 -238.55 -145.15" fill="#ff3300" fill-rule="evenodd" stroke="none"/>
    <path d="M-217.05 -149.45 L-213.4 -146.85 Q-211.55 -145.1 -211.55 -143.0 -211.55 -141.9 -212.55 -140.7 -213.6 -139.4 -214.95 -138.9 -210.8 -138.75 -210.8 -135.35 -210.8 -133.25 -216.8 -128.75 -223.0 -124.1 -226.65 -124.1 -228.8 -124.1 -230.15 -124.65 -231.4 -124.05 -231.6 -124.0 L-236.1 -123.6 -238.75 -123.65 Q-239.05 -123.7 -240.45 -124.45 L-240.8 -124.6 -247.85 -123.75 Q-251.95 -123.75 -253.8 -124.55 -256.45 -125.7 -257.75 -128.15 -263.6 -128.0 -264.0 -134.25 -264.8 -134.65 -265.45 -135.6 -266.45 -137.05 -266.45 -138.45 -266.45 -140.35 -263.45 -143.3 -260.7 -146.05 -258.55 -146.85 -257.05 -144.85 -253.4 -143.25 -247.15 -140.45 -238.35 -140.45 L-236.95 -140.45 Q-229.05 -140.65 -223.25 -143.25 -217.45 -145.85 -217.05 -149.45 M-233.7 -152.35 L-233.6 -152.45 -233.45 -152.6 -227.85 -152.2 -224.8 -151.75 -224.55 -150.7 Q-224.55 -148.45 -228.65 -146.8 -230.2 -146.2 -231.95 -145.8 L-232.1 -145.75 Q-233.8 -148.05 -233.6 -150.4 L-233.7 -152.35 M-244.65 -151.7 L-244.65 -151.4 Q-244.45 -147.85 -246.2 -146.05 L-248.45 -146.8 Q-252.3 -148.35 -252.5 -150.45 L-251.1 -151.55 Q-250.35 -152.1 -249.05 -152.15 L-248.55 -152.0 -247.0 -151.8 -246.9 -151.8 -246.85 -151.8 -246.35 -151.75 -246.25 -151.75 -246.2 -151.75 -245.1 -151.7 -244.65 -151.7 M-219.2 -140.3 Q-219.2 -141.2 -220.1 -141.2 L-222.3 -139.2 -220.15 -139.2 Q-219.2 -139.3 -219.2 -140.3 M-241.55 -130.05 Q-238.3 -129.35 -237.6 -131.1 L-240.0 -131.55 Q-242.45 -131.55 -242.45 -130.8 -242.45 -130.2 -241.7 -130.05 L-241.65 -130.05 -241.55 -130.05 M-227.75 -135.75 Q-227.95 -136.95 -229.1 -136.95 -230.3 -137.0 -233.35 -135.0 L-229.35 -134.75 Q-227.6 -134.6 -227.75 -135.75 M-257.9 -139.05 L-259.55 -139.05 -260.0 -138.3 Q-260.0 -137.7 -258.85 -137.15 L-257.5 -136.7 Q-257.9 -137.85 -257.9 -139.05" fill="#484848" fill-rule="evenodd" stroke="none"/>
    <path d="M-227.7 -154.2 L-225.8 -153.95 Q-224.1 -153.95 -221.35 -155.85 -217.0 -153.35 -217.0 -150.05 L-217.05 -149.45 Q-217.45 -145.85 -223.25 -143.25 -229.05 -140.65 -236.95 -140.45 L-238.35 -140.45 Q-247.15 -140.45 -253.4 -143.25 -257.05 -144.85 -258.55 -146.85 -259.75 -148.35 -259.75 -150.05 -259.75 -153.1 -255.95 -155.55 L-251.35 -153.0 Q-252.55 -151.9 -252.55 -150.7 L-252.5 -150.45 Q-252.3 -148.35 -248.45 -146.8 L-246.2 -146.05 Q-242.85 -145.15 -238.55 -145.15 L-237.95 -145.15 -232.1 -145.75 -231.95 -145.8 Q-230.2 -146.2 -228.65 -146.8 -224.55 -148.45 -224.55 -150.7 L-224.8 -151.75 Q-225.45 -153.1 -227.7 -154.2" fill="#fd9124" fill-rule="evenodd" stroke="none"/>
    <path d="M-223.45 -183.4 Q-222.85 -182.05 -222.4 -180.3 L-221.9 -177.95 -218.6 -177.35 Q-215.95 -176.4 -214.7 -174.9 L-211.45 -171.5 Q-209.9 -169.75 -209.7 -167.05 -209.55 -164.35 -210.95 -163.2 -212.35 -162.05 -216.2 -160.2 -219.1 -157.4 -221.35 -155.85 -224.1 -153.95 -225.8 -153.95 L-227.7 -154.2 -228.35 -154.35 -228.65 -154.4 -229.3 -154.6 -230.9 -155.1 -230.3 -155.4 Q-228.35 -156.65 -228.05 -159.2 -227.85 -161.15 -228.45 -162.5 L-227.65 -162.85 -227.05 -163.15 Q-225.05 -164.4 -224.8 -166.35 -224.65 -167.75 -225.4 -168.95 -224.15 -169.15 -223.1 -169.8 -221.1 -171.05 -220.85 -173.0 -220.6 -175.05 -222.3 -176.7 L-223.65 -177.75 -224.8 -178.3 -224.2 -177.3 Q-223.6 -175.9 -223.8 -174.0 -224.15 -171.4 -226.1 -170.2 L-226.3 -170.05 Q-227.35 -171.15 -228.8 -171.65 L-229.8 -171.3 Q-229.45 -170.45 -229.55 -169.45 L-229.55 -169.3 Q-229.85 -167.4 -231.8 -166.2 -233.25 -165.35 -235.05 -165.3 L-235.5 -166.2 -234.8 -166.6 Q-232.85 -167.85 -232.5 -170.4 -232.35 -171.75 -232.65 -172.8 L-230.9 -173.0 Q-229.95 -173.25 -229.1 -173.75 -227.5 -174.7 -227.0 -176.15 L-226.85 -176.95 -226.85 -178.0 Q-225.65 -179.2 -225.4 -181.15 -225.15 -183.55 -226.15 -185.15 L-226.15 -185.25 -226.15 -185.4 Q-224.85 -184.85 -223.9 -183.85 L-223.45 -183.4 M-229.55 -189.55 Q-228.2 -189.1 -227.0 -188.2 -226.05 -186.9 -226.15 -185.4 L-226.4 -185.5 -226.15 -185.15 Q-226.45 -183.25 -228.4 -182.0 L-229.4 -181.55 Q-230.05 -182.0 -230.8 -182.25 L-231.15 -182.6 Q-229.45 -183.8 -229.15 -186.2 -228.9 -188.15 -229.55 -189.55 M-235.05 -165.3 Q-234.8 -164.45 -234.9 -163.55 -235.15 -161.55 -237.15 -160.35 -238.45 -159.55 -239.95 -159.45 L-239.7 -159.2 Q-238.05 -157.55 -238.25 -155.55 L-238.25 -155.5 -238.65 -154.25 Q-239.2 -153.1 -240.5 -152.3 -241.0 -152.0 -241.55 -151.8 L-242.35 -152.1 -242.4 -152.15 -242.4 -152.0 -243.45 -151.85 -243.5 -152.7 Q-241.55 -153.9 -241.25 -156.5 -241.05 -158.2 -241.55 -159.5 L-239.95 -159.45 -241.0 -160.2 -240.15 -160.7 Q-238.15 -161.95 -237.85 -164.5 L-237.8 -165.7 -236.3 -165.35 -235.05 -165.3" fill="#ffcc00" fill-rule="evenodd" stroke="none"/>
    <path d="M-238.65 -151.35 L-237.15 -151.3 Q-235.05 -151.2 -233.7 -152.35 L-233.6 -150.4 Q-233.8 -148.05 -232.1 -145.75 L-237.95 -145.15 -238.0 -145.3 -238.25 -146.45 -238.25 -146.5 -238.65 -150.7 -238.65 -151.35" fill="#ec3102" fill-rule="evenodd" stroke="none"/>
    <path d="M-241.55 -151.8 L-238.65 -151.35 -238.65 -150.7 -238.25 -146.5 -238.25 -146.45 -238.0 -145.3 -238.55 -145.15 Q-242.85 -145.15 -246.2 -146.05 -244.45 -147.85 -244.65 -151.4 L-244.65 -151.7 -243.45 -151.85 -242.4 -152.0 -242.35 -152.1 -241.55 -151.8" fill="#fd481c" fill-rule="evenodd" stroke="none"/>
  </g>
</svg>
