<?xml version="1.0" encoding="UTF-8" standalone="no"?>
<svg xmlns:ffdec="https://www.free-decompiler.com/flash" xmlns:xlink="http://www.w3.org/1999/xlink" ffdec:objectType="shape" height="71.7px" width="58.3px" xmlns="http://www.w3.org/2000/svg">
  <g transform="matrix(1.0, 0.0, 0.0, 1.0, 268.0, 193.9)">
    <path d="M-213.95 -176.7 Q-210.05 -173.85 -210.05 -168.95 -210.05 -166.35 -213.0 -163.95 -216.25 -161.65 -216.95 -160.7 -218.55 -158.45 -219.9 -157.3 L-218.3 -156.05 Q-216.35 -154.25 -216.35 -153.15 -216.35 -151.0 -216.65 -149.6 -215.4 -149.5 -212.95 -147.6 -210.35 -145.6 -210.35 -144.7 -210.35 -143.7 -212.65 -142.0 -214.95 -140.3 -214.95 -139.5 -214.95 -139.0 -212.8 -137.6 -210.65 -136.2 -210.65 -135.3 -210.65 -132.8 -213.2 -129.7 -215.8 -126.5 -218.45 -126.05 -223.45 -125.2 -225.9 -123.6 -227.55 -122.55 -232.25 -122.55 -234.9 -122.55 -239.1 -123.7 L-244.15 -124.85 -252.45 -123.6 -252.65 -123.6 Q-258.6 -123.7 -263.4 -129.9 -264.25 -131.05 -264.35 -132.45 L-264.35 -134.75 Q-264.4 -136.05 -266.05 -137.05 -267.65 -138.05 -267.65 -139.35 -267.65 -142.35 -264.25 -145.05 -260.5 -147.5 -258.8 -149.05 -260.6 -150.65 -260.6 -152.25 -260.6 -153.75 -259.9 -154.85 L-258.15 -157.1 Q-262.35 -157.45 -264.4 -159.05 -267.0 -161.05 -267.0 -165.9 -267.0 -169.1 -262.5 -174.7 -262.3 -180.05 -260.7 -182.25 -259.25 -184.35 -255.35 -185.3 -254.5 -187.9 -244.8 -188.6 -242.0 -190.2 -238.9 -192.25 -236.75 -193.55 -235.0 -193.55 -230.0 -193.55 -227.4 -191.65 -224.05 -189.15 -222.45 -182.3 -222.05 -180.8 -213.95 -176.7 M-227.05 -155.9 L-232.3 -156.5 -232.55 -156.45 -232.4 -154.15 Q-224.5 -153.0 -222.9 -151.95 -222.75 -152.3 -222.75 -152.75 -222.75 -153.6 -224.25 -155.2 L-224.95 -155.9 -227.05 -155.9 M-240.25 -130.45 Q-238.35 -130.8 -238.35 -131.3 -238.35 -132.05 -240.15 -132.05 L-243.05 -131.25 Q-243.15 -130.8 -242.45 -130.2 L-240.25 -130.45 M-221.3 -139.65 Q-220.75 -139.7 -219.65 -140.45 -218.6 -141.2 -218.6 -141.5 -218.6 -142.55 -219.75 -142.55 L-222.6 -141.2 -221.95 -140.2 -221.3 -139.65 M-248.3 -154.2 L-248.5 -154.3 -250.6 -155.4 Q-252.0 -153.85 -252.0 -153.45 L-252.0 -153.2 Q-249.05 -154.35 -248.3 -154.2 M-256.4 -138.6 Q-256.4 -140.0 -257.3 -140.0 L-259.3 -139.2 -261.3 -138.0 -259.75 -137.15 -258.2 -136.75 -257.55 -136.75 Q-256.4 -137.05 -256.4 -138.6" fill="#000000" fill-rule="evenodd" stroke="none"/>
    <path d="M-213.95 -176.7 Q-210.05 -173.85 -210.05 -168.95 -210.05 -166.35 -213.0 -163.95 -216.25 -161.65 -216.95 -160.7 -218.55 -158.45 -219.9 -157.3 L-218.3 -156.05 Q-216.35 -154.25 -216.35 -153.15 -216.35 -151.0 -216.65 -149.6 -215.4 -149.5 -212.95 -147.6 -210.35 -145.6 -210.35 -144.7 -210.35 -143.7 -212.65 -142.0 -214.95 -140.3 -214.95 -139.5 -214.95 -139.0 -212.8 -137.6 -210.65 -136.2 -210.65 -135.3 -210.65 -132.8 -213.2 -129.7 -215.8 -126.5 -218.45 -126.05 -223.45 -125.2 -225.9 -123.6 -227.55 -122.55 -232.25 -122.55 -234.9 -122.55 -239.1 -123.7 L-244.15 -124.85 -252.45 -123.6 -252.65 -123.6 Q-258.6 -123.7 -263.4 -129.9 -264.25 -131.05 -264.35 -132.45 L-264.35 -134.75 Q-264.4 -136.05 -266.05 -137.05 -267.65 -138.05 -267.65 -139.35 -267.65 -142.35 -264.25 -145.05 -260.5 -147.5 -258.8 -149.05 -260.6 -150.65 -260.6 -152.25 -260.6 -153.75 -259.9 -154.85 L-258.15 -157.1 Q-262.35 -157.45 -264.4 -159.05 -267.0 -161.05 -267.0 -165.9 -267.0 -169.1 -262.5 -174.7 -262.3 -180.05 -260.7 -182.25 -259.25 -184.35 -255.35 -185.3 -254.5 -187.9 -244.8 -188.6 -242.0 -190.2 -238.9 -192.25 -236.75 -193.55 -235.0 -193.55 -230.0 -193.55 -227.4 -191.65 -224.05 -189.15 -222.45 -182.3 -222.05 -180.8 -213.95 -176.7 M-227.05 -155.9 L-232.3 -156.5 -232.55 -156.45 -232.4 -154.15 Q-224.5 -153.0 -222.9 -151.95 -222.75 -152.3 -222.75 -152.75 -222.75 -153.6 -224.25 -155.2 L-224.95 -155.9 -227.05 -155.9 M-221.3 -139.65 L-221.95 -140.2 -222.6 -141.2 -219.75 -142.55 Q-218.6 -142.55 -218.6 -141.5 -218.6 -141.2 -219.65 -140.45 -220.75 -139.7 -221.3 -139.65 M-240.25 -130.45 L-242.45 -130.2 Q-243.15 -130.8 -243.05 -131.25 L-240.15 -132.05 Q-238.35 -132.05 -238.35 -131.3 -238.35 -130.8 -240.25 -130.45 M-248.3 -154.2 L-248.5 -154.3 -250.6 -155.4 Q-252.0 -153.85 -252.0 -153.45 L-252.0 -153.2 Q-249.05 -154.35 -248.3 -154.2 M-256.4 -138.6 Q-256.4 -137.05 -257.55 -136.75 L-258.2 -136.75 -259.75 -137.15 -261.3 -138.0 -259.3 -139.2 -257.3 -140.0 Q-256.4 -140.0 -256.4 -138.6 Z" fill="none" stroke="#333333" stroke-linecap="round" stroke-linejoin="round" stroke-width="0.7000000000000001"/>
    <path d="M-222.7 -179.5 L-223.3 -180.6 -222.15 -180.0 -222.7 -179.5 M-258.15 -157.1 Q-262.35 -157.45 -264.4 -159.05 -267.0 -161.05 -267.0 -165.9 -267.0 -169.1 -262.5 -174.7 -262.3 -180.05 -260.7 -182.25 -259.25 -184.35 -255.35 -185.3 -254.5 -187.9 -244.8 -188.6 -242.0 -190.2 -238.9 -192.25 -236.75 -193.55 -235.0 -193.55 -230.45 -193.55 -227.85 -191.95 -227.45 -190.65 -227.65 -188.95 -227.95 -186.4 -229.7 -185.1 L-229.35 -184.75 -227.9 -184.05 -228.75 -183.75 Q-228.15 -182.25 -228.35 -180.2 -228.45 -179.3 -228.7 -178.55 L-228.75 -178.45 Q-229.35 -177.0 -230.65 -176.15 L-230.7 -176.1 -229.5 -175.05 -229.45 -174.95 Q-228.65 -174.1 -228.3 -173.15 L-227.3 -173.5 Q-225.85 -172.95 -224.8 -171.85 -225.65 -171.3 -226.3 -171.05 -227.1 -170.85 -227.65 -171.05 L-228.05 -171.05 Q-228.35 -169.05 -230.35 -167.75 -231.8 -166.8 -233.6 -166.75 -233.35 -165.9 -233.45 -164.9 -233.7 -162.8 -235.7 -161.5 -237.0 -160.7 -238.55 -160.55 L-238.3 -160.3 Q-236.65 -158.55 -236.85 -156.4 -237.05 -154.8 -238.3 -153.65 L-239.1 -153.3 -242.35 -152.75 -243.25 -152.75 -245.65 -153.15 Q-247.05 -153.5 -248.3 -154.2 L-248.5 -154.3 -250.6 -155.4 Q-253.1 -156.55 -255.15 -157.05 L-258.15 -157.1 M-224.65 -188.35 L-224.45 -188.0 -224.65 -188.1 -224.65 -187.95 -224.65 -187.85 -224.9 -188.2 -224.65 -188.1 -224.65 -188.35 M-229.05 -156.15 L-228.85 -156.3 Q-226.85 -157.6 -226.55 -160.35 -226.35 -162.35 -226.95 -163.8 L-230.1 -163.6 -231.65 -163.95 Q-230.6 -163.65 -228.6 -164.9 L-228.0 -165.35 -227.55 -164.9 -226.15 -164.2 -225.0 -163.2 Q-223.3 -161.45 -223.55 -159.3 -223.8 -157.2 -225.8 -155.9 L-227.05 -155.9 -229.05 -156.15" fill="#ffff00" fill-rule="evenodd" stroke="none"/>
    <path d="M-219.9 -157.3 L-218.3 -156.05 Q-216.35 -154.25 -216.35 -153.15 -216.35 -151.0 -216.65 -149.6 -216.95 -148.35 -217.45 -147.7 -218.6 -146.3 -223.55 -144.35 L-232.7 -143.35 -242.2 -142.85 Q-248.45 -142.85 -252.3 -145.05 -256.9 -147.6 -258.05 -148.45 L-258.8 -149.05 Q-260.6 -150.65 -260.6 -152.25 -260.6 -153.75 -259.9 -154.85 L-258.15 -157.1 -255.15 -157.05 Q-253.1 -156.55 -250.6 -155.4 -252.0 -153.85 -252.0 -153.45 L-252.0 -153.2 Q-251.8 -150.0 -245.55 -148.7 L-238.15 -147.85 -234.35 -147.8 -232.1 -148.15 -230.95 -148.65 Q-228.85 -149.65 -227.3 -149.85 -223.55 -150.2 -222.9 -151.95 -222.75 -152.3 -222.75 -152.75 -222.75 -153.6 -224.25 -155.2 L-224.95 -155.9 -221.45 -156.35 Q-220.7 -156.65 -219.9 -157.3" fill="#fd9124" fill-rule="evenodd" stroke="none"/>
    <path d="M-216.65 -149.6 Q-215.4 -149.5 -212.95 -147.6 -210.35 -145.6 -210.35 -144.7 -210.35 -143.7 -212.65 -142.0 -214.95 -140.3 -214.95 -139.5 -214.95 -139.0 -212.8 -137.6 -210.65 -136.2 -210.65 -135.3 -210.65 -132.8 -213.2 -129.7 -215.8 -126.5 -218.45 -126.05 -223.45 -125.2 -225.9 -123.6 -227.55 -122.55 -232.25 -122.55 -234.9 -122.55 -239.1 -123.7 L-244.15 -124.85 -252.45 -123.6 -252.65 -123.6 Q-258.6 -123.7 -263.4 -129.9 -264.25 -131.05 -264.35 -132.45 L-264.35 -134.75 Q-264.4 -136.05 -266.05 -137.05 -267.65 -138.05 -267.65 -139.35 -267.65 -142.35 -264.25 -145.05 -260.5 -147.5 -258.8 -149.05 L-258.05 -148.45 Q-256.9 -147.6 -252.3 -145.05 -248.45 -142.85 -242.2 -142.85 L-232.7 -143.35 -223.55 -144.35 Q-218.6 -146.3 -217.45 -147.7 -216.95 -148.35 -216.65 -149.6 M-245.65 -153.15 L-245.65 -152.45 -245.55 -148.7 Q-251.8 -150.0 -252.0 -153.2 -249.05 -154.35 -248.3 -154.2 -247.05 -153.5 -245.65 -153.15 M-222.9 -151.95 Q-223.55 -150.2 -227.3 -149.85 -228.85 -149.65 -230.95 -148.65 L-232.1 -148.15 Q-232.45 -150.0 -232.4 -152.65 L-232.4 -154.15 Q-224.5 -153.0 -222.9 -151.95 M-218.6 -141.5 Q-218.6 -142.55 -219.75 -142.55 L-222.6 -141.2 -221.95 -140.2 -221.3 -139.65 Q-220.75 -139.7 -219.65 -140.45 -218.6 -141.2 -218.6 -141.5 M-240.25 -130.45 Q-238.35 -130.8 -238.35 -131.3 -238.35 -132.05 -240.15 -132.05 L-243.05 -131.25 Q-243.15 -130.8 -242.45 -130.2 L-240.25 -130.45 M-256.4 -138.6 Q-256.4 -140.0 -257.3 -140.0 L-259.3 -139.2 -261.3 -138.0 -259.75 -137.15 -258.2 -136.75 -257.55 -136.75 Q-256.4 -137.05 -256.4 -138.6" fill="#484848" fill-rule="evenodd" stroke="none"/>
    <path d="M-222.7 -179.5 L-222.15 -180.0 -223.3 -180.6 -222.7 -179.5 M-224.45 -188.0 Q-223.55 -186.3 -222.85 -183.95 L-222.45 -182.3 Q-222.3 -181.8 -221.35 -181.05 -219.45 -179.45 -213.95 -176.7 -210.05 -173.85 -210.05 -168.95 -210.05 -166.35 -213.0 -163.95 -216.25 -161.65 -216.95 -160.7 -218.55 -158.45 -219.9 -157.3 -220.7 -156.65 -221.45 -156.35 L-224.95 -155.9 -225.8 -155.9 Q-223.8 -157.2 -223.55 -159.3 -223.3 -161.45 -225.0 -163.2 L-226.15 -164.2 -227.55 -164.9 -228.0 -165.35 -228.6 -164.9 Q-230.6 -163.65 -231.65 -163.95 L-230.1 -163.6 -226.95 -163.8 Q-226.35 -162.35 -226.55 -160.35 -226.85 -157.6 -228.85 -156.3 L-229.05 -156.15 -232.3 -156.5 -232.55 -156.45 Q-233.9 -156.35 -236.55 -154.6 L-238.3 -153.65 Q-237.05 -154.8 -236.85 -156.4 -236.65 -158.55 -238.3 -160.3 L-238.55 -160.55 Q-237.0 -160.7 -235.7 -161.5 -233.7 -162.8 -233.45 -164.9 -233.35 -165.9 -233.6 -166.75 -231.8 -166.8 -230.35 -167.75 -228.35 -169.05 -228.05 -171.05 L-227.65 -171.05 Q-227.1 -170.85 -226.3 -171.05 -225.65 -171.3 -224.8 -171.85 -225.85 -172.95 -227.3 -173.5 L-228.3 -173.15 Q-228.65 -174.1 -229.45 -174.95 L-229.5 -175.05 -230.7 -176.1 -230.65 -176.15 Q-229.35 -177.0 -228.75 -178.45 L-228.7 -178.55 Q-228.45 -179.3 -228.35 -180.2 -228.15 -182.25 -228.75 -183.75 L-227.9 -184.05 -229.35 -184.75 -229.7 -185.1 Q-227.95 -186.4 -227.65 -188.95 -227.45 -190.65 -227.85 -191.95 L-227.4 -191.65 Q-225.85 -190.5 -224.65 -188.35 L-224.65 -188.1 -224.9 -188.2 -224.65 -187.85 -224.65 -187.95 -224.65 -188.1 -224.45 -188.0" fill="#ffcc00" fill-rule="evenodd" stroke="none"/>
    <path d="M-239.1 -153.3 L-238.3 -153.65 -236.55 -154.6 Q-233.9 -156.35 -232.55 -156.45 L-232.45 -155.35 -232.4 -154.15 -232.4 -152.65 Q-232.45 -150.0 -232.1 -148.15 L-234.35 -147.8 -238.15 -147.85 -238.85 -151.05 -238.85 -151.1 -239.1 -153.3" fill="#ec3102" fill-rule="evenodd" stroke="none"/>
    <path d="M-245.65 -153.15 L-243.25 -152.75 -242.35 -152.75 -239.1 -153.3 -238.85 -151.1 -238.85 -151.05 -238.15 -147.85 -245.55 -148.7 -245.65 -152.45 -245.65 -153.15" fill="#fd481c" fill-rule="evenodd" stroke="none"/>
  </g>
</svg>
