<?xml version="1.0" encoding="UTF-8" standalone="no"?>
<svg xmlns:ffdec="https://www.free-decompiler.com/flash" xmlns:xlink="http://www.w3.org/1999/xlink" ffdec:objectType="shape" height="72.65px" width="59.2px" xmlns="http://www.w3.org/2000/svg">
  <g transform="matrix(1.0, 0.0, 0.0, 1.0, 269.05, 194.55)">
    <path d="M-220.8 -149.5 Q-220.1 -149.35 -219.8 -149.05 -219.0 -148.05 -217.7 -147.45 L-215.5 -147.05 Q-213.9 -146.7 -213.9 -145.55 -213.9 -144.35 -215.45 -144.35 L-218.4 -144.65 -219.95 -143.9 Q-219.95 -143.15 -215.05 -140.25 -210.2 -137.4 -210.2 -134.85 -210.2 -133.95 -212.0 -133.1 L-212.0 -130.05 Q-211.8 -129.2 -212.8 -128.55 -213.35 -128.15 -214.5 -127.55 -215.9 -126.45 -220.1 -125.15 -221.55 -123.45 -223.2 -123.15 L-227.6 -123.15 Q-229.35 -122.25 -235.1 -122.25 L-241.85 -122.7 -244.9 -123.15 -246.95 -123.6 Q-249.05 -122.85 -250.4 -122.85 -258.95 -122.85 -262.35 -126.95 L-266.75 -131.2 Q-268.7 -133.05 -268.7 -135.6 -268.7 -137.65 -264.35 -143.3 -263.65 -144.2 -260.6 -145.2 L-257.2 -148.15 Q-256.75 -147.85 -255.85 -147.85 L-257.4 -148.3 -257.8 -148.75 -258.5 -150.8 Q-258.9 -151.65 -259.85 -152.55 -260.6 -153.25 -260.6 -153.95 -260.6 -154.55 -259.25 -155.95 L-257.75 -157.5 -257.75 -160.15 Q-257.6 -161.3 -256.75 -161.75 -257.15 -162.5 -257.7 -162.8 L-260.85 -162.95 -263.45 -162.8 Q-265.7 -164.05 -265.7 -167.2 -265.7 -169.8 -265.25 -170.5 L-262.65 -173.3 Q-262.05 -171.05 -259.6 -171.05 -258.4 -171.05 -257.95 -171.55 -257.45 -172.05 -258.05 -173.1 L-258.05 -173.15 Q-261.9 -174.85 -261.9 -177.95 -261.9 -180.8 -261.0 -182.35 -260.5 -183.25 -258.45 -185.2 L-258.35 -185.15 Q-258.95 -183.7 -258.95 -182.45 -258.95 -180.65 -257.8 -178.85 -256.4 -176.7 -254.3 -176.7 -252.75 -176.7 -252.75 -177.95 -252.75 -178.3 -254.35 -179.7 -255.95 -181.15 -255.95 -182.85 -255.95 -183.95 -254.3 -185.9 L-252.95 -185.9 -252.95 -184.5 Q-252.15 -183.65 -251.6 -183.65 -250.05 -183.65 -250.05 -185.2 -250.05 -186.3 -250.55 -186.8 L-252.3 -188.15 -254.75 -188.2 -253.0 -190.0 Q-251.75 -191.15 -250.6 -191.15 -248.3 -191.15 -246.5 -188.6 L-246.5 -189.3 Q-245.5 -191.55 -243.1 -192.05 L-242.5 -191.9 Q-241.7 -191.7 -241.4 -190.95 L-240.6 -189.9 Q-242.4 -189.75 -242.4 -188.5 -242.4 -186.85 -240.35 -186.65 L-236.6 -186.45 Q-237.2 -186.5 -237.8 -187.85 -238.4 -189.15 -238.4 -190.2 -238.4 -194.55 -233.95 -194.15 -229.55 -193.75 -227.35 -192.1 -225.15 -190.5 -225.15 -189.45 -225.15 -188.45 -226.7 -186.9 -226.1 -186.65 -224.3 -184.5 -222.55 -182.4 -221.55 -182.45 -220.6 -182.5 -220.4 -186.7 L-218.2 -184.0 Q-217.5 -182.9 -218.15 -181.6 -218.8 -180.3 -220.5 -179.9 L-224.0 -179.95 Q-225.6 -180.0 -225.6 -178.8 -225.6 -176.3 -222.95 -176.3 -220.1 -176.3 -220.65 -179.0 -218.15 -178.0 -215.9 -175.15 -213.65 -172.3 -213.4 -169.35 -213.15 -166.45 -215.75 -164.35 -218.4 -162.25 -221.0 -162.45 -221.4 -161.15 -222.1 -160.2 -217.85 -158.4 -218.3 -156.05 -218.55 -154.8 -216.85 -154.1 -215.1 -153.4 -215.1 -152.15 -215.1 -149.75 -218.3 -149.45 L-220.8 -149.5 -221.95 -149.6 -222.15 -149.5 -223.55 -149.55 -223.8 -149.55 -228.4 -149.0 Q-225.65 -148.3 -222.15 -149.5 L-220.8 -149.5 M-234.3 -151.05 Q-232.65 -152.55 -231.5 -152.55 L-225.05 -152.1 Q-222.05 -152.1 -222.05 -153.5 -222.05 -154.2 -224.75 -156.2 L-226.95 -157.7 -228.05 -157.65 -228.65 -157.65 -231.85 -157.75 Q-233.3 -158.15 -233.4 -159.9 L-235.95 -160.3 -235.95 -156.0 Q-235.8 -152.95 -234.3 -151.05 M-241.25 -130.0 Q-238.9 -129.3 -237.65 -129.3 L-234.3 -129.7 -230.7 -131.9 -230.85 -132.05 Q-232.05 -132.8 -233.05 -132.8 L-236.25 -132.2 Q-238.95 -133.1 -243.45 -133.1 L-245.0 -132.35 -244.55 -131.8 -243.65 -130.95 -243.45 -130.85 Q-242.6 -130.4 -241.25 -130.0 M-229.65 -142.4 L-227.95 -140.5 Q-227.3 -139.7 -227.3 -138.2 -227.3 -137.3 -228.5 -134.75 -228.65 -134.3 -227.95 -134.2 L-226.25 -134.0 Q-225.05 -134.0 -223.95 -134.75 -222.75 -135.6 -222.75 -136.55 -222.75 -139.2 -228.95 -142.7 L-229.65 -142.7 -229.65 -142.4 M-246.55 -161.2 L-247.5 -158.0 Q-247.75 -157.3 -250.2 -157.25 -252.45 -157.2 -252.45 -155.3 L-253.6 -155.45 -253.75 -155.5 Q-254.2 -155.15 -255.15 -154.75 -256.25 -154.35 -256.25 -153.95 -256.25 -153.05 -254.25 -153.05 L-250.4 -153.35 Q-247.5 -153.35 -246.55 -151.85 -244.85 -155.75 -244.85 -157.8 L-245.3 -161.5 -245.2 -162.4 Q-246.15 -162.05 -246.55 -161.2 M-250.85 -145.55 Q-250.85 -146.4 -252.65 -146.4 L-255.75 -145.55 Q-258.0 -144.65 -258.8 -143.75 L-261.0 -141.55 Q-262.05 -140.4 -262.05 -138.95 -262.05 -138.3 -260.75 -136.6 L-258.95 -134.3 Q-258.15 -133.0 -254.85 -132.85 L-251.45 -132.9 -251.4 -132.9 -251.4 -132.95 Q-251.25 -134.1 -251.75 -134.6 L-253.5 -135.65 Q-257.45 -138.3 -257.45 -139.65 -257.45 -140.7 -254.15 -142.9 -250.85 -145.05 -250.85 -145.55" fill="#000000" fill-rule="evenodd" stroke="none"/>
    <path d="M-220.8 -149.5 L-218.3 -149.45 Q-215.1 -149.75 -215.1 -152.15 -215.1 -153.4 -216.85 -154.1 -218.55 -154.8 -218.3 -156.05 -217.85 -158.4 -222.1 -160.2 -221.4 -161.15 -221.0 -162.45 -218.4 -162.25 -215.75 -164.35 -213.15 -166.45 -213.4 -169.35 -213.65 -172.3 -215.9 -175.15 -218.15 -178.0 -220.65 -179.0 -220.1 -176.3 -222.95 -176.3 -225.6 -176.3 -225.6 -178.8 -225.6 -180.0 -224.0 -179.95 L-220.5 -179.9 Q-218.8 -180.3 -218.15 -181.6 -217.5 -182.9 -218.2 -184.0 L-220.4 -186.7 Q-220.6 -182.5 -221.55 -182.45 -222.55 -182.4 -224.3 -184.5 -226.1 -186.65 -226.7 -186.9 -225.15 -188.45 -225.15 -189.45 -225.15 -190.5 -227.35 -192.1 -229.55 -193.75 -233.95 -194.15 -238.4 -194.55 -238.4 -190.2 -238.4 -189.15 -237.8 -187.85 -237.2 -186.5 -236.6 -186.45 L-240.35 -186.65 Q-242.4 -186.85 -242.4 -188.5 -242.4 -189.75 -240.6 -189.9 L-241.4 -190.95 Q-241.7 -191.7 -242.5 -191.9 L-243.1 -192.05 Q-245.5 -191.55 -246.5 -189.3 L-246.5 -188.6 Q-248.3 -191.15 -250.6 -191.15 -251.75 -191.15 -253.0 -190.0 L-254.75 -188.2 -252.3 -188.15 -250.55 -186.8 Q-250.05 -186.3 -250.05 -185.2 -250.05 -183.65 -251.6 -183.65 -252.15 -183.65 -252.95 -184.5 L-252.95 -185.9 -254.3 -185.9 Q-255.95 -183.95 -255.95 -182.85 -255.95 -181.15 -254.35 -179.7 -252.75 -178.3 -252.75 -177.95 -252.75 -176.7 -254.3 -176.7 -256.4 -176.7 -257.8 -178.85 -258.95 -180.65 -258.95 -182.45 -258.95 -183.7 -258.35 -185.15 L-258.45 -185.2 Q-260.5 -183.25 -261.0 -182.35 -261.9 -180.8 -261.9 -177.95 -261.9 -174.85 -258.05 -173.15 L-258.05 -173.1 Q-257.45 -172.05 -257.95 -171.55 -258.4 -171.05 -259.6 -171.05 -262.05 -171.05 -262.65 -173.3 L-265.25 -170.5 Q-265.7 -169.8 -265.7 -167.2 -265.7 -164.05 -263.45 -162.8 L-260.85 -162.95 -257.7 -162.8 Q-257.15 -162.5 -256.75 -161.75 -257.6 -161.3 -257.75 -160.15 L-257.75 -157.5 -259.25 -155.95 Q-260.6 -154.55 -260.6 -153.95 -260.6 -153.25 -259.85 -152.55 -258.9 -151.65 -258.5 -150.8 L-257.8 -148.75 -257.4 -148.3 -255.85 -147.85 Q-256.75 -147.85 -257.2 -148.15 L-260.6 -145.2 Q-263.65 -144.2 -264.35 -143.3 -268.7 -137.65 -268.7 -135.6 -268.7 -133.05 -266.75 -131.2 L-262.35 -126.95 Q-258.95 -122.85 -250.4 -122.85 -249.05 -122.85 -246.95 -123.6 L-244.9 -123.15 -241.85 -122.7 -235.1 -122.25 Q-229.35 -122.25 -227.6 -123.15 L-223.2 -123.15 Q-221.55 -123.45 -220.1 -125.15 -215.9 -126.45 -214.5 -127.55 -213.35 -128.15 -212.8 -128.55 -211.8 -129.2 -212.0 -130.05 L-212.0 -133.1 Q-210.2 -133.95 -210.2 -134.85 -210.2 -137.4 -215.05 -140.25 -219.95 -143.15 -219.95 -143.9 L-218.4 -144.65 -215.45 -144.35 Q-213.9 -144.35 -213.9 -145.55 -213.9 -146.7 -215.5 -147.05 L-217.7 -147.45 Q-219.0 -148.05 -219.8 -149.05 -220.1 -149.35 -220.8 -149.5 M-234.3 -151.05 Q-232.65 -152.55 -231.5 -152.55 L-225.05 -152.1 Q-222.05 -152.1 -222.05 -153.5 -222.05 -154.2 -224.75 -156.2 L-226.95 -157.7 -228.05 -157.65 -228.65 -157.65 -231.85 -157.75 Q-233.3 -158.15 -233.4 -159.9 L-235.95 -160.3 -235.95 -156.0 Q-235.8 -152.95 -234.3 -151.05 M-229.65 -142.4 L-229.65 -142.7 -228.95 -142.7 Q-222.75 -139.2 -222.75 -136.55 -222.75 -135.6 -223.95 -134.75 -225.05 -134.0 -226.25 -134.0 L-227.95 -134.2 Q-228.65 -134.3 -228.5 -134.75 -227.3 -137.3 -227.3 -138.2 -227.3 -139.7 -227.95 -140.5 L-229.65 -142.4 M-241.25 -130.0 Q-242.6 -130.4 -243.45 -130.85 L-243.65 -130.95 -244.55 -131.8 -245.0 -132.35 -243.45 -133.1 Q-238.95 -133.1 -236.25 -132.2 L-233.05 -132.8 Q-232.05 -132.8 -230.85 -132.05 L-230.7 -131.9 -234.3 -129.7 -237.65 -129.3 Q-238.9 -129.3 -241.25 -130.0 M-246.55 -161.2 L-247.5 -158.0 Q-247.75 -157.3 -250.2 -157.25 -252.45 -157.2 -252.45 -155.3 L-253.6 -155.45 -253.75 -155.5 Q-254.2 -155.15 -255.15 -154.75 -256.25 -154.35 -256.25 -153.95 -256.25 -153.05 -254.25 -153.05 L-250.4 -153.35 Q-247.5 -153.35 -246.55 -151.85 -244.85 -155.75 -244.85 -157.8 L-245.3 -161.5 -245.2 -162.4 Q-246.15 -162.05 -246.55 -161.2 M-250.85 -145.55 Q-250.85 -145.05 -254.15 -142.9 -257.45 -140.7 -257.45 -139.65 -257.45 -138.3 -253.5 -135.65 L-251.75 -134.6 Q-251.25 -134.1 -251.4 -132.95 L-251.4 -132.9 -251.45 -132.9 -254.85 -132.85 Q-258.15 -133.0 -258.95 -134.3 L-260.75 -136.6 Q-262.05 -138.3 -262.05 -138.95 -262.05 -140.4 -261.0 -141.55 L-258.8 -143.75 Q-258.0 -144.65 -255.75 -145.55 L-252.65 -146.4 Q-250.85 -146.4 -250.85 -145.55 Z" fill="none" stroke="#333333" stroke-linecap="round" stroke-linejoin="round" stroke-width="0.7000000000000001"/>
    <path d="M-256.75 -161.75 Q-257.15 -162.5 -257.7 -162.8 L-260.85 -162.95 -263.45 -162.8 Q-265.7 -164.05 -265.7 -167.2 -265.7 -169.8 -265.25 -170.5 L-262.65 -173.3 Q-262.05 -171.05 -259.6 -171.05 -258.4 -171.05 -257.95 -171.55 -257.45 -172.05 -258.05 -173.1 L-258.05 -173.15 Q-261.9 -174.85 -261.9 -177.95 -261.9 -180.8 -261.0 -182.35 -260.5 -183.25 -258.45 -185.2 L-258.35 -185.15 Q-258.95 -183.7 -258.95 -182.45 -258.95 -180.65 -257.8 -178.85 -256.4 -176.7 -254.3 -176.7 -252.75 -176.7 -252.75 -177.95 -252.75 -178.3 -254.35 -179.7 -255.95 -181.15 -255.95 -182.85 -255.95 -183.95 -254.3 -185.9 L-252.95 -185.9 -252.95 -184.5 Q-252.15 -183.65 -251.6 -183.65 -250.05 -183.65 -250.05 -185.2 -250.05 -186.3 -250.55 -186.8 L-252.3 -188.15 -254.75 -188.2 -253.0 -190.0 Q-251.75 -191.15 -250.6 -191.15 -248.3 -191.15 -246.5 -188.6 L-246.5 -189.3 Q-245.5 -191.55 -243.1 -192.05 L-242.5 -191.9 Q-241.7 -191.7 -241.4 -190.95 L-240.6 -189.9 Q-242.4 -189.75 -242.4 -188.5 -242.4 -186.85 -240.35 -186.65 L-236.6 -186.45 Q-237.2 -186.5 -237.8 -187.85 -238.4 -189.15 -238.4 -190.2 -238.4 -194.55 -233.95 -194.15 -229.55 -193.75 -227.35 -192.1 L-225.85 -190.8 Q-225.15 -190.05 -225.15 -189.45 -225.15 -188.45 -226.7 -186.9 L-226.0 -186.35 -225.6 -185.95 -224.3 -184.5 -223.65 -183.8 -223.4 -183.5 Q-222.3 -182.4 -221.55 -182.45 L-221.5 -182.45 Q-221.4 -182.45 -221.25 -182.55 L-220.95 -183.0 -220.8 -183.45 Q-220.55 -184.5 -220.4 -186.7 L-219.0 -185.1 -218.2 -184.0 Q-217.5 -182.9 -218.1 -181.65 L-218.15 -181.6 Q-218.8 -180.35 -220.4 -179.9 L-220.5 -179.9 -224.0 -179.95 Q-225.6 -180.0 -225.6 -178.8 L-225.55 -178.1 Q-225.35 -177.2 -224.7 -176.75 L-223.95 -176.4 -222.95 -176.3 -222.4 -176.3 Q-220.15 -176.55 -220.65 -179.0 L-218.25 -177.55 Q-218.8 -177.05 -219.65 -176.6 -220.75 -176.1 -222.05 -175.9 -221.3 -174.9 -221.45 -173.75 -221.7 -172.1 -223.75 -171.1 L-224.4 -170.85 -223.2 -170.05 Q-221.5 -168.7 -221.7 -167.0 -221.95 -165.4 -224.05 -164.35 -226.05 -163.4 -228.7 -163.65 L-230.3 -163.95 Q-229.2 -163.7 -227.15 -164.7 -225.1 -165.7 -224.8 -167.85 -224.55 -169.4 -225.2 -170.55 L-228.4 -170.4 -230.05 -170.65 Q-228.95 -170.4 -226.9 -171.4 -224.85 -172.4 -224.5 -174.55 L-224.5 -175.95 -225.9 -176.2 -226.35 -176.2 Q-226.7 -174.65 -228.7 -173.65 -230.2 -172.9 -232.05 -172.85 -231.8 -172.2 -231.9 -171.4 -232.15 -169.8 -234.2 -168.75 -235.55 -168.1 -237.15 -168.0 L-236.9 -167.8 Q-235.15 -166.45 -235.4 -164.75 -235.65 -163.15 -237.7 -162.1 L-239.45 -161.5 -239.5 -161.55 -241.2 -162.25 -243.6 -162.65 -245.2 -162.4 Q-246.15 -162.05 -246.55 -161.2 L-247.5 -158.0 Q-247.75 -157.3 -250.2 -157.25 -252.45 -157.2 -252.45 -155.3 L-253.6 -155.45 -253.75 -155.5 Q-255.6 -156.15 -255.9 -158.45 -256.15 -160.6 -256.75 -161.75" fill="#ffff00" fill-rule="evenodd" stroke="none"/>
    <path d="M-245.2 -162.4 L-243.6 -162.65 -241.2 -162.25 -239.5 -161.55 -239.45 -161.5 Q-238.1 -160.75 -235.95 -160.3 L-235.95 -156.0 Q-235.8 -152.95 -234.3 -151.05 -236.0 -149.55 -236.75 -149.55 L-243.25 -149.15 Q-245.6 -149.15 -246.3 -151.25 L-246.55 -151.85 Q-244.85 -155.75 -244.85 -157.8 L-245.3 -161.5 -245.2 -162.4" fill="#ff6600" fill-rule="evenodd" stroke="none"/>
    <path d="M-256.75 -161.75 Q-256.15 -160.6 -255.9 -158.45 -255.6 -156.15 -253.75 -155.5 -254.2 -155.15 -255.15 -154.75 -256.25 -154.35 -256.25 -153.95 -256.25 -153.05 -254.25 -153.05 L-250.4 -153.35 Q-247.5 -153.35 -246.55 -151.85 L-246.3 -151.25 Q-245.6 -149.15 -243.25 -149.15 L-236.75 -149.55 Q-236.0 -149.55 -234.3 -151.05 -232.65 -152.55 -231.5 -152.55 L-225.05 -152.1 Q-222.05 -152.1 -222.05 -153.5 -222.05 -154.2 -224.75 -156.2 L-226.95 -157.7 Q-223.75 -158.1 -222.1 -160.2 -217.85 -158.4 -218.3 -156.05 -218.55 -154.8 -216.85 -154.1 -215.1 -153.4 -215.1 -152.15 -215.1 -149.75 -218.3 -149.45 L-220.8 -149.5 -221.95 -149.6 -222.15 -149.5 -223.55 -149.55 -223.8 -149.55 -228.4 -149.0 -229.1 -148.55 Q-230.8 -146.05 -231.95 -146.15 L-237.45 -146.3 Q-239.65 -144.5 -241.6 -144.5 -243.55 -144.5 -245.4 -145.8 -247.25 -147.15 -249.9 -147.15 L-252.6 -147.25 -255.85 -147.85 -257.4 -148.3 -257.8 -148.75 -258.5 -150.8 Q-258.9 -151.65 -259.85 -152.55 -260.6 -153.25 -260.6 -153.95 -260.6 -154.55 -259.25 -155.95 L-257.75 -157.5 -257.75 -160.15 Q-257.6 -161.3 -256.75 -161.75" fill="#fd9124" fill-rule="evenodd" stroke="none"/>
    <path d="M-220.8 -149.5 Q-220.1 -149.35 -219.8 -149.05 -219.0 -148.05 -217.7 -147.45 L-215.5 -147.05 Q-213.9 -146.7 -213.9 -145.55 -213.9 -144.35 -215.45 -144.35 L-218.4 -144.65 -219.95 -143.9 Q-219.95 -143.15 -215.05 -140.25 -210.2 -137.4 -210.2 -134.85 -210.2 -133.95 -212.0 -133.1 L-212.0 -130.05 Q-211.8 -129.2 -212.8 -128.55 -213.35 -128.15 -214.5 -127.55 -215.9 -126.45 -220.1 -125.15 -221.55 -123.45 -223.2 -123.15 L-227.6 -123.15 Q-229.35 -122.25 -235.1 -122.25 L-241.85 -122.7 -244.9 -123.15 -246.95 -123.6 Q-249.05 -122.85 -250.4 -122.85 -258.95 -122.85 -262.35 -126.95 L-266.75 -131.2 Q-268.7 -133.05 -268.7 -135.6 -268.7 -137.65 -264.35 -143.3 -263.65 -144.2 -260.6 -145.2 L-257.2 -148.15 Q-256.75 -147.85 -255.85 -147.85 L-252.6 -147.25 -249.9 -147.15 Q-247.25 -147.15 -245.4 -145.8 -243.55 -144.5 -241.6 -144.5 -239.65 -144.5 -237.45 -146.3 L-231.95 -146.15 Q-230.8 -146.05 -229.1 -148.55 L-228.4 -149.0 Q-225.65 -148.3 -222.15 -149.5 L-220.8 -149.5 M-241.25 -130.0 Q-238.9 -129.3 -237.65 -129.3 L-234.3 -129.7 -230.7 -131.9 -230.85 -132.05 Q-232.05 -132.8 -233.05 -132.8 L-236.25 -132.2 Q-238.95 -133.1 -243.45 -133.1 L-245.0 -132.35 -244.55 -131.8 -243.65 -130.95 -243.45 -130.85 Q-242.6 -130.4 -241.25 -130.0 M-228.95 -142.7 L-229.65 -142.7 -229.65 -142.4 -227.95 -140.5 Q-227.3 -139.7 -227.3 -138.2 -227.3 -137.3 -228.5 -134.75 -228.65 -134.3 -227.95 -134.2 L-226.25 -134.0 Q-225.05 -134.0 -223.95 -134.75 -222.75 -135.6 -222.75 -136.55 -222.75 -139.2 -228.95 -142.7 M-250.85 -145.55 Q-250.85 -146.4 -252.65 -146.4 L-255.75 -145.55 Q-258.0 -144.65 -258.8 -143.75 L-261.0 -141.55 Q-262.05 -140.4 -262.05 -138.95 -262.05 -138.3 -260.75 -136.6 L-258.95 -134.3 Q-258.15 -133.0 -254.85 -132.85 L-251.45 -132.9 -251.4 -132.9 -251.4 -132.95 Q-251.25 -134.1 -251.75 -134.6 L-253.5 -135.65 Q-257.45 -138.3 -257.45 -139.65 -257.45 -140.7 -254.15 -142.9 -250.85 -145.05 -250.85 -145.55" fill="#484848" fill-rule="evenodd" stroke="none"/>
    <path d="M-239.45 -161.5 L-237.7 -162.1 Q-235.65 -163.15 -235.4 -164.75 -235.15 -166.45 -236.9 -167.8 L-237.15 -168.0 Q-235.55 -168.1 -234.2 -168.75 -232.15 -169.8 -231.9 -171.4 -231.8 -172.2 -232.05 -172.85 -230.2 -172.9 -228.7 -173.65 -226.7 -174.65 -226.35 -176.2 L-225.9 -176.2 -224.5 -175.95 -224.5 -174.55 Q-224.85 -172.4 -226.9 -171.4 -228.95 -170.4 -230.05 -170.65 L-228.4 -170.4 -225.2 -170.55 Q-224.55 -169.4 -224.8 -167.85 -225.1 -165.7 -227.15 -164.7 -229.2 -163.7 -230.3 -163.95 L-228.7 -163.65 Q-226.05 -163.4 -224.05 -164.35 -221.95 -165.4 -221.7 -167.0 -221.5 -168.7 -223.2 -170.05 L-224.4 -170.85 -223.75 -171.1 Q-221.7 -172.1 -221.45 -173.75 -221.3 -174.9 -222.05 -175.9 -220.75 -176.1 -219.65 -176.6 -218.8 -177.05 -218.25 -177.55 -217.05 -176.6 -215.9 -175.15 -213.65 -172.3 -213.4 -169.35 -213.15 -166.45 -215.75 -164.35 -218.4 -162.25 -221.0 -162.45 -221.4 -161.15 -222.1 -160.2 -223.75 -158.1 -226.95 -157.7 L-228.05 -157.65 -228.65 -157.65 -231.85 -157.75 Q-233.3 -158.15 -233.4 -159.9 L-235.95 -160.3 Q-238.1 -160.75 -239.45 -161.5" fill="#ffcc00" fill-rule="evenodd" stroke="none"/>
  </g>
</svg>
