<?xml version="1.0" encoding="UTF-8" standalone="no"?>
<svg xmlns:ffdec="https://www.free-decompiler.com/flash" xmlns:xlink="http://www.w3.org/1999/xlink" ffdec:objectType="shape" height="67.55px" width="59.5px" xmlns="http://www.w3.org/2000/svg">
  <g transform="matrix(1.0, 0.0, 0.0, 1.0, 268.65, 189.8)">
    <path d="M-225.9 -186.35 Q-224.15 -185.65 -223.65 -184.05 -223.2 -182.5 -223.45 -181.05 -223.7 -179.45 -223.45 -178.0 -223.3 -177.3 -222.65 -176.8 -220.15 -175.0 -217.9 -172.8 -217.15 -172.05 -217.15 -170.95 -217.15 -170.25 -217.5 -169.8 -218.4 -171.0 -219.85 -171.1 -221.95 -171.55 -223.7 -170.6 -223.7 -169.1 -222.1 -168.55 L-220.1 -167.95 -218.3 -167.6 Q-219.2 -166.35 -220.6 -166.55 L-222.65 -167.0 -224.3 -167.6 -225.2 -168.0 Q-223.75 -165.95 -221.95 -164.1 -221.3 -163.35 -220.95 -162.4 -220.7 -161.65 -220.75 -160.85 L-220.85 -159.85 Q-221.8 -159.0 -223.25 -158.95 L-224.6 -158.9 Q-223.35 -160.5 -224.55 -162.05 -224.8 -162.4 -225.2 -162.6 -226.1 -162.8 -227.05 -162.2 -227.75 -161.35 -227.5 -160.3 L-227.1 -159.15 -227.1 -158.85 Q-228.5 -158.15 -230.05 -158.55 -233.25 -159.3 -236.1 -161.1 L-236.05 -160.1 -236.25 -153.5 Q-236.35 -150.35 -234.55 -147.8 -233.8 -147.65 -233.45 -148.15 L-232.7 -149.3 Q-232.15 -150.25 -232.5 -151.4 L-232.45 -151.45 -231.4 -150.35 -230.35 -148.9 Q-229.8 -147.8 -230.7 -146.85 L-231.8 -145.75 Q-229.9 -141.8 -226.4 -139.05 L-227.6 -139.05 Q-229.9 -141.0 -232.8 -141.2 -234.1 -141.15 -233.95 -139.85 L-232.05 -137.85 -232.95 -137.8 Q-234.75 -138.0 -236.05 -136.8 -236.15 -136.0 -235.15 -135.2 -234.75 -134.85 -234.35 -134.9 -235.45 -133.3 -237.35 -132.9 L-239.25 -133.25 Q-242.45 -134.1 -245.75 -133.85 -247.1 -133.55 -248.15 -134.2 L-248.9 -135.05 Q-249.75 -136.85 -249.05 -138.9 L-250.4 -139.05 -253.55 -139.35 -257.0 -139.85 -257.0 -141.35 Q-255.55 -142.65 -253.9 -143.4 -253.25 -143.55 -252.75 -143.9 L-249.55 -145.85 -252.35 -146.4 -253.95 -145.95 -256.05 -144.8 -257.0 -145.1 -257.1 -145.15 -257.05 -145.15 -254.85 -147.65 -253.15 -149.55 -251.8 -150.6 -250.4 -151.2 Q-247.3 -152.45 -244.1 -151.85 -245.05 -151.7 -245.7 -151.1 L-247.0 -150.05 -248.6 -148.0 -245.4 -147.75 Q-243.75 -149.75 -243.9 -152.65 L-243.85 -154.9 -243.55 -156.7 -243.0 -158.05 Q-242.1 -159.95 -242.65 -161.95 -244.1 -160.2 -246.5 -160.2 L-247.35 -160.2 Q-246.5 -160.3 -245.9 -161.2 -245.6 -161.6 -245.55 -162.05 L-245.45 -163.55 Q-247.55 -164.2 -249.1 -163.0 L-249.95 -162.0 Q-250.55 -160.85 -250.6 -159.35 -250.65 -158.1 -250.15 -157.1 L-250.9 -157.05 Q-252.6 -157.4 -253.8 -158.6 -254.5 -159.35 -254.45 -160.3 -254.4 -161.25 -254.5 -162.2 L-254.85 -163.0 -255.9 -164.15 Q-257.55 -164.3 -258.85 -163.6 L-260.15 -162.75 -261.0 -162.2 Q-263.95 -161.95 -264.75 -164.65 -265.35 -166.75 -264.65 -168.85 -263.8 -171.25 -261.25 -171.85 L-257.55 -172.4 Q-258.75 -172.5 -259.4 -173.65 L-259.9 -174.8 Q-260.65 -177.4 -259.2 -179.65 -257.5 -182.3 -254.5 -181.85 -253.25 -181.6 -252.3 -180.7 L-250.8 -179.45 -250.0 -179.5 -249.5 -180.15 Q-248.9 -182.55 -250.4 -184.3 -251.15 -185.15 -252.5 -185.2 L-254.8 -185.1 -253.3 -187.0 -252.1 -188.05 -250.2 -188.6 Q-247.9 -188.55 -246.1 -187.05 L-243.15 -184.5 Q-241.1 -182.7 -238.55 -184.05 L-238.45 -184.5 Q-238.35 -185.45 -238.9 -186.1 L-239.6 -186.8 -240.15 -187.15 Q-238.0 -187.5 -236.45 -186.1 L-234.7 -184.35 Q-233.6 -183.1 -231.9 -182.45 -230.65 -181.9 -229.8 -182.7 L-229.6 -183.2 -232.7 -186.5 -234.35 -189.45 Q-233.35 -188.0 -231.5 -187.45 L-225.9 -186.35 M-226.1 -157.35 L-223.95 -156.85 -221.8 -156.35 Q-221.3 -156.35 -219.35 -158.6 L-219.35 -157.2 Q-222.25 -154.8 -222.8 -154.8 L-223.55 -154.9 Q-224.5 -155.1 -225.25 -155.9 -226.0 -156.6 -226.1 -157.35 M-227.15 -151.15 L-227.3 -151.85 Q-224.65 -153.2 -223.7 -154.05 -223.85 -153.0 -222.55 -152.6 -220.6 -151.95 -220.2 -151.55 -218.45 -149.65 -218.45 -147.7 L-218.45 -146.45 Q-219.4 -148.1 -223.4 -148.1 -225.1 -148.15 -227.1 -150.7 L-227.15 -151.15 M-222.1 -144.95 Q-220.95 -144.65 -220.15 -143.85 L-217.35 -141.5 -216.3 -140.9 Q-214.4 -140.1 -212.95 -139.0 -211.1 -137.7 -209.8 -135.8 -209.25 -135.0 -209.7 -134.25 -212.35 -130.05 -216.05 -126.7 -217.25 -125.65 -218.7 -125.35 L-225.05 -124.7 -227.25 -124.1 Q-229.9 -123.1 -232.75 -122.6 L-237.95 -123.0 -243.5 -123.45 -246.7 -122.75 Q-253.45 -121.9 -259.2 -125.45 L-261.0 -126.85 Q-262.65 -128.25 -262.35 -130.5 -263.65 -130.05 -264.8 -130.7 -267.8 -132.3 -268.25 -135.5 -268.5 -137.35 -267.8 -138.95 L-264.1 -142.8 Q-263.35 -143.4 -262.4 -143.6 L-258.2 -144.05 -262.65 -142.1 -262.95 -139.85 -263.75 -138.85 -264.05 -137.9 Q-264.05 -136.3 -262.65 -135.55 L-260.85 -134.7 -259.55 -133.95 Q-258.05 -133.0 -257.45 -131.25 L-255.75 -130.95 -252.0 -131.0 Q-249.3 -130.8 -247.35 -128.85 L-245.75 -127.35 -242.35 -124.8 -241.0 -124.55 -239.6 -124.9 Q-238.05 -125.4 -237.05 -126.6 L-235.9 -128.2 Q-233.3 -132.35 -228.4 -132.75 -227.25 -133.05 -226.2 -133.6 -225.55 -133.8 -225.0 -134.3 L-223.35 -135.75 Q-222.0 -136.8 -221.15 -137.95 L-220.45 -139.05 -220.25 -139.8 -220.6 -140.7 -221.85 -141.65 -229.9 -146.45 -228.25 -146.95 -225.2 -146.85 -225.5 -146.0 -225.55 -145.25 -225.4 -144.55 -224.7 -144.45 -223.6 -144.5 -222.1 -144.95 M-256.25 -157.05 Q-255.45 -155.3 -252.85 -155.3 L-250.45 -155.45 -250.35 -155.35 Q-251.75 -153.6 -252.9 -153.0 L-253.5 -152.8 -253.7 -152.8 Q-256.4 -153.25 -256.4 -156.4 L-256.25 -157.05" fill="#000000" fill-rule="evenodd" stroke="none"/>
    <path d="M-225.9 -186.35 Q-224.15 -185.65 -223.65 -184.05 -223.2 -182.5 -223.45 -181.05 -223.7 -179.45 -223.45 -178.0 -223.3 -177.3 -222.65 -176.8 -220.15 -175.0 -217.9 -172.8 -217.15 -172.05 -217.15 -170.95 -217.15 -170.25 -217.5 -169.8 -218.4 -171.0 -219.85 -171.1 -221.95 -171.55 -223.7 -170.6 -223.7 -169.1 -222.1 -168.55 L-220.1 -167.95 -218.3 -167.6 Q-219.2 -166.35 -220.6 -166.55 L-222.65 -167.0 -224.3 -167.6 -225.2 -168.0 Q-223.75 -165.95 -221.95 -164.1 -221.3 -163.35 -220.95 -162.4 -220.7 -161.65 -220.75 -160.85 L-220.85 -159.85 Q-221.8 -159.0 -223.25 -158.95 L-224.6 -158.9 Q-223.35 -160.5 -224.55 -162.05 -224.8 -162.4 -225.2 -162.6 -226.1 -162.8 -227.05 -162.2 -227.75 -161.35 -227.5 -160.3 L-227.1 -159.15 -227.1 -158.85 Q-228.5 -158.15 -230.05 -158.55 -233.25 -159.3 -236.1 -161.1 L-236.05 -160.1 -236.25 -153.5 Q-236.35 -150.35 -234.55 -147.8 -233.8 -147.65 -233.45 -148.15 L-232.7 -149.3 Q-232.15 -150.25 -232.5 -151.4 L-232.45 -151.45 -231.4 -150.35 -230.35 -148.9 Q-229.8 -147.8 -230.7 -146.85 L-231.8 -145.75 Q-229.9 -141.8 -226.4 -139.05 L-227.6 -139.05 Q-229.9 -141.0 -232.8 -141.2 -234.1 -141.15 -233.95 -139.85 L-232.05 -137.85 -232.95 -137.8 Q-234.75 -138.0 -236.05 -136.8 -236.15 -136.0 -235.15 -135.2 -234.75 -134.85 -234.35 -134.9 -235.45 -133.3 -237.35 -132.9 L-239.25 -133.25 Q-242.45 -134.1 -245.75 -133.85 -247.1 -133.55 -248.15 -134.2 L-248.9 -135.05 Q-249.75 -136.85 -249.05 -138.9 L-250.4 -139.05 -253.55 -139.35 -257.0 -139.85 -257.0 -141.35 Q-255.55 -142.65 -253.9 -143.4 -253.25 -143.55 -252.75 -143.9 L-249.55 -145.85 -252.35 -146.4 -253.95 -145.95 -256.05 -144.8 -257.0 -145.1 -257.1 -145.15 -257.05 -145.15 -254.85 -147.65 -253.15 -149.55 -251.8 -150.6 -250.4 -151.2 Q-247.3 -152.45 -244.1 -151.85 -245.05 -151.7 -245.7 -151.1 L-247.0 -150.05 -248.6 -148.0 -245.4 -147.75 Q-243.75 -149.75 -243.9 -152.65 L-243.85 -154.9 -243.55 -156.7 -243.0 -158.05 Q-242.1 -159.95 -242.65 -161.95 -244.1 -160.2 -246.5 -160.2 L-247.35 -160.2 Q-246.5 -160.3 -245.9 -161.2 -245.6 -161.6 -245.55 -162.05 L-245.45 -163.55 Q-247.55 -164.2 -249.1 -163.0 L-249.95 -162.0 Q-250.55 -160.85 -250.6 -159.35 -250.65 -158.1 -250.15 -157.1 L-250.9 -157.05 Q-252.6 -157.4 -253.8 -158.6 -254.5 -159.35 -254.45 -160.3 -254.4 -161.25 -254.5 -162.2 L-254.85 -163.0 -255.9 -164.15 Q-257.55 -164.3 -258.85 -163.6 L-260.15 -162.75 -261.0 -162.2 Q-263.95 -161.95 -264.75 -164.65 -265.35 -166.75 -264.65 -168.85 -263.8 -171.25 -261.25 -171.85 L-257.55 -172.4 Q-258.75 -172.5 -259.4 -173.65 L-259.9 -174.8 Q-260.65 -177.4 -259.2 -179.65 -257.5 -182.3 -254.5 -181.85 -253.25 -181.6 -252.3 -180.7 L-250.8 -179.45 -250.0 -179.5 -249.5 -180.15 Q-248.9 -182.55 -250.4 -184.3 -251.15 -185.15 -252.5 -185.2 L-254.8 -185.1 -253.3 -187.0 -252.1 -188.05 -250.2 -188.6 Q-247.9 -188.55 -246.1 -187.05 L-243.15 -184.5 Q-241.1 -182.7 -238.55 -184.05 L-238.45 -184.5 Q-238.35 -185.45 -238.9 -186.1 L-239.6 -186.8 -240.15 -187.15 Q-238.0 -187.5 -236.45 -186.1 L-234.7 -184.35 Q-233.6 -183.1 -231.9 -182.45 -230.65 -181.9 -229.8 -182.7 L-229.6 -183.2 -232.7 -186.5 -234.35 -189.45 Q-233.35 -188.0 -231.5 -187.45 L-225.9 -186.35 M-226.1 -157.35 L-223.95 -156.85 -221.8 -156.35 Q-221.3 -156.35 -219.35 -158.6 L-219.35 -157.2 Q-222.25 -154.8 -222.8 -154.8 L-223.55 -154.9 Q-224.5 -155.1 -225.25 -155.9 -226.0 -156.6 -226.1 -157.35 M-227.15 -151.15 L-227.3 -151.85 Q-224.65 -153.2 -223.7 -154.05 -223.85 -153.0 -222.55 -152.6 -220.6 -151.95 -220.2 -151.55 -218.45 -149.65 -218.45 -147.7 L-218.45 -146.45 Q-219.4 -148.1 -223.4 -148.1 -225.1 -148.15 -227.1 -150.7 L-227.15 -151.15 M-222.1 -144.95 L-223.6 -144.5 -224.7 -144.45 -225.4 -144.55 -225.55 -145.25 -225.5 -146.0 -225.2 -146.85 -228.25 -146.95 -229.9 -146.45 -221.85 -141.65 -220.6 -140.7 -220.25 -139.8 -220.45 -139.05 -221.15 -137.95 Q-222.0 -136.8 -223.35 -135.75 L-225.0 -134.3 Q-225.55 -133.8 -226.2 -133.6 -227.25 -133.05 -228.4 -132.75 -233.3 -132.35 -235.9 -128.2 L-237.05 -126.6 Q-238.05 -125.4 -239.6 -124.9 L-241.0 -124.55 -242.35 -124.8 -245.75 -127.35 -247.35 -128.85 Q-249.3 -130.8 -252.0 -131.0 L-255.75 -130.95 -257.45 -131.25 Q-258.05 -133.0 -259.55 -133.95 L-260.85 -134.7 -262.65 -135.55 Q-264.05 -136.3 -264.05 -137.9 L-263.75 -138.85 -262.95 -139.85 -262.65 -142.1 -258.2 -144.05 -262.4 -143.6 Q-263.35 -143.4 -264.1 -142.8 L-267.8 -138.95 Q-268.5 -137.35 -268.25 -135.5 -267.8 -132.3 -264.8 -130.7 -263.65 -130.05 -262.35 -130.5 -262.65 -128.25 -261.0 -126.85 L-259.2 -125.45 Q-253.45 -121.9 -246.7 -122.75 L-243.5 -123.45 -237.95 -123.0 -232.75 -122.6 Q-229.9 -123.1 -227.25 -124.1 L-225.05 -124.7 -218.7 -125.35 Q-217.25 -125.65 -216.05 -126.7 -212.35 -130.05 -209.7 -134.25 -209.25 -135.0 -209.8 -135.8 -211.1 -137.7 -212.95 -139.0 -214.4 -140.1 -216.3 -140.9 L-217.35 -141.5 -220.15 -143.85 Q-220.95 -144.65 -222.1 -144.95 M-256.25 -157.05 Q-255.45 -155.3 -252.85 -155.3 L-250.45 -155.45 -250.35 -155.35 Q-251.75 -153.6 -252.9 -153.0 L-253.5 -152.8 -253.7 -152.8 Q-256.4 -153.25 -256.4 -156.4 L-256.25 -157.05 Z" fill="none" stroke="#333333" stroke-linecap="round" stroke-linejoin="round" stroke-width="0.7000000000000001"/>
    <path d="M-242.65 -161.95 L-243.65 -161.0 Q-244.85 -160.2 -246.5 -160.2 L-247.35 -160.2 Q-246.75 -160.3 -246.25 -160.75 L-245.9 -161.2 -245.75 -161.4 -245.55 -162.05 -245.45 -163.55 Q-247.55 -164.2 -249.1 -163.0 L-249.95 -162.0 Q-250.55 -160.85 -250.6 -159.35 -250.65 -158.1 -250.15 -157.1 L-250.9 -157.05 Q-252.6 -157.4 -253.8 -158.6 -254.5 -159.35 -254.45 -160.3 -254.4 -161.25 -254.5 -162.2 L-254.85 -163.0 -255.9 -164.15 Q-257.55 -164.3 -258.85 -163.6 L-260.15 -162.75 -261.0 -162.2 Q-263.95 -161.95 -264.75 -164.65 -265.35 -166.75 -264.65 -168.85 -263.8 -171.25 -261.25 -171.85 L-257.55 -172.4 Q-258.75 -172.5 -259.4 -173.65 L-259.9 -174.8 Q-260.65 -177.4 -259.2 -179.65 -257.5 -182.3 -254.5 -181.85 -253.25 -181.6 -252.3 -180.7 L-250.8 -179.45 -250.0 -179.5 -249.5 -180.15 Q-248.9 -182.55 -250.4 -184.3 -251.15 -185.15 -252.5 -185.2 L-254.8 -185.1 -253.3 -187.0 -252.1 -188.05 -250.2 -188.6 Q-247.9 -188.55 -246.1 -187.05 L-243.15 -184.5 Q-241.1 -182.7 -238.55 -184.05 L-238.45 -184.5 Q-238.35 -185.45 -238.9 -186.1 L-239.6 -186.8 -240.15 -187.15 Q-238.0 -187.5 -236.45 -186.1 L-234.7 -184.35 -233.45 -183.25 Q-232.75 -182.35 -232.95 -181.1 -233.2 -179.8 -234.55 -179.05 L-234.4 -178.8 -233.15 -178.4 -232.3 -178.65 Q-230.6 -179.4 -230.35 -180.5 L-230.55 -180.7 -230.35 -180.65 -230.35 -180.55 -230.35 -180.5 Q-229.45 -179.55 -229.7 -178.15 -229.9 -177.0 -230.95 -176.3 -231.15 -177.15 -232.2 -177.85 L-233.15 -178.4 -233.9 -178.25 Q-233.35 -177.4 -233.55 -176.25 L-233.85 -175.35 -233.9 -175.3 Q-234.4 -174.5 -235.55 -174.05 L-235.6 -174.0 -236.25 -173.75 -236.0 -173.25 Q-235.8 -172.65 -235.9 -171.85 -236.2 -170.35 -237.9 -169.65 L-238.55 -169.4 -238.15 -168.85 Q-237.9 -168.4 -238.0 -167.85 -238.2 -166.7 -239.95 -165.95 L-242.45 -165.45 -242.2 -165.3 Q-240.75 -164.35 -240.95 -163.15 L-241.05 -162.8 -242.65 -161.95 M-232.9 -173.8 Q-231.55 -174.4 -231.1 -175.2 L-229.05 -175.7 -228.65 -175.9 -229.15 -176.5 -228.15 -176.15 -226.95 -175.55 Q-225.5 -174.6 -225.7 -173.4 -225.9 -172.25 -227.65 -171.5 L-229.7 -171.0 Q-229.05 -170.3 -229.15 -169.5 -229.35 -168.35 -231.1 -167.6 L-231.65 -167.45 -230.65 -166.9 Q-229.2 -165.95 -229.4 -164.75 -229.6 -163.6 -231.35 -162.85 L-235.25 -162.35 -236.65 -162.55 Q-235.7 -162.4 -234.0 -163.1 -232.25 -163.8 -232.0 -165.3 -231.8 -166.45 -232.35 -167.25 L-235.05 -167.1 -236.4 -167.3 Q-235.5 -167.15 -233.75 -167.85 -232.05 -168.55 -231.75 -170.05 L-231.75 -171.05 -232.95 -171.2 -233.3 -171.2 -233.3 -171.3 Q-233.1 -172.45 -234.5 -173.4 L-232.9 -173.8" fill="#ffff00" fill-rule="evenodd" stroke="none"/>
    <path d="M-236.1 -161.1 L-236.05 -160.1 -236.25 -153.5 Q-236.35 -150.35 -234.55 -147.8 L-236.6 -148.4 Q-237.7 -147.9 -238.35 -147.1 -239.15 -146.1 -240.3 -146.55 -240.15 -144.9 -238.35 -144.55 L-235.05 -144.25 -232.6 -143.8 -231.8 -145.75 Q-229.9 -141.8 -226.4 -139.05 L-227.6 -139.05 Q-229.9 -141.0 -232.8 -141.2 -234.1 -141.15 -233.95 -139.85 L-232.05 -137.85 -232.95 -137.8 Q-234.75 -138.0 -236.05 -136.8 -236.15 -136.0 -235.15 -135.2 -234.75 -134.85 -234.35 -134.9 -235.45 -133.3 -237.35 -132.9 L-239.25 -133.25 Q-242.45 -134.1 -245.75 -133.85 -247.1 -133.55 -248.15 -134.2 L-248.9 -135.05 Q-249.75 -136.85 -249.05 -138.9 L-250.4 -139.05 -253.55 -139.35 -257.0 -139.85 -257.0 -141.35 Q-255.55 -142.65 -253.9 -143.4 -253.25 -143.55 -252.75 -143.9 L-249.55 -145.85 -248.9 -146.8 -247.8 -146.4 -246.25 -146.0 -245.4 -146.55 -243.5 -147.95 -245.4 -147.75 Q-243.75 -149.75 -243.9 -152.65 L-243.85 -154.9 -243.55 -156.7 -243.0 -158.05 Q-242.2 -159.7 -242.5 -161.45 L-242.65 -161.95 -241.05 -162.8 -240.55 -163.1 -236.1 -161.1" fill="#ff9900" fill-rule="evenodd" stroke="none"/>
    <path d="M-233.45 -183.25 L-231.9 -182.45 Q-231.45 -182.25 -231.0 -182.2 -230.35 -182.2 -229.8 -182.7 L-229.6 -183.2 -232.7 -186.5 -234.35 -189.45 Q-233.35 -188.0 -231.5 -187.45 L-225.9 -186.35 Q-224.15 -185.65 -223.65 -184.05 -223.2 -182.5 -223.45 -181.05 -223.7 -179.45 -223.45 -178.0 -223.3 -177.3 -222.65 -176.8 -220.15 -175.0 -217.9 -172.8 -217.15 -172.05 -217.15 -170.95 -217.15 -170.25 -217.5 -169.8 -218.4 -171.0 -219.85 -171.1 -221.95 -171.55 -223.7 -170.6 -223.7 -169.1 -222.1 -168.55 L-220.1 -167.95 -218.3 -167.6 Q-219.2 -166.35 -220.6 -166.55 L-222.65 -167.0 -224.3 -167.6 -225.2 -168.0 Q-223.75 -165.95 -221.95 -164.1 -221.3 -163.35 -220.95 -162.4 -220.7 -161.65 -220.75 -160.85 L-220.85 -159.85 Q-221.8 -159.0 -223.25 -158.95 L-224.6 -158.9 Q-223.35 -160.5 -224.55 -162.05 -224.8 -162.4 -225.2 -162.6 -226.1 -162.8 -227.05 -162.2 -227.75 -161.35 -227.5 -160.3 L-227.1 -159.15 -227.1 -158.85 Q-228.5 -158.15 -230.05 -158.55 -233.25 -159.3 -236.1 -161.1 L-240.55 -163.1 -241.05 -162.8 -240.95 -163.15 Q-240.75 -164.35 -242.2 -165.3 L-242.45 -165.45 -239.95 -165.95 Q-238.2 -166.7 -238.0 -167.85 -237.9 -168.4 -238.15 -168.85 L-238.55 -169.4 -237.9 -169.65 Q-236.2 -170.35 -235.9 -171.85 -235.8 -172.65 -236.0 -173.25 L-236.25 -173.75 -235.6 -174.0 -235.55 -174.05 Q-234.4 -174.5 -233.9 -175.3 L-233.85 -175.35 -233.55 -176.25 Q-233.35 -177.4 -233.9 -178.25 L-233.15 -178.4 -232.2 -177.85 Q-231.15 -177.15 -230.95 -176.3 -229.9 -177.0 -229.7 -178.15 -229.45 -179.55 -230.35 -180.5 L-230.35 -180.55 -230.35 -180.65 -230.55 -180.7 -230.35 -180.5 Q-230.6 -179.4 -232.3 -178.65 L-233.15 -178.4 -234.4 -178.8 -234.55 -179.05 Q-233.2 -179.8 -232.95 -181.1 -232.75 -182.35 -233.45 -183.25 M-232.5 -151.4 L-232.45 -151.45 -232.4 -151.45 -232.5 -151.4 M-232.9 -173.8 L-234.5 -173.4 Q-233.1 -172.45 -233.3 -171.3 L-233.3 -171.2 -232.95 -171.2 -231.75 -171.05 -231.75 -170.05 Q-232.05 -168.55 -233.75 -167.85 -235.5 -167.15 -236.4 -167.3 L-235.05 -167.1 -232.35 -167.25 Q-231.8 -166.45 -232.0 -165.3 -232.25 -163.8 -234.0 -163.1 -235.7 -162.4 -236.65 -162.55 L-235.25 -162.35 -231.35 -162.85 Q-229.6 -163.6 -229.4 -164.75 -229.2 -165.95 -230.65 -166.9 L-231.65 -167.45 -231.1 -167.6 Q-229.35 -168.35 -229.15 -169.5 -229.05 -170.3 -229.7 -171.0 L-227.65 -171.5 Q-225.9 -172.25 -225.7 -173.4 -225.5 -174.6 -226.95 -175.55 L-228.15 -176.15 -229.15 -176.5 -228.65 -175.9 -229.05 -175.7 -231.1 -175.2 Q-231.55 -174.4 -232.9 -173.8 M-223.95 -156.85 L-221.8 -156.35 Q-221.3 -156.35 -219.35 -158.6 L-219.35 -157.2 Q-222.25 -154.8 -222.8 -154.8 L-223.55 -154.9 Q-224.5 -155.1 -225.25 -155.9 -226.0 -156.6 -226.1 -157.35 L-223.95 -156.85" fill="#ffcc00" fill-rule="evenodd" stroke="none"/>
    <path d="M-234.55 -147.8 Q-233.8 -147.65 -233.45 -148.15 L-232.7 -149.3 Q-232.15 -150.25 -232.5 -151.4 L-232.4 -151.45 -231.4 -150.35 -230.35 -148.9 Q-229.8 -147.8 -230.7 -146.85 L-231.8 -145.75 -232.6 -143.8 -235.05 -144.25 -238.35 -144.55 Q-240.15 -144.9 -240.3 -146.55 -239.15 -146.1 -238.35 -147.1 -237.7 -147.9 -236.6 -148.4 L-234.55 -147.8 M-248.6 -148.0 L-245.4 -147.75 -243.5 -147.95 -245.4 -146.55 -246.25 -146.0 -247.8 -146.4 -248.9 -146.8 -250.15 -148.15 -250.35 -149.45 -248.6 -148.0" fill="#ff6600" fill-rule="evenodd" stroke="none"/>
    <path d="M-227.15 -151.15 L-227.3 -151.85 Q-224.65 -153.2 -223.7 -154.05 -223.85 -153.0 -222.55 -152.6 -220.6 -151.95 -220.2 -151.55 -218.45 -149.65 -218.45 -147.7 L-218.45 -146.45 Q-219.4 -148.1 -223.4 -148.1 -225.1 -148.15 -227.1 -150.7 L-227.15 -151.15 M-256.4 -156.4 L-256.25 -157.05 Q-255.45 -155.3 -252.85 -155.3 L-250.45 -155.45 -250.35 -155.35 Q-251.75 -153.6 -252.9 -153.0 L-253.5 -152.8 -253.7 -152.8 Q-256.4 -153.25 -256.4 -156.4" fill="#fd9124" fill-rule="evenodd" stroke="none"/>
    <path d="M-249.55 -145.85 L-252.35 -146.4 -253.95 -145.95 -256.05 -144.8 -257.0 -145.1 -257.05 -145.15 -254.85 -147.65 -253.15 -149.55 -251.8 -150.6 -250.4 -151.2 Q-247.3 -152.45 -244.1 -151.85 -245.05 -151.7 -245.7 -151.1 L-247.0 -150.05 -248.6 -148.0 -250.35 -149.45 -250.15 -148.15 -248.9 -146.8 -249.55 -145.85 M-222.1 -144.95 Q-220.95 -144.65 -220.15 -143.85 L-217.35 -141.5 -216.3 -140.9 Q-214.4 -140.1 -212.95 -139.0 -211.1 -137.7 -209.8 -135.8 -209.25 -135.0 -209.7 -134.25 -212.35 -130.05 -216.05 -126.7 -217.25 -125.65 -218.7 -125.35 L-225.05 -124.7 -227.25 -124.1 Q-229.9 -123.1 -232.75 -122.6 L-237.95 -123.0 -243.5 -123.45 -246.7 -122.75 Q-253.45 -121.9 -259.2 -125.45 L-261.0 -126.85 Q-262.65 -128.25 -262.35 -130.5 -263.65 -130.05 -264.8 -130.7 -267.8 -132.3 -268.25 -135.5 -268.5 -137.35 -267.8 -138.95 L-264.1 -142.8 Q-263.35 -143.4 -262.4 -143.6 L-258.2 -144.05 -262.65 -142.1 -262.95 -139.85 -263.75 -138.85 -264.05 -137.9 Q-264.05 -136.3 -262.65 -135.55 L-260.85 -134.7 -259.55 -133.95 Q-258.05 -133.0 -257.45 -131.25 L-255.75 -130.95 -252.0 -131.0 Q-249.3 -130.8 -247.35 -128.85 L-245.75 -127.35 -242.35 -124.8 -241.0 -124.55 -239.6 -124.9 Q-238.05 -125.4 -237.05 -126.6 L-235.9 -128.2 Q-233.3 -132.35 -228.4 -132.75 -227.25 -133.05 -226.2 -133.6 -225.55 -133.8 -225.0 -134.3 L-223.35 -135.75 Q-222.0 -136.8 -221.15 -137.95 L-220.45 -139.05 -220.25 -139.8 -220.6 -140.7 -221.85 -141.65 -229.9 -146.45 -228.25 -146.95 -225.2 -146.85 -225.5 -146.0 -225.55 -145.25 -225.4 -144.55 -224.7 -144.45 -223.6 -144.5 -222.1 -144.95" fill="#484848" fill-rule="evenodd" stroke="none"/>
    <path d="M-257.0 -145.1 L-257.1 -145.15 -257.05 -145.15 -257.0 -145.1" fill="#8c8c8c" fill-rule="evenodd" stroke="none"/>
  </g>
</svg>
