<?xml version="1.0" encoding="UTF-8" standalone="no"?>
<svg xmlns:ffdec="https://www.free-decompiler.com/flash" xmlns:xlink="http://www.w3.org/1999/xlink" ffdec:objectType="shape" height="71.25px" width="56.65px" xmlns="http://www.w3.org/2000/svg">
  <g transform="matrix(1.0, 0.0, 0.0, 1.0, 268.6, 193.45)">
    <path d="M-228.6 -171.1 Q-227.8 -171.8 -227.85 -172.55 L-227.85 -175.1 Q-228.95 -173.25 -230.7 -173.0 L-234.4 -172.45 Q-236.3 -172.1 -236.3 -171.4 L-235.95 -170.6 -235.85 -170.6 -231.65 -170.5 Q-229.4 -170.45 -228.6 -171.1 M-234.5 -182.6 Q-237.15 -182.6 -238.0 -181.4 -237.4 -180.1 -235.15 -179.85 -231.7 -179.45 -230.1 -178.55 -230.5 -180.05 -231.05 -180.95 -232.1 -182.6 -234.5 -182.6 M-231.15 -186.45 Q-230.9 -186.45 -228.8 -187.7 -227.25 -187.7 -226.4 -184.2 -228.85 -185.9 -228.95 -184.05 L-228.1 -180.8 Q-227.65 -180.05 -226.2 -180.05 -225.6 -180.05 -224.45 -182.25 -222.9 -181.1 -222.9 -178.85 -222.9 -176.4 -223.9 -175.7 -224.85 -174.6 -224.3 -173.8 -223.8 -173.05 -223.3 -173.0 -222.85 -172.95 -220.05 -174.45 -218.85 -174.45 -217.8 -172.35 -216.85 -170.75 -217.8 -169.2 L-217.95 -169.2 Q-219.05 -170.6 -219.9 -170.6 -221.4 -170.6 -221.5 -168.8 L-221.6 -165.65 -224.5 -163.85 Q-225.4 -163.25 -227.4 -163.25 -228.75 -163.25 -231.45 -164.15 -234.15 -165.05 -235.4 -165.05 -238.25 -165.05 -239.15 -163.35 L-239.1 -163.3 Q-238.7 -162.1 -238.65 -159.85 L-238.65 -153.9 Q-238.55 -152.6 -236.2 -149.65 L-235.5 -148.8 -234.2 -147.15 Q-232.55 -145.0 -232.55 -144.05 -232.55 -143.05 -234.2 -140.9 -233.9 -138.75 -234.45 -138.15 -234.9 -137.7 -236.5 -137.7 L-240.85 -138.9 -246.35 -138.15 Q-247.9 -138.15 -249.5 -140.3 -250.25 -141.4 -251.2 -142.0 L-252.35 -142.85 -251.9 -143.3 Q-249.9 -143.45 -248.3 -145.8 L-244.55 -149.9 Q-243.95 -150.5 -243.45 -155.55 -242.9 -160.95 -242.4 -162.05 L-244.15 -162.85 Q-246.6 -164.15 -247.55 -164.15 -249.9 -164.15 -249.9 -161.85 L-248.6 -158.45 -248.75 -158.3 -250.35 -158.3 Q-254.45 -159.2 -255.3 -159.75 -256.4 -160.45 -256.4 -162.55 L-256.1 -164.8 Q-257.25 -167.45 -257.25 -168.35 -257.25 -169.5 -254.9 -169.5 -254.2 -169.5 -252.9 -168.7 -251.65 -167.9 -250.65 -167.9 -249.05 -167.9 -249.05 -169.25 -249.05 -170.05 -250.4 -171.0 L-252.05 -172.25 -252.55 -172.75 -252.85 -172.8 -255.75 -173.15 Q-257.2 -173.15 -257.65 -171.25 -258.15 -169.35 -259.25 -169.35 -260.5 -169.35 -261.5 -170.2 -262.5 -171.05 -262.5 -172.25 -260.75 -174.65 -260.75 -175.35 -261.9 -177.25 -261.9 -178.35 -261.9 -181.8 -259.6 -181.8 -259.15 -181.8 -258.2 -181.05 -257.3 -180.35 -255.6 -180.35 -254.7 -180.35 -254.2 -181.05 L-253.3 -181.8 Q-252.4 -181.8 -251.4 -180.7 L-249.75 -178.7 Q-248.75 -179.3 -248.75 -180.95 -248.75 -182.85 -249.75 -185.0 -250.9 -187.65 -252.0 -189.0 L-252.0 -189.65 -250.55 -189.65 Q-247.3 -188.75 -246.9 -185.0 -246.5 -181.5 -246.2 -181.5 -245.15 -181.5 -242.15 -183.8 -240.8 -184.8 -239.0 -184.8 L-239.0 -185.45 Q-239.95 -186.6 -243.2 -187.2 -243.0 -188.5 -240.95 -189.9 -239.05 -191.15 -238.1 -191.15 -234.9 -191.15 -233.1 -188.8 L-231.15 -186.45 M-224.3 -161.2 L-222.9 -160.05 -224.5 -158.95 Q-225.4 -158.15 -226.35 -158.15 -226.9 -158.15 -227.75 -159.1 L-228.75 -160.5 -228.8 -160.6 Q-227.85 -161.75 -225.65 -161.75 -224.9 -161.75 -224.3 -161.2 M-233.3 -154.65 L-230.2 -152.65 Q-229.1 -151.95 -229.1 -150.6 L-232.55 -147.3 Q-232.8 -147.3 -233.2 -147.85 L-234.05 -149.6 -235.1 -150.5 -235.1 -150.65 -232.7 -150.75 Q-232.55 -150.85 -232.55 -151.65 L-233.3 -153.75 -233.3 -154.65 M-219.35 -157.65 L-219.35 -156.8 Q-220.4 -156.2 -220.9 -156.2 -221.45 -156.2 -222.45 -157.7 -221.75 -158.6 -221.05 -158.6 -220.65 -158.6 -219.35 -157.65 M-222.45 -148.85 Q-222.8 -148.15 -223.65 -147.45 L-223.65 -146.7 Q-221.8 -147.55 -220.2 -145.95 L-217.85 -143.0 Q-220.1 -143.75 -223.2 -143.75 L-224.2 -143.8 -224.95 -144.15 Q-227.9 -145.7 -227.9 -146.85 -227.9 -149.3 -224.35 -149.3 -222.8 -149.3 -222.45 -148.85 M-214.75 -139.2 L-213.65 -137.55 Q-212.3 -135.0 -212.3 -134.55 -212.3 -134.05 -214.1 -132.4 -215.65 -131.05 -216.65 -130.75 -216.5 -131.4 -216.5 -132.3 -216.5 -133.6 -218.5 -135.3 -220.55 -136.95 -220.55 -137.7 -219.95 -138.25 -220.1 -138.9 L-216.45 -139.35 -214.75 -139.2 M-222.6 -124.55 Q-223.75 -123.75 -224.1 -123.75 L-225.05 -123.9 Q-225.05 -125.3 -226.15 -125.3 -226.7 -125.3 -227.6 -124.2 -228.45 -123.1 -229.25 -123.15 L-234.0 -122.85 Q-237.25 -122.85 -238.4 -123.5 L-238.7 -123.75 Q-241.55 -124.95 -241.55 -125.8 -241.55 -126.8 -240.4 -127.0 -238.25 -127.35 -236.75 -128.15 L-234.8 -129.75 Q-233.8 -130.65 -233.05 -130.65 -232.05 -130.65 -229.9 -129.25 -227.7 -127.85 -227.1 -127.85 L-225.95 -129.1 Q-225.95 -130.5 -227.3 -131.25 L-224.2 -133.25 Q-222.9 -133.25 -221.85 -132.2 -220.35 -132.4 -221.15 -134.0 L-221.05 -134.1 Q-219.2 -133.45 -219.2 -130.5 -219.2 -128.7 -221.0 -125.9 -221.35 -125.35 -222.6 -124.55 M-245.7 -189.75 Q-247.65 -191.2 -247.65 -191.6 -247.65 -192.15 -246.85 -192.65 L-246.0 -193.1 -243.65 -192.5 -245.0 -191.35 Q-245.55 -190.8 -245.7 -189.75 M-260.1 -165.95 L-260.15 -164.55 -261.9 -164.55 Q-262.95 -165.6 -262.85 -166.4 L-261.05 -167.6 -260.1 -165.95 M-254.55 -177.15 L-255.25 -177.0 Q-254.9 -176.25 -253.55 -175.25 -252.25 -174.35 -251.6 -174.15 -253.05 -177.15 -254.55 -177.15 M-260.45 -190.4 Q-260.15 -189.7 -259.05 -188.4 -258.2 -187.45 -258.2 -186.35 -258.2 -185.5 -258.55 -185.05 L-258.7 -184.95 -258.95 -184.6 -259.45 -184.5 Q-261.5 -184.5 -261.5 -186.65 -261.5 -188.35 -260.45 -190.4 M-255.45 -148.95 Q-254.55 -148.5 -254.55 -147.4 -254.55 -145.4 -256.7 -145.5 -257.45 -145.5 -258.15 -144.85 -258.85 -144.2 -259.55 -144.2 L-260.3 -144.4 -260.45 -144.85 -260.6 -145.7 Q-260.6 -146.45 -259.45 -146.4 -258.1 -146.35 -257.6 -147.15 L-257.0 -149.8 -257.0 -150.65 Q-256.55 -149.6 -255.45 -148.95 M-262.5 -142.8 L-262.7 -143.2 -262.5 -143.3 -262.5 -142.8 M-260.3 -126.45 Q-260.3 -128.05 -257.75 -129.45 -257.75 -128.85 -256.75 -127.75 -255.75 -126.65 -255.45 -126.65 L-253.65 -127.85 Q-253.1 -127.85 -252.2 -127.1 -251.3 -126.35 -250.8 -126.35 -250.15 -126.35 -249.3 -127.6 -248.45 -128.85 -248.6 -129.45 -247.65 -128.7 -245.75 -128.05 -244.85 -127.7 -244.85 -126.35 -244.85 -125.85 -245.7 -124.6 -246.55 -123.3 -247.2 -123.0 L-252.0 -122.7 -256.7 -122.85 Q-259.05 -123.85 -259.25 -125.0 L-260.25 -125.4 -260.3 -126.45" fill="#000000" fill-rule="evenodd" stroke="none"/>
    <path d="M-262.7 -143.2 L-262.5 -142.8 -263.7 -138.3 Q-263.7 -137.2 -261.4 -135.6 -259.1 -133.95 -259.1 -132.8 -259.1 -131.9 -259.95 -131.9 -261.45 -131.9 -262.75 -132.5 L-264.8 -132.5 Q-265.85 -132.2 -267.05 -133.35 -268.25 -134.55 -268.25 -136.2 -268.25 -137.35 -266.05 -140.05 -264.05 -142.55 -262.7 -143.2" fill="#999999" fill-rule="evenodd" stroke="none"/>
    <path d="M-231.15 -186.45 L-233.1 -188.8 Q-234.9 -191.15 -238.1 -191.15 -239.05 -191.15 -240.95 -189.9 -243.0 -188.5 -243.2 -187.2 -239.95 -186.6 -239.0 -185.45 L-239.0 -184.8 Q-240.8 -184.8 -242.15 -183.8 -245.15 -181.5 -246.2 -181.5 -246.5 -181.5 -246.9 -185.0 -247.3 -188.75 -250.55 -189.65 L-252.0 -189.65 -252.0 -189.0 Q-250.9 -187.65 -249.75 -185.0 -248.75 -182.85 -248.75 -180.95 -248.75 -179.3 -249.75 -178.7 L-251.4 -180.7 Q-252.4 -181.8 -253.3 -181.8 L-254.2 -181.05 Q-254.7 -180.35 -255.6 -180.35 -257.3 -180.35 -258.2 -181.05 -259.15 -181.8 -259.6 -181.8 -261.9 -181.8 -261.9 -178.35 -261.9 -177.25 -260.75 -175.35 -260.75 -174.65 -262.5 -172.25 -262.5 -171.05 -261.5 -170.2 -260.5 -169.35 -259.25 -169.35 -258.15 -169.35 -257.65 -171.25 -257.2 -173.15 -255.75 -173.15 L-252.85 -172.8 -252.55 -172.75 -252.05 -172.25 -250.4 -171.0 Q-249.05 -170.05 -249.05 -169.25 -249.05 -167.9 -250.65 -167.9 -251.65 -167.9 -252.9 -168.7 -254.2 -169.5 -254.9 -169.5 -257.25 -169.5 -257.25 -168.35 -257.25 -167.45 -256.1 -164.8 L-256.4 -162.55 Q-256.4 -160.45 -255.3 -159.75 -254.45 -159.2 -250.35 -158.3 L-248.75 -158.3 -248.6 -158.45 -249.9 -161.85 Q-249.9 -164.15 -247.55 -164.15 -246.6 -164.15 -244.15 -162.85 L-242.4 -162.05 Q-242.9 -160.95 -243.45 -155.55 -243.95 -150.5 -244.55 -149.9 L-248.3 -145.8 Q-249.9 -143.45 -251.9 -143.3 L-252.35 -142.85 -251.2 -142.0 Q-250.25 -141.4 -249.5 -140.3 -247.9 -138.15 -246.35 -138.15 L-240.85 -138.9 -236.5 -137.7 Q-234.9 -137.7 -234.45 -138.15 -233.9 -138.75 -234.2 -140.9 -232.55 -143.05 -232.55 -144.05 -232.55 -145.0 -234.2 -147.15 L-235.5 -148.8 -236.2 -149.65 Q-238.55 -152.6 -238.65 -153.9 L-238.65 -159.85 Q-238.7 -162.1 -239.1 -163.3 L-239.15 -163.35 Q-238.25 -165.05 -235.4 -165.05 -234.15 -165.05 -231.45 -164.15 -228.75 -163.25 -227.4 -163.25 -225.4 -163.25 -224.5 -163.85 L-221.6 -165.65 -221.5 -168.8 Q-221.4 -170.6 -219.9 -170.6 -219.05 -170.6 -217.95 -169.2 L-217.8 -169.2 Q-216.85 -170.75 -217.8 -172.35 -218.85 -174.45 -220.05 -174.45 -222.85 -172.95 -223.3 -173.0 -223.8 -173.05 -224.3 -173.8 -224.85 -174.6 -223.9 -175.7 -222.9 -176.4 -222.9 -178.85 -222.9 -181.1 -224.45 -182.25 -225.6 -180.05 -226.2 -180.05 -227.65 -180.05 -228.1 -180.8 L-228.95 -184.05 Q-228.85 -185.9 -226.4 -184.2 -227.25 -187.7 -228.8 -187.7 -230.9 -186.45 -231.15 -186.45 M-234.5 -182.6 Q-232.1 -182.6 -231.05 -180.95 -230.5 -180.05 -230.1 -178.55 -231.7 -179.45 -235.15 -179.85 -237.4 -180.1 -238.0 -181.4 -237.15 -182.6 -234.5 -182.6 M-228.6 -171.1 Q-229.4 -170.45 -231.65 -170.5 L-235.85 -170.6 -235.95 -170.6 -236.3 -171.4 Q-236.3 -172.1 -234.4 -172.45 L-230.7 -173.0 Q-228.95 -173.25 -227.85 -175.1 L-227.85 -172.55 Q-227.8 -171.8 -228.6 -171.1 M-224.3 -161.2 L-222.9 -160.05 -224.5 -158.95 Q-225.4 -158.15 -226.35 -158.15 -226.9 -158.15 -227.75 -159.1 L-228.75 -160.5 -228.8 -160.6 Q-227.85 -161.75 -225.65 -161.75 -224.9 -161.75 -224.3 -161.2 M-233.3 -154.65 L-230.2 -152.65 Q-229.1 -151.95 -229.1 -150.6 L-232.55 -147.3 Q-232.8 -147.3 -233.2 -147.85 L-234.05 -149.6 -235.1 -150.5 -235.1 -150.65 -232.7 -150.75 Q-232.55 -150.85 -232.55 -151.65 L-233.3 -153.75 -233.3 -154.65 M-219.35 -157.65 L-219.35 -156.8 Q-220.4 -156.2 -220.9 -156.2 -221.45 -156.2 -222.45 -157.7 -221.75 -158.6 -221.05 -158.6 -220.65 -158.6 -219.35 -157.65 M-222.45 -148.85 Q-222.8 -148.15 -223.65 -147.45 L-223.65 -146.7 Q-221.8 -147.55 -220.2 -145.95 L-217.85 -143.0 Q-220.1 -143.75 -223.2 -143.75 L-224.2 -143.8 -224.95 -144.15 Q-227.9 -145.7 -227.9 -146.85 -227.9 -149.3 -224.35 -149.3 -222.8 -149.3 -222.45 -148.85 M-214.75 -139.2 L-213.65 -137.55 Q-212.3 -135.0 -212.3 -134.55 -212.3 -134.05 -214.1 -132.4 -215.65 -131.05 -216.65 -130.75 -216.5 -131.4 -216.5 -132.3 -216.5 -133.6 -218.5 -135.3 -220.55 -136.95 -220.55 -137.7 -219.95 -138.25 -220.1 -138.9 L-216.45 -139.35 -214.75 -139.2 M-222.6 -124.55 Q-223.75 -123.75 -224.1 -123.75 L-225.05 -123.9 Q-225.05 -125.3 -226.15 -125.3 -226.7 -125.3 -227.6 -124.2 -228.45 -123.1 -229.25 -123.15 L-234.0 -122.85 Q-237.25 -122.85 -238.4 -123.5 L-238.7 -123.75 Q-241.55 -124.95 -241.55 -125.8 -241.55 -126.8 -240.4 -127.0 -238.25 -127.35 -236.75 -128.15 L-234.8 -129.75 Q-233.8 -130.65 -233.05 -130.65 -232.05 -130.65 -229.9 -129.25 -227.7 -127.85 -227.1 -127.85 L-225.95 -129.1 Q-225.95 -130.5 -227.3 -131.25 L-224.2 -133.25 Q-222.9 -133.25 -221.85 -132.2 -220.35 -132.4 -221.15 -134.0 L-221.05 -134.1 Q-219.2 -133.45 -219.2 -130.5 -219.2 -128.7 -221.0 -125.9 -221.35 -125.35 -222.6 -124.55 M-245.7 -189.75 Q-247.65 -191.2 -247.65 -191.6 -247.65 -192.15 -246.85 -192.65 L-246.0 -193.1 -243.65 -192.5 -245.0 -191.35 Q-245.55 -190.8 -245.7 -189.75 M-260.45 -190.4 Q-261.5 -188.35 -261.5 -186.65 -261.5 -184.5 -259.45 -184.5 L-258.95 -184.6 -258.7 -184.95 -258.55 -185.05 Q-258.2 -185.5 -258.2 -186.35 -258.2 -187.45 -259.05 -188.4 -260.15 -189.7 -260.45 -190.4 M-254.55 -177.15 Q-253.05 -177.15 -251.6 -174.15 -252.25 -174.35 -253.55 -175.25 -254.9 -176.25 -255.25 -177.0 L-254.55 -177.15 M-260.1 -165.95 L-261.05 -167.6 -262.85 -166.4 Q-262.95 -165.6 -261.9 -164.55 L-260.15 -164.55 -260.1 -165.95 M-255.45 -148.95 Q-254.55 -148.5 -254.55 -147.4 -254.55 -145.4 -256.7 -145.5 -257.45 -145.5 -258.15 -144.85 -258.85 -144.2 -259.55 -144.2 L-260.3 -144.4 -260.45 -144.85 -260.6 -145.7 Q-260.6 -146.45 -259.45 -146.4 -258.1 -146.35 -257.6 -147.15 L-257.0 -149.8 -257.0 -150.65 Q-256.55 -149.6 -255.45 -148.95 M-262.7 -143.2 L-262.5 -142.8 -262.5 -143.3 -262.7 -143.2 Q-264.05 -142.55 -266.05 -140.05 -268.25 -137.35 -268.25 -136.2 -268.25 -134.55 -267.05 -133.35 -265.85 -132.2 -264.8 -132.5 L-262.75 -132.5 Q-261.45 -131.9 -259.95 -131.9 -259.1 -131.9 -259.1 -132.8 -259.1 -133.95 -261.4 -135.6 -263.7 -137.2 -263.7 -138.3 L-262.5 -142.8 M-260.3 -126.45 Q-260.3 -128.05 -257.75 -129.45 -257.75 -128.85 -256.75 -127.75 -255.75 -126.65 -255.45 -126.65 L-253.65 -127.85 Q-253.1 -127.85 -252.2 -127.1 -251.3 -126.35 -250.8 -126.35 -250.15 -126.35 -249.3 -127.6 -248.45 -128.85 -248.6 -129.45 -247.65 -128.7 -245.75 -128.05 -244.85 -127.7 -244.85 -126.35 -244.85 -125.85 -245.7 -124.6 -246.55 -123.3 -247.2 -123.0 L-252.0 -122.7 -256.7 -122.85 Q-259.05 -123.85 -259.25 -125.0 L-260.25 -125.4 -260.3 -126.45 Z" fill="none" stroke="#333333" stroke-linecap="round" stroke-linejoin="round" stroke-width="0.7000000000000001"/>
    <path d="M-242.4 -162.05 L-244.15 -162.85 Q-246.6 -164.15 -247.55 -164.15 -249.9 -164.15 -249.9 -161.85 L-248.6 -158.45 -248.75 -158.3 -250.35 -158.3 Q-254.45 -159.2 -255.3 -159.75 -256.4 -160.45 -256.4 -162.55 L-256.1 -164.8 Q-257.25 -167.45 -257.25 -168.35 -257.25 -169.5 -254.9 -169.5 -254.2 -169.5 -252.9 -168.7 -251.65 -167.9 -250.65 -167.9 -249.05 -167.9 -249.05 -169.25 -249.05 -170.05 -250.4 -171.0 L-252.05 -172.25 -252.55 -172.75 -252.85 -172.8 -255.75 -173.15 Q-257.2 -173.15 -257.65 -171.25 -258.15 -169.35 -259.25 -169.35 -260.5 -169.35 -261.5 -170.2 -262.5 -171.05 -262.5 -172.25 -260.75 -174.65 -260.75 -175.35 -261.9 -177.25 -261.9 -178.35 -261.9 -181.8 -259.6 -181.8 -259.15 -181.8 -258.2 -181.05 -257.3 -180.35 -255.6 -180.35 -254.7 -180.35 -254.2 -181.05 L-253.3 -181.8 Q-252.4 -181.8 -251.4 -180.7 L-249.75 -178.7 Q-248.75 -179.3 -248.75 -180.95 -248.75 -182.85 -249.75 -185.0 -250.9 -187.65 -252.0 -189.0 L-252.0 -189.65 -250.55 -189.65 Q-247.3 -188.75 -246.9 -185.0 -246.5 -181.5 -246.2 -181.5 -245.15 -181.5 -242.15 -183.8 -240.8 -184.8 -239.0 -184.8 L-239.0 -185.45 Q-239.95 -186.6 -243.2 -187.2 -243.0 -188.5 -240.95 -189.9 -239.05 -191.15 -238.1 -191.15 -234.9 -191.15 -233.1 -188.8 L-231.15 -186.45 Q-230.9 -186.45 -228.8 -187.7 -227.25 -187.7 -226.4 -184.2 -228.85 -185.9 -228.95 -184.05 L-228.1 -180.8 Q-227.65 -180.05 -226.2 -180.05 -225.6 -180.05 -224.45 -182.25 -222.9 -181.1 -222.9 -178.85 -222.9 -176.4 -223.9 -175.7 -224.85 -174.6 -224.3 -173.8 -223.8 -173.05 -223.3 -173.0 -222.85 -172.95 -220.05 -174.45 -218.85 -174.45 -217.8 -172.35 -216.85 -170.75 -217.8 -169.2 L-217.95 -169.2 Q-219.05 -170.6 -219.9 -170.6 -221.4 -170.6 -221.5 -168.8 L-221.6 -165.65 -224.5 -163.85 Q-225.4 -163.25 -227.4 -163.25 -228.75 -163.25 -231.45 -164.15 -234.15 -165.05 -235.4 -165.05 -238.25 -165.05 -239.15 -163.35 L-239.2 -163.3 Q-240.1 -161.6 -240.9 -161.6 -241.35 -161.6 -242.4 -162.05 M-228.6 -171.1 Q-227.8 -171.8 -227.85 -172.55 L-227.85 -175.1 Q-228.95 -173.25 -230.7 -173.0 L-234.4 -172.45 Q-236.3 -172.1 -236.3 -171.4 L-235.95 -170.6 -235.85 -170.6 -231.65 -170.5 Q-229.4 -170.45 -228.6 -171.1 M-234.5 -182.6 Q-237.15 -182.6 -238.0 -181.4 -237.4 -180.1 -235.15 -179.85 -231.7 -179.45 -230.1 -178.55 -230.5 -180.05 -231.05 -180.95 -232.1 -182.6 -234.5 -182.6 M-224.3 -161.2 L-222.9 -160.05 -224.5 -158.95 Q-225.4 -158.15 -226.35 -158.15 -226.9 -158.15 -227.75 -159.1 L-228.75 -160.5 -228.8 -160.6 Q-227.85 -161.75 -225.65 -161.75 -224.9 -161.75 -224.3 -161.2 M-219.35 -157.65 L-219.35 -156.8 Q-220.4 -156.2 -220.9 -156.2 -221.45 -156.2 -222.45 -157.7 -221.75 -158.6 -221.05 -158.6 -220.65 -158.6 -219.35 -157.65 M-245.7 -189.75 Q-247.65 -191.2 -247.65 -191.6 -247.65 -192.15 -246.85 -192.65 L-246.0 -193.1 -243.65 -192.5 -245.0 -191.35 Q-245.55 -190.8 -245.7 -189.75 M-260.1 -165.95 L-260.15 -164.55 -261.9 -164.55 Q-262.95 -165.6 -262.85 -166.4 L-261.05 -167.6 -260.1 -165.95 M-254.55 -177.15 L-255.25 -177.0 Q-254.9 -176.25 -253.55 -175.25 -252.25 -174.35 -251.6 -174.15 -253.05 -177.15 -254.55 -177.15 M-260.45 -190.4 Q-260.15 -189.7 -259.05 -188.4 -258.2 -187.45 -258.2 -186.35 -258.2 -185.5 -258.55 -185.05 L-258.7 -184.95 -258.95 -184.6 -259.45 -184.5 Q-261.5 -184.5 -261.5 -186.65 -261.5 -188.35 -260.45 -190.4" fill="#ffcc00" fill-rule="evenodd" stroke="none"/>
    <path d="M-242.4 -162.05 Q-241.35 -161.6 -240.9 -161.6 -240.1 -161.6 -239.2 -163.3 L-239.15 -163.35 -239.1 -163.3 Q-238.7 -162.1 -238.65 -159.85 L-238.65 -153.9 Q-238.55 -152.6 -236.2 -149.65 L-235.5 -148.8 -234.2 -147.15 Q-232.55 -145.0 -232.55 -144.05 -232.55 -143.05 -234.2 -140.9 -233.9 -138.75 -234.45 -138.15 -234.9 -137.7 -236.5 -137.7 L-240.85 -138.9 -246.35 -138.15 Q-247.9 -138.15 -249.5 -140.3 -250.25 -141.4 -251.2 -142.0 L-252.35 -142.85 -251.9 -143.3 Q-249.9 -143.45 -248.3 -145.8 L-244.55 -149.9 Q-243.95 -150.5 -243.45 -155.55 -242.9 -160.95 -242.4 -162.05" fill="#ff9900" fill-rule="evenodd" stroke="none"/>
    <path d="M-257.0 -149.8 L-257.0 -150.65 -256.65 -150.0 -257.0 -149.8 M-262.5 -142.8 L-262.7 -143.2 -262.5 -143.3 -262.5 -142.8" fill="#666666" fill-opacity="0.6" fill-rule="evenodd" stroke="none"/>
    <path d="M-262.75 -143.15 L-262.7 -143.2 -262.5 -142.8 -262.75 -143.15" fill="#999999" fill-rule="evenodd" stroke="none"/>
    <path d="M-233.3 -154.65 L-230.2 -152.65 Q-229.1 -151.95 -229.1 -150.6 L-232.55 -147.3 Q-232.8 -147.3 -233.2 -147.85 L-234.05 -149.6 -235.1 -150.5 -235.1 -150.65 -232.7 -150.75 Q-232.55 -150.85 -232.55 -151.65 L-233.3 -153.75 -233.3 -154.65 M-222.45 -148.85 Q-222.8 -148.15 -223.65 -147.45 L-223.65 -146.7 Q-221.8 -147.55 -220.2 -145.95 L-217.85 -143.0 Q-220.1 -143.75 -223.2 -143.75 L-224.2 -143.8 -224.95 -144.15 Q-227.9 -145.7 -227.9 -146.85 -227.9 -149.3 -224.35 -149.3 -222.8 -149.3 -222.45 -148.85 M-214.75 -139.2 L-213.65 -137.55 Q-212.3 -135.0 -212.3 -134.55 -212.3 -134.05 -214.1 -132.4 -215.65 -131.05 -216.65 -130.75 -216.5 -131.4 -216.5 -132.3 -216.5 -133.6 -218.5 -135.3 -220.55 -136.95 -220.55 -137.7 -219.95 -138.25 -220.1 -138.9 L-216.45 -139.35 -214.75 -139.2 M-222.6 -124.55 Q-223.75 -123.75 -224.1 -123.75 L-225.05 -123.9 Q-225.05 -125.3 -226.15 -125.3 -226.7 -125.3 -227.6 -124.2 -228.45 -123.1 -229.25 -123.15 L-234.0 -122.85 Q-237.25 -122.85 -238.4 -123.5 L-238.7 -123.75 Q-241.55 -124.95 -241.55 -125.8 -241.55 -126.8 -240.4 -127.0 -238.25 -127.35 -236.75 -128.15 L-234.8 -129.75 Q-233.8 -130.65 -233.05 -130.65 -232.05 -130.65 -229.9 -129.25 -227.7 -127.85 -227.1 -127.85 L-225.95 -129.1 Q-225.95 -130.5 -227.3 -131.25 L-224.2 -133.25 Q-222.9 -133.25 -221.85 -132.2 -220.35 -132.4 -221.15 -134.0 L-221.05 -134.1 Q-219.2 -133.45 -219.2 -130.5 -219.2 -128.7 -221.0 -125.9 -221.35 -125.35 -222.6 -124.55 M-256.65 -150.0 L-255.45 -148.95 Q-254.55 -148.5 -254.55 -147.4 -254.55 -145.4 -256.7 -145.5 -257.45 -145.5 -258.15 -144.85 -258.85 -144.2 -259.55 -144.2 L-260.3 -144.4 -260.45 -144.85 -260.6 -145.7 Q-260.6 -146.45 -259.45 -146.4 -258.1 -146.35 -257.6 -147.15 L-257.0 -149.8 -256.65 -150.0 M-262.75 -143.15 L-262.5 -142.8 -263.7 -138.3 Q-263.7 -137.2 -261.4 -135.6 -259.1 -133.95 -259.1 -132.8 -259.1 -131.9 -259.95 -131.9 -261.45 -131.9 -262.75 -132.5 L-264.8 -132.5 Q-265.85 -132.2 -267.05 -133.35 -268.25 -134.55 -268.25 -136.2 -268.25 -137.35 -266.05 -140.05 -264.1 -142.5 -262.75 -143.15 M-260.3 -126.45 Q-260.3 -128.05 -257.75 -129.45 -257.75 -128.85 -256.75 -127.75 -255.75 -126.65 -255.45 -126.65 L-253.65 -127.85 Q-253.1 -127.85 -252.2 -127.1 -251.3 -126.35 -250.8 -126.35 -250.15 -126.35 -249.3 -127.6 -248.45 -128.85 -248.6 -129.45 -247.65 -128.7 -245.75 -128.05 -244.85 -127.7 -244.85 -126.35 -244.85 -125.85 -245.7 -124.6 -246.55 -123.3 -247.2 -123.0 L-252.0 -122.7 -256.7 -122.85 Q-259.05 -123.85 -259.25 -125.0 L-260.25 -125.4 -260.3 -126.45" fill="#666666" fill-rule="evenodd" stroke="none"/>
  </g>
</svg>
