<?xml version="1.0" encoding="UTF-8" standalone="no"?>
<svg xmlns:ffdec="https://www.free-decompiler.com/flash" xmlns:xlink="http://www.w3.org/1999/xlink" ffdec:objectType="shape" height="66.95px" width="53.55px" xmlns="http://www.w3.org/2000/svg">
  <g transform="matrix(1.0, 0.0, 0.0, 1.0, 267.1, 192.05)">
    <path d="M-219.05 -175.25 Q-221.0 -175.05 -222.35 -172.15 -223.6 -169.5 -223.0 -168.75 L-224.1 -170.2 Q-224.85 -171.35 -226.25 -171.35 -228.0 -171.35 -228.0 -169.65 L-227.55 -167.7 Q-227.55 -166.9 -229.5 -166.8 L-230.05 -166.8 -236.0 -167.2 -236.05 -167.25 Q-238.85 -167.4 -239.7 -165.8 -240.45 -166.3 -240.45 -166.8 -240.45 -167.85 -236.1 -169.65 -231.8 -171.45 -231.8 -173.15 -231.8 -173.95 -232.35 -175.2 -232.95 -176.4 -232.95 -177.4 -232.95 -178.7 -234.45 -178.7 -235.4 -178.7 -236.65 -177.6 L-238.4 -176.0 Q-239.9 -175.75 -240.45 -176.7 L-241.4 -178.25 -240.8 -180.95 Q-240.8 -182.25 -242.85 -183.35 -243.15 -183.5 -243.95 -185.75 L-243.95 -187.25 -240.8 -186.45 Q-239.1 -186.45 -238.7 -189.3 -236.85 -191.55 -234.75 -191.55 -233.7 -191.55 -232.5 -190.5 -231.3 -189.45 -228.65 -189.45 -227.6 -189.45 -227.2 -189.1 -226.85 -188.75 -226.25 -188.75 -227.25 -187.05 -228.55 -186.3 -229.55 -185.8 -229.55 -185.2 -229.55 -184.8 -227.65 -183.05 -225.6 -181.15 -225.15 -179.25 -226.4 -179.05 -228.15 -177.95 -229.8 -176.9 -229.8 -176.4 L-229.8 -176.15 -229.75 -176.15 Q-226.9 -176.85 -225.6 -175.7 -224.3 -174.55 -222.3 -175.05 L-219.05 -175.25 M-233.75 -187.25 L-233.9 -187.25 -235.05 -186.25 Q-236.15 -185.15 -236.15 -184.4 L-235.85 -183.35 Q-235.45 -182.5 -233.25 -181.95 -230.9 -181.35 -230.1 -180.35 L-229.95 -181.5 Q-229.95 -182.85 -231.6 -183.25 -233.4 -183.65 -233.75 -187.25 M-228.5 -162.95 Q-227.6 -162.95 -227.15 -161.85 L-227.5 -161.55 -228.35 -160.55 -229.25 -160.55 -229.6 -160.7 -229.65 -160.7 Q-230.4 -161.15 -230.4 -162.0 -230.4 -162.65 -229.55 -162.85 L-228.9 -162.95 -228.5 -162.95 M-241.7 -163.85 L-241.25 -161.8 -239.55 -157.1 Q-239.15 -155.75 -238.8 -152.0 -238.25 -149.65 -236.3 -147.75 L-235.7 -147.2 -231.9 -143.9 Q-234.55 -144.15 -237.35 -141.55 -240.25 -138.9 -242.2 -138.9 -243.55 -138.9 -246.1 -140.05 -248.15 -141.0 -248.75 -141.8 L-249.0 -142.25 -249.2 -143.0 Q-249.2 -145.15 -247.7 -146.6 L-247.45 -146.85 Q-245.25 -148.75 -244.85 -149.75 -241.55 -155.8 -241.55 -157.3 L-241.75 -161.75 -241.85 -162.6 -241.85 -163.85 -241.7 -163.85 M-225.45 -158.8 L-225.4 -159.1 Q-225.25 -160.1 -224.0 -160.1 -223.2 -160.1 -222.4 -159.4 -221.75 -158.8 -221.75 -158.4 -221.75 -157.55 -222.05 -157.5 L-223.15 -157.5 Q-224.45 -158.4 -225.3 -157.85 L-225.35 -158.0 -225.45 -158.8 M-232.3 -150.75 Q-234.5 -150.45 -234.5 -152.15 -234.5 -153.6 -232.75 -153.6 L-230.75 -153.3 Q-229.95 -153.0 -229.95 -152.25 -229.95 -151.6 -230.8 -151.05 L-231.9 -150.75 -232.2 -150.75 -232.3 -150.75 M-224.55 -149.15 Q-223.1 -149.15 -222.75 -149.6 -220.4 -149.6 -218.9 -145.65 L-219.1 -145.0 Q-219.75 -143.85 -222.0 -145.65 L-223.35 -146.7 -223.65 -146.8 Q-227.15 -148.15 -227.15 -148.6 L-227.1 -148.9 Q-227.0 -149.75 -226.1 -149.75 L-224.55 -149.15 M-216.85 -141.95 L-216.15 -141.85 Q-215.25 -141.55 -214.65 -140.45 -213.9 -139.15 -213.9 -137.65 -213.9 -136.2 -215.1 -135.45 L-216.15 -134.85 -216.9 -134.5 Q-215.65 -136.2 -216.95 -137.85 -218.6 -139.3 -218.6 -140.65 -218.6 -141.95 -216.85 -141.95 M-218.9 -131.65 L-218.95 -130.8 -219.8 -129.75 -220.85 -129.9 -221.85 -130.65 -222.75 -130.65 Q-222.75 -128.9 -225.5 -128.9 -226.65 -128.9 -226.55 -129.95 L-225.95 -130.2 -224.65 -133.0 Q-223.35 -135.35 -222.6 -135.35 -221.2 -135.35 -220.0 -133.95 -218.9 -132.75 -218.9 -131.85 L-218.9 -131.65 M-236.4 -128.4 Q-234.55 -129.9 -233.45 -129.9 -232.7 -129.9 -231.9 -129.25 L-230.95 -128.5 -230.25 -128.0 -230.1 -127.7 -231.25 -126.85 Q-231.85 -125.95 -232.55 -125.75 L-235.65 -125.45 Q-236.9 -125.45 -237.45 -125.85 L-238.45 -126.55 -236.65 -128.2 -236.4 -128.4 M-252.1 -188.65 Q-253.5 -189.1 -254.1 -190.05 -252.6 -189.8 -251.4 -190.65 -249.9 -191.7 -249.25 -191.7 -247.05 -191.7 -247.05 -188.75 -247.05 -187.75 -247.35 -186.75 -248.2 -184.75 -248.85 -186.45 L-249.6 -187.4 -249.9 -187.7 -252.1 -188.65 M-258.35 -189.8 Q-257.95 -188.3 -256.65 -187.0 -255.5 -185.85 -255.5 -185.45 -255.5 -184.5 -257.1 -184.45 L-257.35 -184.45 -257.65 -184.6 -259.35 -185.6 Q-259.8 -186.0 -259.8 -187.65 L-259.7 -189.1 Q-258.9 -189.3 -258.35 -189.8 M-258.3 -181.55 L-259.25 -182.9 -258.35 -182.9 Q-254.6 -181.65 -253.8 -181.65 L-251.5 -181.95 Q-249.75 -181.95 -249.75 -179.75 -249.75 -178.85 -250.2 -177.7 -250.2 -177.05 -248.85 -175.75 L-247.45 -174.55 -246.9 -174.45 -244.6 -174.25 Q-242.7 -174.1 -242.7 -173.15 -242.7 -172.55 -243.8 -172.3 L-245.6 -171.9 Q-247.85 -169.95 -248.95 -169.95 -250.0 -169.95 -250.55 -170.8 L-251.45 -172.7 Q-251.8 -173.55 -253.4 -174.85 -254.85 -176.0 -255.35 -176.15 -257.65 -176.8 -257.55 -179.7 -257.5 -180.65 -258.3 -181.55 M-255.0 -179.55 L-255.65 -179.55 Q-255.65 -179.25 -255.95 -178.75 L-255.1 -177.95 Q-254.2 -177.5 -253.55 -177.5 -252.6 -177.85 -252.6 -178.25 -254.55 -179.05 -255.0 -179.55 M-252.1 -161.0 Q-252.5 -161.0 -253.5 -161.9 L-254.15 -162.6 -254.4 -163.2 -254.65 -163.55 -255.15 -164.15 -255.15 -166.55 Q-253.75 -166.55 -253.0 -165.8 -252.0 -165.8 -250.7 -166.4 -249.95 -165.65 -249.2 -165.5 L-247.85 -165.35 Q-248.55 -164.9 -249.3 -162.7 -249.55 -162.0 -249.95 -161.55 -250.75 -160.65 -252.1 -161.0 M-255.6 -170.5 Q-254.5 -169.8 -254.45 -169.1 -255.8 -168.9 -256.95 -166.55 -257.45 -165.45 -258.2 -165.05 -258.7 -164.8 -259.25 -164.8 L-259.85 -165.8 Q-260.3 -166.8 -260.3 -168.0 -260.3 -168.85 -259.2 -170.05 -258.15 -171.2 -257.5 -171.2 -256.6 -171.2 -255.6 -170.5 M-260.05 -136.4 Q-261.65 -135.65 -261.95 -135.65 L-264.8 -136.25 Q-266.75 -137.0 -266.75 -138.05 -266.75 -139.3 -265.35 -140.85 L-265.25 -141.0 -264.05 -142.6 -263.9 -143.1 -263.9 -142.5 -264.05 -141.95 -264.35 -140.05 Q-264.55 -137.8 -260.05 -136.4 M-257.35 -129.95 L-257.1 -129.9 -256.8 -130.1 -256.35 -130.2 -255.65 -130.2 Q-253.0 -130.15 -252.65 -129.6 -251.45 -129.6 -251.15 -130.0 -250.8 -130.35 -250.4 -132.05 L-250.25 -132.2 -250.2 -132.1 Q-249.4 -130.25 -248.65 -130.0 -248.35 -129.9 -248.3 -128.75 L-248.3 -128.2 Q-248.3 -126.65 -249.05 -126.35 L-251.6 -126.2 Q-259.85 -126.2 -259.85 -129.9 L-259.7 -130.8 -257.35 -129.95" fill="#000000" fill-rule="evenodd" stroke="none"/>
    <path d="M-219.05 -175.25 Q-221.0 -175.05 -222.35 -172.15 -223.6 -169.5 -223.0 -168.75 L-224.1 -170.2 Q-224.85 -171.35 -226.25 -171.35 -228.0 -171.35 -228.0 -169.65 L-227.55 -167.7 Q-227.55 -166.9 -229.5 -166.8 L-230.05 -166.8 -236.0 -167.2 -236.05 -167.25 Q-238.85 -167.4 -239.7 -165.8 -240.45 -166.3 -240.45 -166.8 -240.45 -167.85 -236.1 -169.65 -231.8 -171.45 -231.8 -173.15 -231.8 -173.95 -232.35 -175.2 -232.95 -176.4 -232.95 -177.4 -232.95 -178.7 -234.45 -178.7 -235.4 -178.7 -236.65 -177.6 L-238.4 -176.0 Q-239.9 -175.75 -240.45 -176.7 L-241.4 -178.25 -240.8 -180.95 Q-240.8 -182.25 -242.85 -183.35 -243.15 -183.5 -243.95 -185.75 L-243.95 -187.25 -240.8 -186.45 Q-239.1 -186.45 -238.7 -189.3 -236.85 -191.55 -234.75 -191.55 -233.7 -191.55 -232.5 -190.5 -231.3 -189.45 -228.65 -189.45 -227.6 -189.45 -227.2 -189.1 -226.85 -188.75 -226.25 -188.75 -227.25 -187.05 -228.55 -186.3 -229.55 -185.8 -229.55 -185.2 -229.55 -184.8 -227.65 -183.05 -225.6 -181.15 -225.15 -179.25 -226.4 -179.05 -228.15 -177.95 -229.8 -176.9 -229.8 -176.4 L-229.8 -176.15 -229.75 -176.15 Q-226.9 -176.85 -225.6 -175.7 -224.3 -174.55 -222.3 -175.05 L-219.05 -175.25 M-233.75 -187.25 Q-233.4 -183.65 -231.6 -183.25 -229.95 -182.85 -229.95 -181.5 L-230.1 -180.35 Q-230.9 -181.35 -233.25 -181.95 -235.45 -182.5 -235.85 -183.35 L-236.15 -184.4 Q-236.15 -185.15 -235.05 -186.25 L-233.9 -187.25 -233.75 -187.25 M-228.5 -162.95 Q-227.6 -162.95 -227.15 -161.85 L-227.5 -161.55 -228.35 -160.55 -229.25 -160.55 -229.6 -160.7 -229.65 -160.7 Q-230.4 -161.15 -230.4 -162.0 -230.4 -162.65 -229.55 -162.85 L-228.9 -162.95 -228.5 -162.95 M-241.7 -163.85 L-241.25 -161.8 -239.55 -157.1 Q-239.15 -155.75 -238.8 -152.0 -238.25 -149.65 -236.3 -147.75 L-235.7 -147.2 -231.9 -143.9 Q-234.55 -144.15 -237.35 -141.55 -240.25 -138.9 -242.2 -138.9 -243.55 -138.9 -246.1 -140.05 -248.15 -141.0 -248.75 -141.8 L-249.0 -142.25 -249.2 -143.0 Q-249.2 -145.15 -247.7 -146.6 L-247.45 -146.85 Q-245.25 -148.75 -244.85 -149.75 -241.55 -155.8 -241.55 -157.3 L-241.75 -161.75 -241.85 -162.6 -241.85 -163.85 -241.7 -163.85 M-225.45 -158.8 L-225.4 -159.1 Q-225.25 -160.1 -224.0 -160.1 -223.2 -160.1 -222.4 -159.4 -221.75 -158.8 -221.75 -158.4 -221.75 -157.55 -222.05 -157.5 L-223.15 -157.5 Q-224.45 -158.4 -225.3 -157.85 L-225.35 -158.0 -225.45 -158.8 M-232.3 -150.75 Q-234.5 -150.45 -234.5 -152.15 -234.5 -153.6 -232.75 -153.6 L-230.75 -153.3 Q-229.95 -153.0 -229.95 -152.25 -229.95 -151.6 -230.8 -151.05 L-231.9 -150.75 -232.2 -150.75 -232.3 -150.75 M-224.55 -149.15 Q-223.1 -149.15 -222.75 -149.6 -220.4 -149.6 -218.9 -145.65 L-219.1 -145.0 Q-219.75 -143.85 -222.0 -145.65 L-223.35 -146.7 -223.65 -146.8 Q-227.15 -148.15 -227.15 -148.6 L-227.1 -148.9 Q-227.0 -149.75 -226.1 -149.75 L-224.55 -149.15 M-216.85 -141.95 L-216.15 -141.85 Q-215.25 -141.55 -214.65 -140.45 -213.9 -139.15 -213.9 -137.65 -213.9 -136.2 -215.1 -135.45 L-216.15 -134.85 -216.9 -134.5 Q-215.65 -136.2 -216.95 -137.85 -218.6 -139.3 -218.6 -140.65 -218.6 -141.95 -216.85 -141.95 M-218.9 -131.65 L-218.95 -130.8 -219.8 -129.75 -220.85 -129.9 -221.85 -130.65 -222.75 -130.65 Q-222.75 -128.9 -225.5 -128.9 -226.65 -128.9 -226.55 -129.95 L-225.95 -130.2 -224.65 -133.0 Q-223.35 -135.35 -222.6 -135.35 -221.2 -135.35 -220.0 -133.95 -218.9 -132.75 -218.9 -131.85 L-218.9 -131.65 M-236.4 -128.4 Q-234.55 -129.9 -233.45 -129.9 -232.7 -129.9 -231.9 -129.25 L-230.95 -128.5 -230.25 -128.0 -230.1 -127.7 -231.25 -126.85 Q-231.85 -125.95 -232.55 -125.75 L-235.65 -125.45 Q-236.9 -125.45 -237.45 -125.85 L-238.45 -126.55 -236.65 -128.2 -236.4 -128.4 M-252.1 -188.65 Q-253.5 -189.1 -254.1 -190.05 -252.6 -189.8 -251.4 -190.65 -249.9 -191.7 -249.25 -191.7 -247.05 -191.7 -247.05 -188.75 -247.05 -187.75 -247.35 -186.75 -248.2 -184.75 -248.85 -186.45 L-249.6 -187.4 -249.9 -187.7 -252.1 -188.65 M-258.35 -189.8 Q-257.95 -188.3 -256.65 -187.0 -255.5 -185.85 -255.5 -185.45 -255.5 -184.5 -257.1 -184.45 L-257.35 -184.45 -257.65 -184.6 -259.35 -185.6 Q-259.8 -186.0 -259.8 -187.65 L-259.7 -189.1 Q-258.9 -189.3 -258.35 -189.8 M-255.0 -179.55 Q-254.55 -179.05 -252.6 -178.25 -252.6 -177.85 -253.55 -177.5 -254.2 -177.5 -255.1 -177.95 L-255.95 -178.75 Q-255.65 -179.25 -255.65 -179.55 L-255.0 -179.55 M-258.3 -181.55 Q-257.5 -180.65 -257.55 -179.7 -257.65 -176.8 -255.35 -176.15 -254.85 -176.0 -253.4 -174.85 -251.8 -173.55 -251.45 -172.7 L-250.55 -170.8 Q-250.0 -169.95 -248.95 -169.95 -247.85 -169.95 -245.6 -171.9 L-243.8 -172.3 Q-242.7 -172.55 -242.7 -173.15 -242.7 -174.1 -244.6 -174.25 L-246.9 -174.45 -247.45 -174.55 -248.85 -175.75 Q-250.2 -177.05 -250.2 -177.7 -249.75 -178.85 -249.75 -179.75 -249.75 -181.95 -251.5 -181.95 L-253.8 -181.65 Q-254.6 -181.65 -258.35 -182.9 L-259.25 -182.9 -258.3 -181.55 M-252.1 -161.0 Q-252.5 -161.0 -253.5 -161.9 L-254.15 -162.6 -254.4 -163.2 -254.65 -163.55 -255.15 -164.15 -255.15 -166.55 Q-253.75 -166.55 -253.0 -165.8 -252.0 -165.8 -250.7 -166.4 -249.95 -165.65 -249.2 -165.5 L-247.85 -165.35 Q-248.55 -164.9 -249.3 -162.7 -249.55 -162.0 -249.95 -161.55 -250.75 -160.65 -252.1 -161.0 M-255.6 -170.5 Q-254.5 -169.8 -254.45 -169.1 -255.8 -168.9 -256.95 -166.55 -257.45 -165.45 -258.2 -165.05 -258.7 -164.8 -259.25 -164.8 L-259.85 -165.8 Q-260.3 -166.8 -260.3 -168.0 -260.3 -168.85 -259.2 -170.05 -258.15 -171.2 -257.5 -171.2 -256.6 -171.2 -255.6 -170.5 M-257.35 -129.95 L-259.7 -130.8 -259.85 -129.9 Q-259.85 -126.2 -251.6 -126.2 L-249.05 -126.35 Q-248.3 -126.65 -248.3 -128.2 L-248.3 -128.75 Q-248.35 -129.9 -248.65 -130.0 -249.4 -130.25 -250.2 -132.1 L-250.25 -132.2 -250.4 -132.05 Q-250.8 -130.35 -251.15 -130.0 -251.45 -129.6 -252.65 -129.6 -253.0 -130.15 -255.65 -130.2 L-256.35 -130.2 -256.8 -130.1 -257.1 -129.9 -257.35 -129.95 M-260.05 -136.4 Q-264.55 -137.8 -264.35 -140.05 L-264.05 -141.95 -263.9 -142.5 -263.9 -143.1 -264.05 -142.6 -265.25 -141.0 -265.35 -140.85 Q-266.75 -139.3 -266.75 -138.05 -266.75 -137.0 -264.8 -136.25 L-261.95 -135.65 Q-261.65 -135.65 -260.05 -136.4 Z" fill="none" stroke="#333333" stroke-linecap="round" stroke-linejoin="round" stroke-width="0.7000000000000001"/>
    <path d="M-219.05 -175.25 Q-221.0 -175.05 -222.35 -172.15 -223.6 -169.5 -223.0 -168.75 L-224.1 -170.2 Q-224.85 -171.35 -226.25 -171.35 -228.0 -171.35 -228.0 -169.65 L-227.55 -167.7 Q-227.55 -166.9 -229.5 -166.8 L-230.05 -166.8 -236.0 -167.2 -236.05 -167.25 Q-238.85 -167.4 -239.7 -165.8 -240.45 -166.3 -240.45 -166.8 -240.45 -167.85 -236.1 -169.65 -231.8 -171.45 -231.8 -173.15 -231.8 -173.95 -232.35 -175.2 -232.95 -176.4 -232.95 -177.4 -232.95 -178.7 -234.45 -178.7 -235.4 -178.7 -236.65 -177.6 L-238.4 -176.0 Q-239.9 -175.75 -240.45 -176.7 L-241.4 -178.25 -240.8 -180.95 Q-240.8 -182.25 -242.85 -183.35 -243.15 -183.5 -243.95 -185.75 L-243.95 -187.25 -240.8 -186.45 Q-239.1 -186.45 -238.7 -189.3 -236.85 -191.55 -234.75 -191.55 -233.7 -191.55 -232.5 -190.5 -231.3 -189.45 -228.65 -189.45 -227.6 -189.45 -227.2 -189.1 -226.85 -188.75 -226.25 -188.75 -227.25 -187.05 -228.55 -186.3 -229.55 -185.8 -229.55 -185.2 -229.55 -184.8 -227.65 -183.05 -225.6 -181.15 -225.15 -179.25 -226.4 -179.05 -228.15 -177.95 -229.8 -176.9 -229.8 -176.4 L-229.8 -176.15 -229.75 -176.15 Q-226.9 -176.85 -225.6 -175.7 -224.3 -174.55 -222.3 -175.05 L-219.05 -175.25 M-233.75 -187.25 L-233.9 -187.25 -235.05 -186.25 Q-236.15 -185.15 -236.15 -184.4 L-235.85 -183.35 Q-235.45 -182.5 -233.25 -181.95 -230.9 -181.35 -230.1 -180.35 L-229.95 -181.5 Q-229.95 -182.85 -231.6 -183.25 -233.4 -183.65 -233.75 -187.25 M-252.1 -188.65 Q-253.5 -189.1 -254.1 -190.05 -252.6 -189.8 -251.4 -190.65 -249.9 -191.7 -249.25 -191.7 -247.05 -191.7 -247.05 -188.75 -247.05 -187.75 -247.35 -186.75 -248.2 -184.75 -248.85 -186.45 L-249.6 -187.4 -249.9 -187.7 -252.1 -188.65 M-258.35 -189.8 Q-257.95 -188.3 -256.65 -187.0 -255.5 -185.85 -255.5 -185.45 -255.5 -184.5 -257.1 -184.45 L-257.35 -184.45 -257.65 -184.6 -259.35 -185.6 Q-259.8 -186.0 -259.8 -187.65 L-259.7 -189.1 Q-258.9 -189.3 -258.35 -189.8 M-258.3 -181.55 L-259.25 -182.9 -258.35 -182.9 Q-254.6 -181.65 -253.8 -181.65 L-251.5 -181.95 Q-249.75 -181.95 -249.75 -179.75 -249.75 -178.85 -250.2 -177.7 -250.2 -177.05 -248.85 -175.75 L-247.45 -174.55 -246.9 -174.45 -244.6 -174.25 Q-242.7 -174.1 -242.7 -173.15 -242.7 -172.55 -243.8 -172.3 L-245.6 -171.9 Q-247.85 -169.95 -248.95 -169.95 -250.0 -169.95 -250.55 -170.8 L-251.45 -172.7 Q-251.8 -173.55 -253.4 -174.85 -254.85 -176.0 -255.35 -176.15 -257.65 -176.8 -257.55 -179.7 -257.5 -180.65 -258.3 -181.55 M-255.0 -179.55 L-255.65 -179.55 Q-255.65 -179.25 -255.95 -178.75 L-255.1 -177.95 Q-254.2 -177.5 -253.55 -177.5 -252.6 -177.85 -252.6 -178.25 -254.55 -179.05 -255.0 -179.55" fill="#ffff00" fill-rule="evenodd" stroke="none"/>
    <path d="M-241.7 -163.85 L-241.25 -161.8 -239.55 -157.1 Q-239.15 -155.75 -238.8 -152.0 -238.25 -149.65 -236.3 -147.75 L-235.7 -147.2 -231.9 -143.9 Q-234.55 -144.15 -237.35 -141.55 -240.25 -138.9 -242.2 -138.9 -243.55 -138.9 -246.1 -140.05 -248.15 -141.0 -248.75 -141.8 L-249.0 -142.25 -249.2 -143.0 Q-249.2 -145.15 -247.7 -146.6 L-247.45 -146.85 Q-245.25 -148.75 -244.85 -149.75 -241.55 -155.8 -241.55 -157.3 L-241.75 -161.75 -241.85 -162.6 -241.85 -163.85 -241.7 -163.85 M-225.45 -158.8 L-225.4 -159.1 Q-225.25 -160.1 -224.0 -160.1 -223.2 -160.1 -222.4 -159.4 -221.75 -158.8 -221.75 -158.4 -221.75 -157.55 -222.05 -157.5 L-223.15 -157.5 Q-224.45 -158.4 -225.3 -157.85 L-225.35 -158.0 -225.45 -158.8" fill="#ff9900" fill-rule="evenodd" stroke="none"/>
    <path d="M-250.4 -132.05 L-250.25 -132.2 -250.2 -132.1 -250.4 -132.05 M-264.05 -142.6 L-263.9 -143.1 -263.9 -142.5 -264.05 -142.6" fill="#8c8c8c" fill-rule="evenodd" stroke="none"/>
    <path d="M-264.05 -141.95 L-264.3 -142.15 -264.05 -142.6 -263.9 -142.5 -264.05 -141.95" fill="#666666" fill-opacity="0.4" fill-rule="evenodd" stroke="none"/>
    <path d="M-232.3 -150.75 Q-234.5 -150.45 -234.5 -152.15 -234.5 -153.6 -232.75 -153.6 L-230.75 -153.3 Q-229.95 -153.0 -229.95 -152.25 -229.95 -151.6 -230.8 -151.05 L-231.9 -150.75 -232.2 -150.75 -232.3 -150.75 M-224.55 -149.15 Q-223.1 -149.15 -222.75 -149.6 -220.4 -149.6 -218.9 -145.65 L-219.1 -145.0 Q-219.75 -143.85 -222.0 -145.65 L-223.35 -146.7 -223.65 -146.8 Q-227.15 -148.15 -227.15 -148.6 L-227.1 -148.9 Q-227.0 -149.75 -226.1 -149.75 L-224.55 -149.15 M-216.85 -141.95 L-216.15 -141.85 Q-215.25 -141.55 -214.65 -140.45 -213.9 -139.15 -213.9 -137.65 -213.9 -136.2 -215.1 -135.45 L-216.15 -134.85 -216.9 -134.5 Q-215.65 -136.2 -216.95 -137.85 -218.6 -139.3 -218.6 -140.65 -218.6 -141.95 -216.85 -141.95 M-218.9 -131.65 L-218.95 -130.8 -219.8 -129.75 -220.85 -129.9 -221.85 -130.65 -222.75 -130.65 Q-222.75 -128.9 -225.5 -128.9 -226.65 -128.9 -226.55 -129.95 L-225.95 -130.2 -224.65 -133.0 Q-223.35 -135.35 -222.6 -135.35 -221.2 -135.35 -220.0 -133.95 -218.9 -132.75 -218.9 -131.85 L-218.9 -131.65 M-236.4 -128.4 Q-234.55 -129.9 -233.45 -129.9 -232.7 -129.9 -231.9 -129.25 L-230.95 -128.5 -230.25 -128.0 -230.1 -127.7 -231.25 -126.85 Q-231.85 -125.95 -232.55 -125.75 L-235.65 -125.45 Q-236.9 -125.45 -237.45 -125.85 L-238.45 -126.55 -236.65 -128.2 -236.4 -128.4 M-250.2 -132.1 Q-249.4 -130.25 -248.65 -130.0 -248.35 -129.9 -248.3 -128.75 L-248.3 -128.2 Q-248.3 -126.65 -249.05 -126.35 L-251.6 -126.2 Q-259.85 -126.2 -259.85 -129.9 L-259.7 -130.8 -257.35 -129.95 -257.1 -129.9 -256.8 -130.1 -256.35 -130.2 -255.65 -130.2 Q-253.0 -130.15 -252.65 -129.6 -251.45 -129.6 -251.15 -130.0 -250.8 -130.35 -250.4 -132.05 L-250.2 -132.1 M-264.05 -141.95 L-264.35 -140.05 Q-264.55 -137.8 -260.05 -136.4 -261.65 -135.65 -261.95 -135.65 L-264.8 -136.25 Q-266.75 -137.0 -266.75 -138.05 -266.75 -139.3 -265.35 -140.85 L-265.25 -141.0 -264.3 -142.15 -264.05 -141.95" fill="#666666" fill-rule="evenodd" stroke="none"/>
    <path d="M-252.1 -161.0 Q-252.5 -161.0 -253.5 -161.9 L-254.15 -162.6 -254.4 -163.2 -254.65 -163.55 -255.15 -164.15 -255.15 -166.55 Q-253.75 -166.55 -253.0 -165.8 -252.0 -165.8 -250.7 -166.4 -249.95 -165.65 -249.2 -165.5 L-247.85 -165.35 Q-248.55 -164.9 -249.3 -162.7 -249.55 -162.0 -249.95 -161.55 -250.75 -160.65 -252.1 -161.0" fill="#ff9933" fill-rule="evenodd" stroke="none"/>
    <path d="M-228.5 -162.95 Q-227.6 -162.95 -227.15 -161.85 L-227.5 -161.55 -228.35 -160.55 -229.25 -160.55 -229.6 -160.7 -229.65 -160.7 Q-230.4 -161.15 -230.4 -162.0 -230.4 -162.65 -229.55 -162.85 L-228.9 -162.95 -228.5 -162.95 M-255.6 -170.5 Q-254.5 -169.8 -254.45 -169.1 -255.8 -168.9 -256.95 -166.55 -257.45 -165.45 -258.2 -165.05 -258.7 -164.8 -259.25 -164.8 L-259.85 -165.8 Q-260.3 -166.8 -260.3 -168.0 -260.3 -168.85 -259.2 -170.05 -258.15 -171.2 -257.5 -171.2 -256.6 -171.2 -255.6 -170.5" fill="#fea245" fill-rule="evenodd" stroke="none"/>
  </g>
</svg>
