<?xml version="1.0" encoding="UTF-8" standalone="no"?>
<svg xmlns:ffdec="https://www.free-decompiler.com/flash" xmlns:xlink="http://www.w3.org/1999/xlink" ffdec:objectType="shape" height="66.55px" width="52.05px" xmlns="http://www.w3.org/2000/svg">
  <g transform="matrix(1.0, 0.0, 0.0, 1.0, 266.5, 192.85)">
    <path d="M-227.7 -186.1 Q-227.55 -185.4 -227.8 -185.1 -228.05 -184.85 -228.2 -184.85 -228.45 -184.85 -230.15 -185.85 -231.8 -186.9 -233.6 -186.9 -235.7 -186.9 -235.7 -185.9 -235.7 -185.75 -232.9 -184.3 -229.75 -182.7 -228.65 -180.8 L-229.25 -180.2 Q-230.3 -180.95 -231.0 -180.95 -231.9 -180.95 -232.55 -180.1 -233.2 -179.25 -234.3 -179.25 L-234.35 -179.25 Q-235.55 -179.25 -236.4 -179.75 L-237.15 -180.35 Q-238.25 -181.5 -239.5 -181.5 L-241.3 -181.1 Q-239.75 -183.25 -239.7 -184.25 L-239.7 -184.35 Q-239.7 -185.9 -240.55 -185.9 L-240.9 -185.85 Q-242.45 -185.55 -245.25 -182.75 -244.85 -183.8 -244.65 -187.4 -244.6 -188.7 -244.05 -189.4 -243.45 -190.25 -242.25 -190.35 L-241.75 -190.4 Q-241.15 -190.4 -238.65 -189.3 -237.7 -187.85 -236.0 -192.5 -236.15 -190.45 -232.0 -188.6 -227.85 -186.8 -227.7 -186.1 M-229.55 -175.1 Q-228.5 -173.4 -224.55 -173.15 -220.95 -172.95 -219.95 -169.8 L-219.95 -168.2 Q-220.5 -168.95 -222.5 -168.95 -223.55 -168.95 -224.25 -168.5 L-224.85 -168.15 -225.35 -168.05 Q-226.0 -168.05 -226.85 -168.75 L-228.15 -169.8 -228.35 -169.3 Q-228.85 -168.25 -229.1 -167.95 -229.45 -167.4 -230.5 -167.4 -232.05 -167.4 -234.3 -168.45 -236.6 -169.45 -238.25 -169.5 -238.15 -170.4 -235.65 -170.35 -232.9 -170.35 -232.35 -170.9 L-231.4 -171.9 -230.0 -173.95 -229.7 -174.9 -229.55 -175.1 M-240.95 -165.8 Q-240.85 -164.6 -236.75 -159.2 -237.45 -158.55 -238.15 -155.8 L-238.65 -153.8 Q-238.65 -152.05 -237.1 -151.2 -235.55 -150.35 -235.55 -149.95 -235.55 -149.5 -237.9 -148.1 -240.35 -147.0 -241.4 -147.0 L-242.4 -147.1 -243.2 -147.35 Q-244.05 -147.75 -244.6 -148.6 -245.3 -149.65 -245.3 -150.45 -245.3 -151.55 -243.1 -153.35 -241.0 -155.1 -240.95 -157.05 L-240.95 -157.15 -242.0 -162.65 Q-242.0 -164.7 -241.1 -165.65 -240.95 -165.65 -240.95 -165.8 M-225.0 -149.35 L-224.75 -149.75 -223.8 -149.75 Q-223.2 -148.5 -221.65 -148.45 -219.7 -148.35 -218.75 -147.6 L-218.75 -147.3 -220.1 -147.3 -221.1 -147.6 -223.55 -146.9 -223.95 -146.85 -224.0 -146.85 -224.25 -147.0 -224.6 -147.4 -225.5 -148.6 -225.0 -149.35 M-217.7 -141.15 L-217.7 -141.2 -217.5 -141.05 -214.8 -137.7 Q-214.8 -136.5 -216.2 -136.35 L-217.8 -136.25 -217.7 -138.15 -218.1 -139.35 -218.15 -139.6 -217.7 -141.15 M-222.45 -132.15 Q-222.15 -131.7 -222.15 -130.8 -222.4 -130.5 -223.95 -130.5 L-226.65 -131.05 -226.9 -131.1 -227.15 -131.6 Q-227.15 -132.2 -225.05 -133.4 L-222.9 -134.5 -223.2 -133.4 Q-223.2 -132.8 -222.65 -132.35 L-222.45 -132.15 M-243.0 -141.7 Q-242.4 -141.65 -241.4 -140.6 -242.65 -139.65 -244.3 -139.65 -249.2 -139.95 -249.2 -142.7 -249.2 -143.15 -248.8 -143.5 L-248.45 -143.75 -247.65 -143.9 Q-246.8 -143.9 -245.1 -141.5 L-243.0 -141.7 M-236.0 -128.55 Q-236.0 -129.2 -234.95 -129.75 L-233.15 -130.2 Q-232.25 -130.2 -232.0 -129.8 L-231.85 -129.2 -231.6 -128.0 Q-233.05 -127.2 -234.05 -126.95 -235.4 -126.6 -235.8 -127.45 L-236.0 -128.55 M-249.6 -189.65 Q-251.1 -188.5 -251.15 -187.4 -254.3 -188.5 -254.3 -190.1 -254.3 -190.7 -253.2 -190.7 L-249.9 -189.8 -249.6 -189.65 M-253.55 -180.8 Q-252.05 -180.8 -252.15 -176.85 -251.65 -176.15 -250.1 -175.2 -248.7 -174.35 -248.45 -173.75 -250.15 -173.2 -250.5 -172.6 L-253.45 -172.45 Q-254.1 -172.6 -254.75 -173.05 L-254.95 -173.2 -255.6 -173.85 Q-257.2 -175.6 -258.8 -179.65 L-258.65 -182.25 Q-257.3 -180.85 -255.8 -180.45 L-255.1 -180.35 -254.8 -180.35 -253.8 -180.45 Q-253.45 -180.55 -253.55 -180.8 M-251.6 -164.25 L-251.45 -164.35 -251.45 -164.4 Q-250.95 -162.95 -248.9 -162.95 L-248.75 -161.85 Q-250.1 -161.6 -250.65 -160.75 L-250.85 -160.5 Q-252.45 -161.6 -252.45 -162.25 L-251.75 -163.9 -251.6 -164.25 M-256.0 -169.2 L-255.55 -168.75 Q-254.8 -168.0 -253.55 -167.2 -253.55 -165.55 -255.3 -165.5 L-256.2 -165.25 -256.4 -165.2 -256.9 -165.1 Q-258.75 -166.75 -257.85 -168.55 L-256.85 -170.75 Q-256.7 -170.0 -256.0 -169.2 M-256.5 -151.55 L-255.9 -151.4 -255.15 -150.35 Q-256.95 -149.2 -258.1 -149.15 L-258.1 -149.2 -258.2 -149.7 Q-258.2 -150.25 -257.35 -150.95 L-256.95 -151.25 -256.5 -151.55 M-255.95 -130.55 L-255.9 -130.65 Q-255.0 -129.75 -254.05 -129.75 L-253.95 -129.75 Q-250.85 -129.8 -249.7 -130.95 -249.05 -130.95 -249.05 -130.05 -249.05 -129.6 -249.95 -127.85 L-250.55 -127.55 Q-251.9 -126.9 -251.9 -126.65 L-253.35 -126.65 Q-254.65 -127.2 -255.15 -127.8 L-256.55 -129.45 -256.55 -130.2 -255.95 -130.55 M-265.7 -142.15 Q-264.5 -142.55 -263.1 -143.3 L-263.5 -138.3 -264.95 -138.65 Q-266.15 -139.2 -266.15 -140.05 -266.15 -141.85 -265.7 -142.15" fill="#000000" fill-rule="evenodd" stroke="none"/>
    <path d="M-227.7 -186.1 Q-227.55 -185.4 -227.8 -185.1 -228.05 -184.85 -228.2 -184.85 -228.45 -184.85 -230.15 -185.85 -231.8 -186.9 -233.6 -186.9 -235.7 -186.9 -235.7 -185.9 -235.7 -185.75 -232.9 -184.3 -229.75 -182.7 -228.65 -180.8 L-229.25 -180.2 Q-230.3 -180.95 -231.0 -180.95 -231.9 -180.95 -232.55 -180.1 -233.2 -179.25 -234.3 -179.25 L-234.35 -179.25 Q-235.55 -179.25 -236.4 -179.75 L-237.15 -180.35 Q-238.25 -181.5 -239.5 -181.5 L-241.3 -181.1 Q-239.75 -183.25 -239.7 -184.25 L-239.7 -184.35 Q-239.7 -185.9 -240.55 -185.9 L-240.9 -185.85 Q-242.45 -185.55 -245.25 -182.75 -244.85 -183.8 -244.65 -187.4 -244.6 -188.7 -244.05 -189.4 -243.45 -190.25 -242.25 -190.35 L-241.75 -190.4 Q-241.15 -190.4 -238.65 -189.3 -237.7 -187.85 -236.0 -192.5 -236.15 -190.45 -232.0 -188.6 -227.85 -186.8 -227.7 -186.1 M-229.55 -175.1 Q-228.5 -173.4 -224.55 -173.15 -220.95 -172.95 -219.95 -169.8 L-219.95 -168.2 Q-220.5 -168.95 -222.5 -168.95 -223.55 -168.95 -224.25 -168.5 L-224.85 -168.15 -225.35 -168.05 Q-226.0 -168.05 -226.85 -168.75 L-228.15 -169.8 -228.35 -169.3 Q-228.85 -168.25 -229.1 -167.95 -229.45 -167.4 -230.5 -167.4 -232.05 -167.4 -234.3 -168.45 -236.6 -169.45 -238.25 -169.5 -238.15 -170.4 -235.65 -170.35 -232.9 -170.35 -232.35 -170.9 L-231.4 -171.9 -230.0 -173.95 -229.7 -174.9 -229.55 -175.1 M-240.95 -165.8 Q-240.85 -164.6 -236.75 -159.2 -237.45 -158.55 -238.15 -155.8 L-238.65 -153.8 Q-238.65 -152.05 -237.1 -151.2 -235.55 -150.35 -235.55 -149.95 -235.55 -149.5 -237.9 -148.1 -240.35 -147.0 -241.4 -147.0 L-242.4 -147.1 -243.2 -147.35 Q-244.05 -147.75 -244.6 -148.6 -245.3 -149.65 -245.3 -150.45 -245.3 -151.55 -243.1 -153.35 -241.0 -155.1 -240.95 -157.05 L-240.95 -157.15 -242.0 -162.65 Q-242.0 -164.7 -241.1 -165.65 -240.95 -165.65 -240.95 -165.8 M-225.0 -149.35 L-224.75 -149.75 -223.8 -149.75 Q-223.2 -148.5 -221.65 -148.45 -219.7 -148.35 -218.75 -147.6 L-218.75 -147.3 -220.1 -147.3 -221.1 -147.6 -223.55 -146.9 -223.95 -146.85 -224.0 -146.85 -224.25 -147.0 -224.6 -147.4 -225.5 -148.6 -225.0 -149.35 M-217.7 -141.15 L-217.7 -141.2 -217.5 -141.05 -214.8 -137.7 Q-214.8 -136.5 -216.2 -136.35 L-217.8 -136.25 -217.7 -138.15 -218.1 -139.35 -218.15 -139.6 -217.7 -141.15 M-222.45 -132.15 Q-222.15 -131.7 -222.15 -130.8 -222.4 -130.5 -223.95 -130.5 L-226.65 -131.05 -226.9 -131.1 -227.15 -131.6 Q-227.15 -132.2 -225.05 -133.4 L-222.9 -134.5 -223.2 -133.4 Q-223.2 -132.8 -222.65 -132.35 L-222.45 -132.15 M-243.0 -141.7 L-245.1 -141.5 Q-246.8 -143.9 -247.65 -143.9 L-248.45 -143.75 -248.8 -143.5 Q-249.2 -143.15 -249.2 -142.7 -249.2 -139.95 -244.3 -139.65 -242.65 -139.65 -241.4 -140.6 -242.4 -141.65 -243.0 -141.7 M-236.0 -128.55 Q-236.0 -129.2 -234.95 -129.75 L-233.15 -130.2 Q-232.25 -130.2 -232.0 -129.8 L-231.85 -129.2 -231.6 -128.0 Q-233.05 -127.2 -234.05 -126.95 -235.4 -126.6 -235.8 -127.45 L-236.0 -128.55 M-249.6 -189.65 Q-251.1 -188.5 -251.15 -187.4 -254.3 -188.5 -254.3 -190.1 -254.3 -190.7 -253.2 -190.7 L-249.9 -189.8 -249.6 -189.65 M-253.55 -180.8 Q-252.05 -180.8 -252.15 -176.85 -251.65 -176.15 -250.1 -175.2 -248.7 -174.35 -248.45 -173.75 -250.15 -173.2 -250.5 -172.6 L-253.45 -172.45 Q-254.1 -172.6 -254.75 -173.05 L-254.95 -173.2 -255.6 -173.85 Q-257.2 -175.6 -258.8 -179.65 L-258.65 -182.25 Q-257.3 -180.85 -255.8 -180.45 L-255.1 -180.35 -254.8 -180.35 -253.8 -180.45 Q-253.45 -180.55 -253.55 -180.8 M-251.6 -164.25 L-251.45 -164.35 -251.45 -164.4 Q-250.95 -162.95 -248.9 -162.95 L-248.75 -161.85 Q-250.1 -161.6 -250.65 -160.75 L-250.85 -160.5 Q-252.45 -161.6 -252.45 -162.25 L-251.75 -163.9 -251.6 -164.25 M-256.0 -169.2 L-255.55 -168.75 Q-254.8 -168.0 -253.55 -167.2 -253.55 -165.55 -255.3 -165.5 L-256.2 -165.25 -256.4 -165.2 -256.9 -165.1 Q-258.75 -166.75 -257.85 -168.55 L-256.85 -170.75 Q-256.7 -170.0 -256.0 -169.2 M-255.95 -130.55 L-256.55 -130.2 -256.55 -129.45 -255.15 -127.8 Q-254.65 -127.2 -253.35 -126.65 L-251.9 -126.65 Q-251.9 -126.9 -250.55 -127.55 L-249.95 -127.85 Q-249.05 -129.6 -249.05 -130.05 -249.05 -130.95 -249.7 -130.95 -250.85 -129.8 -253.95 -129.75 L-254.05 -129.75 Q-255.0 -129.75 -255.9 -130.65 L-255.95 -130.55 M-265.7 -142.15 Q-264.5 -142.55 -263.1 -143.3 L-263.5 -138.3 -264.95 -138.65 Q-266.15 -139.2 -266.15 -140.05 -266.15 -141.85 -265.7 -142.15 Z" fill="none" stroke="#333333" stroke-linecap="round" stroke-linejoin="round" stroke-width="0.7000000000000001"/>
    <path d="M-240.95 -165.8 Q-240.85 -164.6 -236.75 -159.2 -237.45 -158.55 -238.15 -155.8 L-238.65 -153.8 Q-238.65 -152.05 -237.1 -151.2 -235.55 -150.35 -235.55 -149.95 -235.55 -149.5 -237.9 -148.1 -240.35 -147.0 -241.4 -147.0 L-242.4 -147.1 -243.2 -147.35 Q-244.05 -147.75 -244.6 -148.6 -245.3 -149.65 -245.3 -150.45 -245.3 -151.55 -243.1 -153.35 -241.0 -155.1 -240.95 -157.05 L-240.95 -157.15 -242.0 -162.65 Q-242.0 -164.7 -241.1 -165.65 -240.95 -165.65 -240.95 -165.8 M-251.6 -164.25 L-251.45 -164.35 -251.45 -164.4 Q-250.95 -162.95 -248.9 -162.95 L-248.75 -161.85 Q-250.1 -161.6 -250.65 -160.75 L-250.85 -160.5 Q-252.45 -161.6 -252.45 -162.25 L-251.75 -163.9 -251.6 -164.25" fill="#ffcc00" fill-rule="evenodd" stroke="none"/>
    <path d="M-227.7 -186.1 Q-227.55 -185.4 -227.8 -185.1 -228.05 -184.85 -228.2 -184.85 -228.45 -184.85 -230.15 -185.85 -231.8 -186.9 -233.6 -186.9 -235.7 -186.9 -235.7 -185.9 -235.7 -185.75 -232.9 -184.3 -229.75 -182.7 -228.65 -180.8 L-229.25 -180.2 Q-230.3 -180.95 -231.0 -180.95 -231.9 -180.95 -232.55 -180.1 -233.2 -179.25 -234.3 -179.25 L-234.35 -179.25 Q-235.55 -179.25 -236.4 -179.75 L-237.15 -180.35 Q-238.25 -181.5 -239.5 -181.5 L-241.3 -181.1 Q-239.75 -183.25 -239.7 -184.25 L-239.7 -184.35 Q-239.7 -185.9 -240.55 -185.9 L-240.9 -185.85 Q-242.45 -185.55 -245.25 -182.75 -244.85 -183.8 -244.65 -187.4 -244.6 -188.7 -244.05 -189.4 -243.45 -190.25 -242.25 -190.35 L-241.75 -190.4 Q-241.15 -190.4 -238.65 -189.3 -237.7 -187.85 -236.0 -192.5 -236.15 -190.45 -232.0 -188.6 -227.85 -186.8 -227.7 -186.1 M-229.55 -175.1 Q-228.5 -173.4 -224.55 -173.15 -220.95 -172.95 -219.95 -169.8 L-219.95 -168.2 Q-220.5 -168.95 -222.5 -168.95 -223.55 -168.95 -224.25 -168.5 L-224.85 -168.15 -225.35 -168.05 Q-226.0 -168.05 -226.85 -168.75 L-228.15 -169.8 -228.35 -169.3 Q-228.85 -168.25 -229.1 -167.95 -229.45 -167.4 -230.5 -167.4 -232.05 -167.4 -234.3 -168.45 -236.6 -169.45 -238.25 -169.5 -238.15 -170.4 -235.65 -170.35 -232.9 -170.35 -232.35 -170.9 L-231.4 -171.9 -230.0 -173.95 -229.7 -174.9 -229.55 -175.1 M-249.6 -189.65 Q-251.1 -188.5 -251.15 -187.4 -254.3 -188.5 -254.3 -190.1 -254.3 -190.7 -253.2 -190.7 L-249.9 -189.8 -249.6 -189.65 M-253.55 -180.8 Q-252.05 -180.8 -252.15 -176.85 -251.65 -176.15 -250.1 -175.2 -248.7 -174.35 -248.45 -173.75 -250.15 -173.2 -250.5 -172.6 L-253.45 -172.45 Q-254.1 -172.6 -254.75 -173.05 L-254.95 -173.2 -255.6 -173.85 Q-257.2 -175.6 -258.8 -179.65 L-258.65 -182.25 Q-257.3 -180.85 -255.8 -180.45 L-255.1 -180.35 -254.8 -180.35 -253.8 -180.45 Q-253.45 -180.55 -253.55 -180.8 M-256.0 -169.2 L-255.55 -168.75 Q-254.8 -168.0 -253.55 -167.2 -253.55 -165.55 -255.3 -165.5 L-256.2 -165.25 -256.4 -165.2 -256.9 -165.1 Q-258.75 -166.75 -257.85 -168.55 L-256.85 -170.75 Q-256.7 -170.0 -256.0 -169.2" fill="#ffff00" fill-rule="evenodd" stroke="none"/>
    <path d="M-243.0 -141.7 Q-242.4 -141.65 -241.4 -140.6 -242.65 -139.65 -244.3 -139.65 -249.2 -139.95 -249.2 -142.7 -249.2 -143.15 -248.8 -143.5 L-248.45 -143.75 -247.65 -143.9 Q-246.8 -143.9 -245.1 -141.5 L-243.0 -141.7" fill="#ff9900" fill-rule="evenodd" stroke="none"/>
    <path d="M-217.7 -141.15 L-217.7 -141.2 -217.5 -141.05 -217.7 -141.15" fill="#8c8c8c" fill-rule="evenodd" stroke="none"/>
    <path d="M-217.7 -141.1 L-217.7 -141.15 -217.5 -141.05 -217.7 -141.1" fill="#666666" fill-opacity="0.3019608" fill-rule="evenodd" stroke="none"/>
    <path d="M-225.0 -149.35 L-224.75 -149.75 -223.8 -149.75 Q-223.2 -148.5 -221.65 -148.45 -219.7 -148.35 -218.75 -147.6 L-218.75 -147.3 -220.1 -147.3 -221.1 -147.6 -223.55 -146.9 -223.95 -146.85 -224.0 -146.85 -224.25 -147.0 -224.6 -147.4 -225.5 -148.6 -225.0 -149.35 M-217.5 -141.05 L-214.8 -137.7 Q-214.8 -136.5 -216.2 -136.35 L-217.8 -136.25 -217.7 -138.15 -218.1 -139.35 -218.15 -139.6 -217.7 -141.1 -217.5 -141.05 M-222.45 -132.15 Q-222.15 -131.7 -222.15 -130.8 -222.4 -130.5 -223.95 -130.5 L-226.65 -131.05 -226.9 -131.1 -227.15 -131.6 Q-227.15 -132.2 -225.05 -133.4 L-222.9 -134.5 -223.2 -133.4 Q-223.2 -132.8 -222.65 -132.35 L-222.45 -132.15 M-236.0 -128.55 Q-236.0 -129.2 -234.95 -129.75 L-233.15 -130.2 Q-232.25 -130.2 -232.0 -129.8 L-231.85 -129.2 -231.6 -128.0 Q-233.05 -127.2 -234.05 -126.95 -235.4 -126.6 -235.8 -127.45 L-236.0 -128.55 M-256.5 -151.55 L-255.9 -151.4 -255.15 -150.35 Q-256.95 -149.2 -258.1 -149.15 L-258.1 -149.2 -258.2 -149.7 Q-258.2 -150.25 -257.35 -150.95 L-256.95 -151.25 -256.5 -151.55 M-255.95 -130.55 L-255.9 -130.65 Q-255.0 -129.75 -254.05 -129.75 L-253.95 -129.75 Q-250.85 -129.8 -249.7 -130.95 -249.05 -130.95 -249.05 -130.05 -249.05 -129.6 -249.95 -127.85 L-250.55 -127.55 Q-251.9 -126.9 -251.9 -126.65 L-253.35 -126.65 Q-254.65 -127.2 -255.15 -127.8 L-256.55 -129.45 -256.55 -130.2 -255.95 -130.55 M-265.7 -142.15 Q-264.5 -142.55 -263.1 -143.3 L-263.5 -138.3 -264.95 -138.65 Q-266.15 -139.2 -266.15 -140.05 -266.15 -141.85 -265.7 -142.15" fill="#666666" fill-rule="evenodd" stroke="none"/>
  </g>
</svg>
