<?xml version="1.0" encoding="UTF-8" standalone="no"?>
<svg xmlns:ffdec="https://www.free-decompiler.com/flash" xmlns:xlink="http://www.w3.org/1999/xlink" ffdec:objectType="shape" height="261.75px" width="191.3px" xmlns="http://www.w3.org/2000/svg">
  <g transform="matrix(1.0, 0.0, 0.0, 1.0, 107.2, 123.3)">
    <path d="M-105.7 136.95 L-105.7 -122.8 82.6 -122.8 82.6 -63.15 82.6 -51.6 82.6 -14.5 82.6 -12.1 82.6 -13.4 82.6 136.95 -105.7 136.95" fill="#ffffff" fill-rule="evenodd" stroke="none"/>
    <path d="M-105.7 136.95 L82.6 136.95" fill="none" stroke="#000000" stroke-linecap="round" stroke-linejoin="round" stroke-width="3.0"/>
    <path d="M82.6 -12.1 L82.6 -14.5 82.6 -51.6 82.6 -63.15 82.6 -122.8 -105.7 -122.8 -105.7 136.95 M82.6 136.95 L82.6 -13.4 82.6 -14.5" fill="none" stroke="#000000" stroke-linecap="round" stroke-linejoin="round" stroke-width="1.0"/>
    <path d="M-99.05 -115.8 L75.95 -115.8 75.95 129.9 -99.05 129.9 -99.05 -115.8" fill="#000000" fill-rule="evenodd" stroke="none"/>
    <path d="M31.0 98.4 Q31.0 100.95 29.95 102.85 28.9 104.7 27.2 105.9 26.05 106.65 24.05 107.1 25.6 107.65 26.35 108.3 L27.8 109.9 29.05 111.8 33.35 120.8 23.3 120.8 18.55 111.35 Q17.65 109.5 16.95 108.95 16.0 108.2 14.75 108.25 L14.0 108.25 14.0 120.8 5.1 120.8 5.1 89.8 19.9 89.8 Q23.95 89.75 26.15 90.55 28.3 91.35 29.65 93.4 31.0 95.4 31.0 98.4 M17.85 96.05 L14.0 96.05 14.0 102.35 17.7 102.35 20.1 101.95 Q20.95 101.75 21.55 100.95 22.05 100.15 22.05 99.15 22.05 97.65 21.2 96.85 20.3 96.0 17.85 96.05 M66.45 89.8 L56.0 101.5 66.9 120.8 56.0 120.8 49.95 108.05 45.4 113.25 45.4 120.8 36.55 120.8 36.55 89.8 45.4 89.8 45.4 101.5 54.7 89.8 66.45 89.8 M67.95 81.95 L-90.05 81.95 -90.05 -89.0 67.95 -89.0 67.95 81.95 M-64.95 98.5 L-73.3 99.05 Q-73.65 96.95 -74.75 96.0 -75.8 95.0 -77.7 95.05 -79.25 95.0 -80.0 95.75 -80.8 96.45 -80.8 97.5 -80.8 98.2 -80.1 98.85 -79.5 99.4 -77.15 99.95 -71.35 101.3 -68.85 102.7 -66.3 104.1 -65.15 106.1 -64.05 108.15 -64.05 110.75 -64.05 113.7 -65.5 116.2 -67.1 118.7 -69.85 120.0 -72.6 121.3 -76.7 121.3 -84.05 121.3 -86.85 118.3 -89.7 115.2 -90.05 110.55 L-81.6 109.95 Q-81.35 112.2 -80.5 113.35 -79.15 115.2 -76.6 115.2 -74.7 115.2 -73.65 114.25 -72.65 113.3 -72.6 112.0 -72.65 110.85 -73.6 109.9 -74.6 108.95 -78.15 108.1 -84.0 106.65 -86.45 104.3 -88.95 101.95 -88.95 98.35 -88.95 95.9 -87.65 93.85 -86.45 91.65 -83.85 90.5 -81.25 89.25 -76.8 89.25 -71.25 89.25 -68.35 91.5 -65.55 93.7 -64.95 98.5 M-50.7 89.8 L-50.7 100.65 -41.0 100.65 -41.0 89.8 -32.1 89.8 -32.1 120.8 -41.0 120.8 -41.0 108.3 -50.7 108.3 -50.7 120.8 -59.5 120.8 -59.5 89.8 -50.7 89.8 M-8.6 89.8 L2.15 120.8 -7.15 120.8 -8.55 115.65 -18.65 115.65 -20.05 120.8 -29.1 120.8 -18.3 89.8 -8.6 89.8 M-10.4 109.0 L-13.6 97.85 -16.75 109.0 -10.4 109.0" fill="#ffffff" fill-rule="evenodd" stroke="none"/>
    <path d="M39.15 -43.7 L-0.8 -32.8 Q-4.4 -41.6 -10.45 -44.75 -16.6 -47.85 -25.65 -45.95 -33.15 -44.35 -36.2 -40.35 -39.35 -36.55 -38.4 -32.05 -37.7 -28.8 -33.95 -26.85 -30.35 -24.8 -18.45 -24.85 10.95 -24.9 24.55 -21.3 38.0 -17.85 45.55 -10.0 53.05 -2.15 55.55 9.0 58.35 22.05 53.4 34.7 48.45 47.3 36.5 55.9 24.5 64.35 4.3 68.65 -31.15 76.1 -47.7 65.6 -64.3 55.15 -70.6 34.9 L-30.4 23.75 Q-26.95 33.15 -21.7 37.45 -13.25 44.35 -0.95 41.7 8.2 39.75 12.3 34.55 16.25 29.25 15.05 23.7 13.9 18.35 8.25 15.2 2.6 12.0 -15.45 11.95 -45.05 11.7 -59.3 3.9 -73.75 -3.85 -77.25 -19.8 -79.55 -30.35 -75.3 -40.95 -71.25 -51.65 -59.9 -59.55 -48.7 -67.6 -27.0 -72.15 -0.35 -77.8 15.8 -71.05 31.9 -64.3 39.15 -43.7" fill="#000000" fill-rule="evenodd" stroke="none"/>
  </g>
</svg>
