<?xml version="1.0" encoding="UTF-8" standalone="no"?>
<svg xmlns:ffdec="https://www.free-decompiler.com/flash" xmlns:xlink="http://www.w3.org/1999/xlink" ffdec:objectType="shape" height="9.3px" width="105.25px" xmlns="http://www.w3.org/2000/svg">
  <g transform="matrix(1.0, 0.0, 0.0, 1.0, 52.6, 4.65)">
    <path d="M48.5 -4.45 L50.2 -4.3 Q50.95 -4.05 51.5 -3.45 L52.4 -2.0 52.65 0.2 52.4 2.05 51.45 3.7 Q50.95 4.15 50.2 4.4 L48.6 4.6 45.2 4.6 45.2 -4.45 48.5 -4.45 M47.0 -2.9 L47.0 3.05 48.35 3.05 49.45 3.0 50.2 2.6 50.65 1.75 50.85 0.1 50.65 -1.55 50.15 -2.4 49.3 -2.85 47.8 -2.9 47.0 -2.9 M43.5 -2.9 L38.7 -2.9 38.7 -0.95 43.2 -0.95 43.2 0.6 38.7 0.6 38.7 3.05 43.7 3.05 43.7 4.6 36.9 4.6 36.9 -4.45 43.5 -4.45 43.5 -2.9 M35.7 -4.45 L35.7 -2.9 33.05 -2.9 33.05 4.6 31.25 4.6 31.25 -2.9 28.65 -2.9 28.65 -4.45 35.7 -4.45 M26.0 -4.45 L29.6 4.6 27.65 4.6 26.8 2.55 23.25 2.55 22.55 4.6 20.6 4.6 24.05 -4.45 26.0 -4.45 M16.75 -2.9 L15.4 -2.9 14.05 -2.9 14.05 -0.65 15.3 -0.65 17.0 -0.75 17.45 -1.15 17.65 -1.85 17.45 -2.5 Q17.2 -2.85 16.75 -2.9 M6.85 -2.9 L4.25 -2.9 4.25 4.6 2.4 4.6 2.4 -2.9 -0.2 -2.9 -0.2 -4.45 6.85 -4.45 6.85 -2.9 M18.1 -4.2 L19.1 -3.35 Q19.5 -2.75 19.5 -1.95 19.5 -0.9 18.9 -0.2 18.3 0.45 17.15 0.6 17.75 0.95 18.15 1.4 L19.15 2.85 20.25 4.6 18.1 4.6 16.8 2.6 15.85 1.35 15.3 0.9 14.4 0.8 14.05 0.8 14.05 4.6 12.2 4.6 12.2 -4.45 16.0 -4.45 18.1 -4.2 M26.3 1.0 L25.05 -2.4 23.85 1.0 26.3 1.0 M-18.1 -2.9 L-20.7 -2.9 -20.7 4.6 -22.5 4.6 -22.5 -2.9 -25.15 -2.9 -25.15 -4.45 -18.1 -4.45 -18.1 -2.9 M-10.3 -2.9 L-15.05 -2.9 -15.05 -0.95 -10.6 -0.95 -10.6 0.6 -15.05 0.6 -15.05 3.05 -10.15 3.05 -10.15 4.6 -16.95 4.6 -16.95 -4.45 -10.3 -4.45 -10.3 -2.9 M-6.8 -4.45 L-3.15 1.55 -3.15 -4.45 -1.5 -4.45 -1.5 4.6 -3.25 4.6 -6.9 -1.3 -6.9 4.6 -8.6 4.6 -8.6 -4.45 -6.8 -4.45 M-36.15 -3.4 Q-34.95 -2.1 -34.95 0.1 -34.95 2.25 -36.15 3.5 -37.0 4.35 -38.2 4.65 L-40.45 4.65 Q-41.65 4.35 -42.45 3.5 -43.65 2.3 -43.65 0.15 -43.65 -1.25 -43.2 -2.2 L-42.4 -3.4 -41.25 -4.25 Q-40.45 -4.65 -39.3 -4.65 -37.35 -4.65 -36.15 -3.4 M-31.75 -4.45 L-28.1 1.55 -28.1 -4.45 -26.45 -4.45 -26.45 4.6 -28.2 4.6 -31.85 -1.3 -31.85 4.6 -33.55 4.6 -33.55 -4.45 -31.75 -4.45 M-37.5 -2.3 Q-38.15 -3.05 -39.3 -3.05 -40.45 -3.05 -41.1 -2.3 -41.8 -1.5 -41.8 0.05 -41.8 1.6 -41.1 2.35 -40.4 3.15 -39.3 3.2 -38.2 3.15 -37.55 2.4 -36.85 1.6 -36.85 0.05 -36.85 -1.55 -37.5 -2.3 M-48.5 -3.05 Q-49.5 -3.05 -50.1 -2.35 -50.75 -1.6 -50.7 0.05 -50.75 1.75 -50.15 2.45 -49.5 3.15 -48.55 3.2 -47.8 3.15 -47.25 2.75 -46.75 2.25 -46.55 1.3 L-44.8 1.8 Q-45.2 3.3 -46.15 4.05 -46.7 4.45 -47.4 4.65 L-49.55 4.65 -51.45 3.5 Q-52.6 2.3 -52.6 0.2 -52.6 -2.1 -51.45 -3.35 -50.3 -4.65 -48.35 -4.65 -46.75 -4.65 -45.75 -3.6 -45.15 -3.05 -44.85 -2.0 L-46.6 -1.55 Q-46.75 -2.25 -47.25 -2.6 -47.8 -3.05 -48.5 -3.05" fill="#ffffff" fill-rule="evenodd" stroke="none"/>
  </g>
</svg>
