<?xml version="1.0" encoding="UTF-8" standalone="no"?>
<svg xmlns:ffdec="https://www.free-decompiler.com/flash" xmlns:xlink="http://www.w3.org/1999/xlink" ffdec:objectType="shape" height="33.25px" width="311.85px" xmlns="http://www.w3.org/2000/svg">
  <g transform="matrix(1.0, 0.0, 0.0, 1.0, 155.9, 16.65)">
    <path d="M95.8 -16.0 L108.75 6.7 108.45 -16.0 115.2 -16.0 115.2 15.6 107.5 15.6 93.95 -8.3 94.25 15.6 87.4 15.6 87.4 -16.0 95.8 -16.0 M141.05 -16.0 Q148.7 -16.0 152.35 -12.0 155.95 -8.0 155.95 0.35 155.95 4.7 154.75 7.8 153.55 10.9 151.1 12.85 149.25 14.35 147.1 15.0 L141.25 15.6 126.6 15.6 126.6 -16.0 141.05 -16.0 M22.7 -16.0 L22.7 2.6 Q22.7 5.35 22.95 6.5 23.2 7.6 23.8 8.3 24.75 9.4 26.1 9.9 L29.9 10.35 37.75 10.35 37.75 15.6 29.35 15.6 Q24.9 15.6 22.75 14.85 20.6 14.1 18.9 12.3 17.35 10.65 16.7 8.6 16.05 6.55 16.05 2.8 L16.05 -16.0 22.7 -16.0 M66.15 -16.0 L79.65 15.6 72.25 15.6 69.35 8.1 55.6 8.1 52.8 15.6 45.75 15.6 59.1 -16.0 66.15 -16.0 M62.4 -9.7 L57.75 2.45 67.15 2.45 62.4 -9.7 M-1.7 3.6 Q-2.75 2.75 -5.35 2.75 L-13.2 2.75 Q-18.65 2.75 -21.15 0.6 -23.7 -1.6 -23.7 -6.3 -23.7 -11.35 -21.05 -13.65 -18.4 -16.0 -12.6 -16.0 L4.75 -16.0 4.75 -10.35 -11.65 -10.35 Q-14.3 -10.35 -15.5 -9.35 -16.75 -8.4 -16.75 -6.25 -16.75 -4.5 -15.7 -3.65 -14.65 -2.8 -12.55 -2.8 L-3.8 -2.8 Q1.7 -2.8 4.0 -0.75 6.3 1.35 6.3 6.15 6.3 11.0 3.65 13.3 0.95 15.6 -4.75 15.6 L-22.45 15.6 -22.45 9.95 -5.8 9.95 Q-2.95 9.95 -1.8 9.15 -0.65 8.3 -0.65 6.4 -0.65 4.45 -1.7 3.6 M148.7 -0.2 Q148.7 -6.05 147.05 -8.25 145.35 -10.5 140.95 -10.5 L133.25 -10.5 133.25 10.1 140.95 10.1 Q145.35 10.1 147.05 7.9 148.7 5.65 148.7 -0.2 M-54.05 -16.0 L-54.05 2.9 Q-54.05 7.35 -52.45 9.1 -50.85 10.85 -46.95 10.85 -43.05 10.85 -41.45 9.1 -39.85 7.35 -39.85 2.9 L-39.85 -16.0 -33.25 -16.0 -33.25 3.1 Q-33.25 6.45 -33.65 8.45 -34.1 10.45 -35.1 11.6 -36.95 13.85 -39.85 14.9 -42.7 15.95 -46.95 15.95 -51.2 15.95 -54.1 14.9 -57.0 13.85 -58.9 11.6 -59.85 10.45 -60.25 8.55 -60.7 6.6 -60.7 3.1 L-60.7 -16.0 -54.05 -16.0 M-77.0 -16.6 L-76.15 -16.65 Q-74.25 -16.45 -74.4 -13.45 -74.55 -10.45 -75.15 -5.65 -75.6 -1.75 -75.25 2.1 -74.7 7.25 -69.25 14.05 -75.05 9.55 -86.1 9.85 -97.15 10.15 -111.75 16.6 -109.25 13.0 -107.35 11.1 L-94.55 -2.15 Q-83.85 -13.4 -77.0 -16.6 M-146.15 -16.0 L-138.05 8.25 -130.0 -16.0 -120.3 -16.0 -120.3 15.6 -126.8 15.6 -126.3 -9.0 -134.4 15.6 -141.45 15.6 -149.8 -9.25 -149.1 15.6 -155.9 15.6 -155.9 -16.0 -146.15 -16.0" fill="#ffffff" fill-rule="evenodd" stroke="none"/>
  </g>
</svg>
