<?xml version="1.0" encoding="UTF-8" standalone="no"?>
<svg xmlns:ffdec="https://www.free-decompiler.com/flash" xmlns:xlink="http://www.w3.org/1999/xlink" ffdec:objectType="shape" height="55.8px" width="159.75px" xmlns="http://www.w3.org/2000/svg">
  <g transform="matrix(1.0, 0.0, 0.0, 1.0, 57.8, -91.3)">
    <path d="M-48.25 92.8 L-41.6 92.8 -41.15 92.95 -40.85 93.35 -35.6 106.8 Q-35.45 107.1 -35.6 107.4 L-36.05 107.85 -36.65 107.8 -37.1 107.4 -42.2 94.45 -47.4 94.45 -47.4 103.35 -47.65 103.9 -48.25 104.15 -48.8 103.9 -49.05 103.35 -49.05 93.65 -48.8 93.1 Q-48.6 92.8 -48.25 92.8" fill="#ffffff" fill-rule="evenodd" stroke="none"/>
    <path d="M96.55 104.15 Q96.35 104.4 96.4 104.75 L96.7 105.3 97.3 105.45 97.85 105.15 M86.9 103.2 Q86.65 103.45 86.7 103.85 L86.95 104.4 Q87.2 104.6 87.55 104.6 87.9 104.55 88.1 104.3" fill="none" stroke="#000000" stroke-linecap="round" stroke-linejoin="round" stroke-width="4.0"/>
    <path d="M37.7 100.0 Q37.65 100.7 38.15 101.2 38.65 101.65 39.35 101.7 40.0 101.65 40.5 101.2 40.95 100.7 40.95 100.0" fill="none" stroke="#000000" stroke-linecap="round" stroke-linejoin="round" stroke-width="2.0"/>
    <path d="M-48.25 92.8 Q-48.6 92.8 -48.8 93.1 L-49.05 93.65 -49.05 103.35 -48.8 103.9 -48.25 104.15 -47.65 103.9 -47.4 103.35 -47.4 94.45 -42.2 94.45 -37.1 107.4 -36.65 107.8 -36.05 107.85 -35.6 107.4 Q-35.45 107.1 -35.6 106.8 L-40.85 93.35 -41.15 92.95 -41.6 92.8 -48.25 92.8 Z" fill="none" stroke="#000000" stroke-linecap="round" stroke-linejoin="round" stroke-width="3.0"/>
    <path d="M-42.2 94.45 L-47.4 94.45 -47.4 103.35 -47.65 103.9 -48.25 104.15 -48.8 103.9 -49.05 103.35 -49.05 93.65 -48.8 93.1 Q-48.6 92.8 -48.25 92.8 L-41.6 92.8 -41.15 92.95 -40.85 93.35 -35.6 106.8 Q-35.45 107.1 -35.6 107.4 L-36.05 107.85 -36.65 107.8 -37.1 107.4 -42.2 94.45" fill="#ffffff" fill-rule="evenodd" stroke="none"/>
    <path d="M24.05 101.75 L24.05 101.6 Q23.95 97.4 19.65 97.4 L3.55 97.4 Q-0.75 97.4 -0.85 101.6 L-0.85 102.05 -8.1 102.05 -0.85 102.05 24.05 102.05 24.05 101.75 M31.9 102.05 L24.05 102.05 31.9 102.05 56.8 102.05 Q56.65 97.4 52.4 97.4 L36.25 97.4 Q31.95 97.4 31.9 102.05 M64.95 102.05 L56.8 102.05 64.95 102.05 100.95 102.05 88.4 119.65 Q84.6 126.5 74.05 126.7 L45.0 126.3 34.2 143.4 Q31.9 146.35 28.0 146.1 L7.95 145.2 13.65 125.85 -21.55 125.4 Q-34.75 125.1 -44.55 121.85 -51.55 119.5 -56.8 115.65 L-49.6 102.05 -8.1 102.05 -4.35 93.0 44.3 93.0 50.8 93.9 Q55.35 94.95 58.65 97.2 L64.95 102.05" fill="#ffffff" fill-rule="evenodd" stroke="none"/>
    <path d="M-0.85 101.6 Q-0.75 97.4 3.55 97.4 L19.65 97.4 Q23.95 97.4 24.05 101.6 L24.05 101.75 24.05 102.05 -0.85 102.05 -0.85 101.6 M31.9 102.05 Q31.95 97.4 36.25 97.4 L52.4 97.4 Q56.65 97.4 56.8 102.05 L31.9 102.05" fill="#000000" fill-rule="evenodd" stroke="none"/>
    <path d="M24.05 101.75 L24.05 102.05 31.9 102.05 56.8 102.05 64.95 102.05 58.65 97.2 Q55.35 94.95 50.8 93.9 L44.3 93.0 -4.35 93.0 -8.1 102.05 -0.85 102.05 -0.85 101.6 M-8.1 102.05 L-49.6 102.05 -56.8 115.65 Q-51.55 119.5 -44.55 121.85 -34.75 125.1 -21.55 125.4 L13.65 125.85 7.95 145.2 28.0 146.1 Q31.9 146.35 34.2 143.4 L45.0 126.3 74.05 126.7 Q84.6 126.5 88.4 119.65 L100.95 102.05 64.95 102.05 M24.05 102.05 L-0.85 102.05" fill="none" stroke="#000000" stroke-linecap="round" stroke-linejoin="round" stroke-width="2.0"/>
    <path d="M24.05 101.75 L24.05 101.6 Q23.95 97.4 19.65 97.4 L3.55 97.4 Q-0.75 97.4 -0.85 101.6 L-0.85 102.05 -8.1 102.05 -4.35 93.0 44.3 93.0 50.8 93.9 Q55.35 94.95 58.65 97.2 L64.95 102.05 56.8 102.05 Q56.65 97.4 52.4 97.4 L36.25 97.4 Q31.95 97.4 31.9 102.05 L24.05 102.05 24.05 101.75" fill="#ffffff" fill-rule="evenodd" stroke="none"/>
    <path d="M-0.85 101.6 Q-0.75 97.4 3.55 97.4 L19.65 97.4 Q23.95 97.4 24.05 101.6 L24.05 101.75 24.05 102.05 -0.85 102.05 -0.85 101.6 M31.9 102.05 Q31.95 97.4 36.25 97.4 L52.4 97.4 Q56.65 97.4 56.8 102.05 L31.9 102.05" fill="#000000" fill-rule="evenodd" stroke="none"/>
    <path d="M44.95 126.3 L34.2 143.4 Q31.9 146.35 28.0 146.1 L7.95 145.2 13.65 125.85 44.95 126.3" fill="url(#gradient0)" fill-rule="evenodd" stroke="none"/>
    <path d="M24.05 102.05 L31.9 102.05 56.8 102.05 64.95 102.05 100.95 102.05 88.4 119.65 Q84.6 126.5 74.05 126.7 L44.95 126.3 13.65 125.85 -21.55 125.4 Q-34.75 125.1 -44.55 121.85 -51.55 119.5 -56.8 115.65 L-49.6 102.05 -8.1 102.05 -0.85 102.05 24.05 102.05" fill="url(#gradient1)" fill-rule="evenodd" stroke="none"/>
    <path d="M24.05 101.75 L24.05 102.05 31.9 102.05 56.8 102.05 64.95 102.05 58.65 97.2 Q55.35 94.95 50.8 93.9 L44.3 93.0 -4.35 93.0 -8.1 102.05 -0.85 102.05 -0.85 101.6 M44.95 126.3 L74.05 126.7 Q84.6 126.5 88.4 119.65 L100.95 102.05 64.95 102.05 M44.95 126.3 L34.2 143.4 Q31.9 146.35 28.0 146.1 L7.95 145.2 13.65 125.85 -21.55 125.4 Q-34.75 125.1 -44.55 121.85 -51.55 119.5 -56.8 115.65 L-49.6 102.05 -8.1 102.05 M13.65 125.85 L44.95 126.3 M24.05 102.05 L-0.85 102.05" fill="none" stroke="#000000" stroke-linecap="round" stroke-linejoin="round" stroke-width="0.05"/>
    <path d="M100.95 102.05 L88.4 119.65 Q84.6 126.5 74.05 126.7 L-21.55 125.4 Q-34.75 125.1 -44.55 121.85 -51.55 119.5 -56.8 115.65 L-49.6 102.05 100.95 102.05" fill="url(#gradient2)" fill-rule="evenodd" stroke="none"/>
  </g>
  <defs>
    <linearGradient gradientTransform="matrix(0.0, -0.0113, 0.0226, 0.0, 27.35, 129.75)" gradientUnits="userSpaceOnUse" id="gradient0" spreadMethod="pad" x1="-819.2" x2="819.2">
      <stop offset="0.3333333333333333" stop-color="#aeaeae"/>
      <stop offset="0.6" stop-color="#808080"/>
    </linearGradient>
    <linearGradient gradientTransform="matrix(-0.086, -0.0091, 0.0016, -0.015, 56.0, 116.1)" gradientUnits="userSpaceOnUse" id="gradient1" spreadMethod="pad" x1="-819.2" x2="819.2">
      <stop offset="0.2549019607843137" stop-color="#959595"/>
      <stop offset="0.6" stop-color="#ffffff" stop-opacity="0.0"/>
    </linearGradient>
    <linearGradient gradientTransform="matrix(0.0, -0.0389, 0.0963, 0.0, 23.3, 103.5)" gradientUnits="userSpaceOnUse" id="gradient2" spreadMethod="pad" x1="-819.2" x2="819.2">
      <stop offset="0.2549019607843137" stop-color="#6f6f6f"/>
      <stop offset="0.6" stop-color="#ffffff" stop-opacity="0.0"/>
    </linearGradient>
  </defs>
</svg>
