<?xml version="1.0" encoding="UTF-8" standalone="no"?>
<svg xmlns:ffdec="https://www.free-decompiler.com/flash" xmlns:xlink="http://www.w3.org/1999/xlink" ffdec:objectType="shape" height="141.4px" width="157.55px" xmlns="http://www.w3.org/2000/svg">
  <g transform="matrix(1.0, 0.0, 0.0, 1.0, 78.75, 70.2)">
    <path d="M7.25 -41.45 Q5.9 -40.95 4.5 -37.1 L3.65 -34.55 Q1.8 -28.4 2.0 -20.95 2.15 -13.5 3.9 -7.65 L4.3 -6.4 4.35 -6.3 Q5.95 -1.7 8.2 -1.15 L9.6 -1.0 17.4 25.75 17.35 25.85 17.3 25.9 13.2 30.5 11.95 31.45 3.75 36.85 Q-4.0 41.6 -6.35 41.9 -8.75 42.15 -10.55 38.45 L-11.95 35.35 -12.3 34.55 -15.45 24.0 -20.2 6.55 -20.9 3.65 Q-21.95 -0.9 -21.9 -6.3 -21.85 -11.7 -17.9 -18.25 L-13.3 -26.0 -13.05 -26.55 -12.45 -27.7 Q-10.95 -30.85 -10.1 -34.1 -6.8 -38.45 -6.0 -44.1 3.4 -44.55 7.65 -42.65 L7.25 -41.45" fill="#014e6d" fill-rule="evenodd" stroke="none"/>
    <path d="M8.85 -42.0 L7.25 -41.45 7.65 -42.65 8.85 -42.0 M-39.1 -34.7 Q-41.15 -29.2 -41.3 -24.0 -41.5 -18.85 -40.55 -6.6 -40.4 -3.4 -42.85 2.4 -45.3 8.15 -45.55 12.6 -45.85 17.05 -45.1 24.3 -45.1 30.55 -45.5 39.3 L-45.65 42.05 -50.3 42.15 -50.9 42.2 -50.3 42.15 -50.9 42.55 -50.9 42.2 -51.3 33.1 Q-51.9 25.9 -52.65 21.75 L-53.05 19.35 -53.05 19.25 Q-53.8 14.65 -54.15 9.75 -54.65 3.55 -52.45 -10.75 -50.95 -20.75 -48.05 -28.6 L-45.25 -35.0 -39.15 -34.65 -39.1 -34.7" fill="#013c54" fill-rule="evenodd" stroke="none"/>
    <path d="M8.85 -42.0 L8.95 -41.9 Q12.2 -39.8 15.8 -34.0 11.5 -37.1 4.5 -37.1 5.9 -40.95 7.25 -41.45 L8.85 -42.0" fill="#013043" fill-rule="evenodd" stroke="none"/>
    <path d="M4.5 -37.1 Q11.5 -37.1 15.8 -34.0 15.9 -33.9 16.05 -33.85 L19.05 -32.05 Q21.9 -30.45 26.55 -24.55 31.1 -18.75 42.85 -7.35 L42.75 -7.25 Q41.0 -7.85 37.8 -6.0 34.9 -4.5 32.4 -2.5 L29.9 -0.35 28.8 0.75 26.7 3.0 Q24.7 5.3 24.15 7.0 23.65 8.55 24.05 9.25 L22.15 8.05 18.8 5.05 14.45 0.25 Q13.5 -0.75 12.4 -2.5 11.15 -1.15 9.6 -1.0 L8.2 -1.15 Q5.95 -1.7 4.35 -6.3 L4.3 -6.4 3.9 -7.65 Q2.15 -13.5 2.0 -20.95 1.8 -28.4 3.65 -34.55 L4.5 -37.1 M8.45 -10.65 Q10.55 -5.6 12.35 -2.6 L12.4 -2.5 12.35 -2.6 6.35 -7.1 12.35 -2.6 Q10.55 -5.6 8.45 -10.65 M18.05 31.05 Q18.0 35.45 17.15 40.2 L15.25 49.6 12.3 58.4 Q11.4 61.3 11.65 62.9 11.85 64.4 11.35 69.5 L-2.1 68.55 Q-8.75 56.35 -13.6 51.5 -22.15 42.9 -38.9 41.8 L-38.8 30.45 Q-37.95 22.75 -36.3 16.25 L-34.3 7.8 Q-33.15 2.35 -32.75 -3.65 L-32.6 -6.75 -32.25 -13.85 -32.3 -16.15 -32.35 -24.0 -32.2 -26.4 Q-30.1 -23.6 -25.6 -23.1 -19.0 -22.75 -13.7 -26.7 L-12.45 -27.7 -13.05 -26.55 -13.3 -26.0 -17.9 -18.25 Q-21.85 -11.7 -21.9 -6.3 -21.95 -0.9 -20.9 3.65 L-20.2 6.55 -15.45 24.0 -12.3 34.55 -11.95 35.35 -10.55 38.45 Q-8.75 42.15 -6.35 41.9 L-8.8 43.4 Q-7.1 46.45 -4.95 46.2 -2.6 45.9 5.15 41.15 12.9 36.35 14.6 34.8 L18.05 31.05 M-48.05 -28.6 Q-50.95 -20.75 -52.45 -10.75 -54.65 3.55 -54.15 9.75 -53.8 14.65 -53.05 19.25 L-57.65 17.85 Q-60.75 16.7 -62.75 15.2 L-64.6 13.8 -58.8 -9.3 Q-55.1 -23.35 -48.05 -28.6" fill="#ffffff" fill-rule="evenodd" stroke="none"/>
    <path d="M43.05 -7.15 Q43.8 -6.7 42.4 -4.25 L41.65 -3.0 40.95 -3.55 37.8 -6.0 Q41.0 -7.85 42.75 -7.25 L43.05 -7.15 M31.85 6.4 L32.2 6.5 Q30.8 7.8 28.4 8.75 L25.1 9.7 Q24.35 9.7 24.05 9.25 23.65 8.55 24.15 7.0 24.7 5.3 26.7 3.0 L26.6 3.15 31.85 6.4" fill="#b3b3b3" fill-rule="evenodd" stroke="none"/>
    <path d="M56.95 33.85 L57.2 34.8 57.1 34.6 56.95 33.85 M44.6 45.75 L44.35 46.05 44.35 46.1 44.35 46.05 44.35 46.1 43.95 46.4 44.3 46.05 44.35 46.05 44.6 45.75 M-68.4 46.05 L-67.65 46.35 -69.05 47.7 -68.4 46.05" fill="#ffcc99" fill-rule="evenodd" stroke="none"/>
    <path d="M54.05 46.45 L78.8 48.9 78.35 55.9 57.6 53.9 57.55 53.45 Q56.6 52.6 55.4 50.1 L53.65 46.75 53.95 46.55 54.05 46.45" fill="#333333" fill-rule="evenodd" stroke="none"/>
    <path d="M-21.6 -58.9 Q-28.25 -60.95 -30.95 -60.0 L-32.05 -60.0 -32.05 -51.8 -33.45 -50.6 -34.2 -50.05 -33.45 -50.6 -33.35 -49.2 -34.15 -49.75 -33.35 -49.2 -33.3 -46.85 -33.9 -46.9 -33.9 -48.25 -34.15 -49.75 -34.2 -50.05 -35.0 -51.7 Q-36.0 -53.1 -37.2 -53.0 -38.35 -52.95 -39.05 -51.6 -39.2 -53.9 -38.85 -57.1 -38.2 -62.6 -35.1 -66.2 -32.0 -69.85 -25.2 -70.15 -18.45 -70.45 -13.5 -68.4 -10.25 -67.0 -8.85 -62.6 -8.3 -60.75 -8.05 -58.35 -9.0 -60.3 -10.3 -62.0 L-10.6 -62.35 -10.45 -61.95 Q-14.0 -62.55 -17.3 -57.95 L-17.6 -57.55 -21.6 -58.9" fill="#000000" fill-rule="evenodd" stroke="none"/>
    <path d="M-45.65 42.05 L-45.5 39.3 Q-45.1 30.55 -45.1 24.3 -45.85 17.05 -45.55 12.6 -45.3 8.15 -42.85 2.4 -40.4 -3.4 -40.55 -6.6 -41.5 -18.85 -41.3 -24.0 -41.15 -29.2 -39.1 -34.7 L-36.25 -37.2 Q-35.25 -35.25 -33.85 -33.5 L-33.3 -32.85 -34.0 -31.85 Q-35.35 -29.5 -35.4 -25.45 L-35.3 -16.1 -35.8 -6.7 Q-36.2 -1.15 -37.35 3.85 L-39.35 11.65 Q-41.0 17.65 -41.85 24.75 L-42.0 40.65 Q-42.35 41.3 -43.0 41.65 L-44.1 42.05 -45.65 42.05" fill="#015376" fill-rule="evenodd" stroke="none"/>
    <path d="M41.65 -3.0 Q46.95 1.4 48.75 6.55 L53.1 20.05 56.95 33.85 57.1 34.6 57.2 34.8 58.75 38.9 Q58.75 42.6 54.05 46.45 L53.95 46.55 53.65 46.75 55.4 50.1 Q56.6 52.6 57.55 53.45 L57.6 53.9 56.3 55.45 Q54.85 55.5 54.0 54.9 L53.0 54.0 Q51.75 55.75 50.65 55.75 49.4 55.75 47.8 54.15 L46.75 53.0 Q44.25 50.05 44.25 47.35 L44.35 46.1 44.35 46.05 44.6 45.75 47.05 42.25 Q47.7 41.3 48.55 40.5 L50.4 39.0 50.45 38.95 50.2 38.25 50.1 37.9 45.95 27.1 Q42.35 18.0 38.95 10.35 35.55 2.7 33.25 1.8 L32.55 1.5 Q30.75 0.65 29.9 -0.35 L32.4 -2.5 Q34.9 -4.5 37.8 -6.0 L40.95 -3.55 41.65 -3.0 M49.2 47.05 Q49.6 49.05 51.8 52.5 L53.0 54.0 51.8 52.5 Q49.6 49.05 49.2 47.05 M-12.45 -27.7 L-13.7 -26.7 Q-19.0 -22.75 -25.6 -23.1 -30.1 -23.6 -32.2 -26.4 -33.8 -28.5 -34.0 -31.85 L-33.2 -32.7 -31.0 -30.65 Q-27.25 -27.6 -22.45 -27.5 L-22.2 -27.5 -19.0 -27.85 Q-17.55 -29.9 -16.7 -32.55 -15.95 -34.95 -15.6 -37.75 L-12.85 -37.25 -15.4 -47.25 -14.4 -47.4 -15.4 -47.25 -15.55 -47.2 Q-16.05 -52.15 -17.3 -57.95 -14.0 -62.55 -10.45 -61.95 L-10.6 -62.35 -10.3 -62.0 Q-9.0 -60.3 -8.05 -58.35 -6.3 -54.75 -5.85 -50.5 -6.25 -51.0 -6.95 -51.3 -8.35 -51.95 -10.2 -51.6 -12.1 -51.25 -13.3 -50.05 -14.55 -48.95 -14.4 -47.65 L-14.4 -47.4 Q-14.2 -46.3 -12.9 -45.7 L-9.65 -45.45 Q-7.8 -45.85 -6.55 -46.95 L-5.75 -48.0 -5.75 -47.9 Q-5.75 -45.95 -6.0 -44.1 -6.8 -38.45 -10.1 -34.1 -10.95 -30.85 -12.45 -27.7 M-38.9 41.8 Q-22.15 42.9 -13.6 51.5 -8.75 56.35 -2.1 68.55 L-17.3 67.5 -73.75 59.35 Q-72.15 56.25 -69.05 47.7 L-67.65 46.35 -68.4 46.05 -59.65 24.6 -57.65 17.85 -53.05 19.25 -53.05 19.35 -52.65 21.75 Q-51.9 25.9 -51.3 33.1 L-57.5 42.35 -54.55 42.25 -50.9 42.2 -50.9 42.55 -50.3 42.15 -45.65 42.05 -45.65 42.1 -44.1 42.05 -43.0 41.65 -42.0 41.7 -38.9 41.8 M-12.7 -34.35 Q-14.65 -33.15 -16.7 -32.55 -14.65 -33.15 -12.7 -34.35 M-10.1 -34.1 L-10.6 -33.5 -11.05 -32.9 -11.55 -32.4 Q-13.2 -30.6 -15.1 -29.45 -16.95 -28.35 -19.0 -27.85 -16.95 -28.35 -15.1 -29.45 -13.2 -30.6 -11.55 -32.4 L-11.05 -32.9 -10.6 -33.5 -10.1 -34.1 M-57.5 42.35 Q-63.35 42.95 -67.65 46.35 -63.35 42.95 -57.5 42.35" fill="#fec289" fill-rule="evenodd" stroke="none"/>
    <path d="M44.35 46.1 L44.25 47.35 Q44.25 50.05 46.75 53.0 L47.8 54.15 Q47.4 55.65 45.95 55.65 45.2 55.65 43.55 54.55 L41.85 53.25 Q40.65 51.85 40.65 49.2 40.65 47.25 41.5 45.5 L43.95 46.4 44.35 46.1" fill="#ffe1c4" fill-rule="evenodd" stroke="none"/>
    <path d="M29.9 -0.35 Q30.75 0.65 32.55 1.5 L33.25 1.8 Q35.55 2.7 38.95 10.35 42.35 18.0 45.95 27.1 L50.1 37.9 50.2 38.25 50.45 38.95 50.4 39.0 48.55 40.5 Q47.7 41.3 47.05 42.25 L44.6 45.75 44.35 46.05 44.3 46.05 43.95 46.4 41.5 45.5 41.65 45.15 42.75 43.4 Q43.5 42.4 46.25 39.75 L46.4 39.6 46.45 39.6 46.2 39.65 Q37.7 17.25 32.45 6.75 L32.1 6.35 31.85 6.4 26.6 3.15 26.7 3.0 28.8 0.75 29.9 -0.35 M47.1 38.95 L46.45 39.6 47.1 38.95 M-20.6 -32.1 L-16.7 -32.55 Q-17.55 -29.9 -19.0 -27.85 L-22.2 -27.5 -22.45 -27.5 Q-21.35 -29.65 -20.6 -32.1" fill="#fed3ab" fill-rule="evenodd" stroke="none"/>
    <path d="M-33.45 -50.6 L-32.05 -51.8 -32.05 -60.0 -30.95 -60.0 Q-28.25 -60.95 -21.6 -58.9 -20.25 -53.25 -19.7 -48.3 L-19.85 -48.4 Q-21.6 -49.25 -23.9 -49.05 -26.25 -48.85 -27.8 -47.7 L-29.0 -46.35 -33.35 -49.2 -29.0 -46.35 -29.25 -45.1 Q-29.1 -43.7 -27.35 -42.8 -25.65 -41.95 -23.3 -42.15 -20.95 -42.4 -19.4 -43.5 L-19.35 -43.55 Q-19.2 -37.15 -20.6 -32.1 -21.35 -29.65 -22.45 -27.5 -27.25 -27.6 -31.0 -30.65 L-33.2 -32.7 -33.3 -32.85 -33.85 -33.5 Q-35.25 -35.25 -36.25 -37.2 -37.85 -40.3 -38.35 -43.95 L-38.65 -44.35 Q-39.65 -45.8 -39.75 -47.8 -39.95 -49.85 -39.2 -51.4 L-39.05 -51.6 Q-38.35 -52.95 -37.2 -53.0 -36.0 -53.1 -35.0 -51.7 L-34.2 -50.05 -34.15 -49.75 -33.9 -48.25 -33.9 -46.9 -33.3 -46.85 -33.35 -49.2 -33.45 -50.6 M-38.35 -43.95 Q-38.0 -43.55 -36.35 -43.25 -38.0 -43.55 -38.35 -43.95 M-24.85 -33.0 L-24.25 -32.75 -20.6 -32.1 -24.25 -32.75 -24.85 -33.0 M-57.65 17.85 L-59.65 24.6 -68.4 46.05 -69.05 47.7 Q-72.15 56.25 -73.75 59.35 L-75.5 59.1 -73.75 59.35 Q-75.55 62.75 -75.5 59.5 L-75.5 59.1 -78.55 58.65 -78.5 58.3 Q-78.45 56.65 -77.15 52.8 -75.4 47.65 -71.45 38.55 -63.9 21.6 -62.75 15.2 -60.75 16.7 -57.65 17.85" fill="#fedcbc" fill-rule="evenodd" stroke="none"/>
    <path d="M17.3 25.9 L17.75 26.25 18.05 31.05 14.6 34.8 Q12.9 36.35 5.15 41.15 -2.6 45.9 -4.95 46.2 -7.1 46.45 -8.8 43.4 L-6.35 41.9 Q-4.0 41.6 3.75 36.85 L11.95 31.45 13.2 30.5 17.3 25.9 M-32.2 -26.4 L-32.35 -24.0 -32.3 -16.15 -32.25 -13.85 -32.6 -6.75 -32.75 -3.65 Q-33.15 2.35 -34.3 7.8 L-36.3 16.25 Q-37.95 22.75 -38.8 30.45 L-38.9 41.8 -42.0 41.7 -42.0 40.65 -41.85 24.75 Q-41.0 17.65 -39.35 11.65 L-37.35 3.85 Q-36.2 -1.15 -35.8 -6.7 L-35.3 -16.1 -35.4 -25.45 Q-35.35 -29.5 -34.0 -31.85 -33.8 -28.5 -32.2 -26.4" fill="#cccccc" fill-rule="evenodd" stroke="none"/>
    <path d="M-21.6 -58.9 L-17.6 -57.55 -17.3 -57.95 Q-16.05 -52.15 -15.55 -47.2 L-18.15 -46.8 -15.55 -47.2 -15.4 -47.25 -12.85 -37.25 -15.6 -37.75 Q-15.95 -34.95 -16.7 -32.55 L-20.6 -32.1 Q-19.2 -37.15 -19.35 -43.55 -17.85 -44.7 -17.95 -46.1 L-18.05 -46.6 -18.15 -46.8 Q-18.55 -47.7 -19.7 -48.3 -20.25 -53.25 -21.6 -58.9 M-18.9 -38.35 L-15.6 -37.75 -18.9 -38.35" fill="#fecfa3" fill-rule="evenodd" stroke="none"/>
    <path d="M-29.0 -46.35 L-27.8 -47.7 Q-26.25 -48.85 -23.9 -49.05 -21.6 -49.25 -19.85 -48.4 L-19.7 -48.3 Q-18.55 -47.7 -18.15 -46.8 L-18.05 -46.6 -17.95 -46.1 Q-17.85 -44.7 -19.35 -43.55 L-19.4 -43.5 Q-20.95 -42.4 -23.3 -42.15 -25.65 -41.95 -27.35 -42.8 -29.1 -43.7 -29.25 -45.1 L-29.0 -46.35" fill="url(#gradient0)" fill-rule="evenodd" stroke="none"/>
    <path d="M-14.4 -47.4 L-14.4 -47.65 Q-14.55 -48.95 -13.3 -50.05 -12.1 -51.25 -10.2 -51.6 -8.35 -51.95 -6.95 -51.3 -6.25 -51.0 -5.85 -50.5 L-5.75 -48.0 -6.55 -46.95 Q-7.8 -45.85 -9.65 -45.45 L-12.9 -45.7 Q-14.2 -46.3 -14.4 -47.4" fill="url(#gradient1)" fill-rule="evenodd" stroke="none"/>
    <path d="M9.6 -1.0 Q11.15 -1.15 12.4 -2.5 13.5 -0.75 14.45 0.25 L18.8 5.05 22.15 8.05 Q22.3 11.75 21.05 17.25 19.8 22.7 17.4 25.75 L9.6 -1.0" fill="#01425c" fill-rule="evenodd" stroke="none"/>
    <path d="M-19.0 -27.85 Q-16.95 -28.35 -15.1 -29.45 -13.2 -30.6 -11.55 -32.4 L-11.05 -32.9 -10.6 -33.5 -10.1 -34.1 M-33.2 -32.7 L-31.0 -30.65 Q-27.25 -27.6 -22.45 -27.5" fill="none" stroke="#666666" stroke-linecap="round" stroke-linejoin="round" stroke-width="0.05"/>
    <path d="M15.8 -34.0 Q12.2 -39.8 8.95 -41.9 L8.85 -42.0 7.25 -41.45 Q5.9 -40.95 4.5 -37.1 11.5 -37.1 15.8 -34.0 15.9 -33.9 16.05 -33.85 L19.05 -32.05 Q21.9 -30.45 26.55 -24.55 31.1 -18.75 42.85 -7.35 L43.05 -7.15 Q43.8 -6.7 42.4 -4.25 L41.65 -3.0 Q46.95 1.4 48.75 6.55 L53.1 20.05 56.95 33.85 57.2 34.8 58.75 38.9 Q58.75 42.6 54.05 46.45 L78.8 48.9 78.8 48.4 M8.85 -42.0 L7.65 -42.65 Q3.4 -44.55 -6.0 -44.1 -5.75 -45.95 -5.75 -47.9 L-5.75 -48.0 -5.85 -50.5 Q-6.3 -54.75 -8.05 -58.35 -8.3 -60.75 -8.85 -62.6 -10.25 -67.0 -13.5 -68.4 -18.45 -70.45 -25.2 -70.15 -32.0 -69.85 -35.1 -66.2 -38.2 -62.6 -38.85 -57.1 -39.2 -53.9 -39.05 -51.6 -38.35 -52.95 -37.2 -53.0 -36.0 -53.1 -35.0 -51.7 L-34.2 -50.05 -33.45 -50.6 -33.35 -49.2 -29.0 -46.35 -27.8 -47.7 Q-26.25 -48.85 -23.9 -49.05 -21.6 -49.25 -19.85 -48.4 L-19.7 -48.3 Q-18.55 -47.7 -18.15 -46.8 L-18.05 -46.6 -17.95 -46.1 Q-17.85 -44.7 -19.35 -43.55 L-19.4 -43.5 Q-20.95 -42.4 -23.3 -42.15 -25.65 -41.95 -27.35 -42.8 -29.1 -43.7 -29.25 -45.1 L-29.0 -46.35 M4.5 -37.1 L3.65 -34.55 Q1.8 -28.4 2.0 -20.95 2.15 -13.5 3.9 -7.65 L4.3 -6.4 4.35 -6.3 Q5.95 -1.7 8.2 -1.15 L9.6 -1.0 Q11.15 -1.15 12.4 -2.5 L12.35 -2.6 6.35 -7.1 M12.35 -2.6 Q10.55 -5.6 8.45 -10.65 M37.8 -6.0 Q34.9 -4.5 32.4 -2.5 L29.9 -0.35 28.8 0.75 26.7 3.0 Q24.7 5.3 24.15 7.0 23.65 8.55 24.05 9.25 L22.15 8.05 Q22.3 11.75 21.05 17.25 19.8 22.7 17.4 25.75 L17.35 25.85 17.3 25.9 13.2 30.5 11.95 31.45 3.75 36.85 Q-4.0 41.6 -6.35 41.9 -8.75 42.15 -10.55 38.45 L-11.95 35.35 -12.3 34.55 -15.45 24.0 -20.2 6.55 -20.9 3.65 Q-21.95 -0.9 -21.9 -6.3 -21.85 -11.7 -17.9 -18.25 L-13.3 -26.0 -13.05 -26.55 -12.45 -27.7 -13.7 -26.7 Q-19.0 -22.75 -25.6 -23.1 -30.1 -23.6 -32.2 -26.4 -33.8 -28.5 -34.0 -31.85 L-33.3 -32.85 -33.85 -33.5 Q-35.25 -35.25 -36.25 -37.2 L-39.1 -34.7 -39.15 -34.65 -45.25 -35.0 -48.05 -28.6 Q-50.95 -20.75 -52.45 -10.75 -54.65 3.55 -54.15 9.75 -53.8 14.65 -53.05 19.25 L-53.05 19.35 -52.65 21.75 Q-51.9 25.9 -51.3 33.1 L-50.9 42.2 -50.3 42.15 -45.65 42.05 -44.1 42.05 -43.0 41.65 Q-42.35 41.3 -42.0 40.65 L-41.85 24.75 Q-41.0 17.65 -39.35 11.65 L-37.35 3.85 Q-36.2 -1.15 -35.8 -6.7 L-35.3 -16.1 -35.4 -25.45 Q-35.35 -29.5 -34.0 -31.85 M44.35 46.1 L44.25 47.35 Q44.25 50.05 46.75 53.0 L47.8 54.15 Q49.4 55.75 50.65 55.75 51.75 55.75 53.0 54.0 L51.8 52.5 Q49.6 49.05 49.2 47.05 M42.75 -7.25 L43.05 -7.15 M37.8 -6.0 L40.95 -3.55 41.65 -3.0 M42.75 -7.25 Q41.0 -7.85 37.8 -6.0 M56.95 33.85 L57.1 34.6 57.2 34.8 M41.5 45.5 L41.65 45.15 42.75 43.4 Q43.5 42.4 46.25 39.75 L46.4 39.6 46.45 39.6 47.1 38.95 M46.2 39.65 Q37.7 17.25 32.45 6.75 L32.1 6.35 M32.2 6.5 Q30.8 7.8 28.4 8.75 L25.1 9.7 Q24.35 9.7 24.05 9.25 M17.75 26.25 L18.05 31.05 Q18.0 35.45 17.15 40.2 L15.25 49.6 12.3 58.4 Q11.4 61.3 11.65 62.9 11.85 64.4 11.35 69.5 L14.05 69.65 M44.6 45.75 L44.35 46.05 44.35 46.1 M41.5 45.5 Q40.65 47.25 40.65 49.2 40.65 51.85 41.85 53.25 L43.55 54.55 Q45.2 55.65 45.95 55.65 47.4 55.65 47.8 54.15 M54.05 46.45 L53.95 46.55 53.65 46.75 55.4 50.1 Q56.6 52.6 57.55 53.45 L57.6 53.9 78.35 55.9 78.8 48.9 M26.6 3.15 L31.85 6.4 M12.4 -2.5 Q13.5 -0.75 14.45 0.25 L18.8 5.05 22.15 8.05 M-38.9 41.8 Q-22.15 42.9 -13.6 51.5 -8.75 56.35 -2.1 68.55 L11.35 69.5 11.25 70.2 M57.6 53.9 Q57.55 55.4 56.3 55.45 54.85 55.5 54.0 54.9 L53.0 54.0 M-33.45 -50.6 L-32.05 -51.8 -32.05 -60.0 -30.95 -60.0 Q-28.25 -60.95 -21.6 -58.9 L-17.6 -57.55 -17.3 -57.95 Q-14.0 -62.55 -10.45 -61.95 L-10.6 -62.35 -10.3 -62.0 Q-9.0 -60.3 -8.05 -58.35 M-36.25 -37.2 Q-37.85 -40.3 -38.35 -43.95 L-38.65 -44.35 Q-39.65 -45.8 -39.75 -47.8 -39.95 -49.85 -39.2 -51.4 L-39.05 -51.6 M-34.2 -50.05 L-34.15 -49.75 -33.35 -49.2 M-14.4 -47.4 L-14.4 -47.65 Q-14.55 -48.95 -13.3 -50.05 -12.1 -51.25 -10.2 -51.6 -8.35 -51.95 -6.95 -51.3 -6.25 -51.0 -5.85 -50.5 L-5.45 -49.4 Q-5.4 -48.7 -5.75 -48.0 L-6.55 -46.95 Q-7.8 -45.85 -9.65 -45.45 L-12.9 -45.7 Q-14.2 -46.3 -14.4 -47.4 L-15.4 -47.25 -12.85 -37.25 -15.6 -37.75 -18.9 -38.35 M-45.65 42.05 L-45.5 39.3 Q-45.1 30.55 -45.1 24.3 -45.85 17.05 -45.55 12.6 -45.3 8.15 -42.85 2.4 -40.4 -3.4 -40.55 -6.6 -41.5 -18.85 -41.3 -24.0 -41.15 -29.2 -39.1 -34.7 M-64.6 13.8 L-58.8 -9.3 Q-55.1 -23.35 -48.05 -28.6 M-16.7 -32.55 Q-14.65 -33.15 -12.7 -34.35 M-18.15 -46.8 L-15.55 -47.2 -15.4 -47.25 M-20.6 -32.1 L-16.7 -32.55 M-10.1 -34.1 Q-6.8 -38.45 -6.0 -44.1 M-12.45 -27.7 Q-10.95 -30.85 -10.1 -34.1 M-36.35 -43.25 Q-38.0 -43.55 -38.35 -43.95 M-20.6 -32.1 L-24.25 -32.75 -24.85 -33.0 M-53.05 19.25 L-57.65 17.85 Q-60.75 16.7 -62.75 15.2 L-64.4 13.95 -64.6 13.8 M-67.65 46.35 Q-63.35 42.95 -57.5 42.35 L-51.3 33.1 M-69.05 47.7 L-67.65 46.35 M-50.9 42.2 L-54.55 42.25 -57.5 42.35 M-50.9 42.55 L-50.9 42.2 M-42.0 41.7 L-38.9 41.8 M-43.0 41.65 L-42.0 41.7 M-44.1 42.05 L-45.65 42.1 -45.65 42.05 M-78.5 58.3 Q-78.45 56.65 -77.15 52.8 -75.4 47.65 -71.45 38.55 -63.9 21.6 -62.75 15.2 M-73.75 59.35 L-75.5 59.1 -75.5 59.5 M-78.5 58.3 L-78.75 58.6 -78.55 58.65 -75.5 59.1 M-2.1 68.55 L-17.3 67.5 -73.75 59.35" fill="none" stroke="#333333" stroke-linecap="round" stroke-linejoin="round" stroke-width="0.05"/>
    <path d="M-22.45 -27.5 L-22.2 -27.5 -19.0 -27.85" fill="none" stroke="#666666" stroke-linecap="round" stroke-linejoin="round" stroke-width="0.05"/>
    <path d="M4.6 69.7 L1.05 71.2 -34.75 71.2 Q-37.0 70.15 -39.6 69.05 L-39.9 68.9 -40.65 67.9 -40.1 68.85 Q-45.9 66.4 -51.3 64.7 L-58.7 57.8 -61.8 54.15 Q-64.2 50.9 -65.25 47.9 L-64.85 47.8 Q-63.75 49.9 -59.3 52.45 -54.4 55.35 -50.55 56.25 L-50.15 56.2 -50.3 56.0 Q-60.8 44.35 -63.15 40.9 L-63.1 40.5 Q-62.5 40.45 -61.05 41.2 -59.4 42.1 -58.1 42.25 -58.35 40.25 -58.05 39.4 -57.05 39.25 -54.75 40.55 L-50.7 42.9 Q-51.75 40.75 -51.5 38.1 L-47.6 37.45 -45.75 37.6 -44.6 37.7 Q-32.6 40.05 -21.2 46.0 -9.85 51.9 4.6 69.7 M-46.1 53.6 Q-43.3 64.4 -40.65 67.9 -43.3 64.4 -46.1 53.6 M-65.25 61.6 L-65.75 57.9 -65.3 57.85 -63.45 61.85 -65.25 61.6 M-59.8 62.5 L-59.85 62.4 -59.55 62.55 -59.8 62.5" fill="#3e5b5a" fill-rule="evenodd" stroke="none"/>
    <path d="M-64.65 37.65 L-62.9 33.0 Q-62.5 30.9 -62.15 31.1 -61.8 31.2 -61.45 32.15 -61.1 33.1 -61.0 34.3 L-60.9 35.0 -62.5 35.8 -62.55 35.8 Q-63.7 36.55 -64.65 37.65" fill="#ffcc99" fill-rule="evenodd" stroke="none"/>
    <path d="M-47.6 37.45 L-51.5 38.1 Q-51.75 40.75 -50.7 42.9 L-54.75 40.55 Q-57.05 39.25 -58.05 39.4 -58.35 40.25 -58.1 42.25 -59.4 42.1 -61.05 41.2 -62.5 40.45 -63.1 40.5 L-63.2 40.5 -63.15 40.9 Q-60.8 44.35 -50.3 56.0 L-50.55 56.25 Q-54.4 55.35 -59.3 52.45 -63.75 49.9 -64.85 47.8 -65.25 47.1 -65.25 46.5 L-65.6 46.55 -65.25 47.9 Q-64.2 50.9 -61.8 54.15 L-58.7 57.8 -51.3 64.7 Q-55.6 63.35 -59.55 62.55 L-59.85 62.4 -59.8 62.5 -63.45 61.85 -65.3 57.85 -65.75 57.9 -65.25 61.6 -68.8 61.2 -69.05 58.15 -69.05 57.95 -69.1 56.95 Q-69.35 52.0 -68.75 47.95 L-68.45 46.05 -68.45 45.95 -68.4 45.7 Q-67.9 43.5 -67.2 41.75 -66.6 40.25 -65.8 39.1 L-65.6 38.8 -65.55 38.75 -65.5 38.65 -64.65 37.65 Q-63.7 36.55 -62.55 35.8 L-62.5 35.8 -60.9 35.0 -55.2 34.1 -48.6 36.25 -47.3 36.85 -47.6 37.45" fill="#577d79" fill-rule="evenodd" stroke="none"/>
    <path d="M-63.1 40.5 L-63.15 40.9 -63.2 40.5 -63.1 40.5 M-64.85 47.8 L-65.25 47.9 -65.6 46.55 -65.25 46.5 Q-65.25 47.1 -64.85 47.8" fill="#869cbd" fill-rule="evenodd" stroke="none"/>
    <path d="M-44.6 37.7 L-45.75 37.6 -47.6 37.45 -47.3 36.85 -48.6 36.25 -43.45 37.8 -44.6 37.7 M-50.3 56.0 L-50.15 56.2 -50.55 56.25 -50.3 56.0 M-45.75 37.6 L-47.3 36.85 -45.75 37.6" fill="#b1c0d6" fill-rule="evenodd" stroke="none"/>
    <path d="M4.6 69.7 Q-9.85 51.9 -21.2 46.0 -32.6 40.05 -44.6 37.7 L-45.75 37.6 -47.3 36.85 -48.6 36.25 -55.2 34.1 -60.9 35.0 -62.5 35.8 -62.55 35.8 Q-63.7 36.55 -64.65 37.65 L-65.5 38.65 -65.55 38.75 -65.6 38.8 -65.8 39.1 Q-66.6 40.25 -67.2 41.75 -67.9 43.5 -68.4 45.7 L-68.45 45.95 -68.45 46.05 -68.75 47.95 Q-69.35 52.0 -69.1 56.95 L-69.05 57.95 -69.05 58.15 -68.8 61.2 M-40.1 68.85 L-40.65 67.9 Q-43.3 64.4 -46.1 53.6 M-65.75 57.9 L-65.3 57.85 M-40.65 67.9 L-39.9 68.9" fill="none" stroke="#333333" stroke-linecap="round" stroke-linejoin="round" stroke-width="0.05"/>
    <path d="M32.1 6.5 L32.2 6.5 32.15 6.55 32.1 6.5" fill="#000000" fill-opacity="0.4" fill-rule="evenodd" stroke="none"/>
    <path d="M29.9 -0.35 L32.4 -2.5 Q34.9 -4.5 37.8 -6.0 L40.95 -3.55 Q35.8 -1.05 32.55 1.5 30.4 3.1 29.1 4.7 L26.6 3.15 26.7 3.0 28.8 0.75 29.9 -0.35" fill="#000000" fill-opacity="0.2" fill-rule="evenodd" stroke="none"/>
  </g>
  <defs>
    <linearGradient gradientTransform="matrix(0.0052, 0.0045, -0.0028, 0.0032, -27.4, -48.25)" gradientUnits="userSpaceOnUse" id="gradient0" spreadMethod="pad" x1="-819.2" x2="819.2">
      <stop offset="0.0" stop-color="#ffffff"/>
      <stop offset="1.0" stop-color="#000000"/>
    </linearGradient>
    <linearGradient gradientTransform="matrix(0.0033, 0.0042, -0.003, 0.0024, -12.95, -50.5)" gradientUnits="userSpaceOnUse" id="gradient1" spreadMethod="pad" x1="-819.2" x2="819.2">
      <stop offset="0.0" stop-color="#ffffff"/>
      <stop offset="1.0" stop-color="#000000"/>
    </linearGradient>
  </defs>
</svg>
