<?xml version="1.0" encoding="UTF-8" standalone="no"?>
<svg xmlns:ffdec="https://www.free-decompiler.com/flash" xmlns:xlink="http://www.w3.org/1999/xlink" ffdec:objectType="shape" height="132.35px" width="110.8px" xmlns="http://www.w3.org/2000/svg">
  <g transform="matrix(1.0, 0.0, 0.0, 1.0, 55.4, 66.2)">
    <path d="M50.8 25.35 Q49.25 26.0 47.85 26.05 48.45 38.9 46.1 47.45 43.0 58.7 34.25 66.15 L31.3 65.35 Q26.35 61.9 23.35 56.9 22.1 54.85 21.7 52.55 21.3 50.35 20.4 48.4 18.0 43.05 14.5 38.25 L12.65 35.95 11.75 35.0 11.7 34.95 11.55 34.8 11.7 35.0 11.05 34.75 11.55 34.55 11.6 34.55 Q15.25 33.3 21.55 33.45 L31.3 32.9 34.5 32.9 Q35.2 29.55 34.6 24.15 40.95 22.45 49.6 21.35 L50.65 24.8 51.2 25.1 50.8 25.35 M17.15 -30.65 L21.05 -33.95 Q22.55 -34.7 25.45 -34.7 L26.05 -34.7 Q28.75 -34.6 31.05 -33.55 L32.2 -32.95 35.05 -30.75 Q36.4 -29.5 37.55 -27.75 40.75 -22.9 43.0 -13.95 L43.65 -11.2 45.15 -2.15 38.35 -0.9 29.7 0.55 27.7 -7.5 27.1 -10.15 Q26.8 -8.6 26.1 -7.55 23.55 -3.7 20.25 -0.4 L17.35 2.0 11.25 7.0 4.15 13.1 0.3 9.3 0.1 9.15 -1.55 7.8 -4.75 5.5 -8.45 3.0 -12.05 0.55 Q-9.5 -2.2 -8.15 -2.65 -6.65 -3.2 -2.45 -2.65 L-2.85 -10.3 -1.55 -12.45 -0.3 -13.95 0.25 -14.7 1.35 -16.55 1.4 -16.65 7.25 -17.65 Q12.25 -18.75 13.25 -20.75 11.85 -24.55 14.95 -25.35 L15.4 -25.45 18.85 -25.7 Q21.0 -25.85 22.1 -26.4 22.05 -27.65 21.45 -28.65 20.6 -29.8 20.1 -30.9 L17.15 -30.65 M26.05 -29.35 Q24.75 -30.2 23.25 -30.65 L20.85 -30.9 20.1 -30.9 20.85 -30.9 23.25 -30.65 Q24.75 -30.2 26.05 -29.35 26.45 -29.15 26.8 -28.9 26.45 -29.15 26.05 -29.35 M27.65 -13.95 L27.3 -11.45 27.1 -10.15 27.3 -11.45 27.65 -13.95 28.05 -15.25 27.65 -13.95 M46.05 2.5 L47.0 8.5 48.55 16.8 33.95 19.45 32.25 10.8 30.8 5.05 34.65 4.55 46.05 2.5 M47.8 25.1 L47.85 26.05 47.8 25.1 M-9.2 -17.85 L-9.25 -17.6 -9.65 -13.95 -10.05 -4.55 Q-12.6 -2.05 -13.45 -0.55 L-13.45 -0.5 -12.3 0.35 -12.65 0.85 -14.5 2.05 -16.5 0.85 Q-19.75 -1.55 -21.95 -5.9 L-22.55 -7.25 -22.65 -7.5 -20.45 -9.85 Q-18.9 -10.8 -16.15 -10.3 -17.15 -12.55 -15.6 -13.95 L-14.25 -14.8 Q-10.5 -16.4 -10.5 -17.95 -9.7 -17.95 -9.7 -18.35 L-9.2 -17.85" fill="#2d405b" fill-rule="evenodd" stroke="none"/>
    <path d="M14.75 -41.8 Q20.3 -42.4 26.05 -40.25 L27.75 -39.6 Q30.1 -38.6 32.5 -37.1 L34.2 -36.0 34.35 -35.9 37.35 -33.6 37.5 -33.5 37.55 -33.4 37.6 -33.4 Q43.35 -28.45 46.15 -21.8 L49.3 -13.95 50.6 -10.0 Q51.5 -7.05 51.95 -3.4 L48.55 -2.8 45.15 -2.15 43.65 -11.2 43.0 -13.95 Q40.75 -22.9 37.55 -27.75 36.4 -29.5 35.05 -30.75 L32.2 -32.95 31.05 -33.55 Q28.75 -34.6 26.05 -34.7 L25.45 -34.7 Q22.55 -34.7 21.05 -33.95 L17.15 -30.65 Q13.4 -30.0 10.35 -27.4 L8.05 -25.35 6.4 -23.65 5.0 -22.05 2.85 -19.15 1.4 -16.65 1.35 -16.55 0.25 -14.7 0.3 -16.4 Q0.55 -20.55 1.9 -24.45 L2.2 -25.35 2.45 -25.9 2.6 -26.35 3.1 -27.45 4.95 -27.85 5.5 -28.05 Q11.1 -30.1 13.5 -36.6 14.45 -39.15 14.75 -41.8 M52.6 1.2 Q53.1 5.15 54.3 10.7 L55.1 15.65 52.2 16.2 48.55 16.8 47.0 8.5 46.05 2.5 52.2 1.3 52.6 1.2 M55.4 20.35 L55.3 23.85 52.2 24.8 51.2 25.1 50.65 24.8 49.6 21.35 52.15 20.95 52.2 20.95 55.4 20.35 M-1.75 -27.6 L-0.55 -26.55 -1.0 -26.0 -1.75 -25.35 Q-3.85 -23.35 -4.8 -19.4 L-5.65 -13.95 -6.05 -10.55 -5.95 -8.7 -5.9 -8.35 -10.05 -4.55 -9.65 -13.95 -9.25 -17.6 -9.2 -17.85 -9.1 -18.55 -8.65 -20.25 -8.55 -20.7 Q-7.75 -23.4 -6.5 -25.35 -5.35 -27.15 -3.85 -28.3 L-3.2 -28.05 -1.75 -27.6 M17.35 2.0 L20.25 -0.4 Q23.55 -3.7 26.1 -7.55 26.8 -8.6 27.1 -10.15 L27.7 -7.5 29.7 0.55 27.45 0.85 19.7 1.8 17.35 2.0 M17.0 6.35 L23.4 5.75 30.8 5.05 32.25 10.8 33.95 19.45 30.0 20.25 Q20.6 22.2 11.45 22.5 13.15 13.6 17.0 6.35 M-3.6 10.05 L-3.35 15.35 -1.35 23.15 -0.75 25.3 -5.4 22.15 Q-5.5 19.75 -7.05 16.7 L-7.4 14.35 -3.6 10.05 M10.65 27.6 L26.3 25.65 34.6 24.15 Q35.2 29.55 34.5 32.9 L31.3 32.9 21.55 33.45 Q15.25 33.3 11.6 34.55 L11.55 34.55 11.05 34.75 10.1 33.9 Q10.25 30.65 10.65 27.6" fill="#ff6633" fill-rule="evenodd" stroke="none"/>
    <path d="M17.15 -30.65 L20.1 -30.9 Q20.6 -29.8 21.45 -28.65 22.05 -27.65 22.1 -26.4 21.0 -25.85 18.85 -25.7 L15.4 -25.45 14.95 -25.35 Q11.85 -24.55 13.25 -20.75 12.25 -18.75 7.25 -17.65 L1.4 -16.65 2.85 -19.15 5.0 -22.05 6.4 -23.65 8.05 -25.35 10.35 -27.4 Q13.4 -30.0 17.15 -30.65 M-5.45 -8.75 L-1.55 -12.45 -2.85 -10.3 -2.45 -2.65 Q-6.65 -3.2 -8.15 -2.65 -9.5 -2.2 -12.05 0.55 L-12.3 0.35 -13.45 -0.5 -13.45 -0.55 Q-12.6 -2.05 -10.05 -4.55 L-5.9 -8.35 -5.45 -8.75 M-8.65 -20.25 L-9.1 -18.55 -9.2 -17.85 -9.7 -18.35 Q-9.7 -17.95 -10.5 -17.95 -10.5 -16.4 -14.25 -14.8 L-15.6 -13.95 Q-17.15 -12.55 -16.15 -10.3 -18.9 -10.8 -20.45 -9.85 L-22.65 -7.5 -22.7 -7.55 -22.8 -9.4 -22.85 -9.9 Q-22.45 -10.95 -21.3 -11.45 L-19.2 -12.4 Q-18.95 -12.6 -18.05 -13.95 L-17.9 -14.2 Q-17.05 -15.55 -15.6 -16.3 L-11.65 -18.75 -8.65 -20.25 M-10.1 -3.75 L-10.05 -4.55 -10.1 -3.75" fill="#42608a" fill-rule="evenodd" stroke="none"/>
    <path d="M-0.15 -31.4 L-1.35 -30.45 -1.8 -31.0 -1.9 -31.1 -3.45 -31.4 -0.15 -31.4 M-16.55 -52.05 L-16.25 -54.1 -16.15 -53.2 -16.55 -52.05 M-51.8 32.6 L-49.25 32.6 -49.25 30.1 -48.35 27.35 -48.45 28.35 -48.45 28.4 -48.45 28.6 -48.65 32.7 -49.25 32.7 -51.8 32.6 M-41.35 8.8 Q-39.6 5.15 -38.15 3.35 L-37.3 6.7 -39.0 7.3 Q-40.25 7.9 -41.35 8.8" fill="#ffcc99" fill-rule="evenodd" stroke="none"/>
    <path d="M51.95 -3.4 L52.2 -2.2 52.35 -0.95 52.6 1.2 52.2 1.3 46.05 2.5 34.65 4.55 30.8 5.05 23.4 5.75 17.0 6.35 11.25 7.0 17.35 2.0 19.7 1.8 27.45 0.85 29.7 0.55 38.35 -0.9 45.15 -2.15 48.55 -2.8 51.95 -3.4 M55.1 15.65 L55.4 20.35 52.2 20.95 52.15 20.95 49.6 21.35 Q40.95 22.45 34.6 24.15 L26.3 25.65 10.65 27.6 8.9 27.75 1.75 27.15 1.5 26.95 1.1 26.65 1.2 22.4 1.1 26.65 -0.75 25.3 -1.35 23.15 1.2 22.4 2.05 22.4 Q6.7 22.65 11.45 22.5 20.6 22.2 30.0 20.25 L33.95 19.45 48.55 16.8 52.2 16.2 55.1 15.65" fill="#152f7c" fill-rule="evenodd" stroke="none"/>
    <path d="M31.3 65.35 L-12.85 53.05 -13.5 53.65 Q-17.55 49.55 -21.65 42.1 -18.55 49.05 -18.5 52.35 L-36.55 46.9 -37.5 44.85 -37.9 44.85 Q-39.1 37.95 -39.9 36.4 L-39.9 34.0 -36.05 37.05 Q-32.55 39.65 -30.65 39.65 L-29.85 39.65 Q-35.4 33.35 -38.15 29.6 L-40.75 25.55 Q-43.1 21.25 -43.5 17.5 L-43.1 17.5 Q-43.45 20.05 -38.05 24.2 -33.55 27.75 -29.85 29.15 L-29.45 29.15 Q-38.4 16.05 -40.3 12.25 L-40.3 11.85 Q-39.65 11.85 -38.25 12.85 -36.7 13.95 -35.45 14.25 -35.45 12.25 -35.05 11.45 -34.0 11.45 -31.9 13.05 L-28.2 15.9 Q-29.0 13.6 -28.35 10.9 L-27.6 9.1 Q-25.15 10.95 -22.8 13.35 -18.6 17.65 -14.45 17.65 L-13.3 17.6 Q-9.5 19.45 -5.4 22.15 L-0.75 25.3 1.1 26.65 1.5 26.95 1.75 27.15 6.35 30.75 10.1 33.9 11.05 34.75 11.7 35.0 12.65 35.95 14.5 38.25 Q18.0 43.05 20.4 48.4 21.3 50.35 21.7 52.55 22.1 54.85 23.35 56.9 26.35 61.9 31.3 65.35 M-25.95 33.5 Q-23.8 38.25 -21.65 42.1 -23.8 38.25 -25.95 33.5 M-44.7 28.75 Q-43.45 33.3 -41.85 37.15 -40.1 41.5 -37.9 44.9 L-36.55 46.9 -45.2 44.3 -45.15 28.75 -44.7 28.75" fill="#869cbd" fill-rule="evenodd" stroke="none"/>
    <path d="M-48.35 27.35 Q-47.9 22.45 -46.8 18.5 L-46.2 16.65 -46.2 16.55 -46.1 16.3 Q-45.35 14.2 -44.4 12.55 -43.6 11.15 -42.65 10.1 L-42.45 9.85 -42.35 9.8 -42.3 9.7 -41.35 8.8 Q-40.25 7.9 -39.0 7.3 L-37.3 6.7 Q-34.7 6.0 -31.5 6.6 -29.5 7.65 -27.6 9.1 L-28.35 10.9 Q-29.0 13.6 -28.2 15.9 L-31.9 13.05 Q-34.0 11.45 -35.05 11.45 -35.45 12.25 -35.45 14.25 -36.7 13.95 -38.25 12.85 -39.65 11.85 -40.3 11.85 L-40.3 12.25 Q-38.4 16.05 -29.45 29.15 L-29.85 29.15 Q-33.55 27.75 -38.05 24.2 -43.45 20.05 -43.1 17.5 L-43.5 17.5 Q-43.1 21.25 -40.75 25.55 L-38.15 29.6 Q-35.4 33.35 -29.85 39.65 L-30.65 39.65 Q-32.55 39.65 -36.05 37.05 L-39.9 34.0 -39.9 36.4 Q-39.1 37.95 -37.9 44.85 L-37.5 44.85 -36.55 46.9 -37.9 44.9 Q-40.1 41.5 -41.85 37.15 -43.45 33.3 -44.7 28.75 L-45.15 28.75 -45.2 44.3 -48.35 43.35 Q-48.8 37.6 -48.65 32.7 L-48.45 28.6 -48.45 28.4 -48.45 28.35 -48.35 27.35" fill="#b1c0d6" fill-rule="evenodd" stroke="none"/>
    <path d="M10.8 -50.45 L10.05 -52.2 Q9.35 -53.7 7.65 -55.15 5.9 -56.6 7.15 -57.0 L9.05 -59.85 Q12.5 -57.4 13.3 -53.25 L13.4 -52.15 Q11.95 -52.1 10.9 -50.85 L10.8 -50.45 M-0.55 -65.8 Q-3.85 -62.65 -6.4 -56.9 L-6.5 -56.9 -8.85 -57.7 -10.9 -58.55 -11.15 -58.6 -14.05 -59.65 -12.95 -61.15 -11.5 -62.85 Q-7.1 -67.3 -0.55 -65.8" fill="#996633" fill-rule="evenodd" stroke="none"/>
    <path d="M4.4 -47.25 Q4.4 -46.5 3.8 -45.9 L3.05 -45.4 2.45 -45.3 Q1.65 -45.3 1.05 -45.9 L0.6 -46.65 0.5 -47.25 Q0.45 -48.05 1.05 -48.65 1.65 -49.2 2.45 -49.2 3.2 -49.2 3.8 -48.65 4.4 -48.05 4.4 -47.25 M-7.5 -41.75 Q-8.05 -41.2 -8.8 -41.2 -9.6 -41.2 -10.2 -41.8 -10.75 -42.4 -10.75 -43.15 L-10.7 -43.65 -10.2 -44.6 Q-9.6 -45.15 -8.8 -45.15 L-8.65 -45.15 -8.6 -45.15 Q-7.95 -45.1 -7.45 -44.6 L-6.9 -43.65 -6.8 -43.15 Q-6.85 -42.4 -7.45 -41.8 L-7.5 -41.75" fill="#000000" fill-rule="evenodd" stroke="none"/>
    <path d="M1.9 -24.45 Q0.55 -20.55 0.3 -16.4 L0.25 -14.7 -0.3 -13.95 -1.55 -12.45 -5.45 -8.75 -5.95 -8.7 -6.05 -10.55 -5.65 -13.95 -4.8 -19.4 Q-3.85 -23.35 -1.75 -25.35 L-1.0 -26.0 -0.55 -26.55 0.9 -25.35 1.9 -24.45 M0.3 9.3 Q1.15 15.95 1.2 22.4 L-1.35 23.15 -3.35 15.35 -3.6 10.05 -1.55 7.8 0.1 9.15 0.3 9.3" fill="#0e2250" fill-rule="evenodd" stroke="none"/>
    <path d="M9.05 -59.85 L7.15 -57.0 Q5.9 -56.6 7.65 -55.15 9.35 -53.7 10.05 -52.2 L10.8 -50.45 10.9 -50.85 Q11.95 -52.1 13.4 -52.15 L13.6 -52.15 Q15.15 -52.2 16.2 -50.85 17.35 -49.45 17.35 -47.5 17.35 -45.65 16.2 -44.3 L14.85 -43.15 14.75 -41.8 Q14.45 -39.15 13.5 -36.6 11.1 -30.1 5.5 -28.05 L2.5 -31.95 5.25 -33.25 8.2 -35.55 5.25 -33.25 2.5 -31.95 Q0.7 -34.55 -0.75 -37.35 L-3.65 -35.95 -3.65 -44.55 -4.35 -46.15 Q-5.9 -51.3 -6.5 -56.9 L-6.4 -56.9 Q-3.85 -62.65 -0.55 -65.8 2.35 -65.2 5.3 -63.2 L9.05 -59.85 M1.1 -38.25 L-0.75 -37.35 1.1 -38.25 M10.6 -49.45 L10.8 -50.45 10.6 -49.45 M4.4 -47.25 Q4.4 -48.05 3.8 -48.65 3.2 -49.2 2.45 -49.2 1.65 -49.2 1.05 -48.65 0.45 -48.05 0.5 -47.25 L0.6 -46.65 1.05 -45.9 Q1.65 -45.3 2.45 -45.3 L3.05 -45.4 3.8 -45.9 Q4.4 -46.5 4.4 -47.25 M-1.55 7.8 L-3.6 10.05 -7.4 14.35 -7.85 14.85 Q-9.9 17.25 -13.3 17.6 L-14.45 17.65 Q-18.6 17.65 -22.8 13.35 -25.15 10.95 -27.6 9.1 -29.5 7.65 -31.5 6.6 -34.7 6.0 -37.3 6.7 L-38.15 3.35 Q-35.05 -0.45 -27.5 -3.75 L-21.95 -5.9 Q-19.75 -1.55 -16.5 0.85 -20.9 3.25 -24.35 4.65 L-25.65 5.15 Q-28.85 6.35 -31.2 6.65 L-31.4 6.6 -31.2 6.65 Q-28.85 6.35 -25.65 5.15 -23.85 5.7 -22.1 6.4 -19.35 7.5 -16.05 7.05 -12.75 6.6 -11.1 5.15 L-8.45 3.0 -4.75 5.5 -1.55 7.8 M-31.4 6.6 L-31.75 6.45 -31.5 6.6 -31.4 6.6" fill="#fec289" fill-rule="evenodd" stroke="none"/>
    <path d="M3.1 -27.45 L2.6 -26.35 2.45 -25.9 2.2 -25.35 1.9 -24.45 0.9 -25.35 -0.55 -26.55 -1.75 -27.6 1.05 -27.3 1.55 -27.3 3.1 -27.45" fill="#feb367" fill-rule="evenodd" stroke="none"/>
    <path d="M-1.8 -31.0 L1.05 -27.3 -1.75 -27.6 -3.2 -28.05 -3.85 -28.3 Q-4.55 -28.6 -5.25 -29.0 L-6.9 -29.95 -7.1 -30.1 -7.2 -30.15 -7.65 -30.5 -7.95 -30.75 Q-10.4 -32.6 -12.15 -35.05 L-13.05 -35.65 -13.45 -36.05 Q-15.35 -38.1 -15.4 -41.15 L-15.35 -41.15 -15.05 -41.15 -15.05 -41.5 Q-17.55 -46.6 -16.55 -52.05 L-16.15 -53.2 -16.25 -54.1 -15.45 -56.75 -14.05 -59.65 -11.15 -58.6 -10.9 -58.55 Q-10.6 -51.5 -8.65 -45.15 L-8.8 -45.15 Q-9.6 -45.15 -10.2 -44.6 L-10.7 -43.65 -10.75 -43.15 Q-10.75 -42.4 -10.2 -41.8 -9.6 -41.2 -8.8 -41.2 -8.05 -41.2 -7.5 -41.75 -6.25 -38.5 -4.55 -35.4 L-2.45 -31.95 Q-2.15 -31.8 -3.45 -31.4 L-1.9 -31.1 -1.8 -31.0 M-22.8 -9.4 L-22.7 -7.55 -22.65 -7.5 -22.55 -7.25 -21.95 -5.9 -27.5 -3.75 Q-35.05 -0.45 -38.15 3.35 -39.6 5.15 -41.35 8.8 L-42.3 9.7 -42.35 9.8 -42.45 9.85 -42.65 10.1 Q-43.6 11.15 -44.4 12.55 -45.35 14.2 -46.1 16.3 L-46.2 16.55 -46.2 16.65 -46.8 18.5 Q-47.9 22.45 -48.35 27.35 L-49.25 30.1 -49.25 32.6 -51.8 32.6 Q-53.3 24.05 -49.1 14.9 L-47.15 11.2 -47.1 11.05 -47.0 10.95 -47.0 10.9 -44.7 7.3 -41.95 2.2 Q-40.5 -0.6 -37.95 -2.35 -35.75 -3.85 -28.9 -6.8 -26.25 -8.0 -22.8 -9.4 M-14.5 2.05 L-12.65 0.85 -12.3 0.35 -12.05 0.55 -8.45 3.0 -11.1 5.15 Q-12.75 6.6 -16.05 7.05 -19.35 7.5 -22.1 6.4 -23.85 5.7 -25.65 5.15 L-24.35 4.65 Q-21.0 5.45 -18.0 4.05 L-14.5 2.05 M-48.65 32.7 Q-48.8 37.6 -48.35 43.35 L-55.4 41.2 -55.4 41.05 Q-55.35 38.65 -54.65 37.1 L-51.8 32.6 -49.25 32.7 -48.65 32.7" fill="#ffe1c4" fill-rule="evenodd" stroke="none"/>
    <path d="M-6.5 -56.9 Q-5.9 -51.3 -4.35 -46.15 L-3.65 -44.55 -3.65 -35.95 -0.75 -37.35 Q0.7 -34.55 2.5 -31.95 L5.5 -28.05 4.95 -27.85 3.1 -27.45 1.55 -27.3 1.05 -27.3 -1.8 -31.0 -1.35 -30.45 -0.15 -31.4 2.5 -31.95 -0.15 -31.4 -3.45 -31.4 Q-2.15 -31.8 -2.45 -31.95 L-4.55 -35.4 Q-6.25 -38.5 -7.5 -41.75 L-7.45 -41.8 Q-6.85 -42.4 -6.8 -43.15 L-6.9 -43.65 -7.45 -44.6 Q-7.95 -45.1 -8.6 -45.15 L-8.65 -45.15 Q-10.6 -51.5 -10.9 -58.55 L-8.85 -57.7 -6.5 -56.9" fill="#fed3ab" fill-rule="evenodd" stroke="none"/>
    <path d="M17.0 6.35 Q13.15 13.6 11.45 22.5 6.7 22.65 2.05 22.4 L1.2 22.4 Q1.15 15.95 0.3 9.3 L4.15 13.1 11.25 7.0 17.0 6.35 M1.75 27.15 L8.9 27.75 10.65 27.6 Q10.25 30.65 10.1 33.9 L6.35 30.75 1.75 27.15" fill="#ea4f0d" fill-rule="evenodd" stroke="none"/>
    <path d="M9.05 -59.85 L5.3 -63.2 Q2.35 -65.2 -0.55 -65.8 -7.1 -67.3 -11.5 -62.85 L-12.95 -61.15 -14.05 -59.65 -15.45 -56.75 -16.25 -54.1 -16.55 -52.05 Q-17.55 -46.6 -15.05 -41.5 L-15.35 -41.15 -15.4 -41.15 Q-15.35 -38.1 -13.45 -36.05 L-13.05 -35.65 -12.15 -35.05 Q-10.4 -32.6 -7.95 -30.75 L-7.65 -30.5 -7.2 -30.15 -7.1 -30.1 -6.9 -29.95 -5.25 -29.0 Q-4.55 -28.6 -3.85 -28.3 L-3.2 -28.05 -1.75 -27.6 -0.55 -26.55 0.9 -25.35 M-3.65 -44.55 L-3.65 -35.95 -0.75 -37.35 1.1 -38.25 M9.05 -59.85 Q12.5 -57.4 13.3 -53.25 L13.4 -52.15 13.6 -52.15 Q15.15 -52.2 16.2 -50.85 17.35 -49.45 17.35 -47.5 17.35 -45.65 16.2 -44.3 L14.85 -43.15 14.75 -41.8 Q20.3 -42.4 26.05 -40.25 M49.3 -13.95 L50.6 -10.0 Q51.5 -7.05 51.95 -3.4 L52.2 -2.2 M52.2 24.8 L51.2 25.1 51.25 25.1 50.8 25.35 Q49.25 26.0 47.85 26.05 48.45 38.9 46.1 47.45 43.0 58.7 34.25 66.15 L31.3 65.35 -12.85 53.05 M-13.5 53.65 L-13.45 53.7 -13.2 53.95 -18.5 52.35 -18.5 52.9 M13.4 -52.15 Q11.95 -52.1 10.9 -50.85 L10.8 -50.45 10.6 -49.45 M26.05 -34.7 L25.45 -34.7 Q22.55 -34.7 21.05 -33.95 L17.15 -30.65 20.1 -30.9 20.85 -30.9 23.25 -30.65 Q24.75 -30.2 26.05 -29.35 M2.5 -31.95 L5.25 -33.25 8.2 -35.55 M3.1 -27.45 L2.6 -26.35 2.45 -25.9 2.2 -25.35 M8.05 -25.35 L10.35 -27.4 Q13.4 -30.0 17.15 -30.65 M1.05 -27.3 L1.55 -27.3 3.1 -27.45 4.95 -27.85 5.5 -28.05 Q11.1 -30.1 13.5 -36.6 14.45 -39.15 14.75 -41.8 M2.5 -31.95 L-0.15 -31.4 -3.45 -31.4 M1.05 -27.3 L-1.75 -27.6 M27.1 -10.15 L27.3 -11.45 27.65 -13.95 M29.7 0.55 L27.7 -7.5 27.1 -10.15 Q26.8 -8.6 26.1 -7.55 23.55 -3.7 20.25 -0.4 L17.35 2.0 19.7 1.8 27.45 0.85 29.7 0.55 38.35 -0.9 45.15 -2.15 43.65 -11.2 43.0 -13.95 M51.95 -3.4 L48.55 -2.8 45.15 -2.15 M52.2 1.3 L46.05 2.5 47.0 8.5 48.55 16.8 52.2 16.2 M52.2 20.95 L52.15 20.95 49.6 21.35 50.65 24.8 51.2 25.1 50.8 25.35 M47.85 26.05 L47.8 25.1 M30.8 5.05 L23.4 5.75 17.0 6.35 11.25 7.0 4.15 13.1 0.3 9.3 Q1.15 15.95 1.2 22.4 L1.1 26.65 1.5 26.95 1.75 27.15 8.9 27.75 10.65 27.6 26.3 25.65 34.6 24.15 Q40.95 22.45 49.6 21.35 M11.45 22.5 Q20.6 22.2 30.0 20.25 L33.95 19.45 32.25 10.8 30.8 5.05 34.65 4.55 46.05 2.5 M2.05 22.4 Q6.7 22.65 11.45 22.5 M17.35 2.0 L11.25 7.0 M0.3 9.3 L0.1 9.15 -1.55 7.8 -3.6 10.05 -3.35 15.35 -1.35 23.15 -0.75 25.3 1.1 26.65 M11.75 35.0 L11.7 34.95 11.55 34.8 11.7 35.0 11.75 35.0 12.65 35.95 14.5 38.25 Q18.0 43.05 20.4 48.4 21.3 50.35 21.7 52.55 22.1 54.85 23.35 56.9 26.35 61.9 31.3 65.35 M11.05 34.75 L11.55 34.55 11.6 34.55 Q15.25 33.3 21.55 33.45 L31.3 32.9 34.5 32.9 Q35.2 29.55 34.6 24.15 M11.7 35.0 L11.05 34.75 10.1 33.9 6.35 30.75 1.75 27.15 M12.65 35.95 L11.7 35.0 M33.95 19.45 L48.55 16.8 M-16.15 -53.2 L-16.25 -54.1 M-1.0 -26.0 L-1.75 -25.35 M-5.65 -13.95 L-6.05 -10.55 -5.95 -8.7 -5.9 -8.35 -5.45 -8.75 -1.55 -12.45 -0.3 -13.95 M-3.85 -28.3 Q-5.35 -27.15 -6.5 -25.35 M-9.65 -13.95 L-10.05 -4.55 -5.9 -8.35 M-18.05 -13.95 Q-18.95 -12.6 -19.2 -12.4 L-21.3 -11.45 Q-22.45 -10.95 -22.85 -9.9 L-22.8 -9.4 -22.7 -7.55 -22.65 -7.5 -22.55 -7.25 -21.95 -5.9 Q-19.75 -1.55 -16.5 0.85 L-14.5 2.05 -12.65 0.85 M-12.3 0.35 L-13.45 -0.5 -13.45 -0.55 Q-12.6 -2.05 -10.05 -4.55 L-10.1 -3.75 M-22.8 -9.4 Q-26.25 -8.0 -28.9 -6.8 -35.75 -3.85 -37.95 -2.35 -40.5 -0.6 -41.95 2.2 L-44.7 7.3 -47.0 10.9 -47.0 10.95 -47.1 11.05 -47.15 11.2 -49.1 14.9 Q-53.3 24.05 -51.8 32.6 L-54.65 37.1 Q-55.35 38.65 -55.4 41.05 L-55.4 41.2 -48.35 43.35 -48.3 44.15 M-48.35 27.35 Q-47.9 22.45 -46.8 18.5 L-46.2 16.65 -46.2 16.55 -46.1 16.3 Q-45.35 14.2 -44.4 12.55 -43.6 11.15 -42.65 10.1 L-42.45 9.85 -42.35 9.8 -42.3 9.7 -41.35 8.8 Q-40.25 7.9 -39.0 7.3 L-37.3 6.7 Q-34.7 6.0 -31.5 6.6 L-31.75 6.45 -31.4 6.6 -31.2 6.65 Q-28.85 6.35 -25.65 5.15 L-24.35 4.65 Q-20.9 3.25 -16.5 0.85 M-8.45 3.0 L-4.75 5.5 -1.55 7.8 M-8.45 3.0 L-12.05 0.55 -12.3 0.35 M-14.5 2.05 L-18.0 4.05 Q-21.0 5.45 -24.35 4.65 M-13.3 17.6 L-14.45 17.65 Q-18.6 17.65 -22.8 13.35 -25.15 10.95 -27.6 9.1 -29.5 7.65 -31.5 6.6 L-31.4 6.6 M-36.55 46.9 L-18.5 52.35 Q-18.55 49.05 -21.65 42.1 -23.8 38.25 -25.95 33.5 M-7.4 14.35 L-7.85 14.85 Q-9.9 17.25 -13.3 17.6 -9.5 19.45 -5.4 22.15 -5.5 19.75 -7.05 16.7 L-7.4 14.35 -3.6 10.05 M-44.7 28.75 L-45.15 28.75 M-45.2 44.3 L-36.55 46.9 M-5.4 22.15 L-0.75 25.3 M-48.35 27.35 L-48.45 28.35 -48.45 28.4 -48.45 28.6 -48.65 32.7 Q-48.8 37.6 -48.35 43.35 L-45.2 44.3 M-21.65 42.1 Q-17.55 49.55 -13.5 53.65" fill="none" stroke="#333333" stroke-linecap="round" stroke-linejoin="round" stroke-width="0.05"/>
    <path d="M26.05 -40.25 L27.75 -39.6 Q30.1 -38.6 32.5 -37.1 L34.2 -36.0 34.35 -35.9 37.35 -33.6 37.5 -33.5 37.55 -33.4 37.6 -33.4 Q43.35 -28.45 46.15 -21.8 L49.3 -13.95 M52.2 -2.2 L52.35 -0.95 52.6 1.2 Q53.1 5.15 54.3 10.7 L55.1 15.65 55.4 20.35 55.3 23.85 52.2 24.8 M26.05 -29.35 Q26.45 -29.15 26.8 -28.9 M43.0 -13.95 Q40.75 -22.9 37.55 -27.75 36.4 -29.5 35.05 -30.75 L32.2 -32.95 31.05 -33.55 Q28.75 -34.6 26.05 -34.7 M2.2 -25.35 L1.9 -24.45 Q0.55 -20.55 0.3 -16.4 L0.25 -14.7 1.35 -16.55 1.4 -16.65 2.85 -19.15 5.0 -22.05 6.4 -23.65 8.05 -25.35 M0.9 -25.35 L1.9 -24.45 M27.65 -13.95 L28.05 -15.25 M52.6 1.2 L52.2 1.3 M52.2 16.2 L55.1 15.65 M55.4 20.35 L52.2 20.95 M-1.75 -25.35 Q-3.85 -23.35 -4.8 -19.4 L-5.65 -13.95 M-0.3 -13.95 L0.25 -14.7 M-6.5 -25.35 Q-7.75 -23.4 -8.55 -20.7 L-8.65 -20.25 -9.1 -18.55 -9.2 -17.85 -9.25 -17.6 -9.65 -13.95 M-8.65 -20.25 L-11.65 -18.75 -15.6 -16.3 Q-17.05 -15.55 -17.9 -14.2 L-18.05 -13.95" fill="none" stroke="#333333" stroke-linecap="round" stroke-linejoin="round" stroke-width="0.05"/>
  </g>
</svg>
