<?xml version="1.0" encoding="UTF-8" standalone="no"?>
<svg xmlns:ffdec="https://www.free-decompiler.com/flash" xmlns:xlink="http://www.w3.org/1999/xlink" ffdec:objectType="shape" height="84.75px" width="66.4px" xmlns="http://www.w3.org/2000/svg">
  <g transform="matrix(1.0, 0.0, 0.0, 1.0, 33.2, 52.15)">
    <path d="M32.05 -36.5 L32.6 -36.5 33.2 -9.6 16.6 -11.35 -14.9 -14.75 -15.1 -14.9 -29.45 -33.8 -33.2 -38.75 Q-32.4 -59.7 -1.15 -47.95 L-0.6 -47.95 32.05 -36.5 M22.9 -21.05 L-11.45 -28.45 -21.75 -41.65 -29.2 -41.65 -13.75 -22.2 23.3 -17.15 22.9 -21.05" fill="#eeeeee" fill-rule="evenodd" stroke="none"/>
    <path d="M16.6 -11.35 L14.1 -6.85 13.1 -6.95 12.75 -4.0 -14.35 -6.65 -14.5 -6.7 -30.05 -27.0 -30.05 -27.25 -29.75 -33.6 -29.45 -33.8 -15.1 -14.9 -14.9 -14.75 16.6 -11.35" fill="#484848" fill-rule="evenodd" stroke="none"/>
    <path d="M14.1 -6.85 L12.75 -4.0 7.5 14.3 0.9 18.0 -1.25 31.85 -1.55 32.6 -7.85 32.6 -8.0 28.3 -16.7 27.55 -17.1 27.5 -15.45 -7.3 -30.9 -9.0 -30.05 -27.0 -14.5 -6.7 -14.35 -6.65 12.75 -4.0 13.1 -6.95 14.1 -6.85" fill="#555555" fill-rule="evenodd" stroke="none"/>
    <path d="M22.9 -21.05 L23.3 -17.15 -13.75 -22.2 -29.2 -41.65 -21.75 -41.65 -11.45 -28.45 22.9 -21.05" fill="#8a9ca8" fill-rule="evenodd" stroke="none"/>
    <path d="M32.6 -36.5 L33.2 -9.6 16.6 -11.35 14.1 -6.85 12.75 -4.0 7.5 14.3 0.9 18.0 -1.25 31.85 -1.55 32.6 M-7.85 32.6 L-8.0 28.3 -16.7 27.55 -17.15 28.15 -17.1 27.6 -17.1 27.5 -15.45 -7.3 -30.9 -9.0 -30.05 -27.0 M-30.05 -27.25 L-29.75 -33.6 M-29.45 -33.8 L-33.2 -38.75 Q-32.4 -59.7 -1.15 -47.95 M-0.6 -47.95 L32.05 -36.5 M-15.1 -14.9 L-29.45 -33.8 M-16.7 27.55 L-17.1 27.6 M16.6 -11.35 L-14.9 -14.75" fill="none" stroke="#333333" stroke-linecap="round" stroke-linejoin="round" stroke-width="0.05"/>
  </g>
</svg>
