<?xml version="1.0" encoding="UTF-8" standalone="no"?>
<svg xmlns:ffdec="https://www.free-decompiler.com/flash" xmlns:xlink="http://www.w3.org/1999/xlink" ffdec:objectType="shape" height="28.15px" width="83.05px" xmlns="http://www.w3.org/2000/svg">
  <g transform="matrix(1.0, 0.0, 0.0, 1.0, -20.95, 9.2)">
    <path d="M62.65 5.15 L62.75 5.2 63.6 5.6 67.4 5.85 Q69.85 5.05 66.4 -0.1 61.2 -7.8 70.45 -2.8 L81.55 3.75 Q89.35 8.35 85.55 -1.3 83.95 -5.3 84.0 -7.25 84.0 -10.1 87.35 -8.8 88.85 -8.2 90.3 -7.25 94.35 -4.5 98.75 3.85 101.95 9.9 104.0 18.95 L20.95 18.95 20.95 6.95 24.8 7.8 Q28.1 8.35 26.4 5.25 24.7 2.15 25.85 1.45 L30.1 1.6 Q33.3 2.45 38.7 4.75 44.1 7.05 45.6 7.05 48.0 7.05 48.05 5.0 48.0 2.05 48.15 3.0 48.3 0.35 54.95 1.85 58.45 2.8 61.3 4.4 L62.65 5.15" fill="url(#gradient0)" fill-rule="evenodd" stroke="none"/>
    <path d="M62.65 5.15 L61.3 4.4 61.45 4.45 62.65 5.15" fill="url(#gradient1)" fill-rule="evenodd" stroke="none"/>
    <path d="M104.0 18.95 Q101.95 9.9 98.75 3.85 94.35 -4.5 90.3 -7.25 88.85 -8.2 87.35 -8.8 84.0 -10.1 84.0 -7.25 83.95 -5.3 85.55 -1.3 89.35 8.35 81.55 3.75 L70.45 -2.8 Q61.2 -7.8 66.4 -0.1 69.85 5.05 67.4 5.85 L63.6 5.6 62.75 5.2 62.65 5.15 61.3 4.4 Q58.45 2.8 54.95 1.85 48.3 0.35 48.15 3.0 48.0 2.05 48.05 5.0 48.0 7.05 45.6 7.05 44.1 7.05 38.7 4.75 33.3 2.45 30.1 1.6 L25.85 1.45 Q24.7 2.15 26.4 5.25 28.1 8.35 24.8 7.8 L20.95 6.95 M62.65 5.15 L61.45 4.45 61.3 4.4" fill="none" stroke="#333333" stroke-linecap="round" stroke-linejoin="round" stroke-width="0.05"/>
  </g>
  <defs>
    <linearGradient gradientTransform="matrix(0.0, 0.0121, -0.1284, 0.0, -1.85, 7.55)" gradientUnits="userSpaceOnUse" id="gradient0" spreadMethod="pad" x1="-819.2" x2="819.2">
      <stop offset="0.6666666666666666" stop-color="#97d6f0" stop-opacity="0.8"/>
      <stop offset="0.8549019607843137" stop-color="#97d6f0" stop-opacity="0.0"/>
    </linearGradient>
    <linearGradient gradientTransform="matrix(0.0, 0.0121, -0.1284, 0.0, 18.65, 7.55)" gradientUnits="userSpaceOnUse" id="gradient1" spreadMethod="pad" x1="-819.2" x2="819.2">
      <stop offset="0.6666666666666666" stop-color="#97d6f0" stop-opacity="0.8"/>
      <stop offset="0.8549019607843137" stop-color="#97d6f0" stop-opacity="0.0"/>
    </linearGradient>
  </defs>
</svg>
