<?xml version="1.0" encoding="UTF-8" standalone="no"?>
<svg xmlns:ffdec="https://www.free-decompiler.com/flash" xmlns:xlink="http://www.w3.org/1999/xlink" ffdec:objectType="shape" height="33.55px" width="74.85px" xmlns="http://www.w3.org/2000/svg">
  <g transform="matrix(1.0, 0.0, 0.0, 1.0, -23.15, 14.0)">
    <path d="M59.8 3.45 L60.75 4.0 Q68.1 6.35 63.3 -2.95 58.5 -12.3 67.1 -6.25 L77.4 1.7 Q84.65 7.3 81.1 -4.4 77.55 -16.15 82.8 -13.5 88.05 -10.85 92.95 -1.15 96.1 5.2 97.15 17.5 L97.3 19.55 97.15 17.5 98.0 19.55 97.3 19.55 23.65 19.55 23.15 6.05 24.95 5.7 Q27.2 5.7 27.2 3.25 27.2 -0.35 27.3 0.8 27.45 -2.4 33.6 -0.55 37.7 0.9 40.8 3.45 43.85 5.95 47.05 5.75 50.2 5.55 50.05 2.25 49.9 -1.05 50.35 -1.25 52.2 -2.4 56.4 0.85 L59.8 3.45 M95.9 10.95 L96.35 16.8 Q96.4 16.15 96.85 16.9 L95.9 10.95" fill="url(#gradient0)" fill-rule="evenodd" stroke="none"/>
    <path d="M97.15 17.5 Q96.1 5.2 92.95 -1.15 88.05 -10.85 82.8 -13.5 77.55 -16.15 81.1 -4.4 84.65 7.3 77.4 1.7 L67.1 -6.25 Q58.5 -12.3 63.3 -2.95 68.1 6.35 60.75 4.0 L59.8 3.45 M47.05 5.75 Q43.85 5.95 40.8 3.45 37.7 0.9 33.6 -0.55 27.45 -2.4 27.3 0.8 27.2 -0.35 27.2 3.25 27.2 5.7 24.95 5.7 L23.15 6.05 M97.3 19.55 L97.15 17.5" fill="none" stroke="#666666" stroke-linecap="round" stroke-linejoin="round" stroke-width="0.05"/>
    <path d="M59.8 3.45 L56.4 0.85 Q52.2 -2.4 50.35 -1.25 49.9 -1.05 50.05 2.25 50.2 5.55 47.05 5.75" fill="none" stroke="#666666" stroke-linecap="round" stroke-linejoin="round" stroke-width="0.05"/>
  </g>
  <defs>
    <linearGradient gradientTransform="matrix(0.0, 0.0147, -0.1194, 0.0, -0.1, 6.35)" gradientUnits="userSpaceOnUse" id="gradient0" spreadMethod="pad" x1="-819.2" x2="819.2">
      <stop offset="0.6666666666666666" stop-color="#97d6f0" stop-opacity="0.8"/>
      <stop offset="0.8549019607843137" stop-color="#97d6f0" stop-opacity="0.0"/>
    </linearGradient>
  </defs>
</svg>
