<?xml version="1.0" encoding="UTF-8" standalone="no"?>
<svg xmlns:ffdec="https://www.free-decompiler.com/flash" xmlns:xlink="http://www.w3.org/1999/xlink" ffdec:objectType="shape" height="32.75px" width="195.85px" xmlns="http://www.w3.org/2000/svg">
  <g transform="matrix(1.0, 0.0, 0.0, 1.0, 95.8, 7.5)">
    <path d="M59.75 7.35 L62.6 7.95 Q63.6 7.9 63.95 6.75 64.3 5.55 63.0 3.65 61.65 1.7 61.8 0.5 L65.65 0.35 Q69.35 1.45 71.8 3.0 74.25 4.5 75.65 4.8 77.05 5.0 77.8 3.75 78.45 2.25 77.8 0.5 L75.75 -4.55 Q74.55 -7.8 77.25 -7.45 79.65 -6.9 83.25 -3.0 L87.85 2.9 Q92.3 8.5 92.45 2.9 L92.45 -1.95 Q93.5 -6.0 96.4 -2.05 100.6 2.35 100.0 21.15 L57.5 20.55 59.75 7.35" fill="url(#gradient0)" fill-rule="evenodd" stroke="none"/>
    <path d="M59.75 7.35 L57.5 20.55 -95.8 25.25 -94.4 12.4 Q-88.65 12.9 -88.35 6.95 -88.35 3.6 -87.2 3.5 -85.25 3.15 -83.25 4.3 L-80.8 5.8 Q-80.4 6.05 -78.9 7.2 -74.8 9.9 -74.3 8.25 -73.85 6.6 -74.4 4.75 -75.0 2.9 -69.0 4.1 -62.95 6.1 -59.3 7.9 -55.65 9.65 -55.95 6.6 -56.3 3.55 -55.85 2.4 -55.45 1.2 -52.95 1.5 -50.55 1.75 -47.5 4.3 -44.5 6.85 -42.7 7.65 -40.85 8.4 -40.2 7.35 -39.55 6.3 -39.3 4.0 -39.1 1.65 -36.8 1.7 -33.6 1.7 -29.0 4.4 -24.35 7.05 -21.5 7.05 -17.3 7.05 -16.6 5.4 -16.0 3.7 -13.1 3.7 -9.9 3.7 -5.1 5.6 -0.25 7.5 0.95 7.5 4.15 7.5 4.85 5.85 5.55 4.15 8.25 4.15 10.95 4.15 16.45 6.05 L22.75 7.95 Q25.7 7.95 25.85 6.5 L26.25 3.25 Q26.5 1.2 31.75 3.0 L36.3 5.3 Q40.95 7.75 43.65 7.7 46.3 7.65 46.05 5.4 45.7 3.15 49.7 3.65 53.7 4.15 56.6 5.85 58.3 6.85 59.75 7.35" fill="url(#gradient1)" fill-rule="evenodd" stroke="none"/>
    <path d="M100.0 21.15 Q100.6 2.35 96.4 -2.05 93.5 -6.0 92.45 -1.95 L92.45 2.9 Q92.3 8.5 87.85 2.9 L83.25 -3.0 Q79.65 -6.9 77.25 -7.45 74.55 -7.8 75.75 -4.55 L77.8 0.5 Q78.45 2.25 77.8 3.75 77.05 5.0 75.65 4.8 74.25 4.5 71.8 3.0 69.35 1.45 65.65 0.35 L61.8 0.5 Q61.65 1.7 63.0 3.65 64.3 5.55 63.95 6.75 63.6 7.9 62.6 7.95 L59.75 7.35 Q58.3 6.85 56.6 5.85 53.7 4.15 49.7 3.65 45.7 3.15 46.05 5.4 46.3 7.65 43.65 7.7 40.95 7.75 36.3 5.3 L31.75 3.0 Q26.5 1.2 26.25 3.25 L25.85 6.5 Q25.7 7.95 22.75 7.95 L16.45 6.05 Q10.95 4.15 8.25 4.15 5.55 4.15 4.85 5.85 4.15 7.5 0.95 7.5 -0.25 7.5 -5.1 5.6 -9.9 3.7 -13.1 3.7 -16.0 3.7 -16.6 5.4 -17.3 7.05 -21.5 7.05 -24.35 7.05 -29.0 4.4 -33.6 1.7 -36.8 1.7 -39.1 1.65 -39.3 4.0 -39.55 6.3 -40.2 7.35 -40.85 8.4 -42.7 7.65 -44.5 6.85 -47.5 4.3 -50.55 1.75 -52.95 1.5 -55.45 1.2 -55.85 2.4 -56.3 3.55 -55.95 6.6 -55.65 9.65 -59.3 7.9 -62.95 6.1 -69.0 4.1 -75.0 2.9 -74.4 4.75 -73.85 6.6 -74.3 8.25 -74.8 9.9 -78.9 7.2 -80.4 6.05 -80.8 5.8 L-83.25 4.3 Q-85.25 3.15 -87.2 3.5 -88.35 3.6 -88.35 6.95 -88.65 12.9 -94.4 12.4" fill="none" stroke="#000000" stroke-linecap="round" stroke-linejoin="round" stroke-width="0.05"/>
  </g>
  <defs>
    <linearGradient gradientTransform="matrix(-0.0016, 0.0094, -0.1181, 0.0, 4.45, 6.9)" gradientUnits="userSpaceOnUse" id="gradient0" spreadMethod="pad" x1="-819.2" x2="819.2">
      <stop offset="0.6666666666666666" stop-color="#97d6f0" stop-opacity="0.8"/>
      <stop offset="0.8549019607843137" stop-color="#97d6f0" stop-opacity="0.0"/>
    </linearGradient>
    <linearGradient gradientTransform="matrix(-0.0015, 0.0088, -0.1181, 0.0, 4.4, 7.3)" gradientUnits="userSpaceOnUse" id="gradient1" spreadMethod="pad" x1="-819.2" x2="819.2">
      <stop offset="0.6666666666666666" stop-color="#97d6f0" stop-opacity="0.8"/>
      <stop offset="0.8549019607843137" stop-color="#97d6f0" stop-opacity="0.0"/>
    </linearGradient>
  </defs>
</svg>
