<?xml version="1.0" encoding="UTF-8" standalone="no"?>
<svg xmlns:ffdec="https://www.free-decompiler.com/flash" xmlns:xlink="http://www.w3.org/1999/xlink" ffdec:objectType="shape" height="47.9px" width="204.45px" xmlns="http://www.w3.org/2000/svg">
  <g transform="matrix(1.0, 0.0, 0.0, 1.0, 108.0, 21.1)">
    <path d="M-100.45 16.65 Q-94.1 9.35 -97.7 2.05 -101.55 -5.95 -92.5 -0.95 -83.45 5.8 -81.45 6.35 -79.45 6.9 -80.6 2.5 -81.8 -1.9 -79.5 -2.35 -77.25 -2.75 -74.65 -0.75 -72.1 1.2 -69.25 4.0 -65.0 8.9 -64.45 5.2 L-63.6 0.05 Q-62.95 -4.45 -58.15 -3.15 -55.65 -2.3 -51.25 1.0 -46.85 4.3 -44.0 5.5 -41.15 6.7 -40.35 3.95 -40.1 2.95 -40.8 -0.25 -42.35 -3.6 -39.65 -3.95 -36.95 -4.35 -30.8 -0.4 -24.6 3.5 -22.1 4.55 -19.6 5.55 -19.9 3.0 -20.25 -0.8 -19.5 -2.0 -18.75 -3.2 -16.0 -3.15 L-13.85 -2.95 -11.65 -2.4 Q-9.55 -1.7 -7.45 -0.25 -5.05 1.35 0.3 3.9 5.65 6.45 4.25 1.85 2.8 -2.75 4.25 -3.85 5.65 -5.05 8.6 -3.65 11.55 -2.2 16.6 1.5 21.6 5.2 23.0 5.2 25.25 5.2 25.25 1.85 25.25 -2.95 25.35 -1.4 25.5 -5.65 31.65 -3.15 35.75 -1.2 38.85 2.15 41.9 5.5 45.1 5.25 48.25 4.95 48.1 0.55 47.95 -3.9 48.4 -4.1 50.25 -5.65 54.45 -1.35 L57.85 2.15 58.8 2.9 Q66.15 6.05 61.35 -6.4 56.55 -18.9 65.15 -10.8 L75.45 -0.15 Q82.7 7.35 79.15 -8.35 75.6 -24.05 80.85 -20.45 86.1 -16.9 91.0 -3.95 94.15 4.55 95.2 20.95 L96.45 25.2 -108.0 26.8 -100.45 16.65 M95.35 24.3 L95.2 20.95 95.35 24.3 M94.9 20.15 L93.95 12.2 94.4 19.95 Q94.45 19.1 94.9 20.15" fill="url(#gradient0)" fill-rule="evenodd" stroke="none"/>
    <path d="M45.1 5.25 Q41.9 5.5 38.85 2.15 35.75 -1.2 31.65 -3.15 25.5 -5.65 25.35 -1.4 25.25 -2.95 25.25 1.85 25.25 5.2 23.0 5.2 21.6 5.2 16.6 1.5 11.55 -2.2 8.6 -3.65 5.65 -5.05 4.25 -3.85 2.8 -2.75 4.25 1.85 5.65 6.45 0.3 3.9 -5.05 1.35 -7.45 -0.25 -9.55 -1.7 -11.65 -2.4 L-13.85 -2.95 -16.0 -3.15 Q-18.75 -3.2 -19.5 -2.0 -20.25 -0.8 -19.9 3.0 -19.6 5.55 -22.1 4.55 -24.6 3.5 -30.8 -0.4 -36.95 -4.35 -39.65 -3.95 -42.35 -3.6 -40.8 -0.25 -40.1 2.95 -40.35 3.95 -41.15 6.7 -44.0 5.5 -46.85 4.3 -51.25 1.0 -55.65 -2.3 -58.15 -3.15 -62.95 -4.45 -63.6 0.05 L-64.45 5.2 Q-65.0 8.9 -69.25 4.0 -72.1 1.2 -74.65 -0.75 -77.25 -2.75 -79.5 -2.35 -81.8 -1.9 -80.6 2.5 -79.45 6.9 -81.45 6.35 -83.45 5.8 -92.5 -0.95 -101.55 -5.95 -97.7 2.05 -94.1 9.35 -100.45 16.65 L-102.4 18.6 M95.2 20.95 L95.35 24.3 M95.2 20.95 Q94.15 4.55 91.0 -3.95 86.1 -16.9 80.85 -20.45 75.6 -24.05 79.15 -8.35 82.7 7.35 75.45 -0.15 L65.15 -10.8 Q56.55 -18.9 61.35 -6.4 66.15 6.05 58.8 2.9 L57.85 2.15" fill="none" stroke="#000000" stroke-linecap="round" stroke-linejoin="round" stroke-width="0.05"/>
    <path d="M57.85 2.15 L54.45 -1.35 Q50.25 -5.65 48.4 -4.1 47.95 -3.9 48.1 0.55 48.25 4.95 45.1 5.25" fill="none" stroke="#000000" stroke-linecap="round" stroke-linejoin="round" stroke-width="0.05"/>
  </g>
  <defs>
    <linearGradient gradientTransform="matrix(0.0, 0.0196, -0.1194, 0.0, -2.05, 6.05)" gradientUnits="userSpaceOnUse" id="gradient0" spreadMethod="pad" x1="-819.2" x2="819.2">
      <stop offset="0.6666666666666666" stop-color="#97d6f0" stop-opacity="0.8"/>
      <stop offset="0.8549019607843137" stop-color="#97d6f0" stop-opacity="0.0"/>
    </linearGradient>
  </defs>
</svg>
