<?xml version="1.0" encoding="UTF-8" standalone="no"?>
<svg xmlns:ffdec="https://www.free-decompiler.com/flash" xmlns:xlink="http://www.w3.org/1999/xlink" ffdec:objectType="shape" height="35.9px" width="204.45px" xmlns="http://www.w3.org/2000/svg">
  <g transform="matrix(1.0, 0.0, 0.0, 1.0, 108.0, 14.0)">
    <path d="M-100.45 14.3 Q-94.1 8.8 -97.7 3.4 -101.55 -2.6 -92.5 1.15 -83.45 6.15 -81.45 6.6 -79.45 7.0 -80.6 3.7 -81.8 0.4 -79.5 0.1 -77.25 -0.25 -74.65 1.25 -72.1 2.75 -69.25 4.8 -65.0 8.5 -64.45 5.7 L-63.6 1.85 Q-62.95 -1.5 -58.15 -0.55 -55.65 0.1 -51.25 2.6 -46.85 5.05 -44.0 5.95 -41.15 6.85 -40.35 4.8 -40.1 4.05 -40.8 1.65 -42.35 -0.85 -39.65 -1.15 -36.95 -1.4 -30.8 1.55 -24.6 4.45 -22.1 5.25 -19.6 6.0 -19.9 4.1 -20.25 1.25 -19.5 0.35 -18.75 -0.55 -16.0 -0.55 L-13.85 -0.4 -11.65 0.05 -11.65 21.35 -108.0 21.9 -100.45 14.3" fill="url(#gradient0)" fill-rule="evenodd" stroke="none"/>
    <path d="M-11.65 0.05 L-13.85 -0.4 -16.0 -0.55 Q-18.75 -0.55 -19.5 0.35 -20.25 1.25 -19.9 4.1 -19.6 6.0 -22.1 5.25 -24.6 4.45 -30.8 1.55 -36.95 -1.4 -39.65 -1.15 -42.35 -0.85 -40.8 1.65 -40.1 4.05 -40.35 4.8 -41.15 6.85 -44.0 5.95 -46.85 5.05 -51.25 2.6 -55.65 0.1 -58.15 -0.55 -62.95 -1.5 -63.6 1.85 L-64.45 5.7 Q-65.0 8.5 -69.25 4.8 -72.1 2.75 -74.65 1.25 -77.25 -0.25 -79.5 0.1 -81.8 0.4 -80.6 3.7 -79.45 7.0 -81.45 6.6 -83.45 6.15 -92.5 1.15 -101.55 -2.6 -97.7 3.4 -94.1 8.8 -100.45 14.3 L-102.4 15.75" fill="none" stroke="#000000" stroke-linecap="round" stroke-linejoin="round" stroke-width="0.05"/>
    <path d="M-11.65 0.05 Q-9.55 0.55 -7.45 1.65 L0.3 4.75 Q5.65 6.65 4.25 3.25 2.8 -0.2 4.25 -1.05 L8.6 -0.9 Q11.55 0.15 16.6 2.95 21.6 5.7 23.0 5.7 25.25 5.7 25.25 3.25 25.25 -0.35 25.35 0.8 25.5 -2.4 31.65 -0.55 35.75 0.9 38.85 3.45 41.9 5.95 45.1 5.75 48.25 5.55 48.1 2.25 47.95 -1.05 48.4 -1.25 50.25 -2.4 54.45 0.85 L57.85 3.45 58.8 4.0 Q66.15 6.35 61.35 -2.95 56.55 -12.3 65.15 -6.25 L75.45 1.7 Q82.7 7.3 79.15 -4.4 75.6 -16.15 80.85 -13.5 86.1 -10.85 91.0 -1.15 94.15 5.2 95.2 17.5 L96.45 20.7 -11.65 21.35 -11.65 0.05 M95.35 20.0 L95.2 17.5 95.35 20.0 M93.95 10.95 L94.4 16.8 Q94.45 16.15 94.9 16.9 L93.95 10.95" fill="url(#gradient1)" fill-rule="evenodd" stroke="none"/>
    <path d="M45.1 5.75 Q41.9 5.95 38.85 3.45 35.75 0.9 31.65 -0.55 25.5 -2.4 25.35 0.8 25.25 -0.35 25.25 3.25 25.25 5.7 23.0 5.7 21.6 5.7 16.6 2.95 11.55 0.15 8.6 -0.9 L4.25 -1.05 Q2.8 -0.2 4.25 3.25 5.65 6.65 0.3 4.75 L-7.45 1.65 Q-9.55 0.55 -11.65 0.05 M95.2 17.5 L95.35 20.0 M95.2 17.5 Q94.15 5.2 91.0 -1.15 86.1 -10.85 80.85 -13.5 75.6 -16.15 79.15 -4.4 82.7 7.3 75.45 1.7 L65.15 -6.25 Q56.55 -12.3 61.35 -2.95 66.15 6.35 58.8 4.0 L57.85 3.45" fill="none" stroke="#000000" stroke-linecap="round" stroke-linejoin="round" stroke-width="0.05"/>
    <path d="M57.85 3.45 L54.45 0.85 Q50.25 -2.4 48.4 -1.25 47.95 -1.05 48.1 2.25 48.25 5.55 45.1 5.75" fill="none" stroke="#000000" stroke-linecap="round" stroke-linejoin="round" stroke-width="0.05"/>
  </g>
  <defs>
    <linearGradient gradientTransform="matrix(0.0, 0.0147, -0.1194, 0.0, -2.05, 6.35)" gradientUnits="userSpaceOnUse" id="gradient0" spreadMethod="pad" x1="-819.2" x2="819.2">
      <stop offset="0.6666666666666666" stop-color="#97d6f0" stop-opacity="0.8"/>
      <stop offset="0.8549019607843137" stop-color="#97d6f0" stop-opacity="0.0"/>
    </linearGradient>
    <linearGradient gradientTransform="matrix(0.0, 0.0147, -0.1194, 0.0, -2.05, 6.35)" gradientUnits="userSpaceOnUse" id="gradient1" spreadMethod="pad" x1="-819.2" x2="819.2">
      <stop offset="0.6666666666666666" stop-color="#97d6f0" stop-opacity="0.8"/>
      <stop offset="0.8549019607843137" stop-color="#97d6f0" stop-opacity="0.0"/>
    </linearGradient>
  </defs>
</svg>
