<?xml version="1.0" encoding="UTF-8" standalone="no"?>
<svg xmlns:ffdec="https://www.free-decompiler.com/flash" xmlns:xlink="http://www.w3.org/1999/xlink" ffdec:objectType="shape" height="88.65px" width="83.25px" xmlns="http://www.w3.org/2000/svg">
  <g transform="matrix(1.0, 0.0, 0.0, 1.0, 41.6, 44.3)">
    <path d="M32.5 -1.05 L32.3 -1.0 32.3 -1.05 32.5 -1.05" fill="#ffe1c4" fill-rule="evenodd" stroke="none"/>
    <path d="M-31.7 -21.1 L-24.6 -16.0 -24.5 -16.0 Q-28.25 -7.65 -28.7 -4.15 L-29.1 0.1 -29.6 -0.65 Q-32.65 -2.6 -35.8 -1.75 L-36.3 -4.15 Q-36.8 -8.2 -35.95 -11.95 -34.95 -16.8 -31.7 -21.1" fill="#996633" fill-rule="evenodd" stroke="none"/>
    <path d="M3.35 -25.25 L3.35 -25.2 3.2 -25.2 3.35 -25.25" fill="#fec289" fill-rule="evenodd" stroke="none"/>
    <path d="M28.1 -21.7 L26.45 -23.85 26.05 -25.85 28.1 -21.7 M10.35 34.6 L7.1 33.25 11.25 32.0 11.3 32.0 10.85 33.1 10.65 33.75 10.35 34.6" fill="#ffcc99" fill-rule="evenodd" stroke="none"/>
    <path d="M17.7 -36.2 L22.65 -31.0 Q24.55 -28.55 26.05 -25.85 L26.45 -23.85 28.1 -21.7 28.6 -20.7 23.6 -15.95 Q27.55 -10.05 29.25 1.15 30.1 -0.15 31.6 -0.75 L32.3 -1.0 32.5 -1.05 35.8 -0.95 36.2 -0.8 Q39.5 0.2 40.85 3.75 42.3 7.5 41.05 11.6 39.75 15.6 36.5 17.7 34.7 19.0 29.6 19.3 27.55 24.7 24.25 29.45 L23.7 30.15 22.95 31.2 22.85 31.4 22.45 31.8 19.65 35.0 17.0 37.4 15.9 38.35 13.05 40.3 Q10.3 41.95 7.4 42.9 L6.25 43.2 2.85 43.95 -1.3 44.35 -2.6 44.3 Q-15.95 43.75 -25.5 31.45 -29.3 26.75 -31.7 21.3 L-32.7 18.7 -32.85 18.45 Q-34.7 18.2 -36.45 16.95 -39.75 14.85 -41.05 10.85 -42.3 6.7 -40.8 2.95 -39.5 -0.6 -36.2 -1.6 L-35.8 -1.75 Q-32.65 -2.6 -29.6 -0.65 L-29.1 0.1 -28.7 -4.15 Q-28.25 -7.65 -24.5 -16.0 L-24.6 -16.0 -31.7 -21.1 Q-29.4 -26.2 -25.9 -30.65 -21.1 -37.0 -15.2 -40.25 -6.15 -35.65 3.2 -25.2 L3.35 -25.2 3.35 -25.25 Q4.95 -26.05 7.9 -28.6 L11.7 -31.75 12.15 -32.05 17.7 -36.2 M-0.15 19.55 L9.4 21.45 6.1 2.05 9.4 21.45 -0.15 19.55 M10.35 34.6 L10.65 33.75 10.85 33.1 11.3 32.0 11.25 32.0 7.1 33.25 10.35 34.6" fill="url(#gradient0)" fill-rule="evenodd" stroke="none"/>
    <path d="M17.7 -36.2 L12.15 -32.05 11.7 -31.75 7.9 -28.6 Q4.95 -26.05 3.35 -25.25 L3.2 -25.2 Q-6.15 -35.65 -15.2 -40.25 -2.35 -47.8 10.15 -41.3 L14.35 -38.65 17.7 -36.2 M32.3 -1.0 L31.6 -0.75 Q30.1 -0.15 29.25 1.15 27.55 -10.05 23.6 -15.95 L28.6 -20.7 Q34.0 -11.4 32.3 -1.0" fill="url(#gradient1)" fill-rule="evenodd" stroke="none"/>
    <path d="M6.1 2.05 L9.4 21.45 -0.15 19.55" fill="none" stroke="#000000" stroke-linecap="round" stroke-linejoin="round" stroke-width="0.05"/>
    <path d="M3.2 -25.2 Q-6.15 -35.65 -15.2 -40.25 M-31.7 -21.1 L-24.6 -16.0 -24.5 -16.0 Q-28.25 -7.65 -28.7 -4.15 L-29.1 0.1" fill="none" stroke="#ca9460" stroke-linecap="round" stroke-linejoin="round" stroke-width="1.0"/>
    <path d="M17.7 -36.2 L12.15 -32.05 11.7 -31.75 7.9 -28.6 Q4.95 -26.05 3.35 -25.25 M29.25 1.15 Q27.55 -10.05 23.6 -15.95 L28.6 -20.7" fill="none" stroke="#996633" stroke-linecap="round" stroke-linejoin="round" stroke-width="1.0"/>
  </g>
  <defs>
    <radialGradient cx="0" cy="0" gradientTransform="matrix(0.0652, 0.0, 0.0, 0.1752, -20.35, 10.3)" gradientUnits="userSpaceOnUse" id="gradient0" r="819.2" spreadMethod="pad">
      <stop offset="0.40784313725490196" stop-color="#ffe1c4"/>
      <stop offset="0.6352941176470588" stop-color="#fec289"/>
    </radialGradient>
    <radialGradient cx="0" cy="0" gradientTransform="matrix(0.079, 0.0, 0.0, 0.2214, -27.45, 18.25)" gradientUnits="userSpaceOnUse" id="gradient1" r="819.2" spreadMethod="pad">
      <stop offset="0.47058823529411764" stop-color="#996633"/>
      <stop offset="0.5843137254901961" stop-color="#795128"/>
    </radialGradient>
  </defs>
</svg>
