<?xml version="1.0" encoding="UTF-8" standalone="no"?>
<svg xmlns:ffdec="https://www.free-decompiler.com/flash" xmlns:xlink="http://www.w3.org/1999/xlink" ffdec:objectType="shape" height="88.65px" width="83.25px" xmlns="http://www.w3.org/2000/svg">
  <g transform="matrix(1.0, 0.0, 0.0, 1.0, 41.6, 44.3)">
    <path d="M29.25 1.15 Q30.1 -0.15 31.6 -0.75 L32.3 -1.0 Q34.0 -11.4 28.6 -20.7 L28.1 -21.7 26.05 -25.85 Q24.55 -28.55 22.65 -31.0 L17.7 -36.2 14.35 -38.65 10.15 -41.3 Q-2.35 -47.8 -15.2 -40.25 -21.1 -37.0 -25.9 -30.65 -29.4 -26.2 -31.7 -21.1 -34.95 -16.8 -35.95 -11.95 -36.8 -8.2 -36.3 -4.15 L-35.8 -1.75 Q-32.65 -2.6 -29.6 -0.65 L-29.1 0.1 M32.3 -1.0 L32.5 -1.05 32.3 -1.05 32.3 -1.0 M-35.8 -1.75 L-36.2 -1.6 Q-39.5 -0.6 -40.8 2.95 -42.3 6.7 -41.05 10.85 -39.75 14.85 -36.45 16.95 -34.7 18.2 -32.85 18.45 L-32.7 18.7 -31.7 21.3 Q-29.3 26.75 -25.5 31.45 -15.95 43.75 -2.6 44.3 L-1.3 44.35 2.85 43.95 6.25 43.2 7.4 42.9 Q10.3 41.95 13.05 40.3 L15.9 38.35 17.0 37.4 19.65 35.0 22.45 31.8 22.85 31.4 22.95 31.2 23.7 30.15 24.25 29.45 Q27.55 24.7 29.6 19.3 34.7 19.0 36.5 17.7 39.75 15.6 41.05 11.6 42.3 7.5 40.85 3.75 39.5 0.2 36.2 -0.8 L35.8 -0.95 32.5 -1.05" fill="none" stroke="#000000" stroke-linecap="round" stroke-linejoin="round" stroke-width="0.05"/>
  </g>
</svg>
