<?xml version="1.0" encoding="UTF-8" standalone="no"?>
<svg xmlns:ffdec="https://www.free-decompiler.com/flash" xmlns:xlink="http://www.w3.org/1999/xlink" ffdec:objectType="shape" height="7.8px" width="33.35px" xmlns="http://www.w3.org/2000/svg">
  <g transform="matrix(1.0, 0.0, 0.0, 1.0, 16.7, 3.9)">
    <path d="M-16.7 -0.25 Q-16.65 -1.85 -15.55 -2.85 L-15.55 -2.8 Q-14.55 -3.95 -13.0 -3.9 -11.6 -3.85 -10.6 -2.8 L-10.65 -2.8 -10.55 -2.7 Q-9.65 -1.65 -9.7 0.0 -9.75 1.45 -10.7 2.55 L-10.85 2.65 Q-11.95 3.55 -13.3 3.5 -14.85 3.45 -15.7 2.45 -16.75 1.3 -16.7 -0.25 M10.8 -2.45 L10.8 -2.4 Q11.8 -3.55 13.35 -3.5 14.75 -3.45 15.75 -2.4 L15.7 -2.4 15.8 -2.3 Q16.7 -1.25 16.65 0.4 16.6 1.85 15.65 2.95 L15.5 3.05 Q14.4 3.95 13.05 3.9 11.5 3.85 10.65 2.85 9.6 1.7 9.65 0.15 9.7 -1.45 10.8 -2.45" fill="#000000" fill-rule="evenodd" stroke="none"/>
  </g>
</svg>
