<?xml version="1.0" encoding="UTF-8" standalone="no"?>
<svg xmlns:ffdec="https://www.free-decompiler.com/flash" xmlns:xlink="http://www.w3.org/1999/xlink" ffdec:objectType="shape" height="77.7px" width="68.45px" xmlns="http://www.w3.org/2000/svg">
  <g transform="matrix(1.0, 0.0, 0.0, 1.0, 14.85, 126.1)">
    <path d="M26.85 -114.8 Q30.45 -126.15 35.6 -126.1 L41.25 -126.1 Q46.4 -126.15 50.0 -114.8 53.6 -103.45 53.6 -87.25 53.6 -71.15 50.0 -59.8 46.4 -48.45 41.25 -48.4 L35.6 -48.4 Q30.45 -48.45 26.85 -59.8 23.25 -71.15 23.25 -87.25 23.25 -103.45 26.85 -114.8" fill="#febb78" fill-rule="evenodd" stroke="none"/>
    <path d="M26.85 -114.8 Q30.45 -126.15 35.6 -126.1 L41.25 -126.1 Q46.4 -126.15 50.0 -114.8 53.6 -103.45 53.6 -87.25 53.6 -71.15 50.0 -59.8 46.4 -48.45 41.25 -48.4 L35.6 -48.4 Q30.45 -48.45 26.85 -59.8 23.25 -71.15 23.25 -87.25 23.25 -103.45 26.85 -114.8" fill="#000000" fill-opacity="0.2" fill-rule="evenodd" stroke="none"/>
    <path d="M-14.85 -76.1 L-14.1 -76.75" fill="none" stroke="#000000" stroke-linecap="round" stroke-linejoin="round" stroke-width="0.05"/>
  </g>
</svg>
