<?xml version="1.0" encoding="UTF-8" standalone="no"?>
<svg xmlns:ffdec="https://www.free-decompiler.com/flash" xmlns:xlink="http://www.w3.org/1999/xlink" ffdec:objectType="shape" height="140.95px" width="59.45px" xmlns="http://www.w3.org/2000/svg">
  <g transform="matrix(1.0, 0.0, 0.0, 1.0, 29.75, 69.45)">
    <path d="M22.0 60.2 L21.75 61.8 20.4 61.55 20.5 60.8 22.0 60.2" fill="#ea4f0d" fill-rule="evenodd" stroke="none"/>
    <path d="M-24.45 16.9 L-24.3 15.7 -23.45 15.85 -24.45 16.9 M-17.15 48.8 L-17.2 48.8 -17.15 48.0 -17.15 48.8" fill="#ff6633" fill-rule="evenodd" stroke="none"/>
    <path d="M-15.15 16.6 L-15.2 16.85 -15.2 16.6 -15.15 16.6" fill="#152f7c" fill-rule="evenodd" stroke="none"/>
    <path d="M-15.2 16.85 L-15.4 16.6 -15.2 16.6 -15.2 16.85" fill="#1e47a6" fill-rule="evenodd" stroke="none"/>
    <path d="M27.0 27.95 L26.8 29.35 25.65 29.15 25.75 28.4 27.0 27.95 M17.95 -69.25 L12.3 -69.4 16.9 -69.35 20.35 -69.2 17.95 -69.25" fill="url(#gradient0)" fill-rule="evenodd" stroke="none"/>
    <path d="M20.35 -69.2 Q22.15 -67.0 24.0 -60.5 25.5 -53.3 26.2 -46.0 L27.9 -28.35 Q28.8 -19.0 29.3 -9.75 29.85 -0.55 29.65 8.45 29.55 13.1 28.8 17.45 L28.4 19.75 Q27.9 16.2 25.15 15.65 1.55 18.35 -10.9 17.05 L-15.15 16.6 -15.2 16.6 -15.4 16.6 -23.45 15.85 -24.3 15.7 -23.55 10.65 Q-17.6 6.4 -14.25 -0.25 0.75 -30.05 -19.45 -54.7 -11.6 -62.8 -0.75 -66.15 8.4 -68.8 17.95 -69.25 L20.35 -69.2" fill="url(#gradient1)" fill-rule="evenodd" stroke="none"/>
    <path d="M26.8 29.35 L25.75 35.4 Q24.45 43.3 23.3 51.3 22.25 48.25 18.2 47.45 -2.65 49.8 -14.3 49.0 L-17.05 48.8 -17.15 48.8 -17.15 48.0 -17.2 48.8 Q-24.4 48.35 -26.45 48.65 -26.7 41.6 -26.35 34.6 L-25.95 29.45 -25.85 28.5 -25.55 28.7 -24.9 28.75 -18.75 29.9 -16.9 30.15 -16.65 30.2 4.2 30.85 Q21.1 30.75 25.65 29.15 L26.8 29.35 M21.75 61.8 L20.15 71.5 -25.65 71.5 -25.9 61.6 -24.95 61.9 -17.05 62.5 -16.55 62.5 -3.35 62.6 20.4 61.55 21.75 61.8" fill="url(#gradient2)" fill-rule="evenodd" stroke="none"/>
    <path d="M28.4 19.75 Q28.85 22.65 27.75 27.65 L27.0 27.95 25.75 28.4 25.65 29.15 Q21.1 30.75 4.2 30.85 L-16.65 30.2 -16.9 30.15 -18.75 29.9 -24.9 28.75 -25.55 28.7 -25.85 28.5 Q-27.35 27.35 -27.35 25.55 -27.35 23.15 -26.6 20.7 -26.05 18.8 -24.45 16.9 L-23.45 15.85 -15.4 16.6 -15.2 16.85 -15.15 16.6 -10.9 17.05 Q1.55 18.35 25.15 15.65 27.9 16.2 28.4 19.75 M23.3 51.3 Q24.4 54.45 22.35 60.05 22.2 60.15 22.0 60.2 L20.5 60.8 20.4 61.55 -3.35 62.6 -16.55 62.5 -17.05 62.5 -24.95 61.9 -25.9 61.6 -27.4 61.15 -28.05 61.1 Q-29.75 59.9 -29.75 56.5 -29.75 53.05 -29.05 51.3 -28.35 49.45 -27.15 48.8 L-26.45 48.65 Q-24.4 48.35 -17.2 48.8 L-17.15 48.8 -17.05 48.8 -14.3 49.0 Q-2.65 49.8 18.2 47.45 22.25 48.25 23.3 51.3" fill="url(#gradient3)" fill-rule="evenodd" stroke="none"/>
    <path d="M20.35 -69.2 Q22.15 -67.0 24.0 -60.5 25.5 -53.3 26.2 -46.0 L27.9 -28.35 Q28.8 -19.0 29.3 -9.75 29.85 -0.55 29.65 8.45 29.55 13.1 28.8 17.45 L28.4 19.75 Q28.85 22.65 27.75 27.65 L27.0 27.95 26.8 29.35 25.75 35.4 Q24.45 43.3 23.3 51.3 24.4 54.45 22.35 60.05 22.2 60.15 22.0 60.2 L21.75 61.8 20.15 71.5 M-25.65 71.5 L-25.9 61.6 -27.4 61.15 -28.05 61.1 Q-29.75 59.9 -29.75 56.5 -29.75 53.05 -29.05 51.3 -28.35 49.45 -27.15 48.8 L-26.45 48.65 Q-26.7 41.6 -26.35 34.6 L-25.95 29.45 -25.85 28.5 Q-27.35 27.35 -27.35 25.55 -27.35 23.15 -26.6 20.7 -26.05 18.8 -24.45 16.9 L-24.3 15.7 -23.55 10.65 Q-17.6 6.4 -14.25 -0.25 0.75 -30.05 -19.45 -54.7 -11.6 -62.8 -0.75 -66.15 8.4 -68.8 17.95 -69.25 L20.35 -69.2 M28.4 19.75 Q27.9 16.2 25.15 15.65 1.55 18.35 -10.9 17.05 L-15.15 16.6 -15.2 16.6 -15.4 16.6 -23.45 15.85 -24.45 16.9 M25.65 29.15 Q21.1 30.75 4.2 30.85 L-16.65 30.2 -16.9 30.15 -18.75 29.9 -24.9 28.75 -25.55 28.7 -25.85 28.5 M25.65 29.15 L25.75 28.4 27.0 27.95 M22.0 60.2 L20.5 60.8 20.4 61.55 -3.35 62.6 -16.55 62.5 -17.05 62.5 -24.95 61.9 -25.9 61.6 M23.3 51.3 Q22.25 48.25 18.2 47.45 -2.65 49.8 -14.3 49.0 L-17.05 48.8 -17.15 48.8 -17.2 48.8 Q-24.4 48.35 -26.45 48.65" fill="none" stroke="#000000" stroke-linecap="round" stroke-linejoin="round" stroke-width="0.05"/>
  </g>
  <defs>
    <radialGradient cx="0" cy="0" gradientTransform="matrix(0.0657, 0.0, 0.0, 0.1173, -20.85, -30.4)" gradientUnits="userSpaceOnUse" id="gradient0" r="819.2" spreadMethod="pad">
      <stop offset="0.42745098039215684" stop-color="#ff6633"/>
      <stop offset="0.4745098039215686" stop-color="#fd642f"/>
      <stop offset="0.5843137254901961" stop-color="#ea4f0d"/>
    </radialGradient>
    <radialGradient cx="0" cy="0" gradientTransform="matrix(0.0657, 0.0, 0.0, 0.1173, -20.85, -30.4)" gradientUnits="userSpaceOnUse" id="gradient1" r="819.2" spreadMethod="pad">
      <stop offset="0.42745098039215684" stop-color="#fc6a47"/>
      <stop offset="0.4745098039215686" stop-color="#fc6a47"/>
      <stop offset="0.5843137254901961" stop-color="#ea4f0d"/>
    </radialGradient>
    <linearGradient gradientTransform="matrix(0.0326, 0.0, 0.0, 0.0139, -13.05, 38.85)" gradientUnits="userSpaceOnUse" id="gradient2" spreadMethod="pad" x1="-819.2" x2="819.2">
      <stop offset="0.42745098039215684" stop-color="#fc6a47"/>
      <stop offset="0.4745098039215686" stop-color="#fc6a47"/>
      <stop offset="0.5843137254901961" stop-color="#ea4f0d"/>
    </linearGradient>
    <linearGradient gradientTransform="matrix(0.0276, 7.0E-4, -2.0E-4, 0.0093, -11.75, 24.45)" gradientUnits="userSpaceOnUse" id="gradient3" spreadMethod="pad" x1="-819.2" x2="819.2">
      <stop offset="0.4627450980392157" stop-color="#1e47a6"/>
      <stop offset="0.6039215686274509" stop-color="#152f7c"/>
    </linearGradient>
  </defs>
</svg>
