<?xml version="1.0" encoding="UTF-8" standalone="no"?>
<svg xmlns:ffdec="https://www.free-decompiler.com/flash" xmlns:xlink="http://www.w3.org/1999/xlink" ffdec:objectType="shape" height="144.6px" width="447.25px" xmlns="http://www.w3.org/2000/svg">
  <g transform="matrix(1.0, 0.0, 0.0, 1.0, 223.6, 72.3)">
    <path d="M81.5 14.5 Q83.3 20.3 82.1 26.15 L159.8 18.9 219.1 11.2 217.55 3.95 219.1 3.95 223.65 11.8 221.3 15.4 175.8 23.1 Q185.7 25.15 185.05 34.7 183.85 47.45 167.9 47.45 153.55 44.4 158.1 30.8 L158.25 30.35 158.25 28.15 156.9 28.15 155.8 27.7 155.8 30.1 151.0 34.7 150.75 28.4 136.7 29.9 133.65 35.6 Q137.65 55.25 117.15 53.85 103.65 51.55 107.7 36.05 L96.5 39.1 89.45 46.8 88.35 45.05 88.15 40.65 74.7 44.6 Q74.45 46.6 72.75 48.4 L69.6 51.3 70.1 51.9 Q70.85 53.1 70.85 54.8 70.85 56.5 70.1 57.7 69.35 58.9 68.3 58.9 67.25 58.9 66.5 57.7 L64.3 58.1 Q63.55 59.35 62.45 59.35 61.6 59.35 60.95 58.6 L59.15 60.2 59.8 61.5 Q61.1 61.55 61.95 62.75 62.9 64.0 62.9 65.8 62.9 67.6 61.95 68.85 61.05 70.1 59.7 70.1 58.35 70.1 57.4 68.85 56.75 67.95 56.6 66.75 55.95 66.55 55.45 66.05 55.35 67.65 54.65 68.8 53.9 70.1 52.8 70.1 51.7 70.1 50.9 68.8 L50.4 67.6 49.7 67.7 Q48.6 67.7 47.8 66.45 47.05 65.25 47.05 63.5 47.05 61.75 47.8 60.5 48.6 59.3 49.7 59.3 50.8 59.3 51.55 60.5 L52.05 61.5 52.8 61.3 53.25 61.35 53.35 60.95 53.4 60.8 Q52.1 59.4 52.1 57.9 L52.15 57.3 53.2 57.35 53.2 56.9 52.75 52.3 Q52.0 52.1 50.65 50.8 L49.8 50.0 48.8 52.95 40.05 56.05 40.05 54.1 33.2 55.15 29.45 55.4 28.55 57.7 Q27.7 59.7 27.75 61.8 L28.1 61.15 Q28.9 60.0 30.05 60.0 31.2 60.0 32.0 61.15 L32.3 61.7 33.2 61.5 Q34.55 61.5 35.5 62.9 36.5 64.3 36.5 66.25 36.5 68.2 35.5 69.6 34.55 71.0 33.2 71.0 31.85 71.0 30.85 69.6 L30.15 68.1 30.05 68.1 Q28.9 68.1 28.15 66.95 27.9 68.45 27.1 69.6 26.0 71.2 24.45 71.2 22.9 71.2 21.8 69.6 21.1 68.6 20.85 67.35 L20.25 67.45 Q19.15 67.45 18.35 66.35 17.6 65.25 17.6 63.7 17.6 62.15 18.35 61.05 19.15 59.95 20.25 59.95 21.35 59.95 22.1 61.05 L22.25 61.25 Q23.2 60.2 24.45 60.2 L24.85 60.25 24.65 58.25 Q25.85 57.4 26.2 57.35 L26.2 55.55 26.15 55.55 Q10.6 56.3 -3.35 56.0 L-4.1 57.45 -3.9 60.65 -3.6 60.6 Q-2.65 60.6 -2.0 61.65 L-1.8 62.0 -0.75 61.7 Q0.4 61.7 1.2 62.95 L1.55 63.6 2.25 63.5 Q3.55 63.5 4.45 64.75 5.35 66.0 5.35 67.8 5.35 69.6 4.45 70.85 3.55 72.1 2.25 72.1 0.95 72.1 0.05 70.85 L-0.3 70.25 -0.75 70.3 Q-1.9 70.3 -2.7 69.05 L-3.2 68.0 Q-3.3 69.65 -4.1 70.9 -4.95 72.3 -6.2 72.3 -7.45 72.3 -8.35 70.9 L-8.9 69.65 -9.85 69.9 Q-10.95 69.9 -11.75 68.65 L-11.85 68.5 -12.35 68.55 Q-13.3 68.55 -14.0 67.4 L-14.25 66.9 Q-14.35 68.2 -14.9 69.15 -15.55 70.3 -16.45 70.3 -17.35 70.3 -18.0 69.15 L-18.55 67.65 -19.6 67.9 Q-20.85 67.9 -21.75 66.55 L-22.25 65.45 -22.4 65.45 -22.35 66.25 Q-22.35 67.95 -23.1 69.1 -23.85 70.3 -24.9 70.3 -25.95 70.3 -26.7 69.1 L-27.1 68.35 -27.2 68.35 Q-28.1 68.35 -28.75 67.1 -29.4 65.85 -29.4 64.05 -29.4 62.25 -28.75 61.0 -28.1 59.75 -27.2 59.75 -26.3 59.75 -25.65 61.0 -25.35 61.55 -25.2 62.25 L-24.9 62.2 -24.3 62.3 -24.25 61.1 -23.9 54.5 -46.95 48.05 -47.0 48.1 Q-48.9 52.65 -57.55 54.7 -72.3 56.75 -78.2 45.25 L-81.9 46.6 -82.6 45.25 -79.95 41.1 -102.15 36.7 -112.9 44.4 -112.9 42.85 -111.6 40.45 -111.6 35.6 -130.25 32.55 Q-131.35 45.9 -142.8 47.2 -159.2 49.1 -162.35 39.8 -164.1 34.2 -161.45 30.35 L-161.7 27.45 -173.35 35.15 -173.35 33.85 -170.9 29.9 -171.55 25.25 -167.6 21.75 -220.55 15.4 -223.45 12.3 -223.1 12.35 -223.6 4.65 -220.6 6.15 -217.7 12.7 -45.1 24.1 Q-42.95 16.95 -36.9 12.75 L-46.35 -71.85 -37.1 -72.3 -19.75 -1.75 Q-17.8 4.35 -14.9 3.95 L38.75 -9.55 Q59.4 -14.4 72.3 -3.75 77.6 0.95 81.5 14.5 M62.7 48.05 Q61.5 48.4 61.05 48.9 60.75 49.15 60.7 49.45 L60.7 50.55 Q60.9 50.55 61.15 51.5 61.75 50.95 62.45 50.95 63.25 50.95 63.9 51.6 L64.4 51.45 64.4 47.3 Q63.7 47.75 62.7 48.05 M55.45 66.0 L55.4 66.0 55.45 66.05 55.45 66.0 M-6.35 55.9 L-19.05 55.2 -20.85 56.7 -20.85 59.3 Q-20.3 58.9 -19.6 58.9 -18.35 58.9 -17.5 60.2 -16.8 61.25 -16.65 62.65 L-16.45 62.6 Q-15.55 62.6 -14.9 63.7 L-14.65 64.15 Q-14.6 62.8 -14.0 61.8 -13.3 60.65 -12.35 60.65 -11.45 60.65 -10.75 61.75 L-9.85 61.5 Q-8.95 61.5 -8.3 62.3 -8.25 58.3 -6.35 57.55 L-6.35 55.9 M-3.25 67.8 L-3.2 68.0 -3.2 67.8 -3.25 67.8 M-14.65 64.25 L-14.6 64.25 -14.65 64.15 -14.65 64.25 M-14.25 66.9 L-14.25 66.85 -14.3 66.85 -14.25 66.9" fill="#000000" fill-rule="evenodd" stroke="none"/>
  </g>
</svg>
