<?xml version="1.0" encoding="UTF-8" standalone="no"?>
<svg xmlns:ffdec="https://www.free-decompiler.com/flash" xmlns:xlink="http://www.w3.org/1999/xlink" ffdec:objectType="shape" height="140.75px" width="56.25px" xmlns="http://www.w3.org/2000/svg">
  <g transform="matrix(1.0, 0.0, 0.0, 1.0, 28.1, 70.1)">
    <path d="M-3.8 -65.85 L0.25 -65.85 Q11.8 -65.6 22.1 -60.45 L22.65 -60.6 22.65 -60.55 Q24.1 -53.3 26.65 -25.7 29.6 6.9 26.8 20.25 24.0 33.55 21.65 50.8 L18.65 70.65 -27.15 70.65 -28.1 42.7 Q-27.6 35.75 -27.6 31.35 -27.7 26.15 -26.2 17.95 -25.25 12.85 -25.05 9.8 L-22.35 7.0 Q3.85 -23.75 -19.6 -54.2 -14.2 -61.6 -6.1 -65.45 L-6.05 -65.5 -2.5 -66.95 -2.1 -67.1 -3.8 -65.85" fill="#ea4f0d" fill-rule="evenodd" stroke="none"/>
    <path d="M22.1 -60.45 Q11.8 -65.6 0.25 -65.85 L-3.8 -65.85 -2.1 -67.1 Q8.65 -70.8 19.65 -69.9 L20.15 -68.75 21.5 -64.4 22.5 -61.35 22.65 -60.6 22.1 -60.45" fill="#c8440d" fill-rule="evenodd" stroke="none"/>
    <path d="M-3.8 -65.85 L0.25 -65.85 Q11.8 -65.6 22.1 -60.45" fill="none" stroke="#e04d0e" stroke-linecap="round" stroke-linejoin="round" stroke-width="1.5"/>
  </g>
</svg>
