<?xml version="1.0" encoding="UTF-8" standalone="no"?>
<svg xmlns:ffdec="https://www.free-decompiler.com/flash" xmlns:xlink="http://www.w3.org/1999/xlink" ffdec:objectType="shape" height="46.95px" width="58.3px" xmlns="http://www.w3.org/2000/svg">
  <g transform="matrix(1.0, 0.0, 0.0, 1.0, 31.3, -14.75)">
    <path d="M2.65 29.95 L-20.3 29.0 -26.45 27.85 -27.1 27.8 Q-28.9 26.6 -28.9 24.65 -28.9 22.25 -28.15 19.8 -27.45 17.35 -25.0 14.95 L-12.45 16.15 Q0.0 17.45 23.6 14.75 28.6 15.75 26.2 26.75 L24.2 27.5 24.1 28.25 Q19.55 29.85 2.65 29.95 M18.95 59.9 L18.85 60.65 -4.9 61.7 -26.5 61.0 -28.95 60.25 -29.6 60.2 Q-31.3 59.0 -31.3 55.6 -31.3 52.15 -30.6 50.4 -29.9 48.55 -28.7 47.9 -27.55 47.25 -15.85 48.1 -4.2 48.9 16.65 46.55 24.85 48.15 20.8 59.15 L18.95 59.9" fill="#152f7c" fill-rule="evenodd" stroke="none"/>
    <path d="M2.65 29.95 L-20.3 29.0 -26.45 27.85 -27.1 27.8 Q-28.9 26.6 -28.9 24.65 -28.9 22.25 -28.15 19.8 -27.45 17.35 -25.0 14.95 L-12.45 16.15 Q0.0 17.45 23.6 14.75 28.6 15.75 26.2 26.75 L24.2 27.5 24.1 28.25 Q19.55 29.85 2.65 29.95 M18.95 59.9 L18.85 60.65 -4.9 61.7 -26.5 61.0 -28.95 60.25 -29.6 60.2 Q-31.3 59.0 -31.3 55.6 -31.3 52.15 -30.6 50.4 -29.9 48.55 -28.7 47.9 -27.55 47.25 -15.85 48.1 -4.2 48.9 16.65 46.55 24.85 48.15 20.8 59.15 L18.95 59.9 Z" fill="none" stroke="#000000" stroke-linecap="round" stroke-linejoin="round" stroke-width="0.05"/>
  </g>
</svg>
