<?xml version="1.0" encoding="UTF-8" standalone="no"?>
<svg xmlns:ffdec="https://www.free-decompiler.com/flash" xmlns:xlink="http://www.w3.org/1999/xlink" ffdec:objectType="shape" height="82.85px" width="34.45px" xmlns="http://www.w3.org/2000/svg">
  <g transform="matrix(1.0, 0.0, 0.0, 1.0, 12.8, 15.25)">
    <path d="M3.85 -14.65 L4.05 -13.55 4.1 -13.05 4.3 -12.55 Q6.65 -5.35 14.55 14.95 22.3 36.65 21.6 47.35 20.85 58.0 19.75 63.15 18.6 68.3 9.85 67.5 1.05 66.65 -0.95 59.3 -2.95 51.95 -3.5 45.2 L-4.8 29.3 Q-5.6 20.25 -6.7 10.95 -7.7 2.75 -12.45 -14.65 L3.85 -14.65" fill="#fec289" fill-rule="evenodd" stroke="none"/>
    <path d="M-12.45 -14.65 Q-7.7 2.75 -6.7 10.95 -5.6 20.25 -4.8 29.3 L-3.5 45.2 Q-2.95 51.95 -0.95 59.3 1.05 66.65 9.85 67.5 18.6 68.3 19.75 63.15 20.85 58.0 21.6 47.35 22.3 36.65 14.55 14.95 6.65 -5.35 4.3 -12.55 L4.1 -13.05 4.05 -13.55 3.85 -14.65 M-12.45 -14.65 L-12.7 -15.25 -12.8 -14.75 M4.05 -13.55 L4.3 -12.55" fill="none" stroke="#000000" stroke-linecap="round" stroke-linejoin="round" stroke-width="0.05"/>
  </g>
</svg>
