<?xml version="1.0" encoding="UTF-8" standalone="no"?>
<svg xmlns:ffdec="https://www.free-decompiler.com/flash" xmlns:xlink="http://www.w3.org/1999/xlink" ffdec:objectType="shape" height="196.2px" width="442.35px" xmlns="http://www.w3.org/2000/svg">
  <g transform="matrix(1.0, 0.0, 0.0, 1.0, 252.8, 122.65)">
    <path d="M-248.9 72.8 Q-146.55 35.0 -115.05 -11.0 L-107.1 -20.65 Q-95.6 -34.55 -82.95 -47.6 -70.95 -60.05 -58.2 -71.55 -45.75 -82.8 -31.45 -91.95 -16.35 -101.55 0.2 -108.7 18.1 -116.5 38.95 -122.0 37.55 -114.1 36.45 -106.05 L25.95 -100.0 35.4 -98.05 33.9 -82.6 33.4 -75.3 22.95 -71.0 32.1 -67.6 32.75 -36.2 32.95 -30.0 Q33.1 -24.4 33.9 -19.2 L26.95 -14.0 35.7 -10.65 Q37.55 -3.8 44.35 8.6 L44.05 8.0 45.35 9.85 45.5 10.1 38.6 14.25 50.8 16.55 Q64.9 31.95 87.95 40.0 L188.3 72.8 188.9 72.8 M-249.45 72.8 L-249.05 72.85 -248.9 72.8 M44.35 8.6 L45.35 9.85" fill="none" stroke="#000000" stroke-linecap="round" stroke-linejoin="round" stroke-width="1.3"/>
    <path d="M-249.45 72.8 L-252.2 72.8 M-248.9 72.8 L-249.45 72.8" fill="none" stroke="#000000" stroke-linecap="round" stroke-linejoin="round" stroke-width="1.2000000000000002"/>
  </g>
</svg>
