<?xml version="1.0" encoding="UTF-8" standalone="no"?>
<svg xmlns:ffdec="https://www.free-decompiler.com/flash" xmlns:xlink="http://www.w3.org/1999/xlink" ffdec:objectType="shape" height="36.1px" width="180.55px" xmlns="http://www.w3.org/2000/svg">
  <g transform="matrix(1.0, 0.0, 0.0, 1.0, 84.0, 14.35)">
    <path d="M-83.65 6.8 L-79.5 6.6 Q-77.5 7.0 -78.65 3.7 -79.85 0.4 -77.55 0.1 -75.3 -0.25 -72.7 1.25 -70.15 2.75 -67.3 4.8 -63.05 8.5 -62.5 5.7 L-61.65 1.85 Q-61.0 -1.5 -56.2 -0.55 -53.7 0.1 -49.3 2.6 -44.9 5.05 -42.05 5.95 -39.2 6.85 -38.4 4.8 -38.15 4.05 -38.85 1.65 -40.4 -0.85 -37.7 -1.15 -35.0 -1.4 -28.85 1.55 -22.65 4.45 -20.15 5.25 -17.65 6.0 -17.95 4.1 -18.3 1.25 -17.55 0.35 -16.8 -0.55 -14.05 -0.55 -9.85 -0.55 -5.5 1.65 -3.1 2.85 2.25 4.75 7.6 6.65 6.2 3.25 4.75 -0.2 6.2 -1.05 L10.55 -0.9 Q13.5 0.15 18.55 2.95 23.55 5.7 24.95 5.7 27.2 5.7 27.2 3.25 27.2 -0.35 27.3 0.8 27.45 -2.4 33.6 -0.55 37.7 0.9 40.8 3.45 43.85 5.95 47.05 5.75 50.2 5.55 50.05 2.25 49.9 -1.05 50.35 -1.25 52.2 -2.4 56.4 0.85 L59.8 3.45 60.75 4.0 Q68.1 6.35 63.3 -2.95 58.5 -12.3 67.1 -6.25 L77.4 1.7 Q84.65 7.3 81.1 -4.4 77.55 -16.15 82.8 -13.5 88.05 -10.85 92.95 -1.15 95.05 3.1 96.2 9.9 L96.2 12.9 95.9 10.95 96.2 20.75 -80.85 21.75 -83.65 6.8" fill="url(#gradient0)" fill-rule="evenodd" stroke="none"/>
    <path d="M47.05 5.75 Q43.85 5.95 40.8 3.45 37.7 0.9 33.6 -0.55 27.45 -2.4 27.3 0.8 27.2 -0.35 27.2 3.25 27.2 5.7 24.95 5.7 23.55 5.7 18.55 2.95 13.5 0.15 10.55 -0.9 L6.2 -1.05 Q4.75 -0.2 6.2 3.25 7.6 6.65 2.25 4.75 -3.1 2.85 -5.5 1.65 -9.85 -0.55 -14.05 -0.55 -16.8 -0.55 -17.55 0.35 -18.3 1.25 -17.95 4.1 -17.65 6.0 -20.15 5.25 -22.65 4.45 -28.85 1.55 -35.0 -1.4 -37.7 -1.15 -40.4 -0.85 -38.85 1.65 -38.15 4.05 -38.4 4.8 -39.2 6.85 -42.05 5.95 -44.9 5.05 -49.3 2.6 -53.7 0.1 -56.2 -0.55 -61.0 -1.5 -61.65 1.85 L-62.5 5.7 Q-63.05 8.5 -67.3 4.8 -70.15 2.75 -72.7 1.25 -75.3 -0.25 -77.55 0.1 -79.85 0.4 -78.65 3.7 -77.5 7.0 -79.5 6.6 L-83.65 6.8 M96.2 9.9 Q95.05 3.1 92.95 -1.15 88.05 -10.85 82.8 -13.5 77.55 -16.15 81.1 -4.4 84.65 7.3 77.4 1.7 L67.1 -6.25 Q58.5 -12.3 63.3 -2.95 68.1 6.35 60.75 4.0 L59.8 3.45" fill="none" stroke="#000000" stroke-linecap="round" stroke-linejoin="round" stroke-width="0.7000000000000001"/>
    <path d="M59.8 3.45 L56.4 0.85 Q52.2 -2.4 50.35 -1.25 49.9 -1.05 50.05 2.25 50.2 5.55 47.05 5.75" fill="none" stroke="#000000" stroke-linecap="round" stroke-linejoin="round" stroke-width="0.7000000000000001"/>
  </g>
  <defs>
    <linearGradient gradientTransform="matrix(0.0, 0.0147, -0.1194, 0.0, -0.1, 6.35)" gradientUnits="userSpaceOnUse" id="gradient0" spreadMethod="pad" x1="-819.2" x2="819.2">
      <stop offset="0.6666666666666666" stop-color="#97d6f0" stop-opacity="0.8"/>
      <stop offset="0.8549019607843137" stop-color="#97d6f0" stop-opacity="0.0"/>
    </linearGradient>
  </defs>
</svg>
