<?xml version="1.0" encoding="UTF-8" standalone="no"?>
<svg xmlns:ffdec="https://www.free-decompiler.com/flash" xmlns:xlink="http://www.w3.org/1999/xlink" ffdec:objectType="shape" height="84.35px" width="1083.2px" xmlns="http://www.w3.org/2000/svg">
  <g transform="matrix(1.0, 0.0, 0.0, 1.0, 434.55, 7.2)">
    <path d="M-434.2 -1.15 L-432.6 -1.15 -432.05 -1.2 Q-426.35 -1.9 -428.0 -5.1 -428.95 -6.85 -425.5 -6.85 L-416.75 -6.0 -403.8 -3.45 Q-396.15 -1.85 -388.6 -1.35 L-378.4 -1.05 -378.3 -1.05 -378.15 -1.05 -377.8 -1.05 Q-372.1 -1.8 -373.75 -5.0 -374.95 -6.6 -371.3 -6.7 L-362.55 -5.85 -349.6 -3.35 Q-341.9 -1.75 -334.4 -1.25 L-324.2 -0.9 -324.05 -0.9 -323.95 -0.9 -323.6 -0.95 Q-317.9 -1.65 -319.55 -4.85 -320.5 -6.6 -317.1 -6.6 L-308.3 -5.75 -295.4 -3.25 Q-287.7 -1.65 -280.15 -1.15 L-269.95 -0.8 -269.85 -0.8 -269.75 -0.8 -269.35 -0.8 Q-263.65 -1.55 -265.35 -4.75 -266.3 -6.45 -262.9 -6.45 L-254.1 -5.6 -241.15 -3.1 Q-233.45 -1.5 -225.95 -1.05 L-215.5 -0.65 -214.9 -0.65 Q-209.2 -1.4 -210.85 -4.6 -211.85 -6.3 -208.4 -6.3 L-199.6 -5.45 -186.7 -2.95 Q-179.0 -1.35 -171.5 -0.85 L-161.3 -0.5 -161.2 -0.5 -161.05 -0.5 -160.65 -0.55 Q-155.0 -1.25 -156.65 -4.45 -157.65 -6.2 -154.2 -6.2 L-145.4 -5.35 -132.45 -2.85 Q-124.8 -1.25 -117.25 -0.75 L-107.1 -0.4 -107.0 -0.4 -106.85 -0.4 -106.5 -0.45 Q-100.8 -1.15 -102.45 -4.35 -103.45 -6.1 -100.0 -6.1 L-91.2 -5.25 -78.3 -2.75 Q-70.6 -1.15 -63.05 -0.65 L-52.85 -0.3 -52.75 -0.3 -52.65 -0.3 -52.25 -0.3 Q-46.55 -1.0 -48.2 -4.2 -49.2 -5.95 -45.75 -6.0 L-37.0 -5.1 -24.05 -2.6 Q-16.4 -1.0 -8.85 -0.5 L1.6 -0.2 1.6 -0.45 2.2 -0.5 Q7.9 -1.2 6.25 -4.4 5.25 -6.15 8.7 -6.15 L17.5 -5.25 30.4 -2.8 Q38.1 -1.2 45.65 -0.7 L55.85 -0.3 55.95 -0.35 56.1 -0.3 56.45 -0.35 Q62.15 -1.1 60.45 -4.3 59.5 -6.0 62.9 -6.0 L71.7 -5.15 84.6 -2.65 Q92.3 -1.05 99.85 -0.55 L110.05 -0.2 110.15 -0.2 110.3 -0.2 110.65 -0.25 Q116.35 -0.95 114.7 -4.15 113.7 -5.9 117.1 -5.9 L125.9 -5.05 138.85 -2.55 Q146.55 -0.95 154.05 -0.45 L164.25 -0.1 164.4 -0.1 164.45 -0.1 164.9 -0.15 Q170.55 -0.85 168.9 -4.05 167.9 -5.8 171.35 -5.8 L172.2 -5.8 180.15 -4.95 193.05 -2.4 Q200.75 -0.8 208.25 -0.3 L218.7 0.0 219.3 0.05 Q225.0 -0.7 223.35 -3.9 222.35 -5.6 225.8 -5.6 L234.6 -4.75 247.55 -2.25 Q255.2 -0.65 262.75 -0.2 L272.95 0.15 273.05 0.15 273.15 0.15 273.55 0.15 Q279.25 -0.55 277.55 -3.75 276.6 -5.5 280.0 -5.5 L288.8 -4.65 301.75 -2.15 Q309.4 -0.55 316.95 -0.05 L327.1 0.3 327.25 0.3 327.4 0.3 327.75 0.25 Q333.45 -0.45 331.75 -3.65 330.8 -5.4 334.2 -5.4 L343.0 -4.55 355.95 -2.05 Q363.65 -0.45 371.15 0.05 L381.35 0.4 381.5 0.4 381.6 0.4 381.95 0.4 Q387.65 -0.35 386.0 -3.55 385.05 -5.25 388.45 -5.25 L397.25 -4.4 410.15 -1.9 411.5 -1.65 413.35 -1.3 422.3 -0.3 432.75 0.0 433.35 0.05 Q439.05 -0.7 437.4 -3.9 436.4 -5.6 439.85 -5.6 L448.65 -4.75 461.6 -2.25 Q469.25 -0.65 476.8 -0.2 L487.0 0.15 487.1 0.15 487.2 0.15 487.6 0.15 Q493.3 -0.55 491.6 -3.75 490.65 -5.5 494.05 -5.5 L502.85 -4.65 515.8 -2.15 Q523.45 -0.55 531.0 -0.05 L541.15 0.3 541.3 0.3 541.45 0.3 541.8 0.25 Q547.5 -0.45 545.8 -3.65 544.85 -5.4 548.25 -5.4 L557.05 -4.55 570.0 -2.05 Q577.7 -0.45 585.2 0.05 L595.4 0.4 595.55 0.4 595.65 0.4 596.0 0.4 Q601.7 -0.35 600.05 -3.55 599.1 -5.25 602.5 -5.25 L611.3 -4.4 624.2 -1.9 Q631.9 -0.3 639.4 0.2 L648.3 0.55 648.3 71.2 -434.2 77.15 -434.2 -1.15" fill="#69bfea" fill-rule="evenodd" stroke="none"/>
    <path d="M-434.2 -1.15 L-432.6 -1.15 -432.05 -1.2 Q-426.35 -1.9 -428.0 -5.1 -428.95 -6.85 -425.5 -6.85 L-416.75 -6.0 -403.8 -3.45 Q-396.15 -1.85 -388.6 -1.35 L-378.4 -1.05 -378.3 -1.05 -378.15 -1.05 -377.8 -1.05 Q-372.1 -1.8 -373.75 -5.0 -374.95 -6.6 -371.3 -6.7 L-362.55 -5.85 -349.6 -3.35 Q-341.9 -1.75 -334.4 -1.25 L-324.2 -0.9 -324.05 -0.9 -323.95 -0.9 -323.6 -0.95 Q-317.9 -1.65 -319.55 -4.85 -320.5 -6.6 -317.1 -6.6 L-308.3 -5.75 -295.4 -3.25 Q-287.7 -1.65 -280.15 -1.15 L-269.95 -0.8 -269.85 -0.8 -269.75 -0.8 -269.35 -0.8 Q-263.65 -1.55 -265.35 -4.75 -266.3 -6.45 -262.9 -6.45 L-254.1 -5.6 -241.15 -3.1 Q-233.45 -1.5 -225.95 -1.05 L-215.5 -0.65 -214.9 -0.65 Q-209.2 -1.4 -210.85 -4.6 -211.85 -6.3 -208.4 -6.3 L-199.6 -5.45 -186.7 -2.95 Q-179.0 -1.35 -171.5 -0.85 L-161.3 -0.5 -161.2 -0.5 -161.05 -0.5 -160.65 -0.55 Q-155.0 -1.25 -156.65 -4.45 -157.65 -6.2 -154.2 -6.2 L-145.4 -5.35 -132.45 -2.85 Q-124.8 -1.25 -117.25 -0.75 L-107.1 -0.4 -107.0 -0.4 -106.85 -0.4 -106.5 -0.45 Q-100.8 -1.15 -102.45 -4.35 -103.45 -6.1 -100.0 -6.1 L-91.2 -5.25 -78.3 -2.75 Q-70.6 -1.15 -63.05 -0.65 L-52.85 -0.3 -52.75 -0.3 -52.65 -0.3 -52.25 -0.3 Q-46.55 -1.0 -48.2 -4.2 -49.2 -5.95 -45.75 -6.0 L-37.0 -5.1 -24.05 -2.6 Q-16.4 -1.0 -8.85 -0.5 L1.6 -0.2 1.6 -0.45 2.2 -0.5 Q7.9 -1.2 6.25 -4.4 5.25 -6.15 8.7 -6.15 L17.5 -5.25 30.4 -2.8 Q38.1 -1.2 45.65 -0.7 L55.85 -0.3 55.95 -0.35 56.1 -0.3 56.45 -0.35 Q62.15 -1.1 60.45 -4.3 59.5 -6.0 62.9 -6.0 L71.7 -5.15 84.6 -2.65 Q92.3 -1.05 99.85 -0.55 L110.05 -0.2 110.15 -0.2 110.3 -0.2 110.65 -0.25 Q116.35 -0.95 114.7 -4.15 113.7 -5.9 117.1 -5.9 L125.9 -5.05 138.85 -2.55 Q146.55 -0.95 154.05 -0.45 L164.25 -0.1 164.4 -0.1 164.45 -0.1 164.9 -0.15 Q170.55 -0.85 168.9 -4.05 167.9 -5.8 171.35 -5.8 L172.2 -5.8 180.15 -4.95 193.05 -2.4 Q200.75 -0.8 208.25 -0.3 L218.7 0.0 219.3 0.05 Q225.0 -0.7 223.35 -3.9 222.35 -5.6 225.8 -5.6 L234.6 -4.75 247.55 -2.25 Q255.2 -0.65 262.75 -0.2 L272.95 0.15 273.05 0.15 273.15 0.15 273.55 0.15 Q279.25 -0.55 277.55 -3.75 276.6 -5.5 280.0 -5.5 L288.8 -4.65 301.75 -2.15 Q309.4 -0.55 316.95 -0.05 L327.1 0.3 327.25 0.3 327.4 0.3 327.75 0.25 Q333.45 -0.45 331.75 -3.65 330.8 -5.4 334.2 -5.4 L343.0 -4.55 355.95 -2.05 Q363.65 -0.45 371.15 0.05 L381.35 0.4 381.5 0.4 381.6 0.4 381.95 0.4 Q387.65 -0.35 386.0 -3.55 385.05 -5.25 388.45 -5.25 L397.25 -4.4 410.15 -1.9 411.5 -1.65 413.35 -1.3 422.3 -0.3 432.75 0.0 433.35 0.05 Q439.05 -0.7 437.4 -3.9 436.4 -5.6 439.85 -5.6 L448.65 -4.75 461.6 -2.25 Q469.25 -0.65 476.8 -0.2 L487.0 0.15 487.1 0.15 487.2 0.15 487.6 0.15 Q493.3 -0.55 491.6 -3.75 490.65 -5.5 494.05 -5.5 L502.85 -4.65 515.8 -2.15 Q523.45 -0.55 531.0 -0.05 L541.15 0.3 541.3 0.3 541.45 0.3 541.8 0.25 Q547.5 -0.45 545.8 -3.65 544.85 -5.4 548.25 -5.4 L557.05 -4.55 570.0 -2.05 Q577.7 -0.45 585.2 0.05 L595.4 0.4 595.55 0.4 595.65 0.4 596.0 0.4 Q601.7 -0.35 600.05 -3.55 599.1 -5.25 602.5 -5.25 L611.3 -4.4 624.2 -1.9 Q631.9 -0.3 639.4 0.2 L648.3 0.55" fill="none" stroke="#000000" stroke-linecap="round" stroke-linejoin="round" stroke-width="0.7000000000000001"/>
  </g>
</svg>
