<?xml version="1.0" encoding="UTF-8" standalone="no"?>
<svg xmlns:ffdec="https://www.free-decompiler.com/flash" xmlns:xlink="http://www.w3.org/1999/xlink" ffdec:objectType="shape" height="520.95px" width="356.3px" xmlns="http://www.w3.org/2000/svg">
  <g transform="matrix(1.0, 0.0, 0.0, 1.0, 178.15, 260.45)">
    <path d="M24.5 -149.75 Q27.6 -146.35 29.15 -143.1 31.0 -139.35 29.65 -138.1 28.35 -136.8 24.7 -138.8 21.0 -140.75 17.1 -144.8 13.2 -148.85 11.4 -152.6 9.55 -156.35 10.9 -157.6 12.05 -158.75 15.15 -157.25 L15.85 -156.9 Q19.55 -154.95 23.45 -150.9 L24.5 -149.75" fill="#000000" fill-rule="evenodd" stroke="none"/>
    <path d="M15.15 -157.25 Q12.05 -158.75 10.9 -157.6 9.55 -156.35 11.4 -152.6 13.2 -148.85 17.1 -144.8 21.0 -140.75 24.7 -138.8 28.35 -136.8 29.65 -138.1 31.0 -139.35 29.15 -143.1 27.6 -146.35 24.5 -149.75 L36.95 -138.9 Q52.0 -122.45 61.6 -109.65 71.2 -96.9 81.95 -81.25 92.7 -65.6 98.25 -59.75 L175.65 21.95 175.65 49.45 161.55 37.35 Q146.65 19.8 129.05 -3.85 111.45 -27.6 87.75 -53.25 64.0 -78.95 36.55 -110.35 9.0 -141.8 -36.1 -176.95 -81.25 -212.2 -95.9 -205.2 -110.6 -198.25 -130.7 -200.7 -150.75 -203.15 -154.3 -197.5 -158.15 -189.6 -161.1 -184.55 -165.75 -176.55 -172.4 -169.4 -168.9 -209.2 -158.0 -234.25 -146.25 -261.35 -136.85 -257.45 -127.45 -253.55 -120.5 -247.1 -113.6 -240.7 -95.2 -230.95 -76.8 -221.2 -53.4 -204.65 -36.5 -191.55 -11.15 -175.65 2.35 -167.2 15.15 -157.25" fill="#86878a" fill-rule="evenodd" stroke="none"/>
    <path d="M34.85 -27.95 L12.6 -10.5 13.15 -44.5 9.4 -45.55 -14.9 -25.6 -18.65 -57.9 -21.6 -59.25 -40.75 -31.55 -41.35 -31.3 -53.65 -64.95 -69.8 -32.6 -85.9 -63.7 -68.85 -65.05 Q-61.25 -65.4 -53.65 -64.95 -37.6 -63.95 -21.6 -59.25 L-21.45 -59.2 -18.55 -58.3 Q-4.35 -53.85 9.8 -46.35 L13.15 -44.5 15.8 -43.05 Q25.8 -37.3 34.85 -27.95 M-86.05 -63.7 L-97.3 -26.15 -112.95 -57.9 -113.2 -58.75 Q-100.9 -62.05 -86.05 -63.7 M-118.3 -57.3 L-121.0 -21.3 -138.75 -48.25 -139.05 -48.75 -139.9 -48.3 -143.05 -10.5 -158.8 -30.4 -158.9 -30.5 Q-151.2 -41.75 -139.9 -48.3 L-137.2 -49.75 Q-128.7 -54.15 -118.3 -57.3 M41.25 -20.8 Q47.9 -12.65 54.0 -2.4 L36.3 7.25 41.25 -20.8 M-172.25 -1.1 L-171.35 -1.1 -168.95 -9.65 -155.5 22.35 -170.3 13.95 -170.65 13.75 Q-172.0 6.35 -172.25 -1.1 M-168.65 -10.55 Q-164.95 -21.6 -159.2 -30.05 L-156.05 4.55 -168.3 -10.15 -168.65 -10.55 M70.1 84.55 L60.7 91.55 60.55 78.9 70.1 84.55 M55.1 95.3 L46.4 100.65 46.0 88.65 55.1 95.3 M36.75 105.8 Q31.65 108.3 26.55 110.4 L21.7 112.4 Q8.8 117.4 -4.75 121.5 L1.85 96.7 21.2 111.25 25.0 94.0 36.75 105.8 M-6.65 122.05 Q-20.85 126.25 -35.75 129.4 L-36.35 129.5 -29.45 106.4 -6.65 122.05 M-41.05 130.45 Q-55.85 133.4 -70.2 135.45 L-59.6 109.6 -41.05 130.45 M-72.0 135.7 L-98.6 138.65 -87.1 116.1 -72.0 135.7 M-102.45 138.95 Q-116.05 139.85 -128.0 139.5 L-114.05 117.7 -102.45 138.95 M-130.65 139.4 Q-143.6 138.8 -154.6 136.6 L-155.35 136.45 -156.15 136.35 -156.0 135.3 -154.4 135.5 -141.5 112.35 -130.65 139.4 M-170.55 14.35 L-147.4 46.6 -161.1 43.45 Q-164.6 35.9 -167.0 28.35 -169.25 21.35 -170.55 14.35" fill="#ffffff" fill-rule="evenodd" stroke="none"/>
    <path d="M-86.0 -63.7 L-86.05 -63.7 Q-100.9 -62.05 -113.2 -58.75 L-118.3 -57.3 Q-128.7 -54.15 -137.2 -49.75 L-139.9 -48.3 Q-151.2 -41.75 -158.9 -30.5 L-159.3 -31.0 -159.2 -30.05 Q-164.95 -21.6 -168.65 -10.55 L-169.25 -11.3 -168.95 -9.65 -171.35 -1.1 -172.25 -1.1 -172.35 -7.25 -172.25 -10.15 -173.15 -26.7 Q-170.15 -55.3 -140.15 -73.65 -110.2 -92.0 -78.15 -94.35 -47.25 -96.3 -18.45 -84.6 10.45 -72.9 34.55 -52.95 58.55 -33.0 66.3 -9.5 72.9 10.6 76.55 24.95 L77.65 29.55 77.9 30.65 78.35 32.95 Q80.9 45.7 82.35 67.4 77.05 48.85 71.0 33.2 L70.9 32.95 70.6 32.25 67.65 24.95 Q61.2 9.8 54.0 -2.4 47.9 -12.65 41.25 -20.8 L34.85 -27.95 Q25.8 -37.3 15.8 -43.05 L13.15 -44.5 9.8 -46.35 Q-4.35 -53.85 -18.55 -58.3 L-21.45 -59.2 -21.6 -59.25 Q-37.6 -63.95 -53.65 -64.95 -61.25 -65.4 -68.85 -65.05 L-85.9 -63.7 -86.0 -63.7" fill="#c76b6b" fill-rule="evenodd" stroke="none"/>
    <path d="M-112.95 -57.9 L-118.3 -57.3 -113.2 -58.75 -112.95 -57.9 M-154.6 136.6 L-156.15 136.45 -156.15 136.35 -155.35 136.45 -154.6 136.6" fill="#efefef" fill-rule="evenodd" stroke="none"/>
    <path d="M-172.4 -169.4 Q-165.75 -176.55 -161.1 -184.55 -158.15 -189.6 -154.3 -197.5 -150.75 -203.15 -130.7 -200.7 -110.6 -198.25 -95.9 -205.2 -81.25 -212.2 -36.1 -176.95 9.0 -141.8 36.55 -110.35 64.0 -78.95 87.75 -53.25 111.45 -27.6 129.05 -3.85 146.65 19.8 161.55 37.35 L175.65 49.45 175.65 258.0 -102.7 258.0 Q-122.15 239.2 -133.55 222.95 -146.1 205.1 -151.7 187.05 -156.95 170.3 -156.95 150.85 -156.95 143.15 -156.15 136.45 L-154.6 136.6 Q-143.6 138.8 -130.65 139.4 L-128.0 139.5 Q-116.05 139.85 -102.45 138.95 L-99.65 138.7 -98.6 138.65 -72.0 135.7 -70.9 137.1 -70.2 135.45 Q-55.85 133.4 -41.05 130.45 L-36.35 129.5 -35.75 129.4 Q-20.85 126.25 -6.65 122.05 L-5.15 123.1 -4.75 121.5 Q8.8 117.4 21.7 112.4 L26.55 110.4 Q31.65 108.3 36.75 105.8 41.6 103.4 46.4 100.65 L55.1 95.3 60.7 91.55 70.1 84.55 Q76.5 79.5 82.75 73.8 L82.9 69.3 82.35 67.4 Q80.9 45.7 78.35 32.95 L77.9 30.65 77.65 29.55 76.55 24.95 Q72.9 10.6 66.3 -9.5 58.55 -33.0 34.55 -52.95 10.45 -72.9 -18.45 -84.6 -47.25 -96.3 -78.15 -94.35 -110.2 -92.0 -140.15 -73.65 -170.15 -55.3 -173.15 -26.7 -175.1 -63.4 -175.55 -87.85 -176.1 -118.5 -172.95 -162.8 L-172.4 -169.4 M37.35 106.4 L36.75 105.8 37.35 106.4" fill="url(#gradient0)" fill-rule="evenodd" stroke="none"/>
    <path d="M-85.9 -63.7 L-69.8 -32.6 -53.65 -64.95 -41.35 -31.3 -40.75 -31.55 -21.6 -59.25 -18.65 -57.9 -14.9 -25.6 9.4 -45.55 13.15 -44.5 12.6 -10.5 34.85 -27.95 41.25 -20.8 36.3 7.25 54.0 -2.4 Q61.2 9.8 67.65 24.95 L70.6 32.25 70.9 32.95 71.0 33.2 Q77.05 48.85 82.35 67.4 L82.75 73.8 Q76.5 79.5 70.1 84.55 L60.55 78.9 60.7 91.55 55.1 95.3 46.0 88.65 46.4 100.65 Q41.6 103.4 36.75 105.8 L25.0 94.0 21.2 111.25 1.85 96.7 -4.75 121.5 -6.65 122.05 -29.45 106.4 -36.35 129.5 -41.05 130.45 -59.6 109.6 -70.2 135.45 -72.0 135.7 -87.1 116.1 -98.6 138.65 -99.65 138.7 -102.45 138.95 -114.05 117.7 -128.0 139.5 -130.65 139.4 -141.5 112.35 -154.4 135.5 -156.0 135.3 -155.0 129.15 Q-153.95 123.95 -150.65 113.6 -147.55 103.8 -146.25 96.6 -144.25 85.4 -144.15 70.9 L-145.75 69.25 Q-155.05 56.4 -161.1 43.45 L-147.4 46.6 -170.55 14.35 -170.3 13.95 -155.5 22.35 -168.95 -9.65 -168.3 -10.15 -156.05 4.55 -159.2 -30.05 -158.8 -30.4 -143.05 -10.5 -139.9 -48.3 -139.05 -48.75 -138.75 -48.25 -121.0 -21.3 -118.3 -57.3 -112.95 -57.9 -97.3 -26.15 -86.05 -63.7 -86.0 -63.7 -85.9 -63.7 M-143.1 -10.0 L-143.05 -10.5 -143.1 -10.0" fill="url(#gradient1)" fill-rule="evenodd" stroke="none"/>
    <path d="M15.15 -157.25 Q2.35 -167.2 -11.15 -175.65 -36.5 -191.55 -53.4 -204.65 -76.8 -221.2 -95.2 -230.95 -113.6 -240.7 -120.5 -247.1 -127.45 -253.55 -136.85 -257.45 -146.25 -261.35 -158.0 -234.25 -168.9 -209.2 -172.4 -169.4 L-172.95 -162.8 Q-176.1 -118.5 -175.55 -87.85 -175.1 -63.4 -173.15 -26.7 L-172.25 -10.15 -172.35 -7.25 -172.25 -1.1 -171.35 -1.1 -168.95 -9.65 -169.25 -11.3 -168.65 -10.55 Q-164.95 -21.6 -159.2 -30.05 L-159.3 -31.0 -158.9 -30.5 Q-151.2 -41.75 -139.9 -48.3 L-137.2 -49.75 Q-128.7 -54.15 -118.3 -57.3 L-113.2 -58.75 Q-100.9 -62.05 -86.05 -63.7 M175.65 21.95 L98.25 -59.75 Q92.7 -65.6 81.95 -81.25 71.2 -96.9 61.6 -109.65 52.0 -122.45 36.95 -138.9 L24.5 -149.75 M-85.9 -63.7 L-68.85 -65.05 Q-61.25 -65.4 -53.65 -64.95 -37.6 -63.95 -21.6 -59.25 L-21.45 -59.2 -18.55 -58.3 Q-4.35 -53.85 9.8 -46.35 L13.15 -44.5 15.8 -43.05 Q25.8 -37.3 34.85 -27.95 M41.25 -20.8 Q47.9 -12.65 54.0 -2.4 M82.35 67.4 L82.9 69.3 M70.1 84.55 L60.7 91.55 M55.1 95.3 L46.4 100.65 M36.75 105.8 L37.35 106.4 M36.75 105.8 Q31.65 108.3 26.55 110.4 L21.7 112.4 Q8.8 117.4 -4.75 121.5 L-5.15 123.1 -6.65 122.05 Q-20.85 126.25 -35.75 129.4 L-36.35 129.5 M-41.05 130.45 Q-55.85 133.4 -70.2 135.45 M-72.0 135.7 L-98.6 138.65 M-102.45 138.95 Q-116.05 139.85 -128.0 139.5 M-130.65 139.4 Q-143.6 138.8 -154.6 136.6 L-155.35 136.45 M-156.15 136.45 Q-156.95 143.15 -156.95 150.85 -156.95 170.3 -151.7 187.05 -146.1 205.1 -133.55 222.95 -122.15 239.2 -102.7 258.0 M-168.3 -10.15 L-168.65 -10.55 -168.95 -9.65 M-159.2 -30.05 L-158.9 -30.5 -158.8 -30.4 M-86.0 -63.7 L-85.9 -63.7 M-156.15 136.35 L-156.15 136.45 M-156.0 135.3 L-156.15 136.35 M-170.55 14.35 Q-169.25 21.35 -167.0 28.35 -164.6 35.9 -161.1 43.45 M-170.3 13.95 L-170.65 13.75 -170.55 14.35 M-172.25 -1.1 Q-172.0 6.35 -170.65 13.75" fill="none" stroke="#000000" stroke-linecap="round" stroke-linejoin="round" stroke-opacity="0.3019608" stroke-width="5.0"/>
    <path d="M34.85 -27.95 L12.6 -10.5 13.15 -44.5 9.4 -45.55 -14.9 -25.6 -18.65 -57.9 -21.6 -59.25 -40.75 -31.55 -41.35 -31.3 -53.65 -64.95 -69.8 -32.6 -85.9 -63.7 -86.0 -63.7 -86.05 -63.7 -97.3 -26.15 -112.95 -57.9 -118.3 -57.3 -121.0 -21.3 -138.75 -48.25 -139.05 -48.75 -139.9 -48.3 -143.05 -10.5 -143.1 -10.0 M34.85 -27.95 L41.25 -20.8 36.3 7.25 54.0 -2.4 Q61.2 9.8 67.65 24.95 L70.6 32.25 70.9 32.95 71.0 33.2 Q77.05 48.85 82.35 67.4 80.9 45.7 78.35 32.95 L77.9 30.65 77.65 29.55 76.55 24.95 Q72.9 10.6 66.3 -9.5 58.55 -33.0 34.55 -52.95 10.45 -72.9 -18.45 -84.6 -47.25 -96.3 -78.15 -94.35 -110.2 -92.0 -140.15 -73.65 -170.15 -55.3 -173.15 -26.7 M82.75 73.8 L82.35 67.4 M82.75 73.8 Q76.5 79.5 70.1 84.55 L60.55 78.9 60.7 91.55 55.1 95.3 46.0 88.65 46.4 100.65 Q41.6 103.4 36.75 105.8 L25.0 94.0 21.2 111.25 1.85 96.7 -4.75 121.5 -6.65 122.05 -29.45 106.4 -36.35 129.5 -41.05 130.45 -59.6 109.6 -70.2 135.45 -72.0 135.7 -87.1 116.1 -98.6 138.65 -99.65 138.7 -102.45 138.95 -114.05 117.7 -128.0 139.5 -130.65 139.4 -141.5 112.35 -154.4 135.5 -156.0 135.3 -155.0 129.15 Q-153.95 123.95 -150.65 113.6 -147.55 103.8 -146.25 96.6 -144.25 85.4 -144.15 70.9 L-145.75 69.25 Q-155.05 56.4 -161.1 43.45 L-147.4 46.6 -170.55 14.35 -170.3 13.95 -155.5 22.35 -168.95 -9.65 -168.3 -10.15 -156.05 4.55 -159.2 -30.05 -158.8 -30.4 -143.05 -10.5" fill="none" stroke="#000000" stroke-linecap="round" stroke-linejoin="round" stroke-opacity="0.3019608" stroke-width="5.0"/>
    <path d="M-172.4 -169.4 Q-165.75 -176.55 -161.1 -184.55 -158.15 -189.6 -154.3 -197.5 -150.75 -203.15 -130.7 -200.7 -110.6 -198.25 -95.9 -205.2 -81.25 -212.2 -36.1 -176.95 9.0 -141.8 36.55 -110.35 64.0 -78.95 87.75 -53.25 111.45 -27.6 129.05 -3.85 146.65 19.8 161.55 37.35 L175.65 49.45" fill="none" stroke="#6c6f71" stroke-linecap="round" stroke-linejoin="round" stroke-width="5.0"/>
    <path d="M15.15 -157.25 L15.85 -156.9 Q19.55 -154.95 23.45 -150.9 L24.5 -149.75 Q27.6 -146.35 29.15 -143.1 31.0 -139.35 29.65 -138.1 28.35 -136.8 24.7 -138.8 21.0 -140.75 17.1 -144.8 13.2 -148.85 11.4 -152.6 9.55 -156.35 10.9 -157.6 12.05 -158.75 15.15 -157.25" fill="#000000" fill-rule="evenodd" stroke="none"/>
    <path d="M-18.65 -57.9 L-18.7 -57.95 -21.6 -59.25 -21.45 -59.2 -18.55 -58.3 -18.5 -58.3 -18.65 -57.9 M-138.75 -48.25 L-139.05 -48.75 -139.9 -48.3 -139.05 -48.8 -138.75 -48.25 M-35.75 129.4 L-36.35 129.5 -36.3 129.25 -35.75 129.4" fill="#ffffff" fill-rule="evenodd" stroke="none"/>
    <path d="M-156.15 136.45 L-156.15 136.35 -155.35 136.45 -154.6 136.6 -156.15 136.45 M-112.95 -57.9 L-118.3 -57.3 -113.2 -58.75 -112.95 -57.9" fill="#efefef" fill-rule="evenodd" stroke="none"/>
    <path d="M-118.3 -57.3 L-120.55 -27.45 -121.0 -21.3 -138.75 -48.25 -139.05 -48.8 Q-138.1 -51.0 -135.95 -52.5 -128.2 -57.8 -118.3 -57.3" fill="url(#gradient2)" fill-rule="evenodd" stroke="none"/>
    <path d="M-139.9 -48.3 L-143.05 -10.5 -158.8 -30.4 -158.9 -30.5 Q-155.75 -44.7 -139.9 -48.3" fill="url(#gradient3)" fill-rule="evenodd" stroke="none"/>
    <path d="M-168.3 -10.15 L-168.65 -10.55 Q-168.85 -24.15 -159.2 -30.05 L-156.05 4.55 -168.3 -10.15" fill="url(#gradient4)" fill-rule="evenodd" stroke="none"/>
    <path d="M-170.3 13.95 L-170.65 13.75 Q-172.0 6.35 -172.25 -1.1 L-172.8 3.95 Q-172.7 1.2 -172.25 -1.2 -171.35 -6.15 -168.95 -9.65 L-155.5 22.35 -170.3 13.95" fill="url(#gradient5)" fill-rule="evenodd" stroke="none"/>
    <path d="M-86.05 -63.7 L-97.3 -26.15 -102.05 -35.75 -102.05 -35.8 -112.95 -57.9 -113.2 -58.75 Q-109.75 -62.7 -105.1 -64.85 -95.4 -69.45 -86.05 -63.7" fill="url(#gradient6)" fill-rule="evenodd" stroke="none"/>
    <path d="M-53.65 -64.95 L-69.8 -32.6 -73.8 -40.4 -73.85 -40.4 -85.9 -63.7 Q-71.65 -74.7 -55.7 -66.05 L-53.65 -64.95" fill="url(#gradient7)" fill-rule="evenodd" stroke="none"/>
    <path d="M-21.6 -59.25 L-33.2 -42.45 -33.7 -42.7 -33.25 -42.4 -40.75 -31.55 -41.35 -31.3 -53.65 -64.95 Q-50.35 -66.5 -46.95 -67.2 -32.05 -70.75 -21.6 -59.25" fill="url(#gradient8)" fill-rule="evenodd" stroke="none"/>
    <path d="M-18.5 -58.3 Q-1.55 -59.85 10.1 -47.55 L13.15 -44.5 9.4 -45.55 -6.3 -32.7 -6.4 -32.6 -14.9 -25.6 -18.65 -57.9 -18.5 -58.3" fill="url(#gradient9)" fill-rule="evenodd" stroke="none"/>
    <path d="M41.25 -20.8 Q53.05 -14.35 54.0 -2.4 L36.3 7.25 41.25 -20.8" fill="url(#gradient10)" fill-rule="evenodd" stroke="none"/>
    <path d="M13.15 -44.5 Q29.1 -43.6 34.4 -29.45 L34.85 -27.95 12.6 -10.5 13.15 -44.5" fill="url(#gradient11)" fill-rule="evenodd" stroke="none"/>
    <path d="M-156.15 136.35 L-156.0 135.3 -154.4 135.5 -141.5 112.35 -130.65 139.4 Q-143.6 138.8 -154.6 136.6 L-155.35 136.45 -156.15 136.35" fill="url(#gradient12)" fill-rule="evenodd" stroke="none"/>
    <path d="M-102.45 138.95 Q-116.05 139.85 -128.0 139.5 L-114.05 117.7 -102.45 138.95" fill="url(#gradient13)" fill-rule="evenodd" stroke="none"/>
    <path d="M-72.0 135.7 L-98.6 138.65 -87.1 116.1 -72.0 135.7" fill="url(#gradient14)" fill-rule="evenodd" stroke="none"/>
    <path d="M-41.05 130.45 Q-55.85 133.4 -70.2 135.45 L-59.6 109.6 -41.05 130.45" fill="url(#gradient15)" fill-rule="evenodd" stroke="none"/>
    <path d="M-6.65 122.05 Q-20.85 126.25 -35.75 129.4 L-36.3 129.25 -29.45 106.4 -6.65 122.05" fill="url(#gradient16)" fill-rule="evenodd" stroke="none"/>
    <path d="M21.7 112.4 L21.35 112.55 Q8.65 117.5 -4.75 121.5 L1.85 96.7 21.2 112.2 21.7 112.4" fill="url(#gradient17)" fill-rule="evenodd" stroke="none"/>
    <path d="M-172.25 -1.2 L-172.35 -7.25 -172.25 -10.15 -173.15 -26.7 Q-170.15 -55.3 -140.15 -73.65 -110.2 -92.0 -78.15 -94.35 -47.25 -96.3 -18.45 -84.6 10.45 -72.9 34.55 -52.95 58.55 -33.0 66.3 -9.5 72.9 10.6 76.55 24.95 L77.65 29.55 77.9 30.65 78.35 32.95 Q80.9 45.7 82.35 67.4 77.05 48.85 71.0 33.2 L70.9 32.95 70.6 32.25 67.65 24.95 Q61.2 9.8 54.0 -2.4 53.05 -14.35 41.25 -20.8 L34.85 -27.95 34.4 -29.45 Q29.1 -43.6 13.15 -44.5 L10.1 -47.55 Q-1.55 -59.85 -18.5 -58.3 L-18.55 -58.3 -21.45 -59.2 -21.6 -59.25 Q-32.05 -70.75 -46.95 -67.2 -50.35 -66.5 -53.65 -64.95 L-55.7 -66.05 Q-71.65 -74.7 -85.9 -63.7 L-86.0 -63.7 -86.05 -63.7 Q-95.4 -69.45 -105.1 -64.85 -109.75 -62.7 -113.2 -58.75 L-118.3 -57.3 Q-128.2 -57.8 -135.95 -52.5 -138.1 -51.0 -139.05 -48.8 L-139.9 -48.3 Q-155.75 -44.7 -158.9 -30.5 L-159.3 -31.0 -159.2 -30.05 Q-168.85 -24.15 -168.65 -10.55 L-169.25 -11.3 -168.95 -9.65 Q-171.35 -6.15 -172.25 -1.2" fill="url(#gradient18)" fill-rule="evenodd" stroke="none"/>
    <path d="M15.15 -157.25 Q12.05 -158.75 10.9 -157.6 9.55 -156.35 11.4 -152.6 13.2 -148.85 17.1 -144.8 21.0 -140.75 24.7 -138.8 28.35 -136.8 29.65 -138.1 31.0 -139.35 29.15 -143.1 27.6 -146.35 24.5 -149.75 L36.95 -138.9 Q52.0 -122.45 61.6 -109.65 71.2 -96.9 81.95 -81.25 92.7 -65.6 98.25 -59.75 L175.65 21.95 175.65 49.45 161.55 37.35 Q146.65 19.8 129.05 -3.85 111.45 -27.6 87.75 -53.25 64.0 -78.95 36.55 -110.35 9.0 -141.8 -36.1 -176.95 -81.25 -212.2 -95.9 -205.2 -110.6 -198.25 -130.7 -200.7 -150.75 -203.15 -154.3 -197.5 -158.15 -189.6 -161.1 -184.55 -165.75 -176.55 -172.4 -169.4 -168.9 -209.2 -158.0 -234.25 -146.25 -261.35 -136.85 -257.45 -127.45 -253.55 -120.5 -247.1 -113.6 -240.7 -95.2 -230.95 -76.8 -221.2 -53.4 -204.65 -36.5 -191.55 -11.15 -175.65 2.35 -167.2 15.15 -157.25" fill="url(#gradient19)" fill-rule="evenodd" stroke="none"/>
    <path d="M175.65 49.45 L175.65 258.0 -102.7 258.0 Q-122.15 239.2 -133.55 222.95 -146.1 205.1 -151.7 187.05 -156.95 170.3 -156.95 150.85 -156.95 143.15 -156.15 136.45 L-154.6 136.6 Q-143.6 138.8 -130.65 139.4 L-128.0 139.5 Q-116.05 139.85 -102.45 138.95 L-99.65 138.7 -98.6 138.65 -72.0 135.7 -70.9 137.1 -70.2 135.45 Q-55.85 133.4 -41.05 130.45 L-36.35 129.5 -35.75 129.4 Q-20.85 126.25 -6.65 122.05 L-5.15 123.1 -4.75 121.5 Q8.65 117.5 21.35 112.55 L21.7 112.4 26.55 110.4 Q31.65 108.3 36.75 105.8 41.6 103.4 46.4 100.65 L55.1 95.3 60.7 91.55 70.1 84.55 Q76.5 79.5 82.75 73.8 L82.9 69.3 82.35 67.4 Q80.9 45.7 78.35 32.95 L77.9 30.65 77.65 29.55 76.55 24.95 Q72.9 10.6 66.3 -9.5 58.55 -33.0 34.55 -52.95 10.45 -72.9 -18.45 -84.6 -47.25 -96.3 -78.15 -94.35 -110.2 -92.0 -140.15 -73.65 -170.15 -55.3 -173.15 -26.7 -175.1 -63.4 -175.55 -87.85 -176.1 -118.5 -172.95 -162.8 L-172.4 -169.4 Q-165.75 -176.55 -161.1 -184.55 -158.15 -189.6 -154.3 -197.5 -150.75 -203.15 -130.7 -200.7 -110.6 -198.25 -95.9 -205.2 -81.25 -212.2 -36.1 -176.95 9.0 -141.8 36.55 -110.35 64.0 -78.95 87.75 -53.25 111.45 -27.6 129.05 -3.85 146.65 19.8 161.55 37.35 L175.65 49.45" fill="url(#gradient20)" fill-rule="evenodd" stroke="none"/>
    <path d="M-156.0 135.3 L-155.0 129.15 Q-153.95 123.95 -150.65 113.6 -147.55 103.8 -146.25 96.6 -144.25 85.4 -144.15 70.9 L-145.75 69.25 Q-155.05 56.4 -161.1 43.45 L-147.4 46.6 -170.55 14.35 -170.3 13.95 -155.5 22.35 -168.95 -9.65 -168.3 -10.15 -156.05 4.55 -159.2 -30.05 -158.8 -30.4 -143.05 -10.5 -139.9 -48.3 -139.05 -48.75 -138.75 -48.25 -121.0 -21.3 -120.55 -27.45 -118.3 -57.3 -112.95 -57.9 -102.05 -35.8 -102.05 -35.75 -97.3 -26.15 -86.05 -63.7 -86.0 -63.7 -85.9 -63.7 -73.85 -40.4 -73.8 -40.4 -69.8 -32.6 -53.65 -64.95 -41.35 -31.3 -40.75 -31.55 -33.25 -42.4 -33.2 -42.45 -21.6 -59.25 -18.7 -57.95 -18.65 -57.9 -14.9 -25.6 -6.4 -32.6 -6.3 -32.7 9.4 -45.55 13.15 -44.5 12.6 -10.5 34.85 -27.95 41.25 -20.8 36.3 7.25 54.0 -2.4 Q61.2 9.8 67.65 24.95 L70.6 32.25 70.9 32.95 71.0 33.2 Q77.05 48.85 82.35 67.4 L82.75 73.8 Q76.5 79.5 70.1 84.55 L60.55 78.9 60.7 91.55 55.1 95.3 46.0 88.65 46.4 100.65 Q41.6 103.4 36.75 105.8 L25.0 94.0 21.2 112.2 1.85 96.7 -4.75 121.5 -6.65 122.05 -29.45 106.4 -36.3 129.25 -36.35 129.5 -41.05 130.45 -59.6 109.6 -70.2 135.45 -72.0 135.7 -87.1 116.1 -98.6 138.65 -99.65 138.7 -102.45 138.95 -114.05 117.7 -128.0 139.5 -130.65 139.4 -141.5 112.35 -154.4 135.5 -156.0 135.3 M-143.1 -10.0 L-143.05 -10.5 -143.1 -10.0" fill="url(#gradient21)" fill-rule="evenodd" stroke="none"/>
    <path d="M-33.2 -42.45 L-33.25 -42.4 -33.7 -42.7 -33.2 -42.45" fill="url(#gradient22)" fill-rule="evenodd" stroke="none"/>
    <path d="M36.75 105.8 Q31.65 108.3 26.55 110.4 L21.7 112.4 21.2 112.2 25.0 94.0 36.75 105.8" fill="url(#gradient23)" fill-rule="evenodd" stroke="none"/>
    <path d="M70.1 84.55 L60.7 91.55 60.55 78.9 70.1 84.55" fill="url(#gradient24)" fill-rule="evenodd" stroke="none"/>
    <path d="M55.1 95.3 L46.4 100.65 46.0 88.65 55.1 95.3" fill="url(#gradient25)" fill-rule="evenodd" stroke="none"/>
    <path d="M-161.1 43.45 Q-164.6 35.9 -167.0 28.35 -169.25 21.35 -170.55 14.35 L-147.4 46.6 -161.1 43.45" fill="url(#gradient26)" fill-rule="evenodd" stroke="none"/>
    <path d="M-156.15 136.45 L-156.15 136.35 -156.0 135.3 M82.9 69.3 L82.35 67.4 M60.7 91.55 L70.1 84.55 M55.1 95.3 L46.4 100.65 M36.75 105.8 Q31.65 108.3 26.55 110.4 L21.7 112.4 21.35 112.55 Q8.65 117.5 -4.75 121.5 M-6.65 122.05 Q-20.85 126.25 -35.75 129.4 L-36.35 129.5 M-41.05 130.45 Q-55.85 133.4 -70.2 135.45 M-72.0 135.7 L-98.6 138.65 M-102.45 138.95 Q-116.05 139.85 -128.0 139.5 M-130.65 139.4 Q-143.6 138.8 -154.6 136.6 L-155.35 136.45 M-86.0 -63.7 L-85.9 -63.7 M-21.6 -59.25 L-21.45 -59.2 -18.55 -58.3 -18.5 -58.3" fill="none" stroke="#000000" stroke-linecap="round" stroke-linejoin="round" stroke-width="0.7000000000000001"/>
    <path d="M-144.15 70.9 L-145.75 69.25 M-170.55 14.35 L-170.3 13.95 -155.5 22.35 -168.95 -9.65 -168.3 -10.15 -156.05 4.55 -159.2 -30.05 -158.8 -30.4 -143.05 -10.5 -143.1 -10.0 M34.85 -27.95 L41.25 -20.8 36.3 7.25 54.0 -2.4 Q61.2 9.8 67.65 24.95 L70.6 32.25 70.9 32.95 71.0 33.2 Q77.05 48.85 82.35 67.4 L82.75 73.8 Q76.5 79.5 70.1 84.55 L60.55 78.9 60.7 91.55 55.1 95.3 46.0 88.65 46.4 100.65 Q41.6 103.4 36.75 105.8 L25.0 94.0 21.2 112.2 1.85 96.7 -4.75 121.5 -6.65 122.05 -29.45 106.4 -36.3 129.25 -36.35 129.5 -41.05 130.45 -59.6 109.6 -70.2 135.45 -72.0 135.7 -87.1 116.1 -98.6 138.65 -99.65 138.7 -102.45 138.95 -114.05 117.7 -128.0 139.5 -130.65 139.4 -141.5 112.35 -154.4 135.5 -156.0 135.3 M34.85 -27.95 L12.6 -10.5 13.15 -44.5 9.4 -45.55 -6.3 -32.7 M-6.4 -32.6 L-14.9 -25.6 -18.65 -57.9 -18.7 -57.95 -21.6 -59.25 -33.2 -42.45 -33.25 -42.4 -40.75 -31.55 -41.35 -31.3 -53.65 -64.95 -69.8 -32.6 -73.8 -40.4 M-73.85 -40.4 L-85.9 -63.7 -86.0 -63.7 -86.05 -63.7 -97.3 -26.15 -102.05 -35.75 M-102.05 -35.8 L-112.95 -57.9 -118.3 -57.3 -120.55 -27.45 -121.0 -21.3 -138.75 -48.25 -139.05 -48.75 -139.9 -48.3 -143.05 -10.5 M-170.55 14.35 L-147.4 46.6 -161.1 43.45" fill="none" stroke="#490e00" stroke-linecap="round" stroke-linejoin="round" stroke-width="0.7000000000000001"/>
    <path d="M-172.4 -169.4 Q-165.75 -176.55 -161.1 -184.55 -158.15 -189.6 -154.3 -197.5 -150.75 -203.15 -130.7 -200.7 -110.6 -198.25 -95.9 -205.2 -81.25 -212.2 -36.1 -176.95 9.0 -141.8 36.55 -110.35 64.0 -78.95 87.75 -53.25 111.45 -27.6 129.05 -3.85 146.65 19.8 161.55 37.35 L175.65 49.45" fill="none" stroke="#b1b3b4" stroke-linecap="round" stroke-linejoin="round" stroke-width="2.0"/>
    <path d="M82.35 67.4 Q80.9 45.7 78.35 32.95 L77.9 30.65 77.65 29.55 76.55 24.95 Q72.9 10.6 66.3 -9.5 58.55 -33.0 34.55 -52.95 10.45 -72.9 -18.45 -84.6 -47.25 -96.3 -78.15 -94.35 -110.2 -92.0 -140.15 -73.65 -170.15 -55.3 -173.15 -26.7" fill="none" stroke="#b34444" stroke-linecap="round" stroke-linejoin="round" stroke-width="1.0"/>
    <path d="M-102.7 258.0 Q-122.15 239.2 -133.55 222.95 -146.1 205.1 -151.7 187.05 -156.95 170.3 -156.95 150.85 -156.95 143.15 -156.15 136.45" fill="none" stroke="#000000" stroke-linecap="round" stroke-linejoin="round" stroke-width="1.5"/>
    <path d="M-156.0 135.3 L-155.0 129.15 Q-153.95 123.95 -150.65 113.6 -147.55 103.8 -146.25 96.6 -144.25 85.4 -144.15 70.9 M-145.75 69.25 Q-155.05 56.4 -161.1 43.45" fill="none" stroke="#490e00" stroke-linecap="round" stroke-linejoin="round" stroke-width="1.5"/>
    <path d="M-118.3 -57.3 L-113.2 -58.75 M-139.9 -48.3 L-139.05 -48.8 M-159.2 -30.05 L-158.9 -30.5" fill="none" stroke="#000000" stroke-linecap="round" stroke-linejoin="round" stroke-width="0.7000000000000001"/>
    <path d="M-172.8 3.95 Q-172.7 1.2 -172.25 -1.2 -171.35 -6.15 -168.95 -9.65 M-18.5 -58.3 Q-1.55 -59.85 10.1 -47.55 L13.15 -44.5 Q29.1 -43.6 34.4 -29.45 L34.85 -27.95 M41.25 -20.8 Q53.05 -14.35 54.0 -2.4 M-159.2 -30.05 Q-168.85 -24.15 -168.65 -10.55 M-113.2 -58.75 Q-109.75 -62.7 -105.1 -64.85 -95.4 -69.45 -86.05 -63.7 M-113.2 -58.75 L-112.95 -57.9 M-85.9 -63.7 Q-71.65 -74.7 -55.7 -66.05 L-53.65 -64.95 Q-50.35 -66.5 -46.95 -67.2 -32.05 -70.75 -21.6 -59.25 M-139.05 -48.8 Q-138.1 -51.0 -135.95 -52.5 -128.2 -57.8 -118.3 -57.3 M-158.9 -30.5 Q-155.75 -44.7 -139.9 -48.3" fill="none" stroke="#666666" stroke-linecap="round" stroke-linejoin="round" stroke-width="0.7000000000000001"/>
  </g>
  <defs>
    <linearGradient gradientTransform="matrix(0.2686, 0.1749, -0.1339, 0.2057, -17.55, 73.5)" gradientUnits="userSpaceOnUse" id="gradient0" spreadMethod="pad" x1="-819.2" x2="819.2">
      <stop offset="0.44313725490196076" stop-color="#efefef"/>
      <stop offset="0.9568627450980393" stop-color="#b7b7b7"/>
    </linearGradient>
    <radialGradient cx="0" cy="0" fx="-57.6" fy="0" gradientTransform="matrix(0.2487, -0.0486, 0.0651, 0.3327, -161.15, 27.0)" gradientUnits="userSpaceOnUse" id="gradient1" r="819.2" spreadMethod="pad">
      <stop offset="0.4117647058823529" stop-color="#8f1d01"/>
      <stop offset="1.0" stop-color="#330a00"/>
    </radialGradient>
    <linearGradient gradientTransform="matrix(-0.0131, 0.004, -0.006, -0.0196, -124.05, -37.95)" gradientUnits="userSpaceOnUse" id="gradient2" spreadMethod="pad" x1="-819.2" x2="819.2">
      <stop offset="0.40784313725490196" stop-color="#ffffff"/>
      <stop offset="0.9176470588235294" stop-color="#808080"/>
    </linearGradient>
    <linearGradient gradientTransform="matrix(-0.0131, 0.0022, -0.0037, -0.0221, -147.55, -28.35)" gradientUnits="userSpaceOnUse" id="gradient3" spreadMethod="pad" x1="-819.2" x2="819.2">
      <stop offset="0.40784313725490196" stop-color="#ffffff"/>
      <stop offset="0.9176470588235294" stop-color="#808080"/>
    </linearGradient>
    <linearGradient gradientTransform="matrix(-0.0075, 0.0012, -0.0034, -0.0209, -162.55, -11.95)" gradientUnits="userSpaceOnUse" id="gradient4" spreadMethod="pad" x1="-819.2" x2="819.2">
      <stop offset="0.40784313725490196" stop-color="#ffffff"/>
      <stop offset="0.9176470588235294" stop-color="#808080"/>
    </linearGradient>
    <linearGradient gradientTransform="matrix(-0.0077, 0.0069, -0.0134, -0.0148, -164.25, 8.15)" gradientUnits="userSpaceOnUse" id="gradient5" spreadMethod="pad" x1="-819.2" x2="819.2">
      <stop offset="0.40784313725490196" stop-color="#ffffff"/>
      <stop offset="0.9176470588235294" stop-color="#808080"/>
    </linearGradient>
    <linearGradient gradientTransform="matrix(-0.0164, 0.0036, -0.0047, -0.0211, -95.95, -44.6)" gradientUnits="userSpaceOnUse" id="gradient6" spreadMethod="pad" x1="-819.2" x2="819.2">
      <stop offset="0.40784313725490196" stop-color="#ffffff"/>
      <stop offset="0.9176470588235294" stop-color="#808080"/>
    </linearGradient>
    <linearGradient gradientTransform="matrix(-0.0196, 0.0013, -0.0013, -0.0197, -68.75, -48.85)" gradientUnits="userSpaceOnUse" id="gradient7" spreadMethod="pad" x1="-819.2" x2="819.2">
      <stop offset="0.40784313725490196" stop-color="#ffffff"/>
      <stop offset="0.9176470588235294" stop-color="#808080"/>
    </linearGradient>
    <linearGradient gradientTransform="matrix(-0.0197, -0.0022, 0.0022, -0.0196, -39.25, -47.3)" gradientUnits="userSpaceOnUse" id="gradient8" spreadMethod="pad" x1="-819.2" x2="819.2">
      <stop offset="0.40784313725490196" stop-color="#ffffff"/>
      <stop offset="0.9176470588235294" stop-color="#808080"/>
    </linearGradient>
    <linearGradient gradientTransform="matrix(-0.0198, -9.0E-4, 9.0E-4, -0.0198, -3.2, -41.35)" gradientUnits="userSpaceOnUse" id="gradient9" spreadMethod="pad" x1="-819.2" x2="819.2">
      <stop offset="0.40784313725490196" stop-color="#ffffff"/>
      <stop offset="0.9176470588235294" stop-color="#808080"/>
    </linearGradient>
    <linearGradient gradientTransform="matrix(-0.0099, -0.0089, 0.0099, -0.0109, 41.25, -4.5)" gradientUnits="userSpaceOnUse" id="gradient10" spreadMethod="pad" x1="-819.2" x2="819.2">
      <stop offset="0.40784313725490196" stop-color="#ffffff"/>
      <stop offset="0.9176470588235294" stop-color="#808080"/>
    </linearGradient>
    <linearGradient gradientTransform="matrix(-0.0138, -0.0092, 0.0099, -0.0147, 16.65, -25.2)" gradientUnits="userSpaceOnUse" id="gradient11" spreadMethod="pad" x1="-819.2" x2="819.2">
      <stop offset="0.40784313725490196" stop-color="#ffffff"/>
      <stop offset="0.9176470588235294" stop-color="#808080"/>
    </linearGradient>
    <linearGradient gradientTransform="matrix(-0.0152, -0.0036, 0.0037, -0.0159, -140.7, 126.3)" gradientUnits="userSpaceOnUse" id="gradient12" spreadMethod="pad" x1="-819.2" x2="819.2">
      <stop offset="0.40784313725490196" stop-color="#ffffff"/>
      <stop offset="0.9176470588235294" stop-color="#808080"/>
    </linearGradient>
    <linearGradient gradientTransform="matrix(-0.0156, 0.0, 0.0, -0.0134, -115.2, 128.65)" gradientUnits="userSpaceOnUse" id="gradient13" spreadMethod="pad" x1="-819.2" x2="819.2">
      <stop offset="0.40784313725490196" stop-color="#ffffff"/>
      <stop offset="0.9176470588235294" stop-color="#808080"/>
    </linearGradient>
    <linearGradient gradientTransform="matrix(-0.0163, 0.0015, -0.0012, -0.013, -86.2, 126.75)" gradientUnits="userSpaceOnUse" id="gradient14" spreadMethod="pad" x1="-819.2" x2="819.2">
      <stop offset="0.40784313725490196" stop-color="#ffffff"/>
      <stop offset="0.9176470588235294" stop-color="#808080"/>
    </linearGradient>
    <linearGradient gradientTransform="matrix(-0.0178, 0.0029, -0.0023, -0.0144, -57.45, 121.4)" gradientUnits="userSpaceOnUse" id="gradient15" spreadMethod="pad" x1="-819.2" x2="819.2">
      <stop offset="0.40784313725490196" stop-color="#ffffff"/>
      <stop offset="0.9176470588235294" stop-color="#808080"/>
    </linearGradient>
    <linearGradient gradientTransform="matrix(-0.0181, 0.0045, -0.0031, -0.0125, -23.9, 115.85)" gradientUnits="userSpaceOnUse" id="gradient16" spreadMethod="pad" x1="-819.2" x2="819.2">
      <stop offset="0.40784313725490196" stop-color="#ffffff"/>
      <stop offset="0.9176470588235294" stop-color="#808080"/>
    </linearGradient>
    <linearGradient gradientTransform="matrix(-0.0175, 0.0174, -0.0134, -0.0134, 11.45, 109.05)" gradientUnits="userSpaceOnUse" id="gradient17" spreadMethod="pad" x1="-819.2" x2="819.2">
      <stop offset="0.40784313725490196" stop-color="#ffffff"/>
      <stop offset="0.9176470588235294" stop-color="#808080"/>
    </linearGradient>
    <linearGradient gradientTransform="matrix(-0.1282, 0.05, -0.0476, -0.1221, -49.4, 3.55)" gradientUnits="userSpaceOnUse" id="gradient18" spreadMethod="pad" x1="-819.2" x2="819.2">
      <stop offset="0.4627450980392157" stop-color="#c76b6b"/>
      <stop offset="0.9333333333333333" stop-color="#a03d3d"/>
    </linearGradient>
    <linearGradient gradientTransform="matrix(-0.2124, 0.0, 0.0, -0.1876, 1.65, -104.25)" gradientUnits="userSpaceOnUse" id="gradient19" spreadMethod="pad" x1="-819.2" x2="819.2">
      <stop offset="0.803921568627451" stop-color="#86878a"/>
      <stop offset="0.9490196078431372" stop-color="#4d4d4d"/>
    </linearGradient>
    <linearGradient gradientTransform="matrix(-0.2081, 0.019, -0.0273, -0.2987, 1.25, 29.85)" gradientUnits="userSpaceOnUse" id="gradient20" spreadMethod="pad" x1="-819.2" x2="819.2">
      <stop offset="0.803921568627451" stop-color="#efefef"/>
      <stop offset="0.9490196078431372" stop-color="#b3b3b3"/>
    </linearGradient>
    <radialGradient cx="0" cy="0" fx="-57.6" fy="0" gradientTransform="matrix(0.2487, -0.0486, 0.0651, 0.3327, 76.55, 76.55)" gradientUnits="userSpaceOnUse" id="gradient21" r="819.2" spreadMethod="pad">
      <stop offset="0.3607843137254902" stop-color="#330a00"/>
      <stop offset="1.0" stop-color="#8f1d01"/>
    </radialGradient>
    <linearGradient gradientTransform="matrix(-0.0197, -0.0022, 0.0022, -0.0196, -39.25, -47.3)" gradientUnits="userSpaceOnUse" id="gradient22" spreadMethod="pad" x1="-819.2" x2="819.2">
      <stop offset="0.40784313725490196" stop-color="#fd9b9b"/>
      <stop offset="0.9921568627450981" stop-color="#fd2424"/>
    </linearGradient>
    <linearGradient gradientTransform="matrix(-0.0098, 0.0028, -0.0028, -0.0099, 27.05, 102.15)" gradientUnits="userSpaceOnUse" id="gradient23" spreadMethod="pad" x1="-819.2" x2="819.2">
      <stop offset="0.40784313725490196" stop-color="#ffffff"/>
      <stop offset="0.9176470588235294" stop-color="#808080"/>
    </linearGradient>
    <linearGradient gradientTransform="matrix(-0.0063, 0.0013, -0.0015, -0.0074, 64.7, 84.45)" gradientUnits="userSpaceOnUse" id="gradient24" spreadMethod="pad" x1="-819.2" x2="819.2">
      <stop offset="0.40784313725490196" stop-color="#ffffff"/>
      <stop offset="0.9176470588235294" stop-color="#808080"/>
    </linearGradient>
    <linearGradient gradientTransform="matrix(-0.0057, 0.0011, -0.0014, -0.0071, 49.95, 93.85)" gradientUnits="userSpaceOnUse" id="gradient25" spreadMethod="pad" x1="-819.2" x2="819.2">
      <stop offset="0.40784313725490196" stop-color="#ffffff"/>
      <stop offset="0.9176470588235294" stop-color="#808080"/>
    </linearGradient>
    <linearGradient gradientTransform="matrix(-0.006, 0.011, -0.0184, -0.0101, -163.85, 33.35)" gradientUnits="userSpaceOnUse" id="gradient26" spreadMethod="pad" x1="-819.2" x2="819.2">
      <stop offset="0.40784313725490196" stop-color="#ffffff"/>
      <stop offset="0.9176470588235294" stop-color="#808080"/>
    </linearGradient>
  </defs>
</svg>
