<?xml version="1.0" encoding="UTF-8" standalone="no"?>
<svg xmlns:ffdec="https://www.free-decompiler.com/flash" xmlns:xlink="http://www.w3.org/1999/xlink" ffdec:objectType="shape" height="302.9px" width="352.8px" xmlns="http://www.w3.org/2000/svg">
  <g transform="matrix(1.0, 0.0, 0.0, 1.0, 176.4, 151.45)">
    <path d="M-161.1 150.7 Q-164.6 143.15 -167.0 135.6 -169.25 128.6 -170.55 121.6 L-170.65 121.0 Q-172.0 113.6 -172.25 106.15 L-172.35 100.0 -172.25 97.1 -173.15 80.55 Q-175.1 43.85 -175.55 19.4 -176.1 -11.25 -172.95 -55.55 L-172.4 -62.15 Q-168.9 -101.95 -158.0 -127.0 -146.25 -154.1 -136.85 -150.2 -127.45 -146.3 -120.5 -139.85 -113.6 -133.45 -95.2 -123.7 -76.8 -113.95 -53.4 -97.4 -36.5 -84.3 -11.15 -68.4 2.35 -59.95 15.15 -50.0 L15.85 -49.65 Q19.55 -47.7 23.45 -43.65 L24.5 -42.5 36.95 -31.65 Q52.0 -15.2 61.6 -2.4 71.2 10.35 81.95 26.0 92.7 41.65 98.25 47.5 L175.65 129.2 M15.15 -50.0 Q12.05 -51.5 10.9 -50.35 9.55 -49.1 11.4 -45.35 13.2 -41.6 17.1 -37.55 21.0 -33.5 24.7 -31.55 28.35 -29.55 29.65 -30.85 31.0 -32.1 29.15 -35.85 27.6 -39.1 24.5 -42.5 M-170.3 121.2 L-170.65 121.0" fill="none" stroke="#000000" stroke-linecap="round" stroke-linejoin="round" stroke-width="1.5"/>
  </g>
</svg>
