<?xml version="1.0" encoding="UTF-8" standalone="no"?>
<svg xmlns:ffdec="https://www.free-decompiler.com/flash" xmlns:xlink="http://www.w3.org/1999/xlink" ffdec:objectType="shape" height="120.4px" width="243.95px" xmlns="http://www.w3.org/2000/svg">
  <g transform="matrix(1.0, 0.0, 0.0, 1.0, 122.0, 60.2)">
    <path d="M27.05 -47.6 L16.6 -53.75 Q13.55 -52.5 10.55 -52.95 9.45 -53.2 8.55 -54.05 L7.85 -54.65 -5.45 -57.9 -5.9 -58.5 -15.5 -60.2 Q-20.6 -58.25 -25.95 -58.1 -32.05 -57.95 -37.7 -56.2 L-46.2 -53.55 M66.45 -20.55 Q63.4 -25.35 58.0 -27.7 53.85 -29.5 49.35 -30.3 L44.1 -35.2 Q41.7 -35.35 39.55 -34.4 39.05 -34.2 38.45 -34.4 L30.8 -37.65 28.4 -37.7 26.5 -36.95 8.8 -44.65 7.1 -44.1 M103.0 5.2 L98.75 1.25 98.1 -3.0 94.45 -5.85 77.1 -23.9 60.15 -32.0 59.25 -32.9 59.25 -33.1 59.3 -33.35 59.25 -33.45 58.8 -33.65 Q58.45 -33.55 58.35 -33.9 L58.4 -34.1 58.45 -34.35 58.3 -34.6 57.15 -34.75 56.95 -35.6 M115.45 40.55 Q112.9 30.4 108.35 21.05 L107.9 20.35 Q105.4 16.85 102.15 14.0 L101.15 13.45 Q100.35 13.4 100.85 12.85 99.0 11.6 97.65 9.3 L92.05 -0.45 Q91.65 -1.15 91.4 -1.9 L91.15 -2.5 89.7 -3.2 84.9 -8.15 M121.95 60.2 L119.25 51.15 M-66.65 -43.75 L-80.6 -39.95 Q-83.65 -39.2 -85.15 -36.7 L-86.15 -35.9 Q-91.6 -33.2 -97.55 -31.45 L-97.6 -31.15 -97.7 -31.05 -97.8 -31.0 -98.05 -31.0 -98.25 -31.05 -110.0 -17.3 -110.1 -16.65 Q-111.8 -14.55 -113.4 -13.65 -115.05 -12.8 -116.4 -10.95 -117.75 -9.15 -117.9 -6.85 -118.1 -4.6 -118.25 -4.45 -119.2 -4.8 -119.3 -3.65 -119.35 -3.15 -119.75 -2.7 -121.3 -1.1 -121.4 0.95 L-121.75 1.2 Q-122.1 1.15 -122.0 4.65 M-104.5 -13.4 L-104.85 -14.5 -99.4 -18.45 -98.2 -20.25 -94.25 -24.45 M-11.6 -42.9 Q-14.65 -44.15 -17.5 -45.75 L-18.6 -45.85 Q-22.35 -44.4 -26.25 -43.8 -35.85 -43.5 -44.8 -40.45 L-49.0 -42.2 -78.0 -34.2 M-111.9 -3.15 Q-113.35 -1.65 -113.95 0.55 -114.35 1.95 -115.05 3.25 -116.2 5.45 -118.05 7.3" fill="none" stroke="#7a3838" stroke-linecap="round" stroke-linejoin="round" stroke-width="0.05"/>
  </g>
</svg>
