<?xml version="1.0" encoding="UTF-8" standalone="no"?>
<svg xmlns:ffdec="https://www.free-decompiler.com/flash" xmlns:xlink="http://www.w3.org/1999/xlink" ffdec:objectType="shape" height="203.65px" width="369.2px" xmlns="http://www.w3.org/2000/svg">
  <g transform="matrix(1.0, 0.0, 0.0, 1.0, 184.55, 101.8)">
    <path d="M-160.85 -30.45 Q-171.1 -37.0 -176.35 -49.15 -182.9 -64.05 -178.1 -78.7 -173.35 -93.35 -160.1 -99.1 L-157.5 -100.1 -157.3 -100.15 -157.4 -99.9 -158.05 -98.3 -158.05 -98.25 Q-159.4 -94.7 -159.4 -92.1 -159.4 -88.35 -157.35 -85.9 -155.15 -83.25 -151.2 -83.2 L-143.75 -83.5 Q-139.35 -84.25 -130.4 -87.3 -129.15 -83.6 -123.2 -74.95 -124.2 -73.85 -127.95 -71.55 -131.75 -69.3 -132.75 -68.15 L-133.15 -67.6 Q-135.15 -68.95 -137.1 -68.85 -140.15 -68.65 -141.45 -65.15 -142.85 -61.7 -141.7 -56.9 -140.55 -52.1 -137.5 -48.85 -136.1 -47.25 -134.65 -46.5 -134.1 -43.75 -132.7 -42.25 -134.75 -39.1 -138.95 -36.45 -143.15 -33.85 -156.1 -30.4 L-160.85 -30.45" fill="#996633" fill-rule="evenodd" stroke="none"/>
    <path d="M-157.3 -100.15 Q-145.4 -104.2 -132.9 -98.4 -121.4 -93.05 -114.9 -81.9 L-114.55 -81.2 -113.8 -79.85 -100.65 -64.75 -108.7 -59.5 Q-108.75 -53.45 -110.7 -47.4 -113.95 -37.55 -121.05 -31.7 -135.05 -32.2 -148.85 -25.25 -152.35 -26.1 -155.9 -27.75 -158.5 -28.95 -160.85 -30.45 L-156.1 -30.4 Q-143.15 -33.85 -138.95 -36.45 -134.75 -39.1 -132.7 -42.25 -134.1 -43.75 -134.65 -46.5 -136.1 -47.25 -137.5 -48.85 -140.55 -52.1 -141.7 -56.9 -142.85 -61.7 -141.45 -65.15 -140.15 -68.65 -137.1 -68.85 -135.15 -68.95 -133.15 -67.6 L-132.75 -68.15 Q-131.75 -69.3 -127.95 -71.55 -124.2 -73.85 -123.2 -74.95 -129.15 -83.6 -130.4 -87.3 -139.35 -84.25 -143.75 -83.5 L-151.2 -83.2 Q-155.15 -83.25 -157.35 -85.9 -159.4 -88.35 -159.4 -92.1 -159.4 -94.7 -158.05 -98.25 L-158.05 -98.3 -157.4 -99.9 -157.3 -100.15 M-131.85 -66.55 L-133.15 -67.6 -131.85 -66.55 M-127.95 -47.9 Q-129.3 -45.9 -131.55 -45.75 -133.1 -45.7 -134.65 -46.5 -133.1 -45.7 -131.55 -45.75 -129.3 -45.9 -127.95 -47.9 M-116.95 28.95 Q-115.15 28.25 -112.85 27.7 -105.05 25.8 -94.55 25.8 L-83.5 25.85 Q-83.6 31.2 -82.4 35.35 -81.85 37.25 -79.95 48.7 L-79.95 48.75 -78.8 48.55 -39.35 45.15 -25.65 43.5 -15.45 42.7 -13.0 42.5 -12.5 42.45 Q1.8 42.15 9.3 46.65 16.75 51.1 20.25 56.15 21.8 58.35 22.75 61.15 L22.9 61.5 Q23.95 64.9 24.2 69.1 L24.55 77.15 Q23.95 79.2 20.85 79.35 L20.85 79.4 20.7 81.45 18.15 83.6 16.75 83.6 16.15 83.0 15.35 81.85 15.35 81.8 Q15.2 81.15 14.85 81.15 L13.65 67.8 Q13.0 67.85 8.25 65.35 3.45 62.9 2.55 62.9 1.6 62.9 -2.95 64.15 L-16.7 67.5 -25.25 68.1 -46.6 69.65 Q-55.4 70.3 -70.6 73.75 -85.85 77.15 -96.6 76.4 -103.0 77.9 -106.0 75.75 -109.35 73.35 -110.95 67.0 L-114.8 49.95 Q-115.65 45.8 -116.15 41.1 L-116.15 41.05 Q-116.8 35.4 -116.95 28.95 M-79.1 54.05 L-79.95 48.75 -79.1 54.05 M19.75 62.3 Q19.75 64.35 20.35 67.85 20.95 71.3 20.95 74.15 L20.85 79.35 20.95 74.15 Q20.95 71.3 20.35 67.85 19.75 64.35 19.75 62.3 M-83.0 35.55 L-82.4 35.35 -83.0 35.55" fill="#fec289" fill-rule="evenodd" stroke="none"/>
    <path d="M-98.05 -25.85 L-94.45 -24.4 -93.4 -23.9 Q-86.6 -20.5 -81.8 -14.35 -78.3 -7.1 -77.8 6.0 -77.5 14.5 -77.45 28.35 L-77.7 28.55 -77.95 28.75 -77.75 28.55 Q-76.95 27.2 -83.5 25.85 L-94.55 25.8 Q-105.05 25.8 -112.85 27.7 -115.15 28.25 -116.95 28.95 -121.55 30.65 -123.05 33.2 L-125.0 -5.95 -124.85 -6.95 -124.25 -10.7 Q-116.45 -26.45 -98.05 -25.85 M-77.7 28.55 L-77.75 28.55 -77.7 28.55 M-77.75 28.55 L-77.95 28.75 -78.15 28.9 Q-78.4 28.3 -77.75 28.55 M-178.85 50.3 Q-162.3 74.1 -151.5 86.75 L-148.2 90.4 -164.15 90.35 Q-167.3 84.3 -170.15 77.6 -173.85 68.85 -179.7 50.85 L-178.85 50.3" fill="#2d405b" fill-rule="evenodd" stroke="none"/>
    <path d="M-121.05 -31.7 Q-109.6 -31.3 -98.05 -25.85 -116.45 -26.45 -124.25 -10.7 L-124.85 -6.95 -125.0 -5.95 -123.05 33.2 Q-123.8 34.4 -123.8 35.85 -123.8 38.8 -121.15 40.35 -118.85 41.7 -116.15 41.1 -115.65 45.8 -114.8 49.95 L-110.95 67.0 Q-109.35 73.35 -106.0 75.75 -103.0 77.9 -96.6 76.4 -85.85 77.15 -70.6 73.75 -55.4 70.3 -46.6 69.65 L-25.25 68.1 Q-20.2 77.9 -19.45 84.9 -19.2 87.2 -19.3 90.6 L-148.2 90.4 -151.5 86.75 Q-162.3 74.1 -178.85 50.3 L-180.75 47.55 -181.15 46.4 -184.55 35.55 -184.55 27.0 Q-184.1 -3.3 -155.6 -21.4 L-148.85 -25.25 Q-135.05 -32.2 -121.05 -31.7 M-77.45 28.35 Q-66.4 29.75 -56.85 33.4 -51.85 35.3 -47.45 38.3 -43.15 41.2 -39.35 45.15 L-78.8 48.55 -79.95 48.7 Q-81.85 37.25 -82.4 35.35 L-78.85 33.85 Q-77.5 32.95 -77.5 30.65 -77.5 28.7 -77.7 28.55 L-77.45 28.35 M-47.75 39.2 L-47.45 38.3 -47.75 39.2" fill="#ff6633" fill-rule="evenodd" stroke="none"/>
    <path d="M154.8 55.05 L159.95 51.15 Q162.55 49.0 165.9 47.25 169.2 45.5 173.15 45.2 177.05 44.9 178.7 47.05 180.35 49.15 180.75 51.9 L180.9 54.65 180.9 54.9 Q180.8 64.35 174.35 70.05 L168.1 75.1 Q164.05 78.4 161.5 81.75 L157.25 87.8 Q155.25 90.0 152.4 90.9 L123.75 90.85 123.75 90.3 Q141.85 88.05 145.25 79.65 148.7 70.95 151.85 66.7 154.65 62.85 154.8 55.05" fill="#6c4824" fill-rule="evenodd" stroke="none"/>
    <path d="M180.75 51.9 L183.65 55.05 Q184.8 56.65 184.6 61.3 184.35 65.25 176.85 72.55 L176.8 72.65 174.0 75.2 Q165.25 83.0 159.55 89.85 L158.65 90.95 152.4 90.9 Q155.25 90.0 157.25 87.8 L161.5 81.75 Q164.05 78.4 168.1 75.1 L174.35 70.05 Q180.8 64.35 180.9 54.9 L180.9 54.65 180.75 51.9" fill="#402b15" fill-rule="evenodd" stroke="none"/>
    <path d="M-123.05 33.2 Q-121.55 30.65 -116.95 28.95 -116.8 35.4 -116.15 41.05 L-116.15 41.1 Q-118.85 41.7 -121.15 40.35 -123.8 38.8 -123.8 35.85 -123.8 34.4 -123.05 33.2 M-83.5 25.85 Q-76.95 27.2 -77.75 28.55 -78.4 28.3 -78.15 28.9 L-77.95 28.75 -77.7 28.55 Q-77.5 28.7 -77.5 30.65 -77.5 32.95 -78.85 33.85 L-82.4 35.35 Q-83.6 31.2 -83.5 25.85" fill="#1d2838" fill-rule="evenodd" stroke="none"/>
    <path d="M-47.45 38.3 Q-46.35 35.6 -42.5 31.35 -37.95 26.3 -31.65 21.5 -15.85 9.45 -4.35 9.45 1.2 9.45 8.75 12.1 15.9 14.65 17.35 16.7 L17.65 17.15 Q34.15 6.95 44.35 6.95 58.95 6.95 69.0 12.3 76.15 16.15 98.2 31.35 106.35 36.6 130.8 43.2 141.65 46.15 146.05 47.8 152.45 50.25 154.45 52.8 L154.8 53.25 154.8 55.05 Q154.65 62.85 151.85 66.7 148.7 70.95 145.25 79.65 141.85 88.05 123.75 90.3 L122.55 90.4 122.2 90.3 Q111.25 86.15 95.2 78.55 76.5 69.7 65.8 61.4 55.1 53.1 50.8 50.75 L49.05 49.55 Q42.1 59.8 32.05 70.4 L24.95 77.55 24.55 77.15 24.2 69.1 Q23.95 64.9 22.9 61.5 L22.75 61.15 Q21.8 58.35 20.25 56.15 16.75 51.1 9.3 46.65 1.8 42.15 -12.5 42.45 L-12.6 42.45 -13.0 42.5 -15.45 42.7 -25.65 43.5 -39.35 45.15 Q-43.15 41.2 -47.45 38.3 M17.65 17.15 Q13.3 19.8 8.5 23.2 1.15 28.45 -7.05 35.2 L-13.75 41.1 -15.45 42.7 -13.75 41.1 -7.05 35.2 Q1.15 28.45 8.5 23.2 13.3 19.8 17.65 17.15 M57.45 34.95 Q54.05 42.15 49.05 49.55 54.05 42.15 57.45 34.95 M-25.25 68.1 L-16.7 67.5 -2.95 64.15 Q1.6 62.9 2.55 62.9 3.45 62.9 8.25 65.35 13.0 67.85 13.65 67.8 L14.85 81.15 Q15.2 81.15 15.35 81.8 L15.35 81.85 16.15 83.0 16.75 83.6 18.15 83.6 Q13.35 87.6 8.75 90.65 L-19.3 90.6 Q-19.2 87.2 -19.45 84.9 -20.2 77.9 -25.25 68.1" fill="#869cbd" fill-rule="evenodd" stroke="none"/>
    <path d="M-160.85 -30.45 Q-171.1 -37.0 -176.35 -49.15 -182.9 -64.05 -178.1 -78.7 -173.35 -93.35 -160.1 -99.1 L-157.5 -100.1 -157.3 -100.15 Q-145.4 -104.2 -132.9 -98.4 -121.4 -93.05 -114.9 -81.9 L-114.55 -81.2 -113.8 -79.85 -100.65 -64.75 -108.7 -59.5 Q-108.75 -53.45 -110.7 -47.4 -113.95 -37.55 -121.05 -31.7 -109.6 -31.3 -98.05 -25.85 L-94.45 -24.4 -93.4 -23.9 Q-86.6 -20.5 -81.8 -14.35 -78.3 -7.1 -77.8 6.0 -77.5 14.5 -77.45 28.35 -66.4 29.75 -56.85 33.4 -51.85 35.3 -47.45 38.3 -46.35 35.6 -42.5 31.35 -37.95 26.3 -31.65 21.5 -15.85 9.45 -4.35 9.45 1.2 9.45 8.75 12.1 15.9 14.65 17.35 16.7 M17.65 17.15 Q34.15 6.95 44.35 6.95 58.95 6.95 69.0 12.3 76.15 16.15 98.2 31.35 106.35 36.6 130.8 43.2 141.65 46.15 146.05 47.8 152.45 50.25 154.45 52.8 L154.8 53.25 154.8 55.05 159.95 51.15 Q162.55 49.0 165.9 47.25 169.2 45.5 173.15 45.2 177.05 44.9 178.7 47.05 180.35 49.15 180.75 51.9 L183.65 55.05 Q184.8 56.65 184.6 61.3 184.35 65.25 176.85 72.55 L176.8 72.65 174.0 75.2 Q165.25 83.0 159.55 89.85 L158.65 90.95 175.5 90.95 M-158.05 -98.3 L-158.05 -98.25 M-133.15 -67.6 L-131.85 -66.55 M-133.15 -67.6 Q-135.15 -68.95 -137.1 -68.85 -140.15 -68.65 -141.45 -65.15 -142.85 -61.7 -141.7 -56.9 -140.55 -52.1 -137.5 -48.85 -136.1 -47.25 -134.65 -46.5 -133.1 -45.7 -131.55 -45.75 -129.3 -45.9 -127.95 -47.9 M-160.85 -30.45 Q-158.5 -28.95 -155.9 -27.75 -152.35 -26.1 -148.85 -25.25 -135.05 -32.2 -121.05 -31.7 M-98.05 -25.85 Q-116.45 -26.45 -124.25 -10.7 L-124.85 -6.95 -125.0 -5.95 -123.05 33.2 Q-121.55 30.65 -116.95 28.95 -115.15 28.25 -112.85 27.7 -105.05 25.8 -94.55 25.8 L-83.5 25.85 Q-76.95 27.2 -77.75 28.55 L-77.7 28.55 -77.45 28.35 M-180.75 47.55 L-181.15 46.4 -184.55 35.55 -184.55 27.0 Q-184.1 -3.3 -155.6 -21.4 L-148.85 -25.25 M-39.35 45.15 L-25.65 43.5 -15.45 42.7 -13.75 41.1 -7.05 35.2 Q1.15 28.45 8.5 23.2 13.3 19.8 17.65 17.15 M-15.45 42.7 L-13.0 42.5 -12.6 42.45 -12.5 42.45 Q1.8 42.15 9.3 46.65 16.75 51.1 20.25 56.15 21.8 58.35 22.75 61.15 L22.9 61.5 Q23.95 64.9 24.2 69.1 L24.55 77.15 Q23.95 79.2 20.85 79.35 L20.95 74.15 Q20.95 71.3 20.35 67.85 19.75 64.35 19.75 62.3 M24.95 77.55 L32.05 70.4 Q42.1 59.8 49.05 49.55 54.05 42.15 57.45 34.95 M-13.0 42.5 L-12.5 42.45 M-77.7 28.55 Q-77.5 28.7 -77.5 30.65 -77.5 32.95 -78.85 33.85 L-82.4 35.35 Q-81.85 37.25 -79.95 48.7 L-79.95 48.75 -79.1 54.05 M-78.8 48.55 L-39.35 45.15 Q-43.15 41.2 -47.45 38.3 L-47.75 39.2 M-77.95 28.75 L-77.7 28.55 M-77.95 28.75 L-77.75 28.55 Q-78.4 28.3 -78.15 28.9 L-77.95 28.75 M-116.15 41.1 Q-115.65 45.8 -114.8 49.95 L-110.95 67.0 Q-109.35 73.35 -106.0 75.75 -103.0 77.9 -96.6 76.4 -85.85 77.15 -70.6 73.75 -55.4 70.3 -46.6 69.65 L-25.25 68.1 -16.7 67.5 -2.95 64.15 Q1.6 62.9 2.55 62.9 3.45 62.9 8.25 65.35 13.0 67.85 13.65 67.8 L14.85 81.15 Q15.2 81.15 15.35 81.8 L15.35 81.85 16.15 83.0 16.75 83.6 18.15 83.6 20.7 81.45 20.85 79.4 20.85 79.35 M-25.25 68.1 Q-20.2 77.9 -19.45 84.9 -19.2 87.2 -19.3 90.6 L8.75 90.65 Q13.35 87.6 18.15 83.6 L20.35 83.6 20.7 81.45 24.95 77.55 M-19.3 90.6 L-19.5 95.2 M-123.05 33.2 Q-123.8 34.4 -123.8 35.85 -123.8 38.8 -121.15 40.35 -118.85 41.7 -116.15 41.1 L-116.15 41.05 Q-116.8 35.4 -116.95 28.95 M-82.4 35.35 L-83.0 35.55 M-82.4 35.35 Q-83.6 31.2 -83.5 25.85 M-148.2 90.4 L-151.5 86.75 Q-162.3 74.1 -178.85 50.3 L-180.75 47.55 -179.7 50.85 Q-173.85 68.85 -170.15 77.6 -167.3 84.3 -164.15 90.35 L-148.2 90.4 -19.3 90.6 M-143.35 95.2 L-148.2 90.4 M-169.4 90.35 L-164.15 90.35 -161.55 95.2 M180.75 51.9 L180.9 54.65 180.9 54.9 Q180.8 64.35 174.35 70.05 L168.1 75.1 Q164.05 78.4 161.5 81.75 L157.25 87.8 Q155.25 90.0 152.4 90.9 L158.65 90.95 157.55 92.3 Q151.45 100.15 150.55 101.85 M154.8 55.05 Q154.65 62.85 151.85 66.7 148.7 70.95 145.25 79.65 141.85 88.05 123.75 90.3 L122.55 90.4 123.75 90.85 125.55 91.5 M123.75 90.85 L152.4 90.9 149.35 91.5 131.05 92.1 M123.75 90.85 L121.95 90.85 120.15 92.15 M122.55 90.4 L122.2 90.3 Q111.25 86.15 95.2 78.55 76.5 69.7 65.8 61.4 55.1 53.1 50.8 50.75 M8.75 90.65 L121.95 90.85 122.55 90.4 M-1.55 96.35 Q3.45 94.1 8.75 90.65" fill="none" stroke="#000000" stroke-linecap="round" stroke-linejoin="round" stroke-width="0.05"/>
    <path d="M-115.95 -86.25 L-113.95 -82.75 -110.75 -77.9 Q-112.15 -76.65 -114.0 -76.65 -116.05 -76.65 -117.55 -78.15 -119.0 -79.6 -119.0 -81.65 -119.0 -83.7 -117.55 -85.2 -116.85 -85.9 -115.95 -86.25" fill="#000000" fill-rule="evenodd" stroke="none"/>
    <path d="M-109.85 -51.65 L-113.15 -43.8" fill="none" stroke="#000000" stroke-linecap="round" stroke-linejoin="round" stroke-width="0.05"/>
  </g>
</svg>
