<?xml version="1.0" encoding="UTF-8" standalone="no"?>
<svg xmlns:ffdec="https://www.free-decompiler.com/flash" xmlns:xlink="http://www.w3.org/1999/xlink" ffdec:objectType="shape" height="19.0px" width="38.95px" xmlns="http://www.w3.org/2000/svg">
  <g transform="matrix(1.0, 0.0, 0.0, 1.0, 31.95, 9.5)">
    <path d="M-6.9 -1.75 Q-6.55 -4.6 -4.95 -6.75 -2.9 -9.5 0.0 -9.5 2.9 -9.5 4.95 -6.75 7.0 -3.95 7.0 0.0 7.0 3.95 4.95 6.7 2.9 9.5 0.0 9.5 -2.9 9.5 -4.95 6.7 -7.0 3.95 -7.0 0.0 L-6.9 -1.75 -2.95 -1.7 -6.9 -1.75" fill="url(#gradient0)" fill-rule="evenodd" stroke="none"/>
    <path d="M-6.9 -1.75 Q-6.55 -4.6 -4.95 -6.75 -2.9 -9.5 0.0 -9.5 2.9 -9.5 4.95 -6.75 7.0 -3.95 7.0 0.0 7.0 3.95 4.95 6.7 2.9 9.5 0.0 9.5 -2.9 9.5 -4.95 6.7 -7.0 3.95 -7.0 0.0 L-6.9 -1.75 -31.95 -2.0 M-2.95 -1.7 L-6.9 -1.75" fill="none" stroke="#000000" stroke-linecap="round" stroke-linejoin="round" stroke-width="0.05"/>
  </g>
  <defs>
    <radialGradient cx="0" cy="0" gradientTransform="matrix(0.047, 0.0067, -0.0075, 0.053, 33.9, -3.15)" gradientUnits="userSpaceOnUse" id="gradient0" r="819.2" spreadMethod="pad">
      <stop offset="0.0" stop-color="#ffffff"/>
      <stop offset="1.0" stop-color="#000000"/>
    </radialGradient>
  </defs>
</svg>
