<?xml version="1.0" encoding="UTF-8" standalone="no"?>
<svg xmlns:ffdec="https://www.free-decompiler.com/flash" xmlns:xlink="http://www.w3.org/1999/xlink" ffdec:objectType="shape" height="206.25px" width="667.15px" xmlns="http://www.w3.org/2000/svg">
  <g transform="matrix(1.0, 0.0, 0.0, 1.0, 333.8, 102.85)">
    <path d="M-333.3 -58.2 Q-277.35 -38.1 -217.0 -38.45 L-216.95 -38.45 -216.9 -38.45 -216.8 -38.45 119.65 -44.55 120.25 -44.65 324.6 -102.6 324.55 -102.6 Q327.35 -103.4 329.85 -101.85 332.35 -100.35 333.1 -97.35 333.85 -94.45 332.4 -91.8 L332.45 -91.85 Q330.95 -89.15 328.15 -88.3 L323.05 -86.9 123.2 -30.2 123.1 -30.2 122.0 -29.9 120.4 -29.75 120.35 -29.75 44.05 -28.4 -201.4 -24.55 Q-256.5 -22.25 -290.75 -32.3 -312.35 -37.65 -333.3 -46.25 L-333.3 -58.2" fill="#cccccc" fill-rule="evenodd" stroke="none"/>
    <path d="M323.05 -86.9 Q320.0 -36.2 307.1 14.4 L173.5 102.9 Q130.85 48.8 120.35 -29.75 L120.4 -29.75 122.0 -29.9 123.1 -30.2 123.2 -30.2 323.05 -86.9" fill="url(#gradient0)" fill-rule="evenodd" stroke="none"/>
    <path d="M173.5 102.9 Q-109.15 71.05 -255.85 29.7 -307.6 -9.7 -333.3 -45.0 L-333.3 -46.25 Q-312.35 -37.65 -290.75 -32.3 -274.0 -12.65 -257.45 -7.0 -109.7 18.4 58.35 29.75 42.25 -7.45 44.05 -28.4 L120.35 -29.75 Q130.85 48.8 173.5 102.9" fill="url(#gradient1)" fill-rule="evenodd" stroke="none"/>
    <path d="M44.05 -28.4 Q42.25 -7.45 58.35 29.75 -109.7 18.4 -257.45 -7.0 -274.0 -12.65 -290.75 -32.3 -256.5 -22.25 -201.4 -24.55 L44.05 -28.4" fill="url(#gradient2)" fill-rule="evenodd" stroke="none"/>
    <path d="M-333.3 -58.2 Q-277.35 -38.1 -217.0 -38.45 L-216.95 -38.45 -216.9 -38.45 -216.8 -38.45 119.65 -44.55 120.25 -44.65 324.6 -102.6 324.55 -102.6 Q327.35 -103.4 329.85 -101.85 332.35 -100.35 333.1 -97.35 333.85 -94.45 332.4 -91.8 L332.45 -91.85 Q330.95 -89.15 328.15 -88.3 L323.05 -86.9 123.2 -30.2 123.1 -30.2 122.0 -29.9 120.4 -29.75 120.35 -29.75 44.05 -28.4 -201.4 -24.55 Q-256.5 -22.25 -290.75 -32.3 -312.35 -37.65 -333.3 -46.25" fill="none" stroke="#000000" stroke-linecap="round" stroke-linejoin="round" stroke-width="0.05"/>
    <path d="M323.05 -86.9 Q320.0 -36.2 307.1 14.4 L173.5 102.9 Q-109.15 71.05 -255.85 29.7 -307.6 -9.7 -333.3 -45.0 M120.35 -29.75 Q130.85 48.8 173.5 102.9" fill="none" stroke="#000000" stroke-linecap="round" stroke-linejoin="round" stroke-width="1.0"/>
  </g>
  <defs>
    <linearGradient gradientTransform="matrix(0.0312, 0.0808, -0.12, 0.0521, 240.6, 16.55)" gradientUnits="userSpaceOnUse" id="gradient0" spreadMethod="pad" x1="-819.2" x2="819.2">
      <stop offset="0.40784313725490196" stop-color="#eaeaea"/>
      <stop offset="0.8470588235294118" stop-color="#666666"/>
    </linearGradient>
    <linearGradient gradientTransform="matrix(-0.0065, 0.0782, -0.3138, -0.0289, -79.65, 41.3)" gradientUnits="userSpaceOnUse" id="gradient1" spreadMethod="pad" x1="-819.2" x2="819.2">
      <stop offset="0.40784313725490196" stop-color="#eaeaea"/>
      <stop offset="0.8470588235294118" stop-color="#666666"/>
    </linearGradient>
    <linearGradient gradientTransform="matrix(0.1624, 0.1338, -0.0581, 0.0791, -38.2, 31.3)" gradientUnits="userSpaceOnUse" id="gradient2" spreadMethod="pad" x1="-819.2" x2="819.2">
      <stop offset="0.40784313725490196" stop-color="#728896"/>
      <stop offset="0.8470588235294118" stop-color="#39484f"/>
    </linearGradient>
  </defs>
</svg>
