<?xml version="1.0" encoding="UTF-8" standalone="no"?>
<svg xmlns:ffdec="https://www.free-decompiler.com/flash" xmlns:xlink="http://www.w3.org/1999/xlink" ffdec:objectType="shape" height="204.45px" width="253.3px" xmlns="http://www.w3.org/2000/svg">
  <g transform="matrix(1.0, 0.0, 0.0, 1.0, 170.55, 64.95)">
    <path d="M-18.65 -57.9 L-18.7 -57.95 -21.6 -59.25 -21.45 -59.2 -18.55 -58.3 -18.5 -58.3 -18.65 -57.9 M-138.75 -48.25 L-139.05 -48.75 -139.9 -48.3 -139.05 -48.8 -138.75 -48.25 M-36.35 129.5 L-36.3 129.25 -35.75 129.4 -36.35 129.5" fill="#ffffff" fill-rule="evenodd" stroke="none"/>
    <path d="M-155.35 136.45 L-154.6 136.6 -156.15 136.45 -156.15 136.35 -155.35 136.45" fill="#efefef" fill-rule="evenodd" stroke="none"/>
    <path d="M-18.65 -57.9 L-14.9 -25.6 9.4 -45.55 13.15 -44.5 12.6 -10.5 34.85 -27.95 41.25 -20.8 36.3 7.25 54.0 -2.4 Q61.2 9.8 67.65 24.95 L70.6 32.25 70.9 32.95 71.0 33.2 Q77.05 48.85 82.35 67.4 L82.75 73.8 Q76.5 79.5 70.1 84.55 L60.55 78.9 60.7 91.55 55.1 95.3 46.0 88.65 46.4 100.65 Q41.6 103.4 36.75 105.8 L25.0 94.0 21.2 111.25 1.85 96.7 -4.75 121.5 -6.65 122.05 -29.45 106.4 -36.3 129.25 -36.35 129.5 -41.05 130.45 -59.6 109.6 -70.2 135.45 -72.0 135.7 -87.1 116.1 -98.6 138.65 -99.65 138.7 -102.45 138.95 -114.05 117.7 -128.0 139.5 -130.65 139.4 -141.5 112.35 -154.4 135.5 -156.0 135.3 -155.0 129.15 Q-153.95 123.95 -150.65 113.6 -147.55 103.8 -146.25 96.6 -144.35 85.9 -144.15 72.25 L-144.15 70.9 -145.75 69.25 Q-155.05 56.4 -161.1 43.45 L-147.4 46.6 -170.55 14.35 -170.3 13.95 -155.5 22.35 -168.95 -9.65 -168.3 -10.15 -156.05 4.55 -159.2 -30.05 -158.8 -30.4 -143.05 -10.5 -139.9 -48.3 -139.05 -48.75 -138.75 -48.25 -121.0 -21.3 -118.3 -57.3 -113.2 -58.75 -112.95 -57.9 -97.3 -26.15 -86.05 -63.7 -85.9 -63.7 -69.8 -32.6 -53.65 -64.95 -41.35 -31.3 -40.75 -31.55 -21.6 -59.25 -18.7 -57.95 -18.65 -57.9" fill="url(#gradient0)" fill-rule="evenodd" stroke="none"/>
  </g>
  <defs>
    <radialGradient cx="0" cy="0" gradientTransform="matrix(0.379, 0.0, 0.0, 0.2227, -115.25, 84.3)" gradientUnits="userSpaceOnUse" id="gradient0" r="819.2" spreadMethod="pad">
      <stop offset="0.4" stop-color="#000000" stop-opacity="0.0"/>
      <stop offset="0.9098039215686274" stop-color="#000000" stop-opacity="0.73333335"/>
    </radialGradient>
  </defs>
</svg>
