<?xml version="1.0" encoding="UTF-8" standalone="no"?>
<svg xmlns:ffdec="https://www.free-decompiler.com/flash" xmlns:xlink="http://www.w3.org/1999/xlink" ffdec:objectType="shape" height="45.35px" width="150.7px" xmlns="http://www.w3.org/2000/svg">
  <g transform="matrix(1.0, 0.0, 0.0, 1.0, 75.95, 21.7)">
    <path d="M61.8 -11.1 L62.3 -11.6 61.8 -11.1 M62.8 -11.1 L72.4 -6.3 63.45 0.45 63.8 0.9 69.8 6.9 70.1 7.35 59.5 14.45 59.8 14.9 71.95 22.35 72.3 22.75 71.95 22.35 72.8 22.9 72.3 22.75 -75.2 19.95 -67.2 11.9 -73.2 2.9 -67.2 -1.1 -73.25 -7.75 -62.2 -12.1 -69.15 -19.05 68.8 -18.1 62.3 -11.6 62.8 -11.1 M58.8 14.9 L59.5 14.45 58.8 14.9 M62.8 0.9 L63.45 0.45 62.8 0.9" fill="#3c3c3c" fill-rule="evenodd" stroke="none"/>
    <path d="M62.3 -11.6 L61.8 -11.1 M62.8 -11.1 L72.4 -6.3 63.45 0.45 62.8 0.9 M63.8 0.9 L69.8 6.9 M70.1 7.35 L70.8 6.9 M68.8 -18.1 L62.3 -11.6 M69.8 -18.1 L68.8 -18.1 -69.15 -19.05 -62.2 -12.1 -73.25 -7.75 -67.2 -1.1 -73.2 2.9 -67.2 11.9 -75.2 19.95 72.3 22.75 71.95 22.35 59.8 14.9 M59.5 14.45 L58.8 14.9 M71.95 22.35 L72.8 22.9 72.3 22.75 M70.1 7.35 L59.5 14.45" fill="none" stroke="#3c3c3c" stroke-linecap="round" stroke-linejoin="round" stroke-width="1.5"/>
    <path d="M64.0 -1.0 L64.65 -1.45 64.0 -1.0 M63.0 -13.0 L63.5 -13.5 63.0 -13.0 M64.65 -1.45 L65.0 -1.0 71.0 5.0 71.3 5.45 60.7 12.55 61.0 13.0 74.0 21.0 -74.0 18.05 -66.0 10.0 -72.0 1.0 -66.0 -3.0 -72.0 -9.0 -61.0 -14.0 -67.95 -20.95 70.0 -20.0 63.5 -13.5 64.0 -13.0 73.6 -8.2 64.65 -1.45 M60.0 13.0 L60.7 12.55 60.0 13.0" fill="url(#gradient0)" fill-rule="evenodd" stroke="none"/>
    <path d="M63.5 -13.5 L63.0 -13.0 M64.65 -1.45 L64.0 -1.0 M65.0 -1.0 L71.0 5.0 M71.3 5.45 L72.0 5.0 M64.0 -13.0 L73.6 -8.2 64.65 -1.45 M70.0 -20.0 L63.5 -13.5 M71.0 -20.0 L70.0 -20.0 -67.95 -20.95 -61.0 -14.0 -72.0 -9.0 -66.0 -3.0 -72.0 1.0 -66.0 10.0 -74.0 18.05 74.0 21.0 61.0 13.0 M60.7 12.55 L60.0 13.0 M71.3 5.45 L60.7 12.55" fill="none" stroke="#3c3c3c" stroke-linecap="round" stroke-linejoin="round" stroke-width="1.5"/>
  </g>
  <defs>
    <linearGradient gradientTransform="matrix(0.0903, 0.0, 0.0, 0.0256, 0.0, 0.0)" gradientUnits="userSpaceOnUse" id="gradient0" spreadMethod="pad" x1="-819.2" x2="819.2">
      <stop offset="0.0" stop-color="#e0e0e0"/>
      <stop offset="1.0" stop-color="#e9e9e9"/>
    </linearGradient>
  </defs>
</svg>
