<?xml version="1.0" encoding="UTF-8" standalone="no"?>
<svg xmlns:ffdec="https://www.free-decompiler.com/flash" xmlns:xlink="http://www.w3.org/1999/xlink" ffdec:objectType="shape" height="536.9px" width="377.2px" xmlns="http://www.w3.org/2000/svg">
  <g transform="matrix(1.0, 0.0, 0.0, 1.0, 188.6, 268.45)">
    <path d="M174.8 95.65 Q176.85 100.85 175.8 108.45 175.55 109.95 174.75 110.85 L173.4 112.35 Q165.55 108.45 153.75 87.7 L144.35 70.5 Q138.85 60.4 135.6 55.45 L135.6 55.2 Q149.9 70.95 167.5 85.7 173.0 91.1 174.8 95.65 M136.55 210.2 Q133.85 209.85 131.85 201.7 130.7 196.55 128.55 181.8 123.4 145.95 117.5 130.2 L117.7 129.75 Q127.15 139.8 136.95 164.35 148.15 192.3 145.8 209.15 145.45 211.4 136.55 210.2 M85.05 166.1 Q93.7 197.4 87.85 239.15 87.6 240.85 86.35 242.3 85.35 243.45 84.55 243.7 L77.2 237.05 Q72.6 231.65 70.4 223.2 68.8 217.6 69.9 181.6 71.0 144.0 70.3 139.25 73.3 140.15 77.2 146.85 81.85 154.45 85.05 166.1 M-3.8 256.05 Q-3.65 256.4 -6.05 260.7 L-6.15 261.25 Q-5.65 256.5 -3.9 255.6 L-3.8 256.05 M7.55 257.55 Q4.35 262.35 2.95 263.75 L2.15 264.0 Q2.35 260.15 6.3 256.0 L12.05 250.8 11.9 251.15 7.55 257.55 M159.35 -13.6 Q175.8 -3.8 172.75 17.2 172.65 18.35 171.25 19.35 170.05 20.3 169.6 20.25 163.9 19.4 150.8 0.25 144.05 -9.75 136.05 -22.5 L136.8 -24.5 Q138.75 -22.4 146.2 -19.5 155.4 -15.95 159.35 -13.6 M185.65 -83.9 L183.0 -84.25 Q174.35 -85.5 160.0 -99.65 152.15 -107.45 139.35 -121.3 L145.7 -120.55 Q157.65 -118.85 169.5 -113.0 190.75 -102.55 188.35 -85.85 188.05 -83.9 185.65 -83.9 M122.65 -70.0 L124.7 -62.65 Q128.0 -53.65 135.65 -58.45 136.95 -57.05 137.7 -54.85 138.35 -52.6 132.35 -49.65 130.4 -49.0 127.85 -52.05 125.95 -54.3 125.6 -55.5 L120.35 -72.35 120.35 -74.55 Q121.55 -73.95 122.65 -70.0 M76.35 -14.5 L65.7 -26.2 Q67.2 -24.9 69.15 -24.2 73.0 -23.2 75.05 -22.3 82.75 -18.85 88.35 -2.0 88.9 -0.4 87.85 3.9 L86.4 5.25 Q85.5 5.25 83.05 2.8 L85.15 1.05 Q86.5 -0.8 85.45 -4.05 85.15 -4.95 76.35 -14.5 M79.55 -65.15 Q70.5 -66.45 58.2 -83.65 L48.4 -98.2 Q42.7 -106.75 39.1 -110.85 L39.15 -111.1 Q58.4 -106.35 71.25 -99.2 92.95 -87.25 90.65 -71.25 90.15 -67.5 84.9 -66.0 81.4 -64.9 79.55 -65.15 M74.9 -2.45 Q72.95 -3.7 71.8 -6.95 77.85 -0.8 78.35 0.8 77.3 -0.9 74.9 -2.45 M91.25 -146.6 Q88.9 -146.65 86.6 -147.35 77.15 -148.65 69.75 -160.55 L63.15 -172.15 Q58.8 -179.8 54.8 -184.85 72.35 -176.75 80.1 -171.8 97.9 -160.25 96.55 -150.4 96.0 -146.65 91.25 -146.6 M30.9 -242.35 Q21.85 -242.1 -1.1 -268.45 5.95 -268.05 13.8 -265.05 29.5 -259.2 33.55 -246.8 L32.55 -244.7 Q31.55 -242.85 30.9 -242.35 M-9.9 -184.9 Q-14.25 -183.5 -24.8 -189.8 -35.4 -196.15 -42.1 -204.3 -43.45 -204.15 -40.95 -205.0 -8.55 -201.55 -5.15 -191.15 -3.85 -187.6 -6.6 -185.9 -8.1 -185.1 -9.9 -184.9 M12.95 -147.4 Q19.7 -144.85 22.45 -143.4 27.1 -141.05 28.6 -136.0 L20.55 -141.55 Q15.6 -145.0 12.95 -147.4 M-66.4 -149.35 Q-75.1 -155.3 -76.2 -164.35 -74.65 -163.1 -70.85 -161.25 -66.3 -159.2 -64.0 -157.9 -55.35 -153.45 -53.75 -148.6 -53.25 -146.95 -54.05 -146.3 L-56.75 -145.25 Q-57.45 -145.05 -60.25 -146.05 -63.45 -147.25 -66.4 -149.35 M-23.5 -107.85 Q-16.35 -105.85 -13.05 -103.4 0.05 -93.9 2.75 -87.55 5.4 -81.0 1.9 -67.05 L1.45 -66.65 Q0.5 -59.9 -33.95 -111.15 L-23.5 -107.85 M22.75 -71.05 Q23.6 -67.3 23.45 -63.85 L22.5 -62.95 Q22.05 -64.3 22.2 -67.7 L22.4 -71.45 22.75 -71.05 M-28.55 -53.65 Q-27.35 -52.35 -28.15 -52.1 -29.4 -51.8 -29.5 -51.25 -29.75 -48.4 -13.9 -32.15 -12.55 -30.75 -16.1 -26.5 -17.05 -23.85 -19.3 -20.6 -20.55 -18.15 -18.1 -15.55 L-17.7 -14.75 Q-25.45 -18.45 -25.7 -18.75 -25.95 -19.0 -28.25 -32.85 -30.65 -47.25 -33.65 -52.1 -34.15 -52.25 -32.25 -54.05 -31.05 -55.15 -30.6 -55.05 -29.9 -54.45 -29.05 -54.2 L-28.55 -53.65 M-12.7 -14.75 Q-12.5 -15.3 -11.1 -16.65 L-9.55 -17.95 -9.2 -17.6 -12.3 -14.75 -12.7 -14.75 M-49.6 -12.2 L-49.5 -13.05 Q-36.8 -4.4 -28.8 5.7 -15.2 22.9 -17.8 41.2 -18.1 43.4 -18.4 43.7 -18.8 44.25 -20.6 44.05 -28.35 42.9 -37.9 18.25 L-44.55 -0.3 Q-47.95 -9.8 -49.6 -12.2 M-68.9 -54.15 Q-72.55 -60.55 -71.1 -64.3 -68.25 -68.45 -66.6 -72.0 L-65.95 -71.3 Q-65.3 -70.6 -65.6 -64.45 -65.9 -57.35 -68.75 -54.7 L-68.9 -54.15 M-103.15 -6.2 Q-108.1 -21.3 -108.75 -24.55 -109.05 -26.1 -108.85 -26.6 L-108.1 -27.3 Q-105.4 -30.3 -113.7 -69.0 -108.35 -65.8 -106.0 -62.85 -103.9 -60.2 -103.05 -56.25 -101.85 -44.8 -98.35 -34.2 -96.65 -27.75 -96.8 -15.8 -96.85 -3.6 -99.0 -2.85 -99.6 -2.65 -100.8 -3.35 -102.5 -4.3 -103.15 -6.2 M-113.1 -122.6 L-116.9 -128.2 Q-119.85 -133.15 -122.05 -140.15 -120.4 -137.25 -118.55 -135.15 L-115.85 -132.05 Q-112.85 -128.1 -108.8 -115.95 -106.85 -110.15 -109.1 -108.15 -110.25 -107.1 -111.95 -107.15 -114.65 -106.3 -115.45 -106.4 -117.85 -106.75 -120.15 -110.3 -117.75 -111.75 -116.7 -113.1 -113.1 -117.4 -112.5 -119.1 -111.85 -120.75 -113.1 -122.6 M73.15 95.05 L74.3 91.65 Q75.5 85.2 72.3 71.25 L72.15 69.1 Q72.35 69.25 75.75 78.05 L79.8 88.8 Q81.0 92.45 77.8 98.75 76.95 98.15 75.2 98.3 73.6 98.3 72.7 97.45 72.55 96.45 73.15 95.05 M29.45 108.75 Q29.9 104.0 29.95 94.45 30.05 84.75 30.55 78.7 L36.4 97.35 Q37.6 101.1 29.45 108.75 M52.15 40.5 Q44.35 39.4 29.8 19.1 L18.85 3.0 Q12.85 -5.8 10.0 -8.85 L9.85 -9.1 11.4 -8.9 Q61.4 16.6 59.15 33.05 58.85 34.8 55.6 37.85 52.7 40.55 52.15 40.5 M-18.15 101.8 Q-9.7 111.55 -2.05 126.7 13.25 157.0 9.45 183.9 9.15 186.0 4.0 186.25 -3.35 185.25 -6.65 178.0 -9.35 172.35 -10.65 159.4 -11.9 142.85 -13.05 133.15 -15.1 115.8 -19.25 102.0 -20.75 101.4 -18.15 101.8 M-62.2 110.55 Q-71.6 109.2 -67.8 71.0 L-67.3 67.4 Q-65.75 71.4 -62.65 76.35 L-57.7 84.15 Q-52.65 93.9 -54.6 107.7 -55.0 110.7 -62.2 110.55 M-93.15 130.0 Q-92.2 135.55 -90.5 140.35 -87.4 148.75 -87.6 151.55 -87.8 154.25 -90.3 167.45 -90.85 171.25 -96.65 173.2 -99.75 174.3 -104.9 175.2 -103.75 167.5 -101.1 154.1 -97.8 137.55 -94.95 120.95 -94.25 123.3 -93.15 130.0 M-6.4 262.2 Q-3.55 265.5 -1.2 266.2 L-1.5 266.3 Q-2.8 266.75 -4.1 268.3 L-4.6 268.45 -6.4 263.0 -6.4 262.2 M-45.85 -253.25 Q-47.2 -251.95 -47.3 -251.0 L-46.0 -248.65 -52.65 -256.2 -45.65 -255.35 -45.85 -255.2 Q-44.85 -254.15 -45.85 -253.25 M-71.45 -245.4 L-73.45 -245.35 Q-75.35 -244.75 -81.75 -249.15 -88.8 -254.1 -92.8 -254.25 -97.35 -254.4 -102.55 -256.3 -109.45 -258.8 -113.25 -263.2 -112.85 -263.65 -111.75 -264.0 -108.8 -264.95 -103.7 -264.95 -97.6 -265.0 -91.95 -263.55 -76.45 -259.55 -71.6 -246.75 L-71.85 -246.7 -71.45 -245.4 M-20.75 -228.8 Q-17.0 -230.7 -15.8 -234.95 -14.25 -234.05 -11.9 -231.55 -11.55 -231.2 -13.45 -226.3 -12.65 -225.4 -14.95 -225.75 -17.45 -226.1 -20.75 -228.8 M-25.85 -243.8 Q-29.65 -247.5 -35.15 -251.2 L-34.5 -251.25 -34.2 -251.85 Q-33.25 -251.9 -25.85 -243.8 M-31.95 -239.15 Q-24.0 -232.2 -22.3 -229.85 -24.5 -230.5 -31.95 -239.15 M-81.6 -183.7 Q-82.95 -183.45 -85.35 -182.1 -87.65 -181.35 -90.3 -184.2 L-99.05 -193.95 Q-94.95 -194.4 -92.3 -193.2 -88.15 -191.15 -81.6 -183.7 M-152.55 -185.3 L-167.0 -199.15 -172.55 -205.1 Q-158.4 -199.25 -149.1 -188.55 L-152.55 -185.3 M-128.6 -131.8 Q-123.85 -117.8 -124.3 -116.85 L-134.55 -147.85 Q-133.2 -145.3 -128.6 -131.8 M-150.2 -147.5 L-177.15 -176.35 Q-154.5 -165.6 -150.2 -147.5 M-184.1 -179.45 Q-185.5 -178.9 -186.1 -178.35 L-188.6 -181.05 Q-184.55 -179.95 -184.1 -179.45" fill="#ff3333" fill-rule="evenodd" stroke="none"/>
  </g>
</svg>
