<?xml version="1.0" encoding="UTF-8" standalone="no"?>
<svg xmlns:ffdec="https://www.free-decompiler.com/flash" xmlns:xlink="http://www.w3.org/1999/xlink" ffdec:objectType="shape" height="207.55px" width="268.3px" xmlns="http://www.w3.org/2000/svg">
  <g transform="matrix(1.0, 0.0, 0.0, 1.0, 134.15, 103.75)">
    <path d="M-27.2 -85.5 Q-15.2 -84.9 -11.8 -83.75 -8.45 -82.6 -6.0 -79.3 -3.6 -75.95 -3.0 -71.85 -2.4 -67.8 -2.4 -55.85 L-2.4 -26.4 Q-2.4 -15.05 -3.25 -11.2 -4.15 -7.45 -6.35 -5.25 -8.6 -3.1 -11.85 -2.25 -15.1 -1.4 -21.65 -1.4 L-44.7 -1.4 -44.7 -86.25 -27.2 -85.5 M-20.95 -68.0 Q-21.25 -69.6 -22.35 -70.35 -23.45 -71.15 -26.45 -71.15 L-26.45 -15.8 Q-22.5 -15.8 -21.55 -17.65 -20.65 -19.6 -20.65 -28.0 L-20.65 -60.7 Q-20.65 -66.4 -20.95 -68.0 M-74.05 -90.6 Q-70.15 -62.6 -69.65 -53.85 -68.1 -67.65 -64.55 -89.05 L-47.75 -87.15 -61.1 -32.75 -61.1 -1.45 -78.0 -1.45 -78.0 -32.75 -91.25 -94.45 -74.05 -90.6 M-94.5 -73.15 L-94.5 -69.45 -111.0 -69.45 -111.0 -76.45 Q-111.0 -81.35 -111.65 -82.7 -112.25 -84.0 -113.75 -84.0 -115.35 -84.0 -116.15 -82.2 -117.0 -80.4 -117.0 -76.75 -117.0 -72.0 -116.05 -69.6 -115.2 -67.2 -111.05 -63.85 -99.2 -54.1 -96.1 -47.85 -93.0 -41.6 -93.0 -27.7 -93.0 -17.6 -94.7 -12.85 -96.45 -8.05 -101.35 -4.8 -106.25 -1.55 -112.75 -1.55 -119.85 -1.55 -124.9 -5.3 -129.95 -9.05 -131.5 -14.8 -133.1 -20.6 -133.1 -31.2 L-133.1 -37.4 -116.55 -37.4 -116.55 -25.9 Q-116.55 -20.6 -115.85 -19.05 -115.2 -17.55 -113.4 -17.55 -111.65 -17.55 -110.75 -19.5 -109.9 -21.4 -109.9 -25.2 -109.9 -33.55 -111.55 -36.1 -113.25 -38.7 -119.85 -44.7 -126.5 -50.75 -128.65 -53.5 -130.8 -56.25 -132.2 -61.1 -133.65 -65.95 -133.65 -73.45 -133.65 -84.3 -131.6 -89.35 -129.6 -94.35 -125.15 -97.15 -120.65 -100.0 -114.35 -100.0 -107.4 -100.0 -102.5 -96.9 -97.65 -93.85 -96.05 -89.1 -94.5 -84.45 -94.5 -73.15 M45.25 -87.45 L45.25 -1.95 29.25 -1.95 19.75 -39.8 19.75 -1.95 4.45 -1.95 4.45 -84.4 19.75 -85.15 29.95 -47.7 29.95 -85.9 45.25 -87.45 M130.4 -103.75 L115.15 -35.1 115.15 -1.6 98.25 -1.6 98.25 -35.1 85.4 -94.15 99.85 -96.5 Q106.1 -67.05 106.6 -60.0 108.15 -72.5 113.65 -99.55 L130.4 -103.75 M70.9 -72.4 L70.9 -55.65 82.35 -56.8 82.35 -40.0 70.9 -38.85 70.9 -19.4 84.35 -19.4 84.35 -1.75 52.65 -1.75 52.65 -88.15 83.1 -92.75 83.1 -75.1 70.9 -72.4 M129.55 7.85 L116.15 48.7 134.15 103.8 112.4 98.05 100.95 57.05 100.95 95.3 80.3 91.45 80.3 7.85 100.95 7.85 100.95 42.55 110.2 7.85 129.55 7.85 M70.05 42.0 Q67.75 45.2 61.0 45.8 67.1 47.35 69.2 49.9 71.35 52.45 71.85 54.6 72.35 56.7 72.35 66.3 L72.35 89.9 53.2 87.65 53.2 60.85 Q53.2 54.5 52.2 52.95 51.2 51.45 46.9 51.45 L46.9 86.85 26.25 84.95 26.25 7.85 40.9 7.85 Q55.5 7.85 60.7 9.0 65.85 10.1 69.15 14.75 72.35 19.4 72.35 29.55 72.35 38.8 70.05 42.0 M53.2 31.95 L53.2 27.55 Q53.2 23.8 51.85 22.6 50.5 21.45 46.9 21.45 L46.9 39.1 Q50.4 39.1 51.8 38.15 53.2 37.2 53.2 31.95 M0.05 58.9 Q-1.55 45.4 -3.1 25.55 -6.3 48.35 -7.1 58.9 L0.05 58.9 M1.65 84.55 L0.55 73.0 -6.85 73.0 -8.05 84.55 -29.05 85.3 -18.9 7.85 10.95 7.85 22.45 84.95 1.65 84.55 M-33.0 7.85 L-33.0 85.35 -53.65 87.25 -53.65 53.9 -59.85 53.9 -59.85 88.4 -80.5 90.7 -80.5 7.85 -59.85 7.85 -59.85 36.25 -53.65 36.25 -53.65 7.85 -33.0 7.85 M-88.7 31.6 L-88.7 35.05 -107.85 35.05 -107.85 28.55 Q-107.85 24.0 -108.6 22.7 -109.35 21.5 -111.05 21.5 -112.9 21.5 -113.85 23.15 -114.85 24.8 -114.85 28.25 -114.85 32.65 -113.75 34.9 -112.7 37.1 -107.9 40.25 -94.15 49.35 -90.55 55.15 -86.95 60.95 -86.95 73.85 -86.95 83.3 -88.95 87.75 -90.95 92.15 -96.65 95.2 -102.3 98.2 -109.85 98.2 -118.15 98.2 -124.0 94.75 -129.9 91.25 -131.7 85.9 -133.5 80.55 -133.5 70.65 L-133.5 64.85 -114.35 64.85 -114.35 75.55 Q-114.35 80.5 -113.5 81.9 -112.7 83.35 -110.65 83.35 -108.6 83.35 -107.55 81.5 -106.6 79.7 -106.6 76.2 -106.6 68.45 -108.5 66.1 -110.45 63.7 -118.15 58.1 -125.85 52.45 -128.35 49.85 -130.85 47.3 -132.5 42.8 -134.15 38.3 -134.15 31.3 -134.15 21.2 -131.8 16.5 -129.5 11.85 -124.3 9.25 -119.1 6.6 -111.75 6.6 -103.7 6.6 -98.0 9.45 -92.35 12.35 -90.5 16.75 -88.7 21.1 -88.7 31.6" fill="#ffffff" fill-rule="evenodd" stroke="none"/>
  </g>
</svg>
