<?xml version="1.0" encoding="UTF-8" standalone="no"?>
<svg xmlns:ffdec="https://www.free-decompiler.com/flash" xmlns:xlink="http://www.w3.org/1999/xlink" ffdec:objectType="shape" height="207.55px" width="268.3px" xmlns="http://www.w3.org/2000/svg">
  <g transform="matrix(1.0, 0.0, 0.0, 1.0, 37.9, 97.9)">
    <path d="M69.8 -65.3 L69.8 -9.95 Q73.75 -9.95 74.7 -11.8 75.6 -13.75 75.6 -22.15 L75.6 -54.85 Q75.6 -60.55 75.3 -62.15 75.0 -63.75 73.9 -64.5 72.8 -65.3 69.8 -65.3 M69.05 -79.65 Q81.05 -79.05 84.45 -77.9 87.8 -76.75 90.25 -73.45 92.65 -70.1 93.25 -66.0 93.85 -61.95 93.85 -50.0 L93.85 -20.55 Q93.85 -9.2 93.0 -5.35 92.1 -1.6 89.9 0.6 87.65 2.75 84.4 3.6 L74.6 4.45 51.55 4.45 51.55 -80.4 69.05 -79.65 M1.75 -63.6 L-14.75 -63.6 -14.75 -70.6 Q-14.75 -75.5 -15.4 -76.85 -16.0 -78.15 -17.5 -78.15 -19.1 -78.15 -19.9 -76.35 -20.75 -74.55 -20.75 -70.9 -20.75 -66.15 -19.8 -63.75 -18.95 -61.35 -14.8 -58.0 -2.95 -48.25 0.15 -42.0 3.25 -35.75 3.25 -21.85 3.25 -11.75 1.55 -7.0 -0.2 -2.2 -5.1 1.05 -10.0 4.3 -16.5 4.3 -23.6 4.3 -28.65 0.55 -33.7 -3.2 -35.25 -8.95 -36.85 -14.75 -36.85 -25.35 L-36.85 -31.55 -20.3 -31.55 -20.3 -20.05 Q-20.3 -14.75 -19.6 -13.2 -18.95 -11.7 -17.15 -11.7 -15.4 -11.7 -14.5 -13.65 -13.65 -15.55 -13.65 -19.35 -13.65 -27.7 -15.3 -30.25 -17.0 -32.85 -23.6 -38.85 -30.25 -44.9 -32.4 -47.65 -34.55 -50.4 -35.95 -55.25 -37.4 -60.1 -37.4 -67.6 -37.4 -78.45 -35.35 -83.5 -33.35 -88.5 -28.9 -91.3 -24.4 -94.15 -18.1 -94.15 -11.15 -94.15 -6.25 -91.05 -1.4 -88.0 0.2 -83.25 1.75 -78.6 1.75 -67.3 L1.75 -63.6 M22.2 -84.75 Q26.1 -56.75 26.6 -48.0 28.15 -61.8 31.7 -83.2 L48.5 -81.3 35.15 -26.9 35.15 4.4 18.25 4.4 18.25 -26.9 5.0 -88.6 22.2 -84.75 M141.5 -81.6 L141.5 3.9 125.5 3.9 116.0 -33.95 116.0 3.9 100.7 3.9 100.7 -78.55 116.0 -79.3 126.2 -41.85 126.2 -80.05 141.5 -81.6 M209.9 -93.7 L226.65 -97.9 211.4 -29.25 211.4 4.25 194.5 4.25 194.5 -29.25 181.65 -88.3 196.1 -90.65 Q202.35 -61.2 202.85 -54.15 204.4 -66.65 209.9 -93.7 M179.35 -69.25 L167.15 -66.55 167.15 -49.8 178.6 -50.95 178.6 -34.15 167.15 -33.0 167.15 -13.55 180.6 -13.55 180.6 4.1 148.9 4.1 148.9 -82.3 179.35 -86.9 179.35 -69.25 M225.8 13.7 L212.4 54.55 230.4 109.65 208.65 103.9 197.2 62.9 197.2 101.15 176.55 97.3 176.55 13.7 197.2 13.7 197.2 48.4 206.45 13.7 225.8 13.7 M168.6 35.4 Q168.6 44.65 166.3 47.85 164.0 51.05 157.25 51.65 163.35 53.2 165.45 55.75 167.6 58.3 168.1 60.45 168.6 62.55 168.6 72.15 L168.6 95.75 149.45 93.5 149.45 66.7 Q149.45 60.35 148.45 58.8 147.45 57.3 143.15 57.3 L143.15 92.7 122.5 90.8 122.5 13.7 137.15 13.7 Q151.75 13.7 156.95 14.85 162.1 15.95 165.4 20.6 168.6 25.25 168.6 35.4 M143.15 44.95 Q146.65 44.95 148.05 44.0 149.45 43.05 149.45 37.8 L149.45 33.4 Q149.45 29.65 148.1 28.45 146.75 27.3 143.15 27.3 L143.15 44.95 M88.2 90.4 L67.2 91.15 77.35 13.7 107.2 13.7 118.7 90.8 97.9 90.4 96.8 78.85 89.4 78.85 88.2 90.4 M96.3 64.75 Q94.7 51.25 93.15 31.4 89.95 54.2 89.15 64.75 L96.3 64.75 M42.6 13.7 L63.25 13.7 63.25 91.2 42.6 93.1 42.6 59.75 36.4 59.75 36.4 94.25 15.75 96.55 15.75 13.7 36.4 13.7 36.4 42.1 42.6 42.1 42.6 13.7 M7.55 40.9 L-11.6 40.9 -11.6 34.4 Q-11.6 29.85 -12.35 28.55 -13.1 27.35 -14.8 27.35 -16.65 27.35 -17.6 29.0 -18.6 30.65 -18.6 34.1 -18.6 38.5 -17.5 40.75 -16.45 42.95 -11.65 46.1 2.1 55.2 5.7 61.0 9.3 66.8 9.3 79.7 9.3 89.15 7.3 93.6 5.3 98.0 -0.4 101.05 -6.05 104.05 -13.6 104.05 -21.9 104.05 -27.75 100.6 -33.65 97.1 -35.45 91.75 -37.25 86.4 -37.25 76.5 L-37.25 70.7 -18.1 70.7 -18.1 81.4 Q-18.1 86.35 -17.25 87.75 -16.45 89.2 -14.4 89.2 -12.35 89.2 -11.3 87.35 -10.35 85.55 -10.35 82.05 -10.35 74.3 -12.25 71.95 -14.2 69.55 -21.9 63.95 -29.6 58.3 -32.1 55.7 -34.6 53.15 -36.25 48.65 -37.9 44.15 -37.9 37.15 -37.9 27.05 -35.55 22.35 -33.25 17.7 -28.05 15.1 -22.85 12.45 -15.5 12.45 -7.45 12.45 -1.75 15.3 3.9 18.2 5.75 22.6 7.55 26.95 7.55 37.45 L7.55 40.9" fill="url(#gradient0)" fill-rule="evenodd" stroke="none"/>
  </g>
  <defs>
    <linearGradient color-interpolation="linearRGB" gradientTransform="matrix(0.0, -0.1267, 0.1638, 0.0, 96.25, 5.9)" gradientUnits="userSpaceOnUse" id="gradient0" spreadMethod="pad" x1="-819.2" x2="819.2">
      <stop offset="0.0" stop-color="#cb3e1b"/>
      <stop offset="0.20784313725490197" stop-color="#e55936"/>
      <stop offset="0.47843137254901963" stop-color="#f7c7bb"/>
      <stop offset="0.5529411764705883" stop-color="#f7c7bb"/>
      <stop offset="0.7843137254901961" stop-color="#e55936"/>
      <stop offset="0.9921568627450981" stop-color="#cb3e1b"/>
    </linearGradient>
  </defs>
</svg>
