<?xml version="1.0" encoding="UTF-8" standalone="no"?>
<svg xmlns:ffdec="https://www.free-decompiler.com/flash" xmlns:xlink="http://www.w3.org/1999/xlink" ffdec:objectType="shape" height="194.0px" width="404.0px" xmlns="http://www.w3.org/2000/svg">
  <g transform="matrix(1.0, 0.0, 0.0, 1.0, 201.5, 97.0)">
    <path d="M135.5 -82.0 L147.5 -82.0 147.5 -77.0 147.5 -72.0 148.5 -72.0 181.5 -72.0 193.5 -72.0 193.5 -65.0 193.5 -32.0 M193.5 70.0 L193.5 76.0 148.5 76.0 147.5 76.0 135.5 76.0 122.5 76.0 -181.5 76.0 -189.5 76.0 -192.5 76.0 M-196.5 64.0 L-201.5 64.0 -201.5 28.0 M-201.5 -32.0 L-201.5 -45.0 -196.5 -45.0 -194.5 -45.0 -192.5 -45.0 -189.5 -45.0 -183.5 -45.0 -182.5 -45.0 -181.5 -45.0 -179.5 -45.0 103.5 -45.0 122.5 -45.0 134.5 -45.0 135.5 -45.0 147.5 -45.0 148.5 -45.0 161.5 -45.0 165.5 -45.0 165.5 -32.0 M-192.5 -72.0 L-189.5 -72.0 -189.5 -82.0 -181.5 -82.0 M122.5 -82.0 L135.5 -82.0 M122.5 -72.0 L135.5 -72.0 147.5 -72.0 147.5 -65.0 147.5 -59.0 147.5 -45.0 147.5 -32.0 M193.5 28.0 L193.5 70.0 M-192.5 64.0 L-196.5 64.0 M-196.5 41.0 L-200.5 41.0 -200.5 28.0 M165.5 60.0 L165.5 64.0 148.5 64.0 147.5 64.0 147.5 70.0 147.5 76.0 M122.5 -52.0 L134.5 -52.0 134.5 -45.0 134.5 -38.0 135.5 -38.0 146.5 -38.0 146.5 -32.0 M165.5 29.0 L165.5 60.0 M122.5 -52.0 L-179.5 -52.0 -181.5 -52.0 -182.5 -52.0 -183.5 -52.0 M-179.5 -38.0 L103.5 -38.0 122.5 -38.0 134.5 -38.0 134.5 -32.0 M147.5 28.0 L147.5 29.0 147.5 56.0 147.5 60.0 147.5 64.0 135.5 64.0 122.5 64.0 -181.5 64.0 -183.5 64.0 -189.5 64.0 -189.5 76.0 M146.5 29.0 L146.5 28.0 M134.5 29.0 L134.5 28.0 M135.5 41.0 L146.5 41.0 146.5 29.0 M122.5 41.0 L134.5 41.0 134.5 29.0 M122.5 48.0 L134.5 48.0 134.5 41.0 135.5 41.0 M-189.5 46.0 L-189.5 64.0 -192.5 64.0 M-194.5 41.0 L-196.5 41.0 M-179.5 48.0 L122.5 48.0 M-182.5 48.0 L-183.5 48.0 M103.5 41.0 L122.5 41.0 M-179.5 48.0 L-181.5 48.0 -182.5 48.0 M-181.5 -72.0 L-189.5 -72.0 -189.5 -49.0 -189.5 -45.0 -189.5 -38.0 -192.5 -38.0 -194.5 -38.0 -196.5 -38.0 -200.5 -38.0 -200.5 -32.0 M-179.5 -72.0 L-181.5 -72.0 M-181.5 -38.0 L-179.5 -38.0 M-181.5 -38.0 L-182.5 -38.0 -183.5 -38.0 -189.5 -38.0 -189.5 -32.0 M-181.5 41.0 L-179.5 41.0 103.5 41.0 M-182.5 41.0 L-181.5 41.0 M-183.5 41.0 L-182.5 41.0 M-183.5 41.0 L-189.5 41.0 -189.5 46.0 M-192.5 41.0 L-194.5 41.0 M-189.5 28.0 L-189.5 41.0 -192.5 41.0 M122.5 -80.0 L-181.5 -80.0" fill="none" stroke="#a33a21" stroke-linecap="round" stroke-linejoin="round" stroke-width="0.05"/>
    <path d="M148.5 -95.0 L148.5 -97.0 M147.5 -77.0 L148.5 -77.0 148.5 -95.0 M-192.5 -95.0 L-192.5 -85.0 -181.5 -85.0 -181.5 -88.0 -181.5 -90.0 M148.5 -72.0 L148.5 -77.0 181.5 -77.0 181.5 -72.0 181.5 -65.0 181.5 -32.0 M148.5 76.0 L148.5 91.0 135.5 91.0 135.5 97.0 -196.5 97.0 -196.5 64.0 -196.5 41.0 -196.5 28.0 M-196.5 -45.0 L-196.5 -85.0 -192.5 -85.0 -192.5 -72.0 -192.5 -49.0 -192.5 -45.0 -192.5 -38.0 -192.5 -32.0 M-181.5 -82.0 L-181.5 -85.0 M122.5 -90.0 L122.5 -88.0 122.5 -85.0 135.5 -85.0 135.5 -82.0 135.5 -77.0 147.5 -77.0 M122.5 -85.0 L122.5 -82.0 122.5 -80.0 122.5 -77.0 122.5 -75.0 122.5 -72.0 122.5 -70.0 122.5 -65.0 122.5 -63.0 122.5 -59.0 122.5 -57.0 122.5 -52.0 122.5 -45.0 122.5 -38.0 122.5 -32.0 M135.5 -72.0 L135.5 -77.0 122.5 -77.0 M148.5 -65.0 L148.5 -72.0 M148.5 70.0 L148.5 76.0 M135.5 76.0 L135.5 91.0 -192.5 91.0 -192.5 76.0 -192.5 64.0 -192.5 46.0 -194.5 46.0 -194.5 41.0 -194.5 28.0 M135.5 -72.0 L135.5 -65.0 135.5 -59.0 135.5 -45.0 135.5 -38.0 135.5 -32.0 M148.5 -59.0 L148.5 -65.0 M181.5 28.0 L181.5 60.0 165.5 60.0 148.5 60.0 148.5 64.0 148.5 70.0 M-179.5 -70.0 L-179.5 -65.0 -179.5 -63.0 -179.5 -59.0 -179.5 -57.0 -179.5 -52.0 -179.5 -49.0 -181.5 -49.0 -181.5 -45.0 -181.5 -38.0 -181.5 -32.0 M148.5 -45.0 L148.5 -59.0 M165.5 28.0 L165.5 29.0 161.5 29.0 148.5 29.0 148.5 28.0 M135.5 70.0 L135.5 76.0 M122.5 76.0 L122.5 83.0 -181.5 83.0 -181.5 76.0 -181.5 70.0 -181.5 64.0 -181.5 56.0 -181.5 48.0 -181.5 46.0 -179.5 46.0 -179.5 41.0 -179.5 29.0 103.5 29.0 103.5 28.0 M103.5 -45.0 L103.5 -49.0 -179.5 -49.0 -179.5 -45.0 -179.5 -38.0 -179.5 -32.0 M103.5 -38.0 L103.5 -45.0 M103.5 -38.0 L103.5 -32.0 M-179.5 28.0 L-179.5 29.0 M148.5 -32.0 L148.5 -45.0 M147.5 29.0 L148.5 29.0 148.5 56.0 148.5 60.0 147.5 60.0 135.5 60.0 135.5 64.0 135.5 70.0 M135.5 28.0 L135.5 29.0 146.5 29.0 147.5 29.0 M122.5 28.0 L122.5 29.0 134.5 29.0 135.5 29.0 135.5 41.0 135.5 56.0 135.5 60.0 122.5 60.0 122.5 64.0 122.5 70.0 122.5 76.0 M122.5 35.0 L122.5 29.0 103.5 29.0 103.5 35.0 103.5 41.0 103.5 46.0 -179.5 46.0 -179.5 48.0 -179.5 56.0 -179.5 60.0 122.5 60.0 122.5 56.0 122.5 48.0 122.5 41.0 122.5 35.0 M-183.5 46.0 L-189.5 46.0 -192.5 46.0 -192.5 41.0 -192.5 28.0 M-181.5 -72.0 L-181.5 -80.0 -181.5 -82.0 M-179.5 -72.0 L-179.5 -75.0 -179.5 -77.0 M-192.5 -97.0 L-192.5 -95.0 M-181.5 -59.0 L-181.5 -65.0 -181.5 -72.0 M-181.5 -52.0 L-181.5 -59.0 M-189.5 -49.0 L-183.5 -49.0 -182.5 -49.0 -181.5 -49.0 -181.5 -52.0 M-179.5 -72.0 L-179.5 -70.0 M-181.5 28.0 L-181.5 41.0 -181.5 46.0 -182.5 46.0 -183.5 46.0 M-196.5 -38.0 L-196.5 -45.0 M-194.5 -45.0 L-194.5 -49.0 -192.5 -49.0 -189.5 -49.0 M-194.5 -45.0 L-194.5 -38.0 -194.5 -32.0 M-196.5 -32.0 L-196.5 -38.0" fill="none" stroke="#f1cac0" stroke-linecap="round" stroke-linejoin="round" stroke-width="0.05"/>
    <path d="M193.5 -65.0 L201.5 -65.0 201.5 -32.0 M201.5 28.0 L201.5 70.0 193.5 70.0 148.5 70.0 147.5 70.0 135.5 70.0 122.5 70.0 -181.5 70.0 -183.5 70.0 -183.5 64.0 -183.5 48.0 -183.5 46.0 -183.5 41.0 -183.5 28.0 M147.5 -65.0 L148.5 -65.0 181.5 -65.0 193.5 -65.0 M135.5 -65.0 L147.5 -65.0 M147.5 -59.0 L148.5 -59.0 161.5 -59.0 161.5 -45.0 161.5 -32.0 M122.5 -59.0 L135.5 -59.0 147.5 -59.0 M135.5 -65.0 L122.5 -65.0 M161.5 28.0 L161.5 29.0 161.5 56.0 148.5 56.0 147.5 56.0 135.5 56.0 122.5 56.0 -179.5 56.0 -181.5 56.0 -182.5 56.0 -182.5 48.0 -182.5 46.0 -182.5 41.0 -182.5 28.0 M-182.5 -52.0 L-182.5 -59.0 -181.5 -59.0 -179.5 -59.0 M-181.5 -65.0 L-183.5 -65.0 -183.5 -52.0 -183.5 -49.0 -183.5 -45.0 -183.5 -38.0 -183.5 -32.0 M-179.5 -65.0 L-181.5 -65.0 M-182.5 -49.0 L-182.5 -45.0 -182.5 -38.0 -182.5 -32.0 M-182.5 -49.0 L-182.5 -52.0" fill="none" stroke="#a33a21" stroke-linecap="round" stroke-linejoin="round" stroke-width="2.0"/>
    <path d="M103.5 35.0 L122.5 35.0 M103.5 35.0 L-173.5 35.0" fill="none" stroke="#a33a21" stroke-linecap="round" stroke-linejoin="round" stroke-width="0.05"/>
    <path d="M-201.5 24.0 L-201.5 -23.0 -200.5 -23.0 -196.5 -23.0 -196.5 -32.0 M-200.5 24.0 L-201.5 24.0 M181.5 -32.0 L181.5 28.0 M165.5 -30.0 L165.5 28.0 M103.5 -11.0 L122.5 -11.0 122.5 -23.0 103.5 -23.0 103.5 -11.0 103.5 17.0 122.5 17.0 122.5 -11.0 131.5 -11.0 131.5 -23.0 122.5 -23.0 122.5 -30.0 103.5 -30.0 103.5 -23.0 -179.5 -23.0 -179.5 24.0 103.5 24.0 103.5 17.0 -165.5 17.0 -165.5 -11.0 103.5 -11.0 M103.5 -32.0 L103.5 -30.0 -179.5 -30.0 -179.5 -23.0 -181.5 -23.0 -181.5 24.0 -179.5 24.0 -179.5 28.0 M103.5 28.0 L103.5 24.0 122.5 24.0 122.5 17.0 131.5 17.0 131.5 -11.0 134.5 -11.0 135.5 -11.0 135.5 -30.0 134.5 -30.0 122.5 -30.0 122.5 -32.0 M147.5 -30.0 L148.5 -30.0 148.5 -32.0 M161.5 -30.0 L165.5 -30.0 M148.5 28.0 L148.5 -30.0 161.5 -30.0 M135.5 -32.0 L135.5 -30.0 146.5 -30.0 147.5 -30.0 M135.5 -11.0 L136.5 -11.0 136.5 17.0 135.5 17.0 135.5 28.0 M134.5 17.0 L131.5 17.0 131.5 24.0 122.5 24.0 122.5 28.0 M135.5 17.0 L134.5 17.0 M-196.5 28.0 L-196.5 24.0 -200.5 24.0 M135.5 17.0 L135.5 -11.0 M-179.5 -32.0 L-179.5 -30.0 M-182.5 -23.0 L-181.5 -23.0 -181.5 -32.0 M-183.5 -23.0 L-182.5 -23.0 M-182.5 24.0 L-181.5 24.0 -181.5 28.0 M-189.5 -23.0 L-183.5 -23.0 M-183.5 24.0 L-182.5 24.0 M-192.5 -32.0 L-192.5 -23.0 -189.5 -23.0 M-189.5 24.0 L-183.5 24.0 M-194.5 28.0 L-194.5 24.0 -196.5 24.0 -196.5 -23.0 -194.5 -23.0 -192.5 -23.0 -192.5 24.0 -189.5 24.0 M-194.5 -32.0 L-194.5 -23.0 -194.5 24.0 -192.5 24.0 -192.5 28.0" fill="none" stroke="#ffffff" stroke-linecap="round" stroke-linejoin="round" stroke-width="0.05"/>
    <path d="M-201.5 28.0 L-201.5 24.0 M-201.5 -23.0 L-201.5 -32.0 M193.5 -32.0 L193.5 28.0 M-200.5 28.0 L-200.5 24.0 -200.5 -23.0 -200.5 -32.0 M165.5 -32.0 L165.5 -30.0 M134.5 -11.0 L134.5 -30.0 134.5 -32.0 M147.5 -32.0 L147.5 -30.0 147.5 28.0 M146.5 -30.0 L146.5 -32.0 M146.5 28.0 L146.5 -30.0 M134.5 28.0 L134.5 17.0 134.5 -11.0 M-189.5 -32.0 L-189.5 -23.0 -189.5 24.0 -189.5 28.0" fill="none" stroke="#ffffff" stroke-linecap="round" stroke-linejoin="round" stroke-width="0.05"/>
    <path d="M201.5 -32.0 L201.5 28.0 M161.5 -32.0 L161.5 -30.0 161.5 28.0 M-182.5 -32.0 L-182.5 -23.0 -182.5 24.0 -182.5 28.0 M-183.5 -32.0 L-183.5 -23.0 -183.5 24.0 -183.5 28.0" fill="none" stroke="#ffffff" stroke-linecap="round" stroke-linejoin="round" stroke-width="2.0"/>
    <path d="M-179.5 -63.0 L122.5 -63.0 M122.5 -57.0 L-179.5 -57.0" fill="none" stroke="#a33a21" stroke-linecap="round" stroke-linejoin="round" stroke-width="2.0"/>
    <path d="M148.5 -95.0 L-192.5 -95.0 M122.5 -88.0 L-181.5 -88.0" fill="none" stroke="#f1cac0" stroke-linecap="round" stroke-linejoin="round" stroke-width="0.05"/>
    <path d="M122.5 -75.0 L-179.5 -75.0" fill="none" stroke="#da7258" stroke-linecap="round" stroke-linejoin="round" stroke-width="0.05"/>
    <path d="M122.5 -70.0 L-179.5 -70.0" fill="none" stroke="#a33a21" stroke-linecap="round" stroke-linejoin="round" stroke-width="1.0"/>
  </g>
</svg>
