<?xml version="1.0" encoding="UTF-8" standalone="no"?>
<svg xmlns:ffdec="https://www.free-decompiler.com/flash" xmlns:xlink="http://www.w3.org/1999/xlink" ffdec:objectType="shape" height="355.65px" width="459.75px" xmlns="http://www.w3.org/2000/svg">
  <g transform="matrix(1.0, 0.0, 0.0, 1.0, 229.9, 181.25)">
    <path d="M142.35 -162.4 L142.35 -132.15 121.45 -127.5 121.45 -98.8 141.1 -100.8 141.1 -72.0 121.45 -70.05 121.45 -36.7 144.5 -36.7 144.5 -6.45 90.2 -6.45 90.2 -154.5 142.35 -162.4 M77.5 -153.3 L77.5 -6.8 50.1 -6.8 33.8 -71.65 33.8 -6.8 7.6 -6.8 7.6 -148.1 33.8 -149.35 51.3 -85.2 51.3 -150.65 77.5 -153.3 M182.65 -106.25 Q185.3 -127.7 194.7 -174.05 L223.4 -181.25 197.3 -63.6 197.3 -6.2 168.3 -6.2 168.3 -63.6 146.3 -164.8 171.05 -168.8 Q181.75 -118.35 182.65 -106.25 M199.0 80.0 L229.85 174.4 192.55 164.55 172.95 94.3 172.95 159.85 137.55 153.25 137.55 10.0 172.95 10.0 172.95 69.45 188.8 10.0 221.95 10.0 199.0 80.0 M88.8 35.25 Q86.5 33.3 80.35 33.3 L80.35 63.55 Q86.3 63.55 88.75 61.9 91.1 60.25 91.15 51.3 L91.15 43.75 Q91.1 37.3 88.8 35.25 M118.45 21.8 Q123.95 29.75 123.95 47.15 123.95 63.0 120.0 68.5 116.05 73.95 104.5 75.0 114.95 77.65 118.55 82.05 122.2 86.4 123.1 90.1 123.95 93.65 123.95 110.15 L123.95 150.55 91.15 146.7 91.15 100.8 Q91.1 89.9 89.4 87.25 87.7 84.7 80.35 84.7 L80.35 145.35 44.95 142.1 44.95 10.0 70.05 10.0 Q95.05 10.0 104.0 11.95 112.8 13.85 118.45 21.8 M0.9 121.6 L-11.75 121.6 -13.8 141.4 -49.8 142.7 -32.4 10.0 18.75 10.0 38.45 142.1 2.8 141.4 0.9 121.6 M-175.65 -169.5 Q-167.35 -164.3 -164.6 -156.15 -161.95 -148.2 -161.95 -128.8 L-161.95 -122.45 -190.2 -122.45 -190.2 -134.45 Q-190.2 -142.85 -191.3 -145.15 -192.35 -147.4 -194.9 -147.4 -197.65 -147.4 -199.05 -144.3 -200.5 -141.25 -200.5 -134.95 -200.5 -126.85 -198.85 -122.7 -197.4 -118.6 -190.3 -112.85 -170.0 -96.2 -164.7 -85.45 -159.4 -74.75 -159.35 -50.95 -159.4 -33.65 -162.3 -25.5 -165.3 -17.25 -173.7 -11.7 -182.1 -6.15 -193.2 -6.1 -205.4 -6.1 -214.05 -12.55 -222.7 -18.95 -225.35 -28.8 -228.1 -38.75 -228.1 -56.9 L-228.1 -67.55 -199.7 -67.55 -199.7 -47.85 Q-199.7 -38.75 -198.5 -36.1 -197.4 -33.55 -194.3 -33.55 -191.35 -33.55 -189.8 -36.9 -188.35 -40.15 -188.35 -46.65 -188.35 -60.95 -191.15 -65.3 -194.1 -69.8 -205.35 -80.05 -216.8 -90.45 -220.45 -95.15 -224.15 -99.85 -226.55 -108.15 -229.05 -116.5 -229.0 -129.3 -229.05 -147.9 -225.5 -156.55 -222.1 -165.15 -214.45 -169.9 -206.75 -174.8 -195.95 -174.8 -184.05 -174.8 -175.65 -169.5 M-46.65 -149.95 Q-26.1 -148.95 -20.3 -146.95 -14.5 -145.0 -10.3 -139.35 -6.2 -133.6 -5.15 -126.55 -4.15 -119.65 -4.15 -99.15 L-4.15 -48.7 Q-4.15 -29.25 -5.6 -22.65 -7.15 -16.25 -10.9 -12.45 -14.75 -8.8 -20.3 -7.3 -25.9 -5.85 -37.1 -5.85 L-76.6 -5.85 -76.6 -151.25 -46.65 -149.95 M-38.3 -124.0 Q-40.2 -125.4 -45.35 -125.35 L-45.35 -30.55 Q-38.6 -30.55 -36.95 -33.7 -35.4 -37.05 -35.4 -51.45 L-35.4 -107.45 Q-35.4 -117.25 -35.9 -120.0 -36.45 -122.75 -38.3 -124.0 M-81.85 -152.8 L-104.7 -59.6 -104.7 -5.95 -133.65 -5.95 -133.65 -59.6 -156.35 -165.3 -126.9 -158.7 Q-120.2 -110.75 -119.35 -95.75 -116.7 -119.4 -110.6 -156.05 L-81.85 -152.8 M-12.2 97.45 L0.05 97.45 Q-2.7 74.3 -5.35 40.3 -10.85 79.35 -12.2 97.45 M-152.0 56.6 L-184.8 56.6 -184.8 45.4 Q-184.8 37.6 -186.1 35.45 -187.4 33.35 -190.3 33.35 -193.45 33.35 -195.1 36.2 -196.8 39.05 -196.8 44.95 -196.8 52.5 -194.9 56.3 -193.15 60.1 -184.9 65.5 -161.35 81.05 -155.15 91.05 -149.0 100.95 -149.0 123.05 -149.0 139.2 -152.45 146.85 -155.85 154.4 -165.6 159.65 -175.3 164.75 -188.25 164.8 -202.45 164.75 -212.5 158.9 -222.6 152.9 -225.7 143.7 -228.8 134.5 -228.75 117.55 L-228.75 107.65 -195.95 107.65 -195.95 125.95 Q-195.95 134.45 -194.5 136.85 -193.15 139.35 -189.6 139.35 -186.1 139.35 -184.3 136.2 -182.65 133.15 -182.65 127.05 -182.7 113.8 -185.95 109.75 -189.3 105.65 -202.45 96.1 -215.65 86.4 -219.95 81.9 -224.25 77.55 -227.05 69.85 -229.9 62.15 -229.9 50.1 -229.9 32.85 -225.85 24.8 -221.9 16.85 -213.0 12.4 -204.1 7.8 -191.5 7.85 -177.7 7.8 -167.95 12.75 -158.25 17.65 -155.1 25.2 -152.0 32.7 -152.0 50.65 L-152.0 56.6 M-102.55 88.9 L-102.55 148.0 -137.95 151.95 -137.95 10.0 -102.55 10.0 -102.55 58.65 -91.95 58.65 -91.95 10.0 -56.55 10.0 -56.55 142.8 -91.95 146.05 -91.95 88.9 -102.55 88.9" fill="url(#gradient0)" fill-rule="evenodd" stroke="none"/>
  </g>
  <defs>
    <linearGradient color-interpolation="linearRGB" gradientTransform="matrix(0.0, -0.2171, 0.2806, 0.0, -0.05, -3.4)" gradientUnits="userSpaceOnUse" id="gradient0" spreadMethod="pad" x1="-819.2" x2="819.2">
      <stop offset="0.0" stop-color="#cb3e1b"/>
      <stop offset="0.20784313725490197" stop-color="#e55936"/>
      <stop offset="0.47843137254901963" stop-color="#f7c7bb"/>
      <stop offset="0.5529411764705883" stop-color="#f7c7bb"/>
      <stop offset="0.7843137254901961" stop-color="#e55936"/>
      <stop offset="0.9921568627450981" stop-color="#cb3e1b"/>
    </linearGradient>
  </defs>
</svg>
