<?xml version="1.0" encoding="UTF-8" standalone="no"?>
<svg xmlns:ffdec="https://www.free-decompiler.com/flash" xmlns:xlink="http://www.w3.org/1999/xlink" ffdec:objectType="shape" height="98.65px" width="221.4px" xmlns="http://www.w3.org/2000/svg">
  <g transform="matrix(1.0, 0.0, 0.0, 1.0, 113.1, 50.35)">
    <path d="M11.7 -24.8 Q18.15 -19.0 24.25 -12.65 30.65 -6.1 36.5 0.95 L40.5 5.85 Q56.45 29.15 108.3 48.3 L-113.1 48.3 -62.3 31.7 Q-50.65 27.6 -43.5 19.8 L-43.15 19.35 -40.85 16.5 -40.7 16.4 -40.25 15.8 Q-36.8 9.5 -35.85 6.05 -34.55 -0.95 -34.45 -3.8 L-34.35 -6.9 -34.35 -20.3 -34.95 -30.4 -35.65 -38.2 -37.1 -48.25 -37.5 -50.35 -30.3 -48.25 Q-23.8 -46.2 -17.85 -43.6 -9.5 -40.0 -1.85 -35.15 5.4 -30.55 11.7 -24.8" fill="#000000" fill-rule="evenodd" stroke="none"/>
  </g>
</svg>
