<?xml version="1.0" encoding="UTF-8" standalone="no"?>
<svg xmlns:ffdec="https://www.free-decompiler.com/flash" xmlns:xlink="http://www.w3.org/1999/xlink" ffdec:objectType="shape" height="121.0px" width="368.4px" xmlns="http://www.w3.org/2000/svg">
  <g transform="matrix(1.0, 0.0, 0.0, 1.0, 184.2, 60.5)">
    <path d="M165.7 -60.5 Q176.15 -60.5 179.7 -55.75 181.2 -53.7 181.2 -50.5 181.2 -42.3 170.7 -40.25 171.85 -36.7 171.85 -28.9 171.85 -21.9 173.2 -19.25 174.85 -16.05 179.4 -8.6 183.2 -2.05 183.2 0.5 183.2 4.75 177.95 20.0 177.95 20.95 181.1 26.2 184.2 31.5 184.2 35.35 184.2 38.1 176.25 49.3 168.25 60.5 166.2 60.5 156.8 60.5 155.85 50.8 155.6 48.1 156.05 43.85 156.4 40.3 156.2 40.0 143.0 36.2 139.75 31.35 138.45 29.4 138.2 26.7 L138.2 21.5 Q138.2 14.0 145.7 0.55 153.2 -12.95 153.2 -20.5 153.2 -26.5 150.55 -29.95 148.8 -32.2 144.7 -34.4 140.25 -36.75 138.85 -38.2 136.2 -40.95 136.2 -45.75 136.2 -50.8 144.95 -55.5 154.2 -60.5 165.7 -60.5 M-173.8 -59.5 Q-166.9 -59.5 -153.8 -47.4 -146.25 -54.5 -137.3 -54.5 -130.7 -54.5 -97.8 -20.5 -97.8 -17.2 -99.8 -14.45 -102.7 -10.5 -108.8 -10.5 -112.25 -10.5 -124.1 -17.5 L-128.75 -20.35 -126.8 -18.0 Q-126.8 -6.5 -136.8 -6.5 -140.25 -6.5 -143.35 -8.05 -144.9 -7.5 -146.8 -7.5 L-149.8 -7.65 Q-149.85 -4.7 -151.8 -1.75 -154.6 2.5 -159.8 2.5 -172.3 2.5 -179.25 -18.0 -181.5 -24.55 -182.85 -32.35 -183.8 -37.8 -183.8 -39.4 -184.6 -45.45 -183.75 -50.25 -182.15 -59.5 -173.8 -59.5" fill="#ffffff" fill-rule="evenodd" stroke="none"/>
  </g>
</svg>
