<?xml version="1.0" encoding="UTF-8" standalone="no"?>
<svg xmlns:ffdec="https://www.free-decompiler.com/flash" xmlns:xlink="http://www.w3.org/1999/xlink" ffdec:objectType="shape" height="149.0px" width="388.85px" xmlns="http://www.w3.org/2000/svg">
  <g transform="matrix(1.0, 0.0, 0.0, 1.0, 194.0, 74.5)">
    <path d="M153.0 -74.5 Q158.45 -74.5 161.4 -64.05 163.2 -57.75 172.9 -47.55 182.6 -37.4 190.65 -33.85 198.7 -30.35 191.3 -18.9 183.85 -7.5 186.5 -2.75 188.0 -0.05 189.25 6.25 190.45 12.55 189.8 37.35 189.6 43.4 188.65 46.0 194.0 54.5 194.0 56.5 194.0 59.5 187.55 66.25 180.6 73.5 176.0 73.5 L147.0 72.5 Q24.4 73.35 -6.65 72.75 L-21.8 72.3 Q-43.7 74.5 -101.5 74.5 -154.85 74.5 -166.45 70.25 -170.5 68.8 -170.15 66.55 -169.0 64.1 -169.0 63.1 -169.0 58.65 -167.05 56.45 L-157.75 48.75 Q-165.35 48.1 -167.35 42.35 -168.0 40.45 -168.0 34.35 -168.0 32.2 -165.75 18.9 -163.35 4.3 -161.75 -0.5 -172.95 1.4 -176.05 -6.55 -177.0 -8.95 -177.45 -13.2 -177.9 -17.55 -178.25 -18.5 -179.3 -21.35 -182.05 -22.85 -186.25 -24.75 -189.75 -27.0 -193.0 -29.2 -193.75 -32.5 L-194.0 -38.25 Q-194.0 -53.5 -181.5 -53.5 -180.25 -53.5 -177.25 -52.35 -174.25 -51.25 -173.0 -51.25 L-167.2 -52.85 Q-161.8 -54.5 -160.0 -54.5 -148.55 -54.5 -143.0 -49.15 L-71.95 -49.15 Q-69.65 -50.5 -67.5 -50.5 -63.7 -50.5 -60.75 -49.15 L121.25 -49.15 Q124.85 -53.45 129.3 -58.0 145.4 -74.5 153.0 -74.5 M175.0 28.5 L174.75 28.75 175.2 29.0 175.0 28.5 M122.0 33.0 Q121.75 32.75 119.75 33.75 L118.25 34.5 121.5 34.75 122.0 33.0" fill="#ffffff" fill-rule="evenodd" stroke="none"/>
  </g>
</svg>
