<?xml version="1.0" encoding="UTF-8" standalone="no"?>
<svg xmlns:ffdec="https://www.free-decompiler.com/flash" xmlns:xlink="http://www.w3.org/1999/xlink" ffdec:objectType="shape" height="34.75px" width="80.8px" xmlns="http://www.w3.org/2000/svg">
  <g transform="matrix(1.0, 0.0, 0.0, 1.0, 110.15, 7.4)">
    <path d="M-86.75 -4.8 L-84.4 1.65 -82.8 -5.05 -79.9 -4.35 -81.75 6.95 -85.25 8.95 -87.75 3.0 -88.05 8.7 -90.55 8.0 -90.9 -4.05 -86.75 -4.8 M-71.6 -1.05 L-74.8 -2.15 -74.55 0.55 -72.35 0.0 -72.45 3.3 -74.45 3.0 -74.25 5.35 -69.6 3.1 -70.7 8.4 -79.1 7.85 -78.1 -4.25 -70.15 -5.4 -71.6 -1.05 M-65.85 -5.25 L-64.5 2.2 -62.15 -4.25 -58.65 -4.65 -57.7 0.45 -55.85 -4.8 -52.5 -3.75 -56.55 7.6 -60.15 8.9 -61.3 2.9 -63.2 7.65 -67.65 7.8 -68.8 -4.0 -65.85 -5.25" fill="url(#gradient0)" fill-rule="evenodd" stroke="none"/>
    <path d="M-33.4 10.6 Q-31.35 10.85 -31.35 13.3 -31.35 14.8 -32.45 16.75 -33.65 18.8 -35.95 20.85 -36.7 18.25 -36.7 15.85 -36.7 13.35 -35.9 11.95 -35.0 10.4 -33.4 10.6 M-38.65 23.4 Q-38.75 22.5 -38.2 21.9 -37.65 21.3 -36.8 21.2 -36.0 21.15 -35.35 21.7 -34.7 22.25 -34.65 23.1 -34.6 23.9 -35.15 24.55 -35.7 25.15 -36.55 25.2 -37.35 25.3 -38.0 24.7 -38.65 24.2 -38.65 23.4 M-46.05 11.25 Q-43.25 11.2 -41.45 12.75 -39.55 14.35 -39.55 17.25 -39.6 20.4 -41.7 22.65 -43.8 24.8 -46.8 24.85 L-49.55 24.3 -49.45 11.75 Q-47.7 11.25 -46.05 11.25 M-56.5 11.15 Q-54.3 11.15 -52.9 12.2 -51.45 13.3 -51.4 15.35 -51.45 18.1 -54.0 19.45 L-50.45 23.15 -54.95 25.35 -57.5 20.9 -58.15 21.0 -58.7 24.6 -63.5 24.45 -60.5 11.95 Q-58.45 11.15 -56.5 11.15 M-57.1 14.6 L-57.65 17.65 Q-56.5 17.65 -55.85 17.1 -55.3 16.6 -55.3 15.8 -55.3 15.25 -55.7 14.95 -56.15 14.55 -56.7 14.6 L-57.1 14.6 M-45.3 15.9 L-46.15 20.65 Q-44.85 20.8 -44.1 19.65 -43.5 18.8 -43.45 17.9 -43.45 16.9 -44.0 16.35 -44.5 15.8 -45.3 15.9 M-75.7 11.25 L-75.5 15.95 Q-76.3 14.9 -77.45 14.9 -78.5 14.9 -79.25 15.75 -80.1 16.6 -80.1 18.0 -80.1 19.15 -79.4 19.9 -78.75 20.65 -77.8 20.7 -76.45 20.7 -75.45 19.25 L-76.25 23.95 Q-77.55 24.65 -78.95 24.65 -81.25 24.6 -82.8 23.1 -84.6 21.3 -84.55 18.35 -84.55 15.1 -82.35 13.0 -80.3 11.0 -77.4 11.0 L-75.7 11.25 M-73.1 13.3 Q-71.4 11.2 -68.7 11.2 -66.3 11.2 -64.75 13.05 -63.2 14.95 -63.2 17.85 -63.2 21.3 -65.1 23.2 -66.75 24.9 -69.4 24.9 -71.8 24.85 -73.25 23.0 -74.75 21.1 -74.75 18.15 -74.75 15.25 -73.1 13.3 M-69.0 18.85 Q-68.2 18.85 -67.6 18.3 -67.1 17.7 -67.1 16.9 -67.1 16.1 -67.65 15.5 -68.25 14.95 -69.0 14.95 -69.8 14.95 -70.35 15.5 -70.9 16.1 -70.9 16.9 -70.9 17.7 -70.35 18.3 -69.8 18.85 -69.0 18.85 M-97.5 12.2 Q-96.05 13.3 -96.05 15.35 -96.05 18.1 -98.6 19.45 L-95.1 23.15 -99.6 25.35 -102.1 20.9 -102.8 21.0 -103.35 24.6 -108.15 24.45 -105.15 11.95 Q-103.05 11.15 -101.15 11.15 -98.9 11.15 -97.5 12.2 M-99.9 15.8 Q-99.95 15.25 -100.35 14.95 -100.8 14.55 -101.35 14.6 L-101.75 14.6 -102.3 17.65 Q-101.15 17.65 -100.5 17.1 -99.95 16.6 -99.9 15.8 M-90.3 14.1 L-90.05 16.8 -87.85 16.25 -88.0 19.55 -90.0 19.25 -89.8 21.6 -85.15 19.35 -86.25 24.65 -94.65 24.1 -93.6 12.0 -85.65 10.85 -87.1 15.2 -90.3 14.1" fill="url(#gradient1)" fill-rule="evenodd" stroke="none"/>
    <path d="M-86.75 -4.8 L-84.4 1.65 -82.8 -5.05 -79.9 -4.35 -81.75 6.95 -85.25 8.95 -87.75 3.0 -88.05 8.7 -90.55 8.0 -90.9 -4.05 -86.75 -4.8 M-71.6 -1.05 L-74.8 -2.15 -74.55 0.55 -72.35 0.0 -72.45 3.3 -74.45 3.0 -74.25 5.35 -69.6 3.1 -70.7 8.4 -79.1 7.85 -78.1 -4.25 -70.15 -5.4 -71.6 -1.05 M-65.85 -5.25 L-64.5 2.2 -62.15 -4.25 -58.65 -4.65 -57.7 0.45 -55.85 -4.8 -52.5 -3.75 -56.55 7.6 -60.15 8.9 -61.3 2.9 -63.2 7.65 -67.65 7.8 -68.8 -4.0 -65.85 -5.25 M-33.4 10.6 Q-31.35 10.85 -31.35 13.3 -31.35 14.8 -32.45 16.75 -33.65 18.8 -35.95 20.85 -36.7 18.25 -36.7 15.85 -36.7 13.35 -35.9 11.95 -35.0 10.4 -33.4 10.6 M-38.65 23.4 Q-38.75 22.5 -38.2 21.9 -37.65 21.3 -36.8 21.2 -36.0 21.15 -35.35 21.7 -34.7 22.25 -34.65 23.1 -34.6 23.9 -35.15 24.55 -35.7 25.15 -36.55 25.2 -37.35 25.3 -38.0 24.7 -38.65 24.2 -38.65 23.4 M-46.05 11.25 Q-43.25 11.2 -41.45 12.75 -39.55 14.35 -39.55 17.25 -39.6 20.4 -41.7 22.65 -43.8 24.8 -46.8 24.85 L-49.55 24.3 -49.45 11.75 Q-47.7 11.25 -46.05 11.25 M-56.5 11.15 Q-54.3 11.15 -52.9 12.2 -51.45 13.3 -51.4 15.35 -51.45 18.1 -54.0 19.45 L-50.45 23.15 -54.95 25.35 -57.5 20.9 -58.15 21.0 -58.7 24.6 -63.5 24.45 -60.5 11.95 Q-58.45 11.15 -56.5 11.15 M-57.1 14.6 L-57.65 17.65 Q-56.5 17.65 -55.85 17.1 -55.3 16.6 -55.3 15.8 -55.3 15.25 -55.7 14.95 -56.15 14.55 -56.7 14.6 L-57.1 14.6 M-45.3 15.9 L-46.15 20.65 Q-44.85 20.8 -44.1 19.65 -43.5 18.8 -43.45 17.9 -43.45 16.9 -44.0 16.35 -44.5 15.8 -45.3 15.9 M-75.7 11.25 L-75.5 15.95 Q-76.3 14.9 -77.45 14.9 -78.5 14.9 -79.25 15.75 -80.1 16.6 -80.1 18.0 -80.1 19.15 -79.4 19.9 -78.75 20.65 -77.8 20.7 -76.45 20.7 -75.45 19.25 L-76.25 23.95 Q-77.55 24.65 -78.95 24.65 -81.25 24.6 -82.8 23.1 -84.6 21.3 -84.55 18.35 -84.55 15.1 -82.35 13.0 -80.3 11.0 -77.4 11.0 L-75.7 11.25 M-73.1 13.3 Q-71.4 11.2 -68.7 11.2 -66.3 11.2 -64.75 13.05 -63.2 14.95 -63.2 17.85 -63.2 21.3 -65.1 23.2 -66.75 24.9 -69.4 24.9 -71.8 24.85 -73.25 23.0 -74.75 21.1 -74.75 18.15 -74.75 15.25 -73.1 13.3 M-69.0 18.85 Q-68.2 18.85 -67.6 18.3 -67.1 17.7 -67.1 16.9 -67.1 16.1 -67.65 15.5 -68.25 14.95 -69.0 14.95 -69.8 14.95 -70.35 15.5 -70.9 16.1 -70.9 16.9 -70.9 17.7 -70.35 18.3 -69.8 18.85 -69.0 18.85 M-97.5 12.2 Q-96.05 13.3 -96.05 15.35 -96.05 18.1 -98.6 19.45 L-95.1 23.15 -99.6 25.35 -102.1 20.9 -102.8 21.0 -103.35 24.6 -108.15 24.45 -105.15 11.95 Q-103.05 11.15 -101.15 11.15 -98.9 11.15 -97.5 12.2 M-99.9 15.8 Q-99.95 15.25 -100.35 14.95 -100.8 14.55 -101.35 14.6 L-101.75 14.6 -102.3 17.65 Q-101.15 17.65 -100.5 17.1 -99.95 16.6 -99.9 15.8 M-90.3 14.1 L-90.05 16.8 -87.85 16.25 -88.0 19.55 -90.0 19.25 -89.8 21.6 -85.15 19.35 -86.25 24.65 -94.65 24.1 -93.6 12.0 -85.65 10.85 -87.1 15.2 -90.3 14.1 Z" fill="none" stroke="#000000" stroke-linecap="round" stroke-linejoin="round" stroke-width="4.0"/>
    <path d="M-86.75 -4.8 L-84.4 1.65 -82.8 -5.05 -79.9 -4.35 -81.75 6.95 -85.25 8.95 -87.75 3.0 -88.05 8.7 -90.55 8.0 -90.9 -4.05 -86.75 -4.8 M-71.6 -1.05 L-74.8 -2.15 -74.55 0.55 -72.35 0.0 -72.45 3.3 -74.45 3.0 -74.25 5.35 -69.6 3.1 -70.7 8.4 -79.1 7.85 -78.1 -4.25 -70.15 -5.4 -71.6 -1.05 M-65.85 -5.25 L-64.5 2.2 -62.15 -4.25 -58.65 -4.65 -57.7 0.45 -55.85 -4.8 -52.5 -3.75 -56.55 7.6 -60.15 8.9 -61.3 2.9 -63.2 7.65 -67.65 7.8 -68.8 -4.0 -65.85 -5.25" fill="url(#gradient2)" fill-rule="evenodd" stroke="none"/>
    <path d="M-33.4 10.6 Q-31.35 10.85 -31.35 13.3 -31.35 14.8 -32.45 16.75 -33.65 18.8 -35.95 20.85 -36.7 18.25 -36.7 15.85 -36.7 13.35 -35.9 11.95 -35.0 10.4 -33.4 10.6 M-38.65 23.4 Q-38.75 22.5 -38.2 21.9 -37.65 21.3 -36.8 21.2 -36.0 21.15 -35.35 21.7 -34.7 22.25 -34.65 23.1 -34.6 23.9 -35.15 24.55 -35.7 25.15 -36.55 25.2 -37.35 25.3 -38.0 24.7 -38.65 24.2 -38.65 23.4 M-46.05 11.25 Q-43.25 11.2 -41.45 12.75 -39.55 14.35 -39.55 17.25 -39.6 20.4 -41.7 22.65 -43.8 24.8 -46.8 24.85 L-49.55 24.3 -49.45 11.75 Q-47.7 11.25 -46.05 11.25 M-56.5 11.15 Q-54.3 11.15 -52.9 12.2 -51.45 13.3 -51.4 15.35 -51.45 18.1 -54.0 19.45 L-50.45 23.15 -54.95 25.35 -57.5 20.9 -58.15 21.0 -58.7 24.6 -63.5 24.45 -60.5 11.95 Q-58.45 11.15 -56.5 11.15 M-57.1 14.6 L-57.65 17.65 Q-56.5 17.65 -55.85 17.1 -55.3 16.6 -55.3 15.8 -55.3 15.25 -55.7 14.95 -56.15 14.55 -56.7 14.6 L-57.1 14.6 M-45.3 15.9 L-46.15 20.65 Q-44.85 20.8 -44.1 19.65 -43.5 18.8 -43.45 17.9 -43.45 16.9 -44.0 16.35 -44.5 15.8 -45.3 15.9 M-75.7 11.25 L-75.5 15.95 Q-76.3 14.9 -77.45 14.9 -78.5 14.9 -79.25 15.75 -80.1 16.6 -80.1 18.0 -80.1 19.15 -79.4 19.9 -78.75 20.65 -77.8 20.7 -76.45 20.7 -75.45 19.25 L-76.25 23.95 Q-77.55 24.65 -78.95 24.65 -81.25 24.6 -82.8 23.1 -84.6 21.3 -84.55 18.35 -84.55 15.1 -82.35 13.0 -80.3 11.0 -77.4 11.0 L-75.7 11.25 M-73.1 13.3 Q-71.4 11.2 -68.7 11.2 -66.3 11.2 -64.75 13.05 -63.2 14.95 -63.2 17.85 -63.2 21.3 -65.1 23.2 -66.75 24.9 -69.4 24.9 -71.8 24.85 -73.25 23.0 -74.75 21.1 -74.75 18.15 -74.75 15.25 -73.1 13.3 M-69.0 18.85 Q-68.2 18.85 -67.6 18.3 -67.1 17.7 -67.1 16.9 -67.1 16.1 -67.65 15.5 -68.25 14.95 -69.0 14.95 -69.8 14.95 -70.35 15.5 -70.9 16.1 -70.9 16.9 -70.9 17.7 -70.35 18.3 -69.8 18.85 -69.0 18.85 M-97.5 12.2 Q-96.05 13.3 -96.05 15.35 -96.05 18.1 -98.6 19.45 L-95.1 23.15 -99.6 25.35 -102.1 20.9 -102.8 21.0 -103.35 24.6 -108.15 24.45 -105.15 11.95 Q-103.05 11.15 -101.15 11.15 -98.9 11.15 -97.5 12.2 M-99.9 15.8 Q-99.95 15.25 -100.35 14.95 -100.8 14.55 -101.35 14.6 L-101.75 14.6 -102.3 17.65 Q-101.15 17.65 -100.5 17.1 -99.95 16.6 -99.9 15.8 M-90.3 14.1 L-90.05 16.8 -87.85 16.25 -88.0 19.55 -90.0 19.25 -89.8 21.6 -85.15 19.35 -86.25 24.65 -94.65 24.1 -93.6 12.0 -85.65 10.85 -87.1 15.2 -90.3 14.1" fill="url(#gradient3)" fill-rule="evenodd" stroke="none"/>
  </g>
  <defs>
    <linearGradient gradientTransform="matrix(0.0, 0.009, -0.0724, 0.0, -31.55, 1.7)" gradientUnits="userSpaceOnUse" id="gradient0" spreadMethod="pad" x1="-819.2" x2="819.2">
      <stop offset="0.4" stop-color="#ffff00"/>
      <stop offset="0.43137254901960786" stop-color="#996633"/>
      <stop offset="0.5568627450980392" stop-color="#ff6600"/>
      <stop offset="0.6666666666666666" stop-color="#ff9900"/>
      <stop offset="0.8196078431372549" stop-color="#ffcc00"/>
      <stop offset="1.0" stop-color="#ffff33"/>
    </linearGradient>
    <linearGradient gradientTransform="matrix(0.0, 0.009, -0.0724, 0.0, -90.65, 17.95)" gradientUnits="userSpaceOnUse" id="gradient1" spreadMethod="pad" x1="-819.2" x2="819.2">
      <stop offset="0.4" stop-color="#ffff00"/>
      <stop offset="0.43137254901960786" stop-color="#996633"/>
      <stop offset="0.5568627450980392" stop-color="#ff6600"/>
      <stop offset="0.6666666666666666" stop-color="#ff9900"/>
      <stop offset="0.8196078431372549" stop-color="#ffcc00"/>
      <stop offset="1.0" stop-color="#ffff33"/>
    </linearGradient>
    <linearGradient gradientTransform="matrix(0.0, 0.009, -0.0724, 0.0, -31.55, 1.7)" gradientUnits="userSpaceOnUse" id="gradient2" spreadMethod="pad" x1="-819.2" x2="819.2">
      <stop offset="0.4" stop-color="#ffff00"/>
      <stop offset="0.43137254901960786" stop-color="#996633"/>
      <stop offset="0.5568627450980392" stop-color="#ff6600"/>
      <stop offset="0.6666666666666666" stop-color="#ff9900"/>
      <stop offset="0.8196078431372549" stop-color="#ffcc00"/>
      <stop offset="1.0" stop-color="#ffff33"/>
    </linearGradient>
    <linearGradient gradientTransform="matrix(0.0, 0.009, -0.0724, 0.0, -90.65, 17.95)" gradientUnits="userSpaceOnUse" id="gradient3" spreadMethod="pad" x1="-819.2" x2="819.2">
      <stop offset="0.4" stop-color="#ffff00"/>
      <stop offset="0.43137254901960786" stop-color="#996633"/>
      <stop offset="0.5568627450980392" stop-color="#ff6600"/>
      <stop offset="0.6666666666666666" stop-color="#ff9900"/>
      <stop offset="0.8196078431372549" stop-color="#ffcc00"/>
      <stop offset="1.0" stop-color="#ffff33"/>
    </linearGradient>
  </defs>
</svg>
