<?xml version="1.0" encoding="UTF-8" standalone="no"?>
<svg xmlns:ffdec="https://www.free-decompiler.com/flash" xmlns:xlink="http://www.w3.org/1999/xlink" ffdec:objectType="shape" height="101.0px" width="73.15px" xmlns="http://www.w3.org/2000/svg">
  <g transform="matrix(1.0, 0.0, 0.0, 1.0, 35.15, 64.0)">
    <path d="M17.5 -59.0 Q30.5 -58.8 34.5 -49.0 35.8 -45.85 36.05 -41.9 L36.0 -38.1 Q36.0 -32.6 35.0 -28.45 36.0 -17.9 36.0 -9.6 L36.0 -9.3 Q37.4 -2.5 38.0 4.5 38.0 13.4 34.75 19.5 29.15 30.0 15.0 30.0 L14.45 30.0 Q10.95 32.05 7.15 33.55 1.0 36.0 -3.0 36.0 L-4.65 35.95 Q-6.8 37.0 -9.5 37.0 -17.45 37.0 -21.05 28.5 -22.8 24.2 -23.0 19.85 -23.0 15.55 -18.25 9.55 -13.5 3.55 -13.5 2.25 -13.5 0.95 -16.85 -2.85 L-24.25 -10.65 Q-35.0 -22.1 -35.0 -27.0 L-34.75 -29.7 Q-35.35 -32.65 -35.0 -35.6 -35.0 -45.0 -26.25 -53.25 -14.8 -64.0 6.0 -64.0 11.15 -64.0 17.5 -59.0" fill="#ffffff" fill-rule="evenodd" stroke="none"/>
  </g>
</svg>
