<?xml version="1.0" encoding="UTF-8" standalone="no"?>
<svg xmlns:ffdec="https://www.free-decompiler.com/flash" xmlns:xlink="http://www.w3.org/1999/xlink" ffdec:objectType="shape" height="198.05px" width="310.5px" xmlns="http://www.w3.org/2000/svg">
  <g transform="matrix(1.0, 0.0, 0.0, 1.0, 155.35, 100.0)">
    <path d="M88.4 -99.9 Q89.25 -100.1 90.0 -99.9 L91.5 -98.95 91.55 -98.85 91.8 -98.45 91.9 -98.3 91.95 -98.2 92.0 -98.1 Q92.35 -97.2 92.1 -96.2 51.7 50.6 153.15 87.1 154.3 87.5 154.85 88.65 155.4 89.75 155.0 90.9 L154.6 91.65 Q154.45 92.45 153.8 93.15 152.95 94.0 151.7 94.05 L-152.3 98.05 Q-153.35 98.05 -154.15 97.45 -155.0 96.8 -155.25 95.8 -155.5 94.75 -155.05 93.85 -154.65 92.85 -153.7 92.4 -103.15 66.2 -44.85 -20.6 L-44.45 -21.05 Q12.65 -78.65 88.4 -99.9" fill="#999999" fill-rule="evenodd" stroke="none"/>
  </g>
</svg>
