<?xml version="1.0" encoding="UTF-8" standalone="no"?>
<svg xmlns:ffdec="https://www.free-decompiler.com/flash" xmlns:xlink="http://www.w3.org/1999/xlink" ffdec:objectType="shape" height="147.8px" width="219.55px" xmlns="http://www.w3.org/2000/svg">
  <g transform="matrix(1.0, 0.0, 0.0, 1.0, 109.75, 73.85)">
    <path d="M84.05 22.1 L109.8 27.65 109.8 28.0 109.15 32.7 97.4 32.25 Q89.95 64.35 37.6 67.95 4.6 69.1 -27.1 67.35 -60.1 64.5 -68.25 46.15 L-109.75 35.05 -109.75 -73.85 -87.95 -57.0 -89.5 -43.6 -67.8 -27.35 -76.5 -26.05 Q-76.15 -5.15 -81.7 20.35 L-65.25 35.3 -64.3 32.6 -53.25 38.9 -52.15 37.3 -38.8 40.5 -35.25 41.15 Q-19.25 43.7 1.85 38.8 L1.95 38.8 2.2 38.7 43.7 39.1 44.15 39.1 44.4 39.1 44.4 39.15 44.6 39.1 44.75 45.55 Q48.35 40.25 52.55 40.3 55.1 40.25 56.35 41.9 73.5 34.75 84.0 27.65 L84.05 22.1" fill="#f5d9be" fill-rule="evenodd" stroke="none"/>
    <path d="M-67.8 -27.35 Q-47.1 -29.35 -32.95 -20.55 -40.8 -12.5 -47.2 -2.75 L-24.4 0.65 -20.8 1.25 Q-26.6 6.55 -31.95 12.25 -18.35 12.05 -9.55 16.7 L-38.8 40.5 -52.15 37.3 -53.25 38.9 -64.3 32.6 -65.25 35.3 -81.7 20.35 Q-76.15 -5.15 -76.5 -26.05 L-67.8 -27.35 M-52.15 37.3 Q-42.95 23.95 -31.95 12.25 -42.95 23.95 -52.15 37.3 M-64.3 32.6 Q-57.6 12.8 -47.2 -2.75 -57.6 12.8 -64.3 32.6" fill="#dbccbd" fill-rule="evenodd" stroke="none"/>
    <path d="M19.55 -45.25 L20.3 -45.5 Q18.0 -37.8 19.0 -23.45 6.0 -22.8 -1.15 -20.7 7.45 -33.4 19.55 -45.25 M40.2 -24.05 Q39.45 -19.4 42.25 -11.55 34.9 -10.95 22.55 -7.4 30.5 -16.45 40.2 -24.05 M66.45 -11.55 Q63.15 -3.3 63.1 4.35 63.0 8.2 63.9 12.35 L64.0 12.5 29.3 26.8 29.05 26.65 Q40.95 6.0 66.45 -11.55 M-32.55 -20.45 Q-32.15 -16.9 -30.8 -13.0 -28.75 -6.65 -24.4 0.65 L-47.2 -2.75 Q-40.8 -12.5 -32.95 -20.55 L-32.55 -20.45 M-35.25 41.15 L-38.8 40.5 -9.55 16.7 -9.45 16.6 Q-6.15 23.6 2.2 25.9 L4.2 26.25 3.25 26.6 -35.25 41.15 M-9.4 16.45 L-9.55 16.7 Q-18.35 12.05 -31.95 12.25 -26.6 6.55 -20.8 1.25 -19.8 4.95 -16.5 9.1 -13.75 12.6 -9.4 16.45" fill="#8a6a4a" fill-rule="evenodd" stroke="none"/>
    <path d="M19.0 -23.45 L40.2 -24.05 Q30.5 -16.45 22.55 -7.4 34.9 -10.95 42.25 -11.55 55.9 -12.7 66.45 -11.55 40.95 6.0 29.05 26.65 L29.0 26.8 11.2 26.6 11.2 26.65 4.2 26.25 2.2 25.9 Q-6.15 23.6 -9.45 16.6 L-9.3 16.55 -9.4 16.45 Q-13.75 12.6 -16.5 9.1 -19.8 4.95 -20.8 1.25 L-24.4 0.65 Q-28.75 -6.65 -30.8 -13.0 -22.95 -27.0 -8.95 -36.1 5.25 -45.3 19.55 -45.25 7.45 -33.4 -1.15 -20.7 6.0 -22.8 19.0 -23.45 M2.2 25.9 Q10.55 6.35 22.55 -7.4 10.55 6.35 2.2 25.9 M-1.15 -20.7 Q-9.0 -8.95 -16.5 9.1 -9.0 -8.95 -1.15 -20.7" fill="#ede4de" fill-rule="evenodd" stroke="none"/>
    <path d="M109.15 32.7 L108.7 38.2 98.35 37.75 Q90.85 69.85 38.5 73.45 5.5 74.65 -26.15 72.85 -59.2 70.0 -67.35 51.65 L-109.75 40.3 -109.75 35.05 -68.25 46.15 Q-60.1 64.5 -27.1 67.35 4.6 69.1 37.6 67.95 89.95 64.35 97.4 32.25 L109.15 32.7" fill="#eaa273" fill-rule="evenodd" stroke="none"/>
    <path d="M80.95 21.4 L84.05 22.1 84.0 27.65 Q73.5 34.75 56.35 41.9 55.1 40.25 52.55 40.3 48.35 40.25 44.75 45.55 L44.6 39.1 44.4 39.15 44.55 39.1 Q69.5 29.8 80.8 21.1 L80.95 21.4 M44.6 39.1 L44.55 39.1 44.6 39.1" fill="#f5d8c5" fill-rule="evenodd" stroke="none"/>
    <path d="M63.1 4.35 L75.75 9.5 75.75 10.15 Q67.85 18.6 42.2 27.05 L29.3 26.8 64.0 12.5 63.9 12.35 Q63.0 8.2 63.1 4.35 M75.75 16.25 L80.95 16.85 80.95 20.95 80.8 21.1 Q69.5 29.8 44.55 39.1 L44.4 39.1 44.55 39.1 44.4 39.15 44.4 39.1 Q44.35 38.75 44.1 38.9 L43.7 39.1 2.2 38.7 1.95 38.8 1.85 38.8 Q-19.25 43.7 -35.25 41.15 L3.25 26.6 5.25 31.3 6.0 31.75 12.5 32.15 11.95 31.95 43.1 32.35 43.1 32.1 Q65.65 23.65 75.75 16.25 M44.1 38.9 L43.1 32.35 44.1 38.9 M1.95 38.8 L6.0 31.75 1.95 38.8" fill="#bb9c80" fill-rule="evenodd" stroke="none"/>
    <path d="M75.75 10.15 L75.75 16.25 Q65.65 23.65 43.1 32.1 L43.1 32.35 11.95 31.95 12.5 32.15 6.0 31.75 5.25 31.3 3.25 26.6 4.2 26.25 11.2 26.65 11.2 26.6 29.0 26.8 29.3 26.8 42.2 27.05 Q67.85 18.6 75.75 10.15" fill="#9b7753" fill-rule="evenodd" stroke="none"/>
    <path d="M-9.45 16.6 L-9.55 16.7 -9.4 16.45 -9.45 16.6" fill="#ac8864" fill-rule="evenodd" stroke="none"/>
    <path d="M19.55 -45.25 L20.3 -45.5 Q18.0 -37.8 19.0 -23.45 L40.2 -24.05 Q39.45 -19.4 42.25 -11.55 55.9 -12.7 66.45 -11.55 63.15 -3.3 63.1 4.35 L75.75 9.5 75.75 10.15 75.75 16.25 80.95 16.85 80.95 20.95 80.95 21.4 84.05 22.1 109.8 27.65 109.8 28.0 109.3 32.7 109.15 32.7 108.7 38.2 98.35 37.75 Q90.85 69.85 38.5 73.45 5.5 74.65 -26.15 72.85 -59.2 70.0 -67.35 51.65 L-109.75 40.3 M-109.75 -73.85 L-87.95 -57.0 -89.5 -43.6 -67.8 -27.35 Q-47.1 -29.35 -32.95 -20.55 L-32.7 -20.85 -32.55 -20.45 Q-32.15 -16.9 -30.8 -13.0 -22.95 -27.0 -8.95 -36.1 5.25 -45.3 19.55 -45.25 7.45 -33.4 -1.15 -20.7 6.0 -22.8 19.0 -23.45 M40.2 -24.05 Q30.5 -16.45 22.55 -7.4 34.9 -10.95 42.25 -11.55 M109.15 32.7 L109.8 28.0 M109.15 32.7 L97.4 32.25 Q89.95 64.35 37.6 67.95 4.6 69.1 -27.1 67.35 -60.1 64.5 -68.25 46.15 L-109.75 35.05 M44.6 39.1 L44.4 39.15 44.4 39.1 44.15 39.1 43.7 39.1 2.2 38.7 1.95 38.8 1.85 38.8 Q-19.25 43.7 -35.25 41.15 L-38.8 40.5 -52.15 37.3 -53.25 38.9 -64.3 32.6 -65.25 35.3 -81.7 20.35 Q-76.15 -5.15 -76.5 -26.05 L-67.8 -27.35 M63.1 4.35 Q63.0 8.2 63.9 12.35 L64.0 12.5 29.3 26.8 42.2 27.05 Q67.85 18.6 75.75 10.15 M80.95 20.95 L80.8 21.1 Q69.5 29.8 44.55 39.1 L44.6 39.1 M75.75 16.25 Q65.65 23.65 43.1 32.1 L43.1 32.35 44.1 38.9 Q44.35 38.75 44.4 39.1 L44.55 39.1 44.4 39.15 M43.7 39.1 L44.1 38.9 44.15 39.1 M4.2 26.25 L11.2 26.65 11.2 26.6 29.0 26.8 29.05 26.65 Q40.95 6.0 66.45 -11.55 M43.1 32.35 L11.95 31.95 12.5 32.15 M4.2 26.25 L2.2 25.9 Q-6.15 23.6 -9.45 16.6 L-9.55 16.7 -38.8 40.5 M3.25 26.6 L4.2 26.25 M3.25 26.6 L-35.25 41.15 M29.0 26.8 L29.3 26.8 M22.55 -7.4 Q10.55 6.35 2.2 25.9 M-32.55 -20.45 L-32.95 -20.55 Q-40.8 -12.5 -47.2 -2.75 L-24.4 0.65 Q-28.75 -6.65 -30.8 -13.0 M-9.55 16.7 Q-18.35 12.05 -31.95 12.25 -42.95 23.95 -52.15 37.3 M-9.4 16.45 L-9.3 16.55 -9.45 16.6 M-16.5 9.1 Q-13.75 12.6 -9.4 16.45 M-20.8 1.25 L-24.4 0.65 M-31.95 12.25 Q-26.6 6.55 -20.8 1.25 -19.8 4.95 -16.5 9.1 -9.0 -8.95 -1.15 -20.7 M-47.2 -2.75 Q-57.6 12.8 -64.3 32.6" fill="none" stroke="#484848" stroke-linecap="round" stroke-linejoin="round" stroke-width="0.05"/>
    <path d="M12.5 32.15 L6.0 31.75 1.95 38.8 M5.25 31.3 L3.25 26.6" fill="none" stroke="#67594c" stroke-linecap="round" stroke-linejoin="round" stroke-width="0.05"/>
  </g>
</svg>
