<?xml version="1.0" encoding="UTF-8" standalone="no"?>
<svg xmlns:ffdec="https://www.free-decompiler.com/flash" xmlns:xlink="http://www.w3.org/1999/xlink" ffdec:objectType="shape" height="34.7px" width="145.65px" xmlns="http://www.w3.org/2000/svg">
  <g transform="matrix(1.0, 0.0, 0.0, 1.0, 72.8, 17.35)">
    <path d="M31.55 -1.75 L28.35 0.05 -5.2 -1.8 -9.45 -4.6 Q-1.5 -8.2 8.75 -7.75 20.65 -7.3 31.55 -1.75" fill="url(#gradient0)" fill-rule="evenodd" stroke="none"/>
    <path d="M-10.55 -4.1 L-5.65 -0.85 -5.4 -0.8 28.45 1.05 28.7 1.0 32.6 -1.25 33.55 -0.8 33.75 -0.75 59.75 1.0 59.7 7.8 59.7 7.85 Q36.7 8.3 5.35 6.5 L-25.5 5.1 Q-38.9 3.9 -54.45 6.1 L-25.3 -0.65 -25.15 -0.65 -11.1 -3.85 -10.9 -3.9 -10.55 -4.1 M60.75 1.05 Q68.5 1.75 71.65 4.05 69.45 5.95 60.7 7.5 L60.75 1.05 M1.1 16.2 L11.9 9.05 23.45 9.25 26.55 12.2 23.5 14.7 21.7 14.9 Q10.0 16.9 1.1 16.2" fill="#ffffff" fill-rule="evenodd" stroke="none"/>
    <path d="M59.7 7.85 L58.1 10.7 25.3 14.5 27.65 12.6 27.8 12.35 27.8 12.1 27.65 11.85 24.0 8.4 23.65 8.25 11.75 8.05 11.5 8.15 -0.55 16.05 -40.95 13.45 -41.1 13.45 -61.65 11.15 -61.7 11.15 -70.15 10.0 Q-67.0 9.0 -62.6 7.95 L-62.4 7.9 -62.3 7.9 -62.2 7.9 -61.95 7.85 -61.85 7.8 -54.45 6.1 Q-38.9 3.9 -25.5 5.1 L5.35 6.5 Q36.7 8.3 59.7 7.85 M-61.95 6.85 L-65.35 -16.3 -56.15 -15.65 -48.1 -2.4 -47.95 -2.2 -47.7 -2.15 -28.6 -0.85 -61.95 6.85 M-46.65 13.9 L-60.7 15.05 -61.15 12.25 -46.65 13.9" fill="#f88a5c" fill-rule="evenodd" stroke="none"/>
    <path d="M32.85 -2.25 L32.75 -2.25 32.35 -2.2 31.55 -1.75 Q20.65 -7.3 8.75 -7.75 -1.5 -8.2 -9.45 -4.6 L-10.2 -5.1 -10.6 -5.2 -10.65 -5.15 Q-2.25 -9.25 8.8 -8.75 21.4 -8.3 32.85 -2.25 M-10.7 -5.15 L-10.9 -4.95 -11.0 -4.6 -10.95 -4.5 -10.75 -4.25 -10.55 -4.1 -10.9 -3.9 -11.1 -3.85 -25.15 -0.65 -25.3 -0.65 -25.15 -0.65 -24.8 -0.85 Q-24.7 -1.05 -24.75 -1.25 L-24.95 -1.55 -25.35 -1.6 -28.6 -0.85 -47.7 -2.15 -47.95 -2.2 -48.1 -2.4 -56.15 -15.65 -65.35 -16.3 -61.95 6.85 -62.2 6.9 -62.45 7.0 -62.5 7.1 -62.55 7.45 -62.35 7.8 -62.0 7.85 -61.85 7.8 -61.95 7.85 -62.2 7.9 -62.3 7.9 -62.4 7.9 -62.6 7.95 Q-67.0 9.0 -70.15 10.0 L-61.7 11.15 -62.05 11.25 -62.25 11.6 -62.15 11.95 -61.8 12.15 -61.7 12.2 -61.15 12.25 -60.7 15.05 -46.65 13.9 -43.85 14.2 -41.1 14.45 -61.1 16.1 -61.45 16.0 -61.65 15.7 -62.2 12.1 -72.35 10.7 -72.65 10.55 -72.8 10.25 -72.7 9.95 -72.45 9.75 Q-68.85 8.4 -62.95 7.05 L-66.45 -16.75 -66.4 -17.05 -66.2 -17.25 -65.9 -17.35 -55.85 -16.65 -55.65 -16.55 -55.45 -16.4 -47.4 -3.1 -25.35 -1.65 -25.3 -1.65 -11.4 -4.8 -10.7 -5.15 M32.6 -1.25 L32.85 -1.35 33.05 -1.55 33.1 -1.65 33.05 -2.05 32.9 -2.2 Q33.25 -2.0 33.85 -1.75 L59.95 0.0 60.25 0.0 59.9 0.15 59.75 0.5 59.75 1.0 33.75 -0.75 33.55 -0.8 32.6 -1.25 M60.3 0.0 Q69.45 0.75 72.7 3.65 L72.85 3.95 72.75 4.3 Q71.0 6.75 60.5 8.55 L58.85 11.4 58.7 11.6 58.45 11.65 23.85 15.7 24.0 15.6 25.3 14.5 58.1 10.7 59.7 7.85 59.7 7.8 59.7 8.05 59.85 8.4 59.9 8.45 60.2 8.55 60.55 8.4 60.7 8.05 60.7 7.5 Q69.45 5.95 71.65 4.05 68.5 1.75 60.75 1.05 L60.75 0.5 60.6 0.15 Q60.45 0.0 60.3 0.0 M23.6 15.7 L21.85 15.9 Q9.45 18.0 0.15 17.1 L-0.3 17.05 -0.1 17.0 1.1 16.2 Q10.0 16.9 21.7 14.9 L23.5 14.7 23.35 14.85 23.15 15.15 23.15 15.25 23.3 15.55 23.6 15.7 M-0.5 17.05 L-41.05 14.45 -40.7 14.35 -40.55 14.0 -40.65 13.65 -40.95 13.45 -0.55 16.05 -0.65 16.15 -0.9 16.45 -0.9 16.55 -0.8 16.85 -0.5 17.05" fill="#000000" fill-rule="evenodd" stroke="none"/>
    <path d="M31.55 -1.75 L32.35 -2.2 32.75 -2.25 32.85 -2.25 32.85 -2.2 32.9 -2.2 33.05 -2.05 33.1 -1.65 33.05 -1.55 32.85 -1.35 32.6 -1.25 28.7 1.0 28.45 1.05 -5.4 -0.8 -5.65 -0.85 -10.55 -4.1 -10.75 -4.25 -10.95 -4.5 -11.0 -4.6 -10.9 -4.95 -10.7 -5.15 -10.65 -5.15 -10.6 -5.2 -10.2 -5.1 -9.45 -4.6 -5.2 -1.8 28.35 0.05 31.55 -1.75 M60.25 0.0 L60.3 0.0 Q60.45 0.0 60.6 0.15 L60.75 0.5 60.75 1.05 60.7 7.5 60.7 8.05 60.55 8.4 60.2 8.55 59.9 8.45 59.85 8.4 59.7 8.05 59.7 7.8 59.75 1.0 59.75 0.5 59.9 0.15 60.25 0.0 M-41.05 14.45 L-41.1 14.45 -43.85 14.2 -46.65 13.9 -61.15 12.25 -61.7 12.2 -61.8 12.15 -62.15 11.95 -62.25 11.6 -62.05 11.25 -61.7 11.15 -61.65 11.15 -41.1 13.45 -40.95 13.45 -40.65 13.65 -40.55 14.0 -40.7 14.35 -41.05 14.45 M-54.45 6.1 L-61.85 7.8 -62.0 7.85 -62.35 7.8 -62.55 7.45 -62.5 7.1 -62.45 7.0 -62.2 6.9 -61.95 6.85 -28.6 -0.85 -25.35 -1.6 -24.95 -1.55 -24.75 -1.25 Q-24.7 -1.05 -24.8 -0.85 L-25.15 -0.65 -25.3 -0.65 -54.45 6.1" fill="#666666" fill-rule="evenodd" stroke="none"/>
    <path d="M23.85 15.7 L23.6 15.7 23.3 15.55 23.15 15.25 23.15 15.15 23.35 14.85 23.5 14.7 26.55 12.2 23.45 9.25 11.9 9.05 1.1 16.2 -0.1 17.0 -0.3 17.05 -0.5 17.05 -0.8 16.85 -0.9 16.55 -0.9 16.45 -0.65 16.15 -0.55 16.05 11.5 8.15 11.75 8.05 23.65 8.25 24.0 8.4 27.65 11.85 27.8 12.1 27.8 12.35 27.65 12.6 25.3 14.5 24.0 15.6 23.85 15.7" fill="#515151" fill-rule="evenodd" stroke="none"/>
  </g>
  <defs>
    <radialGradient cx="0" cy="0" gradientTransform="matrix(-0.0572, 0.0, 0.0, 0.0266, 7.4, 7.15)" gradientUnits="userSpaceOnUse" id="gradient0" r="819.2" spreadMethod="pad">
      <stop offset="0.5725490196078431" stop-color="#a0bcce"/>
      <stop offset="0.6745098039215687" stop-color="#ffffff"/>
    </radialGradient>
  </defs>
</svg>
