<?xml version="1.0" encoding="UTF-8" standalone="no"?>
<svg xmlns:ffdec="https://www.free-decompiler.com/flash" xmlns:xlink="http://www.w3.org/1999/xlink" ffdec:objectType="shape" height="162.4px" width="152.8px" xmlns="http://www.w3.org/2000/svg">
  <g transform="matrix(1.0, 0.0, 0.0, 1.0, 76.4, 81.2)">
    <path d="M68.55 -81.2 L69.8 -80.9 Q72.7 -79.65 72.8 -75.15 72.85 -70.7 75.0 -61.9 L74.75 -61.7 71.4 -66.6 Q69.35 -69.2 67.65 -69.95 L67.6 -69.95 67.7 -70.65 68.55 -81.2" fill="#586568" fill-rule="evenodd" stroke="none"/>
    <path d="M-14.35 27.1 L-44.15 27.1 -43.45 25.05 Q-38.65 10.75 -31.55 3.95 -24.45 -2.9 -23.3 -6.05 -22.2 -9.25 -18.05 -15.8 -13.95 -22.35 -8.9 -27.95 -3.85 -33.55 0.2 -36.95 4.2 -40.4 8.85 -45.85 13.45 -51.3 20.0 -53.55 26.55 -55.8 35.0 -61.0 43.45 -66.25 50.55 -70.25 L55.8 -73.6 62.3 -78.5 Q65.9 -81.45 68.55 -81.2 L67.7 -70.65 67.6 -69.95 67.45 -70.0 67.4 -70.25 67.4 -70.05 66.35 -70.25 Q65.6 -70.25 62.15 -69.1 58.95 -68.05 55.4 -68.3 53.9 -68.4 50.65 -65.75 L46.65 -62.15 Q44.15 -60.0 42.15 -56.7 41.15 -55.0 40.15 -54.75 38.2 -54.35 36.75 -53.45 33.15 -51.25 30.25 -48.0 L25.05 -42.5 Q19.2 -37.4 2.85 -20.25 L-1.4 -15.1 Q-4.5 -11.0 -4.9 -9.65 -6.5 -4.2 -10.65 5.85 -10.65 6.8 -9.2 9.45 -7.8 12.1 -7.8 12.65 -7.8 16.65 -13.6 26.2 L-14.35 27.1 M16.6 -45.4 Q15.45 -45.4 14.65 -44.6 13.85 -43.8 13.85 -42.65 13.85 -41.5 14.65 -40.7 15.45 -39.9 16.6 -39.9 L16.75 -39.9 18.3 -42.8 18.95 -44.1 18.55 -44.6 Q17.75 -45.4 16.6 -45.4 M10.55 -42.8 Q11.6 -44.75 16.3 -46.7 22.15 -49.1 23.15 -48.95 20.2 -46.15 18.95 -44.1 20.2 -46.15 23.15 -48.95 22.15 -49.1 16.3 -46.7 11.6 -44.75 10.55 -42.8 M14.1 -36.35 L16.75 -39.9 14.1 -36.35" fill="#788391" fill-rule="evenodd" stroke="none"/>
    <path d="M75.0 -61.2 Q75.15 -54.85 75.7 -48.6 L76.2 -41.85 Q76.65 -35.6 76.0 -29.35 L75.85 -28.7 75.85 -28.85 75.8 -28.7 75.85 -28.85 75.85 -28.7 75.85 -28.55 75.75 -27.95 75.7 -27.85 75.75 -27.95 75.65 -27.55 75.7 -27.85 75.75 -28.15 75.8 -28.45 75.85 -28.55 75.8 -28.45 75.75 -28.15 75.8 -28.7 75.75 -28.15 75.6 -27.5 75.8 -28.75 Q75.2 -32.55 72.2 -35.55 66.7 -41.05 60.5 -42.2 L48.4 -43.75 Q42.5 -44.1 36.35 -38.8 30.75 -34.7 27.55 -31.15 L27.45 -31.0 Q25.95 -29.4 25.0 -27.85 L23.85 -26.2 Q21.1 -22.6 17.4 -20.45 L15.9 -19.55 15.8 -19.5 15.65 -19.35 Q12.5 -17.2 11.2 -14.4 10.35 -12.55 10.0 -9.75 L9.95 -9.6 Q9.6 -7.15 9.6 -3.95 9.6 -0.85 10.05 1.95 L10.05 2.15 Q10.45 4.75 11.25 7.1 L11.8 8.65 Q12.95 11.7 14.8 13.55 L15.85 14.45 Q17.0 15.25 18.35 15.7 L18.95 15.85 19.95 16.15 Q23.65 17.2 25.4 17.95 27.05 18.7 36.0 21.6 44.95 24.5 53.05 23.6 61.1 22.7 62.2 21.25 63.25 19.75 63.3 18.65 L64.55 17.85 64.35 20.0 63.45 27.1 6.7 27.1 -4.65 27.1 -4.9 21.4 Q-4.85 16.65 -2.95 16.65 L-1.65 16.85 -0.8 17.15 Q-0.65 13.5 0.9 10.2 2.3 7.25 2.1 4.4 L5.3 7.3 4.85 -6.25 Q4.85 -16.1 16.05 -27.75 22.05 -33.95 31.8 -41.85 35.4 -45.3 40.6 -49.1 L50.15 -56.0 Q52.55 -57.8 56.2 -58.85 L61.8 -60.4 Q66.45 -62.05 67.4 -70.0 L67.45 -70.0 67.6 -67.85 67.65 -69.95 Q69.35 -69.2 71.4 -66.6 L74.75 -61.7 75.0 -61.2 M6.7 27.1 L5.4 25.9 0.6 20.7 Q-0.9 18.85 -1.65 16.85 -0.9 18.85 0.6 20.7 L5.4 25.9 6.7 27.1 M75.8 -28.7 L75.8 -28.75 75.8 -28.7 75.85 -28.55 75.8 -28.7 M75.85 -28.35 L75.85 -28.45 75.9 -28.55 75.85 -28.35" fill="#c1afa4" fill-rule="evenodd" stroke="none"/>
    <path d="M-4.65 27.1 L-14.35 27.1 -13.6 26.2 Q-7.8 16.65 -7.8 12.65 -7.8 12.1 -9.2 9.45 -10.65 6.8 -10.65 5.85 -6.5 -4.2 -4.9 -9.65 -4.5 -11.0 -1.4 -15.1 L2.85 -20.25 Q19.2 -37.4 25.05 -42.5 L30.25 -48.0 Q33.15 -51.25 36.75 -53.45 38.2 -54.35 40.15 -54.75 41.15 -55.0 42.15 -56.7 44.15 -60.0 46.65 -62.15 L50.65 -65.75 Q53.9 -68.4 55.4 -68.3 58.95 -68.05 62.15 -69.1 65.6 -70.25 66.35 -70.25 L67.4 -70.05 67.4 -70.25 67.45 -70.0 67.6 -69.95 Q67.55 -68.95 67.45 -70.0 L67.4 -70.0 Q66.45 -62.05 61.8 -60.4 L56.2 -58.85 Q52.55 -57.8 50.15 -56.0 L40.6 -49.1 Q35.4 -45.3 31.8 -41.85 22.05 -33.95 16.05 -27.75 4.85 -16.1 4.85 -6.25 L5.3 7.3 2.1 4.4 Q2.3 7.25 0.9 10.2 -0.65 13.5 -0.8 17.15 L-1.65 16.85 -2.95 16.65 Q-4.85 16.65 -4.9 21.4 L-4.65 27.1 M44.15 -37.15 Q45.1 -38.95 48.1 -38.95 L50.4 -38.45 50.65 -37.45 47.4 -30.4 44.3 -36.4 44.15 -37.15 M17.05 -44.45 Q17.55 -44.3 17.55 -43.6 17.55 -42.65 16.6 -42.65 L16.4 -42.65 16.15 -42.65 Q15.35 -42.65 15.15 -43.2 L15.1 -43.85 Q15.1 -45.0 16.1 -45.0 16.75 -45.0 17.05 -44.45 M-2.35 13.9 L-1.65 16.85 -2.35 13.9" fill="#ffffff" fill-rule="evenodd" stroke="none"/>
    <path d="M76.0 -29.35 Q76.05 -29.95 76.15 -28.95 L75.95 -28.6 75.85 -28.35 75.9 -28.55 75.85 -28.45 75.85 -28.55 75.85 -28.45 75.75 -27.95 75.85 -28.55 75.85 -28.7 76.0 -29.35 M75.75 -28.15 L75.7 -27.85 75.6 -27.5 75.75 -28.15 M75.9 -28.55 L75.85 -28.7 75.9 -28.55" fill="#fd3535" fill-rule="evenodd" stroke="none"/>
    <path d="M26.5 -22.4 L24.8 -23.95 Q25.0 -24.65 25.45 -25.0 25.85 -25.4 26.5 -25.45 L28.3 -25.45 28.4 -24.1 28.65 -20.45 26.5 -22.4 M30.45 -26.2 L28.85 -28.45 29.45 -29.2 29.5 -29.2 30.6 -29.5 32.4 -29.15 32.4 -28.8 32.4 -28.6 32.25 -23.65 30.45 -26.2 M37.25 -32.05 L37.15 -32.15 36.0 -33.1 Q36.15 -34.0 37.55 -35.05 38.95 -36.1 39.7 -36.1 L41.85 -35.6 41.85 -35.2 41.85 -35.05 41.85 -28.1 37.25 -32.05 M53.1 -37.9 Q54.8 -39.5 56.3 -39.6 57.75 -39.7 61.1 -37.9 L61.1 -37.35 60.95 -37.0 57.5 -29.1 53.1 -37.9 M63.05 -35.8 Q66.75 -36.3 68.6 -32.9 L68.35 -32.35 65.4 -27.05 63.05 -35.8 M70.0 -31.7 L70.05 -31.7 Q73.05 -31.95 73.05 -28.1 L72.9 -27.95 72.95 -27.95 Q74.9 -26.4 74.55 -25.15 L73.0 -23.8 71.75 -22.7 71.6 -22.6 71.8 -27.15 69.65 -25.6 70.0 -31.65 70.0 -31.7 M18.25 -16.05 L16.9 -16.85 Q16.75 -17.3 17.2 -17.6 L18.75 -18.05 19.4 -16.8 20.45 -14.75 18.25 -16.05 M22.75 -19.1 L21.6 -20.05 Q21.95 -21.1 24.1 -21.3 L24.15 -21.3 24.4 -20.5 25.3 -17.05 22.75 -19.1 M44.9 8.75 L46.55 6.1 47.7 13.2 44.75 13.25 Q43.6 12.8 42.95 11.85 L44.9 8.75 M50.6 13.85 L53.45 7.35 54.45 14.2 53.6 14.15 50.6 13.85 M58.05 14.95 L58.7 14.25 60.95 11.65 61.1 16.85 59.25 15.5 58.05 14.95 M72.9 -27.95 L71.8 -27.15 72.9 -27.95 M40.9 11.55 L41.0 11.85 Q40.5 11.85 39.7 12.3 L37.8 12.7 Q36.7 12.7 35.8 12.0 L35.95 11.65 38.3 4.9 40.9 11.55 M33.6 11.9 L33.4 12.05 Q31.4 13.7 29.55 13.35 L27.15 12.8 30.15 9.0 32.95 5.4 33.6 11.9 M20.65 13.65 L19.5 13.8 17.0 13.05 18.5 9.35 20.65 13.65" fill="#e1e1e1" fill-rule="evenodd" stroke="none"/>
    <path d="M72.2 -13.7 L70.75 -9.15 Q65.9 5.3 64.55 17.85 L63.3 18.65 61.1 16.85 60.95 11.65 58.7 14.25 58.05 14.95 Q56.5 14.4 54.55 14.2 L54.45 14.2 53.45 7.35 50.6 13.85 47.85 13.25 47.7 13.2 46.55 6.1 44.9 8.75 44.15 8.25 Q44.15 6.25 42.55 4.9 L39.85 2.7 37.4 0.8 Q34.75 -1.2 33.35 -1.55 L28.85 -1.7 Q27.45 -1.7 26.2 -2.8 24.95 -3.85 21.45 -3.85 18.6 -3.85 15.5 -2.7 12.55 -1.6 12.15 -0.35 L10.05 1.95 Q9.6 -0.85 9.6 -3.95 9.6 -7.15 9.95 -9.6 L10.0 -9.75 10.05 -7.95 Q13.65 -12.75 16.85 -15.15 L17.65 -15.65 18.25 -16.05 20.45 -14.75 19.4 -16.8 22.1 -18.65 22.75 -19.1 25.3 -17.05 24.4 -20.5 25.15 -21.15 26.45 -22.35 26.5 -22.4 28.65 -20.45 28.4 -24.1 30.45 -26.2 32.25 -23.65 32.4 -28.6 32.6 -28.8 32.65 -28.85 Q33.75 -29.9 35.4 -30.9 L36.8 -31.75 37.25 -32.05 41.85 -28.1 41.85 -35.05 42.1 -35.2 44.3 -36.4 47.4 -30.4 50.65 -37.45 53.1 -37.55 53.1 -37.9 57.5 -29.1 60.95 -37.0 61.0 -37.0 62.05 -36.6 62.45 -36.3 63.05 -35.8 65.4 -27.05 68.35 -32.35 68.4 -32.35 69.6 -31.85 69.95 -31.7 70.0 -31.65 69.65 -25.6 71.8 -27.15 71.6 -22.6 71.75 -22.7 73.0 -23.8 73.05 -23.55 72.8 -21.5 71.6 -18.8 72.2 -13.7 M30.35 -11.3 L38.0 -10.45 Q45.9 -7.35 48.75 -5.65 49.65 -5.3 54.4 1.5 57.5 6.1 58.7 14.25 57.5 6.1 54.4 1.5 49.65 -5.3 48.75 -5.65 45.9 -7.35 38.0 -10.45 L30.35 -11.3" fill="#7e0101" fill-rule="evenodd" stroke="none"/>
    <path d="M32.4 -29.15 L32.65 -28.85 32.6 -28.8 32.4 -28.8 32.4 -29.15 M41.0 11.85 L41.05 11.55 41.0 11.85" fill="#b10101" fill-rule="evenodd" stroke="none"/>
    <path d="M73.05 -28.1 L72.95 -27.95 72.9 -27.95 73.05 -28.1 M32.4 -28.6 L32.4 -28.8 32.6 -28.8 32.4 -28.6" fill="#fd0b0b" fill-rule="evenodd" stroke="none"/>
    <path d="M16.6 -45.4 Q17.75 -45.4 18.55 -44.6 L18.95 -44.1 18.3 -42.8 16.75 -39.9 16.6 -39.9 Q15.45 -39.9 14.65 -40.7 13.85 -41.5 13.85 -42.65 13.85 -43.8 14.65 -44.6 15.45 -45.4 16.6 -45.4 M17.05 -44.45 Q16.75 -45.0 16.1 -45.0 15.1 -45.0 15.1 -43.85 L15.15 -43.2 Q15.35 -42.65 16.15 -42.65 L16.4 -42.65 16.6 -42.65 Q17.55 -42.65 17.55 -43.6 17.55 -44.3 17.05 -44.45" fill="#000000" fill-rule="evenodd" stroke="none"/>
    <path d="M10.05 1.95 L12.15 -0.35 Q12.55 -1.6 15.5 -2.7 18.6 -3.85 21.45 -3.85 24.95 -3.85 26.2 -2.8 27.45 -1.7 28.85 -1.7 L33.35 -1.55 Q34.75 -1.2 37.4 0.8 L39.85 2.7 38.3 4.9 35.95 11.65 35.8 11.7 33.6 11.9 32.95 5.4 30.15 9.0 24.3 6.95 Q21.4 5.95 16.8 5.95 L14.35 6.35 11.25 7.1 Q10.45 4.75 10.05 2.15 L10.05 1.95" fill="#540101" fill-rule="evenodd" stroke="none"/>
    <path d="M62.05 -36.6 L62.1 -36.55 62.45 -36.3 62.05 -36.6" fill="#990000" fill-rule="evenodd" stroke="none"/>
    <path d="M41.85 -35.2 L42.1 -35.2 41.85 -35.05 41.85 -35.2 M61.1 -37.35 L61.0 -37.0 60.95 -37.0 61.1 -37.35" fill="#993333" fill-rule="evenodd" stroke="none"/>
    <path d="M39.85 2.7 L42.55 4.9 Q44.15 6.25 44.15 8.25 L44.9 8.75 42.95 11.85 41.05 11.55 40.9 11.55 38.3 4.9 39.85 2.7" fill="#5c0101" fill-rule="evenodd" stroke="none"/>
    <path d="M14.8 13.55 Q12.95 11.7 11.8 8.65 L11.25 7.1 14.35 6.35 16.8 5.95 Q21.4 5.95 24.3 6.95 L30.15 9.0 27.15 12.8 20.65 13.65 18.5 9.35 17.0 13.05 16.55 12.9 15.3 12.9 14.8 13.55" fill="#3c0000" fill-rule="evenodd" stroke="none"/>
    <path d="M75.85 -28.35 L75.65 -27.15 75.25 -25.05 75.25 -25.0 74.35 -21.2 74.35 -21.1 72.2 -13.7 71.6 -18.8 72.8 -21.5 73.05 -23.55 73.0 -23.8 74.55 -25.15 Q74.9 -26.4 72.95 -27.95 L73.05 -28.1 Q73.05 -31.95 70.05 -31.7 L70.0 -31.7 69.95 -31.7 69.6 -31.85 68.4 -32.35 68.35 -32.35 68.6 -32.9 Q66.75 -36.3 63.05 -35.8 L62.8 -36.2 62.1 -36.55 62.05 -36.6 61.0 -37.0 61.1 -37.35 61.1 -37.9 Q57.75 -39.7 56.3 -39.6 54.8 -39.5 53.1 -37.9 L53.1 -37.55 50.65 -37.45 51.0 -38.2 50.4 -38.45 48.1 -38.95 Q45.1 -38.95 44.15 -37.15 L44.05 -36.9 44.3 -36.4 42.1 -35.2 41.85 -35.2 41.85 -35.6 39.7 -36.1 Q38.95 -36.1 37.55 -35.05 36.15 -34.0 36.0 -33.1 L37.15 -32.15 37.25 -32.05 36.8 -31.75 35.4 -30.9 Q33.75 -29.9 32.65 -28.85 L32.4 -29.15 30.6 -29.5 29.5 -29.2 29.45 -29.2 28.85 -28.45 30.45 -26.2 28.4 -24.1 28.3 -25.45 26.5 -25.45 Q25.85 -25.4 25.45 -25.0 25.0 -24.65 24.8 -23.95 L26.5 -22.4 26.45 -22.35 25.15 -21.15 24.4 -20.5 24.15 -21.3 24.1 -21.3 Q21.95 -21.1 21.6 -20.05 L22.75 -19.1 22.1 -18.65 19.4 -16.8 18.75 -18.05 17.2 -17.6 Q16.75 -17.3 16.9 -16.85 L18.25 -16.05 17.65 -15.65 16.85 -15.15 Q13.65 -12.75 10.05 -7.95 L10.0 -9.75 Q10.35 -12.55 11.2 -14.4 12.5 -17.2 15.65 -19.35 L15.8 -19.5 15.9 -19.55 17.4 -20.45 Q21.1 -22.6 23.85 -26.2 L25.0 -27.85 Q25.95 -29.4 27.45 -31.0 L27.55 -31.15 Q30.75 -34.7 36.35 -38.8 42.5 -44.1 48.4 -43.75 L60.5 -42.2 Q66.7 -41.05 72.2 -35.55 75.2 -32.55 75.8 -28.75 L75.6 -27.5 75.7 -27.85 75.65 -27.55 75.75 -27.95 75.85 -28.45 75.85 -28.35 M47.7 13.2 L47.85 13.25 50.6 13.85 53.6 14.15 54.45 14.2 54.55 14.2 Q56.5 14.4 58.05 14.95 L59.25 15.5 61.1 16.85 63.3 18.65 Q63.25 19.75 62.2 21.25 61.1 22.7 53.05 23.6 44.95 24.5 36.0 21.6 27.05 18.7 25.4 17.95 23.65 17.2 19.95 16.15 L18.95 15.85 18.35 15.7 Q17.0 15.25 15.85 14.45 L14.8 13.55 15.3 12.9 16.55 12.9 17.0 13.05 19.5 13.8 20.65 13.65 27.15 12.8 29.55 13.35 Q31.4 13.7 33.4 12.05 L33.6 11.9 35.8 11.7 35.8 12.0 Q36.7 12.7 37.8 12.7 L39.7 12.3 Q40.5 11.85 41.0 11.85 L41.05 11.55 42.95 11.85 Q43.6 12.8 44.75 13.25 L47.7 13.2" fill="#ff6666" fill-rule="evenodd" stroke="none"/>
    <path d="M26.5 -22.4 L24.8 -23.95 Q25.0 -24.65 25.45 -25.0 25.85 -25.4 26.5 -25.45 L28.3 -25.45 28.4 -24.1 30.45 -26.2 28.85 -28.45 29.45 -29.2 29.5 -29.2 30.6 -29.5 32.4 -29.15 32.4 -28.8 32.4 -28.6 32.6 -28.8 32.65 -28.85 Q33.75 -29.9 35.4 -30.9 L36.8 -31.75 37.25 -32.05 37.15 -32.15 36.0 -33.1 Q36.15 -34.0 37.55 -35.05 38.95 -36.1 39.7 -36.1 L41.85 -35.6 41.85 -35.2 41.85 -35.05 42.1 -35.2 44.3 -36.4 44.05 -36.9 44.15 -37.15 Q45.1 -38.95 48.1 -38.95 L50.4 -38.45 M51.0 -38.2 L50.65 -37.45 53.1 -37.55 M10.05 -7.95 Q13.65 -12.75 16.85 -15.15 L17.65 -15.65 18.25 -16.05 16.9 -16.85 Q16.75 -17.3 17.2 -17.6 L18.75 -18.05 19.4 -16.8 22.1 -18.65 22.75 -19.1 21.6 -20.05 Q21.95 -21.1 24.1 -21.3 L24.15 -21.3 24.4 -20.5 25.15 -21.15 26.45 -22.35 26.5 -22.4 28.65 -20.45 28.4 -24.1 M16.6 -45.4 Q15.45 -45.4 14.65 -44.6 13.85 -43.8 13.85 -42.65 13.85 -41.5 14.65 -40.7 15.45 -39.9 16.6 -39.9 L16.75 -39.9 18.3 -42.8 18.95 -44.1 18.55 -44.6 Q17.75 -45.4 16.6 -45.4 M16.75 -39.9 L14.1 -36.35 M24.4 -20.5 L25.3 -17.05 22.75 -19.1 M32.4 -28.6 L32.25 -23.65 30.45 -26.2 M19.4 -16.8 L20.45 -14.75 18.25 -16.05 M50.65 -37.45 L47.4 -30.4 44.3 -36.4 M37.25 -32.05 L41.85 -28.1 41.85 -35.05 M-1.65 16.85 L-2.35 13.9" fill="none" stroke="#000000" stroke-linecap="round" stroke-linejoin="round" stroke-width="0.05"/>
    <path d="M75.95 -28.6 L75.85 -28.35 75.85 -28.45 75.85 -28.55 75.8 -28.7 75.8 -28.75 Q75.2 -32.55 72.2 -35.55 66.7 -41.05 60.5 -42.2 L48.4 -43.75 Q42.5 -44.1 36.35 -38.8 30.75 -34.7 27.55 -31.15 L27.45 -31.0 Q25.95 -29.4 25.0 -27.85 L23.85 -26.2 Q21.1 -22.6 17.4 -20.45 L15.9 -19.55 15.8 -19.5 15.65 -19.35 Q12.5 -17.2 11.2 -14.4 10.35 -12.55 10.0 -9.75 L9.95 -9.6 Q9.6 -7.15 9.6 -3.95 9.6 -0.85 10.05 1.95 M-1.65 16.85 Q-0.9 18.85 0.6 20.7 L5.4 25.9 6.7 27.1 M18.95 -44.1 Q20.2 -46.15 23.15 -48.95 22.15 -49.1 16.3 -46.7 11.6 -44.75 10.55 -42.8 M63.3 18.65 Q63.25 19.75 62.2 21.25 61.1 22.7 53.05 23.6 44.95 24.5 36.0 21.6 27.05 18.7 25.4 17.95 23.65 17.2 19.95 16.15 L18.95 15.85 18.35 15.7 Q17.0 15.25 15.85 14.45 L14.8 13.55 Q12.95 11.7 11.8 8.65 L11.25 7.1" fill="none" stroke="#333333" stroke-linecap="round" stroke-linejoin="round" stroke-width="0.05"/>
    <path d="M10.05 1.95 L12.15 -0.35 Q12.55 -1.6 15.5 -2.7 18.6 -3.85 21.45 -3.85 24.95 -3.85 26.2 -2.8 27.45 -1.7 28.85 -1.7 L33.35 -1.55 Q34.75 -1.2 37.4 0.8 L39.85 2.7 42.55 4.9 Q44.15 6.25 44.15 8.25 M58.7 14.25 Q57.5 6.1 54.4 1.5 49.65 -5.3 48.75 -5.65 45.9 -7.35 38.0 -10.45 L30.35 -11.3" fill="none" stroke="#2b0000" stroke-linecap="round" stroke-linejoin="round" stroke-width="0.05"/>
    <path d="M68.55 -81.2 L69.8 -80.9 Q72.7 -79.65 72.8 -75.15 72.85 -70.7 75.0 -61.9 L75.0 -61.2 Q75.15 -54.85 75.7 -48.6 L76.2 -41.85 Q76.65 -35.6 76.0 -29.35 76.05 -29.95 76.15 -28.95 L75.95 -28.6 M75.85 -28.35 L75.65 -27.15 75.25 -25.05 75.25 -25.0 74.35 -21.2 74.35 -21.1 72.2 -13.7 70.75 -9.15 Q65.9 5.3 64.55 17.85 L64.35 20.0 63.45 27.1 M-44.15 27.1 L-43.45 25.05 Q-38.65 10.75 -31.55 3.95 -24.45 -2.9 -23.3 -6.05 -22.2 -9.25 -18.05 -15.8 -13.95 -22.35 -8.9 -27.95 -3.85 -33.55 0.2 -36.95 4.2 -40.4 8.85 -45.85 13.45 -51.3 20.0 -53.55 26.55 -55.8 35.0 -61.0 43.45 -66.25 50.55 -70.25 L55.8 -73.6 62.3 -78.5 Q65.9 -81.45 68.55 -81.2 M75.0 -61.2 L74.75 -61.7 M53.1 -37.9 Q54.8 -39.5 56.3 -39.6 57.75 -39.7 61.1 -37.9 L61.1 -37.35 60.95 -37.0 57.5 -29.1 53.1 -37.9 M61.0 -37.0 L62.05 -36.6 62.1 -36.55 62.8 -36.2 63.05 -35.8 Q66.75 -36.3 68.6 -32.9 L68.35 -32.35 68.4 -32.35 69.6 -31.85 69.95 -31.7 70.0 -31.7 70.05 -31.7 Q73.05 -31.95 73.05 -28.1 L72.9 -27.95 72.95 -27.95 Q74.9 -26.4 74.55 -25.15 L73.0 -23.8 73.05 -23.55 72.8 -21.5 71.6 -18.8 72.2 -13.7 M44.9 8.75 L46.55 6.1 47.7 13.2 47.85 13.25 50.6 13.85 53.45 7.35 54.45 14.2 54.55 14.2 Q56.5 14.4 58.05 14.95 L58.7 14.25 60.95 11.65 61.1 16.85 59.25 15.5 58.05 14.95 M70.0 -31.65 L70.0 -31.7 M69.95 -31.7 L70.0 -31.65 69.65 -25.6 71.8 -27.15 72.9 -27.95 M63.05 -35.8 L65.4 -27.05 68.35 -32.35 M60.95 -37.0 L61.0 -37.0 M75.8 -28.7 L75.85 -28.85 75.85 -28.7 76.0 -29.35 M75.85 -28.35 L75.9 -28.55 75.85 -28.45 75.75 -27.95 75.65 -27.55 75.7 -27.85 75.6 -27.5 75.75 -28.15 75.7 -27.85 75.75 -27.95 75.85 -28.55 75.8 -28.45 75.75 -28.15 75.8 -28.7 M75.85 -28.7 L75.85 -28.55 M75.85 -28.7 L75.9 -28.55 M73.0 -23.8 L71.75 -22.7 71.6 -22.6 71.8 -27.15 M64.55 17.85 L63.3 18.65 61.1 16.85 M11.25 7.1 Q10.45 4.75 10.05 2.15 L10.05 1.95 M40.9 11.55 L41.0 11.85 Q40.5 11.85 39.7 12.3 L37.8 12.7 Q36.7 12.7 35.8 12.0 L35.95 11.65 35.8 11.7 33.6 11.9 32.95 5.4 30.15 9.0 27.15 12.8 20.65 13.65 19.5 13.8 17.0 13.05 16.55 12.9 15.3 12.9 M41.05 11.55 L40.9 11.55 38.3 4.9 35.95 11.65 M41.05 11.55 L42.95 11.85 44.9 8.75 M42.95 11.85 Q43.6 12.8 44.75 13.25 L47.7 13.2 M50.6 13.85 L53.6 14.15 54.45 14.2 M33.6 11.9 L33.4 12.05 Q31.4 13.7 29.55 13.35 L27.15 12.8 M30.15 9.0 L24.3 6.95 Q21.4 5.95 16.8 5.95 L14.35 6.35 11.25 7.1 M17.0 13.05 L18.5 9.35 20.65 13.65" fill="none" stroke="#333333" stroke-linecap="round" stroke-linejoin="round" stroke-width="0.05"/>
    <path d="M63.45 27.1 Q61.85 35.8 58.3 42.0 53.35 50.6 49.25 54.7 47.0 56.85 43.45 62.45 L43.3 62.7 Q44.4 65.65 46.65 70.35 L47.5 73.9 47.55 74.2 46.95 74.25 36.7 74.2 36.1 75.3 11.7 77.55 Q-6.9 77.55 -36.25 76.55 -37.3 76.5 -38.3 81.2 L-37.55 73.95 36.7 74.2 -37.55 73.95 -37.1 71.85 Q-35.9 68.8 -32.4 70.45 -30.3 64.3 -28.5 60.7 -25.05 53.95 -19.2 53.0 -18.85 48.15 -18.05 44.8 -16.55 38.4 -12.9 38.4 -11.75 38.4 -9.75 39.3 -9.75 30.85 -9.3 27.55 L-4.6 27.55 -4.65 27.1 6.7 27.1 63.45 27.1 M58.95 30.0 L58.95 30.7 55.3 32.9 Q53.35 34.2 50.85 34.2 48.1 34.2 44.1 31.55 40.0 28.9 37.05 28.75 26.05 29.2 20.55 28.75 L12.3 28.8 Q8.85 28.65 6.7 27.1 8.85 28.65 12.3 28.8 L20.55 28.75 Q26.05 29.2 37.05 28.75 40.0 28.9 44.1 31.55 48.1 34.2 50.85 34.2 53.35 34.2 55.3 32.9 L58.95 30.7 58.95 30.0 M43.3 62.7 Q40.4 67.15 36.7 74.2 40.4 67.15 43.3 62.7 M-8.8 36.85 Q-6.95 38.1 -0.9 42.85 4.3 46.9 6.75 48.4 14.05 52.9 35.25 52.9 44.7 52.9 45.45 52.0 44.7 52.9 35.25 52.9 14.05 52.9 6.75 48.4 4.3 46.9 -0.9 42.85 -6.95 38.1 -8.8 36.85" fill="#c1afa4" fill-rule="evenodd" stroke="none"/>
    <path d="M47.5 73.9 L47.6 74.2 47.55 74.2 47.5 73.9 M36.1 75.3 L36.7 74.2 46.95 74.25 41.8 74.75 36.1 75.3 M-14.35 27.1 L-17.5 29.75 Q-21.4 32.85 -23.55 35.2 -27.0 39.0 -30.65 47.4 L-34.95 58.15 -35.55 58.15 Q-44.75 62.55 -52.1 73.9 L-56.95 73.85 -52.1 73.9 -53.35 75.95 -58.45 75.7 -56.95 73.85 -75.15 73.8 -65.4 65.9 -50.6 55.9 -49.4 50.65 Q-48.35 40.15 -44.15 27.1 L-14.35 27.1 M-56.95 73.85 Q-54.85 70.85 -53.35 66.15 L-50.6 55.9 -53.35 66.15 Q-54.85 70.85 -56.95 73.85" fill="#788391" fill-rule="evenodd" stroke="none"/>
    <path d="M-37.55 73.95 L-38.3 81.2 Q-46.65 76.2 -53.35 75.95 L-52.1 73.9 Q-44.75 62.55 -35.55 58.15 L-34.95 58.15 -30.65 47.4 Q-27.0 39.0 -23.55 35.2 -21.4 32.85 -17.5 29.75 L-14.35 27.1 -4.65 27.1 -4.6 27.55 -9.3 27.55 Q-9.75 30.85 -9.75 39.3 -11.75 38.4 -12.9 38.4 -16.55 38.4 -18.05 44.8 -18.85 48.15 -19.2 53.0 -25.05 53.95 -28.5 60.7 -30.3 64.3 -32.4 70.45 -35.9 68.8 -37.1 71.85 L-37.55 73.95 -52.1 73.9 -37.55 73.95" fill="#ffffff" fill-rule="evenodd" stroke="none"/>
    <path d="M63.45 27.1 Q61.85 35.8 58.3 42.0 53.35 50.6 49.25 54.7 47.0 56.85 43.45 62.45 L43.3 62.7 Q44.4 65.65 46.65 70.35 L47.5 73.9 47.6 74.2 47.65 74.25 M6.7 27.1 Q8.85 28.65 12.3 28.8 L20.55 28.75 Q26.05 29.2 37.05 28.75 40.0 28.9 44.1 31.55 48.1 34.2 50.85 34.2 53.35 34.2 55.3 32.9 L58.95 30.7 58.95 30.0 M36.1 75.3 L36.7 74.2 Q40.4 67.15 43.3 62.7 M45.45 52.0 Q44.7 52.9 35.25 52.9 14.05 52.9 6.75 48.4 4.3 46.9 -0.9 42.85 -6.95 38.1 -8.8 36.85 M-44.15 27.1 Q-48.35 40.15 -49.4 50.65 L-50.6 55.9 -53.35 66.15 Q-54.85 70.85 -56.95 73.85 L-58.45 75.7 M-52.1 73.9 Q-44.75 62.55 -35.55 58.15 L-34.95 58.15 M-75.15 73.8 L-65.4 65.9 -50.6 55.9" fill="none" stroke="#333333" stroke-linecap="round" stroke-linejoin="round" stroke-width="0.05"/>
    <path d="M47.65 74.25 L50.7 74.25 M36.7 74.2 L-37.55 73.95 -52.1 73.9 -56.95 73.85 -75.15 73.8 -76.25 73.8 M46.95 74.25 L36.7 74.2 M46.95 74.25 L47.65 74.25" fill="none" stroke="#666666" stroke-linecap="round" stroke-linejoin="round" stroke-width="0.05"/>
    <path d="M-53.35 75.95 L-53.95 76.9 M-53.35 75.95 L-52.1 73.9" fill="none" stroke="#000000" stroke-linecap="round" stroke-linejoin="round" stroke-width="0.05"/>
    <path d="M68.55 -81.2 L69.8 -80.9 Q72.7 -79.65 72.8 -75.15 72.85 -70.7 75.0 -61.9 L74.75 -61.7 71.4 -66.6 Q69.35 -69.2 67.65 -69.95 L67.6 -69.95 67.7 -70.65 68.55 -81.2" fill="#586568" fill-rule="evenodd" stroke="none"/>
    <path d="M-14.35 27.1 L-44.15 27.1 -43.45 25.05 Q-38.65 10.75 -31.55 3.95 -24.45 -2.9 -23.3 -6.05 -22.2 -9.25 -18.05 -15.8 -13.95 -22.35 -8.9 -27.95 -3.85 -33.55 0.2 -36.95 4.2 -40.4 8.85 -45.85 L8.9 -45.95 Q13.5 -51.35 20.0 -53.55 26.55 -55.8 35.0 -61.0 43.45 -66.25 50.55 -70.25 L55.8 -73.6 62.3 -78.5 Q65.9 -81.45 68.55 -81.2 L67.7 -70.65 67.6 -69.95 67.45 -70.0 67.4 -69.1 67.4 -69.95 67.4 -70.0 67.4 -70.05 66.35 -70.25 63.0 -70.15 Q60.4 -70.1 57.55 -69.15 L53.2 -67.4 50.65 -65.75 46.65 -62.15 Q44.15 -60.0 42.15 -56.7 41.15 -55.0 40.15 -54.75 38.2 -54.35 36.75 -53.45 33.15 -51.25 30.25 -48.0 L25.05 -42.5 Q22.05 -39.9 16.35 -34.15 L2.85 -20.25 -1.4 -15.1 Q-4.5 -11.0 -4.9 -9.65 -6.5 -4.2 -10.65 5.85 -10.65 6.8 -9.2 9.45 -7.8 12.1 -7.8 12.65 -7.8 16.65 -13.6 26.2 L-14.35 27.1 M13.85 -42.65 Q13.85 -41.5 14.65 -40.7 15.45 -39.9 16.6 -39.9 L16.75 -39.9 18.3 -42.8 18.95 -44.1 Q20.2 -46.15 23.15 -48.95 22.15 -49.1 16.3 -46.7 13.75 -45.65 12.3 -44.55 L13.85 -42.65 M10.55 -42.8 L11.3 -43.75 12.3 -44.55 11.3 -43.75 10.55 -42.8 M16.75 -39.9 L14.1 -36.35 16.75 -39.9" fill="#788391" fill-rule="evenodd" stroke="none"/>
    <path d="M75.0 -61.2 Q75.15 -54.85 75.7 -48.6 L76.2 -41.85 Q76.65 -35.6 76.0 -29.35 L75.85 -28.7 75.85 -28.85 75.8 -28.7 75.85 -28.85 75.85 -28.7 75.85 -28.55 75.8 -28.7 75.8 -28.75 75.8 -28.7 75.85 -28.55 75.8 -28.45 75.75 -28.15 75.8 -28.7 75.75 -28.15 75.8 -28.45 75.85 -28.55 75.75 -27.95 75.7 -27.85 75.75 -27.95 75.65 -27.55 75.7 -27.85 75.75 -28.15 75.6 -27.5 75.8 -28.75 Q75.2 -32.55 72.2 -35.55 66.7 -41.05 60.5 -42.2 L48.4 -43.75 Q42.5 -44.1 36.35 -38.8 30.75 -34.7 27.55 -31.15 L27.45 -31.0 Q25.95 -29.4 25.0 -27.85 L23.85 -26.2 Q21.1 -22.6 17.4 -20.45 L15.9 -19.55 15.8 -19.5 15.65 -19.35 Q12.5 -17.2 11.2 -14.4 10.35 -12.55 10.0 -9.75 L9.95 -9.6 Q9.75 -8.35 9.7 -6.8 L9.6 -3.95 Q9.6 -0.85 10.05 1.95 L10.05 2.15 Q10.45 4.75 11.25 7.1 L11.8 8.65 Q12.95 11.7 14.8 13.55 L15.85 14.45 Q17.0 15.25 18.35 15.7 L18.95 15.85 19.95 16.15 Q23.65 17.2 25.4 17.95 27.05 18.7 36.0 21.6 44.95 24.5 53.05 23.6 61.1 22.7 62.2 21.25 63.25 19.75 63.3 18.65 L64.55 17.85 64.35 20.0 63.45 27.1 6.7 27.1 -4.65 27.1 -4.9 21.4 Q-4.85 16.65 -2.95 16.65 L-1.65 16.85 -0.8 17.15 Q-0.65 13.5 0.9 10.2 2.3 7.25 2.1 4.4 L5.3 7.3 4.85 -6.25 Q4.85 -16.1 16.05 -27.75 22.05 -33.95 31.8 -41.85 35.4 -45.3 39.65 -48.2 43.85 -51.15 47.35 -53.2 50.9 -55.3 52.4 -58.15 53.9 -61.0 58.6 -63.4 67.4 -66.7 67.4 -69.95 L67.4 -69.1 67.45 -70.0 67.6 -67.85 67.65 -69.95 Q69.35 -69.2 71.4 -66.6 L74.75 -61.7 75.0 -61.2 M75.85 -28.45 L75.9 -28.55 75.85 -28.35 75.85 -28.45 M6.7 27.1 L5.4 25.9 0.6 20.7 Q-0.9 18.85 -1.65 16.85 -0.9 18.85 0.6 20.7 L5.4 25.9 6.7 27.1" fill="#c1afa4" fill-rule="evenodd" stroke="none"/>
    <path d="M-4.65 27.1 L-14.35 27.1 -13.6 26.2 Q-7.8 16.65 -7.8 12.65 -7.8 12.1 -9.2 9.45 -10.65 6.8 -10.65 5.85 -6.5 -4.2 -4.9 -9.65 -4.5 -11.0 -1.4 -15.1 L2.85 -20.25 16.35 -34.15 Q22.05 -39.9 25.05 -42.5 L30.25 -48.0 Q33.15 -51.25 36.75 -53.45 38.2 -54.35 40.15 -54.75 41.15 -55.0 42.15 -56.7 44.15 -60.0 46.65 -62.15 L50.65 -65.75 53.2 -67.4 57.55 -69.15 Q60.4 -70.1 63.0 -70.15 L66.35 -70.25 67.4 -70.05 67.4 -70.0 67.4 -69.95 Q67.4 -66.7 58.6 -63.4 53.9 -61.0 52.4 -58.15 50.9 -55.3 47.35 -53.2 43.85 -51.15 39.65 -48.2 35.4 -45.3 31.8 -41.85 22.05 -33.95 16.05 -27.75 4.85 -16.1 4.85 -6.25 L5.3 7.3 2.1 4.4 Q2.3 7.25 0.9 10.2 -0.65 13.5 -0.8 17.15 L-1.65 16.85 -2.95 16.65 Q-4.85 16.65 -4.9 21.4 L-4.65 27.1 M67.45 -70.0 L67.6 -69.95 Q67.55 -68.95 67.45 -70.0 M44.15 -37.15 Q45.1 -38.95 48.1 -38.95 L50.4 -38.45 50.65 -37.45 47.4 -30.4 44.3 -36.4 44.15 -37.15 M17.05 -44.45 Q17.55 -44.3 17.55 -43.6 17.55 -42.65 16.6 -42.65 L16.4 -42.65 16.15 -42.65 Q15.35 -42.65 15.15 -43.2 L15.1 -43.85 Q15.1 -45.0 16.1 -45.0 16.75 -45.0 17.05 -44.45" fill="#ffffff" fill-rule="evenodd" stroke="none"/>
    <path d="M76.0 -29.35 Q76.05 -29.95 76.15 -28.95 L75.95 -28.6 75.85 -28.35 75.9 -28.55 75.85 -28.45 75.85 -28.55 75.85 -28.45 75.75 -27.95 75.85 -28.55 75.85 -28.7 76.0 -29.35 M75.85 -28.7 L75.9 -28.55 75.85 -28.7 M75.75 -28.15 L75.7 -27.85 75.6 -27.5 75.75 -28.15" fill="#fd3535" fill-rule="evenodd" stroke="none"/>
    <path d="M26.35 -22.2 L24.65 -23.75 24.55 -23.85 24.55 -24.0 Q24.8 -24.8 25.3 -25.15 L25.3 -25.2 Q25.75 -25.65 26.45 -25.7 L28.35 -25.7 28.5 -25.6 28.55 -25.45 28.65 -24.3 28.9 -20.5 28.9 -20.45 28.9 -20.3 28.75 -20.2 28.65 -20.2 28.5 -20.25 28.4 -20.35 26.35 -22.2 M30.25 -25.9 L28.6 -28.25 28.5 -28.4 28.55 -28.55 Q28.7 -29.2 29.3 -29.5 L29.4 -29.55 30.6 -29.85 32.55 -29.45 32.7 -29.3 32.75 -29.15 32.75 -28.95 32.6 -23.65 32.55 -23.45 32.35 -23.3 32.15 -23.3 32.0 -23.45 30.25 -25.9 M37.25 -32.05 L37.15 -32.15 36.0 -33.1 Q36.15 -34.0 37.55 -35.05 38.95 -36.1 39.7 -36.1 L41.85 -35.6 41.85 -35.2 41.85 -35.05 41.85 -28.1 37.25 -32.05 M53.1 -37.9 Q54.8 -39.5 56.3 -39.6 57.75 -39.7 61.1 -37.9 L61.1 -37.35 60.95 -37.0 57.5 -29.1 53.1 -37.9 M63.05 -35.8 Q66.75 -36.3 68.6 -32.9 L68.35 -32.35 65.4 -27.05 63.05 -35.8 M70.0 -31.7 L70.05 -31.7 Q73.05 -31.95 73.05 -28.1 L72.9 -27.95 72.95 -27.95 Q74.9 -26.4 74.55 -25.15 L73.0 -23.8 71.75 -22.7 71.6 -22.6 71.8 -27.15 69.65 -25.6 70.0 -31.65 70.0 -31.7 M19.7 -17.0 L21.1 -14.55 21.1 -14.4 21.05 -14.25 20.9 -14.2 20.75 -14.2 17.9 -15.5 17.85 -15.55 17.8 -15.55 17.6 -15.65 16.55 -16.0 16.45 -16.1 16.4 -16.25 Q16.5 -17.45 17.05 -17.8 17.55 -18.15 18.75 -18.3 L18.85 -18.25 19.0 -18.15 19.7 -17.0 M58.7 14.25 L60.95 11.65 61.1 16.85 59.25 15.5 58.05 14.95 58.7 14.25 M44.9 8.75 L46.55 6.1 47.7 13.2 44.75 13.25 Q43.6 12.8 42.95 11.85 L44.9 8.75 M50.6 13.85 L53.45 7.35 54.45 14.2 53.6 14.15 50.6 13.85 M24.9 -19.5 L25.55 -17.1 25.55 -16.95 25.45 -16.85 25.3 -16.8 25.15 -16.85 22.55 -18.95 21.45 -19.85 21.35 -19.95 21.4 -20.1 Q21.75 -21.35 24.1 -21.55 L24.15 -21.55 24.3 -21.5 24.4 -21.35 24.6 -20.7 24.9 -19.6 24.9 -19.5 M72.9 -27.95 L71.8 -27.15 72.9 -27.95 M40.9 11.55 L41.0 11.85 Q40.5 11.85 39.7 12.3 L37.8 12.7 Q36.7 12.7 35.8 12.0 L35.95 11.65 38.3 4.9 40.9 11.55 M33.6 11.9 L33.4 12.05 Q31.4 13.7 29.55 13.35 L27.15 12.8 30.15 9.0 32.95 5.4 33.6 11.9 M20.65 13.65 L19.5 13.8 17.0 13.05 18.5 9.35 20.65 13.65" fill="#e1e1e1" fill-rule="evenodd" stroke="none"/>
    <path d="M72.2 -13.7 L70.75 -9.15 Q68.7 -3.0 67.25 2.85 66.0 -3.7 63.35 -7.65 58.6 -14.45 57.7 -14.8 54.85 -16.5 46.95 -19.6 L44.6 -19.8 43.05 -19.85 30.55 -20.65 28.9 -20.5 28.65 -24.3 30.25 -25.9 32.0 -23.45 32.15 -23.3 32.35 -23.3 32.55 -23.45 32.6 -23.65 32.75 -28.95 35.4 -30.9 36.8 -31.75 37.25 -32.05 41.85 -28.1 41.85 -35.05 42.1 -35.2 44.3 -36.4 47.4 -30.4 50.65 -37.45 53.1 -37.55 53.1 -37.9 57.5 -29.1 60.95 -37.0 61.0 -37.0 62.05 -36.6 62.45 -36.3 63.05 -35.8 65.4 -27.05 68.35 -32.35 68.4 -32.35 69.6 -31.85 69.95 -31.7 70.0 -31.65 69.65 -25.6 71.8 -27.15 71.6 -22.6 71.75 -22.7 73.0 -23.8 73.05 -23.55 72.8 -21.5 71.6 -18.8 72.2 -13.7 M26.35 -22.2 L28.4 -20.35 27.75 -20.05 Q26.9 -19.55 24.9 -19.5 L24.9 -19.6 24.6 -20.7 25.15 -21.15 26.35 -22.2 M10.0 -9.6 L9.95 -9.6 10.0 -9.75 10.0 -9.6" fill="#7e0101" fill-rule="evenodd" stroke="none"/>
    <path d="M41.0 11.85 L41.05 11.55 41.0 11.85" fill="#b10101" fill-rule="evenodd" stroke="none"/>
    <path d="M73.05 -28.1 L72.95 -27.95 72.9 -27.95 73.05 -28.1" fill="#fd0b0b" fill-rule="evenodd" stroke="none"/>
    <path d="M17.05 -44.45 Q16.75 -45.0 16.1 -45.0 15.1 -45.0 15.1 -43.85 L15.15 -43.2 Q15.35 -42.65 16.15 -42.65 L16.4 -42.65 16.6 -42.65 Q17.55 -42.65 17.55 -43.6 17.55 -44.3 17.05 -44.45 M13.85 -42.65 Q13.85 -43.8 14.65 -44.6 15.45 -45.4 16.6 -45.4 17.75 -45.4 18.55 -44.6 L18.95 -44.1 18.3 -42.8 16.75 -39.9 16.6 -39.9 Q15.45 -39.9 14.65 -40.7 13.85 -41.5 13.85 -42.65" fill="#000000" fill-rule="evenodd" stroke="none"/>
    <path d="M62.05 -36.6 L62.1 -36.55 62.45 -36.3 62.05 -36.6" fill="#990000" fill-rule="evenodd" stroke="none"/>
    <path d="M41.85 -35.2 L42.1 -35.2 41.85 -35.05 41.85 -35.2 M61.1 -37.35 L61.0 -37.0 60.95 -37.0 61.1 -37.35" fill="#993333" fill-rule="evenodd" stroke="none"/>
    <path d="M9.7 -6.8 Q10.7 -7.15 11.7 -7.95 13.85 -9.55 14.75 -9.85 L22.75 -11.5 30.35 -11.5 30.6 -11.4 Q32.2 -10.95 35.45 -11.4 41.05 -10.5 48.75 -5.65 49.65 -5.3 54.4 1.5 57.5 6.1 58.7 14.25 L58.05 14.95 Q56.5 14.4 54.55 14.2 L54.45 14.2 53.45 7.35 50.6 13.85 47.85 13.25 47.7 13.2 46.55 6.1 44.9 8.75 44.15 8.25 Q44.15 6.25 42.55 4.9 L39.85 2.7 37.4 0.8 Q34.75 -1.2 33.35 -1.55 L28.85 -1.7 Q27.45 -1.7 26.2 -2.8 24.95 -3.85 21.45 -3.85 18.6 -3.85 15.5 -2.7 12.55 -1.6 12.15 -0.35 L10.05 1.95 Q9.6 -0.85 9.6 -3.95 L9.7 -6.8" fill="#5c0101" fill-rule="evenodd" stroke="none"/>
    <path d="M14.8 13.55 Q12.95 11.7 11.8 8.65 L11.25 7.1 14.35 6.35 16.8 5.95 Q21.4 5.95 24.3 6.95 L30.15 9.0 27.15 12.8 20.65 13.65 18.5 9.35 17.0 13.05 16.55 12.9 15.3 12.9 14.8 13.55" fill="#3c0000" fill-rule="evenodd" stroke="none"/>
    <path d="M75.85 -28.35 L75.7 -27.5 75.6 -27.5 75.7 -27.85 75.65 -27.55 75.75 -27.95 75.85 -28.45 75.85 -28.35" fill="#ff6666" fill-rule="evenodd" stroke="none"/>
    <path d="M75.7 -27.5 L75.65 -27.15 75.6 -27.5 75.7 -27.5" fill="#000000" fill-opacity="0.21176471" fill-rule="evenodd" stroke="none"/>
    <path d="M75.65 -27.15 L75.25 -25.05 75.25 -25.0 74.35 -21.2 74.35 -21.1 72.2 -13.7 71.6 -18.8 72.8 -21.5 73.05 -23.55 73.0 -23.8 74.55 -25.15 Q74.9 -26.4 72.95 -27.95 L73.05 -28.1 Q73.05 -31.95 70.05 -31.7 L70.0 -31.7 69.95 -31.7 69.6 -31.85 68.4 -32.35 68.35 -32.35 68.6 -32.9 Q66.75 -36.3 63.05 -35.8 L62.8 -36.2 62.1 -36.55 62.05 -36.6 61.0 -37.0 61.1 -37.35 61.1 -37.9 Q57.75 -39.7 56.3 -39.6 54.8 -39.5 53.1 -37.9 L53.1 -37.55 50.65 -37.45 51.0 -38.2 50.4 -38.45 48.1 -38.95 Q45.1 -38.95 44.15 -37.15 L44.05 -36.9 44.3 -36.4 42.1 -35.2 41.85 -35.2 41.85 -35.6 39.7 -36.1 Q38.95 -36.1 37.55 -35.05 36.15 -34.0 36.0 -33.1 L37.15 -32.15 37.25 -32.05 36.8 -31.75 35.4 -30.9 32.75 -28.95 32.75 -29.15 32.7 -29.3 32.55 -29.45 30.6 -29.85 29.4 -29.55 29.3 -29.5 Q28.7 -29.2 28.55 -28.55 L28.5 -28.4 28.6 -28.25 30.25 -25.9 28.65 -24.3 28.55 -25.45 28.5 -25.6 28.35 -25.7 26.45 -25.7 Q25.75 -25.65 25.3 -25.2 L25.3 -25.15 Q24.8 -24.8 24.55 -24.0 L24.55 -23.85 24.65 -23.75 26.35 -22.2 25.15 -21.15 24.6 -20.7 24.4 -21.35 24.3 -21.5 24.15 -21.55 24.1 -21.55 Q21.75 -21.35 21.4 -20.1 L21.35 -19.95 21.45 -19.85 22.55 -18.95 22.1 -18.65 19.7 -17.0 19.0 -18.15 18.85 -18.25 18.75 -18.3 Q17.55 -18.15 17.05 -17.8 16.5 -17.45 16.4 -16.25 L16.45 -16.1 16.55 -16.0 17.6 -15.65 16.85 -15.15 Q13.65 -12.75 10.05 -7.95 L10.0 -9.6 10.0 -9.75 Q10.35 -12.55 11.2 -14.4 12.5 -17.2 15.65 -19.35 L15.8 -19.5 15.9 -19.55 17.4 -20.45 Q21.1 -22.6 23.85 -26.2 L25.0 -27.85 Q25.95 -29.4 27.45 -31.0 L27.55 -31.15 Q30.75 -34.7 36.35 -38.8 42.5 -44.1 48.4 -43.75 L60.5 -42.2 Q66.7 -41.05 72.2 -35.55 75.2 -32.55 75.8 -28.75 L75.6 -27.5 75.65 -27.15 M61.1 16.85 L63.3 18.65 Q63.25 19.75 62.2 21.25 61.1 22.7 53.05 23.6 44.95 24.5 36.0 21.6 27.05 18.7 25.4 17.95 23.65 17.2 19.95 16.15 L18.95 15.85 18.35 15.7 Q17.0 15.25 15.85 14.45 L14.8 13.55 15.3 12.9 16.55 12.9 17.0 13.05 19.5 13.8 20.65 13.65 27.15 12.8 29.55 13.35 Q31.4 13.7 33.4 12.05 L33.6 11.9 35.8 11.7 35.8 12.0 Q36.7 12.7 37.8 12.7 L39.7 12.3 Q40.5 11.85 41.0 11.85 L41.05 11.55 42.95 11.85 Q43.6 12.8 44.75 13.25 L47.7 13.2 47.85 13.25 50.6 13.85 53.6 14.15 54.45 14.2 54.55 14.2 Q56.5 14.4 58.05 14.95 L59.25 15.5 61.1 16.85" fill="#000000" fill-opacity="0.15294118" fill-rule="evenodd" stroke="none"/>
    <path d="M18.95 -44.1 L18.55 -44.6 Q17.75 -45.4 16.6 -45.4 15.45 -45.4 14.65 -44.6 13.85 -43.8 13.85 -42.65 L12.3 -44.55 Q13.75 -45.65 16.3 -46.7 22.15 -49.1 23.15 -48.95 20.2 -46.15 18.95 -44.1" fill="#525f61" fill-rule="evenodd" stroke="none"/>
    <path d="M67.25 2.85 Q65.35 10.65 64.55 17.85 L63.3 18.65 61.1 16.85 60.95 11.65 58.7 14.25 Q57.5 6.1 54.4 1.5 49.65 -5.3 48.75 -5.65 41.05 -10.5 35.45 -11.4 32.2 -10.95 30.6 -11.4 L30.35 -11.5 22.75 -11.5 14.75 -9.85 Q13.85 -9.55 11.7 -7.95 10.7 -7.15 9.7 -6.8 9.75 -8.35 9.95 -9.6 L10.0 -9.6 10.05 -7.95 Q13.65 -12.75 16.85 -15.15 L17.6 -15.65 17.8 -15.55 17.85 -15.55 17.9 -15.5 20.75 -14.2 20.9 -14.2 21.05 -14.25 21.1 -14.4 21.1 -14.55 19.7 -17.0 22.1 -18.65 22.55 -18.95 25.15 -16.85 25.3 -16.8 25.45 -16.85 25.55 -16.95 25.55 -17.1 24.9 -19.5 Q26.9 -19.55 27.75 -20.05 L28.4 -20.35 28.5 -20.25 28.65 -20.2 28.75 -20.2 28.9 -20.3 28.9 -20.45 28.9 -20.5 30.55 -20.65 43.05 -19.85 44.6 -19.8 46.95 -19.6 Q54.85 -16.5 57.7 -14.8 58.6 -14.45 63.35 -7.65 66.0 -3.7 67.25 2.85" fill="#6c0202" fill-rule="evenodd" stroke="none"/>
    <path d="M10.05 1.95 L12.15 -0.35 Q12.55 -1.6 15.5 -2.7 18.6 -3.85 21.45 -3.85 24.95 -3.85 26.2 -2.8 27.45 -1.7 28.85 -1.7 L33.35 -1.55 Q34.75 -1.2 37.4 0.8 L39.85 2.7 42.55 4.9 Q44.15 6.25 44.15 8.25 L44.9 8.75 42.95 11.85 41.05 11.55 40.9 11.55 38.3 4.9 35.95 11.65 35.8 11.7 33.6 11.9 32.95 5.4 30.15 9.0 24.3 6.95 Q21.4 5.95 16.8 5.95 L14.35 6.35 11.25 7.1 Q10.45 4.75 10.05 2.15 L10.05 1.95" fill="#4b0101" fill-rule="evenodd" stroke="none"/>
    <path d="M28.65 -24.3 L30.25 -25.9 M32.75 -28.95 L35.4 -30.9 36.8 -31.75 37.25 -32.05 37.15 -32.15 36.0 -33.1 Q36.15 -34.0 37.55 -35.05 38.95 -36.1 39.7 -36.1 L41.85 -35.6 41.85 -35.2 41.85 -35.05 41.85 -28.1 37.25 -32.05 M42.1 -35.2 L44.3 -36.4 44.05 -36.9 44.15 -37.15 Q45.1 -38.95 48.1 -38.95 L50.4 -38.45 M51.0 -38.2 L50.65 -37.45 53.1 -37.55 M18.95 -44.1 L18.55 -44.6 Q17.75 -45.4 16.6 -45.4 15.45 -45.4 14.65 -44.6 13.85 -43.8 13.85 -42.65 13.85 -41.5 14.65 -40.7 15.45 -39.9 16.6 -39.9 L16.75 -39.9 18.3 -42.8 18.95 -44.1 M14.1 -36.35 L16.75 -39.9 M17.6 -15.65 L16.85 -15.15 Q13.65 -12.75 10.05 -7.95 M22.55 -18.95 L22.1 -18.65 19.7 -17.0 M26.35 -22.2 L25.15 -21.15 24.6 -20.7 M42.1 -35.2 L41.85 -35.05 M50.65 -37.45 L47.4 -30.4 44.3 -36.4" fill="none" stroke="#000000" stroke-linecap="round" stroke-linejoin="round" stroke-width="0.05"/>
    <path d="M75.95 -28.6 L75.85 -28.35 75.85 -28.45 75.85 -28.55 75.8 -28.7 75.8 -28.75 Q75.2 -32.55 72.2 -35.55 66.7 -41.05 60.5 -42.2 L48.4 -43.75 Q42.5 -44.1 36.35 -38.8 30.75 -34.7 27.55 -31.15 L27.45 -31.0 Q25.95 -29.4 25.0 -27.85 L23.85 -26.2 Q21.1 -22.6 17.4 -20.45 L15.9 -19.55 15.8 -19.5 15.65 -19.35 Q12.5 -17.2 11.2 -14.4 10.35 -12.55 10.0 -9.75 L9.95 -9.6 Q9.75 -8.35 9.7 -6.8 L9.6 -3.95 Q9.6 -0.85 10.05 1.95 M28.65 -24.3 L28.55 -25.45 28.5 -25.6 28.35 -25.7 26.45 -25.7 Q25.75 -25.65 25.3 -25.2 L25.3 -25.15 Q24.8 -24.8 24.55 -24.0 L24.55 -23.85 24.65 -23.75 26.35 -22.2 28.4 -20.35 28.5 -20.25 28.65 -20.2 28.75 -20.2 28.9 -20.3 28.9 -20.45 28.9 -20.5 28.65 -24.3 M30.25 -25.9 L28.6 -28.25 28.5 -28.4 28.55 -28.55 Q28.7 -29.2 29.3 -29.5 L29.4 -29.55 30.6 -29.85 32.55 -29.45 32.7 -29.3 32.75 -29.15 32.75 -28.95 32.6 -23.65 32.55 -23.45 32.35 -23.3 32.15 -23.3 32.0 -23.45 30.25 -25.9 M18.95 -44.1 Q20.2 -46.15 23.15 -48.95 22.15 -49.1 16.3 -46.7 13.75 -45.65 12.3 -44.55 L11.3 -43.75 10.55 -42.8 M17.6 -15.65 L17.8 -15.55 17.85 -15.55 17.9 -15.5 20.75 -14.2 20.9 -14.2 21.05 -14.25 21.1 -14.4 21.1 -14.55 19.7 -17.0 19.0 -18.15 18.85 -18.25 18.75 -18.3 Q17.55 -18.15 17.05 -17.8 16.5 -17.45 16.4 -16.25 L16.45 -16.1 16.55 -16.0 17.6 -15.65 M24.9 -19.5 L25.55 -17.1 25.55 -16.95 25.45 -16.85 25.3 -16.8 25.15 -16.85 22.55 -18.95 21.45 -19.85 21.35 -19.95 21.4 -20.1 Q21.75 -21.35 24.1 -21.55 L24.15 -21.55 24.3 -21.5 24.4 -21.35 24.6 -20.7 24.9 -19.6 24.9 -19.5 M63.3 18.65 Q63.25 19.75 62.2 21.25 61.1 22.7 53.05 23.6 44.95 24.5 36.0 21.6 27.05 18.7 25.4 17.95 23.65 17.2 19.95 16.15 L18.95 15.85 18.35 15.7 Q17.0 15.25 15.85 14.45 L14.8 13.55 Q12.95 11.7 11.8 8.65 L11.25 7.1" fill="none" stroke="#333333" stroke-linecap="round" stroke-linejoin="round" stroke-width="0.05"/>
    <path d="M68.55 -81.2 L69.8 -80.9 Q72.7 -79.65 72.8 -75.15 72.85 -70.7 75.0 -61.9 L75.0 -61.2 Q75.15 -54.85 75.7 -48.6 L76.2 -41.85 Q76.65 -35.6 76.0 -29.35 76.05 -29.95 76.15 -28.95 L75.95 -28.6 M75.85 -28.35 L75.7 -27.5 75.65 -27.15 75.25 -25.05 75.25 -25.0 74.35 -21.2 74.35 -21.1 72.2 -13.7 70.75 -9.15 Q68.7 -3.0 67.25 2.85 65.35 10.65 64.55 17.85 L64.35 20.0 63.45 27.1 M-44.15 27.1 L-43.45 25.05 Q-38.65 10.75 -31.55 3.95 -24.45 -2.9 -23.3 -6.05 -22.2 -9.25 -18.05 -15.8 -13.95 -22.35 -8.9 -27.95 -3.85 -33.55 0.2 -36.95 4.2 -40.4 8.85 -45.85 L8.9 -45.95 Q13.5 -51.35 20.0 -53.55 26.55 -55.8 35.0 -61.0 43.45 -66.25 50.55 -70.25 L55.8 -73.6 62.3 -78.5 Q65.9 -81.45 68.55 -81.2 M74.75 -61.7 L75.0 -61.2 M75.8 -28.7 L75.85 -28.85 75.85 -28.7 76.0 -29.35 M53.1 -37.9 Q54.8 -39.5 56.3 -39.6 57.75 -39.7 61.1 -37.9 L61.1 -37.35 60.95 -37.0 57.5 -29.1 53.1 -37.9 M61.0 -37.0 L62.05 -36.6 62.1 -36.55 62.8 -36.2 63.05 -35.8 Q66.75 -36.3 68.6 -32.9 L68.35 -32.35 68.4 -32.35 69.6 -31.85 69.95 -31.7 70.0 -31.7 70.05 -31.7 Q73.05 -31.95 73.05 -28.1 L72.9 -27.95 71.8 -27.15 69.65 -25.6 70.0 -31.65 70.0 -31.7 M72.95 -27.95 Q74.9 -26.4 74.55 -25.15 L73.0 -23.8 73.05 -23.55 72.8 -21.5 71.6 -18.8 72.2 -13.7 M58.7 14.25 L60.95 11.65 61.1 16.85 63.3 18.65 64.55 17.85 M44.9 8.75 L46.55 6.1 47.7 13.2 47.85 13.25 50.6 13.85 53.45 7.35 54.45 14.2 54.55 14.2 Q56.5 14.4 58.05 14.95 L58.7 14.25 M69.95 -31.7 L70.0 -31.65 M61.0 -37.0 L60.95 -37.0 M63.05 -35.8 L65.4 -27.05 68.35 -32.35 M75.8 -28.7 L75.75 -28.15 75.8 -28.45 75.85 -28.55 75.85 -28.7 75.9 -28.55 75.85 -28.45 75.75 -27.95 75.85 -28.55 M75.85 -28.35 L75.9 -28.55 M75.75 -28.15 L75.7 -27.85 75.75 -27.95 75.65 -27.55 75.7 -27.85 75.6 -27.5 75.75 -28.15 M72.95 -27.95 L72.9 -27.95 M73.0 -23.8 L71.75 -22.7 71.6 -22.6 71.8 -27.15 M11.25 7.1 Q10.45 4.75 10.05 2.15 L10.05 1.95 M41.05 11.55 L42.95 11.85 44.9 8.75 M40.9 11.55 L41.0 11.85 Q40.5 11.85 39.7 12.3 L37.8 12.7 Q36.7 12.7 35.8 12.0 L35.95 11.65 38.3 4.9 40.9 11.55 41.05 11.55 M35.8 11.7 L33.6 11.9 33.4 12.05 Q31.4 13.7 29.55 13.35 L27.15 12.8 20.65 13.65 19.5 13.8 17.0 13.05 16.55 12.9 15.3 12.9 M42.95 11.85 Q43.6 12.8 44.75 13.25 L47.7 13.2 M58.05 14.95 L59.25 15.5 61.1 16.85 M50.6 13.85 L53.6 14.15 54.45 14.2 M35.8 11.7 L35.95 11.65 M33.6 11.9 L32.95 5.4 30.15 9.0 27.15 12.8 M30.15 9.0 L24.3 6.95 Q21.4 5.95 16.8 5.95 L14.35 6.35 11.25 7.1 M17.0 13.05 L18.5 9.35 20.65 13.65" fill="none" stroke="#333333" stroke-linecap="round" stroke-linejoin="round" stroke-width="0.05"/>
    <path d="M67.25 2.85 Q66.0 -3.7 63.35 -7.65 58.6 -14.45 57.7 -14.8 54.85 -16.5 46.95 -19.6" fill="none" stroke="#540101" stroke-linecap="round" stroke-linejoin="round" stroke-width="0.05"/>
    <path d="M35.45 -11.4 Q41.05 -10.5 48.75 -5.65 49.65 -5.3 54.4 1.5 57.5 6.1 58.7 14.25" fill="none" stroke="#430101" stroke-linecap="round" stroke-linejoin="round" stroke-width="0.05"/>
    <path d="M10.05 1.95 L12.15 -0.35 Q12.55 -1.6 15.5 -2.7 18.6 -3.85 21.45 -3.85 24.95 -3.85 26.2 -2.8 27.45 -1.7 28.85 -1.7 L33.35 -1.55 Q34.75 -1.2 37.4 0.8 L39.85 2.7 42.55 4.9 Q44.15 6.25 44.15 8.25" fill="none" stroke="#430101" stroke-linecap="round" stroke-linejoin="round" stroke-width="0.05"/>
    <path d="M-4.65 27.1 L-4.9 21.4 Q-4.85 16.65 -2.95 16.65 L-1.65 16.85 -0.8 17.15 Q-0.65 13.5 0.9 10.2 2.3 7.25 2.1 4.4 L5.3 7.3 4.85 -6.25 Q4.85 -16.1 16.05 -27.75 22.05 -33.95 31.8 -41.85 35.4 -45.3 39.65 -48.2 43.85 -51.15 47.35 -53.2 50.9 -55.3 52.4 -58.15 53.9 -61.0 58.6 -63.4 67.4 -66.7 67.4 -69.95 L67.4 -70.0" fill="none" stroke="#e0d7d1" stroke-linecap="round" stroke-linejoin="round" stroke-width="2.0"/>
    <path d="M-1.65 16.85 Q-0.9 18.85 0.6 20.7 L5.4 25.9 6.7 27.1" fill="none" stroke="#927665" stroke-linecap="round" stroke-linejoin="round" stroke-width="0.05"/>
    <path d="M63.45 27.1 Q61.85 35.8 58.3 42.0 53.35 50.6 49.25 54.7 47.0 56.85 43.45 62.45 L43.3 62.7 Q44.4 65.65 46.65 70.35 L47.5 73.9 47.55 74.2 46.95 74.25 36.7 74.2 36.1 75.3 11.7 77.55 Q-6.9 77.55 -36.25 76.55 -37.3 76.5 -38.3 81.2 L-37.55 73.95 36.7 74.2 -37.55 73.95 -37.1 71.85 Q-35.9 68.8 -32.4 70.45 -30.3 64.3 -28.5 60.7 -25.05 53.95 -19.2 53.0 -18.85 48.15 -18.05 44.8 -16.55 38.4 -12.9 38.4 -11.75 38.4 -9.75 39.3 -9.75 30.85 -9.3 27.55 L-4.6 27.55 -4.65 27.1 6.7 27.1 63.45 27.1 M58.95 30.0 L58.95 30.7 55.3 32.9 Q53.35 34.2 50.85 34.2 48.1 34.2 44.1 31.55 40.0 28.9 37.05 28.75 26.05 29.2 20.55 28.75 L12.3 28.8 Q8.85 28.65 6.7 27.1 8.85 28.65 12.3 28.8 L20.55 28.75 Q26.05 29.2 37.05 28.75 40.0 28.9 44.1 31.55 48.1 34.2 50.85 34.2 53.35 34.2 55.3 32.9 L58.95 30.7 58.95 30.0 M36.7 74.2 Q40.4 67.15 43.3 62.7 40.4 67.15 36.7 74.2 M-8.8 36.85 Q-6.95 38.1 -0.9 42.85 4.3 46.9 6.75 48.4 14.05 52.9 35.25 52.9 44.7 52.9 45.45 52.0 44.7 52.9 35.25 52.9 14.05 52.9 6.75 48.4 4.3 46.9 -0.9 42.85 -6.95 38.1 -8.8 36.85" fill="#c1afa4" fill-rule="evenodd" stroke="none"/>
    <path d="M47.5 73.9 L47.6 74.2 47.55 74.2 47.5 73.9 M36.1 75.3 L36.7 74.2 46.95 74.25 41.8 74.75 36.1 75.3 M-14.35 27.1 L-17.5 29.75 Q-21.4 32.85 -23.55 35.2 -27.0 39.0 -30.65 47.4 L-34.95 58.15 -35.55 58.15 Q-44.75 62.55 -52.1 73.9 L-56.95 73.85 -52.1 73.9 -53.35 75.95 -58.45 75.7 -56.95 73.85 -75.15 73.8 -65.4 65.9 -50.6 55.9 -49.4 50.65 Q-48.35 40.15 -44.15 27.1 L-14.35 27.1 M-56.95 73.85 Q-54.85 70.85 -53.35 66.15 L-50.6 55.9 -53.35 66.15 Q-54.85 70.85 -56.95 73.85" fill="#788391" fill-rule="evenodd" stroke="none"/>
    <path d="M-37.55 73.95 L-38.3 81.2 Q-46.65 76.2 -53.35 75.95 L-52.1 73.9 Q-44.75 62.55 -35.55 58.15 L-34.95 58.15 -30.65 47.4 Q-27.0 39.0 -23.55 35.2 -21.4 32.85 -17.5 29.75 L-14.35 27.1 -4.65 27.1 -4.6 27.55 -9.3 27.55 Q-9.75 30.85 -9.75 39.3 -11.75 38.4 -12.9 38.4 -16.55 38.4 -18.05 44.8 -18.85 48.15 -19.2 53.0 -25.05 53.95 -28.5 60.7 -30.3 64.3 -32.4 70.45 -35.9 68.8 -37.1 71.85 L-37.55 73.95 -52.1 73.9 -37.55 73.95" fill="#ffffff" fill-rule="evenodd" stroke="none"/>
    <path d="M6.7 27.1 Q8.85 28.65 12.3 28.8 L20.55 28.75 Q26.05 29.2 37.05 28.75 40.0 28.9 44.1 31.55 48.1 34.2 50.85 34.2 53.35 34.2 55.3 32.9 L58.95 30.7 58.95 30.0" fill="none" stroke="#927665" stroke-linecap="round" stroke-linejoin="round" stroke-width="0.05"/>
    <path d="M63.45 27.1 Q61.85 35.8 58.3 42.0 53.35 50.6 49.25 54.7 47.0 56.85 43.45 62.45 L43.3 62.7 Q44.4 65.65 46.65 70.35 L47.5 73.9 47.6 74.2 47.65 74.25 M36.1 75.3 L36.7 74.2 Q40.4 67.15 43.3 62.7 M-34.95 58.15 L-35.55 58.15 Q-44.75 62.55 -52.1 73.9 M-44.15 27.1 Q-48.35 40.15 -49.4 50.65 L-50.6 55.9 -53.35 66.15 Q-54.85 70.85 -56.95 73.85 L-58.45 75.7 M-75.15 73.8 L-65.4 65.9 -50.6 55.9" fill="none" stroke="#333333" stroke-linecap="round" stroke-linejoin="round" stroke-width="0.05"/>
    <path d="M47.65 74.25 L50.7 74.25 M36.7 74.2 L-37.55 73.95 -52.1 73.9 -56.95 73.85 -75.15 73.8 -76.25 73.8 M46.95 74.25 L47.65 74.25 M36.7 74.2 L46.95 74.25" fill="none" stroke="#666666" stroke-linecap="round" stroke-linejoin="round" stroke-width="0.05"/>
    <path d="M45.45 52.0 Q44.7 52.9 35.25 52.9 14.05 52.9 6.75 48.4 4.3 46.9 -0.9 42.85 -6.95 38.1 -8.8 36.85" fill="none" stroke="#977d6c" stroke-linecap="round" stroke-linejoin="round" stroke-width="0.05"/>
    <path d="M-37.55 73.95 L-37.1 71.85 Q-35.9 68.8 -32.4 70.45 -30.3 64.3 -28.5 60.7 -25.05 53.95 -19.2 53.0 -18.85 48.15 -18.05 44.8 -16.55 38.4 -12.9 38.4 -11.75 38.4 -9.75 39.3 -9.75 30.85 -9.3 27.55 L-4.6 27.55 -4.65 27.1" fill="none" stroke="#e0d7d1" stroke-linecap="round" stroke-linejoin="round" stroke-width="2.0"/>
    <path d="M-53.35 75.95 L-53.95 76.9 M-52.1 73.9 L-53.35 75.95" fill="none" stroke="#000000" stroke-linecap="round" stroke-linejoin="round" stroke-width="0.05"/>
    <path d="M37.1 -37.1 L37.1 -36.75 Q38.1 -36.7 39.9 -37.9 41.45 -38.95 43.1 -38.4 L43.1 -40.4 54.25 -41.1 M30.3 -31.65 L32.7 -32.7 Q34.1 -33.4 34.35 -34.35 M59.3 -40.05 Q60.55 -39.5 63.7 -38.7 M73.5 -30.3 L69.5 -34.4 Q67.1 -36.6 65.35 -36.75 M47.15 20.2 L50.85 20.2 Q54.0 22.05 55.9 21.2 M33.3 14.8 L40.75 14.8 Q46.05 17.8 51.1 18.25 54.05 18.5 59.6 18.2 M34.65 18.2 L42.4 18.55" fill="none" stroke="#b32b2b" stroke-linecap="round" stroke-linejoin="round" stroke-width="0.05"/>
    <path d="M47.75 74.15 L50.7 74.15 50.8 74.15 50.85 74.25 50.8 74.35 50.7 74.4 47.75 74.4 47.75 74.15 M36.25 75.3 L36.2 75.35 36.15 75.45 36.05 75.4 36.0 75.35 36.0 75.3 36.25 75.3 M-53.2 75.95 L-53.25 76.0 -53.25 76.05 -53.85 77.0 -53.9 77.05 -54.0 77.0 -54.05 76.95 -54.05 76.85 -53.45 75.95 -53.2 75.95 M-75.0 73.95 L-76.25 73.95 -76.35 73.9 -76.35 73.8 -76.35 73.7 -76.25 73.7 -75.0 73.7 -75.0 73.95 M4.75 25.1 L4.85 25.15 4.95 25.2 4.75 25.1 M63.65 25.2 L63.7 25.1 63.65 25.2" fill="#000000" fill-rule="evenodd" stroke="none"/>
    <path d="M63.8 25.1 L63.65 25.2 63.7 25.1 63.8 25.1" fill="url(#gradient0)" fill-rule="evenodd" stroke="none"/>
    <path d="M63.8 25.1 L63.85 25.15 63.65 25.2 63.8 25.1" fill="url(#gradient1)" fill-rule="evenodd" stroke="none"/>
    <path d="M63.65 25.2 L63.85 25.15 63.9 25.25 63.6 27.15 Q61.95 35.85 58.4 42.05 53.45 50.7 49.35 54.8 47.1 56.95 43.55 62.55 L43.45 62.7 Q44.55 65.65 46.8 70.3 L46.8 70.35 47.65 73.85 47.75 74.15 47.75 74.4 47.65 74.4 47.6 74.4 45.6 74.4 41.8 74.75 36.25 75.3 36.0 75.3 11.7 77.55 Q-6.9 77.55 -36.25 76.55 -37.3 76.5 -38.3 81.2 -46.55 76.25 -53.2 75.95 L-53.45 75.95 -58.25 75.7 -58.35 75.8 -58.45 75.85 -58.55 75.8 -58.55 75.7 -58.55 75.6 -57.2 74.0 -75.0 73.95 -75.0 73.7 -65.4 65.9 -50.7 55.95 -50.7 55.9 -49.5 50.65 Q-48.5 40.15 -44.25 27.05 L-43.6 25.15 -43.55 25.1 -43.45 25.1 -43.35 25.15 Q-41.7 9.9 -24.3 -3.45 L-5.8 25.2 -5.55 24.55 Q-5.25 24.2 -4.85 24.2 L-4.1 24.45 Q-3.8 24.75 -3.8 25.15 L-3.8 25.2 4.65 25.2 4.7 25.1 4.75 25.1 4.95 25.2 63.65 25.2" fill="url(#gradient2)" fill-rule="evenodd" stroke="none"/>
    <path d="M31.4 -58.25 Q31.75 -59.3 31.45 -60.25 L31.2 -60.55 Q29.55 -60.4 24.7 -58.85 19.85 -57.3 15.85 -55.0 L11.5 -52.25 Q11.15 -51.8 10.65 -51.5 9.85 -51.0 9.1 -49.9 L8.75 -47.25 10.8 -43.25 Q12.25 -41.15 14.5 -40.1 L18.3 -40.3 Q20.25 -41.05 22.0 -42.8 26.75 -47.35 29.4 -53.25 L31.4 -58.25 M10.05 -54.3 Q15.0 -57.35 19.05 -59.1 23.05 -60.85 25.6 -61.6 L32.5 -63.6 33.85 -63.9 36.05 -64.1 39.2 -63.85 38.85 -63.4 Q38.4 -63.0 37.75 -62.8 L36.65 -62.3 Q34.9 -62.15 34.55 -61.0 L33.65 -58.3 Q31.4 -51.65 26.85 -45.5 22.95 -40.3 18.0 -37.9 L17.1 -37.55 Q15.0 -36.65 13.35 -36.95 10.55 -37.45 8.85 -39.5 L8.2 -40.45 7.0 -42.3 4.4 -46.65 3.1 -45.05 3.1 -45.25 -6.9 -30.35 Q-8.7 -27.15 -9.2 -23.95 -9.35 -22.7 -8.9 -21.8 L-8.6 -21.25 -7.25 -19.85 -6.45 -18.9 Q-6.15 -18.4 -6.4 -17.25 L-7.1 -16.25 -8.15 -15.65 Q-9.05 -15.6 -9.7 -16.05 -10.95 -16.85 -11.75 -18.1 -12.5 -19.25 -12.4 -21.15 -12.3 -26.8 -8.55 -32.75 L-7.3 -34.7 Q-2.3 -42.05 3.65 -49.8 L4.55 -50.9 4.65 -50.8 Q5.1 -51.25 10.05 -54.3" fill="#000000" fill-rule="evenodd" stroke="none"/>
    <path d="M8.75 -47.25 L9.1 -49.9 Q9.85 -51.0 10.65 -51.5 11.15 -51.8 11.5 -52.25 L15.85 -55.0 Q19.85 -57.3 24.7 -58.85 29.55 -60.4 31.2 -60.55 L31.45 -60.25 Q31.75 -59.3 31.4 -58.25 26.9 -57.15 22.15 -54.8 L15.6 -51.55 Q12.15 -49.7 8.75 -47.25" fill="#c8c8c8" fill-rule="evenodd" stroke="none"/>
    <path d="M8.75 -47.25 Q12.15 -49.7 15.6 -51.55 L22.15 -54.8 Q26.9 -57.15 31.4 -58.25 L29.4 -53.25 10.8 -43.25 8.75 -47.25" fill="#484848" fill-rule="evenodd" stroke="none"/>
    <path d="M29.4 -53.25 Q26.75 -47.35 22.0 -42.8 20.25 -41.05 18.3 -40.3 L14.5 -40.1 Q12.25 -41.15 10.8 -43.25 L29.4 -53.25" fill="#333333" fill-rule="evenodd" stroke="none"/>
  </g>
  <defs>
    <radialGradient cx="0" cy="0" gradientTransform="matrix(0.0912, 0.0, 0.0, 0.0912, -6.65, 43.85)" gradientUnits="userSpaceOnUse" id="gradient0" r="819.2" spreadMethod="pad">
      <stop offset="0.5254901960784314" stop-color="#000000" stop-opacity="0.0"/>
      <stop offset="1.0" stop-color="#000000" stop-opacity="0.6"/>
    </radialGradient>
    <radialGradient cx="0" cy="0" gradientTransform="matrix(0.1549, 0.0, 0.0, 0.1549, 22.95, -6.7)" gradientUnits="userSpaceOnUse" id="gradient1" r="819.2" spreadMethod="pad">
      <stop offset="0.5254901960784314" stop-color="#000000" stop-opacity="0.0"/>
      <stop offset="1.0" stop-color="#000000" stop-opacity="0.6"/>
    </radialGradient>
    <radialGradient cx="0" cy="0" gradientTransform="matrix(0.1884, 0.0, 0.0, 0.1213, 58.25, 0.95)" gradientUnits="userSpaceOnUse" id="gradient2" r="819.2" spreadMethod="pad">
      <stop offset="0.5254901960784314" stop-color="#000000" stop-opacity="0.0"/>
      <stop offset="0.8627450980392157" stop-color="#000000" stop-opacity="0.6"/>
      <stop offset="1.0" stop-color="#000000" stop-opacity="0.61960787"/>
    </radialGradient>
  </defs>
</svg>
