<?xml version="1.0" encoding="UTF-8" standalone="no"?>
<svg xmlns:ffdec="https://www.free-decompiler.com/flash" xmlns:xlink="http://www.w3.org/1999/xlink" ffdec:objectType="shape" height="35.95px" width="19.7px" xmlns="http://www.w3.org/2000/svg">
  <g transform="matrix(1.0, 0.0, 0.0, 1.0, 9.85, 18.45)">
    <path d="M1.9 -1.55 L2.0 -1.5 1.9 -1.45 1.9 -1.55" fill="#1a1a1a" fill-rule="evenodd" stroke="none"/>
    <path d="M1.9 -1.45 L2.0 -1.5 2.6 -1.45 3.75 -1.25 2.8 4.45 2.65 4.45 Q1.4 4.25 0.45 5.2 -0.55 6.15 -0.75 7.6 -0.95 9.1 -0.25 10.25 0.45 11.35 1.7 11.55 2.85 11.7 3.85 10.75 4.85 9.8 5.05 8.35 5.25 6.85 4.55 5.75 4.05 4.9 3.3 4.6 L4.55 -1.05 Q6.8 -0.25 8.3 2.05 10.25 5.1 9.75 9.05 9.2 12.95 6.5 15.45 3.75 17.9 0.45 17.45 L-0.45 17.3 -0.65 17.25 -0.8 17.2 -1.95 16.75 -2.4 16.5 Q-3.85 15.6 -4.9 14.0 -6.9 10.95 -6.35 7.0 -5.85 3.1 -3.1 0.65 -0.85 -1.45 1.9 -1.45" fill="#262626" fill-rule="evenodd" stroke="none"/>
    <path d="M1.9 -1.55 L1.9 -1.45 Q-0.85 -1.45 -3.1 0.65 -5.85 3.1 -6.35 7.0 -6.9 10.95 -4.9 14.0 -3.85 15.6 -2.4 16.5 L-1.95 16.75 Q-6.25 14.95 -8.0 12.75 -10.05 10.25 -9.85 6.4 -9.65 2.5 -6.95 0.05 -4.25 -2.45 -0.85 -2.0 L1.9 -1.55" fill="#555555" fill-rule="evenodd" stroke="none"/>
    <path d="M3.75 -1.25 L4.55 -1.05 3.3 4.6 2.8 4.45 3.75 -1.25" fill="#333333" fill-rule="evenodd" stroke="none"/>
    <path d="M2.8 4.45 L3.3 4.6 Q4.05 4.9 4.55 5.75 5.25 6.85 5.05 8.35 4.85 9.8 3.85 10.75 2.85 11.7 1.7 11.55 0.45 11.35 -0.25 10.25 -0.95 9.1 -0.75 7.6 -0.55 6.15 0.45 5.2 1.4 4.25 2.65 4.45 L2.8 4.45 2.1 8.55 2.8 4.45 M2.5 8.15 L3.3 4.6 2.5 8.15" fill="#999999" fill-rule="evenodd" stroke="none"/>
    <path d="M1.9 -1.45 L2.0 -1.5 2.6 -1.45 1.9 -1.55 -0.85 -2.0 Q-4.25 -2.45 -6.95 0.05 -9.65 2.5 -9.85 6.4 -10.05 10.25 -8.0 12.75 -6.25 14.95 -1.95 16.75 L-0.8 17.2 -0.65 17.25 -0.45 17.3 0.45 17.45 Q3.75 17.9 6.5 15.45 9.2 12.95 9.75 9.05 10.25 5.1 8.3 2.05 6.8 -0.25 4.55 -1.05 L3.75 -1.25 2.95 -1.4 2.6 -1.45 3.75 -1.25" fill="none" stroke="#000000" stroke-linecap="round" stroke-linejoin="round" stroke-width="0.05"/>
    <path d="M4.55 -1.05 L7.3 -13.45 M3.75 -1.25 L6.5 -17.45 M2.8 4.45 L2.1 8.55 M2.8 4.45 L3.75 -1.25 M4.55 -1.05 L3.3 4.6 2.5 8.15 M3.7 -3.05 L-5.5 -15.45" fill="none" stroke="#333333" stroke-linecap="round" stroke-linejoin="round" stroke-width="2.0"/>
  </g>
</svg>
