<?xml version="1.0" encoding="UTF-8" standalone="no"?>
<svg xmlns:ffdec="https://www.free-decompiler.com/flash" xmlns:xlink="http://www.w3.org/1999/xlink" ffdec:objectType="shape" height="270.55px" width="531.55px" xmlns="http://www.w3.org/2000/svg">
  <g transform="matrix(1.0, 0.0, 0.0, 1.0, 231.05, 163.5)">
    <path d="M22.25 -30.1 L-14.8 -20.8 Q-25.4 -28.65 -37.5 -36.5 L-39.8 -38.65 -5.7 -47.0 18.4 -52.7 Q55.25 -61.35 92.6 -69.25 55.25 -61.35 18.4 -52.7 L-5.7 -47.0 -69.1 -65.6 -81.45 -76.95 -101.9 -95.8 92.45 -70.0 92.6 -69.25 Q195.0 -91.0 300.5 -107.55 L300.5 -89.85 59.05 -39.4 29.2 -31.85 22.25 -30.1 22.05 -30.5 29.2 -31.85 22.05 -30.5 22.25 -30.1 M300.5 -13.15 L300.5 85.0 300.5 107.05 Q273.85 70.6 243.8 48.6 L233.8 41.75 229.65 39.2 229.4 39.05 229.65 39.2 233.8 41.75 216.65 50.3 216.45 49.85 214.1 48.45 214.1 48.15 214.05 47.75 225.45 41.3 229.4 39.05 219.5 33.5 214.8 31.15 214.55 31.05 214.8 31.15 219.5 33.5 200.05 41.9 199.95 41.95 198.25 40.25 198.25 40.0 205.15 36.2 214.55 31.05 Q209.1 28.45 203.6 26.25 L199.35 24.7 203.6 26.25 184.45 34.6 184.3 34.5 182.8 33.4 189.85 29.7 199.35 24.7 188.75 21.3 182.8 23.8 182.55 23.65 179.8 22.25 184.7 20.2 183.15 19.8 174.65 18.0 173.95 17.9 170.4 17.3 170.15 17.25 170.4 17.3 173.95 17.9 166.75 20.75 166.7 20.95 164.4 20.4 164.4 19.7 170.15 17.25 167.05 16.8 Q179.95 10.45 191.7 5.45 L192.45 5.6 Q222.9 11.75 270.4 54.9 L300.5 85.0 270.4 54.9 Q222.9 11.75 192.45 5.6 L192.3 5.2 Q263.9 -25.25 294.35 -21.6 L300.5 -13.15 M188.75 21.3 L185.3 20.35 184.7 20.2 185.3 20.35 188.75 21.3 M-210.4 -99.1 L-221.2 -101.45 -205.7 -101.45 -199.1 -101.45 -198.3 -101.85 -195.1 -95.85 -210.4 -99.1 M-176.5 -0.75 L-148.15 -7.15 -147.55 -6.4 Q-136.0 1.4 -129.0 16.7 -139.9 19.6 -150.8 23.3 L-151.05 23.9 -150.9 24.0 -146.3 28.25 -144.2 30.2 -176.7 25.0 -176.15 22.25 Q-175.45 17.9 -175.4 11.7 -175.45 5.5 -176.15 1.1 L-176.5 -0.75 M-151.45 23.5 L-150.8 23.3 -151.45 23.5 M-81.45 -76.95 L18.4 -52.7 -81.45 -76.95" fill="#f8f7f3" fill-rule="evenodd" stroke="none"/>
    <path d="M22.25 -30.1 L23.3 -27.9 Q25.85 -22.45 27.45 -16.9 29.05 -11.4 29.7 -5.85 L41.7 -8.5 Q41.3 -12.7 40.25 -16.9 L40.1 -17.6 Q38.3 -24.25 34.85 -30.8 L33.8 -32.75 29.2 -31.85 33.8 -32.75 34.85 -30.8 Q38.3 -24.25 40.1 -17.6 L40.25 -16.9 Q41.3 -12.7 41.7 -8.5 L29.7 -5.85 Q29.05 -11.4 27.45 -16.9 25.85 -22.45 23.3 -27.9 L22.25 -30.1 29.2 -31.85 59.05 -39.4 300.5 -89.85 300.5 -48.6 250.5 -36.1 39.05 0.55 14.55 3.7 Q1.7 -8.55 -14.8 -20.8 L22.25 -30.1 M106.05 -42.25 Q107.8 -37.95 109.0 -33.6 110.4 -28.6 111.0 -23.5 L123.0 -26.15 Q122.55 -31.1 121.15 -36.0 119.15 -43.25 115.1 -50.4 L103.35 -48.15 106.05 -42.25 103.35 -48.15 115.1 -50.4 Q119.15 -43.25 121.15 -36.0 122.55 -31.1 123.0 -26.15 L111.0 -23.5 Q110.4 -28.6 109.0 -33.6 107.8 -37.95 106.05 -42.25 M255.55 -78.55 L243.8 -76.3 246.5 -70.4 Q248.4 -65.85 249.65 -61.2 250.85 -56.45 251.45 -51.65 L263.45 -54.3 Q263.0 -58.95 261.8 -63.55 259.75 -71.1 255.55 -78.55 259.75 -71.1 261.8 -63.55 263.0 -58.95 263.45 -54.3 L251.45 -51.65 Q250.85 -56.45 249.65 -61.2 248.4 -65.85 246.5 -70.4 L243.8 -76.3 255.55 -78.55" fill="#d2d3d7" fill-rule="evenodd" stroke="none"/>
    <path d="M300.5 -27.65 L300.5 -13.15 294.35 -21.6 Q263.9 -25.25 192.3 5.2 L191.7 5.45 Q179.95 10.45 167.05 16.8 L154.85 15.6 153.5 15.5 154.1 15.25 154.6 15.0 Q163.7 10.8 172.3 7.05 176.55 5.2 180.7 3.45 L185.75 1.3 Q237.85 -20.6 271.65 -26.15 288.15 -28.85 300.35 -27.65 L300.5 -27.65 M191.7 5.45 L180.7 3.45 191.7 5.45" fill="#757982" fill-rule="evenodd" stroke="none"/>
    <path d="M14.55 3.7 L39.05 0.55 250.5 -36.1 300.5 -48.6 300.5 -30.4 Q291.75 -32.95 270.95 -29.95 219.7 -23.2 160.6 -10.75 97.45 0.9 61.25 25.25 L60.65 25.65 Q63.6 31.6 95.15 29.6 L40.55 33.65 Q34.75 25.2 27.2 16.75 21.4 10.2 14.55 3.7" fill="#b4b6ba" fill-rule="evenodd" stroke="none"/>
    <path d="M300.5 -30.4 L300.5 -27.65 300.35 -27.65 300.5 -30.4 M164.4 22.15 L163.8 22.25 164.4 20.4 164.4 22.15" fill="#8f939a" fill-rule="evenodd" stroke="none"/>
    <path d="M61.25 25.25 Q97.45 0.9 160.6 -10.75 219.7 -23.2 270.95 -29.95 291.75 -32.95 300.5 -30.4 L300.35 -27.65 Q288.15 -28.85 271.65 -26.15 237.85 -20.6 185.75 1.3 L180.7 3.45 Q176.55 5.2 172.3 7.05 164.65 9.6 153.95 12.15 L152.85 12.45 145.3 14.1 Q95.0 24.0 61.55 25.75 L61.25 25.25" fill="#a3a6a9" fill-rule="evenodd" stroke="none"/>
    <path d="M243.8 48.6 L216.45 55.1 216.45 50.4 216.65 50.3 233.8 41.75 243.8 48.6 M225.45 41.3 L200.15 45.0 200.15 42.15 200.05 41.9 219.5 33.5 229.4 39.05 225.45 41.3 M205.15 36.2 L193.75 37.25 184.3 37.25 184.3 34.65 184.45 34.6 203.6 26.25 Q209.1 28.45 214.55 31.05 L205.15 36.2 M189.85 29.7 L182.4 30.3 182.4 23.95 182.8 23.8 188.75 21.3 199.35 24.7 189.85 29.7 M179.8 27.4 L166.55 27.4 166.75 20.75 173.95 17.9 174.65 18.0 183.15 19.8 184.7 20.2 179.8 22.25 179.8 27.4" fill="#55564b" fill-rule="evenodd" stroke="none"/>
    <path d="M216.05 55.2 L214.5 53.95 214.1 48.45 216.45 49.85 216.45 50.4 216.45 55.1 216.05 55.2 M200.15 45.0 L200.2 45.1 198.45 44.3 198.25 40.25 199.95 41.95 200.15 42.15 200.15 45.0 M184.3 37.25 L182.8 37.25 182.8 33.4 184.3 34.5 184.3 34.65 184.3 37.25 M182.4 30.3 L182.35 30.3 181.75 30.4 179.8 29.3 179.8 27.4 179.8 22.25 182.55 23.65 182.4 23.95 182.4 30.3 M166.55 27.4 L164.4 27.4 164.4 22.15 164.4 20.4 166.7 20.95 166.75 20.75 166.55 27.4" fill="#717263" fill-rule="evenodd" stroke="none"/>
    <path d="M95.15 29.6 Q63.6 31.6 60.65 25.65 L61.25 25.25 61.55 25.75 Q95.0 24.0 145.3 14.1 L152.85 12.45 153.95 12.15 Q164.65 9.6 172.3 7.05 163.7 10.8 154.6 15.0 L154.1 15.25 153.5 15.5 154.85 15.6 167.05 16.8 170.15 17.25 164.4 19.7 164.4 20.4 163.8 22.25 157.1 23.05 155.75 23.2 97.0 29.45 95.15 29.6" fill="#6f7377" fill-rule="evenodd" stroke="none"/>
    <path d="M-26.7 9.0 L14.55 3.7 Q21.4 10.2 27.2 16.75 34.75 25.2 40.55 33.65 -21.65 36.95 -77.05 33.55 L-73.9 25.7 -69.4 14.5 -33.5 9.85 -30.1 11.95 Q-23.7 15.85 -23.85 13.55 -24.0 12.2 -26.7 9.0 M-73.3 25.8 L-73.9 25.7 -73.3 25.8" fill="#7e0101" fill-rule="evenodd" stroke="none"/>
    <path d="M-39.8 -38.65 L-37.5 -36.5 Q-25.4 -28.65 -14.8 -20.8 L-43.3 -13.6 Q-51.9 -21.65 -60.5 -26.5 L-61.9 -27.95 -83.6 -50.3 Q-81.95 -53.85 -79.8 -54.4 L-73.0 -56.05 Q-69.55 -57.0 -68.45 -61.45 L-68.15 -62.35 Q-72.05 -65.9 -79.75 -67.45 L-92.45 -69.7 -93.05 -69.7 -93.1 -69.6 -93.25 -69.3 -93.25 -68.3 Q-92.75 -67.25 -90.25 -64.85 -89.45 -64.05 -87.65 -63.95 -86.1 -63.85 -85.35 -62.75 -87.05 -58.0 -89.15 -56.0 L-190.75 -160.65 -174.4 -162.55 -101.9 -95.8 -81.45 -76.95 -69.1 -65.6 -39.8 -38.65 -40.5 -38.5 -39.8 -38.65 M-37.5 -36.5 Q-48.8 -32.1 -61.9 -27.95 -48.8 -32.1 -37.5 -36.5" fill="#a90101" fill-rule="evenodd" stroke="none"/>
    <path d="M-195.1 -95.85 L-198.3 -101.85 -213.4 -130.2 -203.1 -114.45 Q-195.5 -104.25 -188.8 -100.15 -182.15 -96.05 -176.4 -93.0 -167.3 -89.05 -158.05 -87.65 -148.8 -86.25 -130.95 -82.05 -124.25 -80.8 -114.7 -75.2 -105.2 -69.65 -92.4 -54.65 -90.65 -54.65 -89.15 -56.0 -87.05 -58.0 -85.35 -62.75 -86.1 -63.85 -87.65 -63.95 -89.45 -64.05 -90.25 -64.85 -92.75 -67.25 -93.25 -68.3 L-93.25 -69.3 -93.1 -69.6 -93.05 -69.7 -92.45 -69.7 -79.75 -67.45 Q-72.05 -65.9 -68.15 -62.35 L-68.45 -61.85 -68.45 -61.45 Q-69.55 -57.0 -73.0 -56.05 L-79.8 -54.4 Q-81.95 -53.85 -83.6 -50.3 L-84.4 -48.35 Q-86.75 -42.9 -89.65 -39.95 -92.55 -37.0 -100.95 -34.8 L-103.5 -35.15 Q-108.45 -35.85 -107.2 -37.45 -107.3 -38.35 -102.3 -38.35 -97.3 -38.4 -97.3 -39.9 -97.3 -41.45 -98.05 -42.65 -98.85 -43.9 -102.5 -43.35 -106.2 -42.8 -108.05 -40.95 -109.9 -39.15 -110.1 -35.6 -110.35 -32.1 -107.85 -29.4 -105.35 -26.75 -103.45 -26.0 L-95.0 -23.3 -86.75 -20.8 Q-102.65 -16.6 -120.65 -12.7 -102.65 -16.6 -86.75 -20.8 L-73.25 -15.8 Q-63.95 -12.6 -56.65 -9.7 L-72.4 -5.7 -73.05 -5.85 -79.7 -7.45 Q-94.9 -11.05 -108.1 -11.75 L-120.7 -12.5 -120.65 -12.7 -120.9 -13.65 -120.8 -13.9 Q-118.0 -28.25 -123.75 -41.8 -129.6 -55.45 -146.0 -62.0 -162.4 -68.55 -174.1 -75.25 -185.85 -82.0 -190.4 -87.05 L-195.1 -95.85" fill="#ffffff" fill-rule="evenodd" stroke="none"/>
    <path d="M-43.3 -13.6 L-42.85 -13.2 -56.65 -9.7 Q-63.95 -12.6 -73.25 -15.8 L-86.75 -20.8 -95.0 -23.3 -103.45 -26.0 Q-105.35 -26.75 -107.85 -29.4 -110.35 -32.1 -110.1 -35.6 -109.9 -39.15 -108.05 -40.95 -106.2 -42.8 -102.5 -43.35 -98.85 -43.9 -98.05 -42.65 -97.3 -41.45 -97.3 -39.9 -97.3 -38.4 -102.3 -38.35 -107.3 -38.35 -107.2 -37.45 -108.45 -35.85 -103.5 -35.15 L-100.95 -34.8 Q-92.55 -37.0 -89.65 -39.95 -86.75 -42.9 -84.4 -48.35 L-83.6 -50.3 -61.9 -27.95 Q-73.6 -24.3 -86.75 -20.8 -73.6 -24.3 -61.9 -27.95 L-60.5 -26.5 Q-51.9 -21.65 -43.3 -13.6 M-89.15 -56.0 Q-90.65 -54.65 -92.4 -54.65 -105.2 -69.65 -114.7 -75.2 -124.25 -80.8 -130.95 -82.05 -148.8 -86.25 -158.05 -87.65 -167.3 -89.05 -176.4 -93.0 -182.15 -96.05 -188.8 -100.15 -195.5 -104.25 -203.1 -114.45 L-213.4 -130.2 -227.45 -156.5 -190.75 -160.65 -89.15 -56.0 M-190.4 -87.05 Q-185.85 -82.0 -174.1 -75.25 -162.4 -68.55 -146.0 -62.0 -129.6 -55.45 -123.75 -41.8 -118.0 -28.25 -120.8 -13.9 L-120.9 -13.65 -121.25 -12.55 -120.75 -12.5 -120.7 -12.5 -108.1 -11.75 Q-94.9 -11.05 -79.7 -7.45 L-73.05 -5.85 -73.2 -5.5 Q-103.9 2.7 -124.1 15.4 L-124.25 15.45 -129.0 16.7 Q-136.0 1.4 -147.55 -6.4 L-147.7 -7.25 -147.8 -7.2 -147.85 -7.3 -190.4 -87.05 M-147.7 -7.25 L-121.25 -12.55 -147.7 -7.25" fill="#cc0000" fill-rule="evenodd" stroke="none"/>
    <path d="M-205.7 -101.45 L-221.2 -101.45 -210.4 -99.1 -219.75 -90.2 -224.95 -89.25 -221.7 -99.9 -231.05 -109.45 -225.9 -109.45 -205.7 -101.45 M-124.1 15.4 Q-95.0 7.95 -65.85 5.6 L-69.4 14.5 -73.9 25.7 -124.1 15.45 -124.1 15.4" fill="#7b7b7b" fill-rule="evenodd" stroke="none"/>
    <path d="M-120.65 -12.7 L-120.7 -12.5 -120.75 -12.5 -120.65 -12.7" fill="#cccccc" fill-rule="evenodd" stroke="none"/>
    <path d="M-14.8 -20.8 Q1.7 -8.55 14.55 3.7 L-26.7 9.0 Q-28.7 6.7 -31.95 3.45 -37.7 -2.15 -56.65 -9.7 L-42.85 -13.2 -43.3 -13.6 -14.8 -20.8 M-73.2 -5.5 L-72.4 -5.7 Q-63.1 -3.4 -59.15 -1.9 -54.6 -0.5 -49.15 1.6 -43.7 3.7 -40.1 5.9 L-33.5 9.85 -69.4 14.5 -65.85 5.6 Q-95.0 7.95 -124.1 15.4 -103.9 2.7 -73.2 -5.5" fill="#980101" fill-rule="evenodd" stroke="none"/>
    <path d="M-56.65 -9.7 Q-37.7 -2.15 -31.95 3.45 -28.7 6.7 -26.7 9.0 -24.0 12.2 -23.85 13.55 -23.7 15.85 -30.1 11.95 L-33.5 9.85 -40.1 5.9 Q-43.7 3.7 -49.15 1.6 -54.6 -0.5 -59.15 -1.9 -63.1 -3.4 -72.4 -5.7 L-56.65 -9.7" fill="#b3b3b3" fill-rule="evenodd" stroke="none"/>
    <path d="M-146.3 28.25 L-150.9 24.0 -151.05 23.9 -150.8 23.3 Q-139.9 19.6 -129.0 16.7 L-124.1 15.45 -73.9 25.7 -77.05 33.55 -77.45 34.5 -118.45 53.5 -144.2 30.2 -138.1 31.25 -146.3 28.25" fill="#ded5d3" fill-rule="evenodd" stroke="none"/>
    <path d="M29.2 -31.85 L33.8 -32.75 34.85 -30.8 Q38.3 -24.25 40.1 -17.6 L40.25 -16.9 Q41.3 -12.7 41.7 -8.5 L29.7 -5.85 Q29.05 -11.4 27.45 -16.9 25.85 -22.45 23.3 -27.9 L22.25 -30.1 22.05 -30.5 29.2 -31.85 M106.05 -42.25 L103.35 -48.15 115.1 -50.4 Q119.15 -43.25 121.15 -36.0 122.55 -31.1 123.0 -26.15 L111.0 -23.5 Q110.4 -28.6 109.0 -33.6 107.8 -37.95 106.05 -42.25 M255.55 -78.55 Q259.75 -71.1 261.8 -63.55 263.0 -58.95 263.45 -54.3 L251.45 -51.65 Q250.85 -56.45 249.65 -61.2 248.4 -65.85 246.5 -70.4 L243.8 -76.3 255.55 -78.55 M216.45 55.1 L216.2 55.45 M214.1 48.45 L214.1 48.15 M97.0 29.45 L95.15 29.6 M300.5 -27.65 L300.35 -27.65 Q288.15 -28.85 271.65 -26.15 237.85 -20.6 185.75 1.3 L180.7 3.45 Q176.55 5.2 172.3 7.05 163.7 10.8 154.6 15.0 L154.1 15.25 153.5 15.5 154.85 15.6 167.05 16.8 M216.65 50.3 L216.45 50.4 216.45 49.85" fill="none" stroke="#333333" stroke-linecap="round" stroke-linejoin="round" stroke-width="0.05"/>
    <path d="M92.6 -69.25 Q195.0 -91.0 300.5 -107.55 M92.6 -69.25 Q55.25 -61.35 18.4 -52.7 L-5.7 -47.0 -39.8 -38.65 -37.5 -36.5 M40.55 33.65 L95.15 29.6 M300.5 107.05 Q273.85 70.6 243.8 48.6 L216.45 55.1 216.05 55.2 214.5 53.95 214.1 48.45 M216.2 55.45 L216.05 55.2 M214.1 48.15 L214.05 47.75 225.45 41.3 200.15 45.0 200.2 45.1 198.45 44.3 198.25 40.25 198.25 40.0 205.15 36.2 193.75 37.25 184.3 37.25 182.8 37.25 182.8 33.4 189.85 29.7 182.4 30.3 M182.35 30.3 L181.75 30.4 179.8 29.3 179.8 27.4 166.55 27.4 164.4 27.4 164.4 22.15 163.8 22.25 157.1 23.05 155.75 23.2 97.0 29.45 M294.35 -21.6 L300.5 -13.15 M167.05 16.8 L170.15 17.25 170.4 17.3 173.95 17.9 M174.65 18.0 L183.15 19.8 184.7 20.2 185.3 20.35 188.75 21.3 199.35 24.7 203.6 26.25 Q209.1 28.45 214.55 31.05 L214.8 31.15 219.5 33.5 229.4 39.05 229.65 39.2 233.8 41.75 243.8 48.6 M214.55 31.05 L205.15 36.2 M229.4 39.05 L225.45 41.3 M179.8 22.25 L179.8 27.4 M164.4 22.15 L164.4 20.4 164.4 19.7 170.15 17.25 M184.7 20.2 L179.8 22.25 M199.35 24.7 L189.85 29.7 M-174.4 -162.55 L-175.45 -163.5 M-190.75 -160.65 L-174.4 -162.55 -101.9 -95.8 92.45 -70.0 M-205.7 -101.45 L-221.2 -101.45 -210.4 -99.1 -195.1 -95.85 -198.3 -101.85 -213.4 -130.2 -227.45 -156.5 -190.75 -160.65 M-199.1 -101.45 L-205.7 -101.45 -225.9 -109.45 -231.05 -109.45 -221.7 -99.9 -224.95 -89.25 -219.75 -90.2 -210.4 -99.1 M-190.4 -87.05 L-195.1 -95.85 M-69.1 -65.6 L-81.45 -76.95 -101.9 -95.8 M-147.8 -7.2 L-147.55 -6.4 -148.15 -7.15 -176.5 -0.75 M-147.7 -7.25 L-147.8 -7.2 -147.85 -7.3 -190.4 -87.05 M-176.7 25.0 L-144.2 30.2 -146.3 28.25 -150.9 24.0 -151.05 23.9 M-150.8 23.3 L-151.45 23.5 M-148.15 -7.15 L-147.85 -7.2 -147.8 -7.2 M-121.25 -12.55 L-120.65 -12.7 M-40.5 -38.5 L-39.8 -38.65 -69.1 -65.6 -5.7 -47.0 M-73.9 25.7 L-77.05 33.55 Q-21.65 36.95 40.55 33.65 M-73.9 25.7 L-69.4 14.5 M-73.9 25.7 L-73.3 25.8 M-77.05 33.55 L-77.45 34.5 -118.45 53.5 -144.2 30.2 M-124.1 15.4 L-124.25 15.45 -124.1 15.45 M-124.25 15.45 L-129.0 16.7" fill="none" stroke="#000000" stroke-linecap="round" stroke-linejoin="round" stroke-width="0.05"/>
    <path d="M95.15 29.6 Q63.6 31.6 60.65 25.65 L61.25 25.25 Q97.45 0.9 160.6 -10.75 219.7 -23.2 270.95 -29.95 291.75 -32.95 300.5 -30.4" fill="none" stroke="#6a6a6a" stroke-linecap="round" stroke-linejoin="round" stroke-width="0.05"/>
    <path d="M300.5 85.0 L270.4 54.9 Q222.9 11.75 192.45 5.6 L191.7 5.45 M192.45 5.6 L192.3 5.2" fill="none" stroke="#666666" stroke-linecap="round" stroke-linejoin="round" stroke-width="0.05"/>
    <path d="M180.7 3.45 L191.7 5.45" fill="none" stroke="#4d4d4d" stroke-linecap="round" stroke-linejoin="round" stroke-width="0.05"/>
    <path d="M-120.65 -12.7 Q-102.65 -16.6 -86.75 -20.8" fill="none" stroke="#999999" stroke-linecap="round" stroke-linejoin="round" stroke-width="0.05"/>
    <path d="M-61.9 -27.95 Q-48.8 -32.1 -37.5 -36.5 M-86.75 -20.8 Q-73.6 -24.3 -61.9 -27.95 M-121.25 -12.55 L-147.7 -7.25 M-69.4 14.5 L-65.85 5.6 Q-95.0 7.95 -124.1 15.4" fill="none" stroke="#660000" stroke-linecap="round" stroke-linejoin="round" stroke-width="0.05"/>
    <path d="M-129.0 16.7 Q-139.9 19.6 -150.8 23.3 M18.4 -52.7 L-81.45 -76.95" fill="none" stroke="#959595" stroke-linecap="round" stroke-linejoin="round" stroke-width="0.05"/>
  </g>
</svg>
