<?xml version="1.0" encoding="UTF-8" standalone="no"?>
<svg xmlns:ffdec="https://www.free-decompiler.com/flash" xmlns:xlink="http://www.w3.org/1999/xlink" ffdec:objectType="shape" height="232.0px" width="602.95px" xmlns="http://www.w3.org/2000/svg">
  <g transform="matrix(1.0, 0.0, 0.0, 1.0, 301.45, 116.5)">
    <path d="M-164.45 -66.5 L-272.45 -44.5 M-186.45 -116.5 L-301.45 -97.5 M-147.45 15.5 L-230.45 30.5 M301.5 90.5 L197.5 115.5 M277.5 58.5 L197.5 78.5 M247.5 16.5 L161.35 38.2 M75.95 22.9 L-58.45 54.5 M175.5 -0.5 L125.95 11.15 M133.5 -9.5 L-257.45 71.45" fill="none" stroke="#ffffff" stroke-linecap="round" stroke-linejoin="round" stroke-width="0.05"/>
    <path d="M-164.2 37.9 L-237.0 52.0 M251.95 30.0 L132.95 61.0 M13.15 1.6 L31.95 -2.0" fill="none" stroke="#cccccc" stroke-linecap="round" stroke-linejoin="round" stroke-width="0.05"/>
    <path d="M52.95 -7.0 L13.15 1.6" fill="none" stroke="#1b5d65" stroke-linecap="round" stroke-linejoin="round" stroke-width="0.05"/>
    <path d="M-175.0 -76.0 L-284.0 -53.0 M-178.0 -94.0 L-266.0 -76.0 M13.15 1.6 L-164.2 37.9 -239.0 54.0 M-149.0 -11.0 L-264.0 10.0" fill="none" stroke="#227780" stroke-linecap="round" stroke-linejoin="round" stroke-width="0.05"/>
  </g>
</svg>
