<?xml version="1.0" encoding="UTF-8" standalone="no"?>
<svg xmlns:ffdec="https://www.free-decompiler.com/flash" xmlns:xlink="http://www.w3.org/1999/xlink" ffdec:objectType="shape" height="115.7px" width="195.8px" xmlns="http://www.w3.org/2000/svg">
  <g transform="matrix(1.0, 0.0, 0.0, 1.0, 97.9, 58.85)">
    <path d="M-38.6 29.45 Q-43.2 23.95 -43.45 16.3 -43.8 4.85 -41.75 1.0 L-49.35 -4.05 Q-49.9 -5.05 -48.45 1.85 -48.95 7.7 -52.65 6.55 -57.1 5.65 -57.35 2.9 -60.3 -3.2 -60.15 -9.5 L-64.25 1.8 Q-66.8 8.35 -71.8 6.55 -76.9 4.65 -73.5 -6.55 -68.25 -18.6 -67.35 -21.0 -69.55 -19.3 -76.35 -15.75 -85.05 -11.2 -87.4 -12.05 -91.45 -13.55 -90.25 -16.8 -89.65 -18.5 -81.6 -23.55 -73.55 -28.6 -72.55 -31.35 -79.85 -34.0 -86.85 -39.2 -98.2 -47.55 -95.35 -55.2 -95.2 -56.45 -94.8 -56.75 -94.35 -57.1 -92.2 -56.3 -80.3 -47.3 -77.0 -45.85 -69.05 -43.0 -64.6 -40.65 -60.15 -38.35 -57.85 -32.55 -55.55 -26.75 -47.55 -17.0 -43.55 -12.1 -35.65 -4.95 -7.3 -27.0 19.4 -5.25 L22.2 -2.7 Q32.2 -6.8 37.7 -10.05 48.55 -16.45 52.7 -21.1 56.85 -25.75 61.85 -26.4 L75.35 -27.05 Q78.85 -27.3 93.2 -31.65 L93.3 -31.65 Q95.45 -31.65 95.8 -31.15 96.0 -30.75 95.8 -29.55 95.8 -26.05 93.3 -23.3 89.95 -19.65 82.25 -17.4 73.85 -14.9 66.1 -14.9 66.1 -12.0 71.95 -4.45 77.75 3.05 77.75 4.85 77.75 8.3 73.45 8.35 70.95 8.35 64.35 1.05 59.15 -4.6 57.7 -6.95 57.65 -4.4 58.5 8.7 57.95 18.45 54.15 20.1 L52.45 20.45 50.35 20.1 Q47.0 18.9 46.95 13.4 L46.95 1.35 Q44.9 7.35 40.65 11.0 36.4 14.6 34.4 13.9 30.5 13.65 32.05 8.0 L35.85 1.85 24.75 4.25 Q26.75 7.05 26.6 12.9 26.25 24.4 17.25 32.9 13.3 36.65 6.95 39.3 L5.75 39.75 Q9.3 46.9 10.65 49.05 11.65 45.95 12.75 43.5 15.0 38.25 17.35 38.25 19.25 38.25 21.15 40.2 L22.65 42.2 26.35 42.3 Q28.5 42.4 28.35 44.25 28.2 46.05 24.65 46.25 L21.6 46.25 Q22.65 46.45 23.8 47.5 25.05 48.7 25.05 49.9 25.05 52.0 23.05 52.0 22.3 52.0 21.4 50.5 20.45 49.0 18.85 49.0 L17.5 49.15 Q16.35 50.95 14.4 52.05 12.05 53.35 9.45 52.9 9.25 53.6 7.9 55.1 6.35 56.85 5.5 56.85 L4.65 56.75 Q4.5 56.65 4.5 55.75 4.5 53.9 7.7 51.25 6.7 48.15 1.75 40.85 L-0.6 41.4 Q-20.45 44.65 -36.15 31.9 -37.5 32.3 -38.8 33.0 L-42.95 35.65 -42.95 36.15 Q-42.25 36.95 -42.2 38.2 -42.15 39.75 -43.8 39.85 -45.3 39.9 -46.35 37.9 -47.7 35.5 -48.65 35.1 -52.65 39.0 -54.4 39.1 L-55.7 39.15 Q-56.3 39.0 -56.3 37.95 -56.4 36.75 -51.4 33.15 L-58.5 32.5 Q-62.2 32.0 -62.25 30.05 -62.3 28.1 -58.7 28.55 L-54.0 29.35 -50.35 30.95 -48.65 31.8 Q-49.9 29.1 -51.15 27.7 L-54.25 24.35 Q-54.85 23.4 -54.9 21.9 -54.95 21.25 -54.65 20.9 -54.3 20.45 -53.45 20.5 -52.85 20.5 -52.3 20.8 -51.35 21.25 -50.35 22.55 L-47.6 26.65 Q-46.25 28.95 -45.9 30.2 L-45.35 32.5 Q-42.7 31.1 -38.6 29.45 L-34.9 28.0 -38.6 29.45 M-6.55 34.1 L-3.6 30.15 2.05 22.55 2.1 22.5 Q4.75 18.95 9.45 16.6 14.1 14.25 15.0 12.2 L14.6 10.15 Q11.75 6.65 5.15 11.45 -0.9 14.9 -2.6 15.55 L-4.35 16.25 Q-6.15 16.95 -15.75 12.2 -22.35 8.25 -25.2 11.75 L-25.6 13.8 Q-24.7 15.85 -20.0 18.2 -17.0 19.7 -14.85 21.7 L-12.65 24.1 Q-10.85 26.5 -8.8 30.3 L-6.95 33.9 -8.8 30.3 Q-10.85 26.5 -12.65 24.1 L-14.85 21.7 Q-17.0 19.7 -20.0 18.2 -24.7 15.85 -25.6 13.8 L-25.2 11.75 Q-22.35 8.25 -15.75 12.2 -6.15 16.95 -4.35 16.25 L-2.6 15.55 Q-0.9 14.9 5.15 11.45 11.75 6.65 14.6 10.15 L15.0 12.2 Q14.1 14.25 9.45 16.6 4.75 18.95 2.1 22.5 L2.05 22.55 -3.6 30.15 -6.55 34.1 -6.55 34.05 -6.95 33.9 -6.8 34.15 -6.6 34.15 -6.5 34.15 -6.55 34.1 M0.55 9.7 Q3.1 9.7 6.65 6.65 10.2 3.6 13.4 3.6 L14.75 3.7 Q4.8 -16.15 -14.95 -6.85 -21.45 -3.75 -23.55 3.6 -21.75 4.5 -19.1 6.65 -15.0 9.95 -12.6 9.3 -10.2 8.6 -9.2 7.8 -8.2 6.95 -7.25 6.65 L-6.4 6.7 Q-3.9 7.0 -2.6 8.25 -1.1 9.7 0.55 9.7 -1.1 9.7 -2.6 8.25 -3.9 7.0 -6.4 6.7 L-7.25 6.65 Q-8.2 6.95 -9.2 7.8 -10.2 8.6 -12.6 9.3 -15.0 9.95 -19.1 6.65 -21.75 4.5 -23.55 3.6 -21.45 -3.75 -14.95 -6.85 4.8 -16.15 14.75 3.7 L13.4 3.6 Q10.2 3.6 6.65 6.65 3.1 9.7 0.55 9.7 M-33.85 28.4 L-33.75 31.2 -33.55 31.4 -36.15 31.9 -33.55 31.4 -33.75 31.2 -33.85 28.4" fill="#000000" fill-rule="evenodd" stroke="none"/>
    <path d="M-38.6 29.45 Q-43.2 23.95 -43.45 16.3 -43.8 4.85 -41.75 1.0 L-49.35 -4.05 Q-49.9 -5.05 -48.45 1.85 -48.95 7.7 -52.65 6.55 -57.1 5.65 -57.35 2.9 -60.3 -3.2 -60.15 -9.5 L-64.25 1.8 Q-66.8 8.35 -71.8 6.55 -76.9 4.65 -73.5 -6.55 -68.25 -18.6 -67.35 -21.0 -69.55 -19.3 -76.35 -15.75 -85.05 -11.2 -87.4 -12.05 -91.45 -13.55 -90.25 -16.8 -89.65 -18.5 -81.6 -23.55 -73.55 -28.6 -72.55 -31.35 -79.85 -34.0 -86.85 -39.2 -98.2 -47.55 -95.35 -55.2 -95.2 -56.45 -94.8 -56.75 -94.35 -57.1 -92.2 -56.3 -80.3 -47.3 -77.0 -45.85 -69.05 -43.0 -64.6 -40.65 -60.15 -38.35 -57.85 -32.55 -55.55 -26.75 -47.55 -17.0 -43.55 -12.1 -35.65 -4.95 -7.3 -27.0 19.4 -5.25 L22.2 -2.7 Q32.2 -6.8 37.7 -10.05 48.55 -16.45 52.7 -21.1 56.85 -25.75 61.85 -26.4 L75.35 -27.05 Q78.85 -27.3 93.2 -31.65 L93.3 -31.65 Q95.45 -31.65 95.8 -31.15 96.0 -30.75 95.8 -29.55 95.8 -26.05 93.3 -23.3 89.95 -19.65 82.25 -17.4 73.85 -14.9 66.1 -14.9 66.1 -12.0 71.95 -4.45 77.75 3.05 77.75 4.85 77.75 8.3 73.45 8.35 70.95 8.35 64.35 1.05 59.15 -4.6 57.7 -6.95 57.65 -4.4 58.5 8.7 57.95 18.45 54.15 20.1 L52.45 20.45 50.35 20.1 Q47.0 18.9 46.95 13.4 L46.95 1.35 Q44.9 7.35 40.65 11.0 36.4 14.6 34.4 13.9 30.5 13.65 32.05 8.0 L35.85 1.85 24.75 4.25 Q26.75 7.05 26.6 12.9 26.25 24.4 17.25 32.9 13.3 36.65 6.95 39.3 L5.75 39.75 M1.75 40.85 L-0.6 41.4 Q-20.45 44.65 -36.15 31.9 L-33.55 31.4 -33.75 31.2 -33.85 28.4 M-38.6 29.45 L-34.9 28.0 M0.55 9.7 Q-1.1 9.7 -2.6 8.25 -3.9 7.0 -6.4 6.7 L-7.25 6.65 Q-8.2 6.95 -9.2 7.8 -10.2 8.6 -12.6 9.3 -15.0 9.95 -19.1 6.65 -21.75 4.5 -23.55 3.6 -21.45 -3.75 -14.95 -6.85 4.8 -16.15 14.75 3.7 L13.4 3.6 Q10.2 3.6 6.65 6.65 3.1 9.7 0.55 9.7 M-6.95 33.9 L-8.8 30.3 Q-10.85 26.5 -12.65 24.1 L-14.85 21.7 Q-17.0 19.7 -20.0 18.2 -24.7 15.85 -25.6 13.8 L-25.2 11.75 Q-22.35 8.25 -15.75 12.2 -6.15 16.95 -4.35 16.25 L-2.6 15.55 Q-0.9 14.9 5.15 11.45 11.75 6.65 14.6 10.15 L15.0 12.2 Q14.1 14.25 9.45 16.6 4.75 18.95 2.1 22.5 L2.05 22.55 -3.6 30.15 -6.55 34.1 -6.5 34.15 -6.6 34.15 -6.8 34.15 -6.95 33.9 -6.55 34.05 -6.55 34.1 -6.6 34.15" fill="none" stroke="#333333" stroke-linecap="round" stroke-linejoin="round" stroke-width="4.0"/>
    <path d="M-38.6 29.45 Q-43.2 23.95 -43.45 16.3 -43.8 4.85 -41.75 1.0 L-49.35 -4.05 Q-49.9 -5.05 -48.45 1.85 -48.95 7.7 -52.65 6.55 -57.1 5.65 -57.35 2.9 -60.3 -3.2 -60.15 -9.5 L-64.25 1.8 Q-66.8 8.35 -71.8 6.55 -76.9 4.65 -73.5 -6.55 -68.25 -18.6 -67.35 -21.0 -69.55 -19.3 -76.35 -15.75 -85.05 -11.2 -87.4 -12.05 -91.45 -13.55 -90.25 -16.8 -89.65 -18.5 -81.6 -23.55 -73.55 -28.6 -72.55 -31.35 -79.85 -34.0 -86.85 -39.2 -98.2 -47.55 -95.35 -55.2 -95.2 -56.45 -94.8 -56.75 -94.35 -57.1 -92.2 -56.3 -80.3 -47.3 -77.0 -45.85 -69.05 -43.0 -64.6 -40.65 -60.15 -38.35 -57.85 -32.55 -55.55 -26.75 -47.55 -17.0 -43.55 -12.1 -35.65 -4.95 -7.3 -27.0 19.4 -5.25 L22.2 -2.7 Q32.2 -6.8 37.7 -10.05 48.55 -16.45 52.7 -21.1 56.85 -25.75 61.85 -26.4 L75.35 -27.05 Q78.85 -27.3 93.2 -31.65 L93.3 -31.65 Q95.45 -31.65 95.8 -31.15 96.0 -30.75 95.8 -29.55 95.8 -26.05 93.3 -23.3 89.95 -19.65 82.25 -17.4 73.85 -14.9 66.1 -14.9 66.1 -12.0 71.95 -4.45 77.75 3.05 77.75 4.85 77.75 8.3 73.45 8.35 70.95 8.35 64.35 1.05 59.15 -4.6 57.7 -6.95 57.65 -4.4 58.5 8.7 57.95 18.45 54.15 20.1 L52.45 20.45 50.35 20.1 Q47.0 18.9 46.95 13.4 L46.95 1.35 Q44.9 7.35 40.65 11.0 36.4 14.6 34.4 13.9 30.5 13.65 32.05 8.0 L35.85 1.85 24.75 4.25 Q26.75 7.05 26.6 12.9 26.25 24.4 17.25 32.9 13.3 36.65 6.95 39.3 L5.75 39.75 4.35 36.9 3.6 37.0 2.6 37.55 0.15 38.55 1.75 40.85 -0.6 41.4 Q-20.45 44.65 -36.15 31.9 L-33.55 31.4 -33.75 31.2 -33.85 28.4 -33.95 28.35 -34.25 28.2 -34.9 28.0 -38.6 29.45 M-10.6 -0.75 Q-11.45 -1.6 -12.7 -1.6 -13.95 -1.6 -14.8 -0.75 -15.65 0.1 -15.65 1.35 -15.65 2.6 -14.8 3.45 -13.95 4.3 -12.7 4.3 -11.45 4.3 -10.6 3.45 -9.75 2.6 -9.75 1.35 -9.75 0.1 -10.6 -0.75 M15.7 3.9 Q13.1 -1.2 8.95 -5.2 5.45 -8.65 0.85 -9.6 -6.7 -11.4 -13.85 -8.1 -21.7 -4.55 -24.95 3.05 -21.7 -4.55 -13.85 -8.1 -6.7 -11.4 0.85 -9.6 5.45 -8.65 8.95 -5.2 13.1 -1.2 15.7 3.9 L14.75 3.7 13.4 3.6 Q10.2 3.6 6.65 6.65 3.1 9.7 0.55 9.7 -1.1 9.7 -2.6 8.25 -3.9 7.0 -6.4 6.7 L-7.25 6.65 Q-8.2 6.95 -9.2 7.8 -10.2 8.6 -12.6 9.3 -15.0 9.95 -19.1 6.65 -21.75 4.5 -23.55 3.6 -24.3 3.2 -24.95 3.05 L-25.25 2.95 -26.3 3.0 Q-27.95 3.3 -29.65 5.6 -31.95 8.65 -31.1 12.5 -30.25 16.3 -27.75 17.65 L-19.65 22.05 Q-16.65 23.7 -14.85 26.15 -13.15 28.95 -12.7 30.8 -11.4 36.05 -7.15 37.25 L-6.8 37.25 -4.8 37.05 Q-3.0 36.85 1.7 29.95 6.35 23.05 8.65 21.15 10.95 19.25 12.05 19.15 L16.4 17.9 Q20.8 16.2 20.9 11.85 21.0 7.5 18.8 5.55 L16.65 4.2 15.7 3.9 M3.05 -0.75 Q2.2 -1.6 0.95 -1.6 -0.3 -1.6 -1.15 -0.75 -2.0 0.1 -2.0 1.35 -2.0 2.6 -1.15 3.45 -0.3 4.3 0.95 4.3 2.2 4.3 3.05 3.45 3.9 2.6 3.9 1.35 3.9 0.1 3.05 -0.75" fill="#ffffff" fill-rule="evenodd" stroke="none"/>
    <path d="M3.05 -0.75 Q3.9 0.1 3.9 1.35 3.9 2.6 3.05 3.45 2.2 4.3 0.95 4.3 -0.3 4.3 -1.15 3.45 -2.0 2.6 -2.0 1.35 -2.0 0.1 -1.15 -0.75 -0.3 -1.6 0.95 -1.6 2.2 -1.6 3.05 -0.75 M14.15 10.4 L14.5 12.15 Q13.5 14.0 9.25 16.15 4.4 18.55 1.7 22.2 L1.6 22.5 1.55 22.55 1.6 22.3 Q-0.6 26.3 -3.05 29.65 -5.25 32.45 -6.85 31.75 -7.55 30.75 -8.25 28.25 L-8.25 28.3 Q-9.15 25.25 -11.3 23.85 L-14.5 21.35 Q-16.7 19.3 -19.75 17.75 -24.1 15.6 -25.05 13.75 L-24.7 12.0 Q-22.05 9.0 -16.0 12.65 L-15.95 12.65 Q-6.05 17.55 -4.15 16.75 L-3.95 16.55 -3.85 16.25 -2.45 16.05 -2.4 16.05 Q-0.7 15.35 5.4 11.9 L5.45 11.85 Q8.6 9.55 10.9 9.25 12.9 8.95 14.15 10.4" fill="#000000" fill-rule="evenodd" stroke="none"/>
    <path d="M15.7 3.9 L16.65 4.2 18.8 5.55 Q21.0 7.5 20.9 11.85 20.8 16.2 16.4 17.9 L12.05 19.15 Q10.95 19.25 8.65 21.15 6.35 23.05 1.7 29.95 -3.0 36.85 -4.8 37.05 L-6.8 37.25 -7.15 37.25 Q-11.4 36.05 -12.7 30.8 -13.15 28.95 -14.85 26.15 -16.65 23.7 -19.65 22.05 L-27.75 17.65 Q-30.25 16.3 -31.1 12.5 -31.95 8.65 -29.65 5.6 -27.95 3.3 -26.3 3.0 L-25.25 2.95 -24.95 3.05 Q-24.3 3.2 -23.55 3.6 -21.75 4.5 -19.1 6.65 -15.0 9.95 -12.6 9.3 -10.2 8.6 -9.2 7.8 -8.2 6.95 -7.25 6.65 L-6.4 6.7 Q-3.9 7.0 -2.6 8.25 -1.1 9.7 0.55 9.7 3.1 9.7 6.65 6.65 10.2 3.6 13.4 3.6 L14.75 3.7 15.7 3.9 M14.15 10.4 Q12.9 8.95 10.9 9.25 8.6 9.55 5.45 11.85 L5.4 11.9 Q-0.7 15.35 -2.4 16.05 L-2.45 16.05 -3.85 16.25 -3.95 16.55 -4.15 16.75 Q-6.05 17.55 -15.95 12.65 L-16.0 12.65 Q-22.05 9.0 -24.7 12.0 L-25.05 13.75 Q-24.1 15.6 -19.75 17.75 -16.7 19.3 -14.5 21.35 L-11.3 23.85 Q-9.15 25.25 -8.25 28.3 L-8.25 28.25 Q-7.55 30.75 -6.85 31.75 -5.25 32.45 -3.05 29.65 -0.6 26.3 1.6 22.3 L1.55 22.55 1.6 22.5 1.7 22.2 Q4.4 18.55 9.25 16.15 13.5 14.0 14.5 12.15 L14.15 10.4" fill="#ff9900" fill-rule="evenodd" stroke="none"/>
    <path d="M-36.15 31.9 Q-37.5 32.3 -38.8 33.0 L-42.95 35.65 -42.95 36.15 Q-42.25 36.95 -42.2 38.2 -42.15 39.75 -43.8 39.85 -45.3 39.9 -46.35 37.9 -47.7 35.5 -48.65 35.1 -52.65 39.0 -54.4 39.1 L-55.7 39.15 Q-56.3 39.0 -56.3 37.95 -56.4 36.75 -51.4 33.15 L-58.5 32.5 Q-62.2 32.0 -62.25 30.05 -62.3 28.1 -58.7 28.55 L-54.0 29.35 -50.35 30.95 -48.65 31.8 Q-49.9 29.1 -51.15 27.7 L-54.25 24.35 Q-54.85 23.4 -54.9 21.9 -54.95 21.25 -54.65 20.9 -54.3 20.45 -53.45 20.5 -52.85 20.5 -52.3 20.8 -51.35 21.25 -50.35 22.55 L-47.6 26.65 Q-46.25 28.95 -45.9 30.2 L-45.35 32.5 Q-42.7 31.1 -38.6 29.45 L-34.9 28.0 -34.25 28.2 -33.95 28.35 -33.85 28.4 -33.75 31.2 -33.55 31.4 -36.15 31.9" fill="#a74403" fill-rule="evenodd" stroke="none"/>
    <path d="M5.75 39.75 Q9.3 46.9 10.65 49.05 11.65 45.95 12.75 43.5 15.0 38.25 17.35 38.25 19.25 38.25 21.15 40.2 L22.65 42.2 26.35 42.3 Q28.5 42.4 28.35 44.25 28.2 46.05 24.65 46.25 L21.6 46.25 Q22.65 46.45 23.8 47.5 25.05 48.7 25.05 49.9 25.05 52.0 23.05 52.0 22.3 52.0 21.4 50.5 20.45 49.0 18.85 49.0 L17.5 49.15 Q16.35 50.95 14.4 52.05 12.05 53.35 9.45 52.9 9.25 53.6 7.9 55.1 6.35 56.85 5.5 56.85 L4.65 56.75 Q4.5 56.65 4.5 55.75 4.5 53.9 7.7 51.25 6.7 48.15 1.75 40.85 L0.15 38.55 2.6 37.55 3.6 37.0 4.35 36.9 5.75 39.75" fill="#b84b03" fill-rule="evenodd" stroke="none"/>
    <path d="M-24.95 3.05 Q-21.7 -4.55 -13.85 -8.1 -6.7 -11.4 0.85 -9.6 5.45 -8.65 8.95 -5.2 13.1 -1.2 15.7 3.9" fill="none" stroke="#666666" stroke-linecap="round" stroke-linejoin="round" stroke-width="0.05"/>
    <path d="M-38.6 29.45 L-34.9 28.0 M-33.85 28.4 L-33.75 31.2 -33.55 31.4 -36.15 31.9" fill="none" stroke="#ff6600" stroke-linecap="round" stroke-linejoin="round" stroke-width="0.05"/>
    <path d="M-23.55 3.6 Q-21.75 4.5 -19.1 6.65 -15.0 9.95 -12.6 9.3 -10.2 8.6 -9.2 7.8 -8.2 6.95 -7.25 6.65 L-6.4 6.7 Q-3.9 7.0 -2.6 8.25 -1.1 9.7 0.55 9.7 3.1 9.7 6.65 6.65 10.2 3.6 13.4 3.6 L14.75 3.7" fill="none" stroke="#ff3300" stroke-linecap="round" stroke-linejoin="round" stroke-width="0.05"/>
    <path d="M-12.7 -1.6 Q-11.45 -1.6 -10.6 -0.75 -9.75 0.1 -9.75 1.35 -9.75 2.6 -10.6 3.45 -11.45 4.3 -12.7 4.3 -13.95 4.3 -14.8 3.45 -15.65 2.6 -15.65 1.35 -15.65 0.1 -14.8 -0.75 -13.95 -1.6 -12.7 -1.6" fill="#000000" fill-rule="evenodd" stroke="none"/>
  </g>
</svg>
