<?xml version="1.0" encoding="UTF-8" standalone="no"?>
<svg xmlns:ffdec="https://www.free-decompiler.com/flash" xmlns:xlink="http://www.w3.org/1999/xlink" ffdec:objectType="shape" height="36.1px" width="30.1px" xmlns="http://www.w3.org/2000/svg">
  <g transform="matrix(1.0, 0.0, 0.0, 1.0, 15.05, 18.05)">
    <path d="M9.95 -14.15 Q12.1 -12.65 13.15 -10.8 L13.15 -10.75 Q13.95 -9.25 13.95 -7.5 13.95 -5.75 13.15 -4.2 12.15 -2.35 9.95 -0.9 6.7 1.3 3.4 1.85 L3.15 2.0 3.0 2.25 3.0 2.6 6.85 14.2 -1.9 1.95 -2.05 1.8 -3.2 1.05 -3.6 0.95 -3.95 1.2 -4.05 1.45 Q-7.6 0.75 -9.9 -0.9 L-9.95 -0.9 Q-13.95 -3.6 -13.95 -7.5 -13.9 -11.4 -9.9 -14.15 L-9.95 -14.15 Q-5.8 -16.95 0.0 -16.95 5.8 -16.95 9.95 -14.15 M1.2 -14.35 L-0.85 -14.35 -0.95 -14.3 -1.05 -14.2 -1.1 -14.05 -0.7 -6.45 -0.6 -6.3 -0.45 -6.25 0.85 -6.25 1.05 -6.3 1.1 -6.5 1.45 -14.1 1.45 -14.2 1.35 -14.3 1.2 -14.35 M1.4 -3.4 L1.35 -3.55 1.15 -3.65 -0.8 -3.65 -0.95 -3.55 -1.05 -3.4 -1.05 -1.5 -0.95 -1.3 -0.8 -1.25 1.15 -1.25 1.35 -1.3 1.4 -1.5 1.4 -3.4" fill="#ffffff" fill-rule="evenodd" stroke="none"/>
    <path d="M1.4 -3.4 L1.4 -1.5 1.35 -1.3 1.15 -1.25 -0.8 -1.25 -0.95 -1.3 -1.05 -1.5 -1.05 -3.4 -0.95 -3.55 -0.8 -3.65 1.15 -3.65 1.35 -3.55 1.4 -3.4 M1.2 -14.35 L1.35 -14.3 1.45 -14.2 1.45 -14.1 1.1 -6.5 1.05 -6.3 0.85 -6.25 -0.45 -6.25 -0.6 -6.3 -0.7 -6.45 -1.1 -14.05 -1.05 -14.2 -0.95 -14.3 -0.85 -14.35 1.2 -14.35" fill="#000000" fill-rule="evenodd" stroke="none"/>
    <path d="M10.55 -15.05 L10.6 -15.05 Q13.0 -13.35 14.1 -11.3 15.05 -9.55 15.05 -7.5 15.05 -5.45 14.1 -3.65 L14.1 -3.7 Q12.95 -1.65 10.55 0.0 7.4 2.15 4.25 2.85 L9.05 17.35 9.0 17.7 8.75 18.0 8.4 18.05 8.05 17.85 -2.65 2.8 Q-7.55 2.15 -10.55 0.0 -15.05 -3.1 -15.05 -7.5 -15.1 -11.9 -10.55 -15.05 -6.2 -18.05 0.0 -18.05 6.2 -18.05 10.55 -15.05 M9.95 -14.15 Q5.8 -16.95 0.0 -16.95 -5.8 -16.95 -9.95 -14.15 L-9.9 -14.15 Q-13.9 -11.4 -13.95 -7.5 -13.95 -3.6 -9.95 -0.9 L-9.9 -0.9 Q-7.6 0.75 -4.05 1.45 L-3.95 1.2 -3.6 0.95 -3.2 1.05 -2.05 1.8 -1.9 1.95 6.85 14.2 3.0 2.6 3.0 2.25 3.15 2.0 3.4 1.85 Q6.7 1.3 9.95 -0.9 12.15 -2.35 13.15 -4.2 13.95 -5.75 13.95 -7.5 13.95 -9.25 13.15 -10.75 L13.15 -10.8 Q12.1 -12.65 9.95 -14.15" fill="#2b2b2b" fill-rule="evenodd" stroke="none"/>
  </g>
</svg>
