<?xml version="1.0" encoding="UTF-8" standalone="no"?>
<svg xmlns:ffdec="https://www.free-decompiler.com/flash" xmlns:xlink="http://www.w3.org/1999/xlink" ffdec:objectType="shape" height="175.2px" width="330.0px" xmlns="http://www.w3.org/2000/svg">
  <g transform="matrix(1.0, 0.0, 0.0, 1.0, 149.3, 86.4)">
    <path d="M-52.8 -79.85 L-52.8 -79.8 -55.7 -80.15 -52.8 -79.85 M-140.25 -73.6 L-129.75 -76.0 -129.75 -75.95 -140.25 -73.6" fill="#3e3efd" fill-rule="evenodd" stroke="none"/>
    <path d="M-52.8 -79.8 L-53.0 -61.25 -8.85 -73.15 -59.85 -51.7 -59.5 -80.65 -55.7 -80.15 -52.8 -79.8 M7.9 -71.4 L7.0 -64.05 -18.7 -53.15 5.9 -51.65 5.25 -45.35 Q-4.45 -53.15 -42.7 -49.85 L7.9 -71.4 M4.15 -28.7 L3.9 -22.35 -11.7 -23.05 3.5 -12.95 3.35 -7.3 -42.9 -32.95 4.15 -28.7 M-0.8 0.0 L-2.2 0.0 -9.6 -0.5 Q-22.55 -5.9 -53.9 -21.55 L-54.3 -2.2 -60.95 -2.25 -60.25 -32.7 -0.8 0.0 M-78.4 -2.8 L-84.9 -2.9 -84.65 -22.1 Q-109.55 -7.1 -122.3 -0.5 L-134.95 0.6 -133.45 0.4 -77.85 -33.3 -78.4 -2.8 M-149.3 0.55 L-149.3 -6.75 -148.55 -7.2 -121.15 -24.0 -148.1 -21.4 -149.3 -21.25 -149.3 -27.6 -95.0 -32.65 -149.3 0.55 M-149.3 -44.4 L-149.3 -50.65 -147.15 -50.8 -139.15 -51.5 Q-144.85 -49.0 -149.3 -44.4 M-146.85 -59.15 L-149.3 -60.0 -149.3 -66.85 -101.75 -50.75 Q-118.95 -56.2 -131.45 -53.85 L-146.85 -59.15 M-141.7 -73.3 L-140.25 -73.6 -129.75 -75.95 -83.8 -60.3 -82.05 -81.25 -82.05 -81.5 -77.1 -81.65 -78.5 -51.85 -141.7 -73.3 M102.9 -58.55 L104.85 -50.6 96.05 -53.75 87.05 -48.95 87.5 -58.3 77.8 -65.2 89.05 -66.45 92.35 -76.7 99.35 -66.05 108.6 -64.35 102.9 -58.55 M57.35 -16.15 L62.2 -5.3 51.0 -7.8 42.4 0.55 42.65 -10.75 33.2 -15.55 44.2 -20.35 47.25 -29.5 52.95 -23.05 59.15 -24.95 Q62.65 -24.55 60.9 -22.0 L57.35 -16.15" fill="#ffffff" fill-rule="evenodd" stroke="none"/>
    <path d="M-8.85 -73.15 L7.9 -71.4 -42.7 -49.85 Q-4.45 -53.15 5.25 -45.35 L4.15 -28.7 -42.9 -32.95 3.35 -7.3 3.45 0.0 -0.8 0.0 -60.25 -32.7 -60.95 -2.25 -60.95 -2.1 -78.4 -2.8 -77.85 -33.3 -133.45 0.4 -148.85 1.5 -148.9 1.5 -149.3 1.55 -149.3 0.55 -95.0 -32.65 -149.3 -27.6 -149.3 -44.4 Q-144.85 -49.0 -139.15 -51.5 L-127.55 -52.5 -131.45 -53.85 Q-118.95 -56.2 -101.75 -50.75 L-149.3 -66.85 -149.3 -70.55 -148.1 -71.4 Q-145.35 -73.1 -141.7 -73.3 L-78.5 -51.85 -77.1 -81.65 -59.5 -80.65 -59.85 -51.7 -8.85 -73.15" fill="#cc0000" fill-rule="evenodd" stroke="none"/>
    <path d="M-147.15 -50.8 L-146.85 -59.15 -131.45 -53.85 -127.55 -52.5 -139.15 -51.5 -147.15 -50.8 M-129.75 -76.0 Q-105.9 -80.9 -82.05 -81.25 L-83.8 -60.3 -129.75 -75.95 -129.75 -76.0" fill="#344c56" fill-rule="evenodd" stroke="none"/>
    <path d="M-52.8 -79.85 L-37.85 -77.85 Q-22.45 -75.5 -6.85 -74.0 L13.7 -76.75 14.75 -76.85 14.75 -76.25 19.8 -76.7 84.85 -85.45 108.6 -86.3 Q144.65 -83.35 176.3 -67.9 166.2 10.75 180.7 88.8 128.55 66.7 73.2 73.35 42.85 77.75 12.5 81.1 -2.9 81.5 -18.45 79.65 -77.6 68.95 -137.4 75.25 L-149.3 76.5 -149.3 5.7 -149.25 5.7 -149.2 4.3 -148.95 4.3 -148.85 1.5 -133.45 0.4 -134.95 0.6 -122.3 -0.5 Q-109.55 -7.1 -84.65 -22.1 L-84.9 -2.9 -78.4 -2.8 -60.95 -2.1 -60.95 -2.25 -54.3 -2.2 -53.9 -21.55 Q-22.55 -5.9 -9.6 -0.5 L-2.2 0.0 -0.8 0.0 3.45 0.0 3.35 -7.3 3.5 -12.95 -11.7 -23.05 3.9 -22.35 4.15 -28.7 5.25 -45.35 5.9 -51.65 -18.7 -53.15 7.0 -64.05 7.9 -71.4 -8.85 -73.15 -53.0 -61.25 -52.8 -79.8 -52.8 -79.85 M-148.55 -7.2 L-148.1 -21.4 -121.15 -24.0 -148.55 -7.2 M57.35 -16.15 L60.9 -22.0 Q62.65 -24.55 59.15 -24.95 L52.95 -23.05 47.25 -29.5 44.2 -20.35 33.2 -15.55 42.65 -10.75 42.4 0.55 51.0 -7.8 62.2 -5.3 57.35 -16.15 M102.9 -58.55 L108.6 -64.35 99.35 -66.05 92.35 -76.7 89.05 -66.45 77.8 -65.2 87.5 -58.3 87.05 -48.95 96.05 -53.75 104.85 -50.6 102.9 -58.55" fill="#284ea4" fill-rule="evenodd" stroke="none"/>
  </g>
</svg>
