<?xml version="1.0" encoding="UTF-8" standalone="no"?>
<svg xmlns:ffdec="https://www.free-decompiler.com/flash" xmlns:xlink="http://www.w3.org/1999/xlink" ffdec:objectType="shape" height="57.35px" width="148.1px" xmlns="http://www.w3.org/2000/svg">
  <g transform="matrix(1.0, 0.0, 0.0, 1.0, 74.05, 28.7)">
    <path d="M12.65 -12.6 L12.6 -13.6 13.75 -15.7 11.9 -15.25 12.1 -16.4 13.45 -17.45 Q23.95 -26.05 32.85 -26.05 37.4 -26.05 39.75 -23.4 42.45 -20.3 41.4 -14.55 39.25 -2.45 26.35 7.3 32.0 13.35 37.15 17.0 L36.4 20.1 35.7 19.65 35.5 20.75 35.1 20.0 32.35 19.5 33.4 20.95 34.6 21.5 34.85 21.95 35.25 21.95 35.0 23.7 34.65 23.6 34.05 23.85 33.35 23.75 34.35 26.55 26.9 22.15 Q22.45 19.55 19.7 17.35 19.3 19.5 19.0 22.65 L17.35 23.6 17.35 23.55 17.95 22.3 17.45 19.0 16.75 21.05 16.75 22.35 16.3 21.5 13.95 25.15 13.35 24.45 12.1 25.6 Q14.15 3.2 16.15 -9.2 L15.2 -8.5 15.5 -8.9 13.8 -9.2 12.1 -7.5 11.85 -9.4 13.75 -10.65 13.0 -11.5 13.8 -12.0 14.2 -12.0 15.05 -13.05 13.4 -13.3 12.65 -12.6 M18.65 -16.4 L17.45 -16.6 15.6 -14.9 16.75 -15.0 17.7 -15.6 18.1 -15.6 18.65 -16.4 M5.55 -23.8 L9.1 -25.6 Q7.25 -14.8 6.4 -1.65 L8.95 -2.6 8.4 -0.45 7.65 0.6 Q7.05 1.15 6.9 1.95 L7.05 2.8 7.2 3.9 6.9 5.0 6.65 6.05 5.9 6.35 5.65 16.85 4.9 17.1 3.85 19.05 2.4 20.55 2.35 20.75 1.8 20.35 1.35 19.9 1.25 20.05 -2.1 21.65 -2.25 9.7 Q-5.2 11.05 -10.35 13.95 L-13.0 23.4 -13.2 23.5 -13.55 23.0 -13.9 22.5 Q-14.25 22.5 -14.7 23.65 L-15.4 25.0 -15.4 24.9 -16.35 25.7 -17.35 26.55 Q-16.75 25.8 -16.4 23.9 L-16.05 23.35 -16.2 22.2 -17.7 24.25 -17.95 26.9 -18.9 27.25 Q-19.35 27.25 -19.35 26.55 L-19.45 25.85 -20.35 27.25 Q-19.15 22.1 -18.0 15.5 -15.35 0.85 -9.1 -19.45 L-5.35 -21.0 -3.35 -22.55 Q-2.35 -23.4 -1.1 -23.4 -0.25 -23.4 2.65 -24.8 2.0 -23.1 1.5 -21.4 L3.25 -22.1 4.4 -23.3 4.85 -23.5 4.05 -21.75 4.85 -18.65 5.6 -21.0 5.5 -22.8 5.7 -23.45 5.55 -23.8 M3.9 -17.0 L3.6 -17.6 2.9 -15.95 3.35 -14.0 3.9 -15.5 3.8 -16.6 3.9 -17.0 M14.25 -7.85 L14.35 -7.85 12.3 -6.05 12.2 -6.9 12.9 -6.95 14.25 -7.85 M26.55 -13.8 Q24.1 -5.0 23.15 0.2 30.9 -5.0 31.65 -9.1 32.5 -13.85 27.65 -13.85 L26.55 -13.8 M70.55 -24.9 Q70.35 -23.25 70.5 -22.55 70.75 -21.85 71.7 -21.65 72.4 -21.4 72.4 -19.7 L71.05 -19.1 69.2 -15.6 70.85 -16.75 72.0 -18.3 72.3 -18.5 Q72.0 -16.6 72.85 -16.05 73.95 -15.2 74.05 -14.7 67.35 -5.55 56.15 7.9 L62.8 12.45 Q66.6 14.95 69.8 16.5 L69.45 19.65 68.55 19.3 68.55 20.45 68.15 19.55 65.15 19.0 66.2 20.6 67.55 21.25 67.85 21.75 68.5 21.6 68.45 23.4 68.1 23.25 68.1 23.55 68.5 24.3 68.15 24.2 68.1 26.35 58.7 22.65 Q53.25 20.45 49.55 18.35 L48.7 24.4 47.15 25.25 46.15 23.0 46.25 21.65 46.6 21.05 46.25 19.7 44.95 22.05 45.05 24.4 43.8 26.35 43.25 25.6 42.05 26.65 43.4 11.3 43.6 11.1 Q44.6 -0.15 48.0 -19.75 49.65 -20.5 52.95 -22.2 L53.15 -20.45 52.6 -19.55 52.85 -15.9 53.7 -18.0 53.9 -19.9 54.15 -20.45 54.0 -21.0 55.05 -22.35 57.5 -23.45 56.9 -20.5 58.5 -21.0 Q55.45 -9.65 53.9 -2.45 L70.55 -27.25 70.55 -24.9 M50.75 -16.2 L50.95 -16.55 50.75 -17.35 49.9 -15.9 50.0 -13.45 50.65 -14.9 50.75 -16.2 M51.2 -10.6 L51.35 -10.8 51.25 -11.3 50.75 -10.45 50.8 -8.95 51.15 -9.8 51.2 -10.6 M67.1 -15.75 L67.35 -16.55 66.25 -16.05 65.2 -14.1 66.15 -14.7 66.8 -15.6 67.1 -15.75 M63.3 19.85 L61.6 19.5 62.2 20.4 62.95 20.75 63.15 21.05 63.75 20.95 63.3 19.85 M47.35 16.65 L47.5 19.05 48.05 17.7 48.15 16.4 48.35 16.0 48.15 15.25 47.35 16.65 M32.3 17.8 L31.75 16.65 30.0 16.3 30.6 17.25 31.45 17.6 31.6 17.95 32.3 17.8 M15.55 16.65 L15.55 17.8 15.45 18.25 15.75 19.0 16.45 17.55 16.05 15.15 15.55 16.65 M-49.45 -27.0 L-48.85 -25.4 -49.6 -25.2 -51.05 -23.85 -51.45 -23.8 -52.45 -22.25 -51.05 -22.05 -48.8 -24.8 Q-48.85 -24.35 -49.8 -22.05 L-48.45 -20.3 -48.5 -20.3 -49.55 -19.35 -49.9 -19.25 -50.55 -18.2 -49.5 -18.05 -48.15 -19.6 -48.0 -19.2 -48.1 -16.95 Q-60.05 -8.6 -61.05 -3.1 -61.4 -1.2 -59.1 0.4 -55.65 2.85 -54.95 3.7 -52.9 6.35 -53.7 10.8 -54.5 15.35 -58.8 20.8 -61.95 24.95 -66.25 28.65 L-66.35 28.1 -66.0 27.15 -65.65 26.2 Q-65.6 25.8 -67.35 25.8 L-68.3 25.8 -65.7 22.9 Q-67.6 23.3 -69.05 25.05 L-69.5 25.2 -69.95 25.8 -71.0 25.1 Q-63.35 19.0 -62.75 15.6 -62.35 13.45 -65.65 11.2 L-71.65 6.75 Q-74.7 3.5 -73.9 -1.05 -72.5 -8.85 -64.05 -17.55 -57.35 -24.55 -49.95 -28.7 L-49.45 -27.0 M-43.15 -17.95 L-42.6 -17.8 -42.05 -17.65 Q-41.3 -17.65 -39.95 -19.1 L-39.5 -16.45 -38.95 -18.15 -39.0 -19.55 -38.8 -20.05 -38.9 -20.3 Q-38.6 -20.85 -38.1 -20.85 L-37.25 -20.6 -36.4 -20.35 Q-35.85 -20.35 -34.65 -21.75 L-32.8 -23.75 -36.95 -2.8 -31.85 -5.4 -30.55 -12.75 -28.15 -24.65 -25.75 -25.6 -26.55 -24.15 -25.95 -20.15 -25.15 -22.55 -25.05 -24.65 -24.8 -25.35 -25.0 -25.85 -25.0 -25.9 -22.95 -26.75 -22.7 -24.65 -20.75 -26.75 -18.1 -27.65 -18.85 -24.85 -17.15 -25.2 -22.25 -7.45 -19.6 -8.25 -21.2 -4.0 -22.65 -3.5 -22.2 -2.4 -23.1 0.9 -24.4 1.4 -25.05 4.55 -25.15 5.1 Q-25.75 8.5 -26.3 10.2 L-27.3 14.2 -28.05 18.3 -29.7 19.0 -30.5 17.25 -30.4 16.9 -30.3 15.3 -30.1 14.8 -30.4 13.95 -31.3 15.65 -31.15 17.05 -33.25 20.0 -33.9 19.15 -35.15 20.05 -33.25 5.15 Q-34.45 5.55 -38.9 8.25 -40.15 15.8 -41.0 23.15 L-43.4 24.95 -43.05 23.95 -43.0 22.15 -42.8 21.5 -43.25 20.45 -44.3 22.65 -44.05 24.25 -46.35 26.35 -46.2 20.9 -48.4 27.45 -48.55 27.45 Q-46.85 1.4 -43.95 -17.7 L-43.15 -17.95 M-53.6 -19.25 L-53.85 -19.25 -54.4 -18.2 -53.5 -18.15 -51.7 -20.35 -52.65 -20.15 -53.6 -19.25 M-24.0 -20.7 L-24.9 -19.05 -24.55 -16.25 -23.95 -17.95 -23.9 -19.4 -23.7 -19.9 -24.0 -20.7 M-26.35 -12.7 L-25.95 -13.8 -25.95 -14.8 -25.85 -15.15 -26.0 -15.75 -26.65 -14.55 -26.35 -12.7 M-2.2 1.25 L-1.65 -12.4 -7.3 4.3 Q-4.5 2.45 -2.2 1.25 M-13.85 17.2 L-14.9 18.65 -15.1 21.1 Q-14.2 19.7 -14.0 18.35 L-13.8 18.0 -13.85 17.2 M-14.9 15.3 L-15.0 14.8 -15.65 15.7 -15.85 17.4 -15.35 16.4 -15.15 15.6 -14.9 15.3 M-44.15 13.4 L-45.0 15.15 -44.55 17.9 -43.95 16.2 -44.0 14.75 -43.75 14.25 -44.15 13.4 M-63.0 21.4 L-64.0 22.3 -64.3 22.45 -65.0 23.35 -63.75 23.2 -61.75 20.9 -63.0 21.4" fill="url(#gradient0)" fill-rule="evenodd" stroke="none"/>
  </g>
  <defs>
    <linearGradient gradientTransform="matrix(0.0, 0.0452, -0.0904, -1.0E-4, 0.15, 7.4)" gradientUnits="userSpaceOnUse" id="gradient0" spreadMethod="pad" x1="-819.2" x2="819.2">
      <stop offset="0.0" stop-color="#7d8895"/>
      <stop offset="0.2901960784313726" stop-color="#ffffff"/>
      <stop offset="0.40784313725490196" stop-color="#ffffff"/>
      <stop offset="0.6509803921568628" stop-color="#c3b2a7"/>
    </linearGradient>
  </defs>
</svg>
