<?xml version="1.0" encoding="UTF-8" standalone="no"?>
<svg xmlns:ffdec="https://www.free-decompiler.com/flash" xmlns:xlink="http://www.w3.org/1999/xlink" ffdec:objectType="shape" height="88.7px" width="144.05px" xmlns="http://www.w3.org/2000/svg">
  <g transform="matrix(1.0, 0.0, 0.0, 1.0, 71.7, 43.0)">
    <path d="M28.05 -29.35 L28.4 -20.7 21.1 -21.25 21.1 -41.9 33.0 -41.9 37.0 -23.25 Q37.85 -19.15 38.4 -13.95 L38.95 -18.85 Q39.25 -21.15 39.7 -23.25 L43.7 -41.9 55.55 -41.9 55.55 -1.7 48.05 -1.7 48.05 -14.35 48.25 -23.3 48.7 -38.3 40.6 -1.7 36.05 -1.7 32.2 -19.5 36.0 -20.15 32.0 -20.4 28.2 -38.3 27.9 -38.3 Q27.9 -33.85 28.05 -29.35 M0.2 -30.3 L-0.8 -25.05 1.25 -24.8 0.4 -20.4 -6.85 -20.65 -5.75 -25.45 -7.75 -25.75 -3.65 -43.0 6.45 -43.0 10.85 -23.4 13.1 -23.05 13.8 -19.9 6.25 -20.2 5.6 -23.85 3.4 -24.15 2.35 -30.3 1.95 -32.3 1.6 -35.85 1.3 -38.5 0.95 -35.85 0.6 -32.75 0.2 -30.3 M4.1 -20.15 L11.65 -19.9 15.55 -2.75 7.55 -2.75 6.5 -8.0 9.8 -8.05 6.45 -8.3 5.55 -12.95 -3.25 -12.95 -4.0 -8.95 -11.6 -9.5 -9.0 -20.65 -1.7 -20.4 -2.05 -18.85 4.35 -18.85 4.1 -20.15 M28.55 -14.35 L28.55 -1.7 21.1 -1.7 21.1 -17.6 28.45 -18.85 28.55 -14.35 M70.75 -43.0 L70.75 -20.2 63.5 -20.2 70.75 -19.4 70.75 -14.55 64.45 -12.55 70.75 -12.85 70.75 -2.75 63.3 -2.75 63.3 -43.0 70.75 -43.0 M62.0 21.8 L67.85 34.9 60.2 36.55 56.85 28.9 54.2 33.25 54.2 44.75 46.75 44.75 46.75 11.85 54.2 11.4 54.2 22.4 56.45 17.5 59.05 12.7 59.95 11.05 64.2 10.8 60.05 10.85 61.55 8.0 67.55 7.75 61.65 7.75 63.4 4.5 71.85 4.5 62.0 21.8 M54.2 10.85 L46.75 10.9 46.75 8.7 54.2 8.35 54.2 10.85 M54.2 7.75 L46.75 7.75 46.75 4.5 54.2 4.5 54.2 7.75 M40.65 20.4 Q39.15 23.4 35.7 23.9 38.85 24.35 40.25 26.4 41.45 28.15 41.45 31.3 L41.45 32.95 Q41.45 37.2 41.75 40.3 42.05 43.35 43.05 44.0 L43.05 44.75 34.85 44.75 Q34.25 43.05 34.15 40.45 L34.05 35.7 34.05 34.55 34.0 32.7 39.45 32.4 33.9 32.05 33.7 30.65 Q33.1 28.45 31.7 28.0 L29.1 27.5 25.9 27.4 23.75 27.4 23.75 44.75 16.25 44.75 16.25 19.65 20.05 19.3 20.05 13.85 16.25 13.6 16.25 4.5 30.45 4.5 Q35.8 4.5 38.55 6.55 41.85 8.9 41.85 14.15 41.85 18.1 40.65 20.4 M63.9 44.75 L60.45 37.0 68.7 36.75 72.35 44.75 63.9 44.75 M23.75 10.4 L23.75 13.85 27.55 14.1 27.55 18.95 23.75 19.3 23.75 21.5 29.65 21.5 Q31.65 21.5 32.8 20.15 34.05 18.65 34.05 15.75 34.05 12.55 32.75 11.4 31.75 10.4 29.35 10.4 L23.75 10.4 M8.0 24.1 L10.25 24.45 10.95 27.6 3.4 27.3 2.75 23.65 0.55 23.35 -0.5 17.2 -0.9 15.2 -1.25 11.65 -1.55 9.0 -1.9 11.65 -2.25 14.75 -2.65 17.2 -3.65 22.45 -1.6 22.7 -2.45 27.1 -9.7 26.85 -8.6 22.05 -10.6 21.75 -6.5 4.5 3.6 4.5 8.0 24.1 M8.8 27.6 L12.7 44.75 4.7 44.75 3.65 39.5 6.95 39.45 3.6 39.2 2.7 34.55 -6.1 34.55 -6.85 38.55 -14.45 38.0 -11.85 26.85 -4.55 27.1 -4.9 28.65 1.5 28.65 1.25 27.35 8.8 27.6 M-63.5 -29.35 L-63.15 -20.7 -70.45 -21.25 -70.45 -41.9 -58.55 -41.9 -54.55 -23.25 Q-53.7 -19.15 -53.15 -13.95 L-52.6 -18.85 -51.85 -23.25 -47.85 -41.9 -36.0 -41.9 -36.0 -1.7 -43.5 -1.7 -43.5 -14.35 -43.3 -23.3 -42.85 -38.3 -50.95 -1.7 -55.5 -1.7 -59.35 -19.5 -55.55 -20.15 -59.55 -20.4 -63.35 -38.3 -63.65 -38.3 -63.5 -29.35 M-63.0 -1.7 L-70.45 -1.7 -70.45 -17.6 -63.1 -18.85 -63.0 -14.35 -63.0 -1.7 M-27.3 -12.5 L-19.85 -12.85 -19.85 -2.75 -27.3 -2.75 -27.3 -12.5 M-19.85 -14.55 L-27.3 -15.5 -27.3 -43.0 -19.85 -43.0 -19.85 -20.2 -27.1 -20.2 -19.85 -19.4 -19.85 -14.55 M-12.0 -7.95 L-4.15 -7.95 -5.2 -2.75 -13.25 -2.75 -12.0 -7.95 M-18.75 12.25 L-26.25 11.7 -26.25 4.5 -18.75 4.5 -18.75 12.25 M-26.25 12.7 L-18.75 12.85 -18.75 28.45 -26.25 30.25 -26.25 26.35 -36.75 26.35 -36.75 32.75 -40.95 33.75 -36.75 33.15 -36.75 44.75 -44.2 44.75 -44.2 12.35 -36.75 12.5 -36.75 20.45 -26.25 20.45 -26.25 12.7 M-36.75 10.9 L-44.2 10.35 -44.2 4.5 -36.75 4.5 -36.75 10.9 M-26.25 37.95 L-18.75 38.2 -18.75 44.75 -26.25 44.75 -26.25 37.95 M-26.25 31.7 L-18.75 30.65 -18.75 37.2 -26.25 37.55 -26.25 31.7 M-14.85 39.55 L-7.0 39.55 -8.05 44.75 -16.1 44.75 -14.85 39.55 M-59.8 9.6 Q-61.8 9.6 -62.85 10.45 -63.5 11.0 -63.75 11.95 L-71.4 11.3 Q-69.95 3.55 -59.85 3.55 -53.8 3.55 -50.9 6.65 -48.15 9.65 -48.15 16.75 L-55.4 16.75 Q-55.4 14.65 -55.65 13.3 L-49.9 13.5 -49.5 13.3 -49.4 13.3 -49.4 13.2 -55.75 12.65 -56.05 11.8 Q-57.0 9.6 -59.8 9.6 M-54.4 22.6 L-52.3 24.2 -56.7 24.25 -54.4 22.6 M-57.35 24.3 L-63.6 24.45 -57.85 24.6 -61.7 26.95 -62.5 26.4 Q-67.6 23.05 -69.65 20.35 -71.6 17.5 -71.6 14.15 L-71.55 12.85 -63.9 13.05 -63.9 13.4 Q-63.9 15.4 -62.65 16.8 -61.95 17.65 -59.75 19.05 L-67.15 22.65 -58.7 19.7 -54.95 22.25 -54.5 22.55 -57.35 24.3 M-64.2 32.9 Q-64.2 36.15 -63.2 37.9 L-63.0 38.25 -68.25 37.45 -62.8 38.45 Q-61.7 39.65 -59.5 39.65 L-57.45 39.4 -54.3 39.95 -68.1 43.2 -68.95 42.35 Q-71.7 39.3 -71.7 33.5 L-71.7 30.55 -64.2 30.55 -64.2 32.9 M-48.05 29.2 L-52.15 29.45 -48.9 27.7 -48.05 29.2 M-47.15 33.6 L-54.85 34.8 Q-54.9 33.15 -55.6 32.0 L-55.95 31.45 -53.05 29.9 -47.85 29.9 Q-47.25 31.5 -47.15 33.6 M-49.4 27.05 L-53.2 29.5 -57.75 29.7 -61.05 27.45 -57.2 24.65 -51.6 24.75 -50.5 25.7 -49.4 27.05 M-56.1 31.3 L-57.5 29.85 -53.85 29.9 -56.1 31.3 M-56.75 39.05 Q-55.0 38.05 -54.85 35.3 L-47.2 35.3 Q-47.35 36.95 -47.8 38.4 L-52.95 39.6 -56.75 39.05 M-48.55 40.2 L-52.3 39.7 -47.85 38.55 -48.55 40.2 M-50.5 42.7 Q-53.9 45.7 -59.5 45.7 -64.55 45.7 -67.5 43.6 L-53.7 40.05 -48.9 40.85 -50.5 42.7" fill="#000000" fill-rule="evenodd" stroke="none"/>
  </g>
</svg>
