<?xml version="1.0" encoding="UTF-8" standalone="no"?>
<svg xmlns:ffdec="https://www.free-decompiler.com/flash" xmlns:xlink="http://www.w3.org/1999/xlink" ffdec:objectType="shape" height="457.95px" width="728.95px" xmlns="http://www.w3.org/2000/svg">
  <g transform="matrix(1.0, 0.0, 0.0, 1.0, 364.45, 229.0)">
    <path d="M56.5 -49.3 L28.2 -28.7 -0.1 -21.0 -14.6 -33.7 -23.4 -101.8 -31.35 -143.9 -42.0 -159.55 -37.0 -126.25 -28.4 -38.45 -52.6 -72.6 -61.45 -76.45 -35.2 -33.7 -34.05 -18.1 -63.5 -30.75 -89.75 -47.3 -119.85 -52.25 -87.7 -40.5 -38.15 -12.2 -39.95 -4.5 -110.35 25.85 -144.3 29.7 -202.05 63.55 -148.35 43.5 -112.15 40.55 -74.1 27.85 -59.65 24.9 -32.25 23.8 -60.55 64.75 -108.3 96.0 -125.05 126.75 -104.45 98.95 -57.6 71.55 -56.7 70.65 -17.55 42.35 -8.7 41.45 5.55 44.4 17.55 86.25 45.85 127.2 48.8 151.65 48.8 118.4 24.35 85.35 21.4 34.65 67.35 46.2 87.7 63.85 69.15 41.45 41.55 21.3 51.7 17.0 108.3 6.35 187.05 7.25 195.35 6.65 138.4 -7.45 53.55 -7.45 39.05 -11.3 37.9 -11.3 34.05 -17.15 65.3 -46.35 78.0 -67.85 165.0 -140.6 140.45 -126.25 68.25 -67.85 56.5 -49.3 M363.85 -9.8 L364.5 -9.65 364.5 228.95 -364.45 228.95 -364.45 -229.0 364.5 -229.0 364.5 -12.7 363.85 -9.8" fill="#000000" fill-rule="evenodd" stroke="none"/>
  </g>
</svg>
