<?xml version="1.0" encoding="UTF-8" standalone="no"?>
<svg xmlns:ffdec="https://www.free-decompiler.com/flash" xmlns:xlink="http://www.w3.org/1999/xlink" ffdec:objectType="shape" height="256.0px" width="184.0px" xmlns="http://www.w3.org/2000/svg">
  <g transform="matrix(1.0, 0.0, 0.0, 1.0, 2.0, 2.0)">
    <path d="M14.0 234.0 L14.0 219.45 Q14.0 218.85 14.45 218.45 14.85 218.0 15.5 218.0 L164.5 218.0 Q165.1 218.0 165.55 218.45 L166.0 219.45 166.0 234.0 14.0 234.0" fill="url(#gradient0)" fill-rule="evenodd" stroke="none"/>
    <path d="M180.0 5.0 L180.0 175.0 Q179.95 179.9 175.15 180.0 L4.85 180.0 Q0.0 179.9 0.0 175.0 L0.0 5.0 Q0.0 0.0 5.0 0.0 L175.0 0.0 Q179.95 0.0 180.0 5.0 M175.15 186.0 Q179.95 186.05 180.0 191.0 L180.0 247.0 Q179.95 252.0 175.0 252.0 L5.0 252.0 Q0.0 252.0 0.0 247.0 L0.0 191.0 Q0.0 186.05 4.85 186.0 L175.15 186.0 M10.0 215.5 L10.0 240.5 Q10.0 241.1 10.45 241.55 10.85 242.0 11.5 242.0 L168.5 242.0 Q169.1 242.0 169.55 241.55 170.0 241.1 170.0 240.5 L170.0 215.5 Q170.0 214.9 169.55 214.45 169.1 214.0 168.5 214.0 L11.5 214.0 Q10.85 214.0 10.45 214.45 10.0 214.9 10.0 215.5" fill="#000000" fill-rule="evenodd" stroke="none"/>
    <path d="M180.0 5.0 Q179.95 0.0 175.0 0.0 L5.0 0.0 Q0.0 0.0 0.0 5.0 L0.0 175.0 Q0.0 179.9 4.85 180.0 L175.15 180.0 Q179.95 179.9 180.0 175.0 L180.0 5.0" fill="none" stroke="#000000" stroke-linecap="round" stroke-linejoin="round" stroke-opacity="0.5019608" stroke-width="4.0"/>
    <path d="M175.15 186.0 L4.85 186.0 Q0.0 186.05 0.0 191.0 L0.0 247.0 Q0.0 252.0 5.0 252.0 L175.0 252.0 Q179.95 252.0 180.0 247.0 L180.0 191.0 Q179.95 186.05 175.15 186.0 M10.0 215.5 L10.0 240.5 Q10.0 241.1 10.45 241.55 10.85 242.0 11.5 242.0 L168.5 242.0 Q169.1 242.0 169.55 241.55 170.0 241.1 170.0 240.5 L170.0 215.5 Q170.0 214.9 169.55 214.45 169.1 214.0 168.5 214.0 L11.5 214.0 Q10.85 214.0 10.45 214.45 10.0 214.9 10.0 215.5 Z" fill="none" stroke="#000000" stroke-linecap="round" stroke-linejoin="round" stroke-opacity="0.5019608" stroke-width="4.0"/>
  </g>
  <defs>
    <linearGradient gradientTransform="matrix(0.0, -0.008, 0.094, 0.0, 89.0, 227.1)" gradientUnits="userSpaceOnUse" id="gradient0" spreadMethod="pad" x1="-819.2" x2="819.2">
      <stop offset="0.0" stop-color="#ffffff" stop-opacity="0.0"/>
      <stop offset="1.0" stop-color="#ffffff" stop-opacity="0.7529412"/>
    </linearGradient>
  </defs>
</svg>
