<?xml version="1.0" encoding="UTF-8" standalone="no"?>
<svg xmlns:ffdec="https://www.free-decompiler.com/flash" xmlns:xlink="http://www.w3.org/1999/xlink" ffdec:objectType="shape" height="600.0px" width="600.0px" xmlns="http://www.w3.org/2000/svg">
  <g transform="matrix(1.0, 0.0, 0.0, 1.0, 0.0, 0.0)">
    <path d="M167.45 0.0 L215.75 0.0 300.0 300.0 167.45 0.0 M366.9 0.0 L386.2 0.0 300.0 300.0 0.0 403.5 0.0 380.8 300.0 300.0 600.0 180.0 600.0 237.3 300.0 300.0 49.25 600.0 0.0 600.0 0.0 549.7 300.0 300.0 600.0 529.9 600.0 568.1 300.0 300.0 396.4 600.0 360.75 600.0 300.0 300.0 0.0 230.4 0.0 146.5 300.0 300.0 366.9 0.0" fill="#fedf67" fill-rule="evenodd" stroke="none"/>
    <path d="M249.9 0.0 L268.15 0.0 300.0 300.0 506.5 0.0 574.0 0.0 300.0 300.0 0.0 306.0 0.0 283.3 300.0 300.0 600.0 361.8 600.0 379.25 300.0 300.0 442.9 600.0 396.4 600.0 300.0 300.0 181.75 600.0 145.95 600.0 300.0 300.0 249.9 0.0 M0.0 6.85 L0.0 0.0 22.85 0.0 300.0 300.0 0.0 6.85" fill="#fd9b0b" fill-rule="evenodd" stroke="none"/>
    <path d="M215.75 0.0 L249.9 0.0 300.0 300.0 215.75 0.0 M268.15 0.0 L366.9 0.0 300.0 300.0 574.0 0.0 600.0 0.0 600.0 121.5 300.0 300.0 600.0 290.35 600.0 361.8 300.0 300.0 600.0 379.25 600.0 463.25 300.0 300.0 600.0 568.1 600.0 600.0 442.9 600.0 300.0 300.0 268.6 600.0 181.75 600.0 300.0 300.0 0.0 127.7 0.0 6.85 300.0 300.0 0.0 549.7 0.0 403.5 300.0 300.0 0.0 283.3 0.0 230.4 300.0 300.0 268.15 0.0" fill="#ffb30f" fill-rule="evenodd" stroke="none"/>
    <path d="M386.2 0.0 L506.5 0.0 300.0 300.0 0.0 380.8 0.0 306.0 300.0 300.0 600.0 237.3 600.0 290.35 300.0 300.0 600.0 463.25 600.0 529.9 300.0 300.0 360.75 600.0 268.6 600.0 300.0 300.0 145.95 600.0 49.25 600.0 300.0 300.0 600.0 121.5 600.0 180.0 300.0 300.0 0.0 146.5 0.0 127.7 300.0 300.0 386.2 0.0 M22.85 0.0 L167.45 0.0 300.0 300.0 22.85 0.0" fill="#fff07d" fill-rule="evenodd" stroke="none"/>
  </g>
</svg>
