<?xml version="1.0" encoding="UTF-8" standalone="no"?>
<svg xmlns:ffdec="https://www.free-decompiler.com/flash" xmlns:xlink="http://www.w3.org/1999/xlink" ffdec:objectType="shape" height="291.7px" width="461.0px" xmlns="http://www.w3.org/2000/svg">
  <g transform="matrix(1.0, 0.0, 0.0, 1.0, -86.75, -29.2)">
    <path d="M382.4 292.45 L386.4 292.55 386.3 320.75 382.4 320.65 382.4 306.85 379.55 306.85 379.35 320.0 375.3 320.25 375.55 291.9 379.65 292.0 379.55 302.3 382.5 302.3 382.4 292.45 M369.9 296.35 L369.8 320.45 365.75 320.25 365.85 296.35 362.3 296.25 362.4 291.9 373.05 291.9 373.25 296.45 369.9 296.35 M349.7 320.45 L349.7 320.5 347.95 320.6 344.2 320.05 344.5 292.05 347.15 291.75 349.4 291.9 349.4 291.95 Q353.3 292.15 354.25 295.7 355.25 299.2 355.3 306.0 L355.35 306.0 355.35 307.45 Q355.35 313.4 354.55 316.6 353.65 320.2 349.7 320.45 M351.0 313.5 L351.2 306.05 350.85 298.9 Q350.5 296.45 349.3 296.3 L348.35 296.25 348.15 316.45 Q348.95 316.6 349.55 316.15 350.75 315.95 351.0 313.5 M340.5 291.95 L340.85 320.6 337.0 320.65 336.65 291.95 340.5 291.95 M327.4 296.25 L327.2 316.45 Q328.0 316.6 328.6 316.15 329.8 315.95 330.05 313.5 L330.25 306.05 329.9 298.9 Q329.55 296.45 328.35 296.3 L327.4 296.25 M328.45 291.9 L328.45 291.95 Q332.35 292.15 333.3 295.7 334.3 299.2 334.35 306.0 L334.4 306.0 334.4 307.45 Q334.4 313.4 333.6 316.6 332.7 320.2 328.75 320.45 L328.75 320.5 327.0 320.6 323.25 320.05 323.55 292.05 326.2 291.75 328.45 291.9 M312.5 308.3 Q312.5 319.75 307.0 320.25 L306.15 320.3 Q302.8 320.3 301.5 317.45 300.45 314.0 300.45 307.15 L300.45 305.8 300.45 304.05 Q300.45 299.6 301.1 292.6 L305.15 292.9 Q304.45 300.85 304.6 305.8 304.5 311.55 304.8 313.4 305.1 315.2 306.5 315.65 307.9 315.8 308.2 313.3 308.5 310.75 308.6 306.2 L307.95 292.1 311.8 291.85 Q312.55 298.9 312.55 304.8 L312.5 307.6 312.5 308.3 M419.5 292.1 L417.9 312.85 414.5 312.75 414.4 291.9 419.5 292.1 M411.8 296.45 L408.45 296.35 408.3 320.45 404.3 320.25 404.4 296.35 400.85 296.25 400.95 291.9 411.6 291.9 411.8 296.45 M396.25 291.9 L400.2 319.8 396.5 320.0 395.85 316.0 392.35 316.1 391.95 320.75 388.0 320.75 391.4 292.45 396.25 291.9 M395.3 312.1 L393.8 302.55 392.8 312.0 395.3 312.1 M416.05 316.0 Q418.1 316.1 418.1 318.25 L418.1 318.6 Q418.0 320.9 416.15 320.9 L415.9 320.9 Q413.85 320.65 413.85 318.4 L413.85 318.25 Q413.85 316.0 415.9 316.0 L416.05 316.0 M222.5 292.0 L226.65 291.95 229.05 302.1 230.85 291.7 234.75 292.1 231.1 308.4 231.15 320.4 227.1 320.3 227.1 309.9 222.5 292.0 M297.55 295.7 Q298.55 299.35 298.55 306.3 298.55 313.2 297.55 316.85 296.55 320.45 292.7 320.6 288.7 320.3 287.75 316.75 286.8 313.15 286.8 306.25 L286.85 306.25 Q286.85 299.35 287.8 295.8 288.75 292.2 292.7 291.95 296.55 292.05 297.55 295.7 M291.3 299.0 Q291.0 301.5 291.0 306.25 291.0 311.0 291.3 313.5 291.6 316.0 292.8 316.15 L292.8 316.2 Q294.0 316.1 294.3 313.55 L294.6 306.3 294.3 298.95 Q294.0 296.45 292.8 296.35 291.6 296.55 291.3 299.0 M286.5 292.1 L282.85 308.4 282.9 320.4 278.85 320.3 278.85 309.9 274.25 292.0 278.4 291.95 280.8 302.1 282.6 291.7 286.5 292.1 M265.6 292.05 L263.95 312.8 260.6 312.7 260.45 291.85 265.6 292.05 M257.55 301.7 L253.6 301.8 253.35 298.9 Q253.05 296.35 252.15 296.25 L252.15 296.3 Q250.95 296.45 250.65 298.95 250.25 300.95 253.0 303.75 255.7 306.5 256.75 308.3 257.6 310.25 257.6 312.4 257.6 314.45 256.85 316.7 255.95 320.3 252.3 320.6 248.45 320.5 247.4 316.85 246.65 314.25 246.3 311.45 L250.2 310.95 250.6 313.55 Q250.95 316.1 252.15 316.15 253.0 315.95 253.3 313.5 253.9 310.75 251.35 308.25 248.8 305.75 247.85 303.75 246.35 301.15 246.7 297.85 L247.15 295.7 Q248.1 292.15 252.05 291.9 255.6 292.05 256.6 295.65 257.35 298.3 257.55 301.7 M244.55 292.05 L244.7 296.45 239.8 296.5 239.75 302.05 243.65 302.1 243.55 306.6 239.65 306.55 239.6 315.7 244.65 315.75 244.5 320.35 235.5 320.25 235.95 292.0 244.55 292.05 M262.1 315.9 Q264.2 316.0 264.2 318.15 L264.2 318.45 Q264.05 320.75 262.2 320.75 L261.95 320.75 Q259.9 320.6 259.9 318.3 L259.9 318.2 Q259.9 315.9 262.0 315.9 L262.1 315.9" fill="#542b0e" fill-rule="evenodd" stroke="none"/>
    <path d="M325.35 271.6 Q328.4 272.75 328.5 272.0 L325.35 271.6 M310.6 236.6 Q339.35 227.45 367.25 227.2 360.35 239.75 369.6 256.1 L370.25 286.3 Q348.9 282.05 331.45 276.6 L326.9 275.55 Q327.6 275.1 323.7 271.4 L316.25 270.5 Q306.25 271.5 307.9 276.15 291.9 280.6 264.45 288.75 L262.4 257.1 Q279.25 246.45 263.95 226.2 283.85 232.85 310.6 236.6" fill="#190800" fill-opacity="0.30980393" fill-rule="evenodd" stroke="none"/>
    <path d="M313.55 252.7 Q313.4 252.9 313.55 253.15 L313.75 253.45 313.75 253.6 305.85 248.05 298.25 242.75 296.35 241.5 Q295.75 241.1 296.85 241.05 L300.25 242.3 Q304.45 244.0 308.1 246.2 312.15 248.8 313.9 252.05 314.0 252.4 313.55 252.7" fill="#a63c09" fill-rule="evenodd" stroke="none"/>
    <path d="M328.7 231.55 L328.7 231.5 328.75 231.45 328.7 231.55" fill="#8c3309" fill-rule="evenodd" stroke="none"/>
    <path d="M362.45 245.5 Q362.65 254.35 363.15 263.55 363.55 268.9 362.45 274.3 361.85 276.8 358.7 277.55 362.3 268.9 361.45 259.6 L361.45 259.55 361.3 258.7 Q360.8 252.3 361.45 246.0 361.45 245.4 362.45 245.5" fill="#b84710" fill-rule="evenodd" stroke="none"/>
    <path d="M318.4 264.5 L318.85 264.2 319.15 264.0 319.2 263.95 321.85 261.9 320.3 263.55 319.05 264.55 318.45 264.5 318.4 264.5" fill="#c6551f" fill-rule="evenodd" stroke="none"/>
    <path d="M325.9 265.2 Q330.8 260.35 332.35 254.85 333.85 249.3 334.2 247.0 334.55 244.65 335.0 243.75 L333.9 245.4 331.2 249.15 Q330.65 249.8 330.8 249.95 L329.8 251.15 330.0 250.25 Q330.25 248.5 328.85 246.7 L323.9 255.1 321.25 258.5 318.35 261.5 315.45 263.75 314.5 264.5 314.45 264.5 307.8 266.85 Q304.3 267.95 301.85 270.2 299.45 272.4 292.0 272.75 287.3 273.8 283.7 269.8 279.1 264.7 280.2 258.55 281.85 249.2 291.55 243.0 294.9 240.9 298.8 239.7 L298.9 239.85 299.0 239.9 302.4 241.75 Q306.35 243.95 309.95 246.4 314.45 249.45 318.75 251.75 317.65 248.65 314.3 245.95 311.25 244.0 307.4 242.0 L305.45 241.25 305.4 241.25 304.45 240.9 299.8 239.7 299.45 239.65 299.0 239.65 Q303.65 238.2 309.15 238.0 330.4 235.65 340.3 242.9 350.2 250.2 351.55 253.35 352.85 256.5 353.85 260.65 L353.7 260.95 353.55 261.25 Q351.25 266.2 344.8 269.35 L344.05 269.7 Q341.75 270.6 337.65 270.45 332.75 270.25 325.9 265.3 L325.9 265.2 M313.55 252.7 Q314.0 252.4 313.9 252.05 312.15 248.8 308.1 246.2 304.45 244.0 300.25 242.3 L296.85 241.05 Q295.75 241.1 296.35 241.5 L298.25 242.75 305.85 248.05 313.75 253.6 313.75 253.45 313.55 253.15 Q313.4 252.9 313.55 252.7" fill="#cc4200" fill-rule="evenodd" stroke="none"/>
    <path d="M275.4 228.25 Q279.3 231.1 287.1 232.15 296.4 233.4 300.45 234.85 304.45 236.25 308.85 236.95 313.35 237.7 322.65 234.2 332.0 230.65 333.3 230.35 342.5 228.15 351.1 225.65 L364.7 224.7 368.25 224.65 368.15 224.8 367.5 225.95 367.05 227.05 367.0 227.05 Q365.05 231.7 365.3 236.75 L364.65 242.05 Q364.05 246.9 365.05 251.8 365.95 255.4 366.05 259.05 366.3 265.45 363.75 271.6 363.25 272.95 363.45 274.35 363.9 276.95 360.05 277.95 357.65 278.6 355.15 278.05 L338.75 274.85 Q330.0 273.25 317.8 268.05 L317.95 268.1 Q319.2 268.05 323.3 265.75 325.95 264.3 325.9 265.2 L325.9 265.3 Q332.75 270.25 337.65 270.45 341.75 270.6 344.05 269.7 L340.4 271.15 Q348.4 271.5 353.85 266.75 359.65 261.6 356.7 255.95 355.1 258.0 353.85 260.65 352.85 256.5 351.55 253.35 350.2 250.2 340.3 242.9 330.4 235.65 309.15 238.0 303.65 238.2 299.0 239.65 L298.8 239.7 Q294.9 240.9 291.55 243.0 281.85 249.2 280.2 258.55 279.1 264.7 283.7 269.8 287.3 273.8 292.0 272.75 299.45 272.4 301.85 270.2 304.3 267.95 307.8 266.85 L314.45 264.5 Q309.3 268.1 302.15 270.95 311.95 268.85 318.4 264.5 L318.45 264.5 319.05 264.55 318.6 264.9 316.25 266.3 Q315.1 266.55 314.6 267.15 L314.6 267.2 310.15 269.35 Q303.1 272.4 286.45 277.75 269.65 283.0 269.5 280.35 L269.25 279.65 Q270.1 274.95 269.75 270.15 269.4 263.55 269.6 256.85 269.65 255.35 270.7 254.0 274.95 248.55 273.35 242.65 L272.6 240.85 Q272.45 236.4 269.15 231.15 L268.4 230.05 Q267.4 228.7 266.3 228.25 L264.95 227.5 Q264.9 227.15 261.8 226.3 L267.15 226.7 275.4 228.25 M362.45 245.5 Q361.45 245.4 361.45 246.0 360.8 252.3 361.3 258.7 L361.45 259.55 361.45 259.6 Q362.3 268.9 358.7 277.55 361.85 276.8 362.45 274.3 363.55 268.9 363.15 263.55 362.65 254.35 362.45 245.5" fill="#af3900" fill-rule="evenodd" stroke="none"/>
    <path d="M328.7 231.55 L328.75 231.45 328.7 231.5 328.7 231.55 M275.4 228.25 L276.45 228.45 289.65 230.7 299.75 231.8 Q304.75 232.1 311.55 234.05 L311.65 234.05 311.85 233.95 311.95 233.95 314.8 233.1 Q320.55 231.35 326.25 230.0 L333.55 228.35 Q342.3 226.6 351.1 225.65 342.5 228.15 333.3 230.35 332.0 230.65 322.65 234.2 313.35 237.7 308.85 236.95 304.45 236.25 300.45 234.85 296.4 233.4 287.1 232.15 279.3 231.1 275.4 228.25 M330.8 249.95 Q331.05 251.85 329.0 256.2 326.95 260.65 318.6 264.9 L319.05 264.55 320.3 263.55 321.85 261.9 319.2 263.95 319.15 264.0 318.85 264.2 318.4 264.5 Q311.95 268.85 302.15 270.95 309.3 268.1 314.45 264.5 L314.5 264.5 315.45 263.75 318.35 261.5 321.25 258.5 323.9 255.1 328.85 246.7 Q330.25 248.5 330.0 250.25 L329.8 251.15 330.8 249.95 M344.05 269.7 L344.8 269.35 Q351.25 266.2 353.55 261.25 L353.7 260.95 353.85 260.65 Q355.1 258.0 356.7 255.95 359.65 261.6 353.85 266.75 348.4 271.5 340.4 271.15 L344.05 269.7 M299.0 239.65 L299.45 239.65 299.8 239.7 304.45 240.9 305.4 241.25 305.45 241.25 307.4 242.0 Q311.25 244.0 314.3 245.95 317.65 248.65 318.75 251.75 314.45 249.45 309.95 246.4 306.35 243.95 302.4 241.75 L299.0 239.9 298.9 239.85 298.8 239.7 299.0 239.65" fill="#e84f06" fill-rule="evenodd" stroke="none"/>
    <path d="M365.3 236.75 Q365.35 240.8 366.85 245.15 L367.0 245.75 367.05 246.0 Q368.4 249.65 370.6 253.55 L369.85 286.55 Q336.85 277.5 322.9 270.95 320.85 270.05 319.3 269.15 L317.2 267.95 Q310.15 271.9 290.4 278.45 L265.4 286.2 263.35 254.55 Q268.15 251.75 270.5 248.35 L270.5 248.3 271.0 247.45 272.6 241.35 272.6 240.85 273.35 242.65 Q274.95 248.55 270.7 254.0 269.65 255.35 269.6 256.85 269.4 263.55 269.75 270.15 270.1 274.95 269.25 279.65 L269.5 280.35 Q269.65 283.0 286.45 277.75 303.1 272.4 310.15 269.35 L314.6 267.2 314.6 267.15 Q315.1 266.55 316.25 266.3 L318.6 264.9 Q326.95 260.65 329.0 256.2 331.05 251.85 330.8 249.95 330.65 249.8 331.2 249.15 L333.9 245.4 335.0 243.75 Q334.55 244.65 334.2 247.0 333.85 249.3 332.35 254.85 330.8 260.35 325.9 265.2 325.95 264.3 323.3 265.75 319.2 268.05 317.95 268.1 L317.8 268.05 Q330.0 273.25 338.75 274.85 L355.15 278.05 Q357.65 278.6 360.05 277.95 363.9 276.95 363.45 274.35 363.25 272.95 363.75 271.6 366.3 265.45 366.05 259.05 365.95 255.4 365.05 251.8 364.05 246.9 364.65 242.05 L365.3 236.75" fill="#953000" fill-rule="evenodd" stroke="none"/>
    <path d="M287.15 112.75 Q287.15 100.6 296.05 91.95 304.9 83.35 317.65 83.35 330.45 83.35 339.15 91.95 348.15 100.6 348.15 112.75 348.15 124.95 339.15 133.55 330.45 142.15 317.65 142.15 304.9 142.15 296.05 133.55 287.15 124.95 287.15 112.75" fill="url(#gradient0)" fill-rule="evenodd" stroke="none"/>
    <path d="M287.8 105.2 L306.7 104.7 316.85 83.7 317.15 83.55 321.45 104.7 343.45 105.2 325.95 118.6 335.45 139.7 335.0 139.5 Q324.05 135.1 314.1 127.2 L299.5 139.7 299.2 139.4 302.25 118.6 287.8 105.2" fill="#de9200" fill-rule="evenodd" stroke="none"/>
    <path d="M324.8 104.7 L346.8 105.2 329.3 118.6 335.6 139.7 317.4 127.2 299.3 139.7 305.6 118.6 288.1 105.2 310.1 104.7 317.4 83.9 324.8 104.7" fill="#ffc407" fill-rule="evenodd" stroke="none"/>
    <path d="M317.4 123.8 Q316.35 123.8 315.45 124.4 L305.35 131.4 308.85 119.55 Q309.15 118.6 308.8 117.5 308.55 116.55 307.65 115.85 L297.8 108.35 310.15 108.05 Q311.25 108.05 312.05 107.4 312.95 106.8 313.3 105.75 L317.4 94.0 321.6 105.85 Q321.95 106.8 322.85 107.4 323.7 108.05 324.75 108.05 L337.1 108.35 327.2 115.85 Q326.35 116.55 326.05 117.5 325.75 118.6 326.05 119.55 L329.55 131.4 319.3 124.4 Q318.5 123.8 317.4 123.8" fill="#ffe085" fill-rule="evenodd" stroke="none"/>
    <path d="M547.75 29.4 L546.1 49.95 542.8 49.85 542.65 29.25 547.75 29.4 M538.95 29.2 L539.1 57.4 535.35 57.35 530.85 42.55 531.1 57.1 527.15 57.15 527.25 29.85 530.95 29.7 535.15 43.8 535.05 29.3 538.95 29.2 M519.1 29.35 L519.1 29.3 Q522.95 29.45 523.9 33.05 524.9 36.65 524.9 43.5 524.9 50.35 523.9 53.95 522.9 57.55 519.05 57.7 515.15 57.4 514.2 53.85 513.25 50.35 513.25 43.45 L513.3 43.45 Q513.3 36.65 514.2 33.15 515.15 29.55 519.1 29.35 M510.15 29.3 L510.5 57.7 506.65 57.75 506.35 29.3 510.15 29.3 M498.6 29.25 Q502.1 29.4 503.1 33.0 503.85 35.65 504.05 38.95 L500.15 39.1 499.85 36.2 Q499.55 33.7 498.7 33.6 497.5 33.8 497.2 36.25 496.8 38.25 499.5 41.0 502.25 43.75 503.25 45.55 504.1 47.45 504.1 49.55 504.1 51.6 503.35 53.8 502.45 57.4 498.85 57.65 L498.85 57.7 Q495.0 57.6 493.95 54.0 493.25 51.4 492.9 48.65 L496.75 48.15 497.15 50.7 Q497.5 53.2 498.7 53.3 499.55 53.1 499.8 50.65 500.4 47.9 497.9 45.45 495.35 43.0 494.4 41.0 492.95 38.4 493.3 35.15 L493.75 33.05 Q494.7 29.55 498.6 29.25 M483.1 29.3 L486.65 29.6 Q490.25 30.6 490.6 38.95 490.45 43.9 488.0 45.9 L491.55 57.15 487.65 57.65 484.5 47.35 483.55 47.4 483.55 57.4 479.6 57.3 479.6 29.6 483.1 29.3 M483.55 32.9 L483.5 43.4 Q485.0 43.25 485.65 42.65 486.45 41.9 486.6 38.6 L486.25 34.45 Q485.6 32.5 483.55 32.9 M477.2 33.75 L472.35 33.8 472.3 39.3 476.2 39.4 476.05 43.8 472.2 43.8 472.15 52.85 477.15 52.9 477.0 57.45 468.1 57.35 468.5 29.35 477.05 29.4 477.2 33.75 M544.3 53.05 Q546.35 53.1 546.35 55.25 L546.35 55.55 Q546.2 57.8 544.4 57.8 L544.1 57.8 Q542.1 57.65 542.1 55.4 L542.1 55.3 Q542.1 53.05 544.2 53.05 L544.3 53.05 M517.4 43.5 Q517.4 48.2 517.7 50.7 518.0 53.15 519.15 53.3 L519.15 53.35 Q520.35 53.2 520.65 50.75 L520.95 43.5 520.7 36.3 Q520.35 33.8 519.2 33.7 518.0 33.85 517.7 36.3 517.4 38.75 517.4 43.5 M444.25 33.0 Q445.0 35.65 445.2 38.95 L441.3 39.1 441.0 36.2 Q440.7 33.7 439.85 33.6 438.65 33.8 438.35 36.25 437.95 38.25 440.65 41.0 443.4 43.75 444.4 45.55 445.25 47.45 445.25 49.55 445.25 51.6 444.5 53.8 443.6 57.4 440.0 57.65 L440.0 57.7 Q436.15 57.6 435.1 54.0 434.4 51.4 434.05 48.65 L437.9 48.15 438.3 50.7 Q438.65 53.2 439.85 53.3 440.7 53.1 440.95 50.65 441.55 47.9 439.05 45.45 436.5 43.0 435.55 41.0 434.1 38.4 434.45 35.15 L434.9 33.05 Q435.85 29.55 439.75 29.25 443.25 29.4 444.25 33.0 M466.65 29.75 L462.35 57.75 458.65 57.9 454.65 29.7 458.6 29.35 460.8 46.6 462.8 29.25 466.65 29.75 M426.65 29.35 L426.65 29.3 Q430.5 29.45 431.45 33.05 432.45 36.65 432.45 43.5 432.45 50.35 431.45 53.95 430.45 57.55 426.6 57.7 422.7 57.4 421.75 53.85 420.8 50.35 420.8 43.45 L420.85 43.45 Q420.85 36.65 421.75 33.15 422.7 29.55 426.65 29.35 M417.7 29.3 L418.05 57.7 414.2 57.75 413.9 29.3 417.7 29.3 M402.25 29.2 L402.4 57.4 398.65 57.35 394.15 42.55 394.4 57.1 390.45 57.15 390.55 29.85 394.25 29.7 398.45 43.8 398.35 29.3 402.25 29.2 M428.25 36.3 Q427.9 33.8 426.75 33.7 425.55 33.85 425.25 36.3 424.95 38.75 424.95 43.5 424.95 48.2 425.25 50.7 425.55 53.15 426.7 53.3 L426.7 53.35 Q427.9 53.2 428.2 50.75 L428.5 43.5 428.25 36.3 M386.75 29.3 L387.1 57.7 383.25 57.75 382.95 29.3 386.75 29.3 M371.35 29.2 L371.5 57.4 367.75 57.35 363.25 42.55 363.5 57.1 359.55 57.15 359.65 29.85 363.35 29.7 367.55 43.8 367.45 29.3 371.35 29.2 M351.45 29.3 Q355.3 29.45 356.25 33.05 357.25 36.65 357.25 43.5 357.25 50.35 356.25 53.95 355.25 57.55 351.4 57.7 347.5 57.4 346.55 53.85 345.6 50.35 345.6 43.45 L345.65 43.45 Q345.65 36.65 346.55 33.15 347.5 29.55 351.45 29.35 L351.45 29.3 M338.15 29.35 L338.15 29.3 Q342.0 29.45 342.95 33.05 343.95 36.65 343.95 43.5 343.95 50.35 342.95 53.95 341.95 57.55 338.1 57.7 334.2 57.4 333.25 53.85 332.3 50.35 332.3 43.45 L332.35 43.45 Q332.35 36.65 333.25 33.15 334.2 29.55 338.15 29.35 M325.05 29.25 Q328.55 29.4 329.55 33.0 330.3 35.65 330.5 38.95 L326.6 39.1 326.3 36.2 Q326.0 33.7 325.15 33.6 323.95 33.8 323.65 36.25 323.25 38.25 325.95 41.0 328.7 43.75 329.7 45.55 330.55 47.45 330.55 49.55 330.55 51.6 329.8 53.8 328.9 57.4 325.3 57.65 L325.3 57.7 Q321.45 57.6 320.4 54.0 319.7 51.4 319.35 48.65 L323.2 48.15 323.6 50.7 Q323.95 53.2 325.15 53.3 326.0 53.1 326.25 50.65 326.85 47.9 324.35 45.45 321.8 43.0 320.85 41.0 319.4 38.4 319.75 35.15 L320.2 33.05 Q321.15 29.55 325.05 29.25 M339.75 36.3 Q339.4 33.8 338.25 33.7 337.05 33.85 336.75 36.3 336.45 38.75 336.45 43.5 336.45 48.2 336.75 50.7 337.05 53.15 338.2 53.3 L338.2 53.35 Q339.4 53.2 339.7 50.75 L340.0 43.5 339.75 36.3 M309.05 46.05 Q309.05 50.9 308.1 53.95 307.1 57.55 303.3 57.7 299.35 57.45 298.4 53.9 297.5 50.35 297.45 43.55 L297.45 43.25 Q297.45 36.6 298.35 33.15 299.25 29.6 303.2 29.35 L303.2 29.3 Q307.0 29.45 308.0 33.05 L308.6 35.8 304.9 36.95 304.8 36.3 Q304.5 33.8 303.3 33.7 302.1 33.9 301.85 36.35 301.55 38.8 301.55 43.55 301.6 48.25 301.9 50.7 302.15 53.15 303.35 53.35 304.55 53.25 304.9 50.75 305.4 47.6 305.3 44.45 L303.2 44.4 302.8 40.6 308.8 40.55 309.05 45.85 309.05 46.05 M353.05 36.3 Q352.7 33.8 351.55 33.7 350.35 33.85 350.05 36.3 349.75 38.75 349.75 43.5 349.75 48.2 350.05 50.7 350.35 53.15 351.5 53.3 L351.5 53.35 Q352.7 53.2 353.0 50.75 L353.3 43.5 353.05 36.3 M294.65 29.2 L294.8 57.4 291.05 57.35 286.55 42.55 286.8 57.1 282.85 57.15 282.95 29.85 286.65 29.7 290.85 43.8 290.75 29.3 294.65 29.2 M279.15 29.3 L279.5 57.7 275.65 57.75 275.35 29.3 279.15 29.3 M241.35 33.05 Q242.05 35.65 242.25 39.8 L238.4 40.25 238.1 36.3 Q237.8 33.8 236.6 33.7 235.45 33.9 235.15 36.35 234.85 38.8 234.85 43.55 234.85 48.25 235.15 50.7 235.45 53.15 236.6 53.35 237.8 53.25 238.15 50.75 L238.4 46.7 242.3 46.85 Q242.1 51.3 241.35 53.95 240.35 57.55 236.5 57.7 232.6 57.45 231.65 53.9 230.75 50.35 230.75 43.55 L230.7 43.55 Q230.7 36.7 231.65 33.15 232.55 29.6 236.5 29.35 L236.5 29.3 Q240.35 29.45 241.35 33.05 M254.7 33.05 Q255.7 36.65 255.7 43.5 255.7 50.35 254.7 53.95 253.7 57.55 249.85 57.7 245.95 57.4 245.0 53.85 244.05 50.35 244.05 43.45 L244.1 43.45 Q244.1 36.65 245.0 33.15 245.95 29.55 249.9 29.35 L249.9 29.3 Q253.75 29.45 254.7 33.05 M262.95 29.25 L265.25 43.4 267.4 29.25 272.1 29.2 273.15 57.4 269.4 57.7 268.85 43.25 267.1 53.7 263.75 54.1 261.6 42.7 261.15 57.55 257.25 57.55 258.2 29.2 262.95 29.25 M251.5 36.3 Q251.15 33.8 250.0 33.7 248.8 33.85 248.5 36.3 248.2 38.75 248.2 43.5 248.2 48.2 248.5 50.7 248.8 53.15 249.95 53.3 L249.95 53.35 Q251.15 53.2 251.45 50.75 L251.75 43.5 251.5 36.3 M191.15 33.8 L191.1 39.3 195.0 39.4 194.85 43.8 191.0 43.8 190.95 52.85 195.95 52.9 195.8 57.45 186.9 57.35 187.3 29.35 195.85 29.4 196.0 33.75 191.15 33.8 M202.0 29.4 L201.95 53.1 207.45 52.6 207.55 56.95 198.1 57.3 198.25 29.35 202.0 29.4 M219.5 33.0 Q220.25 35.65 220.45 38.95 L216.55 39.1 216.25 36.2 Q215.95 33.7 215.1 33.6 213.9 33.8 213.6 36.25 213.2 38.25 215.9 41.0 218.65 43.75 219.65 45.55 220.5 47.45 220.5 49.55 220.5 51.6 219.75 53.8 218.85 57.4 215.25 57.65 L215.25 57.7 Q211.4 57.6 210.35 54.0 209.65 51.4 209.3 48.65 L213.15 48.15 213.55 50.7 Q213.9 53.2 215.1 53.3 215.95 53.1 216.2 50.65 216.8 47.9 214.3 45.45 211.75 43.0 210.8 41.0 209.35 38.4 209.7 35.15 L210.15 33.05 Q211.1 29.55 215.0 29.25 218.5 29.4 219.5 33.0 M155.7 29.4 L155.65 53.1 161.15 52.6 161.25 56.95 151.8 57.3 151.95 29.35 155.7 29.4 M167.7 33.8 L167.65 39.3 171.55 39.4 171.4 43.8 167.55 43.8 167.5 52.85 172.5 52.9 172.35 57.45 163.45 57.35 163.85 29.35 172.4 29.4 172.55 33.75 167.7 33.8 M177.4 29.35 L179.6 46.6 181.6 29.25 185.45 29.75 181.15 57.75 177.45 57.9 173.45 29.7 177.4 29.35 M115.0 33.05 Q116.0 36.65 116.0 43.5 116.0 50.35 115.0 53.95 114.0 57.55 110.15 57.7 106.25 57.4 105.3 53.85 104.35 50.35 104.35 43.45 L104.4 43.45 Q104.4 36.65 105.3 33.15 106.25 29.55 110.2 29.35 L110.2 29.3 Q114.05 29.45 115.0 33.05 M122.3 32.9 L122.25 43.4 Q123.75 43.25 124.4 42.65 125.2 41.9 125.35 38.6 L125.0 34.45 Q124.35 32.5 122.3 32.9 M125.4 29.6 Q129.0 30.6 129.35 38.95 129.2 43.9 126.75 45.9 L130.3 57.15 126.4 57.65 123.25 47.35 122.3 47.4 122.3 57.4 118.35 57.3 118.35 29.6 121.85 29.3 125.4 29.6 M136.35 33.8 L136.3 39.3 140.2 39.4 140.05 43.8 136.2 43.8 136.15 52.85 141.15 52.9 141.0 57.45 132.1 57.35 132.5 29.35 141.05 29.4 141.2 33.75 136.35 33.8 M92.45 29.25 L94.75 43.4 96.9 29.25 101.6 29.2 102.65 57.4 98.9 57.7 98.35 43.25 96.6 53.7 93.25 54.1 91.1 42.7 90.65 57.55 86.75 57.55 87.7 29.2 92.45 29.25 M108.5 43.5 Q108.5 48.2 108.8 50.7 109.1 53.15 110.25 53.3 L110.25 53.35 Q111.45 53.2 111.75 50.75 L112.05 43.5 111.8 36.3 Q111.45 33.8 110.3 33.7 109.1 33.85 108.8 36.3 108.5 38.75 108.5 43.5" fill="#ffffff" fill-rule="evenodd" stroke="none"/>
    <path d="M530.9 42.6 L530.85 41.8 535.35 56.6 539.1 56.65 539.1 57.4 535.35 57.35 530.9 42.6 M519.2 32.95 Q520.35 33.05 520.7 35.55 L520.9 39.05 520.7 36.3 Q520.35 33.8 519.2 33.7 518.0 33.85 517.7 36.3 L517.5 39.05 517.7 35.55 Q518.0 33.1 519.2 32.95 M547.75 29.4 L546.1 49.95 542.8 49.85 542.8 49.1 546.1 49.2 547.7 29.4 547.75 29.4 M472.35 33.8 L472.35 33.05 477.2 33.0 477.2 33.75 472.35 33.8 M483.55 32.15 Q485.6 31.75 486.25 33.7 L486.6 37.85 486.25 34.45 Q485.6 32.5 483.55 32.9 L483.55 32.15 M476.2 39.4 L476.05 43.8 472.2 43.8 472.2 43.05 476.05 43.05 476.2 39.4 M483.55 46.65 L484.5 46.6 487.65 56.9 491.35 56.45 491.55 57.15 487.65 57.65 484.5 47.35 483.55 47.4 483.55 46.65 M490.6 38.95 Q490.45 43.7 488.2 45.75 L488.0 45.15 Q490.35 43.25 490.6 38.6 L490.6 38.95 M497.2 36.4 L497.2 35.5 Q497.5 33.05 498.7 32.85 499.55 32.95 499.85 35.45 L500.15 38.35 504.0 38.2 504.05 38.95 500.15 39.1 499.85 36.2 Q499.55 33.7 498.7 33.6 497.5 33.8 497.2 36.25 L497.2 36.4 M497.9 45.45 Q495.35 43.0 494.4 41.0 493.15 38.75 493.25 36.0 493.3 38.3 494.4 40.25 495.35 42.25 497.9 44.7 500.1 46.85 499.9 49.25 499.75 47.25 497.9 45.45 M493.0 48.65 L493.95 53.25 Q495.0 56.85 498.85 56.95 L498.85 56.9 Q502.45 56.65 503.35 53.05 504.05 51.05 504.1 49.2 L504.1 49.55 Q504.1 51.6 503.35 53.8 502.45 57.4 498.85 57.65 L498.85 57.7 Q495.0 57.6 493.95 54.0 493.25 51.4 492.9 48.65 L493.0 48.65 M477.0 56.7 L477.15 52.9 477.0 57.45 468.1 57.35 468.1 56.6 477.0 56.7 M506.65 57.0 L510.5 56.95 510.5 57.7 506.65 57.75 506.65 57.0 M483.55 57.4 L479.6 57.3 479.6 56.55 483.55 56.65 483.55 57.4 M542.1 55.0 Q542.25 56.9 544.1 57.05 L544.4 57.05 Q546.15 57.05 546.35 54.95 L546.35 55.25 546.35 55.55 Q546.2 57.8 544.4 57.8 L544.1 57.8 Q542.1 57.65 542.1 55.4 L542.1 55.3 542.1 55.0 M514.2 53.85 Q513.45 51.15 513.35 46.45 513.55 50.6 514.2 53.1 515.15 56.65 519.05 56.95 522.9 56.8 523.9 53.2 524.6 50.65 524.85 46.5 524.65 51.2 523.9 53.95 522.9 57.55 519.05 57.7 515.15 57.4 514.2 53.85 M531.1 57.1 L527.15 57.15 527.15 56.4 531.1 56.35 531.1 57.1 M438.35 36.25 L438.35 36.4 438.35 35.5 Q438.65 33.05 439.85 32.85 440.7 32.95 441.0 35.45 L441.3 38.35 445.15 38.2 445.2 38.95 441.3 39.1 441.0 36.2 Q440.7 33.7 439.85 33.6 438.65 33.8 438.35 36.25 M435.55 40.25 Q436.5 42.25 439.05 44.7 441.25 46.85 441.05 49.25 440.9 47.25 439.05 45.45 436.5 43.0 435.55 41.0 434.3 38.75 434.4 36.0 434.45 38.3 435.55 40.25 M434.15 48.65 L435.1 53.25 Q436.15 56.85 440.0 56.95 L440.0 56.9 Q443.6 56.65 444.5 53.05 445.2 51.05 445.25 49.2 L445.25 49.55 Q445.25 51.6 444.5 53.8 443.6 57.4 440.0 57.65 L440.0 57.7 Q436.15 57.6 435.1 54.0 434.4 51.4 434.05 48.65 L434.15 48.65 M466.65 29.75 L462.35 57.75 458.65 57.9 454.65 29.7 454.75 29.7 458.65 57.15 462.35 57.0 466.55 29.75 466.65 29.75 M414.2 57.75 L414.2 57.0 418.05 56.95 418.05 57.7 414.2 57.75 M426.6 57.7 Q422.7 57.4 421.75 53.85 421.0 51.15 420.9 46.45 421.1 50.6 421.75 53.1 422.7 56.65 426.6 56.95 430.45 56.8 431.45 53.2 432.15 50.65 432.4 46.5 432.2 51.2 431.45 53.95 430.45 57.55 426.6 57.7 M428.25 36.3 Q427.9 33.8 426.75 33.7 425.55 33.85 425.25 36.3 L425.05 39.05 425.25 35.55 Q425.55 33.1 426.75 32.95 427.9 33.05 428.25 35.55 L428.45 39.05 428.25 36.3 M394.2 42.6 L394.15 41.8 398.65 56.6 402.4 56.65 402.4 57.4 398.65 57.35 394.2 42.6 M394.4 57.1 L390.45 57.15 390.45 56.4 394.4 56.35 394.4 57.1 M351.55 33.7 Q350.35 33.85 350.05 36.3 L349.85 39.05 350.05 35.55 Q350.35 33.1 351.55 32.95 352.7 33.05 353.05 35.55 L353.25 39.05 353.05 36.3 Q352.7 33.8 351.55 33.7 M363.3 42.6 L363.25 41.8 367.75 56.6 371.5 56.65 371.5 57.4 367.75 57.35 363.3 42.6 M323.65 36.25 L323.65 36.4 323.65 35.5 Q323.95 33.05 325.15 32.85 326.0 32.95 326.3 35.45 L326.6 38.35 330.45 38.2 330.5 38.95 326.6 39.1 326.3 36.2 Q326.0 33.7 325.15 33.6 323.95 33.8 323.65 36.25 M324.35 45.45 Q321.8 43.0 320.85 41.0 319.6 38.75 319.7 36.0 319.75 38.3 320.85 40.25 321.8 42.25 324.35 44.7 326.55 46.85 326.35 49.25 326.2 47.25 324.35 45.45 M319.45 48.65 L320.4 53.25 Q321.45 56.85 325.3 56.95 L325.3 56.9 Q328.9 56.65 329.8 53.05 330.5 51.05 330.55 49.2 L330.55 49.55 Q330.55 51.6 329.8 53.8 328.9 57.4 325.3 57.65 L325.3 57.7 Q321.45 57.6 320.4 54.0 319.7 51.4 319.35 48.65 L319.45 48.65 M338.25 32.95 Q339.4 33.05 339.75 35.55 L339.95 39.05 339.75 36.3 Q339.4 33.8 338.25 33.7 337.05 33.85 336.75 36.3 L336.55 39.05 336.75 35.55 Q337.05 33.1 338.25 32.95 M383.25 57.75 L383.25 57.0 387.1 56.95 387.1 57.7 383.25 57.75 M333.25 53.1 Q334.2 56.65 338.1 56.95 341.95 56.8 342.95 53.2 343.65 50.65 343.9 46.5 343.7 51.2 342.95 53.95 341.95 57.55 338.1 57.7 334.2 57.4 333.25 53.85 332.5 51.15 332.4 46.45 332.6 50.6 333.25 53.1 M351.4 57.7 Q347.5 57.4 346.55 53.85 345.8 51.15 345.7 46.45 345.9 50.6 346.55 53.1 347.5 56.65 351.4 56.95 355.25 56.8 356.25 53.2 356.95 50.65 357.2 46.5 357.0 51.2 356.25 53.95 355.25 57.55 351.4 57.7 M363.5 57.1 L359.55 57.15 359.55 56.4 363.5 56.35 363.5 57.1 M286.6 42.6 L286.55 41.8 291.05 56.6 294.8 56.65 294.8 57.4 291.05 57.35 286.6 42.6 M303.3 32.95 Q304.5 33.05 304.8 35.55 L304.9 36.2 308.5 35.1 308.6 35.8 304.9 36.95 304.8 36.3 Q304.5 33.8 303.3 33.7 302.1 33.9 301.85 36.35 L301.65 39.1 301.85 35.6 Q302.1 33.15 303.3 32.95 M302.9 40.6 L303.2 43.65 305.3 43.7 305.35 45.15 305.3 44.45 303.2 44.4 302.8 40.6 302.9 40.6 M236.6 33.7 Q235.45 33.9 235.15 36.35 L234.95 39.1 235.15 35.6 Q235.45 33.15 236.6 32.95 237.8 33.05 238.1 35.55 L238.4 39.5 242.2 39.05 242.25 39.8 238.4 40.25 238.1 36.3 Q237.8 33.8 236.6 33.7 M230.7 42.8 L230.75 42.8 230.75 43.55 230.7 43.55 230.7 42.8 M242.3 46.85 Q242.1 51.3 241.35 53.95 240.35 57.55 236.5 57.7 232.6 57.45 231.65 53.9 230.95 51.15 230.8 46.5 231.0 50.65 231.65 53.15 232.6 56.7 236.5 56.95 240.35 56.8 241.35 53.2 242.05 50.8 242.25 46.85 L242.3 46.85 M249.85 56.95 Q253.7 56.8 254.7 53.2 255.4 50.65 255.65 46.5 255.45 51.2 254.7 53.95 253.7 57.55 249.85 57.7 245.95 57.4 245.0 53.85 244.25 51.15 244.15 46.45 244.35 50.6 245.0 53.1 245.95 56.65 249.85 56.95 M250.0 32.95 Q251.15 33.05 251.5 35.55 L251.7 39.05 251.5 36.3 Q251.15 33.8 250.0 33.7 248.8 33.85 248.5 36.3 L248.3 39.05 248.5 35.55 Q248.8 33.1 250.0 32.95 M257.3 56.8 L261.15 56.8 261.6 41.95 263.75 53.35 267.1 52.95 268.85 42.5 269.4 56.95 273.15 56.65 273.15 57.4 269.4 57.7 268.85 43.25 267.1 53.7 263.75 54.1 261.6 42.7 261.15 57.55 257.25 57.55 257.3 56.8 M303.3 57.7 Q299.35 57.45 298.4 53.9 297.7 51.15 297.55 46.5 297.75 50.65 298.4 53.15 299.35 56.7 303.3 56.95 307.1 56.8 308.1 53.2 308.75 51.1 309.0 48.15 308.85 51.6 308.1 53.95 307.1 57.55 303.3 57.7 M286.8 57.1 L282.85 57.15 282.85 56.4 286.8 56.35 286.8 57.1 M279.5 57.7 L275.65 57.75 275.65 57.0 279.5 56.95 279.5 57.7 M191.15 33.8 L191.15 33.05 196.0 33.0 196.0 33.75 191.15 33.8 M194.85 43.05 L195.0 39.4 194.85 43.8 191.0 43.8 191.0 43.05 194.85 43.05 M213.6 36.4 L213.6 35.5 Q213.9 33.05 215.1 32.85 215.95 32.95 216.25 35.45 L216.55 38.35 220.4 38.2 220.45 38.95 216.55 39.1 216.25 36.2 Q215.95 33.7 215.1 33.6 213.9 33.8 213.6 36.25 L213.6 36.4 M214.3 45.45 Q211.75 43.0 210.8 41.0 209.55 38.75 209.65 36.0 209.7 38.3 210.8 40.25 211.75 42.25 214.3 44.7 216.5 46.85 216.3 49.25 216.15 47.25 214.3 45.45 M209.4 48.65 Q209.75 51.0 210.35 53.25 211.4 56.85 215.25 56.95 L215.25 56.9 Q218.85 56.65 219.75 53.05 220.45 51.05 220.5 49.2 L220.5 49.55 Q220.5 51.6 219.75 53.8 218.85 57.4 215.25 57.65 L215.25 57.7 Q211.4 57.6 210.35 54.0 209.65 51.4 209.3 48.65 L209.4 48.65 M185.45 29.75 L181.15 57.75 177.45 57.9 173.45 29.7 173.55 29.7 177.45 57.15 181.15 57.0 185.35 29.75 185.45 29.75 M167.55 43.05 L171.4 43.05 171.55 39.4 171.4 43.8 167.55 43.8 167.55 43.05 M167.7 33.8 L167.7 33.05 172.55 33.0 172.55 33.75 167.7 33.8 M186.9 56.6 L195.8 56.7 195.95 52.9 195.8 57.45 186.9 57.35 186.9 56.6 M172.5 52.9 L172.35 57.45 163.45 57.35 163.45 56.6 172.35 56.7 172.5 52.9 M161.25 56.95 L151.8 57.3 151.8 56.55 161.25 56.2 161.25 56.95 M198.1 56.55 L207.55 56.2 207.55 56.95 198.1 57.3 198.1 56.55 M122.3 32.15 Q124.35 31.75 125.0 33.7 L125.35 37.85 125.0 34.45 Q124.35 32.5 122.3 32.9 L122.3 32.15 M110.3 33.7 Q109.1 33.85 108.8 36.3 L108.6 39.05 108.8 35.55 Q109.1 33.1 110.3 32.95 111.45 33.05 111.8 35.55 L112.0 39.05 111.8 36.3 Q111.45 33.8 110.3 33.7 M122.3 46.65 L123.25 46.6 126.4 56.9 130.1 56.45 130.3 57.15 126.4 57.65 123.25 47.35 122.3 47.4 122.3 46.65 M141.2 33.75 L136.35 33.8 136.35 33.05 141.2 33.0 141.2 33.75 M136.2 43.8 L136.2 43.05 140.05 43.05 140.2 39.4 140.05 43.8 136.2 43.8 M129.35 38.6 L129.35 38.95 Q129.2 43.7 126.95 45.75 L126.75 45.15 Q129.1 43.25 129.35 38.6 M102.65 57.4 L98.9 57.7 98.35 43.25 96.6 53.7 93.25 54.1 91.1 42.7 90.65 57.55 86.75 57.55 86.8 56.8 90.65 56.8 91.1 41.95 93.25 53.35 96.6 52.95 98.35 42.5 98.9 56.95 102.65 56.65 102.65 57.4 M141.0 57.45 L132.1 57.35 132.1 56.6 141.0 56.7 141.15 52.9 141.0 57.45 M110.15 57.7 Q106.25 57.4 105.3 53.85 104.55 51.15 104.45 46.45 104.65 50.6 105.3 53.1 106.25 56.65 110.15 56.95 114.0 56.8 115.0 53.2 115.7 50.65 115.95 46.5 115.75 51.2 115.0 53.95 114.0 57.55 110.15 57.7 M118.35 56.55 L122.3 56.65 122.3 57.4 118.35 57.3 118.35 56.55" fill="#7b4d3b" fill-rule="evenodd" stroke="none"/>
  </g>
  <defs>
    <radialGradient cx="0" cy="0" gradientTransform="matrix(0.0339, 0.0, 0.0, 0.0335, 318.35, 114.25)" gradientUnits="userSpaceOnUse" id="gradient0" r="819.2" spreadMethod="pad">
      <stop offset="0.11764705882352941" stop-color="#7e610c"/>
      <stop offset="0.9921568627450981" stop-color="#7e610c" stop-opacity="0.03137255"/>
    </radialGradient>
  </defs>
</svg>
