<?xml version="1.0" encoding="UTF-8" standalone="no"?>
<svg xmlns:ffdec="https://www.free-decompiler.com/flash" xmlns:xlink="http://www.w3.org/1999/xlink" ffdec:objectType="shape" height="45.4px" width="57.0px" xmlns="http://www.w3.org/2000/svg">
  <g transform="matrix(1.0, 0.0, 0.0, 1.0, -16.85, -4.6)">
    <path d="M18.15 23.95 L18.2 23.55 18.6 20.9 19.0 19.6 18.9 19.6 19.0 19.3 19.05 19.2 Q19.15 17.55 19.85 16.8 L66.95 16.8 Q68.5 17.1 69.55 17.55 L70.55 17.55 Q72.05 18.05 72.75 18.7 L72.25 38.65 71.1 39.45 72.3 40.35 72.85 43.85 72.85 45.5 72.75 46.2 72.85 46.2 Q72.7 48.75 71.35 49.6 L66.4 50.0 60.85 49.85 54.3 49.4 48.55 49.25 26.55 49.9 Q22.5 49.95 20.8 48.7 L20.6 48.65 Q18.2 47.85 17.95 45.85 L18.0 45.85 18.0 45.8 17.95 45.7 17.95 45.4 17.9 45.4 17.45 42.5 17.5 42.5 17.45 42.5 17.4 42.15 17.25 40.4 17.3 40.4 17.25 40.4 17.25 40.05 17.2 40.05 Q17.1 37.5 17.15 34.7 L17.15 34.25 17.25 32.15 17.1 32.2 17.3 32.15 17.3 31.95 17.3 31.75 17.3 31.7 17.35 30.8 17.4 30.8 17.4 30.4 17.4 30.35 17.55 28.7 17.6 28.7 17.6 28.25 18.1 23.95 18.15 23.95" fill="#2c2103" fill-opacity="0.3019608" fill-rule="evenodd" stroke="none"/>
    <path d="M73.75 7.05 L73.2 32.2 72.05 33.15 73.3 34.35 73.85 38.75 73.85 40.85 73.8 41.8 73.85 41.8 Q73.7 44.95 72.35 46.0 L67.25 46.5 61.55 46.35 54.9 45.8 49.0 45.6 26.5 46.4 Q19.7 46.55 19.45 42.15 L19.4 41.8 19.55 41.8 19.45 41.2 19.4 40.85 Q17.55 29.65 20.05 10.05 L20.55 8.05 Q20.8 5.75 23.15 5.5 L23.15 5.55 71.5 5.55 Q73.05 6.2 73.75 7.05" fill="url(#gradient0)" fill-rule="evenodd" stroke="none"/>
    <path d="M72.05 6.75 L71.55 32.05 70.4 33.0 71.6 34.15 72.15 38.6 Q72.45 43.6 70.65 44.95 L65.6 45.5 59.9 45.3 53.2 44.75 47.3 44.55 24.8 45.4 Q18.05 45.55 17.75 41.1 15.8 29.8 18.4 9.8 L18.85 7.8 Q18.9 5.6 19.65 4.6 L67.8 4.6 Q70.95 5.4 72.05 6.75" fill="#c58c3f" fill-rule="evenodd" stroke="none"/>
    <path d="M17.1 23.8 L28.3 23.05 Q38.55 23.05 45.8 25.15 52.8 27.2 52.9 30.1 52.8 32.95 45.8 35.0 38.55 37.15 28.3 37.15 L17.25 36.4 17.15 36.4 17.0 34.25 28.35 34.95 Q37.05 34.95 43.1 33.65 49.5 32.35 49.4 30.35 49.5 28.4 43.1 27.05 37.05 25.8 28.35 25.8 L16.9 26.5 17.0 23.85 17.1 23.8" fill="url(#gradient1)" fill-rule="evenodd" stroke="none"/>
    <path d="M16.95 27.0 L28.35 26.3 Q36.95 26.3 42.95 27.55 48.75 28.75 48.8 30.35 48.75 32.0 42.95 33.15 L28.35 34.4 17.05 33.75 16.95 33.75 Q16.85 30.6 16.9 27.0 L16.95 27.0" fill="url(#gradient2)" fill-rule="evenodd" stroke="none"/>
    <path d="M20.4 44.6 Q17.95 43.65 17.7 41.1 L30.4 41.65 Q37.4 41.35 50.05 36.95 59.7 33.55 70.9 33.55 L71.2 33.55 71.55 34.05 72.1 38.45 Q72.4 43.4 70.6 44.8 L65.5 45.3 59.8 45.15 53.15 44.55 47.25 44.35 24.75 45.2 Q22.1 45.25 20.4 44.6" fill="url(#gradient3)" fill-rule="evenodd" stroke="none"/>
    <path d="M17.4 19.45 L29.2 18.3 Q39.85 17.65 51.1 21.55 60.4 24.8 71.6 25.05 L71.55 28.65 Q60.4 28.45 51.85 25.0 40.7 20.45 30.3 20.45 L17.15 21.6 17.3 19.45 17.4 19.45 M17.1 22.1 L17.2 22.1 30.3 21.0 Q40.55 21.0 51.55 25.45 60.25 28.95 71.5 29.15 L71.45 31.9 70.3 32.85 70.6 33.0 Q59.45 33.1 49.8 36.45 37.3 40.85 30.4 41.1 L17.75 40.55 17.65 40.55 17.2 36.9 28.3 37.65 Q38.7 37.65 46.05 35.5 53.55 33.25 53.5 30.1 53.55 26.9 46.05 24.7 38.7 22.55 28.3 22.55 L17.05 23.3 17.1 22.1 M71.7 20.15 L58.7 18.95 Q52.8 17.85 52.75 16.55 52.8 15.25 58.7 14.2 L71.9 13.0 71.7 20.15" fill="#c58c3f" fill-rule="evenodd" stroke="none"/>
    <path d="M71.65 22.55 Q62.2 22.1 55.6 20.45 48.65 18.65 48.6 16.3 48.65 14.0 55.6 12.25 62.25 10.5 71.95 10.1 L71.9 12.5 58.55 13.7 Q52.0 14.9 52.1 16.55 52.0 18.25 58.55 19.45 L71.7 20.7 71.65 22.55" fill="url(#gradient4)" fill-rule="evenodd" stroke="none"/>
    <path d="M17.85 13.5 L27.5 14.1 Q38.2 14.65 53.1 10.7 61.95 8.4 72.0 7.55 L71.95 9.55 Q62.15 10.0 55.4 11.7 47.9 13.65 48.0 16.3 47.9 18.95 55.4 20.9 62.05 22.65 71.65 23.1 L71.65 24.55 Q60.55 24.25 51.35 21.1 39.95 17.1 29.15 17.75 L17.35 18.95 17.85 13.5" fill="url(#gradient5)" fill-rule="evenodd" stroke="none"/>
    <path d="M71.8 25.25 Q60.55 24.95 51.1 21.75 39.85 17.85 29.2 18.45 L17.35 19.65 17.35 19.1 29.2 17.95 Q40.0 17.3 51.4 21.25 60.6 24.45 71.7 24.7 L71.65 25.2 71.8 25.25 M72.0 7.75 Q62.05 8.55 53.2 10.85 38.25 14.8 27.6 14.3 L17.9 13.65 17.95 13.15 27.6 13.75 Q38.1 14.3 52.85 10.4 61.85 8.0 72.05 7.25 L72.0 7.75 M71.95 10.25 Q62.35 10.65 55.7 12.35 48.75 14.2 48.75 16.5 48.75 18.85 55.7 20.65 62.25 22.3 71.7 22.8 L71.7 23.25 Q62.05 22.75 55.4 21.05 47.85 19.1 47.95 16.5 47.85 13.9 55.4 11.95 62.15 10.25 71.95 9.8 L71.95 10.25 M71.9 13.1 Q64.2 13.35 58.75 14.35 52.9 15.4 52.8 16.75 52.9 18.1 58.75 19.15 L71.75 20.4 71.75 20.8 58.5 19.55 Q52.0 18.35 52.1 16.75 52.0 15.1 58.5 13.9 L71.9 12.7 71.9 13.1 M71.55 29.35 Q60.25 29.15 51.55 25.65 40.55 21.15 30.35 21.15 L17.2 22.25 17.2 21.75 30.35 20.65 Q40.7 20.65 51.85 25.15 60.45 28.65 71.6 28.8 L71.55 29.35 M71.2 33.7 Q59.8 33.7 50.1 37.1 37.45 41.55 30.5 41.85 L17.8 41.25 17.75 41.1 17.7 40.7 30.4 41.25 Q37.3 41.0 49.85 36.65 59.45 33.25 70.6 33.2 L71.2 33.7 M56.05 4.85 L58.6 4.85 53.0 6.2 Q38.0 10.1 27.05 9.0 L18.7 8.15 18.8 7.8 18.85 7.7 27.1 8.5 Q37.9 9.55 52.6 5.7 L56.05 4.85 M49.45 30.55 Q49.5 32.55 43.15 33.85 37.05 35.1 28.4 35.1 L17.05 34.4 17.0 33.95 28.4 34.6 43.0 33.35 Q48.75 32.15 48.8 30.55 48.75 28.9 43.0 27.75 36.95 26.45 28.4 26.45 L16.95 27.2 16.95 26.65 28.4 26.0 Q37.05 26.0 43.15 27.25 49.5 28.6 49.45 30.55 M53.55 30.25 Q53.65 33.45 46.05 35.65 38.75 37.85 28.4 37.85 L17.25 37.05 17.2 36.6 28.4 37.35 Q38.6 37.35 45.85 35.2 52.9 33.1 52.95 30.25 52.9 27.4 45.85 25.35 38.6 23.25 28.4 23.25 L16.85 24.05 17.1 24.0 17.1 23.5 28.4 22.75 Q38.75 22.75 46.05 24.9 53.65 27.1 53.55 30.25" fill="#ae7528" fill-rule="evenodd" stroke="none"/>
  </g>
  <defs>
    <linearGradient gradientTransform="matrix(0.0337, 0.0, 0.0, 0.0262, 46.25, 25.05)" gradientUnits="userSpaceOnUse" id="gradient0" spreadMethod="pad" x1="-819.2" x2="819.2">
      <stop offset="0.0" stop-color="#231204"/>
      <stop offset="0.5568627450980392" stop-color="#4f2909"/>
      <stop offset="1.0" stop-color="#693408"/>
    </linearGradient>
    <linearGradient gradientTransform="matrix(0.022, 0.0024, -0.0016, 0.0087, 34.65, 29.7)" gradientUnits="userSpaceOnUse" id="gradient1" spreadMethod="pad" x1="-819.2" x2="819.2">
      <stop offset="0.0" stop-color="#b17536"/>
      <stop offset="1.0" stop-color="#ce9744"/>
    </linearGradient>
    <linearGradient gradientTransform="matrix(0.0132, 0.011, -0.0051, 0.0035, 32.75, 30.05)" gradientUnits="userSpaceOnUse" id="gradient2" spreadMethod="pad" x1="-819.2" x2="819.2">
      <stop offset="0.0" stop-color="#b17536"/>
      <stop offset="1.0" stop-color="#ce9744"/>
    </linearGradient>
    <linearGradient gradientTransform="matrix(-0.0886, 0.0145, -0.002, -0.0084, 51.7, 29.5)" gradientUnits="userSpaceOnUse" id="gradient3" spreadMethod="pad" x1="-819.2" x2="819.2">
      <stop offset="0.0" stop-color="#b17536"/>
      <stop offset="1.0" stop-color="#ce9744"/>
    </linearGradient>
    <linearGradient gradientTransform="matrix(0.0244, 0.0, 0.0, 0.0076, 55.4, 16.15)" gradientUnits="userSpaceOnUse" id="gradient4" spreadMethod="pad" x1="-819.2" x2="819.2">
      <stop offset="0.0" stop-color="#b17536"/>
      <stop offset="1.0" stop-color="#ce9744"/>
    </linearGradient>
    <linearGradient gradientTransform="matrix(0.0759, -0.0071, 0.0014, 0.0102, 25.55, 17.95)" gradientUnits="userSpaceOnUse" id="gradient5" spreadMethod="pad" x1="-819.2" x2="819.2">
      <stop offset="0.0" stop-color="#b17536"/>
      <stop offset="1.0" stop-color="#ce9744"/>
    </linearGradient>
  </defs>
</svg>
