<?xml version="1.0" encoding="UTF-8" standalone="no"?>
<svg xmlns:ffdec="https://www.free-decompiler.com/flash" xmlns:xlink="http://www.w3.org/1999/xlink" ffdec:objectType="shape" height="20.8px" width="18.55px" xmlns="http://www.w3.org/2000/svg">
  <g transform="matrix(1.0, 0.0, 0.0, 1.0, -7.35, 5.65)">
    <path d="M25.85 -5.35 L22.8 4.7 25.9 14.7 22.8 15.05 20.2 5.6 20.05 15.05 17.15 15.05 17.45 -5.65 20.4 -5.6 20.25 3.6 22.75 -5.6 25.85 -5.35 M11.6 -5.55 Q14.4 -5.45 15.1 -2.85 15.8 -0.15 15.8 4.85 15.8 9.8 15.1 12.4 14.35 15.05 11.6 15.15 L11.6 15.1 Q8.75 14.95 8.05 12.35 7.35 9.8 7.35 4.8 L7.4 4.8 Q7.4 -0.15 8.05 -2.75 8.75 -5.35 11.6 -5.5 L11.6 -5.55 M10.6 -0.4 Q10.35 1.35 10.35 4.8 10.35 8.25 10.6 10.05 10.8 11.8 11.65 11.95 12.5 11.85 12.75 10.1 L12.95 4.85 12.75 -0.45 Q12.5 -2.3 11.65 -2.35 10.8 -2.2 10.6 -0.4" fill="#673308" fill-rule="evenodd" stroke="none"/>
  </g>
</svg>
