<?xml version="1.0" encoding="UTF-8" standalone="no"?>
<svg xmlns:ffdec="https://www.free-decompiler.com/flash" xmlns:xlink="http://www.w3.org/1999/xlink" ffdec:objectType="shape" height="26.4px" width="175.05px" xmlns="http://www.w3.org/2000/svg">
  <g transform="matrix(1.0, 0.0, 0.0, 1.0, 0.0, 0.0)">
    <path d="M174.95 0.3 L175.05 4.3 170.65 4.35 170.55 9.45 174.1 9.5 174.0 13.55 170.5 13.55 170.4 21.85 175.0 21.9 174.9 26.1 166.7 26.0 167.1 0.25 174.95 0.3 M164.5 26.1 L161.1 26.35 160.55 13.05 159.0 22.65 155.9 23.05 153.9 12.6 153.55 26.2 149.95 26.2 150.75 0.15 155.15 0.2 157.3 13.25 159.25 0.2 163.55 0.15 164.5 26.1 M145.4 0.2 L148.9 25.6 145.55 25.65 145.0 22.05 141.85 22.15 141.45 26.4 137.8 26.4 140.95 0.55 145.4 0.2 M142.2 18.4 L144.5 18.4 143.1 9.75 142.2 18.4 M128.65 0.55 L132.55 13.55 132.4 0.25 136.05 0.15 136.2 26.0 132.7 26.0 128.55 12.4 128.8 25.85 125.2 25.85 125.25 0.7 128.65 0.55 M110.55 0.5 Q113.85 1.45 114.15 9.1 114.05 13.7 111.75 15.5 L115.05 25.85 111.45 26.35 108.55 16.85 107.7 16.9 107.7 26.1 104.05 26.0 104.1 0.5 107.25 0.25 110.55 0.5 M107.7 3.55 L107.65 13.15 Q109.05 13.05 109.6 12.55 110.4 11.85 110.5 8.75 110.45 5.85 110.2 5.0 109.6 3.15 107.7 3.55 M94.85 1.15 Q94.25 8.35 94.4 12.85 94.3 18.1 94.6 19.75 94.85 21.4 96.15 21.85 97.4 21.95 97.65 19.7 97.95 17.4 98.05 13.25 L97.45 0.4 100.95 0.2 Q101.65 6.6 101.65 11.95 L101.65 14.5 101.65 15.15 Q101.65 25.6 96.6 26.0 L95.8 26.1 Q92.7 26.1 91.6 23.5 90.65 20.3 90.65 14.1 L90.65 12.85 90.65 11.25 Q90.65 7.2 91.2 0.9 L94.85 1.15 M87.7 22.9 Q86.75 26.2 83.3 26.35 79.7 26.1 78.8 22.85 77.9 19.55 77.9 13.25 77.9 6.95 78.8 3.75 79.7 0.45 83.3 0.25 86.85 0.4 87.7 3.65 88.6 6.95 88.6 13.3 88.6 19.55 87.7 22.9 M83.35 4.25 Q82.25 4.45 81.95 6.7 81.7 8.95 81.7 13.3 81.7 17.6 81.95 19.9 82.25 22.15 83.35 22.3 L83.35 22.35 Q84.4 22.2 84.75 19.95 L85.0 13.3 84.75 6.65 Q84.4 4.35 83.35 4.25 M77.4 0.4 L74.05 15.2 74.1 26.15 70.45 26.1 70.35 16.6 66.2 0.3 70.0 0.25 72.15 9.5 73.85 0.0 77.4 0.4 M53.35 0.5 Q56.65 1.45 56.95 9.1 56.85 13.7 54.55 15.5 L57.85 25.85 54.25 26.35 51.3 16.85 50.5 16.9 50.5 26.1 46.8 26.0 46.9 0.5 50.05 0.25 53.35 0.5 M50.5 3.55 L50.45 13.15 Q51.8 13.05 52.4 12.55 53.15 11.85 53.3 8.75 53.2 5.85 52.95 5.0 52.4 3.15 50.5 3.55 M44.25 0.3 L44.35 4.3 39.9 4.35 39.85 9.45 43.4 9.5 43.3 13.55 39.8 13.55 39.65 21.85 44.3 21.9 44.15 26.1 36.0 26.0 36.4 0.25 44.25 0.3 M33.95 4.25 L30.85 4.2 30.8 26.1 27.2 25.9 27.25 4.2 24.05 4.1 24.1 0.15 33.8 0.15 33.95 4.25 M14.25 0.55 L18.1 13.55 17.95 0.25 21.65 0.15 21.75 26.0 18.3 26.0 14.1 12.4 14.35 25.85 10.75 25.85 10.8 0.7 14.25 0.55 M8.2 0.3 L8.35 4.3 3.9 4.35 3.85 9.45 7.4 9.5 7.25 13.55 3.8 13.55 3.65 21.85 8.3 21.9 8.15 26.1 0.0 26.0 0.35 0.25 8.2 0.3" fill="#333333" fill-rule="evenodd" stroke="none"/>
  </g>
</svg>
