<?xml version="1.0" encoding="UTF-8" standalone="no"?>
<svg xmlns:ffdec="https://www.free-decompiler.com/flash" xmlns:xlink="http://www.w3.org/1999/xlink" ffdec:objectType="shape" height="99.05px" width="189.15px" xmlns="http://www.w3.org/2000/svg">
  <g transform="matrix(1.0, 0.0, 0.0, 1.0, 93.15, 87.25)">
    <path d="M73.05 -84.55 L89.15 -83.9 Q89.5 -84.25 90.1 -84.25 L90.55 -83.65 92.3 -83.25 Q93.1 -83.15 92.75 -82.15 L92.5 -81.6 91.85 -81.6 92.7 -79.6 93.0 -78.65 93.6 -75.85 93.75 -72.85 93.75 -71.8 93.6 -69.95 93.55 -69.5 93.2 -65.45 93.05 -62.4 Q92.45 -47.3 92.75 -32.45 92.8 -27.75 93.15 -23.05 L93.4 -19.55 Q94.1 -11.55 95.5 -3.6 L95.7 -2.45 Q96.05 0.1 96.0 2.65 L96.0 3.25 Q95.8 7.55 94.45 11.6 L94.1 11.8 Q85.15 11.35 78.15 7.15 63.3 6.5 48.45 9.3 L42.9 9.8 42.55 9.8 35.6 9.65 26.4 9.45 25.9 9.45 25.6 9.2 25.0 8.45 24.45 7.15 24.05 6.0 23.75 4.8 23.6 4.5 Q22.35 10.45 15.4 9.4 L15.0 9.35 -0.75 6.2 -1.35 6.35 -3.75 7.05 Q-8.25 8.4 -11.95 6.4 -12.7 7.35 -13.6 7.95 L-14.65 8.45 -14.75 8.5 Q-19.5 10.25 -23.35 7.2 -23.55 7.0 -23.9 6.95 L-24.05 7.25 -24.45 7.75 -28.55 7.85 -28.95 7.25 -29.55 6.55 -29.85 6.15 -30.5 4.7 -30.45 3.4 -30.45 3.2 -30.4 3.0 Q-30.3 2.2 -30.45 1.55 L-30.75 1.7 -31.15 2.75 -31.2 2.9 -31.4 3.9 -31.4 4.25 -31.55 5.95 Q-31.6 6.85 -32.35 7.4 L-33.5 7.35 -34.15 7.4 -34.25 7.4 -34.35 7.45 -37.7 7.65 -37.75 7.65 -38.55 7.6 -39.95 7.45 -40.2 7.4 Q-40.75 7.25 -41.15 6.85 L-41.4 7.05 -41.6 7.3 -41.75 7.6 -41.95 7.85 -42.3 8.15 -43.5 8.05 -43.8 7.9 -44.15 7.4 -44.7 5.9 -45.05 2.7 -45.0 -0.4 -44.95 -1.75 -44.9 -2.6 -44.75 -3.6 Q-44.7 -4.2 -44.8 -4.7 L-45.05 -4.3 -45.5 -3.35 -46.35 -0.8 -46.95 1.75 -47.15 4.35 -47.15 5.75 -46.85 6.05 -46.6 6.35 -46.3 6.6 -46.25 6.65 -46.05 6.95 -46.0 7.2 -46.05 7.5 Q-46.05 7.95 -46.45 8.1 L-53.35 8.45 -53.9 8.55 -54.15 8.85 -54.4 9.1 -55.0 9.5 -55.1 9.55 -55.75 9.75 Q-56.6 9.85 -57.15 9.3 -57.6 8.95 -57.6 8.45 L-57.55 7.0 -57.55 5.3 -57.5 3.6 -57.5 2.8 -57.5 1.9 -57.75 2.2 -58.35 3.6 Q-58.55 4.45 -59.05 5.3 L-59.25 5.7 -59.65 7.05 Q-59.8 7.9 -60.4 8.45 L-74.9 7.65 -78.8 7.15 -83.85 6.3 Q-84.95 6.1 -85.85 5.55 L-85.35 5.2 Q-88.8 2.85 -88.0 -3.15 L-87.95 -3.8 -87.95 -3.85 -87.45 -9.25 Q-86.95 -16.95 -87.55 -24.75 -88.15 -32.75 -88.25 -40.9 -88.45 -51.95 -89.7 -62.75 L-89.9 -66.1 -89.7 -69.3 -93.15 -70.2 -89.5 -70.65 -88.95 -72.85 -88.3 -74.65 -88.15 -75.8 -88.05 -77.0 -88.05 -77.05 -87.9 -78.15 -87.85 -78.5 Q-87.4 -81.0 -85.05 -81.6 L-81.45 -81.4 -80.0 -81.05 -79.3 -81.85 -77.75 -82.95 -75.4 -83.05 -75.1 -82.75 -74.95 -82.55 -74.7 -82.3 -74.3 -81.9 -73.7 -81.35 Q-70.45 -84.3 -66.3 -84.4 L-63.95 -84.25 -62.9 -84.05 -55.4 -83.15 Q-53.95 -84.85 -51.8 -84.9 L-49.7 -84.6 Q-44.7 -83.2 -40.6 -85.25 -39.25 -84.4 -38.6 -82.8 -37.8 -81.25 -38.0 -79.35 -38.3 -77.5 -37.75 -75.9 -37.25 -74.25 -36.25 -72.85 L-36.15 -72.8 -36.0 -72.7 -35.95 -72.7 -35.85 -73.0 -35.25 -74.55 Q-34.85 -75.6 -35.0 -76.75 L-35.05 -79.25 -35.15 -81.7 -35.0 -82.7 Q-20.95 -83.6 -5.75 -82.15 L3.3 -82.65 Q8.35 -83.75 13.55 -82.55 16.7 -81.8 20.05 -81.55 21.3 -81.45 21.25 -80.1 25.0 -82.0 29.4 -82.75 35.0 -83.75 40.45 -82.8 L40.75 -82.45 40.9 -82.35 40.95 -82.25 41.1 -82.0 41.15 -81.95 41.25 -81.8 41.4 -81.55 41.5 -81.4 41.9 -81.4 42.25 -81.45 43.85 -81.5 44.3 -81.55 48.95 -81.7 55.45 -81.6 59.3 -81.35 60.35 -81.3 60.3 -80.6 60.25 -80.3 Q60.15 -79.75 60.35 -79.25 60.5 -78.65 60.95 -78.25 L61.3 -77.3 61.3 -77.1 61.3 -77.05 Q61.3 -76.6 61.6 -76.15 L62.35 -77.2 Q62.65 -77.9 62.6 -78.75 L62.6 -78.8 62.6 -79.15 62.25 -80.35 Q61.8 -81.15 62.05 -82.0 L62.55 -82.8 63.95 -83.1 71.9 -84.45 73.1 -84.55 73.05 -84.55" fill="#151000" fill-opacity="0.34901962" fill-rule="evenodd" stroke="none"/>
    <path d="M-89.7 -71.3 Q-76.45 -67.95 -73.5 -68.8 -66.15 -70.9 -58.65 -71.7 L-58.35 -71.45 Q-56.75 -70.1 -54.6 -69.8 L-54.2 -69.75 Q-50.05 -69.3 -46.3 -68.05 -43.45 -67.05 -40.55 -67.0 -38.8 -63.4 -34.25 -63.7 -27.7 -64.15 -22.4 -69.0 -18.15 -72.85 -11.9 -71.55 -3.7 -69.85 4.15 -71.7 8.65 -67.45 14.8 -66.5 L22.4 -66.8 Q34.05 -69.65 45.75 -66.95 58.15 -64.05 68.85 -69.15 70.2 -69.8 71.75 -69.55 L93.1 -67.45 93.2 -67.45 93.05 -64.4 Q92.45 -49.3 92.75 -34.45 92.8 -29.75 93.15 -25.05 91.2 -23.35 91.65 -16.3 92.05 -9.25 89.45 -7.3 86.85 -5.4 82.4 -7.2 77.95 -9.0 72.65 -9.5 67.3 -10.05 62.2 -12.7 L61.3 -12.9 Q55.8 -13.3 49.95 -6.8 44.1 -0.3 36.2 -4.75 29.0 -8.8 24.85 -14.25 L24.7 -14.5 24.15 -15.25 Q23.4 -16.15 22.6 -15.95 L21.6 -16.5 Q20.5 -17.1 19.4 -16.85 L17.05 -15.95 Q12.05 -13.4 12.0 -8.05 9.55 -7.65 7.25 -8.8 L5.1 -8.7 Q0.95 -6.25 -3.65 -8.15 -10.15 -10.85 -16.75 -9.05 -20.55 -8.0 -24.5 -8.9 -28.4 -9.8 -32.35 -8.25 -34.9 -7.25 -37.55 -7.45 -40.75 -7.65 -41.75 -10.75 L-42.65 -14.6 Q-43.15 -17.9 -45.9 -18.9 -47.45 -18.4 -48.7 -17.25 -50.3 -15.7 -51.45 -13.8 L-53.55 -10.2 -55.1 -7.7 -56.45 -7.3 -57.3 -6.85 -57.75 -6.65 -57.9 -6.65 -59.35 -9.65 Q-60.9 -13.0 -63.15 -9.95 -64.2 -8.45 -64.75 -6.7 L-65.65 -3.85 Q-65.9 -3.15 -66.4 -2.9 -68.6 -1.6 -71.6 -1.55 -72.05 -1.55 -71.95 -1.15 -71.7 -0.1 -71.05 0.5 L-71.25 0.45 Q-73.7 -0.2 -76.1 0.5 L-77.25 0.6 Q-78.0 0.0 -79.0 -0.25 L-80.65 -0.75 -81.65 -1.35 -82.4 -1.85 -82.7 -3.1 -83.8 -5.4 -84.8 -7.8 -85.15 -9.95 Q-85.15 -10.65 -85.6 -11.15 L-86.0 -11.35 -86.65 -11.55 -87.25 -11.35 -87.45 -11.25 Q-86.95 -18.95 -87.55 -26.75 -88.15 -34.75 -88.25 -42.9 -88.45 -53.95 -89.7 -64.75 L-89.9 -68.1 -89.7 -71.3" fill="#d2b762" fill-rule="evenodd" stroke="none"/>
    <path d="M-63.95 -86.25 L-62.9 -85.6 Q-60.85 -84.6 -58.55 -84.4 L-57.5 -83.4 Q-56.35 -82.7 -55.0 -82.9 L-54.65 -83.05 -54.4 -83.25 -54.2 -83.45 -54.05 -83.65 -54.0 -83.85 -53.9 -84.0 -53.8 -84.25 -52.1 -84.45 Q-48.35 -84.95 -44.5 -84.5 L-44.05 -83.95 Q-43.45 -83.5 -42.7 -83.5 L-40.55 -83.5 -40.2 -82.55 -39.35 -79.35 -38.75 -78.15 Q-37.95 -77.1 -37.6 -75.95 -37.05 -74.3 -35.25 -74.25 -33.45 -74.2 -33.1 -75.95 L-32.8 -78.3 -32.75 -79.45 -32.65 -80.25 Q-32.25 -82.25 -32.45 -84.35 L-27.75 -84.5 Q-23.85 -85.3 -19.95 -84.6 L-6.8 -82.45 Q-3.15 -81.9 0.3 -83.0 7.6 -85.25 15.05 -83.35 L20.35 -81.65 Q22.05 -80.95 23.6 -81.65 28.45 -83.8 33.55 -84.1 33.7 -83.95 34.0 -83.85 L35.05 -83.7 39.0 -82.85 Q39.85 -82.55 40.15 -81.65 40.35 -81.15 40.7 -80.85 L41.15 -80.4 Q42.7 -79.85 43.9 -80.7 45.1 -81.55 46.55 -80.95 L48.7 -80.85 Q51.2 -81.65 53.75 -81.75 L56.0 -81.8 Q56.4 -81.0 56.95 -80.35 L58.8 -78.55 Q60.65 -77.05 63.0 -77.7 64.0 -77.95 64.3 -78.85 L64.6 -79.85 64.7 -80.45 64.7 -84.15 68.7 -85.2 73.05 -86.55 73.1 -86.55 89.15 -85.9 Q89.5 -86.25 90.1 -86.25 L90.55 -85.65 92.3 -85.25 Q93.1 -85.15 92.75 -84.15 L92.5 -83.6 91.85 -83.6 92.7 -81.6 93.0 -80.65 93.6 -77.85 88.95 -78.7 85.0 -79.55 Q83.75 -79.8 82.85 -80.75 L80.05 -79.75 Q79.05 -79.3 78.0 -79.2 L64.65 -78.6 63.95 -77.05 63.9 -76.65 Q63.8 -75.85 63.85 -75.05 63.9 -74.5 63.6 -74.0 L63.05 -73.5 58.65 -73.65 Q57.7 -74.3 57.25 -75.35 57.0 -75.95 57.0 -76.6 L44.25 -76.7 Q43.5 -76.7 42.8 -77.1 L41.65 -77.9 Q34.65 -75.0 26.85 -77.05 22.35 -78.25 18.85 -74.6 14.65 -70.3 11.95 -74.2 10.1 -76.85 6.2 -76.4 L5.6 -76.35 2.3 -76.65 Q1.7 -76.9 1.1 -77.3 -4.7 -81.1 -10.65 -77.5 -12.25 -76.55 -14.45 -77.2 -25.4 -80.65 -32.85 -73.15 -35.6 -70.4 -39.6 -71.65 -44.0 -73.0 -47.5 -76.2 -52.55 -80.85 -58.4 -77.55 -60.4 -76.45 -62.95 -76.95 -72.85 -78.95 -81.9 -77.75 -87.2 -77.05 -88.15 -77.8 L-88.05 -79.0 -88.05 -79.05 -87.9 -80.15 -87.85 -80.5 Q-87.4 -83.0 -85.05 -83.6 L-81.45 -83.4 -80.0 -83.05 -79.3 -83.85 -77.75 -84.95 -75.4 -85.05 -75.1 -84.75 -74.95 -84.55 -74.7 -84.3 -74.3 -83.9 -73.7 -83.35 Q-70.45 -86.3 -66.3 -86.4 L-63.95 -86.25 M60.25 -82.3 L59.85 -82.65 59.3 -83.35 60.35 -83.3 60.3 -82.6 60.25 -82.3 M48.95 -83.7 L48.1 -83.45 Q46.35 -82.95 44.4 -83.45 L44.3 -83.55 48.95 -83.7 M-71.05 0.5 L-69.9 1.15 -69.25 1.8 -67.75 1.8 -66.75 1.6 -64.65 1.25 Q-63.2 -1.35 -62.05 -4.0 L-61.85 -4.45 Q-59.05 -2.85 -52.55 -0.25 L-45.6 -8.9 -44.3 -10.55 -44.25 -10.65 -43.2 -8.05 -41.95 -5.25 Q-39.85 -0.9 -37.75 -0.1 -35.2 -0.1 -33.5 -1.75 -30.6 -4.55 -26.75 -4.25 -24.5 -4.1 -23.15 -2.15 -10.2 -3.35 2.75 -1.2 L5.65 -1.3 17.0 -1.85 Q18.85 -10.65 20.65 -13.95 21.6 -15.75 22.6 -15.95 23.4 -16.15 24.15 -15.25 L24.7 -14.5 24.85 -14.25 25.75 -12.45 26.1 -11.45 Q30.55 1.15 42.65 2.45 54.75 3.7 57.8 0.8 60.85 -2.15 67.9 -3.4 74.9 -4.7 85.25 1.35 89.0 -0.3 92.55 -2.85 93.9 -3.8 95.7 -4.45 96.05 -1.9 96.0 0.65 L96.0 1.25 Q95.8 5.55 94.45 9.6 L94.1 9.8 Q85.15 9.35 78.15 5.15 63.35 4.5 48.55 7.3 L46.45 6.7 43.0 6.25 37.8 5.65 Q34.35 5.15 31.2 6.5 27.0 8.3 26.05 4.05 25.55 1.75 24.05 0.4 23.25 0.55 22.9 1.4 L22.15 3.1 20.85 4.9 19.5 6.5 15.8 7.25 15.4 7.4 15.0 7.35 -0.75 4.2 -1.35 4.35 -8.5 4.15 -9.4 4.0 Q-13.1 2.6 -16.1 5.15 -19.1 7.65 -21.95 4.6 -22.5 4.0 -23.3 3.9 -25.3 3.7 -26.75 5.4 -27.45 5.25 -27.95 4.75 L-28.7 3.5 -29.3 2.3 Q-29.6 1.85 -30.1 1.95 L-30.2 2.3 -29.9 3.5 -29.55 4.55 -29.85 4.15 -30.5 2.7 -30.45 1.4 -30.45 1.2 -30.4 1.0 Q-30.3 0.2 -30.45 -0.45 L-30.75 -0.3 -31.15 0.75 -31.2 0.9 -31.4 1.9 -31.4 2.25 -31.55 3.95 Q-31.6 4.85 -32.35 5.4 L-33.5 5.35 -33.15 4.95 Q-32.45 3.2 -34.5 4.3 L-36.5 4.2 Q-37.65 4.25 -38.55 3.7 -39.8 2.95 -40.85 3.9 L-42.65 5.5 -42.6 5.4 Q-42.25 4.85 -42.6 4.3 L-42.95 3.2 Q-43.0 2.6 -43.35 2.15 L-44.05 1.35 Q-44.25 1.35 -44.35 1.55 -44.7 2.1 -44.55 2.8 -44.35 3.55 -44.3 4.35 L-44.15 5.4 -44.7 3.9 -45.05 0.7 -45.0 -2.4 -44.95 -3.75 -44.9 -4.6 -44.6 -5.1 Q-43.9 -6.3 -44.65 -7.1 -45.25 -6.8 -45.45 -6.1 -45.95 -4.5 -46.7 -3.0 L-47.35 -1.0 -47.65 1.95 Q-47.7 3.5 -47.05 4.85 L-47.05 4.95 -47.1 5.05 -47.1 5.25 -47.8 5.5 -49.55 5.6 -52.4 5.55 Q-54.5 5.35 -55.85 6.9 L-55.95 6.95 -56.3 7.0 -56.5 6.95 -56.55 6.9 -56.7 6.4 -56.95 4.9 -57.0 3.55 -57.1 2.15 -57.2 0.8 -57.25 0.75 -57.35 0.75 -57.45 0.75 -57.5 0.8 -57.5 -0.1 -57.75 0.2 -58.35 1.6 Q-58.55 2.45 -59.05 3.3 L-59.25 3.7 -59.5 3.95 Q-60.3 4.95 -60.5 6.2 L-62.35 5.75 -62.9 5.6 Q-69.6 5.5 -75.95 3.55 -76.85 3.3 -77.6 3.85 -78.45 4.55 -77.35 4.9 L-74.9 5.65 -78.8 5.15 -83.85 4.3 Q-84.95 4.1 -85.85 3.55 L-85.35 3.2 Q-88.8 0.85 -88.0 -5.15 L-87.95 -5.8 -87.95 -5.85 -87.45 -11.25 -87.25 -11.35 -86.65 -11.55 -86.0 -11.35 -85.6 -11.15 Q-85.15 -10.65 -85.15 -9.95 L-84.8 -7.8 -83.8 -5.4 -82.7 -3.1 -82.4 -1.85 -81.65 -1.35 -80.65 -0.75 -79.0 -0.25 Q-78.0 0.0 -77.25 0.6 L-76.1 0.5 Q-73.7 -0.2 -71.25 0.45 L-71.05 0.5 M-46.3 4.6 L-46.25 4.65 -46.05 4.95 -46.0 5.2 -46.05 5.5 Q-46.05 5.95 -46.45 6.1 L-46.3 6.0 Q-46.15 5.3 -46.3 4.6 M-54.4 7.1 L-55.0 7.5 -55.1 7.55 -54.85 7.35 -54.45 7.1 -54.4 7.1" fill="#c99c46" fill-rule="evenodd" stroke="none"/>
    <path d="M-88.15 -77.8 Q-87.2 -77.05 -81.9 -77.75 -72.85 -78.95 -62.95 -76.95 -60.4 -76.45 -58.4 -77.55 -52.55 -80.85 -47.5 -76.2 -44.0 -73.0 -39.6 -71.65 -35.6 -70.4 -32.85 -73.15 -25.4 -80.65 -14.45 -77.2 -12.25 -76.55 -10.65 -77.5 -4.7 -81.1 1.1 -77.3 1.7 -76.9 2.3 -76.65 L5.6 -76.35 6.2 -76.4 Q10.1 -76.85 11.95 -74.2 14.65 -70.3 18.85 -74.6 22.35 -78.25 26.85 -77.05 34.65 -75.0 41.65 -77.9 L42.8 -77.1 Q43.5 -76.7 44.25 -76.7 L57.0 -76.6 Q57.0 -75.95 57.25 -75.35 57.7 -74.3 58.65 -73.65 L63.05 -73.5 63.6 -74.0 Q63.9 -74.5 63.85 -75.05 63.8 -75.85 63.9 -76.65 L63.95 -77.05 64.65 -78.6 78.0 -79.2 Q79.05 -79.3 80.05 -79.75 L82.85 -80.75 Q83.75 -79.8 85.0 -79.55 L88.95 -78.7 93.6 -77.85 93.75 -74.85 93.75 -73.8 93.6 -71.95 93.55 -71.5 93.2 -67.45 93.1 -67.45 71.75 -69.55 Q70.2 -69.8 68.85 -69.15 58.15 -64.05 45.75 -66.95 34.05 -69.65 22.4 -66.8 L14.8 -66.5 Q8.65 -67.45 4.15 -71.7 -3.7 -69.85 -11.9 -71.55 -18.15 -72.85 -22.4 -69.0 -27.7 -64.15 -34.25 -63.7 -38.8 -63.4 -40.55 -67.0 -43.45 -67.05 -46.3 -68.05 -50.05 -69.3 -54.2 -69.75 L-54.6 -69.8 Q-56.75 -70.1 -58.35 -71.45 L-58.65 -71.7 Q-66.15 -70.9 -73.5 -68.8 -76.45 -67.95 -89.7 -71.3 L-93.15 -72.2 -89.5 -72.65 -88.95 -74.85 -88.3 -76.65 -88.15 -77.8 M-71.05 0.5 Q-71.7 -0.1 -71.95 -1.15 -72.05 -1.55 -71.6 -1.55 -68.6 -1.6 -66.4 -2.9 -65.9 -3.15 -65.65 -3.85 L-64.75 -6.7 Q-64.2 -8.45 -63.15 -9.95 -60.9 -13.0 -59.35 -9.65 L-57.9 -6.65 -57.75 -6.65 -57.3 -6.85 -56.45 -7.3 -55.1 -7.7 -53.55 -10.2 -51.45 -13.8 Q-50.3 -15.7 -48.7 -17.25 -47.45 -18.4 -45.9 -18.9 -43.15 -17.9 -42.65 -14.6 L-41.75 -10.75 Q-40.75 -7.65 -37.55 -7.45 -34.9 -7.25 -32.35 -8.25 -28.4 -9.8 -24.5 -8.9 -20.55 -8.0 -16.75 -9.05 -10.15 -10.85 -3.65 -8.15 0.95 -6.25 5.1 -8.7 L7.25 -8.8 Q9.55 -7.65 12.0 -8.05 12.05 -13.4 17.05 -15.95 L19.4 -16.85 Q20.5 -17.1 21.6 -16.5 L22.6 -15.95 Q21.6 -15.75 20.65 -13.95 18.85 -10.65 17.0 -1.85 L5.65 -1.3 2.75 -1.2 Q-10.2 -3.35 -23.15 -2.15 -24.5 -4.1 -26.75 -4.25 -30.6 -4.55 -33.5 -1.75 -35.2 -0.1 -37.75 -0.1 -39.85 -0.9 -41.95 -5.25 L-43.2 -8.05 -44.25 -10.65 -44.3 -10.55 -45.6 -8.9 -52.55 -0.25 Q-59.05 -2.85 -61.85 -4.45 L-62.05 -4.0 Q-63.2 -1.35 -64.65 1.25 L-66.75 1.6 -67.75 1.8 -69.25 1.8 -69.9 1.15 -71.05 0.5 M24.85 -14.25 Q29.0 -8.8 36.2 -4.75 44.1 -0.3 49.95 -6.8 55.8 -13.3 61.3 -12.9 L62.2 -12.7 Q67.3 -10.05 72.65 -9.5 77.95 -9.0 82.4 -7.2 86.85 -5.4 89.45 -7.3 92.05 -9.25 91.65 -16.3 91.2 -23.35 93.15 -25.05 L93.4 -21.55 Q94.1 -13.55 95.5 -5.6 L95.7 -4.45 Q93.9 -3.8 92.55 -2.85 89.0 -0.3 85.25 1.35 74.9 -4.7 67.9 -3.4 60.85 -2.15 57.8 0.8 54.75 3.7 42.65 2.45 30.55 1.15 26.1 -11.45 L25.75 -12.45 24.85 -14.25" fill="#cda752" fill-rule="evenodd" stroke="none"/>
    <path d="M73.05 -86.55 L68.7 -85.2 64.7 -84.15 64.7 -80.45 64.6 -79.85 64.3 -78.85 Q64.0 -77.95 63.0 -77.7 60.65 -77.05 58.8 -78.55 L56.95 -80.35 Q56.4 -81.0 56.0 -81.8 L53.75 -81.75 Q51.2 -81.65 48.7 -80.85 L46.55 -80.95 Q45.1 -81.55 43.9 -80.7 42.7 -79.85 41.15 -80.4 L40.7 -80.85 Q40.35 -81.15 40.15 -81.65 39.85 -82.55 39.0 -82.85 L35.05 -83.7 34.0 -83.85 Q33.7 -83.95 33.55 -84.1 28.45 -83.8 23.6 -81.65 22.05 -80.95 20.35 -81.65 L15.05 -83.35 Q7.6 -85.25 0.3 -83.0 -3.15 -81.9 -6.8 -82.45 L-19.95 -84.6 Q-23.85 -85.3 -27.75 -84.5 L-32.45 -84.35 Q-32.25 -82.25 -32.65 -80.25 L-32.75 -79.45 -32.8 -78.3 -33.1 -75.95 Q-33.45 -74.2 -35.25 -74.25 -37.05 -74.3 -37.6 -75.95 -37.95 -77.1 -38.75 -78.15 L-39.35 -79.35 -40.2 -82.55 -40.55 -83.5 -42.7 -83.5 Q-43.45 -83.5 -44.05 -83.95 L-44.5 -84.5 Q-48.35 -84.95 -52.1 -84.45 L-53.8 -84.25 -53.9 -84.0 -54.0 -83.85 -54.05 -83.65 -54.2 -83.45 -54.4 -83.25 -54.65 -83.05 -55.0 -82.9 Q-56.35 -82.7 -57.5 -83.4 L-58.55 -84.4 Q-60.85 -84.6 -62.9 -85.6 L-63.95 -86.25 -62.9 -86.05 -55.4 -85.15 Q-53.95 -86.85 -51.8 -86.9 L-49.7 -86.6 Q-44.7 -85.2 -40.6 -87.25 -39.25 -86.4 -38.6 -84.8 -37.8 -83.25 -38.0 -81.35 -38.3 -79.5 -37.75 -77.9 -37.25 -76.25 -36.25 -74.85 L-36.15 -74.8 -36.0 -74.7 -35.95 -74.7 -35.85 -75.0 -35.25 -76.55 Q-34.85 -77.6 -35.0 -78.75 L-35.05 -81.25 -35.15 -83.7 -35.0 -84.7 Q-20.95 -85.6 -5.75 -84.15 L3.3 -84.65 Q8.35 -85.75 13.55 -84.55 16.7 -83.8 20.05 -83.55 21.3 -83.45 21.25 -82.1 25.0 -84.0 29.4 -84.75 35.0 -85.75 40.45 -84.8 L40.75 -84.45 40.9 -84.35 40.95 -84.25 41.1 -84.0 41.15 -83.95 41.25 -83.8 41.4 -83.55 41.5 -83.4 41.9 -83.4 42.25 -83.45 43.85 -83.5 44.3 -83.55 44.4 -83.45 Q46.35 -82.95 48.1 -83.45 L48.95 -83.7 55.45 -83.6 59.3 -83.35 59.85 -82.65 60.25 -82.3 Q60.15 -81.75 60.35 -81.25 60.5 -80.65 60.95 -80.25 L61.3 -79.3 61.3 -79.1 61.3 -79.05 Q61.3 -78.6 61.6 -78.15 L62.35 -79.2 Q62.65 -79.9 62.6 -80.75 L62.6 -80.8 62.6 -81.15 62.25 -82.35 Q61.8 -83.15 62.05 -84.0 L62.55 -84.8 63.95 -85.1 71.9 -86.45 73.05 -86.55 M48.55 7.3 L48.45 7.3 42.9 7.8 42.55 7.8 Q39.1 7.3 35.6 7.65 L26.4 7.45 25.9 7.45 25.6 7.2 25.0 6.45 24.45 5.15 24.05 4.0 23.75 2.8 23.6 2.5 Q22.35 8.45 15.4 7.4 L15.8 7.25 19.5 6.5 20.85 4.9 22.15 3.1 22.9 1.4 Q23.25 0.55 24.05 0.4 25.55 1.75 26.05 4.05 27.0 8.3 31.2 6.5 34.35 5.15 37.8 5.65 L43.0 6.25 46.45 6.7 48.55 7.3 M-1.35 4.35 L-3.75 5.05 Q-8.25 6.4 -11.95 4.4 -12.7 5.35 -13.6 5.95 L-14.65 6.45 -14.75 6.5 Q-19.5 8.25 -23.35 5.2 -23.55 5.0 -23.9 4.95 L-24.05 5.25 -24.45 5.75 -28.55 5.85 -28.95 5.25 -29.55 4.55 -29.9 3.5 -30.2 2.3 -30.1 1.95 Q-29.6 1.85 -29.3 2.3 L-28.7 3.5 -27.95 4.75 Q-27.45 5.25 -26.75 5.4 -25.3 3.7 -23.3 3.9 -22.5 4.0 -21.95 4.6 -19.1 7.65 -16.1 5.15 -13.1 2.6 -9.4 4.0 L-8.5 4.15 -1.35 4.35 M-44.9 -4.6 L-44.75 -5.6 Q-44.7 -6.2 -44.8 -6.7 L-45.05 -6.3 -45.5 -5.35 -46.35 -2.8 -46.95 -0.25 -47.15 2.35 -47.15 3.75 -46.85 4.05 -46.6 4.35 -46.3 4.6 Q-46.15 5.3 -46.3 6.0 L-46.45 6.1 -53.35 6.45 -53.9 6.55 -54.15 6.85 -54.4 7.1 -54.45 7.1 -54.85 7.35 -55.1 7.55 -55.75 7.75 Q-56.6 7.85 -57.15 7.3 -57.6 6.95 -57.6 6.45 L-57.55 5.0 -57.55 3.3 -57.5 1.6 -57.5 0.8 -57.45 0.75 -57.35 0.75 -57.25 0.75 -57.2 0.8 -57.1 2.15 -57.0 3.55 -56.95 4.9 -56.7 6.4 -56.55 6.9 -56.5 6.95 -56.3 7.0 -55.95 6.95 -55.85 6.9 Q-54.5 5.35 -52.4 5.55 L-49.55 5.6 -47.8 5.5 -47.1 5.25 -47.1 5.05 -47.05 4.95 -47.05 4.85 Q-47.7 3.5 -47.65 1.95 L-47.35 -1.0 -46.7 -3.0 Q-45.95 -4.5 -45.45 -6.1 -45.25 -6.8 -44.65 -7.1 -43.9 -6.3 -44.6 -5.1 L-44.9 -4.6" fill="#af742d" fill-rule="evenodd" stroke="none"/>
    <path d="M-33.5 5.35 L-34.15 5.4 -34.25 5.4 -34.35 5.45 -37.7 5.65 -37.75 5.65 -38.05 5.65 -38.55 5.6 -39.95 5.45 -40.2 5.4 Q-40.75 5.25 -41.15 4.85 L-41.4 5.05 -41.6 5.3 -41.75 5.6 -41.95 5.85 -42.3 6.15 -43.5 6.05 -43.8 5.9 -44.15 5.4 -44.3 4.35 Q-44.35 3.55 -44.55 2.8 -44.7 2.1 -44.35 1.55 -44.25 1.35 -44.05 1.35 L-43.35 2.15 Q-43.0 2.6 -42.95 3.2 L-42.6 4.3 Q-42.25 4.85 -42.6 5.4 L-42.65 5.5 -40.85 3.9 Q-39.8 2.95 -38.55 3.7 -37.65 4.25 -36.5 4.2 L-34.5 4.3 Q-32.45 3.2 -33.15 4.95 L-33.5 5.35 M-59.25 3.7 L-59.65 5.05 Q-59.8 5.9 -60.4 6.45 L-74.9 5.65 -77.35 4.9 Q-78.45 4.55 -77.6 3.85 -76.85 3.3 -75.95 3.55 -69.6 5.5 -62.9 5.6 L-62.35 5.75 -60.5 6.2 Q-60.3 4.95 -59.5 3.95 L-59.25 3.7" fill="#9f6724" fill-rule="evenodd" stroke="none"/>
  </g>
</svg>
