<?xml version="1.0" encoding="UTF-8" standalone="no"?>
<svg xmlns:ffdec="https://www.free-decompiler.com/flash" xmlns:xlink="http://www.w3.org/1999/xlink" ffdec:objectType="shape" height="20.2px" width="14.6px" xmlns="http://www.w3.org/2000/svg">
  <g transform="matrix(1.0, 0.0, 0.0, 1.0, 0.0, 0.0)">
    <path d="M12.2 17.4 Q10.25 19.35 7.45 19.35 4.7 19.35 2.75 17.4 0.8 15.45 0.8 12.65 0.8 9.9 2.75 7.95 4.7 6.0 7.45 6.0 10.25 6.0 12.2 7.95 14.15 9.9 14.15 12.65 14.15 15.45 12.2 17.4" fill="#481903" fill-opacity="0.32156864" fill-rule="evenodd" stroke="none"/>
    <path d="M12.5 18.05 Q10.35 20.2 7.3 20.2 4.25 20.2 2.15 18.05 0.0 15.9 0.0 12.9 0.0 9.85 2.15 7.7 4.25 5.6 7.3 5.6 10.35 5.6 12.5 7.7 14.6 9.85 14.6 12.9 14.6 15.9 12.5 18.05" fill="#481903" fill-opacity="0.32156864" fill-rule="evenodd" stroke="none"/>
    <path d="M12.35 7.2 Q14.3 9.15 14.3 11.9 14.3 14.6 12.35 16.55 10.4 18.5 7.7 18.5 4.95 18.5 3.0 16.55 1.1 14.6 1.1 11.9 1.1 9.15 3.0 7.2 4.95 5.3 7.7 5.3 10.4 5.3 12.35 7.2" fill="url(#gradient0)" fill-rule="evenodd" stroke="none"/>
    <path d="M12.35 7.2 Q10.4 5.3 7.7 5.3 4.95 5.3 3.0 7.2 1.1 9.15 1.1 11.9 1.1 14.6 3.0 16.55 4.95 18.5 7.7 18.5 10.4 18.5 12.35 16.55 14.3 14.6 14.3 11.9 14.3 9.15 12.35 7.2 M7.7 5.15 Q10.45 5.15 12.45 7.15 14.4 9.1 14.4 11.9 14.4 14.65 12.45 16.65 10.45 18.6 7.7 18.6 4.9 18.6 2.95 16.65 0.95 14.65 0.95 11.9 0.95 9.1 2.95 7.15 4.9 5.15 7.7 5.15" fill="#e59e26" fill-rule="evenodd" stroke="none"/>
    <path d="M11.95 7.65 Q13.75 9.45 13.75 11.95 13.75 14.5 11.95 16.25 10.15 18.05 7.65 18.05 5.1 18.05 3.3 16.25 1.55 14.5 1.55 11.95 1.55 9.45 3.3 7.65 5.1 5.85 7.65 5.85 10.15 5.85 11.95 7.65" fill="url(#gradient1)" fill-rule="evenodd" stroke="none"/>
    <path d="M11.95 7.65 Q10.15 5.85 7.65 5.85 5.1 5.85 3.3 7.65 1.55 9.45 1.55 11.95 1.55 14.5 3.3 16.25 5.1 18.05 7.65 18.05 10.15 18.05 11.95 16.25 13.75 14.5 13.75 11.95 13.75 9.45 11.95 7.65 M7.65 5.75 Q10.2 5.75 12.05 7.55 13.85 9.4 13.85 11.95 13.85 14.55 12.05 16.35 10.2 18.2 7.65 18.2 5.05 18.2 3.25 16.35 1.4 14.55 1.4 11.95 1.4 9.4 3.25 7.55 5.05 5.75 7.65 5.75" fill="#e59e26" fill-rule="evenodd" stroke="none"/>
    <path d="M10.9 8.7 Q9.55 7.35 7.65 7.35 5.75 7.35 4.4 8.7 3.05 10.05 3.05 11.95 3.05 13.85 4.4 15.2 5.75 16.55 7.65 16.55 9.55 16.55 10.9 15.2 12.25 13.85 12.25 11.95 12.25 10.05 10.9 8.7 M7.65 7.25 Q9.6 7.25 11.0 8.6 12.35 10.0 12.35 11.95 12.35 13.9 11.0 15.25 9.6 16.65 7.65 16.65 5.7 16.65 4.3 15.25 2.95 13.9 2.95 11.95 2.95 10.0 4.3 8.6 5.7 7.25 7.65 7.25" fill="#d4911f" fill-rule="evenodd" stroke="none"/>
    <path d="M10.9 8.7 Q12.25 10.05 12.25 11.95 12.25 13.85 10.9 15.2 9.55 16.55 7.65 16.55 5.75 16.55 4.4 15.2 3.05 13.85 3.05 11.95 3.05 10.05 4.4 8.7 5.75 7.35 7.65 7.35 9.55 7.35 10.9 8.7" fill="#e09a25" fill-rule="evenodd" stroke="none"/>
    <path d="M10.5 8.25 L10.45 8.3 10.4 8.25 Q9.25 7.45 7.8 7.45 5.9 7.45 4.55 8.8 3.2 10.15 3.2 12.05 3.2 13.9 4.55 15.25 L5.05 15.7 5.05 15.75 5.05 15.8 5.0 15.85 4.9 15.85 4.9 15.8 4.25 15.25 Q2.9 13.9 2.9 11.9 2.9 9.95 4.25 8.55 5.65 7.15 7.65 7.15 9.25 7.15 10.5 8.1 L10.55 8.2 10.5 8.25" fill="#ffffff" fill-rule="evenodd" stroke="none"/>
    <path d="M10.2 5.85 L7.7 5.4 Q5.0 5.4 3.05 7.35 1.1 9.3 1.1 12.0 1.1 14.75 3.05 16.65 L4.1 17.55 2.95 16.65 Q1.05 14.7 1.05 11.95 1.05 9.25 2.95 7.3 4.9 5.35 7.65 5.35 9.0 5.35 10.2 5.85" fill="#ffffff" fill-rule="evenodd" stroke="none"/>
    <path d="M13.85 9.45 L13.6 9.65 12.25 7.55 12.55 7.3 Q13.05 7.3 13.85 9.45" fill="#ffffff" fill-rule="evenodd" stroke="none"/>
    <path d="M10.5 0.2 L10.35 0.25 10.3 0.0 10.45 0.0 10.5 0.2" fill="#e09a25" fill-rule="evenodd" stroke="none"/>
    <path d="M13.25 1.9 L13.15 2.0 13.05 1.95 13.05 1.85 13.2 1.85 13.25 1.9" fill="#ffffff" fill-rule="evenodd" stroke="none"/>
  </g>
  <defs>
    <linearGradient gradientTransform="matrix(0.0047, 0.0066, -0.0066, 0.0047, 7.7, 11.9)" gradientUnits="userSpaceOnUse" id="gradient0" spreadMethod="pad" x1="-819.2" x2="819.2">
      <stop offset="0.0" stop-color="#fbe158"/>
      <stop offset="0.3254901960784314" stop-color="#dd9425"/>
      <stop offset="0.5529411764705883" stop-color="#fff8e9"/>
      <stop offset="0.6666666666666666" stop-color="#fcbf30"/>
      <stop offset="0.9921568627450981" stop-color="#fdfcd0"/>
    </linearGradient>
    <linearGradient gradientTransform="matrix(0.0043, 0.0061, -0.0061, 0.0043, 7.65, 11.95)" gradientUnits="userSpaceOnUse" id="gradient1" spreadMethod="pad" x1="-819.2" x2="819.2">
      <stop offset="0.0" stop-color="#fece3e"/>
      <stop offset="0.40784313725490196" stop-color="#e39b25"/>
      <stop offset="0.6666666666666666" stop-color="#fcbf30"/>
      <stop offset="0.9921568627450981" stop-color="#fdfcd0"/>
    </linearGradient>
  </defs>
</svg>
