<?xml version="1.0" encoding="UTF-8" standalone="no"?>
<svg xmlns:ffdec="https://www.free-decompiler.com/flash" xmlns:xlink="http://www.w3.org/1999/xlink" ffdec:objectType="shape" height="108.6px" width="34.65px" xmlns="http://www.w3.org/2000/svg">
  <g transform="matrix(1.0, 0.0, 0.0, 1.0, 0.0, 0.0)">
    <path d="M3.55 17.85 L3.7 16.7 3.8 15.5 3.8 15.45 3.95 14.35 4.0 14.0 Q4.45 11.5 6.8 10.9 L10.4 11.1 11.85 11.45 12.55 10.65 Q13.2 9.95 14.1 9.55 L16.45 9.45 16.75 9.75 16.9 9.95 17.15 10.2 17.55 10.6 18.15 11.15 Q21.3 8.3 23.65 11.3 24.45 9.8 28.45 8.35 L34.65 9.4 32.2 99.95 Q29.95 100.85 20.2 100.05 L8.0 98.8 Q6.9 98.6 6.0 98.05 L6.5 97.7 Q3.05 95.35 3.85 89.35 L3.9 88.7 3.9 88.65 4.4 83.25 Q4.9 75.55 4.3 67.75 3.7 59.75 3.6 51.6 3.4 40.55 2.15 29.75 1.9 28.05 1.95 26.55 L2.3 26.55 2.3 21.85 2.35 21.85 Q2.55 20.7 2.9 19.65 3.15 18.7 3.55 17.85" fill="url(#gradient0)" fill-rule="evenodd" stroke="none"/>
    <path d="M6.65 1.05 L7.85 0.75 7.85 0.9 6.65 1.05 M13.8 0.5 Q16.25 0.8 18.7 1.9 16.95 4.5 16.7 8.05 15.8 19.65 15.85 31.45 L15.8 64.25 Q15.7 80.85 16.6 97.25 L17.25 107.25 13.25 107.7 13.05 106.45 Q12.05 103.4 12.6 77.95 13.15 52.5 13.05 35.1 12.95 17.65 13.3 12.85 L13.8 0.5 M8.25 107.5 L4.65 106.9 1.6 106.1 Q2.85 100.6 3.7 95.0 5.85 80.9 5.3 63.85 L3.9 30.85 Q3.0 14.9 4.4 9.7 5.75 4.45 3.8 2.2 4.9 1.65 6.05 1.25 L6.35 2.65 Q6.95 4.7 6.7 4.9 L6.4 5.2 5.95 5.8 Q8.35 25.15 8.65 44.9 9.1 71.1 5.75 97.05 5.25 100.7 4.65 106.9 6.45 106.3 8.25 107.5 M0.0 74.6 L0.0 32.0 Q0.8 44.4 0.7 56.9 0.65 65.8 0.0 74.6 M0.0 11.55 L0.0 4.4 1.25 3.6 Q0.45 7.5 0.0 11.55 M8.6 4.3 Q7.9 3.0 8.1 1.9 L8.6 4.3 M23.3 4.55 L23.25 4.5 23.3 4.5 23.6 4.65 Q24.0 4.85 23.7 4.8 L23.45 4.75 23.3 4.55" fill="#c99c46" fill-rule="evenodd" stroke="none"/>
    <path d="M7.85 0.75 L7.75 0.3 8.05 0.7 13.6 0.45 13.85 0.0 13.8 0.5 13.3 12.85 Q12.95 17.65 13.05 35.1 13.15 52.5 12.6 77.95 12.05 103.4 13.05 106.45 L13.25 107.7 Q13.1 108.45 11.9 107.7 10.75 109.45 8.7 107.85 L8.25 107.5 Q6.45 106.3 4.65 106.9 5.25 100.7 5.75 97.05 9.1 71.1 8.65 44.9 8.35 25.15 5.95 5.8 L6.4 5.2 6.7 4.9 Q6.95 4.7 6.35 2.65 L6.05 1.25 6.0 1.15 6.65 1.05 7.85 0.9 7.85 0.75 M8.6 4.3 L8.1 1.9 Q7.9 3.0 8.6 4.3" fill="#d4ac5f" fill-rule="evenodd" stroke="none"/>
    <path d="M22.7 7.75 L23.25 6.1 22.65 8.05 Q21.85 11.05 22.25 12.45 17.1 64.55 23.05 105.55 L22.6 105.75 Q19.5 92.75 19.0 79.2 18.45 65.6 18.35 51.75 18.25 37.85 19.0 27.05 19.75 16.25 22.7 7.75 M1.6 106.1 L0.0 105.55 0.0 74.6 Q0.65 65.8 0.7 56.9 0.8 44.4 0.0 32.0 L0.0 11.55 Q0.45 7.5 1.25 3.6 L1.3 3.55 1.4 3.5 1.65 3.35 Q2.7 2.7 3.8 2.2 5.75 4.45 4.4 9.7 3.0 14.9 3.9 30.85 L5.3 63.85 Q5.85 80.9 3.7 95.0 2.85 100.6 1.6 106.1" fill="#b68c3c" fill-rule="evenodd" stroke="none"/>
    <path d="M22.65 8.05 L22.45 10.15 22.25 12.45 Q21.85 11.05 22.65 8.05" fill="#a66d36" fill-rule="evenodd" stroke="none"/>
    <path d="M18.7 1.9 Q20.3 2.6 21.95 3.65 L23.25 4.65 22.75 7.0 22.7 7.75 Q19.75 16.25 19.0 27.05 18.25 37.85 18.35 51.75 18.45 65.6 19.0 79.2 19.5 92.75 22.6 105.75 L22.5 105.75 Q19.9 106.75 17.25 107.25 L16.6 97.25 Q15.7 80.85 15.8 64.25 L15.85 31.45 Q15.8 19.65 16.7 8.05 16.95 4.5 18.7 1.9" fill="#af8038" fill-rule="evenodd" stroke="none"/>
  </g>
  <defs>
    <linearGradient gradientTransform="matrix(0.0163, 4.0E-4, -0.0012, 0.0565, 17.6, 53.8)" gradientUnits="userSpaceOnUse" id="gradient0" spreadMethod="pad" x1="-819.2" x2="819.2">
      <stop offset="0.3137254901960784" stop-color="#3c0f06" stop-opacity="0.8784314"/>
      <stop offset="1.0" stop-color="#621607" stop-opacity="0.0"/>
    </linearGradient>
  </defs>
</svg>
