<?xml version="1.0" encoding="UTF-8" standalone="no"?>
<svg xmlns:ffdec="https://www.free-decompiler.com/flash" xmlns:xlink="http://www.w3.org/1999/xlink" ffdec:objectType="shape" height="107.35px" width="34.65px" xmlns="http://www.w3.org/2000/svg">
  <g transform="matrix(1.0, 0.0, 0.0, 1.0, 0.0, -0.35)">
    <path d="M16.5 11.0 L17.1 10.45 17.5 10.05 17.75 9.8 17.9 9.6 18.2 9.3 20.55 9.4 Q21.45 9.8 22.1 10.5 L22.8 11.3 24.25 10.95 27.85 10.75 28.7 11.05 28.7 97.15 28.15 97.55 28.65 97.9 Q27.75 98.45 26.65 98.65 L21.1 99.0 Q19.0 98.95 13.75 102.05 7.45 99.5 2.45 99.8 L0.0 9.25 7.35 8.0 9.1 7.95 Q13.25 8.05 16.5 11.0" fill="url(#gradient0)" fill-rule="evenodd" stroke="none"/>
    <path d="M30.85 2.2 Q28.9 4.45 30.25 9.7 31.65 14.9 30.75 30.85 29.9 46.75 29.35 63.85 28.8 80.9 30.95 95.0 31.8 100.6 33.05 106.1 L30.0 106.9 26.4 107.5 Q28.2 106.3 30.0 106.9 L28.9 97.05 Q25.55 71.1 26.0 44.9 26.3 25.15 28.7 5.8 L28.25 5.2 27.95 4.9 Q27.7 4.7 28.3 2.65 L28.6 1.25 30.85 2.2 M34.65 74.6 Q34.0 65.8 33.95 56.9 33.85 44.4 34.65 32.0 L34.65 74.6 M34.65 11.55 Q34.2 7.5 33.4 3.6 L34.65 4.4 34.65 11.55 M28.0 1.05 L26.8 0.9 26.8 0.75 28.0 1.05 M20.85 0.5 L21.35 12.85 Q21.7 17.65 21.6 35.1 21.5 52.5 22.05 77.95 22.6 103.4 21.6 106.45 21.35 107.2 21.4 107.65 L21.4 107.7 20.8 107.7 17.4 107.25 18.05 97.25 Q18.95 80.85 18.85 64.25 18.75 47.85 18.8 31.45 18.85 19.65 17.95 8.05 17.7 4.5 15.95 1.9 18.4 0.8 20.85 0.5" fill="#c99c46" fill-rule="evenodd" stroke="none"/>
    <path d="M28.6 1.25 L28.3 2.65 Q27.7 4.7 27.95 4.9 L28.25 5.2 28.7 5.8 Q26.3 25.15 26.0 44.9 25.55 71.1 28.9 97.05 L30.0 106.9 Q28.2 106.3 26.4 107.5 L22.25 107.65 21.4 107.65 Q21.35 107.2 21.6 106.45 22.6 103.4 22.05 77.95 21.5 52.5 21.6 35.1 21.7 17.65 21.35 12.85 L20.85 0.5 20.85 0.45 21.05 0.45 26.8 0.75 26.8 0.9 28.0 1.05 28.65 1.15 28.6 1.25" fill="#d4ac5f" fill-rule="evenodd" stroke="none"/>
    <path d="M30.85 2.2 L33.0 3.35 33.25 3.5 33.35 3.55 33.4 3.6 Q34.2 7.5 34.65 11.55 L34.65 32.0 Q33.85 44.4 33.95 56.9 34.0 65.8 34.65 74.6 L34.65 105.55 33.05 106.1 Q31.8 100.6 30.95 95.0 28.8 80.9 29.35 63.85 29.9 46.75 30.75 30.85 31.65 14.9 30.25 9.7 28.9 4.45 30.85 2.2 M12.4 12.45 Q12.8 11.05 12.0 8.05 L11.4 6.1 11.95 7.75 Q14.9 16.25 14.35 26.6 13.85 36.95 13.8 50.75 13.75 64.55 14.15 78.55 14.55 92.5 12.05 105.75 L11.6 105.55 Q14.1 66.85 12.4 12.45" fill="#b68c3c" fill-rule="evenodd" stroke="none"/>
    <path d="M12.4 12.45 L12.2 10.15 12.0 8.05 Q12.8 11.05 12.4 12.45" fill="#a66d36" fill-rule="evenodd" stroke="none"/>
    <path d="M11.95 7.75 L11.9 7.0 11.4 4.65 11.55 4.5 12.7 3.65 Q14.25 2.65 15.7 2.0 L15.95 1.9 Q17.7 4.5 17.95 8.05 18.85 19.65 18.8 31.45 18.75 47.85 18.85 64.25 18.95 80.85 18.05 97.25 L17.4 107.25 Q14.75 106.75 12.15 105.75 L12.05 105.75 Q14.55 92.5 14.15 78.55 13.75 64.55 13.8 50.75 13.85 36.95 14.35 26.6 14.9 16.25 11.95 7.75" fill="#af8038" fill-rule="evenodd" stroke="none"/>
  </g>
  <defs>
    <linearGradient gradientTransform="matrix(-0.0163, 4.0E-4, 0.0012, 0.0565, 17.05, 53.65)" gradientUnits="userSpaceOnUse" id="gradient0" spreadMethod="pad" x1="-819.2" x2="819.2">
      <stop offset="0.3137254901960784" stop-color="#1c0703" stop-opacity="0.9882353"/>
      <stop offset="1.0" stop-color="#621607" stop-opacity="0.0"/>
    </linearGradient>
  </defs>
</svg>
