<?xml version="1.0" encoding="UTF-8" standalone="no"?>
<svg xmlns:ffdec="https://www.free-decompiler.com/flash" xmlns:xlink="http://www.w3.org/1999/xlink" ffdec:objectType="shape" height="88.1px" width="97.4px" xmlns="http://www.w3.org/2000/svg">
  <g transform="matrix(1.0, 0.0, 0.0, 1.0, 10.35, 8.05)">
    <path d="M-4.35 -1.25 Q-0.95 1.1 3.2 -0.5 9.1 -2.8 15.05 -1.2 18.45 -0.3 22.0 -0.5 33.75 -1.3 45.55 -0.95 52.45 -0.75 59.3 -1.25 L78.8 -0.1 Q82.55 -1.25 84.4 -5.55 L85.3 9.2 Q85.35 13.25 84.35 17.25 83.25 21.3 84.55 25.25 L85.7 29.55 85.65 33.0 Q82.3 37.35 83.3 42.75 L85.1 53.45 85.9 58.85 Q86.25 69.05 87.05 78.5 70.4 77.65 55.25 77.8 L40.7 79.7 Q34.35 80.5 28.1 79.4 L18.45 78.05 -5.3 77.25 -8.2 77.7 Q-5.3 69.4 -4.35 60.9 -4.1 58.4 -4.95 56.45 -3.45 55.55 -3.35 53.65 -3.15 51.95 -4.15 51.0 L-3.2 48.15 Q-2.5 45.25 -4.2 43.45 -4.75 39.45 -4.55 37.0 L-3.4 27.95 Q-2.45 21.25 -6.35 10.15 -7.7 6.35 -6.6 2.5 -5.95 0.05 -6.45 -1.75 L-5.1 -1.8 -4.35 -1.25" fill="#151000" fill-opacity="0.34901962" fill-rule="evenodd" stroke="none"/>
    <path d="M-4.8 -3.85 L-4.9 -3.95 -4.7 -3.9 -3.8 -3.5 -3.1 -3.25 2.75 -3.4 4.7 -3.8 Q5.9 -2.85 7.15 -2.05 9.1 -0.8 11.35 -1.65 14.35 -2.8 17.7 -3.05 L25.5 -3.8 Q27.6 -4.05 29.75 -4.95 L37.25 -3.85 48.05 -2.45 58.5 -1.6 59.1 -1.7 Q61.6 -2.3 63.95 -3.4 L66.65 -2.85 67.9 -2.3 68.5 -2.05 70.35 -1.95 Q74.65 -2.15 76.05 -1.1 77.3 -0.1 76.9 12.95 L76.5 32.25 Q76.35 38.55 75.7 43.55 74.95 48.55 76.7 50.35 78.4 52.15 79.15 60.55 79.85 68.85 81.1 69.85 84.35 74.15 70.5 71.8 56.65 69.35 48.7 71.15 40.75 72.9 33.9 71.7 L21.95 70.15 Q16.85 69.85 7.4 70.2 L-2.85 70.4 -4.2 69.75 Q-5.35 63.35 -4.7 62.5 -1.8 59.25 -3.85 53.35 -5.85 47.4 -3.95 35.85 -2.0 24.35 -2.85 17.85 -3.8 11.3 -3.05 8.7 -2.4 6.05 -3.1 3.25 L-4.8 -3.85 M85.5 76.05 L86.0 75.9 86.0 76.05 85.5 76.05" fill="#dec884" fill-rule="evenodd" stroke="none"/>
    <path d="M-4.7 -3.9 Q-6.05 -4.75 -2.4 -5.8 1.2 -6.8 7.25 -6.6 13.35 -6.45 14.65 -5.4 L18.45 -5.25 27.9 -5.8 Q34.8 -5.5 45.85 -5.85 L52.6 -5.45 71.45 -4.85 72.2 -4.85 82.25 -4.0 82.3 -2.9 82.4 0.05 Q82.15 1.6 83.05 2.5 82.5 4.5 82.65 6.65 L82.5 9.3 Q81.1 16.6 83.15 23.85 83.45 24.75 83.0 25.6 80.45 30.8 80.8 36.45 80.95 38.35 81.6 40.1 82.8 42.9 82.8 45.9 82.7 50.7 83.05 55.4 83.75 65.0 85.65 74.3 79.3 74.7 72.5 74.0 L63.05 73.65 52.05 73.75 Q44.2 73.6 36.9 75.25 L30.2 75.8 28.7 75.85 Q20.2 77.05 14.3 73.25 12.85 72.35 11.25 73.0 8.25 74.2 4.7 73.7 L-6.65 73.0 -6.6 70.95 Q-6.65 68.2 -6.95 67.95 L-7.4 66.7 Q-7.6 65.7 -7.05 63.1 L-6.6 59.35 Q-5.55 57.55 -6.95 55.6 L-7.2 54.15 -7.2 54.05 Q-6.1 52.1 -6.95 50.15 -7.5 48.8 -6.85 47.45 -5.7 45.05 -6.85 42.65 -7.55 41.1 -7.75 39.5 -7.9 38.1 -7.55 36.85 -6.8 34.25 -6.8 31.5 -6.8 27.8 -7.5 24.15 -8.3 20.25 -7.8 16.3 -7.35 11.8 -7.5 7.15 L-7.35 4.5 -7.25 1.35 Q-7.5 -1.6 -7.25 -4.5 -6.25 -3.75 -4.8 -3.85 L-3.1 3.25 Q-2.4 6.05 -3.05 8.7 -3.8 11.3 -2.85 17.85 -2.0 24.35 -3.95 35.85 -5.85 47.4 -3.85 53.35 -1.8 59.25 -4.7 62.5 -5.35 63.35 -4.2 69.75 L-2.85 70.4 7.4 70.2 Q16.85 69.85 21.95 70.15 L33.9 71.7 Q40.75 72.9 48.7 71.15 56.65 69.35 70.5 71.8 84.35 74.15 81.1 69.85 79.85 68.85 79.15 60.55 78.4 52.15 76.7 50.35 74.95 48.55 75.7 43.55 76.35 38.55 76.5 32.25 L76.9 12.95 Q77.3 -0.1 76.05 -1.1 74.65 -2.15 70.35 -1.95 L68.5 -2.05 67.9 -2.3 66.65 -2.85 63.95 -3.4 Q61.6 -2.3 59.1 -1.7 L58.5 -1.6 48.05 -2.45 37.25 -3.85 29.75 -4.95 Q27.6 -4.05 25.5 -3.8 L17.7 -3.05 Q14.35 -2.8 11.35 -1.65 9.1 -0.8 7.15 -2.05 5.9 -2.85 4.7 -3.8 L2.75 -3.4 -3.1 -3.25 -3.8 -3.5 -4.7 -3.9 M83.35 76.4 L85.5 76.8 83.8 76.55 83.35 76.4" fill="#cdae4f" fill-rule="evenodd" stroke="none"/>
    <path d="M-4.8 -3.85 Q-6.25 -3.75 -7.25 -4.5 -7.5 -1.6 -7.25 1.35 L-7.35 4.5 -7.5 7.15 Q-7.35 11.8 -7.8 16.3 -8.3 20.25 -7.5 24.15 -6.8 27.8 -6.8 31.5 -6.8 34.25 -7.55 36.85 -7.9 38.1 -7.75 39.5 -7.55 41.1 -6.85 42.65 -5.7 45.05 -6.85 47.45 -7.5 48.8 -6.95 50.15 -6.1 52.1 -7.2 54.05 L-7.2 54.15 -6.95 55.6 Q-5.55 57.55 -6.6 59.35 L-7.05 63.1 Q-7.6 65.7 -7.4 66.7 L-6.95 67.95 Q-6.65 68.2 -6.6 70.95 L-6.65 73.0 4.7 73.7 Q8.25 74.2 11.25 73.0 12.85 72.35 14.3 73.25 20.2 77.05 28.7 75.85 L30.2 75.8 36.9 75.25 Q44.2 73.6 52.05 73.75 L63.05 73.65 72.5 74.0 Q79.3 74.7 85.65 74.3 83.75 65.0 83.05 55.4 82.7 50.7 82.8 45.9 82.8 42.9 81.6 40.1 80.95 38.35 80.8 36.45 80.45 30.8 83.0 25.6 83.45 24.75 83.15 23.85 81.1 16.6 82.5 9.3 L82.65 6.65 Q82.5 4.5 83.05 2.5 82.15 1.6 82.4 0.05 L82.3 -2.9 82.25 -4.0 72.2 -4.85 71.45 -4.85 52.6 -5.45 45.85 -5.85 Q34.8 -5.5 27.9 -5.8 L18.45 -5.25 14.65 -5.4 Q13.35 -6.45 7.25 -6.6 1.2 -6.8 -2.4 -5.8 -6.05 -4.75 -4.7 -3.9 L-4.9 -3.95 -4.8 -3.85 M83.35 76.4 L83.2 76.4 82.05 76.15 78.9 75.7 Q66.2 75.2 53.5 75.45 L48.9 75.95 37.4 77.35 32.1 77.7 29.25 77.6 29.05 77.6 24.2 77.0 14.1 75.6 -6.85 74.65 -8.1 74.7 -9.2 74.7 -9.1 74.3 -9.05 74.2 -9.05 74.0 -8.55 69.35 -8.55 69.3 -8.7 67.35 -9.25 58.75 -9.25 58.65 -9.25 58.35 -9.25 57.0 -9.3 52.5 -9.3 52.1 Q-8.75 51.25 -8.7 50.05 -8.5 48.45 -9.3 47.5 L-9.3 46.85 -8.55 44.3 Q-7.9 41.7 -9.2 39.9 L-8.85 32.9 -8.7 27.45 -8.7 27.2 -8.7 25.0 -8.75 23.15 -8.75 23.1 Q-8.3 19.35 -9.1 14.35 -9.45 7.95 -10.05 1.6 L-10.05 1.55 -10.3 -0.45 -10.35 -2.0 Q-10.4 -4.45 -9.85 -6.85 L-9.75 -7.35 Q-6.2 -4.95 -1.8 -6.65 L0.25 -7.3 1.55 -7.65 6.3 -8.05 10.55 -7.35 11.55 -7.1 17.8 -6.65 Q30.15 -7.5 42.5 -7.1 49.65 -6.9 56.85 -7.4 L77.3 -6.2 78.85 -6.65 79.85 -6.45 Q82.05 -5.8 84.15 -5.9 L84.55 -5.9 84.55 -3.9 84.85 -1.05 84.9 -0.55 Q84.1 1.35 84.1 3.5 84.15 7.45 83.2 11.3 L83.2 11.45 83.05 11.95 Q81.95 16.2 83.35 20.3 L83.6 21.25 84.5 24.8 84.4 28.45 84.0 29.0 Q81.0 33.35 82.05 38.65 L83.9 49.85 84.7 55.5 Q85.1 66.6 86.0 75.9 L85.5 76.05 85.45 76.05 Q85.95 76.5 85.8 76.7 L85.5 76.8 83.35 76.4" fill="#b8802a" fill-rule="evenodd" stroke="none"/>
    <path d="M12.75 51.55 Q26.05 52.55 38.5 49.0 50.0 51.9 57.05 51.7 64.05 51.5 64.2 51.7 L64.3 52.1 64.15 52.45 63.9 52.6 12.75 52.6 12.4 52.45 12.3 52.1 12.4 51.7 Q12.6 51.55 12.75 51.55" fill="#8e632d" fill-rule="evenodd" stroke="none"/>
  </g>
</svg>
