<?xml version="1.0" encoding="UTF-8" standalone="no"?>
<svg xmlns:ffdec="https://www.free-decompiler.com/flash" xmlns:xlink="http://www.w3.org/1999/xlink" ffdec:objectType="shape" height="232.85px" width="214.7px" xmlns="http://www.w3.org/2000/svg">
  <g transform="matrix(1.0, 0.0, 0.0, 1.0, 2.4, -3.55)">
    <path d="M211.85 10.7 Q211.75 13.85 210.5 10.2 210.8 9.95 211.25 9.95 211.7 9.95 211.75 10.15 L211.85 10.7 M209.4 9.45 Q210.0 17.5 209.85 18.25 208.2 25.5 208.2 73.15 208.2 88.2 208.7 90.95 L209.15 95.35 208.7 104.0 Q208.25 110.15 208.25 113.6 208.25 117.25 208.6 126.2 L209.1 138.9 209.8 158.8 210.2 174.9 Q210.2 181.7 208.3 204.9 206.5 227.2 206.65 234.9 L204.9 234.7 193.3 233.4 172.0 234.25 151.4 235.15 147.05 234.4 144.4 233.65 Q143.35 233.65 141.15 234.4 L138.6 235.2 Q137.15 235.2 132.35 234.0 L127.05 232.75 124.4 233.75 Q121.7 234.75 120.7 234.75 93.1 234.75 83.2 234.1 L71.7 233.45 64.2 233.95 41.65 235.5 27.65 236.4 19.15 231.25 Q14.6 228.5 12.8 227.85 10.95 227.2 7.7 222.6 4.55 218.0 4.55 212.75 4.6 207.5 3.35 207.0 2.2 206.5 2.65 204.75 3.1 203.0 3.15 193.8 L3.2 177.75 Q3.2 174.45 0.4 127.75 L-2.4 79.4 Q-1.3 30.75 -0.95 28.9 -0.5 26.3 -0.5 23.35 -0.5 22.85 -0.85 20.8 L-1.2 18.3 -1.15 11.55 1.35 11.7 12.65 10.8 37.05 12.65 67.6 14.5 80.1 13.9 88.35 13.35 95.7 14.05 118.55 14.85 161.9 12.15 209.4 9.45" fill="#150d01" fill-opacity="0.34117648" fill-rule="evenodd" stroke="none"/>
    <path d="M210.35 4.8 L210.35 5.0 Q211.5 3.8 212.05 4.2 L212.3 4.8 Q211.65 7.55 211.3 10.15 L211.3 10.5 210.65 13.3 Q209.6 17.9 209.5 20.85 208.3 51.4 208.95 81.65 210.25 87.9 209.3 95.85 208.45 103.95 208.95 112.9 209.45 122.0 210.4 157.05 L210.7 166.8 Q210.0 175.1 209.5 185.95 208.4 210.05 207.7 216.1 207.0 222.35 207.05 223.55 L207.15 226.0 206.2 225.95 205.9 225.8 205.45 225.8 194.1 224.45 193.9 224.45 189.2 224.85 168.3 226.05 168.05 226.05 167.35 226.05 163.95 226.05 153.1 226.25 152.1 226.25 Q150.0 225.05 147.05 224.85 143.15 224.35 140.9 226.25 L139.2 226.25 133.05 224.45 Q126.7 222.95 122.25 225.85 L105.15 225.0 Q98.5 224.75 91.85 224.75 L91.2 224.75 85.85 224.75 81.35 224.95 81.2 224.95 Q71.95 223.85 59.75 225.8 L31.95 227.45 26.65 221.45 Q27.25 221.45 28.95 222.95 30.7 224.45 34.15 224.8 37.6 225.2 45.5 223.4 53.45 221.65 64.5 222.8 74.25 223.85 83.65 222.0 92.6 220.5 101.65 220.5 108.4 220.5 114.75 222.1 L121.3 222.7 Q125.2 222.1 128.95 220.65 134.75 218.15 140.65 220.65 143.95 222.1 147.25 220.9 152.05 219.0 156.75 221.4 L157.05 221.4 160.55 220.9 Q165.3 217.8 169.65 220.1 L178.85 221.2 Q185.2 222.45 187.6 221.95 190.1 221.4 190.7 220.9 191.3 220.25 197.95 220.15 L202.95 220.4 Q202.65 207.75 204.65 194.8 205.85 186.65 202.95 179.8 201.35 176.0 203.15 176.2 205.0 176.5 205.1 161.2 205.25 145.8 207.15 137.1 209.2 128.6 206.7 116.1 204.25 103.6 204.75 85.0 204.9 71.85 204.4 58.95 203.85 47.65 205.3 36.3 206.65 23.3 206.25 10.75 179.1 9.15 158.05 10.35 146.15 11.15 133.95 11.0 126.45 10.95 119.3 13.6 114.9 15.25 110.05 15.5 95.75 16.4 73.95 12.9 L67.45 11.8 Q54.3 13.6 40.85 10.9 L34.05 10.5 Q28.6 10.85 23.4 9.4 21.2 11.6 17.2 11.1 13.5 10.75 9.7 11.2 L6.9 11.35 Q7.4 24.85 5.7 35.8 5.55 36.45 5.75 37.55 8.7 60.55 7.3 74.4 6.05 86.8 6.0 102.4 9.0 102.55 9.4 104.2 9.35 106.1 5.2 109.15 8.8 123.2 7.2 140.8 6.9 156.8 9.35 162.65 11.9 168.6 9.35 171.55 6.85 174.5 6.8 191.1 6.8 195.6 6.95 199.55 L3.9 195.35 3.45 190.5 Q3.55 185.95 4.9 180.8 L5.4 178.45 Q6.65 171.55 5.95 164.15 2.8 136.0 2.6 107.35 3.95 106.8 4.05 105.7 5.9 105.0 6.3 104.25 5.0 103.5 2.55 103.35 2.3 88.05 0.6 72.55 0.8 48.65 1.65 24.6 2.65 21.05 2.5 17.25 L2.2 13.95 1.8 12.3 Q2.1 9.45 1.9 6.7 L1.85 5.65 Q4.25 5.9 6.95 5.7 L14.2 5.15 15.5 4.9 Q20.4 6.95 33.25 7.05 L46.0 7.6 54.8 8.05 Q70.1 8.85 71.2 8.45 L73.65 7.9 83.95 8.05 92.85 7.8 112.15 8.75 Q128.75 9.15 139.85 8.35 L158.3 6.35 210.0 3.55 210.35 4.8" fill="#b8802a" fill-rule="evenodd" stroke="none"/>
    <path d="M26.65 221.45 L24.8 219.55 21.45 216.05 31.75 216.75 Q39.85 217.65 45.45 211.9 63.5 218.4 74.7 214.45 86.0 210.5 113.25 214.45 140.5 218.5 154.95 214.0 169.35 209.35 177.3 215.8 179.45 217.35 195.0 214.75 195.9 213.5 196.6 211.7 196.85 210.0 196.15 188.75 195.45 167.25 198.9 159.8 202.5 152.25 202.5 132.0 202.5 111.7 198.2 92.85 193.65 74.05 199.75 41.05 205.55 7.6 194.7 15.35 L166.0 17.05 Q143.05 17.65 142.0 23.9 L139.8 30.25 Q139.75 29.55 128.15 23.7 115.45 17.4 98.4 20.4 81.3 23.35 43.8 19.35 6.3 15.3 9.25 22.55 12.25 29.8 13.25 40.2 13.35 42.55 13.1 44.65 L12.5 46.1 Q11.6 47.55 11.25 49.15 10.3 52.4 10.05 55.6 13.05 61.15 14.85 67.35 L15.15 68.8 Q15.6 81.55 13.85 93.6 11.95 105.95 11.3 118.95 10.4 128.05 9.15 136.65 11.55 141.5 12.35 146.4 13.95 155.2 14.95 164.4 15.8 172.15 18.85 179.05 21.2 184.2 18.25 188.65 L14.1 194.35 Q14.4 196.85 15.3 198.7 17.8 204.5 16.35 210.95 L12.7 207.25 Q11.75 206.2 6.95 199.55 6.8 195.6 6.8 191.1 6.85 174.5 9.35 171.55 11.9 168.6 9.35 162.65 6.9 156.8 7.2 140.8 8.8 123.2 5.2 109.15 9.35 106.1 9.4 104.2 9.0 102.55 6.0 102.4 6.05 86.8 7.3 74.4 8.7 60.55 5.75 37.55 5.55 36.45 5.7 35.8 7.4 24.85 6.9 11.35 L9.7 11.2 Q13.5 10.75 17.2 11.1 21.2 11.6 23.4 9.4 28.6 10.85 34.05 10.5 L40.85 10.9 Q54.3 13.6 67.45 11.8 L73.95 12.9 Q95.75 16.4 110.05 15.5 114.9 15.25 119.3 13.6 126.45 10.95 133.95 11.0 146.15 11.15 158.05 10.35 179.1 9.15 206.25 10.75 206.65 23.3 205.3 36.3 203.85 47.65 204.4 58.95 204.9 71.85 204.75 85.0 204.25 103.6 206.7 116.1 209.2 128.6 207.15 137.1 205.25 145.8 205.1 161.2 205.0 176.5 203.15 176.2 201.35 176.0 202.95 179.8 205.85 186.65 204.65 194.8 202.65 207.75 202.95 220.4 L197.95 220.15 Q191.3 220.25 190.7 220.9 190.1 221.4 187.6 221.95 185.2 222.45 178.85 221.2 L169.65 220.1 Q165.3 217.8 160.55 220.9 L157.05 221.4 156.75 221.4 Q152.05 219.0 147.25 220.9 143.95 222.1 140.65 220.65 134.75 218.15 128.95 220.65 125.2 222.1 121.3 222.7 L114.75 222.1 Q108.4 220.5 101.65 220.5 92.6 220.5 83.65 222.0 74.25 223.85 64.5 222.8 53.45 221.65 45.5 223.4 37.6 225.2 34.15 224.8 30.7 224.45 28.95 222.95 27.25 221.45 26.65 221.45" fill="#cdae4f" fill-rule="evenodd" stroke="none"/>
    <path d="M210.0 3.55 L210.35 3.55 210.35 4.8 210.0 3.55 M21.45 216.05 L16.35 210.95 Q17.8 204.5 15.3 198.7 14.4 196.85 14.1 194.35 L18.25 188.65 Q21.2 184.2 18.85 179.05 15.8 172.15 14.95 164.4 13.95 155.2 12.35 146.4 11.55 141.5 9.15 136.65 10.4 128.05 11.3 118.95 11.95 105.95 13.85 93.6 15.6 81.55 15.15 68.8 L14.85 67.35 Q13.05 61.15 10.05 55.6 10.3 52.4 11.25 49.15 11.6 47.55 12.5 46.1 L13.1 44.65 Q13.35 42.55 13.25 40.2 12.25 29.8 9.25 22.55 6.3 15.3 43.8 19.35 81.3 23.35 98.4 20.4 115.45 17.4 128.15 23.7 139.75 29.55 139.8 30.25 L142.0 23.9 Q143.05 17.65 166.0 17.05 L194.7 15.35 Q205.55 7.6 199.75 41.05 193.65 74.05 198.2 92.85 202.5 111.7 202.5 132.0 202.5 152.25 198.9 159.8 195.45 167.25 196.15 188.75 196.85 210.0 196.6 211.7 195.9 213.5 195.0 214.75 179.45 217.35 177.3 215.8 169.35 209.35 154.95 214.0 140.5 218.5 113.25 214.45 86.0 210.5 74.7 214.45 63.5 218.4 45.45 211.9 39.85 217.65 31.75 216.75 L21.45 216.05" fill="#dec884" fill-rule="evenodd" stroke="none"/>
    <path d="M26.45 194.9 Q23.35 199.3 31.65 226.35 8.1 220.15 3.85 197.8 6.55 198.1 5.35 194.95 L26.45 194.9" fill="#382c05" fill-opacity="0.30980393" fill-rule="evenodd" stroke="none"/>
    <path d="M33.15 227.6 Q4.85 223.45 3.8 193.5 12.25 200.15 21.2 196.95 19.05 208.4 32.75 226.55 L33.15 227.6" fill="#cdae4f" fill-rule="evenodd" stroke="none"/>
    <path d="M13.05 197.8 L12.65 198.3 12.8 197.75 13.05 197.8 M25.6 216.6 L25.95 216.3 26.1 216.55 25.6 216.6" fill="#cdae4f" fill-rule="evenodd" stroke="none"/>
    <path d="M32.75 226.55 L33.15 227.6 Q3.85 223.3 3.55 191.55 4.6 194.2 6.2 195.2 L6.15 196.9 Q6.15 198.75 6.6 201.05 L6.55 202.7 Q6.55 209.0 9.85 213.3 11.8 215.9 14.5 217.2 16.65 219.1 19.4 220.35 L20.0 220.75 Q23.95 223.1 26.85 222.75 28.45 222.55 29.25 221.6 L32.75 226.55" fill="#a36d1b" fill-rule="evenodd" stroke="none"/>
    <path d="M66.45 108.65 Q72.2 109.1 72.75 116.05 80.8 114.45 83.3 119.55 84.55 122.15 84.15 125.35 84.15 129.85 83.4 131.45 81.85 134.9 76.1 136.15 70.6 137.4 68.45 139.35 67.25 140.45 66.45 142.7 65.85 144.6 64.45 145.3 62.3 146.35 56.55 146.35 51.4 146.35 50.95 142.45 L50.9 139.35 Q50.85 137.6 50.15 136.95 49.35 136.1 44.5 135.0 39.7 133.85 38.95 133.15 L36.6 130.7 Q36.45 130.4 36.45 128.65 36.45 126.15 41.9 121.05 47.4 115.95 54.0 112.35 61.55 108.25 66.45 108.65" fill="#b8802a" fill-rule="evenodd" stroke="none"/>
    <path d="M29.4 46.5 Q28.15 41.95 28.15 41.1 28.15 34.5 31.4 31.05 34.2 28.1 39.0 27.9 43.3 27.8 47.7 29.95 52.1 32.1 54.45 35.45 58.75 40.45 62.15 46.6 66.2 53.95 66.2 58.15 66.2 62.25 62.15 67.7 58.1 73.1 48.9 73.2 39.65 73.35 33.1 57.55 31.0 52.5 29.4 46.5 M31.55 49.65 Q33.35 54.35 35.45 58.35 41.9 70.8 47.9 70.8 56.8 70.8 61.3 65.15 64.15 61.5 64.15 58.4 64.15 48.5 51.2 36.3 39.65 25.4 33.85 33.15 31.9 35.7 30.85 40.15 30.1 43.25 30.1 45.4 30.1 45.9 31.55 49.65" fill="#85550c" fill-rule="evenodd" stroke="none"/>
    <path d="M28.15 18.7 Q28.15 23.4 31.8 25.65 34.0 26.95 34.25 27.25 35.4 28.3 35.4 29.9 35.4 31.6 34.05 31.6 33.65 31.6 31.3 29.3 L28.5 26.45 Q26.55 24.3 26.55 21.4 26.55 20.45 26.85 18.95 27.25 17.05 27.8 16.65 28.15 17.45 28.15 18.7" fill="#85550c" fill-rule="evenodd" stroke="none"/>
    <path d="M36.9 53.3 Q35.2 53.3 34.65 52.75 L34.45 52.2 Q34.45 51.8 39.25 49.55 L44.0 47.35 Q44.0 46.15 38.45 38.95 32.85 31.75 32.85 31.35 32.85 28.25 39.6 36.85 46.3 45.5 46.3 47.7 L41.8 50.6 Q37.3 53.3 36.9 53.3" fill="#85550c" fill-rule="evenodd" stroke="none"/>
    <path d="M34.45 32.2 L33.6 33.9 32.55 35.7 33.75 34.75 Q34.6 34.15 34.95 34.15 35.7 34.15 35.55 35.05 L34.5 36.9 33.2 38.75 34.75 37.35 Q36.0 36.2 36.6 36.2 37.2 36.2 37.2 36.8 L34.55 40.75 34.55 40.85 36.15 39.25 Q37.45 38.1 38.15 38.1 38.8 38.1 38.7 38.8 38.7 39.4 37.85 40.45 L36.5 42.0 37.45 41.4 Q38.25 40.85 38.5 40.85 39.15 40.85 39.15 41.5 L38.8 42.35 38.15 43.3 38.2 43.35 39.1 42.5 Q39.75 41.95 40.25 41.95 41.05 41.95 40.9 42.8 L40.8 43.35 40.5 43.95 41.1 43.65 Q41.6 43.3 41.85 43.3 42.4 43.3 42.35 43.8 L42.05 44.55 41.4 45.4 41.95 45.3 Q42.55 45.3 42.55 45.7 L42.4 46.3 Q43.15 46.25 43.15 46.9 40.25 50.8 39.6 50.8 38.7 50.8 38.6 50.4 L38.7 49.9 38.7 49.8 38.4 50.25 37.4 50.5 Q36.8 50.5 36.8 49.8 L37.15 49.0 37.15 48.95 35.55 50.85 Q34.35 52.25 33.9 52.25 L33.3 51.9 33.25 51.6 Q33.25 51.1 35.55 48.25 L38.3 44.9 38.3 44.85 35.5 47.9 Q33.35 50.25 32.85 50.25 32.25 50.25 32.1 49.8 L32.1 49.4 32.5 48.35 33.3 47.2 32.65 47.85 Q31.95 48.55 31.45 48.55 30.95 48.55 30.85 48.25 L30.85 47.9 Q30.85 47.4 32.85 44.75 L34.9 42.05 33.45 43.65 Q32.35 44.9 31.8 44.9 31.2 44.9 31.05 44.6 L31.0 44.15 Q31.0 43.65 32.7 41.2 31.55 42.75 30.7 42.75 30.2 42.75 30.1 42.4 L30.05 42.05 Q30.05 41.15 31.65 38.95 L33.65 36.25 31.75 38.35 Q30.35 39.95 29.9 39.95 29.5 39.95 29.45 39.7 L29.4 39.4 Q29.4 38.95 31.1 36.05 33.05 32.7 34.35 31.9 L34.45 32.2 M37.65 43.8 L37.6 43.85 37.8 43.75 37.95 43.55 37.65 43.8" fill="#85550c" fill-rule="evenodd" stroke="none"/>
  </g>
</svg>
