<?xml version="1.0" encoding="UTF-8" standalone="no"?>
<svg xmlns:ffdec="https://www.free-decompiler.com/flash" xmlns:xlink="http://www.w3.org/1999/xlink" ffdec:objectType="shape" height="65.55px" width="114.3px" xmlns="http://www.w3.org/2000/svg">
  <g transform="matrix(1.0, 0.0, 0.0, 1.0, -59.4, -73.15)">
    <path d="M153.65 110.75 Q157.3 109.95 158.8 113.05 162.0 118.45 164.25 119.0 L168.3 118.6 Q171.65 118.6 172.8 122.0 173.35 123.75 173.2 125.55 173.2 127.1 170.1 128.2 L172.5 131.1 Q173.7 132.35 173.7 133.55 173.7 134.75 171.45 136.6 168.95 138.65 166.55 138.65 164.8 138.65 163.85 137.1 162.9 135.55 161.4 135.55 160.05 135.55 158.4 136.3 L152.1 138.35 Q147.45 139.65 142.2 136.4 136.95 133.1 139.15 130.2 141.35 127.2 144.2 124.15 L147.2 121.05 Q147.75 120.15 147.9 117.75 148.1 115.3 148.75 114.15 150.2 111.5 153.65 110.75" fill="#b8802a" fill-rule="evenodd" stroke="none"/>
    <path d="M134.75 81.9 Q135.35 81.3 136.9 80.45 138.45 79.55 140.95 74.95 143.35 70.4 150.4 77.45 156.2 77.5 157.4 78.95 L159.55 81.5 Q160.45 82.65 163.05 83.35 165.05 83.95 167.9 85.65 170.8 87.3 170.8 89.15 170.8 91.05 167.75 92.0 164.65 93.05 164.9 96.95 165.05 100.25 164.35 102.15 162.75 106.55 157.2 106.55 155.95 106.55 155.3 106.05 L154.3 105.0 Q152.85 103.4 148.6 103.4 147.7 103.4 144.9 104.3 142.05 105.2 139.95 105.2 135.85 105.2 134.8 103.0 134.45 102.35 134.45 101.5 134.5 100.75 131.15 97.85 127.8 94.9 129.45 91.3 131.1 87.65 134.05 88.2 137.05 88.75 136.4 86.2 135.7 83.65 134.95 83.05 134.15 82.4 134.75 81.9" fill="#b8802a" fill-rule="evenodd" stroke="none"/>
    <path d="M143.35 97.35 Q141.7 97.35 141.7 95.75 L149.35 88.15 Q156.95 81.3 156.95 84.9 156.95 85.6 150.3 91.5 143.8 97.35 143.35 97.35" fill="#562907" fill-rule="evenodd" stroke="none"/>
    <path d="M148.8 88.45 Q154.25 96.1 154.25 97.55 L153.95 98.4 Q153.55 99.0 152.75 99.0 L143.35 85.95 Q143.35 80.85 148.8 88.45" fill="#562907" fill-rule="evenodd" stroke="none"/>
    <path d="M74.15 122.75 L70.5 123.95 68.05 125.15 Q67.25 125.3 67.1 124.6 66.95 123.75 70.65 122.25 74.4 120.75 74.65 122.05 74.75 122.55 74.15 122.75" fill="#562907" fill-rule="evenodd" stroke="none"/>
    <path d="M80.4 120.2 L77.25 121.35 75.65 121.25 75.5 121.0 Q75.4 120.55 78.8 119.15 82.15 117.65 82.35 118.7 82.5 119.25 80.4 120.2" fill="#562907" fill-rule="evenodd" stroke="none"/>
    <path d="M83.85 118.8 Q83.7 118.1 84.7 117.95 L88.45 116.45 Q90.85 115.4 91.05 116.25 91.15 116.85 88.8 118.0 86.6 119.1 84.95 119.4 84.0 119.55 83.85 118.8" fill="#562907" fill-rule="evenodd" stroke="none"/>
    <path d="M98.5 113.65 Q98.5 114.0 96.55 114.95 94.55 115.95 93.05 116.05 92.4 116.1 92.15 115.75 L92.05 115.45 94.25 114.35 Q96.25 113.4 97.35 113.25 98.45 113.0 98.5 113.65" fill="#562907" fill-rule="evenodd" stroke="none"/>
    <path d="M108.65 110.4 L108.7 110.8 Q108.7 111.4 106.25 112.35 L103.4 113.2 Q102.95 113.25 102.75 112.95 L102.65 112.6 Q102.65 112.05 104.8 111.3 L107.8 110.35 108.65 110.4" fill="#562907" fill-rule="evenodd" stroke="none"/>
    <path d="M110.2 109.85 Q110.1 109.15 111.1 109.0 L114.9 107.7 117.5 107.65 Q117.55 108.25 115.2 109.3 112.95 110.25 111.25 110.5 110.3 110.65 110.2 109.85" fill="#562907" fill-rule="evenodd" stroke="none"/>
    <path d="M119.95 106.25 Q119.85 105.55 120.85 105.4 L124.65 104.1 127.25 104.05 Q127.3 104.65 124.95 105.7 122.7 106.65 121.0 106.9 120.05 107.05 119.95 106.25" fill="#562907" fill-rule="evenodd" stroke="none"/>
    <path d="M125.2 108.3 Q124.2 108.5 124.0 107.4 123.85 106.75 124.55 105.85 L126.05 103.8 123.55 102.85 Q122.25 102.4 122.1 101.6 121.7 99.35 125.1 101.0 126.8 101.8 128.6 103.1 128.65 103.4 127.15 105.8 125.65 108.2 125.2 108.3" fill="#562907" fill-rule="evenodd" stroke="none"/>
    <path d="M61.8 128.05 L64.0 128.1 Q64.9 127.9 65.15 126.95 L65.1 125.95 Q64.75 123.95 62.65 124.2 60.6 124.45 61.1 127.05 61.25 127.8 61.8 128.05 M59.55 127.3 Q58.7 122.7 62.3 122.55 63.65 122.5 64.85 123.3 66.2 124.25 66.45 125.65 L66.4 127.5 Q66.1 129.1 65.0 129.3 61.95 129.85 60.5 128.75 59.75 128.15 59.55 127.3" fill="#562907" fill-rule="evenodd" stroke="none"/>
  </g>
</svg>
