<?xml version="1.0" encoding="UTF-8" standalone="no"?>
<svg xmlns:ffdec="https://www.free-decompiler.com/flash" xmlns:xlink="http://www.w3.org/1999/xlink" ffdec:objectType="shape" height="74.85px" width="150.05px" xmlns="http://www.w3.org/2000/svg">
  <g transform="matrix(1.0, 0.0, 0.0, 1.0, 9.25, 5.4)">
    <path d="M119.0 1.15 L140.1 -2.2 140.2 -2.25 140.15 -2.2 Q136.45 10.05 136.75 10.6 136.45 11.8 135.2 13.7 135.0 13.75 134.8 14.5 133.55 16.25 133.95 18.75 135.15 26.2 135.6 34.75 134.6 35.0 134.65 35.35 133.2 35.65 133.05 36.05 L135.7 35.85 Q135.7 39.9 137.7 43.55 137.85 49.15 139.3 56.95 138.65 58.25 139.3 59.55 L139.75 60.8 140.2 61.3 Q140.25 62.35 140.65 63.45 140.45 63.5 140.8 63.9 138.85 63.8 137.2 64.65 L132.2 65.9 Q131.55 65.55 131.25 66.1 127.3 65.75 118.45 67.2 L109.3 67.95 102.95 68.2 91.15 68.8 89.35 69.0 81.95 69.2 81.0 69.25 80.25 66.0 Q80.4 68.4 79.95 69.3 L75.55 69.45 61.9 69.05 42.35 68.75 Q34.15 68.35 29.1 68.55 L-7.45 64.95 -7.7 64.75 Q-8.0 64.45 -7.6 64.4 L-7.5 64.35 -7.5 64.3 -8.75 64.35 -8.8 64.1 Q-8.15 63.1 -7.15 62.65 L-7.1 62.45 Q-6.6 61.85 -6.2 61.75 L-4.45 59.65 Q-1.9 50.5 -5.3 42.05 -6.8 39.95 -6.5 37.9 -6.4 35.5 -6.85 32.9 -7.3 31.3 -7.1 26.9 L-6.85 26.9 -3.35 26.85 -6.75 26.0 Q-6.9 25.85 -7.1 25.85 L-6.6 19.5 -6.45 16.45 -5.1 10.75 Q-4.45 3.35 -4.7 1.85 -4.65 -0.15 -5.0 -0.3 L-5.3 -1.0 -4.65 -0.85 -4.4 -0.85 -4.1 -0.8 Q0.05 -0.25 4.35 1.05 L7.6 1.35 22.3 3.1 Q22.35 2.9 22.5 3.1 L23.05 3.15 25.4 3.45 33.05 4.15 33.8 4.2 37.4 5.0 41.7 4.95 42.9 5.0 Q45.0 5.05 47.3 5.8 51.65 6.25 54.85 5.75 L66.95 6.2 76.4 6.2 76.8 6.2 80.5 6.05 83.8 5.75 83.9 5.75 99.0 4.2 119.0 1.15" fill="#150d01" fill-opacity="0.34117648" fill-rule="evenodd" stroke="none"/>
    <path d="M-8.05 61.25 L-7.95 61.2 -7.95 61.15 -9.2 61.2 -9.25 60.95 Q-8.6 59.95 -7.6 59.5 L-7.55 59.3 -6.65 58.6 -4.9 56.5 Q-2.35 47.35 -5.75 38.9 -7.25 36.8 -6.95 34.75 -6.85 32.35 -7.3 29.75 -7.75 28.15 -7.55 23.75 L-7.3 23.75 -3.8 23.7 -7.2 22.85 Q-7.35 22.7 -7.55 22.7 L-7.05 16.35 -6.9 13.3 -5.55 7.6 Q-4.9 0.2 -5.15 -1.3 -5.1 -3.3 -5.45 -3.45 L-5.75 -4.15 -5.1 -4.0 -4.85 -4.0 -4.55 -3.95 Q-0.4 -3.4 3.9 -2.1 L7.15 -1.8 21.85 -0.05 Q21.9 -0.25 22.05 -0.05 L22.6 0.0 24.95 0.3 32.6 1.0 33.35 1.05 36.95 1.85 41.25 1.8 42.45 1.85 Q44.55 1.9 46.85 2.65 51.2 3.1 54.4 2.6 L66.5 3.05 75.95 3.05 76.35 3.05 80.05 2.9 83.35 2.6 83.45 2.6 98.55 1.05 Q108.1 -0.1 118.55 -2.0 119.05 -1.8 139.65 -5.35 L139.75 -5.4 139.7 -5.35 Q136.0 6.9 136.3 7.45 136.0 8.65 134.75 10.55 L134.35 11.35 Q133.1 13.1 133.5 15.6 134.7 23.05 135.15 31.6 134.15 31.85 134.2 32.2 132.75 32.5 132.6 32.9 L135.25 32.7 Q135.25 36.75 137.25 40.4 137.4 46.0 138.85 53.8 138.2 55.1 138.85 56.4 L139.3 57.65 139.75 58.15 Q139.8 59.2 140.2 60.3 140.0 60.35 140.35 60.75 138.4 60.65 136.75 61.5 134.1 62.05 131.75 62.75 131.1 62.4 130.8 62.95 126.85 62.6 118.0 64.05 L108.85 64.8 102.5 65.05 90.7 65.65 88.9 65.85 81.5 66.05 80.55 66.1 79.8 62.85 Q79.95 65.25 79.5 66.15 L75.1 66.3 61.45 65.9 41.9 65.6 Q33.7 65.2 28.65 65.4 L-7.9 61.8 -8.05 61.25 M121.85 -0.55 L120.35 -0.7 116.75 -0.9 Q114.05 -0.8 108.55 0.7 102.9 1.85 95.0 2.4 L81.55 3.6 69.05 4.45 59.75 3.9 55.2 3.65 49.85 3.95 41.75 3.45 Q39.2 2.6 37.0 3.05 L30.3 2.15 30.05 2.1 27.7 2.0 Q24.25 2.35 21.35 1.5 L14.8 0.35 8.5 -0.75 6.45 -0.7 1.4 -1.4 -2.15 -2.0 Q-0.9 1.65 -2.25 5.45 -3.2 7.7 -1.15 10.25 -0.4 11.4 -1.4 11.35 -2.85 10.8 -3.3 15.7 -0.65 17.6 -3.25 20.45 -5.1 22.3 -1.15 24.4 -4.75 24.55 -4.15 25.25 -5.05 29.9 -5.7 29.2 -3.4 32.6 -2.8 37.1 -2.2 41.35 -1.25 45.25 L1.15 45.2 -1.25 52.3 Q-2.1 54.45 -0.45 58.1 -3.4 58.25 -4.0 59.85 14.35 62.95 26.25 63.25 L46.2 63.95 Q51.2 64.45 55.6 64.1 L63.2 63.55 Q69.8 63.35 78.8 63.7 79.35 61.95 79.55 59.4 80.2 62.05 80.75 63.35 L88.7 64.05 93.35 64.3 112.4 63.15 117.25 62.75 124.85 62.15 Q126.3 60.95 129.2 60.8 L134.4 59.75 Q135.15 59.15 136.25 59.3 134.8 54.1 135.35 50.9 L135.15 50.45 Q131.8 44.05 132.5 40.75 132.85 37.4 132.8 33.35 L130.55 33.25 Q130.2 32.5 133.4 31.45 130.6 27.6 132.15 22.4 132.35 17.7 131.05 16.3 129.4 14.65 131.25 13.7 132.95 12.6 134.05 7.55 134.2 6.1 135.05 2.25 136.05 -2.1 133.5 -1.45 131.75 -0.6 127.0 -0.35 L121.85 -0.55" fill="#b8802a" fill-rule="evenodd" stroke="none"/>
    <path d="M107.6 6.55 Q95.6 3.8 87.8 5.5 79.75 7.25 60.9 6.15 41.85 8.95 32.0 6.9 21.95 4.85 16.1 2.1 14.5 1.2 3.85 0.6 3.2 0.6 2.9 1.35 L3.55 8.4 Q3.6 9.15 1.75 9.0 3.25 15.1 0.95 16.9 -0.2 17.55 0.7 19.15 0.1 22.05 0.6 24.35 -3.05 35.85 0.85 38.85 4.65 41.8 4.8 48.9 2.75 50.4 2.55 51.5 -2.1 56.55 2.95 57.35 6.4 59.15 21.1 60.2 L39.5 60.9 51.35 62.05 Q59.45 63.05 71.8 60.5 74.5 59.9 77.25 60.95 78.4 58.55 79.6 58.1 84.35 62.65 97.85 60.8 101.45 58.55 105.6 58.45 109.65 58.45 114.8 60.3 136.5 56.55 133.95 54.95 131.15 53.5 130.0 50.7 129.7 49.85 129.75 49.4 129.85 48.95 130.1 48.9 L130.8 47.8 131.4 45.9 Q128.75 44.7 128.8 43.65 128.8 42.45 130.0 40.1 131.15 37.55 127.6 36.65 128.55 33.1 129.1 29.3 129.65 26.3 130.7 23.85 128.8 22.5 128.65 21.3 127.55 18.85 127.3 16.35 130.3 10.45 128.3 10.65 127.55 8.8 130.25 6.0 130.15 4.7 129.7 3.55 128.95 2.25 128.55 2.2 129.4 -0.4 125.2 0.85 120.3 3.65 117.95 1.75 112.1 1.9 107.6 6.55 M121.85 -0.55 L127.0 -0.35 Q131.75 -0.6 133.5 -1.45 136.05 -2.1 135.05 2.25 134.2 6.1 134.05 7.55 132.95 12.6 131.25 13.7 129.4 14.65 131.05 16.3 132.35 17.7 132.15 22.4 130.6 27.6 133.4 31.45 130.2 32.5 130.55 33.25 L132.8 33.35 Q132.85 37.4 132.5 40.75 131.8 44.05 135.15 50.45 L135.35 50.9 Q134.8 54.1 136.25 59.3 135.15 59.15 134.4 59.75 L129.2 60.8 Q126.3 60.95 124.85 62.15 L117.25 62.75 112.4 63.15 93.35 64.3 88.7 64.05 80.75 63.35 Q80.2 62.05 79.55 59.4 79.35 61.95 78.8 63.7 69.8 63.35 63.2 63.55 L55.6 64.1 Q51.2 64.45 46.2 63.95 L26.25 63.25 Q14.35 62.95 -4.0 59.85 -3.4 58.25 -0.45 58.1 -2.1 54.45 -1.25 52.3 L1.15 45.2 -1.25 45.25 Q-2.2 41.35 -2.8 37.1 -3.4 32.6 -5.7 29.2 -5.05 29.9 -4.15 25.25 -4.75 24.55 -1.15 24.4 -5.1 22.3 -3.25 20.45 -0.65 17.6 -3.3 15.7 -2.85 10.8 -1.4 11.35 -0.4 11.4 -1.15 10.25 -3.2 7.7 -2.25 5.45 -0.9 1.65 -2.15 -2.0 L1.4 -1.4 6.45 -0.7 8.5 -0.75 14.8 0.35 21.35 1.5 Q24.25 2.35 27.7 2.0 L30.05 2.1 30.3 2.15 37.0 3.05 Q39.2 2.6 41.75 3.45 L49.85 3.95 55.2 3.65 59.75 3.9 69.05 4.45 81.55 3.6 95.0 2.4 Q102.9 1.85 108.55 0.7 114.05 -0.8 116.75 -0.9 L120.35 -0.7 121.85 -0.55 M124.95 11.4 L125.1 12.35 Q123.75 11.45 124.95 11.4 M1.55 22.85 L1.25 20.1 2.15 21.15 Q1.6 21.75 1.55 22.85" fill="#cdae4f" fill-rule="evenodd" stroke="none"/>
    <path d="M-7.9 61.8 L-8.15 61.6 Q-8.45 61.3 -8.05 61.25 L-7.9 61.8 M107.6 6.55 Q112.1 1.9 117.95 1.75 120.3 3.65 125.2 0.85 129.4 -0.4 128.55 2.2 128.95 2.25 129.7 3.55 130.15 4.7 130.25 6.0 127.55 8.8 128.3 10.65 130.3 10.45 127.3 16.35 127.55 18.85 128.65 21.3 128.8 22.5 130.7 23.85 129.65 26.3 129.1 29.3 128.55 33.1 127.6 36.65 131.15 37.55 130.0 40.1 128.8 42.45 128.8 43.65 128.75 44.7 131.4 45.9 L130.8 47.8 130.1 48.9 Q129.85 48.95 129.75 49.4 129.7 49.85 130.0 50.7 131.15 53.5 133.95 54.95 136.5 56.55 114.8 60.3 109.65 58.45 105.6 58.45 101.45 58.55 97.85 60.8 84.35 62.65 79.6 58.1 78.4 58.55 77.25 60.95 74.5 59.9 71.8 60.5 59.45 63.05 51.35 62.05 L39.5 60.9 21.1 60.2 Q6.4 59.15 2.95 57.35 -2.1 56.55 2.55 51.5 2.75 50.4 4.8 48.9 4.65 41.8 0.85 38.85 -3.05 35.85 0.6 24.35 0.1 22.05 0.7 19.15 -0.2 17.55 0.95 16.9 3.25 15.1 1.75 9.0 3.6 9.15 3.55 8.4 L2.9 1.35 Q3.2 0.6 3.85 0.6 14.5 1.2 16.1 2.1 21.95 4.85 32.0 6.9 41.85 8.95 60.9 6.15 79.75 7.25 87.8 5.5 95.6 3.8 107.6 6.55 M1.55 22.85 Q1.6 21.75 2.15 21.15 L1.25 20.1 1.55 22.85 M124.95 11.4 Q123.75 11.45 125.1 12.35 L124.95 11.4" fill="#dec884" fill-rule="evenodd" stroke="none"/>
  </g>
</svg>
