<?xml version="1.0" encoding="UTF-8" standalone="no"?>
<svg xmlns:ffdec="https://www.free-decompiler.com/flash" xmlns:xlink="http://www.w3.org/1999/xlink" ffdec:objectType="shape" height="26.6px" width="84.1px" xmlns="http://www.w3.org/2000/svg">
  <g transform="matrix(1.0, 0.0, 0.0, 1.0, -22.6, -19.95)">
    <path d="M106.7 20.05 L106.65 46.5 103.1 46.2 103.0 25.8 101.55 26.35 101.4 23.05 104.0 20.1 106.7 20.05 M90.6 20.15 L90.75 24.2 86.2 24.25 86.15 29.4 89.75 29.45 89.65 33.55 86.1 33.55 86.0 41.95 90.65 42.0 90.55 46.25 82.25 46.15 82.65 20.1 90.6 20.15 M74.45 20.15 L74.4 42.2 79.55 41.75 79.65 45.8 70.85 46.15 71.0 20.1 74.45 20.15 M68.55 24.1 L65.4 24.05 65.35 46.25 61.7 46.05 61.75 24.05 58.45 24.0 58.55 19.95 68.35 19.95 68.55 24.1 M46.8 19.95 L56.6 19.95 56.8 24.1 53.65 24.05 53.6 46.25 49.95 46.05 50.0 24.05 46.7 24.0 46.8 19.95 M42.2 45.8 L41.65 42.15 38.4 42.25 38.05 46.55 34.35 46.55 37.5 20.4 42.0 20.0 45.6 45.7 42.2 45.8 M29.85 20.8 Q32.4 21.9 32.5 26.2 32.65 30.15 30.15 32.45 32.7 34.25 32.8 38.25 32.8 44.4 29.6 45.7 28.25 46.3 26.25 46.35 L25.9 46.35 22.65 46.1 22.6 20.3 24.7 20.2 25.7 20.15 Q28.75 20.15 29.85 20.8 M26.4 24.4 L26.25 24.4 26.3 31.25 Q27.65 31.4 28.35 30.15 28.9 29.1 28.8 27.75 28.8 26.05 28.3 25.3 27.8 24.55 26.95 24.4 L26.4 24.4 M26.3 35.0 L26.3 43.05 Q28.0 43.0 28.8 41.55 29.1 40.7 29.05 38.55 29.0 36.4 28.25 35.65 27.65 35.1 26.3 35.0 M38.85 38.5 L41.15 38.5 39.7 29.7 38.85 38.5" fill="#804122" fill-rule="evenodd" stroke="none"/>
  </g>
</svg>
