<?xml version="1.0" encoding="UTF-8" standalone="no"?>
<svg xmlns:ffdec="https://www.free-decompiler.com/flash" xmlns:xlink="http://www.w3.org/1999/xlink" ffdec:objectType="shape" height="26.7px" width="88.25px" xmlns="http://www.w3.org/2000/svg">
  <g transform="matrix(1.0, 0.0, 0.0, 1.0, -20.9, -19.85)">
    <path d="M104.7 19.85 L104.7 19.9 Q108.75 20.15 109.15 26.75 L109.15 26.85 Q109.15 28.8 108.4 30.5 L105.6 35.85 Q103.1 40.45 103.45 42.4 L108.55 42.2 108.75 46.25 99.95 46.15 Q99.65 44.15 99.65 42.5 99.65 39.9 100.15 38.95 101.15 36.25 103.4 32.15 105.65 28.05 105.7 26.5 105.45 24.2 104.65 23.95 102.85 24.15 102.85 27.55 L99.65 27.2 99.65 27.0 Q99.65 25.3 100.2 23.1 101.1 19.85 104.55 19.85 L104.7 19.85 M89.05 24.2 L84.5 24.25 84.45 29.4 88.05 29.45 87.95 33.55 84.4 33.55 84.3 41.95 88.95 42.0 88.85 46.25 80.55 46.15 80.95 20.1 88.9 20.15 89.05 24.2 M72.75 20.15 L72.7 42.2 77.85 41.75 77.95 45.8 69.15 46.15 69.3 20.1 72.75 20.15 M66.85 24.1 L63.7 24.05 63.65 46.25 60.0 46.05 60.05 24.05 56.75 24.0 56.85 19.95 66.65 19.95 66.85 24.1 M54.9 19.95 L55.1 24.1 51.95 24.05 51.9 46.25 48.25 46.05 48.3 24.05 45.0 24.0 45.1 19.95 54.9 19.95 M40.5 45.8 L39.95 42.15 36.7 42.25 36.35 46.55 32.65 46.55 35.8 20.4 40.3 20.0 43.9 45.7 40.5 45.8 M28.15 20.8 Q30.7 21.9 30.8 26.2 30.95 30.15 28.45 32.45 31.0 34.25 31.1 38.25 31.1 44.4 27.9 45.7 26.55 46.3 24.55 46.35 L24.2 46.35 20.95 46.1 20.9 20.3 23.0 20.2 24.0 20.15 Q27.05 20.15 28.15 20.8 M24.7 24.4 L24.55 24.4 24.6 31.25 Q25.95 31.4 26.65 30.15 27.2 29.1 27.1 27.75 27.1 26.05 26.6 25.3 26.1 24.55 25.25 24.4 L24.7 24.4 M24.6 35.0 L24.6 43.05 Q26.3 43.0 27.1 41.55 27.4 40.7 27.35 38.55 27.3 36.4 26.55 35.65 25.95 35.1 24.6 35.0 M39.45 38.5 L38.0 29.7 37.15 38.5 39.45 38.5" fill="#804122" fill-rule="evenodd" stroke="none"/>
  </g>
</svg>
