<?xml version="1.0" encoding="UTF-8" standalone="no"?>
<svg xmlns:ffdec="https://www.free-decompiler.com/flash" xmlns:xlink="http://www.w3.org/1999/xlink" ffdec:objectType="shape" height="26.6px" width="89.8px" xmlns="http://www.w3.org/2000/svg">
  <g transform="matrix(1.0, 0.0, 0.0, 1.0, -20.15, -19.95)">
    <path d="M108.8 20.15 L108.85 38.6 109.95 38.6 109.85 42.3 108.8 42.3 108.8 46.3 105.2 46.45 105.15 42.2 99.15 42.2 98.8 38.7 104.75 19.95 108.8 20.15 M88.3 24.2 L83.75 24.25 83.7 29.4 87.3 29.45 87.2 33.55 83.65 33.55 83.55 41.95 88.2 42.0 88.1 46.25 79.8 46.15 80.2 20.1 88.15 20.15 88.3 24.2 M105.15 38.55 L105.2 29.95 102.75 38.55 105.15 38.55 M72.0 20.15 L71.95 42.2 77.1 41.75 77.2 45.8 68.4 46.15 68.55 20.1 72.0 20.15 M66.1 24.1 L62.95 24.05 62.9 46.25 59.25 46.05 59.3 24.05 56.0 24.0 56.1 19.95 65.9 19.95 66.1 24.1 M54.15 19.95 L54.35 24.1 51.2 24.05 51.15 46.25 47.5 46.05 47.55 24.05 44.25 24.0 44.35 19.95 54.15 19.95 M39.55 20.0 L43.15 45.7 39.75 45.8 39.2 42.15 35.95 42.25 35.6 46.55 31.9 46.55 35.05 20.4 39.55 20.0 M27.4 20.8 Q29.95 21.9 30.05 26.2 30.2 30.15 27.7 32.45 30.25 34.25 30.35 38.25 30.35 44.4 27.15 45.7 25.8 46.3 23.8 46.35 L23.45 46.35 20.2 46.1 20.15 20.3 22.25 20.2 23.25 20.15 Q26.3 20.15 27.4 20.8 M23.8 24.4 L23.85 31.25 Q25.2 31.4 25.9 30.15 26.45 29.1 26.35 27.75 26.35 26.05 25.85 25.3 25.35 24.55 24.5 24.4 L23.95 24.4 23.8 24.4 M23.85 35.0 L23.85 43.05 Q25.55 43.0 26.35 41.55 26.65 40.7 26.6 38.55 26.55 36.4 25.8 35.65 25.2 35.1 23.85 35.0 M38.7 38.5 L37.25 29.7 36.4 38.5 38.7 38.5" fill="#804122" fill-rule="evenodd" stroke="none"/>
  </g>
</svg>
