<?xml version="1.0" encoding="UTF-8" standalone="no"?>
<svg xmlns:ffdec="https://www.free-decompiler.com/flash" xmlns:xlink="http://www.w3.org/1999/xlink" ffdec:objectType="shape" height="26.7px" width="89.05px" xmlns="http://www.w3.org/2000/svg">
  <g transform="matrix(1.0, 0.0, 0.0, 1.0, -20.55, -19.95)">
    <path d="M108.75 24.3 L103.65 24.55 103.45 29.8 Q104.0 28.95 105.7 29.4 109.3 30.2 109.6 36.95 109.6 41.15 108.65 43.3 107.75 46.6 104.2 46.65 100.55 46.25 99.65 42.95 99.2 41.25 99.0 38.8 L102.75 38.8 102.9 40.05 Q103.15 42.4 104.3 42.55 L104.3 42.6 Q105.4 42.55 105.65 40.25 L105.95 36.85 Q105.8 33.35 104.3 33.1 L104.3 33.15 Q103.65 33.2 102.8 33.75 L99.8 32.55 99.55 32.55 100.5 20.35 108.65 20.15 108.75 24.3 M88.7 24.2 L84.15 24.25 84.1 29.4 87.7 29.45 87.6 33.55 84.05 33.55 83.95 41.95 88.6 42.0 88.5 46.25 80.2 46.15 80.6 20.1 88.55 20.15 88.7 24.2 M72.4 20.15 L72.35 42.2 77.5 41.75 77.6 45.8 68.8 46.15 68.95 20.1 72.4 20.15 M66.5 24.1 L63.35 24.05 63.3 46.25 59.65 46.05 59.7 24.05 56.4 24.0 56.5 19.95 66.3 19.95 66.5 24.1 M54.55 19.95 L54.75 24.1 51.6 24.05 51.55 46.25 47.9 46.05 47.95 24.05 44.65 24.0 44.75 19.95 54.55 19.95 M39.95 20.0 L43.55 45.7 40.15 45.8 39.6 42.15 36.35 42.25 36.0 46.55 32.3 46.55 35.45 20.4 39.95 20.0 M27.8 20.8 Q30.35 21.9 30.45 26.2 30.6 30.15 28.1 32.45 30.65 34.25 30.75 38.25 30.75 44.4 27.55 45.7 26.2 46.3 24.2 46.35 L23.85 46.35 20.6 46.1 20.55 20.3 22.65 20.2 23.65 20.15 Q26.7 20.15 27.8 20.8 M24.2 24.4 L24.25 31.25 Q25.6 31.4 26.3 30.15 26.85 29.1 26.75 27.75 26.75 26.05 26.25 25.3 25.75 24.55 24.9 24.4 L24.35 24.4 24.2 24.4 M24.25 35.0 L24.25 43.05 Q25.95 43.0 26.75 41.55 27.05 40.7 27.0 38.55 26.95 36.4 26.2 35.65 25.6 35.1 24.25 35.0 M39.1 38.5 L37.65 29.7 36.8 38.5 39.1 38.5" fill="#804122" fill-rule="evenodd" stroke="none"/>
  </g>
</svg>
