<?xml version="1.0" encoding="UTF-8" standalone="no"?>
<svg xmlns:ffdec="https://www.free-decompiler.com/flash" xmlns:xlink="http://www.w3.org/1999/xlink" ffdec:objectType="shape" height="26.6px" width="89.15px" xmlns="http://www.w3.org/2000/svg">
  <g transform="matrix(1.0, 0.0, 0.0, 1.0, -20.45, -19.95)">
    <path d="M104.6 20.05 Q108.15 20.2 109.05 23.55 L109.55 26.1 106.0 26.55 Q105.75 24.25 104.65 24.15 103.55 24.35 103.2 26.6 L102.85 30.45 Q103.3 29.1 105.35 29.05 108.4 29.7 109.15 32.85 109.6 34.6 109.55 35.75 L109.55 35.95 109.6 37.3 Q109.6 40.6 108.85 43.0 107.85 46.35 104.3 46.5 100.6 46.25 99.8 42.95 99.05 39.85 99.05 34.15 L99.05 33.3 99.0 33.3 99.05 33.05 Q99.15 26.85 100.0 23.6 100.95 20.3 104.6 20.1 L104.6 20.05 M88.6 24.2 L84.05 24.25 84.0 29.4 87.6 29.45 87.5 33.55 83.95 33.55 83.85 41.95 88.5 42.0 88.4 46.25 80.1 46.15 80.5 20.1 88.45 20.15 88.6 24.2 M102.95 35.55 L102.85 35.9 Q102.65 38.25 102.8 39.85 103.05 42.1 104.4 42.45 105.55 42.35 105.85 40.05 L106.25 37.5 106.1 35.5 Q105.85 33.25 104.6 33.15 103.25 33.2 102.95 35.55 M72.3 20.15 L72.25 42.2 77.4 41.75 77.5 45.8 68.7 46.15 68.85 20.1 72.3 20.15 M66.4 24.1 L63.25 24.05 63.2 46.25 59.55 46.05 59.6 24.05 56.3 24.0 56.4 19.95 66.2 19.95 66.4 24.1 M54.45 19.95 L54.65 24.1 51.5 24.05 51.45 46.25 47.8 46.05 47.85 24.05 44.55 24.0 44.65 19.95 54.45 19.95 M39.85 20.0 L43.45 45.7 40.05 45.8 39.5 42.15 36.25 42.25 35.9 46.55 32.2 46.55 35.35 20.4 39.85 20.0 M27.7 20.8 Q30.25 21.9 30.35 26.2 30.5 30.15 28.0 32.45 30.55 34.25 30.65 38.25 30.65 44.4 27.45 45.7 L24.1 46.35 23.75 46.35 20.5 46.1 20.45 20.3 22.55 20.2 23.55 20.15 Q26.6 20.15 27.7 20.8 M24.1 24.4 L24.15 31.25 Q25.5 31.4 26.2 30.15 26.75 29.1 26.65 27.75 26.65 26.05 26.15 25.3 25.65 24.55 24.8 24.4 L24.25 24.4 24.1 24.4 M24.15 35.0 L24.15 43.05 Q25.85 43.0 26.65 41.55 26.95 40.7 26.9 38.55 26.85 36.4 26.1 35.65 25.5 35.1 24.15 35.0 M39.0 38.5 L37.55 29.7 36.7 38.5 39.0 38.5" fill="#804122" fill-rule="evenodd" stroke="none"/>
  </g>
</svg>
