<?xml version="1.0" encoding="UTF-8" standalone="no"?>
<svg xmlns:ffdec="https://www.free-decompiler.com/flash" xmlns:xlink="http://www.w3.org/1999/xlink" ffdec:objectType="shape" height="26.6px" width="88.0px" xmlns="http://www.w3.org/2000/svg">
  <g transform="matrix(1.0, 0.0, 0.0, 1.0, -21.0, -19.95)">
    <path d="M108.9 24.35 L104.55 46.5 100.8 46.35 105.2 24.4 99.9 24.35 99.9 20.3 109.0 20.3 108.9 24.35 M89.0 20.15 L89.15 24.2 84.6 24.25 84.55 29.4 88.15 29.45 88.05 33.55 84.5 33.55 84.4 41.95 89.05 42.0 88.95 46.25 80.65 46.15 81.05 20.1 89.0 20.15 M72.85 20.15 L72.8 42.2 77.95 41.75 78.05 45.8 69.25 46.15 69.4 20.1 72.85 20.15 M66.95 24.1 L63.8 24.05 63.75 46.25 60.1 46.05 60.15 24.05 56.85 24.0 56.95 19.95 66.75 19.95 66.95 24.1 M55.0 19.95 L55.2 24.1 52.05 24.05 52.0 46.25 48.35 46.05 48.4 24.05 45.1 24.0 45.2 19.95 55.0 19.95 M40.6 45.8 L40.05 42.15 36.8 42.25 36.45 46.55 32.75 46.55 35.9 20.4 40.4 20.0 44.0 45.7 40.6 45.8 M28.25 20.8 Q30.8 21.9 30.9 26.2 31.05 30.15 28.55 32.45 31.1 34.25 31.2 38.25 31.2 44.4 28.0 45.7 26.65 46.3 24.65 46.35 L24.3 46.35 21.05 46.1 21.0 20.3 23.1 20.2 24.1 20.15 Q27.15 20.15 28.25 20.8 M24.8 24.4 L24.65 24.4 24.7 31.25 Q26.05 31.4 26.75 30.15 27.3 29.1 27.2 27.75 27.2 26.05 26.7 25.3 26.2 24.55 25.35 24.4 L24.8 24.4 M24.7 35.0 L24.7 43.05 Q26.4 43.0 27.2 41.55 27.5 40.7 27.45 38.55 27.4 36.4 26.65 35.65 26.05 35.1 24.7 35.0 M39.55 38.5 L38.1 29.7 37.25 38.5 39.55 38.5" fill="#804122" fill-rule="evenodd" stroke="none"/>
  </g>
</svg>
