<?xml version="1.0" encoding="UTF-8" standalone="no"?>
<svg xmlns:ffdec="https://www.free-decompiler.com/flash" xmlns:xlink="http://www.w3.org/1999/xlink" ffdec:objectType="shape" height="26.9px" width="89.25px" xmlns="http://www.w3.org/2000/svg">
  <g transform="matrix(1.0, 0.0, 0.0, 1.0, -20.35, -19.95)">
    <path d="M109.05 23.55 Q109.6 25.5 109.6 27.2 109.6 29.05 109.0 30.65 108.6 32.85 107.25 33.5 108.75 34.25 109.15 36.65 109.55 38.3 109.55 39.95 109.55 42.15 108.8 44.25 107.5 46.75 104.45 46.85 L104.45 46.8 Q100.75 46.55 99.8 43.95 99.1 41.5 99.1 39.15 99.1 37.0 99.45 36.3 99.9 34.1 101.45 33.45 99.95 32.95 99.55 31.05 99.0 29.8 99.0 27.45 99.0 25.3 99.6 23.3 100.8 20.4 104.7 20.05 108.1 20.45 109.05 23.55 M88.5 24.2 L83.95 24.25 83.9 29.4 87.5 29.45 87.4 33.55 83.85 33.55 83.75 41.95 88.4 42.0 88.3 46.25 80.0 46.15 80.4 20.1 88.35 20.15 88.5 24.2 M104.4 31.4 Q105.5 31.3 105.75 29.7 106.1 27.0 105.7 25.45 105.35 23.9 104.25 23.8 103.1 24.0 102.9 26.25 102.65 27.75 102.8 29.35 102.9 31.2 104.4 31.4 M105.8 37.3 Q105.6 35.75 104.5 35.65 102.95 35.8 102.85 37.65 L102.9 41.65 Q103.2 43.05 104.35 43.2 L104.35 43.25 Q105.45 43.15 105.75 42.05 106.1 40.95 105.8 37.3 M72.2 20.15 L72.15 42.2 77.3 41.75 77.4 45.8 68.6 46.15 68.75 20.1 72.2 20.15 M66.3 24.1 L63.15 24.05 63.1 46.25 59.45 46.05 59.5 24.05 56.2 24.0 56.3 19.95 66.1 19.95 66.3 24.1 M54.35 19.95 L54.55 24.1 51.4 24.05 51.35 46.25 47.7 46.05 47.75 24.05 44.45 24.0 44.55 19.95 54.35 19.95 M39.75 20.0 L43.35 45.7 39.95 45.8 39.4 42.15 36.15 42.25 35.8 46.55 32.1 46.55 35.25 20.4 39.75 20.0 M27.6 20.8 Q30.15 21.9 30.25 26.2 30.4 30.15 27.9 32.45 30.45 34.25 30.55 38.25 30.55 44.4 27.35 45.7 26.0 46.3 24.0 46.35 L23.65 46.35 20.4 46.1 20.35 20.3 22.45 20.2 23.45 20.15 Q26.5 20.15 27.6 20.8 M24.0 24.4 L24.05 31.25 Q25.4 31.4 26.1 30.15 26.65 29.1 26.55 27.75 26.55 26.05 26.05 25.3 25.55 24.55 24.7 24.4 L24.15 24.4 24.0 24.4 M24.05 35.0 L24.05 43.05 Q25.75 43.0 26.55 41.55 26.85 40.7 26.8 38.55 26.75 36.4 26.0 35.65 25.4 35.1 24.05 35.0 M38.9 38.5 L37.45 29.7 36.6 38.5 38.9 38.5" fill="#804122" fill-rule="evenodd" stroke="none"/>
  </g>
</svg>
