<?xml version="1.0" encoding="UTF-8" standalone="no"?>
<svg xmlns:ffdec="https://www.free-decompiler.com/flash" xmlns:xlink="http://www.w3.org/1999/xlink" ffdec:objectType="shape" height="26.75px" width="89.05px" xmlns="http://www.w3.org/2000/svg">
  <g transform="matrix(1.0, 0.0, 0.0, 1.0, -20.4, -19.95)">
    <path d="M104.25 24.1 Q103.1 24.2 102.8 26.55 L102.4 29.05 102.55 31.05 Q102.8 33.35 104.05 33.45 105.4 33.35 105.7 31.0 L105.75 30.65 Q106.0 28.3 105.85 26.75 105.6 24.45 104.25 24.15 L104.25 24.1 M104.35 20.1 Q108.0 20.3 108.85 23.6 109.45 26.6 109.45 29.9 109.45 34.05 108.45 38.65 107.45 43.25 105.5 46.7 L101.8 45.7 Q104.05 41.85 105.5 36.9 104.05 37.65 103.3 37.5 100.25 36.85 99.5 33.7 99.05 31.95 99.1 30.8 L99.05 30.8 99.05 30.6 99.05 29.3 Q99.05 25.95 99.8 23.55 100.8 20.2 104.35 20.05 L104.35 20.1 M88.55 24.2 L84.0 24.25 83.95 29.4 87.55 29.45 87.45 33.55 83.9 33.55 83.8 41.95 88.45 42.0 88.35 46.25 80.05 46.15 80.45 20.1 88.4 20.15 88.55 24.2 M72.25 20.15 L72.2 42.2 77.35 41.75 77.45 45.8 68.65 46.15 68.8 20.1 72.25 20.15 M66.35 24.1 L63.2 24.05 63.15 46.25 59.5 46.05 59.55 24.05 56.25 24.0 56.35 19.95 66.15 19.95 66.35 24.1 M54.4 19.95 L54.6 24.1 51.45 24.05 51.4 46.25 47.75 46.05 47.8 24.05 44.5 24.0 44.6 19.95 54.4 19.95 M39.8 20.0 L43.4 45.7 40.0 45.8 39.45 42.15 36.2 42.25 35.85 46.55 32.15 46.55 35.3 20.4 39.8 20.0 M27.65 20.8 Q30.2 21.9 30.3 26.2 30.45 30.15 27.95 32.45 30.5 34.25 30.6 38.25 30.6 44.4 27.4 45.7 26.05 46.3 24.05 46.35 L23.7 46.35 20.45 46.1 20.4 20.3 22.5 20.2 23.5 20.15 Q26.55 20.15 27.65 20.8 M24.05 24.4 L24.1 31.25 Q25.45 31.4 26.15 30.15 26.7 29.1 26.6 27.75 26.6 26.05 26.1 25.3 25.6 24.55 24.75 24.4 L24.2 24.4 24.05 24.4 M24.1 35.0 L24.1 43.05 Q25.8 43.0 26.6 41.55 26.9 40.7 26.85 38.55 26.8 36.4 26.05 35.65 25.45 35.1 24.1 35.0 M38.95 38.5 L37.5 29.7 36.65 38.5 38.95 38.5" fill="#804122" fill-rule="evenodd" stroke="none"/>
  </g>
</svg>
