<?xml version="1.0" encoding="UTF-8" standalone="no"?>
<svg xmlns:ffdec="https://www.free-decompiler.com/flash" xmlns:xlink="http://www.w3.org/1999/xlink" ffdec:objectType="shape" height="26.6px" width="97.8px" xmlns="http://www.w3.org/2000/svg">
  <g transform="matrix(1.0, 0.0, 0.0, 1.0, -16.15, -19.95)">
    <path d="M108.55 20.1 Q112.2 20.3 113.05 23.6 113.95 26.9 113.95 33.25 113.95 39.65 113.1 42.95 112.2 46.25 108.55 46.5 105.0 46.4 104.05 43.0 103.15 39.65 103.15 33.3 103.15 26.9 104.05 23.55 104.95 20.2 108.55 20.05 L108.55 20.1 M100.25 20.05 L100.2 46.5 96.65 46.2 96.55 25.8 95.1 26.35 94.95 23.05 97.55 20.1 100.25 20.05 M84.3 24.2 L79.75 24.25 79.7 29.4 83.3 29.45 83.2 33.55 79.65 33.55 79.55 41.95 84.2 42.0 84.1 46.25 75.8 46.15 76.2 20.1 84.15 20.15 84.3 24.2 M109.85 26.6 Q109.6 24.3 108.45 24.15 107.35 24.25 107.1 26.55 106.8 28.9 106.8 33.3 106.8 37.7 107.1 40.0 107.35 42.35 108.45 42.45 L108.45 42.4 Q109.6 42.25 109.85 39.95 L110.1 33.25 109.85 26.6 M68.0 20.15 L67.95 42.2 73.1 41.75 73.2 45.8 64.4 46.15 64.55 20.1 68.0 20.15 M62.1 24.1 L58.95 24.05 58.9 46.25 55.25 46.05 55.3 24.05 52.0 24.0 52.1 19.95 61.9 19.95 62.1 24.1 M50.35 24.1 L47.2 24.05 47.15 46.25 43.5 46.05 43.55 24.05 40.25 24.0 40.35 19.95 50.15 19.95 50.35 24.1 M35.55 20.0 L39.15 45.7 35.75 45.8 35.2 42.15 31.95 42.25 31.6 46.55 27.9 46.55 31.05 20.4 35.55 20.0 M19.25 20.15 Q22.3 20.15 23.4 20.8 25.95 21.9 26.05 26.2 26.2 30.15 23.7 32.45 26.25 34.25 26.35 38.25 26.35 44.4 23.15 45.7 21.8 46.3 19.8 46.35 L19.45 46.35 16.2 46.1 16.15 20.3 18.25 20.2 19.25 20.15 M19.8 24.4 L19.85 31.25 Q21.2 31.4 21.9 30.15 22.45 29.1 22.35 27.75 22.35 26.05 21.85 25.3 21.35 24.55 20.5 24.4 L19.95 24.4 19.8 24.4 M19.85 43.05 Q21.55 43.0 22.35 41.55 22.65 40.7 22.6 38.55 22.55 36.4 21.8 35.65 21.2 35.1 19.85 35.0 L19.85 43.05 M34.7 38.5 L33.25 29.7 32.4 38.5 34.7 38.5" fill="#804122" fill-rule="evenodd" stroke="none"/>
  </g>
</svg>
