<?xml version="1.0" encoding="UTF-8" standalone="no"?>
<svg xmlns:ffdec="https://www.free-decompiler.com/flash" xmlns:xlink="http://www.w3.org/1999/xlink" ffdec:objectType="shape" height="26.6px" width="92.55px" xmlns="http://www.w3.org/2000/svg">
  <g transform="matrix(1.0, 0.0, 0.0, 1.0, -18.4, -19.95)">
    <path d="M110.95 20.05 L110.9 46.5 107.35 46.2 107.25 25.8 105.8 26.35 105.65 23.05 108.25 20.1 110.95 20.05 M99.8 20.1 L102.5 20.05 102.45 46.5 98.9 46.2 98.8 25.8 97.35 26.35 97.2 23.05 99.8 20.1 M86.55 24.2 L82.0 24.25 81.95 29.4 85.55 29.45 85.45 33.55 81.9 33.55 81.8 41.95 86.45 42.0 86.35 46.25 78.05 46.15 78.45 20.1 86.4 20.15 86.55 24.2 M70.25 20.15 L70.2 42.2 75.35 41.75 75.45 45.8 66.65 46.15 66.8 20.1 70.25 20.15 M64.35 24.1 L61.2 24.05 61.15 46.25 57.5 46.05 57.55 24.05 54.25 24.0 54.35 19.95 64.15 19.95 64.35 24.1 M52.4 19.95 L52.6 24.1 49.45 24.05 49.4 46.25 45.75 46.05 45.8 24.05 42.5 24.0 42.6 19.95 52.4 19.95 M37.8 20.0 L41.4 45.7 38.0 45.8 37.45 42.15 34.2 42.25 33.85 46.55 30.15 46.55 33.3 20.4 37.8 20.0 M25.65 20.8 Q28.2 21.9 28.3 26.2 28.45 30.15 25.95 32.45 28.5 34.25 28.6 38.25 28.6 44.4 25.4 45.7 24.05 46.3 22.05 46.35 L21.7 46.35 18.45 46.1 18.4 20.3 20.5 20.2 21.5 20.15 Q24.55 20.15 25.65 20.8 M22.05 24.4 L22.1 31.25 Q23.45 31.4 24.15 30.15 24.7 29.1 24.6 27.75 24.6 26.05 24.1 25.3 23.6 24.55 22.75 24.4 L22.2 24.4 22.05 24.4 M22.1 35.0 L22.1 43.05 Q23.8 43.0 24.6 41.55 24.9 40.7 24.85 38.55 24.8 36.4 24.05 35.65 23.45 35.1 22.1 35.0 M36.95 38.5 L35.5 29.7 34.65 38.5 36.95 38.5" fill="#804122" fill-rule="evenodd" stroke="none"/>
  </g>
</svg>
