<?xml version="1.0" encoding="UTF-8" standalone="no"?>
<svg xmlns:ffdec="https://www.free-decompiler.com/flash" xmlns:xlink="http://www.w3.org/1999/xlink" ffdec:objectType="shape" height="26.7px" width="96.7px" xmlns="http://www.w3.org/2000/svg">
  <g transform="matrix(1.0, 0.0, 0.0, 1.0, -16.7, -19.85)">
    <path d="M108.8 19.85 L108.95 19.85 108.95 19.9 Q113.0 20.15 113.4 26.75 L113.4 26.85 Q113.4 28.8 112.65 30.5 L109.85 35.85 Q107.35 40.45 107.7 42.4 L112.8 42.2 113.0 46.25 104.2 46.15 Q103.9 44.15 103.9 42.5 103.9 39.9 104.4 38.95 105.4 36.25 107.65 32.15 109.9 28.05 109.95 26.5 109.7 24.2 108.9 23.95 107.1 24.15 107.1 27.55 L103.9 27.2 103.9 27.0 Q103.9 25.3 104.45 23.1 105.35 19.85 108.8 19.85 M100.8 20.05 L100.75 46.5 97.2 46.2 97.1 25.8 95.65 26.35 95.5 23.05 98.1 20.1 100.8 20.05 M84.85 24.2 L80.3 24.25 80.25 29.4 83.85 29.45 83.75 33.55 80.2 33.55 80.1 41.95 84.75 42.0 84.65 46.25 76.35 46.15 76.75 20.1 84.7 20.15 84.85 24.2 M68.55 20.15 L68.5 42.2 73.65 41.75 73.75 45.8 64.95 46.15 65.1 20.1 68.55 20.15 M62.65 24.1 L59.5 24.05 59.45 46.25 55.8 46.05 55.85 24.05 52.55 24.0 52.65 19.95 62.45 19.95 62.65 24.1 M50.7 19.95 L50.9 24.1 47.75 24.05 47.7 46.25 44.05 46.05 44.1 24.05 40.8 24.0 40.9 19.95 50.7 19.95 M36.1 20.0 L39.7 45.7 36.3 45.8 35.75 42.15 32.5 42.25 32.15 46.55 28.45 46.55 31.6 20.4 36.1 20.0 M20.35 24.4 L20.4 31.25 Q21.75 31.4 22.45 30.15 23.0 29.1 22.9 27.75 22.9 26.05 22.4 25.3 21.9 24.55 21.05 24.4 L20.5 24.4 20.35 24.4 M19.8 20.15 Q22.85 20.15 23.95 20.8 26.5 21.9 26.6 26.2 26.75 30.15 24.25 32.45 26.8 34.25 26.9 38.25 26.9 44.4 23.7 45.7 22.35 46.3 20.35 46.35 L20.0 46.35 16.75 46.1 16.7 20.3 18.8 20.2 19.8 20.15 M20.4 35.0 L20.4 43.05 Q22.1 43.0 22.9 41.55 23.2 40.7 23.15 38.55 23.1 36.4 22.35 35.65 21.75 35.1 20.4 35.0 M35.25 38.5 L33.8 29.7 32.95 38.5 35.25 38.5" fill="#804122" fill-rule="evenodd" stroke="none"/>
  </g>
</svg>
