<?xml version="1.0" encoding="UTF-8" standalone="no"?>
<svg xmlns:ffdec="https://www.free-decompiler.com/flash" xmlns:xlink="http://www.w3.org/1999/xlink" ffdec:objectType="shape" height="26.9px" width="97.7px" xmlns="http://www.w3.org/2000/svg">
  <g transform="matrix(1.0, 0.0, 0.0, 1.0, -16.1, -19.95)">
    <path d="M113.2 23.3 Q113.8 25.3 113.8 27.45 113.8 29.25 113.3 30.5 112.85 32.35 111.4 32.9 112.95 33.55 113.4 35.7 113.75 36.4 113.75 38.6 113.75 41.5 113.05 43.95 112.05 46.55 108.4 46.8 L108.4 46.85 Q105.35 46.75 104.0 44.25 103.4 42.6 103.3 40.85 L106.9 40.5 Q106.9 41.55 107.05 42.05 107.4 43.15 108.5 43.25 L108.5 43.2 Q109.4 43.05 109.95 41.65 L109.95 37.1 Q109.75 34.85 105.9 35.0 L105.85 31.3 Q109.8 31.3 110.05 28.8 L109.9 26.25 Q109.7 24.0 108.55 23.8 107.5 23.9 107.1 25.45 L106.9 27.55 103.2 27.2 Q103.2 25.5 103.75 23.55 104.7 20.45 108.1 20.05 112.0 20.4 113.2 23.3 M100.2 20.05 L100.15 46.5 96.6 46.2 96.5 25.8 95.05 26.35 94.9 23.05 97.5 20.1 100.2 20.05 M84.25 24.2 L79.7 24.25 79.65 29.4 83.25 29.45 83.15 33.55 79.6 33.55 79.5 41.95 84.15 42.0 84.05 46.25 75.75 46.15 76.15 20.1 84.1 20.15 84.25 24.2 M67.95 20.15 L67.9 42.2 73.05 41.75 73.15 45.8 64.35 46.15 64.5 20.1 67.95 20.15 M62.05 24.1 L58.9 24.05 58.85 46.25 55.2 46.05 55.25 24.05 51.95 24.0 52.05 19.95 61.85 19.95 62.05 24.1 M50.3 24.1 L47.15 24.05 47.1 46.25 43.45 46.05 43.5 24.05 40.2 24.0 40.3 19.95 50.1 19.95 50.3 24.1 M35.5 20.0 L39.1 45.7 35.7 45.8 35.15 42.15 31.9 42.25 31.55 46.55 27.85 46.55 31.0 20.4 35.5 20.0 M19.2 20.15 Q22.25 20.15 23.35 20.8 25.9 21.9 26.0 26.2 26.15 30.15 23.65 32.45 26.2 34.25 26.3 38.25 26.3 44.4 23.1 45.7 21.75 46.3 19.75 46.35 L19.4 46.35 16.15 46.1 16.1 20.3 18.2 20.2 19.2 20.15 M19.75 24.4 L19.8 31.25 Q21.15 31.4 21.85 30.15 22.4 29.1 22.3 27.75 22.3 26.05 21.8 25.3 21.3 24.55 20.45 24.4 L19.9 24.4 19.75 24.4 M19.8 43.05 Q21.5 43.0 22.3 41.55 22.6 40.7 22.55 38.55 22.5 36.4 21.75 35.65 21.15 35.1 19.8 35.0 L19.8 43.05 M34.65 38.5 L33.2 29.7 32.35 38.5 34.65 38.5" fill="#804122" fill-rule="evenodd" stroke="none"/>
  </g>
</svg>
