<?xml version="1.0" encoding="UTF-8" standalone="no"?>
<svg xmlns:ffdec="https://www.free-decompiler.com/flash" xmlns:xlink="http://www.w3.org/1999/xlink" ffdec:objectType="shape" height="26.6px" width="98.25px" xmlns="http://www.w3.org/2000/svg">
  <g transform="matrix(1.0, 0.0, 0.0, 1.0, -15.95, -19.95)">
    <path d="M113.05 20.15 L113.1 38.6 114.2 38.6 114.1 42.3 113.05 42.3 113.05 46.3 109.45 46.45 109.4 42.2 103.4 42.2 103.05 38.7 109.0 19.95 113.05 20.15 M100.05 20.05 L100.0 46.5 96.45 46.2 96.35 25.8 94.9 26.35 94.75 23.05 97.35 20.1 100.05 20.05 M84.1 24.2 L79.55 24.25 79.5 29.4 83.1 29.45 83.0 33.55 79.45 33.55 79.35 41.95 84.0 42.0 83.9 46.25 75.6 46.15 76.0 20.1 83.95 20.15 84.1 24.2 M109.4 38.55 L109.45 29.95 107.0 38.55 109.4 38.55 M67.8 20.15 L67.75 42.2 72.9 41.75 73.0 45.8 64.2 46.15 64.35 20.1 67.8 20.15 M61.9 24.1 L58.75 24.05 58.7 46.25 55.05 46.05 55.1 24.05 51.8 24.0 51.9 19.95 61.7 19.95 61.9 24.1 M50.15 24.1 L47.0 24.05 46.95 46.25 43.3 46.05 43.35 24.05 40.05 24.0 40.15 19.95 49.95 19.95 50.15 24.1 M35.35 20.0 L38.95 45.7 35.55 45.8 35.0 42.15 31.75 42.25 31.4 46.55 27.7 46.55 30.85 20.4 35.35 20.0 M19.05 20.15 Q22.1 20.15 23.2 20.8 25.75 21.9 25.85 26.2 26.0 30.15 23.5 32.45 26.05 34.25 26.15 38.25 26.15 44.4 22.95 45.7 21.6 46.3 19.6 46.35 L19.25 46.35 16.0 46.1 15.95 20.3 18.05 20.2 19.05 20.15 M19.6 24.4 L19.65 31.25 Q21.0 31.4 21.7 30.15 22.25 29.1 22.15 27.75 22.15 26.05 21.65 25.3 21.15 24.55 20.3 24.4 L19.75 24.4 19.6 24.4 M19.65 43.05 Q21.35 43.0 22.15 41.55 22.45 40.7 22.4 38.55 22.35 36.4 21.6 35.65 21.0 35.1 19.65 35.0 L19.65 43.05 M34.5 38.5 L33.05 29.7 32.2 38.5 34.5 38.5" fill="#804122" fill-rule="evenodd" stroke="none"/>
  </g>
</svg>
