<?xml version="1.0" encoding="UTF-8" standalone="no"?>
<svg xmlns:ffdec="https://www.free-decompiler.com/flash" xmlns:xlink="http://www.w3.org/1999/xlink" ffdec:objectType="shape" height="26.7px" width="97.5px" xmlns="http://www.w3.org/2000/svg">
  <g transform="matrix(1.0, 0.0, 0.0, 1.0, -16.3, -19.95)">
    <path d="M112.85 20.15 L112.95 24.3 107.85 24.55 107.65 29.8 Q108.2 28.95 109.9 29.4 113.5 30.2 113.8 36.95 113.8 41.15 112.85 43.3 111.95 46.6 108.4 46.65 104.75 46.25 103.85 42.95 103.4 41.25 103.2 38.8 L106.95 38.8 107.1 40.05 Q107.35 42.4 108.5 42.55 L108.5 42.6 Q109.6 42.55 109.85 40.25 L110.15 36.85 Q110.0 33.35 108.5 33.1 L108.5 33.15 Q107.85 33.2 107.0 33.75 L104.0 32.55 103.75 32.55 104.7 20.35 112.85 20.15 M100.4 20.05 L100.35 46.5 96.8 46.2 96.7 25.8 95.25 26.35 95.1 23.05 97.7 20.1 100.4 20.05 M84.45 24.2 L79.9 24.25 79.85 29.4 83.45 29.45 83.35 33.55 79.8 33.55 79.7 41.95 84.35 42.0 84.25 46.25 75.95 46.15 76.35 20.1 84.3 20.15 84.45 24.2 M68.15 20.15 L68.1 42.2 73.25 41.75 73.35 45.8 64.55 46.15 64.7 20.1 68.15 20.15 M62.25 24.1 L59.1 24.05 59.05 46.25 55.4 46.05 55.45 24.05 52.15 24.0 52.25 19.95 62.05 19.95 62.25 24.1 M50.3 19.95 L50.5 24.1 47.35 24.05 47.3 46.25 43.65 46.05 43.7 24.05 40.4 24.0 40.5 19.95 50.3 19.95 M35.7 20.0 L39.3 45.7 35.9 45.8 35.35 42.15 32.1 42.25 31.75 46.55 28.05 46.55 31.2 20.4 35.7 20.0 M19.4 20.15 Q22.45 20.15 23.55 20.8 26.1 21.9 26.2 26.2 26.35 30.15 23.85 32.45 26.4 34.25 26.5 38.25 26.5 44.4 23.3 45.7 21.95 46.3 19.95 46.35 L19.6 46.35 16.35 46.1 16.3 20.3 18.4 20.2 19.4 20.15 M19.95 24.4 L20.0 31.25 Q21.35 31.4 22.05 30.15 22.6 29.1 22.5 27.75 22.5 26.05 22.0 25.3 21.5 24.55 20.65 24.4 L20.1 24.4 19.95 24.4 M20.0 43.05 Q21.7 43.0 22.5 41.55 22.8 40.7 22.75 38.55 22.7 36.4 21.95 35.65 21.35 35.1 20.0 35.0 L20.0 43.05 M34.85 38.5 L33.4 29.7 32.55 38.5 34.85 38.5" fill="#804122" fill-rule="evenodd" stroke="none"/>
  </g>
</svg>
