<?xml version="1.0" encoding="UTF-8" standalone="no"?>
<svg xmlns:ffdec="https://www.free-decompiler.com/flash" xmlns:xlink="http://www.w3.org/1999/xlink" ffdec:objectType="shape" height="26.6px" width="97.6px" xmlns="http://www.w3.org/2000/svg">
  <g transform="matrix(1.0, 0.0, 0.0, 1.0, -16.25, -19.95)">
    <path d="M108.85 20.1 L108.85 20.05 Q112.4 20.2 113.3 23.55 L113.8 26.1 110.25 26.55 Q110.0 24.25 108.9 24.15 107.8 24.35 107.45 26.6 L107.1 30.45 Q107.55 29.1 109.6 29.05 112.65 29.7 113.4 32.85 113.85 34.6 113.8 35.75 L113.8 35.95 113.85 37.3 Q113.85 40.6 113.1 43.0 112.1 46.35 108.55 46.5 104.85 46.25 104.05 42.95 103.3 39.85 103.3 34.15 L103.3 33.3 103.25 33.3 103.3 33.05 Q103.4 26.85 104.25 23.6 105.2 20.3 108.85 20.1 M100.35 20.05 L100.3 46.5 96.75 46.2 96.65 25.8 95.2 26.35 95.05 23.05 97.65 20.1 100.35 20.05 M84.4 24.2 L79.85 24.25 79.8 29.4 83.4 29.45 83.3 33.55 79.75 33.55 79.65 41.95 84.3 42.0 84.2 46.25 75.9 46.15 76.3 20.1 84.25 20.15 84.4 24.2 M108.85 33.15 Q107.5 33.2 107.2 35.55 L107.1 35.9 Q106.9 38.25 107.05 39.85 107.3 42.1 108.65 42.45 109.8 42.35 110.1 40.05 L110.5 37.5 110.35 35.5 Q110.1 33.25 108.85 33.15 M68.1 20.15 L68.05 42.2 73.2 41.75 73.3 45.8 64.5 46.15 64.65 20.1 68.1 20.15 M62.2 24.1 L59.05 24.05 59.0 46.25 55.35 46.05 55.4 24.05 52.1 24.0 52.2 19.95 62.0 19.95 62.2 24.1 M50.45 24.1 L47.3 24.05 47.25 46.25 43.6 46.05 43.65 24.05 40.35 24.0 40.45 19.95 50.25 19.95 50.45 24.1 M35.65 20.0 L39.25 45.7 35.85 45.8 35.3 42.15 32.05 42.25 31.7 46.55 28.0 46.55 31.15 20.4 35.65 20.0 M19.35 20.15 Q22.4 20.15 23.5 20.8 26.05 21.9 26.15 26.2 26.3 30.15 23.8 32.45 26.35 34.25 26.45 38.25 26.45 44.4 23.25 45.7 21.9 46.3 19.9 46.35 L19.55 46.35 16.3 46.1 16.25 20.3 18.35 20.2 19.35 20.15 M19.9 24.4 L19.95 31.25 Q21.3 31.4 22.0 30.15 22.55 29.1 22.45 27.75 22.45 26.05 21.95 25.3 21.45 24.55 20.6 24.4 L20.05 24.4 19.9 24.4 M19.95 43.05 Q21.65 43.0 22.45 41.55 22.75 40.7 22.7 38.55 22.65 36.4 21.9 35.65 21.3 35.1 19.95 35.0 L19.95 43.05 M34.8 38.5 L33.35 29.7 32.5 38.5 34.8 38.5" fill="#804122" fill-rule="evenodd" stroke="none"/>
  </g>
</svg>
