<?xml version="1.0" encoding="UTF-8" standalone="no"?>
<svg xmlns:ffdec="https://www.free-decompiler.com/flash" xmlns:xlink="http://www.w3.org/1999/xlink" ffdec:objectType="shape" height="26.6px" width="96.45px" xmlns="http://www.w3.org/2000/svg">
  <g transform="matrix(1.0, 0.0, 0.0, 1.0, -16.75, -19.95)">
    <path d="M104.1 24.35 L104.1 20.3 113.2 20.3 113.1 24.35 108.75 46.5 105.0 46.35 109.4 24.4 104.1 24.35 M100.85 20.05 L100.8 46.5 97.25 46.2 97.15 25.8 95.7 26.35 95.55 23.05 98.15 20.1 100.85 20.05 M84.9 24.2 L80.35 24.25 80.3 29.4 83.9 29.45 83.8 33.55 80.25 33.55 80.15 41.95 84.8 42.0 84.7 46.25 76.4 46.15 76.8 20.1 84.75 20.15 84.9 24.2 M68.6 20.15 L68.55 42.2 73.7 41.75 73.8 45.8 65.0 46.15 65.15 20.1 68.6 20.15 M62.7 24.1 L59.55 24.05 59.5 46.25 55.85 46.05 55.9 24.05 52.6 24.0 52.7 19.95 62.5 19.95 62.7 24.1 M50.75 19.95 L50.95 24.1 47.8 24.05 47.75 46.25 44.1 46.05 44.15 24.05 40.85 24.0 40.95 19.95 50.75 19.95 M36.15 20.0 L39.75 45.7 36.35 45.8 35.8 42.15 32.55 42.25 32.2 46.55 28.5 46.55 31.65 20.4 36.15 20.0 M20.4 24.4 L20.45 31.25 Q21.8 31.4 22.5 30.15 23.05 29.1 22.95 27.75 22.95 26.05 22.45 25.3 21.95 24.55 21.1 24.4 L20.55 24.4 20.4 24.4 M19.85 20.15 Q22.9 20.15 24.0 20.8 26.55 21.9 26.65 26.2 26.8 30.15 24.3 32.45 26.85 34.25 26.95 38.25 26.95 44.4 23.75 45.7 22.4 46.3 20.4 46.35 L20.05 46.35 16.8 46.1 16.75 20.3 18.85 20.2 19.85 20.15 M20.45 35.0 L20.45 43.05 Q22.15 43.0 22.95 41.55 23.25 40.7 23.2 38.55 23.15 36.4 22.4 35.65 21.8 35.1 20.45 35.0 M35.3 38.5 L33.85 29.7 33.0 38.5 35.3 38.5" fill="#804122" fill-rule="evenodd" stroke="none"/>
  </g>
</svg>
