<?xml version="1.0" encoding="UTF-8" standalone="no"?>
<svg xmlns:ffdec="https://www.free-decompiler.com/flash" xmlns:xlink="http://www.w3.org/1999/xlink" ffdec:objectType="shape" height="26.9px" width="97.7px" xmlns="http://www.w3.org/2000/svg">
  <g transform="matrix(1.0, 0.0, 0.0, 1.0, -16.1, -19.95)">
    <path d="M108.9 20.05 Q112.3 20.45 113.25 23.55 113.8 25.5 113.8 27.2 113.8 29.05 113.2 30.65 112.8 32.85 111.45 33.5 112.95 34.25 113.35 36.65 113.75 38.3 113.75 39.95 113.75 42.15 113.0 44.25 111.7 46.75 108.65 46.85 L108.65 46.8 Q104.95 46.55 104.0 43.95 103.3 41.5 103.3 39.15 103.3 37.0 103.65 36.3 104.1 34.1 105.65 33.45 104.15 32.95 103.75 31.05 103.2 29.8 103.2 27.45 103.2 25.3 103.8 23.3 105.0 20.4 108.9 20.05 M100.2 20.05 L100.15 46.5 96.6 46.2 96.5 25.8 95.05 26.35 94.9 23.05 97.5 20.1 100.2 20.05 M84.25 24.2 L79.7 24.25 79.65 29.4 83.25 29.45 83.15 33.55 79.6 33.55 79.5 41.95 84.15 42.0 84.05 46.25 75.75 46.15 76.15 20.1 84.1 20.15 84.25 24.2 M107.0 29.35 Q107.1 31.2 108.6 31.4 109.7 31.3 109.95 29.7 110.3 27.0 109.9 25.45 109.55 23.9 108.45 23.8 107.3 24.0 107.1 26.25 106.85 27.75 107.0 29.35 M110.0 37.3 Q109.8 35.75 108.7 35.65 107.15 35.8 107.05 37.65 L107.1 41.65 Q107.4 43.05 108.55 43.2 L108.55 43.25 Q109.65 43.15 109.95 42.05 110.3 40.95 110.0 37.3 M67.95 20.15 L67.9 42.2 73.05 41.75 73.15 45.8 64.35 46.15 64.5 20.1 67.95 20.15 M62.05 24.1 L58.9 24.05 58.85 46.25 55.2 46.05 55.25 24.05 51.95 24.0 52.05 19.95 61.85 19.95 62.05 24.1 M50.3 24.1 L47.15 24.05 47.1 46.25 43.45 46.05 43.5 24.05 40.2 24.0 40.3 19.95 50.1 19.95 50.3 24.1 M35.5 20.0 L39.1 45.7 35.7 45.8 35.15 42.15 31.9 42.25 31.55 46.55 27.85 46.55 31.0 20.4 35.5 20.0 M19.2 20.15 Q22.25 20.15 23.35 20.8 25.9 21.9 26.0 26.2 26.15 30.15 23.65 32.45 26.2 34.25 26.3 38.25 26.3 44.4 23.1 45.7 21.75 46.3 19.75 46.35 L19.4 46.35 16.15 46.1 16.1 20.3 18.2 20.2 19.2 20.15 M19.75 24.4 L19.8 31.25 Q21.15 31.4 21.85 30.15 22.4 29.1 22.3 27.75 22.3 26.05 21.8 25.3 21.3 24.55 20.45 24.4 L19.9 24.4 19.75 24.4 M19.8 43.05 Q21.5 43.0 22.3 41.55 22.6 40.7 22.55 38.55 22.5 36.4 21.75 35.65 21.15 35.1 19.8 35.0 L19.8 43.05 M34.65 38.5 L33.2 29.7 32.35 38.5 34.65 38.5" fill="#804122" fill-rule="evenodd" stroke="none"/>
  </g>
</svg>
