<?xml version="1.0" encoding="UTF-8" standalone="no"?>
<svg xmlns:ffdec="https://www.free-decompiler.com/flash" xmlns:xlink="http://www.w3.org/1999/xlink" ffdec:objectType="shape" height="26.75px" width="97.5px" xmlns="http://www.w3.org/2000/svg">
  <g transform="matrix(1.0, 0.0, 0.0, 1.0, -16.2, -19.95)">
    <path d="M108.5 24.1 Q107.35 24.2 107.05 26.55 L106.65 29.05 106.8 31.05 Q107.05 33.35 108.3 33.45 109.65 33.35 109.95 31.0 L110.0 30.65 Q110.25 28.3 110.1 26.75 109.85 24.45 108.5 24.15 L108.5 24.1 M108.6 20.05 L108.6 20.1 Q112.25 20.3 113.1 23.6 113.7 26.6 113.7 29.9 113.7 34.05 112.7 38.65 111.7 43.25 109.75 46.7 L106.05 45.7 Q108.3 41.85 109.75 36.9 108.3 37.65 107.55 37.5 104.5 36.85 103.75 33.7 103.3 31.95 103.35 30.8 L103.3 30.8 103.3 30.6 103.3 29.3 Q103.3 25.95 104.05 23.55 105.05 20.2 108.6 20.05 M100.3 20.05 L100.25 46.5 96.7 46.2 96.6 25.8 95.15 26.35 95.0 23.05 97.6 20.1 100.3 20.05 M84.35 24.2 L79.8 24.25 79.75 29.4 83.35 29.45 83.25 33.55 79.7 33.55 79.6 41.95 84.25 42.0 84.15 46.25 75.85 46.15 76.25 20.1 84.2 20.15 84.35 24.2 M68.05 20.15 L68.0 42.2 73.15 41.75 73.25 45.8 64.45 46.15 64.6 20.1 68.05 20.15 M62.15 24.1 L59.0 24.05 58.95 46.25 55.3 46.05 55.35 24.05 52.05 24.0 52.15 19.95 61.95 19.95 62.15 24.1 M50.4 24.1 L47.25 24.05 47.2 46.25 43.55 46.05 43.6 24.05 40.3 24.0 40.4 19.95 50.2 19.95 50.4 24.1 M35.6 20.0 L39.2 45.7 35.8 45.8 35.25 42.15 32.0 42.25 31.65 46.55 27.95 46.55 31.1 20.4 35.6 20.0 M19.3 20.15 Q22.35 20.15 23.45 20.8 26.0 21.9 26.1 26.2 26.25 30.15 23.75 32.45 26.3 34.25 26.4 38.25 26.4 44.4 23.2 45.7 L19.85 46.35 19.5 46.35 16.25 46.1 16.2 20.3 18.3 20.2 19.3 20.15 M19.85 24.4 L19.9 31.25 Q21.25 31.4 21.95 30.15 22.5 29.1 22.4 27.75 22.4 26.05 21.9 25.3 21.4 24.55 20.55 24.4 L20.0 24.4 19.85 24.4 M19.9 43.05 Q21.6 43.0 22.4 41.55 22.7 40.7 22.65 38.55 22.6 36.4 21.85 35.65 21.25 35.1 19.9 35.0 L19.9 43.05 M34.75 38.5 L33.3 29.7 32.45 38.5 34.75 38.5" fill="#804122" fill-rule="evenodd" stroke="none"/>
  </g>
</svg>
