<?xml version="1.0" encoding="UTF-8" standalone="no"?>
<svg xmlns:ffdec="https://www.free-decompiler.com/flash" xmlns:xlink="http://www.w3.org/1999/xlink" ffdec:objectType="shape" height="26.7px" width="101.2px" xmlns="http://www.w3.org/2000/svg">
  <g transform="matrix(1.0, 0.0, 0.0, 1.0, -14.45, -19.85)">
    <path d="M110.25 20.1 Q113.9 20.3 114.75 23.6 115.65 26.9 115.65 33.25 115.65 39.65 114.8 42.95 113.9 46.25 110.25 46.5 106.7 46.4 105.75 43.0 104.85 39.65 104.85 33.3 104.85 26.9 105.75 23.55 106.65 20.2 110.25 20.05 L110.25 20.1 M82.6 24.2 L78.05 24.25 78.0 29.4 81.6 29.45 81.5 33.55 77.95 33.55 77.85 41.95 82.5 42.0 82.4 46.25 74.1 46.15 74.5 20.1 82.45 20.15 82.6 24.2 M98.25 19.9 Q102.3 20.15 102.7 26.75 L102.7 26.85 Q102.7 28.8 101.95 30.5 L99.15 35.85 Q96.65 40.45 97.0 42.4 L102.1 42.2 102.3 46.25 93.5 46.15 Q93.2 44.15 93.2 42.5 93.2 39.9 93.7 38.95 94.7 36.25 96.95 32.15 99.2 28.05 99.25 26.5 99.0 24.2 98.2 23.95 96.4 24.15 96.4 27.55 L93.2 27.2 93.2 27.0 Q93.2 25.3 93.75 23.1 94.65 19.85 98.1 19.85 L98.25 19.85 98.25 19.9 M111.55 26.6 Q111.3 24.3 110.15 24.15 109.05 24.25 108.8 26.55 108.5 28.9 108.5 33.3 108.5 37.7 108.8 40.0 109.05 42.35 110.15 42.45 L110.15 42.4 Q111.3 42.25 111.55 39.95 L111.8 33.25 111.55 26.6 M66.3 20.15 L66.25 42.2 71.4 41.75 71.5 45.8 62.7 46.15 62.85 20.1 66.3 20.15 M50.4 19.95 L60.2 19.95 60.4 24.1 57.25 24.05 57.2 46.25 53.55 46.05 53.6 24.05 50.3 24.0 50.4 19.95 M48.65 24.1 L45.5 24.05 45.45 46.25 41.8 46.05 41.85 24.05 38.55 24.0 38.65 19.95 48.45 19.95 48.65 24.1 M33.85 20.0 L37.45 45.7 34.05 45.8 33.5 42.15 30.25 42.25 29.9 46.55 26.2 46.55 29.35 20.4 33.85 20.0 M17.55 20.15 Q20.6 20.15 21.7 20.8 24.25 21.9 24.35 26.2 24.5 30.15 22.0 32.45 24.55 34.25 24.65 38.25 24.65 44.4 21.45 45.7 20.1 46.3 18.1 46.35 L17.75 46.35 14.5 46.1 14.45 20.3 16.55 20.2 17.55 20.15 M18.25 24.4 L18.1 24.4 18.15 31.25 Q19.5 31.4 20.2 30.15 20.75 29.1 20.65 27.75 20.65 26.05 20.15 25.3 19.65 24.55 18.8 24.4 L18.25 24.4 M18.15 43.05 Q19.85 43.0 20.65 41.55 20.95 40.7 20.9 38.55 20.85 36.4 20.1 35.65 19.5 35.1 18.15 35.0 L18.15 43.05 M33.0 38.5 L31.55 29.7 30.7 38.5 33.0 38.5" fill="#804122" fill-rule="evenodd" stroke="none"/>
  </g>
</svg>
