<?xml version="1.0" encoding="UTF-8" standalone="no"?>
<svg xmlns:ffdec="https://www.free-decompiler.com/flash" xmlns:xlink="http://www.w3.org/1999/xlink" ffdec:objectType="shape" height="26.7px" width="100.1px" xmlns="http://www.w3.org/2000/svg">
  <g transform="matrix(1.0, 0.0, 0.0, 1.0, -15.0, -19.85)">
    <path d="M110.5 19.85 L110.65 19.85 110.65 19.9 Q114.7 20.15 115.1 26.75 L115.1 26.85 Q115.1 28.8 114.35 30.5 L111.55 35.85 Q109.05 40.45 109.4 42.4 L114.5 42.2 114.7 46.25 105.9 46.15 Q105.6 44.15 105.6 42.5 105.6 39.9 106.1 38.95 107.1 36.25 109.35 32.15 111.6 28.05 111.65 26.5 111.4 24.2 110.6 23.95 108.8 24.15 108.8 27.55 L105.6 27.2 105.6 27.0 Q105.6 25.3 106.15 23.1 107.05 19.85 110.5 19.85 M83.15 24.2 L78.6 24.25 78.55 29.4 82.15 29.45 82.05 33.55 78.5 33.55 78.4 41.95 83.05 42.0 82.95 46.25 74.65 46.15 75.05 20.1 83.0 20.15 83.15 24.2 M98.8 19.9 Q102.85 20.15 103.25 26.75 L103.25 26.85 Q103.25 28.8 102.5 30.5 L99.7 35.85 Q97.2 40.45 97.55 42.4 L102.65 42.2 102.85 46.25 94.05 46.15 Q93.75 44.15 93.75 42.5 93.75 39.9 94.25 38.95 95.25 36.25 97.5 32.15 99.75 28.05 99.8 26.5 99.55 24.2 98.75 23.95 96.95 24.15 96.95 27.55 L93.75 27.2 93.75 27.0 Q93.75 25.3 94.3 23.1 95.2 19.85 98.65 19.85 L98.8 19.85 98.8 19.9 M66.85 20.15 L66.8 42.2 71.95 41.75 72.05 45.8 63.25 46.15 63.4 20.1 66.85 20.15 M60.95 24.1 L57.8 24.05 57.75 46.25 54.1 46.05 54.15 24.05 50.85 24.0 50.95 19.95 60.75 19.95 60.95 24.1 M49.2 24.1 L46.05 24.05 46.0 46.25 42.35 46.05 42.4 24.05 39.1 24.0 39.2 19.95 49.0 19.95 49.2 24.1 M34.4 20.0 L38.0 45.7 34.6 45.8 34.05 42.15 30.8 42.25 30.45 46.55 26.75 46.55 29.9 20.4 34.4 20.0 M18.1 20.15 Q21.15 20.15 22.25 20.8 24.8 21.9 24.9 26.2 25.05 30.15 22.55 32.45 25.1 34.25 25.2 38.25 25.2 44.4 22.0 45.7 20.65 46.3 18.65 46.35 L18.3 46.35 15.05 46.1 15.0 20.3 17.1 20.2 18.1 20.15 M18.8 24.4 L18.65 24.4 18.7 31.25 Q20.05 31.4 20.75 30.15 21.3 29.1 21.2 27.75 21.2 26.05 20.7 25.3 20.2 24.55 19.35 24.4 L18.8 24.4 M18.7 43.05 Q20.4 43.0 21.2 41.55 21.5 40.7 21.45 38.55 21.4 36.4 20.65 35.65 20.05 35.1 18.7 35.0 L18.7 43.05 M33.55 38.5 L32.1 29.7 31.25 38.5 33.55 38.5" fill="#804122" fill-rule="evenodd" stroke="none"/>
  </g>
</svg>
