<?xml version="1.0" encoding="UTF-8" standalone="no"?>
<svg xmlns:ffdec="https://www.free-decompiler.com/flash" xmlns:xlink="http://www.w3.org/1999/xlink" ffdec:objectType="shape" height="27.0px" width="101.1px" xmlns="http://www.w3.org/2000/svg">
  <g transform="matrix(1.0, 0.0, 0.0, 1.0, -14.4, -19.85)">
    <path d="M114.9 23.3 Q115.5 25.3 115.5 27.45 115.5 29.25 115.0 30.5 114.55 32.35 113.1 32.9 114.65 33.55 115.1 35.7 115.45 36.4 115.45 38.6 115.45 41.5 114.75 43.95 113.75 46.55 110.1 46.8 L110.1 46.85 Q107.05 46.75 105.7 44.25 105.1 42.6 105.0 40.85 L108.6 40.5 Q108.6 41.55 108.75 42.05 109.1 43.15 110.2 43.25 L110.2 43.2 Q111.1 43.05 111.65 41.65 L111.65 37.1 Q111.45 34.85 107.6 35.0 L107.55 31.3 Q111.5 31.3 111.75 28.8 L111.6 26.25 Q111.4 24.0 110.25 23.8 109.2 23.9 108.8 25.45 L108.6 27.55 104.9 27.2 Q104.9 25.5 105.45 23.55 106.4 20.45 109.8 20.05 113.7 20.4 114.9 23.3 M82.55 24.2 L78.0 24.25 77.95 29.4 81.55 29.45 81.45 33.55 77.9 33.55 77.8 41.95 82.45 42.0 82.35 46.25 74.05 46.15 74.45 20.1 82.4 20.15 82.55 24.2 M98.2 19.9 Q102.25 20.15 102.65 26.75 L102.65 26.85 Q102.65 28.8 101.9 30.5 L99.1 35.85 Q96.6 40.45 96.95 42.4 L102.05 42.2 102.25 46.25 93.45 46.15 Q93.15 44.15 93.15 42.5 93.15 39.9 93.65 38.95 94.65 36.25 96.9 32.15 99.15 28.05 99.2 26.5 98.95 24.2 98.15 23.95 96.35 24.15 96.35 27.55 L93.15 27.2 93.15 27.0 Q93.15 25.3 93.7 23.1 94.6 19.85 98.05 19.85 L98.2 19.85 98.2 19.9 M66.25 20.15 L66.2 42.2 71.35 41.75 71.45 45.8 62.65 46.15 62.8 20.1 66.25 20.15 M50.35 19.95 L60.15 19.95 60.35 24.1 57.2 24.05 57.15 46.25 53.5 46.05 53.55 24.05 50.25 24.0 50.35 19.95 M48.6 24.1 L45.45 24.05 45.4 46.25 41.75 46.05 41.8 24.05 38.5 24.0 38.6 19.95 48.4 19.95 48.6 24.1 M33.8 20.0 L37.4 45.7 34.0 45.8 33.45 42.15 30.2 42.25 29.85 46.55 26.15 46.55 29.3 20.4 33.8 20.0 M17.5 20.15 Q20.55 20.15 21.65 20.8 24.2 21.9 24.3 26.2 24.45 30.15 21.95 32.45 24.5 34.25 24.6 38.25 24.6 44.4 21.4 45.7 20.05 46.3 18.05 46.35 L17.7 46.35 14.45 46.1 14.4 20.3 16.5 20.2 17.5 20.15 M18.2 24.4 L18.05 24.4 18.1 31.25 Q19.45 31.4 20.15 30.15 20.7 29.1 20.6 27.75 20.6 26.05 20.1 25.3 19.6 24.55 18.75 24.4 L18.2 24.4 M18.1 43.05 Q19.8 43.0 20.6 41.55 20.9 40.7 20.85 38.55 20.8 36.4 20.05 35.65 19.45 35.1 18.1 35.0 L18.1 43.05 M32.95 38.5 L31.5 29.7 30.65 38.5 32.95 38.5" fill="#804122" fill-rule="evenodd" stroke="none"/>
  </g>
</svg>
