<?xml version="1.0" encoding="UTF-8" standalone="no"?>
<svg xmlns:ffdec="https://www.free-decompiler.com/flash" xmlns:xlink="http://www.w3.org/1999/xlink" ffdec:objectType="shape" height="26.7px" width="101.65px" xmlns="http://www.w3.org/2000/svg">
  <g transform="matrix(1.0, 0.0, 0.0, 1.0, -14.25, -19.85)">
    <path d="M114.75 20.15 L114.8 38.6 115.9 38.6 115.8 42.3 114.75 42.3 114.75 46.3 111.15 46.45 111.1 42.2 105.1 42.2 104.75 38.7 110.7 19.95 114.75 20.15 M82.4 24.2 L77.85 24.25 77.8 29.4 81.4 29.45 81.3 33.55 77.75 33.55 77.65 41.95 82.3 42.0 82.2 46.25 73.9 46.15 74.3 20.1 82.25 20.15 82.4 24.2 M98.05 19.9 Q102.1 20.15 102.5 26.75 L102.5 26.85 Q102.5 28.8 101.75 30.5 L98.95 35.85 Q96.45 40.45 96.8 42.4 L101.9 42.2 102.1 46.25 93.3 46.15 Q93.0 44.15 93.0 42.5 93.0 39.9 93.5 38.95 94.5 36.25 96.75 32.15 99.0 28.05 99.05 26.5 98.8 24.2 98.0 23.95 96.2 24.15 96.2 27.55 L93.0 27.2 93.0 27.0 Q93.0 25.3 93.55 23.1 94.45 19.85 97.9 19.85 L98.05 19.85 98.05 19.9 M111.1 38.55 L111.15 29.95 108.7 38.55 111.1 38.55 M66.1 20.15 L66.05 42.2 71.2 41.75 71.3 45.8 62.5 46.15 62.65 20.1 66.1 20.15 M50.2 19.95 L60.0 19.95 60.2 24.1 57.05 24.05 57.0 46.25 53.35 46.05 53.4 24.05 50.1 24.0 50.2 19.95 M48.45 24.1 L45.3 24.05 45.25 46.25 41.6 46.05 41.65 24.05 38.35 24.0 38.45 19.95 48.25 19.95 48.45 24.1 M33.65 20.0 L37.25 45.7 33.85 45.8 33.3 42.15 30.05 42.25 29.7 46.55 26.0 46.55 29.15 20.4 33.65 20.0 M17.35 20.15 Q20.4 20.15 21.5 20.8 24.05 21.9 24.15 26.2 24.3 30.15 21.8 32.45 24.35 34.25 24.45 38.25 24.45 44.4 21.25 45.7 19.9 46.3 17.9 46.35 L17.55 46.35 14.3 46.1 14.25 20.3 16.35 20.2 17.35 20.15 M18.05 24.4 L17.9 24.4 17.95 31.25 Q19.3 31.4 20.0 30.15 20.55 29.1 20.45 27.75 20.45 26.05 19.95 25.3 19.45 24.55 18.6 24.4 L18.05 24.4 M17.95 43.05 Q19.65 43.0 20.45 41.55 20.75 40.7 20.7 38.55 20.65 36.4 19.9 35.65 19.3 35.1 17.95 35.0 L17.95 43.05 M32.8 38.5 L31.35 29.7 30.5 38.5 32.8 38.5" fill="#804122" fill-rule="evenodd" stroke="none"/>
  </g>
</svg>
