<?xml version="1.0" encoding="UTF-8" standalone="no"?>
<svg xmlns:ffdec="https://www.free-decompiler.com/flash" xmlns:xlink="http://www.w3.org/1999/xlink" ffdec:objectType="shape" height="26.8px" width="100.9px" xmlns="http://www.w3.org/2000/svg">
  <g transform="matrix(1.0, 0.0, 0.0, 1.0, -14.6, -19.85)">
    <path d="M114.55 20.15 L114.65 24.3 109.55 24.55 109.35 29.8 Q109.9 28.95 111.6 29.4 115.2 30.2 115.5 36.95 115.5 41.15 114.55 43.3 113.65 46.6 110.1 46.65 106.45 46.25 105.55 42.95 105.1 41.25 104.9 38.8 L108.65 38.8 108.8 40.05 Q109.05 42.4 110.2 42.55 L110.2 42.6 Q111.3 42.55 111.55 40.25 L111.85 36.85 Q111.7 33.35 110.2 33.1 L110.2 33.15 Q109.55 33.2 108.7 33.75 L105.7 32.55 105.45 32.55 106.4 20.35 114.55 20.15 M82.75 24.2 L78.2 24.25 78.15 29.4 81.75 29.45 81.65 33.55 78.1 33.55 78.0 41.95 82.65 42.0 82.55 46.25 74.25 46.15 74.65 20.1 82.6 20.15 82.75 24.2 M98.4 19.9 Q102.45 20.15 102.85 26.75 L102.85 26.85 Q102.85 28.8 102.1 30.5 L99.3 35.85 Q96.8 40.45 97.15 42.4 L102.25 42.2 102.45 46.25 93.65 46.15 Q93.35 44.15 93.35 42.5 93.35 39.9 93.85 38.95 94.85 36.25 97.1 32.15 99.35 28.05 99.4 26.5 99.15 24.2 98.35 23.95 96.55 24.15 96.55 27.55 L93.35 27.2 93.35 27.0 Q93.35 25.3 93.9 23.1 94.8 19.85 98.25 19.85 L98.4 19.85 98.4 19.9 M66.45 20.15 L66.4 42.2 71.55 41.75 71.65 45.8 62.85 46.15 63.0 20.1 66.45 20.15 M50.55 19.95 L60.35 19.95 60.55 24.1 57.4 24.05 57.35 46.25 53.7 46.05 53.75 24.05 50.45 24.0 50.55 19.95 M48.8 24.1 L45.65 24.05 45.6 46.25 41.95 46.05 42.0 24.05 38.7 24.0 38.8 19.95 48.6 19.95 48.8 24.1 M34.0 20.0 L37.6 45.7 34.2 45.8 33.65 42.15 30.4 42.25 30.05 46.55 26.35 46.55 29.5 20.4 34.0 20.0 M17.7 20.15 Q20.75 20.15 21.85 20.8 24.4 21.9 24.5 26.2 24.65 30.15 22.15 32.45 24.7 34.25 24.8 38.25 24.8 44.4 21.6 45.7 L18.25 46.35 17.9 46.35 14.65 46.1 14.6 20.3 16.7 20.2 17.7 20.15 M18.4 24.4 L18.25 24.4 18.3 31.25 Q19.65 31.4 20.35 30.15 20.9 29.1 20.8 27.75 20.8 26.05 20.3 25.3 19.8 24.55 18.95 24.4 L18.4 24.4 M18.3 43.05 Q20.0 43.0 20.8 41.55 21.1 40.7 21.05 38.55 21.0 36.4 20.25 35.65 19.65 35.1 18.3 35.0 L18.3 43.05 M33.15 38.5 L31.7 29.7 30.85 38.5 33.15 38.5" fill="#804122" fill-rule="evenodd" stroke="none"/>
  </g>
</svg>
