<?xml version="1.0" encoding="UTF-8" standalone="no"?>
<svg xmlns:ffdec="https://www.free-decompiler.com/flash" xmlns:xlink="http://www.w3.org/1999/xlink" ffdec:objectType="shape" height="271.4px" width="273.05px" xmlns="http://www.w3.org/2000/svg">
  <g transform="matrix(1.0, 0.0, 0.0, 1.0, 41.85, 5.0)">
    <path d="M230.15 2.0 Q230.95 11.4 230.75 12.25 228.65 20.7 228.65 76.2 228.65 93.75 229.25 96.95 229.85 100.05 229.85 102.1 229.85 105.0 229.25 112.15 228.7 119.35 228.7 123.35 228.7 127.6 229.15 138.05 L229.8 152.85 230.7 176.0 231.2 194.75 Q231.2 202.7 228.75 229.7 226.45 255.7 226.65 264.65 L224.4 264.45 209.5 262.95 182.15 263.9 155.7 264.95 150.1 264.1 146.7 263.2 Q145.35 263.2 142.5 264.1 L139.25 265.0 131.2 263.65 124.4 262.15 121.0 263.35 Q117.55 264.5 116.25 264.5 80.8 264.5 68.1 263.75 L53.35 263.0 43.7 263.55 14.75 265.35 -3.25 266.4 -14.15 260.4 Q-20.0 257.2 -22.3 256.45 -24.7 255.7 -28.85 250.35 -32.9 245.0 -32.85 237.05 -32.8 229.15 -34.15 220.5 L-34.7 217.25 -34.7 216.8 -34.65 198.1 Q-34.65 194.25 -38.25 139.85 L-41.85 83.5 Q-40.4 26.85 -39.95 24.65 -39.4 21.65 -39.4 18.2 L-39.85 15.25 -40.3 12.3 -40.25 4.45 -37.0 4.65 -22.5 3.6 8.85 5.75 48.05 7.9 64.1 7.2 74.7 6.55 84.15 7.35 113.5 8.3 169.15 5.15 Q209.25 2.05 230.15 2.0" fill="#150d01" fill-opacity="0.34117648" fill-rule="evenodd" stroke="none"/>
    <path d="M226.05 -5.0 L226.5 -3.5 226.5 -3.3 Q227.95 -4.7 228.65 -4.25 L228.95 -3.5 Q228.15 -0.25 227.7 2.8 L227.7 3.2 Q227.15 4.85 226.9 6.55 225.55 11.95 225.45 15.45 223.9 51.6 224.75 87.35 226.4 94.75 225.2 104.15 224.1 113.7 224.75 124.3 225.35 135.05 226.55 176.5 L226.95 188.05 Q226.05 197.85 225.45 210.7 224.05 239.2 223.15 246.35 222.3 253.75 222.35 255.15 L222.45 258.05 221.3 258.0 220.9 257.8 220.35 257.8 206.0 256.2 205.75 256.2 199.85 256.7 173.45 258.1 173.15 258.1 172.25 258.1 168.0 258.1 154.3 258.35 153.05 258.35 Q150.4 256.9 146.65 256.7 141.75 256.1 138.9 258.35 L136.75 258.35 129.0 256.2 Q121.0 254.45 115.4 257.85 L93.8 256.85 Q85.45 256.55 77.05 256.55 L76.25 256.55 69.5 256.55 63.8 256.8 63.6 256.8 Q51.95 255.5 36.55 257.8 L1.5 259.75 -5.2 252.65 Q-4.45 252.65 -2.3 254.45 -0.1 256.2 4.25 256.6 8.6 257.1 18.6 254.95 28.6 252.9 42.55 254.25 54.85 255.5 66.7 253.3 78.0 251.55 89.4 251.55 97.9 251.55 105.95 253.45 109.9 254.4 114.2 254.15 119.1 253.45 123.85 251.7 131.15 248.75 138.6 251.7 142.75 253.45 146.9 252.0 153.0 249.75 158.9 252.6 L159.3 252.6 163.7 252.0 Q169.7 248.35 175.2 251.05 L186.8 252.35 Q194.8 253.85 197.8 253.25 200.95 252.6 201.75 252.0 202.5 251.25 210.85 251.15 L217.2 251.4 Q216.8 236.45 219.3 221.15 220.85 211.5 217.2 203.4 215.15 198.9 217.45 199.15 219.75 199.5 219.9 181.4 220.1 163.2 222.45 152.9 225.05 142.85 221.9 128.1 218.8 113.3 219.45 91.3 219.65 75.75 219.0 60.5 218.3 47.15 220.15 33.7 221.85 18.35 221.35 3.5 187.1 1.6 160.55 3.05 145.55 4.0 130.15 3.8 120.7 3.75 111.65 6.9 106.1 8.85 100.0 9.15 81.95 10.2 54.45 6.05 L46.25 4.75 Q29.7 6.9 12.7 3.7 L4.15 3.2 Q-2.75 3.65 -9.3 1.9 -12.05 4.5 -17.1 3.95 -21.75 3.5 -26.55 4.05 L-30.1 4.2 Q-29.45 20.2 -31.6 33.15 L-31.55 35.2 Q-27.85 62.4 -29.6 78.8 -31.15 93.45 -31.25 111.9 -27.45 112.05 -26.95 114.0 -27.0 116.25 -32.25 119.85 -27.7 136.5 -29.7 157.3 -30.1 176.2 -27.0 183.15 -23.8 190.15 -27.0 193.65 -30.15 197.15 -30.2 216.75 L-30.05 226.75 -33.9 221.8 -34.45 216.05 Q-34.3 210.7 -32.6 204.6 L-32.0 201.8 Q-30.4 193.65 -31.3 184.9 -35.25 151.6 -35.5 117.75 -33.8 117.1 -33.7 115.8 -31.35 114.95 -30.85 114.1 -32.5 113.2 -35.6 113.0 -35.9 94.9 -38.05 76.6 -37.8 48.35 -36.7 19.9 -35.45 15.7 -35.65 11.2 -35.75 8.55 -36.05 7.3 L-36.55 5.35 Q-36.15 1.95 -36.4 -1.3 L-36.45 -2.5 Q-33.45 -2.2 -30.05 -2.45 L-20.9 -3.1 -19.25 -3.4 Q-13.05 -1.0 3.15 -0.85 L19.2 -0.2 30.3 0.3 Q49.6 1.25 51.0 0.8 L54.1 0.15 67.1 0.3 Q74.95 -0.8 78.3 0.0 L102.65 1.15 Q123.6 1.6 137.6 0.65 151.7 -0.2 160.85 -1.7 196.25 -2.45 226.05 -5.0" fill="#b8802a" fill-rule="evenodd" stroke="none"/>
    <path d="M-30.05 226.75 L-30.2 216.75 Q-30.15 197.15 -27.0 193.65 -23.8 190.15 -27.0 183.15 -30.1 176.2 -29.7 157.3 -27.7 136.5 -32.25 119.85 -27.0 116.25 -26.95 114.0 -27.45 112.05 -31.25 111.9 -31.15 93.45 -29.6 78.8 -27.85 62.4 -31.55 35.2 L-31.6 33.15 Q-29.45 20.2 -30.1 4.2 L-26.55 4.05 Q-21.75 3.5 -17.1 3.95 -12.05 4.5 -9.3 1.9 -2.75 3.65 4.15 3.2 L12.7 3.7 Q29.7 6.9 46.25 4.75 L54.45 6.05 Q81.95 10.2 100.0 9.15 106.1 8.85 111.65 6.9 120.7 3.75 130.15 3.8 145.55 4.0 160.55 3.05 187.1 1.6 221.35 3.5 221.85 18.35 220.15 33.7 218.3 47.15 219.0 60.5 219.65 75.75 219.45 91.3 218.8 113.3 221.9 128.1 225.05 142.85 222.45 152.9 220.1 163.2 219.9 181.4 219.75 199.5 217.45 199.15 215.15 198.9 217.2 203.4 220.85 211.5 219.3 221.15 216.8 236.45 217.2 251.4 L210.85 251.15 Q202.5 251.25 201.75 252.0 200.95 252.6 197.8 253.25 194.8 253.85 186.8 252.35 L175.2 251.05 Q169.7 248.35 163.7 252.0 L159.3 252.6 158.9 252.6 Q153.0 249.75 146.9 252.0 142.75 253.45 138.6 251.7 131.15 248.75 123.85 251.7 119.1 253.45 114.2 254.15 109.9 254.4 105.95 253.45 97.9 251.55 89.4 251.55 78.0 251.55 66.7 253.3 54.85 255.5 42.55 254.25 28.6 252.9 18.6 254.95 8.6 257.1 4.25 256.6 -0.1 256.2 -2.3 254.45 -4.45 252.65 -5.2 252.65 L-7.5 250.4 -11.75 246.3 1.25 247.1 Q11.45 248.15 18.55 241.35 41.3 249.05 55.4 244.4 69.65 239.7 104.05 244.4 138.4 249.2 156.65 243.85 174.8 238.35 184.8 246.0 187.55 247.8 207.15 244.75 208.3 243.25 209.15 241.15 209.5 239.1 208.6 214.0 207.7 188.55 212.05 179.75 216.6 170.85 216.6 146.9 216.6 122.9 211.2 100.6 205.45 78.35 213.15 39.35 220.45 -0.2 206.75 8.95 199.5 10.25 170.55 10.95 141.65 11.65 140.3 19.05 L137.55 26.55 Q137.45 25.75 122.85 18.85 106.8 11.4 85.3 14.9 63.75 18.4 16.45 13.7 -30.85 8.9 -27.15 17.45 -23.35 26.05 -22.1 38.35 -21.95 41.1 -22.3 43.6 L-23.05 45.3 Q-24.15 47.05 -24.6 48.9 -25.8 52.75 -26.1 56.55 -22.35 63.1 -20.05 70.45 L-19.7 72.15 Q-19.1 87.25 -21.35 101.5 -23.75 116.1 -24.55 131.45 -25.7 142.2 -27.25 152.4 -24.25 158.1 -23.2 163.9 -21.2 174.3 -19.95 185.2 -18.85 194.35 -15.0 202.55 -12.05 208.6 -15.8 213.9 L-21.0 220.6 Q-20.65 223.55 -19.5 225.75 -16.35 232.6 -18.2 240.25 L-22.8 235.85 -30.05 226.75" fill="#cdae4f" fill-rule="evenodd" stroke="none"/>
    <path d="M226.5 -3.5 L226.05 -5.0 226.5 -5.0 226.5 -3.5 M-18.2 240.25 Q-16.35 232.6 -19.5 225.75 -20.65 223.55 -21.0 220.6 L-15.8 213.9 Q-12.05 208.6 -15.0 202.55 -18.85 194.35 -19.95 185.2 -21.2 174.3 -23.2 163.9 -24.25 158.1 -27.25 152.4 -25.7 142.2 -24.55 131.45 -23.75 116.1 -21.35 101.5 -19.1 87.25 -19.7 72.15 L-20.05 70.45 Q-22.35 63.1 -26.1 56.55 -25.8 52.75 -24.6 48.9 -24.15 47.05 -23.05 45.3 L-22.3 43.6 Q-21.95 41.1 -22.1 38.35 -23.35 26.05 -27.15 17.45 -30.85 8.9 16.45 13.7 63.75 18.4 85.3 14.9 106.8 11.4 122.85 18.85 137.45 25.75 137.55 26.55 L140.3 19.05 Q141.65 11.65 170.55 10.95 199.5 10.25 206.75 8.95 220.45 -0.2 213.15 39.35 205.45 78.35 211.2 100.6 216.6 122.9 216.6 146.9 216.6 170.85 212.05 179.75 207.7 188.55 208.6 214.0 209.5 239.1 209.15 241.15 208.3 243.25 207.15 244.75 187.55 247.8 184.8 246.0 174.8 238.35 156.65 243.85 138.4 249.2 104.05 244.4 69.65 239.7 55.4 244.4 41.3 249.05 18.55 241.35 11.45 248.15 1.25 247.1 L-11.75 246.3 -18.2 240.25" fill="#dec884" fill-rule="evenodd" stroke="none"/>
    <path d="M-5.45 221.25 Q-9.35 226.45 1.1 258.45 -28.6 251.1 -33.95 224.7 -30.55 225.05 -32.05 221.3 L-5.45 221.25" fill="#382c05" fill-opacity="0.30980393" fill-rule="evenodd" stroke="none"/>
    <path d="M3.0 259.95 Q-32.7 255.0 -34.0 219.6 -23.35 227.45 -12.05 223.7 -14.8 237.25 2.5 258.7 L3.0 259.95" fill="#cdae4f" fill-rule="evenodd" stroke="none"/>
    <path d="M-22.35 224.7 L-22.85 225.3 -22.65 224.65 -22.35 224.7 M-6.5 246.9 L-6.1 246.55 -5.9 246.85 -6.5 246.9" fill="#cdae4f" fill-rule="evenodd" stroke="none"/>
    <path d="M2.5 258.7 L3.0 259.95 Q-33.95 254.85 -34.35 217.3 -33.0 220.45 -31.0 221.6 L-31.05 223.65 Q-31.05 225.8 -30.5 228.55 L-30.55 230.5 Q-30.55 237.95 -26.4 243.0 -23.95 246.1 -20.5 247.65 -17.8 249.9 -14.35 251.35 L-13.6 251.85 Q-8.6 254.6 -4.95 254.2 -2.95 253.95 -1.9 252.85 L2.5 258.7" fill="#a36d1b" fill-rule="evenodd" stroke="none"/>
  </g>
</svg>
