<?xml version="1.0" encoding="UTF-8" standalone="no"?>
<svg xmlns:ffdec="https://www.free-decompiler.com/flash" xmlns:xlink="http://www.w3.org/1999/xlink" ffdec:objectType="shape" height="98.25px" width="193.6px" xmlns="http://www.w3.org/2000/svg">
  <g transform="matrix(1.0, 0.0, 0.0, 1.0, -4.2, -141.65)">
    <path d="M161.2 187.6 Q160.15 194.0 159.9 199.95 159.1 218.25 165.9 222.15 175.95 227.95 184.65 224.55 190.3 222.25 192.3 218.75 198.8 207.5 192.15 185.3 186.2 165.4 174.6 170.4 170.65 172.0 166.6 176.35 163.75 179.4 162.3 181.85 162.0 182.4 161.2 187.6 M160.8 182.6 Q162.4 176.6 162.95 175.65 167.25 168.2 173.15 166.4 178.3 164.85 183.8 167.85 188.75 170.5 192.3 175.85 195.9 181.1 196.4 186.45 197.95 194.9 197.8 204.1 197.55 215.05 194.8 219.75 192.1 224.45 184.0 227.95 175.9 231.4 165.4 225.55 154.85 219.65 157.8 197.55 158.7 190.4 160.8 182.6" fill="#85550c" fill-rule="evenodd" stroke="none"/>
    <path d="M177.8 149.5 Q174.75 154.8 177.35 159.75 L179.15 163.2 Q179.75 165.1 178.75 166.9 177.6 168.85 176.0 167.95 175.6 167.7 174.4 163.6 L173.1 158.55 Q172.3 154.85 174.2 151.55 174.8 150.5 176.15 149.0 177.85 147.05 178.75 147.05 L177.8 149.5" fill="#85550c" fill-rule="evenodd" stroke="none"/>
    <path d="M164.8 194.95 Q162.85 193.8 162.6 192.85 L162.75 192.15 Q163.0 191.7 169.9 192.25 L176.75 192.9 Q177.55 191.55 175.95 179.75 174.3 167.95 174.55 167.5 176.6 163.95 178.6 178.1 180.55 192.25 179.15 194.75 L172.15 195.1 164.8 194.95" fill="#85550c" fill-rule="evenodd" stroke="none"/>
    <path d="M176.2 169.35 L174.2 170.7 171.8 172.05 173.8 171.8 Q175.15 171.6 175.5 171.8 176.35 172.3 175.65 173.3 L173.2 174.65 170.5 175.95 173.2 175.35 176.05 175.25 Q176.75 175.65 176.3 176.3 176.05 176.7 170.75 179.1 L170.7 179.15 173.55 178.4 Q175.75 177.95 176.55 178.4 177.3 178.8 176.75 179.55 176.35 180.25 174.7 180.85 172.25 181.75 172.15 181.8 L173.6 181.7 175.15 181.75 Q175.9 182.15 175.45 182.95 L174.5 183.65 173.15 184.3 173.15 184.4 174.75 184.05 176.45 184.2 Q177.3 184.7 176.55 185.55 L176.1 186.1 175.4 186.6 176.3 186.65 177.35 186.75 Q178.0 187.1 177.55 187.65 177.35 188.05 176.75 188.25 175.85 188.6 175.45 188.85 L176.15 189.1 Q176.8 189.45 176.55 189.95 L176.05 190.5 Q176.85 190.9 176.45 191.6 170.65 194.2 169.9 193.75 168.9 193.15 169.0 192.65 L169.5 192.15 169.55 192.0 168.9 192.4 167.6 191.95 Q166.95 191.6 167.4 190.8 L168.25 190.1 168.3 190.05 165.3 191.15 Q163.0 191.95 162.5 191.65 162.0 191.4 162.05 190.9 L162.2 190.5 Q162.5 189.95 167.0 188.2 L172.3 186.2 172.35 186.2 167.15 187.8 Q163.2 189.05 162.65 188.7 161.9 188.3 162.05 187.75 L162.3 187.3 Q162.6 186.75 163.45 186.3 L165.1 185.55 164.0 185.85 162.15 185.9 Q161.6 185.55 161.65 185.15 L161.9 184.8 Q162.2 184.2 166.2 182.5 L170.3 180.8 167.65 181.65 164.95 181.95 Q164.25 181.55 164.25 181.15 L164.5 180.65 Q164.85 180.05 168.35 178.4 166.05 179.35 165.1 178.8 164.55 178.45 164.65 178.05 L164.8 177.65 Q165.4 176.6 168.65 175.15 L172.7 173.4 169.15 174.55 Q166.5 175.4 166.0 175.1 165.6 174.85 165.65 174.5 L165.8 174.2 Q166.1 173.7 169.95 171.5 174.3 169.0 176.35 168.95 L176.2 169.35 M172.25 184.5 L172.2 184.6 172.5 184.6 172.75 184.45 172.25 184.5" fill="#85550c" fill-rule="evenodd" stroke="none"/>
    <path d="M4.85 172.2 Q6.6 167.4 12.6 168.55 13.15 161.4 18.0 160.45 20.5 159.95 23.05 161.05 26.9 162.05 28.1 163.05 30.6 165.15 30.4 170.3 30.15 175.15 31.25 177.45 31.9 178.7 33.65 179.85 35.1 180.85 35.35 182.15 35.7 184.2 34.35 189.05 33.15 193.45 29.8 192.9 L27.15 192.25 24.95 192.3 Q24.1 192.85 21.95 196.6 19.9 200.45 19.15 200.9 L16.5 202.35 14.75 202.0 Q12.65 201.4 9.6 195.65 6.6 189.9 5.1 183.5 3.4 176.2 4.85 172.2" fill="#b8802a" fill-rule="evenodd" stroke="none"/>
    <path d="M114.4 141.9 Q119.45 140.8 121.5 145.05 125.85 152.5 128.95 153.2 130.85 153.65 134.6 152.65 139.15 152.65 140.7 157.35 141.5 159.7 141.3 162.2 141.3 164.35 137.0 165.85 137.85 167.2 140.35 169.85 142.0 171.55 142.0 173.25 142.0 174.9 138.9 177.35 135.45 180.2 132.15 180.2 129.75 180.2 128.45 178.1 127.15 176.0 125.1 176.0 123.2 176.0 120.95 177.0 L112.3 179.8 Q105.9 181.6 98.75 177.15 91.5 172.6 94.55 168.6 97.5 164.5 101.45 160.3 L105.55 156.0 Q106.35 154.8 106.55 151.5 106.8 148.15 107.65 146.55 109.7 142.9 114.4 141.9" fill="#b8802a" fill-rule="evenodd" stroke="none"/>
    <path d="M88.5 215.25 Q89.1 214.65 90.65 213.8 92.2 212.9 94.7 208.3 97.1 203.75 104.15 210.8 109.95 210.85 111.15 212.3 L113.3 214.85 Q114.2 216.0 116.8 216.7 118.8 217.3 121.65 219.0 124.55 220.65 124.55 222.5 124.55 224.4 121.5 225.35 118.4 226.4 118.65 230.3 118.8 233.6 118.1 235.5 116.5 239.9 110.95 239.9 109.7 239.9 109.05 239.4 L108.05 238.35 Q106.6 236.75 102.35 236.75 101.45 236.75 98.65 237.65 95.8 238.55 93.7 238.55 89.6 238.55 88.55 236.35 88.2 235.7 88.2 234.85 88.25 234.1 84.9 231.2 81.55 228.25 83.2 224.65 84.85 221.0 87.8 221.55 90.8 222.1 90.15 219.55 89.45 217.0 88.7 216.4 87.9 215.75 88.5 215.25" fill="#b8802a" fill-rule="evenodd" stroke="none"/>
    <path d="M97.1 230.7 Q95.45 230.7 95.45 229.1 L103.1 221.5 Q110.7 214.65 110.7 218.25 110.7 218.95 104.05 224.85 L97.1 230.7" fill="#562907" fill-rule="evenodd" stroke="none"/>
    <path d="M102.55 221.8 Q108.0 229.45 108.0 230.9 L107.7 231.75 Q107.3 232.35 106.5 232.35 L97.1 219.3 Q97.1 214.2 102.55 221.8" fill="#562907" fill-rule="evenodd" stroke="none"/>
    <path d="M122.4 156.95 Q122.4 158.85 122.9 162.35 L123.35 166.35 124.25 166.35 Q125.9 166.6 125.9 167.45 L125.4 168.25 123.7 168.4 Q117.95 168.5 117.95 167.3 117.95 166.8 118.3 166.45 L120.45 166.3 121.35 166.35 121.15 164.75 Q121.0 163.5 121.0 159.25 L120.9 159.15 119.9 160.45 Q119.0 161.5 118.3 161.5 117.25 161.5 117.25 160.8 120.0 158.55 120.5 155.9 121.0 153.25 121.75 154.2 122.4 155.05 122.4 156.95" fill="#562907" fill-rule="evenodd" stroke="none"/>
    <path d="M15.7 177.75 Q15.7 179.75 14.0 180.75 10.7 182.45 9.0 184.2 11.5 183.5 16.3 184.1 L19.55 183.6 Q20.7 183.6 18.9 185.55 17.05 187.35 9.25 186.9 L8.9 187.15 Q7.45 188.25 7.15 185.35 L7.05 184.5 Q7.05 182.75 10.6 180.65 14.05 178.6 14.05 177.65 14.05 176.9 13.4 175.9 12.65 174.6 11.5 174.65 L11.55 175.45 Q11.55 176.8 10.3 176.8 L8.0 176.4 7.8 176.1 Q9.25 172.0 12.55 173.25 15.7 174.4 15.7 177.75" fill="#562907" fill-rule="evenodd" stroke="none"/>
    <path d="M33.35 181.6 L32.85 179.7 39.3 178.1 Q44.85 177.0 44.05 178.5 43.2 180.0 39.4 180.8 L33.35 181.6" fill="#562907" fill-rule="evenodd" stroke="none"/>
    <path d="M55.6 177.6 L49.5 178.4 46.65 178.1 Q46.4 177.75 45.95 177.5 50.0 176.05 55.5 174.9 61.05 173.8 60.25 175.3 59.4 176.8 55.6 177.6" fill="#562907" fill-rule="evenodd" stroke="none"/>
    <path d="M70.3 174.35 L65.0 175.05 62.95 174.65 62.25 174.05 Q66.3 172.6 71.8 171.45 77.35 170.35 75.75 171.95 74.1 173.55 70.3 174.35" fill="#562907" fill-rule="evenodd" stroke="none"/>
    <path d="M86.5 171.4 L81.2 172.1 79.15 171.7 78.45 171.1 Q82.5 169.65 88.0 168.5 93.55 167.4 91.95 169.0 90.3 170.6 86.5 171.4" fill="#562907" fill-rule="evenodd" stroke="none"/>
    <path d="M103.0 168.0 L97.7 168.7 95.65 168.3 94.95 167.7 Q99.0 166.25 104.5 165.1 110.05 164.0 108.45 165.6 106.8 167.2 103.0 168.0" fill="#562907" fill-rule="evenodd" stroke="none"/>
    <path d="M108.25 162.0 Q108.95 160.5 111.05 160.3 L110.3 160.8 111.85 160.6 Q114.05 160.6 115.3 162.65 L116.15 164.7 Q116.15 165.5 115.45 166.5 114.35 168.1 112.25 168.1 109.55 168.1 108.45 166.2 L107.9 164.25 Q107.9 162.8 108.25 162.0 M109.45 161.7 L109.4 161.8 109.05 162.6 108.85 163.45 Q108.85 165.35 110.2 166.6 L110.3 166.6 Q109.4 165.45 109.25 164.9 L109.15 163.6 Q109.15 162.6 109.45 161.7 M111.2 162.0 L111.25 161.95 Q110.9 161.9 110.5 162.45 L111.2 162.0 M110.35 164.05 Q110.35 164.75 110.85 165.35 111.55 166.15 112.8 166.15 114.2 166.15 113.9 164.7 113.9 163.05 112.15 162.9 110.35 162.75 110.35 164.05 M113.2 162.3 Q113.2 162.15 112.55 161.95 L112.6 162.0 113.2 162.3 M114.95 164.3 L114.8 163.9 114.65 163.65 114.8 165.1 114.95 164.3" fill="#562907" fill-rule="evenodd" stroke="none"/>
    <path d="M36.25 185.15 Q41.7 188.95 41.7 189.95 L41.4 190.7 41.05 191.05 Q40.0 191.05 33.2 186.05 L33.6 185.2 34.1 183.8 Q35.05 184.3 36.25 185.15" fill="#562907" fill-rule="evenodd" stroke="none"/>
    <path d="M53.6 197.95 Q52.15 197.95 47.8 195.0 L43.7 192.0 Q43.7 189.85 49.3 192.9 54.85 196.0 54.85 196.8 54.85 197.95 53.6 197.95" fill="#562907" fill-rule="evenodd" stroke="none"/>
    <path d="M60.6 199.65 Q65.25 202.25 65.25 203.4 L65.0 204.15 64.55 204.45 Q62.8 204.45 59.2 201.6 L55.95 198.8 Q55.95 197.0 60.6 199.65" fill="#562907" fill-rule="evenodd" stroke="none"/>
    <path d="M74.45 211.4 Q73.0 211.4 69.5 208.35 L66.35 205.45 Q66.35 203.2 71.0 206.05 75.6 208.85 75.6 210.4 75.6 211.4 74.45 211.4" fill="#562907" fill-rule="evenodd" stroke="none"/>
    <path d="M87.8 217.3 L87.2 217.7 Q84.8 217.7 81.1 214.95 77.85 212.5 77.85 212.0 77.85 210.05 82.95 213.1 85.45 214.65 88.0 216.6 L87.8 217.3" fill="#562907" fill-rule="evenodd" stroke="none"/>
    <path d="M27.15 180.1 Q25.45 179.85 25.45 180.85 L25.7 181.55 Q26.0 182.0 26.25 182.0 L26.5 181.85 26.75 181.7 Q27.95 181.7 27.4 183.25 L28.65 182.4 28.8 181.55 Q28.8 180.35 27.15 180.1 M30.1 181.6 Q30.1 182.4 29.35 183.45 28.25 185.0 26.05 185.0 24.25 185.0 23.35 183.85 L22.8 182.7 Q22.8 178.15 26.45 178.4 27.85 178.45 28.95 179.35 30.1 180.35 30.1 181.6 M24.1 180.95 L23.95 181.4 Q23.95 183.7 26.05 183.7 L26.65 183.65 26.95 183.5 Q25.05 183.1 24.5 182.25 L24.1 180.95" fill="#562907" fill-rule="evenodd" stroke="none"/>
    <path d="M40.2 174.25 Q40.2 175.8 38.25 177.55 36.95 178.75 34.2 180.45 L39.6 182.2 Q41.85 183.0 41.85 183.5 41.85 184.4 41.25 184.4 39.15 184.4 35.1 182.7 31.35 181.1 31.35 180.8 33.55 178.05 35.8 175.85 40.2 171.45 40.2 174.25" fill="#562907" fill-rule="evenodd" stroke="none"/>
    <path d="M90.3 218.5 Q90.3 219.7 88.8 219.7 L85.85 219.55 78.0 219.1 77.55 218.2 77.25 217.05 Q77.25 216.2 78.15 216.2 L86.5 217.25 85.35 213.2 85.25 209.95 Q85.25 207.05 86.2 207.25 87.1 207.5 87.15 210.4 87.35 212.7 88.85 215.7 L90.3 218.5" fill="#562907" fill-rule="evenodd" stroke="none"/>
  </g>
</svg>
