<?xml version="1.0" encoding="UTF-8" standalone="no"?>
<svg xmlns:ffdec="https://www.free-decompiler.com/flash" xmlns:xlink="http://www.w3.org/1999/xlink" ffdec:objectType="shape" height="271.4px" width="242.4px" xmlns="http://www.w3.org/2000/svg">
  <g transform="matrix(1.0, 0.0, 0.0, 1.0, 26.4, 5.0)">
    <path d="M215.05 2.0 L215.6 12.25 Q213.7 20.7 213.7 76.2 213.7 93.75 214.25 96.95 214.8 100.05 214.8 102.1 L214.25 112.15 Q213.75 119.35 213.75 123.35 L214.15 138.05 214.7 152.85 215.5 176.0 216.0 194.75 Q216.0 202.7 213.8 229.7 211.75 255.7 211.95 264.65 L209.95 264.45 196.7 262.95 172.45 263.9 148.95 264.95 144.0 264.1 140.95 263.2 Q139.75 263.2 137.25 264.1 L134.35 265.0 Q132.7 265.0 127.25 263.65 L121.2 262.15 118.15 263.35 Q115.1 264.5 113.95 264.5 82.5 264.5 71.2 263.75 L58.1 263.0 49.55 263.55 23.85 265.35 7.85 266.4 -1.8 260.4 Q-7.0 257.2 -9.05 256.45 -11.15 255.7 -14.85 250.35 -18.45 245.0 -18.4 237.05 -18.35 229.15 -19.55 220.5 L-20.05 217.25 -20.05 216.8 -20.0 198.1 Q-20.0 194.25 -23.2 139.85 L-26.4 83.5 Q-25.15 26.85 -24.75 24.65 -24.2 21.65 -24.2 18.2 L-24.6 15.25 -25.0 12.3 -24.95 4.45 -22.1 4.65 -9.25 3.6 18.6 5.75 53.4 7.9 67.65 7.2 77.05 6.55 85.45 7.35 111.5 8.3 Q124.95 8.3 160.9 5.15 196.5 2.05 215.05 2.0" fill="#150d01" fill-opacity="0.34117648" fill-rule="evenodd" stroke="none"/>
    <path d="M-15.9 226.75 L-19.35 221.8 -19.85 216.05 Q-19.7 210.7 -18.2 204.6 L-17.65 201.8 Q-16.25 193.65 -17.05 184.9 -20.55 151.6 -20.75 117.75 -19.25 117.1 -19.15 115.8 -17.1 114.95 -16.65 114.1 -18.1 113.2 -20.85 113.0 -21.1 94.9 -23.05 76.6 -22.8 48.35 -21.85 19.9 -20.7 15.7 -20.9 11.2 -21.0 8.55 -21.25 7.3 L-21.7 5.35 Q-21.35 1.95 -21.55 -1.3 L-21.6 -2.5 Q-18.95 -2.2 -15.9 -2.45 L-7.8 -3.1 -6.35 -3.4 Q-0.85 -1.0 13.55 -0.85 L27.8 -0.2 37.65 0.3 Q54.8 1.25 56.0 0.8 L58.75 0.15 70.3 0.3 80.25 0.0 101.85 1.15 Q120.45 1.6 132.9 0.65 145.4 -0.2 153.55 -1.7 184.95 -2.45 211.4 -5.0 L211.8 -3.5 211.8 -3.3 Q213.1 -4.7 213.7 -4.25 L214.0 -3.5 Q213.25 -0.25 212.85 2.8 L212.85 3.2 212.15 6.55 Q210.95 11.95 210.9 15.45 209.5 51.6 210.25 87.35 211.7 94.75 210.65 104.15 209.7 113.7 210.25 124.3 210.8 135.05 211.85 176.5 L212.2 188.05 Q211.4 197.85 210.9 210.7 209.65 239.2 208.85 246.35 208.1 253.75 208.15 255.15 L208.2 258.05 207.2 258.0 Q207.0 258.0 206.85 257.8 L206.35 257.8 193.6 256.2 193.4 256.2 188.15 256.7 164.7 258.1 164.45 258.1 163.65 258.1 159.9 258.1 147.7 258.35 146.6 258.35 Q144.25 256.9 140.95 256.7 136.6 256.1 134.05 258.35 L132.15 258.35 Q128.7 257.05 125.25 256.2 118.15 254.45 113.2 257.85 L94.0 256.85 Q86.6 256.55 79.15 256.55 L78.45 256.55 72.45 256.55 67.4 256.8 67.2 256.8 Q56.85 255.5 43.2 257.8 L12.1 259.75 6.15 252.65 Q6.8 252.65 8.7 254.45 10.65 256.2 14.5 256.6 18.4 257.1 27.25 254.95 36.15 252.9 48.5 254.25 59.45 255.5 69.95 253.3 80.0 251.55 90.1 251.55 97.65 251.55 104.8 253.45 108.3 254.4 112.1 254.15 116.45 253.45 120.7 251.7 127.15 248.75 133.8 251.7 137.45 253.45 141.15 252.0 146.55 249.75 151.8 252.6 L152.15 252.6 156.05 252.0 Q161.4 248.35 166.25 251.05 L176.55 252.35 Q183.65 253.85 186.35 253.25 189.15 252.6 189.85 252.0 190.5 251.25 197.9 251.15 L203.55 251.4 Q203.2 236.45 205.4 221.15 206.8 211.5 203.55 203.4 201.75 198.9 203.8 199.15 205.8 199.5 205.95 181.4 206.15 163.2 208.2 152.9 210.5 142.85 207.75 128.1 204.95 113.3 205.55 91.3 205.75 75.75 205.15 60.5 204.55 47.15 206.15 33.7 207.7 18.35 207.25 3.5 176.85 1.6 153.25 3.05 139.95 4.0 126.3 3.8 117.9 3.75 109.85 6.9 104.95 8.85 99.5 9.15 83.5 10.2 59.1 6.05 L51.8 4.75 Q37.1 6.9 22.0 3.7 L14.45 3.2 Q8.3 3.65 2.5 1.9 0.05 4.5 -4.45 3.95 -8.55 3.5 -12.8 4.05 L-15.95 4.2 Q-15.4 20.2 -17.3 33.15 L-17.25 35.2 Q-13.95 62.4 -15.55 78.8 -16.9 93.45 -17.0 111.9 -13.6 112.05 -13.15 114.0 -13.2 116.25 -17.9 119.85 -13.85 136.5 -15.6 157.3 -15.95 176.2 -13.2 183.15 -10.4 190.15 -13.2 193.65 -16.0 197.15 -16.05 216.75 L-15.9 226.75" fill="#b8802a" fill-rule="evenodd" stroke="none"/>
    <path d="M-15.9 226.75 L-16.05 216.75 Q-16.0 197.15 -13.2 193.65 -10.4 190.15 -13.2 183.15 -15.95 176.2 -15.6 157.3 -13.85 136.5 -17.9 119.85 -13.2 116.25 -13.15 114.0 -13.6 112.05 -17.0 111.9 -16.9 93.45 -15.55 78.8 -13.95 62.4 -17.25 35.2 L-17.3 33.15 Q-15.4 20.2 -15.95 4.2 L-12.8 4.05 Q-8.55 3.5 -4.45 3.95 0.05 4.5 2.5 1.9 8.3 3.65 14.45 3.2 L22.0 3.7 Q37.1 6.9 51.8 4.75 L59.1 6.05 Q83.5 10.2 99.5 9.15 104.95 8.85 109.85 6.9 117.9 3.75 126.3 3.8 139.95 4.0 153.25 3.05 176.85 1.6 207.25 3.5 207.7 18.35 206.15 33.7 204.55 47.15 205.15 60.5 205.75 75.75 205.55 91.3 204.95 113.3 207.75 128.1 210.5 142.85 208.2 152.9 206.15 163.2 205.95 181.4 205.8 199.5 203.8 199.15 201.75 198.9 203.55 203.4 206.8 211.5 205.4 221.15 203.2 236.45 203.55 251.4 L197.9 251.15 Q190.5 251.25 189.85 252.0 189.15 252.6 186.35 253.25 183.65 253.85 176.55 252.35 L166.25 251.05 Q161.4 248.35 156.05 252.0 L152.15 252.6 151.8 252.6 Q146.55 249.75 141.15 252.0 137.45 253.45 133.8 251.7 127.15 248.75 120.7 251.7 116.45 253.45 112.1 254.15 108.3 254.4 104.8 253.45 97.65 251.55 90.1 251.55 80.0 251.55 69.95 253.3 59.45 255.5 48.5 254.25 36.15 252.9 27.25 254.95 18.4 257.1 14.5 256.6 10.65 256.2 8.7 254.45 6.8 252.65 6.15 252.65 L4.1 250.4 0.3 246.3 11.85 247.1 Q20.9 248.15 27.2 241.35 47.4 249.05 59.95 244.4 72.6 239.7 103.1 244.4 133.6 249.2 149.8 243.85 165.9 238.35 174.8 246.0 177.25 247.8 194.65 244.75 195.65 243.25 196.4 241.15 196.7 239.1 195.9 214.0 195.1 188.55 199.0 179.75 203.0 170.85 203.0 146.9 203.0 122.9 198.25 100.6 193.1 78.35 199.95 39.35 206.45 -0.2 194.3 8.95 187.85 10.25 162.15 10.95 136.5 11.65 135.3 19.05 L132.85 26.55 Q132.75 25.75 119.8 18.85 105.55 11.4 86.45 14.9 67.35 18.4 25.35 13.7 -16.65 8.9 -13.35 17.45 -10.0 26.05 -8.85 38.35 -8.75 41.1 -9.05 43.6 L-9.7 45.3 Q-10.7 47.05 -11.1 48.9 -12.15 52.75 -12.4 56.55 -9.1 63.1 -7.05 70.45 L-6.75 72.15 Q-6.2 87.25 -8.2 101.5 -10.35 116.1 -11.05 131.45 -12.05 142.2 -13.45 152.4 -10.8 158.1 -9.85 163.9 -8.05 174.3 -6.95 185.2 -6.0 194.35 -2.55 202.55 0.05 208.6 -3.3 213.9 -5.45 217.3 -7.9 220.6 -7.6 223.55 -6.55 225.75 -3.75 232.6 -5.4 240.25 L-9.5 235.85 -15.9 226.75" fill="#cdae4f" fill-rule="evenodd" stroke="none"/>
    <path d="M211.8 -3.5 L211.4 -5.0 211.8 -5.0 211.8 -3.5 M-5.4 240.25 Q-3.75 232.6 -6.55 225.75 -7.6 223.55 -7.9 220.6 -5.45 217.3 -3.3 213.9 0.05 208.6 -2.55 202.55 -6.0 194.35 -6.95 185.2 -8.05 174.3 -9.85 163.9 -10.8 158.1 -13.45 152.4 -12.05 142.2 -11.05 131.45 -10.35 116.1 -8.2 101.5 -6.2 87.25 -6.75 72.15 L-7.05 70.45 Q-9.1 63.1 -12.4 56.55 -12.15 52.75 -11.1 48.9 -10.7 47.05 -9.7 45.3 L-9.05 43.6 Q-8.75 41.1 -8.85 38.35 -10.0 26.05 -13.35 17.45 -16.65 8.9 25.35 13.7 67.35 18.4 86.45 14.9 105.55 11.4 119.8 18.85 132.75 25.75 132.85 26.55 L135.3 19.05 Q136.5 11.65 162.15 10.95 187.85 10.25 194.3 8.95 206.45 -0.2 199.95 39.35 193.1 78.35 198.25 100.6 203.0 122.9 203.0 146.9 203.0 170.85 199.0 179.75 195.1 188.55 195.9 214.0 196.7 239.1 196.4 241.15 195.65 243.25 194.65 244.75 177.25 247.8 174.8 246.0 165.9 238.35 149.8 243.85 133.6 249.2 103.1 244.4 72.6 239.7 59.95 244.4 47.4 249.05 27.2 241.35 20.9 248.15 11.85 247.1 L0.3 246.3 -5.4 240.25" fill="#dec884" fill-rule="evenodd" stroke="none"/>
    <path d="M5.95 221.25 Q2.45 226.45 11.75 258.45 -14.6 251.1 -19.4 224.7 -16.35 225.05 -17.7 221.3 L5.95 221.25" fill="#382c05" fill-opacity="0.30980393" fill-rule="evenodd" stroke="none"/>
    <path d="M13.45 259.95 Q-18.25 255.0 -19.45 219.6 -9.95 227.45 0.05 223.7 -2.35 237.25 13.0 258.7 L13.45 259.95" fill="#cdae4f" fill-rule="evenodd" stroke="none"/>
    <path d="M-9.1 224.7 L-9.5 225.3 -9.35 224.65 -9.1 224.7 M5.55 246.85 L4.95 246.9 5.35 246.55 5.55 246.85" fill="#cdae4f" fill-rule="evenodd" stroke="none"/>
    <path d="M13.45 259.95 Q-19.4 254.85 -19.7 217.3 -18.55 220.45 -16.75 221.6 L-16.8 223.65 Q-16.8 225.8 -16.3 228.55 L-16.35 230.5 Q-16.35 237.95 -12.65 243.0 -10.5 246.1 -7.45 247.65 -5.05 249.9 -1.95 251.35 L-1.3 251.85 Q3.15 254.6 6.35 254.2 8.15 253.95 9.05 252.85 L13.0 258.7 13.45 259.95" fill="#a36d1b" fill-rule="evenodd" stroke="none"/>
    <path d="M44.9 160.75 Q49.95 161.2 50.45 167.3 57.5 165.95 59.65 170.4 60.75 172.7 60.45 175.45 60.45 179.4 59.75 180.8 58.4 183.85 53.35 184.9 48.6 185.95 46.65 187.65 45.6 188.55 44.95 190.55 44.4 192.2 43.15 192.8 41.3 193.7 36.3 193.65 31.75 193.6 31.35 190.2 L31.35 187.45 Q31.3 185.95 30.7 185.35 29.95 184.65 25.75 183.6 21.55 182.6 20.85 182.0 19.05 180.25 18.8 179.8 L18.7 178.0 Q18.7 175.85 23.45 171.4 28.25 167.0 34.05 163.9 40.65 160.35 44.9 160.75" fill="#b8802a" fill-rule="evenodd" stroke="none"/>
  </g>
</svg>
