<?xml version="1.0" encoding="UTF-8" standalone="no"?>
<svg xmlns:ffdec="https://www.free-decompiler.com/flash" xmlns:xlink="http://www.w3.org/1999/xlink" ffdec:objectType="shape" height="162.8px" width="130.2px" xmlns="http://www.w3.org/2000/svg">
  <g transform="matrix(1.0, 0.0, 0.0, 1.0, -28.7, -73.7)">
    <path d="M131.3 138.5 Q136.35 137.4 138.4 141.65 142.75 149.1 145.85 149.8 147.75 150.25 151.5 149.25 156.05 149.25 157.6 153.95 158.4 156.3 158.2 158.8 158.2 160.95 153.9 162.45 154.75 163.8 157.25 166.45 158.9 168.15 158.9 169.85 158.9 171.5 155.8 173.95 152.35 176.8 149.05 176.8 146.65 176.8 145.35 174.7 144.05 172.6 142.0 172.6 140.1 172.6 137.85 173.6 135.55 174.55 129.2 176.4 122.8 178.2 115.65 173.75 108.4 169.2 111.45 165.2 114.4 161.1 118.35 156.9 L122.45 152.6 Q123.25 151.4 123.45 148.1 123.7 144.75 124.55 143.15 126.6 139.5 131.3 138.5" fill="#b8802a" fill-rule="evenodd" stroke="none"/>
    <path d="M105.4 211.85 Q106.0 211.25 107.55 210.4 109.1 209.5 111.6 204.9 114.0 200.35 121.05 207.4 126.85 207.45 128.05 208.9 L130.2 211.45 Q131.1 212.6 133.7 213.3 135.7 213.9 138.55 215.6 141.45 217.25 141.45 219.1 141.45 221.0 138.4 221.95 135.3 223.0 135.55 226.9 135.7 230.2 135.0 232.1 133.4 236.5 127.85 236.5 126.6 236.5 125.95 236.0 L124.95 234.95 Q123.5 233.35 119.25 233.35 118.35 233.35 115.55 234.25 112.7 235.15 110.6 235.15 106.5 235.15 105.45 232.95 105.1 232.3 105.1 231.45 105.15 230.7 101.8 227.8 98.45 224.85 100.1 221.25 101.75 217.6 104.7 218.15 107.7 218.7 107.05 216.15 106.35 213.6 105.6 213.0 104.8 212.35 105.4 211.85" fill="#b8802a" fill-rule="evenodd" stroke="none"/>
    <path d="M114.0 227.3 Q112.35 227.3 112.35 225.7 L120.0 218.1 Q127.6 211.25 127.6 214.85 127.6 215.55 120.95 221.45 L114.0 227.3" fill="#562907" fill-rule="evenodd" stroke="none"/>
    <path d="M119.45 218.4 Q124.9 226.05 124.9 227.5 L124.6 228.35 Q124.2 228.95 123.4 228.95 L114.0 215.9 Q114.0 210.8 119.45 218.4" fill="#562907" fill-rule="evenodd" stroke="none"/>
    <path d="M139.3 153.55 Q139.3 155.45 139.8 158.95 L140.25 162.95 141.15 162.95 Q142.8 163.2 142.8 164.05 L142.3 164.85 140.6 165.0 Q134.85 165.1 134.85 163.9 134.85 163.4 135.2 163.05 L137.35 162.9 138.25 162.95 138.05 161.35 Q137.9 160.1 137.9 155.85 L137.8 155.75 136.8 157.05 Q135.9 158.1 135.2 158.1 134.15 158.1 134.15 157.4 136.9 155.15 137.4 152.5 137.9 149.85 138.65 150.8 139.3 151.65 139.3 153.55" fill="#562907" fill-rule="evenodd" stroke="none"/>
    <path d="M35.7 174.35 Q35.7 176.0 34.3 176.75 31.65 178.15 30.25 179.55 32.25 179.0 36.15 179.5 L38.8 179.1 Q39.75 179.1 38.25 180.65 36.8 182.1 30.5 181.75 L30.15 181.95 Q29.0 182.8 28.75 180.5 L28.7 179.8 Q28.7 178.4 31.55 176.7 34.35 175.05 34.35 174.25 34.35 173.65 33.8 172.85 33.2 171.8 32.25 171.85 L32.35 172.5 Q32.35 173.55 31.35 173.55 L29.45 173.25 29.3 173.05 Q30.5 169.7 33.1 170.7 35.7 171.65 35.7 174.35" fill="#562907" fill-rule="evenodd" stroke="none"/>
    <path d="M50.25 178.2 L49.75 176.3 56.2 174.7 Q61.75 173.6 60.95 175.1 60.1 176.6 56.3 177.4 L50.25 178.2" fill="#562907" fill-rule="evenodd" stroke="none"/>
    <path d="M72.5 174.2 L66.4 175.0 63.55 174.7 62.85 174.1 Q66.9 172.65 72.4 171.5 77.95 170.4 77.15 171.9 76.3 173.4 72.5 174.2" fill="#562907" fill-rule="evenodd" stroke="none"/>
    <path d="M87.2 170.95 L81.9 171.65 Q80.4 171.55 79.85 171.25 L79.15 170.65 Q83.2 169.2 88.7 168.05 94.25 166.95 92.65 168.55 91.0 170.15 87.2 170.95" fill="#562907" fill-rule="evenodd" stroke="none"/>
    <path d="M103.4 168.0 L98.1 168.7 96.05 168.3 95.35 167.7 Q99.4 166.25 104.9 165.1 110.45 164.0 108.85 165.6 107.2 167.2 103.4 168.0" fill="#562907" fill-rule="evenodd" stroke="none"/>
    <path d="M119.9 164.6 L114.6 165.3 112.55 164.9 111.85 164.3 Q115.9 162.85 121.4 161.7 126.95 160.6 125.35 162.2 123.7 163.8 119.9 164.6" fill="#562907" fill-rule="evenodd" stroke="none"/>
    <path d="M125.15 158.6 Q125.85 157.1 127.95 156.9 L127.2 157.4 128.75 157.2 Q130.95 157.2 132.2 159.25 L133.05 161.3 Q133.05 162.1 132.35 163.1 131.25 164.7 129.15 164.7 126.45 164.7 125.35 162.8 L124.8 160.85 Q124.8 159.4 125.15 158.6 M126.3 158.4 L125.95 159.2 125.75 160.05 Q125.75 161.95 127.1 163.2 L127.2 163.2 Q126.3 162.05 126.15 161.5 L126.05 160.2 Q126.05 159.2 126.35 158.3 L126.3 158.4 M128.15 158.55 Q127.8 158.5 127.4 159.05 L128.1 158.6 128.15 158.55 M127.25 160.65 Q127.25 161.35 127.75 161.95 128.45 162.75 129.7 162.75 131.1 162.75 130.8 161.3 130.8 159.65 129.05 159.5 127.25 159.35 127.25 160.65 M129.45 158.55 L129.5 158.6 130.1 158.9 Q130.1 158.75 129.45 158.55 M131.85 160.9 L131.7 160.5 131.55 160.25 131.7 161.7 131.85 160.9" fill="#562907" fill-rule="evenodd" stroke="none"/>
    <path d="M53.15 181.75 Q58.6 185.55 58.6 186.55 L58.3 187.3 57.95 187.65 Q56.9 187.65 50.1 182.65 L50.5 181.8 51.0 180.4 53.15 181.75" fill="#562907" fill-rule="evenodd" stroke="none"/>
    <path d="M70.5 194.55 Q69.05 194.55 64.7 191.6 L60.6 188.6 Q60.6 186.45 66.2 189.5 71.75 192.6 71.75 193.4 71.75 194.55 70.5 194.55" fill="#562907" fill-rule="evenodd" stroke="none"/>
    <path d="M77.5 196.25 Q82.15 198.85 82.15 200.0 L81.9 200.75 81.45 201.05 Q79.7 201.05 76.1 198.2 L72.85 195.4 Q72.85 193.6 77.5 196.25" fill="#562907" fill-rule="evenodd" stroke="none"/>
    <path d="M91.35 208.0 Q89.9 208.0 86.4 204.95 L83.25 202.05 Q83.25 199.8 87.9 202.65 92.5 205.45 92.5 207.0 92.5 208.0 91.35 208.0" fill="#562907" fill-rule="evenodd" stroke="none"/>
    <path d="M104.7 213.9 L104.1 214.3 Q101.7 214.3 98.0 211.55 94.75 209.1 94.75 208.6 94.75 206.65 99.85 209.7 102.35 211.25 104.9 213.2 L104.7 213.9" fill="#562907" fill-rule="evenodd" stroke="none"/>
    <path d="M114.6 219.8 Q113.8 220.6 113.35 220.6 112.55 220.6 109.9 218.0 L107.45 215.65 Q107.45 213.15 111.4 215.6 L115.35 218.6 Q115.35 219.05 114.6 219.8" fill="#562907" fill-rule="evenodd" stroke="none"/>
    <path d="M49.2 177.95 Q49.2 178.75 48.45 179.8 47.35 181.35 45.15 181.35 43.35 181.35 42.45 180.2 L41.9 179.05 Q41.9 174.5 45.55 174.75 46.95 174.8 48.05 175.7 49.2 176.7 49.2 177.95 M45.85 178.05 Q47.05 178.05 46.5 179.6 47.45 179.15 47.75 178.75 L47.9 177.9 Q47.9 176.7 46.25 176.45 44.55 176.2 44.55 177.2 L44.8 177.9 45.35 178.35 45.6 178.2 Q45.7 178.05 45.85 178.05 M43.2 177.3 L43.05 177.75 Q43.05 180.05 45.15 180.05 L45.75 180.0 46.05 179.85 Q44.15 179.45 43.6 178.6 L43.2 177.3" fill="#562907" fill-rule="evenodd" stroke="none"/>
    <path d="M85.85 159.2 Q83.15 163.5 80.45 170.35 L76.1 181.25 Q74.9 181.15 74.6 180.55 L74.5 179.7 Q74.5 177.3 75.8 172.05 L77.5 164.75 77.5 164.5 72.55 175.25 Q69.6 181.45 66.1 185.85 L64.95 185.3 64.95 182.45 Q68.45 168.15 73.4 156.15 L74.2 156.05 74.4 156.65 68.5 177.45 68.5 177.6 72.6 168.45 Q75.35 162.6 79.45 159.55 80.55 160.45 80.55 160.8 80.55 162.35 79.75 165.65 83.95 155.65 86.9 155.65 88.0 155.65 88.25 157.4 L88.3 159.2 Q88.3 160.4 87.2 165.1 L86.1 169.95 Q88.1 163.7 89.65 160.15 92.45 153.5 95.55 153.5 96.55 153.5 96.9 154.8 L97.0 156.15 Q97.0 158.75 96.2 162.8 L94.8 169.15 94.8 171.75 Q99.35 159.7 101.8 154.8 106.15 145.9 106.15 157.25 106.15 159.2 104.85 166.6 103.25 175.5 101.65 178.25 L100.95 178.0 100.85 177.15 Q100.85 174.55 102.5 166.05 104.15 157.65 104.15 155.95 L104.15 155.65 104.05 155.2 Q102.55 157.65 99.3 167.5 96.7 175.45 95.25 175.45 92.95 175.45 92.5 173.5 L92.5 171.0 Q92.5 166.8 94.9 156.25 L94.8 156.05 Q93.2 158.45 89.4 169.55 86.3 178.65 84.45 178.65 83.15 178.65 82.85 177.45 L82.85 176.1 Q82.85 173.0 83.95 167.8 L85.85 159.55 85.85 159.2" fill="#85550c" fill-rule="evenodd" stroke="none"/>
    <path d="M84.65 193.25 L81.45 199.05 81.35 199.2 83.8 196.45 Q86.45 193.9 88.5 193.9 90.05 193.9 90.4 195.5 90.6 196.3 90.45 197.15 90.45 198.15 87.75 203.6 84.9 209.35 84.7 210.35 L93.0 200.3 Q98.25 193.75 102.6 190.55 L103.2 190.7 Q103.5 190.85 103.5 191.4 103.5 191.95 94.2 203.2 84.8 214.55 84.25 214.55 81.85 214.55 81.35 213.45 L81.35 212.2 Q81.35 209.65 83.95 204.65 L87.85 197.05 87.85 196.85 81.65 203.95 Q76.7 209.8 75.25 209.8 73.75 209.8 73.75 208.4 73.75 206.35 78.65 197.55 L84.0 187.65 83.8 187.5 Q80.3 189.85 74.95 194.45 69.65 199.0 66.5 201.1 L65.2 200.15 Q70.55 194.4 75.85 190.0 86.5 181.15 86.5 187.35 86.5 189.6 84.65 193.25" fill="#85550c" fill-rule="evenodd" stroke="none"/>
    <path d="M122.4 76.35 L122.25 76.3 115.9 75.8 91.1 76.45 75.55 75.65 Q67.85 75.15 65.65 77.85 L65.6 77.85 Q64.75 78.7 64.75 81.15 L65.15 84.6 65.55 87.9 65.2 91.65 Q64.85 94.15 64.85 95.5 L63.95 117.85 63.9 120.2 Q63.95 122.7 64.45 124.55 L64.45 124.65 64.45 124.7 Q65.3 127.85 67.3 128.85 L72.05 128.95 90.75 129.9 102.3 129.8 125.35 129.35 125.6 129.3 125.7 129.3 125.75 129.25 126.05 128.95 126.05 129.0 Q128.25 125.85 128.3 120.45 L128.35 111.85 128.35 92.1 Q128.8 90.4 128.8 87.05 128.7 80.9 127.9 79.45 127.0 77.8 125.6 77.3 124.4 76.75 122.95 76.75 L122.4 76.35 M130.2 92.95 L130.2 112.05 Q129.85 115.55 130.35 122.55 130.15 128.2 126.15 131.7 L116.8 131.95 Q114.35 132.25 105.95 131.75 L105.7 131.75 105.65 131.75 Q104.6 132.05 97.0 131.8 L96.65 131.9 96.7 131.9 96.55 131.95 91.25 131.95 69.1 130.6 Q64.15 130.1 62.85 125.0 62.35 123.15 62.35 117.75 L63.3 91.7 62.45 80.4 62.45 77.35 Q62.6 76.0 63.75 75.25 67.05 73.1 80.75 73.95 85.15 74.25 96.6 73.95 107.95 73.65 119.65 74.2 131.0 74.65 130.8 82.7 130.6 90.95 130.2 92.8 L130.2 92.85 130.2 92.95" fill="#85550c" fill-rule="evenodd" stroke="none"/>
    <path d="M101.05 77.7 L112.2 77.95 118.2 78.1 118.2 77.95 Q123.65 77.95 125.4 83.35 126.35 86.1 126.1 89.1 L125.85 99.65 125.4 108.75 Q124.95 111.9 125.3 118.5 124.9 124.35 120.6 127.3 L98.5 127.6 98.5 127.75 95.5 127.7 92.35 127.3 81.5 127.45 81.5 127.4 74.4 127.3 Q67.05 127.85 67.05 120.2 L67.45 113.85 67.45 94.4 67.7 93.8 67.7 83.4 68.0 81.5 Q68.3 79.55 69.95 78.5 71.05 77.8 72.15 77.5 L79.1 77.45 81.05 77.35 83.05 77.45 98.8 77.5 101.05 77.7 M121.3 80.85 Q120.9 80.1 114.2 79.95 102.7 80.4 88.85 80.05 75.75 79.65 73.15 80.0 L72.2 79.85 Q70.15 79.65 70.05 81.8 L69.7 81.85 69.7 94.4 69.5 107.9 69.1 116.0 Q69.6 123.7 73.3 124.75 L79.7 124.9 81.8 125.25 85.55 124.8 Q116.35 126.85 117.8 124.65 L118.95 124.75 Q121.9 124.75 122.75 119.75 L123.0 114.65 Q122.65 103.65 122.85 98.0 L122.85 84.95 121.3 80.85 M70.55 79.65 L70.45 79.75 70.9 79.65 70.55 79.65 M86.7 124.6 L90.6 124.7 86.25 124.7 86.7 124.6" fill="#85550c" fill-rule="evenodd" stroke="none"/>
    <path d="M66.4 118.5 L66.55 118.95 66.45 120.2 Q66.45 122.45 66.8 123.95 67.65 127.3 69.95 127.3 L71.15 127.1 71.25 127.05 70.85 127.6 70.0 127.9 Q67.4 127.9 66.45 124.65 66.0 123.05 66.0 120.95 L66.15 119.65 66.35 118.5 66.4 118.5" fill="#85550c" fill-rule="evenodd" stroke="none"/>
    <path d="M65.55 119.6 L65.6 120.1 65.5 121.2 Q65.5 123.35 66.55 125.3 L67.85 127.15 Q68.9 128.25 71.1 128.85 L70.5 129.1 Q68.0 129.1 66.35 125.95 65.05 123.45 65.05 121.55 L65.15 120.65 65.5 119.6 65.55 119.6" fill="#85550c" fill-rule="evenodd" stroke="none"/>
    <path d="M67.35 121.3 L67.3 121.8 Q67.3 122.55 67.45 123.15 L68.1 124.6 68.7 125.85 Q69.25 126.6 70.35 126.95 L69.95 127.2 Q68.8 127.2 67.85 125.1 67.0 123.4 67.0 122.7 L67.1 121.9 Q67.2 121.35 67.35 121.3" fill="#85550c" fill-rule="evenodd" stroke="none"/>
    <path d="M125.1 119.5 L125.3 120.9 124.1 124.95 Q122.35 128.75 119.6 128.75 119.1 128.75 119.1 128.3 119.1 127.75 119.6 127.75 L119.75 127.85 119.85 127.95 Q122.2 127.95 123.75 124.35 124.8 121.9 125.0 119.5 L125.1 119.5" fill="#85550c" fill-rule="evenodd" stroke="none"/>
    <path d="M126.75 120.55 Q126.75 122.3 125.75 124.9 124.25 128.8 121.55 128.8 121.25 128.8 121.15 128.6 L121.05 128.4 124.0 126.35 125.25 124.1 125.85 121.85 Q126.3 120.5 126.7 119.85 L126.75 120.55" fill="#85550c" fill-rule="evenodd" stroke="none"/>
    <path d="M127.45 122.9 Q127.45 123.75 126.2 126.15 124.5 129.25 122.4 129.25 121.85 129.25 121.85 128.75 L123.25 127.9 Q124.9 126.7 126.05 125.05 127.3 123.15 126.8 121.25 L126.95 121.25 Q127.45 121.95 127.45 122.9" fill="#85550c" fill-rule="evenodd" stroke="none"/>
    <path d="M126.35 86.8 L126.1 86.8 126.05 86.45 126.15 85.95 Q126.15 83.4 125.2 81.7 124.1 79.65 121.4 77.85 124.1 78.95 125.45 81.2 126.6 83.1 126.6 85.5 L126.35 86.8" fill="#85550c" fill-rule="evenodd" stroke="none"/>
    <path d="M126.0 80.8 Q126.9 83.0 126.9 85.05 127.0 85.95 126.6 85.95 L126.4 85.9 Q126.5 80.6 122.75 77.2 L122.8 77.0 122.95 77.0 Q124.2 77.0 126.0 80.8" fill="#85550c" fill-rule="evenodd" stroke="none"/>
    <path d="M126.5 80.3 Q125.7 78.65 123.9 77.75 L123.85 77.65 Q123.85 76.95 124.55 77.35 L126.0 78.65 Q126.7 79.45 127.05 80.5 L127.8 82.55 127.95 84.25 Q128.1 85.4 127.45 85.55 L127.45 83.35 126.5 80.3" fill="#85550c" fill-rule="evenodd" stroke="none"/>
    <path d="M127.8 81.25 L126.9 79.45 Q126.35 78.25 125.8 77.9 L125.75 77.7 Q125.75 76.7 127.25 79.2 128.75 81.6 128.75 83.8 L128.6 84.85 128.45 84.95 128.1 83.15 127.8 81.25" fill="#85550c" fill-rule="evenodd" stroke="none"/>
    <path d="M67.3 84.75 L67.15 84.8 66.9 84.75 Q66.55 82.95 66.55 81.7 66.55 79.75 67.4 78.4 68.8 76.3 72.15 76.8 L72.2 76.9 Q67.95 77.65 67.35 79.8 67.1 81.0 67.3 83.35 L67.3 84.75" fill="#85550c" fill-rule="evenodd" stroke="none"/>
    <path d="M66.5 84.15 L66.35 84.3 Q65.45 84.0 65.45 80.85 65.45 79.25 66.05 77.95 67.15 75.3 70.25 75.3 L71.0 75.5 71.05 75.65 Q67.75 76.7 66.75 78.15 66.2 79.0 66.2 80.8 L66.5 84.15" fill="#85550c" fill-rule="evenodd" stroke="none"/>
    <path d="M72.0 86.5 Q71.65 87.7 71.45 89.85 L71.1 89.85 71.05 88.5 Q71.05 86.8 71.9 85.05 73.1 82.5 75.2 83.4 72.65 84.6 72.0 86.5" fill="#85550c" fill-rule="evenodd" stroke="none"/>
    <path d="M71.3 84.2 Q70.55 85.4 70.5 86.4 L70.35 86.7 70.15 85.7 Q70.15 84.95 71.1 83.45 72.05 81.85 72.75 81.8 L71.3 84.2" fill="#85550c" fill-rule="evenodd" stroke="none"/>
    <path d="M75.9 80.4 L75.9 80.6 Q72.0 81.0 71.4 82.4 L70.15 84.95 70.05 84.95 Q70.25 83.1 70.7 82.1 71.45 80.2 75.45 80.05 L75.9 80.4" fill="#85550c" fill-rule="evenodd" stroke="none"/>
    <path d="M121.25 90.35 L121.1 90.35 Q121.45 88.25 120.35 86.05 119.2 83.6 116.55 81.8 118.65 82.75 120.25 84.95 121.6 87.0 121.6 88.6 121.6 89.6 121.25 90.35" fill="#85550c" fill-rule="evenodd" stroke="none"/>
    <path d="M120.1 83.2 Q121.35 84.9 121.35 85.55 L121.25 86.5 Q119.05 83.2 118.5 81.8 L118.65 81.45 118.7 81.45 120.1 83.2" fill="#85550c" fill-rule="evenodd" stroke="none"/>
    <path d="M117.85 119.1 Q115.75 121.95 111.45 121.95 L109.8 121.6 113.65 120.35 Q116.05 119.6 116.75 119.05 L118.25 117.3 119.2 116.0 Q119.2 117.35 117.85 119.1" fill="#85550c" fill-rule="evenodd" stroke="none"/>
    <path d="M74.4 118.85 Q76.8 121.0 82.0 121.15 L79.3 121.6 Q75.35 121.6 73.7 119.0 L72.05 114.95 72.25 114.85 Q72.95 117.5 74.4 118.85" fill="#85550c" fill-rule="evenodd" stroke="none"/>
    <path d="M71.6 116.6 Q71.6 117.75 73.4 119.9 75.35 122.05 76.95 122.65 L76.95 122.7 Q74.7 122.6 72.9 120.2 71.4 118.15 71.4 116.75 L71.55 115.35 71.7 115.35 71.6 116.6" fill="#85550c" fill-rule="evenodd" stroke="none"/>
    <path d="M119.4 119.55 Q119.4 120.3 118.25 121.55 116.75 123.1 114.8 123.1 L114.0 122.9 113.8 122.6 117.15 120.4 Q118.8 119.45 119.05 118.85 L119.25 118.85 119.4 119.55" fill="#85550c" fill-rule="evenodd" stroke="none"/>
    <path d="M126.9 86.2 L127.05 86.2 Q128.0 93.05 128.8 118.2 L128.5 120.95 128.35 120.95 Q128.35 116.65 127.5 109.45 L127.5 97.75 126.9 86.2" fill="#85550c" fill-rule="evenodd" stroke="none"/>
    <path d="M127.8 90.55 Q127.8 96.8 127.15 103.95 L127.45 122.7 127.05 128.75 126.4 121.8 Q126.25 120.6 126.25 117.0 L126.35 103.8 127.3 84.45 127.5 84.45 127.8 90.55" fill="#85550c" fill-rule="evenodd" stroke="none"/>
    <path d="M66.2 82.35 L66.45 82.35 66.2 105.75 66.35 115.25 66.85 123.5 66.85 125.55 66.7 125.7 Q66.35 122.1 66.0 112.8 65.7 103.55 65.7 98.25 L66.2 82.35" fill="#85550c" fill-rule="evenodd" stroke="none"/>
    <path d="M65.4 98.25 L64.9 103.55 65.0 104.1 65.0 111.55 65.4 119.6 65.15 122.85 65.0 122.85 64.5 114.6 64.4 107.7 64.45 103.25 65.1 97.35 65.2 97.35 65.4 98.25" fill="#85550c" fill-rule="evenodd" stroke="none"/>
    <path d="M90.5 93.7 L90.6 92.55 Q90.85 92.05 91.7 91.95 91.7 91.75 92.5 92.2 93.2 92.55 93.2 92.85 L93.0 97.8 96.45 98.25 Q97.15 98.5 97.15 99.0 97.15 100.15 92.9 100.15 L92.65 105.7 92.9 107.1 Q93.2 108.3 93.75 108.3 L95.45 107.2 96.95 106.1 Q97.6 106.1 97.7 107.1 97.7 107.5 96.35 108.7 94.75 110.1 93.6 110.1 91.35 110.1 91.0 106.95 L91.0 106.85 90.75 105.35 90.55 100.5 90.55 100.05 88.25 99.4 Q87.2 98.95 87.2 98.6 87.2 98.15 87.35 97.95 L88.75 97.8 90.6 97.8 90.65 97.05 90.5 93.7 M112.05 92.55 Q112.05 94.3 112.4 98.7 L112.7 105.0 Q112.85 110.7 112.2 110.7 L111.5 110.55 110.75 110.4 Q109.95 110.4 109.8 110.0 L109.8 109.55 110.1 106.9 110.0 103.4 110.1 95.95 Q110.0 92.15 110.4 90.95 L110.6 91.25 Q110.85 90.85 111.6 91.0 112.65 91.15 112.65 91.75 L112.05 92.55 M81.1 95.2 L80.85 96.75 Q80.5 98.5 80.5 100.25 80.5 102.2 80.95 104.5 L81.05 105.15 82.95 107.25 84.95 107.25 86.55 105.55 Q87.6 104.3 88.15 104.3 88.95 104.3 88.9 104.9 88.9 106.1 88.05 107.4 87.1 108.9 85.5 109.65 L82.6 109.75 Q79.6 110.35 78.1 105.75 77.1 102.65 77.1 99.45 77.1 97.7 77.95 95.7 79.4 92.2 82.6 92.2 84.65 92.2 86.1 93.85 86.8 94.65 87.15 95.5 L86.9 96.55 Q86.55 97.45 85.9 97.45 85.45 97.45 84.4 96.0 83.3 94.5 82.95 94.5 81.8 94.5 81.1 95.2 M84.75 94.35 L85.1 95.2 85.9 95.85 85.35 95.0 84.75 94.35 M79.65 100.75 L79.6 101.4 79.7 101.95 79.65 100.75 M80.35 106.5 L80.7 107.15 80.85 107.15 80.8 107.1 80.45 106.6 80.35 106.5 M105.55 99.3 Q104.6 99.3 103.7 100.2 L102.45 101.05 102.45 101.25 102.6 106.6 Q102.85 110.1 101.85 110.1 100.3 110.1 99.85 109.2 L99.75 108.25 99.9 100.45 99.9 98.05 Q100.1 96.2 101.0 96.2 101.7 96.2 102.05 98.05 102.8 97.05 104.95 97.0 108.25 97.0 108.25 99.1 L107.95 99.9 Q107.6 100.55 107.15 100.55 106.55 100.55 106.1 99.9 L105.55 99.3" fill="#572a08" fill-rule="evenodd" stroke="none"/>
  </g>
</svg>
