<?xml version="1.0" encoding="UTF-8" standalone="no"?>
<svg xmlns:ffdec="https://www.free-decompiler.com/flash" xmlns:xlink="http://www.w3.org/1999/xlink" ffdec:objectType="shape" height="281.7px" width="266.45px" xmlns="http://www.w3.org/2000/svg">
  <g transform="matrix(1.0, 0.0, 0.0, 1.0, 49.5, -0.85)">
    <path d="M-48.1 280.85 Q-44.65 283.1 -48.15 282.35 L-48.1 280.85 M213.9 7.9 Q214.7 17.45 214.5 18.35 212.45 26.9 212.45 83.1 212.45 100.85 213.05 104.15 213.65 107.15 213.65 109.3 213.65 112.2 213.05 119.5 212.5 126.7 212.5 130.85 212.5 135.1 212.95 145.7 L213.55 160.7 214.4 184.1 214.95 203.15 Q214.95 211.05 212.55 238.4 210.3 264.75 212.35 280.35 211.5 278.35 204.4 277.7 197.3 277.1 189.3 274.55 181.35 272.05 167.45 273.05 L141.8 274.2 136.4 273.3 133.1 272.4 Q131.75 272.4 129.05 273.3 L125.9 274.2 Q124.1 274.2 118.15 272.8 L111.55 271.3 108.2 272.55 Q104.9 273.7 103.6 273.7 69.3 273.7 57.0 272.9 L42.7 272.15 33.35 272.65 5.35 274.55 -12.1 275.55 Q-18.65 277.85 -47.95 275.05 L-43.9 179.95 -46.0 147.45 -49.5 90.4 Q-48.1 33.1 -47.7 30.95 -47.1 27.8 -47.1 24.4 L-47.5 21.35 -47.95 18.35 -47.9 10.4 -44.8 10.65 -30.75 9.55 -0.4 11.7 37.55 13.95 53.1 13.2 63.35 12.55 72.55 13.45 100.95 14.3 154.85 11.15 Q193.7 8.0 213.9 7.9 M216.2 8.55 Q216.8 8.55 216.85 8.8 L216.95 9.4 Q216.85 13.2 215.3 8.9 215.65 8.55 216.2 8.55" fill="#150d01" fill-opacity="0.34117648" fill-rule="evenodd" stroke="none"/>
    <path d="M209.95 0.85 L210.35 2.35 210.35 2.5 Q211.8 1.1 212.45 1.6 L212.75 2.35 Q211.95 5.65 211.5 8.8 L211.5 9.2 Q211.0 10.85 210.75 12.6 209.45 18.05 209.4 21.6 207.85 58.35 208.7 94.6 209.75 99.75 209.55 105.95 L206.15 105.85 203.55 105.65 Q201.1 105.45 200.9 106.35 200.7 107.25 205.75 107.55 L209.5 107.55 209.1 111.7 Q208.1 121.4 208.7 132.15 209.3 143.0 210.4 185.1 L210.8 196.85 Q210.25 203.25 209.85 210.9 204.75 210.0 204.75 213.85 L204.95 214.7 205.1 214.85 209.65 215.05 209.4 219.85 Q208.0 248.8 207.15 256.1 206.35 263.55 206.4 265.1 L206.45 268.0 205.35 267.85 204.95 267.75 204.4 267.75 190.3 266.1 184.55 266.6 159.0 268.0 158.7 268.0 157.85 268.0 153.75 268.0 149.55 268.2 148.6 265.05 147.75 265.05 147.6 266.85 147.8 268.25 140.45 268.25 139.25 268.25 Q136.7 266.85 133.1 266.6 128.35 265.95 125.55 268.25 124.3 268.5 123.5 268.25 L120.3 267.25 Q120.2 264.85 118.15 264.7 L118.1 266.65 115.95 266.1 Q108.2 264.35 102.8 267.75 L81.85 266.75 Q73.8 266.45 65.65 266.45 L64.9 266.45 58.35 266.45 52.85 266.75 52.65 266.75 Q41.35 265.35 26.45 267.75 L-7.5 269.75 Q-9.75 267.0 -23.95 269.9 L-23.95 270.25 -41.95 270.25 -41.9 268.25 -41.75 268.25 -41.75 260.55 Q-41.2 232.0 -41.8 231.2 L-42.35 225.3 Q-42.15 219.85 -40.55 213.65 L-39.95 210.85 Q-38.4 202.55 -39.3 193.7 -43.1 159.8 -43.3 125.45 -41.7 124.8 -41.55 123.55 -39.35 122.65 -38.85 121.8 -40.45 120.9 -43.45 120.65 -43.7 102.3 -45.85 83.75 -45.55 55.05 -44.5 26.1 -43.25 21.85 -43.5 17.3 -43.6 14.65 -43.85 13.35 L-44.35 11.35 Q-43.95 7.95 -44.2 4.65 L-44.25 3.4 Q-41.35 3.65 -38.05 3.4 L-29.2 2.75 -27.6 2.5 Q-21.6 4.9 -5.9 5.0 L9.65 5.65 20.4 6.15 Q39.1 7.15 40.4 6.65 L43.4 6.05 56.0 6.15 Q63.65 5.15 66.85 5.9 L90.4 7.05 Q110.7 7.55 124.3 6.55 137.95 5.65 146.8 4.15 181.1 3.4 209.95 0.85 M204.2 40.15 Q205.9 24.5 205.4 9.45 172.25 7.55 146.5 9.05 132.0 9.95 117.1 9.8 107.95 9.7 99.15 12.85 93.8 14.9 87.85 15.25 70.4 16.25 43.8 12.1 L35.85 10.7 Q19.8 12.85 3.3 9.7 L-4.9 9.2 Q-11.65 9.55 -17.95 7.8 -20.65 10.45 -25.55 9.95 -30.0 9.45 -34.65 10.1 L-38.1 10.2 Q-37.5 26.4 -39.55 39.5 L-39.5 41.65 Q-35.9 69.2 -37.65 85.9 -39.1 100.8 -39.25 119.5 -35.5 119.75 -35.05 121.65 -35.1 123.95 -40.2 127.6 -35.8 144.55 -37.7 165.65 -38.1 184.85 -35.1 191.9 -32.05 199.0 -35.1 202.55 -38.15 206.05 -38.2 226.05 L-38.05 236.15 -37.95 236.9 Q-37.7 240.45 -38.2 262.45 L-38.2 262.8 -38.25 263.55 Q-24.4 264.85 -24.6 263.05 L-19.5 263.3 Q-11.8 263.8 -11.2 264.35 -9.05 266.1 -4.85 266.45 -0.6 267.0 9.05 264.85 18.75 262.8 32.25 264.05 44.15 265.35 55.65 263.2 66.6 261.4 77.6 261.4 85.85 261.4 93.65 263.3 97.45 264.35 101.6 264.05 106.35 263.3 111.0 261.55 118.0 258.5 125.3 261.55 L133.3 261.8 Q139.2 259.5 144.9 262.45 L145.3 262.45 149.55 261.8 Q155.4 258.15 160.7 260.9 L171.9 262.2 Q179.65 263.7 182.6 263.05 185.65 262.45 186.4 261.8 187.15 261.05 195.2 260.9 L201.35 261.15 Q201.0 246.0 203.4 230.45 204.9 220.75 201.35 212.5 199.4 207.95 201.65 208.2 203.8 208.45 204.0 190.15 204.15 175.85 203.1 136.3 201.7 126.7 202.45 112.95 L202.4 110.95 Q201.85 108.85 198.25 106.35 203.1 102.9 203.55 98.65 203.75 82.85 203.1 67.3 202.45 53.8 204.2 40.15" fill="#b8802a" fill-rule="evenodd" stroke="none"/>
    <path d="M204.2 40.15 Q202.45 53.8 203.1 67.3 203.75 82.85 203.55 98.65 203.1 102.9 198.25 106.35 201.85 108.85 202.4 110.95 L202.45 112.95 Q201.7 126.7 203.1 136.3 204.15 175.85 204.0 190.15 203.8 208.45 201.65 208.2 199.4 207.95 201.35 212.5 204.9 220.75 203.4 230.45 201.0 246.0 201.35 261.15 L195.2 260.9 Q187.15 261.05 186.4 261.8 185.65 262.45 182.6 263.05 179.65 263.7 171.9 262.2 L160.7 260.9 Q155.4 258.15 149.55 261.8 L145.3 262.45 144.9 262.45 Q139.2 259.5 133.3 261.8 L125.3 261.55 Q118.0 258.5 111.0 261.55 106.35 263.3 101.6 264.05 97.45 264.35 93.65 263.3 85.85 261.4 77.6 261.4 66.6 261.4 55.65 263.2 44.15 265.35 32.25 264.05 18.75 262.8 9.05 264.85 -0.6 267.0 -4.85 266.45 -9.05 266.1 -11.2 264.35 -11.8 263.8 -19.5 263.3 L-24.6 263.05 Q-24.4 264.85 -38.25 263.55 L-38.2 262.8 -38.2 262.45 Q-37.7 240.45 -37.95 236.9 L-38.05 236.15 -38.2 226.05 Q-38.15 206.05 -35.1 202.55 -32.05 199.0 -35.1 191.9 -38.1 184.85 -37.7 165.65 -35.8 144.55 -40.2 127.6 -35.1 123.95 -35.05 121.65 -35.5 119.75 -39.25 119.5 -39.1 100.8 -37.65 85.9 -35.9 69.2 -39.5 41.65 L-39.55 39.5 Q-37.5 26.4 -38.1 10.2 L-34.65 10.1 Q-30.0 9.45 -25.55 9.95 -20.65 10.45 -17.95 7.8 -11.65 9.55 -4.9 9.2 L3.3 9.7 Q19.8 12.85 35.85 10.7 L43.8 12.1 Q70.4 16.25 87.85 15.25 93.8 14.9 99.15 12.85 107.95 9.7 117.1 9.8 132.0 9.95 146.5 9.05 172.25 7.55 205.4 9.45 205.9 24.5 204.2 40.15 M191.3 15.0 L156.2 17.05 Q131.2 17.65 127.5 23.7 113.1 26.5 110.0 25.0 94.45 17.55 73.6 21.05 52.8 24.6 6.95 19.8 -38.85 15.0 -35.25 23.6 -31.6 32.3 -30.35 44.85 -30.25 47.6 -30.55 50.15 L-31.25 51.9 Q-32.35 53.65 -32.8 55.55 -33.95 59.5 -34.2 63.3 -30.6 69.95 -28.35 77.45 L-28.05 79.2 Q-34.2 93.5 -33.0 108.4 -31.85 123.15 -32.7 138.2 -31.85 169.8 -31.45 172.35 -29.45 182.95 -28.45 193.2 -27.4 203.3 -28.95 210.75 -30.6 218.2 -28.6 222.35 -26.65 226.55 -29.3 229.95 -28.95 233.0 -27.85 235.15 -24.75 242.1 -26.55 249.9 -31.3 254.1 -29.9 257.9 -23.7 257.65 -20.35 256.0 L-7.75 256.85 Q2.1 257.9 9.0 251.05 31.05 258.9 44.7 254.1 58.5 249.3 91.8 254.1 125.05 259.0 142.75 253.6 160.3 248.05 170.0 255.75 172.7 257.65 191.65 254.45 192.75 252.95 193.55 250.8 L195.7 229.05 Q197.5 209.25 197.5 166.9 197.45 124.45 195.65 108.25 L195.6 108.15 Q189.95 85.5 197.45 45.85 204.55 5.65 191.3 15.0" fill="#cdae4f" fill-rule="evenodd" stroke="none"/>
    <path d="M210.35 2.35 L209.95 0.85 210.35 0.85 210.35 2.35 M191.3 15.0 Q204.55 5.65 197.45 45.85 189.95 85.5 195.6 108.15 L195.65 108.25 Q197.45 124.45 197.5 166.9 197.5 209.25 195.7 229.05 L193.55 250.8 Q192.75 252.95 191.65 254.45 172.7 257.65 170.0 255.75 160.3 248.05 142.75 253.6 125.05 259.0 91.8 254.1 58.5 249.3 44.7 254.1 31.05 258.9 9.0 251.05 2.1 257.9 -7.75 256.85 L-20.35 256.0 Q-23.7 257.65 -29.9 257.9 -31.3 254.1 -26.55 249.9 -24.75 242.1 -27.85 235.15 -28.95 233.0 -29.3 229.95 -26.65 226.55 -28.6 222.35 -30.6 218.2 -28.95 210.75 -27.4 203.3 -28.45 193.2 -29.45 182.95 -31.45 172.35 -31.85 169.8 -32.7 138.2 -31.85 123.15 -33.0 108.4 -34.2 93.5 -28.05 79.2 L-28.35 77.45 Q-30.6 69.95 -34.2 63.3 -33.95 59.5 -32.8 55.55 -32.35 53.65 -31.25 51.9 L-30.55 50.15 Q-30.25 47.6 -30.35 44.85 -31.6 32.3 -35.25 23.6 -38.85 15.0 6.95 19.8 52.8 24.6 73.6 21.05 94.45 17.55 110.0 25.0 113.1 26.5 127.5 23.7 131.2 17.65 156.2 17.05 L191.3 15.0" fill="#dec884" fill-rule="evenodd" stroke="none"/>
  </g>
</svg>
