<?xml version="1.0" encoding="UTF-8" standalone="no"?>
<svg xmlns:ffdec="https://www.free-decompiler.com/flash" xmlns:xlink="http://www.w3.org/1999/xlink" ffdec:objectType="shape" height="88.1px" width="94.4px" xmlns="http://www.w3.org/2000/svg">
  <g transform="matrix(1.0, 0.0, 0.0, 1.0, 25.25, -34.95)">
    <path d="M-19.45 41.75 Q-16.15 44.1 -12.1 42.5 -6.45 40.2 -0.65 41.8 2.65 42.7 6.1 42.5 17.45 41.7 28.9 42.05 35.6 42.25 42.2 41.75 L61.15 42.9 Q64.8 41.75 66.55 37.45 L67.4 52.2 Q67.5 56.25 66.5 60.25 65.45 64.3 66.7 68.25 L67.8 72.55 67.75 76.0 Q64.5 80.35 65.5 85.75 L67.25 96.45 Q67.55 99.15 68.0 101.85 68.35 112.05 69.15 121.5 53.0 120.65 38.3 120.8 L24.2 122.7 Q18.05 123.5 11.95 122.4 L2.65 121.05 -20.4 120.25 -23.15 120.7 Q-22.9 119.85 -24.05 117.25 -20.35 111.55 -19.45 103.9 -19.2 101.4 -20.05 99.45 -18.6 98.55 -18.45 96.65 -18.25 94.95 -19.25 94.0 -18.65 92.6 -18.35 91.15 -17.7 88.25 -19.35 86.45 -19.85 82.45 -19.65 80.0 -19.55 77.6 -18.55 70.95 -17.6 64.25 -21.4 53.15 -22.7 49.35 -21.65 45.5 -21.0 43.05 -21.5 41.25 L-20.2 41.2 -19.45 41.75" fill="#151000" fill-opacity="0.34901962" fill-rule="evenodd" stroke="none"/>
    <path d="M-19.9 39.15 L-20.0 39.05 -19.8 39.1 -18.9 39.5 -18.25 39.75 -12.55 39.6 -10.7 39.2 -8.35 40.95 Q-6.4 42.2 -4.25 41.35 -1.3 40.2 1.95 39.95 L9.45 39.2 Q11.5 38.95 13.55 38.05 L20.85 39.15 31.3 40.55 41.45 41.4 42.05 41.3 Q44.5 40.7 46.75 39.6 L49.35 40.15 Q50.05 40.3 50.55 40.7 L51.15 40.95 52.95 41.05 Q57.1 40.85 58.45 41.9 59.7 42.9 59.3 55.95 L58.9 75.25 Q58.75 81.55 58.1 86.55 57.4 91.55 59.1 93.35 60.75 95.15 61.5 103.55 62.15 111.85 63.35 112.85 66.5 117.15 53.1 114.8 39.65 112.35 31.95 114.15 24.25 115.9 17.6 114.7 11.0 113.45 6.05 113.15 1.05 112.85 -8.05 113.2 L-18.0 113.4 -19.3 112.75 Q-20.45 106.35 -19.8 105.5 -17.0 102.25 -19.0 96.35 -20.9 90.4 -19.05 78.85 -17.2 67.35 -18.0 60.85 -18.9 54.3 -18.2 51.7 -17.6 49.05 -18.25 46.25 L-19.9 39.15 M67.65 119.05 L68.1 118.9 68.1 119.05 67.65 119.05" fill="#dec884" fill-rule="evenodd" stroke="none"/>
    <path d="M-19.8 39.1 Q-21.1 38.25 -17.6 37.2 -14.1 36.2 -8.2 36.4 -2.3 36.55 -1.05 37.6 L2.65 37.75 11.8 37.2 Q18.45 37.5 29.2 37.15 L35.75 37.55 54.0 38.15 54.75 38.15 64.45 39.0 64.55 40.1 Q64.75 41.6 64.6 43.05 64.4 44.6 65.25 45.5 64.75 47.5 64.85 49.65 L64.75 52.3 Q63.35 59.6 65.3 66.85 65.65 67.75 65.2 68.6 62.75 73.8 63.05 79.45 63.2 81.35 63.85 83.1 65.0 85.9 65.0 88.9 64.95 93.7 65.25 98.4 65.9 108.0 67.75 117.3 61.6 117.7 55.0 117.0 L45.85 116.65 35.2 116.75 Q27.6 116.6 20.5 118.25 L14.05 118.8 12.6 118.85 Q4.3 120.05 -1.4 116.25 -2.75 115.35 -4.35 116.0 -7.25 117.2 -10.7 116.7 L-21.7 116.0 -21.65 113.95 Q-21.7 111.2 -21.95 110.95 L-22.45 109.7 Q-22.65 108.7 -22.1 106.1 L-21.65 102.35 Q-20.65 100.55 -21.95 98.6 L-22.25 97.15 -22.25 97.05 Q-21.15 95.1 -21.95 93.15 -22.5 91.8 -21.9 90.45 -20.75 88.05 -21.9 85.65 L-22.75 82.5 Q-22.9 81.1 -22.55 79.85 -21.85 77.25 -21.85 74.5 -21.85 70.8 -22.5 67.15 -23.3 63.25 -22.8 59.3 -22.35 54.8 -22.5 50.15 L-22.35 47.5 Q-22.25 46.0 -22.3 44.35 -22.5 41.4 -22.3 38.5 -21.3 39.25 -19.9 39.15 L-18.25 46.25 Q-17.6 49.05 -18.2 51.7 -18.9 54.3 -18.0 60.85 -17.2 67.35 -19.05 78.85 -20.9 90.4 -19.0 96.35 -17.0 102.25 -19.8 105.5 -20.45 106.35 -19.3 112.75 L-18.0 113.4 -8.05 113.2 Q1.05 112.85 6.05 113.15 11.0 113.45 17.6 114.7 24.25 115.9 31.95 114.15 39.65 112.35 53.1 114.8 66.5 117.15 63.35 112.85 62.15 111.85 61.5 103.55 60.75 95.15 59.1 93.35 57.4 91.55 58.1 86.55 58.75 81.55 58.9 75.25 L59.3 55.95 Q59.7 42.9 58.45 41.9 57.1 40.85 52.95 41.05 L51.15 40.95 50.55 40.7 Q50.05 40.3 49.35 40.15 L46.75 39.6 Q44.5 40.7 42.05 41.3 L41.45 41.4 31.3 40.55 20.85 39.15 13.55 38.05 Q11.5 38.95 9.45 39.2 L1.95 39.95 Q-1.3 40.2 -4.25 41.35 -6.4 42.2 -8.35 40.95 L-10.7 39.2 -12.55 39.6 -18.25 39.75 -18.9 39.5 -19.8 39.1 M65.5 119.4 L67.65 119.8 66.0 119.55 65.5 119.4" fill="#cdae4f" fill-rule="evenodd" stroke="none"/>
    <path d="M-19.9 39.15 Q-21.3 39.25 -22.3 38.5 -22.5 41.4 -22.3 44.35 -22.25 46.0 -22.35 47.5 L-22.5 50.15 Q-22.35 54.8 -22.8 59.3 -23.3 63.25 -22.5 67.15 -21.85 70.8 -21.85 74.5 -21.85 77.25 -22.55 79.85 -22.9 81.1 -22.75 82.5 L-21.9 85.65 Q-20.75 88.05 -21.9 90.45 -22.5 91.8 -21.95 93.15 -21.15 95.1 -22.25 97.05 L-22.25 97.15 -21.95 98.6 Q-20.65 100.55 -21.65 102.35 L-22.1 106.1 Q-22.65 108.7 -22.45 109.7 L-21.95 110.95 Q-21.7 111.2 -21.65 113.95 L-21.7 116.0 -10.7 116.7 Q-7.25 117.2 -4.35 116.0 -2.75 115.35 -1.4 116.25 4.3 120.05 12.6 118.85 L14.05 118.8 20.5 118.25 Q27.6 116.6 35.2 116.75 L45.85 116.65 55.0 117.0 Q61.6 117.7 67.75 117.3 65.9 108.0 65.25 98.4 64.95 93.7 65.0 88.9 65.0 85.9 63.85 83.1 63.2 81.35 63.05 79.45 62.75 73.8 65.2 68.6 65.65 67.75 65.3 66.85 63.35 59.6 64.75 52.3 L64.85 49.65 Q64.75 47.5 65.25 45.5 64.4 44.6 64.6 43.05 64.75 41.6 64.55 40.1 L64.45 39.0 54.75 38.15 54.0 38.15 35.75 37.55 29.2 37.15 Q18.45 37.5 11.8 37.2 L2.65 37.75 -1.05 37.6 Q-2.3 36.55 -8.2 36.4 -14.1 36.2 -17.6 37.2 -21.1 38.25 -19.8 39.1 L-20.0 39.05 -19.9 39.15 M65.5 119.4 L65.4 119.4 64.25 119.15 61.2 118.7 Q48.9 118.2 36.6 118.45 L32.15 118.95 21.0 120.35 15.9 120.7 13.1 120.6 12.9 120.6 8.2 120.0 -1.6 118.6 -21.9 117.65 -23.1 117.7 -24.15 117.7 -24.1 117.3 -24.0 117.2 -24.0 117.0 -23.55 112.35 -23.55 112.3 -23.7 110.35 -24.2 101.75 -24.2 101.65 -24.2 101.35 -24.2 100.0 -24.3 95.5 -24.3 95.1 Q-23.75 94.25 -23.7 93.05 -23.5 91.45 -24.3 90.5 L-24.3 89.85 -23.55 87.3 Q-22.9 84.7 -24.15 82.9 L-23.8 75.9 -23.7 70.45 -23.7 70.2 -23.7 68.0 -23.75 66.15 -23.75 66.1 Q-23.3 62.35 -24.1 57.35 -24.4 50.95 -25.0 44.6 L-25.0 44.55 -25.2 42.55 -25.25 41.0 Q-25.35 38.55 -24.8 36.15 L-24.7 35.65 Q-21.25 38.05 -17.0 36.35 L-15.0 35.7 -13.75 35.35 -9.15 34.95 Q-7.15 35.05 -5.0 35.65 L-4.05 35.9 2.0 36.35 Q13.95 35.5 25.95 35.9 32.9 36.1 39.85 35.6 L59.7 36.8 61.15 36.35 62.15 36.55 66.3 37.1 66.7 37.1 66.7 39.1 67.0 41.95 67.05 42.45 Q66.25 44.35 66.25 46.5 66.3 50.45 65.4 54.3 L65.4 54.45 65.25 54.95 Q64.2 59.2 65.5 63.3 L65.8 64.25 66.65 67.8 66.6 71.45 66.2 72.0 Q63.25 76.35 64.25 81.65 L66.05 92.85 66.85 98.5 Q67.25 109.6 68.1 118.9 L67.65 119.05 67.55 119.05 Q68.05 119.5 67.9 119.7 L67.65 119.8 65.5 119.4" fill="#b8802a" fill-rule="evenodd" stroke="none"/>
    <path d="M-2.75 94.4 Q9.8 95.35 21.55 92.0 32.45 94.75 39.1 94.55 45.7 94.35 45.85 94.55 L45.95 94.9 45.8 95.25 45.55 95.4 -2.75 95.4 -3.05 95.25 -3.15 94.9 -3.05 94.55 -2.75 94.4" fill="#8e632d" fill-rule="evenodd" stroke="none"/>
  </g>
</svg>
