<?xml version="1.0" encoding="UTF-8" standalone="no"?>
<svg xmlns:ffdec="https://www.free-decompiler.com/flash" xmlns:xlink="http://www.w3.org/1999/xlink" ffdec:objectType="shape" height="33.75px" width="25.7px" xmlns="http://www.w3.org/2000/svg">
  <g transform="matrix(1.0, 0.0, 0.0, 1.0, -360.4, -261.7)">
    <path d="M375.45 292.2 L382.4 292.55 385.15 293.1 386.1 293.75 385.15 294.4 384.0 294.7 373.25 295.45 364.1 294.9 361.35 294.4 360.4 293.75 361.35 293.1 364.1 292.55 371.5 292.2 371.5 293.3 371.0 293.35 370.3 293.6 370.05 293.9 370.3 294.2 371.0 294.45 373.5 294.65 375.95 294.45 376.65 294.2 376.9 293.9 376.7 293.6 376.05 293.35 375.45 293.3 375.45 292.2" fill="#542e08" fill-opacity="0.36862746" fill-rule="evenodd" stroke="none"/>
    <path d="M371.5 292.2 L371.5 261.7 375.45 261.7 375.45 292.2 375.45 293.3 375.45 293.65 Q374.4 294.25 373.4 294.25 372.4 294.25 371.5 293.65 L371.5 293.3 371.5 292.2 M372.0 262.2 L372.0 293.55 Q372.7 294.1 372.95 293.55 L373.05 262.2 372.0 262.2 M375.2 261.75 L374.15 261.75 374.15 293.9 Q374.7 294.15 375.15 293.3 L375.2 293.15 375.2 261.75" fill="#835003" fill-rule="evenodd" stroke="none"/>
    <path d="M375.45 293.3 L376.05 293.35 376.7 293.6 376.9 293.9 376.65 294.2 375.95 294.45 373.5 294.65 371.0 294.45 370.3 294.2 370.05 293.9 370.3 293.6 371.0 293.35 371.5 293.3 371.5 293.65 Q372.4 294.25 373.4 294.25 374.4 294.25 375.45 293.65 L375.45 293.3" fill="#794901" fill-rule="evenodd" stroke="none"/>
    <path d="M372.0 262.2 L373.05 262.2 372.95 293.55 Q372.7 294.1 372.0 293.55 L372.0 262.2" fill="#b8730d" fill-rule="evenodd" stroke="none"/>
    <path d="M375.2 261.75 L375.2 293.15 375.15 293.3 Q374.7 294.15 374.15 293.9 L374.15 261.75 375.2 261.75" fill="#5d3903" fill-rule="evenodd" stroke="none"/>
  </g>
</svg>
