<?xml version="1.0" encoding="UTF-8" standalone="no"?>
<svg xmlns:ffdec="https://www.free-decompiler.com/flash" xmlns:xlink="http://www.w3.org/1999/xlink" ffdec:objectType="shape" height="31.55px" width="39.5px" xmlns="http://www.w3.org/2000/svg">
  <g transform="matrix(1.0, 0.0, 0.0, 1.0, 0.7, -1.25)">
    <path d="M35.1 1.7 L32.65 1.4 30.1 1.65 Q31.35 1.75 32.45 3.3 33.6 4.85 34.35 7.4 35.0 9.75 35.1 12.65 L35.1 1.7 M34.65 25.45 L35.35 14.2 Q34.2 20.45 29.6 24.0 28.05 24.7 26.2 26.5 18.1 34.25 11.3 32.45 7.9 31.6 5.65 30.0 3.45 28.45 2.6 26.25 6.45 27.75 9.6 26.85 11.05 26.45 12.3 25.65 10.25 27.1 7.8 27.25 10.85 27.55 12.9 26.55 14.9 25.5 16.4 23.1 17.85 20.65 19.25 16.9 17.25 19.3 15.3 20.6 13.4 21.9 11.05 22.05 8.7 22.15 5.45 21.15 2.35 18.05 -0.7 11.5 15.35 22.9 20.5 10.25 25.55 -2.5 38.8 2.8 L38.8 26.4 Q36.5 27.3 34.8 25.65 L34.65 25.45" fill="#9c17b6" fill-rule="evenodd" stroke="none"/>
    <path d="M35.1 1.7 L35.1 12.65 Q35.0 9.75 34.35 7.4 33.6 4.85 32.45 3.3 31.35 1.75 30.1 1.65 L32.65 1.4 35.1 1.7 M34.65 25.45 Q32.7 22.4 29.35 24.15 L29.6 24.0 Q34.2 20.45 35.35 14.2 L34.65 25.45 M12.3 25.65 L13.1 25.0 15.1 22.8 Q10.2 25.9 5.45 21.15 8.7 22.15 11.05 22.05 13.4 21.9 15.3 20.6 17.25 19.3 19.25 16.9 17.85 20.65 16.4 23.1 14.9 25.5 12.9 26.55 10.85 27.55 7.8 27.25 10.25 27.1 12.3 25.65" fill="#75008c" fill-rule="evenodd" stroke="none"/>
  </g>
</svg>
