<?xml version="1.0" encoding="UTF-8" standalone="no"?>
<svg xmlns:ffdec="https://www.free-decompiler.com/flash" xmlns:xlink="http://www.w3.org/1999/xlink" ffdec:objectType="shape" height="30.75px" width="39.15px" xmlns="http://www.w3.org/2000/svg">
  <g transform="matrix(1.0, 0.0, 0.0, 1.0, 0.35, -1.2)">
    <path d="M31.2 1.45 L32.85 1.2 32.9 1.2 35.1 1.6 35.65 1.7 35.7 1.7 38.75 2.8 38.8 2.8 38.8 26.35 38.7 26.4 37.7 26.65 36.65 26.6 36.5 26.5 34.8 25.6 34.5 25.25 34.55 25.05 34.7 25.15 35.35 14.2 34.5 17.2 33.2 19.85 31.45 22.1 30.6 22.9 30.35 23.2 29.4 24.0 28.9 24.15 24.2 27.65 24.05 27.8 22.0 29.2 18.15 31.15 17.9 31.25 14.5 31.95 14.35 31.95 11.05 31.6 10.85 31.55 8.0 30.45 7.8 30.35 5.55 28.95 3.7 27.2 2.5 25.1 4.0 25.4 4.4 25.4 5.65 25.7 8.95 25.6 11.9 24.4 11.25 24.8 11.2 24.85 9.35 25.55 7.3 25.85 11.1 25.8 14.15 24.3 16.8 21.3 19.25 16.65 19.2 16.7 16.4 19.1 16.15 19.35 13.0 20.8 9.25 20.95 5.5 19.9 3.2 17.4 -0.35 10.7 6.9 14.8 12.75 16.0 15.2 15.55 17.35 14.4 19.15 12.45 22.15 7.0 23.75 4.85 23.8 4.75 27.85 1.85 28.05 1.8 30.15 1.55 31.9 2.5 31.95 2.55 33.5 4.95 33.5 5.0 34.65 8.5 35.1 12.5 35.15 1.8 35.1 1.6 32.65 1.3 31.2 1.45 M32.7 23.8 L31.85 23.6 32.3 23.6 32.7 23.8 M12.0 24.3 L14.6 22.05 13.0 23.65 12.0 24.3 M13.05 22.65 L12.65 22.8 12.25 22.85 13.05 22.65 M12.0 22.85 L10.75 22.95 10.4 22.85 12.0 22.85 M7.15 21.55 L6.95 21.45 6.5 20.95 7.15 21.55" fill="#9c17b6" fill-rule="evenodd" stroke="none"/>
    <path d="M34.5 25.25 L34.05 24.65 33.5 24.15 32.7 23.8 32.3 23.6 31.85 23.6 30.95 23.55 29.4 24.0 30.35 23.2 30.6 22.9 31.45 22.1 33.2 19.85 34.5 17.2 35.35 14.2 34.7 25.15 34.55 25.05 34.5 25.25 M11.9 24.4 L12.0 24.3 13.0 23.65 14.6 22.05 13.4 22.55 13.25 22.6 13.05 22.65 12.25 22.85 12.15 22.85 12.0 22.85 10.4 22.85 9.75 22.8 7.45 21.8 7.15 21.55 6.5 20.95 5.2 19.8 5.5 19.9 9.25 20.95 13.0 20.8 16.15 19.35 16.4 19.1 19.2 16.7 19.25 16.65 16.8 21.3 14.15 24.3 11.1 25.8 7.3 25.85 9.35 25.55 11.2 24.85 11.25 24.8 11.9 24.4 M30.15 1.55 L30.1 1.5 31.2 1.45 32.65 1.3 35.1 1.6 35.15 1.8 35.1 12.5 34.65 8.5 33.5 5.0 33.5 4.95 31.95 2.55 31.9 2.5 30.15 1.55" fill="#75008c" fill-rule="evenodd" stroke="none"/>
  </g>
</svg>
