<?xml version="1.0" encoding="UTF-8" standalone="no"?>
<svg xmlns:ffdec="https://www.free-decompiler.com/flash" xmlns:xlink="http://www.w3.org/1999/xlink" ffdec:objectType="shape" height="30.0px" width="40.95px" xmlns="http://www.w3.org/2000/svg">
  <g transform="matrix(1.0, 0.0, 0.0, 1.0, 0.65, 1.25)">
    <path d="M40.15 2.1 L40.3 2.8 40.3 26.4 40.0 27.3 39.25 27.85 36.9 27.9 35.1 27.1 35.0 27.0 33.7 26.0 33.65 25.95 Q33.15 25.55 32.65 25.3 L32.0 25.0 Q30.75 24.5 29.1 24.45 L28.9 24.45 Q26.65 24.65 23.9 26.15 21.65 27.3 19.1 28.0 L18.95 28.05 13.9 28.75 Q11.2 28.75 8.75 27.85 L8.65 27.8 Q6.5 26.8 4.55 24.8 2.75 22.85 1.45 20.7 0.1 18.5 -0.55 16.85 L-0.5 16.85 -0.6 15.9 -0.05 15.15 Q0.3 14.8 0.8 14.8 1.3 14.8 1.7 15.1 L1.75 15.1 3.8 16.2 4.05 16.25 5.3 16.45 4.25 15.5 3.25 14.35 Q2.35 13.25 1.7 11.95 L1.7 11.85 Q0.2 9.0 0.35 5.7 0.4 5.15 0.8 4.75 L0.75 4.75 Q1.15 4.3 1.7 4.25 2.25 4.2 2.7 4.55 7.8 8.05 11.45 9.0 L17.0 9.15 Q18.95 8.45 20.05 6.95 22.9 2.9 25.75 0.9 L25.85 0.8 Q28.9 -1.45 32.4 -1.25 35.65 -1.15 39.65 1.55 L40.15 2.1" fill="#ffffff" fill-rule="evenodd" stroke="none"/>
  </g>
</svg>
