<?xml version="1.0" encoding="UTF-8" standalone="no"?>
<svg xmlns:ffdec="https://www.free-decompiler.com/flash" xmlns:xlink="http://www.w3.org/1999/xlink" ffdec:objectType="shape" height="27.0px" width="37.95px" xmlns="http://www.w3.org/2000/svg">
  <g transform="matrix(1.0, 0.0, 0.0, 1.0, -0.85, -0.25)">
    <path d="M35.1 11.7 L35.35 1.0 Q34.7 0.65 33.3 0.5 L30.05 0.6 Q31.25 0.7 32.4 2.2 33.55 3.7 34.3 6.15 35.05 8.65 35.1 11.7 M4.45 13.4 L3.05 11.25 Q1.7 8.7 1.85 5.75 7.2 9.45 11.05 10.45 14.9 11.45 17.45 10.55 19.95 9.7 21.25 7.8 24.0 3.95 26.7 2.0 29.35 0.1 32.3 0.25 35.25 0.4 38.8 2.8 L38.8 26.4 37.3 26.45 35.9 25.8 34.65 24.85 33.35 23.95 34.75 24.85 35.35 14.2 Q34.95 16.3 34.1 17.85 33.2 19.35 31.95 20.55 L29.15 22.9 Q26.55 23.0 23.2 24.8 21.1 25.9 18.7 26.55 L13.9 27.25 Q11.45 27.25 9.25 26.4 7.35 25.55 5.65 23.75 3.95 21.95 2.7 19.9 L0.85 16.3 Q2.4 17.4 3.95 17.85 7.95 19.8 11.8 19.25 15.75 18.75 19.6 15.1 16.95 16.0 14.2 16.05 11.45 16.15 8.75 15.15 6.1 14.15 3.6 11.8 L4.45 13.4 M11.8 17.35 L10.05 17.1 12.05 17.3 11.8 17.35" fill="#9c17b6" fill-rule="evenodd" stroke="none"/>
    <path d="M35.1 11.7 Q35.05 8.65 34.3 6.15 33.55 3.7 32.4 2.2 31.25 0.7 30.05 0.6 L33.3 0.5 Q34.7 0.65 35.35 1.0 L35.1 11.7 M33.35 23.95 L32.55 23.6 Q31.1 23.0 29.1 22.95 L29.15 22.9 31.95 20.55 Q33.2 19.35 34.1 17.85 34.95 16.3 35.35 14.2 L34.75 24.85 33.35 23.95 M3.95 17.85 L3.7 17.7 6.65 18.05 9.3 17.8 11.8 17.35 12.05 17.3 10.05 17.1 8.25 16.5 Q6.5 15.7 5.3 14.45 L4.45 13.4 3.6 11.8 Q6.1 14.15 8.75 15.15 11.45 16.15 14.2 16.05 16.95 16.0 19.6 15.1 15.75 18.75 11.8 19.25 7.95 19.8 3.95 17.85" fill="#75008c" fill-rule="evenodd" stroke="none"/>
  </g>
</svg>
