<?xml version="1.0" encoding="UTF-8" standalone="no"?>
<svg xmlns:ffdec="https://www.free-decompiler.com/flash" xmlns:xlink="http://www.w3.org/1999/xlink" ffdec:objectType="shape" height="24.9px" width="36.65px" xmlns="http://www.w3.org/2000/svg">
  <g transform="matrix(1.0, 0.0, 0.0, 1.0, -2.15, -1.6)">
    <path d="M35.35 2.1 L38.55 2.85 38.8 3.45 38.8 26.05 38.0 26.5 36.95 26.3 34.7 25.25 33.4 24.65 33.95 24.85 34.7 25.25 34.85 25.3 35.35 14.3 35.3 14.4 34.45 17.2 33.2 19.4 30.25 22.45 29.2 23.3 31.1 23.9 30.1 23.65 27.2 23.55 23.0 24.3 22.85 24.35 17.8 25.2 14.35 25.25 11.05 24.8 8.35 23.7 5.8 22.2 2.15 18.9 4.55 18.7 4.9 18.55 6.8 18.15 9.05 18.45 9.3 18.4 12.85 18.15 16.4 17.0 16.65 16.9 19.7 15.2 20.1 14.5 16.25 14.7 13.5 14.4 12.35 14.4 8.7 13.5 8.4 13.45 6.8 12.9 6.5 12.85 5.25 12.4 6.05 13.3 6.0 13.25 3.55 10.9 2.75 9.65 2.25 8.35 8.45 9.2 13.55 8.95 17.45 7.8 17.5 7.75 23.05 3.95 25.0 2.9 29.15 1.6 31.55 1.7 30.6 1.75 30.7 1.85 32.2 2.55 32.4 2.75 33.75 4.75 34.75 8.05 35.1 11.95 35.35 2.1 M10.55 16.95 L11.95 16.5 12.05 16.5 10.55 16.95" fill="#9c17b6" fill-rule="evenodd" stroke="none"/>
    <path d="M33.4 24.65 L32.6 24.35 32.55 24.35 31.1 23.9 29.2 23.3 30.25 22.45 33.2 19.4 34.45 17.2 35.3 14.4 35.35 14.3 34.85 25.3 34.7 25.25 33.95 24.85 33.4 24.65 M6.8 18.15 L5.2 17.95 5.15 17.95 8.6 17.45 10.55 16.95 12.05 16.5 11.95 16.5 10.5 15.85 10.3 15.8 8.2 14.85 8.05 14.8 6.25 13.5 6.05 13.3 5.25 12.4 6.5 12.85 6.8 12.9 8.4 13.45 8.7 13.5 12.35 14.4 13.5 14.4 16.25 14.7 20.1 14.5 19.7 15.2 16.65 16.9 16.4 17.0 12.85 18.15 9.3 18.4 9.05 18.45 6.8 18.15 M31.55 1.7 L33.5 1.6 33.75 1.65 35.35 1.85 35.35 2.1 35.1 11.95 34.75 8.05 33.75 4.75 32.4 2.75 32.2 2.55 30.7 1.85 30.6 1.75 31.55 1.7" fill="#75008c" fill-rule="evenodd" stroke="none"/>
  </g>
</svg>
