<?xml version="1.0" encoding="UTF-8" standalone="no"?>
<svg xmlns:ffdec="https://www.free-decompiler.com/flash" xmlns:xlink="http://www.w3.org/1999/xlink" ffdec:objectType="shape" height="27.35px" width="39.3px" xmlns="http://www.w3.org/2000/svg">
  <g transform="matrix(1.0, 0.0, 0.0, 1.0, -1.0, -0.6)">
    <path d="M39.95 2.35 Q40.3 2.8 40.3 3.35 L40.3 25.9 40.15 26.55 39.8 27.05 39.15 27.6 38.1 27.95 37.05 27.9 36.6 27.8 36.65 27.8 34.6 27.05 34.15 26.9 33.9 26.8 33.85 26.8 33.65 26.7 33.35 26.55 32.4 26.25 32.05 26.2 31.55 26.0 31.6 26.0 31.4 25.95 31.3 25.95 30.15 25.55 27.7 25.15 15.25 25.8 15.05 25.8 15.0 25.8 11.85 25.5 11.8 25.5 11.6 25.5 11.55 25.45 9.4 24.85 9.0 24.8 8.75 24.7 6.2 23.75 6.0 23.7 2.1 21.55 1.4 20.7 Q1.2 20.15 1.45 19.6 1.65 19.1 2.2 18.85 L4.4 17.85 4.3 17.85 4.45 17.8 4.65 17.3 Q4.95 16.8 5.5 16.7 L8.3 15.85 8.15 15.8 6.2 14.65 5.95 14.45 5.8 14.3 3.3 12.65 3.15 12.6 3.1 12.55 2.15 11.65 1.95 11.45 1.3 10.6 Q0.95 10.15 1.0 9.65 1.0 9.1 1.4 8.7 1.75 8.3 2.3 8.2 L7.95 7.4 8.0 7.4 9.35 7.0 9.45 7.0 9.55 6.95 9.65 6.9 12.75 6.5 13.75 6.05 13.85 6.0 13.95 6.0 16.35 5.25 21.75 2.35 21.7 2.35 21.9 2.25 21.95 2.25 24.3 1.4 24.35 1.35 24.6 1.35 28.8 0.65 29.4 0.65 29.75 0.7 31.3 0.8 32.2 0.7 32.25 0.7 32.4 0.7 35.4 0.75 Q35.95 0.75 36.35 1.15 L38.6 1.4 Q39.15 1.45 39.55 1.9 L39.95 2.35" fill="#ffffff" fill-rule="evenodd" stroke="none"/>
  </g>
</svg>
