<?xml version="1.0" encoding="UTF-8" standalone="no"?>
<svg xmlns:ffdec="https://www.free-decompiler.com/flash" xmlns:xlink="http://www.w3.org/1999/xlink" ffdec:objectType="shape" height="26.9px" width="38.9px" xmlns="http://www.w3.org/2000/svg">
  <g transform="matrix(1.0, 0.0, 0.0, 1.0, -1.4, -1.1)">
    <path d="M39.05 1.55 Q39.55 1.65 39.95 2.1 40.3 2.5 40.3 3.05 L40.3 25.6 40.2 26.2 39.85 27.0 39.35 27.6 38.7 27.9 38.0 28.0 37.95 28.0 37.7 28.0 36.75 27.95 36.65 27.95 36.6 27.95 34.45 27.6 34.1 27.5 34.05 27.5 33.85 27.4 33.35 27.25 33.1 27.2 32.25 26.95 31.85 26.85 31.8 26.85 31.6 26.8 31.65 26.8 29.25 25.8 29.1 25.75 28.15 25.2 28.05 25.2 28.0 25.15 27.95 25.15 28.0 25.15 27.0 24.7 26.9 24.7 24.7 24.1 24.6 24.1 24.55 24.1 21.65 23.8 14.8 23.8 13.9 23.9 13.8 23.9 4.15 24.25 Q3.55 24.25 3.15 23.9 2.65 23.5 2.6 22.95 2.55 22.35 2.9 21.85 L5.1 18.85 5.1 18.9 5.3 18.65 5.95 18.0 Q6.05 17.55 6.4 17.25 L7.45 16.3 7.65 16.2 7.6 16.2 8.7 15.5 8.65 15.55 8.95 15.3 9.15 15.15 9.45 15.0 7.1 14.1 6.8 14.05 6.7 14.05 5.6 13.85 2.9 13.8 Q2.25 13.8 1.85 13.35 L1.8 13.35 Q1.4 12.9 1.4 12.3 1.4 11.65 1.85 11.25 L4.55 8.6 4.65 8.55 4.75 8.45 8.1 6.05 8.15 6.0 8.35 5.85 8.4 5.85 11.25 4.6 12.5 3.9 12.55 3.9 12.75 3.8 15.2 2.95 15.25 2.95 15.5 2.85 19.9 1.45 20.15 1.35 22.05 1.1 22.1 1.1 22.4 1.1 28.9 1.6 29.2 1.7 29.15 1.7 29.5 1.8 29.45 1.75 31.4 2.0 35.25 1.6 35.8 1.65 37.05 1.45 37.25 1.45 38.1 1.45 38.35 1.45 38.4 1.45 39.05 1.55" fill="#ffffff" fill-rule="evenodd" stroke="none"/>
  </g>
</svg>
