<?xml version="1.0" encoding="UTF-8" standalone="no"?>
<svg xmlns:ffdec="https://www.free-decompiler.com/flash" xmlns:xlink="http://www.w3.org/1999/xlink" ffdec:objectType="shape" height="27.45px" width="38.7px" xmlns="http://www.w3.org/2000/svg">
  <g transform="matrix(1.0, 0.0, 0.0, 1.0, -1.6, -0.65)">
    <path d="M39.5 1.6 L40.1 2.2 40.1 2.15 40.3 2.95 40.3 25.45 40.3 25.7 40.1 26.7 39.65 27.45 38.9 27.9 38.2 28.05 38.25 28.0 38.0 28.05 37.1 28.1 36.9 28.1 34.7 27.95 34.45 27.95 34.45 27.9 32.05 27.3 32.0 27.3 31.65 27.1 31.65 27.15 28.55 25.3 28.2 25.05 27.25 24.45 25.15 23.5 25.0 23.5 22.25 22.9 18.55 22.8 17.85 22.9 17.8 22.9 17.65 22.9 15.7 22.95 12.95 23.35 12.55 23.5 12.45 23.5 12.4 23.5 5.15 25.5 4.05 25.35 4.05 25.4 Q3.5 25.1 3.35 24.5 3.15 23.9 3.4 23.4 L5.4 19.45 5.45 19.4 5.65 19.1 5.65 19.15 6.8 17.85 6.8 17.8 6.9 17.6 7.65 16.5 7.7 16.5 8.0 16.2 7.95 16.2 9.95 14.6 7.65 14.1 7.15 14.1 6.65 14.1 3.55 15.1 2.65 15.1 2.7 15.1 1.95 14.6 1.9 14.6 Q1.6 14.2 1.6 13.75 1.6 13.25 1.85 12.85 L4.2 9.05 4.2 9.1 4.35 8.85 7.5 5.55 Q7.6 5.4 7.8 5.35 L11.9 2.85 12.1 2.7 12.15 2.7 14.65 1.8 15.05 1.7 17.4 1.05 17.55 1.0 17.65 0.95 19.75 0.65 19.8 0.65 19.95 0.65 21.95 0.65 22.3 0.7 28.95 2.15 29.05 2.2 29.25 2.25 29.35 2.25 31.45 2.6 31.55 2.55 33.8 2.25 33.85 2.25 34.0 2.25 35.1 2.05 35.25 2.0 35.2 2.05 36.75 1.65 36.95 1.6 38.65 1.45 39.5 1.6" fill="#ffffff" fill-rule="evenodd" stroke="none"/>
  </g>
</svg>
