<?xml version="1.0" encoding="UTF-8" standalone="no"?>
<svg xmlns:ffdec="https://www.free-decompiler.com/flash" xmlns:xlink="http://www.w3.org/1999/xlink" ffdec:objectType="shape" height="23.95px" width="36.45px" xmlns="http://www.w3.org/2000/svg">
  <g transform="matrix(1.0, 0.0, 0.0, 1.0, -2.35, -2.5)">
    <path d="M35.45 2.6 L35.65 2.55 38.75 2.8 38.8 2.85 38.8 26.4 38.2 26.45 38.0 26.45 37.05 26.35 35.15 25.95 35.4 13.25 33.55 18.95 33.45 19.15 31.95 21.45 31.9 21.55 29.85 23.5 29.85 23.55 32.8 25.1 32.35 25.0 31.8 24.75 29.8 24.25 29.4 24.1 27.25 23.65 24.7 23.55 24.35 23.6 18.2 23.85 17.25 23.7 5.2 22.9 3.25 22.5 5.85 20.15 7.55 19.05 9.1 18.95 14.9 17.55 18.2 16.15 18.5 16.05 19.75 15.3 19.95 15.2 21.15 14.25 18.75 13.75 18.05 13.75 14.55 13.15 14.15 13.15 10.1 12.85 10.0 12.85 8.3 13.1 8.15 13.15 7.2 13.6 5.4 13.15 5.2 13.15 2.45 12.65 2.35 12.7 2.35 12.6 2.45 12.65 3.9 11.45 9.25 8.0 20.4 3.1 22.05 2.7 26.4 2.5 32.0 2.9 31.6 2.95 33.1 3.8 33.15 3.8 34.2 5.35 34.35 5.75 35.0 8.1 35.25 11.25 35.25 12.1 35.5 4.7 35.4 4.6 35.45 2.6" fill="#9c17b6" fill-rule="evenodd" stroke="none"/>
    <path d="M32.0 2.9 L34.7 2.5 35.45 2.55 35.45 2.6 35.4 4.6 35.5 4.7 35.25 12.1 35.25 11.25 35.0 8.1 34.35 5.75 34.2 5.35 33.15 3.8 33.1 3.8 31.6 2.95 32.0 2.9 M35.15 25.95 L33.0 25.25 32.8 25.1 29.85 23.55 29.85 23.5 31.9 21.55 31.95 21.45 33.45 19.15 33.55 18.95 35.4 13.25 35.15 25.95 M7.55 19.05 L7.3 19.05 8.25 18.25 13.15 15.35 8.75 14.45 6.85 13.7 7.2 13.6 8.15 13.15 8.3 13.1 10.0 12.85 10.1 12.85 14.15 13.15 14.55 13.15 18.05 13.75 18.75 13.75 21.15 14.25 19.95 15.2 19.75 15.3 18.5 16.05 18.2 16.15 14.9 17.55 9.1 18.95 7.55 19.05" fill="#75008c" fill-rule="evenodd" stroke="none"/>
  </g>
</svg>
