<?xml version="1.0" encoding="UTF-8" standalone="no"?>
<svg xmlns:ffdec="https://www.free-decompiler.com/flash" xmlns:xlink="http://www.w3.org/1999/xlink" ffdec:objectType="shape" height="27.7px" width="40.0px" xmlns="http://www.w3.org/2000/svg">
  <g transform="matrix(1.0, 0.0, 0.0, 1.0, -0.3, -0.25)">
    <path d="M39.85 1.8 Q40.3 2.25 40.3 2.85 L40.3 26.4 Q40.3 27.0 39.9 27.45 L39.9 27.4 Q39.5 27.85 38.95 27.9 L38.3 27.95 38.25 27.95 37.85 27.9 37.9 27.95 37.1 27.8 36.85 27.7 36.8 27.7 35.3 27.1 35.2 27.1 35.15 27.1 34.6 27.0 34.55 27.0 32.55 26.15 32.3 26.0 32.1 25.9 31.8 25.8 31.85 25.85 31.7 25.8 31.65 25.8 31.15 25.6 30.35 25.45 27.9 25.4 19.75 27.0 19.5 27.0 17.3 27.05 17.05 27.0 17.1 27.05 13.2 26.4 12.2 26.35 11.9 26.3 6.2 24.75 6.0 24.7 5.95 24.7 3.45 23.6 3.4 23.55 3.3 23.5 3.25 23.45 1.45 22.4 Q0.95 22.1 0.8 21.55 0.6 20.95 0.85 20.45 1.1 19.9 1.7 19.7 L4.4 18.7 4.55 18.6 4.7 18.55 4.75 18.55 Q5.05 18.4 5.4 18.3 L5.85 17.95 7.05 17.35 7.0 17.35 7.15 17.3 7.2 17.3 8.25 16.9 7.85 16.8 7.8 16.8 7.5 16.65 7.5 16.7 5.5 15.6 5.0 15.15 4.05 14.65 4.0 14.65 3.55 14.45 3.6 14.45 1.35 13.0 0.85 12.65 0.75 12.55 Q0.35 12.15 0.3 11.65 L0.3 11.6 Q0.25 11.1 0.6 10.65 L1.45 10.05 1.9 10.0 12.25 6.75 Q16.2 4.65 20.1 2.6 L20.15 2.55 20.2 2.55 21.95 1.8 22.2 1.7 26.2 0.7 26.45 0.65 28.9 0.45 29.2 0.45 29.55 0.5 31.75 0.4 31.95 0.4 32.1 0.45 32.3 0.4 34.45 0.25 34.7 0.25 35.6 0.35 35.9 0.4 36.35 0.5 39.2 1.4 39.8 1.75 39.85 1.8" fill="#ffffff" fill-rule="evenodd" stroke="none"/>
  </g>
</svg>
