<?xml version="1.0" encoding="UTF-8" standalone="no"?>
<svg xmlns:ffdec="https://www.free-decompiler.com/flash" xmlns:xlink="http://www.w3.org/1999/xlink" ffdec:objectType="shape" height="27.7px" width="37.45px" xmlns="http://www.w3.org/2000/svg">
  <g transform="matrix(1.0, 0.0, 0.0, 1.0, -1.35, -0.55)">
    <path d="M35.7 0.85 L36.15 0.9 38.7 2.8 38.8 3.45 38.8 26.25 38.75 26.4 38.1 26.4 35.2 24.95 35.45 11.8 33.9 17.95 33.9 18.0 32.55 20.65 32.55 20.7 30.55 22.8 32.45 23.55 31.3 23.25 30.05 23.2 27.05 23.95 20.85 27.15 19.1 27.7 18.5 27.95 16.3 28.25 11.2 27.3 8.3 26.0 5.35 23.85 2.85 21.25 1.35 18.8 3.15 19.45 4.85 19.8 6.8 19.9 8.3 20.55 10.45 20.9 14.85 20.25 18.55 18.15 19.85 16.7 20.6 15.05 20.55 15.05 17.6 16.05 13.8 16.15 6.6 15.15 6.45 15.1 8.5 16.65 10.9 17.5 12.9 17.85 13.75 17.9 13.65 17.95 11.95 17.8 11.75 17.75 9.9 17.45 6.8 16.25 6.65 16.15 4.5 14.35 3.8 13.6 1.5 9.6 4.5 10.3 4.55 10.3 7.2 10.7 11.45 10.75 14.55 10.3 16.75 9.35 18.3 8.25 23.15 4.05 27.0 1.8 29.35 1.05 29.5 1.05 32.1 0.6 34.45 0.55 35.65 0.8 34.2 0.65 31.25 0.85 32.75 2.2 34.05 3.95 34.2 4.25 35.2 7.25 35.45 11.0 35.7 0.85 M33.95 24.3 L32.75 23.7 33.05 23.8 33.95 24.3" fill="#9c17b6" fill-rule="evenodd" stroke="none"/>
    <path d="M35.65 0.8 L35.7 0.8 35.7 0.85 35.45 11.0 35.2 7.25 34.2 4.25 34.05 3.95 32.75 2.2 31.25 0.85 34.2 0.65 35.65 0.8 M35.2 24.95 L35.2 25.1 35.1 25.05 34.15 24.45 33.95 24.3 33.05 23.8 32.75 23.7 32.45 23.55 30.55 22.8 32.55 20.7 32.55 20.65 33.9 18.0 33.9 17.95 35.45 11.8 35.2 24.95 M6.8 19.9 L6.3 19.65 6.35 19.65 11.35 18.85 11.45 18.85 13.65 17.95 13.75 17.9 12.9 17.85 10.9 17.5 8.5 16.65 6.45 15.1 6.6 15.15 13.8 16.15 17.6 16.05 20.55 15.05 20.6 15.05 19.85 16.7 18.55 18.15 14.85 20.25 10.45 20.9 8.3 20.55 6.8 19.9" fill="#75008c" fill-rule="evenodd" stroke="none"/>
  </g>
</svg>
