<?xml version="1.0" encoding="UTF-8" standalone="no"?>
<svg xmlns:ffdec="https://www.free-decompiler.com/flash" xmlns:xlink="http://www.w3.org/1999/xlink" ffdec:objectType="shape" height="27.45px" width="35.1px" xmlns="http://www.w3.org/2000/svg">
  <g transform="matrix(1.0, 0.0, 0.0, 1.0, -5.2, -0.8)">
    <path d="M40.3 3.0 L40.3 26.35 40.1 27.15 39.5 27.7 39.4 27.75 39.15 27.85 39.1 27.85 38.55 28.0 38.1 28.05 36.65 28.0 36.4 28.0 35.3 27.8 35.0 27.8 34.9 27.8 34.45 27.75 34.3 27.7 34.25 27.7 34.1 27.65 34.15 27.65 33.15 27.4 32.85 27.3 32.5 27.15 31.45 26.8 31.0 26.65 29.55 25.95 29.6 25.95 29.4 25.85 29.35 25.85 25.25 23.05 25.2 23.0 25.15 22.95 24.8 23.05 23.7 23.6 23.55 23.75 23.6 23.7 23.5 23.8 23.4 23.85 22.75 24.3 22.85 24.25 22.2 24.85 22.1 24.95 22.05 24.95 18.7 27.4 18.4 27.6 18.35 27.6 17.45 27.95 17.4 27.95 17.3 28.0 16.95 28.1 17.0 28.1 16.75 28.15 16.7 28.15 15.7 28.25 15.55 28.25 15.05 28.25 14.85 28.25 14.05 28.15 14.0 28.15 13.75 28.1 12.95 27.85 13.0 27.85 12.75 27.75 11.05 26.9 10.7 26.7 9.05 25.15 8.8 24.85 7.5 22.7 Q7.15 22.15 7.3 21.6 L7.3 21.55 Q7.45 20.95 7.95 20.65 L9.05 20.45 10.7 20.8 11.35 20.6 13.1 19.05 13.05 18.75 Q13.05 18.25 13.4 17.9 L13.6 17.65 13.15 17.7 12.1 17.95 12.15 17.9 11.45 17.9 10.0 17.55 10.05 17.6 9.4 17.3 9.4 17.25 7.75 15.85 7.7 15.85 7.45 15.5 7.45 15.55 5.45 12.55 Q5.1 12.05 5.25 11.45 5.35 10.85 5.85 10.5 6.3 10.1 6.95 10.2 L9.45 10.6 10.95 10.35 13.3 8.6 13.3 8.55 15.15 6.35 15.1 6.4 15.55 5.75 15.55 5.7 15.7 5.55 17.05 4.05 17.2 3.9 18.75 2.6 19.1 2.4 19.05 2.4 21.25 1.35 21.3 1.35 21.6 1.25 23.25 0.9 24.0 0.95 28.1 2.25 28.15 2.25 28.35 2.35 29.0 2.65 29.85 2.8 31.0 2.65 31.3 2.55 35.0 1.25 35.05 1.25 35.55 1.15 35.75 1.1 35.85 1.05 35.9 1.05 37.5 0.8 38.5 1.05 39.6 1.75 40.1 2.3 40.3 3.0" fill="#ffffff" fill-rule="evenodd" stroke="none"/>
  </g>
</svg>
