<?xml version="1.0" encoding="UTF-8" standalone="no"?>
<svg xmlns:ffdec="https://www.free-decompiler.com/flash" xmlns:xlink="http://www.w3.org/1999/xlink" ffdec:objectType="shape" height="24.45px" width="32.1px" xmlns="http://www.w3.org/2000/svg">
  <g transform="matrix(1.0, 0.0, 0.0, 1.0, -6.7, -2.3)">
    <path d="M35.5 2.75 L35.7 2.65 36.1 2.55 37.7 2.3 38.8 3.0 38.8 26.35 38.7 26.4 38.15 26.55 36.7 26.5 35.0 26.2 35.3 13.0 33.7 19.2 32.4 21.9 32.35 21.9 30.4 24.05 32.15 25.35 32.6 25.5 33.1 25.75 31.75 25.3 31.65 25.3 30.2 24.6 26.1 21.8 26.05 21.75 25.2 21.4 24.25 21.6 22.95 22.25 22.55 22.6 21.9 23.05 21.15 23.75 17.8 26.2 16.9 26.55 16.55 26.65 15.55 26.75 15.0 26.75 14.2 26.65 13.4 26.4 11.7 25.55 10.05 24.05 8.75 21.9 10.65 22.3 10.95 22.25 12.15 21.9 14.65 19.6 15.6 18.45 17.6 17.75 19.1 16.95 20.85 16.3 22.2 15.5 26.6 14.0 23.85 12.8 20.7 12.15 17.65 12.45 16.25 13.05 15.0 13.85 16.45 14.15 17.8 14.2 16.2 14.75 16.05 14.85 13.15 16.2 13.0 16.2 11.8 16.45 10.35 16.1 8.7 14.7 6.7 11.7 9.55 12.15 9.6 12.1 11.55 11.8 14.35 9.65 16.35 7.25 16.8 6.55 18.15 5.05 19.7 3.75 21.9 2.7 23.55 2.35 27.65 3.65 28.5 4.1 29.65 4.3 29.8 4.35 31.4 4.15 31.75 4.05 31.65 4.2 32.8 5.05 34.2 6.4 34.35 6.65 34.95 8.4 35.1 9.35 35.25 12.05 35.3 11.8 35.5 2.75 M18.25 15.1 L18.35 14.95 19.75 14.0 19.9 14.0 18.25 15.1 M33.25 3.55 L34.3 3.15 34.25 3.2 33.25 3.55 M15.0 13.85 L14.95 13.85 14.95 13.9 15.0 13.85" fill="#9c17b6" fill-rule="evenodd" stroke="none"/>
    <path d="M35.0 26.2 L35.0 26.3 34.9 26.3 34.85 26.25 34.5 26.2 33.5 25.95 33.1 25.75 32.6 25.5 32.15 25.35 30.4 24.05 32.35 21.9 32.4 21.9 33.7 19.2 35.3 13.0 35.0 26.2 M15.6 18.45 L14.55 18.8 16.2 16.75 17.8 15.4 17.85 15.35 18.25 15.1 19.9 14.0 19.75 14.0 18.25 14.15 18.05 14.2 17.8 14.2 16.45 14.15 15.0 13.85 16.25 13.05 17.65 12.45 20.7 12.15 23.85 12.8 26.6 14.0 22.2 15.5 20.85 16.3 19.1 16.95 17.6 17.75 15.6 18.45 M31.75 4.05 L31.8 3.95 33.25 3.55 34.25 3.2 34.3 3.15 35.5 2.65 35.5 2.75 35.3 11.8 35.25 12.05 35.1 9.35 34.95 8.4 34.35 6.65 34.2 6.4 32.8 5.05 31.65 4.2 31.75 4.05 M15.0 13.85 L14.95 13.9 14.95 13.85 15.0 13.85" fill="#75008c" fill-rule="evenodd" stroke="none"/>
  </g>
</svg>
