<?xml version="1.0" encoding="UTF-8" standalone="no"?>
<svg xmlns:ffdec="https://www.free-decompiler.com/flash" xmlns:xlink="http://www.w3.org/1999/xlink" ffdec:objectType="shape" height="27.95px" width="34.25px" xmlns="http://www.w3.org/2000/svg">
  <g transform="matrix(1.0, 0.0, 0.0, 1.0, -6.05, -0.5)">
    <path d="M40.3 2.95 L40.3 26.35 40.1 27.15 39.5 27.7 39.4 27.75 39.15 27.85 39.1 27.85 38.55 28.0 38.35 28.05 37.55 28.15 37.5 28.15 37.35 28.15 36.75 28.15 36.55 28.15 36.5 28.15 35.45 28.0 35.35 28.05 34.4 27.95 34.35 27.9 33.2 27.7 32.9 27.6 32.95 27.6 31.6 27.15 31.0 26.95 29.6 26.1 29.55 26.1 29.3 25.85 25.75 22.25 25.5 22.15 25.2 22.15 24.55 22.5 23.6 23.35 23.7 23.3 23.15 23.95 23.15 23.9 23.1 24.0 23.05 24.05 20.05 27.1 19.65 27.4 18.45 28.0 18.4 28.0 18.05 28.15 16.55 28.45 16.6 28.4 16.1 28.45 14.45 28.25 14.4 28.25 13.95 28.1 12.25 27.3 11.95 27.1 10.4 25.75 10.35 25.7 10.3 25.65 10.25 25.6 10.25 25.65 10.05 25.35 8.75 23.2 Q8.4 22.65 8.55 22.1 8.65 21.45 9.2 21.15 L10.3 20.95 11.9 21.25 12.55 21.05 14.4 18.85 14.4 18.8 Q14.35 18.25 14.65 17.85 L14.8 17.6 14.55 17.7 13.3 18.1 12.6 18.15 11.1 17.9 10.45 17.6 8.75 16.25 8.45 15.95 8.45 15.9 6.35 12.9 6.3 12.9 Q5.95 12.4 6.1 11.8 6.15 11.2 6.65 10.85 L7.75 10.55 7.8 10.55 10.2 10.9 11.65 10.6 13.8 8.5 15.75 5.3 15.8 5.15 15.85 5.1 17.1 3.5 17.15 3.45 17.35 3.25 18.9 1.95 Q19.05 1.8 19.25 1.75 L21.45 0.8 21.9 0.65 23.55 0.5 24.3 0.6 24.3 0.65 26.9 1.75 27.1 1.85 27.15 1.85 29.25 3.2 29.95 3.4 31.15 3.2 31.3 3.15 35.0 1.55 35.2 1.45 37.2 0.9 38.15 1.0 38.15 0.95 38.8 1.2 38.75 1.2 39.05 1.3 39.05 1.35 39.6 1.7 40.1 2.25 40.3 2.95" fill="#ffffff" fill-rule="evenodd" stroke="none"/>
  </g>
</svg>
