<?xml version="1.0" encoding="UTF-8" standalone="no"?>
<svg xmlns:ffdec="https://www.free-decompiler.com/flash" xmlns:xlink="http://www.w3.org/1999/xlink" ffdec:objectType="shape" height="28.5px" width="33.4px" xmlns="http://www.w3.org/2000/svg">
  <g transform="matrix(1.0, 0.0, 0.0, 1.0, -6.9, -0.15)">
    <path d="M40.3 2.9 L40.3 26.35 40.05 27.2 40.05 27.25 39.35 27.75 38.7 28.0 38.75 27.95 38.6 28.05 38.55 28.05 38.15 28.15 38.1 28.2 37.75 28.2 37.65 28.2 37.0 28.3 36.95 28.3 36.6 28.3 35.45 28.2 35.3 28.25 34.3 28.15 33.4 28.0 33.35 28.0 32.9 27.95 32.85 27.95 31.4 27.45 30.95 27.15 29.7 26.3 29.3 25.95 29.3 25.9 26.1 21.35 25.9 21.2 25.25 21.55 24.5 22.35 24.55 22.3 21.5 26.6 21.45 26.6 21.3 26.75 21.15 26.9 21.0 27.05 20.95 27.1 19.8 27.9 19.45 28.1 17.95 28.6 17.4 28.65 15.7 28.55 15.25 28.45 13.5 27.75 13.1 27.55 13.1 27.5 11.6 26.25 11.2 25.8 11.15 25.7 11.2 25.7 10.0 23.75 Q9.65 23.2 9.8 22.65 L9.8 22.6 Q9.95 22.0 10.45 21.7 L11.55 21.5 13.0 21.75 13.85 21.4 15.8 18.8 15.8 18.75 Q15.7 18.25 15.9 17.85 L16.1 17.45 16.0 17.5 15.8 17.6 14.5 18.2 13.75 18.35 13.7 18.35 12.15 18.2 Q11.75 18.15 11.4 17.9 L9.65 16.6 9.35 16.3 7.2 13.3 Q6.8 12.8 6.9 12.2 7.0 11.55 7.5 11.2 8.0 10.85 8.6 10.9 L11.1 11.25 12.25 10.9 14.3 8.4 14.25 8.5 15.95 4.9 15.95 4.85 16.0 4.7 16.05 4.65 17.15 2.95 17.15 2.9 17.5 2.6 17.45 2.6 19.0 1.35 19.05 1.35 19.45 1.1 21.65 0.25 21.6 0.3 22.15 0.15 23.9 0.15 24.65 0.35 27.2 1.8 27.4 1.95 27.45 1.95 29.45 3.65 30.15 3.95 31.05 3.85 Q31.15 3.7 31.35 3.65 L32.95 2.95 35.2 1.65 35.25 1.65 35.5 1.55 35.45 1.55 37.05 0.95 37.0 0.95 38.15 1.0 39.4 1.55 Q39.8 1.7 40.05 2.1 L40.3 2.9" fill="#ffffff" fill-rule="evenodd" stroke="none"/>
  </g>
</svg>
