<?xml version="1.0" encoding="UTF-8" standalone="no"?>
<svg xmlns:ffdec="https://www.free-decompiler.com/flash" xmlns:xlink="http://www.w3.org/1999/xlink" ffdec:objectType="shape" height="29.4px" width="32.5px" xmlns="http://www.w3.org/2000/svg">
  <g transform="matrix(1.0, 0.0, 0.0, 1.0, -7.8, 0.45)">
    <path d="M24.6 -0.15 Q26.45 0.6 27.8 2.2 L27.75 2.2 27.8 2.25 29.65 4.25 29.7 4.3 30.8 4.5 Q31.05 4.3 31.35 4.25 L32.0 4.05 32.7 3.65 32.8 3.6 32.9 3.55 33.0 3.45 33.75 2.95 33.7 2.95 Q35.15 1.75 36.25 1.2 38.2 0.1 39.85 1.75 40.3 2.2 40.3 2.8 L40.3 26.4 40.05 27.25 39.4 27.8 39.35 27.8 37.7 28.3 35.95 28.45 35.1 28.45 34.9 28.45 34.55 28.45 34.65 28.45 33.5 28.35 33.45 28.35 33.35 28.35 Q30.85 28.0 29.45 26.2 L29.4 26.1 Q28.3 24.55 27.6 22.75 L26.45 20.3 26.4 20.25 Q25.75 20.65 25.35 21.3 L24.15 23.75 22.45 26.65 Q21.25 28.15 19.05 28.75 L18.95 28.8 16.15 28.75 16.05 28.7 Q14.55 28.35 13.2 27.15 11.9 25.95 11.1 24.0 L11.15 24.05 Q10.9 23.45 11.15 22.9 L11.1 22.9 Q11.35 22.3 11.9 22.1 L11.9 22.05 Q12.45 21.8 13.05 22.05 L15.1 21.95 15.15 21.9 Q16.15 20.8 16.9 18.95 L16.9 18.85 17.1 18.3 17.2 18.0 17.4 17.25 Q15.35 19.15 12.9 18.45 L12.95 18.5 Q10.8 18.05 8.05 13.55 7.7 13.0 7.85 12.4 8.0 11.8 8.55 11.5 9.05 11.15 9.7 11.3 L13.0 11.2 13.05 11.15 Q14.2 10.25 14.7 8.6 L16.1 4.5 16.15 4.4 Q17.1 1.8 19.3 0.55 L19.4 0.5 19.45 0.5 Q22.65 -1.05 24.65 -0.1 L24.6 -0.15" fill="#ffffff" fill-rule="evenodd" stroke="none"/>
  </g>
</svg>
