<?xml version="1.0" encoding="UTF-8" standalone="no"?>
<svg xmlns:ffdec="https://www.free-decompiler.com/flash" xmlns:xlink="http://www.w3.org/1999/xlink" ffdec:objectType="shape" height="26.1px" width="30.7px" xmlns="http://www.w3.org/2000/svg">
  <g transform="matrix(1.0, 0.0, 0.0, 1.0, -8.1, -1.1)">
    <path d="M33.25 4.65 L33.85 4.4 33.9 4.4 37.4 2.25 38.7 2.75 38.8 3.2 38.8 26.4 37.9 26.7 36.7 26.95 34.9 26.85 35.2 13.6 33.6 19.85 32.25 22.55 30.3 24.7 31.85 26.2 31.95 26.25 33.3 26.75 33.35 26.75 34.2 26.85 33.35 26.8 31.7 26.2 30.45 25.05 26.95 19.65 26.1 19.05 25.15 19.05 24.05 19.7 23.95 19.75 23.25 20.45 23.0 20.75 21.05 23.95 19.7 25.7 18.5 26.6 16.95 27.15 16.5 27.2 15.2 27.15 13.45 26.6 11.75 25.35 11.65 25.15 10.45 23.25 12.5 23.45 14.1 22.75 16.6 19.45 17.1 18.4 21.0 15.55 23.9 14.0 25.85 13.45 26.1 13.35 27.1 13.2 27.2 13.2 28.3 13.0 25.75 11.25 22.7 10.4 19.8 11.0 18.5 11.95 17.45 13.4 18.55 13.15 17.8 13.55 14.75 15.8 13.3 16.35 11.9 16.2 11.75 16.2 10.05 14.8 10.0 14.65 8.1 11.75 10.85 12.05 12.75 11.55 14.85 9.2 15.2 8.7 18.2 3.2 19.7 1.95 21.95 1.1 22.05 1.1 23.7 1.2 23.85 1.25 26.3 2.8 28.6 4.7 28.75 4.8 29.9 5.25 31.45 5.25 32.0 5.1 31.8 5.25 34.2 7.35 34.95 9.25 35.15 12.8 35.4 3.6 34.35 4.25 34.05 4.4 33.25 4.65 M19.65 13.8 L19.95 13.4 21.35 12.4 21.4 12.4 21.45 12.35 21.3 12.55 19.65 13.8" fill="#9c17b6" fill-rule="evenodd" stroke="none"/>
    <path d="M34.9 26.85 L34.85 26.95 34.7 26.85 34.3 26.85 34.2 26.85 33.35 26.75 33.3 26.75 31.95 26.25 31.85 26.2 30.3 24.7 32.25 22.55 33.6 19.85 35.2 13.6 34.9 26.85 M17.1 18.4 L16.8 18.6 18.1 15.75 19.5 13.9 19.65 13.8 21.3 12.55 21.45 12.35 21.4 12.4 20.25 12.75 20.15 12.8 18.55 13.15 17.45 13.4 18.5 11.95 19.8 11.0 22.7 10.4 25.75 11.25 28.3 13.0 27.2 13.2 27.1 13.2 26.1 13.35 25.85 13.45 23.9 14.0 21.0 15.55 17.1 18.4 M32.0 5.1 L32.05 5.05 33.25 4.65 34.05 4.4 34.35 4.25 35.4 3.6 35.15 12.8 34.95 9.25 34.2 7.35 31.8 5.25 32.0 5.1" fill="#75008c" fill-rule="evenodd" stroke="none"/>
  </g>
</svg>
