<?xml version="1.0" encoding="UTF-8" standalone="no"?>
<svg xmlns:ffdec="https://www.free-decompiler.com/flash" xmlns:xlink="http://www.w3.org/1999/xlink" ffdec:objectType="shape" height="25.9px" width="31.95px" xmlns="http://www.w3.org/2000/svg">
  <g transform="matrix(1.0, 0.0, 0.0, 1.0, -6.85, -1.1)">
    <path d="M17.15 13.3 L16.35 13.65 16.35 13.7 13.5 15.3 13.15 15.4 11.7 15.65 10.4 15.4 10.25 15.35 8.7 13.85 6.85 10.7 9.65 11.05 11.4 10.75 11.6 10.7 13.9 8.8 14.35 8.35 16.65 4.95 16.85 4.75 17.9 3.35 19.4 2.1 19.95 1.8 21.55 1.15 21.65 1.1 23.3 1.1 23.5 1.15 26.5 2.65 28.5 4.05 29.8 4.55 31.35 4.65 32.05 4.5 32.6 4.45 33.75 4.2 33.8 4.2 34.8 3.8 37.4 2.2 37.5 2.2 38.65 2.7 38.8 3.1 38.8 26.4 37.7 26.75 36.95 26.9 34.9 26.85 35.2 13.6 33.6 19.85 33.6 19.9 32.2 22.6 30.9 24.0 30.9 24.05 30.25 24.75 31.8 26.2 31.55 26.1 30.25 24.9 27.65 21.3 26.45 20.05 26.15 19.8 25.25 19.35 24.3 19.35 24.25 19.4 22.95 20.0 21.95 20.95 19.75 24.1 18.15 25.7 17.95 25.85 16.85 26.45 15.2 26.95 14.35 27.0 13.45 26.9 11.8 26.5 11.6 26.4 9.8 25.15 8.4 23.1 10.45 23.15 12.1 22.5 14.25 20.3 14.85 19.5 15.35 18.65 22.05 14.8 22.7 14.35 26.95 12.55 24.65 11.55 24.25 11.3 21.15 10.65 18.65 11.05 18.2 11.2 16.9 12.15 15.8 13.55 17.15 13.3 M33.25 26.75 L33.2 26.75 32.4 26.45 33.25 26.75 M18.15 14.05 L18.5 13.7 19.95 12.8 19.9 12.85 18.15 14.05 M32.05 4.6 L31.9 4.85 34.1 7.15 34.85 9.05 35.15 11.65 35.15 12.6 35.2 12.3 35.4 3.65 35.0 3.7 34.4 4.1 34.1 4.2 32.05 4.6" fill="#9c17b6" fill-rule="evenodd" stroke="none"/>
    <path d="M34.9 26.85 L34.85 26.85 34.8 26.95 34.7 26.85 33.35 26.8 33.25 26.75 32.4 26.45 31.9 26.25 31.85 26.25 31.8 26.2 30.25 24.75 30.9 24.05 30.9 24.0 32.2 22.6 33.6 19.9 33.6 19.85 35.2 13.6 34.9 26.85 M15.35 18.65 L15.0 18.8 16.3 16.25 16.45 16.0 17.65 14.5 18.0 14.15 18.15 14.05 19.9 12.85 19.95 12.8 19.95 12.7 18.65 13.05 18.55 13.05 17.15 13.3 15.8 13.55 16.9 12.15 18.2 11.2 18.65 11.05 21.15 10.65 24.25 11.3 24.65 11.55 26.95 12.55 22.7 14.35 22.05 14.8 15.35 18.65 M32.05 4.6 L34.1 4.2 34.4 4.1 35.0 3.7 35.4 3.65 35.2 12.3 35.15 12.6 35.15 11.65 34.85 9.05 34.1 7.15 31.9 4.85 32.05 4.6" fill="#75008c" fill-rule="evenodd" stroke="none"/>
  </g>
</svg>
