<?xml version="1.0" encoding="UTF-8" standalone="no"?>
<svg xmlns:ffdec="https://www.free-decompiler.com/flash" xmlns:xlink="http://www.w3.org/1999/xlink" ffdec:objectType="shape" height="29.95px" width="40.95px" xmlns="http://www.w3.org/2000/svg">
  <g transform="matrix(1.0, 0.0, 0.0, 1.0, 0.65, -0.35)">
    <path d="M39.4 1.5 L40.1 2.6 40.3 3.4 40.3 26.4 40.0 27.3 39.2 27.85 38.15 28.15 38.2 28.15 37.8 28.2 36.9 28.3 36.75 28.3 36.6 28.3 36.3 28.3 34.3 27.85 34.25 27.8 33.95 27.7 34.0 27.7 33.25 27.35 33.2 27.35 33.05 27.25 32.75 27.05 32.8 27.1 32.25 26.85 31.35 26.65 31.1 26.55 31.05 26.55 30.6 26.35 30.6 26.3 29.4 26.0 28.6 25.45 28.55 25.4 28.5 25.3 28.3 25.2 25.95 24.95 24.3 25.25 24.05 25.3 24.1 25.3 22.1 25.85 21.85 26.0 20.45 26.5 19.6 26.95 18.4 27.8 18.4 27.85 18.25 27.95 18.25 27.9 15.65 29.35 15.45 29.45 15.4 29.5 14.7 29.75 14.65 29.75 14.45 29.8 14.5 29.8 12.4 30.2 12.3 30.2 12.2 30.2 10.9 30.3 10.6 30.3 8.15 30.05 8.1 30.05 7.85 30.0 7.9 30.0 4.75 29.1 4.8 29.1 4.55 29.05 4.5 29.0 4.1 28.8 4.05 28.8 3.95 28.7 1.95 27.35 1.9 27.35 1.7 27.15 1.6 27.05 1.45 26.85 1.4 26.85 0.05 24.85 -0.2 23.85 Q-0.15 23.3 0.3 22.9 L0.3 22.95 Q0.65 22.55 1.25 22.5 L5.15 22.3 7.15 21.75 8.1 21.3 9.0 20.6 9.95 19.7 7.45 19.25 7.1 19.1 6.1 18.65 5.75 18.45 2.9 16.0 2.85 15.95 2.8 15.9 2.7 15.8 2.4 15.4 -0.5 9.4 Q-0.8 8.85 -0.55 8.25 -0.35 7.65 0.2 7.4 L1.4 7.35 6.05 9.05 9.55 9.55 12.8 9.1 14.55 8.55 15.95 7.5 17.45 6.0 17.6 5.8 17.65 5.75 17.75 5.7 17.7 5.7 19.1 4.2 19.3 4.05 19.3 4.0 20.8 2.9 21.0 2.8 21.05 2.75 23.9 1.3 24.25 1.2 24.2 1.2 27.15 0.5 27.35 0.45 28.4 0.35 28.75 0.35 33.1 0.9 33.45 1.0 33.5 1.0 33.75 1.05 34.05 1.15 35.05 1.0 35.65 1.05 37.6 0.75 37.65 0.75 38.4 0.8 38.65 0.9 38.7 0.95 39.4 1.5 M11.55 18.45 L11.75 18.4 11.8 18.35 11.9 18.35 11.95 18.3 11.8 18.25 11.75 18.25 11.55 18.2 11.55 18.45" fill="#ffffff" fill-rule="evenodd" stroke="none"/>
  </g>
</svg>
