<?xml version="1.0" encoding="UTF-8" standalone="no"?>
<svg xmlns:ffdec="https://www.free-decompiler.com/flash" xmlns:xlink="http://www.w3.org/1999/xlink" ffdec:objectType="shape" height="33.1px" width="42.1px" xmlns="http://www.w3.org/2000/svg">
  <g transform="matrix(1.0, 0.0, 0.0, 1.0, 1.8, -0.05)">
    <path d="M38.9 1.2 L39.15 1.3 39.75 1.75 39.8 1.8 40.1 2.45 40.1 2.5 40.3 3.8 40.3 4.0 40.3 26.4 40.0 27.35 39.15 27.85 38.35 28.05 37.65 28.2 36.65 28.2 36.05 28.1 34.15 27.25 33.65 26.9 33.65 26.85 32.85 26.0 32.4 25.65 31.75 25.5 31.85 25.55 31.05 25.45 29.85 25.7 29.85 25.75 29.5 25.75 29.45 25.75 29.25 25.75 22.85 29.75 22.45 29.9 22.55 29.9 18.95 31.9 18.65 32.0 15.1 33.1 14.65 33.15 11.1 33.05 10.75 33.0 7.6 32.1 7.65 32.1 7.4 32.05 7.35 32.0 4.8 30.7 4.5 30.55 4.5 30.5 2.65 28.95 2.55 28.85 2.5 28.8 2.45 28.75 2.45 28.8 2.25 28.5 1.0 26.45 Q0.65 25.9 0.8 25.35 L0.8 25.3 Q0.95 24.7 1.45 24.4 L2.55 24.2 5.95 24.8 9.0 24.35 9.8 23.85 7.9 23.2 7.85 23.2 7.6 23.05 6.8 22.8 6.75 22.8 6.2 22.4 5.25 21.45 5.2 21.4 4.75 20.95 2.3 18.55 2.1 18.3 2.1 18.35 2.0 18.2 2.05 18.2 1.95 18.1 -1.6 11.55 -1.8 10.6 -1.35 9.75 Q-1.0 9.35 -0.45 9.3 L0.5 9.55 0.45 9.55 4.05 11.65 4.1 11.7 7.3 13.05 12.75 13.8 14.45 13.4 16.2 12.3 17.75 10.6 17.7 10.7 20.8 5.65 20.9 5.45 22.7 3.45 22.95 3.25 22.9 3.25 23.1 3.1 23.2 3.05 23.25 3.05 27.1 0.75 27.05 0.75 27.7 0.5 32.6 0.05 33.15 0.1 33.65 0.25 33.6 0.2 35.15 0.35 35.4 0.4 35.45 0.4 35.75 0.45 35.8 0.45 35.95 0.5 38.7 1.15 38.95 1.2 38.9 1.2" fill="#ffffff" fill-rule="evenodd" stroke="none"/>
  </g>
</svg>
