<?xml version="1.0" encoding="UTF-8" standalone="no"?>
<svg xmlns:ffdec="https://www.free-decompiler.com/flash" xmlns:xlink="http://www.w3.org/1999/xlink" ffdec:objectType="shape" height="24.35px" width="32.95px" xmlns="http://www.w3.org/2000/svg">
  <g transform="matrix(1.0, 0.0, 0.0, 1.0, -5.85, -2.3)">
    <path d="M34.75 2.6 L34.25 2.75 34.2 2.75 34.15 2.8 34.3 2.7 34.75 2.6 M32.35 3.3 L32.15 3.35 32.2 3.3 32.35 3.3 M31.7 3.5 L31.65 3.7 34.2 5.95 34.35 6.25 34.95 8.0 35.3 11.65 35.45 6.0 35.5 5.8 35.55 2.4 35.75 2.35 36.2 2.3 37.75 2.3 38.35 2.65 38.8 3.1 38.8 26.35 38.7 26.4 38.1 26.5 37.35 26.5 36.65 26.4 35.05 26.0 35.3 12.8 33.75 19.0 32.4 21.7 30.4 23.85 32.2 25.05 32.55 25.25 31.65 24.95 31.6 24.95 25.6 22.5 25.5 22.5 24.65 22.3 23.85 22.5 23.65 22.5 21.15 23.9 20.35 24.5 16.85 26.3 16.7 26.4 15.7 26.55 15.35 26.65 13.0 26.4 11.4 25.7 10.5 25.1 8.85 23.6 7.55 21.4 9.35 21.8 10.8 21.55 13.45 19.65 14.25 18.85 14.75 18.75 16.4 18.3 18.0 17.55 19.85 16.95 21.25 16.15 23.15 15.5 23.6 15.2 24.5 14.85 25.6 14.2 23.1 13.5 22.75 13.3 19.7 12.85 19.5 12.8 16.4 13.0 14.95 13.45 13.6 14.1 13.55 14.05 13.55 14.1 13.6 14.1 15.15 14.55 16.85 14.75 16.9 14.75 16.75 14.8 15.2 15.2 15.0 15.3 12.1 16.2 10.75 16.25 9.4 15.85 7.8 14.35 5.85 11.35 8.7 11.8 8.75 11.8 10.75 11.6 13.75 9.8 14.15 9.5 16.05 7.75 16.6 7.1 17.6 6.2 18.0 5.7 19.6 4.4 21.75 3.2 23.35 2.75 25.95 3.0 27.55 3.35 28.4 3.65 29.6 3.75 29.75 3.8 31.4 3.6 31.7 3.5 M17.1 15.75 L17.35 15.5 18.8 14.65 18.85 14.65 17.1 15.75" fill="#39c400" fill-rule="evenodd" stroke="none"/>
    <path d="M34.75 2.6 L35.5 2.35 35.55 2.35 35.55 2.4 35.5 5.8 35.45 6.0 35.3 11.65 34.95 8.0 34.35 6.25 34.2 5.95 31.65 3.7 31.7 3.5 31.7 3.45 32.15 3.35 32.35 3.3 34.15 2.8 34.2 2.75 34.25 2.75 34.75 2.6 M35.05 26.0 L35.05 26.1 34.95 26.1 34.9 26.05 33.6 25.7 32.55 25.25 32.2 25.05 30.4 23.85 32.4 21.7 33.75 19.0 35.3 12.8 35.05 26.0 M14.25 18.85 L13.15 18.95 15.05 17.15 16.7 15.95 16.8 15.95 17.1 15.75 18.85 14.65 18.8 14.65 18.7 14.65 18.3 14.7 16.9 14.75 16.85 14.75 15.15 14.55 13.6 14.1 13.55 14.1 13.55 14.05 13.6 14.1 14.95 13.45 16.4 13.0 19.5 12.8 19.7 12.85 22.75 13.3 23.1 13.5 25.6 14.2 24.5 14.85 23.6 15.2 23.15 15.5 21.25 16.15 19.85 16.95 18.0 17.55 16.4 18.3 14.75 18.75 14.25 18.85" fill="#278700" fill-rule="evenodd" stroke="none"/>
  </g>
</svg>
