<?xml version="1.0" encoding="UTF-8" standalone="no"?>
<svg xmlns:ffdec="https://www.free-decompiler.com/flash" xmlns:xlink="http://www.w3.org/1999/xlink" ffdec:objectType="shape" height="24.95px" width="31.25px" xmlns="http://www.w3.org/2000/svg">
  <g transform="matrix(1.0, 0.0, 0.0, 1.0, -7.55, -2.0)">
    <path d="M35.5 2.95 L35.6 2.9 37.6 2.35 38.25 2.6 38.8 2.95 38.8 26.35 38.7 26.4 38.15 26.55 37.35 26.65 36.7 26.65 35.0 26.4 35.25 13.2 33.7 19.4 33.7 19.45 32.35 22.1 30.35 24.25 32.05 25.65 32.9 26.0 31.8 25.65 31.75 25.65 30.35 24.8 26.6 21.0 25.8 20.55 25.0 20.65 24.85 20.65 23.6 21.3 22.6 22.2 21.95 23.0 18.95 26.05 17.75 26.65 16.25 26.95 14.6 26.75 12.9 25.95 11.35 24.6 11.3 24.55 10.0 22.4 11.95 22.8 13.45 22.3 16.2 19.05 16.7 18.3 23.15 14.9 27.6 13.8 25.0 12.25 21.9 11.5 18.9 11.9 17.55 12.6 16.4 13.65 18.75 13.6 17.25 14.3 17.05 14.45 14.1 16.25 12.85 16.65 11.35 16.4 9.65 15.05 7.55 12.05 10.35 12.45 10.4 12.4 12.35 11.95 14.95 9.45 17.05 6.0 18.3 4.4 19.85 3.1 22.05 2.15 23.7 2.0 26.3 3.1 28.55 4.55 29.85 4.9 31.45 4.7 31.8 4.6 31.65 4.7 34.25 6.8 35.0 8.75 35.25 12.35 35.5 2.95 35.45 3.0 34.3 3.55 34.25 3.6 33.75 3.8 35.5 2.95 M20.7 13.4 L20.8 13.35 20.9 13.3 19.15 14.65 19.35 14.35 20.7 13.4" fill="#39c400" fill-rule="evenodd" stroke="none"/>
    <path d="M35.5 2.95 L35.25 12.35 35.0 8.75 34.25 6.8 31.65 4.7 31.8 4.6 31.9 4.5 33.75 3.8 34.25 3.6 34.3 3.55 35.45 3.0 35.5 2.95 M18.75 13.6 L16.4 13.65 17.55 12.6 18.9 11.9 21.9 11.5 25.0 12.25 27.6 13.8 23.15 14.9 16.7 18.3 15.9 18.65 17.4 16.35 18.85 14.8 18.9 14.8 19.15 14.65 20.9 13.3 20.8 13.35 20.7 13.4 19.45 13.6 18.75 13.6 M32.9 26.0 L32.05 25.65 30.35 24.25 32.35 22.1 33.7 19.45 33.7 19.4 35.25 13.2 35.0 26.4 35.0 26.55 34.8 26.45 33.45 26.2 32.9 26.0" fill="#278700" fill-rule="evenodd" stroke="none"/>
  </g>
</svg>
