<?xml version="1.0" encoding="UTF-8" standalone="no"?>
<svg xmlns:ffdec="https://www.free-decompiler.com/flash" xmlns:xlink="http://www.w3.org/1999/xlink" ffdec:objectType="shape" height="29.1px" width="33.7px" xmlns="http://www.w3.org/2000/svg">
  <g transform="matrix(1.0, 0.0, 0.0, 1.0, -6.6, 0.4)">
    <path d="M24.65 0.0 L27.1 1.55 27.25 1.65 29.45 3.5 30.2 3.75 31.3 3.75 31.35 3.75 31.5 3.65 31.55 3.65 33.35 3.0 33.4 2.95 36.65 1.0 36.6 1.0 Q36.9 0.8 37.25 0.75 L37.3 0.75 37.95 0.9 37.95 0.85 39.25 1.35 39.85 1.8 40.15 2.4 40.2 2.45 40.3 2.9 40.3 3.2 40.3 26.4 40.05 27.25 40.0 27.3 39.3 27.85 38.4 28.15 38.35 28.15 38.2 28.2 37.0 28.45 37.05 28.4 36.65 28.45 35.3 28.4 34.85 28.45 34.8 28.45 34.3 28.35 34.0 28.35 33.3 28.3 32.85 28.25 31.2 27.65 31.15 27.6 30.7 27.3 29.45 26.15 29.5 26.2 29.2 25.9 25.85 20.7 25.6 20.55 24.85 20.95 24.45 21.35 24.4 21.45 24.15 21.75 22.35 24.75 22.25 24.85 20.9 26.6 20.6 26.9 19.4 27.8 19.0 28.05 17.45 28.6 17.1 28.65 16.65 28.7 16.45 28.7 15.15 28.65 14.75 28.6 13.0 28.05 12.55 27.8 10.85 26.55 10.4 26.05 10.3 25.85 9.2 24.05 Q8.85 23.55 9.0 23.0 9.1 22.4 9.55 22.05 10.0 21.7 10.6 21.75 L12.3 21.95 13.15 21.55 15.3 18.7 Q15.25 18.35 15.45 18.0 L16.05 16.75 15.65 17.0 15.65 17.05 15.3 17.2 13.85 17.75 13.2 17.85 13.15 17.85 11.75 17.7 Q11.2 17.7 10.8 17.35 L9.15 16.0 9.1 15.95 8.65 15.3 6.85 12.6 Q6.5 12.1 6.65 11.5 6.75 10.9 7.2 10.55 L8.25 10.25 10.8 10.55 11.95 10.25 13.75 8.2 13.7 8.25 14.0 7.85 13.95 7.9 16.9 2.5 17.2 2.05 17.25 2.05 18.75 0.8 19.2 0.55 21.45 -0.3 21.4 -0.3 21.95 -0.4 22.0 -0.4 23.8 -0.3 24.2 -0.2 24.35 -0.15 24.65 0.0 M15.35 18.7 L15.35 18.65 15.35 18.7" fill="#ffffff" fill-rule="evenodd" stroke="none"/>
  </g>
</svg>
