<?xml version="1.0" encoding="UTF-8" standalone="no"?>
<svg xmlns:ffdec="https://www.free-decompiler.com/flash" xmlns:xlink="http://www.w3.org/1999/xlink" ffdec:objectType="shape" height="28.9px" width="34.95px" xmlns="http://www.w3.org/2000/svg">
  <g transform="matrix(1.0, 0.0, 0.0, 1.0, -5.35, 0.4)">
    <path d="M24.2 -0.2 L27.2 1.3 27.35 1.4 27.4 1.45 29.25 2.75 30.1 3.05 31.35 3.15 31.75 3.05 31.7 3.05 31.85 3.0 31.9 3.0 32.4 2.95 33.35 2.75 34.15 2.45 34.1 2.5 36.65 0.95 37.4 0.7 37.5 0.7 38.1 0.8 38.1 0.85 39.25 1.35 Q39.85 1.6 40.05 2.2 L40.2 2.6 40.2 2.55 40.3 3.1 40.3 26.4 40.0 27.3 39.25 27.85 38.15 28.2 38.0 28.25 37.25 28.4 36.95 28.4 35.35 28.35 34.7 28.45 34.25 28.35 33.3 28.3 32.7 28.15 32.65 28.15 31.55 27.75 31.15 27.55 31.1 27.55 31.0 27.5 30.55 27.2 29.25 26.0 29.05 25.75 29.05 25.8 26.6 22.35 25.5 21.25 25.35 21.1 24.8 20.8 23.9 21.2 23.05 22.0 23.1 21.9 21.0 24.95 20.95 25.0 20.8 25.15 19.2 26.75 19.1 26.9 19.05 26.9 18.85 27.05 18.85 27.1 18.65 27.2 18.7 27.2 17.6 27.8 17.3 27.9 15.65 28.4 15.3 28.45 14.45 28.5 14.2 28.5 13.3 28.4 13.1 28.35 11.45 27.95 11.5 28.0 11.15 27.85 10.95 27.75 10.75 27.65 8.95 26.4 8.6 26.0 8.55 26.0 7.15 23.95 7.2 23.95 Q6.85 23.5 6.9 22.95 L6.9 22.9 Q7.0 22.35 7.45 22.0 7.85 21.6 8.45 21.6 L10.2 21.65 11.3 21.2 13.15 19.3 13.5 18.8 13.65 18.15 14.5 16.45 14.25 16.6 14.2 16.65 13.9 16.75 13.55 16.85 13.6 16.85 13.45 16.9 13.4 16.9 11.95 17.15 11.45 17.15 11.4 17.15 10.15 16.9 9.95 16.85 9.8 16.8 9.2 16.45 7.65 14.9 7.4 14.6 7.45 14.6 5.6 11.45 Q5.25 10.95 5.4 10.4 5.5 9.8 6.0 9.5 L7.05 9.2 9.7 9.55 10.95 9.35 12.95 7.7 13.15 7.45 15.4 4.15 15.45 4.1 15.6 3.9 15.65 3.85 16.7 2.45 16.7 2.5 16.9 2.2 16.95 2.2 18.45 0.95 18.5 0.95 18.75 0.8 18.7 0.8 19.25 0.5 19.4 0.45 19.4 0.4 20.9 -0.2 21.0 -0.25 21.65 -0.4 23.3 -0.4 23.65 -0.35 23.7 -0.35 23.9 -0.3 24.2 -0.2" fill="#ffffff" fill-rule="evenodd" stroke="none"/>
  </g>
</svg>
