<?xml version="1.0" encoding="UTF-8" standalone="no"?>
<svg xmlns:ffdec="https://www.free-decompiler.com/flash" xmlns:xlink="http://www.w3.org/1999/xlink" ffdec:objectType="shape" height="28.9px" width="36.15px" xmlns="http://www.w3.org/2000/svg">
  <g transform="matrix(1.0, 0.0, 0.0, 1.0, -4.15, 0.5)">
    <path d="M23.45 -0.4 L26.3 0.6 26.35 0.6 26.5 0.7 28.95 1.95 30.0 2.35 31.35 2.55 31.9 2.5 32.15 2.5 33.5 2.55 34.15 2.35 36.55 0.85 Q36.9 0.6 37.35 0.6 L37.45 0.6 38.15 0.8 39.3 1.4 39.9 1.95 40.1 2.3 40.15 2.3 40.3 3.05 40.3 26.4 40.0 27.3 39.2 27.85 37.3 28.35 36.85 28.4 35.15 28.35 34.9 28.4 34.35 28.35 33.2 28.3 32.75 28.2 31.95 27.9 31.75 27.85 31.75 27.8 31.65 27.75 Q31.2 27.65 30.85 27.35 L30.75 27.3 30.7 27.3 30.55 27.2 30.4 27.1 30.15 26.9 29.0 25.75 28.9 25.65 28.85 25.6 28.1 24.6 28.15 24.65 26.0 22.3 26.05 22.35 25.05 21.55 24.05 21.15 23.8 21.15 22.8 21.55 22.25 21.95 19.6 25.2 19.55 25.2 19.35 25.4 19.35 25.45 17.35 27.05 17.0 27.25 15.8 27.75 15.55 27.8 13.85 28.2 13.85 28.25 13.6 28.25 12.7 28.3 12.45 28.3 11.5 28.2 11.3 28.15 9.6 27.75 9.65 27.8 9.3 27.65 9.1 27.55 8.95 27.5 7.1 26.3 7.05 26.25 6.85 26.05 6.7 25.9 6.55 25.75 6.55 25.7 5.2 23.75 Q4.85 23.3 4.9 22.75 4.95 22.2 5.4 21.8 L5.4 21.85 Q5.75 21.45 6.35 21.4 L8.2 21.3 9.35 20.95 11.35 19.3 11.4 19.25 11.75 18.8 Q11.75 18.5 11.9 18.3 L13.05 16.2 12.45 16.4 11.95 16.5 10.15 16.5 9.7 16.45 9.65 16.45 8.35 16.0 8.2 15.9 8.1 15.85 7.65 15.55 7.65 15.5 6.2 13.9 6.15 13.85 6.05 13.75 5.95 13.6 5.9 13.5 5.85 13.45 4.3 10.4 Q4.05 9.85 4.2 9.35 4.35 8.75 4.85 8.45 5.3 8.15 5.85 8.2 L5.9 8.2 8.55 8.6 9.9 8.45 12.1 7.2 12.45 6.9 15.1 4.0 15.3 3.85 15.4 3.75 16.4 2.55 16.4 2.5 16.55 2.35 16.6 2.3 18.1 1.05 18.4 0.85 20.65 -0.25 21.25 -0.4 22.9 -0.5 23.45 -0.4 M18.3 13.55 L18.25 13.6 18.25 13.7 18.3 13.55 M17.85 13.8 L18.05 13.6 17.6 13.7 17.8 13.75 17.85 13.8 M18.3 14.1 L18.3 13.95 18.25 14.0 18.25 14.05 18.2 14.1 18.15 14.2 18.05 14.25 18.05 14.4 18.0 14.45 18.0 14.5 18.25 14.6 18.35 14.6 18.3 14.1 M17.8 14.35 L17.85 14.35 17.8 14.35 M17.05 13.85 L17.25 13.8 17.3 13.8 17.3 13.75 17.35 13.25 16.85 13.55 16.8 13.55 16.8 13.6 16.4 13.9 16.3 13.95 16.5 13.95 16.55 13.95 16.8 14.25 16.9 14.05 17.05 13.85" fill="#ffffff" fill-rule="evenodd" stroke="none"/>
  </g>
</svg>
