<?xml version="1.0" encoding="UTF-8" standalone="no"?>
<svg xmlns:ffdec="https://www.free-decompiler.com/flash" xmlns:xlink="http://www.w3.org/1999/xlink" ffdec:objectType="shape" height="26.25px" width="38.5px" xmlns="http://www.w3.org/2000/svg">
  <g transform="matrix(1.0, 0.0, 0.0, 1.0, -0.3, -0.7)">
    <path d="M35.4 3.15 L36.85 2.15 Q37.4 1.65 37.7 1.75 L38.15 2.1 38.8 2.8 38.8 26.4 37.45 26.8 35.95 26.95 34.15 26.9 34.9 26.8 35.2 13.6 34.2 17.9 Q33.6 20.05 32.6 21.85 31.65 23.7 30.05 24.9 31.3 26.15 32.35 26.55 L32.6 26.65 30.6 25.5 28.4 23.1 Q27.35 21.75 25.55 20.95 L20.7 20.6 Q18.55 20.95 17.4 22.0 L15.1 24.2 Q13.95 25.3 11.7 25.8 L6.65 26.15 Q4.3 25.9 2.65 24.9 0.95 23.95 0.3 22.35 5.35 21.35 7.15 20.3 L8.35 19.55 14.7 17.7 Q17.6 16.6 19.35 14.95 21.1 13.3 21.55 10.7 20.25 11.65 18.75 11.65 L15.65 11.5 12.35 11.8 Q10.7 12.3 9.1 14.1 L10.8 14.2 10.55 14.2 7.1 14.1 Q5.5 13.8 4.2 12.15 2.95 10.45 2.05 6.65 7.15 7.9 10.25 7.25 13.3 6.55 15.15 5.0 L18.55 2.15 Q20.0 0.8 22.0 0.7 L28.25 1.35 Q30.55 1.85 31.7 2.5 L33.5 3.45 33.6 3.5 Q32.85 3.4 32.1 2.75 32.5 4.35 33.25 5.55 L34.6 8.4 Q35.2 9.95 35.2 12.75 L35.3 8.85 35.35 4.85 35.4 3.15 M14.2 14.1 L14.1 14.1 14.3 14.05 14.2 14.1" fill="#39c400" fill-rule="evenodd" stroke="none"/>
    <path d="M34.15 26.9 L34.0 26.9 32.6 26.65 32.35 26.55 Q31.3 26.15 30.05 24.9 31.65 23.7 32.6 21.85 33.6 20.05 34.2 17.9 L35.2 13.6 34.9 26.8 34.15 26.9 M8.35 19.55 L7.8 19.65 Q9.0 17.6 10.25 16.45 11.5 15.25 12.6 14.7 L14.2 14.1 14.3 14.05 14.1 14.1 12.25 14.2 10.8 14.2 9.1 14.1 Q10.7 12.3 12.35 11.8 L15.65 11.5 18.75 11.65 Q20.25 11.65 21.55 10.7 21.1 13.3 19.35 14.95 17.6 16.6 14.7 17.7 L8.35 19.55 M33.6 3.5 L33.65 3.5 34.9 3.35 35.4 3.1 35.4 3.15 35.35 4.85 35.3 8.85 35.2 12.75 Q35.2 9.95 34.6 8.4 L33.25 5.55 Q32.5 4.35 32.1 2.75 32.85 3.4 33.6 3.5" fill="#278700" fill-rule="evenodd" stroke="none"/>
  </g>
</svg>
