<?xml version="1.0" encoding="UTF-8" standalone="no"?>
<svg xmlns:ffdec="https://www.free-decompiler.com/flash" xmlns:xlink="http://www.w3.org/1999/xlink" ffdec:objectType="shape" height="28.5px" width="41.2px" xmlns="http://www.w3.org/2000/svg">
  <g transform="matrix(1.0, 0.0, 0.0, 1.0, 0.9, 0.0)">
    <path d="M38.55 0.85 L38.75 1.0 39.8 1.9 40.15 2.4 40.15 2.35 40.3 3.0 40.3 26.4 40.05 27.25 40.0 27.3 39.3 27.85 38.25 28.2 37.75 28.25 37.05 28.4 36.8 28.4 36.65 28.4 36.45 28.4 33.5 28.05 33.45 28.05 33.1 27.95 32.95 27.9 32.85 27.85 32.75 27.85 32.7 27.85 31.9 27.55 31.3 27.35 31.25 27.35 30.85 27.1 30.55 26.9 29.2 26.1 28.6 25.45 28.55 25.35 27.7 24.6 27.65 24.55 25.25 23.3 23.65 23.1 23.6 23.1 23.55 23.1 21.15 23.4 19.85 23.75 20.0 23.75 19.1 24.2 19.15 24.15 15.55 26.95 15.55 27.0 15.15 27.2 15.15 27.25 12.4 28.25 12.35 28.25 11.95 28.3 8.05 28.5 7.7 28.5 4.4 27.85 4.0 27.7 1.45 26.3 1.45 26.25 1.1 26.0 1.0 25.9 0.9 25.8 0.85 25.75 -0.6 23.8 -0.9 22.85 Q-0.9 22.3 -0.5 21.95 L0.35 21.45 4.35 20.7 4.3 20.75 6.6 19.95 7.5 19.2 7.55 19.15 9.05 17.2 9.1 17.2 9.2 17.05 9.3 16.95 6.8 16.7 6.05 16.4 3.25 14.3 3.1 14.15 3.0 14.05 2.75 13.75 1.5 11.45 1.4 11.25 1.4 11.2 0.25 7.85 Q0.05 7.3 0.25 6.8 L0.3 6.8 Q0.5 6.25 1.0 6.05 L0.95 6.05 2.0 5.9 6.45 6.95 9.7 7.0 14.5 5.3 17.3 2.95 17.4 2.8 17.4 2.75 17.7 2.45 19.25 1.3 19.3 1.3 Q19.45 1.15 19.65 1.1 L21.4 0.45 21.35 0.5 21.7 0.35 21.75 0.35 24.95 0.0 25.0 0.0 25.15 0.0 28.05 0.05 28.35 0.1 31.95 0.9 32.2 1.0 33.05 1.35 34.2 1.65 34.9 1.45 35.15 1.4 36.9 0.6 36.85 0.6 37.6 0.45 38.3 0.7 38.55 0.85" fill="#ffffff" fill-rule="evenodd" stroke="none"/>
  </g>
</svg>
