<?xml version="1.0" encoding="UTF-8" standalone="no"?>
<svg xmlns:ffdec="https://www.free-decompiler.com/flash" xmlns:xlink="http://www.w3.org/1999/xlink" ffdec:objectType="shape" height="26.95px" width="37.95px" xmlns="http://www.w3.org/2000/svg">
  <g transform="matrix(1.0, 0.0, 0.0, 1.0, -0.85, -1.85)">
    <path d="M35.25 2.65 L37.85 2.2 38.1 2.3 38.8 3.4 38.8 26.4 37.75 26.7 37.65 26.7 36.75 26.8 36.6 26.8 34.6 26.35 33.85 26.0 33.55 25.8 32.55 25.35 33.05 25.55 33.95 25.75 34.05 25.75 34.55 25.9 34.6 25.9 34.8 25.65 35.25 13.9 33.45 19.8 33.35 20.0 31.9 22.4 31.75 22.6 30.05 24.3 28.75 23.75 28.5 23.7 26.0 23.45 25.75 23.45 23.85 23.75 23.65 23.85 21.4 24.5 21.35 24.55 19.95 25.05 18.8 25.65 17.5 26.6 14.9 28.05 14.2 28.3 12.1 28.7 10.75 28.8 8.3 28.55 5.15 27.65 4.75 27.45 2.75 26.1 2.65 26.0 1.3 24.0 5.35 23.8 7.7 23.15 8.8 22.6 10.0 21.7 9.15 22.55 9.25 22.6 9.35 22.5 12.95 21.85 15.8 20.35 16.45 19.85 18.45 17.75 19.05 16.95 19.65 15.85 20.55 13.4 19.25 14.3 17.9 14.95 17.35 15.15 14.85 15.7 14.35 15.85 11.35 16.15 11.15 16.25 7.55 17.1 10.6 18.1 12.1 18.3 11.25 18.4 7.7 17.75 6.7 17.3 3.85 14.85 3.75 14.75 0.85 8.75 5.65 10.5 9.5 11.05 13.05 10.6 15.15 9.9 16.95 8.6 18.65 6.9 18.8 6.7 20.2 5.2 21.7 4.1 24.55 2.65 27.5 1.95 28.55 1.85 32.9 2.4 33.1 2.5 31.25 2.25 32.35 3.6 33.7 5.95 33.85 6.3 34.75 8.95 34.8 9.15 35.05 10.7 35.15 12.85 35.25 2.65 M33.85 2.65 L34.0 2.65 33.9 2.65 33.85 2.65" fill="#39c400" fill-rule="evenodd" stroke="none"/>
    <path d="M35.25 2.65 L35.15 12.85 35.05 10.7 34.8 9.15 34.75 8.95 33.85 6.3 33.7 5.95 32.35 3.6 31.25 2.25 33.1 2.5 33.35 2.5 33.85 2.65 33.9 2.65 34.0 2.65 35.2 2.5 35.25 2.55 35.25 2.65 M12.1 18.3 L10.6 18.1 7.55 17.1 11.15 16.25 11.35 16.15 14.35 15.85 14.85 15.7 17.35 15.15 17.9 14.95 19.25 14.3 20.55 13.4 19.65 15.85 19.05 16.95 18.45 17.75 16.45 19.85 15.8 20.35 12.95 21.85 9.35 22.5 9.25 22.6 9.15 22.55 10.0 21.7 11.0 20.75 11.15 20.55 11.45 20.1 12.65 18.9 12.65 18.75 12.7 18.65 12.75 18.3 12.3 18.3 12.1 18.3 M30.05 24.3 L31.75 22.6 31.9 22.4 33.35 20.0 33.45 19.8 35.25 13.9 34.8 25.65 34.6 25.9 34.55 25.9 34.05 25.75 33.95 25.75 33.05 25.55 32.55 25.35 31.65 25.15 31.2 24.95 29.8 24.55 30.05 24.3" fill="#278700" fill-rule="evenodd" stroke="none"/>
  </g>
</svg>
