<?xml version="1.0" encoding="UTF-8" standalone="no"?>
<svg xmlns:ffdec="https://www.free-decompiler.com/flash" xmlns:xlink="http://www.w3.org/1999/xlink" ffdec:objectType="shape" height="30.8px" width="41.3px" xmlns="http://www.w3.org/2000/svg">
  <g transform="matrix(1.0, 0.0, 0.0, 1.0, 1.0, -0.4)">
    <path d="M39.6 1.85 L39.6 1.8 40.15 2.95 40.3 3.6 40.3 26.4 40.0 27.3 39.2 27.85 38.15 28.15 38.2 28.15 37.85 28.2 36.65 28.25 36.15 28.2 34.2 27.6 33.95 27.5 33.9 27.45 33.2 27.05 33.0 26.95 33.0 26.9 32.8 26.75 32.1 26.4 31.4 26.25 31.35 26.25 31.1 26.2 31.15 26.2 30.9 26.1 29.55 25.95 Q29.0 25.9 28.6 25.45 L26.2 25.7 24.65 26.25 24.5 26.3 24.4 26.35 24.35 26.35 22.35 27.1 22.2 27.2 19.75 28.35 19.8 28.3 18.55 29.15 18.45 29.25 18.4 29.25 15.75 30.55 15.7 30.6 15.45 30.65 14.85 30.8 14.65 30.9 14.6 30.9 12.5 31.2 12.45 31.2 12.2 31.2 10.25 31.15 10.0 31.1 10.05 31.15 7.4 30.65 7.2 30.6 7.15 30.6 4.85 29.75 4.8 29.7 4.6 29.6 4.25 29.4 4.15 29.35 4.05 29.25 2.15 27.85 2.0 27.75 1.9 27.65 1.75 27.45 1.7 27.45 0.35 25.4 Q0.05 24.9 0.1 24.35 0.2 23.75 0.65 23.4 1.05 23.05 1.65 23.05 L5.25 23.15 5.35 23.15 7.5 22.65 7.4 22.7 8.3 22.35 9.25 21.7 9.95 21.05 7.25 20.4 7.2 20.4 6.8 20.25 5.8 19.65 5.6 19.5 2.65 16.9 2.6 16.85 2.4 16.55 2.4 16.6 2.3 16.45 2.25 16.35 2.2 16.3 -0.85 10.15 -1.0 9.25 -0.55 8.4 Q-0.25 8.05 0.25 8.0 L0.2 8.0 1.1 8.1 4.8 9.75 7.75 10.6 9.4 10.8 12.75 10.65 14.5 10.15 16.15 9.0 17.55 7.6 17.6 7.45 17.75 7.2 17.8 7.2 20.5 4.2 20.55 4.15 20.75 4.0 23.4 2.1 23.45 2.05 23.6 1.95 23.65 1.9 23.85 1.8 23.9 1.8 24.05 1.75 27.85 0.5 28.35 0.4 31.2 0.45 31.35 0.45 31.4 0.45 33.05 0.65 33.1 0.7 33.3 0.75 33.55 0.8 33.85 0.85 35.05 0.75 35.7 0.85 38.05 0.85 38.75 1.0 38.95 1.1 39.6 1.85" fill="#ffffff" fill-rule="evenodd" stroke="none"/>
  </g>
</svg>
