<?xml version="1.0" encoding="UTF-8" standalone="no"?>
<svg xmlns:ffdec="https://www.free-decompiler.com/flash" xmlns:xlink="http://www.w3.org/1999/xlink" ffdec:objectType="shape" height="33.75px" width="42.15px" xmlns="http://www.w3.org/2000/svg">
  <g transform="matrix(1.0, 0.0, 0.0, 1.0, 1.85, 0.3)">
    <path d="M33.2 -0.25 L35.8 0.2 36.2 0.3 36.25 0.3 39.25 1.35 39.2 1.35 39.85 1.75 Q40.3 2.2 40.3 2.8 L40.3 26.35 40.1 27.15 39.5 27.7 39.4 27.75 39.1 27.85 38.1 28.1 38.05 28.15 37.65 28.15 36.6 28.1 35.85 27.85 35.75 27.8 34.1 26.95 33.65 26.55 33.5 26.4 33.5 26.35 33.3 26.15 32.95 25.7 33.0 25.75 32.6 25.4 32.25 25.25 31.65 25.1 31.1 25.05 29.6 25.5 25.15 28.8 25.1 28.85 24.95 29.0 24.9 29.05 22.85 30.45 22.7 30.55 18.85 32.5 18.8 32.55 18.7 32.55 18.45 32.65 18.2 32.75 14.8 33.45 14.5 33.45 14.4 33.45 14.25 33.45 14.2 33.45 10.9 33.1 10.7 33.1 10.7 33.05 10.5 33.0 10.4 33.0 10.25 32.9 10.35 32.95 7.55 31.9 7.5 31.85 7.45 31.85 7.35 31.8 7.15 31.7 7.1 31.7 7.0 31.6 7.0 31.65 4.75 30.25 4.75 30.2 4.55 30.05 2.7 28.3 2.4 28.0 2.4 27.95 1.2 25.85 Q0.9 25.3 1.05 24.75 1.2 24.15 1.7 23.85 2.2 23.5 2.8 23.65 L4.2 23.9 4.4 23.9 4.75 23.95 5.8 24.2 8.65 24.1 8.85 24.05 6.85 23.2 6.45 22.9 6.4 22.85 5.85 22.5 5.35 21.95 4.25 20.95 3.75 20.2 2.1 18.45 2.15 18.45 1.9 18.15 1.9 18.1 -1.65 11.4 -1.65 11.45 -1.85 10.5 -1.4 9.65 Q-1.05 9.25 -0.55 9.2 L-0.5 9.2 0.4 9.4 7.45 13.4 12.8 14.5 14.7 14.1 16.45 13.2 17.9 11.65 20.85 6.3 20.95 6.15 20.95 6.1 22.45 4.15 22.45 4.1 22.95 3.55 27.0 0.65 Q27.2 0.45 27.5 0.4 L27.7 0.35 27.85 0.3 27.9 0.3 29.55 0.1 29.95 0.0 32.7 -0.3 32.75 -0.3 32.85 -0.3 32.95 -0.3 33.2 -0.25" fill="#ffffff" fill-rule="evenodd" stroke="none"/>
  </g>
</svg>
