<?xml version="1.0" encoding="UTF-8" standalone="no"?>
<svg xmlns:ffdec="https://www.free-decompiler.com/flash" xmlns:xlink="http://www.w3.org/1999/xlink" ffdec:objectType="shape" height="33.1px" width="41.75px" xmlns="http://www.w3.org/2000/svg">
  <g transform="matrix(1.0, 0.0, 0.0, 1.0, 1.45, 0.45)">
    <path d="M32.85 -0.45 L32.9 -0.45 33.0 -0.45 33.05 -0.45 33.4 -0.4 34.85 -0.1 35.25 -0.05 35.8 0.15 36.05 0.2 36.0 0.15 36.35 0.25 39.15 1.35 Q39.55 1.4 39.85 1.75 40.3 2.2 40.3 2.8 L40.3 26.35 40.1 27.15 39.5 27.7 39.4 27.75 39.1 27.85 38.1 28.1 38.05 28.15 37.7 28.15 37.65 28.15 37.5 28.15 37.45 28.15 36.55 28.05 36.0 27.9 35.95 27.85 34.1 26.8 33.75 26.55 33.7 26.45 33.15 25.95 32.95 25.65 32.6 25.35 32.4 25.25 31.5 25.05 31.05 25.0 29.8 25.3 29.45 25.35 22.65 29.9 22.45 30.0 18.3 31.9 17.9 32.05 14.5 32.65 14.25 32.65 14.15 32.65 13.95 32.65 10.6 32.25 10.55 32.25 10.4 32.2 10.2 32.15 9.95 32.1 7.15 30.9 6.9 30.75 4.55 29.15 4.35 28.95 2.6 27.15 2.55 27.15 2.35 26.85 1.15 24.75 Q0.9 24.25 1.0 23.75 1.05 23.25 1.45 22.9 1.85 22.5 2.4 22.5 L3.4 22.45 3.55 22.45 4.15 22.45 5.25 22.7 8.05 22.85 8.25 22.8 6.4 21.9 6.1 21.7 5.75 21.4 4.0 19.6 3.95 19.6 3.65 19.15 2.1 17.4 1.9 17.15 0.85 15.3 0.8 15.2 0.8 15.15 -1.3 10.45 -1.4 9.55 -0.9 8.75 Q-0.55 8.4 -0.05 8.35 0.4 8.3 0.85 8.6 L0.9 8.6 4.6 11.0 7.75 12.55 8.4 12.75 8.35 12.7 13.0 13.65 13.85 13.55 13.8 13.6 14.75 13.35 16.55 12.45 17.1 12.05 17.05 12.1 18.2 10.9 21.1 5.95 21.15 5.8 21.2 5.75 22.8 3.65 22.85 3.6 22.95 3.5 23.05 3.4 23.2 3.25 23.25 3.25 27.25 0.45 Q27.45 0.25 27.75 0.2 L27.95 0.15 28.1 0.1 28.15 0.1 29.7 -0.1 30.0 -0.15 32.85 -0.45" fill="#ffffff" fill-rule="evenodd" stroke="none"/>
  </g>
</svg>
