<?xml version="1.0" encoding="UTF-8" standalone="no"?>
<svg xmlns:ffdec="https://www.free-decompiler.com/flash" xmlns:xlink="http://www.w3.org/1999/xlink" ffdec:objectType="shape" height="32.4px" width="41.4px" xmlns="http://www.w3.org/2000/svg">
  <g transform="matrix(1.0, 0.0, 0.0, 1.0, 1.1, 0.55)">
    <path d="M29.6 -0.2 L30.05 -0.3 30.1 -0.3 33.05 -0.55 33.15 -0.55 33.2 -0.55 33.5 -0.5 35.4 -0.1 35.85 0.05 36.25 0.15 36.45 0.25 39.1 1.35 Q39.5 1.4 39.85 1.75 40.3 2.2 40.3 2.8 L40.3 26.3 39.85 27.35 39.75 27.45 39.0 27.9 38.0 28.1 37.75 28.1 37.65 28.1 37.5 28.1 37.45 28.1 36.55 28.0 36.05 27.85 35.85 27.75 35.8 27.75 35.7 27.65 35.7 27.7 34.1 26.7 34.1 26.65 33.85 26.45 33.75 26.35 33.6 26.3 32.95 25.7 32.85 25.55 32.6 25.35 31.85 25.05 31.0 24.95 29.8 25.2 29.35 25.2 27.7 26.0 22.45 29.4 22.4 29.4 22.2 29.5 18.25 31.2 17.9 31.3 14.2 31.85 14.15 31.85 13.95 31.85 13.85 31.85 13.65 31.85 13.6 31.85 10.3 31.4 9.85 31.25 9.9 31.25 6.95 29.9 6.65 29.75 4.4 28.05 4.35 28.0 4.3 27.95 3.55 27.25 3.4 27.1 2.45 25.9 2.35 25.75 2.3 25.7 1.1 23.65 0.9 22.9 1.15 22.15 Q1.35 21.75 1.7 21.6 L2.25 21.3 2.2 21.35 2.35 21.2 Q2.65 21.0 3.0 20.95 L3.7 21.0 4.6 21.25 7.65 21.55 7.7 21.55 5.95 20.55 5.8 20.45 5.75 20.4 5.3 20.05 5.25 20.0 5.15 19.9 4.0 18.75 3.9 18.7 3.9 18.65 2.1 16.35 2.0 16.2 1.95 16.15 0.95 14.4 0.95 14.35 0.85 14.2 -1.0 9.6 -0.95 9.65 -1.05 8.7 -0.55 7.9 -0.5 7.9 Q-0.15 7.6 0.35 7.55 0.8 7.5 1.25 7.8 L4.9 10.15 7.95 11.6 8.65 11.85 8.6 11.8 13.2 12.75 14.0 12.7 14.95 12.5 16.95 11.65 16.9 11.65 17.2 11.45 18.2 10.45 18.2 10.4 21.4 5.5 21.45 5.4 21.55 5.35 21.5 5.35 23.05 3.45 23.5 2.95 23.5 2.9 27.45 0.2 27.95 0.0 28.15 -0.05 28.35 -0.1 29.6 -0.2" fill="#ffffff" fill-rule="evenodd" stroke="none"/>
  </g>
</svg>
