<?xml version="1.0" encoding="UTF-8" standalone="no"?>
<svg xmlns:ffdec="https://www.free-decompiler.com/flash" xmlns:xlink="http://www.w3.org/1999/xlink" ffdec:objectType="shape" height="31.1px" width="40.65px" xmlns="http://www.w3.org/2000/svg">
  <g transform="matrix(1.0, 0.0, 0.0, 1.0, 0.35, 0.8)">
    <path d="M28.0 -0.2 L28.15 -0.25 28.35 -0.35 28.9 -0.5 29.7 -0.55 30.0 -0.6 31.35 -0.7 31.5 -0.7 31.8 -0.75 32.35 -0.7 33.4 -0.8 33.95 -0.7 35.25 -0.3 35.3 -0.3 35.8 -0.15 36.15 -0.05 36.75 0.1 39.45 1.45 39.45 1.5 39.85 1.75 39.8 1.75 39.85 1.8 Q40.3 2.25 40.3 2.85 L40.3 26.3 40.15 27.0 40.1 27.1 39.6 27.65 39.65 27.6 39.0 27.9 38.0 28.05 37.95 28.05 37.75 28.05 37.65 28.05 37.35 28.05 36.25 27.8 36.2 27.75 35.65 27.5 33.55 25.95 33.3 25.85 Q32.95 25.7 32.75 25.4 L32.7 25.35 31.8 25.05 29.45 24.85 29.3 24.85 27.3 25.45 21.9 28.3 21.85 28.35 21.75 28.4 20.95 28.75 20.9 28.75 20.8 28.8 17.55 29.85 17.4 29.9 17.15 29.95 17.2 29.9 17.05 29.95 17.0 29.95 13.55 30.3 13.4 30.3 13.25 30.3 12.95 30.3 9.55 29.6 9.1 29.45 9.05 29.4 6.2 27.8 5.95 27.65 4.0 25.9 3.9 25.8 3.2 25.05 3.25 25.05 3.05 24.8 1.0 21.5 0.75 20.95 0.55 19.6 0.55 19.55 Q0.5 19.05 0.8 18.6 1.05 18.1 1.55 17.95 2.05 17.75 2.55 17.95 L5.2 18.85 5.7 18.95 6.35 18.9 5.1 18.0 5.0 17.95 4.95 17.9 4.5 17.45 4.3 17.25 4.15 17.0 3.9 16.8 3.6 16.5 1.1 12.65 1.1 12.6 0.95 12.3 0.2 10.1 0.2 10.05 0.15 9.9 -0.3 7.7 Q-0.45 7.1 -0.1 6.6 L-0.1 6.65 Q0.2 6.1 0.8 5.95 L1.9 6.1 8.45 9.85 9.05 10.05 13.5 11.0 14.35 11.1 15.1 10.95 15.05 10.95 17.65 9.95 19.75 7.9 21.95 4.7 22.0 4.55 22.05 4.55 23.8 2.6 24.1 2.35 28.0 -0.15 28.0 -0.2" fill="#ffffff" fill-rule="evenodd" stroke="none"/>
  </g>
</svg>
