<?xml version="1.0" encoding="UTF-8" standalone="no"?>
<svg xmlns:ffdec="https://www.free-decompiler.com/flash" xmlns:xlink="http://www.w3.org/1999/xlink" ffdec:objectType="shape" height="30.4px" width="40.35px" xmlns="http://www.w3.org/2000/svg">
  <g transform="matrix(1.0, 0.0, 0.0, 1.0, 0.05, 0.9)">
    <path d="M29.15 -0.7 L31.35 -0.85 31.5 -0.85 31.75 -0.9 33.65 -0.9 34.15 -0.8 35.35 -0.4 35.7 -0.3 35.75 -0.3 35.85 -0.25 36.35 -0.1 36.9 0.1 36.85 0.1 39.45 1.5 39.5 1.5 39.8 1.75 39.85 1.8 Q40.3 2.25 40.3 2.85 L40.3 26.25 40.25 26.75 40.2 26.9 39.75 27.55 39.0 27.9 38.0 28.05 37.95 28.05 37.75 28.05 37.65 28.05 37.25 28.0 36.2 27.7 36.25 27.7 35.75 27.5 33.25 25.7 32.85 25.45 31.95 25.0 29.45 24.7 29.4 24.7 29.25 24.7 27.1 25.15 20.75 28.15 20.8 28.15 20.6 28.25 20.5 28.25 17.25 29.15 17.15 29.2 16.9 29.25 16.95 29.2 16.75 29.25 13.2 29.5 13.1 29.5 12.95 29.5 12.65 29.45 12.65 29.5 9.2 28.75 8.75 28.55 8.7 28.55 5.95 26.85 6.0 26.85 5.7 26.65 5.7 26.6 3.15 24.0 3.1 24.0 2.95 23.75 2.95 23.8 2.1 22.5 2.15 22.5 2.05 22.4 2.0 22.35 0.1 18.55 -0.05 17.65 0.4 16.85 0.35 16.85 Q0.7 16.5 1.15 16.4 L2.05 16.45 2.05 16.5 4.55 17.55 4.6 17.55 5.0 17.6 5.75 17.6 4.2 16.25 3.95 15.95 3.9 15.9 3.8 15.8 3.5 15.45 1.15 11.65 1.0 11.3 0.35 9.2 0.35 9.25 0.25 9.0 0.25 8.95 0.0 6.75 Q-0.05 6.15 0.3 5.65 0.65 5.2 1.25 5.1 L2.3 5.3 6.1 7.7 9.25 9.2 14.45 10.25 17.8 9.35 19.9 7.4 20.4 6.65 20.5 6.6 20.5 6.55 24.05 2.35 24.05 2.3 24.45 2.05 24.4 2.05 28.4 -0.45 28.45 -0.45 29.15 -0.7" fill="#ffffff" fill-rule="evenodd" stroke="none"/>
  </g>
</svg>
