<?xml version="1.0" encoding="UTF-8" standalone="no"?>
<svg xmlns:ffdec="https://www.free-decompiler.com/flash" xmlns:xlink="http://www.w3.org/1999/xlink" ffdec:objectType="shape" height="27.4px" width="37.35px" xmlns="http://www.w3.org/2000/svg">
  <g transform="matrix(1.0, 0.0, 0.0, 1.0, -1.45, -0.6)">
    <path d="M35.3 1.15 L36.1 1.4 36.15 1.4 38.75 2.8 38.8 2.85 38.8 26.25 38.75 26.4 37.75 26.55 37.65 26.55 36.6 26.25 33.95 24.35 34.75 24.9 35.35 14.3 34.5 17.05 34.45 17.15 33.15 19.35 32.95 19.6 31.4 21.25 29.35 22.9 29.8 23.05 29.75 23.1 29.5 23.05 26.65 23.7 20.1 26.8 16.85 27.7 16.6 27.75 13.1 28.0 12.95 28.0 9.5 27.25 6.75 25.55 4.2 22.95 3.35 21.65 1.45 17.85 4.25 19.05 4.5 19.1 8.5 20.2 12.3 19.95 15.95 18.4 19.45 15.45 19.5 15.4 15.7 16.5 11.75 16.7 11.65 16.65 8.0 15.7 7.75 15.6 6.0 14.7 3.95 13.2 3.85 13.15 4.95 14.8 4.75 14.65 2.4 10.85 1.75 8.75 1.5 6.55 5.35 9.0 8.8 10.65 14.45 11.8 18.5 10.7 21.1 8.3 21.65 7.5 25.2 3.3 29.2 0.8 30.1 0.75 31.8 1.65 31.85 1.7 33.45 4.05 33.45 4.1 34.65 7.6 35.0 9.65 35.1 11.9 35.3 1.15 M8.1 19.1 L11.3 18.4 8.5 19.1 8.1 19.1 M12.25 18.15 L11.7 18.1 12.4 18.1 12.25 18.15 M10.6 18.05 L10.25 18.0 10.05 17.95 10.6 18.05 M8.85 17.55 L8.2 17.3 8.05 17.2 8.85 17.55 M32.85 0.65 L33.65 0.6 34.9 1.05 33.3 0.65 32.85 0.65" fill="#39c400" fill-rule="evenodd" stroke="none"/>
    <path d="M33.95 24.35 L33.8 24.3 33.7 24.2 32.6 23.65 32.1 23.5 29.6 23.2 29.75 23.1 29.8 23.05 29.35 22.9 31.4 21.25 32.95 19.6 33.15 19.35 34.45 17.15 34.5 17.05 35.35 14.3 34.75 24.9 33.95 24.35 M4.5 19.1 L4.4 19.05 4.8 19.1 8.1 19.1 8.5 19.1 11.3 18.4 12.25 18.15 12.4 18.1 11.7 18.1 11.0 18.1 10.6 18.05 10.05 17.95 9.6 17.85 8.85 17.55 8.05 17.2 7.05 16.75 5.15 15.1 4.95 14.8 3.85 13.15 3.95 13.2 6.0 14.7 7.75 15.6 8.0 15.7 11.65 16.65 11.75 16.7 15.7 16.5 19.5 15.4 19.45 15.45 15.95 18.4 12.3 19.95 8.5 20.2 4.5 19.1 M30.1 0.75 L30.2 0.75 31.45 0.65 31.75 0.6 32.85 0.65 33.3 0.65 34.9 1.05 35.05 1.05 35.15 1.1 35.3 1.15 35.1 11.9 35.0 9.65 34.65 7.6 33.45 4.1 33.45 4.05 31.85 1.7 31.8 1.65 30.1 0.75" fill="#278700" fill-rule="evenodd" stroke="none"/>
  </g>
</svg>
