<?xml version="1.0" encoding="UTF-8" standalone="no"?>
<svg xmlns:ffdec="https://www.free-decompiler.com/flash" xmlns:xlink="http://www.w3.org/1999/xlink" ffdec:objectType="shape" height="27.95px" width="39.65px" xmlns="http://www.w3.org/2000/svg">
  <g transform="matrix(1.0, 0.0, 0.0, 1.0, -0.65, -0.1)">
    <path d="M39.95 2.3 L40.2 2.9 40.3 3.45 40.3 26.05 40.1 26.8 39.55 27.35 38.75 27.8 38.75 27.85 37.75 28.0 36.7 27.8 36.75 27.8 36.4 27.7 36.35 27.7 32.0 25.75 30.0 25.15 27.35 25.05 23.45 25.75 23.5 25.75 23.35 25.8 23.3 25.8 23.1 25.85 18.05 26.7 18.1 26.65 17.9 26.7 14.45 26.75 14.2 26.75 14.15 26.75 10.85 26.3 10.5 26.2 7.8 25.1 7.75 25.1 7.6 25.0 5.1 23.5 5.05 23.5 4.85 23.35 4.8 23.35 1.15 20.05 Q0.7 19.6 0.65 19.0 0.6 18.4 1.05 17.95 1.4 17.45 2.05 17.4 L3.8 17.25 4.0 17.0 4.0 17.05 Q4.35 16.55 4.95 16.45 L7.35 16.1 7.2 16.0 7.15 16.0 5.4 14.7 5.2 14.55 5.1 14.5 5.05 14.45 4.95 14.35 2.5 12.0 2.3 11.75 1.5 10.5 1.45 10.45 1.35 10.15 1.35 10.2 0.85 8.9 Q0.65 8.4 0.85 7.9 L0.85 7.85 Q1.0 7.35 1.5 7.1 L1.45 7.1 Q1.9 6.8 2.45 6.85 L8.6 7.7 13.35 7.45 16.75 6.45 22.2 2.75 22.25 2.7 22.4 2.65 22.35 2.65 24.3 1.6 24.55 1.5 28.7 0.2 29.15 0.1 33.55 0.1 33.8 0.15 33.95 0.15 35.55 0.35 36.45 0.8 38.9 1.4 39.55 1.75 39.95 2.3 M7.8 16.3 L8.4 16.55 8.35 16.5 8.25 16.15 8.1 16.25 7.8 16.3" fill="#ffffff" fill-rule="evenodd" stroke="none"/>
  </g>
</svg>
