<?xml version="1.0" encoding="UTF-8" standalone="no"?>
<svg xmlns:ffdec="https://www.free-decompiler.com/flash" xmlns:xlink="http://www.w3.org/1999/xlink" ffdec:objectType="shape" height="23.9px" width="35.9px" xmlns="http://www.w3.org/2000/svg">
  <g transform="matrix(1.0, 0.0, 0.0, 1.0, -2.9, -2.6)">
    <path d="M35.4 3.2 L35.65 3.2 37.25 2.95 38.15 2.95 38.8 3.05 38.8 25.6 38.45 26.4 37.75 26.5 36.8 26.45 34.65 26.1 34.3 25.95 33.7 25.8 34.95 26.1 35.0 25.95 35.35 14.3 34.5 17.2 33.3 19.6 33.15 19.75 31.55 21.8 29.3 23.8 32.6 25.5 32.2 25.4 29.8 24.4 28.7 23.8 28.55 23.75 27.35 23.25 24.85 22.6 24.7 22.6 21.75 22.3 14.65 22.3 13.75 22.4 4.1 22.75 6.3 19.75 8.0 18.2 10.95 17.4 11.2 17.3 17.8 15.4 18.05 15.35 21.2 14.2 20.85 13.6 19.2 13.05 10.1 11.7 8.25 11.9 8.0 12.05 7.1 12.45 7.05 12.4 6.9 12.55 5.8 12.35 2.9 12.3 5.6 9.65 9.0 7.2 12.0 5.9 13.25 5.2 15.7 4.35 15.75 4.35 20.35 2.85 22.25 2.6 28.75 3.1 29.25 3.25 31.45 3.55 31.4 3.55 32.8 4.1 33.0 4.2 34.05 5.75 34.15 6.0 34.8 8.5 35.1 12.5 35.4 3.2 M6.95 12.55 L7.1 12.45 7.55 12.65 6.95 12.55" fill="#39c400" fill-rule="evenodd" stroke="none"/>
    <path d="M35.4 3.2 L35.1 12.5 34.8 8.5 34.15 6.0 34.05 5.75 33.0 4.2 32.8 4.1 31.4 3.55 31.45 3.55 31.45 3.5 35.4 3.1 35.4 3.2 M6.9 12.55 L7.05 12.4 7.1 12.45 8.0 12.05 8.25 11.9 10.1 11.7 19.2 13.05 20.85 13.6 21.2 14.2 18.05 15.35 17.8 15.4 11.2 17.3 10.95 17.4 8.0 18.2 7.4 18.35 8.4 17.45 9.6 16.7 9.9 16.45 12.1 15.2 12.15 14.7 12.25 14.25 10.25 13.7 10.15 13.65 7.55 12.65 7.1 12.45 6.95 12.55 6.85 12.55 6.9 12.55 M32.6 25.5 L29.3 23.8 31.55 21.8 33.15 19.75 33.3 19.6 34.5 17.2 35.35 14.3 35.0 25.95 34.95 26.1 33.7 25.8 33.45 25.75 32.6 25.5" fill="#278700" fill-rule="evenodd" stroke="none"/>
  </g>
</svg>
