<?xml version="1.0" encoding="UTF-8" standalone="no"?>
<svg xmlns:ffdec="https://www.free-decompiler.com/flash" xmlns:xlink="http://www.w3.org/1999/xlink" ffdec:objectType="shape" height="26.95px" width="39.45px" xmlns="http://www.w3.org/2000/svg">
  <g transform="matrix(1.0, 0.0, 0.0, 1.0, -0.85, -1.0)">
    <path d="M40.3 2.85 L40.3 26.4 Q40.3 27.0 39.9 27.45 L39.9 27.4 Q39.5 27.85 38.95 27.9 L38.35 27.95 38.3 27.95 38.2 27.95 38.05 27.95 37.9 27.95 37.85 27.95 36.9 27.85 36.7 27.8 36.75 27.85 35.05 27.45 34.7 27.4 32.55 26.7 32.2 26.5 32.05 26.5 32.0 26.45 31.7 26.35 31.75 26.35 31.4 26.2 29.45 25.7 29.35 25.7 29.3 25.65 29.1 25.6 27.1 25.15 24.9 25.05 24.6 25.1 24.55 25.1 24.45 25.1 18.3 25.35 18.0 25.35 17.05 25.2 5.05 24.4 4.9 24.35 4.9 24.4 2.95 24.0 2.05 23.4 Q1.7 22.95 1.75 22.35 1.8 21.75 2.25 21.4 L4.85 19.05 4.9 19.0 5.1 18.9 5.05 18.9 6.05 18.25 6.35 17.9 7.3 17.1 7.35 17.05 7.5 17.0 7.55 16.95 9.05 16.05 8.45 15.95 8.2 15.85 6.3 15.1 5.85 14.8 5.3 14.65 5.2 14.65 4.9 14.6 4.95 14.65 2.55 14.2 2.05 14.2 1.2 13.65 Q0.85 13.25 0.85 12.7 L0.85 12.6 Q0.85 12.05 1.2 11.65 L1.2 11.7 1.95 11.15 2.95 10.3 2.9 10.35 3.0 10.25 3.1 10.2 8.45 6.75 8.65 6.65 19.8 1.75 19.85 1.7 20.1 1.65 20.05 1.65 21.7 1.25 22.0 1.2 26.35 1.0 26.5 1.0 31.9 1.4 34.5 1.0 34.8 1.0 35.5 1.05 35.8 1.05 38.9 1.3 Q39.4 1.35 39.8 1.75 L39.85 1.8 Q40.3 2.25 40.3 2.85" fill="#ffffff" fill-rule="evenodd" stroke="none"/>
  </g>
</svg>
