<?xml version="1.0" encoding="UTF-8" standalone="no"?>
<svg xmlns:ffdec="https://www.free-decompiler.com/flash" xmlns:xlink="http://www.w3.org/1999/xlink" ffdec:objectType="shape" height="24.7px" width="37.0px" xmlns="http://www.w3.org/2000/svg">
  <g transform="matrix(1.0, 0.0, 0.0, 1.0, -1.8, -1.75)">
    <path d="M35.45 1.9 L35.9 1.9 38.75 2.8 38.8 2.85 38.8 26.4 38.15 26.45 37.35 26.3 35.2 25.45 35.45 12.65 33.7 18.5 32.15 21.2 30.1 23.2 30.15 23.2 32.75 24.45 32.8 24.5 32.15 24.35 31.6 24.15 30.45 23.95 27.75 23.9 19.45 25.5 17.3 25.55 13.25 24.9 12.25 24.85 6.55 23.3 4.05 22.2 2.2 21.1 4.9 20.1 5.2 19.95 6.9 19.35 8.4 19.6 10.4 19.55 10.75 19.5 14.55 18.65 18.2 16.95 19.6 15.8 20.65 14.55 7.8 14.0 7.65 14.05 6.55 14.2 4.6 13.25 4.4 13.2 1.9 11.55 1.9 11.6 1.8 11.5 1.9 11.55 12.85 8.1 20.8 3.9 22.55 3.15 26.55 2.15 29.0 1.95 29.4 2.0 31.8 1.9 32.3 1.95 32.45 1.95 31.5 2.1 33.0 3.1 34.3 5.1 35.1 7.95 35.35 11.7 35.6 3.3 35.4 3.2 35.45 1.9" fill="#39c400" fill-rule="evenodd" stroke="none"/>
    <path d="M32.45 1.95 L32.4 1.9 34.55 1.75 35.45 1.85 35.45 1.9 35.4 3.2 35.6 3.3 35.35 11.7 35.1 7.95 34.3 5.1 33.0 3.1 31.5 2.1 32.45 1.95 M35.2 25.45 L35.2 25.6 35.15 25.6 33.15 24.75 32.85 24.55 32.8 24.5 32.75 24.45 30.15 23.2 30.1 23.2 32.15 21.2 33.7 18.5 35.45 12.65 35.2 25.45 M6.9 19.35 L6.5 19.3 7.7 18.7 10.9 17.55 13.0 16.4 12.8 16.4 12.25 16.35 8.2 15.35 6.2 14.25 6.25 14.25 6.55 14.2 7.65 14.05 7.8 14.0 20.65 14.55 19.6 15.8 18.2 16.95 14.55 18.65 10.75 19.5 10.4 19.55 8.4 19.6 6.9 19.35" fill="#278700" fill-rule="evenodd" stroke="none"/>
  </g>
</svg>
