<?xml version="1.0" encoding="UTF-8" standalone="no"?>
<svg xmlns:ffdec="https://www.free-decompiler.com/flash" xmlns:xlink="http://www.w3.org/1999/xlink" ffdec:objectType="shape" height="29.35px" width="40.65px" xmlns="http://www.w3.org/2000/svg">
  <g transform="matrix(1.0, 0.0, 0.0, 1.0, 0.35, 0.55)">
    <path d="M31.7 -0.5 L32.1 -0.55 32.55 -0.5 34.35 -0.5 34.5 -0.5 34.55 -0.5 35.7 -0.35 36.1 -0.25 36.85 -0.05 39.5 1.5 39.55 1.55 Q39.7 1.6 39.85 1.75 L39.8 1.75 39.85 1.8 Q40.3 2.25 40.3 2.85 L40.3 26.4 39.85 27.45 Q39.4 27.9 38.8 27.9 L38.15 27.9 37.75 27.85 36.9 27.6 36.95 27.6 36.6 27.5 36.55 27.45 36.2 27.25 35.15 26.75 34.55 26.6 31.5 25.15 31.25 25.05 30.25 24.95 27.7 25.4 21.6 28.0 21.35 28.1 21.35 28.05 19.0 28.6 18.8 28.65 18.75 28.65 16.5 28.8 16.1 28.8 10.85 27.65 10.8 27.6 10.6 27.55 8.3 26.65 8.15 26.6 4.65 24.75 4.5 24.65 4.45 24.6 1.95 22.75 1.75 22.55 1.75 22.6 0.05 20.75 Q-0.35 20.3 -0.35 19.7 L-0.35 19.65 0.1 18.65 Q0.5 18.2 1.1 18.2 L5.4 18.1 7.3 17.7 7.2 17.65 7.15 17.65 6.85 17.45 5.75 16.65 5.8 16.7 5.6 16.6 4.75 16.0 4.5 15.75 2.9 14.6 2.75 14.45 2.7 14.4 2.6 14.35 2.5 14.25 0.1 11.4 -0.25 10.5 0.05 9.6 0.0 9.6 Q0.3 9.15 0.75 9.0 L0.8 9.0 1.65 8.95 5.7 8.9 13.2 7.95 15.3 7.15 16.75 6.25 21.75 2.55 21.8 2.55 22.0 2.4 26.05 0.45 26.1 0.45 26.5 0.35 31.75 -0.5 31.7 -0.5" fill="#ffffff" fill-rule="evenodd" stroke="none"/>
  </g>
</svg>
