<?xml version="1.0" encoding="UTF-8" standalone="no"?>
<svg xmlns:ffdec="https://www.free-decompiler.com/flash" xmlns:xlink="http://www.w3.org/1999/xlink" ffdec:objectType="shape" height="26.35px" width="37.65px" xmlns="http://www.w3.org/2000/svg">
  <g transform="matrix(1.0, 0.0, 0.0, 1.0, -1.15, -0.95)">
    <path d="M34.35 1.0 L31.8 1.1 31.85 1.15 31.35 1.25 32.85 2.4 32.9 2.4 34.05 4.1 34.25 4.5 35.15 7.4 35.35 9.1 35.35 9.5 35.4 9.6 35.4 11.3 35.65 1.9 35.45 1.85 35.5 1.2 35.95 1.25 36.1 1.25 38.75 2.8 38.8 2.85 38.8 26.4 38.15 26.4 37.3 26.15 36.95 25.95 35.2 25.15 35.45 12.1 33.8 18.2 32.45 20.7 32.35 20.85 30.35 22.9 30.4 22.9 32.2 23.8 31.4 23.55 30.2 23.45 27.25 23.95 21.0 26.6 18.65 27.15 16.4 27.3 11.15 26.15 8.85 25.25 5.35 23.4 2.85 21.55 1.15 19.7 5.8 19.6 7.7 20.25 9.85 20.5 14.2 19.8 17.95 17.8 19.1 16.65 19.25 16.45 20.1 14.9 17.0 15.6 5.75 14.8 3.8 13.4 3.65 13.25 1.25 10.4 1.4 10.45 5.85 10.4 13.55 9.45 15.9 8.5 17.55 7.5 22.65 3.75 26.7 1.8 31.95 0.95 32.45 1.0 34.35 1.0 M6.25 15.2 L6.5 15.4 6.45 15.35 6.25 15.2" fill="#39c400" fill-rule="evenodd" stroke="none"/>
    <path d="M35.5 1.2 L35.45 1.85 35.65 1.9 35.4 11.3 35.4 9.6 35.35 9.5 35.35 9.1 35.15 7.4 34.25 4.5 34.05 4.1 32.9 2.4 32.85 2.4 31.35 1.25 31.85 1.15 31.8 1.1 34.35 1.0 35.5 1.15 35.5 1.2 M5.75 14.8 L17.0 15.6 20.1 14.9 19.25 16.45 19.1 16.65 17.95 17.8 14.2 19.8 9.85 20.5 7.7 20.25 5.8 19.6 5.7 19.55 10.65 18.5 12.85 17.5 12.65 17.5 10.25 17.1 10.05 17.05 7.7 16.2 6.5 15.4 6.25 15.2 5.6 14.75 5.7 14.8 5.75 14.8 M32.2 23.8 L30.4 22.9 30.35 22.9 32.35 20.85 32.45 20.7 33.8 18.2 35.45 12.1 35.2 25.15 35.2 25.25 32.2 23.8" fill="#278700" fill-rule="evenodd" stroke="none"/>
  </g>
</svg>
