<?xml version="1.0" encoding="UTF-8" standalone="no"?>
<svg xmlns:ffdec="https://www.free-decompiler.com/flash" xmlns:xlink="http://www.w3.org/1999/xlink" ffdec:objectType="shape" height="32.05px" width="41.7px" xmlns="http://www.w3.org/2000/svg">
  <g transform="matrix(1.0, 0.0, 0.0, 1.0, 1.4, 1.5)">
    <path d="M35.45 -1.2 L35.55 -1.2 Q37.0 -0.8 38.05 0.0 L39.95 1.85 40.0 1.85 40.3 2.8 40.3 26.4 40.0 27.35 Q39.7 27.75 39.2 27.85 L39.25 27.85 Q37.9 28.35 35.7 26.85 L35.05 26.4 34.35 26.1 32.7 25.0 32.7 24.95 32.65 24.95 Q31.4 24.3 30.15 24.45 L30.05 24.45 Q28.05 24.95 26.7 25.8 L26.75 25.75 26.65 25.8 Q25.15 26.65 23.95 27.6 L23.85 27.65 Q22.45 28.75 20.95 29.45 L20.9 29.5 20.85 29.5 Q18.9 30.3 17.25 30.45 L13.6 30.2 13.6 30.25 Q11.85 29.85 9.55 28.9 7.4 28.05 5.2 26.35 3.1 24.75 1.45 22.85 L1.35 22.75 Q-0.5 20.7 -1.25 18.85 L-1.3 18.85 -1.35 17.95 -0.95 17.2 -0.95 17.15 Q-0.6 16.85 -0.15 16.8 L0.75 16.9 Q2.9 17.9 4.8 18.3 L5.2 18.3 6.35 18.45 4.7 17.35 Q1.35 14.9 -0.75 9.85 L-0.7 9.85 -0.75 8.75 -0.75 8.7 Q-0.55 8.15 0.0 7.95 L-0.05 7.95 1.05 7.8 8.2 9.3 13.1 9.45 Q14.75 9.25 15.85 8.65 17.35 7.8 18.7 6.4 L21.9 3.25 21.95 3.2 Q23.75 1.4 26.15 0.15 L26.1 0.2 26.2 0.1 Q28.65 -1.2 32.0 -1.45 L35.45 -1.2" fill="#ffffff" fill-rule="evenodd" stroke="none"/>
  </g>
</svg>
