<?xml version="1.0" encoding="UTF-8" standalone="no"?>
<svg xmlns:ffdec="https://www.free-decompiler.com/flash" xmlns:xlink="http://www.w3.org/1999/xlink" ffdec:objectType="shape" height="29.0px" width="38.7px" xmlns="http://www.w3.org/2000/svg">
  <g transform="matrix(1.0, 0.0, 0.0, 1.0, -0.1, 0.0)">
    <path d="M12.6 18.6 Q8.55 18.35 5.6 16.15 2.55 13.9 0.65 9.25 5.0 10.4 8.05 10.8 L13.25 10.95 Q15.3 10.7 16.6 9.95 18.25 9.0 19.75 7.45 L22.95 4.3 Q24.65 2.65 26.85 1.45 29.1 0.3 32.1 0.05 L35.15 0.25 Q36.3 0.55 37.15 1.2 L38.8 2.8 38.8 26.4 Q38.0 26.6 36.55 25.6 L35.25 24.75 35.5 11.5 34.55 15.75 Q34.05 17.85 33.1 19.6 32.2 21.4 30.6 22.6 32.05 22.8 33.15 23.5 L33.4 23.65 Q31.65 22.7 29.9 22.95 27.5 23.5 25.9 24.5 24.25 25.45 22.95 26.45 L20.3 28.1 Q18.55 28.8 17.05 28.95 L13.9 28.75 Q12.25 28.4 10.1 27.5 8.15 26.7 6.1 25.15 4.05 23.6 2.45 21.75 0.8 19.9 0.1 18.25 2.5 19.35 4.6 19.8 L5.1 19.9 Q6.95 21.2 9.25 21.45 11.6 21.65 13.85 20.9 16.1 20.15 17.65 18.7 19.25 17.2 19.6 15.25 17.85 16.5 15.25 16.75 L9.9 16.55 Q7.2 16.1 5.0 15.3 6.2 16.8 8.0 17.5 L11.2 18.4 12.3 18.55 12.7 18.55 12.6 18.6 M35.75 0.5 L35.0 0.35 33.2 0.15 31.15 0.35 Q32.25 1.0 33.3 2.35 34.3 3.65 34.95 5.8 35.5 7.75 35.5 10.45 L35.6 6.65 35.7 2.4 35.75 0.5" fill="#39c400" fill-rule="evenodd" stroke="none"/>
    <path d="M35.25 24.75 L35.25 24.9 33.4 23.65 33.15 23.5 Q32.05 22.8 30.6 22.6 32.2 21.4 33.1 19.6 34.05 17.85 34.55 15.75 L35.5 11.5 35.25 24.75 M5.1 19.9 L4.95 19.8 Q7.0 20.1 8.75 19.75 L11.6 19.05 12.6 18.6 12.7 18.55 12.3 18.55 11.2 18.4 8.0 17.5 Q6.2 16.8 5.0 15.3 7.2 16.1 9.9 16.55 L15.25 16.75 Q17.85 16.5 19.6 15.25 19.25 17.2 17.65 18.7 16.1 20.15 13.85 20.9 11.6 21.65 9.25 21.45 6.95 21.2 5.1 19.9 M35.75 0.5 L35.7 2.4 35.6 6.65 35.5 10.45 Q35.5 7.75 34.95 5.8 34.3 3.65 33.3 2.35 32.25 1.0 31.15 0.35 L33.2 0.15 35.0 0.35 35.75 0.5" fill="#278700" fill-rule="evenodd" stroke="none"/>
  </g>
</svg>
