<?xml version="1.0" encoding="UTF-8" standalone="no"?>
<svg xmlns:ffdec="https://www.free-decompiler.com/flash" xmlns:xlink="http://www.w3.org/1999/xlink" ffdec:objectType="shape" height="30.7px" width="40.45px" xmlns="http://www.w3.org/2000/svg">
  <g transform="matrix(1.0, 0.0, 0.0, 1.0, 0.15, 0.95)">
    <path d="M29.45 -0.45 L31.85 -0.85 31.8 -0.85 32.05 -0.9 34.45 -0.95 34.75 -0.9 35.8 -0.7 36.3 -0.55 36.4 -0.55 37.05 -0.3 39.6 1.6 Q40.1 1.95 40.2 2.6 L40.3 3.25 40.3 3.45 40.3 26.25 40.25 26.75 40.2 26.9 39.6 27.65 38.75 27.9 38.1 27.9 37.45 27.75 35.15 26.6 34.55 26.45 34.45 26.4 34.4 26.4 34.3 26.3 34.3 26.35 33.35 25.75 33.3 25.7 33.25 25.65 31.9 24.95 31.1 24.75 30.2 24.7 27.65 25.35 21.55 28.5 21.5 28.5 21.3 28.6 19.55 29.15 19.1 29.35 18.7 29.45 16.5 29.75 16.0 29.7 16.05 29.75 10.95 28.8 10.65 28.7 10.6 28.7 7.7 27.4 7.4 27.2 4.5 25.1 4.3 24.95 4.3 24.9 1.75 22.3 1.6 22.05 0.1 19.6 -0.15 18.7 0.2 17.9 0.2 17.85 Q0.5 17.5 0.95 17.35 L1.9 17.4 3.7 18.05 5.0 18.3 5.6 18.35 6.3 18.15 7.2 18.0 6.3 17.65 6.0 17.5 5.85 17.4 5.8 17.4 5.7 17.3 3.55 15.5 3.45 15.45 3.4 15.3 3.4 15.4 2.7 14.65 2.75 14.65 2.55 14.4 2.5 14.35 0.2 10.35 Q-0.1 9.8 0.05 9.25 0.2 8.65 0.75 8.35 1.25 8.0 1.85 8.15 L4.6 8.8 4.75 8.8 4.8 8.8 7.45 9.2 11.25 9.25 14.25 8.85 16.0 8.05 17.45 7.05 17.5 7.0 22.15 2.95 22.2 2.95 22.35 2.8 22.4 2.75 26.25 0.5 26.3 0.5 26.55 0.4 28.9 -0.35 29.35 -0.45 29.45 -0.45" fill="#ffffff" fill-rule="evenodd" stroke="none"/>
  </g>
</svg>
