<?xml version="1.0" encoding="UTF-8" standalone="no"?>
<svg xmlns:ffdec="https://www.free-decompiler.com/flash" xmlns:xlink="http://www.w3.org/1999/xlink" ffdec:objectType="shape" height="26.55px" width="36.4px" xmlns="http://www.w3.org/2000/svg">
  <g transform="matrix(1.0, 0.0, 0.0, 1.0, -2.4, -0.95)">
    <path d="M35.7 1.15 L36.05 1.2 38.05 2.3 38.65 2.75 38.8 3.35 38.8 26.3 38.75 26.4 38.1 26.4 37.65 26.3 35.15 25.15 35.45 11.95 35.4 12.0 33.85 18.2 32.55 20.9 32.5 20.9 30.55 23.0 32.55 23.9 33.0 24.05 33.4 24.3 32.65 23.95 31.35 23.6 31.3 23.6 30.15 23.5 27.35 23.9 21.45 26.2 21.25 26.25 19.15 27.05 17.1 27.5 12.35 27.1 12.1 27.05 9.55 26.1 6.55 24.25 4.1 21.8 4.05 21.7 2.6 19.3 4.2 19.85 5.5 20.05 6.15 20.05 8.6 19.85 9.6 20.2 11.65 20.4 15.85 19.6 19.5 17.6 20.8 16.35 21.6 14.9 21.55 14.9 18.7 15.55 18.2 15.5 15.0 15.5 14.75 15.45 9.8 15.1 9.35 15.1 8.0 14.95 7.85 14.9 9.8 16.25 12.1 16.95 14.4 17.25 11.15 17.05 7.85 16.2 7.7 16.15 5.5 14.65 4.75 13.95 2.4 9.95 5.35 10.6 5.4 10.6 7.5 10.8 8.0 10.8 11.95 10.5 14.85 9.8 16.95 8.7 18.45 7.6 19.15 6.9 23.3 3.8 27.1 2.1 29.4 1.6 29.55 1.6 34.45 0.95 35.35 1.1 34.2 1.05 34.15 1.1 31.35 1.4 31.55 1.65 32.75 2.65 34.25 4.65 34.9 6.55 35.4 9.4 35.45 11.15 35.7 1.15" fill="#39c400" fill-rule="evenodd" stroke="none"/>
    <path d="M35.35 1.1 L35.7 1.1 35.7 1.15 35.45 11.15 35.4 9.4 34.9 6.55 34.25 4.65 32.75 2.65 31.55 1.65 31.35 1.4 34.15 1.1 34.2 1.05 35.35 1.1 M35.15 25.15 L35.15 25.3 34.1 24.7 33.85 24.6 33.4 24.3 33.0 24.05 32.55 23.9 30.55 23.0 32.5 20.9 32.55 20.9 33.85 18.2 35.4 12.0 35.45 11.95 35.15 25.15 M8.6 19.85 L7.7 19.5 12.45 18.3 12.5 18.25 14.75 17.25 14.55 17.25 14.4 17.25 12.1 16.95 9.8 16.25 7.85 14.9 8.0 14.95 9.35 15.1 9.8 15.1 14.75 15.45 15.0 15.5 18.2 15.5 18.7 15.55 21.55 14.9 21.6 14.9 20.8 16.35 19.5 17.6 15.85 19.6 11.65 20.4 9.6 20.2 8.6 19.85" fill="#278700" fill-rule="evenodd" stroke="none"/>
  </g>
</svg>
