<?xml version="1.0" encoding="UTF-8" standalone="no"?>
<svg xmlns:ffdec="https://www.free-decompiler.com/flash" xmlns:xlink="http://www.w3.org/1999/xlink" ffdec:objectType="shape" height="28.95px" width="37.45px" xmlns="http://www.w3.org/2000/svg">
  <g transform="matrix(1.0, 0.0, 0.0, 1.0, -2.85, 0.55)">
    <path d="M22.75 -0.55 L23.2 -0.45 30.05 1.75 30.0 1.7 31.35 1.95 32.0 2.0 32.3 2.05 32.35 2.05 32.75 2.2 32.8 2.2 33.8 2.3 34.15 2.25 34.35 2.15 36.5 0.8 36.8 0.65 36.85 0.65 37.0 0.6 37.6 0.5 37.65 0.5 38.25 0.75 38.2 0.75 39.3 1.4 39.3 1.35 39.7 1.65 39.7 1.7 39.95 2.0 40.0 2.0 40.3 2.95 40.3 26.4 40.0 27.3 39.2 27.85 37.25 28.35 36.85 28.4 34.95 28.4 34.7 28.4 34.35 28.4 33.75 28.35 33.55 28.35 33.2 28.3 33.15 28.3 32.7 28.2 32.75 28.2 32.5 28.1 31.95 28.0 31.9 27.95 31.45 27.8 31.5 27.8 31.3 27.7 30.85 27.4 30.25 27.05 29.95 26.8 25.7 22.35 24.45 21.7 23.4 21.45 22.75 21.5 21.65 21.9 20.95 22.4 18.2 25.45 17.9 25.7 15.85 27.0 15.75 27.05 15.3 27.3 13.5 27.85 13.55 27.85 13.3 27.9 13.25 27.9 11.5 28.1 11.1 28.1 7.95 27.6 7.9 27.6 7.6 27.5 7.35 27.4 7.3 27.4 7.15 27.3 5.25 26.15 5.2 26.15 5.15 26.1 5.05 26.05 4.85 25.9 4.55 25.6 4.55 25.55 3.15 23.55 Q2.8 23.1 2.85 22.6 2.9 22.05 3.3 21.65 3.65 21.25 4.2 21.2 L6.15 21.0 7.45 20.6 7.65 20.5 9.7 19.15 10.0 18.8 10.15 18.5 11.7 15.9 10.65 16.15 10.1 16.2 9.75 16.15 9.7 16.15 9.55 16.1 9.6 16.1 8.2 15.75 7.95 15.7 6.7 15.15 6.25 14.8 6.15 14.7 6.05 14.6 6.0 14.55 4.6 12.7 4.45 12.45 4.45 12.4 3.1 9.3 Q2.85 8.8 3.05 8.25 3.2 7.7 3.65 7.45 L4.7 7.2 7.5 7.6 8.75 7.6 11.55 6.6 11.65 6.55 11.7 6.5 17.75 1.2 17.9 1.05 18.45 0.7 18.55 0.65 18.6 0.6 20.25 -0.25 20.75 -0.4 22.4 -0.55 22.45 -0.55 22.55 -0.55 22.75 -0.55" fill="#ffffff" fill-rule="evenodd" stroke="none"/>
  </g>
</svg>
