<?xml version="1.0" encoding="UTF-8" standalone="no"?>
<svg xmlns:ffdec="https://www.free-decompiler.com/flash" xmlns:xlink="http://www.w3.org/1999/xlink" ffdec:objectType="shape" height="29.25px" width="41.5px" xmlns="http://www.w3.org/2000/svg">
  <g transform="matrix(1.0, 0.0, 0.0, 1.0, 1.2, 0.8)">
    <path d="M22.05 -0.8 L28.6 -0.1 Q31.1 0.45 32.4 1.15 L34.25 2.15 34.65 1.85 35.9 1.0 Q37.3 -0.25 38.2 0.35 L38.65 0.6 39.1 0.95 39.25 1.1 39.9 1.8 Q40.3 2.2 40.3 2.8 L40.3 26.4 40.05 27.25 39.35 27.8 37.7 28.3 37.8 28.25 35.95 28.45 34.05 28.4 33.2 28.05 32.2 28.1 Q30.65 27.6 29.6 26.6 L29.55 26.55 27.25 24.1 27.25 24.05 Q26.4 22.95 24.95 22.35 L20.95 22.1 Q19.3 22.35 18.4 23.1 L16.15 25.25 16.15 25.3 Q14.75 26.65 12.05 27.3 L6.5 27.65 Q3.8 27.35 1.95 26.2 L1.9 26.2 Q-0.3 24.95 -1.1 22.95 L-1.15 22.05 -0.75 21.3 Q-0.45 20.95 0.0 20.9 4.7 19.95 6.4 19.0 L6.45 19.0 7.45 18.35 10.0 15.75 6.8 15.6 6.85 15.6 Q4.7 15.2 3.05 13.1 L3.0 13.05 Q1.6 11.2 0.6 7.0 0.45 6.5 0.7 6.0 0.9 5.5 1.4 5.3 L2.4 5.2 Q7.1 6.35 9.95 5.8 12.55 5.2 14.2 3.85 L14.25 3.85 17.55 1.05 Q19.4 -0.65 21.95 -0.8 L22.05 -0.8" fill="#ffffff" fill-rule="evenodd" stroke="none"/>
  </g>
</svg>
