<?xml version="1.0" encoding="UTF-8" standalone="no"?>
<svg xmlns:ffdec="https://www.free-decompiler.com/flash" xmlns:xlink="http://www.w3.org/1999/xlink" ffdec:objectType="shape" height="25.5px" width="38.2px" xmlns="http://www.w3.org/2000/svg">
  <g transform="matrix(1.0, 0.0, 0.0, 1.0, -0.6, -1.5)">
    <path d="M35.35 2.95 L37.5 1.95 37.75 2.1 38.8 3.0 38.8 26.4 37.75 26.75 37.65 26.75 36.75 26.9 36.6 26.9 33.65 26.55 33.35 26.45 34.8 26.5 34.8 26.45 34.9 25.75 35.2 13.7 33.45 19.95 32.1 22.45 32.0 22.7 30.1 24.65 28.45 23.3 25.65 21.8 23.6 21.55 23.35 21.6 20.95 21.9 20.9 21.9 19.45 22.3 18.3 22.9 14.6 25.8 11.85 26.8 8.0 27.0 4.7 26.35 2.15 24.95 2.05 24.85 0.6 22.9 4.75 22.15 7.35 21.25 8.55 20.25 8.25 20.65 12.85 19.5 16.35 18.0 17.05 17.6 19.8 15.0 20.65 13.45 21.2 11.65 21.2 11.6 19.9 12.35 18.45 12.75 12.05 13.25 11.85 13.35 10.35 13.9 8.6 15.1 11.65 15.5 10.5 15.55 6.95 15.2 4.15 13.1 4.05 13.0 2.8 10.7 1.65 7.35 6.3 8.45 10.0 8.5 15.15 6.65 18.45 3.85 18.6 3.65 20.15 2.5 21.9 1.85 25.1 1.5 28.0 1.55 31.6 2.35 32.7 2.8 31.85 2.6 32.6 4.1 32.8 4.7 33.95 6.65 34.85 9.2 34.85 9.4 35.1 10.85 35.15 12.8 35.35 3.0 35.35 2.95 M32.2 26.05 L32.05 26.05 31.9 25.95 32.2 26.05" fill="#00ccff" fill-rule="evenodd" stroke="none"/>
    <path d="M35.35 2.95 L35.35 3.0 35.15 12.8 35.1 10.85 34.85 9.4 34.85 9.2 33.95 6.65 32.8 4.7 32.6 4.1 31.85 2.6 32.7 2.8 34.2 3.2 35.3 2.9 35.35 2.95 M11.65 15.5 L8.6 15.1 10.35 13.9 11.85 13.35 12.05 13.25 18.45 12.75 19.9 12.35 21.2 11.6 21.2 11.65 20.65 13.45 19.8 15.0 17.05 17.6 16.35 18.0 12.85 19.5 8.25 20.65 8.55 20.25 10.25 18.1 11.85 16.55 13.8 15.45 13.35 15.5 11.65 15.5 M30.1 24.65 L32.0 22.7 32.1 22.45 33.45 19.95 35.2 13.7 34.9 25.75 34.8 26.45 34.8 26.5 33.35 26.45 33.2 26.4 32.2 26.05 31.9 25.95 31.75 25.9 31.35 25.6 29.95 24.8 30.1 24.65" fill="#0097bd" fill-rule="evenodd" stroke="none"/>
  </g>
</svg>
