<?xml version="1.0" encoding="UTF-8" standalone="no"?>
<svg xmlns:ffdec="https://www.free-decompiler.com/flash" xmlns:xlink="http://www.w3.org/1999/xlink" ffdec:objectType="shape" height="27.8px" width="38.3px" xmlns="http://www.w3.org/2000/svg">
  <g transform="matrix(1.0, 0.0, 0.0, 1.0, -0.5, -1.9)">
    <path d="M35.25 2.4 L35.45 2.35 38.05 2.35 38.25 2.45 38.8 3.6 38.8 26.4 37.75 26.7 36.6 26.75 34.65 26.15 33.95 25.75 33.65 25.5 32.7 25.0 32.4 24.9 32.5 24.9 33.85 25.35 34.25 25.55 34.45 25.6 34.8 25.6 35.3 14.0 35.25 14.0 33.4 19.85 31.8 22.35 31.65 22.55 30.05 24.15 28.8 23.9 28.55 23.95 26.05 24.2 25.8 24.25 24.0 24.85 23.8 24.95 21.6 25.8 21.55 25.85 19.05 27.0 17.7 27.9 15.05 29.2 14.35 29.4 12.25 29.7 10.3 29.65 7.65 29.15 5.35 28.3 5.0 28.1 3.0 26.65 2.95 26.6 1.6 24.55 5.45 24.65 5.6 24.6 7.9 24.1 9.0 23.65 10.2 22.85 11.65 21.55 10.25 23.0 9.45 23.6 9.0 23.7 9.2 23.7 9.4 23.65 9.45 23.6 12.65 23.1 15.55 21.55 16.15 21.0 18.1 18.75 18.7 17.9 20.2 14.25 18.95 15.25 17.1 16.35 14.55 17.1 14.1 17.3 11.05 17.65 10.8 17.7 9.15 17.85 9.0 17.9 7.0 18.1 9.5 19.25 10.05 19.4 11.8 19.7 12.1 19.7 11.2 19.8 7.55 18.95 6.55 18.35 3.65 15.75 3.55 15.6 0.5 9.45 Q2.35 10.3 4.2 11.1 L7.55 12.1 9.25 12.3 12.95 12.15 15.1 11.5 15.15 11.5 17.0 10.2 18.75 8.45 18.9 8.2 21.6 5.2 24.3 3.25 24.5 3.15 28.3 1.9 31.2 1.95 32.85 2.15 33.35 2.3 33.8 2.35 30.95 2.1 32.25 3.35 32.55 3.95 33.65 5.7 33.75 6.1 34.7 8.8 35.15 12.85 35.25 2.4" fill="#00ccff" fill-rule="evenodd" stroke="none"/>
    <path d="M35.25 2.4 L35.15 12.85 34.7 8.8 33.75 6.1 33.65 5.7 32.55 3.95 32.25 3.35 30.95 2.1 33.8 2.35 35.15 2.25 35.25 2.35 35.25 2.4 M12.1 19.7 L11.8 19.7 10.05 19.4 9.5 19.25 7.0 18.1 9.0 17.9 9.15 17.85 10.8 17.7 11.05 17.65 14.1 17.3 14.55 17.1 17.1 16.35 18.95 15.25 20.2 14.25 18.7 17.9 18.1 18.75 16.15 21.0 15.55 21.55 12.65 23.1 9.45 23.6 9.4 23.65 9.2 23.7 9.0 23.7 9.45 23.6 10.25 23.0 11.65 21.55 13.25 19.85 13.05 19.9 12.95 19.95 12.7 19.95 12.2 19.7 12.1 19.7 M30.05 24.15 L31.65 22.55 31.8 22.35 33.4 19.85 35.25 14.0 35.3 14.0 34.8 25.6 34.45 25.6 34.25 25.55 33.85 25.35 32.5 24.9 32.4 24.9 31.6 24.75 31.15 24.6 29.7 24.45 30.05 24.15" fill="#0097bd" fill-rule="evenodd" stroke="none"/>
  </g>
</svg>
