<?xml version="1.0" encoding="UTF-8" standalone="no"?>
<svg xmlns:ffdec="https://www.free-decompiler.com/flash" xmlns:xlink="http://www.w3.org/1999/xlink" ffdec:objectType="shape" height="30.1px" width="39.1px" xmlns="http://www.w3.org/2000/svg">
  <g transform="matrix(1.0, 0.0, 0.0, 1.0, 0.3, -1.55)">
    <path d="M35.15 1.9 L35.55 1.95 38.35 2.6 38.6 2.7 38.8 4.0 38.8 26.4 37.75 26.65 37.65 26.7 36.65 26.7 34.75 25.85 33.9 24.9 33.15 24.4 33.65 24.6 33.75 24.7 34.05 24.85 34.7 25.5 35.35 14.15 35.3 14.25 34.5 17.15 33.2 20.05 31.6 22.25 29.7 24.05 28.85 24.2 22.05 28.45 22.0 28.45 18.2 30.55 14.65 31.65 11.15 31.55 8.0 30.65 5.45 29.35 3.6 27.8 3.5 27.7 2.25 25.65 5.9 26.3 6.05 26.3 9.4 25.8 12.25 24.1 13.55 22.9 12.9 23.6 11.25 25.0 9.7 25.8 8.2 26.05 12.1 25.7 Q13.6 24.85 15.05 23.95 L17.45 20.8 19.55 16.1 16.55 18.7 13.55 20.15 10.35 20.55 10.15 20.6 8.35 20.45 8.15 20.45 6.05 20.15 3.35 17.5 3.25 17.35 -0.3 10.8 3.5 13.05 6.95 14.5 12.75 15.3 15.1 14.75 17.15 13.45 18.95 11.5 22.05 6.4 23.8 4.45 24.0 4.3 27.85 2.0 32.75 1.55 33.3 1.7 34.5 1.85 31.6 1.7 30.4 1.8 32.0 2.9 33.55 5.3 33.65 5.7 34.7 8.8 35.1 12.8 35.15 12.95 35.15 1.9 M32.85 24.25 L32.05 24.05 32.4 24.05 32.85 24.25 M6.15 20.25 L8.25 21.7 7.25 21.35 6.15 20.25 M10.9 22.55 L11.2 22.5 11.75 22.55 11.1 22.6 10.9 22.55" fill="#00ccff" fill-rule="evenodd" stroke="none"/>
    <path d="M35.15 1.9 L35.15 12.95 35.1 12.8 34.7 8.8 33.65 5.7 33.55 5.3 32.0 2.9 30.4 1.8 31.6 1.7 34.5 1.85 35.0 1.85 35.15 1.9 M6.05 20.15 L8.15 20.45 8.35 20.45 10.15 20.6 10.35 20.55 13.55 20.15 16.55 18.7 19.55 16.1 17.45 20.8 15.05 23.95 Q13.6 24.85 12.1 25.7 L8.2 26.05 9.7 25.8 11.25 25.0 12.9 23.6 13.55 22.9 14.5 21.8 13.8 22.15 12.65 22.55 11.75 22.55 11.2 22.5 10.9 22.55 10.7 22.55 8.35 21.75 8.25 21.7 6.15 20.25 6.0 20.15 6.05 20.15 M29.7 24.05 L31.6 22.25 33.2 20.05 34.5 17.15 35.3 14.25 35.35 14.15 34.7 25.5 34.05 24.85 33.75 24.7 33.65 24.6 33.15 24.4 32.85 24.25 32.4 24.05 32.05 24.05 31.0 23.9 29.5 24.25 29.45 24.25 29.7 24.05" fill="#0097bd" fill-rule="evenodd" stroke="none"/>
  </g>
</svg>
