<?xml version="1.0" encoding="UTF-8" standalone="no"?>
<svg xmlns:ffdec="https://www.free-decompiler.com/flash" xmlns:xlink="http://www.w3.org/1999/xlink" ffdec:objectType="shape" height="29.4px" width="38.4px" xmlns="http://www.w3.org/2000/svg">
  <g transform="matrix(1.0, 0.0, 0.0, 1.0, -0.4, -0.95)">
    <path d="M35.15 1.45 L35.85 1.6 38.75 2.8 38.8 2.8 38.8 26.3 38.7 26.4 37.7 26.6 37.6 26.6 36.7 26.5 36.5 26.4 34.9 25.4 34.3 24.8 34.7 25.05 35.35 14.25 34.5 17.2 33.3 19.45 33.1 19.75 31.3 21.9 30.6 22.55 30.1 22.9 30.15 23.15 29.7 23.55 29.55 23.55 28.85 23.75 26.9 24.7 21.6 28.1 17.65 29.8 13.95 30.35 13.8 30.35 10.5 29.9 7.55 28.55 5.3 26.85 4.55 26.15 3.6 24.95 2.4 22.9 3.05 22.55 3.25 22.4 4.45 22.75 7.65 23.05 8.8 22.85 10.75 22.2 13.5 20.6 11.95 21.65 10.15 22.55 8.25 23.0 6.7 23.15 9.65 23.45 10.55 23.3 12.95 22.6 13.9 22.05 16.1 20.3 17.75 18.5 19.35 16.2 15.8 18.2 12.55 19.1 12.45 19.15 8.9 18.85 8.65 18.8 4.7 17.15 4.7 17.2 5.75 18.4 5.05 17.7 3.25 15.4 2.25 13.65 0.4 9.05 4.05 11.4 7.4 13.0 8.15 13.25 13.05 14.25 14.15 14.2 15.4 13.95 17.55 13.0 18.15 12.6 19.4 11.3 22.65 6.3 24.3 4.25 24.35 4.15 28.3 1.45 28.5 1.4 30.2 1.25 31.85 2.15 31.9 2.2 33.45 4.6 33.5 4.65 34.65 8.15 35.0 10.2 35.1 12.45 35.2 1.55 35.15 1.45 M13.7 20.5 L13.0 20.65 13.7 20.45 13.7 20.5 M12.25 20.8 L11.85 20.9 10.1 20.85 9.4 20.6 10.95 20.85 12.25 20.8 M32.7 1.0 L33.15 0.95 33.2 0.95 34.45 1.25 32.7 1.0 M6.7 23.15 L6.45 23.1 6.3 23.15 6.7 23.15" fill="#00ccff" fill-rule="evenodd" stroke="none"/>
    <path d="M34.3 24.8 L34.2 24.9 33.95 24.5 33.35 24.05 32.2 23.55 30.95 23.45 29.5 23.7 29.7 23.55 30.15 23.15 30.1 22.9 30.6 22.55 31.3 21.9 33.1 19.75 33.3 19.45 34.5 17.2 35.35 14.25 34.7 25.05 34.3 24.8 M13.5 20.6 L13.7 20.5 13.7 20.45 13.0 20.65 12.35 20.8 12.25 20.8 10.95 20.85 9.4 20.6 8.9 20.5 6.7 19.25 6.2 18.85 5.75 18.4 4.7 17.2 4.7 17.15 8.65 18.8 8.9 18.85 12.45 19.15 12.55 19.1 15.8 18.2 19.35 16.2 17.75 18.5 16.1 20.3 13.9 22.05 12.95 22.6 10.55 23.3 9.65 23.45 6.7 23.15 8.25 23.0 10.15 22.55 11.95 21.65 13.5 20.6 M30.2 1.25 L30.1 1.2 30.15 1.2 32.7 1.0 34.45 1.25 35.1 1.35 35.15 1.45 35.2 1.55 35.1 12.45 35.0 10.2 34.65 8.15 33.5 4.65 33.45 4.6 31.9 2.2 31.85 2.15 30.2 1.25 M6.7 23.15 L6.3 23.15 6.45 23.1 6.7 23.15" fill="#0097bd" fill-rule="evenodd" stroke="none"/>
  </g>
</svg>
