<?xml version="1.0" encoding="UTF-8" standalone="no"?>
<svg xmlns:ffdec="https://www.free-decompiler.com/flash" xmlns:xlink="http://www.w3.org/1999/xlink" ffdec:objectType="shape" height="31.75px" width="41.05px" xmlns="http://www.w3.org/2000/svg">
  <g transform="matrix(1.0, 0.0, 0.0, 1.0, 0.75, 0.65)">
    <path d="M27.9 -0.05 L28.1 -0.15 28.65 -0.3 29.65 -0.35 30.05 -0.45 33.3 -0.65 33.75 -0.6 35.05 -0.25 35.0 -0.3 35.35 -0.25 35.8 -0.05 36.35 0.05 36.95 0.35 39.35 1.45 39.4 1.45 39.85 1.75 39.8 1.75 39.85 1.8 Q40.3 2.25 40.3 2.85 L40.3 26.3 40.15 27.0 40.1 27.1 39.65 27.6 39.05 27.9 38.0 28.1 38.0 28.05 37.75 28.1 37.6 28.1 37.3 28.1 36.4 27.9 36.25 27.85 36.1 27.8 36.05 27.8 35.75 27.65 34.2 26.65 34.15 26.65 34.05 26.55 34.0 26.5 33.5 26.1 32.8 25.55 32.8 25.5 32.6 25.35 31.85 25.05 30.9 24.9 29.7 25.0 29.65 25.0 29.4 25.0 29.2 25.05 29.25 25.05 27.5 25.75 24.5 27.5 24.4 27.55 24.45 27.55 24.3 27.65 24.25 27.65 22.15 28.85 22.1 28.9 21.9 28.95 21.95 28.95 17.9 30.5 17.7 30.55 17.65 30.6 17.4 30.65 17.45 30.6 17.4 30.65 17.3 30.65 13.85 31.1 13.8 31.1 13.65 31.1 13.5 31.1 13.2 31.05 13.25 31.1 9.8 30.45 9.4 30.3 6.5 28.8 6.45 28.8 6.2 28.6 4.25 27.0 4.2 26.95 4.05 26.8 4.0 26.8 2.35 24.85 2.35 24.8 2.2 24.6 1.0 22.55 0.8 21.95 0.9 21.3 1.25 20.35 1.25 20.3 1.7 19.7 1.75 19.7 Q2.05 19.4 2.4 19.35 L2.45 19.35 3.25 19.5 3.2 19.45 4.2 19.85 5.75 20.2 6.75 20.3 6.8 20.3 7.0 20.25 5.95 19.5 5.75 19.4 5.7 19.4 5.55 19.25 5.0 18.85 5.0 18.8 4.7 18.55 4.65 18.5 4.5 18.25 4.45 18.25 4.0 17.85 3.8 17.65 3.75 17.6 2.1 15.35 2.05 15.25 2.0 15.2 1.0 13.45 0.9 13.2 -0.65 8.7 -0.7 7.8 -0.2 7.05 -0.15 7.05 Q0.2 6.75 0.65 6.7 L1.5 6.9 8.2 10.75 8.8 10.95 13.35 11.9 14.1 11.9 15.1 11.7 17.0 10.95 17.4 10.75 18.45 9.75 18.4 9.8 19.55 8.45 19.5 8.5 21.65 5.1 21.6 5.15 21.7 5.0 21.75 4.95 23.4 3.0 23.9 2.6 24.0 2.55 27.75 0.05 27.85 0.0 27.9 -0.05" fill="#ffffff" fill-rule="evenodd" stroke="none"/>
  </g>
</svg>
