<?xml version="1.0" encoding="UTF-8" standalone="no"?>
<svg xmlns:ffdec="https://www.free-decompiler.com/flash" xmlns:xlink="http://www.w3.org/1999/xlink" ffdec:objectType="shape" height="28.1px" width="37.65px" xmlns="http://www.w3.org/2000/svg">
  <g transform="matrix(1.0, 0.0, 0.0, 1.0, -1.15, -0.7)">
    <path d="M35.15 1.2 L36.0 1.45 36.05 1.45 38.75 2.8 38.8 2.85 38.8 26.3 38.75 26.4 37.75 26.55 37.65 26.55 36.55 26.3 34.1 24.5 34.75 24.95 35.35 14.3 34.45 17.2 33.0 19.65 31.45 21.35 29.6 22.9 29.9 23.1 29.7 23.25 29.55 23.25 28.8 23.4 26.7 24.05 21.15 27.0 20.35 27.35 17.1 28.4 16.85 28.45 13.4 28.8 13.25 28.8 9.8 28.1 6.95 26.5 5.0 24.75 4.3 24.0 2.25 20.7 2.05 19.35 4.85 20.35 5.55 20.45 5.3 20.45 5.05 20.4 8.25 21.15 9.15 21.2 11.7 20.9 12.85 20.65 16.25 18.8 19.45 15.65 15.85 17.0 15.5 17.1 12.0 17.5 11.9 17.5 8.05 16.7 6.3 15.85 6.05 15.75 4.2 14.55 4.15 14.5 5.25 16.0 4.85 15.65 2.35 11.8 1.6 9.6 1.15 7.4 7.85 11.25 8.6 11.5 13.3 12.5 14.35 12.6 15.55 12.35 18.4 11.3 20.9 8.8 23.15 5.55 24.9 3.6 28.8 1.1 29.0 1.0 30.15 0.95 31.8 1.85 31.85 1.9 33.45 4.25 33.45 4.3 34.65 7.75 34.65 7.8 35.0 9.85 35.1 12.1 35.3 1.3 35.15 1.2 M8.4 20.3 L12.85 18.9 9.05 20.25 8.4 20.3 M11.35 19.0 L11.05 19.0 10.5 18.9 11.35 19.0 M9.85 18.8 L9.45 18.7 8.5 18.35 8.25 18.2 9.85 18.8 M32.45 0.8 L33.5 0.7 34.9 1.15 33.25 0.8 32.45 0.8" fill="#00ccff" fill-rule="evenodd" stroke="none"/>
    <path d="M34.1 24.5 L33.95 24.5 33.8 24.3 33.25 23.95 32.15 23.55 29.55 23.35 29.7 23.25 29.9 23.1 29.6 22.9 31.45 21.35 33.0 19.65 34.45 17.2 35.35 14.3 34.75 24.95 34.1 24.5 M5.55 20.45 L8.4 20.3 9.05 20.25 12.85 18.9 11.6 19.0 11.45 19.0 11.35 19.0 10.5 18.9 10.05 18.85 9.85 18.8 8.25 18.2 7.5 17.9 5.95 16.75 5.5 16.35 5.25 16.0 4.15 14.5 4.2 14.55 6.05 15.75 6.3 15.85 8.05 16.7 11.9 17.5 12.0 17.5 15.5 17.1 15.85 17.0 19.45 15.65 16.25 18.8 12.85 20.65 11.7 20.9 9.15 21.2 8.25 21.15 5.05 20.4 5.3 20.45 5.55 20.45 M30.15 0.95 L30.1 0.9 31.45 0.8 31.75 0.75 32.45 0.8 33.25 0.8 34.9 1.15 35.05 1.15 35.15 1.2 35.3 1.3 35.1 12.1 35.0 9.85 34.65 7.8 34.65 7.75 33.45 4.3 33.45 4.25 31.85 1.9 31.8 1.85 30.15 0.95" fill="#0097bd" fill-rule="evenodd" stroke="none"/>
  </g>
</svg>
