<?xml version="1.0" encoding="UTF-8" standalone="no"?>
<svg xmlns:ffdec="https://www.free-decompiler.com/flash" xmlns:xlink="http://www.w3.org/1999/xlink" ffdec:objectType="shape" height="25.45px" width="37.3px" xmlns="http://www.w3.org/2000/svg">
  <g transform="matrix(1.0, 0.0, 0.0, 1.0, -1.5, -1.05)">
    <path d="M35.35 1.55 L36.05 1.7 38.65 2.85 38.8 3.6 38.8 26.2 37.8 26.5 36.8 26.25 34.8 25.1 35.35 14.25 34.45 17.2 33.15 19.35 31.35 21.3 31.2 21.4 29.15 23.1 30.4 23.45 29.8 23.3 27.0 23.45 26.75 23.5 17.05 26.15 13.5 26.25 10.15 25.6 7.45 24.15 4.95 22.05 1.5 17.6 4.05 18.2 5.8 18.2 8.4 18.8 8.7 18.75 12.3 18.7 15.9 17.5 16.2 17.45 18.15 16.3 19.2 15.5 19.85 14.8 15.9 15.35 11.9 15.1 8.25 14.05 7.9 14.0 Q6.3 13.2 4.7 12.35 L4.3 11.95 5.45 13.55 5.3 13.45 3.0 10.45 2.35 8.8 2.05 7.05 8.75 9.5 14.1 9.95 18.0 8.95 18.05 8.9 20.8 6.9 23.05 4.65 23.35 4.45 25.15 3.0 29.3 1.1 30.3 1.15 30.45 1.25 32.05 2.05 33.6 4.35 34.7 7.75 35.1 11.75 35.35 1.55 M34.3 24.8 L33.8 24.5 33.9 24.55 34.3 24.8 M9.75 17.4 L11.95 16.9 12.05 16.9 9.75 17.4" fill="#00ccff" fill-rule="evenodd" stroke="none"/>
    <path d="M34.8 25.1 L34.6 25.0 34.3 24.8 33.9 24.55 33.8 24.5 32.55 24.0 30.4 23.45 29.15 23.1 31.2 21.4 31.35 21.3 33.15 19.35 34.45 17.2 35.35 14.25 34.8 25.1 M5.8 18.2 L4.45 17.85 8.3 17.7 9.75 17.4 12.05 16.9 11.95 16.9 10.85 16.7 9.9 16.35 9.7 16.3 7.5 15.25 7.35 15.2 5.5 13.65 5.45 13.55 4.3 11.95 4.7 12.35 Q6.3 13.2 7.9 14.0 L8.25 14.05 11.9 15.1 15.9 15.35 19.85 14.8 19.2 15.5 18.15 16.3 16.2 17.45 15.9 17.5 12.3 18.7 8.7 18.75 8.4 18.8 5.8 18.2 M30.3 1.15 L33.4 1.05 35.35 1.45 35.35 1.55 35.1 11.75 34.7 7.75 33.6 4.35 32.05 2.05 30.45 1.25 30.3 1.15" fill="#0097bd" fill-rule="evenodd" stroke="none"/>
  </g>
</svg>
