<?xml version="1.0" encoding="UTF-8" standalone="no"?>
<svg xmlns:ffdec="https://www.free-decompiler.com/flash" xmlns:xlink="http://www.w3.org/1999/xlink" ffdec:objectType="shape" height="28.5px" width="38.5px" xmlns="http://www.w3.org/2000/svg">
  <g transform="matrix(1.0, 0.0, 0.0, 1.0, -1.8, 0.1)">
    <path d="M17.2 -0.05 L17.25 -0.05 Q20.6 -0.35 23.55 0.65 L23.6 0.65 Q26.15 1.5 28.35 2.5 L28.45 2.55 31.2 3.3 31.8 3.15 33.25 3.0 34.2 2.75 34.3 2.7 34.35 2.7 35.8 2.1 Q37.0 1.55 38.6 1.3 L39.4 1.45 39.45 1.45 40.05 1.95 40.1 2.0 40.3 2.8 40.3 26.4 40.05 27.25 40.05 27.3 39.3 27.85 36.65 28.35 36.6 28.35 34.15 28.25 33.05 28.05 32.95 28.0 32.6 27.9 32.65 27.9 Q31.1 27.4 29.85 26.3 L28.5 25.4 27.95 24.65 27.9 24.45 26.75 23.55 26.7 23.5 Q25.5 22.7 23.95 22.3 L23.8 22.25 19.15 21.85 15.75 22.3 Q14.0 22.65 11.75 23.65 L6.15 26.65 5.3 26.85 4.45 26.55 3.95 25.85 3.9 24.95 Q5.0 20.9 6.65 18.45 L6.7 18.35 6.75 18.35 Q7.35 17.4 8.1 16.65 L8.45 15.95 8.6 15.85 10.1 14.15 10.1 14.1 9.95 14.1 8.05 14.15 8.0 14.15 Q6.2 14.75 4.2 16.2 L4.15 16.2 3.3 16.45 2.45 16.2 1.9 15.45 Q1.75 14.95 1.9 14.5 3.0 10.85 4.9 7.8 L4.9 7.85 Q6.8 4.7 9.85 2.65 12.8 0.55 17.15 -0.05 L17.2 -0.05 M10.65 14.3 L10.7 14.25 10.7 14.3 10.75 14.3 10.7 14.25 10.65 14.2 10.65 14.3" fill="#ffffff" fill-rule="evenodd" stroke="none"/>
  </g>
</svg>
