<?xml version="1.0" encoding="UTF-8" standalone="no"?>
<svg xmlns:ffdec="https://www.free-decompiler.com/flash" xmlns:xlink="http://www.w3.org/1999/xlink" ffdec:objectType="shape" height="25.5px" width="35.5px" xmlns="http://www.w3.org/2000/svg">
  <g transform="matrix(1.0, 0.0, 0.0, 1.0, -3.3, -1.35)">
    <path d="M34.75 4.15 L36.4 3.45 38.8 2.8 38.8 26.4 36.5 26.85 34.35 26.75 35.1 26.65 35.35 14.2 Q34.75 17.4 33.25 19.9 31.8 22.3 29.6 24.0 L27.65 22.35 Q26.2 21.3 24.2 20.8 L19.1 20.35 15.45 20.8 Q13.55 21.2 11.15 22.25 8.75 23.3 5.35 25.35 6.4 21.55 7.9 19.25 L9.3 17.55 8.9 18.6 Q11.4 17.0 13.5 16.1 15.6 15.2 17.7 14.65 L22.2 13.55 Q21.7 12.95 19.85 12.1 18.0 11.25 15.6 10.7 L11.05 10.55 Q9.0 10.9 8.0 12.6 5.8 13.2 3.3 14.95 4.35 11.5 6.15 8.6 7.9 5.75 10.65 3.9 13.4 2.0 17.35 1.45 20.4 1.15 23.05 2.05 25.65 2.9 27.85 3.9 30.05 4.85 31.85 4.85 L32.55 4.8 Q33.25 5.0 33.75 5.55 34.45 6.35 34.8 8.15 L35.1 13.0 35.25 9.3 35.35 5.6 35.4 3.95 34.85 4.1 34.75 4.15 M33.2 26.5 Q31.8 26.1 30.65 25.05 L31.65 25.7 33.2 26.5" fill="#00ccff" fill-rule="evenodd" stroke="none"/>
    <path d="M34.35 26.75 L33.45 26.6 33.2 26.5 31.65 25.7 30.65 25.05 29.35 24.15 29.6 24.0 Q31.8 22.3 33.25 19.9 34.75 17.4 35.35 14.2 L35.1 26.65 34.35 26.75 M9.3 17.55 L9.7 16.8 Q10.35 15.9 11.35 15.0 L13.4 13.2 11.25 12.85 10.05 12.6 7.95 12.65 8.0 12.6 Q9.0 10.9 11.05 10.55 L15.6 10.7 Q18.0 11.25 19.85 12.1 21.7 12.95 22.2 13.55 L17.7 14.65 Q15.6 15.2 13.5 16.1 11.4 17.0 8.9 18.6 L9.3 17.55 M32.55 4.8 L31.85 4.65 33.5 4.45 34.75 4.15 34.85 4.1 35.4 3.95 35.35 5.6 35.25 9.3 35.1 13.0 34.8 8.15 Q34.45 6.35 33.75 5.55 33.25 5.0 32.55 4.8" fill="#0097bd" fill-rule="evenodd" stroke="none"/>
  </g>
</svg>
