<?xml version="1.0" encoding="UTF-8" standalone="no"?>
<svg xmlns:ffdec="https://www.free-decompiler.com/flash" xmlns:xlink="http://www.w3.org/1999/xlink" ffdec:objectType="shape" height="27.35px" width="39.0px" xmlns="http://www.w3.org/2000/svg">
  <g transform="matrix(1.0, 0.0, 0.0, 1.0, -1.3, -0.7)">
    <path d="M39.5 1.5 L40.1 2.1 40.1 2.05 40.3 2.85 40.3 26.4 39.95 27.35 39.1 27.9 38.35 28.05 38.1 28.05 37.2 28.05 37.0 28.05 35.3 27.85 34.9 27.85 34.5 27.8 32.4 27.2 32.45 27.2 32.2 27.15 32.15 27.1 32.1 27.1 32.0 27.05 31.9 27.05 29.55 26.0 29.3 25.85 29.0 25.65 27.25 24.7 25.15 24.0 22.15 23.6 19.15 23.6 19.0 23.6 18.95 23.6 18.1 23.5 12.45 23.85 4.6 25.4 3.5 25.2 Q2.95 24.85 2.85 24.25 2.7 23.65 3.05 23.15 L5.25 19.55 5.25 19.5 5.45 19.25 7.25 17.5 7.6 16.95 7.65 16.95 7.85 16.65 9.05 15.55 9.05 15.6 9.1 15.5 9.15 15.45 9.6 15.15 7.15 14.65 6.9 14.55 6.4 14.55 6.3 14.6 3.6 15.1 2.9 15.35 1.9 15.05 1.85 15.0 Q1.4 14.65 1.3 14.1 1.25 13.5 1.6 13.05 L1.55 13.05 2.8 11.15 3.0 10.9 4.2 9.3 4.2 9.25 4.45 9.0 4.7 8.8 7.7 5.9 7.95 5.75 12.1 3.25 12.1 3.2 12.35 3.1 17.4 1.2 17.65 1.15 19.75 0.8 19.95 0.75 22.0 0.7 22.3 0.75 28.95 1.95 29.1 1.95 29.4 2.05 29.35 2.0 31.5 2.3 31.55 2.3 33.2 2.05 33.45 2.0 34.7 1.8 34.65 1.8 34.85 1.75 35.15 1.75 35.4 1.7 36.75 1.45 36.95 1.4 38.65 1.3 39.4 1.45 39.5 1.5" fill="#ffffff" fill-rule="evenodd" stroke="none"/>
  </g>
</svg>
