<?xml version="1.0" encoding="UTF-8" standalone="no"?>
<svg xmlns:ffdec="https://www.free-decompiler.com/flash" xmlns:xlink="http://www.w3.org/1999/xlink" ffdec:objectType="shape" height="28.5px" width="38.55px" xmlns="http://www.w3.org/2000/svg">
  <g transform="matrix(1.0, 0.0, 0.0, 1.0, -1.75, 0.1)">
    <path d="M34.2 -0.1 L34.5 -0.1 35.75 -0.05 36.1 0.0 36.15 0.0 36.6 0.15 36.55 0.1 38.55 0.9 38.6 0.95 38.95 1.15 39.5 1.6 39.9 2.15 40.15 2.7 40.3 3.3 40.3 26.3 40.15 27.0 40.1 27.1 39.6 27.65 38.9 27.9 38.25 27.95 37.75 27.9 36.95 27.7 36.9 27.7 36.7 27.65 36.75 27.65 35.25 27.0 35.1 27.0 34.35 26.8 32.15 25.7 30.3 25.25 29.75 25.3 29.7 25.3 29.5 25.3 28.95 25.25 25.9 25.75 25.8 25.75 24.4 26.2 24.05 26.25 23.3 26.4 22.65 26.7 22.45 26.75 22.25 26.8 22.3 26.8 18.4 28.2 17.95 28.25 13.3 28.4 12.95 28.35 13.0 28.4 11.9 28.2 11.75 28.15 11.7 28.15 10.3 27.7 10.05 27.6 7.85 26.45 7.65 26.3 6.0 25.05 5.95 25.05 5.85 24.9 4.2 23.25 4.2 23.3 4.0 23.0 2.55 20.65 2.3 19.8 Q2.3 19.3 2.6 18.95 2.9 18.6 3.35 18.45 3.8 18.3 4.25 18.45 L5.7 18.85 6.75 18.9 7.7 18.75 7.8 18.55 Q8.05 18.1 8.55 17.95 L9.05 17.75 8.75 17.7 8.05 17.5 8.05 17.55 5.75 16.3 5.75 16.25 5.45 16.05 4.7 15.35 4.5 15.1 4.5 15.15 3.85 14.25 3.85 14.2 3.8 14.15 3.8 14.1 2.0 11.05 2.0 11.1 Q1.65 10.55 1.8 10.0 1.9 9.35 2.45 9.05 L3.55 8.85 6.3 9.4 8.25 9.5 11.55 8.95 14.45 7.95 15.0 7.6 15.1 7.5 Q15.7 7.2 16.25 6.85 L16.6 6.55 16.75 6.4 21.9 2.7 21.95 2.65 22.15 2.5 22.2 2.5 22.9 2.2 22.95 2.15 23.1 2.1 23.05 2.15 26.75 1.0 27.05 0.9 29.3 0.65 29.4 0.65 34.2 -0.1" fill="#ffffff" fill-rule="evenodd" stroke="none"/>
  </g>
</svg>
