<?xml version="1.0" encoding="UTF-8" standalone="no"?>
<svg xmlns:ffdec="https://www.free-decompiler.com/flash" xmlns:xlink="http://www.w3.org/1999/xlink" ffdec:objectType="shape" height="27.35px" width="35.95px" xmlns="http://www.w3.org/2000/svg">
  <g transform="matrix(1.0, 0.0, 0.0, 1.0, -4.35, -0.8)">
    <path d="M39.15 1.4 L39.4 1.6 39.85 2.05 Q40.3 2.5 40.3 3.1 L40.3 26.35 40.1 27.15 39.5 27.7 39.4 27.75 39.35 27.75 38.95 27.9 38.4 28.0 38.15 28.0 37.4 28.0 37.2 28.0 37.15 28.0 36.45 27.9 36.4 27.9 36.25 27.85 36.3 27.85 35.3 27.6 35.05 27.6 34.95 27.6 34.3 27.45 33.25 27.15 33.15 27.15 33.0 27.05 32.1 26.65 31.45 26.45 31.05 26.35 25.2 24.0 25.35 24.0 25.2 23.95 25.15 23.95 24.7 23.85 24.25 23.95 24.2 24.0 24.05 24.0 21.95 25.2 21.25 25.7 21.05 25.85 17.55 27.65 16.95 27.9 15.95 28.05 15.85 28.05 15.75 28.1 15.8 28.1 15.25 28.15 15.2 28.15 12.85 27.9 12.4 27.8 10.8 27.1 10.75 27.05 10.55 26.95 10.6 26.95 9.7 26.35 9.55 26.3 9.5 26.25 7.85 24.75 7.8 24.7 7.55 24.35 7.6 24.35 6.3 22.15 Q5.95 21.65 6.1 21.05 6.25 20.45 6.8 20.15 7.3 19.8 7.9 19.95 L9.45 20.25 10.2 20.15 11.65 19.1 11.7 18.7 Q11.75 18.2 12.1 17.9 L12.3 17.7 12.15 17.7 10.8 17.75 10.3 17.7 10.35 17.7 9.0 17.3 8.4 16.95 6.8 15.45 6.55 15.25 6.55 15.2 4.6 12.2 4.6 12.15 Q4.25 11.65 4.4 11.05 4.5 10.45 5.0 10.15 5.45 9.75 6.1 9.85 L8.85 10.3 10.3 10.15 12.85 8.6 13.25 8.3 13.2 8.35 14.95 6.75 15.45 6.15 15.45 6.1 15.6 6.0 16.55 5.15 16.85 4.8 16.85 4.75 17.05 4.55 18.65 3.25 18.7 3.25 18.9 3.1 21.05 1.9 21.0 1.9 21.3 1.75 21.35 1.75 22.95 1.3 23.5 1.25 26.1 1.5 26.15 1.5 26.3 1.55 27.9 1.9 28.05 1.95 28.7 2.15 29.75 2.25 29.85 2.3 31.05 2.1 31.3 2.05 31.8 1.9 31.75 1.9 31.85 1.85 31.9 1.85 31.95 1.85 33.65 1.35 33.7 1.35 33.8 1.3 33.9 1.3 35.1 0.95 35.5 0.85 35.6 0.85 36.05 0.8 36.1 0.8 36.2 0.8 37.75 0.8 38.5 1.0 39.1 1.35 39.15 1.4" fill="#ffffff" fill-rule="evenodd" stroke="none"/>
  </g>
</svg>
