<?xml version="1.0" encoding="UTF-8" standalone="no"?>
<svg xmlns:ffdec="https://www.free-decompiler.com/flash" xmlns:xlink="http://www.w3.org/1999/xlink" ffdec:objectType="shape" height="31.55px" width="39.5px" xmlns="http://www.w3.org/2000/svg">
  <g transform="matrix(1.0, 0.0, 0.0, 1.0, -336.1, -247.1)">
    <path d="M357.3 256.1 Q362.35 243.35 375.6 248.65 L375.6 272.25 Q373.3 273.15 371.6 271.5 368.75 266.75 363.0 272.35 354.9 280.1 348.1 278.3 344.7 277.45 342.45 275.85 340.25 274.3 339.4 272.1 343.25 273.6 346.4 272.7 349.6 271.85 351.9 268.65 343.75 273.8 336.1 257.35 352.15 268.75 357.3 256.1" fill="#d90000" fill-rule="evenodd" stroke="none"/>
    <path d="M371.9 258.5 Q371.8 255.6 371.15 253.25 370.4 250.7 369.25 249.15 368.15 247.6 366.9 247.5 L369.45 247.25 371.9 247.55 371.9 258.5 M372.15 260.05 L371.45 271.3 Q369.5 268.25 366.15 270.0 370.95 266.45 372.15 260.05" fill="#9f0000" fill-rule="evenodd" stroke="none"/>
    <path d="M344.6 273.1 Q348.85 272.8 351.9 268.65 346.9 271.75 342.25 267.0 345.5 268.0 347.85 267.9 350.2 267.75 352.1 266.45 354.05 265.15 356.05 262.75 354.65 266.5 353.2 268.95 351.7 271.35 349.7 272.4 347.65 273.4 344.6 273.1" fill="#9f0000" fill-rule="evenodd" stroke="none"/>
  </g>
</svg>
