<?xml version="1.0" encoding="UTF-8" standalone="no"?>
<svg xmlns:ffdec="https://www.free-decompiler.com/flash" xmlns:xlink="http://www.w3.org/1999/xlink" ffdec:objectType="shape" height="30.1px" width="38.75px" xmlns="http://www.w3.org/2000/svg">
  <g transform="matrix(1.0, 0.0, 0.0, 1.0, -0.05, -1.05)">
    <path d="M33.05 1.05 L35.75 1.65 35.8 1.65 38.75 2.8 38.8 2.8 38.8 26.35 38.7 26.4 37.7 26.65 37.6 26.65 36.7 26.55 34.85 25.5 34.0 24.55 33.45 24.1 33.15 23.9 31.2 23.4 28.85 23.95 21.8 28.65 17.65 30.55 14.2 31.15 14.1 31.15 10.75 30.75 10.55 30.7 7.75 29.5 5.4 27.9 3.65 26.1 2.45 24.0 3.5 23.95 3.8 23.9 5.05 24.2 8.3 24.35 11.35 23.25 14.2 21.25 12.25 21.85 10.4 21.9 6.8 20.35 3.2 16.4 2.15 14.55 0.05 9.85 3.75 12.25 7.15 13.9 7.95 14.15 12.9 15.15 14.0 15.05 15.3 14.75 17.45 13.7 18.05 13.2 19.3 11.9 22.4 6.65 24.0 4.55 24.1 4.45 28.1 1.65 28.3 1.6 33.0 1.05 33.05 1.05" fill="#d90000" fill-rule="evenodd" stroke="none"/>
    <path d="M33.5 4.75 L31.9 2.4 31.85 2.3 30.15 1.4 30.15 1.35 32.65 1.15 35.1 1.45 35.2 1.7 35.1 12.0 34.65 8.35 34.65 8.3 33.5 4.8 33.5 4.75 M30.35 22.9 L31.35 22.0 33.15 19.8 34.5 17.2 35.35 14.25 34.7 25.1 34.45 24.9 34.35 25.1 34.0 24.6 33.45 24.1 32.25 23.55 30.95 23.5 29.45 23.85 30.25 23.15 30.35 22.9" fill="#9f0000" fill-rule="evenodd" stroke="none"/>
    <path d="M7.3 24.5 L6.8 24.5 7.15 24.45 7.3 24.5 8.8 24.3 10.65 23.7 10.7 23.65 12.45 22.65 14.15 21.25 12.8 21.7 11.7 21.85 11.4 21.85 9.35 21.65 7.05 20.55 5.05 18.55 7.2 19.4 9.2 19.9 12.8 19.95 16.0 18.75 16.25 18.6 19.25 16.5 16.45 20.8 13.55 23.45 10.4 24.65 7.3 24.5" fill="#9f0000" fill-rule="evenodd" stroke="none"/>
  </g>
</svg>
