<?xml version="1.0" encoding="UTF-8" standalone="no"?>
<svg xmlns:ffdec="https://www.free-decompiler.com/flash" xmlns:xlink="http://www.w3.org/1999/xlink" ffdec:objectType="shape" height="28.75px" width="38.05px" xmlns="http://www.w3.org/2000/svg">
  <g transform="matrix(1.0, 0.0, 0.0, 1.0, -0.75, -0.85)">
    <path d="M38.8 2.85 L38.8 26.3 38.75 26.4 37.7 26.6 37.6 26.6 36.7 26.4 36.55 26.35 34.95 25.35 33.45 24.05 33.1 23.85 32.2 23.5 31.2 23.3 29.55 23.4 28.8 23.6 26.8 24.4 23.7 26.2 23.5 26.35 21.4 27.55 17.35 29.1 17.1 29.15 13.65 29.6 13.5 29.6 10.05 28.95 7.15 27.45 5.15 25.8 3.5 23.85 2.3 21.8 2.65 20.85 3.8 21.3 5.5 21.7 7.05 21.8 8.2 21.7 10.15 21.1 13.3 19.7 11.45 19.95 11.0 19.95 9.75 19.75 8.75 19.4 6.5 18.1 4.95 16.7 3.3 14.45 2.3 12.7 0.75 8.2 7.6 12.15 8.35 12.4 13.15 13.4 14.25 13.4 15.5 13.15 17.65 12.3 18.25 11.95 19.55 10.75 20.75 9.3 22.9 5.9 24.55 3.95 24.65 3.9 28.55 1.3 28.75 1.2 33.35 0.85 35.95 1.5 35.95 1.55 38.75 2.8 38.8 2.85" fill="#d90000" fill-rule="evenodd" stroke="none"/>
    <path d="M35.1 12.25 L34.65 7.95 33.5 4.45 33.45 4.4 31.9 2.05 30.1 1.05 32.7 0.9 35.1 1.25 35.25 1.4 35.1 12.25 M30.0 23.1 L29.85 22.9 31.2 21.8 33.05 19.7 33.25 19.4 34.45 17.2 34.55 17.05 35.35 14.25 34.7 25.0 34.2 24.65 34.05 24.7 33.85 24.4 33.3 24.0 32.2 23.55 30.95 23.4 29.55 23.5 30.0 23.1" fill="#9f0000" fill-rule="evenodd" stroke="none"/>
    <path d="M6.0 21.8 L5.8 21.8 5.75 21.75 6.0 21.8 6.8 21.8 9.6 21.4 13.25 19.7 12.05 19.85 11.9 19.9 10.8 19.9 10.5 19.85 8.5 19.3 7.9 19.05 5.85 17.6 4.55 16.0 4.45 15.85 6.35 16.95 8.35 17.75 12.2 18.3 12.3 18.3 15.65 17.65 16.0 17.55 19.4 15.9 16.5 19.25 13.35 21.35 12.35 21.75 9.85 22.25 8.95 22.3 6.0 21.8" fill="#9f0000" fill-rule="evenodd" stroke="none"/>
  </g>
</svg>
