<?xml version="1.0" encoding="UTF-8" standalone="no"?>
<svg xmlns:ffdec="https://www.free-decompiler.com/flash" xmlns:xlink="http://www.w3.org/1999/xlink" ffdec:objectType="shape" height="27.4px" width="37.35px" xmlns="http://www.w3.org/2000/svg">
  <g transform="matrix(1.0, 0.0, 0.0, 1.0, -1.45, -0.6)">
    <path d="M36.15 1.4 L38.75 2.8 38.8 2.85 38.8 26.25 38.75 26.4 37.75 26.55 37.65 26.55 36.6 26.25 33.45 24.0 32.15 23.45 29.5 23.05 26.65 23.7 20.1 26.8 16.85 27.7 16.6 27.75 13.1 28.0 12.95 28.0 9.5 27.25 6.75 25.55 4.2 22.95 3.35 21.65 1.45 17.85 4.25 19.05 6.95 19.35 12.4 18.15 10.25 18.0 8.2 17.3 4.75 14.65 2.4 10.85 1.75 8.75 1.5 6.55 5.35 9.0 8.8 10.65 14.45 11.8 18.5 10.7 21.1 8.3 21.65 7.5 25.2 3.3 29.2 0.8 33.65 0.6 36.1 1.4 36.15 1.4" fill="#d90000" fill-rule="evenodd" stroke="none"/>
    <path d="M31.45 0.65 L31.75 0.6 33.3 0.65 35.05 1.05 35.3 1.15 35.1 11.9 35.0 9.65 34.65 7.6 33.45 4.1 33.45 4.05 31.85 1.7 31.8 1.65 30.05 0.75 30.2 0.75 31.45 0.65 M29.8 23.05 L29.35 22.9 31.4 21.25 32.95 19.6 33.15 19.35 34.45 17.15 34.5 17.05 35.35 14.3 34.75 24.9 33.95 24.35 33.8 24.3 33.7 24.2 32.6 23.65 32.1 23.5 29.6 23.2 29.8 23.05" fill="#9f0000" fill-rule="evenodd" stroke="none"/>
    <path d="M8.0 15.7 L11.65 16.65 11.75 16.7 15.7 16.5 19.5 15.4 19.45 15.45 15.95 18.4 12.3 19.95 8.5 20.2 4.4 19.05 4.8 19.1 8.5 19.1 12.4 18.1 11.0 18.1 9.6 17.85 7.05 16.75 5.15 15.1 3.85 13.15 3.95 13.2 6.0 14.7 7.75 15.6 8.0 15.7" fill="#9f0000" fill-rule="evenodd" stroke="none"/>
  </g>
</svg>
