<?xml version="1.0" encoding="UTF-8" standalone="no"?>
<svg xmlns:ffdec="https://www.free-decompiler.com/flash" xmlns:xlink="http://www.w3.org/1999/xlink" ffdec:objectType="shape" height="28.45px" width="40.3px" xmlns="http://www.w3.org/2000/svg">
  <g transform="matrix(1.0, 0.0, 0.0, 1.0, 0.0, 0.45)">
    <path d="M29.3 -0.4 L33.4 -0.45 33.75 -0.4 33.7 -0.4 35.65 0.0 36.2 0.2 36.45 0.25 36.65 0.35 39.25 1.5 39.3 1.5 39.85 1.95 39.85 1.9 40.15 2.55 40.3 3.3 40.3 3.6 40.3 26.2 40.0 27.1 39.2 27.65 39.25 27.65 38.25 27.95 37.45 27.95 36.45 27.7 36.05 27.55 33.05 25.8 33.1 25.85 32.1 25.45 32.2 25.45 29.65 24.8 27.15 24.95 17.45 27.6 17.45 27.65 17.1 27.65 13.55 27.75 13.2 27.75 9.85 27.1 9.45 26.95 6.75 25.5 6.8 25.5 6.55 25.35 6.5 25.3 4.0 23.2 3.8 23.0 3.75 23.0 0.3 18.55 Q0.0 18.15 0.0 17.7 -0.05 17.2 0.25 16.8 L0.95 16.2 0.95 16.25 1.85 16.15 3.65 16.6 Q3.95 16.35 4.4 16.35 L6.3 16.3 4.55 14.8 4.35 14.6 4.3 14.55 4.1 14.35 1.8 11.35 1.6 11.0 0.95 9.35 0.9 9.05 0.6 7.35 0.6 7.3 Q0.45 6.75 0.75 6.3 1.0 5.8 1.55 5.65 2.05 5.45 2.6 5.65 L9.15 8.05 14.0 8.45 17.35 7.6 19.9 5.7 22.0 3.6 22.25 3.45 22.25 3.4 22.45 3.25 22.4 3.3 24.2 1.85 Q24.35 1.7 24.55 1.65 L28.7 -0.25 29.3 -0.4" fill="#ffffff" fill-rule="evenodd" stroke="none"/>
  </g>
</svg>
