<?xml version="1.0" encoding="UTF-8" standalone="no"?>
<svg xmlns:ffdec="https://www.free-decompiler.com/flash" xmlns:xlink="http://www.w3.org/1999/xlink" ffdec:objectType="shape" height="25.45px" width="37.3px" xmlns="http://www.w3.org/2000/svg">
  <g transform="matrix(1.0, 0.0, 0.0, 1.0, -1.5, -1.05)">
    <path d="M36.05 1.7 L38.65 2.85 38.8 3.6 38.8 26.2 37.8 26.5 36.8 26.25 33.6 24.4 32.35 23.85 29.8 23.3 27.0 23.45 26.75 23.5 17.05 26.15 13.5 26.25 10.15 25.6 7.45 24.15 4.95 22.05 1.5 17.6 4.05 18.2 6.7 18.15 7.15 18.0 12.5 16.75 10.5 16.4 8.6 15.7 5.3 13.45 3.0 10.45 2.35 8.8 2.05 7.05 8.75 9.5 14.1 9.95 18.0 8.95 18.05 8.9 20.8 6.9 23.05 4.65 23.35 4.45 25.15 3.0 29.3 1.1 29.8 1.15 33.65 1.1 33.8 1.15 36.05 1.7" fill="#d90000" fill-rule="evenodd" stroke="none"/>
    <path d="M32.05 2.05 L30.45 1.25 30.3 1.15 33.4 1.05 35.35 1.45 35.1 11.75 34.7 7.75 33.6 4.35 32.05 2.05 M33.15 19.35 L34.45 17.2 35.35 14.25 34.8 25.1 34.6 25.0 33.9 24.55 32.55 24.0 29.15 23.1 31.2 21.4 31.35 21.3 33.15 19.35" fill="#9f0000" fill-rule="evenodd" stroke="none"/>
    <path d="M4.3 11.95 L4.7 12.35 Q6.3 13.2 7.9 14.0 L8.25 14.05 11.9 15.1 15.9 15.35 19.85 14.8 19.2 15.5 18.15 16.3 16.2 17.45 15.9 17.5 12.3 18.7 8.7 18.75 8.4 18.8 4.45 17.85 8.3 17.7 12.05 16.9 10.85 16.7 9.9 16.35 9.7 16.3 7.5 15.25 7.35 15.2 5.5 13.65 4.3 11.95" fill="#9f0000" fill-rule="evenodd" stroke="none"/>
  </g>
</svg>
