<?xml version="1.0" encoding="UTF-8" standalone="no"?>
<svg xmlns:ffdec="https://www.free-decompiler.com/flash" xmlns:xlink="http://www.w3.org/1999/xlink" ffdec:objectType="shape" height="26.85px" width="39.1px" xmlns="http://www.w3.org/2000/svg">
  <g transform="matrix(1.0, 0.0, 0.0, 1.0, -1.2, -1.1)">
    <path d="M40.1 2.4 L40.3 3.2 40.3 25.75 40.05 26.6 40.05 26.65 39.55 27.35 39.0 27.8 38.3 27.95 37.35 27.95 37.0 27.9 34.1 27.15 34.05 27.15 33.75 27.05 32.4 26.6 32.0 26.5 31.7 26.45 31.4 26.35 31.35 26.35 30.1 25.8 30.2 25.85 29.2 25.65 29.0 25.6 28.95 25.6 27.9 25.2 24.25 24.7 24.05 24.7 12.9 24.7 12.7 24.7 12.65 24.7 10.5 24.4 10.15 24.4 9.85 24.35 9.85 24.4 3.15 22.95 2.25 22.35 2.25 22.3 Q1.9 21.85 1.95 21.3 L1.95 21.25 Q2.05 20.7 2.5 20.35 L4.9 18.25 5.05 18.1 5.2 18.0 5.35 17.5 5.4 17.45 5.9 16.9 7.15 16.2 7.2 16.2 7.3 16.15 8.9 15.45 8.8 15.4 8.85 15.4 6.7 14.2 6.75 14.25 6.05 14.0 5.75 13.9 5.8 13.9 3.05 12.85 2.9 12.8 2.85 12.8 2.0 12.35 Q1.5 12.05 1.3 11.55 1.1 11.0 1.3 10.5 1.5 9.95 2.0 9.7 L5.05 8.1 5.1 8.1 5.25 8.0 7.15 7.3 7.2 7.25 8.75 6.45 8.8 6.45 9.05 6.35 9.0 6.4 12.0 5.5 13.2 4.95 13.35 4.9 15.85 4.1 15.95 4.05 21.95 1.65 21.95 1.7 22.25 1.55 22.3 1.55 24.4 1.25 24.45 1.25 24.55 1.25 28.85 1.1 29.25 1.15 29.6 1.25 29.5 1.2 31.25 1.4 33.6 1.15 34.15 1.2 35.4 1.2 36.1 1.4 37.3 1.35 37.5 1.35 38.4 1.45 38.45 1.45 38.9 1.6 39.45 1.85 40.1 2.4 M27.9 25.2 L27.95 25.2 27.85 25.2 27.9 25.2" fill="#ffffff" fill-rule="evenodd" stroke="none"/>
  </g>
</svg>
