<?xml version="1.0" encoding="UTF-8" standalone="no"?>
<svg xmlns:ffdec="https://www.free-decompiler.com/flash" xmlns:xlink="http://www.w3.org/1999/xlink" ffdec:objectType="shape" height="23.85px" width="36.1px" xmlns="http://www.w3.org/2000/svg">
  <g transform="matrix(1.0, 0.0, 0.0, 1.0, -2.7, -2.6)">
    <path d="M32.3 3.0 L33.2 2.9 37.35 2.85 38.25 2.95 38.8 3.2 38.8 25.75 38.3 26.45 37.35 26.45 34.45 25.7 34.15 25.55 32.95 25.15 31.95 24.95 30.65 24.4 29.45 24.15 28.3 23.75 28.1 23.7 24.2 23.15 24.05 23.2 12.85 23.2 10.7 22.9 10.15 22.9 3.45 21.45 5.85 19.35 7.95 17.95 8.35 17.6 14.25 14.85 10.7 14.0 8.2 13.1 7.4 12.9 3.55 11.45 2.7 11.0 5.75 9.4 7.85 8.6 9.4 7.8 12.55 6.9 13.8 6.3 16.3 5.5 16.35 5.5 22.5 3.05 24.6 2.75 28.9 2.6 29.35 2.7 32.3 3.0" fill="#d90000" fill-rule="evenodd" stroke="none"/>
    <path d="M33.75 2.65 L33.95 2.7 35.4 2.7 35.1 12.35 34.8 8.65 34.0 5.6 33.9 5.35 32.8 3.75 32.6 3.6 31.15 2.95 31.15 2.9 33.75 2.65 M33.15 19.7 L34.5 17.2 35.35 14.3 34.95 25.7 34.85 25.8 32.6 25.1 32.55 25.1 29.25 23.65 31.5 21.65 33.15 19.7" fill="#9f0000" fill-rule="evenodd" stroke="none"/>
    <path d="M20.6 13.9 L20.7 14.55 17.35 15.95 10.3 17.75 6.65 18.25 6.65 18.2 7.9 17.5 12.1 15.65 11.65 14.75 11.5 14.75 9.55 14.1 6.6 12.45 7.8 12.25 9.65 12.3 13.2 12.9 14.35 12.95 20.6 13.9 M6.6 12.45 L6.3 12.5 6.35 12.3 6.6 12.45" fill="#9f0000" fill-rule="evenodd" stroke="none"/>
  </g>
</svg>
