<?xml version="1.0" encoding="UTF-8" standalone="no"?>
<svg xmlns:ffdec="https://www.free-decompiler.com/flash" xmlns:xlink="http://www.w3.org/1999/xlink" ffdec:objectType="shape" height="24.45px" width="35.7px" xmlns="http://www.w3.org/2000/svg">
  <g transform="matrix(1.0, 0.0, 0.0, 1.0, -3.1, -2.15)">
    <path d="M33.0 4.1 L37.1 3.1 38.8 2.95 38.8 25.4 38.6 26.4 37.9 26.55 37.0 26.6 34.8 26.45 32.4 25.85 27.85 23.1 25.45 22.0 25.3 22.0 22.45 21.4 18.3 21.3 17.6 21.4 15.5 21.45 12.55 21.85 12.0 22.05 4.75 24.05 6.75 20.1 9.15 17.35 15.4 13.6 9.6 12.45 8.75 12.55 6.4 12.6 3.1 13.65 5.45 9.85 8.55 6.6 12.65 4.1 15.15 3.2 15.2 3.2 17.85 2.45 19.95 2.15 21.95 2.15 28.6 3.6 29.1 3.75 32.0 4.2 32.9 4.1 33.0 4.1" fill="#d90000" fill-rule="evenodd" stroke="none"/>
    <path d="M33.0 4.6 L31.6 4.1 31.75 4.05 34.0 3.75 34.15 3.75 35.4 3.5 35.1 12.7 34.85 8.8 34.3 6.4 34.2 6.2 33.2 4.7 33.0 4.6 M33.2 19.85 L34.5 17.2 35.35 14.25 35.05 26.15 35.0 26.4 32.65 25.85 32.6 25.85 29.3 24.0 30.45 23.05 30.55 23.0 31.6 21.9 33.2 19.85" fill="#9f0000" fill-rule="evenodd" stroke="none"/>
    <path d="M21.7 13.9 L18.55 14.85 18.3 14.9 8.15 18.5 8.15 18.45 8.9 17.35 12.1 14.8 12.85 13.7 12.65 13.7 10.95 13.3 10.8 13.25 7.7 12.55 7.4 12.6 8.75 11.55 10.6 11.15 15.15 11.45 19.5 12.6 21.1 13.3 21.7 13.9" fill="#9f0000" fill-rule="evenodd" stroke="none"/>
  </g>
</svg>
