<?xml version="1.0" encoding="UTF-8" standalone="no"?>
<svg xmlns:ffdec="https://www.free-decompiler.com/flash" xmlns:xlink="http://www.w3.org/1999/xlink" ffdec:objectType="shape" height="24.35px" width="36.0px" xmlns="http://www.w3.org/2000/svg">
  <g transform="matrix(1.0, 0.0, 0.0, 1.0, -2.8, -2.2)">
    <path d="M35.5 3.2 L35.6 3.2 37.05 2.9 38.7 2.8 38.8 2.85 38.8 26.4 38.05 26.55 37.15 26.55 35.4 26.35 34.9 26.35 32.5 25.65 30.15 24.6 29.8 24.35 27.8 23.3 25.4 22.5 22.35 22.1 19.1 22.1 18.2 22.0 12.3 22.35 4.3 23.9 6.5 20.3 9.05 17.75 15.3 14.15 15.35 14.1 15.3 14.1 13.95 13.75 13.7 13.75 12.5 13.45 9.4 13.0 9.0 13.05 6.15 13.05 6.0 13.1 2.95 13.7 2.8 13.85 4.05 11.95 4.2 11.8 5.4 10.15 5.7 9.9 8.7 7.0 12.85 4.5 17.9 2.6 20.0 2.25 22.0 2.2 28.7 3.4 29.1 3.5 32.0 3.9 33.0 3.8 35.5 3.2" fill="#d90000" fill-rule="evenodd" stroke="none"/>
    <path d="M34.3 6.0 L33.25 4.5 31.75 3.8 33.65 3.5 33.65 3.45 34.9 3.25 35.45 3.25 35.35 5.95 35.4 6.05 35.2 12.5 35.2 12.1 34.95 8.6 34.3 6.0 M29.6 23.8 L31.75 21.85 33.4 19.45 34.55 16.7 35.35 13.8 35.4 13.7 35.15 26.3 32.8 25.75 29.6 23.85 29.6 23.8" fill="#9f0000" fill-rule="evenodd" stroke="none"/>
    <path d="M10.6 11.7 L15.05 11.95 18.55 12.8 19.3 12.9 21.65 13.9 18.75 15.2 18.5 15.25 11.85 17.55 11.6 17.7 8.1 18.85 8.85 17.75 10.05 16.65 13.25 14.25 13.1 14.25 11.3 13.95 11.15 13.9 7.45 13.15 8.6 12.25 8.75 12.15 10.5 11.75 10.6 11.7" fill="#9f0000" fill-rule="evenodd" stroke="none"/>
  </g>
</svg>
