<?xml version="1.0" encoding="UTF-8" standalone="no"?>
<svg xmlns:ffdec="https://www.free-decompiler.com/flash" xmlns:xlink="http://www.w3.org/1999/xlink" ffdec:objectType="shape" height="23.95px" width="36.45px" xmlns="http://www.w3.org/2000/svg">
  <g transform="matrix(1.0, 0.0, 0.0, 1.0, -2.35, -2.5)">
    <path d="M2.45 12.65 L2.35 12.7 2.35 12.6 2.45 12.65 3.9 11.45 9.25 8.0 20.4 3.1 22.05 2.7 26.4 2.5 32.15 2.9 35.65 2.55 38.75 2.8 38.8 2.85 38.8 26.4 38.2 26.45 38.0 26.45 37.05 26.35 34.85 25.85 32.95 25.15 32.35 25.0 31.8 24.75 29.8 24.25 29.4 24.1 27.25 23.65 24.7 23.55 24.35 23.6 18.2 23.85 17.25 23.7 5.2 22.9 3.25 22.5 5.85 20.15 8.55 18.35 14.65 15.25 11.7 14.6 11.3 14.55 8.55 13.85 8.15 13.8 5.4 13.15 5.2 13.15 2.45 12.65" fill="#d90000" fill-rule="evenodd" stroke="none"/>
    <path d="M34.2 5.35 L33.15 3.8 33.1 3.8 31.6 2.95 34.7 2.5 35.45 2.55 35.4 4.6 35.5 4.7 35.25 12.1 35.25 11.25 35.0 8.1 34.35 5.75 34.2 5.35 M29.85 23.5 L31.9 21.55 31.95 21.45 33.45 19.15 33.55 18.95 35.4 13.25 35.15 25.95 33.0 25.25 32.55 24.95 29.85 23.55 29.85 23.5" fill="#9f0000" fill-rule="evenodd" stroke="none"/>
    <path d="M6.85 13.7 L8.15 13.15 8.3 13.1 10.0 12.85 10.1 12.85 14.15 13.15 14.55 13.15 18.05 13.75 18.75 13.75 21.15 14.25 19.95 15.2 19.75 15.3 18.5 16.05 18.2 16.15 14.9 17.55 9.1 18.95 7.3 19.05 8.25 18.25 13.15 15.35 8.75 14.45 6.85 13.7" fill="#9f0000" fill-rule="evenodd" stroke="none"/>
  </g>
</svg>
