<?xml version="1.0" encoding="UTF-8" standalone="no"?>
<svg xmlns:ffdec="https://www.free-decompiler.com/flash" xmlns:xlink="http://www.w3.org/1999/xlink" ffdec:objectType="shape" height="29.55px" width="39.4px" xmlns="http://www.w3.org/2000/svg">
  <g transform="matrix(1.0, 0.0, 0.0, 1.0, -0.9, 0.55)">
    <path d="M34.75 -0.5 L35.45 -0.4 35.7 -0.4 36.3 -0.3 36.25 -0.3 36.35 -0.25 36.3 -0.3 36.8 -0.1 38.8 1.0 38.75 1.0 38.95 1.1 39.55 1.55 40.1 2.4 40.25 3.0 40.3 3.0 40.3 3.35 40.3 26.3 40.15 27.0 40.1 27.1 39.55 27.7 38.75 27.9 38.1 27.9 37.8 27.9 37.35 27.8 37.3 27.75 37.0 27.65 35.2 26.8 34.4 26.65 34.4 26.6 33.35 26.0 33.45 26.05 33.3 26.0 33.0 25.85 32.65 25.6 32.7 25.65 32.1 25.35 31.15 25.1 30.25 25.0 27.7 25.4 22.0 27.6 22.05 27.6 21.9 27.65 21.85 27.65 21.65 27.7 19.75 28.45 19.7 28.45 19.55 28.5 19.5 28.55 17.45 29.0 17.45 28.95 17.0 29.0 12.25 28.6 12.2 28.6 12.05 28.55 12.05 28.6 11.8 28.55 11.8 28.5 11.55 28.45 11.6 28.45 9.05 27.5 8.8 27.4 5.8 25.55 5.75 25.5 5.5 25.3 3.05 22.85 3.05 22.9 2.8 22.5 2.75 22.5 2.7 22.4 2.75 22.4 1.35 20.1 1.1 19.2 Q1.15 18.7 1.45 18.35 1.75 18.0 2.2 17.9 2.65 17.75 3.1 17.9 L4.5 18.35 5.75 18.55 6.6 18.5 Q6.9 18.15 7.35 18.05 L8.2 17.85 7.5 17.65 7.45 17.65 7.4 17.65 7.25 17.6 7.2 17.6 6.85 17.4 4.65 15.9 4.6 15.85 4.45 15.7 4.5 15.75 3.75 15.05 3.5 14.7 1.15 10.7 Q0.8 10.2 0.95 9.6 1.1 9.0 1.65 8.7 L2.75 8.5 5.55 9.1 7.6 9.3 7.9 9.3 11.75 9.0 11.7 9.05 14.3 8.4 16.2 7.45 17.55 6.4 18.1 5.85 18.25 5.75 18.25 5.7 22.4 2.6 22.7 2.45 26.5 0.75 26.55 0.7 26.8 0.65 29.1 0.15 29.4 0.1 34.25 -0.55 34.3 -0.55 34.75 -0.5" fill="#ffffff" fill-rule="evenodd" stroke="none"/>
  </g>
</svg>
