<?xml version="1.0" encoding="UTF-8" standalone="no"?>
<svg xmlns:ffdec="https://www.free-decompiler.com/flash" xmlns:xlink="http://www.w3.org/1999/xlink" ffdec:objectType="shape" height="25.5px" width="35.55px" xmlns="http://www.w3.org/2000/svg">
  <g transform="matrix(1.0, 0.0, 0.0, 1.0, -3.25, -1.4)">
    <path d="M38.0 2.3 L38.55 2.75 38.8 3.3 38.8 26.3 38.75 26.4 38.1 26.45 37.3 26.25 32.7 24.3 31.45 23.95 31.35 23.95 30.3 23.75 29.6 23.8 28.85 23.75 25.65 24.25 23.95 24.75 23.85 24.75 22.85 24.95 22.05 25.3 21.85 25.35 17.9 26.75 13.25 26.9 12.15 26.7 10.75 26.25 8.55 25.1 6.9 23.85 5.25 22.2 3.8 19.85 5.5 20.35 6.85 20.4 7.45 20.35 9.75 19.8 10.2 19.65 12.75 18.4 14.4 17.3 15.8 16.6 13.9 16.55 13.75 16.6 11.95 16.6 8.95 16.2 8.75 16.2 6.45 14.95 5.7 14.25 5.05 13.35 3.25 10.3 6.2 10.9 6.25 10.9 8.3 11.0 12.0 10.4 15.15 9.3 15.85 8.8 17.1 8.1 17.6 7.6 22.8 3.85 23.5 3.55 27.2 2.4 29.45 2.15 29.6 2.15 34.4 1.4 36.0 1.5 38.0 2.3" fill="#d90000" fill-rule="evenodd" stroke="none"/>
    <path d="M31.6 2.15 L31.45 1.9 34.2 1.5 35.65 1.45 35.4 11.3 35.15 7.95 34.25 5.05 34.1 4.75 32.8 3.15 31.6 2.15 M32.5 21.1 L33.85 18.4 35.4 12.2 35.15 25.45 35.1 25.5 35.05 25.45 32.9 24.35 32.45 24.2 30.5 23.2 32.5 21.1" fill="#9f0000" fill-rule="evenodd" stroke="none"/>
    <path d="M21.85 15.8 L20.4 17.1 Q18.65 18.05 16.85 18.95 L12.8 19.85 10.85 19.8 9.05 19.35 13.5 17.7 13.55 17.7 15.8 16.6 15.05 16.6 13.55 16.45 11.15 15.85 9.3 14.7 9.4 14.75 10.65 14.75 11.05 14.7 15.95 14.8 16.15 14.85 19.35 14.95 19.8 15.0 22.6 14.7 21.85 15.8" fill="#9f0000" fill-rule="evenodd" stroke="none"/>
  </g>
</svg>
