<?xml version="1.0" encoding="UTF-8" standalone="no"?>
<svg xmlns:ffdec="https://www.free-decompiler.com/flash" xmlns:xlink="http://www.w3.org/1999/xlink" ffdec:objectType="shape" height="27.95px" width="37.7px" xmlns="http://www.w3.org/2000/svg">
  <g transform="matrix(1.0, 0.0, 0.0, 1.0, -2.6, -0.25)">
    <path d="M38.75 1.05 L39.35 1.45 39.8 2.0 39.85 2.0 40.15 2.55 40.1 2.55 40.3 3.25 40.3 26.3 40.15 27.0 40.1 27.1 39.6 27.65 38.9 27.9 38.25 27.95 37.95 27.95 37.55 27.9 37.5 27.9 37.2 27.85 35.35 27.2 35.05 27.2 34.3 27.0 34.05 26.95 34.0 26.9 33.4 26.6 33.35 26.6 33.05 26.45 33.05 26.5 32.25 26.05 32.05 26.0 32.1 26.0 31.25 25.8 31.35 25.8 31.15 25.8 31.1 25.75 30.2 25.55 30.25 25.55 27.8 25.3 23.8 25.6 21.6 26.4 21.2 26.6 21.1 26.65 19.3 27.4 19.25 27.4 18.95 27.5 14.9 28.2 14.55 28.2 13.35 28.15 13.2 28.15 13.15 28.15 12.8 28.1 12.75 28.1 12.6 28.05 12.65 28.05 11.05 27.65 11.0 27.65 10.75 27.55 10.8 27.55 9.15 26.8 9.15 26.85 8.95 26.7 8.9 26.7 7.25 25.55 7.1 25.4 5.45 23.85 5.15 23.45 5.1 23.35 5.15 23.35 3.8 21.15 3.55 20.3 Q3.55 19.8 3.85 19.45 4.15 19.1 4.6 18.95 5.05 18.8 5.5 18.95 L6.9 19.35 7.8 19.3 9.0 18.9 9.15 18.5 9.15 18.55 9.8 17.85 10.1 17.7 9.95 17.7 9.5 17.65 8.35 17.35 8.3 17.35 8.05 17.25 6.8 16.6 6.4 16.35 4.85 14.75 4.7 14.5 2.85 11.45 Q2.5 10.9 2.65 10.35 2.8 9.75 3.3 9.4 3.8 9.05 4.4 9.2 L7.15 9.7 8.95 9.7 11.95 8.85 Q13.35 8.15 14.8 7.4 L16.25 6.35 16.7 5.9 16.85 5.8 16.85 5.75 20.55 3.05 20.6 3.05 20.8 2.9 22.35 2.15 22.55 2.1 23.2 1.9 23.4 1.85 23.45 1.8 27.1 1.25 27.15 1.25 27.3 1.25 29.55 1.2 33.95 0.45 34.15 0.4 35.45 0.25 35.8 0.25 36.3 0.3 38.3 0.85 38.35 0.85 38.75 1.05" fill="#ffffff" fill-rule="evenodd" stroke="none"/>
  </g>
</svg>
