<?xml version="1.0" encoding="UTF-8" standalone="no"?>
<svg xmlns:ffdec="https://www.free-decompiler.com/flash" xmlns:xlink="http://www.w3.org/1999/xlink" ffdec:objectType="shape" height="24.95px" width="34.7px" xmlns="http://www.w3.org/2000/svg">
  <g transform="matrix(1.0, 0.0, 0.0, 1.0, -4.1, -1.75)">
    <path d="M38.5 2.7 L38.8 3.25 38.8 26.3 38.75 26.4 38.1 26.45 37.7 26.4 36.65 26.1 32.75 24.6 31.5 24.3 31.45 24.3 30.4 24.05 27.9 23.8 24.5 24.0 24.4 24.0 23.45 24.1 21.05 24.95 20.5 25.25 18.7 26.0 14.6 26.7 13.35 26.65 13.0 26.6 11.4 26.2 9.75 25.45 8.1 24.3 6.5 22.75 6.45 22.65 5.05 20.35 6.75 20.85 8.15 20.8 11.0 19.75 11.4 19.55 13.8 17.95 13.95 17.8 15.4 16.7 16.8 15.95 14.9 15.95 14.75 16.0 9.85 16.2 8.7 15.9 7.45 15.25 5.95 13.7 4.1 10.65 7.0 11.2 9.1 11.2 12.6 10.2 15.45 8.75 17.25 7.45 17.75 6.95 21.45 4.25 Q22.25 3.9 23.0 3.5 L23.65 3.3 27.3 2.75 29.65 2.7 35.9 1.75 37.9 2.3 38.5 2.7" fill="#d90000" fill-rule="evenodd" stroke="none"/>
    <path d="M31.6 2.65 L31.55 2.4 34.2 1.9 34.25 1.9 35.6 1.75 35.35 11.4 35.15 8.3 34.3 5.45 34.15 5.15 32.8 3.6 31.6 2.65 M35.35 12.4 L35.1 25.65 35.05 25.7 35.0 25.65 34.65 25.55 33.95 25.2 33.75 25.15 32.85 24.65 32.4 24.5 30.5 23.4 32.45 21.3 33.8 18.6 35.35 12.4" fill="#9f0000" fill-rule="evenodd" stroke="none"/>
    <path d="M20.9 14.5 L23.6 14.55 22.75 15.45 22.65 15.6 21.3 16.55 17.85 18.25 14.0 19.35 12.15 19.45 10.45 19.2 14.6 17.15 14.65 17.1 16.8 15.95 14.5 15.85 12.45 15.4 10.8 14.5 10.8 14.55 10.7 14.45 10.8 14.5 12.35 14.3 17.15 14.15 17.35 14.2 20.5 14.4 20.9 14.5" fill="#9f0000" fill-rule="evenodd" stroke="none"/>
  </g>
</svg>
