<?xml version="1.0" encoding="UTF-8" standalone="no"?>
<svg xmlns:ffdec="https://www.free-decompiler.com/flash" xmlns:xlink="http://www.w3.org/1999/xlink" ffdec:objectType="shape" height="27.55px" width="36.85px" xmlns="http://www.w3.org/2000/svg">
  <g transform="matrix(1.0, 0.0, 0.0, 1.0, -3.45, -0.55)">
    <path d="M39.25 1.45 L39.65 1.75 39.65 1.8 40.0 2.25 40.3 3.15 40.3 26.3 39.85 27.35 39.75 27.45 38.95 27.9 38.35 28.0 37.85 28.0 36.4 27.75 36.25 27.7 36.2 27.7 35.3 27.4 34.8 27.4 34.3 27.25 34.35 27.25 33.05 26.7 33.05 26.65 32.9 26.65 32.7 26.55 32.2 26.35 31.45 26.1 31.05 26.05 30.35 25.8 29.7 25.7 29.65 25.7 29.45 25.65 28.9 25.45 24.95 24.75 24.2 24.7 23.55 24.9 22.5 25.35 22.1 25.65 22.05 25.65 21.75 25.8 21.8 25.8 21.1 26.1 21.15 26.05 20.35 26.55 20.0 26.7 16.0 28.0 15.6 28.05 14.25 28.1 14.1 28.1 14.05 28.1 13.05 28.0 12.8 28.0 12.75 27.95 12.2 27.8 12.1 27.8 10.45 27.2 10.4 27.15 10.15 27.0 10.15 27.05 8.5 26.0 8.5 25.95 8.3 25.8 6.65 24.25 6.4 23.9 5.05 21.6 4.8 20.75 Q4.8 20.3 5.1 19.95 5.4 19.6 5.85 19.45 6.3 19.3 6.75 19.45 L6.7 19.45 8.1 19.85 9.15 19.7 10.3 19.05 10.4 18.6 Q10.5 18.15 10.9 17.85 L11.1 17.7 10.95 17.7 10.75 17.7 10.7 17.7 9.6 17.55 9.25 17.5 7.9 17.0 7.85 16.95 7.35 16.6 5.85 15.1 5.7 14.95 5.65 14.9 3.7 11.85 3.7 11.8 Q3.35 11.3 3.5 10.7 3.6 10.1 4.1 9.8 L4.1 9.75 Q4.6 9.4 5.2 9.55 L7.9 10.0 9.65 9.9 9.8 9.85 12.6 8.65 12.55 8.65 12.8 8.5 16.35 5.8 16.8 5.3 16.85 5.25 17.05 5.1 17.85 4.55 17.8 4.55 18.5 3.9 18.75 3.75 20.85 2.5 Q20.9 2.4 21.0 2.4 L21.05 2.4 Q21.8 2.05 22.6 1.75 22.8 1.6 23.1 1.6 L25.7 1.45 25.95 1.45 28.45 1.7 29.55 1.7 29.8 1.7 33.65 0.95 33.95 0.85 35.25 0.6 35.55 0.55 35.6 0.55 35.7 0.55 36.05 0.55 38.0 0.8 Q38.3 0.85 38.6 1.05 L39.25 1.45 M15.4 16.15 L15.35 16.15 15.1 16.3 15.1 16.35 15.25 16.25 15.5 16.1 15.55 16.0 15.5 16.05 15.4 16.15 M14.3 16.2 L14.4 16.15 14.5 16.1 14.55 16.1 14.5 16.1 14.25 16.15 14.0 16.25 14.1 16.25 14.25 16.2 14.3 16.2" fill="#ffffff" fill-rule="evenodd" stroke="none"/>
  </g>
</svg>
