<?xml version="1.0" encoding="UTF-8" standalone="no"?>
<svg xmlns:ffdec="https://www.free-decompiler.com/flash" xmlns:xlink="http://www.w3.org/1999/xlink" ffdec:objectType="shape" height="24.55px" width="33.85px" xmlns="http://www.w3.org/2000/svg">
  <g transform="matrix(1.0, 0.0, 0.0, 1.0, -4.95, -2.05)">
    <path d="M35.85 2.05 L37.8 2.3 38.45 2.7 38.8 3.15 38.8 26.3 38.7 26.4 38.1 26.5 36.65 26.25 33.3 25.2 32.8 24.95 31.6 24.6 31.5 24.6 30.55 24.3 29.9 24.2 29.25 24.0 25.05 23.25 24.05 23.2 23.05 23.45 21.7 24.05 21.2 24.4 20.45 24.7 19.55 25.25 15.55 26.55 14.2 26.6 13.15 26.5 12.6 26.35 10.95 25.75 9.3 24.7 7.65 23.15 6.3 20.85 8.05 21.35 9.5 21.15 10.05 20.9 12.2 19.7 14.85 17.5 15.0 17.3 16.35 16.1 17.8 15.3 15.9 15.35 15.75 15.4 14.2 15.65 14.0 15.75 11.05 16.2 10.9 16.2 9.75 16.05 8.4 15.55 6.9 14.05 4.95 11.0 7.85 11.5 7.9 11.5 9.9 11.4 10.35 11.25 13.2 10.0 13.6 9.75 17.4 6.85 17.9 6.3 18.8 5.65 19.5 5.0 21.6 3.75 23.15 3.1 25.8 2.95 28.35 3.2 29.55 3.2 29.7 3.25 31.35 3.0 32.2 2.75 35.85 2.05" fill="#d90000" fill-rule="evenodd" stroke="none"/>
    <path d="M35.6 2.05 L35.35 11.55 35.3 11.45 35.15 8.65 34.95 7.65 34.3 5.85 34.15 5.55 32.8 4.1 31.6 3.2 31.6 2.95 34.2 2.35 34.25 2.3 35.55 2.05 35.6 2.05 M35.35 12.6 L35.1 25.85 35.0 25.9 34.95 25.85 32.3 24.75 30.45 23.6 32.45 21.5 33.75 18.8 33.8 18.8 35.35 12.6" fill="#9f0000" fill-rule="evenodd" stroke="none"/>
    <path d="M22.1 14.0 L24.7 14.35 23.8 15.1 22.3 16.0 18.95 17.6 15.3 18.8 13.55 19.1 11.8 20.1 17.5 15.3 15.8 15.3 15.0 15.6 11.7 16.15 Q13.95 13.8 17.2 13.55 L18.65 13.5 21.7 13.85 22.1 14.0" fill="#9f0000" fill-rule="evenodd" stroke="none"/>
  </g>
</svg>
