<?xml version="1.0" encoding="UTF-8" standalone="no"?>
<svg xmlns:ffdec="https://www.free-decompiler.com/flash" xmlns:xlink="http://www.w3.org/1999/xlink" ffdec:objectType="shape" height="12.05px" width="48.6px" xmlns="http://www.w3.org/2000/svg">
  <g transform="matrix(1.0, 0.0, 0.0, 1.0, -94.0, -122.9)">
    <path d="M126.0 122.95 L126.05 134.75 124.5 134.75 122.6 128.55 122.7 134.65 121.05 134.65 121.1 123.2 122.65 123.15 124.4 129.05 124.35 123.0 126.0 122.95 M132.55 129.9 L132.55 130.0 Q132.55 132.05 132.2 133.35 131.75 134.85 130.15 134.9 128.5 134.8 128.1 133.3 127.75 131.8 127.7 128.95 L127.7 128.85 Q127.7 126.05 128.1 124.6 128.45 123.1 130.1 123.0 131.7 123.05 132.15 124.55 L132.4 125.7 130.8 126.2 130.8 125.95 Q130.65 124.85 130.15 124.85 129.65 124.9 129.55 125.95 L129.45 128.95 129.55 131.95 Q129.7 133.0 130.2 133.05 130.7 133.05 130.8 132.0 L131.0 129.35 130.1 129.3 129.95 127.7 132.45 127.7 132.55 129.9 M135.9 134.0 Q135.8 134.95 135.05 134.95 L134.95 134.95 Q134.1 134.9 134.1 133.95 L134.1 133.9 Q134.1 132.95 135.0 132.95 135.9 132.95 135.9 133.85 L135.9 134.0 M137.45 133.9 Q137.45 132.95 138.35 132.95 139.25 132.95 139.25 133.85 L139.25 134.0 Q139.15 134.95 138.4 134.95 L138.3 134.95 Q137.45 134.9 137.45 133.95 L137.45 133.9 M140.8 133.9 Q140.8 132.95 141.7 132.95 142.6 132.95 142.6 133.85 L142.6 134.0 Q142.5 134.95 141.75 134.95 L141.65 134.95 Q140.8 134.9 140.8 133.95 L140.8 133.9 M108.45 122.95 L110.1 134.55 108.55 134.6 108.3 132.95 106.85 132.95 106.65 134.9 105.0 134.9 106.45 123.15 108.45 122.95 M113.35 123.0 Q115.0 123.1 115.4 124.55 115.8 126.0 115.85 128.85 L115.85 129.45 Q115.85 131.9 115.5 133.25 115.15 134.7 113.5 134.85 L112.8 134.9 111.2 134.65 111.35 123.05 112.45 122.9 113.35 123.0 M118.95 123.0 L119.1 134.9 117.5 134.9 117.35 123.0 118.95 123.0 M95.6 123.05 L95.6 132.95 97.9 132.75 97.95 134.55 94.0 134.75 94.05 123.0 95.6 123.05 M99.25 128.95 Q99.25 126.05 99.65 124.6 100.05 123.1 101.7 123.0 103.3 123.05 103.7 124.55 104.15 126.05 104.15 128.95 L104.1 128.95 Q104.1 131.8 103.7 133.35 103.3 134.85 101.7 134.9 100.05 134.8 99.65 133.3 99.25 131.8 99.25 128.95 M101.0 128.95 L101.1 131.95 Q101.25 133.0 101.75 133.05 102.25 133.0 102.35 131.95 L102.5 128.95 102.35 125.9 Q102.25 124.85 101.75 124.85 101.25 124.9 101.1 125.95 L101.0 128.95 M112.95 124.8 L112.85 133.15 113.45 133.05 Q113.95 132.95 114.05 131.95 L114.15 128.85 114.0 125.9 Q113.85 124.85 113.35 124.8 L112.95 124.8 M108.05 131.3 L107.4 127.35 107.0 131.3 108.05 131.3" fill="#ffffff" fill-opacity="0.9882353" fill-rule="evenodd" stroke="none"/>
  </g>
</svg>
