<?xml version="1.0" encoding="UTF-8" standalone="no"?>
<svg xmlns:ffdec="https://www.free-decompiler.com/flash" xmlns:xlink="http://www.w3.org/1999/xlink" ffdec:objectType="shape" height="3.1px" width="2.3px" xmlns="http://www.w3.org/2000/svg">
  <g transform="matrix(1.0, 0.0, 0.0, 1.0, -508.55, -362.3)">
    <path d="M509.7 362.55 L509.95 362.3 509.9 362.45 509.15 363.75 509.15 363.8 510.2 362.95 510.2 363.2 510.45 362.95 Q510.6 362.8 510.8 362.75 L510.85 362.8 510.05 364.0 510.7 363.3 510.75 363.45 510.6 363.8 510.7 363.95 510.75 364.0 510.7 364.35 510.1 365.2 510.0 365.2 510.55 364.2 510.05 364.75 509.55 365.4 509.45 365.35 509.75 364.85 509.6 365.0 509.55 365.0 509.5 364.9 510.15 364.1 510.2 364.05 509.0 365.15 510.45 363.15 508.85 364.85 508.8 364.75 509.45 363.9 510.1 363.15 508.55 364.45 508.55 364.35 509.85 362.5 509.85 362.45 509.6 362.7 509.7 362.55" fill="#693308" fill-rule="evenodd" stroke="none"/>
  </g>
</svg>
