<?xml version="1.0" encoding="UTF-8" standalone="no"?>
<svg xmlns:ffdec="https://www.free-decompiler.com/flash" xmlns:xlink="http://www.w3.org/1999/xlink" ffdec:objectType="shape" height="25.5px" width="30.4px" xmlns="http://www.w3.org/2000/svg">
  <g transform="matrix(1.0, 0.0, 0.0, 1.0, -8.4, -1.65)">
    <path d="M37.55 2.35 L38.8 2.9 38.8 26.35 38.15 26.6 37.75 26.7 37.4 26.7 36.75 26.8 33.5 26.5 31.9 26.0 31.85 25.95 30.5 25.05 27.2 20.3 27.15 20.25 26.4 19.65 25.45 19.7 24.25 20.4 23.35 21.35 20.25 25.7 20.1 25.85 18.95 26.65 17.45 27.15 15.8 27.05 14.05 26.35 12.55 25.1 12.5 25.0 11.25 22.95 13.25 23.3 13.55 23.15 14.8 22.65 17.1 19.45 19.15 15.45 20.35 13.75 21.8 12.65 19.9 12.95 19.75 13.0 18.25 13.85 15.3 16.15 15.15 16.25 13.85 16.85 12.3 16.7 10.55 15.4 8.4 12.4 11.2 12.75 11.25 12.7 13.15 12.15 15.5 9.25 15.75 8.8 17.3 5.45 18.4 3.75 19.95 2.5 22.15 1.65 23.9 1.65 26.45 3.1 28.65 4.95 29.8 5.4 29.9 5.45 31.5 5.3 32.8 4.75 35.95 2.95 37.55 2.35" fill="#d90000" fill-rule="evenodd" stroke="none"/>
    <path d="M31.95 5.0 L34.25 4.0 34.3 4.0 35.4 3.3 35.45 3.25 35.4 6.5 35.35 6.7 35.2 12.65 35.0 9.1 34.3 7.2 31.7 5.2 31.95 5.0 M33.65 19.6 L35.2 13.4 34.95 26.75 34.75 26.65 33.6 26.5 33.35 26.5 31.95 25.95 30.3 24.45 32.3 22.35 32.3 22.3 33.65 19.65 33.65 19.6" fill="#9f0000" fill-rule="evenodd" stroke="none"/>
    <path d="M26.1 11.7 L28.65 13.65 26.35 13.75 25.85 13.9 24.1 14.25 21.25 15.75 17.25 18.5 18.55 15.95 19.95 14.25 20.0 14.2 21.95 12.65 21.85 12.7 20.65 13.05 20.45 13.05 17.8 13.45 17.75 13.5 18.8 12.2 19.85 11.55 20.1 11.35 23.1 10.85 26.1 11.7" fill="#9f0000" fill-rule="evenodd" stroke="none"/>
  </g>
</svg>
