<?xml version="1.0" encoding="UTF-8" standalone="no"?>
<svg xmlns:ffdec="https://www.free-decompiler.com/flash" xmlns:xlink="http://www.w3.org/1999/xlink" ffdec:objectType="shape" height="2.8px" width="4.2px" xmlns="http://www.w3.org/2000/svg">
  <g transform="matrix(1.0, 0.0, 0.0, 1.0, -509.1, -403.6)">
    <path d="M510.75 403.6 L512.0 404.25 513.25 405.05 513.3 405.05 513.15 405.1 512.4 404.9 511.3 404.3 512.55 405.2 512.5 405.2 512.3 405.35 511.1 404.7 511.7 405.25 511.75 405.35 511.9 405.6 511.15 405.45 511.05 405.4 509.75 404.6 509.65 404.6 510.65 405.35 Q511.25 405.85 511.05 406.0 L511.5 406.35 511.4 406.4 510.3 405.65 Q509.35 405.0 509.95 405.15 L509.45 404.85 509.6 404.8 509.1 404.45 509.15 404.25 509.75 404.4 510.0 404.15 510.55 404.35 510.25 403.95 510.25 403.8 510.5 403.85 511.65 404.35 510.75 403.65 510.75 403.6" fill="#693308" fill-rule="evenodd" stroke="none"/>
  </g>
</svg>
