<?xml version="1.0" encoding="UTF-8" standalone="no"?>
<svg xmlns:ffdec="https://www.free-decompiler.com/flash" xmlns:xlink="http://www.w3.org/1999/xlink" ffdec:objectType="shape" height="25.9px" width="33.15px" xmlns="http://www.w3.org/2000/svg">
  <g transform="matrix(1.0, 0.0, 0.0, 1.0, -5.65, -1.0)">
    <path d="M32.55 4.05 L33.75 4.05 34.8 3.7 37.35 2.1 37.45 2.1 38.6 2.7 38.8 3.05 38.8 26.4 36.9 26.9 33.95 26.85 33.05 26.7 32.45 26.5 31.35 25.95 31.2 25.85 30.05 24.7 29.25 23.6 27.1 21.25 25.7 20.15 24.35 19.65 23.4 19.65 23.35 19.7 22.1 20.2 22.0 20.25 21.15 20.9 18.4 24.25 16.4 25.85 15.2 26.35 13.5 26.75 12.6 26.8 11.65 26.7 9.95 26.3 9.75 26.2 7.9 25.0 7.75 24.85 6.4 22.9 8.45 22.8 10.1 22.25 12.45 20.3 14.25 17.9 15.3 15.8 16.45 14.5 17.1 13.95 18.6 13.05 16.7 13.2 11.9 15.0 10.15 15.0 8.85 14.55 8.75 14.5 7.3 12.9 7.2 12.75 5.65 9.7 8.45 10.1 10.2 9.95 10.4 9.9 13.0 8.4 13.45 8.0 16.2 5.0 16.4 4.85 17.55 3.45 19.05 2.2 21.3 1.1 22.95 1.0 25.8 2.0 28.4 3.35 29.7 3.85 31.25 4.05 32.0 4.0 32.55 4.05" fill="#d90000" fill-rule="evenodd" stroke="none"/>
    <path d="M35.4 3.7 L35.2 12.5 35.15 12.45 35.15 11.5 34.75 8.85 34.0 6.9 31.95 4.4 32.05 4.15 34.15 4.05 35.1 3.55 35.4 3.7 M33.55 19.9 L35.2 13.6 34.9 26.85 34.8 26.85 34.75 26.9 34.65 26.85 33.25 26.8 31.9 26.25 31.85 26.25 30.2 24.8 32.2 22.6 33.55 19.9" fill="#9f0000" fill-rule="evenodd" stroke="none"/>
    <path d="M23.55 13.7 L21.55 14.75 20.85 15.2 13.2 19.0 14.6 16.45 16.1 14.75 16.5 14.4 18.5 13.15 18.4 13.05 17.1 13.3 17.0 13.35 14.1 13.7 15.3 12.3 15.55 12.1 16.65 11.4 17.1 11.25 19.6 10.85 22.75 11.4 24.4 11.95 25.6 12.1 24.65 12.95 23.8 13.5 23.55 13.7" fill="#9f0000" fill-rule="evenodd" stroke="none"/>
  </g>
</svg>
