<?xml version="1.0" encoding="UTF-8" standalone="no"?>
<svg xmlns:ffdec="https://www.free-decompiler.com/flash" xmlns:xlink="http://www.w3.org/1999/xlink" ffdec:objectType="shape" height="25.95px" width="34.45px" xmlns="http://www.w3.org/2000/svg">
  <g transform="matrix(1.0, 0.0, 0.0, 1.0, -4.35, -0.95)">
    <path d="M38.55 2.65 L38.8 2.95 38.8 26.4 36.85 26.9 33.8 26.85 32.25 26.5 31.0 25.75 26.6 21.15 24.95 20.25 23.5 19.95 22.5 20.0 22.45 20.0 21.0 20.5 20.15 21.1 19.8 21.4 17.1 24.4 15.05 25.7 14.85 25.85 13.05 26.4 11.3 26.6 8.15 26.1 7.9 26.0 5.95 24.85 5.75 24.7 4.35 22.7 6.4 22.5 8.05 21.95 8.45 21.75 10.7 20.3 12.6 18.05 13.75 15.9 14.95 14.75 17.25 13.4 17.2 13.4 15.3 13.5 10.3 14.7 9.95 14.65 8.55 14.3 7.3 13.75 7.2 13.65 5.8 11.8 4.45 8.7 7.25 9.1 9.0 9.1 9.2 9.05 12.1 8.0 12.55 7.7 18.7 2.3 19.25 1.95 20.9 1.1 22.55 0.95 22.75 0.95 29.6 3.15 31.15 3.45 31.9 3.5 32.45 3.65 33.6 3.85 33.65 3.85 34.75 3.65 37.3 2.05 37.45 2.0 38.55 2.65" fill="#d90000" fill-rule="evenodd" stroke="none"/>
    <path d="M34.2 3.85 L35.2 3.4 35.4 3.75 35.2 12.65 35.15 12.25 35.15 11.3 34.95 9.7 34.15 7.3 33.85 6.7 32.05 3.95 32.1 3.65 34.2 3.85 M31.5 23.4 L31.5 23.35 32.15 22.65 33.55 19.95 33.55 19.9 35.2 13.6 34.9 26.85 34.75 26.85 34.7 26.9 34.65 26.85 33.25 26.8 31.85 26.25 31.8 26.25 30.15 24.85 31.5 23.4" fill="#9f0000" fill-rule="evenodd" stroke="none"/>
    <path d="M22.45 13.8 L20.4 15.1 19.7 15.65 11.4 19.25 12.95 16.65 14.55 14.95 17.1 13.45 16.9 13.4 15.55 13.6 15.4 13.6 12.45 13.85 13.95 12.25 15.05 11.6 15.5 11.45 18.05 11.1 18.7 11.1 21.25 11.45 21.7 11.6 23.0 11.75 24.25 11.65 23.5 12.7 23.45 12.8 22.45 13.8" fill="#9f0000" fill-rule="evenodd" stroke="none"/>
  </g>
</svg>
