<?xml version="1.0" encoding="UTF-8" standalone="no"?>
<svg xmlns:ffdec="https://www.free-decompiler.com/flash" xmlns:xlink="http://www.w3.org/1999/xlink" ffdec:objectType="shape" height="29.05px" width="39.5px" xmlns="http://www.w3.org/2000/svg">
  <g transform="matrix(1.0, 0.0, 0.0, 1.0, -0.8, 0.65)">
    <path d="M19.6 -0.1 L19.7 -0.15 19.75 -0.2 19.85 -0.25 20.3 -0.4 21.95 -0.65 22.0 -0.65 22.15 -0.65 22.35 -0.65 22.55 -0.65 22.6 -0.65 26.05 -0.15 26.2 -0.1 28.4 0.5 28.8 0.6 31.4 1.4 31.35 1.4 32.1 1.55 32.05 1.55 32.3 1.6 32.35 1.6 33.15 1.9 34.2 2.1 34.4 2.05 34.3 2.05 36.45 0.7 36.8 0.55 36.95 0.5 36.9 0.5 37.6 0.4 38.25 0.7 38.25 0.65 39.3 1.35 39.3 1.4 39.45 1.45 39.45 1.5 39.8 1.8 40.15 2.3 40.15 2.25 40.3 2.9 40.3 26.4 40.05 27.25 40.05 27.3 39.3 27.85 38.3 28.2 37.8 28.25 37.75 28.25 37.1 28.4 36.8 28.4 33.65 28.35 33.25 28.3 33.2 28.3 32.65 28.2 32.7 28.2 32.25 28.05 31.75 27.9 31.7 27.9 31.3 27.75 31.35 27.75 30.2 27.05 29.85 26.8 29.1 26.0 29.15 26.0 28.85 25.65 27.65 24.35 25.35 22.4 23.9 21.85 23.8 21.85 23.65 21.85 22.55 21.75 21.75 21.8 20.75 22.1 19.75 22.75 16.8 25.65 16.4 25.9 16.45 25.9 13.95 27.2 13.55 27.35 13.5 27.35 10.35 27.9 10.1 27.9 9.6 27.9 9.35 27.9 6.1 27.4 6.05 27.4 5.6 27.2 5.6 27.25 3.1 25.9 2.6 25.45 1.1 23.4 Q0.8 23.0 0.8 22.5 0.8 21.95 1.15 21.55 1.45 21.15 1.95 21.05 L2.0 21.05 5.9 20.15 8.1 19.05 8.25 18.9 8.35 18.65 10.05 16.05 10.25 15.8 8.85 15.9 8.05 15.75 5.1 14.3 5.05 14.3 4.7 14.0 4.6 13.9 4.4 13.65 3.25 11.8 3.2 11.8 3.1 11.5 3.1 11.55 1.85 8.2 Q1.65 7.7 1.85 7.2 L1.85 7.15 Q2.0 6.65 2.5 6.4 L2.45 6.4 Q2.9 6.1 3.45 6.15 L7.95 6.75 10.65 6.2 14.7 3.8 15.8 2.65 15.9 2.55 17.95 0.9 18.1 0.8 18.15 0.8 19.65 -0.1 19.6 -0.1" fill="#ffffff" fill-rule="evenodd" stroke="none"/>
  </g>
</svg>
