<?xml version="1.0" encoding="UTF-8" standalone="no"?>
<svg xmlns:ffdec="https://www.free-decompiler.com/flash" xmlns:xlink="http://www.w3.org/1999/xlink" ffdec:objectType="shape" height="26.05px" width="36.5px" xmlns="http://www.w3.org/2000/svg">
  <g transform="matrix(1.0, 0.0, 0.0, 1.0, -2.3, -0.85)">
    <path d="M34.7 3.6 L37.25 1.95 37.4 1.9 38.45 2.6 38.8 2.9 38.8 26.4 37.8 26.75 37.6 26.75 36.8 26.9 33.65 26.85 32.1 26.45 30.95 25.75 28.7 23.25 26.1 21.05 24.2 20.35 23.75 20.35 22.6 20.25 21.6 20.3 21.55 20.3 20.05 20.75 18.75 21.6 15.75 24.55 13.25 25.85 10.05 26.4 9.55 26.4 6.3 25.9 3.8 24.55 2.3 22.5 6.5 21.55 8.95 20.3 11.0 18.15 12.2 16.05 13.5 14.95 14.25 14.5 15.9 13.75 13.9 13.8 8.7 14.4 5.75 12.95 5.65 12.85 4.5 11.0 3.25 7.65 7.85 8.25 8.05 8.25 11.15 7.65 15.6 4.95 16.85 3.7 18.9 2.05 20.4 1.15 20.5 1.1 22.15 0.85 22.35 0.85 25.8 1.35 28.2 2.0 28.35 2.0 31.05 2.85 31.8 3.0 33.55 3.65 34.7 3.6" fill="#d90000" fill-rule="evenodd" stroke="none"/>
    <path d="M32.15 3.55 L32.1 3.2 34.3 3.65 35.3 3.25 35.4 3.8 35.2 12.8 35.15 11.1 34.9 9.5 34.6 8.45 33.75 6.45 32.95 5.2 32.15 3.55 M33.55 19.95 L35.2 13.6 34.9 26.8 34.7 26.85 33.2 26.8 31.85 26.3 31.8 26.25 30.1 24.85 32.15 22.7 33.5 19.95 33.55 19.95" fill="#9f0000" fill-rule="evenodd" stroke="none"/>
    <path d="M21.3 13.95 L18.5 16.05 14.6 17.85 9.6 19.45 11.3 16.85 13.0 15.2 15.7 13.75 15.35 13.75 13.95 13.9 10.8 13.95 12.1 12.65 12.35 12.45 13.5 11.8 13.95 11.6 16.5 11.3 17.15 11.3 20.2 11.6 21.6 11.6 22.9 11.2 22.25 12.65 21.3 13.95" fill="#9f0000" fill-rule="evenodd" stroke="none"/>
  </g>
</svg>
