<?xml version="1.0" encoding="UTF-8" standalone="no"?>
<svg xmlns:ffdec="https://www.free-decompiler.com/flash" xmlns:xlink="http://www.w3.org/1999/xlink" ffdec:objectType="shape" height="26.25px" width="38.5px" xmlns="http://www.w3.org/2000/svg">
  <g transform="matrix(1.0, 0.0, 0.0, 1.0, -0.3, -0.7)">
    <path d="M33.5 3.45 L34.65 3.55 36.85 2.15 Q37.4 1.65 37.7 1.75 L38.15 2.1 38.8 2.8 38.8 26.4 37.45 26.8 35.95 26.95 33.55 26.85 Q31.75 26.6 30.6 25.5 L28.4 23.1 Q27.35 21.75 25.55 20.95 L20.7 20.6 Q18.55 20.95 17.4 22.0 L15.1 24.2 Q13.95 25.3 11.7 25.8 L6.65 26.15 Q4.3 25.9 2.65 24.9 0.95 23.95 0.3 22.35 5.35 21.35 7.15 20.3 8.95 19.3 9.4 18.25 9.8 17.25 10.6 16.2 11.45 15.15 14.5 14.1 L10.55 14.2 7.1 14.1 Q5.5 13.8 4.2 12.15 2.95 10.45 2.05 6.65 7.15 7.9 10.25 7.25 13.3 6.55 15.15 5.0 L18.55 2.15 Q20.0 0.8 22.0 0.7 L28.25 1.35 Q30.55 1.85 31.7 2.5 L33.5 3.45" fill="#d90000" fill-rule="evenodd" stroke="none"/>
    <path d="M34.2 17.9 L35.2 13.6 34.9 26.8 34.0 26.9 32.35 26.55 Q31.3 26.15 30.05 24.9 31.65 23.7 32.6 21.85 33.6 20.05 34.2 17.9 M35.4 3.1 L35.35 4.85 35.3 8.85 35.2 12.75 Q35.2 9.95 34.6 8.4 L33.25 5.55 Q32.5 4.35 32.1 2.75 32.9 3.45 33.65 3.5 L34.9 3.35 35.4 3.1" fill="#9f0000" fill-rule="evenodd" stroke="none"/>
    <path d="M18.75 11.65 Q20.25 11.65 21.55 10.7 21.1 13.3 19.35 14.95 17.6 16.6 14.7 17.7 L7.8 19.65 Q9.0 17.6 10.25 16.45 11.5 15.25 12.6 14.7 13.7 14.2 14.3 14.05 L12.25 14.2 9.1 14.1 Q10.7 12.3 12.35 11.8 L15.65 11.5 18.75 11.65" fill="#9f0000" fill-rule="evenodd" stroke="none"/>
  </g>
</svg>
