<?xml version="1.0" encoding="UTF-8" standalone="no"?>
<svg xmlns:ffdec="https://www.free-decompiler.com/flash" xmlns:xlink="http://www.w3.org/1999/xlink" ffdec:objectType="shape" height="29.15px" width="40.85px" xmlns="http://www.w3.org/2000/svg">
  <g transform="matrix(1.0, 0.0, 0.0, 1.0, 0.55, -0.25)">
    <path d="M38.6 0.85 L38.8 1.0 39.0 1.2 39.95 2.2 Q40.3 2.65 40.3 3.2 L40.3 26.4 40.0 27.3 39.2 27.85 38.45 28.05 38.35 28.1 37.8 28.25 36.9 28.35 36.75 28.35 36.6 28.35 36.3 28.35 33.5 27.8 33.1 27.65 32.1 27.15 31.35 26.95 31.3 26.95 31.0 26.8 30.7 26.65 29.3 26.05 Q28.8 25.8 28.6 25.35 L28.55 25.25 27.9 24.9 25.5 24.15 25.45 24.1 23.95 24.15 21.45 24.7 21.55 24.65 19.35 25.55 15.65 28.2 15.6 28.2 15.25 28.4 14.55 28.65 14.45 28.65 12.35 29.2 12.1 29.25 10.15 29.4 10.1 29.4 9.95 29.4 8.1 29.3 7.8 29.3 7.8 29.25 4.55 28.45 4.5 28.45 4.15 28.25 4.15 28.3 1.7 26.85 1.4 26.65 1.4 26.6 1.3 26.5 1.15 26.35 1.15 26.3 -0.25 24.3 Q-0.6 23.85 -0.55 23.35 -0.5 22.8 -0.15 22.4 L-0.1 22.4 Q0.25 22.0 0.8 21.95 L4.8 21.5 6.9 20.85 8.25 19.9 9.7 18.35 7.65 18.05 7.6 18.05 7.45 18.0 6.45 17.7 5.95 17.45 5.9 17.45 3.2 15.25 2.6 14.6 2.6 14.65 1.3 12.25 1.25 12.1 1.2 12.05 -0.15 8.6 Q-0.35 8.05 -0.15 7.5 0.05 6.95 0.6 6.7 L1.7 6.65 6.15 7.95 9.65 8.25 12.85 7.55 14.4 6.95 19.2 2.75 19.4 2.65 19.4 2.6 19.7 2.4 19.7 2.45 19.75 2.35 19.8 2.35 21.05 1.65 21.1 1.65 21.35 1.5 21.4 1.5 24.65 0.6 24.7 0.6 24.9 0.55 27.6 0.25 27.85 0.25 28.9 0.3 28.95 0.3 29.1 0.35 29.05 0.35 31.7 0.8 31.75 0.8 31.9 0.85 33.1 1.2 33.75 1.3 33.8 1.3 33.9 1.3 34.15 1.4 35.0 1.25 35.45 1.2 37.25 0.65 37.95 0.6 38.0 0.6 Q38.3 0.65 38.6 0.85" fill="#ffffff" fill-rule="evenodd" stroke="none"/>
  </g>
</svg>
