<?xml version="1.0" encoding="UTF-8" standalone="no"?>
<svg xmlns:ffdec="https://www.free-decompiler.com/flash" xmlns:xlink="http://www.w3.org/1999/xlink" ffdec:objectType="shape" height="26.15px" width="37.85px" xmlns="http://www.w3.org/2000/svg">
  <g transform="matrix(1.0, 0.0, 0.0, 1.0, -0.95, -1.75)">
    <path d="M31.45 2.25 L32.95 2.7 33.45 2.9 34.65 3.0 37.7 2.05 37.9 2.2 38.8 3.2 38.8 26.4 37.75 26.7 37.65 26.75 36.75 26.85 36.6 26.85 33.75 26.3 33.4 26.1 30.9 24.95 30.65 24.75 28.5 23.5 25.95 22.7 25.7 22.6 23.75 22.65 21.15 23.2 21.1 23.2 18.55 24.25 14.75 26.95 14.05 27.2 11.95 27.75 10.0 27.9 8.15 27.8 4.9 27.0 2.45 25.55 2.35 25.45 0.95 23.45 5.0 23.0 7.55 22.2 9.8 20.55 11.1 18.9 11.2 18.8 12.5 17.75 14.6 16.6 12.95 16.85 12.45 16.85 11.3 17.0 7.85 16.55 6.85 16.25 4.0 13.95 3.9 13.9 2.6 11.5 1.25 8.05 5.95 9.45 9.75 9.75 13.15 9.0 15.15 8.25 16.85 6.95 20.2 3.85 20.5 3.65 21.8 2.95 25.05 2.05 27.75 1.75 28.8 1.8 31.45 2.25" fill="#d90000" fill-rule="evenodd" stroke="none"/>
    <path d="M33.5 2.75 L34.05 2.9 35.25 2.7 35.3 2.8 35.15 12.85 34.85 9.25 34.8 9.05 33.9 6.45 33.7 6.15 32.75 4.45 32.5 3.85 31.55 2.45 33.5 2.75 M32.0 22.4 L33.4 20.0 35.25 13.8 34.85 25.7 34.7 26.15 34.7 26.2 34.45 26.2 34.15 26.15 34.0 26.1 33.15 25.95 32.65 25.75 31.7 25.5 31.25 25.25 29.9 24.65 31.9 22.65 32.0 22.4" fill="#9f0000" fill-rule="evenodd" stroke="none"/>
    <path d="M20.3 14.35 L19.4 16.0 16.75 18.75 16.05 19.2 13.25 20.55 12.55 20.75 9.75 21.3 9.45 21.45 9.1 21.55 8.7 21.6 10.85 19.1 12.05 17.95 12.25 17.65 12.75 17.4 13.25 16.9 11.15 16.8 8.05 16.1 9.8 15.3 11.5 14.8 11.7 14.7 18.2 13.85 19.55 13.35 20.85 12.5 20.3 14.35" fill="#9f0000" fill-rule="evenodd" stroke="none"/>
  </g>
</svg>
