<?xml version="1.0" encoding="UTF-8" standalone="no"?>
<svg xmlns:ffdec="https://www.free-decompiler.com/flash" xmlns:xlink="http://www.w3.org/1999/xlink" ffdec:objectType="shape" height="31.8px" width="41.75px" xmlns="http://www.w3.org/2000/svg">
  <g transform="matrix(1.0, 0.0, 0.0, 1.0, 1.45, -0.35)">
    <path d="M38.75 1.05 L39.0 1.15 39.6 1.55 39.9 2.15 40.25 3.4 40.3 3.45 40.3 3.8 40.3 26.4 40.0 27.3 39.2 27.85 38.15 28.15 38.2 28.15 37.85 28.2 36.75 28.25 36.1 28.15 36.15 28.15 34.2 27.4 33.85 27.2 33.8 27.2 33.15 26.7 32.95 26.5 32.9 26.5 32.8 26.35 32.25 26.05 32.3 26.05 31.8 25.9 30.95 25.75 29.65 25.85 28.85 25.65 26.5 26.5 24.85 27.3 24.8 27.35 24.7 27.35 24.5 27.45 18.65 30.55 18.55 30.6 15.75 31.75 15.7 31.75 15.6 31.8 14.95 32.0 14.55 32.05 11.05 32.15 10.65 32.1 7.5 31.35 7.55 31.4 7.3 31.3 7.25 31.3 4.6 30.15 4.3 29.95 4.25 29.9 2.4 28.45 2.35 28.4 2.25 28.3 2.15 28.2 2.15 28.25 1.95 27.95 0.7 25.9 Q0.35 25.35 0.5 24.8 0.6 24.2 1.1 23.9 1.6 23.5 2.2 23.6 L4.15 23.9 5.7 23.95 7.85 23.6 Q8.1 23.4 8.45 23.35 L8.4 23.35 8.65 23.3 9.95 22.45 7.0 21.6 6.5 21.35 5.6 20.7 5.55 20.65 5.45 20.55 2.35 17.6 2.05 17.2 -1.25 10.8 -1.4 9.9 -1.4 9.85 -0.95 9.05 -0.15 8.6 -0.1 8.6 0.8 8.8 4.3 10.6 4.4 10.65 7.65 11.85 12.75 12.25 14.4 11.8 16.2 10.65 17.65 9.1 17.75 8.95 17.8 8.9 20.3 5.45 20.4 5.3 20.45 5.25 23.05 2.75 23.45 2.5 27.5 0.6 27.45 0.6 28.05 0.45 32.8 0.35 33.2 0.4 33.7 0.55 33.9 0.55 35.05 0.55 35.6 0.65 35.65 0.65 38.35 0.95 38.4 0.95 38.8 1.05 38.75 1.05 M9.2 24.2 L8.7 23.5 8.9 24.3 9.2 24.2" fill="#ffffff" fill-rule="evenodd" stroke="none"/>
  </g>
</svg>
