<?xml version="1.0" encoding="UTF-8" standalone="no"?>
<svg xmlns:ffdec="https://www.free-decompiler.com/flash" xmlns:xlink="http://www.w3.org/1999/xlink" ffdec:objectType="shape" height="116.8px" width="114.05px" xmlns="http://www.w3.org/2000/svg">
  <g transform="matrix(1.0, 0.0, 0.0, 1.0, 1.5, 1.5)">
    <path d="M85.95 1.6 Q83.75 0.0 80.3 0.0 78.85 0.0 70.75 5.05 62.7 10.05 60.75 10.05 L46.0 1.55 Q44.9 0.9 41.95 1.2 39.0 1.5 36.3 2.9 33.6 4.3 30.65 3.55 L27.45 2.8 Q25.05 2.8 24.75 5.05 24.3 7.9 22.0 8.95 L16.8 10.5 Q13.75 11.25 12.9 12.15 14.6 14.95 13.55 16.55 12.85 17.45 9.9 18.95 3.0 22.3 3.0 28.5 3.0 30.5 4.9 34.35 6.75 38.15 6.75 39.75 6.75 43.3 3.4 50.15 0.0 57.0 0.0 58.75 0.0 65.55 4.95 70.35 L8.25 73.65 Q9.8 75.35 9.8 77.2 9.8 79.8 5.2 85.6 0.6 91.4 0.6 92.85 L1.55 96.3 2.45 99.9 Q1.95 102.05 2.15 102.65 2.45 103.75 4.55 103.9 11.65 104.5 12.5 106.55 L13.0 107.9 Q13.55 108.45 15.45 108.45 L25.9 106.0 Q36.4 103.45 40.85 103.45 44.3 103.45 52.6 108.45 L60.4 113.45 64.25 112.65 67.9 111.8 Q71.4 111.8 77.7 113.8 81.85 113.8 85.3 106.55 88.65 99.2 92.8 99.2 92.95 99.2 96.8 100.55 100.9 101.75 102.25 101.75 105.55 101.75 108.3 92.65 109.65 88.15 110.3 83.4 L106.25 72.6 Q102.1 61.65 102.1 59.8 102.1 55.7 106.6 50.5 111.05 45.3 111.05 39.4 111.05 36.6 107.35 33.65 103.05 30.3 102.35 27.75 101.45 24.7 100.75 16.35 100.25 9.2 99.3 8.0 98.35 7.1 94.55 7.1 90.9 7.05 89.9 5.8 87.0 2.35 85.95 1.6 Z" fill="none" stroke="#ffffff" stroke-linecap="round" stroke-linejoin="round" stroke-width="3.0"/>
  </g>
</svg>
