<?xml version="1.0" encoding="UTF-8" standalone="no"?>
<svg xmlns:ffdec="https://www.free-decompiler.com/flash" xmlns:xlink="http://www.w3.org/1999/xlink" ffdec:objectType="shape" height="113.3px" width="107.65px" xmlns="http://www.w3.org/2000/svg">
  <g transform="matrix(1.0, 0.0, 0.0, 1.0, 55.75, 61.8)">
    <path d="M35.7 -53.15 Q41.9 -53.9 42.75 -51.4 43.6 -49.0 42.55 -43.25 41.55 -37.6 41.75 -34.45 41.9 -31.4 46.05 -27.3 50.15 -23.2 51.6 -18.45 53.05 -13.7 46.95 -9.85 40.85 -6.05 45.15 2.25 49.45 10.5 50.35 16.65 51.25 22.65 49.15 31.75 46.95 40.85 37.45 38.5 27.95 36.15 26.5 44.9 25.0 53.65 17.65 50.3 10.2 46.9 3.55 49.7 -3.15 52.5 -8.4 45.5 -13.65 38.45 -22.35 43.5 -31.15 48.45 -35.9 49.65 -40.75 50.8 -41.5 46.4 -42.35 42.0 -47.55 42.45 -52.8 42.85 -52.85 39.7 -52.9 36.45 -54.85 32.6 -56.8 28.65 -51.05 21.35 -45.3 14.05 -50.7 7.85 -56.05 1.6 -55.75 -0.5 -54.85 -6.55 -52.2 -10.65 -49.55 -14.8 -49.7 -18.5 -49.95 -22.25 -51.95 -25.6 -54.0 -29.05 -53.7 -31.75 -53.45 -34.4 -48.7 -37.2 -44.0 -40.0 -44.65 -43.75 -45.4 -47.55 -40.9 -48.35 -36.5 -49.25 -34.9 -53.25 -33.25 -57.3 -25.2 -55.2 -17.1 -53.15 -11.65 -59.75 -6.15 -64.75 -2.55 -57.65 1.05 -50.5 6.55 -53.65 12.05 -56.8 18.35 -57.45 24.7 -58.15 27.1 -55.3 29.45 -52.5 35.7 -53.15" fill="#7bd8e7" fill-opacity="0.36078432" fill-rule="evenodd" stroke="none"/>
    <path d="M39.65 -39.5 Q39.55 -35.75 39.85 -32.95 40.25 -30.2 41.65 -29.55 49.0 -26.05 47.85 -19.6 46.65 -13.25 42.05 -8.75 37.4 -4.3 43.0 6.6 48.55 17.5 46.95 19.65 45.3 21.85 45.5 25.05 45.7 28.3 44.3 32.7 42.85 37.05 35.1 33.85 27.25 30.65 24.6 39.3 21.95 48.0 15.7 45.75 9.4 43.55 6.0 44.85 2.6 46.05 1.5 45.85 0.3 45.6 -6.8 39.95 -13.9 34.3 -27.5 38.75 -41.15 43.2 -41.2 39.8 -41.3 36.4 -46.3 37.05 -51.25 37.6 -50.7 35.5 L-49.95 32.25 Q-49.75 31.2 -51.5 28.65 -53.25 26.1 -48.1 20.55 -43.05 14.9 -43.7 12.3 -44.45 9.65 -47.15 7.75 -49.9 5.9 -51.25 2.9 -54.1 -3.7 -50.5 -10.15 -48.0 -14.55 -46.6 -19.3 -46.3 -20.3 -46.35 -21.35 -46.35 -24.25 -47.85 -26.45 L-49.15 -28.75 Q-51.2 -33.5 -47.4 -37.35 -45.75 -38.95 -42.55 -40.3 -39.35 -41.75 -40.65 -44.6 -41.95 -47.5 -36.1 -48.0 -30.35 -48.5 -30.3 -52.05 -30.25 -55.55 -24.75 -53.85 -19.3 -52.15 -14.25 -54.0 -9.3 -55.85 -7.45 -53.85 -5.6 -51.85 -1.15 -48.85 3.3 -45.9 9.4 -50.9 15.4 -55.95 20.2 -56.85 25.9 -56.75 27.8 -53.15 29.75 -49.6 33.6 -50.55 37.5 -51.45 38.6 -47.3 39.7 -43.3 39.65 -39.5" fill="#c1ebfb" fill-rule="evenodd" stroke="none"/>
    <path d="M-38.7 38.0 L-38.6 37.65 -38.45 37.45 -35.15 37.65 Q-38.6 35.85 -37.0 35.95 -32.1 36.25 -27.3 35.9 L-22.95 35.25 -20.85 34.75 -18.85 34.45 -15.0 34.85 -13.8 34.85 -11.55 34.7 Q-11.1 34.75 -10.75 35.0 -9.8 35.5 -11.0 36.0 L-11.95 36.9 -11.95 36.95 -11.25 37.15 -11.1 37.2 -11.0 37.35 -10.95 37.4 -10.95 37.45 -11.0 37.5 -11.0 37.85 -11.2 38.1 -11.45 38.25 -11.75 38.5 -12.25 38.75 -12.55 38.85 -12.85 38.95 -12.85 39.0 -12.85 39.2 -12.8 39.25 -12.75 39.4 -12.7 39.45 -12.6 39.6 -12.45 39.8 -12.25 39.85 -12.2 39.9 -12.1 39.95 -12.1 40.35 -12.25 40.45 -12.25 40.55 -12.3 40.55 -12.35 40.6 -12.35 40.65 -12.45 40.65 -13.5 40.6 -14.55 40.8 -14.8 40.95 -14.8 41.05 -14.75 41.15 -14.65 41.4 -14.4 41.6 -14.0 41.85 -13.75 42.05 -13.55 42.4 -13.55 42.45 -13.55 42.7 -13.65 42.8 -13.7 42.85 -13.75 42.9 -14.3 42.85 -15.4 43.05 -15.5 43.3 -15.7 43.55 -15.75 43.7 -15.65 43.9 -15.4 44.4 -14.4 45.1 -13.7 45.4 -13.1 45.85 -12.1 46.45 Q-11.95 46.95 -12.3 47.3 L-13.55 47.35 Q-14.7 46.8 -15.8 46.85 L-16.05 47.1 Q-16.45 48.1 -15.15 48.6 -13.4 49.15 -12.25 50.4 L-12.1 50.65 Q-13.25 51.9 -15.05 51.3 L-19.65 50.15 Q-21.45 49.85 -22.95 48.95 -23.8 48.45 -24.75 48.1 -26.1 47.6 -27.6 47.4 -28.8 47.3 -29.75 46.6 -32.2 44.8 -35.25 44.65 -37.15 44.6 -36.9 43.1 -36.7 42.15 -35.9 41.55 L-35.7 41.35 Q-35.65 41.15 -36.0 41.2 L-37.5 41.05 -37.95 40.6 -38.0 40.15 -38.0 39.95 -37.9 39.7 -37.75 39.45 -37.85 39.4 -37.45 39.25 -36.6 38.95 Q-36.15 38.75 -37.4 38.6 L-38.65 38.25 -38.7 38.0" fill="#043658" fill-opacity="0.2901961" fill-rule="evenodd" stroke="none"/>
    <path d="M35.95 -27.45 L37.35 -26.35 Q39.75 -24.35 39.0 -21.2 37.65 -16.3 34.8 -11.7 L33.2 -9.2 Q30.2 -5.35 30.95 -0.75 31.85 4.5 34.65 9.25 L38.95 16.4 Q41.65 20.65 39.75 25.25 39.25 26.6 37.9 26.85 31.5 27.8 25.15 29.6 19.9 31.1 15.8 34.75 13.25 36.9 10.3 38.15 L5.85 38.0 Q2.15 35.9 -1.6 34.35 -2.55 33.9 -3.45 33.55 -10.45 30.25 -18.15 31.5 -27.9 33.15 -37.55 31.65 -40.1 31.15 -40.5 29.0 -40.75 27.55 -40.05 26.3 -36.8 20.3 -34.4 13.8 -33.3 10.6 -34.7 7.65 -38.0 1.3 -43.1 -1.2 -45.75 -2.9 -43.7 -5.9 L-38.55 -17.7 Q-36.8 -21.2 -38.05 -24.8 -39.35 -28.7 -39.95 -32.65 -40.05 -34.1 -39.1 -34.95 -37.25 -36.6 -34.35 -36.3 -30.2 -35.85 -27.15 -36.45 -24.1 -37.15 -21.75 -40.15 -19.85 -42.65 -20.5 -46.1 -20.75 -48.45 -16.85 -48.15 -12.95 -47.85 -9.05 -45.65 -5.25 -43.45 -4.85 -42.2 -4.55 -40.95 -2.1 -40.7 6.85 -39.55 16.0 -41.6 L18.45 -41.9 Q22.3 -42.1 25.05 -40.6 28.15 -39.55 29.35 -33.85 30.55 -28.1 33.2 -27.8 L35.95 -27.45" fill="#fad14c" fill-rule="evenodd" stroke="none"/>
    <path d="M32.7 -31.65 Q33.95 -30.8 36.05 -29.65 34.05 -29.9 32.8 -31.45 L32.7 -31.65 M16.3 41.3 L14.9 42.1 15.25 41.85 16.15 41.35 16.3 41.3 M25.05 -40.6 Q22.3 -42.1 18.45 -41.9 L16.0 -41.6 Q6.85 -39.55 -2.1 -40.7 -4.55 -40.95 -4.85 -42.2 -5.25 -43.45 -9.05 -45.65 -12.95 -47.85 -16.85 -48.15 -20.75 -48.45 -20.5 -46.1 -19.85 -42.65 -21.75 -40.15 -24.1 -37.15 -27.15 -36.45 -30.2 -35.85 -34.35 -36.3 -37.25 -36.6 -39.1 -34.95 -40.05 -34.1 -39.95 -32.65 -39.35 -28.7 -38.05 -24.8 -36.8 -21.2 -38.55 -17.7 L-43.7 -5.9 Q-45.75 -2.9 -43.1 -1.2 -38.0 1.3 -34.7 7.65 -33.3 10.6 -34.4 13.8 -36.8 20.3 -40.05 26.3 -40.75 27.55 -40.5 29.0 -40.1 31.15 -37.55 31.65 -27.9 33.15 -18.15 31.5 -10.45 30.25 -3.45 33.55 -2.55 33.9 -1.6 34.35 2.15 35.9 5.85 38.0 L10.3 38.15 Q13.25 36.9 15.8 34.75 19.9 31.1 25.15 29.6 31.5 27.8 37.9 26.85 39.25 26.6 39.75 25.25 41.65 20.65 38.95 16.4 L34.65 9.25 Q31.85 4.5 30.95 -0.75 30.2 -5.35 33.2 -9.2 L34.8 -11.7 Q37.65 -16.3 39.0 -21.2 39.75 -24.35 37.35 -26.35 L35.95 -27.45 40.6 -26.65 Q43.4 -26.05 43.4 -22.9 43.4 -19.8 39.15 -14.7 34.8 -9.65 34.5 -4.95 34.15 -0.25 38.75 5.85 43.35 12.0 44.5 17.35 45.6 22.65 43.4 25.65 41.2 28.55 34.75 28.8 28.3 29.0 24.45 31.4 20.5 33.85 19.9 35.15 19.2 36.5 17.75 38.15 L14.7 40.75 8.75 41.0 Q3.55 40.15 1.15 38.5 -1.25 36.85 -2.95 36.1 -4.6 35.4 -6.0 34.35 -7.4 33.3 -7.9 33.35 L-10.0 33.65 Q-11.6 33.85 -12.1 33.05 -12.6 32.1 -13.7 32.15 L-17.85 32.8 Q-20.85 33.35 -25.25 34.65 -29.65 36.0 -37.25 34.65 -44.8 33.3 -44.2 30.0 -42.8 22.8 -40.95 20.05 -38.9 17.05 -37.9 14.4 -37.0 11.8 -37.9 8.35 -38.85 4.85 -43.45 2.6 -47.95 0.4 -47.5 -1.6 L-46.4 -5.45 Q-45.8 -7.4 -43.45 -11.55 -41.05 -15.65 -41.35 -19.1 L-41.55 -20.45 Q-42.75 -32.35 -41.3 -34.85 -39.4 -38.05 -36.3 -38.65 -33.2 -39.35 -29.75 -40.85 -26.3 -42.4 -25.2 -44.8 -24.1 -47.2 -22.0 -49.6 -19.85 -51.95 -15.95 -49.6 -12.15 -47.2 -10.15 -47.2 -8.15 -47.3 -7.55 -48.3 -7.05 -49.3 -3.85 -46.05 -0.75 -42.85 0.25 -42.2 1.15 -41.6 6.35 -42.65 11.45 -43.8 15.15 -45.8 18.85 -47.8 20.4 -47.8 21.95 -47.8 23.35 -44.45 L25.05 -40.6" fill="#efbc58" fill-rule="evenodd" stroke="none"/>
    <path d="M14.9 42.1 L14.8 42.1 14.45 42.3 Q9.3 44.7 -1.05 38.6 -11.35 32.55 -21.7 35.35 -31.95 38.15 -39.3 36.05 -46.7 33.9 -46.45 29.05 -46.2 24.1 -43.05 19.4 -39.95 14.65 -39.7 9.85 L-39.6 9.0 Q-39.5 8.15 -41.1 6.65 -44.4 4.9 -47.85 2.55 -51.6 -0.15 -49.0 -4.6 -46.5 -9.05 -44.05 -14.6 -42.8 -17.4 -42.7 -20.85 -43.2 -23.95 -43.25 -27.3 L-43.5 -28.4 Q-45.25 -36.6 -40.3 -38.1 -35.35 -39.6 -35.4 -39.8 L-34.2 -42.65 Q-33.05 -45.4 -29.35 -44.6 -25.7 -43.8 -23.5 -48.85 -21.35 -53.9 -13.95 -49.55 -7.4 -50.3 -2.6 -46.1 0.95 -42.9 7.75 -46.05 9.85 -47.05 12.45 -48.7 14.0 -49.7 15.45 -50.2 L18.75 -50.7 Q22.9 -50.35 25.85 -44.45 L27.65 -39.7 Q29.1 -35.05 31.25 -32.85 L32.7 -31.65 32.8 -31.45 Q34.05 -29.9 36.05 -29.65 L40.45 -27.65 Q47.5 -24.7 43.1 -18.45 38.65 -12.2 36.6 -7.55 34.4 -2.9 39.9 5.75 45.35 14.3 45.8 21.6 46.15 28.9 35.4 29.35 24.55 29.75 22.1 34.85 20.1 39.0 16.3 41.3 L16.15 41.35 15.25 41.85 14.9 42.1 M25.05 -40.6 L23.35 -44.45 Q21.95 -47.8 20.4 -47.8 18.85 -47.8 15.15 -45.8 11.45 -43.8 6.35 -42.65 1.15 -41.6 0.25 -42.2 -0.75 -42.85 -3.85 -46.05 -7.05 -49.3 -7.55 -48.3 -8.15 -47.3 -10.15 -47.2 -12.15 -47.2 -15.95 -49.6 -19.85 -51.95 -22.0 -49.6 -24.1 -47.2 -25.2 -44.8 -26.3 -42.4 -29.75 -40.85 -33.2 -39.35 -36.3 -38.65 -39.4 -38.05 -41.3 -34.85 -42.75 -32.35 -41.55 -20.45 L-41.35 -19.1 Q-41.05 -15.65 -43.45 -11.55 -45.8 -7.4 -46.4 -5.45 L-47.5 -1.6 Q-47.95 0.4 -43.45 2.6 -38.85 4.85 -37.9 8.35 -37.0 11.8 -37.9 14.4 -38.9 17.05 -40.95 20.05 -42.8 22.8 -44.2 30.0 -44.8 33.3 -37.25 34.65 -29.65 36.0 -25.25 34.65 -20.85 33.35 -17.85 32.8 L-13.7 32.15 Q-12.6 32.1 -12.1 33.05 -11.6 33.85 -10.0 33.65 L-7.9 33.35 Q-7.4 33.3 -6.0 34.35 -4.6 35.4 -2.95 36.1 -1.25 36.85 1.15 38.5 3.55 40.15 8.75 41.0 L14.7 40.75 17.75 38.15 Q19.2 36.5 19.9 35.15 20.5 33.85 24.45 31.4 28.3 29.0 34.75 28.8 41.2 28.55 43.4 25.65 45.6 22.65 44.5 17.35 43.35 12.0 38.75 5.85 34.15 -0.25 34.5 -4.95 34.8 -9.65 39.15 -14.7 43.4 -19.8 43.4 -22.9 43.4 -26.05 40.6 -26.65 L35.95 -27.45 33.2 -27.8 Q30.55 -28.1 29.35 -33.85 28.15 -39.55 25.05 -40.6" fill="#db9d42" fill-rule="evenodd" stroke="none"/>
    <path d="M18.9 31.45 Q15.95 30.55 13.9 29.3 11.85 28.0 13.1 26.25 L15.9 23.05 Q17.3 21.75 21.2 22.75 24.7 29.15 23.3 30.7 21.9 32.25 18.9 31.45" fill="#542e0a" fill-opacity="0.36862746" fill-rule="evenodd" stroke="none"/>
    <path d="M34.1 11.5 Q39.25 11.55 39.25 16.0 39.2 17.45 38.5 18.75 36.9 21.9 33.1 21.45 30.65 21.2 28.85 19.6 27.0 17.85 28.65 15.8 L31.15 12.9 Q32.4 11.7 34.1 11.5" fill="#7e512f" fill-opacity="0.32941177" fill-rule="evenodd" stroke="none"/>
    <path d="M36.0 13.9 Q41.15 14.0 41.15 18.8 41.1 20.4 40.4 21.8 38.8 25.2 35.0 24.75 32.55 24.45 30.75 22.7 28.9 20.85 30.55 18.6 L33.05 15.45 Q34.3 14.15 36.0 13.9" fill="#7e512f" fill-opacity="0.32941177" fill-rule="evenodd" stroke="none"/>
    <path d="M27.9 13.65 Q28.5 10.3 31.5 9.2 39.85 9.85 36.55 17.15 33.9 22.95 27.2 18.35 27.25 16.3 27.9 13.65" fill="#dbcd9c" fill-rule="evenodd" stroke="none"/>
    <path d="M21.05 22.4 L24.3 19.25 Q25.9 17.95 28.1 17.7 34.75 17.8 34.75 22.6 34.65 24.2 33.05 26.2 31.4 28.25 25.7 28.45 19.95 28.7 19.45 26.7 18.95 24.65 21.05 22.4" fill="#542e0a" fill-opacity="0.36862746" fill-rule="evenodd" stroke="none"/>
    <path d="M37.65 13.95 L37.05 17.25 Q36.5 19.2 33.6 20.5 L32.35 20.75 Q29.2 20.75 27.35 18.4 26.65 17.55 27.05 16.4 L27.5 14.35 29.55 10.8 29.6 10.7 Q28.35 12.95 28.5 15.55 28.6 16.45 29.35 17.1 L33.65 17.55 Q33.45 19.2 35.45 16.25 37.1 13.9 36.55 10.95 37.75 12.65 37.65 13.95" fill="#958c6d" fill-rule="evenodd" stroke="none"/>
    <path d="M31.65 18.05 Q30.55 20.25 31.25 21.1 32.0 22.1 33.1 22.5 L35.7 22.4 Q37.9 21.65 37.5 19.55 L37.5 19.45 37.1 17.65 38.05 18.9 38.6 19.95 Q39.45 21.65 38.25 22.8 37.0 24.05 35.3 24.3 L34.2 24.6 33.65 24.7 Q31.8 25.25 30.4 23.6 29.3 22.35 29.9 20.85 L30.7 19.0 Q30.85 18.6 31.65 18.05" fill="#565141" fill-rule="evenodd" stroke="none"/>
    <path d="M28.85 20.05 Q30.8 21.55 33.3 21.0 L34.7 20.3 Q35.45 19.65 35.85 18.8 34.75 22.3 30.8 21.55 28.75 21.1 27.5 19.35 26.5 18.1 27.2 16.65 L27.55 16.0 Q26.65 18.45 28.85 20.05" fill="#c2b68c" fill-rule="evenodd" stroke="none"/>
    <path d="M33.65 16.4 L33.85 16.45 33.9 16.55 34.0 16.55 34.0 16.7 34.05 16.8 34.05 16.95 33.85 17.1 33.35 17.0 33.2 16.85 33.2 16.8 33.3 16.6 33.6 16.4 33.65 16.4" fill="#c2b68c" fill-rule="evenodd" stroke="none"/>
    <path d="M33.6 18.9 L33.65 18.9 33.65 18.8 33.6 18.9 M33.65 15.35 Q36.35 16.25 37.05 17.8 L38.05 20.6 Q38.3 21.85 37.25 22.55 36.25 23.25 34.15 24.0 32.05 24.75 30.7 23.8 29.35 22.85 29.85 20.35 30.3 17.85 33.3 15.6 L33.65 15.35 M33.1 20.3 L33.05 20.3 33.05 20.35 33.2 20.35 33.1 20.3" fill="#c2b589" fill-rule="evenodd" stroke="none"/>
    <path d="M30.0 22.75 Q30.4 23.3 30.45 24.2 30.45 25.55 30.0 26.35 29.35 27.1 27.05 27.65 L22.8 27.55 Q20.95 27.05 21.0 26.0 21.1 24.9 20.7 23.45 L20.4 22.2 21.15 21.4 Q21.95 20.7 23.05 20.0 24.05 19.3 24.6 19.25 L23.5 20.0 22.95 20.5 Q22.4 21.5 22.2 22.45 L22.5 22.25 22.2 22.5 Q21.85 23.3 21.85 24.0 21.8 25.95 24.35 25.3 L28.3 24.3 Q29.3 24.0 30.0 22.75" fill="#565141" fill-rule="evenodd" stroke="none"/>
    <path d="M31.35 17.55 Q30.25 19.75 30.95 20.6 31.7 21.6 32.8 22.0 L35.4 21.9 Q37.6 21.15 37.2 19.05 L37.2 18.95 36.8 17.15 37.75 18.4 38.3 19.45 Q39.15 21.15 37.95 22.3 36.7 23.55 35.0 23.8 L33.9 24.1 33.35 24.2 Q31.5 24.75 30.1 23.1 29.0 21.85 29.6 20.35 L30.4 18.5 Q30.55 18.1 31.35 17.55" fill="#877c58" fill-rule="evenodd" stroke="none"/>
    <path d="M30.4 22.1 Q30.85 23.2 30.4 24.2 30.4 26.0 28.2 26.25 L23.6 26.65 Q22.9 26.65 22.5 26.1 21.3 24.2 21.0 22.3 20.85 21.55 21.3 21.05 L22.4 19.95 Q23.65 18.85 25.05 18.2 L26.85 17.75 Q28.25 18.2 29.05 19.55 L30.4 22.1" fill="#bfbaa8" fill-rule="evenodd" stroke="none"/>
    <path d="M30.0 21.85 Q30.4 22.4 30.45 23.3 30.45 24.65 30.0 25.45 29.35 26.2 27.05 26.75 L22.8 26.65 Q20.95 26.15 21.0 25.1 21.1 24.0 20.7 22.55 L20.4 21.3 21.15 20.5 Q21.95 19.8 23.05 19.1 24.05 18.4 24.6 18.35 L23.5 19.1 22.95 19.6 Q22.4 20.6 22.2 21.55 L22.5 21.35 22.2 21.6 Q21.85 22.4 21.85 23.1 21.8 25.05 24.35 24.4 L28.3 23.4 Q29.3 23.1 30.0 21.85" fill="#878270" fill-rule="evenodd" stroke="none"/>
    <path d="M26.8 24.25 Q27.5 23.9 28.15 23.8 L29.5 23.25 29.6 23.15 Q28.95 24.4 27.1 24.6 26.35 24.65 25.65 25.0 23.1 26.05 22.1 23.85 21.95 23.6 22.05 23.25 22.35 21.75 22.8 20.5 L22.7 23.15 Q22.55 24.4 23.9 24.6 L26.8 24.25" fill="#6b6758" fill-rule="evenodd" stroke="none"/>
    <path d="M-9.15 29.35 Q-9.8 29.95 -11.1 29.65 -13.25 29.1 -11.1 28.25 L-10.45 28.1 Q-7.75 28.25 -9.15 29.35" fill="#db9d42" fill-rule="evenodd" stroke="none"/>
    <path d="M-3.25 30.4 Q-2.85 31.05 -3.45 31.05 -4.5 31.1 -4.75 30.0 L-4.7 29.85 Q-4.0 29.3 -3.25 30.4" fill="#db9d42" fill-rule="evenodd" stroke="none"/>
    <path d="M-0.35 33.4 Q-0.6 34.0 -1.05 33.5 -1.65 32.95 -0.95 32.65 0.0 32.65 -0.35 33.4" fill="#db9d42" fill-rule="evenodd" stroke="none"/>
    <path d="M-23.3 17.45 L-8.0 18.6 -20.05 48.85 -33.7 43.4 -34.25 42.7 -23.3 17.45" fill="#80431d" fill-rule="evenodd" stroke="none"/>
    <path d="M-8.25 29.25 L-8.25 29.15 -8.2 29.1 -8.15 29.05 -8.0 29.05 -7.75 28.95 -7.6 28.95 -7.45 28.95 -7.4 29.05 -7.35 29.1 -7.25 29.45 Q-7.35 29.85 -7.75 29.9 L-8.25 29.65 -8.25 29.35 -8.25 29.25" fill="#db9d42" fill-rule="evenodd" stroke="none"/>
    <path d="M14.1 12.1 Q14.05 13.2 13.1 12.75 12.45 12.5 12.6 11.65 L12.9 10.75 Q14.2 10.45 14.1 12.1" fill="#db9d42" fill-rule="evenodd" stroke="none"/>
    <path d="M8.2 35.35 Q7.8 34.65 8.65 34.65 L8.95 34.65 Q9.85 35.05 9.0 35.55 8.4 35.9 8.2 35.35" fill="#db9d42" fill-rule="evenodd" stroke="none"/>
    <path d="M-32.55 29.05 Q-34.4 30.15 -35.45 28.9 -36.65 27.7 -34.0 27.35 -30.3 27.8 -32.55 29.05" fill="#db9d42" fill-rule="evenodd" stroke="none"/>
    <path d="M-34.55 26.8 Q-35.0 27.25 -35.15 26.6 -35.2 26.2 -34.75 26.15 -34.1 26.35 -34.55 26.8" fill="#db9d42" fill-rule="evenodd" stroke="none"/>
    <path d="M-36.3 27.5 Q-36.9 28.2 -37.15 27.4 -37.35 26.95 -36.95 26.6 L-36.5 26.4 Q-35.6 26.75 -36.3 27.5" fill="#db9d42" fill-rule="evenodd" stroke="none"/>
    <path d="M-29.4 11.85 Q-29.95 12.75 -30.65 12.05 -31.2 11.6 -30.75 11.0 -30.55 10.7 -30.25 10.7 -28.75 10.65 -29.4 11.85" fill="#db9d42" fill-rule="evenodd" stroke="none"/>
    <path d="M-31.85 12.75 Q-32.25 13.45 -32.85 12.85 -33.7 11.95 -32.6 11.3 L-32.45 11.2 Q-31.15 11.5 -31.85 12.75" fill="#db9d42" fill-rule="evenodd" stroke="none"/>
    <path d="M-31.95 8.05 L-31.45 8.65 Q-30.1 11.35 -31.65 10.75 -32.7 10.35 -33.05 8.65 -33.25 7.05 -31.95 8.05" fill="#db9d42" fill-rule="evenodd" stroke="none"/>
    <path d="M-41.9 -4.55 Q-42.7 -3.45 -43.35 -4.55 L-43.4 -5.25 Q-43.15 -6.05 -42.35 -6.35 -40.75 -6.0 -41.9 -4.55" fill="#db9d42" fill-rule="evenodd" stroke="none"/>
    <path d="M17.4 36.1 L16.65 36.05 Q16.45 35.3 17.15 35.1 18.0 35.35 17.4 36.1" fill="#db9d42" fill-rule="evenodd" stroke="none"/>
    <path d="M19.65 30.25 Q19.4 30.7 18.85 30.4 18.0 29.9 18.9 29.45 L19.05 29.35 Q20.1 29.35 19.65 30.25" fill="#db9d42" fill-rule="evenodd" stroke="none"/>
    <path d="M-36.45 28.95 Q-36.75 29.7 -37.25 28.95 -37.65 28.4 -36.95 28.1 -36.0 28.2 -36.45 28.95" fill="#db9d42" fill-rule="evenodd" stroke="none"/>
    <path d="M-39.75 -8.6 Q-40.4 -7.6 -40.8 -8.7 L-40.8 -9.4 -40.15 -9.95 Q-39.0 -9.65 -39.75 -8.6" fill="#db9d42" fill-rule="evenodd" stroke="none"/>
    <path d="M-38.9 -5.15 Q-39.2 -4.45 -39.75 -5.05 -40.5 -5.9 -39.5 -6.35 -38.5 -6.15 -38.9 -5.15" fill="#db9d42" fill-rule="evenodd" stroke="none"/>
    <path d="M-16.6 -46.2 L-16.95 -45.95 Q-18.45 -45.35 -18.05 -46.6 -17.85 -47.15 -17.35 -47.2 -15.8 -47.25 -16.6 -46.2" fill="#db9d42" fill-rule="evenodd" stroke="none"/>
    <path d="M34.15 -17.85 Q32.7 -16.75 33.15 -18.4 33.55 -20.05 34.6 -19.85 35.75 -19.05 34.15 -17.85" fill="#db9d42" fill-rule="evenodd" stroke="none"/>
    <path d="M36.2 -17.65 Q35.7 -17.05 35.5 -17.8 35.35 -18.3 35.9 -18.4 36.75 -18.25 36.2 -17.65" fill="#db9d42" fill-rule="evenodd" stroke="none"/>
    <path d="M20.8 18.95 Q21.05 21.15 22.05 23.05 23.05 24.95 22.7 26.55 22.25 28.15 21.9 28.35 21.4 28.7 20.75 28.85 17.1 29.35 15.05 28.8 12.95 28.15 12.15 26.95 11.35 25.75 12.45 23.65 13.55 21.55 14.05 19.35 14.55 17.2 16.8 16.75 L18.5 16.45 Q20.6 16.6 20.8 18.95" fill="#9c9c9c" fill-rule="evenodd" stroke="none"/>
    <path d="M18.4 23.25 Q16.2 22.55 14.85 20.9 14.2 19.95 14.85 18.85 15.8 17.35 17.75 17.25 20.7 16.95 20.65 19.35 20.5 21.7 19.85 22.45 19.55 22.85 19.35 24.3 L18.4 23.25" fill="#776969" fill-rule="evenodd" stroke="none"/>
    <path d="M20.45 19.05 Q20.3 21.1 19.15 22.5 L18.35 22.6 Q16.15 21.9 14.8 20.25 14.15 19.3 14.8 18.2 15.75 16.7 17.7 16.6 20.65 16.3 20.45 19.05" fill="#c6c6c6" fill-rule="evenodd" stroke="none"/>
    <path d="M22.5 25.35 L21.85 23.2 21.05 20.6 21.6 22.35 21.85 22.7 22.0 23.15 Q23.05 24.5 22.7 26.7 22.25 28.8 17.9 28.9 13.55 29.05 12.55 27.5 11.5 25.9 12.1 24.65 L12.25 24.2 Q12.1 25.8 14.55 27.5 16.15 28.5 21.3 28.05 22.85 26.95 22.5 25.35" fill="#747272" fill-rule="evenodd" stroke="none"/>
    <path d="M0.5 26.4 L-4.5 31.9 Q-5.0 32.3 -4.35 32.85 L-2.2 33.1 Q-1.2 33.0 -0.3 32.5 L-0.85 31.95 2.05 30.15 1.75 30.65 2.1 30.2 Q1.65 31.35 0.65 32.3 -0.95 33.95 -2.8 34.3 -4.7 34.6 -6.6 32.85 -8.35 31.25 -8.15 29.15 -7.95 27.0 -6.45 25.85 L-3.9 24.2 -4.1 24.4 -5.85 27.25 -6.3 26.8 -6.9 28.7 Q-7.05 29.75 -6.65 30.65 -6.3 31.05 -5.85 30.65 L0.2 25.5 0.15 24.95 1.35 26.15 0.35 26.25 0.5 26.4" fill="#000000" fill-rule="evenodd" stroke="none"/>
    <path d="M-8.45 17.85 L-20.4 48.05 -34.1 42.6 -23.7 16.65 -8.45 17.85" fill="#aa6235" fill-rule="evenodd" stroke="none"/>
    <path d="M-0.85 19.0 Q-0.55 19.55 -1.55 20.4 -2.55 21.3 -6.05 22.0 -8.8 22.4 -9.75 21.15 -10.9 21.55 -12.45 20.65 -14.0 19.8 -13.5 17.85 L-15.8 16.9 -10.75 15.55 Q-9.55 14.75 -7.1 14.75 -4.7 14.75 -2.9 15.5 -1.15 16.3 -1.15 17.35 L-0.85 19.0" fill="#fad14c" fill-rule="evenodd" stroke="none"/>
    <path d="M-24.95 19.7 Q-18.15 22.55 -11.05 24.75 L-11.2 25.2 -25.1 20.15 -24.95 19.7" fill="#743d1a" fill-rule="evenodd" stroke="none"/>
    <path d="M-26.75 24.05 Q-19.95 26.9 -12.85 29.1 L-13.0 29.55 -26.9 24.5 -26.75 24.05" fill="#56270a" fill-rule="evenodd" stroke="none"/>
    <path d="M-14.85 34.7 L-28.75 29.65 -28.6 29.2 -14.7 34.25 -14.85 34.7" fill="#56270a" fill-rule="evenodd" stroke="none"/>
    <path d="M2.35 25.2 Q1.6 26.5 0.1 27.4 L-1.0 26.8 -1.55 25.65 0.6 23.5 Q1.35 23.6 1.8 24.05 2.3 24.55 2.35 25.2" fill="#382214" fill-rule="evenodd" stroke="none"/>
    <path d="M-0.35 26.75 L-5.35 32.25 Q-5.85 32.65 -5.2 33.2 L-3.05 33.45 Q-2.05 33.35 -1.15 32.85 L-1.7 32.3 1.2 30.5 0.9 31.0 1.25 30.55 Q0.8 31.7 -0.2 32.65 -1.8 34.3 -3.65 34.65 -5.55 34.95 -7.45 33.2 -9.2 31.6 -9.0 29.5 -8.8 27.35 -7.3 26.2 L-4.75 24.55 -4.95 24.75 -6.7 27.6 -7.15 27.15 Q-7.6 27.95 -7.75 29.05 -7.9 30.1 -7.5 31.0 -7.15 31.4 -6.7 31.0 L-0.65 25.85 -0.7 25.3 0.5 26.5 -0.5 26.6 -0.35 26.75" fill="#382214" fill-rule="evenodd" stroke="none"/>
    <path d="M0.0 29.0 L-3.25 25.75 Q-3.5 25.2 -3.25 24.95 L-2.4 25.0 0.75 28.15 Q1.05 28.85 0.85 29.05 L0.0 29.0" fill="#382214" fill-rule="evenodd" stroke="none"/>
    <path d="M-30.7 34.35 Q-23.05 36.5 -16.85 39.8 L-30.85 34.8 -30.7 34.35" fill="#56270a" fill-rule="evenodd" stroke="none"/>
    <path d="M-19.85 18.9 L-17.85 19.25 Q-15.7 19.55 -14.1 21.05 L-12.95 21.35 Q-11.45 21.3 -10.4 22.3 L-10.4 22.5 -10.35 22.55 -10.35 22.6 Q-11.95 21.85 -13.9 21.55 -14.7 21.4 -15.3 20.85 -17.25 19.05 -20.0 19.35 L-21.2 19.25 Q-22.5 18.9 -23.2 18.0 L-23.1 18.0 Q-21.6 18.75 -19.85 18.9" fill="#91532d" fill-rule="evenodd" stroke="none"/>
    <path d="M-16.9 21.3 Q-14.7 21.75 -13.1 23.3 -12.85 23.55 -12.4 23.6 -11.1 23.75 -10.25 24.6 L-10.25 24.65 -10.4 24.8 -10.5 24.85 Q-12.25 24.25 -13.85 23.3 L-14.8 22.75 Q-15.9 21.9 -17.35 21.55 L-20.4 20.6 Q-21.25 20.3 -21.1 20.05 L-16.9 21.3" fill="#91532d" fill-rule="evenodd" stroke="none"/>
    <path d="M-5.7 32.35 L-5.25 33.1 -4.8 33.4 Q-5.75 33.6 -6.0 32.4 -6.15 32.0 -5.8 31.65 L-3.95 29.65 -2.8 28.75 -3.8 30.05 -4.85 31.3 -5.7 32.35 M-4.55 33.35 L-4.75 33.4 -4.7 33.4 -4.55 33.35" fill="#9f8473" fill-rule="evenodd" stroke="none"/>
    <path d="M-1.05 27.65 L-2.35 26.5 -3.25 25.35 -0.55 27.85 -0.25 28.35 -1.05 27.65" fill="#9f8473" fill-rule="evenodd" stroke="none"/>
    <path d="M-20.5 25.25 Q-21.1 24.9 -21.9 24.7 L-24.9 23.7 -24.9 23.65 -24.8 23.65 -24.55 23.55 Q-22.2 24.0 -19.95 25.0 L-17.05 25.95 -14.6 26.5 -12.95 26.9 Q-12.55 27.05 -12.2 27.4 L-11.95 27.65 -13.05 27.2 Q-14.35 26.65 -16.25 26.55 -18.2 26.5 -20.5 25.25" fill="#7e411c" fill-rule="evenodd" stroke="none"/>
    <path d="M-19.9 29.8 Q-18.0 30.3 -16.15 31.25 L-15.15 31.55 Q-14.1 31.75 -13.7 32.4 -14.45 32.6 -15.35 32.05 L-16.1 31.6 Q-17.85 30.75 -19.75 30.25 L-23.85 28.8 -19.9 29.8" fill="#56270a" fill-rule="evenodd" stroke="none"/>
    <path d="M-22.8 27.6 L-18.85 28.9 Q-17.3 29.4 -16.05 30.25 L-20.15 28.85 -24.25 27.4 Q-25.8 26.9 -26.8 26.05 L-26.75 26.05 -22.8 27.6" fill="#7e411c" fill-rule="evenodd" stroke="none"/>
    <path d="M-22.75 34.5 L-18.65 35.8 Q-17.0 36.3 -15.65 37.1 -17.75 36.75 -19.85 36.0 L-23.95 34.65 Q-25.65 34.15 -26.95 33.25 L-26.9 33.25 Q-24.8 33.8 -22.75 34.5" fill="#7e411c" fill-rule="evenodd" stroke="none"/>
    <path d="M-29.45 30.85 L-29.2 30.85 -29.15 30.8 Q-27.4 31.4 -25.65 32.15 L-22.05 33.35 Q-20.75 33.75 -19.55 34.3 L-22.95 33.65 -26.65 32.4 -29.35 31.15 -29.45 31.0 -29.45 30.85" fill="#91532d" fill-rule="evenodd" stroke="none"/>
    <path d="M-19.3 45.0 Q-26.9 42.65 -33.2 39.95 L-33.05 39.5 -19.15 44.55 -19.3 45.0" fill="#56270a" fill-rule="evenodd" stroke="none"/>
    <path d="M-28.0 37.1 Q-25.8 37.25 -23.85 38.15 L-20.6 39.8 Q-22.2 39.9 -23.85 38.9 -26.3 37.55 -29.0 37.5 -30.7 37.5 -31.7 36.4 L-31.6 36.35 -28.0 37.1" fill="#7e411c" fill-rule="evenodd" stroke="none"/>
    <path d="M-19.7 24.15 Q-20.3 23.8 -21.1 23.6 L-24.1 22.6 -24.1 22.55 -24.0 22.55 -23.75 22.45 Q-21.4 22.9 -19.15 23.9 L-16.25 24.85 -13.8 25.4 -12.15 25.8 -11.4 26.3 -11.15 26.55 -12.25 26.1 Q-13.55 25.55 -15.45 25.45 -17.4 25.4 -19.7 24.15" fill="#7e411c" fill-rule="evenodd" stroke="none"/>
    <path d="M-27.2 39.15 Q-26.9 38.65 -26.25 38.85 L-23.85 39.5 Q-22.7 40.0 -21.85 40.75 -21.05 41.5 -21.45 42.35 L-24.55 41.6 Q-26.25 41.0 -27.2 39.6 L-27.2 39.15 M-26.95 39.35 L-26.95 39.5 -27.0 39.65 -26.95 39.65 -24.9 41.0 -22.8 41.75 -21.6 41.95 Q-21.7 41.55 -22.0 41.3 L-22.3 40.95 -22.7 40.6 -22.75 40.5 -24.75 39.65 -26.8 39.25 -26.95 39.35" fill="#7e411c" fill-rule="evenodd" stroke="none"/>
    <path d="M-32.85 42.55 Q-30.45 42.45 -28.15 43.1 -26.45 43.7 -25.15 45.0 L-24.45 45.35 Q-21.85 45.95 -19.75 46.75 L-19.75 46.85 -19.8 46.85 -19.8 46.95 -19.9 47.0 -23.2 46.2 -24.65 45.6 -26.8 44.2 Q-27.25 43.75 -27.8 43.55 -29.95 42.6 -32.35 42.85 L-32.65 42.85 Q-33.15 42.7 -32.85 42.55" fill="#7e411c" fill-rule="evenodd" stroke="none"/>
    <path d="M-8.0 18.0 Q-9.85 19.1 -10.9 17.85 -12.1 16.65 -9.45 16.3 -5.75 16.75 -8.0 18.0" fill="#db9d42" fill-rule="evenodd" stroke="none"/>
    <path d="M-5.3 27.1 L-5.25 27.15 -5.2 27.25 -5.2 27.4 -5.3 27.65 -5.45 28.0 Q-4.0 28.05 -4.7 29.05 L-5.65 30.9 Q-6.0 32.35 -7.2 31.35 -7.55 31.0 -7.5 30.4 -7.2 28.25 -5.4 27.1 L-5.3 27.1" fill="#fad14c" fill-rule="evenodd" stroke="none"/>
    <path d="M5.2 23.0 Q6.25 23.65 5.2 24.7 L3.9 26.45 Q3.45 27.25 2.65 27.4 L2.55 27.45 2.45 27.7 2.0 27.9 1.95 28.05 1.7 28.45 Q1.45 28.65 1.2 28.45 L1.15 26.3 Q0.9 25.0 1.8 24.2 2.9 23.15 4.45 23.55 L4.6 23.45 4.85 23.15 Q4.95 23.0 5.2 23.0" fill="#fad14c" fill-rule="evenodd" stroke="none"/>
    <path d="M-1.5 29.65 L-2.1 29.9 -2.1 30.05 -2.2 30.25 -2.3 30.35 -2.35 30.35 -2.55 30.4 -2.55 30.5 -2.6 30.55 -2.6 30.6 -2.7 30.65 -3.2 30.6 -3.35 30.15 -3.5 29.5 -3.5 28.8 Q-3.45 28.4 -3.05 28.35 L-1.75 28.5 Q-1.3 28.55 -1.05 28.9 -0.65 29.55 -1.5 29.65" fill="#fad14c" fill-rule="evenodd" stroke="none"/>
    <path d="M-45.0 -17.9 Q-45.15 -14.95 -46.6 -12.5 -47.65 -10.75 -48.2 -8.9 -48.7 -11.6 -46.9 -14.35 -46.2 -15.5 -46.1 -16.9 -45.85 -19.5 -46.4 -21.95 -46.6 -22.9 -46.4 -23.25 -44.9 -20.9 -45.0 -17.9" fill="#043658" fill-opacity="0.2901961" fill-rule="evenodd" stroke="none"/>
    <path d="M-44.05 14.6 Q-44.0 16.3 -45.0 17.6 L-46.85 19.25 -45.4 16.6 Q-44.7 15.25 -45.25 13.75 L-45.65 11.75 Q-44.2 12.8 -44.05 14.6" fill="#043658" fill-opacity="0.2901961" fill-rule="evenodd" stroke="none"/>
    <path d="M47.8 12.1 Q48.8 14.45 48.3 17.05 L47.6 20.6 Q46.1 18.65 47.15 16.3 47.65 15.1 47.4 13.9 46.9 11.15 45.2 8.9 44.7 8.2 45.1 7.9 46.8 9.85 47.8 12.1" fill="#043658" fill-opacity="0.21960784" fill-rule="evenodd" stroke="none"/>
    <path d="M24.65 45.15 Q22.6 48.45 18.45 47.1 14.2 45.75 9.85 45.65 L15.15 45.35 19.85 46.15 Q22.85 46.5 24.15 43.95 L26.15 39.45 Q26.75 37.95 27.9 37.05 27.05 41.35 24.65 45.15" fill="#043658" fill-opacity="0.21960784" fill-rule="evenodd" stroke="none"/>
    <path d="M13.95 -4.5 L40.15 2.6 39.55 7.95 38.85 9.85 Q29.15 11.8 12.3 6.4 12.45 -3.9 13.95 -4.5" fill="#542e0a" fill-opacity="0.36862746" fill-rule="evenodd" stroke="none"/>
    <path d="M36.25 9.05 L13.2 1.3 13.55 0.0 37.3 8.45 36.25 9.05" fill="#7b654b" fill-rule="evenodd" stroke="none"/>
    <path d="M43.95 -7.05 L41.2 7.35 36.9 9.2 13.15 1.5 11.8 -3.6 15.2 -14.75 43.95 -7.05" fill="#cbb49a" fill-rule="evenodd" stroke="none"/>
    <path d="M37.65 -8.25 Q36.95 -7.7 36.75 -8.45 36.6 -8.95 37.1 -9.2 L37.45 -9.2 Q38.4 -8.9 37.65 -8.25" fill="#db9d42" fill-rule="evenodd" stroke="none"/>
    <path d="M27.25 5.5 Q26.6 4.05 28.5 4.05 29.95 4.95 28.75 5.9 27.65 6.65 27.25 5.5" fill="#db9d42" fill-rule="evenodd" stroke="none"/>
    <path d="M33.0 -8.0 Q30.95 -7.15 30.85 -9.1 30.6 -10.4 32.1 -10.9 L33.95 -11.15 Q36.0 -9.35 33.0 -8.0" fill="#db9d42" fill-rule="evenodd" stroke="none"/>
    <path d="M27.9 3.05 L32.6 4.8 31.9 5.7 28.15 4.7 27.9 3.05" fill="#210d0c" fill-rule="evenodd" stroke="none"/>
    <path d="M31.9 5.7 L31.45 6.3 27.0 4.85 26.85 2.65 27.9 3.05 28.15 4.7 31.9 5.7" fill="#70413e" fill-rule="evenodd" stroke="none"/>
    <path d="M15.35 -1.45 L20.05 0.4 19.3 1.45 15.55 0.45 15.35 -1.45" fill="#210d0c" fill-rule="evenodd" stroke="none"/>
    <path d="M15.35 -1.45 L15.55 0.45 19.3 1.45 18.85 2.2 14.4 0.7 14.35 -1.85 Q14.9 -1.6 15.35 -1.45" fill="#70413e" fill-rule="evenodd" stroke="none"/>
    <path d="M17.8 -23.75 L45.5 -8.0 40.9 9.3 40.05 9.7 Q25.5 3.15 10.4 -2.25 L17.15 -23.45 17.8 -23.75" fill="#62170e" fill-rule="evenodd" stroke="none"/>
    <path d="M46.6 -8.25 L41.8 9.7 Q27.3 3.05 12.5 -2.45 L18.5 -23.25 Q33.65 -17.55 46.6 -8.25" fill="url(#gradient0)" fill-rule="evenodd" stroke="none"/>
    <path d="M14.05 -10.0 L14.1 -10.25 13.95 -8.1 Q13.8 -5.9 14.65 -5.35 15.45 -4.85 15.85 -6.1 16.3 -4.25 16.85 -3.2 L17.2 -2.95 Q17.85 -2.55 18.65 -2.6 18.8 -1.8 20.15 -0.65 L14.85 -2.6 11.7 -3.85 14.0 -9.95 14.05 -10.0" fill="#b46e27" fill-rule="evenodd" stroke="none"/>
    <path d="M32.35 -2.1 L30.2 3.8 29.9 3.85 Q28.85 3.6 29.5 2.5 L29.9 1.6 Q31.2 -2.3 33.05 -5.9 L33.25 -6.0 Q33.05 -4.1 32.35 -2.1" fill="#62170e" fill-rule="evenodd" stroke="none"/>
    <path d="M31.55 0.75 L31.8 2.4 31.8 2.9 31.9 3.0 31.8 3.2 Q31.6 3.3 32.3 4.1 32.9 4.85 33.2 3.4 33.45 1.9 33.65 1.8 L33.75 3.55 33.7 3.7 33.7 3.9 34.0 4.3 35.2 5.7 30.05 3.5 33.3 -5.7 Q33.75 -4.35 32.55 -2.4 31.3 -0.45 31.55 0.75" fill="#b46e27" fill-rule="evenodd" stroke="none"/>
    <path d="M42.0 -11.95 L42.1 -11.9 42.2 -12.0 42.3 -12.0 Q43.75 -11.35 47.0 -8.85 L45.9 -4.45 45.25 -2.4 Q45.0 -2.65 45.15 -3.2 L45.4 -4.3 45.75 -6.0 Q45.85 -7.2 45.05 -7.2 44.3 -7.35 42.75 -6.2 45.5 -8.45 43.15 -8.65 43.45 -8.8 43.55 -8.9 44.0 -10.1 43.05 -10.6 L42.35 -11.15 Q41.95 -11.35 41.75 -11.9 L41.75 -11.95 41.95 -11.95 42.0 -11.95" fill="#b46e27" fill-rule="evenodd" stroke="none"/>
    <path d="M18.1 -24.7 L26.15 -20.95 23.25 -22.0 Q23.1 -21.6 24.85 -20.0 L22.0 -21.5 21.8 -21.5 22.05 -21.1 22.15 -20.9 22.2 -20.9 22.35 -20.75 21.65 -21.0 Q20.4 -20.9 20.8 -19.7 L20.9 -19.5 20.75 -19.5 20.2 -19.9 19.85 -19.95 19.6 -20.0 19.5 -20.05 19.45 -20.15 19.4 -20.25 19.3 -20.45 19.2 -20.75 18.9 -20.85 18.85 -20.8 17.8 -19.35 16.0 -16.95 Q15.2 -15.65 15.8 -16.95 L16.55 -18.55 17.25 -21.1 17.75 -23.55 17.6 -23.8 18.1 -24.7 M23.3 -20.15 L23.15 -20.2 23.45 -20.15 23.3 -20.15" fill="#b46e27" fill-rule="evenodd" stroke="none"/>
  </g>
  <defs>
    <linearGradient gradientTransform="matrix(0.0177, 0.0081, -0.0034, 0.0128, 33.3, -5.1)" gradientUnits="userSpaceOnUse" id="gradient0" spreadMethod="pad" x1="-819.2" x2="819.2">
      <stop offset="0.011764705882352941" stop-color="#a83125"/>
      <stop offset="1.0" stop-color="#61170e"/>
    </linearGradient>
  </defs>
</svg>
