<?xml version="1.0" encoding="UTF-8" standalone="no"?>
<svg xmlns:ffdec="https://www.free-decompiler.com/flash" xmlns:xlink="http://www.w3.org/1999/xlink" ffdec:objectType="shape" height="32.5px" width="33.6px" xmlns="http://www.w3.org/2000/svg">
  <g transform="matrix(1.0, 0.0, 0.0, 1.0, 14.4, 51.65)">
    <path d="M4.35 -44.6 L4.4 -44.45 5.4 -45.35 Q4.85 -44.75 4.35 -44.6 M3.75 -44.75 L3.95 -45.0 2.75 -44.8 3.75 -44.75 M3.15 -43.9 L3.2 -43.9 3.05 -43.9 3.15 -43.9 M-1.05 -41.95 L-0.5 -42.2 -0.3 -42.55 -1.05 -41.95 M-2.65 -42.5 Q-2.05 -42.75 -1.55 -43.1 L-0.95 -43.8 -2.05 -43.05 -2.65 -42.5 M1.85 -41.25 L1.95 -41.25 2.05 -41.2 2.35 -41.5 1.85 -41.25 M5.5 -38.2 L5.35 -38.0 6.0 -38.0 5.5 -38.2 M4.75 -39.25 L4.85 -39.2 4.95 -39.3 4.8 -39.35 4.75 -39.25 M4.65 -42.95 L4.3 -43.0 3.45 -42.85 3.9 -42.8 4.65 -42.95 M8.45 -40.5 Q7.85 -40.7 7.3 -41.05 L7.15 -40.65 8.45 -40.5 M7.15 -41.35 L7.65 -41.7 Q6.9 -42.0 6.2 -42.4 L7.15 -41.35 M5.95 -40.25 L6.2 -40.5 5.45 -40.9 5.95 -40.25 M6.4 -39.6 L6.25 -39.3 7.2 -39.25 6.4 -39.6 M8.3 -38.25 L8.5 -37.25 9.7 -36.25 8.9 -37.4 8.3 -38.25 M6.6 -35.2 L6.2 -34.9 6.5 -33.9 6.6 -35.2 M7.15 -36.9 L7.0 -37.15 7.0 -36.8 7.15 -36.9 M10.2 -35.1 L10.15 -34.9 10.2 -34.95 10.2 -35.1 M11.6 -34.45 L11.3 -35.45 11.3 -34.1 11.25 -34.1 11.45 -33.1 11.6 -34.45 M-5.45 -32.35 L-5.2 -32.05 -5.25 -32.35 -5.45 -32.35 M-3.95 -31.2 L-4.45 -31.35 -4.05 -31.1 -3.95 -31.2 M-3.1 -30.85 L-2.8 -30.5 -2.9 -30.95 -3.1 -30.85 M-1.1 -28.45 L-2.4 -28.5 -1.1 -28.0 -1.1 -28.45 M-3.3 -35.9 L-3.6 -35.1 -3.3 -35.45 -3.3 -35.9 M-5.35 -33.85 L-5.25 -33.15 -5.0 -33.25 -5.35 -33.85 M-0.5 -38.3 L-0.2 -38.6 -0.2 -38.7 -0.35 -38.55 -0.5 -38.3 M-1.95 -36.55 Q-1.9 -36.35 -2.0 -36.1 L-1.75 -36.0 -1.95 -36.55 M-1.05 -29.55 L-1.0 -29.65 -1.5 -29.7 -1.05 -29.55 M2.7 -30.9 L1.6 -30.3 2.9 -30.6 2.7 -30.9 M0.05 -28.5 L-0.25 -28.75 -0.4 -28.55 0.05 -28.5 M6.9 -31.3 L6.85 -31.3 6.35 -30.25 7.6 -31.5 7.9 -32.05 6.9 -31.3 M11.6 -22.6 L11.55 -22.55 9.65 -23.45 Q8.95 -23.75 8.75 -23.9 L8.55 -23.95 8.5 -24.0 7.8 -24.5 7.5 -24.7 Q6.7 -25.4 6.4 -25.65 L6.45 -25.65 5.8 -26.3 5.85 -26.3 4.7 -27.6 4.75 -27.65 3.9 -28.8 5.2 -29.45 3.75 -29.15 3.65 -29.25 Q3.6 -28.5 3.7 -28.25 L3.65 -28.25 3.8 -26.8 3.85 -26.6 4.1 -24.95 4.05 -25.0 4.3 -23.4 4.5 -22.2 4.5 -22.0 4.55 -21.95 4.55 -21.9 Q4.6 -20.2 4.2 -19.15 L4.25 -19.15 1.95 -21.0 2.65 -21.65 2.75 -21.65 2.65 -21.65 1.65 -21.3 0.85 -22.2 1.7 -22.95 0.65 -22.5 0.05 -23.6 1.0 -24.15 -0.15 -24.1 -0.6 -25.25 0.6 -25.45 -0.75 -25.7 -1.0 -26.75 0.25 -26.85 Q-0.35 -27.3 -1.05 -27.35 L-1.1 -27.65 -1.6 -27.15 -3.25 -27.5 -1.9 -26.9 -2.6 -26.1 -3.95 -26.6 -2.95 -25.8 -3.75 -25.15 -4.9 -25.75 -4.05 -24.85 -4.75 -24.35 -6.0 -24.85 -5.2 -24.1 Q-6.15 -23.5 -7.6 -23.4 L-7.7 -23.35 Q-7.35 -24.25 -7.15 -25.45 L-6.2 -25.05 -6.15 -25.1 -6.15 -25.15 -7.05 -25.75 -6.8 -26.65 -5.65 -26.25 -6.65 -27.0 -6.25 -27.85 -5.1 -27.3 -6.05 -28.3 -5.5 -29.2 -4.45 -28.3 -5.25 -29.5 -4.75 -30.3 -3.65 -29.3 -4.25 -30.45 Q-4.35 -30.35 -4.5 -30.35 -4.85 -30.6 -5.55 -30.85 L-4.95 -30.15 -5.9 -29.85 -6.8 -30.4 -6.25 -29.7 -7.25 -29.45 -8.05 -30.0 -7.65 -29.4 -9.85 -29.0 Q-9.55 -29.85 -8.85 -30.55 L-8.15 -30.15 -8.7 -30.75 -8.05 -31.3 -7.25 -30.9 -7.85 -31.5 -7.1 -32.05 -6.25 -31.55 -6.7 -32.3 -6.25 -32.6 -6.95 -33.95 Q-6.75 -33.2 -6.8 -32.45 L-7.85 -32.65 -9.35 -32.9 -9.35 -32.95 -10.55 -33.2 -10.75 -33.25 -10.8 -33.25 -11.6 -33.5 -12.1 -33.7 Q-13.65 -34.45 -14.35 -35.4 L-14.4 -35.45 -12.15 -36.0 Q-12.0 -36.05 -12.2 -36.0 L-11.4 -36.2 -10.45 -36.45 -8.3 -36.8 -8.4 -36.7 -7.8 -36.75 Q-7.85 -36.05 -8.15 -35.45 -7.65 -36.0 -7.4 -36.7 L-6.75 -36.7 -6.9 -38.05 -7.2 -36.7 -8.35 -37.25 Q-8.15 -37.8 -8.25 -38.55 L-8.9 -37.45 -9.85 -38.0 -9.55 -39.2 -10.3 -38.2 -11.2 -38.8 -10.9 -39.95 -11.6 -39.05 Q-12.65 -39.8 -13.25 -41.05 L-13.25 -41.15 -10.65 -41.1 Q-10.65 -40.7 -10.8 -40.2 L-10.75 -40.2 -10.75 -40.25 -10.25 -41.15 -9.05 -41.1 -9.15 -40.0 -8.65 -41.1 -7.4 -40.95 Q-7.5 -40.3 -7.75 -39.7 L-6.85 -40.8 -5.65 -40.5 Q-5.85 -39.9 -6.35 -39.35 -5.65 -39.8 -5.2 -40.4 L-4.05 -40.1 Q-3.75 -40.7 -3.6 -41.45 -3.9 -40.75 -4.4 -40.2 L-5.2 -40.9 Q-4.75 -41.45 -4.55 -42.2 L-5.5 -41.2 -6.15 -41.95 -5.35 -43.05 -6.35 -42.25 -6.9 -42.95 -6.2 -44.1 -7.1 -43.3 -7.95 -45.1 Q-6.75 -45.3 -5.5 -45.1 L-6.0 -44.2 -5.15 -45.05 -4.15 -44.8 -4.7 -43.7 -3.85 -44.65 -3.25 -44.4 -3.5 -44.9 -2.3 -45.75 -3.75 -45.15 -4.2 -45.9 -3.0 -46.9 -4.4 -46.2 Q-5.1 -47.2 -4.95 -49.05 L-4.95 -49.1 -1.8 -47.75 -2.55 -47.05 -2.6 -47.05 -2.55 -47.05 -1.45 -47.65 -0.6 -46.95 -1.25 -46.25 Q-0.5 -46.55 -0.25 -46.75 L-0.2 -46.7 0.95 -47.15 -0.2 -46.95 Q0.0 -47.75 0.85 -48.7 L0.85 -48.75 2.15 -47.55 1.3 -47.15 1.2 -47.15 1.3 -47.15 2.4 -47.35 2.95 -46.85 1.9 -46.35 3.15 -46.6 3.6 -46.05 2.4 -45.6 3.75 -45.75 4.05 -45.25 4.35 -45.55 6.05 -45.4 Q5.3 -45.65 4.7 -46.0 L5.4 -46.85 6.9 -46.5 5.75 -47.2 6.5 -47.95 7.95 -47.65 6.85 -48.25 8.9 -49.8 9.45 -47.35 8.2 -47.5 9.4 -47.0 9.3 -46.0 7.9 -46.15 Q8.5 -45.85 9.2 -45.65 L8.95 -44.6 7.45 -44.9 8.8 -44.1 8.35 -43.0 Q7.6 -43.3 6.9 -43.7 L8.2 -42.65 7.8 -41.85 7.95 -42.0 Q8.65 -41.65 8.75 -41.15 8.9 -41.85 8.3 -42.3 L9.35 -43.05 Q9.85 -42.7 10.65 -42.45 L9.75 -43.4 10.75 -44.05 11.85 -43.35 11.15 -44.3 12.1 -44.85 13.2 -44.15 12.55 -45.05 Q13.7 -45.6 15.3 -45.65 L15.4 -45.6 14.25 -43.5 Q13.8 -43.65 13.4 -43.9 L13.3 -43.95 13.35 -43.9 14.05 -43.15 13.6 -42.2 12.45 -42.7 13.35 -41.8 12.65 -40.9 11.6 -41.6 Q11.95 -40.9 12.4 -40.5 L11.55 -39.55 10.6 -40.55 11.25 -39.2 10.4 -38.45 9.55 -39.5 Q9.65 -38.6 10.05 -38.0 L9.7 -37.7 10.8 -36.8 Q10.35 -37.35 10.05 -38.0 L9.95 -38.1 10.7 -38.35 Q11.15 -37.8 11.95 -37.2 L11.2 -38.5 11.95 -38.7 Q12.35 -38.1 13.0 -37.65 12.55 -38.2 12.25 -38.85 L13.15 -39.05 13.95 -37.9 13.55 -39.15 14.35 -39.25 14.95 -38.1 14.7 -39.25 15.45 -39.3 16.1 -38.25 15.8 -39.3 Q16.8 -39.25 17.9 -38.55 L17.9 -38.5 16.65 -37.2 16.15 -37.9 16.05 -38.05 16.1 -37.95 16.45 -36.95 15.85 -36.4 15.25 -37.3 15.65 -36.25 15.0 -35.75 14.4 -36.8 Q14.45 -36.05 14.65 -35.55 L13.9 -35.1 13.5 -36.4 13.6 -35.0 12.85 -34.65 12.45 -35.95 12.4 -34.55 12.9 -34.5 Q12.85 -33.8 12.95 -33.0 L13.55 -34.45 14.7 -34.2 14.45 -32.8 15.15 -34.15 16.35 -33.95 16.3 -33.9 Q18.2 -33.5 19.15 -32.9 L19.2 -32.85 Q18.0 -32.15 16.05 -31.3 L15.8 -31.2 14.8 -30.9 13.35 -30.65 13.05 -30.6 10.1 -30.6 9.35 -30.65 9.7 -31.75 8.75 -30.8 8.2 -30.9 Q7.65 -30.25 7.3 -29.3 L8.55 -30.45 9.05 -29.8 8.2 -28.25 9.35 -29.4 9.9 -28.65 8.95 -27.3 10.1 -28.35 10.65 -27.5 9.6 -26.45 10.85 -27.2 11.2 -26.35 10.15 -25.4 11.35 -26.05 11.65 -25.25 10.7 -24.25 11.75 -24.9 Q12.0 -23.85 11.6 -22.6 M0.95 -45.25 L1.0 -45.3 0.95 -45.25 M1.0 -46.15 L0.3 -46.05 0.4 -45.95 1.0 -46.15 M-2.85 -43.8 L-2.75 -43.85 -2.5 -44.05 -2.4 -44.0 -1.65 -44.7 Q-2.3 -44.35 -2.95 -44.2 -3.2 -43.65 -3.6 -43.2 L-2.85 -43.7 -2.85 -43.8 M-3.75 -39.6 L-4.15 -39.95 -4.8 -38.85 -3.75 -39.6 M-2.55 -40.65 L-3.1 -39.8 -2.75 -39.6 -2.55 -40.65 M-1.7 -39.25 L-1.45 -39.15 -1.35 -39.8 -1.7 -39.25 M-3.05 -38.35 L-2.55 -38.65 -2.75 -38.8 -3.05 -38.35 M-4.75 -35.8 L-4.95 -35.85 -5.2 -35.3 -4.75 -35.8 M-3.7 -36.35 L-3.4 -36.35 -3.65 -37.05 -3.7 -36.35 M-5.5 -36.6 L-5.1 -36.55 -5.4 -37.6 -5.5 -36.6 M-6.75 -35.3 L-6.05 -36.25 -6.45 -36.4 -6.75 -35.3" fill="#7e512f" fill-opacity="0.32941177" fill-rule="evenodd" stroke="none"/>
    <path d="M2.8 -40.2 Q2.15 -38.55 0.75 -37.7 0.7 -37.4 -0.75 -38.1 L-1.9 -38.9 Q-1.6 -39.6 -1.5 -40.65 L-2.4 -39.2 -3.15 -39.75 Q-2.8 -40.45 -2.75 -41.45 L-3.55 -40.05 -4.3 -40.65 Q-4.0 -41.35 -3.95 -42.3 L-4.7 -40.95 -5.45 -41.6 -4.95 -43.1 Q-5.3 -42.4 -5.75 -41.9 L-6.55 -42.6 Q-6.15 -43.1 -5.9 -43.85 L-6.85 -42.95 -7.5 -43.6 -6.8 -44.7 -7.75 -43.95 -8.25 -44.65 -7.55 -45.7 -8.5 -44.95 -9.35 -46.8 -6.9 -46.75 -7.35 -45.8 -6.5 -46.65 -5.6 -46.4 -6.15 -45.4 -5.25 -46.3 -4.35 -45.9 Q-4.6 -45.3 -5.0 -44.85 L-3.95 -45.65 -3.0 -45.15 -4.05 -44.15 -2.65 -44.95 -1.85 -44.4 -2.95 -43.45 Q-2.05 -43.7 -1.45 -44.15 L-0.7 -43.55 Q-1.15 -43.05 -1.75 -42.6 -0.9 -42.85 -0.35 -43.2 L0.4 -42.55 -0.65 -41.65 Q0.15 -41.9 0.75 -42.3 L2.8 -40.2" fill="#81a600" fill-rule="evenodd" stroke="none"/>
    <path d="M3.7 -37.65 Q1.55 -37.75 0.15 -38.8 -0.25 -38.7 0.3 -40.35 L0.95 -41.75 3.25 -41.95 1.25 -42.3 1.75 -43.2 3.9 -43.4 2.05 -43.75 2.5 -44.65 4.7 -44.9 2.85 -45.2 3.4 -46.1 Q4.35 -46.0 5.4 -47.25 4.45 -46.2 3.7 -46.45 L4.4 -47.4 6.05 -47.3 Q5.35 -47.55 4.65 -47.9 L5.4 -48.75 6.9 -48.4 5.7 -49.1 6.5 -49.8 7.9 -49.5 6.85 -50.1 8.85 -51.6 Q9.35 -50.5 9.35 -49.2 L8.15 -49.3 9.35 -48.8 9.25 -47.85 7.9 -48.0 Q8.5 -47.65 9.2 -47.45 L8.9 -46.45 7.5 -46.75 Q8.1 -46.25 8.75 -45.95 L8.35 -44.9 Q7.65 -45.15 6.9 -45.55 L8.2 -44.55 7.7 -43.6 6.3 -44.3 Q6.8 -43.5 7.45 -43.05 L6.9 -42.15 Q6.2 -42.4 5.55 -42.85 6.05 -42.1 6.65 -41.65 L6.0 -40.75 Q5.35 -41.05 4.7 -41.45 5.15 -40.7 5.7 -40.3 L3.7 -37.65" fill="#81a600" fill-rule="evenodd" stroke="none"/>
    <path d="M12.7 -45.35 L13.4 -44.65 12.95 -43.7 Q12.4 -43.9 11.85 -44.2 L12.7 -43.35 12.05 -42.45 11.0 -43.15 Q11.35 -42.45 11.75 -42.05 L10.95 -41.1 10.0 -42.1 Q10.25 -41.4 10.65 -40.8 L9.85 -40.0 8.95 -41.05 Q9.1 -40.15 9.4 -39.55 L8.55 -38.8 7.75 -39.85 8.15 -38.45 7.3 -37.7 6.45 -38.75 6.85 -37.4 4.05 -35.4 Q3.15 -35.7 2.5 -36.2 7.45 -41.55 12.7 -45.35 M14.6 -47.1 L14.65 -47.15 13.55 -44.95 12.7 -45.4 Q13.4 -46.45 14.6 -47.1" fill="#aedc0a" fill-rule="evenodd" stroke="none"/>
    <path d="M12.7 -45.35 Q7.45 -41.55 2.5 -36.2 1.9 -36.7 1.6 -37.35 1.2 -37.35 2.35 -38.8 L3.5 -40.0 Q4.25 -39.65 5.5 -39.6 4.65 -39.95 3.95 -40.5 L4.7 -41.2 6.65 -40.8 5.2 -41.65 6.0 -42.4 Q6.75 -42.05 7.9 -42.05 7.1 -42.35 6.5 -42.8 L7.35 -43.55 8.2 -42.7 Q8.3 -43.4 7.7 -43.8 L8.7 -44.6 Q9.2 -44.25 10.0 -44.0 L9.15 -44.9 10.1 -45.55 11.2 -44.85 10.5 -45.8 11.45 -46.35 12.5 -45.65 11.85 -46.5 Q13.05 -47.1 14.6 -47.1 13.4 -46.45 12.7 -45.4 L12.6 -45.45 12.7 -45.35" fill="#81a600" fill-rule="evenodd" stroke="none"/>
    <path d="M15.5 -40.15 L15.9 -39.2 15.3 -38.65 14.65 -39.55 15.05 -38.45 14.4 -37.95 13.8 -39.0 14.1 -37.8 13.35 -37.35 12.95 -38.6 13.05 -37.2 12.35 -36.9 11.95 -38.2 11.95 -36.75 11.2 -36.5 10.8 -37.75 10.8 -36.4 10.0 -36.2 9.65 -37.4 9.65 -36.1 7.2 -35.65 6.3 -37.05 Q11.0 -39.3 15.5 -40.15 M17.25 -40.75 L17.3 -40.7 16.05 -39.4 15.55 -40.15 Q16.3 -40.7 17.25 -40.75" fill="#aedc0a" fill-rule="evenodd" stroke="none"/>
    <path d="M15.5 -40.15 Q11.0 -39.3 6.3 -37.05 L5.95 -38.4 Q5.7 -38.6 6.85 -39.25 L7.85 -39.75 9.15 -38.55 8.3 -39.95 8.95 -40.25 10.25 -39.05 Q9.75 -39.7 9.4 -40.4 L10.15 -40.65 11.45 -39.5 10.6 -40.75 11.4 -41.0 12.4 -39.85 11.7 -41.1 12.55 -41.25 13.3 -40.15 12.95 -41.35 13.75 -41.45 14.4 -40.35 14.1 -41.5 14.85 -41.45 15.5 -40.45 15.15 -41.45 Q16.15 -41.45 17.25 -40.75 16.3 -40.7 15.55 -40.15 L15.5 -40.2 15.5 -40.15" fill="#81a600" fill-rule="evenodd" stroke="none"/>
    <path d="M15.7 -33.95 L15.8 -33.0 14.6 -32.65 14.1 -33.6 Q14.05 -33.0 14.15 -32.5 L12.9 -32.4 12.6 -33.35 12.3 -32.3 10.9 -32.35 11.05 -33.45 10.4 -32.4 9.2 -32.45 9.5 -33.5 Q8.9 -33.15 8.6 -32.6 L7.35 -32.9 7.7 -33.9 6.75 -33.1 5.55 -33.6 6.0 -34.5 5.05 -33.9 Q3.4 -34.7 2.4 -35.65 L2.3 -36.8 Q8.4 -34.0 15.7 -33.95 M18.85 -34.55 L18.9 -34.55 Q17.7 -33.8 16.15 -33.15 L15.75 -33.95 18.85 -34.55" fill="#aedc0a" fill-rule="evenodd" stroke="none"/>
    <path d="M15.7 -33.95 Q8.4 -34.0 2.3 -36.8 L2.75 -38.1 4.45 -38.25 5.95 -37.85 Q5.95 -36.95 6.3 -35.7 6.35 -36.7 6.55 -37.6 L7.5 -37.3 7.95 -35.25 Q7.95 -36.25 8.1 -37.1 L9.2 -36.8 Q9.25 -35.95 9.7 -34.95 L9.75 -36.7 10.9 -36.5 11.25 -34.85 11.4 -36.4 12.7 -36.2 12.75 -34.7 13.3 -36.1 14.45 -35.9 14.3 -34.5 14.95 -35.85 16.05 -35.65 Q15.85 -35.0 15.95 -34.3 L16.45 -35.55 Q17.85 -35.25 18.85 -34.55 L15.75 -33.95 15.8 -34.05 15.7 -33.95" fill="#81a600" fill-rule="evenodd" stroke="none"/>
    <path d="M1.75 -38.15 Q-5.65 -40.15 -11.65 -42.95 L-11.2 -43.85 -10.05 -43.8 -10.15 -42.7 Q-9.8 -43.25 -9.6 -43.75 L-8.4 -43.6 -8.65 -42.4 Q-8.1 -43.0 -7.85 -43.5 L-6.6 -43.2 -7.3 -42.05 -6.15 -43.05 -5.05 -42.75 -5.8 -41.55 -4.45 -42.55 -3.35 -42.15 Q-3.6 -41.55 -4.0 -41.0 L-2.75 -41.95 -1.65 -41.5 -2.35 -40.4 -1.2 -41.25 1.95 -38.9 1.75 -38.15 M-11.7 -42.95 Q-13.0 -43.15 -14.15 -43.85 L-14.25 -43.9 -11.6 -43.85 -11.7 -42.95" fill="#aedc0a" fill-rule="evenodd" stroke="none"/>
    <path d="M1.75 -38.15 L0.95 -36.95 -0.85 -37.05 -2.5 -37.5 Q-2.45 -38.25 -2.9 -39.3 -2.9 -38.4 -3.15 -37.7 L-4.2 -38.05 -4.6 -39.75 -4.9 -38.25 -6.0 -38.6 Q-5.9 -39.35 -6.35 -40.3 -6.3 -39.55 -6.55 -38.8 L-7.65 -39.3 Q-7.6 -40.0 -7.85 -40.8 -7.9 -40.05 -8.1 -39.45 L-9.3 -40.0 Q-9.05 -40.55 -9.2 -41.3 -9.35 -40.7 -9.8 -40.2 L-10.8 -40.75 -10.5 -41.95 -11.2 -41.0 -12.15 -41.55 Q-11.95 -42.05 -11.9 -42.65 L-12.45 -41.8 Q-13.55 -42.55 -14.15 -43.85 -13.0 -43.15 -11.7 -42.95 L-11.7 -42.9 -11.65 -42.95 Q-5.65 -40.15 1.75 -38.15" fill="#81a600" fill-rule="evenodd" stroke="none"/>
    <path d="M3.2 -24.35 L2.2 -24.0 1.5 -24.9 2.25 -25.6 1.2 -25.3 0.6 -26.3 1.6 -26.9 0.4 -26.8 -0.05 -27.95 1.15 -28.15 -0.15 -28.4 -0.45 -29.45 0.8 -29.55 -0.5 -30.0 -0.5 -31.2 0.6 -31.2 -0.55 -31.75 -0.35 -32.95 0.7 -32.85 -0.2 -33.5 Q0.1 -35.15 0.8 -36.3 L2.0 -36.7 Q0.95 -30.6 3.2 -24.35 M4.8 -21.85 L4.8 -21.8 2.5 -23.75 3.2 -24.3 4.8 -21.85" fill="#aedc0a" fill-rule="evenodd" stroke="none"/>
    <path d="M3.2 -24.35 Q0.95 -30.6 2.0 -36.7 L3.55 -36.75 Q3.75 -36.95 4.2 -35.35 L4.25 -33.95 Q3.25 -33.65 2.1 -32.95 L4.2 -33.35 4.15 -32.4 Q3.25 -32.1 2.2 -31.4 L4.15 -31.9 4.15 -30.85 2.35 -29.8 4.25 -30.3 4.35 -29.3 2.7 -28.45 4.4 -28.85 4.65 -27.65 3.1 -27.15 4.75 -27.1 4.85 -26.1 3.3 -25.8 4.95 -25.65 5.05 -24.6 3.65 -24.35 5.1 -24.25 Q5.2 -22.95 4.8 -21.85 L3.2 -24.3 3.3 -24.35 3.2 -24.35" fill="#81a600" fill-rule="evenodd" stroke="none"/>
    <path d="M0.25 -36.55 Q1.7 -35.95 2.1 -35.0 L1.15 -34.15 -0.1 -33.5 Q-0.7 -33.85 -1.75 -34.0 L-0.55 -33.3 -1.35 -32.9 -2.95 -33.35 -1.8 -32.65 -2.65 -32.25 -4.25 -32.65 -3.15 -32.0 -4.05 -31.65 -5.45 -32.15 -4.45 -31.5 -5.4 -31.15 -6.5 -31.65 -5.9 -31.0 -6.85 -30.65 -7.65 -31.2 -7.2 -30.5 -8.15 -30.3 -9.0 -30.8 -8.55 -30.25 -10.7 -29.9 -9.8 -31.4 -9.05 -31.0 -9.65 -31.6 -9.0 -32.15 -8.15 -31.7 -8.75 -32.35 -8.05 -32.85 -7.15 -32.35 -7.7 -33.05 -6.85 -33.6 -6.2 -32.85 -6.5 -33.75 -5.65 -34.15 -5.1 -33.4 Q-5.05 -34.0 -5.25 -34.4 L-4.35 -34.75 Q-4.0 -34.5 -3.8 -34.05 -3.7 -34.6 -3.9 -35.0 L-2.95 -35.35 -2.45 -34.6 -2.55 -35.55 0.25 -36.55" fill="#81a600" fill-rule="evenodd" stroke="none"/>
    <path d="M3.15 -36.6 Q-5.8 -36.65 -11.45 -37.85 L-11.25 -38.8 -10.3 -39.1 Q-10.15 -38.55 -10.15 -38.0 -9.95 -38.6 -9.9 -39.15 L-8.9 -39.25 -8.85 -38.1 -8.4 -39.3 -7.3 -39.35 -7.6 -38.05 -6.9 -39.35 -5.9 -39.25 -6.2 -37.95 Q-5.6 -38.65 -5.35 -39.25 L-4.3 -39.15 -4.7 -37.9 -3.8 -39.05 -2.75 -38.95 -3.1 -37.7 Q-2.55 -38.25 -2.35 -38.8 L3.3 -37.55 Q3.6 -37.0 3.15 -36.6 M-11.5 -37.85 L-13.75 -38.1 -13.8 -38.15 -11.65 -38.7 -11.5 -37.85" fill="#aedc0a" fill-rule="evenodd" stroke="none"/>
    <path d="M3.15 -36.6 Q0.8 -35.85 3.4 -35.6 L-1.1 -34.8 -2.55 -34.85 -3.3 -36.5 -3.15 -34.9 -4.1 -34.95 -4.85 -36.5 Q-4.6 -35.7 -4.7 -35.0 L-5.7 -35.1 -6.4 -36.6 -6.25 -35.15 -7.3 -35.3 -7.75 -36.7 -7.7 -35.35 -8.75 -35.55 -9.0 -36.85 -9.25 -35.65 -10.25 -35.95 Q-10.2 -36.55 -10.3 -37.15 L-10.65 -36.05 -11.55 -36.4 -11.6 -37.55 -11.9 -36.55 Q-13.0 -37.0 -13.75 -38.1 L-11.5 -37.85 -11.5 -37.75 -11.45 -37.85 Q-5.8 -36.65 3.15 -36.6" fill="#81a600" fill-rule="evenodd" stroke="none"/>
    <path d="M1.15 -33.65 Q1.1 -34.1 1.5 -34.45 1.9 -34.8 2.45 -34.8 2.95 -34.8 3.3 -34.5 L3.65 -33.7 Q3.65 -33.25 3.25 -32.9 2.85 -32.55 2.35 -32.55 1.85 -32.5 1.5 -32.85 1.15 -33.15 1.15 -33.65" fill="#957546" fill-rule="evenodd" stroke="none"/>
    <path d="M2.95 -38.6 Q-1.6 -31.65 -5.55 -27.85 L-6.45 -28.45 -6.15 -29.4 -5.05 -28.95 -6.1 -29.7 -5.65 -30.55 -4.55 -30.0 -5.5 -30.95 -4.95 -31.8 Q-4.35 -31.45 -3.9 -30.95 L-4.75 -32.15 -4.2 -32.9 -3.15 -31.95 Q-3.4 -32.85 -3.85 -33.3 L-3.25 -34.05 -2.25 -33.15 -2.95 -34.4 -2.25 -35.1 -1.3 -34.3 -2.0 -35.5 Q2.0 -38.05 2.75 -38.9 L2.95 -38.6 M-5.6 -27.8 Q-6.0 -26.85 -7.0 -26.15 L-7.05 -26.1 Q-6.7 -27.0 -6.5 -28.1 L-5.6 -27.8" fill="#aedc0a" fill-rule="evenodd" stroke="none"/>
    <path d="M2.95 -38.6 Q3.2 -35.65 2.55 -34.45 L2.3 -34.1 1.7 -33.3 -0.15 -33.5 1.4 -32.85 0.9 -32.15 -1.0 -32.35 0.5 -31.7 -0.1 -31.0 -1.85 -31.15 -0.35 -30.55 -1.05 -29.8 -2.65 -30.15 Q-1.95 -29.95 -1.35 -29.55 L-2.1 -28.8 -3.45 -29.3 -2.4 -28.5 -3.15 -27.85 -4.3 -28.45 -3.45 -27.55 -4.2 -27.05 -5.4 -27.6 -4.55 -26.85 Q-5.55 -26.25 -7.0 -26.15 -6.0 -26.85 -5.6 -27.8 L-5.55 -27.85 Q-1.6 -31.65 2.95 -38.6" fill="#81a600" fill-rule="evenodd" stroke="none"/>
    <path d="M11.7 -23.85 L11.65 -23.8 9.75 -24.75 10.45 -25.45 Q11.35 -24.85 11.7 -23.85 M10.4 -25.5 L9.45 -24.85 8.65 -25.3 9.45 -26.2 8.4 -25.45 7.6 -26.0 8.55 -26.95 7.3 -26.3 6.55 -26.95 7.8 -27.7 6.3 -27.2 5.7 -27.85 7.05 -28.65 5.4 -28.25 4.85 -28.95 6.15 -29.65 4.55 -29.35 4.05 -30.1 5.3 -30.75 3.85 -30.45 1.35 -34.85 Q1.65 -35.45 2.25 -35.45 7.9 -29.85 10.4 -25.5" fill="#aedc0a" fill-rule="evenodd" stroke="none"/>
    <path d="M11.7 -23.85 Q11.35 -24.85 10.45 -25.45 L10.45 -25.5 10.4 -25.5 Q7.9 -29.85 2.25 -35.45 L2.95 -36.25 Q5.3 -35.05 6.45 -34.15 L7.4 -33.2 Q6.8 -32.55 6.45 -31.55 L7.75 -32.75 8.25 -32.15 Q7.75 -31.55 7.4 -30.55 L8.55 -31.7 9.1 -31.0 8.3 -29.5 9.45 -30.65 9.95 -29.9 9.05 -28.55 10.15 -29.6 10.65 -28.75 9.7 -27.7 10.9 -28.4 11.3 -27.6 10.25 -26.7 11.45 -27.3 11.75 -26.5 10.75 -25.55 11.8 -26.15 Q12.1 -25.15 11.7 -23.85" fill="#81a600" fill-rule="evenodd" stroke="none"/>
    <path d="M5.0 -45.0 L3.65 -44.8 5.05 -44.7 5.3 -42.6 3.65 -41.9 2.1 -41.7 Q1.9 -41.5 1.25 -42.5 L0.8 -43.5 2.3 -44.5 0.7 -43.9 0.45 -44.45 1.9 -45.45 0.35 -44.85 0.1 -45.55 Q0.8 -45.85 1.5 -46.5 0.75 -46.15 0.0 -45.9 L-0.15 -46.55 1.1 -46.8 -0.2 -46.9 -0.3 -47.65 Q0.25 -47.8 0.95 -48.25 L-0.35 -47.95 -0.4 -48.65 0.85 -49.1 -0.4 -48.95 -0.35 -49.65 0.9 -50.1 -0.3 -49.9 Q-0.1 -50.75 0.75 -51.6 L0.8 -51.65 2.1 -50.5 1.2 -50.1 1.15 -50.1 1.2 -50.1 2.3 -50.3 2.85 -49.8 1.75 -49.35 3.0 -49.6 3.5 -48.95 2.3 -48.55 3.65 -48.65 4.05 -48.0 2.6 -47.7 4.15 -47.7 4.45 -47.1 2.95 -46.85 4.55 -46.75 4.75 -46.05 3.35 -45.85 4.85 -45.75 5.0 -45.0" fill="#81a600" fill-rule="evenodd" stroke="none"/>
    <path d="M1.8 -38.3 Q1.75 -38.75 2.15 -39.1 2.55 -39.45 3.1 -39.45 L3.95 -39.15 4.3 -38.35 Q4.3 -37.9 3.9 -37.55 3.5 -37.2 3.0 -37.2 2.5 -37.15 2.15 -37.5 1.8 -37.8 1.8 -38.3" fill="#957546" fill-rule="evenodd" stroke="none"/>
    <path d="M-2.35 -49.0 Q-1.65 -49.35 -1.3 -49.55 L-0.4 -48.9 -1.05 -48.2 Q-0.35 -48.45 -0.1 -48.65 L0.6 -47.85 Q0.4 -47.55 -0.1 -47.3 L0.9 -47.45 1.55 -46.55 0.6 -46.3 1.7 -46.15 2.2 -45.2 1.25 -45.0 Q1.9 -44.65 2.4 -44.65 L2.8 -43.6 1.7 -43.4 Q2.3 -43.05 2.9 -43.05 L3.1 -41.95 2.0 -41.7 Q2.65 -41.4 3.2 -41.45 L2.7 -36.95 2.65 -36.7 2.7 -36.95 2.6 -36.55 2.55 -37.05 Q1.05 -44.75 -2.35 -49.0 M-4.8 -50.95 L-4.75 -51.05 -1.65 -49.75 -2.45 -49.0 Q-3.65 -49.55 -4.8 -50.95" fill="#aedc0a" fill-rule="evenodd" stroke="none"/>
    <path d="M2.55 -37.05 Q0.8 -39.85 0.0 -40.2 L0.85 -41.3 Q0.15 -40.6 -0.8 -40.25 L-1.0 -41.25 Q-0.25 -41.8 0.4 -42.9 L-1.2 -41.85 -1.45 -42.9 Q-0.7 -43.5 -0.1 -44.55 L-1.65 -43.45 -2.05 -44.5 -0.75 -45.75 Q-1.5 -45.1 -2.2 -44.9 L-2.65 -45.75 -1.45 -46.65 -2.9 -46.1 -3.3 -46.8 -2.1 -47.7 -3.5 -47.15 -4.0 -47.85 -2.85 -48.8 -4.2 -48.2 Q-4.9 -49.1 -4.8 -50.95 -3.65 -49.55 -2.45 -49.0 L-2.35 -49.0 Q1.05 -44.75 2.55 -37.05" fill="#81a600" fill-rule="evenodd" stroke="none"/>
    <path d="M3.15 -36.25 Q3.1 -36.7 3.5 -37.05 3.9 -37.4 4.45 -37.4 L5.3 -37.1 5.65 -36.3 Q5.65 -35.85 5.25 -35.5 4.85 -35.15 4.35 -35.15 3.85 -35.1 3.5 -35.45 3.15 -35.75 3.15 -36.25" fill="#957546" fill-rule="evenodd" stroke="none"/>
  </g>
</svg>
