<?xml version="1.0" encoding="UTF-8" standalone="no"?>
<svg xmlns:ffdec="https://www.free-decompiler.com/flash" xmlns:xlink="http://www.w3.org/1999/xlink" ffdec:objectType="shape" height="40.55px" width="24.2px" xmlns="http://www.w3.org/2000/svg">
  <g transform="matrix(1.0, 0.0, 0.0, 1.0, -15.9, 40.7)">
    <path d="M28.5 -37.0 L28.0 -37.05 28.05 -36.9 28.5 -37.0 M30.1 -35.5 L30.3 -35.6 29.45 -35.65 30.1 -35.5 M30.5 -35.25 L30.5 -35.1 31.35 -35.6 Q30.9 -35.25 30.5 -35.25 M29.55 -34.95 L29.6 -35.0 29.45 -35.0 29.55 -34.95 M25.35 -35.05 Q25.8 -35.1 26.15 -35.3 L26.7 -35.65 25.8 -35.3 25.35 -35.05 M26.3 -34.35 L26.75 -34.45 26.95 -34.6 26.3 -34.35 M28.2 -33.25 L28.25 -33.25 28.5 -33.35 28.15 -33.3 28.2 -33.25 M29.75 -31.35 L29.8 -31.25 29.85 -31.3 29.8 -31.4 29.75 -31.35 M30.05 -30.45 L29.9 -30.35 30.35 -30.15 30.05 -30.45 M30.4 -34.05 L30.15 -34.1 29.55 -34.2 29.85 -34.0 30.4 -34.05 M31.8 -32.4 L32.2 -32.6 31.35 -33.3 31.8 -32.4 M32.5 -31.55 L31.85 -32.15 31.6 -31.9 Q32.0 -31.65 32.5 -31.55 M30.95 -31.3 L30.75 -31.1 Q31.05 -30.95 31.4 -30.85 L30.95 -31.3 M30.8 -31.85 L31.0 -31.95 30.55 -32.4 30.8 -31.85 M32.0 -29.95 L31.95 -29.2 32.5 -28.25 32.25 -29.25 32.0 -29.95 M30.9 -29.2 L30.85 -29.35 30.85 -29.15 30.9 -29.2 M30.25 -28.1 L29.9 -27.9 29.9 -27.2 30.25 -28.1 M32.6 -27.35 L32.6 -27.25 32.65 -27.2 32.6 -27.35 M33.45 -26.6 L33.5 -27.4 33.25 -26.4 33.2 -26.4 33.1 -25.65 33.45 -26.6 M21.45 -28.25 L21.55 -27.95 21.55 -28.2 21.45 -28.25 M22.2 -27.15 L21.9 -27.3 22.15 -27.1 22.2 -27.15 M22.9 -26.4 L22.9 -26.75 22.75 -26.7 22.9 -26.4 M23.7 -24.6 L22.8 -24.9 23.55 -24.25 23.7 -24.6 M21.8 -29.3 L21.75 -28.75 21.9 -28.8 21.8 -29.3 M23.6 -30.4 L23.2 -29.85 23.55 -30.05 23.6 -30.4 M24.65 -30.6 L24.55 -30.25 24.65 -30.2 24.65 -30.6 M26.25 -31.8 L26.1 -31.8 26.0 -31.65 Q26.15 -31.65 26.25 -31.8 M23.95 -25.4 L23.95 -25.5 23.6 -25.55 23.95 -25.4 M25.9 -25.45 L26.8 -25.4 26.7 -25.7 25.9 -25.45 M24.45 -24.4 L24.25 -24.65 24.2 -24.55 24.45 -24.4 M29.65 -25.2 L29.65 -25.25 29.1 -24.55 Q29.6 -24.95 30.2 -25.2 L30.5 -25.55 29.65 -25.2 M31.15 -18.1 L31.2 -18.05 30.05 -19.05 29.45 -19.55 29.5 -19.55 29.4 -19.65 29.4 -19.7 29.0 -20.15 28.8 -20.4 28.25 -21.2 28.3 -21.25 27.95 -21.8 27.5 -23.0 27.15 -23.95 28.15 -24.15 27.1 -24.25 27.05 -24.35 26.9 -23.6 26.85 -23.6 26.7 -22.5 26.65 -22.35 26.55 -21.15 26.5 -21.2 26.4 -20.0 26.25 -19.05 26.25 -19.1 26.2 -19.0 26.25 -18.85 26.2 -18.9 Q26.0 -17.65 25.45 -16.95 L25.5 -16.9 24.3 -18.7 24.9 -19.0 25.0 -19.05 24.9 -19.05 24.15 -18.95 23.8 -19.75 24.5 -20.1 23.7 -20.05 23.5 -20.9 24.25 -21.2 23.45 -21.3 23.4 -22.25 24.25 -22.2 23.4 -22.55 23.4 -23.4 24.25 -23.25 23.45 -23.8 23.5 -24.05 23.05 -23.75 Q22.6 -24.1 22.0 -24.3 L22.8 -23.6 22.15 -23.25 21.3 -23.8 21.85 -23.0 21.25 -22.7 20.5 -23.35 21.0 -22.6 20.35 -22.3 19.65 -22.9 20.05 -22.2 18.25 -22.15 18.2 -22.15 18.95 -23.5 19.5 -23.15 19.6 -23.1 19.55 -23.15 19.05 -23.75 19.45 -24.35 20.15 -23.85 19.55 -24.55 20.05 -25.15 20.75 -24.5 20.25 -25.4 20.8 -25.95 21.35 -25.15 21.0 -26.15 21.55 -26.55 22.1 -25.75 21.9 -26.65 21.7 -26.6 21.05 -27.2 21.35 -26.55 20.65 -26.5 20.2 -27.1 20.35 -26.45 19.65 -26.5 19.2 -27.05 19.4 -26.45 17.8 -26.65 18.75 -27.5 19.2 -27.15 18.95 -27.7 19.45 -27.95 19.9 -27.5 19.65 -28.05 20.3 -28.3 20.75 -27.75 20.55 -28.4 20.95 -28.5 20.75 -29.65 20.55 -28.55 19.9 -28.85 18.85 -29.35 18.15 -29.75 18.0 -29.85 17.95 -29.9 17.45 -30.15 17.15 -30.4 Q16.25 -31.2 15.95 -32.0 L15.9 -32.05 17.55 -32.1 17.5 -32.05 18.1 -32.1 18.8 -32.1 20.35 -31.95 20.2 -31.9 20.7 -31.75 20.2 -30.9 20.95 -31.7 21.4 -31.55 21.6 -32.6 21.1 -31.65 20.4 -32.3 20.75 -33.2 20.1 -32.5 19.5 -33.05 19.95 -33.9 19.25 -33.35 18.75 -33.9 19.15 -34.7 18.55 -34.15 Q17.95 -34.9 17.8 -35.95 L17.8 -36.0 19.55 -35.45 19.35 -34.85 19.4 -34.85 19.85 -35.4 20.65 -35.15 20.35 -34.4 20.95 -35.05 21.7 -34.75 21.3 -33.9 22.1 -34.55 22.9 -34.15 22.2 -33.4 23.15 -33.95 23.9 -33.5 24.45 -34.45 23.65 -33.65 23.25 -34.3 23.95 -35.15 23.15 -34.6 22.8 -35.25 23.55 -35.95 22.7 -35.55 22.5 -36.15 23.2 -36.8 22.45 -36.4 Q22.15 -37.2 22.2 -37.9 L23.9 -37.4 23.4 -36.85 24.1 -37.3 24.65 -36.95 24.15 -36.25 24.9 -36.8 25.25 -36.45 25.15 -36.9 26.2 -37.3 25.05 -37.1 24.9 -37.75 25.9 -38.2 24.8 -38.0 Q24.55 -38.8 25.0 -40.1 L25.0 -40.2 26.9 -38.7 26.2 -38.3 26.25 -38.3 26.25 -38.25 27.1 -38.45 27.55 -37.85 27.0 -37.45 27.75 -37.6 27.8 -37.55 28.65 -37.7 27.85 -37.8 Q28.1 -38.35 28.9 -38.85 L28.95 -38.85 29.6 -37.75 28.9 -37.65 28.9 -37.7 28.9 -37.65 29.7 -37.6 29.95 -37.15 29.15 -36.95 30.05 -36.95 30.25 -36.45 29.35 -36.35 30.3 -36.2 30.45 -35.75 30.65 -35.95 Q31.15 -35.65 31.8 -35.5 L31.0 -36.2 31.65 -36.65 Q32.05 -36.4 32.65 -36.2 L31.95 -36.9 32.6 -37.25 33.55 -36.8 32.95 -37.4 34.6 -38.15 34.5 -36.35 33.65 -36.65 34.4 -36.05 34.15 -35.35 33.2 -35.7 34.0 -35.1 33.6 -34.4 Q33.1 -34.6 32.65 -34.9 L33.4 -34.1 32.95 -33.35 32.05 -34.15 Q32.3 -33.55 32.7 -33.1 L32.3 -32.7 32.45 -32.7 32.85 -31.95 Q33.05 -32.45 32.75 -32.85 L33.6 -33.25 34.35 -32.55 33.95 -33.4 34.75 -33.65 35.35 -32.95 35.05 -33.8 35.85 -34.0 36.45 -33.35 36.15 -34.05 38.15 -34.0 38.2 -33.95 37.05 -32.65 36.55 -33.1 36.5 -33.15 36.5 -33.1 36.9 -32.45 36.3 -31.85 35.65 -32.4 36.1 -31.6 35.45 -31.05 34.85 -31.75 Q34.95 -31.2 35.2 -30.85 L34.45 -30.3 34.05 -31.2 34.15 -30.1 33.45 -29.7 33.05 -30.65 Q32.95 -29.95 33.1 -29.45 L32.8 -29.3 33.4 -28.45 33.1 -29.45 33.05 -29.55 33.65 -29.6 Q33.8 -29.1 34.25 -28.55 L34.0 -29.65 34.55 -29.65 35.0 -28.65 34.8 -29.65 35.4 -29.65 Q35.5 -29.2 35.75 -28.7 L35.75 -29.6 36.25 -29.55 36.45 -28.7 36.5 -29.5 37.1 -29.4 37.3 -28.5 37.25 -29.35 Q37.9 -29.15 38.55 -28.4 L38.55 -28.35 37.45 -27.7 37.3 -28.3 37.25 -28.35 37.25 -28.3 37.3 -27.55 36.8 -27.25 36.55 -28.05 36.6 -27.15 36.05 -26.9 35.85 -27.8 35.8 -26.85 35.15 -26.65 35.15 -27.65 34.95 -26.65 34.4 -26.55 34.35 -27.55 34.1 -26.55 34.4 -26.4 34.1 -25.35 34.8 -26.25 35.5 -25.85 35.1 -24.9 35.85 -25.75 36.6 -25.4 36.6 -25.35 38.35 -24.1 35.9 -23.5 35.7 -23.5 35.75 -23.55 35.05 -23.5 33.95 -23.6 33.75 -23.6 31.7 -24.15 31.2 -24.3 31.65 -25.0 Q31.15 -24.85 30.8 -24.5 L30.5 -24.7 29.6 -23.65 30.6 -24.3 30.85 -23.75 29.95 -22.75 Q30.45 -23.15 31.0 -23.35 L31.2 -22.75 30.3 -21.95 31.25 -22.45 31.5 -21.75 30.6 -21.2 31.55 -21.5 31.65 -20.85 30.75 -20.4 31.7 -20.6 31.75 -20.0 30.9 -19.45 31.75 -19.7 Q31.7 -18.95 31.15 -18.1 M28.3 -36.3 L28.35 -36.35 28.3 -36.3 M25.4 -35.95 L25.5 -36.0 25.7 -36.1 25.8 -36.05 26.4 -36.45 25.4 -36.25 24.75 -35.65 25.4 -35.95 M24.0 -33.1 L23.8 -33.4 23.15 -32.8 Q23.65 -32.9 24.0 -33.1 M25.05 -33.7 L24.45 -33.1 24.7 -32.95 25.05 -33.7 M25.35 -32.5 L25.45 -32.35 25.65 -32.8 25.35 -32.5 M24.6 -32.25 L24.55 -32.35 24.2 -32.1 24.6 -32.25 M22.2 -31.25 L22.5 -31.15 22.5 -31.95 22.2 -31.25 M23.4 -30.8 L23.6 -30.75 23.55 -31.25 23.4 -30.8 M22.55 -30.55 L22.45 -30.65 22.2 -30.25 22.55 -30.55 M21.8 -31.1 L21.55 -31.3 21.15 -30.6 21.8 -31.1" fill="#544022" fill-opacity="0.18039216" fill-rule="evenodd" stroke="none"/>
    <path d="M29.05 -33.05 Q28.35 -31.95 27.2 -31.65 27.15 -31.4 26.3 -32.2 L25.6 -32.95 26.25 -34.2 25.35 -33.25 25.0 -33.8 25.55 -34.95 24.75 -34.1 24.3 -34.7 24.95 -35.8 24.1 -35.0 23.7 -35.55 24.35 -36.55 23.6 -35.8 23.2 -36.45 23.85 -37.25 23.05 -36.75 22.75 -37.4 23.45 -38.05 22.65 -37.65 22.4 -38.3 23.05 -38.9 22.3 -38.55 22.1 -40.05 23.75 -39.5 23.25 -38.9 24.0 -39.4 24.6 -39.0 24.0 -38.4 24.8 -38.85 25.35 -38.4 24.65 -37.8 25.55 -38.2 26.1 -37.7 25.25 -37.15 26.25 -37.45 26.75 -36.9 25.75 -36.45 26.95 -36.6 27.4 -36.05 26.45 -35.6 27.55 -35.8 27.9 -35.2 27.05 -34.7 28.1 -34.9 29.05 -33.05" fill="#81a600" fill-rule="evenodd" stroke="none"/>
    <path d="M28.95 -29.9 Q27.55 -30.35 26.8 -31.4 26.5 -31.35 27.2 -32.5 L27.9 -33.35 29.45 -33.1 Q28.8 -33.35 28.2 -33.7 L28.7 -34.25 30.2 -34.0 Q29.55 -34.25 29.0 -34.6 L29.5 -35.15 31.05 -34.9 Q30.4 -35.15 29.85 -35.5 L30.4 -36.05 Q31.0 -35.8 32.0 -36.5 31.1 -35.95 30.65 -36.25 L31.3 -36.85 32.45 -36.4 31.6 -37.1 32.25 -37.6 Q32.7 -37.3 33.25 -37.05 L32.55 -37.75 33.2 -38.15 34.1 -37.65 33.5 -38.3 35.15 -39.0 35.1 -37.15 34.3 -37.5 35.0 -36.95 34.75 -36.25 33.85 -36.6 34.6 -36.0 34.25 -35.3 33.3 -35.75 34.05 -34.95 33.55 -34.3 32.7 -35.0 33.35 -34.05 32.85 -33.45 32.05 -34.25 32.55 -33.15 32.0 -32.55 31.2 -33.3 31.75 -32.3 31.15 -31.7 Q30.7 -32.05 30.4 -32.5 30.55 -31.85 30.85 -31.5 L28.95 -29.9" fill="#81a600" fill-rule="evenodd" stroke="none"/>
    <path d="M37.25 -33.5 L37.6 -32.8 37.1 -32.2 36.45 -32.8 Q36.6 -32.35 36.9 -32.0 L36.3 -31.5 35.65 -32.15 35.95 -31.25 35.25 -30.75 34.85 -31.6 35.0 -30.5 34.3 -30.15 Q34.05 -30.55 33.9 -31.05 L33.9 -29.85 33.2 -29.5 32.8 -30.4 Q32.7 -29.75 32.85 -29.3 L32.1 -28.95 31.7 -29.8 31.7 -28.8 29.45 -27.85 Q28.85 -28.25 28.55 -28.75 32.95 -31.65 37.25 -33.5 M38.9 -34.35 L38.95 -34.35 37.8 -33.05 37.3 -33.5 Q38.0 -34.15 38.9 -34.35" fill="#aedc0a" fill-rule="evenodd" stroke="none"/>
    <path d="M37.25 -33.5 Q32.95 -31.65 28.55 -28.75 28.2 -29.2 28.15 -29.7 27.9 -29.8 28.95 -30.65 L29.95 -31.25 31.2 -30.6 30.35 -31.55 31.0 -31.9 Q31.45 -31.55 32.25 -31.3 L31.4 -32.15 32.15 -32.55 Q32.6 -32.2 33.35 -31.95 L32.55 -32.8 33.25 -33.1 33.65 -32.35 Q33.85 -32.85 33.55 -33.3 L34.35 -33.65 35.15 -32.95 34.8 -33.8 35.5 -34.05 36.15 -33.35 35.8 -34.2 36.6 -34.4 37.2 -33.7 36.9 -34.45 38.9 -34.35 Q38.0 -34.15 37.3 -33.5 L37.2 -33.55 37.25 -33.5" fill="#81a600" fill-rule="evenodd" stroke="none"/>
    <path d="M37.6 -29.9 L37.6 -29.15 37.15 -28.85 36.85 -29.6 36.95 -28.75 36.4 -28.5 36.2 -29.4 36.15 -28.45 35.55 -28.3 35.5 -29.25 35.3 -28.25 34.75 -28.2 34.75 -29.15 34.45 -28.1 33.9 -28.05 33.9 -29.0 33.6 -28.05 33.05 -28.05 33.05 -28.95 32.75 -28.1 31.0 -28.2 30.7 -29.4 37.6 -29.9 38.85 -30.0 38.9 -29.95 37.8 -29.3 37.6 -29.9" fill="#aedc0a" fill-rule="evenodd" stroke="none"/>
    <path d="M37.6 -29.9 L30.7 -29.4 Q30.6 -29.9 30.65 -30.45 L31.45 -30.85 32.25 -31.0 Q32.45 -30.5 32.95 -29.9 L32.6 -31.1 33.1 -31.15 33.8 -30.05 33.45 -31.15 34.0 -31.25 34.65 -30.2 34.35 -31.3 34.9 -31.25 35.35 -30.25 35.15 -31.25 35.75 -31.25 36.05 -30.3 36.0 -31.2 36.6 -31.15 36.85 -30.25 36.85 -31.1 37.35 -30.95 37.6 -30.1 37.6 -30.95 38.85 -30.0 37.6 -29.9 37.6 -29.95 37.6 -29.9" fill="#81a600" fill-rule="evenodd" stroke="none"/>
    <path d="M36.4 -24.9 L36.25 -24.2 35.4 -24.15 35.2 -24.9 35.05 -24.15 34.15 -24.3 34.15 -25.05 33.75 -24.35 32.8 -24.6 33.1 -25.35 32.45 -24.75 31.65 -25.0 32.1 -25.7 31.25 -25.25 Q30.85 -25.4 30.45 -25.65 L30.9 -26.3 30.1 -25.95 29.35 -26.5 29.85 -27.05 29.1 -26.8 Q28.1 -27.65 27.6 -28.55 L27.75 -29.4 Q31.4 -26.3 36.4 -24.9 L38.65 -24.75 38.7 -24.75 36.55 -24.25 36.4 -24.9" fill="#aedc0a" fill-rule="evenodd" stroke="none"/>
    <path d="M36.4 -24.9 Q31.4 -26.3 27.75 -29.4 L28.4 -30.25 29.5 -30.05 30.5 -29.45 30.3 -27.9 30.85 -29.2 31.45 -28.8 31.35 -27.25 31.8 -28.55 32.45 -28.15 32.5 -26.7 32.85 -28.0 33.6 -27.55 33.5 -26.3 33.9 -27.45 34.75 -27.1 34.5 -25.95 35.15 -26.9 35.9 -26.5 35.5 -25.55 36.25 -26.4 36.95 -26.05 36.55 -25.1 37.2 -25.9 38.65 -24.75 36.4 -24.9 36.45 -24.95 36.4 -24.9" fill="#81a600" fill-rule="evenodd" stroke="none"/>
    <path d="M26.4 -30.1 Q21.7 -32.85 18.15 -36.0 17.25 -36.35 16.6 -37.05 L16.65 -37.1 18.4 -36.6 18.15 -36.0 18.65 -36.55 19.45 -36.3 19.2 -35.55 19.75 -36.2 20.55 -35.85 20.1 -35.05 20.85 -35.65 21.7 -35.25 20.95 -34.5 21.9 -35.1 22.65 -34.65 21.9 -33.9 Q22.6 -34.1 23.0 -34.4 L23.7 -33.9 23.0 -33.2 24.0 -33.65 24.65 -33.1 24.0 -32.45 25.0 -32.9 26.65 -30.6 26.4 -30.1" fill="#aedc0a" fill-rule="evenodd" stroke="none"/>
    <path d="M26.4 -30.1 L25.6 -29.35 Q25.6 -29.1 24.35 -29.75 L23.35 -30.35 Q23.55 -30.9 23.4 -31.7 L22.95 -30.65 22.3 -31.1 22.4 -32.4 21.9 -31.35 21.2 -31.8 21.3 -33.1 20.8 -32.1 20.2 -32.6 20.4 -33.7 19.95 -32.85 19.25 -33.4 19.55 -34.3 18.9 -33.65 18.35 -34.25 18.75 -35.05 18.1 -34.5 17.6 -35.05 18.0 -35.8 17.35 -35.25 Q16.8 -36.05 16.6 -37.05 17.25 -36.35 18.15 -36.0 21.7 -32.85 26.4 -30.1 M18.15 -36.0 L18.15 -35.95 18.15 -36.0" fill="#81a600" fill-rule="evenodd" stroke="none"/>
    <path d="M25.15 -20.8 L24.4 -20.75 24.1 -21.55 24.75 -21.85 23.95 -21.8 23.75 -22.65 24.55 -22.9 23.7 -23.05 23.65 -24.0 24.5 -23.9 23.6 -24.35 23.6 -25.15 24.5 -24.95 23.7 -25.55 23.9 -26.4 24.7 -26.15 24.05 -26.8 24.4 -27.65 25.05 -27.4 24.55 -27.95 Q25.15 -29.1 25.85 -29.85 L26.7 -29.9 Q24.8 -25.75 25.15 -20.8 L25.75 -18.7 24.5 -20.5 25.15 -20.8" fill="#aedc0a" fill-rule="evenodd" stroke="none"/>
    <path d="M25.15 -20.8 Q24.8 -25.75 26.7 -29.9 L27.8 -29.6 27.95 -28.55 27.7 -27.5 26.05 -27.2 27.55 -27.05 27.35 -26.45 25.8 -26.05 27.25 -26.05 27.1 -25.3 25.6 -24.85 27.0 -24.9 26.85 -24.1 25.6 -23.8 26.85 -23.75 26.75 -22.9 25.6 -22.85 26.7 -22.5 26.6 -21.7 25.5 -21.8 26.6 -21.4 26.5 -20.65 25.45 -20.7 26.4 -20.35 Q26.25 -19.45 25.75 -18.7 L25.15 -20.8 25.25 -20.8 25.15 -20.8" fill="#81a600" fill-rule="evenodd" stroke="none"/>
    <path d="M25.95 -30.7 Q26.8 -30.05 26.9 -29.3 27.1 -29.15 26.1 -28.8 L25.15 -28.6 24.1 -29.2 24.75 -28.5 24.15 -28.35 23.15 -28.95 23.8 -28.25 23.1 -28.15 22.1 -28.75 22.75 -28.1 22.05 -27.95 21.2 -28.55 21.8 -27.95 21.0 -27.85 20.4 -28.4 20.7 -27.8 20.0 -27.8 19.5 -28.35 19.7 -27.75 19.0 -27.75 18.55 -28.25 18.7 -27.75 17.15 -27.9 18.1 -28.85 18.55 -28.4 18.25 -28.95 18.75 -29.2 19.25 -28.75 18.95 -29.3 19.55 -29.55 20.05 -29.05 19.85 -29.65 20.5 -29.85 20.85 -29.2 20.8 -29.9 21.4 -30.1 21.7 -29.45 21.8 -30.15 22.45 -30.25 22.7 -29.65 22.8 -30.35 23.5 -30.45 23.75 -29.8 23.8 -30.45 25.95 -30.7" fill="#81a600" fill-rule="evenodd" stroke="none"/>
    <path d="M28.15 -29.7 Q22.0 -31.35 18.4 -33.25 L18.7 -33.95 19.45 -33.95 19.3 -33.15 19.7 -33.9 20.4 -33.85 20.2 -33.0 20.75 -33.75 21.5 -33.6 21.05 -32.7 21.8 -33.5 22.5 -33.3 21.95 -32.4 22.85 -33.15 23.55 -32.9 23.05 -32.05 23.8 -32.75 24.55 -32.45 24.05 -31.65 24.85 -32.3 28.45 -30.35 Q28.5 -29.9 28.15 -29.7 M18.35 -33.25 Q17.5 -33.4 16.85 -33.9 L16.85 -33.95 18.45 -33.95 18.35 -33.25" fill="#aedc0a" fill-rule="evenodd" stroke="none"/>
    <path d="M28.15 -29.7 Q26.35 -29.6 28.1 -29.0 L24.9 -29.2 23.9 -29.5 23.7 -30.8 23.5 -29.6 22.85 -29.8 22.65 -31.1 22.45 -30.0 21.75 -30.25 21.6 -31.45 21.4 -30.35 20.75 -30.65 20.7 -31.8 20.5 -30.8 19.8 -31.15 19.9 -32.15 19.45 -31.3 18.85 -31.7 19.05 -32.55 18.6 -31.85 18.05 -32.2 18.2 -33.1 17.85 -32.4 Q17.2 -32.95 16.85 -33.9 17.5 -33.4 18.35 -33.25 L18.4 -33.25 Q22.0 -31.35 28.15 -29.7" fill="#81a600" fill-rule="evenodd" stroke="none"/>
    <path d="M26.05 -26.55 Q26.15 -26.9 26.5 -27.05 L27.15 -27.15 27.7 -26.8 27.8 -26.15 27.35 -25.6 26.7 -25.55 26.1 -25.95 26.05 -26.55" fill="#957546" fill-rule="evenodd" stroke="none"/>
    <path d="M28.35 -31.2 Q23.95 -27.0 20.5 -25.0 L20.0 -25.6 20.35 -26.2 21.0 -25.7 20.5 -26.4 20.95 -26.95 21.6 -26.35 21.15 -27.25 21.7 -27.75 22.25 -26.95 21.9 -27.95 22.4 -28.4 22.95 -27.55 22.7 -28.6 23.25 -29.05 23.8 -28.2 23.55 -29.25 24.15 -29.65 24.7 -28.85 24.4 -29.8 Q27.65 -30.95 28.3 -31.45 L28.35 -31.2 M20.45 -25.0 Q20.0 -24.35 19.25 -24.05 L19.15 -24.05 19.9 -25.4 20.45 -25.0" fill="#aedc0a" fill-rule="evenodd" stroke="none"/>
    <path d="M28.35 -31.2 Q28.0 -29.0 27.3 -28.25 L27.05 -28.05 26.55 -27.6 Q26.05 -27.95 25.25 -28.1 L26.2 -27.3 25.75 -26.9 24.45 -27.4 25.35 -26.65 24.85 -26.25 23.65 -26.7 24.55 -26.0 23.95 -25.6 22.95 -26.1 23.7 -25.5 23.1 -25.05 22.25 -25.6 22.8 -24.85 22.1 -24.55 21.45 -25.2 21.85 -24.4 21.3 -24.15 20.6 -24.75 21.0 -24.1 19.25 -24.05 Q20.0 -24.35 20.45 -25.0 L20.5 -25.0 Q23.95 -27.0 28.35 -31.2" fill="#81a600" fill-rule="evenodd" stroke="none"/>
    <path d="M30.9 -18.05 L30.85 -17.95 29.8 -18.95 30.4 -19.35 Q30.85 -18.8 30.9 -18.05 M30.35 -19.4 L29.6 -19.15 29.15 -19.6 29.85 -20.1 28.95 -19.75 28.55 -20.3 29.4 -20.8 28.35 -20.55 28.0 -21.15 29.05 -21.45 27.85 -21.4 27.6 -21.95 28.65 -22.3 27.45 -22.3 27.25 -22.95 28.25 -23.2 27.1 -23.2 26.9 -23.85 27.85 -24.15 26.85 -24.2 26.0 -27.75 Q26.3 -28.15 26.7 -28.1 29.5 -23.05 30.35 -19.4" fill="#aedc0a" fill-rule="evenodd" stroke="none"/>
    <path d="M30.9 -18.05 Q30.85 -18.8 30.4 -19.35 L30.4 -19.45 30.35 -19.4 Q29.5 -23.05 26.7 -28.1 L27.35 -28.5 29.3 -26.35 29.75 -25.5 28.8 -24.5 29.9 -25.1 30.2 -24.55 29.25 -23.6 30.3 -24.25 30.5 -23.65 29.65 -22.65 30.7 -23.3 30.9 -22.7 30.0 -21.9 30.95 -22.4 31.15 -21.7 30.3 -21.15 31.25 -21.4 31.35 -20.75 30.5 -20.3 31.4 -20.5 31.45 -19.9 30.6 -19.4 31.45 -19.65 Q31.45 -18.85 30.9 -18.05" fill="#81a600" fill-rule="evenodd" stroke="none"/>
    <path d="M29.95 -34.8 L29.0 -34.9 29.9 -34.6 29.65 -33.0 28.4 -32.85 27.3 -32.95 Q27.1 -32.85 26.9 -33.75 L26.8 -34.5 Q27.4 -34.6 28.0 -34.95 L26.75 -34.8 26.75 -35.25 27.9 -35.75 26.75 -35.6 26.65 -36.1 27.8 -36.55 26.65 -36.4 26.7 -36.9 27.6 -36.85 26.75 -37.1 26.8 -37.7 27.8 -37.9 26.85 -37.95 26.95 -38.45 27.9 -38.55 27.0 -38.65 27.2 -39.15 28.1 -39.25 27.3 -39.35 28.3 -40.4 28.35 -40.4 29.0 -39.3 28.35 -39.2 28.3 -39.2 28.35 -39.2 29.15 -39.1 29.4 -38.65 28.55 -38.55 29.5 -38.45 29.65 -37.95 28.75 -37.85 29.75 -37.7 29.85 -37.15 28.85 -37.2 29.9 -36.95 29.9 -36.4 28.9 -36.5 Q29.45 -36.25 29.95 -36.15 L30.0 -35.6 29.0 -35.7 Q29.5 -35.45 30.0 -35.35 L29.95 -34.8" fill="#81a600" fill-rule="evenodd" stroke="none"/>
    <path d="M28.25 -31.25 L28.7 -31.75 29.35 -31.85 29.9 -31.5 30.0 -30.85 29.55 -30.3 28.9 -30.25 28.3 -30.65 28.25 -31.25" fill="#957546" fill-rule="evenodd" stroke="none"/>
    <path d="M26.35 -38.8 L27.2 -39.0 27.75 -38.4 27.15 -38.0 27.9 -38.15 28.2 -37.45 Q28.05 -37.25 27.65 -37.2 L28.3 -37.1 28.55 -36.35 27.9 -36.35 28.6 -36.05 28.75 -35.25 28.05 -35.3 28.85 -34.8 28.85 -34.0 28.1 -34.05 Q28.45 -33.7 28.85 -33.6 L28.75 -32.75 27.95 -32.8 Q28.35 -32.45 28.7 -32.4 L27.5 -29.2 27.45 -29.1 27.5 -29.2 27.35 -28.95 27.4 -29.35 Q27.9 -35.15 26.35 -38.8 25.6 -39.45 25.15 -40.65 L25.15 -40.7 27.0 -39.2 26.35 -38.8" fill="#aedc0a" fill-rule="evenodd" stroke="none"/>
    <path d="M27.4 -29.35 Q26.75 -31.65 26.3 -32.0 L27.1 -32.65 25.75 -32.2 25.8 -32.95 Q26.45 -33.25 27.15 -33.9 L25.8 -33.45 25.85 -34.25 27.05 -35.15 25.85 -34.7 25.75 -35.45 26.85 -36.15 25.7 -35.8 25.55 -36.5 Q26.0 -36.55 26.55 -36.95 L25.45 -36.8 25.35 -37.4 26.35 -37.8 25.25 -37.65 25.05 -38.25 26.0 -38.75 25.0 -38.55 Q24.65 -39.4 25.15 -40.65 25.6 -39.45 26.35 -38.8 L26.3 -38.8 26.35 -38.8 Q27.9 -35.15 27.4 -29.35" fill="#81a600" fill-rule="evenodd" stroke="none"/>
    <path d="M28.25 -31.25 L28.7 -31.75 29.35 -31.85 29.9 -31.5 30.0 -30.85 29.55 -30.3 28.9 -30.25 28.3 -30.65 28.25 -31.25" fill="#957546" fill-rule="evenodd" stroke="none"/>
    <path d="M26.3 -4.55 L29.25 -13.7 Q35.0 -12.85 40.1 -9.5 L37.8 -0.15 Q31.55 -2.0 26.3 -4.55" fill="#511009" fill-rule="evenodd" stroke="none"/>
    <path d="M39.95 -9.5 L37.35 -0.8 Q31.4 -2.0 26.55 -4.35 L29.5 -14.8 Q34.85 -12.85 39.95 -9.5" fill="#741e14" fill-rule="evenodd" stroke="none"/>
  </g>
</svg>
