<?xml version="1.0" encoding="UTF-8" standalone="no"?>
<svg xmlns:ffdec="https://www.free-decompiler.com/flash" xmlns:xlink="http://www.w3.org/1999/xlink" ffdec:objectType="shape" height="110.45px" width="109.2px" xmlns="http://www.w3.org/2000/svg">
  <g transform="matrix(1.0, 0.0, 0.0, 1.0, 1.5, 1.5)">
    <path d="M104.7 39.45 Q101.5 47.4 103.9 54.6 106.2 61.8 98.1 68.9 90.0 75.95 89.7 86.75 89.35 97.45 74.4 105.85 73.65 106.25 72.65 106.45 54.25 109.85 39.1 101.65 37.0 100.55 32.3 95.15 27.45 89.7 20.2 88.7 12.9 87.65 11.6 83.25 L8.7 72.85 Q8.4 71.9 3.9 68.15 -0.7 64.4 0.15 49.45 0.85 34.45 13.75 27.2 26.6 19.95 32.45 17.7 38.25 15.45 39.1 10.65 39.95 5.75 44.9 5.5 64.35 4.7 83.0 0.0 101.25 0.35 104.5 15.9 107.8 31.5 104.7 39.45 Z" fill="none" stroke="#ffffff" stroke-linecap="round" stroke-linejoin="round" stroke-width="3.0"/>
  </g>
</svg>
