<?xml version="1.0" encoding="UTF-8" standalone="no"?>
<svg xmlns:ffdec="https://www.free-decompiler.com/flash" xmlns:xlink="http://www.w3.org/1999/xlink" ffdec:objectType="shape" height="105.55px" width="103.4px" xmlns="http://www.w3.org/2000/svg">
  <g transform="matrix(1.0, 0.0, 0.0, 1.0, 50.75, 52.65)">
    <path d="M51.15 -13.3 Q48.05 -5.55 50.4 1.45 52.65 8.45 44.75 15.4 36.85 22.25 36.55 32.75 36.2 43.2 21.65 51.35 20.95 51.75 19.95 51.95 2.05 55.25 -12.7 47.3 -14.75 46.2 -19.35 40.95 -24.05 35.65 -31.1 34.65 -38.2 33.65 -39.5 29.35 L-42.3 19.25 Q-42.6 18.3 -47.0 14.65 -51.45 11.0 -50.65 -3.55 -49.95 -18.15 -37.4 -25.2 -24.9 -32.3 -19.2 -34.45 -13.55 -36.65 -12.7 -41.35 -11.9 -46.1 -7.05 -46.35 11.9 -47.15 30.05 -51.7 47.8 -51.35 51.0 -36.2 54.2 -21.05 51.15 -13.3" fill="#7bd8e7" fill-opacity="0.36078432" fill-rule="evenodd" stroke="none"/>
    <path d="M19.05 -47.1 Q24.5 -49.2 33.2 -49.5 41.8 -49.8 48.15 -37.1 54.5 -24.4 47.35 -15.7 44.1 -4.2 45.75 -0.55 47.7 3.75 44.15 4.75 42.85 5.1 41.25 6.55 35.25 16.4 36.15 21.05 37.4 27.4 27.45 40.0 24.15 49.9 7.95 49.45 -8.2 48.95 -10.5 44.45 -12.8 39.85 -15.3 37.0 -17.75 34.15 -24.4 32.9 -27.15 31.1 -31.75 30.4 -41.8 28.9 -39.1 20.25 -38.75 19.05 -38.75 17.75 L-39.05 17.35 -39.9 15.95 Q-46.9 15.65 -47.65 8.65 -47.9 6.35 -47.5 4.15 L-48.25 1.7 Q-50.4 -8.6 -41.95 -15.6 -37.45 -19.3 -33.5 -23.3 -31.1 -27.4 -27.6 -29.85 -25.65 -31.85 -23.15 -32.25 -10.8 -31.5 -9.65 -38.4 -8.15 -47.1 -1.25 -44.45 L9.4 -44.15 Q13.5 -45.1 19.05 -47.1" fill="#c1ebfb" fill-rule="evenodd" stroke="none"/>
    <path d="M-42.25 -12.95 L-42.2 -12.95 -39.7 -15.35 -39.55 -15.5 Q-35.35 -19.0 -31.55 -22.8 -28.9 -26.15 -26.95 -27.2 -24.9 -28.25 -17.45 -28.6 -9.95 -28.9 -8.45 -32.75 L-7.8 -35.5 -6.95 -38.45 -6.6 -39.3 Q-5.4 -41.6 -3.0 -42.1 L5.35 -39.6 Q13.85 -39.4 19.55 -42.7 25.25 -46.1 33.3 -47.2 41.3 -48.4 47.05 -36.7 52.75 -25.1 46.65 -19.15 L45.55 -18.0 45.25 -18.35 Q43.5 -17.8 43.55 -15.85 40.75 -12.5 41.45 -10.8 42.15 -8.35 42.25 -6.0 L42.2 -6.55 Q40.15 -2.1 35.35 1.6 32.15 -0.3 31.95 -0.25 L28.95 0.1 34.25 2.6 32.65 9.7 Q30.35 17.9 27.45 25.5 24.45 33.05 20.65 36.4 L18.9 38.0 15.05 35.8 Q14.4 34.2 12.45 25.6 11.9 33.2 12.35 35.95 14.85 37.4 16.35 39.0 9.75 42.25 6.15 41.95 -1.95 41.35 -11.1 34.25 L-18.7 28.0 Q-18.65 24.9 -18.0 21.55 -19.55 27.2 -21.55 27.1 -23.35 27.2 -28.7 25.85 -32.95 24.8 -34.6 16.45 L-28.7 15.95 -34.9 15.55 Q-33.35 14.0 -32.95 8.4 -34.2 12.3 -35.2 14.0 -41.7 12.25 -42.2 9.9 L-43.0 5.95 -45.05 0.0 Q-46.8 -4.75 -44.95 -7.75 -43.1 -10.8 -42.25 -12.95" fill="url(#gradient0)" fill-rule="evenodd" stroke="none"/>
    <path d="M45.55 -18.0 L45.0 -17.45 43.55 -15.85 Q43.5 -17.8 45.25 -18.35 L45.55 -18.0 M42.25 -6.0 L42.15 -3.2 41.4 -0.2 41.3 0.25 41.15 0.6 40.8 1.4 40.55 1.85 40.5 1.85 39.15 3.5 35.65 5.8 34.15 13.45 Q31.1 26.2 23.35 37.15 18.0 47.1 4.35 45.35 -3.1 44.45 -8.15 40.25 -9.55 39.55 -10.8 38.65 -16.25 34.85 -21.0 30.4 L-29.9 29.1 Q-39.6 27.65 -37.0 19.3 -36.65 18.1 -36.65 16.9 L-36.95 16.5 -37.7 15.1 Q-44.5 14.8 -45.25 8.1 -45.55 5.8 -45.1 3.7 L-45.85 1.4 Q-46.7 -2.7 -45.8 -6.25 L-43.45 -11.4 -42.25 -12.95 Q-43.1 -10.8 -44.95 -7.75 -46.8 -4.75 -45.05 0.0 L-43.0 5.95 -42.2 9.9 Q-41.7 12.25 -35.2 14.0 -34.2 12.3 -32.95 8.4 -33.35 14.0 -34.9 15.55 L-28.7 15.95 -34.6 16.45 Q-32.95 24.8 -28.7 25.85 -23.35 27.2 -21.55 27.1 -19.55 27.2 -18.0 21.55 -18.65 24.9 -18.7 28.0 L-11.1 34.25 Q-1.95 41.35 6.15 41.95 9.75 42.25 16.35 39.0 14.85 37.4 12.35 35.95 11.9 33.2 12.45 25.6 14.4 34.2 15.05 35.8 L18.9 38.0 20.65 36.4 Q24.45 33.05 27.45 25.5 30.35 17.9 32.65 9.7 L34.25 2.6 28.95 0.1 31.95 -0.25 Q32.15 -0.3 35.35 1.6 40.15 -2.1 42.2 -6.55 L42.25 -6.0" fill="#744425" fill-rule="evenodd" stroke="none"/>
    <path d="M27.2 -42.2 Q27.45 -45.5 30.3 -47.55 32.95 -49.4 35.75 -50.85 39.1 -51.55 40.5 -48.9 L41.25 -46.95 41.65 -45.0 Q42.25 -42.15 41.55 -39.3 41.3 -38.55 40.65 -37.95 38.8 -36.45 36.4 -36.8 L34.25 -37.0 Q30.4 -37.15 27.95 -40.05 27.15 -41.0 27.2 -42.2" fill="#2c0707" fill-opacity="0.27058825" fill-rule="evenodd" stroke="none"/>
    <path d="M-19.1 -6.7 L-6.05 -29.25 -1.2 -27.35 0.35 -26.2 Q-0.25 -16.75 -9.45 -2.5 -18.9 -5.25 -19.1 -6.7" fill="#542e0a" fill-opacity="0.36862746" fill-rule="evenodd" stroke="none"/>
    <path d="M-1.1 -24.05 L-14.0 -4.7 -15.1 -5.35 -1.4 -25.15 -1.1 -24.05" fill="#7b654b" fill-rule="evenodd" stroke="none"/>
    <path d="M-14.15 -35.2 L-1.45 -29.05 -0.8 -24.6 -13.85 -4.6 -18.9 -4.65 -28.4 -10.55 -14.15 -35.2" fill="#cbb49a" fill-rule="evenodd" stroke="none"/>
    <path d="M-17.05 -29.55 Q-16.8 -28.85 -17.5 -28.8 -18.0 -28.75 -18.1 -29.3 L-18.0 -29.65 Q-17.5 -30.4 -17.05 -29.55" fill="#db9d42" fill-rule="evenodd" stroke="none"/>
    <path d="M-9.9 -17.8 Q-11.35 -17.6 -10.95 -19.35 -9.7 -20.5 -9.15 -19.1 -8.7 -17.9 -9.9 -17.8" fill="#db9d42" fill-rule="evenodd" stroke="none"/>
    <path d="M-17.6 -24.65 Q-17.25 -22.55 -19.15 -22.9 -20.4 -23.05 -20.45 -24.55 L-20.2 -26.35 Q-18.1 -27.75 -17.6 -24.65" fill="#db9d42" fill-rule="evenodd" stroke="none"/>
    <path d="M-8.85 -18.1 L-6.05 -22.0 -5.4 -21.15 -7.3 -17.85 -8.85 -18.1" fill="#210d0c" fill-rule="evenodd" stroke="none"/>
    <path d="M-5.4 -21.15 L-4.95 -20.55 -7.4 -16.85 -9.5 -17.2 -8.85 -18.1 -7.3 -17.85 -5.4 -21.15" fill="#70413e" fill-rule="evenodd" stroke="none"/>
    <path d="M-16.2 -7.7 L-13.3 -11.55 -12.55 -10.65 -14.45 -7.35 -16.2 -7.7" fill="#210d0c" fill-rule="evenodd" stroke="none"/>
    <path d="M-16.2 -7.7 L-14.45 -7.35 -12.55 -10.65 -11.95 -10.0 -14.5 -6.3 -16.85 -6.8 -16.2 -7.7" fill="#70413e" fill-rule="evenodd" stroke="none"/>
    <path d="M-36.5 -15.65 L-15.0 -37.3 -0.1 -28.8 0.0 -27.9 Q-9.6 -16.1 -18.4 -3.5 L-36.3 -14.95 -36.5 -15.65" fill="#62170e" fill-rule="evenodd" stroke="none"/>
    <path d="M-14.55 -38.25 L0.85 -29.35 Q-8.85 -17.6 -17.65 -5.3 L-35.4 -16.0 Q-26.35 -28.6 -14.55 -38.25" fill="url(#gradient1)" fill-rule="evenodd" stroke="none"/>
    <path d="M-22.65 -9.1 L-22.85 -9.2 -20.9 -8.55 Q-18.85 -7.9 -18.2 -8.55 -17.5 -9.15 -18.5 -9.85 L-15.6 -10.05 -15.3 -10.3 Q-14.75 -10.8 -14.65 -11.55 -13.85 -11.5 -12.45 -12.5 L-15.55 -8.0 -17.45 -5.4 -22.6 -9.1 -22.65 -9.1" fill="#b46e27" fill-rule="evenodd" stroke="none"/>
    <path d="M-11.5 -22.65 L-6.6 -19.15 Q-6.4 -19.05 -6.65 -18.95 L-7.95 -19.0 -8.7 -19.5 Q-12.0 -21.75 -14.85 -24.3 L-14.95 -24.45 Q-13.2 -23.85 -11.5 -22.65" fill="#62170e" fill-rule="evenodd" stroke="none"/>
    <path d="M-9.45 -21.5 L-7.9 -21.3 -7.4 -21.15 -7.25 -21.3 -7.15 -21.1 Q-7.05 -20.9 -6.15 -21.35 -5.3 -21.75 -6.6 -22.3 -7.9 -22.95 -8.0 -23.1 L-6.3 -22.8 -6.2 -22.75 -6.0 -22.7 -5.55 -22.85 Q-5.4 -22.9 -3.95 -23.65 L-7.25 -19.45 -15.0 -24.7 Q-13.7 -24.8 -12.1 -23.15 -10.65 -21.5 -9.45 -21.5" fill="#b46e27" fill-rule="evenodd" stroke="none"/>
    <path d="M-18.4 -34.45 L-18.35 -34.55 -18.4 -34.7 -18.35 -34.8 Q-17.4 -35.95 -14.25 -38.3 L-10.5 -36.25 -8.7 -35.1 -9.55 -35.25 -10.45 -35.75 -11.95 -36.45 Q-13.0 -36.85 -13.25 -36.15 -13.55 -35.45 -12.85 -33.8 -14.3 -36.9 -15.1 -34.75 L-15.15 -35.15 Q-16.15 -35.9 -16.85 -35.15 L-17.5 -34.6 Q-17.85 -34.25 -18.4 -34.25 L-18.45 -34.25 -18.4 -34.4 -18.4 -34.45" fill="#b46e27" fill-rule="evenodd" stroke="none"/>
    <path d="M-35.25 -15.9 L-29.85 -22.45 Q-31.65 -20.15 -31.5 -20.05 -31.15 -19.75 -29.25 -20.95 L-31.35 -18.7 -31.4 -18.55 -30.95 -18.7 -30.8 -18.75 -30.75 -18.8 -30.55 -18.85 -31.0 -18.3 Q-31.15 -17.15 -30.0 -17.25 L-29.75 -17.25 -29.8 -17.15 -30.3 -16.7 -30.4 -16.35 -30.5 -16.15 -30.65 -16.1 Q-30.65 -16.1 -30.75 -16.05 L-30.85 -16.0 -31.0 -16.0 -31.35 -15.9 -31.5 -15.65 -31.45 -15.65 -30.35 -14.35 -28.6 -12.05 Q-27.65 -10.95 -28.65 -11.9 L-29.95 -12.95 -32.2 -14.25 -34.3 -15.3 -34.6 -15.25 -35.25 -15.9 M-29.75 -19.6 L-29.9 -19.5 -29.75 -19.7 -29.75 -19.6" fill="#b46e27" fill-rule="evenodd" stroke="none"/>
    <path d="M-16.05 -18.25 L-23.8 -23.25 Q-21.55 -28.4 -17.2 -32.2 L-9.05 -27.8 Q-12.4 -22.45 -16.05 -18.25" fill="#511009" fill-rule="evenodd" stroke="none"/>
    <path d="M-17.2 -31.85 Q-13.5 -29.55 -9.8 -27.35 -12.4 -22.1 -15.75 -18.25 L-24.75 -23.6 Q-21.55 -28.05 -17.2 -31.85" fill="#741e14" fill-rule="evenodd" stroke="none"/>
    <path d="M18.55 -26.35 Q16.65 -24.5 14.55 -26.2 12.7 -27.8 14.9 -29.15 15.95 -29.8 17.0 -30.05 21.75 -29.35 18.55 -26.35" fill="#7b533a" fill-rule="evenodd" stroke="none"/>
    <path d="M22.45 -30.55 L23.3 -30.4 23.9 -30.25 24.05 -30.2 Q24.45 -29.4 24.05 -28.6 23.0 -26.8 21.4 -28.5 20.85 -29.05 21.2 -29.8 21.5 -30.5 22.15 -30.55 L22.45 -30.55" fill="#7b533a" fill-rule="evenodd" stroke="none"/>
    <path d="M27.95 -43.85 Q28.2 -47.15 31.05 -49.2 33.7 -51.05 36.5 -52.5 39.85 -53.2 41.25 -50.55 L42.0 -48.6 42.4 -46.65 Q43.0 -43.8 42.3 -40.95 42.05 -40.2 41.4 -39.6 39.55 -38.1 37.15 -38.45 L35.0 -38.65 Q31.15 -38.8 28.7 -41.7 27.9 -42.65 27.95 -43.85" fill="#8a7171" fill-rule="evenodd" stroke="none"/>
    <path d="M39.5 -34.2 Q38.9 -33.5 38.1 -33.85 36.8 -34.5 38.05 -35.5 38.35 -35.75 38.75 -35.8 40.65 -35.6 39.5 -34.2" fill="#7b533a" fill-rule="evenodd" stroke="none"/>
    <path d="M-37.55 -3.55 Q-39.3 -0.75 -41.2 -2.2 -43.1 -3.55 -41.4 -5.5 -39.7 -7.4 -38.75 -7.2 -35.85 -6.35 -37.55 -3.55" fill="#7b533a" fill-rule="evenodd" stroke="none"/>
    <path d="M-41.0 -7.75 L-40.9 -8.4 Q-40.7 -8.95 -40.15 -9.1 L-39.6 -9.2 -39.0 -9.1 -38.65 -9.0 -38.45 -8.95 -38.3 -8.4 Q-38.35 -7.5 -39.3 -7.25 -40.2 -7.1 -40.9 -7.5 L-41.0 -7.75" fill="#7b533a" fill-rule="evenodd" stroke="none"/>
    <path d="M-30.4 -7.1 Q-29.95 -6.9 -29.9 -6.35 L-30.1 -5.5 -30.25 -5.45 Q-30.4 -5.3 -30.7 -5.3 L-31.8 -5.35 -32.05 -5.6 -32.2 -6.05 Q-32.3 -6.6 -32.0 -6.9 L-31.4 -7.2 -30.4 -7.1" fill="#7b533a" fill-rule="evenodd" stroke="none"/>
    <path d="M41.75 -38.25 Q43.85 -36.0 46.55 -34.85 49.15 -33.7 50.1 -31.75 51.0 -29.7 50.85 -29.15 L50.0 -27.6 Q46.6 -24.1 43.95 -22.95 41.2 -21.9 39.35 -22.45 37.5 -23.05 36.85 -26.25 36.25 -29.35 35.0 -32.05 33.7 -34.8 35.7 -37.2 L37.2 -38.9 Q39.55 -40.5 41.75 -38.25" fill="#2c0707" fill-opacity="0.27058825" fill-rule="evenodd" stroke="none"/>
    <path d="M41.75 -39.7 Q43.85 -37.45 46.55 -36.3 49.15 -35.15 50.1 -33.2 51.0 -31.15 50.85 -30.6 L50.0 -29.05 Q46.6 -25.55 43.95 -24.4 41.2 -23.35 39.35 -23.9 37.5 -24.5 36.85 -27.7 36.25 -30.8 35.0 -33.5 33.7 -36.25 35.7 -38.65 L37.2 -40.35 Q39.55 -41.95 41.75 -39.7" fill="#9c9c9c" fill-rule="evenodd" stroke="none"/>
    <path d="M40.3 -34.3 Q39.7 -36.05 37.85 -36.3 36.0 -36.6 35.75 -38.2 35.5 -39.8 38.3 -40.65 40.55 -40.2 42.5 -38.8 45.1 -36.8 47.95 -35.25 49.15 -34.6 49.65 -33.25 50.85 -30.05 48.45 -27.6 46.0 -25.25 44.3 -26.0 42.55 -26.8 42.65 -28.0 42.8 -29.2 41.85 -30.9 40.85 -32.65 40.3 -34.3" fill="#bbbbbb" fill-rule="evenodd" stroke="none"/>
    <path d="M41.2 -48.2 L41.15 -47.55 Q39.25 -43.95 34.95 -44.1 L33.85 -44.25 Q31.7 -44.75 31.35 -46.65 31.25 -47.25 31.75 -47.85 34.15 -50.5 37.65 -51.6 40.7 -51.25 41.2 -48.2" fill="#a89797" fill-rule="evenodd" stroke="none"/>
    <path d="M15.35 -30.8 Q13.4 -31.35 13.55 -33.2 13.75 -36.15 16.15 -38.2 L20.4 -41.35 Q23.3 -43.3 26.75 -43.75 29.45 -43.7 31.7 -42.75 L32.4 -42.1 Q33.8 -39.85 34.25 -37.35 35.1 -32.4 31.0 -29.4 29.35 -28.1 27.0 -28.7 L22.75 -29.5 Q18.95 -29.8 15.35 -30.8" fill="#2c0707" fill-opacity="0.27058825" fill-rule="evenodd" stroke="none"/>
    <path d="M15.35 -32.4 Q13.4 -32.95 13.55 -34.8 13.75 -37.75 16.15 -39.8 L20.4 -42.95 Q23.3 -44.9 26.75 -45.35 29.45 -45.3 31.7 -44.35 L32.4 -43.7 Q33.8 -41.45 34.25 -38.95 35.1 -34.0 31.0 -31.0 29.35 -29.7 27.0 -30.3 L22.75 -31.1 Q18.95 -31.4 15.35 -32.4" fill="#706262" fill-rule="evenodd" stroke="none"/>
    <path d="M36.85 -31.4 Q38.05 -29.8 38.5 -27.15 38.9 -24.6 41.3 -24.0 L42.4 -23.75 42.1 -23.7 Q38.75 -22.75 37.55 -25.7 L36.45 -28.65 35.85 -30.55 34.85 -33.85 Q34.4 -35.1 34.75 -36.2 35.15 -33.6 36.85 -31.4" fill="#807d7d" fill-rule="evenodd" stroke="none"/>
    <path d="M40.55 -35.2 L42.95 -29.35 Q43.2 -28.7 43.05 -28.0 43.0 -27.05 44.1 -26.7 L46.1 -25.95 Q44.4 -25.35 42.75 -26.45 42.05 -26.9 42.05 -27.65 42.05 -28.45 42.4 -29.15 L41.2 -31.65 Q40.3 -33.5 39.05 -35.05 L38.7 -35.25 Q36.85 -35.65 36.25 -36.9 36.9 -36.4 38.05 -36.15 40.35 -35.65 40.55 -35.2" fill="#807d7d" fill-rule="evenodd" stroke="none"/>
    <path d="M-4.55 34.1 Q-6.1 35.3 -8.15 34.4 -10.2 33.5 -8.75 32.05 -7.95 31.2 -6.4 31.3 -1.7 31.85 -4.55 34.1" fill="#744425" fill-rule="evenodd" stroke="none"/>
    <path d="M-8.95 30.3 Q-9.9 31.5 -11.15 30.6 -12.45 29.7 -11.55 28.25 -11.05 27.4 -10.1 27.5 -7.2 28.05 -8.95 30.3" fill="#7b533a" fill-rule="evenodd" stroke="none"/>
    <path d="M18.05 -27.0 Q16.15 -25.15 14.05 -26.85 12.2 -28.45 14.4 -29.8 15.45 -30.45 16.5 -30.7 21.25 -30.0 18.05 -27.0" fill="#7b533a" fill-rule="evenodd" stroke="none"/>
    <path d="M22.4 -43.85 Q24.0 -44.6 25.7 -44.75 28.9 -44.8 31.55 -43.5 L32.45 -42.75 Q34.0 -40.75 32.9 -38.25 30.95 -34.1 26.25 -35.5 L20.1 -35.9 Q17.0 -35.3 15.95 -37.75 15.75 -38.25 15.9 -38.75 16.8 -41.3 19.35 -42.45 20.8 -43.25 22.4 -43.85" fill="#8c8282" fill-rule="evenodd" stroke="none"/>
    <path d="M15.7 -33.7 Q17.4 -32.55 20.6 -33.0 23.75 -33.55 27.2 -31.9 30.65 -30.3 32.45 -32.95 34.2 -35.55 34.35 -37.85 L34.4 -35.0 33.15 -32.4 Q32.15 -30.4 28.8 -30.2 25.5 -29.95 23.7 -30.8 21.9 -31.65 19.55 -31.55 15.6 -31.4 13.6 -34.45 L13.4 -35.0 Q13.35 -35.7 13.7 -36.1 L14.65 -37.2 Q14.45 -34.6 15.7 -33.7" fill="#4d4242" fill-rule="evenodd" stroke="none"/>
    <path d="M17.35 -36.55 L21.1 -36.4 25.2 -36.2 Q27.55 -35.1 30.05 -35.55 31.0 -35.75 31.55 -36.6 L32.45 -37.55 Q32.75 -36.55 31.9 -35.85 L30.8 -34.45 30.65 -34.3 30.6 -34.05 30.65 -33.5 30.6 -33.1 Q29.9 -32.8 29.8 -33.55 L29.2 -34.45 29.1 -34.6 Q25.7 -34.85 22.45 -35.65 L21.35 -35.65 17.3 -35.85 Q16.3 -36.25 16.1 -37.2 L16.05 -38.2 17.35 -36.55" fill="#584646" fill-rule="evenodd" stroke="none"/>
  </g>
  <defs>
    <radialGradient cx="0" cy="0" gradientTransform="matrix(0.1081, 0.0, 0.0, 0.0988, -3.45, -21.2)" gradientUnits="userSpaceOnUse" id="gradient0" r="819.2" spreadMethod="pad">
      <stop offset="0.0" stop-color="#c27a4c"/>
      <stop offset="0.9450980392156862" stop-color="#7e5236"/>
    </radialGradient>
    <linearGradient gradientTransform="matrix(0.0119, -0.0143, 0.011, 0.0064, -14.9, -25.2)" gradientUnits="userSpaceOnUse" id="gradient1" spreadMethod="pad" x1="-819.2" x2="819.2">
      <stop offset="0.011764705882352941" stop-color="#a83125"/>
      <stop offset="1.0" stop-color="#61170e"/>
    </linearGradient>
  </defs>
</svg>
