<?xml version="1.0" encoding="UTF-8" standalone="no"?>
<svg xmlns:ffdec="https://www.free-decompiler.com/flash" xmlns:xlink="http://www.w3.org/1999/xlink" ffdec:objectType="shape" height="112.75px" width="119.75px" xmlns="http://www.w3.org/2000/svg">
  <g transform="matrix(1.0, 0.0, 0.0, 1.0, 1.5, 1.5)">
    <path d="M89.85 6.8 Q83.85 6.3 78.5 8.4 L70.45 11.3 Q67.7 12.1 65.1 9.8 L57.75 3.9 Q53.05 0.35 49.9 0.05 46.75 -0.25 43.35 1.4 39.95 3.0 37.4 9.8 34.8 16.55 29.6 21.25 24.35 25.9 13.6 28.45 2.8 30.95 1.25 33.9 -0.3 36.85 0.1 40.0 0.45 43.15 6.85 47.55 13.2 51.9 13.25 56.2 13.25 60.5 8.85 67.75 4.45 75.0 4.45 78.4 4.45 83.3 6.25 85.4 8.0 87.45 9.1 88.0 10.15 88.55 11.7 88.6 L18.2 87.7 26.75 86.45 Q30.3 86.05 31.95 89.45 33.55 92.85 35.75 99.4 37.9 105.95 40.55 107.85 43.15 109.75 45.95 109.75 50.45 109.75 58.5 101.6 66.5 93.4 69.45 93.95 72.4 94.5 74.2 97.3 75.95 100.1 78.85 100.0 81.7 99.9 83.4 97.6 85.1 95.25 89.15 92.85 93.15 90.45 101.0 90.45 104.1 90.45 105.85 88.25 107.3 86.35 107.3 83.95 107.3 81.7 104.95 77.35 102.55 73.0 103.25 69.65 103.95 66.3 110.3 61.4 116.6 56.5 116.75 52.2 116.9 47.85 114.9 45.4 112.9 42.9 106.5 40.85 100.05 38.8 97.45 36.95 94.85 35.1 94.5 33.3 94.15 31.5 98.5 26.05 103.1 19.75 102.3 16.25 101.45 12.75 98.8 10.15 95.85 7.3 89.85 6.8 Z" fill="none" stroke="#ffffff" stroke-linecap="round" stroke-linejoin="round" stroke-width="3.0"/>
  </g>
</svg>
