<?xml version="1.0" encoding="UTF-8" standalone="no"?>
<svg xmlns:ffdec="https://www.free-decompiler.com/flash" xmlns:xlink="http://www.w3.org/1999/xlink" ffdec:objectType="shape" height="29.4px" width="38.55px" xmlns="http://www.w3.org/2000/svg">
  <g transform="matrix(1.0, 0.0, 0.0, 1.0, 35.35, 0.45)">
    <path d="M-1.5 24.85 L-1.65 24.3 -0.55 24.95 -0.45 23.95 -0.3 23.35 0.25 24.7 Q0.45 23.8 0.9 23.65 L1.15 23.5 0.95 24.8 1.45 24.5 2.7 24.45 2.85 24.65 Q2.6 24.55 1.9 25.15 L1.75 25.3 Q2.4 25.3 3.05 25.75 L2.25 26.35 2.15 26.4 2.7 27.15 2.0 27.2 2.25 28.2 1.3 27.6 0.9 27.2 0.95 27.65 Q1.1 28.65 1.4 28.95 L1.1 28.85 Q0.5 28.7 0.1 27.8 L-0.6 28.45 -0.75 27.35 -0.95 27.6 -0.9 27.1 -0.9 27.05 -1.95 26.9 -1.45 26.3 -1.85 26.05 -1.1 25.5 -1.5 24.85" fill="#351f17" fill-opacity="0.2901961" fill-rule="evenodd" stroke="none"/>
    <path d="M-0.3 23.6 L-0.15 22.95 Q-0.05 23.75 0.9 25.3 1.55 26.4 1.85 26.5 L1.6 26.55 Q1.0 26.75 0.15 25.95 -0.75 25.25 -0.3 23.6" fill="#276b16" fill-rule="evenodd" stroke="none"/>
    <path d="M1.6 27.2 L2.0 27.55 Q1.7 26.9 1.55 25.05 1.5 23.75 1.7 23.45 L1.4 23.55 Q0.95 23.75 0.75 24.95 0.45 26.1 1.6 27.2" fill="url(#gradient0)" fill-rule="evenodd" stroke="none"/>
    <path d="M0.6 25.95 L-0.3 26.75 -2.0 26.85 -1.35 26.05 Q-0.9 25.55 -0.25 25.7 L0.6 25.95" fill="#276b16" fill-rule="evenodd" stroke="none"/>
    <path d="M0.95 26.1 L0.95 26.55 2.2 25.25 Q2.9 24.7 3.2 24.75 L3.0 24.65 Q2.55 24.35 1.75 24.65 0.9 24.9 0.95 26.1" fill="url(#gradient1)" fill-rule="evenodd" stroke="none"/>
    <path d="M-1.3 26.05 Q-1.1 25.75 -0.5 25.4 0.05 25.05 0.65 25.4 L1.45 25.95 Q1.2 26.55 0.55 26.65 -0.35 26.75 -1.3 26.05" fill="url(#gradient2)" fill-rule="evenodd" stroke="none"/>
    <path d="M0.4 25.75 Q0.6 26.3 0.4 27.1 0.15 27.9 -0.6 28.5 L-0.7 27.3 Q-0.75 26.55 -0.3 26.2 0.15 25.8 0.4 25.75" fill="#276b16" fill-rule="evenodd" stroke="none"/>
    <path d="M-1.1 24.95 L-1.35 24.4 0.8 25.55 2.25 25.85 2.05 26.05 Q1.7 26.55 0.6 26.45 -0.55 26.4 -1.1 24.95" fill="url(#gradient3)" fill-rule="evenodd" stroke="none"/>
    <path d="M0.3 26.05 L0.75 25.8 Q0.5 26.3 0.7 27.75 0.8 28.65 1.05 28.9 L0.75 28.75 Q0.2 28.6 -0.25 27.7 -0.75 26.8 0.3 26.05" fill="url(#gradient4)" fill-rule="evenodd" stroke="none"/>
    <path d="M-0.35 25.45 L1.0 25.6 Q1.75 26.0 2.4 26.95 L1.3 27.0 Q0.6 27.0 0.2 26.35 L-0.35 25.45" fill="#276b16" fill-rule="evenodd" stroke="none"/>
    <path d="M-0.75 27.2 L-0.8 27.75 Q-0.45 27.25 0.9 26.7 L2.1 26.5 1.9 26.25 Q1.55 25.8 0.55 25.8 -0.4 25.8 -0.75 27.2" fill="url(#gradient5)" fill-rule="evenodd" stroke="none"/>
    <path d="M2.45 28.4 L1.5 27.75 Q0.9 27.3 0.75 26.65 L0.6 25.7 Q1.2 25.8 1.65 26.35 2.3 27.25 2.45 28.4" fill="url(#gradient6)" fill-rule="evenodd" stroke="none"/>
    <path d="M0.25 25.2 Q0.55 24.7 1.35 24.65 2.15 24.5 3.05 25.1 L2.2 25.75 Q1.65 26.1 1.1 25.75 L0.25 25.2" fill="url(#gradient7)" fill-rule="evenodd" stroke="none"/>
    <path d="M0.8 22.05 Q-4.9 21.95 -9.7 25.55 -14.55 29.15 -16.3 28.8 -18.05 28.45 -19.4 25.85 L-22.45 20.2 Q-23.5 18.4 -27.4 17.85 -31.4 17.25 -31.0 16.2 -30.65 15.3 -30.1 15.05 L-30.2 14.2 -30.3 14.05 Q-36.8 12.25 -34.9 11.2 L-30.6 9.2 Q-28.2 8.25 -24.95 8.2 -21.7 8.15 -22.15 3.95 -22.7 -0.25 -21.75 -0.45 -17.9 0.15 -16.1 5.05 -14.3 9.95 -11.45 12.35 -8.55 14.7 -2.65 15.6 3.2 16.4 -1.95 19.6 2.45 20.5 2.35 20.95 2.05 22.05 0.8 22.05" fill="#c68d36" fill-rule="evenodd" stroke="none"/>
    <path d="M-20.9 2.15 Q-20.1 0.55 -19.05 2.85 -18.0 5.1 -16.3 7.35 -14.55 9.55 -13.7 11.3 -12.8 13.1 -10.2 14.6 -7.65 16.1 -5.45 16.55 L-2.8 17.15 Q-2.25 17.2 -2.3 17.5 L-3.0 18.1 Q-3.8 18.45 -4.05 19.15 L-4.2 20.35 -7.45 20.15 -7.5 21.05 Q-7.7 22.1 -11.95 25.1 -16.3 28.05 -17.55 26.5 -18.85 24.9 -19.15 22.35 -19.55 19.75 -22.2 17.9 -24.85 16.05 -27.95 15.75 -28.8 14.9 -28.15 14.35 -27.6 13.85 -29.1 12.8 -30.65 11.8 -32.95 11.5 -31.4 10.85 -27.65 10.15 L-22.9 9.65 Q-22.0 9.75 -21.6 8.6 -20.25 5.3 -20.9 2.15" fill="#4e9fc9" fill-rule="evenodd" stroke="none"/>
    <path d="M-11.65 12.65 Q-8.6 15.2 -1.8 16.6 L-0.7 16.8 -1.0 17.65 -1.55 18.0 -2.55 18.65 -3.0 19.15 -3.15 19.45 -3.15 19.75 -3.05 19.85 -2.8 20.45 Q-2.25 21.6 -2.5 21.8 L-8.25 23.25 -8.7 23.5 -9.35 23.9 -10.4 24.65 Q-14.65 27.75 -16.05 27.65 -17.9 27.75 -18.3 26.55 L-18.85 25.5 Q-19.75 22.65 -21.4 19.7 L-21.4 19.6 Q-22.0 18.5 -23.45 17.75 -24.25 17.35 -25.4 17.1 L-27.2 16.85 -28.45 16.75 -29.05 16.3 -29.2 15.7 -28.95 15.1 Q-28.9 13.8 -29.2 13.55 L-29.3 13.45 -29.25 13.5 -29.55 13.15 -29.95 12.95 -33.45 11.7 Q-34.5 11.05 -31.4 10.2 -28.35 9.4 -25.45 9.35 -22.6 9.3 -21.8 7.65 -21.0 5.95 -21.65 3.0 -22.3 0.0 -20.8 0.35 -18.45 1.7 -16.9 5.2 -14.7 10.1 -11.6 12.65 L-11.65 12.65 M-20.9 2.15 Q-20.25 5.3 -21.6 8.6 -22.0 9.75 -22.9 9.65 L-27.65 10.15 Q-31.4 10.85 -32.95 11.5 -30.65 11.8 -29.1 12.8 -27.6 13.85 -28.15 14.35 -28.8 14.9 -27.95 15.75 -24.85 16.05 -22.2 17.9 -19.55 19.75 -19.15 22.35 -18.85 24.9 -17.55 26.5 -16.3 28.05 -11.95 25.1 -7.7 22.1 -7.5 21.05 L-7.45 20.15 -4.2 20.35 -4.05 19.15 Q-3.8 18.45 -3.0 18.1 L-2.3 17.5 Q-2.25 17.2 -2.8 17.15 L-5.45 16.55 Q-7.65 16.1 -10.2 14.6 -12.8 13.1 -13.7 11.3 -14.55 9.55 -16.3 7.35 -18.0 5.1 -19.05 2.85 -20.1 0.55 -20.9 2.15" fill="#c1ebfb" fill-rule="evenodd" stroke="none"/>
  </g>
  <defs>
    <linearGradient gradientTransform="matrix(0.0019, -0.0016, -9.0E-4, -7.0E-4, 2.0, 24.6)" gradientUnits="userSpaceOnUse" id="gradient0" spreadMethod="pad" x1="-819.2" x2="819.2">
      <stop offset="0.0" stop-color="#358023"/>
      <stop offset="0.9450980392156862" stop-color="#95bd53"/>
    </linearGradient>
    <linearGradient gradientTransform="matrix(0.0016, 6.0E-4, -2.0E-4, -0.0017, 2.55, 25.05)" gradientUnits="userSpaceOnUse" id="gradient1" spreadMethod="pad" x1="-819.2" x2="819.2">
      <stop offset="0.0" stop-color="#358023"/>
      <stop offset="0.9450980392156862" stop-color="#95bd53"/>
    </linearGradient>
    <linearGradient gradientTransform="matrix(-3.0E-4, 0.0018, -8.0E-4, -6.0E-4, -0.25, 26.75)" gradientUnits="userSpaceOnUse" id="gradient2" spreadMethod="pad" x1="-819.2" x2="819.2">
      <stop offset="0.0" stop-color="#358023"/>
      <stop offset="0.9450980392156862" stop-color="#95bd53"/>
    </linearGradient>
    <linearGradient gradientTransform="matrix(0.002, -0.0015, 3.0E-4, 0.0011, 1.3, 25.2)" gradientUnits="userSpaceOnUse" id="gradient3" spreadMethod="pad" x1="-819.2" x2="819.2">
      <stop offset="0.0" stop-color="#358023"/>
      <stop offset="0.9450980392156862" stop-color="#95bd53"/>
    </linearGradient>
    <linearGradient gradientTransform="matrix(0.0023, 0.0014, -8.0E-4, 4.0E-4, 1.2, 28.05)" gradientUnits="userSpaceOnUse" id="gradient4" spreadMethod="pad" x1="-819.2" x2="819.2">
      <stop offset="0.0" stop-color="#358023"/>
      <stop offset="0.9450980392156862" stop-color="#95bd53"/>
    </linearGradient>
    <linearGradient gradientTransform="matrix(0.002, 0.0016, 2.0E-4, -0.001, 1.4, 27.05)" gradientUnits="userSpaceOnUse" id="gradient5" spreadMethod="pad" x1="-819.2" x2="819.2">
      <stop offset="0.0" stop-color="#358023"/>
      <stop offset="0.9450980392156862" stop-color="#95bd53"/>
    </linearGradient>
    <linearGradient gradientTransform="matrix(0.0013, -2.0E-4, 1.0E-4, 0.001, 2.2, 27.1)" gradientUnits="userSpaceOnUse" id="gradient6" spreadMethod="pad" x1="-819.2" x2="819.2">
      <stop offset="0.0" stop-color="#358023"/>
      <stop offset="0.9450980392156862" stop-color="#95bd53"/>
    </linearGradient>
    <linearGradient gradientTransform="matrix(3.0E-4, -0.0018, 8.0E-4, 6.0E-4, 1.95, 24.4)" gradientUnits="userSpaceOnUse" id="gradient7" spreadMethod="pad" x1="-819.2" x2="819.2">
      <stop offset="0.0" stop-color="#358023"/>
      <stop offset="0.9450980392156862" stop-color="#95bd53"/>
    </linearGradient>
  </defs>
</svg>
