<?xml version="1.0" encoding="UTF-8" standalone="no"?>
<svg xmlns:ffdec="https://www.free-decompiler.com/flash" xmlns:xlink="http://www.w3.org/1999/xlink" ffdec:objectType="shape" height="104.65px" width="96.55px" xmlns="http://www.w3.org/2000/svg">
  <g transform="matrix(1.0, 0.0, 0.0, 1.0, 1.5, 1.5)">
    <path d="M84.4 10.3 Q88.75 14.95 89.1 24.15 89.4 33.3 88.15 39.3 86.9 45.25 87.2 49.45 L87.5 55.95 Q87.5 58.15 90.05 63.3 94.2 71.65 93.45 75.7 92.7 79.75 82.75 86.05 72.8 92.35 67.8 93.85 62.75 95.3 59.15 98.5 55.55 101.65 51.15 101.65 45.4 101.65 41.6 96.15 38.05 89.6 32.85 87.45 27.6 85.25 19.0 83.1 15.5 82.2 12.9 80.0 L9.4 76.9 Q5.2 74.2 2.2 66.2 -1.55 56.2 2.3 47.8 L1.1 41.1 Q-0.25 34.35 0.05 32.5 0.7 28.25 4.2 24.15 9.6 17.85 19.9 15.25 21.7 14.8 29.6 7.8 37.45 0.85 39.7 0.45 46.1 -0.8 51.75 1.55 55.65 3.15 69.9 4.5 80.05 5.65 84.4 10.3 Z" fill="none" stroke="#ffffff" stroke-linecap="round" stroke-linejoin="round" stroke-width="3.0"/>
  </g>
</svg>
