<?xml version="1.0" encoding="UTF-8" standalone="no"?>
<svg xmlns:ffdec="https://www.free-decompiler.com/flash" xmlns:xlink="http://www.w3.org/1999/xlink" ffdec:objectType="shape" height="99.75px" width="93.65px" xmlns="http://www.w3.org/2000/svg">
  <g transform="matrix(1.0, 0.0, 0.0, 1.0, 47.25, 49.75)">
    <path d="M38.6 -4.45 Q38.95 1.2 35.35 5.6 39.45 13.3 45.55 19.9 46.35 20.75 46.4 22.0 46.7 28.3 39.3 29.5 35.05 30.2 33.2 33.05 L32.0 35.15 Q27.7 43.9 17.15 42.7 13.9 42.3 11.6 45.0 4.35 53.6 -4.2 47.4 -5.2 46.65 -5.65 45.35 -8.5 36.9 -17.1 33.05 -20.75 31.45 -23.05 28.5 -30.25 27.1 -36.9 24.1 -40.35 22.55 -39.85 18.75 -39.15 12.85 -45.35 10.5 -47.15 9.8 -46.75 7.8 -45.5 1.2 -39.45 -2.25 -42.55 -5.6 -46.85 -8.25 -47.35 -8.5 -47.2 -9.45 -46.55 -14.95 -42.7 -19.3 -42.1 -19.95 -41.85 -21.05 -39.4 -30.8 -28.25 -33.3 -26.8 -33.65 -25.5 -34.55 -15.5 -41.15 -6.15 -48.05 -2.9 -51.55 3.75 -47.75 10.45 -43.95 17.75 -45.5 25.0 -47.05 35.0 -39.15 44.95 -31.3 39.7 -21.65 38.9 -20.2 38.5 -18.5 37.1 -13.05 38.15 -8.0 L38.6 -4.45" fill="#7bd8e7" fill-opacity="0.36078432" fill-rule="evenodd" stroke="none"/>
    <path d="M-4.85 -43.95 Q0.15 -46.15 5.85 -43.85 12.9 -44.3 18.3 -40.9 23.7 -37.55 28.0 -36.95 32.3 -36.4 33.75 -34.7 35.2 -33.0 33.4 -27.15 31.6 -21.35 34.4 -14.65 37.1 -8.0 36.3 -5.2 34.75 0.45 34.4 4.55 34.05 8.65 36.35 11.8 L41.35 18.15 Q44.0 21.25 43.2 22.6 39.85 28.1 33.75 29.3 31.9 29.7 30.65 31.3 30.1 37.3 24.9 39.85 L22.0 40.0 Q19.8 39.2 17.65 39.45 14.0 39.8 11.15 42.75 8.35 45.6 1.75 45.7 -4.75 45.7 -6.2 40.3 -7.55 34.85 -10.55 31.9 -13.55 29.0 -16.8 28.6 -24.1 27.85 -30.55 24.8 -35.65 22.4 -32.25 16.3 -34.05 10.6 -38.95 9.1 -43.95 7.6 -39.3 2.7 -34.65 -2.2 -40.1 -6.4 -45.65 -10.55 -39.55 -16.8 L-39.5 -19.65 Q-39.3 -22.8 -37.45 -25.35 -35.55 -28.0 -25.25 -33.8 L-21.4 -36.05 Q-19.4 -36.95 -17.45 -38.0 -11.25 -41.2 -4.85 -43.95" fill="#c1ebfb" fill-rule="evenodd" stroke="none"/>
    <path d="M-38.6 -1.4 L-38.6 -1.55 -38.65 -2.05 Q-39.0 -7.4 -37.9 -13.1 L-37.8 -13.55 Q-36.55 -19.85 -33.8 -24.75 -30.45 -30.6 -25.4 -33.5 -21.8 -35.55 -18.6 -36.35 -14.9 -37.3 -10.4 -39.5 -6.2 -41.6 0.15 -42.25 5.4 -42.75 9.2 -42.1 15.75 -41.1 21.5 -37.0 26.85 -33.2 29.75 -28.2 L30.6 -26.65 Q32.1 -23.9 32.65 -22.05 33.25 -19.85 33.75 -15.25 34.3 -9.35 32.15 -2.4 30.05 3.25 30.3 3.6 30.5 3.9 32.25 4.3 34.0 4.7 34.15 7.25 34.2 9.75 34.75 10.65 35.1 11.25 35.3 13.6 35.45 15.95 35.8 16.65 L37.2 17.85 38.65 19.2 Q40.05 21.65 40.0 23.45 40.05 25.4 38.7 25.85 L33.25 26.05 Q29.2 25.8 29.35 27.75 29.5 29.6 28.85 30.8 L27.95 32.85 Q26.6 36.2 23.9 37.75 22.95 38.3 21.9 38.25 L20.0 37.5 18.85 36.25 17.1 34.3 16.2 33.75 15.25 38.05 Q14.25 41.35 12.65 42.9 10.1 45.25 4.25 44.6 -1.7 44.0 -4.9 36.2 -8.2 28.35 -18.35 26.85 -28.5 25.3 -32.2 19.55 -35.55 14.35 -37.45 3.55 -38.15 -0.1 -38.65 -4.4 L-38.7 -4.75 -38.65 -4.25 -38.6 -2.45 -38.5 -1.15 -38.6 -1.4 M23.5 -33.4 Q10.8 -42.85 -1.75 -40.45 -14.4 -38.05 -17.0 -33.65 -19.65 -29.3 -18.95 -27.55 -18.35 -25.9 -23.9 -27.9 -29.4 -29.9 -31.35 -21.8 -33.3 -13.7 -33.95 -12.35 -38.15 -3.15 -35.75 2.1 -33.4 7.4 -32.9 14.8 -32.4 22.2 -20.8 24.25 -9.25 26.3 -5.95 32.2 L-0.85 40.95 Q1.0 43.95 7.25 44.05 13.45 44.1 13.5 37.6 13.6 31.05 15.65 31.05 20.9 31.05 21.8 36.55 21.9 37.0 22.5 37.05 24.55 36.1 26.45 32.6 28.35 29.15 28.6 25.4 28.85 21.55 32.0 23.45 35.1 25.4 35.8 24.15 36.5 22.85 35.05 20.65 31.7 15.85 31.9 10.7 32.0 5.5 27.05 4.05 22.0 2.55 24.5 2.9 26.9 3.25 31.55 -10.3 36.15 -23.9 23.5 -33.4" fill="#c68d36" fill-rule="evenodd" stroke="none"/>
    <path d="M-38.6 -1.4 L-38.5 -1.15 Q-38.45 1.2 -38.6 -1.4" fill="url(#gradient0)" fill-rule="evenodd" stroke="none"/>
    <path d="M23.5 -33.4 Q36.15 -23.9 31.55 -10.3 26.9 3.25 24.5 2.9 22.0 2.55 27.05 4.05 32.0 5.5 31.9 10.7 31.7 15.85 35.05 20.65 36.5 22.85 35.8 24.15 35.1 25.4 32.0 23.45 28.85 21.55 28.6 25.4 28.35 29.15 26.45 32.6 24.55 36.1 22.5 37.05 21.9 37.0 21.8 36.55 20.9 31.05 15.65 31.05 13.6 31.05 13.5 37.6 13.45 44.1 7.25 44.05 1.0 43.95 -0.85 40.95 L-5.95 32.2 Q-9.25 26.3 -20.8 24.25 -32.4 22.2 -32.9 14.8 -33.4 7.4 -35.75 2.1 -38.15 -3.15 -33.95 -12.35 -33.3 -13.7 -31.35 -21.8 -29.4 -29.9 -23.9 -27.9 -18.35 -25.9 -18.95 -27.55 -19.65 -29.3 -17.0 -33.65 -14.4 -38.05 -1.75 -40.45 10.8 -42.85 23.5 -33.4" fill="#e2b051" fill-opacity="0.9882353" fill-rule="evenodd" stroke="none"/>
  </g>
  <defs>
    <radialGradient cx="0" cy="0" gradientTransform="matrix(0.0572, 0.0, 0.0, 0.0572, 5.65, -1.9)" gradientUnits="userSpaceOnUse" id="gradient0" r="819.2" spreadMethod="pad">
      <stop offset="0.0" stop-color="#deab49"/>
      <stop offset="0.9450980392156862" stop-color="#c28b37"/>
    </radialGradient>
  </defs>
</svg>
