<?xml version="1.0" encoding="UTF-8" standalone="no"?>
<svg xmlns:ffdec="https://www.free-decompiler.com/flash" xmlns:xlink="http://www.w3.org/1999/xlink" ffdec:objectType="shape" height="82.3px" width="65.8px" xmlns="http://www.w3.org/2000/svg">
  <g transform="matrix(1.0, 0.0, 0.0, 1.0, 34.65, 39.1)">
    <path d="M4.3 38.75 Q3.55 39.95 2.25 39.3 0.85 38.6 1.7 37.15 2.2 36.4 2.95 36.2 5.8 36.4 4.3 38.75" fill="#af6e30" fill-rule="evenodd" stroke="none"/>
    <path d="M11.5 39.85 Q11.55 40.7 10.8 41.1 L9.3 41.15 9.05 40.7 Q9.0 40.15 9.2 39.75 9.5 39.0 10.25 38.85 11.35 38.8 11.5 39.85" fill="#af6e30" fill-rule="evenodd" stroke="none"/>
    <path d="M4.55 33.15 L4.65 33.1 4.85 33.1 Q5.25 33.1 5.35 33.4 L5.5 34.05 5.3 34.45 5.1 34.55 4.65 34.55 4.45 34.4 4.3 34.2 4.2 33.9 4.3 33.5 4.45 33.3 4.55 33.15" fill="#af6e30" fill-rule="evenodd" stroke="none"/>
    <path d="M6.7 42.75 Q6.15 43.55 5.25 42.95 3.7 41.95 5.55 41.35 L5.75 41.25 Q7.75 41.35 6.7 42.75" fill="#af6e30" fill-rule="evenodd" stroke="none"/>
    <path d="M-11.8 24.65 Q-12.2 25.5 -13.25 25.4 -15.55 25.15 -14.25 23.25 L-13.4 22.65 Q-10.75 22.65 -11.8 24.65" fill="#af6e30" fill-rule="evenodd" stroke="none"/>
    <path d="M9.45 -37.45 Q9.0 -36.6 7.95 -37.0 5.75 -37.65 7.5 -38.9 L7.95 -39.1 Q10.3 -39.25 9.45 -37.45" fill="#af6e30" fill-rule="evenodd" stroke="none"/>
    <path d="M-26.9 -24.6 L-28.5 -24.55 Q-28.95 -25.05 -28.55 -25.65 L-28.25 -26.05 -28.1 -26.15 -28.0 -26.2 -27.8 -26.2 Q-26.25 -26.1 -26.9 -24.6" fill="#af6e30" fill-rule="evenodd" stroke="none"/>
    <path d="M-32.0 7.0 Q-32.65 8.9 -34.1 7.2 -35.4 5.6 -33.75 4.8 -31.35 4.7 -32.0 7.0" fill="#af6e30" fill-rule="evenodd" stroke="none"/>
    <path d="M30.55 -11.0 Q29.2 -9.55 28.55 -11.35 28.35 -12.0 28.95 -12.4 29.35 -12.8 29.9 -12.85 32.0 -12.6 30.55 -11.0" fill="#af6e30" fill-rule="evenodd" stroke="none"/>
    <path d="M-13.0 17.85 L-13.0 17.65 -13.0 17.5 -12.95 17.35 -12.7 17.05 -12.15 16.8 -12.05 16.8 -11.8 16.85 -11.6 17.05 -11.5 17.2 -11.5 17.4 -11.6 17.65 -11.8 18.0 -11.9 18.2 -12.2 18.25 -12.7 18.2 -12.85 18.15 -12.9 18.0 -12.95 17.95 -13.0 17.85" fill="#af6e30" fill-rule="evenodd" stroke="none"/>
    <path d="M25.2 31.75 Q24.4 32.75 24.05 31.55 23.8 30.7 24.65 30.65 26.1 30.8 25.2 31.75" fill="#af6e30" fill-rule="evenodd" stroke="none"/>
  </g>
</svg>
