<?xml version="1.0" encoding="UTF-8" standalone="no"?>
<svg xmlns:ffdec="https://www.free-decompiler.com/flash" xmlns:xlink="http://www.w3.org/1999/xlink" ffdec:objectType="shape" height="100.35px" width="97.05px" xmlns="http://www.w3.org/2000/svg">
  <g transform="matrix(1.0, 0.0, 0.0, 1.0, 1.5, 1.5)">
    <path d="M86.15 17.55 Q94.05 17.55 94.05 20.6 L90.4 26.7 Q86.75 33.0 86.75 36.7 L89.7 38.65 Q92.6 40.85 92.6 42.3 92.6 45.95 88.45 50.45 84.35 54.95 84.35 56.45 L85.75 59.95 Q87.15 63.45 87.15 64.85 L86.55 68.0 85.95 71.2 Q85.95 74.7 89.55 80.9 L93.2 86.55 Q93.2 94.45 84.8 94.45 81.0 92.8 76.75 91.25 68.2 88.0 65.4 88.0 60.85 88.0 48.7 92.7 36.55 97.35 27.85 97.35 14.65 97.35 11.95 93.4 10.95 91.85 10.65 88.7 L10.35 82.25 Q9.8 77.2 5.1 74.2 0.55 71.3 0.55 67.95 0.55 64.2 3.05 60.9 5.5 57.6 5.5 56.3 L3.15 51.15 Q6.4 47.9 8.9 43.85 L3.25 38.75 Q0.0 35.75 0.0 32.5 L2.35 27.35 Q4.65 22.45 4.65 18.85 4.65 17.35 3.85 14.25 3.0 11.15 3.0 7.9 3.0 3.05 5.95 1.05 7.5 0.0 9.5 0.0 12.15 0.0 17.4 2.15 22.7 4.3 26.5 4.3 L31.25 3.3 35.95 2.3 43.45 4.2 51.3 6.05 57.05 5.0 Q59.6 4.25 63.25 6.75 67.05 9.4 67.05 12.75 L64.85 18.5 Q64.6 23.85 68.25 23.4 67.2 24.0 75.1 20.7 83.1 17.55 86.15 17.55 Z" fill="none" stroke="#ffffff" stroke-linecap="round" stroke-linejoin="round" stroke-width="3.0"/>
  </g>
</svg>
