<?xml version="1.0" encoding="UTF-8" standalone="no"?>
<svg xmlns:ffdec="https://www.free-decompiler.com/flash" xmlns:xlink="http://www.w3.org/1999/xlink" ffdec:objectType="shape" height="97.45px" width="94.0px" xmlns="http://www.w3.org/2000/svg">
  <g transform="matrix(1.0, 0.0, 0.0, 1.0, 46.3, 48.15)">
    <path d="M4.8 -42.0 L7.8 -42.5 10.75 -43.05 Q14.15 -43.05 17.3 -40.9 20.75 -38.55 20.75 -35.3 20.75 -34.45 19.2 -32.1 17.8 -29.95 17.25 -29.55 18.55 -28.2 19.8 -23.65 23.75 -25.2 30.05 -28.25 35.3 -30.5 39.85 -30.5 45.9 -30.5 47.25 -28.7 48.4 -27.35 46.7 -24.25 L42.8 -18.05 Q40.45 -14.05 40.45 -11.35 40.45 -11.15 43.25 -10.0 46.1 -8.85 46.15 -7.9 46.4 -6.5 46.15 -4.2 45.85 -1.35 45.0 0.0 44.0 1.5 40.85 3.85 L40.0 4.55 Q36.65 8.2 38.75 10.85 40.85 13.45 40.85 16.8 40.85 18.45 40.3 19.7 39.65 20.95 39.65 23.15 39.65 26.05 43.25 32.45 45.1 35.75 46.9 38.5 46.9 42.25 44.7 44.35 42.6 46.4 38.6 46.4 L31.75 43.7 Q25.45 40.9 22.05 40.15 18.55 39.35 12.95 40.85 7.6 42.15 4.75 43.55 -7.0 49.3 -18.45 49.3 -26.65 49.3 -31.85 47.55 -36.95 45.8 -36.1 37.85 -35.25 29.9 -40.5 27.0 -45.75 24.15 -45.75 19.9 L-43.25 14.7 Q-40.8 9.35 -40.8 8.05 -40.8 7.45 -42.0 5.9 -43.15 4.35 -43.15 3.1 -43.15 1.7 -41.15 -0.25 -38.15 -3.05 -37.4 -4.2 -38.45 -5.75 -43.0 -10.0 -46.3 -13.15 -46.3 -15.55 -46.3 -16.5 -43.45 -21.95 -40.5 -27.5 -42.6 -33.95 -44.7 -40.4 -41.45 -45.85 -38.25 -51.3 -19.8 -43.75 L-12.25 -45.65 Q-8.65 -46.35 -3.9 -44.15 0.85 -42.0 4.8 -42.0" fill="#7bd8e7" fill-opacity="0.36078432" fill-rule="evenodd" stroke="none"/>
    <path d="M-28.65 -40.65 L-26.65 -40.05 Q-24.8 -39.65 -22.55 -40.05 L-17.6 -41.75 Q-13.25 -43.45 -11.75 -43.7 -7.75 -44.65 -4.55 -42.1 -1.4 -39.5 5.15 -39.45 L10.75 -40.55 Q11.85 -40.55 14.0 -39.7 15.95 -38.85 16.9 -38.05 17.6 -37.5 17.8 -36.6 18.05 -35.85 17.75 -35.05 17.5 -34.2 15.65 -31.65 14.0 -29.05 15.2 -27.9 L16.8 -26.05 16.95 -24.5 16.15 -21.95 Q17.55 -19.65 22.4 -22.15 29.95 -26.25 34.95 -27.4 39.95 -28.65 42.6 -27.4 45.2 -26.4 42.05 -21.6 34.85 -10.4 40.15 -8.5 L40.75 -7.6 Q42.1 -5.7 42.1 -3.8 42.2 -0.35 39.05 1.8 L34.3 4.15 Q29.95 6.4 31.9 8.4 32.6 9.15 35.9 10.1 38.6 11.6 38.0 15.3 L37.25 19.05 Q36.8 20.4 36.8 22.8 36.95 26.15 39.9 30.45 44.2 36.7 43.9 38.25 43.95 42.4 42.25 43.35 39.05 45.0 29.75 38.35 24.7 34.7 20.1 34.6 19.5 34.6 3.6 40.25 -12.4 46.0 -16.95 46.05 -28.75 46.05 -31.35 44.1 -34.1 42.15 -34.15 41.0 -34.35 39.7 -32.65 37.4 -30.95 35.0 -25.8 31.8 -20.55 28.55 -21.25 25.4 -22.0 22.15 -27.1 22.2 L-33.8 22.4 Q-45.9 22.95 -42.1 17.4 L-39.65 11.85 Q-39.1 10.1 -38.05 8.4 -37.1 6.6 -38.65 5.7 -40.05 4.75 -40.4 3.8 -40.65 2.75 -40.05 1.8 -39.95 1.25 -36.25 -1.6 -32.55 -4.75 -37.3 -8.8 L-37.3 -8.75 Q-46.6 -16.45 -39.6 -22.6 L-38.25 -24.7 Q-36.85 -26.85 -37.2 -35.2 -37.5 -43.65 -36.15 -43.7 -35.5 -43.8 -32.8 -42.65 -29.9 -41.55 -28.75 -40.65 L-28.65 -40.65 M-39.75 -22.4 Q-41.95 -19.8 -40.15 -21.85 L-40.2 -21.75 -39.75 -22.4" fill="#c1ebfb" fill-rule="evenodd" stroke="none"/>
    <path d="M-24.15 -35.6 L-16.7 -37.8 -10.35 -39.1 Q-7.95 -39.45 -9.2 -36.65 -10.4 -33.9 -9.2 -33.15 -2.65 -33.8 2.35 -36.25 7.25 -38.7 10.15 -38.65 L13.35 -38.3 14.55 -37.4 Q15.4 -36.85 8.55 -30.65 1.65 -24.45 4.8 -25.2 16.0 -29.35 11.55 -23.35 11.45 -22.3 10.2 -20.0 9.1 -17.8 9.1 -17.2 9.1 -15.15 11.55 -15.1 14.05 -15.1 19.85 -17.65 L29.0 -21.95 Q32.35 -23.7 35.9 -23.45 39.35 -23.35 38.6 -20.75 37.85 -18.2 33.35 -12.6 28.85 -7.0 33.7 -7.15 38.5 -7.3 39.75 -4.7 41.05 -2.2 37.85 -1.35 34.6 -0.6 30.5 1.85 26.4 4.3 22.95 9.5 L22.3 11.25 22.2 11.15 22.15 11.6 Q22.0 12.3 22.2 12.75 22.65 16.0 28.15 14.2 35.15 11.8 35.75 13.2 36.35 14.55 36.0 16.3 35.7 18.1 33.1 21.3 30.5 24.45 34.85 29.7 L40.85 37.2 Q42.55 39.5 39.3 38.25 35.95 36.95 29.25 33.7 22.55 30.5 18.05 30.5 13.55 30.5 9.3 33.25 5.0 35.95 -6.1 39.0 -17.25 42.0 -26.15 41.65 -35.0 41.3 -28.1 36.8 -17.2 29.1 -15.25 24.6 -13.35 20.0 -19.35 18.85 L-29.15 17.8 -36.45 17.95 Q-39.9 18.0 -39.9 15.75 -39.9 13.5 -35.05 7.9 -30.15 2.25 -31.25 2.1 L-32.15 2.1 -32.6 2.1 -33.1 2.05 Q-35.85 1.65 -35.05 0.55 -30.35 -3.35 -32.2 -6.6 -33.55 -8.65 -37.2 -12.5 -40.9 -16.4 -41.3 -17.55 -41.75 -18.7 -41.45 -19.65 -41.15 -20.65 -38.15 -21.2 -35.15 -21.75 -35.2 -27.3 -35.2 -30.1 -35.35 -32.0 -35.5 -34.0 -35.0 -36.9 -34.55 -39.9 -31.05 -37.2 -27.65 -34.55 -24.15 -35.6" fill="#fad14c" fill-rule="evenodd" stroke="none"/>
    <path d="M-24.15 -35.6 Q-27.65 -34.55 -31.05 -37.2 -34.55 -39.9 -35.0 -36.9 -35.5 -34.0 -35.35 -32.0 -35.2 -30.1 -35.2 -27.3 -35.15 -21.75 -38.15 -21.2 -41.15 -20.65 -41.45 -19.65 -41.75 -18.7 -41.3 -17.55 -40.9 -16.4 -37.2 -12.5 -33.55 -8.65 -32.2 -6.6 -30.35 -3.35 -35.05 0.55 -35.85 1.65 -33.1 2.05 L-32.6 2.1 -32.15 2.1 -31.25 2.1 Q-30.15 2.25 -35.05 7.9 -39.9 13.5 -39.9 15.75 -39.9 18.0 -36.45 17.95 L-29.15 17.8 -19.35 18.85 Q-13.35 20.0 -15.25 24.6 -17.2 29.1 -28.1 36.8 -35.0 41.3 -26.15 41.65 -17.25 42.0 -6.1 39.0 5.0 35.95 9.3 33.25 13.55 30.5 18.05 30.5 22.55 30.5 29.25 33.7 35.95 36.95 39.3 38.25 42.55 39.5 40.85 37.2 L34.85 29.7 Q30.5 24.45 33.1 21.3 35.7 18.1 36.0 16.3 36.35 14.55 35.75 13.2 35.15 11.8 28.15 14.2 22.65 16.0 22.2 12.75 22.0 12.3 22.15 11.6 L22.2 11.15 22.3 11.25 22.95 9.5 Q26.4 4.3 30.5 1.85 34.6 -0.6 37.85 -1.35 41.05 -2.2 39.75 -4.7 38.5 -7.3 33.7 -7.15 28.85 -7.0 33.35 -12.6 37.85 -18.2 38.6 -20.75 39.35 -23.35 35.9 -23.45 32.35 -23.7 29.0 -21.95 L19.85 -17.65 Q14.05 -15.1 11.55 -15.1 9.1 -15.15 9.1 -17.2 9.1 -17.8 10.2 -20.0 11.45 -22.3 11.55 -23.35 16.0 -29.35 4.8 -25.2 1.65 -24.45 8.55 -30.65 15.4 -36.85 14.55 -37.4 L13.35 -38.3 10.15 -38.65 Q7.25 -38.7 2.35 -36.25 -2.65 -33.8 -9.2 -33.15 -10.4 -33.9 -9.2 -36.65 -7.95 -39.45 -10.35 -39.1 L-16.7 -37.8 -24.15 -35.6 M-23.25 -37.6 L-17.2 -39.4 Q-10.4 -41.5 -8.25 -41.5 -6.25 -41.5 -6.25 -39.3 -6.25 -37.75 -8.9 -35.2 -2.9 -36.35 4.15 -38.35 8.95 -39.7 10.95 -39.7 L13.35 -39.1 15.8 -37.8 Q15.4 -36.8 12.05 -32.8 8.45 -28.45 7.05 -27.7 12.0 -28.1 14.85 -26.35 14.65 -25.2 13.3 -22.6 12.05 -20.15 12.05 -19.45 12.05 -17.2 14.35 -17.2 17.35 -17.2 24.7 -21.0 32.0 -24.85 36.15 -24.85 37.8 -24.85 38.8 -23.75 39.85 -22.7 39.85 -21.5 39.85 -20.65 34.9 -9.15 39.15 -8.8 40.85 -6.7 41.75 -5.6 41.75 -4.5 41.75 -2.3 39.65 -1.0 39.35 -0.8 34.9 1.35 28.05 4.65 25.45 11.05 L26.4 12.15 27.4 12.7 Q31.1 11.2 36.65 12.5 L37.2 14.15 37.3 15.35 Q37.3 16.6 36.7 18.25 36.1 19.95 36.1 23.05 36.1 27.25 39.85 32.65 43.6 37.9 43.6 39.1 43.6 41.3 41.2 41.3 39.45 41.3 32.75 36.95 26.05 32.55 20.95 32.55 16.5 32.55 12.3 34.15 L4.45 37.5 Q-7.55 42.4 -27.1 42.4 -30.35 42.4 -32.55 40.8 -30.5 37.15 -21.55 29.55 -12.6 21.9 -26.2 19.65 L-26.9 19.65 Q-34.8 19.8 -36.5 19.55 -40.8 19.0 -40.8 16.6 -40.8 14.25 -39.5 12.0 L-35.15 5.25 Q-40.55 4.7 -38.2 2.75 -32.2 -3.9 -34.3 -7.55 -35.95 -8.4 -38.2 -11.3 -42.65 -17.15 -42.65 -18.85 -42.65 -19.9 -41.45 -21.3 L-39.45 -23.15 Q-37.6 -24.55 -36.85 -30.8 L-36.6 -36.8 Q-36.6 -37.95 -34.95 -39.7 -34.65 -39.9 -30.55 -38.3 -27.45 -36.5 -23.25 -37.6" fill="#db9d42" fill-rule="evenodd" stroke="none"/>
    <path d="M19.5 27.85 Q17.45 29.1 16.3 27.7 15.0 26.4 17.9 26.0 21.95 26.5 19.5 27.85" fill="#db9d42" fill-rule="evenodd" stroke="none"/>
    <path d="M23.0 9.0 Q22.4 10.0 21.65 9.25 21.05 8.75 21.55 8.1 L22.05 7.8 Q23.7 7.7 23.0 9.0" fill="#db9d42" fill-rule="evenodd" stroke="none"/>
    <path d="M20.45 10.3 Q20.05 11.05 19.4 10.4 18.45 9.4 19.65 8.7 19.75 8.6 19.8 8.6 21.25 8.9 20.45 10.3" fill="#db9d42" fill-rule="evenodd" stroke="none"/>
    <path d="M20.05 4.85 L20.65 5.55 Q22.05 8.45 20.35 7.85 19.2 7.45 18.85 5.55 18.65 3.85 20.05 4.85" fill="#db9d42" fill-rule="evenodd" stroke="none"/>
    <path d="M12.65 -9.6 Q12.35 -8.8 11.7 -9.45 10.9 -10.4 12.0 -10.9 13.1 -10.65 12.65 -9.6" fill="#db9d42" fill-rule="evenodd" stroke="none"/>
    <path d="M39.0 34.3 Q36.95 35.55 35.8 34.15 34.5 32.85 37.4 32.45 41.45 32.95 39.0 34.3" fill="#db9d42" fill-rule="evenodd" stroke="none"/>
    <path d="M37.4 -3.2 Q35.35 -1.95 34.2 -3.35 32.9 -4.65 35.8 -5.05 39.85 -4.55 37.4 -3.2" fill="#db9d42" fill-rule="evenodd" stroke="none"/>
    <path d="M35.2 -20.6 Q34.9 -19.8 34.25 -20.45 33.45 -21.4 34.55 -21.9 35.65 -21.65 35.2 -20.6" fill="#db9d42" fill-rule="evenodd" stroke="none"/>
    <path d="M32.75 27.85 Q30.7 29.1 29.55 27.7 28.25 26.4 31.15 26.0 35.2 26.5 32.75 27.85" fill="#db9d42" fill-rule="evenodd" stroke="none"/>
    <path d="M-35.25 11.0 L-34.65 11.7 Q-33.25 14.6 -34.95 14.0 -36.1 13.6 -36.45 11.7 -36.65 10.0 -35.25 11.0" fill="#db9d42" fill-rule="evenodd" stroke="none"/>
    <path d="M10.05 -36.8 Q11.25 -37.1 11.45 -36.15 11.55 -35.7 11.1 -35.35 10.25 -34.8 9.3 -35.15 L9.05 -35.35 8.95 -35.5 8.95 -35.6 8.95 -35.85 8.95 -36.1 9.05 -36.3 9.1 -36.35 9.3 -36.5 9.85 -36.7 10.05 -36.8" fill="#db9d42" fill-rule="evenodd" stroke="none"/>
    <path d="M27.75 -20.3 Q26.85 -21.45 26.0 -20.4 25.7 -20.05 26.05 -19.7 26.3 -19.3 26.75 -19.3 28.7 -19.1 27.75 -20.3" fill="#db9d42" fill-rule="evenodd" stroke="none"/>
    <path d="M34.5 -17.95 L32.95 -18.0 Q32.75 -18.65 33.35 -18.9 L33.75 -19.1 Q35.6 -19.1 34.5 -17.95" fill="#db9d42" fill-rule="evenodd" stroke="none"/>
    <path d="M1.75 -32.75 L2.15 -32.55 2.2 -32.5 Q2.35 -31.8 1.75 -31.3 0.85 -30.55 -0.05 -31.45 -0.45 -31.8 0.05 -32.2 L1.0 -32.75 1.75 -32.75" fill="#db9d42" fill-rule="evenodd" stroke="none"/>
    <path d="M-16.65 -35.55 L-16.3 -35.5 -16.1 -35.5 -15.8 -35.35 -15.75 -35.3 -15.7 -35.0 Q-15.7 -34.45 -16.15 -34.25 -16.7 -34.0 -17.25 -34.25 L-17.3 -34.2 -17.4 -34.1 -17.45 -34.1 -17.85 -34.2 -18.0 -34.25 -18.0 -34.45 -18.0 -34.65 -18.0 -34.85 -18.0 -34.95 -17.85 -35.0 -17.25 -35.35 -16.65 -35.55" fill="#db9d42" fill-rule="evenodd" stroke="none"/>
    <path d="M-25.4 -33.45 Q-26.6 -32.4 -28.1 -32.75 -28.5 -32.9 -28.6 -33.35 L-28.6 -34.05 -28.5 -34.1 -28.3 -34.25 -28.2 -34.35 -27.95 -34.55 -27.55 -34.65 Q-25.6 -35.15 -25.25 -33.8 -25.15 -33.55 -25.4 -33.45" fill="#db9d42" fill-rule="evenodd" stroke="none"/>
  </g>
</svg>
