<?xml version="1.0" encoding="UTF-8" standalone="no"?>
<svg xmlns:ffdec="https://www.free-decompiler.com/flash" xmlns:xlink="http://www.w3.org/1999/xlink" ffdec:objectType="shape" height="24.8px" width="24.4px" xmlns="http://www.w3.org/2000/svg">
  <g transform="matrix(1.0, 0.0, 0.0, 1.0, 12.2, 12.4)">
    <path d="M-6.5 -4.15 Q-7.65 -2.5 -7.8 -0.45 L-2.05 -0.15 -6.5 -4.15 M-8.3 -8.1 Q-4.75 -11.6 0.2 -11.6 5.15 -11.6 8.65 -8.1 12.2 -4.55 12.2 0.4 12.2 5.35 8.65 8.85 5.15 12.4 0.2 12.4 -4.75 12.4 -8.3 8.85 -11.8 5.35 -11.8 0.4 -11.8 -4.55 -8.3 -8.1 M-2.2 1.65 L-7.7 1.95 Q-7.35 3.8 -6.2 5.3 L-2.2 1.65 M2.35 -0.15 L8.2 -0.45 Q8.0 -2.6 6.8 -4.3 L2.35 -0.2 2.35 -0.15 M1.15 -1.6 L5.1 -6.05 Q3.4 -7.35 1.3 -7.6 L1.0 -1.65 1.15 -1.6 M-0.85 -1.55 L-1.15 -7.6 Q-3.2 -7.25 -4.85 -5.9 L-0.9 -1.5 -0.85 -1.55 M2.2 1.65 L6.45 5.5 Q7.75 3.9 8.1 2.0 L2.2 1.65 M1.25 8.35 Q3.1 8.1 4.65 7.1 L0.95 3.0 1.25 8.35 M-4.5 6.9 Q-2.95 8.0 -1.1 8.3 L-0.85 2.9 -4.5 6.9" fill="#231307" fill-opacity="0.2509804" fill-rule="evenodd" stroke="none"/>
    <path d="M0.9 -8.9 L0.5 -1.2 -1.2 -1.2 -1.6 -8.9 0.9 -8.9" fill="#a65d26" fill-rule="evenodd" stroke="none"/>
    <path d="M0.9 8.7 L0.5 1.0 -1.2 1.0 -1.6 8.7 0.9 8.7" fill="#a65d26" fill-rule="evenodd" stroke="none"/>
    <path d="M6.7 -5.4 L1.05 -0.2 -0.15 -1.4 4.95 -7.15 6.7 -5.4" fill="#a65d26" fill-rule="evenodd" stroke="none"/>
    <path d="M-5.7 7.0 L-0.55 1.3 -1.75 0.1 -7.45 5.25 -5.7 7.0" fill="#a65d26" fill-rule="evenodd" stroke="none"/>
    <path d="M8.4 1.2 L0.7 0.8 0.7 -0.9 8.4 -1.3 8.4 1.2" fill="#a65d26" fill-rule="evenodd" stroke="none"/>
    <path d="M-9.2 1.2 L-1.5 0.8 -1.5 -0.9 -9.2 -1.3 -9.2 1.2" fill="#a65d26" fill-rule="evenodd" stroke="none"/>
    <path d="M4.95 7.05 L-0.2 1.35 1.0 0.15 6.7 5.3 4.95 7.05" fill="#a65d26" fill-rule="evenodd" stroke="none"/>
    <path d="M-7.45 -5.45 L-1.7 -0.25 -0.5 -1.45 -5.7 -7.2 -7.45 -5.45" fill="#a65d26" fill-rule="evenodd" stroke="none"/>
    <path d="M-1.05 8.2 L0.4 8.2 0.05 1.5 -0.7 1.5 -1.05 8.2" fill="#bd6a29" fill-rule="evenodd" stroke="none"/>
    <path d="M5.0 -6.4 L6.0 -5.4 1.05 -0.9 0.55 -1.4 5.0 -6.4" fill="#bd6a29" fill-rule="evenodd" stroke="none"/>
    <path d="M-6.7 5.3 L-5.7 6.3 -1.25 1.3 -1.75 0.8 -6.7 5.3" fill="#bd6a29" fill-rule="evenodd" stroke="none"/>
    <path d="M7.9 -0.75 L7.9 0.7 1.2 0.35 1.2 -0.4 7.9 -0.75" fill="#bd6a29" fill-rule="evenodd" stroke="none"/>
    <path d="M-8.7 -0.75 L-8.7 0.7 -2.0 0.35 -2.0 -0.4 -8.7 -0.75" fill="#bd6a29" fill-rule="evenodd" stroke="none"/>
    <path d="M6.0 5.3 L4.95 6.3 0.45 1.35 1.0 0.85 6.0 5.3" fill="#bd6a29" fill-rule="evenodd" stroke="none"/>
    <path d="M-5.7 -6.4 L-6.75 -5.4 -1.75 -0.95 -1.2 -1.45 -5.7 -6.4" fill="#bd6a29" fill-rule="evenodd" stroke="none"/>
    <path d="M7.85 -0.45 Q7.85 -3.75 5.5 -6.15 3.15 -8.5 -0.2 -8.5 -3.5 -8.5 -5.9 -6.15 -8.25 -3.75 -8.25 -0.45 -8.25 2.9 -5.9 5.25 -3.5 7.6 -0.2 7.6 3.15 7.6 5.5 5.25 7.85 2.9 7.85 -0.45 M8.25 -8.9 Q11.8 -5.35 11.8 -0.4 11.8 4.55 8.25 8.05 4.75 11.6 -0.2 11.6 -5.15 11.6 -8.7 8.05 -12.2 4.55 -12.2 -0.4 -12.2 -5.35 -8.7 -8.9 -5.15 -12.4 -0.2 -12.4 4.75 -12.4 8.25 -8.9" fill="#aa6027" fill-rule="evenodd" stroke="none"/>
    <path d="M-6.6 -6.85 Q-9.25 -4.15 -9.25 -0.45 -9.25 3.3 -6.6 5.95 L-6.6 6.0 Q-3.9 8.6 -0.2 8.6 3.55 8.6 6.2 5.95 8.85 3.3 8.85 -0.45 8.85 -4.15 6.25 -6.85 L6.2 -6.85 Q3.55 -9.5 -0.2 -9.5 -3.9 -9.5 -6.6 -6.85 M-0.2 -11.4 Q4.35 -11.4 7.55 -8.2 10.8 -4.95 10.8 -0.4 10.8 4.15 7.55 7.35 4.35 10.6 -0.2 10.6 -4.75 10.6 -8.0 7.35 -11.2 4.15 -11.2 -0.4 -11.2 -4.95 -8.0 -8.2 -4.75 -11.4 -0.2 -11.4" fill="#cb7b3d" fill-rule="evenodd" stroke="none"/>
    <path d="M-1.05 -8.4 L0.4 -8.4 0.05 -1.7 -0.7 -1.7 -1.05 -8.4" fill="#bd6a29" fill-rule="evenodd" stroke="none"/>
    <path d="M-1.8 1.15 Q-2.4 0.5 -2.4 -0.4 -2.4 -1.3 -1.8 -1.95 -1.15 -2.6 -0.2 -2.6 0.7 -2.6 1.35 -1.95 2.0 -1.3 2.0 -0.4 2.0 0.5 1.35 1.15 0.7 1.8 -0.2 1.8 -1.15 1.8 -1.8 1.15" fill="#9a5621" fill-rule="evenodd" stroke="none"/>
    <path d="M-1.4 0.8 L-1.85 -0.4 -1.4 -1.55 Q-0.9 -2.05 -0.2 -2.05 0.45 -2.05 0.95 -1.55 1.45 -1.05 1.45 -0.4 1.45 0.3 0.95 0.8 0.45 1.25 -0.2 1.25 -0.9 1.25 -1.4 0.8" fill="#cb7b3d" fill-rule="evenodd" stroke="none"/>
    <path d="M0.1 -10.15 L-0.3 -9.95 -0.7 -10.15 -0.85 -10.5 -0.7 -10.9 -0.3 -11.05 0.1 -10.9 0.25 -10.5 0.1 -10.15" fill="#74320a" fill-rule="evenodd" stroke="none"/>
    <path d="M0.1 9.85 L-0.3 10.05 -0.7 9.85 -0.85 9.5 -0.7 9.1 -0.3 8.95 0.1 9.1 0.25 9.5 0.1 9.85" fill="#74320a" fill-rule="evenodd" stroke="none"/>
    <path d="M6.8 -7.05 Q6.6 -7.05 6.45 -7.2 L6.25 -7.6 6.4 -7.95 6.8 -8.15 7.2 -8.0 7.35 -7.6 7.15 -7.2 Q7.0 -7.05 6.8 -7.05" fill="#74320a" fill-rule="evenodd" stroke="none"/>
    <path d="M-7.35 7.1 L-7.7 6.95 -7.9 6.55 -7.75 6.2 -7.35 6.0 Q-7.1 6.0 -6.95 6.15 -6.8 6.3 -6.8 6.55 L-7.0 6.95 -7.35 7.1" fill="#74320a" fill-rule="evenodd" stroke="none"/>
    <path d="M9.3 -0.15 L9.15 -0.5 9.3 -0.9 9.7 -1.05 10.05 -0.9 10.25 -0.5 10.05 -0.15 9.7 0.05 Q9.45 0.05 9.3 -0.15" fill="#74320a" fill-rule="evenodd" stroke="none"/>
    <path d="M-10.75 -0.1 L-10.9 -0.45 -10.75 -0.85 -10.35 -1.0 -10.0 -0.85 -9.8 -0.45 -10.0 -0.1 -10.35 0.1 Q-10.6 0.1 -10.75 -0.1" fill="#74320a" fill-rule="evenodd" stroke="none"/>
    <path d="M9.3 -0.15 L9.15 -0.5 9.3 -0.9 9.7 -1.05 10.05 -0.9 10.25 -0.5 10.05 -0.15 9.7 0.05 Q9.45 0.05 9.3 -0.15" fill="#74320a" fill-rule="evenodd" stroke="none"/>
    <path d="M-10.75 -0.1 L-10.9 -0.45 -10.75 -0.85 -10.35 -1.0 -10.0 -0.85 -9.8 -0.45 -10.0 -0.1 -10.35 0.1 Q-10.6 0.1 -10.75 -0.1" fill="#74320a" fill-rule="evenodd" stroke="none"/>
    <path d="M6.2 6.55 L6.35 6.2 6.75 6.0 7.15 6.15 7.3 6.55 7.15 6.95 6.75 7.1 6.35 6.9 6.2 6.55" fill="#74320a" fill-rule="evenodd" stroke="none"/>
    <path d="M-8.0 -7.55 L-7.85 -7.9 -7.45 -8.1 -7.05 -7.95 -6.9 -7.55 Q-6.9 -7.3 -7.05 -7.15 -7.2 -7.0 -7.45 -7.0 -7.7 -7.05 -7.85 -7.2 L-8.0 -7.55" fill="#74320a" fill-rule="evenodd" stroke="none"/>
  </g>
</svg>
