<?xml version="1.0" encoding="UTF-8" standalone="no"?>
<svg xmlns:ffdec="https://www.free-decompiler.com/flash" xmlns:xlink="http://www.w3.org/1999/xlink" ffdec:objectType="shape" height="29.85px" width="34.9px" xmlns="http://www.w3.org/2000/svg">
  <g transform="matrix(1.0, 0.0, 0.0, 1.0, 17.45, 14.9)">
    <path d="M-8.0 0.5 L15.95 -13.35 17.45 -10.75 -6.5 3.1 -8.0 0.5" fill="#231307" fill-opacity="0.2509804" fill-rule="evenodd" stroke="none"/>
    <path d="M-10.35 -7.3 L-9.6 -5.85 -4.7 3.05 -1.95 7.35 -5.5 9.8 Q-10.9 3.05 -13.95 -5.6 -12.45 -6.2 -11.05 -6.95 L-10.35 -7.3" fill="#643c1d" fill-rule="evenodd" stroke="none"/>
    <path d="M-8.85 -1.05 L15.1 -14.9 16.6 -12.3 -7.35 1.55 -8.85 -1.05" fill="url(#gradient0)" fill-rule="evenodd" stroke="none"/>
    <path d="M-8.85 0.05 L-9.0 -0.25 Q3.95 -7.2 14.95 -14.1 L15.1 -13.8 -8.85 0.05" fill="#95511c" fill-rule="evenodd" stroke="none"/>
    <path d="M-8.0 1.1 L-8.15 0.8 10.25 -9.5 15.8 -13.05 15.95 -12.75 -8.0 1.1" fill="#95511c" fill-rule="evenodd" stroke="none"/>
    <path d="M2.55 12.4 Q0.5 14.35 -1.9 14.95 L-14.65 -7.05 -10.2 -9.6 Q-1.55 -0.7 2.55 12.4" fill="#231307" fill-opacity="0.2509804" fill-rule="evenodd" stroke="none"/>
    <path d="M-13.25 -6.1 L-12.4 -4.75 Q-9.7 -0.35 -7.3 4.2 L-5.0 8.9 Q-3.1 7.95 -1.15 7.15 -4.2 -1.15 -10.0 -8.35 -11.25 -7.4 -12.6 -6.6 L-13.25 -6.1" fill="#643c1d" fill-rule="evenodd" stroke="none"/>
    <path d="M-3.7 12.75 L-16.45 -9.25 -12.0 -11.8 0.75 10.2 -3.7 12.75" fill="url(#gradient1)" fill-rule="evenodd" stroke="none"/>
    <path d="M-12.9 -9.05 L-13.15 -8.75 -13.55 -8.7 -13.8 -8.85 -13.8 -9.15 -13.5 -9.4 -13.15 -9.5 -12.85 -9.4 Q-12.8 -9.25 -12.9 -9.05" fill="#74320a" fill-rule="evenodd" stroke="none"/>
    <path d="M-1.95 10.6 L-2.2 10.9 -2.6 10.95 -2.85 10.8 -2.85 10.5 -2.55 10.25 -2.2 10.15 Q-2.0 10.15 -1.9 10.25 L-1.95 10.6" fill="#74320a" fill-rule="evenodd" stroke="none"/>
    <path d="M-10.5 -4.8 L-10.75 -4.45 -11.15 -4.45 -11.5 -4.65 -11.55 -5.05 -11.25 -5.35 -10.9 -5.4 Q-10.65 -5.4 -10.55 -5.2 L-10.5 -4.8" fill="#74320a" fill-rule="evenodd" stroke="none"/>
    <path d="M-4.0 6.65 L-4.25 7.0 -4.65 7.0 Q-4.9 7.0 -5.0 6.8 L-5.05 6.4 -4.75 6.1 -4.4 6.05 Q-4.15 6.05 -4.05 6.25 L-4.0 6.65" fill="#74320a" fill-rule="evenodd" stroke="none"/>
    <path d="M-7.55 0.55 L-7.8 0.9 -8.2 0.9 -8.55 0.7 -8.6 0.3 -8.3 0.0 -7.95 -0.05 Q-7.7 -0.05 -7.6 0.15 -7.5 0.35 -7.55 0.55" fill="#74320a" fill-rule="evenodd" stroke="none"/>
    <path d="M0.7 10.15 L0.45 10.3 -12.3 -11.7 Q-12.15 -11.75 -12.05 -11.85 L0.7 10.15" fill="url(#gradient2)" fill-rule="evenodd" stroke="none"/>
    <path d="M-14.15 -5.15 L-15.05 -6.75 -10.6 -9.3 -9.7 -7.7 -14.15 -5.15" fill="url(#gradient3)" fill-rule="evenodd" stroke="none"/>
    <path d="M-16.55 -9.2 L-17.45 -10.8 -13.0 -13.35 -12.1 -11.75 -16.55 -9.2" fill="url(#gradient4)" fill-rule="evenodd" stroke="none"/>
    <path d="M-11.65 -1.0 L-12.4 -1.9 -7.95 -4.45 -7.2 -3.55 Q-9.4 -2.3 -11.65 -1.0" fill="url(#gradient5)" fill-rule="evenodd" stroke="none"/>
    <path d="M-8.3 5.1 L-8.9 4.05 -4.45 1.5 -3.85 2.55 -8.3 5.1" fill="url(#gradient6)" fill-rule="evenodd" stroke="none"/>
    <path d="M-4.85 10.75 L-6.1 8.55 -1.65 6.0 -0.4 8.2 -4.85 10.75" fill="url(#gradient7)" fill-rule="evenodd" stroke="none"/>
    <path d="M-2.4 14.85 L-3.65 12.65 0.8 10.1 2.05 12.3 -2.4 14.85" fill="url(#gradient8)" fill-rule="evenodd" stroke="none"/>
  </g>
  <defs>
    <linearGradient gradientTransform="matrix(0.001, 0.0018, -0.0127, 0.0074, 3.9, -6.7)" gradientUnits="userSpaceOnUse" id="gradient0" spreadMethod="pad" x1="-819.2" x2="819.2">
      <stop offset="0.0" stop-color="#bd6a29"/>
      <stop offset="0.5764705882352941" stop-color="#e09b64"/>
      <stop offset="0.9450980392156862" stop-color="#8e5324"/>
    </linearGradient>
    <linearGradient gradientTransform="matrix(0.014, 0.0068, -0.0065, 0.0094, -7.85, 0.4)" gradientUnits="userSpaceOnUse" id="gradient1" spreadMethod="pad" x1="-819.2" x2="819.2">
      <stop offset="0.0" stop-color="#cb7b3d"/>
      <stop offset="0.36470588235294116" stop-color="#ee9f62"/>
      <stop offset="0.6078431372549019" stop-color="#f5a669"/>
      <stop offset="0.9215686274509803" stop-color="#bf763d"/>
    </linearGradient>
    <linearGradient gradientTransform="matrix(0.0069, 0.0109, 0.0019, 0.0046, -5.8, -0.8)" gradientUnits="userSpaceOnUse" id="gradient2" spreadMethod="pad" x1="-819.2" x2="819.2">
      <stop offset="0.0" stop-color="#b4784a"/>
      <stop offset="0.36470588235294116" stop-color="#ffd2af"/>
      <stop offset="0.6078431372549019" stop-color="#ffd0ad"/>
      <stop offset="0.9215686274509803" stop-color="#bf763d"/>
    </linearGradient>
    <linearGradient gradientTransform="matrix(0.008, -0.0035, -0.0087, 0.0054, -12.35, -7.25)" gradientUnits="userSpaceOnUse" id="gradient3" spreadMethod="pad" x1="-819.2" x2="819.2">
      <stop offset="0.0" stop-color="#7e512f"/>
      <stop offset="0.9215686274509803" stop-color="#bf763d"/>
    </linearGradient>
    <linearGradient gradientTransform="matrix(0.008, -0.0035, -0.0087, 0.0054, -14.75, -11.3)" gradientUnits="userSpaceOnUse" id="gradient4" spreadMethod="pad" x1="-819.2" x2="819.2">
      <stop offset="0.0" stop-color="#7e512f"/>
      <stop offset="0.9215686274509803" stop-color="#bf763d"/>
    </linearGradient>
    <linearGradient gradientTransform="matrix(0.0079, -0.0039, -0.0088, 0.0053, -9.8, -2.75)" gradientUnits="userSpaceOnUse" id="gradient5" spreadMethod="pad" x1="-819.2" x2="819.2">
      <stop offset="0.0" stop-color="#7e512f"/>
      <stop offset="0.9215686274509803" stop-color="#bf763d"/>
    </linearGradient>
    <linearGradient gradientTransform="matrix(0.0078, -0.0038, -0.0088, 0.0054, -6.35, 3.3)" gradientUnits="userSpaceOnUse" id="gradient6" spreadMethod="pad" x1="-819.2" x2="819.2">
      <stop offset="0.0" stop-color="#7e512f"/>
      <stop offset="0.9215686274509803" stop-color="#bf763d"/>
    </linearGradient>
    <linearGradient gradientTransform="matrix(0.0082, -0.0033, -0.0087, 0.0056, -3.25, 8.35)" gradientUnits="userSpaceOnUse" id="gradient7" spreadMethod="pad" x1="-819.2" x2="819.2">
      <stop offset="0.0" stop-color="#7e512f"/>
      <stop offset="0.9215686274509803" stop-color="#bf763d"/>
    </linearGradient>
    <linearGradient gradientTransform="matrix(0.0082, -0.0033, -0.0087, 0.0056, -0.8, 12.45)" gradientUnits="userSpaceOnUse" id="gradient8" spreadMethod="pad" x1="-819.2" x2="819.2">
      <stop offset="0.0" stop-color="#7e512f"/>
      <stop offset="0.9215686274509803" stop-color="#bf763d"/>
    </linearGradient>
  </defs>
</svg>
