<?xml version="1.0" encoding="UTF-8" standalone="no"?>
<svg xmlns:ffdec="https://www.free-decompiler.com/flash" xmlns:xlink="http://www.w3.org/1999/xlink" ffdec:objectType="shape" height="45.5px" width="68.5px" xmlns="http://www.w3.org/2000/svg">
  <g transform="matrix(1.0, 0.0, 0.0, 1.0, 26.35, 3.9)">
    <path d="M-15.7 17.0 Q-16.15 14.25 -15.75 10.25 -15.35 6.15 -11.45 8.0 -7.55 9.75 -6.2 9.9 -4.8 9.95 -3.2 10.95 L0.35 11.15 Q2.4 10.45 3.5 8.45 4.6 6.4 6.65 5.55 8.65 4.65 13.95 4.3 19.3 3.95 21.9 0.35 24.5 -3.25 27.8 -3.7 30.35 -4.3 32.1 -3.25 33.9 -2.25 32.2 -1.5 30.35 -0.8 29.2 1.85 28.05 4.5 27.8 5.75 27.6 6.95 25.9 9.95 24.2 12.95 30.2 12.1 36.15 11.2 36.7 13.5 37.2 15.75 36.15 17.6 35.15 19.45 34.5 21.7 33.9 23.9 35.35 25.95 36.7 28.0 37.6 30.25 38.5 32.4 40.05 34.35 41.7 36.3 42.1 37.9 42.5 39.4 40.1 39.4 37.85 39.4 30.0 34.7 L34.3 33.6 30.2 32.65 Q26.75 31.55 19.7 32.5 L16.5 32.85 10.2 34.0 8.0 34.8 Q3.35 37.0 -1.55 38.65 L-4.25 39.25 -9.8 40.35 -18.0 41.5 Q-23.35 41.9 -24.7 40.9 -26.15 39.8 -26.35 38.3 -26.55 36.85 -24.65 35.55 L-20.65 32.65 Q-18.6 30.9 -17.65 28.05 -16.7 25.1 -15.45 24.45 -14.3 23.7 -14.7 21.7 L-15.7 17.0" fill="#b69c62" fill-rule="evenodd" stroke="none"/>
  </g>
</svg>
