<?xml version="1.0" encoding="UTF-8" standalone="no"?>
<svg xmlns:ffdec="https://www.free-decompiler.com/flash" xmlns:xlink="http://www.w3.org/1999/xlink" ffdec:objectType="shape" height="6.9px" width="6.4px" xmlns="http://www.w3.org/2000/svg">
  <g transform="matrix(1.0, 0.0, 0.0, 1.0, -486.85, -384.8)">
    <path d="M488.5 384.8 L491.1 387.3 493.25 389.7 493.2 389.9 488.8 386.5 Q490.1 387.9 492.95 390.3 L492.95 390.4 Q493.05 390.55 492.75 390.5 L488.55 387.55 490.8 389.6 492.75 391.55 492.75 391.6 Q492.1 391.35 491.55 390.9 L490.5 390.0 490.25 389.95 490.95 390.75 491.75 391.65 491.75 391.7 489.5 390.1 487.2 388.35 Q488.05 388.65 490.35 390.45 L488.65 388.85 486.9 387.1 486.9 386.95 491.1 390.1 486.85 386.3 486.9 386.05 Q487.75 386.75 490.65 388.65 L490.75 388.65 487.1 385.25 Q488.0 385.5 490.9 387.55 489.05 386.15 488.35 384.95 L488.4 384.8 488.5 384.8 M487.6 386.85 L488.0 387.05 487.35 386.55 487.4 386.65 487.6 386.85 M489.35 389.2 L489.25 389.1 489.3 389.2 489.35 389.2" fill="#693308" fill-rule="evenodd" stroke="none"/>
  </g>
</svg>
