<?xml version="1.0" encoding="UTF-8" standalone="no"?>
<svg xmlns:ffdec="https://www.free-decompiler.com/flash" xmlns:xlink="http://www.w3.org/1999/xlink" ffdec:objectType="shape" height="41.0px" width="62.85px" xmlns="http://www.w3.org/2000/svg">
  <g transform="matrix(1.0, 0.0, 0.0, 1.0, 23.7, 1.15)">
    <path d="M-4.35 13.5 Q-0.2 13.95 2.85 10.95 6.95 6.75 10.8 6.5 14.65 6.2 18.45 4.3 22.2 2.4 24.55 -1.1 29.3 -1.45 26.0 2.95 22.55 7.25 21.9 10.4 21.15 13.5 23.8 14.75 26.4 15.9 29.65 16.6 L31.5 16.8 32.2 16.85 Q33.5 16.95 32.95 18.25 31.8 21.15 31.85 24.5 31.9 26.6 33.4 28.35 L39.15 35.9 38.15 37.0 Q37.1 37.8 29.65 35.0 22.15 32.2 14.15 33.1 6.1 34.0 3.1 35.15 -8.35 39.8 -20.45 39.85 -26.9 38.45 -20.45 33.6 -14.05 28.65 -13.55 21.65 -13.15 14.6 -11.5 13.3 -9.85 11.95 -8.3 12.65 L-4.35 13.5" fill="#857a7a" fill-rule="evenodd" stroke="none"/>
    <path d="M11.3 18.65 Q11.5 18.3 11.85 18.1 15.0 16.4 17.6 14.15 L17.15 14.8 16.55 15.35 16.1 16.0 Q22.65 14.55 29.1 16.3 L31.3 17.2 Q32.75 17.95 31.5 19.4 30.85 20.2 30.35 21.15 L28.9 22.95 Q28.45 23.35 27.75 23.2 L25.15 22.95 Q23.4 22.8 21.15 21.85 L16.4 22.05 Q13.95 23.15 11.35 23.55 9.85 23.75 8.9 22.8 L8.75 22.45 Q8.55 21.3 9.65 20.4 L11.3 18.65 M11.65 19.45 L11.9 19.25 12.2 18.9 Q12.05 18.9 11.9 19.05 L11.7 19.25 11.55 19.55 11.65 19.45" fill="#746b6b" fill-rule="evenodd" stroke="none"/>
    <path d="M-6.3 14.55 L-3.65 15.3 Q-3.4 15.3 -3.1 15.45 L-3.1 15.55 -3.05 15.65 -3.05 15.7 Q-0.05 16.4 5.15 19.4 L6.95 20.3 Q9.6 21.35 4.75 21.8 L4.2 21.8 Q0.8 21.85 -2.5 22.65 L-4.4 23.2 Q-4.95 23.4 -6.0 22.6 -8.9 25.05 -11.45 27.9 L-13.85 30.15 Q-15.2 31.2 -15.05 29.7 L-14.65 28.4 -12.65 24.85 -12.25 23.5 -11.65 17.2 Q-11.5 14.8 -10.2 13.1 -8.85 13.4 -7.6 14.0 L-6.3 14.55 M2.3 23.3 Q-1.9 25.6 1.25 23.85 1.75 23.5 2.3 23.3" fill="#746b6b" fill-rule="evenodd" stroke="none"/>
    <path d="M-10.35 13.5 Q-8.1 13.4 -6.1 14.7 L0.9 19.0 Q2.85 20.05 4.55 20.6 L-2.7 20.9 -3.85 20.9 Q-5.15 21.1 -8.3 19.25 -8.9 22.4 -10.95 24.3 -11.7 24.9 -12.0 25.95 L-12.35 26.55 -12.45 26.55 -12.8 26.5 -12.9 26.5 Q-13.3 25.45 -13.0 24.35 L-12.6 22.25 -12.4 21.3 -12.25 21.05 -11.9 20.15 -11.6 18.35 -11.5 16.6 -11.3 15.3 -11.25 15.1 -10.5 13.6 -10.35 13.5" fill="#645b5b" fill-rule="evenodd" stroke="none"/>
    <path d="M7.35 23.6 L7.4 23.6 7.45 23.7 Q7.05 25.25 5.75 26.7 L2.3 29.85 Q-0.85 32.35 -4.75 33.5 -7.7 34.4 -10.55 35.65 -13.0 36.8 -15.55 36.2 L-16.3 35.75 Q-17.75 34.25 -16.85 32.4 -16.5 32.4 -16.3 32.9 L-15.95 33.5 -15.7 33.95 Q-12.05 34.2 -9.2 31.8 -6.45 29.5 -2.9 29.0 L-1.4 28.6 Q2.55 26.85 6.05 24.35 L7.2 23.55 7.35 23.6" fill="#746b6b" fill-rule="evenodd" stroke="none"/>
    <path d="M21.05 31.75 Q15.0 31.2 8.85 32.7 1.95 34.4 -2.45 36.05 L-9.2 38.15 -12.75 38.9 Q-16.85 39.65 -21.0 38.9 -23.1 38.5 -22.6 36.6 L-21.75 35.35 -19.15 32.85 -17.2 31.05 -18.15 33.1 Q-18.95 34.8 -17.1 36.85 -15.25 38.85 -7.7 36.05 -0.1 33.25 5.35 30.65 7.9 29.5 10.6 29.3 12.75 29.1 14.7 29.75 L18.65 30.9 21.05 31.75 M22.15 31.8 L24.15 32.1 22.5 31.9 21.8 31.8 Q21.95 31.65 22.15 31.8" fill="#645b5b" fill-rule="evenodd" stroke="none"/>
    <path d="M10.8 21.9 Q11.0 20.4 12.95 19.3 14.8 18.25 15.75 16.85 16.7 15.55 17.5 13.6 18.25 11.6 19.35 10.7 20.4 9.85 20.6 8.25 20.7 6.7 21.4 5.95 21.8 5.55 22.3 5.4 L22.45 5.4 22.7 5.4 22.9 5.45 22.95 5.55 Q22.9 7.4 22.0 9.15 20.45 12.55 23.6 14.7 24.5 15.3 25.65 15.45 L28.55 16.25 29.75 17.25 Q29.95 17.7 29.4 17.75 L17.65 19.45 16.55 19.65 Q14.1 20.55 11.75 21.8 L10.8 21.9" fill="#645b5b" fill-rule="evenodd" stroke="none"/>
    <path d="M9.65 21.3 Q10.4 19.85 11.85 19.05 14.35 17.55 14.85 14.8 14.9 14.05 15.55 13.6 17.7 11.8 18.4 10.3 19.1 8.8 16.5 7.3 13.8 5.75 16.2 5.8 18.6 5.8 20.7 4.65 22.75 3.4 24.05 1.05 L24.6 0.4 25.85 -0.35 25.9 -0.35 26.05 -0.35 26.1 -0.25 26.2 -0.2 25.5 0.8 Q25.15 1.45 25.1 2.05 25.0 2.65 24.5 2.95 22.9 5.75 20.25 7.8 L20.15 8.05 Q20.05 10.65 17.9 12.2 15.45 14.0 14.9 16.8 L14.65 17.35 10.5 21.5 10.2 21.9 Q9.45 24.35 7.7 24.85 5.85 25.35 4.35 27.85 L2.15 31.4 Q1.4 32.4 0.65 32.65 -2.9 33.65 -5.5 34.75 L-13.2 37.35 Q-18.35 38.9 -17.3 35.35 L-16.7 32.7 Q-16.65 35.75 -15.05 36.1 -13.1 36.5 -9.35 34.7 -5.55 32.85 -3.65 32.15 -1.75 31.4 -0.1 31.55 1.55 31.6 2.6 28.95 3.65 26.3 6.8 24.5 8.3 23.7 9.1 22.25 L9.65 21.3 M23.75 2.4 L23.65 2.55 23.65 2.65 23.6 2.85 23.6 2.95 23.75 2.75 23.75 2.55 23.75 2.4 M23.45 3.15 L23.4 3.2 23.3 3.35 23.25 3.4 23.25 3.5 23.3 3.4 23.4 3.3 23.45 3.15 M-16.7 30.9 L-16.7 31.05 -16.75 31.15 -16.75 31.0 -16.7 30.9" fill="#bda6a6" fill-rule="evenodd" stroke="none"/>
    <path d="M30.0 32.75 Q31.45 33.95 34.05 34.25 L34.25 34.45 Q31.65 35.65 28.9 33.8 25.3 31.4 21.05 30.1 L19.95 29.65 Q16.0 27.35 12.0 26.35 L12.05 26.35 20.8 27.05 Q24.95 27.3 26.75 29.5 28.5 31.6 30.0 32.75" fill="#afa0a0" fill-rule="evenodd" stroke="none"/>
    <path d="M28.7 28.9 Q28.8 30.25 30.3 30.7 31.8 31.15 32.25 32.2 L32.35 32.35 35.9 33.45 35.9 33.7 Q35.05 34.75 33.4 34.55 32.45 34.4 31.05 33.65 L26.45 30.9 Q23.3 28.95 20.45 28.25 L16.9 27.35 Q15.05 27.1 13.4 26.35 L13.0 25.95 21.55 26.7 Q24.7 26.35 25.25 25.75 L26.0 24.9 Q26.6 24.5 27.35 24.45 27.7 24.35 27.95 24.65 L28.35 25.1 28.55 25.55 Q28.55 27.45 28.7 28.9" fill="#645b5b" fill-rule="evenodd" stroke="none"/>
    <path d="M7.8 8.2 Q9.65 7.3 11.7 7.5 L12.2 7.5 12.4 7.6 12.85 7.65 13.0 7.8 Q13.2 9.35 12.2 10.85 11.15 12.2 11.45 14.0 11.9 16.45 10.5 18.5 L9.95 18.55 9.1 17.05 Q8.1 14.0 4.55 14.55 3.1 14.75 2.1 14.2 1.6 13.95 1.8 13.4 2.2 12.35 3.05 11.6 L7.15 8.55 7.8 8.2" fill="#746b6b" fill-rule="evenodd" stroke="none"/>
    <path d="M30.35 15.4 Q27.8 16.7 26.35 14.85 24.7 13.05 28.35 12.85 33.45 13.95 30.35 15.4" fill="#645b5b" fill-rule="evenodd" stroke="none"/>
    <path d="M28.75 15.1 L28.4 15.5 Q26.4 15.8 26.1 14.1 26.05 13.7 26.45 13.45 L27.1 13.15 Q29.1 13.3 28.75 15.1" fill="#857a7a" fill-rule="evenodd" stroke="none"/>
  </g>
</svg>
