<?xml version="1.0" encoding="UTF-8" standalone="no"?>
<svg xmlns:ffdec="https://www.free-decompiler.com/flash" xmlns:xlink="http://www.w3.org/1999/xlink" ffdec:objectType="shape" height="105.75px" width="101.8px" xmlns="http://www.w3.org/2000/svg">
  <g transform="matrix(1.0, 0.0, 0.0, 1.0, 1.5, 1.5)">
    <path d="M72.75 13.6 Q72.05 8.8 68.4 4.45 64.75 0.05 58.95 0.0 53.15 -0.05 48.95 5.05 44.65 10.15 40.95 15.7 37.2 21.2 35.2 21.55 L27.35 22.6 Q21.5 23.3 19.3 26.5 17.1 29.7 17.8 33.35 18.5 37.0 15.45 38.25 12.35 39.5 5.5 40.3 0.0 42.05 0.0 48.7 0.0 58.5 6.4 66.5 9.25 70.05 9.95 71.55 L11.75 75.5 14.5 81.35 Q16.5 85.65 16.15 88.7 15.75 91.7 16.6 93.0 17.45 94.3 18.9 95.3 20.35 96.3 24.4 96.3 L33.5 95.85 40.3 96.2 Q42.1 97.05 46.3 99.85 50.45 102.65 53.3 102.75 56.1 102.85 57.75 101.8 59.35 100.75 61.85 95.45 64.35 90.15 65.6 84.55 66.8 78.95 74.25 75.2 81.65 71.45 83.55 68.1 84.45 66.4 85.1 59.35 85.55 53.8 92.45 47.65 99.35 41.45 98.75 35.4 98.15 29.35 95.1 27.95 92.05 26.55 91.45 25.55 L89.0 21.25 Q87.15 17.9 85.15 17.7 83.6 17.55 77.9 19.9 73.4 18.35 72.75 13.6 Z" fill="none" stroke="#ffffff" stroke-linecap="round" stroke-linejoin="round" stroke-width="3.0"/>
  </g>
</svg>
