<?xml version="1.0" encoding="UTF-8" standalone="no"?>
<svg xmlns:ffdec="https://www.free-decompiler.com/flash" xmlns:xlink="http://www.w3.org/1999/xlink" ffdec:objectType="shape" height="97.95px" width="93.9px" xmlns="http://www.w3.org/2000/svg">
  <g transform="matrix(1.0, 0.0, 0.0, 1.0, 47.65, 48.6)">
    <path d="M36.45 -26.15 Q38.1 -23.4 41.4 -22.55 44.85 -21.7 45.75 -18.2 47.05 -13.15 45.1 -7.4 43.1 -1.7 38.5 1.65 33.85 5.0 33.6 7.85 33.35 10.7 33.45 16.25 33.5 18.05 32.0 19.2 27.45 22.75 21.95 24.35 13.45 26.85 12.45 35.25 11.8 40.95 9.55 46.05 7.7 50.1 2.85 49.2 -2.55 48.15 -7.2 44.6 -10.9 41.75 -15.5 43.35 -21.6 45.45 -27.35 43.85 -28.0 43.75 -28.3 43.1 -29.8 39.75 -29.95 35.8 -30.05 32.65 -32.2 30.0 -33.45 28.55 -34.0 26.6 -35.4 21.8 -39.4 18.15 -47.85 10.45 -47.65 -0.85 -47.45 -10.05 -37.7 -10.05 -31.0 -10.0 -28.6 -15.4 -27.9 -16.9 -27.8 -18.65 -27.45 -23.25 -22.95 -24.05 L-17.0 -25.0 Q-9.15 -26.25 -6.2 -33.45 -2.1 -43.65 7.45 -48.6 12.7 -48.05 16.8 -44.3 20.8 -40.65 22.4 -35.55 L24.55 -28.5 Q29.35 -29.6 34.05 -28.05 35.65 -27.6 36.45 -26.15" fill="#7bd8e7" fill-opacity="0.36078432" fill-rule="evenodd" stroke="none"/>
    <path d="M-37.1 17.35 Q-44.65 11.15 -45.85 2.9 -47.1 -5.4 -43.5 -6.65 -39.95 -7.95 -37.8 -7.95 -32.8 -8.0 -29.35 -10.6 -25.85 -13.05 -25.65 -16.05 -25.45 -19.05 -24.55 -20.4 -23.65 -21.8 -21.75 -22.05 -19.85 -22.3 -15.95 -22.15 -12.1 -22.0 -10.35 -24.25 L-6.95 -29.25 -5.55 -31.5 Q-3.3 -35.15 -0.5 -38.4 3.15 -42.8 8.45 -44.65 12.8 -44.9 15.65 -41.55 18.3 -38.45 19.95 -34.65 21.1 -31.9 21.25 -28.85 L21.4 -28.75 Q22.1 -28.4 22.05 -27.4 21.9 -26.5 22.15 -25.8 22.4 -25.15 25.2 -25.0 L25.4 -25.0 Q26.9 -25.15 28.85 -26.1 30.75 -27.15 31.3 -25.05 31.85 -23.05 33.75 -22.75 L36.7 -22.45 Q43.6 -23.45 44.3 -17.6 44.6 -14.9 43.5 -12.25 38.75 -1.4 31.8 4.9 24.8 11.15 28.3 14.5 31.7 17.8 21.5 22.6 11.25 27.35 11.05 35.15 10.8 42.85 6.2 46.2 1.55 49.5 -0.65 46.6 L-3.4 42.75 Q-14.2 38.15 -20.75 41.6 -27.3 45.0 -27.1 42.25 L-26.95 38.95 Q-26.3 34.85 -27.45 32.45 -30.9 30.05 -30.25 26.8 -29.55 23.5 -37.1 17.35" fill="#c1ebfb" fill-rule="evenodd" stroke="none"/>
    <path d="M35.45 -2.15 L30.55 3.05 19.95 13.9 Q17.75 16.0 23.95 18.1 12.15 22.3 9.75 26.3 L8.85 27.25 Q8.55 27.55 7.55 19.35 7.2 23.85 8.05 28.8 6.55 32.6 6.3 35.65 5.85 41.4 5.3 43.15 4.75 44.95 2.8 45.45 0.85 45.9 -1.35 38.25 -1.95 36.05 0.1 27.6 -2.2 29.05 -4.05 35.2 -9.0 33.2 -10.55 34.0 -11.35 34.4 -13.9 30.2 -14.3 30.85 -12.5 34.05 -18.65 37.2 -22.6 36.65 -22.45 31.55 -21.7 27.9 -21.5 27.15 -22.45 23.25 -20.1 23.55 -17.2 19.15 -21.95 23.15 -22.35 22.8 -23.7 21.35 -30.75 16.85 -32.8 15.5 -36.95 9.95 L-28.8 6.1 Q-38.65 9.65 -39.05 7.9 L-40.5 3.05 -40.25 0.75 Q-39.95 -1.0 -35.5 -3.65 L-29.1 -7.45 -28.35 -7.55 -28.15 -8.1 -27.4 -10.35 -26.45 -12.6 -25.8 -13.75 -25.35 -14.5 -24.3 -15.85 -23.35 -17.0 -22.85 -17.45 -22.35 -17.85 -22.15 -18.0 -21.4 -18.6 Q-18.95 -20.35 -15.75 -21.1 L-12.6 -21.7 Q-6.1 -23.25 -5.6 -25.8 -0.1 -36.15 6.2 -40.3 12.45 -44.5 16.9 -37.85 21.3 -31.25 19.0 -25.8 23.45 -18.2 32.6 -21.25 47.4 -24.2 40.15 -10.3 38.0 -6.15 35.45 -2.15 M7.0 39.0 L7.25 38.0 6.85 39.0 7.05 38.3 7.35 37.5 7.0 39.0" fill="url(#gradient0)" fill-rule="evenodd" stroke="none"/>
    <path d="M-29.1 -7.45 L-35.5 -3.65 Q-39.95 -1.0 -40.25 0.75 L-40.5 3.05 -39.05 7.9 Q-38.65 9.65 -28.8 6.1 L-36.95 9.95 Q-32.8 15.5 -30.75 16.85 -23.7 21.35 -22.35 22.8 -21.95 23.15 -17.2 19.15 -20.1 23.55 -22.45 23.25 -21.5 27.15 -21.7 27.9 -22.45 31.55 -22.6 36.65 -18.65 37.2 -12.5 34.05 -14.3 30.85 -13.9 30.2 -11.35 34.4 -10.55 34.0 -9.0 33.2 -4.05 35.2 -2.2 29.05 0.1 27.6 -1.95 36.05 -1.35 38.25 0.85 45.9 2.8 45.45 4.75 44.95 5.3 43.15 5.85 41.4 6.3 35.65 6.55 32.6 8.05 28.8 7.2 23.85 7.55 19.35 8.55 27.55 8.85 27.25 L9.75 26.3 Q12.15 22.3 23.95 18.1 17.75 16.0 19.95 13.9 L30.55 3.05 35.45 -2.15 35.5 -2.2 35.05 -1.6 25.55 11.2 Q21.15 15.9 26.35 16.15 31.5 16.35 22.15 20.4 10.7 27.75 8.6 33.0 8.0 34.45 7.75 35.75 L7.35 37.5 7.05 38.3 6.85 39.0 7.25 38.0 7.0 39.0 Q6.95 42.65 3.9 46.3 1.55 49.55 -1.55 41.7 -4.65 33.85 -17.65 37.5 -27.95 42.25 -24.15 32.25 -22.4 25.0 -26.95 21.85 -37.55 14.7 -40.95 7.5 -44.35 0.3 -40.15 -3.35 -38.2 -5.05 -35.45 -6.1 L-32.05 -7.05 -29.1 -7.45" fill="#744425" fill-rule="evenodd" stroke="none"/>
    <path d="M2.95 -31.55 Q3.15 -35.0 6.2 -37.1 8.95 -39.05 11.9 -40.55 15.35 -41.3 16.85 -38.55 L17.6 -36.5 18.05 -34.5 Q18.65 -31.5 17.9 -28.55 17.7 -27.75 17.0 -27.15 15.05 -25.55 12.55 -25.95 L10.3 -26.15 Q6.25 -26.3 3.7 -29.3 2.85 -30.3 2.95 -31.55" fill="#2c0707" fill-opacity="0.27058825" fill-rule="evenodd" stroke="none"/>
    <path d="M-1.95 -19.35 L-1.1 -19.2 -0.45 -19.05 -0.35 -18.95 Q0.1 -18.15 -0.35 -17.35 -1.4 -15.45 -3.1 -17.2 -3.65 -17.8 -3.3 -18.6 L-2.3 -19.35 -1.95 -19.35" fill="#7b533a" fill-rule="evenodd" stroke="none"/>
    <path d="M3.8 -33.25 Q4.0 -36.7 7.05 -38.8 9.8 -40.75 12.75 -42.25 16.2 -43.0 17.7 -40.25 L18.45 -38.2 18.9 -36.2 Q19.5 -33.2 18.75 -30.25 18.55 -29.45 17.85 -28.85 15.9 -27.25 13.4 -27.65 L11.15 -27.85 Q7.1 -28.0 4.55 -31.0 3.7 -32.0 3.8 -33.25" fill="#836f6f" fill-rule="evenodd" stroke="none"/>
    <path d="M15.8 -23.2 Q15.15 -22.4 14.35 -22.8 12.95 -23.5 14.25 -24.55 L15.0 -24.85 Q16.95 -24.6 15.8 -23.2" fill="#7b533a" fill-rule="evenodd" stroke="none"/>
    <path d="M18.1 -27.4 Q20.35 -25.1 23.1 -23.9 25.85 -22.75 26.85 -20.7 27.8 -18.5 27.6 -18.0 27.35 -17.15 26.7 -16.35 23.15 -12.65 20.4 -11.5 17.55 -10.35 15.6 -10.95 13.7 -11.6 13.05 -14.9 12.4 -18.15 11.05 -21.0 9.7 -23.85 11.8 -26.35 L13.35 -28.1 Q15.8 -29.8 18.1 -27.4" fill="#2c0707" fill-opacity="0.27058825" fill-rule="evenodd" stroke="none"/>
    <path d="M18.1 -28.85 Q20.35 -26.55 23.1 -25.35 25.85 -24.2 26.85 -22.15 27.8 -19.95 27.6 -19.45 27.35 -18.6 26.7 -17.8 23.15 -14.1 20.4 -12.95 17.55 -11.8 15.6 -12.4 13.7 -13.05 13.05 -16.35 12.4 -19.6 11.05 -22.45 9.7 -25.3 11.8 -27.8 L13.35 -29.55 Q15.8 -31.25 18.1 -28.85" fill="#9c9c9c" fill-rule="evenodd" stroke="none"/>
    <path d="M16.6 -23.3 Q16.0 -25.1 14.05 -25.4 12.15 -25.7 11.85 -27.4 11.6 -29.1 14.55 -29.95 16.9 -29.5 18.9 -28.0 21.65 -25.9 24.6 -24.3 25.9 -23.65 26.4 -22.25 27.6 -18.9 25.15 -16.35 22.6 -13.85 20.8 -14.65 18.95 -15.45 19.1 -16.75 19.25 -18.0 18.25 -19.75 17.2 -21.55 16.6 -23.3" fill="#bbbbbb" fill-rule="evenodd" stroke="none"/>
    <path d="M17.65 -38.7 L17.55 -38.0 Q15.6 -34.25 11.1 -34.4 L9.95 -34.55 Q7.7 -35.05 7.35 -37.05 7.25 -37.7 7.8 -38.3 10.25 -41.1 13.95 -42.2 17.1 -41.85 17.65 -38.7" fill="#a89797" fill-rule="evenodd" stroke="none"/>
    <path d="M-9.5 -19.7 Q-11.5 -20.25 -11.35 -22.2 -11.15 -25.3 -8.6 -27.4 L-4.2 -30.7 Q-1.2 -32.7 2.4 -33.25 5.25 -33.15 7.6 -32.15 L8.35 -31.5 Q9.75 -29.1 10.3 -26.5 11.15 -21.35 6.9 -18.25 5.15 -16.85 2.7 -17.5 L-1.75 -18.3 Q-5.75 -18.65 -9.5 -19.7" fill="#2c0707" fill-opacity="0.27058825" fill-rule="evenodd" stroke="none"/>
    <path d="M-9.5 -21.3 Q-11.5 -21.85 -11.35 -23.8 -11.15 -26.9 -8.6 -29.0 L-4.2 -32.3 Q-1.2 -34.3 2.4 -34.85 5.25 -34.75 7.6 -33.75 L8.35 -33.1 Q9.75 -30.7 10.3 -28.1 11.15 -22.95 6.9 -19.85 5.15 -18.45 2.7 -19.1 L-1.75 -19.9 Q-5.75 -20.25 -9.5 -21.3" fill="#5d5454" fill-rule="evenodd" stroke="none"/>
    <path d="M13.0 -20.3 Q14.25 -18.6 14.75 -15.85 15.15 -13.2 17.7 -12.6 L18.85 -12.3 18.5 -12.25 Q15.0 -11.25 13.75 -14.35 13.05 -15.8 12.6 -17.4 L12.0 -19.4 10.9 -22.85 Q10.45 -24.2 10.85 -25.3 11.25 -22.55 13.0 -20.3" fill="#646464" fill-rule="evenodd" stroke="none"/>
    <path d="M16.9 -24.25 L19.35 -18.15 19.5 -16.75 Q19.45 -15.75 20.6 -15.4 L22.65 -14.6 Q20.9 -14.0 19.15 -15.15 18.45 -15.6 18.45 -16.4 18.45 -17.2 18.85 -17.95 L17.55 -20.55 15.35 -24.1 14.95 -24.3 Q13.0 -24.7 12.4 -26.05 13.05 -25.5 14.25 -25.25 16.7 -24.7 16.9 -24.25" fill="#807d7d" fill-rule="evenodd" stroke="none"/>
    <path d="M-6.6 -15.6 L-10.8 -15.5 Q-12.75 -17.1 -10.4 -18.55 L-8.2 -19.5 Q-3.25 -18.75 -6.6 -15.6" fill="#7b533a" fill-rule="evenodd" stroke="none"/>
    <path d="M-2.15 -33.25 Q-0.45 -34.05 1.35 -34.2 4.65 -34.25 7.45 -32.9 L8.4 -32.1 Q10.0 -30.0 8.85 -27.4 6.8 -23.1 1.9 -24.5 -1.2 -25.55 -4.5 -24.95 -7.75 -24.3 -8.85 -26.9 L-8.9 -27.9 Q-7.95 -30.6 -5.3 -31.8 L-2.15 -33.25" fill="#918787" fill-rule="evenodd" stroke="none"/>
    <path d="M-9.1 -22.65 Q-7.3 -21.4 -4.0 -21.95 -0.7 -22.5 2.9 -20.75 6.55 -19.1 8.4 -21.85 10.2 -24.6 10.35 -26.95 10.65 -24.65 10.4 -24.0 L9.1 -21.3 Q8.05 -19.2 4.6 -18.95 1.1 -18.75 -0.75 -19.6 -2.65 -20.5 -5.1 -20.4 -9.2 -20.25 -11.3 -23.45 L-11.5 -24.0 Q-11.55 -24.75 -11.2 -25.15 -11.15 -25.05 -10.2 -26.3 -10.4 -23.6 -9.1 -22.65" fill="#3a3636" fill-rule="evenodd" stroke="none"/>
    <path d="M-7.4 -25.6 L-3.5 -25.45 0.85 -25.25 Q3.3 -24.1 5.9 -24.6 6.9 -24.8 7.45 -25.65 L8.4 -26.7 Q8.7 -25.6 7.85 -24.9 L6.65 -23.45 6.55 -23.3 6.45 -23.0 6.55 -22.45 6.45 -22.0 Q5.75 -21.7 5.6 -22.5 L5.0 -23.45 4.85 -23.6 Q1.35 -23.85 -2.05 -24.65 L-3.2 -24.65 -7.45 -24.9 Q-8.45 -25.3 -8.7 -26.3 L-8.75 -27.35 -7.4 -25.6" fill="#584646" fill-rule="evenodd" stroke="none"/>
    <path d="M17.85 8.4 L15.65 13.9 Q15.1 15.75 12.4 21.35 9.6 26.9 8.05 28.4 L7.2 29.05 8.3 29.75 7.2 29.1 7.05 29.15 Q0.5 24.95 -0.6 23.8 L-2.0 22.9 -2.1 22.85 -2.15 22.8 -6.55 20.1 -7.95 18.7 Q-8.6 17.8 -7.95 16.85 -5.8 13.95 -3.5 -0.15 9.3 3.1 17.85 8.4" fill="#5f361b" fill-rule="evenodd" stroke="none"/>
    <path d="M-38.8 8.0 L-39.2 7.85 -39.35 7.45 -39.2 7.05 Q-39.05 6.9 -38.75 6.9 -38.55 6.9 -38.4 7.05 L-38.2 7.45 -38.35 7.85 -38.8 8.0" fill="#74320a" fill-rule="evenodd" stroke="none"/>
    <path d="M-21.35 0.5 L-21.5 0.1 -21.35 -0.3 -20.95 -0.5 -20.55 -0.3 -20.35 0.1 -20.55 0.5 -20.95 0.65 -21.35 0.5" fill="#74320a" fill-rule="evenodd" stroke="none"/>
    <path d="M-42.45 0.6 L-42.6 0.2 -42.45 -0.2 -42.05 -0.4 -41.65 -0.2 -41.45 0.2 -41.65 0.6 -42.05 0.75 -42.45 0.6" fill="#74320a" fill-rule="evenodd" stroke="none"/>
    <path d="M-24.05 6.2 Q-24.55 5.7 -24.55 5.1 -24.55 4.45 -24.05 3.95 -23.55 3.45 -22.95 3.45 -22.3 3.45 -21.8 3.95 -21.3 4.45 -21.3 5.1 -21.3 5.7 -21.8 6.2 -22.3 6.7 -22.95 6.7 -23.55 6.7 -24.05 6.2" fill="#74320a" fill-rule="evenodd" stroke="none"/>
    <path d="M-42.45 0.6 L-42.6 0.2 -42.45 -0.2 -42.05 -0.4 -41.65 -0.2 -41.45 0.2 -41.65 0.6 -42.05 0.75 -42.45 0.6" fill="#74320a" fill-rule="evenodd" stroke="none"/>
    <path d="M-24.6 7.5 L-24.4 7.05 -24.0 6.95 -23.6 7.05 -23.4 7.5 -23.6 7.9 -24.0 8.05 -24.4 7.9 -24.6 7.5" fill="#74320a" fill-rule="evenodd" stroke="none"/>
  </g>
  <defs>
    <radialGradient cx="0" cy="0" gradientTransform="matrix(0.0681, 0.0, 0.0, 0.079, -1.2, -5.2)" gradientUnits="userSpaceOnUse" id="gradient0" r="819.2" spreadMethod="pad">
      <stop offset="0.0" stop-color="#c27a4c"/>
      <stop offset="0.9450980392156862" stop-color="#7e5236"/>
    </radialGradient>
  </defs>
</svg>
