<?xml version="1.0" encoding="UTF-8" standalone="no"?>
<svg xmlns:ffdec="https://www.free-decompiler.com/flash" xmlns:xlink="http://www.w3.org/1999/xlink" ffdec:objectType="shape" height="54.2px" width="70.95px" xmlns="http://www.w3.org/2000/svg">
  <g transform="matrix(1.0, 0.0, 0.0, 1.0, 30.8, 21.45)">
    <path d="M37.1 -17.55 L32.9 -17.45 Q30.95 -19.05 33.3 -20.5 34.35 -21.2 35.5 -21.45 40.45 -20.7 37.1 -17.55" fill="#5d5454" fill-rule="evenodd" stroke="none"/>
    <path d="M23.9 -13.85 L24.2 -14.5 26.05 -16.2 Q28.05 -18.05 30.85 -18.1 36.2 -18.3 39.25 -14.35 40.9 -12.25 39.5 -9.9 37.75 -6.95 35.45 -4.4 34.55 -3.45 33.3 -2.85 31.35 -1.95 29.6 -3.35 28.25 -4.5 27.4 -6.15 L25.65 -8.9 Q23.8 -11.15 23.9 -13.85" fill="#5d5454" fill-rule="evenodd" stroke="none"/>
    <path d="M30.75 -17.7 Q33.3 -17.25 35.55 -15.8 L36.15 -15.6 Q38.05 -15.25 39.05 -13.65 39.65 -12.85 39.45 -11.85 39.05 -9.85 37.7 -8.15 35.4 -5.4 32.85 -7.95 L29.1 -11.9 27.3 -14.25 Q25.9 -16.25 28.3 -17.25 L30.75 -17.7" fill="#918787" fill-rule="evenodd" stroke="none"/>
    <path d="M25.75 -15.25 L25.75 -15.15 25.75 -15.1 25.75 -15.25 M23.4 -12.25 Q23.4 -13.15 23.9 -14.05 L25.15 -15.25 Q24.9 -14.85 24.9 -13.55 24.8 -11.05 25.15 -10.8 25.85 -10.4 26.65 -10.2 28.65 -9.85 28.55 -7.85 L28.65 -7.35 30.3 -4.9 Q31.35 -3.6 33.25 -4.35 35.05 -5.15 35.9 -5.85 L36.05 -5.95 34.5 -3.95 33.05 -2.95 Q32.55 -2.5 31.85 -2.65 28.85 -3.2 27.5 -5.95 26.9 -7.05 26.65 -8.3 24.9 -9.6 23.6 -11.4 L23.4 -12.25" fill="#3a3636" fill-rule="evenodd" stroke="none"/>
    <path d="M23.35 -7.5 L19.15 -7.4 Q17.2 -9.0 19.55 -10.45 20.6 -11.15 21.75 -11.4 26.7 -10.65 23.35 -7.5" fill="#7b533a" fill-rule="evenodd" stroke="none"/>
    <path d="M27.6 1.1 Q25.65 -0.9 27.5 -3.1 29.1 -5.05 30.55 -2.75 L31.5 -0.55 Q30.75 4.4 27.6 1.1" fill="#5d5454" fill-rule="evenodd" stroke="none"/>
    <path d="M11.05 -0.85 L11.05 -1.8 14.8 -1.8 14.8 0.0 15.2 0.0 15.2 1.8 11.45 2.15 11.45 0.95 10.75 0.95 10.75 0.6 Q10.5 -0.1 10.75 -0.85 L11.05 -0.85" fill="#5f361b" fill-rule="evenodd" stroke="none"/>
    <path d="M-7.7 30.95 L-7.7 30.9 -7.35 31.4 -7.7 30.95 M-9.35 27.75 L-8.75 28.05 -8.55 28.25 -8.4 28.6 -8.35 28.65 Q-8.15 29.25 -8.4 29.85 -8.6 30.5 -9.2 30.8 L-9.3 30.8 -10.5 30.85 -10.55 30.8 Q-10.9 30.75 -11.1 30.5 L-11.05 30.5 -11.4 29.95 Q-11.7 29.3 -11.45 28.75 -11.2 28.05 -10.6 27.8 L-10.55 27.8 -9.35 27.75 M-5.0 28.9 L-4.8 29.2 -4.75 29.3 -4.55 29.95 Q-4.3 29.5 -3.85 29.3 L-3.8 29.3 -2.6 29.25 -2.0 29.55 -1.8 29.75 -1.65 30.1 -1.6 30.15 Q-1.4 30.75 -1.65 31.35 -1.85 32.0 -2.45 32.3 L-2.55 32.3 -3.75 32.35 -3.8 32.3 Q-4.15 32.25 -4.35 32.0 L-4.3 32.0 -4.65 31.45 -4.8 30.95 -5.35 31.45 -5.4 31.5 -5.45 31.5 -6.65 31.75 -6.7 31.7 -7.3 31.45 -7.2 31.4 -7.65 30.9 Q-8.0 30.3 -7.85 29.7 -7.65 29.05 -7.1 28.7 L-7.05 28.65 -5.85 28.45 -5.25 28.7 -5.0 28.9 M0.2 29.4 L0.55 29.35 0.85 29.5 1.0 29.55 1.8 30.35 Q2.0 31.0 1.75 31.65 L1.75 31.7 1.0 32.6 0.85 32.6 0.3 32.75 0.3 32.7 -0.35 32.6 -1.2 31.8 Q-1.5 31.15 -1.3 30.55 -1.0 29.85 -0.4 29.55 L0.2 29.4 M5.7 27.35 L6.3 27.2 6.65 27.15 6.95 27.3 7.1 27.35 7.9 28.15 Q8.1 28.8 7.85 29.45 L7.85 29.5 7.1 30.4 6.95 30.4 6.4 30.55 6.4 30.5 5.75 30.4 5.1 29.95 4.95 30.75 4.95 30.8 4.2 31.7 4.05 31.7 3.5 31.85 3.5 31.8 2.85 31.7 Q2.2 31.45 2.0 30.9 1.7 30.25 1.9 29.65 2.2 28.95 2.8 28.65 L3.4 28.5 3.75 28.45 4.05 28.6 4.2 28.65 4.75 29.1 Q4.7 28.7 4.8 28.35 5.1 27.65 5.7 27.35 M18.1 15.6 Q18.7 15.8 19.0 16.45 19.25 17.1 19.1 17.75 L18.15 18.65 17.15 18.8 17.7 19.45 Q17.95 20.1 17.8 20.75 17.5 21.35 16.85 21.65 L15.65 21.7 Q14.95 21.5 14.75 20.9 L14.7 20.9 14.55 20.2 14.55 20.1 14.65 19.55 Q14.85 18.95 15.5 18.65 L16.55 18.55 16.0 17.85 15.85 17.15 15.85 17.05 15.9 16.85 15.95 16.55 16.1 16.35 16.1 16.3 16.25 16.0 16.3 16.05 Q16.5 15.8 16.8 15.65 L18.1 15.6 M9.3 25.8 L9.9 25.65 10.25 25.6 10.55 25.75 10.7 25.8 11.05 26.05 11.0 25.85 Q10.9 25.15 11.3 24.65 L11.3 24.6 Q11.7 24.05 12.4 23.9 L13.0 23.9 13.3 24.0 13.6 24.2 13.7 24.25 13.75 24.25 13.6 24.0 13.6 23.95 13.55 23.95 Q13.25 23.3 13.5 22.7 L13.8 22.1 13.85 22.2 Q14.05 21.95 14.4 21.8 L15.7 21.75 Q16.3 21.95 16.6 22.6 16.85 23.25 16.7 23.9 L15.75 24.8 14.55 24.85 14.05 24.6 14.35 25.3 14.0 26.5 14.0 26.55 13.95 26.6 12.95 27.25 12.9 27.2 12.25 27.25 12.3 27.15 11.7 26.9 11.55 26.8 11.45 27.9 11.45 27.95 10.7 28.85 10.55 28.85 10.0 29.0 10.0 28.95 9.35 28.85 Q8.7 28.6 8.5 28.05 8.2 27.4 8.4 26.8 8.7 26.1 9.3 25.8 M17.1 12.75 L17.3 12.55 17.65 12.4 17.7 12.35 18.9 12.4 Q19.55 12.6 19.85 13.2 L19.85 13.3 19.9 14.5 19.85 14.55 19.55 15.1 19.55 15.05 19.0 15.4 17.8 15.45 Q17.1 15.2 16.85 14.6 L16.85 14.55 Q16.55 13.95 16.8 13.35 L17.1 12.75 M20.3 6.8 L20.2 7.45 20.15 7.4 19.95 7.95 Q19.5 8.6 18.95 8.65 L18.35 8.6 Q18.6 8.7 18.85 8.9 L19.15 8.9 19.2 8.95 19.25 9.0 19.3 9.0 20.05 9.95 20.05 10.0 20.15 10.65 20.05 10.6 19.85 11.2 18.9 12.0 17.65 11.9 17.6 11.85 Q17.0 11.5 16.85 10.85 L16.75 10.25 16.8 9.9 16.95 9.6 17.0 9.55 17.75 8.9 18.65 8.9 17.7 8.5 17.95 8.5 18.1 8.55 17.65 8.3 Q17.1 7.9 17.0 7.2 L17.0 6.6 17.1 6.25 17.25 6.05 17.4 5.9 18.45 5.35 Q19.05 5.3 19.6 5.7 L19.7 5.8 20.3 6.75 20.3 6.8 M16.65 0.2 L16.7 -0.2 16.95 -0.4 17.05 -0.55 Q17.45 -0.95 18.1 -1.05 L19.25 -0.7 19.35 -0.6 Q19.85 -0.25 20.0 0.4 L19.95 0.45 19.85 1.1 19.6 1.55 19.05 2.1 19.65 2.35 19.75 2.45 Q20.25 2.8 20.4 3.4 L20.35 3.45 20.25 4.1 20.0 4.6 Q19.6 5.25 19.0 5.3 L17.75 5.0 Q17.2 4.55 17.05 3.85 L17.1 3.25 17.15 2.9 17.35 2.7 17.45 2.55 Q17.65 2.3 17.95 2.2 17.6 2.15 17.3 1.9 16.75 1.45 16.65 0.8 L16.65 0.2 M16.1 -6.6 L16.6 -6.25 16.65 -6.15 16.1 -6.6 M15.35 -6.9 L15.95 -6.65 16.0 -6.65 15.95 -6.7 16.5 -6.2 16.85 -5.0 16.5 -4.2 17.25 -4.3 17.4 -4.3 Q18.0 -4.2 18.45 -3.7 L18.45 -3.65 18.7 -3.05 18.6 -3.1 18.75 -2.5 Q18.65 -1.7 18.2 -1.4 17.6 -0.95 16.9 -1.05 16.15 -1.1 15.75 -1.65 L15.45 -2.25 15.35 -2.55 15.4 -2.85 15.45 -3.0 15.75 -3.65 14.95 -3.5 14.3 -3.75 14.05 -3.9 13.85 -4.2 13.8 -4.3 Q13.4 -4.75 13.55 -5.5 L14.2 -6.45 14.15 -6.5 15.35 -6.9" fill="#5f361b" fill-rule="evenodd" stroke="none"/>
    <path d="M-20.3 -11.8 L-20.25 -11.85 -19.15 -12.3 -19.05 -12.3 Q-18.35 -12.3 -17.9 -11.85 -17.45 -11.4 -17.4 -10.75 L-17.4 -10.65 -17.4 -10.3 -17.5 -10.0 -17.9 -9.5 Q-18.35 -9.0 -19.05 -9.0 L-19.1 -9.0 Q-19.75 -9.0 -20.25 -9.5 L-20.0 -8.7 -20.0 -8.6 -20.0 -8.25 -20.1 -7.95 -20.5 -7.45 Q-20.95 -6.95 -21.65 -6.95 L-21.7 -6.95 -22.5 -7.15 -22.2 -6.3 -22.2 -6.2 -22.2 -5.85 -22.3 -5.55 -22.7 -5.05 Q-23.15 -4.55 -23.85 -4.55 L-23.9 -4.55 Q-24.55 -4.55 -24.95 -4.95 -24.55 -4.55 -24.55 -3.9 L-24.55 -3.85 -24.55 -3.5 -24.65 -3.2 -25.05 -2.7 Q-25.5 -2.2 -26.2 -2.2 L-26.25 -2.2 -26.6 -2.25 -26.5 -2.2 -26.4 -2.15 -26.1 -2.0 -25.9 -1.75 -25.65 -1.15 Q-25.5 -0.5 -25.85 0.1 L-25.85 0.15 Q-26.2 0.7 -26.85 0.9 L-27.05 0.95 -26.7 1.2 -26.6 1.3 -26.35 1.55 -26.25 1.85 -26.15 2.45 Q-26.15 3.15 -26.65 3.65 -27.1 4.1 -27.85 4.1 -28.45 4.15 -28.95 3.65 L-29.3 3.1 -29.3 3.15 -29.45 2.55 -29.5 2.45 Q-29.45 1.85 -29.0 1.4 L-28.95 1.35 Q-28.5 0.9 -27.9 0.85 L-28.05 0.75 -28.6 0.3 -28.65 0.4 -28.85 -0.2 -28.9 -0.25 Q-29.0 -0.85 -28.75 -1.45 L-28.7 -1.5 -28.7 -1.55 -27.7 -2.3 -26.9 -2.35 -27.4 -2.7 Q-27.85 -3.15 -27.85 -3.85 -27.85 -4.55 -27.4 -5.05 L-26.2 -5.5 Q-25.5 -5.5 -25.05 -5.05 -25.5 -5.5 -25.5 -6.2 -25.5 -6.9 -25.05 -7.4 L-23.85 -7.85 -23.0 -7.65 -23.3 -8.6 -22.85 -9.8 Q-22.35 -10.25 -21.65 -10.25 L-20.5 -9.8 -20.45 -9.75 -20.7 -10.65 -20.6 -11.3 -20.7 -11.3 -20.3 -11.8 M-20.8 -10.65 L-20.75 -11.2 -20.8 -10.55 -20.8 -10.65 M-9.2 -15.55 Q-8.6 -15.45 -8.2 -14.95 L-8.15 -14.9 -8.05 -14.75 -8.05 -12.85 -8.3 -12.6 -8.4 -12.55 -8.7 -12.3 -9.0 -12.25 -9.6 -12.2 Q-10.3 -12.3 -10.75 -12.85 -11.15 -13.35 -11.05 -14.1 -11.05 -14.7 -10.45 -15.15 L-9.9 -15.45 -9.95 -15.45 -9.3 -15.5 -9.2 -15.55 M-16.25 -13.9 L-16.2 -13.9 -15.0 -13.6 -14.95 -13.55 -14.4 -12.85 -14.4 -13.5 Q-14.4 -14.1 -13.8 -14.55 L-13.25 -14.85 -13.3 -14.85 -12.65 -14.9 -12.55 -14.95 Q-11.95 -14.85 -11.55 -14.35 L-11.5 -14.3 Q-11.1 -13.7 -11.1 -13.05 -11.2 -12.45 -11.65 -12.0 L-11.75 -11.95 -12.05 -11.7 -12.35 -11.65 -12.95 -11.6 Q-13.65 -11.7 -14.1 -12.25 L-14.3 -12.6 -14.3 -12.5 Q-14.2 -11.9 -14.55 -11.3 L-14.6 -11.25 -14.8 -10.95 -15.1 -10.75 Q-15.35 -10.6 -15.7 -10.6 -16.35 -10.45 -16.95 -10.9 -17.5 -11.3 -17.6 -12.0 L-17.25 -13.2 -16.8 -13.65 -16.85 -13.7 -16.25 -13.9 M-17.35 -13.3 L-16.95 -13.65 -17.4 -13.2 -17.35 -13.3 M-28.85 5.2 Q-28.35 4.7 -27.7 4.65 L-26.6 5.05 -26.5 5.15 -26.25 5.4 -26.15 5.7 -26.05 6.3 Q-26.05 7.0 -26.55 7.5 L-27.25 7.9 -26.6 8.25 -26.5 8.35 -26.25 8.6 -26.15 8.9 -26.05 9.5 Q-26.05 10.2 -26.55 10.7 -27.0 11.15 -27.75 11.15 -28.35 11.2 -28.85 10.7 L-29.2 10.15 -29.2 10.2 -29.35 9.6 -29.4 9.5 Q-29.35 8.9 -28.9 8.45 L-28.85 8.4 -28.1 7.95 -28.85 7.5 -29.2 6.95 -29.2 7.0 -29.35 6.4 -29.4 6.3 Q-29.35 5.7 -28.9 5.25 L-28.85 5.2 M-28.3 11.7 Q-27.8 11.2 -27.15 11.15 -26.55 11.15 -26.05 11.55 L-25.95 11.65 -25.7 11.9 -25.6 12.2 -25.5 12.8 Q-25.5 13.5 -26.0 14.0 -26.45 14.45 -27.2 14.45 -27.8 14.5 -28.3 14.0 L-28.65 13.45 -28.65 13.5 -28.8 12.9 -28.85 12.8 Q-28.8 12.2 -28.35 11.75 L-28.3 11.7 M-24.8 14.25 Q-24.5 14.4 -24.3 14.65 -23.8 15.1 -23.8 15.8 L-23.8 15.85 Q-23.8 16.35 -24.1 16.75 L-23.5 16.7 -23.4 16.7 -23.05 16.75 -22.75 16.85 -22.3 17.35 Q-21.85 17.85 -21.95 18.55 L-21.95 18.6 Q-22.0 19.25 -22.55 19.7 -23.05 20.05 -23.75 20.0 L-24.4 19.8 -24.4 19.9 -24.85 19.45 -24.9 19.4 Q-25.25 18.9 -25.25 18.25 L-25.25 18.15 -24.95 17.4 -25.45 17.45 -26.1 17.35 -26.1 17.45 -26.6 17.05 -26.65 17.0 Q-27.05 16.55 -27.1 15.9 L-27.1 15.8 Q-27.1 15.1 -26.65 14.65 -26.2 14.2 -25.55 14.15 L-25.45 14.15 -25.1 14.15 -24.8 14.25 M-25.45 17.55 L-26.0 17.5 -25.35 17.55 -25.45 17.55 M-24.35 20.0 L-23.7 20.1 -23.8 20.1 -24.35 20.0" fill="#5f361b" fill-rule="evenodd" stroke="none"/>
    <path d="M-24.15 -8.1 Q-24.6 -8.55 -24.6 -9.25 -24.6 -9.95 -24.15 -10.45 -23.65 -10.9 -22.95 -10.9 -22.25 -10.9 -21.8 -10.45 -21.3 -9.95 -21.3 -9.25 -21.3 -8.55 -21.8 -8.1 -22.25 -7.6 -22.95 -7.6 -23.65 -7.6 -24.15 -8.1" fill="#cd7739" fill-rule="evenodd" stroke="none"/>
    <path d="M-23.0 -7.6 L-23.0 -9.35 -21.4 -8.6 -21.8 -8.1 Q-22.25 -7.6 -22.95 -7.6 L-23.0 -7.6 M-21.35 -8.7 L-21.3 -9.35 -21.3 -9.25 -21.35 -8.7" fill="#aa581d" fill-rule="evenodd" stroke="none"/>
    <path d="M-26.35 -5.7 Q-26.8 -6.15 -26.8 -6.85 -26.8 -7.55 -26.35 -8.05 L-25.15 -8.5 Q-24.45 -8.5 -24.0 -8.05 -23.5 -7.55 -23.5 -6.85 -23.5 -6.15 -24.0 -5.7 -24.45 -5.2 -25.15 -5.2 -25.85 -5.2 -26.35 -5.7" fill="#cd7739" fill-rule="evenodd" stroke="none"/>
    <path d="M-23.55 -6.3 L-23.5 -6.95 -23.5 -6.85 -23.55 -6.3 M-25.2 -5.2 L-25.2 -6.95 -23.6 -6.2 -24.0 -5.7 Q-24.45 -5.2 -25.15 -5.2 L-25.2 -5.2" fill="#aa581d" fill-rule="evenodd" stroke="none"/>
    <path d="M-28.7 -3.35 Q-29.15 -3.8 -29.15 -4.5 L-28.7 -5.7 Q-28.2 -6.15 -27.5 -6.15 -26.8 -6.15 -26.35 -5.7 -25.85 -5.2 -25.85 -4.5 -25.85 -3.8 -26.35 -3.35 -26.8 -2.85 -27.5 -2.85 -28.2 -2.85 -28.7 -3.35" fill="#cd7739" fill-rule="evenodd" stroke="none"/>
    <path d="M-25.9 -3.95 L-25.85 -4.6 -25.85 -4.5 -25.9 -3.95 M-25.95 -3.85 L-26.35 -3.35 Q-26.8 -2.85 -27.5 -2.85 L-27.55 -2.85 Q-27.2 -3.7 -27.55 -4.6 -26.8 -3.85 -25.95 -3.85" fill="#aa581d" fill-rule="evenodd" stroke="none"/>
    <path d="M-27.15 -0.5 Q-27.5 0.05 -28.15 0.25 L-29.35 0.1 -29.9 -0.35 Q-29.45 -1.0 -28.5 -1.25 -29.45 -1.4 -30.0 -2.15 L-30.0 -2.2 -29.0 -2.95 -27.8 -2.85 -27.7 -2.8 -27.4 -2.65 -27.2 -2.4 Q-27.65 -1.65 -28.65 -1.35 -27.75 -1.2 -27.15 -0.5" fill="#cd7739" fill-rule="evenodd" stroke="none"/>
    <path d="M-27.2 -2.4 L-26.95 -1.8 Q-26.8 -1.15 -27.15 -0.55 L-27.15 -0.5 Q-27.75 -1.2 -28.65 -1.35 -27.65 -1.65 -27.2 -2.4" fill="#aa581d" fill-rule="evenodd" stroke="none"/>
    <path d="M-29.9 -0.35 L-29.95 -0.25 -30.15 -0.85 -30.2 -0.9 -30.05 -2.1 -30.0 -2.15 Q-29.45 -1.4 -28.5 -1.25 -29.45 -1.0 -29.9 -0.35 M-29.35 0.2 L-29.4 0.15 -29.9 -0.2 -29.35 0.2" fill="#d98a51" fill-rule="evenodd" stroke="none"/>
    <path d="M-27.55 1.2 Q-28.15 1.8 -29.2 1.75 -28.3 2.15 -27.95 3.0 -28.4 3.45 -29.15 3.45 -29.75 3.5 -30.25 3.0 L-30.6 2.45 Q-30.05 1.9 -29.05 1.9 -29.9 1.55 -30.25 0.7 -29.75 0.2 -29.1 0.15 -28.5 0.15 -28.0 0.55 L-27.9 0.65 -27.65 0.9 -27.55 1.2" fill="#cd7739" fill-rule="evenodd" stroke="none"/>
    <path d="M-27.55 1.2 L-27.45 1.8 Q-27.45 2.5 -27.95 3.0 -28.3 2.15 -29.2 1.75 -28.15 1.8 -27.55 1.2" fill="#aa581d" fill-rule="evenodd" stroke="none"/>
    <path d="M-30.6 2.45 L-30.6 2.5 -30.75 1.9 -30.8 1.8 Q-30.75 1.2 -30.3 0.75 L-30.25 0.7 Q-29.9 1.55 -29.05 1.9 -30.05 1.9 -30.6 2.45" fill="#d98a51" fill-rule="evenodd" stroke="none"/>
    <path d="M-30.15 4.55 Q-29.65 4.05 -29.0 4.0 -28.4 4.0 -27.9 4.4 L-27.8 4.5 -27.55 4.75 -27.45 5.05 Q-28.05 5.65 -29.1 5.6 -28.2 6.0 -27.85 6.85 -28.3 7.3 -29.05 7.3 -29.65 7.35 -30.15 6.85 L-30.5 6.3 Q-29.95 5.75 -28.95 5.75 -29.8 5.4 -30.15 4.55" fill="#cd7739" fill-rule="evenodd" stroke="none"/>
    <path d="M-27.45 5.05 L-27.35 5.65 Q-27.35 6.35 -27.85 6.85 -28.2 6.0 -29.1 5.6 -28.05 5.65 -27.45 5.05" fill="#aa581d" fill-rule="evenodd" stroke="none"/>
    <path d="M-30.5 6.3 L-30.5 6.35 -30.65 5.75 -30.7 5.65 Q-30.65 5.05 -30.2 4.6 L-30.15 4.55 Q-29.8 5.4 -28.95 5.75 -29.95 5.75 -30.5 6.3" fill="#d98a51" fill-rule="evenodd" stroke="none"/>
    <path d="M-27.45 8.25 Q-28.05 8.85 -29.1 8.8 -28.2 9.2 -27.85 10.05 -28.3 10.5 -29.05 10.5 -29.65 10.55 -30.15 10.05 L-30.5 9.5 Q-29.95 8.95 -28.95 8.95 -29.8 8.6 -30.15 7.75 -29.65 7.25 -29.0 7.2 -28.4 7.2 -27.9 7.6 L-27.8 7.7 -27.55 7.95 -27.45 8.25" fill="#cd7739" fill-rule="evenodd" stroke="none"/>
    <path d="M-27.45 8.25 L-27.35 8.85 Q-27.35 9.55 -27.85 10.05 -28.2 9.2 -29.1 8.8 -28.05 8.85 -27.45 8.25" fill="#aa581d" fill-rule="evenodd" stroke="none"/>
    <path d="M-30.5 9.5 L-30.5 9.55 -30.65 8.95 -30.7 8.85 Q-30.65 8.25 -30.2 7.8 L-30.15 7.75 Q-29.8 8.6 -28.95 8.95 -29.95 8.95 -30.5 9.5" fill="#d98a51" fill-rule="evenodd" stroke="none"/>
    <path d="M-29.6 11.05 Q-29.1 10.55 -28.45 10.5 -27.85 10.5 -27.35 10.9 L-27.25 11.0 -27.0 11.25 -26.9 11.55 Q-27.5 12.15 -28.55 12.1 -27.65 12.5 -27.3 13.35 -27.75 13.8 -28.5 13.8 -29.1 13.85 -29.6 13.35 L-29.95 12.8 Q-29.4 12.25 -28.4 12.25 -29.25 11.9 -29.6 11.05" fill="#cd7739" fill-rule="evenodd" stroke="none"/>
    <path d="M-26.9 11.55 L-26.8 12.15 Q-26.8 12.85 -27.3 13.35 -27.65 12.5 -28.55 12.1 -27.5 12.15 -26.9 11.55" fill="#aa581d" fill-rule="evenodd" stroke="none"/>
    <path d="M-29.95 12.8 L-29.95 12.85 -30.1 12.25 -30.15 12.15 Q-30.1 11.55 -29.65 11.1 L-29.6 11.05 Q-29.25 11.9 -28.4 12.25 -29.4 12.25 -29.95 12.8" fill="#d98a51" fill-rule="evenodd" stroke="none"/>
    <path d="M-21.9 -11.95 Q-21.1 -11.9 -20.4 -11.2 -20.75 -12.1 -20.4 -12.95 L-20.35 -12.95 Q-19.65 -12.95 -19.2 -12.5 -18.75 -12.05 -18.7 -11.4 L-18.7 -11.3 -18.7 -10.95 -18.8 -10.65 Q-19.65 -10.65 -20.4 -11.4 -20.05 -10.5 -20.4 -9.65 -21.05 -9.65 -21.55 -10.15 -22.0 -10.6 -22.0 -11.3 L-21.9 -11.95" fill="#cd7739" fill-rule="evenodd" stroke="none"/>
    <path d="M-18.8 -10.65 L-19.2 -10.15 Q-19.65 -9.65 -20.35 -9.65 L-20.4 -9.65 Q-20.05 -10.5 -20.4 -11.4 -19.65 -10.65 -18.8 -10.65" fill="#aa581d" fill-rule="evenodd" stroke="none"/>
    <path d="M-22.1 -11.2 L-22.1 -11.3 -22.05 -11.85 -22.1 -11.2 M-21.9 -11.95 L-22.0 -11.95 -21.6 -12.45 -21.55 -12.5 Q-21.1 -12.9 -20.45 -12.95 L-20.4 -12.95 Q-20.75 -12.1 -20.4 -11.2 -21.1 -11.9 -21.9 -11.95" fill="#d98a51" fill-rule="evenodd" stroke="none"/>
    <path d="M-25.1 15.2 Q-25.1 15.85 -25.6 16.35 -26.05 16.8 -26.75 16.8 L-27.4 16.7 Q-27.35 15.9 -26.65 15.2 -27.55 15.55 -28.4 15.2 L-28.4 15.15 Q-28.4 14.45 -27.95 14.0 -27.5 13.55 -26.85 13.5 L-26.75 13.5 -26.4 13.5 -26.1 13.6 Q-26.1 14.45 -26.85 15.2 -25.95 14.85 -25.1 15.2" fill="#cd7739" fill-rule="evenodd" stroke="none"/>
    <path d="M-26.1 13.6 L-25.6 14.0 Q-25.1 14.45 -25.1 15.15 L-25.1 15.2 Q-25.95 14.85 -26.85 15.2 -26.1 14.45 -26.1 13.6" fill="#aa581d" fill-rule="evenodd" stroke="none"/>
    <path d="M-27.4 16.7 L-27.4 16.8 -27.9 16.4 -27.95 16.35 Q-28.35 15.9 -28.4 15.25 L-28.4 15.2 Q-27.55 15.55 -26.65 15.2 -27.35 15.9 -27.4 16.7 M-26.65 16.9 L-26.75 16.9 -27.3 16.85 -26.65 16.9" fill="#d98a51" fill-rule="evenodd" stroke="none"/>
    <path d="M-9.45 -15.55 Q-9.05 -14.95 -9.05 -14.3 -9.15 -13.7 -9.6 -13.25 L-9.7 -13.2 -10.0 -12.95 -10.3 -12.9 Q-10.8 -13.55 -10.65 -14.6 -11.15 -13.75 -12.05 -13.5 -12.45 -14.0 -12.35 -14.75 -12.35 -15.35 -11.75 -15.8 L-11.2 -16.1 Q-10.7 -15.45 -10.8 -14.45 -10.35 -15.3 -9.45 -15.55" fill="#cd7739" fill-rule="evenodd" stroke="none"/>
    <path d="M-10.3 -12.9 L-10.9 -12.85 Q-11.6 -12.95 -12.05 -13.5 -11.15 -13.75 -10.65 -14.6 -10.8 -13.55 -10.3 -12.9" fill="#aa581d" fill-rule="evenodd" stroke="none"/>
    <path d="M-11.2 -16.1 L-11.25 -16.1 -10.6 -16.15 -10.5 -16.2 -9.5 -15.6 -9.45 -15.55 Q-10.35 -15.3 -10.8 -14.45 -10.7 -15.45 -11.2 -16.1" fill="#d98a51" fill-rule="evenodd" stroke="none"/>
    <path d="M-13.65 -12.3 Q-14.15 -12.95 -14.0 -14.0 -14.5 -13.15 -15.4 -12.9 -15.8 -13.4 -15.7 -14.15 -15.7 -14.75 -15.1 -15.2 L-14.55 -15.5 Q-14.05 -14.85 -14.15 -13.85 -13.7 -14.7 -12.8 -14.95 -12.4 -14.35 -12.4 -13.7 -12.5 -13.1 -12.95 -12.65 L-13.05 -12.6 -13.35 -12.35 -13.65 -12.3" fill="#cd7739" fill-rule="evenodd" stroke="none"/>
    <path d="M-13.65 -12.3 L-14.25 -12.25 -15.4 -12.9 Q-14.5 -13.15 -14.0 -14.0 -14.15 -12.95 -13.65 -12.3" fill="#aa581d" fill-rule="evenodd" stroke="none"/>
    <path d="M-14.55 -15.5 L-14.6 -15.5 -13.95 -15.55 -13.85 -15.6 Q-13.25 -15.5 -12.85 -15.0 L-12.8 -14.95 Q-13.7 -14.7 -14.15 -13.85 -14.05 -14.85 -14.55 -15.5" fill="#d98a51" fill-rule="evenodd" stroke="none"/>
    <path d="M-18.1 -14.3 Q-17.5 -13.8 -17.3 -12.8 -17.05 -13.75 -16.25 -14.2 -15.65 -13.75 -15.6 -13.15 -15.5 -12.55 -15.85 -11.95 L-15.9 -11.9 -16.1 -11.6 -16.4 -11.4 Q-17.05 -11.9 -17.2 -12.95 -17.45 -12.05 -18.25 -11.55 -18.8 -11.95 -18.9 -12.65 L-18.55 -13.85 -18.1 -14.3" fill="#cd7739" fill-rule="evenodd" stroke="none"/>
    <path d="M-16.4 -11.4 L-17.0 -11.25 -18.25 -11.55 Q-17.45 -12.05 -17.2 -12.95 -17.05 -11.9 -16.4 -11.4" fill="#aa581d" fill-rule="evenodd" stroke="none"/>
    <path d="M-18.7 -13.85 L-18.65 -13.95 -18.25 -14.3 -18.7 -13.85 M-18.1 -14.3 L-18.15 -14.35 -17.55 -14.55 -17.5 -14.55 -16.3 -14.25 -16.25 -14.2 Q-17.05 -13.75 -17.3 -12.8 -17.5 -13.8 -18.1 -14.3" fill="#d98a51" fill-rule="evenodd" stroke="none"/>
    <path d="M-25.7 19.15 Q-25.55 18.35 -24.8 17.75 L-26.55 17.55 -26.55 17.5 Q-26.45 16.8 -25.95 16.4 -25.45 16.0 -24.8 16.05 L-24.7 16.05 -24.35 16.1 -24.05 16.2 Q-24.15 17.05 -25.0 17.75 L-23.25 17.95 Q-23.3 18.6 -23.85 19.05 L-25.05 19.35 -25.7 19.15" fill="#cd7739" fill-rule="evenodd" stroke="none"/>
    <path d="M-24.05 16.2 L-23.6 16.7 Q-23.15 17.2 -23.25 17.9 L-23.25 17.95 -25.0 17.75 Q-24.15 17.05 -24.05 16.2" fill="#aa581d" fill-rule="evenodd" stroke="none"/>
    <path d="M-25.0 19.45 L-25.1 19.45 -25.65 19.35 -25.0 19.45 M-25.7 19.15 L-25.7 19.25 -26.15 18.8 -26.2 18.75 -26.55 17.6 -26.55 17.55 -24.8 17.75 Q-25.55 18.35 -25.7 19.15" fill="#d98a51" fill-rule="evenodd" stroke="none"/>
    <path d="M-20.95 20.75 Q-20.95 21.4 -21.45 21.9 -21.9 22.35 -22.6 22.35 L-23.25 22.25 Q-23.2 21.45 -22.5 20.75 -23.4 21.1 -24.25 20.75 L-24.25 20.7 Q-24.25 20.0 -23.8 19.55 -23.35 19.1 -22.7 19.05 L-22.6 19.05 -22.25 19.05 -21.95 19.15 Q-21.95 20.0 -22.7 20.75 -21.8 20.4 -20.95 20.75" fill="#cd7739" fill-rule="evenodd" stroke="none"/>
    <path d="M-21.95 19.15 Q-21.65 19.3 -21.45 19.55 -20.95 20.0 -20.95 20.7 L-20.95 20.75 Q-21.8 20.4 -22.7 20.75 -21.95 20.0 -21.95 19.15" fill="#aa581d" fill-rule="evenodd" stroke="none"/>
    <path d="M-23.25 22.25 L-23.25 22.35 -23.75 21.95 -23.8 21.9 Q-24.2 21.45 -24.25 20.8 L-24.25 20.75 Q-23.4 21.1 -22.5 20.75 -23.2 21.45 -23.25 22.25 M-22.5 22.45 L-22.6 22.45 -23.15 22.4 -22.5 22.45" fill="#d98a51" fill-rule="evenodd" stroke="none"/>
    <path d="M16.0 -8.25 L16.05 -8.25 16.0 -8.3 16.55 -7.8 16.9 -6.6 16.55 -5.8 17.3 -5.9 Q17.6 -4.95 17.2 -4.2 17.9 -4.85 18.65 -4.7 L18.8 -4.1 Q18.7 -3.3 18.25 -3.0 17.65 -2.55 16.95 -2.65 16.7 -3.5 17.2 -4.45 16.4 -3.7 15.5 -3.85 L15.4 -4.15 15.45 -4.45 15.5 -4.6 15.8 -5.25 16.2 -5.6 Q15.45 -6.05 15.2 -6.9 15.15 -5.85 14.35 -5.35 L14.1 -5.5 13.9 -5.8 13.85 -5.9 Q13.45 -6.35 13.6 -7.1 13.7 -7.6 14.25 -8.05 15.0 -7.65 15.3 -6.7 15.45 -7.7 16.0 -8.25 M16.7 -1.4 L16.75 -1.8 17.0 -2.0 17.1 -2.15 Q17.5 -2.55 18.15 -2.65 L19.3 -2.3 Q19.1 -1.4 18.3 -0.95 19.35 -1.1 19.9 -0.6 L19.9 -0.5 19.65 -0.05 19.1 0.5 Q19.45 0.55 19.7 0.75 19.5 1.7 18.75 2.15 19.75 1.95 20.3 2.45 L20.3 2.5 20.05 3.0 Q19.65 3.65 19.05 3.7 L17.8 3.4 Q18.0 2.5 18.85 1.95 17.8 2.15 17.15 1.65 L17.2 1.3 17.4 1.1 17.5 0.95 18.0 0.6 17.35 0.3 Q17.55 -0.55 18.4 -1.1 17.4 -0.9 16.7 -1.4 M19.65 4.1 Q19.4 5.0 18.7 5.5 19.65 5.3 20.2 5.8 L20.0 6.35 19.0 7.05 18.4 7.0 18.9 7.3 19.2 7.3 19.25 7.35 19.3 7.4 Q19.2 8.3 18.45 8.95 L20.1 9.0 19.9 9.6 18.95 10.4 17.7 10.3 Q17.8 9.35 18.55 8.8 L16.8 8.65 16.85 8.3 17.0 8.0 17.05 7.95 Q17.35 7.5 17.8 7.3 L18.7 7.3 17.75 6.9 18.0 6.9 18.15 6.95 17.7 6.7 Q17.95 5.85 18.75 5.3 L17.05 5.0 17.15 4.65 17.3 4.45 17.45 4.3 Q17.85 3.9 18.5 3.75 19.1 3.7 19.65 4.1 M17.15 11.15 L17.35 10.95 17.7 10.8 17.75 10.75 18.95 10.8 Q19.6 11.0 19.9 11.6 L19.9 11.65 Q19.25 12.35 18.3 12.4 19.2 12.75 19.6 13.45 L19.05 13.8 17.85 13.85 Q17.15 13.6 16.9 13.0 17.5 12.35 18.45 12.3 17.5 11.95 17.15 11.15 M8.45 25.2 Q9.4 25.15 10.1 25.8 9.65 24.85 9.95 24.05 L10.3 24.0 10.6 24.15 10.75 24.2 11.1 24.45 11.05 24.25 Q10.95 23.55 11.35 23.05 12.25 23.2 12.8 24.05 12.55 23.0 13.05 22.3 L13.35 22.4 13.65 22.6 13.75 22.65 13.8 22.65 13.65 22.4 13.65 22.35 Q14.25 21.7 15.2 21.6 14.25 21.3 13.9 20.6 L14.45 20.2 15.75 20.15 Q16.35 20.35 16.65 21.0 16.9 21.65 16.75 22.3 L15.8 23.2 14.6 23.25 14.1 23.0 14.4 23.7 Q14.45 24.35 14.05 24.9 L14.05 24.95 Q13.15 24.75 12.6 23.95 12.8 24.9 12.35 25.55 L11.75 25.3 11.6 25.2 11.5 26.3 Q10.6 26.35 9.9 25.75 10.35 26.65 10.05 27.35 L9.4 27.25 Q8.75 27.0 8.55 26.45 8.25 25.8 8.45 25.2 M16.35 14.45 L16.85 14.05 18.15 14.0 Q18.75 14.2 19.05 14.85 19.3 15.5 19.15 16.15 L18.2 17.05 17.2 17.2 17.75 17.85 Q18.0 18.5 17.85 19.15 17.55 19.75 16.9 20.05 L15.7 20.1 Q15.0 19.9 14.8 19.3 L16.35 18.55 15.0 17.45 14.7 18.05 14.6 18.5 14.7 17.95 Q14.9 17.35 15.55 17.05 L16.6 16.95 16.05 16.25 17.65 15.5 16.35 14.45 M15.95 15.25 L16.0 14.95 16.15 14.75 16.0 15.0 15.95 15.25 M6.35 25.6 L6.7 25.55 7.0 25.7 7.15 25.75 7.95 26.55 Q8.15 27.2 7.9 27.85 7.0 27.9 6.3 27.3 6.75 28.2 6.45 28.9 L5.8 28.8 5.15 28.35 5.0 29.15 Q4.1 29.2 3.4 28.6 3.85 29.5 3.55 30.2 L2.9 30.1 Q2.25 29.85 2.05 29.3 1.75 28.65 1.95 28.05 2.9 28.0 3.6 28.65 3.15 27.7 3.45 26.9 L3.8 26.85 4.1 27.0 4.25 27.05 4.8 27.5 Q4.75 27.1 4.85 26.75 5.8 26.7 6.5 27.35 6.05 26.4 6.35 25.6 M0.25 27.8 L0.6 27.75 0.9 27.9 1.05 27.95 1.85 28.75 Q2.05 29.4 1.8 30.05 0.9 30.1 0.2 29.5 0.65 30.4 0.35 31.1 L-0.3 31.0 -1.15 30.2 Q-1.45 29.55 -1.25 28.95 -0.3 28.9 0.4 29.55 -0.05 28.6 0.25 27.8 M-5.2 27.1 L-4.95 27.3 -4.75 27.6 -4.7 27.7 -4.5 28.35 -3.8 27.7 Q-3.15 28.3 -3.1 29.25 -2.75 28.3 -1.95 27.95 L-1.75 28.15 -1.6 28.5 -1.55 28.55 Q-1.35 29.15 -1.6 29.75 -1.8 30.4 -2.4 30.7 L-2.45 30.7 Q-3.15 30.05 -3.2 29.1 -3.55 30.0 -4.25 30.4 L-4.6 29.85 -4.75 29.35 -5.3 29.85 -5.35 29.9 Q-6.1 29.35 -6.25 28.4 -6.5 29.35 -7.15 29.8 L-7.6 29.3 Q-7.95 28.7 -7.8 28.1 -7.6 27.45 -7.05 27.1 -6.3 27.6 -6.15 28.6 -5.9 27.55 -5.2 27.1 M-8.7 26.45 L-8.5 26.65 -8.35 27.0 -8.3 27.05 Q-8.1 27.65 -8.35 28.25 -8.55 28.9 -9.15 29.2 L-9.2 29.2 Q-9.9 28.55 -9.95 27.6 -10.3 28.5 -11.0 28.9 L-11.35 28.35 Q-11.65 27.7 -11.4 27.15 -11.15 26.45 -10.55 26.2 -9.9 26.8 -9.85 27.75 -9.5 26.8 -8.7 26.45" fill="#cd7739" fill-rule="evenodd" stroke="none"/>
    <path d="M16.95 -2.65 Q16.2 -2.7 15.8 -3.25 L15.5 -3.85 Q16.4 -3.7 17.2 -4.45 16.7 -3.5 16.95 -2.65 M15.8 -5.25 L15.0 -5.1 14.35 -5.35 Q15.15 -5.85 15.2 -6.9 15.45 -6.05 16.2 -5.6 L15.8 -5.25 M17.8 3.4 Q17.25 2.95 17.1 2.25 L17.15 1.65 Q17.8 2.15 18.85 1.95 18.0 2.5 17.8 3.4 M17.35 0.3 Q16.8 -0.15 16.7 -0.8 L16.7 -1.4 Q17.4 -0.9 18.4 -1.1 17.55 -0.55 17.35 0.3 M17.7 10.3 L17.65 10.25 Q17.05 9.9 16.9 9.25 L16.8 8.65 18.55 8.8 Q17.8 9.35 17.7 10.3 M17.7 6.7 Q17.15 6.3 17.05 5.6 L17.05 5.0 18.75 5.3 Q17.95 5.85 17.7 6.7 M16.9 13.0 L16.9 12.95 Q16.6 12.35 16.85 11.75 L17.15 11.15 Q17.5 11.95 18.45 12.3 17.5 12.35 16.9 13.0 M8.45 25.2 Q8.75 24.5 9.35 24.2 L9.95 24.05 Q9.65 24.85 10.1 25.8 9.4 25.15 8.45 25.2 M11.35 23.05 L11.35 23.0 12.45 22.3 13.05 22.3 Q12.55 23.0 12.8 24.05 12.25 23.2 11.35 23.05 M13.65 22.35 L13.6 22.35 Q13.3 21.7 13.55 21.1 L13.85 20.5 13.9 20.6 Q14.25 21.3 15.2 21.6 14.25 21.7 13.65 22.35 M16.35 14.45 L17.65 15.5 16.05 16.25 15.9 15.55 15.9 15.45 15.95 15.25 16.0 15.0 16.15 14.75 16.15 14.7 16.3 14.4 16.35 14.45 M14.6 18.5 L14.7 18.05 15.0 17.45 16.35 18.55 14.8 19.3 14.75 19.3 Q14.6 18.95 14.6 18.6 L14.6 18.5 M4.85 26.75 Q5.15 26.05 5.75 25.75 L6.35 25.6 Q6.05 26.4 6.5 27.35 5.8 26.7 4.85 26.75 M1.95 28.05 Q2.25 27.35 2.85 27.05 L3.45 26.9 Q3.15 27.7 3.6 28.65 2.9 28.0 1.95 28.05 M0.25 27.8 Q-0.05 28.6 0.4 29.55 -0.3 28.9 -1.25 28.95 -0.95 28.25 -0.35 27.95 L0.25 27.8 M-3.8 27.7 L-3.75 27.7 -2.55 27.65 -1.95 27.95 Q-2.75 28.3 -3.1 29.25 -3.15 28.3 -3.8 27.7 M-7.05 27.1 L-7.0 27.05 Q-6.4 26.7 -5.8 26.85 L-5.2 27.1 Q-5.9 27.55 -6.15 28.6 -6.3 27.6 -7.05 27.1 M-10.55 26.2 L-10.5 26.2 -9.3 26.15 -8.7 26.45 Q-9.5 26.8 -9.85 27.75 -9.9 26.8 -10.55 26.2" fill="#aa581d" fill-rule="evenodd" stroke="none"/>
    <path d="M16.65 -7.85 L16.7 -7.75 16.15 -8.2 16.65 -7.85 M14.25 -8.05 L14.2 -8.1 Q14.75 -8.45 15.4 -8.5 L16.0 -8.25 Q15.45 -7.7 15.3 -6.7 15.0 -7.65 14.25 -8.05 M17.3 -5.9 L17.45 -5.9 Q18.05 -5.8 18.5 -5.3 L18.5 -5.25 18.75 -4.65 18.65 -4.7 Q17.9 -4.85 17.2 -4.2 17.6 -4.95 17.3 -5.9 M19.3 -2.3 L19.4 -2.2 Q19.9 -1.85 20.05 -1.2 L20.0 -1.15 19.9 -0.5 19.9 -0.6 Q19.35 -1.1 18.3 -0.95 19.1 -1.4 19.3 -2.3 M19.7 0.75 L19.8 0.85 Q20.3 1.2 20.45 1.8 L20.4 1.85 20.3 2.5 20.3 2.45 Q19.75 1.95 18.75 2.15 19.5 1.7 19.7 0.75 M19.65 4.1 L19.75 4.2 Q20.2 4.55 20.35 5.15 L20.35 5.2 20.25 5.85 20.2 5.8 Q19.65 5.3 18.7 5.5 19.4 5.0 19.65 4.1 M19.3 7.4 L19.35 7.4 20.1 8.35 20.1 8.4 20.2 9.05 20.1 9.0 18.45 8.95 Q19.2 8.3 19.3 7.4 M19.9 11.65 L19.9 11.7 19.95 12.9 19.9 12.95 19.6 13.5 19.6 13.45 Q19.2 12.75 18.3 12.4 19.25 12.35 19.9 11.65 M14.05 24.95 L14.0 25.0 13.0 25.65 12.95 25.6 12.3 25.65 12.35 25.55 Q12.8 24.9 12.6 23.95 13.15 24.75 14.05 24.95 M11.5 26.3 L11.5 26.35 10.75 27.25 10.6 27.25 10.05 27.4 10.05 27.35 Q10.35 26.65 9.9 25.75 10.6 26.35 11.5 26.3 M7.9 27.85 L7.9 27.9 7.15 28.8 7.0 28.8 6.45 28.95 6.45 28.9 Q6.75 28.2 6.3 27.3 7.0 27.9 7.9 27.85 M5.0 29.15 L5.0 29.2 4.25 30.1 4.1 30.1 3.55 30.25 3.55 30.2 Q3.85 29.5 3.4 28.6 4.1 29.2 5.0 29.15 M0.35 31.1 Q0.65 30.4 0.2 29.5 0.9 30.1 1.8 30.05 L1.8 30.1 1.05 31.0 0.9 31.0 0.35 31.15 0.35 31.1 M-2.45 30.7 L-2.5 30.7 -3.7 30.75 -3.75 30.7 -4.3 30.4 -4.25 30.4 Q-3.55 30.0 -3.2 29.1 -3.15 30.05 -2.45 30.7 M-5.35 29.9 L-5.4 29.9 -6.6 30.15 -6.65 30.1 -7.25 29.85 -7.15 29.8 Q-6.5 29.35 -6.25 28.4 -6.1 29.35 -5.35 29.9 M-9.2 29.2 L-9.25 29.2 -10.45 29.25 -10.5 29.2 -11.05 28.9 -11.0 28.9 Q-10.3 28.5 -9.95 27.6 -9.9 28.55 -9.2 29.2 M-7.65 29.35 L-7.65 29.3 -7.3 29.8 -7.65 29.35" fill="#d98a51" fill-rule="evenodd" stroke="none"/>
    <path d="M-21.0 24.5 Q-20.95 23.7 -20.25 23.0 -21.15 23.35 -22.0 23.0 L-22.0 22.95 Q-22.0 22.25 -21.55 21.8 -21.1 21.35 -20.45 21.3 L-20.35 21.3 -20.0 21.3 -19.7 21.4 Q-19.7 22.25 -20.45 23.0 -19.55 22.65 -18.7 23.0 -18.7 23.65 -19.2 24.15 -19.65 24.6 -20.35 24.6 L-21.0 24.5" fill="#cd7739" fill-rule="evenodd" stroke="none"/>
    <path d="M-19.7 21.4 L-19.2 21.8 Q-18.7 22.25 -18.7 22.95 L-18.7 23.0 Q-19.55 22.65 -20.45 23.0 -19.7 22.25 -19.7 21.4" fill="#aa581d" fill-rule="evenodd" stroke="none"/>
    <path d="M-20.25 24.7 L-20.35 24.7 -20.9 24.65 -20.25 24.7 M-21.0 24.5 L-21.0 24.6 -21.5 24.2 -21.55 24.15 -22.0 23.05 -22.0 23.0 Q-21.15 23.35 -20.25 23.0 -20.95 23.7 -21.0 24.5" fill="#d98a51" fill-rule="evenodd" stroke="none"/>
    <path d="M-16.15 23.15 Q-15.7 23.6 -15.7 24.35 -15.65 24.95 -16.15 25.45 L-16.7 25.8 Q-17.25 25.25 -17.25 24.25 -17.6 25.1 -18.45 25.45 L-19.0 24.3 Q-19.0 23.7 -18.6 23.2 L-18.5 23.1 -18.25 22.85 -17.95 22.75 Q-17.35 23.35 -17.4 24.4 -17.0 23.5 -16.15 23.15" fill="#cd7739" fill-rule="evenodd" stroke="none"/>
    <path d="M-17.95 22.75 L-17.35 22.65 Q-16.65 22.65 -16.15 23.15 -17.0 23.5 -17.4 24.4 -17.35 23.35 -17.95 22.75" fill="#aa581d" fill-rule="evenodd" stroke="none"/>
    <path d="M-16.7 25.8 L-16.6 25.9 -17.25 25.95 -17.35 26.0 Q-17.95 25.95 -18.4 25.5 L-18.45 25.45 Q-17.6 25.1 -17.25 24.25 -17.25 25.25 -16.7 25.8 M-16.05 25.45 L-16.1 25.5 -16.5 25.9 -16.05 25.45" fill="#d98a51" fill-rule="evenodd" stroke="none"/>
    <path d="M-13.1 28.95 L-13.75 29.0 -13.85 29.05 Q-14.45 29.0 -14.9 28.55 L-14.95 28.5 Q-15.45 28.0 -15.5 27.35 -15.5 26.75 -15.1 26.25 L-15.0 26.15 -14.75 25.9 -14.45 25.8 -13.85 25.7 Q-13.15 25.7 -12.65 26.2 -12.2 26.65 -12.2 27.4 -12.15 28.0 -12.65 28.5 L-13.2 28.85 -13.1 28.95 M-12.55 28.5 L-12.6 28.55 -13.0 28.95 -12.55 28.5" fill="#5f361b" fill-rule="evenodd" stroke="none"/>
    <path d="M-13.4 27.3 Q-13.95 26.75 -13.95 25.75 -14.3 26.6 -15.15 26.95 L-15.7 25.8 Q-15.7 25.2 -15.3 24.7 L-15.2 24.6 -14.95 24.35 -14.65 24.25 Q-14.05 24.85 -14.1 25.9 -13.7 25.0 -12.85 24.65 -12.4 25.1 -12.4 25.85 -12.35 26.45 -12.85 26.95 L-13.4 27.3" fill="#cd7739" fill-rule="evenodd" stroke="none"/>
    <path d="M-14.65 24.25 L-14.05 24.15 Q-13.35 24.15 -12.85 24.65 -13.7 25.0 -14.1 25.9 -14.05 24.85 -14.65 24.25" fill="#aa581d" fill-rule="evenodd" stroke="none"/>
    <path d="M-12.75 26.95 L-12.8 27.0 -13.2 27.4 -12.75 26.95 M-13.4 27.3 L-13.3 27.4 -13.95 27.45 -14.05 27.5 Q-14.65 27.45 -15.1 27.0 L-15.15 26.95 Q-14.3 26.6 -13.95 25.75 -13.95 26.75 -13.4 27.3" fill="#d98a51" fill-rule="evenodd" stroke="none"/>
    <path d="M3.2 -13.35 L14.6 -7.25 13.9 -5.95 2.5 -12.05 3.2 -13.35" fill="#5f361b" fill-rule="evenodd" stroke="none"/>
    <path d="M2.95 -12.1 L-9.95 -13.1 -9.8 -14.55 3.1 -13.55 2.95 -12.1" fill="#5f361b" fill-rule="evenodd" stroke="none"/>
    <path d="M3.2 -14.05 L14.6 -7.95 13.9 -6.65 2.5 -12.75 3.2 -14.05" fill="#dd894c" fill-rule="evenodd" stroke="none"/>
    <path d="M2.95 -12.8 L-9.95 -13.8 -9.8 -15.25 3.1 -14.25 2.95 -12.8" fill="#dd894c" fill-rule="evenodd" stroke="none"/>
    <path d="M-10.8 -0.85 Q-15.4 0.45 -20.0 -0.85 L-20.2 -9.15 Q-15.55 -10.85 -10.8 -9.5 -9.85 -4.85 -10.8 -0.85" fill="#5f361b" fill-rule="evenodd" stroke="none"/>
    <path d="M-18.2 -8.2 L-10.6 -8.45 -10.6 -2.25 Q-14.3 -1.25 -17.5 -2.15 L-18.1 -3.25 -18.2 -8.2" fill="#aa5e27" fill-rule="evenodd" stroke="none"/>
    <path d="M-10.35 -3.35 Q-14.4 -2.3 -18.45 -3.35 L-18.6 -9.85 -10.35 -10.1 -10.35 -3.35" fill="#e79357" fill-rule="evenodd" stroke="none"/>
    <path d="M-10.35 -10.1 L-10.35 -3.35 Q-11.45 -3.85 -14.65 -7.15 -11.05 -10.3 -10.35 -10.1" fill="#aa5e27" fill-rule="evenodd" stroke="none"/>
    <path d="M-18.6 -9.85 Q-17.6 -9.4 -14.95 -7.2 L-18.45 -3.35 -18.6 -9.85" fill="#c47a44" fill-rule="evenodd" stroke="none"/>
    <path d="M11.35 1.85 L11.35 0.4 15.1 0.4 15.1 1.85 11.35 1.85" fill="#c47a44" fill-rule="evenodd" stroke="none"/>
    <path d="M15.1 1.85 L15.1 2.2 11.35 2.2 11.35 1.85 15.1 1.85" fill="#a35e2d" fill-rule="evenodd" stroke="none"/>
    <path d="M14.7 -1.4 L14.7 0.4 10.95 0.4 10.95 -1.4 14.7 -1.4" fill="#a35e2d" fill-rule="evenodd" stroke="none"/>
    <path d="M14.7 -1.3 L14.7 -1.1 10.95 -1.1 10.95 -1.3 14.7 -1.3" fill="#773a0f" fill-rule="evenodd" stroke="none"/>
    <path d="M10.65 1.0 Q10.4 0.3 10.65 -0.45 L14.4 -0.45 Q14.7 0.3 14.4 1.05 L12.8 0.95 10.65 1.0" fill="#c47a44" fill-rule="evenodd" stroke="none"/>
    <path d="M14.4 1.05 L14.4 1.35 10.65 1.35 10.65 1.0 12.8 0.95 14.4 1.05" fill="#a35e2d" fill-rule="evenodd" stroke="none"/>
  </g>
</svg>
