<?xml version="1.0" encoding="UTF-8" standalone="no"?>
<svg xmlns:ffdec="https://www.free-decompiler.com/flash" xmlns:xlink="http://www.w3.org/1999/xlink" ffdec:objectType="shape" height="96.95px" width="92.5px" xmlns="http://www.w3.org/2000/svg">
  <g transform="matrix(1.0, 0.0, 0.0, 1.0, 1.5, 1.5)">
    <path d="M67.8 11.3 Q61.9 8.15 58.25 3.45 55.65 0.0 53.4 0.0 50.9 0.0 48.85 3.5 46.8 7.0 45.2 11.4 43.55 15.75 40.25 15.65 L35.65 15.1 Q34.35 14.7 33.75 13.5 L33.75 10.65 Q32.7 8.05 29.35 8.05 24.85 8.05 17.35 16.9 9.8 25.7 13.6 30.4 17.4 35.05 14.05 37.05 10.7 39.05 9.15 39.4 7.6 39.7 3.45 41.65 1.75 43.3 1.75 44.4 1.75 46.1 5.6 49.3 9.5 52.5 8.45 53.05 0.25 56.25 0.9 59.15 1.55 62.0 3.85 62.3 6.1 62.6 7.4 64.35 8.7 66.15 2.95 71.25 -2.85 76.3 2.8 77.45 8.45 78.55 8.75 81.45 8.95 83.3 7.65 85.95 6.9 87.95 6.9 90.05 6.9 91.8 8.05 93.5 9.15 95.15 18.05 90.65 L29.4 84.55 Q31.9 82.95 34.5 84.95 37.1 86.9 38.55 88.6 40.85 90.4 41.85 89.15 42.85 87.85 45.8 86.35 48.75 84.8 51.15 86.6 L55.6 89.75 Q57.65 91.15 61.0 88.0 64.3 84.8 66.35 84.25 68.35 83.7 75.1 85.4 L82.4 87.05 Q85.3 87.05 86.75 86.0 87.85 85.2 87.85 84.05 87.85 83.0 87.05 81.45 85.9 79.2 83.75 78.15 86.15 78.1 87.85 77.2 89.5 76.25 89.5 74.95 89.5 73.2 87.75 71.7 L83.75 68.85 Q77.95 64.55 77.95 57.05 77.95 52.95 81.95 50.85 L84.7 49.4 Q85.95 48.65 86.25 47.5 86.5 46.35 85.4 44.4 L83.4 40.75 Q82.55 39.0 85.3 37.9 88.05 36.75 87.35 33.6 89.75 31.65 88.65 30.1 L85.8 26.55 Q84.1 24.5 86.85 21.5 88.2 20.05 88.1 18.0 91.4 16.55 83.3 14.25 75.2 11.95 67.8 11.3 Z" fill="none" stroke="#ffffff" stroke-linecap="round" stroke-linejoin="round" stroke-width="3.0"/>
  </g>
</svg>
