<?xml version="1.0" encoding="UTF-8" standalone="no"?>
<svg xmlns:ffdec="https://www.free-decompiler.com/flash" xmlns:xlink="http://www.w3.org/1999/xlink" ffdec:objectType="shape" height="87.45px" width="83.6px" xmlns="http://www.w3.org/2000/svg">
  <g transform="matrix(1.0, 0.0, 0.0, 1.0, 41.8, 43.75)">
    <path d="M39.05 -27.55 Q43.1 -27.0 41.15 -24.45 39.5 -22.4 36.75 -20.85 36.45 -18.05 36.9 -15.7 37.3 -13.45 39.25 -12.3 41.25 -11.25 34.8 -9.0 33.7 -7.65 33.7 -5.6 33.7 -3.1 35.05 -2.0 L35.15 -2.0 37.4 -0.5 37.65 -0.3 Q39.8 2.35 35.4 4.3 30.15 5.35 30.85 12.25 31.5 19.1 36.5 22.25 41.45 25.4 41.6 27.05 42.45 29.6 37.55 30.5 L37.45 30.5 36.3 30.75 Q39.05 32.6 39.9 34.95 40.8 37.3 38.6 38.5 37.4 39.2 34.5 39.2 L34.15 39.2 20.45 35.4 16.6 36.3 Q11.95 39.7 10.5 38.5 L9.5 37.6 Q4.25 36.7 -1.45 37.65 -6.8 40.15 -7.95 38.65 -9.95 35.35 -10.95 35.4 L-16.0 36.0 Q-23.1 39.95 -28.2 41.6 -33.75 44.3 -35.65 43.55 -37.6 42.8 -36.5 40.45 L-35.45 37.8 -35.3 37.05 -35.3 37.0 Q-34.95 35.35 -34.05 33.75 -37.05 31.4 -39.55 32.0 -42.45 32.6 -41.3 30.05 L-39.65 26.6 -39.65 26.5 -39.65 25.75 Q-39.35 24.15 -36.4 20.8 -33.4 17.4 -36.95 15.05 -40.5 12.7 -37.4 9.75 L-34.35 7.15 -34.4 6.15 Q-34.55 5.15 -38.65 2.4 -42.75 -0.5 -41.5 -2.45 -40.35 -4.4 -38.85 -4.95 L-36.75 -5.4 -36.8 -5.4 Q-27.45 -3.45 -28.6 -15.6 -28.85 -18.25 -30.2 -21.0 -31.4 -21.0 -32.7 -21.7 -27.9 -29.15 -24.05 -31.55 L-23.85 -31.6 Q-19.75 -33.4 -17.15 -35.45 L-17.1 -35.5 Q-15.85 -36.25 -14.45 -35.85 -12.7 -35.35 -12.6 -33.55 L-12.6 -33.4 Q-15.7 -28.2 -8.85 -28.0 -0.9 -27.8 1.9 -32.75 2.9 -37.95 4.2 -41.1 5.45 -44.35 8.4 -43.6 11.25 -42.85 14.7 -35.9 17.6 -33.5 21.15 -32.9 24.7 -32.4 29.85 -30.2 35.0 -28.1 39.05 -27.55 M-26.75 27.5 L-26.65 27.4 -26.75 27.4 -28.25 27.1 -27.3 29.6 -26.75 27.5" fill="#7bd8e7" fill-opacity="0.36078432" fill-rule="evenodd" stroke="none"/>
    <path d="M-26.75 27.5 L-27.3 29.6 -28.25 27.1 -26.75 27.4 -26.65 27.4 -26.75 27.5 Z" fill="none" stroke="#ffffff" stroke-linecap="round" stroke-linejoin="round" stroke-width="3.0"/>
    <path d="M31.9 -27.15 Q34.35 -26.65 35.65 -25.75 36.95 -24.9 36.8 -23.7 36.6 -22.5 34.85 -21.6 33.1 -20.75 34.05 -17.15 L34.9 -12.4 Q34.9 -11.7 33.6 -10.0 32.25 -8.25 32.25 -5.6 32.25 -2.2 34.25 -0.8 L36.6 0.8 36.0 1.2 Q31.95 0.95 30.3 2.75 28.6 4.55 28.6 9.15 28.6 21.1 36.3 24.65 43.45 27.95 37.25 29.0 32.05 29.85 34.9 31.55 37.75 33.3 38.55 35.5 39.35 37.65 34.5 37.65 L15.65 32.55 Q13.6 32.55 12.25 33.5 10.8 34.5 9.9 34.5 L7.25 33.85 Q5.3 33.05 -1.75 35.25 -8.85 37.45 -7.7 32.7 -7.05 30.0 -7.2 27.05 L-7.25 26.45 -7.3 25.75 Q-6.75 20.8 -8.2 23.55 -9.15 25.4 -10.45 25.45 -10.1 27.65 -10.3 28.3 L-11.25 31.05 -16.75 34.65 Q-23.65 38.6 -28.65 40.15 -33.65 41.65 -34.05 38.1 L-33.9 37.35 Q-32.55 32.15 -26.6 27.35 L-31.65 29.7 Q-38.7 30.05 -37.9 25.4 -37.1 23.85 -34.35 21.0 -31.25 17.6 -32.1 15.0 -33.05 12.25 -32.9 10.0 -32.85 7.65 -30.35 6.15 -27.95 4.55 -29.05 3.2 -30.6 1.4 -33.85 1.65 -36.6 -2.95 -24.4 -2.9 -24.0 -4.95 -24.0 -6.5 -24.0 -8.1 -26.1 -13.75 -28.25 -19.4 -28.25 -22.95 -28.25 -27.25 -23.35 -30.25 -18.25 -32.4 -16.85 -32.65 L-14.75 -32.55 Q-14.05 -32.25 -15.2 -29.2 -16.3 -24.2 -6.95 -26.0 2.4 -27.8 3.35 -32.45 4.2 -37.2 5.35 -38.7 6.35 -40.3 8.6 -39.4 10.85 -38.55 13.55 -35.0 16.6 -30.95 18.9 -30.25 23.85 -28.85 31.9 -27.15" fill="#c1ebfb" fill-rule="evenodd" stroke="none"/>
    <path d="M24.05 -27.3 L22.65 -27.7 21.4 -28.0 21.4 -28.1 22.75 -27.7 24.05 -27.3 M-17.7 -23.35 L-17.75 -23.25 -17.85 -23.4 -17.7 -23.35 M-22.35 -13.65 L-22.7 -15.6 -23.0 -16.85 -23.75 -20.3 -24.1 -22.15 Q-24.3 -24.1 -23.0 -25.85 L-22.7 -25.85 Q-21.9 -26.0 -21.45 -26.6 L-20.75 -27.55 -19.7 -23.95 Q-18.45 -20.15 -14.15 -21.3 -9.4 -22.65 -5.05 -20.85 -3.1 -20.0 -1.0 -20.15 2.75 -20.45 5.0 -23.4 8.15 -27.55 9.45 -32.7 L10.7 -31.05 Q12.2 -29.05 14.55 -28.4 L25.0 -25.3 Q27.9 -24.35 30.15 -22.4 32.4 -20.6 30.6 -18.1 29.9 -17.0 29.6 -15.75 28.25 -10.7 28.1 -5.4 28.05 -3.9 27.35 -2.8 22.65 4.35 23.2 13.2 23.45 17.7 25.7 21.6 29.2 27.55 32.95 33.3 L27.5 32.0 Q24.7 31.05 22.0 29.7 L17.05 26.5 Q13.05 23.55 10.85 25.5 L6.4 29.55 Q4.15 31.65 -3.9 30.5 -3.9 25.8 -3.5 21.2 -3.15 16.7 -7.45 15.35 -9.65 14.65 -12.9 16.75 -16.2 18.8 -24.0 22.4 -29.55 24.95 -31.0 25.9 L-33.7 26.15 -33.9 25.5 -33.85 24.95 Q-31.2 22.85 -27.8 21.0 -26.4 20.2 -26.8 18.65 L-28.15 12.25 Q-28.3 11.4 -27.75 10.9 -25.15 8.2 -23.0 5.15 L-21.05 2.25 Q-19.8 0.3 -20.2 -2.05 L-21.95 -11.8 Q-21.95 -12.65 -22.3 -13.4 L-22.35 -13.65 M27.8 20.5 L27.8 20.6 27.9 20.9 27.7 20.6 27.8 20.5 M34.9 33.1 L35.05 33.25 35.05 33.3 34.9 33.1 M17.95 29.5 L17.5 28.8 18.1 29.35 17.95 29.5 M-23.8 27.65 L-21.75 27.0 -21.8 27.05 -23.0 27.4 -23.8 27.65 M-16.4 32.9 L-16.8 32.9 -16.8 32.85 -16.4 32.9 M-31.25 34.5 Q-30.85 33.1 -30.1 32.0 L-28.85 30.75 -29.85 31.9 -31.25 34.5 M-20.65 31.9 Q-24.0 33.6 -25.85 35.05 L-29.75 37.3 Q-31.7 38.05 -30.65 34.8 -29.55 31.5 -26.25 29.4 -23.0 27.3 -16.65 27.25 -15.05 26.9 -14.25 28.25 -13.25 29.9 -14.15 31.45 L-14.5 31.65 -20.1 31.85 -20.65 31.9" fill="#fad14c" fill-rule="evenodd" stroke="none"/>
    <path d="M24.05 -27.3 L22.75 -27.7 21.4 -28.1 Q16.9 -29.25 13.9 -30.45 12.35 -31.05 11.65 -31.85 10.85 -32.6 10.8 -33.65 10.7 -35.65 8.9 -35.35 6.75 -33.1 6.1 -28.1 5.4 -23.1 0.05 -21.75 L-3.15 -21.6 -4.75 -22.1 Q-5.65 -22.45 -6.55 -23.15 -6.75 -23.35 -7.45 -23.15 -12.55 -21.95 -17.45 -23.25 L-17.7 -23.35 -17.85 -23.4 -17.85 -23.5 -18.8 -25.65 -18.85 -25.65 -19.0 -27.0 Q-19.3 -29.35 -20.75 -29.1 L-22.35 -28.25 -22.5 -28.15 -22.5 -28.0 -23.45 -26.85 -24.45 -25.9 -24.85 -25.65 -25.35 -25.45 Q-27.2 -24.6 -25.8 -22.95 L-25.65 -22.7 Q-24.45 -21.2 -24.4 -19.6 -24.4 -17.85 -24.0 -16.95 L-22.5 -13.95 -22.35 -13.65 -22.3 -13.4 Q-21.95 -12.65 -21.95 -11.8 L-22.15 -10.75 -22.2 -10.6 Q-22.75 -9.05 -22.5 -7.9 L-22.2 -5.15 -21.6 -1.55 Q-21.2 0.45 -23.0 3.8 -25.35 8.1 -29.6 11.1 L-30.1 11.3 Q-30.65 12.55 -29.05 15.7 L-28.7 16.45 Q-26.75 20.15 -29.3 21.6 L-33.5 24.1 Q-35.45 25.2 -33.9 26.3 -32.45 27.4 -28.6 25.25 L-28.55 25.25 Q-27.35 24.55 -26.2 24.1 -23.45 22.8 -20.65 22.15 L-20.1 22.0 Q-16.45 20.9 -12.05 17.4 L-12.0 17.4 -10.8 16.6 -7.15 16.3 -7.0 16.4 Q-6.35 16.6 -5.75 17.1 -4.95 17.65 -4.8 18.55 -3.95 22.15 -4.25 24.75 L-5.1 29.95 Q-5.65 32.6 -3.65 31.65 2.05 31.85 4.55 31.65 L4.85 31.6 6.6 31.75 Q8.15 31.9 8.0 31.15 7.75 30.2 7.85 30.05 L7.85 29.95 Q8.6 28.45 10.25 27.25 11.9 26.0 15.1 26.45 18.3 26.9 20.8 30.9 L20.95 31.05 21.3 31.3 21.55 31.35 Q27.8 32.35 33.8 34.55 L34.6 34.65 Q31.7 31.05 29.45 26.9 27.4 23.15 25.7 19.1 24.45 16.05 24.35 12.65 24.3 7.55 25.3 4.45 26.25 1.25 28.1 -1.1 30.0 -3.45 29.45 -8.65 28.9 -13.95 30.0 -14.2 31.0 -14.45 32.3 -19.25 L32.65 -20.9 Q32.95 -24.35 29.75 -25.5 L26.95 -26.45 26.85 -26.55 25.1 -27.0 24.05 -27.3 M17.5 28.8 Q16.55 27.6 15.25 27.3 L15.15 27.3 13.75 27.25 13.3 27.3 Q11.25 27.85 10.4 29.7 10.0 30.5 10.0 31.3 L9.6 31.6 Q8.3 32.85 6.5 33.4 L5.95 33.3 3.2 33.0 Q-0.5 31.9 -4.05 34.0 L-5.45 34.15 Q-7.3 29.2 -6.3 22.25 -5.3 15.2 -10.6 18.5 L-16.45 21.7 -16.9 21.9 -18.6 22.8 -18.95 22.85 -25.1 25.65 Q-34.2 29.55 -36.1 27.05 -37.95 24.55 -32.9 21.9 -27.8 19.25 -29.6 16.95 -31.5 14.75 -31.8 12.25 -32.1 9.75 -30.0 8.65 -21.35 2.75 -23.6 -7.55 -25.95 -17.95 -27.35 -22.45 -28.75 -27.0 -20.95 -30.5 -19.15 -31.7 -18.45 -28.4 -17.85 -25.2 -15.1 -24.25 L-9.65 -24.4 Q-6.45 -25.85 -2.45 -23.0 3.2 -23.55 4.95 -26.3 5.5 -27.15 5.55 -28.3 5.9 -32.95 7.65 -36.35 9.4 -39.8 11.5 -35.2 13.6 -30.75 26.45 -28.0 39.4 -25.35 30.2 -10.95 L31.45 -3.15 Q31.95 -0.15 29.55 1.55 27.1 3.25 26.45 8.05 25.75 12.8 27.8 20.5 L27.7 20.6 27.9 20.9 28.05 21.3 34.5 32.7 34.9 33.1 35.05 33.3 35.05 33.25 Q40.35 38.3 29.3 35.2 L18.5 32.05 Q18.75 30.9 17.95 29.5 L18.1 29.35 17.5 28.8 M-21.75 27.0 L-21.25 26.9 -15.75 26.2 -14.7 26.05 -14.15 27.0 Q-13.1 29.0 -12.85 30.4 -12.45 33.0 -15.25 32.9 L-15.5 32.9 -16.35 32.9 -16.4 32.9 -16.8 32.85 -16.8 32.9 Q-20.8 33.1 -23.3 34.95 -26.25 37.2 -29.15 38.55 L-29.95 38.85 Q-31.95 39.3 -31.7 36.9 L-31.25 34.5 -29.85 31.9 -28.85 30.75 Q-27.75 29.65 -26.1 28.7 L-25.7 28.45 -24.3 27.85 -23.8 27.65 -23.0 27.4 -21.8 27.05 -21.75 27.0 M-20.65 31.9 L-20.1 31.85 -14.5 31.65 -14.15 31.45 Q-13.25 29.9 -14.25 28.25 -15.05 26.9 -16.65 27.25 -23.0 27.3 -26.25 29.4 -29.55 31.5 -30.65 34.8 -31.7 38.05 -29.75 37.3 L-25.85 35.05 Q-24.0 33.6 -20.65 31.9" fill="#d79a3f" fill-rule="evenodd" stroke="none"/>
    <path d="M21.4 -28.1 L21.4 -28.0 22.65 -27.7 24.05 -27.3 25.1 -27.0 26.85 -26.55 26.95 -26.45 29.75 -25.5 Q32.95 -24.35 32.65 -20.9 L32.3 -19.25 Q31.0 -14.45 30.0 -14.2 28.9 -13.95 29.45 -8.65 30.0 -3.45 28.1 -1.1 26.25 1.25 25.3 4.45 24.3 7.55 24.35 12.65 24.45 16.05 25.7 19.1 27.4 23.15 29.45 26.9 31.7 31.05 34.6 34.65 L33.8 34.55 Q27.8 32.35 21.55 31.35 L21.3 31.3 20.95 31.05 20.8 30.9 Q18.3 26.9 15.1 26.45 11.9 26.0 10.25 27.25 8.6 28.45 7.85 29.95 L7.85 30.05 Q7.75 30.2 8.0 31.15 8.15 31.9 6.6 31.75 L4.85 31.6 4.55 31.65 Q2.05 31.85 -3.65 31.65 -5.65 32.6 -5.1 29.95 L-4.25 24.75 Q-3.95 22.15 -4.8 18.55 -4.95 17.65 -5.75 17.1 -6.35 16.6 -7.0 16.4 L-7.15 16.3 -10.8 16.6 -12.0 17.4 -12.05 17.4 Q-16.45 20.9 -20.1 22.0 L-20.65 22.15 Q-23.45 22.8 -26.2 24.1 -27.35 24.55 -28.55 25.25 L-28.6 25.25 Q-32.45 27.4 -33.9 26.3 -35.45 25.2 -33.5 24.1 L-29.3 21.6 Q-26.75 20.15 -28.7 16.45 L-29.05 15.7 Q-30.65 12.55 -30.1 11.3 L-29.6 11.1 Q-25.35 8.1 -23.0 3.8 -21.2 0.45 -21.6 -1.55 L-22.2 -5.15 -22.5 -7.9 Q-22.75 -9.05 -22.2 -10.6 L-22.15 -10.75 -21.95 -11.8 -20.2 -2.05 Q-19.8 0.3 -21.05 2.25 L-23.0 5.15 Q-25.15 8.2 -27.75 10.9 -28.3 11.4 -28.15 12.25 L-26.8 18.65 Q-26.4 20.2 -27.8 21.0 -31.2 22.85 -33.85 24.95 L-33.9 25.5 -33.7 26.15 -31.0 25.9 Q-29.55 24.95 -24.0 22.4 -16.2 18.8 -12.9 16.75 -9.65 14.65 -7.45 15.35 -3.15 16.7 -3.5 21.2 -3.9 25.8 -3.9 30.5 4.15 31.65 6.4 29.55 L10.85 25.5 Q13.05 23.55 17.05 26.5 L22.0 29.7 Q24.7 31.05 27.5 32.0 L32.95 33.3 Q29.2 27.55 25.7 21.6 23.45 17.7 23.2 13.2 22.65 4.35 27.35 -2.8 28.05 -3.9 28.1 -5.4 28.25 -10.7 29.6 -15.75 29.9 -17.0 30.6 -18.1 32.4 -20.6 30.15 -22.4 27.9 -24.35 25.0 -25.3 L14.55 -28.4 Q12.2 -29.05 10.7 -31.05 L9.45 -32.7 Q8.15 -27.55 5.0 -23.4 2.75 -20.45 -1.0 -20.15 -3.1 -20.0 -5.05 -20.85 -9.4 -22.65 -14.15 -21.3 -18.45 -20.15 -19.7 -23.95 L-20.75 -27.55 -21.45 -26.6 Q-21.9 -26.0 -22.7 -25.85 L-23.0 -25.85 Q-24.3 -24.1 -24.1 -22.15 L-23.75 -20.3 -23.0 -16.85 -22.7 -15.6 -22.35 -13.65 -22.5 -13.95 -24.0 -16.95 Q-24.4 -17.85 -24.4 -19.6 -24.45 -21.2 -25.65 -22.7 L-25.8 -22.95 Q-27.2 -24.6 -25.35 -25.45 L-24.85 -25.65 -24.45 -25.9 -23.45 -26.85 -22.5 -28.0 -22.5 -28.15 -22.35 -28.25 -20.75 -29.1 Q-19.3 -29.35 -19.0 -27.0 L-18.85 -25.65 -18.8 -25.65 -17.85 -23.5 -17.85 -23.4 -17.75 -23.25 -17.7 -23.35 -17.45 -23.25 Q-12.55 -21.95 -7.45 -23.15 -6.75 -23.35 -6.55 -23.15 -5.65 -22.45 -4.75 -22.1 L-3.15 -21.6 0.05 -21.75 Q5.4 -23.1 6.1 -28.1 6.75 -33.1 8.9 -35.35 10.7 -35.65 10.8 -33.65 10.85 -32.6 11.65 -31.85 12.35 -31.05 13.9 -30.45 16.9 -29.25 21.4 -28.1" fill="#efbc58" fill-rule="evenodd" stroke="none"/>
    <path d="M13.5 -3.75 Q11.1 -0.6 7.65 1.45 3.55 3.95 1.1 5.15 -1.35 6.35 0.15 8.75 1.5 10.95 0.9 11.3 3.95 9.95 7.7 10.2 L8.55 10.15 Q14.5 9.3 18.6 14.05 L20.15 15.3 Q23.45 17.1 21.75 20.3 20.6 22.6 18.65 24.4 16.1 26.75 12.5 25.85 L7.9 24.85 -0.05 24.0 Q-1.2 23.95 -1.35 22.9 -1.95 19.8 -0.1 16.9 -2.3 13.3 -4.95 9.95 -6.05 8.6 -5.65 6.7 -4.3 0.6 2.55 0.7 6.25 0.8 8.4 -2.3 L11.55 -7.05 Q12.3 -6.0 14.45 -5.75 14.35 -4.85 13.5 -3.75 M5.25 13.8 L5.0 14.0 5.25 13.95 5.6 13.75 5.6 13.6 5.55 13.6 5.25 13.8 M7.85 13.1 L7.7 13.15 Q7.35 15.15 5.5 16.15 L4.55 16.9 Q2.9 18.85 2.0 21.2 L12.2 23.6 13.5 23.45 Q17.35 22.0 19.45 19.15 L19.4 18.8 Q18.0 15.9 14.8 14.45 13.0 13.6 11.3 12.45 L10.8 12.35 Q10.25 12.85 9.55 12.9 L7.85 13.1 M17.05 23.2 L16.2 23.85 15.45 24.3 16.5 23.95 17.2 23.3 Q17.35 23.1 17.05 23.2" fill="#5b1d0e" fill-opacity="0.4" fill-rule="evenodd" stroke="none"/>
    <path d="M-12.6 10.9 Q-10.85 9.3 -9.25 8.4 -7.6 7.55 -6.9 9.05 L-5.8 12.15 Q-5.5 13.6 -7.6 15.8 -13.25 15.7 -13.8 14.15 -14.3 12.6 -12.6 10.9" fill="#542e0a" fill-opacity="0.36862746" fill-rule="evenodd" stroke="none"/>
    <path d="M-7.55 6.65 Q-7.35 8.4 -6.55 9.85 -5.8 11.3 -6.05 12.55 -6.4 13.8 -6.7 13.95 -7.1 14.25 -7.6 14.35 -10.4 14.8 -11.95 14.35 -13.6 13.85 -14.2 12.95 -14.8 12.0 -13.95 10.35 -13.15 8.75 -12.75 7.05 -12.4 5.35 -10.65 5.05 L-9.35 4.8 Q-7.75 4.85 -7.55 6.65" fill="#9c9c9c" fill-rule="evenodd" stroke="none"/>
    <path d="M-8.7 10.85 L-9.45 10.1 Q-11.1 9.55 -12.2 8.25 -12.7 7.55 -12.25 6.7 -11.5 5.5 -10.0 5.45 -7.7 5.2 -7.7 7.05 -7.8 8.85 -8.3 9.45 L-8.7 10.85" fill="#776969" fill-rule="evenodd" stroke="none"/>
    <path d="M-7.8 6.75 Q-7.9 8.35 -8.8 9.45 L-9.45 9.55 Q-11.1 9.0 -12.2 7.7 -12.7 7.0 -12.25 6.15 -11.5 4.95 -10.0 4.9 -7.7 4.65 -7.8 6.75" fill="#c6c6c6" fill-rule="evenodd" stroke="none"/>
    <path d="M-6.25 11.65 L-6.75 9.95 -7.35 7.95 -6.9 9.3 -6.75 9.55 -6.65 9.9 Q-5.8 10.95 -6.05 12.65 -6.4 14.3 -9.75 14.45 -13.15 14.55 -13.9 13.3 -14.7 12.1 -14.25 11.15 L-14.15 10.8 Q-14.25 12.05 -12.35 13.3 -11.1 14.1 -7.15 13.7 -5.95 12.9 -6.25 11.65" fill="#747272" fill-rule="evenodd" stroke="none"/>
  </g>
</svg>
