<?xml version="1.0" encoding="UTF-8" standalone="no"?>
<svg xmlns:ffdec="https://www.free-decompiler.com/flash" xmlns:xlink="http://www.w3.org/1999/xlink" ffdec:objectType="shape" height="34.7px" width="23.0px" xmlns="http://www.w3.org/2000/svg">
  <g transform="matrix(1.0, 0.0, 0.0, 1.0, 11.15, 5.7)">
    <path d="M11.35 22.3 L11.6 22.8 11.75 23.2 11.85 23.6 11.85 24.05 11.8 24.4 Q10.4 24.8 10.25 25.85 10.1 26.75 9.3 27.2 8.3 27.85 7.1 28.0 L6.4 27.9 Q5.6 28.65 3.8 28.2 L1.6 28.4 Q1.15 29.35 0.35 28.75 -2.25 27.85 -1.05 27.75 L0.65 27.4 Q1.05 27.3 0.55 26.45 -0.45 24.75 0.4 22.95 L0.45 22.9 4.3 22.75 8.1 22.25 11.1 21.9 11.35 22.3" fill="#5b1d0e" fill-opacity="0.4" fill-rule="evenodd" stroke="none"/>
    <path d="M8.75 5.75 Q7.0 7.45 4.6 7.75 L-0.3 7.55 Q-2.6 7.05 -4.15 5.45 L-4.25 5.15 -3.8 4.75 -1.6 4.7 Q1.3 5.0 4.15 4.6 L6.7 4.35 Q8.4 4.0 8.9 5.15 9.0 5.5 8.75 5.75" fill="#5b1d0e" fill-opacity="0.4" fill-rule="evenodd" stroke="none"/>
    <path d="M-3.15 4.85 L-3.15 3.05 9.0 3.05 9.0 4.85 Q3.1 5.8 -3.15 4.85" fill="#481700" fill-rule="evenodd" stroke="none"/>
    <path d="M-3.6 -0.2 L-3.6 3.15 -11.0 2.45 -10.9 0.35 -3.6 -0.2" fill="#5b1d0e" fill-opacity="0.4" fill-rule="evenodd" stroke="none"/>
    <path d="M-3.6 -1.0 L-3.6 2.35 -11.15 2.35 -10.9 -0.45 -3.6 -1.0" fill="#6a4416" fill-rule="evenodd" stroke="none"/>
    <path d="M-3.6 -1.45 L-3.6 1.9 -11.15 1.9 -10.9 -0.9 -3.6 -1.45" fill="url(#gradient0)" fill-rule="evenodd" stroke="none"/>
    <path d="M1.6 -5.6 L1.1 -5.5 -0.65 -5.2 -1.6 -4.95 1.6 -5.6 M-2.55 -4.65 L-2.55 -4.35 -2.45 -3.6 -2.35 -3.1 -2.45 -3.0 -2.45 -2.95 -2.55 -2.9 -2.75 -2.6 -3.0 -2.25 -3.05 -1.9 -3.05 -1.85 -3.0 -1.8 -3.0 -1.75 -2.9 -1.75 -1.1 -3.45 Q-0.95 -3.55 -0.75 -4.55 L0.5 -2.9 Q0.8 -4.1 1.2 -4.4 1.65 -4.8 2.2 -4.7 3.75 -4.45 4.5 -5.5 L4.45 -5.6 Q6.7 -5.4 8.95 -4.4 L8.95 5.25 7.55 4.8 8.6 4.8 7.0 4.6 6.6 4.45 5.15 3.55 3.3 3.35 2.65 3.55 2.6 3.5 2.2 3.15 1.85 2.95 1.85 2.85 1.8 2.55 1.8 2.25 1.75 2.05 1.4 2.0 Q1.1 2.2 0.95 2.55 L0.85 3.05 0.65 3.15 0.35 3.5 0.25 3.7 0.15 3.55 0.05 3.3 -0.15 3.15 -0.15 3.0 -0.35 2.65 -0.7 2.6 -0.85 2.9 -1.0 3.25 -1.05 3.5 Q-1.65 3.15 -1.7 2.45 L-1.8 0.85 -1.95 -0.65 -2.0 -0.7 -2.1 -0.7 -2.2 -0.65 -2.25 -0.65 -2.3 -0.6 -2.35 0.25 -2.35 1.25 -2.3 2.1 -2.45 2.2 -2.55 2.25 -2.6 2.3 -2.65 3.15 -2.8 4.25 -2.75 5.1 -2.35 4.95 -3.2 5.25 -3.2 -4.4 -2.55 -4.65 M2.9 1.6 L2.9 1.7 3.1 1.75 3.2 1.65 3.05 1.5 2.95 1.6 2.9 1.6 M4.75 2.05 Q4.7 1.9 4.5 1.9 L4.15 2.15 4.25 2.45 4.15 2.45 3.9 2.5 3.85 2.55 3.8 2.55 3.8 2.7 3.8 2.8 4.75 2.05 M5.75 2.0 L5.7 2.0 Q5.5 2.05 5.6 2.25 L5.8 2.65 6.1 3.0 6.2 3.0 6.3 2.95 6.35 2.95 6.25 2.7 6.05 2.45 5.85 2.25 5.85 2.2 5.8 2.1 5.75 2.0 M3.75 0.25 L3.7 0.35 3.65 0.4 3.65 0.45 3.6 0.6 3.55 0.8 3.55 0.9 3.55 1.0 4.05 0.95 4.35 0.55 4.4 0.25 4.3 0.2 4.2 0.15 4.1 0.15 4.0 0.15 3.75 0.25" fill="#2e787b" fill-rule="evenodd" stroke="none"/>
    <path d="M-1.6 -4.95 L-0.65 -5.2 1.1 -5.5 1.6 -5.6 4.45 -5.6 4.5 -5.5 Q3.75 -4.45 2.2 -4.7 1.65 -4.8 1.2 -4.4 0.8 -4.1 0.5 -2.9 L-0.75 -4.55 Q-0.95 -3.55 -1.1 -3.45 L-2.9 -1.75 -3.0 -1.75 -3.0 -1.8 -3.05 -1.85 -3.05 -1.9 -3.0 -2.25 -2.75 -2.6 -2.55 -2.9 -2.45 -2.95 -2.45 -3.0 -2.35 -3.1 -2.45 -3.6 -2.55 -4.35 -2.55 -4.65 -1.6 -4.95 M3.75 0.25 L4.0 0.15 4.1 0.15 4.2 0.15 4.3 0.2 4.4 0.25 4.35 0.55 4.05 0.95 3.55 1.0 3.55 0.9 3.55 0.8 3.6 0.6 3.65 0.45 3.65 0.4 3.7 0.35 3.75 0.25 M5.75 2.0 L5.8 2.1 5.85 2.2 5.85 2.25 6.05 2.45 6.25 2.7 6.35 2.95 6.3 2.95 6.2 3.0 6.1 3.0 5.8 2.65 5.6 2.25 Q5.5 2.05 5.7 2.0 L5.75 2.0 M4.75 2.05 L3.8 2.8 3.8 2.7 3.8 2.55 3.85 2.55 3.9 2.5 4.15 2.45 4.25 2.45 4.15 2.15 4.5 1.9 Q4.7 1.9 4.75 2.05 M2.9 1.6 L2.95 1.6 3.05 1.5 3.2 1.65 3.1 1.75 2.9 1.7 2.9 1.6 M2.25 3.75 L2.45 3.8 2.7 4.0 2.2 4.05 1.95 3.95 Q1.75 3.85 1.9 3.7 L1.95 3.7 2.25 3.75" fill="#1a5f62" fill-rule="evenodd" stroke="none"/>
    <path d="M-2.35 4.95 L-2.75 5.1 -2.8 4.25 -2.65 3.15 -2.6 2.3 -2.55 2.25 -2.45 2.2 -2.3 2.1 -2.35 1.25 -2.35 0.25 -2.3 -0.6 -2.25 -0.65 -2.2 -0.65 -2.1 -0.7 -2.0 -0.7 -1.95 -0.65 -1.8 0.85 -1.7 2.45 Q-1.65 3.15 -1.05 3.5 L-1.0 3.25 -0.85 2.9 -0.7 2.6 -0.35 2.65 -0.15 3.0 -0.15 3.15 0.05 3.3 0.15 3.55 0.25 3.7 0.35 3.5 0.65 3.15 0.85 3.05 0.95 2.55 Q1.1 2.2 1.4 2.0 L1.75 2.05 1.8 2.25 1.8 2.55 1.85 2.85 1.85 2.95 2.2 3.15 2.6 3.5 2.65 3.55 3.3 3.35 5.15 3.55 6.6 4.45 7.0 4.6 8.6 4.8 7.55 4.8 Q3.4 4.15 -1.75 4.75 L-2.25 4.9 -2.35 4.95 M2.25 3.75 L1.95 3.7 1.9 3.7 Q1.75 3.85 1.95 3.95 L2.2 4.05 2.7 4.0 2.45 3.8 2.25 3.75" fill="#872f06" fill-rule="evenodd" stroke="none"/>
    <path d="M6.4 -4.4 L7.05 -5.0 7.35 -5.0 7.5 -4.95 7.55 -4.9 7.95 -2.0 8.0 1.35 7.7 4.05 Q7.05 3.8 7.1 2.9 L7.15 1.55 Q7.2 -0.3 6.55 -1.85 L6.35 -2.35 Q6.0 -3.35 6.4 -4.4 M7.05 -4.2 Q7.0 -4.1 7.1 -4.1 L7.2 -4.2 7.2 -4.3 7.15 -4.35 7.1 -4.25 7.05 -4.2 M7.15 -2.4 L7.25 -2.35 7.3 -2.4 7.3 -2.45 7.25 -2.5 7.15 -2.4" fill="#1a5f62" fill-rule="evenodd" stroke="none"/>
    <path d="M-2.4 -5.25 L-2.1 -5.05 -2.1 6.0 -4.65 6.0 -4.65 -5.05 Q-4.7 -5.65 -4.0 -5.25 L-2.4 -5.25" fill="#9a6321" fill-rule="evenodd" stroke="none"/>
    <path d="M9.8 -5.05 L9.8 6.0 7.25 6.0 7.25 -5.05 Q8.35 -5.65 9.8 -5.05" fill="#9a6321" fill-rule="evenodd" stroke="none"/>
    <path d="M9.55 -4.7 Q9.85 -2.8 9.7 -0.8 L9.6 2.15 9.7 5.85 9.65 5.9 9.45 5.85 9.35 4.9 Q9.2 3.95 9.3 2.35 L9.25 -1.1 Q9.1 -3.0 9.55 -4.7" fill="#c29b6e" fill-rule="evenodd" stroke="none"/>
    <path d="M-2.25 -5.05 Q-1.95 -3.15 -2.1 -1.15 L-2.2 1.8 -2.1 5.5 -2.15 5.55 -2.35 5.5 -2.45 4.55 -2.5 2.0 -2.55 -1.45 Q-2.7 -3.35 -2.25 -5.05" fill="#c29b6e" fill-rule="evenodd" stroke="none"/>
    <path d="M-4.45 6.15 L-4.7 5.9 -2.1 5.9 -2.1 6.25 -4.45 6.15" fill="#6a4416" fill-rule="evenodd" stroke="none"/>
    <path d="M9.65 6.05 L9.9 5.8 7.3 5.8 7.3 6.15 9.65 6.05" fill="#6a4416" fill-rule="evenodd" stroke="none"/>
    <path d="M4.3 19.2 L5.8 19.3 Q6.5 19.2 7.25 20.15 8.05 19.4 9.05 20.7 8.95 20.45 10.1 20.9 12.8 22.8 9.45 23.5 10.2 24.4 9.9 24.9 L9.05 25.05 9.4 25.75 8.8 26.35 Q8.4 26.5 7.8 26.05 7.0 26.95 6.0 26.6 L5.5 26.65 Q4.95 26.95 4.4 27.4 L2.9 27.35 Q2.2 27.3 1.6 27.85 L0.8 27.8 -0.2 28.0 Q-1.9 28.15 -2.0 26.65 L-1.8 26.15 -1.35 25.9 -1.3 25.9 -1.5 25.7 -1.7 25.3 Q-1.8 24.4 -1.15 23.95 L-1.2 23.15 -1.0 22.35 -0.9 21.8 Q-0.8 21.35 -0.45 21.25 L0.25 21.2 0.15 20.4 0.5 20.0 1.2 19.8 Q1.35 19.35 1.75 19.05 L2.5 18.55 Q3.05 19.05 3.05 19.55 3.65 18.85 3.9 18.9 L4.3 19.2" fill="#4a3434" fill-rule="evenodd" stroke="none"/>
    <path d="M-0.1 24.75 Q-0.2 25.35 -0.75 25.0 L-1.0 24.5 -0.7 24.05 Q0.1 23.95 -0.1 24.75" fill="#000000" fill-rule="evenodd" stroke="none"/>
    <path d="M2.85 26.45 L2.55 26.7 Q1.55 26.8 1.8 25.9 L2.25 25.5 Q3.25 25.55 2.85 26.45" fill="#000000" fill-rule="evenodd" stroke="none"/>
    <path d="M6.7 25.15 L7.1 25.5 7.05 25.9 6.05 26.0 Q5.65 25.85 5.85 25.4 5.95 25.2 6.2 25.15 L6.7 25.15" fill="#000000" fill-rule="evenodd" stroke="none"/>
    <path d="M9.75 22.05 L9.75 21.9 9.6 21.85 9.6 21.8 Q9.95 21.85 10.2 22.05 L10.45 22.6 10.35 23.1 9.9 23.25 9.65 23.15 9.55 22.9 9.7 22.75 9.8 22.65 9.9 22.5 9.8 22.45 9.7 22.35 9.65 22.25 9.65 22.2 9.75 22.05" fill="#000000" fill-rule="evenodd" stroke="none"/>
    <path d="M0.4 25.8 L0.4 26.0 0.4 26.25 0.4 26.45 0.8 26.45 1.35 26.5 1.4 26.6 1.4 26.7 1.3 26.8 0.35 26.6 Q0.1 26.45 0.2 26.15 L0.4 25.8" fill="#000000" fill-rule="evenodd" stroke="none"/>
    <path d="M1.35 22.3 Q1.4 23.25 0.9 22.75 0.35 22.25 0.55 21.9 L1.1 21.1 1.35 22.3" fill="#000000" fill-rule="evenodd" stroke="none"/>
    <path d="M8.65 25.4 Q8.35 25.9 7.8 25.75 7.0 25.55 7.5 25.0 7.75 24.75 8.1 24.7 L8.05 24.55 8.05 24.4 8.2 24.15 8.3 24.15 Q9.3 24.35 8.65 25.4" fill="#000000" fill-rule="evenodd" stroke="none"/>
    <path d="M-0.7 26.65 L-0.5 27.1 -0.55 27.45 Q-1.0 27.7 -1.3 27.3 -1.55 27.05 -1.4 26.7 L-1.1 26.5 -0.7 26.65" fill="#000000" fill-rule="evenodd" stroke="none"/>
    <path d="M2.95 23.7 Q2.7 24.15 2.15 23.8 1.7 23.55 2.1 23.0 2.3 22.65 2.65 22.45 3.6 22.7 2.95 23.7" fill="#000000" fill-rule="evenodd" stroke="none"/>
    <path d="M2.25 22.95 L2.25 23.05 2.4 23.7 2.6 23.75 2.9 23.8 3.0 23.85 Q2.9 24.25 2.5 24.1 L2.05 23.7 2.0 23.45 2.15 23.1 2.25 22.95" fill="#878787" fill-rule="evenodd" stroke="none"/>
    <path d="M9.85 23.3 L9.9 23.25 10.05 23.2 10.15 23.15 10.3 22.95 10.4 22.65 10.25 22.3 10.2 22.25 10.1 22.25 9.85 22.2 9.8 22.05 9.85 22.0 Q10.4 21.9 10.55 22.4 10.75 22.85 10.45 23.25 L9.85 23.35 9.85 23.3" fill="#878787" fill-rule="evenodd" stroke="none"/>
    <path d="M7.2 25.8 L7.25 25.9 7.25 26.0 7.25 26.1 6.45 26.25 5.9 26.1 5.85 25.85 5.75 25.6 5.75 25.3 5.8 25.3 5.85 25.25 5.9 25.2 6.0 25.45 6.05 25.7 6.15 25.9 6.65 25.95 7.2 25.8" fill="#878787" fill-rule="evenodd" stroke="none"/>
    <path d="M6.1 21.2 Q6.15 21.75 5.55 21.75 4.3 21.75 4.65 20.65 L4.9 20.35 Q6.05 20.05 6.1 21.2" fill="#000000" fill-rule="evenodd" stroke="none"/>
    <path d="M5.05 20.45 L5.15 20.55 5.1 20.65 5.0 20.7 4.9 20.45 5.05 20.45 M4.75 20.5 L4.8 21.0 4.8 21.2 4.9 21.4 5.6 21.8 5.3 21.85 Q4.7 21.95 4.5 21.4 L4.5 20.85 4.55 20.75 4.6 20.65 4.7 20.5 4.75 20.5" fill="#878787" fill-rule="evenodd" stroke="none"/>
    <path d="M7.05 24.1 L6.7 24.45 Q5.45 24.9 5.75 23.85 L5.85 23.6 6.2 23.3 Q7.5 22.95 7.05 24.1" fill="#000000" fill-rule="evenodd" stroke="none"/>
  </g>
  <defs>
    <linearGradient gradientTransform="matrix(-0.0046, 0.0, 0.0, -0.002, -7.45, 0.3)" gradientUnits="userSpaceOnUse" id="gradient0" spreadMethod="pad" x1="-819.2" x2="819.2">
      <stop offset="0.0" stop-color="#5c3b13"/>
      <stop offset="1.0" stop-color="#9a6321"/>
    </linearGradient>
  </defs>
</svg>
