<?xml version="1.0" encoding="UTF-8" standalone="no"?>
<svg xmlns:ffdec="https://www.free-decompiler.com/flash" xmlns:xlink="http://www.w3.org/1999/xlink" ffdec:objectType="shape" height="59.8px" width="60.1px" xmlns="http://www.w3.org/2000/svg">
  <g transform="matrix(1.0, 0.0, 0.0, 1.0, 32.2, 23.7)">
    <path d="M-13.85 18.35 Q-15.85 21.75 -18.85 20.05 -19.8 19.45 -20.4 18.45 -21.9 16.2 -20.15 13.8 -19.05 12.25 -17.3 11.65 -15.4 11.1 -14.65 13.0 -14.1 14.35 -13.7 15.8 -13.35 17.1 -13.85 18.35" fill="#7e512f" fill-opacity="0.32941177" fill-rule="evenodd" stroke="none"/>
    <path d="M-14.45 11.5 Q-17.0 15.8 -21.6 14.35 -23.0 13.85 -24.0 12.85 -26.5 10.5 -24.25 7.4 -22.75 5.5 -20.25 4.45 -17.6 3.45 -16.25 5.5 L-14.5 8.55 Q-13.85 9.95 -14.45 11.5" fill="#7e512f" fill-opacity="0.32941177" fill-rule="evenodd" stroke="none"/>
    <path d="M-14.45 17.1 Q-17.0 21.4 -21.6 19.95 -23.0 19.45 -24.0 18.45 -26.5 16.1 -24.25 13.0 -22.75 11.1 -20.25 10.05 -17.6 9.05 -16.25 11.1 L-14.5 14.15 Q-13.85 15.55 -14.45 17.1" fill="#7e512f" fill-opacity="0.32941177" fill-rule="evenodd" stroke="none"/>
    <path d="M-17.4 15.95 L-17.5 16.05 -17.6 16.05 -17.6 16.1 -17.7 16.05 -17.8 16.05 -17.95 16.0 -17.95 15.8 -17.75 15.5 -17.5 15.5 -17.45 15.5 -17.4 15.6 Q-17.3 15.8 -17.35 15.9 L-17.4 15.95" fill="#c2b68c" fill-rule="evenodd" stroke="none"/>
    <path d="M-20.7 10.8 L-19.75 10.6 -20.9 10.6 -21.25 10.5 -21.7 10.2 -22.2 9.85 Q-23.45 8.55 -23.1 6.8 L-23.0 6.65 -22.7 5.6 Q-22.15 4.6 -20.85 4.4 L-21.45 4.4 Q-22.0 4.4 -22.35 4.7 -21.85 4.15 -21.1 3.9 -18.2 4.1 -17.05 5.3 -16.75 7.55 -17.9 9.35 -19.45 11.55 -20.4 11.25 L-20.7 10.8 M-23.3 5.95 L-23.55 6.9 -23.7 7.2 -23.3 5.95 M-24.2 10.9 L-24.2 11.0 -24.25 11.0 -24.2 10.9" fill="#dbcd9c" fill-rule="evenodd" stroke="none"/>
    <path d="M-20.7 10.8 L-20.4 11.25 Q-19.45 11.55 -17.9 9.35 -16.75 7.55 -17.05 5.3 L-17.05 5.2 Q-16.15 6.5 -16.3 7.55 L-16.7 10.1 Q-17.15 11.55 -19.4 12.6 L-20.3 12.8 Q-22.75 12.85 -24.2 11.0 L-24.2 10.9 Q-24.7 10.3 -24.5 9.4 -24.15 8.75 -24.1 7.85 L-23.7 7.2 -23.55 6.9 -23.45 8.55 -23.05 9.35 -22.9 9.55 -22.85 9.6 Q-22.1 10.85 -20.7 10.8" fill="#958c6d" fill-rule="evenodd" stroke="none"/>
    <path d="M-22.35 4.7 Q-22.0 4.4 -21.45 4.4 L-20.85 4.4 Q-22.15 4.6 -22.7 5.6 L-23.0 6.65 -23.1 6.8 Q-23.45 8.55 -22.2 9.85 L-21.7 10.2 -21.25 10.5 -20.9 10.6 -19.75 10.6 -20.7 10.8 Q-22.1 10.85 -22.85 9.6 L-22.9 9.55 -23.05 9.35 -23.45 8.55 -23.55 6.9 -23.3 5.95 -23.2 5.65 Q-22.95 5.0 -22.35 4.7" fill="#c2b68c" fill-rule="evenodd" stroke="none"/>
    <path d="M-16.5 13.95 L-16.45 13.35 Q-15.95 11.6 -14.25 11.0 L-14.1 11.0 -13.1 10.75 Q-11.9 10.75 -11.05 11.8 L-11.35 11.25 -12.05 10.6 -10.75 11.3 Q-9.5 13.9 -9.95 15.5 -11.75 16.95 -13.85 16.75 -16.6 16.55 -16.75 15.6 L-16.5 15.15 -15.9 15.85 -16.45 14.8 Q-16.35 14.35 -16.5 13.95 M-13.65 10.45 L-14.55 10.7 -14.85 10.7 -13.65 10.45 M-18.4 12.1 L-18.45 12.15 -18.45 12.1 -18.4 12.1" fill="#dbcd9c" fill-rule="evenodd" stroke="none"/>
    <path d="M-16.5 13.95 Q-16.35 14.35 -16.45 14.8 L-16.5 14.5 -16.5 13.95 M-16.5 15.15 L-16.75 15.6 Q-16.6 16.55 -13.85 16.75 -11.75 16.95 -9.95 15.5 L-9.9 15.45 Q-10.5 16.95 -11.5 17.3 L-13.95 18.25 Q-15.4 18.55 -17.45 17.15 L-18.05 16.45 Q-19.3 14.35 -18.45 12.15 L-18.4 12.1 Q-18.05 11.4 -17.2 11.15 -16.45 11.1 -15.65 10.7 L-14.85 10.7 -14.55 10.7 Q-15.35 11.0 -15.95 11.6 L-16.45 12.3 -16.6 12.55 -16.6 12.65 Q-17.3 13.9 -16.5 15.15" fill="#958c6d" fill-rule="evenodd" stroke="none"/>
    <path d="M-12.05 10.6 L-11.35 11.25 -11.05 11.8 Q-11.9 10.75 -13.1 10.75 L-14.1 11.0 -14.25 11.0 Q-15.95 11.6 -16.45 13.35 L-16.5 13.95 -16.5 14.5 -16.45 14.8 -15.9 15.85 -16.5 15.15 Q-17.3 13.9 -16.6 12.65 L-16.6 12.55 -16.45 12.3 -15.95 11.6 Q-15.35 11.0 -14.55 10.7 L-13.65 10.45 -13.3 10.35 Q-12.6 10.3 -12.05 10.6" fill="#c2b68c" fill-rule="evenodd" stroke="none"/>
    <path d="M-16.3 14.9 Q-15.85 15.95 -15.6 17.55 L-15.7 18.0 Q-17.35 19.55 -18.75 19.7 L-20.35 19.35 Q-22.3 18.65 -21.95 16.35 -21.6 14.9 -20.85 14.2 -20.0 13.5 -18.75 13.25 -17.55 13.15 -16.3 14.95 L-16.3 14.9 M-23.25 14.8 L-23.2 14.2 Q-22.8 12.15 -21.3 11.45 L-20.6 11.3 Q-22.4 11.75 -22.95 13.55 L-23.1 14.0 -23.25 14.8 M-19.6 15.05 L-19.65 15.2 -19.5 15.2 -19.5 15.1 -19.6 15.05 M-18.65 16.3 L-18.6 16.35 -18.6 16.2 -18.65 16.3" fill="#c2b589" fill-rule="evenodd" stroke="none"/>
    <path d="M-20.6 11.3 L-20.35 11.2 Q-18.8 11.15 -17.85 12.25 L-16.6 13.8 Q-16.3 14.1 -16.3 14.9 L-16.3 14.95 Q-17.55 13.15 -18.75 13.25 -20.0 13.5 -20.85 14.2 -21.6 14.9 -21.95 16.35 -22.3 18.65 -20.35 19.35 L-18.75 19.7 -18.6 19.7 -20.05 19.95 -21.25 20.1 Q-23.0 19.85 -23.55 18.3 -23.9 16.65 -23.35 15.1 L-23.25 14.95 -23.25 14.8 -23.1 14.0 -22.95 13.55 Q-22.4 11.75 -20.6 11.3" fill="#877c58" fill-rule="evenodd" stroke="none"/>
    <path d="M-26.35 22.35 L-26.85 21.75 -26.15 21.9 -22.95 22.1 Q-21.15 21.6 -20.6 21.15 L-20.35 19.85 Q-20.25 20.9 -20.6 21.45 -21.05 22.1 -22.85 22.55 L-26.2 22.4 -26.35 22.35" fill="#565141" fill-rule="evenodd" stroke="none"/>
    <path d="M-21.55 19.05 L-21.65 19.15 -22.5 19.65 -23.7 19.85 -25.85 20.2 Q-26.85 20.0 -26.9 19.1 L-26.7 18.2 -26.65 18.05 -26.35 17.95 -26.65 18.0 -26.1 16.45 -25.65 16.2 -25.1 15.7 -24.9 15.6 -24.85 15.6 -24.45 15.4 Q-23.9 15.1 -23.15 15.0 -22.0 15.3 -21.45 16.35 L-20.35 18.3 Q-20.0 19.1 -20.35 19.85 L-20.35 19.35 Q-20.25 18.6 -20.65 18.35 -21.05 18.8 -21.55 19.05" fill="#bfbaa8" fill-rule="evenodd" stroke="none"/>
    <path d="M-21.55 19.05 Q-21.05 18.8 -20.65 18.35 -20.25 18.6 -20.35 19.35 L-20.35 19.85 -20.6 21.15 Q-21.15 21.6 -22.95 22.1 L-26.15 21.9 -26.85 21.75 -26.35 22.35 -25.75 22.9 -26.4 22.3 Q-28.7 20.05 -27.95 17.7 L-27.55 17.3 Q-26.95 16.8 -26.0 16.25 -25.45 15.8 -25.05 15.65 L-24.9 15.6 -25.1 15.7 -25.65 16.2 -26.1 16.45 -26.65 18.0 -26.35 17.95 -26.65 18.05 -26.7 18.2 -26.65 18.0 -26.65 16.9 -27.25 19.2 -27.25 19.6 Q-26.45 21.35 -25.35 21.05 L-23.35 20.6 Q-22.4 20.4 -21.65 19.15 L-21.5 19.1 -21.55 19.05" fill="#878270" fill-rule="evenodd" stroke="none"/>
    <path d="M-26.7 18.2 L-26.9 19.1 Q-26.85 20.0 -25.85 20.2 L-23.7 19.85 -22.5 19.65 -21.65 19.15 -21.55 19.05 -21.5 19.1 -21.65 19.15 Q-22.4 20.4 -23.35 20.6 L-25.35 21.05 Q-26.45 21.35 -27.25 19.6 L-27.25 19.2 -26.65 16.9 -26.65 18.0 -26.7 18.2" fill="#6b6758" fill-rule="evenodd" stroke="none"/>
    <path d="M-14.6 -19.3 Q-13.9 -19.65 -13.95 -18.9 L-13.95 -18.75 -14.8 -18.7 Q-15.0 -19.05 -14.6 -19.3" fill="#db9d42" fill-rule="evenodd" stroke="none"/>
    <path d="M-30.0 24.65 L-29.35 24.9 -30.05 24.5 -30.2 24.3 -30.4 23.95 -30.55 23.6 Q-30.85 22.35 -30.05 21.35 L-29.95 21.3 -29.4 20.8 -27.8 20.75 -28.2 20.5 -28.85 20.35 Q-28.35 20.2 -27.75 20.35 -26.1 21.45 -25.85 22.6 -26.45 24.1 -27.75 24.75 -29.55 25.6 -29.95 25.05 L-30.0 24.65 M-29.85 20.8 L-30.35 21.3 -30.55 21.4 -29.85 20.8 M-32.15 23.45 L-32.15 23.55 -32.2 23.5 -32.15 23.45" fill="#dbcd9c" fill-rule="evenodd" stroke="none"/>
    <path d="M-30.0 24.65 L-29.95 25.05 Q-29.55 25.6 -27.75 24.75 -26.45 24.1 -25.85 22.6 L-25.8 22.55 Q-25.7 23.65 -26.15 24.25 L-27.3 25.65 Q-28.05 26.4 -29.8 26.25 L-30.45 26.05 Q-31.95 25.2 -32.15 23.55 L-32.15 23.45 Q-32.25 22.95 -31.8 22.5 L-31.0 21.65 -30.55 21.4 -30.35 21.3 -30.85 22.35 -30.9 22.95 -30.95 23.15 -30.9 23.2 Q-30.85 24.2 -30.0 24.65" fill="#958c6d" fill-rule="evenodd" stroke="none"/>
    <path d="M-28.85 20.35 L-28.2 20.5 -27.8 20.75 -29.4 20.8 -29.95 21.3 -30.05 21.35 Q-30.85 22.35 -30.55 23.6 L-30.4 23.95 -30.2 24.3 -30.05 24.5 -29.35 24.9 -30.0 24.65 Q-30.85 24.2 -30.9 23.2 L-30.95 23.15 -30.9 22.95 -30.85 22.35 -30.35 21.3 -29.85 20.8 -29.7 20.65 -28.85 20.35" fill="#c2b68c" fill-rule="evenodd" stroke="none"/>
    <path d="M-13.8 29.55 Q-15.5 32.45 -18.6 31.5 -19.65 31.1 -20.3 30.45 -22.0 28.8 -20.45 26.7 -19.45 25.45 -17.75 24.75 -15.95 24.0 -15.0 25.45 L-13.8 27.5 Q-13.35 28.5 -13.8 29.55" fill="#7e512f" fill-opacity="0.32941177" fill-rule="evenodd" stroke="none"/>
    <path d="M-17.9 29.05 L-17.3 28.9 -18.05 28.85 -18.25 28.8 -18.6 28.65 -18.9 28.35 Q-19.75 27.55 -19.6 26.25 L-19.5 26.15 -19.35 25.5 Q-18.95 24.8 -18.05 24.65 L-18.45 24.65 -19.05 24.85 -18.2 24.3 Q-16.25 24.45 -15.4 25.25 -15.2 26.85 -16.0 28.05 -17.1 29.55 -17.7 29.35 L-17.9 29.05 M-19.65 25.75 L-19.85 26.35 -19.95 26.55 -19.65 25.75 M-20.35 29.1 L-20.3 29.15 -20.35 29.15 -20.35 29.1" fill="#dbcd9c" fill-rule="evenodd" stroke="none"/>
    <path d="M-17.9 29.05 L-17.7 29.35 Q-17.1 29.55 -16.0 28.05 -15.2 26.85 -15.4 25.25 L-15.45 25.2 Q-14.8 26.1 -14.9 26.85 L-15.15 28.6 Q-15.5 29.55 -17.0 30.25 L-17.65 30.4 Q-19.3 30.4 -20.3 29.15 L-20.35 29.1 -20.5 28.05 -20.2 27.0 -19.95 26.55 -19.85 26.35 -19.75 27.55 -19.5 28.0 -19.45 28.2 -19.4 28.25 Q-18.9 29.05 -17.9 29.05" fill="#958c6d" fill-rule="evenodd" stroke="none"/>
    <path d="M-19.05 24.85 L-18.45 24.65 -18.05 24.65 Q-18.95 24.8 -19.35 25.5 L-19.5 26.15 -19.6 26.25 Q-19.75 27.55 -18.9 28.35 L-18.6 28.65 -18.25 28.8 -18.05 28.85 -17.3 28.9 -17.9 29.05 Q-18.9 29.05 -19.4 28.25 L-19.45 28.2 -19.5 28.0 -19.75 27.55 -19.85 26.35 -19.65 25.75 -19.6 25.5 -19.05 24.85" fill="#c2b68c" fill-rule="evenodd" stroke="none"/>
    <path d="M-20.8 -22.3 Q-20.8 -21.95 -21.1 -21.75 -21.45 -21.6 -21.75 -21.75 L-21.8 -22.1 -21.75 -22.55 -21.25 -22.8 Q-20.8 -22.8 -20.8 -22.3" fill="#db9d42" fill-rule="evenodd" stroke="none"/>
    <path d="M-19.85 -15.85 Q-19.25 -15.85 -19.25 -15.2 -19.15 -14.65 -19.65 -14.45 L-20.35 -14.35 -20.5 -14.75 -20.35 -15.35 -19.85 -15.85" fill="#d79a3f" fill-rule="evenodd" stroke="none"/>
    <path d="M-19.3 -11.95 L-19.25 -11.85 -19.15 -11.8 -19.0 -11.55 -19.0 -11.15 -19.1 -10.75 -19.15 -10.7 Q-19.7 -10.6 -19.95 -11.1 -20.1 -11.4 -19.85 -11.8 L-19.5 -11.95 -19.3 -11.95" fill="#d79a3f" fill-rule="evenodd" stroke="none"/>
    <path d="M22.95 -1.9 L23.05 -1.8 23.1 -1.7 23.2 -1.5 23.25 -1.25 23.25 -1.1 23.2 -1.0 23.2 -0.95 23.1 -0.85 22.75 -0.8 22.2 -1.0 22.2 -1.1 22.1 -1.15 22.1 -1.4 22.2 -1.65 22.25 -1.8 22.65 -1.9 22.8 -1.95 22.95 -1.9" fill="#d79a3f" fill-rule="evenodd" stroke="none"/>
    <path d="M27.55 29.95 L27.7 30.05 27.8 30.1 27.8 30.2 27.9 30.25 27.7 30.5 27.1 30.6 27.0 30.35 27.0 30.25 27.4 29.95 27.55 29.95" fill="#d79a3f" fill-rule="evenodd" stroke="none"/>
    <path d="M25.85 24.4 L26.1 24.4 26.4 24.65 26.45 24.95 26.25 25.1 Q25.75 25.2 25.6 24.8 L25.55 24.75 25.55 24.65 25.6 24.55 25.7 24.5 25.75 24.5 25.85 24.4" fill="#d79a3f" fill-rule="evenodd" stroke="none"/>
    <path d="M1.05 27.95 L1.35 28.0 1.5 28.1 1.65 28.3 1.75 28.8 1.65 29.35 1.6 29.65 0.75 29.95 Q0.25 29.95 -0.05 29.65 L-0.2 29.2 Q-0.3 28.7 0.05 28.3 0.35 27.85 0.9 27.95 L1.05 27.95" fill="#d79a3f" fill-rule="evenodd" stroke="none"/>
    <path d="M-24.15 30.4 L-24.25 30.35 -24.4 30.1 -24.3 29.7 -23.9 29.5 -23.3 29.5 -23.15 29.5 -23.05 29.55 -23.0 29.7 -23.0 30.1 -23.3 30.35 -23.45 30.35 -23.85 30.4 -24.15 30.4" fill="#d79a3f" fill-rule="evenodd" stroke="none"/>
    <path d="M-29.45 35.2 L-29.4 35.2 -29.3 35.25 -29.3 35.4 -29.4 35.55 -29.45 35.9 -29.6 36.1 -29.7 36.1 -29.85 36.05 -30.15 35.9 -30.25 35.8 -30.25 35.65 -30.15 35.4 -30.0 35.2 -29.95 35.2 -29.85 35.1 -29.75 35.1 -29.6 35.1 Q-29.55 35.1 -29.45 35.2" fill="#d79a3f" fill-rule="evenodd" stroke="none"/>
    <path d="M-22.45 -23.25 L-22.5 -22.95 -22.7 -22.95 -23.05 -22.95 -23.05 -23.0 -23.15 -23.1 -23.15 -23.35 -23.15 -23.55 -23.05 -23.65 -22.85 -23.7 -22.5 -23.55 -22.45 -23.25" fill="#d79a3f" fill-rule="evenodd" stroke="none"/>
    <path d="M-21.75 -20.45 Q-21.95 -19.75 -22.45 -20.35 -23.05 -21.3 -22.2 -21.75 -21.35 -21.3 -21.75 -20.45" fill="#d79a3f" fill-rule="evenodd" stroke="none"/>
    <path d="M-18.95 -4.7 L-18.8 -4.05 Q-18.7 -3.75 -18.85 -3.5 -19.3 -3.1 -19.8 -3.65 L-19.95 -4.45 -19.8 -4.85 -19.8 -4.9 -19.7 -4.9 -19.55 -5.0 -19.5 -5.0 Q-19.1 -5.0 -18.95 -4.7" fill="#d79a3f" fill-rule="evenodd" stroke="none"/>
    <path d="M26.7 28.0 Q26.55 29.2 25.4 28.45 24.7 28.1 24.85 27.3 L24.9 27.25 25.0 27.15 25.4 27.0 25.7 26.9 Q26.8 27.0 26.7 28.0" fill="#d79a3f" fill-rule="evenodd" stroke="none"/>
  </g>
</svg>
