<?xml version="1.0" encoding="UTF-8" standalone="no"?>
<svg xmlns:ffdec="https://www.free-decompiler.com/flash" xmlns:xlink="http://www.w3.org/1999/xlink" ffdec:objectType="shape" height="94.85px" width="98.3px" xmlns="http://www.w3.org/2000/svg">
  <g transform="matrix(1.0, 0.0, 0.0, 1.0, 1.5, 1.5)">
    <path d="M60.75 4.5 Q57.25 0.1 50.05 0.0 42.8 -0.1 35.95 2.95 26.4 7.25 14.65 9.75 7.9 11.2 3.85 14.7 0.0 18.0 0.0 21.8 0.0 25.15 4.2 27.3 8.35 29.45 8.35 32.85 8.3 36.2 5.25 42.75 2.2 49.25 3.05 53.75 3.85 58.25 6.8 60.65 8.2 61.75 13.4 64.15 17.9 66.2 19.55 68.1 21.2 69.95 21.6 74.55 21.95 79.15 25.95 81.6 29.95 84.05 38.9 82.5 47.85 80.9 48.85 85.45 49.85 90.0 54.25 91.55 57.55 92.45 62.15 90.8 66.75 89.1 76.25 82.4 95.3 69.0 95.3 56.3 95.3 53.1 93.7 50.95 90.35 48.0 90.35 44.7 L90.2 33.45 Q90.0 25.55 85.15 22.1 80.25 18.65 69.3 14.5 64.2 8.9 60.75 4.5 Z" fill="none" stroke="#ffffff" stroke-linecap="round" stroke-linejoin="round" stroke-width="3.0"/>
  </g>
</svg>
