<?xml version="1.0" encoding="UTF-8" standalone="no"?>
<svg xmlns:ffdec="https://www.free-decompiler.com/flash" xmlns:xlink="http://www.w3.org/1999/xlink" ffdec:objectType="shape" height="90.0px" width="91.8px" xmlns="http://www.w3.org/2000/svg">
  <g transform="matrix(1.0, 0.0, 0.0, 1.0, 45.65, 45.05)">
    <path d="M32.0 -25.2 Q43.2 -21.25 41.05 -7.45 40.85 -6.25 41.15 -4.65 41.6 -2.0 41.0 0.5 49.5 6.6 44.0 15.8 40.95 20.95 36.7 25.35 26.7 35.75 18.6 41.15 10.45 46.45 8.0 44.35 5.5 42.2 1.8 35.9 -2.6 33.65 -6.95 34.8 -10.35 35.7 -13.9 34.05 -18.55 32.05 -21.25 32.1 -24.05 32.1 -23.5 29.25 -22.95 26.3 -23.2 25.05 -24.7 22.05 -27.7 19.4 -43.95 13.8 -41.65 5.1 -39.3 -4.35 -36.7 -11.05 -34.1 -17.85 -40.85 -19.0 -47.6 -20.15 -44.85 -26.95 -42.2 -33.8 -28.25 -36.2 -14.4 -38.65 -4.85 -44.55 10.4 -46.95 15.65 -38.05 20.8 -29.2 32.0 -25.2" fill="#7bd8e7" fill-opacity="0.36078432" fill-rule="evenodd" stroke="none"/>
    <path d="M-34.2 -19.4 L-38.15 -23.55 Q-38.15 -28.45 -24.6 -34.35 -11.1 -40.35 -2.8 -39.75 5.4 -39.25 17.4 -31.3 29.35 -23.4 32.15 -16.75 35.0 -10.1 35.6 -7.65 36.5 -4.1 36.5 0.35 L36.1 1.75 35.0 4.1 Q39.3 5.05 40.8 6.5 42.2 8.0 42.2 11.45 42.2 12.8 40.6 16.35 38.75 20.05 37.0 22.1 25.9 33.65 17.75 37.8 13.85 39.7 10.9 39.7 7.6 39.7 5.5 36.1 3.85 33.25 1.25 32.65 -1.1 31.1 -4.8 32.15 -8.4 33.25 -15.2 30.8 -17.8 28.35 -17.05 24.35 -18.9 22.95 -21.95 18.6 -37.3 11.25 -32.9 0.3 -30.25 -9.2 -30.25 -12.35 -30.25 -15.35 -34.2 -19.4" fill="#c1ebfb" fill-rule="evenodd" stroke="none"/>
    <path d="M26.85 -19.6 L27.25 -19.15 27.0 -19.45 26.85 -19.6 M33.05 -2.1 Q32.65 -0.05 30.8 1.45 L31.6 0.65 32.7 -1.5 33.05 -2.1 M2.55 18.7 L2.35 18.7 Q0.1 19.65 1.85 21.15 2.95 22.05 3.65 20.9 4.9 18.95 2.55 18.7 M-30.05 -28.65 L-24.55 -30.85 Q-21.15 -32.2 -16.75 -32.45 -12.45 -32.75 -8.55 -33.7 -8.4 -37.45 1.15 -34.4 10.6 -31.4 15.45 -27.65 16.35 -26.9 19.35 -26.55 L24.7 -19.45 Q27.15 -16.1 27.2 -14.0 27.5 -9.15 31.3 -6.1 L30.9 -3.3 Q30.4 -0.4 28.1 1.1 23.3 4.1 25.8 7.05 28.25 10.05 33.75 8.25 39.25 6.35 38.4 10.95 36.25 15.7 30.8 17.65 25.05 19.75 23.25 24.05 21.35 28.3 15.0 33.8 8.65 39.2 8.65 31.75 7.15 28.55 5.35 26.85 3.5 25.1 3.05 25.45 L-4.5 26.75 Q-11.6 27.75 -12.1 25.0 -12.65 22.25 -14.9 20.9 -17.1 19.6 -17.95 15.85 -18.15 14.85 -18.8 14.3 L-26.25 6.15 Q-27.2 5.0 -26.35 3.65 -24.0 0.25 -23.6 -3.7 -23.45 -4.9 -24.05 -5.65 -25.9 -7.95 -25.75 -10.75 -25.6 -13.65 -24.2 -16.25 -23.6 -17.45 -23.8 -18.6 -24.05 -19.8 -29.6 -22.7 -33.55 -24.65 -32.5 -26.35 -32.25 -27.7 -30.05 -28.65 M9.8 22.45 Q8.65 22.75 8.8 23.9 9.0 25.7 10.4 24.2 11.8 22.65 9.8 22.45" fill="#fad14c" fill-rule="evenodd" stroke="none"/>
    <path d="M30.8 1.45 Q30.35 1.7 29.8 2.05 L29.65 2.15 26.25 4.45 Q26.6 6.95 27.6 7.95 L28.55 8.05 28.6 8.05 28.85 8.05 29.2 7.9 30.2 7.65 35.0 7.05 37.8 7.55 Q39.0 7.9 39.65 8.6 40.35 9.3 40.35 10.4 40.3 12.85 36.05 17.1 L35.75 17.35 Q31.1 22.05 23.8 27.75 16.6 33.15 14.1 35.9 11.55 38.5 9.65 37.5 L6.95 35.65 Q6.1 34.9 6.35 32.55 L6.65 30.85 6.5 30.6 Q4.55 26.2 3.25 26.55 L2.9 26.7 -6.95 29.15 Q-11.2 30.15 -12.85 26.3 L-13.55 24.7 -13.85 24.05 -14.2 23.4 -14.6 23.3 Q-17.55 22.1 -19.4 20.2 -22.6 17.0 -24.05 12.1 -27.55 9.5 -30.2 6.25 -31.25 5.0 -30.85 3.3 -29.85 -1.3 -27.75 -5.4 -27.55 -5.85 -28.0 -6.5 -31.3 -11.6 -27.5 -16.5 -26.35 -17.45 -26.15 -18.1 L-26.1 -18.55 -26.15 -18.75 Q-26.3 -19.3 -27.15 -19.65 L-27.3 -19.65 -28.55 -20.05 Q-30.95 -21.9 -32.15 -23.4 L-32.55 -24.05 -32.7 -24.2 Q-34.65 -27.45 -30.85 -29.2 L-29.35 -29.75 -29.25 -29.8 -29.0 -29.9 -28.65 -30.1 -28.45 -30.3 Q-26.7 -31.35 -22.1 -32.95 L-15.35 -35.1 -13.4 -35.65 Q-10.75 -37.25 -5.7 -36.85 -1.15 -36.5 4.55 -34.55 L7.75 -33.15 11.95 -31.25 Q13.15 -30.6 15.9 -29.55 19.45 -29.65 20.05 -28.15 20.65 -26.35 21.75 -25.2 23.6 -23.4 24.7 -20.9 L24.95 -20.75 26.85 -19.6 27.0 -19.45 27.25 -19.15 Q27.55 -18.75 27.5 -18.2 L29.15 -16.15 29.35 -15.8 29.45 -15.7 29.7 -15.15 29.8 -15.0 29.85 -14.3 29.9 -13.65 29.9 -13.55 29.9 -13.45 29.85 -13.25 Q29.55 -11.45 30.2 -9.7 L30.35 -8.4 Q32.7 -6.8 33.05 -4.15 L33.05 -2.1 32.7 -1.5 31.6 0.65 30.8 1.45 M-30.05 -28.65 Q-32.25 -27.7 -32.5 -26.35 -33.55 -24.65 -29.6 -22.7 -24.05 -19.8 -23.8 -18.6 -23.6 -17.45 -24.2 -16.25 -25.6 -13.65 -25.75 -10.75 -25.9 -7.95 -24.05 -5.65 -23.45 -4.9 -23.6 -3.7 -24.0 0.25 -26.35 3.65 -27.2 5.0 -26.25 6.15 L-18.8 14.3 Q-18.15 14.85 -17.95 15.85 -17.1 19.6 -14.9 20.9 -12.65 22.25 -12.1 25.0 -11.6 27.75 -4.5 26.75 L3.05 25.45 Q3.5 25.1 5.35 26.85 7.15 28.55 8.65 31.75 8.65 39.2 15.0 33.8 21.35 28.3 23.25 24.05 25.05 19.75 30.8 17.65 36.25 15.7 38.4 10.95 39.25 6.35 33.75 8.25 28.25 10.05 25.8 7.05 23.3 4.1 28.1 1.1 30.4 -0.4 30.9 -3.3 L31.3 -6.1 Q27.5 -9.15 27.2 -14.0 27.15 -16.1 24.7 -19.45 L19.35 -26.55 Q16.35 -26.9 15.45 -27.65 10.6 -31.4 1.15 -34.4 -8.4 -37.45 -8.55 -33.7 -12.45 -32.75 -16.75 -32.45 -21.15 -32.2 -24.55 -30.85 L-30.05 -28.65 M2.55 18.7 Q4.9 18.95 3.65 20.9 2.95 22.05 1.85 21.15 0.1 19.65 2.35 18.7 L2.55 18.7" fill="#d9933d" fill-rule="evenodd" stroke="none"/>
    <path d="M9.8 22.45 Q11.8 22.65 10.4 24.2 9.0 25.7 8.8 23.9 8.65 22.75 9.8 22.45" fill="#c6873a" fill-rule="evenodd" stroke="none"/>
    <path d="M12.1 26.95 L12.8 26.3 Q12.35 27.35 12.4 30.1 12.35 32.0 12.8 32.45 L12.35 32.3 Q11.45 32.15 10.9 30.45 10.3 28.75 12.1 26.95" fill="#276b16" fill-rule="evenodd" stroke="none"/>
    <path d="M11.6 32.3 L11.9 33.15 Q12.05 32.0 13.3 29.5 14.15 27.75 14.6 27.5 L14.2 27.45 Q13.45 27.35 12.2 28.7 11.0 30.05 11.6 32.3" fill="url(#gradient0)" fill-rule="evenodd" stroke="none"/>
    <path d="M12.0 30.35 Q11.4 30.8 10.2 30.7 9.1 30.55 8.0 29.45 8.45 29.2 9.4 28.9 10.35 28.65 11.05 29.3 L12.0 30.35" fill="#276b16" fill-rule="evenodd" stroke="none"/>
    <path d="M12.2 30.25 L11.85 30.85 Q12.5 30.4 14.5 30.15 L16.2 30.2 16.0 29.85 Q15.7 29.25 14.35 28.95 13.05 28.65 12.2 30.25" fill="url(#gradient1)" fill-rule="evenodd" stroke="none"/>
    <path d="M8.95 28.7 L10.45 28.45 Q11.5 28.45 12.05 29.35 L12.65 30.7 Q11.85 31.3 10.95 31.0 9.65 30.4 8.95 28.7" fill="url(#gradient2)" fill-rule="evenodd" stroke="none"/>
    <path d="M11.85 29.8 Q11.75 30.65 10.85 31.6 9.95 32.4 8.55 32.65 8.65 32.0 9.2 31.05 9.7 30.0 10.6 29.85 L11.85 29.8" fill="#276b16" fill-rule="evenodd" stroke="none"/>
    <path d="M9.95 27.35 Q9.95 26.85 10.1 26.45 10.4 27.5 12.1 29.55 13.2 30.95 13.7 31.0 L13.3 31.15 Q12.55 31.5 11.1 30.55 9.7 29.6 9.95 27.35" fill="url(#gradient3)" fill-rule="evenodd" stroke="none"/>
    <path d="M11.85 30.25 L12.6 30.2 Q11.9 30.7 11.1 32.6 10.5 33.95 10.7 34.5 L10.4 34.1 Q9.75 33.45 9.9 31.9 9.95 30.35 11.85 30.25" fill="url(#gradient4)" fill-rule="evenodd" stroke="none"/>
    <path d="M11.65 29.4 Q12.45 29.55 13.25 30.65 14.0 31.65 14.05 33.4 13.5 33.25 12.6 32.7 11.7 32.1 11.6 31.05 11.55 29.9 11.65 29.4" fill="#276b16" fill-rule="evenodd" stroke="none"/>
    <path d="M9.25 30.65 L8.65 31.3 Q9.5 30.95 11.65 31.3 13.15 31.5 13.45 31.9 L13.35 31.5 Q13.25 30.6 12.0 29.85 10.7 29.1 9.25 30.65" fill="url(#gradient5)" fill-rule="evenodd" stroke="none"/>
    <path d="M12.5 34.55 Q12.15 34.1 11.75 33.05 11.25 32.0 11.6 31.0 11.9 29.95 12.15 29.65 12.85 30.2 13.0 31.3 13.2 33.0 12.5 34.55" fill="url(#gradient6)" fill-rule="evenodd" stroke="none"/>
    <path d="M11.95 29.8 L13.75 29.9 Q14.9 30.35 15.65 31.8 L14.15 32.05 Q13.1 32.1 12.55 31.2 12.0 30.25 11.95 29.8" fill="url(#gradient7)" fill-rule="evenodd" stroke="none"/>
    <path d="M-15.0 16.3 L-15.3 15.75 Q-14.7 16.2 -13.0 16.7 L-11.5 16.8 -11.7 17.05 Q-11.9 17.55 -13.05 17.65 -14.2 17.75 -15.0 16.3" fill="#276b16" fill-rule="evenodd" stroke="none"/>
    <path d="M-11.8 17.7 L-11.2 17.7 -13.25 16.2 -14.2 15.1 -14.3 15.35 Q-14.5 15.8 -13.9 16.7 -13.25 17.7 -11.8 17.7" fill="url(#gradient8)" fill-rule="evenodd" stroke="none"/>
    <path d="M-12.75 17.25 Q-12.6 17.7 -12.85 18.4 -13.15 19.1 -13.95 19.6 L-14.05 18.65 Q-14.1 18.0 -13.55 17.65 L-12.75 17.25" fill="#276b16" fill-rule="evenodd" stroke="none"/>
    <path d="M-13.05 17.15 L-12.75 17.45 -12.8 15.7 -12.4 14.7 -12.65 14.8 Q-13.1 14.85 -13.5 15.6 -13.9 16.35 -13.05 17.15" fill="url(#gradient9)" fill-rule="evenodd" stroke="none"/>
    <path d="M-14.9 18.6 L-14.85 17.6 Q-14.7 17.0 -14.05 16.85 L-13.1 16.65 Q-12.9 17.25 -13.2 17.75 -13.8 18.45 -14.9 18.6" fill="url(#gradient10)" fill-rule="evenodd" stroke="none"/>
    <path d="M-13.6 16.85 Q-13.1 17.1 -12.7 17.8 -12.3 18.5 -12.4 19.35 L-13.25 18.7 Q-13.8 18.2 -13.75 17.65 L-13.6 16.85" fill="#276b16" fill-rule="evenodd" stroke="none"/>
    <path d="M-15.0 17.8 L-15.5 17.55 Q-14.85 17.6 -13.3 16.85 L-12.15 16.1 -12.1 16.35 Q-12.0 16.9 -12.9 17.65 L-15.0 17.8" fill="url(#gradient11)" fill-rule="evenodd" stroke="none"/>
    <path d="M-13.1 16.85 L-12.95 16.35 -11.7 17.7 Q-11.0 18.25 -10.6 18.25 L-10.95 18.35 -12.35 18.3 Q-13.3 18.0 -13.1 16.85" fill="url(#gradient12)" fill-rule="evenodd" stroke="none"/>
    <path d="M-13.75 17.1 Q-13.55 16.65 -12.75 16.35 L-10.9 16.25 -11.6 17.05 Q-12.1 17.5 -12.75 17.35 L-13.75 17.1" fill="#276b16" fill-rule="evenodd" stroke="none"/>
    <path d="M-13.0 19.25 L-12.75 19.65 Q-12.8 19.05 -12.25 17.85 -11.9 17.0 -11.55 16.85 L-11.85 16.8 Q-12.4 16.75 -13.1 17.45 -13.8 18.1 -13.0 19.25" fill="url(#gradient13)" fill-rule="evenodd" stroke="none"/>
    <path d="M-10.45 17.6 L-11.45 17.8 -12.75 17.55 -13.5 17.0 Q-13.05 16.7 -12.35 16.75 -11.25 16.9 -10.45 17.6" fill="url(#gradient14)" fill-rule="evenodd" stroke="none"/>
    <path d="M-13.15 16.95 Q-13.25 16.45 -12.8 15.85 -12.35 15.25 -11.3 15.0 L-11.4 16.0 Q-11.55 16.6 -12.15 16.75 L-13.15 16.95" fill="url(#gradient15)" fill-rule="evenodd" stroke="none"/>
    <path d="M26.75 -11.95 L27.25 -12.45 Q26.95 -11.7 26.95 -9.7 26.95 -8.3 27.25 -8.0 L26.95 -8.1 Q26.3 -8.25 25.9 -9.45 25.45 -10.65 26.75 -11.95" fill="#276b16" fill-rule="evenodd" stroke="none"/>
    <path d="M26.2 -8.1 L26.4 -7.5 Q26.45 -8.3 27.4 -10.1 28.0 -11.4 28.35 -11.55 L28.05 -11.55 Q27.5 -11.7 26.6 -10.7 25.75 -9.75 26.2 -8.1" fill="url(#gradient16)" fill-rule="evenodd" stroke="none"/>
    <path d="M26.6 -9.4 Q26.2 -9.0 25.3 -9.15 24.55 -9.25 23.75 -9.95 L24.75 -10.4 25.95 -10.15 26.6 -9.4" fill="#276b16" fill-rule="evenodd" stroke="none"/>
    <path d="M26.55 -9.55 L26.3 -9.15 28.2 -9.65 29.45 -9.6 29.35 -9.85 Q29.1 -10.35 28.1 -10.5 27.2 -10.75 26.55 -9.55" fill="url(#gradient17)" fill-rule="evenodd" stroke="none"/>
    <path d="M24.2 -10.85 L25.3 -11.0 Q26.05 -11.0 26.45 -10.35 L26.9 -9.35 Q26.3 -8.95 25.65 -9.15 24.7 -9.6 24.2 -10.85" fill="url(#gradient18)" fill-rule="evenodd" stroke="none"/>
    <path d="M26.4 -9.7 L25.7 -8.4 Q25.05 -7.8 24.05 -7.6 24.1 -8.1 24.5 -8.75 24.9 -9.5 25.5 -9.6 L26.4 -9.7" fill="#276b16" fill-rule="evenodd" stroke="none"/>
    <path d="M25.05 -11.7 L25.15 -12.35 Q25.35 -11.6 26.55 -10.15 27.4 -9.15 27.75 -9.05 L27.45 -8.95 Q26.9 -8.7 25.9 -9.4 24.8 -10.05 25.05 -11.7" fill="url(#gradient19)" fill-rule="evenodd" stroke="none"/>
    <path d="M26.35 -9.4 L26.9 -9.45 25.8 -7.65 Q25.45 -6.7 25.55 -6.3 L25.3 -6.6 Q24.9 -7.05 24.95 -8.15 25.0 -9.3 26.35 -9.4" fill="url(#gradient20)" fill-rule="evenodd" stroke="none"/>
    <path d="M25.85 -10.2 Q26.45 -10.15 27.0 -9.35 27.55 -8.6 27.6 -7.35 27.2 -7.45 26.55 -7.9 25.9 -8.3 25.85 -9.05 L25.85 -10.2" fill="#276b16" fill-rule="evenodd" stroke="none"/>
    <path d="M24.4 -9.3 L24.05 -8.85 26.2 -8.9 Q27.25 -8.75 27.5 -8.4 L27.35 -8.8 Q27.35 -9.35 26.4 -9.9 25.45 -10.45 24.4 -9.3" fill="url(#gradient21)" fill-rule="evenodd" stroke="none"/>
    <path d="M26.8 -6.65 Q26.55 -6.95 26.25 -7.75 25.9 -8.5 26.15 -9.2 L26.55 -10.15 Q27.05 -9.75 27.2 -8.95 27.3 -7.75 26.8 -6.65" fill="url(#gradient22)" fill-rule="evenodd" stroke="none"/>
    <path d="M26.5 -9.85 L27.85 -9.75 29.2 -8.35 28.1 -8.2 Q27.35 -8.2 26.95 -8.85 26.55 -9.45 26.5 -9.85" fill="url(#gradient23)" fill-rule="evenodd" stroke="none"/>
    <path d="M-19.8 1.35 Q-19.45 0.0 -17.75 -1.9 -16.8 -2.85 -15.75 -3.15 -13.2 -4.6 -9.0 -2.5 L-7.3 -1.65 Q-9.2 -1.75 -13.55 -0.3 L-12.7 0.05 -12.6 -0.05 Q-9.7 -1.55 -9.4 -1.35 -9.15 -1.1 -9.7 1.45 L-9.9 2.0 -9.0 2.85 -9.9 2.5 Q-10.25 4.15 -9.9 4.4 -9.25 4.85 -8.75 5.45 L-14.15 5.6 Q-11.3 6.05 -9.95 9.5 -9.65 10.3 -9.5 11.15 -10.15 10.45 -11.65 9.7 -11.1 10.85 -10.95 12.35 -10.7 13.1 -10.8 13.9 -11.45 12.85 -12.9 11.7 -11.75 14.2 -12.3 15.55 L-12.55 16.45 Q-12.7 15.35 -15.1 12.9 -16.2 11.75 -17.05 11.15 -16.4 11.85 -16.35 13.05 -16.05 15.85 -16.95 16.75 L-17.5 17.15 Q-17.25 16.4 -18.25 13.85 L-19.35 11.55 -19.25 17.2 -19.25 17.75 -19.8 17.55 Q-20.75 16.95 -21.5 14.6 -21.85 13.7 -21.65 12.9 L-21.95 13.35 Q-24.05 15.95 -23.95 17.2 L-24.35 16.4 Q-25.15 15.05 -24.1 11.75 L-23.95 11.45 Q-26.65 13.3 -27.05 14.0 L-27.5 12.65 -28.0 13.1 -27.95 12.3 Q-28.0 11.25 -26.8 9.9 L-25.55 8.15 Q-27.6 8.55 -28.6 9.15 L-28.65 9.15 -28.75 9.2 -29.0 9.45 -28.7 8.55 Q-28.45 7.4 -26.9 6.45 L-26.55 6.25 -26.3 6.1 Q-28.75 5.8 -29.5 6.5 L-29.05 5.7 -28.6 5.1 -28.75 5.15 -28.35 4.4 -28.6 4.5 -28.8 4.45 -30.85 6.0 -30.4 5.2 Q-29.6 2.75 -28.6 1.35 L-29.4 1.45 -28.25 0.35 Q-25.2 -2.4 -22.35 -0.6 -20.7 0.3 -19.8 1.35 M-19.0 4.15 L-18.8 4.35 -18.1 3.6 -17.25 3.0 -19.0 4.15 M-17.65 8.45 L-17.5 8.4 -17.65 8.35 -17.65 8.45" fill="#351f17" fill-opacity="0.2901961" fill-rule="evenodd" stroke="none"/>
    <path d="M-26.35 -2.25 L-26.3 -2.2 -26.15 -2.15 -26.35 -2.25 M-35.35 -3.55 L-33.6 -6.35 Q-31.6 -9.55 -28.8 -10.05 L-25.85 -10.65 -24.85 -11.05 Q-22.9 -12.15 -19.55 -10.55 L-18.3 -9.9 Q-19.8 -10.0 -23.1 -8.9 L-22.1 -8.35 -19.6 -6.45 Q-23.05 -7.95 -25.75 -6.5 L-27.3 -5.45 -27.15 -5.25 -26.65 -5.9 Q-24.6 -7.5 -21.75 -6.3 L-20.75 -5.7 -20.8 -5.65 Q-20.6 -5.55 -20.35 -5.25 L-19.4 -4.5 -23.55 -4.3 Q-21.45 -3.95 -20.3 -1.3 L-20.0 -0.05 Q-20.5 -0.6 -21.55 -1.1 -21.15 -0.35 -21.15 0.85 -20.9 1.45 -21.0 2.1 -21.45 1.3 -22.65 0.35 -21.65 2.3 -22.15 3.3 L-22.3 4.1 Q-22.5 3.15 -24.35 1.3 L-25.75 -0.1 Q-25.35 0.6 -25.25 1.4 -25.05 3.55 -25.8 4.25 L-26.1 4.65 Q-25.95 3.95 -26.7 2.05 L-27.6 0.25 -27.25 2.55 Q-26.9 4.7 -26.3 5.1 L-27.9 4.9 Q-28.75 4.4 -29.2 2.65 L-29.35 1.25 -29.6 1.6 Q-31.2 3.7 -31.1 4.6 L-31.4 3.95 Q-32.15 3.0 -31.25 0.35 L-31.1 0.2 Q-33.15 1.65 -33.45 2.2 -33.65 0.8 -33.15 -0.15 L-35.25 2.2 Q-35.6 1.7 -35.15 0.55 -34.8 -0.6 -33.0 -2.2 L-34.8 -1.95 -32.65 -4.75 Q-34.95 -4.0 -35.35 -3.55" fill="#276b16" fill-rule="evenodd" stroke="none"/>
    <path d="M-29.8 2.65 L-29.9 2.75 -29.45 1.95 -29.45 1.9 Q-27.05 0.75 -24.55 1.25 -22.7 1.55 -21.75 2.15 -21.6 2.15 -21.6 2.25 L-21.4 2.35 -21.35 2.4 -21.2 2.45 -21.05 2.55 -20.85 2.4 Q-20.75 2.45 -20.8 2.6 L-21.0 2.7 Q-21.15 2.7 -21.3 2.85 L-21.15 2.7 -21.35 2.7 Q-21.25 2.75 -21.3 2.85 L-21.25 2.9 -21.3 2.95 -21.35 2.9 -21.7 2.85 -21.9 2.75 -22.6 2.4 -22.65 2.35 -25.25 2.5 -25.55 2.4 -29.8 2.65 M-21.05 3.1 L-21.1 3.05 -21.05 3.0 -21.05 3.1" fill="url(#gradient24)" fill-rule="evenodd" stroke="none"/>
    <path d="M-11.75 1.45 Q-13.5 1.5 -17.1 3.1 -19.15 3.1 -20.15 3.75 L-20.6 3.45 -20.7 3.4 -20.95 3.15 -20.6 2.2 -20.65 2.05 -20.7 1.95 Q-20.5 1.75 -20.25 1.7 L-18.05 0.3 -16.85 -0.15 Q-15.0 -0.25 -12.95 0.7 L-11.65 1.45 -11.75 1.45 M-22.65 2.35 L-22.6 2.4 -22.9 2.4 -22.65 2.35 M-21.0 2.7 L-20.8 2.6 -21.05 3.1 -21.05 3.0 -21.0 2.7" fill="url(#gradient25)" fill-rule="evenodd" stroke="none"/>
    <path d="M-14.7 -2.75 Q-14.05 -2.6 -13.35 -2.15 L-10.1 0.4 Q-13.8 -1.15 -16.85 -0.15 L-18.05 0.3 -20.25 1.7 Q-20.5 1.75 -20.7 1.95 L-20.7 1.8 -20.8 1.4 -20.8 1.25 -20.8 1.05 -21.0 0.7 -20.95 0.55 -21.05 0.5 -21.1 0.55 -21.1 0.5 -21.7 0.2 -20.35 0.0 -17.75 -1.8 -15.45 -3.0 -14.7 -2.75 M-21.3 2.95 L-21.25 2.9 -21.3 2.85 Q-21.25 2.75 -21.35 2.7 L-21.15 2.7 -21.3 2.85 Q-21.15 2.7 -21.0 2.7 L-21.05 3.0 -21.1 3.05 -21.1 3.45 -21.3 2.95" fill="url(#gradient26)" fill-rule="evenodd" stroke="none"/>
    <path d="M-20.95 -1.1 Q-20.6 -2.45 -18.9 -4.25 -18.0 -5.2 -16.9 -5.55 -15.2 -6.05 -12.9 -4.95 L-11.6 -4.25 Q-12.85 -4.25 -15.45 -3.0 L-17.75 -1.8 -20.35 0.0 -20.7 -0.65 -20.95 -1.1 M-21.1 0.55 L-21.05 0.5 -20.95 0.55 -21.0 0.7 -21.05 0.8 -21.1 0.65 -21.1 0.55" fill="url(#gradient27)" fill-rule="evenodd" stroke="none"/>
    <path d="M-16.9 -5.55 Q-14.35 -7.0 -10.1 -4.95 L-8.45 -4.0 Q-10.35 -4.15 -14.7 -2.75 L-15.45 -3.0 Q-12.85 -4.25 -11.6 -4.25 L-12.9 -4.95 Q-15.2 -6.05 -16.9 -5.55" fill="url(#gradient28)" fill-rule="evenodd" stroke="none"/>
    <path d="M-11.75 1.45 L-11.05 1.95 Q-10.4 2.4 -9.9 3.0 L-15.3 3.2 -16.0 3.15 -17.1 3.1 Q-13.5 1.5 -11.75 1.45" fill="url(#gradient29)" fill-rule="evenodd" stroke="none"/>
    <path d="M-27.45 3.65 Q-29.9 3.4 -30.6 4.0 L-30.2 3.2 -29.8 2.65 -25.55 2.4 -25.25 2.5 -26.05 2.8 Q-26.85 3.1 -27.45 3.65" fill="url(#gradient30)" fill-rule="evenodd" stroke="none"/>
    <path d="M-21.05 3.1 L-21.1 3.05 -21.05 3.1" fill="url(#gradient31)" fill-rule="evenodd" stroke="none"/>
    <path d="M-29.45 1.95 L-29.85 2.1 -29.45 1.9 -29.45 1.95" fill="url(#gradient32)" fill-rule="evenodd" stroke="none"/>
    <path d="M-29.8 6.8 L-30.1 7.0 -29.8 6.1 Q-29.55 4.85 -27.45 3.65 -29.3 4.7 -29.5 5.9 L-29.8 6.8" fill="url(#gradient33)" fill-rule="evenodd" stroke="none"/>
    <path d="M-31.6 2.75 Q-30.75 0.35 -29.75 -1.05 L-28.05 -1.0 Q-29.0 -0.65 -29.7 0.35 L-31.6 2.75" fill="url(#gradient34)" fill-rule="evenodd" stroke="none"/>
    <path d="M-27.95 7.5 L-26.65 5.75 Q-28.7 6.15 -29.7 6.7 -28.8 5.95 -25.85 5.45 L-26.4 5.85 -27.95 7.5" fill="url(#gradient35)" fill-rule="evenodd" stroke="none"/>
    <path d="M-25.1 9.1 Q-27.75 10.9 -28.15 11.6 L-28.65 10.2 Q-27.75 9.35 -25.45 8.3 L-24.4 7.85 -25.1 9.1" fill="url(#gradient36)" fill-rule="evenodd" stroke="none"/>
    <path d="M-17.1 3.1 L-16.0 3.15 -15.3 3.2 Q-12.45 3.65 -11.05 7.15 L-10.6 8.7 -12.75 7.3 Q-12.2 8.4 -12.15 9.9 -11.85 10.7 -11.95 11.45 -12.6 10.5 -14.05 9.3 -12.85 11.8 -13.4 13.1 L-13.6 14.05 Q-13.8 12.9 -16.25 10.45 L-18.15 8.7 Q-17.6 9.5 -17.5 10.65 -17.15 13.4 -18.15 14.3 L-18.6 14.75 Q-18.35 14.0 -19.4 11.4 L-20.5 9.15 -20.05 12.1 Q-19.65 14.8 -18.95 15.4 L-20.95 15.15 Q-21.95 14.55 -22.6 12.25 -22.95 11.35 -22.8 10.5 L-23.1 10.9 Q-25.15 13.6 -25.1 14.75 L-25.5 14.05 Q-26.35 12.6 -25.25 9.35 L-25.1 9.1 -24.4 7.85 -25.45 8.3 Q-27.75 9.35 -28.65 10.2 L-29.1 10.65 -29.05 9.9 Q-29.1 8.8 -27.95 7.5 L-26.4 5.85 -25.85 5.45 Q-28.8 5.95 -29.7 6.7 L-29.8 6.8 -29.5 5.9 Q-29.3 4.7 -27.45 3.65 -26.85 3.1 -26.05 2.8 L-25.25 2.5 -22.65 2.35 -22.9 2.4 -22.6 2.4 -21.9 2.75 -21.7 2.85 -21.35 2.9 -21.3 2.95 -21.1 3.45 -21.1 3.05 -21.05 3.1 -20.8 2.6 Q-20.75 2.45 -20.85 2.4 L-21.05 2.55 -21.2 2.45 -21.35 2.4 -21.4 2.35 -21.6 2.25 Q-21.6 2.15 -21.75 2.15 -22.7 1.55 -24.55 1.25 -27.05 0.75 -29.45 1.9 L-29.85 2.1 -32.05 3.55 -31.6 2.75 -29.7 0.35 Q-29.0 -0.65 -28.05 -1.0 L-29.75 -1.05 -30.5 -1.0 -29.35 -2.1 Q-26.3 -4.8 -23.5 -3.0 -21.85 -2.1 -20.95 -1.1 L-20.7 -0.65 -20.35 0.0 -21.7 0.2 -21.1 0.5 -21.1 0.55 -21.1 0.65 -21.05 0.8 -21.0 0.7 -20.8 1.05 -20.8 1.25 -20.8 1.4 -20.7 1.8 -20.7 1.95 -20.65 2.05 -20.6 2.2 -20.95 3.15 -20.7 3.4 -20.6 3.45 -20.15 3.75 Q-19.15 3.1 -17.1 3.1 M-18.8 5.9 L-18.85 5.95 -18.6 6.0 -18.8 5.9" fill="url(#gradient37)" fill-rule="evenodd" stroke="none"/>
    <path d="M-18.1 -7.3 L-18.1 -7.25 -17.95 -7.2 -18.1 -7.3 M-19.0 -16.2 Q-17.4 -17.75 -13.85 -17.05 L-12.4 -16.7 Q-13.75 -16.45 -16.75 -14.5 L-15.65 -14.3 -12.75 -13.15 Q-16.5 -13.55 -18.65 -11.6 L-18.9 -11.15 Q-17.45 -12.75 -14.8 -12.35 L-13.65 -12.0 -13.75 -11.95 -13.2 -11.75 -12.05 -11.2 Q-13.35 -11.15 -16.05 -9.95 -13.8 -10.2 -12.15 -7.9 -11.65 -7.4 -11.45 -6.8 L-13.35 -7.45 Q-12.7 -6.7 -12.35 -5.65 -11.95 -5.05 -11.95 -4.5 L-13.95 -5.7 Q-12.45 -4.05 -12.65 -3.0 L-12.65 -2.2 Q-13.05 -3.1 -15.3 -4.35 L-17.05 -5.3 Q-16.5 -4.85 -16.15 -4.0 -15.4 -1.95 -15.85 -1.15 L-16.2 -0.7 Q-16.15 -1.3 -17.45 -3.0 L-18.8 -4.5 -17.85 -2.4 Q-16.95 -0.5 -16.35 -0.15 L-17.85 0.0 Q-18.7 -0.2 -19.7 -1.8 L-20.2 -3.05 -20.25 -2.65 Q-21.3 -0.25 -21.05 0.6 L-21.5 0.1 Q-22.4 -0.7 -22.15 -3.45 L-22.15 -3.6 -23.9 -1.15 -24.55 -2.1 -24.75 -1.65 -25.0 -2.3 Q-25.25 -3.0 -24.55 -4.25 L-24.0 -5.8 Q-25.45 -5.15 -26.1 -4.45 L-26.15 -4.4 -26.35 -4.2 -26.25 -4.95 Q-26.3 -5.7 -25.5 -6.55 L-25.3 -6.75 -25.05 -7.05 -24.95 -7.1 -24.95 -7.25 Q-26.85 -6.95 -27.3 -6.35 L-27.15 -6.95 -26.95 -7.5 -27.05 -7.35 -26.85 -8.05 -26.85 -8.1 -27.05 -7.95 -27.1 -7.9 -28.4 -6.45 -28.2 -7.05 Q-28.1 -9.0 -27.65 -10.3 L-28.25 -10.05 -27.6 -11.05 Q-25.8 -13.8 -23.45 -12.95 -22.0 -12.6 -21.15 -12.05 -21.15 -13.1 -20.25 -14.8 L-19.0 -16.2" fill="#216211" fill-rule="evenodd" stroke="none"/>
    <path d="M-29.4 -11.65 L-28.0 -11.95 Q-28.65 -11.55 -29.1 -10.55 L-29.95 -8.45 Q-29.85 -10.4 -29.4 -11.65 M-28.65 -8.85 Q-27.95 -9.5 -25.55 -9.85 L-25.2 -9.9 -25.8 -9.5 -26.6 -8.6 Q-28.55 -8.3 -29.0 -7.7 L-28.8 -8.35 -28.65 -8.85 M-27.0 -8.15 Q-27.8 -7.35 -27.75 -6.5 L-27.75 -5.85 Q-27.25 -6.65 -25.15 -7.6 L-25.45 -7.15 -26.25 -5.55 -25.75 -7.2 Q-27.15 -6.55 -27.75 -5.85 L-27.8 -5.8 -28.0 -5.55 -27.95 -6.3 Q-28.05 -7.15 -27.0 -8.15 M-26.25 -3.5 L-24.35 -5.6 -23.55 -6.1 Q-23.9 -5.6 -23.8 -5.0 L-25.65 -2.55 -26.25 -3.5 M-17.75 -11.3 L-18.25 -11.25 -19.1 -11.05 Q-16.8 -12.95 -15.5 -13.35 L-14.85 -13.15 -13.7 -12.6 Q-15.1 -12.55 -17.75 -11.3 M-21.5 -8.9 L-21.4 -8.95 -21.25 -8.85 -21.35 -8.95 -21.5 -8.85 -21.5 -8.9" fill="#276b16" fill-rule="evenodd" stroke="none"/>
    <path d="M-22.65 -12.25 L-22.5 -12.25 -22.6 -12.15 -22.65 -12.25 M-22.1 -10.65 L-22.15 -10.3 -22.0 -9.95 -22.2 -10.35 -22.4 -10.75 -22.1 -10.65" fill="url(#gradient38)" fill-rule="evenodd" stroke="none"/>
    <path d="M-21.5 -8.9 L-22.0 -8.8 -21.35 -9.15 -21.4 -8.95 -21.5 -8.9" fill="url(#gradient39)" fill-rule="evenodd" stroke="none"/>
    <path d="M-21.8 -12.2 L-21.85 -12.25 Q-21.75 -12.3 -21.75 -12.3 L-21.8 -12.2" fill="url(#gradient40)" fill-rule="evenodd" stroke="none"/>
    <path d="M-21.25 -8.85 L-21.15 -8.85 -20.1 -8.7 Q-20.3 -8.75 -20.3 -8.6 L-20.85 -8.8 -21.5 -8.85 -21.35 -8.95 -21.25 -8.85" fill="url(#gradient41)" fill-rule="evenodd" stroke="none"/>
    <path d="M-21.45 -11.4 L-21.85 -10.75 -22.0 -10.95 -21.65 -11.55 -21.55 -11.6 -21.45 -11.4 M-22.1 -10.65 L-21.9 -10.5 -22.05 -10.25 -22.15 -10.3 -22.1 -10.65" fill="url(#gradient42)" fill-rule="evenodd" stroke="none"/>
    <path d="M-29.4 -11.65 L-29.95 -11.45 -29.25 -12.45 Q-27.55 -15.15 -25.15 -14.35 L-22.8 -13.4 Q-22.85 -14.45 -21.95 -16.2 L-20.7 -17.55 Q-19.05 -19.15 -15.5 -18.45 L-14.1 -18.05 Q-15.5 -17.85 -18.5 -15.85 L-17.4 -15.7 Q-15.2 -14.9 -14.45 -14.5 -18.15 -14.9 -20.4 -12.9 L-20.6 -12.55 Q-19.2 -14.1 -16.5 -13.75 L-15.35 -13.4 -15.5 -13.35 Q-16.8 -12.95 -19.1 -11.05 L-18.25 -11.25 -17.75 -11.3 Q-15.45 -11.6 -13.85 -9.2 L-13.1 -8.2 -15.05 -8.85 Q-14.4 -8.1 -14.05 -7.0 -13.65 -6.45 -13.65 -5.9 L-15.6 -7.1 Q-14.15 -5.4 -14.35 -4.35 L-14.3 -3.6 Q-14.75 -4.45 -17.0 -5.7 L-18.8 -6.7 Q-18.2 -6.2 -17.9 -5.4 -17.1 -3.35 -17.55 -2.5 L-17.85 -2.05 Q-17.8 -2.7 -19.1 -4.4 L-20.5 -5.9 -21.05 -6.5 -21.85 -4.4 -22.0 -4.05 Q-23.0 -1.65 -22.75 -0.8 L-23.2 -1.25 Q-24.05 -2.1 -23.9 -4.8 L-23.8 -5.0 Q-23.9 -5.6 -23.55 -6.1 L-24.35 -5.6 -26.25 -3.5 -26.5 -3.05 -26.7 -3.65 Q-26.9 -4.4 -26.25 -5.55 L-25.45 -7.15 -25.15 -7.6 Q-27.25 -6.65 -27.75 -5.85 L-27.75 -6.5 Q-27.8 -7.35 -27.0 -8.15 L-26.8 -8.4 -26.65 -8.5 -26.6 -8.6 -25.8 -9.5 -25.2 -9.9 -25.55 -9.85 Q-27.95 -9.5 -28.65 -8.85 L-28.7 -8.75 -28.55 -9.45 -28.6 -9.5 -28.75 -9.35 -28.8 -9.3 -30.1 -7.8 -29.95 -8.45 -29.1 -10.55 Q-28.65 -11.55 -28.0 -11.95 L-29.4 -11.65 M-22.65 -12.25 L-22.6 -12.15 -22.5 -12.25 -22.65 -12.25 M-21.8 -12.2 L-21.75 -12.3 Q-21.75 -12.3 -21.85 -12.25 L-21.8 -12.2 M-21.45 -11.4 L-21.55 -11.6 -21.65 -11.55 -22.0 -10.95 -21.85 -10.75 -21.45 -11.4 M-22.15 -10.3 L-22.05 -10.25 -21.9 -10.5 -22.1 -10.65 -22.4 -10.75 -22.2 -10.35 -22.0 -9.95 -22.15 -10.3 M-21.4 -8.95 L-21.35 -9.15 -22.0 -8.8 -21.5 -8.9 -21.5 -8.85 -20.85 -8.8 -20.3 -8.6 Q-20.3 -8.75 -20.1 -8.7 L-21.15 -8.85 -21.25 -8.85 -21.4 -8.95 M-19.8 -8.7 L-19.8 -8.6 -19.6 -8.6 -19.8 -8.7" fill="url(#gradient43)" fill-rule="evenodd" stroke="none"/>
    <path d="M-21.85 -4.4 L-21.05 -6.5 -20.5 -5.9 -19.5 -3.8 Q-18.65 -1.9 -18.05 -1.5 L-19.55 -1.35 Q-20.4 -1.6 -21.4 -3.15 L-21.85 -4.4" fill="url(#gradient44)" fill-rule="evenodd" stroke="none"/>
    <path d="M10.2 -27.25 Q10.25 -26.35 9.45 -26.05 8.75 -25.85 8.2 -26.25 L7.95 -26.6 Q7.75 -27.05 7.95 -27.45 8.3 -28.05 9.0 -28.15 10.05 -28.15 10.2 -27.25" fill="#bd7c2d" fill-rule="evenodd" stroke="none"/>
    <path d="M25.6 -3.0 L25.4 -2.75 25.25 -2.65 24.75 -2.65 Q24.6 -2.65 24.5 -2.8 L24.4 -2.9 24.35 -3.1 24.35 -3.35 24.5 -3.7 24.6 -3.8 24.75 -3.85 24.95 -3.85 24.95 -3.95 25.25 -3.8 25.4 -3.7 25.55 -3.65 25.55 -3.5 25.6 -3.3 25.6 -3.0" fill="#bd7c2d" fill-rule="evenodd" stroke="none"/>
    <path d="M17.6 27.9 Q17.05 29.2 16.25 28.1 15.8 27.4 16.1 26.6 L16.25 26.55 16.4 26.5 16.75 26.4 Q18.1 26.6 17.6 27.9" fill="#bd7c2d" fill-rule="evenodd" stroke="none"/>
    <path d="M27.05 19.8 L27.35 19.85 27.5 20.0 27.6 20.1 27.75 20.3 27.75 20.7 27.7 21.2 27.55 21.55 27.25 21.75 26.15 21.8 26.0 21.7 25.8 21.2 Q25.75 20.7 26.1 20.3 26.45 19.85 26.9 19.8 L27.05 19.8" fill="#aa6d22" fill-rule="evenodd" stroke="none"/>
    <path d="M6.6 23.4 Q6.65 24.2 5.9 24.45 L4.65 24.4 4.35 23.9 Q4.3 23.4 4.55 23.1 5.0 22.65 5.45 22.6 6.45 22.6 6.6 23.4" fill="#aa6d22" fill-rule="evenodd" stroke="none"/>
    <path d="M37.3 10.7 Q37.6 10.95 37.5 11.25 L37.3 11.75 37.1 11.8 36.6 11.8 36.25 11.65 36.05 11.4 36.2 10.75 36.8 10.4 Q37.1 10.4 37.3 10.7" fill="#aa6d22" fill-rule="evenodd" stroke="none"/>
    <path d="M-26.35 -27.45 Q-27.9 -26.0 -28.2 -27.85 -28.3 -29.05 -27.0 -29.25 -24.85 -29.0 -26.35 -27.45" fill="#aa6d22" fill-rule="evenodd" stroke="none"/>
    <path d="M-10.05 23.75 L-9.75 23.8 -9.6 23.95 -9.5 24.05 -9.35 24.25 -9.35 24.65 -9.4 25.15 -9.55 25.5 -9.85 25.7 -10.95 25.75 -11.1 25.65 -11.3 25.15 Q-11.35 24.65 -11.0 24.25 L-10.2 23.75 -10.05 23.75" fill="#aa6d22" fill-rule="evenodd" stroke="none"/>
    <path d="M21.3 -23.0 L21.6 -22.95 21.75 -22.8 21.85 -22.7 22.0 -22.5 22.0 -22.1 21.95 -21.6 21.8 -21.25 21.5 -21.05 20.4 -21.0 20.25 -21.1 20.05 -21.6 Q20.0 -22.1 20.35 -22.5 20.7 -22.95 21.15 -23.0 L21.3 -23.0" fill="#aa6d22" fill-rule="evenodd" stroke="none"/>
    <path d="M-25.65 -30.0 L-25.55 -29.95 -25.45 -29.9 -25.4 -29.85 -25.3 -29.75 -25.3 -29.55 -25.35 -29.3 -25.4 -29.15 -25.55 -29.0 -26.1 -29.0 -26.2 -29.05 -26.3 -29.3 -26.15 -29.75 -25.75 -30.0 -25.65 -30.0" fill="#aa6d22" fill-rule="evenodd" stroke="none"/>
    <path d="M-23.5 22.25 L-23.3 22.1 -23.15 22.0 Q-22.9 21.95 -21.05 23.4 -22.6 20.9 -21.6 21.6 L-15.35 25.15 -12.3 26.4 -10.7 26.85 -9.3 27.4 -7.0 29.05 -6.2 29.5 Q-5.4 29.8 -4.7 30.25 -4.4 30.45 -4.25 30.8 -3.85 31.45 -4.85 31.3 L-5.75 31.55 -5.8 31.6 -5.4 31.95 -5.35 32.05 -5.35 32.2 -5.3 32.25 -5.35 32.3 -5.4 32.3 -5.5 32.5 -5.7 32.6 -5.95 32.65 -6.25 32.7 -6.65 32.65 -6.9 32.55 -7.15 32.55 -7.25 32.7 -7.2 32.8 -7.2 32.85 -7.25 32.9 -7.2 33.05 -7.15 33.2 -7.05 33.35 -7.05 33.4 -7.0 33.5 -7.15 33.7 -7.3 33.75 -7.3 33.8 -7.35 33.75 -7.45 33.8 -7.45 33.75 -8.15 33.35 -8.9 33.05 -9.15 33.15 -9.15 33.25 -9.2 33.45 -9.05 33.7 -8.95 34.0 -8.85 34.2 -8.9 34.5 -8.9 34.55 -9.0 34.7 -9.05 34.7 -9.15 34.75 -9.15 34.8 -9.55 34.5 Q-9.85 34.25 -10.25 34.2 L-10.45 34.35 -10.7 34.45 -10.75 34.55 -10.8 34.75 -10.8 35.1 -10.4 35.95 -10.1 36.4 -9.85 36.9 -9.45 37.7 -9.9 38.1 Q-10.4 38.2 -10.75 37.7 -11.25 36.95 -12.0 36.55 L-12.25 36.6 Q-12.85 37.1 -12.2 37.9 -11.3 38.95 -11.05 40.2 L-11.0 40.4 Q-12.25 40.75 -13.15 39.7 L-15.75 37.3 -17.45 35.25 -18.2 34.05 Q-18.9 33.15 -19.85 32.5 L-20.9 31.15 Q-21.8 29.1 -23.75 27.85 -24.95 27.15 -24.25 26.25 -23.75 25.7 -23.0 25.6 L-22.8 25.55 -22.95 25.35 -23.85 24.65 -24.0 24.25 -23.85 23.9 -23.75 23.8 -23.6 23.65 -23.45 23.55 -23.45 23.5 -23.15 23.6 -22.5 23.7 Q-22.1 23.7 -22.85 23.15 L-23.6 22.5 -23.5 22.25" fill="#043658" fill-opacity="0.2901961" fill-rule="evenodd" stroke="none"/>
    <path d="M-22.65 28.2 L-22.75 27.6 -7.55 16.3 -6.65 17.2 Q-3.1 20.5 0.1 24.1 L-15.9 36.85 -22.65 28.2" fill="#80431d" fill-rule="evenodd" stroke="none"/>
    <path d="M-4.55 18.85 L-3.3 20.3 -2.85 20.8 Q-1.65 22.25 -0.7 23.8 L-16.2 36.1 -23.05 27.5 -7.65 15.4 -4.55 18.85" fill="#aa6235" fill-rule="evenodd" stroke="none"/>
    <path d="M-8.7 16.75 L-8.45 16.5 Q-5.1 20.9 -1.35 25.0 L-1.6 25.25 -8.7 16.75" fill="#743d1a" fill-rule="evenodd" stroke="none"/>
    <path d="M-11.1 18.55 L-10.85 18.3 -3.75 26.8 -4.0 27.05 -11.1 18.55" fill="#56270a" fill-rule="evenodd" stroke="none"/>
    <path d="M-14.55 20.9 L-14.3 20.65 -7.2 29.15 -7.45 29.4 -14.55 20.9" fill="#56270a" fill-rule="evenodd" stroke="none"/>
    <path d="M-18.0 23.6 L-17.75 23.4 Q-13.6 27.6 -10.85 32.1 L-18.0 23.6" fill="#56270a" fill-rule="evenodd" stroke="none"/>
    <path d="M-10.7 18.2 L-10.65 18.15 -10.6 18.2 -10.45 18.2 Q-9.05 19.4 -7.95 20.9 L-6.45 22.6 -5.1 23.9 -4.15 24.7 -3.85 25.35 -3.8 25.55 -4.35 24.85 Q-5.0 24.05 -6.15 23.3 -7.4 22.55 -8.4 20.85 L-9.1 20.0 -10.7 18.2" fill="#7e411c" fill-rule="evenodd" stroke="none"/>
    <path d="M-9.1 24.5 Q-8.0 25.5 -7.15 26.8 L-6.65 27.35 Q-6.0 27.9 -6.0 28.5 -6.6 28.35 -6.95 27.65 L-7.25 27.05 -9.1 24.8 -11.25 22.35 Q-10.1 23.35 -9.1 24.5" fill="#56270a" fill-rule="evenodd" stroke="none"/>
    <path d="M-10.1 21.95 L-8.05 24.3 -6.7 26.2 -8.9 23.75 -11.0 21.35 -12.15 19.45 -12.1 19.5 -10.1 21.95" fill="#7e411c" fill-rule="evenodd" stroke="none"/>
    <path d="M-12.65 26.45 L-10.55 28.8 -9.05 30.8 -11.35 28.5 -13.5 26.15 -14.9 24.05 -14.85 24.1 -12.65 26.45" fill="#7e411c" fill-rule="evenodd" stroke="none"/>
    <path d="M-15.65 21.6 L-15.5 21.7 -15.4 21.7 -13.65 23.85 -11.75 26.0 -10.5 27.55 Q-11.5 26.9 -12.5 25.85 L-14.4 23.7 -15.7 21.85 -15.7 21.7 -15.65 21.6" fill="#91532d" fill-rule="evenodd" stroke="none"/>
    <path d="M-13.65 34.3 Q-17.7 29.9 -20.75 25.8 L-20.5 25.55 -13.4 34.05 -13.65 34.3" fill="#56270a" fill-rule="evenodd" stroke="none"/>
    <path d="M-19.15 24.4 L-19.1 24.4 Q-18.2 25.5 -17.0 26.15 -15.65 27.1 -14.75 28.4 L-13.3 30.7 Q-14.35 30.2 -15.05 28.9 -16.15 27.1 -17.8 26.05 -18.9 25.4 -19.15 24.4" fill="#7e411c" fill-rule="evenodd" stroke="none"/>
    <path d="M-9.1 17.95 L-9.05 17.9 -9.0 17.95 -8.85 17.95 Q-7.45 19.15 -6.35 20.65 L-4.85 22.35 -3.5 23.65 -2.55 24.45 -2.25 25.1 -2.2 25.3 -2.75 24.6 -4.55 23.05 Q-5.8 22.3 -6.8 20.6 L-7.5 19.75 -9.1 17.95" fill="#7e411c" fill-rule="evenodd" stroke="none"/>
    <path d="M-17.3 27.85 Q-16.9 27.65 -16.6 28.0 L-15.25 29.25 Q-14.65 30.05 -14.45 30.8 -14.15 31.6 -14.75 32.1 L-16.5 30.4 Q-17.35 29.4 -17.45 28.15 L-17.3 27.85 M-17.2 28.05 L-17.25 28.1 -17.35 28.25 -16.45 29.9 -15.4 31.1 -14.7 31.7 Q-14.65 31.45 -14.75 31.15 -14.7 30.95 -14.8 30.8 L-14.9 30.45 -14.9 30.35 -15.9 29.1 -17.05 28.0 -17.2 28.05" fill="#7e411c" fill-rule="evenodd" stroke="none"/>
    <path d="M-22.2 27.9 Q-20.6 28.7 -19.35 30.05 -18.5 31.05 -18.1 32.4 L-17.8 32.85 -15.3 35.5 -15.35 35.6 -15.4 35.6 -15.4 35.65 -15.5 35.65 -17.3 33.9 -18.05 33.0 -18.9 31.2 Q-19.05 30.75 -19.35 30.45 -20.4 29.05 -22.0 28.3 L-22.25 28.2 Q-22.45 27.9 -22.2 27.9" fill="#7e411c" fill-rule="evenodd" stroke="none"/>
    <path d="M3.7 -22.4 Q3.0 -18.65 0.25 -16.15 -2.6 -13.5 -6.1 -12.0 -9.45 -10.55 -12.85 -11.2 L-13.2 -11.45 Q-13.45 -12.0 -13.0 -12.35 -11.75 -13.55 -10.25 -14.4 -6.35 -16.65 -3.15 -19.7 L-0.15 -22.3 Q1.65 -24.25 3.35 -23.25 3.8 -22.9 3.7 -22.4" fill="#5b1d0e" fill-opacity="0.4" fill-rule="evenodd" stroke="none"/>
    <path d="M-4.95 -28.85 L-1.95 -24.65 6.75 -32.2 Q5.65 -33.4 4.7 -34.75 -0.2 -31.75 -4.95 -28.85" fill="#5b1d0e" fill-opacity="0.4" fill-rule="evenodd" stroke="none"/>
    <path d="M-5.2 -30.1 L-2.2 -25.9 7.25 -32.65 4.45 -36.0 -5.2 -30.1" fill="#6a4416" fill-rule="evenodd" stroke="none"/>
    <path d="M-5.85 -30.45 L-2.85 -26.25 6.6 -33.0 3.8 -36.35 -5.85 -30.45" fill="url(#gradient45)" fill-rule="evenodd" stroke="none"/>
    <path d="M-12.1 -12.85 L-13.7 -15.1 1.6 -26.0 3.2 -23.75 Q-3.4 -17.25 -12.1 -12.85" fill="#481700" fill-rule="evenodd" stroke="none"/>
    <path d="M-15.3 -21.7 L-12.3 -17.5 -22.25 -11.7 -24.0 -14.45 -15.3 -21.7" fill="#5b1d0e" fill-opacity="0.4" fill-rule="evenodd" stroke="none"/>
    <path d="M-16.8 -21.65 L-13.8 -17.45 -23.25 -10.7 -25.5 -14.4 -16.8 -21.65" fill="#6a4416" fill-rule="evenodd" stroke="none"/>
    <path d="M-17.1 -21.9 L-14.1 -17.7 -23.55 -10.95 -25.8 -14.65 -17.1 -21.9" fill="url(#gradient46)" fill-rule="evenodd" stroke="none"/>
    <path d="M-15.75 -30.0 L-16.25 -29.4 -18.2 -27.5 -19.15 -26.35 -15.75 -30.0" fill="#2e787b" fill-rule="evenodd" stroke="none"/>
    <path d="M-3.35 -23.95 L-2.9 -23.85 -2.45 -23.75 -2.05 -23.55 -2.1 -23.5 -2.2 -23.35 -2.3 -23.25 -3.05 -23.4 Q-3.4 -23.5 -3.65 -23.7 -3.95 -23.85 -3.75 -24.15 -3.65 -24.2 -3.65 -24.2 L-3.55 -24.1 -3.4 -24.05 -3.35 -23.95 M-4.85 -23.2 Q-4.8 -22.6 -5.4 -21.45 L-5.5 -21.55 -5.6 -21.75 -5.55 -21.8 -5.55 -21.9 -5.3 -22.15 -5.15 -22.25 -5.6 -22.55 -5.35 -23.15 -4.85 -23.2 M-7.55 -22.0 L-7.65 -22.15 -7.6 -22.2 -7.5 -22.35 -7.2 -22.3 -7.25 -22.1 -7.55 -22.0 M-6.5 -18.85 L-6.2 -18.95 -5.7 -18.9 Q-5.8 -18.6 -6.3 -18.4 L-6.7 -18.35 Q-7.05 -18.25 -7.0 -18.6 L-6.95 -18.65 -6.5 -18.85" fill="#1a5f62" fill-rule="evenodd" stroke="none"/>
    <path d="M-11.2 -13.15 L-11.6 -12.65 -12.45 -13.65 -13.25 -15.2 -13.95 -16.3 -13.9 -16.4 -13.85 -16.6 Q-13.65 -16.7 -13.75 -16.8 L-14.55 -17.85 -15.45 -19.1 -16.15 -20.2 -16.15 -20.3 Q-16.05 -20.35 -16.05 -20.35 L-16.0 -20.55 -15.85 -20.65 -15.75 -20.6 -14.2 -18.85 -12.65 -16.9 Q-12.0 -16.1 -10.9 -16.2 L-11.05 -16.55 -11.15 -17.1 -11.3 -17.65 Q-11.15 -18.0 -10.8 -17.85 L-10.2 -17.65 -10.1 -17.45 -9.7 -17.4 -9.3 -17.2 Q-9.35 -17.0 -9.1 -17.1 L-9.1 -17.45 Q-9.35 -17.85 -9.1 -18.15 L-8.9 -18.45 -9.2 -19.2 Q-9.35 -19.75 -9.15 -20.3 L-8.65 -20.5 -8.45 -20.3 -8.15 -19.95 -7.8 -19.6 -7.7 -19.5 -7.15 -19.55 -6.3 -19.45 -6.15 -19.45 -5.55 -20.3 Q-3.45 -21.75 -3.0 -21.7 L-0.4 -21.85 0.2 -22.0 2.45 -23.2 1.1 -22.25 Q-4.7 -19.4 -10.65 -13.95 L-11.15 -13.35 -11.2 -13.15 M-6.5 -18.85 L-6.95 -18.65 -7.0 -18.6 Q-7.05 -18.25 -6.7 -18.35 L-6.3 -18.4 Q-5.8 -18.6 -5.7 -18.9 L-6.2 -18.95 -6.5 -18.85" fill="#872f06" fill-rule="evenodd" stroke="none"/>
    <path d="M-20.1 -25.1 L-19.8 -24.7 -19.05 -23.9 -18.45 -23.3 -18.5 -23.1 -18.45 -23.05 -18.5 -22.9 -18.5 -22.3 -18.55 -21.7 -18.25 -21.2 -18.25 -21.15 Q-18.2 -21.05 -18.15 -21.1 L-18.1 -21.05 -17.95 -21.15 -17.2 -24.9 Q-17.1 -25.15 -17.75 -26.55 -16.35 -25.95 -14.65 -25.65 -15.4 -27.4 -15.15 -28.15 -15.0 -29.05 -14.2 -29.4 -12.0 -30.5 -12.0 -32.45 L-12.15 -32.55 Q-9.1 -34.35 -5.4 -35.1 L3.25 -22.95 1.1 -22.25 2.45 -23.2 0.2 -22.0 -0.4 -21.85 -3.0 -21.7 Q-3.45 -21.75 -5.55 -20.3 L-6.15 -19.45 -6.3 -19.45 -7.15 -19.55 -7.7 -19.5 -7.8 -19.6 -8.15 -19.95 -8.45 -20.3 -8.65 -20.5 -9.15 -20.3 Q-9.35 -19.75 -9.2 -19.2 L-8.9 -18.45 -9.1 -18.15 Q-9.35 -17.85 -9.1 -17.45 L-9.1 -17.1 Q-9.35 -17.0 -9.3 -17.2 L-9.7 -17.4 -10.1 -17.45 -10.2 -17.65 -10.8 -17.85 Q-11.15 -18.0 -11.3 -17.65 L-11.15 -17.1 -11.05 -16.55 -10.9 -16.2 Q-12.0 -16.1 -12.65 -16.9 L-14.2 -18.85 -15.75 -20.6 -15.85 -20.65 -16.0 -20.55 -16.05 -20.35 Q-16.05 -20.35 -16.15 -20.3 L-16.15 -20.2 -15.45 -19.1 -14.55 -17.85 -13.75 -16.8 Q-13.65 -16.7 -13.85 -16.6 L-13.9 -16.4 -13.95 -16.3 -13.25 -15.2 -12.45 -13.65 -11.6 -12.65 -11.2 -13.15 -12.05 -12.05 -20.7 -24.2 -20.1 -25.1 M-7.75 -24.4 L-7.75 -24.3 -7.7 -24.25 -7.6 -24.0 -7.55 -23.7 -7.45 -23.55 -7.35 -23.45 Q-6.9 -23.5 -6.75 -23.95 L-6.75 -24.75 -6.95 -25.2 -7.15 -25.15 -7.3 -25.1 -7.45 -25.0 -7.55 -24.9 -7.8 -24.6 -7.75 -24.4 M-7.55 -22.0 L-7.25 -22.1 -7.2 -22.3 -7.5 -22.35 -7.6 -22.2 -7.65 -22.15 -7.55 -22.0 M-4.85 -23.2 L-5.35 -23.15 -5.6 -22.55 -5.15 -22.25 -5.3 -22.15 -5.55 -21.9 -5.55 -21.8 -5.6 -21.75 -5.5 -21.55 -5.4 -21.45 Q-4.8 -22.6 -4.85 -23.2 M-3.35 -23.95 L-3.4 -24.05 -3.55 -24.1 -3.65 -24.2 Q-3.65 -24.2 -3.75 -24.15 -3.95 -23.85 -3.65 -23.7 -3.4 -23.5 -3.05 -23.4 L-2.3 -23.25 -2.2 -23.35 -2.1 -23.5 -2.05 -23.55 -2.45 -23.75 -2.9 -23.85 -3.35 -23.95" fill="#4d8c8e" fill-rule="evenodd" stroke="none"/>
    <path d="M-19.15 -26.35 L-18.2 -27.5 -16.25 -29.4 -15.75 -30.0 Q-14.15 -31.45 -12.15 -32.55 L-12.0 -32.45 Q-12.0 -30.5 -14.2 -29.4 -15.0 -29.05 -15.15 -28.15 -15.4 -27.4 -14.65 -25.65 -16.35 -25.95 -17.75 -26.55 -17.1 -25.15 -17.2 -24.9 L-17.95 -21.15 -18.1 -21.05 -18.15 -21.1 Q-18.2 -21.05 -18.25 -21.15 L-18.25 -21.2 -18.55 -21.7 -18.5 -22.3 -18.5 -22.9 -18.45 -23.05 -18.5 -23.1 -18.45 -23.3 -19.05 -23.9 -19.8 -24.7 -20.1 -25.1 -19.15 -26.35 M-7.75 -24.4 L-7.8 -24.6 -7.55 -24.9 -7.45 -25.0 -7.3 -25.1 -7.15 -25.15 -6.95 -25.2 -6.75 -24.75 -6.75 -23.95 Q-6.9 -23.5 -7.35 -23.45 L-7.45 -23.55 -7.55 -23.7 -7.6 -24.0 -7.7 -24.25 -7.75 -24.3 -7.75 -24.4" fill="#2e696b" fill-rule="evenodd" stroke="none"/>
    <path d="M-6.6 -30.45 Q-7.95 -31.35 -8.4 -33.0 -8.55 -33.8 -8.15 -34.35 L-7.75 -34.65 -7.5 -34.7 -7.4 -34.7 Q-5.75 -33.25 -4.3 -31.4 L-1.25 -27.25 Q0.1 -25.4 0.85 -23.6 -0.2 -23.3 -0.95 -24.5 L-2.1 -26.25 Q-3.7 -28.6 -5.9 -29.95 L-6.6 -30.45 M-7.35 -33.5 Q-7.3 -33.4 -7.4 -33.35 L-7.2 -33.3 -7.2 -33.5 -7.3 -33.65 -7.4 -33.65 -7.35 -33.5 M-5.65 -31.2 L-5.45 -31.25 -5.45 -31.35 -5.5 -31.4 -5.6 -31.45 -5.65 -31.2" fill="#1a5f62" fill-rule="evenodd" stroke="none"/>
    <path d="M-20.25 -26.25 L-19.7 -26.25 -9.75 -12.35 -12.95 -10.05 -22.9 -23.95 Q-23.45 -24.65 -22.25 -24.8 L-20.25 -26.25" fill="#9a6321" fill-rule="evenodd" stroke="none"/>
    <path d="M-5.05 -36.8 L4.9 -22.9 1.7 -20.6 -8.25 -34.5 Q-7.35 -36.25 -5.05 -36.8" fill="#9a6321" fill-rule="evenodd" stroke="none"/>
    <path d="M-4.7 -36.25 Q-2.6 -34.1 -1.0 -31.5 L1.55 -27.7 4.95 -23.15 4.95 -23.0 4.65 -22.9 3.65 -23.95 Q2.65 -25.05 1.3 -27.2 L-1.85 -31.45 Q-3.75 -33.7 -4.7 -36.25" fill="#c29b6e" fill-rule="evenodd" stroke="none"/>
    <path d="M-20.0 -25.45 Q-17.9 -23.3 -16.3 -20.7 L-13.75 -16.9 -10.35 -12.35 -10.35 -12.2 -10.65 -12.1 -11.65 -13.15 -14.0 -16.4 -17.15 -20.65 Q-19.05 -22.9 -20.0 -25.45" fill="#c29b6e" fill-rule="evenodd" stroke="none"/>
    <path d="M-12.6 -10.35 L-13.15 -10.45 -9.9 -12.8 -9.6 -12.35 -12.6 -10.35" fill="#6a4416" fill-rule="evenodd" stroke="none"/>
    <path d="M5.6 -22.5 L5.7 -23.1 2.4 -20.75 2.7 -20.3 5.6 -22.5" fill="#6a4416" fill-rule="evenodd" stroke="none"/>
    <path d="M14.4 19.5 L14.85 20.15 14.85 20.65 13.7 20.7 Q13.2 20.4 13.35 19.85 L13.75 19.45 14.4 19.5" fill="#3c3c3c" fill-rule="evenodd" stroke="none"/>
    <path d="M1.65 34.9 Q1.2 36.7 -0.45 38.2 L-2.2 39.75 Q-3.3 40.65 -3.9 39.65 -4.35 39.05 -4.1 38.3 L-4.05 37.8 Q-5.4 38.45 -6.95 38.25 -7.3 38.2 -5.95 36.9 -7.4 37.55 -7.45 37.2 -7.45 36.25 -7.1 35.4 -8.65 35.75 -9.9 34.95 L-10.1 34.65 Q-10.2 34.1 -9.9 33.7 L-8.5 31.45 -8.15 30.95 -8.0 30.95 -7.9 31.0 -7.85 31.05 -7.75 31.05 -7.55 30.8 -7.1 30.3 -6.85 30.15 -6.45 30.05 -5.95 30.1 -5.4 30.3 -5.1 30.75 Q-5.05 30.95 -4.7 30.95 -3.9 30.95 -3.3 31.4 L-3.15 31.7 Q-1.7 31.45 -0.9 32.35 L-0.7 32.95 Q-0.6 34.45 1.35 34.45 1.8 34.5 1.65 34.9" fill="#043658" fill-opacity="0.2901961" fill-rule="evenodd" stroke="none"/>
    <path d="M-2.5 38.65 Q-6.25 36.15 -7.3 33.8 -8.25 31.9 -7.5 30.25 -6.2 30.2 -4.5 30.9 -1.3 32.6 0.25 36.25 -1.0 37.8 -2.5 38.65" fill="#aa6235" fill-rule="evenodd" stroke="none"/>
    <path d="M-2.45 38.05 Q-5.6 35.8 -6.6 33.8 -7.5 32.2 -6.95 30.9 -5.95 30.95 -4.5 31.6 -1.85 33.2 -0.4 36.3 -1.3 37.45 -2.45 38.05" fill="#80431d" fill-rule="evenodd" stroke="none"/>
    <path d="M-3.15 32.6 L-2.05 33.75 -4.6 36.3 -5.7 35.15 -3.15 32.6" fill="#4d2309" fill-rule="evenodd" stroke="none"/>
    <path d="M-3.45 32.3 L-2.35 33.45 -4.9 36.0 -6.0 34.85 -3.45 32.3" fill="#aa6235" fill-rule="evenodd" stroke="none"/>
  </g>
  <defs>
    <linearGradient gradientTransform="matrix(0.0037, -6.0E-4, -6.0E-4, -0.0016, 14.2, 29.3)" gradientUnits="userSpaceOnUse" id="gradient0" spreadMethod="pad" x1="-819.2" x2="819.2">
      <stop offset="0.0" stop-color="#358023"/>
      <stop offset="0.9450980392156862" stop-color="#95bd53"/>
    </linearGradient>
    <linearGradient gradientTransform="matrix(0.0016, 0.0019, 0.001, -0.0024, 15.1, 30.15)" gradientUnits="userSpaceOnUse" id="gradient1" spreadMethod="pad" x1="-819.2" x2="819.2">
      <stop offset="0.0" stop-color="#358023"/>
      <stop offset="0.9450980392156862" stop-color="#95bd53"/>
    </linearGradient>
    <linearGradient gradientTransform="matrix(-0.0017, 0.0021, -6.0E-4, -0.0014, 9.8, 30.45)" gradientUnits="userSpaceOnUse" id="gradient2" spreadMethod="pad" x1="-819.2" x2="819.2">
      <stop offset="0.0" stop-color="#358023"/>
      <stop offset="0.9450980392156862" stop-color="#95bd53"/>
    </linearGradient>
    <linearGradient gradientTransform="matrix(0.0038, -4.0E-4, -4.0E-4, 0.0016, 13.0, 29.5)" gradientUnits="userSpaceOnUse" id="gradient3" spreadMethod="pad" x1="-819.2" x2="819.2">
      <stop offset="0.0" stop-color="#358023"/>
      <stop offset="0.9450980392156862" stop-color="#95bd53"/>
    </linearGradient>
    <linearGradient gradientTransform="matrix(0.002, 0.0036, -0.0014, 0.0, 11.5, 33.5)" gradientUnits="userSpaceOnUse" id="gradient4" spreadMethod="pad" x1="-819.2" x2="819.2">
      <stop offset="0.0" stop-color="#358023"/>
      <stop offset="0.9450980392156862" stop-color="#95bd53"/>
    </linearGradient>
    <linearGradient gradientTransform="matrix(0.0014, 0.0036, 0.001, -0.0013, 12.05, 32.15)" gradientUnits="userSpaceOnUse" id="gradient5" spreadMethod="pad" x1="-819.2" x2="819.2">
      <stop offset="0.0" stop-color="#358023"/>
      <stop offset="0.9450980392156862" stop-color="#95bd53"/>
    </linearGradient>
    <linearGradient gradientTransform="matrix(0.0019, 7.0E-4, -6.0E-4, 0.0014, 13.15, 32.75)" gradientUnits="userSpaceOnUse" id="gradient6" spreadMethod="pad" x1="-819.2" x2="819.2">
      <stop offset="0.0" stop-color="#358023"/>
      <stop offset="0.9450980392156862" stop-color="#95bd53"/>
    </linearGradient>
    <linearGradient gradientTransform="matrix(0.0017, -0.0021, 6.0E-4, 0.0014, 14.8, 30.1)" gradientUnits="userSpaceOnUse" id="gradient7" spreadMethod="pad" x1="-819.2" x2="819.2">
      <stop offset="0.0" stop-color="#358023"/>
      <stop offset="0.9450980392156862" stop-color="#95bd53"/>
    </linearGradient>
    <linearGradient gradientTransform="matrix(2.0E-4, -0.0023, -0.0011, 1.0E-4, -13.2, 15.65)" gradientUnits="userSpaceOnUse" id="gradient8" spreadMethod="pad" x1="-819.2" x2="819.2">
      <stop offset="0.0" stop-color="#358023"/>
      <stop offset="0.9450980392156862" stop-color="#95bd53"/>
    </linearGradient>
    <linearGradient gradientTransform="matrix(0.0014, -7.0E-4, -0.0013, -0.001, -12.65, 15.35)" gradientUnits="userSpaceOnUse" id="gradient9" spreadMethod="pad" x1="-819.2" x2="819.2">
      <stop offset="0.0" stop-color="#358023"/>
      <stop offset="0.9450980392156862" stop-color="#95bd53"/>
    </linearGradient>
    <linearGradient gradientTransform="matrix(0.001, 0.0014, -0.001, 2.0E-4, -13.7, 18.35)" gradientUnits="userSpaceOnUse" id="gradient10" spreadMethod="pad" x1="-819.2" x2="819.2">
      <stop offset="0.0" stop-color="#358023"/>
      <stop offset="0.9450980392156862" stop-color="#95bd53"/>
    </linearGradient>
    <linearGradient gradientTransform="matrix(4.0E-4, -0.0024, 9.0E-4, 5.0E-4, -13.2, 16.3)" gradientUnits="userSpaceOnUse" id="gradient11" spreadMethod="pad" x1="-819.2" x2="819.2">
      <stop offset="0.0" stop-color="#358023"/>
      <stop offset="0.9450980392156862" stop-color="#95bd53"/>
    </linearGradient>
    <linearGradient gradientTransform="matrix(0.0025, -7.0E-4, -3.0E-4, 9.0E-4, -11.1, 17.5)" gradientUnits="userSpaceOnUse" id="gradient12" spreadMethod="pad" x1="-819.2" x2="819.2">
      <stop offset="0.0" stop-color="#358023"/>
      <stop offset="0.9450980392156862" stop-color="#95bd53"/>
    </linearGradient>
    <linearGradient gradientTransform="matrix(0.0024, -3.0E-4, -6.0E-4, -8.0E-4, -11.65, 17.75)" gradientUnits="userSpaceOnUse" id="gradient13" spreadMethod="pad" x1="-819.2" x2="819.2">
      <stop offset="0.0" stop-color="#358023"/>
      <stop offset="0.9450980392156862" stop-color="#95bd53"/>
    </linearGradient>
    <linearGradient gradientTransform="matrix(8.0E-4, -0.0011, 7.0E-4, 6.0E-4, -11.45, 16.9)" gradientUnits="userSpaceOnUse" id="gradient14" spreadMethod="pad" x1="-819.2" x2="819.2">
      <stop offset="0.0" stop-color="#358023"/>
      <stop offset="0.9450980392156862" stop-color="#95bd53"/>
    </linearGradient>
    <linearGradient gradientTransform="matrix(-0.001, -0.0014, 0.001, -2.0E-4, -12.45, 15.25)" gradientUnits="userSpaceOnUse" id="gradient15" spreadMethod="pad" x1="-819.2" x2="819.2">
      <stop offset="0.0" stop-color="#358023"/>
      <stop offset="0.9450980392156862" stop-color="#95bd53"/>
    </linearGradient>
    <linearGradient gradientTransform="matrix(0.0027, -5.0E-4, -4.0E-4, -0.0011, 28.05, -10.3)" gradientUnits="userSpaceOnUse" id="gradient16" spreadMethod="pad" x1="-819.2" x2="819.2">
      <stop offset="0.0" stop-color="#358023"/>
      <stop offset="0.9450980392156862" stop-color="#95bd53"/>
    </linearGradient>
    <linearGradient gradientTransform="matrix(0.0012, 0.0014, 7.0E-4, -0.0017, 28.65, -9.6)" gradientUnits="userSpaceOnUse" id="gradient17" spreadMethod="pad" x1="-819.2" x2="819.2">
      <stop offset="0.0" stop-color="#358023"/>
      <stop offset="0.9450980392156862" stop-color="#95bd53"/>
    </linearGradient>
    <linearGradient gradientTransform="matrix(-0.0012, 0.0015, -4.0E-4, -0.001, 24.85, -9.6)" gradientUnits="userSpaceOnUse" id="gradient18" spreadMethod="pad" x1="-819.2" x2="819.2">
      <stop offset="0.0" stop-color="#358023"/>
      <stop offset="0.9450980392156862" stop-color="#95bd53"/>
    </linearGradient>
    <linearGradient gradientTransform="matrix(0.0027, -3.0E-4, -3.0E-4, 0.0012, 27.25, -10.15)" gradientUnits="userSpaceOnUse" id="gradient19" spreadMethod="pad" x1="-819.2" x2="819.2">
      <stop offset="0.0" stop-color="#358023"/>
      <stop offset="0.9450980392156862" stop-color="#95bd53"/>
    </linearGradient>
    <linearGradient gradientTransform="matrix(0.0015, 0.0026, -0.001, 0.0, 26.15, -7.0)" gradientUnits="userSpaceOnUse" id="gradient20" spreadMethod="pad" x1="-819.2" x2="819.2">
      <stop offset="0.0" stop-color="#358023"/>
      <stop offset="0.9450980392156862" stop-color="#95bd53"/>
    </linearGradient>
    <linearGradient gradientTransform="matrix(0.001, 0.0026, 7.0E-4, -9.0E-4, 26.45, -8.25)" gradientUnits="userSpaceOnUse" id="gradient21" spreadMethod="pad" x1="-819.2" x2="819.2">
      <stop offset="0.0" stop-color="#358023"/>
      <stop offset="0.9450980392156862" stop-color="#95bd53"/>
    </linearGradient>
    <linearGradient gradientTransform="matrix(0.0014, 5.0E-4, -4.0E-4, 0.001, 27.3, -7.9)" gradientUnits="userSpaceOnUse" id="gradient22" spreadMethod="pad" x1="-819.2" x2="819.2">
      <stop offset="0.0" stop-color="#358023"/>
      <stop offset="0.9450980392156862" stop-color="#95bd53"/>
    </linearGradient>
    <linearGradient gradientTransform="matrix(0.0012, -0.0015, 4.0E-4, 0.001, 28.55, -9.6)" gradientUnits="userSpaceOnUse" id="gradient23" spreadMethod="pad" x1="-819.2" x2="819.2">
      <stop offset="0.0" stop-color="#358023"/>
      <stop offset="0.9450980392156862" stop-color="#95bd53"/>
    </linearGradient>
    <linearGradient gradientTransform="matrix(-0.0054, 0.0055, -0.0014, -0.0026, -26.95, 3.7)" gradientUnits="userSpaceOnUse" id="gradient24" spreadMethod="pad" x1="-819.2" x2="819.2">
      <stop offset="0.0" stop-color="#358023"/>
      <stop offset="0.9450980392156862" stop-color="#95bd53"/>
    </linearGradient>
    <linearGradient gradientTransform="matrix(-0.0019, 0.0075, -0.0025, -0.0015, -18.75, 5.4)" gradientUnits="userSpaceOnUse" id="gradient25" spreadMethod="pad" x1="-819.2" x2="819.2">
      <stop offset="0.0" stop-color="#358023"/>
      <stop offset="0.9450980392156862" stop-color="#95bd53"/>
    </linearGradient>
    <linearGradient gradientTransform="matrix(-0.0054, 0.0055, -0.002, -0.002, -27.25, 1.9)" gradientUnits="userSpaceOnUse" id="gradient26" spreadMethod="pad" x1="-819.2" x2="819.2">
      <stop offset="0.0" stop-color="#358023"/>
      <stop offset="0.9450980392156862" stop-color="#95bd53"/>
    </linearGradient>
    <linearGradient gradientTransform="matrix(-0.0013, 0.0079, -0.0025, -0.0015, -18.15, 0.0)" gradientUnits="userSpaceOnUse" id="gradient27" spreadMethod="pad" x1="-819.2" x2="819.2">
      <stop offset="0.0" stop-color="#358023"/>
      <stop offset="0.9450980392156862" stop-color="#95bd53"/>
    </linearGradient>
    <linearGradient gradientTransform="matrix(0.0043, 0.0024, -0.0013, 0.0023, -13.0, -4.2)" gradientUnits="userSpaceOnUse" id="gradient28" spreadMethod="pad" x1="-819.2" x2="819.2">
      <stop offset="0.0" stop-color="#358023"/>
      <stop offset="0.9450980392156862" stop-color="#95bd53"/>
    </linearGradient>
    <linearGradient gradientTransform="matrix(0.0033, 0.0018, -0.0012, 0.0022, -13.4, 2.8)" gradientUnits="userSpaceOnUse" id="gradient29" spreadMethod="pad" x1="-819.2" x2="819.2">
      <stop offset="0.0" stop-color="#358023"/>
      <stop offset="0.9450980392156862" stop-color="#95bd53"/>
    </linearGradient>
    <linearGradient gradientTransform="matrix(0.0021, 0.0012, -0.0012, 0.0021, -27.95, 3.25)" gradientUnits="userSpaceOnUse" id="gradient30" spreadMethod="pad" x1="-819.2" x2="819.2">
      <stop offset="0.0" stop-color="#358023"/>
      <stop offset="0.9450980392156862" stop-color="#95bd53"/>
    </linearGradient>
    <linearGradient gradientTransform="matrix(0.0, 0.0, 0.0, 0.0, -21.1, 3.05)" gradientUnits="userSpaceOnUse" id="gradient31" spreadMethod="pad" x1="-819.2" x2="819.2">
      <stop offset="0.0" stop-color="#358023"/>
      <stop offset="0.9450980392156862" stop-color="#95bd53"/>
    </linearGradient>
    <linearGradient gradientTransform="matrix(1.0E-4, 1.0E-4, -1.0E-4, 2.0E-4, -29.7, 2.0)" gradientUnits="userSpaceOnUse" id="gradient32" spreadMethod="pad" x1="-819.2" x2="819.2">
      <stop offset="0.0" stop-color="#358023"/>
      <stop offset="0.9450980392156862" stop-color="#95bd53"/>
    </linearGradient>
    <linearGradient gradientTransform="matrix(5.0E-4, 3.0E-4, -0.0013, 0.0023, -28.9, 5.2)" gradientUnits="userSpaceOnUse" id="gradient33" spreadMethod="pad" x1="-819.2" x2="819.2">
      <stop offset="0.0" stop-color="#358023"/>
      <stop offset="0.9450980392156862" stop-color="#95bd53"/>
    </linearGradient>
    <linearGradient gradientTransform="matrix(9.0E-4, 5.0E-4, -0.0015, 0.0027, -30.0, 0.8)" gradientUnits="userSpaceOnUse" id="gradient34" spreadMethod="pad" x1="-819.2" x2="819.2">
      <stop offset="0.0" stop-color="#358023"/>
      <stop offset="0.9450980392156862" stop-color="#95bd53"/>
    </linearGradient>
    <linearGradient gradientTransform="matrix(0.0014, 8.0E-4, -9.0E-4, 0.0016, -27.75, 6.05)" gradientUnits="userSpaceOnUse" id="gradient35" spreadMethod="pad" x1="-819.2" x2="819.2">
      <stop offset="0.0" stop-color="#358023"/>
      <stop offset="0.9450980392156862" stop-color="#95bd53"/>
    </linearGradient>
    <linearGradient gradientTransform="matrix(0.0013, 7.0E-4, -0.0015, 0.0027, -26.75, 9.4)" gradientUnits="userSpaceOnUse" id="gradient36" spreadMethod="pad" x1="-819.2" x2="819.2">
      <stop offset="0.0" stop-color="#358023"/>
      <stop offset="0.9450980392156862" stop-color="#95bd53"/>
    </linearGradient>
    <linearGradient gradientTransform="matrix(0.0143, 0.008, 0.0014, -0.0025, -10.3, 2.45)" gradientUnits="userSpaceOnUse" id="gradient37" spreadMethod="pad" x1="-819.2" x2="819.2">
      <stop offset="0.0" stop-color="#358023"/>
      <stop offset="0.9450980392156862" stop-color="#95bd53"/>
    </linearGradient>
    <linearGradient gradientTransform="matrix(-0.0029, 0.0052, -0.0019, -0.0011, -26.95, -9.9)" gradientUnits="userSpaceOnUse" id="gradient38" spreadMethod="pad" x1="-819.2" x2="819.2">
      <stop offset="0.0" stop-color="#358023"/>
      <stop offset="0.9450980392156862" stop-color="#95bd53"/>
    </linearGradient>
    <linearGradient gradientTransform="matrix(1.0E-4, 0.006, -0.0022, -6.0E-4, -19.95, -9.0)" gradientUnits="userSpaceOnUse" id="gradient39" spreadMethod="pad" x1="-819.2" x2="819.2">
      <stop offset="0.0" stop-color="#358023"/>
      <stop offset="0.9450980392156862" stop-color="#95bd53"/>
    </linearGradient>
    <linearGradient gradientTransform="matrix(6.0E-4, 0.0061, -0.0022, -6.0E-4, -20.5, -13.15)" gradientUnits="userSpaceOnUse" id="gradient40" spreadMethod="pad" x1="-819.2" x2="819.2">
      <stop offset="0.0" stop-color="#358023"/>
      <stop offset="0.9450980392156862" stop-color="#95bd53"/>
    </linearGradient>
    <linearGradient gradientTransform="matrix(-0.0041, 0.0043, -0.0011, -0.002, -22.0, -8.8)" gradientUnits="userSpaceOnUse" id="gradient41" spreadMethod="pad" x1="-819.2" x2="819.2">
      <stop offset="0.0" stop-color="#358023"/>
      <stop offset="0.9450980392156862" stop-color="#95bd53"/>
    </linearGradient>
    <linearGradient gradientTransform="matrix(-0.0029, 0.0052, -0.0016, -0.0016, -26.3, -8.6)" gradientUnits="userSpaceOnUse" id="gradient42" spreadMethod="pad" x1="-819.2" x2="819.2">
      <stop offset="0.0" stop-color="#358023"/>
      <stop offset="0.9450980392156862" stop-color="#95bd53"/>
    </linearGradient>
    <linearGradient gradientTransform="matrix(0.0058, 0.0015, 5.0E-4, -0.0021, -18.25, -13.65)" gradientUnits="userSpaceOnUse" id="gradient43" spreadMethod="pad" x1="-819.2" x2="819.2">
      <stop offset="0.0" stop-color="#358023"/>
      <stop offset="0.9450980392156862" stop-color="#95bd53"/>
    </linearGradient>
    <linearGradient gradientTransform="matrix(0.0046, 0.0012, -0.001, 0.0016, -16.85, -2.65)" gradientUnits="userSpaceOnUse" id="gradient44" spreadMethod="pad" x1="-819.2" x2="819.2">
      <stop offset="0.0" stop-color="#276b16"/>
      <stop offset="0.9450980392156862" stop-color="#95bd53"/>
    </linearGradient>
    <linearGradient gradientTransform="matrix(0.0058, -0.0041, -0.0018, -0.0026, 0.5, -31.7)" gradientUnits="userSpaceOnUse" id="gradient45" spreadMethod="pad" x1="-819.2" x2="819.2">
      <stop offset="0.0" stop-color="#5c3b13"/>
      <stop offset="1.0" stop-color="#9a6321"/>
    </linearGradient>
    <linearGradient gradientTransform="matrix(-0.0058, 0.0041, -0.0018, -0.0026, -20.35, -16.3)" gradientUnits="userSpaceOnUse" id="gradient46" spreadMethod="pad" x1="-819.2" x2="819.2">
      <stop offset="0.0" stop-color="#5c3b13"/>
      <stop offset="1.0" stop-color="#9a6321"/>
    </linearGradient>
  </defs>
</svg>
