<?xml version="1.0" encoding="UTF-8" standalone="no"?>
<svg xmlns:ffdec="https://www.free-decompiler.com/flash" xmlns:xlink="http://www.w3.org/1999/xlink" ffdec:objectType="shape" height="86.3px" width="95.9px" xmlns="http://www.w3.org/2000/svg">
  <g transform="matrix(1.0, 0.0, 0.0, 1.0, 1.5, 1.5)">
    <path d="M69.35 6.1 Q74.15 13.75 79.1 17.95 82.75 21.05 88.45 31.5 91.25 36.75 92.5 40.1 93.75 43.4 91.25 47.4 88.7 51.35 89.1 52.1 L90.4 58.75 Q91.05 62.25 86.35 64.25 83.15 65.6 80.55 65.6 71.7 62.9 69.55 64.25 67.35 65.55 66.0 66.75 64.65 67.85 63.75 67.95 L58.15 66.9 Q56.75 66.9 55.9 69.45 L54.5 75.1 Q52.05 83.3 44.2 83.3 42.2 83.3 38.25 81.95 34.3 80.6 29.25 80.6 26.45 80.6 21.45 81.75 19.05 83.05 13.85 79.0 8.6 74.95 7.3 71.75 L4.4 65.7 Q2.8 62.85 1.2 61.45 -0.4 60.05 0.1 55.6 L1.3 44.1 Q2.0 37.1 3.25 33.4 3.95 31.35 3.75 28.15 L3.4 19.9 Q3.4 16.75 5.8 14.7 8.35 12.5 15.4 10.05 L20.1 5.7 Q24.15 1.95 27.4 1.95 L38.6 3.5 Q42.8 4.0 48.8 2.15 54.75 0.3 59.45 0.0 64.05 -0.3 69.35 6.1 Z" fill="none" stroke="#ffffff" stroke-linecap="round" stroke-linejoin="round" stroke-width="3.0"/>
  </g>
</svg>
