<?xml version="1.0" encoding="UTF-8" standalone="no"?>
<svg xmlns:ffdec="https://www.free-decompiler.com/flash" xmlns:xlink="http://www.w3.org/1999/xlink" ffdec:objectType="shape" height="79.25px" width="89.9px" xmlns="http://www.w3.org/2000/svg">
  <g transform="matrix(1.0, 0.0, 0.0, 1.0, 43.95, 39.0)">
    <path d="M36.15 -16.75 Q41.35 -12.85 41.05 -6.6 41.0 -5.4 42.3 -4.7 48.45 -1.6 44.2 3.9 40.2 9.3 42.95 15.9 43.4 16.95 42.65 18.0 37.85 25.2 28.4 22.5 24.4 21.35 21.05 23.25 20.1 23.8 19.45 24.7 17.2 28.05 13.35 24.95 L11.15 25.05 8.1 35.65 Q6.8 39.8 2.65 40.15 -4.15 40.7 -10.7 38.5 -15.55 36.9 -20.5 38.4 -25.15 39.75 -27.6 36.15 -28.55 34.7 -28.85 33.0 -32.35 32.75 -35.6 31.25 -37.25 30.45 -37.9 28.7 -39.1 25.3 -39.65 21.7 -40.2 18.45 -42.05 15.6 -44.2 12.3 -43.9 8.0 -43.2 -0.6 -40.05 -8.7 -39.55 -9.8 -39.8 -11.1 -40.9 -18.15 -39.5 -24.9 -39.3 -25.8 -38.35 -26.25 -32.25 -29.25 -25.55 -30.3 -24.6 -34.05 -21.65 -36.3 -18.65 -38.55 -14.85 -37.45 -7.9 -35.45 -0.85 -35.85 4.85 -36.2 9.65 -39.0 20.35 -39.4 24.55 -30.05 25.75 -27.5 28.3 -26.2 33.0 -23.75 34.75 -18.55 35.15 -17.5 36.15 -16.75" fill="#7bd8e7" fill-opacity="0.36078432" fill-rule="evenodd" stroke="none"/>
    <path d="M9.1 -35.65 Q13.6 -37.5 16.45 -34.35 19.25 -31.25 21.65 -29.2 L26.15 -25.3 Q28.3 -23.4 33.4 -17.6 38.45 -11.85 37.1 -3.25 35.8 5.25 37.8 8.8 39.8 12.35 38.4 16.6 37.0 20.9 28.4 19.35 19.7 17.7 17.0 20.0 14.25 22.2 11.1 20.25 7.9 18.3 8.25 23.3 8.55 28.2 7.4 32.8 6.75 35.6 3.4 37.6 0.1 39.55 -7.65 37.25 -15.45 34.95 -20.95 37.1 -26.5 39.3 -28.2 34.0 -29.85 28.75 -33.25 29.6 -36.7 30.4 -37.3 28.55 -37.95 26.65 -38.3 22.9 -38.4 21.25 -40.0 16.95 -41.65 12.65 -42.1 8.5 -42.6 4.25 -41.15 1.25 -39.75 -1.75 -38.15 -7.75 -36.5 -13.85 -37.95 -17.9 -39.4 -22.0 -37.8 -23.7 -36.2 -25.4 -29.85 -27.1 -23.55 -28.8 -22.6 -30.15 L-20.85 -32.6 Q-18.35 -35.8 -10.95 -34.25 -3.55 -32.75 0.55 -33.25 4.55 -33.85 9.1 -35.65" fill="#c1ebfb" fill-rule="evenodd" stroke="none"/>
    <path d="M-37.85 -7.4 Q-38.35 -2.85 -39.25 1.65 -39.15 -2.9 -37.85 -7.4 M4.6 29.5 Q5.05 27.5 4.7 25.3 L4.2 22.3 5.3 26.2 Q5.3 27.95 4.6 29.5 M13.6 -28.45 Q16.85 -25.5 21.0 -23.95 33.5 -19.1 33.75 -6.65 34.0 5.75 33.6 10.8 33.2 15.9 28.05 16.1 22.95 16.35 15.85 14.0 8.65 11.65 2.05 13.0 -4.65 14.25 -1.4 18.9 1.75 23.6 2.25 26.3 3.05 30.85 -1.0 32.1 -11.55 35.25 -22.4 32.65 -25.8 31.85 -27.6 28.95 L-30.0 26.1 Q-35.25 21.35 -36.35 14.8 -36.65 13.2 -36.55 11.65 -35.8 3.4 -35.4 -5.2 -35.35 -6.95 -34.65 -8.45 -31.35 -15.5 -30.0 -23.0 -29.05 -28.2 -24.75 -27.45 -20.55 -26.7 -15.4 -29.05 -10.35 -31.45 4.15 -32.6 9.45 -32.15 13.6 -28.45" fill="#9f7a34" fill-rule="evenodd" stroke="none"/>
    <path d="M-37.85 -7.4 L-36.9 -10.3 Q-34.9 -15.6 -34.55 -18.1 L-34.5 -18.95 Q-34.5 -22.55 -32.25 -25.4 L-31.2 -26.6 Q-27.75 -29.85 -21.25 -29.85 -16.85 -29.85 -12.3 -31.45 L-5.05 -34.0 Q3.7 -36.3 17.9 -28.9 29.6 -22.8 32.7 -17.15 L33.35 -15.75 Q34.4 -13.1 34.9 -8.85 35.4 -4.55 35.4 1.35 35.4 11.9 33.45 15.35 31.7 18.45 26.65 18.45 L21.55 17.55 16.75 16.25 Q8.85 14.0 4.15 14.0 3.5 14.0 3.2 14.75 2.85 15.7 2.85 18.35 L4.2 22.3 4.7 25.3 Q5.05 27.5 4.6 29.5 3.4 32.05 0.4 34.15 -4.5 37.55 -17.3 35.65 -23.3 34.8 -27.65 30.75 -32.25 29.45 -34.65 24.55 -39.25 15.25 -39.25 2.4 L-39.25 1.65 Q-38.35 -2.85 -37.85 -7.4 M13.6 -28.45 Q9.45 -32.15 4.15 -32.6 -10.35 -31.45 -15.4 -29.05 -20.55 -26.7 -24.75 -27.45 -29.05 -28.2 -30.0 -23.0 -31.35 -15.5 -34.65 -8.45 -35.35 -6.95 -35.4 -5.2 -35.8 3.4 -36.55 11.65 -36.65 13.2 -36.35 14.8 -35.25 21.35 -30.0 26.1 L-27.6 28.95 Q-25.8 31.85 -22.4 32.65 -11.55 35.25 -1.0 32.1 3.05 30.85 2.25 26.3 1.75 23.6 -1.4 18.9 -4.65 14.25 2.05 13.0 8.65 11.65 15.85 14.0 22.95 16.35 28.05 16.1 33.2 15.9 33.6 10.8 34.0 5.75 33.75 -6.65 33.5 -19.1 21.0 -23.95 16.85 -25.5 13.6 -28.45" fill="#916127" fill-rule="evenodd" stroke="none"/>
    <path d="M-25.45 30.7 Q-26.9 30.2 -27.85 29.15 -30.35 26.75 -27.95 23.5 -26.45 21.45 -23.95 20.45 -21.25 19.3 -19.95 21.4 L-18.25 24.55 Q-17.65 26.05 -18.3 27.7 -20.95 32.1 -25.45 30.7" fill="#542e0a" fill-opacity="0.36862746" fill-rule="evenodd" stroke="none"/>
    <path d="M-20.85 9.55 Q-24.6 15.95 -31.25 13.8 -33.35 13.05 -34.8 11.6 -38.4 8.15 -35.0 3.6 -32.9 0.75 -29.25 -0.7 -25.35 -2.25 -23.4 0.8 -21.95 2.95 -20.9 5.25 -19.95 7.35 -20.85 9.55" fill="#542e0a" fill-opacity="0.36862746" fill-rule="evenodd" stroke="none"/>
    <path d="M-12.75 -8.05 Q-16.95 -0.9 -24.55 -3.3 -26.95 -4.15 -28.6 -5.85 -32.7 -9.7 -28.95 -14.85 -26.55 -18.05 -22.4 -19.7 -17.95 -21.4 -15.75 -18.0 L-12.85 -12.95 Q-11.75 -10.6 -12.75 -8.05" fill="#542e0a" fill-opacity="0.36862746" fill-rule="evenodd" stroke="none"/>
    <path d="M0.55 -15.8 Q-3.2 -11.25 -6.8 -13.35 -7.9 -14.05 -8.45 -15.3 -9.85 -18.1 -6.8 -21.3 -4.85 -23.3 -2.25 -24.2 0.45 -25.05 1.0 -22.65 L1.5 -19.1 Q1.6 -17.4 0.55 -15.8" fill="#542e0a" fill-opacity="0.36862746" fill-rule="evenodd" stroke="none"/>
    <path d="M-1.35 -24.35 Q1.5 -27.05 4.15 -28.5 6.9 -29.9 8.0 -27.45 L9.75 -22.4 Q10.35 -20.0 6.8 -16.4 -2.4 -16.5 -3.25 -19.0 -4.05 -21.55 -1.35 -24.35" fill="#542e0a" fill-opacity="0.36862746" fill-rule="evenodd" stroke="none"/>
    <path d="M6.5 -31.55 Q6.85 -28.7 8.1 -26.3 9.4 -23.95 8.95 -21.9 8.45 -19.9 8.0 -19.6 7.35 -19.15 6.5 -19.0 1.95 -18.3 -0.65 -19.0 -3.3 -19.85 -4.35 -21.3 -5.35 -22.85 -4.0 -25.55 -2.6 -28.2 -2.0 -30.95 -1.35 -33.7 1.45 -34.25 L3.6 -34.6 Q6.25 -34.5 6.5 -31.55" fill="#9c9c9c" fill-rule="evenodd" stroke="none"/>
    <path d="M4.65 -24.5 L3.45 -25.7 Q0.7 -26.65 -1.05 -28.75 -1.9 -29.95 -1.1 -31.3 0.1 -33.25 2.55 -33.35 6.35 -33.75 6.25 -30.7 6.1 -27.8 5.3 -26.8 4.9 -26.3 4.65 -24.5" fill="#776969" fill-rule="evenodd" stroke="none"/>
    <path d="M6.05 -31.35 Q5.9 -28.8 4.45 -27.05 4.1 -26.6 3.45 -26.8 0.7 -27.75 -1.05 -29.85 -1.9 -31.05 -1.1 -32.4 0.1 -34.35 2.55 -34.45 6.35 -34.85 6.05 -31.35" fill="#c6c6c6" fill-rule="evenodd" stroke="none"/>
    <path d="M9.2 -22.85 L8.4 -25.6 7.4 -28.9 8.1 -26.7 8.4 -26.25 8.6 -25.65 Q9.95 -23.95 9.5 -21.2 9.0 -18.5 3.5 -18.3 -2.0 -18.1 -3.35 -20.1 -4.6 -22.15 -3.9 -23.7 L-3.7 -24.25 Q-3.9 -22.25 -0.75 -20.1 1.3 -18.85 7.8 -19.45 9.7 -20.8 9.2 -22.85" fill="#747272" fill-rule="evenodd" stroke="none"/>
    <path d="M-14.0 -15.15 Q-16.35 -16.0 -20.15 -18.0 -23.9 -20.0 -20.85 -24.15 -17.75 -28.25 -12.7 -30.5 -7.55 -33.0 -5.3 -29.6 -3.65 -27.15 -2.45 -24.6 -1.35 -22.3 -2.35 -19.8 -6.5 -12.75 -14.0 -15.15" fill="#542e0a" fill-opacity="0.36862746" fill-rule="evenodd" stroke="none"/>
    <path d="M-5.25 -12.5 Q-9.4 -5.45 -16.9 -7.8 -19.2 -8.7 -20.8 -10.35 -24.95 -14.2 -21.2 -19.2 -18.85 -22.4 -14.7 -24.05 -10.4 -25.7 -8.2 -22.35 L-5.3 -17.4 Q-4.25 -15.0 -5.25 -12.5" fill="#542e0a" fill-opacity="0.36862746" fill-rule="evenodd" stroke="none"/>
    <path d="M-9.4 -16.35 L-9.6 -16.2 Q-9.65 -16.1 -9.7 -16.15 L-9.75 -16.1 -9.95 -16.2 -10.05 -16.15 -10.25 -16.25 -10.25 -16.6 -9.95 -17.05 -9.65 -17.15 -9.55 -17.1 -9.45 -16.9 Q-9.25 -16.6 -9.35 -16.4 L-9.4 -16.35" fill="#c2b68c" fill-rule="evenodd" stroke="none"/>
    <path d="M-5.95 -32.8 Q-5.35 -28.65 -7.5 -25.5 -10.4 -21.4 -12.0 -22.05 L-12.7 -22.8 -14.8 -25.2 Q-16.35 -27.1 -16.25 -28.65 -16.15 -30.25 -15.15 -32.2 L-13.85 -35.05 -14.1 -34.95 -13.95 -35.05 -12.5 -35.3 -12.45 -35.3 Q-7.95 -34.8 -5.95 -32.8 M-17.7 -29.85 L-18.0 -29.45 Q-17.8 -30.65 -17.25 -31.65 L-17.7 -29.85" fill="#dbcd9c" fill-rule="evenodd" stroke="none"/>
    <path d="M-12.7 -22.8 L-12.0 -22.05 Q-10.4 -21.4 -7.5 -25.5 -5.35 -28.65 -5.95 -32.8 L-6.0 -32.95 Q-4.25 -30.65 -4.55 -28.65 L-5.25 -24.05 Q-6.15 -21.4 -10.15 -19.5 -10.95 -19.15 -11.85 -19.15 -16.25 -19.15 -18.75 -22.3 L-18.9 -22.4 -18.95 -22.6 Q-19.85 -23.75 -19.45 -25.3 -18.8 -26.65 -18.7 -28.15 L-18.0 -29.45 -17.7 -29.85 Q-17.95 -28.4 -17.55 -26.85 L-16.8 -25.5 -16.65 -25.0 -16.55 -24.95 Q-15.3 -22.75 -12.7 -22.8" fill="#958c6d" fill-rule="evenodd" stroke="none"/>
    <path d="M-13.95 -35.05 L-14.1 -34.95 -13.85 -35.05 -15.15 -32.2 Q-16.15 -30.25 -16.25 -28.65 -16.35 -27.1 -14.8 -25.2 L-12.7 -22.8 Q-15.3 -22.75 -16.55 -24.95 L-16.65 -25.0 -16.8 -25.5 -17.55 -26.85 Q-17.95 -28.4 -17.7 -29.85 L-17.25 -31.65 -17.1 -32.15 Q-16.55 -33.35 -15.6 -33.9 L-14.0 -35.05 -13.95 -35.05" fill="#c2b68c" fill-rule="evenodd" stroke="none"/>
    <path d="M-8.95 -22.2 L-9.05 -22.1 -9.05 -22.2 -8.95 -22.2" fill="#dbcd9c" fill-rule="evenodd" stroke="none"/>
    <path d="M-4.05 -24.15 L-4.25 -24.1 -4.15 -24.1 Q-2.15 -25.7 -4.05 -24.15" fill="#c2b68c" fill-rule="evenodd" stroke="none"/>
    <path d="M-8.95 -22.2 Q-8.6 -23.05 -7.55 -23.35 -6.6 -23.4 -5.65 -23.9 L-4.75 -23.9 -4.45 -24.0 -4.3 -24.05 -4.25 -24.1 -4.05 -24.15 -4.15 -24.1 -4.0 -24.1 Q-6.3 -23.35 -6.5 -22.55 L-6.8 -21.65 -6.8 -21.5 Q-7.55 -20.2 -6.85 -18.9 L-6.7 -18.55 -6.75 -18.35 -6.85 -18.25 -7.0 -17.95 Q-6.8 -16.85 -3.5 -16.55 -0.95 -16.35 1.15 -18.1 L1.3 -18.15 Q0.55 -16.35 -0.65 -15.9 L-3.6 -14.75 Q-5.35 -14.4 -7.85 -16.05 -8.3 -16.35 -8.6 -16.95 -10.1 -19.45 -9.05 -22.1 L-8.95 -22.2" fill="#878270" fill-rule="evenodd" stroke="none"/>
    <path d="M1.15 -18.1 Q-0.95 -16.35 -3.5 -16.55 -6.8 -16.85 -7.0 -17.95 L-6.85 -18.25 -6.75 -18.35 -6.7 -18.55 -6.45 -20.1 Q-6.25 -21.2 -3.65 -22.5 L-1.0 -23.8 -0.85 -23.8 -0.7 -23.8 0.25 -23.15 0.35 -22.95 Q1.75 -20.0 1.15 -18.1" fill="#bfbaa8" fill-rule="evenodd" stroke="none"/>
    <path d="M-6.7 -18.55 L-6.85 -18.9 Q-7.55 -20.2 -6.8 -21.5 L-6.8 -21.65 -6.5 -22.55 Q-6.3 -23.35 -4.0 -24.1 L-3.25 -24.15 -2.85 -24.25 -1.35 -24.0 -0.7 -23.8 -0.85 -23.8 -1.0 -23.8 -3.65 -22.5 Q-6.25 -21.2 -6.45 -20.1 L-6.7 -18.55" fill="#6b6758" fill-rule="evenodd" stroke="none"/>
    <path d="M-19.65 -1.45 Q-23.25 4.6 -29.35 2.65 -31.2 1.95 -32.55 0.55 -35.8 -2.7 -32.65 -7.0 -30.6 -9.75 -27.2 -11.2 -23.6 -12.7 -21.85 -9.85 L-19.6 -5.65 Q-18.8 -3.6 -19.65 -1.45" fill="#542e0a" fill-opacity="0.36862746" fill-rule="evenodd" stroke="none"/>
    <path d="M-7.85 -16.3 Q-7.3 -15.0 -7.0 -13.1 L-7.1 -12.5 Q-9.05 -10.6 -10.75 -10.45 L-12.75 -10.9 Q-15.1 -11.75 -14.6 -14.5 -14.25 -16.3 -13.3 -17.15 -12.25 -17.95 -10.75 -18.25 -9.35 -18.35 -7.85 -16.2 L-7.85 -16.3" fill="#c2b589" fill-rule="evenodd" stroke="none"/>
    <path d="M-10.75 -10.45 L-10.6 -10.45 -12.4 -10.15 -13.75 -10.0 Q-15.95 -10.25 -16.6 -12.15 -16.95 -14.1 -16.35 -16.0 L-16.2 -16.2 -16.2 -16.35 -16.1 -17.15 Q-15.65 -19.55 -13.85 -20.45 L-13.0 -20.6 -12.75 -20.7 Q-10.85 -20.8 -9.75 -19.5 L-8.25 -17.6 Q-7.85 -17.2 -7.85 -16.3 L-7.85 -16.2 Q-9.35 -18.35 -10.75 -18.25 -12.25 -17.95 -13.3 -17.15 -14.25 -16.3 -14.6 -14.5 -15.1 -11.75 -12.75 -10.9 L-10.75 -10.45" fill="#877c58" fill-rule="evenodd" stroke="none"/>
    <path d="M-25.45 -5.7 L-26.3 -6.8 -25.05 -6.55 Q-22.7 -5.55 -19.1 -6.25 -15.7 -7.15 -14.75 -8.0 -14.4 -9.0 -14.3 -10.35 -14.1 -8.4 -14.75 -7.4 -15.6 -6.25 -19.0 -5.35 L-25.15 -5.65 -25.45 -5.7" fill="#565141" fill-rule="evenodd" stroke="none"/>
    <path d="M-16.55 -11.9 L-16.65 -11.7 -18.35 -10.75 -20.5 -10.35 Q-22.55 -9.5 -24.6 -9.75 -26.45 -10.15 -26.45 -11.8 -26.2 -12.6 -26.2 -13.55 L-26.05 -13.7 -25.55 -14.0 -26.1 -13.85 -25.05 -16.7 -24.2 -17.25 -23.2 -18.1 -22.8 -18.35 -22.65 -18.4 Q-22.35 -18.5 -22.0 -18.75 -20.95 -19.3 -19.5 -19.5 -17.35 -18.9 -16.35 -16.9 -15.15 -15.1 -14.3 -13.25 -13.6 -11.75 -14.3 -10.35 -14.15 -10.85 -14.25 -11.25 -14.15 -12.65 -14.9 -13.25 -15.55 -12.25 -16.55 -11.9" fill="#bfbaa8" fill-rule="evenodd" stroke="none"/>
    <path d="M-16.55 -11.9 Q-15.55 -12.25 -14.9 -13.25 -14.15 -12.65 -14.25 -11.25 -14.15 -10.85 -14.3 -10.35 -14.4 -9.0 -14.75 -8.0 -15.7 -7.15 -19.1 -6.25 -22.7 -5.55 -25.05 -6.55 L-26.3 -6.8 -25.45 -5.7 -24.4 -4.65 -25.6 -5.8 Q-29.9 -9.95 -28.5 -14.4 L-27.7 -15.25 -24.9 -17.2 -23.05 -18.3 -22.8 -18.35 -23.2 -18.1 -24.2 -17.25 -25.05 -16.7 -26.1 -13.85 -25.55 -14.0 -26.05 -13.7 -26.2 -13.55 -26.1 -13.85 -26.1 -16.0 Q-26.9 -13.95 -27.15 -11.6 -27.4 -11.25 -27.15 -10.85 -25.65 -7.65 -23.65 -8.15 L-19.85 -9.05 Q-18.1 -9.35 -16.65 -11.7 L-16.35 -11.8 -16.55 -11.9" fill="#878270" fill-rule="evenodd" stroke="none"/>
    <path d="M-26.2 -13.55 Q-26.2 -12.6 -26.45 -11.8 -26.45 -10.15 -24.6 -9.75 -22.55 -9.5 -20.5 -10.35 L-18.35 -10.75 -16.65 -11.7 -16.55 -11.9 -16.35 -11.8 -16.65 -11.7 Q-18.1 -9.35 -19.85 -9.05 L-23.65 -8.15 Q-25.65 -7.65 -27.15 -10.85 -27.4 -11.25 -27.15 -11.6 -26.9 -13.95 -26.1 -16.0 L-26.1 -13.85 -26.2 -13.55" fill="#6b6758" fill-rule="evenodd" stroke="none"/>
    <path d="M-30.15 -2.15 L-29.15 -1.8 -30.25 -2.55 -30.5 -2.8 -30.85 -3.35 -31.1 -4.0 Q-31.6 -5.95 -30.3 -7.6 L-30.15 -7.65 -29.25 -8.5 -26.65 -8.6 -27.25 -9.0 -28.3 -9.25 -26.6 -9.3 Q-23.85 -7.4 -23.4 -5.55 -24.35 -3.1 -26.55 -2.05 -29.45 -0.7 -30.15 -1.55 L-30.15 -2.15 M-29.95 -8.5 L-30.75 -7.7 -31.05 -7.55 -29.95 -8.5 M-33.75 -4.1 L-33.8 -4.0 -33.85 -4.05 -33.75 -4.1" fill="#dbcd9c" fill-rule="evenodd" stroke="none"/>
    <path d="M-30.15 -2.15 L-30.15 -1.55 Q-29.45 -0.7 -26.55 -2.05 -24.35 -3.1 -23.4 -5.55 L-23.35 -5.65 Q-23.1 -3.85 -23.95 -2.85 L-25.8 -0.5 Q-27.1 0.65 -29.95 0.4 L-30.95 0.05 Q-33.4 -1.3 -33.8 -4.0 L-33.75 -4.1 Q-33.85 -5.0 -33.15 -5.75 -32.4 -6.25 -31.85 -7.1 L-31.05 -7.55 -30.75 -7.7 -31.6 -5.95 -31.65 -5.0 -31.75 -4.7 -31.7 -4.6 Q-31.65 -2.95 -30.15 -2.15" fill="#958c6d" fill-rule="evenodd" stroke="none"/>
    <path d="M-28.3 -9.25 L-27.25 -9.0 -26.65 -8.6 -29.25 -8.5 -30.15 -7.65 -30.3 -7.6 Q-31.6 -5.95 -31.1 -4.0 L-30.85 -3.35 -30.5 -2.8 -30.25 -2.55 -29.15 -1.8 -30.15 -2.15 Q-31.65 -2.95 -31.7 -4.6 L-31.75 -4.7 -31.65 -5.0 -31.6 -5.95 -30.75 -7.7 -29.95 -8.5 -29.7 -8.7 Q-29.05 -9.25 -28.3 -9.25" fill="#c2b68c" fill-rule="evenodd" stroke="none"/>
    <path d="M23.5 7.15 L23.4 7.25 Q16.95 3.25 10.75 -5.35 L23.4 -18.0 Q30.35 -14.4 36.05 -5.45 36.3 5.6 32.0 5.1 26.15 7.4 23.5 7.15" fill="#542e0a" fill-opacity="0.36862746" fill-rule="evenodd" stroke="none"/>
    <path d="M23.6 1.35 L24.15 1.35 24.15 7.15 21.3 7.15 20.45 6.95 20.75 6.95 23.6 6.95 23.6 1.35" fill="#95460d" fill-rule="evenodd" stroke="none"/>
    <path d="M20.75 6.95 L20.75 1.15 23.6 1.15 23.6 1.35 23.6 6.95 20.75 6.95" fill="#cd7739" fill-rule="evenodd" stroke="none"/>
    <path d="M29.75 -7.7 L29.75 -8.25 35.55 -8.25 35.55 -5.4 35.35 -4.55 35.35 -4.85 35.35 -7.7 29.75 -7.7" fill="#95460d" fill-rule="evenodd" stroke="none"/>
    <path d="M35.35 -4.85 L29.55 -4.85 29.55 -7.7 29.75 -7.7 35.35 -7.7 35.35 -4.85" fill="#d99c3f" fill-rule="evenodd" stroke="none"/>
    <path d="M23.0 -16.75 Q29.25 -13.5 34.3 -5.5 30.25 1.35 23.1 5.7 L23.0 5.8 Q17.25 2.25 11.75 -5.45 L23.0 -16.75" fill="#95460d" fill-rule="evenodd" stroke="none"/>
    <path d="M23.6 -18.8 L24.15 -18.8 24.15 -13.0 21.3 -13.0 20.45 -13.2 20.75 -13.2 23.6 -13.2 23.6 -18.8" fill="#95460d" fill-rule="evenodd" stroke="none"/>
    <path d="M20.75 -13.2 L20.75 -19.0 23.6 -19.0 23.6 -18.8 23.6 -13.2 20.75 -13.2" fill="#d99c3f" fill-rule="evenodd" stroke="none"/>
    <path d="M10.1 -7.7 L10.1 -8.25 15.9 -8.25 15.9 -5.4 15.7 -4.55 15.7 -4.85 15.7 -7.7 10.1 -7.7" fill="#95460d" fill-rule="evenodd" stroke="none"/>
    <path d="M15.7 -4.85 L9.9 -4.85 9.9 -7.7 10.1 -7.7 15.7 -7.7 15.7 -4.85" fill="#cd7739" fill-rule="evenodd" stroke="none"/>
    <path d="M22.4 -17.35 Q28.65 -14.1 33.7 -6.1 29.65 0.75 22.5 5.1 L22.4 5.2 Q16.65 1.65 11.15 -6.05 15.85 -12.85 22.4 -17.35" fill="#d99c3f" fill-rule="evenodd" stroke="none"/>
    <path d="M23.4 -14.65 Q28.15 -11.35 32.45 -6.25 L32.65 -6.05 Q29.3 -0.4 23.4 3.35 L23.35 3.4 Q19.0 1.0 14.55 -5.8 17.9 -10.9 23.35 -14.7 L23.4 -14.65" fill="#230702" fill-opacity="0.36862746" fill-rule="evenodd" stroke="none"/>
    <path d="M13.7 -6.25 L13.75 -6.25 14.35 -6.25 13.7 -6.25" fill="#6b4921" fill-rule="evenodd" stroke="none"/>
    <path d="M30.8 -6.35 L30.95 -6.2 Q27.85 -0.9 22.35 2.45 L22.4 -6.55 22.35 -6.35 22.35 -6.55 22.4 -6.55 22.5 -6.55 22.4 -6.7 30.8 -6.35" fill="#741e14" fill-rule="evenodd" stroke="none"/>
    <path d="M22.35 -14.75 Q26.75 -11.4 30.8 -6.35 L22.4 -6.7 22.5 -6.55 22.4 -6.55 22.4 -6.7 22.4 -6.55 22.35 -6.55 22.35 -14.75" fill="#9f4338" fill-rule="evenodd" stroke="none"/>
    <path d="M13.75 -6.25 Q16.95 -11.3 22.25 -14.8 L22.35 -14.75 22.35 -6.55 14.35 -6.25 13.75 -6.25" fill="#c25145" fill-rule="evenodd" stroke="none"/>
    <path d="M22.35 2.45 L22.25 2.5 Q17.85 -0.25 13.6 -6.15 L13.7 -6.25 14.35 -6.25 22.35 -6.55 22.35 -6.35 22.4 -6.55 22.4 -6.7 22.4 -6.55 22.35 2.45" fill="#982f24" fill-rule="evenodd" stroke="none"/>
    <path d="M-36.15 6.6 L-36.15 6.75 -36.2 6.65 -36.15 6.6 M-21.15 4.55 Q-22.55 8.1 -25.65 9.6 -29.8 11.55 -30.85 10.3 L-30.85 9.4 -29.35 9.9 -31.0 8.9 -31.35 8.5 -31.8 7.75 -32.25 6.75 Q-33.0 3.95 -31.1 1.6 L-30.85 1.5 Q-30.35 0.75 -29.6 0.3 L-25.8 0.1 -26.7 -0.45 -28.25 -0.75 -25.7 -0.85 Q-21.85 1.8 -21.15 4.55" fill="#dbcd9c" fill-rule="evenodd" stroke="none"/>
    <path d="M-32.2 1.7 L-31.75 1.4 Q-32.65 2.5 -33.0 3.95 L-33.05 5.3 -33.15 5.8 -33.05 5.9 Q-33.05 8.3 -30.85 9.4 L-30.85 10.3 Q-29.8 11.55 -25.65 9.6 -22.55 8.1 -21.15 4.55 L-21.1 4.4 Q-20.75 7.05 -21.9 8.45 L-24.6 11.8 Q-26.45 13.45 -30.55 13.1 -31.3 13.15 -32.05 12.65 -35.55 10.65 -36.15 6.75 L-36.15 6.6 Q-36.25 5.35 -35.2 4.3 -34.1 3.55 -33.35 2.35 L-32.2 1.7" fill="#958c6d" fill-rule="evenodd" stroke="none"/>
    <path d="M-30.85 9.4 Q-33.05 8.3 -33.05 5.9 L-33.15 5.8 -33.05 5.3 -33.0 3.95 Q-32.65 2.5 -31.75 1.4 L-32.2 1.7 -30.6 0.3 -30.2 -0.05 Q-29.3 -0.75 -28.25 -0.75 L-26.7 -0.45 -25.8 0.1 -29.6 0.3 Q-30.35 0.75 -30.85 1.5 L-31.1 1.6 Q-33.0 3.95 -32.25 6.75 L-31.8 7.75 -31.35 8.5 -31.0 8.9 -29.35 9.9 -30.85 9.4" fill="#c2b68c" fill-rule="evenodd" stroke="none"/>
    <path d="M-24.25 26.95 L-23.25 27.3 -24.35 26.55 -24.6 26.3 -24.95 25.75 -25.2 25.1 Q-25.7 23.15 -24.4 21.5 L-24.25 21.45 -23.35 20.6 -20.75 20.5 Q-20.95 20.25 -21.35 20.1 -21.95 19.8 -22.4 19.85 L-20.7 19.8 Q-17.95 21.7 -17.5 23.55 -18.45 26.0 -20.65 27.05 -23.55 28.4 -24.25 27.55 L-24.25 26.95 M-24.05 20.6 L-24.85 21.4 -25.15 21.55 -24.05 20.6 M-27.85 25.0 L-27.9 25.1 -27.95 25.05 -27.85 25.0" fill="#dbcd9c" fill-rule="evenodd" stroke="none"/>
    <path d="M-24.25 26.95 L-24.25 27.55 Q-23.55 28.4 -20.65 27.05 -18.45 26.0 -17.5 23.55 L-17.45 23.45 Q-17.2 25.25 -18.05 26.25 L-19.9 28.6 Q-21.2 29.75 -24.05 29.5 L-25.05 29.15 Q-27.5 27.8 -27.9 25.1 L-27.85 25.0 Q-27.95 24.1 -27.25 23.35 L-25.95 22.0 -25.15 21.55 -24.85 21.4 Q-25.5 22.15 -25.7 23.15 L-25.75 24.1 -25.85 24.4 -25.8 24.5 Q-25.75 26.15 -24.25 26.95" fill="#958c6d" fill-rule="evenodd" stroke="none"/>
    <path d="M-22.4 19.85 Q-21.95 19.8 -21.35 20.1 -20.95 20.25 -20.75 20.5 L-23.35 20.6 -24.25 21.45 -24.4 21.5 Q-25.7 23.15 -25.2 25.1 L-24.95 25.75 -24.6 26.3 -24.35 26.55 -23.25 27.3 -24.25 26.95 Q-25.75 26.15 -25.8 24.5 L-25.85 24.4 -25.75 24.1 -25.7 23.15 Q-25.5 22.15 -24.85 21.4 L-24.05 20.6 -23.8 20.4 Q-23.15 19.85 -22.4 19.85" fill="#c2b68c" fill-rule="evenodd" stroke="none"/>
    <path d="M-4.4 31.1 L-4.2 31.15 Q-3.85 31.8 -3.65 32.4 -3.2 33.45 -3.9 34.25 -4.7 35.1 -5.95 34.6 L-6.55 33.65 Q-6.7 32.8 -6.3 32.2 -5.8 31.4 -5.0 31.1 L-4.4 31.1" fill="#744c1b" fill-rule="evenodd" stroke="none"/>
    <path d="M-4.65 29.4 Q-4.6 30.6 -5.7 30.85 -6.65 31.05 -7.35 30.3 L-7.4 30.2 -7.4 29.75 -7.0 28.9 Q-6.65 28.45 -6.2 28.45 -4.75 28.15 -4.65 29.4" fill="#744c1b" fill-rule="evenodd" stroke="none"/>
    <path d="M-8.3 33.8 Q-11.9 35.6 -13.05 32.15 -13.5 30.7 -12.1 30.1 -11.4 29.75 -10.7 29.55 -6.4 28.9 -7.0 32.2 -7.25 33.25 -8.3 33.8" fill="#916127" fill-rule="evenodd" stroke="none"/>
    <path d="M-19.2 32.05 L-22.3 32.0 Q-22.7 31.5 -22.35 30.9 -21.8 29.85 -20.6 29.8 -17.35 29.85 -19.2 32.05" fill="#6b6758" fill-rule="evenodd" stroke="none"/>
    <path d="M-31.95 20.35 L-34.1 20.4 Q-34.4 20.0 -34.3 19.4 -34.15 18.15 -32.95 17.8 -30.6 18.15 -31.95 20.35" fill="#6b6758" fill-rule="evenodd" stroke="none"/>
    <path d="M32.4 10.3 L32.6 10.35 33.15 11.6 Q33.6 12.65 32.9 13.45 32.1 14.3 30.85 13.8 L30.25 12.85 Q30.1 12.0 30.5 11.4 31.0 10.6 31.8 10.3 L32.4 10.3" fill="#744c1b" fill-rule="evenodd" stroke="none"/>
    <path d="M23.3 -6.25 L24.1 -5.65 24.5 -5.45 Q24.85 -5.35 24.75 -4.95 23.1 -5.0 24.65 -4.35 26.2 -3.7 25.55 -3.65 L23.7 -3.4 23.6 -3.35 23.6 -3.2 23.65 -3.15 23.65 -3.0 23.7 -3.0 23.75 -2.95 23.9 -2.85 24.0 -2.8 24.0 -2.5 23.75 -2.15 Q23.45 -2.1 23.3 -1.9 L23.3 -1.75 23.65 -1.6 24.0 -1.2 24.05 -1.15 23.8 -1.1 24.05 -1.15 24.15 -0.9 24.15 -0.85 23.4 -0.3 22.95 0.2 22.65 0.7 22.5 0.75 22.5 -6.85 23.3 -6.25" fill="#4f0f08" fill-rule="evenodd" stroke="none"/>
    <path d="M25.5 -10.5 L24.65 -9.35 24.1 -8.7 23.9 -8.65 Q23.75 -9.3 24.25 -9.85 L25.1 -10.95 25.85 -11.75 Q26.1 -11.15 25.5 -10.5" fill="#4f0f08" fill-rule="evenodd" stroke="none"/>
    <path d="M25.85 -11.45 L26.2 -11.4 26.5 -11.15 26.65 -10.95 Q27.15 -11.05 27.35 -10.6 L27.9 -9.9 28.0 -9.65 27.9 -9.3 Q27.05 -9.5 26.6 -8.9 L25.9 -8.25 Q25.65 -8.05 25.35 -8.25 L25.35 -8.4 25.35 -8.5 25.35 -8.6 25.55 -8.9 26.05 -9.35 26.5 -9.85 26.5 -9.9 Q26.25 -9.9 26.1 -10.1 L26.05 -10.2 Q25.8 -9.7 25.4 -10.1 25.15 -10.3 25.3 -10.65 L25.55 -11.25 Q25.7 -11.45 25.85 -11.45" fill="#4f0f08" fill-rule="evenodd" stroke="none"/>
    <path d="M24.0 -13.0 L24.05 -13.15 24.3 -13.35 Q25.45 -12.3 26.8 -11.75 L27.8 -10.75 28.0 -10.5 Q29.5 -9.25 29.55 -7.45 29.55 -7.35 29.4 -7.4 28.45 -7.6 27.9 -8.45 L27.5 -9.45 Q27.45 -9.7 27.7 -9.75 L27.3 -10.15 26.95 -10.5 26.75 -10.9 26.7 -11.0 26.6 -11.05 26.3 -11.0 26.25 -10.9 26.05 -10.9 25.8 -11.0 25.7 -11.05 25.5 -11.05 24.95 -11.0 24.85 -11.05 24.75 -10.95 24.75 -10.85 24.65 -10.7 24.55 -10.6 24.2 -10.65 24.15 -10.75 24.1 -10.85 23.9 -10.75 23.35 -10.65 23.3 -10.7 Q23.1 -10.95 23.25 -11.15 L23.6 -11.7 23.9 -12.2 24.15 -12.55 24.05 -12.7 24.0 -13.0" fill="#4f0f08" fill-rule="evenodd" stroke="none"/>
    <path d="M22.25 -6.9 L22.4 -6.9 22.45 -6.85 23.0 -2.3 Q23.05 -1.25 23.35 -0.25 23.75 1.15 23.0 2.15 22.8 2.55 22.3 2.35 21.45 1.95 21.35 -0.85 L21.0 -5.6 Q20.75 -7.45 21.4 -7.1 22.05 -6.85 22.25 -6.9" fill="#a4541c" fill-rule="evenodd" stroke="none"/>
    <path d="M21.6 -6.1 L22.4 -1.1 22.85 2.2 Q22.05 2.1 21.95 1.15 21.4 -2.15 21.25 -5.55 21.25 -6.0 21.6 -6.1" fill="#bd713c" fill-rule="evenodd" stroke="none"/>
    <path d="M23.45 -15.15 L23.55 -15.1 23.55 -15.05 Q23.5 -12.75 22.95 -10.5 22.75 -9.45 22.7 -8.4 22.75 -7.0 21.8 -6.2 21.45 -5.85 21.1 -6.2 20.35 -6.85 20.95 -9.5 L21.85 -14.2 Q22.1 -16.1 22.65 -15.55 23.15 -15.15 23.45 -15.15" fill="#8c4717" fill-rule="evenodd" stroke="none"/>
    <path d="M22.55 -14.55 L22.05 -9.5 21.65 -6.2 Q20.85 -6.5 21.0 -7.45 21.35 -10.8 22.1 -14.1 22.2 -14.5 22.55 -14.55" fill="#bd713c" fill-rule="evenodd" stroke="none"/>
    <path d="M20.95 -7.0 L21.05 -5.7 21.0 -5.7 20.05 -5.75 16.2 -5.75 14.35 -5.8 13.95 -5.8 13.85 -6.8 16.35 -6.85 20.95 -7.0" fill="#a4541c" fill-rule="evenodd" stroke="none"/>
    <path d="M20.95 -7.0 L16.35 -6.85 13.85 -6.8 13.85 -7.2 13.85 -7.45 15.0 -7.4 18.8 -7.6 20.85 -7.45 21.05 -7.4 20.95 -7.0" fill="#bd713c" fill-rule="evenodd" stroke="none"/>
    <path d="M31.25 -7.0 Q31.2 -6.4 31.4 -5.7 L31.3 -5.7 30.15 -5.75 25.4 -5.75 23.15 -5.8 22.65 -5.8 Q22.5 -6.25 22.5 -6.8 L25.6 -6.85 31.25 -7.0" fill="#a4541c" fill-rule="evenodd" stroke="none"/>
    <path d="M31.25 -7.0 L25.6 -6.85 22.5 -6.8 22.5 -7.2 22.5 -7.45 23.9 -7.4 28.6 -7.6 31.1 -7.45 31.4 -7.4 31.25 -7.0" fill="#bd713c" fill-rule="evenodd" stroke="none"/>
    <path d="M-13.9 31.15 L-13.8 31.2 -13.45 31.95 Q-13.15 32.6 -13.6 33.05 -14.1 33.6 -14.85 33.25 L-15.2 32.7 Q-15.3 32.2 -15.05 31.8 L-14.25 31.15 -13.9 31.15" fill="#744c1b" fill-rule="evenodd" stroke="none"/>
    <path d="M-1.45 28.65 L-1.25 28.7 Q-0.9 29.35 -0.7 29.95 -0.25 31.0 -0.95 31.8 -1.75 32.65 -3.0 32.15 L-3.6 31.2 Q-3.75 30.35 -3.35 29.75 -2.85 28.95 -2.05 28.65 L-1.45 28.65" fill="#916127" fill-rule="evenodd" stroke="none"/>
    <path d="M-2.0 28.1 L-2.0 28.2 -2.85 28.95 -4.3 29.1 Q-5.1 28.65 -5.0 27.6 L-4.4 26.95 -3.2 26.85 Q-2.5 27.05 -2.15 27.6 L-2.0 28.1" fill="#7e6d59" fill-rule="evenodd" stroke="none"/>
    <path d="M2.1 28.7 L2.1 28.8 1.25 29.55 -0.2 29.7 Q-1.0 29.25 -0.9 28.2 L-0.3 27.55 0.9 27.45 Q1.6 27.65 1.95 28.2 L2.1 28.7" fill="#7e6d59" fill-rule="evenodd" stroke="none"/>
    <path d="M0.85 26.2 L0.85 26.35 0.3 26.95 -0.65 27.0 Q-1.25 26.45 -1.3 25.45 L-0.9 24.85 Q-0.55 24.65 -0.1 24.85 L0.7 25.7 0.85 26.2" fill="#744c1b" fill-rule="evenodd" stroke="none"/>
    <path d="M-17.2 3.55 Q-20.8 5.35 -21.95 1.9 -22.4 0.45 -21.0 -0.15 L-19.6 -0.7 Q-15.3 -1.35 -15.9 1.95 -16.15 3.0 -17.2 3.55" fill="#916127" fill-rule="evenodd" stroke="none"/>
    <path d="M17.6 12.65 L17.6 12.75 16.75 13.5 15.3 13.65 Q14.5 13.2 14.6 12.15 L15.2 11.5 16.4 11.4 Q17.1 11.6 17.45 12.15 L17.6 12.65" fill="#7e6d59" fill-rule="evenodd" stroke="none"/>
    <path d="M24.65 13.85 L24.65 13.95 23.8 14.7 Q23.1 15.25 22.35 14.85 21.55 14.4 21.65 13.35 L22.25 12.7 23.45 12.6 Q24.15 12.8 24.5 13.35 L24.65 13.85" fill="#7e6d59" fill-rule="evenodd" stroke="none"/>
    <path d="M24.7 14.0 L24.7 13.8 25.8 12.9 Q26.65 12.2 27.6 12.75 28.65 13.3 28.45 14.6 L27.75 15.4 26.25 15.6 Q25.35 15.3 24.85 14.6 L24.7 14.0" fill="#744c1b" fill-rule="evenodd" stroke="none"/>
    <path d="M19.3 11.45 L19.5 11.5 20.05 12.75 Q20.5 13.8 19.8 14.6 19.0 15.45 17.75 14.95 L17.15 14.0 Q17.0 13.15 17.4 12.55 17.9 11.75 18.7 11.45 L19.3 11.45" fill="#916127" fill-rule="evenodd" stroke="none"/>
    <path d="M-23.4 -25.3 L-23.4 -25.2 Q-23.8 -24.75 -24.25 -24.45 -24.95 -23.9 -25.7 -24.3 -26.5 -24.75 -26.4 -25.8 L-25.8 -26.45 -24.6 -26.55 Q-23.9 -26.35 -23.55 -25.8 L-23.4 -25.3" fill="#7e6d59" fill-rule="evenodd" stroke="none"/>
    <path d="M-25.45 -17.8 Q-29.05 -16.0 -30.2 -19.45 -30.65 -20.9 -29.25 -21.5 L-27.85 -22.05 Q-23.55 -22.7 -24.15 -19.4 -24.4 -18.35 -25.45 -17.8" fill="#916127" fill-rule="evenodd" stroke="none"/>
  </g>
</svg>
