<?xml version="1.0" encoding="UTF-8" standalone="no"?>
<svg xmlns:ffdec="https://www.free-decompiler.com/flash" xmlns:xlink="http://www.w3.org/1999/xlink" ffdec:objectType="shape" height="64.05px" width="78.8px" xmlns="http://www.w3.org/2000/svg">
  <g transform="matrix(1.0, 0.0, 0.0, 1.0, 1.5, 1.5)">
    <path d="M60.2 5.9 Q56.55 2.95 55.15 2.8 53.7 2.6 51.55 3.7 49.4 4.75 47.35 3.3 44.4 0.2 42.3 0.0 40.15 -0.2 34.8 1.95 29.45 4.1 26.8 4.5 L21.15 4.7 15.4 5.05 Q12.6 5.55 9.95 8.6 7.3 11.65 7.1 13.35 6.9 15.05 3.3 20.25 -0.3 25.45 0.05 30.95 0.35 36.45 2.8 41.45 7.65 51.4 10.65 53.25 14.3 56.05 17.8 57.8 24.4 61.05 32.4 61.05 L40.9 60.05 48.95 59.0 Q53.7 59.0 57.9 56.6 L65.9 52.0 Q69.85 49.65 72.7 45.5 75.55 41.35 75.8 33.55 76.0 25.7 69.95 17.3 63.9 8.85 60.2 5.9 Z" fill="none" stroke="#ffffff" stroke-linecap="round" stroke-linejoin="round" stroke-width="3.0"/>
  </g>
</svg>
