<?xml version="1.0" encoding="UTF-8" standalone="no"?>
<svg xmlns:ffdec="https://www.free-decompiler.com/flash" xmlns:xlink="http://www.w3.org/1999/xlink" ffdec:objectType="shape" height="59.45px" width="75.25px" xmlns="http://www.w3.org/2000/svg">
  <g transform="matrix(1.0, 0.0, 0.0, 1.0, 36.65, 28.55)">
    <path d="M2.9 -28.45 Q4.9 -28.8 6.55 -27.6 8.25 -26.45 9.25 -24.8 9.9 -23.7 13.8 -24.05 21.6 -27.6 27.25 -19.5 29.2 -16.7 30.55 -13.5 32.7 -8.45 35.65 -3.75 40.35 3.6 37.5 11.0 37.05 12.15 35.8 12.95 29.45 17.0 24.9 23.55 22.55 26.95 18.25 28.05 14.2 29.15 9.85 28.95 7.05 28.9 4.25 29.7 -7.0 33.0 -16.85 27.05 -18.8 25.85 -21.25 25.1 -29.5 22.5 -30.95 14.15 -31.9 8.65 -35.9 4.35 -37.0 3.2 -36.5 1.5 -34.6 -4.7 -30.45 -10.1 -28.45 -12.7 -27.7 -15.85 -25.1 -26.0 -13.45 -22.95 -9.9 -22.0 -6.55 -23.1 -2.5 -24.35 0.65 -27.35 1.7 -28.25 2.9 -28.45" fill="#7bd8e7" fill-opacity="0.36078432" fill-rule="evenodd" stroke="none"/>
    <path d="M9.0 -20.0 Q9.2 -19.5 9.9 -19.45 13.9 -19.05 17.9 -20.85 L22.5 -20.65 Q27.3 -18.1 27.15 -12.65 27.15 -8.7 30.0 -5.8 34.3 -1.5 35.7 4.05 36.4 7.05 35.25 9.85 32.85 15.7 27.5 18.8 24.35 20.65 22.05 23.5 19.75 26.45 15.75 27.2 L4.05 28.1 -0.4 28.4 Q-10.15 29.9 -17.7 23.85 -18.6 23.15 -19.7 23.5 -25.7 25.6 -26.7 19.3 -27.2 16.65 -28.35 14.25 -29.55 12.0 -31.55 10.2 -33.95 8.05 -32.4 4.95 -31.7 3.4 -31.8 1.75 -32.45 -5.05 -28.65 -10.5 -26.25 -13.95 -24.55 -17.8 -23.2 -20.85 -19.55 -21.2 L-9.75 -22.05 Q-5.15 -22.3 -3.6 -24.0 -2.15 -25.75 1.95 -26.45 6.0 -27.15 9.0 -20.0" fill="#c1ebfb" fill-rule="evenodd" stroke="none"/>
    <path d="M-5.3 -13.45 Q-3.8 -12.45 -1.25 -12.55 1.25 -12.75 3.85 -15.0 L4.2 -15.3 3.75 -14.65 4.4 -15.05 Q4.95 -15.45 4.55 -13.95 4.15 -12.55 5.2 -13.05 6.2 -13.55 6.5 -13.3 L6.85 -13.35 6.95 -13.65 7.15 -14.65 Q7.15 -15.0 7.5 -15.1 8.25 -15.5 8.85 -14.9 11.4 -15.25 16.25 -15.05 L16.5 -15.05 Q16.45 -14.65 16.0 -14.5 13.35 -13.55 11.15 -11.95 9.0 -10.4 6.55 -10.1 5.8 -10.0 5.3 -10.4 2.85 -9.05 -0.05 -9.25 -1.25 -9.4 -2.05 -10.35 -2.2 -10.55 -2.5 -10.6 -5.7 -10.8 -7.35 -13.3 L-7.35 -13.7 Q-6.85 -14.45 -5.3 -13.45" fill="#b19b85" fill-rule="evenodd" stroke="none"/>
    <path d="M-21.85 19.0 Q-23.4 20.8 -23.45 18.7 -23.45 17.25 -22.7 14.7 L-21.85 12.0 -20.1 11.8 Q-18.65 11.55 -18.8 6.95 -18.9 5.65 -16.9 -0.5 L-16.85 -0.5 -16.65 -0.4 -16.5 -0.35 -15.65 8.9 -15.3 9.8 Q-14.7 10.6 -9.65 12.3 -15.25 11.85 -15.9 12.4 -17.85 13.75 -19.15 15.65 L-21.85 19.0" fill="#724f44" fill-rule="evenodd" stroke="none"/>
    <path d="M0.1 4.7 L-2.1 4.6 -6.1 4.1 Q-6.35 4.1 -6.45 3.35 -6.55 2.55 -7.45 1.75 L-10.05 1.85 Q-11.8 2.8 -12.1 1.45 L-13.0 -3.05 -13.2 -3.9 Q-13.1 -4.55 -13.15 -5.4 -13.35 -7.05 -14.75 -9.6 -13.0 -8.75 -14.65 -9.9 -12.4 -8.65 -11.95 -8.6 L-8.25 -7.8 Q-7.65 -7.65 -7.65 -6.85 L-7.65 -5.4 -6.45 -4.7 -5.55 -4.35 -4.7 -3.9 Q-4.05 -3.5 -3.85 -2.65 L-3.65 -1.6 1.65 -0.3 Q-1.0 0.25 -0.5 2.2 L0.1 4.7" fill="#b19b85" fill-rule="evenodd" stroke="none"/>
    <path d="M-9.85 -4.65 L-9.65 -4.3 -7.25 -2.75 -7.05 -1.9 -9.4 -1.0 Q-8.3 0.95 -6.15 1.45 L-1.85 1.25 -4.9 3.35 -8.1 3.7 Q-9.3 3.6 -9.4 4.55 L-12.9 4.6 Q-11.4 3.95 -11.45 2.35 L-13.35 2.9 -12.9 -0.7 -12.75 -1.4 Q-13.85 -4.05 -13.9 -5.7 -13.95 -7.35 -14.3 -8.85 L-14.3 -9.2 Q-12.5 -7.75 -11.6 -7.25 L-10.35 -6.65 -10.25 -6.65 -9.85 -4.65" fill="#724f44" fill-rule="evenodd" stroke="none"/>
    <path d="M30.35 -3.65 L29.9 -4.5 30.15 -4.1 30.35 -3.65 M12.25 26.75 L12.0 26.85 Q12.05 26.7 12.2 26.75 L12.25 26.75" fill="#000000" fill-rule="evenodd" stroke="none"/>
    <path d="M20.05 -17.65 Q21.9 -16.85 23.35 -16.65 24.8 -16.45 25.45 -14.3 26.15 -12.15 25.9 -10.85 25.65 -9.5 25.9 -8.55 L27.9 -7.75 28.9 -6.65 29.9 -4.5 30.35 -3.65 30.45 -3.6 30.65 -3.15 30.95 -2.85 30.95 -2.75 Q32.7 -0.95 33.85 1.3 L34.35 2.45 Q35.0 4.15 35.0 5.75 L35.0 6.35 35.0 6.45 Q34.8 8.45 33.55 10.3 L32.5 11.75 28.95 15.35 Q26.35 17.35 23.25 18.8 L22.7 19.05 20.9 20.95 Q20.25 21.8 20.05 22.65 19.75 24.1 17.85 24.8 L15.2 25.3 14.4 25.0 13.15 24.4 13.05 24.4 13.0 24.35 11.75 24.5 11.5 24.6 Q10.8 25.15 10.2 26.05 L9.75 26.35 9.25 26.65 6.3 27.15 5.35 27.25 4.25 27.3 -3.5 27.05 -4.75 26.9 -5.85 26.75 -5.9 26.75 -6.05 26.85 -6.1 26.85 -6.7 26.9 -9.45 26.75 -9.95 26.7 Q-12.3 25.15 -13.3 23.2 -14.3 21.35 -14.85 20.8 L-15.0 20.65 Q-15.6 20.1 -17.15 20.1 L-19.85 20.5 -19.95 20.6 Q-23.0 21.35 -25.35 19.6 L-24.55 14.6 Q-23.85 15.15 -23.4 16.15 -22.85 17.35 -23.0 18.6 -23.15 19.8 -21.4 19.45 L-17.05 19.25 Q-14.6 19.4 -13.35 20.6 -12.25 21.8 -11.85 23.5 -11.55 24.9 -10.7 24.3 L-9.45 25.0 -8.4 25.5 -6.4 25.95 -5.95 25.95 -4.65 25.45 1.25 25.9 9.35 24.95 Q10.05 23.7 11.3 22.8 12.15 22.25 14.1 23.35 16.05 24.35 17.4 22.85 L20.0 19.25 Q21.3 17.1 25.0 15.95 L26.15 15.5 Q32.45 11.8 33.4 8.55 34.35 5.35 34.65 4.9 34.95 4.35 32.85 1.05 L30.45 -2.35 Q28.3 -3.4 28.3 -5.85 L27.95 -6.4 25.45 -7.25 Q24.85 -7.4 24.5 -7.95 23.15 -9.6 24.1 -11.65 24.6 -12.65 23.9 -13.6 22.2 -15.85 20.05 -17.65" fill="#5d3711" fill-rule="evenodd" stroke="none"/>
    <path d="M20.05 -17.65 Q22.2 -15.85 23.9 -13.6 24.6 -12.65 24.1 -11.65 23.15 -9.6 24.5 -7.95 24.85 -7.4 25.45 -7.25 L27.95 -6.4 28.3 -5.85 Q28.3 -3.4 30.45 -2.35 L32.85 1.05 Q34.95 4.35 34.65 4.9 34.35 5.35 33.4 8.55 32.45 11.8 26.15 15.5 L25.0 15.95 Q21.3 17.1 20.0 19.25 L17.4 22.85 Q16.05 24.35 14.1 23.35 12.15 22.25 11.3 22.8 10.05 23.7 9.35 24.95 L1.25 25.9 -4.65 25.45 -5.95 25.95 -6.4 25.95 -8.4 25.5 -9.45 25.0 -10.7 24.3 Q-11.55 24.9 -11.85 23.5 -12.25 21.8 -13.35 20.6 -14.6 19.4 -17.05 19.25 L-21.4 19.45 Q-23.15 19.8 -23.0 18.6 -22.85 17.35 -23.4 16.15 -23.85 15.15 -24.55 14.6 L-23.65 8.7 Q-20.35 7.3 -20.35 5.5 -20.35 1.2 -21.9 -0.4 L-22.5 -1.1 -22.5 -5.95 -21.7 -6.55 -15.95 -9.0 -8.55 -16.2 Q-23.6 -17.75 -18.15 -19.6 -15.2 -20.7 -7.85 -19.0 -7.45 -21.75 -2.6 -20.85 -3.5 -22.45 -2.65 -21.3 L5.2 -22.5 5.55 -21.65 6.2 -20.15 8.95 -19.95 Q16.05 -19.35 20.05 -17.65" fill="#aa6622" fill-rule="evenodd" stroke="none"/>
    <path d="M-5.0 3.5 Q-8.4 5.95 -7.5 7.5 L-10.15 7.7 Q-9.4 8.8 -10.85 9.8 -7.9 12.0 -9.95 12.3 L-14.1 12.0 -16.6 8.3 -16.6 -0.4 -15.05 3.3 Q-14.7 7.25 -12.2 4.4 L-9.4 4.4 -9.1 3.5 Q-7.85 -0.15 -5.6 3.5 L-4.35 2.95 -5.0 3.5" fill="#b19b85" fill-rule="evenodd" stroke="none"/>
    <path d="M-14.1 12.0 L-15.25 11.85 -19.55 13.5 -22.8 19.95 Q-27.9 20.8 -25.05 15.65 L-25.8 12.4 Q-35.1 4.35 -27.9 -4.7 -29.35 -13.15 -22.35 -12.35 L-22.7 -13.85 Q-22.6 -22.7 -13.3 -20.0 L-10.6 -20.2 Q-8.8 -23.15 -2.5 -22.9 -0.05 -25.65 2.85 -23.7 3.95 -23.7 6.85 -21.15 7.55 -20.4 6.95 -18.85 L12.95 -16.95 Q23.4 -16.6 12.95 -13.35 L4.25 -6.6 5.4 -2.9 Q7.85 0.0 0.65 -0.2 L0.65 0.0 0.45 -0.1 Q-0.45 0.15 -0.7 1.0 -1.0 1.65 -0.9 2.5 -2.3 3.2 -5.0 3.5 L-4.35 2.95 -5.6 3.5 Q-7.85 -0.15 -9.1 3.5 L-9.3 3.5 -9.4 4.4 -12.2 4.4 Q-14.7 7.25 -15.05 3.3 L-16.6 -0.4 -16.6 8.3 -14.1 12.0" fill="url(#gradient0)" fill-rule="evenodd" stroke="none"/>
    <path d="M28.6 1.6 L28.7 1.75 29.7 2.85 Q30.1 3.35 30.65 3.75 L30.3 4.15 Q29.35 5.0 28.95 6.15 L26.95 5.8 22.0 4.7 22.15 2.8 24.7 2.6 28.3 1.75 28.6 1.6 M34.45 7.45 L34.05 7.35 31.7 6.75 29.6 6.3 29.85 5.95 31.45 3.75 30.5 2.65 29.5 1.4 29.4 1.3 33.45 0.45 33.85 1.4 Q35.1 4.55 34.45 7.45 M29.35 -4.6 L29.85 -4.05 Q32.0 -2.1 33.1 -0.2 L30.1 0.6 29.15 0.85 28.8 0.6 28.8 0.5 29.5 -0.8 Q30.1 -2.05 29.35 -2.7 28.6 -3.4 29.15 -4.25 L29.35 -4.6 M26.05 -4.45 L27.05 -5.8 27.45 -6.25 28.9 -5.0 28.8 -4.85 Q28.4 -4.4 28.3 -3.8 L28.3 -3.7 28.2 -3.45 28.2 -3.3 28.3 -3.1 28.35 -2.95 27.6 -3.05 26.8 -3.1 26.6 -3.5 26.05 -4.45 M23.05 -0.8 L23.5 -1.65 Q23.75 -2.7 19.35 -5.1 L23.25 -4.05 25.65 -4.1 25.85 -3.6 Q26.0 -2.75 26.75 -2.55 L27.55 -2.25 28.8 -2.1 28.95 -2.05 28.95 -1.95 28.8 -1.35 28.75 -1.05 28.35 -0.35 Q28.15 0.1 28.1 0.5 L28.1 0.6 28.3 1.1 26.4 1.45 22.1 2.35 20.4 2.15 20.8 1.65 23.05 -0.8 M31.1 7.3 L30.95 7.65 30.3 8.9 29.35 10.0 29.35 10.1 27.25 10.25 25.65 10.0 23.35 9.9 21.9 9.7 22.0 8.25 22.0 5.35 21.75 5.2 21.35 7.5 Q20.9 9.3 21.0 9.6 L20.8 9.45 20.8 9.25 20.55 9.1 20.4 9.1 20.45 9.05 18.8 8.05 16.5 7.05 15.5 6.7 16.75 5.7 18.05 4.5 19.55 3.15 21.2 3.05 21.1 4.8 21.3 4.9 Q21.55 4.55 21.7 5.0 L23.75 5.4 29.95 7.05 31.1 7.3 M10.25 17.1 Q10.45 16.9 10.45 17.55 L10.0 22.4 9.45 26.45 9.25 26.7 8.45 26.9 5.0 27.1 Q2.9 27.55 -0.05 27.1 -3.1 26.65 -2.55 26.45 0.3 25.0 0.7 24.55 2.65 22.65 3.3 21.4 L6.55 16.7 10.0 17.1 10.25 17.1 M17.6 15.85 L18.05 14.95 20.6 15.9 24.65 17.5 Q21.4 19.3 21.55 18.85 L20.95 20.2 20.2 21.6 20.15 21.45 17.7 17.35 17.1 16.45 17.6 15.85 M15.0 16.35 L14.75 16.1 Q14.0 14.95 12.85 15.5 L10.4 16.5 9.35 16.3 7.9 16.3 6.2 16.45 3.1 11.8 Q6.95 13.55 7.35 13.5 L9.9 12.8 10.65 12.55 13.05 11.05 13.4 10.65 14.6 11.65 16.1 13.5 17.4 14.75 17.3 14.8 16.75 15.7 Q16.55 15.85 16.5 16.1 15.85 15.95 15.0 16.35 M16.3 16.75 L16.35 16.85 16.3 16.85 16.35 16.9 16.5 16.9 17.3 18.05 19.2 21.4 19.65 22.25 18.95 23.4 Q17.2 25.75 11.3 22.95 L10.05 25.7 10.65 20.05 11.0 17.35 10.9 17.35 11.0 17.3 11.05 16.95 11.0 16.9 11.05 16.9 13.55 15.9 14.4 16.75 Q14.6 16.95 14.95 16.95 L16.25 16.7 16.3 16.75 M17.8 11.45 L19.2 11.05 Q19.45 12.25 20.15 13.2 L21.6 15.2 21.8 15.5 Q19.85 14.75 17.9 14.35 L16.7 13.15 15.9 12.15 16.25 12.0 17.8 11.45 M20.05 11.15 L20.0 10.85 20.6 9.9 20.7 9.9 21.15 10.1 21.8 10.5 21.9 10.1 22.5 10.2 24.8 10.3 27.0 10.45 24.85 14.55 24.8 14.55 Q24.05 14.6 23.5 15.0 23.05 15.35 22.85 15.6 L20.95 13.25 Q20.15 12.4 20.05 11.15 M15.85 7.55 Q16.95 7.95 18.05 8.5 L19.85 9.25 19.95 9.3 20.2 9.4 20.4 9.45 Q19.95 10.0 19.85 10.65 L19.25 10.5 15.45 11.55 15.3 11.4 Q14.6 10.5 13.7 10.2 14.3 8.65 12.45 5.1 L15.85 7.55 M30.95 10.85 L32.05 12.15 Q29.95 14.5 26.55 16.5 L25.45 17.1 23.25 16.15 23.1 15.95 23.95 15.3 Q24.4 14.9 24.9 14.9 26.4 12.75 27.25 10.4 27.65 10.8 28.5 10.6 L29.55 10.45 Q30.45 10.25 30.95 10.85 M32.3 11.8 L32.1 11.65 Q31.65 10.7 30.7 10.3 L30.3 10.1 30.65 9.65 31.25 8.7 31.85 7.5 34.25 8.15 33.65 9.6 32.3 11.8" fill="url(#gradient1)" fill-rule="evenodd" stroke="none"/>
    <path d="M8.5 -13.25 L8.5 -13.3 8.9 -13.95 9.0 -14.1 9.6 -14.05 12.75 -13.85 12.75 -13.75 12.75 -13.7 12.7 -13.65 12.6 -13.55 12.55 -13.5 12.5 -13.45 12.55 -13.35 Q12.5 -11.9 11.65 -10.6 10.8 -9.4 9.0 -8.65 7.1 -8.0 9.7 -4.45 4.7 -6.65 3.75 -5.85 3.2 -5.45 3.15 -6.1 L2.85 -6.9 2.65 -6.9 2.45 -6.7 1.6 -5.8 Q1.0 -5.0 0.05 -5.0 L0.25 -7.1 0.1 -8.05 Q-0.35 -8.85 -3.25 -1.5 -1.8 -9.35 -2.25 -9.95 L-3.55 -11.75 -3.65 -11.95 -2.2 -11.4 -0.85 -11.2 Q0.25 -11.15 1.05 -12.1 L2.0 -13.05 1.8 -11.9 Q1.7 -11.55 1.9 -11.35 2.7 -10.6 4.0 -11.0 L4.35 -11.4 4.75 -12.25 Q5.4 -11.2 6.9 -11.35 L7.5 -11.5 Q8.5 -11.95 8.5 -13.25" fill="#724f44" fill-rule="evenodd" stroke="none"/>
    <path d="M-15.4 -16.45 Q-15.0 -16.2 -15.0 -15.7 L-14.75 -14.8 -12.95 -13.45 -10.9 -11.6 -10.05 -10.6 -11.0 -10.5 Q-12.05 -10.4 -12.4 -10.8 -13.85 -10.4 -14.8 -11.35 L-15.75 -12.25 -21.9 -11.95 Q-22.7 -12.0 -22.6 -12.75 -23.2 -13.65 -23.2 -14.85 -23.3 -16.0 -22.7 -16.95 L-20.85 -19.4 Q-20.4 -19.95 -19.65 -19.9 L-16.9 -16.95 Q-16.15 -16.95 -15.4 -16.45" fill="url(#gradient2)" fill-rule="evenodd" stroke="none"/>
    <path d="M-19.05 0.95 Q-18.2 1.0 -17.75 1.35 L-18.5 1.95 Q-19.45 2.5 -19.9 2.35 -21.0 3.45 -22.3 3.1 L-23.55 2.85 Q-25.95 4.7 -28.7 6.05 -29.45 6.45 -29.7 5.8 L-30.6 5.15 -30.75 1.1 Q-30.75 -0.2 -29.8 -0.85 -28.9 -1.45 -28.45 -2.0 L-27.75 -1.65 -26.85 -0.75 -25.35 -1.05 Q-24.9 -1.0 -24.6 -0.6 L-23.95 0.05 -21.65 0.35 -19.05 0.95" fill="url(#gradient3)" fill-rule="evenodd" stroke="none"/>
  </g>
  <defs>
    <radialGradient cx="0" cy="0" gradientTransform="matrix(0.0233, -0.0184, 0.0169, 0.0214, -8.9, -8.0)" gradientUnits="userSpaceOnUse" id="gradient0" r="819.2" spreadMethod="pad">
      <stop offset="0.24313725490196078" stop-color="#8a725b"/>
      <stop offset="1.0" stop-color="#4a2a1b"/>
    </radialGradient>
    <radialGradient cx="0" cy="0" gradientTransform="matrix(0.1098, 0.0, 0.0, 0.0444, 24.05, 0.1)" gradientUnits="userSpaceOnUse" id="gradient1" r="819.2" spreadMethod="pad">
      <stop offset="0.043137254901960784" stop-color="#8c1b07"/>
      <stop offset="0.6470588235294118" stop-color="#3a3730"/>
    </radialGradient>
    <linearGradient gradientTransform="matrix(0.0125, 0.009, -0.003, 0.0042, -16.9, -12.9)" gradientUnits="userSpaceOnUse" id="gradient2" spreadMethod="pad" x1="-819.2" x2="819.2">
      <stop offset="0.043137254901960784" stop-color="#150f0d"/>
      <stop offset="0.7019607843137254" stop-color="#724f44"/>
    </linearGradient>
    <linearGradient gradientTransform="matrix(0.0063, 6.0E-4, -5.0E-4, 0.0052, -27.65, 2.1)" gradientUnits="userSpaceOnUse" id="gradient3" spreadMethod="pad" x1="-819.2" x2="819.2">
      <stop offset="0.12156862745098039" stop-color="#020000"/>
      <stop offset="1.0" stop-color="#724f44"/>
    </linearGradient>
  </defs>
</svg>
