<?xml version="1.0" encoding="UTF-8" standalone="no"?>
<svg xmlns:ffdec="https://www.free-decompiler.com/flash" xmlns:xlink="http://www.w3.org/1999/xlink" ffdec:objectType="shape" height="77.55px" width="88.3px" xmlns="http://www.w3.org/2000/svg">
  <g transform="matrix(1.0, 0.0, 0.0, 1.0, 1.5, 1.5)">
    <path d="M51.8 3.6 L45.25 4.15 39.0 4.55 Q36.85 4.35 33.2 2.15 29.5 -0.05 25.45 0.0 21.4 0.05 17.0 3.0 13.6 5.3 12.15 8.55 10.45 12.3 4.8 15.15 0.0 17.6 0.0 20.1 L2.65 28.55 Q2.65 30.7 1.55 33.45 0.45 36.15 0.45 37.35 0.45 39.95 4.95 43.7 9.7 47.55 9.5 52.7 9.3 57.8 10.75 62.2 12.05 66.0 18.5 66.0 L29.45 65.5 Q31.6 65.5 34.1 66.5 36.55 67.45 38.4 69.85 41.95 74.55 47.5 74.55 50.3 74.55 52.0 72.8 53.8 70.9 55.4 65.95 56.5 62.65 60.05 61.5 62.1 60.8 66.55 59.8 67.9 59.3 69.9 56.2 71.85 53.05 76.6 52.8 L83.2 52.05 Q85.1 51.6 85.3 49.65 85.45 47.65 84.35 45.6 83.2 43.55 81.4 36.6 79.6 29.6 75.8 27.8 L72.5 26.45 Q70.6 25.65 69.1 24.2 67.6 22.7 67.0 17.25 66.4 11.75 65.1 9.3 63.75 6.8 60.2 4.9 56.6 3.0 51.8 3.6 Z" fill="none" stroke="#ffffff" stroke-linecap="round" stroke-linejoin="round" stroke-width="3.0"/>
  </g>
</svg>
