<?xml version="1.0" encoding="UTF-8" standalone="no"?>
<svg xmlns:ffdec="https://www.free-decompiler.com/flash" xmlns:xlink="http://www.w3.org/1999/xlink" ffdec:objectType="shape" height="70.6px" width="82.85px" xmlns="http://www.w3.org/2000/svg">
  <g transform="matrix(1.0, 0.0, 0.0, 1.0, 40.2, 35.6)">
    <path d="M38.15 -3.1 Q37.45 2.0 41.45 6.3 45.35 10.4 36.65 12.5 27.9 14.55 27.55 17.55 27.35 20.65 21.5 21.55 15.6 22.5 14.5 26.7 13.55 30.75 11.55 32.9 9.55 35.15 6.85 35.0 4.1 34.9 1.3 33.15 -1.6 31.25 -3.25 28.0 -4.9 24.8 -16.15 26.3 -27.5 27.9 -28.15 22.8 -28.75 17.55 -27.45 12.55 -26.5 9.4 -28.3 7.1 -30.2 4.75 -35.6 1.6 -40.9 -1.6 -36.75 -6.05 -32.5 -10.5 -32.75 -12.25 -33.0 -14.0 -33.7 -14.8 -34.55 -15.4 -38.1 -16.6 -41.7 -17.95 -39.1 -19.25 -36.6 -20.6 -33.85 -20.75 -31.2 -20.9 -30.9 -21.75 -27.45 -23.9 -26.9 -27.75 -26.1 -33.6 -20.25 -35.6 -11.25 -35.7 -3.55 -31.4 L-2.8 -31.25 12.65 -32.5 Q19.35 -32.8 23.45 -28.15 25.95 -25.25 25.6 -21.7 25.15 -16.3 27.55 -11.75 28.2 -10.55 29.6 -10.35 35.5 -9.0 37.75 -4.5 38.2 -3.9 38.15 -3.1" fill="#7bd8e7" fill-opacity="0.36078432" fill-rule="evenodd" stroke="none"/>
    <path d="M-14.05 -27.75 Q-16.9 -28.55 -19.7 -28.75 L-18.2 -29.55 Q-17.3 -29.55 -16.65 -29.15 L-14.05 -27.75 M-30.15 -4.7 L-29.5 -4.7 Q-27.35 -5.05 -25.6 -1.6 -24.5 0.85 -23.75 3.95 -24.95 1.05 -27.9 -0.9 -30.3 -2.6 -30.15 -4.7 M-23.1 9.3 Q-23.0 12.05 -23.3 15.05 L-23.2 13.15 -23.1 9.3 M-7.5 21.45 L-6.85 21.35 Q-5.9 21.15 -5.0 21.65 -2.6 23.05 -0.45 24.85 L-5.25 22.55 Q-6.3 21.95 -7.5 21.45 M7.75 26.4 Q9.9 25.05 10.9 22.55 10.55 18.3 14.7 16.4 16.75 15.4 19.3 15.7 L19.15 15.7 Q15.8 18.0 13.05 21.35 L11.1 23.85 Q9.6 25.8 7.75 26.4 M25.6 11.25 L26.25 9.6 26.8 7.6 Q27.0 6.7 27.35 5.9 L27.65 4.05 27.55 2.55 Q27.35 0.55 27.9 -1.3 L27.9 -2.0 Q20.7 -4.3 17.95 -10.6 17.2 -12.3 17.45 -14.2 L17.55 -15.85 21.15 -9.45 Q21.8 -8.15 23.1 -7.45 27.55 -5.55 29.1 -0.9 L28.75 0.15 Q28.45 1.25 28.45 2.65 L28.45 4.85 28.65 6.3 Q26.9 7.4 26.45 9.3 L25.6 11.25 M16.75 -20.8 Q15.8 -23.2 13.85 -25.15 L12.75 -25.95 Q10.45 -28.25 6.95 -28.65 L1.4 -28.45 Q-2.85 -27.35 -7.3 -27.55 -8.8 -27.65 -10.15 -28.55 -13.95 -31.2 -18.4 -31.7 -19.7 -31.5 -20.7 -30.8 L-21.25 -30.5 Q-22.45 -29.85 -22.75 -28.55 L-23.0 -27.95 -23.65 -26.45 Q-23.95 -25.35 -24.4 -24.2 -24.5 -23.6 -24.75 -22.9 L-25.05 -22.8 -25.15 -22.8 -25.25 -22.7 -25.4 -22.7 -25.5 -22.6 -25.5 -22.5 -25.6 -22.3 -25.8 -22.2 -27.35 -21.9 Q-26.6 -22.5 -26.05 -25.85 -25.6 -29.35 -23.85 -31.3 -22.2 -33.3 -19.4 -33.5 -12.1 -35.35 -9.8 -32.3 -7.5 -29.25 -5.35 -28.85 -3.15 -28.55 2.05 -30.4 7.2 -32.3 12.3 -31.7 17.45 -31.1 20.15 -27.35 22.85 -23.6 23.4 -20.4 23.85 -17.15 26.7 -11.7 29.5 -6.35 32.45 -6.65 35.3 -6.95 35.2 -3.6 35.05 -0.4 32.8 4.05 32.9 7.6 34.3 10.45 35.6 13.15 32.45 13.65 25.9 15.2 25.15 16.7 22.45 22.25 15.45 22.05 L15.55 21.85 Q18.3 18.6 22.2 17.0 25.5 15.6 26.9 12.45 27.75 10.25 29.65 8.7 31.15 7.4 31.5 5.6 L31.9 3.05 Q32.25 -0.8 30.95 -4.1 29.65 -7.65 26.35 -7.65 23.0 -8.95 21.35 -12.5 19.4 -16.85 16.75 -20.8 M-28.55 -21.35 L-28.95 -21.1 Q-34.3 -17.75 -30.95 -12.0 -30.3 -10.7 -30.7 -9.45 -31.9 -6.55 -32.0 -3.3 -32.0 -2.3 -31.15 -1.8 -26.6 1.15 -25.9 6.1 -24.95 12.85 -25.25 19.8 -25.25 20.65 -24.75 20.85 -20.05 22.25 -14.7 21.95 -12.4 21.75 -10.45 22.55 L-8.15 23.65 -16.35 24.05 Q-22.65 24.55 -25.05 22.55 -27.45 20.45 -27.0 17.6 -26.7 14.65 -27.0 10.1 -27.45 5.6 -30.5 3.05 -33.55 0.45 -34.55 -2.5 -35.05 -4.0 -34.3 -5.25 -32.9 -7.55 -32.25 -9.85 -31.6 -12.3 -32.9 -15.95 -34.3 -19.55 -31.25 -20.5 L-28.55 -21.35 M-4.45 25.15 Q-0.1 27.1 4.45 28.8 5.9 29.3 7.3 28.5 10.65 26.6 13.5 23.95 L11.65 27.2 Q10.15 30.0 5.0 30.35 -0.1 30.65 -2.7 27.2 -3.6 26.0 -4.45 25.15" fill="#c1ebfb" fill-rule="evenodd" stroke="none"/>
    <path d="M12.75 -25.95 L11.85 -26.25 10.9 -26.45 9.9 -26.45 6.1 -26.65 3.5 -26.55 -2.5 -26.05 -5.75 -25.55 Q-7.1 -25.25 -8.4 -25.85 L-14.05 -27.75 -16.65 -29.15 Q-17.3 -29.55 -18.2 -29.55 L-19.7 -28.75 -20.6 -28.65 -21.25 -28.05 Q-22.75 -26.35 -22.65 -24.1 -22.55 -21.6 -24.6 -20.3 -26.05 -19.45 -27.65 -19.05 -31.5 -17.95 -29.95 -14.0 L-29.65 -13.3 -29.5 -13.0 -29.5 -12.7 -29.4 -12.3 -29.4 -12.1 -29.4 -11.9 Q-28.85 -8.15 -31.35 -5.05 L-31.35 -4.9 -30.15 -4.7 Q-30.3 -2.6 -27.9 -0.9 -24.95 1.05 -23.75 3.95 L-23.3 6.5 -23.3 6.9 -23.1 9.3 -23.2 13.15 -23.3 15.05 -23.75 17.6 -23.85 18.0 Q-24.2 19.7 -22.45 20.25 -15.25 22.45 -7.5 21.45 -6.3 21.95 -5.25 22.55 L-0.45 24.85 0.85 26.0 Q2.95 27.8 5.9 27.1 L7.75 26.4 Q9.6 25.8 11.1 23.85 L13.05 21.35 Q15.8 18.0 19.15 15.7 L19.3 15.7 Q22.85 15.9 24.6 13.05 L25.15 12.25 25.6 11.25 26.45 9.3 Q26.9 7.4 28.65 6.3 L28.45 4.85 28.45 2.65 Q28.45 1.25 28.75 0.15 L29.1 -0.9 Q27.55 -5.55 23.1 -7.45 21.8 -8.15 21.15 -9.45 L17.55 -15.85 Q17.55 -18.55 16.75 -20.8 19.4 -16.85 21.35 -12.5 23.0 -8.95 26.35 -7.65 29.65 -7.65 30.95 -4.1 32.25 -0.8 31.9 3.05 L31.5 5.6 Q31.15 7.4 29.65 8.7 27.75 10.25 26.9 12.45 25.5 15.6 22.2 17.0 18.3 18.6 15.55 21.85 L15.45 22.05 15.35 22.05 Q14.6 22.05 14.25 22.65 L13.5 23.95 Q10.65 26.6 7.3 28.5 5.9 29.3 4.45 28.8 -0.1 27.1 -4.45 25.15 -6.2 23.65 -7.75 23.65 L-8.15 23.65 -10.45 22.55 Q-12.4 21.75 -14.7 21.95 -20.05 22.25 -24.75 20.85 -25.25 20.65 -25.25 19.8 -24.95 12.85 -25.9 6.1 -26.6 1.15 -31.15 -1.8 -32.0 -2.3 -32.0 -3.3 -31.9 -6.55 -30.7 -9.45 -30.3 -10.7 -30.95 -12.0 -34.3 -17.75 -28.95 -21.1 L-28.55 -21.35 -28.45 -21.4 -27.45 -21.8 -27.35 -21.9 -25.8 -22.2 -25.6 -22.3 -25.5 -22.5 -25.5 -22.6 -25.4 -22.7 -25.25 -22.7 -25.15 -22.8 -25.05 -22.8 -24.75 -22.9 Q-24.5 -23.6 -24.4 -24.2 -23.95 -25.35 -23.65 -26.45 L-23.0 -27.95 -22.75 -28.55 Q-22.45 -29.85 -21.25 -30.5 L-20.7 -30.8 Q-19.7 -31.5 -18.4 -31.7 -13.95 -31.2 -10.15 -28.55 -8.8 -27.65 -7.3 -27.55 -2.85 -27.35 1.4 -28.45 L6.95 -28.65 Q10.45 -28.25 12.75 -25.95 M15.35 19.2 L15.45 19.4 15.45 19.3 15.35 19.2" fill="#db9e28" fill-rule="evenodd" stroke="none"/>
    <path d="M-30.45 -8.6 Q-29.6 -11.0 -30.7 -13.95 -32.6 -18.6 -28.0 -19.65 -23.4 -20.75 -23.25 -25.55 -23.0 -30.6 -19.0 -30.4 -14.9 -30.4 -12.6 -29.05 -9.8 -27.55 -6.25 -26.7 -2.75 -26.0 2.35 -27.7 7.35 -29.5 10.75 -28.45 14.15 -27.35 16.75 -26.15 19.25 -25.05 20.25 -18.6 21.2 -12.25 23.05 -9.6 24.85 -7.0 27.7 -5.8 30.7 -4.7 30.35 -2.4 29.95 -0.65 29.15 0.75 27.65 3.55 29.4 5.8 31.2 8.05 23.4 14.3 19.65 20.15 15.9 20.75 12.1 21.25 10.4 25.95 8.8 30.6 3.1 27.7 -0.9 25.7 -2.95 24.3 -2.95 24.05 -3.3 23.75 -4.9 21.85 -7.25 20.85 -8.9 20.15 -10.6 20.1 L-19.25 19.75 Q-21.55 19.75 -22.9 17.85 -23.75 16.75 -24.1 15.35 L-24.6 13.8 -24.5 13.3 Q-23.5 8.8 -25.35 5.25 -24.95 3.7 -25.1 2.15 -25.35 0.4 -26.9 -0.55 -29.0 -1.9 -30.55 -3.75 -31.65 -5.05 -30.7 -6.55 -29.95 -7.75 -30.45 -8.6 M-32.75 -4.0 Q-32.85 -5.05 -32.15 -5.95 L-32.4 -5.4 -32.75 -4.0 M-14.15 -26.6 L-14.05 -26.95 -14.15 -26.85 -14.15 -26.6" fill="url(#gradient0)" fill-rule="evenodd" stroke="none"/>
    <path d="M-2.95 24.3 L-2.95 24.4 -4.2 23.45 -4.3 23.4 Q-5.15 22.7 -6.6 22.35 L-11.45 21.85 -21.6 21.25 Q-24.75 20.85 -24.95 17.45 L-24.85 15.05 -24.7 14.05 -24.6 13.8 -24.1 15.35 Q-23.75 16.75 -22.9 17.85 -21.55 19.75 -19.25 19.75 L-10.6 20.1 Q-8.9 20.15 -7.25 20.85 -4.9 21.85 -3.3 23.75 -2.95 24.05 -2.95 24.3 M-25.35 5.25 L-25.35 5.3 -25.95 4.2 -28.75 1.25 -29.45 0.75 -32.4 -2.85 -32.75 -3.85 -32.75 -4.0 -32.4 -5.4 -32.15 -5.95 -31.9 -6.3 -31.8 -6.4 Q-30.9 -7.4 -30.45 -8.6 -29.95 -7.75 -30.7 -6.55 -31.65 -5.05 -30.55 -3.75 -29.0 -1.9 -26.9 -0.55 -25.35 0.4 -25.1 2.15 -24.95 3.7 -25.35 5.25" fill="#db9e28" fill-rule="evenodd" stroke="none"/>
    <path d="M16.85 -4.6 Q13.55 -13.6 9.2 -17.35 3.95 -22.0 -7.7 -22.0 L-8.45 -23.05 -5.15 -25.4 2.4 -27.1 4.6 -27.6 Q7.75 -26.85 11.25 -24.75 17.7 -21.1 20.6 -12.85 L16.1 -12.85 17.45 -9.55 16.85 -4.6" fill="#bf761d" fill-rule="evenodd" stroke="none"/>
    <path d="M16.85 -4.6 L17.45 -9.55 16.1 -12.85 20.6 -12.85 21.7 -8.7 22.95 -10.9 Q21.95 -9.1 23.45 -9.1 24.4 -11.05 25.45 -11.65 27.3 -12.75 24.15 -4.95 L17.25 -3.5 16.85 -4.6" fill="#a16113" fill-rule="evenodd" stroke="none"/>
    <path d="M14.05 -26.5 Q23.3 -22.7 26.6 -9.35 L17.45 -8.0 17.45 -7.35 Q15.85 -18.35 9.65 -22.2 3.35 -26.1 -8.45 -23.05 L-6.75 -24.8 Q4.8 -30.4 14.05 -26.5" fill="#b85421" fill-rule="evenodd" stroke="none"/>
    <path d="M13.95 -13.25 L13.95 -14.75 15.6 -10.5 15.6 -8.25 Q14.95 -11.85 13.95 -13.25 M10.7 -18.1 L10.7 -19.6 13.05 -16.2 13.05 -15.0 Q12.05 -16.75 10.7 -18.1 M9.1 -19.6 L8.2 -20.25 8.2 -21.3 9.5 -20.3 9.5 -19.3 9.1 -19.6 M-0.95 -23.55 L-0.95 -22.75 -2.55 -22.55 -3.05 -23.5 -0.95 -23.55 M-4.3 -23.35 L-4.3 -22.55 -5.9 -22.45 -6.3 -23.1 -4.3 -23.35 M2.2 -23.4 L2.2 -22.6 0.05 -22.8 0.05 -23.6 2.2 -23.4 M4.15 -22.15 L4.15 -22.95 4.55 -22.85 6.25 -22.25 6.25 -21.25 4.55 -22.05 4.15 -22.15" fill="#663f0f" fill-rule="evenodd" stroke="none"/>
    <path d="M16.5 10.25 L30.9 30.3 30.55 31.2 21.9 34.85 6.45 10.95 6.6 9.85 16.5 10.25" fill="#2e2e2e" fill-rule="evenodd" stroke="none"/>
    <path d="M30.9 30.0 L22.25 33.35 6.8 9.75 15.3 6.7 30.9 30.0" fill="#666666" fill-rule="evenodd" stroke="none"/>
    <path d="M-21.85 -19.85 L-22.35 -21.75 -21.4 -24.2 -12.8 -26.15 -9.0 -24.05 -9.0 -20.4 Q-13.65 -18.1 -18.45 -15.9 -20.8 -16.9 -21.85 -19.85" fill="#a82836" fill-rule="evenodd" stroke="none"/>
    <path d="M-17.15 12.55 Q-17.75 13.65 -18.6 12.7 -18.95 12.3 -18.75 11.6 -18.6 10.75 -17.85 10.6 -16.4 11.0 -17.15 12.55" fill="#db9e28" fill-rule="evenodd" stroke="none"/>
    <path d="M-8.9 -23.85 L-17.65 -19.95 -21.65 -24.2 Q-18.5 -28.1 -13.25 -28.2 -10.6 -27.0 -8.9 -23.85" fill="#d74d5c" fill-rule="evenodd" stroke="none"/>
    <path d="M-14.4 -17.75 L-14.4 -20.65 Q-13.05 -21.25 -11.7 -22.0 L-11.7 -19.1 -14.4 -17.75" fill="#5f0a13" fill-rule="evenodd" stroke="none"/>
    <path d="M28.9 -0.7 Q27.55 1.1 26.8 0.25 25.95 -0.7 26.8 -1.85 27.65 -3.15 28.4 -3.3 30.3 -2.45 28.9 -0.7" fill="#db9e28" fill-rule="evenodd" stroke="none"/>
    <path d="M19.1 4.75 Q19.95 5.8 18.6 5.35 17.15 4.85 17.8 3.75 18.25 3.65 19.1 4.75" fill="#db9e28" fill-rule="evenodd" stroke="none"/>
    <path d="M-23.05 -6.0 Q-24.05 -5.1 -24.65 -5.5 -25.3 -6.0 -24.65 -6.6 -24.0 -7.25 -23.45 -7.35 -22.0 -6.9 -23.05 -6.0" fill="#db9e28" fill-rule="evenodd" stroke="none"/>
    <path d="M4.55 16.5 Q3.7 17.6 3.25 17.05 2.7 16.5 3.25 15.75 3.75 14.95 4.25 14.85 5.4 15.4 4.55 16.5" fill="#db9e28" fill-rule="evenodd" stroke="none"/>
    <path d="M-15.0 14.0 L-16.45 14.1 Q-16.8 13.85 -16.6 13.45 -16.45 12.95 -15.7 12.85 -14.25 13.1 -15.0 14.0" fill="#db9e28" fill-rule="evenodd" stroke="none"/>
    <path d="M20.2 30.85 L20.05 30.45 28.9 26.8 29.05 27.2 20.2 30.85" fill="#2e2e2e" fill-rule="evenodd" stroke="none"/>
    <path d="M18.4 28.4 L18.25 28.0 27.1 24.35 27.25 24.75 18.4 28.4" fill="#2e2e2e" fill-rule="evenodd" stroke="none"/>
    <path d="M17.0 25.85 L16.85 25.45 25.7 21.8 25.85 22.2 17.0 25.85" fill="#2e2e2e" fill-rule="evenodd" stroke="none"/>
    <path d="M15.05 23.3 L14.9 22.9 23.75 19.25 23.9 19.65 15.05 23.3" fill="#2e2e2e" fill-rule="evenodd" stroke="none"/>
    <path d="M13.4 20.85 L13.25 20.45 22.1 16.8 22.25 17.2 13.4 20.85" fill="#2e2e2e" fill-rule="evenodd" stroke="none"/>
    <path d="M11.75 18.25 L11.6 17.85 20.45 14.2 20.6 14.6 11.75 18.25" fill="#2e2e2e" fill-rule="evenodd" stroke="none"/>
    <path d="M9.75 15.45 L9.6 15.05 18.45 11.4 18.6 11.8 9.75 15.45" fill="#2e2e2e" fill-rule="evenodd" stroke="none"/>
    <path d="M7.65 12.7 L7.5 12.3 16.35 8.65 16.5 9.05 7.65 12.7" fill="#2e2e2e" fill-rule="evenodd" stroke="none"/>
    <path d="M-9.1 -24.2 L-8.9 -23.75 -17.6 -19.7 -17.75 -20.1 -9.1 -24.2" fill="#ffaab3" fill-rule="evenodd" stroke="none"/>
    <path d="M9.85 -22.4 Q14.8 -19.35 16.55 -11.15 14.5 -19.0 9.6 -22.1 3.3 -25.9 -8.3 -22.85 L-8.4 -23.25 Q3.5 -26.4 9.85 -22.4" fill="#ff742e" fill-rule="evenodd" stroke="none"/>
    <path d="M27.1 -3.35 Q26.5 -2.25 25.65 -3.2 25.3 -3.6 25.5 -4.3 25.65 -5.15 26.4 -5.3 27.85 -4.9 27.1 -3.35" fill="#db9e28" fill-rule="evenodd" stroke="none"/>
    <path d="M5.05 25.35 Q4.45 26.45 3.6 25.5 3.25 25.1 3.45 24.4 3.6 23.55 4.35 23.4 5.8 23.8 5.05 25.35" fill="#db9e28" fill-rule="evenodd" stroke="none"/>
    <path d="M23.9 -11.95 L17.2 -10.75 Q16.4 -10.55 16.8 -11.2 L18.0 -11.95 24.75 -13.1 Q25.95 -12.2 23.9 -11.95" fill="#803610" fill-rule="evenodd" stroke="none"/>
    <path d="M16.05 -13.75 Q17.8 -14.55 19.95 -14.7 L24.15 -15.55 24.3 -15.5 24.45 -15.4 24.5 -15.35 Q22.45 -14.2 19.8 -14.05 L16.5 -13.4 16.15 -13.6 16.05 -13.75" fill="#803610" fill-rule="evenodd" stroke="none"/>
    <path d="M20.7 -18.05 Q18.3 -18.05 16.05 -17.15 L14.55 -17.25 Q16.6 -18.05 18.95 -18.5 L22.35 -19.15 Q22.45 -18.0 20.7 -18.05" fill="#803610" fill-rule="evenodd" stroke="none"/>
    <path d="M20.0 -22.85 Q20.2 -22.85 20.25 -22.65 L20.25 -22.6 15.45 -20.9 11.85 -20.25 Q12.75 -20.7 14.6 -21.2 L18.15 -22.3 20.0 -22.85" fill="#803610" fill-rule="evenodd" stroke="none"/>
    <path d="M16.0 -25.0 L17.3 -25.3 Q17.4 -24.6 16.35 -24.35 L11.35 -22.85 9.4 -22.3 8.95 -22.4 Q12.0 -24.05 16.0 -25.0" fill="#803610" fill-rule="evenodd" stroke="none"/>
    <path d="M-18.8 -21.6 L-17.1 -19.6 -17.1 -19.55 -17.45 -19.5 -17.5 -19.5 -19.75 -21.75 Q-20.9 -22.75 -21.3 -23.85 L-21.25 -23.85 -18.8 -21.6" fill="#803610" fill-rule="evenodd" stroke="none"/>
    <path d="M-17.0 -20.85 L-16.95 -20.75 -16.9 -20.7 -17.3 -19.25 Q-17.6 -18.4 -18.2 -18.2 L-17.85 -19.7 -17.1 -20.85 -17.0 -20.85" fill="#803610" fill-rule="evenodd" stroke="none"/>
    <path d="M-20.75 -24.35 Q-20.4 -24.05 -20.65 -23.7 -21.2 -23.6 -21.55 -24.1 -21.85 -24.5 -21.35 -24.65 L-20.75 -24.35" fill="#803610" fill-rule="evenodd" stroke="none"/>
    <path d="M-16.0 -27.9 L-14.95 -28.35 Q-13.55 -28.6 -12.6 -27.9 L-11.8 -27.35 -9.4 -25.45 Q-8.8 -24.9 -8.75 -24.1 -8.75 -22.9 -9.85 -23.45 L-9.8 -23.5 -9.75 -23.6 -9.65 -23.6 -9.2 -23.7 Q-8.85 -24.5 -9.6 -25.1 L-10.1 -25.5 -10.8 -26.05 -13.0 -27.9 Q-14.9 -28.15 -16.55 -27.35 L-19.2 -25.95 -20.1 -25.3 Q-20.9 -24.45 -21.85 -24.35 L-19.45 -26.3 Q-18.5 -27.05 -17.3 -27.45 L-16.0 -27.9" fill="#803610" fill-rule="evenodd" stroke="none"/>
  </g>
  <defs>
    <radialGradient cx="0" cy="0" fx="92.80000000000001" fy="0" gradientTransform="matrix(0.0521, 0.0, 0.0, 0.0582, -1.65, 0.4)" gradientUnits="userSpaceOnUse" id="gradient0" r="819.2" spreadMethod="pad">
      <stop offset="0.0" stop-color="#ffef9d"/>
      <stop offset="0.9568627450980393" stop-color="#f7bd13"/>
    </radialGradient>
  </defs>
</svg>
