<?xml version="1.0" encoding="UTF-8" standalone="no"?>
<svg xmlns:ffdec="https://www.free-decompiler.com/flash" xmlns:xlink="http://www.w3.org/1999/xlink" ffdec:objectType="shape" height="84.35px" width="79.85px" xmlns="http://www.w3.org/2000/svg">
  <g transform="matrix(1.0, 0.0, 0.0, 1.0, 1.5, 1.5)">
    <path d="M73.55 29.4 Q73.55 25.2 71.35 22.15 68.7 18.4 62.95 16.65 58.5 14.15 55.25 10.8 L50.85 5.4 Q48.6 2.6 46.65 1.5 44.0 0.0 39.75 0.0 23.3 0.0 9.15 8.05 3.95 11.05 2.5 13.0 1.05 14.9 0.2 18.6 -0.7 22.3 2.95 24.75 6.55 27.2 6.7 29.45 6.85 31.65 3.75 38.3 0.65 44.95 0.65 47.85 0.6 50.75 3.1 52.85 4.3 53.85 8.65 55.9 12.45 57.7 14.15 59.65 16.65 62.65 16.75 65.65 16.85 69.1 18.95 71.05 21.05 73.0 29.15 72.95 37.25 72.85 39.65 76.65 42.0 80.4 43.2 80.9 L46.15 81.35 Q47.5 81.35 52.45 78.1 57.9 74.6 67.15 65.55 76.4 56.5 76.8 52.15 77.2 47.8 75.35 43.7 73.5 39.55 73.45 38.65 73.35 34.95 73.55 29.4 Z" fill="none" stroke="#ffffff" stroke-linecap="round" stroke-linejoin="round" stroke-width="3.0"/>
  </g>
</svg>
