<?xml version="1.0" encoding="UTF-8" standalone="no"?>
<svg xmlns:ffdec="https://www.free-decompiler.com/flash" xmlns:xlink="http://www.w3.org/1999/xlink" ffdec:objectType="shape" height="78.2px" width="75.2px" xmlns="http://www.w3.org/2000/svg">
  <g transform="matrix(1.0, 0.0, 0.0, 1.0, 38.0, 38.1)">
    <path d="M33.05 -5.45 Q32.9 -4.35 33.1 -3.0 33.5 -0.7 33.0 1.45 39.95 6.8 35.45 14.75 32.95 19.25 29.5 23.1 21.3 32.1 14.65 36.8 7.95 41.4 5.95 39.55 3.9 37.7 0.9 32.25 -2.75 30.3 -6.3 31.3 -9.1 32.05 -12.0 30.65 -15.8 28.85 -18.0 28.9 -20.3 28.9 -19.85 26.45 -19.4 23.9 -19.65 22.8 -20.85 20.2 -23.3 17.9 -36.65 13.05 -34.75 5.5 -32.8 -2.7 -30.65 -8.55 -28.55 -14.45 -34.05 -15.45 -39.6 -16.45 -37.35 -22.4 -35.2 -28.35 -23.75 -30.4 -12.4 -32.55 -4.6 -37.65 7.9 -39.75 12.2 -32.0 16.45 -24.35 25.65 -20.85 34.75 -17.4 33.05 -5.45" fill="#7bd8e7" fill-opacity="0.36078432" fill-rule="evenodd" stroke="none"/>
    <path d="M24.15 -15.0 Q26.6 -9.0 27.1 -6.85 27.9 -3.7 27.9 0.25 30.6 6.95 32.65 7.45 34.75 8.0 35.8 9.1 36.8 10.2 34.15 14.0 31.35 17.65 25.1 24.0 18.8 30.35 11.8 34.15 8.5 35.85 4.25 35.15 -0.1 34.4 -2.35 31.2 -4.6 28.05 -2.35 29.5 -4.4 28.05 -7.55 29.05 -10.65 30.0 -16.45 27.8 -18.7 25.65 -18.05 22.05 -19.65 20.75 -22.25 16.8 -35.45 10.2 -31.7 0.35 -29.4 -8.25 -29.4 -11.05 -29.4 -13.7 -32.75 -17.4 L-36.15 -21.2 Q-36.15 -25.55 -24.55 -30.9 -13.0 -36.3 -5.9 -35.75 1.2 -35.35 11.5 -28.15 21.75 -21.0 24.15 -15.0" fill="#c1ebfb" fill-rule="evenodd" stroke="none"/>
    <path d="M6.25 -24.65 Q6.3 -23.85 5.55 -23.6 L4.4 -23.75 4.25 -24.1 Q4.05 -24.45 4.25 -24.85 4.55 -25.4 5.15 -25.45 6.1 -25.45 6.25 -24.65" fill="#bd7c2d" fill-rule="evenodd" stroke="none"/>
    <path d="M20.1 -2.8 L19.9 -2.55 19.8 -2.5 19.35 -2.5 19.1 -2.6 19.05 -2.7 19.0 -2.85 19.0 -3.1 19.1 -3.45 19.25 -3.5 19.35 -3.55 19.55 -3.55 19.55 -3.6 19.8 -3.5 19.9 -3.45 20.05 -3.35 20.05 -3.25 20.1 -3.05 20.1 -2.8" fill="#bd7c2d" fill-rule="evenodd" stroke="none"/>
    <path d="M12.9 25.05 Q12.4 26.25 11.7 25.25 11.25 24.6 11.6 23.95 L11.7 23.85 11.85 23.8 12.15 23.75 Q13.35 23.95 12.9 25.05" fill="#bd7c2d" fill-rule="evenodd" stroke="none"/>
    <path d="M21.45 17.8 L21.7 17.85 21.8 17.95 21.95 18.05 22.05 18.2 22.05 18.6 22.0 19.05 21.85 19.35 21.6 19.55 20.6 19.6 20.5 19.45 20.3 19.05 Q20.25 18.6 20.55 18.2 20.85 17.85 21.3 17.8 L21.45 17.8" fill="#aa6d22" fill-rule="evenodd" stroke="none"/>
    <path d="M1.65 16.15 Q3.0 17.8 3.6 20.6 4.3 26.5 1.05 31.95 -2.2 31.85 -4.75 30.65 -4.95 23.45 -2.9 19.85 -1.25 16.75 1.65 16.15" fill="#5b1d0e" fill-opacity="0.4" fill-rule="evenodd" stroke="none"/>
    <path d="M2.95 21.15 Q3.05 21.85 2.35 22.1 L1.2 22.0 0.95 21.55 Q0.9 21.15 1.15 20.8 1.55 20.45 1.95 20.4 2.85 20.4 2.95 21.15" fill="#aa6d22" fill-rule="evenodd" stroke="none"/>
    <path d="M30.65 9.55 L30.85 10.05 30.65 10.5 30.45 10.55 30.05 10.55 29.7 10.45 29.55 10.2 Q29.45 9.85 29.65 9.6 29.85 9.3 30.2 9.3 L30.65 9.55" fill="#aa6d22" fill-rule="evenodd" stroke="none"/>
    <path d="M-26.7 -24.85 Q-28.1 -23.5 -28.35 -25.2 -28.5 -26.3 -27.3 -26.45 -25.35 -26.2 -26.7 -24.85" fill="#aa6d22" fill-rule="evenodd" stroke="none"/>
    <path d="M-12.05 21.45 L-11.8 21.5 -11.7 21.6 Q-11.65 21.6 -11.55 21.7 L-11.45 21.85 -11.45 22.25 -11.5 22.7 -11.65 23.0 -11.9 23.2 -12.9 23.25 -13.0 23.1 -13.2 22.7 Q-13.25 22.25 -12.95 21.85 -12.65 21.5 -12.2 21.45 L-12.05 21.45" fill="#aa6d22" fill-rule="evenodd" stroke="none"/>
    <path d="M16.25 -20.75 L16.5 -20.7 16.6 -20.6 16.75 -20.5 16.85 -20.35 16.85 -19.95 16.8 -19.5 16.65 -19.2 16.4 -19.0 15.4 -18.95 15.3 -19.1 15.1 -19.5 Q15.05 -19.95 15.35 -20.35 15.65 -20.7 16.1 -20.75 L16.25 -20.75" fill="#aa6d22" fill-rule="evenodd" stroke="none"/>
    <path d="M-26.15 -27.05 L-26.05 -27.05 -25.95 -26.95 -25.9 -26.95 -25.85 -26.85 -25.85 -26.65 -25.9 -26.45 -25.95 -26.3 -26.05 -26.2 -26.55 -26.15 -26.65 -26.2 -26.7 -26.45 -26.6 -26.85 -26.2 -27.05 -26.15 -27.05" fill="#aa6d22" fill-rule="evenodd" stroke="none"/>
    <path d="M-12.8 -23.95 Q-12.7 -23.25 -12.9 -22.55 -13.6 -18.85 -16.7 -18.55 L-19.55 -18.6 Q-19.0 -18.8 -18.6 -19.0 L-28.2 -15.3 -29.75 -15.45 Q-28.3 -16.0 -26.0 -18.5 -28.2 -17.25 -31.0 -19.0 L-32.3 -19.9 -29.9 -20.0 Q-30.95 -20.55 -31.9 -21.6 L-32.85 -22.55 -30.2 -22.1 Q-32.4 -23.35 -32.7 -24.6 L-33.15 -25.35 Q-32.35 -24.65 -29.3 -24.25 L-26.85 -24.1 Q-27.85 -24.2 -28.45 -25.05 -30.25 -26.85 -30.15 -27.95 L-29.9 -28.6 Q-29.65 -27.95 -27.55 -26.65 L-25.55 -25.7 -28.65 -29.6 -29.05 -30.0 -28.45 -30.1 Q-27.5 -30.2 -25.65 -28.95 L-24.6 -27.85 -24.6 -28.35 Q-24.65 -31.3 -25.25 -32.2 L-24.5 -31.95 Q-23.2 -31.3 -22.3 -28.45 L-22.25 -28.1 Q-21.2 -30.85 -21.35 -31.65 L-20.3 -30.95 Q-20.2 -31.2 -20.25 -31.55 L-19.8 -30.9 Q-19.25 -30.15 -19.35 -28.55 -19.15 -27.7 -19.3 -26.65 -18.05 -27.95 -17.55 -28.95 L-17.55 -29.05 -17.45 -29.45 -17.25 -28.65 Q-16.7 -27.65 -17.35 -26.2 L-17.45 -25.8 -17.55 -25.6 Q-15.65 -26.7 -15.4 -27.6 L-15.3 -26.85 Q-15.25 -26.5 -15.45 -26.15 L-15.3 -26.1 -15.15 -25.5 -15.0 -25.7 -14.9 -25.7 Q-14.45 -26.75 -14.25 -28.0 L-14.15 -27.15 Q-13.25 -24.95 -13.25 -23.45 L-12.8 -23.95 M-21.7 -20.15 L-21.85 -20.15 -22.05 -19.35 -22.25 -18.35 Q-21.75 -19.4 -21.7 -20.15 M-19.25 -15.3 L-24.05 -14.65 Q-23.15 -16.85 -19.55 -18.6 -19.05 -17.5 -19.25 -15.3 M-25.0 -22.4 L-24.9 -22.4 -25.0 -22.45 -25.0 -22.4" fill="#351f17" fill-opacity="0.2901961" fill-rule="evenodd" stroke="none"/>
    <path d="M26.8 -1.95 Q26.45 -0.2 24.95 1.15 L25.45 0.5 26.5 -1.4 26.8 -1.95" fill="#fad14c" fill-rule="evenodd" stroke="none"/>
    <path d="M-0.75 16.75 Q1.45 17.05 0.35 18.8 -0.3 19.85 -1.35 18.95 -2.95 17.65 -0.9 16.75 L-0.75 16.75" fill="#d9933d" fill-rule="evenodd" stroke="none"/>
    <path d="M5.85 20.2 Q7.6 20.4 6.4 21.8 5.15 23.1 5.0 21.5 4.8 20.45 5.85 20.2" fill="#c6873a" fill-rule="evenodd" stroke="none"/>
    <path d="M-18.05 -29.35 Q-22.0 -29.1 -25.1 -27.85 L-30.1 -25.85 Q-32.0 -25.05 -32.3 -23.85 -33.15 -22.35 -29.65 -20.6 -24.65 -17.95 -24.4 -16.8 -24.2 -15.75 -24.8 -14.7 -26.05 -12.4 -26.15 -9.75 -26.3 -7.2 -24.65 -5.2 -24.1 -4.5 -24.2 -3.45 -24.65 0.15 -26.75 3.25 -27.45 4.45 -26.55 5.5 L-19.9 12.8 Q-19.35 13.35 -19.1 14.25 -18.4 17.65 -16.4 18.8 -14.35 20.05 -13.85 22.5 -13.4 24.95 -7.05 24.05 L-0.3 22.95 2.15 22.55 Q4.2 22.5 4.8 28.65 5.35 34.8 10.8 30.15 16.25 25.45 18.0 21.6 19.6 17.75 24.75 15.9 29.7 14.15 31.6 9.85 32.4 5.7 27.4 7.35 22.5 9.05 20.3 6.3 18.0 3.6 22.4 0.95 24.4 -0.35 24.85 -3.0 L25.2 -5.55 Q21.8 -8.25 21.5 -12.65 21.5 -14.6 19.3 -17.6 L14.5 -24.0 Q11.75 -24.25 10.95 -24.95 6.55 -28.4 -1.95 -31.1 -10.55 -33.85 -10.65 -30.4 -14.2 -29.55 -18.05 -29.35 M24.95 1.15 L24.75 1.2 23.9 1.85 23.7 1.85 20.65 3.95 Q21.0 6.25 21.95 7.1 L22.75 7.2 23.0 7.2 23.35 7.1 24.25 6.85 28.55 6.3 31.1 6.75 Q32.15 7.1 32.75 7.7 33.4 8.35 33.4 9.3 33.4 11.5 29.5 15.35 L29.25 15.65 Q25.05 19.85 18.45 24.95 12.0 29.85 9.75 32.35 7.45 34.7 5.7 33.75 L3.25 32.15 Q2.5 31.45 2.8 29.25 L3.05 27.75 2.9 27.5 Q1.1 23.55 0.0 23.9 L-0.4 24.0 -9.25 26.2 Q-13.05 27.15 -14.55 23.65 L-15.15 22.2 -15.4 21.6 -15.75 21.1 -16.1 20.9 Q-18.75 19.85 -20.4 18.2 -23.3 15.3 -24.65 10.8 -27.8 8.5 -30.2 5.5 -31.15 4.45 -30.8 2.9 -29.9 -1.25 -28.0 -4.95 -27.8 -5.35 -28.15 -5.9 -31.25 -10.45 -27.7 -14.95 -26.75 -15.75 -26.55 -16.35 L-26.5 -16.8 -26.55 -16.95 Q-26.65 -17.5 -27.45 -17.75 L-27.55 -17.75 -28.7 -18.1 Q-30.9 -19.8 -31.95 -21.2 L-32.3 -21.7 -32.45 -21.9 Q-34.2 -24.8 -30.8 -26.4 L-29.5 -26.9 -29.3 -26.9 -29.1 -27.0 -28.75 -27.15 -28.6 -27.35 Q-27.0 -28.3 -22.9 -29.8 L-16.8 -31.75 -15.05 -32.2 Q-12.7 -33.65 -8.1 -33.3 -4.0 -32.95 1.1 -31.2 L4.0 -30.0 7.8 -28.2 Q8.85 -27.6 11.4 -26.75 14.55 -26.8 15.1 -25.4 15.6 -23.85 16.7 -22.75 18.25 -21.2 19.3 -18.9 L19.5 -18.8 21.25 -17.7 21.35 -17.6 21.6 -17.35 21.8 -16.45 23.25 -14.6 23.45 -14.35 23.55 -14.15 23.8 -13.7 23.9 -13.55 23.9 -12.95 24.0 -12.4 24.0 -12.25 23.9 -11.95 Q23.7 -10.4 24.25 -8.8 L24.35 -7.65 Q26.5 -6.15 26.8 -3.8 L26.8 -1.95 26.5 -1.4 25.45 0.5 24.95 1.15" fill="#9f743e" fill-rule="evenodd" stroke="none"/>
    <path d="M-18.05 -29.35 Q-14.2 -29.55 -10.65 -30.4 -10.55 -33.85 -1.95 -31.1 6.55 -28.4 10.95 -24.95 11.75 -24.25 14.5 -24.0 L19.3 -17.6 Q21.5 -14.6 21.5 -12.65 21.8 -8.25 25.2 -5.55 L24.85 -3.0 Q24.4 -0.35 22.4 0.95 18.0 3.6 20.3 6.3 22.5 9.05 27.4 7.35 32.4 5.7 31.6 9.85 29.7 14.15 24.75 15.9 19.6 17.75 18.0 21.6 16.25 25.45 10.8 30.15 5.35 34.8 4.8 28.65 4.2 22.5 2.15 22.55 L-0.3 22.95 -7.05 24.05 Q-13.4 24.95 -13.85 22.5 -14.35 20.05 -16.4 18.8 -18.4 17.65 -19.1 14.25 -19.35 13.35 -19.9 12.8 L-26.55 5.5 Q-27.45 4.45 -26.75 3.25 -24.65 0.15 -24.2 -3.45 -24.1 -4.5 -24.65 -5.2 -26.3 -7.2 -26.15 -9.75 -26.05 -12.4 -24.8 -14.7 -24.2 -15.75 -24.4 -16.8 -24.65 -17.95 -29.65 -20.6 -33.15 -22.35 -32.3 -23.85 -32.0 -25.05 -30.1 -25.85 L-25.1 -27.85 Q-22.0 -29.1 -18.05 -29.35 M-0.75 16.75 L-0.9 16.75 Q-2.95 17.65 -1.35 18.95 -0.3 19.85 0.35 18.8 1.45 17.05 -0.75 16.75 M5.85 20.2 Q4.8 20.45 5.0 21.5 5.15 23.1 6.4 21.8 7.6 20.4 5.85 20.2" fill="#e5ac3f" fill-rule="evenodd" stroke="none"/>
    <path d="M7.55 11.1 L8.2 10.5 Q7.8 11.4 7.85 13.95 7.85 15.65 8.15 16.0 L7.8 15.95 Q7.0 15.75 6.5 14.25 5.95 12.75 7.55 11.1" fill="#276b16" fill-rule="evenodd" stroke="none"/>
    <path d="M6.8 16.1 L7.05 16.85 Q7.2 15.85 8.3 13.55 9.05 12.0 9.5 11.75 L9.15 11.75 Q8.45 11.65 7.35 12.85 6.25 14.05 6.8 16.1" fill="url(#gradient0)" fill-rule="evenodd" stroke="none"/>
    <path d="M7.55 14.3 Q7.0 14.75 5.95 14.6 4.95 14.5 3.9 13.55 L5.2 13.05 Q6.05 12.8 6.7 13.35 L7.55 14.3" fill="#276b16" fill-rule="evenodd" stroke="none"/>
    <path d="M7.5 14.4 L7.2 15.0 Q7.85 14.55 9.6 14.35 L11.15 14.4 10.95 14.1 Q10.65 13.5 9.5 13.25 8.3 13.0 7.5 14.4" fill="url(#gradient1)" fill-rule="evenodd" stroke="none"/>
    <path d="M4.6 12.85 L6.05 12.6 Q6.95 12.55 7.4 13.35 L7.95 14.6 6.45 14.85 Q5.25 14.3 4.6 12.85" fill="url(#gradient2)" fill-rule="evenodd" stroke="none"/>
    <path d="M7.8 14.0 Q7.7 14.8 6.85 15.6 6.05 16.35 4.8 16.55 4.95 16.0 5.45 15.15 5.85 14.2 6.65 14.05 L7.8 14.0" fill="#276b16" fill-rule="evenodd" stroke="none"/>
    <path d="M5.6 11.45 L5.7 10.65 Q6.0 11.6 7.5 13.45 8.5 14.7 9.0 14.8 L8.6 14.9 Q7.9 15.25 6.65 14.35 5.3 13.5 5.6 11.45" fill="url(#gradient3)" fill-rule="evenodd" stroke="none"/>
    <path d="M7.45 14.3 L8.15 14.3 Q7.55 14.7 6.8 16.5 6.3 17.65 6.4 18.15 L6.15 17.8 Q5.6 17.2 5.7 15.8 5.75 14.4 7.45 14.3" fill="url(#gradient4)" fill-rule="evenodd" stroke="none"/>
    <path d="M7.05 13.35 Q7.8 13.45 8.5 14.4 9.15 15.35 9.25 16.95 8.75 16.85 7.95 16.3 7.1 15.8 7.05 14.75 L7.05 13.35" fill="#276b16" fill-rule="evenodd" stroke="none"/>
    <path d="M5.15 14.4 L4.7 14.95 Q5.4 14.65 7.35 14.95 8.7 15.15 8.95 15.5 L8.85 15.1 Q8.75 14.3 7.6 13.65 6.45 13.0 5.15 14.4" fill="url(#gradient5)" fill-rule="evenodd" stroke="none"/>
    <path d="M7.95 18.4 L7.25 17.05 Q6.8 16.1 7.1 15.2 L7.6 14.0 Q8.25 14.5 8.4 15.5 8.55 17.0 7.95 18.4" fill="url(#gradient6)" fill-rule="evenodd" stroke="none"/>
    <path d="M7.4 13.8 L9.05 13.85 Q10.05 14.25 10.75 15.55 L9.3 15.8 Q8.4 15.85 7.95 15.05 L7.4 13.8" fill="url(#gradient7)" fill-rule="evenodd" stroke="none"/>
    <path d="M10.15 -3.15 L9.9 -3.65 Q10.4 -3.25 11.95 -2.85 L13.25 -2.7 13.15 -2.5 Q12.9 -2.05 11.9 -1.95 10.9 -1.9 10.15 -3.15" fill="#276b16" fill-rule="evenodd" stroke="none"/>
    <path d="M13.35 -1.85 L13.9 -1.9 12.05 -3.2 Q11.2 -3.9 11.2 -4.2 L11.05 -4.0 Q10.9 -3.6 11.5 -2.7 12.0 -1.85 13.35 -1.85" fill="url(#gradient8)" fill-rule="evenodd" stroke="none"/>
    <path d="M11.8 -2.3 L11.75 -1.25 10.75 -0.25 10.65 -1.1 Q10.65 -1.65 11.1 -1.95 L11.8 -2.3" fill="#276b16" fill-rule="evenodd" stroke="none"/>
    <path d="M11.9 -2.25 L12.2 -1.95 Q12.05 -2.4 12.15 -3.55 12.3 -4.3 12.5 -4.45 L12.25 -4.45 Q11.85 -4.35 11.5 -3.65 11.15 -2.95 11.9 -2.25" fill="url(#gradient9)" fill-rule="evenodd" stroke="none"/>
    <path d="M10.45 -1.1 L10.55 -2.0 Q10.65 -2.6 11.25 -2.75 L12.1 -2.9 Q12.3 -2.35 12.0 -1.9 11.5 -1.25 10.45 -1.1" fill="url(#gradient10)" fill-rule="evenodd" stroke="none"/>
    <path d="M11.25 -2.5 L12.05 -1.65 Q12.4 -1.05 12.3 -0.25 L11.5 -0.9 Q11.05 -1.25 11.05 -1.8 L11.25 -2.5" fill="#276b16" fill-rule="evenodd" stroke="none"/>
    <path d="M9.95 -1.35 L9.5 -1.55 11.5 -2.15 Q12.45 -2.55 12.6 -2.85 L12.6 -2.55 Q12.65 -2.1 11.95 -1.45 L9.95 -1.35" fill="url(#gradient11)" fill-rule="evenodd" stroke="none"/>
    <path d="M11.75 -2.85 L11.9 -3.25 Q12.05 -2.85 13.0 -2.05 13.7 -1.6 13.95 -1.6 L13.75 -1.45 12.4 -1.55 Q11.6 -1.8 11.75 -2.85" fill="url(#gradient12)" fill-rule="evenodd" stroke="none"/>
    <path d="M10.9 -2.5 Q11.1 -2.9 11.8 -3.15 L13.5 -3.25 12.85 -2.55 Q12.4 -2.1 11.75 -2.25 L10.9 -2.5" fill="#276b16" fill-rule="evenodd" stroke="none"/>
    <path d="M12.45 -0.35 L12.7 0.0 Q12.65 -0.45 13.1 -1.6 L13.75 -2.55 13.45 -2.55 Q13.0 -2.6 12.4 -2.0 11.75 -1.4 12.45 -0.35" fill="url(#gradient13)" fill-rule="evenodd" stroke="none"/>
    <path d="M14.65 -1.7 L13.7 -1.45 Q13.05 -1.35 12.55 -1.7 L11.9 -2.2 12.95 -2.4 Q13.85 -2.25 14.65 -1.7" fill="url(#gradient14)" fill-rule="evenodd" stroke="none"/>
    <path d="M11.85 -2.5 Q11.75 -3.0 12.2 -3.55 12.6 -4.1 13.5 -4.3 L13.45 -3.4 Q13.3 -2.8 12.7 -2.65 L11.85 -2.5" fill="url(#gradient15)" fill-rule="evenodd" stroke="none"/>
    <path d="M21.2 -10.55 L21.7 -10.95 Q21.4 -10.3 21.4 -8.45 21.4 -7.25 21.65 -7.0 L21.35 -7.1 Q20.8 -7.15 20.45 -8.25 20.05 -9.4 21.2 -10.55" fill="#276b16" fill-rule="evenodd" stroke="none"/>
    <path d="M20.5 -7.3 L20.65 -6.7 Q20.75 -7.5 21.55 -9.1 22.15 -10.3 22.45 -10.4 L22.2 -10.45 Q21.7 -10.5 20.9 -9.65 20.1 -8.75 20.5 -7.3" fill="url(#gradient16)" fill-rule="evenodd" stroke="none"/>
    <path d="M21.05 -8.5 L19.85 -8.3 Q19.1 -8.35 18.4 -9.0 18.7 -9.25 19.3 -9.4 19.95 -9.6 20.4 -9.2 L21.05 -8.5" fill="#276b16" fill-rule="evenodd" stroke="none"/>
    <path d="M20.9 -8.65 L20.7 -8.3 22.4 -8.75 23.5 -8.7 23.4 -8.9 Q23.2 -9.35 22.35 -9.55 21.45 -9.7 20.9 -8.65" fill="url(#gradient17)" fill-rule="evenodd" stroke="none"/>
    <path d="M18.95 -9.8 L19.95 -9.95 Q20.6 -10.0 20.95 -9.4 L21.35 -8.5 20.25 -8.35 Q19.35 -8.75 18.95 -9.8" fill="url(#gradient18)" fill-rule="evenodd" stroke="none"/>
    <path d="M20.9 -8.85 Q20.8 -8.25 20.2 -7.7 19.6 -7.1 18.75 -7.0 18.8 -7.4 19.2 -8.05 19.5 -8.7 20.1 -8.8 L20.9 -8.85" fill="#276b16" fill-rule="evenodd" stroke="none"/>
    <path d="M19.5 -10.5 L19.6 -11.05 Q19.75 -10.4 20.9 -9.05 L21.95 -8.1 21.65 -8.0 Q21.2 -7.75 20.25 -8.4 19.3 -8.95 19.5 -10.5" fill="url(#gradient19)" fill-rule="evenodd" stroke="none"/>
    <path d="M20.8 -8.7 L21.3 -8.65 Q20.8 -8.4 20.3 -7.1 19.95 -6.25 20.05 -5.85 L19.85 -6.1 Q19.45 -6.55 19.5 -7.6 19.55 -8.6 20.8 -8.7" fill="url(#gradient20)" fill-rule="evenodd" stroke="none"/>
    <path d="M20.4 -9.25 L21.4 -8.5 Q21.9 -7.8 21.95 -6.7 21.6 -6.75 21.0 -7.15 20.4 -7.5 20.35 -8.25 20.3 -8.95 20.4 -9.25" fill="#276b16" fill-rule="evenodd" stroke="none"/>
    <path d="M19.1 -8.25 L18.75 -7.85 Q19.35 -8.05 20.7 -7.85 L21.9 -7.45 21.85 -7.75 Q21.75 -8.3 20.9 -8.8 20.05 -9.3 19.1 -8.25" fill="url(#gradient21)" fill-rule="evenodd" stroke="none"/>
    <path d="M21.1 -6.3 L20.6 -7.3 Q20.3 -8.0 20.5 -8.65 L20.9 -9.5 Q21.35 -9.15 21.45 -8.45 21.55 -7.35 21.1 -6.3" fill="url(#gradient22)" fill-rule="evenodd" stroke="none"/>
    <path d="M20.75 -9.2 L21.95 -9.15 Q22.7 -8.85 23.15 -7.9 L22.15 -7.75 Q21.5 -7.65 21.15 -8.3 L20.75 -9.2" fill="url(#gradient23)" fill-rule="evenodd" stroke="none"/>
    <path d="M9.5 16.05 Q7.55 13.3 7.7 9.9 7.85 6.4 9.1 3.2 10.35 0.15 12.9 -1.6 L13.3 -1.65 Q13.8 -1.45 13.75 -0.95 L13.3 2.1 Q12.25 6.0 12.15 10.05 L11.9 13.6 Q12.0 15.95 10.3 16.4 9.75 16.45 9.5 16.05" fill="#5b1d0e" fill-opacity="0.4" fill-rule="evenodd" stroke="none"/>
    <path d="M13.45 -1.25 L15.95 -0.8 13.15 15.9 10.65 15.45 Q10.7 7.15 13.45 -1.25" fill="#0e0704" fill-rule="evenodd" stroke="none"/>
    <path d="M27.1 8.4 L27.1 7.7 27.1 5.25 26.95 3.9 Q27.25 6.2 27.1 8.4" fill="#2e787b" fill-rule="evenodd" stroke="none"/>
    <path d="M15.35 12.45 L15.0 12.7 14.6 12.85 14.2 12.95 14.25 12.9 14.2 12.75 14.25 12.6 14.8 12.3 15.4 12.1 Q15.65 12.0 15.7 12.3 L15.7 12.4 15.55 12.4 15.4 12.45 15.35 12.45 M15.85 10.95 L15.05 9.5 15.15 9.5 15.35 9.55 15.35 9.6 15.45 9.7 15.45 10.1 15.4 10.2 15.85 10.15 Q16.15 10.25 16.1 10.65 L15.85 10.95 M17.0 8.75 L16.75 8.9 16.6 8.8 Q16.6 8.6 16.75 8.5 L16.9 8.55 16.9 8.65 17.0 8.75 M13.95 7.4 L13.65 7.75 Q13.45 7.5 13.65 7.0 L13.9 6.7 Q14.1 6.45 14.25 6.7 L14.25 6.75 14.05 7.15 13.95 7.4" fill="#1a5f62" fill-rule="evenodd" stroke="none"/>
    <path d="M18.4 9.85 L18.45 9.9 18.55 10.05 18.6 10.35 18.6 10.5 18.55 10.65 18.5 10.8 18.4 10.9 18.0 10.75 17.5 10.3 Q17.3 9.9 17.55 9.55 L17.7 9.6 17.85 9.6 18.1 9.7 18.3 9.85 18.4 9.85" fill="#2e696b" fill-rule="evenodd" stroke="none"/>
    <path d="M26.7 2.45 L26.3 2.4 25.3 2.35 24.55 2.4 24.45 2.25 24.4 2.2 24.3 2.05 23.95 1.75 23.5 1.3 23.1 1.2 23.0 1.15 22.9 1.2 22.85 1.2 22.85 1.35 24.75 4.2 26.2 4.95 Q24.9 5.45 23.6 6.25 25.2 6.95 25.55 7.55 26.0 8.3 25.7 9.0 25.0 11.1 26.3 12.35 L26.45 12.35 Q25.65 15.4 23.75 18.25 L10.45 16.05 11.45 14.2 11.2 15.65 11.8 13.5 12.1 12.95 Q12.55 12.05 13.7 11.2 14.0 10.95 14.35 8.65 L14.25 7.75 14.35 7.7 14.9 7.2 15.25 6.75 15.4 6.8 15.8 6.8 16.25 6.9 16.55 6.85 16.7 6.4 16.0 5.65 Q15.75 5.45 15.4 5.4 L15.3 5.05 14.85 4.6 14.6 4.4 14.85 4.35 15.2 4.25 15.45 3.95 15.65 4.0 16.2 3.85 Q16.5 3.7 16.35 3.35 L15.95 3.1 15.5 2.8 15.15 2.7 Q15.8 1.9 16.75 2.05 L19.0 2.25 21.1 2.4 21.2 2.35 21.2 2.2 21.15 2.05 21.15 2.0 21.1 1.9 19.95 1.65 18.55 1.4 17.4 1.25 17.3 1.05 17.25 0.9 17.2 0.8 16.05 0.55 14.55 0.1 13.35 -0.05 13.45 0.55 13.25 -0.65 26.55 1.55 26.7 2.45 M18.4 9.85 L18.3 9.85 18.1 9.7 17.85 9.6 17.7 9.6 17.55 9.55 Q17.3 9.9 17.5 10.3 L18.0 10.75 18.4 10.9 18.5 10.8 18.55 10.65 18.6 10.5 18.6 10.35 18.55 10.05 18.45 9.9 18.4 9.85 M17.0 8.75 L16.9 8.65 16.9 8.55 16.75 8.5 Q16.6 8.6 16.6 8.8 L16.75 8.9 17.0 8.75 M15.85 10.95 L16.1 10.65 Q16.15 10.25 15.85 10.15 L15.4 10.2 15.45 10.1 15.45 9.7 15.35 9.6 15.35 9.55 15.15 9.5 15.05 9.5 15.85 10.95 M15.35 12.45 L15.4 12.45 15.55 12.4 15.7 12.4 15.7 12.3 Q15.65 12.0 15.4 12.1 L14.8 12.3 14.25 12.6 14.2 12.75 14.25 12.9 14.2 12.95 14.6 12.85 15.0 12.7 15.35 12.45" fill="#758283" fill-rule="evenodd" stroke="none"/>
    <path d="M26.95 3.9 L27.1 5.25 27.1 7.7 27.1 8.4 26.45 12.35 26.3 12.35 Q25.0 11.1 25.7 9.0 26.0 8.3 25.55 7.55 25.2 6.95 23.6 6.25 24.9 5.45 26.2 4.95 L24.75 4.2 22.85 1.35 22.85 1.2 22.9 1.2 23.0 1.15 23.1 1.2 23.5 1.3 23.95 1.75 24.3 2.05 24.4 2.2 24.45 2.25 24.55 2.4 25.3 2.35 26.3 2.4 26.7 2.45 26.95 3.9 M13.45 0.55 L13.35 -0.05 14.55 0.1 16.05 0.55 17.2 0.8 17.25 0.9 17.3 1.05 17.4 1.25 18.55 1.4 19.95 1.65 21.1 1.9 21.15 2.0 21.15 2.05 21.2 2.2 21.2 2.35 21.1 2.4 19.0 2.25 16.75 2.05 Q15.8 1.9 15.15 2.7 L15.5 2.8 15.95 3.1 16.35 3.35 Q16.5 3.7 16.2 3.85 L15.65 4.0 15.45 3.95 15.2 4.25 14.85 4.35 14.6 4.4 14.85 4.6 15.3 5.05 15.4 5.4 Q15.75 5.45 16.0 5.65 L16.7 6.4 16.55 6.85 16.25 6.9 15.8 6.8 15.4 6.8 15.25 6.75 14.9 7.2 14.35 7.7 14.25 7.75 14.35 8.65 Q14.0 10.95 13.7 11.2 12.55 12.05 12.1 12.95 L11.8 13.5 11.2 15.65 11.45 14.2 Q13.25 8.65 13.65 1.4 L13.55 0.7 13.45 0.55 M13.95 7.4 L14.05 7.15 14.25 6.75 14.25 6.7 Q14.1 6.45 13.9 6.7 L13.65 7.0 Q13.45 7.5 13.65 7.75 L13.95 7.4" fill="#395456" fill-rule="evenodd" stroke="none"/>
    <path d="M21.15 14.65 Q22.65 14.35 24.0 15.15 24.55 15.55 24.65 16.2 L24.6 16.65 24.5 16.8 24.4 16.85 20.35 16.75 15.75 16.05 Q13.75 15.7 12.05 15.0 12.55 14.15 13.8 14.45 L15.65 14.85 Q18.2 15.3 20.45 14.8 L21.15 14.65 M23.65 16.1 L23.55 16.0 Q23.4 15.95 23.4 16.1 L23.55 16.2 23.7 16.2 23.75 16.2 23.65 16.1 M21.1 15.75 L20.95 15.9 21.05 15.95 21.1 15.95 21.15 15.9 21.1 15.75" fill="#1a5f62" fill-rule="evenodd" stroke="none"/>
    <path d="M27.2 3.3 L26.85 3.65 11.65 1.1 12.25 -2.4 Q20.25 -2.3 27.45 0.15 28.25 0.2 27.55 1.1 L27.2 3.3" fill="#9a6321" fill-rule="evenodd" stroke="none"/>
    <path d="M24.7 18.6 L9.5 16.05 10.1 12.55 25.3 15.1 Q25.85 16.75 24.7 18.6" fill="#9a6321" fill-rule="evenodd" stroke="none"/>
    <path d="M25.0 18.7 L19.6 18.0 15.55 17.2 10.45 16.5 10.35 16.45 10.5 16.15 11.85 16.25 15.35 16.75 20.1 17.5 Q22.75 17.7 25.0 18.7" fill="#c29b6e" fill-rule="evenodd" stroke="none"/>
    <path d="M26.95 3.2 L21.55 2.5 17.5 1.7 12.4 1.0 12.3 0.95 12.45 0.65 13.8 0.75 17.3 1.25 22.05 2.0 Q24.7 2.2 26.95 3.2" fill="#c29b6e" fill-rule="evenodd" stroke="none"/>
    <path d="M12.35 -2.1 L12.75 -2.4 12.15 1.15 11.65 1.1 12.35 -2.1" fill="#6a4416" fill-rule="evenodd" stroke="none"/>
    <path d="M9.25 15.9 L9.55 16.25 10.15 12.7 9.65 12.65 9.25 15.9" fill="#6a4416" fill-rule="evenodd" stroke="none"/>
    <path d="M-5.65 29.7 Q-5.85 22.45 -3.75 18.85 -2.2 15.75 0.75 15.2 2.05 16.8 2.7 19.65 3.5 25.6 0.1 31.05 -3.15 30.95 -5.65 29.7 M-4.2 23.7 L-4.55 23.65 Q-4.95 26.05 -4.95 29.2 -3.15 30.05 -0.7 30.1 0.7 27.6 1.25 25.25 L1.35 25.15 1.8 22.6 1.7 22.65 1.35 24.55 -4.2 23.7 M1.65 21.95 L1.55 20.2 Q1.1 17.8 0.25 16.45 -1.95 16.95 -3.35 19.6 L-3.95 21.1 1.65 21.95" fill="#aa6235" fill-rule="evenodd" stroke="none"/>
    <path d="M1.25 25.25 Q0.7 27.6 -0.7 30.1 -3.15 30.05 -4.95 29.2 -4.95 26.05 -4.55 23.65 L-4.2 23.7 -4.3 24.2 1.25 25.25 M1.65 21.95 L-3.95 21.1 -3.35 19.6 Q-1.95 16.95 0.25 16.45 1.1 17.8 1.55 20.2 L1.65 21.95" fill="#80431d" fill-rule="evenodd" stroke="none"/>
    <path d="M-4.2 23.7 L1.35 24.55 1.7 22.65 1.8 22.6 1.35 25.15 1.25 25.25 -4.3 24.2 -4.2 23.7" fill="#4d2309" fill-rule="evenodd" stroke="none"/>
    <path d="M-19.8 -20.9 L-19.8 -20.8 -19.9 -20.9 -19.8 -20.9" fill="url(#gradient24)" fill-rule="evenodd" stroke="none"/>
    <path d="M-19.7 -20.55 L-19.7 -20.4 -19.9 -20.9 -19.8 -20.8 -19.7 -20.55 M-18.35 -21.3 L-18.2 -21.45 -18.3 -21.3 -18.35 -21.3" fill="url(#gradient25)" fill-rule="evenodd" stroke="none"/>
    <path d="M-19.8 -20.9 L-20.05 -21.2 -19.65 -20.95 -19.65 -20.85 -19.6 -20.85 -19.45 -20.8 -19.6 -20.7 -19.6 -20.85 -19.7 -20.55 -19.8 -20.8 -19.8 -20.9" fill="url(#gradient26)" fill-rule="evenodd" stroke="none"/>
    <path d="M-18.45 -19.05 L-18.55 -19.05 -18.55 -19.2 -18.6 -19.3 -18.45 -19.2 -18.45 -19.1 -18.45 -19.05" fill="url(#gradient27)" fill-rule="evenodd" stroke="none"/>
    <path d="M-18.05 -12.5 Q-19.05 -10.05 -23.25 -9.15 L-24.9 -8.9 Q-23.5 -9.8 -21.2 -13.25 -20.8 -13.3 -20.5 -13.5 -21.65 -11.2 -22.5 -10.5 L-21.2 -10.65 Q-19.0 -11.15 -18.05 -12.5" fill="url(#gradient28)" fill-rule="evenodd" stroke="none"/>
    <path d="M-25.6 -14.6 L-26.35 -14.55 -27.75 -14.7 Q-26.35 -15.3 -24.05 -17.8 L-23.5 -18.1 Q-23.05 -18.45 -22.7 -18.75 -24.35 -15.6 -25.6 -14.6" fill="url(#gradient29)" fill-rule="evenodd" stroke="none"/>
    <path d="M-15.65 -24.8 Q-13.75 -26.0 -13.6 -26.85 L-13.45 -26.05 -13.4 -25.4 Q-13.85 -24.4 -16.3 -22.9 L-16.55 -22.8 -16.2 -23.4 Q-15.8 -24.1 -15.65 -24.8" fill="url(#gradient30)" fill-rule="evenodd" stroke="none"/>
    <path d="M-19.9 -20.9 L-19.8 -20.9 -19.9 -20.9" fill="url(#gradient31)" fill-rule="evenodd" stroke="none"/>
    <path d="M-13.25 -24.75 L-13.05 -25.05 -13.25 -24.7 -13.25 -24.75" fill="url(#gradient32)" fill-rule="evenodd" stroke="none"/>
    <path d="M-15.65 -28.35 L-15.55 -28.7 -15.25 -27.95 Q-14.8 -26.85 -15.65 -24.8 -14.9 -26.55 -15.4 -27.55 L-15.65 -28.35" fill="url(#gradient33)" fill-rule="evenodd" stroke="none"/>
    <path d="M-12.2 -26.5 Q-11.45 -24.3 -11.4 -22.75 -11.8 -22.25 -12.6 -21.85 -12.2 -22.6 -12.2 -23.7 L-12.2 -26.5" fill="url(#gradient34)" fill-rule="evenodd" stroke="none"/>
    <path d="M-17.4 -27.8 Q-17.3 -26.95 -17.35 -25.9 -16.1 -27.3 -15.75 -28.25 -15.95 -27.2 -17.75 -25.25 -17.6 -25.5 -17.6 -25.85 -17.35 -26.95 -17.4 -27.8" fill="url(#gradient35)" fill-rule="evenodd" stroke="none"/>
    <path d="M-20.3 -27.4 Q-19.4 -30.15 -19.5 -30.85 L-18.4 -30.15 Q-18.55 -29.05 -19.6 -27.05 L-20.1 -26.15 Q-20.05 -26.8 -20.3 -27.4" fill="url(#gradient36)" fill-rule="evenodd" stroke="none"/>
    <path d="M-21.2 -13.25 Q-21.7 -12.95 -22.5 -12.95 -25.25 -12.8 -26.15 -12.95 -22.75 -13.9 -21.1 -16.25 -22.3 -15.15 -24.3 -14.7 L-25.7 -14.5 -25.6 -14.6 Q-24.35 -15.6 -22.7 -18.75 -23.05 -18.45 -23.5 -18.1 L-24.05 -17.8 Q-26.3 -16.55 -29.2 -18.25 L-30.4 -19.15 -28.15 -19.3 Q-29.1 -19.8 -30.0 -20.85 L-31.0 -21.85 -28.25 -21.45 Q-30.55 -22.55 -30.85 -23.85 L-31.25 -24.6 Q-30.45 -23.9 -27.35 -23.55 L-25.0 -23.35 Q-25.85 -23.5 -26.6 -24.35 -28.3 -26.1 -28.15 -27.25 L-28.1 -27.9 Q-27.85 -27.15 -25.65 -25.95 L-23.6 -24.95 -25.55 -26.8 Q-27.4 -28.45 -28.2 -28.5 -27.65 -29.25 -26.6 -29.4 -25.55 -29.55 -23.8 -28.3 L-22.7 -27.1 -22.7 -27.65 Q-22.75 -30.65 -23.5 -31.45 L-22.75 -31.15 Q-21.35 -30.6 -20.35 -27.65 L-20.3 -27.4 Q-20.05 -26.8 -20.1 -26.15 L-19.6 -27.05 Q-18.55 -29.05 -18.4 -30.15 L-18.35 -30.75 -17.9 -30.15 Q-17.3 -29.4 -17.4 -27.8 -17.35 -26.95 -17.6 -25.85 -17.6 -25.5 -17.75 -25.25 -15.95 -27.2 -15.75 -28.25 L-15.65 -28.35 -15.4 -27.55 Q-14.9 -26.55 -15.65 -24.8 -15.8 -24.1 -16.2 -23.4 L-16.55 -22.8 -16.3 -22.9 Q-13.85 -24.4 -13.4 -25.4 L-13.4 -25.55 -13.25 -24.75 -13.25 -24.7 -13.05 -25.05 Q-12.6 -26.1 -12.3 -27.3 L-12.2 -26.5 -12.2 -23.7 Q-12.2 -22.6 -12.6 -21.85 -11.8 -22.25 -11.4 -22.75 L-10.9 -23.2 Q-10.85 -22.5 -11.1 -21.8 -11.75 -18.2 -14.75 -17.9 L-17.65 -17.85 Q-17.1 -16.7 -17.35 -14.5 -17.4 -13.3 -18.05 -12.5 -19.0 -11.15 -21.2 -10.65 L-22.5 -10.5 Q-21.65 -11.2 -20.5 -13.5 -20.8 -13.3 -21.2 -13.25 M-23.05 -21.65 L-23.05 -21.75 Q-23.15 -21.65 -23.25 -21.65 L-23.05 -21.65 M-18.45 -19.05 L-18.45 -19.1 -18.45 -19.2 -18.6 -19.3 -18.55 -19.2 -18.55 -19.05 -18.45 -19.05 M-19.7 -20.55 L-19.6 -20.85 -19.6 -20.7 -19.45 -20.8 -19.6 -20.85 -19.65 -20.85 -19.65 -20.95 -20.05 -21.2 -19.8 -20.9 -19.9 -20.9 -19.7 -20.4 -19.7 -20.55 M-18.35 -21.3 L-18.3 -21.3 -18.2 -21.45 -18.35 -21.3" fill="#468e29" fill-rule="evenodd" stroke="none"/>
  </g>
  <defs>
    <linearGradient gradientTransform="matrix(0.0033, -6.0E-4, -5.0E-4, -0.0014, 9.1, 13.4)" gradientUnits="userSpaceOnUse" id="gradient0" spreadMethod="pad" x1="-819.2" x2="819.2">
      <stop offset="0.0" stop-color="#358023"/>
      <stop offset="0.9450980392156862" stop-color="#95bd53"/>
    </linearGradient>
    <linearGradient gradientTransform="matrix(0.0015, 0.0017, 9.0E-4, -0.0022, 10.15, 14.35)" gradientUnits="userSpaceOnUse" id="gradient1" spreadMethod="pad" x1="-819.2" x2="819.2">
      <stop offset="0.0" stop-color="#358023"/>
      <stop offset="0.9450980392156862" stop-color="#95bd53"/>
    </linearGradient>
    <linearGradient gradientTransform="matrix(-0.0015, 0.0019, -5.0E-4, -0.0013, 5.4, 14.35)" gradientUnits="userSpaceOnUse" id="gradient2" spreadMethod="pad" x1="-819.2" x2="819.2">
      <stop offset="0.0" stop-color="#358023"/>
      <stop offset="0.9450980392156862" stop-color="#95bd53"/>
    </linearGradient>
    <linearGradient gradientTransform="matrix(0.0034, -4.0E-4, -3.0E-4, 0.0015, 8.3, 13.4)" gradientUnits="userSpaceOnUse" id="gradient3" spreadMethod="pad" x1="-819.2" x2="819.2">
      <stop offset="0.0" stop-color="#358023"/>
      <stop offset="0.9450980392156862" stop-color="#95bd53"/>
    </linearGradient>
    <linearGradient gradientTransform="matrix(0.0018, 0.0032, -0.0013, 0.0, 7.15, 17.25)" gradientUnits="userSpaceOnUse" id="gradient4" spreadMethod="pad" x1="-819.2" x2="819.2">
      <stop offset="0.0" stop-color="#358023"/>
      <stop offset="0.9450980392156862" stop-color="#95bd53"/>
    </linearGradient>
    <linearGradient gradientTransform="matrix(0.0013, 0.0033, 9.0E-4, -0.0011, 7.65, 15.7)" gradientUnits="userSpaceOnUse" id="gradient5" spreadMethod="pad" x1="-819.2" x2="819.2">
      <stop offset="0.0" stop-color="#358023"/>
      <stop offset="0.9450980392156862" stop-color="#95bd53"/>
    </linearGradient>
    <linearGradient gradientTransform="matrix(0.0017, 7.0E-4, -5.0E-4, 0.0012, 8.5, 16.8)" gradientUnits="userSpaceOnUse" id="gradient6" spreadMethod="pad" x1="-819.2" x2="819.2">
      <stop offset="0.0" stop-color="#358023"/>
      <stop offset="0.9450980392156862" stop-color="#95bd53"/>
    </linearGradient>
    <linearGradient gradientTransform="matrix(0.0015, -0.0019, 5.0E-4, 0.0013, 9.95, 14.05)" gradientUnits="userSpaceOnUse" id="gradient7" spreadMethod="pad" x1="-819.2" x2="819.2">
      <stop offset="0.0" stop-color="#358023"/>
      <stop offset="0.9450980392156862" stop-color="#95bd53"/>
    </linearGradient>
    <linearGradient gradientTransform="matrix(2.0E-4, -0.0021, -0.001, 1.0E-4, 12.1, -3.7)" gradientUnits="userSpaceOnUse" id="gradient8" spreadMethod="pad" x1="-819.2" x2="819.2">
      <stop offset="0.0" stop-color="#358023"/>
      <stop offset="0.9450980392156862" stop-color="#95bd53"/>
    </linearGradient>
    <linearGradient gradientTransform="matrix(0.0013, -6.0E-4, -0.0012, -9.0E-4, 12.3, -3.9)" gradientUnits="userSpaceOnUse" id="gradient9" spreadMethod="pad" x1="-819.2" x2="819.2">
      <stop offset="0.0" stop-color="#358023"/>
      <stop offset="0.9450980392156862" stop-color="#95bd53"/>
    </linearGradient>
    <linearGradient gradientTransform="matrix(9.0E-4, 0.0013, -9.0E-4, 1.0E-4, 11.5, -1.35)" gradientUnits="userSpaceOnUse" id="gradient10" spreadMethod="pad" x1="-819.2" x2="819.2">
      <stop offset="0.0" stop-color="#358023"/>
      <stop offset="0.9450980392156862" stop-color="#95bd53"/>
    </linearGradient>
    <linearGradient gradientTransform="matrix(3.0E-4, -0.0022, 9.0E-4, 4.0E-4, 11.6, -2.65)" gradientUnits="userSpaceOnUse" id="gradient11" spreadMethod="pad" x1="-819.2" x2="819.2">
      <stop offset="0.0" stop-color="#358023"/>
      <stop offset="0.9450980392156862" stop-color="#95bd53"/>
    </linearGradient>
    <linearGradient gradientTransform="matrix(0.0023, -6.0E-4, -2.0E-4, 8.0E-4, 13.55, -2.2)" gradientUnits="userSpaceOnUse" id="gradient12" spreadMethod="pad" x1="-819.2" x2="819.2">
      <stop offset="0.0" stop-color="#358023"/>
      <stop offset="0.9450980392156862" stop-color="#95bd53"/>
    </linearGradient>
    <linearGradient gradientTransform="matrix(0.0022, -2.0E-4, -5.0E-4, -7.0E-4, 13.65, -1.7)" gradientUnits="userSpaceOnUse" id="gradient13" spreadMethod="pad" x1="-819.2" x2="819.2">
      <stop offset="0.0" stop-color="#358023"/>
      <stop offset="0.9450980392156862" stop-color="#95bd53"/>
    </linearGradient>
    <linearGradient gradientTransform="matrix(7.0E-4, -9.0E-4, 7.0E-4, 5.0E-4, 13.75, -2.3)" gradientUnits="userSpaceOnUse" id="gradient14" spreadMethod="pad" x1="-819.2" x2="819.2">
      <stop offset="0.0" stop-color="#358023"/>
      <stop offset="0.9450980392156862" stop-color="#95bd53"/>
    </linearGradient>
    <linearGradient gradientTransform="matrix(-9.0E-4, -0.0013, 9.0E-4, -1.0E-4, 12.45, -4.05)" gradientUnits="userSpaceOnUse" id="gradient15" spreadMethod="pad" x1="-819.2" x2="819.2">
      <stop offset="0.0" stop-color="#358023"/>
      <stop offset="0.9450980392156862" stop-color="#95bd53"/>
    </linearGradient>
    <linearGradient gradientTransform="matrix(0.0024, -4.0E-4, -4.0E-4, -0.001, 22.15, -9.25)" gradientUnits="userSpaceOnUse" id="gradient16" spreadMethod="pad" x1="-819.2" x2="819.2">
      <stop offset="0.0" stop-color="#358023"/>
      <stop offset="0.9450980392156862" stop-color="#95bd53"/>
    </linearGradient>
    <linearGradient gradientTransform="matrix(0.0011, 0.0013, 7.0E-4, -0.0016, 22.85, -8.75)" gradientUnits="userSpaceOnUse" id="gradient17" spreadMethod="pad" x1="-819.2" x2="819.2">
      <stop offset="0.0" stop-color="#358023"/>
      <stop offset="0.9450980392156862" stop-color="#95bd53"/>
    </linearGradient>
    <linearGradient gradientTransform="matrix(-0.0011, 0.0013, -4.0E-4, -9.0E-4, 19.5, -8.65)" gradientUnits="userSpaceOnUse" id="gradient18" spreadMethod="pad" x1="-819.2" x2="819.2">
      <stop offset="0.0" stop-color="#358023"/>
      <stop offset="0.9450980392156862" stop-color="#95bd53"/>
    </linearGradient>
    <linearGradient gradientTransform="matrix(0.0025, -3.0E-4, -2.0E-4, 0.0011, 21.5, -9.1)" gradientUnits="userSpaceOnUse" id="gradient19" spreadMethod="pad" x1="-819.2" x2="819.2">
      <stop offset="0.0" stop-color="#358023"/>
      <stop offset="0.9450980392156862" stop-color="#95bd53"/>
    </linearGradient>
    <linearGradient gradientTransform="matrix(0.0013, 0.0023, -9.0E-4, 0.0, 20.6, -6.55)" gradientUnits="userSpaceOnUse" id="gradient20" spreadMethod="pad" x1="-819.2" x2="819.2">
      <stop offset="0.0" stop-color="#358023"/>
      <stop offset="0.9450980392156862" stop-color="#95bd53"/>
    </linearGradient>
    <linearGradient gradientTransform="matrix(9.0E-4, 0.0023, 6.0E-4, -8.0E-4, 20.95, -7.3)" gradientUnits="userSpaceOnUse" id="gradient21" spreadMethod="pad" x1="-819.2" x2="819.2">
      <stop offset="0.0" stop-color="#358023"/>
      <stop offset="0.9450980392156862" stop-color="#95bd53"/>
    </linearGradient>
    <linearGradient gradientTransform="matrix(0.0013, 5.0E-4, -4.0E-4, 9.0E-4, 21.55, -7.5)" gradientUnits="userSpaceOnUse" id="gradient22" spreadMethod="pad" x1="-819.2" x2="819.2">
      <stop offset="0.0" stop-color="#358023"/>
      <stop offset="0.9450980392156862" stop-color="#95bd53"/>
    </linearGradient>
    <linearGradient gradientTransform="matrix(0.0011, -0.0013, 4.0E-4, 9.0E-4, 22.6, -9.0)" gradientUnits="userSpaceOnUse" id="gradient23" spreadMethod="pad" x1="-819.2" x2="819.2">
      <stop offset="0.0" stop-color="#358023"/>
      <stop offset="0.9450980392156862" stop-color="#95bd53"/>
    </linearGradient>
    <linearGradient gradientTransform="matrix(8.0E-4, -0.0069, 0.0025, 0.0011, -16.0, -24.6)" gradientUnits="userSpaceOnUse" id="gradient24" spreadMethod="pad" x1="-819.2" x2="819.2">
      <stop offset="0.0" stop-color="#358023"/>
      <stop offset="0.9450980392156862" stop-color="#95bd53"/>
    </linearGradient>
    <linearGradient gradientTransform="matrix(-0.0028, -0.0064, 0.0027, -3.0E-4, -22.75, -21.3)" gradientUnits="userSpaceOnUse" id="gradient25" spreadMethod="pad" x1="-819.2" x2="819.2">
      <stop offset="0.0" stop-color="#358023"/>
      <stop offset="0.9450980392156862" stop-color="#95bd53"/>
    </linearGradient>
    <linearGradient gradientTransform="matrix(8.0E-4, -0.0069, 0.0026, 3.0E-4, -14.75, -23.45)" gradientUnits="userSpaceOnUse" id="gradient26" spreadMethod="pad" x1="-819.2" x2="819.2">
      <stop offset="0.0" stop-color="#358023"/>
      <stop offset="0.9450980392156862" stop-color="#95bd53"/>
    </linearGradient>
    <linearGradient gradientTransform="matrix(-0.0035, -0.0063, 0.0027, -3.0E-4, -20.25, -17.15)" gradientUnits="userSpaceOnUse" id="gradient27" spreadMethod="pad" x1="-819.2" x2="819.2">
      <stop offset="0.0" stop-color="#358023"/>
      <stop offset="0.9450980392156862" stop-color="#95bd53"/>
    </linearGradient>
    <linearGradient gradientTransform="matrix(-0.0044, 7.0E-4, -4.0E-4, -0.0024, -21.55, -11.3)" gradientUnits="userSpaceOnUse" id="gradient28" spreadMethod="pad" x1="-819.2" x2="819.2">
      <stop offset="0.0" stop-color="#358023"/>
      <stop offset="0.9450980392156862" stop-color="#95bd53"/>
    </linearGradient>
    <linearGradient gradientTransform="matrix(-0.0034, 5.0E-4, -3.0E-4, -0.0022, -25.15, -16.5)" gradientUnits="userSpaceOnUse" id="gradient29" spreadMethod="pad" x1="-819.2" x2="819.2">
      <stop offset="0.0" stop-color="#358023"/>
      <stop offset="0.9450980392156862" stop-color="#95bd53"/>
    </linearGradient>
    <linearGradient gradientTransform="matrix(-0.0022, 3.0E-4, -3.0E-4, -0.0022, -15.05, -24.85)" gradientUnits="userSpaceOnUse" id="gradient30" spreadMethod="pad" x1="-819.2" x2="819.2">
      <stop offset="0.0" stop-color="#358023"/>
      <stop offset="0.9450980392156862" stop-color="#95bd53"/>
    </linearGradient>
    <linearGradient gradientTransform="matrix(0.0, 0.0, 0.0, 0.0, -19.8, -20.9)" gradientUnits="userSpaceOnUse" id="gradient31" spreadMethod="pad" x1="-819.2" x2="819.2">
      <stop offset="0.0" stop-color="#358023"/>
      <stop offset="0.9450980392156862" stop-color="#95bd53"/>
    </linearGradient>
    <linearGradient gradientTransform="matrix(-2.0E-4, 0.0, 0.0, -2.0E-4, -13.1, -24.9)" gradientUnits="userSpaceOnUse" id="gradient32" spreadMethod="pad" x1="-819.2" x2="819.2">
      <stop offset="0.0" stop-color="#358023"/>
      <stop offset="0.9450980392156862" stop-color="#95bd53"/>
    </linearGradient>
    <linearGradient gradientTransform="matrix(-5.0E-4, 1.0E-4, -4.0E-4, -0.0023, -15.4, -26.75)" gradientUnits="userSpaceOnUse" id="gradient33" spreadMethod="pad" x1="-819.2" x2="819.2">
      <stop offset="0.0" stop-color="#358023"/>
      <stop offset="0.9450980392156862" stop-color="#95bd53"/>
    </linearGradient>
    <linearGradient gradientTransform="matrix(-9.0E-4, 1.0E-4, -4.0E-4, -0.0027, -12.25, -24.2)" gradientUnits="userSpaceOnUse" id="gradient34" spreadMethod="pad" x1="-819.2" x2="819.2">
      <stop offset="0.0" stop-color="#358023"/>
      <stop offset="0.9450980392156862" stop-color="#95bd53"/>
    </linearGradient>
    <linearGradient gradientTransform="matrix(-0.0015, 2.0E-4, -2.0E-4, -0.0016, -16.75, -26.7)" gradientUnits="userSpaceOnUse" id="gradient35" spreadMethod="pad" x1="-819.2" x2="819.2">
      <stop offset="0.0" stop-color="#358023"/>
      <stop offset="0.9450980392156862" stop-color="#95bd53"/>
    </linearGradient>
    <linearGradient gradientTransform="matrix(-0.0014, 2.0E-4, -4.0E-4, -0.0028, -19.3, -28.55)" gradientUnits="userSpaceOnUse" id="gradient36" spreadMethod="pad" x1="-819.2" x2="819.2">
      <stop offset="0.0" stop-color="#358023"/>
      <stop offset="0.9450980392156862" stop-color="#95bd53"/>
    </linearGradient>
  </defs>
</svg>
