<?xml version="1.0" encoding="UTF-8" standalone="no"?>
<svg xmlns:ffdec="https://www.free-decompiler.com/flash" xmlns:xlink="http://www.w3.org/1999/xlink" ffdec:objectType="shape" height="82.25px" width="81.95px" xmlns="http://www.w3.org/2000/svg">
  <g transform="matrix(1.0, 0.0, 0.0, 1.0, 1.5, 1.5)">
    <path d="M76.35 22.55 Q75.65 20.05 71.0 16.55 66.35 13.05 64.55 8.1 62.7 3.15 59.55 1.65 56.4 0.15 51.5 0.0 38.5 2.1 36.75 1.7 L31.75 0.9 24.85 1.1 Q5.65 8.65 3.7 16.85 2.2 22.95 1.05 31.1 0.0 38.65 0.0 42.0 0.0 46.3 5.6 51.35 6.45 58.1 4.95 60.45 3.45 62.8 3.45 65.2 3.45 67.55 6.3 70.8 9.1 74.0 15.55 73.3 21.95 72.6 32.4 75.6 42.8 78.55 46.95 79.15 51.05 79.7 55.35 77.45 L68.1 68.65 Q69.25 67.9 74.35 65.45 78.95 62.4 78.95 57.7 78.95 55.9 76.3 50.15 73.65 44.35 73.5 41.95 73.35 39.5 75.3 34.8 77.25 30.1 77.15 27.55 77.05 25.0 76.35 22.55 Z" fill="none" stroke="#ffffff" stroke-linecap="round" stroke-linejoin="round" stroke-width="3.0"/>
  </g>
</svg>
