<?xml version="1.0" encoding="UTF-8" standalone="no"?>
<svg xmlns:ffdec="https://www.free-decompiler.com/flash" xmlns:xlink="http://www.w3.org/1999/xlink" ffdec:objectType="shape" height="75.5px" width="73.95px" xmlns="http://www.w3.org/2000/svg">
  <g transform="matrix(1.0, 0.0, 0.0, 1.0, 37.05, 37.55)">
    <path d="M29.6 -21.2 Q36.05 -16.65 35.25 -12.7 34.45 -8.7 32.4 -5.05 30.25 -1.45 31.9 4.05 33.5 9.45 35.35 12.55 39.15 19.1 33.65 24.4 31.5 26.5 28.55 26.95 26.65 27.3 25.3 28.65 20.65 32.85 15.15 35.8 7.4 39.95 -0.55 36.05 -3.4 34.6 -6.6 34.0 -16.9 31.9 -27.4 32.0 -29.5 32.0 -31.1 30.7 -37.15 25.6 -33.25 18.3 -32.3 16.55 -31.65 14.7 -30.95 12.8 -29.95 11.05 -35.05 8.75 -36.75 4.25 -37.3 2.6 -36.85 0.85 -33.65 -9.05 -33.7 -19.85 -33.7 -22.25 -31.8 -23.5 -26.15 -27.35 -20.8 -31.65 L-17.55 -34.45 Q-13.15 -38.35 -7.5 -35.8 -4.75 -34.6 -1.8 -34.85 5.2 -35.4 11.55 -37.55 21.7 -37.2 22.4 -31.5 23.05 -25.85 29.6 -21.2" fill="#7bd8e7" fill-opacity="0.36078432" fill-rule="evenodd" stroke="none"/>
    <path d="M-31.2 9.2 Q-31.75 9.5 -33.25 7.65 -36.15 4.0 -34.8 -1.15 -30.15 -10.75 -32.85 -16.05 -35.6 -21.4 -30.8 -21.55 -27.9 -24.25 -24.5 -28.25 -22.75 -30.3 -18.45 -30.15 -14.85 -36.85 -8.55 -35.1 -7.85 -35.1 -6.25 -33.0 -3.6 -31.05 0.3 -30.3 4.15 -28.65 5.65 -30.65 9.7 -36.15 14.95 -35.8 19.1 -35.55 22.95 -23.55 23.6 -21.1 29.75 -17.35 35.85 -13.6 34.1 -12.3 32.35 -11.1 31.65 -8.25 30.9 -5.4 29.1 -3.1 27.15 -0.85 29.1 3.75 32.85 10.4 34.25 15.15 35.7 19.95 33.55 22.55 30.7 26.05 23.25 28.6 15.75 31.15 13.55 35.15 11.3 39.05 8.9 37.05 6.5 35.0 4.85 34.6 L-2.15 32.5 -9.75 30.3 -13.1 29.75 Q-15.4 29.75 -17.8 31.0 -20.2 32.2 -23.85 32.2 -26.55 32.2 -29.7 29.95 -33.05 27.6 -32.7 25.65 -32.4 23.75 -29.45 16.45 -26.55 9.1 -31.2 9.2" fill="#c1ebfb" fill-rule="evenodd" stroke="none"/>
    <path d="M-29.25 -3.7 Q-30.75 -1.2 -31.1 0.05 L-31.9 2.7 Q-32.2 4.1 -29.0 5.7 -25.9 7.2 -25.1 9.7 -24.45 12.1 -25.1 13.85 -25.9 15.65 -27.25 17.8 -28.55 19.7 -29.4 24.65 -29.9 27.05 -24.65 28.0 -19.3 28.8 -16.5 27.3 -13.7 25.6 -9.9 25.0 L-7.7 25.15 -6.45 25.85 Q-1.9 28.4 -0.8 28.8 0.4 29.35 2.1 30.55 3.75 31.65 6.05 31.45 L10.2 31.05 Q11.95 30.8 13.35 29.75 14.6 28.65 15.25 26.65 15.9 24.65 18.45 24.25 L25.45 23.65 Q29.9 23.45 31.35 21.5 32.95 19.35 32.05 15.65 31.35 11.85 28.1 7.7 24.9 3.4 25.05 0.05 25.3 -3.2 28.3 -6.7 31.2 -10.2 30.3 -12.3 29.45 -14.35 27.5 -14.85 L24.9 -15.55 21.95 -15.3 Q19.6 -15.1 19.7 -19.0 19.85 -22.9 18.35 -24.65 L17.15 -27.25 Q16.2 -29.65 15.15 -29.65 14.05 -29.65 11.5 -28.2 8.95 -26.85 5.35 -26.0 L1.15 -25.65 -1.75 -27.4 Q-3.9 -28.85 -4.3 -28.6 L-6.05 -28.8 -9.8 -29.9 Q-12.05 -30.7 -13.7 -29.25 L-16.25 -26.85 Q-17.3 -25.75 -19.75 -24.65 -22.1 -23.6 -24.15 -23.1 -26.3 -22.65 -27.65 -20.4 -28.7 -18.65 -27.8 -10.4 L-27.8 -10.3 -29.25 -3.7 M-4.6 25.2 L-6.55 24.65 -6.15 24.75 -4.6 25.2 M20.2 -24.1 Q21.3 -20.75 22.8 -19.2 L23.75 -18.4 26.1 -17.15 29.1 -15.7 Q34.0 -13.65 31.05 -9.25 28.0 -4.95 26.55 -1.7 25.05 1.55 28.95 7.55 32.7 13.5 33.0 18.6 33.35 23.65 25.9 23.95 18.25 24.35 17.0 27.3 L15.0 31.05 13.25 32.85 Q12.05 33.9 9.9 34.4 7.75 34.8 0.55 30.65 -6.6 26.4 -13.8 28.4 -20.9 30.4 -26.0 28.95 -31.15 27.55 -31.0 24.1 -30.85 20.6 -28.8 17.4 -26.55 14.05 -26.4 10.65 L-26.3 10.1 Q-26.2 9.55 -27.35 8.5 -29.75 7.3 -32.1 5.65 -34.75 3.7 -32.9 0.7 -31.15 -2.4 -29.5 -6.25 L-29.35 -6.65 -28.95 -9.8 Q-28.55 -12.75 -29.4 -17.15 -30.35 -21.6 -26.95 -22.65 -23.6 -23.7 -23.65 -23.85 L-22.8 -25.9 Q-21.9 -27.8 -19.35 -27.25 -16.9 -26.7 -15.4 -30.2 -13.85 -33.8 -8.75 -30.7 -4.15 -31.25 -0.85 -28.4 1.7 -26.25 6.3 -28.3 L9.65 -30.3 Q10.7 -31.0 11.75 -31.3 L14.05 -31.65 Q16.9 -31.4 19.0 -27.25 L20.2 -24.1" fill="#705236" fill-rule="evenodd" stroke="none"/>
    <path d="M0.0 -24.45 Q2.7 -23.75 5.35 -24.55 9.25 -25.75 13.4 -25.85 L13.95 -25.65 Q16.65 -24.3 16.85 -21.05 17.0 -17.8 18.45 -14.75 19.8 -12.05 22.95 -12.55 L26.0 -12.45 26.4 -12.15 Q27.75 -8.7 25.55 -5.35 23.15 -1.85 23.95 2.3 24.25 3.9 24.9 5.4 L29.6 17.4 29.65 17.9 Q28.95 19.9 26.8 20.75 L26.5 20.85 16.9 22.35 Q15.55 22.5 13.4 24.5 11.25 26.5 8.8 27.15 L3.75 27.45 Q1.2 27.2 -2.4 25.0 L-4.0 24.0 Q-6.45 22.65 -9.3 23.3 -13.95 24.35 -18.75 24.4 -21.3 24.4 -23.45 23.05 -25.1 22.05 -24.85 20.2 L-23.75 13.45 Q-23.35 10.9 -24.45 8.75 -25.65 6.25 -27.65 4.1 -29.35 2.35 -29.0 -0.05 -28.7 -2.65 -27.25 -6.65 -25.85 -10.6 -26.0 -13.0 -26.2 -15.5 -24.7 -18.4 -23.25 -21.35 -20.1 -21.6 -16.9 -21.95 -15.7 -23.6 L-13.95 -25.85 Q-10.9 -26.7 -10.1 -26.4 L-8.05 -26.55 Q-6.75 -27.1 -4.55 -26.05 -2.3 -25.05 0.0 -24.45" fill="#eeab46" fill-rule="evenodd" stroke="none"/>
    <path d="M-27.8 -10.3 L-27.75 -9.4 -27.65 -9.1 -27.6 -9.65 -27.6 -9.8 Q-26.85 -14.35 -26.4 -19.0 L-25.9 -19.85 Q-23.85 -22.0 -20.9 -22.7 -17.3 -23.7 -14.9 -26.65 -13.95 -27.8 -12.5 -28.4 -9.3 -27.6 -6.05 -27.65 -5.15 -27.75 -4.4 -27.25 -1.65 -25.85 1.3 -25.2 L4.25 -25.25 10.6 -26.85 Q13.55 -27.6 15.65 -25.9 16.75 -25.1 17.15 -23.85 18.1 -20.75 18.5 -17.4 18.85 -14.85 21.05 -13.65 L23.15 -13.55 Q26.15 -14.5 27.5 -12.2 28.3 -10.8 27.9 -9.2 27.2 -6.0 25.7 -2.95 23.75 0.85 25.7 4.75 L27.05 7.7 Q29.1 12.95 30.65 18.3 30.8 18.85 30.4 19.35 26.7 23.15 21.4 22.75 17.0 22.45 14.6 24.8 12.15 27.15 9.5 28.9 6.85 30.65 2.7 28.5 -1.5 26.35 -4.6 25.2 L-6.15 24.75 -6.85 24.5 -9.5 24.35 -12.85 25.0 Q-18.8 26.4 -24.05 23.8 -24.85 23.4 -25.35 22.6 -26.45 20.9 -25.85 18.7 -24.95 15.75 -24.8 12.65 -24.55 8.4 -27.8 5.55 -30.55 3.15 -29.95 -0.35 L-29.25 -3.7 -27.8 -10.3 M0.0 -24.45 Q-2.3 -25.05 -4.55 -26.05 -6.75 -27.1 -8.05 -26.55 L-10.1 -26.4 Q-10.9 -26.7 -13.95 -25.85 L-15.7 -23.6 Q-16.9 -21.95 -20.1 -21.6 -23.25 -21.35 -24.7 -18.4 -26.2 -15.5 -26.0 -13.0 -25.85 -10.6 -27.25 -6.65 -28.7 -2.65 -29.0 -0.05 -29.35 2.35 -27.65 4.1 -25.65 6.25 -24.45 8.75 -23.35 10.9 -23.75 13.45 L-24.85 20.2 Q-25.1 22.05 -23.45 23.05 -21.3 24.4 -18.75 24.4 -13.95 24.35 -9.3 23.3 -6.45 22.65 -4.0 24.0 L-2.4 25.0 Q1.2 27.2 3.75 27.45 L8.8 27.15 Q11.25 26.5 13.4 24.5 15.55 22.5 16.9 22.35 L26.5 20.85 26.8 20.75 Q28.95 19.9 29.65 17.9 L29.6 17.4 24.9 5.4 Q24.25 3.9 23.95 2.3 23.15 -1.85 25.55 -5.35 27.75 -8.7 26.4 -12.15 L26.0 -12.45 22.95 -12.55 Q19.8 -12.05 18.45 -14.75 17.0 -17.8 16.85 -21.05 16.65 -24.3 13.95 -25.65 L13.4 -25.85 Q9.25 -25.75 5.35 -24.55 2.7 -23.75 0.0 -24.45" fill="#83674c" fill-rule="evenodd" stroke="none"/>
    <path d="M-27.8 -10.3 L-27.8 -10.4 Q-28.7 -18.65 -27.65 -20.4 -26.3 -22.65 -24.15 -23.1 -22.1 -23.6 -19.75 -24.65 -17.3 -25.75 -16.25 -26.85 L-13.7 -29.25 Q-12.05 -30.7 -9.8 -29.9 L-6.05 -28.8 -4.3 -28.6 Q-3.9 -28.85 -1.75 -27.4 L1.15 -25.65 5.35 -26.0 Q8.95 -26.85 11.5 -28.2 14.05 -29.65 15.15 -29.65 16.2 -29.65 17.15 -27.25 L18.35 -24.65 Q19.85 -22.9 19.7 -19.0 19.6 -15.1 21.95 -15.3 L24.9 -15.55 27.5 -14.85 Q29.45 -14.35 30.3 -12.3 31.2 -10.2 28.3 -6.7 25.3 -3.2 25.05 0.05 24.9 3.4 28.1 7.7 31.35 11.85 32.05 15.65 32.95 19.35 31.35 21.5 29.9 23.45 25.45 23.65 L18.45 24.25 Q15.9 24.65 15.25 26.65 14.6 28.65 13.35 29.75 11.95 30.8 10.2 31.05 L6.05 31.45 Q3.75 31.65 2.1 30.55 0.4 29.35 -0.8 28.8 -1.9 28.4 -6.45 25.85 L-7.7 25.15 -9.9 25.0 Q-13.7 25.6 -16.5 27.3 -19.3 28.8 -24.65 28.0 -29.9 27.05 -29.4 24.65 -28.55 19.7 -27.25 17.8 -25.9 15.65 -25.1 13.85 -24.45 12.1 -25.1 9.7 -25.9 7.2 -29.0 5.7 -32.2 4.1 -31.9 2.7 L-31.1 0.05 Q-30.75 -1.2 -29.25 -3.7 L-29.95 -0.35 Q-30.55 3.15 -27.8 5.55 -24.55 8.4 -24.8 12.65 -24.95 15.75 -25.85 18.7 -26.45 20.9 -25.35 22.6 -24.85 23.4 -24.05 23.8 -18.8 26.4 -12.85 25.0 L-9.5 24.35 -6.85 24.5 -6.15 24.75 -6.55 24.65 -4.6 25.2 Q-1.5 26.35 2.7 28.5 6.85 30.65 9.5 28.9 12.15 27.15 14.6 24.8 17.0 22.45 21.4 22.75 26.7 23.15 30.4 19.35 30.8 18.85 30.65 18.3 29.1 12.95 27.05 7.7 L25.7 4.75 Q23.75 0.85 25.7 -2.95 27.2 -6.0 27.9 -9.2 28.3 -10.8 27.5 -12.2 26.15 -14.5 23.15 -13.55 L21.05 -13.65 Q18.85 -14.85 18.5 -17.4 18.1 -20.75 17.15 -23.85 16.75 -25.1 15.65 -25.9 13.55 -27.6 10.6 -26.85 L4.25 -25.25 1.3 -25.2 Q-1.65 -25.85 -4.4 -27.25 -5.15 -27.75 -6.05 -27.65 -9.3 -27.6 -12.5 -28.4 -13.95 -27.8 -14.9 -26.65 -17.3 -23.7 -20.9 -22.7 -23.85 -22.0 -25.9 -19.85 L-26.4 -19.0 Q-26.85 -14.35 -27.6 -9.8 L-27.6 -9.65 -27.65 -9.1 -27.75 -9.4 -27.8 -10.3" fill="#957556" fill-rule="evenodd" stroke="none"/>
    <path d="M-3.15 -17.25 L-4.05 -17.25 Q-3.45 -17.65 -2.5 -18.8 -3.25 -18.9 -4.1 -19.4 L-5.05 -19.95 -2.65 -20.15 Q-4.0 -20.8 -4.05 -21.6 L-4.15 -22.05 Q-3.85 -21.65 -2.15 -21.25 L-2.5 -22.15 Q-2.55 -23.55 -2.0 -24.1 L-1.6 -24.35 Q-1.85 -24.0 -1.15 -22.55 L-1.05 -22.3 Q-0.75 -23.3 0.3 -24.15 L0.95 -22.6 0.95 -22.45 2.3 -23.0 2.15 -21.9 3.8 -21.85 2.45 -20.6 1.7 -20.1 2.45 -19.95 4.6 -20.15 4.35 -19.65 Q3.8 -18.85 2.3 -18.55 L3.05 -17.2 1.25 -17.4 1.55 -16.95 Q1.1 -17.05 0.7 -17.3 L0.65 -17.3 Q0.5 -16.6 -0.05 -15.65 L-0.8 -16.75 -1.4 -16.25 -1.95 -17.6 -3.15 -17.25" fill="#351f17" fill-opacity="0.2901961" fill-rule="evenodd" stroke="none"/>
    <path d="M-4.35 -19.8 Q-4.85 -20.0 -5.25 -20.35 -4.0 -20.2 -1.1 -21.0 0.95 -21.5 1.25 -22.05 L1.25 -21.5 Q1.35 -20.6 -0.35 -19.5 -1.9 -18.4 -4.35 -19.8" fill="#276b16" fill-rule="evenodd" stroke="none"/>
    <path d="M2.75 -21.45 L3.55 -21.95 -0.7 -22.4 Q-2.75 -22.8 -3.15 -23.25 L-3.05 -22.8 Q-3.0 -21.95 -1.2 -21.05 0.55 -20.15 2.75 -21.45" fill="url(#gradient0)" fill-rule="evenodd" stroke="none"/>
    <path d="M-0.25 -20.2 Q0.5 -19.75 0.65 -18.45 0.85 -17.2 0.0 -15.8 L-0.95 -17.1 Q-1.55 -18.0 -1.05 -19.0 L-0.25 -20.2" fill="#276b16" fill-rule="evenodd" stroke="none"/>
    <path d="M0.1 -20.35 L0.85 -20.2 Q0.15 -20.75 -0.65 -22.75 -1.2 -24.1 -1.05 -24.6 L-1.4 -24.25 Q-1.95 -23.75 -1.85 -22.3 -1.85 -20.85 0.1 -20.35" fill="url(#gradient1)" fill-rule="evenodd" stroke="none"/>
    <path d="M-1.1 -17.8 L-1.8 -19.4 Q-2.15 -20.4 -1.35 -21.2 L-0.05 -22.25 Q0.75 -21.55 0.7 -20.5 0.4 -19.0 -1.1 -17.8" fill="url(#gradient2)" fill-rule="evenodd" stroke="none"/>
    <path d="M-0.6 -20.15 Q0.4 -20.25 1.55 -19.55 2.75 -18.85 3.35 -17.45 L1.5 -17.75 Q0.25 -17.95 -0.15 -18.9 L-0.6 -20.15" fill="#276b16" fill-rule="evenodd" stroke="none"/>
    <path d="M-2.35 -18.25 L-3.35 -18.2 Q-2.3 -18.8 -0.6 -21.1 0.55 -22.65 0.5 -23.25 L0.8 -22.9 Q1.35 -22.15 0.75 -20.4 0.15 -18.6 -2.35 -18.25" fill="url(#gradient3)" fill-rule="evenodd" stroke="none"/>
    <path d="M-0.45 -19.8 L-0.7 -20.55 Q0.0 -20.0 2.3 -19.7 L4.4 -19.75 4.05 -19.35 Q3.55 -18.55 1.9 -18.2 0.25 -17.8 -0.45 -19.8" fill="url(#gradient4)" fill-rule="evenodd" stroke="none"/>
    <path d="M-2.0 -18.35 Q-2.15 -19.25 -1.15 -20.35 -0.3 -21.4 1.5 -22.05 L1.15 -20.3 Q0.85 -19.15 -0.3 -18.75 L-2.0 -18.35" fill="#276b16" fill-rule="evenodd" stroke="none"/>
    <path d="M1.35 -17.55 Q1.75 -17.3 2.2 -17.2 1.6 -18.0 1.35 -20.35 1.1 -21.95 1.5 -22.4 L1.0 -22.15 Q0.15 -21.8 -0.25 -20.25 -0.7 -18.7 1.35 -17.55" fill="url(#gradient5)" fill-rule="evenodd" stroke="none"/>
    <path d="M4.55 -22.25 L3.15 -20.95 Q2.2 -20.15 1.05 -20.25 L-0.55 -20.45 Q-0.15 -21.3 0.95 -21.8 2.7 -22.5 4.55 -22.25" fill="url(#gradient6)" fill-rule="evenodd" stroke="none"/>
    <path d="M-1.1 -20.75 Q-1.75 -21.4 -1.5 -22.75 -1.4 -24.0 -0.05 -25.25 L0.65 -23.65 Q1.0 -22.6 0.2 -21.8 -0.6 -20.95 -1.1 -20.75" fill="url(#gradient7)" fill-rule="evenodd" stroke="none"/>
    <path d="M20.6 14.55 L20.35 13.85 21.9 14.75 Q21.85 14.1 22.1 13.3 L22.3 12.45 Q22.35 13.15 23.0 14.3 23.25 13.1 23.85 12.9 24.0 12.75 24.2 12.7 23.95 13.05 23.95 14.5 24.25 14.2 24.7 14.0 L26.35 14.05 26.65 14.3 Q26.3 14.15 25.3 15.0 L25.1 15.15 Q25.9 15.2 26.85 15.8 26.6 16.25 25.75 16.7 L25.65 16.75 26.4 17.75 25.5 17.8 25.8 19.15 24.45 18.35 23.95 17.85 23.95 18.5 Q24.15 19.8 24.6 20.15 L24.1 20.05 Q23.4 19.8 22.75 18.65 L21.8 19.5 21.65 18.05 21.35 18.4 21.4 17.7 21.4 17.6 20.0 17.4 20.7 16.55 20.15 16.2 21.1 15.4 20.6 14.55" fill="#351f17" fill-opacity="0.2901961" fill-rule="evenodd" stroke="none"/>
    <path d="M22.2 12.75 L22.5 11.9 Q22.65 12.95 23.9 15.2 24.75 16.65 25.25 16.8 L24.85 16.9 Q24.1 17.2 22.85 16.1 21.65 15.05 22.2 12.75" fill="#276b16" fill-rule="evenodd" stroke="none"/>
    <path d="M24.85 17.8 L25.45 18.35 Q25.05 17.4 24.9 14.8 24.75 13.05 25.05 12.65 L24.65 12.8 Q24.05 13.05 23.7 14.7 23.35 16.3 24.85 17.8" fill="url(#gradient8)" fill-rule="evenodd" stroke="none"/>
    <path d="M23.55 16.15 Q23.3 16.8 22.3 17.2 L20.0 17.3 20.85 16.2 Q21.5 15.55 22.35 15.75 L23.55 16.15" fill="#276b16" fill-rule="evenodd" stroke="none"/>
    <path d="M23.9 16.3 L23.9 16.95 Q24.2 16.25 25.7 15.15 26.6 14.4 27.05 14.45 L26.75 14.25 Q26.2 13.9 25.0 14.25 23.85 14.6 23.9 16.3" fill="url(#gradient9)" fill-rule="evenodd" stroke="none"/>
    <path d="M20.8 16.2 L21.9 15.3 23.55 15.25 Q24.4 15.75 24.65 16.1 24.25 16.9 23.45 17.1 22.1 17.15 20.8 16.2" fill="url(#gradient10)" fill-rule="evenodd" stroke="none"/>
    <path d="M23.3 15.8 Q23.6 16.55 23.3 17.7 23.0 18.75 22.0 19.6 21.8 19.0 21.75 18.0 21.7 16.95 22.35 16.45 23.0 15.85 23.3 15.8" fill="#276b16" fill-rule="evenodd" stroke="none"/>
    <path d="M21.15 14.7 L20.85 14.0 Q21.55 14.65 23.8 15.55 L25.75 15.9 25.55 16.25 Q25.1 16.85 23.5 16.8 21.95 16.7 21.15 14.7" fill="url(#gradient11)" fill-rule="evenodd" stroke="none"/>
    <path d="M23.15 16.3 Q23.35 16.05 23.7 15.9 23.4 16.6 23.65 18.5 23.75 19.85 24.15 20.2 L23.75 20.05 Q22.95 19.8 22.35 18.5 21.65 17.25 23.15 16.3" fill="url(#gradient12)" fill-rule="evenodd" stroke="none"/>
    <path d="M22.25 15.45 Q22.9 15.1 24.05 15.65 25.1 16.15 26.0 17.45 L24.5 17.55 Q23.5 17.5 22.95 16.7 L22.25 15.45" fill="#276b16" fill-rule="evenodd" stroke="none"/>
    <path d="M21.7 17.7 Q21.55 18.05 21.55 18.45 22.05 17.8 23.9 17.05 25.15 16.55 25.55 16.75 L25.25 16.4 Q24.8 15.8 23.45 15.85 22.1 15.8 21.7 17.7" fill="url(#gradient13)" fill-rule="evenodd" stroke="none"/>
    <path d="M26.05 19.45 L24.75 18.6 Q23.9 18.0 23.7 17.05 L23.5 15.75 Q24.35 15.9 25.0 16.65 25.9 17.9 26.05 19.45" fill="url(#gradient14)" fill-rule="evenodd" stroke="none"/>
    <path d="M23.0 15.1 Q23.4 14.4 24.5 14.3 25.55 14.15 26.85 14.95 L25.75 15.85 24.15 15.9 23.0 15.1" fill="url(#gradient15)" fill-rule="evenodd" stroke="none"/>
    <path d="M-20.15 16.7 L-19.65 16.05 -19.65 17.9 Q-19.15 17.55 -18.35 17.35 L-17.5 17.1 Q-18.1 17.5 -18.75 18.65 -17.55 18.25 -17.05 18.65 L-16.75 18.85 Q-17.15 18.8 -18.4 19.55 L-17.65 19.95 Q-16.8 20.75 -16.8 21.35 L-16.9 21.75 Q-16.95 21.4 -18.2 20.95 L-18.4 20.9 Q-18.05 21.65 -18.1 22.75 L-19.45 22.25 -19.55 22.2 -20.0 23.25 -20.55 22.55 -21.55 23.5 -21.5 21.9 -21.3 21.2 Q-21.6 21.3 -21.9 21.55 L-23.05 22.9 -23.2 22.5 Q-23.3 21.75 -22.6 20.6 L-23.85 20.25 -22.65 19.3 -23.1 19.2 -22.4 18.95 -22.35 18.9 -22.95 17.55 -21.8 17.75 -21.8 17.1 Q-21.3 17.15 -20.65 17.55 L-20.15 16.7" fill="#351f17" fill-opacity="0.2901961" fill-rule="evenodd" stroke="none"/>
    <path d="M-17.95 17.25 L-17.1 17.0 Q-17.9 17.7 -19.2 19.85 -20.05 21.35 -19.95 21.9 L-20.25 21.55 Q-20.85 21.0 -20.55 19.45 -20.25 17.85 -17.95 17.25" fill="#276b16" fill-rule="evenodd" stroke="none"/>
    <path d="M-20.75 21.85 L-20.95 22.65 Q-20.35 21.8 -18.15 20.4 -16.7 19.45 -16.2 19.45 L-16.55 19.25 -18.65 19.3 Q-20.2 19.8 -20.75 21.85" fill="url(#gradient16)" fill-rule="evenodd" stroke="none"/>
    <path d="M-19.85 19.95 Q-20.55 20.05 -21.45 19.4 -22.3 18.8 -22.7 17.45 L-21.3 17.65 Q-20.4 17.85 -20.15 18.65 L-19.85 19.95" fill="#276b16" fill-rule="evenodd" stroke="none"/>
    <path d="M-20.0 20.7 L-20.5 21.05 Q-19.8 21.0 -18.15 21.65 -17.0 22.1 -16.8 22.5 L-16.8 22.15 Q-16.75 21.5 -17.7 20.7 -18.6 19.8 -20.0 20.7" fill="url(#gradient17)" fill-rule="evenodd" stroke="none"/>
    <path d="M-21.4 17.55 Q-20.85 17.65 -20.0 18.1 -19.2 18.5 -19.2 19.4 -19.2 20.4 -19.35 20.85 -20.25 20.9 -20.8 20.25 -21.55 19.2 -21.4 17.55" fill="url(#gradient18)" fill-rule="evenodd" stroke="none"/>
    <path d="M-19.9 19.85 Q-20.4 20.5 -21.5 20.8 L-23.8 20.6 -22.55 19.65 Q-21.65 19.05 -20.9 19.35 -20.1 19.6 -19.9 19.85" fill="#276b16" fill-rule="evenodd" stroke="none"/>
    <path d="M-20.3 17.3 L-19.8 16.7 Q-20.05 17.65 -19.65 20.05 -19.45 21.6 -19.05 21.95 L-19.45 21.9 Q-20.2 21.8 -20.9 20.35 -21.65 19.0 -20.3 17.3" fill="url(#gradient19)" fill-rule="evenodd" stroke="none"/>
    <path d="M-20.55 19.6 L-19.95 19.9 Q-20.7 19.95 -22.3 21.15 -23.35 21.95 -23.45 22.4 L-23.5 22.0 Q-23.7 21.15 -22.85 20.0 -22.15 18.8 -20.55 19.6" fill="url(#gradient20)" fill-rule="evenodd" stroke="none"/>
    <path d="M-20.0 18.35 Q-19.4 18.8 -19.3 20.05 -19.2 21.2 -19.9 22.6 L-20.75 21.35 Q-21.15 20.5 -20.75 19.6 L-20.0 18.35" fill="#276b16" fill-rule="evenodd" stroke="none"/>
    <path d="M-22.55 19.2 L-23.25 19.4 Q-22.4 19.55 -20.9 20.8 -19.8 21.6 -19.8 22.1 L-19.65 21.7 Q-19.3 20.95 -20.05 19.8 -20.7 18.6 -22.55 19.2" fill="url(#gradient21)" fill-rule="evenodd" stroke="none"/>
    <path d="M-21.8 24.15 L-21.7 22.6 Q-21.6 21.55 -20.9 20.9 L-19.85 20.05 Q-19.55 20.85 -19.9 21.8 -20.5 23.2 -21.8 24.15" fill="url(#gradient22)" fill-rule="evenodd" stroke="none"/>
    <path d="M-19.65 19.0 Q-18.9 19.0 -18.25 19.9 -17.55 20.75 -17.65 22.3 L-18.95 21.75 Q-19.8 21.35 -19.8 20.4 L-19.65 19.0" fill="url(#gradient23)" fill-rule="evenodd" stroke="none"/>
    <path d="M-18.15 15.5 Q-19.1 17.15 -20.4 15.65 -22.05 13.55 -19.45 12.7 -16.8 13.0 -18.15 15.5" fill="#83674c" fill-rule="evenodd" stroke="none"/>
    <path d="M3.7 25.0 Q3.05 26.85 1.85 25.35 0.85 24.05 2.1 23.25 4.35 23.1 3.7 25.0" fill="#705236" fill-rule="evenodd" stroke="none"/>
    <path d="M6.45 24.4 L6.6 24.4 7.0 24.55 7.1 24.6 Q7.4 25.4 6.75 26.05 5.75 27.0 5.1 25.9 4.6 25.0 5.55 24.55 L6.05 24.3 6.45 24.4" fill="#faca82" fill-rule="evenodd" stroke="none"/>
    <path d="M-22.15 -9.6 L-22.0 -9.6 -21.6 -9.45 -21.5 -9.4 Q-21.2 -8.6 -21.85 -7.95 -22.85 -7.0 -23.5 -8.1 -24.0 -9.0 -23.05 -9.45 L-22.55 -9.7 -22.15 -9.6" fill="#faca82" fill-rule="evenodd" stroke="none"/>
    <path d="M14.55 -22.85 Q13.6 -21.65 12.3 -22.7 10.65 -24.15 13.25 -24.75 15.9 -24.55 14.55 -22.85" fill="#d7932d" fill-rule="evenodd" stroke="none"/>
    <path d="M-24.3 -7.0 Q-23.45 -5.8 -24.75 -4.8 -26.6 -3.6 -26.55 -6.3 -25.6 -8.75 -24.3 -7.0" fill="#d7932d" fill-rule="evenodd" stroke="none"/>
  </g>
  <defs>
    <linearGradient gradientTransform="matrix(-0.0017, -0.0037, -0.0015, 0.0011, -1.15, -23.3)" gradientUnits="userSpaceOnUse" id="gradient0" spreadMethod="pad" x1="-819.2" x2="819.2">
      <stop offset="0.0" stop-color="#358023"/>
      <stop offset="0.9450980392156862" stop-color="#95bd53"/>
    </linearGradient>
    <linearGradient gradientTransform="matrix(0.0016, -0.0023, -0.0028, -4.0E-4, -0.8, -23.45)" gradientUnits="userSpaceOnUse" id="gradient1" spreadMethod="pad" x1="-819.2" x2="819.2">
      <stop offset="0.0" stop-color="#358023"/>
      <stop offset="0.9450980392156862" stop-color="#95bd53"/>
    </linearGradient>
    <linearGradient gradientTransform="matrix(0.0027, 0.0012, -0.0013, 0.001, 0.4, -19.2)" gradientUnits="userSpaceOnUse" id="gradient2" spreadMethod="pad" x1="-819.2" x2="819.2">
      <stop offset="0.0" stop-color="#358023"/>
      <stop offset="0.9450980392156862" stop-color="#95bd53"/>
    </linearGradient>
    <linearGradient gradientTransform="matrix(-0.0015, -0.0039, 0.0018, -1.0E-4, -0.9, -22.05)" gradientUnits="userSpaceOnUse" id="gradient3" spreadMethod="pad" x1="-819.2" x2="819.2">
      <stop offset="0.0" stop-color="#358023"/>
      <stop offset="0.9450980392156862" stop-color="#95bd53"/>
    </linearGradient>
    <linearGradient gradientTransform="matrix(0.0032, -0.0031, 4.0E-4, 0.0015, 3.1, -20.4)" gradientUnits="userSpaceOnUse" id="gradient4" spreadMethod="pad" x1="-819.2" x2="819.2">
      <stop offset="0.0" stop-color="#358023"/>
      <stop offset="0.9450980392156862" stop-color="#95bd53"/>
    </linearGradient>
    <linearGradient gradientTransform="matrix(0.0034, -0.0025, -0.0016, -7.0E-4, 2.15, -20.95)" gradientUnits="userSpaceOnUse" id="gradient5" spreadMethod="pad" x1="-819.2" x2="819.2">
      <stop offset="0.0" stop-color="#358023"/>
      <stop offset="0.9450980392156862" stop-color="#95bd53"/>
    </linearGradient>
    <linearGradient gradientTransform="matrix(2.0E-4, -0.0022, 0.0016, 2.0E-4, 2.45, -22.4)" gradientUnits="userSpaceOnUse" id="gradient6" spreadMethod="pad" x1="-819.2" x2="819.2">
      <stop offset="0.0" stop-color="#358023"/>
      <stop offset="0.9450980392156862" stop-color="#95bd53"/>
    </linearGradient>
    <linearGradient gradientTransform="matrix(-0.0027, -0.0012, 0.0013, -0.0011, -1.6, -23.8)" gradientUnits="userSpaceOnUse" id="gradient7" spreadMethod="pad" x1="-819.2" x2="819.2">
      <stop offset="0.0" stop-color="#358023"/>
      <stop offset="0.9450980392156862" stop-color="#95bd53"/>
    </linearGradient>
    <linearGradient gradientTransform="matrix(0.0026, -0.0022, -0.0012, -0.001, 25.5, 14.25)" gradientUnits="userSpaceOnUse" id="gradient8" spreadMethod="pad" x1="-819.2" x2="819.2">
      <stop offset="0.0" stop-color="#358023"/>
      <stop offset="0.9450980392156862" stop-color="#95bd53"/>
    </linearGradient>
    <linearGradient gradientTransform="matrix(0.0022, 8.0E-4, -3.0E-4, -0.0024, 26.2, 14.9)" gradientUnits="userSpaceOnUse" id="gradient9" spreadMethod="pad" x1="-819.2" x2="819.2">
      <stop offset="0.0" stop-color="#358023"/>
      <stop offset="0.9450980392156862" stop-color="#95bd53"/>
    </linearGradient>
    <linearGradient gradientTransform="matrix(-4.0E-4, 0.0024, -0.0011, -8.0E-4, 22.25, 17.2)" gradientUnits="userSpaceOnUse" id="gradient10" spreadMethod="pad" x1="-819.2" x2="819.2">
      <stop offset="0.0" stop-color="#358023"/>
      <stop offset="0.9450980392156862" stop-color="#95bd53"/>
    </linearGradient>
    <linearGradient gradientTransform="matrix(0.0028, -0.0021, 5.0E-4, 0.0015, 24.5, 15.05)" gradientUnits="userSpaceOnUse" id="gradient11" spreadMethod="pad" x1="-819.2" x2="819.2">
      <stop offset="0.0" stop-color="#358023"/>
      <stop offset="0.9450980392156862" stop-color="#95bd53"/>
    </linearGradient>
    <linearGradient gradientTransform="matrix(0.0032, 0.0019, -0.0012, 6.0E-4, 24.35, 19.05)" gradientUnits="userSpaceOnUse" id="gradient12" spreadMethod="pad" x1="-819.2" x2="819.2">
      <stop offset="0.0" stop-color="#358023"/>
      <stop offset="0.9450980392156862" stop-color="#95bd53"/>
    </linearGradient>
    <linearGradient gradientTransform="matrix(0.0027, 0.0022, 2.0E-4, -0.0014, 24.55, 17.55)" gradientUnits="userSpaceOnUse" id="gradient13" spreadMethod="pad" x1="-819.2" x2="819.2">
      <stop offset="0.0" stop-color="#358023"/>
      <stop offset="0.9450980392156862" stop-color="#95bd53"/>
    </linearGradient>
    <linearGradient gradientTransform="matrix(0.0018, -3.0E-4, 2.0E-4, 0.0013, 25.75, 17.75)" gradientUnits="userSpaceOnUse" id="gradient14" spreadMethod="pad" x1="-819.2" x2="819.2">
      <stop offset="0.0" stop-color="#358023"/>
      <stop offset="0.9450980392156862" stop-color="#95bd53"/>
    </linearGradient>
    <linearGradient gradientTransform="matrix(4.0E-4, -0.0024, 0.0011, 8.0E-4, 25.4, 14.0)" gradientUnits="userSpaceOnUse" id="gradient15" spreadMethod="pad" x1="-819.2" x2="819.2">
      <stop offset="0.0" stop-color="#358023"/>
      <stop offset="0.9450980392156862" stop-color="#95bd53"/>
    </linearGradient>
    <linearGradient gradientTransform="matrix(0.0032, 0.0012, 2.0E-4, -0.0015, -17.4, 20.6)" gradientUnits="userSpaceOnUse" id="gradient16" spreadMethod="pad" x1="-819.2" x2="819.2">
      <stop offset="0.0" stop-color="#358023"/>
      <stop offset="0.9450980392156862" stop-color="#95bd53"/>
    </linearGradient>
    <linearGradient gradientTransform="matrix(4.0E-4, 0.0023, 0.0019, -0.0014, -17.65, 21.95)" gradientUnits="userSpaceOnUse" id="gradient17" spreadMethod="pad" x1="-819.2" x2="819.2">
      <stop offset="0.0" stop-color="#358023"/>
      <stop offset="0.9450980392156862" stop-color="#95bd53"/>
    </linearGradient>
    <linearGradient gradientTransform="matrix(-0.0023, 9.0E-4, 2.0E-4, -0.0014, -21.45, 19.3)" gradientUnits="userSpaceOnUse" id="gradient18" spreadMethod="pad" x1="-819.2" x2="819.2">
      <stop offset="0.0" stop-color="#358023"/>
      <stop offset="0.9450980392156862" stop-color="#95bd53"/>
    </linearGradient>
    <linearGradient gradientTransform="matrix(0.0032, 0.0014, -0.001, 0.0011, -18.95, 20.4)" gradientUnits="userSpaceOnUse" id="gradient19" spreadMethod="pad" x1="-819.2" x2="819.2">
      <stop offset="0.0" stop-color="#358023"/>
      <stop offset="0.9450980392156862" stop-color="#95bd53"/>
    </linearGradient>
    <linearGradient gradientTransform="matrix(0.0, 0.0037, -0.0011, -7.0E-4, -22.3, 22.0)" gradientUnits="userSpaceOnUse" id="gradient20" spreadMethod="pad" x1="-819.2" x2="819.2">
      <stop offset="0.0" stop-color="#358023"/>
      <stop offset="0.9450980392156862" stop-color="#95bd53"/>
    </linearGradient>
    <linearGradient gradientTransform="matrix(-5.0E-4, 0.0035, 0.0013, -5.0E-4, -20.95, 21.65)" gradientUnits="userSpaceOnUse" id="gradient21" spreadMethod="pad" x1="-819.2" x2="819.2">
      <stop offset="0.0" stop-color="#358023"/>
      <stop offset="0.9450980392156862" stop-color="#95bd53"/>
    </linearGradient>
    <linearGradient gradientTransform="matrix(0.0012, 0.0015, -0.0011, 8.0E-4, -20.5, 23.0)" gradientUnits="userSpaceOnUse" id="gradient22" spreadMethod="pad" x1="-819.2" x2="819.2">
      <stop offset="0.0" stop-color="#358023"/>
      <stop offset="0.9450980392156862" stop-color="#95bd53"/>
    </linearGradient>
    <linearGradient gradientTransform="matrix(0.0023, -9.0E-4, -2.0E-4, 0.0014, -17.55, 20.5)" gradientUnits="userSpaceOnUse" id="gradient23" spreadMethod="pad" x1="-819.2" x2="819.2">
      <stop offset="0.0" stop-color="#358023"/>
      <stop offset="0.9450980392156862" stop-color="#95bd53"/>
    </linearGradient>
  </defs>
</svg>
