<?xml version="1.0" encoding="UTF-8" standalone="no"?>
<svg xmlns:ffdec="https://www.free-decompiler.com/flash" xmlns:xlink="http://www.w3.org/1999/xlink" ffdec:objectType="shape" height="65.15px" width="65.5px" xmlns="http://www.w3.org/2000/svg">
  <g transform="matrix(1.0, 0.0, 0.0, 1.0, 1.5, 1.5)">
    <path d="M32.85 0.05 Q27.9 0.45 21.3 2.9 14.65 5.3 9.7 5.7 4.7 6.1 2.25 8.75 -0.25 11.35 0.05 13.95 0.3 16.55 3.35 18.7 6.35 20.85 5.25 22.25 4.15 23.6 3.35 29.0 2.5 34.4 2.5 36.15 2.5 38.45 4.5 40.3 L8.85 44.35 Q12.15 47.4 13.15 50.05 14.15 52.7 18.55 53.9 22.95 55.1 25.25 55.2 27.5 55.3 29.95 58.6 32.35 61.9 37.6 62.15 42.8 62.4 52.7 52.2 62.5 42.15 62.5 37.6 62.5 36.9 60.8 33.65 59.2 30.45 59.15 29.65 L59.25 22.55 Q59.25 18.75 56.8 16.0 54.2 13.05 48.45 12.95 45.4 9.5 40.7 3.5 37.75 -0.35 32.85 0.05 Z" fill="none" stroke="#ffffff" stroke-linecap="round" stroke-linejoin="round" stroke-width="3.0"/>
  </g>
</svg>
