<?xml version="1.0" encoding="UTF-8" standalone="no"?>
<svg xmlns:ffdec="https://www.free-decompiler.com/flash" xmlns:xlink="http://www.w3.org/1999/xlink" ffdec:objectType="shape" height="60.3px" width="59.95px" xmlns="http://www.w3.org/2000/svg">
  <g transform="matrix(1.0, 0.0, 0.0, 1.0, 30.0, 30.0)">
    <path d="M26.6 -4.8 L26.65 -2.95 Q26.95 -1.15 26.55 0.5 32.15 4.6 28.55 10.75 26.55 14.2 23.75 17.2 17.25 24.15 11.95 27.75 6.6 31.3 5.0 29.9 3.35 28.5 0.95 24.25 -1.9 22.75 -4.75 23.5 -7.0 24.1 -9.3 23.0 -12.3 21.65 -14.1 21.7 -15.9 21.7 -15.55 19.8 -15.2 17.8 -15.4 16.95 -16.35 14.95 -18.3 13.15 -28.95 9.45 -27.45 3.6 -25.85 -2.7 -24.2 -7.25 -22.5 -11.8 -26.9 -12.55 -31.3 -13.35 -29.5 -17.9 -27.8 -22.5 -18.65 -24.1 -9.6 -25.7 -3.4 -29.7 6.55 -31.25 10.0 -25.3 13.35 -19.4 20.7 -16.7 28.0 -14.05 26.6 -4.8" fill="#7bd8e7" fill-opacity="0.36078432" fill-rule="evenodd" stroke="none"/>
    <path d="M18.7 -12.0 L20.95 -5.7 Q21.55 -3.3 21.55 -0.25 23.6 4.9 25.2 5.3 26.75 5.7 27.55 6.55 28.35 7.4 26.3 10.3 24.2 13.1 19.45 18.0 14.65 22.85 9.3 25.75 6.8 27.1 3.55 26.55 0.25 25.95 -1.45 23.5 -3.15 21.1 -1.45 22.2 -3.05 21.1 -5.4 21.9 -7.8 22.6 -12.2 20.9 -13.9 19.25 -13.4 16.5 -14.65 15.5 -16.65 12.45 -26.65 7.4 -23.8 -0.2 -22.05 -6.75 -22.05 -8.95 -22.05 -11.0 -24.6 -13.8 L-27.15 -16.7 Q-27.15 -20.1 -18.35 -24.15 -9.55 -28.3 -4.15 -27.9 1.25 -27.6 9.1 -22.05 16.85 -16.6 18.7 -12.0" fill="#c1ebfb" fill-rule="evenodd" stroke="none"/>
    <path d="M20.3 -1.25 Q20.05 0.1 18.9 1.05 L19.3 0.6 20.1 -0.85 20.3 -1.25" fill="#fad14c" fill-rule="evenodd" stroke="none"/>
    <path d="M-0.35 12.8 Q1.3 13.0 0.45 14.3 0.0 15.1 -0.8 14.45 -2.0 13.45 -0.45 12.8 L-0.35 12.8" fill="#d9933d" fill-rule="evenodd" stroke="none"/>
    <path d="M4.6 15.35 Q5.95 15.5 5.0 16.55 4.1 17.55 3.95 16.35 3.8 15.55 4.6 15.35" fill="#c6873a" fill-rule="evenodd" stroke="none"/>
    <path d="M18.9 1.05 L18.8 1.15 18.15 1.6 18.0 1.6 15.7 3.2 Q15.95 4.9 16.7 5.55 L17.25 5.6 17.45 5.6 17.75 5.55 18.4 5.35 21.6 4.95 23.55 5.3 Q24.35 5.55 24.8 6.0 25.25 6.45 25.25 7.2 25.25 8.85 22.35 11.75 L22.15 11.95 Q19.0 15.1 14.05 18.9 9.25 22.6 7.5 24.45 5.8 26.25 4.5 25.5 L2.65 24.3 Q2.1 23.8 2.3 22.15 L2.5 21.05 2.35 20.85 Q1.05 17.85 0.2 18.15 L-0.05 18.2 -6.75 19.85 Q-9.55 20.55 -10.7 17.95 L-11.15 16.9 -11.35 16.4 -11.6 16.0 -11.85 15.9 Q-13.85 15.1 -15.1 13.85 -17.3 11.7 -18.25 8.3 -20.65 6.6 -22.4 4.35 -23.15 3.55 -22.9 2.4 -22.2 -0.7 -20.75 -3.45 -20.65 -3.8 -20.9 -4.2 -23.2 -7.6 -20.6 -11.0 -19.85 -11.55 -19.7 -12.05 L-19.65 -12.35 -19.7 -12.5 Q-19.8 -12.9 -20.4 -13.1 L-20.45 -13.1 -21.3 -13.35 -23.75 -15.65 -24.0 -16.05 -24.15 -16.2 Q-25.45 -18.35 -22.9 -19.55 L-21.9 -19.95 -21.75 -19.95 -21.65 -20.0 -21.35 -20.15 -21.25 -20.25 -16.95 -22.1 -12.4 -23.55 -11.1 -23.9 Q-9.3 -25.0 -5.85 -24.75 -2.75 -24.5 1.05 -23.15 L3.25 -22.25 6.05 -20.95 Q6.85 -20.45 8.75 -19.8 11.15 -19.85 11.55 -18.8 11.95 -17.65 12.7 -16.85 13.9 -15.65 14.7 -13.95 L14.85 -13.9 16.15 -13.0 16.2 -12.95 16.4 -12.75 16.55 -12.1 17.65 -10.7 17.8 -10.5 17.85 -10.4 18.05 -10.05 18.15 -9.95 18.15 -9.45 18.2 -9.05 18.2 -8.95 18.15 -8.75 Q18.0 -7.55 18.4 -6.35 L18.45 -5.5 Q20.1 -4.4 20.3 -2.6 L20.3 -1.25 20.1 -0.85 19.3 0.6 18.9 1.05 M-1.25 -23.1 Q-7.7 -25.15 -7.8 -22.55 -10.4 -21.9 -13.3 -21.8 -16.3 -21.6 -18.6 -20.65 L-22.35 -19.15 Q-23.8 -18.55 -24.0 -17.65 -24.65 -16.5 -22.05 -15.2 -18.25 -13.2 -18.05 -12.35 -17.95 -11.55 -18.4 -10.8 -19.3 -9.05 -19.4 -7.1 -19.5 -5.2 -18.25 -3.65 -17.85 -3.15 -17.95 -2.35 -18.25 0.35 -19.85 2.65 -20.4 3.55 -19.7 4.35 L-14.7 9.85 -14.1 10.9 Q-13.6 13.45 -12.05 14.3 -10.55 15.25 -10.15 17.1 -9.85 18.9 -5.1 18.25 L0.0 17.4 1.85 17.15 Q3.35 17.1 3.8 21.7 4.2 26.3 8.3 22.8 12.4 19.3 13.7 16.4 14.9 13.5 18.8 12.15 22.5 10.8 23.95 7.6 24.5 4.5 20.75 5.75 17.05 7.0 15.4 4.95 13.7 2.9 17.0 0.95 18.5 -0.05 18.85 -2.0 L19.1 -3.95 Q16.55 -6.0 16.35 -9.25 16.35 -10.7 14.7 -12.95 L11.05 -17.75 Q9.05 -17.95 8.45 -18.5 5.15 -21.05 -1.25 -23.1" fill="#9f743e" fill-rule="evenodd" stroke="none"/>
    <path d="M-1.25 -23.1 Q5.15 -21.05 8.45 -18.5 9.05 -17.95 11.05 -17.75 L14.7 -12.95 Q16.35 -10.7 16.35 -9.25 16.55 -6.0 19.1 -3.95 L18.85 -2.0 Q18.5 -0.05 17.0 0.95 13.7 2.9 15.4 4.95 17.05 7.0 20.75 5.75 24.5 4.5 23.95 7.6 22.5 10.8 18.8 12.15 14.9 13.5 13.7 16.4 12.4 19.3 8.3 22.8 4.2 26.3 3.8 21.7 3.35 17.1 1.85 17.15 L0.0 17.4 -5.1 18.25 Q-9.85 18.9 -10.15 17.1 -10.55 15.25 -12.05 14.3 -13.6 13.45 -14.1 10.9 L-14.7 9.85 -19.7 4.35 Q-20.4 3.55 -19.85 2.65 -18.25 0.35 -17.95 -2.35 -17.85 -3.15 -18.25 -3.65 -19.5 -5.2 -19.4 -7.1 -19.3 -9.05 -18.4 -10.8 -17.95 -11.55 -18.05 -12.35 -18.25 -13.2 -22.05 -15.2 -24.65 -16.5 -24.0 -17.65 -23.8 -18.55 -22.35 -19.15 L-18.6 -20.65 Q-16.3 -21.6 -13.3 -21.8 -10.4 -21.9 -7.8 -22.55 -7.7 -25.15 -1.25 -23.1 M4.6 15.35 Q3.8 15.55 3.95 16.35 4.1 17.55 5.0 16.55 5.95 15.5 4.6 15.35 M-0.35 12.8 L-0.45 12.8 Q-2.0 13.45 -0.8 14.45 0.0 15.1 0.45 14.3 1.3 13.0 -0.35 12.8" fill="#e5ac3f" fill-rule="evenodd" stroke="none"/>
    <path d="M5.95 8.5 L6.4 8.05 Q6.1 8.75 6.15 10.6 6.15 11.9 6.4 12.2 L6.1 12.15 Q5.5 12.0 5.1 10.85 4.75 9.75 5.95 8.5" fill="#276b16" fill-rule="evenodd" stroke="none"/>
    <path d="M5.3 12.25 L5.45 12.8 Q5.55 12.05 6.4 10.35 7.0 9.2 7.3 9.05 L7.0 9.05 Q6.5 8.9 5.7 9.85 4.85 10.75 5.3 12.25" fill="url(#gradient0)" fill-rule="evenodd" stroke="none"/>
    <path d="M5.8 10.85 L4.6 11.1 Q3.85 11.0 3.1 10.3 3.4 10.05 4.05 9.9 4.7 9.7 5.15 10.15 L5.8 10.85" fill="#276b16" fill-rule="evenodd" stroke="none"/>
    <path d="M5.8 11.0 L5.6 11.4 Q6.05 11.1 7.4 10.9 L8.55 11.0 8.4 10.75 Q8.2 10.3 7.3 10.15 6.4 9.95 5.8 11.0" fill="url(#gradient1)" fill-rule="evenodd" stroke="none"/>
    <path d="M3.65 9.8 L4.7 9.65 Q5.4 9.6 5.75 10.2 L6.15 11.2 5.0 11.3 Q4.15 10.9 3.65 9.8" fill="url(#gradient2)" fill-rule="evenodd" stroke="none"/>
    <path d="M6.1 10.7 Q6.0 11.3 5.4 11.9 4.8 12.5 3.85 12.65 L4.3 11.5 Q4.6 10.85 5.25 10.75 L6.1 10.7" fill="#276b16" fill-rule="evenodd" stroke="none"/>
    <path d="M4.4 8.75 L4.5 8.15 Q4.7 8.85 5.85 10.25 6.6 11.15 6.9 11.25 L6.65 11.35 Q6.1 11.55 5.2 10.95 4.2 10.3 4.4 8.75" fill="url(#gradient3)" fill-rule="evenodd" stroke="none"/>
    <path d="M5.75 10.95 L6.3 10.95 Q5.85 11.2 5.25 12.6 4.9 13.5 5.0 13.85 L4.8 13.6 Q4.4 13.15 4.45 12.05 4.5 11.05 5.75 10.95" fill="url(#gradient4)" fill-rule="evenodd" stroke="none"/>
    <path d="M5.5 10.25 Q6.1 10.3 6.55 11.05 7.1 11.75 7.15 12.95 L6.15 12.45 Q5.6 12.05 5.5 11.3 L5.5 10.25" fill="#276b16" fill-rule="evenodd" stroke="none"/>
    <path d="M4.1 11.0 L3.75 11.5 5.75 11.45 Q6.75 11.6 6.95 11.85 L6.9 11.55 Q6.85 10.95 6.0 10.5 5.1 9.95 4.1 11.0" fill="url(#gradient5)" fill-rule="evenodd" stroke="none"/>
    <path d="M6.15 13.95 L5.65 12.95 Q5.3 12.25 5.55 11.55 L5.9 10.65 Q6.35 11.05 6.5 11.8 6.6 12.9 6.15 13.95" fill="url(#gradient6)" fill-rule="evenodd" stroke="none"/>
    <path d="M5.75 10.5 L7.0 10.6 Q7.7 10.9 8.25 11.9 L7.2 12.05 Q6.5 12.1 6.15 11.5 5.8 10.9 5.75 10.5" fill="url(#gradient7)" fill-rule="evenodd" stroke="none"/>
    <path d="M7.85 -2.15 L7.6 -2.5 9.2 -1.9 10.2 -1.8 10.1 -1.65 Q9.9 -1.3 9.15 -1.3 8.4 -1.2 7.85 -2.15" fill="#276b16" fill-rule="evenodd" stroke="none"/>
    <path d="M10.25 -1.2 L10.65 -1.25 Q10.2 -1.4 9.25 -2.25 L8.6 -3.0 8.55 -2.8 Q8.4 -2.5 8.85 -1.85 9.3 -1.2 10.25 -1.2" fill="url(#gradient8)" fill-rule="evenodd" stroke="none"/>
    <path d="M9.1 -1.45 Q9.25 -1.2 9.0 -0.7 8.85 -0.25 8.3 0.05 L8.25 -0.55 Q8.2 -1.0 8.55 -1.2 L9.1 -1.45" fill="#276b16" fill-rule="evenodd" stroke="none"/>
    <path d="M9.2 -1.45 L9.4 -1.25 Q9.25 -1.6 9.4 -2.45 9.45 -2.95 9.65 -3.1 L9.45 -3.1 8.9 -2.5 Q8.65 -2.0 9.2 -1.45" fill="url(#gradient9)" fill-rule="evenodd" stroke="none"/>
    <path d="M8.05 -0.65 L8.15 -1.3 Q8.2 -1.75 8.6 -1.85 L9.25 -2.0 Q9.45 -1.55 9.15 -1.2 8.8 -0.75 8.05 -0.65" fill="url(#gradient10)" fill-rule="evenodd" stroke="none"/>
    <path d="M8.65 -1.65 L9.25 -1.0 9.45 0.05 8.9 -0.4 Q8.5 -0.75 8.5 -1.15 L8.65 -1.65" fill="#276b16" fill-rule="evenodd" stroke="none"/>
    <path d="M7.7 -0.75 L7.3 -0.95 Q7.8 -0.95 8.85 -1.4 L9.65 -1.9 9.65 -1.75 Q9.7 -1.4 9.15 -0.9 8.65 -0.4 7.7 -0.75" fill="url(#gradient11)" fill-rule="evenodd" stroke="none"/>
    <path d="M9.05 -1.9 L9.1 -2.2 Q9.25 -1.9 9.95 -1.35 10.45 -0.95 10.65 -0.95 L10.5 -0.85 9.5 -0.95 Q8.85 -1.1 9.05 -1.9" fill="url(#gradient12)" fill-rule="evenodd" stroke="none"/>
    <path d="M8.4 -1.65 L9.05 -2.15 10.3 -2.2 9.85 -1.65 Q9.5 -1.4 9.0 -1.45 8.55 -1.5 8.4 -1.65" fill="#276b16" fill-rule="evenodd" stroke="none"/>
    <path d="M9.55 -0.1 L9.7 0.2 Q9.7 -0.2 10.05 -1.05 10.25 -1.65 10.5 -1.75 L10.3 -1.7 Q9.95 -1.8 9.45 -1.3 9.05 -0.85 9.55 -0.1" fill="url(#gradient13)" fill-rule="evenodd" stroke="none"/>
    <path d="M11.2 -1.05 L10.5 -0.9 9.65 -1.05 9.15 -1.45 9.9 -1.6 11.2 -1.05" fill="url(#gradient14)" fill-rule="evenodd" stroke="none"/>
    <path d="M9.1 -1.6 Q9.0 -2.0 9.3 -2.4 L10.35 -2.95 10.3 -2.3 Q10.2 -1.85 9.75 -1.75 L9.1 -1.6" fill="url(#gradient15)" fill-rule="evenodd" stroke="none"/>
    <path d="M16.15 -7.7 L16.5 -8.05 Q16.25 -7.5 16.25 -6.15 16.25 -5.25 16.45 -5.05 L16.25 -5.1 Q15.85 -5.2 15.55 -6.0 15.3 -6.8 16.15 -7.7" fill="#276b16" fill-rule="evenodd" stroke="none"/>
    <path d="M15.55 -5.3 L15.7 -4.9 Q15.75 -5.45 16.35 -6.7 L17.05 -7.65 16.85 -7.65 Q16.45 -7.75 15.85 -7.05 15.25 -6.4 15.55 -5.3" fill="url(#gradient16)" fill-rule="evenodd" stroke="none"/>
    <path d="M16.0 -6.15 L15.1 -6.0 Q14.6 -6.05 14.0 -6.55 L14.7 -6.8 15.55 -6.65 16.0 -6.15" fill="#276b16" fill-rule="evenodd" stroke="none"/>
    <path d="M15.9 -6.3 L15.75 -6.0 Q16.05 -6.25 17.0 -6.3 L17.85 -6.3 17.75 -6.45 16.95 -6.9 Q16.3 -7.05 15.9 -6.3" fill="url(#gradient17)" fill-rule="evenodd" stroke="none"/>
    <path d="M14.45 -7.1 L15.15 -7.25 Q15.65 -7.3 15.9 -6.85 L16.25 -6.15 15.4 -6.05 Q14.75 -6.35 14.45 -7.1" fill="url(#gradient18)" fill-rule="evenodd" stroke="none"/>
    <path d="M15.9 -6.45 Q15.85 -6.0 15.4 -5.55 14.95 -5.15 14.3 -5.05 L14.6 -5.85 15.25 -6.4 15.9 -6.45" fill="#276b16" fill-rule="evenodd" stroke="none"/>
    <path d="M14.85 -7.65 L14.95 -8.1 Q15.05 -7.55 15.85 -6.55 L16.7 -5.85 16.45 -5.75 Q16.1 -5.6 15.4 -6.1 14.7 -6.55 14.85 -7.65" fill="url(#gradient19)" fill-rule="evenodd" stroke="none"/>
    <path d="M15.8 -6.3 L16.15 -6.35 15.4 -5.1 Q15.15 -4.5 15.25 -4.2 L15.1 -4.4 Q14.8 -4.75 14.8 -5.5 14.9 -6.2 15.8 -6.3" fill="url(#gradient20)" fill-rule="evenodd" stroke="none"/>
    <path d="M15.5 -6.75 L16.25 -6.15 Q16.65 -5.65 16.65 -4.85 16.4 -4.9 15.95 -5.2 15.5 -5.45 15.5 -6.0 L15.5 -6.75" fill="#276b16" fill-rule="evenodd" stroke="none"/>
    <path d="M14.6 -6.0 L14.3 -5.7 15.8 -5.7 16.65 -5.4 16.6 -5.65 15.9 -6.4 Q15.3 -6.75 14.6 -6.0" fill="url(#gradient21)" fill-rule="evenodd" stroke="none"/>
    <path d="M16.05 -4.5 L15.65 -5.2 Q15.45 -5.75 15.6 -6.2 L15.85 -6.9 16.3 -6.05 Q16.35 -5.25 16.05 -4.5" fill="url(#gradient22)" fill-rule="evenodd" stroke="none"/>
    <path d="M15.75 -6.6 Q16.1 -6.85 16.65 -6.6 L17.55 -5.7 16.85 -5.55 Q16.35 -5.5 16.1 -5.95 L15.75 -6.6" fill="url(#gradient23)" fill-rule="evenodd" stroke="none"/>
    <path d="M4.85 -18.25 Q4.9 -17.65 4.35 -17.45 L3.5 -17.6 3.35 -17.85 Q3.2 -18.1 3.35 -18.4 3.55 -18.85 4.05 -18.85 4.75 -18.85 4.85 -18.25" fill="#bd7c2d" fill-rule="evenodd" stroke="none"/>
    <path d="M15.25 -1.9 L15.1 -1.7 15.0 -1.65 14.7 -1.65 14.5 -1.75 14.45 -1.8 14.4 -1.95 14.4 -2.15 14.5 -2.35 14.6 -2.4 14.7 -2.45 14.85 -2.45 14.85 -2.5 15.0 -2.4 15.1 -2.35 15.2 -2.3 15.2 -2.2 15.25 -2.1 15.25 -1.9" fill="#bd7c2d" fill-rule="evenodd" stroke="none"/>
    <path d="M9.85 19.0 Q9.45 19.9 8.95 19.15 8.6 18.65 8.85 18.15 L8.95 18.1 9.05 18.05 9.25 18.0 Q10.15 18.15 9.85 19.0" fill="#bd7c2d" fill-rule="evenodd" stroke="none"/>
    <path d="M16.25 13.55 L16.45 13.6 16.5 13.65 16.6 13.7 16.7 13.85 16.7 14.15 16.65 14.45 16.55 14.7 16.4 14.85 15.65 14.9 15.55 14.8 Q15.4 14.7 15.4 14.45 15.35 14.15 15.6 13.85 15.8 13.6 16.15 13.55 L16.25 13.55" fill="#aa6d22" fill-rule="evenodd" stroke="none"/>
    <path d="M1.4 12.3 Q2.4 13.55 2.85 15.65 3.4 20.05 0.95 24.15 -1.5 24.05 -3.4 23.15 -3.55 17.75 -2.0 15.05 -0.75 12.75 1.4 12.3" fill="#5b1d0e" fill-opacity="0.4" fill-rule="evenodd" stroke="none"/>
    <path d="M2.45 16.0 Q2.5 16.55 2.0 16.7 L1.15 16.65 0.95 16.35 Q0.9 16.0 1.1 15.8 1.4 15.5 1.7 15.45 2.4 15.45 2.45 16.0" fill="#aa6d22" fill-rule="evenodd" stroke="none"/>
    <path d="M23.15 7.35 L23.3 7.75 23.15 8.1 23.0 8.1 22.7 8.1 22.45 8.05 22.3 7.85 22.4 7.4 Q22.55 7.2 22.85 7.2 L23.15 7.35" fill="#aa6d22" fill-rule="evenodd" stroke="none"/>
    <path d="M-19.85 -18.4 Q-20.9 -17.4 -21.1 -18.7 -21.2 -19.5 -20.3 -19.65 -18.85 -19.45 -19.85 -18.4" fill="#aa6d22" fill-rule="evenodd" stroke="none"/>
    <path d="M-8.8 16.25 L-8.6 16.3 -8.55 16.35 -8.45 16.4 -8.35 16.55 -8.35 16.85 -8.4 17.15 -8.5 17.4 -8.65 17.55 -9.4 17.6 -9.5 17.5 -9.65 17.15 -9.45 16.55 Q-9.25 16.3 -8.9 16.25 L-8.8 16.25" fill="#aa6d22" fill-rule="evenodd" stroke="none"/>
    <path d="M12.35 -15.35 L12.55 -15.3 12.6 -15.25 12.7 -15.2 12.8 -15.05 12.8 -14.75 12.75 -14.45 12.65 -14.2 12.5 -14.05 11.75 -14.0 11.65 -14.1 Q11.5 -14.2 11.5 -14.45 11.45 -14.75 11.7 -15.05 11.9 -15.3 12.25 -15.35 L12.35 -15.35" fill="#aa6d22" fill-rule="evenodd" stroke="none"/>
    <path d="M-19.4 -20.1 L-19.3 -20.05 -19.25 -20.0 -19.2 -20.0 -19.15 -19.9 -19.15 -19.8 -19.2 -19.6 -19.25 -19.5 -19.35 -19.4 -19.7 -19.4 -19.75 -19.45 -19.85 -19.6 -19.75 -19.9 -19.45 -20.1 -19.4 -20.1" fill="#aa6d22" fill-rule="evenodd" stroke="none"/>
    <path d="M7.35 12.3 Q5.9 10.15 6.0 7.65 6.1 5.05 7.05 2.65 7.95 0.35 9.9 -0.95 L10.2 -1.0 Q10.55 -0.85 10.5 -0.5 L10.2 1.75 Q9.4 4.7 9.3 7.75 L9.15 10.4 Q9.2 12.2 7.95 12.55 7.55 12.6 7.35 12.3" fill="#5b1d0e" fill-opacity="0.4" fill-rule="evenodd" stroke="none"/>
    <path d="M10.3 -0.7 L12.15 -0.4 10.05 12.15 8.2 11.85 Q8.3 5.6 10.3 -0.7" fill="#0e0704" fill-rule="evenodd" stroke="none"/>
    <path d="M20.55 6.45 L20.55 5.9 20.55 4.05 20.4 3.0 Q20.65 4.75 20.55 6.45" fill="#2e787b" fill-rule="evenodd" stroke="none"/>
    <path d="M11.7 9.5 L11.5 9.65 11.2 9.8 10.95 9.85 10.95 9.8 10.9 9.7 10.9 9.6 11.3 9.35 11.75 9.25 Q11.95 9.15 12.0 9.35 L12.0 9.4 11.85 9.45 11.75 9.5 11.7 9.5 M12.1 8.35 L11.5 7.3 11.6 7.3 11.75 7.35 11.75 7.4 11.8 7.45 11.8 7.7 11.8 7.8 12.1 7.75 12.3 8.15 12.1 8.35 M12.95 6.7 L12.75 6.85 12.7 6.7 Q12.65 6.55 12.75 6.55 L12.85 6.55 12.85 6.6 12.95 6.7 M10.7 5.7 L10.45 5.95 10.5 5.4 10.65 5.15 Q10.75 4.95 10.9 5.15 L10.9 5.2 10.8 5.5 10.7 5.7" fill="#1a5f62" fill-rule="evenodd" stroke="none"/>
    <path d="M14.0 7.5 L14.05 7.6 14.1 7.7 14.2 7.95 14.15 8.05 14.15 8.15 14.1 8.25 14.0 8.35 13.7 8.2 13.35 7.85 Q13.2 7.55 13.4 7.3 L13.5 7.3 13.6 7.35 13.8 7.4 13.95 7.5 14.0 7.5" fill="#2e696b" fill-rule="evenodd" stroke="none"/>
    <path d="M20.25 2.0 L19.95 1.95 19.2 1.95 18.6 1.95 18.55 1.85 18.5 1.85 18.45 1.7 18.2 1.45 17.9 1.15 17.55 1.0 17.5 1.0 17.45 1.1 17.4 1.05 17.35 1.15 18.8 3.3 19.85 3.85 Q18.9 4.2 17.95 4.85 19.15 5.35 19.35 5.8 19.7 6.35 19.5 6.95 18.95 8.5 19.95 9.4 L20.05 9.4 Q19.45 11.65 18.05 13.8 L8.1 12.15 8.75 10.8 8.6 11.85 9.1 10.25 9.35 9.85 Q9.65 9.2 10.5 8.5 L11.0 6.65 10.9 5.95 10.95 5.9 11.4 5.6 11.7 5.2 11.8 5.25 12.1 5.25 12.4 5.3 12.6 5.25 12.75 4.9 12.25 4.4 11.75 4.2 11.65 4.0 11.35 3.6 11.2 3.45 11.35 3.35 11.6 3.3 11.8 3.15 12.0 3.15 12.4 3.0 12.5 2.65 12.2 2.45 11.85 2.25 11.6 2.15 Q12.05 1.6 12.8 1.65 L14.5 1.8 16.05 1.95 16.1 1.9 16.15 1.8 16.1 1.7 16.1 1.65 16.05 1.55 15.15 1.4 14.15 1.2 13.25 1.1 Q13.15 1.1 13.2 0.95 L13.15 0.85 13.1 0.75 12.25 0.6 11.15 0.25 10.25 0.15 10.3 0.55 10.15 -0.4 20.1 1.25 20.25 2.0 M14.0 7.5 L13.95 7.5 13.8 7.4 13.6 7.35 13.5 7.3 13.4 7.3 Q13.2 7.55 13.35 7.85 L13.7 8.2 14.0 8.35 14.1 8.25 14.15 8.15 14.15 8.05 14.2 7.95 14.1 7.7 14.05 7.6 14.0 7.5 M12.95 6.7 L12.85 6.6 12.85 6.55 12.75 6.55 Q12.65 6.55 12.7 6.7 L12.75 6.85 12.95 6.7 M12.1 8.35 L12.3 8.15 12.1 7.75 11.8 7.8 11.8 7.7 11.8 7.45 11.75 7.4 11.75 7.35 11.6 7.3 11.5 7.3 12.1 8.35 M11.7 9.5 L11.75 9.5 11.85 9.45 12.0 9.4 12.0 9.35 Q11.95 9.15 11.75 9.25 L11.3 9.35 10.9 9.6 10.9 9.7 10.95 9.8 10.95 9.85 11.2 9.8 11.5 9.65 11.7 9.5" fill="#758283" fill-rule="evenodd" stroke="none"/>
    <path d="M20.4 3.0 L20.55 4.05 20.55 5.9 20.55 6.45 20.05 9.4 19.95 9.4 Q18.95 8.5 19.5 6.95 19.7 6.35 19.35 5.8 19.15 5.35 17.95 4.85 18.9 4.2 19.85 3.85 L18.8 3.3 17.35 1.15 17.4 1.05 17.45 1.1 17.5 1.0 17.55 1.0 17.9 1.15 18.2 1.45 18.45 1.7 18.5 1.85 18.55 1.85 18.6 1.95 19.2 1.95 19.95 1.95 20.25 2.0 20.4 3.0 M10.3 0.55 L10.25 0.15 11.15 0.25 12.25 0.6 13.1 0.75 13.15 0.85 13.2 0.95 Q13.15 1.1 13.25 1.1 L14.15 1.2 15.15 1.4 16.05 1.55 16.1 1.65 16.1 1.7 16.15 1.8 16.1 1.9 16.05 1.95 14.5 1.8 12.8 1.65 Q12.05 1.6 11.6 2.15 L11.85 2.25 12.2 2.45 12.5 2.65 12.4 3.0 12.0 3.15 11.8 3.15 11.6 3.3 11.35 3.35 11.2 3.45 11.35 3.6 11.65 4.0 11.75 4.2 12.25 4.4 12.75 4.9 12.6 5.25 12.4 5.3 12.1 5.25 11.8 5.25 11.7 5.2 11.4 5.6 10.95 5.9 10.9 5.95 11.0 6.65 10.5 8.5 Q9.65 9.2 9.35 9.85 L9.1 10.25 8.6 11.85 8.75 10.8 Q10.2 6.6 10.4 1.2 L10.35 0.7 10.3 0.55 M10.7 5.7 L10.8 5.5 10.9 5.2 10.9 5.15 Q10.75 4.95 10.65 5.15 L10.5 5.4 10.45 5.95 10.7 5.7" fill="#395456" fill-rule="evenodd" stroke="none"/>
    <path d="M18.2 11.6 Q18.65 11.85 18.7 12.4 L18.65 12.7 18.6 12.85 18.5 12.85 15.5 12.75 12.0 12.25 9.3 11.5 Q9.65 10.85 10.55 11.1 L11.95 11.35 Q13.85 11.75 15.55 11.3 L16.15 11.2 Q17.2 11.0 18.2 11.6 M18.05 12.35 L17.95 12.3 17.9 12.25 Q17.8 12.15 17.8 12.3 L17.9 12.4 18.0 12.4 18.05 12.35 M16.05 12.05 L15.95 12.15 16.0 12.2 16.05 12.2 16.1 12.15 16.05 12.05" fill="#1a5f62" fill-rule="evenodd" stroke="none"/>
    <path d="M20.65 2.7 L20.35 2.95 9.0 1.05 9.4 -1.55 Q15.4 -1.5 20.75 0.35 21.45 0.35 20.9 1.05 L20.65 2.7" fill="#9a6321" fill-rule="evenodd" stroke="none"/>
    <path d="M18.75 14.15 L7.4 12.25 7.8 9.65 19.15 11.55 Q19.65 12.75 18.75 14.15" fill="#9a6321" fill-rule="evenodd" stroke="none"/>
    <path d="M18.95 14.2 L14.9 13.65 11.85 13.05 8.05 12.5 8.0 12.45 8.1 12.25 9.05 12.35 11.7 12.7 15.3 13.25 Q17.25 13.45 18.95 14.2" fill="#c29b6e" fill-rule="evenodd" stroke="none"/>
    <path d="M20.45 2.65 L16.4 2.1 13.35 1.5 9.55 0.95 9.5 0.9 9.6 0.7 10.55 0.8 13.2 1.15 16.8 1.7 Q18.75 1.9 20.45 2.65" fill="#c29b6e" fill-rule="evenodd" stroke="none"/>
    <path d="M9.45 -1.35 L9.75 -1.55 9.3 1.1 8.9 1.05 9.45 -1.35" fill="#6a4416" fill-rule="evenodd" stroke="none"/>
    <path d="M7.2 12.1 L7.45 12.4 7.9 9.7 7.5 9.65 7.2 12.1" fill="#6a4416" fill-rule="evenodd" stroke="none"/>
    <path d="M1.15 19.1 L1.2 19.05 1.55 17.15 1.45 17.2 1.25 18.6 -3.0 17.95 -3.25 17.9 Q-3.55 19.7 -3.5 22.05 -2.15 22.7 -0.35 22.75 0.7 20.85 1.15 19.1 M-4.05 22.45 Q-4.2 17.05 -2.65 14.3 -1.45 12.05 0.75 11.6 1.7 12.8 2.25 14.95 2.8 19.35 0.25 23.45 -2.15 23.35 -4.05 22.45 M1.4 16.65 L1.4 15.3 Q1.0 13.55 0.35 12.55 -1.25 12.9 -2.3 14.9 L-2.8 16.0 1.4 16.65" fill="#aa6235" fill-rule="evenodd" stroke="none"/>
    <path d="M1.15 19.1 Q0.7 20.85 -0.35 22.75 -2.15 22.7 -3.5 22.05 -3.55 19.7 -3.25 17.9 L-3.0 17.95 -3.0 18.35 1.15 19.1 M1.4 16.65 L-2.8 16.0 -2.3 14.9 Q-1.25 12.9 0.35 12.55 1.0 13.55 1.4 15.3 L1.4 16.65" fill="#80431d" fill-rule="evenodd" stroke="none"/>
    <path d="M-3.0 17.95 L1.25 18.6 1.45 17.2 1.55 17.15 1.2 19.05 1.15 19.1 -3.0 18.35 -3.0 17.95" fill="#4d2309" fill-rule="evenodd" stroke="none"/>
    <path d="M-9.4 -17.75 Q-9.3 -17.25 -9.45 -16.65 -10.0 -13.95 -12.3 -13.65 L-14.45 -13.75 Q-14.05 -13.85 -13.75 -14.05 L-21.0 -11.2 -22.1 -11.35 Q-21.05 -11.75 -19.25 -13.65 -20.95 -12.7 -23.1 -14.0 L-24.05 -14.65 -22.25 -14.75 Q-23.05 -15.2 -23.7 -16.0 -24.25 -16.2 -24.4 -16.7 L-22.45 -16.35 Q-24.1 -17.25 -24.3 -18.25 L-24.65 -18.75 Q-24.0 -18.3 -21.75 -18.0 L-19.95 -17.85 Q-20.65 -17.95 -21.15 -18.55 -22.45 -19.85 -22.4 -20.75 L-22.25 -21.25 Q-22.05 -20.75 -20.45 -19.75 -19.6 -19.25 -18.95 -19.05 L-21.25 -21.95 -21.6 -22.25 -21.1 -22.3 Q-20.4 -22.4 -19.0 -21.45 L-18.25 -20.65 -18.25 -21.05 Q-18.3 -23.25 -18.75 -23.9 L-18.2 -23.7 Q-17.2 -23.25 -16.5 -21.1 L-16.5 -20.85 Q-15.7 -22.95 -15.85 -23.5 L-15.05 -22.9 -14.95 -23.45 -14.65 -22.95 Q-14.25 -22.35 -14.35 -21.2 -14.15 -20.55 -14.25 -19.7 -13.35 -20.7 -12.95 -21.45 L-12.95 -21.55 -12.9 -21.85 -12.7 -21.25 Q-12.3 -20.55 -12.8 -19.4 L-12.95 -19.15 -12.95 -19.0 Q-11.55 -19.8 -11.4 -20.45 L-11.3 -19.85 Q-11.25 -19.6 -11.35 -19.4 L-11.3 -19.35 -11.15 -18.85 -11.05 -19.05 -11.0 -19.05 Q-10.65 -19.8 -10.45 -20.8 L-10.35 -20.15 Q-9.75 -18.5 -9.75 -17.35 L-9.4 -17.75 M-16.1 -14.9 L-16.2 -14.85 -16.3 -14.25 -16.5 -13.5 Q-16.1 -14.25 -16.1 -14.9 M-14.25 -11.2 L-17.8 -10.75 Q-17.15 -12.4 -14.45 -13.75 -14.1 -12.9 -14.25 -11.2 M-18.55 -16.55 L-18.5 -16.55 -18.55 -16.65 -18.55 -16.55" fill="#351f17" fill-opacity="0.2901961" fill-rule="evenodd" stroke="none"/>
    <path d="M-14.65 -15.45 L-14.6 -15.4 -14.7 -15.45 -14.65 -15.45" fill="url(#gradient24)" fill-rule="evenodd" stroke="none"/>
    <path d="M-14.55 -15.2 L-14.6 -15.1 -14.7 -15.45 -14.6 -15.4 -14.55 -15.2 M-13.55 -15.7 L-13.4 -15.9 -13.5 -15.7 -13.55 -15.7" fill="url(#gradient25)" fill-rule="evenodd" stroke="none"/>
    <path d="M-14.65 -15.45 L-14.75 -15.7 -14.55 -15.45 -14.5 -15.4 -14.4 -15.4 -14.35 -15.35 -14.5 -15.25 -14.4 -15.4 -14.55 -15.2 -14.6 -15.4 -14.65 -15.45" fill="url(#gradient26)" fill-rule="evenodd" stroke="none"/>
    <path d="M-13.7 -14.15 L-13.75 -14.2 -13.6 -14.15 -13.6 -14.1 -13.6 -14.05 -13.7 -14.05 -13.7 -14.15" fill="url(#gradient27)" fill-rule="evenodd" stroke="none"/>
    <path d="M-13.3 -9.1 Q-14.05 -7.25 -17.2 -6.65 L-18.45 -6.45 Q-17.35 -7.15 -15.65 -9.65 -15.35 -9.7 -15.15 -9.9 -16.0 -8.15 -16.7 -7.65 L-15.7 -7.75 Q-14.05 -8.1 -13.3 -9.1" fill="url(#gradient28)" fill-rule="evenodd" stroke="none"/>
    <path d="M-19.0 -10.7 L-19.55 -10.7 -20.6 -10.75 Q-19.55 -11.25 -17.8 -13.15 -17.55 -13.2 -17.4 -13.35 L-16.8 -13.85 Q-18.0 -11.45 -19.0 -10.7" fill="url(#gradient29)" fill-rule="evenodd" stroke="none"/>
    <path d="M-11.5 -18.35 Q-10.1 -19.25 -9.95 -19.9 L-9.85 -19.3 -9.8 -18.8 Q-10.15 -18.05 -12.05 -16.95 L-12.2 -16.85 -11.9 -17.35 -11.5 -18.35" fill="url(#gradient30)" fill-rule="evenodd" stroke="none"/>
    <path d="M-14.7 -15.45 L-14.65 -15.45 -14.7 -15.45" fill="url(#gradient31)" fill-rule="evenodd" stroke="none"/>
    <path d="M-9.7 -18.35 L-9.6 -18.55 -9.7 -18.3 -9.7 -18.35" fill="url(#gradient32)" fill-rule="evenodd" stroke="none"/>
    <path d="M-11.55 -21.05 L-11.4 -21.3 -11.25 -20.7 Q-10.85 -19.9 -11.5 -18.35 -10.95 -19.7 -11.3 -20.45 L-11.55 -21.05" fill="url(#gradient33)" fill-rule="evenodd" stroke="none"/>
    <path d="M-8.9 -19.65 Q-8.35 -17.95 -8.3 -16.8 L-9.25 -16.1 Q-8.9 -16.7 -8.9 -17.55 L-8.9 -19.65" fill="url(#gradient34)" fill-rule="evenodd" stroke="none"/>
    <path d="M-12.8 -20.65 L-12.8 -19.15 Q-11.8 -20.2 -11.55 -20.95 -11.7 -20.2 -13.1 -18.7 L-13.0 -19.1 -12.8 -20.65" fill="url(#gradient35)" fill-rule="evenodd" stroke="none"/>
    <path d="M-15.0 -20.3 Q-14.35 -22.4 -14.45 -22.95 L-13.6 -22.35 Q-13.7 -21.55 -14.45 -20.0 L-14.85 -19.35 -15.0 -20.3" fill="url(#gradient36)" fill-rule="evenodd" stroke="none"/>
    <path d="M-19.0 -10.7 Q-18.0 -11.45 -16.8 -13.85 L-17.4 -13.35 Q-17.55 -13.2 -17.8 -13.15 -19.5 -12.15 -21.7 -13.45 L-22.55 -14.1 -20.85 -14.25 -22.3 -15.4 -23.0 -16.15 -21.0 -15.8 Q-22.65 -16.7 -22.95 -17.65 L-23.2 -18.2 Q-22.65 -17.65 -20.3 -17.4 L-18.55 -17.25 Q-19.15 -17.4 -19.7 -18.0 -21.0 -19.35 -20.9 -20.25 L-20.85 -20.65 Q-20.65 -20.1 -19.05 -19.25 L-17.5 -18.45 -18.9 -19.85 Q-20.3 -21.1 -20.9 -21.15 -20.5 -21.7 -19.75 -21.85 -18.95 -21.95 -17.6 -21.0 L-16.8 -20.1 -16.8 -20.5 Q-16.85 -22.75 -17.35 -23.3 L-16.85 -23.1 Q-15.8 -22.75 -15.05 -20.5 L-15.0 -20.3 -14.85 -19.35 -14.45 -20.0 Q-13.7 -21.55 -13.6 -22.35 -13.5 -22.6 -13.55 -22.8 L-13.2 -22.35 Q-12.8 -21.8 -12.8 -20.65 L-13.0 -19.1 -13.1 -18.7 Q-11.7 -20.2 -11.55 -20.95 L-11.55 -21.05 -11.3 -20.45 Q-10.95 -19.7 -11.5 -18.35 L-11.9 -17.35 -12.2 -16.85 -12.05 -16.95 Q-10.15 -18.05 -9.8 -18.8 L-9.8 -18.95 -9.7 -18.35 -9.7 -18.3 -9.6 -18.55 -9.0 -20.25 -8.9 -19.65 -8.9 -17.55 Q-8.9 -16.7 -9.25 -16.1 L-8.3 -16.8 -7.95 -17.15 Q-7.9 -16.6 -8.1 -16.1 -8.6 -13.4 -10.85 -13.15 -12.1 -12.95 -13.0 -13.15 -12.6 -12.25 -12.8 -10.6 -12.85 -9.75 -13.3 -9.1 -14.05 -8.1 -15.7 -7.75 L-16.7 -7.65 Q-16.0 -8.15 -15.15 -9.9 -15.35 -9.7 -15.65 -9.65 L-16.65 -9.45 -19.4 -9.45 Q-16.8 -10.15 -15.6 -12.0 -16.5 -11.2 -18.0 -10.8 L-19.0 -10.65 -19.0 -10.7 M-17.1 -16.05 L-17.15 -16.0 -17.05 -16.0 -17.1 -16.05 M-13.7 -14.15 L-13.7 -14.05 -13.6 -14.05 -13.6 -14.1 -13.6 -14.15 -13.75 -14.2 -13.7 -14.15 M-14.55 -15.2 L-14.4 -15.4 -14.5 -15.25 -14.35 -15.35 -14.4 -15.4 -14.5 -15.4 -14.55 -15.45 -14.75 -15.7 -14.65 -15.45 -14.7 -15.45 -14.6 -15.1 -14.55 -15.2 M-13.55 -15.7 L-13.5 -15.7 -13.4 -15.9 -13.55 -15.7" fill="#468e29" fill-rule="evenodd" stroke="none"/>
  </g>
  <defs>
    <linearGradient gradientTransform="matrix(0.0025, -4.0E-4, -4.0E-4, -0.0011, 7.0, 10.2)" gradientUnits="userSpaceOnUse" id="gradient0" spreadMethod="pad" x1="-819.2" x2="819.2">
      <stop offset="0.0" stop-color="#358023"/>
      <stop offset="0.9450980392156862" stop-color="#95bd53"/>
    </linearGradient>
    <linearGradient gradientTransform="matrix(0.0011, 0.0013, 7.0E-4, -0.0016, 7.8, 10.95)" gradientUnits="userSpaceOnUse" id="gradient1" spreadMethod="pad" x1="-819.2" x2="819.2">
      <stop offset="0.0" stop-color="#358023"/>
      <stop offset="0.9450980392156862" stop-color="#95bd53"/>
    </linearGradient>
    <linearGradient gradientTransform="matrix(-0.0012, 0.0014, -4.0E-4, -9.0E-4, 4.25, 10.95)" gradientUnits="userSpaceOnUse" id="gradient2" spreadMethod="pad" x1="-819.2" x2="819.2">
      <stop offset="0.0" stop-color="#358023"/>
      <stop offset="0.9450980392156862" stop-color="#95bd53"/>
    </linearGradient>
    <linearGradient gradientTransform="matrix(0.0026, -3.0E-4, -2.0E-4, 0.0011, 6.4, 10.2)" gradientUnits="userSpaceOnUse" id="gradient3" spreadMethod="pad" x1="-819.2" x2="819.2">
      <stop offset="0.0" stop-color="#358023"/>
      <stop offset="0.9450980392156862" stop-color="#95bd53"/>
    </linearGradient>
    <linearGradient gradientTransform="matrix(0.0014, 0.0024, -0.001, 0.0, 5.55, 13.2)" gradientUnits="userSpaceOnUse" id="gradient4" spreadMethod="pad" x1="-819.2" x2="819.2">
      <stop offset="0.0" stop-color="#358023"/>
      <stop offset="0.9450980392156862" stop-color="#95bd53"/>
    </linearGradient>
    <linearGradient gradientTransform="matrix(9.0E-4, 0.0024, 7.0E-4, -9.0E-4, 6.05, 12.0)" gradientUnits="userSpaceOnUse" id="gradient5" spreadMethod="pad" x1="-819.2" x2="819.2">
      <stop offset="0.0" stop-color="#358023"/>
      <stop offset="0.9450980392156862" stop-color="#95bd53"/>
    </linearGradient>
    <linearGradient gradientTransform="matrix(0.0013, 5.0E-4, -4.0E-4, 9.0E-4, 6.6, 12.75)" gradientUnits="userSpaceOnUse" id="gradient6" spreadMethod="pad" x1="-819.2" x2="819.2">
      <stop offset="0.0" stop-color="#358023"/>
      <stop offset="0.9450980392156862" stop-color="#95bd53"/>
    </linearGradient>
    <linearGradient gradientTransform="matrix(0.0012, -0.0014, 4.0E-4, 9.0E-4, 7.65, 10.75)" gradientUnits="userSpaceOnUse" id="gradient7" spreadMethod="pad" x1="-819.2" x2="819.2">
      <stop offset="0.0" stop-color="#358023"/>
      <stop offset="0.9450980392156862" stop-color="#95bd53"/>
    </linearGradient>
    <linearGradient gradientTransform="matrix(1.0E-4, -0.0016, -7.0E-4, 1.0E-4, 9.3, -2.6)" gradientUnits="userSpaceOnUse" id="gradient8" spreadMethod="pad" x1="-819.2" x2="819.2">
      <stop offset="0.0" stop-color="#358023"/>
      <stop offset="0.9450980392156862" stop-color="#95bd53"/>
    </linearGradient>
    <linearGradient gradientTransform="matrix(0.001, -5.0E-4, -9.0E-4, -7.0E-4, 9.45, -2.65)" gradientUnits="userSpaceOnUse" id="gradient9" spreadMethod="pad" x1="-819.2" x2="819.2">
      <stop offset="0.0" stop-color="#358023"/>
      <stop offset="0.9450980392156862" stop-color="#95bd53"/>
    </linearGradient>
    <linearGradient gradientTransform="matrix(7.0E-4, 9.0E-4, -6.0E-4, 1.0E-4, 8.85, -0.8)" gradientUnits="userSpaceOnUse" id="gradient10" spreadMethod="pad" x1="-819.2" x2="819.2">
      <stop offset="0.0" stop-color="#358023"/>
      <stop offset="0.9450980392156862" stop-color="#95bd53"/>
    </linearGradient>
    <linearGradient gradientTransform="matrix(2.0E-4, -0.0016, 6.0E-4, 3.0E-4, 8.9, -1.8)" gradientUnits="userSpaceOnUse" id="gradient11" spreadMethod="pad" x1="-819.2" x2="819.2">
      <stop offset="0.0" stop-color="#358023"/>
      <stop offset="0.9450980392156862" stop-color="#95bd53"/>
    </linearGradient>
    <linearGradient gradientTransform="matrix(0.0017, -4.0E-4, -2.0E-4, 6.0E-4, 10.35, -1.45)" gradientUnits="userSpaceOnUse" id="gradient12" spreadMethod="pad" x1="-819.2" x2="819.2">
      <stop offset="0.0" stop-color="#358023"/>
      <stop offset="0.9450980392156862" stop-color="#95bd53"/>
    </linearGradient>
    <linearGradient gradientTransform="matrix(0.0016, -2.0E-4, -4.0E-4, -5.0E-4, 10.45, -1.15)" gradientUnits="userSpaceOnUse" id="gradient13" spreadMethod="pad" x1="-819.2" x2="819.2">
      <stop offset="0.0" stop-color="#358023"/>
      <stop offset="0.9450980392156862" stop-color="#95bd53"/>
    </linearGradient>
    <linearGradient gradientTransform="matrix(5.0E-4, -7.0E-4, 5.0E-4, 4.0E-4, 10.55, -1.5)" gradientUnits="userSpaceOnUse" id="gradient14" spreadMethod="pad" x1="-819.2" x2="819.2">
      <stop offset="0.0" stop-color="#358023"/>
      <stop offset="0.9450980392156862" stop-color="#95bd53"/>
    </linearGradient>
    <linearGradient gradientTransform="matrix(-7.0E-4, -9.0E-4, 6.0E-4, -1.0E-4, 9.55, -2.8)" gradientUnits="userSpaceOnUse" id="gradient15" spreadMethod="pad" x1="-819.2" x2="819.2">
      <stop offset="0.0" stop-color="#358023"/>
      <stop offset="0.9450980392156862" stop-color="#95bd53"/>
    </linearGradient>
    <linearGradient gradientTransform="matrix(0.0018, -3.0E-4, -3.0E-4, -8.0E-4, 16.8, -6.8)" gradientUnits="userSpaceOnUse" id="gradient16" spreadMethod="pad" x1="-819.2" x2="819.2">
      <stop offset="0.0" stop-color="#358023"/>
      <stop offset="0.9450980392156862" stop-color="#95bd53"/>
    </linearGradient>
    <linearGradient gradientTransform="matrix(8.0E-4, 9.0E-4, 5.0E-4, -0.0012, 17.3, -6.35)" gradientUnits="userSpaceOnUse" id="gradient17" spreadMethod="pad" x1="-819.2" x2="819.2">
      <stop offset="0.0" stop-color="#358023"/>
      <stop offset="0.9450980392156862" stop-color="#95bd53"/>
    </linearGradient>
    <linearGradient gradientTransform="matrix(-8.0E-4, 0.001, -3.0E-4, -7.0E-4, 14.85, -6.3)" gradientUnits="userSpaceOnUse" id="gradient18" spreadMethod="pad" x1="-819.2" x2="819.2">
      <stop offset="0.0" stop-color="#358023"/>
      <stop offset="0.9450980392156862" stop-color="#95bd53"/>
    </linearGradient>
    <linearGradient gradientTransform="matrix(0.0019, -2.0E-4, -2.0E-4, 8.0E-4, 16.3, -6.6)" gradientUnits="userSpaceOnUse" id="gradient19" spreadMethod="pad" x1="-819.2" x2="819.2">
      <stop offset="0.0" stop-color="#358023"/>
      <stop offset="0.9450980392156862" stop-color="#95bd53"/>
    </linearGradient>
    <linearGradient gradientTransform="matrix(0.001, 0.0017, -7.0E-4, 0.0, 15.65, -4.75)" gradientUnits="userSpaceOnUse" id="gradient20" spreadMethod="pad" x1="-819.2" x2="819.2">
      <stop offset="0.0" stop-color="#358023"/>
      <stop offset="0.9450980392156862" stop-color="#95bd53"/>
    </linearGradient>
    <linearGradient gradientTransform="matrix(7.0E-4, 0.0018, 5.0E-4, -6.0E-4, 15.95, -5.3)" gradientUnits="userSpaceOnUse" id="gradient21" spreadMethod="pad" x1="-819.2" x2="819.2">
      <stop offset="0.0" stop-color="#358023"/>
      <stop offset="0.9450980392156862" stop-color="#95bd53"/>
    </linearGradient>
    <linearGradient gradientTransform="matrix(9.0E-4, 4.0E-4, -3.0E-4, 7.0E-4, 16.35, -5.35)" gradientUnits="userSpaceOnUse" id="gradient22" spreadMethod="pad" x1="-819.2" x2="819.2">
      <stop offset="0.0" stop-color="#358023"/>
      <stop offset="0.9450980392156862" stop-color="#95bd53"/>
    </linearGradient>
    <linearGradient gradientTransform="matrix(8.0E-4, -0.001, 3.0E-4, 7.0E-4, 17.15, -6.5)" gradientUnits="userSpaceOnUse" id="gradient23" spreadMethod="pad" x1="-819.2" x2="819.2">
      <stop offset="0.0" stop-color="#358023"/>
      <stop offset="0.9450980392156862" stop-color="#95bd53"/>
    </linearGradient>
    <linearGradient gradientTransform="matrix(6.0E-4, -0.0052, 0.0018, 8.0E-4, -11.8, -18.25)" gradientUnits="userSpaceOnUse" id="gradient24" spreadMethod="pad" x1="-819.2" x2="819.2">
      <stop offset="0.0" stop-color="#358023"/>
      <stop offset="0.9450980392156862" stop-color="#95bd53"/>
    </linearGradient>
    <linearGradient gradientTransform="matrix(-0.0021, -0.0048, 0.002, -2.0E-4, -16.8, -15.75)" gradientUnits="userSpaceOnUse" id="gradient25" spreadMethod="pad" x1="-819.2" x2="819.2">
      <stop offset="0.0" stop-color="#358023"/>
      <stop offset="0.9450980392156862" stop-color="#95bd53"/>
    </linearGradient>
    <linearGradient gradientTransform="matrix(6.0E-4, -0.0052, 0.0019, 2.0E-4, -10.85, -17.35)" gradientUnits="userSpaceOnUse" id="gradient26" spreadMethod="pad" x1="-819.2" x2="819.2">
      <stop offset="0.0" stop-color="#358023"/>
      <stop offset="0.9450980392156862" stop-color="#95bd53"/>
    </linearGradient>
    <linearGradient gradientTransform="matrix(-0.0026, -0.0047, 0.002, -2.0E-4, -14.95, -12.65)" gradientUnits="userSpaceOnUse" id="gradient27" spreadMethod="pad" x1="-819.2" x2="819.2">
      <stop offset="0.0" stop-color="#358023"/>
      <stop offset="0.9450980392156862" stop-color="#95bd53"/>
    </linearGradient>
    <linearGradient gradientTransform="matrix(-0.0033, 5.0E-4, -3.0E-4, -0.0018, -15.95, -8.25)" gradientUnits="userSpaceOnUse" id="gradient28" spreadMethod="pad" x1="-819.2" x2="819.2">
      <stop offset="0.0" stop-color="#358023"/>
      <stop offset="0.9450980392156862" stop-color="#95bd53"/>
    </linearGradient>
    <linearGradient gradientTransform="matrix(-0.0025, 4.0E-4, -2.0E-4, -0.0016, -18.65, -12.15)" gradientUnits="userSpaceOnUse" id="gradient29" spreadMethod="pad" x1="-819.2" x2="819.2">
      <stop offset="0.0" stop-color="#358023"/>
      <stop offset="0.9450980392156862" stop-color="#95bd53"/>
    </linearGradient>
    <linearGradient gradientTransform="matrix(-0.0016, 2.0E-4, -2.0E-4, -0.0016, -11.1, -18.4)" gradientUnits="userSpaceOnUse" id="gradient30" spreadMethod="pad" x1="-819.2" x2="819.2">
      <stop offset="0.0" stop-color="#358023"/>
      <stop offset="0.9450980392156862" stop-color="#95bd53"/>
    </linearGradient>
    <linearGradient gradientTransform="matrix(0.0, 0.0, 0.0, 0.0, -14.65, -15.45)" gradientUnits="userSpaceOnUse" id="gradient31" spreadMethod="pad" x1="-819.2" x2="819.2">
      <stop offset="0.0" stop-color="#358023"/>
      <stop offset="0.9450980392156862" stop-color="#95bd53"/>
    </linearGradient>
    <linearGradient gradientTransform="matrix(-1.0E-4, 0.0, 0.0, -2.0E-4, -9.6, -18.4)" gradientUnits="userSpaceOnUse" id="gradient32" spreadMethod="pad" x1="-819.2" x2="819.2">
      <stop offset="0.0" stop-color="#358023"/>
      <stop offset="0.9450980392156862" stop-color="#95bd53"/>
    </linearGradient>
    <linearGradient gradientTransform="matrix(-4.0E-4, 1.0E-4, -3.0E-4, -0.0017, -11.35, -19.85)" gradientUnits="userSpaceOnUse" id="gradient33" spreadMethod="pad" x1="-819.2" x2="819.2">
      <stop offset="0.0" stop-color="#358023"/>
      <stop offset="0.9450980392156862" stop-color="#95bd53"/>
    </linearGradient>
    <linearGradient gradientTransform="matrix(-7.0E-4, 1.0E-4, -3.0E-4, -0.0021, -8.95, -17.9)" gradientUnits="userSpaceOnUse" id="gradient34" spreadMethod="pad" x1="-819.2" x2="819.2">
      <stop offset="0.0" stop-color="#358023"/>
      <stop offset="0.9450980392156862" stop-color="#95bd53"/>
    </linearGradient>
    <linearGradient gradientTransform="matrix(-0.0011, 2.0E-4, -2.0E-4, -0.0012, -12.3, -19.8)" gradientUnits="userSpaceOnUse" id="gradient35" spreadMethod="pad" x1="-819.2" x2="819.2">
      <stop offset="0.0" stop-color="#358023"/>
      <stop offset="0.9450980392156862" stop-color="#95bd53"/>
    </linearGradient>
    <linearGradient gradientTransform="matrix(-0.001, 2.0E-4, -3.0E-4, -0.0021, -14.25, -21.2)" gradientUnits="userSpaceOnUse" id="gradient36" spreadMethod="pad" x1="-819.2" x2="819.2">
      <stop offset="0.0" stop-color="#358023"/>
      <stop offset="0.9450980392156862" stop-color="#95bd53"/>
    </linearGradient>
  </defs>
</svg>
