<?xml version="1.0" encoding="UTF-8" standalone="no"?>
<svg xmlns:ffdec="https://www.free-decompiler.com/flash" xmlns:xlink="http://www.w3.org/1999/xlink" ffdec:objectType="shape" height="55.65px" width="69.0px" xmlns="http://www.w3.org/2000/svg">
  <g transform="matrix(1.0, 0.0, 0.0, 1.0, 1.5, 1.5)">
    <path d="M33.9 6.75 Q31.9 6.45 28.85 5.25 25.75 4.0 22.0 5.15 18.25 6.3 10.8 15.35 -1.75 28.15 0.3 34.6 2.35 41.0 2.65 45.7 2.95 50.35 7.0 50.3 11.05 50.2 15.2 48.8 19.3 47.45 25.3 50.0 31.25 52.55 35.75 52.55 L39.45 51.7 43.55 50.65 Q44.55 50.45 47.15 51.55 49.7 52.65 50.6 52.65 54.0 52.65 59.85 50.85 65.7 49.0 66.0 44.7 66.25 40.4 61.0 21.5 61.0 15.85 57.45 8.65 53.4 0.45 50.35 0.05 47.3 -0.4 41.6 3.3 35.9 7.0 33.9 6.75 Z" fill="none" stroke="#ffffff" stroke-linecap="round" stroke-linejoin="round" stroke-width="3.0"/>
  </g>
</svg>
