<?xml version="1.0" encoding="UTF-8" standalone="no"?>
<svg xmlns:ffdec="https://www.free-decompiler.com/flash" xmlns:xlink="http://www.w3.org/1999/xlink" ffdec:objectType="shape" height="48.85px" width="60.55px" xmlns="http://www.w3.org/2000/svg">
  <g transform="matrix(1.0, 0.0, 0.0, 1.0, 30.1, 24.7)">
    <path d="M9.0 -20.7 L14.3 -24.7 Q18.95 -24.7 22.75 -17.0 26.05 -10.3 26.05 -5.0 L30.45 17.15 Q30.45 20.7 24.0 22.7 19.5 24.15 16.3 24.15 15.5 24.15 13.0 22.4 L10.2 20.7 Q8.45 20.7 5.75 22.4 2.95 24.05 2.45 24.05 -1.8 24.05 -8.25 21.05 -13.8 18.05 -17.65 19.15 L-25.0 20.95 Q-28.5 21.7 -28.15 18.4 -27.85 15.05 -29.8 9.6 -31.85 4.15 -20.9 -10.75 L-10.0 -18.1 -5.35 -17.35 -0.85 -16.7 Q3.85 -16.7 9.0 -20.7" fill="#86e8f7" fill-opacity="0.47058824" fill-rule="evenodd" stroke="none"/>
    <path d="M1.5 -14.95 Q3.75 -14.95 8.1 -18.75 12.55 -22.65 13.95 -22.65 21.55 -22.65 26.25 -3.15 28.6 6.7 29.45 16.65 29.45 18.75 28.6 20.2 27.55 22.05 25.25 22.05 24.55 22.05 22.25 21.15 19.9 20.25 19.15 20.25 18.65 20.25 17.75 21.25 16.75 22.2 15.9 22.2 14.65 22.2 12.55 20.35 10.4 18.5 9.65 18.5 9.1 18.5 6.15 20.9 3.15 23.2 1.3 23.3 -0.65 23.35 -5.65 19.75 -10.65 16.0 -13.8 16.0 -14.5 16.0 -19.0 17.45 -23.35 18.85 -25.45 18.6 -27.5 18.3 -27.3 15.3 -27.05 12.3 -27.2 11.05 -27.3 9.7 -28.55 6.9 -29.85 3.95 -20.45 -6.95 -11.0 -17.95 -7.25 -18.9 -3.65 -20.0 -1.2 -17.4 1.25 -14.95 1.5 -14.95" fill="#c1ebfb" fill-rule="evenodd" stroke="none"/>
    <path d="M14.65 -18.4 Q17.8 -19.35 21.75 -10.15 24.95 -2.85 24.95 0.65 L23.45 6.65 Q23.45 7.5 25.55 10.5 L25.1 12.15 Q24.6 14.0 25.6 13.6 26.65 13.2 26.7 15.9 26.7 18.55 26.35 19.3 26.0 20.0 25.2 19.8 24.3 19.5 21.05 17.35 17.8 15.25 15.05 14.75 12.3 14.2 9.45 15.35 2.15 18.65 0.3 18.65 -0.25 18.65 -3.4 16.4 -6.55 14.1 -8.6 14.1 -15.35 14.1 -17.5 15.25 -19.75 16.3 -22.0 15.25 -25.25 13.9 -24.9 11.85 L-25.05 8.5 Q-25.05 6.75 -20.9 -0.5 L-18.4 -4.55 -14.7 -9.1 Q-8.5 -16.95 -3.95 -12.1 L0.55 -7.65 Q3.65 -4.65 7.0 -4.3 9.65 -3.9 7.0 -7.75 7.7 -11.9 10.4 -15.6 13.0 -19.35 14.65 -18.4 M-17.6 13.1 Q-17.0 13.1 -17.0 12.45 -17.0 11.65 -17.45 11.75 -17.95 11.95 -17.95 12.55 L-17.85 12.85 -17.6 13.1 M-22.2 12.15 Q-23.0 12.15 -23.0 12.85 -23.0 14.0 -22.1 14.0 -21.45 14.0 -21.45 12.95 -21.45 12.15 -22.2 12.15 M-23.4 10.8 L-23.45 10.7 -23.8 10.7 -23.8 11.3 -23.6 11.4 -23.4 11.3 -23.4 10.8 M-21.35 8.5 Q-21.35 7.6 -22.2 7.7 -23.1 7.9 -23.1 9.45 L-23.1 9.95 -22.6 10.2 Q-22.15 10.2 -21.7 9.55 -21.35 8.95 -21.35 8.5 M-17.3 -1.85 Q-16.95 -1.85 -16.5 -2.25 -16.15 -2.65 -16.15 -3.0 -16.15 -3.9 -17.0 -3.8 -17.95 -3.7 -17.95 -2.55 -17.95 -1.85 -17.3 -1.85 M23.15 16.3 Q23.15 17.3 23.65 17.3 24.0 17.3 24.4 16.0 24.4 15.25 23.8 15.45 23.15 15.65 23.15 16.3 M23.3 -2.15 Q22.8 -2.15 22.65 -1.85 L22.55 -1.2 22.55 -0.5 Q22.65 0.05 23.15 0.05 23.8 0.05 23.8 -1.2 23.95 -2.15 23.3 -2.15" fill="#fad14c" fill-rule="evenodd" stroke="none"/>
    <path d="M8.5 -16.65 Q12.05 -20.7 15.45 -20.9 19.45 -20.15 23.45 -8.9 27.45 2.2 27.45 12.65 27.45 18.8 26.1 21.05 25.45 22.2 24.65 22.1 L22.3 20.25 Q19.8 18.45 18.65 18.45 17.3 18.45 16.35 19.9 15.3 21.25 14.8 21.25 14.4 21.25 13.45 18.9 12.4 16.5 9.9 17.1 7.3 17.55 4.25 20.75 1.1 23.95 -0.9 22.0 L-4.05 18.8 Q-8.25 15.65 -9.4 15.65 -11.7 15.65 -14.2 16.8 -16.65 17.85 -19.05 17.85 -24.85 17.85 -26.0 14.85 -26.3 14.1 -26.3 9.95 L-26.35 6.95 Q-26.35 3.35 -19.1 -6.8 -11.4 -17.4 -7.15 -17.4 3.45 -6.9 3.65 -6.9 L4.8 -6.7 4.8 -8.05 Q4.8 -12.3 8.5 -16.65 M14.65 -18.4 Q13.0 -19.35 10.4 -15.6 7.7 -11.9 7.0 -7.75 9.65 -3.9 7.0 -4.3 3.65 -4.65 0.55 -7.65 L-3.95 -12.1 Q-8.5 -16.95 -14.7 -9.1 L-18.4 -4.55 -20.9 -0.5 Q-25.05 6.75 -25.05 8.5 L-24.9 11.85 Q-25.25 13.9 -22.0 15.25 -19.75 16.3 -17.5 15.25 -15.35 14.1 -8.6 14.1 -6.55 14.1 -3.4 16.4 -0.25 18.65 0.3 18.65 2.15 18.65 9.45 15.35 12.3 14.2 15.05 14.75 17.8 15.25 21.05 17.35 24.3 19.5 25.2 19.8 26.0 20.0 26.35 19.3 26.7 18.55 26.7 15.9 26.65 13.2 25.6 13.6 24.6 14.0 25.1 12.15 L25.55 10.5 Q23.45 7.5 23.45 6.65 L24.95 0.65 Q24.95 -2.85 21.75 -10.15 17.8 -19.35 14.65 -18.4" fill="#d9933d" fill-rule="evenodd" stroke="none"/>
    <path d="M23.3 -2.15 Q23.95 -2.15 23.8 -1.2 23.8 0.05 23.15 0.05 22.65 0.05 22.55 -0.5 L22.55 -1.2 22.65 -1.85 Q22.8 -2.15 23.3 -2.15 M23.15 16.3 Q23.15 15.65 23.8 15.45 24.4 15.25 24.4 16.0 24.0 17.3 23.65 17.3 23.15 17.3 23.15 16.3 M-17.3 -1.85 Q-17.95 -1.85 -17.95 -2.55 -17.95 -3.7 -17.0 -3.8 -16.15 -3.9 -16.15 -3.0 -16.15 -2.65 -16.5 -2.25 -16.95 -1.85 -17.3 -1.85 M-21.35 8.5 Q-21.35 8.95 -21.7 9.55 -22.15 10.2 -22.6 10.2 L-23.1 9.95 -23.1 9.45 Q-23.1 7.9 -22.2 7.7 -21.35 7.6 -21.35 8.5 M-23.4 10.8 L-23.4 11.3 -23.6 11.4 -23.8 11.3 -23.8 10.7 -23.45 10.7 -23.4 10.8 M-22.2 12.15 Q-21.45 12.15 -21.45 12.95 -21.45 14.0 -22.1 14.0 -23.0 14.0 -23.0 12.85 -23.0 12.15 -22.2 12.15 M-17.6 13.1 L-17.85 12.85 -17.95 12.55 Q-17.95 11.95 -17.45 11.75 -17.0 11.65 -17.0 12.45 -17.0 13.1 -17.6 13.1" fill="#bd7c2d" fill-rule="evenodd" stroke="none"/>
  </g>
</svg>
