<?xml version="1.0" encoding="UTF-8" standalone="no"?>
<svg xmlns:ffdec="https://www.free-decompiler.com/flash" xmlns:xlink="http://www.w3.org/1999/xlink" ffdec:objectType="shape" height="68.2px" width="61.05px" xmlns="http://www.w3.org/2000/svg">
  <g transform="matrix(1.0, 0.0, 0.0, 1.0, 1.5, 1.5)">
    <path d="M48.45 4.45 Q48.45 5.15 44.55 11.95 44.55 13.9 50.45 16.5 56.35 19.15 56.35 21.8 56.35 23.3 52.35 27.75 48.35 32.2 48.35 34.05 48.35 36.95 53.2 40.35 58.05 43.75 58.05 47.35 58.05 52.55 51.55 59.0 45.35 65.2 41.35 65.2 L35.75 64.55 32.7 63.9 28.05 64.4 23.35 64.9 Q9.35 64.9 3.85 51.0 0.5 42.55 0.05 33.25 -0.45 23.9 5.65 17.5 9.65 13.3 13.5 13.1 16.45 9.55 22.25 8.35 26.15 4.15 30.25 2.6 34.4 1.0 41.45 0.15 48.45 -0.75 48.45 4.45 Z" fill="none" stroke="#ffffff" stroke-linecap="round" stroke-linejoin="round" stroke-width="3.0"/>
  </g>
</svg>
