<?xml version="1.0" encoding="UTF-8" standalone="no"?>
<svg xmlns:ffdec="https://www.free-decompiler.com/flash" xmlns:xlink="http://www.w3.org/1999/xlink" ffdec:objectType="shape" height="60.0px" width="54.3px" xmlns="http://www.w3.org/2000/svg">
  <g transform="matrix(1.0, 0.0, 0.0, 1.0, 27.0, 30.0)">
    <path d="M16.9 -27.6 Q16.9 -24.8 13.2 -22.1 9.5 -19.4 15.3 -17.4 16.8 -17.1 19.3 -15.85 L23.45 -13.65 Q24.8 -12.65 25.35 -10.7 25.85 -8.8 23.8 -7.7 21.7 -6.65 19.05 -5.0 16.45 -3.4 15.15 -1.7 13.55 0.3 14.0 1.75 14.4 3.15 19.3 6.85 24.2 10.45 26.3 12.9 28.5 15.35 25.8 15.85 23.15 16.3 22.45 17.2 L21.25 18.6 Q20.35 19.45 21.05 20.15 L22.15 22.0 Q22.7 23.05 20.3 24.5 17.8 25.9 17.35 26.75 15.1 30.0 11.3 30.0 L9.2 29.8 4.8 28.8 1.9 28.8 -5.9 29.75 Q-9.45 29.75 -11.25 28.35 -20.95 27.15 -19.0 25.0 -17.05 22.8 -17.65 21.65 -18.35 20.45 -19.55 19.5 L-20.8 18.6 -24.6 16.3 Q-28.15 14.15 -26.4 11.45 -24.65 8.75 -25.35 3.45 L-25.7 -0.8 Q-25.7 -7.25 -24.45 -10.15 -23.55 -12.55 -21.4 -14.4 -20.65 -15.15 -17.95 -16.55 -15.0 -18.0 -13.65 -18.0 L-11.55 -20.0 Q-10.95 -23.3 -5.9 -22.7 0.15 -31.55 16.6 -29.7 L16.9 -27.6" fill="#c1ebfb" fill-rule="evenodd" stroke="none"/>
    <path d="M10.7 -20.25 Q9.1 -18.3 7.45 -17.45 L9.7 -19.15 10.7 -20.25 M-4.3 20.3 Q-3.95 19.75 -3.95 19.2 -3.7 17.6 -5.35 17.6 -7.1 17.6 -7.1 19.65 L-7.1 20.35 Q-6.85 21.05 -5.95 21.05 -4.9 21.05 -4.3 20.3 M10.3 22.2 Q10.3 21.65 9.7 21.5 9.05 21.35 9.05 22.0 9.35 22.8 9.8 22.8 10.3 22.8 10.3 22.2 M14.4 19.05 Q14.4 17.45 12.5 17.35 10.55 17.2 10.55 19.15 10.55 19.65 10.8 20.05 11.15 20.9 12.3 20.9 14.4 20.9 14.4 19.05 M10.1 -8.5 L10.8 -8.25 Q11.7 -8.5 11.7 -9.0 11.7 -10.1 10.85 -10.25 9.95 -10.4 9.95 -9.25 9.95 -8.7 10.1 -8.5 M-15.4 -9.95 Q-15.4 -11.3 -16.9 -11.1 -18.4 -10.85 -18.4 -9.55 L-18.25 -8.85 Q-17.95 -8.15 -16.8 -8.15 -15.4 -8.15 -15.4 -9.95 M3.55 -24.4 Q4.35 -25.25 6.5 -25.15 8.6 -25.1 9.7 -23.8 10.85 -22.55 7.3 -20.25 3.7 -17.95 3.7 -16.3 3.7 -13.3 8.8 -13.1 15.15 -12.7 16.9 -10.85 14.4 -8.4 10.8 -5.5 8.5 -3.3 8.5 -0.85 8.5 1.9 8.9 3.3 9.35 5.2 10.95 7.6 11.85 9.0 16.05 12.65 L18.15 14.5 Q17.8 21.3 12.45 23.35 7.1 25.45 4.05 24.8 L-0.6 24.2 -4.0 24.65 -6.25 25.05 -8.15 25.0 Q-9.35 24.5 -9.6 23.65 L-10.1 22.15 Q-10.4 21.65 -12.35 20.65 -14.35 19.65 -15.7 19.0 -17.05 18.2 -15.75 16.05 -14.5 13.9 -14.65 12.9 -14.8 12.2 -16.5 11.45 L-18.5 10.75 Q-19.25 10.35 -19.75 9.2 L-21.65 4.9 Q-22.95 1.7 -21.65 0.7 -20.45 -0.4 -20.45 -1.25 -20.45 -4.8 -19.9 -8.85 -19.4 -12.95 -15.6 -13.25 -11.9 -13.65 -6.65 -13.45 -2.1 -14.95 -0.9 -17.0 -0.15 -19.3 0.75 -20.65 L1.8 -22.45 Q2.55 -23.65 3.55 -24.4" fill="#eeab46" fill-rule="evenodd" stroke="none"/>
    <path d="M7.45 -17.45 L7.25 -17.3 7.0 -17.25 7.15 -17.25 Q11.1 -17.0 15.55 -15.95 19.9 -14.95 22.25 -10.85 L19.85 -9.15 18.15 -7.5 16.15 -6.3 15.45 -5.85 Q13.8 -5.7 12.75 -3.3 12.2 -2.15 11.9 -0.5 11.45 1.35 11.75 3.0 12.15 5.35 14.1 7.15 L14.15 7.2 14.3 7.35 14.45 7.45 14.9 7.85 15.4 8.15 15.45 8.2 20.2 12.05 20.3 12.05 20.65 12.35 Q21.05 12.75 20.75 15.45 L20.0 16.65 19.35 17.65 Q18.0 21.5 15.9 23.2 L15.75 23.45 Q13.65 26.75 11.4 27.6 L5.05 27.8 4.75 27.8 -3.35 28.15 Q-6.95 29.0 -11.0 26.9 -13.35 25.65 -15.7 22.75 -17.15 22.45 -17.35 21.15 -17.65 19.75 -18.85 17.45 L-21.2 12.0 -21.65 10.75 Q-22.8 7.3 -23.55 3.75 -24.65 -1.95 -23.6 -7.1 -22.8 -12.25 -19.15 -14.15 -15.7 -16.15 -10.2 -16.3 L-6.85 -16.65 -4.45 -17.0 Q-3.25 -17.25 -3.25 -17.55 L-3.25 -17.7 Q-2.95 -21.1 -0.55 -23.65 L-0.25 -23.95 Q1.75 -25.85 3.25 -26.65 4.8 -27.55 8.9 -27.95 L12.35 -28.1 14.45 -27.55 13.55 -25.3 13.35 -24.85 10.7 -20.25 9.7 -19.15 7.45 -17.45 M3.55 -24.4 Q2.55 -23.65 1.8 -22.45 L0.75 -20.65 Q-0.15 -19.3 -0.9 -17.0 -2.1 -14.95 -6.65 -13.45 -11.9 -13.65 -15.6 -13.25 -19.4 -12.95 -19.9 -8.85 -20.45 -4.8 -20.45 -1.25 -20.45 -0.4 -21.65 0.7 -22.95 1.7 -21.65 4.9 L-19.75 9.2 Q-19.25 10.35 -18.5 10.75 L-16.5 11.45 Q-14.8 12.2 -14.65 12.9 -14.5 13.9 -15.75 16.05 -17.05 18.2 -15.7 19.0 -14.35 19.65 -12.35 20.65 -10.4 21.65 -10.1 22.15 L-9.6 23.65 Q-9.35 24.5 -8.15 25.0 L-6.25 25.05 -4.0 24.65 -0.6 24.2 4.05 24.8 Q7.1 25.45 12.45 23.35 17.8 21.3 18.15 14.5 L16.05 12.65 Q11.85 9.0 10.95 7.6 9.35 5.2 8.9 3.3 8.5 1.9 8.5 -0.85 8.5 -3.3 10.8 -5.5 14.4 -8.4 16.9 -10.85 15.15 -12.7 8.8 -13.1 3.7 -13.3 3.7 -16.3 3.7 -17.95 7.3 -20.25 10.85 -22.55 9.7 -23.8 8.6 -25.1 6.5 -25.15 4.35 -25.25 3.55 -24.4 M-15.4 -9.95 Q-15.4 -8.15 -16.8 -8.15 -17.95 -8.15 -18.25 -8.85 L-18.4 -9.55 Q-18.4 -10.85 -16.9 -11.1 -15.4 -11.3 -15.4 -9.95 M10.1 -8.5 Q9.95 -8.7 9.95 -9.25 9.95 -10.4 10.85 -10.25 11.7 -10.1 11.7 -9.0 11.7 -8.5 10.8 -8.25 L10.1 -8.5 M14.4 19.05 Q14.4 20.9 12.3 20.9 11.15 20.9 10.8 20.05 10.55 19.65 10.55 19.15 10.55 17.2 12.5 17.35 14.4 17.45 14.4 19.05 M10.3 22.2 Q10.3 22.8 9.8 22.8 9.35 22.8 9.05 22.0 9.05 21.35 9.7 21.5 10.3 21.65 10.3 22.2 M-4.3 20.3 Q-4.9 21.05 -5.95 21.05 -6.85 21.05 -7.1 20.35 L-7.1 19.65 Q-7.1 17.6 -5.35 17.6 -3.7 17.6 -3.95 19.2 -3.95 19.75 -4.3 20.3" fill="#c2852a" fill-rule="evenodd" stroke="none"/>
  </g>
</svg>
