<?xml version="1.0" encoding="UTF-8" standalone="no"?>
<svg xmlns:ffdec="https://www.free-decompiler.com/flash" xmlns:xlink="http://www.w3.org/1999/xlink" ffdec:objectType="shape" height="59.85px" width="64.35px" xmlns="http://www.w3.org/2000/svg">
  <g transform="matrix(1.0, 0.0, 0.0, 1.0, 1.5, 1.5)">
    <path d="M32.1 1.7 Q26.0 3.4 24.05 2.2 22.05 0.95 19.65 0.4 17.2 -0.15 14.75 1.5 L8.15 5.95 Q0.0 11.5 0.0 18.45 L2.95 23.75 Q5.9 28.8 5.9 31.55 3.55 38.15 3.55 38.3 3.55 42.25 6.7 44.1 11.3 46.7 12.65 48.6 14.0 51.45 15.9 53.3 19.45 56.85 25.6 56.85 27.55 56.85 30.35 54.2 33.1 51.6 35.5 51.6 38.25 52.75 40.05 52.75 44.65 52.75 46.25 48.9 46.9 46.85 47.3 45.95 48.0 44.45 49.25 43.95 56.05 43.55 58.6 40.45 61.1 37.3 61.3 35.35 61.85 30.85 57.7 27.6 53.5 24.3 51.75 22.0 49.95 19.65 48.45 12.95 46.85 5.9 45.8 3.85 44.95 2.1 43.2 1.1 41.3 0.0 38.8 0.0 38.15 0.0 32.1 1.7 Z" fill="none" stroke="#ffffff" stroke-linecap="round" stroke-linejoin="round" stroke-width="3.0"/>
  </g>
</svg>
