<?xml version="1.0" encoding="UTF-8" standalone="no"?>
<svg xmlns:ffdec="https://www.free-decompiler.com/flash" xmlns:xlink="http://www.w3.org/1999/xlink" ffdec:objectType="shape" height="54.05px" width="59.15px" xmlns="http://www.w3.org/2000/svg">
  <g transform="matrix(1.0, 0.0, 0.0, 1.0, 28.8, 26.8)">
    <path d="M17.75 -11.45 Q19.95 -3.0 27.3 2.35 L29.6 4.95 Q31.45 7.2 28.65 9.2 25.85 11.15 23.65 13.25 21.4 15.35 16.85 14.85 15.95 18.05 14.45 20.95 L13.55 21.9 Q10.35 24.25 6.35 22.6 3.3 21.35 1.4 23.8 -0.15 25.8 -2.45 26.8 L-5.75 27.05 -10.8 25.2 Q-15.05 23.55 -16.8 19.4 -17.6 17.35 -19.95 16.6 -25.45 14.85 -25.45 9.6 L-25.1 8.3 Q-20.75 1.25 -26.45 -4.9 -28.0 -6.45 -28.6 -8.25 -29.0 -9.3 -28.65 -10.35 L-27.45 -14.4 -27.05 -15.2 Q-23.4 -20.3 -17.7 -22.4 -16.15 -23.0 -15.05 -24.35 -14.05 -25.5 -12.5 -25.0 -8.55 -23.9 -4.75 -23.65 L-3.55 -23.85 Q-0.9 -24.9 2.1 -24.9 3.8 -24.9 5.35 -25.7 L8.1 -26.8 Q14.4 -26.65 15.65 -20.45 16.55 -15.9 17.75 -11.45" fill="#7bd8e7" fill-opacity="0.36078432" fill-rule="evenodd" stroke="none"/>
    <path d="M0.45 -20.65 Q1.05 -19.85 2.5 -19.5 3.9 -19.1 5.35 -22.05 6.7 -24.95 9.1 -24.95 13.05 -24.95 14.5 -18.45 L15.9 -11.85 17.6 -4.7 Q18.3 -1.85 21.55 1.4 24.75 4.6 26.2 4.95 27.65 5.25 28.55 6.65 29.4 8.05 25.9 9.8 22.4 11.55 22.2 12.05 21.95 12.8 20.65 12.8 L18.25 12.35 15.85 11.9 Q14.9 11.9 14.3 12.65 13.8 13.3 13.8 14.05 L14.2 15.8 14.55 17.5 Q14.55 18.7 13.2 20.15 11.55 21.95 9.15 21.95 8.85 21.95 6.65 20.55 4.45 19.1 3.0 19.1 2.5 19.1 0.0 22.4 -2.45 25.7 -4.7 25.7 -8.35 25.7 -12.3 22.8 -15.55 20.45 -15.55 19.85 -15.55 19.4 -15.15 18.75 L-14.75 17.6 Q-14.75 16.65 -20.05 14.95 -25.35 13.2 -25.3 10.6 -25.3 7.95 -22.2 6.6 -19.1 5.2 -19.95 3.4 -20.9 1.55 -22.1 -2.05 -23.3 -5.65 -24.9 -6.25 -26.8 -6.7 -26.95 -7.95 -27.15 -9.3 -25.55 -10.5 -23.95 -11.75 -24.55 -12.3 -25.2 -12.9 -25.4 -13.9 -25.6 -14.9 -24.65 -16.05 L-21.5 -18.95 Q-19.25 -20.75 -17.7 -20.95 -16.75 -20.95 -16.1 -20.4 -15.5 -19.85 -14.9 -21.05 L-14.25 -22.45 Q-12.55 -24.85 -11.1 -23.7 -9.75 -22.6 -5.0 -22.05 -0.2 -21.55 0.45 -20.65" fill="#c1ebfb" fill-rule="evenodd" stroke="none"/>
    <path d="M-0.7 -20.9 L-1.0 -21.1 -1.0 -21.05 -0.35 -19.25 Q0.6 -17.7 2.0 -16.35 L5.55 -16.25 6.25 -16.7 8.95 -18.5 9.35 -19.05 9.55 -20.85 Q9.55 -21.85 10.5 -21.85 12.0 -21.8 12.6 -20.4 L12.75 -19.9 Q12.75 -17.8 13.65 -16.0 13.4 -15.45 13.6 -15.65 L14.45 -14.2 Q15.15 -12.55 14.7 -11.25 14.3 -9.95 15.1 -10.15 15.45 -7.65 16.0 -6.6 L16.45 -5.25 16.9 -2.6 Q16.95 -1.9 14.95 -0.55 L17.6 -0.85 18.45 0.4 20.45 4.0 20.95 5.05 Q21.7 6.85 23.7 6.55 L24.8 6.45 26.25 6.55 27.3 6.75 27.3 6.95 27.3 7.2 Q26.8 7.85 25.15 8.7 L25.05 8.75 18.15 11.1 14.35 11.35 Q13.45 11.1 12.5 9.5 11.75 9.65 10.9 10.2 L11.45 13.85 Q11.7 16.2 11.2 18.45 L9.55 18.75 4.3 18.1 Q2.45 17.85 0.9 18.75 -1.55 20.15 -3.65 21.9 L-4.9 22.35 -7.2 22.4 Q-8.7 22.0 -10.3 20.4 L-9.9 19.5 -8.85 17.9 Q-8.5 17.15 -9.2 17.0 L-15.25 16.1 -15.7 16.1 -16.45 16.2 -18.45 15.45 -17.85 15.65 Q-22.9 11.75 -21.15 10.9 -19.35 10.0 -18.55 8.1 L-17.55 5.95 Q-17.0 5.45 -14.75 4.35 -13.75 3.35 -15.85 3.3 L-19.25 2.85 Q-20.6 2.45 -19.95 0.5 L-18.95 -2.0 Q-18.6 -2.85 -18.9 -3.7 -20.75 -8.2 -21.45 -11.1 -22.35 -12.9 -21.9 -13.45 L-19.85 -15.6 -19.05 -16.6 -17.8 -18.15 -18.2 -18.25 -17.55 -18.4 -17.65 -18.25 -17.5 -18.4 -17.15 -18.55 -16.75 -18.75 -16.5 -18.95 -16.25 -19.1 -16.25 -19.15 Q-15.45 -19.85 -15.4 -20.4 L-13.1 -22.1 Q-12.9 -25.2 -9.55 -21.9 -4.75 -22.5 -0.9 -21.2 L-0.7 -20.9 M9.3 -17.35 L9.4 -17.35 9.4 -17.4 9.3 -17.35" fill="#e0ab46" fill-rule="evenodd" stroke="none"/>
    <path d="M-0.7 -20.9 Q0.2 -19.15 1.25 -18.25 3.85 -15.8 7.15 -18.9 L8.85 -20.75 9.35 -21.4 10.05 -22.55 10.45 -22.6 11.95 -22.15 13.05 -20.8 13.15 -20.65 13.2 -20.6 Q14.55 -18.4 15.25 -14.65 17.05 -4.6 18.8 -1.0 20.45 2.2 22.7 5.05 L25.45 5.7 26.6 5.95 Q28.0 6.35 27.3 7.2 L27.3 6.95 27.3 6.75 26.25 6.55 24.8 6.45 23.7 6.55 Q21.7 6.85 20.95 5.05 L20.45 4.0 18.45 0.4 17.6 -0.85 14.95 -0.55 Q16.95 -1.9 16.9 -2.6 L16.45 -5.25 16.0 -6.6 Q15.45 -7.65 15.1 -10.15 14.3 -9.95 14.7 -11.25 15.15 -12.55 14.45 -14.2 L13.6 -15.65 Q13.4 -15.45 13.65 -16.0 12.75 -17.8 12.75 -19.9 L12.6 -20.4 Q12.0 -21.8 10.5 -21.85 9.55 -21.85 9.55 -20.85 L9.35 -19.05 8.95 -18.5 6.25 -16.7 5.55 -16.25 2.0 -16.35 Q0.6 -17.7 -0.35 -19.25 L-1.0 -21.05 -1.0 -21.1 -0.7 -20.9 M25.05 8.75 L24.5 9.05 22.35 10.0 22.2 10.05 19.6 11.2 19.3 11.3 17.25 12.25 14.65 12.05 Q13.05 12.1 12.55 12.7 12.1 13.15 12.35 14.0 L12.5 14.35 Q13.8 17.35 12.8 18.45 11.75 19.55 10.1 20.1 8.45 20.6 4.85 19.5 1.3 18.35 -1.5 22.45 L-3.0 24.1 Q-8.2 24.85 -11.8 21.8 -12.05 21.25 -11.6 20.85 -10.4 19.7 -10.7 18.2 L-14.7 16.85 -16.05 16.4 -16.5 16.2 -16.45 16.2 -15.7 16.1 -15.25 16.1 -9.2 17.0 Q-8.5 17.15 -8.85 17.9 L-9.9 19.5 -10.3 20.4 Q-8.7 22.0 -7.2 22.4 L-4.9 22.35 -3.65 21.9 Q-1.55 20.15 0.9 18.75 2.45 17.85 4.3 18.1 L9.55 18.75 11.2 18.45 Q11.7 16.2 11.45 13.85 L10.9 10.2 Q11.75 9.65 12.5 9.5 13.45 11.1 14.35 11.35 L18.15 11.1 25.05 8.75 M-18.45 15.45 L-19.45 15.0 -22.05 13.55 Q-24.5 11.6 -22.45 10.05 L-22.35 10.0 -21.1 8.75 Q-19.25 7.0 -19.05 5.6 -18.5 5.05 -18.8 3.85 L-18.9 3.8 Q-21.15 2.7 -20.8 0.65 L-20.4 -1.55 -20.35 -1.65 -20.35 -1.7 -20.25 -2.25 -20.2 -2.25 Q-20.25 -4.35 -24.1 -10.25 -25.25 -11.8 -24.4 -13.05 -22.3 -14.4 -20.4 -16.2 L-20.05 -16.5 -19.95 -16.6 -18.45 -18.2 -18.2 -18.25 -17.8 -18.15 -19.05 -16.6 -19.85 -15.6 -21.9 -13.45 Q-22.35 -12.9 -21.45 -11.1 -20.75 -8.2 -18.9 -3.7 -18.6 -2.85 -18.95 -2.0 L-19.95 0.5 Q-20.6 2.45 -19.25 2.85 L-15.85 3.3 Q-13.75 3.35 -14.75 4.35 -17.0 5.45 -17.55 5.95 L-18.55 8.1 Q-19.35 10.0 -21.15 10.9 -22.9 11.75 -17.85 15.65 L-18.45 15.45 M-17.55 -18.4 L-17.55 -18.45 -17.5 -18.4 -17.65 -18.25 -17.55 -18.4 M9.3 -17.35 L9.4 -17.4 9.4 -17.35 9.3 -17.35" fill="#c27021" fill-rule="evenodd" stroke="none"/>
    <path d="M7.05 14.45 L7.65 13.9 Q9.3 14.1 8.75 15.65 L8.55 16.0 8.6 16.2 8.75 16.3 9.0 16.4 9.15 16.6 9.0 16.7 8.65 16.65 8.6 16.6 8.05 17.35 6.45 17.45 Q6.05 18.35 5.1 17.7 4.3 17.15 4.75 16.2 L5.35 15.7 5.6 15.75 5.65 15.65 Q5.9 15.0 6.6 14.85 L6.9 14.85 7.05 14.45" fill="#3f1e00" fill-opacity="0.32156864" fill-rule="evenodd" stroke="none"/>
    <path d="M6.1 16.85 Q5.75 17.8 4.8 17.15 4.0 16.6 4.45 15.65 4.6 15.25 5.05 15.1 6.7 15.35 6.1 16.85" fill="url(#gradient0)" fill-rule="evenodd" stroke="none"/>
    <path d="M8.35 15.85 L8.2 16.35 Q7.0 17.85 5.6 16.45 5.0 15.9 5.35 15.1 5.6 14.45 6.3 14.35 8.1 14.3 8.35 15.85" fill="url(#gradient1)" fill-rule="evenodd" stroke="none"/>
    <path d="M8.45 15.1 Q8.1 16.05 7.15 15.4 6.35 14.85 6.8 13.9 6.95 13.5 7.4 13.35 9.05 13.6 8.45 15.1" fill="url(#gradient2)" fill-rule="evenodd" stroke="none"/>
    <path d="M5.6 14.05 L5.9 14.25 6.05 14.6 5.6 14.45 5.45 14.1 5.4 13.9 5.6 14.05" fill="#663312" fill-rule="evenodd" stroke="none"/>
    <path d="M7.2 16.45 L7.3 16.45 7.6 16.65 7.85 16.85 7.95 17.25 Q7.75 17.35 7.55 17.05 L7.3 16.75 7.1 16.5 7.1 16.45 7.2 16.45" fill="#663312" fill-rule="evenodd" stroke="none"/>
    <path d="M6.2 16.2 L6.05 16.55 5.9 16.8 5.8 16.45 5.9 16.05 6.15 15.85 6.2 15.85 6.2 16.2" fill="#663312" fill-rule="evenodd" stroke="none"/>
    <path d="M8.3 13.2 L8.35 13.25 8.4 13.35 8.45 13.35 8.4 13.5 8.2 13.75 8.0 13.95 7.9 13.9 7.75 13.8 7.85 13.5 8.0 13.35 Q8.1 13.2 8.25 13.2 L8.3 13.2" fill="#663312" fill-rule="evenodd" stroke="none"/>
    <path d="M5.4 15.15 L5.05 15.25 4.75 14.95 Q4.7 14.75 4.9 14.7 L4.95 14.7 5.05 14.75 5.15 14.8 5.3 15.0 5.4 15.1 5.4 15.15" fill="#663312" fill-rule="evenodd" stroke="none"/>
    <path d="M4.25 16.75 L4.45 16.6 4.6 16.55 4.6 16.8 4.45 17.1 4.2 17.25 4.05 17.15 4.0 17.05 4.0 17.0 4.25 16.75" fill="#663312" fill-rule="evenodd" stroke="none"/>
    <path d="M8.1 15.7 L8.2 15.65 8.4 15.75 8.65 15.85 8.8 16.05 8.65 16.15 8.3 16.1 8.05 15.8 8.0 15.75 8.0 15.7 8.1 15.7" fill="#663312" fill-rule="evenodd" stroke="none"/>
    <path d="M12.2 -12.45 Q12.4 -12.9 12.8 -13.0 14.45 -12.8 13.9 -11.25 L13.7 -10.9 13.75 -10.7 13.9 -10.6 14.15 -10.5 14.3 -10.3 14.15 -10.2 13.8 -10.25 13.75 -10.3 13.6 -10.05 Q12.65 -8.85 11.6 -9.45 11.2 -8.55 10.25 -9.2 9.45 -9.75 9.9 -10.7 L10.5 -11.2 10.75 -11.15 10.8 -11.25 Q11.05 -11.9 11.75 -12.05 L12.05 -12.05 12.2 -12.45" fill="#3f1e00" fill-opacity="0.32156864" fill-rule="evenodd" stroke="none"/>
    <path d="M11.5 -9.9 Q11.15 -8.95 10.2 -9.6 9.4 -10.15 9.85 -11.1 L10.45 -11.65 Q12.1 -11.4 11.5 -9.9" fill="url(#gradient3)" fill-rule="evenodd" stroke="none"/>
    <path d="M13.6 -10.8 L13.45 -10.3 Q12.25 -8.8 10.85 -10.2 10.25 -10.75 10.6 -11.55 10.85 -12.2 11.55 -12.3 13.35 -12.35 13.6 -10.8" fill="url(#gradient4)" fill-rule="evenodd" stroke="none"/>
    <path d="M13.6 -11.55 Q13.25 -10.6 12.3 -11.25 11.5 -11.8 11.95 -12.75 L12.55 -13.3 Q14.2 -13.05 13.6 -11.55" fill="url(#gradient5)" fill-rule="evenodd" stroke="none"/>
    <path d="M10.95 -12.6 L11.25 -12.4 11.4 -12.05 Q11.15 -11.9 10.95 -12.2 L10.8 -12.55 Q10.7 -12.7 10.75 -12.75 L10.95 -12.6" fill="#663312" fill-rule="evenodd" stroke="none"/>
    <path d="M12.65 -10.2 L12.95 -10.0 13.2 -9.8 13.3 -9.4 Q13.1 -9.3 12.9 -9.6 L12.65 -9.9 12.45 -10.15 12.45 -10.2 12.55 -10.2 12.65 -10.2" fill="#663312" fill-rule="evenodd" stroke="none"/>
    <path d="M11.55 -10.45 L11.4 -10.1 11.25 -9.85 11.15 -10.2 11.25 -10.6 Q11.3 -10.8 11.5 -10.8 L11.55 -10.8 11.55 -10.45" fill="#663312" fill-rule="evenodd" stroke="none"/>
    <path d="M13.65 -13.45 L13.7 -13.4 13.75 -13.3 13.8 -13.3 13.75 -13.15 13.55 -12.9 13.35 -12.7 13.25 -12.75 13.1 -12.85 13.2 -13.15 13.35 -13.3 13.6 -13.45 13.65 -13.45" fill="#663312" fill-rule="evenodd" stroke="none"/>
    <path d="M10.4 -11.4 L10.1 -11.7 10.25 -11.95 10.3 -11.95 10.4 -11.9 10.5 -11.85 10.65 -11.65 10.75 -11.55 10.75 -11.5 10.4 -11.4" fill="#663312" fill-rule="evenodd" stroke="none"/>
    <path d="M9.8 -10.05 L9.95 -10.1 9.95 -9.85 9.8 -9.55 9.55 -9.4 9.4 -9.5 9.35 -9.6 9.35 -9.65 9.6 -9.9 9.8 -10.05" fill="#663312" fill-rule="evenodd" stroke="none"/>
    <path d="M13.45 -10.95 L13.55 -11.0 13.75 -10.9 14.0 -10.8 14.15 -10.6 14.0 -10.5 13.65 -10.55 13.4 -10.85 13.35 -10.9 13.35 -10.95 13.45 -10.95" fill="#663312" fill-rule="evenodd" stroke="none"/>
    <path d="M-4.5 -19.4 L-3.7 -19.3 Q-2.7 -18.0 -4.2 -17.35 -4.4 -17.2 -4.55 -17.2 L-4.7 -17.05 -4.65 -16.85 -4.5 -16.65 Q-4.45 -16.5 -4.55 -16.45 L-4.75 -16.45 -4.95 -16.7 -4.95 -16.8 -5.9 -16.65 Q-6.65 -16.55 -7.1 -17.65 -8.0 -17.25 -8.2 -18.45 -8.35 -19.4 -7.4 -19.75 L-6.6 -19.65 -6.45 -19.45 -6.4 -19.5 -5.1 -19.4 -4.9 -19.2 -4.5 -19.4" fill="#3f1e00" fill-opacity="0.32156864" fill-rule="evenodd" stroke="none"/>
    <path d="M-6.55 -17.85 Q-7.55 -17.5 -7.75 -18.6 -7.9 -19.55 -6.9 -19.9 L-6.05 -19.85 Q-5.1 -18.6 -6.55 -17.85" fill="url(#gradient6)" fill-rule="evenodd" stroke="none"/>
    <path d="M-4.1 -17.4 Q-4.2 -17.15 -4.55 -17.15 -6.5 -16.9 -6.5 -18.85 -6.45 -19.7 -5.65 -20.0 L-4.45 -19.85 Q-3.15 -18.6 -4.1 -17.4" fill="url(#gradient7)" fill-rule="evenodd" stroke="none"/>
    <path d="M-3.25 -17.85 Q-4.25 -17.5 -4.45 -18.6 -4.6 -19.55 -3.6 -19.9 L-2.75 -19.85 Q-1.8 -18.6 -3.25 -17.85" fill="url(#gradient8)" fill-rule="evenodd" stroke="none"/>
    <path d="M-5.4 -20.75 L-5.35 -20.45 -5.45 -20.1 Q-5.75 -20.1 -5.65 -20.5 L-5.6 -20.85 -5.4 -21.05 -5.4 -20.75" fill="#663312" fill-rule="evenodd" stroke="none"/>
    <path d="M-5.9 -17.9 L-5.85 -17.55 -5.85 -17.25 -6.0 -16.9 Q-6.25 -16.95 -6.2 -17.3 L-6.1 -17.7 -6.1 -18.0 -6.05 -18.05 -5.95 -17.95 -5.9 -17.9" fill="#663312" fill-rule="evenodd" stroke="none"/>
    <path d="M-6.55 -18.85 L-6.85 -18.7 -7.15 -18.65 -6.95 -18.95 -6.6 -19.2 -6.3 -19.15 -6.25 -19.1 -6.55 -18.85" fill="#663312" fill-rule="evenodd" stroke="none"/>
    <path d="M-2.85 -19.5 L-2.85 -19.45 -2.9 -19.35 -2.85 -19.3 Q-2.95 -19.2 -3.05 -19.2 L-3.3 -19.2 -3.6 -19.15 -3.65 -19.3 -3.7 -19.45 -3.45 -19.6 -3.15 -19.6 -2.9 -19.55 -2.85 -19.5" fill="#663312" fill-rule="evenodd" stroke="none"/>
    <path d="M-6.65 -20.35 L-6.65 -20.75 -6.35 -20.85 -6.3 -20.8 -6.25 -20.7 -6.3 -20.55 -6.3 -20.3 -6.3 -20.2 -6.3 -20.15 -6.65 -20.35" fill="#663312" fill-rule="evenodd" stroke="none"/>
    <path d="M-8.05 -19.8 L-7.85 -19.7 Q-7.9 -19.55 -8.1 -19.5 L-8.4 -19.4 -8.65 -19.5 -8.7 -19.7 -8.7 -19.75 -8.65 -19.8 -8.25 -19.85 -8.05 -19.8" fill="#663312" fill-rule="evenodd" stroke="none"/>
    <path d="M-4.8 -17.85 L-4.7 -17.85 -4.65 -17.6 -4.5 -17.4 Q-4.45 -17.25 -4.55 -17.2 L-4.75 -17.2 -4.95 -17.45 -4.9 -17.85 -4.85 -17.9 -4.8 -17.85" fill="#663312" fill-rule="evenodd" stroke="none"/>
    <path d="M-8.45 16.3 L-8.9 16.6 Q-10.4 16.7 -9.9 15.45 L-9.45 15.1 -9.25 15.05 Q-7.8 15.05 -8.45 16.3" fill="#c27021" fill-rule="evenodd" stroke="none"/>
    <path d="M-7.9 20.2 Q-8.35 20.8 -9.1 20.65 -10.05 20.5 -9.5 19.75 L-8.5 19.0 Q-7.15 19.15 -7.9 20.2" fill="#876b50" fill-rule="evenodd" stroke="none"/>
    <path d="M-9.55 15.7 L-9.45 16.1 -9.85 16.45 -10.75 16.5 -10.8 16.45 -10.95 16.25 -10.9 15.8 Q-10.75 15.45 -10.5 15.45 -9.8 15.3 -9.55 15.7" fill="#b69a7f" fill-rule="evenodd" stroke="none"/>
    <path d="M-14.85 2.2 Q-14.85 2.75 -15.45 2.85 -16.05 2.9 -16.25 2.4 L-16.25 2.3 -16.25 2.0 Q-16.15 1.6 -15.7 1.6 L-15.6 1.55 Q-14.8 1.5 -14.85 2.2" fill="#c27021" fill-rule="evenodd" stroke="none"/>
    <path d="M-20.9 11.35 L-20.6 11.4 -20.5 11.5 -20.55 12.0 Q-21.1 12.65 -21.65 12.1 -21.95 11.9 -21.65 11.6 L-21.25 11.35 -20.9 11.35" fill="#b69a7f" fill-rule="evenodd" stroke="none"/>
    <path d="M18.75 6.45 Q18.95 6.25 19.2 6.2 21.35 5.8 20.5 7.3 19.95 8.35 18.85 7.85 17.85 7.35 18.75 6.45" fill="#b69a7f" fill-rule="evenodd" stroke="none"/>
    <path d="M15.2 -4.3 Q14.75 -3.85 14.1 -4.1 13.15 -4.6 14.05 -5.25 L14.65 -5.45 Q16.15 -5.35 15.2 -4.3" fill="#b69a7f" fill-rule="evenodd" stroke="none"/>
    <path d="M11.2 -19.3 L11.55 -19.3 11.75 -19.25 12.0 -19.1 12.1 -18.6 Q11.95 -18.0 11.3 -17.75 L10.25 -17.8 10.1 -18.05 10.3 -18.7 11.05 -19.25 11.2 -19.3" fill="#c27021" fill-rule="evenodd" stroke="none"/>
    <path d="M23.65 7.45 Q23.95 7.7 23.75 8.0 23.55 8.35 23.15 8.45 L23.0 8.4 22.9 8.35 22.7 8.15 22.55 8.05 22.5 7.95 22.5 7.85 22.5 7.7 22.55 7.55 22.6 7.5 22.65 7.4 22.8 7.35 22.95 7.3 Q23.35 7.2 23.65 7.45" fill="#c27021" fill-rule="evenodd" stroke="none"/>
    <path d="M9.15 17.75 L9.15 17.65 9.15 17.5 9.15 17.4 9.25 17.3 9.3 17.25 9.4 17.2 9.6 17.15 9.65 17.15 9.85 17.2 10.0 17.35 10.15 17.5 10.1 17.75 9.7 18.05 Q9.4 18.05 9.2 17.85 L9.15 17.75" fill="#c27021" fill-rule="evenodd" stroke="none"/>
    <path d="M-19.85 -13.55 L-19.65 -13.55 -19.55 -13.45 -19.5 -13.4 Q-19.35 -13.15 -19.45 -12.9 -19.6 -12.35 -20.2 -12.2 -20.55 -12.15 -20.85 -12.4 L-20.95 -12.7 -20.65 -13.25 -20.05 -13.55 -19.85 -13.55" fill="#c27021" fill-rule="evenodd" stroke="none"/>
    <path d="M-15.9 -12.15 L-15.05 -13.95 Q-17.15 -16.35 -16.0 -17.4 -15.3 -18.15 -10.65 -18.45 -14.65 -17.1 -14.05 -16.15 L-13.4 -15.35 -12.6 -15.5 Q-10.75 -14.95 -9.5 -12.9 L-9.2 -12.3 -9.1 -11.95 Q-8.05 -11.05 -7.3 -10.85 -6.4 -10.7 -4.2 -12.65 -4.45 -10.9 -5.85 -9.45 -7.75 -7.35 -10.0 -9.15 L-10.4 -9.5 -11.15 -9.45 Q-12.1 -9.45 -12.9 -8.5 -13.75 -7.55 -15.05 -7.3 L-17.85 -6.8 -18.15 -6.9 Q-19.5 -8.35 -17.75 -9.45 -16.85 -10.05 -16.2 -11.0 L-15.9 -12.15" fill="#3f1e00" fill-opacity="0.32156864" fill-rule="evenodd" stroke="none"/>
    <path d="M-12.4 -15.75 Q-13.2 -16.8 -10.45 -18.55 -13.7 -18.0 -14.75 -17.05 -16.45 -15.65 -12.55 -12.75 L-10.45 -11.5 -9.45 -11.7 Q-8.6 -11.7 -8.15 -12.0 L-12.4 -15.75" fill="#721717" fill-rule="evenodd" stroke="none"/>
    <path d="M-7.7 -13.1 Q-6.6 -10.3 -10.0 -10.3 -11.2 -10.3 -12.2 -9.4 -13.25 -8.4 -14.7 -8.2 L-18.2 -7.65 Q-18.3 -7.65 -18.45 -7.8 -20.2 -9.4 -18.1 -10.45 -17.0 -11.05 -16.1 -11.85 -16.15 -12.55 -15.85 -13.1 L-14.7 -14.85 Q-13.55 -16.3 -11.8 -16.3 -9.5 -15.7 -8.05 -13.65 L-7.7 -13.1" fill="#fafafa" fill-rule="evenodd" stroke="none"/>
    <path d="M-11.1 -12.75 Q-10.75 -12.05 -11.7 -11.0 -12.75 -10.1 -13.25 -11.7 -13.8 -13.45 -12.3 -13.7 L-11.95 -13.7 -11.7 -13.6 -11.1 -12.75" fill="#4f4f4e" fill-rule="evenodd" stroke="none"/>
    <path d="M-13.85 -13.2 Q-15.3 -11.8 -15.75 -12.95 -16.2 -14.25 -14.35 -14.5 -12.55 -14.7 -13.85 -13.2" fill="#4f4f4e" fill-rule="evenodd" stroke="none"/>
    <path d="M-9.3 -12.3 Q-9.3 -12.55 -8.35 -12.8 L-7.35 -11.9 Q-6.8 -11.85 -5.4 -13.75 -5.6 -12.0 -6.45 -10.55 -7.7 -8.4 -9.1 -10.25 L-9.65 -11.35 -9.3 -12.3" fill="#721717" fill-rule="evenodd" stroke="none"/>
  </g>
  <defs>
    <linearGradient gradientTransform="matrix(0.0, 0.0, 0.0, 0.0, -165.85, -100.25)" gradientUnits="userSpaceOnUse" id="gradient0" spreadMethod="pad" x1="-819.2" x2="819.2">
      <stop offset="0.0" stop-color="#1a580b"/>
      <stop offset="0.9450980392156862" stop-color="#95bd53"/>
    </linearGradient>
    <linearGradient gradientTransform="matrix(0.0, 0.0, 0.0, 0.0, -163.1, -102.0)" gradientUnits="userSpaceOnUse" id="gradient1" spreadMethod="pad" x1="-819.2" x2="819.2">
      <stop offset="0.0" stop-color="#358023"/>
      <stop offset="0.9450980392156862" stop-color="#95bd53"/>
    </linearGradient>
    <linearGradient gradientTransform="matrix(0.0, 0.0, 0.0, 0.0, -163.5, -102.0)" gradientUnits="userSpaceOnUse" id="gradient2" spreadMethod="pad" x1="-819.2" x2="819.2">
      <stop offset="0.0" stop-color="#1a580b"/>
      <stop offset="0.9450980392156862" stop-color="#95bd53"/>
    </linearGradient>
    <linearGradient gradientTransform="matrix(0.0, 0.0, 0.0, 0.0, -160.45, -127.0)" gradientUnits="userSpaceOnUse" id="gradient3" spreadMethod="pad" x1="-819.2" x2="819.2">
      <stop offset="0.0" stop-color="#1a580b"/>
      <stop offset="0.9450980392156862" stop-color="#95bd53"/>
    </linearGradient>
    <linearGradient gradientTransform="matrix(0.0, 0.0, 0.0, 0.0, -157.85, -128.65)" gradientUnits="userSpaceOnUse" id="gradient4" spreadMethod="pad" x1="-819.2" x2="819.2">
      <stop offset="0.0" stop-color="#358023"/>
      <stop offset="0.9450980392156862" stop-color="#95bd53"/>
    </linearGradient>
    <linearGradient gradientTransform="matrix(0.0, 0.0, 0.0, 0.0, -158.35, -128.65)" gradientUnits="userSpaceOnUse" id="gradient5" spreadMethod="pad" x1="-819.2" x2="819.2">
      <stop offset="0.0" stop-color="#1a580b"/>
      <stop offset="0.9450980392156862" stop-color="#95bd53"/>
    </linearGradient>
    <linearGradient gradientTransform="matrix(0.0, 0.0, 0.0, 0.0, -44.4, -220.85)" gradientUnits="userSpaceOnUse" id="gradient6" spreadMethod="pad" x1="-819.2" x2="819.2">
      <stop offset="0.0" stop-color="#1a580b"/>
      <stop offset="0.9450980392156862" stop-color="#95bd53"/>
    </linearGradient>
    <linearGradient gradientTransform="matrix(0.0, 0.0, 0.0, 0.0, -41.0, -220.5)" gradientUnits="userSpaceOnUse" id="gradient7" spreadMethod="pad" x1="-819.2" x2="819.2">
      <stop offset="0.0" stop-color="#358023"/>
      <stop offset="0.9450980392156862" stop-color="#95bd53"/>
    </linearGradient>
    <linearGradient gradientTransform="matrix(0.0, 0.0, 0.0, 0.0, -41.1, -220.85)" gradientUnits="userSpaceOnUse" id="gradient8" spreadMethod="pad" x1="-819.2" x2="819.2">
      <stop offset="0.0" stop-color="#1a580b"/>
      <stop offset="0.9450980392156862" stop-color="#95bd53"/>
    </linearGradient>
  </defs>
</svg>
