<?xml version="1.0" encoding="UTF-8" standalone="no"?>
<svg xmlns:ffdec="https://www.free-decompiler.com/flash" xmlns:xlink="http://www.w3.org/1999/xlink" ffdec:objectType="shape" height="55.1px" width="57.0px" xmlns="http://www.w3.org/2000/svg">
  <g transform="matrix(1.0, 0.0, 0.0, 1.0, 1.5, 1.5)">
    <path d="M44.6 11.2 Q36.0 0.85 33.9 0.15 31.8 -0.55 25.25 1.8 L13.95 5.35 6.6 7.3 Q4.1 7.95 4.1 9.0 4.1 9.45 5.15 10.8 6.1 12.15 6.1 13.0 6.1 13.95 3.35 16.8 0.6 19.75 0.6 22.35 1.3 26.2 2.05 27.65 L3.25 29.75 3.6 31.1 Q3.6 32.2 1.85 35.7 0.0 39.2 0.0 40.1 0.0 42.05 6.0 42.85 12.9 43.8 13.75 44.5 15.4 46.05 17.85 49.4 20.15 52.1 22.75 52.1 25.0 50.35 28.7 48.2 36.05 43.95 43.35 41.75 48.0 40.4 50.75 40.4 52.1 40.4 52.6 39.65 52.65 37.3 51.1 35.85 49.5 34.35 49.35 31.75 49.2 29.15 52.05 26.9 54.9 24.6 53.6 21.1 53.75 22.1 44.6 11.2 Z" fill="none" stroke="#ffffff" stroke-linecap="round" stroke-linejoin="round" stroke-width="3.0"/>
  </g>
</svg>
