<?xml version="1.0" encoding="UTF-8" standalone="no"?>
<svg xmlns:ffdec="https://www.free-decompiler.com/flash" xmlns:xlink="http://www.w3.org/1999/xlink" ffdec:objectType="shape" height="49.05px" width="52.35px" xmlns="http://www.w3.org/2000/svg">
  <g transform="matrix(1.0, 0.0, 0.0, 1.0, 26.2, 24.3)">
    <path d="M23.3 -5.8 Q23.95 -4.25 26.15 -3.5 23.1 -1.5 21.95 -0.3 17.8 4.1 21.35 9.75 L21.9 10.75 Q26.75 13.85 21.2 14.0 15.6 14.1 9.1 17.55 2.55 20.95 -1.35 23.75 -5.25 26.6 -10.1 21.5 L-10.2 21.45 Q-11.95 17.7 -14.1 17.0 -16.2 16.3 -18.25 16.1 L-24.0 15.25 Q-27.6 14.7 -25.3 10.8 -23.15 6.95 -22.7 5.25 -22.55 4.25 -23.15 3.4 -28.05 -4.8 -22.45 -8.4 -16.9 -12.0 -18.7 -15.1 -21.05 -17.85 -15.5 -17.8 L-8.2 -18.7 Q-2.05 -22.7 3.45 -24.0 8.95 -25.3 11.8 -20.6 14.6 -15.95 18.65 -12.1 22.6 -8.2 23.3 -5.8 M17.35 8.4 L17.3 8.35 17.25 8.35 17.35 8.4" fill="#86e8f7" fill-opacity="0.47058824" fill-rule="evenodd" stroke="none"/>
    <path d="M15.55 8.75 Q17.85 11.1 10.35 14.7 1.4 19.0 -1.85 21.05 -5.1 23.0 -8.65 19.35 -11.2 16.6 -14.3 15.9 L-14.1 15.9 Q-23.15 14.0 -22.05 10.4 L-20.65 4.95 Q-20.25 3.2 -21.35 1.5 -22.55 -0.2 -22.3 -2.8 -22.05 -5.45 -12.8 -13.3 -3.55 -21.15 1.6 -21.3 6.75 -21.45 9.45 -17.5 12.05 -13.55 17.8 -9.6 23.6 -5.65 20.35 -2.35 17.45 2.7 16.1 5.9 14.85 6.65 15.55 8.75" fill="#c1ebfb" fill-rule="evenodd" stroke="none"/>
    <path d="M18.3 -1.6 Q15.15 4.8 15.15 5.7 15.15 10.8 7.4 15.65 0.6 19.95 -3.7 19.95 -7.7 19.95 -13.4 16.7 -20.3 12.85 -20.3 7.8 -20.3 7.05 -19.6 6.05 -19.0 5.0 -19.0 4.25 L-21.4 -1.15 Q-21.4 -6.6 -13.4 -13.55 -5.15 -20.7 2.05 -20.7 5.9 -20.7 9.25 -17.9 11.8 -15.7 16.65 -9.25 20.45 -6.0 18.3 -1.6" fill="url(#gradient0)" fill-rule="evenodd" stroke="none"/>
  </g>
  <defs>
    <radialGradient cx="0" cy="0" fx="92.80000000000001" fy="0" gradientTransform="matrix(0.0362, 0.0, 0.0, 0.0435, 351.8, -462.05)" gradientUnits="userSpaceOnUse" id="gradient0" r="819.2" spreadMethod="pad">
      <stop offset="0.0" stop-color="#f0d85a"/>
      <stop offset="0.9568627450980393" stop-color="#f7bd13"/>
    </radialGradient>
  </defs>
</svg>
