<?xml version="1.0" encoding="UTF-8" standalone="no"?>
<svg xmlns:ffdec="https://www.free-decompiler.com/flash" xmlns:xlink="http://www.w3.org/1999/xlink" ffdec:objectType="shape" height="57.1px" width="58.25px" xmlns="http://www.w3.org/2000/svg">
  <g transform="matrix(1.0, 0.0, 0.0, 1.0, 1.5, 1.5)">
    <path d="M41.05 3.4 Q38.95 1.35 32.25 2.4 L24.6 3.25 19.35 1.5 Q15.0 0.0 12.5 0.0 10.15 0.0 9.2 0.85 8.7 1.3 7.75 3.4 5.4 8.95 2.0 13.45 -0.15 15.35 1.25 16.2 2.65 17.0 3.4 17.95 4.55 18.9 2.25 21.75 -0.05 24.55 0.0 26.1 0.05 27.65 3.95 30.35 7.85 33.1 7.85 36.35 L7.0 43.6 Q7.0 47.9 10.4 48.15 16.35 47.75 19.8 48.8 23.25 49.8 26.45 51.8 29.6 53.75 31.2 54.1 32.8 54.4 36.55 50.2 40.25 46.0 43.95 43.5 50.6 39.0 52.15 36.6 L54.9 31.25 Q56.1 28.3 53.05 25.3 50.0 22.25 47.35 20.35 44.65 18.45 44.15 13.65 L43.35 7.15 Q43.05 5.45 41.05 3.4 Z" fill="none" stroke="#ffffff" stroke-linecap="round" stroke-linejoin="round" stroke-width="3.0"/>
  </g>
</svg>
