<?xml version="1.0" encoding="UTF-8" standalone="no"?>
<svg xmlns:ffdec="https://www.free-decompiler.com/flash" xmlns:xlink="http://www.w3.org/1999/xlink" ffdec:objectType="shape" height="51.4px" width="52.6px" xmlns="http://www.w3.org/2000/svg">
  <g transform="matrix(1.0, 0.0, 0.0, 1.0, 25.3, 25.35)">
    <path d="M19.05 -6.95 Q22.75 -5.95 24.25 -2.75 L24.45 -1.7 Q24.0 2.0 26.55 5.15 29.0 8.15 23.5 9.65 17.95 11.15 17.75 13.35 17.55 15.6 13.9 16.25 10.15 16.95 9.45 20.0 8.85 23.0 7.55 24.55 6.3 26.15 4.55 26.05 2.8 26.0 1.05 24.7 -0.8 23.3 -1.85 20.95 -2.9 18.65 -10.05 19.75 -17.25 20.9 -17.7 17.2 -18.05 13.35 -17.2 9.7 -16.65 7.4 -17.8 5.7 -19.0 4.05 -22.4 1.75 -25.8 -0.6 -23.15 -3.85 -20.45 -7.05 -20.6 -8.35 -20.75 -9.6 -21.2 -10.2 L-23.95 -11.55 Q-26.25 -12.5 -24.65 -13.45 -23.05 -14.4 -21.3 -14.55 -19.6 -14.65 -19.4 -15.3 -17.2 -16.85 -16.85 -19.65 -16.4 -23.9 -12.65 -25.35 -6.9 -25.45 -2.05 -22.3 L-1.55 -22.2 8.25 -23.1 Q12.55 -23.35 15.15 -19.9 16.7 -17.85 16.5 -15.25 16.2 -11.3 17.75 -8.0 18.15 -7.15 19.05 -6.95" fill="#7bd8e7" fill-opacity="0.36078432" fill-rule="evenodd" stroke="none"/>
    <path d="M2.35 -21.05 Q5.6 -22.35 8.8 -21.95 12.05 -21.55 13.75 -18.95 15.5 -16.25 15.85 -14.0 16.15 -11.7 17.9 -7.85 19.7 -4.1 21.55 -4.35 23.35 -4.55 23.3 -2.15 23.25 0.1 21.75 3.25 21.8 5.7 22.75 7.75 23.6 9.65 21.55 10.0 17.4 11.05 16.9 12.15 15.2 16.05 10.7 15.9 10.25 15.9 10.1 16.3 L8.4 19.55 Q7.4 21.5 4.2 21.7 0.95 21.9 -0.65 19.55 -2.35 17.15 -3.85 17.0 L-9.3 17.35 Q-13.3 17.7 -14.8 16.25 -16.35 14.75 -16.05 12.8 -15.85 10.7 -16.05 7.55 -16.35 4.3 -18.25 2.55 -20.2 0.65 -20.75 -1.4 -21.1 -2.45 -20.65 -3.3 -19.8 -4.95 -19.35 -6.6 -18.95 -8.25 -19.8 -10.85 -20.65 -13.4 -18.75 -14.1 -16.85 -14.7 -16.35 -15.0 -15.8 -15.35 -15.45 -17.8 -15.15 -20.35 -14.0 -21.65 -13.05 -23.1 -11.15 -22.6 -8.0 -22.45 -6.1 -20.95 -4.1 -19.55 -2.5 -19.65 -0.95 -19.8 2.35 -21.05 M-4.25 -17.8 Q-7.75 -19.55 -11.4 -19.9 L-12.0 -19.85 -12.4 -19.45 Q-13.4 -18.15 -13.3 -16.6 -13.25 -14.85 -14.5 -13.95 -15.45 -13.3 -16.5 -13.05 -18.85 -12.25 -17.9 -9.55 L-17.55 -8.0 Q-17.2 -5.4 -18.8 -3.15 -19.0 -2.8 -17.6 -2.95 -16.25 -3.15 -15.15 -0.75 -14.1 1.65 -13.65 5.2 -13.3 8.75 -14.0 13.1 -14.25 14.25 -13.2 14.6 -8.4 16.25 -3.35 15.4 L-2.15 15.6 Q-0.1 16.85 1.6 18.7 2.9 19.95 4.75 19.45 7.0 18.75 7.9 16.25 7.7 13.3 10.3 11.9 11.65 11.2 13.25 11.4 15.5 11.55 16.6 9.55 L16.9 9.0 17.6 7.2 17.95 5.7 18.3 4.5 18.5 3.25 18.45 2.2 Q18.3 0.7 18.65 -0.55 L18.65 -1.05 Q14.1 -2.65 12.4 -7.05 11.9 -8.25 12.05 -9.65 12.55 -14.3 9.8 -17.3 9.1 -18.1 7.9 -18.25 L-2.65 -17.6 -4.25 -17.8 M10.7 13.9 L10.8 14.05 10.8 14.0 10.7 13.9" fill="#c1ebfb" fill-rule="evenodd" stroke="none"/>
    <path d="M20.8 -1.55 L20.75 -1.25 20.6 -0.45 20.75 -1.45 20.8 -1.55 M0.7 19.2 L-1.6 17.6 -1.55 17.6 Q-0.4 18.35 0.7 19.2 M-13.55 -20.35 L-13.2 -20.85 -13.5 -20.5 -13.55 -20.35 M-8.3 -18.9 L-8.15 -19.05 -8.2 -19.05 -8.3 -18.9 M-5.4 -18.55 Q-2.0 -16.7 1.15 -18.4 4.15 -20.05 9.0 -18.8 10.45 -18.45 11.2 -17.1 12.7 -14.1 13.05 -10.8 13.3 -7.9 15.0 -5.65 15.6 -4.8 17.55 -3.65 L20.0 -2.25 Q20.45 -2.0 19.6 -0.55 18.65 0.9 19.2 3.6 19.8 6.2 19.0 7.15 L16.95 9.1 Q15.65 10.15 15.25 11.25 L14.6 12.7 Q14.35 13.15 10.9 14.95 7.4 16.65 7.35 17.55 7.0 20.05 4.75 20.85 3.65 20.3 2.8 19.25 -0.4 15.75 -5.3 15.5 L-9.0 15.75 Q-11.8 15.85 -13.2 14.65 -14.55 13.4 -14.3 11.8 -14.0 10.15 -14.15 6.85 -14.35 3.5 -17.55 0.6 -20.8 -2.25 -18.55 -4.5 -18.0 -5.15 -17.6 -6.15 -17.3 -7.2 -18.2 -8.85 -19.15 -10.6 -18.65 -12.55 -16.4 -12.75 -14.5 -14.1 -12.5 -15.7 -12.9 -18.3 -13.8 -20.4 -11.25 -20.4 -8.8 -20.4 -5.4 -18.55" fill="#aa6622" fill-rule="evenodd" stroke="none"/>
    <path d="M-13.2 -20.85 L-11.4 -21.55 Q-8.7 -21.55 -7.2 -20.6 -5.4 -19.45 -3.05 -18.9 L-2.85 -18.8 Q-0.9 -18.45 1.9 -19.4 L2.0 -19.4 2.35 -19.55 2.5 -19.6 Q5.75 -20.9 8.0 -20.2 L10.8 -19.05 11.9 -18.55 Q13.5 -17.75 14.15 -13.05 14.8 -8.4 16.05 -6.55 17.2 -4.6 19.05 -3.7 20.75 -3.0 20.8 -1.55 L20.75 -1.45 20.6 -0.45 20.5 -0.3 20.0 1.0 Q19.85 1.7 19.85 2.3 19.7 3.1 19.85 3.65 L20.15 4.55 Q20.6 5.25 20.1 6.4 19.35 7.9 16.95 10.25 L16.4 10.8 Q16.3 10.8 16.25 10.9 L14.15 13.8 Q12.8 15.3 11.35 15.5 8.85 15.85 7.8 19.25 L7.05 20.65 3.0 20.55 0.7 19.2 Q-0.4 18.35 -1.55 17.6 L-1.6 17.6 -1.75 17.45 Q-3.0 16.3 -6.45 16.3 L-8.4 16.3 -13.05 15.85 Q-15.6 15.5 -15.15 11.7 L-15.1 10.95 -14.95 10.25 -14.95 10.1 -14.8 9.35 Q-14.3 5.25 -16.65 2.35 L-16.8 2.3 -17.25 1.7 -17.6 1.4 -17.7 1.35 Q-19.55 -0.25 -20.05 -1.55 -20.65 -3.0 -19.7 -4.15 -17.9 -6.4 -19.0 -9.65 L-19.15 -10.15 Q-20.0 -13.1 -17.25 -13.75 -15.5 -14.2 -14.7 -15.55 -14.15 -16.6 -14.15 -18.1 L-14.05 -18.75 -14.05 -18.8 -13.55 -20.35 -13.5 -20.5 -13.2 -20.85 M-5.4 -18.55 Q-8.8 -20.4 -11.25 -20.4 -13.8 -20.4 -12.9 -18.3 -12.5 -15.7 -14.5 -14.1 -16.4 -12.75 -18.65 -12.55 -19.15 -10.6 -18.2 -8.85 -17.3 -7.2 -17.6 -6.15 -18.0 -5.15 -18.55 -4.5 -20.8 -2.25 -17.55 0.6 -14.35 3.5 -14.15 6.85 -14.0 10.15 -14.3 11.8 -14.55 13.4 -13.2 14.65 -11.8 15.85 -9.0 15.75 L-5.3 15.5 Q-0.4 15.75 2.8 19.25 3.65 20.3 4.75 20.85 7.0 20.05 7.35 17.55 7.4 16.65 10.9 14.95 14.35 13.15 14.6 12.7 L15.25 11.25 Q15.65 10.15 16.95 9.1 L19.0 7.15 Q19.8 6.2 19.2 3.6 18.65 0.9 19.6 -0.55 20.45 -2.0 20.0 -2.25 L17.55 -3.65 Q15.6 -4.8 15.0 -5.65 13.3 -7.9 13.05 -10.8 12.7 -14.1 11.2 -17.1 10.45 -18.45 9.0 -18.8 4.15 -20.05 1.15 -18.4 -2.0 -16.7 -5.4 -18.55" fill="#692f1c" fill-rule="evenodd" stroke="none"/>
    <path d="M-10.25 -19.35 L-10.25 -18.7 Q-10.5 -18.35 -11.05 -18.45 -11.75 -18.5 -11.9 -19.3 L-11.95 -19.8 -11.95 -19.95 -11.85 -20.1 -11.6 -20.25 -11.25 -20.3 -10.6 -20.1 -10.25 -19.35" fill="#512d21" fill-rule="evenodd" stroke="none"/>
    <path d="M8.95 -17.95 L9.25 -17.75 9.4 -17.45 9.4 -17.35 9.15 -16.95 Q8.85 -16.5 8.35 -16.8 8.05 -16.85 8.0 -17.15 L7.95 -17.3 7.95 -17.45 7.95 -17.6 8.0 -17.65 8.15 -17.9 8.3 -17.95 8.45 -18.0 8.65 -18.1 8.95 -17.95" fill="#7e4431" fill-rule="evenodd" stroke="none"/>
    <path d="M-16.65 -10.35 Q-16.9 -9.8 -17.3 -10.2 -17.6 -10.5 -17.45 -10.95 L-17.4 -11.0 -17.25 -11.1 -17.05 -11.15 Q-16.45 -10.95 -16.65 -10.35" fill="#7e4431" fill-rule="evenodd" stroke="none"/>
    <path d="M18.4 -0.8 Q18.65 -0.45 18.4 -0.1 L18.05 0.35 Q17.6 0.5 17.4 0.1 17.2 -0.25 17.35 -0.6 L17.75 -1.05 18.4 -0.8" fill="#7e4431" fill-rule="evenodd" stroke="none"/>
    <path d="M18.3 6.9 L17.5 6.85 Q17.35 6.2 17.9 6.05 18.85 6.2 18.3 6.9" fill="#7e4431" fill-rule="evenodd" stroke="none"/>
    <path d="M5.6 17.05 L5.75 17.05 6.0 17.1 6.05 17.15 6.0 17.9 Q5.45 18.6 4.95 17.9 4.55 17.15 5.3 17.05 L5.6 17.05" fill="#7e4431" fill-rule="evenodd" stroke="none"/>
  </g>
</svg>
