<?xml version="1.0" encoding="UTF-8" standalone="no"?>
<svg xmlns:ffdec="https://www.free-decompiler.com/flash" xmlns:xlink="http://www.w3.org/1999/xlink" ffdec:objectType="shape" height="53.1px" width="60.15px" xmlns="http://www.w3.org/2000/svg">
  <g transform="matrix(1.0, 0.0, 0.0, 1.0, 1.5, 1.5)">
    <path d="M53.4 2.8 Q49.5 0.0 40.25 0.0 L35.7 0.95 29.75 2.55 Q27.5 3.2 24.55 4.35 L14.45 7.55 Q10.55 8.95 7.1 12.45 3.35 15.95 3.35 18.75 3.35 20.55 5.35 21.95 7.2 23.3 11.05 24.45 14.1 24.7 7.1 28.1 0.0 31.45 0.0 34.45 0.0 35.8 2.05 36.75 L9.6 39.85 Q11.65 40.8 15.8 45.85 19.3 50.1 22.8 50.1 24.7 50.1 26.5 48.5 28.95 46.3 29.75 42.85 30.2 40.55 31.75 41.3 L34.15 43.3 Q36.75 45.2 38.75 45.2 42.6 45.2 45.05 38.8 49.75 26.3 51.05 24.0 53.0 22.65 54.4 20.95 57.15 17.85 57.15 11.55 57.15 5.45 53.4 2.8 Z" fill="none" stroke="#ffffff" stroke-linecap="round" stroke-linejoin="round" stroke-width="3.0"/>
  </g>
</svg>
