<?xml version="1.0" encoding="UTF-8" standalone="no"?>
<svg xmlns:ffdec="https://www.free-decompiler.com/flash" xmlns:xlink="http://www.w3.org/1999/xlink" ffdec:objectType="shape" height="47.1px" width="53.7px" xmlns="http://www.w3.org/2000/svg">
  <g transform="matrix(1.0, 0.0, 0.0, 1.0, 25.7, 22.15)">
    <path d="M2.25 -19.75 L7.85 -21.25 12.15 -22.15 Q20.85 -22.15 24.5 -19.5 28.0 -17.0 28.0 -11.3 28.0 -5.35 25.45 -2.45 24.1 -0.85 22.3 0.4 21.05 2.6 16.65 14.35 14.35 20.35 10.7 20.35 8.85 20.35 6.4 18.55 L4.15 16.7 Q2.7 16.0 2.25 18.15 1.5 21.4 -0.8 23.45 -2.5 24.95 -4.3 24.95 -7.55 24.95 -10.85 20.95 -14.75 16.2 -16.7 15.35 L-23.8 12.4 Q-25.7 11.5 -25.7 10.25 -25.7 7.45 -19.05 4.3 -12.45 1.1 -15.35 0.85 -18.95 -0.25 -20.7 -1.5 -22.55 -2.8 -22.55 -4.5 -22.55 -7.15 -19.05 -10.45 -15.8 -13.75 -12.15 -15.05 -5.45 -16.95 -2.65 -18.05 L2.25 -19.75" fill="#86e8f7" fill-opacity="0.47058824" fill-rule="evenodd" stroke="none"/>
    <path d="M2.05 -17.25 Q8.7 -19.95 16.35 -19.95 21.9 -19.95 24.6 -16.35 26.35 -13.95 26.15 -8.95 25.9 -4.05 22.8 -1.5 19.75 0.95 17.65 7.35 15.55 13.7 14.5 15.45 12.75 18.45 9.45 18.45 5.4 18.45 5.4 15.15 5.4 14.35 5.75 13.3 L6.2 11.9 5.45 11.8 Q2.6 13.1 0.65 18.75 -1.05 23.65 -3.75 23.65 -7.4 23.65 -9.05 20.05 -11.0 15.75 -11.85 15.25 -14.6 13.75 -20.1 11.6 -22.55 10.7 -22.55 9.15 -22.55 7.35 -16.2 5.75 -9.9 4.1 -8.65 1.8 -7.5 -0.45 -11.85 -1.5 -16.25 -2.55 -18.15 -4.3 -19.85 -5.25 -15.4 -10.0 -13.1 -12.55 -8.8 -13.35 -6.45 -13.8 2.05 -17.25" fill="#c1ebfb" fill-rule="evenodd" stroke="none"/>
    <path d="M-6.55 -4.1 Q-9.45 -8.85 -15.55 -8.5 -13.7 -9.95 -6.75 -13.65 0.15 -17.4 4.9 -16.65 9.55 -15.95 12.05 -17.75 14.45 -19.5 17.4 -16.65 20.3 -20.75 21.6 -17.05 21.65 -16.75 22.5 -18.1 23.35 -19.45 24.5 -15.55 25.6 -11.75 23.45 -8.05 L19.0 -1.65 Q16.7 1.2 16.1 2.6 15.45 4.0 14.25 9.15 13.65 11.55 12.1 13.45 7.4 17.05 8.35 15.3 9.3 13.55 9.45 12.15 9.5 11.3 7.85 9.1 5.95 9.15 7.75 6.9 9.45 4.55 6.55 5.5 3.65 6.4 4.5 9.1 -0.35 9.0 -2.55 12.25 L-6.25 17.65 Q-7.25 18.9 -8.05 16.7 -8.75 14.55 -10.15 13.45 -12.2 11.9 -15.55 11.15 -24.5 10.15 -15.2 7.1 -5.85 4.1 -4.95 -1.55 0.15 -5.3 -6.55 -4.1" fill="#e5ac3f" fill-rule="evenodd" stroke="none"/>
    <path d="M-6.55 -4.1 Q0.15 -5.3 -4.95 -1.55 -5.85 4.1 -15.2 7.1 -24.5 10.15 -15.55 11.15 -12.2 11.9 -10.15 13.45 -8.75 14.55 -8.05 16.7 -7.25 18.9 -6.25 17.65 L-2.55 12.25 Q-0.35 9.0 4.5 9.1 3.65 6.4 6.55 5.5 9.45 4.55 7.75 6.9 5.95 9.15 7.85 9.1 9.5 11.3 9.45 12.15 9.3 13.55 8.35 15.3 7.4 17.05 12.1 13.45 13.65 11.55 14.25 9.15 15.45 4.0 16.1 2.6 16.7 1.2 19.0 -1.65 L23.45 -8.05 Q25.6 -11.75 24.5 -15.55 23.35 -19.45 22.5 -18.1 21.65 -16.75 21.6 -17.05 20.3 -20.75 17.4 -16.65 14.45 -19.5 12.05 -17.75 9.55 -15.95 4.9 -16.65 0.15 -17.4 -6.75 -13.65 -13.7 -9.95 -15.55 -8.5 -9.45 -8.85 -6.55 -4.1 M-15.55 -10.6 Q-13.0 -12.6 -8.75 -14.35 -3.85 -16.4 -0.9 -16.9 0.45 -17.1 1.2 -17.8 L4.7 -17.65 Q7.3 -16.8 11.05 -19.0 L17.05 -18.85 Q18.9 -20.4 20.8 -20.4 L22.3 -20.15 23.1 -19.7 Q23.7 -19.35 24.55 -16.75 25.4 -14.2 25.05 -11.75 24.7 -9.35 23.3 -5.8 22.1 -2.55 19.45 0.55 L16.65 8.45 15.85 10.35 Q13.75 14.55 11.55 16.35 L11.5 16.35 Q8.95 18.4 6.15 17.15 L6.15 17.05 Q6.15 16.35 6.9 14.75 L7.45 12.35 Q7.45 11.55 6.8 11.0 5.9 10.2 4.4 10.2 L3.4 10.35 2.3 10.8 1.8 11.0 Q-1.05 12.5 -3.6 17.5 L-5.7 21.5 Q-7.25 23.5 -9.05 22.0 -9.75 16.1 -13.35 14.45 -24.6 11.3 -22.7 8.2 L-20.35 7.6 Q-12.9 5.75 -9.55 4.2 L-9.3 4.15 Q-7.0 2.9 -7.2 -0.3 -7.25 -1.45 -7.7 -2.75 -8.2 -3.85 -9.3 -4.55 -11.45 -5.85 -15.7 -6.25 -17.25 -6.5 -17.65 -7.35 -18.1 -8.55 -15.55 -10.6" fill="#b67e15" fill-rule="evenodd" stroke="none"/>
  </g>
</svg>
