<?xml version="1.0" encoding="UTF-8" standalone="no"?>
<svg xmlns:ffdec="https://www.free-decompiler.com/flash" xmlns:xlink="http://www.w3.org/1999/xlink" ffdec:objectType="shape" height="58.9px" width="55.75px" xmlns="http://www.w3.org/2000/svg">
  <g transform="matrix(1.0, 0.0, 0.0, 1.0, 1.5, 1.5)">
    <path d="M33.85 5.5 Q33.05 3.2 28.55 1.0 24.05 -1.2 19.85 1.4 15.6 3.95 11.65 5.65 L5.0 8.2 Q2.3 9.1 0.95 14.95 -0.4 20.8 0.2 23.3 0.75 25.75 1.75 26.75 L4.3 28.55 Q8.3 32.0 9.8 44.7 10.45 50.45 14.7 53.4 18.35 55.9 23.8 55.9 39.15 52.6 40.25 50.8 41.3 49.15 41.95 47.5 42.6 45.7 43.25 44.8 L46.55 40.75 Q49.15 37.6 50.95 33.5 52.75 29.35 52.75 26.25 52.75 16.7 44.55 16.0 L38.05 15.15 Q35.3 14.5 35.3 12.1 L34.95 9.65 Q34.6 7.75 33.85 5.5 Z" fill="none" stroke="#ffffff" stroke-linecap="round" stroke-linejoin="round" stroke-width="3.0"/>
  </g>
</svg>
