<?xml version="1.0" encoding="UTF-8" standalone="no"?>
<svg xmlns:ffdec="https://www.free-decompiler.com/flash" xmlns:xlink="http://www.w3.org/1999/xlink" ffdec:objectType="shape" height="53.1px" width="48.0px" xmlns="http://www.w3.org/2000/svg">
  <g transform="matrix(1.0, 0.0, 0.0, 1.0, 24.0, 26.0)">
    <path d="M8.25 -15.0 Q7.9 -13.95 7.9 -13.3 7.9 -12.5 8.5 -11.6 9.2 -10.55 10.75 -10.2 L17.0 -10.2 Q20.8 -9.9 22.65 -5.85 24.0 -3.1 24.0 -0.4 24.0 0.75 22.3 5.25 20.5 10.15 19.05 12.1 L17.3 13.6 15.6 15.2 15.0 16.8 14.25 18.35 12.9 21.45 Q12.15 23.3 9.15 24.4 L5.3 24.4 Q3.05 25.0 0.8 26.15 -0.95 27.1 -1.95 27.1 -7.95 27.1 -11.5 24.35 -15.05 21.65 -15.65 16.8 L-15.65 10.0 Q-15.5 5.25 -19.7 2.7 -24.0 0.1 -24.0 -2.85 -24.0 -4.1 -23.5 -5.35 -23.0 -6.55 -23.0 -8.85 L-22.95 -11.85 Q-22.7 -13.35 -21.85 -14.9 -20.5 -17.35 -12.5 -20.45 -9.4 -21.7 -7.45 -24.15 -5.9 -26.0 -4.55 -26.0 -2.4 -26.0 0.3 -23.85 L3.0 -21.45 5.6 -20.3 Q7.4 -19.6 7.75 -19.15 L8.65 -17.9 8.65 -16.85 Q8.65 -16.1 8.25 -15.0" fill="#86e8f7" fill-opacity="0.47058824" fill-rule="evenodd" stroke="none"/>
    <path d="M-22.8 -8.8 Q-21.85 -15.8 -11.55 -20.0 -10.55 -20.3 -6.5 -22.55 -2.5 -24.8 1.8 -19.8 8.55 -18.3 6.8 -14.95 5.1 -11.7 8.55 -9.8 9.65 -8.3 13.85 -8.0 L18.25 -7.95 Q19.2 -7.55 20.8 -5.55 21.8 -4.7 22.0 -3.15 L22.1 -0.7 Q22.1 3.0 20.65 6.05 L16.35 13.1 14.65 16.3 Q13.5 18.45 12.25 19.85 10.6 21.8 7.7 22.3 L3.85 22.75 Q3.25 23.3 1.8 23.9 -1.0 25.0 -6.0 25.0 -12.8 25.0 -14.75 16.0 -15.55 6.1 -16.15 3.85 -16.7 1.6 -20.25 0.1 -22.6 -0.85 -22.0 -4.1 -23.15 -6.2 -22.8 -8.8" fill="#c1ebfb" fill-rule="evenodd" stroke="none"/>
    <path d="M-17.15 -13.45 Q-13.8 -14.35 -13.55 -14.8 L-12.0 -16.7 Q-9.45 -16.9 -7.6 -18.3 -5.9 -19.6 -5.0 -19.6 -3.75 -19.65 -3.3 -19.15 L-2.25 -18.3 -0.7 -17.2 Q0.3 -16.4 1.4 -13.95 2.4 -11.6 2.9 -10.95 3.35 -10.25 3.1 -7.55 2.85 -4.05 5.95 -4.9 L10.65 -5.25 12.95 -5.55 15.0 -5.55 Q17.8 -4.6 18.1 -3.6 18.4 -2.5 17.15 0.15 18.75 0.15 18.55 2.25 18.4 4.2 17.25 7.6 15.95 11.25 15.2 12.3 L14.55 13.4 12.95 14.4 10.0 15.2 Q8.7 15.5 8.1 16.0 L5.75 18.2 Q3.4 20.0 1.15 20.0 -0.7 18.85 -2.0 18.85 -3.45 18.85 -5.05 20.0 L-6.5 21.15 Q-10.65 21.15 -11.95 15.65 -14.05 10.1 -13.25 9.0 -12.5 7.9 -12.0 6.15 -11.5 4.45 -11.5 3.2 -11.5 1.25 -12.3 0.4 -13.1 -0.5 -16.0 -2.15 -18.9 -3.8 -18.95 -7.15 -19.1 -10.55 -18.4 -11.85 -17.85 -13.15 -17.15 -13.45 M-3.45 -18.4 Q-5.2 -19.35 -5.2 -17.85 L-4.9 -17.35 -3.6 -16.9 -3.25 -16.25 -2.5 -15.65 Q-1.75 -15.65 -1.75 -16.7 -1.75 -17.5 -3.45 -18.4 M15.15 -1.95 Q15.15 -2.65 14.4 -2.65 13.6 -2.65 13.6 -1.95 13.6 -1.7 13.85 -1.5 14.15 -1.05 14.7 -1.05 15.05 -1.05 15.15 -1.3 L15.15 -1.95 M15.85 5.1 Q15.05 5.1 15.05 5.95 L15.05 6.55 Q15.15 6.95 15.65 6.95 16.0 6.95 16.3 6.45 L16.5 5.65 16.35 5.4 Q16.15 5.1 15.85 5.1 M3.65 18.55 L4.2 17.7 Q4.2 16.75 3.1 17.15 2.05 17.6 2.05 18.45 2.05 19.1 2.6 19.1 L3.65 18.55 M-8.0 19.75 Q-7.15 19.75 -7.15 18.1 -7.15 17.0 -8.25 17.0 -9.4 17.0 -9.4 18.05 L-9.35 19.0 Q-9.1 19.75 -8.0 19.75 M-3.6 18.45 Q-3.1 18.45 -3.1 17.95 -3.1 17.4 -3.6 17.45 -4.1 17.6 -4.1 18.05 L-4.05 18.25 Q-3.9 18.45 -3.6 18.45" fill="#aa6622" fill-rule="evenodd" stroke="none"/>
    <path d="M-17.15 -13.45 Q-17.85 -13.15 -18.4 -11.85 -19.1 -10.55 -18.95 -7.15 -18.9 -3.8 -16.0 -2.15 -13.1 -0.5 -12.3 0.4 -11.5 1.25 -11.5 3.2 -11.5 4.45 -12.0 6.15 -12.5 7.9 -13.25 9.0 -14.05 10.1 -11.95 15.65 -10.65 21.15 -6.5 21.15 L-5.05 20.0 Q-3.45 18.85 -2.0 18.85 -0.7 18.85 1.15 20.0 3.4 20.0 5.75 18.2 L8.1 16.0 Q8.7 15.5 10.0 15.2 L12.95 14.4 14.55 13.4 15.2 12.3 Q15.95 11.25 17.25 7.6 18.4 4.2 18.55 2.25 18.75 0.15 17.15 0.15 18.4 -2.5 18.1 -3.6 17.8 -4.6 15.0 -5.55 L12.95 -5.55 10.65 -5.25 5.95 -4.9 Q2.85 -4.05 3.1 -7.55 3.35 -10.25 2.9 -10.95 2.4 -11.6 1.4 -13.95 0.3 -16.4 -0.7 -17.2 L-2.25 -18.3 -3.3 -19.15 Q-3.75 -19.65 -5.0 -19.6 -5.9 -19.6 -7.6 -18.3 -9.45 -16.9 -12.0 -16.7 L-13.55 -14.8 Q-13.8 -14.35 -17.15 -13.45 M-21.05 -8.45 Q-21.05 -12.05 -16.95 -15.55 -12.85 -18.95 -7.8 -19.85 L-2.8 -20.6 Q-0.55 -19.45 1.25 -18.0 4.8 -15.1 5.3 -8.8 5.6 -6.1 8.1 -7.0 L8.2 -7.0 Q8.25 -7.35 9.7 -7.35 L11.45 -7.2 11.5 -7.2 Q17.4 -6.85 18.35 -5.25 L19.4 -3.45 19.4 -3.3 19.5 -3.15 Q19.9 -2.05 19.9 1.2 L19.9 1.45 Q19.85 7.5 15.8 13.05 12.55 17.55 7.6 19.75 2.2 22.95 -3.25 22.8 -12.2 23.25 -13.95 15.7 -14.55 12.95 -14.2 8.4 -13.65 3.7 -14.85 0.95 L-17.35 -1.95 Q-21.05 -6.25 -21.05 -8.45 M15.15 -1.95 L15.15 -1.3 Q15.05 -1.05 14.7 -1.05 14.15 -1.05 13.85 -1.5 13.6 -1.7 13.6 -1.95 13.6 -2.65 14.4 -2.65 15.15 -2.65 15.15 -1.95 M10.45 16.35 Q10.45 15.95 10.0 16.1 9.5 16.25 9.5 16.6 L9.5 16.8 Q9.55 17.0 10.05 17.0 L10.3 16.8 10.45 16.35" fill="#5d3711" fill-rule="evenodd" stroke="none"/>
    <path d="M-3.45 -18.4 Q-1.75 -17.5 -1.75 -16.7 -1.75 -15.65 -2.5 -15.65 L-3.25 -16.25 -3.6 -16.9 -4.9 -17.35 -5.2 -17.85 Q-5.2 -19.35 -3.45 -18.4 M15.85 5.1 Q16.15 5.1 16.35 5.4 L16.5 5.65 16.3 6.45 Q16.0 6.95 15.65 6.95 15.15 6.95 15.05 6.55 L15.05 5.95 Q15.05 5.1 15.85 5.1 M10.45 16.35 L10.3 16.8 10.05 17.0 Q9.55 17.0 9.5 16.8 L9.5 16.6 Q9.5 16.25 10.0 16.1 10.45 15.95 10.45 16.35 M-3.6 18.45 Q-3.9 18.45 -4.05 18.25 L-4.1 18.05 Q-4.1 17.6 -3.6 17.45 -3.1 17.4 -3.1 17.95 -3.1 18.45 -3.6 18.45 M-8.0 19.75 Q-9.1 19.75 -9.35 19.0 L-9.4 18.05 Q-9.4 17.0 -8.25 17.0 -7.15 17.0 -7.15 18.1 -7.15 19.75 -8.0 19.75 M3.65 18.55 L2.6 19.1 Q2.05 19.1 2.05 18.45 2.05 17.6 3.1 17.15 4.2 16.75 4.2 17.7 L3.65 18.55" fill="#795028" fill-rule="evenodd" stroke="none"/>
  </g>
</svg>
