<?xml version="1.0" encoding="UTF-8" standalone="no"?>
<svg xmlns:ffdec="https://www.free-decompiler.com/flash" xmlns:xlink="http://www.w3.org/1999/xlink" ffdec:objectType="shape" height="63.45px" width="188.15px" xmlns="http://www.w3.org/2000/svg">
  <g transform="matrix(1.0, 0.0, 0.0, 1.0, 0.0, 0.0)">
    <path d="M12.75 3.25 L1.6 16.4 Q3.0 22.6 1.35 39.15 L13.15 57.4 177.85 56.45 177.9 3.25 12.75 3.25" fill="#744431" fill-rule="evenodd" stroke="none"/>
    <path d="M176.05 28.3 Q176.5 23.95 171.5 25.4 166.95 26.7 164.85 29.35 163.1 27.15 161.5 27.15 159.65 27.15 155.45 30.15 L151.3 33.25 150.0 31.55 Q148.9 30.3 146.7 30.3 145.95 30.3 144.7 29.6 143.4 28.9 142.0 28.9 140.4 28.9 137.75 30.4 135.05 31.85 130.75 31.85 L128.85 31.7 126.85 31.75 126.8 30.95 127.2 30.3 Q127.2 29.4 126.7 28.5 125.85 26.8 123.75 26.8 122.9 26.8 121.35 27.95 120.7 28.25 120.25 28.85 L119.7 29.3 117.45 31.15 116.0 31.65 115.1 30.85 114.65 30.5 114.25 29.65 Q113.2 27.85 110.9 27.85 109.5 27.85 107.15 29.05 L102.55 31.35 Q102.2 30.15 101.65 29.45 100.65 28.2 98.2 28.2 96.05 28.2 91.35 30.5 L87.05 32.75 85.75 32.05 85.6 31.95 85.35 31.55 Q84.3 30.3 81.85 30.3 79.5 30.3 77.0 31.75 L75.75 31.35 73.4 32.2 71.05 33.0 70.0 32.0 Q68.75 31.0 67.2 31.0 L65.3 31.3 Q62.2 29.6 61.15 29.6 L58.35 30.1 56.6 30.55 56.6 30.4 Q56.65 28.5 56.0 27.55 54.75 25.9 51.1 26.2 50.05 26.3 46.8 28.3 43.65 30.3 43.25 30.3 L41.65 29.95 40.1 29.6 37.8 29.9 Q37.15 30.4 36.1 30.75 L35.25 29.1 Q34.25 27.85 31.9 27.85 29.55 27.85 26.4 30.55 L24.45 30.3 Q23.1 30.3 20.35 31.5 L19.5 31.9 Q18.45 31.35 17.3 31.35 L16.25 31.5 16.0 30.6 Q15.0 27.85 11.55 27.85 10.4 27.85 8.2 28.9 L4.55 30.45 4.45 30.1 Q4.65 29.05 4.0 27.9 3.4 26.85 2.25 26.45 2.35 19.85 1.6 16.4 L12.75 3.25 177.9 3.25 177.9 27.3 177.8 27.3 Q176.5 27.8 176.05 28.3" fill="#85523e" fill-rule="evenodd" stroke="none"/>
    <path d="M170.8 18.2 L170.8 17.9 Q170.8 13.9 168.3 14.0 166.2 14.15 162.8 17.05 L161.2 18.55 Q160.9 11.75 151.4 18.35 L151.2 18.5 Q150.6 12.8 141.3 18.55 140.5 18.45 139.3 19.05 L139.5 18.6 Q139.5 12.9 132.55 16.6 L131.5 16.2 128.05 19.4 125.8 21.05 125.35 21.4 124.9 21.2 125.75 19.8 Q125.75 18.75 125.25 18.55 L124.6 18.45 Q123.35 15.4 117.65 20.1 L118.35 18.5 Q118.35 17.45 117.85 17.25 L116.65 16.85 Q115.7 17.55 114.3 18.85 L114.2 18.75 113.95 18.6 113.2 18.95 Q111.3 18.15 107.1 20.5 105.85 18.25 101.5 20.3 101.1 16.7 96.4 18.9 L95.15 19.65 Q96.1 18.35 96.1 17.85 L95.95 16.8 95.75 16.65 Q92.1 17.25 88.25 20.2 L88.25 20.15 Q88.25 15.5 83.25 18.15 L79.8 20.65 79.75 20.6 Q77.05 21.4 72.85 23.75 77.15 19.4 77.15 18.5 77.15 17.5 76.65 17.25 L75.55 16.85 Q74.05 17.55 72.45 18.65 L72.45 18.5 Q72.45 17.5 71.95 17.25 L70.85 16.85 67.6 19.2 66.75 18.35 67.1 17.1 66.95 16.1 66.75 15.9 Q64.5 16.0 62.1 19.0 L61.9 19.1 Q61.45 18.05 60.4 17.8 62.4 15.55 62.4 15.15 62.4 14.15 61.85 13.85 L60.65 13.55 Q58.3 15.4 54.1 19.4 L53.8 19.55 54.3 18.85 54.3 18.05 Q56.95 15.85 56.95 15.15 L56.7 14.1 Q56.35 14.1 56.1 13.85 55.25 13.9 52.65 15.35 51.2 14.85 48.7 16.15 50.2 14.35 50.2 13.8 L50.05 12.75 49.85 12.55 Q44.8 12.95 36.6 21.6 L35.1 23.2 33.6 23.1 Q39.0 18.95 39.0 18.35 L39.0 18.05 Q40.75 16.65 40.75 16.45 L40.6 15.45 40.45 15.25 38.4 15.6 Q36.9 13.2 31.6 16.55 L31.0 16.2 Q30.05 16.7 26.85 20.05 L24.2 22.3 22.85 22.0 31.35 14.45 31.2 13.4 31.15 13.4 Q32.0 12.3 32.0 11.75 L31.75 10.7 31.2 10.45 Q29.75 10.65 26.05 13.8 22.85 13.2 14.2 19.75 L13.85 19.65 14.95 18.65 Q20.1 14.65 20.1 14.1 L20.1 13.65 21.2 12.4 21.05 11.35 20.85 11.2 Q20.05 11.3 19.2 11.65 18.0 10.7 15.05 11.85 L13.05 12.75 12.85 12.0 12.25 11.85 Q9.8 12.55 6.55 15.55 9.9 12.1 9.9 11.4 9.9 8.7 8.3 8.55 L12.75 3.25 177.9 3.25 177.9 17.4 Q176.8 18.1 175.4 19.5 L173.2 21.95 173.05 22.0 Q177.75 15.9 177.75 14.45 177.75 13.4 177.2 13.15 L176.05 12.8 Q175.35 13.1 170.8 18.2" fill="#936653" fill-rule="evenodd" stroke="none"/>
    <path d="M186.45 3.25 L186.45 9.55 180.5 9.55 175.15 9.05 166.95 9.55 143.1 9.5 138.9 9.05 126.2 9.05 109.65 8.15 89.7 8.15 82.55 9.15 80.6 9.4 71.5 9.35 70.1 9.15 63.8 8.45 Q61.0 8.45 58.65 9.35 L16.7 9.25 Q15.7 8.25 13.45 9.3 11.5 10.15 10.55 11.55 L3.95 16.15 11.35 3.25 186.45 3.25" fill="#1c202a" fill-opacity="0.32156864" fill-rule="evenodd" stroke="none"/>
    <path d="M15.05 63.45 L17.85 59.25 4.65 41.15 4.6 14.1 13.15 6.4 13.25 6.25 13.25 0.05 12.7 0.1 0.3 11.05 0.0 41.55 0.2 43.0 0.8 44.2 15.05 63.45" fill="#6e727b" fill-rule="evenodd" stroke="none"/>
    <path d="M4.1 13.6 L12.8 5.85 12.85 3.9 3.45 12.55 3.85 12.25 3.35 12.8 3.65 13.2 3.25 12.75 3.1 12.85 3.0 13.05 4.1 13.6" fill="#9498a1" fill-rule="evenodd" stroke="none"/>
    <path d="M3.0 42.2 L3.0 42.3 3.15 42.25 3.0 42.2" fill="#60646b" fill-rule="evenodd" stroke="none"/>
    <path d="M4.25 41.65 L4.35 41.75 4.1 13.6 4.05 13.65 4.1 13.6 3.0 13.05 3.1 12.85 3.0 12.95 2.8 13.4 3.15 42.35 4.25 41.65" fill="#57595d" fill-rule="evenodd" stroke="none"/>
    <path d="M3.15 42.35 L3.05 42.4 17.8 59.7 4.4 41.85 4.35 41.9 4.35 41.8 4.25 41.65 3.15 42.35" fill="#e7e7e7" fill-rule="evenodd" stroke="none"/>
    <path d="M0.55 43.2 L1.7 42.5 1.85 11.75 13.4 1.7 12.6 0.8 0.85 11.05 0.7 11.25 0.65 11.5 0.55 43.2" fill="#9498a1" fill-rule="evenodd" stroke="none"/>
    <path d="M13.4 5.45 L12.75 4.7 Q9.35 7.6 3.85 13.8 L13.4 5.45" fill="#312e2e" fill-rule="evenodd" stroke="none"/>
    <path d="M1.6 19.8 Q1.8 11.75 1.95 11.9 9.3 4.8 13.6 1.75 L13.0 0.35 1.05 11.3 Q1.25 11.35 1.65 26.35 L1.6 19.8" fill="#9498a1" fill-rule="evenodd" stroke="none"/>
    <path d="M1.65 42.85 L0.45 42.75 Q4.45 49.3 12.65 59.45 L1.65 42.85" fill="#312e2e" fill-rule="evenodd" stroke="none"/>
    <path d="M187.95 0.0 L187.95 6.3 12.85 6.3 12.85 0.0 187.95 0.0" fill="#6e727b" fill-rule="evenodd" stroke="none"/>
    <path d="M188.1 4.35 L13.0 4.35 13.0 5.85 188.1 5.85 188.1 4.35" fill="#312e2e" fill-rule="evenodd" stroke="none"/>
    <path d="M187.95 0.25 L12.85 0.25 12.85 2.25 187.95 2.25 187.95 0.25" fill="#9498a1" fill-rule="evenodd" stroke="none"/>
    <path d="M188.15 0.7 L13.05 0.7 13.05 1.4 188.15 1.4 188.15 0.7" fill="#e7e7e7" fill-rule="evenodd" stroke="none"/>
    <path d="M49.2 45.8 L49.15 46.05 48.65 46.4 48.1 45.6 49.1 45.4 49.2 45.8" fill="#936653" fill-rule="evenodd" stroke="none"/>
    <path d="M23.3 47.6 L23.55 48.4 23.45 48.55 22.7 47.9 22.7 46.95 23.0 46.95 23.3 47.6" fill="#936653" fill-rule="evenodd" stroke="none"/>
    <path d="M10.7 44.75 L10.65 44.9 9.7 44.3 Q9.85 44.1 10.1 44.1 L10.7 44.75" fill="#936653" fill-rule="evenodd" stroke="none"/>
    <path d="M123.4 48.05 L122.5 48.15 Q121.9 48.15 121.6 47.85 L121.6 47.7 123.4 48.0 123.4 48.05" fill="#936653" fill-rule="evenodd" stroke="none"/>
    <path d="M149.2 49.95 L148.9 50.35 148.55 50.3 Q148.45 50.55 148.45 50.05 148.45 49.7 148.75 49.65 L149.15 49.75 149.2 49.95" fill="#936653" fill-rule="evenodd" stroke="none"/>
    <path d="M169.0 40.1 L168.6 40.1 168.55 39.5 169.1 39.6 169.0 40.1" fill="#936653" fill-rule="evenodd" stroke="none"/>
    <path d="M172.5 23.3 Q171.7 23.3 170.95 22.25 171.5 22.25 172.75 23.05 173.0 23.3 172.5 23.3" fill="#936653" fill-rule="evenodd" stroke="none"/>
    <path d="M49.1 21.95 L49.4 22.95 49.4 23.05 48.7 22.4 48.65 21.7 48.7 20.95 48.9 20.95 49.1 21.95" fill="#936653" fill-rule="evenodd" stroke="none"/>
    <path d="M9.6 19.4 L8.6 21.35 8.35 21.35 8.25 20.85 8.55 19.85 8.95 19.1 9.6 19.4" fill="#936653" fill-rule="evenodd" stroke="none"/>
    <path d="M89.85 14.15 L88.75 12.4 87.85 10.6 Q88.35 10.35 89.2 11.8 L90.15 13.9 89.85 14.15" fill="#936653" fill-rule="evenodd" stroke="none"/>
    <path d="M78.0 47.15 Q78.1 47.75 79.5 49.95 L79.5 50.05 Q77.75 48.8 77.65 47.2 L78.0 47.15" fill="#936653" fill-rule="evenodd" stroke="none"/>
    <path d="M88.9 48.9 L89.3 50.7 89.3 50.95 88.75 50.9 88.55 49.75 88.55 48.9 88.9 48.9" fill="#7e503d" fill-rule="evenodd" stroke="none"/>
    <path d="M93.95 47.5 L94.2 48.55 93.9 48.8 93.35 47.1 Q93.35 46.55 93.65 46.45 L93.95 47.5" fill="#7e503d" fill-rule="evenodd" stroke="none"/>
    <path d="M93.7 27.35 Q93.25 27.45 93.25 27.55 L92.9 27.2 93.45 27.1 93.7 27.35" fill="#7e503d" fill-rule="evenodd" stroke="none"/>
    <path d="M91.0 11.45 L91.05 11.6 90.2 11.4 90.3 11.2 91.0 11.45" fill="#5d3626" fill-rule="evenodd" stroke="none"/>
    <path d="M65.65 52.15 L64.5 51.15 Q63.95 50.45 63.95 50.0 L64.0 49.7 64.0 49.8 64.25 49.75 65.7 52.05 65.65 52.15" fill="#5d3626" fill-rule="evenodd" stroke="none"/>
    <path d="M53.55 51.6 L49.1 52.0 47.0 52.25 Q46.75 52.6 46.75 52.1 46.75 51.75 49.2 51.4 51.85 51.1 53.65 51.45 L53.55 51.6" fill="#5d3626" fill-rule="evenodd" stroke="none"/>
    <path d="M149.6 52.75 L146.0 52.25 139.5 51.9 139.4 51.6 145.6 51.75 149.85 52.55 Q150.1 52.75 149.6 52.75" fill="#5d3626" fill-rule="evenodd" stroke="none"/>
    <path d="M86.65 17.3 L86.55 16.9 87.15 17.1 86.65 17.3" fill="#5d3626" fill-rule="evenodd" stroke="none"/>
    <path d="M50.85 15.4 L50.6 15.4 50.55 15.0 50.6 13.6 Q50.75 12.25 51.35 11.85 L50.85 15.4" fill="#5d3626" fill-rule="evenodd" stroke="none"/>
    <path d="M15.75 9.65 Q15.05 10.2 14.35 11.45 L13.2 13.45 13.0 13.45 Q14.65 10.2 15.7 9.55 L15.75 9.65" fill="#5d3626" fill-rule="evenodd" stroke="none"/>
  </g>
</svg>
