<?xml version="1.0" encoding="UTF-8" standalone="no"?>
<svg xmlns:ffdec="https://www.free-decompiler.com/flash" xmlns:xlink="http://www.w3.org/1999/xlink" ffdec:objectType="shape" height="27.1px" width="27.1px" xmlns="http://www.w3.org/2000/svg">
  <g transform="matrix(1.0, 0.0, 0.0, 1.0, -1.3, -5.05)">
    <path d="M28.4 24.65 L27.9 27.55 Q25.9 29.0 25.25 31.95 L9.15 31.35 8.95 31.35 Q3.6 30.85 3.4 30.05 2.05 28.75 1.5 27.5 L1.5 26.9 1.45 26.9 1.45 26.0 1.5 26.0 1.5 23.45 1.35 23.4 1.3 23.35 1.3 23.25 1.3 23.15 1.35 23.05 1.35 22.95 1.45 22.85 1.5 22.8 1.55 17.95 1.5 17.9 1.5 17.8 Q1.45 17.6 1.55 17.65 L1.55 15.35 1.3 15.25 1.55 14.95 1.55 12.6 2.95 12.6 2.05 12.05 1.75 11.95 1.75 11.9 1.7 11.85 1.8 11.75 2.05 9.95 1.9 9.8 1.75 9.5 Q1.75 9.3 1.9 9.15 L2.15 9.0 2.7 8.7 2.9 8.6 3.3 8.3 3.4 8.2 3.65 7.95 3.7 7.85 3.8 7.8 4.35 7.3 4.65 6.95 5.5 6.35 6.65 6.15 7.7 6.5 7.8 6.4 25.15 5.05 27.8 9.8 28.4 24.65" fill="#000000" fill-opacity="0.2" fill-rule="evenodd" stroke="none"/>
  </g>
</svg>
