<?xml version="1.0" encoding="UTF-8" standalone="no"?>
<svg xmlns:ffdec="https://www.free-decompiler.com/flash" xmlns:xlink="http://www.w3.org/1999/xlink" ffdec:objectType="shape" height="27.3px" width="28.7px" xmlns="http://www.w3.org/2000/svg">
  <g transform="matrix(1.0, 0.0, 0.0, 1.0, 0.0, -0.1)">
    <path d="M25.1 1.4 L27.85 3.9 28.7 18.9 25.35 19.0 Q26.5 19.3 28.1 20.45 L27.95 22.6 Q25.85 24.1 25.2 27.2 L8.25 26.6 Q4.0 25.4 4.25 25.3 2.25 24.2 1.7 22.85 L4.5 8.35 0.45 6.1 2.35 3.0 6.85 0.35 25.1 1.4" fill="#743a0b" fill-rule="evenodd" stroke="none"/>
    <path d="M25.85 18.65 L23.8 18.7 Q24.2 19.6 25.25 20.25 L25.1 22.3 Q23.1 23.7 23.55 26.05 L9.45 26.65 Q2.4 26.15 2.2 25.2 0.8 23.85 0.2 22.55 L0.25 6.85 2.6 6.8 0.5 6.2 0.9 3.1 5.2 0.5 22.5 1.5 25.05 3.95 25.85 18.65" fill="#bd843c" fill-rule="evenodd" stroke="none"/>
    <path d="M6.85 10.35 Q11.1 9.65 15.05 10.9 18.75 12.05 17.4 15.15 17.0 16.1 15.95 16.45 12.15 17.9 8.2 18.4 4.0 18.9 0.05 18.2 L0.0 18.15 0.0 18.05 0.0 17.95 0.05 17.85 0.05 17.75 0.15 17.65 0.25 17.6 Q4.1 17.85 9.55 17.5 15.0 17.1 16.2 14.65 17.35 12.2 14.2 11.2 L12.3 10.8 Q8.25 9.8 4.35 11.3 0.45 12.75 0.2 12.45 L0.2 12.35 Q0.15 12.05 0.25 12.15 L2.15 11.5 Q3.9 10.75 5.05 10.6 L6.85 10.35" fill="#9f6414" fill-rule="evenodd" stroke="none"/>
    <path d="M7.05 11.8 L9.85 11.5 Q12.45 11.45 13.2 13.55 13.35 14.05 12.95 14.4 11.25 15.95 8.85 16.45 L5.25 16.95 0.5 16.65 0.3 16.6 0.3 16.0 1.45 16.25 Q3.05 16.5 5.8 16.25 8.55 15.95 11.5 14.35 12.1 14.05 12.15 13.5 11.9 12.25 9.3 12.15 6.65 12.05 4.2 13.0 L0.65 14.3 Q0.5 14.35 0.45 14.15 1.0 13.7 1.85 13.35 3.5 12.6 5.2 12.2 L7.05 11.8" fill="#9f6414" fill-rule="evenodd" stroke="none"/>
    <path d="M25.5 12.8 L25.45 13.2 25.5 13.55 25.45 13.55 Q22.6 13.65 20.0 12.05 L14.9 8.7 Q12.4 6.95 9.85 7.75 7.3 8.5 5.55 9.25 L4.45 9.75 0.0 9.65 Q0.3 9.0 1.15 9.15 2.85 9.45 4.5 8.8 L7.75 7.6 10.95 6.9 Q14.75 7.05 17.65 9.55 L18.45 10.15 Q21.65 12.35 25.5 12.8" fill="#9f6414" fill-rule="evenodd" stroke="none"/>
    <path d="M18.95 23.1 L23.3 22.8 24.85 22.5 24.5 23.3 Q21.15 24.95 18.4 24.15 15.6 23.3 12.05 21.7 8.5 20.1 4.5 21.05 L0.15 21.9 0.15 20.95 0.2 20.95 2.8 20.5 5.2 20.05 7.35 19.85 Q9.4 19.85 11.35 20.55 L15.15 22.1 Q16.95 22.9 18.95 23.1" fill="#9a6010" fill-rule="evenodd" stroke="none"/>
    <path d="M25.65 15.25 L25.65 15.5 24.4 15.4 21.4 15.65 20.05 16.15 Q19.25 16.45 18.7 17.05 18.1 17.75 18.05 18.6 17.7 18.8 18.45 19.85 19.2 20.9 21.25 21.15 L24.4 21.1 25.6 20.85 25.25 21.35 Q24.8 21.65 24.25 21.75 20.85 22.6 18.15 20.45 16.65 19.25 17.65 17.45 18.0 16.75 18.6 16.25 19.9 15.15 21.5 14.8 23.8 14.5 25.0 14.75 L25.65 14.9 25.65 15.2 25.65 15.25" fill="#9f6414" fill-rule="evenodd" stroke="none"/>
    <path d="M25.45 9.75 Q22.45 9.7 19.9 7.45 17.3 5.15 15.3 5.35 13.25 5.5 10.0 6.45 L2.75 6.8 1.9 6.65 Q1.05 6.55 3.15 6.45 L7.65 6.0 13.45 5.15 14.45 5.05 Q16.1 4.85 17.55 5.45 19.0 6.05 20.25 6.95 21.55 7.9 23.15 8.2 24.5 8.45 25.45 9.2 25.75 9.45 25.45 9.75" fill="#9f6414" fill-rule="evenodd" stroke="none"/>
    <path d="M24.8 4.2 L25.15 4.35 25.3 4.7 25.15 5.05 24.2 5.55 22.55 5.6 18.5 4.15 Q15.3 2.9 13.4 3.05 11.5 3.15 9.4 4.05 7.25 4.9 4.6 4.9 L2.5 4.7 Q1.05 4.4 0.65 3.95 L0.5 3.6 0.65 3.25 Q0.8 3.1 1.0 3.1 L1.35 3.25 2.7 3.7 4.6 3.9 10.0 3.3 13.9 2.7 Q15.6 2.7 18.8 3.8 L22.8 4.75 23.95 4.6 23.9 4.6 24.45 4.35 Q24.6 4.2 24.8 4.2" fill="#9f6414" fill-rule="evenodd" stroke="none"/>
    <path d="M23.7 3.75 L23.55 3.65 23.3 3.4 23.25 3.35 22.95 3.0 22.75 2.75 22.65 2.65 22.3 2.25 16.15 1.85 12.95 1.8 7.15 1.15 4.8 0.9 Q4.5 0.9 4.25 1.15 L0.95 3.5 Q1.05 3.05 1.5 2.75 L2.1 2.35 2.2 2.25 2.5 2.0 2.55 1.9 2.65 1.85 3.2 1.3 3.55 0.95 4.4 0.3 5.65 0.1 Q8.6 1.15 11.85 0.95 L15.3 0.85 21.6 1.4 Q23.4 1.7 24.6 3.25 L25.5 4.3 Q25.85 4.7 25.6 4.8 25.3 4.9 25.6 8.45 L25.35 8.1 25.3 7.65 25.25 7.5 25.2 7.25 25.2 7.15 25.2 7.1 25.2 7.0 25.2 6.8 25.2 6.75 25.2 6.35 25.2 6.15 25.2 6.1 25.2 5.65 25.2 5.25 25.2 5.0 24.6 4.6 24.0 4.15 23.75 3.85 23.7 3.75" fill="#ffd7a6" fill-rule="evenodd" stroke="none"/>
  </g>
</svg>
