<?xml version="1.0" encoding="UTF-8" standalone="no"?>
<svg xmlns:ffdec="https://www.free-decompiler.com/flash" xmlns:xlink="http://www.w3.org/1999/xlink" ffdec:objectType="shape" height="21.7px" width="20.2px" xmlns="http://www.w3.org/2000/svg">
  <g transform="matrix(1.0, 0.0, 0.0, 1.0, 0.0, 0.0)">
    <path d="M5.05 8.1 L5.4 7.65 5.75 7.15 6.05 6.8 10.45 0.95 11.0 0.6 Q15.85 2.85 19.85 6.0 20.45 6.5 20.0 7.25 L18.1 10.45 16.5 13.1 12.1 20.35 Q10.75 22.6 8.1 19.9 5.4 17.15 1.15 14.3 L0.6 13.9 0.7 13.55 0.8 11.05 Q2.0 11.35 2.55 10.8 L5.05 8.1" fill="#743a0b" fill-rule="evenodd" stroke="none"/>
    <path d="M1.0 11.4 Q1.7 9.9 3.5 7.85 L9.7 0.0 Q15.3 4.3 18.0 5.75 L10.05 18.45 1.3 11.65 2.0 11.05 1.2 11.6 1.0 11.4" fill="#ffd08a" fill-rule="evenodd" stroke="none"/>
    <path d="M9.95 2.35 L11.15 3.35 12.5 4.35 13.85 5.25 Q14.6 5.65 15.05 6.35 14.55 6.6 14.0 6.1 L12.55 4.95 11.35 4.0 10.1 3.0 Q9.65 2.65 9.95 2.35" fill="#9f8154" fill-rule="evenodd" stroke="none"/>
    <path d="M10.0 4.15 L11.65 5.45 13.15 6.8 14.75 7.95 14.7 7.95 14.7 8.05 14.65 8.1 14.65 8.15 Q13.65 8.1 12.85 7.35 L11.45 6.0 9.6 4.5 8.4 3.55 Q8.05 3.2 8.35 3.0 9.2 3.5 10.0 4.15" fill="#9f8154" fill-rule="evenodd" stroke="none"/>
    <path d="M9.55 5.65 L10.65 6.5 Q11.1 7.0 11.7 7.3 L12.75 8.2 12.8 8.25 12.8 8.3 12.75 8.35 12.75 8.4 12.7 8.45 12.65 8.5 11.4 7.8 10.35 6.85 9.3 6.05 Q8.65 5.7 8.35 5.05 L8.4 5.0 9.55 5.65" fill="#9f8154" fill-rule="evenodd" stroke="none"/>
    <path d="M8.3 7.1 L10.0 8.2 11.65 9.25 12.6 9.85 Q13.05 10.15 12.9 10.6 12.25 10.6 11.6 10.1 L9.95 8.9 8.4 7.85 6.7 6.55 Q6.35 6.25 6.6 6.05 L8.3 7.1" fill="#9f8154" fill-rule="evenodd" stroke="none"/>
    <path d="M6.2 8.65 Q6.85 8.8 7.35 9.2 L8.35 9.95 9.45 10.6 10.5 11.3 10.5 11.5 10.45 11.55 10.45 11.6 10.4 11.65 Q9.7 11.45 9.1 10.95 L8.05 10.2 7.0 9.45 Q6.35 9.05 6.2 8.65" fill="#9f8154" fill-rule="evenodd" stroke="none"/>
    <path d="M4.8 9.35 L6.75 10.5 8.55 11.9 Q9.4 12.65 10.4 13.15 L11.0 13.6 Q11.55 14.25 10.8 14.15 L10.55 13.95 Q9.6 13.7 8.85 13.1 L7.55 11.95 6.0 10.7 4.7 9.7 4.6 9.5 4.6 9.45 4.65 9.4 4.7 9.4 4.7 9.35 4.8 9.35" fill="#9f8154" fill-rule="evenodd" stroke="none"/>
    <path d="M4.95 11.5 L5.0 11.5 5.05 11.45 5.1 11.45 6.3 11.95 Q6.95 12.25 7.4 12.75 7.9 13.25 8.55 13.5 9.4 13.85 9.25 14.5 L9.25 14.55 Q8.65 14.6 8.15 14.15 L7.35 13.35 6.35 12.55 4.95 11.65 4.95 11.5" fill="#9f8154" fill-rule="evenodd" stroke="none"/>
    <path d="M0.35 14.25 Q0.0 13.7 0.0 13.05 L0.05 13.0 0.1 12.95 0.15 12.9 0.25 12.85 0.3 12.85 0.55 12.85 Q0.9 14.05 6.3 17.9 11.65 21.7 10.45 20.5 L13.95 15.45 18.95 7.5 19.0 6.45 18.75 5.8 18.75 5.7 18.75 5.6 18.8 5.6 18.85 5.55 18.95 5.5 19.0 5.5 Q19.45 6.2 20.2 6.45 L19.65 6.8 Q19.9 7.4 19.75 7.75 18.1 11.7 15.5 15.2 L13.45 18.4 Q12.6 20.0 11.25 21.15 11.55 21.4 11.25 21.3 L9.3 21.7 Q8.95 20.95 7.2 19.65 L3.05 16.55 0.35 14.25" fill="#f7b664" fill-rule="evenodd" stroke="none"/>
  </g>
</svg>
