<?xml version="1.0" encoding="UTF-8" standalone="no"?>
<svg xmlns:ffdec="https://www.free-decompiler.com/flash" xmlns:xlink="http://www.w3.org/1999/xlink" ffdec:objectType="shape" height="32.05px" width="28.7px" xmlns="http://www.w3.org/2000/svg">
  <g transform="matrix(1.0, 0.0, 0.0, 1.0, 0.0, 0.0)">
    <path d="M27.7 9.7 L28.5 23.95 25.3 24.05 28.4 24.75 27.8 27.45 Q25.8 28.9 25.15 31.85 L9.05 31.3 8.85 31.25 Q3.5 30.75 3.3 29.95 1.95 28.65 1.4 27.45 L1.4 26.8 1.35 26.8 1.35 25.9 1.4 25.9 1.4 23.35 1.25 23.3 1.2 23.25 1.2 23.15 1.2 23.05 1.25 22.95 1.25 22.85 1.35 22.75 1.4 22.7 1.45 17.85 1.4 17.8 1.4 17.7 Q1.35 17.5 1.45 17.55 L1.45 15.3 1.2 15.15 1.45 14.85 1.45 12.5 2.85 12.5 1.95 11.95 1.65 11.85 1.65 11.8 1.6 11.75 1.7 11.7 1.95 9.85 1.8 9.75 1.65 9.4 1.8 9.05 2.05 8.9 4.15 7.7 4.25 7.55 4.55 7.2 5.4 6.6 6.55 6.4 6.75 6.45 7.45 6.5 7.7 6.3 26.15 5.7 27.7 9.7" fill="#000000" fill-opacity="0.2" fill-rule="evenodd" stroke="none"/>
    <path d="M25.1 1.05 L27.85 3.55 28.7 18.55 25.35 18.65 Q26.5 18.95 28.1 20.1 L27.95 22.25 Q25.85 23.75 25.2 26.85 L8.25 26.25 Q4.0 25.05 4.25 24.95 2.25 23.85 1.7 22.5 L4.5 8.0 0.45 5.75 2.35 2.65 6.85 0.0 25.1 1.05" fill="#743a0b" fill-rule="evenodd" stroke="none"/>
    <path d="M25.85 18.3 L23.8 18.35 Q24.2 19.25 25.25 19.9 L25.1 21.95 Q23.1 23.35 23.55 25.7 L9.45 26.3 Q2.4 25.8 2.2 24.85 0.8 23.5 0.2 22.2 L0.25 6.5 2.6 6.45 0.5 5.85 0.9 2.75 5.2 0.15 22.5 1.15 25.05 3.6 25.85 18.3" fill="#bd843c" fill-rule="evenodd" stroke="none"/>
    <path d="M6.85 10.0 Q11.1 9.3 15.05 10.55 18.75 11.7 17.4 14.8 17.0 15.75 15.95 16.1 12.15 17.55 8.2 18.05 4.0 18.55 0.05 17.85 L0.0 17.8 0.0 17.7 0.0 17.6 0.05 17.5 0.05 17.4 0.15 17.3 0.25 17.25 Q4.1 17.5 9.55 17.15 15.0 16.75 16.2 14.3 17.35 11.85 14.2 10.85 L12.3 10.45 Q8.25 9.45 4.35 10.95 0.45 12.4 0.2 12.1 L0.2 12.0 Q0.15 11.7 0.25 11.8 L2.15 11.15 Q3.9 10.4 5.05 10.25 L6.85 10.0" fill="#9f6414" fill-rule="evenodd" stroke="none"/>
    <path d="M7.05 11.45 L9.85 11.15 Q12.45 11.1 13.2 13.2 13.35 13.7 12.95 14.05 11.25 15.6 8.85 16.1 L5.25 16.6 0.5 16.3 0.3 16.25 0.3 15.65 1.45 15.9 Q3.05 16.15 5.8 15.9 8.55 15.6 11.5 14.0 12.1 13.7 12.15 13.15 11.9 11.9 9.3 11.8 6.65 11.7 4.2 12.65 L0.65 13.95 Q0.5 14.0 0.45 13.8 1.0 13.35 1.85 13.0 3.5 12.25 5.2 11.85 L7.05 11.45" fill="#9f6414" fill-rule="evenodd" stroke="none"/>
    <path d="M25.5 12.45 L25.45 12.85 25.5 13.2 25.45 13.2 Q22.6 13.3 20.0 11.7 L14.9 8.35 Q12.4 6.6 9.85 7.4 7.3 8.15 5.55 8.9 L4.45 9.4 0.0 9.3 Q0.3 8.65 1.15 8.8 2.85 9.1 4.5 8.45 L7.75 7.25 10.95 6.55 Q14.75 6.7 17.65 9.2 L18.45 9.8 Q21.65 12.0 25.5 12.45" fill="#9f6414" fill-rule="evenodd" stroke="none"/>
    <path d="M18.95 22.75 L23.3 22.45 24.85 22.15 24.5 22.95 Q21.15 24.6 18.4 23.8 15.6 22.95 12.05 21.35 8.5 19.75 4.5 20.7 L0.15 21.55 0.15 20.6 0.2 20.6 2.8 20.15 5.2 19.7 7.35 19.5 Q9.4 19.5 11.35 20.2 L15.15 21.75 Q16.95 22.55 18.95 22.75" fill="#9a6010" fill-rule="evenodd" stroke="none"/>
    <path d="M25.65 14.9 L25.65 15.15 24.4 15.05 21.4 15.3 20.05 15.8 Q19.25 16.1 18.7 16.7 18.1 17.4 18.05 18.25 17.7 18.45 18.45 19.5 19.2 20.55 21.25 20.8 L24.4 20.75 25.6 20.5 25.25 21.0 Q24.8 21.3 24.25 21.4 20.85 22.25 18.15 20.1 16.65 18.9 17.65 17.1 18.0 16.4 18.6 15.9 19.9 14.8 21.5 14.45 23.8 14.15 25.0 14.4 L25.65 14.55 25.65 14.85 25.65 14.9" fill="#9f6414" fill-rule="evenodd" stroke="none"/>
    <path d="M25.45 9.4 Q22.45 9.35 19.9 7.1 17.3 4.8 15.3 5.0 13.25 5.15 10.0 6.1 L2.75 6.45 1.9 6.3 Q1.05 6.2 3.15 6.1 L7.65 5.65 13.45 4.8 14.45 4.7 Q16.1 4.5 17.55 5.1 19.0 5.7 20.25 6.6 21.55 7.55 23.15 7.85 24.5 8.1 25.45 8.85 25.75 9.1 25.45 9.4" fill="#9f6414" fill-rule="evenodd" stroke="none"/>
    <path d="M24.8 3.85 L25.15 4.0 25.3 4.35 25.15 4.7 24.2 5.2 22.55 5.25 18.5 3.8 Q15.3 2.55 13.4 2.7 11.5 2.8 9.4 3.7 7.25 4.55 4.6 4.55 L2.5 4.35 Q1.05 4.05 0.65 3.6 L0.5 3.25 0.65 2.9 Q0.8 2.75 1.0 2.75 L1.35 2.9 2.7 3.35 4.6 3.55 10.0 2.95 13.9 2.35 Q15.6 2.35 18.8 3.45 L22.8 4.4 23.95 4.25 23.9 4.25 24.45 4.0 Q24.6 3.85 24.8 3.85" fill="#9f6414" fill-rule="evenodd" stroke="none"/>
    <path d="M23.7 3.75 L23.55 3.65 23.3 3.4 23.25 3.35 22.95 3.0 22.75 2.75 22.65 2.65 22.3 2.25 16.15 1.85 12.95 1.8 7.15 1.15 4.8 0.9 Q4.5 0.9 4.25 1.15 L0.95 3.5 Q1.05 3.05 1.5 2.75 L2.1 2.35 2.2 2.25 2.5 2.0 2.55 1.9 2.65 1.85 3.2 1.3 3.55 0.95 4.4 0.3 5.65 0.1 19.5 0.85 22.6 1.1 24.6 3.25 25.5 4.3 Q25.85 4.7 25.6 4.8 25.3 4.9 25.6 8.45 L25.35 8.1 25.3 7.65 25.25 7.5 25.2 7.25 25.2 7.15 25.2 7.1 25.2 7.0 25.2 6.8 25.2 6.75 25.2 6.35 25.2 6.15 25.2 6.1 25.2 5.65 25.2 5.25 25.2 5.0 24.6 4.6 24.0 4.15 23.75 3.85 23.7 3.75" fill="#ffd7a6" fill-rule="evenodd" stroke="none"/>
  </g>
</svg>
