<?xml version="1.0" encoding="UTF-8" standalone="no"?>
<svg xmlns:ffdec="https://www.free-decompiler.com/flash" xmlns:xlink="http://www.w3.org/1999/xlink" ffdec:objectType="shape" height="18.9px" width="20.55px" xmlns="http://www.w3.org/2000/svg">
  <g transform="matrix(1.0, 0.0, 0.0, 1.0, -1.95, -4.9)">
    <path d="M21.25 10.05 Q23.15 13.35 22.2 16.95 21.2 20.7 17.9 22.55 14.6 24.45 11.0 23.45 7.3 22.45 5.4 19.2 L5.2 18.85 4.4 19.3 2.9 19.15 Q2.2 18.75 2.0 18.0 1.8 17.2 2.2 16.5 L2.15 16.45 4.6 12.0 Q4.95 11.35 5.75 11.1 L6.45 11.05 7.25 11.25 7.85 11.9 10.7 15.3 Q11.2 15.95 11.1 16.75 L11.1 16.8 Q11.0 17.6 10.5 18.05 L9.65 18.4 Q10.6 19.4 12.0 19.75 14.1 20.3 15.95 19.2 17.9 18.1 18.5 15.95 19.0 13.85 17.9 11.95 16.8 10.05 14.75 9.5 12.6 8.9 10.65 10.0 10.05 10.35 9.6 10.85 9.25 11.25 6.35 9.05 6.45 8.55 6.85 8.2 L8.75 6.7 Q12.05 4.85 15.75 5.8 19.35 6.75 21.25 10.05" fill="#ffd7a6" fill-rule="evenodd" stroke="none"/>
    <path d="M21.25 9.45 Q23.15 12.75 22.2 16.35 21.2 20.1 17.9 21.95 14.6 23.85 11.0 22.85 7.3 21.85 5.4 18.6 L5.2 18.25 4.4 18.7 2.9 18.55 Q2.2 18.15 2.0 17.4 1.8 16.6 2.2 15.9 L2.15 15.85 4.6 11.4 Q4.95 10.75 5.75 10.5 L6.45 10.45 7.25 10.65 7.85 11.3 10.7 14.7 Q11.2 15.35 11.1 16.15 L11.1 16.2 Q11.0 17.0 10.5 17.45 L9.65 17.8 Q10.6 18.8 12.0 19.15 14.1 19.7 15.95 18.6 17.9 17.5 18.5 15.35 19.0 13.25 17.9 11.35 16.8 9.45 14.75 8.9 12.6 8.3 10.65 9.4 10.05 9.75 9.6 10.25 9.05 10.8 8.35 10.85 L8.25 10.85 Q7.5 10.85 6.9 10.35 L6.9 10.3 Q6.3 9.8 6.3 9.05 L6.3 8.95 Q6.25 8.15 6.85 7.6 L8.75 6.1 Q12.05 4.25 15.75 5.2 19.35 6.15 21.25 9.45" fill="#743a0b" fill-rule="evenodd" stroke="none"/>
    <path d="M20.5 9.85 Q22.2 12.85 21.4 16.15 20.45 19.5 17.45 21.2 14.5 22.9 11.25 22.0 7.85 21.15 6.15 18.15 L5.4 16.35 4.8 17.4 4.15 17.9 3.35 17.75 2.85 17.15 Q2.65 16.7 2.9 16.35 L5.4 11.85 Q5.55 11.45 6.0 11.3 L6.4 11.25 6.8 11.4 7.2 11.8 7.25 11.85 10.05 15.3 10.3 16.1 9.9 16.8 9.1 17.05 8.4 16.65 7.3 15.25 Q7.5 16.2 8.0 17.1 9.3 19.35 11.75 20.0 14.2 20.65 16.4 19.35 18.65 18.1 19.35 15.6 19.95 13.2 18.65 10.95 17.4 8.75 15.0 8.05 12.5 7.45 10.25 8.7 9.55 9.1 9.0 9.65 L8.25 10.0 7.45 9.7 7.1 8.95 Q7.1 8.5 7.45 8.2 L9.15 6.8 Q12.15 5.1 15.55 6.0 18.8 6.9 20.5 9.85" fill="#d0d0d0" fill-rule="evenodd" stroke="none"/>
  </g>
</svg>
