<?xml version="1.0" encoding="UTF-8" standalone="no"?>
<svg xmlns:ffdec="https://www.free-decompiler.com/flash" xmlns:xlink="http://www.w3.org/1999/xlink" ffdec:objectType="shape" height="18.9px" width="20.55px" xmlns="http://www.w3.org/2000/svg">
  <g transform="matrix(1.0, 0.0, 0.0, 1.0, 0.0, 0.0)">
    <path d="M19.3 5.15 Q21.2 8.45 20.25 12.05 19.25 15.8 15.95 17.65 12.65 19.55 9.05 18.55 5.35 17.55 3.45 14.3 L3.25 13.95 2.45 14.4 0.95 14.25 Q0.25 13.85 0.05 13.1 -0.15 12.3 0.25 11.6 L0.2 11.55 2.65 7.1 Q3.0 6.45 3.8 6.2 L4.5 6.15 5.3 6.35 5.9 7.0 8.75 10.4 Q9.25 11.05 9.15 11.85 L9.15 11.9 Q9.05 12.7 8.55 13.15 L7.7 13.5 Q8.65 14.5 10.05 14.85 12.15 15.4 14.0 14.3 15.95 13.2 16.55 11.05 17.05 8.95 15.95 7.05 14.85 5.15 12.8 4.6 10.65 4.0 8.7 5.1 L7.65 5.95 Q7.3 6.35 4.4 4.15 4.5 3.65 4.9 3.3 L6.8 1.8 Q10.1 -0.05 13.8 0.9 17.4 1.85 19.3 5.15" fill="#ffd7a6" fill-rule="evenodd" stroke="none"/>
    <path d="M19.3 4.55 Q21.2 7.85 20.25 11.45 19.25 15.2 15.95 17.05 12.65 18.95 9.05 17.95 5.35 16.95 3.45 13.7 L3.25 13.35 2.45 13.8 0.95 13.65 Q0.25 13.25 0.05 12.5 -0.15 11.7 0.25 11.0 L0.2 10.95 2.65 6.5 Q3.0 5.85 3.8 5.6 L4.5 5.55 5.3 5.75 5.9 6.4 8.75 9.8 Q9.25 10.45 9.15 11.25 L9.15 11.3 Q9.05 12.1 8.55 12.55 L7.7 12.9 Q8.65 13.9 10.05 14.25 12.15 14.8 14.0 13.7 15.95 12.6 16.55 10.45 17.05 8.35 15.95 6.45 14.85 4.55 12.8 4.0 10.65 3.4 8.7 4.5 L7.65 5.35 Q7.1 5.9 6.4 5.95 L6.3 5.95 Q5.55 5.95 4.95 5.45 L4.95 5.4 Q4.35 4.9 4.35 4.15 L4.35 4.05 Q4.3 3.25 4.9 2.7 L6.8 1.2 Q10.1 -0.65 13.8 0.3 17.4 1.25 19.3 4.55" fill="#743a0b" fill-rule="evenodd" stroke="none"/>
    <path d="M18.55 4.95 Q20.25 7.95 19.45 11.25 18.5 14.6 15.5 16.3 12.55 18.0 9.3 17.1 5.9 16.25 4.2 13.25 L3.45 11.45 2.85 12.5 2.2 13.0 1.4 12.85 Q1.0 12.65 0.9 12.25 0.7 11.8 0.95 11.45 L3.45 6.95 Q3.6 6.55 4.05 6.4 L4.45 6.35 4.85 6.5 5.25 6.9 5.3 6.95 8.1 10.4 8.35 11.2 7.95 11.9 7.15 12.15 Q6.7 12.05 6.45 11.75 L5.35 10.35 Q5.55 11.3 6.05 12.2 7.35 14.45 9.8 15.1 12.25 15.75 14.45 14.45 16.7 13.2 17.4 10.7 18.0 8.3 16.7 6.05 15.45 3.85 13.05 3.15 10.55 2.55 8.3 3.8 L7.05 4.75 6.3 5.1 5.5 4.8 Q5.2 4.5 5.15 4.05 5.15 3.6 5.5 3.3 6.2 2.5 7.2 1.9 10.2 0.2 13.6 1.1 16.85 2.0 18.55 4.95" fill="#d0d0d0" fill-rule="evenodd" stroke="none"/>
  </g>
</svg>
