<?xml version="1.0" encoding="UTF-8" standalone="no"?>
<svg xmlns:ffdec="https://www.free-decompiler.com/flash" xmlns:xlink="http://www.w3.org/1999/xlink" ffdec:objectType="shape" height="14.55px" width="13.15px" xmlns="http://www.w3.org/2000/svg">
  <g transform="matrix(1.0, 0.0, 0.0, 1.0, -6.75, -6.3)">
    <path d="M11.5 7.85 Q10.95 9.1 12.1 20.4 L9.35 20.85 7.35 20.8 Q7.05 20.75 6.85 20.5 L6.85 19.05 6.95 16.6 6.95 13.35 6.8 10.05 Q6.7 8.9 6.85 7.75 L7.05 7.7 7.2 7.65 7.5 7.65 8.7 7.85 9.7 8.1 10.85 8.0 11.5 7.85" fill="#ffd7a6" fill-rule="evenodd" stroke="none"/>
    <path d="M19.15 8.0 Q20.25 14.2 19.75 20.45 L17.25 20.85 15.45 20.8 14.4 19.8 Q14.95 19.85 15.0 19.1 L15.0 16.65 14.9 13.4 14.7 10.15 14.65 7.85 14.85 7.85 15.0 7.8 15.2 7.75 16.3 7.95 17.2 8.2 18.25 8.1 19.15 8.0" fill="#ffd7a6" fill-rule="evenodd" stroke="none"/>
    <path d="M11.35 7.15 Q12.45 13.15 11.55 19.65 L9.05 20.1 7.25 20.05 6.8 19.75 6.8 18.3 6.9 15.85 Q6.85 14.25 6.95 12.6 L6.8 9.3 Q6.7 8.15 6.85 7.0 L7.05 6.95 7.2 6.9 7.4 6.9 8.5 7.1 9.4 7.35 10.45 7.25 11.35 7.15" fill="#743a0b" fill-rule="evenodd" stroke="none"/>
    <path d="M19.15 7.25 L19.2 19.7 16.65 20.1 14.85 20.05 Q14.6 20.0 14.45 19.75 14.05 17.25 14.35 13.55 L14.55 9.05 14.65 7.1 14.8 7.1 14.85 6.3 14.85 7.1 15.0 7.05 15.2 7.0 16.3 7.2 17.2 7.45 18.25 7.35 19.15 7.25" fill="#743a0b" fill-rule="evenodd" stroke="none"/>
    <path d="M10.65 8.15 L10.75 10.3 10.65 13.8 10.75 17.3 10.55 18.2 9.55 18.55 7.75 18.7 7.65 17.25 7.65 14.4 7.55 11.55 7.4 8.8 Q7.35 8.5 7.45 8.35 L7.65 8.45 8.1 8.35 Q8.7 8.05 9.35 8.05 L9.6 8.05 10.4 8.1 10.65 8.15" fill="#d0d0d0" fill-rule="evenodd" stroke="none"/>
    <path d="M18.55 10.35 L18.5 13.75 18.7 17.1 Q18.8 17.75 18.55 18.15 L17.7 18.35 15.55 18.35 15.45 16.95 15.45 14.25 15.35 11.55 15.2 8.9 Q15.15 8.6 15.25 8.4 L15.4 8.5 15.9 8.45 17.15 8.15 17.4 8.15 18.2 8.2 18.45 8.25 18.55 10.35" fill="#d0d0d0" fill-rule="evenodd" stroke="none"/>
  </g>
</svg>
