<?xml version="1.0" encoding="UTF-8" standalone="no"?>
<svg xmlns:ffdec="https://www.free-decompiler.com/flash" xmlns:xlink="http://www.w3.org/1999/xlink" ffdec:objectType="shape" height="14.55px" width="5.7px" xmlns="http://www.w3.org/2000/svg">
  <g transform="matrix(1.0, 0.0, 0.0, 1.0, -7.45, 0.0)">
    <path d="M12.4 1.7 Q13.5 7.9 13.0 14.15 L10.5 14.55 8.7 14.5 7.65 13.5 Q8.2 13.55 8.25 12.8 L8.25 10.35 8.15 7.1 7.95 3.85 7.9 1.55 8.1 1.55 8.25 1.5 8.45 1.45 9.55 1.65 10.45 1.9 11.5 1.8 12.4 1.7" fill="#ffd7a6" fill-rule="evenodd" stroke="none"/>
    <path d="M12.4 0.95 L12.45 13.4 9.9 13.8 8.1 13.75 Q7.85 13.7 7.7 13.45 7.3 10.95 7.6 7.25 L7.8 2.75 7.9 0.8 8.05 0.8 8.1 0.0 8.1 0.8 8.25 0.75 8.45 0.7 9.55 0.9 10.45 1.15 11.5 1.05 12.4 0.95" fill="#743a0b" fill-rule="evenodd" stroke="none"/>
    <path d="M11.8 4.05 L11.75 7.45 11.95 10.8 Q12.05 11.45 11.8 11.85 L10.95 12.05 8.8 12.05 8.7 10.65 8.7 7.95 8.6 5.25 8.45 2.6 Q8.4 2.3 8.5 2.1 L8.65 2.2 9.15 2.15 Q9.75 1.85 10.4 1.85 L10.65 1.85 11.45 1.9 11.7 1.95 11.8 4.05" fill="#d0d0d0" fill-rule="evenodd" stroke="none"/>
  </g>
</svg>
