<?xml version="1.0" encoding="UTF-8" standalone="no"?>
<svg xmlns:ffdec="https://www.free-decompiler.com/flash" xmlns:xlink="http://www.w3.org/1999/xlink" ffdec:objectType="shape" height="13.95px" width="5.35px" xmlns="http://www.w3.org/2000/svg">
  <g transform="matrix(1.0, 0.0, 0.0, 1.0, 0.0, -0.6)">
    <path d="M4.75 1.55 Q4.2 2.8 5.35 14.1 L2.6 14.55 0.6 14.5 Q0.3 14.45 0.1 14.2 L0.1 12.75 0.2 10.3 0.2 7.05 0.05 3.75 0.1 1.45 0.3 1.4 0.45 1.35 0.75 1.35 1.95 1.55 2.95 1.8 4.1 1.7 4.75 1.55" fill="#ffd7a6" fill-rule="evenodd" stroke="none"/>
    <path d="M4.6 0.85 Q5.7 6.85 4.8 13.35 L2.3 13.8 0.5 13.75 0.05 13.45 0.05 12.0 0.15 9.55 Q0.1 7.95 0.2 6.3 L0.05 3.0 0.1 0.7 0.3 0.65 0.45 0.6 0.65 0.6 1.75 0.8 2.65 1.05 3.7 0.95 4.6 0.85" fill="#743a0b" fill-rule="evenodd" stroke="none"/>
    <path d="M3.9 1.85 L4.0 4.0 3.9 7.5 4.0 11.0 3.8 11.9 2.8 12.25 1.0 12.4 0.9 10.95 0.9 8.1 0.8 5.25 0.65 2.5 Q0.6 2.2 0.7 2.05 L0.9 2.15 1.35 2.05 2.6 1.75 2.85 1.75 3.65 1.8 3.9 1.85" fill="#d0d0d0" fill-rule="evenodd" stroke="none"/>
  </g>
</svg>
