<?xml version="1.0" encoding="UTF-8" standalone="no"?>
<svg xmlns:ffdec="https://www.free-decompiler.com/flash" xmlns:xlink="http://www.w3.org/1999/xlink" ffdec:objectType="shape" height="15.75px" width="5.35px" xmlns="http://www.w3.org/2000/svg">
  <g transform="matrix(1.0, 0.0, 0.0, 1.0, 0.0, 1.2)">
    <path d="M4.75 -0.05 Q4.2 1.3 5.35 14.05 L2.6 14.55 0.6 14.5 0.1 14.15 0.1 12.55 0.2 9.8 0.2 6.1 0.05 2.4 0.1 -0.2 0.3 -0.25 0.45 -0.3 0.75 -0.35 1.95 -0.05 2.95 0.2 4.1 0.1 4.75 -0.05" fill="#ffd7a6" fill-rule="evenodd" stroke="none"/>
    <path d="M4.6 -0.85 Q5.7 5.9 4.8 13.2 L2.3 13.7 0.5 13.65 0.05 13.3 0.05 11.7 0.15 8.95 0.2 5.25 0.05 1.55 0.1 -1.05 0.3 -1.1 0.45 -1.15 0.65 -1.2 1.75 -0.9 2.65 -0.65 3.7 -0.75 4.6 -0.85" fill="#743a0b" fill-rule="evenodd" stroke="none"/>
    <path d="M3.9 0.2 L4.0 2.65 3.9 6.6 4.0 10.5 3.8 11.55 Q3.45 11.85 2.8 11.95 L1.0 12.1 0.9 10.45 0.9 7.25 0.8 4.05 0.65 0.95 Q0.6 0.6 0.7 0.45 L0.9 0.55 1.35 0.45 Q1.95 0.1 2.6 0.1 L2.85 0.1 3.65 0.15 3.9 0.2" fill="#d0d0d0" fill-rule="evenodd" stroke="none"/>
  </g>
</svg>
