<?xml version="1.0" encoding="UTF-8" standalone="no"?>
<svg xmlns:ffdec="https://www.free-decompiler.com/flash" xmlns:xlink="http://www.w3.org/1999/xlink" ffdec:objectType="shape" height="20.65px" width="6.0px" xmlns="http://www.w3.org/2000/svg">
  <g transform="matrix(1.0, 0.0, 0.0, 1.0, 0.65, 3.65)">
    <path d="M4.6 -2.15 Q4.05 -0.35 5.35 16.4 L2.25 17.0 0.0 16.95 -0.6 16.5 -0.55 14.4 Q-0.35 12.6 -0.45 10.8 L-0.4 5.95 Q-0.35 3.55 -0.6 1.1 L-0.55 -2.3 -0.3 -2.35 -0.1 -2.4 0.2 -2.5 1.5 -2.15 2.65 -1.8 3.9 -1.95 4.6 -2.15" fill="#ffd7a6" fill-rule="evenodd" stroke="none"/>
    <path d="M4.45 -3.2 Q5.8 5.65 4.7 15.25 L1.95 15.85 -0.1 15.8 -0.65 15.35 -0.6 13.25 Q-0.4 11.45 -0.5 9.65 L-0.45 4.8 Q-0.4 2.4 -0.6 -0.05 L-0.55 -3.45 -0.35 -3.5 -0.15 -3.55 0.15 -3.65 1.3 -3.3 2.3 -2.95 3.45 -3.1 4.45 -3.2" fill="#743a0b" fill-rule="evenodd" stroke="none"/>
    <path d="M4.05 -1.75 L4.2 1.4 4.05 6.55 4.2 11.75 Q4.25 12.55 3.95 13.05 3.5 13.5 2.7 13.55 L0.5 13.8 0.4 11.65 0.4 7.45 0.3 3.25 0.1 -0.8 Q0.05 -1.25 0.15 -1.5 L0.4 -1.35 0.95 -1.5 2.45 -1.9 2.8 -1.9 3.75 -1.85 4.05 -1.75" fill="#d0d0d0" fill-rule="evenodd" stroke="none"/>
  </g>
</svg>
