<?xml version="1.0" encoding="UTF-8" standalone="no"?>
<svg xmlns:ffdec="https://www.free-decompiler.com/flash" xmlns:xlink="http://www.w3.org/1999/xlink" ffdec:objectType="shape" height="15.65px" width="5.7px" xmlns="http://www.w3.org/2000/svg">
  <g transform="matrix(1.0, 0.0, 0.0, 1.0, -7.45, 1.1)">
    <path d="M12.4 0.75 Q13.5 7.4 13.0 14.1 L10.5 14.55 8.7 14.5 7.65 13.4 Q8.2 13.45 8.25 12.65 L8.25 10.05 8.15 6.55 7.95 3.05 7.9 0.6 8.1 0.55 8.25 0.5 8.45 0.45 9.55 0.7 10.45 0.95 11.5 0.85 12.4 0.75" fill="#ffd7a6" fill-rule="evenodd" stroke="none"/>
    <path d="M12.4 -0.1 L12.45 13.3 9.9 13.75 8.1 13.7 Q7.85 13.65 7.7 13.35 7.3 10.7 7.6 6.7 L7.8 1.85 7.9 -0.25 8.05 -0.25 8.1 -1.1 8.1 -0.25 8.25 -0.3 8.45 -0.35 9.55 -0.15 10.45 0.15 11.5 0.05 12.4 -0.1" fill="#743a0b" fill-rule="evenodd" stroke="none"/>
    <path d="M11.8 3.25 L11.7 6.95 11.95 10.55 Q12.05 11.25 11.8 11.65 11.5 11.95 10.85 11.9 L8.55 11.9 Q8.4 11.2 8.4 10.4 L8.4 7.45 8.3 4.55 8.15 1.7 Q8.1 1.4 8.2 1.2 L8.35 1.3 8.9 1.25 Q9.55 0.9 10.25 0.9 L10.55 0.9 11.4 0.95 11.65 1.0 11.8 3.25" fill="#d0d0d0" fill-rule="evenodd" stroke="none"/>
  </g>
</svg>
