<?xml version="1.0" encoding="UTF-8" standalone="no"?>
<svg xmlns:ffdec="https://www.free-decompiler.com/flash" xmlns:xlink="http://www.w3.org/1999/xlink" ffdec:objectType="shape" height="22.7px" width="7.15px" xmlns="http://www.w3.org/2000/svg">
  <g transform="matrix(1.0, 0.0, 0.0, 1.0, 1.4, 3.7)">
    <path d="M4.85 -2.0 Q4.2 0.0 5.75 18.3 L2.1 18.95 -0.6 18.9 -1.3 18.45 -1.25 16.1 -1.15 12.15 -1.1 6.85 Q-1.05 4.2 -1.3 1.55 L-1.25 -2.15 -1.0 -2.2 -0.8 -2.3 -0.4 -2.35 1.15 -2.0 2.5 -1.6 4.05 -1.75 4.85 -2.0" fill="#ffd7a6" fill-rule="evenodd" stroke="none"/>
    <path d="M4.65 -3.2 Q6.2 6.75 4.95 17.55 L1.6 18.25 -0.8 18.2 -1.35 17.7 -1.35 15.3 -1.2 11.25 -1.2 5.8 Q-1.1 3.1 -1.3 0.35 -1.45 -1.55 -1.25 -3.45 L-1.0 -3.5 -0.85 -3.6 -0.5 -3.7 0.9 -3.3 2.15 -2.9 3.5 -3.05 4.65 -3.2" fill="#743a0b" fill-rule="evenodd" stroke="none"/>
    <path d="M4.2 -1.6 L4.35 2.2 4.2 8.45 4.35 14.65 Q4.4 15.6 4.05 16.25 3.55 16.75 2.6 16.85 L0.0 17.15 -0.15 14.55 -0.15 9.5 -0.3 4.45 -0.5 -0.45 -0.45 -1.25 -0.15 -1.05 0.5 -1.25 Q1.4 -1.75 2.3 -1.75 L2.7 -1.75 3.85 -1.7 4.2 -1.6" fill="#d0d0d0" fill-rule="evenodd" stroke="none"/>
  </g>
</svg>
