<?xml version="1.0" encoding="UTF-8" standalone="no"?>
<svg xmlns:ffdec="https://www.free-decompiler.com/flash" xmlns:xlink="http://www.w3.org/1999/xlink" ffdec:objectType="shape" height="18.05px" width="6.5px" xmlns="http://www.w3.org/2000/svg">
  <g transform="matrix(1.0, 0.0, 0.0, 1.0, -7.05, 2.55)">
    <path d="M12.7 -0.4 Q13.95 7.25 13.4 14.95 L10.55 15.5 8.45 15.45 7.3 14.15 Q7.85 14.2 7.85 13.3 L7.9 10.3 7.8 6.3 7.6 2.25 7.55 -0.55 7.75 -0.6 7.9 -0.7 8.2 -0.75 9.4 -0.45 10.5 -0.15 11.65 -0.3 12.7 -0.4" fill="#ffd7a6" fill-rule="evenodd" stroke="none"/>
    <path d="M12.7 -1.35 L12.75 14.05 9.8 14.55 7.75 14.5 7.3 14.1 Q6.85 11.0 7.15 6.45 L7.4 0.85 7.5 -1.55 7.7 -1.55 7.75 -2.55 7.75 -1.55 7.9 -1.6 8.15 -1.65 9.4 -1.4 10.45 -1.1 11.65 -1.25 12.7 -1.35" fill="#743a0b" fill-rule="evenodd" stroke="none"/>
    <path d="M12.0 2.65 L11.95 7.2 12.2 11.6 Q12.35 12.5 12.0 12.95 11.7 13.35 10.95 13.3 9.35 13.15 8.3 13.3 L8.15 11.45 8.15 7.8 8.05 4.25 7.85 0.75 Q7.8 0.35 7.9 0.15 L8.1 0.25 8.7 0.2 10.3 -0.25 10.6 -0.25 11.6 -0.2 11.9 -0.1 12.0 2.65" fill="#d0d0d0" fill-rule="evenodd" stroke="none"/>
  </g>
</svg>
