<?xml version="1.0" encoding="UTF-8" standalone="no"?>
<svg xmlns:ffdec="https://www.free-decompiler.com/flash" xmlns:xlink="http://www.w3.org/1999/xlink" ffdec:objectType="shape" height="17.7px" width="7.35px" xmlns="http://www.w3.org/2000/svg">
  <g transform="matrix(1.0, 0.0, 0.0, 1.0, -7.05, 2.25)">
    <path d="M13.4 -1.8 Q14.85 6.5 14.2 14.9 L10.95 15.45 8.6 15.4 Q8.25 15.3 7.35 14.0 8.0 14.05 8.0 13.05 L8.0 9.8 7.9 5.45 7.6 1.05 7.6 -2.0 7.85 -2.05 8.05 -2.1 8.35 -2.2 9.7 -1.85 10.9 -1.55 12.25 -1.7 13.4 -1.8" fill="#ffd7a6" fill-rule="evenodd" stroke="none"/>
    <path d="M7.55 -2.25 L13.4 -2.25 13.5 13.9 10.2 14.45 7.85 14.4 7.35 14.0 Q6.85 10.65 7.2 5.65 L7.5 -0.4 7.55 -2.25" fill="#743a0b" fill-rule="evenodd" stroke="none"/>
    <path d="M12.2 -1.55 L12.55 -1.5 12.65 1.5 12.6 6.45 Q12.6 8.9 12.9 11.25 13.0 12.2 12.65 12.7 12.3 13.1 11.5 13.05 9.65 12.9 8.45 13.05 L8.35 11.05 8.35 7.1 8.2 3.25 8.0 -0.55 Q7.9 -0.95 8.05 -1.2 8.1 -1.1 8.25 -1.1 L8.95 -1.15 10.7 -1.6 11.05 -1.6 12.2 -1.55" fill="#d0d0d0" fill-rule="evenodd" stroke="none"/>
  </g>
</svg>
