<?xml version="1.0" encoding="UTF-8" standalone="no"?>
<svg xmlns:ffdec="https://www.free-decompiler.com/flash" xmlns:xlink="http://www.w3.org/1999/xlink" ffdec:objectType="shape" height="21.3px" width="8.3px" xmlns="http://www.w3.org/2000/svg">
  <g transform="matrix(1.0, 0.0, 0.0, 1.0, 1.4, 3.2)">
    <path d="M5.85 -1.6 Q5.05 0.25 6.9 17.45 L2.6 18.1 -0.5 18.0 Q-1.0 17.95 -1.3 17.6 L-1.3 15.4 Q-1.0 13.55 -1.15 11.7 L-1.1 6.7 Q-1.0 4.2 -1.3 1.7 L-1.25 -1.75 -0.9 -1.85 -0.65 -1.9 -0.25 -1.95 1.5 -1.6 3.1 -1.25 4.9 -1.4 5.85 -1.6" fill="#ffd7a6" fill-rule="evenodd" stroke="none"/>
    <path d="M5.6 -2.75 L5.95 16.5 2.15 17.15 -0.65 17.1 -1.4 16.65 -1.35 14.4 -1.2 10.65 -1.15 5.6 Q-1.05 3.1 -1.3 0.55 -1.45 -1.25 -1.25 -2.95 L-1.0 -3.05 -0.75 -3.1 -0.35 -3.2 1.25 -2.85 2.65 -2.45 4.25 -2.6 5.6 -2.75" fill="#743a0b" fill-rule="evenodd" stroke="none"/>
    <path d="M4.55 -1.2 Q4.8 0.4 4.7 2.1 L4.55 7.5 Q4.45 10.2 4.7 12.9 4.8 13.75 4.4 14.25 3.85 14.75 2.85 14.8 L0.1 15.05 -0.05 12.8 -0.05 8.4 -0.25 4.05 -0.45 -0.2 -0.4 -0.9 -0.05 -0.75 0.6 -0.9 2.55 -1.35 2.95 -1.35 4.15 -1.3 4.55 -1.2" fill="#d0d0d0" fill-rule="evenodd" stroke="none"/>
  </g>
</svg>
