<?xml version="1.0" encoding="UTF-8" standalone="no"?>
<svg xmlns:ffdec="https://www.free-decompiler.com/flash" xmlns:xlink="http://www.w3.org/1999/xlink" ffdec:objectType="shape" height="20.1px" width="9.45px" xmlns="http://www.w3.org/2000/svg">
  <g transform="matrix(1.0, 0.0, 0.0, 1.0, -7.05, 2.25)">
    <path d="M15.2 -1.75 Q17.05 7.65 16.25 17.2 L12.1 17.8 9.1 17.75 Q8.6 17.7 7.45 16.2 8.3 16.25 8.3 15.1 L8.3 11.45 8.2 6.45 Q8.25 4.0 7.85 1.5 7.6 -0.3 7.75 -2.0 L8.1 -2.05 8.35 -2.1 8.75 -2.2 10.45 -1.85 12.0 -1.5 13.7 -1.6 15.2 -1.75" fill="#ffd7a6" fill-rule="evenodd" stroke="none"/>
    <path d="M7.7 -2.25 L15.25 -2.25 15.35 16.1 11.1 16.7 8.1 16.65 7.45 16.2 Q6.8 12.4 7.25 6.7 L7.65 -0.15 7.7 -2.25" fill="#743a0b" fill-rule="evenodd" stroke="none"/>
    <path d="M13.7 -1.45 L14.15 -1.4 Q14.4 0.3 14.25 2.0 L14.2 7.6 Q14.2 10.4 14.6 13.1 14.7 14.15 14.25 14.7 13.8 15.2 12.8 15.1 10.4 14.95 8.85 15.1 L8.75 12.85 8.75 8.35 8.55 4.0 8.3 -0.3 Q8.15 -0.8 8.35 -1.05 8.4 -0.95 8.6 -0.95 L9.5 -1.0 11.75 -1.5 12.2 -1.5 13.7 -1.45" fill="#d0d0d0" fill-rule="evenodd" stroke="none"/>
  </g>
</svg>
