<?xml version="1.0" encoding="UTF-8" standalone="no"?>
<svg xmlns:ffdec="https://www.free-decompiler.com/flash" xmlns:xlink="http://www.w3.org/1999/xlink" ffdec:objectType="shape" height="19.55px" width="8.25px" xmlns="http://www.w3.org/2000/svg">
  <g transform="matrix(1.0, 0.0, 0.0, 1.0, -7.9, 1.8)">
    <path d="M15.05 -1.05 Q16.65 8.0 15.95 17.1 L12.35 17.75 9.7 17.65 Q9.25 17.6 8.2 16.15 8.95 16.25 8.95 15.15 L9.0 11.6 8.9 6.85 8.55 2.05 Q8.35 0.35 8.55 -1.25 L8.8 -1.35 9.0 -1.4 9.35 -1.5 10.9 -1.15 12.3 -0.8 13.8 -0.95 15.05 -1.05" fill="#ffd7a6" fill-rule="evenodd" stroke="none"/>
    <path d="M8.45 -1.8 L15.1 -1.8 15.2 16.1 11.45 16.65 8.8 16.6 8.2 16.15 Q7.65 12.5 8.1 7.1 L8.35 0.5 8.45 -1.8" fill="#743a0b" fill-rule="evenodd" stroke="none"/>
    <path d="M14.2 2.55 L14.1 7.95 Q14.1 10.65 14.45 13.2 14.6 14.25 14.2 14.85 L12.85 15.2 Q10.85 15.05 9.5 15.2 9.35 14.15 9.35 13.0 L9.35 8.7 9.2 4.45 8.95 0.3 Q8.85 -0.15 9.05 -0.45 L9.25 -0.3 10.05 -0.35 Q11.0 -0.85 12.0 -0.85 L12.4 -0.85 13.65 -0.8 14.05 -0.7 Q14.3 0.9 14.2 2.55" fill="#d0d0d0" fill-rule="evenodd" stroke="none"/>
  </g>
</svg>
