<?xml version="1.0" encoding="UTF-8" standalone="no"?>
<svg xmlns:ffdec="https://www.free-decompiler.com/flash" xmlns:xlink="http://www.w3.org/1999/xlink" ffdec:objectType="shape" height="20.05px" width="20.65px" xmlns="http://www.w3.org/2000/svg">
  <g transform="matrix(1.0, 0.0, 0.0, 1.0, -2.35, -3.2)">
    <path d="M23.0 12.1 Q23.05 14.95 21.25 15.5 L17.45 15.65 Q17.8 16.65 17.5 17.85 L17.5 17.9 Q17.05 19.5 15.6 20.5 L13.1 22.25 13.1 22.3 13.0 22.35 12.95 22.4 Q11.55 23.4 10.1 23.25 L10.05 23.25 9.95 23.25 Q8.1 23.1 7.1 21.7 L6.95 21.55 7.05 21.6 6.95 21.5 Q6.5 20.9 6.35 20.25 L5.85 20.7 5.65 20.8 4.15 21.1 4.05 21.1 Q3.2 20.9 2.75 20.15 L2.7 20.1 Q2.2 19.3 2.4 18.55 L2.45 18.3 Q8.15 14.3 12.05 11.35 L11.95 8.3 Q11.8 3.6 14.4 3.45 L15.25 3.25 15.7 3.25 Q22.25 4.3 23.0 12.1 M9.75 19.3 L9.75 19.5 9.9 19.7 9.95 19.8 10.15 19.85 10.25 19.85 10.95 19.6 10.9 19.7 11.0 19.6 13.65 17.7 13.7 17.65 14.25 16.95 14.2 16.95 14.15 16.65 14.1 16.55 14.0 16.45 13.75 16.35 Q13.25 16.4 12.85 16.65 L10.25 18.55 9.75 19.15 9.75 19.3" fill="#743a0b" fill-rule="evenodd" stroke="none"/>
    <path d="M13.2 14.0 Q13.95 13.55 13.55 13.4 13.95 13.0 13.25 12.8 12.75 12.6 13.0 12.5 L12.95 7.6 Q12.7 4.65 14.25 4.15 14.8 4.0 15.45 4.15 21.35 5.25 22.1 11.4 22.55 15.5 19.05 14.85 L13.2 14.0" fill="#ffcc00" fill-rule="evenodd" stroke="none"/>
    <path d="M13.9 7.0 Q13.8 7.55 14.05 8.1 L14.6 9.8 14.8 10.35 Q15.4 11.05 15.65 11.85 L15.65 11.9 Q14.75 11.25 14.15 10.1 L13.6 9.0 Q13.25 8.1 13.3 7.15 13.35 6.3 13.65 5.55 L13.9 5.3 Q14.1 6.05 13.9 7.0" fill="#ffeb9c" fill-rule="evenodd" stroke="none"/>
    <path d="M13.85 7.25 L13.95 7.6 14.05 8.15 14.3 8.55 14.55 9.0 14.6 9.15 14.55 9.2 14.5 9.3 14.35 9.35 13.8 8.85 13.5 8.25 13.45 7.75 13.55 7.25 13.55 7.2 13.6 7.15 13.7 7.15 13.8 7.15 13.85 7.25" fill="#ffe272" fill-rule="evenodd" stroke="none"/>
    <path d="M14.65 7.8 Q14.3 6.3 15.05 5.7 15.65 5.0 16.95 5.55 18.3 6.15 19.4 7.7 20.55 9.3 20.95 10.75 21.3 12.4 20.6 13.15 19.9 13.75 18.55 13.15 17.35 12.6 16.15 11.05 15.0 9.5 14.65 7.8" fill="#d96b00" fill-rule="evenodd" stroke="none"/>
    <path d="M7.9 21.2 L7.7 20.95 Q6.95 19.95 7.4 18.6 7.6 17.45 8.8 16.6 L11.45 14.7 11.5 14.7 Q12.6 13.9 13.85 13.9 L13.9 13.9 Q15.2 14.05 15.95 15.05 L15.9 15.0 16.05 15.25 16.15 15.35 Q16.85 16.35 16.55 17.65 16.15 18.9 15.05 19.75 L12.4 21.6 12.4 21.65 Q11.25 22.4 10.05 22.3 L10.0 22.3 Q8.6 22.25 7.9 21.2 M8.9 20.1 L8.95 20.1 9.15 20.35 Q9.45 20.85 10.1 20.85 L10.15 20.85 Q10.85 20.9 11.55 20.4 L11.6 20.4 14.2 18.5 15.15 17.25 Q15.3 16.65 14.95 16.15 L15.05 16.25 14.85 16.0 14.75 15.9 Q14.4 15.45 13.8 15.4 13.0 15.45 12.3 15.9 L9.65 17.8 Q9.0 18.3 8.8 19.0 L8.8 19.05 Q8.6 19.65 8.9 20.1" fill="#ffcc00" fill-rule="evenodd" stroke="none"/>
    <path d="M14.7 10.65 L14.8 12.25 16.05 12.8 Q10.35 15.5 5.2 19.95 L4.25 20.15 3.55 19.6 Q3.3 19.25 3.35 18.85 L14.7 10.65" fill="#ffcc00" fill-rule="evenodd" stroke="none"/>
    <path d="M16.6 14.3 L13.75 14.15 Q9.4 16.5 5.35 20.0 L4.4 20.2 Q3.9 20.1 3.7 19.65 L3.55 19.4 3.65 19.4 Q4.05 19.45 3.55 19.1 L4.75 19.7 14.05 12.9 Q15.35 13.85 16.6 14.3" fill="#e09402" fill-rule="evenodd" stroke="none"/>
    <path d="M3.75 19.25 Q3.5 19.4 3.35 19.15 3.1 18.7 3.45 18.3 3.65 18.05 4.0 18.05 4.55 18.15 4.25 18.75 L3.75 19.25" fill="#ffe272" fill-rule="evenodd" stroke="none"/>
    <path d="M20.6 13.15 L19.9 13.45 Q20.4 12.6 20.2 11.2 19.95 9.65 18.8 8.15 17.75 6.7 16.4 6.15 L14.6 6.3 15.0 5.65 Q15.7 5.0 16.95 5.5 18.25 6.15 19.4 7.65 20.55 9.3 20.9 10.8 21.3 12.4 20.6 13.15" fill="#e98d33" fill-rule="evenodd" stroke="none"/>
    <path d="M17.7 9.4 Q18.35 10.5 18.4 11.6 L18.2 12.95 Q17.1 12.35 16.1 11.05 15.15 9.7 14.75 8.3 L16.0 8.2 Q17.0 8.45 17.7 9.4" fill="#c25f00" fill-rule="evenodd" stroke="none"/>
    <path d="M8.8 19.0 L8.8 19.05 Q8.6 19.65 8.9 20.1 L8.95 20.1 9.1 20.25 8.7 19.95 8.5 19.7 8.45 19.65 Q8.15 19.2 8.35 18.6 L8.35 18.55 Q8.55 17.9 9.25 17.35 L11.85 15.5 Q12.55 15.0 13.35 14.95 L14.3 15.5 14.4 15.6 14.45 15.65 Q14.15 15.45 13.8 15.4 13.0 15.45 12.3 15.9 L9.65 17.8 Q9.0 18.3 8.8 19.0 M9.6 21.9 Q10.8 22.0 11.95 21.2 L11.95 21.15 14.6 19.3 Q15.75 18.45 16.1 17.2 16.4 15.9 15.75 14.9 L15.65 14.8 15.45 14.55 15.5 14.6 15.4 14.5 15.95 15.05 15.9 15.0 16.05 15.25 16.15 15.35 Q16.85 16.35 16.55 17.65 16.15 18.9 15.05 19.75 L12.4 21.6 12.4 21.65 Q11.25 22.4 10.05 22.3 L10.0 22.3 Q8.75 22.25 8.0 21.35 8.65 21.85 9.6 21.9" fill="#e09402" fill-rule="evenodd" stroke="none"/>
  </g>
</svg>
