<?xml version="1.0" encoding="UTF-8" standalone="no"?>
<svg xmlns:ffdec="https://www.free-decompiler.com/flash" xmlns:xlink="http://www.w3.org/1999/xlink" ffdec:objectType="shape" height="17.25px" width="17.3px" xmlns="http://www.w3.org/2000/svg">
  <g transform="matrix(1.0, 0.0, 0.0, 1.0, -1.25, 0.0)">
    <path d="M18.4 7.35 L18.4 7.45 18.35 7.4 18.4 7.35 M18.35 8.3 L18.45 7.85 18.55 8.65 Q18.35 12.0 16.25 14.35 L15.95 14.65 Q13.35 17.25 9.85 17.25 6.35 17.25 3.85 14.65 L3.5 14.35 Q1.25 11.9 1.25 8.6 1.25 5.1 3.85 2.5 6.35 0.0 9.85 0.0 L10.2 0.05 Q9.7 0.2 9.55 0.75 L9.3 1.55 9.25 1.75 Q6.8 1.9 5.0 3.75 2.95 5.75 2.95 8.6 2.95 11.5 5.0 13.5 L5.95 14.35 Q7.7 15.55 9.85 15.55 12.05 15.55 13.75 14.35 L14.7 13.5 Q16.25 12.0 16.7 10.05 L16.9 9.9 Q17.35 9.95 17.75 9.65 18.35 9.2 18.3 8.45 L18.35 8.3" fill="#bf3611" fill-rule="evenodd" stroke="none"/>
    <path d="M4.2 4.0 L5.55 2.55 15.15 13.8 15.0 13.9 13.6 14.9 13.55 14.95 4.2 4.0" fill="#bf3611" fill-rule="evenodd" stroke="none"/>
  </g>
</svg>
