<?xml version="1.0" encoding="UTF-8" standalone="no"?>
<svg xmlns:ffdec="https://www.free-decompiler.com/flash" xmlns:xlink="http://www.w3.org/1999/xlink" ffdec:objectType="shape" height="21.65px" width="22.25px" xmlns="http://www.w3.org/2000/svg">
  <g transform="matrix(1.0, 0.0, 0.0, 1.0, -1.9, -2.45)">
    <path d="M24.15 12.05 Q24.2 15.15 22.3 15.7 L18.2 15.85 Q18.55 16.95 18.25 18.25 L18.25 18.3 Q17.75 20.0 16.2 21.05 L13.5 22.95 13.5 23.0 13.4 23.05 13.35 23.15 Q11.85 24.25 10.25 24.05 L10.2 24.05 10.1 24.05 Q8.1 23.9 7.05 22.4 L6.9 22.25 7.0 22.3 6.9 22.2 Q6.4 21.55 6.25 20.8 L5.65 21.3 5.45 21.45 3.9 21.75 3.75 21.75 Q2.85 21.55 2.35 20.7 L2.3 20.65 Q1.75 19.8 2.0 18.95 L2.05 18.7 12.35 11.25 12.25 7.95 Q12.1 2.9 14.9 2.7 L15.85 2.5 16.3 2.5 Q23.35 3.65 24.15 12.0 L24.15 12.05 M9.9 19.8 L9.9 20.0 10.05 20.25 10.1 20.35 10.3 20.4 10.4 20.4 11.2 20.15 11.15 20.25 11.25 20.15 14.1 18.05 14.15 18.0 14.7 17.3 14.65 17.3 14.6 16.95 14.55 16.85 14.45 16.75 14.2 16.6 Q13.65 16.65 13.25 16.95 L10.45 18.95 9.9 19.65 9.9 19.8" fill="#743a0b" fill-rule="evenodd" stroke="none"/>
    <path d="M16.1 3.5 Q22.4 4.65 23.2 11.3 23.65 15.65 19.95 15.0 14.45 13.85 13.65 14.05 14.45 13.6 14.0 13.45 14.45 13.0 13.7 12.8 13.15 12.6 13.4 12.45 L13.35 7.2 Q13.1 4.0 14.7 3.6 L16.1 3.5" fill="#ffcc00" fill-rule="evenodd" stroke="none"/>
    <path d="M14.4 6.6 Q14.25 7.2 14.55 7.75 L15.1 9.6 15.35 10.2 Q16.0 10.95 16.3 11.85 L16.3 11.9 Q15.3 11.15 14.65 9.95 L14.05 8.75 Q13.65 7.75 13.7 6.75 13.75 5.85 14.1 5.0 L14.4 4.75 Q14.6 5.6 14.4 6.6" fill="#ffeb9c" fill-rule="evenodd" stroke="none"/>
    <path d="M14.35 6.85 L14.45 7.25 14.55 7.8 14.8 8.25 15.05 8.75 15.1 8.9 15.1 8.95 15.05 9.0 15.05 9.1 14.9 9.15 14.25 8.6 13.95 7.9 13.9 7.4 14.0 6.85 14.0 6.8 14.05 6.75 14.15 6.75 14.25 6.75 14.35 6.85" fill="#ffe272" fill-rule="evenodd" stroke="none"/>
    <path d="M15.2 7.5 Q14.85 5.85 15.65 5.15 16.35 4.4 17.7 5.0 19.15 5.7 20.35 7.3 21.6 9.0 22.0 10.65 22.4 12.4 21.65 13.25 L19.45 13.2 Q18.1 12.65 16.85 10.95 15.55 9.3 15.2 7.5" fill="#d96b00" fill-rule="evenodd" stroke="none"/>
    <path d="M8.9 19.55 Q8.65 20.2 9.0 20.65 L9.05 20.7 9.25 20.95 Q9.55 21.5 10.3 21.5 L10.35 21.5 Q11.1 21.55 11.85 21.0 L11.9 21.0 14.7 18.95 Q15.45 18.45 15.7 17.6 15.9 16.95 15.5 16.45 L15.6 16.55 15.4 16.3 15.3 16.2 Q14.95 15.65 14.25 15.6 13.4 15.65 12.65 16.2 L9.85 18.2 Q9.1 18.75 8.9 19.5 L8.9 19.55 M7.95 21.85 L7.7 21.6 Q6.9 20.5 7.35 19.05 7.6 17.8 8.9 16.9 L11.7 14.85 11.75 14.85 Q13.0 14.0 14.3 14.0 L14.4 14.0 Q15.75 14.2 16.55 15.25 L16.5 15.2 16.7 15.45 16.85 15.55 Q17.55 16.65 17.25 18.0 16.85 19.4 15.6 20.3 L12.75 22.3 12.75 22.35 Q11.5 23.2 10.25 23.05 L10.2 23.05 Q8.65 22.95 7.95 21.85" fill="#ffcc00" fill-rule="evenodd" stroke="none"/>
    <path d="M15.25 10.5 L15.35 12.25 16.65 12.8 Q10.55 15.7 5.0 20.5 L4.0 20.7 3.2 20.15 Q2.95 19.75 3.0 19.35 L15.25 10.5" fill="#ffcc00" fill-rule="evenodd" stroke="none"/>
    <path d="M17.25 14.45 L14.2 14.25 Q9.5 16.8 5.15 20.55 L4.15 20.75 Q3.6 20.65 3.35 20.2 L3.2 19.9 3.3 19.9 Q3.75 19.95 3.2 19.6 L4.5 20.25 14.5 12.9 17.25 14.45" fill="#e09402" fill-rule="evenodd" stroke="none"/>
    <path d="M3.5 19.8 Q3.2 19.95 3.05 19.7 2.8 19.2 3.15 18.75 3.4 18.5 3.75 18.5 4.35 18.65 4.0 19.25 L3.5 19.8" fill="#ffe272" fill-rule="evenodd" stroke="none"/>
    <path d="M21.6 13.2 L20.85 13.5 Q21.4 12.6 21.15 11.05 20.9 9.45 19.65 7.8 18.5 6.25 17.1 5.65 L15.15 5.8 15.55 5.1 17.65 4.95 Q19.1 5.65 20.3 7.3 21.55 9.0 21.95 10.65 22.35 12.4 21.6 13.2" fill="#e98d33" fill-rule="evenodd" stroke="none"/>
    <path d="M18.45 9.2 Q19.2 10.35 19.25 11.55 L19.0 12.95 Q17.85 12.35 16.75 10.9 15.7 9.5 15.3 7.95 L16.6 7.85 Q17.7 8.1 18.45 9.2" fill="#c25f00" fill-rule="evenodd" stroke="none"/>
    <path d="M8.9 19.5 L8.9 19.55 Q8.65 20.2 9.0 20.65 L9.05 20.7 9.2 20.85 8.75 20.5 8.55 20.25 8.5 20.2 Q8.2 19.7 8.4 19.05 L8.4 19.0 Q8.6 18.3 9.35 17.7 L12.2 15.7 Q12.95 15.2 13.75 15.1 14.45 15.2 14.85 15.7 L14.95 15.8 15.0 15.85 14.25 15.6 Q13.4 15.65 12.65 16.2 L9.85 18.2 Q9.1 18.75 8.9 19.5 M9.7 22.6 L9.75 22.6 Q11.05 22.7 12.3 21.85 L12.3 21.8 15.15 19.8 Q16.35 18.9 16.75 17.55 17.1 16.2 16.35 15.05 L16.25 14.95 16.05 14.7 16.1 14.75 16.0 14.65 16.55 15.25 16.5 15.2 16.7 15.45 16.85 15.55 Q17.55 16.65 17.25 18.0 16.85 19.4 15.6 20.3 L12.75 22.3 12.75 22.35 Q11.5 23.2 10.25 23.05 L10.2 23.05 Q8.85 22.95 8.05 22.0 8.7 22.55 9.7 22.6" fill="#e09402" fill-rule="evenodd" stroke="none"/>
  </g>
</svg>
