<?xml version="1.0" encoding="UTF-8" standalone="no"?>
<svg xmlns:ffdec="https://www.free-decompiler.com/flash" xmlns:xlink="http://www.w3.org/1999/xlink" ffdec:objectType="shape" height="20.55px" width="21.1px" xmlns="http://www.w3.org/2000/svg">
  <g transform="matrix(1.0, 0.0, 0.0, 1.0, -1.5, -3.2)">
    <path d="M22.6 12.35 Q22.65 15.25 20.85 15.8 L16.95 15.95 Q17.3 17.0 17.0 18.2 L17.0 18.25 Q16.55 19.9 15.05 20.9 L12.5 22.7 12.5 22.75 12.4 22.8 12.35 22.85 Q10.9 23.9 9.4 23.75 L9.35 23.75 9.25 23.75 Q7.35 23.6 6.35 22.15 L6.2 22.0 6.3 22.05 6.2 21.95 Q5.75 21.35 5.6 20.65 L5.05 21.1 4.85 21.25 3.35 21.55 3.25 21.55 Q2.35 21.35 1.9 20.55 L1.85 20.5 Q1.35 19.7 1.55 18.9 L1.6 18.65 Q7.45 14.6 11.4 11.55 L11.3 8.45 Q11.15 3.65 13.8 3.45 L14.7 3.25 15.15 3.25 Q21.85 4.35 22.6 12.3 L22.6 12.35 M9.05 19.7 L9.05 19.9 9.2 20.1 9.25 20.2 9.45 20.25 9.55 20.25 10.3 20.0 10.25 20.1 10.35 20.0 13.05 18.05 13.1 18.0 13.65 17.3 13.6 17.3 13.55 17.0 13.5 16.9 13.4 16.8 13.15 16.65 Q12.65 16.7 12.25 17.0 L9.6 18.9 9.05 19.55 9.05 19.7" fill="#743a0b" fill-rule="evenodd" stroke="none"/>
    <path d="M21.7 11.6 Q22.15 15.75 18.6 15.15 13.4 14.05 12.65 14.25 13.4 13.8 12.95 13.65 13.4 13.25 12.7 13.05 12.15 12.85 12.4 12.7 L12.35 7.7 Q12.1 4.7 13.95 4.45 L14.95 4.2 Q20.95 5.3 21.7 11.6" fill="#ffcc00" fill-rule="evenodd" stroke="none"/>
    <path d="M13.35 7.15 Q13.2 7.7 13.45 8.25 13.9 9.05 14.0 10.0 L14.25 10.55 Q14.85 11.25 15.1 12.1 L15.1 12.15 Q14.2 11.45 13.55 10.3 L13.0 9.15 Q12.65 8.25 12.7 7.25 L13.05 5.6 Q13.15 5.4 13.35 5.4 L13.35 7.15" fill="#ffeb9c" fill-rule="evenodd" stroke="none"/>
    <path d="M13.3 7.35 L13.35 7.75 13.45 8.3 13.7 8.7 13.95 9.15 14.0 9.3 14.0 9.35 13.95 9.4 13.95 9.5 13.8 9.5 13.2 9.0 12.9 8.35 12.85 7.85 12.95 7.35 12.95 7.3 13.0 7.25 13.1 7.25 13.2 7.25 13.3 7.35" fill="#ffe272" fill-rule="evenodd" stroke="none"/>
    <path d="M14.05 7.95 Q13.75 6.35 14.45 5.7 15.15 5.0 16.45 5.55 17.8 6.2 18.95 7.75 20.15 9.4 20.5 10.95 20.9 12.6 20.2 13.35 19.45 13.95 18.1 13.35 16.8 12.8 15.6 11.2 14.45 9.65 14.05 7.95" fill="#d96b00" fill-rule="evenodd" stroke="none"/>
    <path d="M8.1 19.4 Q7.9 20.0 8.2 20.45 L8.25 20.5 8.45 20.75 Q8.75 21.25 9.45 21.25 L9.5 21.25 Q10.2 21.3 10.9 20.8 L10.95 20.8 13.65 18.85 14.6 17.55 Q14.75 16.95 14.4 16.45 L14.5 16.55 14.3 16.3 14.2 16.2 Q13.85 15.7 13.2 15.65 12.4 15.7 11.7 16.2 L9.0 18.1 Q8.3 18.65 8.1 19.35 L8.1 19.4 M7.2 21.6 L7.0 21.35 Q6.2 20.3 6.65 18.95 6.9 17.75 8.1 16.9 L10.8 14.95 10.85 14.95 Q12.0 14.15 13.25 14.15 L13.35 14.15 Q14.65 14.3 15.4 15.3 L15.35 15.25 15.55 15.5 15.65 15.6 Q16.35 16.65 16.05 17.95 15.65 19.25 14.5 20.1 L11.8 22.0 11.8 22.05 Q10.6 22.85 9.4 22.75 L9.35 22.75 Q7.9 22.65 7.2 21.6" fill="#ffcc00" fill-rule="evenodd" stroke="none"/>
    <path d="M14.15 10.85 L14.25 12.5 15.5 13.05 Q9.7 15.8 4.4 20.35 L3.45 20.55 Q2.95 20.45 2.7 20.0 2.45 19.65 2.5 19.25 L14.15 10.85" fill="#ffcc00" fill-rule="evenodd" stroke="none"/>
    <path d="M16.05 14.6 L13.15 14.4 Q8.7 16.85 4.55 20.4 L3.6 20.6 2.85 20.05 2.7 19.8 2.8 19.8 Q3.25 19.85 2.7 19.5 L3.95 20.1 13.45 13.15 Q14.8 14.1 16.05 14.6" fill="#e09402" fill-rule="evenodd" stroke="none"/>
    <path d="M3.45 19.1 L2.95 19.65 2.55 19.55 Q2.3 19.05 2.65 18.65 2.85 18.4 3.2 18.4 3.75 18.5 3.45 19.1" fill="#ffe272" fill-rule="evenodd" stroke="none"/>
    <path d="M20.2 13.35 L19.45 13.65 Q20.0 12.8 19.75 11.35 19.5 9.8 18.35 8.25 17.25 6.75 15.9 6.2 L14.05 6.35 Q14.2 5.95 14.45 5.7 15.15 5.0 16.45 5.55 17.8 6.2 18.95 7.75 20.15 9.4 20.5 10.95 20.9 12.6 20.2 13.35" fill="#e98d33" fill-rule="evenodd" stroke="none"/>
    <path d="M15.45 8.3 Q16.5 8.55 17.2 9.55 17.9 10.65 17.95 11.8 L17.7 13.15 Q16.6 12.55 15.6 11.2 14.6 9.85 14.2 8.4 L15.45 8.3" fill="#c25f00" fill-rule="evenodd" stroke="none"/>
    <path d="M8.1 19.35 L8.1 19.4 Q7.9 20.0 8.2 20.45 L8.25 20.5 8.4 20.65 8.0 20.3 7.8 20.05 7.75 20.0 Q7.45 19.55 7.65 18.95 L7.65 18.9 Q7.85 18.2 8.55 17.65 L11.25 15.75 Q11.95 15.25 12.75 15.2 13.4 15.25 13.75 15.75 L13.85 15.85 13.9 15.9 Q13.6 15.7 13.2 15.65 12.4 15.7 11.7 16.2 L9.0 18.1 Q8.3 18.65 8.1 19.35 M8.9 22.3 L8.95 22.3 Q10.15 22.4 11.35 21.6 L11.35 21.55 14.05 19.65 Q15.2 18.8 15.6 17.5 15.9 16.2 15.2 15.15 L15.1 15.05 14.9 14.8 14.95 14.85 14.85 14.75 15.4 15.3 15.35 15.25 15.55 15.5 15.65 15.6 Q16.35 16.65 16.05 17.95 15.65 19.25 14.5 20.1 L11.8 22.0 11.8 22.05 Q10.6 22.85 9.4 22.75 L9.35 22.75 Q8.05 22.65 7.3 21.75 L8.9 22.3" fill="#e09402" fill-rule="evenodd" stroke="none"/>
    <path d="M22.35 11.25 Q22.45 11.6 21.35 12.1 L19.5 12.5 18.7 12.3 18.65 12.2 18.65 12.15 18.65 12.0 18.65 11.9 18.65 11.85 18.65 11.7 18.75 11.45 Q19.0 11.15 19.3 11.05 L19.4 11.05 20.4 11.0 21.35 10.95 22.35 11.25" fill="#fff7f0" fill-rule="evenodd" stroke="none"/>
    <path d="M18.8 9.45 L17.4 9.55 Q17.0 9.0 17.85 8.15 18.7 7.25 21.2 6.2 23.5 5.05 21.7 7.0 L18.8 9.45" fill="#fff7f0" fill-rule="evenodd" stroke="none"/>
    <path d="M15.6 5.1 L16.15 4.55 Q16.25 4.4 17.4 3.8 17.65 3.8 17.2 4.9 L16.25 6.55 15.55 7.0 15.4 7.0 15.25 6.9 15.2 6.8 15.15 6.8 15.05 6.7 14.9 6.45 14.9 5.8 14.95 5.7 15.6 5.1" fill="#fff7f0" fill-rule="evenodd" stroke="none"/>
  </g>
</svg>
