<?xml version="1.0" encoding="UTF-8" standalone="no"?>
<svg xmlns:ffdec="https://www.free-decompiler.com/flash" xmlns:xlink="http://www.w3.org/1999/xlink" ffdec:objectType="shape" height="10.25px" width="9.85px" xmlns="http://www.w3.org/2000/svg">
  <g transform="matrix(1.0, 0.0, 0.0, 1.0, -13.15, 0.15)">
    <path d="M22.3 8.85 Q22.5 9.2 20.8 9.7 L18.1 10.1 16.9 9.9 16.85 9.8 16.8 9.75 16.8 9.6 16.8 9.5 16.8 9.45 16.85 9.3 17.0 9.05 Q17.35 8.75 17.8 8.65 L17.95 8.65 19.4 8.6 20.8 8.55 22.3 8.85" fill="#fff7f0" fill-rule="evenodd" stroke="none"/>
    <path d="M17.45 6.65 Q16.1 7.6 15.55 7.1 15.15 6.6 16.45 5.4 17.75 4.15 21.2 2.4 24.5 0.55 21.7 3.2 L17.45 6.65" fill="#fff7f0" fill-rule="evenodd" stroke="none"/>
    <path d="M14.3 2.0 L15.1 1.15 16.8 -0.15 Q17.1 -0.2 16.3 1.35 L14.7 3.8 13.75 4.55 13.6 4.55 13.55 4.6 13.4 4.5 13.35 4.4 13.3 4.4 13.25 4.25 13.15 3.95 13.3 3.1 13.4 3.0 14.3 2.0" fill="#fff7f0" fill-rule="evenodd" stroke="none"/>
  </g>
</svg>
