<?xml version="1.0" encoding="UTF-8" standalone="no"?>
<svg xmlns:ffdec="https://www.free-decompiler.com/flash" xmlns:xlink="http://www.w3.org/1999/xlink" ffdec:objectType="shape" height="21.1px" width="22.0px" xmlns="http://www.w3.org/2000/svg">
  <g transform="matrix(1.0, 0.0, 0.0, 1.0, 0.55, -0.8)">
    <path d="M21.45 10.8 Q21.5 13.85 19.6 14.25 17.7 14.7 15.55 14.2 15.9 15.3 15.6 16.5 L15.6 16.6 Q15.15 18.3 13.55 19.25 L10.9 20.95 10.9 21.0 10.8 21.05 10.75 21.05 Q9.25 22.1 7.65 21.85 L7.6 21.85 7.5 21.85 Q5.55 21.55 4.5 20.0 L4.35 19.85 4.45 19.9 4.35 19.8 Q3.85 19.1 3.7 18.4 L3.15 18.8 2.95 18.95 1.35 19.15 1.25 19.15 Q0.3 18.9 -0.15 18.0 L-0.2 17.95 Q-0.7 17.1 -0.5 16.3 L-0.45 16.05 9.75 9.25 9.65 6.0 Q9.5 1.0 12.25 0.95 L13.2 0.85 13.65 0.85 Q20.65 2.45 21.45 10.75 L21.45 10.8 M7.3 17.6 L7.3 17.8 7.45 18.0 7.5 18.15 7.7 18.2 7.85 18.2 8.6 18.0 8.55 18.1 8.65 18.0 11.5 16.1 11.55 16.05 12.1 15.4 12.05 15.4 12.0 15.05 11.95 14.95 11.85 14.85 11.6 14.7 Q11.05 14.7 10.65 14.95 L7.9 16.8 Q7.45 17.05 7.3 17.45 L7.3 17.6" fill="#743a0b" fill-rule="evenodd" stroke="none"/>
    <path d="M20.5 10.0 Q20.95 14.3 17.25 13.5 11.85 12.0 11.05 12.15 11.85 11.75 11.35 11.55 11.85 11.15 11.1 10.9 L10.8 10.55 10.75 5.3 Q10.5 2.15 12.4 2.05 L13.45 1.85 Q19.7 3.35 20.5 10.0" fill="#ffcc00" fill-rule="evenodd" stroke="none"/>
    <path d="M11.75 4.8 Q11.6 5.3 11.9 5.95 L12.5 7.75 12.7 8.4 Q13.35 9.15 13.65 10.05 L13.65 10.1 Q12.65 9.35 12.0 8.1 L11.4 6.85 Q11.05 5.9 11.1 4.9 11.15 3.95 11.45 3.15 11.55 2.9 11.75 2.95 11.95 3.8 11.75 4.8" fill="#ffeb9c" fill-rule="evenodd" stroke="none"/>
    <path d="M11.7 5.0 L11.8 5.4 11.9 6.0 12.15 6.4 12.45 6.9 12.5 7.05 12.5 7.1 12.45 7.15 12.4 7.25 12.25 7.3 11.6 6.7 11.35 6.05 11.3 5.5 11.4 5.0 11.4 4.95 11.4 4.9 11.5 4.9 11.6 4.9 11.7 5.0" fill="#ffe272" fill-rule="evenodd" stroke="none"/>
    <path d="M12.55 5.7 Q12.2 4.05 12.95 3.4 L15.05 3.35 Q16.45 4.1 17.7 5.8 18.85 7.55 19.3 9.25 19.65 11.0 18.95 11.75 L16.8 11.6 Q15.4 10.95 14.15 9.2 12.9 7.45 12.55 5.7" fill="#d96b00" fill-rule="evenodd" stroke="none"/>
    <path d="M6.35 17.25 Q6.15 17.8 6.45 18.35 L6.5 18.4 6.7 18.65 Q7.0 19.25 7.75 19.25 L7.8 19.25 Q8.55 19.35 9.25 18.85 L9.3 18.85 12.1 17.0 Q12.85 16.55 13.1 15.7 13.25 15.1 12.9 14.55 L13.0 14.7 12.8 14.4 12.7 14.3 Q12.35 13.75 11.65 13.65 10.8 13.65 10.1 14.1 L7.3 15.95 Q6.55 16.45 6.35 17.2 L6.35 17.25 M5.4 19.5 L5.2 19.2 Q4.35 18.05 4.85 16.7 5.1 15.45 6.35 14.65 L9.15 12.75 9.2 12.75 Q10.4 12.0 11.7 12.05 L11.8 12.05 Q13.15 12.35 13.95 13.4 L13.9 13.35 14.1 13.65 14.2 13.75 Q14.95 14.9 14.65 16.25 14.2 17.55 13.0 18.4 L10.2 20.15 10.2 20.2 Q8.95 21.0 7.7 20.8 L7.65 20.8 Q6.15 20.6 5.4 19.5" fill="#ffcc00" fill-rule="evenodd" stroke="none"/>
    <path d="M12.6 8.7 L12.75 10.45 14.05 11.1 Q8.0 13.55 2.45 17.95 L1.45 18.1 0.7 17.5 Q0.45 17.15 0.5 16.7 L12.6 8.7" fill="#ffcc00" fill-rule="evenodd" stroke="none"/>
    <path d="M14.6 12.7 L11.6 12.35 Q6.95 14.6 2.6 18.0 L1.6 18.2 Q1.1 18.05 0.85 17.55 L0.7 17.3 0.8 17.3 Q1.25 17.4 0.7 17.0 L2.0 17.7 11.9 11.05 14.6 12.7" fill="#e09402" fill-rule="evenodd" stroke="none"/>
    <path d="M1.5 16.65 Q1.3 17.0 0.95 17.15 0.7 17.3 0.55 17.05 0.3 16.5 0.65 16.15 0.85 15.9 1.2 15.95 1.8 16.05 1.5 16.65" fill="#ffe272" fill-rule="evenodd" stroke="none"/>
    <path d="M18.95 11.7 L18.15 11.95 Q18.75 11.1 18.5 9.6 18.2 7.95 17.05 6.25 15.9 4.6 14.45 4.0 13.25 3.45 12.55 4.0 L12.95 3.35 15.05 3.3 Q16.45 4.1 17.65 5.8 18.9 7.55 19.25 9.25 19.7 10.95 18.95 11.7" fill="#e98d33" fill-rule="evenodd" stroke="none"/>
    <path d="M14.0 6.1 Q15.1 6.45 15.85 7.55 16.55 8.7 16.6 9.9 L16.35 11.35 Q15.2 10.65 14.15 9.15 13.1 7.7 12.7 6.2 L14.0 6.1" fill="#c25f00" fill-rule="evenodd" stroke="none"/>
    <path d="M6.35 17.2 L6.35 17.25 Q6.15 17.8 6.45 18.35 L6.5 18.4 6.65 18.55 6.25 18.2 6.05 17.85 5.95 17.8 Q5.65 17.35 5.85 16.75 L5.85 16.7 Q6.1 15.95 6.8 15.4 L9.6 13.65 Q10.35 13.15 11.2 13.15 11.85 13.25 12.25 13.8 L12.35 13.9 12.4 13.95 11.65 13.65 Q10.8 13.65 10.1 14.1 L7.3 15.95 Q6.55 16.45 6.35 17.2 M7.15 20.3 L7.2 20.3 Q8.5 20.45 9.75 19.75 L9.75 19.7 12.55 17.85 Q13.75 17.05 14.15 15.7 14.45 14.4 13.75 13.25 L13.65 13.15 13.45 12.85 13.5 12.9 13.4 12.8 13.95 13.4 13.9 13.35 14.1 13.65 14.2 13.75 Q14.95 14.9 14.65 16.25 14.2 17.55 13.0 18.4 L10.2 20.15 10.2 20.2 Q8.95 21.0 7.7 20.8 L7.65 20.8 Q6.3 20.65 5.5 19.65 L7.15 20.3" fill="#e09402" fill-rule="evenodd" stroke="none"/>
  </g>
</svg>
