<?xml version="1.0" encoding="UTF-8" standalone="no"?>
<svg xmlns:ffdec="https://www.free-decompiler.com/flash" xmlns:xlink="http://www.w3.org/1999/xlink" ffdec:objectType="shape" height="11.35px" width="7.6px" xmlns="http://www.w3.org/2000/svg">
  <g transform="matrix(1.0, 0.0, 0.0, 1.0, -13.15, 1.25)">
    <path d="M20.75 8.85 Q20.9 9.2 19.65 9.7 L17.75 10.1 16.85 9.9 16.85 9.8 16.8 9.75 16.8 9.6 16.8 9.5 16.8 9.45 16.85 9.3 16.95 9.05 17.5 8.65 17.65 8.65 18.65 8.6 19.65 8.55 20.75 8.85" fill="#fff7f0" fill-rule="evenodd" stroke="none"/>
    <path d="M16.9 7.05 L15.5 7.1 Q15.15 6.6 15.95 5.75 16.75 4.85 19.15 3.85 21.4 2.8 19.65 4.65 L16.9 7.05" fill="#fff7f0" fill-rule="evenodd" stroke="none"/>
    <path d="M14.65 1.55 L15.65 0.45 17.65 -1.25 Q18.0 -1.3 16.9 0.55 L14.9 3.5 13.75 4.5 13.6 4.5 13.55 4.55 13.4 4.45 13.35 4.35 13.3 4.35 13.25 4.2 13.2 3.9 Q13.2 3.35 13.45 2.9 L13.55 2.75 14.65 1.55" fill="#fff7f0" fill-rule="evenodd" stroke="none"/>
  </g>
</svg>
