<?xml version="1.0" encoding="UTF-8" standalone="no"?>
<svg xmlns:ffdec="https://www.free-decompiler.com/flash" xmlns:xlink="http://www.w3.org/1999/xlink" ffdec:objectType="shape" height="10.9px" width="9.9px" xmlns="http://www.w3.org/2000/svg">
  <g transform="matrix(1.0, 0.0, 0.0, 1.0, -13.15, 0.8)">
    <path d="M23.0 8.85 Q23.25 9.2 21.3 9.7 L18.25 10.1 16.9 9.9 16.85 9.8 16.8 9.75 16.8 9.6 16.8 9.5 16.8 9.45 16.85 9.3 17.05 9.05 Q17.4 8.75 17.95 8.65 L18.1 8.65 19.75 8.6 21.3 8.55 23.0 8.85" fill="#fff7f0" fill-rule="evenodd" stroke="none"/>
    <path d="M16.95 7.05 L15.55 7.1 Q15.15 6.6 16.0 5.75 16.85 4.85 19.25 3.8 21.55 2.75 19.75 4.6 L16.95 7.05" fill="#fff7f0" fill-rule="evenodd" stroke="none"/>
    <path d="M14.55 1.7 L15.45 0.7 17.3 -0.8 Q17.65 -0.9 16.7 0.85 L14.85 3.6 13.75 4.5 13.6 4.5 13.6 4.55 13.45 4.45 13.4 4.35 13.35 4.35 13.25 4.2 13.2 3.9 13.4 2.95 13.5 2.85 14.55 1.7" fill="#fff7f0" fill-rule="evenodd" stroke="none"/>
  </g>
</svg>
