<?xml version="1.0" encoding="UTF-8" standalone="no"?>
<svg xmlns:ffdec="https://www.free-decompiler.com/flash" xmlns:xlink="http://www.w3.org/1999/xlink" ffdec:objectType="shape" height="9.25px" width="7.95px" xmlns="http://www.w3.org/2000/svg">
  <g transform="matrix(1.0, 0.0, 0.0, 1.0, -13.1, -0.85)">
    <path d="M21.05 8.85 Q21.2 9.2 19.9 9.7 L17.8 10.1 16.9 9.9 16.85 9.8 16.8 9.75 16.8 9.6 16.8 9.5 16.8 9.45 16.85 9.3 16.95 9.05 17.6 8.65 17.7 8.65 18.8 8.6 19.9 8.55 21.05 8.85" fill="#fff7f0" fill-rule="evenodd" stroke="none"/>
    <path d="M16.95 7.05 L15.55 7.1 Q15.15 6.6 16.0 5.75 16.85 4.85 19.25 3.8 21.55 2.75 19.75 4.6 L16.95 7.05" fill="#fff7f0" fill-rule="evenodd" stroke="none"/>
    <path d="M13.95 2.45 L14.6 1.75 15.95 0.85 Q16.25 0.85 15.7 2.1 L14.55 4.0 13.75 4.55 13.6 4.5 13.6 4.55 13.45 4.45 13.4 4.35 13.35 4.35 13.25 4.2 13.15 3.95 13.15 3.25 13.25 3.15 13.95 2.45" fill="#fff7f0" fill-rule="evenodd" stroke="none"/>
  </g>
</svg>
