<?xml version="1.0" encoding="UTF-8" standalone="no"?>
<svg xmlns:ffdec="https://www.free-decompiler.com/flash" xmlns:xlink="http://www.w3.org/1999/xlink" ffdec:objectType="shape" height="21.45px" width="21.75px" xmlns="http://www.w3.org/2000/svg">
  <g transform="matrix(1.0, 0.0, 0.0, 1.0, -0.3, -0.75)">
    <path d="M22.05 10.4 Q22.25 13.8 19.85 14.35 17.5 14.9 15.1 14.4 15.55 15.6 15.3 16.95 L15.35 17.0 Q14.8 18.85 13.15 19.85 L10.5 21.5 10.5 21.55 Q10.4 21.45 10.4 21.6 L10.35 21.65 Q8.95 22.35 7.65 22.15 L7.35 22.1 7.3 22.1 7.15 22.1 Q5.3 21.55 4.45 20.0 L4.25 19.75 4.4 19.9 4.25 19.7 3.75 18.35 3.3 18.75 3.1 18.9 1.85 19.0 1.75 19.0 Q0.95 18.65 0.65 17.9 L0.6 17.85 Q0.25 17.2 0.3 16.7 0.25 16.4 0.35 16.3 L0.4 16.05 9.0 9.5 8.8 6.35 Q8.45 1.55 11.1 1.15 L12.0 0.85 12.45 0.75 Q20.3 1.1 22.05 10.35 L22.05 10.4 M13.8 12.8 L17.1 13.45 Q21.55 14.4 20.7 9.45 19.2 2.3 12.3 1.75 L11.3 2.15 Q9.4 2.5 9.75 5.5 L9.95 10.0 1.9 16.15 1.65 15.9 Q1.4 15.85 1.2 16.1 0.95 16.4 1.1 16.75 L1.1 16.8 Q1.05 17.0 1.3 17.45 L1.85 17.95 1.9 18.0 2.05 18.1 2.85 18.0 4.7 16.4 Q4.6 16.55 4.65 16.75 4.25 18.05 5.05 19.25 L5.2 19.5 5.25 19.65 5.3 19.7 5.35 19.75 Q5.95 20.65 7.25 21.05 L7.3 21.05 Q8.45 21.3 9.7 20.65 L9.7 20.6 12.5 18.85 Q13.75 18.0 14.2 16.55 14.45 15.05 13.6 13.9 L13.25 13.5 12.8 13.0 12.8 12.95 12.75 12.9 12.5 12.75 13.8 12.8 M6.2 18.55 L6.1 18.45 Q5.75 17.95 5.95 17.35 L5.95 17.3 Q6.1 16.6 6.8 16.15 L9.4 14.3 Q10.05 13.8 10.9 13.8 L11.65 14.15 12.05 14.45 12.15 14.55 12.35 14.9 12.25 14.8 Q12.65 15.25 12.5 15.95 12.25 16.8 11.55 17.35 L8.75 19.1 8.7 19.1 Q8.0 19.55 7.35 19.45 L7.3 19.45 Q6.6 19.35 6.3 18.75 L6.25 18.6 6.2 18.55 M6.85 18.0 L7.05 18.15 7.1 18.25 7.3 18.4 7.4 18.4 8.05 18.2 8.05 18.3 8.1 18.2 10.85 16.35 10.9 16.3 11.45 15.65 11.4 15.65 11.35 15.3 11.25 15.15 11.15 15.05 10.9 14.9 Q10.35 14.85 10.0 15.2 L7.4 17.0 6.85 17.6 6.85 17.8 6.85 18.0" fill="#743a0b" fill-rule="evenodd" stroke="none"/>
    <path d="M1.9 16.15 L9.95 10.0 9.75 5.5 Q9.4 2.5 11.3 2.15 L12.3 1.75 Q19.2 2.3 20.7 9.45 21.55 14.4 17.1 13.45 L13.8 12.8 13.9 12.75 11.05 11.15 2.25 17.55 1.5 17.1 1.9 16.65 1.9 16.15 M12.5 12.75 L12.75 12.9 12.7 12.9 12.75 12.95 13.0 13.3 13.1 13.4 Q13.9 14.5 13.65 16.0 13.2 17.35 12.0 18.25 L9.2 20.05 9.2 20.1 Q7.95 20.75 6.85 20.45 L6.8 20.45 Q5.95 20.3 5.35 19.75 L5.3 19.7 5.25 19.65 5.2 19.5 5.05 19.25 Q4.25 18.05 4.65 16.75 4.6 16.55 4.7 16.4 7.55 14.15 10.8 12.4 L12.5 12.75 M1.85 17.95 L1.3 17.45 Q1.05 17.0 1.1 16.8 L1.15 16.95 1.45 17.15 1.35 17.25 1.25 17.25 1.4 17.5 1.85 17.95 M11.45 7.3 L11.5 7.3 11.5 7.2 11.55 7.15 11.55 7.1 11.5 6.9 11.2 6.5 11.1 6.4 11.05 6.35 10.95 6.1 10.95 6.05 10.9 6.0 10.8 5.5 10.75 5.15 Q10.65 4.95 10.8 4.9 L10.7 3.1 Q10.5 3.1 10.45 3.35 10.1 4.15 10.15 5.0 10.05 6.0 10.5 7.0 L11.1 8.1 11.55 8.85 11.75 8.7 11.75 9.1 Q12.15 9.65 12.85 10.1 L12.85 10.05 Q12.5 9.05 11.85 8.4 L11.55 7.85 11.45 7.3 M11.45 4.05 Q11.25 4.6 11.55 5.7 11.65 6.4 12.1 7.2 L13.35 9.05 Q14.55 10.5 15.85 11.2 L16.35 11.5 18.0 11.85 18.2 11.8 18.9 11.5 Q19.75 10.65 19.15 8.7 18.5 6.9 17.0 5.2 15.55 3.55 14.0 3.0 12.55 2.5 11.85 3.3 L11.45 4.05 M11.65 14.15 L11.6 14.05 11.5 13.9 Q11.1 13.3 10.4 13.3 9.6 13.25 8.95 13.8 L6.4 15.6 Q5.7 16.05 5.55 16.8 L5.55 16.85 Q5.35 17.4 5.7 17.9 L5.95 18.3 6.2 18.55 6.25 18.6 6.3 18.75 Q6.6 19.35 7.3 19.45 L7.35 19.45 Q8.0 19.55 8.7 19.1 L8.75 19.1 11.55 17.35 Q12.25 16.8 12.5 15.95 12.65 15.25 12.25 14.8 L12.35 14.9 12.15 14.55 12.05 14.45 11.65 14.15" fill="#ffcc00" fill-rule="evenodd" stroke="none"/>
    <path d="M11.45 7.3 L11.55 7.85 11.85 8.4 Q12.5 9.05 12.85 10.05 L12.85 10.1 Q12.15 9.65 11.75 9.1 L11.75 8.7 11.55 8.85 11.1 8.1 10.5 7.0 Q10.05 6.0 10.15 5.0 10.1 4.15 10.45 3.35 10.5 3.1 10.7 3.1 L10.8 4.9 Q10.65 4.95 10.75 5.15 L10.65 5.05 10.55 5.0 10.45 5.0 10.4 5.05 10.4 5.1 Q10.2 5.35 10.3 5.65 L10.35 6.1 10.7 6.85 11.35 7.3 11.45 7.3 M10.9 6.0 L10.95 6.05 10.95 6.1 10.9 6.0" fill="#ffeb9c" fill-rule="evenodd" stroke="none"/>
    <path d="M1.1 16.8 L1.1 16.75 Q0.95 16.4 1.2 16.1 1.4 15.85 1.65 15.9 L1.9 16.15 1.9 16.65 1.5 17.1 1.5 17.15 1.45 17.15 1.15 16.95 1.1 16.8 M10.95 6.1 L11.05 6.35 11.1 6.4 11.2 6.5 11.5 6.9 11.55 7.1 11.55 7.15 11.5 7.2 11.5 7.3 11.45 7.3 11.35 7.3 10.7 6.85 10.35 6.1 10.3 5.65 Q10.2 5.35 10.4 5.1 L10.4 5.05 10.45 5.0 10.55 5.0 10.65 5.05 10.75 5.15 10.8 5.5 10.9 6.0 10.95 6.1" fill="#ffe272" fill-rule="evenodd" stroke="none"/>
    <path d="M12.1 7.2 Q11.65 6.4 11.55 5.7 11.25 4.6 11.45 4.05 12.15 3.4 13.45 3.7 14.95 4.15 16.35 5.75 17.8 7.4 18.2 9.2 18.55 10.8 18.0 11.85 L16.35 11.5 15.85 11.2 16.05 9.7 Q15.95 8.4 15.05 7.25 14.2 6.1 13.05 5.95 12.2 5.8 11.7 6.15 L12.1 7.2" fill="#d96b00" fill-rule="evenodd" stroke="none"/>
    <path d="M13.8 12.8 L12.5 12.75 10.8 12.4 Q7.55 14.15 4.7 16.4 L2.85 18.0 2.05 18.1 1.9 18.0 1.85 17.95 1.4 17.5 1.25 17.25 1.35 17.25 1.45 17.15 1.5 17.15 1.5 17.1 2.25 17.55 11.05 11.15 13.9 12.75 13.8 12.8 M12.75 12.9 L12.8 12.95 12.8 13.0 13.25 13.5 13.6 13.9 Q14.45 15.05 14.2 16.55 13.75 18.0 12.5 18.85 L9.7 20.6 9.7 20.65 Q8.45 21.3 7.3 21.05 L7.25 21.05 Q5.95 20.65 5.35 19.75 5.95 20.3 6.8 20.45 L6.85 20.45 Q7.95 20.75 9.2 20.1 L9.2 20.05 12.0 18.25 Q13.2 17.35 13.65 16.0 13.9 14.5 13.1 13.4 L13.0 13.3 12.75 12.95 12.7 12.9 12.75 12.9 M6.2 18.55 L5.95 18.3 5.7 17.9 Q5.35 17.4 5.55 16.85 L5.55 16.8 Q5.7 16.05 6.4 15.6 L8.95 13.8 Q9.6 13.25 10.4 13.3 11.1 13.3 11.5 13.9 L11.6 14.05 11.65 14.15 10.9 13.8 Q10.05 13.8 9.4 14.3 L6.8 16.15 Q6.1 16.6 5.95 17.3 L5.95 17.35 Q5.75 17.95 6.1 18.45 L6.2 18.55" fill="#e09402" fill-rule="evenodd" stroke="none"/>
    <path d="M15.85 11.2 Q14.55 10.5 13.35 9.05 L12.1 7.2 11.7 6.15 Q12.2 5.8 13.05 5.95 14.2 6.1 15.05 7.25 15.95 8.4 16.05 9.7 L15.85 11.2" fill="#c25f00" fill-rule="evenodd" stroke="none"/>
    <path d="M11.45 4.05 L11.85 3.3 Q12.55 2.5 14.0 3.0 15.55 3.55 17.0 5.2 18.5 6.9 19.15 8.7 19.75 10.65 18.9 11.5 L18.2 11.8 18.0 11.85 Q18.55 10.8 18.2 9.2 17.8 7.4 16.35 5.75 14.95 4.15 13.45 3.7 12.15 3.4 11.45 4.05" fill="#e98d33" fill-rule="evenodd" stroke="none"/>
  </g>
</svg>
