<?xml version="1.0" encoding="UTF-8" standalone="no"?>
<svg xmlns:ffdec="https://www.free-decompiler.com/flash" xmlns:xlink="http://www.w3.org/1999/xlink" ffdec:objectType="shape" height="20.55px" width="21.1px" xmlns="http://www.w3.org/2000/svg">
  <g transform="matrix(1.0, 0.0, 0.0, 1.0, 0.35, -0.8)">
    <path d="M20.75 9.95 Q20.8 12.85 19.0 13.4 L15.1 13.55 Q15.45 14.6 15.15 15.8 L15.15 15.85 Q14.7 17.5 13.2 18.5 L10.65 20.3 10.65 20.35 10.55 20.4 10.5 20.45 Q9.05 21.5 7.55 21.35 L7.5 21.35 7.4 21.35 Q5.5 21.2 4.5 19.75 L4.35 19.6 4.45 19.65 4.35 19.55 Q3.9 18.95 3.75 18.25 L3.2 18.7 3.0 18.85 1.5 19.15 1.4 19.15 Q0.5 18.95 0.05 18.15 L0.0 18.1 Q-0.5 17.3 -0.3 16.5 L-0.25 16.25 Q5.6 12.2 9.55 9.15 L9.45 6.05 Q9.3 1.25 11.95 1.05 L12.85 0.85 13.3 0.85 Q20.0 1.95 20.75 9.9 L20.75 9.95 M7.2 17.3 L7.2 17.5 7.35 17.7 7.4 17.8 7.6 17.85 7.7 17.85 8.45 17.6 8.4 17.7 8.5 17.6 11.2 15.65 11.25 15.6 11.8 14.9 11.75 14.9 11.7 14.6 11.65 14.5 11.55 14.4 11.3 14.25 Q10.8 14.3 10.4 14.6 L7.75 16.5 7.2 17.15 7.2 17.3" fill="#743a0b" fill-rule="evenodd" stroke="none"/>
    <path d="M19.85 9.2 Q20.3 13.35 16.75 12.75 L10.8 11.85 Q11.55 11.4 11.1 11.25 11.55 10.85 10.85 10.65 10.3 10.45 10.55 10.3 L10.5 5.3 Q10.25 2.3 12.1 2.05 L13.1 1.8 Q19.1 2.9 19.85 9.2" fill="#ffcc00" fill-rule="evenodd" stroke="none"/>
    <path d="M11.5 4.75 Q11.35 5.3 11.6 5.85 12.05 6.65 12.15 7.6 L12.4 8.15 Q13.0 8.85 13.25 9.7 L13.25 9.75 Q12.35 9.05 11.7 7.9 L11.15 6.75 Q10.8 5.85 10.85 4.85 L11.2 3.2 Q11.3 3.0 11.5 3.0 L11.5 4.75" fill="#ffeb9c" fill-rule="evenodd" stroke="none"/>
    <path d="M11.45 4.95 L11.5 5.35 11.6 5.9 11.85 6.3 12.1 6.75 12.15 6.9 12.15 6.95 12.1 7.0 12.1 7.1 11.95 7.1 Q11.55 6.95 11.35 6.6 L11.05 5.95 11.0 5.45 11.1 4.95 11.1 4.9 11.15 4.85 11.25 4.85 11.35 4.85 11.45 4.95" fill="#ffe272" fill-rule="evenodd" stroke="none"/>
    <path d="M12.2 5.55 Q11.9 3.95 12.6 3.3 13.3 2.6 14.6 3.15 15.95 3.8 17.1 5.35 18.3 7.0 18.65 8.55 19.05 10.2 18.35 10.95 17.6 11.55 16.25 10.95 14.95 10.4 13.75 8.8 12.6 7.25 12.2 5.55" fill="#d96b00" fill-rule="evenodd" stroke="none"/>
    <path d="M6.25 17.0 Q6.05 17.6 6.35 18.05 L6.4 18.1 6.6 18.35 Q6.9 18.85 7.6 18.85 L7.65 18.85 Q8.35 18.9 9.05 18.4 L9.1 18.4 11.8 16.45 12.75 15.15 Q12.9 14.55 12.55 14.05 L12.65 14.15 12.45 13.9 12.35 13.8 Q12.0 13.3 11.35 13.25 10.55 13.3 9.85 13.8 L7.15 15.7 Q6.45 16.25 6.25 16.95 L6.25 17.0 M5.35 19.2 L5.15 18.95 Q4.35 17.9 4.8 16.55 5.05 15.35 6.25 14.5 L8.95 12.55 9.0 12.55 Q10.15 11.75 11.4 11.75 L11.5 11.75 Q12.8 11.9 13.55 12.9 L13.5 12.85 13.7 13.1 13.8 13.2 Q14.5 14.25 14.2 15.55 13.8 16.85 12.65 17.7 L9.95 19.6 9.95 19.65 Q8.75 20.45 7.55 20.35 L7.5 20.35 Q6.05 20.25 5.35 19.2" fill="#ffcc00" fill-rule="evenodd" stroke="none"/>
    <path d="M12.3 8.45 L12.4 10.1 13.65 10.65 Q7.85 13.4 2.55 17.95 L1.6 18.15 Q1.1 18.05 0.85 17.6 0.6 17.25 0.65 16.85 L12.3 8.45" fill="#ffcc00" fill-rule="evenodd" stroke="none"/>
    <path d="M14.2 12.2 L11.3 12.0 Q6.85 14.45 2.7 18.0 L1.75 18.2 Q1.25 18.1 1.0 17.65 L0.85 17.4 0.95 17.4 Q1.4 17.45 0.85 17.1 L2.1 17.7 11.6 10.75 14.2 12.2" fill="#e09402" fill-rule="evenodd" stroke="none"/>
    <path d="M1.6 16.7 L1.1 17.25 0.7 17.15 Q0.45 16.65 0.8 16.25 1.0 16.0 1.35 16.0 1.9 16.1 1.6 16.7" fill="#ffe272" fill-rule="evenodd" stroke="none"/>
    <path d="M18.35 10.95 L17.6 11.25 Q18.15 10.4 17.9 8.95 17.65 7.4 16.5 5.85 15.4 4.35 14.05 3.8 12.9 3.4 12.2 3.95 L12.6 3.3 Q13.3 2.6 14.6 3.15 15.95 3.8 17.1 5.35 18.3 7.0 18.65 8.55 19.05 10.2 18.35 10.95" fill="#e98d33" fill-rule="evenodd" stroke="none"/>
    <path d="M13.6 5.9 Q14.65 6.15 15.35 7.15 16.05 8.25 16.1 9.4 L15.85 10.75 Q14.75 10.15 13.75 8.8 12.75 7.45 12.35 6.0 L13.6 5.9" fill="#c25f00" fill-rule="evenodd" stroke="none"/>
    <path d="M6.25 16.95 L6.25 17.0 Q6.05 17.6 6.35 18.05 L6.4 18.1 6.55 18.25 6.15 17.9 5.95 17.65 5.9 17.6 Q5.6 17.15 5.8 16.55 L5.8 16.5 Q6.0 15.8 6.7 15.25 L9.4 13.35 Q10.1 12.85 10.9 12.8 L11.9 13.35 12.0 13.45 12.05 13.5 Q11.75 13.3 11.35 13.25 10.55 13.3 9.85 13.8 L7.15 15.7 Q6.45 16.25 6.25 16.95 M7.05 19.9 L7.1 19.9 Q8.3 20.0 9.5 19.2 L9.5 19.15 12.2 17.25 Q13.35 16.4 13.75 15.1 14.05 13.8 13.35 12.75 L13.25 12.65 13.05 12.4 13.1 12.45 13.0 12.35 13.55 12.9 13.5 12.85 13.7 13.1 13.8 13.2 Q14.5 14.25 14.2 15.55 13.8 16.85 12.65 17.7 L9.95 19.6 9.95 19.65 Q8.75 20.45 7.55 20.35 L7.5 20.35 Q6.2 20.25 5.45 19.35 6.1 19.85 7.05 19.9" fill="#e09402" fill-rule="evenodd" stroke="none"/>
  </g>
</svg>
