<?xml version="1.0" encoding="UTF-8" standalone="no"?>
<svg xmlns:ffdec="https://www.free-decompiler.com/flash" xmlns:xlink="http://www.w3.org/1999/xlink" ffdec:objectType="shape" height="59.6px" width="59.6px" xmlns="http://www.w3.org/2000/svg">
  <g transform="matrix(1.0, 0.0, 0.0, 1.0, 29.8, 29.8)">
    <path d="M29.8 0.0 Q29.8 12.35 21.05 21.05 12.4 29.8 0.0 29.8 -12.35 29.8 -21.1 21.05 -29.8 12.35 -29.8 0.0 -29.8 -12.35 -21.1 -21.1 -12.35 -29.8 0.0 -29.8 12.4 -29.8 21.05 -21.1 29.8 -12.35 29.8 0.0" fill="#5a6374" fill-opacity="0.9882353" fill-rule="evenodd" stroke="none"/>
    <path d="M26.7 0.05 Q26.7 11.15 18.9 18.9 11.1 26.75 0.05 26.75 -11.0 26.75 -18.85 18.9 -26.6 11.15 -26.6 0.05 -26.6 -11.0 -18.85 -18.85 -11.0 -26.6 0.05 -26.6 11.1 -26.6 18.9 -18.85 26.7 -11.0 26.7 0.05" fill="#25b6d9" fill-opacity="0.9882353" fill-rule="evenodd" stroke="none"/>
    <path d="M26.3 0.0 Q26.3 10.95 18.55 18.6 10.9 26.3 0.0 26.3 -10.9 26.3 -18.6 18.6 -26.3 10.95 -26.3 0.0 -26.3 -10.9 -18.6 -18.6 -10.9 -26.25 0.0 -26.25 10.9 -26.25 18.55 -18.6 26.3 -10.9 26.3 0.0" fill="url(#gradient0)" fill-rule="evenodd" stroke="none"/>
    <path d="M27.65 -11.25 Q25.4 -16.45 21.05 -20.8 12.4 -29.5 0.0 -29.5 -12.35 -29.5 -21.1 -20.8 -25.4 -16.45 -27.6 -11.25 -25.5 -16.75 -21.1 -21.15 -12.35 -29.8 0.0 -29.8 12.4 -29.8 21.05 -21.15 25.45 -16.75 27.65 -11.25" fill="#999999" fill-opacity="0.9882353" fill-rule="evenodd" stroke="none"/>
    <path d="M18.55 19.45 Q10.95 27.15 0.0 27.15 -10.9 27.15 -18.6 19.45 -24.4 13.65 -25.8 6.05 -24.25 13.45 -18.6 19.05 -10.9 26.75 0.0 26.75 10.95 26.75 18.55 19.05 24.2 13.45 25.8 6.05 24.35 13.65 18.55 19.45" fill="#d2f6ff" fill-opacity="0.9882353" fill-rule="evenodd" stroke="none"/>
    <path d="M20.45 -7.3 L19.6 3.95 17.8 3.9 17.65 -7.4 20.45 -7.3 M11.8 -7.35 L13.1 -1.85 14.15 -7.55 16.2 -7.3 14.25 1.55 14.25 8.15 12.05 8.05 12.05 2.4 9.55 -7.35 11.8 -7.35 M8.6 0.3 L8.6 1.05 Q8.6 4.3 8.15 6.05 7.7 8.0 5.55 8.15 L5.55 8.2 4.6 8.25 2.5 7.95 2.7 -7.3 4.15 -7.5 5.35 -7.35 Q7.5 -7.25 8.05 -5.35 8.55 -3.4 8.6 0.3 M5.3 -5.05 L4.8 -5.05 4.75 6.0 5.5 5.8 Q6.1 5.7 6.25 4.35 L6.35 0.3 6.2 -3.6 Q6.0 -4.95 5.3 -5.05 M17.4 6.9 Q17.4 5.7 18.55 5.7 L18.6 5.7 Q19.7 5.7 19.7 6.9 L19.7 7.05 Q19.65 8.3 18.65 8.3 L18.5 8.3 Q17.4 8.2 17.4 6.95 L17.4 6.9 M-1.1 -7.4 L1.05 7.7 -0.95 7.85 -1.25 5.65 -3.15 5.7 -3.4 8.25 -5.6 8.25 -3.7 -7.2 -1.1 -7.4 M-16.05 -7.25 Q-14.1 -6.65 -13.9 -2.1 -13.95 0.65 -15.35 1.75 L-13.4 7.95 -15.55 8.2 -17.25 2.55 -17.8 2.55 -17.8 8.05 -19.95 8.0 -19.95 -7.25 -18.0 -7.35 -16.05 -7.25 M-9.4 -1.9 L-7.25 -1.85 -7.35 0.6 -9.45 0.6 -9.5 5.5 -6.7 5.6 -6.8 8.05 -11.7 8.0 -11.45 -7.35 -6.75 -7.3 -6.7 -4.95 -9.4 -4.95 -9.4 -1.9 M-17.8 -5.4 L-17.8 0.35 Q-17.0 0.3 -16.65 -0.05 -16.15 -0.45 -16.1 -2.25 L-16.3 -4.5 Q-16.65 -5.65 -17.8 -5.4 M-2.95 3.5 L-1.6 3.5 -2.4 -1.7 -2.95 3.5" fill="#ffffff" fill-opacity="0.9882353" fill-rule="evenodd" stroke="none"/>
  </g>
  <defs>
    <radialGradient cx="0" cy="0" gradientTransform="matrix(0.0327, 0.0, 0.0, 0.0327, 0.0, 0.0)" gradientUnits="userSpaceOnUse" id="gradient0" r="819.2" spreadMethod="pad">
      <stop offset="0.8627450980392157" stop-color="#58ddff"/>
      <stop offset="0.9294117647058824" stop-color="#24b3d7"/>
    </radialGradient>
  </defs>
</svg>
