<?xml version="1.0" encoding="UTF-8" standalone="no"?>
<svg xmlns:ffdec="https://www.free-decompiler.com/flash" xmlns:xlink="http://www.w3.org/1999/xlink" ffdec:objectType="shape" height="8.65px" width="10.05px" xmlns="http://www.w3.org/2000/svg">
  <g transform="matrix(1.0, 0.0, 0.0, 1.0, -13.0, -1.45)">
    <path d="M23.0 8.85 Q23.25 9.2 21.3 9.7 L18.25 10.1 16.9 9.9 16.85 9.8 16.8 9.75 16.8 9.6 16.8 9.5 16.8 9.45 16.85 9.3 17.05 9.05 Q17.4 8.75 17.95 8.65 L18.1 8.65 19.75 8.6 21.3 8.55 23.0 8.85" fill="#fff7f0" fill-rule="evenodd" stroke="none"/>
    <path d="M17.2 6.85 Q16.1 7.6 15.55 7.1 15.15 6.6 16.2 5.6 17.25 4.55 20.1 3.2 22.85 1.75 20.6 4.0 L17.2 6.85" fill="#fff7f0" fill-rule="evenodd" stroke="none"/>
    <path d="M13.75 2.7 L14.25 2.15 15.5 1.45 Q15.75 1.45 15.35 2.55 L14.4 4.15 13.7 4.6 13.55 4.55 13.55 4.6 13.4 4.5 13.35 4.4 13.3 4.4 13.2 4.25 13.1 4.05 13.05 3.4 13.1 3.3 13.75 2.7" fill="#fff7f0" fill-rule="evenodd" stroke="none"/>
  </g>
</svg>
