<?xml version="1.0" encoding="UTF-8" standalone="no"?>
<svg xmlns:ffdec="https://www.free-decompiler.com/flash" xmlns:xlink="http://www.w3.org/1999/xlink" ffdec:objectType="shape" height="336.75px" width="452.05px" xmlns="http://www.w3.org/2000/svg">
  <g transform="matrix(1.0, 0.0, 0.0, 1.0, 106.6, 11.15)">
    <path d="M-89.7 -8.4 L-73.0 -7.45 332.75 -7.8 Q340.6 -2.15 343.3 1.9 L344.75 62.45 Q342.9 66.0 343.35 68.55 L343.35 264.75 Q342.7 289.05 344.7 306.7 L344.75 307.15 344.8 307.6 344.9 308.4 345.0 308.7 344.65 308.75 333.1 321.5 -74.15 324.25 -91.75 321.6 -102.75 310.2 Q-106.0 223.65 -103.85 136.6 L-103.85 3.65 -89.7 -8.4" fill="#744431" fill-rule="evenodd" stroke="none"/>
    <path d="M344.75 62.45 Q342.9 66.0 343.35 68.55 L343.35 123.6 340.05 118.05 339.25 118.15 339.2 118.0 339.15 118.75 Q339.15 119.5 342.55 125.2 L342.85 125.7 341.8 126.0 Q339.45 123.25 337.6 122.0 L337.35 122.8 340.0 126.75 Q338.05 127.6 336.1 129.0 L335.8 128.85 335.55 129.25 335.6 129.35 335.15 129.65 Q332.8 131.4 330.75 133.45 L327.6 128.75 327.25 128.85 330.1 134.15 328.05 136.45 321.5 128.25 321.05 128.25 Q322.8 131.95 326.8 136.95 L327.25 137.5 325.75 139.6 Q324.65 138.8 323.4 138.3 317.3 135.7 310.15 139.85 L303.0 131.15 302.5 131.25 309.0 140.55 Q308.1 141.1 307.15 141.8 L306.05 142.7 298.25 132.4 297.75 132.5 Q297.25 132.65 297.25 133.4 297.25 134.6 304.1 144.3 L303.85 144.55 300.9 141.55 Q301.7 143.15 303.25 145.1 L301.8 146.6 Q300.1 144.95 297.9 144.0 292.1 141.55 285.35 145.15 281.8 140.8 280.35 140.25 L280.25 140.9 283.55 146.2 281.65 147.5 Q276.3 151.5 272.55 157.0 271.0 155.75 269.1 154.95 264.85 153.15 260.2 154.2 L259.35 152.5 Q256.7 147.4 254.75 144.5 254.3 144.5 254.25 144.75 L258.05 153.25 258.75 154.6 Q256.05 155.45 253.25 157.25 249.3 159.85 246.15 163.65 L245.0 163.85 Q240.9 158.1 233.0 158.1 L231.2 158.2 226.5 152.3 226.1 152.3 Q226.65 153.7 228.9 156.45 L230.5 158.25 Q223.8 159.0 217.1 163.9 214.15 160.3 211.05 157.55 L210.8 158.0 215.4 165.2 213.95 166.4 210.6 169.6 209.65 169.75 Q205.6 162.35 196.65 162.35 191.3 162.35 185.95 165.0 L181.4 159.5 180.5 159.6 180.45 159.4 180.4 160.15 Q180.4 161.1 184.3 165.85 180.95 167.75 177.6 170.65 L174.6 173.5 115.75 175.75 93.5 175.45 Q87.05 167.15 82.6 163.3 L82.55 163.1 82.5 163.8 Q82.5 164.7 89.05 172.85 L91.1 175.4 76.3 174.75 72.1 170.65 Q62.7 162.5 53.4 162.35 49.5 157.25 46.75 155.9 L51.3 162.45 Q43.35 163.15 39.75 170.3 L35.75 166.4 Q32.9 163.9 30.0 162.15 26.2 155.6 23.05 154.75 24.15 157.15 25.8 160.0 21.45 158.2 17.15 158.1 L15.55 156.65 14.75 155.45 5.75 141.3 Q5.35 141.3 5.1 141.55 8.15 148.6 15.2 158.15 12.5 158.35 10.35 159.3 7.45 156.35 5.05 154.6 L5.05 154.35 5.0 155.05 Q5.0 155.6 8.75 160.1 6.05 161.7 4.25 164.55 1.95 161.5 -0.9 159.2 -3.15 156.15 -6.0 152.8 L-6.4 153.0 -3.4 157.0 -2.7 157.8 -3.55 157.25 Q-8.5 154.05 -13.05 153.85 -18.55 147.3 -22.3 144.5 L-15.05 153.85 Q-17.3 154.05 -19.4 154.95 -21.3 155.75 -22.85 157.0 -26.6 151.5 -31.95 147.5 -37.7 143.2 -42.85 143.05 L-43.2 142.55 Q-46.35 138.35 -48.0 136.9 L-48.0 137.0 -43.7 143.05 Q-46.05 143.1 -48.2 144.0 -50.4 144.95 -52.1 146.6 -54.55 143.95 -57.45 141.8 -66.35 135.2 -73.7 138.3 -74.95 138.8 -76.05 139.6 -79.9 133.8 -85.45 129.65 -94.35 123.05 -101.7 126.15 -102.85 126.65 -103.85 127.3 L-103.85 3.65 -89.7 -8.4 -73.0 -7.45 332.75 -7.8 Q340.6 -2.15 343.3 1.9 L344.75 62.45" fill="#7b4d3b" fill-rule="evenodd" stroke="none"/>
    <path d="M-100.45 52.35 L-99.9 53.7 Q-101.4 55.3 -102.15 57.1 L-103.4 59.95 -103.7 59.8 Q-101.4 54.95 -100.45 52.35 M-12.95 78.3 L-13.05 78.1 Q-10.65 78.4 -8.2 79.35 -10.45 78.65 -12.95 78.3 M-16.5 77.95 L-15.5 77.9 -14.8 77.95 -14.75 78.1 -16.5 77.95 M-36.15 73.2 L-37.1 72.85 -36.8 71.85 -36.15 73.2 M135.0 80.25 L135.5 79.85 135.05 79.9 135.05 79.8 135.0 80.15 135.0 80.25 M117.0 83.25 L116.9 83.8 118.35 92.85 115.95 93.6 113.55 94.8 Q125.4 92.95 129.65 91.4 L126.35 87.4 128.9 91.45 Q123.5 91.6 119.45 92.55 118.25 86.8 117.0 83.25 M335.35 47.05 L335.25 46.7 335.1 46.75 Q333.95 47.5 332.45 55.05 331.2 55.55 330.15 56.5 L329.4 57.3 329.1 57.35 Q328.05 57.6 327.1 58.1 L326.3 58.15 Q324.6 50.85 322.25 45.6 L322.15 45.65 Q322.0 45.7 322.0 46.05 322.0 47.0 324.6 58.3 L324.6 58.35 Q321.1 58.85 318.25 60.25 L318.0 60.1 Q316.6 59.45 314.7 60.75 313.05 61.8 312.0 63.4 311.1 58.2 309.9 54.3 L309.55 54.45 309.35 55.0 310.4 61.9 310.95 65.25 310.3 67.35 309.55 68.6 308.95 67.95 Q307.65 66.9 305.9 67.45 303.35 68.15 302.3 70.9 302.1 68.9 300.85 68.15 L297.7 68.3 Q296.3 68.95 295.35 69.95 292.65 69.15 290.7 69.15 L287.45 69.4 279.25 60.75 279.05 60.8 Q278.8 60.9 278.8 61.25 L286.65 69.55 Q283.1 70.2 280.1 72.15 277.4 69.25 275.1 67.65 L279.05 72.9 Q278.1 73.6 277.2 74.45 275.8 75.75 274.75 77.2 L274.2 76.65 271.15 76.45 Q269.4 77.1 268.35 78.6 L267.65 77.9 267.1 77.6 Q268.75 75.6 270.9 73.95 268.5 75.4 266.7 77.45 265.65 77.1 264.35 77.45 261.6 78.2 260.45 80.6 L257.3 80.3 257.75 76.6 Q256.6 77.3 256.2 80.3 251.45 80.4 247.2 82.25 L248.25 73.3 248.15 72.95 248.05 73.0 Q247.55 74.5 246.35 82.65 L244.7 83.5 241.95 85.4 240.85 85.6 Q239.85 84.45 238.0 84.45 234.6 84.45 234.1 88.35 L233.45 88.35 Q232.5 86.55 229.85 86.35 226.75 86.1 225.95 88.35 L218.4 88.35 218.5 85.3 Q218.5 83.2 218.1 81.75 L217.6 81.75 216.9 88.6 Q212.4 89.55 207.5 91.15 L207.15 90.7 Q205.95 89.15 204.25 89.25 201.2 89.55 200.4 93.7 L197.15 94.85 Q196.85 93.45 195.95 92.5 194.75 91.25 193.1 91.35 190.3 91.55 189.4 94.35 L188.0 93.85 Q183.0 92.1 176.4 92.1 L174.8 92.15 Q177.55 85.7 177.55 85.05 L177.5 84.7 177.4 84.8 Q175.55 87.85 173.55 92.15 167.4 92.4 163.3 93.75 166.25 82.75 167.55 76.25 165.3 81.7 163.2 90.0 L162.25 94.1 Q160.9 94.6 159.8 95.25 158.25 96.15 157.1 97.4 L156.0 98.4 153.9 97.9 151.3 92.15 Q148.5 86.75 145.5 83.65 L145.45 83.55 145.4 83.9 Q145.4 84.6 149.2 91.45 L152.6 97.45 145.35 94.9 143.7 94.3 142.5 93.7 142.65 93.95 Q96.95 97.35 109.4 95.45 L100.45 92.65 98.0 91.95 93.75 86.1 93.6 86.25 97.2 91.75 Q90.9 90.05 84.75 89.7 82.2 86.6 79.6 84.25 L79.5 84.6 83.3 89.6 80.9 89.55 77.55 89.6 73.5 83.3 Q70.2 78.5 67.6 75.85 L67.6 75.75 67.55 76.05 76.2 89.65 68.5 90.45 Q67.35 86.65 66.4 84.6 L66.25 84.65 66.15 85.05 Q66.15 86.2 67.3 90.7 L65.05 91.35 Q64.9 89.15 63.5 88.4 L60.1 88.55 59.2 89.05 58.05 81.35 57.7 81.55 Q57.55 81.65 57.55 82.05 57.55 84.85 58.1 89.85 56.5 91.2 55.75 93.25 L55.0 92.85 55.1 92.25 Q55.1 89.0 53.15 88.45 L52.2 88.35 48.5 73.1 48.3 73.1 Q48.05 73.2 48.05 73.55 48.05 74.75 51.3 88.45 50.2 88.7 48.9 89.45 L48.3 89.85 Q43.95 88.35 40.1 88.35 L37.85 88.5 Q37.25 79.95 28.35 89.75 L27.95 90.2 27.5 89.85 27.95 88.25 Q27.95 84.55 25.75 84.2 24.15 83.95 22.0 85.55 17.5 83.0 11.7 82.85 13.75 71.1 13.75 67.55 L13.6 67.05 13.25 66.9 12.75 67.0 10.0 82.8 6.3 83.2 4.55 81.9 Q1.95 80.05 -1.0 78.55 -3.95 73.0 -7.85 66.0 L-8.6 66.0 -8.7 66.7 Q-6.75 71.8 -4.0 77.15 -5.9 76.35 -7.9 75.65 -11.75 74.35 -14.85 73.95 -21.75 58.35 -25.65 50.6 L-16.55 73.8 -20.4 73.95 -21.6 74.25 Q-21.7 70.3 -24.1 70.25 L-25.7 70.65 Q-28.35 66.1 -29.8 64.7 L-26.85 71.25 Q-28.1 71.95 -29.55 73.3 L-31.3 75.05 -34.55 73.85 Q-36.9 67.0 -38.35 63.4 -41.2 56.55 -44.4 55.4 L-38.85 67.35 Q-40.55 67.25 -43.15 69.6 L-43.75 70.2 Q-46.35 64.5 -47.7 62.4 L-48.3 62.5 -45.35 70.0 Q-48.15 69.2 -50.7 68.75 -50.35 67.6 -50.35 67.05 -50.35 65.7 -51.4 64.5 -52.5 63.15 -54.0 63.0 -55.9 62.75 -57.45 64.45 -60.95 58.6 -64.45 55.3 L-58.5 65.85 -59.6 68.1 -62.4 68.4 -62.6 68.3 Q-61.15 65.05 -61.15 64.15 -61.15 62.7 -62.15 61.35 -63.25 59.95 -64.75 59.8 -66.5 59.65 -68.0 61.2 -75.55 45.95 -80.55 37.5 -75.75 48.6 -69.05 62.5 L-69.85 63.85 Q-73.55 61.85 -77.1 60.6 L-77.15 60.55 -80.4 56.05 Q-80.8 54.25 -82.1 53.9 -85.25 49.95 -88.35 46.8 -87.1 50.1 -84.75 54.3 -85.95 54.85 -87.45 56.0 L-89.75 58.0 -91.15 57.95 -93.0 58.0 Q-91.85 55.5 -91.85 54.75 -91.85 47.9 -96.6 50.95 L-98.8 52.65 -99.85 50.1 -99.85 49.9 Q-99.85 45.25 -101.85 45.15 L-101.95 44.9 -102.55 45.0 -102.6 44.9 -102.65 45.3 -103.85 45.85 -103.85 3.65 -89.7 -8.4 -73.0 -7.45 332.75 -7.8 Q340.6 -2.15 343.3 1.9 L344.45 49.7 343.1 49.55 Q340.5 49.5 338.55 51.6 337.35 52.15 336.4 53.25 L335.6 54.35 334.1 54.55 335.35 47.05" fill="#8e5b48" fill-rule="evenodd" stroke="none"/>
    <path d="M126.4 -2.4 L122.3 -3.65 122.3 -3.6 117.95 -2.75 126.4 -2.4 M108.1 -2.05 L107.65 -2.35 107.1 -2.55 Q106.5 -2.55 106.1 -2.1 L106.05 -2.05 -87.0 -2.05 -87.2 -2.1 -87.5 -2.15 -88.05 -2.0 -89.9 -1.8 -90.35 -1.9 -91.2 -2.0 -91.4 -2.0 -91.25 -1.95 -91.8 -1.9 -92.5 -1.95 -92.7 -1.85 -93.25 -1.75 -93.85 -1.35 -94.2 -0.95 Q-94.45 -0.75 -95.35 -0.5 L-96.5 0.2 -97.5 1.1 -99.5 3.0 -101.2 4.45 Q-101.75 4.45 -101.75 3.9 -101.75 3.05 -100.6 2.2 L-99.15 1.2 -97.0 -1.5 -95.0 -4.25 -94.45 -5.05 Q-94.1 -5.45 -91.85 -5.55 L-88.0 -5.65 331.2 -5.85 331.45 -5.7 331.9 -5.8 333.25 -4.3 Q333.85 -3.45 336.25 -1.35 L338.5 1.65 340.2 3.1 Q341.25 4.0 341.25 4.55 L340.9 5.1 Q340.3 5.1 338.3 3.75 L335.2 1.2 333.7 0.05 332.75 -0.75 331.95 -1.7 331.65 -2.05 228.85 -2.05 226.7 -2.4 223.8 -2.05 220.1 -2.05 218.95 -2.45 215.45 -2.85 211.6 -2.55 207.7 -2.05 Q181.7 -0.4 156.1 -1.15 L136.7 -2.05 Q125.45 -2.1 118.65 -2.55 L117.45 -2.65 113.4 -2.05 108.1 -2.05" fill="#643c2d" fill-rule="evenodd" stroke="none"/>
    <path d="M335.25 59.8 L333.75 62.7 332.1 62.45 331.95 62.25 Q331.75 62.05 331.75 61.25 331.75 60.6 332.5 58.8 333.5 56.35 334.95 55.65 L335.8 56.0 Q336.15 56.3 336.15 57.2 L335.25 59.8 M190.35 117.25 Q190.55 117.2 190.55 117.9 L190.0 122.5 190.05 122.7 189.45 122.85 Q188.45 122.85 188.05 121.35 L187.85 119.7 Q187.85 118.35 188.0 118.05 188.4 117.35 190.1 117.45 L190.35 117.25 M321.0 115.15 Q322.2 115.15 322.2 116.45 L321.85 117.7 321.3 118.3 Q320.0 118.3 319.65 117.45 319.6 116.55 319.7 115.8 319.8 115.1 321.0 115.15 M5.6 191.65 L5.6 193.25 5.45 193.4 4.65 193.5 Q3.35 193.5 2.95 192.75 L2.85 191.9 Q2.85 191.15 3.25 190.85 3.9 190.35 5.6 191.65 M45.0 269.95 L46.7 271.8 Q48.0 273.5 48.65 275.15 48.55 275.55 45.0 269.95 M285.65 243.3 Q285.0 243.3 284.8 242.85 L284.8 242.35 Q284.8 241.15 285.75 241.2 286.7 241.2 286.7 242.25 286.7 243.3 285.65 243.3 M251.15 250.35 Q251.15 250.85 250.55 251.1 249.7 251.1 249.7 249.9 249.7 248.8 250.45 249.0 251.15 249.25 251.15 250.35 M-76.85 104.85 Q-77.4 105.4 -77.8 105.4 -79.3 105.4 -79.6 104.5 L-79.6 103.65 Q-79.6 101.7 -77.95 102.05 -76.25 102.4 -76.25 103.7 -76.25 104.25 -76.85 104.85 M-62.85 124.2 Q-62.85 123.5 -62.4 123.2 L-60.2 123.1 -59.95 124.05 -60.35 124.8 -60.75 125.2 Q-62.25 125.45 -62.7 124.9 L-62.85 124.2 M-43.1 155.95 L-43.9 156.85 -45.3 156.75 -45.35 156.45 -45.45 155.55 Q-45.45 154.8 -44.85 154.65 L-43.35 154.7 -43.1 155.95 M-64.7 151.85 L-65.05 152.5 -65.65 152.5 -65.9 152.45 -65.95 152.0 Q-65.95 151.55 -65.65 151.45 L-65.35 151.35 -64.7 151.85 M-60.8 195.4 Q-59.7 196.65 -59.7 197.65 -59.7 198.75 -59.85 198.15 L-60.05 198.6 -60.95 198.8 Q-61.95 198.8 -62.75 197.35 L-63.65 195.55 -63.45 194.3 Q-62.1 193.9 -60.8 195.4" fill="#936653" fill-rule="evenodd" stroke="none"/>
    <path d="M143.75 234.4 Q143.45 235.0 142.95 235.0 142.05 235.0 141.8 234.45 L141.75 233.8 Q141.75 232.85 142.9 232.5 144.0 232.2 144.0 233.35 L143.75 234.4 M99.55 295.3 L98.4 295.55 98.15 295.45 98.05 294.8 Q98.05 294.2 98.45 294.0 L98.85 293.85 Q99.3 294.0 99.6 294.65 L99.55 295.3 M106.0 275.15 L105.35 275.4 Q104.65 275.4 103.85 274.55 L103.2 273.7 Q103.2 272.5 104.5 273.3 105.7 274.05 106.1 274.8 L106.0 275.15 M139.8 292.2 L139.85 292.45 139.3 292.65 Q138.8 292.65 137.8 291.35 L137.15 290.35 138.55 290.35 Q139.85 291.5 139.8 292.2 M161.8 294.65 L161.9 294.35 163.55 295.35 162.15 295.35 161.8 294.8 161.8 294.65 M157.4 274.05 Q156.45 274.05 156.1 273.45 155.95 273.2 155.95 272.65 155.95 271.6 157.1 271.65 158.2 271.75 158.2 272.65 158.2 274.05 157.4 274.05" fill="#5d3524" fill-rule="evenodd" stroke="none"/>
    <path d="M333.6 321.7 L333.6 323.6 -94.45 323.6 -94.45 321.7 333.6 321.7 M333.6 325.15 L333.6 325.6 -94.45 325.6 -94.45 325.15 333.6 325.15 M333.6 320.4 L-94.45 320.4 -94.45 320.1 333.6 320.1 333.6 320.4" fill="#6e727b" fill-rule="evenodd" stroke="none"/>
    <path d="M333.6 321.7 L-94.45 321.7 -94.45 320.4 333.6 320.4 333.6 320.65 -94.1 320.65 -94.1 320.95 333.6 320.95 333.6 321.7" fill="#9498a1" fill-rule="evenodd" stroke="none"/>
    <path d="M333.6 320.95 L-94.1 320.95 -94.1 320.65 333.6 320.65 333.9 320.65 333.9 320.95 333.6 320.95" fill="#e7e7e7" fill-rule="evenodd" stroke="none"/>
    <path d="M-94.45 323.6 L333.6 323.6 333.6 325.15 -94.45 325.15 -94.45 323.6" fill="#494c54" fill-rule="evenodd" stroke="none"/>
    <path d="M333.1 -10.8 L333.3 -11.15 344.35 1.0 345.05 2.1 345.25 3.4 345.0 33.8 344.65 8.3 344.65 2.1 344.55 2.05 344.3 1.75 341.85 -1.25 334.8 -9.1 333.1 -10.8 M345.4 302.65 L345.25 313.7 333.8 325.2 333.7 325.2 333.6 325.0 338.7 319.65 338.9 319.45 344.65 313.7 344.85 313.5 344.85 313.15 344.9 302.0 345.4 302.0 345.4 302.65 M332.9 323.35 L332.2 321.85 341.8 311.85 341.35 312.2 341.55 312.0 342.0 311.6 342.15 311.5 342.3 311.35 342.5 310.8 342.45 301.85 342.6 301.8 342.4 301.8 341.9 8.3 341.8 2.75 341.9 2.65 332.1 -7.55 331.5 -7.55 332.65 -9.75 337.1 -4.8 343.4 2.25 343.4 8.3 343.65 301.8 344.2 301.8 344.25 301.8 344.2 302.0 344.2 303.9 344.2 305.2 343.6 312.75 343.05 313.3 332.9 323.35 M340.15 3.9 L339.6 3.2 331.2 -5.9 331.4 -5.9 331.4 -5.95 331.65 -6.05 340.4 3.15 340.45 3.1 340.45 3.2 340.45 3.25 340.45 3.4 340.1 3.6 340.0 3.55 340.1 3.7 340.0 3.65 340.15 3.9 M341.95 2.85 L341.95 2.75 341.85 2.8 341.95 2.85" fill="#6e727b" fill-rule="evenodd" stroke="none"/>
    <path d="M341.95 2.85 L341.85 2.8 341.95 2.75 341.95 2.85" fill="#60646b" fill-rule="evenodd" stroke="none"/>
    <path d="M341.0 302.0 L342.45 301.85 342.5 310.8 342.3 311.35 342.15 311.5 342.3 311.2 341.15 310.6 341.35 310.35 341.1 310.6 341.05 310.5 341.0 302.0 M342.4 301.8 L341.0 301.95 340.45 3.4 340.45 3.25 340.55 3.35 341.8 2.75 341.9 8.3 342.4 301.8" fill="#57595d" fill-rule="evenodd" stroke="none"/>
    <path d="M332.65 -9.75 Q332.35 -10.1 332.7 -9.85 L333.0 -10.5 336.05 -7.15 344.1 1.9 344.3 1.75 344.55 2.05 344.65 2.1 344.65 8.3 345.0 33.8 345.0 42.3 345.45 302.7 345.4 302.65 345.4 302.0 344.9 302.0 344.85 313.15 344.85 313.5 344.65 313.7 338.9 319.45 344.8 313.3 Q344.7 313.3 344.55 309.55 L344.3 303.35 344.25 302.0 344.55 302.0 344.25 301.8 344.25 301.2 344.25 298.4 344.2 301.8 343.65 301.8 343.4 8.3 343.4 2.25 337.1 -4.8 332.65 -9.75 M332.95 323.55 L332.9 323.35 343.05 313.3 338.7 317.95 332.95 323.55 M332.2 321.85 L331.85 320.9 331.95 320.8 338.7 313.55 341.15 310.6 342.3 311.2 342.15 311.5 342.0 311.6 341.55 312.0 341.35 312.2 341.8 311.85 332.2 321.85 M331.45 320.2 L331.15 319.45 340.5 309.9 340.5 302.0 341.0 302.0 341.05 310.5 341.1 310.6 338.7 313.1 332.55 319.1 331.95 319.7 331.45 320.2 M341.0 301.95 L340.5 301.8 340.15 3.9 340.1 3.7 340.0 3.55 340.1 3.6 340.45 3.4 341.0 301.95 M340.45 3.25 L340.45 3.2 340.55 3.35 340.45 3.25 M344.2 305.2 L344.0 309.55 343.8 312.55 343.6 312.75 344.2 305.2" fill="#9498a1" fill-rule="evenodd" stroke="none"/>
    <path d="M333.0 -10.5 L333.1 -10.8 334.8 -9.1 341.85 -1.25 344.3 1.75 344.1 1.9 336.05 -7.15 333.0 -10.5 M331.85 320.9 L331.45 320.2 331.95 319.7 332.55 319.1 338.7 313.1 341.1 310.6 341.35 310.35 341.15 310.6 338.7 313.55 331.95 320.8 331.85 320.9" fill="#e7e7e7" fill-rule="evenodd" stroke="none"/>
    <path d="M333.6 325.0 L332.95 323.55 338.7 317.95 343.05 313.3 343.6 312.75 343.8 312.55 344.0 309.55 344.2 305.2 344.2 303.9 344.2 302.0 344.25 302.0 344.3 303.35 344.55 309.55 Q344.7 313.3 344.8 313.3 L338.9 319.45 338.7 319.65 333.6 325.0 M331.4 -5.95 L331.25 -6.2 330.95 -6.35 331.5 -7.55 332.1 -7.55 341.9 2.65 341.8 2.75 340.55 3.35 340.45 3.2 340.45 3.1 340.4 3.15 331.65 -6.05 331.4 -5.95 M344.2 301.8 L344.25 298.4 344.25 301.2 344.25 301.8 344.2 301.8" fill="#4d525d" fill-rule="evenodd" stroke="none"/>
    <path d="M333.25 -9.5 L333.25 -7.6 -94.45 -7.6 -94.45 -9.5 333.25 -9.5 M333.25 -6.05 L333.25 -5.6 -94.45 -5.6 -94.45 -6.05 333.25 -6.05 M333.25 -10.8 L-94.45 -10.8 -94.45 -11.1 333.25 -11.1 333.25 -10.8" fill="#6e727b" fill-rule="evenodd" stroke="none"/>
    <path d="M333.25 -9.5 L-94.45 -9.5 -94.45 -10.8 333.25 -10.8 333.25 -10.55 -94.1 -10.55 -94.1 -10.25 333.25 -10.25 333.25 -9.5" fill="#9498a1" fill-rule="evenodd" stroke="none"/>
    <path d="M333.25 -10.25 L-94.1 -10.25 -94.1 -10.55 333.25 -10.55 333.6 -10.55 333.6 -10.25 333.25 -10.25" fill="#e7e7e7" fill-rule="evenodd" stroke="none"/>
    <path d="M-94.45 -7.6 L333.25 -7.6 333.25 -6.05 -94.45 -6.05 -94.45 -7.6" fill="#494c54" fill-rule="evenodd" stroke="none"/>
    <path d="M-94.3 -10.75 L-94.5 -11.1 -105.55 1.05 -106.25 2.15 -106.45 3.45 -106.6 301.85 -106.35 301.85 -106.6 302.05 -106.45 313.75 -95.0 325.25 -94.9 325.25 -94.8 325.05 -99.9 319.7 -100.1 319.5 -105.85 313.75 -106.05 313.55 -106.05 313.2 -106.05 301.6 -106.1 301.65 -105.85 8.35 -105.85 2.15 -105.75 2.1 -105.5 1.8 -103.05 -1.2 -96.0 -9.05 -94.3 -10.75 M-94.1 323.4 L-93.4 321.9 -103.0 311.9 -102.55 312.25 -102.75 312.05 -103.2 311.65 -103.35 311.55 -103.5 311.4 -103.7 310.85 -103.55 301.5 -103.6 301.55 -103.1 8.35 -103.0 2.8 -103.1 2.7 -93.3 -7.5 -92.7 -7.5 -93.85 -9.7 -98.3 -4.75 -104.6 2.3 -104.6 8.35 -104.85 301.7 -104.9 301.65 -104.8 312.8 -104.25 313.35 -94.1 323.4 M-101.35 3.95 L-100.8 3.25 -92.4 -5.85 -92.6 -5.85 -92.6 -5.9 -92.85 -6.0 -101.6 3.2 -101.65 3.15 -101.65 3.25 -101.65 3.3 -101.65 3.45 -101.3 3.65 -101.2 3.6 -101.3 3.75 -101.2 3.7 -101.35 3.95 M-103.15 2.9 L-103.15 2.8 -103.05 2.85 -103.15 2.9" fill="#6e727b" fill-rule="evenodd" stroke="none"/>
    <path d="M-103.15 2.9 L-103.05 2.85 -103.15 2.8 -103.15 2.9" fill="#60646b" fill-rule="evenodd" stroke="none"/>
    <path d="M-103.0 2.8 L-103.1 8.35 -103.6 301.55 -103.55 301.5 -103.7 310.85 -103.5 311.4 -103.35 311.55 -103.5 311.25 -102.35 310.65 -102.55 310.4 -102.3 310.65 -102.25 310.55 -101.65 3.45 -101.65 3.3 -101.75 3.4 -103.0 2.8" fill="#57595d" fill-rule="evenodd" stroke="none"/>
    <path d="M-93.85 -9.7 Q-93.55 -10.05 -93.9 -9.8 L-94.2 -10.45 -97.25 -7.1 -105.3 1.95 -105.5 1.8 -105.75 2.1 -105.85 2.15 -105.85 8.35 -106.1 301.65 -106.05 301.6 -106.05 313.2 -106.05 313.55 -105.85 313.75 -100.1 319.5 -106.0 313.35 Q-105.9 313.35 -105.75 309.6 L-105.35 302.55 -105.4 303.95 -105.2 309.6 -105.0 312.6 -104.8 312.8 -104.9 301.65 -104.85 301.7 -104.6 8.35 -104.6 2.3 -98.3 -4.75 -93.85 -9.7 M-94.15 323.6 L-94.1 323.4 -104.25 313.35 -99.9 318.0 -94.15 323.6 M-93.4 321.9 L-93.05 320.95 -93.15 320.85 -99.9 313.6 -102.35 310.65 -103.5 311.25 -103.35 311.55 -103.2 311.65 -102.75 312.05 -102.55 312.25 -103.0 311.9 -93.4 321.9 M-92.65 320.25 L-92.35 319.5 -101.7 309.95 -101.65 301.55 -101.7 301.6 -101.35 3.95 -101.3 3.75 -101.2 3.6 -101.3 3.65 -101.65 3.45 -102.25 310.55 -102.3 310.65 -99.9 313.15 -93.75 319.15 -93.15 319.75 -92.65 320.25 M-101.65 3.3 L-101.65 3.25 -101.75 3.4 -101.65 3.3 M-105.4 301.85 L-105.45 301.85 -105.4 301.7 -105.4 301.85" fill="#9498a1" fill-rule="evenodd" stroke="none"/>
    <path d="M-94.2 -10.45 L-94.3 -10.75 -96.0 -9.05 -103.05 -1.2 -105.5 1.8 -105.3 1.95 -97.25 -7.1 -94.2 -10.45 M-93.05 320.95 L-92.65 320.25 -93.15 319.75 -93.75 319.15 -99.9 313.15 -102.3 310.65 -102.55 310.4 -102.35 310.65 -99.9 313.6 -93.15 320.85 -93.05 320.95" fill="#e7e7e7" fill-rule="evenodd" stroke="none"/>
    <path d="M-94.8 325.05 L-94.15 323.6 -99.9 318.0 -104.25 313.35 -104.8 312.8 -105.0 312.6 -105.2 309.6 -105.4 303.95 -105.35 302.55 -105.75 309.6 Q-105.9 313.35 -106.0 313.35 L-100.1 319.5 -99.9 319.7 -94.8 325.05 M-92.6 -5.9 L-92.45 -6.15 -92.15 -6.3 -92.7 -7.5 -93.3 -7.5 -103.1 2.7 -103.0 2.8 -101.75 3.4 -101.65 3.25 -101.65 3.15 -101.6 3.2 -92.85 -6.0 -92.6 -5.9 M-105.4 301.85 L-105.4 301.7 -105.45 301.85 -105.4 301.85" fill="#4d525d" fill-rule="evenodd" stroke="none"/>
    <path d="M96.8 242.15 L93.5 242.35 89.75 242.75 96.8 242.15 M215.05 187.25 L215.1 187.15 215.2 187.25 215.55 187.25 215.55 187.65 215.7 187.8 215.7 187.85 226.15 199.3 226.85 200.4 227.05 201.7 226.7 232.25 215.25 243.75 215.15 243.75 215.15 243.85 208.9 243.85 205.0 243.45 192.45 243.3 186.8 243.85 178.45 243.8 Q175.05 243.7 174.4 243.85 L127.25 243.85 115.4 243.15 Q106.7 245.1 87.25 243.0 63.3 245.15 49.95 242.7 L49.6 242.7 48.3 242.7 49.0 242.7 44.0 242.7 37.25 243.85 22.35 243.85 22.25 243.95 22.2 243.95 10.7 232.45 10.35 201.9 10.6 200.6 Q10.85 200.0 11.25 199.5 L22.3 187.35 22.4 187.55 22.4 187.25 215.05 187.25" fill="#000000" fill-opacity="0.2" fill-rule="evenodd" stroke="none"/>
  </g>
</svg>
