<?xml version="1.0" encoding="UTF-8" standalone="no"?>
<svg xmlns:ffdec="https://www.free-decompiler.com/flash" xmlns:xlink="http://www.w3.org/1999/xlink" ffdec:objectType="shape" height="178.75px" width="265.35px" xmlns="http://www.w3.org/2000/svg">
  <g transform="matrix(1.0, 0.0, 0.0, 1.0, 13.25, -51.95)">
    <path d="M41.1 66.3 Q45.2 65.05 50.25 65.65 L50.95 65.75 51.0 65.75 53.8 66.25 Q58.45 67.35 63.85 69.7 L65.65 70.55 65.95 70.1 66.1 69.9 66.2 69.75 66.3 69.55 66.35 69.5 66.45 69.35 66.55 69.3 66.5 69.25 Q67.4 68.1 68.3 67.85 L68.25 67.75 68.35 67.8 68.4 67.8 69.65 67.95 70.35 68.45 70.6 68.65 71.0 69.2 71.05 69.25 Q85.6 92.95 99.65 117.85 L99.3 117.75 105.15 127.9 108.5 133.65 128.6 167.5 142.45 189.95 148.2 199.5 147.85 199.75 148.2 200.4 144.35 202.7 95.5 120.5 95.0 120.3 94.5 120.1 94.3 120.0 91.6 119.0 Q83.1 115.85 76.0 114.9 L72.6 114.5 72.3 114.5 Q63.3 113.95 56.9 117.35 60.35 125.35 62.6 134.45 L62.65 134.7 Q62.9 135.55 62.55 137.8 60.75 144.4 51.25 153.75 41.7 163.1 18.1 167.45 23.2 163.75 25.75 158.8 28.2 154.05 27.75 149.55 26.2 152.9 22.25 154.2 L15.8 156.15 Q8.6 157.8 -1.8 150.55 L-2.9 149.75 -2.35 149.75 -1.85 149.75 1.0 149.6 1.1 149.6 Q8.1 148.7 14.85 144.25 L17.15 142.6 18.35 141.6 21.25 139.05 23.1 137.3 23.7 136.7 24.7 135.6 27.85 132.05 27.95 131.8 28.05 131.8 28.2 131.55 30.65 128.3 30.6 128.3 31.25 127.4 31.9 126.4 32.5 125.7 32.5 125.65 34.35 122.9 Q28.95 114.0 25.8 103.2 25.75 100.25 25.85 97.45 25.8 96.8 26.05 95.5 L26.0 95.4 26.05 94.75 Q26.6 86.85 28.35 81.05 29.4 77.65 30.85 75.0 34.5 68.45 40.8 66.4 L40.95 66.35 41.1 66.3" fill="#0e0000" fill-opacity="0.2784314" fill-rule="evenodd" stroke="none"/>
    <path d="M173.05 59.3 L173.15 59.3 173.7 59.0 173.05 59.3 M182.4 57.85 L182.65 57.8 185.8 57.4 185.5 57.55 186.0 57.55 Q194.25 57.05 201.4 59.25 203.95 60.05 206.4 61.2 L206.45 61.25 Q209.95 63.15 212.85 66.0 L213.0 66.2 213.35 66.5 Q218.3 71.6 221.75 79.55 L221.9 79.85 Q215.55 93.7 207.55 107.6 210.8 116.8 215.85 122.35 224.95 132.35 241.3 132.35 L246.9 131.85 Q241.25 137.7 233.7 140.3 228.6 142.15 224.25 142.15 219.85 142.15 212.35 138.6 L209.9 137.25 Q212.0 144.1 217.4 148.95 220.3 151.55 223.6 153.0 L223.7 153.0 226.2 153.9 232.7 154.7 Q198.2 161.8 184.8 148.45 175.2 138.8 171.4 127.1 L171.55 126.7 Q170.7 118.95 174.2 115.3 171.35 114.4 168.15 114.05 L168.0 114.0 167.3 113.95 167.0 113.9 162.5 113.7 162.4 113.7 161.95 113.7 161.55 113.7 160.35 113.8 Q155.1 114.05 149.05 115.3 L146.5 115.85 146.45 115.9 136.5 134.7 104.5 195.7 103.1 198.3 101.75 197.6 102.1 196.95 99.45 195.55 Q101.15 191.95 103.4 187.95 L104.6 185.65 142.2 113.8 141.6 113.6 171.0 59.55 Q171.85 58.8 173.65 58.95 L173.75 58.95 173.85 58.95 173.75 59.0 Q173.65 59.2 173.9 59.2 L176.65 58.8 176.8 58.8 177.95 58.6 181.55 58.0 182.4 57.85" fill="#0e0000" fill-opacity="0.2784314" fill-rule="evenodd" stroke="none"/>
    <path d="M196.3 97.4 L202.9 90.9 Q206.55 108.3 214.35 116.9 223.45 126.9 239.8 126.9 L245.4 126.4 Q239.75 132.25 232.2 134.85 227.1 136.7 222.75 136.7 218.35 136.7 210.85 133.15 L208.4 131.8 Q210.5 138.65 215.9 143.5 218.8 146.1 222.1 147.55 L222.2 147.55 224.7 148.45 Q227.8 149.3 231.2 149.25 196.7 156.35 183.3 143.0 173.7 133.35 169.9 121.65 175.35 106.45 186.8 106.55 190.75 105.25 193.2 101.95 L195.25 98.5 196.3 97.4 M196.75 60.25 L196.65 59.5 197.05 59.85 196.75 60.25" fill="url(#gradient0)" fill-rule="evenodd" stroke="none"/>
    <path d="M144.55 107.45 Q145.35 108.0 146.1 108.15 121.9 154.6 101.9 192.2 L97.95 190.1 Q100.15 185.5 103.2 180.2 114.8 159.45 142.2 105.5 L144.55 107.45" fill="#794f36" fill-rule="evenodd" stroke="none"/>
    <path d="M140.95 107.8 L141.1 107.9 142.35 108.6 99.35 190.8 97.95 190.1 103.1 180.2 140.95 107.8" fill="#69412a" fill-rule="evenodd" stroke="none"/>
    <path d="M168.7 64.3 L101.6 192.85 100.25 192.15 Q102.5 187.65 110.35 173.9 118.25 160.1 149.65 98.75 181.0 37.35 168.7 64.3" fill="#69412a" fill-rule="evenodd" stroke="none"/>
    <path d="M207.75 64.1 L207.95 64.3 208.3 64.6 Q213.2 69.7 216.7 77.7 L216.8 77.95 Q209.2 94.6 190.65 126.7 188.1 129.7 179.95 120.7 172.4 114.7 170.2 122.4 168.85 113.2 173.2 109.35 L206.4 62.85 207.75 64.1" fill="#384d00" fill-rule="evenodd" stroke="none"/>
    <path d="M166.5 108.55 L166.65 108.55 166.65 108.6 166.5 108.55 M173.1 109.95 Q171.25 109.05 173.85 110.15 L173.3 110.0 173.1 109.95 M158.85 108.35 L158.85 108.3 160.45 108.25 158.85 108.35" fill="#4e6908" fill-rule="evenodd" stroke="none"/>
    <path d="M145.0 110.4 L148.95 102.7 Q151.85 97.55 155.0 92.9 L154.55 94.05 149.4 106.2 147.55 109.85 145.0 110.4" fill="#415804" fill-rule="evenodd" stroke="none"/>
    <path d="M166.25 63.8 L163.9 68.4 155.85 84.15 146.0 104.0 Q142.2 112.0 142.15 106.7 150.9 91.4 157.75 77.05 163.3 65.4 169.9 54.7 L170.35 54.9 170.75 55.1 166.25 63.8" fill="#53700a" fill-rule="evenodd" stroke="none"/>
    <path d="M184.5 52.1 L173.45 64.1 Q156.85 87.2 158.95 107.0 164.15 107.2 165.8 108.5 L165.5 108.45 161.0 108.25 160.9 108.25 160.45 108.25 153.15 108.05 153.65 102.8 Q153.9 98.4 154.6 94.05 L154.55 94.05 155.0 92.9 Q151.85 97.55 148.95 102.7 L145.0 110.4 144.1 110.6 Q142.6 108.95 140.1 108.15 L169.5 54.1 Q170.35 53.35 172.15 53.5 L172.25 53.5 172.35 53.5 172.25 53.55 Q172.15 53.75 172.4 53.75 L172.15 55.35 171.85 56.15 Q170.45 59.55 168.1 63.05 L168.65 62.3 171.65 58.6 175.6 53.95 176.45 53.15 180.05 52.55 180.9 52.4 181.15 52.35 184.3 51.95 184.0 52.1 184.5 52.1 M171.55 53.85 L171.65 53.85 172.2 53.55 171.55 53.85 M166.25 63.8 L170.75 55.1 170.35 54.9 169.9 54.7 Q163.3 65.4 157.75 77.05 150.9 91.4 142.15 106.7 142.2 112.0 146.0 104.0 L155.85 84.15 163.9 68.4 166.25 63.8" fill="#517100" fill-rule="evenodd" stroke="none"/>
    <path d="M176.45 53.15 L175.6 53.95 171.65 58.6 168.65 62.3 168.1 63.05 Q170.45 59.55 171.85 56.15 L172.15 55.35 172.4 53.75 175.15 53.35 175.3 53.35 176.45 53.15 M154.55 94.05 L154.6 94.05 Q153.9 98.4 153.65 102.8 L153.15 108.05 160.45 108.25 158.85 108.3 158.85 108.35 Q153.6 108.6 147.55 109.85 L149.4 106.2 154.55 94.05" fill="#496600" fill-rule="evenodd" stroke="none"/>
    <path d="M184.5 52.1 Q192.75 51.6 199.9 53.8 202.45 54.6 204.9 55.75 L204.95 55.8 Q208.45 57.7 211.35 60.55 L211.5 60.75 211.85 61.05 Q216.8 66.15 220.25 74.1 L220.4 74.4 Q208.4 100.6 190.45 126.85 L187.8 121.55 187.6 121.15 185.4 118.2 184.5 117.1 183.8 116.35 Q181.0 113.55 177.5 111.7 L173.85 110.15 Q171.25 109.05 173.1 109.95 170.05 108.95 166.65 108.6 L166.65 108.55 166.5 108.55 165.8 108.5 Q164.15 107.2 158.95 107.0 156.85 87.2 173.45 64.1 L184.5 52.1" fill="url(#gradient1)" fill-rule="evenodd" stroke="none"/>
    <path d="M143.2 108.8 L171.4 54.15" fill="none" stroke="#597b03" stroke-linecap="butt" stroke-linejoin="round" stroke-width="1.0"/>
    <path d="M24.55 128.75 Q23.05 128.5 23.8 127.95 28.8 124.0 25.25 128.0 L24.55 128.75" fill="#71b3d9" fill-rule="evenodd" stroke="none"/>
    <path d="M24.55 128.75 L24.0 129.4 23.8 129.65 23.8 130.5 24.2 130.05 23.8 130.85 24.2 136.55 Q24.85 138.85 27.4 136.7 26.4 141.95 21.2 143.7 L14.75 145.65 Q7.55 147.3 -2.85 140.05 L-3.95 139.25 -3.4 139.25 -2.9 139.25 -0.05 139.1 0.05 139.1 Q7.05 138.2 13.8 133.75 L16.1 132.1 17.3 131.1 20.2 128.55 22.05 126.8 22.65 126.2 23.65 125.1 23.65 126.2 23.8 126.2 23.8 127.95 Q23.05 128.5 24.55 128.75" fill="url(#gradient2)" fill-rule="evenodd" stroke="none"/>
    <path d="M69.45 67.45 Q111.35 138.95 143.3 192.2 L147.15 189.9 Q144.75 185.45 141.45 180.25 127.7 158.5 93.4 98.8 59.2 39.05 69.45 67.45" fill="#794f36" fill-rule="evenodd" stroke="none"/>
    <path d="M71.1 65.6 Q113.7 136.65 145.85 189.8 L147.15 189.0 141.4 179.45 Q127.9 157.5 92.65 98.35 57.45 39.2 71.1 65.6" fill="#69412a" fill-rule="evenodd" stroke="none"/>
    <path d="M27.15 121.05 L29.6 117.8 29.55 117.8 30.2 116.9 30.85 115.9 31.45 115.2 31.45 115.15 Q38.85 104.35 45.9 88.75 L60.85 122.25 61.25 123.05 61.6 124.2 Q61.85 125.05 61.5 127.3 59.7 133.9 50.2 143.25 40.65 152.6 17.05 156.95 22.15 153.25 24.7 148.3 27.2 143.5 26.65 138.9 25.0 139.55 23.85 137.85 L23.8 138.05 23.45 129.45 23.8 126.2 23.65 126.2 23.65 125.1 26.8 121.55 26.9 121.3 27.0 121.3 27.15 121.05" fill="url(#gradient3)" fill-rule="evenodd" stroke="none"/>
    <path d="M54.05 125.45 L54.05 125.5 54.05 125.45" fill="#276d95" fill-rule="evenodd" stroke="none"/>
    <path d="M54.25 125.4 L54.7 125.25 Q49.05 128.55 44.7 127.35 37.7 122.95 30.85 100.0 28.4 97.05 34.95 97.2 L39.2 96.65 39.45 96.6 40.7 96.3 43.35 110.55 Q45.25 120.45 49.85 123.6 52.6 125.45 53.85 125.45 L53.9 125.45 54.05 125.45 54.25 125.4 M54.05 125.45 L54.05 125.5 54.05 125.45" fill="#0b4869" fill-rule="evenodd" stroke="none"/>
    <path d="M40.7 96.3 Q48.0 94.35 45.8 88.95 L46.3 89.7 46.3 89.6 46.5 89.95 Q56.75 104.55 61.55 123.95 60.9 123.25 60.1 123.15 L59.2 123.1 58.65 123.2 58.6 123.2 Q57.9 123.4 57.15 123.9 L54.7 125.2 54.25 125.4 54.05 125.45 53.9 125.45 53.85 125.45 Q52.6 125.45 49.85 123.6 45.25 120.45 43.35 110.55 L40.7 96.3" fill="#165477" fill-rule="evenodd" stroke="none"/>
    <path d="M46.6 115.6 L46.35 115.95 46.55 115.6 46.6 115.6" fill="#4d8fb4" fill-rule="evenodd" stroke="none"/>
    <path d="M65.5 58.8 L65.45 58.75 Q66.35 57.6 67.25 57.35 74.75 68.15 81.5 80.55 88.25 92.9 96.65 107.5 L97.35 107.25 Q95.9 107.55 94.45 110.0 L93.95 109.8 Q93.95 109.7 94.1 109.7 L93.0 107.45 90.15 102.5 90.45 103.0 Q85.0 93.8 79.75 84.4 L71.15 69.5 65.5 58.8 M88.55 100.85 L88.6 100.9 88.5 100.85 88.55 100.85" fill="#4788ad" fill-rule="evenodd" stroke="none"/>
    <path d="M67.25 57.35 L67.2 57.25 67.3 57.3 67.35 57.3 68.6 57.45 69.3 57.95 69.55 58.15 69.95 58.7 70.0 58.75 Q84.55 82.45 98.6 107.35 L98.15 107.2 97.35 107.25 96.65 107.5 Q88.25 92.9 81.5 80.55 74.75 68.15 67.25 57.35" fill="#26729c" fill-rule="evenodd" stroke="none"/>
    <path d="M62.8 59.2 L64.6 60.05 64.9 59.6 65.05 59.4 66.6 62.4 72.7 73.2 77.2 81.8 73.45 75.7 66.9 65.7 62.8 59.2 M65.25 59.05 L65.3 59.0 Q65.95 59.6 65.25 59.05" fill="#1d638a" fill-rule="evenodd" stroke="none"/>
    <path d="M25.0 85.0 L24.95 84.9 25.0 84.25 Q25.55 76.35 27.3 70.55 28.35 67.15 29.8 64.5 33.45 57.95 39.75 55.9 L39.9 55.85 40.05 55.8 Q44.15 54.55 49.2 55.15 L49.9 55.25 49.95 55.25 52.75 55.75 Q56.2 58.0 60.05 61.1 63.85 64.1 69.05 72.15 L74.35 80.15 74.8 80.85 77.1 84.15 77.1 84.2 77.2 84.35 Q79.2 87.9 81.45 93.5 85.15 102.5 78.85 104.25 L82.1 105.05 Q86.45 106.5 90.55 108.5 82.05 105.35 74.95 104.4 L71.55 104.0 71.25 104.0 Q54.45 103.0 46.6 115.6 L46.55 115.6 46.35 115.95 46.15 116.25 Q45.35 117.65 44.65 119.55 37.7 116.6 32.95 108.15 28.15 99.7 25.0 85.0" fill="url(#gradient4)" fill-rule="evenodd" stroke="none"/>
    <path d="M52.75 55.75 Q57.4 56.85 62.8 59.2 L66.9 65.7 73.45 75.7 77.2 81.8 72.7 73.2 66.6 62.4 65.05 59.4 65.15 59.25 65.25 59.05 Q65.95 59.6 65.3 59.0 L65.4 58.85 65.5 58.8 71.15 69.5 79.75 84.4 Q85.0 93.8 90.45 103.0 L90.15 102.5 93.0 107.45 94.1 109.7 Q93.95 109.7 93.95 109.8 L93.45 109.6 93.25 109.5 90.55 108.5 Q86.45 106.5 82.1 105.05 L78.85 104.25 Q85.15 102.5 81.45 93.5 79.2 87.9 77.2 84.35 L77.1 84.2 77.1 84.15 74.8 80.85 74.35 80.15 69.05 72.15 Q63.85 64.1 60.05 61.1 56.2 58.0 52.75 55.75 M44.65 119.55 L44.55 119.9 44.15 121.3 Q43.6 123.5 43.15 126.25 38.9 122.55 35.9 116.4 28.65 106.0 24.75 92.7 24.7 89.75 24.8 86.95 24.75 86.3 25.0 85.0 28.15 99.7 32.95 108.15 37.7 116.6 44.65 119.55 M88.55 100.85 L88.5 100.85 88.6 100.9 88.55 100.85" fill="#106fa3" fill-rule="evenodd" stroke="none"/>
    <path d="M23.9 138.05 L23.85 136.2 56.7 136.2 Q54.15 139.5 44.35 149.9 34.5 160.15 10.4 163.7 L12.0 162.3 Q20.65 153.85 23.15 149.0 25.7 144.1 26.8 138.9 25.15 139.55 24.0 137.85 L23.9 138.05" fill="url(#gradient5)" fill-rule="evenodd" stroke="none"/>
    <path d="M67.25 149.7 L67.3 149.5 68.5 149.3 68.95 149.4 69.05 149.55 69.2 149.55 73.1 151.35 Q74.0 151.95 73.9 152.45 L73.8 153.05 89.15 160.6 89.2 160.65 89.4 160.75 89.6 160.9 89.65 160.95 89.8 161.1 90.0 161.25 Q93.05 163.55 95.15 167.3 L97.0 171.4 Q98.4 175.75 98.4 179.2 L98.15 181.75 98.05 182.15 97.95 182.8 Q97.5 184.65 96.6 186.15 L98.4 187.0 98.5 187.05 98.55 187.45 98.85 188.9 98.85 189.0 98.9 189.1 98.9 189.2 99.25 191.3 99.9 192.95 99.95 193.15 100.0 193.2 100.55 194.75 Q101.85 200.2 99.9 203.65 98.05 206.65 94.85 208.3 L94.8 208.3 94.5 208.4 94.4 208.45 93.95 208.7 Q91.95 209.5 89.8 209.25 L89.75 209.25 Q88.15 209.1 86.4 208.35 L86.05 208.2 84.9 207.65 81.95 207.7 81.6 207.7 67.8 207.45 66.85 207.45 64.25 207.4 63.3 208.0 Q63.15 208.1 62.95 208.15 L60.15 209.2 Q56.9 210.1 53.8 209.3 51.85 209.0 49.7 207.85 48.9 207.4 48.2 206.8 L47.65 227.55 43.0 220.05 42.85 219.75 40.05 215.3 39.95 215.1 38.35 212.5 38.35 212.7 34.45 206.35 34.4 206.3 34.4 206.25 32.1 202.4 Q31.4 202.2 31.25 200.6 30.65 195.05 30.7 193.2 L30.75 186.65 Q31.2 177.25 32.45 166.45 L32.5 166.5 32.5 166.4 16.95 156.3 16.9 156.3 15.6 157.35 Q15.4 157.45 14.95 157.15 L11.8 154.85 11.55 154.5 11.55 154.4 11.15 154.1 Q10.65 153.25 11.05 152.65 L11.35 152.45 -0.95 143.7 -2.75 144.75 -3.75 145.05 Q-5.05 145.35 -6.1 144.7 -6.35 144.5 -10.95 143.35 L-11.2 143.15 -11.2 143.05 -11.5 142.9 Q-13.9 141.55 -13.0 136.1 L-13.0 136.05 -12.75 133.85 -12.7 133.4 -12.55 132.95 -12.5 132.8 -12.3 131.15 Q-11.7 127.6 -9.4 123.55 -7.1 119.45 -4.45 117.25 L-3.65 116.55 -3.6 116.55 -3.55 116.5 -2.45 115.85 -0.85 114.55 Q1.25 112.8 2.85 112.3 L2.95 112.3 4.25 112.05 5.55 112.35 5.7 112.45 6.7 113.35 6.75 113.35 6.95 113.5 7.2 113.8 7.2 113.85 10.15 117.35 10.35 117.45 10.45 117.55 10.65 117.85 10.75 118.05 10.8 118.2 11.35 121.9 11.35 121.95 11.35 122.25 24.6 128.8 24.6 128.75 24.65 128.3 25.4 128.1 25.4 127.95 26.4 127.75 26.75 127.85 26.85 127.95 27.0 127.95 30.4 129.5 Q31.15 130.0 31.05 130.45 L30.9 131.15 30.75 131.7 30.75 131.85 67.0 149.7 67.25 149.7 M109.2 187.5 L109.3 187.45 109.3 187.35 109.3 187.55 109.2 187.5 M130.9 187.45 L130.95 187.5 130.45 187.5 130.5 187.45 130.8 186.95 130.9 187.45 M130.85 186.7 L130.85 186.35 130.9 185.6 130.85 186.7 M121.85 187.35 L121.9 186.95 122.2 187.45 122.25 187.5 121.85 187.55 121.85 187.35" fill="#0e0000" fill-opacity="0.2784314" fill-rule="evenodd" stroke="none"/>
    <path d="M231.9 116.65 L232.1 116.5 232.2 116.5 Q232.6 115.9 233.15 115.6 L233.3 115.5 234.6 115.2 235.95 115.45 236.0 115.45 Q237.6 115.95 239.7 117.7 L241.35 119.0 242.45 119.65 242.45 119.7 242.5 119.7 243.3 120.4 Q245.95 122.6 248.25 126.7 250.55 130.75 251.15 134.3 L251.4 135.95 251.4 136.1 251.55 136.55 251.65 137.0 251.85 139.2 251.85 139.25 Q252.75 144.7 250.35 146.05 L250.1 146.2 250.05 146.3 249.8 146.5 Q245.2 147.65 244.95 147.85 243.9 148.5 242.6 148.2 L241.6 147.9 239.8 146.85 227.55 155.6 227.8 155.8 Q228.2 156.4 227.7 157.25 L227.3 157.55 227.3 157.65 227.05 158.0 223.9 160.3 Q223.5 160.6 223.25 160.5 L221.95 159.45 221.9 159.45 Q213.95 164.8 206.4 169.55 L206.35 169.65 206.4 169.6 Q207.65 180.4 208.1 189.8 L208.15 196.35 207.6 203.75 Q207.45 205.35 206.75 205.55 L204.45 209.4 204.45 209.45 204.4 209.5 200.5 215.85 200.5 215.65 198.9 218.25 198.8 218.45 196.0 222.9 195.85 223.2 191.2 230.7 Q190.8 220.8 190.65 209.95 L189.15 211.0 Q187.0 212.15 185.1 212.45 181.95 213.25 178.7 212.35 L175.9 211.3 175.6 211.15 174.65 210.55 172.0 210.6 171.05 210.6 157.25 210.85 156.9 210.85 154.05 210.8 Q153.4 211.1 152.8 211.35 L152.45 211.5 Q150.7 212.25 149.1 212.4 L149.05 212.4 Q146.9 212.65 144.9 211.85 L144.45 211.6 144.35 211.55 144.05 211.45 144.0 211.45 Q140.8 209.8 139.0 206.8 137.0 203.35 138.3 197.9 L138.85 196.35 138.9 196.3 139.0 196.1 Q139.2 195.2 139.65 194.45 L139.95 192.35 139.95 192.25 140.0 192.15 140.0 192.05 140.35 190.6 140.35 190.2 140.45 190.15 142.25 189.3 Q141.35 187.8 140.9 185.95 L140.8 185.3 140.7 184.9 140.45 182.35 Q140.45 178.9 141.85 174.55 142.7 172.35 143.7 170.45 145.8 166.7 148.85 164.4 L149.05 164.25 149.2 164.1 149.25 164.05 149.45 163.9 149.65 163.8 149.7 163.75 165.1 156.2 164.95 155.6 Q164.85 155.1 165.75 154.5 L169.65 152.7 169.8 152.7 169.95 152.55 170.35 152.45 171.55 152.65 171.6 152.85 171.9 152.85 208.15 135.0 208.1 134.85 207.95 134.3 207.8 133.6 Q207.7 133.15 208.5 132.65 L211.85 131.1 212.0 131.1 212.1 131.0 212.45 130.9 213.45 131.1 213.5 131.25 214.2 131.45 214.25 131.9 214.25 131.95 227.5 125.4 227.5 125.1 227.5 125.05 228.05 121.35 228.1 121.2 228.2 121.0 228.4 120.7 228.5 120.6 228.7 120.5 231.65 117.0 231.7 116.95 231.9 116.65" fill="#0e0000" fill-opacity="0.2784314" fill-rule="evenodd" stroke="none"/>
    <path d="M120.3 140.35 Q112.6 140.35 106.0 142.95 L120.4 177.8 135.55 143.3 Q128.55 140.35 120.3 140.35 M177.3 134.65 Q178.45 136.1 177.05 138.1 175.8 140.15 174.2 141.35 L168.75 145.2 Q165.2 147.6 161.95 148.75 L162.1 148.95 162.45 149.5 162.55 149.8 162.6 150.7 162.6 150.85 162.55 151.25 Q162.35 152.0 161.7 152.55 L160.4 153.6 Q163.8 158.9 165.55 164.95 L165.75 164.9 166.55 164.9 166.75 164.9 167.3 165.1 167.7 165.3 Q168.4 165.75 168.65 166.5 171.3 165.15 178.35 163.25 L183.65 161.9 186.25 162.1 Q188.9 162.7 189.4 164.4 L189.45 164.55 Q189.75 166.3 187.65 167.6 185.6 168.75 183.65 169.15 L177.0 170.15 Q172.8 170.6 169.35 170.25 L169.4 170.55 169.45 171.05 169.5 171.45 169.1 172.3 169.05 172.4 168.8 172.75 Q168.3 173.3 167.4 173.55 L167.05 173.65 167.2 177.4 167.05 181.55 158.35 181.55 158.55 177.45 Q158.55 162.05 147.35 151.2 143.75 147.7 139.65 145.3 L122.25 184.95 120.15 184.05 118.3 184.8 101.9 144.85 Q97.25 147.35 93.25 151.2 82.05 162.05 82.05 177.45 L82.3 181.55 73.45 181.55 73.3 177.4 Q73.3 164.05 80.2 153.5 L78.25 151.9 Q77.6 151.4 77.4 150.65 L77.3 150.3 77.35 150.1 Q77.3 149.65 77.4 149.25 L77.5 148.8 77.8 148.4 Q74.6 147.2 71.15 144.9 67.2 142.25 65.65 141.0 64.1 139.85 62.75 137.8 61.5 135.8 62.6 134.35 L62.7 134.2 Q63.65 133.15 65.15 133.15 L65.9 133.2 66.0 133.25 Q68.0 133.55 68.95 134.55 L69.0 134.55 73.05 138.15 Q78.45 143.0 80.1 145.4 80.75 144.6 81.75 144.55 L82.15 144.55 82.75 144.55 82.95 144.6 83.55 145.0 85.55 146.6 84.8 147.6 87.05 145.2 Q91.7 140.7 96.95 137.75 L96.05 135.55 95.9 134.8 95.85 134.6 95.95 133.95 96.1 133.6 Q96.4 132.7 97.25 132.3 95.35 129.95 92.0 123.55 L89.6 118.8 89.6 118.75 Q89.25 117.4 89.25 116.1 89.25 113.35 90.8 112.55 L91.0 112.45 Q92.65 111.75 94.25 113.5 95.9 115.25 96.7 117.1 L99.05 123.4 Q100.4 127.4 100.75 130.75 L101.25 130.6 101.65 130.55 102.55 130.7 102.7 130.75 103.1 130.9 Q103.75 131.25 104.05 132.1 L105.05 134.2 Q110.2 132.55 115.9 132.1 L115.9 129.95 Q115.9 129.55 116.05 129.2 L116.1 129.0 116.45 128.5 116.65 128.15 Q117.3 127.45 118.25 127.4 117.4 124.55 116.85 117.45 L116.55 112.0 Q116.75 110.6 117.25 109.45 118.35 106.95 120.15 106.8 L120.3 106.8 Q122.05 106.8 122.9 109.1 123.7 111.35 123.7 113.35 L123.4 120.05 Q123.05 124.2 122.05 127.4 L122.1 127.4 122.7 127.45 123.0 127.55 123.8 128.05 123.9 128.15 124.2 128.5 Q124.65 129.1 124.65 129.95 L124.65 132.1 Q131.35 132.6 137.3 134.8 L138.25 132.75 138.75 132.15 138.8 131.95 Q139.1 131.7 139.35 131.6 L139.75 131.45 141.45 131.5 Q141.9 128.6 144.55 121.85 L146.55 117.0 146.6 116.8 146.6 116.75 Q147.35 115.65 148.35 114.8 150.4 113.05 152.1 113.65 L152.2 113.7 Q153.85 114.5 153.55 116.9 153.3 119.3 152.45 121.1 L149.25 127.0 Q147.2 130.65 144.9 133.15 L144.95 133.2 145.4 133.4 145.65 133.65 146.2 134.45 146.2 134.55 146.4 134.95 146.15 136.5 145.15 138.75 Q149.55 141.4 153.45 145.2 L154.95 146.7 156.3 145.6 Q156.65 145.3 157.0 145.25 L157.2 145.15 157.8 145.1 158.15 145.1 Q159.05 145.2 159.65 145.9 161.3 143.45 166.75 138.45 L170.9 134.9 170.95 134.85 Q172.1 134.2 173.35 133.9 176.05 133.25 177.2 134.5 L177.3 134.65" fill="#0e0000" fill-opacity="0.2784314" fill-rule="evenodd" stroke="none"/>
  </g>
  <defs>
    <radialGradient cx="0" cy="0" fx="9.600000000000001" fy="0" gradientTransform="matrix(0.0371, 0.0, 0.0, 0.06, 197.65, 114.5)" gradientUnits="userSpaceOnUse" id="gradient0" r="819.2" spreadMethod="pad">
      <stop offset="0.43137254901960786" stop-color="#658a07"/>
      <stop offset="0.9372549019607843" stop-color="#486208"/>
    </radialGradient>
    <radialGradient cx="0" cy="0" fx="9.600000000000001" fy="0" gradientTransform="matrix(0.0301, 0.0147, -0.0424, 0.0866, 192.8, 84.85)" gradientUnits="userSpaceOnUse" id="gradient1" r="819.2" spreadMethod="pad">
      <stop offset="0.43137254901960786" stop-color="#769c0f"/>
      <stop offset="0.9372549019607843" stop-color="#517100"/>
    </radialGradient>
    <radialGradient cx="0" cy="0" fx="9.600000000000001" fy="0" gradientTransform="matrix(0.0112, -0.0424, 0.0305, 0.0081, 30.35, 138.3)" gradientUnits="userSpaceOnUse" id="gradient2" r="819.2" spreadMethod="pad">
      <stop offset="0.25098039215686274" stop-color="#5fb8eb"/>
      <stop offset="1.0" stop-color="#0e5e8e"/>
    </radialGradient>
    <radialGradient cx="0" cy="0" fx="9.600000000000001" fy="0" gradientTransform="matrix(0.0112, -0.0424, 0.0305, 0.0081, 30.35, 138.3)" gradientUnits="userSpaceOnUse" id="gradient3" r="819.2" spreadMethod="pad">
      <stop offset="0.25098039215686274" stop-color="#5fb8eb"/>
      <stop offset="1.0" stop-color="#0e5e8e"/>
    </radialGradient>
    <radialGradient cx="0" cy="0" gradientTransform="matrix(0.0296, -0.0137, 0.0254, 0.055, 48.85, 79.0)" gradientUnits="userSpaceOnUse" id="gradient4" r="819.2" spreadMethod="pad">
      <stop offset="0.0" stop-color="#4ea6d6"/>
      <stop offset="1.0" stop-color="#1175b3"/>
    </radialGradient>
    <radialGradient cx="0" cy="0" fx="9.600000000000001" fy="0" gradientTransform="matrix(0.0112, -0.0424, 0.0305, 0.0081, 30.5, 138.3)" gradientUnits="userSpaceOnUse" id="gradient5" r="819.2" spreadMethod="pad">
      <stop offset="0.25098039215686274" stop-color="#5fb8eb"/>
      <stop offset="1.0" stop-color="#0e5e8e"/>
    </radialGradient>
  </defs>
</svg>
