<?xml version="1.0" encoding="UTF-8" standalone="no"?>
<svg xmlns:ffdec="https://www.free-decompiler.com/flash" xmlns:xlink="http://www.w3.org/1999/xlink" ffdec:objectType="shape" height="56.8px" width="216.25px" xmlns="http://www.w3.org/2000/svg">
  <g transform="matrix(1.0, 0.0, 0.0, 1.0, -11.85, -181.45)">
    <path d="M163.65 211.3 L163.35 211.15 Q163.35 211.05 163.65 210.95 L164.25 210.9 164.9 210.95 165.15 211.15 164.9 211.3 164.25 211.4 163.65 211.3" fill="#af7446" fill-rule="evenodd" stroke="none"/>
    <path d="M224.1 196.05 Q223.2 196.6 223.4 197.0 L223.4 227.2 Q220.4 231.2 216.7 234.65 L215.4 236.0 23.8 236.4 12.85 227.15 12.85 198.05 24.35 185.25 216.05 185.6 Q219.6 190.85 224.1 196.05" fill="#bba14b" fill-rule="evenodd" stroke="none"/>
    <path d="M216.35 232.3 L23.4 232.3 23.4 238.1 216.35 238.1 216.35 232.3" fill="#6e727b" fill-rule="evenodd" stroke="none"/>
    <path d="M216.35 232.5 L23.4 232.5 23.4 233.85 216.35 233.85 216.35 232.5" fill="#9498a1" fill-rule="evenodd" stroke="none"/>
    <path d="M216.6 232.85 L23.65 232.85 23.65 233.15 216.6 233.15 216.6 232.85" fill="#e7e7e7" fill-rule="evenodd" stroke="none"/>
    <path d="M216.35 236.1 L23.4 236.1 23.4 237.75 216.35 237.75 216.35 236.1" fill="#494c54" fill-rule="evenodd" stroke="none"/>
    <path d="M216.65 181.75 L23.5 181.75 23.5 187.25 216.65 187.25 216.65 181.75" fill="#6e727b" fill-rule="evenodd" stroke="none"/>
    <path d="M216.65 181.5 L23.5 181.5 23.5 182.8 216.65 182.8 216.65 181.5" fill="#9498a1" fill-rule="evenodd" stroke="none"/>
    <path d="M217.3 182.45 L24.15 182.45 24.15 182.75 217.3 182.75 217.3 182.45" fill="#e7e7e7" fill-rule="evenodd" stroke="none"/>
    <path d="M216.65 185.15 L23.5 185.15 23.5 186.7 216.65 186.7 216.65 185.15" fill="#494c54" fill-rule="evenodd" stroke="none"/>
    <path d="M215.95 181.8 L216.15 181.45 227.2 193.6 227.85 194.7 228.1 196.0 227.75 226.55 216.25 238.05 216.2 238.05 216.1 237.85 221.35 232.3 227.15 226.55 227.3 226.3 227.35 226.0 227.45 194.7 227.4 194.65 227.15 194.35 224.7 191.35 217.65 183.5 215.95 181.8 M215.35 236.2 L214.7 234.7 224.3 224.7 223.85 225.05 224.05 224.85 224.5 224.45 224.65 224.3 224.75 224.2 225.0 223.6 224.6 195.35 224.7 195.3 224.75 195.25 214.95 185.05 214.35 185.05 215.5 182.85 219.9 187.8 226.25 194.85 226.05 225.6 225.55 226.15 215.35 236.2 M222.95 196.5 L222.45 195.8 214.05 186.7 214.25 186.7 214.25 186.65 214.5 186.5 223.25 195.75 223.3 195.7 223.3 195.8 223.3 195.85 223.3 196.0 222.95 196.2 222.85 196.1 222.95 196.3 222.85 196.25 222.95 196.5 M224.75 195.45 L224.75 195.35 224.7 195.4 224.75 195.45" fill="#6e727b" fill-rule="evenodd" stroke="none"/>
    <path d="M224.75 195.45 L224.7 195.4 224.75 195.35 224.75 195.45" fill="#60646b" fill-rule="evenodd" stroke="none"/>
    <path d="M224.6 195.35 L225.0 223.6 224.75 224.2 224.65 224.3 224.75 224.05 223.65 223.4 223.85 223.2 Q223.7 223.25 223.6 223.4 L223.55 223.35 223.3 196.0 223.3 195.85 223.4 195.9 224.6 195.35" fill="#57595d" fill-rule="evenodd" stroke="none"/>
    <path d="M227.15 194.35 L227.4 194.65 227.45 194.7 227.35 226.0 227.3 226.3 227.15 226.55 221.35 232.3 227.3 226.1 Q227.2 226.1 227.05 222.4 L226.65 211.65 226.7 216.7 226.5 222.4 226.3 225.4 226.05 225.6 226.25 194.85 219.9 187.8 215.5 182.85 Q215.15 182.5 215.55 182.75 L215.85 182.1 218.9 185.45 226.95 194.45 227.15 194.35 M215.45 236.4 L215.35 236.2 225.55 226.15 215.45 236.4 M214.7 234.7 L214.3 233.7 Q219.45 228.7 223.65 223.4 L224.75 224.05 224.65 224.3 224.5 224.45 224.05 224.85 223.85 225.05 224.3 224.7 214.7 234.7 M213.95 233.0 L213.65 232.3 223.0 222.75 222.95 196.5 222.95 196.3 222.85 196.1 222.95 196.2 223.3 196.0 223.55 223.35 223.6 223.4 215.0 231.95 213.95 233.0 M223.3 195.8 L223.4 195.9 223.3 195.85 223.3 195.8" fill="#9498a1" fill-rule="evenodd" stroke="none"/>
    <path d="M215.95 181.8 L217.65 183.5 224.7 191.35 227.15 194.35 226.95 194.45 218.9 185.45 215.85 182.1 215.95 181.8 M214.3 233.7 L213.95 233.0 215.0 231.95 223.6 223.4 Q223.7 223.25 223.85 223.2 L223.65 223.4 Q219.45 228.7 214.3 233.7" fill="#e7e7e7" fill-rule="evenodd" stroke="none"/>
    <path d="M221.35 232.3 L216.1 237.85 215.45 236.4 225.55 226.15 226.05 225.6 226.3 225.4 226.5 222.4 226.7 216.7 226.65 211.65 227.05 222.4 Q227.2 226.1 227.3 226.1 L221.35 232.3 M214.25 186.65 L214.1 186.4 213.75 186.25 214.35 185.05 214.95 185.05 224.75 195.25 224.7 195.3 224.6 195.35 223.4 195.9 223.3 195.8 223.3 195.7 223.25 195.75 214.5 186.5 214.25 186.65" fill="#4d525d" fill-rule="evenodd" stroke="none"/>
    <path d="M25.85 186.45 L25.85 186.9 17.0 196.55 16.95 222.95 26.3 232.5 26.0 233.2 24.95 232.15 16.4 223.55 16.7 196.05 16.55 196.1 16.7 196.0 16.7 195.9 16.7 195.95 25.85 186.45 M25.25 234.9 L24.6 236.4 14.4 226.35 13.9 225.8 13.7 195.0 24.1 182.3 25.55 185.0 15.25 195.45 15.35 195.55 15.2 195.55 15.2 195.65 15.35 195.55 14.95 223.8 15.2 224.4 15.3 224.5 15.45 224.65 15.95 225.05 16.15 225.25 15.65 224.85 25.25 234.9 M23.9 238.05 L23.75 238.25 23.7 238.25 12.2 226.75 11.85 196.2 12.1 194.9 Q12.35 194.3 12.75 193.8 L23.8 181.65 24.0 182.0 Q16.75 189.45 12.8 194.55 L12.6 194.85 12.5 194.75 12.35 195.15 12.5 195.15 12.6 226.2 12.65 226.5 12.8 226.75 18.6 232.5 23.9 238.05" fill="#6e727b" fill-rule="evenodd" stroke="none"/>
    <path d="M15.35 195.55 L15.2 195.65 15.2 195.55 15.35 195.55" fill="#60646b" fill-rule="evenodd" stroke="none"/>
    <path d="M15.35 195.55 L16.55 196.1 16.7 196.05 16.4 223.55 16.35 223.6 16.15 223.4 16.3 223.6 15.2 224.25 15.3 224.5 15.2 224.4 14.95 223.8 15.35 195.55" fill="#57595d" fill-rule="evenodd" stroke="none"/>
    <path d="M25.65 233.9 L25.25 234.9 15.65 224.85 16.15 225.25 15.95 225.05 15.45 224.65 15.3 224.5 15.2 224.25 16.3 223.6 Q20.5 228.9 25.65 233.9 M24.6 236.4 L24.5 236.6 14.4 226.35 24.6 236.4 M12.8 194.55 L13.7 195.0 13.9 225.8 13.65 225.6 13.45 222.6 13.25 216.9 13.3 211.85 12.9 222.6 12.7 226.3 18.6 232.5 12.8 226.75 12.65 226.5 12.6 226.2 12.5 195.15 12.5 194.75 12.6 194.85 12.8 194.55 M16.4 223.55 L24.95 232.15 16.35 223.6 16.4 223.55" fill="#9498a1" fill-rule="evenodd" stroke="none"/>
    <path d="M26.0 233.2 L25.65 233.9 Q20.5 228.9 16.3 223.6 L16.15 223.4 16.35 223.6 24.95 232.15 26.0 233.2 M24.0 182.0 L24.1 182.3 13.7 195.0 12.8 194.55 Q16.75 189.45 24.0 182.0 M12.5 195.15 L12.35 195.15 12.5 194.75 12.5 195.15" fill="#e7e7e7" fill-rule="evenodd" stroke="none"/>
    <path d="M25.55 185.0 L25.95 186.35 25.85 186.15 25.85 186.45 16.7 195.95 16.7 195.9 16.7 196.0 16.55 196.1 15.35 195.55 15.25 195.45 25.55 185.0 M24.5 236.6 L23.9 238.05 18.6 232.5 12.7 226.3 12.9 222.6 13.3 211.85 13.25 216.9 13.45 222.6 13.65 225.6 13.9 225.8 14.4 226.35 24.5 236.6" fill="#4d525d" fill-rule="evenodd" stroke="none"/>
    <path d="M155.95 197.35 Q172.75 200.55 172.4 205.9 172.75 211.2 155.95 214.45 140.6 217.35 118.9 217.35 97.3 217.35 81.9 214.45 65.1 211.2 65.5 205.9 65.1 200.55 81.9 197.35 97.3 194.4 118.9 194.4 140.6 194.4 155.9 197.35 L155.95 197.35" fill="#d3bc70" fill-rule="evenodd" stroke="none"/>
    <path d="M155.95 197.35 L155.9 197.35 Q140.6 194.4 118.9 194.4 97.3 194.4 81.9 197.35 65.1 200.55 65.5 205.9 65.1 211.2 81.9 214.45 97.3 217.35 118.9 217.35 140.6 217.35 155.95 214.45 172.75 211.2 172.4 205.9 172.75 200.55 155.95 197.35 M189.5 207.7 Q190.8 215.35 167.45 220.5 144.1 225.65 117.5 226.0 90.9 226.35 70.7 221.45 50.5 216.5 50.8 207.35 53.65 200.05 75.3 195.9 93.4 192.4 118.9 192.4 144.5 192.4 162.6 195.9 184.3 200.05 189.5 207.7" fill="#d3bc70" fill-opacity="0.32156864" fill-rule="evenodd" stroke="none"/>
  </g>
</svg>
