<?xml version="1.0" encoding="UTF-8" standalone="no"?>
<svg xmlns:ffdec="https://www.free-decompiler.com/flash" xmlns:xlink="http://www.w3.org/1999/xlink" ffdec:objectType="shape" height="219.05px" width="403.65px" xmlns="http://www.w3.org/2000/svg">
  <g transform="matrix(1.0, 0.0, 0.0, 1.0, 78.05, 1.5)">
    <path d="M155.45 197.05 L154.25 211.85 151.85 211.8 151.75 196.9 155.45 197.05 M152.95 214.1 Q154.45 214.15 154.45 215.7 L154.45 215.9 Q154.3 217.55 153.0 217.55 L152.8 217.55 Q151.35 217.45 151.35 215.8 L151.35 215.75 Q151.35 214.1 152.85 214.1 L152.95 214.1 M148.95 196.85 L149.1 217.2 146.35 217.2 143.1 206.55 143.3 217.05 140.45 217.05 140.5 197.35 143.15 197.25 146.2 207.4 146.1 196.95 148.95 196.85 M133.45 202.0 L133.25 207.2 133.45 212.4 Q133.65 214.15 134.55 214.3 135.4 214.2 135.6 212.4 L135.85 207.2 135.6 202.0 Q135.4 200.2 134.55 200.1 L134.55 200.15 Q133.65 200.25 133.45 202.0 M134.45 196.95 Q137.25 197.05 137.95 199.65 138.65 202.25 138.65 207.2 138.65 212.15 137.95 214.75 137.2 217.35 134.45 217.45 131.6 217.25 130.95 214.7 130.25 212.15 130.25 207.2 130.25 202.25 130.95 199.7 131.65 197.15 134.45 197.0 L134.45 196.95 M129.5 196.85 L128.0 217.3 125.2 217.3 123.5 207.95 122.0 217.3 119.05 217.25 118.05 196.95 120.75 196.75 121.15 209.2 122.4 199.65 124.8 199.35 126.05 209.4 126.7 196.85 129.5 196.85 M105.9 197.65 Q105.4 203.3 105.55 206.9 105.45 211.0 105.65 212.3 105.85 213.6 106.85 213.9 107.85 214.05 108.05 212.25 L108.35 207.15 107.9 197.1 110.65 196.9 Q111.2 201.95 111.2 206.15 L111.15 208.15 111.15 208.65 Q111.15 216.85 107.2 217.2 L106.6 217.25 Q104.2 217.25 103.3 215.2 102.55 212.75 102.55 207.85 L102.55 206.85 102.55 205.6 Q102.55 202.45 103.0 197.45 L105.9 197.65 M96.85 197.0 L96.85 196.95 Q99.65 197.05 100.35 199.65 101.05 202.25 101.05 207.2 101.05 212.15 100.35 214.75 99.6 217.35 96.85 217.45 94.0 217.25 93.35 214.7 92.65 212.15 92.65 207.2 92.65 202.25 93.35 199.7 94.05 197.15 96.85 197.0 M96.95 200.1 L96.95 200.15 Q96.05 200.25 95.85 202.0 L95.65 207.2 95.85 212.4 Q96.05 214.15 96.95 214.3 97.8 214.2 98.0 212.4 L98.25 207.2 98.0 202.0 Q97.8 200.2 96.95 200.1 M86.45 196.95 L88.15 204.2 89.45 196.8 92.25 197.1 89.6 208.7 89.65 217.3 86.75 217.25 86.75 209.8 83.45 197.0 86.45 196.95" fill="#542b0e" fill-rule="evenodd" stroke="none"/>
    <path d="M124.65 183.2 L126.8 183.45 124.65 183.2 M114.6 159.4 Q134.15 153.15 153.15 153.0 148.5 161.5 154.75 172.65 L155.2 193.15 Q140.65 190.3 128.8 186.55 L125.7 185.85 Q126.2 185.55 123.55 183.05 L118.45 182.4 Q111.65 183.1 112.8 186.25 101.9 189.3 83.25 194.85 L81.8 173.3 Q93.3 166.05 82.85 152.3 96.4 156.85 114.6 159.4" fill="#190800" fill-opacity="0.30980393" fill-rule="evenodd" stroke="none"/>
    <path d="M116.65 170.3 L116.65 170.6 116.8 170.8 116.8 170.9 111.4 167.15 106.25 163.5 104.95 162.7 Q104.55 162.4 105.3 162.4 L107.6 163.2 Q110.45 164.4 112.95 165.9 115.7 167.65 116.9 169.85 L116.65 170.3" fill="#a63c09" fill-rule="evenodd" stroke="none"/>
    <path d="M126.95 155.9 L127.0 155.85 126.95 155.9" fill="#8c3309" fill-rule="evenodd" stroke="none"/>
    <path d="M149.9 165.4 L150.4 177.7 Q150.65 181.35 149.9 185.0 149.5 186.7 147.35 187.2 149.8 181.35 149.25 175.0 L149.25 174.95 149.15 174.35 Q148.8 170.0 149.25 165.75 149.25 165.35 149.9 165.4" fill="#b84710" fill-rule="evenodd" stroke="none"/>
    <path d="M119.95 178.3 L120.25 178.1 120.45 178.0 120.5 177.95 122.3 176.6 121.25 177.7 120.4 178.35 120.0 178.3 119.95 178.3" fill="#c6551f" fill-rule="evenodd" stroke="none"/>
    <path d="M125.05 178.8 Q128.4 175.5 129.45 171.75 L130.7 166.45 Q130.95 164.8 131.25 164.2 L130.5 165.35 128.65 167.85 128.4 168.45 127.7 169.25 127.85 168.65 Q128.0 167.45 127.05 166.25 L123.7 171.9 121.9 174.25 119.9 176.3 117.95 177.8 117.3 178.3 117.25 178.3 112.75 179.95 Q110.35 180.65 108.7 182.2 107.05 183.7 102.0 183.95 98.8 184.65 96.35 181.95 93.2 178.45 93.95 174.25 95.1 167.95 101.7 163.7 103.95 162.3 106.6 161.5 L106.7 161.6 106.75 161.6 109.05 162.85 Q111.75 164.35 114.2 166.05 L120.2 169.65 Q119.45 167.55 117.15 165.7 115.1 164.4 112.45 163.0 L111.15 162.5 111.1 162.5 110.45 162.3 107.3 161.5 107.05 161.4 106.75 161.4 Q109.9 160.45 113.65 160.3 128.1 158.7 134.85 163.65 141.6 168.6 142.5 170.75 L144.05 175.7 143.95 175.9 143.85 176.1 Q142.3 179.5 137.9 181.65 L137.4 181.85 133.05 182.35 Q129.7 182.25 125.05 178.9 L125.05 178.8 M116.65 170.3 L116.9 169.85 Q115.7 167.65 112.95 165.9 110.45 164.4 107.6 163.2 L105.3 162.4 Q104.55 162.4 104.95 162.7 L106.25 163.5 111.4 167.15 116.8 170.9 116.8 170.8 116.65 170.6 116.65 170.3" fill="#cc4200" fill-rule="evenodd" stroke="none"/>
    <path d="M90.7 153.65 Q93.35 155.6 98.65 156.3 105.0 157.2 107.75 158.15 110.45 159.1 113.45 159.6 116.5 160.1 122.85 157.75 129.2 155.3 130.1 155.1 L142.2 151.9 151.45 151.25 153.85 151.25 153.8 151.35 153.35 152.1 153.05 152.85 153.0 152.85 Q151.7 156.0 151.85 159.45 L151.4 163.05 Q151.0 166.35 151.7 169.7 152.3 172.1 152.35 174.65 152.55 179.0 150.8 183.2 150.45 184.1 150.6 185.0 150.9 186.8 148.3 187.5 146.65 187.95 144.95 187.55 L133.8 185.4 Q127.85 184.3 119.55 180.75 L119.65 180.75 Q120.5 180.75 123.3 179.2 125.1 178.2 125.05 178.8 L125.05 178.9 Q129.7 182.25 133.05 182.35 L137.4 181.85 134.9 182.85 Q140.35 183.1 144.05 179.85 148.0 176.35 146.0 172.55 144.9 173.9 144.05 175.7 L142.5 170.75 Q141.6 168.6 134.85 163.65 128.1 158.7 113.65 160.3 109.9 160.45 106.75 161.4 106.6 161.4 106.6 161.5 103.95 162.3 101.7 163.7 95.1 167.95 93.95 174.25 93.2 178.45 96.35 181.95 98.8 184.65 102.0 183.95 107.05 183.7 108.7 182.2 110.35 180.65 112.75 179.95 L117.25 178.3 Q113.75 180.75 108.9 182.7 115.55 181.3 119.95 178.3 L120.0 178.3 120.4 178.35 120.1 178.6 118.5 179.55 Q117.7 179.75 117.35 180.15 L114.35 181.65 Q109.55 183.7 98.2 187.35 86.8 190.9 86.7 189.1 L86.5 188.65 Q87.1 185.45 86.85 182.15 86.6 177.7 86.75 173.15 86.8 172.1 87.5 171.2 90.4 167.45 89.3 163.45 L88.8 162.25 Q88.7 159.2 86.45 155.65 L85.95 154.9 Q85.25 154.0 84.5 153.65 L83.6 153.15 Q83.55 152.95 81.45 152.35 L85.1 152.6 90.7 153.65 M149.9 165.4 Q149.25 165.35 149.25 165.75 148.8 170.0 149.15 174.35 L149.25 174.95 149.25 175.0 Q149.8 181.35 147.35 187.2 149.5 186.7 149.9 185.0 150.65 181.35 150.4 177.7 L149.9 165.4" fill="#af3900" fill-rule="evenodd" stroke="none"/>
    <path d="M126.95 155.9 L127.0 155.85 126.95 155.9 M90.7 153.65 L91.4 153.8 100.4 155.35 107.25 156.1 Q110.65 156.3 115.3 157.65 L115.35 157.65 115.5 157.55 115.55 157.55 117.5 156.95 125.3 154.85 130.25 153.75 Q136.2 152.55 142.2 151.9 L130.1 155.1 Q129.2 155.3 122.85 157.75 116.5 160.1 113.45 159.6 110.45 159.1 107.75 158.15 105.0 157.2 98.65 156.3 93.35 155.6 90.7 153.65 M128.4 168.45 Q128.55 169.7 127.15 172.7 125.75 175.7 120.1 178.6 L120.4 178.35 121.25 177.7 122.3 176.6 120.5 177.95 120.45 178.0 120.25 178.1 119.95 178.3 Q115.55 181.3 108.9 182.7 113.75 180.75 117.25 178.3 L117.3 178.3 117.95 177.8 119.9 176.3 121.9 174.25 123.7 171.9 127.05 166.25 Q128.0 167.45 127.85 168.65 L127.7 169.25 128.4 168.45 M137.4 181.85 L137.9 181.65 Q142.3 179.5 143.85 176.1 L143.95 175.9 144.05 175.7 Q144.9 173.9 146.0 172.55 148.0 176.35 144.05 179.85 140.35 183.1 134.9 182.85 L137.4 181.85 M106.75 161.4 L107.05 161.4 107.3 161.5 110.45 162.3 111.1 162.5 111.15 162.5 112.45 163.0 Q115.1 164.4 117.15 165.7 119.45 167.55 120.2 169.65 L114.2 166.05 Q111.75 164.35 109.05 162.85 L106.75 161.6 106.7 161.6 106.6 161.5 Q106.6 161.4 106.75 161.4" fill="#e84f06" fill-rule="evenodd" stroke="none"/>
    <path d="M151.85 159.45 Q151.9 162.2 152.9 165.15 L153.0 165.55 153.05 165.75 Q153.95 168.25 155.45 170.9 L154.95 193.3 Q132.5 187.15 123.0 182.7 L120.55 181.5 119.15 180.65 Q114.35 183.4 100.9 187.85 L83.9 193.1 82.5 171.55 Q85.75 169.65 87.35 167.35 L87.35 167.3 87.7 166.75 88.8 162.6 88.8 162.25 89.3 163.45 Q90.4 167.45 87.5 171.2 86.8 172.1 86.75 173.15 86.6 177.7 86.85 182.15 87.1 185.45 86.5 188.65 L86.7 189.1 Q86.8 190.9 98.2 187.35 109.55 183.7 114.35 181.65 L117.35 180.15 Q117.7 179.75 118.5 179.55 L120.1 178.6 Q125.75 175.7 127.15 172.7 128.55 169.7 128.4 168.45 L128.65 167.85 130.5 165.35 131.25 164.2 Q130.95 164.8 130.7 166.45 L129.45 171.75 Q128.4 175.5 125.05 178.8 125.1 178.2 123.3 179.2 120.5 180.75 119.65 180.75 L119.55 180.75 Q127.85 184.3 133.8 185.4 L144.95 187.55 Q146.65 187.95 148.3 187.5 150.9 186.8 150.6 185.0 150.45 184.1 150.8 183.2 152.55 179.0 152.35 174.65 152.3 172.1 151.7 169.7 151.0 166.35 151.4 163.05 L151.85 159.45" fill="#953000" fill-rule="evenodd" stroke="none"/>
    <path d="M261.25 17.15 L262.65 16.35 Q264.0 15.7 264.8 15.7 263.2 16.9 261.65 17.25 L261.25 17.15 M263.15 37.1 L263.25 37.8 263.15 38.7 262.25 39.1 261.25 37.85 Q261.25 36.5 263.05 36.9 L263.15 37.1 M279.7 122.2 Q280.5 123.15 280.5 123.7 L280.3 124.25 Q280.3 124.9 281.5 129.1 L281.3 129.6 280.5 129.9 Q279.55 129.9 278.8 127.15 L278.25 124.25 Q278.25 123.15 279.7 122.2 M152.1 18.05 Q151.35 19.95 151.0 23.65 L150.65 29.25 150.35 29.8 Q149.65 28.35 149.15 24.7 148.65 21.0 149.55 20.35 L152.1 18.05 M120.75 61.8 Q121.4 61.6 121.9 59.4 L121.55 62.85 121.3 64.25 121.0 64.25 120.65 63.8 Q120.35 63.5 120.2 62.75 120.05 62.0 120.75 61.8 M106.3 52.05 Q106.45 52.3 106.0 53.6 L105.6 53.7 105.5 53.25 Q105.75 52.2 106.3 52.05 M15.9 19.75 Q15.6 20.35 15.6 22.1 L15.2 22.0 15.2 20.15 Q15.6 19.75 15.9 19.75 M-76.1 1.5 Q-78.15 5.15 -77.65 6.4 L-77.85 6.6 Q-78.05 6.4 -78.05 5.15 -78.05 3.05 -76.1 1.5 M-10.85 93.85 L-10.65 94.95 -10.35 96.15 -10.35 96.25 Q-11.05 96.1 -11.25 95.55 L-11.25 93.85 -10.85 93.85 M-61.55 113.8 Q-60.65 115.45 -59.45 118.9 L-57.65 124.15 -58.0 124.35 Q-61.4 117.5 -61.85 113.8 L-61.55 113.8 M-67.3 171.85 L-66.35 173.45 -65.9 174.65 Q-65.9 175.65 -66.3 174.9 L-67.05 173.9 -67.7 172.45 -67.6 171.85 -67.3 171.95 -67.3 171.85" fill="#704635" fill-rule="evenodd" stroke="none"/>
    <path d="M83.3 -1.5 Q85.05 0.4 85.1 2.25 84.55 2.1 83.65 0.7 82.85 -0.6 82.85 -1.05 L83.1 -1.45 83.3 -1.5 M167.4 2.05 Q167.85 2.3 167.85 2.75 L167.4 3.0 167.05 2.95 167.0 2.55 167.2 2.1 167.4 2.05 M74.65 5.25 L75.35 5.85 75.15 6.05 74.6 5.6 74.5 5.25 74.65 5.25 M25.7 2.85 L25.7 2.9 24.6 2.35 23.6 1.7 Q24.95 2.1 25.7 2.85" fill="#9c6651" fill-rule="evenodd" stroke="none"/>
    <path d="M324.65 8.25 L323.75 8.4 Q323.55 8.85 323.55 8.0 323.55 6.05 325.4 6.1 L325.5 6.1 325.6 6.65 325.3 7.55 324.65 8.25 M281.25 5.6 Q281.25 6.45 280.35 7.3 L278.45 8.85 277.85 8.7 Q277.6 8.5 277.6 7.95 277.6 6.25 279.45 4.75 281.25 3.25 281.25 5.6 M253.2 29.35 L253.1 29.9 247.45 35.05 Q246.85 30.35 253.2 29.35 M243.7 64.1 L241.5 68.25 241.15 68.1 241.05 67.45 Q241.05 66.6 242.35 63.75 243.8 60.45 245.0 60.0 244.9 61.75 243.7 64.1 M147.5 12.85 Q146.55 12.85 146.3 12.25 L146.3 11.55 146.4 10.6 Q147.0 10.6 147.6 10.95 L148.5 11.85 148.4 12.35 148.25 12.7 147.5 12.85 M140.35 34.0 L140.25 34.75 140.3 34.9 139.85 35.0 Q139.4 35.0 137.95 32.65 L136.65 30.85 Q136.65 28.05 138.5 29.85 140.35 31.65 140.35 34.0 M97.3 39.55 L97.15 40.25 96.65 40.45 94.0 38.9 Q91.9 37.55 91.9 36.6 91.9 34.2 94.6 35.4 97.3 36.55 97.3 39.55 M8.05 27.65 Q3.8 23.75 -2.25 15.3 L-1.9 15.2 1.25 18.65 Q3.9 21.55 3.9 22.4 L8.15 27.4 8.05 27.65 M-31.3 12.95 L-31.25 13.85 Q-31.25 15.0 -31.9 15.65 L-32.55 15.65 -32.7 15.6 -32.75 15.05 Q-32.75 13.5 -31.85 12.45 L-31.3 12.95 M-31.05 41.15 L-32.25 42.7 -32.65 42.7 -31.9 41.65 Q-31.35 41.15 -31.05 41.15" fill="#9c6651" fill-rule="evenodd" stroke="none"/>
    <path d="M96.55 104.9 Q93.45 103.1 92.5 99.6 91.55 96.1 93.35 93.0 95.1 89.9 98.6 88.95 102.1 88.0 105.15 89.8 108.25 91.6 109.2 95.1 110.15 98.6 108.35 101.7 106.6 104.85 103.1 105.8 99.6 106.75 96.55 104.9" fill="url(#gradient0)" fill-rule="evenodd" stroke="none"/>
    <path d="M97.65 90.05 L98.0 96.1 92.05 97.85 97.85 100.25 96.8 106.75 96.85 106.65 Q99.55 104.65 101.7 101.75 L106.6 104.1 106.65 104.0 104.3 98.5 107.3 93.8 102.05 95.0 97.75 90.0 97.65 90.05" fill="#de9200" fill-rule="evenodd" stroke="none"/>
    <path d="M97.65 95.85 L91.65 97.55 97.45 99.95 97.25 106.2 101.3 101.45 107.15 103.5 103.95 98.25 107.75 93.25 101.65 94.75 98.15 89.6 97.65 95.85" fill="#ffc407" fill-rule="evenodd" stroke="none"/>
    <path d="M101.05 100.5 L101.65 100.55 104.9 101.7 103.1 98.7 Q102.95 98.5 102.95 98.15 L103.2 97.65 105.25 94.85 101.9 95.65 101.3 95.6 100.9 95.25 98.85 92.35 98.6 95.9 98.35 96.4 97.9 96.75 94.5 97.75 97.85 99.05 98.25 99.45 98.4 100.0 98.3 103.5 100.6 100.85 101.05 100.5" fill="#ffe085" fill-rule="evenodd" stroke="none"/>
    <path d="M129.55 102.5 Q127.65 99.3 128.6 95.75 129.55 92.2 132.8 90.4 136.1 88.55 139.8 89.55 143.55 90.55 145.4 93.75 147.35 96.95 146.4 100.5 145.45 104.05 142.15 105.85 138.95 107.7 135.2 106.7 131.5 105.7 129.55 102.5" fill="url(#gradient1)" fill-rule="evenodd" stroke="none"/>
    <path d="M140.85 100.65 L142.0 107.5 141.85 107.45 Q139.0 105.3 136.75 102.2 L131.45 104.55 133.9 98.8 130.8 93.75 136.35 95.1 140.9 89.75 141.05 89.75 140.65 96.25 147.0 98.1 140.85 100.65" fill="#de9200" fill-rule="evenodd" stroke="none"/>
    <path d="M141.4 96.4 L147.75 98.3 141.65 100.8 141.85 107.45 137.5 102.4 131.25 104.6 134.75 98.95 130.65 93.7 137.1 95.25 140.9 89.8 141.4 96.4" fill="#ffc407" fill-rule="evenodd" stroke="none"/>
    <path d="M135.7 98.85 L135.55 98.3 133.25 95.35 136.85 96.25 137.45 96.2 137.95 95.8 140.1 92.75 140.35 96.45 140.6 97.05 141.1 97.4 144.7 98.4 141.25 99.85 140.75 100.2 140.6 100.8 140.7 104.6 138.25 101.75 Q138.05 101.45 137.75 101.4 L137.1 101.45 133.65 102.7 135.6 99.45 135.7 98.85" fill="#ffe085" fill-rule="evenodd" stroke="none"/>
    <path d="M106.95 87.6 Q106.95 82.65 110.6 79.1 114.2 75.6 119.4 75.6 124.6 75.6 128.2 79.1 131.85 82.65 131.85 87.6 131.85 92.55 128.2 96.1 124.6 99.6 119.4 99.6 114.2 99.6 110.6 96.1 106.95 92.55 106.95 87.6" fill="url(#gradient2)" fill-rule="evenodd" stroke="none"/>
    <path d="M107.35 84.5 L115.1 84.3 119.2 75.75 119.35 75.7 121.1 84.3 130.05 84.5 122.95 90.0 126.8 98.6 126.6 98.5 Q122.15 96.7 118.1 93.5 L112.15 98.6 112.0 98.5 113.25 90.0 107.35 84.5" fill="#de9200" fill-rule="evenodd" stroke="none"/>
    <path d="M122.35 84.3 L131.35 84.5 124.2 89.95 126.75 98.55 119.35 93.5 111.95 98.55 114.55 89.95 107.4 84.5 116.35 84.3 119.35 75.8 122.35 84.3" fill="#ffc407" fill-rule="evenodd" stroke="none"/>
    <path d="M119.35 92.1 Q118.9 92.1 118.55 92.35 L114.45 95.2 115.85 90.35 115.85 89.5 115.35 88.85 111.35 85.8 116.4 85.65 117.15 85.4 117.65 84.75 119.35 79.95 121.05 84.75 121.55 85.4 122.35 85.65 127.4 85.8 123.35 88.85 122.85 89.5 122.85 90.35 124.3 95.2 120.15 92.35 119.35 92.1" fill="#ffe085" fill-rule="evenodd" stroke="none"/>
  </g>
  <defs>
    <radialGradient cx="0" cy="0" gradientTransform="matrix(0.0093, -0.0025, 0.0026, 0.0096, 101.15, 97.75)" gradientUnits="userSpaceOnUse" id="gradient0" r="819.2" spreadMethod="pad">
      <stop offset="0.11764705882352941" stop-color="#7e610c"/>
      <stop offset="0.9921568627450981" stop-color="#7e610c" stop-opacity="0.03137255"/>
    </radialGradient>
    <radialGradient cx="0" cy="0" gradientTransform="matrix(0.0099, 0.0027, -0.0026, 0.0098, 137.55, 98.65)" gradientUnits="userSpaceOnUse" id="gradient1" r="819.2" spreadMethod="pad">
      <stop offset="0.11764705882352941" stop-color="#7e610c"/>
      <stop offset="0.9921568627450981" stop-color="#7e610c" stop-opacity="0.03137255"/>
    </radialGradient>
    <radialGradient cx="0" cy="0" gradientTransform="matrix(0.0139, 0.0, 0.0, 0.0137, 119.7, 88.2)" gradientUnits="userSpaceOnUse" id="gradient2" r="819.2" spreadMethod="pad">
      <stop offset="0.11764705882352941" stop-color="#7e610c"/>
      <stop offset="0.9921568627450981" stop-color="#7e610c" stop-opacity="0.03137255"/>
    </radialGradient>
  </defs>
</svg>
