<?xml version="1.0" encoding="UTF-8" standalone="no"?>
<svg xmlns:ffdec="https://www.free-decompiler.com/flash" xmlns:xlink="http://www.w3.org/1999/xlink" ffdec:objectType="shape" height="284.65px" width="416.35px" xmlns="http://www.w3.org/2000/svg">
  <g transform="matrix(1.0, 0.0, 0.0, 1.0, 88.85, -16.9)">
    <path d="M327.2 17.45 L327.35 20.5 324.65 20.45 324.6 39.45 321.75 39.35 321.8 20.95 321.5 20.95 321.5 20.45 319.0 20.4 319.05 17.4 327.2 17.45 M327.45 44.95 L327.5 47.9 323.65 47.95 323.6 52.3 323.9 52.3 323.9 52.8 326.7 52.85 326.6 55.9 323.55 55.85 323.45 63.05 323.75 63.05 323.75 63.55 327.45 63.6 327.35 66.75 320.55 66.65 320.9 44.9 327.45 44.95 M307.6 17.65 L307.65 20.6 303.8 20.65 303.75 25.0 304.05 25.0 304.05 25.5 306.85 25.55 306.75 28.6 303.7 28.55 303.6 35.75 303.9 35.75 303.9 36.25 307.6 36.3 307.5 39.45 300.7 39.35 301.05 17.6 307.6 17.65 M310.45 27.25 L310.25 26.85 Q309.05 24.8 309.35 22.2 L309.7 20.5 Q310.45 17.7 313.6 17.5 L314.75 17.7 315.55 18.1 316.45 18.95 316.85 19.95 Q317.45 22.05 317.6 24.75 L314.8 24.85 314.6 23.0 Q314.4 21.55 314.0 21.15 313.75 20.5 313.35 20.45 312.4 20.6 312.2 22.55 311.95 23.65 312.9 25.05 L312.95 25.1 314.3 26.85 317.0 30.0 317.05 30.05 Q317.65 31.55 317.65 33.15 317.65 34.8 317.05 36.55 316.35 39.4 313.5 39.65 311.3 39.6 310.25 38.1 L309.9 37.2 Q309.3 35.15 309.05 32.95 L311.95 32.6 312.15 34.1 Q312.3 35.35 312.75 35.85 313.05 36.6 313.65 36.65 314.35 36.5 314.55 34.55 314.9 32.9 313.9 31.4 L312.75 29.9 310.45 27.25 M290.2 39.35 L290.15 17.75 291.95 17.65 292.85 17.65 Q295.45 17.65 296.35 18.15 297.15 18.5 297.7 19.2 298.3 20.35 298.35 22.25 298.45 25.7 296.35 27.6 L296.8 28.0 296.65 28.1 297.8 29.3 Q298.55 30.6 298.6 32.6 298.6 37.9 295.85 38.95 L293.0 39.55 292.7 39.55 290.2 39.35 M294.9 21.8 L294.75 21.5 Q294.35 20.85 293.6 20.75 L293.1 20.75 293.0 20.75 293.05 26.6 293.35 26.65 293.35 27.1 Q294.5 27.25 295.1 26.15 295.55 25.3 295.5 24.1 295.45 22.65 295.05 22.0 L294.9 21.8 M293.35 36.7 L293.35 37.2 Q294.8 37.2 295.5 35.95 L295.7 33.35 Q295.65 31.65 295.1 31.0 L294.7 30.4 Q294.2 29.9 293.0 29.8 L293.05 36.7 293.35 36.7 M283.85 45.0 L284.6 45.4 285.5 46.25 285.9 47.25 Q286.5 49.35 286.65 52.05 L283.85 52.15 283.65 50.3 Q283.45 48.85 283.05 48.45 L283.2 49.0 Q282.95 47.85 282.4 47.75 281.45 47.9 281.25 49.85 281.0 50.95 281.95 52.35 L282.0 52.4 283.35 54.15 286.05 57.3 286.1 57.35 Q286.7 58.85 286.7 60.45 286.7 62.1 286.1 63.85 285.4 66.7 282.55 66.95 280.35 66.9 279.3 65.4 L278.95 64.5 Q278.35 62.45 278.1 60.25 L281.0 59.9 281.2 61.4 Q281.35 62.65 281.8 63.15 282.1 63.9 282.7 63.95 283.4 63.8 283.6 61.85 283.95 60.2 282.95 58.7 L281.8 57.2 Q280.3 55.8 279.5 54.55 L279.3 54.15 Q278.1 52.1 278.4 49.5 L278.75 47.8 Q279.5 45.0 282.65 44.8 L283.85 45.0 M296.1 46.4 L296.45 47.35 Q297.0 49.35 297.15 52.7 L294.4 53.05 294.2 50.4 Q294.05 49.15 293.6 48.65 293.3 47.9 292.7 47.85 291.75 48.0 291.5 49.95 L291.3 55.65 291.5 61.4 Q291.65 62.65 292.1 63.15 292.4 63.9 293.0 64.0 293.95 63.9 294.2 61.9 L294.4 58.7 297.2 58.85 Q297.0 62.0 296.45 64.0 295.65 66.85 292.6 66.95 290.4 66.8 289.4 65.4 L289.05 64.45 Q288.3 61.6 288.3 56.15 288.3 50.7 289.05 47.9 289.75 45.05 292.9 44.85 295.05 44.9 296.1 46.4 M304.05 48.65 Q303.75 47.85 303.15 47.8 L303.15 47.85 Q302.2 47.95 301.95 49.9 L301.75 55.65 301.95 61.35 Q302.1 62.6 302.55 63.15 302.85 63.9 303.45 63.95 L303.45 64.0 Q304.4 63.9 304.65 61.9 L304.9 56.15 304.65 50.4 Q304.5 49.1 304.05 48.65 M299.85 65.3 L299.5 64.4 Q298.75 61.6 298.75 56.1 298.75 50.7 299.5 47.9 300.25 45.05 303.4 44.85 305.5 44.9 306.5 46.3 L306.9 47.3 Q307.7 50.2 307.7 55.65 307.7 61.1 306.9 64.0 306.1 66.85 303.05 66.95 300.85 66.8 299.85 65.3 M309.4 66.65 L309.7 66.65 309.75 45.1 312.55 44.85 315.35 45.1 Q316.4 45.4 317.1 46.4 318.05 48.3 318.2 52.0 318.05 55.95 316.1 57.55 L318.95 66.55 316.0 66.95 313.65 59.25 313.35 58.75 313.2 58.45 313.3 58.75 312.6 58.75 312.6 66.75 309.4 66.65 M313.15 55.5 L312.85 55.55 312.8 55.55 313.15 55.5 M312.55 55.55 L312.05 55.55 314.55 55.45 Q315.2 54.85 315.3 52.25 L315.05 48.95 314.65 48.2 Q314.1 46.9 312.6 47.2 L312.55 55.55" fill="#333333" fill-rule="evenodd" stroke="none"/>
    <path d="M321.75 39.35 L321.45 39.3 321.5 20.95 321.8 20.95 321.75 39.35 M319.0 20.4 L318.7 20.4 318.75 16.9 327.15 16.95 327.2 17.45 319.05 17.4 319.0 20.4 M323.9 52.3 L326.7 52.35 326.7 52.85 323.9 52.8 323.9 52.3 M323.75 63.05 L327.45 63.1 327.45 63.6 323.75 63.55 323.75 63.05 M320.55 66.65 L320.25 66.65 320.6 44.4 327.4 44.45 327.45 44.95 320.9 44.9 320.55 66.65 M307.6 17.65 L301.05 17.6 300.7 39.35 300.4 39.35 300.75 17.1 307.55 17.15 307.6 17.65 M307.6 36.3 L303.9 36.25 303.9 35.75 307.6 35.8 307.6 36.3 M306.85 25.55 L304.05 25.5 304.05 25.0 306.85 25.05 306.85 25.55 M310.45 27.25 L310.05 26.55 309.95 26.35 Q308.75 24.3 309.05 21.7 L309.4 20.0 Q310.15 17.2 313.3 17.0 L314.75 17.7 313.6 17.5 Q310.45 17.7 309.7 20.5 L309.35 22.2 Q309.05 24.8 310.25 26.85 L310.45 27.25 M315.55 18.1 L316.05 18.3 316.5 18.95 316.45 18.95 315.55 18.1 M314.8 24.85 L314.5 24.85 314.3 22.5 314.3 22.3 314.3 22.25 314.15 21.55 314.1 21.4 314.0 21.15 Q314.4 21.55 314.6 23.0 L314.8 24.85 M312.9 25.05 L312.9 25.0 313.4 25.65 313.9 26.25 314.0 26.35 Q316.15 28.55 317.0 29.95 L317.0 30.0 314.3 26.85 312.95 25.1 312.9 25.05 M310.25 38.1 L309.65 36.8 309.6 36.7 Q309.0 34.65 308.75 32.45 L311.85 32.05 311.95 32.6 309.05 32.95 Q309.3 35.15 309.9 37.2 L310.25 38.1 M312.75 35.85 Q313.0 36.15 313.35 36.15 314.05 36.0 314.25 34.05 314.55 32.7 313.9 31.4 314.9 32.9 314.55 34.55 314.35 36.5 313.65 36.65 313.05 36.6 312.75 35.85 M297.7 19.2 Q297.15 18.5 296.35 18.15 295.45 17.65 292.85 17.65 L291.95 17.65 290.15 17.75 290.2 39.35 289.9 39.3 289.85 17.25 291.65 17.15 292.55 17.15 Q295.15 17.15 296.05 17.65 L296.25 17.75 297.1 18.35 297.75 19.25 297.7 19.2 M297.8 29.3 L296.65 28.1 296.8 28.0 296.95 28.1 297.3 28.5 297.45 28.7 297.85 29.3 297.8 29.3 M293.35 26.65 L293.5 26.65 293.75 26.6 294.65 25.9 294.7 25.85 294.75 25.75 294.8 25.65 Q295.25 24.8 295.2 23.6 L295.2 23.45 295.2 23.2 295.0 22.1 294.9 21.8 295.05 22.0 Q295.45 22.65 295.5 24.1 295.55 25.3 295.1 26.15 294.5 27.25 293.35 27.1 L293.35 26.65 M295.1 31.0 Q295.65 31.65 295.7 33.35 L295.5 35.95 Q294.8 37.2 293.35 37.2 L293.35 36.7 Q294.55 36.55 295.2 35.45 L295.4 32.85 295.4 32.7 295.1 31.0 M284.6 45.4 L285.1 45.6 285.55 46.25 285.5 46.25 284.6 45.4 M283.85 52.15 L283.55 52.15 283.35 49.8 283.35 49.6 283.3 49.5 283.2 49.0 283.05 48.45 Q283.45 48.85 283.65 50.3 L283.85 52.15 M281.95 52.35 L281.95 52.3 282.45 52.95 282.95 53.55 283.05 53.65 Q285.2 55.85 286.05 57.25 L286.05 57.3 283.35 54.15 282.0 52.4 281.95 52.35 M279.3 65.4 L278.75 64.3 278.65 64.0 Q278.05 61.95 277.8 59.75 L280.9 59.35 281.0 59.9 278.1 60.25 Q278.35 62.45 278.95 64.5 L279.3 65.4 M281.8 63.15 Q282.05 63.45 282.4 63.45 283.1 63.3 283.3 61.35 283.6 60.0 282.95 58.7 283.95 60.2 283.6 61.85 283.4 63.8 282.7 63.95 282.1 63.9 281.8 63.15 M279.5 54.55 L279.05 53.75 279.0 53.65 Q277.8 51.6 278.1 49.0 L278.45 47.3 Q279.2 44.5 282.35 44.3 L283.85 45.0 282.65 44.8 Q279.5 45.0 278.75 47.8 L278.4 49.5 Q278.1 52.1 279.3 54.15 L279.5 54.55 M289.4 65.4 Q288.95 64.8 288.75 63.95 288.0 61.1 288.0 55.65 288.0 50.2 288.75 47.4 289.45 44.55 292.6 44.35 295.1 44.45 296.1 46.4 295.05 44.9 292.9 44.85 289.75 45.05 289.05 47.9 288.3 50.7 288.3 56.15 288.3 61.6 289.05 64.45 L289.4 65.4 M294.4 53.05 L294.1 53.05 293.9 49.9 293.6 48.65 Q294.05 49.15 294.2 50.4 L294.4 53.05 M292.1 63.15 L292.7 63.5 Q293.65 63.4 293.9 61.4 L294.1 58.2 297.2 58.35 297.2 58.85 294.4 58.7 294.2 61.9 Q293.95 63.9 293.0 64.0 292.4 63.9 292.1 63.15 M302.55 63.15 Q302.8 63.4 303.15 63.45 L303.15 63.5 Q304.1 63.4 304.35 61.4 L304.6 55.65 304.35 49.9 304.05 48.65 Q304.5 49.1 304.65 50.4 L304.9 56.15 304.65 61.9 Q304.4 63.9 303.45 64.0 L303.45 63.95 Q302.85 63.9 302.55 63.15 M299.85 65.3 L299.85 65.4 299.5 64.75 299.25 64.1 299.2 63.9 Q298.45 61.1 298.45 55.6 298.45 50.2 299.2 47.4 299.95 44.55 303.1 44.35 L303.4 44.4 Q304.75 44.45 305.65 45.2 L306.55 46.3 306.5 46.3 Q305.5 44.9 303.4 44.85 300.25 45.05 299.5 47.9 298.75 50.7 298.75 56.1 298.75 61.6 299.5 64.4 L299.85 65.3 M309.4 66.65 L309.45 44.6 312.25 44.35 315.05 44.6 Q316.3 44.95 317.1 46.4 316.4 45.4 315.35 45.1 L312.55 44.85 309.75 45.1 309.7 66.65 309.4 66.65 M316.0 66.95 L315.85 66.95 313.3 58.75 313.2 58.45 313.35 58.75 313.65 59.25 316.0 66.95 M313.15 55.5 L313.25 55.45 314.15 55.05 314.25 54.95 Q314.9 54.35 315.0 51.75 L314.75 48.45 314.65 48.2 315.05 48.95 315.3 52.25 Q315.2 54.85 314.55 55.45 L312.05 55.55 312.55 55.55 312.8 55.55 312.85 55.55 313.15 55.5" fill="#808080" fill-rule="evenodd" stroke="none"/>
    <path d="M-38.7 45.2 L-38.65 48.15 -42.5 48.2 -42.55 52.55 -42.25 53.05 -39.45 53.1 -39.45 52.6 -39.55 56.15 -42.6 56.1 -42.7 63.3 -43.05 63.3 -38.7 63.85 -38.7 63.35 -38.8 67.0 -45.6 66.9 -45.25 45.15 -38.7 45.2 M-57.2 39.6 L-57.0 39.6 -56.95 18.05 -54.15 17.8 -51.35 18.05 Q-50.3 18.35 -49.6 19.35 -50.4 17.9 -51.65 17.55 L-52.7 17.4 -51.55 17.55 Q-48.65 18.35 -48.4 24.95 -48.55 28.9 -50.5 30.5 L-47.65 39.5 -50.7 39.9 -53.05 32.2 -53.1 32.2 -53.25 31.7 -54.0 31.7 -54.0 39.7 -57.2 39.6 M-59.5 17.25 L-59.4 17.25 Q-58.8 22.8 -58.8 27.45 L-58.85 29.65 -58.85 30.2 Q-58.85 39.2 -63.2 39.65 L-63.9 39.7 Q-66.35 39.7 -67.4 37.7 -68.15 35.0 -68.15 29.8 L-68.15 28.7 -68.15 27.35 -67.65 18.35 -64.8 18.55 -64.75 18.05 -64.65 18.05 Q-65.2 24.3 -65.05 28.25 -65.15 32.75 -64.9 34.2 -64.7 35.65 -63.6 36.0 L-63.7 36.0 Q-64.2 35.85 -64.5 35.5 -64.15 36.25 -63.4 36.5 -62.3 36.6 -62.05 34.65 L-61.75 29.05 -62.25 17.95 -59.45 17.8 -59.5 17.25 M-51.85 21.4 Q-52.35 19.8 -54.0 20.15 L-54.05 28.5 -55.05 28.5 -52.15 28.4 Q-51.5 27.8 -51.4 25.2 -51.4 22.65 -51.65 21.9 L-51.8 21.45 -51.85 21.4 M-54.05 28.5 L-53.4 28.4 -53.85 28.5 -54.05 28.5 M-74.35 17.3 Q-71.3 17.4 -70.55 20.25 -69.75 23.15 -69.75 28.6 -69.75 34.05 -70.55 36.95 -71.35 39.8 -74.4 39.9 -77.0 39.75 -77.95 37.7 L-78.05 37.35 Q-78.8 34.55 -78.8 29.05 -78.8 23.65 -78.05 20.85 -77.3 18.0 -74.15 17.8 -72.0 17.85 -71.0 19.3 -71.95 17.45 -74.35 17.3 M-83.55 25.05 L-83.4 25.8 -81.95 17.6 -79.3 17.9 -79.2 17.45 -79.75 17.4 -79.1 17.45 -82.0 30.25 -81.95 39.75 -84.9 39.7 -84.95 31.95 -88.55 17.85 -85.4 17.8 -85.55 17.3 -85.45 17.3 -83.6 25.3 -83.55 25.05 M-74.3 36.45 L-74.4 36.45 -74.4 36.4 -75.0 36.1 Q-74.7 36.85 -74.1 36.9 L-74.1 36.95 Q-73.15 36.85 -72.9 34.85 -72.65 32.85 -72.65 29.1 -72.65 25.35 -72.9 23.35 -73.0 22.35 -73.3 21.9 -73.6 20.8 -74.3 20.75 L-74.3 20.8 Q-75.25 20.9 -75.5 22.85 L-75.7 28.6 -75.5 34.3 Q-75.25 36.3 -74.3 36.4 L-74.3 36.45 M-76.75 65.65 L-77.1 64.7 Q-77.85 61.85 -77.85 56.4 -77.85 50.95 -77.1 48.15 -76.4 45.3 -73.25 45.1 -71.1 45.15 -70.05 46.65 L-69.7 47.6 Q-69.15 49.6 -69.0 52.95 L-71.75 53.3 -71.95 50.65 Q-72.1 49.4 -72.55 48.9 -72.85 48.15 -73.45 48.1 -74.4 48.25 -74.65 50.2 L-74.85 55.9 -74.65 61.65 Q-74.5 62.9 -74.05 63.4 L-73.15 64.25 Q-72.2 64.15 -71.95 62.15 L-71.75 58.95 -68.95 59.1 Q-69.15 62.25 -69.7 64.25 -70.5 67.1 -73.55 67.2 -75.75 67.05 -76.75 65.65 M-62.05 48.9 Q-62.35 48.1 -62.95 48.05 L-62.95 48.1 Q-63.9 48.2 -64.15 50.15 L-64.35 55.9 -64.15 61.6 Q-64.0 62.85 -63.55 63.4 -63.25 64.15 -62.65 64.2 L-62.65 64.25 Q-61.7 64.15 -61.45 62.15 -61.2 60.15 -61.2 56.4 -61.2 52.65 -61.45 50.65 -61.6 49.35 -62.05 48.9 M-59.6 46.55 L-59.2 47.55 Q-58.4 50.45 -58.4 55.9 -58.4 61.35 -59.2 64.25 -60.0 67.1 -63.05 67.2 -65.25 67.05 -66.25 65.55 L-66.6 64.65 Q-67.35 61.85 -67.35 56.35 -67.35 50.95 -66.6 48.15 -65.85 45.3 -62.7 45.1 -60.6 45.15 -59.6 46.55 M-56.7 66.9 L-56.4 66.9 -56.35 45.35 -53.55 45.1 -50.75 45.35 Q-49.7 45.65 -49.0 46.65 -48.05 48.55 -47.9 52.25 -48.05 56.2 -50.0 57.8 L-47.15 66.8 -50.1 67.2 Q-51.85 62.25 -52.45 59.5 L-52.6 59.55 -52.75 59.0 -53.5 59.0 -53.5 67.0 -56.7 66.9 M-52.65 55.65 L-53.25 55.8 -53.35 55.8 -52.65 55.65 M-53.55 55.8 L-53.75 55.8 -51.55 55.7 Q-50.9 55.1 -50.8 52.5 -50.8 49.95 -51.05 49.2 L-51.45 48.45 Q-52.0 47.15 -53.5 47.45 L-53.55 55.8 M-82.3 45.25 L-81.55 45.65 -80.65 46.5 -80.25 47.5 Q-79.65 49.6 -79.5 52.3 L-82.3 52.4 -82.5 50.55 Q-82.7 49.1 -83.1 48.7 -83.35 48.05 -83.75 48.0 -84.7 48.15 -84.9 50.1 -85.15 51.2 -84.15 52.65 L-82.8 54.4 Q-80.95 56.25 -80.05 57.6 -79.45 59.1 -79.45 60.7 -79.45 62.35 -80.05 64.1 -80.75 66.95 -83.6 67.2 -85.8 67.15 -86.85 65.65 L-87.2 64.75 -88.05 60.5 -85.15 60.15 -84.95 61.65 Q-84.8 62.9 -84.35 63.4 -84.05 64.15 -83.45 64.2 -82.75 64.05 -82.55 62.1 -82.2 60.45 -83.2 58.95 -83.6 58.2 -84.35 57.45 -86.35 55.55 -87.1 54.0 L-86.65 54.8 -86.85 54.4 Q-88.05 52.35 -87.75 49.75 L-87.4 48.05 Q-86.65 45.25 -83.5 45.05 L-82.3 45.25" fill="#333333" fill-rule="evenodd" stroke="none"/>
    <path d="M-45.6 66.9 L-45.9 66.9 -45.55 44.65 -38.75 44.7 -38.7 45.2 -45.25 45.15 -45.6 66.9 M-42.55 52.55 L-39.45 52.6 -39.45 53.1 -42.25 53.05 -42.55 52.55 M-42.7 63.3 L-38.7 63.35 -38.7 63.85 -43.05 63.3 -42.7 63.3 M-52.7 17.4 L-51.65 17.55 Q-50.4 17.9 -49.6 19.35 -50.3 18.35 -51.35 18.05 L-54.15 17.8 -56.95 18.05 -57.0 39.6 -57.2 39.6 -57.3 39.6 -57.25 17.55 -56.4 17.45 -54.45 17.3 -54.35 17.3 -52.7 17.4 M-53.1 32.2 L-53.05 32.2 -50.7 39.9 -50.85 39.9 -53.2 32.25 -53.1 32.2 M-59.5 17.25 L-59.45 17.8 -62.25 17.95 -61.75 29.05 -62.05 34.65 Q-62.3 36.6 -63.4 36.5 -64.15 36.25 -64.5 35.5 -64.2 35.85 -63.7 36.0 L-63.6 36.0 -63.55 36.0 Q-62.6 35.95 -62.35 34.15 L-62.05 28.55 -62.55 17.45 -59.5 17.25 M-64.75 18.05 L-64.8 18.55 -67.65 18.35 -68.15 27.35 -68.15 28.7 -68.15 29.8 Q-68.15 35.0 -67.4 37.7 L-67.35 37.9 -67.2 38.2 -67.65 37.4 Q-68.45 34.7 -68.45 29.3 L-68.45 28.2 -68.45 26.85 -67.95 17.85 -67.85 17.85 -64.75 18.05 M-51.85 21.4 L-51.8 21.45 -51.65 21.9 Q-51.4 22.65 -51.4 25.2 -51.5 27.8 -52.15 28.4 L-55.05 28.5 -54.05 28.5 -53.85 28.5 -53.4 28.4 Q-52.8 28.25 -52.45 27.9 -51.8 27.3 -51.7 24.7 -51.7 22.15 -51.95 21.4 L-52.05 21.15 -51.85 21.4 M-77.95 37.7 L-77.7 38.35 -78.35 36.85 Q-79.1 34.05 -79.1 28.55 -79.1 23.15 -78.35 20.35 -77.7 17.85 -75.15 17.4 L-74.45 17.3 -74.35 17.3 Q-71.95 17.45 -71.0 19.3 -72.0 17.85 -74.15 17.8 -77.3 18.0 -78.05 20.85 -78.8 23.65 -78.8 29.05 -78.8 34.55 -78.05 37.35 L-77.95 37.7 M-79.75 17.4 L-79.2 17.45 -79.3 17.9 -81.95 17.6 -83.4 25.8 -83.55 25.05 -83.6 24.85 -82.25 17.1 -82.15 17.1 -79.9 17.35 -79.75 17.4 M-85.55 17.3 L-85.4 17.8 -88.55 17.85 -84.95 31.95 -84.9 39.7 -85.2 39.7 -85.25 31.45 -88.85 17.35 -85.55 17.3 M-73.3 21.9 Q-73.0 22.35 -72.9 23.35 -72.65 25.35 -72.65 29.1 -72.65 32.85 -72.9 34.85 -73.15 36.85 -74.1 36.95 L-74.1 36.9 Q-74.7 36.85 -75.0 36.1 L-74.4 36.4 -74.4 36.45 -74.3 36.45 Q-73.45 36.25 -73.2 34.35 -72.95 32.35 -72.95 28.6 -72.95 24.85 -73.2 22.85 -73.3 22.05 -73.5 21.6 L-73.3 21.9 M-76.75 65.65 L-77.4 64.2 Q-78.15 61.35 -78.15 55.9 -78.15 50.45 -77.4 47.65 -76.7 44.8 -73.55 44.6 -71.05 44.7 -70.05 46.65 -71.1 45.15 -73.25 45.1 -76.4 45.3 -77.1 48.15 -77.85 50.95 -77.85 56.4 -77.85 61.85 -77.1 64.7 L-76.75 65.65 M-71.75 53.3 L-72.05 53.3 -72.25 50.15 -72.55 48.9 Q-72.1 49.4 -71.95 50.65 L-71.75 53.3 M-74.05 63.4 L-73.45 63.75 Q-72.5 63.65 -72.25 61.65 L-72.05 58.45 -68.95 58.6 -68.95 59.1 -71.75 58.95 -71.95 62.15 Q-72.2 64.15 -73.15 64.25 L-74.05 63.4 M-63.55 63.4 Q-63.3 63.65 -62.95 63.7 L-62.95 63.75 Q-62.0 63.65 -61.75 61.65 -61.5 59.65 -61.5 55.9 -61.5 52.15 -61.75 50.15 -61.85 49.35 -62.05 48.9 -61.6 49.35 -61.45 50.65 -61.2 52.65 -61.2 56.4 -61.2 60.15 -61.45 62.15 -61.7 64.15 -62.65 64.25 L-62.65 64.2 Q-63.25 64.15 -63.55 63.4 M-66.25 65.55 L-66.25 65.65 -66.6 65.0 -66.85 64.35 -66.9 64.15 Q-67.65 61.35 -67.65 55.85 -67.65 50.45 -66.9 47.65 -66.15 44.8 -63.0 44.6 L-62.7 44.65 Q-61.35 44.7 -60.45 45.45 L-59.55 46.6 -59.6 46.55 Q-60.6 45.15 -62.7 45.1 -65.85 45.3 -66.6 48.15 -67.35 50.95 -67.35 56.35 -67.35 61.85 -66.6 64.65 L-66.25 65.55 M-56.7 66.9 L-56.65 44.85 -53.85 44.6 -51.05 44.85 Q-49.8 45.2 -49.0 46.65 -49.7 45.65 -50.75 45.35 L-53.55 45.1 -56.35 45.35 -56.4 66.9 -56.7 66.9 M-50.1 67.2 L-50.25 67.2 -52.6 59.55 -52.45 59.5 Q-51.85 62.25 -50.1 67.2 M-52.65 55.65 L-51.95 55.3 -51.9 55.25 -51.85 55.2 Q-51.2 54.6 -51.1 52.0 -51.1 49.45 -51.35 48.7 L-51.45 48.45 -51.05 49.2 Q-50.8 49.95 -50.8 52.5 -50.9 55.1 -51.55 55.7 L-53.75 55.8 -53.55 55.8 -53.35 55.8 -53.25 55.8 -52.65 55.65 M-87.1 54.0 L-87.15 53.9 Q-88.35 51.85 -88.05 49.25 L-87.7 47.55 Q-86.95 44.75 -83.8 44.55 L-82.3 45.25 -83.5 45.05 Q-86.65 45.25 -87.4 48.05 L-87.75 49.75 Q-88.05 52.35 -86.85 54.4 L-86.65 54.8 -87.1 54.0 M-81.55 45.65 L-81.05 45.85 -80.6 46.5 -80.65 46.5 -81.55 45.65 M-82.3 52.4 L-82.6 52.4 -82.8 50.05 -82.8 49.85 -82.8 49.8 -82.95 49.1 -83.0 48.95 -83.1 48.7 Q-82.7 49.1 -82.5 50.55 L-82.3 52.4 M-84.15 52.65 L-84.2 52.55 -83.8 53.1 -83.1 53.9 Q-80.95 56.1 -80.1 57.5 L-80.05 57.6 Q-80.95 56.25 -82.8 54.4 L-84.15 52.65 M-86.85 65.65 L-87.4 64.55 -87.5 64.25 Q-88.1 62.2 -88.35 60.0 L-85.25 59.6 -85.15 60.15 -88.05 60.5 -87.2 64.75 -86.85 65.65 M-84.35 63.4 Q-84.1 63.7 -83.75 63.7 -83.05 63.55 -82.85 61.6 -82.55 60.25 -83.2 58.95 -82.2 60.45 -82.55 62.1 -82.75 64.05 -83.45 64.2 -84.05 64.15 -84.35 63.4" fill="#808080" fill-rule="evenodd" stroke="none"/>
    <path d="M199.1 263.15 Q199.05 262.95 198.95 263.15 L199.2 262.75 Q199.5 260.3 201.25 260.1 L206.1 259.85 Q209.2 259.5 213.55 259.9 L216.05 260.0 Q221.4 259.7 227.35 260.15 L235.7 260.25 Q237.4 260.35 238.4 260.9 L239.05 261.45 Q239.75 261.9 239.6 265.2 L239.6 266.25 Q240.8 285.15 239.45 295.9 L239.35 296.2 239.25 296.8 239.45 296.8 239.35 297.15 Q239.25 298.8 237.65 300.8 219.55 302.05 201.9 301.25 198.9 299.65 198.8 296.35 198.65 295.35 198.75 294.15 L199.15 288.95 199.2 288.5 199.45 284.6 199.5 284.1 199.55 283.15 199.65 280.55 199.7 280.05 199.7 280.0 199.7 279.85 199.7 278.5 199.7 278.45 199.7 278.05 199.7 277.95 199.65 276.2 199.65 276.1 199.65 275.7 199.0 269.2 198.95 268.75 198.85 268.35 198.85 268.3 198.7 265.9 198.75 265.9 198.75 265.85 198.7 265.85 198.7 265.45 Q198.65 264.5 198.75 263.6 L198.95 263.6 199.0 263.1 199.1 263.15" fill="#1e0101" fill-opacity="0.36078432" fill-rule="evenodd" stroke="none"/>
    <path d="M11.7 264.35 L11.7 265.4 Q13.0 284.6 11.55 295.5 L11.5 295.8 11.4 296.4 11.55 296.4 11.5 296.75 Q11.4 298.45 9.7 300.45 -9.45 301.75 -28.05 300.9 -31.2 299.3 -31.35 295.95 L-31.4 293.7 -31.0 288.45 -30.95 287.95 -30.7 284.0 -30.65 283.5 -30.6 282.6 -30.5 281.7 -30.35 278.05 -30.35 277.85 -30.35 277.8 -30.35 277.4 -30.35 277.3 -30.4 275.5 -30.4 275.4 -30.4 275.0 -31.15 268.4 -31.2 267.95 -31.3 267.55 -31.3 267.5 -31.45 265.05 -31.4 265.05 -31.4 265.0 -31.45 265.0 -31.45 264.6 -31.4 262.7 -31.2 262.7 -31.15 262.2 -31.1 262.2 Q-31.1 262.05 -31.2 262.25 L-30.95 261.85 Q-30.65 259.35 -28.8 259.15 L-23.55 258.9 Q-20.25 258.55 -15.75 258.95 L-13.1 259.05 Q-7.6 258.75 -1.45 259.2 4.4 259.1 7.65 259.3 9.4 259.4 10.5 259.95 L11.2 260.5 Q11.9 261.0 11.7 264.35 M-38.85 259.45 Q-36.8 260.85 -37.2 262.85 -36.35 275.65 -38.15 288.0 L-39.1 288.9 -38.1 290.05 -37.7 294.35 -37.65 296.4 -37.75 297.3 -37.65 297.3 Q-37.75 299.3 -38.25 300.4 -58.55 301.9 -79.35 300.55 L-79.9 300.05 -80.75 298.85 -81.25 298.0 -81.3 296.9 -81.5 295.85 -81.5 295.7 -81.5 295.65 -81.55 295.3 -81.7 293.55 -82.05 288.45 -82.1 287.3 -82.1 286.85 -82.1 285.45 -82.1 283.5 -82.1 282.4 -82.1 281.25 -82.0 278.6 -82.05 278.6 -82.0 278.6 -82.0 277.9 -81.95 276.8 -81.8 274.2 -81.65 272.25 -81.55 270.85 -81.55 266.5 -81.1 264.5 -80.85 263.45 -80.7 262.3 Q-80.5 259.8 -78.45 259.7 L-78.2 259.65 -57.6 259.0 Q-48.0 258.2 -40.3 259.45 L-38.85 259.45" fill="#1e0101" fill-opacity="0.36078432" fill-rule="evenodd" stroke="none"/>
  </g>
</svg>
