<?xml version="1.0" encoding="UTF-8" standalone="no"?>
<svg xmlns:ffdec="https://www.free-decompiler.com/flash" xmlns:xlink="http://www.w3.org/1999/xlink" ffdec:objectType="shape" height="48.3px" width="90.9px" xmlns="http://www.w3.org/2000/svg">
  <g transform="matrix(1.0, 0.0, 0.0, 1.0, -2.3, 0.0)">
    <path d="M87.75 3.45 L89.35 3.45 Q90.85 1.95 93.0 5.1 L92.15 32.6 90.3 33.7 Q91.5 34.15 92.3 35.0 L93.1 39.8 93.15 42.1 93.05 43.15 93.15 43.15 Q92.95 46.6 90.75 47.75 L82.55 48.3 73.3 48.15 62.55 47.5 53.05 47.3 16.75 48.2 Q10.65 48.3 7.8 46.85 L6.7 46.6 4.1 45.45 4.1 12.3 5.45 10.05 6.65 6.45 8.75 2.3 Q46.65 -0.25 83.4 2.4 L87.75 3.45" fill="#1e0101" fill-opacity="0.36078432" fill-rule="evenodd" stroke="none"/>
    <path d="M91.05 2.65 L90.2 29.65 88.4 30.7 Q89.55 31.15 90.35 31.95 L91.2 36.7 91.25 38.95 91.1 39.95 91.25 39.95 Q91.0 43.35 88.85 44.5 L80.95 45.0 72.05 44.85 61.6 44.25 52.45 44.05 17.4 44.9 Q6.75 45.05 6.35 40.35 L6.25 39.95 6.5 39.95 6.35 39.3 6.25 38.95 Q3.35 26.9 7.35 5.85 L8.05 3.7 Q8.45 1.25 12.1 1.0 L12.1 1.05 87.55 1.05 Q89.95 1.7 91.05 2.65" fill="url(#gradient0)" fill-rule="evenodd" stroke="none"/>
    <path d="M88.4 2.35 L87.6 29.5 85.8 30.5 Q86.9 31.0 87.7 31.75 L88.55 36.5 Q89.0 41.9 86.2 43.35 L78.3 43.9 69.4 43.7 59.0 43.15 49.8 42.9 14.7 43.8 Q4.15 43.95 3.75 39.2 0.7 27.05 4.7 5.6 L5.45 3.4 Q5.55 1.1 6.65 0.0 L81.75 0.0 Q86.7 0.9 88.4 2.35" fill="#c58c3f" fill-rule="evenodd" stroke="none"/>
    <path d="M2.7 20.2 L20.2 19.5 Q36.2 19.5 47.45 21.5 58.4 23.5 58.55 26.25 58.4 29.0 47.45 30.95 36.2 33.05 20.2 33.05 L2.95 32.3 2.8 32.3 2.55 30.25 20.25 30.95 43.3 29.7 Q53.25 28.4 53.1 26.5 53.25 24.6 43.3 23.35 L20.25 22.1 2.45 22.8 2.55 20.25 2.7 20.2" fill="url(#gradient1)" fill-rule="evenodd" stroke="none"/>
    <path d="M2.5 23.3 L20.25 22.6 43.0 23.85 Q52.05 24.95 52.15 26.5 52.05 28.05 43.0 29.2 L20.25 30.4 2.65 29.75 2.5 29.75 Q2.3 26.75 2.45 23.3 L2.5 23.3" fill="url(#gradient2)" fill-rule="evenodd" stroke="none"/>
    <path d="M7.85 40.2 Q4.05 39.3 3.65 36.85 13.7 37.55 23.5 37.35 34.35 37.05 54.1 32.85 69.15 29.6 86.65 29.55 L87.1 29.55 87.65 30.05 88.45 34.3 Q89.0 39.05 86.15 40.4 L78.25 40.85 69.3 40.75 58.95 40.2 49.7 39.95 14.65 40.8 7.85 40.2" fill="url(#gradient3)" fill-rule="evenodd" stroke="none"/>
    <path d="M3.15 16.05 L21.6 14.9 Q38.15 14.3 55.7 18.05 70.25 21.15 87.75 21.4 L87.65 24.85 Q70.25 24.7 56.9 21.35 39.5 17.0 23.25 17.0 L2.8 18.05 3.0 16.05 3.15 16.05 M2.7 18.55 L2.85 18.55 23.25 17.5 Q39.25 17.5 56.45 21.8 69.95 25.2 87.6 25.35 L87.5 27.95 Q86.65 28.45 85.7 28.9 L86.15 29.05 Q68.75 29.15 53.75 32.4 34.25 36.6 23.5 36.85 13.7 37.05 3.75 36.3 L3.6 36.3 Q3.15 34.65 2.85 32.8 L20.2 33.5 Q36.4 33.5 47.8 31.45 59.6 29.3 59.5 26.25 59.6 23.2 47.8 21.05 36.4 19.0 20.2 19.0 L2.65 19.75 2.7 18.55 M87.9 16.7 L67.55 15.5 Q58.4 14.5 58.3 13.25 58.4 11.95 67.55 10.95 L88.2 9.8 87.9 16.7" fill="#c58c3f" fill-rule="evenodd" stroke="none"/>
    <path d="M87.8 19.0 Q73.05 18.6 62.75 16.95 51.9 15.25 51.85 13.0 51.9 10.8 62.75 9.05 73.1 7.4 88.25 7.0 L88.2 9.3 67.35 10.5 Q57.2 11.6 57.35 13.25 57.2 14.85 67.35 16.0 L87.9 17.2 87.8 19.0" fill="url(#gradient4)" fill-rule="evenodd" stroke="none"/>
    <path d="M3.9 10.3 L18.95 10.85 Q35.6 11.4 58.85 7.6 72.7 5.4 88.3 4.6 L88.25 6.5 Q72.95 6.95 62.45 8.6 50.75 10.45 50.9 13.0 50.75 15.55 62.45 17.4 72.8 19.05 87.8 19.5 L87.8 20.9 Q70.5 20.65 56.15 17.6 38.3 13.75 21.5 14.4 L3.1 15.5 3.9 10.3" fill="url(#gradient5)" fill-rule="evenodd" stroke="none"/>
    <path d="M88.05 22.2 Q70.45 21.9 55.7 18.4 38.2 14.25 21.6 14.9 L3.1 16.15 3.1 15.55 21.6 14.35 Q38.4 13.65 56.15 17.9 70.5 21.3 87.8 21.55 L87.75 22.15 88.05 22.2 M88.3 3.35 Q72.8 4.25 59.05 6.7 35.7 10.95 19.05 10.4 L3.95 9.75 4.05 9.2 19.05 9.85 Q35.45 10.4 58.45 6.2 72.45 3.65 88.4 2.85 L88.3 3.35 M88.3 6.05 Q73.3 6.5 62.9 8.35 52.0 10.3 52.0 12.8 52.0 15.3 62.9 17.25 73.15 19.05 87.8 19.55 L87.8 20.0 Q72.8 19.5 62.4 17.7 50.7 15.55 50.8 12.8 50.7 10.0 62.4 7.9 72.95 6.05 88.3 5.6 L88.3 6.05 M88.2 9.15 L67.65 10.45 Q58.55 11.6 58.35 13.05 58.55 14.5 67.65 15.6 L87.95 16.95 87.9 17.4 67.3 16.05 Q57.1 14.8 57.3 13.05 57.1 11.3 67.3 10.0 L88.2 8.7 88.2 9.15 M87.6 26.6 Q69.95 26.4 56.45 22.6 39.3 17.8 23.35 17.8 L2.8 19.0 2.8 18.4 23.35 17.25 Q39.5 17.25 56.9 22.1 70.3 25.8 87.7 26.0 L87.6 26.6 M87.1 31.25 Q69.3 31.25 54.15 34.9 34.45 39.7 23.55 40.0 L3.8 39.35 3.7 39.2 3.6 38.8 Q13.6 39.65 23.45 39.35 34.2 39.1 53.8 34.4 68.7 30.8 86.15 30.75 L87.1 31.25 M63.4 0.25 L67.4 0.25 58.65 1.7 Q35.35 5.9 18.2 4.7 L5.2 3.85 5.35 3.4 5.45 3.3 18.3 4.2 Q35.1 5.35 58.05 1.2 L63.4 0.25 M53.2 27.9 Q53.2 30.0 43.3 31.4 L20.35 32.75 2.6 32.0 2.55 31.5 20.35 32.25 43.1 30.9 Q52.05 29.6 52.15 27.9 52.05 26.15 43.1 24.9 33.65 23.5 20.35 23.5 L2.45 24.25 2.45 23.7 20.35 22.95 Q33.8 22.95 43.3 24.3 53.2 25.75 53.2 27.9 M59.55 27.55 Q59.7 31.0 47.85 33.35 36.45 35.7 20.3 35.7 L2.9 34.85 2.8 34.35 20.3 35.2 Q36.2 35.2 47.55 32.85 58.55 30.65 58.55 27.55 58.55 24.45 47.55 22.3 36.2 20.0 20.3 20.0 L2.3 20.9 2.65 20.85 2.65 20.3 20.3 19.5 Q36.45 19.5 47.85 21.8 59.7 24.15 59.55 27.55" fill="#ae7528" fill-rule="evenodd" stroke="none"/>
  </g>
  <defs>
    <linearGradient gradientTransform="matrix(0.0526, 0.0, 0.0, 0.0282, 48.15, 22.0)" gradientUnits="userSpaceOnUse" id="gradient0" spreadMethod="pad" x1="-819.2" x2="819.2">
      <stop offset="0.0" stop-color="#231204"/>
      <stop offset="0.5568627450980392" stop-color="#4f2909"/>
      <stop offset="1.0" stop-color="#693408"/>
    </linearGradient>
    <linearGradient gradientTransform="matrix(0.0343, 0.0023, -0.0025, 0.0084, 30.05, 25.85)" gradientUnits="userSpaceOnUse" id="gradient1" spreadMethod="pad" x1="-819.2" x2="819.2">
      <stop offset="0.0" stop-color="#b17536"/>
      <stop offset="1.0" stop-color="#ce9744"/>
    </linearGradient>
    <linearGradient gradientTransform="matrix(0.0205, 0.0106, -0.0079, 0.0033, 27.15, 26.2)" gradientUnits="userSpaceOnUse" id="gradient2" spreadMethod="pad" x1="-819.2" x2="819.2">
      <stop offset="0.0" stop-color="#b17536"/>
      <stop offset="1.0" stop-color="#ce9744"/>
    </linearGradient>
    <linearGradient gradientTransform="matrix(-0.1382, 0.014, -0.0032, -0.0081, 56.65, 25.7)" gradientUnits="userSpaceOnUse" id="gradient3" spreadMethod="pad" x1="-819.2" x2="819.2">
      <stop offset="0.0" stop-color="#b17536"/>
      <stop offset="1.0" stop-color="#ce9744"/>
    </linearGradient>
    <linearGradient gradientTransform="matrix(0.0381, 0.0, 0.0, 0.0073, 62.45, 12.85)" gradientUnits="userSpaceOnUse" id="gradient4" spreadMethod="pad" x1="-819.2" x2="819.2">
      <stop offset="0.0" stop-color="#b17536"/>
      <stop offset="1.0" stop-color="#ce9744"/>
    </linearGradient>
    <linearGradient gradientTransform="matrix(0.1184, -0.0068, 0.0022, 0.0098, 15.9, 14.55)" gradientUnits="userSpaceOnUse" id="gradient5" spreadMethod="pad" x1="-819.2" x2="819.2">
      <stop offset="0.0" stop-color="#b17536"/>
      <stop offset="1.0" stop-color="#ce9744"/>
    </linearGradient>
  </defs>
</svg>
