<?xml version="1.0" encoding="UTF-8" standalone="no"?>
<svg xmlns:ffdec="https://www.free-decompiler.com/flash" xmlns:xlink="http://www.w3.org/1999/xlink" ffdec:objectType="shape" height="24.3px" width="29.35px" xmlns="http://www.w3.org/2000/svg">
  <g transform="matrix(1.0, 0.0, 0.0, 1.0, 0.0, 0.0)">
    <path d="M0.2 10.15 L0.3 9.9 4.6 5.2 Q9.25 0.45 10.55 1.0 L10.6 1.0 Q11.75 1.25 13.7 4.6 15.35 7.55 16.9 12.3 L16.95 12.4 Q17.15 13.65 16.65 14.05 L16.55 14.1 14.95 14.25 14.9 14.2 14.85 14.2 14.8 14.15 12.7 12.95 12.5 12.9 Q12.4 12.9 12.35 13.0 L12.3 13.15 Q12.35 14.45 13.1 15.55 14.5 17.7 17.4 17.8 20.35 17.9 22.45 15.85 24.5 13.8 24.9 10.65 25.25 7.45 23.85 5.25 22.65 3.3 19.25 2.3 L22.75 2.45 Q25.8 3.15 27.6 5.8 29.3 8.3 29.35 12.8 29.35 17.35 26.2 20.8 23.0 24.25 16.9 24.3 10.85 24.35 7.45 20.45 4.4 17.0 4.45 12.3 L4.4 12.15 4.3 12.1 4.15 12.05 1.75 12.55 1.6 12.55 1.05 12.5 0.95 12.45 0.9 12.4 Q-0.45 11.65 0.2 10.15" fill="#f5af51" fill-rule="evenodd" stroke="none"/>
    <path d="M0.3 8.95 L4.6 4.25 Q9.25 -0.5 10.55 0.05 L10.6 0.05 Q11.75 0.3 13.7 3.65 15.35 6.6 16.9 11.35 L16.95 11.45 Q17.15 12.7 16.65 13.1 L16.55 13.15 14.95 13.3 14.9 13.25 14.85 13.25 14.8 13.2 12.7 12.0 12.5 11.95 Q12.4 11.95 12.35 12.05 L12.3 12.2 Q12.35 13.5 13.1 14.6 14.5 16.75 17.4 16.85 20.35 16.95 22.45 14.9 24.5 12.85 24.5 10.1 24.5 7.35 23.3 5.55 22.1 3.65 20.35 3.15 L16.85 2.6 16.35 2.55 Q16.55 2.3 17.45 1.9 19.65 0.8 22.75 1.5 25.8 2.2 27.6 4.85 29.3 7.35 29.35 11.85 29.35 16.4 26.2 19.85 23.0 23.3 16.9 23.35 10.85 23.4 7.45 19.5 4.4 16.05 4.45 11.35 L4.4 11.2 4.3 11.15 4.15 11.1 1.75 11.6 1.6 11.6 1.05 11.55 0.95 11.5 0.9 11.45 Q-0.45 10.7 0.2 9.2 L0.3 8.95" fill="#613008" fill-rule="evenodd" stroke="none"/>
    <path d="M1.55 10.0 L1.45 10.0 Q1.15 9.75 1.3 9.35 3.3 7.0 5.45 4.75 9.4 0.75 10.2 0.9 11.0 1.2 12.6 3.9 14.25 6.75 15.75 11.35 L15.7 11.3 15.75 11.85 15.4 11.75 12.1 9.9 11.85 9.8 11.7 9.8 11.4 9.9 11.2 10.2 Q10.6 12.85 12.05 14.95 13.75 17.6 17.35 17.75 20.85 17.9 23.2 15.5 25.55 13.05 25.3 9.9 25.0 6.8 23.3 4.45 21.95 2.55 19.05 2.1 L22.5 2.3 Q25.05 3.0 26.55 5.2 28.05 7.45 28.1 11.5 28.1 15.55 25.25 18.65 22.35 21.7 16.9 21.75 11.45 21.8 8.4 18.35 5.25 14.8 5.75 9.75 L5.7 9.45 5.45 9.25 5.15 9.25 1.55 10.0" fill="#b13a34" fill-rule="evenodd" stroke="none"/>
  </g>
</svg>
