<?xml version="1.0" encoding="UTF-8" standalone="no"?>
<svg xmlns:ffdec="https://www.free-decompiler.com/flash" xmlns:xlink="http://www.w3.org/1999/xlink" ffdec:objectType="shape" height="41.4px" width="44.0px" xmlns="http://www.w3.org/2000/svg">
  <g transform="matrix(1.0, 0.0, 0.0, 1.0, 0.0, 0.0)">
    <path d="M1.0 5.65 Q1.2 3.35 3.3 3.25 L20.45 0.75 42.15 0.75 Q44.1 2.1 43.75 4.05 44.6 16.5 42.8 28.55 L41.9 29.45 Q42.45 29.85 42.85 30.55 L43.25 34.75 43.3 36.75 43.2 37.6 43.3 37.6 Q43.2 39.55 42.75 40.6 22.95 42.1 2.7 40.75 L2.15 40.3 Q1.6 39.75 1.35 39.1 L0.9 38.3 Q0.4 32.2 0.55 7.6 L1.0 5.65" fill="#773e10" fill-rule="evenodd" stroke="none"/>
    <path d="M41.1 2.5 L40.7 27.15 39.8 28.1 40.8 29.25 41.15 33.55 Q41.4 37.45 40.5 39.05 L2.0 39.05 Q0.75 38.0 0.65 35.95 -0.8 24.95 1.1 5.45 L1.45 3.5 Q1.6 1.1 3.65 0.95 L3.85 0.9 23.9 0.3 41.9 0.9 Q42.2 1.6 41.1 2.5" fill="#c58c3f" fill-rule="evenodd" stroke="none"/>
    <path d="M40.9 15.75 L31.2 14.55 Q26.8 13.5 26.75 12.25 26.8 10.95 31.2 9.95 35.25 9.0 41.05 8.75 L40.9 15.75 M21.75 20.2 Q16.3 18.1 8.55 18.1 L0.15 18.8 0.2 17.6 0.3 17.6 Q5.9 16.55 10.05 16.55 17.65 16.55 25.9 20.9 32.35 24.35 40.75 24.55 L40.75 27.2 39.85 28.1 40.05 28.25 Q31.75 28.35 24.6 31.6 15.25 35.9 10.1 36.15 L0.7 35.65 0.6 35.65 0.3 32.05 8.55 32.8 Q16.3 32.8 21.75 30.7 27.4 28.5 27.35 25.4 27.4 22.3 21.75 20.2 M40.8 24.0 Q32.45 23.85 26.05 20.45 17.8 16.05 10.05 16.05 5.9 16.05 0.25 17.1 L0.35 15.05 0.45 15.05 9.2 13.9 Q17.15 13.3 25.5 17.1 32.45 20.25 40.85 20.55 L40.8 24.0" fill="#c58c3f" fill-rule="evenodd" stroke="none"/>
    <path d="M41.05 5.45 Q33.8 5.9 28.75 7.5 23.15 9.45 23.25 12.0 23.15 14.6 28.75 16.5 33.7 18.15 40.9 18.65 L40.9 20.0 Q32.6 19.75 25.75 16.65 17.2 12.8 9.15 13.4 L0.4 14.55 0.75 9.25 7.95 9.85 Q15.9 10.35 27.05 6.55 33.65 4.3 41.1 3.5 L41.05 5.45" fill="url(#gradient0)" fill-rule="evenodd" stroke="none"/>
    <path d="M26.9 25.4 Q26.8 28.25 21.6 30.2 16.2 32.3 8.55 32.3 L0.3 31.55 0.25 31.55 0.15 29.45 8.55 30.15 Q15.05 30.15 19.6 28.9 24.35 27.65 24.3 25.7 24.35 23.8 19.6 22.45 15.05 21.25 8.55 21.25 L0.05 21.9 0.15 19.35 0.2 19.3 8.55 18.6 Q16.2 18.6 21.6 20.65 26.8 22.6 26.9 25.4" fill="url(#gradient1)" fill-rule="evenodd" stroke="none"/>
    <path d="M0.1 22.4 L8.55 21.7 Q14.95 21.7 19.45 22.95 23.8 24.1 23.85 25.7 23.8 27.25 19.45 28.4 14.95 29.65 8.55 29.65 L0.15 28.95 0.1 28.95 Q-0.05 25.9 0.05 22.4 L0.1 22.4" fill="url(#gradient2)" fill-rule="evenodd" stroke="none"/>
    <path d="M40.8 29.25 L41.2 33.55 Q41.4 37.3 40.6 38.9 20.75 40.95 1.8 38.9 0.8 37.9 0.65 36.15 L10.1 36.65 Q15.35 36.35 24.75 32.1 31.95 28.8 40.35 28.8 L40.5 28.8 40.8 29.25" fill="url(#gradient3)" fill-rule="evenodd" stroke="none"/>
    <path d="M41.05 8.25 Q35.15 8.55 31.1 9.45 26.2 10.65 26.3 12.25 26.2 13.9 31.1 15.05 35.1 16.0 40.9 16.25 L40.9 18.1 Q33.8 17.65 28.9 16.0 23.7 14.3 23.7 12.0 23.7 9.75 28.9 8.05 33.85 6.35 41.05 5.9 L41.05 8.25" fill="url(#gradient4)" fill-rule="evenodd" stroke="none"/>
    <path d="M41.1 3.5 Q33.65 4.3 27.1 6.5 15.95 10.35 7.95 9.85 L0.8 9.25 0.85 8.75 7.95 9.35 Q15.85 9.85 26.8 6.05 33.5 3.8 41.15 3.0 L41.1 3.5 M41.05 8.7 Q35.25 9.0 31.25 9.9 26.85 10.9 26.8 12.25 26.85 13.6 31.25 14.6 35.25 15.5 40.9 15.8 L40.9 16.2 Q35.1 15.95 31.05 14.95 26.2 13.85 26.25 12.25 26.2 10.65 31.05 9.5 35.15 8.6 41.05 8.3 L41.05 8.7 M41.05 5.9 Q33.95 6.35 28.95 8.0 23.75 9.7 23.75 12.0 23.75 14.35 28.95 16.05 33.85 17.7 40.9 18.15 L40.9 18.6 Q33.65 18.15 28.7 16.45 23.1 14.5 23.2 12.0 23.1 9.5 28.7 7.6 33.8 5.9 41.05 5.45 L41.05 5.9 M31.4 0.05 L31.4 0.15 32.9 0.15 26.95 1.95 Q15.8 5.8 7.6 4.7 L1.4 3.9 1.5 3.55 1.5 3.4 7.65 4.25 Q15.7 5.3 26.65 1.5 29.0 0.65 31.4 0.05 M26.9 25.4 Q26.85 22.6 21.65 20.65 16.2 18.6 8.55 18.6 L0.1 19.35 0.15 19.3 0.15 18.8 8.55 18.1 Q16.3 18.1 21.75 20.2 27.4 22.3 27.35 25.4 27.4 28.5 21.75 30.7 16.3 32.8 8.55 32.8 L0.3 32.05 0.25 31.55 8.55 32.3 Q16.2 32.3 21.65 30.2 26.85 28.25 26.9 25.4 M40.85 20.5 L40.95 20.55 Q32.55 20.3 25.5 17.1 17.15 13.3 9.2 13.9 L0.4 15.05 0.4 14.55 9.2 13.4 Q17.25 12.85 25.75 16.65 32.6 19.75 40.9 20.0 L40.85 20.5 M40.75 24.55 Q32.35 24.35 25.9 20.9 17.65 16.55 10.05 16.55 5.9 16.55 0.25 17.6 L0.25 17.1 Q5.9 16.05 10.05 16.05 17.8 16.05 26.05 20.45 32.45 23.85 40.8 24.0 L40.75 24.55 M40.5 28.8 Q32.0 28.8 24.75 32.05 15.35 36.35 10.15 36.65 L0.7 36.15 0.65 35.95 0.6 35.65 10.1 36.15 Q15.25 35.9 24.6 31.6 31.75 28.35 40.05 28.25 L40.5 28.8 M0.05 21.9 L8.6 21.25 Q15.05 21.25 19.6 22.45 24.35 23.8 24.3 25.7 24.35 27.65 19.6 28.9 15.05 30.15 8.6 30.15 L0.15 29.45 0.1 28.95 8.6 29.65 Q14.95 29.65 19.5 28.4 23.8 27.25 23.85 25.7 23.8 24.1 19.5 22.95 14.95 21.7 8.6 21.7 L0.05 22.4 0.05 21.9" fill="#ae7528" fill-rule="evenodd" stroke="none"/>
  </g>
  <defs>
    <linearGradient gradientTransform="matrix(0.0566, -0.0069, 0.0011, 0.0099, 6.5, 13.6)" gradientUnits="userSpaceOnUse" id="gradient0" spreadMethod="pad" x1="-819.2" x2="819.2">
      <stop offset="0.0" stop-color="#b17536"/>
      <stop offset="1.0" stop-color="#ce9744"/>
    </linearGradient>
    <linearGradient gradientTransform="matrix(0.0164, 0.0023, -0.0012, 0.0085, 13.25, 25.05)" gradientUnits="userSpaceOnUse" id="gradient1" spreadMethod="pad" x1="-819.2" x2="819.2">
      <stop offset="0.0" stop-color="#b17536"/>
      <stop offset="1.0" stop-color="#ce9744"/>
    </linearGradient>
    <linearGradient gradientTransform="matrix(0.0098, 0.0108, -0.0038, 0.0034, 11.85, 25.4)" gradientUnits="userSpaceOnUse" id="gradient2" spreadMethod="pad" x1="-819.2" x2="819.2">
      <stop offset="0.0" stop-color="#b17536"/>
      <stop offset="1.0" stop-color="#ce9744"/>
    </linearGradient>
    <linearGradient gradientTransform="matrix(-0.066, 0.0141, -0.0015, -0.0082, 26.0, 24.85)" gradientUnits="userSpaceOnUse" id="gradient3" spreadMethod="pad" x1="-819.2" x2="819.2">
      <stop offset="0.0" stop-color="#b17536"/>
      <stop offset="1.0" stop-color="#ce9744"/>
    </linearGradient>
    <linearGradient gradientTransform="matrix(0.0182, 0.0, 0.0, 0.0074, 28.75, 11.85)" gradientUnits="userSpaceOnUse" id="gradient4" spreadMethod="pad" x1="-819.2" x2="819.2">
      <stop offset="0.0" stop-color="#b17536"/>
      <stop offset="1.0" stop-color="#ce9744"/>
    </linearGradient>
  </defs>
</svg>
