<?xml version="1.0" encoding="UTF-8" standalone="no"?>
<svg xmlns:ffdec="https://www.free-decompiler.com/flash" xmlns:xlink="http://www.w3.org/1999/xlink" ffdec:objectType="shape" height="25.6px" width="33.7px" xmlns="http://www.w3.org/2000/svg">
  <g transform="matrix(1.0, 0.0, 0.0, 1.0, -186.6, -89.5)">
    <path d="M219.85 110.4 L215.05 111.15 214.25 111.15 208.6 111.55 206.2 111.45 Q211.8 110.4 217.7 110.1 L220.05 110.05 220.3 110.2 220.3 110.35 219.85 110.4 M193.3 93.1 L193.3 93.15 192.8 93.5 192.75 93.5 193.3 93.4 193.3 93.1 M191.45 90.85 Q191.3 90.6 191.45 90.4 191.2 90.25 191.0 90.4 L191.05 90.5 191.4 90.95 191.45 90.85 M195.5 94.55 L195.9 94.2 195.65 94.3 195.35 94.55 195.5 94.55 M204.95 100.85 Q205.3 99.95 204.65 97.65 L204.25 96.5 205.9 97.3 207.2 98.2 Q209.5 100.6 208.75 104.4 208.3 106.4 207.15 107.95 L207.35 107.95 Q208.65 108.15 209.8 107.6 210.2 107.4 210.65 107.6 L211.4 107.7 Q212.65 106.15 214.45 105.5 L215.6 105.35 Q217.65 105.4 217.0 107.05 L216.5 107.45 Q217.45 105.9 215.25 106.15 213.4 106.35 212.1 107.75 211.25 108.8 209.6 108.45 L209.15 108.4 206.25 108.95 205.5 109.55 Q203.0 111.4 200.35 111.7 200.1 111.95 199.3 112.0 196.15 112.1 193.05 111.25 L191.25 111.0 189.35 111.05 Q188.95 109.65 187.35 110.1 186.9 110.25 186.6 110.45 187.0 109.05 188.95 109.8 L189.7 110.65 Q192.05 110.45 194.55 110.65 L193.6 110.15 192.0 108.8 Q191.1 107.85 191.0 105.85 L191.1 103.3 191.2 103.05 Q191.35 102.55 191.55 103.3 191.7 104.0 193.05 105.3 L193.9 106.3 192.95 106.7 193.8 107.65 Q198.0 110.15 201.65 108.7 L198.8 103.8 197.9 102.4 196.3 99.95 194.5 97.6 193.9 96.85 191.45 96.8 Q191.1 96.65 191.3 96.4 192.25 95.15 193.55 94.4 L193.5 94.35 193.4 94.4 192.6 94.25 Q191.3 92.95 190.4 91.3 189.15 89.3 191.65 89.5 193.1 90.3 194.05 91.75 195.1 93.25 194.1 94.0 L194.15 94.05 Q195.1 93.55 196.3 93.3 197.6 94.35 196.2 95.15 L195.35 95.75 197.45 98.1 Q204.6 106.05 204.75 106.55 207.4 103.9 206.55 100.55 204.6 101.75 204.95 100.85 M197.7 113.35 L202.4 113.05 202.95 113.0 Q207.45 113.5 211.95 113.05 L213.8 112.9 Q208.05 114.75 201.6 113.9 L200.2 113.95 196.35 114.35 Q195.5 114.35 194.65 114.7 192.2 115.6 190.1 114.4 193.6 114.7 197.1 113.45 L197.7 113.35 M202.4 108.3 L202.6 108.2 202.3 107.9 202.4 108.3" fill="#693308" fill-rule="evenodd" stroke="none"/>
  </g>
</svg>
