<?xml version="1.0" encoding="UTF-8" standalone="no"?>
<svg xmlns:ffdec="https://www.free-decompiler.com/flash" xmlns:xlink="http://www.w3.org/1999/xlink" ffdec:objectType="shape" height="33.1px" width="32.05px" xmlns="http://www.w3.org/2000/svg">
  <g transform="matrix(1.0, 0.0, 0.0, 1.0, -4.5, -3.0)">
    <path d="M11.75 4.7 L14.6 7.45 14.9 7.9 14.85 8.5 14.7 9.05 21.8 18.4 22.0 18.95 21.85 19.5 21.4 19.9 Q20.8 20.2 20.55 20.45 L20.05 20.75 19.45 20.7 19.0 20.4 11.7 11.05 11.25 11.0 10.85 10.85 10.5 10.55 8.5 7.3 Q8.3 6.95 8.4 6.6 L8.75 6.0 10.45 4.65 11.1 4.4 Q11.5 4.4 11.75 4.7 M25.75 19.65 Q31.25 24.7 34.75 30.85 L34.85 31.45 Q34.45 36.55 29.15 36.05 L28.55 35.8 Q23.65 31.05 19.6 24.6 19.4 24.25 19.5 23.9 19.55 23.5 19.85 23.3 L24.45 19.6 Q24.7 19.35 25.1 19.35 L25.75 19.65" fill="#f5af51" fill-rule="evenodd" stroke="none"/>
    <path d="M31.9 12.8 L31.95 12.75 31.9 12.75 31.9 12.8 M18.9 5.05 L20.35 3.85 20.45 3.95 22.75 4.65 24.0 5.2 24.1 5.25 24.65 5.5 25.0 5.65 25.3 5.75 27.5 6.7 28.2 7.1 Q31.55 8.75 32.6 10.9 L32.8 11.4 32.85 12.0 33.2 11.95 33.85 12.35 33.9 12.45 34.15 12.7 35.1 13.95 35.15 14.0 35.25 14.1 36.25 15.65 36.4 16.05 36.5 16.3 36.55 16.4 36.1 17.8 Q35.65 18.9 34.65 19.8 L33.1 20.95 31.35 21.7 30.85 21.75 30.45 21.55 29.2 20.6 29.15 20.6 29.0 20.5 27.5 19.4 Q27.15 19.15 27.1 18.8 L27.1 18.55 26.95 18.7 12.55 34.5 12.5 34.55 8.05 34.65 5.75 32.4 Q3.6 30.35 5.95 28.05 L21.5 13.15 Q21.45 12.95 21.55 12.85 L21.2 12.4 21.1 12.1 Q20.2 11.65 19.5 9.05 L19.5 9.0 19.15 7.65 19.1 7.55 19.0 6.95 18.9 6.45 18.85 5.75 18.9 5.05" fill="#f5af51" fill-rule="evenodd" stroke="none"/>
    <path d="M11.75 4.15 L14.6 6.9 14.9 7.35 14.85 7.95 14.7 8.5 21.8 17.85 22.0 18.4 21.85 18.95 21.4 19.35 Q20.8 19.65 20.55 19.9 L20.05 20.2 19.45 20.15 19.0 19.85 11.7 10.5 11.25 10.45 10.85 10.3 10.5 10.0 8.5 6.75 Q8.3 6.4 8.4 6.05 L8.75 5.45 10.45 4.1 11.1 3.85 Q11.5 3.85 11.75 4.15 M25.75 19.1 Q31.25 24.15 34.75 30.3 L34.85 30.9 Q34.45 36.0 29.15 35.5 L28.55 35.25 Q23.65 30.5 19.6 24.05 19.4 23.7 19.5 23.35 19.55 22.95 19.85 22.75 L24.45 19.05 Q24.7 18.8 25.1 18.8 L25.75 19.1" fill="#613008" fill-rule="evenodd" stroke="none"/>
    <path d="M31.7 11.9 L31.75 11.85 31.7 11.85 31.7 11.9 M19.2 3.45 Q19.95 2.8 20.7 3.05 L22.55 3.75 23.8 4.3 23.9 4.35 24.45 4.6 24.8 4.75 25.1 4.85 27.3 5.8 28.0 6.2 Q31.35 7.85 32.4 10.0 L32.6 10.5 32.65 11.1 33.0 11.05 33.65 11.45 33.7 11.55 33.95 11.8 34.9 13.05 34.95 13.1 35.05 13.2 36.05 14.75 36.2 15.15 36.3 15.4 36.35 15.5 35.9 16.9 Q35.45 18.0 34.45 18.9 L32.9 20.05 31.15 20.8 30.65 20.85 30.25 20.65 29.0 19.7 28.95 19.7 28.8 19.6 27.3 18.5 26.9 17.9 26.9 17.65 26.75 17.8 12.35 33.6 12.3 33.65 7.85 33.75 5.55 31.5 Q3.4 29.45 5.75 27.15 L21.05 12.25 21.3 12.2 Q19.95 10.45 19.3 8.15 L19.3 8.1 18.95 6.75 18.9 6.65 18.8 6.05 18.7 5.55 18.6 5.0 Q18.45 4.05 19.2 3.45" fill="#613008" fill-rule="evenodd" stroke="none"/>
    <path d="M12.7 7.55 L21.0 18.45 Q20.1 18.8 19.8 19.2 L11.55 8.65 12.7 7.55" fill="#878787" fill-rule="evenodd" stroke="none"/>
    <path d="M24.05 18.35 Q30.45 24.75 33.85 30.8 33.5 34.9 29.25 34.5 24.4 29.85 20.45 23.5 L24.05 18.35" fill="#aa5730" fill-rule="evenodd" stroke="none"/>
    <path d="M22.3 23.25 L22.2 22.9 22.4 22.55 22.8 22.45 23.1 22.65 Q27.05 28.1 30.4 31.7 L30.5 32.1 30.35 32.45 30.0 32.55 29.65 32.4 Q26.25 28.8 22.3 23.25" fill="#f7a27a" fill-rule="evenodd" stroke="none"/>
    <path d="M22.05 23.5 L21.95 23.15 22.15 22.8 22.55 22.7 22.85 22.9 Q26.8 28.35 30.15 31.95 L30.25 32.35 30.1 32.7 29.75 32.8 Q29.5 32.8 29.4 32.65 26.0 29.05 22.05 23.5" fill="#8e350b" fill-rule="evenodd" stroke="none"/>
    <path d="M23.9 21.75 L23.75 21.4 Q23.75 21.15 23.9 21.05 24.05 20.9 24.3 20.9 24.5 20.9 24.65 21.05 29.75 26.5 32.3 30.5 L32.35 30.85 32.15 31.2 31.75 31.25 31.45 31.05 Q28.95 27.1 23.9 21.75" fill="#f7a27a" fill-rule="evenodd" stroke="none"/>
    <path d="M23.65 22.0 L23.5 21.65 Q23.5 21.4 23.65 21.3 L24.05 21.15 Q24.25 21.15 24.4 21.3 29.5 26.75 32.05 30.75 L32.1 31.1 31.9 31.45 31.5 31.5 31.2 31.3 Q28.7 27.35 23.65 22.0" fill="#8e350b" fill-rule="evenodd" stroke="none"/>
    <path d="M11.05 4.85 L13.9 7.6 13.25 9.6 11.35 9.45 9.35 6.2 11.05 4.85" fill="#878787" fill-rule="evenodd" stroke="none"/>
    <path d="M23.45 24.0 L23.3 23.9 Q22.8 23.95 22.8 24.5 L22.8 24.6 21.7 25.55 20.3 23.45 24.65 18.75 26.95 21.55 25.25 22.45 25.1 22.35 Q24.5 22.45 24.7 22.95 L23.45 24.0" fill="#170a00" fill-opacity="0.32941177" fill-rule="evenodd" stroke="none"/>
    <path d="M17.7 25.5 L21.5 21.3 21.7 21.0 22.2 20.55 22.25 20.45 23.4 19.2 27.15 15.05 27.35 14.55 Q27.2 13.8 26.6 13.25 L26.45 13.25 Q26.35 13.3 26.4 13.45 L26.35 13.5 26.25 13.6 26.05 13.55 Q25.45 13.3 23.85 11.7 L22.75 12.85 Q20.95 20.2 14.85 25.5 8.45 30.95 7.0 29.7 5.45 28.45 6.25 30.05 6.85 31.25 7.75 31.75 L7.8 31.7 7.9 31.8 8.35 32.25 11.1 32.35 Q12.65 31.25 15.1 28.45 L16.0 27.35 17.25 25.95 17.7 25.5 M23.35 11.55 L25.5 9.5 Q25.75 8.25 27.1 9.65 L29.35 11.95 30.05 12.8 11.55 32.95 Q9.95 34.6 8.5 33.1 L6.2 30.8 Q4.85 29.5 6.45 27.85 L20.5 14.3 22.7 12.35 22.9 12.15 22.9 12.2 23.55 11.6 23.35 11.55 M26.45 13.25 L26.4 13.2 26.45 13.25 M30.05 12.8 Q30.4 13.8 29.35 15.0 L30.05 12.8" fill="#a3681f" fill-rule="evenodd" stroke="none"/>
    <path d="M26.6 13.25 Q27.2 13.8 27.35 14.55 L27.15 15.05 23.4 19.2 22.25 20.45 22.2 20.55 21.7 21.0 21.5 21.3 17.7 25.5 22.5 19.6 23.35 18.6 Q25.05 17.05 26.3 15.1 L26.55 14.75 Q27.05 13.8 25.8 14.4 L25.7 14.4 25.6 14.35 25.55 14.3 25.7 14.05 25.55 14.0 Q25.0 13.75 24.45 14.45 L24.5 14.0 24.1 13.7 Q23.8 13.75 24.1 14.1 24.45 14.45 23.55 16.05 21.4 19.5 16.3 25.2 10.95 31.05 8.75 31.4 L8.35 31.35 Q7.8 30.8 7.1 30.85 L6.85 30.95 7.75 31.75 Q6.85 31.25 6.25 30.05 5.45 28.45 7.0 29.7 8.45 30.95 14.85 25.5 20.95 20.2 22.75 12.85 L23.85 11.7 Q25.45 13.3 26.05 13.55 L26.25 13.6 26.35 13.5 26.4 13.45 26.6 13.25 M16.0 27.35 L15.1 28.45 Q12.65 31.25 11.1 32.35 L8.35 32.25 Q9.65 32.75 11.05 31.7 13.7 29.75 16.0 27.35 M23.35 11.55 L23.55 11.6 22.9 12.2 22.9 12.15 22.7 12.35 20.5 14.3 23.35 11.55 M26.45 13.25 L26.4 13.2 26.45 13.25" fill="#9a6018" fill-rule="evenodd" stroke="none"/>
    <path d="M26.6 13.25 L26.4 13.45 Q26.35 13.3 26.45 13.25 L26.6 13.25 M7.75 31.75 L6.85 30.95 7.1 30.85 Q7.8 30.8 8.35 31.35 L8.75 31.4 Q10.95 31.05 16.3 25.2 21.4 19.5 23.55 16.05 24.45 14.45 24.1 14.1 23.8 13.75 24.1 13.7 L24.5 14.0 24.45 14.45 Q25.0 13.75 25.55 14.0 L25.7 14.05 25.55 14.3 25.6 14.35 25.7 14.4 25.8 14.4 Q27.05 13.8 26.55 14.75 L26.3 15.1 Q25.05 17.05 23.35 18.6 L22.5 19.6 17.7 25.5 17.25 25.95 16.0 27.35 Q13.7 29.75 11.05 31.7 9.65 32.75 8.35 32.25 L7.9 31.8 7.8 31.7 7.75 31.75" fill="#8e5712" fill-rule="evenodd" stroke="none"/>
    <path d="M23.65 5.35 Q25.15 6.0 26.05 7.15 L23.3 5.8 20.2 4.15 20.3 4.15 Q22.0 4.6 23.65 5.35 M34.6 15.05 L34.65 15.35 34.4 16.05 34.2 15.9 33.85 15.55 Q33.15 13.85 31.75 12.65 31.65 12.55 31.85 12.45 L32.0 12.4 Q34.05 12.95 34.6 15.05 M26.95 7.25 Q28.75 8.0 30.1 9.4 31.0 10.45 31.15 11.6 31.2 12.1 30.85 11.8 L29.0 10.25 Q27.55 8.95 26.85 7.4 26.75 7.25 26.95 7.25" fill="#bdbdbd" fill-rule="evenodd" stroke="none"/>
    <path d="M23.65 5.35 Q22.0 4.6 20.3 4.15 L20.2 4.15 23.3 5.8 26.05 7.15 Q25.15 6.0 23.65 5.35 M34.4 16.05 L32.3 17.75 31.6 17.45 Q29.75 16.4 29.6 14.3 29.55 13.8 28.75 14.15 27.85 14.55 26.8 13.65 L24.75 11.55 Q23.75 10.2 24.25 9.2 L24.7 8.25 Q23.9 8.4 23.25 9.0 21.8 8.85 21.05 6.9 20.15 5.0 19.8 3.9 L19.9 3.9 Q22.7 4.75 25.65 6.15 L26.1 6.95 26.75 6.7 Q30.85 8.45 31.7 10.75 L31.5 11.4 31.8 11.95 Q32.1 12.25 32.5 12.2 L32.9 12.1 33.15 12.3 34.7 14.35 34.6 15.05 Q34.05 12.95 32.0 12.4 L31.85 12.45 Q31.65 12.55 31.75 12.65 33.15 13.85 33.85 15.55 L34.2 15.9 34.4 16.05 M26.95 7.25 Q26.75 7.25 26.85 7.4 27.55 8.95 29.0 10.25 L30.85 11.8 Q31.2 12.1 31.15 11.6 31.0 10.45 30.1 9.4 28.75 8.0 26.95 7.25" fill="#878787" fill-rule="evenodd" stroke="none"/>
    <path d="M19.8 3.9 Q20.15 5.0 21.05 6.9 21.8 8.85 23.25 9.0 23.9 8.4 24.7 8.25 L24.25 9.2 Q23.75 10.2 24.75 11.55 L26.8 13.65 Q27.85 14.55 28.75 14.15 29.55 13.8 29.6 14.3 29.75 16.4 31.6 17.45 L32.3 17.75 34.4 16.05 34.65 15.35 34.6 15.05 34.7 14.35 35.15 15.1 35.4 15.65 Q34.0 18.8 30.9 19.8 L27.9 17.65 28.05 17.1 27.7 16.45 27.1 16.3 26.5 16.55 26.1 16.25 Q23.4 14.55 21.85 11.5 L22.0 10.6 21.15 10.75 20.25 8.25 Q19.25 5.1 19.45 4.65 L19.7 3.95 19.75 3.8 19.8 3.9" fill="#696969" fill-rule="evenodd" stroke="none"/>
  </g>
</svg>
