<?xml version="1.0" encoding="UTF-8" standalone="no"?>
<svg xmlns:ffdec="https://www.free-decompiler.com/flash" xmlns:xlink="http://www.w3.org/1999/xlink" ffdec:objectType="shape" height="33.1px" width="32.05px" xmlns="http://www.w3.org/2000/svg">
  <g transform="matrix(1.0, 0.0, 0.0, 1.0, 0.0, 0.0)">
    <path d="M7.25 1.7 L10.1 4.45 10.4 4.9 10.35 5.5 10.2 6.05 17.3 15.4 17.5 15.95 17.35 16.5 16.9 16.9 Q16.3 17.2 16.05 17.45 L15.55 17.75 14.95 17.7 14.5 17.4 7.2 8.05 6.75 8.0 Q6.5 8.0 6.35 7.85 6.1 7.75 6.0 7.55 L4.0 4.3 Q3.8 3.95 3.9 3.6 3.95 3.2 4.25 3.0 L5.95 1.65 Q6.2 1.4 6.6 1.4 7.0 1.4 7.25 1.7 M21.25 16.65 Q26.75 21.7 30.25 27.85 L30.35 28.45 Q29.95 33.55 24.65 33.05 L24.05 32.8 Q19.15 28.05 15.1 21.6 14.9 21.25 15.0 20.9 L15.35 20.3 19.95 16.6 20.6 16.35 Q20.95 16.35 21.25 16.65" fill="#f5af51" fill-rule="evenodd" stroke="none"/>
    <path d="M27.4 9.8 L27.45 9.75 27.4 9.75 27.4 9.8 M14.4 2.05 L15.85 0.85 15.95 0.95 18.25 1.65 19.5 2.2 19.6 2.25 20.15 2.5 20.5 2.65 20.8 2.75 23.0 3.7 23.7 4.1 Q27.05 5.75 28.1 7.9 L28.3 8.4 28.35 9.0 28.7 8.95 29.35 9.35 29.4 9.45 29.65 9.7 30.6 10.95 30.65 11.0 30.75 11.1 31.75 12.65 31.9 13.05 32.0 13.3 32.05 13.4 31.6 14.8 Q31.15 15.9 30.15 16.8 L28.6 17.95 26.85 18.7 26.35 18.75 25.95 18.55 24.7 17.6 24.65 17.6 24.5 17.5 Q23.75 16.9 23.0 16.4 22.65 16.15 22.6 15.8 L22.6 15.55 22.45 15.7 8.05 31.5 8.0 31.55 3.55 31.65 1.25 29.4 Q-0.9 27.35 1.45 25.05 L17.0 10.15 Q16.95 9.95 17.05 9.85 L16.7 9.4 16.6 9.1 Q15.7 8.65 15.0 6.05 L15.0 6.0 14.65 4.65 14.6 4.55 14.5 3.95 14.4 3.45 14.35 2.75 14.4 2.05" fill="#f5af51" fill-rule="evenodd" stroke="none"/>
    <path d="M7.25 1.15 L10.1 3.9 10.4 4.35 10.35 4.95 10.2 5.5 17.3 14.85 17.5 15.4 17.35 15.95 16.9 16.35 Q16.3 16.65 16.05 16.9 L15.55 17.2 14.95 17.15 14.5 16.85 7.2 7.5 6.75 7.45 Q6.5 7.45 6.35 7.3 6.1 7.2 6.0 7.0 L4.0 3.75 Q3.8 3.4 3.9 3.05 3.95 2.65 4.25 2.45 L5.95 1.1 Q6.2 0.85 6.6 0.85 7.0 0.85 7.25 1.15 M21.25 16.1 Q26.75 21.15 30.25 27.3 L30.35 27.9 Q29.95 33.0 24.65 32.5 L24.05 32.25 Q19.15 27.5 15.1 21.05 14.9 20.7 15.0 20.35 L15.35 19.75 19.95 16.05 20.6 15.8 Q20.95 15.8 21.25 16.1" fill="#613008" fill-rule="evenodd" stroke="none"/>
    <path d="M27.2 8.9 L27.25 8.85 27.2 8.85 27.2 8.9 M14.7 0.45 Q15.45 -0.2 16.2 0.05 L18.05 0.75 19.3 1.3 19.4 1.35 19.95 1.6 20.3 1.75 20.6 1.85 22.8 2.8 23.5 3.2 Q26.85 4.85 27.9 7.0 L28.1 7.5 28.15 8.1 28.5 8.05 29.15 8.45 29.2 8.55 29.45 8.8 30.4 10.05 30.45 10.1 30.55 10.2 31.55 11.75 31.7 12.15 31.8 12.4 31.85 12.5 31.4 13.9 Q30.95 15.0 29.95 15.9 L28.4 17.05 26.65 17.8 26.15 17.85 25.75 17.65 24.5 16.7 24.45 16.7 24.3 16.6 22.8 15.5 22.4 14.9 22.4 14.65 22.25 14.8 7.85 30.6 7.8 30.65 3.35 30.75 1.05 28.5 Q-1.1 26.45 1.25 24.15 L16.55 9.25 16.8 9.2 Q15.45 7.45 14.8 5.15 L14.8 5.1 14.45 3.75 14.4 3.65 14.3 3.05 14.2 2.55 14.1 2.0 Q13.95 1.05 14.7 0.45" fill="#613008" fill-rule="evenodd" stroke="none"/>
    <path d="M8.2 4.55 L16.5 15.45 Q15.6 15.8 15.3 16.2 L7.05 5.65 8.2 4.55" fill="#878787" fill-rule="evenodd" stroke="none"/>
    <path d="M19.55 15.35 Q25.95 21.75 29.35 27.8 29.0 31.9 24.75 31.5 19.9 26.85 15.95 20.5 L19.55 15.35" fill="#aa5730" fill-rule="evenodd" stroke="none"/>
    <path d="M17.8 20.25 L17.7 19.9 17.9 19.55 18.3 19.45 18.6 19.65 Q22.55 25.1 25.9 28.7 L26.0 29.1 25.85 29.45 25.5 29.55 25.15 29.4 Q21.75 25.8 17.8 20.25" fill="#f7a27a" fill-rule="evenodd" stroke="none"/>
    <path d="M17.55 20.5 L17.45 20.15 Q17.5 19.9 17.65 19.8 L18.05 19.7 18.35 19.9 Q22.3 25.35 25.65 28.95 L25.75 29.35 25.6 29.7 25.25 29.8 24.9 29.65 Q21.5 26.05 17.55 20.5" fill="#8e350b" fill-rule="evenodd" stroke="none"/>
    <path d="M19.4 18.75 L19.25 18.4 Q19.25 18.15 19.4 18.05 19.55 17.9 19.8 17.9 L20.15 18.05 Q25.25 23.5 27.8 27.5 L27.85 27.85 27.65 28.2 27.25 28.25 26.95 28.05 Q24.45 24.1 19.4 18.75" fill="#f7a27a" fill-rule="evenodd" stroke="none"/>
    <path d="M19.15 19.0 L19.0 18.65 Q19.0 18.4 19.15 18.3 19.3 18.15 19.55 18.15 L19.9 18.3 Q25.0 23.75 27.55 27.75 L27.6 28.1 27.4 28.45 27.0 28.5 26.7 28.3 Q24.2 24.35 19.15 19.0" fill="#8e350b" fill-rule="evenodd" stroke="none"/>
    <path d="M6.55 1.85 L9.4 4.6 8.75 6.6 6.85 6.45 4.85 3.2 6.55 1.85" fill="#878787" fill-rule="evenodd" stroke="none"/>
    <path d="M22.45 18.55 L20.75 19.45 20.6 19.35 Q20.0 19.45 20.2 19.95 L18.95 21.0 18.8 20.9 Q18.3 20.95 18.3 21.5 L18.3 21.6 17.2 22.55 15.8 20.45 20.15 15.75 22.45 18.55" fill="#170a00" fill-opacity="0.32941177" fill-rule="evenodd" stroke="none"/>
    <path d="M13.2 22.5 L17.0 18.3 17.2 18.0 17.7 17.55 17.75 17.45 18.9 16.2 22.65 12.05 22.85 11.55 Q22.7 10.8 22.1 10.25 L21.95 10.25 Q21.85 10.3 21.9 10.45 L21.85 10.5 21.75 10.6 21.55 10.55 Q20.95 10.3 19.35 8.7 L18.25 9.85 Q16.45 17.2 10.35 22.5 3.95 27.95 2.5 26.7 0.95 25.45 1.75 27.05 2.35 28.25 3.25 28.75 L3.3 28.7 3.4 28.8 3.85 29.25 6.6 29.35 Q8.15 28.25 10.6 25.45 L11.5 24.35 12.75 22.95 13.2 22.5 M18.85 8.55 L21.0 6.5 Q21.25 5.25 22.6 6.65 L24.85 8.95 25.55 9.8 7.05 29.95 Q5.45 31.6 4.0 30.1 L1.7 27.8 Q0.35 26.5 1.95 24.85 L16.0 11.3 18.2 9.35 18.4 9.15 18.4 9.2 19.05 8.6 18.85 8.55 M21.95 10.25 L21.9 10.2 21.95 10.25 M25.55 9.8 Q25.9 10.8 24.85 12.0 L25.55 9.8" fill="#a3681f" fill-rule="evenodd" stroke="none"/>
    <path d="M22.1 10.25 Q22.7 10.8 22.85 11.55 L22.65 12.05 18.9 16.2 17.75 17.45 17.7 17.55 17.2 18.0 17.0 18.3 13.2 22.5 18.0 16.6 18.85 15.6 Q20.55 14.05 21.8 12.1 L22.05 11.75 Q22.55 10.8 21.3 11.4 L21.2 11.4 21.1 11.35 21.05 11.3 21.2 11.05 21.05 11.0 Q20.5 10.75 19.95 11.45 L20.0 11.0 19.6 10.7 Q19.3 10.75 19.6 11.1 19.95 11.45 19.05 13.05 16.9 16.5 11.8 22.2 6.45 28.05 4.25 28.4 L3.85 28.35 Q3.3 27.8 2.6 27.85 L2.35 27.95 3.25 28.75 Q2.35 28.25 1.75 27.05 0.95 25.45 2.5 26.7 3.95 27.95 10.35 22.5 16.45 17.2 18.25 9.85 L19.35 8.7 Q20.95 10.3 21.55 10.55 L21.75 10.6 21.85 10.5 21.9 10.45 22.1 10.25 M11.5 24.35 L10.6 25.45 Q8.15 28.25 6.6 29.35 L3.85 29.25 Q5.15 29.75 6.55 28.7 9.2 26.75 11.5 24.35 M18.85 8.55 L19.05 8.6 18.4 9.2 18.4 9.15 18.2 9.35 16.0 11.3 18.85 8.55 M21.95 10.25 L21.9 10.2 21.95 10.25" fill="#9a6018" fill-rule="evenodd" stroke="none"/>
    <path d="M22.1 10.25 L21.9 10.45 Q21.85 10.3 21.95 10.25 L22.1 10.25 M3.25 28.75 L2.35 27.95 2.6 27.85 Q3.3 27.8 3.85 28.35 L4.25 28.4 Q6.45 28.05 11.8 22.2 16.9 16.5 19.05 13.05 19.95 11.45 19.6 11.1 19.3 10.75 19.6 10.7 L20.0 11.0 19.95 11.45 Q20.5 10.75 21.05 11.0 L21.2 11.05 21.05 11.3 21.1 11.35 21.2 11.4 21.3 11.4 Q22.55 10.8 22.05 11.75 L21.8 12.1 Q20.55 14.05 18.85 15.6 L18.0 16.6 13.2 22.5 12.75 22.95 11.5 24.35 Q9.2 26.75 6.55 28.7 5.15 29.75 3.85 29.25 L3.4 28.8 3.3 28.7 3.25 28.75" fill="#8e5712" fill-rule="evenodd" stroke="none"/>
    <path d="M19.15 2.35 Q20.65 3.0 21.55 4.15 L18.8 2.8 15.7 1.15 15.8 1.15 Q17.5 1.6 19.15 2.35 M30.1 12.05 L30.15 12.35 29.9 13.05 29.7 12.9 29.35 12.55 Q28.65 10.85 27.25 9.65 27.15 9.55 27.35 9.45 L27.5 9.4 Q29.55 9.95 30.1 12.05 M22.45 4.25 Q24.25 5.0 25.6 6.4 26.5 7.45 26.65 8.6 26.7 9.1 26.35 8.8 L24.5 7.25 Q23.05 5.95 22.35 4.4 22.25 4.25 22.45 4.25" fill="#bdbdbd" fill-rule="evenodd" stroke="none"/>
    <path d="M19.15 2.35 Q17.5 1.6 15.8 1.15 L15.7 1.15 18.8 2.8 21.55 4.15 Q20.65 3.0 19.15 2.35 M29.9 13.05 L27.8 14.75 27.1 14.45 Q25.25 13.4 25.1 11.3 25.05 10.8 24.25 11.15 23.35 11.55 22.3 10.65 L20.25 8.55 Q19.25 7.2 19.75 6.2 L20.2 5.25 Q19.4 5.4 18.75 6.0 17.3 5.85 16.55 3.9 L15.3 0.9 15.4 0.9 Q18.2 1.75 21.15 3.15 L21.6 3.95 22.25 3.7 Q26.35 5.45 27.2 7.75 L27.0 8.4 27.3 8.95 Q27.6 9.25 28.0 9.2 L28.4 9.1 28.65 9.3 30.2 11.35 30.1 12.05 Q29.55 9.95 27.5 9.4 L27.35 9.45 Q27.15 9.55 27.25 9.65 28.65 10.85 29.35 12.55 L29.7 12.9 29.9 13.05 M22.45 4.25 Q22.25 4.25 22.35 4.4 23.05 5.95 24.5 7.25 L26.35 8.8 Q26.7 9.1 26.65 8.6 26.5 7.45 25.6 6.4 24.25 5.0 22.45 4.25" fill="#878787" fill-rule="evenodd" stroke="none"/>
    <path d="M15.3 0.9 L16.55 3.9 Q17.3 5.85 18.75 6.0 19.4 5.4 20.2 5.25 L19.75 6.2 Q19.25 7.2 20.25 8.55 L22.3 10.65 Q23.35 11.55 24.25 11.15 25.05 10.8 25.1 11.3 25.25 13.4 27.1 14.45 L27.8 14.75 29.9 13.05 30.15 12.35 30.1 12.05 30.2 11.35 30.65 12.1 30.9 12.65 Q29.5 15.8 26.4 16.8 L23.4 14.65 23.55 14.1 23.2 13.45 22.6 13.3 22.0 13.55 21.6 13.25 Q18.9 11.55 17.35 8.5 L17.5 7.6 16.65 7.75 15.75 5.25 Q14.75 2.1 14.95 1.65 L15.2 0.95 15.25 0.8 15.3 0.9" fill="#696969" fill-rule="evenodd" stroke="none"/>
  </g>
</svg>
