<?xml version="1.0" encoding="UTF-8" standalone="no"?>
<svg xmlns:ffdec="https://www.free-decompiler.com/flash" xmlns:xlink="http://www.w3.org/1999/xlink" ffdec:objectType="shape" height="47.25px" width="100.15px" xmlns="http://www.w3.org/2000/svg">
  <g transform="matrix(1.0, 0.0, 0.0, 1.0, -147.35, -286.75)">
    <path d="M200.4 308.0 Q187.5 317.2 178.55 320.25 169.6 323.25 167.05 317.85 L167.0 317.85 167.2 315.2 Q168.3 311.95 172.7 311.0 177.2 310.0 180.0 305.9 182.45 302.15 180.35 292.4 180.75 290.05 181.75 289.2 179.65 288.8 177.5 291.35 174.15 295.15 172.1 296.25 169.4 297.65 166.8 298.0 164.2 298.05 163.75 301.35 L163.45 299.25 Q163.25 297.5 160.45 296.55 157.75 295.7 156.2 291.55 154.6 287.4 149.8 286.75 152.1 290.25 148.55 296.45 145.05 302.65 151.7 307.0 L157.6 310.85 Q160.55 312.75 159.85 314.9 158.35 320.8 159.65 327.55 160.4 333.0 168.05 332.55 206.6 335.3 247.45 332.85 248.4 308.95 230.95 303.85 213.55 298.75 200.4 308.0" fill="#6a3409" fill-rule="evenodd" stroke="none"/>
  </g>
</svg>
