<?xml version="1.0" encoding="UTF-8" standalone="no"?>
<svg xmlns:ffdec="https://www.free-decompiler.com/flash" xmlns:xlink="http://www.w3.org/1999/xlink" ffdec:objectType="shape" height="41.35px" width="42.7px" xmlns="http://www.w3.org/2000/svg">
  <g transform="matrix(1.0, 0.0, 0.0, 1.0, 0.0, 0.0)">
    <path d="M3.4 41.05 Q-0.3 39.2 0.2 34.95 0.6 32.1 1.3 15.3 0.95 11.15 0.2 7.05 -0.05 5.65 0.25 4.25 0.6 2.8 0.2 3.5 2.8 -0.9 15.35 0.2 L27.9 0.4 Q34.6 0.3 38.1 0.5 39.85 0.6 40.9 1.15 L41.55 1.7 Q42.25 2.15 42.1 5.45 L42.1 6.45 Q43.35 25.15 41.9 35.8 L41.85 36.05 41.75 36.65 41.9 36.65 41.85 37.0 Q41.75 38.65 40.1 40.6 21.45 41.85 3.4 41.05" fill="#773e10" fill-rule="evenodd" stroke="none"/>
    <path d="M38.35 4.05 L38.25 3.7 38.25 3.55 32.1 4.35 Q24.05 5.4 13.1 1.6 L8.35 0.15 8.35 0.3 6.85 0.3 Q9.9 1.05 12.8 2.1 23.95 5.9 32.15 4.8 L38.35 4.05 M0.5 3.4 Q0.7 0.6 2.65 0.4 8.7 -0.2 15.85 0.45 L35.9 1.05 36.1 1.05 Q38.15 1.2 38.3 3.65 L38.65 5.6 39.0 9.4 38.95 9.4 38.9 8.9 31.8 9.5 28.65 9.55 Q24.55 9.35 19.7 8.2 L12.95 6.2 Q7.1 4.2 0.5 3.4 M39.25 12.9 L39.55 17.75 39.6 18.95 31.2 18.2 Q23.45 18.2 18.0 20.3 12.35 22.4 12.4 25.5 12.35 28.65 18.0 30.85 23.45 32.95 31.2 32.95 L39.45 32.2 39.5 31.7 39.55 31.15 39.15 35.75 38.2 35.9 32.0 36.35 29.65 36.25 Q24.5 36.05 15.15 31.75 8.35 28.65 0.55 28.45 L0.8 24.6 Q8.1 24.1 13.85 21.05 22.1 16.65 29.7 16.65 L29.95 16.65 38.85 17.65 39.5 17.75 39.5 17.25 29.7 16.2 Q21.95 16.2 13.7 20.6 8.05 23.55 0.85 24.1 L0.9 23.2 1.05 20.6 Q8.2 19.95 14.25 17.25 22.6 13.4 30.55 14.05 L38.8 15.1 39.35 15.2 39.35 14.7 39.25 12.9 M39.6 19.0 L39.65 19.5 39.7 21.1 39.6 19.5 39.65 19.5 39.6 19.45 39.6 19.0 M39.7 22.3 L39.75 23.2 39.7 22.55 39.65 22.55 38.95 22.45 39.7 22.55 39.7 22.3 M39.65 29.1 L39.6 30.4 39.6 29.6 39.65 29.1 38.9 29.25 39.6 29.1 39.65 29.1 M39.1 36.15 L39.1 36.25 38.45 36.35 39.05 36.25 39.1 36.15 M37.95 39.05 L37.75 39.2 30.4 39.2 37.95 39.05 M1.1 18.6 L1.1 18.55 Q6.9 18.0 11.05 16.55 14.45 15.4 15.75 14.05 14.5 15.45 11.0 16.6 6.85 18.05 1.1 18.6 M1.1 18.15 L1.1 18.05 Q6.75 17.55 10.85 16.15 L12.05 15.75 10.8 16.2 Q6.7 17.6 1.1 18.15 M1.05 16.3 L1.05 16.2 8.7 15.1 Q12.05 14.3 13.1 13.3 12.1 14.35 8.65 15.2 L1.05 16.3 M1.05 15.8 L0.35 9.4 0.3 8.95 8.5 10.05 Q11.15 10.65 12.25 11.4 12.95 11.85 12.95 12.35 12.95 12.75 12.55 13.15 11.6 14.05 8.5 14.75 L1.05 15.8 M0.2 8.55 L0.2 8.5 Q5.15 8.75 8.65 9.55 L9.8 9.9 8.7 9.6 Q5.15 8.8 0.2 8.55 M0.15 6.15 L0.15 6.1 Q6.3 6.6 10.8 8.1 L12.05 8.6 10.85 8.15 Q6.4 6.6 0.15 6.15 M19.8 23.25 L20.25 23.1 21.4 22.8 20.3 23.1 19.8 23.25 M19.45 20.3 L18.15 20.75 Q12.95 22.75 12.85 25.5 12.95 28.35 18.15 30.3 L18.8 30.55 18.1 30.3 Q12.9 28.35 12.85 25.5 12.9 22.75 18.1 20.75 L19.45 20.3 M38.55 31.9 L39.45 31.7 39.5 31.7 38.55 31.9 M11.85 6.4 L12.65 6.65 15.45 7.6 12.7 6.7 11.85 6.4 M15.45 9.95 Q14.1 8.75 11.05 7.75 L7.35 6.7 11.0 7.65 Q14.1 8.7 15.45 9.95 M19.8 28.4 L20.3 28.55 20.7 28.7 20.25 28.55 19.8 28.4 M11.35 30.8 L15.0 32.2 16.6 32.95 15.0 32.25 Q13.2 31.45 11.35 30.8" fill="#c58c3f" fill-rule="evenodd" stroke="none"/>
    <path d="M38.35 4.05 L32.15 4.8 Q23.95 5.9 12.8 2.1 9.9 1.05 6.85 0.3 L8.35 0.3 8.35 0.15 13.1 1.6 Q24.05 5.4 32.1 4.35 L38.25 3.55 38.25 3.7 38.35 4.05 M0.5 3.4 Q7.1 4.2 12.95 6.2 L19.7 8.2 15.45 7.6 12.65 6.65 11.85 6.4 11.55 6.3 10.45 5.95 Q5.65 4.5 0.4 3.85 L0.3 3.85 0.35 3.35 0.5 3.4 M28.65 9.55 L31.8 9.5 38.9 8.9 38.95 9.4 31.8 10.0 28.65 9.55 M39.6 18.95 L39.6 19.0 39.6 19.45 39.65 19.5 39.6 19.5 37.6 19.15 31.2 18.7 30.75 18.7 Q24.3 18.75 19.45 20.3 L18.1 20.75 Q12.9 22.75 12.85 25.5 12.9 28.35 18.1 30.3 L18.8 30.55 19.5 30.8 Q24.3 32.4 30.75 32.45 L31.2 32.45 38.55 31.9 39.5 31.7 39.45 32.2 31.2 32.95 Q23.45 32.95 18.0 30.85 12.35 28.65 12.4 25.5 12.35 22.4 18.0 20.3 23.45 18.2 31.2 18.2 L39.6 18.95 M39.7 22.05 L39.7 22.3 39.7 22.55 38.95 22.45 35.7 22.0 31.2 21.8 31.15 21.8 30.95 21.8 Q25.5 21.8 21.4 22.8 L20.25 23.1 19.8 23.25 19.3 23.4 Q16.1 24.4 15.9 25.75 L15.9 25.85 15.9 25.95 Q16.25 26.9 19.3 28.3 L19.8 28.4 20.25 28.55 20.7 28.7 21.15 28.8 Q25.4 29.8 31.15 29.8 L31.2 29.8 35.65 29.65 38.9 29.25 39.65 29.1 39.6 29.6 31.2 30.3 31.15 30.3 Q25.1 30.3 20.7 29.2 L20.45 29.15 20.15 29.05 Q15.4 27.75 15.45 25.85 15.4 23.95 20.15 22.6 24.7 21.35 31.15 21.35 L31.2 21.35 39.7 22.05 M39.15 35.75 L39.1 36.1 39.1 36.15 39.05 36.25 38.45 36.35 29.65 36.75 29.6 36.75 25.85 36.2 Q22.5 35.4 18.1 33.55 L16.6 32.95 15.0 32.2 11.35 30.8 Q6.2 29.1 0.5 28.9 L0.55 28.45 Q8.35 28.65 15.15 31.75 24.5 36.05 29.65 36.25 L32.0 36.35 38.2 35.9 39.15 35.75 M0.8 24.6 L0.85 24.1 Q8.05 23.55 13.7 20.6 21.95 16.2 29.7 16.2 L39.5 17.25 39.5 17.75 38.85 17.65 29.95 16.65 29.7 16.65 Q22.1 16.65 13.85 21.05 8.1 24.1 0.8 24.6 M1.05 20.6 L1.1 20.05 Q8.05 19.5 14.0 16.8 22.5 12.9 30.55 13.55 L30.6 13.55 38.85 14.6 39.1 14.65 39.35 14.7 39.35 15.2 38.8 15.1 30.55 14.05 Q22.6 13.4 14.25 17.25 8.2 19.95 1.05 20.6 M1.1 18.55 L1.1 18.15 Q6.7 17.6 10.8 16.2 L12.05 15.75 13.05 15.3 14.7 14.35 15.25 13.85 Q16.0 13.0 16.0 12.15 16.0 11.15 15.0 10.25 L14.7 9.95 Q14.05 9.45 13.1 9.05 L12.05 8.6 10.8 8.1 Q6.3 6.6 0.15 6.1 L0.05 6.1 0.05 5.7 0.2 5.7 7.35 6.7 11.05 7.75 Q14.1 8.75 15.45 9.95 16.6 11.0 16.55 12.15 16.6 13.15 15.75 14.05 14.45 15.4 11.05 16.55 6.9 18.0 1.1 18.55 M1.05 16.2 L1.05 15.8 8.5 14.75 Q11.6 14.05 12.55 13.15 12.95 12.75 12.95 12.35 12.95 11.85 12.25 11.4 11.15 10.65 8.5 10.05 L0.3 8.95 0.2 8.55 Q5.15 8.8 8.7 9.6 L9.8 9.9 10.75 10.2 12.2 10.8 12.8 11.2 Q13.5 11.7 13.5 12.35 13.5 12.85 13.1 13.3 12.05 14.3 8.7 15.1 L1.05 16.2" fill="#ae7528" fill-rule="evenodd" stroke="none"/>
    <path d="M19.7 8.2 Q24.55 9.35 28.65 9.55 L31.8 10.0 38.95 9.4 39.0 9.4 39.05 9.8 39.25 12.9 39.35 14.7 39.1 14.65 38.85 14.6 30.6 13.55 30.55 13.55 Q22.5 12.9 14.0 16.8 8.05 19.5 1.1 20.05 L1.1 18.6 Q6.85 18.05 11.0 16.6 14.5 15.45 15.75 14.05 16.6 13.15 16.55 12.15 16.6 11.0 15.45 9.95 14.1 8.7 11.0 7.65 L7.35 6.7 0.2 5.7 0.05 5.7 Q0.0 4.75 0.1 3.85 L0.3 3.85 0.4 3.85 Q5.65 4.5 10.45 5.95 L11.55 6.3 11.85 6.4 12.7 6.7 15.45 7.6 19.7 8.2" fill="url(#gradient0)" fill-rule="evenodd" stroke="none"/>
    <path d="M1.1 18.05 L1.05 16.3 8.65 15.2 Q12.1 14.35 13.1 13.3 13.5 12.85 13.5 12.35 13.5 11.7 12.8 11.2 L12.2 10.8 10.75 10.2 9.8 9.9 8.65 9.55 Q5.15 8.75 0.2 8.5 L0.05 6.15 0.15 6.15 Q6.4 6.6 10.85 8.15 L12.05 8.6 13.1 9.05 Q14.05 9.45 14.7 9.95 L15.0 10.25 Q16.0 11.15 16.0 12.15 16.0 13.0 15.25 13.85 L14.7 14.35 13.05 15.3 12.05 15.75 10.85 16.15 Q6.75 17.55 1.1 18.05" fill="url(#gradient1)" fill-rule="evenodd" stroke="none"/>
    <path d="M39.7 21.1 L39.7 22.05 31.2 21.35 31.15 21.35 Q24.7 21.35 20.15 22.6 15.4 23.95 15.45 25.85 15.4 27.75 20.15 29.05 L20.45 29.15 20.7 29.2 Q25.1 30.3 31.15 30.3 L31.2 30.3 39.6 29.6 39.6 30.4 39.6 30.65 39.55 31.15 39.5 31.7 39.45 31.7 38.55 31.9 31.2 32.45 30.75 32.45 Q24.3 32.4 19.5 30.8 L18.8 30.55 18.15 30.3 Q12.95 28.35 12.85 25.5 12.95 22.75 18.15 20.75 L19.45 20.3 Q24.3 18.75 30.75 18.7 L31.2 18.7 37.6 19.15 39.6 19.5 39.7 21.1" fill="url(#gradient2)" fill-rule="evenodd" stroke="none"/>
    <path d="M39.1 36.25 L38.75 37.85 38.6 38.2 37.95 39.05 30.4 39.2 27.95 39.2 25.9 39.25 19.65 39.35 Q10.45 40.5 1.65 39.4 -0.2 37.55 0.1 34.05 L0.5 28.9 Q6.2 29.1 11.35 30.8 13.2 31.45 15.0 32.25 L16.6 32.95 18.1 33.55 Q22.5 35.4 25.85 36.2 L29.6 36.75 29.65 36.75 38.45 36.35 39.1 36.25" fill="url(#gradient3)" fill-rule="evenodd" stroke="none"/>
    <path d="M39.75 23.2 L39.75 23.4 39.65 29.1 39.6 29.1 38.9 29.25 35.65 29.65 31.2 29.8 31.15 29.8 Q25.4 29.8 21.15 28.8 L20.7 28.7 20.3 28.55 19.8 28.4 19.3 28.3 Q16.25 26.9 15.9 25.95 L15.9 25.85 15.9 25.75 Q16.1 24.4 19.3 23.4 L19.8 23.25 20.3 23.1 21.4 22.8 Q25.5 21.8 30.95 21.8 L31.15 21.8 31.2 21.8 35.7 22.0 38.95 22.45 39.65 22.55 39.7 22.55 39.75 23.2" fill="url(#gradient4)" fill-rule="evenodd" stroke="none"/>
  </g>
  <defs>
    <linearGradient gradientTransform="matrix(-0.0566, -0.0069, -0.0011, 0.0099, 33.25, 13.75)" gradientUnits="userSpaceOnUse" id="gradient0" spreadMethod="pad" x1="-819.2" x2="819.2">
      <stop offset="0.0" stop-color="#b17536"/>
      <stop offset="1.0" stop-color="#ce9744"/>
    </linearGradient>
    <linearGradient gradientTransform="matrix(-0.0182, 0.0, 0.0, 0.0074, 11.0, 12.0)" gradientUnits="userSpaceOnUse" id="gradient1" spreadMethod="pad" x1="-819.2" x2="819.2">
      <stop offset="0.0" stop-color="#b17536"/>
      <stop offset="1.0" stop-color="#ce9744"/>
    </linearGradient>
    <linearGradient gradientTransform="matrix(-0.0164, 0.0023, 0.0012, 0.0085, 26.5, 25.15)" gradientUnits="userSpaceOnUse" id="gradient2" spreadMethod="pad" x1="-819.2" x2="819.2">
      <stop offset="0.0" stop-color="#b17536"/>
      <stop offset="1.0" stop-color="#ce9744"/>
    </linearGradient>
    <linearGradient gradientTransform="matrix(0.066, 0.0141, 0.0015, -0.0082, 13.75, 25.0)" gradientUnits="userSpaceOnUse" id="gradient3" spreadMethod="pad" x1="-819.2" x2="819.2">
      <stop offset="0.0" stop-color="#b17536"/>
      <stop offset="1.0" stop-color="#ce9744"/>
    </linearGradient>
    <linearGradient gradientTransform="matrix(-0.0098, 0.0108, 0.0038, 0.0034, 27.9, 25.5)" gradientUnits="userSpaceOnUse" id="gradient4" spreadMethod="pad" x1="-819.2" x2="819.2">
      <stop offset="0.0" stop-color="#b17536"/>
      <stop offset="1.0" stop-color="#ce9744"/>
    </linearGradient>
  </defs>
</svg>
