<?xml version="1.0" encoding="UTF-8" standalone="no"?>
<svg xmlns:ffdec="https://www.free-decompiler.com/flash" xmlns:xlink="http://www.w3.org/1999/xlink" ffdec:objectType="shape" height="33.8px" width="34.0px" xmlns="http://www.w3.org/2000/svg">
  <g transform="matrix(1.0, 0.0, 0.0, 1.0, 0.0, 0.0)">
    <path d="M4.6 17.35 Q4.5 12.25 8.05 8.65 11.6 5.05 16.65 5.0 21.75 4.95 25.35 8.45 28.95 11.95 29.05 17.05 29.1 22.1 25.55 25.75 22.05 29.35 16.95 29.4 11.9 29.45 8.25 25.95 4.65 22.4 4.6 17.35 M9.0 9.6 Q5.85 12.85 5.9 17.35 5.95 21.85 9.2 25.0 12.45 28.15 16.95 28.1 21.45 28.05 24.65 24.8 27.75 21.55 27.7 17.05 27.65 12.55 24.45 9.4 21.15 6.25 16.65 6.3 12.15 6.35 9.0 9.6 M5.65 17.35 Q5.6 12.75 8.85 9.4 12.05 6.1 16.65 6.05 21.3 6.0 24.6 9.2 27.9 12.45 27.95 17.05 28.0 21.65 24.8 25.0 21.6 28.3 16.95 28.35 12.35 28.4 9.05 25.2 5.7 21.95 5.65 17.35 M8.25 8.85 Q4.75 12.4 4.85 17.35 4.9 22.3 8.45 25.75 12.0 29.2 16.95 29.15 21.95 29.1 25.4 25.55 28.8 22.0 28.75 17.05 28.65 12.1 25.2 8.65 21.65 5.2 16.65 5.25 11.7 5.3 8.25 8.85" fill="#552b26" fill-rule="evenodd" stroke="none"/>
    <path d="M8.25 8.85 Q11.7 5.3 16.65 5.25 21.65 5.2 25.2 8.65 28.65 12.1 28.75 17.05 28.8 22.0 25.4 25.55 21.95 29.1 16.95 29.15 12.0 29.2 8.45 25.75 4.9 22.3 4.85 17.35 4.75 12.4 8.25 8.85 M5.65 17.35 Q5.7 21.95 9.05 25.2 12.35 28.4 16.95 28.35 21.6 28.3 24.8 25.0 28.0 21.65 27.95 17.05 27.9 12.45 24.6 9.2 21.3 6.0 16.65 6.05 12.05 6.1 8.85 9.4 5.6 12.75 5.65 17.35" fill="#672208" fill-rule="evenodd" stroke="none"/>
    <path d="M7.7 7.6 L7.65 7.55 17.0 13.65 16.95 16.5 7.7 7.6 M26.75 6.5 L26.8 6.45 19.85 16.35 17.05 16.55 26.75 6.5 M26.15 25.5 L26.2 25.55 16.85 19.4 16.85 18.05 16.9 16.7 16.9 16.6 26.15 25.5 M7.05 26.6 L7.0 26.7 13.95 16.75 16.8 16.55 7.05 26.6" fill="#ecae5b" fill-rule="evenodd" stroke="none"/>
    <path d="M7.7 7.6 L16.95 16.5 17.0 13.65 26.75 6.5 17.05 16.55 19.85 16.35 19.95 16.35 26.15 25.5 16.9 16.6 16.9 16.7 16.9 16.55 16.85 18.05 16.85 19.4 16.8 19.5 7.05 26.6 16.8 16.55 13.95 16.75 13.9 16.75 7.7 7.6" fill="#6b3c16" fill-rule="evenodd" stroke="none"/>
    <path d="M0.1 17.1 L0.0 17.1 14.4 14.35 17.0 16.85 0.1 17.1 M16.8 0.1 L16.8 0.0 19.6 14.25 17.1 16.8 16.8 0.1 M33.9 16.6 L34.0 16.6 19.55 19.4 18.35 18.15 17.1 16.95 17.05 16.9 33.9 16.6 M17.15 33.7 L17.15 33.8 14.4 19.5 16.9 16.95 17.15 33.7" fill="#ecae5b" fill-rule="evenodd" stroke="none"/>
    <path d="M0.1 17.1 L17.0 16.85 14.4 14.35 14.35 14.35 16.8 0.1 17.1 16.8 19.6 14.25 19.65 14.15 33.9 16.6 17.05 16.9 17.1 16.95 17.1 17.0 17.0 16.9 18.35 18.15 19.55 19.4 19.6 19.45 17.15 33.7 16.9 16.95 14.4 19.5 14.35 19.55 0.1 17.1" fill="#672208" fill-rule="evenodd" stroke="none"/>
  </g>
</svg>
