<?xml version="1.0" encoding="UTF-8" standalone="no"?>
<svg xmlns:ffdec="https://www.free-decompiler.com/flash" xmlns:xlink="http://www.w3.org/1999/xlink" ffdec:objectType="shape" height="25.5px" width="111.0px" xmlns="http://www.w3.org/2000/svg">
  <g transform="matrix(1.0, 0.0, 0.0, 1.0, -63.9, -7.25)">
    <path d="M174.0 10.55 Q174.65 12.9 174.85 15.9 L171.35 16.05 171.15 13.45 Q170.85 11.2 170.05 11.1 169.0 11.3 168.7 13.45 168.35 15.25 170.85 17.75 173.25 20.2 174.1 21.8 174.9 23.5 174.9 25.35 174.9 27.2 174.25 29.2 173.4 32.4 170.2 32.65 L170.2 32.7 Q166.8 32.6 165.85 29.35 165.2 27.1 164.9 24.6 L168.35 24.15 168.7 26.45 Q169.0 28.65 170.05 28.8 170.85 28.6 171.05 26.35 171.6 23.95 169.35 21.75 167.1 19.55 166.25 17.75 164.9 15.45 165.25 12.5 165.3 11.75 165.65 10.65 166.5 7.45 169.95 7.25 173.15 7.35 174.0 10.55 M158.8 11.35 L158.75 16.2 162.25 16.25 162.15 20.25 158.7 20.2 158.6 28.3 163.1 28.35 162.95 32.5 155.05 32.35 155.4 7.3 163.0 7.35 163.15 11.3 158.8 11.35 M134.7 7.3 Q138.2 7.4 139.05 10.65 139.95 13.85 139.95 19.95 139.95 26.15 139.05 29.35 138.2 32.6 134.7 32.7 131.2 32.4 130.35 29.25 129.5 26.1 129.5 19.95 L129.55 19.95 Q129.55 13.85 130.35 10.7 131.25 7.5 134.7 7.3 M134.85 11.2 Q133.7 11.35 133.5 13.55 133.2 15.75 133.2 19.95 133.2 24.2 133.5 26.45 133.7 28.6 134.85 28.8 135.9 28.65 136.15 26.45 L136.4 19.95 136.2 13.5 Q135.9 11.3 134.85 11.15 L134.85 11.2 M145.45 7.3 L148.65 7.5 Q151.9 8.45 152.2 15.9 152.05 20.3 149.85 22.15 L153.05 32.25 149.6 32.65 146.75 23.45 145.9 23.5 145.9 32.4 142.35 32.35 142.35 7.5 145.45 7.3 M148.3 11.85 Q147.75 10.1 145.9 10.45 L145.9 19.85 Q147.15 19.75 147.75 19.2 148.45 18.55 148.65 15.55 L148.3 11.85 M126.8 10.65 Q127.35 12.9 127.55 16.6 L124.15 17.1 123.85 13.5 Q123.6 11.3 122.55 11.2 121.45 11.4 121.2 13.55 120.9 15.8 120.9 20.05 120.9 24.25 121.2 26.45 121.45 28.6 122.55 28.8 123.6 28.7 123.9 26.5 L124.15 22.85 127.6 23.0 Q127.45 26.95 126.8 29.35 125.9 32.6 122.45 32.7 118.9 32.5 118.1 29.3 117.25 26.15 117.25 20.05 L117.2 20.05 Q117.2 13.85 118.1 10.7 118.9 7.5 122.45 7.3 125.85 7.4 126.8 10.65 M110.4 7.25 Q113.55 7.35 114.45 10.55 115.1 12.9 115.3 15.9 L111.8 16.05 111.6 13.45 Q111.3 11.2 110.5 11.1 109.45 11.3 109.15 13.45 108.8 15.25 111.3 17.75 113.7 20.2 114.55 21.8 115.35 23.5 115.35 25.35 115.35 27.2 114.7 29.2 113.85 32.4 110.65 32.65 L110.65 32.7 Q107.25 32.6 106.3 29.35 105.65 27.1 105.35 24.6 L108.8 24.15 109.15 26.45 Q109.45 28.65 110.5 28.8 111.3 28.6 111.5 26.35 112.05 23.95 109.8 21.75 107.5 19.55 106.7 17.75 105.35 15.45 105.7 12.5 105.75 11.75 106.1 10.65 106.95 7.45 110.4 7.25 M90.5 7.35 L90.5 28.6 95.35 28.15 95.5 32.0 87.05 32.35 87.15 7.3 90.5 7.35 M84.7 32.0 L76.2 32.35 76.35 7.3 79.7 7.35 79.7 28.6 84.55 28.15 84.7 32.0 M71.25 7.25 L74.75 31.9 71.4 32.0 70.9 28.5 67.8 28.6 67.4 32.7 63.9 32.75 66.95 7.6 71.25 7.25 M70.4 25.0 L69.05 16.55 68.15 24.95 70.4 25.0" fill="#333333" fill-rule="evenodd" stroke="none"/>
    <path d="M163.0 7.45 L155.8 7.4 155.45 32.35 155.05 32.35 155.4 7.3 163.0 7.35 163.0 7.45 M162.25 16.25 L162.25 16.35 159.15 16.3 159.15 16.2 162.25 16.25 M169.95 7.25 L171.3 7.45 170.35 7.35 Q166.9 7.55 166.05 10.75 165.7 11.85 165.65 12.6 165.3 15.55 166.65 17.85 167.5 19.65 169.75 21.85 172.0 24.05 171.45 26.45 171.25 28.7 170.45 28.9 L170.1 28.8 Q170.85 28.5 171.05 26.35 171.6 23.95 169.35 21.75 167.1 19.55 166.25 17.75 164.9 15.45 165.25 12.5 165.3 11.75 165.65 10.65 166.5 7.45 169.95 7.25 M170.35 11.25 L170.45 11.2 Q171.25 11.3 171.55 13.55 L171.75 16.05 171.35 16.05 171.15 13.45 Q170.9 11.65 170.35 11.25 M168.4 24.3 L165.3 24.7 Q165.6 27.2 166.25 29.45 167.0 31.95 169.15 32.6 166.65 32.05 165.85 29.35 165.2 27.1 164.9 24.6 L168.35 24.15 168.4 24.3 M148.3 11.85 Q147.95 10.8 147.2 10.5 148.3 10.65 148.7 11.95 L149.05 15.65 Q148.85 18.65 148.15 19.3 147.55 19.85 146.3 19.95 L146.3 19.8 147.75 19.2 Q148.45 18.55 148.65 15.55 L148.3 11.85 M163.1 28.35 L163.1 28.45 159.0 28.4 159.0 28.3 163.1 28.35 M142.75 7.6 L142.75 32.35 142.35 32.35 142.35 7.5 145.45 7.3 148.65 7.5 148.9 7.6 145.85 7.4 142.75 7.6 M122.9 11.3 L122.95 11.3 Q124.0 11.4 124.25 13.6 L124.55 17.05 124.15 17.1 123.85 13.5 Q123.65 11.7 122.9 11.3 M123.9 7.55 L122.85 7.4 Q119.3 7.6 118.5 10.8 117.6 13.95 117.6 20.15 L117.65 20.15 Q117.65 26.25 118.5 29.4 119.1 31.9 121.45 32.6 118.8 32.0 118.1 29.3 117.25 26.15 117.25 20.05 L117.2 20.05 Q117.2 13.85 118.1 10.7 118.9 7.5 122.45 7.3 L123.9 7.55 M135.25 11.3 L135.25 11.25 Q136.3 11.4 136.6 13.6 L136.8 20.05 136.55 26.55 Q136.3 28.75 135.25 28.9 L134.9 28.8 Q135.9 28.6 136.15 26.45 L136.4 19.95 136.2 13.5 Q135.95 11.75 135.25 11.3 M136.2 7.55 L135.1 7.4 Q131.65 7.6 130.75 10.8 129.95 13.95 129.95 20.05 L129.9 20.05 Q129.9 26.2 130.75 29.35 131.45 31.9 133.85 32.6 131.1 32.0 130.35 29.25 129.5 26.1 129.5 19.95 L129.55 19.95 Q129.55 13.85 130.35 10.7 131.25 7.5 134.7 7.3 L136.2 7.55 M146.8 23.6 L147.15 23.55 149.95 32.6 149.6 32.65 146.8 23.6 M127.6 23.1 L124.55 22.95 124.3 26.6 Q124.0 28.8 122.95 28.9 L122.65 28.8 Q123.6 28.6 123.9 26.5 L124.15 22.85 127.6 23.0 127.6 23.1 M110.8 11.25 L110.9 11.2 Q111.7 11.3 112.0 13.55 L112.2 16.05 111.8 16.05 111.6 13.45 Q111.35 11.65 110.8 11.25 M110.8 7.35 Q107.35 7.55 106.5 10.75 L106.1 12.6 Q105.75 15.55 107.1 17.85 107.9 19.65 110.2 21.85 112.45 24.05 111.9 26.45 111.7 28.7 110.9 28.9 L110.55 28.8 Q111.3 28.5 111.5 26.35 112.05 23.95 109.8 21.75 107.5 19.55 106.7 17.75 105.35 15.45 105.7 12.5 105.75 11.75 106.1 10.65 106.95 7.45 110.4 7.25 L111.7 7.45 110.8 7.35 M108.85 24.3 L105.75 24.7 Q106.05 27.2 106.7 29.45 107.45 31.95 109.6 32.6 107.1 32.05 106.3 29.35 105.65 27.1 105.35 24.6 L108.8 24.15 108.85 24.3 M90.5 7.45 L87.55 7.4 87.45 32.35 87.05 32.35 87.15 7.3 90.5 7.35 90.5 7.45 M84.55 28.3 L80.1 28.7 80.1 28.6 84.55 28.15 84.55 28.3 M95.35 28.3 L90.9 28.7 90.9 28.6 95.35 28.15 95.35 28.3 M79.7 7.45 L76.75 7.4 76.6 32.35 76.2 32.35 76.35 7.3 79.7 7.35 79.7 7.45 M71.25 7.25 L71.3 7.4 67.35 7.7 64.35 32.75 63.9 32.75 66.95 7.6 71.25 7.25 M71.3 28.6 L71.8 32.0 71.4 32.0 70.95 28.65 71.3 28.6 M69.3 18.1 L69.45 16.65 70.8 25.1 68.55 25.05 68.55 24.95 70.4 25.0 69.3 18.1" fill="#808080" fill-rule="evenodd" stroke="none"/>
  </g>
</svg>
