<?xml version="1.0" encoding="UTF-8" standalone="no"?>
<svg xmlns:ffdec="https://www.free-decompiler.com/flash" xmlns:xlink="http://www.w3.org/1999/xlink" ffdec:objectType="shape" height="80.15px" width="147.7px" xmlns="http://www.w3.org/2000/svg">
  <g transform="matrix(1.0, 0.0, 0.0, 1.0, -38.4, -3.9)">
    <path d="M183.9 17.45 Q184.45 18.05 184.4 17.25 184.75 22.4 184.75 27.7 184.75 32.9 185.1 33.85 L185.4 35.35 185.1 38.35 Q184.75 40.45 184.75 41.65 L185.0 46.0 185.35 50.4 185.85 57.25 186.1 62.8 Q186.1 65.15 184.8 73.15 183.55 80.85 183.65 83.55 L182.45 83.45 174.4 83.0 Q167.35 83.0 159.6 83.3 L145.25 83.6 142.25 83.35 140.4 83.1 138.15 83.35 136.35 83.65 132.0 83.2 128.35 82.8 126.5 83.15 123.95 83.45 97.85 83.25 89.9 83.05 84.65 83.2 69.0 83.75 59.25 84.05 53.35 82.25 48.95 81.1 Q47.65 80.85 45.4 79.3 43.2 77.7 43.2 75.9 43.25 74.05 42.4 73.9 41.6 73.7 41.9 73.1 42.2 72.5 42.25 69.35 L42.25 63.8 40.35 46.55 38.4 29.85 Q39.15 13.05 39.4 12.4 L39.7 10.5 39.45 9.65 39.2 8.75 39.25 6.45 41.0 6.5 48.85 6.2 65.8 6.8 87.05 7.45 95.7 7.25 101.45 7.05 106.55 7.3 122.45 7.6 152.55 6.65 172.65 5.95 Q172.85 6.8 174.1 7.25 176.05 7.95 176.8 9.05 177.5 10.1 180.15 12.95 L183.9 17.45" fill="#150d01" fill-opacity="0.34117648" fill-rule="evenodd" stroke="none"/>
    <path d="M181.75 14.15 L183.85 16.85 184.1 17.15 Q183.9 23.6 184.15 30.05 185.05 32.15 184.4 34.85 183.8 37.6 184.15 40.6 L185.2 55.45 185.35 58.75 184.5 65.2 Q183.8 73.35 183.3 75.35 L182.8 77.9 182.95 78.7 182.3 78.7 182.05 78.65 181.75 78.65 173.75 78.2 170.55 78.3 156.1 78.75 155.9 78.75 155.45 78.75 153.1 78.75 145.6 78.8 144.9 78.8 141.4 78.3 Q138.75 78.15 137.2 78.8 L136.05 78.8 131.75 78.2 124.3 78.65 112.5 78.35 103.35 78.3 102.85 78.3 99.15 78.3 96.1 78.35 95.95 78.35 Q89.6 78.0 81.15 78.65 L62.0 79.2 Q60.55 78.35 58.3 77.2 58.7 77.2 59.95 77.7 61.15 78.2 63.5 78.3 L71.35 77.85 Q76.8 77.25 84.45 77.65 91.2 78.0 97.65 77.35 L110.1 76.85 119.1 77.4 123.65 77.6 128.95 76.9 Q132.95 76.05 137.0 76.9 L141.6 77.0 Q144.85 76.35 148.15 77.15 L148.3 77.15 150.75 77.0 157.0 76.7 163.35 77.1 169.4 77.35 171.6 77.0 176.55 76.75 180.05 76.8 Q179.8 72.55 181.2 68.2 182.05 65.45 180.05 63.15 178.9 61.85 180.15 61.95 181.45 62.05 181.5 56.85 181.6 51.7 182.95 48.75 184.35 45.9 182.6 41.65 180.9 37.45 181.25 31.2 181.35 26.75 181.0 22.4 180.65 18.6 181.6 14.8 L181.75 14.15 M44.7 69.8 L42.65 68.4 42.3 66.75 Q42.4 65.2 43.3 63.5 L43.65 62.7 Q44.5 60.35 44.05 57.85 41.85 48.4 41.75 38.75 42.65 38.55 42.7 38.15 L44.25 37.7 41.65 37.4 Q41.5 32.2 40.35 27.0 40.45 18.95 41.05 10.85 41.75 9.65 41.65 8.35 L41.45 7.25 41.2 6.7 41.25 4.8 41.2 4.45 44.7 4.45 49.7 4.3 50.6 4.2 62.9 4.95 71.65 5.1 77.75 5.25 89.05 5.4 90.75 5.2 97.9 5.25 Q102.2 4.95 104.0 5.2 L117.35 5.5 Q128.8 5.65 136.45 5.35 L149.2 4.7 171.75 4.25 171.9 4.35 173.5 5.1 174.85 5.8 175.05 6.0 Q160.7 5.75 149.05 6.05 L132.4 6.25 122.25 7.15 115.9 7.75 90.95 6.9 86.45 6.55 Q77.4 7.15 68.1 6.2 L63.45 6.1 56.05 5.7 Q54.55 6.45 51.75 6.3 49.25 6.15 46.65 6.3 L44.7 6.35 Q45.05 10.9 43.85 14.6 L43.9 15.2 Q45.9 22.95 44.95 27.6 44.1 31.8 44.1 37.05 46.15 37.1 46.4 37.65 46.4 38.3 43.5 39.35 45.95 44.05 44.9 50.0 44.7 55.4 46.4 57.35 48.15 59.35 46.4 60.35 44.65 61.35 44.65 66.95 L44.7 69.8 M181.95 3.9 L182.0 3.9 182.15 4.15 181.95 3.9" fill="#b8802a" fill-rule="evenodd" stroke="none"/>
    <path d="M181.75 14.15 L181.6 14.8 Q180.65 18.6 181.0 22.4 181.35 26.75 181.25 31.2 180.9 37.45 182.6 41.65 184.35 45.9 182.95 48.75 181.6 51.7 181.5 56.85 181.45 62.05 180.15 61.95 178.9 61.85 180.05 63.15 182.05 65.45 181.2 68.2 179.8 72.55 180.05 76.8 L176.55 76.75 171.6 77.0 169.4 77.35 163.35 77.1 157.0 76.7 150.75 77.0 148.3 77.15 148.15 77.15 Q144.85 76.35 141.6 77.0 L137.0 76.9 Q132.95 76.05 128.95 76.9 L123.65 77.6 119.1 77.4 110.1 76.85 97.65 77.35 Q91.2 78.0 84.45 77.65 76.8 77.25 71.35 77.85 L63.5 78.3 Q61.15 78.2 59.95 77.7 58.7 77.2 58.3 77.2 L57.05 76.55 54.75 75.35 61.85 75.6 Q67.4 75.9 71.3 73.95 83.75 76.15 91.5 74.8 99.3 73.5 118.1 74.8 136.9 76.2 146.85 74.65 156.85 73.1 162.35 75.25 L174.55 74.9 175.65 73.9 Q175.8 73.3 175.35 66.15 174.85 58.9 177.2 56.4 179.7 53.85 179.7 47.05 179.7 40.2 176.7 33.85 173.6 27.5 177.8 16.4 179.0 13.0 179.2 10.9 L179.95 11.9 181.75 14.15 M51.2 73.65 L48.7 72.4 44.7 69.8 44.65 66.95 Q44.65 61.35 46.4 60.35 48.15 59.35 46.4 57.35 44.7 55.4 44.9 50.0 45.95 44.05 43.5 39.35 46.4 38.3 46.4 37.65 46.15 37.1 44.1 37.05 44.1 31.8 44.95 27.6 45.9 22.95 43.9 15.2 L43.85 14.6 Q45.05 10.9 44.7 6.35 L46.65 6.3 Q49.25 6.15 51.75 6.3 54.55 6.45 56.05 5.7 L63.45 6.1 68.1 6.2 Q77.4 7.15 86.45 6.55 L90.95 6.9 115.9 7.75 122.25 7.15 132.4 6.25 149.05 6.05 Q160.7 5.75 175.05 6.0 L176.3 7.25 174.3 7.7 154.55 8.3 Q138.7 8.5 137.95 10.6 L136.4 12.75 Q136.4 12.5 128.35 10.55 119.6 8.4 107.85 9.4 96.0 10.4 70.15 9.05 44.25 7.7 46.35 10.15 48.4 12.6 49.05 16.1 L49.0 17.6 48.55 18.1 Q47.9 18.55 47.65 19.1 47.05 20.2 46.85 21.3 48.95 23.15 50.2 25.25 L50.4 25.75 Q50.7 30.05 49.45 34.1 48.15 38.25 47.7 42.65 L46.2 48.6 Q47.9 50.25 48.45 51.9 49.55 54.85 50.25 57.95 50.8 60.55 52.9 62.9 54.55 64.6 52.5 66.1 L49.65 68.05 Q49.85 68.9 50.5 69.5 52.2 71.45 51.2 73.65" fill="#cdae4f" fill-rule="evenodd" stroke="none"/>
    <path d="M54.75 75.35 L51.2 73.65 Q52.2 71.45 50.5 69.5 49.85 68.9 49.65 68.05 L52.5 66.1 Q54.55 64.6 52.9 62.9 50.8 60.55 50.25 57.95 49.55 54.85 48.45 51.9 47.9 50.25 46.2 48.6 L47.7 42.65 Q48.15 38.25 49.45 34.1 50.7 30.05 50.4 25.75 L50.2 25.25 Q48.95 23.15 46.85 21.3 47.05 20.2 47.65 19.1 47.9 18.55 48.55 18.1 L49.0 17.6 49.05 16.1 Q48.4 12.6 46.35 10.15 44.25 7.7 70.15 9.05 96.0 10.4 107.85 9.4 119.6 8.4 128.35 10.55 136.4 12.5 136.4 12.75 L137.95 10.6 Q138.7 8.5 154.55 8.3 L174.3 7.7 176.3 7.25 176.6 7.6 179.2 10.9 Q179.0 13.0 177.8 16.4 173.6 27.5 176.7 33.85 179.7 40.2 179.7 47.05 179.7 53.85 177.2 56.4 174.85 58.9 175.35 66.15 175.8 73.3 175.65 73.9 L174.55 74.9 162.35 75.25 Q156.85 73.1 146.85 74.65 136.9 76.2 118.1 74.8 99.3 73.5 91.5 74.8 83.75 76.15 71.3 73.95 67.4 75.9 61.85 75.6 L54.75 75.35" fill="#dec884" fill-rule="evenodd" stroke="none"/>
    <path d="M55.7 69.65 Q55.4 72.9 62.2 78.85 45.95 76.75 43.05 69.2 44.9 69.3 44.05 68.25 52.0 71.75 55.7 69.65" fill="#382c05" fill-opacity="0.30980393" fill-rule="evenodd" stroke="none"/>
    <path d="M63.25 79.25 Q43.7 77.85 43.0 67.75 48.85 70.0 55.0 68.95 53.55 72.8 63.0 78.9 L63.25 79.25" fill="#cdae4f" fill-rule="evenodd" stroke="none"/>
    <path d="M49.15 69.2 L48.9 69.4 49.0 69.2 49.15 69.2 M58.15 75.55 L57.85 75.55 58.05 75.45 58.15 75.55" fill="#cdae4f" fill-rule="evenodd" stroke="none"/>
    <path d="M63.05 79.25 Q42.8 77.8 42.6 67.1 43.35 68.0 44.45 68.35 L44.4 68.9 Q44.4 69.55 44.7 70.3 L44.7 70.85 Q44.7 73.0 46.95 74.45 48.3 75.3 50.15 75.75 L53.55 76.8 53.95 76.95 Q56.7 77.75 58.7 77.65 L60.35 77.25 62.75 78.9 63.05 79.25" fill="#a36d1b" fill-rule="evenodd" stroke="none"/>
  </g>
</svg>
