<?xml version="1.0" encoding="UTF-8" standalone="no"?>
<svg xmlns:ffdec="https://www.free-decompiler.com/flash" xmlns:xlink="http://www.w3.org/1999/xlink" ffdec:objectType="shape" height="13.2px" width="75.9px" xmlns="http://www.w3.org/2000/svg">
  <g transform="matrix(1.0, 0.0, 0.0, 1.0, -184.15, -325.25)">
    <path d="M194.6 337.6 Q201.2 335.45 208.15 334.15 L211.9 334.25 211.75 334.7 Q211.05 335.5 210.15 335.9 209.45 336.3 210.35 337.15 213.0 338.1 216.65 336.0 218.75 334.8 221.0 335.3 L221.05 335.35 Q219.05 337.75 216.5 337.4 221.55 339.05 226.05 335.9 230.5 332.8 230.65 335.55 230.85 338.25 231.6 338.45 232.35 338.65 235.4 335.9 238.55 333.2 243.45 335.95 248.35 338.7 256.2 335.35 259.25 334.1 260.05 331.55 L242.25 332.75 Q238.75 332.8 235.5 331.25 232.55 329.8 230.15 327.85 227.8 325.9 226.7 328.4 226.95 326.7 226.15 326.05 225.35 325.4 224.6 325.3 L223.6 325.3 221.7 325.9 Q220.15 326.5 219.15 328.0 216.45 325.85 210.85 329.15 205.2 332.4 197.85 334.25 190.45 336.05 184.15 335.05 190.4 338.95 194.6 337.6" fill="#ffffff" fill-rule="evenodd" stroke="none"/>
  </g>
</svg>
