<?xml version="1.0" encoding="UTF-8" standalone="no"?>
<svg xmlns:ffdec="https://www.free-decompiler.com/flash" xmlns:xlink="http://www.w3.org/1999/xlink" ffdec:objectType="shape" height="44.55px" width="31.75px" xmlns="http://www.w3.org/2000/svg">
  <g transform="matrix(1.0, 0.0, 0.0, 1.0, -53.75, -16.2)">
    <path d="M72.65 37.05 L72.75 37.6 64.3 46.85 Q55.9 56.15 55.9 56.7 55.9 57.2 56.95 58.55 57.95 59.9 59.25 59.65 60.55 59.35 67.15 50.45 73.75 41.55 75.9 40.1 76.35 40.3 76.35 40.8 L67.05 53.3 Q61.45 60.7 59.55 60.75 57.65 60.8 55.95 58.65 L54.9 56.45 Q54.9 55.3 62.1 47.3 68.25 40.4 72.25 36.25 72.15 37.1 72.6 36.75 L72.65 37.05" fill="#85550c" fill-rule="evenodd" stroke="none"/>
    <path d="M74.35 41.25 Q70.0 36.75 68.25 35.6 L68.25 34.9 Q69.6 35.2 71.4 36.9 L74.55 39.65 76.85 42.25 78.9 45.1 78.8 45.35 Q78.7 45.5 78.45 45.5 L74.35 41.25" fill="#85550c" fill-rule="evenodd" stroke="none"/>
    <path d="M85.5 39.85 Q85.5 40.45 82.8 43.1 80.0 45.8 78.95 45.8 L78.45 45.7 Q78.3 45.7 78.3 45.35 78.3 45.0 81.3 42.75 84.3 40.45 84.3 39.9 84.3 39.55 80.3 35.05 L74.55 28.85 69.0 28.85 Q68.7 29.3 68.7 30.1 L69.0 35.05 68.95 35.35 68.75 35.35 Q68.3 34.85 68.1 32.55 L68.0 30.0 Q68.0 28.6 68.15 28.45 68.75 27.85 71.9 27.85 75.35 27.85 78.0 30.55 79.35 31.9 80.4 33.65 L83.55 37.25 85.5 39.85" fill="#85550c" fill-rule="evenodd" stroke="none"/>
    <path d="M57.3 56.95 Q58.0 58.5 59.3 59.25 L59.25 59.35 Q57.6 58.6 57.2 56.95 L57.3 56.95" fill="#85550c" fill-rule="evenodd" stroke="none"/>
    <path d="M58.35 57.25 L59.0 58.2 Q59.45 58.8 60.55 59.0 L60.55 59.05 60.15 59.1 60.2 59.1 60.1 59.1 Q59.4 59.05 58.8 58.2 58.25 57.5 58.25 57.25 L58.35 57.25" fill="#85550c" fill-rule="evenodd" stroke="none"/>
    <path d="M58.9 56.35 L59.0 56.35 59.75 57.45 61.25 58.5 60.95 58.6 Q60.45 58.6 59.7 57.7 59.05 56.9 58.9 56.35" fill="#85550c" fill-rule="evenodd" stroke="none"/>
    <path d="M59.5 55.55 L60.4 56.7 Q61.05 57.45 61.85 57.65 L61.9 57.85 61.65 57.9 Q60.6 57.9 59.4 55.55 L59.5 55.55" fill="#85550c" fill-rule="evenodd" stroke="none"/>
    <path d="M62.0 57.6 L61.1 57.0 61.15 56.9 62.15 57.45 62.2 57.5 62.0 57.6" fill="#85550c" fill-rule="evenodd" stroke="none"/>
    <path d="M62.35 56.95 L61.8 56.6 61.55 56.25 62.5 56.85 62.5 56.9 62.35 56.95" fill="#85550c" fill-rule="evenodd" stroke="none"/>
    <path d="M62.75 56.5 Q62.55 56.5 62.2 56.15 L61.9 55.75 Q62.05 55.65 62.9 56.4 L62.9 56.45 62.75 56.5" fill="#85550c" fill-rule="evenodd" stroke="none"/>
    <path d="M62.45 55.6 L62.45 55.5 63.35 55.95 63.2 56.0 Q62.85 56.0 62.45 55.6" fill="#85550c" fill-rule="evenodd" stroke="none"/>
    <path d="M60.2 55.2 L61.2 56.5 Q61.95 57.25 62.6 57.45 L62.35 57.55 Q61.75 57.55 60.9 56.5 60.15 55.55 60.15 55.25 L60.2 55.2" fill="#85550c" fill-rule="evenodd" stroke="none"/>
    <path d="M83.3 37.85 L83.25 38.1 83.25 38.15 83.45 38.05 83.8 38.95 Q82.45 42.75 82.15 42.75 L81.8 41.9 81.95 41.3 82.05 41.0 81.7 41.85 81.7 41.95 81.7 42.55 81.3 42.95 81.1 43.45 80.85 43.45 80.75 43.25 80.8 43.1 80.5 43.7 80.25 44.45 80.0 44.35 79.95 44.25 79.75 44.45 79.5 44.5 79.3 44.75 Q79.0 44.75 79.0 44.6 L79.0 44.55 78.7 45.2 78.5 44.8 78.15 44.8 78.05 44.5 78.5 42.55 77.75 44.1 77.6 44.05 77.6 43.8 Q77.35 43.55 77.35 43.05 L77.6 41.4 77.55 41.4 Q77.1 43.65 76.7 43.65 L76.55 43.5 76.55 43.3 76.6 42.9 76.5 42.8 76.3 43.0 76.1 42.85 76.1 42.7 76.25 41.7 76.2 41.75 75.85 41.75 75.85 41.2 75.35 41.9 75.1 41.8 75.05 41.7 75.55 39.8 75.5 39.95 75.1 40.4 74.9 40.2 74.9 40.1 74.75 40.3 74.4 40.3 74.4 40.05 74.25 40.1 74.1 40.05 74.1 39.55 74.15 38.9 74.3 38.3 73.9 38.7 73.4 39.0 73.25 38.95 73.15 39.2 72.9 39.1 72.9 39.0 73.15 37.8 72.9 37.8 72.65 38.6 Q72.35 38.5 72.35 38.2 72.35 37.6 72.5 37.3 L72.25 37.4 72.1 37.25 Q72.1 37.85 71.65 37.85 L71.45 37.7 71.45 37.55 71.8 36.05 71.75 35.95 71.4 36.7 70.8 37.25 70.5 37.05 70.5 36.85 Q70.5 36.4 70.65 36.0 L70.0 36.9 69.8 36.75 69.8 36.55 70.35 34.15 70.35 33.75 70.3 33.7 69.25 36.2 Q68.85 35.8 68.85 35.05 68.85 33.95 69.0 33.45 L68.95 33.45 68.85 33.8 68.45 34.1 68.4 33.85 Q68.4 32.9 69.0 30.6 69.55 28.55 69.8 28.05 L69.95 28.1 69.95 28.4 69.7 29.4 69.55 30.35 69.6 31.05 69.85 29.75 Q70.05 28.85 70.4 28.85 L70.6 28.9 70.6 29.35 70.1 32.55 70.1 33.2 70.15 33.2 71.45 29.15 71.6 29.2 71.6 29.55 71.3 31.1 71.3 31.2 71.6 30.35 71.7 30.5 71.25 32.35 71.25 32.75 71.8 30.85 Q72.15 29.7 72.65 29.1 L72.75 29.25 72.35 30.85 72.45 31.3 71.9 34.05 71.9 34.1 72.85 31.55 Q73.4 30.05 74.1 29.25 L74.15 29.4 73.3 34.35 73.35 34.35 Q73.55 33.5 73.9 33.0 L74.05 33.0 74.05 33.5 73.65 35.05 73.65 35.1 74.9 32.2 Q75.6 30.35 76.2 29.45 L76.45 29.45 76.45 30.15 76.1 33.4 76.1 33.7 76.25 33.5 76.35 33.8 76.2 34.8 76.05 35.8 76.05 36.5 Q76.5 35.2 76.9 34.9 L77.05 35.2 76.55 37.35 76.5 37.65 78.25 34.8 Q79.35 32.9 79.6 32.9 80.15 32.9 80.3 34.45 L80.4 36.7 Q80.6 36.5 80.75 36.5 L80.8 36.7 80.55 38.0 80.65 39.15 81.4 37.55 81.65 37.55 81.7 37.8 80.95 40.2 80.95 40.55 81.7 38.75 Q82.1 37.65 82.5 37.65 L82.7 37.9 82.6 38.25 82.6 38.3 82.75 37.9 83.1 37.6 83.3 37.85 M81.9 39.35 L81.3 40.85 81.45 40.7 81.65 40.25 81.95 39.35 81.9 39.35 M80.3 38.55 L79.6 41.3 79.7 41.25 79.85 41.3 80.45 39.55 80.3 38.55 M80.6 41.6 L80.6 41.65 80.8 40.9 80.6 41.6 M80.55 40.1 L80.05 41.65 80.15 41.7 80.2 41.7 80.6 40.15 80.55 40.1 M82.5 41.5 L83.15 39.2 82.5 41.35 82.5 41.5 M69.6 32.3 Q69.25 33.7 69.25 34.45 L69.25 34.75 69.4 34.8 69.85 32.45 70.1 30.45 69.6 32.3 M73.7 30.3 L72.95 32.55 72.95 32.6 73.05 32.4 73.25 32.4 73.25 32.65 73.3 32.65 Q73.25 32.25 73.5 31.4 L73.7 30.3 M72.1 32.1 L72.15 32.1 72.15 31.9 72.1 32.1 M72.4 34.55 L72.15 35.75 72.15 36.15 73.05 32.7 72.5 33.65 72.4 34.55 M70.65 33.2 L70.8 32.2 70.5 33.1 70.65 33.2 M71.45 33.75 L71.0 35.95 71.0 36.15 Q71.4 35.25 71.5 33.75 L71.45 33.75 M75.0 33.0 L74.95 33.25 75.0 33.15 75.05 33.0 75.0 33.0 M73.65 33.85 L73.35 34.65 73.25 35.15 73.25 35.6 73.7 33.85 73.65 33.85 M72.9 34.9 L72.95 34.35 72.8 34.9 72.9 34.9 M76.05 34.45 L76.1 33.8 76.05 34.0 76.05 34.45 M78.55 35.25 L78.0 37.4 77.85 38.1 77.85 39.05 77.85 39.15 77.9 39.1 78.05 38.55 Q78.8 36.65 79.6 35.6 L79.75 36.05 79.05 39.05 78.85 39.85 79.15 39.6 79.25 39.65 80.15 37.05 79.75 33.3 Q79.0 33.95 78.55 35.25 M76.05 30.2 Q74.65 35.25 74.35 36.9 75.35 35.65 75.7 33.6 L76.05 30.2 M76.7 35.45 L76.35 36.2 76.05 37.05 76.2 36.9 76.3 36.9 Q76.45 36.0 76.75 35.45 L76.7 35.45 M77.35 38.2 L77.5 38.05 77.95 36.35 Q77.25 37.4 76.9 38.15 L76.85 38.55 77.05 38.3 77.3 38.5 77.35 38.2 M79.9 38.55 L79.4 40.05 79.4 40.4 79.9 38.6 79.9 38.55 M78.6 39.3 L79.5 36.1 Q78.85 37.05 78.25 39.05 L78.4 39.15 78.6 39.3 M74.2 36.05 L73.55 38.1 73.55 38.45 74.3 35.75 74.2 36.05 M72.55 36.3 L72.65 36.0 72.55 36.25 72.55 36.3 M74.75 39.55 L74.8 39.3 74.7 39.55 74.75 39.55 M75.65 35.45 L75.65 34.65 75.25 35.85 75.6 35.35 75.65 35.45" fill="#85550c" fill-rule="evenodd" stroke="none"/>
    <path d="M57.9 35.45 L57.95 35.45 Q58.35 35.95 58.5 35.7 65.2 43.95 65.2 44.4 L65.15 44.65 64.9 44.75 Q64.5 44.75 60.65 40.2 56.75 35.6 57.9 35.45" fill="#85550c" fill-rule="evenodd" stroke="none"/>
    <path d="M54.5 30.1 L55.45 29.15 Q55.9 28.3 55.8 28.7 55.65 29.05 57.4 30.0 L60.0 32.05 Q60.75 32.55 60.5 33.75 60.25 34.95 62.25 36.8 L66.45 41.25 Q68.65 43.8 67.5 42.85 66.3 41.9 66.65 42.7 L66.45 42.8 Q62.9 39.25 60.5 35.95 58.9 34.8 59.35 33.8 59.8 32.75 58.15 31.7 56.45 30.65 56.2 30.0 L55.4 30.05 54.55 30.95 54.7 31.3 Q55.3 32.8 56.8 35.0 L57.4 35.05 Q58.65 35.4 58.45 36.05 L58.15 36.15 56.15 36.1 Q55.45 35.15 54.6 32.9 L53.75 30.65 54.5 30.1" fill="#85550c" fill-rule="evenodd" stroke="none"/>
    <path d="M63.2 40.55 L62.85 41.0 62.25 41.45 62.15 41.3 62.5 40.8 63.1 40.3 63.2 40.55" fill="#85550c" fill-rule="evenodd" stroke="none"/>
    <path d="M63.0 42.0 L62.7 41.9 Q62.9 41.3 63.85 40.75 L64.0 40.95 63.0 42.0" fill="#85550c" fill-rule="evenodd" stroke="none"/>
    <path d="M63.5 42.75 L63.3 42.55 63.7 42.0 64.35 41.5 64.45 41.65 63.5 42.75" fill="#85550c" fill-rule="evenodd" stroke="none"/>
    <path d="M64.35 43.5 L64.2 43.5 64.15 43.3 64.4 42.85 64.8 42.4 64.9 42.45 64.35 43.5" fill="#85550c" fill-rule="evenodd" stroke="none"/>
    <path d="M64.7 44.1 L64.5 44.1 64.5 43.8 64.95 42.85 65.1 43.05 64.7 44.1" fill="#85550c" fill-rule="evenodd" stroke="none"/>
    <path d="M64.8 44.6 L64.6 44.4 65.1 43.05 65.25 43.05 65.35 43.45 64.8 44.6" fill="#85550c" fill-rule="evenodd" stroke="none"/>
    <path d="M54.4 31.7 L55.0 31.0 56.05 30.25 Q55.7 31.1 54.45 31.9 L54.4 31.7" fill="#85550c" fill-rule="evenodd" stroke="none"/>
    <path d="M72.5 43.8 Q73.3 43.8 77.95 48.55 82.6 53.3 82.2 54.15 L79.85 57.15 Q77.75 59.5 76.65 59.85 L75.15 59.8 70.05 54.55 Q66.45 50.5 67.4 50.95 L68.05 51.1 Q67.7 50.8 67.7 50.35 L67.85 50.05 Q68.35 49.9 71.8 53.95 75.2 57.95 76.55 58.2 77.9 58.45 80.6 54.25 80.8 53.5 77.5 50.25 74.2 46.95 71.85 45.15 71.95 44.35 72.45 44.2 L72.5 43.8" fill="#85550c" fill-rule="evenodd" stroke="none"/>
    <path d="M69.45 49.7 Q69.9 49.7 72.4 52.4 L76.0 56.25 76.15 56.2 72.1 51.75 69.5 48.65 Q69.5 47.95 70.95 49.5 L73.3 52.0 75.1 54.05 76.65 56.15 76.6 56.55 75.85 56.75 Q75.05 56.75 69.35 49.9 L69.35 49.75 69.45 49.7" fill="#85550c" fill-rule="evenodd" stroke="none"/>
    <path d="M71.65 46.95 L74.4 50.0 78.25 54.25 Q78.0 53.6 76.65 52.25 L74.95 50.2 73.2 48.2 Q71.7 46.5 71.7 46.2 71.7 45.6 73.2 47.25 L75.45 49.9 77.4 52.0 Q78.8 53.5 78.8 54.3 78.8 54.85 78.3 54.85 77.5 54.85 74.55 51.0 71.45 47.5 71.45 47.2 L71.65 46.95" fill="#85550c" fill-rule="evenodd" stroke="none"/>
    <path d="M74.15 56.95 L73.65 57.4 Q73.65 57.2 73.95 56.75 L74.4 56.25 74.55 56.4 74.15 56.95" fill="#85550c" fill-rule="evenodd" stroke="none"/>
    <path d="M74.75 58.1 L74.65 57.95 Q74.65 57.85 75.0 57.5 L75.45 57.15 75.5 57.25 74.75 58.1" fill="#85550c" fill-rule="evenodd" stroke="none"/>
    <path d="M75.4 58.65 L75.6 58.05 76.1 57.4 76.25 57.55 76.0 58.2 75.55 58.8 75.4 58.65" fill="#85550c" fill-rule="evenodd" stroke="none"/>
    <path d="M75.4 59.1 Q76.0 58.1 76.55 57.6 L76.7 57.65 76.4 58.5 75.5 59.15 75.4 59.1" fill="#85550c" fill-rule="evenodd" stroke="none"/>
    <path d="M71.9 55.1 L71.8 54.95 72.2 54.5 72.7 54.0 72.85 54.1 71.9 55.1" fill="#85550c" fill-rule="evenodd" stroke="none"/>
    <path d="M70.95 54.05 Q70.95 53.55 71.9 53.15 72.0 53.6 71.2 54.05 L70.95 54.05" fill="#85550c" fill-rule="evenodd" stroke="none"/>
    <path d="M70.25 52.7 L70.2 52.7 Q70.35 51.85 70.95 51.55 L71.0 51.7 70.25 52.7" fill="#85550c" fill-rule="evenodd" stroke="none"/>
    <path d="M71.75 52.9 L71.25 54.2 71.2 54.25 71.1 54.1 71.7 52.85 71.75 52.9" fill="#85550c" fill-rule="evenodd" stroke="none"/>
    <path d="M71.95 55.35 L71.9 55.25 72.2 54.5 Q72.55 53.9 72.75 53.85 L72.85 53.95 Q72.4 55.1 71.95 55.35" fill="#85550c" fill-rule="evenodd" stroke="none"/>
    <path d="M72.75 56.0 L72.55 55.8 Q72.55 55.3 73.3 54.35 L73.45 54.5 72.75 56.0" fill="#85550c" fill-rule="evenodd" stroke="none"/>
    <path d="M73.8 55.75 L73.45 56.6 73.4 56.65 73.2 56.4 Q73.2 55.6 73.9 55.05 L74.0 55.15 73.8 55.75" fill="#85550c" fill-rule="evenodd" stroke="none"/>
    <path d="M74.15 56.9 L74.0 56.9 73.95 56.75 74.1 56.15 74.4 55.7 74.55 55.95 74.15 56.9" fill="#85550c" fill-rule="evenodd" stroke="none"/>
    <path d="M75.1 58.95 Q77.25 57.25 77.5 55.65 L77.75 55.95 Q77.75 56.6 76.85 57.7 L75.2 59.0 75.1 58.95" fill="#85550c" fill-rule="evenodd" stroke="none"/>
    <path d="M76.4 59.1 L76.2 59.0 76.85 57.75 Q77.3 56.9 77.9 56.45 L78.05 56.65 76.4 59.1" fill="#85550c" fill-rule="evenodd" stroke="none"/>
    <path d="M61.7 54.05 L61.75 54.05 62.35 54.75 61.7 54.05" fill="#85550c" fill-rule="evenodd" stroke="none"/>
    <path d="M64.6 55.6 L64.6 55.75 64.45 55.8 Q63.75 55.8 62.7 54.7 L61.7 53.6 61.75 53.6 62.9 54.65 64.6 55.6" fill="#85550c" fill-rule="evenodd" stroke="none"/>
    <path d="M62.0 52.35 Q62.6 53.8 64.7 55.1 L64.65 55.05 64.6 54.9 Q65.05 54.85 65.05 55.25 L64.8 55.45 Q63.9 55.45 62.85 54.1 61.9 52.9 61.9 52.45 L62.0 52.35" fill="#85550c" fill-rule="evenodd" stroke="none"/>
    <path d="M65.0 54.75 Q64.25 54.75 63.4 53.7 L62.55 52.4 63.7 53.5 65.15 54.45 65.15 54.7 65.0 54.75" fill="#85550c" fill-rule="evenodd" stroke="none"/>
    <path d="M63.15 52.05 L63.35 51.85 64.25 52.85 Q64.7 53.35 65.45 53.7 L65.45 53.85 65.25 53.9 Q64.8 53.9 63.95 53.0 L63.15 52.05" fill="#85550c" fill-rule="evenodd" stroke="none"/>
    <path d="M64.5 52.3 L65.3 53.1 65.25 53.2 65.15 53.25 63.65 51.85 Q64.0 51.85 64.5 52.3" fill="#85550c" fill-rule="evenodd" stroke="none"/>
    <path d="M64.45 56.25 Q61.95 55.15 60.95 52.8 L61.05 52.8 62.6 54.55 64.45 56.25" fill="#85550c" fill-rule="evenodd" stroke="none"/>
    <path d="M60.65 53.55 L61.95 55.2 63.75 56.85 63.5 56.9 Q62.8 56.9 61.65 55.4 60.6 54.05 60.6 53.6 L60.65 53.55" fill="#85550c" fill-rule="evenodd" stroke="none"/>
    <path d="M60.05 54.55 L62.75 57.4 62.7 57.5 60.9 56.1 59.95 54.55 60.05 54.55" fill="#85550c" fill-rule="evenodd" stroke="none"/>
    <path d="M57.35 56.3 L57.35 56.15 57.4 56.15 58.65 57.8 Q59.55 58.7 61.1 59.25 L61.15 59.3 60.8 59.5 Q59.75 59.5 58.45 57.95 57.35 56.6 57.35 56.3" fill="#85550c" fill-rule="evenodd" stroke="none"/>
    <path d="M56.9 56.65 Q58.0 58.6 60.45 59.7 L60.25 59.9 Q59.25 59.9 57.95 58.45 56.8 57.15 56.8 56.75 L56.9 56.65" fill="#85550c" fill-rule="evenodd" stroke="none"/>
    <path d="M56.8 57.35 Q57.65 58.95 60.05 60.1 L60.0 60.2 Q57.0 59.2 56.7 57.35 L56.8 57.35" fill="#85550c" fill-rule="evenodd" stroke="none"/>
    <path d="M64.6 51.45 L66.35 53.35 66.15 53.55 65.15 52.65 64.45 51.7 64.6 51.45" fill="#85550c" fill-rule="evenodd" stroke="none"/>
    <path d="M65.05 51.15 L65.1 51.05 66.65 52.75 66.5 52.8 65.05 51.15" fill="#85550c" fill-rule="evenodd" stroke="none"/>
    <path d="M67.0 52.45 L66.3 51.9 65.65 51.0 65.8 50.95 Q66.1 50.95 67.2 52.3 L67.0 52.45" fill="#85550c" fill-rule="evenodd" stroke="none"/>
    <path d="M67.35 51.7 L67.2 51.75 66.5 51.15 66.0 50.5 66.15 50.3 66.85 50.9 67.35 51.7" fill="#85550c" fill-rule="evenodd" stroke="none"/>
    <path d="M66.6 53.15 Q65.75 52.7 64.65 50.95 L64.7 50.95 65.75 52.0 66.6 53.15" fill="#85550c" fill-rule="evenodd" stroke="none"/>
    <path d="M64.15 50.95 Q65.05 51.3 66.25 53.25 L66.15 53.3 65.15 52.35 64.15 51.1 64.15 50.95" fill="#85550c" fill-rule="evenodd" stroke="none"/>
    <path d="M63.5 51.85 L63.55 51.55 63.65 51.55 Q64.25 52.75 65.6 53.95 L65.6 54.05 65.5 54.1 Q65.05 54.1 64.25 53.0 L63.5 51.85" fill="#85550c" fill-rule="evenodd" stroke="none"/>
    <path d="M63.0 52.25 Q64.2 53.85 65.4 54.75 L65.4 54.85 65.3 54.9 Q64.9 54.9 63.9 53.75 L62.9 52.35 63.0 52.25" fill="#85550c" fill-rule="evenodd" stroke="none"/>
    <path d="M67.7 51.15 L67.55 51.2 Q67.2 51.2 66.6 50.45 L65.9 49.45 66.0 49.45 67.0 50.25 Q67.65 50.75 67.7 51.15" fill="#85550c" fill-rule="evenodd" stroke="none"/>
    <path d="M67.8 50.6 L66.2 49.15 66.3 49.05 68.0 50.4 67.8 50.6" fill="#85550c" fill-rule="evenodd" stroke="none"/>
    <path d="M68.4 50.0 L68.3 50.1 66.8 48.9 66.95 48.7 67.75 49.35 68.4 50.0" fill="#85550c" fill-rule="evenodd" stroke="none"/>
    <path d="M76.4 26.15 L75.0 24.8 76.05 23.5 Q81.7 16.75 82.65 17.35 83.6 18.05 77.3 25.0 L76.4 26.15" fill="#85550c" fill-rule="evenodd" stroke="none"/>
    <path d="M83.65 16.8 L82.65 22.85 Q82.1 23.0 81.75 22.4 L81.55 21.65 81.35 19.65 81.3 19.5 80.45 19.9 78.0 19.95 76.1 19.7 79.65 17.35 Q83.25 15.35 83.65 16.8" fill="#85550c" fill-rule="evenodd" stroke="none"/>
  </g>
</svg>
