<?xml version="1.0" encoding="UTF-8" standalone="no"?>
<svg xmlns:ffdec="https://www.free-decompiler.com/flash" xmlns:xlink="http://www.w3.org/1999/xlink" ffdec:objectType="shape" height="67.6px" width="141.25px" xmlns="http://www.w3.org/2000/svg">
  <g transform="matrix(1.0, 0.0, 0.0, 1.0, -43.35, -4.0)">
    <path d="M47.35 69.5 L46.6 69.25 46.2 69.2 46.05 69.15 45.6 69.1 43.35 68.25 Q43.9 67.9 46.0 68.55 L50.15 69.35 52.95 69.0 54.65 68.65 Q55.1 68.65 55.1 68.95 L54.8 69.65 55.1 71.35 54.85 71.6 Q54.6 71.6 54.1 70.85 L53.5 70.05 53.25 70.1 52.8 70.25 52.15 70.25 52.15 70.2 49.0 69.7 47.35 69.5" fill="#f3dfa0" fill-rule="evenodd" stroke="none"/>
    <path d="M171.35 16.65 Q175.7 13.05 182.8 17.2 177.55 4.8 169.65 4.1 170.1 5.5 168.9 5.1 169.95 11.75 171.35 16.65" fill="#382c05" fill-opacity="0.30980393" fill-rule="evenodd" stroke="none"/>
    <path d="M184.6 17.75 Q178.2 2.85 168.25 4.4 171.9 8.4 172.45 13.45 175.85 11.5 184.2 17.55 L184.6 17.75" fill="#dec884" fill-rule="evenodd" stroke="none"/>
    <path d="M184.5 17.6 L184.1 17.45 181.85 15.9 181.8 14.6 181.7 14.25 Q181.0 12.7 178.95 10.45 176.9 8.15 174.35 7.6 L170.9 7.05 170.55 6.5 169.0 5.0 167.95 4.15 Q178.0 2.55 184.5 17.6" fill="#f3dfa0" fill-rule="evenodd" stroke="none"/>
  </g>
</svg>
