<?xml version="1.0" encoding="UTF-8" standalone="no"?>
<svg xmlns:ffdec="https://www.free-decompiler.com/flash" xmlns:xlink="http://www.w3.org/1999/xlink" ffdec:objectType="shape" height="153.95px" width="278.5px" xmlns="http://www.w3.org/2000/svg">
  <g transform="matrix(1.0, 0.0, 0.0, 1.0, 14.8, -29.7)">
    <path d="M244.05 34.6 L258.7 41.5 261.3 169.9 256.35 175.85 251.7 181.9 0.85 181.8 -6.55 175.4 -8.45 173.9 -13.65 169.5 Q-13.65 147.55 -12.35 125.8 L-12.35 41.7 10.05 34.1 36.55 34.7 244.05 34.6 M134.1 98.95 Q134.1 97.75 131.1 97.75 127.95 97.75 127.95 99.0 L128.35 99.7 Q129.1 100.25 130.9 100.25 132.3 100.25 133.3 99.75 L134.1 98.95" fill="#744431" fill-rule="evenodd" stroke="none"/>
    <path d="M134.1 98.95 L133.3 99.75 Q132.3 100.25 130.9 100.25 129.1 100.25 128.35 99.7 L127.95 99.0 Q127.95 97.75 131.1 97.75 134.1 97.75 134.1 98.95" fill="#85523e" fill-rule="evenodd" stroke="none"/>
    <path d="M247.3 98.9 L244.85 99.25 Q245.75 98.8 247.3 98.9 M78.05 102.05 L78.4 101.95 76.1 102.85 75.85 102.8 78.05 102.05 M127.2 102.2 L126.85 102.15 Q133.4 100.25 139.8 99.25 L139.7 99.35 137.25 101.0 137.0 100.9 132.4 102.8 127.45 102.2 127.35 102.1 127.2 102.2 M60.1 98.8 L59.95 98.85 59.85 98.85 60.1 98.8 M8.5 90.5 L7.9 90.8 7.65 90.75 10.45 89.35 8.5 90.5 M122.35 99.55 L122.25 99.5 117.55 101.6 117.5 101.4 116.75 101.7 116.4 101.7 114.6 101.75 Q118.7 100.3 122.85 99.2 L122.65 99.3 122.35 99.55 M86.2 99.65 L91.7 98.45 91.8 98.5 Q90.8 99.4 87.5 101.2 L84.05 102.6 82.35 103.35 78.3 103.05 86.2 99.65 M244.0 34.65 L258.7 41.5 Q259.15 68.2 259.75 94.9 257.95 94.0 255.3 93.55 L255.45 93.3 255.3 93.05 254.75 93.0 253.5 93.3 252.0 93.15 Q256.8 91.0 256.8 90.7 L256.6 90.5 256.45 90.55 Q253.65 91.4 249.85 93.05 L245.6 93.1 250.7 90.2 Q248.45 90.8 243.85 93.15 L238.2 93.6 240.0 92.75 Q247.75 88.95 247.75 88.8 L247.55 88.55 247.4 88.55 Q244.35 89.7 236.55 93.4 L235.4 93.95 232.6 94.3 244.7 88.05 Q242.3 88.75 238.2 90.75 L231.75 93.9 230.3 94.65 224.35 95.6 225.75 94.95 Q236.05 90.0 241.4 87.25 234.15 90.1 224.75 94.8 223.7 95.3 222.55 95.95 L207.15 99.05 207.65 98.85 222.45 92.2 Q219.25 93.5 216.35 94.75 220.5 92.7 223.5 90.9 217.5 93.35 204.2 99.05 L202.35 99.8 193.9 100.85 195.8 99.7 201.95 96.7 208.3 93.55 Q202.6 95.55 195.3 99.25 L191.75 101.1 186.95 101.7 188.7 100.95 Q205.15 94.2 210.5 92.15 201.85 94.55 183.7 102.1 L180.65 102.4 180.15 102.5 Q182.7 100.9 186.9 98.45 184.85 99.35 181.55 101.4 180.45 102.0 179.75 102.55 L174.6 103.1 174.95 102.95 187.15 98.0 187.05 97.95 Q184.65 98.4 180.2 100.05 L173.65 102.65 171.8 103.4 166.7 103.9 168.3 103.25 Q177.2 99.55 177.2 99.2 177.2 98.95 177.0 98.95 L176.85 99.0 Q171.8 100.65 163.1 104.25 L155.05 104.9 158.0 103.8 Q167.3 100.25 167.3 99.8 L167.05 99.55 166.55 99.5 Q162.7 100.8 152.7 104.7 L154.3 102.85 154.2 102.8 154.8 102.4 154.6 102.1 153.95 102.1 152.95 102.5 152.65 102.4 Q151.25 102.95 150.1 103.65 L145.9 105.35 145.4 105.35 141.7 104.85 141.95 104.65 141.45 104.35 141.35 104.3 147.15 101.75 146.45 101.5 Q143.15 102.55 139.0 104.15 L136.65 103.65 139.4 102.65 Q146.15 100.25 156.45 98.95 L156.35 98.85 153.95 98.6 Q148.6 98.6 142.85 100.45 141.85 100.7 140.85 101.1 L142.75 99.95 Q141.05 100.55 137.65 102.0 L139.7 100.95 Q141.55 99.9 141.55 99.05 L141.35 98.5 133.45 99.7 134.1 98.95 Q134.1 97.8 131.05 97.8 127.95 97.8 127.95 99.05 L128.35 99.7 Q129.1 100.25 130.9 100.25 L126.45 101.4 124.5 102.0 120.7 101.8 Q124.55 99.55 124.55 98.95 L124.5 98.7 123.9 98.65 Q121.1 99.15 117.25 100.45 L113.05 101.8 112.15 101.8 Q116.5 99.15 116.5 98.75 L116.4 98.5 116.35 98.5 Q113.05 98.8 110.5 99.7 L110.9 99.75 Q113.85 98.75 116.0 98.7 L116.0 98.85 109.4 101.9 104.05 102.25 Q109.35 99.95 110.9 99.45 106.7 100.5 101.45 102.45 L100.85 102.5 100.8 102.5 100.7 102.5 99.7 102.55 97.3 102.75 98.95 101.65 Q105.95 98.95 105.95 98.6 L105.9 98.35 105.8 98.45 101.7 99.75 102.65 98.95 102.4 98.65 102.1 98.7 Q100.55 99.3 98.0 101.05 L92.4 103.15 87.35 103.45 86.95 103.45 87.85 103.05 86.55 103.25 85.45 103.4 88.0 102.1 96.1 98.6 96.1 98.45 92.05 99.6 93.05 98.5 92.85 98.1 91.3 97.95 Q88.2 97.95 79.2 100.9 L74.25 102.55 74.1 102.5 71.8 102.0 73.95 100.7 74.45 100.4 74.6 100.35 78.8 98.85 74.75 100.25 Q78.4 97.95 79.45 96.7 76.1 97.85 70.55 101.3 L70.25 101.55 69.8 101.4 69.55 100.5 69.25 101.25 66.8 100.45 66.35 100.35 68.35 99.65 66.35 99.85 70.55 97.85 70.4 97.5 Q67.5 98.35 64.05 99.7 L63.9 99.65 65.05 99.05 70.25 96.15 69.55 95.9 Q67.2 96.85 62.4 99.35 L61.75 99.2 Q62.35 98.7 64.9 97.45 L68.25 95.7 68.1 95.45 67.7 95.45 Q65.3 96.35 60.6 98.6 L60.6 98.45 59.95 98.45 59.3 98.5 59.3 98.45 Q59.7 98.1 60.45 97.75 L62.4 96.65 62.15 96.35 61.5 96.3 Q59.95 96.9 56.9 98.45 L57.15 98.25 Q57.8 97.85 57.9 97.4 57.95 96.9 56.65 96.8 L54.45 97.75 54.35 97.7 53.25 98.05 52.35 98.0 52.55 97.85 52.2 97.95 51.15 97.9 54.0 96.45 58.8 93.9 58.7 93.65 58.6 93.7 Q55.65 94.4 49.75 97.35 49.3 97.55 49.0 97.75 L45.05 97.6 46.6 96.95 Q52.6 94.65 56.3 93.4 51.2 94.5 43.55 97.55 L42.5 97.5 43.65 96.85 43.25 96.9 46.3 95.35 Q44.7 95.6 40.35 97.5 L38.95 97.5 47.9 93.75 47.7 93.55 Q44.3 94.6 37.8 97.1 L36.95 97.45 35.75 97.4 Q39.05 95.25 43.65 93.05 42.15 93.4 36.5 96.45 L34.9 97.3 33.95 97.25 36.4 96.15 33.0 97.15 30.3 96.65 Q35.9 94.05 36.5 93.8 L36.05 93.55 Q33.2 94.45 28.9 96.25 L27.4 95.7 33.5 92.65 33.1 92.65 27.2 95.15 27.4 95.05 26.2 95.25 25.7 95.05 26.6 94.6 Q33.35 91.55 33.35 91.2 L33.1 91.0 32.85 91.0 24.4 94.55 24.15 94.4 24.85 93.45 23.15 94.0 23.05 94.0 21.85 93.5 27.75 89.85 20.6 92.65 26.5 90.1 19.45 92.75 Q16.25 91.8 12.35 91.25 L17.55 89.15 17.3 89.05 Q14.75 89.8 11.35 91.15 L8.9 90.85 9.8 90.25 Q13.0 88.15 15.55 86.8 12.3 87.65 7.9 89.85 7.15 90.2 6.35 90.65 L-0.4 90.45 Q-9.15 90.45 -12.35 91.35 L-12.35 41.7 10.05 34.1 36.55 34.7 244.0 34.65" fill="#85523e" fill-rule="evenodd" stroke="none"/>
    <path d="M261.8 44.35 Q258.5 54.4 260.5 58.4 262.5 62.35 258.2 59.5 253.9 56.6 248.05 57.0 246.9 57.75 244.6 58.2 240.15 59.15 240.8 57.75 L239.85 57.85 Q234.8 60.85 226.55 62.1 225.85 62.2 226.1 61.85 226.65 60.8 227.8 59.75 L224.6 60.3 Q220.8 62.0 217.75 64.0 213.55 66.65 207.8 66.45 206.8 66.45 206.9 65.95 202.55 68.15 199.3 66.45 L198.9 66.5 Q176.0 70.4 152.5 73.0 L149.1 73.5 Q138.55 75.25 129.85 72.85 L118.5 72.6 104.65 73.1 103.0 73.05 Q91.05 72.1 79.7 69.95 L79.55 69.9 63.25 68.0 Q59.6 69.15 55.35 68.75 L54.75 68.5 54.25 68.05 Q54.2 67.65 54.6 67.35 L54.65 66.95 Q50.9 67.85 48.1 66.35 L47.25 65.55 41.15 64.5 Q39.05 64.6 38.3 64.0 L36.9 63.7 Q33.85 64.8 30.0 64.7 28.1 64.7 28.65 63.9 L29.75 62.3 29.05 62.15 27.35 61.8 Q24.85 62.6 22.0 61.85 L21.4 61.5 Q21.25 61.05 21.9 60.65 L22.05 60.55 20.25 60.05 19.25 60.1 17.7 59.8 Q17.2 59.55 17.4 59.25 L12.2 57.55 6.9 57.3 Q6.0 56.95 5.85 56.5 L5.75 56.3 5.75 56.1 5.75 55.9 Q2.4 55.9 -0.15 54.8 L-0.9 54.45 -1.25 54.25 -1.9 53.85 -2.45 53.5 -2.95 53.1 Q-8.15 53.4 -10.95 51.65 L-11.1 51.5 -11.35 49.4 Q-11.25 47.95 -11.45 46.55 -12.0 42.5 -7.75 39.05 -3.85 35.85 2.75 34.0 L3.65 34.2 4.45 34.55 5.1 34.9 5.6 35.25 5.75 35.45 Q106.45 35.6 207.05 35.35 L215.45 34.85 216.55 34.75 Q241.8 31.45 250.0 35.55 258.15 39.6 259.05 41.85 259.9 44.05 261.8 44.35" fill="#936653" fill-rule="evenodd" stroke="none"/>
    <path d="M227.9 36.65 L227.25 36.3 Q225.75 36.55 227.9 36.65 M256.4 39.5 Q255.4 40.95 256.6 42.55 252.25 40.6 247.55 37.2 L237.05 36.95 236.65 36.85 235.8 36.9 228.1 36.85 228.1 36.8 221.15 36.75 221.1 36.8 215.75 36.75 215.75 36.7 204.95 36.65 Q200.15 36.4 178.7 36.1 L166.85 36.4 162.7 36.35 159.4 36.5 Q148.85 36.95 138.4 36.9 L136.95 36.9 49.35 37.85 Q16.7 37.65 0.6 37.25 L-10.1 51.6 -10.4 51.3 -12.5 48.55 Q-15.05 42.4 -8.7 37.75 -7.8 37.1 -6.2 36.5 0.35 33.85 7.45 31.9 L237.8 32.0 239.6 32.85 Q249.2 30.65 256.4 39.5" fill="#5d3627" fill-rule="evenodd" stroke="none"/>
    <path d="M31.35 62.25 Q30.7 63.05 30.45 63.8 30.3 64.6 29.0 64.95 27.4 64.4 28.05 63.35 L29.15 61.75 Q29.65 61.1 30.8 60.8 32.25 61.35 31.35 62.25" fill="#936653" fill-rule="evenodd" stroke="none"/>
    <path d="M30.8 54.85 Q31.05 55.05 30.65 55.05 L29.9 55.05 29.9 54.95 29.9 54.75 29.95 54.7 29.95 54.65 30.05 54.6 30.2 54.6 30.3 54.6 30.8 54.85" fill="#936653" fill-rule="evenodd" stroke="none"/>
    <path d="M40.6 50.2 Q40.2 50.55 40.1 50.95 39.95 51.25 39.1 51.45 37.45 51.5 37.45 50.8 37.55 50.25 38.6 49.95 L39.85 49.75 Q41.0 49.85 40.6 50.2" fill="#936653" fill-rule="evenodd" stroke="none"/>
    <path d="M204.85 65.55 L205.25 65.6 205.4 65.7 205.65 65.85 205.65 66.15 205.5 66.45 205.3 66.5 205.0 66.6 204.75 66.65 203.35 66.55 203.2 66.45 202.95 66.3 202.75 66.05 202.95 65.75 203.2 65.65 203.35 65.55 203.85 65.5 204.25 65.45 204.85 65.55" fill="#936653" fill-rule="evenodd" stroke="none"/>
    <path d="M26.45 54.05 Q25.95 54.25 25.6 54.55 L24.55 54.9 Q24.2 54.65 24.7 54.4 L25.45 53.85 Q25.7 53.65 26.1 53.6 L26.45 53.55 Q27.0 53.75 26.45 54.05" fill="#936653" fill-rule="evenodd" stroke="none"/>
    <path d="M13.9 81.0 L14.5 81.05 15.0 81.25 15.3 81.45 14.55 82.4 Q14.25 83.05 14.1 83.7 13.9 84.35 12.75 84.75 L11.95 84.7 11.7 84.65 11.35 84.45 11.3 84.35 11.55 83.4 11.55 82.1 Q11.7 81.2 13.6 81.0 L13.9 81.0" fill="#936653" fill-rule="evenodd" stroke="none"/>
    <path d="M186.0 60.7 L185.5 60.8 184.1 60.8 183.85 60.7 183.85 60.65 185.05 60.45 185.4 60.4 Q186.45 60.4 186.0 60.7" fill="#4d5653" fill-rule="evenodd" stroke="none"/>
    <path d="M221.7 120.05 L221.25 120.7 Q221.2 121.0 220.55 121.0 219.85 120.85 220.05 120.55 L220.2 120.05 220.55 119.65 220.7 119.6 220.85 119.55 221.05 119.55 221.1 119.5 Q222.0 119.65 221.7 120.05" fill="#936653" fill-rule="evenodd" stroke="none"/>
    <path d="M53.1 57.1 L51.55 58.05 50.15 58.75 Q50.15 58.25 50.7 57.75 L51.8 56.8 Q52.3 56.3 53.1 56.0 54.1 56.5 53.1 57.1" fill="#a39373" fill-rule="evenodd" stroke="none"/>
    <path d="M115.0 61.1 L113.35 61.0 111.3 60.5 Q109.65 60.2 110.5 59.9 L112.3 60.25 114.0 60.6 Q114.85 60.8 115.0 61.1" fill="#a39373" fill-rule="evenodd" stroke="none"/>
    <path d="M129.1 61.05 L128.0 61.95 126.85 62.55 Q126.7 62.15 127.1 61.75 L127.95 61.0 128.7 60.3 128.85 60.25 128.9 60.2 129.15 60.2 Q129.9 60.5 129.1 61.05" fill="#a39373" fill-rule="evenodd" stroke="none"/>
    <path d="M30.95 62.7 L30.65 62.95 Q30.55 63.2 30.05 63.15 L30.2 62.95 30.45 62.65 30.7 62.4 30.95 62.35 Q31.45 62.5 30.95 62.7" fill="#936653" fill-rule="evenodd" stroke="none"/>
    <path d="M28.4 53.4 L28.75 53.5 29.25 54.1 28.4 54.8 27.1 55.35 27.0 55.4 25.95 55.2 25.2 54.85 25.1 54.65 Q25.1 54.4 25.6 54.25 L26.65 53.7 27.9 53.35 28.4 53.4" fill="#936653" fill-rule="evenodd" stroke="none"/>
    <path d="M217.1 60.85 L217.4 60.9 Q217.6 62.25 216.95 63.6 L215.45 66.45 213.95 68.6 Q212.3 67.6 213.4 65.75 214.3 64.3 214.7 62.75 215.05 61.45 216.6 60.75 L217.1 60.85" fill="#936653" fill-rule="evenodd" stroke="none"/>
    <path d="M192.8 62.8 L192.05 63.2 Q191.4 63.15 191.35 62.95 L191.15 62.55 191.35 62.05 191.55 61.95 191.8 61.85 192.05 61.8 192.4 61.75 Q193.4 61.85 193.05 62.2 192.75 62.45 192.8 62.8" fill="#a39373" fill-rule="evenodd" stroke="none"/>
    <path d="M222.6 66.55 Q222.55 66.8 221.9 66.9 221.05 66.95 220.9 66.65 L220.9 66.55 221.2 66.4 221.65 66.25 221.95 66.2 Q222.7 66.25 222.6 66.55" fill="#936653" fill-rule="evenodd" stroke="none"/>
    <path d="M60.35 56.7 L59.8 57.4 58.7 57.75 Q58.2 57.45 58.7 57.1 L59.55 56.45 Q59.95 56.1 60.7 56.05 60.95 56.35 60.35 56.7" fill="#a39373" fill-rule="evenodd" stroke="none"/>
    <path d="M123.85 55.7 Q123.35 55.95 123.4 56.3 L122.75 56.75 Q122.1 56.6 122.2 56.2 L122.75 55.5 Q123.15 55.2 124.0 55.15 124.5 55.4 123.85 55.7" fill="#a39373" fill-rule="evenodd" stroke="none"/>
    <path d="M168.45 57.7 L168.05 58.1 Q167.55 58.05 167.4 57.85 L167.3 57.45 Q167.2 57.1 168.1 57.05 L168.1 57.0 Q168.95 57.0 168.7 57.3 L168.45 57.7" fill="#a39373" fill-rule="evenodd" stroke="none"/>
    <path d="M219.25 68.6 L218.25 69.65 Q217.85 70.15 216.95 70.3 216.3 69.85 216.85 69.3 L217.75 68.3 Q218.0 67.75 219.1 67.55 220.0 67.95 219.25 68.6" fill="#936653" fill-rule="evenodd" stroke="none"/>
    <path d="M21.25 80.45 L22.25 78.6 Q22.55 77.65 24.45 77.45 25.1 77.9 25.1 78.4 L24.85 79.1 Q24.2 79.95 23.9 80.85 23.65 81.65 22.5 82.25 21.0 81.75 21.0 81.05 L21.25 80.45" fill="#936653" fill-rule="evenodd" stroke="none"/>
    <path d="M230.95 93.85 L231.9 93.95 232.6 94.15 232.9 94.3 233.15 94.8 233.0 95.7 Q232.65 96.2 231.5 96.5 L231.1 96.6 Q228.95 96.8 228.2 95.9 227.55 95.15 228.3 94.55 228.9 94.05 230.2 93.9 L230.95 93.85" fill="#936653" fill-rule="evenodd" stroke="none"/>
    <path d="M218.4 108.25 L219.0 108.25 219.9 108.4 220.75 108.75 221.15 109.05 221.05 109.2 220.95 109.35 220.65 109.55 219.75 109.9 217.1 109.65 216.35 109.35 216.3 109.2 216.3 109.05 216.35 108.85 216.95 108.55 218.4 108.25" fill="#936653" fill-rule="evenodd" stroke="none"/>
    <path d="M180.4 111.1 L181.45 111.25 182.35 111.55 Q182.95 111.75 182.85 112.05 L182.75 112.25 182.6 112.4 182.05 112.75 181.3 113.05 179.5 112.85 178.5 112.6 Q177.9 112.4 178.0 112.1 L178.0 111.95 178.25 111.6 179.55 111.2 180.4 111.1" fill="#936653" fill-rule="evenodd" stroke="none"/>
    <path d="M228.45 86.7 L229.3 87.05 229.7 87.35 229.8 87.5 229.45 87.8 228.05 88.3 226.1 88.25 225.85 88.1 225.6 87.9 225.35 87.55 225.25 87.25 225.4 87.05 225.85 86.9 226.25 86.75 226.8 86.65 227.5 86.55 228.45 86.7" fill="#936653" fill-rule="evenodd" stroke="none"/>
    <path d="M18.35 57.45 L18.95 57.65 19.1 57.8 19.35 57.95 Q18.85 58.75 17.4 59.4 16.05 60.0 15.25 60.75 14.1 61.8 11.7 61.25 10.65 60.55 11.85 59.85 L14.0 58.55 Q15.5 57.65 17.55 57.3 L18.35 57.45" fill="#936653" fill-rule="evenodd" stroke="none"/>
    <path d="M214.1 53.05 L213.9 52.85 Q213.4 52.55 213.65 52.2 213.9 51.75 214.85 51.6 L215.5 51.5 217.35 51.7 219.95 51.85 222.95 52.1 223.65 52.35 223.0 52.95 221.7 53.4 Q218.75 54.3 215.1 53.55 L214.1 53.05" fill="#936653" fill-rule="evenodd" stroke="none"/>
    <path d="M-2.65 30.0 L-2.65 29.7 251.8 29.7 251.85 29.8 252.0 30.0 -2.65 30.0 M252.6 31.3 L252.6 33.2 -2.65 33.2 -2.65 31.3 252.6 31.3 M252.6 34.75 L252.6 35.2 -2.65 35.2 -2.65 34.75 252.6 34.75" fill="#6e727b" fill-rule="evenodd" stroke="none"/>
    <path d="M-2.65 30.0 L252.0 30.0 252.2 30.25 -2.45 30.25 -2.45 30.55 252.45 30.55 252.6 30.7 252.6 31.3 -2.65 31.3 -2.65 30.0" fill="#9498a1" fill-rule="evenodd" stroke="none"/>
    <path d="M252.2 30.25 L252.45 30.55 -2.45 30.55 -2.45 30.25 252.2 30.25" fill="#e7e7e7" fill-rule="evenodd" stroke="none"/>
    <path d="M252.6 33.2 L252.6 34.75 -2.65 34.75 -2.65 33.2 252.6 33.2" fill="#494c54" fill-rule="evenodd" stroke="none"/>
    <path d="M-14.15 171.7 L-14.7 171.7 -14.65 44.25 -14.45 42.95 -13.75 41.85 -2.7 29.7 -2.5 30.05 -4.2 31.75 -11.25 39.6 -13.7 42.6 -13.95 42.9 -14.05 42.95 -14.15 171.7 M-2.05 31.1 L-0.9 33.3 -1.5 33.3 -11.3 43.5 -11.2 43.6 -11.45 171.7 -12.9 171.7 -12.8 43.1 -6.5 36.05 -2.05 31.1 M-0.8 34.9 L-0.8 34.95 -0.6 34.95 -9.0 44.05 -9.55 44.75 -9.4 44.5 -9.5 44.55 -9.4 44.4 -9.5 44.45 -9.85 44.25 -9.85 44.1 -9.85 44.05 -9.85 43.95 -9.8 44.0 -1.05 34.8 -0.8 34.9 M-11.35 43.7 L-11.25 43.65 -11.35 43.6 -11.35 43.7" fill="#6e727b" fill-rule="evenodd" stroke="none"/>
    <path d="M-13.7 42.6 L-11.25 39.6 -4.2 31.75 -2.5 30.05 -2.4 30.35 -5.45 33.7 -13.5 42.75 -13.7 42.6" fill="#e7e7e7" fill-rule="evenodd" stroke="none"/>
    <path d="M-0.9 33.3 L-0.35 34.5 -0.65 34.65 -0.8 34.9 -1.05 34.8 -9.8 44.0 -9.85 43.95 -9.85 44.05 -9.95 44.2 -11.2 43.6 -11.3 43.5 -1.5 33.3 -0.9 33.3" fill="#4d525d" fill-rule="evenodd" stroke="none"/>
    <path d="M-14.15 171.7 L-14.05 42.95 -13.95 42.9 -13.7 42.6 -13.5 42.75 -5.45 33.7 -2.4 30.35 -2.1 31.0 Q-1.75 30.75 -2.05 31.1 L-6.5 36.05 -12.8 43.1 -12.9 171.7 -14.15 171.7 M-9.55 44.75 L-9.7 171.7 -10.1 171.7 -9.85 44.25 -9.5 44.45 -9.4 44.4 -9.5 44.55 -9.55 44.75 M-9.85 44.05 L-9.85 44.1 -9.95 44.2 -9.85 44.05" fill="#9498a1" fill-rule="evenodd" stroke="none"/>
    <path d="M-11.35 43.7 L-11.35 43.6 -11.25 43.65 -11.35 43.7" fill="#60646b" fill-rule="evenodd" stroke="none"/>
    <path d="M-10.1 171.7 L-11.45 171.7 -11.2 43.6 -9.95 44.2 -9.85 44.1 -9.85 44.25 -10.1 171.7" fill="#57595d" fill-rule="evenodd" stroke="none"/>
    <path d="M-14.25 96.1 L-13.0 96.1 -13.05 160.05 -13.1 160.0 -13.0 171.15 -13.2 170.95 -13.4 167.95 -13.6 162.3 -13.55 160.9 -13.95 167.95 Q-14.1 171.7 -14.2 171.7 L-8.3 177.85 -14.05 172.1 -14.25 171.9 -14.25 171.55 -14.25 159.95 -14.3 160.0 -14.25 96.1 M-10.3 96.1 L-9.8 96.1 -9.9 159.95 -9.85 159.9 -9.9 168.3 -0.55 177.85 -0.85 178.6 -1.35 178.1 -1.95 177.5 -8.1 171.5 -10.5 169.0 -10.45 168.9 -10.3 96.1 M-1.25 179.3 L-1.6 180.25 -11.2 170.25 -10.75 170.6 -10.95 170.4 -11.4 170.0 -11.55 169.9 -11.7 169.6 -10.55 169.0 -8.1 171.95 -1.35 179.2 -1.25 179.3 M-2.3 181.75 L-2.35 181.95 -8.1 176.35 -12.45 171.7 -2.3 181.75 M-13.6 160.2 L-13.6 160.05 -13.65 160.2 -13.6 160.2" fill="#9498a1" fill-rule="evenodd" stroke="none"/>
    <path d="M-11.65 96.1 L-10.3 96.1 -10.45 168.9 -10.5 169.0 -10.75 168.75 -10.55 169.0 -11.7 169.6 -11.55 169.9 -11.7 169.75 -11.9 169.2 -11.75 159.85 -11.8 159.9 -11.65 96.1" fill="#57595d" fill-rule="evenodd" stroke="none"/>
    <path d="M-13.0 96.1 L-11.65 96.1 -11.8 159.9 -11.75 159.85 -11.9 169.2 -11.7 169.75 -11.55 169.9 -11.4 170.0 -10.95 170.4 -10.75 170.6 -11.2 170.25 -1.6 180.25 -2.3 181.75 -12.45 171.7 -13.0 171.15 -13.1 160.0 -13.05 160.05 -13.0 96.1 M-3.0 183.4 L-3.1 183.6 -3.2 183.6 -14.65 172.1 -14.8 160.4 -14.55 160.2 -14.8 160.2 -14.75 96.1 -14.25 96.1 -14.3 160.0 -14.25 159.95 -14.25 171.55 -14.25 171.9 -14.05 172.1 -8.3 177.85 -8.1 178.05 -3.0 183.4" fill="#6e727b" fill-rule="evenodd" stroke="none"/>
    <path d="M-2.35 181.95 L-3.0 183.4 -8.1 178.05 -8.3 177.85 -14.2 171.7 Q-14.1 171.7 -13.95 167.95 L-13.55 160.9 -13.6 162.3 -13.4 167.95 -13.2 170.95 -13.0 171.15 -12.45 171.7 -8.1 176.35 -2.35 181.95 M-13.6 160.2 L-13.65 160.2 -13.6 160.05 -13.6 160.2" fill="#4d525d" fill-rule="evenodd" stroke="none"/>
    <path d="M-0.85 178.6 L-1.25 179.3 -1.35 179.2 -8.1 171.95 -10.55 169.0 -10.75 168.75 -10.5 169.0 -8.1 171.5 -1.95 177.5 -1.35 178.1 -0.85 178.6" fill="#e7e7e7" fill-rule="evenodd" stroke="none"/>
    <path d="M-2.65 183.15 L-2.65 181.6 252.3 181.6 252.3 183.15 -2.65 183.15" fill="#494c54" fill-rule="evenodd" stroke="none"/>
    <path d="M252.3 183.15 L252.3 183.6 -2.65 183.6 -2.65 183.15 252.3 183.15 M-2.65 181.6 L-2.65 179.7 252.3 179.7 252.3 181.6 -2.65 181.6 M-2.65 178.4 L-2.65 178.1 252.3 178.1 252.3 178.4 -2.65 178.4" fill="#6e727b" fill-rule="evenodd" stroke="none"/>
    <path d="M-2.65 179.7 L-2.65 178.4 252.3 178.4 252.3 178.65 -2.45 178.65 -2.45 178.95 252.3 178.95 252.3 179.7 -2.65 179.7" fill="#9498a1" fill-rule="evenodd" stroke="none"/>
    <path d="M252.3 178.65 L252.5 178.65 252.5 178.95 252.3 178.95 -2.45 178.95 -2.45 178.65 252.3 178.65" fill="#e7e7e7" fill-rule="evenodd" stroke="none"/>
    <path d="M251.4 30.35 L251.5 30.05 253.2 31.75 260.25 39.6 262.7 42.6 262.5 42.75 254.45 33.7 251.4 30.35" fill="#e7e7e7" fill-rule="evenodd" stroke="none"/>
    <path d="M251.5 30.05 L251.7 29.7 262.75 41.85 263.45 42.95 263.65 44.25 263.7 171.7 263.15 171.7 263.05 42.95 262.95 42.9 262.7 42.6 260.25 39.6 253.2 31.75 251.5 30.05 M261.9 171.7 L260.45 171.7 260.2 43.6 260.3 43.5 250.5 33.3 249.9 33.3 251.05 31.1 255.5 36.05 261.8 43.1 261.9 171.7 M258.55 44.75 L258.0 44.05 249.6 34.95 249.8 34.95 249.8 34.9 250.05 34.8 258.8 44.0 258.85 43.95 258.85 44.05 258.85 44.1 258.85 44.25 258.5 44.45 258.4 44.4 258.5 44.55 258.4 44.5 258.55 44.75 M260.35 43.7 L260.35 43.6 260.25 43.65 260.35 43.7" fill="#6e727b" fill-rule="evenodd" stroke="none"/>
    <path d="M249.8 34.9 L249.65 34.65 249.35 34.5 249.9 33.3 250.5 33.3 260.3 43.5 260.2 43.6 258.95 44.2 258.85 44.05 258.85 43.95 258.8 44.0 250.05 34.8 249.8 34.9" fill="#4d525d" fill-rule="evenodd" stroke="none"/>
    <path d="M263.15 171.7 L261.9 171.7 261.8 43.1 255.5 36.05 251.05 31.1 Q250.75 30.75 251.1 31.0 L251.4 30.35 254.45 33.7 262.5 42.75 262.7 42.6 262.95 42.9 263.05 42.95 263.15 171.7 M259.1 171.7 L258.7 171.7 258.55 44.75 258.5 44.55 258.4 44.4 258.5 44.45 258.85 44.25 259.1 171.7 M258.85 44.1 L258.85 44.05 258.95 44.2 258.85 44.1" fill="#9498a1" fill-rule="evenodd" stroke="none"/>
    <path d="M260.35 43.7 L260.25 43.65 260.35 43.6 260.35 43.7" fill="#60646b" fill-rule="evenodd" stroke="none"/>
    <path d="M260.45 171.7 L259.1 171.7 258.85 44.25 258.85 44.1 258.95 44.2 260.2 43.6 260.45 171.7" fill="#57595d" fill-rule="evenodd" stroke="none"/>
    <path d="M263.1 96.15 L261.85 96.15 261.9 160.1 261.95 160.05 261.85 171.2 262.05 171.0 262.25 168.0 262.45 162.35 262.4 160.95 262.8 168.0 Q262.95 171.75 263.05 171.75 L257.15 177.9 262.9 172.15 263.1 171.95 263.1 171.6 263.1 160.0 263.15 160.05 263.1 96.15 M259.15 96.15 L258.65 96.15 258.75 160.0 258.7 159.95 258.75 168.35 249.4 177.9 249.7 178.65 250.2 178.15 250.8 177.55 256.95 171.55 259.35 169.05 259.3 168.95 259.15 96.15 M250.1 179.35 L250.45 180.3 260.05 170.3 259.6 170.65 259.8 170.45 260.25 170.05 260.4 169.95 260.55 169.65 259.4 169.05 256.95 172.0 250.2 179.25 250.1 179.35 M251.15 181.8 L251.2 182.0 256.95 176.4 261.3 171.75 251.15 181.8 M262.45 160.25 L262.45 160.1 262.5 160.25 262.45 160.25" fill="#9498a1" fill-rule="evenodd" stroke="none"/>
    <path d="M260.5 96.15 L259.15 96.15 259.3 168.95 259.35 169.05 259.6 168.8 259.4 169.05 260.55 169.65 260.4 169.95 260.55 169.8 260.75 169.25 260.6 159.9 260.65 159.95 260.5 96.15" fill="#57595d" fill-rule="evenodd" stroke="none"/>
    <path d="M251.85 183.45 L251.95 183.65 252.05 183.65 263.5 172.15 263.65 160.45 263.4 160.25 263.65 160.25 263.6 96.15 263.1 96.15 263.15 160.05 263.1 160.0 263.1 171.6 263.1 171.95 262.9 172.15 257.15 177.9 256.95 178.1 251.85 183.45 M261.85 96.15 L260.5 96.15 260.65 159.95 260.6 159.9 260.75 169.25 260.55 169.8 260.4 169.95 260.25 170.05 259.8 170.45 259.6 170.65 260.05 170.3 250.45 180.3 251.15 181.8 261.3 171.75 261.85 171.2 261.95 160.05 261.9 160.1 261.85 96.15" fill="#6e727b" fill-rule="evenodd" stroke="none"/>
    <path d="M251.2 182.0 L251.85 183.45 256.95 178.1 257.15 177.9 263.05 171.75 Q262.95 171.75 262.8 168.0 L262.4 160.95 262.45 162.35 262.25 168.0 262.05 171.0 261.85 171.2 261.3 171.75 256.95 176.4 251.2 182.0 M262.45 160.25 L262.5 160.25 262.45 160.1 262.45 160.25" fill="#4d525d" fill-rule="evenodd" stroke="none"/>
    <path d="M249.7 178.65 L250.1 179.35 250.2 179.25 256.95 172.0 259.4 169.05 259.6 168.8 259.35 169.05 256.95 171.55 250.8 177.55 250.2 178.15 249.7 178.65" fill="#e7e7e7" fill-rule="evenodd" stroke="none"/>
    <path d="M57.0 130.5 Q57.2 128.1 59.2 127.95 L59.4 127.9 79.7 127.3 Q89.3 126.5 97.0 127.75 L98.15 127.75 Q100.05 129.1 99.75 131.05 100.6 143.5 98.75 155.55 L97.9 156.45 98.8 157.55 99.25 161.75 99.3 163.75 99.2 164.6 99.3 164.6 Q99.2 166.55 98.7 167.6 78.7 169.1 58.25 167.75 L57.7 167.3 56.9 166.1 56.45 165.3 56.4 164.2 56.2 163.15 56.25 163.15 56.2 163.0 56.2 162.95 56.15 162.65 Q55.75 159.6 55.6 155.95 L55.6 155.3 55.55 150.35 55.55 150.15 55.55 148.9 55.65 146.35 55.65 145.8 55.7 144.6 56.1 139.15 56.1 134.6 56.55 132.65 56.85 131.55 57.0 130.5 M146.8 133.55 Q148.05 152.25 146.6 162.9 L146.55 163.2 146.45 163.75 146.6 163.75 146.55 164.1 Q146.45 165.75 144.8 167.7 126.15 168.95 108.1 168.15 105.0 166.6 104.85 163.4 104.7 162.35 104.8 161.15 L105.2 156.0 105.25 155.55 105.5 151.7 105.55 151.2 105.6 150.3 105.75 147.7 105.8 147.15 105.8 145.7 105.8 145.65 105.8 145.25 105.8 145.15 105.75 143.4 105.75 143.3 105.75 142.9 105.05 136.5 105.0 136.05 104.9 135.65 104.9 135.6 Q104.75 134.4 104.75 133.25 L104.8 133.25 104.8 133.2 104.75 133.2 104.75 132.8 Q104.7 131.85 104.8 130.95 L105.0 130.95 105.05 130.45 105.25 130.15 Q105.5 127.7 107.35 127.5 L112.35 127.25 Q115.55 126.9 120.05 127.3 L122.75 127.4 Q128.2 127.1 134.25 127.55 139.75 127.45 142.8 127.6 144.55 127.7 145.6 128.25 L146.25 128.8 Q146.95 129.3 146.8 132.55 L146.8 133.55" fill="#000000" fill-opacity="0.2" fill-rule="evenodd" stroke="none"/>
  </g>
</svg>
