<?xml version="1.0" encoding="UTF-8" standalone="no"?>
<svg xmlns:ffdec="https://www.free-decompiler.com/flash" xmlns:xlink="http://www.w3.org/1999/xlink" ffdec:objectType="shape" height="41.35px" width="42.7px" xmlns="http://www.w3.org/2000/svg">
  <g transform="matrix(1.0, 0.0, 0.0, 1.0, -150.35, -127.0)">
    <path d="M165.7 127.2 L168.4 127.3 Q173.85 127.0 179.9 127.45 185.4 127.35 188.45 127.5 190.2 127.6 191.25 128.15 L191.9 128.7 Q192.6 129.2 192.45 132.45 L192.45 133.45 Q193.7 152.15 192.25 162.8 L192.2 163.1 192.1 163.65 192.25 163.65 192.2 164.0 Q192.1 165.65 190.45 167.6 171.8 168.85 153.75 168.05 150.65 166.5 150.5 163.3 150.35 162.25 150.45 161.05 L150.85 155.9 150.9 155.45 151.15 151.6 151.2 151.1 151.25 150.2 151.4 147.6 151.45 147.05 151.45 145.6 151.45 145.55 151.45 145.15 151.45 145.05 151.4 143.3 151.4 143.2 151.4 142.8 150.7 136.4 150.65 135.95 150.55 135.55 150.55 135.5 150.4 133.15 150.45 133.15 150.45 133.1 150.4 133.1 150.4 132.7 Q150.35 131.75 150.45 130.85 L150.65 130.85 150.7 130.35 150.9 130.05 Q151.15 127.6 153.0 127.4 L158.0 127.15 Q161.2 126.8 165.7 127.2" fill="#000000" fill-opacity="0.2" fill-rule="evenodd" stroke="none"/>
  </g>
</svg>
