<?xml version="1.0" encoding="UTF-8" standalone="no"?>
<svg xmlns:ffdec="https://www.free-decompiler.com/flash" xmlns:xlink="http://www.w3.org/1999/xlink" ffdec:objectType="shape" height="59.95px" width="217.15px" xmlns="http://www.w3.org/2000/svg">
  <g transform="matrix(1.0, 0.0, 0.0, 1.0, -15.9, -47.75)">
    <path d="M221.1 51.0 L221.1 51.4 221.25 51.55 221.25 51.6 231.7 63.05 232.4 64.15 232.6 65.45 232.25 96.0 220.8 107.5 220.7 107.5 220.7 107.6 27.9 107.6 27.8 107.7 27.75 107.7 16.25 96.2 15.9 65.65 16.15 64.35 Q16.4 63.75 16.8 63.25 L27.85 51.1 27.95 51.3 27.95 51.0 220.6 51.0 220.65 50.9 220.75 51.0 221.1 51.0" fill="#000000" fill-opacity="0.2" fill-rule="evenodd" stroke="none"/>
    <path d="M229.25 62.6 Q228.35 63.15 228.6 63.55 L228.6 93.8 Q225.55 97.75 221.9 101.2 L220.55 102.55 28.95 102.95 18.0 93.7 18.0 64.6 29.5 51.8 221.2 52.2 Q224.75 57.4 229.25 62.6" fill="#bba14b" fill-rule="evenodd" stroke="none"/>
    <path d="M161.3 60.85 Q178.1 64.05 177.75 69.4 178.1 74.7 161.3 77.95 145.95 80.85 124.25 80.85 102.65 80.85 87.25 77.95 70.45 74.7 70.85 69.4 70.45 64.05 87.25 60.85 102.65 57.9 124.25 57.9 145.95 57.9 161.25 60.85 L161.3 60.85" fill="#d3bc70" fill-rule="evenodd" stroke="none"/>
    <path d="M161.3 60.85 L161.25 60.85 Q145.95 57.9 124.25 57.9 102.65 57.9 87.25 60.85 70.45 64.05 70.85 69.4 70.45 74.7 87.25 77.95 102.65 80.85 124.25 80.85 145.95 80.85 161.3 77.95 178.1 74.7 177.75 69.4 178.1 64.05 161.3 60.85 M194.9 71.2 Q196.15 78.85 172.8 84.0 149.45 89.15 122.85 89.5 96.25 89.9 76.05 84.95 55.85 80.0 56.15 70.85 59.0 63.55 80.65 59.4 98.75 55.9 124.25 55.9 149.85 55.9 167.95 59.4 189.65 63.55 194.9 71.2" fill="#d3bc70" fill-opacity="0.32156864" fill-rule="evenodd" stroke="none"/>
    <path d="M221.15 98.65 L28.25 98.65 28.25 104.45 221.15 104.45 221.15 98.65" fill="#6e727b" fill-rule="evenodd" stroke="none"/>
    <path d="M221.15 98.85 L28.25 98.85 28.25 100.2 221.15 100.2 221.15 98.85" fill="#9498a1" fill-rule="evenodd" stroke="none"/>
    <path d="M221.3 99.35 L28.4 99.35 28.4 99.65 221.3 99.65 221.3 99.35" fill="#e7e7e7" fill-rule="evenodd" stroke="none"/>
    <path d="M221.15 102.55 L28.25 102.55 28.25 104.2 221.15 104.2 221.15 102.55" fill="#494c54" fill-rule="evenodd" stroke="none"/>
    <path d="M221.5 47.85 L28.35 47.85 28.35 53.35 221.5 53.35 221.5 47.85" fill="#6e727b" fill-rule="evenodd" stroke="none"/>
    <path d="M221.5 48.15 L28.35 48.15 28.35 49.45 221.5 49.45 221.5 48.15" fill="#9498a1" fill-rule="evenodd" stroke="none"/>
    <path d="M221.7 48.4 L28.55 48.4 28.55 48.7 221.7 48.7 221.7 48.4" fill="#e7e7e7" fill-rule="evenodd" stroke="none"/>
    <path d="M221.5 51.35 L28.35 51.35 28.35 52.9 221.5 52.9 221.5 51.35" fill="#494c54" fill-rule="evenodd" stroke="none"/>
    <path d="M220.45 49.15 L224.85 54.1 231.2 61.15 231.0 91.9 230.5 92.45 220.35 102.5 219.65 101.0 229.25 91.0 228.8 91.35 229.0 91.15 229.45 90.75 229.6 90.65 229.75 90.5 229.95 89.9 229.55 61.65 229.65 61.6 229.7 61.55 219.9 51.35 219.3 51.35 220.45 49.15 M226.3 98.6 L232.1 92.85 232.25 92.6 232.3 92.3 232.45 61.0 232.35 60.95 232.1 60.65 229.65 57.65 222.6 49.8 220.9 48.1 221.1 47.75 232.15 59.9 232.8 61.0 233.05 62.3 232.7 92.85 221.25 104.35 221.15 104.35 221.05 104.15 226.3 98.6 M229.65 61.7 L229.75 61.75 229.75 61.65 229.65 61.7 M219.2 52.95 Q219.3 52.85 219.45 52.85 L228.2 62.05 228.25 62.0 228.25 62.1 228.25 62.15 228.25 62.3 227.9 62.5 227.8 62.4 227.9 62.6 227.8 62.55 227.95 62.8 227.4 62.1 219.0 53.0 219.2 53.0 219.2 52.95" fill="#6e727b" fill-rule="evenodd" stroke="none"/>
    <path d="M229.65 61.7 L229.75 61.65 229.75 61.75 229.65 61.7" fill="#60646b" fill-rule="evenodd" stroke="none"/>
    <path d="M229.55 61.65 L229.95 89.9 229.75 90.5 229.6 90.65 229.75 90.35 228.6 89.75 228.8 89.5 228.55 89.75 228.5 89.65 228.25 62.3 228.25 62.15 228.35 62.25 229.55 61.65" fill="#57595d" fill-rule="evenodd" stroke="none"/>
    <path d="M220.8 48.4 L223.85 51.75 231.9 60.8 232.1 60.65 232.35 60.95 232.45 61.0 232.3 92.3 232.25 92.6 232.1 92.85 226.3 98.6 232.25 92.45 Q232.15 92.45 232.0 88.7 L231.6 77.95 231.65 83.05 231.45 88.7 231.25 91.7 231.0 91.9 231.2 61.15 224.85 54.1 220.45 49.15 Q220.15 48.8 220.5 49.05 L220.8 48.4 M229.6 90.65 L229.45 90.75 229.0 91.15 228.8 91.35 229.25 91.0 219.65 101.0 219.25 100.05 Q224.4 95.0 228.6 89.75 L229.75 90.35 229.6 90.65 M220.35 102.5 L230.5 92.45 Q224.5 99.0 220.4 102.7 L220.35 102.5 M228.25 62.1 L228.35 62.25 228.25 62.15 228.25 62.1 M218.9 99.3 L218.6 98.6 227.95 89.05 227.95 62.8 227.9 62.6 227.8 62.4 227.9 62.5 228.25 62.3 228.5 89.65 228.55 89.75 219.95 98.25 218.9 99.3" fill="#9498a1" fill-rule="evenodd" stroke="none"/>
    <path d="M232.1 60.65 L231.9 60.8 223.85 51.75 220.8 48.4 220.9 48.1 222.6 49.8 229.65 57.65 232.1 60.65 M218.9 99.3 L219.95 98.25 228.55 89.75 228.8 89.5 228.6 89.75 Q224.4 95.0 219.25 100.05 L218.9 99.3" fill="#e7e7e7" fill-rule="evenodd" stroke="none"/>
    <path d="M231.0 91.9 L231.25 91.7 231.45 88.7 231.65 83.05 231.6 77.95 232.0 88.7 Q232.15 92.45 232.25 92.45 L226.3 98.6 221.05 104.15 220.4 102.7 Q224.5 99.0 230.5 92.45 L231.0 91.9 M219.3 51.35 L219.9 51.35 229.7 61.55 229.65 61.6 229.55 61.65 228.35 62.25 228.25 62.1 228.25 62.0 228.2 62.05 219.45 52.85 Q219.3 52.85 219.2 52.95 L219.05 52.7 218.7 52.55 219.3 51.35" fill="#4d525d" fill-rule="evenodd" stroke="none"/>
    <path d="M30.35 52.75 L30.35 53.2 21.5 62.85 21.45 89.25 30.8 98.8 30.5 99.5 29.45 98.45 20.9 89.85 21.2 62.35 21.05 62.4 21.2 62.3 21.2 62.2 21.2 62.25 30.35 52.75 M29.75 101.2 L29.1 102.7 18.9 92.65 18.4 92.1 18.2 61.35 28.6 48.6 30.05 51.3 19.75 61.75 19.85 61.85 19.7 61.85 19.7 61.95 19.85 61.85 19.45 90.1 Q19.45 90.45 19.7 90.7 L19.8 90.8 19.95 90.95 20.45 91.35 20.65 91.55 20.15 91.2 29.75 101.2 M28.4 104.35 L28.25 104.55 28.2 104.55 16.7 93.05 16.35 62.5 16.6 61.2 Q16.85 60.6 17.25 60.1 L28.3 47.95 28.5 48.3 Q21.25 55.75 17.3 60.85 L17.1 61.15 17.0 61.05 16.85 61.45 17.0 61.45 17.1 92.5 17.15 92.8 17.3 93.05 23.1 98.8 28.4 104.35" fill="#6e727b" fill-rule="evenodd" stroke="none"/>
    <path d="M19.7 61.85 L19.85 61.85 19.7 61.95 19.7 61.85" fill="#60646b" fill-rule="evenodd" stroke="none"/>
    <path d="M19.85 61.85 L21.05 62.4 21.2 62.35 20.9 89.85 20.85 89.9 19.7 90.55 19.8 90.8 19.7 90.7 Q19.45 90.45 19.45 90.1 L19.85 61.85 M20.85 89.9 L20.65 89.7 20.85 89.9" fill="#57595d" fill-rule="evenodd" stroke="none"/>
    <path d="M30.15 100.2 L29.75 101.2 20.15 91.2 20.65 91.55 20.45 91.35 19.95 90.95 19.8 90.8 19.7 90.55 20.85 89.9 20.9 89.85 29.45 98.45 20.85 89.9 Q25.0 95.2 30.15 100.2 M29.1 102.7 L29.0 102.9 Q24.95 99.2 18.9 92.65 L29.1 102.7 M17.3 60.85 L18.2 61.35 18.4 92.1 18.15 91.9 17.95 88.9 17.75 83.2 17.8 78.15 17.4 88.9 17.2 92.6 23.1 98.8 17.3 93.05 17.15 92.8 17.1 92.5 17.0 61.45 17.0 61.05 17.1 61.15 17.3 60.85" fill="#9498a1" fill-rule="evenodd" stroke="none"/>
    <path d="M30.5 99.5 L30.15 100.2 Q25.0 95.2 20.85 89.9 L20.65 89.7 20.85 89.9 29.45 98.45 30.5 99.5 M28.5 48.3 L28.6 48.6 18.2 61.35 17.3 60.85 Q21.25 55.75 28.5 48.3 M17.0 61.05 L17.0 61.45 16.85 61.45 17.0 61.05" fill="#e7e7e7" fill-rule="evenodd" stroke="none"/>
    <path d="M30.05 51.3 L30.45 52.65 30.35 52.45 30.35 52.75 21.2 62.25 21.2 62.2 21.2 62.3 21.05 62.4 19.85 61.85 19.75 61.75 30.05 51.3 M29.0 102.9 L28.4 104.35 23.1 98.8 17.2 92.6 17.4 88.9 17.8 78.15 17.75 83.2 17.95 88.9 18.15 91.9 18.4 92.1 18.9 92.65 Q24.95 99.2 29.0 102.9" fill="#4d525d" fill-rule="evenodd" stroke="none"/>
  </g>
</svg>
