<?xml version="1.0" encoding="UTF-8" standalone="no"?>
<svg xmlns:ffdec="https://www.free-decompiler.com/flash" xmlns:xlink="http://www.w3.org/1999/xlink" ffdec:objectType="shape" height="21.75px" width="88.4px" xmlns="http://www.w3.org/2000/svg">
  <g transform="matrix(1.0, 0.0, 0.0, 1.0, -79.95, -60.0)">
    <path d="M120.25 60.1 L123.15 80.95 120.4 81.1 119.9 78.1 117.3 78.2 117.0 81.65 114.1 81.65 116.6 60.5 120.25 60.1 M95.1 60.4 Q97.85 61.15 98.1 67.5 98.0 71.2 96.15 72.75 L98.85 81.25 95.9 81.6 93.5 73.8 92.75 73.9 92.85 81.45 89.85 81.35 89.85 60.4 92.4 60.2 95.1 60.4 M102.1 60.2 L103.85 67.8 105.15 60.0 108.1 60.35 105.3 72.5 105.4 81.45 102.4 81.45 102.4 73.65 98.9 60.25 102.1 60.2 M92.75 62.95 L92.75 70.8 Q93.9 70.7 94.35 70.25 94.95 69.65 95.1 67.25 L94.85 64.05 Q94.35 62.6 92.75 62.95 M123.9 70.7 Q123.9 65.7 124.6 63.1 125.25 60.4 128.25 60.2 131.2 60.25 131.9 63.0 L132.35 65.05 129.55 65.95 129.5 65.45 Q129.25 63.6 128.35 63.5 127.45 63.65 127.3 65.55 127.05 67.4 127.05 70.95 127.05 74.55 127.3 76.3 127.55 78.2 128.45 78.35 129.35 78.25 129.55 76.4 130.0 74.05 129.9 71.6 L128.25 71.6 127.95 68.7 132.5 68.7 132.75 72.65 132.75 72.85 Q132.75 76.5 132.0 78.85 131.25 81.5 128.35 81.65 L128.35 81.6 Q125.35 81.45 124.7 78.75 123.95 76.1 123.95 70.95 L123.9 70.95 123.9 70.7 M119.5 75.2 L118.4 68.05 117.65 75.1 119.5 75.2 M87.95 60.1 L88.15 63.5 85.6 63.4 85.55 81.45 82.55 81.25 82.6 63.4 79.95 63.35 80.0 60.1 87.95 60.1 M168.2 64.65 L168.35 66.0 Q168.35 67.65 167.6 69.0 L165.35 71.95 Q164.55 73.65 165.8 74.7 L163.8 76.15 Q161.75 75.1 161.85 72.9 161.85 71.15 163.7 69.0 165.65 66.9 165.25 65.45 164.95 63.6 164.05 63.4 163.4 63.5 163.25 65.35 L163.3 66.5 160.4 66.4 160.4 66.25 160.3 65.55 Q160.3 64.4 160.7 62.95 161.3 60.25 163.9 60.2 166.9 60.35 167.7 63.0 L168.2 64.65 M163.9 78.1 L163.95 78.1 Q165.6 78.2 165.6 79.8 L165.6 80.05 Q165.4 81.75 164.05 81.75 L163.9 81.75 Q162.35 81.6 162.35 79.9 L162.35 79.8 Q162.35 78.1 163.9 78.1 M158.3 81.45 L155.45 81.35 152.05 70.25 152.3 81.2 149.3 81.2 149.35 60.6 152.1 60.5 155.3 71.15 155.2 60.2 158.2 60.1 158.3 81.45 M146.45 60.2 L146.7 81.65 143.85 81.65 143.6 60.2 146.45 60.2 M139.65 60.1 L142.55 80.95 139.8 81.1 139.3 78.1 136.7 78.2 136.4 81.65 133.45 81.65 136.0 60.5 139.65 60.1 M138.9 75.2 L137.75 68.05 137.05 75.1 138.9 75.2" fill="#542b0e" fill-rule="evenodd" stroke="none"/>
  </g>
</svg>
