<?xml version="1.0" encoding="UTF-8" standalone="no"?>
<svg xmlns:ffdec="https://www.free-decompiler.com/flash" xmlns:xlink="http://www.w3.org/1999/xlink" ffdec:objectType="shape" height="299.4px" width="264.8px" xmlns="http://www.w3.org/2000/svg">
  <g transform="matrix(1.0, 0.0, 0.0, 1.0, -42.55, -115.35)">
    <path d="M298.2 120.05 Q302.7 125.35 304.3 129.1 L305.1 185.7 Q304.05 189.0 304.3 191.4 L304.3 374.65 Q304.0 389.9 304.5 402.35 L304.45 402.35 304.05 403.05 301.65 406.55 300.8 407.95 294.95 409.55 57.85 410.2 48.7 406.85 Q47.1 331.1 48.3 254.95 L48.3 130.75 56.4 119.5 65.95 120.4 298.2 120.05" fill="#744431" fill-rule="evenodd" stroke="none"/>
    <path d="M305.1 185.7 Q304.05 189.0 304.3 191.4 L304.3 242.8 302.4 237.65 301.95 237.7 301.9 237.6 301.9 238.3 Q301.9 239.0 303.85 244.3 L304.0 244.75 303.4 245.05 Q302.05 242.5 301.0 241.3 L300.85 242.05 302.4 245.75 Q301.25 246.55 300.15 247.85 L300.0 247.7 299.85 248.1 299.85 248.2 299.6 248.45 297.1 252.0 295.3 247.6 295.1 247.7 296.7 252.65 295.55 254.8 291.8 247.15 291.55 247.15 Q292.55 250.6 294.85 255.3 L295.1 255.8 294.25 257.75 292.9 256.55 Q289.4 254.1 285.3 258.0 L281.2 249.85 280.9 249.95 284.65 258.65 283.6 259.8 282.95 260.65 278.5 251.05 278.2 251.15 Q277.9 251.25 277.9 251.95 277.9 253.1 281.85 262.15 L281.7 262.4 280.0 259.6 281.35 262.9 280.5 264.3 Q279.55 262.75 278.3 261.85 274.95 259.6 271.1 262.95 269.05 258.9 268.25 258.35 L268.2 258.95 270.05 263.9 269.0 265.15 Q265.9 268.85 263.75 274.0 L261.8 272.1 Q259.35 270.4 256.7 271.4 L256.2 269.8 Q254.7 265.05 253.6 262.35 253.3 262.35 253.3 262.55 L255.45 270.5 255.85 271.75 Q254.35 272.55 252.7 274.25 250.45 276.7 248.65 280.25 L248.0 280.4 Q245.65 275.05 241.15 275.05 L240.1 275.15 237.4 269.6 237.2 269.6 Q237.5 270.95 238.8 273.5 L239.7 275.2 Q235.85 275.9 232.05 280.45 230.35 277.1 228.55 274.55 L228.4 274.95 231.05 281.65 230.25 282.8 Q229.2 284.25 228.3 285.8 L227.75 285.9 Q225.45 279.0 220.3 279.0 217.25 279.0 214.2 281.5 212.15 277.75 211.6 276.35 L211.1 276.45 211.05 276.25 211.0 276.95 Q211.0 277.85 213.25 282.3 211.35 284.05 209.4 286.75 208.5 288.05 207.7 289.45 191.35 291.55 174.0 291.55 L161.25 291.25 Q157.6 283.5 155.05 279.9 L155.0 279.7 155.0 280.35 Q155.0 281.2 158.75 288.8 L159.9 291.2 151.45 290.6 149.0 286.75 Q143.65 279.15 138.3 279.0 136.1 274.25 134.5 273.0 L137.1 279.1 Q132.55 279.75 130.5 286.45 L128.2 282.8 Q126.6 280.45 124.9 278.8 122.75 272.7 120.95 271.9 121.55 274.15 122.5 276.8 120.05 275.15 117.55 275.05 L116.65 273.7 116.2 272.55 111.05 259.35 110.65 259.6 Q112.4 266.15 116.45 275.1 114.9 275.25 113.65 276.15 L110.65 271.75 110.65 271.55 110.6 272.2 Q110.6 272.7 112.75 276.9 111.2 278.4 110.2 281.05 108.85 278.2 107.25 276.05 L104.3 270.1 104.1 270.3 105.8 274.0 106.2 274.75 105.7 274.25 Q102.9 271.25 100.3 271.05 97.15 264.95 95.0 262.35 L99.15 271.05 Q97.85 271.25 96.65 272.1 L94.65 274.0 Q92.5 268.85 89.45 265.15 86.15 261.1 83.2 261.0 L83.0 260.5 Q81.2 256.6 80.25 255.25 L80.25 255.35 82.75 261.0 Q81.4 261.05 80.15 261.85 78.9 262.75 77.95 264.3 76.5 261.8 74.85 259.8 69.75 253.65 65.55 256.55 L64.2 257.75 Q62.0 252.35 58.85 248.45 53.75 242.3 49.55 245.2 L48.3 246.25 48.3 130.75 56.4 119.5 65.95 120.4 298.25 120.05 Q302.75 125.35 304.25 129.1 L305.1 185.7" fill="#7b4d3b" fill-opacity="0.9882353" fill-rule="evenodd" stroke="none"/>
    <path d="M238.25 205.95 Q237.35 206.0 236.05 207.75 L235.45 208.6 Q237.85 207.6 239.2 207.15 239.0 205.9 238.25 205.95 M169.2 212.85 L168.7 212.8 Q168.95 212.15 190.0 215.45 L169.2 212.85 M298.25 120.05 Q302.75 125.35 304.25 129.1 L305.05 180.6 304.1 179.3 304.5 178.1 Q304.5 174.15 301.65 177.05 L301.3 177.45 301.55 176.4 Q301.55 172.75 299.35 175.2 L299.7 171.3 299.65 171.0 299.6 171.0 Q299.05 171.55 298.4 176.4 296.4 179.1 296.0 181.6 L295.9 181.6 294.55 181.65 Q293.55 174.85 292.2 169.95 L292.15 170.0 292.1 170.35 293.55 181.8 293.55 181.85 Q292.35 182.15 291.25 182.75 L292.0 180.6 Q292.0 178.65 291.05 178.65 290.2 178.7 289.0 180.2 286.9 182.75 286.25 185.4 L285.15 178.05 284.95 178.2 284.85 178.75 285.45 185.15 285.75 188.25 Q284.9 187.45 283.3 187.6 L282.0 187.9 Q281.65 186.05 279.6 187.3 277.15 188.8 277.15 192.35 L277.25 192.9 275.7 192.25 276.0 191.4 Q276.0 189.8 275.1 189.6 274.25 189.45 273.1 190.5 L272.0 191.65 267.6 184.1 267.5 184.15 Q267.35 184.25 267.35 184.55 L271.7 192.05 271.4 192.5 Q269.6 193.15 268.1 194.75 266.55 192.05 265.25 190.55 L267.5 195.45 266.45 196.9 Q265.8 197.9 265.3 198.95 L264.05 198.9 263.85 198.95 264.05 197.9 Q264.05 195.95 263.15 195.95 262.3 195.9 261.1 197.35 258.85 200.0 258.35 203.0 L258.2 202.95 258.2 202.7 Q258.2 201.3 257.45 200.9 256.75 200.5 255.85 201.2 L255.1 202.0 255.3 198.9 Q254.65 199.55 254.4 202.35 251.7 202.45 249.25 204.2 L249.85 195.8 249.8 195.5 249.75 195.55 Q249.5 196.75 248.95 202.45 248.5 200.15 246.0 203.4 243.2 207.0 242.95 209.9 L242.65 209.9 Q242.85 209.2 230.0 210.85 L234.6 208.95 Q235.2 207.2 235.2 206.4 235.2 203.7 232.95 205.0 L232.8 205.1 232.6 203.7 232.3 203.7 232.2 205.55 Q230.65 206.95 230.65 209.75 L230.8 210.5 230.75 210.5 230.7 210.55 230.0 210.85 230.05 210.45 Q230.05 208.55 229.1 208.45 228.25 208.4 227.05 209.8 225.55 211.5 224.8 213.5 224.3 213.75 223.75 214.1 219.55 216.65 219.1 216.65 218.25 216.65 215.35 215.0 212.5 213.4 208.75 213.4 L207.8 213.45 209.4 206.8 209.35 206.45 209.3 206.55 Q208.25 209.4 207.1 213.45 203.6 213.65 201.25 214.95 L203.65 198.6 Q202.4 203.65 201.15 211.4 L200.65 215.25 Q199.85 215.7 199.25 216.35 198.35 217.15 197.7 218.35 L197.05 219.25 195.85 218.8 194.35 213.45 Q192.75 208.4 191.05 205.5 L191.0 205.4 191.0 205.75 Q191.0 206.4 193.15 212.8 L195.1 218.4 Q193.6 217.6 190.95 216.0 L190.0 215.45 185.3 201.95 185.05 202.0 185.05 202.2 Q185.05 202.9 189.0 213.95 L189.4 215.1 Q187.15 213.9 185.45 213.3 L185.55 214.75 169.2 210.85 168.3 212.75 167.55 212.75 Q165.15 212.75 160.85 215.1 L161.25 213.95 Q165.2 202.9 165.2 202.2 L165.2 202.0 164.95 201.95 160.25 215.45 159.3 216.0 155.15 218.4 157.1 212.8 159.25 205.75 159.25 205.4 159.2 205.5 Q157.5 208.4 155.9 213.45 L154.4 218.8 153.2 219.25 152.55 218.35 151.0 216.35 149.6 215.25 149.1 211.4 Q147.85 203.65 146.6 198.6 147.35 204.65 149.0 214.95 146.65 213.65 143.15 213.45 L140.95 206.55 140.9 206.45 140.85 206.8 142.45 213.45 141.5 213.4 Q137.75 213.4 134.9 215.0 132.0 216.65 131.15 216.65 130.7 216.65 126.5 214.1 L125.45 213.5 Q124.7 211.5 123.2 209.8 122.0 208.4 121.15 208.45 120.2 208.55 120.2 210.45 L120.25 210.85 Q107.4 209.2 107.6 209.9 L107.3 209.9 Q107.05 207.0 104.25 203.4 101.75 200.15 101.3 202.45 L100.5 195.55 100.45 195.5 100.4 195.8 101.0 204.2 Q98.55 202.45 95.85 202.35 95.6 199.55 94.95 198.9 L95.15 202.0 94.4 201.2 Q93.5 200.5 92.8 200.9 92.05 201.3 92.05 202.7 L92.05 202.95 91.9 203.0 Q91.4 200.0 89.15 197.35 L88.65 196.8 88.45 196.65 88.45 196.6 Q87.7 195.9 87.1 195.95 86.2 195.95 86.2 197.9 L86.4 198.95 86.2 198.9 84.95 198.95 83.8 196.9 82.75 195.45 85.0 190.55 Q83.7 192.05 82.15 194.75 80.65 193.15 78.85 192.5 L78.55 192.05 82.9 184.55 82.75 184.15 82.65 184.1 78.25 191.65 77.15 190.5 Q76.0 189.45 75.15 189.6 74.25 189.8 74.25 191.4 L74.55 192.25 73.0 192.9 73.1 192.35 Q73.1 188.8 70.65 187.3 68.6 186.05 68.25 187.9 L66.95 187.6 Q65.35 187.45 64.5 188.25 L64.8 185.15 65.4 178.75 65.3 178.2 65.1 178.05 Q64.5 181.3 64.0 185.4 63.35 182.75 61.25 180.2 60.05 178.7 59.2 178.65 58.25 178.65 58.25 180.6 L59.0 182.75 Q57.9 182.15 56.7 181.85 L56.7 181.8 58.15 170.35 58.1 170.0 58.05 169.95 Q56.7 174.85 55.7 181.65 L54.35 181.6 54.25 181.6 Q53.85 179.1 51.85 176.4 51.2 171.55 50.65 171.0 L50.6 171.0 50.55 171.3 50.9 175.2 Q48.7 172.75 48.7 176.4 L48.95 177.45 48.6 177.05 Q45.75 174.15 45.75 178.1 L46.15 179.3 Q45.55 179.75 45.2 180.6 L46.0 129.1 Q47.5 125.35 52.0 120.05 L169.2 120.25 181.05 121.8 181.05 120.25 298.25 120.05 M117.65 203.7 L117.45 205.1 117.3 205.0 Q115.05 203.7 115.05 206.4 115.05 207.2 115.65 208.95 L119.55 210.55 119.5 210.5 119.45 210.5 119.6 209.75 Q119.6 206.95 118.05 205.55 L117.95 203.7 117.65 203.7 M112.0 205.95 Q111.25 205.9 111.05 207.15 L114.8 208.6 114.2 207.75 Q112.9 206.0 112.0 205.95" fill="#8e5b48" fill-opacity="0.6" fill-rule="evenodd" stroke="none"/>
    <path d="M299.65 183.2 L298.8 185.9 297.85 185.7 297.75 185.5 297.65 184.55 Q297.65 183.95 298.1 182.3 298.65 180.0 299.5 179.35 L300.0 179.65 Q300.2 179.95 300.2 180.8 L299.65 183.2 M57.65 213.85 Q56.3 213.85 56.05 213.25 L56.05 212.7 Q56.05 211.4 57.55 211.65 59.05 211.85 59.05 212.7 L58.55 213.5 Q58.05 213.85 57.65 213.85 M71.3 241.7 Q71.3 240.7 71.45 240.25 71.75 239.5 72.4 240.05 L72.5 241.5 72.3 242.65 72.15 243.25 Q71.5 243.6 71.35 242.75 L71.3 241.7 M88.2 259.45 L88.3 260.5 87.9 261.2 87.15 261.15 87.1 260.9 87.1 260.15 Q87.1 259.55 87.4 259.4 L88.2 259.45 M109.6 306.0 Q110.0 305.6 110.95 306.65 L110.95 307.9 110.85 308.0 110.4 308.1 Q109.65 308.1 109.45 307.5 L109.4 306.85 109.6 306.0 M73.5 312.8 L73.35 312.95 72.85 313.05 Q72.3 313.05 71.85 312.5 L71.3 311.8 71.45 311.35 Q72.2 311.2 72.95 311.8 73.55 312.25 73.55 312.6 L73.5 312.8 M69.0 282.05 L69.55 282.8 69.25 283.75 68.7 283.75 68.5 283.65 68.45 283.0 Q68.45 282.35 68.75 282.15 L69.0 282.05 M134.5 381.25 Q135.25 382.85 135.6 384.4 L133.5 379.55 134.5 381.25 M71.95 366.65 L71.95 367.9 71.85 368.0 71.4 368.1 Q70.65 368.1 70.45 367.5 L70.4 366.85 Q70.4 366.25 70.6 366.0 71.0 365.6 71.95 366.65 M292.0 237.3 L291.7 237.85 Q290.95 237.85 290.75 237.05 L290.75 235.55 Q290.8 234.85 291.5 234.9 292.2 234.9 292.2 236.15 L292.0 237.3 M273.0 264.75 Q273.0 263.9 273.65 263.55 274.3 263.25 274.3 264.35 L274.15 265.35 Q274.0 265.9 273.7 265.9 273.2 265.9 273.05 265.35 L273.0 264.75 M248.9 321.6 L248.85 322.2 248.2 322.45 248.05 322.35 248.0 321.75 Q248.0 321.2 248.25 321.0 L248.45 320.85 248.9 321.6 M270.4 317.6 L271.2 317.6 Q271.95 318.65 271.9 319.3 L271.95 319.55 Q271.9 319.75 271.6 319.75 271.35 319.75 270.75 318.55 L270.4 317.6 M282.45 301.05 Q282.45 302.35 281.95 302.35 281.45 302.35 281.25 301.8 L281.15 301.05 Q281.15 300.1 281.8 300.1 282.45 300.2 282.45 301.05 M284.5 321.6 L284.55 321.35 285.5 322.25 284.7 322.25 284.5 321.75 284.5 321.6 M216.55 237.05 L216.7 236.9 216.85 237.5 216.5 241.8 216.55 241.95 216.2 242.1 Q215.65 242.1 215.4 240.7 L215.3 239.15 215.35 237.65 Q215.6 236.95 216.55 237.05 M167.2 383.8 L166.85 383.05 Q166.85 381.9 167.55 382.65 L168.5 384.05 168.45 384.4 Q168.35 384.6 168.05 384.6 167.65 384.6 167.2 383.8 M271.85 353.65 Q271.85 354.65 271.25 354.65 270.9 354.65 270.8 354.2 L270.8 353.75 Q270.8 352.6 271.35 352.65 271.85 352.65 271.85 353.65 M250.7 360.8 Q250.7 359.75 251.1 359.95 251.5 360.2 251.5 361.2 L251.2 361.9 Q250.7 361.9 250.7 360.8" fill="#936653" fill-rule="evenodd" stroke="none"/>
    <path d="M257.3 143.35 L258.1 142.6 Q258.9 142.0 259.35 142.0 258.4 143.15 257.55 143.45 L257.3 143.35 M258.35 161.8 L258.4 162.0 258.45 162.65 258.4 163.5 257.85 163.9 Q257.3 163.0 257.3 162.7 257.3 161.45 258.35 161.8 M268.2 243.4 L268.9 247.95 268.8 248.4 268.3 248.7 Q267.8 248.7 267.35 246.15 L267.05 243.4 Q267.05 242.4 267.85 241.5 L268.3 242.9 268.2 243.4 M193.35 146.35 L194.8 144.2 Q194.4 146.0 194.2 149.45 L194.0 154.65 193.8 155.2 Q193.4 153.85 193.15 150.4 192.85 146.95 193.35 146.35 M168.15 177.1 Q168.3 176.1 168.6 175.95 L168.45 177.4 168.2 177.5 168.15 177.1 M176.55 185.95 Q176.45 185.25 176.85 185.1 177.25 184.9 177.55 182.85 L177.35 186.05 177.2 187.35 177.0 187.35 176.8 186.95 176.55 185.95 M116.45 146.15 L116.85 145.8 Q116.7 146.35 116.7 148.0 L116.45 147.9 116.45 146.15 M117.35 193.15 Q117.35 190.2 118.15 184.45 118.85 178.95 119.4 177.25 L118.55 185.5 117.6 193.4 Q117.35 194.1 117.35 193.15 M63.05 132.15 Q63.05 130.2 64.2 128.75 63.0 132.15 63.3 133.35 L63.2 133.5 Q63.05 133.35 63.05 132.15 M101.85 217.25 Q101.4 217.1 101.3 216.6 L101.3 215.0 101.55 215.0 101.65 216.05 101.85 217.15 101.85 217.25 M72.5 233.65 L73.7 238.4 74.75 243.35 74.55 243.5 Q72.6 237.1 72.35 233.65 L72.5 233.65 M69.2 287.9 L69.75 289.4 70.05 290.5 Q70.05 291.45 69.8 290.75 L69.35 289.8 Q69.0 288.95 69.0 288.45 L69.05 287.9 69.2 288.0 69.2 287.9" fill="#704635" fill-rule="evenodd" stroke="none"/>
    <path d="M155.3 126.0 L155.45 125.95 Q156.45 127.7 156.45 129.45 L155.65 128.0 155.2 126.35 155.3 126.0 M203.4 130.1 L203.35 129.75 203.45 129.3 203.6 129.25 203.85 129.9 203.6 130.15 203.4 130.1 M150.45 132.6 L150.4 132.25 150.5 132.25 150.9 132.8 150.75 133.0 150.45 132.6 M121.25 128.95 Q122.05 129.3 122.45 130.0 L122.45 130.05 121.85 129.55 121.25 128.95" fill="#9c6651" fill-rule="evenodd" stroke="none"/>
    <path d="M293.95 134.4 L293.6 135.05 293.1 135.2 Q292.95 135.6 292.95 134.8 292.95 133.0 294.0 133.05 L294.1 133.05 294.15 133.55 293.95 134.4 M267.15 135.6 L266.8 135.5 Q266.65 135.3 266.65 134.8 266.65 133.2 267.7 131.8 268.75 130.4 268.75 132.6 268.75 133.4 268.25 134.15 L267.15 135.6 M249.4 160.1 Q249.05 155.7 252.7 154.75 L252.65 155.3 249.4 160.1 M247.25 187.25 L246.0 191.1 245.8 190.95 245.75 190.35 Q245.75 189.55 246.5 186.9 247.3 183.8 248.0 183.4 247.95 185.05 247.25 187.25 M192.7 138.9 L192.6 139.2 192.2 139.35 Q191.65 139.35 191.5 138.8 L191.5 138.15 191.55 137.25 Q191.9 137.25 192.25 137.6 L192.75 138.4 192.7 138.9 M188.05 159.8 L188.05 159.95 187.8 160.05 Q187.55 160.05 186.7 157.85 L186.0 156.15 Q186.0 153.55 187.05 155.25 188.1 156.9 188.1 159.1 L188.05 159.8 M161.9 160.4 Q163.45 161.5 163.45 164.3 L163.35 164.95 163.1 165.15 161.55 163.7 Q160.35 162.45 160.35 161.55 160.35 159.3 161.9 160.4 M112.35 153.2 Q109.95 149.55 106.45 141.65 L106.65 141.55 108.45 144.75 Q110.0 147.5 110.0 148.3 L112.4 152.95 112.35 153.2 M89.85 140.3 Q89.85 141.35 89.5 141.95 L89.1 141.95 89.05 141.9 89.0 141.4 Q89.0 139.95 89.5 139.0 L89.85 139.45 89.85 140.3 M89.5 166.25 Q89.8 165.8 90.0 165.8 L89.3 167.25 89.05 167.25 89.5 166.25" fill="#9c6651" fill-rule="evenodd" stroke="none"/>
    <path d="M103.85 176.7 Q103.1 176.3 102.85 175.75 L102.55 174.5 Q103.45 174.5 103.75 175.0 L104.05 176.35 103.85 176.7" fill="#744431" fill-rule="evenodd" stroke="none"/>
    <path d="M99.6 146.05 L99.6 144.95 Q99.9 144.95 100.1 145.2 L100.5 145.7 Q100.5 146.05 99.6 146.05" fill="#744431" fill-rule="evenodd" stroke="none"/>
    <path d="M239.75 137.35 L239.15 137.4 Q239.0 137.4 239.0 137.0 L240.1 136.95 239.75 137.35" fill="#744431" fill-rule="evenodd" stroke="none"/>
    <path d="M283.0 162.8 L282.8 162.95 282.45 162.15 282.15 161.05 282.6 161.0 283.0 162.25 283.0 162.8" fill="#744431" fill-rule="evenodd" stroke="none"/>
    <path d="M79.65 158.45 L79.1 158.55 79.0 158.55 79.0 158.1 Q79.0 157.5 80.05 157.5 L79.65 158.45" fill="#744431" fill-rule="evenodd" stroke="none"/>
    <path d="M66.8 160.45 Q66.85 160.7 66.25 160.7 65.5 160.7 65.05 160.2 L64.25 159.3 Q65.15 159.3 66.8 160.25 L66.8 160.45" fill="#744431" fill-rule="evenodd" stroke="none"/>
    <path d="M219.85 133.1 L219.6 133.35 218.85 133.0 218.75 132.75 219.0 132.45 219.85 133.1" fill="#744431" fill-rule="evenodd" stroke="none"/>
    <path d="M158.35 136.3 Q157.0 136.1 157.0 135.7 L159.0 136.1 158.35 136.3" fill="#744431" fill-rule="evenodd" stroke="none"/>
    <path d="M252.25 182.6 L253.15 185.8 253.15 186.95 252.85 187.2 Q252.15 186.55 252.0 185.45 L251.9 183.5 252.0 182.6 252.25 182.6" fill="#744431" fill-rule="evenodd" stroke="none"/>
    <path d="M255.05 230.85 L255.25 231.05 255.3 231.35 Q255.35 231.5 255.0 231.5 L252.6 231.35 252.5 231.05 Q252.65 230.8 253.75 230.8 L255.05 230.85" fill="#744431" fill-rule="evenodd" stroke="none"/>
    <path d="M299.1 408.45 L56.05 408.45 56.05 408.15 299.35 408.15 299.1 408.45 M56.05 409.75 L298.15 409.75 297.9 410.1 296.85 411.65 56.05 411.65 56.05 409.75 M295.65 413.2 L295.35 413.65 56.05 413.65 56.05 413.2 295.65 413.2" fill="#6e727b" fill-rule="evenodd" stroke="none"/>
    <path d="M298.9 408.7 L56.4 408.7 56.4 409.0 298.65 409.0 298.15 409.75 56.05 409.75 56.05 408.45 299.1 408.45 298.9 408.7" fill="#9498a1" fill-rule="evenodd" stroke="none"/>
    <path d="M298.65 409.0 L56.4 409.0 56.4 408.7 298.9 408.7 298.65 409.0" fill="#e7e7e7" fill-rule="evenodd" stroke="none"/>
    <path d="M56.05 413.2 L56.05 411.65 296.85 411.65 295.65 413.2 56.05 413.2" fill="#494c54" fill-rule="evenodd" stroke="none"/>
    <path d="M295.7 117.05 L296.3 117.75 296.6 118.05 296.0 118.95 56.05 118.95 56.05 117.05 295.7 117.05 M295.1 120.5 L294.9 120.8 294.85 120.95 56.05 120.95 56.05 120.5 295.1 120.5 M56.05 115.75 L56.05 115.45 294.45 115.45 294.65 115.75 56.05 115.75 M297.25 120.5 L297.15 120.95 297.05 120.95 297.25 120.5" fill="#6e727b" fill-rule="evenodd" stroke="none"/>
    <path d="M295.7 117.05 L56.05 117.05 56.05 115.75 294.65 115.75 294.85 116.0 56.4 116.0 56.4 116.3 295.1 116.3 295.7 117.05" fill="#9498a1" fill-rule="evenodd" stroke="none"/>
    <path d="M294.85 116.0 L295.1 116.3 56.4 116.3 56.4 116.0 294.85 116.0" fill="#e7e7e7" fill-rule="evenodd" stroke="none"/>
    <path d="M56.05 118.95 L296.0 118.95 295.1 120.5 56.05 120.5 56.05 118.95" fill="#494c54" fill-rule="evenodd" stroke="none"/>
    <path d="M57.9 120.75 L57.9 120.8 58.1 120.8 49.7 129.95 49.15 130.65 49.3 130.4 49.2 130.45 49.3 130.3 49.2 130.35 48.85 130.15 48.85 130.0 48.85 129.95 48.85 129.85 48.9 129.9 57.65 120.65 57.9 120.75 M57.1 409.95 L56.4 411.45 46.25 401.4 45.7 400.85 45.6 389.65 45.65 389.7 45.8 234.15 45.8 230.7 45.8 214.6 45.9 129.0 52.2 121.95 56.65 116.95 57.8 119.15 57.2 119.15 47.4 129.4 47.5 129.5 47.4 207.1 47.35 207.1 47.3 234.15 47.25 234.15 46.9 389.55 46.95 389.5 46.8 398.9 47.0 399.45 47.15 399.6 47.3 399.7 47.75 400.1 47.95 400.3 47.5 399.95 57.1 409.95 M55.7 413.1 L55.6 413.3 55.5 413.3 44.05 401.8 43.9 390.05 44.15 389.85 43.9 389.85 44.0 230.7 44.05 130.15 44.25 128.85 44.95 127.75 56.0 115.55 56.2 115.9 54.5 117.6 47.45 125.5 45.0 128.5 44.75 128.8 44.65 128.85 44.55 214.6 44.55 230.7 44.55 234.15 44.4 389.65 44.45 389.6 44.45 401.25 44.45 401.6 44.65 401.8 50.4 407.55 50.6 407.75 55.7 413.1 M47.35 129.5 L47.35 129.6 47.45 129.55 47.35 129.5" fill="#6e727b" fill-rule="evenodd" stroke="none"/>
    <path d="M47.35 129.5 L47.45 129.55 47.35 129.6 47.35 129.5" fill="#60646b" fill-rule="evenodd" stroke="none"/>
    <path d="M48.85 130.0 L48.85 130.15 48.75 207.1 48.7 207.1 48.65 234.15 48.6 234.15 48.25 398.6 48.2 398.7 47.95 398.45 48.15 398.7 47.0 399.3 47.15 399.6 47.0 399.45 46.8 398.9 46.95 389.5 46.9 389.55 47.25 234.15 47.3 234.15 47.35 207.1 47.4 207.1 47.5 129.5 48.75 130.1 48.85 130.0" fill="#57595d" fill-rule="evenodd" stroke="none"/>
    <path d="M49.15 130.65 L49.1 207.1 49.05 207.1 49.0 234.15 48.8 389.6 48.85 389.55 48.8 398.0 58.15 407.55 57.85 408.3 57.35 407.8 56.75 407.2 50.6 401.2 48.2 398.7 48.25 398.6 48.6 234.15 48.65 234.15 48.7 207.1 48.75 207.1 48.85 130.15 49.2 130.35 49.3 130.3 49.2 130.45 49.15 130.65 M57.45 409.0 L57.1 409.95 47.5 399.95 47.95 400.3 47.75 400.1 47.3 399.7 47.15 399.6 47.0 399.3 48.15 398.7 50.6 401.65 Q53.75 405.35 57.35 408.9 L57.45 409.0 M56.4 411.45 L56.35 411.65 50.6 406.05 46.25 401.4 56.4 411.45 M56.3 116.2 L56.6 116.85 Q56.95 116.6 56.65 116.95 L52.2 121.95 45.9 129.0 45.8 214.6 45.8 230.7 45.8 234.15 45.65 389.7 45.6 389.65 45.7 400.85 45.5 400.65 45.3 397.65 45.1 391.95 45.15 390.55 44.75 397.65 44.5 401.4 50.4 407.55 44.65 401.8 44.45 401.6 44.45 401.25 44.45 389.6 44.4 389.65 44.55 234.15 44.55 230.7 44.55 214.6 44.65 128.85 44.75 128.8 45.0 128.5 45.2 128.65 53.25 119.55 56.3 116.2 M48.85 129.95 L48.85 130.0 48.75 130.1 48.85 129.95 M45.1 389.85 L45.1 389.7 45.05 389.85 45.1 389.85" fill="#9498a1" fill-rule="evenodd" stroke="none"/>
    <path d="M57.85 408.3 L57.45 409.0 57.35 408.9 Q53.75 405.35 50.6 401.65 L48.15 398.7 47.95 398.45 48.2 398.7 50.6 401.2 56.75 407.2 57.35 407.8 57.85 408.3 M56.2 115.9 L56.3 116.2 53.25 119.55 45.2 128.65 45.0 128.5 47.45 125.5 54.5 117.6 56.2 115.9" fill="#e7e7e7" fill-rule="evenodd" stroke="none"/>
    <path d="M56.35 411.65 L55.7 413.1 50.6 407.75 50.4 407.55 44.5 401.4 44.75 397.65 45.15 390.55 45.1 391.95 45.3 397.65 45.5 400.65 45.7 400.85 46.25 401.4 50.6 406.05 56.35 411.65 M57.8 119.15 L58.35 120.35 58.05 120.5 57.9 120.75 57.65 120.65 48.9 129.9 48.85 129.85 48.85 129.95 48.75 130.1 47.5 129.5 47.4 129.4 57.2 119.15 57.8 119.15 M45.1 389.85 L45.05 389.85 45.1 389.7 45.1 389.85" fill="#4d525d" fill-rule="evenodd" stroke="none"/>
    <path d="M305.35 128.25 L302.9 125.25 Q299.95 121.75 295.85 117.4 L294.15 115.7 294.35 115.35 305.4 127.5 306.1 128.6 306.3 129.9 306.05 160.3 305.7 128.6 305.6 128.55 305.35 128.25 M306.35 391.25 L306.2 402.3 294.75 413.8 294.65 413.8 294.55 413.6 299.65 408.25 299.85 408.05 305.6 402.3 305.8 402.1 305.8 401.75 305.85 390.6 306.35 390.6 306.35 391.25 M293.85 411.95 L293.15 410.45 302.75 400.45 302.3 400.8 302.5 400.6 302.95 400.2 303.1 400.1 303.25 399.95 303.45 399.4 303.4 390.45 303.55 390.4 303.35 390.4 302.85 129.25 302.95 129.15 293.15 118.95 292.55 118.95 293.7 116.75 298.15 121.7 304.45 128.75 304.5 197.4 304.45 197.4 304.6 390.4 305.15 390.4 305.2 390.4 305.15 390.6 305.15 392.5 305.15 393.8 304.55 401.35 304.0 401.9 293.85 411.95 M301.2 130.4 L300.65 129.7 292.25 120.6 292.45 120.6 292.45 120.55 292.7 120.45 301.45 129.65 301.5 129.6 301.5 129.7 301.5 129.75 301.5 129.9 301.15 130.1 301.05 130.05 301.15 130.2 301.05 130.15 301.2 130.4 M303.0 129.35 L303.0 129.25 302.9 129.3 303.0 129.35" fill="#6e727b" fill-rule="evenodd" stroke="none"/>
    <path d="M303.0 129.35 L302.9 129.3 303.0 129.25 303.0 129.35" fill="#60646b" fill-rule="evenodd" stroke="none"/>
    <path d="M301.95 390.6 L303.4 390.45 303.45 399.4 303.25 399.95 303.1 400.1 303.25 399.8 302.1 399.2 302.3 398.95 302.05 399.2 302.0 399.1 301.95 390.6 M303.35 390.4 L301.95 390.55 301.65 234.5 301.65 204.6 301.65 197.4 301.6 176.05 301.5 129.9 301.5 129.75 301.6 129.85 302.85 129.25 303.35 390.4" fill="#57595d" fill-rule="evenodd" stroke="none"/>
    <path d="M294.05 116.0 L297.1 119.35 305.15 128.4 305.35 128.25 305.6 128.55 305.7 128.6 306.05 160.3 306.05 168.8 306.4 391.3 306.35 391.25 306.35 390.6 305.85 390.6 305.8 401.75 305.8 402.1 305.6 402.3 299.85 408.05 305.75 401.9 Q305.65 401.9 305.5 398.15 L305.25 391.95 305.2 390.6 305.5 390.6 305.2 390.4 305.2 389.8 305.2 387.7 305.15 390.4 304.6 390.4 304.45 197.4 304.5 197.4 304.45 128.75 298.15 121.7 293.7 116.75 Q293.4 116.4 293.75 116.65 L294.05 116.0 M293.9 412.15 L293.85 411.95 304.0 401.9 299.65 406.55 293.9 412.15 M293.15 410.45 L292.8 409.5 292.9 409.4 299.65 402.15 302.1 399.2 303.25 399.8 303.1 400.1 302.95 400.2 302.5 400.6 302.3 400.8 302.75 400.45 293.15 410.45 M292.4 408.8 L291.9 408.2 301.45 398.5 301.45 390.6 301.95 390.6 302.0 399.1 302.05 399.2 299.65 401.7 293.5 407.7 292.9 408.3 292.4 408.8 M301.95 390.55 L301.45 390.4 301.2 130.4 301.15 130.2 301.05 130.05 301.15 130.1 301.5 129.9 301.6 176.05 301.65 197.4 301.65 204.6 301.65 234.5 301.95 390.55 M301.5 129.75 L301.5 129.7 301.6 129.85 301.5 129.75 M305.15 393.8 L304.95 398.15 304.75 401.15 304.55 401.35 305.15 393.8" fill="#9498a1" fill-rule="evenodd" stroke="none"/>
    <path d="M294.05 116.0 L294.15 115.7 295.85 117.4 Q299.95 121.75 302.9 125.25 L305.35 128.25 305.15 128.4 297.1 119.35 294.05 116.0 M292.8 409.5 L292.4 408.8 292.9 408.3 293.5 407.7 299.65 401.7 302.05 399.2 302.3 398.95 302.1 399.2 299.65 402.15 292.9 409.4 292.8 409.5" fill="#e7e7e7" fill-rule="evenodd" stroke="none"/>
    <path d="M294.55 413.6 L293.9 412.15 299.65 406.55 304.0 401.9 304.55 401.35 304.75 401.15 304.95 398.15 305.15 393.8 305.15 392.5 305.15 390.6 305.2 390.6 305.25 391.95 305.5 398.15 Q305.65 401.9 305.75 401.9 L299.85 408.05 299.65 408.25 294.55 413.6 M292.45 120.55 L292.3 120.3 292.0 120.15 292.55 118.95 293.15 118.95 302.95 129.15 302.85 129.25 301.6 129.85 301.5 129.7 301.5 129.6 301.45 129.65 292.7 120.45 292.45 120.55 M305.15 390.4 L305.2 387.7 305.2 389.8 305.2 390.4 305.15 390.4" fill="#4d525d" fill-rule="evenodd" stroke="none"/>
    <path d="M267.15 124.95 L237.3 124.95 227.55 125.85 227.15 125.9 158.2 123.8 Q145.85 125.85 136.95 123.8 L132.35 124.1 127.8 124.35 114.4 124.35 111.95 124.0 109.45 123.8 107.2 124.05 99.7 124.1 62.2 125.9 Q62.2 125.05 58.5 123.8 L58.5 118.75 296.0 118.75 296.0 126.75 294.7 126.75 Q282.85 126.75 276.1 125.4 L268.45 125.3 267.15 124.95" fill="#22252c" fill-opacity="0.2901961" fill-rule="evenodd" stroke="none"/>
    <path d="M64.3 409.15 L61.8 409.1 Q58.25 407.65 55.7 404.3 54.65 402.85 52.3 398.6 51.15 396.5 49.2 399.0 L49.3 393.45 49.45 393.2 49.8 392.4 50.65 391.7 51.65 390.95 52.2 390.05 52.95 389.2 54.55 387.65 Q54.75 387.35 55.95 386.9 57.15 386.45 57.35 386.2 L58.25 384.45 Q58.55 383.7 59.25 383.55 L60.55 384.05 62.8 384.05 63.5 384.2 64.7 384.55 65.8 384.75 Q67.65 384.75 70.25 387.7 72.35 390.1 72.95 391.75 L74.35 395.45 74.9 397.3 75.75 397.9 75.85 398.6 75.85 398.75 65.35 409.45 Q65.0 409.15 64.3 409.15" fill="#22252c" fill-opacity="0.2901961" fill-rule="evenodd" stroke="none"/>
    <path d="M60.4 411.05 Q60.25 410.5 58.6 410.3 L57.4 410.15 55.05 407.85 51.1 404.25 48.2 401.55 Q47.25 399.2 47.25 396.8 L47.4 395.15 57.45 385.05 Q69.95 384.95 71.95 399.55 L60.4 411.05" fill="#6e727b" fill-rule="evenodd" stroke="none"/>
    <path d="M60.4 411.05 Q60.25 410.5 58.6 410.3 L57.4 410.15 56.65 409.4 57.85 409.55 Q59.5 409.7 59.6 410.3 L71.2 398.8 Q70.2 391.85 66.9 388.25 70.9 391.85 71.95 399.55 L60.4 411.05 M55.05 407.85 L51.1 404.25 48.2 401.55 48.2 401.5 50.3 403.5 54.3 407.1 56.25 409.0 55.05 407.85" fill="#9498a1" fill-rule="evenodd" stroke="none"/>
    <path d="M60.65 401.15 Q58.7 401.15 57.35 399.8 55.95 398.4 55.95 396.45 55.95 394.45 57.35 393.1 58.7 391.7 60.65 391.7 62.65 391.7 64.05 393.1 65.35 394.45 65.35 396.45 65.35 398.4 64.05 399.8 62.65 401.15 60.65 401.15" fill="#4d525d" fill-rule="evenodd" stroke="none"/>
    <path d="M60.6 400.5 Q58.95 400.5 57.85 399.4 56.7 398.25 56.7 396.6 56.7 395.0 57.85 393.85 58.95 392.7 60.6 392.7 62.2 392.7 63.35 393.85 64.5 395.0 64.5 396.6 64.5 398.25 63.35 399.4 62.2 400.5 60.6 400.5" fill="#6e727b" fill-rule="evenodd" stroke="none"/>
    <path d="M60.45 399.7 Q60.0 399.25 60.2 398.45 60.35 397.6 61.05 396.9 61.8 396.15 62.65 396.0 63.45 395.8 63.9 396.25 64.35 396.7 64.15 397.5 64.0 398.35 63.25 399.1 L61.7 399.95 Q60.9 400.15 60.45 399.7" fill="#8e9095" fill-rule="evenodd" stroke="none"/>
    <path d="M71.75 401.65 Q71.0 401.95 70.25 403.05 L68.75 404.5 Q68.15 404.8 67.8 405.2 L67.2 405.95 66.7 406.7 65.8 407.4 64.5 409.1 64.35 409.3 63.35 410.3 Q55.4 410.65 62.35 410.05 L59.75 410.0 Q56.25 408.55 53.75 405.15 52.65 403.75 50.3 399.45 49.1 397.15 43.65 400.8 42.6 400.4 42.7 398.75 L43.1 398.45 44.5 397.15 45.3 396.2 46.3 395.0 49.0 392.25 51.55 389.7 51.8 389.6 53.2 388.55 Q54.0 387.4 55.3 386.4 56.4 385.55 56.7 384.6 L57.7 383.6 58.35 383.6 60.0 384.15 61.75 384.85 62.8 384.85 Q64.05 385.05 65.5 386.2 L68.0 388.15 68.8 389.05 69.25 390.0 70.1 391.0 70.95 391.95 71.85 393.85 72.65 395.7 Q73.45 397.0 73.5 397.6 L73.6 397.8 73.85 399.25 73.7 399.45 73.35 400.15 71.75 401.65" fill="#4d525d" fill-rule="evenodd" stroke="none"/>
    <path d="M58.7 413.25 L72.7 399.2 Q70.65 384.6 58.2 384.65 L42.55 399.6 Q43.5 416.0 58.7 413.25" fill="#767677" fill-rule="evenodd" stroke="none"/>
    <path d="M64.55 392.9 L65.0 393.1 67.2 394.8 66.35 394.5 Q66.25 393.95 64.45 393.05 L64.55 392.9 M64.7 391.85 L66.4 392.95 68.3 393.65 68.35 393.65 68.45 393.45 68.3 393.2 68.8 393.35 69.8 393.8 69.8 393.75 69.2 393.35 Q70.2 393.35 70.2 392.3 L70.15 391.95 70.2 391.85 70.55 391.35 Q72.5 394.5 72.5 399.1 L57.6 414.75 53.85 413.95 53.25 413.65 53.25 413.55 50.1 411.6 49.95 411.5 50.3 411.55 52.85 413.2 Q53.0 413.3 53.0 413.0 53.0 412.7 50.9 411.5 L51.1 411.4 51.65 410.8 53.5 411.3 54.1 411.1 54.35 410.85 54.65 411.0 54.85 410.8 54.65 410.6 56.55 411.65 56.6 411.55 56.6 411.4 57.3 411.65 57.5 411.65 57.65 411.45 56.55 410.6 58.1 411.45 Q58.4 411.45 58.4 411.0 58.4 410.5 54.7 408.4 L53.4 407.7 55.2 408.3 55.25 408.25 59.0 410.25 59.15 410.15 Q57.7 409.0 55.45 407.7 L55.05 407.5 Q55.1 407.45 55.25 407.35 L55.55 407.0 59.1 409.0 59.3 409.0 59.45 408.7 Q59.45 408.45 55.55 406.1 55.25 405.4 53.95 404.75 L54.2 404.6 Q54.3 404.5 54.35 404.5 L55.55 405.05 57.5 406.0 59.1 407.0 57.5 406.15 59.0 407.2 60.55 407.85 60.6 407.85 60.65 407.65 58.75 406.35 Q59.3 406.25 59.5 405.8 L60.95 406.7 61.1 406.65 61.35 406.8 61.65 406.75 61.7 406.5 60.9 405.7 61.05 405.7 61.1 405.35 Q61.1 404.7 58.7 403.5 L60.2 404.15 61.65 405.0 61.8 404.85 61.4 404.55 61.8 404.6 62.45 404.35 Q62.85 404.1 62.85 403.55 62.85 402.6 60.2 401.3 L60.45 401.3 60.75 401.35 61.0 401.3 61.1 401.25 64.2 402.8 64.5 402.6 Q64.5 402.4 60.95 400.4 L60.95 400.25 Q60.95 400.05 60.35 399.7 L59.25 399.1 59.1 399.05 58.0 398.35 58.2 398.0 58.95 398.55 60.7 399.4 62.3 400.45 Q63.45 401.15 64.05 401.15 L64.2 401.15 64.25 400.95 Q64.25 400.55 63.15 399.9 L63.5 399.95 64.15 399.8 64.7 400.1 64.95 400.0 64.45 399.6 64.6 399.25 64.7 399.15 67.2 400.2 65.65 399.3 64.9 399.05 65.1 398.7 65.7 399.0 65.8 398.95 65.15 398.5 65.15 398.4 64.9 397.85 65.15 397.85 65.15 397.65 65.8 398.05 65.85 398.0 65.9 397.85 Q65.9 397.45 63.85 396.25 L63.9 396.2 67.6 397.85 67.65 397.6 Q67.65 397.4 64.25 395.95 L64.5 395.3 64.5 395.25 65.35 395.55 66.05 395.3 66.35 394.8 66.75 395.0 68.3 395.55 68.35 395.35 67.85 395.05 66.3 393.65 66.3 393.6 68.45 394.75 68.55 394.75 67.6 394.1 67.65 394.1 Q66.6 393.0 64.75 392.0 L64.55 391.85 64.4 391.65 65.65 392.05 67.6 393.2 66.2 392.6 64.8 391.85 64.7 391.85 M66.4 396.15 Q66.6 396.45 67.35 396.85 L68.45 397.4 68.55 397.25 Q67.9 396.75 66.5 396.15 L66.4 396.15 M64.5 401.35 L65.45 401.7 65.45 401.6 64.5 401.3 64.5 401.35 M59.95 396.15 L60.0 396.0 60.2 396.15 59.95 396.15 M59.15 394.75 L61.3 395.55 62.6 396.2 63.6 396.9 Q61.2 395.9 59.85 395.45 L59.15 394.75 M51.25 391.8 L51.0 391.7 51.0 391.65 51.25 391.8 M53.0 406.95 L53.35 407.05 53.45 407.05 54.45 407.75 52.55 407.0 52.75 406.95 53.0 406.95 M57.5 402.9 L55.85 402.25 55.9 402.1 55.95 402.15 57.95 403.15 57.5 402.9 M53.3 408.55 L53.25 408.6 54.35 409.45 51.75 408.3 51.75 407.9 53.25 408.5 53.3 408.55 M47.4 410.45 L47.05 410.15 47.5 410.35 47.4 410.45" fill="#5c5c64" fill-rule="evenodd" stroke="none"/>
    <path d="M61.0 391.25 Q63.2 391.85 64.3 393.75 L64.45 393.9 64.45 394.05 64.55 396.2 Q64.6 397.45 64.3 398.5 64.2 399.05 63.5 399.7 L62.4 400.75 61.85 401.4 61.75 401.5 60.85 401.85 58.25 401.7 58.2 401.7 57.85 401.5 57.35 401.2 Q56.8 401.05 56.3 400.75 55.5 400.15 54.95 399.15 L54.6 398.55 54.55 398.4 54.2 396.7 54.35 395.25 54.95 393.9 Q55.2 393.4 56.2 392.75 57.05 391.95 57.8 391.75 L58.85 391.4 59.55 391.1 61.0 391.25" fill="#41444d" fill-rule="evenodd" stroke="none"/>
    <path d="M60.6 392.15 Q62.4 392.6 63.3 394.2 64.25 395.8 63.75 397.6 63.25 399.45 61.7 400.3 60.1 401.25 58.3 400.8 56.5 400.3 55.6 398.65 54.65 397.15 55.15 395.3 55.65 393.5 57.2 392.55 58.8 391.65 60.6 392.15" fill="#6e727b" fill-rule="evenodd" stroke="none"/>
    <path d="M56.25 397.4 Q56.6 398.1 57.5 398.55 57.6 398.15 57.8 398.25 L58.05 398.5 Q58.05 398.1 58.35 398.15 L58.5 398.2 58.65 397.9 Q58.85 398.4 59.25 398.25 L59.6 398.0 59.8 398.0 Q60.3 397.95 60.45 397.4 L60.4 396.5 60.5 396.5 Q60.5 397.3 61.05 397.2 L61.1 397.25 61.2 396.95 Q61.35 396.8 61.7 396.95 L61.85 396.75 61.7 396.2 61.8 396.05 62.1 396.1 62.3 394.8 61.7 393.85 61.1 392.85 Q61.15 392.65 61.35 392.7 L61.5 392.9 61.8 393.15 61.75 393.05 62.0 393.0 62.5 393.6 63.0 394.2 62.95 393.85 63.0 393.75 63.2 393.7 Q63.65 393.85 63.7 395.45 L63.7 396.4 63.55 397.1 63.35 397.8 63.15 398.45 61.7 399.8 Q60.7 400.4 59.7 400.4 L59.3 400.35 59.05 400.45 58.7 400.2 58.35 400.3 Q58.15 400.4 57.3 399.8 L56.35 398.7 55.6 396.8 55.7 396.65 55.8 396.65 56.25 397.4 M62.2 396.85 L62.25 396.8 62.2 396.75 62.15 396.7 62.2 396.85 M62.65 395.4 L62.55 395.25 62.6 395.5 62.65 395.4" fill="#60646d" fill-rule="evenodd" stroke="none"/>
    <path d="M46.35 396.15 L46.4 396.55 46.35 396.95 46.35 398.8 46.35 398.9 47.05 398.7 47.0 398.65 Q46.4 398.1 46.75 397.7 46.95 397.35 47.35 397.35 L47.65 397.45 Q47.6 397.3 47.7 397.15 47.95 396.65 48.45 396.65 L48.75 396.7 48.7 396.45 Q48.7 395.7 49.4 395.7 L49.65 395.7 Q49.25 395.4 49.35 395.0 49.5 394.5 50.0 394.5 L50.85 394.6 Q50.1 394.35 50.4 393.85 50.7 393.3 51.1 393.3 L53.1 393.65 53.4 393.35 52.4 393.15 Q51.7 392.8 51.85 392.25 51.95 391.75 52.5 391.75 L54.6 392.15 55.05 391.7 54.05 391.15 Q54.05 390.6 54.35 390.45 L54.9 390.35 55.55 390.5 55.5 390.45 Q55.45 390.1 55.75 389.95 55.45 389.75 55.65 389.4 56.1 388.7 57.5 388.7 L57.95 388.75 58.35 388.3 Q57.7 388.0 57.75 387.65 57.85 387.3 58.4 387.25 L58.4 387.15 Q58.4 386.8 58.65 386.6 L59.05 386.4 60.05 386.6 60.3 386.3 61.5 386.5 Q61.75 386.15 62.35 386.15 63.6 386.15 66.35 387.05 L67.3 387.35 Q63.85 384.95 58.1 384.15 L46.35 396.15" fill="#9a9a9f" fill-rule="evenodd" stroke="none"/>
    <path d="M57.3 392.65 L59.25 392.4 Q60.05 392.65 59.95 393.05 L59.3 393.7 57.55 394.05 56.7 395.35 56.0 396.15 Q55.6 396.05 55.55 395.1 L55.7 394.25 Q56.0 393.2 57.3 392.65" fill="#999da6" fill-rule="evenodd" stroke="none"/>
    <path d="M48.2 394.05 L48.4 393.95 48.6 394.05 48.65 394.3 48.4 394.5 Q48.15 394.55 48.15 394.25 L48.2 394.05" fill="#767677" fill-rule="evenodd" stroke="none"/>
    <path d="M60.65 384.9 L60.65 384.85 59.7 384.6 60.65 384.9 M64.85 386.8 L64.55 386.65 64.45 386.7 64.85 386.8 M47.3 397.45 L47.5 397.55 47.5 397.5 47.3 397.45 M46.25 397.1 L46.15 397.05 46.15 397.1 46.25 397.1 M46.15 398.95 L46.2 399.05 46.9 398.9 46.85 398.85 Q46.45 398.5 46.45 398.15 L46.15 398.1 46.15 398.95 M46.65 395.85 L46.9 395.9 Q46.9 395.6 47.25 395.3 L47.6 395.05 47.55 394.95 46.65 395.85 M48.1 394.4 L48.1 394.35 48.1 394.4 M48.55 393.9 L49.1 394.05 49.05 393.95 Q48.7 393.5 49.45 393.5 L49.45 393.15 Q49.6 393.0 49.85 393.0 L49.95 393.0 Q49.85 392.75 50.0 392.6 50.15 392.4 50.4 392.4 L50.5 392.4 50.55 392.1 51.15 391.85 51.65 391.9 51.75 391.7 Q52.05 391.45 52.4 391.4 L52.3 391.25 Q52.15 391.0 52.4 390.9 L52.25 390.55 Q52.3 390.2 52.75 390.2 L52.8 390.2 52.95 390.05 Q53.15 389.8 53.5 389.75 L53.45 389.65 Q53.35 389.25 53.85 389.25 L54.8 389.35 54.85 389.25 54.95 389.1 Q54.75 388.9 54.9 388.65 L55.3 388.4 55.45 388.45 Q55.35 388.25 55.5 388.15 L55.6 388.1 55.65 387.85 Q55.85 387.3 56.25 387.15 56.05 386.9 56.2 386.75 L56.55 386.55 56.5 386.3 Q56.65 386.0 56.95 386.0 L57.6 386.15 57.55 385.7 Q57.7 385.55 57.95 385.55 L58.2 385.6 58.2 385.4 58.5 385.05 Q58.55 384.85 58.75 384.8 58.65 384.55 59.1 384.5 L57.95 384.3 48.55 393.9" fill="#cbcbcb" fill-rule="evenodd" stroke="none"/>
    <path d="M59.2 393.4 L59.15 393.35 57.45 393.7 57.3 393.8 57.25 393.85 56.4 395.2 56.05 395.8 55.85 395.1 56.0 394.35 Q56.25 393.45 57.4 393.0 58.35 392.5 59.1 392.7 L59.55 392.95 59.2 393.4" fill="#cbcbcb" fill-rule="evenodd" stroke="none"/>
    <path d="M276.45 135.35 L275.6 134.75 275.5 134.05 275.5 133.9 286.0 123.2 287.05 123.5 289.55 123.55 Q293.1 125.0 295.65 128.35 L299.05 134.05 Q300.2 136.15 302.15 133.65 L302.05 139.2 301.9 139.45 301.55 140.25 300.7 140.95 299.7 141.7 299.15 142.6 298.4 143.45 Q297.6 143.9 296.8 145.0 L295.4 145.75 Q294.2 146.2 294.0 146.45 293.5 147.0 293.1 148.2 292.8 148.95 292.1 149.1 L290.8 148.6 288.55 148.6 Q288.3 148.2 287.85 148.45 L286.65 148.1 285.55 147.9 Q283.7 147.9 281.1 144.95 279.0 142.55 278.4 140.9 L277.0 137.2 276.45 135.35" fill="#22252c" fill-opacity="0.2901961" fill-rule="evenodd" stroke="none"/>
    <path d="M288.7 118.7 Q288.85 119.25 290.5 119.45 L291.7 119.6 294.05 121.9 298.0 125.5 300.9 128.2 Q301.85 130.55 301.85 132.95 L301.7 134.6 291.65 144.7 Q279.15 144.8 277.15 130.2 L288.7 118.7" fill="#6e727b" fill-rule="evenodd" stroke="none"/>
    <path d="M288.7 118.7 Q288.85 119.25 290.5 119.45 L291.7 119.6 292.45 120.35 291.25 120.2 Q289.6 120.05 289.5 119.45 L277.9 130.95 Q278.9 137.9 282.2 141.5 278.2 137.9 277.15 130.2 L288.7 118.7 M292.85 120.75 L294.05 121.9 298.0 125.5 300.9 128.2 300.9 128.25 298.8 126.25 294.8 122.65 292.85 120.75" fill="#9498a1" fill-rule="evenodd" stroke="none"/>
    <path d="M288.65 128.75 Q290.6 128.75 291.95 130.1 293.35 131.5 293.35 133.45 293.35 135.45 291.95 136.8 290.6 138.2 288.65 138.2 286.65 138.2 285.25 136.8 283.95 135.45 283.95 133.45 283.95 131.5 285.25 130.1 286.65 128.75 288.65 128.75" fill="#4d525d" fill-rule="evenodd" stroke="none"/>
    <path d="M288.3 129.5 Q289.95 129.5 291.05 130.6 292.2 131.75 292.2 133.4 292.2 135.0 291.05 136.15 289.95 137.3 288.3 137.3 286.7 137.3 285.55 136.15 284.4 135.0 284.4 133.4 284.4 131.75 285.55 130.6 286.7 129.5 288.3 129.5" fill="#6e727b" fill-rule="evenodd" stroke="none"/>
    <path d="M288.65 130.1 Q289.1 130.55 288.9 131.35 288.75 132.2 288.05 132.9 L286.45 133.8 Q285.65 134.0 285.2 133.55 284.75 133.1 284.95 132.3 285.1 131.45 285.85 130.7 286.55 130.0 287.4 129.85 288.2 129.65 288.65 130.1" fill="#8e9095" fill-rule="evenodd" stroke="none"/>
    <path d="M277.3 128.45 Q278.05 128.15 278.8 127.05 279.6 125.95 280.3 125.6 L281.25 124.9 281.85 124.15 282.35 123.4 283.25 122.7 284.55 121.0 284.7 120.8 285.7 119.8 Q293.65 119.45 286.7 120.05 L289.3 120.1 Q292.8 121.55 295.3 124.95 296.4 126.35 298.75 130.65 299.95 132.95 305.4 129.3 306.45 129.7 306.35 131.35 L305.95 131.65 304.55 132.95 303.75 133.9 302.75 135.1 300.05 137.85 297.5 140.4 297.25 140.5 295.85 141.55 293.75 143.7 Q292.65 144.55 292.35 145.5 L291.35 146.5 290.7 146.5 289.05 145.95 287.3 145.25 286.25 145.25 Q285.0 145.05 283.55 143.9 L281.05 141.95 Q280.5 141.65 280.25 141.05 L279.8 140.1 278.95 139.1 278.1 138.15 277.2 136.25 276.4 134.4 Q275.6 133.1 275.55 132.5 L275.45 132.3 275.2 130.85 275.35 130.65 275.7 129.95 277.3 128.45" fill="#4d525d" fill-rule="evenodd" stroke="none"/>
    <path d="M290.2 116.7 L276.2 130.75 Q278.25 145.35 290.7 145.3 L306.35 130.35 Q305.4 113.95 290.2 116.7" fill="#767677" fill-rule="evenodd" stroke="none"/>
    <path d="M288.95 141.35 L289.05 141.25 288.5 140.15 287.85 139.2 287.85 139.25 Q288.4 140.7 288.95 141.35 M284.6 137.35 L284.7 137.25 Q285.65 139.05 286.15 139.15 L286.45 139.95 Q285.95 139.75 284.75 137.85 L284.6 137.35 M293.4 138.25 L293.05 137.3 293.0 137.3 293.25 138.25 293.4 138.25 M288.55 136.4 L287.9 135.4 287.25 134.15 286.4 131.95 287.1 132.65 288.55 136.4 M287.65 132.8 L287.85 132.75 287.8 133.0 287.65 132.8 M299.4 127.25 L298.7 126.25 298.7 126.15 298.6 125.8 298.6 125.55 298.65 125.4 299.4 127.25 M296.25 127.0 L296.45 126.75 Q297.1 128.05 297.75 128.35 300.1 132.25 300.4 132.25 L300.65 132.1 300.7 131.95 298.65 128.35 299.0 128.05 299.15 127.85 299.4 128.3 Q300.65 130.5 301.8 131.95 L301.95 131.8 299.9 128.05 300.0 128.0 299.4 126.2 300.1 127.5 Q302.15 131.25 302.65 131.25 L303.1 130.9 302.3 129.3 303.1 130.45 303.35 130.3 303.35 130.1 303.05 129.4 303.2 129.45 303.35 129.35 302.2 127.4 302.45 127.65 302.65 127.45 302.5 127.2 302.75 126.95 303.0 126.3 302.45 124.4 303.05 123.9 303.15 123.7 Q304.35 125.8 304.65 125.8 L304.85 125.65 303.2 123.05 303.2 122.75 303.25 122.9 305.25 126.05 305.3 126.0 305.6 126.65 306.4 130.4 290.75 145.3 Q278.7 145.35 276.4 131.7 L277.1 134.15 Q279.4 140.85 281.05 140.85 281.55 140.85 281.9 140.5 L282.15 139.8 282.0 139.45 282.75 140.05 Q283.25 140.05 283.55 139.65 L283.65 139.5 284.0 140.2 283.8 140.1 Q282.55 139.85 282.55 141.05 282.55 141.4 282.9 142.1 283.3 143.0 284.0 143.0 285.0 143.0 285.0 142.0 L285.4 142.6 285.45 142.6 285.0 141.6 284.9 141.1 285.15 141.25 285.35 141.2 285.35 141.05 Q285.25 140.3 284.6 139.2 L283.55 137.5 283.55 137.6 284.3 139.0 284.85 140.4 283.7 138.45 283.3 137.2 283.55 137.35 283.65 137.55 285.75 140.5 285.8 140.4 286.4 141.35 286.4 141.25 285.3 139.1 286.75 140.65 287.0 141.2 287.25 141.05 286.65 139.55 286.45 139.15 286.95 138.8 287.25 138.15 286.9 137.3 286.95 137.3 287.65 137.05 Q289.05 140.5 289.3 140.5 L289.5 140.35 287.9 136.7 287.95 136.6 Q289.1 138.7 289.5 138.7 L289.7 138.7 289.75 138.6 289.35 138.0 289.5 137.95 289.5 137.7 290.05 137.95 290.2 137.95 290.6 138.6 290.65 138.5 290.35 137.9 290.7 137.7 291.0 138.4 291.85 139.95 290.85 137.55 290.9 137.4 291.3 137.25 291.65 137.7 291.75 137.5 291.5 136.95 291.6 136.3 291.6 136.0 Q292.25 137.05 292.6 137.05 L292.85 137.0 292.85 136.85 Q292.85 136.25 292.1 135.1 L291.05 133.5 290.2 131.75 289.7 131.0 290.0 130.8 290.7 131.95 290.75 132.05 291.35 133.15 291.95 133.8 292.05 133.8 294.25 137.3 294.5 137.0 292.9 133.9 292.95 133.8 293.05 133.55 292.95 133.2 293.0 133.05 Q294.25 135.65 295.2 135.65 295.75 135.65 296.05 135.25 L296.25 134.6 296.2 134.2 296.5 134.6 296.7 134.45 295.8 133.0 295.15 131.5 Q296.35 133.9 297.05 133.9 L297.35 133.85 297.4 133.7 Q297.95 134.5 298.15 134.5 L298.4 134.45 298.45 134.2 298.3 133.9 298.35 133.75 297.45 132.25 Q297.9 132.1 298.0 131.55 L299.35 133.45 299.5 133.4 299.5 133.35 298.85 131.8 297.85 130.3 298.7 131.85 297.65 130.3 296.75 128.35 296.15 127.15 296.25 127.0 M299.55 124.55 L299.95 124.55 301.15 127.1 300.25 126.05 300.2 126.1 300.15 126.05 299.55 124.55 M302.1 120.2 L302.05 120.3 301.8 119.85 302.1 120.2 M283.35 123.8 L283.45 124.05 283.3 123.85 283.35 123.8 M293.8 128.75 L293.8 128.7 293.9 128.65 294.6 130.3 294.8 130.7 293.8 128.75" fill="#5c5c64" fill-rule="evenodd" stroke="none"/>
    <path d="M289.15 127.8 Q291.4 127.8 293.0 129.35 L293.1 129.45 293.15 129.65 293.8 131.65 Q294.2 132.9 294.2 134.0 294.2 134.55 293.7 135.3 L292.9 136.6 292.55 137.35 292.5 137.5 291.7 138.05 Q290.55 138.6 289.2 138.6 L289.15 138.6 288.7 138.5 288.15 138.35 287.05 138.2 Q286.1 137.8 285.3 137.0 L284.85 136.5 284.75 136.4 283.95 134.85 283.75 133.4 283.95 131.95 Q284.1 131.35 284.85 130.5 285.45 129.5 286.15 129.1 L287.05 128.5 287.7 128.0 289.15 127.8" fill="#41444d" fill-rule="evenodd" stroke="none"/>
    <path d="M288.85 128.55 Q290.7 128.55 291.95 129.85 293.3 131.15 293.3 133.0 293.3 134.9 291.95 136.15 290.7 137.45 288.85 137.45 286.95 137.45 285.65 136.15 284.35 134.9 284.35 133.0 284.35 131.15 285.65 129.85 286.95 128.55 288.85 128.55" fill="#6e727b" fill-rule="evenodd" stroke="none"/>
    <path d="M286.25 134.85 Q286.8 135.5 287.8 135.65 L288.0 135.25 288.3 135.45 Q288.2 135.0 288.5 135.0 L288.65 135.05 288.7 134.7 Q289.05 135.15 289.4 134.9 L289.65 134.55 289.85 134.5 Q290.3 134.3 290.3 133.75 L290.05 132.9 290.15 132.85 Q290.35 133.65 290.85 133.45 L290.9 133.4 290.95 133.1 291.45 133.05 291.5 132.8 291.25 132.25 291.3 132.1 291.6 132.1 291.45 130.8 290.6 130.0 289.75 129.2 290.0 129.0 290.2 129.15 290.55 129.3 290.5 129.25 290.7 129.1 291.35 129.55 291.95 130.0 291.85 129.7 291.9 129.55 292.0 129.5 Q292.45 129.5 292.95 131.05 L293.25 131.95 293.25 132.65 293.25 133.35 293.25 134.05 Q293.0 134.95 292.15 135.75 291.35 136.6 290.4 136.85 L290.0 136.9 289.75 137.05 289.4 136.9 Q289.2 136.9 289.1 137.1 L287.9 136.9 286.7 136.05 285.5 134.4 285.55 134.25 285.7 134.2 286.25 134.85 M291.9 132.75 L291.9 132.7 291.9 132.65 291.85 132.65 291.9 132.75 M291.9 131.35 L291.9 131.25 291.85 131.15 291.9 131.35" fill="#60646d" fill-rule="evenodd" stroke="none"/>
    <path d="M288.75 119.0 L289.15 118.95 291.0 118.95 291.1 118.95 Q290.9 119.1 290.9 119.65 L290.85 119.6 Q290.3 119.0 289.9 119.35 289.55 119.55 289.55 119.95 L289.65 120.25 289.35 120.3 Q288.85 120.55 288.85 121.05 L288.9 121.35 288.65 121.3 Q287.9 121.3 287.9 122.0 L287.9 122.25 Q287.6 121.85 287.2 121.95 286.7 122.1 286.7 122.6 L286.8 123.45 Q286.55 122.7 286.05 123.0 285.5 123.3 285.5 123.7 L285.85 125.7 285.55 126.0 285.35 125.0 Q285.0 124.3 284.45 124.45 283.95 124.55 283.95 125.1 L284.35 127.2 283.9 127.65 283.35 126.65 Q282.8 126.65 282.65 126.95 L282.55 127.5 282.7 128.15 282.65 128.1 Q282.3 128.05 282.15 128.35 281.95 128.05 281.6 128.25 280.9 128.7 280.9 130.1 L280.95 130.55 280.5 130.95 Q280.2 130.3 279.85 130.35 279.5 130.45 279.45 131.0 L279.35 131.0 Q279.0 131.0 278.8 131.25 L278.6 131.65 278.8 132.65 278.5 132.9 278.7 134.1 Q278.35 134.35 278.35 134.95 278.35 136.2 279.25 138.95 L279.55 139.9 Q277.15 136.45 276.35 130.7 L288.35 118.95 288.75 119.0" fill="#9a9a9f" fill-rule="evenodd" stroke="none"/>
    <path d="M286.1 130.0 Q287.05 129.25 287.9 129.25 288.75 129.25 288.75 129.7 288.75 130.2 288.35 130.45 L286.75 131.25 286.25 132.75 285.8 133.7 Q285.35 133.7 285.05 132.8 L285.0 131.95 Q285.0 130.85 286.1 130.0" fill="#999da6" fill-rule="evenodd" stroke="none"/>
    <path d="M300.65 135.9 L300.45 136.0 300.25 135.9 300.2 135.65 300.45 135.45 300.7 135.7 300.65 135.9" fill="#767677" fill-rule="evenodd" stroke="none"/>
    <path d="M277.0 133.4 L276.95 133.4 276.7 132.45 277.0 133.4 M278.8 137.2 L278.9 137.6 278.75 137.3 278.8 137.2 M289.6 120.25 L289.55 120.05 289.65 120.25 289.6 120.25 M289.2 118.9 L289.2 119.0 289.15 118.9 289.2 118.9 M291.05 118.9 L291.15 118.95 Q291.0 119.1 291.0 119.65 L290.95 119.6 Q290.6 119.2 290.25 119.2 L290.2 118.9 291.05 118.9 M286.45 120.85 L286.5 120.85 286.45 120.85 M287.4 120.0 L287.15 120.35 287.05 120.3 287.95 119.4 288.0 119.65 Q287.7 119.65 287.4 120.0 M286.15 121.85 L286.05 121.8 Q285.6 121.45 285.6 122.2 L285.25 122.2 285.1 122.6 285.1 122.7 284.7 122.75 284.5 123.15 284.5 123.25 284.2 123.3 Q283.95 123.5 283.95 123.9 L284.0 124.4 283.8 124.5 283.5 125.15 283.35 125.05 Q283.1 124.9 283.0 125.15 L282.65 125.0 Q282.3 125.05 282.3 125.5 L282.3 125.55 282.15 125.7 281.85 126.25 281.75 126.2 Q281.35 126.1 281.35 126.6 L281.45 127.55 281.35 127.6 281.2 127.7 280.75 127.65 Q280.5 127.75 280.5 128.05 L280.55 128.2 280.25 128.25 280.2 128.35 279.95 128.4 279.25 129.0 278.85 128.95 278.65 129.3 278.4 129.25 Q278.1 129.4 278.1 129.7 L278.25 130.35 277.8 130.3 Q277.65 130.45 277.65 130.7 L277.7 130.95 277.5 130.95 277.15 131.25 Q276.95 131.3 276.9 131.5 276.65 131.4 276.6 131.85 L276.4 130.7 286.0 121.3 286.15 121.85" fill="#cbcbcb" fill-rule="evenodd" stroke="none"/>
    <path d="M287.85 130.2 L287.8 130.2 286.25 130.95 286.15 131.05 286.05 131.15 285.6 132.65 Q285.35 133.3 285.45 133.35 285.2 133.3 285.05 132.7 L285.0 131.95 Q285.0 131.0 285.95 130.25 286.8 129.55 287.55 129.55 288.05 129.55 288.1 129.7 L287.85 130.2" fill="#cbcbcb" fill-rule="evenodd" stroke="none"/>
    <path d="M74.5 135.35 Q74.95 134.8 75.35 134.75 L75.45 134.05 75.45 133.9 64.95 123.2 63.9 123.5 61.4 123.55 Q57.85 125.0 55.3 128.35 54.25 129.8 51.9 134.05 50.75 136.15 48.8 133.65 L48.9 139.2 49.05 139.45 49.4 140.25 50.25 140.95 51.25 141.7 51.8 142.6 52.55 143.45 Q53.35 143.9 54.15 145.0 L55.55 145.75 56.95 146.45 57.85 148.2 Q58.15 148.95 58.85 149.1 L60.15 148.6 62.4 148.6 Q62.65 148.2 63.1 148.45 L64.3 148.1 65.4 147.9 Q67.25 147.9 69.85 144.95 71.95 142.55 72.55 140.9 L73.95 137.2 74.5 135.35" fill="#22252c" fill-opacity="0.2901961" fill-rule="evenodd" stroke="none"/>
    <path d="M62.05 118.7 Q61.9 119.25 60.25 119.45 L59.05 119.6 56.7 121.9 52.75 125.5 49.85 128.2 Q48.9 130.55 48.9 132.95 L49.05 134.6 59.1 144.7 Q71.6 144.8 73.6 130.2 L62.05 118.7" fill="#6e727b" fill-rule="evenodd" stroke="none"/>
    <path d="M62.05 118.7 Q61.9 119.25 60.25 119.45 L59.05 119.6 58.3 120.35 59.5 120.2 Q61.15 120.05 61.25 119.45 L72.85 130.95 Q71.85 137.9 68.55 141.5 72.55 137.9 73.6 130.2 L62.05 118.7 M56.7 121.9 L52.75 125.5 49.85 128.2 49.85 128.25 51.95 126.25 55.95 122.65 57.9 120.75 56.7 121.9" fill="#9498a1" fill-rule="evenodd" stroke="none"/>
    <path d="M59.1 130.1 Q57.7 131.5 57.7 133.45 57.7 135.45 59.1 136.8 60.45 138.2 62.4 138.2 64.4 138.2 65.8 136.8 67.1 135.45 67.1 133.45 67.1 131.5 65.8 130.1 64.4 128.75 62.4 128.75 60.45 128.75 59.1 130.1" fill="#4d525d" fill-rule="evenodd" stroke="none"/>
    <path d="M59.75 130.6 Q58.6 131.75 58.6 133.4 58.6 135.0 59.75 136.15 60.85 137.3 62.5 137.3 64.1 137.3 65.25 136.15 66.4 135.0 66.4 133.4 66.4 131.75 65.25 130.6 64.1 129.5 62.5 129.5 60.85 129.5 59.75 130.6" fill="#6e727b" fill-rule="evenodd" stroke="none"/>
    <path d="M62.05 131.35 Q62.2 132.2 62.9 132.9 63.65 133.65 64.5 133.8 65.3 134.0 65.75 133.55 66.2 133.1 66.0 132.3 65.85 131.45 65.1 130.7 64.4 130.0 63.55 129.85 62.75 129.65 62.3 130.1 61.85 130.55 62.05 131.35" fill="#8e9095" fill-rule="evenodd" stroke="none"/>
    <path d="M72.95 128.8 Q72.2 128.5 71.45 127.4 70.65 126.3 69.95 125.95 L69.0 125.25 68.4 124.5 67.9 123.75 67.0 123.05 65.7 121.35 65.55 121.15 64.55 120.15 Q56.6 119.8 63.55 120.4 L60.95 120.45 Q57.45 121.9 54.95 125.3 53.85 126.7 51.5 131.0 50.3 133.3 44.85 129.65 43.8 130.05 43.9 131.7 L44.3 132.0 45.7 133.3 46.5 134.25 47.5 135.45 50.2 138.2 52.75 140.75 53.0 140.85 54.4 141.9 Q55.2 143.05 56.5 144.05 57.6 144.9 57.9 145.85 L58.9 146.85 59.55 146.85 61.2 146.3 Q62.55 145.7 62.95 145.6 L64.0 145.6 Q65.25 145.4 66.7 144.25 L69.2 142.3 70.0 141.4 Q70.25 140.75 70.45 140.45 70.6 140.1 71.3 139.45 L72.15 138.5 73.05 136.6 73.85 134.75 74.7 132.85 74.8 132.65 75.05 131.2 74.9 131.0 74.55 130.3 72.95 128.8" fill="#4d525d" fill-rule="evenodd" stroke="none"/>
    <path d="M60.35 116.7 L74.35 130.75 Q72.3 145.35 59.85 145.3 L44.2 130.35 Q45.15 113.95 60.35 116.7" fill="#767677" fill-rule="evenodd" stroke="none"/>
    <path d="M62.85 139.25 L61.75 141.35 61.65 141.25 62.2 140.15 62.85 139.2 62.85 139.25 M65.95 137.85 L66.1 137.35 66.0 137.25 Q65.05 139.05 64.55 139.15 L64.25 139.95 Q64.75 139.75 65.95 137.85 M57.65 137.3 L57.7 137.3 57.45 138.25 57.3 138.25 57.65 137.3 M62.15 136.4 L62.8 135.4 63.45 134.15 64.3 131.95 63.6 132.65 62.15 136.4 M62.85 132.75 L62.9 133.0 63.05 132.8 62.85 132.75 M51.3 127.25 L52.0 126.25 52.0 126.15 52.1 125.8 52.1 125.55 52.05 125.4 51.3 127.25 M53.95 128.35 L54.55 127.15 54.45 127.0 54.25 126.75 Q53.6 128.05 52.95 128.35 50.6 132.25 50.3 132.25 50.05 132.25 50.05 132.1 L50.0 131.95 52.05 128.35 51.7 128.05 51.55 127.85 51.3 128.3 48.9 131.95 48.75 131.8 50.8 128.05 50.7 128.0 51.3 126.2 50.6 127.5 Q48.55 131.25 48.05 131.25 47.6 131.25 47.6 130.9 L48.4 129.3 47.6 130.45 47.35 130.3 47.35 130.1 47.65 129.4 47.5 129.45 47.35 129.35 48.5 127.4 48.25 127.65 48.05 127.45 48.2 127.2 47.95 126.95 47.7 126.3 Q47.7 126.1 48.25 124.4 L47.65 123.9 47.55 123.7 Q46.35 125.8 46.05 125.8 L45.85 125.65 47.5 123.05 47.5 122.75 47.45 122.9 45.45 126.05 45.4 126.0 45.1 126.65 Q44.55 128.35 44.3 130.4 L59.95 145.3 Q72.0 145.35 74.3 131.7 L73.6 134.15 Q71.3 140.85 69.65 140.85 69.15 140.85 68.8 140.5 L68.55 139.8 68.7 139.45 67.95 140.05 Q67.45 140.05 67.15 139.65 L67.05 139.5 66.7 140.2 66.9 140.1 Q68.15 139.85 68.15 141.05 L67.8 142.1 Q67.4 143.0 66.7 143.0 65.7 143.0 65.7 142.0 L65.3 142.6 65.25 142.6 65.7 141.6 65.8 141.1 65.55 141.25 65.35 141.2 65.35 141.05 Q65.45 140.3 66.1 139.2 L67.15 137.5 67.15 137.6 66.4 139.0 65.85 140.4 67.0 138.45 67.4 137.2 67.15 137.35 67.05 137.55 64.95 140.5 64.9 140.4 64.3 141.35 64.3 141.25 65.4 139.1 63.95 140.65 63.7 141.2 63.45 141.05 64.05 139.55 64.25 139.15 63.75 138.8 Q63.45 138.55 63.45 138.15 L63.8 137.3 63.75 137.3 63.05 137.05 61.4 140.5 61.2 140.35 62.8 136.7 62.75 136.6 Q61.6 138.7 61.2 138.7 L61.0 138.7 60.95 138.6 61.35 138.0 61.2 137.95 61.2 137.7 60.65 137.95 60.5 137.95 60.1 138.6 60.05 138.5 60.35 137.9 60.0 137.7 59.7 138.4 58.85 139.95 59.85 137.55 59.8 137.4 59.4 137.25 59.05 137.7 58.95 137.5 59.2 136.95 59.1 136.3 59.1 136.0 58.1 137.05 57.85 137.0 57.85 136.85 Q57.85 136.25 58.6 135.1 L59.65 133.5 60.5 131.75 61.0 131.0 60.7 130.8 60.0 131.95 59.95 132.05 59.35 133.15 58.75 133.8 58.65 133.8 56.45 137.3 56.2 137.0 57.8 133.9 57.75 133.8 57.65 133.55 57.75 133.2 57.7 133.05 Q56.45 135.65 55.5 135.65 54.95 135.65 54.65 135.25 L54.45 134.6 54.5 134.2 54.2 134.6 54.0 134.45 54.9 133.0 55.55 131.5 Q54.35 133.9 53.65 133.9 L53.35 133.85 53.3 133.7 52.55 134.5 52.3 134.45 52.25 134.2 52.4 133.9 52.35 133.75 53.25 132.25 Q52.8 132.1 52.7 131.55 L51.35 133.45 51.2 133.4 51.2 133.35 51.85 131.8 52.85 130.3 52.0 131.85 53.05 130.3 53.95 128.35 M51.15 124.55 L50.75 124.55 49.55 127.1 50.45 126.05 50.5 126.1 50.55 126.05 51.15 124.55 M48.6 120.2 L48.65 120.3 48.9 119.85 48.6 120.2 M67.4 123.85 L67.35 123.8 67.25 124.05 67.4 123.85 M56.9 128.75 L56.9 128.7 56.8 128.65 56.1 130.3 55.9 130.7 56.9 128.75" fill="#5c5c64" fill-rule="evenodd" stroke="none"/>
    <path d="M63.15 128.0 L61.7 127.8 Q59.45 127.8 57.85 129.35 L57.75 129.45 57.7 129.65 57.05 131.65 Q56.65 132.9 56.65 134.0 56.65 134.55 57.15 135.3 L57.95 136.6 58.3 137.35 58.35 137.5 59.15 138.05 61.65 138.6 61.7 138.6 62.15 138.5 62.7 138.35 63.8 138.2 65.55 137.0 66.0 136.5 66.1 136.4 66.9 134.85 67.1 133.4 66.9 131.95 Q66.75 131.35 66.0 130.5 L64.7 129.1 63.8 128.5 63.15 128.0" fill="#41444d" fill-rule="evenodd" stroke="none"/>
    <path d="M58.55 129.85 Q57.2 131.15 57.2 133.0 57.2 134.9 58.55 136.15 59.8 137.45 61.7 137.45 63.55 137.45 64.85 136.15 66.15 134.9 66.15 133.0 66.15 131.15 64.85 129.85 63.55 128.55 61.7 128.55 59.8 128.55 58.55 129.85" fill="#6e727b" fill-rule="evenodd" stroke="none"/>
    <path d="M65.35 134.25 L65.2 134.2 64.65 134.85 Q64.1 135.5 63.1 135.65 L62.9 135.25 62.6 135.45 Q62.7 135.0 62.4 135.0 L62.25 135.05 62.2 134.7 Q61.85 135.15 61.5 134.9 L61.25 134.55 61.05 134.5 Q60.6 134.3 60.6 133.75 L60.85 132.9 60.75 132.85 Q60.55 133.65 60.05 133.45 L60.0 133.4 59.95 133.1 59.45 133.05 59.4 132.8 59.65 132.25 59.6 132.1 59.3 132.1 59.45 130.8 60.3 130.0 61.15 129.2 60.9 129.0 60.7 129.15 60.35 129.3 60.4 129.25 60.2 129.1 59.55 129.55 58.95 130.0 59.05 129.7 59.0 129.55 58.9 129.5 Q58.45 129.5 57.95 131.05 L57.65 131.95 57.65 132.65 57.65 133.35 57.65 134.05 Q57.9 134.95 58.75 135.75 59.55 136.6 60.5 136.85 L60.9 136.9 61.15 137.05 61.5 136.9 61.8 137.1 63.0 136.9 64.2 136.05 65.4 134.4 65.35 134.25 M59.0 132.7 L59.0 132.65 59.05 132.65 59.0 132.75 59.0 132.7 M59.0 131.35 L59.0 131.25 59.05 131.15 59.0 131.35" fill="#60646d" fill-rule="evenodd" stroke="none"/>
    <path d="M62.3 118.95 L61.9 119.0 61.5 118.95 59.65 118.95 59.55 118.95 59.75 119.65 59.8 119.6 Q60.35 119.0 60.75 119.35 L61.1 119.95 61.0 120.25 61.3 120.3 Q61.8 120.55 61.8 121.05 L61.75 121.35 62.0 121.3 Q62.75 121.3 62.75 122.0 L62.75 122.25 Q63.05 121.85 63.45 121.95 63.95 122.1 63.95 122.6 L63.85 123.45 Q64.1 122.7 64.6 123.0 65.15 123.3 65.15 123.7 L64.8 125.7 65.1 126.0 65.3 125.0 Q65.65 124.3 66.2 124.45 66.7 124.55 66.7 125.1 L66.3 127.2 66.75 127.65 Q67.05 126.65 67.3 126.65 67.85 126.65 68.0 126.95 L68.1 127.5 67.95 128.15 68.0 128.1 Q68.35 128.05 68.5 128.35 68.7 128.05 69.05 128.25 69.75 128.7 69.75 130.1 L69.7 130.55 70.15 130.95 Q70.45 130.3 70.8 130.35 71.15 130.45 71.2 131.0 L71.3 131.0 Q71.65 131.0 71.85 131.25 L72.05 131.65 71.85 132.65 72.15 132.9 71.95 134.1 Q72.3 134.35 72.3 134.95 72.3 136.2 71.4 138.95 L71.1 139.9 Q73.5 136.45 74.3 130.7 L62.3 118.95" fill="#9a9a9f" fill-rule="evenodd" stroke="none"/>
    <path d="M62.8 130.45 L64.4 131.25 64.9 132.75 65.35 133.7 Q65.8 133.7 66.1 132.8 L66.15 131.95 Q66.15 130.85 65.05 130.0 64.1 129.25 63.25 129.25 62.4 129.25 62.4 129.7 62.4 130.2 62.8 130.45" fill="#999da6" fill-rule="evenodd" stroke="none"/>
    <path d="M50.25 136.0 L50.45 135.9 50.5 135.65 50.25 135.45 Q50.0 135.4 50.0 135.7 L50.05 135.9 50.25 136.0" fill="#767677" fill-rule="evenodd" stroke="none"/>
    <path d="M73.85 133.4 L73.9 133.4 74.15 132.45 73.85 133.4 M72.1 137.3 L72.05 137.2 71.95 137.6 72.1 137.3 M61.2 120.25 L61.25 120.25 61.3 120.05 61.2 120.25 M61.65 119.0 L61.7 118.9 61.65 118.9 61.65 119.0 M59.8 118.9 L59.7 118.95 59.85 119.65 59.9 119.6 Q60.25 119.2 60.6 119.2 L60.65 118.9 59.8 118.9 M64.4 120.85 L64.35 120.85 64.4 120.85 M62.9 119.4 L62.85 119.65 Q63.2 119.65 63.45 120.0 L63.7 120.35 63.8 120.3 62.9 119.4 M64.85 121.3 L64.7 121.85 64.8 121.8 Q65.25 121.45 65.25 122.2 L65.6 122.2 65.75 122.6 65.75 122.7 66.15 122.75 66.35 123.15 66.35 123.25 66.65 123.3 66.9 123.9 66.85 124.4 67.05 124.5 67.35 125.15 67.5 125.05 67.85 125.15 Q68.0 124.95 68.2 125.0 68.55 125.05 68.55 125.5 L68.55 125.55 68.7 125.7 69.0 126.25 69.1 126.2 Q69.5 126.1 69.5 126.6 L69.4 127.55 69.5 127.6 69.65 127.7 70.1 127.65 70.35 128.05 70.3 128.2 70.6 128.25 70.65 128.35 70.9 128.4 71.6 129.0 72.0 128.95 72.2 129.3 72.45 129.25 72.75 129.7 72.6 130.35 73.05 130.3 73.2 130.7 73.15 130.95 73.35 130.95 73.7 131.25 73.95 131.5 Q74.2 131.4 74.25 131.85 L74.45 130.7 64.85 121.3" fill="#cbcbcb" fill-rule="evenodd" stroke="none"/>
    <path d="M63.05 130.2 L64.6 130.95 64.7 131.05 64.8 131.15 65.25 132.65 65.4 133.35 Q65.65 133.3 65.8 132.7 L65.85 131.95 Q65.85 131.0 64.9 130.25 64.05 129.55 63.3 129.55 62.8 129.55 62.75 129.7 L63.0 130.2 63.05 130.2" fill="#cbcbcb" fill-rule="evenodd" stroke="none"/>
    <path d="M57.3 116.45 L57.15 116.6 57.1 117.0 57.15 117.4 57.0 117.35 Q56.55 117.35 56.55 117.8 L56.95 119.4 56.6 119.6 56.35 118.85 55.65 117.5 Q55.15 117.5 55.15 117.95 L55.55 119.45 55.75 119.95 55.4 120.0 55.35 120.0 55.25 119.85 Q54.7 118.45 54.4 118.45 53.9 118.45 53.9 118.9 53.9 119.25 54.45 120.4 L54.55 120.6 54.45 120.8 53.4 119.25 53.25 119.25 52.9 119.0 Q52.4 119.0 52.4 119.45 L53.15 120.95 52.75 120.75 51.85 119.05 Q51.4 119.05 51.4 119.5 L51.75 120.45 51.4 120.5 51.3 121.1 50.55 120.0 Q50.05 120.0 50.05 120.4 L50.5 121.55 50.0 121.4 49.45 121.15 49.2 120.9 Q48.7 120.9 48.65 121.25 L47.6 122.2 Q46.85 122.95 45.35 125.5 L45.45 125.1 Q46.25 121.9 46.8 121.2 47.8 119.9 50.85 117.75 53.15 116.05 55.85 116.1 L57.25 116.2 57.3 116.45 M54.4 117.8 L54.05 117.9 54.5 117.9 54.4 117.8 M52.6 118.45 L51.95 118.6 52.15 118.7 52.6 118.7 52.6 118.45" fill="#9a9a9f" fill-rule="evenodd" stroke="none"/>
    <path d="M285.35 408.65 L287.85 408.6 Q291.4 407.15 293.95 403.8 L297.35 398.1 Q298.5 396.0 300.45 398.5 L300.35 392.95 300.2 392.7 299.85 391.9 299.0 391.2 298.0 390.45 Q297.75 390.25 297.45 389.55 L296.7 388.7 Q295.9 388.25 295.1 387.15 294.9 386.85 293.7 386.4 292.5 385.95 292.3 385.7 291.8 385.15 291.4 383.95 291.1 383.2 290.4 383.05 L289.1 383.55 286.85 383.55 Q286.6 383.95 286.15 383.7 L284.95 384.05 283.85 384.25 Q282.0 384.25 279.4 387.2 277.3 389.6 276.7 391.25 L275.3 394.95 Q274.95 395.85 274.75 396.8 274.3 397.35 273.9 397.4 L273.8 398.1 273.8 398.25 284.3 408.95 Q284.65 408.65 285.35 408.65" fill="#22252c" fill-opacity="0.2901961" fill-rule="evenodd" stroke="none"/>
    <path d="M289.8 410.6 Q289.95 410.05 291.6 409.85 L292.8 409.7 295.15 407.4 299.1 403.8 302.0 401.1 Q302.95 398.75 302.95 396.35 L302.8 394.7 292.75 384.6 Q280.25 384.5 278.25 399.1 L289.8 410.6" fill="#6e727b" fill-rule="evenodd" stroke="none"/>
    <path d="M289.8 410.6 Q289.95 410.05 291.6 409.85 L292.8 409.7 293.55 408.95 292.35 409.1 Q290.7 409.25 290.6 409.85 L279.0 398.35 Q280.0 391.4 283.3 387.8 279.3 391.4 278.25 399.1 L289.8 410.6 M295.15 407.4 L299.1 403.8 302.0 401.1 302.0 401.05 299.9 403.05 295.9 406.65 293.95 408.55 295.15 407.4" fill="#9498a1" fill-rule="evenodd" stroke="none"/>
    <path d="M289.5 400.75 Q291.45 400.75 292.8 399.4 294.2 398.0 294.2 396.05 294.2 394.05 292.8 392.7 291.45 391.3 289.5 391.3 287.5 391.3 286.1 392.7 284.8 394.05 284.8 396.05 284.8 398.0 286.1 399.4 287.5 400.75 289.5 400.75" fill="#4d525d" fill-rule="evenodd" stroke="none"/>
    <path d="M289.2 399.95 Q290.85 399.95 291.95 398.85 293.1 397.7 293.1 396.05 293.1 394.45 291.95 393.3 290.85 392.15 289.2 392.15 287.6 392.15 286.45 393.3 285.3 394.45 285.3 396.05 285.3 397.7 286.45 398.85 287.6 399.95 289.2 399.95" fill="#6e727b" fill-rule="evenodd" stroke="none"/>
    <path d="M289.5 398.95 Q289.95 398.5 289.75 397.7 289.6 396.85 288.9 396.15 288.15 395.4 287.3 395.25 286.5 395.05 286.05 395.5 285.6 395.95 285.8 396.75 285.95 397.6 286.7 398.35 L288.25 399.2 Q289.05 399.4 289.5 398.95" fill="#8e9095" fill-rule="evenodd" stroke="none"/>
    <path d="M278.15 400.85 Q278.9 401.15 279.65 402.25 280.45 403.35 281.15 403.7 281.75 404.0 282.1 404.4 L282.7 405.15 283.2 405.9 284.1 406.6 285.4 408.3 285.55 408.5 286.55 409.5 Q294.5 409.85 287.55 409.25 L290.15 409.2 Q293.65 407.75 296.15 404.35 L299.6 398.65 Q300.8 396.35 306.25 400.0 307.3 399.6 307.2 397.95 L306.8 397.65 305.4 396.35 304.6 395.4 303.6 394.2 300.9 391.45 298.35 388.9 298.1 388.8 Q297.0 388.15 296.7 387.75 295.9 386.6 294.6 385.6 293.5 384.75 293.2 383.8 L292.2 382.8 291.55 382.8 Q290.8 383.0 289.9 383.35 L288.15 384.05 287.1 384.05 Q285.85 384.25 284.4 385.4 L281.9 387.35 Q281.35 387.65 281.1 388.25 L280.65 389.2 279.8 390.2 278.95 391.15 278.05 393.05 277.25 394.9 Q276.45 396.2 276.4 396.8 L276.3 397.0 276.05 398.45 276.2 398.65 276.55 399.35 278.15 400.85" fill="#4d525d" fill-rule="evenodd" stroke="none"/>
    <path d="M291.2 412.7 L277.2 398.65 Q279.25 384.05 291.7 384.1 L307.35 399.05 Q306.4 415.45 291.2 412.7" fill="#767677" fill-rule="evenodd" stroke="none"/>
    <path d="M285.25 391.3 L283.55 392.4 281.65 393.1 281.6 393.1 281.5 392.9 281.65 392.65 281.15 392.8 280.15 393.25 280.15 393.2 280.75 392.8 Q279.75 392.8 279.75 391.75 L279.8 391.4 279.75 391.3 279.4 390.8 Q277.45 393.95 277.45 398.55 L292.35 414.2 296.1 413.4 296.7 413.1 296.7 413.0 Q297.35 412.35 299.85 411.05 L300.0 410.95 299.65 411.0 297.1 412.65 Q296.95 412.75 296.95 412.45 296.95 412.15 299.05 410.95 L298.85 410.85 298.3 410.25 296.45 410.75 295.85 410.55 295.6 410.3 295.3 410.45 295.1 410.25 295.3 410.05 Q293.8 410.85 293.4 411.1 L293.35 411.0 293.35 410.85 292.65 411.1 292.45 411.1 292.3 410.9 293.4 410.05 291.85 410.9 Q291.55 410.9 291.55 410.45 291.55 409.95 295.25 407.85 L296.55 407.15 294.75 407.75 294.7 407.7 290.95 409.7 290.8 409.6 Q292.25 408.45 294.5 407.15 L294.9 406.95 294.7 406.8 294.4 406.45 290.85 408.45 290.65 408.45 Q290.5 408.45 290.5 408.15 290.5 407.9 294.4 405.55 294.7 404.85 296.0 404.2 L295.75 404.05 295.6 403.95 Q295.05 404.15 294.4 404.5 L292.45 405.45 290.85 406.45 292.45 405.6 290.95 406.65 289.4 407.3 289.35 407.3 289.3 407.1 291.2 405.8 Q290.65 405.7 290.45 405.25 289.4 405.8 289.0 406.15 L288.85 406.1 288.6 406.25 288.3 406.2 288.25 405.95 289.05 405.15 288.9 405.15 288.85 404.8 Q288.85 404.15 291.25 402.95 L289.75 403.6 288.3 404.45 288.15 404.3 288.55 404.0 288.15 404.05 Q287.8 404.05 287.5 403.8 287.1 403.55 287.1 403.0 287.1 402.05 289.75 400.75 L289.5 400.75 289.2 400.8 288.95 400.75 288.85 400.7 285.75 402.25 285.45 402.05 289.0 399.85 289.0 399.7 289.6 399.15 290.7 398.55 290.85 398.5 291.95 397.8 291.75 397.45 291.0 398.0 289.25 398.85 287.65 399.9 Q286.5 400.6 285.9 400.6 L285.75 400.6 285.7 400.4 Q285.7 400.0 286.8 399.35 L286.45 399.4 285.8 399.25 285.25 399.55 285.0 399.45 285.5 399.05 285.35 398.7 285.25 398.6 282.75 399.65 284.3 398.75 285.05 398.5 284.85 398.15 284.25 398.45 284.15 398.4 284.8 397.95 284.8 397.85 Q284.8 397.6 285.05 397.3 L284.8 397.3 284.8 397.1 284.15 397.5 284.1 397.45 284.05 397.3 Q284.05 396.9 286.1 395.7 L286.05 395.65 282.35 397.3 282.3 397.05 Q282.3 396.85 285.7 395.4 L285.45 394.75 285.45 394.7 284.6 395.0 283.9 394.75 283.6 394.25 283.2 394.45 281.65 395.0 281.6 394.8 282.1 394.5 283.65 393.1 283.65 393.05 281.5 394.2 281.4 394.2 Q281.8 393.9 282.35 393.55 L282.3 393.55 Q283.35 392.45 285.2 391.45 L285.4 391.3 285.55 391.1 284.3 391.5 282.35 392.65 283.75 392.05 285.15 391.3 285.25 391.3 M285.4 392.35 L284.95 392.55 Q283.0 393.75 282.75 394.25 L283.6 393.95 Q283.7 393.4 285.5 392.5 L285.4 392.35 M283.55 395.6 L282.6 396.3 281.5 396.85 281.4 396.7 Q282.05 396.2 283.45 395.6 L283.55 395.6 M285.45 400.8 L284.5 401.15 284.5 401.05 Q285.0 400.75 285.45 400.75 L285.45 400.8 M290.8 394.2 L288.65 395.0 287.35 395.65 286.35 396.35 290.1 394.9 Q290.25 394.5 290.8 394.2 M290.0 395.6 L289.95 395.45 289.75 395.6 290.0 395.6 M298.7 391.25 L298.95 391.15 298.95 391.1 298.7 391.25 M296.95 406.4 L296.6 406.5 296.5 406.5 295.5 407.2 297.4 406.45 297.2 406.4 296.95 406.4 M292.45 402.35 L294.1 401.7 294.05 401.55 294.0 401.6 292.0 402.6 292.45 402.35 M296.7 408.05 L295.6 408.9 298.2 407.75 298.2 407.35 296.7 407.95 296.65 408.0 296.7 408.05 M302.55 409.9 L302.9 409.6 302.45 409.8 302.55 409.9" fill="#5c5c64" fill-rule="evenodd" stroke="none"/>
    <path d="M288.9 390.6 Q286.7 391.2 285.6 393.1 L285.45 393.25 285.45 393.4 285.35 395.55 Q285.3 396.8 285.6 397.85 L286.4 399.05 287.5 400.1 288.05 400.75 288.15 400.85 289.05 401.2 291.65 401.05 291.7 401.05 292.05 400.85 292.55 400.55 293.6 400.1 Q294.4 399.5 294.95 398.5 L295.3 397.9 295.35 397.75 295.7 396.05 295.55 394.6 294.95 393.25 293.7 392.1 292.1 391.1 291.05 390.75 290.35 390.45 288.9 390.6" fill="#41444d" fill-rule="evenodd" stroke="none"/>
    <path d="M289.35 391.7 Q287.55 392.15 286.65 393.75 285.7 395.35 286.2 397.15 286.7 399.0 288.25 399.85 289.85 400.8 291.65 400.35 293.45 399.85 294.35 398.2 295.3 396.7 294.8 394.85 294.3 393.05 292.75 392.1 291.15 391.2 289.35 391.7" fill="#6e727b" fill-rule="evenodd" stroke="none"/>
    <path d="M293.55 396.75 L292.3 397.9 292.0 397.6 291.75 397.85 291.45 397.5 291.3 397.55 291.15 397.25 Q290.95 397.75 290.55 397.6 L290.2 397.35 290.0 397.35 Q289.5 397.3 289.35 396.75 L289.4 395.85 289.3 395.85 Q289.3 396.65 288.75 396.55 L288.7 396.6 288.6 396.3 Q288.45 396.15 288.1 396.3 L287.95 396.1 288.1 395.55 288.0 395.4 287.7 395.45 287.5 394.15 Q287.45 394.0 288.1 393.2 L288.7 392.2 Q288.65 392.0 288.45 392.05 L288.3 392.25 288.0 392.5 288.05 392.4 287.8 392.35 287.3 392.95 286.8 393.55 286.85 393.2 286.8 393.1 286.6 393.05 Q286.15 393.2 286.1 394.8 L286.1 395.75 286.25 396.45 286.45 397.15 286.65 397.8 Q287.15 398.6 288.1 399.15 289.1 399.75 290.1 399.75 L290.5 399.7 290.75 399.8 291.1 399.55 291.45 399.65 292.5 399.15 293.45 398.05 294.2 396.15 294.1 396.0 294.0 396.0 Q293.85 396.0 293.55 396.75 M287.6 396.2 L287.55 396.15 287.6 396.1 287.65 396.05 287.6 396.2 M287.25 394.6 L287.2 394.85 287.15 394.75 287.25 394.6" fill="#60646d" fill-rule="evenodd" stroke="none"/>
    <path d="M303.65 395.35 L303.6 395.75 303.65 396.15 303.65 398.0 303.65 398.1 302.95 397.9 303.0 397.85 Q303.6 397.3 303.25 396.9 303.05 396.55 302.65 396.55 L302.35 396.65 302.3 396.35 Q302.05 395.85 301.55 395.85 L301.25 395.9 301.3 395.65 Q301.3 394.9 300.6 394.9 L300.35 394.9 Q300.75 394.6 300.65 394.2 300.5 393.7 300.0 393.7 L299.15 393.8 Q299.9 393.55 299.6 393.05 299.3 392.5 298.9 392.5 L296.9 392.85 296.6 392.55 297.6 392.35 Q298.3 392.0 298.15 391.45 298.05 390.95 297.5 390.95 L295.4 391.35 294.95 390.9 Q295.95 390.6 295.95 390.35 295.95 389.8 295.65 389.65 L295.1 389.55 294.45 389.7 294.5 389.65 294.25 389.15 Q294.55 388.95 294.35 388.6 293.9 387.9 292.5 387.9 L292.05 387.95 291.65 387.5 292.25 386.85 Q292.15 386.5 291.6 386.45 L291.6 386.35 291.35 385.8 290.95 385.6 289.95 385.8 289.7 385.5 288.5 385.7 Q288.25 385.35 287.65 385.35 286.4 385.35 283.65 386.25 L282.7 386.55 Q286.15 384.15 291.9 383.35 L303.65 395.35" fill="#9a9a9f" fill-rule="evenodd" stroke="none"/>
    <path d="M292.55 392.2 L290.6 391.95 Q289.8 392.2 289.9 392.6 290.05 393.1 290.55 393.25 L292.3 393.6 293.15 394.9 293.85 395.7 Q294.25 395.6 294.3 394.65 L294.15 393.8 Q293.85 392.75 292.55 392.2" fill="#999da6" fill-rule="evenodd" stroke="none"/>
    <path d="M301.6 393.5 L301.4 393.4 301.2 393.5 301.15 393.75 301.4 393.95 301.65 393.7 301.6 393.5" fill="#767677" fill-rule="evenodd" stroke="none"/>
    <path d="M285.0 385.8 L285.3 385.65 285.4 385.7 285.0 385.8 M289.2 383.9 L289.2 383.85 290.15 383.6 289.2 383.9 M302.55 396.45 L302.35 396.55 302.35 396.5 302.55 396.45 M303.7 396.1 L303.6 396.1 303.7 396.05 303.7 396.1 M303.7 397.95 L303.65 398.05 Q303.5 397.9 302.95 397.9 L303.0 397.85 Q303.4 397.5 303.4 397.15 L303.7 397.1 303.7 397.95 M301.75 393.4 L301.75 393.35 301.75 393.4 M303.2 394.85 L302.95 394.9 302.6 394.3 302.25 394.05 302.3 393.95 303.2 394.85 M301.3 392.9 L300.75 393.05 300.8 392.95 Q301.15 392.5 300.4 392.5 L300.4 392.15 300.0 392.0 299.9 392.0 299.85 391.6 299.45 391.4 299.35 391.4 299.3 391.1 Q299.1 390.85 298.7 390.85 L298.2 390.9 298.1 390.7 297.45 390.4 297.55 390.25 Q297.7 390.0 297.45 389.9 L297.6 389.55 Q297.55 389.2 297.1 389.2 L297.05 389.2 296.9 389.05 Q296.7 388.8 296.35 388.75 L296.4 388.65 Q296.5 388.25 296.0 388.25 L295.05 388.35 295.0 388.25 294.9 388.1 294.95 387.65 Q294.85 387.4 294.55 387.4 L294.4 387.45 294.35 387.15 294.25 387.1 294.2 386.85 293.6 386.15 293.65 385.75 293.3 385.55 293.35 385.3 Q293.2 385.0 292.9 385.0 L292.25 385.15 292.3 384.7 291.9 384.55 291.65 384.6 291.65 384.4 291.35 384.05 291.1 383.8 Q291.2 383.55 290.75 383.5 L291.9 383.3 301.3 392.9" fill="#cbcbcb" fill-rule="evenodd" stroke="none"/>
    <path d="M290.8 392.95 L290.85 392.9 292.55 393.25 292.7 393.35 292.75 393.4 293.6 394.75 293.95 395.35 294.15 394.65 294.0 393.9 Q293.75 393.0 292.6 392.55 291.65 392.05 290.9 392.25 290.45 392.4 290.45 392.5 L290.8 392.95" fill="#cbcbcb" fill-rule="evenodd" stroke="none"/>
  </g>
</svg>
