<?xml version="1.0" encoding="UTF-8" standalone="no"?>
<svg xmlns:ffdec="https://www.free-decompiler.com/flash" xmlns:xlink="http://www.w3.org/1999/xlink" ffdec:objectType="shape" height="58.25px" width="117.35px" xmlns="http://www.w3.org/2000/svg">
  <g transform="matrix(1.0, 0.0, 0.0, 1.0, -31.05, -2.75)">
    <path d="M38.75 20.35 Q38.9 18.2 40.25 17.15 L136.35 17.15 141.55 18.15 143.7 18.15 Q146.75 18.8 148.15 19.75 L147.1 46.0 144.75 47.0 Q146.3 47.45 147.3 48.25 L148.3 52.85 148.35 55.05 148.2 56.0 148.35 56.0 Q148.05 59.3 145.35 60.45 L135.25 61.0 123.9 60.75 110.55 60.2 98.75 59.95 54.0 60.85 Q45.75 60.95 42.35 59.3 L41.8 59.15 Q36.95 58.15 36.45 55.45 L36.6 55.45 36.45 55.3 36.4 54.95 35.45 51.1 35.55 51.1 35.55 51.05 35.5 51.05 35.35 50.6 35.05 48.35 35.15 48.35 35.15 48.3 35.05 48.3 35.0 47.8 Q34.7 44.5 34.9 40.8 L34.9 40.25 34.9 40.2 35.05 37.5 34.7 37.5 35.2 37.45 35.2 36.95 35.2 36.9 35.3 35.65 35.35 35.65 35.35 35.15 35.35 35.1 35.65 32.9 35.75 32.9 35.75 32.85 35.7 32.85 35.7 32.3 35.75 32.3 36.75 26.7 36.9 26.7 36.9 26.65 36.85 26.65 36.95 26.15 37.8 22.6 38.6 20.85 38.45 20.85 38.6 20.5 38.75 20.35" fill="#1e0101" fill-opacity="0.36078432" fill-rule="evenodd" stroke="none"/>
    <path d="M147.95 5.95 L146.9 38.7 144.5 39.95 Q146.05 40.55 147.05 41.55 L148.15 47.25 148.2 50.0 148.05 51.2 148.2 51.2 Q147.9 55.35 145.05 56.75 L134.65 57.35 122.95 57.15 109.2 56.4 97.1 56.15 Q76.55 56.85 50.9 57.25 36.95 57.4 36.4 51.7 L36.3 51.2 36.6 51.2 36.4 50.45 36.3 50.0 Q32.45 35.4 37.65 9.85 L38.65 7.3 Q39.15 4.25 44.0 3.95 L44.0 4.0 143.35 4.0 Q146.5 4.85 147.95 5.95" fill="url(#gradient0)" fill-rule="evenodd" stroke="none"/>
    <path d="M144.5 5.6 L143.4 38.55 Q142.25 39.15 141.05 39.8 142.5 40.35 143.6 41.3 L144.7 47.05 Q145.3 53.6 141.6 55.35 L131.2 56.05 119.45 55.8 105.75 55.1 93.65 54.8 Q73.1 55.45 47.4 55.9 33.5 56.1 32.95 50.35 28.9 35.6 34.2 9.55 L35.2 6.9 Q35.3 4.1 36.75 2.75 L135.75 2.75 Q142.25 3.8 144.5 5.6" fill="#c58c3f" fill-rule="evenodd" stroke="none"/>
    <path d="M31.8 28.05 L54.65 27.05 Q75.65 27.05 90.4 29.85 104.75 32.5 104.95 36.25 104.75 39.95 90.4 42.65 75.65 45.45 54.65 45.45 L32.1 44.45 31.9 44.45 31.6 41.65 54.75 42.6 84.9 40.9 Q97.95 39.2 97.75 36.6 97.95 34.05 84.9 32.3 72.45 30.65 54.75 30.65 L31.4 31.55 31.6 28.1 31.8 28.05" fill="url(#gradient1)" fill-rule="evenodd" stroke="none"/>
    <path d="M31.5 32.2 L54.75 31.3 Q72.3 31.3 84.55 32.95 96.4 34.5 96.5 36.6 96.4 38.7 84.55 40.25 L54.75 41.9 31.7 41.0 31.5 41.0 Q31.2 36.9 31.4 32.2 L31.5 32.2" fill="url(#gradient2)" fill-rule="evenodd" stroke="none"/>
    <path d="M38.5 55.15 Q33.5 53.9 33.05 50.6 46.15 51.55 59.0 51.3 73.25 50.9 99.1 45.2 118.8 40.75 141.7 40.7 L142.25 40.7 143.05 41.35 144.1 47.1 Q144.75 53.6 141.0 55.4 L130.7 56.05 Q126.2 56.15 119.0 55.85 L105.4 55.1 93.35 54.85 Q72.95 55.55 47.4 55.95 L38.5 55.15" fill="url(#gradient3)" fill-rule="evenodd" stroke="none"/>
    <path d="M32.35 22.4 L56.5 20.85 Q78.2 20.0 101.2 25.1 120.25 29.3 143.1 29.7 L143.05 34.35 Q120.25 34.15 102.7 29.6 79.95 23.7 58.7 23.7 L31.9 25.15 32.15 22.4 32.35 22.4 M31.8 25.8 L32.0 25.8 58.7 24.35 Q79.65 24.35 102.15 30.2 119.85 34.8 142.95 35.0 L142.85 38.55 140.45 39.85 141.0 40.05 Q118.25 40.15 98.6 44.55 73.05 50.25 59.0 50.6 46.15 50.85 33.15 49.9 L32.95 49.9 Q32.35 47.65 32.0 45.1 L54.65 46.1 Q75.9 46.1 90.85 43.3 106.25 40.4 106.15 36.25 106.25 32.05 90.85 29.2 75.9 26.4 54.65 26.4 L31.7 27.4 31.8 25.8 M143.3 23.3 L116.7 21.7 Q104.75 20.3 104.55 18.6 104.75 16.9 116.7 15.55 L143.7 13.95 143.3 23.3" fill="#c58c3f" fill-rule="evenodd" stroke="none"/>
    <path d="M143.2 26.4 Q123.9 25.85 110.4 23.65 96.2 21.35 96.1 18.3 96.2 15.3 110.4 12.95 124.0 10.7 143.8 10.15 L143.7 13.3 116.4 14.9 Q103.1 16.4 103.3 18.6 103.1 20.8 116.4 22.35 L143.3 24.0 143.2 26.4" fill="url(#gradient4)" fill-rule="evenodd" stroke="none"/>
    <path d="M33.3 14.6 L53.05 15.4 Q74.85 16.1 105.3 11.0 123.4 7.95 143.9 6.9 L143.8 9.5 Q123.8 10.05 110.0 12.3 94.7 14.85 94.85 18.3 94.7 21.75 110.0 24.25 123.6 26.5 143.2 27.1 L143.2 29.0 Q120.55 28.65 101.75 24.5 78.4 19.3 56.4 20.15 L32.25 21.7 33.3 14.6" fill="url(#gradient5)" fill-rule="evenodd" stroke="none"/>
    <path d="M143.65 29.6 L144.0 29.7 Q120.8 29.3 101.4 25.1 78.35 20.0 56.45 20.85 L32.1 22.35 32.1 21.65 56.45 20.15 Q78.65 19.35 102.05 24.45 120.95 28.6 143.7 28.95 L143.65 29.6 M144.4 6.85 Q123.9 7.9 105.8 10.9 75.05 16.05 53.1 15.35 L33.25 14.55 33.35 13.95 53.1 14.7 Q74.75 15.35 105.0 10.3 123.5 7.2 144.5 6.2 L144.4 6.85 M143.7 27.05 Q123.9 26.4 110.25 24.2 94.8 21.65 95.0 18.25 94.8 14.85 110.25 12.35 124.15 10.1 144.3 9.55 L144.3 10.1 Q124.55 10.65 110.9 12.85 96.55 15.25 96.55 18.25 96.55 21.35 110.9 23.65 124.4 25.85 143.7 26.5 L143.7 27.05 M143.85 23.85 L116.65 22.2 Q103.25 20.7 103.5 18.55 103.25 16.45 116.65 14.85 L144.2 13.3 144.2 13.85 117.15 15.45 Q105.15 16.8 104.9 18.55 105.15 20.35 117.15 21.7 L143.9 23.35 143.85 23.85 M143.4 35.0 Q120.2 34.75 102.4 30.2 79.8 24.35 58.75 24.35 L31.7 25.8 31.7 25.1 58.75 23.65 Q80.1 23.65 103.0 29.55 120.6 34.05 143.55 34.3 L143.4 35.0 M142.75 40.65 Q119.35 40.65 99.35 45.1 73.4 50.9 59.05 51.25 46.05 51.5 33.0 50.5 L32.85 50.35 32.75 49.85 Q45.95 50.85 58.95 50.5 73.1 50.2 98.85 44.5 118.55 40.1 141.55 40.05 L142.75 40.65 M111.55 3.05 L116.8 3.05 105.3 4.85 Q74.55 9.9 52.0 8.45 L34.9 7.4 35.05 6.9 35.2 6.75 52.15 7.85 Q74.25 9.2 104.5 4.2 L111.55 3.05 M98.1 36.6 Q98.15 39.15 85.05 40.85 L54.8 42.5 31.4 41.6 31.35 41.0 54.8 41.85 Q72.35 41.85 84.75 40.2 96.6 38.65 96.75 36.6 96.6 34.45 84.75 32.95 72.35 31.25 54.8 31.25 L31.25 32.2 31.25 31.5 54.8 30.6 Q72.55 30.6 85.05 32.25 98.15 34.0 98.1 36.6 M106.45 36.2 Q106.65 40.35 91.05 43.25 76.0 46.05 54.75 46.05 L31.85 45.05 Q31.7 44.75 31.7 44.45 L54.75 45.45 Q75.7 45.45 90.65 42.6 105.15 39.9 105.2 36.2 105.15 32.45 90.65 29.8 75.7 27.05 54.75 27.05 L31.05 28.1 31.55 28.05 31.55 27.35 54.75 26.4 Q76.0 26.4 91.05 29.2 106.65 32.05 106.45 36.2" fill="#ae7528" fill-rule="evenodd" stroke="none"/>
  </g>
  <defs>
    <linearGradient gradientTransform="matrix(0.0693, 0.0, 0.0, 0.0341, 91.45, 29.45)" gradientUnits="userSpaceOnUse" id="gradient0" spreadMethod="pad" x1="-819.2" x2="819.2">
      <stop offset="0.0" stop-color="#231204"/>
      <stop offset="0.5568627450980392" stop-color="#4f2909"/>
      <stop offset="1.0" stop-color="#693408"/>
    </linearGradient>
    <linearGradient gradientTransform="matrix(0.0449, 0.0031, -0.0033, 0.0114, 67.6, 35.7)" gradientUnits="userSpaceOnUse" id="gradient1" spreadMethod="pad" x1="-819.2" x2="819.2">
      <stop offset="0.0" stop-color="#b17536"/>
      <stop offset="1.0" stop-color="#ce9744"/>
    </linearGradient>
    <linearGradient gradientTransform="matrix(0.0269, 0.0144, -0.0104, 0.0045, 63.75, 36.2)" gradientUnits="userSpaceOnUse" id="gradient2" spreadMethod="pad" x1="-819.2" x2="819.2">
      <stop offset="0.0" stop-color="#b17536"/>
      <stop offset="1.0" stop-color="#ce9744"/>
    </linearGradient>
    <linearGradient gradientTransform="matrix(-0.181, 0.0189, -0.0042, -0.011, 102.45, 35.5)" gradientUnits="userSpaceOnUse" id="gradient3" spreadMethod="pad" x1="-819.2" x2="819.2">
      <stop offset="0.0" stop-color="#b17536"/>
      <stop offset="1.0" stop-color="#ce9744"/>
    </linearGradient>
    <linearGradient gradientTransform="matrix(0.0499, 0.0, 0.0, 0.0099, 110.0, 18.1)" gradientUnits="userSpaceOnUse" id="gradient4" spreadMethod="pad" x1="-819.2" x2="819.2">
      <stop offset="0.0" stop-color="#b17536"/>
      <stop offset="1.0" stop-color="#ce9744"/>
    </linearGradient>
    <linearGradient gradientTransform="matrix(0.1551, -0.0092, 0.0029, 0.0133, 49.0, 20.4)" gradientUnits="userSpaceOnUse" id="gradient5" spreadMethod="pad" x1="-819.2" x2="819.2">
      <stop offset="0.0" stop-color="#b17536"/>
      <stop offset="1.0" stop-color="#ce9744"/>
    </linearGradient>
  </defs>
</svg>
