<?xml version="1.0" encoding="UTF-8" standalone="no"?>
<svg xmlns:ffdec="https://www.free-decompiler.com/flash" xmlns:xlink="http://www.w3.org/1999/xlink" ffdec:objectType="shape" height="26.65px" width="35.6px" xmlns="http://www.w3.org/2000/svg">
  <g transform="matrix(1.0, 0.0, 0.0, 1.0, -36.65, 7.35)">
    <path d="M37.25 -3.8 Q37.9 -7.1 40.7 -7.35 43.15 -7.25 43.85 -3.85 44.4 -1.4 44.55 1.7 L41.75 1.85 41.6 -0.85 Q41.35 -3.2 40.75 -3.3 L40.75 -3.25 Q39.9 -3.1 39.7 -0.8 39.4 1.05 41.35 3.65 43.25 6.25 44.0 7.9 44.55 9.7 44.55 11.65 44.55 13.6 44.05 15.65 43.4 18.95 40.85 19.2 L40.85 19.3 Q38.15 19.15 37.4 15.8 36.9 13.4 36.65 10.8 L39.4 10.35 39.7 12.75 Q39.9 15.1 40.75 15.2 41.35 15.0 41.55 12.65 42.0 10.15 40.2 7.8 38.4 5.5 37.75 3.65 36.7 1.2 36.95 -1.85 L37.25 -3.8 M67.25 -0.75 L69.8 -0.25 Q72.2 0.7 72.25 6.05 72.15 9.75 70.2 11.1 68.75 12.05 67.3 12.05 L67.3 19.1 64.5 19.0 64.5 -0.55 66.95 -0.75 67.25 -0.75 M53.55 -0.4 L53.45 19.3 50.75 19.3 50.75 9.6 48.75 9.6 48.6 18.8 45.8 18.95 45.95 -0.9 48.8 -0.8 48.8 6.4 50.8 6.4 50.75 -0.45 53.55 -0.4 M63.15 9.25 L63.1 9.25 Q63.1 14.1 62.4 16.65 61.7 19.2 59.0 19.3 56.25 19.1 55.55 16.6 54.9 14.1 54.9 9.25 54.9 4.45 55.6 1.95 56.25 -0.6 59.0 -0.75 61.75 -0.65 62.45 1.9 63.15 4.45 63.15 9.25 M67.3 1.75 L67.25 9.2 Q68.3 9.1 68.75 8.65 69.3 8.15 69.45 5.8 L69.2 2.9 Q68.55 1.8 67.3 1.75 M57.8 9.25 Q57.8 12.6 58.05 14.35 58.25 16.05 59.1 16.2 59.95 16.15 60.15 14.35 L60.35 9.25 60.15 4.15 Q59.95 2.4 59.1 2.3 L59.1 2.35 Q58.25 2.45 58.05 4.2 57.8 5.9 57.8 9.25" fill="#672208" fill-rule="evenodd" stroke="none"/>
  </g>
</svg>
