<?xml version="1.0" encoding="UTF-8" standalone="no"?>
<svg xmlns:ffdec="https://www.free-decompiler.com/flash" xmlns:xlink="http://www.w3.org/1999/xlink" ffdec:objectType="shape" height="28.15px" width="35.6px" xmlns="http://www.w3.org/2000/svg">
  <g transform="matrix(1.0, 0.0, 0.0, 1.0, -36.65, 8.85)">
    <path d="M69.8 -0.25 Q72.2 0.7 72.25 6.05 72.15 9.75 70.2 11.1 68.75 12.05 67.3 12.05 L67.3 19.1 64.5 19.0 64.5 -0.55 66.95 -0.75 67.25 -0.75 69.8 -0.25 M48.8 -8.7 L48.8 1.3 50.8 1.3 50.75 -8.25 53.55 -8.15 53.45 19.3 50.75 19.3 50.75 5.8 48.75 5.8 48.6 18.6 45.8 18.8 45.95 -8.85 48.8 -8.7 M63.1 9.25 Q63.1 14.1 62.4 16.65 61.7 19.2 59.0 19.3 56.25 19.1 55.55 16.6 54.9 14.1 54.9 9.25 54.9 4.45 55.6 1.95 56.25 -0.6 59.0 -0.75 61.75 -0.65 62.45 1.9 63.15 4.45 63.15 9.25 L63.1 9.25 M67.3 1.75 L67.25 9.2 Q68.3 9.1 68.75 8.65 69.3 8.15 69.45 5.8 L69.2 2.9 Q68.55 1.8 67.3 1.75 M57.8 9.25 Q57.8 12.6 58.05 14.35 58.25 16.05 59.1 16.2 59.95 16.15 60.15 14.35 L60.35 9.25 60.15 4.15 Q59.95 2.4 59.1 2.3 L59.1 2.35 Q58.25 2.45 58.05 4.2 57.8 5.9 57.8 9.25 M41.75 6.15 L41.6 4.1 Q41.35 2.35 40.75 2.25 L40.75 2.3 Q39.9 2.4 39.7 4.15 39.4 5.55 41.35 7.5 43.25 9.45 44.0 10.7 44.55 12.05 44.55 13.55 44.55 15.0 44.05 16.55 43.4 19.05 40.85 19.25 L40.85 19.3 Q38.15 19.2 37.4 16.65 36.9 14.85 36.65 12.9 L39.4 12.55 39.7 14.35 Q39.9 16.15 40.75 16.2 41.35 16.05 41.55 14.3 42.0 12.4 40.2 10.65 38.4 8.9 37.75 7.5 36.7 5.65 36.95 3.35 L37.25 1.9 Q37.9 -0.6 40.7 -0.8 43.15 -0.7 43.85 1.85 44.4 3.7 44.55 6.05 L41.75 6.15" fill="#672208" fill-rule="evenodd" stroke="none"/>
  </g>
</svg>
