<?xml version="1.0" encoding="UTF-8" standalone="no"?>
<svg xmlns:ffdec="https://www.free-decompiler.com/flash" xmlns:xlink="http://www.w3.org/1999/xlink" ffdec:objectType="shape" height="26.3px" width="35.6px" xmlns="http://www.w3.org/2000/svg">
  <g transform="matrix(1.0, 0.0, 0.0, 1.0, -36.65, 7.0)">
    <path d="M59.0 -7.0 Q61.75 -6.85 62.45 -3.5 63.15 -0.15 63.15 6.15 L63.1 6.15 Q63.1 12.5 62.4 15.85 61.7 19.2 59.0 19.3 56.25 19.05 55.55 15.75 54.9 12.5 54.9 6.15 54.9 -0.15 55.6 -3.45 56.25 -6.8 59.0 -7.0 M53.55 -0.4 L53.45 19.3 50.75 19.3 50.75 9.6 48.75 9.6 48.6 18.8 45.8 18.95 45.95 -0.9 48.8 -0.8 48.8 6.4 50.8 6.4 50.75 -0.45 53.55 -0.4 M58.05 -0.5 Q57.8 1.75 57.8 6.15 57.8 10.55 58.05 12.8 58.25 15.05 59.1 15.25 59.95 15.2 60.15 12.8 L60.35 6.15 60.15 -0.55 Q59.95 -2.85 59.1 -3.0 L59.1 -2.9 Q58.25 -2.8 58.05 -0.5 M69.8 -0.25 Q72.2 0.7 72.25 6.05 72.15 9.75 70.2 11.1 68.75 12.05 67.3 12.05 L67.3 19.1 64.5 19.0 64.5 -0.55 66.95 -0.75 67.25 -0.75 69.8 -0.25 M68.75 8.65 Q69.3 8.15 69.45 5.8 L69.2 2.9 Q68.55 1.8 67.3 1.75 L67.25 9.2 Q68.3 9.1 68.75 8.65 M41.6 4.1 Q41.35 2.35 40.75 2.25 L40.75 2.3 Q39.9 2.4 39.7 4.15 39.4 5.55 41.35 7.5 43.25 9.45 44.0 10.7 44.55 12.05 44.55 13.55 44.55 15.0 44.05 16.55 43.4 19.05 40.85 19.25 L40.85 19.3 Q38.15 19.2 37.4 16.65 36.9 14.85 36.65 12.9 L39.4 12.55 39.7 14.35 Q39.9 16.15 40.75 16.2 41.35 16.05 41.55 14.3 42.0 12.4 40.2 10.65 38.4 8.9 37.75 7.5 36.7 5.65 36.95 3.35 L37.25 1.9 Q37.9 -0.6 40.7 -0.8 43.15 -0.7 43.85 1.85 44.4 3.7 44.55 6.05 L41.75 6.15 41.6 4.1" fill="#672208" fill-rule="evenodd" stroke="none"/>
  </g>
</svg>
