<?xml version="1.0" encoding="UTF-8" standalone="no"?>
<svg xmlns:ffdec="https://www.free-decompiler.com/flash" xmlns:xlink="http://www.w3.org/1999/xlink" ffdec:objectType="shape" height="6.4px" width="8.3px" xmlns="http://www.w3.org/2000/svg">
  <g transform="matrix(1.0, 0.0, 0.0, 1.0, -219.0, -324.6)">
    <path d="M226.55 327.0 L226.75 327.2 227.05 327.25 227.3 327.05 227.3 326.75 Q227.05 325.95 226.2 325.3 225.05 324.45 223.4 324.6 221.8 324.65 220.3 326.6 218.85 328.55 219.0 330.6 L219.1 330.9 219.45 331.0 219.65 330.85 219.8 330.55 Q219.65 328.8 220.95 327.1 222.2 325.45 223.45 325.35 L223.5 325.35 Q224.8 325.25 225.7 325.95 226.35 326.4 226.55 327.0" fill="#806340" fill-opacity="0.96862745" fill-rule="evenodd" stroke="none"/>
  </g>
</svg>
