<?xml version="1.0" encoding="UTF-8" standalone="no"?>
<svg xmlns:ffdec="https://www.free-decompiler.com/flash" xmlns:xlink="http://www.w3.org/1999/xlink" ffdec:objectType="shape" height="63.55px" width="117.8px" xmlns="http://www.w3.org/2000/svg">
  <g transform="matrix(1.0, 0.0, 0.0, 1.0, -29.95, 0.0)">
    <path d="M33.9 15.75 L33.9 15.7 34.0 15.0 34.05 15.0 34.85 10.15 35.65 7.75 35.5 7.75 35.7 7.2 35.8 7.05 Q36.0 4.0 37.4 2.6 L134.35 2.6 Q137.55 3.2 139.7 3.95 L141.75 3.95 Q144.9 4.9 146.3 6.1 L145.25 42.7 142.9 44.15 Q144.4 44.75 145.4 45.85 L146.5 52.25 146.55 55.35 146.35 56.6 146.55 56.6 Q146.25 61.25 143.45 62.8 L133.25 63.55 121.8 63.3 108.35 62.45 96.45 62.2 Q76.3 63.0 51.2 63.4 42.9 63.45 39.4 61.2 39.15 61.05 38.9 61.05 34.0 59.6 33.5 55.9 L33.65 55.9 33.65 55.85 33.5 55.7 33.5 55.15 33.45 55.15 Q32.85 52.65 32.5 49.85 L32.55 49.85 32.55 49.75 32.5 49.75 32.4 49.15 32.1 45.95 32.2 45.95 32.2 45.9 32.1 45.9 32.05 45.25 32.0 45.25 Q31.75 40.65 31.9 35.45 L31.9 34.65 31.9 34.6 32.1 30.8 31.75 30.85 32.2 30.75 32.2 30.45 32.2 30.05 32.2 30.0 32.3 28.3 32.4 28.3 32.4 27.6 32.4 27.55 32.7 24.5 32.8 24.5 32.8 24.45 32.75 24.45 32.75 23.65 32.8 23.65 33.8 15.75 33.9 15.75" fill="#1e0101" fill-opacity="0.36078432" fill-rule="evenodd" stroke="none"/>
    <path d="M147.45 3.5 L146.35 39.5 144.0 40.9 Q145.5 41.5 146.55 42.6 L147.65 48.9 147.7 51.9 147.55 53.2 147.7 53.2 Q147.4 57.75 144.55 59.3 L134.1 60.0 122.3 59.75 108.5 58.95 96.35 58.65 Q75.7 59.45 49.9 59.85 35.9 60.05 35.35 53.75 L35.2 53.2 35.5 53.2 35.35 52.4 35.2 51.9 Q31.35 35.85 36.6 7.75 L37.6 4.95 Q38.05 1.65 42.95 1.3 L42.95 1.35 142.85 1.35 Q146.0 2.25 147.45 3.5" fill="url(#gradient0)" fill-rule="evenodd" stroke="none"/>
    <path d="M144.0 3.1 L142.9 39.3 140.5 40.65 Q142.0 41.3 143.1 42.35 L144.2 48.65 Q144.8 55.85 141.05 57.75 L130.6 58.55 Q126.05 58.6 118.85 58.25 L105.0 57.5 92.85 57.15 46.4 58.4 Q32.4 58.6 31.85 52.25 27.8 36.05 33.15 7.45 L34.1 4.55 Q34.25 1.45 35.7 0.0 L135.2 0.0 Q141.75 1.15 144.0 3.1" fill="#c58c3f" fill-rule="evenodd" stroke="none"/>
    <path d="M30.5 27.75 L53.65 26.7 Q74.85 26.7 89.75 29.7 104.3 32.65 104.5 36.75 104.3 40.85 89.75 43.8 74.85 46.85 53.65 46.85 L30.8 45.8 30.6 45.8 Q30.4 44.3 30.35 42.7 L53.75 43.75 Q71.65 43.75 84.25 41.9 97.4 40.0 97.2 37.15 97.4 34.35 84.25 32.45 71.65 30.6 53.75 30.6 L30.15 31.6 30.35 27.8 30.5 27.75" fill="url(#gradient1)" fill-rule="evenodd" stroke="none"/>
    <path d="M30.25 32.35 L53.75 31.3 Q71.45 31.3 83.85 33.15 95.85 34.85 95.95 37.15 95.85 39.5 83.85 41.15 71.45 42.95 53.75 42.95 L30.4 42.0 30.25 42.0 Q29.95 37.45 30.15 32.35 L30.25 32.35" fill="url(#gradient2)" fill-rule="evenodd" stroke="none"/>
    <path d="M37.3 57.55 Q32.25 56.15 31.8 52.5 L58.0 53.3 Q72.45 52.9 98.6 46.6 118.5 41.75 141.65 41.7 L142.25 41.7 143.0 42.4 144.1 48.7 Q144.75 55.85 141.0 57.8 L130.5 58.55 118.7 58.3 104.95 57.5 92.75 57.2 Q72.15 57.95 46.3 58.4 L37.3 57.55" fill="url(#gradient3)" fill-rule="evenodd" stroke="none"/>
    <path d="M31.1 21.55 L55.5 19.85 Q77.45 18.95 100.7 24.55 119.95 29.15 143.1 29.55 L143.0 34.7 Q119.95 34.45 102.25 29.45 79.2 23.0 57.7 23.0 L30.6 24.6 30.9 21.55 31.1 21.55 M30.5 25.3 L30.7 25.3 57.7 23.7 Q78.9 23.7 101.65 30.15 119.6 35.15 142.9 35.4 L142.8 39.3 140.4 40.7 141.0 40.95 Q117.95 41.05 98.1 45.9 72.25 52.15 58.0 52.5 45.05 52.85 31.85 51.75 L31.7 51.75 30.7 46.5 53.65 47.6 Q75.15 47.6 90.25 44.5 105.85 41.35 105.75 36.75 105.85 32.2 90.25 29.05 75.15 25.95 53.65 25.95 L30.4 27.05 30.5 25.3 M143.3 22.55 L116.4 20.8 Q104.3 19.25 104.1 17.4 104.3 15.5 116.4 14.0 L143.7 12.25 143.3 22.55" fill="#c58c3f" fill-rule="evenodd" stroke="none"/>
    <path d="M143.2 25.95 Q123.65 25.35 110.0 22.95 95.65 20.4 95.55 17.05 95.65 13.75 110.0 11.2 123.75 8.7 143.8 8.1 L143.7 11.55 116.1 13.3 Q102.65 15.0 102.85 17.4 102.65 19.8 116.1 21.5 L143.3 23.3 143.2 25.95" fill="url(#gradient4)" fill-rule="evenodd" stroke="none"/>
    <path d="M32.05 13.0 L52.0 13.85 Q74.1 14.6 104.85 9.05 123.15 5.7 143.9 4.5 L143.8 7.4 Q123.55 8.0 109.6 10.45 94.1 13.25 94.3 17.05 94.1 20.85 109.6 23.6 123.35 26.1 143.2 26.75 L143.2 28.8 Q120.25 28.45 101.3 23.85 77.65 18.15 55.4 19.1 L31.0 20.8 32.05 13.0" fill="url(#gradient5)" fill-rule="evenodd" stroke="none"/>
    <path d="M143.5 29.55 Q120.15 29.15 100.7 24.55 77.45 18.95 55.5 19.85 L31.0 21.5 31.0 20.75 55.5 19.1 Q77.8 18.2 101.3 23.85 120.3 28.4 143.2 28.75 L143.15 29.5 143.5 29.55 M143.85 4.45 Q123.3 5.65 105.1 8.95 74.15 14.6 52.1 13.85 L32.15 12.95 32.25 12.25 52.1 13.1 Q73.85 13.85 104.3 8.25 122.85 4.9 144.0 3.75 L143.85 4.45 M143.8 8.05 Q123.95 8.65 110.2 11.1 95.8 13.7 95.8 17.0 95.8 20.4 110.2 22.95 123.75 25.35 143.2 26.05 L143.2 26.65 Q123.3 26.0 109.55 23.55 94.05 20.75 94.2 17.0 94.05 13.3 109.55 10.55 123.55 8.05 143.8 7.45 L143.8 8.05 M143.7 12.2 L116.5 13.9 Q104.4 15.45 104.15 17.35 104.4 19.3 116.5 20.8 L143.4 22.6 143.3 23.15 116.0 21.35 Q102.5 19.7 102.75 17.35 102.5 15.0 116.0 13.3 L143.7 11.55 143.7 12.2 M142.9 35.45 Q119.55 35.15 101.65 30.1 78.95 23.7 57.8 23.7 L30.6 25.3 30.6 24.55 57.8 22.95 Q79.25 22.95 102.25 29.45 120.0 34.4 143.0 34.65 L142.9 35.45 M142.2 41.65 Q118.7 41.65 98.6 46.55 72.55 52.9 58.1 53.3 L31.9 52.45 31.8 52.25 31.65 51.7 Q44.9 52.8 58.0 52.45 72.2 52.1 98.1 45.85 117.9 41.0 141.0 40.95 L142.2 41.65 M110.9 0.35 L116.15 0.35 104.6 2.25 Q73.7 7.85 51.0 6.25 L33.8 5.1 34.0 4.55 34.1 4.4 51.15 5.55 Q73.4 7.1 103.8 1.55 L110.9 0.35 M97.3 37.15 Q97.4 40.0 84.25 41.85 71.65 43.65 53.85 43.65 L30.3 42.65 30.25 42.0 53.85 42.95 Q71.5 42.95 83.95 41.15 95.85 39.45 96.0 37.15 95.85 34.8 83.95 33.15 71.5 31.3 53.85 31.3 L30.15 32.35 30.15 31.55 53.85 30.6 Q71.65 30.6 84.25 32.4 97.4 34.35 97.3 37.15 M105.75 36.75 Q105.95 41.3 90.25 44.45 75.15 47.55 53.75 47.55 L30.75 46.45 30.6 45.75 53.75 46.9 Q74.85 46.9 89.85 43.75 104.4 40.8 104.45 36.75 104.4 32.6 89.85 29.7 74.85 26.65 53.75 26.65 L29.95 27.85 30.45 27.75 30.45 27.0 53.75 26.0 Q75.15 26.0 90.25 29.0 105.95 32.2 105.75 36.75" fill="#ae7528" fill-rule="evenodd" stroke="none"/>
  </g>
  <defs>
    <linearGradient gradientTransform="matrix(0.0697, 0.0, 0.0, 0.0375, 90.65, 29.3)" gradientUnits="userSpaceOnUse" id="gradient0" spreadMethod="pad" x1="-819.2" x2="819.2">
      <stop offset="0.0" stop-color="#231204"/>
      <stop offset="0.5568627450980392" stop-color="#4f2909"/>
      <stop offset="1.0" stop-color="#693408"/>
    </linearGradient>
    <linearGradient gradientTransform="matrix(0.0454, 0.0034, -0.0033, 0.0125, 66.75, 36.2)" gradientUnits="userSpaceOnUse" id="gradient1" spreadMethod="pad" x1="-819.2" x2="819.2">
      <stop offset="0.0" stop-color="#b17536"/>
      <stop offset="1.0" stop-color="#ce9744"/>
    </linearGradient>
    <linearGradient gradientTransform="matrix(0.0272, 0.0158, -0.0105, 0.005, 62.85, 36.7)" gradientUnits="userSpaceOnUse" id="gradient2" spreadMethod="pad" x1="-819.2" x2="819.2">
      <stop offset="0.0" stop-color="#b17536"/>
      <stop offset="1.0" stop-color="#ce9744"/>
    </linearGradient>
    <linearGradient gradientTransform="matrix(-0.183, 0.0208, -0.0042, -0.0121, 101.95, 35.95)" gradientUnits="userSpaceOnUse" id="gradient3" spreadMethod="pad" x1="-819.2" x2="819.2">
      <stop offset="0.0" stop-color="#b17536"/>
      <stop offset="1.0" stop-color="#ce9744"/>
    </linearGradient>
    <linearGradient gradientTransform="matrix(0.0505, 0.0, 0.0, 0.0109, 109.6, 16.85)" gradientUnits="userSpaceOnUse" id="gradient4" spreadMethod="pad" x1="-819.2" x2="819.2">
      <stop offset="0.0" stop-color="#b17536"/>
      <stop offset="1.0" stop-color="#ce9744"/>
    </linearGradient>
    <linearGradient gradientTransform="matrix(0.1568, -0.0101, 0.003, 0.0146, 47.95, 19.35)" gradientUnits="userSpaceOnUse" id="gradient5" spreadMethod="pad" x1="-819.2" x2="819.2">
      <stop offset="0.0" stop-color="#b17536"/>
      <stop offset="1.0" stop-color="#ce9744"/>
    </linearGradient>
  </defs>
</svg>
