<?xml version="1.0" encoding="UTF-8" standalone="no"?>
<svg xmlns:ffdec="https://www.free-decompiler.com/flash" xmlns:xlink="http://www.w3.org/1999/xlink" ffdec:objectType="shape" height="26.45px" width="59.3px" xmlns="http://www.w3.org/2000/svg">
  <g transform="matrix(1.0, 0.0, 0.0, 1.0, -25.3, 7.35)">
    <path d="M28.15 -4.0 L28.15 5.7 Q29.15 5.7 29.6 5.1 30.15 4.4 30.25 1.25 30.25 -1.65 30.05 -2.5 29.6 -4.4 28.15 -4.0 M27.8 -7.35 L30.25 -7.1 Q32.95 -6.2 33.2 1.6 33.1 6.3 31.3 8.05 L33.85 18.65 31.05 19.1 28.8 9.5 28.15 9.5 28.15 18.9 25.3 18.75 25.3 -7.1 27.8 -7.35 M67.85 -1.3 L67.85 -1.15 68.65 -1.15 70.3 8.95 71.8 -1.15 75.15 -1.3 75.95 18.95 73.25 19.1 72.9 8.75 71.55 16.25 69.2 16.6 67.6 8.4 67.4 19.1 64.6 19.1 65.25 -1.3 67.85 -1.3 M62.2 -1.3 Q62.8 3.8 62.8 7.95 L62.8 9.95 62.8 10.4 Q62.8 18.5 58.85 18.85 L58.15 18.95 Q55.8 18.95 54.9 16.95 54.1 14.45 54.1 9.65 L54.1 8.6 54.25 8.6 54.1 7.4 Q54.1 4.25 54.7 -0.7 L57.5 -0.5 Q57.05 5.15 57.15 8.6 57.05 12.65 57.25 14.0 57.5 15.25 58.5 15.6 59.4 15.7 59.65 13.9 L59.95 8.95 59.5 -1.05 62.2 -1.3 M42.3 -1.05 L42.4 2.0 38.95 2.1 38.8 6.05 41.65 6.05 41.5 9.2 38.8 9.2 38.7 15.6 42.3 15.7 42.2 18.95 35.9 18.85 36.1 -1.15 42.3 -1.05 M84.5 -1.05 L84.6 2.0 81.1 2.1 81.0 6.05 83.8 6.05 83.7 9.2 81.0 9.2 80.9 15.6 84.5 15.7 84.4 18.95 78.1 18.85 78.3 -1.15 84.5 -1.05 M52.1 5.7 L49.3 5.8 49.05 3.8 Q48.85 2.0 48.25 1.85 47.35 2.0 47.15 3.8 46.9 5.25 48.85 7.15 L51.55 10.4 Q52.1 11.75 52.1 13.35 52.1 14.8 51.55 16.4 50.95 18.85 48.4 19.1 45.55 19.1 44.9 16.5 44.35 14.7 44.1 12.65 L46.9 12.35 47.15 14.15 Q47.35 15.95 48.25 16.05 48.85 15.8 49.05 14.15 49.5 12.1 47.7 10.4 45.9 8.6 45.25 7.15 44.1 5.35 44.35 3.0 L44.65 1.55 Q45.35 -1.05 48.15 -1.15 50.65 -1.15 51.4 1.4 52.0 3.35 52.1 5.7" fill="#672208" fill-rule="evenodd" stroke="none"/>
  </g>
</svg>
