<?xml version="1.0" encoding="UTF-8" standalone="no"?>
<svg xmlns:ffdec="https://www.free-decompiler.com/flash" xmlns:xlink="http://www.w3.org/1999/xlink" ffdec:objectType="shape" height="24.85px" width="59.3px" xmlns="http://www.w3.org/2000/svg">
  <g transform="matrix(1.0, 0.0, 0.0, 1.0, -25.3, 5.75)">
    <path d="M27.8 -1.15 L30.25 -0.95 Q32.95 -0.25 33.2 5.7 33.1 9.3 31.3 10.65 L33.85 18.75 31.05 19.1 28.8 11.75 28.15 11.75 28.15 18.95 25.3 18.85 25.3 -0.95 27.8 -1.15 M57.5 -0.5 Q57.05 5.15 57.15 8.6 57.05 12.65 57.25 14.0 57.5 15.25 58.5 15.6 59.4 15.7 59.65 13.9 L59.95 8.95 59.5 -1.05 62.2 -1.3 Q62.8 3.8 62.8 7.95 L62.8 9.95 62.8 10.4 Q62.8 18.5 58.85 18.85 L58.15 18.95 Q55.8 18.95 54.9 16.95 54.1 14.45 54.1 9.65 L54.1 8.6 54.25 8.6 54.1 7.4 Q54.1 4.25 54.7 -0.7 L57.5 -0.5 M44.65 -2.45 Q45.35 -5.65 48.15 -5.75 50.65 -5.75 51.4 -2.65 52.0 -0.25 52.1 2.65 L49.3 2.75 49.05 0.3 Q48.85 -1.9 48.25 -2.1 47.35 -1.9 47.15 0.3 46.9 2.1 48.85 4.4 L51.55 8.4 Q52.1 10.05 52.1 12.05 52.1 13.8 51.55 15.8 50.95 18.8 48.4 19.1 45.55 19.1 44.9 15.9 44.35 13.7 44.1 11.15 L46.9 10.8 47.15 13.0 Q47.35 15.2 48.25 15.35 48.85 15.05 49.05 13.0 49.5 10.5 47.7 8.4 45.9 6.2 45.25 4.4 44.1 2.2 44.35 -0.65 L44.65 -2.45 M75.15 -1.3 L75.95 18.95 73.25 19.1 72.9 8.75 71.55 16.25 69.2 16.6 67.6 8.4 67.4 19.1 64.6 19.1 65.25 -1.3 67.85 -1.3 67.85 -1.15 68.65 -1.15 70.3 8.95 71.8 -1.15 75.15 -1.3 M42.3 -1.05 L42.4 2.0 38.95 2.1 38.8 6.05 41.65 6.05 41.5 9.2 38.8 9.2 38.7 15.6 42.3 15.7 42.2 18.95 35.9 18.85 36.1 -1.15 42.3 -1.05 M84.5 -1.05 L84.6 2.0 81.1 2.1 81.0 6.05 83.8 6.05 83.7 9.2 81.0 9.2 80.9 15.6 84.5 15.7 84.4 18.95 78.1 18.85 78.3 -1.15 84.5 -1.05 M28.15 1.4 L28.15 8.85 Q29.15 8.85 29.6 8.4 30.15 7.85 30.25 5.45 L30.05 2.55 Q29.6 1.1 28.15 1.4" fill="#672208" fill-rule="evenodd" stroke="none"/>
  </g>
</svg>
