<?xml version="1.0" encoding="UTF-8" standalone="no"?>
<svg xmlns:ffdec="https://www.free-decompiler.com/flash" xmlns:xlink="http://www.w3.org/1999/xlink" ffdec:objectType="shape" height="26.8px" width="59.3px" xmlns="http://www.w3.org/2000/svg">
  <g transform="matrix(1.0, 0.0, 0.0, 1.0, -25.3, 7.7)">
    <path d="M27.8 -1.15 L30.25 -0.95 Q32.95 -0.25 33.2 5.7 33.1 9.3 31.3 10.65 L33.85 18.75 31.05 19.1 28.8 11.75 28.15 11.75 28.15 18.95 25.3 18.85 25.3 -0.95 27.8 -1.15 M62.2 -7.7 Q62.8 -1.0 62.8 4.45 L62.8 7.1 62.8 7.7 Q62.8 18.35 58.85 18.8 L58.15 18.95 Q55.8 18.95 54.9 16.3 54.1 13.0 54.1 6.7 L54.1 5.3 54.25 5.3 Q54.1 4.6 54.1 3.75 54.1 -0.4 54.7 -6.9 L57.5 -6.65 Q57.05 0.8 57.15 5.3 57.05 10.65 57.25 12.4 57.5 14.05 58.5 14.55 59.4 14.65 59.65 12.3 L59.95 5.8 59.5 -7.4 62.2 -7.7 M67.85 -1.3 L67.85 -1.15 68.65 -1.15 70.3 8.95 71.8 -1.15 75.15 -1.3 75.95 18.95 73.25 19.1 72.9 8.75 71.55 16.25 69.2 16.6 67.6 8.4 67.4 19.1 64.6 19.1 65.25 -1.3 67.85 -1.3 M42.3 -1.05 L42.4 2.0 38.95 2.1 38.8 6.05 41.65 6.05 41.5 9.2 38.8 9.2 38.7 15.6 42.3 15.7 42.2 18.95 35.9 18.85 36.1 -1.15 42.3 -1.05 M84.5 -1.05 L84.6 2.0 81.1 2.1 81.0 6.05 83.8 6.05 83.7 9.2 81.0 9.2 80.9 15.6 84.5 15.7 84.4 18.95 78.1 18.85 78.3 -1.15 84.5 -1.05 M52.1 5.7 L49.3 5.8 49.05 3.8 Q48.85 2.0 48.25 1.85 47.35 2.0 47.15 3.8 46.9 5.25 48.85 7.15 L51.55 10.4 Q52.1 11.75 52.1 13.35 52.1 14.8 51.55 16.4 50.95 18.85 48.4 19.1 45.55 19.1 44.9 16.5 44.35 14.7 44.1 12.65 L46.9 12.35 47.15 14.15 Q47.35 15.95 48.25 16.05 48.85 15.8 49.05 14.15 49.5 12.1 47.7 10.4 45.9 8.6 45.25 7.15 44.1 5.35 44.35 3.0 L44.65 1.55 Q45.35 -1.05 48.15 -1.15 50.65 -1.15 51.4 1.4 52.0 3.35 52.1 5.7 M28.15 1.4 L28.15 8.85 Q29.15 8.85 29.6 8.4 30.15 7.85 30.25 5.45 L30.05 2.55 Q29.6 1.1 28.15 1.4" fill="#672208" fill-rule="evenodd" stroke="none"/>
  </g>
</svg>
