<?xml version="1.0" encoding="UTF-8" standalone="no"?>
<svg xmlns:ffdec="https://www.free-decompiler.com/flash" xmlns:xlink="http://www.w3.org/1999/xlink" ffdec:objectType="shape" height="8.55px" width="42.95px" xmlns="http://www.w3.org/2000/svg">
  <g transform="matrix(1.0, 0.0, 0.0, 1.0, -177.0, -327.15)">
    <path d="M177.45 331.85 L177.2 331.9 177.0 332.1 177.05 332.4 177.25 332.6 185.85 334.85 190.8 335.7 Q196.95 335.7 206.45 331.75 215.75 327.9 217.45 327.9 L218.6 328.05 218.55 328.05 219.4 328.3 219.65 328.35 219.9 328.1 219.9 327.85 219.7 327.6 218.75 327.3 217.45 327.15 Q215.65 327.15 206.15 331.05 196.8 334.9 190.8 334.9 189.15 334.9 186.05 334.1 L177.45 331.85" fill="#806340" fill-opacity="0.96862745" fill-rule="evenodd" stroke="none"/>
  </g>
</svg>
