<?xml version="1.0" encoding="UTF-8" standalone="no"?>
<svg xmlns:ffdec="https://www.free-decompiler.com/flash" xmlns:xlink="http://www.w3.org/1999/xlink" ffdec:objectType="shape" height="16.3px" width="70.9px" xmlns="http://www.w3.org/2000/svg">
  <g transform="matrix(1.0, 0.0, 0.0, 1.0, -100.5, -135.0)">
    <path d="M161.15 137.6 L161.1 140.75 163.35 140.75 163.25 143.3 161.05 143.3 161.0 148.45 163.85 148.5 163.8 151.1 158.75 151.05 158.95 135.05 163.85 135.05 163.9 137.6 161.15 137.6 M170.85 137.15 L171.35 140.55 169.15 140.6 169.0 138.95 Q168.8 137.55 168.35 137.45 167.65 137.6 167.45 138.95 167.25 140.15 168.8 141.7 L170.9 144.3 Q171.4 145.4 171.4 146.6 171.4 147.75 171.0 149.0 170.45 151.1 168.4 151.25 166.25 151.2 165.65 149.15 165.2 147.65 165.05 146.1 L167.25 145.8 167.45 147.25 Q167.65 148.7 168.35 148.75 168.8 148.65 168.95 147.2 169.3 145.7 167.9 144.25 166.4 142.85 165.9 141.7 165.05 140.25 165.25 138.35 L165.5 137.15 Q166.05 135.15 168.25 135.0 170.3 135.05 170.85 137.15 M152.6 135.05 L154.65 135.2 Q156.75 135.8 156.95 140.55 156.8 143.35 155.45 144.5 L157.45 150.95 155.25 151.25 153.45 145.35 152.85 145.4 152.85 151.1 150.6 151.05 150.6 135.2 152.6 135.05 M145.8 137.55 Q145.1 137.6 144.95 139.05 L144.75 143.15 144.95 147.25 Q145.1 148.65 145.8 148.75 146.5 148.7 146.65 147.25 L146.85 143.15 146.7 139.0 Q146.5 137.6 145.8 137.5 L145.8 137.55 M145.75 135.05 Q147.95 135.1 148.5 137.15 149.1 139.25 149.1 143.15 149.1 147.05 148.5 149.15 147.95 151.2 145.75 151.25 143.5 151.1 142.95 149.05 142.4 147.05 142.4 143.15 L142.45 143.15 Q142.45 139.25 142.95 137.2 143.55 135.2 145.75 135.05 M154.4 137.95 Q154.1 136.85 152.85 137.05 L152.85 143.05 154.1 142.65 Q154.55 142.25 154.65 140.3 L154.4 137.95 M130.2 135.0 Q132.25 135.05 132.8 137.15 L133.35 140.55 131.1 140.6 130.95 138.95 Q130.8 137.55 130.3 137.45 129.6 137.6 129.45 138.95 129.2 140.15 130.8 141.7 L132.9 144.3 Q133.35 145.4 133.35 146.6 133.35 147.75 132.95 149.0 132.45 151.1 130.35 151.25 128.2 151.2 127.6 149.15 L127.0 146.1 129.2 145.8 129.45 147.25 Q129.6 148.7 130.3 148.75 130.8 148.65 130.95 147.2 131.25 145.7 129.85 144.25 128.4 142.85 127.85 141.7 127.0 140.25 127.2 138.35 L127.5 137.15 Q128.0 135.15 130.2 135.0 M140.7 137.15 L141.15 141.0 139.0 141.3 138.8 139.0 Q138.65 137.6 138.0 137.55 137.25 137.65 137.1 139.05 136.95 140.45 136.95 143.15 136.95 145.85 137.1 147.25 137.25 148.65 138.0 148.75 138.65 148.7 138.85 147.3 L139.0 144.95 141.2 145.1 Q141.1 147.6 140.7 149.15 140.1 151.2 137.9 151.25 135.65 151.1 135.15 149.1 134.6 147.05 134.6 143.15 L134.55 143.15 Q134.55 139.25 135.15 137.2 135.65 135.2 137.9 135.05 140.1 135.1 140.7 137.15 M117.5 135.05 L117.5 148.65 120.6 148.35 120.7 150.8 115.3 151.05 115.35 135.05 117.5 135.05 M113.8 150.8 L108.4 151.05 108.45 135.05 110.6 135.05 110.6 148.65 113.7 148.35 113.8 150.8 M105.2 135.0 L107.45 150.75 105.3 150.8 104.95 148.55 103.0 148.65 102.75 151.25 100.5 151.3 102.45 135.2 105.2 135.0 M104.65 146.35 L103.8 140.95 103.25 146.3 104.65 146.35" fill="#333333" fill-rule="evenodd" stroke="none"/>
    <path d="M168.5 137.6 L168.55 137.55 Q169.1 137.6 169.25 139.05 L169.4 140.65 169.15 140.65 169.0 139.0 Q168.85 137.85 168.5 137.6 M168.25 135.05 L169.1 135.15 168.5 135.1 Q166.3 135.2 165.75 137.25 L165.5 138.45 Q165.3 140.35 166.15 141.8 166.7 142.95 168.1 144.35 169.55 145.75 169.2 147.3 169.1 148.75 168.55 148.85 L168.35 148.8 Q168.8 148.6 168.95 147.25 169.3 145.7 167.85 144.3 166.45 142.9 165.9 141.75 165.0 140.25 165.25 138.4 L165.5 137.2 Q166.05 135.15 168.25 135.05 M163.8 135.15 L159.2 135.15 159.0 151.05 158.75 151.05 158.95 135.05 163.8 135.1 163.8 135.15 M163.35 140.8 L163.35 140.85 161.35 140.8 161.35 140.75 163.35 140.8 M167.25 145.9 L165.3 146.2 Q165.45 147.75 165.9 149.2 166.35 150.8 167.75 151.2 166.15 150.85 165.65 149.15 165.2 147.7 165.0 146.1 L167.2 145.85 167.25 145.9 M163.85 148.5 L163.85 148.55 161.25 148.55 161.25 148.5 163.85 148.5 M150.85 135.25 L150.85 151.05 150.6 151.05 150.6 135.2 152.6 135.05 154.65 135.2 154.8 135.25 152.85 135.15 150.85 135.25 M138.85 135.2 L138.15 135.15 Q135.9 135.25 135.4 137.3 134.8 139.3 134.8 143.25 L134.85 143.25 Q134.85 147.15 135.4 149.2 135.75 150.8 137.25 151.2 135.55 150.85 135.15 149.1 134.6 147.1 134.6 143.2 L134.55 143.2 Q134.55 139.25 135.15 137.25 135.65 135.2 137.9 135.05 L138.85 135.2 M138.2 137.6 Q138.9 137.7 139.05 139.1 L139.25 141.3 139.0 141.3 138.8 139.0 Q138.65 137.85 138.2 137.6 M145.75 135.05 L146.7 135.2 146.0 135.15 Q143.8 135.25 143.2 137.3 142.7 139.3 142.7 143.2 L142.65 143.2 Q142.65 147.15 143.2 149.15 143.65 150.8 145.2 151.2 143.45 150.85 142.95 149.1 142.4 147.05 142.4 143.15 L142.45 143.15 Q142.45 139.25 142.95 137.25 143.55 135.2 145.75 135.05 M146.1 137.6 Q146.75 137.7 146.95 139.1 L147.05 143.2 146.9 147.35 Q146.75 148.75 146.1 148.85 L145.85 148.8 Q146.5 148.65 146.65 147.3 L146.8 143.15 146.7 139.0 Q146.55 137.9 146.1 137.6 M153.45 145.45 L153.7 145.45 155.45 151.2 155.25 151.25 153.45 145.45 M154.4 137.95 Q154.2 137.3 153.7 137.1 154.4 137.2 154.65 138.05 L154.9 140.4 Q154.75 142.3 154.3 142.75 153.95 143.1 153.15 143.15 L153.15 143.05 Q153.75 142.95 154.05 142.65 154.5 142.25 154.65 140.35 L154.4 137.95 M141.2 145.15 L139.25 145.05 139.1 147.4 Q138.9 148.8 138.2 148.85 L138.05 148.8 Q138.65 148.65 138.85 147.35 L139.0 145.0 141.2 145.1 141.2 145.15 M130.45 135.1 Q128.25 135.2 127.7 137.25 L127.45 138.45 Q127.25 140.35 128.1 141.8 128.6 142.95 130.1 144.35 131.5 145.75 131.15 147.3 131.05 148.75 130.55 148.85 L130.3 148.8 Q130.8 148.6 130.9 147.25 131.25 145.7 129.8 144.3 128.35 142.9 127.85 141.75 127.0 140.25 127.2 138.4 L127.45 137.2 Q128.0 135.15 130.2 135.05 L131.05 135.15 130.45 135.1 M130.45 137.6 L130.55 137.55 Q131.05 137.6 131.25 139.05 L131.35 140.65 131.1 140.65 130.95 139.0 Q130.8 137.85 130.45 137.6 M129.2 145.9 L127.25 146.2 127.85 149.2 Q128.3 150.8 129.7 151.2 128.1 150.85 127.6 149.15 127.15 147.7 127.0 146.1 L129.2 145.85 129.2 145.9 M117.5 135.15 L115.6 135.15 115.55 151.05 115.3 151.05 115.35 135.05 117.5 135.1 117.5 135.15 M120.6 148.5 L117.75 148.75 117.75 148.65 120.6 148.4 120.6 148.5 M113.7 148.5 L110.85 148.75 110.85 148.65 113.7 148.4 113.7 148.5 M103.95 141.95 L104.05 141.05 104.9 146.45 103.5 146.4 103.5 146.35 104.65 146.35 103.95 141.95 M105.2 135.05 L105.25 135.15 102.7 135.3 100.8 151.3 100.5 151.3 102.45 135.25 105.2 135.05 M108.7 135.15 L108.6 151.05 108.35 151.05 108.45 135.05 110.6 135.1 110.6 135.15 108.7 135.15 M105.25 148.65 L105.55 150.85 105.3 150.85 105.0 148.7 105.25 148.65" fill="#808080" fill-rule="evenodd" stroke="none"/>
  </g>
</svg>
