<?xml version="1.0" encoding="UTF-8" standalone="no"?>
<svg xmlns:ffdec="https://www.free-decompiler.com/flash" xmlns:xlink="http://www.w3.org/1999/xlink" ffdec:objectType="shape" height="480.5px" width="640.95px" xmlns="http://www.w3.org/2000/svg">
  <g transform="matrix(1.0, 0.0, 0.0, 1.0, 0.0, 0.0)">
    <path d="M640.0 0.5 L640.0 480.5 0.0 480.5 0.0 0.5 640.0 0.5" fill="url(#gradient0)" fill-rule="evenodd" stroke="none"/>
    <path d="M134.35 1.0 Q126.0 15.65 125.8 25.0 128.65 33.35 139.9 43.85 151.1 54.35 137.35 61.9 123.55 69.45 109.4 70.5 95.25 71.55 101.4 73.95 107.55 76.35 110.95 79.3 122.45 82.95 106.9 84.3 91.35 85.55 90.0 87.05 L90.2 87.7 Q111.2 90.4 108.15 93.95 105.1 97.5 97.9 99.1 90.65 100.75 90.6 101.4 L90.35 103.9 Q90.3 104.55 105.45 106.35 120.6 108.2 104.75 110.7 88.9 113.15 76.35 112.9 74.15 118.3 72.8 124.25 L72.6 125.5 72.35 126.7 Q71.4 130.25 72.85 136.65 74.25 142.95 86.7 149.3 99.1 155.65 78.05 159.35 57.0 163.05 53.4 165.9 114.7 179.65 94.5 185.7 74.25 191.8 82.2 208.8 90.15 225.8 94.85 227.1 99.5 228.45 113.25 235.6 125.7 242.15 83.15 239.95 98.55 252.0 91.75 255.75 L78.1 263.35 Q77.3 265.3 75.95 267.05 77.1 273.85 81.85 275.5 91.4 279.05 110.4 288.8 129.35 298.6 113.25 305.05 97.2 311.5 101.8 317.2 102.95 321.45 105.8 323.75 112.8 329.6 121.35 328.5 125.9 328.05 128.95 333.5 132.95 340.65 131.35 350.15 143.75 353.9 152.9 359.65 157.8 362.65 153.25 364.95 197.15 377.8 169.3 385.7 141.55 393.55 146.4 399.0 151.3 404.4 208.3 413.05 265.2 421.7 239.15 428.3 213.05 434.8 222.2 439.75 231.4 444.65 262.5 455.5 293.6 466.4 302.5 472.4 303.8 473.45 302.3 475.5 298.85 480.55 293.45 480.5 L257.35 479.85 259.3 477.6 Q260.8 475.55 259.5 474.65 250.65 468.75 219.5 458.4 188.35 448.0 179.2 443.3 170.05 438.65 196.15 432.35 222.2 426.0 165.25 417.75 108.3 409.4 103.4 404.25 98.55 399.0 126.3 391.5 154.1 383.95 110.25 371.6 114.75 369.4 109.9 366.5 100.7 361.05 88.35 357.4 89.95 348.35 85.9 341.45 82.9 336.25 78.35 336.75 69.8 337.7 62.8 332.2 59.95 329.9 58.8 325.9 54.15 320.3 70.25 314.25 86.35 308.05 67.45 298.6 48.4 289.25 38.85 285.9 34.1 284.35 32.95 277.8 34.3 276.15 35.1 274.25 41.9 270.55 48.75 267.05 55.5 263.4 40.1 251.8 82.7 253.9 70.25 247.65 56.5 240.75 52.6 240.7 48.75 240.55 56.0 231.4 63.25 222.2 53.1 211.4 42.95 200.6 10.4 180.8 13.95 178.1 21.05 178.85 28.15 179.55 32.9 169.05 37.65 158.55 22.3 152.85 6.9 147.15 18.25 144.95 29.55 142.75 29.6 142.15 29.65 141.6 18.75 137.45 7.8 133.3 33.35 130.15 38.9 130.4 44.05 127.1 46.15 125.9 47.15 122.5 L47.4 121.4 47.6 119.05 47.65 117.85 Q47.65 117.2 36.05 112.5 24.4 107.75 47.15 105.85 L47.0 105.3 Q48.4 103.9 50.05 103.55 59.35 101.95 67.9 97.9 L68.45 96.6 69.3 94.3 Q69.6 93.7 62.75 92.5 L47.5 89.4 Q39.05 87.45 54.9 86.75 70.7 85.95 70.8 83.6 L70.95 81.15 Q0.65 74.75 79.95 57.95 110.0 49.65 44.25 1.0 L134.35 1.0" fill="url(#gradient1)" fill-rule="evenodd" stroke="none"/>
    <path d="M501.65 29.85 Q528.35 34.0 510.05 38.35 491.7 42.65 487.0 42.1 482.3 41.45 482.0 47.05 481.75 52.6 497.85 57.15 513.95 61.6 494.3 66.15 474.65 70.65 478.9 82.1 483.1 93.55 492.1 102.25 501.1 110.95 502.4 116.9 503.6 122.8 506.7 122.95 509.75 123.05 520.6 128.8 530.45 134.1 496.8 132.35 508.95 142.15 503.65 145.15 498.2 148.2 492.85 151.3 492.2 152.9 491.15 154.3 492.0 159.85 495.8 161.2 503.35 164.05 518.35 171.95 533.35 179.9 520.6 185.15 507.9 190.3 511.55 195.0 512.5 198.4 514.75 200.35 520.25 205.05 527.0 204.15 530.65 203.75 533.0 208.15 536.15 214.05 534.95 221.7 544.7 224.75 551.95 229.4 555.8 231.8 552.2 233.7 586.9 244.1 564.95 250.55 542.95 256.85 546.8 261.3 550.65 265.65 595.65 272.7 640.65 279.7 620.05 285.05 599.45 290.4 606.7 294.35 613.95 298.35 638.55 307.15 L640.95 308.05 640.95 326.95 634.5 326.85 636.0 325.1 Q637.2 323.4 636.15 322.65 629.15 317.9 596.6 309.3 564.1 300.75 551.2 296.85 538.35 292.95 572.5 288.1 606.7 283.2 561.7 276.5 516.7 269.75 512.85 265.55 508.95 261.3 530.95 255.2 552.9 249.1 508.75 240.85 521.8 237.3 517.95 234.95 510.7 230.55 500.95 227.6 502.2 220.25 499.2 215.3 496.15 210.3 485.25 209.3 474.3 208.25 464.65 206.2 454.95 204.15 477.55 202.05 473.9 197.55 486.65 192.55 499.4 187.55 484.4 179.9 469.35 172.35 461.8 169.6 458.05 168.3 457.15 163.05 458.25 161.7 458.85 160.15 464.2 157.15 469.65 154.3 475.0 151.35 462.8 141.95 496.45 143.65 485.2 137.95 473.85 132.25 462.3 128.85 450.7 125.45 468.75 118.0 486.75 110.55 478.75 101.8 472.05 94.5 444.25 91.45 416.4 88.95 439.3 84.4 451.3 79.4 455.9 80.05 460.5 80.7 455.45 74.3 450.4 67.9 454.25 62.45 458.1 56.95 459.85 55.15 461.65 53.3 448.65 52.45 435.65 51.5 428.85 48.5 422.05 45.5 431.75 44.55 461.85 43.5 465.9 40.85 467.55 39.85 468.4 37.15 L468.55 36.2 468.75 34.3 Q468.8 33.8 455.1 30.4 441.45 27.0 427.95 21.7 420.1 18.55 454.7 17.55 461.6 20.15 451.15 0.0 L464.4 0.0 Q485.8 27.4 501.65 29.85" fill="url(#gradient2)" fill-rule="evenodd" stroke="none"/>
  </g>
  <defs>
    <linearGradient gradientTransform="matrix(0.0, 0.293, -0.3906, 0.0, 320.0, 240.45)" gradientUnits="userSpaceOnUse" id="gradient0" spreadMethod="pad" x1="-819.2" x2="819.2">
      <stop offset="0.0" stop-color="#1b52a2"/>
      <stop offset="1.0" stop-color="#007efa"/>
    </linearGradient>
    <linearGradient gradientTransform="matrix(-0.2723, -0.2154, 0.1884, -0.1987, 80.05, 344.95)" gradientUnits="userSpaceOnUse" id="gradient1" spreadMethod="pad" x1="-819.2" x2="819.2">
      <stop offset="0.0" stop-color="#fcfcfc" stop-opacity="0.16862746"/>
      <stop offset="0.9882352941176471" stop-color="#ffffff" stop-opacity="0.0"/>
    </linearGradient>
    <linearGradient gradientTransform="matrix(-0.2014, -0.1565, 0.0753, -0.0969, 534.35, 157.45)" gradientUnits="userSpaceOnUse" id="gradient2" spreadMethod="pad" x1="-819.2" x2="819.2">
      <stop offset="0.0" stop-color="#fcfcfc" stop-opacity="0.16862746"/>
      <stop offset="0.9882352941176471" stop-color="#ffffff" stop-opacity="0.0"/>
    </linearGradient>
  </defs>
</svg>
