<?xml version="1.0" encoding="UTF-8" standalone="no"?>
<svg xmlns:ffdec="https://www.free-decompiler.com/flash" xmlns:xlink="http://www.w3.org/1999/xlink" ffdec:objectType="shape" height="480.95px" width="640.5px" xmlns="http://www.w3.org/2000/svg">
  <g transform="matrix(1.0, 0.0, 0.0, 1.0, 0.0, 0.0)">
    <path d="M640.4 0.0 L640.4 480.95 0.0 480.95 0.0 0.0 640.4 0.0" fill="#0065a8" fill-rule="evenodd" stroke="none"/>
    <path d="M31.0 269.8 Q49.2 275.35 34.15 286.65 L15.15 301.4 Q14.35 304.25 13.8 307.25 13.4 309.9 13.4 312.65 23.95 315.85 30.05 324.15 33.4 328.65 31.7 334.25 30.85 337.4 30.45 340.65 41.0 350.8 55.4 355.25 58.55 356.15 59.75 359.15 64.35 370.4 77.85 373.25 84.15 374.55 86.7 380.6 90.15 388.8 92.55 397.6 L99.35 397.55 Q105.5 397.2 108.25 402.7 L108.6 403.4 108.85 404.2 109.2 407.3 Q117.6 411.4 124.95 416.55 125.35 416.9 124.95 417.55 134.05 420.05 144.0 419.7 162.65 419.05 170.85 432.7 172.6 435.75 174.9 437.8 191.45 452.25 216.9 457.95 253.0 466.1 286.45 479.8 L286.95 480.0 3.4 480.0 3.4 261.1 31.0 269.8" fill="url(#gradient0)" fill-rule="evenodd" stroke="none"/>
    <path d="M201.85 420.2 Q199.5 417.45 199.5 416.7 199.5 413.65 204.2 413.1 206.65 412.8 209.6 413.1 210.35 413.1 213.95 411.9 L214.6 412.15 215.25 412.4 Q216.25 412.4 217.4 411.1 218.5 409.9 217.8 409.0 218.65 406.2 222.5 403.5 226.7 400.55 230.2 400.55 233.15 400.55 233.15 403.8 233.15 405.8 231.5 408.3 229.85 410.8 229.85 413.55 229.85 416.0 232.55 416.6 234.15 416.9 238.4 416.55 242.75 416.2 244.3 416.55 247.0 417.05 247.0 419.55 L246.7 421.45 Q246.35 422.35 246.35 422.9 246.35 425.05 248.1 426.15 249.3 426.95 252.3 427.6 L257.45 428.85 Q260.45 429.8 262.1 431.4 262.8 432.1 279.65 435.05 296.2 438.6 296.2 442.3 296.2 445.45 291.25 446.7 L284.8 447.4 262.55 445.3 256.95 446.0 247.95 446.7 Q240.95 446.7 238.3 445.3 236.6 444.35 236.3 442.2 236.05 439.75 235.3 439.1 233.75 437.65 228.55 437.65 226.5 437.65 222.25 438.95 218.05 440.2 216.05 440.2 213.55 440.2 212.75 439.3 212.4 438.85 212.2 437.2 211.95 435.75 211.1 435.1 209.7 434.2 206.3 434.2 205.85 434.2 200.2 435.7 194.5 437.2 189.7 437.2 L184.4 436.95 Q182.75 436.7 182.75 435.55 182.75 434.35 186.1 433.4 L193.45 431.65 Q204.2 429.2 204.2 425.35 204.2 422.95 201.85 420.2" fill="url(#gradient1)" fill-rule="evenodd" stroke="none"/>
    <path d="M0.3 44.8 L0.3 41.4 Q6.65 39.35 6.65 37.45 6.65 34.8 7.15 34.05 8.25 32.45 12.0 32.45 15.5 32.45 20.15 34.35 24.15 36.2 24.65 36.2 26.45 36.2 30.15 32.5 33.9 28.85 34.55 28.85 36.4 28.85 38.7 30.2 41.25 31.65 41.25 33.45 41.25 34.7 42.8 35.5 L45.5 36.05 Q48.75 36.05 51.25 32.8 52.4 31.3 55.35 25.5 57.5 21.4 39.25 17.25 L60.25 18.2 Q63.65 14.9 68.35 14.9 70.95 14.9 72.3 15.75 73.95 16.8 73.95 19.2 73.95 30.7 77.6 35.55 80.3 39.05 85.65 39.45 91.5 39.2 93.75 39.65 97.4 40.3 97.4 44.85 97.4 45.45 96.15 46.55 94.85 47.7 94.85 49.3 94.85 53.2 101.0 55.6 L106.3 57.15 Q108.55 59.95 114.25 64.4 131.85 68.9 127.7 71.6 123.55 74.25 116.7 73.85 L105.2 72.55 Q100.4 71.6 95.9 71.6 L90.9 72.3 84.7 72.75 75.4 71.75 68.9 70.8 63.25 74.95 Q57.2 79.05 50.25 79.05 45.05 79.05 41.85 77.65 40.25 76.9 20.95 74.65 38.8 75.2 38.8 74.2 38.8 73.75 39.3 72.5 L39.75 70.8 Q39.75 70.05 36.2 67.8 32.65 65.7 32.65 62.25 32.65 60.85 34.25 58.95 26.9 59.4 16.7 51.3 12.4 47.9 0.3 44.8" fill="url(#gradient2)" fill-rule="evenodd" stroke="none"/>
    <path d="M460.75 225.55 Q458.25 233.95 451.4 239.55 446.0 243.95 441.95 248.9 437.2 254.65 438.15 261.9 438.9 267.4 432.5 267.4 430.25 267.4 428.05 268.5 427.3 269.05 426.95 269.9 424.75 276.3 417.25 276.0 415.5 275.95 413.7 276.95 414.05 277.4 414.6 277.65 418.95 279.4 423.55 280.75 425.35 281.25 426.4 282.6 439.5 287.35 428.7 288.5 414.25 297.55 421.9 304.5 431.2 312.9 422.65 314.5 414.15 316.1 409.85 304.0 408.95 301.4 409.85 298.9 404.8 299.1 397.65 296.35 391.4 293.95 390.45 287.95 L390.2 284.6 Q388.4 282.85 376.75 282.45 372.7 282.25 370.7 282.5 363.5 277.1 382.95 273.5 402.3 269.85 394.9 265.1 387.4 260.3 392.55 256.05 407.95 254.5 410.8 253.5 L426.05 247.45 Q426.5 243.3 411.0 242.55 395.55 241.75 404.1 237.9 435.15 232.25 439.75 228.3 445.2 223.6 451.85 222.1 L453.15 222.15 457.15 222.35 Q458.95 222.55 460.1 224.05 L460.75 225.55" fill="url(#gradient3)" fill-rule="evenodd" stroke="none"/>
    <path d="M491.05 33.05 Q465.6 39.9 449.05 57.2 446.7 59.6 454.35 70.8 461.95 82.05 443.25 81.3 424.6 80.55 383.7 89.25 L382.95 97.25 382.75 98.15 382.4 99.05 Q379.65 105.6 373.45 105.15 349.25 103.75 328.8 119.75 L328.65 121.55 328.2 125.0 327.75 127.75 327.5 128.6 327.05 129.5 326.1 131.25 325.55 132.15 Q316.4 135.15 306.45 136.4 304.65 136.6 303.2 137.65 L303.4 138.1 Q304.2 142.0 303.95 146.1 L303.9 146.95 303.85 147.85 303.6 149.6 303.35 150.45 Q302.3 152.95 300.05 153.85 294.55 156.3 288.6 156.1 286.25 159.9 284.8 164.15 L284.6 165.0 284.35 165.85 Q283.3 168.4 283.1 171.2 282.6 178.2 281.55 185.05 280.35 192.9 272.15 192.1 267.9 191.7 264.1 193.7 L270.9 201.7 271.65 202.65 272.25 203.35 Q290.25 221.4 308.25 237.5 323.35 251.05 305.1 257.65 280.65 266.45 257.25 276.4 254.7 277.5 252.05 278.95 253.15 282.65 252.7 286.85 L252.6 287.75 252.35 288.7 Q251.9 290.55 250.8 292.0 244.1 300.65 233.25 297.1 230.35 296.1 229.7 292.8 219.85 294.15 211.4 287.6 L210.75 286.85 210.3 286.0 Q209.35 284.65 208.85 283.2 208.0 280.75 206.75 278.7 205.85 277.25 206.0 275.35 193.9 274.75 183.7 269.45 183.35 269.35 183.1 268.85 L182.5 268.15 Q180.7 266.65 179.45 264.7 177.7 261.8 176.85 258.5 165.8 257.75 155.7 252.45 L154.4 251.65 153.45 250.75 Q148.95 246.1 145.05 240.95 136.35 229.3 122.65 222.65 119.45 221.15 120.25 216.45 114.3 208.8 105.1 209.0 103.8 209.1 102.65 208.6 L101.35 207.65 Q95.0 198.3 100.8 188.3 109.65 172.95 124.35 165.15 133.35 160.4 139.5 150.0 L142.6 145.2 Q137.95 142.75 137.85 137.2 L137.8 136.35 137.8 135.45 Q137.8 132.75 138.7 130.55 142.25 121.4 149.9 115.5 L164.95 103.45 Q161.8 99.9 160.35 95.5 L160.2 94.6 160.2 93.7 160.4 90.2 Q161.0 85.15 165.05 83.25 173.75 79.1 178.3 74.2 177.5 72.5 176.1 71.45 172.8 68.85 169.05 67.25 L167.8 66.4 167.05 65.55 166.5 64.75 Q165.75 60.6 166.9 56.75 L167.3 55.9 167.95 54.95 Q169.65 52.6 171.95 51.25 179.0 47.15 186.6 45.3 L195.7 42.85 Q194.25 41.05 191.5 40.05 187.8 38.7 184.65 36.0 L183.65 35.1 182.85 34.25 Q182.0 30.25 182.75 26.3 L183.15 25.4 183.7 24.4 Q185.7 19.85 190.2 19.25 207.65 16.9 221.45 8.3 224.15 6.6 226.15 3.8 225.9 1.95 226.15 0.2 L568.7 0.2 Q566.35 4.2 560.6 7.0 527.15 23.35 491.05 33.05" fill="url(#gradient4)" fill-rule="evenodd" stroke="none"/>
    <path d="M285.85 381.95 Q286.15 378.8 287.15 375.95 288.1 373.2 290.2 371.4 L288.25 376.95 Q287.1 379.95 287.3 383.15 287.5 386.2 286.0 387.5 285.6 384.8 285.85 381.95" fill="url(#gradient5)" fill-rule="evenodd" stroke="none"/>
    <path d="M157.0 42.4 Q147.2 56.3 148.7 72.9 149.0 75.8 150.15 78.65 157.7 97.05 142.0 110.65 132.4 118.95 133.1 131.5 133.95 146.7 132.55 161.45 132.35 163.75 131.35 165.65 129.7 163.6 129.85 159.75 130.25 144.3 131.15 128.9 132.05 112.65 144.9 101.4 150.0 96.95 149.85 90.3 149.75 82.05 146.8 74.3 145.55 70.9 145.95 67.25 147.8 49.85 159.15 36.3 159.45 38.95 157.0 42.4" fill="url(#gradient6)" fill-rule="evenodd" stroke="none"/>
    <path d="M340.3 84.25 Q348.65 67.8 363.3 56.15 359.1 66.85 348.75 78.35 340.5 87.65 341.1 100.05 341.75 112.25 348.1 123.15 351.75 129.35 346.8 135.15 337.4 146.2 330.95 158.75 L324.95 170.7 Q324.8 171.05 323.85 171.05 325.25 148.6 343.7 131.6 347.0 128.5 344.9 124.4 339.95 115.05 337.7 104.8 335.3 94.0 340.3 84.25" fill="url(#gradient7)" fill-rule="evenodd" stroke="none"/>
    <path d="M538.95 30.2 Q540.6 28.4 543.65 27.65 L550.3 26.55 Q556.85 25.85 561.9 22.55 568.55 -0.25 580.3 15.8 592.75 32.8 611.45 22.25 619.65 17.6 609.0 29.1 601.15 37.55 593.9 42.15 L596.15 42.65 603.7 43.0 Q608.55 42.65 612.25 44.35 608.0 47.2 601.95 48.2 594.7 49.4 588.45 46.0 L587.55 45.45 Q580.65 49.3 611.3 49.85 605.75 53.95 602.8 56.8 L606.15 56.95 611.95 56.85 Q612.5 56.85 612.8 57.2 612.2 58.7 610.5 59.55 607.6 60.9 604.45 59.95 L600.75 59.0 Q598.2 62.25 600.9 62.9 620.55 59.85 626.05 65.85 631.5 71.8 610.65 79.05 636.05 75.95 640.5 78.15 L640.5 82.0 Q638.2 84.75 630.75 88.95 618.3 95.9 631.05 109.15 643.8 122.3 619.05 131.6 616.05 132.75 613.55 133.9 617.45 135.7 622.6 139.2 614.9 150.05 633.1 144.8 638.1 143.35 640.5 143.2 L640.5 146.7 Q635.3 151.2 618.0 161.5 L618.05 161.6 Q624.0 164.4 631.45 162.6 635.05 161.7 638.25 163.75 639.85 164.75 639.15 166.4 630.75 169.1 622.3 170.85 632.85 174.55 640.5 176.2 L640.5 185.3 624.25 189.15 Q617.1 190.75 612.75 192.2 L612.65 192.4 Q617.15 193.35 620.1 197.35 621.05 198.7 621.0 199.85 L625.8 198.85 Q630.05 198.1 632.85 201.0 635.7 203.85 630.1 208.25 624.5 212.7 617.1 216.35 616.3 237.45 608.45 254.45 607.25 257.0 607.3 260.0 L606.8 240.85 Q606.3 218.6 581.45 217.1 556.55 215.6 587.9 200.55 549.3 203.75 569.45 192.1 584.25 183.6 587.7 178.05 584.85 178.15 582.15 179.2 578.3 180.65 574.4 179.1 L571.7 178.85 Q563.9 180.5 556.4 181.2 556.2 176.1 562.35 175.05 572.1 173.45 581.45 170.6 581.8 169.65 581.5 168.75 576.65 167.2 568.55 166.35 549.4 164.5 566.05 149.8 573.55 143.2 577.65 137.9 584.4 128.3 569.1 134.8 553.85 141.2 554.55 133.1 554.95 128.7 559.2 126.35 563.9 123.8 568.05 120.3 L568.8 119.55 568.55 118.55 Q562.4 117.3 553.6 116.65 525.15 114.55 533.95 104.65 542.25 95.2 559.95 84.3 557.6 83.9 554.95 82.9 L548.2 82.7 Q546.25 83.25 545.0 82.05 545.7 78.0 551.5 77.0 558.65 75.8 565.35 73.4 566.3 73.05 565.8 71.95 L564.3 67.95 Q560.55 65.95 554.15 64.15 527.5 56.7 534.5 51.8 L539.5 47.65 534.85 47.35 Q533.2 47.15 531.55 47.8 525.8 49.9 526.75 45.4 526.95 44.4 527.8 43.65 530.55 41.1 533.8 39.25 540.25 35.55 547.3 33.3 L533.45 35.9 Q528.4 36.85 523.9 39.2 L522.8 39.35 Q523.1 32.05 532.85 31.0 L538.95 30.2 M568.25 74.85 L568.15 74.7 567.9 75.25 568.0 75.2 568.25 74.85 M535.8 42.05 L535.55 42.35 535.9 42.3 Q536.2 41.85 535.8 42.05 M564.75 176.75 L564.75 176.85 565.75 176.75 564.75 176.75" fill="url(#gradient8)" fill-rule="evenodd" stroke="none"/>
    <path d="M633.3 256.6 Q635.15 253.5 635.65 250.1 L640.4 245.6 640.4 480.85 280.25 480.85 Q319.7 466.55 363.4 463.4 387.7 461.65 406.5 463.0 425.25 464.35 444.45 462.2 463.55 460.0 434.05 449.45 405.75 450.35 423.65 445.65 341.3 436.95 396.0 437.2 450.65 437.45 452.15 436.6 455.6 428.55 444.3 430.1 433.0 431.7 431.7 427.05 430.3 422.4 454.6 421.95 467.6 418.55 481.6 427.4 495.5 436.2 481.05 416.65 466.65 397.05 487.15 405.65 499.85 415.65 503.15 415.05 L503.55 415.1 Q505.1 414.15 499.45 402.35 544.7 403.4 526.7 394.5 508.65 385.55 527.75 386.8 545.05 387.3 535.35 380.65 526.15 369.75 544.6 379.9 563.05 390.0 565.1 383.75 567.15 377.45 577.15 374.35 587.1 371.2 588.55 367.05 590.0 362.85 577.4 362.55 564.75 362.2 577.95 356.25 582.1 352.3 557.9 354.4 535.4 348.75 553.25 343.1 571.1 337.4 575.8 326.9 580.5 316.35 566.9 313.9 510.5 300.9 551.15 299.15 591.45 297.4 590.55 291.7 L584.85 291.45 Q587.55 290.5 593.8 287.3 600.05 284.15 583.75 284.25 567.4 284.3 575.9 283.0 584.4 281.65 586.2 280.5 588.0 279.4 592.85 279.05 597.65 278.75 598.55 277.25 599.5 275.7 603.25 272.3 605.95 269.95 613.45 270.25 637.1 269.5 625.2 268.15 613.2 266.8 613.6 266.25 609.4 263.7 622.7 261.35 631.5 259.65 633.3 256.6" fill="url(#gradient9)" fill-rule="evenodd" stroke="none"/>
  </g>
  <defs>
    <linearGradient gradientTransform="matrix(-0.2957, -0.0781, 0.0413, -0.1518, 154.35, 415.75)" gradientUnits="userSpaceOnUse" id="gradient0" spreadMethod="pad" x1="-819.2" x2="819.2">
      <stop offset="0.0" stop-color="#0065a8"/>
      <stop offset="0.9882352941176471" stop-color="#025b97"/>
    </linearGradient>
    <linearGradient gradientTransform="matrix(0.0693, 0.0, 0.0, 0.0286, 239.5, 423.95)" gradientUnits="userSpaceOnUse" id="gradient1" spreadMethod="pad" x1="-819.2" x2="819.2">
      <stop offset="0.0" stop-color="#0065a8"/>
      <stop offset="0.9882352941176471" stop-color="#025b97"/>
    </linearGradient>
    <linearGradient gradientTransform="matrix(0.0823, 0.0, 0.0, 0.0391, 61.1, 46.95)" gradientUnits="userSpaceOnUse" id="gradient2" spreadMethod="pad" x1="-819.2" x2="819.2">
      <stop offset="0.0" stop-color="#0065a8"/>
      <stop offset="0.9882352941176471" stop-color="#025b97"/>
    </linearGradient>
    <linearGradient gradientTransform="matrix(0.0562, 0.0, 0.0, 0.0565, 414.75, 268.4)" gradientUnits="userSpaceOnUse" id="gradient3" spreadMethod="pad" x1="-819.2" x2="819.2">
      <stop offset="0.0" stop-color="#0065a8"/>
      <stop offset="0.9882352941176471" stop-color="#025b97"/>
    </linearGradient>
    <linearGradient gradientTransform="matrix(0.2882, 0.0, 0.0, 0.1939, 334.2, 139.25)" gradientUnits="userSpaceOnUse" id="gradient4" spreadMethod="pad" x1="-819.2" x2="819.2">
      <stop offset="0.0" stop-color="#0065a8"/>
      <stop offset="0.9882352941176471" stop-color="#025b97"/>
      <stop offset="0.9921568627450981" stop-color="#005187"/>
    </linearGradient>
    <linearGradient gradientTransform="matrix(0.0027, 0.0, 0.0, 0.0098, 287.95, 379.45)" gradientUnits="userSpaceOnUse" id="gradient5" spreadMethod="pad" x1="-819.2" x2="819.2">
      <stop offset="0.0" stop-color="#0065a8"/>
      <stop offset="0.9882352941176471" stop-color="#025b97"/>
    </linearGradient>
    <linearGradient gradientTransform="matrix(0.0179, 0.0, 0.0, 0.079, 144.5, 101.0)" gradientUnits="userSpaceOnUse" id="gradient6" spreadMethod="pad" x1="-819.2" x2="819.2">
      <stop offset="0.0" stop-color="#0065a8"/>
      <stop offset="0.9882352941176471" stop-color="#025b97"/>
    </linearGradient>
    <linearGradient gradientTransform="matrix(0.0241, 0.0, 0.0, 0.0701, 343.6, 113.6)" gradientUnits="userSpaceOnUse" id="gradient7" spreadMethod="pad" x1="-819.2" x2="819.2">
      <stop offset="0.0" stop-color="#0065a8"/>
      <stop offset="0.9882352941176471" stop-color="#025b97"/>
    </linearGradient>
    <linearGradient gradientTransform="matrix(0.0765, 0.0, 0.0, 0.1454, 594.5, 136.9)" gradientUnits="userSpaceOnUse" id="gradient8" spreadMethod="pad" x1="-819.2" x2="819.2">
      <stop offset="0.0" stop-color="#0065a8"/>
      <stop offset="0.9882352941176471" stop-color="#025b97"/>
    </linearGradient>
    <linearGradient gradientTransform="matrix(0.2733, 0.0, 0.0, 0.2086, 435.1, 383.15)" gradientUnits="userSpaceOnUse" id="gradient9" spreadMethod="pad" x1="-819.2" x2="819.2">
      <stop offset="0.0" stop-color="#0065a8"/>
      <stop offset="0.9882352941176471" stop-color="#025b97"/>
    </linearGradient>
  </defs>
</svg>
