<?xml version="1.0" encoding="UTF-8" standalone="no"?>
<svg xmlns:ffdec="https://www.free-decompiler.com/flash" xmlns:xlink="http://www.w3.org/1999/xlink" ffdec:objectType="shape" height="5.15px" width="28.8px" xmlns="http://www.w3.org/2000/svg">
  <g transform="matrix(1.0, 0.0, 0.0, 1.0, -191.55, -333.05)">
    <path d="M191.9 337.4 L191.65 337.55 191.55 337.85 191.7 338.1 192.0 338.2 Q198.8 337.55 204.1 335.4 209.25 333.35 210.65 333.95 L210.7 333.95 211.35 334.35 211.25 334.35 211.25 334.4 209.75 335.8 Q209.3 336.4 209.45 336.8 209.6 337.2 210.25 337.45 L211.65 337.85 215.85 336.95 Q219.45 335.8 220.25 334.8 L220.35 334.5 220.2 334.25 219.9 334.15 219.65 334.3 Q218.9 335.2 215.65 336.2 L211.65 337.05 210.55 336.75 210.5 336.7 210.2 336.55 210.35 336.3 211.65 335.05 Q212.5 334.65 212.05 334.05 L211.0 333.25 Q209.4 332.45 203.85 334.65 198.65 336.75 191.9 337.4" fill="#806340" fill-opacity="0.96862745" fill-rule="evenodd" stroke="none"/>
  </g>
</svg>
