<?xml version="1.0" encoding="UTF-8" standalone="no"?>
<svg xmlns:ffdec="https://www.free-decompiler.com/flash" xmlns:xlink="http://www.w3.org/1999/xlink" ffdec:objectType="shape" height="116.7px" width="116.7px" xmlns="http://www.w3.org/2000/svg">
  <g transform="matrix(1.0, 0.0, 0.0, 1.0, 0.05, 0.0)">
    <path d="M15.9 24.1 Q8.5 30.6 5.05 38.9 3.4 42.9 -0.05 56.6 L2.4 53.15 3.45 51.45 Q3.05 52.9 1.9 59.9 L0.8 67.25 1.4 70.0 Q2.1 72.05 2.1 73.0 2.1 77.8 3.55 81.7 4.55 84.3 7.0 88.1 7.0 86.8 6.0 81.7 L5.0 76.55 5.25 77.45 Q6.65 85.25 10.35 91.8 13.35 97.0 19.2 103.5 L19.3 103.35 17.35 100.0 Q15.4 96.9 15.2 95.3 18.2 99.55 25.9 105.45 L33.75 111.1 Q37.75 114.95 39.9 115.2 L53.25 116.7 44.55 114.15 39.45 111.15 57.75 114.5 65.75 115.7 Q68.05 115.7 78.5 113.35 88.65 111.1 90.6 110.2 L88.85 109.95 84.6 109.95 Q91.55 106.25 96.1 103.4 104.6 98.2 109.5 92.6 L108.4 93.55 Q106.3 95.65 104.45 96.35 L101.8 96.75 98.0 96.5 Q99.2 94.55 101.35 92.3 L105.2 88.45 Q109.8 83.5 110.95 77.45 L107.85 81.3 103.95 85.35 Q104.25 84.15 104.9 83.05 105.65 81.65 106.25 81.65 109.6 81.65 112.9 68.95 115.05 60.55 116.65 49.45 L113.2 57.6 111.55 60.05 111.4 60.0 111.2 58.65 Q111.2 57.95 112.5 52.75 L113.85 46.7 Q113.85 44.95 112.95 40.65 L112.85 42.2 Q112.8 45.2 112.1 47.1 L111.7 45.55 Q109.45 27.65 108.1 22.35 106.7 17.05 104.85 21.95 L105.1 22.95 106.05 25.75 Q106.05 26.6 105.75 26.8 99.25 18.55 97.55 13.85 96.6 12.55 93.9 11.1 L86.5 7.65 Q90.4 9.7 94.2 14.55 L97.1 18.65 Q93.65 15.2 84.85 10.15 73.0 3.3 65.55 1.45 59.55 0.0 51.15 0.0 L48.75 0.2 46.8 0.5 Q48.55 2.5 55.5 3.5 L64.15 4.5 61.45 4.15 58.15 3.8 Q43.5 3.8 30.9 8.0 24.4 10.15 19.4 12.9 L32.35 10.05 Q22.6 15.7 20.0 17.7 L17.05 19.35 17.25 19.2 19.35 17.3 Q13.8 20.6 10.6 26.85 13.6 25.35 14.4 24.35 15.4 23.2 16.15 22.7 16.0 23.35 16.75 23.15 L15.9 24.1" fill="url(#gradient0)" fill-rule="evenodd" stroke="none"/>
    <path d="M25.35 25.15 L24.85 25.65 Q23.9 27.65 22.3 29.5 24.3 27.4 25.35 25.15 M21.2 30.65 Q16.75 35.45 14.95 41.5 L13.2 46.95 Q11.35 52.65 10.2 58.45 L10.15 58.6 8.8 70.1 Q7.5 80.55 22.3 94.75 37.2 108.8 53.65 108.8 70.1 108.8 80.3 102.95 90.0 99.8 95.8 93.65 90.1 99.35 80.9 102.35 70.65 108.25 54.2 108.25 37.75 108.25 22.9 94.15 8.05 80.0 9.35 69.5 L10.7 58.0 10.75 57.9 Q11.9 52.1 13.75 46.4 L15.45 40.95 Q17.2 35.25 21.2 30.65" fill="url(#gradient1)" fill-rule="evenodd" stroke="none"/>
    <path d="M95.8 93.65 Q110.15 79.35 103.55 48.3 102.15 46.7 101.55 44.2 100.65 40.3 98.0 37.55 94.8 34.05 96.25 31.55 L93.65 28.3 Q90.1 26.15 87.05 22.75 L85.5 20.75 Q89.0 13.85 69.85 12.85 50.7 11.8 44.1 13.8 L43.3 14.5 Q38.7 17.65 33.0 19.05 29.0 21.55 25.45 25.1 L25.35 25.15 Q24.3 27.4 22.3 29.5 L22.05 29.75 21.2 30.65 Q17.2 35.25 15.45 40.95 L13.75 46.4 Q11.9 52.1 10.75 57.9 L10.7 58.0 9.35 69.5 Q8.05 80.0 22.9 94.15 37.75 108.25 54.2 108.25 70.65 108.25 80.9 102.35 90.1 99.35 95.8 93.65" fill="url(#gradient2)" fill-rule="evenodd" stroke="none"/>
    <path d="M64.6 24.1 Q64.6 24.6 68.0 25.3 L72.2 25.95 Q75.45 26.25 78.2 28.1 L82.6 30.8 Q84.85 32.3 86.05 33.75 87.5 35.35 89.25 39.2 91.2 43.35 91.2 45.35 L90.85 48.7 91.25 51.3 Q91.95 53.75 93.4 53.75 95.2 53.75 95.4 52.45 L95.2 50.55 95.5 48.7 95.7 47.3 Q95.7 44.1 94.1 40.65 92.8 37.8 90.0 33.9 89.65 33.35 87.5 32.25 L84.5 30.6 79.8 27.65 Q77.45 25.95 73.3 24.9 69.1 23.8 64.65 23.85 L64.6 24.1" fill="#3da2d9" fill-rule="evenodd" stroke="none"/>
    <path d="M24.9 73.4 Q27.35 79.05 33.4 82.65 L33.7 82.6 33.8 82.25 30.25 77.4 Q26.5 72.15 25.8 68.8 25.1 58.35 25.1 55.55 25.1 51.5 27.1 47.25 29.1 43.7 29.1 43.05 29.1 41.25 26.55 44.9 23.95 48.65 23.4 52.5 23.2 56.2 23.1 63.45 23.1 69.3 24.9 73.4" fill="#3da2d9" fill-rule="evenodd" stroke="none"/>
    <path d="M34.0 83.55 L38.05 86.95 Q41.05 89.55 45.2 90.7 L45.6 90.7 45.75 90.35 Q45.75 89.65 41.75 87.7 36.55 85.1 34.2 83.3 L34.0 83.55" fill="#3da2d9" fill-rule="evenodd" stroke="none"/>
    <path d="M89.1 71.0 Q87.5 75.1 86.1 77.7 83.9 81.85 77.1 84.7 73.85 86.0 72.9 86.6 71.2 87.8 71.2 89.45 71.2 90.6 72.9 90.6 81.9 90.6 88.0 78.7 89.95 74.9 91.3 70.35 L92.35 66.3 Q92.35 64.9 91.65 64.45 L89.1 71.0" fill="#3da2d9" fill-rule="evenodd" stroke="none"/>
    <path d="M76.1 40.3 Q78.55 43.05 78.75 45.25 79.0 47.5 79.85 49.5 81.1 52.4 82.9 52.4 85.05 52.4 85.9 50.6 L86.35 48.75 Q86.35 43.45 80.0 38.95 77.6 37.25 75.7 36.8 73.75 36.3 73.75 37.55 L76.1 40.3 M82.25 49.4 L81.8 48.4 81.85 48.45 83.35 50.1 83.1 50.35 Q82.6 50.05 82.25 49.4" fill="#3da2d9" fill-rule="evenodd" stroke="none"/>
    <path d="M59.6 41.3 Q52.3 41.3 47.15 46.55 41.95 51.85 41.95 59.3 41.95 66.75 47.15 72.0 52.3 77.3 59.6 77.3 66.9 77.3 72.1 72.0 77.25 66.75 77.25 59.3 77.25 51.85 72.1 46.55 66.9 41.3 59.6 41.3" fill="url(#gradient3)" fill-rule="evenodd" stroke="none"/>
    <path d="M42.95 76.95 Q43.45 79.5 45.25 81.45 48.9 85.2 57.55 85.2 72.4 85.2 79.4 72.5 83.65 64.85 83.65 58.55 83.65 46.4 75.3 39.75 67.15 33.3 57.2 36.65 56.9 37.35 57.6 37.1 L58.5 36.8 Q72.75 36.8 78.4 46.85 81.3 52.15 81.3 58.55 81.3 64.05 77.3 71.25 71.15 82.15 59.65 82.15 51.3 82.15 46.9 79.95 45.2 79.1 43.15 76.75 L42.95 76.95" fill="#0f8fd7" fill-rule="evenodd" stroke="none"/>
    <path d="M56.9 73.65 L57.2 73.7 57.25 73.25 57.05 73.25 56.85 73.35 56.9 73.65" fill="#0f8fd7" fill-rule="evenodd" stroke="none"/>
    <path d="M72.15 28.85 L72.1 29.1 Q80.25 34.1 82.9 36.45 84.55 37.85 85.25 39.9 86.15 42.55 87.25 44.05 89.3 47.05 88.95 51.7 88.75 53.85 89.65 55.8 90.65 57.95 90.65 59.3 90.65 60.55 86.7 66.2 82.8 71.85 82.8 73.15 L83.0 73.7 83.4 73.9 Q84.15 73.9 85.85 70.85 L88.35 66.45 91.1 62.7 Q92.25 60.9 92.25 59.25 92.25 57.5 91.4 55.85 90.65 54.2 90.65 51.3 L90.45 47.4 Q90.1 45.05 88.85 43.6 87.0 41.4 84.15 35.9 80.45 31.1 72.25 28.75 L72.15 28.85" fill="#0f8fd7" fill-rule="evenodd" stroke="none"/>
    <path d="M55.95 88.3 L56.2 87.85 Q56.2 87.5 51.0 86.65 45.0 85.65 42.5 83.95 41.5 83.3 40.6 82.05 L39.1 80.05 36.9 78.2 34.55 76.3 Q33.25 74.9 33.0 72.7 L32.35 68.65 30.85 64.6 Q30.3 63.05 30.3 61.05 L30.6 58.3 31.4 52.85 32.3 47.75 32.2 47.5 31.9 47.5 Q28.8 57.35 28.8 61.85 28.8 63.6 29.5 65.65 L30.9 69.45 31.2 73.5 Q31.35 75.9 32.75 77.05 38.8 83.35 41.35 85.3 45.5 88.45 54.55 88.45 L55.95 88.3" fill="#0f8fd7" fill-rule="evenodd" stroke="none"/>
    <path d="M55.6 35.95 Q54.85 35.9 52.25 36.9 49.9 37.8 47.9 38.85 46.55 39.75 45.8 41.25 L44.35 43.6 41.05 45.85 Q38.8 47.25 38.35 48.1 37.05 50.45 37.05 52.8 37.05 56.45 38.65 64.0 L39.05 64.15 39.4 62.65 39.55 60.85 Q39.55 59.75 38.95 56.85 38.4 54.0 38.4 52.85 38.4 49.9 39.7 48.4 40.25 47.75 42.6 46.5 44.8 45.35 45.55 44.25 L46.6 42.1 Q47.3 40.75 48.7 39.85 49.2 39.5 52.4 38.05 54.85 37.0 55.6 35.95" fill="#0f8fd7" fill-rule="evenodd" stroke="none"/>
    <path d="M61.95 73.65 L62.05 73.3 Q62.05 73.0 58.15 72.0 53.9 70.85 53.1 70.35 L49.55 68.55 Q46.9 67.1 46.6 66.25 44.7 60.85 44.7 58.3 44.7 55.85 45.55 53.75 L46.45 51.25 46.35 50.1 45.6 50.2 Q45.3 52.5 44.3 54.95 43.5 56.95 43.5 58.75 43.5 60.0 44.2 63.15 L45.3 66.75 Q46.0 68.25 50.65 70.85 56.0 73.8 60.15 73.8 L61.95 73.65" fill="#0f8fd7" fill-rule="evenodd" stroke="none"/>
    <path d="M73.75 50.15 Q73.75 49.7 74.95 53.25 L76.25 57.25 Q76.25 60.3 71.4 68.4 69.0 72.45 66.6 75.9 66.6 76.4 66.95 76.8 67.25 77.1 67.55 77.1 70.2 77.1 74.65 67.9 L78.65 58.65 Q78.65 54.7 76.2 50.8 73.75 46.95 73.75 50.15" fill="#0f8fd7" fill-rule="evenodd" stroke="none"/>
    <path d="M44.95 18.7 Q36.4 21.9 29.8 27.95 24.45 32.9 21.45 38.55 L21.45 38.7 Q26.9 32.25 30.15 28.9 35.95 23.0 44.95 19.1 L44.95 18.7" fill="#0f8fd7" fill-rule="evenodd" stroke="none"/>
    <path d="M16.15 52.7 Q17.4 50.55 18.8 46.4 20.5 41.65 21.35 39.75 L21.25 39.6 Q17.8 44.55 16.05 52.55 L16.15 52.7" fill="#0f8fd7" fill-rule="evenodd" stroke="none"/>
    <path d="M16.3 73.55 Q18.0 81.95 20.5 81.95 L20.9 81.8 Q18.8 78.25 17.75 74.0 17.0 71.0 16.5 66.3 16.25 63.8 16.25 58.55 15.7 56.15 15.4 59.7 L15.15 64.4 Q15.15 67.55 16.3 73.55" fill="#0f8fd7" fill-rule="evenodd" stroke="none"/>
    <path d="M56.2 102.8 L57.4 102.5 57.45 102.25 Q57.45 101.75 56.3 101.6 L49.55 100.55 46.75 99.7 43.95 99.15 43.9 99.15 43.85 99.45 Q43.85 100.25 48.7 101.65 53.25 102.95 54.65 102.95 L56.2 102.8" fill="#0f8fd7" fill-rule="evenodd" stroke="none"/>
    <path d="M56.35 49.35 Q54.55 50.25 54.55 51.0 L54.3 51.6 54.3 51.7 Q54.95 50.75 56.35 49.75 58.25 48.45 60.45 48.1 L60.4 48.1 Q58.2 48.3 56.35 49.35" fill="#005c91" fill-rule="evenodd" stroke="none"/>
    <path d="M68.2 56.7 L68.25 58.9 Q68.25 60.8 67.0 63.25 65.05 67.0 61.4 67.0 L57.25 66.35 55.85 65.75 57.4 66.7 Q58.65 67.45 61.0 67.45 65.7 67.45 67.7 63.35 68.8 61.15 68.8 58.95 L68.7 56.55 Q68.5 55.5 67.5 54.45 68.1 55.3 68.2 56.7" fill="#a3d9f7" fill-rule="evenodd" stroke="none"/>
    <path d="M48.6 55.25 Q48.2 56.6 48.2 58.5 48.2 61.3 49.9 64.0 52.1 67.45 56.05 68.1 53.1 67.4 50.8 63.9 48.8 60.8 48.8 58.5 48.8 56.45 49.05 55.4 49.35 53.9 50.55 52.0 L50.45 52.0 Q49.1 53.45 48.6 55.25" fill="#005c91" fill-rule="evenodd" stroke="none"/>
    <path d="M69.55 60.55 L69.7 60.55 69.9 57.05 Q69.9 54.95 68.1 52.55 66.3 50.0 63.95 49.3 70.4 53.45 69.55 60.55" fill="#005c91" fill-rule="evenodd" stroke="none"/>
    <path d="M64.95 68.1 L63.75 68.55 61.95 68.85 59.0 68.2 56.75 67.5 Q56.9 67.95 58.65 68.55 L61.15 69.15 62.15 69.1 62.15 69.0 64.1 68.65 64.95 68.1" fill="#003b5d" fill-rule="evenodd" stroke="none"/>
    <path d="M56.05 69.85 Q54.75 69.55 53.15 68.45 L50.6 66.85 Q49.6 66.4 48.95 65.2 L47.95 63.45 Q48.2 65.45 50.4 67.65 52.8 70.0 55.25 70.0 L56.05 69.85" fill="#a3d9f7" fill-rule="evenodd" stroke="none"/>
    <path d="M70.15 62.1 L70.0 62.1 Q70.35 63.7 67.5 67.3 66.15 69.2 63.5 70.05 L59.7 71.2 59.7 71.25 60.0 71.35 Q64.55 71.35 67.8 67.5 70.25 64.65 70.25 63.15 L70.15 62.1" fill="#003b5d" fill-rule="evenodd" stroke="none"/>
    <path d="M60.75 46.45 L60.75 46.3 57.2 46.4 Q55.3 46.85 54.7 47.5 L53.15 48.95 Q51.75 50.3 51.75 50.6 L51.75 50.95 54.5 48.35 Q56.4 46.75 60.75 46.45" fill="#005c91" fill-rule="evenodd" stroke="none"/>
    <path d="M64.45 53.25 Q62.2 51.2 62.2 53.0 L63.5 54.45 65.0 56.25 Q65.3 57.0 65.1 57.9 L64.85 59.35 Q64.85 60.1 65.6 60.1 66.45 60.1 66.65 58.7 L66.65 57.25 Q66.65 55.35 64.45 53.25" fill="#005c91" fill-rule="evenodd" stroke="none"/>
    <path d="M56.5 55.8 Q55.6 56.8 55.6 59.45 55.6 60.5 56.2 61.55 57.1 63.3 59.2 63.3 L60.85 63.1 Q57.65 63.1 56.75 61.3 56.3 60.5 56.3 58.65 L56.65 55.9 56.6 55.7 56.6 55.8 56.5 55.8" fill="#a3d9f7" fill-rule="evenodd" stroke="none"/>
    <path d="M61.45 53.25 Q64.95 53.5 64.95 59.55 L64.6 60.85 Q65.05 60.8 65.3 59.2 L65.45 57.2 Q65.45 55.95 64.65 54.75 63.55 53.2 61.75 53.05 L61.45 53.25" fill="#00507e" fill-rule="evenodd" stroke="none"/>
    <path d="M66.25 56.05 Q66.55 57.55 66.65 60.45 L66.8 60.45 67.25 56.8 Q67.25 55.3 66.5 53.9 65.45 51.95 63.55 51.7 65.7 53.35 66.25 56.05" fill="#003b5d" fill-rule="evenodd" stroke="none"/>
    <path d="M53.4 61.6 Q52.5 59.8 52.5 58.45 52.5 56.4 53.25 54.65 54.35 52.2 56.65 51.25 54.15 51.5 52.9 54.35 52.05 56.3 52.05 58.45 52.05 59.55 52.2 59.95 52.35 60.45 53.25 61.6 L53.4 61.6" fill="#00507e" fill-rule="evenodd" stroke="none"/>
    <path d="M56.0 54.0 Q59.65 52.05 61.95 51.15 59.9 50.95 57.95 51.85 55.95 52.8 56.0 53.95 L56.0 54.0" fill="#003b5d" fill-rule="evenodd" stroke="none"/>
  </g>
  <defs>
    <radialGradient cx="0" cy="0" gradientTransform="matrix(-0.0739, 0.0, 0.0, 0.0753, 59.55, 59.55)" gradientUnits="userSpaceOnUse" id="gradient0" r="819.2" spreadMethod="pad">
      <stop offset="0.7803921568627451" stop-color="#035083"/>
      <stop offset="1.0" stop-color="#035083" stop-opacity="0.2784314"/>
    </radialGradient>
    <radialGradient cx="0" cy="0" gradientTransform="matrix(-0.0625, 0.0, 0.0, 0.0637, 56.6, 57.55)" gradientUnits="userSpaceOnUse" id="gradient1" r="819.2" spreadMethod="pad">
      <stop offset="0.42745098039215684" stop-color="#319ad1"/>
      <stop offset="1.0" stop-color="#319ad1" stop-opacity="0.0"/>
    </radialGradient>
    <radialGradient cx="0" cy="0" gradientTransform="matrix(-0.0625, 0.0, 0.0, 0.0637, 57.15, 57.0)" gradientUnits="userSpaceOnUse" id="gradient2" r="819.2" spreadMethod="pad">
      <stop offset="0.42745098039215684" stop-color="#319ad1"/>
      <stop offset="1.0" stop-color="#319ad1" stop-opacity="0.0"/>
    </radialGradient>
    <radialGradient cx="0" cy="0" gradientTransform="matrix(-0.0378, 0.0, 0.0, 0.0385, 60.1, 58.0)" gradientUnits="userSpaceOnUse" id="gradient3" r="819.2" spreadMethod="pad">
      <stop offset="0.17254901960784313" stop-color="#005c91"/>
      <stop offset="1.0" stop-color="#319ad1" stop-opacity="0.0"/>
    </radialGradient>
  </defs>
</svg>
