<?xml version="1.0" encoding="UTF-8" standalone="no"?>
<svg xmlns:ffdec="https://www.free-decompiler.com/flash" xmlns:xlink="http://www.w3.org/1999/xlink" ffdec:objectType="shape" height="77.3px" width="79.95px" xmlns="http://www.w3.org/2000/svg">
  <g transform="matrix(1.0, 0.0, 0.0, 1.0, 0.0, 0.0)">
    <path d="M24.0 74.0 Q32.85 75.8 49.85 75.2 L53.75 74.95 Q48.45 76.8 42.4 77.2 32.5 77.8 24.0 74.0 M12.5 63.5 Q13.75 67.45 15.1 68.55 L13.5 67.25 Q3.4 58.3 0.85 45.7 L1.05 45.6 1.2 46.05 2.35 48.85 Q4.65 54.3 8.55 58.75 10.3 61.25 12.5 63.5 M0.95 28.5 L1.45 28.65 Q0.55 32.55 1.7 36.8 L2.0 38.15 2.1 39.65 2.25 39.55 Q2.65 40.6 1.8 41.0 L0.95 41.55 0.25 41.2 0.1 39.8 Q-0.25 33.85 0.95 28.5 M6.3 23.0 Q3.45 24.65 2.9 22.05 5.45 16.1 10.1 10.85 14.05 6.35 18.75 3.35 17.45 4.5 13.1 9.25 8.75 13.95 6.3 23.0 M65.55 8.4 Q60.25 3.25 54.7 0.0 60.95 2.5 66.45 7.4 78.85 18.35 79.85 34.85 80.1 38.55 79.7 42.05 79.7 38.65 79.2 35.05 76.9 19.3 65.55 8.4" fill="#3da2d9" fill-rule="evenodd" stroke="none"/>
  </g>
</svg>
