<?xml version="1.0" encoding="UTF-8" standalone="no"?>
<svg xmlns:ffdec="https://www.free-decompiler.com/flash" xmlns:xlink="http://www.w3.org/1999/xlink" ffdec:objectType="shape" height="20.25px" width="100.8px" xmlns="http://www.w3.org/2000/svg">
  <g transform="matrix(1.0, 0.0, 0.0, 1.0, 0.0, 0.0)">
    <path d="M0.0 0.0 Q3.15 0.15 4.8 1.8 6.15 3.2 7.25 6.75 8.8 8.6 13.95 10.1 14.65 10.15 13.25 10.15 8.8 11.6 7.2 13.5 6.05 17.2 4.9 18.45 3.45 20.1 0.3 20.25 1.5 19.35 1.5 18.15 L1.3 15.95 Q1.4 13.7 1.85 11.9 2.2 10.4 3.3 10.1 2.25 9.8 1.9 8.35 1.45 6.55 1.4 4.3 L1.35 2.1 Q1.2 0.95 0.0 0.0" fill="#183b64" fill-opacity="0.7019608" fill-rule="evenodd" stroke="none"/>
    <path d="M59.35 1.65 L74.15 2.75 Q75.85 2.75 87.3 5.25 98.65 7.65 100.5 10.05 102.25 12.45 93.85 14.95 85.4 17.45 81.1 18.05 L70.0 19.5 Q63.25 20.4 48.15 18.95 33.1 17.45 23.2 14.0 13.25 10.55 14.35 9.65 15.4 8.65 32.25 5.05 49.1 1.4 59.35 1.65 M81.1 16.5 L80.85 16.4 80.8 16.45 81.15 16.5 81.1 16.5" fill="#183b64" fill-opacity="0.7019608" fill-rule="evenodd" stroke="none"/>
    <path d="M81.1 16.5 L81.15 16.5 80.8 16.45 80.85 16.4 81.1 16.5" fill="url(#gradient0)" fill-rule="evenodd" stroke="none"/>
  </g>
  <defs>
    <radialGradient cx="0" cy="0" gradientTransform="matrix(2.0E-4, 0.0, 0.0, 2.0E-4, 81.0, 16.45)" gradientUnits="userSpaceOnUse" id="gradient0" r="819.2" spreadMethod="pad">
      <stop offset="0.13333333333333333" stop-color="#a2b1c9"/>
      <stop offset="1.0" stop-color="#536f91"/>
    </radialGradient>
  </defs>
</svg>
