<?xml version="1.0" encoding="UTF-8" standalone="no"?>
<svg xmlns:ffdec="https://www.free-decompiler.com/flash" xmlns:xlink="http://www.w3.org/1999/xlink" ffdec:objectType="shape" height="23.4px" width="117.3px" xmlns="http://www.w3.org/2000/svg">
  <g transform="matrix(1.0, 0.0, 0.0, 1.0, -24.4, -3.15)">
    <path d="M84.75 5.05 Q87.2 4.9 89.8 5.0 101.2 4.35 120.25 8.65 139.7 13.1 141.5 15.6 143.3 18.05 128.35 21.6 114.5 24.85 105.7 25.4 93.25 27.45 77.1 25.85 59.95 24.0 43.65 19.65 27.35 15.15 28.65 15.0 L51.9 10.2 Q73.85 5.55 84.75 5.05" fill="#183b64" fill-opacity="0.7019608" fill-rule="evenodd" stroke="none"/>
    <path d="M124.25 14.95 L124.25 15.05 Q117.15 16.6 106.5 17.3 93.55 18.15 76.4 17.55 66.45 17.2 51.8 12.1 L84.05 10.35 107.85 11.25 Q120.8 12.25 127.2 14.3 L124.55 14.95 124.25 14.95 M112.2 16.75 L111.85 16.75 111.8 16.75 112.25 16.75 112.2 16.75" fill="url(#gradient0)" fill-rule="evenodd" stroke="none"/>
    <path d="M112.2 16.75 L112.25 16.75 111.8 16.75 111.85 16.75 112.2 16.75" fill="url(#gradient1)" fill-rule="evenodd" stroke="none"/>
    <path d="M61.95 15.8 L68.75 16.35 Q65.25 16.75 61.95 15.8" fill="#5e7b9f" fill-rule="evenodd" stroke="none"/>
    <path d="M117.55 15.15 L104.65 15.05 Q94.45 14.95 77.15 15.25 L71.35 14.85 81.2 13.95 93.95 13.4 105.15 13.75 113.05 14.45 117.55 15.15" fill="#cdcdcd" fill-rule="evenodd" stroke="none"/>
    <path d="M124.95 17.65 L124.95 17.45 125.25 17.45 124.95 17.65" fill="url(#gradient2)" fill-rule="evenodd" stroke="none"/>
    <path d="M102.6 11.35 L102.65 11.35 102.65 11.4 104.25 11.45 106.05 11.85 100.4 11.6 98.05 11.1 96.45 10.75 Q96.0 10.5 96.15 10.2 96.25 9.95 96.8 9.9 98.3 9.95 98.75 10.5 99.2 10.95 100.55 11.15 L102.5 11.3 102.6 11.35" fill="#ffffff" fill-opacity="0.6313726" fill-rule="evenodd" stroke="none"/>
    <path d="M104.4 10.95 L104.55 11.3 104.95 11.45 106.05 11.7 Q106.55 11.75 106.7 11.95 L105.0 11.85 103.75 11.6 Q102.4 11.35 101.8 10.85 101.3 10.5 102.35 10.4 L103.55 10.6 Q104.15 10.7 104.4 10.95" fill="#ffffff" fill-opacity="0.6313726" fill-rule="evenodd" stroke="none"/>
    <path d="M105.35 10.3 Q107.05 10.45 106.2 11.05 L106.15 11.3 Q106.75 11.75 107.8 12.1 L108.75 12.35 108.9 12.4 107.65 12.35 Q106.0 11.9 104.95 11.25 104.35 10.85 104.75 10.5 L105.35 10.3" fill="#ffffff" fill-opacity="0.6313726" fill-rule="evenodd" stroke="none"/>
    <path d="M129.75 16.15 Q128.05 16.2 127.2 15.65 L126.95 15.6 123.95 14.75 122.8 14.5 122.5 14.4 121.2 14.15 120.75 14.05 120.6 14.05 120.5 14.0 117.15 13.35 111.6 12.75 110.25 12.6 108.0 12.2 107.2 11.75 Q106.8 11.4 107.75 11.3 109.05 11.45 109.6 11.9 L110.2 12.05 112.45 12.45 113.35 12.55 113.95 12.45 115.0 12.65 115.3 12.7 Q114.35 12.5 114.1 12.15 114.0 12.0 114.5 11.95 L116.05 12.2 116.25 12.6 116.25 12.65 Q117.75 12.7 118.15 13.15 L118.35 13.3 118.6 13.35 119.15 13.45 121.0 13.85 120.85 13.8 120.35 13.65 120.15 13.45 120.15 13.35 121.6 13.35 Q122.3 13.45 122.1 13.7 L122.05 13.85 122.4 13.95 122.85 14.1 123.0 14.3 123.05 14.35 123.3 14.4 124.05 14.5 124.5 14.6 Q124.15 14.4 124.3 14.15 L125.45 13.95 Q126.05 14.0 126.2 14.2 L126.3 14.55 126.65 14.7 127.4 14.95 127.6 15.25 Q129.4 15.5 129.9 16.1 L129.75 16.15" fill="#ffffff" fill-opacity="0.6313726" fill-rule="evenodd" stroke="none"/>
    <path d="M70.9 9.75 Q72.35 8.6 74.8 8.5 77.25 8.4 78.0 9.35 78.75 10.35 79.45 10.3 79.2 3.4 80.5 3.15 81.8 2.9 81.65 6.55 81.5 10.2 82.1 10.25 L83.3 10.2 82.85 9.8 Q82.9 9.5 83.65 9.4 85.3 9.25 85.2 9.95 L85.15 10.1 87.4 10.0 89.3 9.9 90.8 10.0 Q90.75 9.7 91.2 9.55 L92.7 9.5 93.85 9.25 Q94.1 8.85 94.85 8.7 L95.6 8.75 96.35 8.9 96.85 9.15 Q98.0 9.3 98.7 9.75 99.4 10.2 100.65 10.5 L102.4 11.15 102.4 11.2 102.35 11.2 102.3 11.25 102.25 11.25 94.0 10.75 91.15 10.65 82.75 10.9 80.95 10.85 76.95 11.25 67.05 11.85 62.65 12.4 61.85 12.55 56.3 12.9 Q56.05 12.45 57.55 12.35 L61.0 12.0 62.4 11.85 62.65 11.8 62.55 11.25 62.95 10.7 64.0 10.6 Q64.8 10.8 64.8 11.25 L64.75 11.5 68.75 11.0 70.9 9.75 M91.65 9.85 L91.55 9.8 91.5 9.85 91.65 9.85" fill="#ffffff" fill-opacity="0.6313726" fill-rule="evenodd" stroke="none"/>
    <path d="M71.95 9.55 Q71.8 10.4 72.05 11.0 72.3 11.6 73.25 11.6 L74.5 11.6 73.75 11.7 70.1 11.55 Q69.45 11.5 69.35 10.6 69.2 9.75 69.85 8.95 70.45 8.15 71.25 8.4 72.05 8.7 71.95 9.55" fill="#ffffff" fill-opacity="0.6313726" fill-rule="evenodd" stroke="none"/>
    <path d="M29.6 13.75 Q34.2 13.95 38.55 13.6 L39.5 13.35 Q40.9 12.55 43.6 13.0 L45.7 13.0 50.05 12.9 48.4 12.65 47.75 12.4 47.6 12.15 Q47.55 11.85 48.3 11.7 L49.0 11.6 54.3 11.95 57.75 12.25 Q59.95 12.3 58.35 12.75 L56.05 12.9 55.65 13.0 53.0 13.35 49.95 13.25 48.4 13.35 45.55 13.85 43.0 14.25 39.5 14.65 38.55 14.7 32.65 15.3 31.85 15.4 31.9 15.5 32.0 15.6 24.4 15.6 30.25 15.15 30.5 15.1 Q26.9 14.9 28.65 13.9 L29.6 13.75" fill="#ffffff" fill-opacity="0.6313726" fill-rule="evenodd" stroke="none"/>
    <path d="M118.75 15.3 L119.9 15.35 123.8 15.15 111.85 16.8 104.5 17.15 Q103.0 17.2 101.95 17.75 100.3 18.65 97.9 18.75 L97.35 19.05 94.85 19.45 93.55 19.35 Q93.25 19.0 93.6 18.6 94.05 18.1 95.1 17.85 L98.3 17.5 99.75 17.55 Q103.55 15.9 108.9 16.2 L114.2 15.7 117.35 15.3 117.9 15.3 118.75 15.3 M98.35 17.45 L96.1 17.5 89.6 17.45 88.0 17.55 87.95 17.6 87.2 18.0 86.1 18.25 83.5 18.25 82.15 17.8 82.1 17.75 82.1 17.7 82.1 17.6 82.1 17.45 82.2 17.35 82.3 17.3 82.85 17.2 76.1 17.55 Q73.25 18.35 71.1 17.25 70.2 16.75 71.0 16.15 L71.2 16.1 71.75 16.1 71.35 16.0 71.15 15.95 70.9 16.0 69.6 16.2 66.4 15.95 66.3 16.0 65.5 16.35 62.75 16.3 Q62.45 16.2 62.4 16.0 62.35 15.7 62.7 15.45 L62.5 15.45 62.2 15.35 61.3 15.2 60.9 15.0 60.75 14.85 60.4 14.85 59.8 14.85 58.85 14.75 58.2 14.6 57.8 14.7 Q57.25 15.1 56.3 15.3 L55.2 15.4 55.2 15.35 55.65 14.15 55.8 14.1 55.7 14.1 55.95 13.3 61.65 13.85 62.15 13.9 Q65.65 14.15 68.5 15.0 L68.75 15.25 71.55 15.35 73.05 15.45 78.3 15.55 Q79.15 15.55 79.15 16.0 L81.25 16.05 84.8 16.45 87.05 16.7 88.6 16.5 Q90.65 16.25 92.45 16.55 L95.9 16.7 Q97.7 16.55 98.85 17.15 98.85 17.4 98.35 17.45 M75.85 16.2 L73.5 16.2 75.4 16.25 75.85 16.2" fill="#ffffff" fill-opacity="0.6313726" fill-rule="evenodd" stroke="none"/>
  </g>
  <defs>
    <radialGradient cx="0" cy="0" gradientTransform="matrix(0.0483, 0.0, 0.0, 0.005, 85.8, 14.45)" gradientUnits="userSpaceOnUse" id="gradient0" r="819.2" spreadMethod="pad">
      <stop offset="0.13333333333333333" stop-color="#a2b1c9"/>
      <stop offset="1.0" stop-color="#536f91"/>
    </radialGradient>
    <radialGradient cx="0" cy="0" gradientTransform="matrix(3.0E-4, 0.0, 0.0, 1.0E-4, 112.05, 16.75)" gradientUnits="userSpaceOnUse" id="gradient1" r="819.2" spreadMethod="pad">
      <stop offset="0.13333333333333333" stop-color="#a2b1c9"/>
      <stop offset="1.0" stop-color="#536f91"/>
    </radialGradient>
    <radialGradient cx="0" cy="0" gradientTransform="matrix(0.0483, 0.0, 0.0, 0.0143, 86.5, 16.05)" gradientUnits="userSpaceOnUse" id="gradient2" r="819.2" spreadMethod="pad">
      <stop offset="0.13333333333333333" stop-color="#a2b1c9"/>
      <stop offset="1.0" stop-color="#6f88a6"/>
    </radialGradient>
  </defs>
</svg>
