<?xml version="1.0" encoding="UTF-8" standalone="no"?>
<svg xmlns:ffdec="https://www.free-decompiler.com/flash" xmlns:xlink="http://www.w3.org/1999/xlink" ffdec:objectType="shape" height="24.0px" width="118.0px" xmlns="http://www.w3.org/2000/svg">
  <g transform="matrix(1.0, 0.0, 0.0, 1.0, -23.7, -2.55)">
    <path d="M124.95 18.35 L125.25 18.35 124.95 18.55 124.95 18.35" fill="url(#gradient0)" fill-rule="evenodd" stroke="none"/>
    <path d="M84.75 5.05 Q94.35 4.5 105.65 6.95 L104.95 6.5 Q100.8 4.25 120.25 8.65 139.7 13.1 141.5 15.6 143.3 18.05 128.35 21.6 114.5 24.85 105.7 25.4 93.25 27.45 77.1 25.85 59.95 24.0 43.65 19.65 27.35 15.15 28.65 15.0 L51.9 10.2 Q73.85 5.55 84.75 5.05" fill="#183b64" fill-opacity="0.7019608" fill-rule="evenodd" stroke="none"/>
    <path d="M124.95 18.55 Q133.65 28.05 124.4 18.0 L124.95 18.55 M86.9 7.25 Q95.9 7.85 105.2 9.8 114.5 11.7 123.65 17.3 103.65 20.4 93.55 22.5 83.4 24.55 66.95 21.85 50.5 19.1 46.45 16.65 77.8 6.65 86.9 7.25" fill="url(#gradient1)" fill-rule="evenodd" stroke="none"/>
    <path d="M112.95 23.55 L112.5 23.5 112.55 23.45 112.9 23.55 112.95 23.55" fill="url(#gradient2)" fill-rule="evenodd" stroke="none"/>
    <path d="M23.7 16.25 L29.95 15.45 32.45 14.95 Q39.6 14.65 53.1 15.3 L68.75 16.35 53.4 17.05 31.95 16.45 23.7 16.25" fill="#5e7b9f" fill-rule="evenodd" stroke="none"/>
    <path d="M117.55 17.25 L104.65 17.1 Q94.45 16.95 77.15 17.4 L71.35 16.8 81.2 15.5 93.95 14.65 105.15 15.15 113.05 16.25 Q116.4 16.75 117.55 17.25" fill="#cdcdcd" fill-rule="evenodd" stroke="none"/>
    <path d="M104.4 7.3 L104.55 8.15 104.95 8.45 106.05 9.1 Q106.55 9.25 106.7 9.7 L105.0 9.5 103.75 8.85 Q102.4 8.25 101.8 7.15 101.3 6.2 102.35 6.0 L103.55 6.45 104.4 7.3" fill="#ffffff" fill-opacity="0.6313726" fill-rule="evenodd" stroke="none"/>
    <path d="M105.35 2.9 Q107.05 3.3 106.2 4.75 106.05 5.0 106.15 5.35 106.75 6.45 107.8 7.3 L108.75 7.9 108.9 8.05 107.65 7.9 Q106.0 6.85 104.95 5.3 104.35 4.35 104.75 3.4 104.9 3.0 105.35 2.9" fill="#ffffff" fill-opacity="0.6313726" fill-rule="evenodd" stroke="none"/>
    <path d="M127.6 19.2 Q125.9 19.35 125.05 18.05 L124.8 17.85 Q123.0 17.15 121.8 15.85 L120.65 15.2 Q120.45 15.2 120.35 15.05 L119.05 14.4 118.6 14.2 118.45 14.15 118.35 14.05 Q116.75 13.2 115.0 12.5 112.35 11.4 109.45 11.05 108.6 11.0 108.1 10.6 106.85 10.4 105.85 9.65 L105.05 8.65 Q104.65 7.75 105.6 7.55 106.9 7.85 107.45 8.95 L108.05 9.35 Q109.4 9.5 110.3 10.35 L111.2 10.55 Q111.3 10.2 111.8 10.3 112.4 10.4 112.85 10.8 L113.15 10.85 Q112.2 10.4 111.95 9.55 111.85 9.15 112.35 9.1 113.4 8.85 113.9 9.7 L114.1 10.65 114.1 10.7 Q115.6 10.95 116.0 12.0 L116.2 12.3 116.45 12.45 117.0 12.75 118.85 13.7 118.7 13.6 118.2 13.2 118.0 12.65 118.0 12.45 119.45 12.5 Q120.15 12.75 119.95 13.35 L119.9 13.7 120.25 13.9 120.7 14.25 120.85 14.75 120.9 14.9 121.15 14.95 121.9 15.2 122.35 15.45 Q122.0 14.95 122.15 14.45 122.35 13.65 123.3 13.95 123.9 14.05 124.05 14.55 L124.15 15.4 124.5 15.7 Q125.05 15.9 125.25 16.35 L125.45 17.0 125.45 17.1 Q127.25 17.65 127.75 19.1 L127.6 19.2" fill="#ffffff" fill-opacity="0.6313726" fill-rule="evenodd" stroke="none"/>
    <path d="M70.2 8.6 L73.8 8.6 78.2 7.85 79.45 7.6 Q76.95 6.15 78.25 5.7 79.55 5.2 80.55 6.3 81.5 7.35 82.1 7.45 L83.3 7.35 Q82.85 7.1 82.85 6.65 82.9 6.0 83.65 5.9 85.3 5.6 85.2 6.9 L85.15 7.15 87.4 7.0 89.3 6.85 90.8 7.0 Q90.75 6.45 91.2 6.2 L92.7 6.0 Q93.55 6.3 93.85 5.55 94.1 4.85 94.85 4.6 L95.6 4.65 96.35 4.9 96.85 5.4 Q98.0 5.65 98.7 6.5 99.4 7.4 100.65 7.95 101.7 8.35 102.4 9.15 L102.4 9.25 102.35 9.25 102.3 9.35 102.25 9.4 94.0 8.45 91.15 8.2 82.75 8.7 80.95 8.6 76.95 9.35 67.05 10.5 Q64.75 10.85 62.65 11.55 L61.85 11.8 56.3 12.5 Q56.05 11.6 57.55 11.45 L61.0 10.75 62.4 10.5 62.65 10.4 62.55 9.35 Q62.55 8.75 62.95 8.25 L64.0 8.15 Q64.8 8.55 64.8 9.35 L64.75 9.9 Q66.85 9.7 68.75 8.9 L70.2 8.6 M73.8 7.3 L73.75 7.3 73.75 7.2 73.75 7.1 73.8 7.3 M91.65 6.65 L91.55 6.6 91.5 6.7 91.65 6.65" fill="#ffffff" fill-opacity="0.6313726" fill-rule="evenodd" stroke="none"/>
    <path d="M75.85 5.4 Q75.75 6.2 76.5 6.85 L77.3 7.8 Q76.9 8.25 76.35 7.7 74.9 6.3 74.35 4.5 74.15 3.8 74.25 3.1 74.4 2.65 74.9 2.55 75.15 2.5 75.4 2.7 76.5 3.55 76.1 4.55 L75.85 5.4" fill="#ffffff" fill-opacity="0.6313726" fill-rule="evenodd" stroke="none"/>
    <path d="M112.2 19.95 Q116.05 20.55 118.85 18.65 119.85 17.9 120.95 17.6 L126.8 16.15 Q127.6 17.4 125.6 17.9 124.3 18.25 123.2 18.95 L121.1 18.8 Q119.2 19.05 117.8 20.05 116.1 21.25 113.65 20.95 112.3 20.75 112.2 19.95" fill="#ffffff" fill-opacity="0.6313726" fill-rule="evenodd" stroke="none"/>
    <path d="M116.25 20.0 L104.3 22.35 96.95 22.9 Q95.45 22.95 94.35 23.8 92.7 25.1 90.3 25.2 L89.75 25.65 Q88.7 26.35 87.25 26.25 L85.95 26.15 Q85.65 25.6 86.0 25.05 86.45 24.3 87.5 23.9 L90.7 23.4 92.15 23.5 Q96.0 21.05 101.35 21.55 104.2 21.8 106.65 20.75 108.05 20.15 109.8 20.2 L110.35 20.2 111.2 20.2 112.35 20.3 116.25 20.0" fill="#ffffff" fill-opacity="0.6313726" fill-rule="evenodd" stroke="none"/>
    <path d="M115.3 17.75 L115.5 17.9 115.55 18.0 117.0 17.95 118.45 17.9 119.35 18.0 114.6 20.0 112.75 20.9 Q111.4 21.7 109.65 21.55 106.7 21.35 107.5 19.25 L111.5 18.7 112.4 18.45 Q113.65 17.9 115.05 17.65 L115.3 17.75" fill="#ffffff" fill-opacity="0.6313726" fill-rule="evenodd" stroke="none"/>
    <path d="M91.25 23.9 L89.0 24.0 Q85.65 23.8 82.5 23.9 L80.9 24.1 80.85 24.2 80.1 24.95 79.0 25.4 76.4 25.35 Q75.6 25.15 75.05 24.6 L75.0 24.5 75.0 24.4 75.0 24.15 75.0 23.95 75.05 23.85 75.1 23.75 75.2 23.65 77.4 23.45 78.1 23.65 78.2 23.65 78.25 23.5 Q78.3 23.2 78.6 23.0 L78.85 22.8 79.2 22.65 81.5 22.25 85.35 22.35 88.8 22.55 Q90.6 22.3 91.75 23.45 91.75 23.85 91.25 23.9" fill="#ffffff" fill-opacity="0.6313726" fill-rule="evenodd" stroke="none"/>
    <path d="M66.15 22.9 L66.35 22.8 68.3 22.85 70.55 23.1 71.95 22.7 72.2 22.6 76.4 22.7 79.95 23.4 83.1 23.9 83.35 24.05 Q81.8 25.95 78.7 24.9 74.85 23.6 71.25 25.35 68.4 26.75 66.25 24.8 65.35 23.95 66.15 22.9" fill="#ffffff" fill-opacity="0.6313726" fill-rule="evenodd" stroke="none"/>
    <path d="M30.55 14.7 L39.5 14.25 Q40.1 14.15 40.45 13.65 41.85 11.8 44.55 12.8 L46.65 12.85 51.0 12.55 49.35 12.0 48.7 11.35 48.55 10.8 Q48.5 10.05 49.25 9.7 L49.95 9.5 Q52.75 9.35 55.25 10.3 56.8 10.95 58.7 11.05 60.9 11.2 59.3 12.25 58.25 12.95 57.0 12.6 L56.6 12.85 53.95 13.65 50.9 13.5 49.35 13.65 Q48.15 14.5 46.5 14.9 45.15 15.2 43.95 15.8 42.35 16.6 40.45 16.85 L35.05 17.95 31.35 17.95 31.45 17.85 Q27.85 17.4 29.6 15.05 29.95 14.6 30.55 14.7" fill="#ffffff" fill-opacity="0.6313726" fill-rule="evenodd" stroke="none"/>
    <path d="M96.9 5.65 Q97.0 5.05 97.55 4.85 99.05 5.05 99.5 6.3 99.95 7.45 101.3 7.9 L103.25 8.3 103.35 8.4 103.4 8.45 103.4 8.5 105.0 8.7 Q106.05 9.1 106.8 9.65 104.15 9.7 101.15 8.95 99.7 8.6 98.8 7.75 97.8 7.65 97.2 6.95 96.75 6.3 96.9 5.65" fill="#ffffff" fill-opacity="0.6313726" fill-rule="evenodd" stroke="none"/>
    <path d="M77.7 23.7 L77.35 23.75 72.2 23.6 70.05 23.3 69.85 23.2 69.6 23.3 Q69.05 23.8 68.3 23.6 L65.1 23.2 65.0 23.25 64.2 23.85 61.45 23.8 61.1 23.25 Q61.05 22.75 61.4 22.3 L61.2 22.25 60.9 22.15 60.0 21.8 59.6 21.5 59.45 21.25 59.1 21.25 58.5 21.25 57.55 21.0 56.9 20.75 Q56.65 20.8 56.5 20.95 55.95 21.7 55.0 22.05 53.7 22.5 53.0 21.6 52.45 20.9 53.35 20.45 L54.5 19.85 Q52.75 18.95 50.9 19.25 L47.85 19.45 Q46.55 19.45 45.4 20.1 43.25 21.45 42.65 19.7 42.2 18.4 43.8 18.35 L46.3 17.95 46.25 17.85 45.5 17.5 43.3 17.1 Q42.9 17.1 42.55 16.75 L42.5 16.75 42.35 16.75 40.1 16.55 37.9 15.8 37.05 15.2 36.95 15.15 33.45 16.1 Q31.3 16.65 30.2 15.25 29.85 14.85 30.3 14.6 33.05 12.9 36.6 13.2 L36.75 13.15 40.45 13.15 39.0 13.55 38.2 13.85 38.25 14.05 Q38.3 14.65 39.15 14.85 L41.05 15.15 42.35 15.3 42.9 15.3 Q43.5 15.35 43.85 15.8 L51.05 17.55 Q55.85 18.9 60.35 19.45 L60.85 19.5 Q64.35 20.0 67.2 21.45 67.55 21.6 67.45 21.95 L70.25 22.15 71.75 22.25 77.0 22.5 Q77.9 22.45 77.85 23.3 L77.7 23.7" fill="#ffffff" fill-opacity="0.6313726" fill-rule="evenodd" stroke="none"/>
  </g>
  <defs>
    <radialGradient cx="0" cy="0" gradientTransform="matrix(0.0483, 0.0, 0.0, 0.0143, 86.5, 16.95)" gradientUnits="userSpaceOnUse" id="gradient0" r="819.2" spreadMethod="pad">
      <stop offset="0.13333333333333333" stop-color="#a2b1c9"/>
      <stop offset="1.0" stop-color="#6f88a6"/>
    </radialGradient>
    <radialGradient cx="0" cy="0" gradientTransform="matrix(0.0483, 0.0, 0.0, 0.0143, 86.5, 16.95)" gradientUnits="userSpaceOnUse" id="gradient1" r="819.2" spreadMethod="pad">
      <stop offset="0.13333333333333333" stop-color="#a2b1c9"/>
      <stop offset="1.0" stop-color="#536f91"/>
    </radialGradient>
    <radialGradient cx="0" cy="0" gradientTransform="matrix(3.0E-4, 0.0, 0.0, 3.0E-4, 112.75, 23.5)" gradientUnits="userSpaceOnUse" id="gradient2" r="819.2" spreadMethod="pad">
      <stop offset="0.13333333333333333" stop-color="#a2b1c9"/>
      <stop offset="1.0" stop-color="#536f91"/>
    </radialGradient>
  </defs>
</svg>
