<?xml version="1.0" encoding="UTF-8" standalone="no"?>
<svg xmlns:ffdec="https://www.free-decompiler.com/flash" xmlns:xlink="http://www.w3.org/1999/xlink" ffdec:objectType="shape" height="4.25px" width="23.85px" xmlns="http://www.w3.org/2000/svg">
  <g transform="matrix(1.0, 0.0, 0.0, 1.0, -215.85, -334.25)">
    <path d="M238.95 336.1 L239.2 336.3 239.5 336.3 239.65 336.05 239.6 335.75 239.0 335.0 Q238.3 334.45 237.4 334.45 236.45 334.45 233.95 336.05 231.85 337.4 231.0 337.45 230.5 337.35 230.45 336.3 230.45 334.2 229.15 334.25 227.8 334.25 224.3 336.45 221.15 338.45 216.35 337.2 L216.05 337.25 215.85 337.5 215.9 337.75 216.15 337.95 Q221.3 339.35 224.75 337.15 227.95 335.1 229.15 335.05 229.7 335.15 229.7 336.3 229.7 338.3 231.0 338.25 232.0 338.3 234.4 336.7 236.6 335.3 237.4 335.25 238.05 335.25 238.5 335.65 L238.95 336.1" fill="#806340" fill-opacity="0.96862745" fill-rule="evenodd" stroke="none"/>
  </g>
</svg>
