<?xml version="1.0" encoding="UTF-8" standalone="no"?>
<svg xmlns:ffdec="https://www.free-decompiler.com/flash" xmlns:xlink="http://www.w3.org/1999/xlink" ffdec:objectType="shape" height="29.6px" width="118.0px" xmlns="http://www.w3.org/2000/svg">
  <g transform="matrix(1.0, 0.0, 0.0, 1.0, -23.7, -1.35)">
    <path d="M102.6 5.5 L102.65 5.55 102.65 5.6 104.25 5.8 Q105.3 6.2 106.05 6.75 103.4 6.8 100.4 6.05 98.95 5.7 98.05 4.85 97.05 4.75 96.45 4.05 96.0 3.4 96.15 2.75 96.25 2.15 96.8 1.95 98.3 2.15 98.75 3.4 99.2 4.55 100.55 5.0 L102.5 5.4 102.6 5.5" fill="#ffffff" fill-opacity="0.6313726" fill-rule="evenodd" stroke="none"/>
    <path d="M124.95 18.55 L124.95 18.35 125.25 18.35 124.95 18.55" fill="url(#gradient0)" fill-rule="evenodd" stroke="none"/>
    <path d="M111.25 25.25 Q109.1 25.35 102.3 22.9 95.55 20.5 95.55 17.05 95.55 13.6 102.3 11.15 109.1 8.75 104.95 6.5 100.8 4.25 120.25 8.65 139.7 13.1 141.5 15.6 143.3 18.05 128.35 21.6 113.4 25.1 111.25 25.25" fill="#183b64" fill-opacity="0.7019608" fill-rule="evenodd" stroke="none"/>
    <path d="M125.25 18.35 L124.95 18.35 124.95 18.55 Q117.85 23.05 107.2 25.1 94.25 27.55 77.1 25.85 59.95 24.0 43.65 19.65 27.35 15.15 28.65 15.0 L51.9 10.2 Q73.85 5.55 84.75 5.05 95.55 4.45 108.55 7.6 121.5 10.6 127.9 16.5 L125.25 18.35 M112.95 23.55 L112.9 23.55 112.55 23.45 112.5 23.5 112.95 23.55" fill="url(#gradient1)" fill-rule="evenodd" stroke="none"/>
    <path d="M112.95 23.55 L112.5 23.5 112.55 23.45 112.9 23.55 112.95 23.55" fill="url(#gradient2)" fill-rule="evenodd" stroke="none"/>
    <path d="M23.7 16.25 L29.95 15.45 32.45 14.95 Q39.6 14.65 53.1 15.3 L68.75 16.35 53.4 17.05 31.95 16.45 23.7 16.25" fill="#5e7b9f" fill-rule="evenodd" stroke="none"/>
    <path d="M117.55 17.25 L104.65 17.1 Q94.45 16.95 77.15 17.4 L71.35 16.8 81.2 15.5 93.95 14.65 105.15 15.15 113.05 16.25 Q116.4 16.75 117.55 17.25" fill="#cdcdcd" fill-rule="evenodd" stroke="none"/>
    <path d="M104.4 4.5 L104.55 5.35 104.95 5.65 106.05 6.3 Q106.55 6.45 106.7 6.9 L105.0 6.7 103.75 6.05 Q102.4 5.45 101.8 4.35 101.3 3.4 102.35 3.2 L103.55 3.65 104.4 4.5" fill="#ffffff" fill-opacity="0.6313726" fill-rule="evenodd" stroke="none"/>
    <path d="M105.35 2.9 Q107.05 3.3 106.2 4.75 106.05 5.0 106.15 5.35 106.75 6.45 107.8 7.3 L108.75 7.9 108.9 8.05 107.65 7.9 Q106.0 6.85 104.95 5.3 104.35 4.35 104.75 3.4 104.9 3.0 105.35 2.9" fill="#ffffff" fill-opacity="0.6313726" fill-rule="evenodd" stroke="none"/>
    <path d="M129.75 17.05 Q128.05 17.2 127.2 15.9 127.15 15.75 126.95 15.7 125.15 15.0 123.95 13.7 L122.8 13.05 122.5 12.9 121.2 12.25 120.75 12.05 120.6 12.0 120.5 11.9 Q118.9 11.05 117.15 10.35 114.5 9.25 111.6 8.9 110.75 8.85 110.25 8.45 109.0 8.25 108.0 7.5 L107.2 6.5 Q106.8 5.6 107.75 5.4 109.05 5.7 109.6 6.8 L110.2 7.2 Q111.55 7.35 112.45 8.2 112.8 8.55 113.35 8.4 113.45 8.05 113.95 8.15 114.55 8.25 115.0 8.65 L115.3 8.7 Q114.35 8.25 114.1 7.4 114.0 7.0 114.5 6.95 115.55 6.7 116.05 7.55 L116.25 8.5 116.25 8.55 Q117.75 8.8 118.15 9.85 L118.35 10.15 118.6 10.3 119.15 10.6 121.0 11.55 120.85 11.45 120.35 11.05 120.15 10.5 120.15 10.3 121.6 10.35 Q122.3 10.6 122.1 11.2 L122.05 11.55 122.4 11.75 122.85 12.1 123.0 12.6 123.05 12.75 123.3 12.8 124.05 13.05 124.5 13.3 Q124.15 12.8 124.3 12.3 124.5 11.5 125.45 11.8 126.05 11.9 126.2 12.4 L126.3 13.25 126.65 13.55 Q127.2 13.75 127.4 14.2 L127.6 14.85 127.6 14.95 Q129.4 15.5 129.9 16.95 L129.75 17.05" fill="#ffffff" fill-opacity="0.6313726" fill-rule="evenodd" stroke="none"/>
    <path d="M70.2 5.35 L73.8 5.35 78.2 4.6 79.45 4.35 Q76.95 2.9 78.25 2.45 79.55 1.95 80.55 3.05 81.5 4.1 82.1 4.2 L83.3 4.1 Q82.85 3.85 82.85 3.4 82.9 2.75 83.65 2.65 85.3 2.35 85.2 3.65 L85.15 3.9 87.4 3.75 89.3 3.6 90.8 3.75 Q90.75 3.2 91.2 2.95 L92.7 2.75 Q93.55 3.05 93.85 2.3 94.1 1.6 94.85 1.35 L95.6 1.4 96.35 1.65 96.85 2.15 Q98.0 2.4 98.7 3.25 99.4 4.15 100.65 4.7 101.7 5.1 102.4 5.9 L102.4 6.0 102.35 6.0 102.3 6.1 102.25 6.15 94.0 5.2 91.15 4.95 82.75 5.45 80.95 5.35 76.95 6.1 67.05 7.25 Q64.75 7.6 62.65 8.3 L61.85 8.55 56.3 9.25 Q56.05 8.35 57.55 8.2 L61.0 7.5 62.4 7.25 62.65 7.15 62.55 6.1 Q62.55 5.5 62.95 5.0 L64.0 4.9 Q64.8 5.3 64.8 6.1 L64.75 6.65 Q66.85 6.45 68.75 5.65 L70.2 5.35 M73.8 4.05 L73.75 4.05 73.75 3.95 73.75 3.85 73.8 4.05 M91.65 3.4 L91.55 3.35 91.5 3.45 91.65 3.4" fill="#ffffff" fill-opacity="0.6313726" fill-rule="evenodd" stroke="none"/>
    <path d="M73.25 5.6 L74.5 5.75 Q74.55 6.3 73.75 6.3 71.75 6.35 70.1 5.45 L69.05 4.55 Q68.8 4.1 69.1 3.75 69.25 3.5 69.55 3.45 70.95 3.25 71.35 4.3 L71.8 5.0 Q72.3 5.65 73.25 5.6" fill="#ffffff" fill-opacity="0.6313726" fill-rule="evenodd" stroke="none"/>
    <path d="M113.65 23.15 Q117.5 22.85 120.3 20.3 121.3 19.35 122.4 18.8 125.35 17.3 128.25 15.95 129.05 17.05 127.05 18.0 125.75 18.65 124.65 19.6 123.65 20.45 122.55 19.95 120.65 20.65 119.25 21.95 117.55 23.55 115.1 23.85 113.75 23.95 113.65 23.15" fill="#ffffff" fill-opacity="0.6313726" fill-rule="evenodd" stroke="none"/>
    <path d="M116.15 23.35 Q108.9 25.55 104.2 26.2 L96.85 26.9 Q95.35 26.9 94.3 27.95 92.65 29.55 90.25 29.7 L89.7 30.2 Q88.65 31.1 87.2 30.95 L85.9 30.8 Q85.6 30.15 85.95 29.5 86.4 28.55 87.45 28.1 88.9 27.45 90.65 27.5 L92.1 27.55 Q95.9 24.6 101.25 25.2 104.1 25.55 106.55 24.25 107.95 23.5 109.7 23.55 L110.25 23.55 111.1 23.55 112.25 23.7 116.15 23.35" fill="#ffffff" fill-opacity="0.6313726" fill-rule="evenodd" stroke="none"/>
    <path d="M117.6 21.9 L117.8 22.0 117.9 22.1 119.3 21.65 120.65 21.2 121.55 21.1 117.5 24.25 115.95 25.6 Q114.85 26.7 113.1 27.0 110.2 27.55 110.45 25.35 L114.15 23.8 114.95 23.35 Q116.05 22.45 117.35 21.8 L117.6 21.9" fill="#ffffff" fill-opacity="0.6313726" fill-rule="evenodd" stroke="none"/>
    <path d="M90.7 27.35 L88.45 27.45 Q85.1 27.25 81.95 27.35 L80.35 27.55 80.3 27.65 79.55 28.4 78.45 28.85 75.85 28.8 74.5 28.05 74.45 27.95 74.45 27.85 74.45 27.6 74.45 27.4 74.5 27.3 74.55 27.2 74.65 27.1 76.85 26.9 77.55 27.1 77.65 27.1 77.7 26.95 78.05 26.45 78.3 26.25 78.65 26.1 80.95 25.7 84.8 25.8 88.25 26.0 Q90.05 25.75 91.2 26.9 91.2 27.3 90.7 27.35" fill="#ffffff" fill-opacity="0.6313726" fill-rule="evenodd" stroke="none"/>
    <path d="M63.35 25.1 L63.55 25.0 65.5 25.05 67.75 25.3 69.15 24.9 69.4 24.8 73.6 24.9 77.15 25.6 80.3 26.1 80.55 26.25 Q79.0 28.15 75.9 27.1 72.05 25.8 68.45 27.55 65.6 28.95 63.45 27.0 62.55 26.15 63.35 25.1" fill="#ffffff" fill-opacity="0.6313726" fill-rule="evenodd" stroke="none"/>
    <path d="M49.0 6.15 Q51.8 6.0 54.3 6.95 55.85 7.6 57.75 7.7 59.95 7.85 58.35 8.9 57.3 9.6 56.05 9.25 L55.65 9.5 Q54.4 10.1 53.0 10.3 L49.95 10.15 48.4 10.3 Q47.2 11.15 45.55 11.55 44.2 11.85 43.0 12.45 41.4 13.25 39.5 13.5 36.0 14.0 32.65 15.0 L31.85 15.3 31.9 15.5 Q31.95 16.1 32.8 16.3 L34.7 16.6 36.55 16.75 Q37.15 16.8 37.5 17.25 L44.7 19.0 Q49.5 20.35 54.0 20.9 L54.5 20.95 Q58.0 21.45 60.85 22.9 L61.1 23.4 63.9 23.6 65.4 23.7 70.65 23.95 Q71.55 23.9 71.5 24.75 L71.35 25.15 71.0 25.2 65.85 25.05 63.7 24.75 63.5 24.65 63.25 24.75 Q62.7 25.25 61.95 25.05 L58.75 24.65 58.65 24.7 Q58.35 25.1 57.85 25.3 L55.1 25.25 54.75 24.7 Q54.7 24.2 55.05 23.75 L54.85 23.7 54.55 23.6 53.65 23.25 53.25 22.95 53.1 22.7 52.75 22.7 52.15 22.7 51.2 22.45 50.55 22.2 50.15 22.4 48.65 23.5 Q47.35 23.95 46.65 23.05 46.1 22.35 47.0 21.9 L48.15 21.3 Q46.4 20.4 44.55 20.7 L41.5 20.9 Q40.2 20.9 39.05 21.55 36.9 22.9 36.3 21.15 35.85 19.85 37.45 19.8 L39.95 19.4 39.9 19.3 39.15 18.95 36.95 18.55 Q36.55 18.55 36.2 18.2 L36.15 18.2 33.75 18.0 Q32.6 17.8 31.55 17.25 L30.7 16.65 30.6 16.6 27.1 17.55 Q24.95 18.1 23.85 16.7 23.5 16.3 23.95 16.05 26.7 14.35 30.25 14.65 L30.5 14.5 Q26.9 14.05 28.65 11.7 29.0 11.25 29.6 11.35 L38.55 10.9 Q39.15 10.8 39.5 10.3 40.9 8.45 43.6 9.45 L45.7 9.5 50.05 9.2 48.4 8.65 47.75 8.0 47.6 7.45 Q47.55 6.7 48.3 6.35 L49.0 6.15" fill="#ffffff" fill-opacity="0.6313726" fill-rule="evenodd" stroke="none"/>
  </g>
  <defs>
    <radialGradient cx="0" cy="0" gradientTransform="matrix(0.0483, 0.0, 0.0, 0.0143, 86.5, 16.95)" gradientUnits="userSpaceOnUse" id="gradient0" r="819.2" spreadMethod="pad">
      <stop offset="0.13333333333333333" stop-color="#a2b1c9"/>
      <stop offset="1.0" stop-color="#6f88a6"/>
    </radialGradient>
    <radialGradient cx="0" cy="0" gradientTransform="matrix(0.0483, 0.0, 0.0, 0.0143, 86.5, 16.95)" gradientUnits="userSpaceOnUse" id="gradient1" r="819.2" spreadMethod="pad">
      <stop offset="0.13333333333333333" stop-color="#a2b1c9"/>
      <stop offset="1.0" stop-color="#536f91"/>
    </radialGradient>
    <radialGradient cx="0" cy="0" gradientTransform="matrix(3.0E-4, 0.0, 0.0, 3.0E-4, 112.75, 23.5)" gradientUnits="userSpaceOnUse" id="gradient2" r="819.2" spreadMethod="pad">
      <stop offset="0.13333333333333333" stop-color="#a2b1c9"/>
      <stop offset="1.0" stop-color="#536f91"/>
    </radialGradient>
  </defs>
</svg>
