<?xml version="1.0" encoding="UTF-8" standalone="no"?>
<svg xmlns:ffdec="https://www.free-decompiler.com/flash" xmlns:xlink="http://www.w3.org/1999/xlink" ffdec:objectType="shape" height="44.6px" width="121.95px" xmlns="http://www.w3.org/2000/svg">
  <g transform="matrix(1.0, 0.0, 0.0, 1.0, -19.75, 8.2)">
    <path d="M102.6 5.55 L102.65 5.6 102.65 5.65 104.25 5.85 Q105.3 6.25 106.05 6.8 103.4 6.85 100.4 6.1 98.95 5.75 98.05 4.9 97.05 4.8 96.45 4.1 96.0 3.45 96.15 2.8 96.25 2.2 96.8 2.0 98.3 2.2 98.75 3.45 99.2 4.6 100.55 5.05 L102.5 5.45 102.6 5.55" fill="#ffffff" fill-opacity="0.6313726" fill-rule="evenodd" stroke="none"/>
    <path d="M124.95 18.4 L125.25 18.4 124.95 18.6 124.95 18.4" fill="url(#gradient0)" fill-rule="evenodd" stroke="none"/>
    <path d="M111.25 25.3 Q109.1 25.4 102.3 22.95 95.55 20.55 95.55 17.1 95.55 13.65 102.3 11.2 109.1 8.8 104.95 6.55 100.8 4.3 120.25 8.7 139.7 13.15 141.5 15.65 143.3 18.1 128.35 21.65 113.4 25.15 111.25 25.3" fill="#183b64" fill-opacity="0.7019608" fill-rule="evenodd" stroke="none"/>
    <path d="M127.9 16.55 L125.25 18.4 124.95 18.4 124.95 18.6 Q117.85 23.1 107.2 25.15 94.25 27.6 77.1 25.9 59.95 24.05 43.65 19.7 27.35 15.2 28.65 15.05 L51.9 10.25 Q73.85 5.6 84.75 5.1 95.55 4.5 108.55 7.65 121.5 10.65 127.9 16.55 M112.5 23.55 L112.95 23.6 112.9 23.6 112.55 23.5 112.5 23.55" fill="url(#gradient1)" fill-rule="evenodd" stroke="none"/>
    <path d="M112.5 23.55 L112.55 23.5 112.9 23.6 112.95 23.6 112.5 23.55" fill="url(#gradient2)" fill-rule="evenodd" stroke="none"/>
    <path d="M23.7 16.3 L29.95 15.5 32.45 15.0 Q39.6 14.7 53.1 15.35 L68.75 16.4 53.4 17.1 31.95 16.5 23.7 16.3" fill="#5e7b9f" fill-rule="evenodd" stroke="none"/>
    <path d="M117.55 17.3 L104.65 17.15 Q94.45 17.0 77.15 17.45 L71.35 16.85 81.2 15.55 93.95 14.7 105.15 15.2 113.05 16.3 Q116.4 16.8 117.55 17.3" fill="#cdcdcd" fill-rule="evenodd" stroke="none"/>
    <path d="M104.4 4.55 L104.55 5.4 104.95 5.7 106.05 6.35 Q106.55 6.5 106.7 6.95 L105.0 6.75 103.75 6.1 Q102.4 5.5 101.8 4.4 101.3 3.45 102.35 3.25 L103.55 3.7 104.4 4.55" fill="#ffffff" fill-opacity="0.6313726" fill-rule="evenodd" stroke="none"/>
    <path d="M105.35 2.95 Q107.05 3.35 106.2 4.8 106.05 5.05 106.15 5.4 106.75 6.5 107.8 7.35 L108.75 7.95 108.9 8.1 107.65 7.95 Q106.0 6.9 104.95 5.35 104.35 4.4 104.75 3.45 104.9 3.05 105.35 2.95" fill="#ffffff" fill-opacity="0.6313726" fill-rule="evenodd" stroke="none"/>
    <path d="M129.75 17.1 Q128.05 17.25 127.2 15.95 127.15 15.8 126.95 15.75 125.15 15.05 123.95 13.75 L122.8 13.1 122.5 12.95 121.2 12.3 120.75 12.1 120.6 12.05 120.5 11.95 Q118.9 11.1 117.15 10.4 114.5 9.3 111.6 8.95 110.75 8.9 110.25 8.5 109.0 8.3 108.0 7.55 L107.2 6.55 Q106.8 5.65 107.75 5.45 109.05 5.75 109.6 6.85 L110.2 7.25 Q111.55 7.4 112.45 8.25 112.8 8.6 113.35 8.45 113.45 8.1 113.95 8.2 114.55 8.3 115.0 8.7 L115.3 8.75 Q114.35 8.3 114.1 7.45 114.0 7.05 114.5 7.0 115.55 6.75 116.05 7.6 L116.25 8.55 116.25 8.6 Q117.75 8.85 118.15 9.9 L118.35 10.2 118.6 10.35 119.15 10.65 121.0 11.6 120.85 11.5 120.35 11.1 120.15 10.55 120.15 10.35 121.6 10.4 Q122.3 10.65 122.1 11.25 L122.05 11.6 122.4 11.8 122.85 12.15 123.0 12.65 123.05 12.8 123.3 12.85 124.05 13.1 124.5 13.35 Q124.15 12.85 124.3 12.35 124.5 11.55 125.45 11.85 126.05 11.95 126.2 12.45 L126.3 13.3 126.65 13.6 Q127.2 13.8 127.4 14.25 L127.6 14.9 127.6 15.0 Q129.4 15.55 129.9 17.0 L129.75 17.1" fill="#ffffff" fill-opacity="0.6313726" fill-rule="evenodd" stroke="none"/>
    <path d="M73.8 4.1 L73.75 4.1 73.75 4.0 73.75 3.9 73.8 4.1 M70.2 5.4 L73.8 5.4 78.2 4.65 79.45 4.4 Q76.95 2.95 78.25 2.5 79.55 2.0 80.55 3.1 81.5 4.15 82.1 4.25 L83.3 4.15 Q82.85 3.9 82.85 3.45 82.9 2.8 83.65 2.7 85.3 2.4 85.2 3.7 L85.15 3.95 87.4 3.8 89.3 3.65 90.8 3.8 Q90.75 3.25 91.2 3.0 L92.7 2.8 Q93.55 3.1 93.85 2.35 94.1 1.65 94.85 1.4 L95.6 1.45 96.35 1.7 96.85 2.2 Q98.0 2.45 98.7 3.3 99.4 4.2 100.65 4.75 101.7 5.15 102.4 5.95 L102.4 6.05 102.35 6.05 102.3 6.15 102.25 6.2 94.0 5.25 91.15 5.0 82.75 5.5 80.95 5.4 76.95 6.15 67.05 7.3 Q64.75 7.65 62.65 8.35 L61.85 8.6 56.3 9.3 Q56.05 8.4 57.55 8.25 L61.0 7.55 62.4 7.3 62.65 7.2 62.55 6.15 Q62.55 5.55 62.95 5.05 L64.0 4.95 Q64.8 5.35 64.8 6.15 L64.75 6.7 Q66.85 6.5 68.75 5.7 L70.2 5.4 M91.65 3.45 L91.55 3.4 91.5 3.5 91.65 3.45" fill="#ffffff" fill-opacity="0.6313726" fill-rule="evenodd" stroke="none"/>
    <path d="M69.05 4.6 Q68.8 4.15 69.1 3.8 69.25 3.55 69.55 3.5 70.95 3.3 71.35 4.35 L71.8 5.05 Q72.3 5.7 73.25 5.65 L74.5 5.8 Q74.55 6.35 73.75 6.35 71.75 6.4 70.1 5.5 L69.05 4.6" fill="#ffffff" fill-opacity="0.6313726" fill-rule="evenodd" stroke="none"/>
    <path d="M113.65 23.2 Q117.5 22.9 120.3 20.35 121.3 19.4 122.4 18.85 125.35 17.35 128.25 16.0 129.05 17.1 127.05 18.05 125.75 18.7 124.65 19.65 123.65 20.5 122.55 20.0 120.65 20.7 119.25 22.0 117.55 23.6 115.1 23.9 113.75 24.0 113.65 23.2" fill="#ffffff" fill-opacity="0.6313726" fill-rule="evenodd" stroke="none"/>
    <path d="M116.15 23.4 Q108.9 25.6 104.2 26.25 L96.85 26.95 Q95.35 26.95 94.3 28.0 92.65 29.6 90.25 29.75 L89.7 30.25 Q88.65 31.15 87.2 31.0 L85.9 30.85 Q85.6 30.2 85.95 29.55 86.4 28.6 87.45 28.15 88.9 27.5 90.65 27.55 L92.1 27.6 Q95.9 24.65 101.25 25.25 104.1 25.6 106.55 24.3 107.95 23.55 109.7 23.6 L110.25 23.6 111.1 23.6 112.25 23.75 116.15 23.4" fill="#ffffff" fill-opacity="0.6313726" fill-rule="evenodd" stroke="none"/>
    <path d="M117.8 22.05 L117.9 22.15 119.3 21.7 120.65 21.25 121.55 21.15 117.5 24.3 115.95 25.65 Q114.85 26.75 113.1 27.05 110.2 27.6 110.45 25.4 L114.15 23.85 114.95 23.4 Q116.05 22.5 117.35 21.85 L117.6 21.95 117.8 22.05" fill="#ffffff" fill-opacity="0.6313726" fill-rule="evenodd" stroke="none"/>
    <path d="M90.7 27.4 L88.45 27.5 Q85.1 27.3 81.95 27.4 L80.35 27.6 80.3 27.7 79.55 28.45 78.45 28.9 75.85 28.85 74.5 28.1 74.45 28.0 74.45 27.9 74.45 27.65 74.45 27.45 74.5 27.35 74.55 27.25 74.65 27.15 76.85 26.95 77.55 27.15 77.65 27.15 77.7 27.0 78.05 26.5 78.3 26.3 78.65 26.15 80.95 25.75 84.8 25.85 88.25 26.05 Q90.05 25.8 91.2 26.95 91.2 27.35 90.7 27.4" fill="#ffffff" fill-opacity="0.6313726" fill-rule="evenodd" stroke="none"/>
    <path d="M63.35 25.15 L63.55 25.05 65.5 25.1 67.75 25.35 69.15 24.95 69.4 24.85 73.6 24.95 77.15 25.65 80.3 26.15 80.55 26.3 Q79.0 28.2 75.9 27.15 72.05 25.85 68.45 27.6 65.6 29.0 63.45 27.05 62.55 26.2 63.35 25.15" fill="#ffffff" fill-opacity="0.6313726" fill-rule="evenodd" stroke="none"/>
    <path d="M49.0 6.2 Q51.8 6.05 54.3 7.0 55.85 7.65 57.75 7.75 59.95 7.9 58.35 8.95 57.3 9.65 56.05 9.3 L55.65 9.55 Q54.4 10.15 53.0 10.35 L49.95 10.2 48.4 10.35 Q47.2 11.2 45.55 11.6 44.2 11.9 43.0 12.5 41.4 13.3 39.5 13.55 36.0 14.05 32.65 15.05 L31.85 15.35 31.9 15.55 Q31.95 16.15 32.8 16.35 L34.7 16.65 36.55 16.8 Q37.15 16.85 37.5 17.3 L44.7 19.05 Q49.5 20.4 54.0 20.95 L54.5 21.0 Q58.0 21.5 60.85 22.95 L61.1 23.45 63.9 23.65 65.4 23.75 70.65 24.0 Q71.55 23.95 71.5 24.8 L71.35 25.2 71.0 25.25 65.85 25.1 63.7 24.8 63.5 24.7 63.25 24.8 Q62.7 25.3 61.95 25.1 L58.75 24.7 58.65 24.75 Q58.35 25.15 57.85 25.35 L55.1 25.3 54.75 24.75 Q54.7 24.25 55.05 23.8 L54.85 23.75 54.55 23.65 53.65 23.3 53.25 23.0 53.1 22.75 52.75 22.75 52.15 22.75 51.2 22.5 50.55 22.25 50.15 22.45 48.65 23.55 Q47.35 24.0 46.65 23.1 46.1 22.4 47.0 21.95 L48.15 21.35 Q46.4 20.45 44.55 20.75 L41.5 20.95 Q40.2 20.95 39.05 21.6 36.9 22.95 36.3 21.2 35.85 19.9 37.45 19.85 L39.95 19.45 39.9 19.35 39.15 19.0 36.95 18.6 Q36.55 18.6 36.2 18.25 L36.15 18.25 33.75 18.05 Q32.6 17.85 31.55 17.3 L30.7 16.7 30.6 16.65 27.1 17.6 Q24.95 18.15 23.85 16.75 23.5 16.35 23.95 16.1 26.7 14.4 30.25 14.7 L30.5 14.55 Q26.9 14.1 28.65 11.75 29.0 11.3 29.6 11.4 L38.55 10.95 Q39.15 10.85 39.5 10.35 40.9 8.5 43.6 9.5 L45.7 9.55 50.05 9.25 48.4 8.7 47.75 8.05 47.6 7.5 Q47.55 6.75 48.3 6.4 L49.0 6.2" fill="#ffffff" fill-opacity="0.6313726" fill-rule="evenodd" stroke="none"/>
    <path d="M84.2 0.45 L84.1 1.9 84.15 1.95 88.55 1.95 88.55 1.85 89.1 0.6 Q91.25 -3.2 94.55 -0.8 95.15 -0.4 95.1 0.5 95.1 1.4 94.5 2.1 L99.2 2.7 Q100.95 3.0 102.55 3.85 L102.7 3.5 Q104.55 1.35 107.1 3.5 108.05 4.3 109.4 4.35 L109.15 1.1 Q108.9 -2.05 111.75 -2.8 114.55 -3.55 113.1 0.2 111.65 3.9 112.6 4.1 113.5 4.3 115.95 3.3 118.4 2.3 119.6 3.7 120.75 5.1 120.3 8.05 122.15 9.05 124.05 9.65 L126.95 10.35 Q128.3 10.65 129.2 11.75 129.75 12.45 130.6 12.8 131.7 13.2 132.35 14.2 136.7 15.25 133.0 18.4 132.45 18.9 131.6 19.1 128.8 19.8 126.2 21.45 124.75 22.35 123.15 22.95 L119.85 24.2 Q116.7 25.35 112.55 25.55 108.4 25.75 106.6 30.45 104.8 35.15 102.05 29.6 L102.0 29.75 101.75 30.15 101.45 30.55 100.55 31.2 100.35 31.35 100.15 32.25 Q98.5 35.8 96.5 32.85 96.1 32.25 96.35 31.55 96.7 30.3 97.95 29.65 L97.95 29.6 96.25 29.7 93.75 29.6 88.95 34.65 Q85.45 38.15 83.0 34.65 82.6 34.1 83.3 33.7 85.75 32.35 88.15 30.95 L89.0 30.25 85.65 30.0 Q83.8 29.75 81.95 31.05 80.15 32.3 78.35 32.8 78.05 35.6 74.35 34.55 69.15 33.05 73.75 30.65 74.75 30.15 75.9 30.4 77.35 30.7 78.3 29.5 L68.85 29.55 Q68.05 29.55 67.35 30.15 64.0 33.25 60.4 31.0 60.1 30.8 60.2 30.25 60.6 28.1 63.1 27.45 L62.9 27.4 Q61.5 27.3 60.25 26.75 L57.2 25.65 Q54.15 25.35 53.7 28.4 53.2 31.45 51.35 33.7 49.5 35.9 49.4 29.65 L49.2 25.2 Q49.0 24.0 48.7 24.65 L48.6 24.95 47.5 24.65 Q46.0 24.25 44.75 23.3 43.1 21.35 42.35 25.45 42.35 26.95 41.55 29.55 40.7 32.1 37.5 29.4 34.25 26.7 37.25 24.55 L41.1 22.05 Q37.35 19.95 33.65 21.85 30.1 23.7 29.2 21.0 28.75 19.6 30.35 19.2 L30.1 19.15 29.15 18.9 27.85 18.4 28.2 22.6 Q28.6 26.8 24.75 24.05 21.95 22.0 30.8 16.0 34.35 16.65 37.75 18.2 39.8 19.15 42.0 19.4 45.95 19.85 49.2 22.2 L50.05 22.3 Q53.15 21.2 54.85 23.35 59.0 23.4 62.75 24.95 65.2 25.9 67.7 25.3 71.55 24.3 75.55 25.8 76.55 26.2 77.05 27.1 81.2 27.5 85.5 26.25 L85.9 26.15 Q88.75 25.45 91.0 27.1 L103.85 26.1 Q108.15 25.75 111.35 24.0 113.25 23.0 115.5 22.3 L120.5 20.65 Q124.45 19.25 128.15 17.4 L128.25 16.85 128.25 16.2 128.5 15.5 128.55 15.4 Q127.85 14.25 126.45 14.05 125.05 13.8 125.0 12.55 120.35 11.75 116.0 9.35 L113.85 8.45 107.05 6.0 104.8 4.95 Q102.7 7.75 99.0 4.9 L98.6 4.85 93.7 4.7 Q91.4 4.05 92.05 1.75 92.35 0.75 92.1 0.8 L89.85 4.25 89.6 4.35 83.55 4.1 Q82.7 4.05 82.05 3.5 80.1 4.8 77.65 4.95 L75.9 5.3 Q75.7 5.9 75.1 6.1 73.9 6.4 73.1 5.5 L62.55 7.3 62.3 7.2 62.05 7.1 61.5 6.7 Q56.95 9.0 51.8 8.45 51.75 8.4 51.7 8.5 50.45 10.85 48.3 9.1 L48.0 9.35 47.4 9.7 47.05 9.85 46.95 10.1 46.8 10.4 46.6 10.65 46.45 10.8 36.25 13.25 35.6 13.3 Q34.3 15.6 31.25 14.55 L30.85 14.4 30.75 14.8 30.45 15.2 30.15 15.75 30.1 15.9 30.75 16.0 Q22.15 19.3 22.6 18.6 24.3 15.95 26.35 15.15 23.15 14.15 21.1 11.8 18.0 8.25 21.95 9.45 L23.7 10.1 Q25.55 10.95 27.1 12.25 L27.1 12.2 26.9 11.25 Q26.7 10.15 27.6 9.6 28.65 9.0 29.5 9.85 L29.85 8.8 Q31.25 5.15 32.8 6.8 34.3 8.45 33.7 9.95 L35.6 10.0 35.6 10.1 35.95 10.1 36.2 9.9 36.3 9.75 36.6 9.5 36.5 9.35 Q35.95 8.8 36.15 8.05 36.65 5.7 38.65 6.85 L39.4 7.55 39.45 7.1 Q39.25 5.55 40.7 0.45 42.1 -4.7 42.75 2.35 43.4 9.4 44.8 6.05 L44.8 6.1 45.3 5.9 Q46.0 5.45 46.9 5.45 L46.9 5.4 46.8 4.1 Q46.7 2.85 47.55 -1.05 48.35 -4.95 50.85 6.2 52.2 0.55 53.3 -1.05 54.4 -2.65 54.9 1.7 55.4 6.0 57.25 5.4 59.1 4.75 59.45 4.85 59.65 4.2 59.35 1.85 59.0 -0.55 60.5 -0.5 61.95 -0.45 62.8 2.75 63.6 5.9 64.95 4.25 L64.95 4.3 Q66.6 4.55 68.15 3.35 L70.85 1.35 70.85 1.25 70.85 0.3 Q70.85 -0.55 71.15 -1.25 71.6 -2.25 72.25 -6.0 72.85 -9.75 74.8 -7.15 76.7 -4.55 76.9 -1.55 77.1 1.4 76.4 2.35 L76.35 2.45 78.05 2.35 80.15 1.7 80.3 1.0 Q80.0 -1.85 82.9 -1.5 84.5 -1.3 84.2 0.45 M87.0 34.0 L85.85 34.2 85.6 34.3 85.45 34.35 87.05 34.15 87.15 34.1 Q87.3 33.9 87.0 34.0 M63.85 29.35 L63.55 29.5 63.25 29.65 63.0 29.8 Q62.75 30.15 63.55 29.9 L64.1 29.6 64.5 29.15 Q64.65 28.95 64.3 29.1 L63.85 29.35" fill="#ffffff" fill-opacity="0.6313726" fill-rule="evenodd" stroke="none"/>
  </g>
  <defs>
    <radialGradient cx="0" cy="0" gradientTransform="matrix(0.0483, 0.0, 0.0, 0.0143, 86.5, 17.0)" gradientUnits="userSpaceOnUse" id="gradient0" r="819.2" spreadMethod="pad">
      <stop offset="0.13333333333333333" stop-color="#a2b1c9"/>
      <stop offset="1.0" stop-color="#6f88a6"/>
    </radialGradient>
    <radialGradient cx="0" cy="0" gradientTransform="matrix(0.0483, 0.0, 0.0, 0.0143, 86.5, 17.0)" gradientUnits="userSpaceOnUse" id="gradient1" r="819.2" spreadMethod="pad">
      <stop offset="0.13333333333333333" stop-color="#a2b1c9"/>
      <stop offset="1.0" stop-color="#536f91"/>
    </radialGradient>
    <radialGradient cx="0" cy="0" gradientTransform="matrix(3.0E-4, 0.0, 0.0, 3.0E-4, 112.75, 23.55)" gradientUnits="userSpaceOnUse" id="gradient2" r="819.2" spreadMethod="pad">
      <stop offset="0.13333333333333333" stop-color="#a2b1c9"/>
      <stop offset="1.0" stop-color="#536f91"/>
    </radialGradient>
  </defs>
</svg>
