<?xml version="1.0" encoding="UTF-8" standalone="no"?>
<svg xmlns:ffdec="https://www.free-decompiler.com/flash" xmlns:xlink="http://www.w3.org/1999/xlink" ffdec:objectType="shape" height="31.45px" width="118.0px" xmlns="http://www.w3.org/2000/svg">
  <g transform="matrix(1.0, 0.0, 0.0, 1.0, -23.9, -1.55)">
    <path d="M102.8 5.7 L102.85 5.75 102.85 5.8 104.45 6.0 Q105.5 6.4 106.25 6.95 L100.6 6.25 Q99.15 5.9 98.25 5.05 97.25 4.95 96.65 4.25 96.2 3.6 96.35 2.95 96.45 2.35 97.0 2.15 98.5 2.35 98.95 3.6 99.4 4.75 100.75 5.2 L102.7 5.6 102.8 5.7" fill="#ffffff" fill-opacity="0.6313726" fill-rule="evenodd" stroke="none"/>
    <path d="M125.15 18.75 L125.15 18.55 125.45 18.55 125.15 18.75" fill="url(#gradient0)" fill-rule="evenodd" stroke="none"/>
    <path d="M111.45 25.45 Q109.3 25.55 102.5 23.1 95.75 20.7 95.75 17.25 95.75 13.8 102.5 11.35 109.3 8.95 105.15 6.7 101.0 4.45 120.45 8.85 139.9 13.3 141.7 15.8 143.5 18.25 128.55 21.8 113.6 25.3 111.45 25.45" fill="#183b64" fill-opacity="0.7019608" fill-rule="evenodd" stroke="none"/>
    <path d="M128.1 16.7 L125.45 18.55 125.15 18.55 125.15 18.75 Q118.05 23.25 107.4 25.3 94.45 27.75 77.3 26.05 60.15 24.2 43.85 19.85 27.55 15.35 28.85 15.2 L52.1 10.4 Q74.05 5.75 84.95 5.25 95.75 4.65 108.75 7.8 121.7 10.8 128.1 16.7 M112.7 23.7 L113.15 23.75 113.1 23.75 112.75 23.65 112.7 23.7" fill="url(#gradient1)" fill-rule="evenodd" stroke="none"/>
    <path d="M112.7 23.7 L112.75 23.65 113.1 23.75 113.15 23.75 112.7 23.7" fill="url(#gradient2)" fill-rule="evenodd" stroke="none"/>
    <path d="M23.9 16.45 L30.15 15.65 32.65 15.15 Q39.8 14.85 53.3 15.5 L68.95 16.55 53.6 17.25 32.15 16.65 23.9 16.45" fill="#5e7b9f" fill-rule="evenodd" stroke="none"/>
    <path d="M117.75 17.45 L104.85 17.3 Q94.65 17.15 77.35 17.6 L71.55 17.0 81.4 15.7 94.15 14.85 105.35 15.35 113.25 16.45 117.75 17.45" fill="#cdcdcd" fill-rule="evenodd" stroke="none"/>
    <path d="M104.6 4.7 L104.75 5.55 105.15 5.85 Q105.65 6.25 106.25 6.5 L106.9 7.1 Q106.15 7.45 105.2 6.9 L103.95 6.25 Q102.6 5.65 102.0 4.55 101.5 3.6 102.55 3.4 L103.75 3.85 104.6 4.7" fill="#ffffff" fill-opacity="0.6313726" fill-rule="evenodd" stroke="none"/>
    <path d="M105.55 3.1 Q107.25 3.5 106.4 4.95 106.25 5.2 106.35 5.55 106.95 6.65 108.0 7.5 L108.95 8.1 109.1 8.25 107.85 8.1 Q106.2 7.05 105.15 5.5 104.55 4.55 104.95 3.6 105.1 3.2 105.55 3.1" fill="#ffffff" fill-opacity="0.6313726" fill-rule="evenodd" stroke="none"/>
    <path d="M129.95 17.25 Q128.25 17.4 127.4 16.1 127.35 15.95 127.15 15.9 125.35 15.2 124.15 13.9 123.7 13.45 123.0 13.25 L122.7 13.1 121.4 12.45 120.95 12.25 120.8 12.2 120.7 12.1 Q119.1 11.25 117.35 10.55 114.7 9.45 111.8 9.1 110.95 9.05 110.45 8.65 109.2 8.45 108.2 7.7 L107.4 6.7 Q107.0 5.8 107.95 5.6 109.25 5.9 109.8 7.0 L110.4 7.4 Q111.75 7.55 112.65 8.4 113.0 8.75 113.55 8.6 113.65 8.25 114.15 8.35 114.75 8.45 115.2 8.85 L115.5 8.9 Q114.55 8.45 114.3 7.6 114.2 7.2 114.7 7.15 115.75 6.9 116.25 7.75 L116.45 8.7 116.45 8.75 Q117.95 9.0 118.35 10.05 L118.55 10.35 118.8 10.5 119.35 10.8 121.2 11.75 121.05 11.65 120.55 11.25 120.35 10.7 120.35 10.5 121.8 10.55 Q122.5 10.8 122.3 11.4 L122.25 11.75 122.6 11.95 123.05 12.3 123.2 12.8 123.25 12.95 123.5 13.0 124.25 13.25 124.7 13.5 Q124.35 13.0 124.5 12.5 124.7 11.7 125.65 12.0 126.25 12.1 126.4 12.6 L126.5 13.45 126.85 13.75 127.6 14.4 127.8 15.05 127.8 15.15 Q129.6 15.7 130.1 17.15 L129.95 17.25" fill="#ffffff" fill-opacity="0.6313726" fill-rule="evenodd" stroke="none"/>
    <path d="M74.0 4.25 L73.95 4.25 73.95 4.15 73.95 4.05 74.0 4.25 M70.4 5.55 L74.0 5.55 78.4 4.8 79.65 4.55 Q77.15 3.1 78.45 2.65 79.75 2.15 80.75 3.25 81.7 4.3 82.3 4.4 L83.5 4.3 Q83.05 4.05 83.05 3.6 83.1 2.95 83.85 2.85 85.5 2.55 85.4 3.85 L85.35 4.1 87.6 3.95 89.5 3.8 91.0 3.95 Q90.95 3.4 91.4 3.15 L92.9 2.95 Q93.75 3.25 94.05 2.5 94.3 1.8 95.05 1.55 L95.8 1.6 96.55 1.85 97.05 2.35 Q98.2 2.6 98.9 3.45 99.6 4.35 100.85 4.9 101.9 5.3 102.6 6.1 L102.6 6.2 102.55 6.2 102.5 6.3 102.45 6.35 94.2 5.4 91.35 5.15 82.95 5.65 81.15 5.55 Q79.25 6.2 77.15 6.3 L67.25 7.45 Q64.95 7.8 62.85 8.5 L62.05 8.75 56.5 9.45 Q56.25 8.55 57.75 8.4 L61.2 7.7 62.6 7.45 62.85 7.35 62.75 6.3 Q62.75 5.7 63.15 5.2 L64.2 5.1 Q65.0 5.5 65.0 6.3 L64.95 6.85 Q67.05 6.65 68.95 5.85 L70.4 5.55 M91.85 3.6 L91.75 3.55 91.7 3.65 91.85 3.6" fill="#ffffff" fill-opacity="0.6313726" fill-rule="evenodd" stroke="none"/>
    <path d="M69.25 4.75 Q69.0 4.3 69.3 3.95 69.45 3.7 69.75 3.65 71.15 3.45 71.55 4.5 L72.0 5.2 Q72.5 5.85 73.45 5.8 L74.7 5.95 Q74.75 6.5 73.95 6.5 71.95 6.55 70.3 5.65 69.65 5.3 69.25 4.75" fill="#ffffff" fill-opacity="0.6313726" fill-rule="evenodd" stroke="none"/>
    <path d="M113.85 23.35 Q117.7 23.05 120.5 20.5 L122.6 19.0 Q125.55 17.5 128.45 16.15 129.25 17.25 127.25 18.2 125.95 18.85 124.85 19.8 123.85 20.65 122.75 20.15 120.85 20.85 119.45 22.15 117.75 23.75 115.3 24.05 113.95 24.15 113.85 23.35" fill="#ffffff" fill-opacity="0.6313726" fill-rule="evenodd" stroke="none"/>
    <path d="M116.35 23.55 Q109.1 25.75 104.4 26.4 L97.05 27.1 Q95.55 27.1 94.5 28.15 93.0 29.6 88.15 28.1 L90.85 27.7 92.3 27.75 Q96.1 24.8 101.45 25.4 104.3 25.75 106.75 24.45 108.15 23.7 109.9 23.75 L110.45 23.75 111.3 23.75 112.45 23.9 116.35 23.55 M81.05 32.95 Q79.5 32.45 83.3 30.5 87.05 28.55 87.65 28.3 L87.7 28.3 Q82.6 33.45 81.05 32.95" fill="#ffffff" fill-opacity="0.6313726" fill-rule="evenodd" stroke="none"/>
    <path d="M118.0 22.2 L118.1 22.3 119.5 21.85 120.85 21.4 121.75 21.3 117.7 24.45 116.15 25.8 Q115.05 26.9 113.3 27.2 110.4 27.75 110.65 25.55 112.55 24.7 114.35 24.0 L115.15 23.55 117.55 22.0 117.8 22.1 118.0 22.2" fill="#ffffff" fill-opacity="0.6313726" fill-rule="evenodd" stroke="none"/>
    <path d="M90.9 27.55 L88.65 27.65 Q85.3 27.45 82.15 27.55 L80.55 27.75 80.5 27.85 79.75 28.6 78.65 29.05 76.05 29.0 Q75.25 28.8 74.7 28.25 L74.65 28.15 74.65 28.05 74.65 27.8 74.65 27.6 74.7 27.5 74.75 27.4 74.85 27.3 77.05 27.1 77.75 27.3 77.85 27.3 77.9 27.15 Q77.95 26.85 78.25 26.65 L78.5 26.45 78.85 26.3 81.15 25.9 85.0 26.0 88.45 26.2 Q90.25 25.95 91.4 27.1 91.4 27.5 90.9 27.55" fill="#ffffff" fill-opacity="0.6313726" fill-rule="evenodd" stroke="none"/>
    <path d="M64.1 25.15 L65.7 25.25 67.95 25.5 69.35 25.1 69.6 25.0 73.8 25.1 77.35 25.8 80.5 26.3 80.75 26.45 Q79.2 28.35 76.1 27.3 72.25 26.0 69.65 26.85 67.05 27.75 65.55 26.3 L64.1 25.15" fill="#ffffff" fill-opacity="0.6313726" fill-rule="evenodd" stroke="none"/>
    <path d="M52.1 6.5 L54.5 7.15 Q56.05 7.8 57.95 7.9 60.15 8.05 58.55 9.1 57.5 9.8 56.25 9.45 L55.85 9.7 Q54.6 10.3 53.2 10.5 L50.15 10.35 48.6 10.5 Q47.4 11.35 45.75 11.75 44.4 12.05 43.2 12.65 41.6 13.45 39.7 13.7 36.2 14.2 32.85 15.2 L32.05 15.5 32.1 15.7 Q32.15 16.3 33.0 16.5 L34.9 16.8 36.75 16.95 37.7 17.45 44.9 19.2 Q49.7 20.55 54.2 21.1 L54.7 21.15 Q58.2 21.65 61.05 23.1 L61.3 23.6 64.1 23.8 65.6 23.9 70.85 24.15 Q71.75 24.1 71.7 24.95 L71.55 25.35 71.2 25.4 66.05 25.25 63.9 24.95 63.7 24.85 63.45 24.95 Q62.9 25.45 62.15 25.25 L58.95 24.85 58.85 24.9 58.05 25.5 55.3 25.45 54.95 24.9 Q54.9 24.4 55.25 23.95 L55.05 23.9 54.75 23.8 53.85 23.45 53.45 23.15 53.3 22.9 52.95 22.9 52.35 22.9 Q51.85 23.0 51.4 22.65 L50.75 22.4 50.35 22.6 Q49.8 23.35 48.85 23.7 47.55 24.15 46.85 23.25 46.3 22.55 47.2 22.1 L48.35 21.5 Q46.6 20.6 44.75 20.9 L41.7 21.1 Q40.4 21.1 39.25 21.75 37.1 23.1 36.5 21.35 36.05 20.05 37.65 20.0 L40.15 19.6 40.1 19.5 39.35 19.15 37.15 18.75 Q36.75 18.75 36.4 18.4 L36.35 18.4 33.95 18.2 31.75 17.45 30.9 16.85 30.8 16.8 27.3 17.75 Q25.15 18.3 24.05 16.9 23.7 16.5 24.15 16.25 26.9 14.55 30.45 14.85 L30.7 14.7 26.35 14.15 28.2 14.25 Q30.8 14.55 35.0 13.25 39.15 11.9 40.05 10.7 40.9 9.55 42.9 9.8 L45.9 9.7 50.25 9.4 Q50.35 8.45 51.4 6.9 52.4 5.35 52.3 5.9 L52.1 6.5" fill="#ffffff" fill-opacity="0.6313726" fill-rule="evenodd" stroke="none"/>
  </g>
  <defs>
    <radialGradient cx="0" cy="0" gradientTransform="matrix(0.0483, 0.0, 0.0, 0.0143, 86.7, 17.15)" gradientUnits="userSpaceOnUse" id="gradient0" r="819.2" spreadMethod="pad">
      <stop offset="0.13333333333333333" stop-color="#a2b1c9"/>
      <stop offset="1.0" stop-color="#6f88a6"/>
    </radialGradient>
    <radialGradient cx="0" cy="0" gradientTransform="matrix(0.0483, 0.0, 0.0, 0.0143, 86.7, 17.15)" gradientUnits="userSpaceOnUse" id="gradient1" r="819.2" spreadMethod="pad">
      <stop offset="0.13333333333333333" stop-color="#a2b1c9"/>
      <stop offset="1.0" stop-color="#536f91"/>
    </radialGradient>
    <radialGradient cx="0" cy="0" gradientTransform="matrix(3.0E-4, 0.0, 0.0, 3.0E-4, 112.95, 23.7)" gradientUnits="userSpaceOnUse" id="gradient2" r="819.2" spreadMethod="pad">
      <stop offset="0.13333333333333333" stop-color="#a2b1c9"/>
      <stop offset="1.0" stop-color="#536f91"/>
    </radialGradient>
  </defs>
</svg>
