<?xml version="1.0" encoding="UTF-8" standalone="no"?>
<svg xmlns:ffdec="https://www.free-decompiler.com/flash" xmlns:xlink="http://www.w3.org/1999/xlink" ffdec:objectType="shape" height="24.0px" width="118.0px" xmlns="http://www.w3.org/2000/svg">
  <g transform="matrix(1.0, 0.0, 0.0, 1.0, -23.8, -2.65)">
    <path d="M125.05 18.65 L125.05 18.45 125.35 18.45 125.05 18.65" fill="url(#gradient0)" fill-rule="evenodd" stroke="none"/>
    <path d="M84.85 5.15 Q94.45 4.6 105.75 7.05 L105.05 6.6 Q100.9 4.35 120.35 8.75 139.8 13.2 141.6 15.7 143.4 18.15 128.45 21.7 114.6 24.95 105.8 25.5 93.35 27.55 77.2 25.95 60.05 24.1 43.75 19.75 27.45 15.25 28.75 15.1 L52.0 10.3 Q73.95 5.65 84.85 5.15" fill="#183b64" fill-opacity="0.7019608" fill-rule="evenodd" stroke="none"/>
    <path d="M87.0 7.35 Q96.0 7.95 105.3 9.9 114.6 11.8 123.75 17.4 103.75 20.5 93.65 22.6 83.5 24.65 67.05 21.95 50.6 19.2 46.55 16.75 77.9 6.75 87.0 7.35 M125.05 18.65 Q133.75 28.15 124.5 18.1 L125.05 18.65" fill="url(#gradient1)" fill-rule="evenodd" stroke="none"/>
    <path d="M113.05 23.65 L112.6 23.6 112.65 23.55 113.0 23.65 113.05 23.65" fill="url(#gradient2)" fill-rule="evenodd" stroke="none"/>
    <path d="M23.8 16.35 L30.05 15.55 32.55 15.05 Q39.7 14.75 53.2 15.4 L68.85 16.45 53.5 17.15 32.05 16.55 23.8 16.35" fill="#5e7b9f" fill-rule="evenodd" stroke="none"/>
    <path d="M117.65 17.35 L104.75 17.2 Q94.55 17.05 77.25 17.5 L71.45 16.9 81.3 15.6 94.05 14.75 105.25 15.25 113.15 16.35 117.65 17.35" fill="#cdcdcd" fill-rule="evenodd" stroke="none"/>
    <path d="M104.5 7.4 L104.65 8.25 105.05 8.55 106.15 9.2 Q106.65 9.35 106.8 9.8 L105.1 9.6 103.85 8.95 Q102.5 8.35 101.9 7.25 101.4 6.3 102.45 6.1 L103.65 6.55 104.5 7.4" fill="#ffffff" fill-opacity="0.6313726" fill-rule="evenodd" stroke="none"/>
    <path d="M105.45 3.0 Q107.15 3.4 106.3 4.85 106.15 5.1 106.25 5.45 106.85 6.55 107.9 7.4 L108.85 8.0 109.0 8.15 107.75 8.0 Q106.1 6.95 105.05 5.4 104.45 4.45 104.85 3.5 L105.45 3.0" fill="#ffffff" fill-opacity="0.6313726" fill-rule="evenodd" stroke="none"/>
    <path d="M127.7 19.3 Q126.0 19.45 125.15 18.15 L124.9 17.95 Q123.1 17.25 121.9 15.95 121.45 15.5 120.75 15.3 120.55 15.3 120.45 15.15 L119.15 14.5 118.7 14.3 118.55 14.25 118.45 14.15 Q116.85 13.3 115.1 12.6 112.45 11.5 109.55 11.15 108.7 11.1 108.2 10.7 106.95 10.5 105.95 9.75 L105.15 8.75 Q104.75 7.85 105.7 7.65 107.0 7.95 107.55 9.05 L108.15 9.45 Q109.5 9.6 110.4 10.45 110.75 10.8 111.3 10.65 111.4 10.3 111.9 10.4 112.5 10.5 112.95 10.9 L113.25 10.95 Q112.3 10.5 112.05 9.65 111.95 9.25 112.45 9.2 113.5 8.95 114.0 9.8 L114.2 10.75 114.2 10.8 Q115.7 11.05 116.1 12.1 L116.3 12.4 116.55 12.55 117.1 12.85 118.95 13.8 118.8 13.7 118.3 13.3 118.1 12.75 118.1 12.55 119.55 12.6 Q120.25 12.85 120.05 13.45 L120.0 13.8 120.35 14.0 120.8 14.35 120.95 14.85 121.0 15.0 121.25 15.05 122.0 15.3 122.45 15.55 Q122.1 15.05 122.25 14.55 122.45 13.75 123.4 14.05 124.0 14.15 124.15 14.65 L124.25 15.5 124.6 15.8 125.35 16.45 125.55 17.1 125.55 17.2 Q127.35 17.75 127.85 19.2 L127.7 19.3" fill="#ffffff" fill-opacity="0.6313726" fill-rule="evenodd" stroke="none"/>
    <path d="M73.9 7.4 L73.85 7.4 73.85 7.3 73.85 7.2 73.9 7.4 M70.3 8.7 L73.9 8.7 78.3 7.95 79.55 7.7 Q77.05 6.25 78.35 5.8 79.65 5.3 80.65 6.4 81.6 7.45 82.2 7.55 L83.4 7.45 Q82.95 7.2 82.95 6.75 83.0 6.1 83.75 6.0 85.4 5.7 85.3 7.0 L85.25 7.25 87.5 7.1 89.4 6.95 90.9 7.1 Q90.85 6.55 91.3 6.3 L92.8 6.1 Q93.65 6.4 93.95 5.65 94.2 4.95 94.95 4.7 L95.7 4.75 96.45 5.0 96.95 5.5 Q98.1 5.75 98.8 6.6 99.5 7.5 100.75 8.05 L102.5 9.25 102.5 9.35 102.45 9.35 102.4 9.45 102.35 9.5 94.1 8.55 91.25 8.3 82.85 8.8 81.05 8.7 Q79.15 9.35 77.05 9.45 L67.15 10.6 62.75 11.65 61.95 11.9 Q59.25 12.65 56.4 12.6 56.15 11.7 57.65 11.55 L61.1 10.85 62.5 10.6 62.75 10.5 62.65 9.45 Q62.65 8.85 63.05 8.35 L64.1 8.25 Q64.9 8.65 64.9 9.45 L64.85 10.0 Q66.95 9.8 68.85 9.0 L70.3 8.7 M91.75 6.75 L91.65 6.7 91.6 6.8 91.75 6.75" fill="#ffffff" fill-opacity="0.6313726" fill-rule="evenodd" stroke="none"/>
    <path d="M76.6 6.95 L77.4 7.9 Q77.0 8.35 76.45 7.8 75.0 6.4 74.45 4.6 74.25 3.9 74.35 3.2 74.5 2.75 75.0 2.65 L75.5 2.8 Q76.6 3.65 76.2 4.65 76.0 5.05 75.95 5.5 75.85 6.3 76.6 6.95" fill="#ffffff" fill-opacity="0.6313726" fill-rule="evenodd" stroke="none"/>
    <path d="M112.3 20.05 Q116.15 20.65 118.95 18.75 119.95 18.0 121.05 17.7 L126.9 16.25 Q127.7 17.5 125.7 18.0 124.4 18.35 123.3 19.05 L121.2 18.9 Q119.3 19.15 117.9 20.15 116.2 21.35 113.75 21.05 112.4 20.85 112.3 20.05" fill="#ffffff" fill-opacity="0.6313726" fill-rule="evenodd" stroke="none"/>
    <path d="M116.35 20.1 L104.4 22.45 97.05 23.0 Q95.55 23.05 94.45 23.9 92.8 25.2 90.4 25.3 L89.85 25.75 Q88.8 26.45 87.35 26.35 L86.05 26.25 Q85.75 25.7 86.1 25.15 86.55 24.4 87.6 24.0 89.05 23.45 90.8 23.5 L92.25 23.6 Q96.1 21.15 101.45 21.65 104.3 21.9 106.75 20.85 108.15 20.25 109.9 20.3 L110.45 20.3 111.3 20.3 112.45 20.4 116.35 20.1" fill="#ffffff" fill-opacity="0.6313726" fill-rule="evenodd" stroke="none"/>
    <path d="M115.6 18.0 L115.65 18.1 117.1 18.05 118.55 18.0 119.45 18.1 114.7 20.1 112.85 21.0 Q111.5 21.8 109.75 21.65 106.8 21.45 107.6 19.35 L111.6 18.8 112.5 18.55 Q113.75 18.0 115.15 17.75 L115.4 17.85 115.6 18.0" fill="#ffffff" fill-opacity="0.6313726" fill-rule="evenodd" stroke="none"/>
    <path d="M91.35 24.0 L89.1 24.1 Q85.75 23.9 82.6 24.0 L81.0 24.2 80.95 24.3 80.2 25.05 79.1 25.5 76.5 25.45 Q75.7 25.25 75.15 24.7 L75.1 24.6 75.1 24.5 75.1 24.25 75.1 24.05 75.15 23.95 75.2 23.85 75.3 23.75 77.5 23.55 78.2 23.75 78.3 23.75 78.35 23.6 Q78.4 23.3 78.7 23.1 L78.95 22.9 79.3 22.75 81.6 22.35 85.45 22.45 88.9 22.65 Q90.7 22.4 91.85 23.55 91.85 23.95 91.35 24.0" fill="#ffffff" fill-opacity="0.6313726" fill-rule="evenodd" stroke="none"/>
    <path d="M66.25 23.0 L66.45 22.9 68.4 22.95 70.65 23.2 72.05 22.8 72.3 22.7 76.5 22.8 80.05 23.5 83.2 24.0 Q83.35 24.0 83.45 24.15 81.9 26.05 78.8 25.0 74.95 23.7 71.35 25.45 68.5 26.85 66.35 24.9 65.45 24.05 66.25 23.0" fill="#ffffff" fill-opacity="0.6313726" fill-rule="evenodd" stroke="none"/>
    <path d="M30.65 14.8 L39.6 14.35 Q40.2 14.25 40.55 13.75 41.95 11.9 44.65 12.9 L46.75 12.95 51.1 12.65 49.45 12.1 48.8 11.45 48.65 10.9 Q48.6 10.15 49.35 9.8 L50.05 9.6 Q52.85 9.45 55.35 10.4 56.9 11.05 58.8 11.15 61.0 11.3 59.4 12.35 58.35 13.05 57.1 12.7 L56.7 12.95 Q55.45 13.55 54.05 13.75 L51.0 13.6 49.45 13.75 Q48.25 14.6 46.6 15.0 45.25 15.3 44.05 15.9 42.45 16.7 40.55 16.95 L35.15 18.05 31.45 18.05 31.55 17.95 Q27.95 17.5 29.7 15.15 30.05 14.7 30.65 14.8" fill="#ffffff" fill-opacity="0.6313726" fill-rule="evenodd" stroke="none"/>
    <path d="M97.0 5.75 Q97.1 5.15 97.65 4.95 99.15 5.15 99.6 6.4 100.05 7.55 101.4 8.0 L103.35 8.4 103.45 8.5 103.5 8.55 103.5 8.6 105.1 8.8 Q106.15 9.2 106.9 9.75 104.25 9.8 101.25 9.05 99.8 8.7 98.9 7.85 97.9 7.75 97.3 7.05 96.85 6.4 97.0 5.75" fill="#ffffff" fill-opacity="0.6313726" fill-rule="evenodd" stroke="none"/>
    <path d="M77.8 23.8 L77.45 23.85 72.3 23.7 70.15 23.4 69.95 23.3 69.7 23.4 Q69.15 23.9 68.4 23.7 L65.2 23.3 65.1 23.35 Q64.8 23.75 64.3 23.95 L61.55 23.9 61.2 23.35 Q61.15 22.85 61.5 22.4 L61.3 22.35 61.0 22.25 60.1 21.9 59.7 21.6 59.55 21.35 59.2 21.35 58.6 21.35 57.65 21.1 57.0 20.85 Q56.75 20.9 56.6 21.05 56.05 21.8 55.1 22.15 53.8 22.6 53.1 21.7 52.55 21.0 53.45 20.55 L54.6 19.95 Q52.85 19.05 51.0 19.35 L47.95 19.55 Q46.65 19.55 45.5 20.2 43.35 21.55 42.75 19.8 42.3 18.5 43.9 18.45 L46.4 18.05 46.35 17.95 45.6 17.6 43.4 17.2 Q43.0 17.2 42.65 16.85 L42.6 16.85 42.45 16.85 40.2 16.65 Q39.05 16.45 38.0 15.9 L37.15 15.3 37.05 15.25 33.55 16.2 Q31.4 16.75 30.3 15.35 29.95 14.95 30.4 14.7 33.15 13.0 36.7 13.3 L36.85 13.25 40.55 13.25 39.1 13.65 38.3 13.95 38.35 14.15 Q38.4 14.75 39.25 14.95 L41.15 15.25 42.45 15.4 43.0 15.4 Q43.6 15.45 43.95 15.9 L51.15 17.65 Q55.95 19.0 60.45 19.55 L60.95 19.6 Q64.45 20.1 67.3 21.55 67.65 21.7 67.55 22.05 L70.35 22.25 71.85 22.35 77.1 22.6 Q78.0 22.55 77.95 23.4 L77.8 23.8" fill="#ffffff" fill-opacity="0.6313726" fill-rule="evenodd" stroke="none"/>
  </g>
  <defs>
    <radialGradient cx="0" cy="0" gradientTransform="matrix(0.0483, 0.0, 0.0, 0.0143, 86.6, 17.05)" gradientUnits="userSpaceOnUse" id="gradient0" r="819.2" spreadMethod="pad">
      <stop offset="0.13333333333333333" stop-color="#a2b1c9"/>
      <stop offset="1.0" stop-color="#6f88a6"/>
    </radialGradient>
    <radialGradient cx="0" cy="0" gradientTransform="matrix(0.0483, 0.0, 0.0, 0.0143, 86.6, 17.05)" gradientUnits="userSpaceOnUse" id="gradient1" r="819.2" spreadMethod="pad">
      <stop offset="0.13333333333333333" stop-color="#a2b1c9"/>
      <stop offset="1.0" stop-color="#536f91"/>
    </radialGradient>
    <radialGradient cx="0" cy="0" gradientTransform="matrix(3.0E-4, 0.0, 0.0, 3.0E-4, 112.85, 23.6)" gradientUnits="userSpaceOnUse" id="gradient2" r="819.2" spreadMethod="pad">
      <stop offset="0.13333333333333333" stop-color="#a2b1c9"/>
      <stop offset="1.0" stop-color="#536f91"/>
    </radialGradient>
  </defs>
</svg>
