<?xml version="1.0" encoding="UTF-8" standalone="no"?>
<svg xmlns:ffdec="https://www.free-decompiler.com/flash" xmlns:xlink="http://www.w3.org/1999/xlink" ffdec:objectType="shape" height="23.4px" width="117.3px" xmlns="http://www.w3.org/2000/svg">
  <g transform="matrix(1.0, 0.0, 0.0, 1.0, -24.45, -3.15)">
    <path d="M84.8 5.05 Q87.25 4.9 89.85 5.0 101.25 4.35 120.3 8.65 139.75 13.1 141.55 15.6 143.35 18.05 128.4 21.6 114.55 24.85 105.75 25.4 93.3 27.45 77.15 25.85 60.0 24.0 43.7 19.65 27.4 15.15 28.7 15.0 L51.95 10.2 Q73.9 5.55 84.8 5.05" fill="#183b64" fill-opacity="0.7019608" fill-rule="evenodd" stroke="none"/>
    <path d="M124.6 14.95 L124.3 14.95 124.3 15.05 Q117.2 16.6 106.55 17.3 93.6 18.15 76.45 17.55 66.5 17.2 51.85 12.1 L84.1 10.35 107.9 11.25 Q120.85 12.25 127.25 14.3 L124.6 14.95 M112.3 16.75 L112.25 16.75 111.9 16.75 111.85 16.75 112.3 16.75" fill="url(#gradient0)" fill-rule="evenodd" stroke="none"/>
    <path d="M112.3 16.75 L111.85 16.75 111.9 16.75 112.25 16.75 112.3 16.75" fill="url(#gradient1)" fill-rule="evenodd" stroke="none"/>
    <path d="M62.0 15.8 L68.8 16.35 62.0 15.8" fill="#5e7b9f" fill-rule="evenodd" stroke="none"/>
    <path d="M117.6 15.15 L104.7 15.05 Q94.5 14.95 77.2 15.25 L71.4 14.85 81.25 13.95 94.0 13.4 105.2 13.75 113.1 14.45 117.6 15.15" fill="#cdcdcd" fill-rule="evenodd" stroke="none"/>
    <path d="M125.0 17.45 L125.3 17.45 125.0 17.65 125.0 17.45" fill="url(#gradient2)" fill-rule="evenodd" stroke="none"/>
    <path d="M102.65 11.35 L102.7 11.35 102.7 11.4 104.3 11.45 106.1 11.85 100.45 11.6 98.1 11.1 96.5 10.75 Q96.05 10.5 96.2 10.2 96.3 9.95 96.85 9.9 98.35 9.95 98.8 10.5 99.25 10.95 100.6 11.15 L102.55 11.3 102.65 11.35" fill="#ffffff" fill-opacity="0.6313726" fill-rule="evenodd" stroke="none"/>
    <path d="M104.45 10.95 L104.6 11.3 105.0 11.45 106.1 11.7 Q106.6 11.75 106.75 11.95 L105.05 11.85 103.8 11.6 Q102.45 11.35 101.85 10.85 101.35 10.5 102.4 10.4 L103.6 10.6 Q104.2 10.7 104.45 10.95" fill="#ffffff" fill-opacity="0.6313726" fill-rule="evenodd" stroke="none"/>
    <path d="M105.4 10.3 Q107.1 10.45 106.25 11.05 106.1 11.15 106.2 11.3 106.8 11.75 107.85 12.1 L108.8 12.35 108.95 12.4 107.7 12.35 Q106.05 11.9 105.0 11.25 104.4 10.85 104.8 10.5 104.95 10.3 105.4 10.3" fill="#ffffff" fill-opacity="0.6313726" fill-rule="evenodd" stroke="none"/>
    <path d="M129.8 16.15 Q128.1 16.2 127.25 15.65 L127.0 15.6 124.0 14.75 122.85 14.5 122.55 14.4 121.25 14.15 120.8 14.05 120.65 14.05 120.55 14.0 117.2 13.35 111.65 12.75 110.3 12.6 108.05 12.2 107.25 11.75 Q106.85 11.4 107.8 11.3 109.1 11.45 109.65 11.9 L110.25 12.05 112.5 12.45 113.4 12.55 114.0 12.45 115.05 12.65 115.35 12.7 Q114.4 12.5 114.15 12.15 114.05 12.0 114.55 11.95 L116.1 12.2 116.3 12.6 116.3 12.65 Q117.8 12.7 118.2 13.15 L118.4 13.3 118.65 13.35 119.2 13.45 121.05 13.85 120.9 13.8 120.4 13.65 120.2 13.45 120.2 13.35 121.65 13.35 Q122.35 13.45 122.15 13.7 L122.1 13.85 122.45 13.95 122.9 14.1 123.05 14.3 123.1 14.35 123.35 14.4 124.1 14.5 124.55 14.6 Q124.2 14.4 124.35 14.15 L125.5 13.95 126.25 14.2 126.35 14.55 126.7 14.7 127.45 14.95 127.65 15.25 Q129.45 15.5 129.95 16.1 L129.8 16.15" fill="#ffffff" fill-opacity="0.6313726" fill-rule="evenodd" stroke="none"/>
    <path d="M70.95 9.75 Q72.4 8.6 74.85 8.5 77.3 8.4 78.05 9.35 78.8 10.35 79.5 10.3 79.25 3.4 80.55 3.15 81.85 2.9 81.7 6.55 81.55 10.2 82.15 10.25 L83.35 10.2 82.9 9.8 Q82.95 9.5 83.7 9.4 85.35 9.25 85.25 9.95 L85.2 10.1 87.45 10.0 89.35 9.9 90.85 10.0 Q90.8 9.7 91.25 9.55 L92.75 9.5 Q93.6 9.6 93.9 9.25 94.15 8.85 94.9 8.7 L95.65 8.75 96.4 8.9 96.9 9.15 Q98.05 9.3 98.75 9.75 99.45 10.2 100.7 10.5 101.75 10.7 102.45 11.15 L102.45 11.2 102.4 11.2 102.35 11.25 102.3 11.25 94.05 10.75 91.2 10.65 82.8 10.9 81.0 10.85 77.0 11.25 67.1 11.85 62.7 12.4 61.9 12.55 56.35 12.9 Q56.1 12.45 57.6 12.35 L61.05 12.0 62.45 11.85 62.7 11.8 62.6 11.25 63.0 10.7 64.05 10.6 Q64.85 10.8 64.85 11.25 L64.8 11.5 68.8 11.0 Q69.45 10.85 70.95 9.75 M91.7 9.85 Q91.7 9.75 91.6 9.8 L91.55 9.85 91.7 9.85" fill="#ffffff" fill-opacity="0.6313726" fill-rule="evenodd" stroke="none"/>
    <path d="M72.0 9.55 Q71.85 10.4 72.1 11.0 72.35 11.6 73.3 11.6 L74.55 11.6 73.8 11.7 70.15 11.55 Q69.5 11.5 69.4 10.6 69.25 9.75 69.9 8.95 70.5 8.15 71.3 8.4 72.1 8.7 72.0 9.55" fill="#ffffff" fill-opacity="0.6313726" fill-rule="evenodd" stroke="none"/>
    <path d="M29.65 13.75 Q34.25 13.95 38.6 13.6 L39.55 13.35 Q40.95 12.55 43.65 13.0 L45.75 13.0 50.1 12.9 48.45 12.65 47.8 12.4 47.65 12.15 Q47.6 11.85 48.35 11.7 L49.05 11.6 54.35 11.95 57.8 12.25 Q60.0 12.3 58.4 12.75 L56.1 12.9 55.7 13.0 53.05 13.35 50.0 13.25 48.45 13.35 45.6 13.85 43.05 14.25 39.55 14.65 38.6 14.7 32.7 15.3 31.9 15.4 31.95 15.5 32.05 15.6 24.45 15.6 30.3 15.15 30.55 15.1 Q26.95 14.9 28.7 13.9 L29.65 13.75" fill="#ffffff" fill-opacity="0.6313726" fill-rule="evenodd" stroke="none"/>
    <path d="M118.8 15.3 L119.95 15.35 123.85 15.15 111.9 16.8 104.55 17.15 Q103.05 17.2 102.0 17.75 100.35 18.65 97.95 18.75 L97.4 19.05 94.9 19.45 93.6 19.35 Q93.3 19.0 93.65 18.6 94.1 18.1 95.15 17.85 L98.35 17.5 99.8 17.55 Q103.6 15.9 108.95 16.2 L114.25 15.7 117.4 15.3 117.95 15.3 118.8 15.3 M98.4 17.45 L96.15 17.5 89.65 17.45 88.05 17.55 88.0 17.6 87.25 18.0 86.15 18.25 83.55 18.25 82.2 17.8 82.15 17.75 82.15 17.7 82.15 17.6 82.15 17.45 82.25 17.35 82.35 17.3 82.9 17.2 76.15 17.55 Q73.3 18.35 71.15 17.25 70.25 16.75 71.05 16.15 L71.25 16.1 71.8 16.1 71.4 16.0 71.2 15.95 70.95 16.0 69.65 16.2 66.45 15.95 66.35 16.0 65.55 16.35 62.8 16.3 62.45 16.0 Q62.4 15.7 62.75 15.45 L62.55 15.45 62.25 15.35 61.35 15.2 60.95 15.0 60.8 14.85 60.45 14.85 59.85 14.85 58.9 14.75 58.25 14.6 57.85 14.7 Q57.3 15.1 56.35 15.3 L55.25 15.4 55.25 15.35 55.7 14.15 55.85 14.1 55.75 14.1 56.0 13.3 61.7 13.85 62.2 13.9 Q65.7 14.15 68.55 15.0 L68.8 15.25 71.6 15.35 73.1 15.45 78.35 15.55 Q79.2 15.55 79.2 16.0 L81.3 16.05 84.85 16.45 87.1 16.7 88.65 16.5 Q90.7 16.25 92.5 16.55 L95.95 16.7 Q97.75 16.55 98.9 17.15 98.9 17.4 98.4 17.45 M75.9 16.2 L73.55 16.2 75.45 16.25 75.9 16.2" fill="#ffffff" fill-opacity="0.6313726" fill-rule="evenodd" stroke="none"/>
  </g>
  <defs>
    <radialGradient cx="0" cy="0" gradientTransform="matrix(0.0483, 0.0, 0.0, 0.005, 85.85, 14.45)" gradientUnits="userSpaceOnUse" id="gradient0" r="819.2" spreadMethod="pad">
      <stop offset="0.13333333333333333" stop-color="#a2b1c9"/>
      <stop offset="1.0" stop-color="#536f91"/>
    </radialGradient>
    <radialGradient cx="0" cy="0" gradientTransform="matrix(3.0E-4, 0.0, 0.0, 1.0E-4, 112.1, 16.75)" gradientUnits="userSpaceOnUse" id="gradient1" r="819.2" spreadMethod="pad">
      <stop offset="0.13333333333333333" stop-color="#a2b1c9"/>
      <stop offset="1.0" stop-color="#536f91"/>
    </radialGradient>
    <radialGradient cx="0" cy="0" gradientTransform="matrix(0.0483, 0.0, 0.0, 0.0143, 86.55, 16.05)" gradientUnits="userSpaceOnUse" id="gradient2" r="819.2" spreadMethod="pad">
      <stop offset="0.13333333333333333" stop-color="#a2b1c9"/>
      <stop offset="1.0" stop-color="#6f88a6"/>
    </radialGradient>
  </defs>
</svg>
