<?xml version="1.0" encoding="UTF-8" standalone="no"?>
<svg xmlns:ffdec="https://www.free-decompiler.com/flash" xmlns:xlink="http://www.w3.org/1999/xlink" ffdec:objectType="shape" height="7.5px" width="5.4px" xmlns="http://www.w3.org/2000/svg">
  <g transform="matrix(1.0, 0.0, 0.0, 1.0, -2.15, -0.85)">
    <path d="M4.4 4.3 L5.7 8.05 Q3.25 8.65 2.25 8.05 1.95 1.65 2.45 1.25 L2.9 1.15 3.05 1.25 4.4 4.3" fill="#153441" fill-rule="evenodd" stroke="none"/>
    <path d="M3.75 1.0 Q4.7 2.1 5.7 4.15 L7.55 8.05 Q4.05 8.65 2.6 8.05 2.15 2.15 2.7 1.05 L3.75 1.0" fill="#758e9a" fill-rule="evenodd" stroke="none"/>
    <path d="M5.05 4.7 Q3.6 2.0 2.65 1.3 L3.3 1.1 Q4.3 1.75 4.7 2.7 L5.4 4.25 7.3 7.6 7.2 7.8 7.15 7.8 Q5.85 6.3 5.05 4.7" fill="#a3c9db" fill-rule="evenodd" stroke="none"/>
  </g>
</svg>
