<?xml version="1.0" encoding="UTF-8" standalone="no"?>
<svg xmlns:ffdec="https://www.free-decompiler.com/flash" xmlns:xlink="http://www.w3.org/1999/xlink" ffdec:objectType="shape" height="18.1px" width="5.95px" xmlns="http://www.w3.org/2000/svg">
  <g transform="matrix(1.0, 0.0, 0.0, 1.0, 0.0, 0.0)">
    <path d="M5.95 5.2 Q5.95 5.95 5.4 7.1 4.85 8.2 4.85 9.2 L5.15 10.45 5.4 12.05 5.0 13.6 4.45 15.2 4.1 16.8 Q3.7 18.1 3.1 18.1 2.1 18.1 2.4 14.55 L1.85 12.95 Q1.25 11.8 1.25 11.15 L1.35 9.75 Q1.35 9.1 0.7 8.35 0.0 7.65 0.0 6.9 0.0 6.45 0.65 5.7 1.25 5.0 1.25 4.5 L0.95 3.75 Q0.65 3.15 0.65 2.5 0.65 1.85 1.05 1.15 1.65 0.0 2.9 0.0 3.95 0.0 4.5 1.25 L4.85 2.5 5.7 3.85 5.95 5.2" fill="#7bd8e7" fill-opacity="0.36078432" fill-rule="evenodd" stroke="none"/>
    <path d="M4.95 6.85 Q4.45 7.45 4.0 8.55 3.5 9.65 4.5 10.7 5.5 11.7 3.95 13.9 3.25 15.85 3.3 13.0 3.3 11.75 2.45 11.15 1.25 10.0 1.9 9.4 2.55 8.8 1.4 8.0 0.2 7.1 1.25 5.65 2.25 4.15 1.6 2.85 0.9 1.55 1.5 1.05 2.1 0.5 3.0 0.6 3.85 0.7 4.45 3.0 5.5 4.0 5.45 5.7 L4.95 6.85" fill="#ffffff" fill-rule="evenodd" stroke="none"/>
  </g>
</svg>
