<?xml version="1.0" encoding="UTF-8" standalone="no"?>
<svg xmlns:ffdec="https://www.free-decompiler.com/flash" xmlns:xlink="http://www.w3.org/1999/xlink" ffdec:objectType="shape" height="11.0px" width="12.7px" xmlns="http://www.w3.org/2000/svg">
  <g transform="matrix(1.0, 0.0, 0.0, 1.0, 5.65, 5.15)">
    <path d="M7.05 3.4 Q3.8 1.15 2.6 2.45 1.4 3.75 1.7 5.65 1.05 3.8 0.5 3.5 -0.1 3.2 -1.5 5.45 -1.15 2.6 -1.7 1.85 -2.15 1.1 -5.35 1.5 -3.9 0.9 -3.55 -0.1 -3.15 -1.05 -5.65 -2.2 L-1.9 -2.4 Q-1.35 -3.05 -2.65 -5.0 -1.2 -3.45 -0.55 -3.45 0.2 -3.35 0.85 -5.15 1.2 -1.8 3.8 -4.0 2.95 -0.9 5.5 -1.2 3.9 -0.4 3.9 0.25 3.9 0.9 7.05 3.4" fill="#c6c6c6" fill-opacity="0.47058824" fill-rule="evenodd" stroke="none"/>
    <path d="M0.7 -1.0 L0.7 -0.75 0.55 -0.7 Q0.2 -0.7 -0.05 -2.35 L-0.35 -4.9 -0.3 -4.9 0.25 -3.0 0.7 -1.0" fill="#545454" fill-rule="evenodd" stroke="none"/>
    <path d="M1.5 -3.55 L0.4 -0.8 0.35 -0.8 0.3 -1.1 Q0.3 -1.7 1.35 -3.7 L1.5 -3.55" fill="#545454" fill-rule="evenodd" stroke="none"/>
    <path d="M2.55 -3.25 L1.65 -2.1 0.55 -0.95 0.4 -1.0 Q1.0 -2.35 2.5 -3.45 L2.55 -3.25" fill="#545454" fill-rule="evenodd" stroke="none"/>
    <path d="M-0.1 -1.2 L0.2 -0.65 -0.1 -0.35 -0.65 -1.15 -0.6 -1.8 -0.5 -1.8 -0.1 -1.2" fill="#545454" fill-rule="evenodd" stroke="none"/>
    <path d="M-0.6 -2.3 L-0.65 -2.15 Q-1.45 -2.65 -1.75 -4.15 L-1.65 -4.15 -0.6 -2.3" fill="#545454" fill-rule="evenodd" stroke="none"/>
    <path d="M-0.1 -0.05 L-0.3 0.2 -2.05 -2.05 -1.9 -2.2 Q-0.1 -0.5 -0.1 -0.05" fill="#545454" fill-rule="evenodd" stroke="none"/>
    <path d="M-0.3 -0.4 Q-0.3 -0.05 -1.45 0.5 L-2.75 1.0 -3.3 0.85 -1.75 -0.1 -0.65 -0.7 -0.3 -0.4" fill="#545454" fill-rule="evenodd" stroke="none"/>
    <path d="M-0.5 -0.05 L-0.8 0.65 -1.15 1.2 -1.25 1.15 -0.95 0.25 -0.65 -0.2 Q-0.5 -0.4 -0.5 -0.05" fill="#545454" fill-rule="evenodd" stroke="none"/>
    <path d="M2.95 5.85 Q2.1 5.25 1.0 2.9 L-0.45 -0.15 Q-0.45 -0.9 0.25 0.15 L1.35 2.3 3.0 5.75 2.95 5.85" fill="#545454" fill-rule="evenodd" stroke="none"/>
    <path d="M1.4 1.3 L-0.15 -0.15 Q-0.15 -0.55 0.75 0.1 L1.65 1.05 1.4 1.3" fill="#545454" fill-rule="evenodd" stroke="none"/>
    <path d="M4.6 0.4 L3.9 0.55 3.1 0.5 2.35 0.15 0.7 -0.15 Q-0.15 -0.15 -0.15 -0.45 -0.15 -0.9 1.2 -0.8 L4.75 0.15 4.6 0.4" fill="#545454" fill-rule="evenodd" stroke="none"/>
    <path d="M3.2 -1.9 Q3.2 -1.5 0.85 -0.6 L0.6 -0.6 0.55 -0.75 Q0.55 -1.0 1.6 -1.5 L3.15 -2.0 3.2 -1.9" fill="#545454" fill-rule="evenodd" stroke="none"/>
    <path d="M0.7 -0.65 L1.75 0.45 2.75 1.8 2.75 1.85 1.6 0.7 0.55 -0.65 0.7 -0.65" fill="#545454" fill-rule="evenodd" stroke="none"/>
    <path d="M-1.65 1.05 L-0.5 -0.35 Q0.05 -0.9 0.05 -0.3 0.05 0.0 -1.25 1.45 L-3.15 3.3 -3.3 3.25 -3.35 3.1 -2.55 2.1 -1.65 1.05" fill="#545454" fill-rule="evenodd" stroke="none"/>
    <path d="M-0.8 -1.2 Q-0.05 -1.2 -0.05 -0.7 -0.05 -0.5 -0.6 -0.25 L-1.8 0.05 Q-2.4 0.05 -3.3 -0.45 L-4.15 -1.25 Q-4.15 -1.75 -3.05 -1.45 L-1.65 -1.05 -0.8 -1.2" fill="#545454" fill-rule="evenodd" stroke="none"/>
    <path d="M-0.6 -0.65 L-1.8 -1.3 Q-2.35 -1.85 -2.35 -2.1 -2.35 -3.1 -0.4 -0.95 -0.4 -0.65 -0.6 -0.65" fill="#545454" fill-rule="evenodd" stroke="none"/>
    <path d="M0.05 -0.9 Q-0.5 -0.9 -0.5 -2.25 0.1 -3.7 0.1 -2.45 L0.25 -1.1 0.05 -0.9" fill="#545454" fill-rule="evenodd" stroke="none"/>
    <path d="M1.8 2.05 L1.65 2.1 Q0.95 2.1 0.35 0.5 0.35 -0.75 1.85 1.85 L1.8 2.05" fill="#545454" fill-rule="evenodd" stroke="none"/>
    <path d="M-0.65 2.25 L-0.4 0.75 Q-0.3 0.0 0.1 -0.1 0.45 -0.2 0.45 0.4 0.25 2.8 -0.25 2.8 -0.75 2.8 -0.65 2.25" fill="#545454" fill-rule="evenodd" stroke="none"/>
    <path d="M-0.5 1.2 Q-0.8 2.2 -1.1 2.2 L-1.35 2.0 -0.4 -0.45 Q-0.25 -0.45 -0.25 0.0 L-0.5 1.2" fill="#545454" fill-rule="evenodd" stroke="none"/>
    <path d="M1.55 1.65 L0.55 0.7 -0.2 -0.4 Q-0.2 -1.0 0.6 -0.1 L1.7 1.6 1.55 1.65" fill="#545454" fill-rule="evenodd" stroke="none"/>
    <path d="M1.5 0.55 Q1.1 0.55 -0.1 -0.5 L0.8 -0.35 1.7 0.3 1.5 0.55" fill="#545454" fill-rule="evenodd" stroke="none"/>
    <path d="M1.0 -1.4 L0.7 -1.0 0.85 -0.8 0.95 -0.5 0.7 -0.35 -0.15 -0.9 Q-0.15 -1.5 0.05 -1.5 L0.3 -1.3 0.95 -2.2 Q1.25 -2.55 1.25 -1.95 L1.0 -1.4" fill="#545454" fill-rule="evenodd" stroke="none"/>
    <path d="M2.3 -2.25 Q1.1 -0.8 0.6 -0.8 L0.35 -0.9 2.1 -2.45 2.3 -2.25" fill="#545454" fill-rule="evenodd" stroke="none"/>
    <path d="M0.55 -2.25 L0.45 -1.75 Q0.25 -1.85 0.25 -2.25 0.25 -2.7 0.4 -2.8 L0.55 -2.25" fill="#545454" fill-rule="evenodd" stroke="none"/>
    <path d="M-0.1 -0.4 L-0.25 -0.3 -0.55 -0.8 -0.8 -1.65 -1.15 -2.9 -1.1 -3.2 -0.9 -3.2 Q-0.25 -1.45 -0.1 -0.4" fill="#545454" fill-rule="evenodd" stroke="none"/>
    <path d="M-1.25 -0.05 L-1.9 -0.7 -2.6 -1.9 -1.6 -1.05 -1.05 -0.2 Q-1.05 -0.05 -1.25 -0.05" fill="#545454" fill-rule="evenodd" stroke="none"/>
    <path d="M-0.95 0.2 L-2.35 1.05 -2.65 1.05 -2.7 1.0 -1.9 0.4 -1.0 0.05 -0.95 0.2" fill="#545454" fill-rule="evenodd" stroke="none"/>
    <path d="M-2.1 1.25 L-2.1 1.15 Q-1.25 -0.1 -0.65 -0.1 -1.15 1.3 -1.9 1.3 L-2.1 1.25" fill="#545454" fill-rule="evenodd" stroke="none"/>
    <path d="M2.1 2.35 L1.9 2.55 0.6 0.85 0.65 0.7 0.8 0.7 Q1.05 0.7 2.1 2.35" fill="#545454" fill-rule="evenodd" stroke="none"/>
    <path d="M0.5 -0.3 Q2.7 0.6 3.05 1.35 L2.9 1.4 Q2.5 1.4 0.4 -0.1 L0.5 -0.3" fill="#545454" fill-rule="evenodd" stroke="none"/>
  </g>
</svg>
