<?xml version="1.0" encoding="UTF-8" standalone="no"?>
<svg xmlns:ffdec="https://www.free-decompiler.com/flash" xmlns:xlink="http://www.w3.org/1999/xlink" ffdec:objectType="shape" height="16.6px" width="19.7px" xmlns="http://www.w3.org/2000/svg">
  <g transform="matrix(1.0, 0.0, 0.0, 1.0, 9.1, 8.1)">
    <path d="M10.6 5.1 Q5.5 1.55 3.65 3.55 1.75 5.55 2.3 8.5 1.25 5.65 0.4 5.2 -0.45 4.8 -2.6 8.25 -2.15 3.8 -2.9 2.65 -3.65 1.45 -8.55 2.1 -6.35 1.15 -5.8 -0.3 -5.25 -1.8 -9.1 -3.55 -4.1 -2.95 -3.25 -3.9 -2.4 -4.9 -4.4 -7.95 -2.15 -5.5 -1.1 -5.45 -0.05 -5.4 0.95 -8.1 1.55 -3.05 5.5 -6.4 4.2 -1.55 8.15 -2.1 5.75 -0.8 5.7 0.2 5.7 1.1 10.6 5.1" fill="#c6c6c6" fill-opacity="0.47058824" fill-rule="evenodd" stroke="none"/>
    <path d="M0.25 -0.7 L-0.2 -0.35 Q-0.65 -0.35 -0.65 -0.85 L-0.7 -5.05 Q-0.75 -8.35 -0.2 -7.8 0.3 -7.4 0.3 -5.0 L0.25 -0.7" fill="#7b7b7b" fill-rule="evenodd" stroke="none"/>
    <path d="M0.05 -0.7 L-0.15 -0.9 0.05 -2.15 0.6 -3.55 Q0.95 -4.7 1.55 -5.4 2.15 -6.2 2.15 -5.35 L0.05 -0.7" fill="#7b7b7b" fill-rule="evenodd" stroke="none"/>
    <path d="M4.45 -4.95 L2.95 -3.15 0.55 -0.8 0.15 -0.8 Q-0.05 -0.75 -0.2 -1.0 L-0.3 -1.35 Q3.05 -5.3 4.0 -5.3 4.45 -5.3 4.45 -4.95" fill="#7b7b7b" fill-rule="evenodd" stroke="none"/>
    <path d="M4.95 -2.05 L4.55 -1.8 2.35 -1.35 0.7 -0.8 Q0.0 -0.8 0.0 -1.3 0.0 -1.8 2.6 -2.5 L5.15 -2.35 4.95 -2.05" fill="#7b7b7b" fill-rule="evenodd" stroke="none"/>
    <path d="M3.5 -0.05 Q3.5 0.35 3.05 0.35 L1.05 -0.15 Q-0.55 -0.65 -0.55 -0.9 L1.5 -1.0 Q3.5 -0.45 3.5 -0.05" fill="#7b7b7b" fill-rule="evenodd" stroke="none"/>
    <path d="M2.65 3.6 Q2.1 3.6 -0.35 -0.3 -0.35 -0.7 0.15 -0.7 0.7 -0.7 3.1 3.15 L2.65 3.6" fill="#7b7b7b" fill-rule="evenodd" stroke="none"/>
    <path d="M0.65 -0.15 Q-0.85 2.45 -2.35 2.45 -3.0 2.45 -2.95 2.05 L-2.1 1.25 -0.75 0.4 0.05 -0.55 Q0.65 -1.15 0.65 -0.15" fill="#7b7b7b" fill-rule="evenodd" stroke="none"/>
    <path d="M-0.3 -0.45 Q-0.3 -0.1 -1.2 0.45 -2.1 1.0 -2.85 1.0 L-3.9 0.7 -4.2 0.3 -4.1 0.05 -3.75 -0.15 -2.85 0.0 -1.35 -0.5 -0.3 -0.45" fill="#7b7b7b" fill-rule="evenodd" stroke="none"/>
    <path d="M-4.1 -2.45 L-3.3 -1.75 Q-0.75 -0.8 -0.75 -0.65 -0.75 -0.25 -1.5 -0.25 -3.0 -0.25 -4.2 -1.5 -5.1 -2.35 -5.3 -3.1 L-5.05 -3.1 -4.1 -2.45" fill="#7b7b7b" fill-rule="evenodd" stroke="none"/>
    <path d="M-1.35 -1.15 Q-2.15 -1.15 -3.85 -5.7 -3.85 -8.25 -0.95 -1.55 -0.95 -1.15 -1.35 -1.15" fill="#7b7b7b" fill-rule="evenodd" stroke="none"/>
    <path d="M-0.7 -1.95 Q-1.5 -1.95 -2.0 -4.5 -2.0 -5.25 -1.55 -4.85 L-1.0 -3.85 -0.65 -2.95 -0.45 -2.25 Q-0.45 -1.95 -0.7 -1.95" fill="#7b7b7b" fill-rule="evenodd" stroke="none"/>
    <path d="M-2.85 1.5 Q-2.85 0.9 -1.4 -0.35 0.0 -1.6 0.0 -0.6 L-2.4 1.9 -2.85 1.5" fill="#7b7b7b" fill-rule="evenodd" stroke="none"/>
    <path d="M-0.6 0.15 L-0.05 -0.4 Q0.3 -0.55 0.3 -0.15 -0.35 3.7 -0.9 3.7 -1.35 3.7 -1.25 3.35 L-1.05 2.25 -0.8 1.2 -0.6 0.15" fill="#7b7b7b" fill-rule="evenodd" stroke="none"/>
    <path d="M-1.1 -1.5 L-2.0 -1.3 Q-4.05 -1.3 -4.05 -1.85 L-3.85 -2.1 -3.3 -2.3 -2.0 -2.2 -1.1 -2.3 Q-0.7 -2.3 -0.7 -2.0 -0.7 -1.7 -1.1 -1.5" fill="#7b7b7b" fill-rule="evenodd" stroke="none"/>
    <path d="M-6.05 -0.7 Q-6.05 -1.0 -4.95 -1.2 L-2.7 -1.2 -1.45 -1.25 Q-0.85 -1.15 -0.85 -0.9 -0.85 -0.65 -1.3 -0.55 L-2.55 -0.3 -4.95 -0.3 -5.75 -0.35 Q-6.05 -0.35 -6.05 -0.7" fill="#7b7b7b" fill-rule="evenodd" stroke="none"/>
  </g>
</svg>
