<?xml version="1.0" encoding="UTF-8" standalone="no"?>
<svg xmlns:ffdec="https://www.free-decompiler.com/flash" xmlns:xlink="http://www.w3.org/1999/xlink" ffdec:objectType="shape" height="31.15px" width="32.8px" xmlns="http://www.w3.org/2000/svg">
  <g transform="matrix(1.0, 0.0, 0.0, 1.0, 15.6, 16.6)">
    <path d="M17.2 8.15 Q8.75 2.25 5.65 5.65 2.55 8.95 3.45 13.9 1.65 9.15 0.2 8.4 -1.25 7.65 -4.8 13.4 -4.0 6.05 -5.3 4.15 -6.55 2.15 -14.7 3.2 -11.05 1.65 -10.1 -0.85 -9.2 -3.3 -15.6 -6.2 -7.25 -5.25 -5.9 -6.85 -4.45 -8.45 -7.8 -13.55 -4.1 -9.55 -2.35 -9.4 -0.55 -9.3 1.15 -13.85 2.1 -5.4 8.75 -10.95 6.55 -2.95 13.1 -3.8 9.05 -1.7 9.05 -0.05 9.0 1.6 17.2 8.15" fill="#c6c6c6" fill-opacity="0.47058824" fill-rule="evenodd" stroke="none"/>
    <path d="M-1.0 -4.85 Q-1.55 -4.85 -2.25 -8.3 L-2.8 -11.65 Q-2.8 -13.6 -1.9 -11.7 L-1.55 -10.65 -1.4 -9.65 -0.7 -5.5 Q-0.7 -4.85 -1.0 -4.85" fill="#7b7b7b" fill-rule="evenodd" stroke="none"/>
    <path d="M1.35 -10.2 L0.95 -7.5 0.55 -4.2 Q0.2 -2.15 -0.45 -2.15 -1.05 -2.15 -1.0 -2.9 -1.0 -5.15 -0.2 -9.75 L0.25 -13.2 Q0.65 -15.3 1.2 -14.65 1.65 -14.1 1.65 -13.05 L1.35 -10.2" fill="#7b7b7b" fill-rule="evenodd" stroke="none"/>
    <path d="M1.95 -5.85 Q0.55 -1.65 0.35 -1.65 0.0 -1.65 0.0 -2.4 0.0 -3.7 1.8 -7.85 3.6 -12.0 3.6 -10.2 L1.95 -5.85" fill="#7b7b7b" fill-rule="evenodd" stroke="none"/>
    <path d="M6.2 -15.35 Q7.15 -16.35 7.15 -14.75 L4.95 -9.25 Q2.6 -3.85 2.05 -3.85 1.65 -3.85 1.6 -4.05 L1.6 -4.3 2.45 -7.15 3.65 -10.4 4.95 -13.35 Q5.4 -14.5 6.2 -15.35" fill="#7b7b7b" fill-rule="evenodd" stroke="none"/>
    <path d="M1.85 -7.75 Q1.25 -7.75 1.4 -8.45 1.4 -9.85 2.35 -11.55 3.25 -13.3 3.25 -11.95 L1.85 -7.75" fill="#7b7b7b" fill-rule="evenodd" stroke="none"/>
    <path d="M-2.5 -4.1 Q-4.3 -5.7 -7.3 -14.05 -7.3 -17.1 -4.7 -11.75 -2.15 -6.4 -2.15 -4.95 -2.15 -4.45 -2.5 -4.1" fill="#7b7b7b" fill-rule="evenodd" stroke="none"/>
    <path d="M-1.85 -6.7 Q-2.95 -6.7 -3.8 -11.3 -3.8 -14.55 -2.65 -11.2 L-1.5 -7.1 Q-1.5 -6.7 -1.85 -6.7" fill="#7b7b7b" fill-rule="evenodd" stroke="none"/>
    <path d="M-3.45 -2.0 Q-4.4 -2.0 -7.3 -6.1 L-10.0 -10.2 Q-10.0 -14.05 -2.85 -2.5 -2.85 -2.0 -3.45 -2.0" fill="#7b7b7b" fill-rule="evenodd" stroke="none"/>
    <path d="M-4.65 -4.45 Q-5.15 -4.45 -5.55 -5.55 L-6.0 -7.1 Q-5.35 -7.0 -5.0 -6.15 L-4.35 -4.6 -4.65 -4.45" fill="#7b7b7b" fill-rule="evenodd" stroke="none"/>
    <path d="M-4.2 -5.6 Q-5.45 -5.6 -6.35 -8.6 -6.35 -9.7 -5.8 -9.1 L-5.05 -7.85 -4.35 -7.0 -3.85 -6.0 Q-3.85 -5.6 -4.2 -5.6" fill="#7b7b7b" fill-rule="evenodd" stroke="none"/>
    <path d="M-6.35 -3.2 Q-4.25 -2.0 -4.25 -1.45 L-4.4 -1.15 Q-4.55 -1.0 -4.65 -1.0 -6.05 -1.0 -11.2 -3.75 L-10.75 -4.25 -9.75 -4.45 Q-8.5 -4.45 -6.35 -3.2" fill="#7b7b7b" fill-rule="evenodd" stroke="none"/>
    <path d="M-4.4 0.8 Q-5.65 0.8 -6.8 1.4 -9.0 2.55 -9.6 2.55 -10.4 2.55 -10.4 2.1 -10.4 1.25 -7.0 -0.05 -3.65 -1.4 -3.65 0.4 -3.65 0.8 -4.4 0.8" fill="#7b7b7b" fill-rule="evenodd" stroke="none"/>
    <path d="M-5.55 -1.25 Q-5.55 -0.95 -5.85 -0.85 L-7.55 -0.7 -9.7 -0.95 -9.9 -1.35 -9.75 -1.75 -8.55 -1.9 Q-5.55 -1.9 -5.55 -1.25" fill="#7b7b7b" fill-rule="evenodd" stroke="none"/>
    <path d="M-6.25 5.6 Q-6.25 4.8 -4.1 1.2 -2.0 -2.4 -2.0 -0.4 -5.4 6.15 -5.7 6.15 -6.3 6.15 -6.25 5.6" fill="#7b7b7b" fill-rule="evenodd" stroke="none"/>
    <path d="M-6.15 4.25 Q-8.45 8.0 -8.9 8.0 L-9.2 7.9 -9.25 7.6 Q-9.25 6.95 -6.2 3.05 -3.15 -0.9 -3.15 0.25 -3.15 0.8 -6.15 4.25" fill="#7b7b7b" fill-rule="evenodd" stroke="none"/>
    <path d="M-3.0 14.55 Q-3.25 14.55 -3.7 13.3 L-3.4 9.0 -2.95 3.85 -2.9 1.5 -2.55 -0.85 Q-1.5 -3.5 -1.3 2.85 -1.8 14.55 -3.0 14.55" fill="#7b7b7b" fill-rule="evenodd" stroke="none"/>
    <path d="M1.4 10.35 Q0.35 10.35 -1.35 1.35 -1.35 -2.85 1.85 9.8 1.85 10.35 1.4 10.35" fill="#7b7b7b" fill-rule="evenodd" stroke="none"/>
    <path d="M7.4 12.15 Q6.2 12.15 -0.2 1.3 -0.2 -1.65 3.8 4.65 7.8 10.9 7.8 11.6 L7.4 12.15" fill="#7b7b7b" fill-rule="evenodd" stroke="none"/>
    <path d="M4.4 3.05 L2.75 1.75 Q1.25 0.5 1.25 0.6 1.25 -0.45 3.1 0.75 4.9 1.95 4.9 2.65 4.9 3.05 4.4 3.05" fill="#7b7b7b" fill-rule="evenodd" stroke="none"/>
    <path d="M6.35 -0.15 Q8.65 1.1 8.65 1.5 8.65 2.3 7.85 2.3 L5.9 1.6 4.1 0.75 1.7 0.05 Q1.1 -0.2 1.1 -0.75 1.1 -1.5 2.25 -1.5 3.85 -1.5 6.35 -0.15" fill="#7b7b7b" fill-rule="evenodd" stroke="none"/>
    <path d="M6.25 -3.15 Q4.35 -2.2 3.65 -2.2 2.85 -2.2 2.95 -2.85 2.95 -3.55 5.6 -4.7 8.2 -5.85 8.2 -4.55 8.2 -4.1 6.25 -3.15" fill="#7b7b7b" fill-rule="evenodd" stroke="none"/>
    <path d="M4.15 -4.05 Q3.65 -4.05 3.65 -4.5 6.7 -8.6 6.7 -6.4 4.85 -4.05 4.15 -4.05" fill="#7b7b7b" fill-rule="evenodd" stroke="none"/>
    <path d="M4.6 -2.2 L4.6 -2.15 7.35 -1.9 Q10.05 -1.6 10.05 -0.95 10.05 -0.2 9.35 -0.2 L6.25 -0.65 Q4.75 -0.45 4.05 -1.0 3.65 -1.3 3.65 -1.7 3.65 -2.05 3.8 -2.1 L4.6 -2.2" fill="#7b7b7b" fill-rule="evenodd" stroke="none"/>
    <path d="M1.55 14.05 Q0.95 14.05 0.4 11.5 L-0.2 7.3 -0.75 3.95 -1.3 0.55 Q-1.3 -1.45 -0.55 -0.3 0.15 0.75 0.45 2.15 L1.15 5.9 1.7 9.4 2.15 13.35 Q2.15 14.05 1.55 14.05" fill="#7b7b7b" fill-rule="evenodd" stroke="none"/>
    <path d="M-0.75 5.85 L-1.15 5.75 -1.35 3.85 -1.2 0.45 Q-0.6 -1.15 -0.35 0.05 -0.2 0.7 -0.2 1.9 -0.2 4.95 -0.75 5.85" fill="#7b7b7b" fill-rule="evenodd" stroke="none"/>
    <path d="M-6.25 4.4 Q-7.3 5.6 -7.6 5.6 -8.25 5.6 -8.2 5.15 -8.2 4.85 -6.85 3.55 L-4.9 2.1 Q-5.1 3.05 -6.25 4.4" fill="#1e88d2" fill-rule="evenodd" stroke="none"/>
    <path d="M-10.55 1.55 L-11.0 1.45 -11.05 1.15 Q-5.65 -2.45 -5.65 -0.8 -5.65 -0.65 -8.0 0.4 L-10.55 1.55" fill="#1e88d2" fill-rule="evenodd" stroke="none"/>
    <path d="M-8.65 -6.1 Q-7.5 -5.05 -7.45 -4.45 L-7.75 -4.35 Q-8.45 -4.35 -9.3 -5.2 L-10.5 -6.55 -10.5 -7.05 -10.15 -7.05 Q-9.7 -7.05 -8.65 -6.1" fill="#1e88d2" fill-rule="evenodd" stroke="none"/>
    <path d="M-4.8 -13.6 Q-5.65 -13.6 -5.95 -15.7 -5.95 -17.95 -4.25 -14.05 -4.25 -13.6 -4.8 -13.6" fill="#ffffff" fill-rule="evenodd" stroke="none"/>
    <path d="M1.3 -15.3 L0.9 -14.65 Q0.4 -14.65 0.55 -15.25 0.55 -15.95 1.05 -16.4 1.55 -16.9 1.55 -16.1 L1.3 -15.3" fill="#ffffff" fill-rule="evenodd" stroke="none"/>
    <path d="M8.6 -15.95 L8.15 -15.1 7.6 -14.4 Q7.2 -14.4 7.2 -14.9 7.65 -16.7 8.55 -16.25 L8.6 -15.95" fill="#ffffff" fill-rule="evenodd" stroke="none"/>
    <path d="M8.2 -7.15 L6.75 -6.3 Q6.3 -6.3 6.2 -6.55 L6.15 -6.85 Q9.3 -10.05 9.3 -8.2 L8.2 -7.15" fill="#ffffff" fill-rule="evenodd" stroke="none"/>
    <path d="M9.3 -2.55 Q9.3 -2.1 8.2 -2.1 7.5 -2.1 7.05 -2.4 7.25 -3.15 8.15 -3.1 L9.25 -2.9 9.3 -2.55" fill="#ffffff" fill-rule="evenodd" stroke="none"/>
    <path d="M5.35 5.15 L4.95 5.25 4.85 5.0 5.1 4.7 5.35 5.15" fill="#ffffff" fill-rule="evenodd" stroke="none"/>
    <path d="M6.1 7.6 L5.9 7.75 Q5.05 7.75 4.3 4.95 L4.3 4.5 Q5.3 4.4 6.2 7.35 L6.1 7.6" fill="#ffffff" fill-rule="evenodd" stroke="none"/>
    <path d="M-6.45 3.65 L-7.0 4.25 -7.65 4.55 -7.9 4.5 -7.95 4.3 Q-7.45 3.25 -6.5 3.55 L-6.45 3.65" fill="#ffffff" fill-rule="evenodd" stroke="none"/>
    <path d="M-9.05 -0.05 Q-9.05 0.8 -10.25 0.8 -10.85 0.8 -10.85 0.4 -10.85 0.15 -10.4 0.1 -9.65 0.0 -9.2 -0.25 L-9.05 -0.05" fill="#ffffff" fill-rule="evenodd" stroke="none"/>
    <path d="M-9.45 -6.15 Q-10.45 -6.15 -10.4 -7.25 -10.4 -8.3 -9.0 -6.6 L-9.15 -6.35 -9.45 -6.15" fill="#ffffff" fill-rule="evenodd" stroke="none"/>
    <path d="M-1.1 -1.95 L0.55 5.35 0.45 5.65 0.1 5.85 Q-0.7 5.85 -1.7 -0.65 -1.7 -1.7 -1.1 -1.95" fill="#1e88d2" fill-rule="evenodd" stroke="none"/>
    <path d="M2.05 2.2 L1.8 2.3 Q1.2 2.3 0.25 0.85 L-0.9 -1.55 Q-0.3 -1.5 0.95 0.05 2.1 1.55 2.1 1.95 L2.05 2.2" fill="#1e88d2" fill-rule="evenodd" stroke="none"/>
    <path d="M0.15 -1.85 Q0.15 -2.8 1.75 -1.25 3.3 0.25 3.3 0.85 L3.55 1.15 3.55 1.2 1.6 -0.4 Q0.15 -1.65 0.15 -1.85" fill="#1e88d2" fill-rule="evenodd" stroke="none"/>
    <path d="M2.15 -1.5 Q0.45 -1.5 0.45 -2.35 0.45 -3.05 3.8 -3.25 7.1 -3.5 7.1 -2.4 7.1 -1.5 2.15 -1.5" fill="#1e88d2" fill-rule="evenodd" stroke="none"/>
    <path d="M1.0 -2.45 Q0.3 -2.45 0.4 -3.05 4.4 -10.55 4.4 -7.5 1.9 -2.45 1.0 -2.45" fill="#1e88d2" fill-rule="evenodd" stroke="none"/>
    <path d="M-1.75 -4.55 Q-1.75 -5.7 -1.15 -7.7 0.55 -11.85 0.55 -9.35 -0.35 -3.85 -1.15 -3.85 -1.9 -3.85 -1.75 -4.55" fill="#1e88d2" fill-rule="evenodd" stroke="none"/>
    <path d="M-2.45 -5.7 Q-3.3 -5.7 -3.1 -7.55 L-2.8 -10.55 Q-1.9 -10.6 -1.8 -10.1 L-1.85 -8.85 Q-1.75 -5.7 -2.45 -5.7" fill="#265b80" fill-rule="evenodd" stroke="none"/>
    <path d="M-2.7 -5.1 Q-3.7 -5.1 -4.9 -9.1 L-5.9 -13.05 Q-5.9 -15.85 -3.85 -11.15 -2.8 -8.8 -1.8 -5.85 -1.8 -5.1 -2.7 -5.1" fill="#1e88d2" fill-rule="evenodd" stroke="none"/>
    <path d="M-4.0 -4.45 Q-5.3 -4.45 -7.0 -9.75 -7.0 -12.5 -3.55 -4.95 -3.55 -4.45 -4.0 -4.45" fill="#1e88d2" fill-rule="evenodd" stroke="none"/>
  </g>
</svg>
