<?xml version="1.0" encoding="UTF-8" standalone="no"?>
<svg xmlns:ffdec="https://www.free-decompiler.com/flash" xmlns:xlink="http://www.w3.org/1999/xlink" ffdec:objectType="shape" height="35.75px" width="35.5px" xmlns="http://www.w3.org/2000/svg">
  <g transform="matrix(1.0, 0.0, 0.0, 1.0, 17.0, 19.8)">
    <path d="M18.5 8.8 Q9.35 2.4 6.0 6.1 2.65 9.7 3.65 15.0 1.7 9.85 0.1 9.1 -1.45 8.25 -5.25 14.5 -4.5 6.5 -5.85 4.45 -7.15 2.3 -15.95 3.45 -12.05 1.7 -11.05 -0.95 -10.05 -3.55 -17.0 -6.75 -8.0 -5.7 -6.45 -7.45 -4.9 -9.15 -8.6 -14.7 -4.5 -10.35 -2.65 -10.2 -0.75 -10.1 1.15 -15.05 2.2 -5.85 9.35 -11.85 7.0 -3.2 14.1 -4.15 9.7 -1.85 9.7 -0.1 9.65 1.7 18.5 8.8" fill="#c6c6c6" fill-opacity="0.47058824" fill-rule="evenodd" stroke="none"/>
    <path d="M-1.75 -5.95 Q-2.7 -5.95 -3.35 -11.95 L-3.75 -17.8 Q-3.75 -18.95 -3.05 -19.6 -2.35 -20.3 -2.0 -18.1 L-1.65 -14.35 -1.25 -10.1 -1.2 -7.1 Q-1.2 -5.95 -1.75 -5.95" fill="#7b7b7b" fill-rule="evenodd" stroke="none"/>
    <path d="M0.9 -11.1 L0.6 -8.05 0.25 -7.95 Q-0.05 -7.95 -0.05 -8.05 L-0.15 -9.45 -0.1 -10.8 Q0.0 -11.5 0.45 -12.1 L0.9 -11.1" fill="#7b7b7b" fill-rule="evenodd" stroke="none"/>
    <path d="M3.55 -8.75 Q2.1 -6.3 1.7 -6.3 1.05 -6.3 1.1 -7.05 1.1 -8.4 3.05 -10.65 4.95 -12.95 4.95 -11.55 4.95 -11.15 3.55 -8.75" fill="#7b7b7b" fill-rule="evenodd" stroke="none"/>
    <path d="M1.95 -8.85 L1.5 -7.65 0.75 -6.4 0.3 -6.9 0.45 -8.15 Q0.8 -9.35 1.85 -9.25 L1.95 -8.85" fill="#7b7b7b" fill-rule="evenodd" stroke="none"/>
    <path d="M0.8 -15.35 L0.8 -14.55 0.4 -10.6 Q-0.05 -7.7 -0.35 -7.15 L-0.8 -7.15 -1.05 -8.85 -0.8 -11.0 -0.65 -13.3 Q-0.4 -15.5 0.15 -16.35 L0.8 -15.35" fill="#7b7b7b" fill-rule="evenodd" stroke="none"/>
    <path d="M-1.85 -5.35 Q-2.05 -4.9 -2.4 -4.9 -3.35 -4.9 -5.0 -8.55 L-6.5 -12.25 Q-6.5 -15.35 -4.1 -11.65 -1.7 -7.95 -1.7 -6.0 L-1.85 -5.35" fill="#7b7b7b" fill-rule="evenodd" stroke="none"/>
    <path d="M-5.3 -6.35 Q-7.5 -6.35 -9.55 -8.3 L-11.1 -10.2 Q-11.1 -12.65 -4.4 -7.2 -4.4 -6.35 -5.3 -6.35" fill="#7b7b7b" fill-rule="evenodd" stroke="none"/>
    <path d="M-7.75 -2.75 Q-9.95 -2.75 -12.3 -3.65 -14.7 -4.6 -14.7 -5.55 -14.7 -6.35 -10.5 -5.25 -6.35 -4.2 -6.35 -3.5 -6.35 -2.75 -7.75 -2.75" fill="#7b7b7b" fill-rule="evenodd" stroke="none"/>
    <path d="M-9.05 1.45 L-13.2 2.0 Q-14.25 2.0 -15.0 1.5 -14.4 0.45 -11.3 -0.35 -7.8 -1.3 -6.0 0.0 -6.65 0.85 -9.05 1.45" fill="#7b7b7b" fill-rule="evenodd" stroke="none"/>
    <path d="M-10.7 6.2 L-11.3 6.05 -11.4 5.55 Q-4.65 0.35 -4.65 2.4 -4.65 3.05 -10.7 6.2" fill="#7b7b7b" fill-rule="evenodd" stroke="none"/>
    <path d="M-5.75 6.85 Q-8.45 9.3 -10.25 9.3 -10.95 9.3 -10.95 8.65 -10.95 7.8 -7.1 5.0 -3.3 2.2 -3.3 3.95 -3.3 4.65 -5.75 6.85" fill="#7b7b7b" fill-rule="evenodd" stroke="none"/>
    <path d="M-3.55 9.65 Q-6.6 13.5 -8.3 14.25 -8.3 12.15 -5.55 8.9 L-3.75 6.15 Q-0.75 3.4 -0.75 5.45 -0.75 6.05 -3.55 9.65" fill="#7b7b7b" fill-rule="evenodd" stroke="none"/>
    <path d="M0.0 15.3 Q-0.25 15.8 -0.65 15.95 -1.45 15.0 -1.8 11.55 L-2.0 7.9 Q-2.0 6.45 -1.2 4.9 -0.45 3.4 -0.45 5.35 L-0.15 10.05 0.15 14.55 0.0 15.3" fill="#7b7b7b" fill-rule="evenodd" stroke="none"/>
    <path d="M2.7 11.15 Q2.15 11.15 -0.6 4.95 -0.6 2.8 1.45 5.5 3.45 8.25 3.45 9.95 3.45 11.15 2.7 11.15" fill="#7b7b7b" fill-rule="evenodd" stroke="none"/>
    <path d="M7.4 7.8 L7.2 7.95 Q5.75 7.95 3.0 5.85 0.45 3.85 0.45 3.4 L3.4 3.35 Q6.2 5.3 7.4 7.55 L7.4 7.8" fill="#7b7b7b" fill-rule="evenodd" stroke="none"/>
    <path d="M6.3 2.6 L6.05 2.7 4.6 2.25 3.45 1.7 4.9 1.8 6.2 2.55 6.3 2.6" fill="#7b7b7b" fill-rule="evenodd" stroke="none"/>
    <path d="M5.75 4.5 Q5.1 4.5 2.4 2.1 2.4 1.1 4.45 2.25 6.45 3.4 6.45 3.85 6.35 4.5 5.75 4.5" fill="#7b7b7b" fill-rule="evenodd" stroke="none"/>
    <path d="M11.15 1.8 L6.75 1.15 Q3.65 0.5 3.65 0.05 3.65 -1.05 8.2 -0.4 12.75 0.2 12.75 1.0 12.75 1.8 11.15 1.8" fill="#7b7b7b" fill-rule="evenodd" stroke="none"/>
    <path d="M8.75 -3.8 Q8.75 -3.4 7.5 -2.5 6.15 -1.55 5.15 -1.55 L4.85 -1.6 4.8 -1.7 4.7 -2.0 6.35 -3.3 Q7.7 -4.15 8.7 -4.2 L8.75 -3.8" fill="#7b7b7b" fill-rule="evenodd" stroke="none"/>
    <path d="M6.95 -4.8 Q5.25 -2.85 4.4 -2.85 3.95 -2.85 3.75 -3.15 L3.65 -3.5 6.15 -6.35 Q8.6 -8.85 8.6 -7.05 L6.95 -4.8" fill="#7b7b7b" fill-rule="evenodd" stroke="none"/>
    <path d="M6.85 -8.0 Q4.65 -6.6 3.45 -6.6 2.5 -6.6 2.7 -7.3 L5.85 -9.65 Q9.0 -11.65 9.0 -9.9 9.0 -9.35 6.85 -8.0" fill="#7b7b7b" fill-rule="evenodd" stroke="none"/>
    <path d="M-3.55 5.35 Q-5.15 7.6 -6.4 7.6 -6.9 7.6 -6.9 7.05 L-4.55 4.6 Q-2.2 2.35 -2.2 3.05 L-3.55 5.35" fill="#7b7b7b" fill-rule="evenodd" stroke="none"/>
    <path d="M-3.05 6.3 L-5.2 8.6 Q-5.8 8.6 -5.75 8.15 -5.75 7.0 -3.35 4.65 -0.95 2.3 -0.95 3.8 L-3.05 6.3" fill="#7b7b7b" fill-rule="evenodd" stroke="none"/>
    <path d="M-4.9 3.2 L-7.3 4.95 -7.75 4.5 -5.35 1.95 Q-3.0 -0.3 -3.0 1.25 L-4.9 3.2" fill="#7b7b7b" fill-rule="evenodd" stroke="none"/>
    <path d="M-10.5 2.35 L-7.4 1.25 -4.3 0.65 Q-4.3 1.4 -6.9 2.1 L-9.55 2.7 -9.55 2.8 Q-10.5 2.75 -10.5 2.35" fill="#7b7b7b" fill-rule="evenodd" stroke="none"/>
    <path d="M-4.8 -1.65 Q-9.05 -1.65 -10.9 -2.4 -11.95 -2.8 -13.6 -3.95 L-13.6 -4.1 -9.75 -3.2 -6.25 -2.8 Q-4.4 -2.65 -4.4 -2.05 -4.4 -1.65 -4.8 -1.65" fill="#7b7b7b" fill-rule="evenodd" stroke="none"/>
    <path d="M3.25 7.3 L0.1 4.05 0.1 3.8 2.05 5.3 Q3.5 6.7 3.5 7.05 L3.25 7.3" fill="#7b7b7b" fill-rule="evenodd" stroke="none"/>
    <path d="M6.45 1.75 L9.2 3.2 9.0 3.4 6.2 2.2 Q3.45 0.95 2.5 0.8 2.55 0.55 3.1 0.55 3.7 0.55 6.45 1.75" fill="#7b7b7b" fill-rule="evenodd" stroke="none"/>
    <path d="M8.2 -1.15 L5.15 -0.85 Q4.65 -0.85 4.65 -1.1 4.65 -1.3 5.65 -1.45 L7.2 -1.7 9.75 -1.65 Q9.75 -1.4 8.2 -1.15" fill="#7b7b7b" fill-rule="evenodd" stroke="none"/>
    <path d="M7.95 -4.35 L4.85 -2.1 4.65 -2.25 6.05 -3.45 7.9 -4.5 7.95 -4.35" fill="#7b7b7b" fill-rule="evenodd" stroke="none"/>
    <path d="M6.95 -5.45 L3.95 -4.55 3.6 -4.55 3.6 -4.85 Q5.1 -5.8 6.35 -6.1 L9.2 -6.35 Q8.45 -5.75 6.95 -5.45" fill="#7b7b7b" fill-rule="evenodd" stroke="none"/>
    <path d="M1.6 8.7 Q1.3 8.5 0.75 7.4 L0.2 6.25 Q0.2 5.6 0.75 6.5 L1.7 8.55 1.6 8.7" fill="#265b80" fill-rule="evenodd" stroke="none"/>
    <path d="M5.55 7.3 L5.35 7.4 1.7 3.95 1.75 3.75 Q2.75 4.05 5.6 7.1 L5.55 7.3" fill="#1e88d2" fill-rule="evenodd" stroke="none"/>
    <path d="M9.45 3.5 L6.75 3.05 Q4.85 2.55 4.45 1.85 L4.5 1.7 Q5.6 2.15 8.05 2.45 9.8 2.7 9.8 3.15 L9.45 3.5" fill="#1e88d2" fill-rule="evenodd" stroke="none"/>
    <path d="M9.7 -2.15 Q8.6 -1.6 7.6 -1.6 7.2 -1.6 7.2 -1.95 7.2 -2.25 8.9 -2.7 L10.6 -2.6 9.7 -2.15" fill="#1e88d2" fill-rule="evenodd" stroke="none"/>
    <path d="M9.95 -7.15 Q9.95 -6.85 8.7 -6.05 7.5 -5.25 7.15 -5.25 L6.75 -5.4 6.7 -5.55 8.0 -6.45 Q9.4 -7.4 9.9 -7.4 L9.95 -7.15" fill="#1e88d2" fill-rule="evenodd" stroke="none"/>
    <path d="M8.95 -8.85 L6.4 -7.1 Q6.1 -7.1 6.1 -7.25 L6.1 -7.45 Q6.1 -7.9 7.05 -8.5 8.0 -9.15 8.9 -9.2 L8.95 -8.85" fill="#1e88d2" fill-rule="evenodd" stroke="none"/>
    <path d="M2.45 -10.2 Q2.0 -10.2 1.9 -10.4 L1.9 -10.6 Q1.9 -11.25 3.2 -13.05 4.5 -14.8 4.5 -13.75 L2.45 -10.2" fill="#1e88d2" fill-rule="evenodd" stroke="none"/>
    <path d="M1.6 -11.75 Q1.4 -11.75 1.35 -12.0 L1.3 -12.3 Q1.3 -12.95 2.05 -14.35 2.8 -15.8 2.8 -14.7 2.25 -11.75 1.6 -11.75" fill="#1e88d2" fill-rule="evenodd" stroke="none"/>
    <path d="M-0.25 -12.25 Q-0.3 -11.2 -0.7 -11.2 -1.05 -11.2 -1.15 -12.4 L-1.15 -13.5 Q-1.15 -15.25 -0.7 -15.25 -0.25 -15.25 -0.25 -13.45 L-0.25 -12.25" fill="#7b7b7b" fill-rule="evenodd" stroke="none"/>
    <path d="M-4.3 -9.4 L-4.55 -9.3 Q-5.35 -9.3 -6.05 -13.25 L-5.85 -14.15 -4.95 -12.05 Q-4.25 -10.15 -4.25 -9.6 L-4.3 -9.4" fill="#265b80" fill-rule="evenodd" stroke="none"/>
    <path d="M-6.1 -7.3 Q-6.9 -7.3 -9.3 -10.15 -9.3 -11.15 -7.5 -9.75 -5.75 -8.35 -5.75 -7.65 -5.75 -7.3 -6.1 -7.3" fill="#1e88d2" fill-rule="evenodd" stroke="none"/>
    <path d="M-6.9 -1.6 Q-6.9 -1.25 -8.0 -1.25 -8.65 -1.25 -10.6 -1.95 -12.7 -2.75 -13.2 -3.3 L-13.2 -3.45 -10.35 -2.55 -6.95 -1.85 -6.9 -1.6" fill="#1e88d2" fill-rule="evenodd" stroke="none"/>
    <path d="M-7.9 4.1 L-9.25 4.7 -10.15 5.2 -11.25 5.35 Q-12.05 5.35 -11.95 5.0 -6.7 1.85 -6.7 3.35 -6.7 3.5 -7.9 4.1" fill="#1e88d2" fill-rule="evenodd" stroke="none"/>
    <path d="M-2.2 -18.65 L-2.35 -18.6 -3.2 -19.5 Q-3.2 -19.9 -2.65 -19.75 -2.1 -19.6 -2.1 -19.0 L-2.2 -18.65" fill="#ffffff" fill-rule="evenodd" stroke="none"/>
    <path d="M4.05 -14.45 L4.1 -14.3 3.9 -13.8 3.6 -13.25 3.45 -13.2 3.25 -13.5 3.45 -14.05 3.9 -14.5 4.05 -14.45" fill="#ffffff" fill-rule="evenodd" stroke="none"/>
    <path d="M8.6 -10.25 L7.1 -9.0 7.05 -9.05 7.55 -9.8 Q7.85 -10.25 8.55 -10.3 L8.6 -10.25" fill="#ffffff" fill-rule="evenodd" stroke="none"/>
    <path d="M9.4 -5.9 Q8.95 -5.4 7.85 -5.4 L7.5 -5.45 8.7 -6.15 10.05 -6.7 9.4 -5.9" fill="#ffffff" fill-rule="evenodd" stroke="none"/>
    <path d="M9.55 0.9 L7.25 0.4 Q11.25 0.45 11.95 1.45 L9.55 0.9" fill="#ffffff" fill-rule="evenodd" stroke="none"/>
    <path d="M-7.55 2.6 L-7.5 2.55 -7.5 2.7 -11.85 4.8 -12.35 4.75 -12.95 4.55 Q-12.75 4.0 -11.85 3.8 L-10.65 3.55 -10.1 2.9 Q-9.9 2.5 -9.0 2.55 L-8.2 2.6 -8.2 2.55 -7.55 2.6" fill="#ffffff" fill-rule="evenodd" stroke="none"/>
    <path d="M-11.35 -5.55 L-12.3 -5.4 -13.6 -5.85 -13.85 -5.35 -13.15 -4.5 -12.25 -3.65 -12.3 -3.5 -12.5 -3.45 Q-13.9 -3.45 -14.35 -5.4 -14.35 -6.0 -13.7 -5.95 L-11.7 -5.7 -11.35 -5.55" fill="#ffffff" fill-rule="evenodd" stroke="none"/>
    <path d="M1.0 8.95 L0.95 9.0 0.65 7.85 0.65 7.75 0.75 7.75 1.0 8.95" fill="#ffffff" fill-rule="evenodd" stroke="none"/>
    <path d="M1.75 10.3 L2.55 10.9 2.95 10.35 3.2 9.65 3.45 10.15 Q3.45 11.35 2.65 11.35 L1.75 10.65 1.2 9.65 1.3 9.6 Q1.3 9.95 1.75 10.3" fill="#ffffff" fill-rule="evenodd" stroke="none"/>
    <path d="M-6.25 9.9 L-8.0 12.75 -8.15 12.2 Q-8.15 11.6 -6.4 9.4 L-4.6 7.25 -6.25 9.9" fill="#ffffff" fill-rule="evenodd" stroke="none"/>
  </g>
</svg>
