<?xml version="1.0" encoding="UTF-8" standalone="no"?>
<svg xmlns:ffdec="https://www.free-decompiler.com/flash" xmlns:xlink="http://www.w3.org/1999/xlink" ffdec:objectType="shape" height="39.45px" width="39.9px" xmlns="http://www.w3.org/2000/svg">
  <g transform="matrix(1.0, 0.0, 0.0, 1.0, 20.45, 23.1)">
    <path d="M16.85 -4.25 Q11.85 -1.65 11.6 0.2 11.4 1.95 19.45 9.2 9.9 2.5 6.3 6.35 2.8 10.15 3.85 15.7 1.8 10.3 0.15 9.5 -1.45 8.6 -5.5 15.15 -5.6 9.1 -6.85 6.4 -8.0 3.65 -20.45 6.8 -12.65 1.75 -11.6 -1.05 -10.55 -3.8 -17.85 -7.15 -9.65 -6.5 -8.15 -8.35 -6.65 -10.25 -10.35 -19.35 -4.75 -11.0 -2.75 -10.8 -0.7 -10.7 1.85 -18.4 2.35 -6.2 11.0 -13.5 7.35 -3.4 16.85 -4.25" fill="#c6c6c6" fill-opacity="0.47058824" fill-rule="evenodd" stroke="none"/>
    <path d="M-3.45 -4.6 Q-4.25 -5.45 -4.6 -6.85 -5.0 -8.25 -4.55 -9.45 -4.15 -10.55 -3.2 -10.8 -2.25 -11.05 -1.4 -10.25 -0.55 -9.35 -0.15 -7.9 0.15 -6.5 -0.3 -5.4 -0.6 -4.25 -1.55 -3.95 -2.5 -3.75 -3.45 -4.6" fill="#484037" fill-rule="evenodd" stroke="none"/>
    <path d="M-6.2 -1.1 L-8.5 -1.15 Q-9.7 -1.6 -10.35 -2.6 -10.9 -3.6 -10.5 -4.6 -10.15 -5.55 -9.1 -5.95 L-6.75 -5.9 Q-5.5 -5.45 -4.95 -4.45 -4.3 -3.45 -4.65 -2.5 -5.05 -1.5 -6.2 -1.1" fill="#484037" fill-rule="evenodd" stroke="none"/>
    <path d="M-7.6 4.8 Q-9.05 4.75 -9.9 3.7 -10.75 2.65 -10.45 1.2 -10.2 -0.2 -8.95 -1.2 -7.7 -2.2 -6.2 -2.25 -4.75 -2.2 -3.9 -1.15 -3.05 -0.1 -3.35 1.35 -3.65 2.85 -4.9 3.85 -6.15 4.85 -7.6 4.8" fill="#484037" fill-rule="evenodd" stroke="none"/>
    <path d="M1.5 -2.55 Q-0.1 -2.6 -1.0 -4.0 -1.9 -5.35 -1.55 -7.2 -1.1 -9.0 0.4 -10.15 1.85 -11.35 3.5 -11.2 5.15 -11.05 6.05 -9.7 6.95 -8.3 6.55 -6.55 6.15 -4.75 4.7 -3.55 3.2 -2.4 1.5 -2.55" fill="#484037" fill-rule="evenodd" stroke="none"/>
    <path d="M2.4 -0.9 Q2.0 -2.1 2.75 -3.3 3.5 -4.4 4.95 -4.85 L7.65 -4.8 Q8.9 -4.25 9.3 -3.05 9.65 -1.85 8.9 -0.7 8.2 0.5 6.75 0.95 L4.0 0.8 Q2.75 0.3 2.4 -0.9" fill="#484037" fill-rule="evenodd" stroke="none"/>
    <path d="M-5.1 9.0 Q-6.2 8.9 -6.9 8.0 -7.55 7.15 -7.45 6.1 -7.35 5.0 -6.55 4.35 -5.7 3.7 -4.6 3.8 -3.55 3.95 -2.9 4.8 -2.2 5.7 -2.25 6.7 -2.35 7.85 -3.2 8.5 -4.0 9.15 -5.1 9.0" fill="#484037" fill-rule="evenodd" stroke="none"/>
    <path d="M0.5 9.3 Q-1.1 9.1 -2.15 7.8 -3.15 6.55 -3.0 4.9 -2.85 3.35 -1.6 2.35 -0.35 1.35 1.25 1.45 2.85 1.7 3.85 2.95 4.9 4.25 4.75 5.85 4.6 7.5 3.35 8.5 2.1 9.5 0.5 9.3" fill="#484037" fill-rule="evenodd" stroke="none"/>
    <path d="M6.05 7.05 Q4.7 6.8 3.7 5.55 2.7 4.35 2.7 2.9 2.75 1.55 3.7 0.75 4.7 0.0 6.05 0.25 7.4 0.6 8.4 1.8 9.4 3.05 9.4 4.4 9.35 5.8 8.35 6.55 7.4 7.35 6.05 7.05" fill="#484037" fill-rule="evenodd" stroke="none"/>
    <path d="M-2.3 -5.3 Q-2.45 -4.25 -3.35 -3.6 -4.2 -2.95 -5.3 -3.1 -6.35 -3.25 -6.95 -4.1 -7.6 -4.95 -7.4 -6.0 -7.2 -7.0 -6.35 -7.65 -5.45 -8.3 -4.4 -8.2 -3.4 -8.05 -2.75 -7.2 -2.15 -6.35 -2.3 -5.3" fill="#484037" fill-rule="evenodd" stroke="none"/>
    <path d="M-2.05 6.4 Q-4.35 6.05 -5.9 4.15 -7.4 2.25 -7.25 -0.1 -7.05 -2.4 -5.3 -3.85 -3.55 -5.25 -1.25 -4.95 1.1 -4.6 2.6 -2.7 4.15 -0.8 3.95 1.55 3.8 3.85 2.05 5.25 0.3 6.7 -2.05 6.4" fill="#484037" fill-rule="evenodd" stroke="none"/>
    <path d="M-11.4 7.4 L-11.6 6.6 -11.4 5.65 -10.8 5.05 -10.15 5.15 Q-9.9 5.45 -9.9 5.95 -9.85 6.5 -10.1 6.9 L-10.7 7.5 -11.4 7.4" fill="#484037" fill-rule="evenodd" stroke="none"/>
    <path d="M8.6 -5.1 Q8.2 -5.45 8.25 -6.25 8.2 -6.95 8.6 -7.65 8.95 -8.3 9.45 -8.5 L10.4 -8.35 10.8 -7.15 Q10.8 -6.4 10.45 -5.75 10.15 -5.05 9.6 -4.85 9.05 -4.7 8.6 -5.1" fill="#484037" fill-rule="evenodd" stroke="none"/>
    <path d="M11.05 -4.75 Q10.8 -5.0 10.85 -5.55 10.8 -6.05 11.05 -6.5 L11.65 -7.1 12.3 -7.0 12.55 -6.2 12.35 -5.25 11.75 -4.65 11.05 -4.75" fill="#484037" fill-rule="evenodd" stroke="none"/>
    <path d="M-2.3 -4.3 Q-0.75 -4.1 0.25 -2.9 L0.85 -1.85 -0.8 -2.5 Q-2.25 -2.7 -3.4 -1.8 -4.55 -0.85 -4.65 0.6 -4.75 1.55 -4.4 2.35 L-5.3 1.55 Q-6.3 0.35 -6.15 -1.2 -6.05 -2.7 -4.9 -3.65 -3.75 -4.55 -2.3 -4.3" fill="#72675a" fill-rule="evenodd" stroke="none"/>
    <path d="M3.35 -3.15 Q4.4 -4.2 4.75 -5.55 5.25 -7.15 4.45 -8.4 3.6 -9.65 2.1 -9.65 0.85 -9.65 -0.35 -8.95 L0.2 -9.45 Q1.65 -10.65 3.25 -10.6 4.75 -10.6 5.6 -9.3 6.4 -8.1 5.9 -6.45 5.4 -4.75 3.95 -3.6 L3.35 -3.15" fill="#72675a" fill-rule="evenodd" stroke="none"/>
    <path d="M0.5 9.3 Q-1.1 9.1 -2.15 7.8 -3.15 6.55 -3.0 4.9 -2.85 3.35 -1.6 2.35 -0.35 1.35 1.25 1.45 2.85 1.7 3.85 2.95 4.9 4.25 4.75 5.85 4.6 7.5 3.35 8.5 2.1 9.5 0.5 9.3" fill="#484037" fill-rule="evenodd" stroke="none"/>
    <path d="M-8.45 -1.9 Q-9.25 -1.0 -9.5 0.1 -9.75 1.55 -8.9 2.6 -8.1 3.6 -6.65 3.65 -5.5 3.65 -4.5 3.05 L-5.0 3.55 Q-6.25 4.55 -7.75 4.5 -9.2 4.5 -10.0 3.5 -10.85 2.45 -10.6 0.95 -10.3 -0.5 -9.05 -1.5 L-8.45 -1.9" fill="#72675a" fill-rule="evenodd" stroke="none"/>
    <path d="M-2.45 -15.95 L-3.1 -19.45 Q-3.1 -21.5 -2.1 -19.45 L-1.85 -18.35 -1.55 -17.25 -1.35 -15.15 -1.15 -12.85 Q-1.15 -12.3 -1.65 -12.3 -2.35 -12.3 -2.4 -13.75 L-2.45 -15.95" fill="#1e88d2" fill-rule="evenodd" stroke="none"/>
    <path d="M3.95 -19.4 L3.15 -16.85 2.15 -14.35 Q1.8 -14.35 1.8 -14.7 L2.8 -17.55 4.0 -20.4 3.95 -19.4" fill="#1e88d2" fill-rule="evenodd" stroke="none"/>
    <path d="M9.0 -17.8 L7.85 -16.05 6.55 -14.45 Q6.1 -14.45 6.1 -14.85 6.1 -15.35 7.2 -16.75 8.4 -18.3 8.95 -18.05 L9.0 -17.8" fill="#1e88d2" fill-rule="evenodd" stroke="none"/>
    <path d="M12.65 -15.25 Q10.7 -13.0 7.7 -10.45 L7.65 -10.5 10.15 -13.1 12.55 -15.35 12.65 -15.25" fill="#1e88d2" fill-rule="evenodd" stroke="none"/>
    <path d="M14.65 -12.5 L13.55 -11.05 12.1 -9.75 Q11.7 -9.75 11.7 -10.1 L12.75 -11.4 Q13.95 -12.65 14.6 -12.7 L14.65 -12.5" fill="#1e88d2" fill-rule="evenodd" stroke="none"/>
    <path d="M11.2 -1.3 Q10.6 -1.3 10.45 -1.5 L10.4 -1.7 Q10.4 -2.15 12.45 -2.25 L15.25 -2.15 11.2 -1.3" fill="#1e88d2" fill-rule="evenodd" stroke="none"/>
    <path d="M14.2 3.95 L11.45 2.8 Q11.6 2.0 14.5 3.6 L14.2 3.95" fill="#1e88d2" fill-rule="evenodd" stroke="none"/>
    <path d="M8.15 9.85 Q7.35 9.85 6.6 8.9 L6.0 8.05 Q6.0 6.55 7.4 7.6 8.8 8.6 8.8 9.4 8.8 9.85 8.15 9.85" fill="#1e88d2" fill-rule="evenodd" stroke="none"/>
    <path d="M9.8 15.55 L9.65 15.6 Q9.25 15.6 5.05 10.15 5.05 8.7 6.85 10.95 8.25 12.7 9.8 15.4 L9.8 15.55" fill="#1e88d2" fill-rule="evenodd" stroke="none"/>
    <path d="M0.25 13.65 Q0.0 14.4 0.0 16.15 L-0.25 16.25 Q-0.95 16.25 -1.2 11.4 -1.2 9.8 -0.35 9.9 0.5 10.0 0.5 11.95 L0.25 13.65" fill="#1e88d2" fill-rule="evenodd" stroke="none"/>
    <path d="M-10.6 -1.6 L-14.95 -1.9 Q-15.6 -1.95 -15.6 -2.45 -15.6 -3.4 -12.65 -3.3 -9.75 -3.15 -9.75 -2.35 -9.75 -1.7 -10.6 -1.6" fill="#1e88d2" fill-rule="evenodd" stroke="none"/>
    <path d="M-14.7 -2.95 L-15.2 -2.45 Q-16.05 -2.45 -15.85 -3.25 -15.85 -4.05 -15.1 -4.05 -14.35 -4.05 -14.35 -3.55 L-14.7 -2.95" fill="#b4e0ff" fill-rule="evenodd" stroke="none"/>
    <path d="M-3.5 -21.9 L-3.4 -21.45 Q-3.4 -20.95 -3.75 -20.75 -4.25 -21.0 -4.25 -21.7 L-4.25 -22.15 -3.8 -22.35 -3.5 -21.9" fill="#b4e0ff" fill-rule="evenodd" stroke="none"/>
    <path d="M4.15 -22.85 L3.7 -21.4 2.9 -19.7 2.7 -20.05 Q2.7 -20.65 3.05 -21.75 3.5 -23.15 4.1 -23.1 L4.15 -22.85" fill="#b4e0ff" fill-rule="evenodd" stroke="none"/>
    <path d="M6.3 -17.8 L6.2 -17.8 6.2 -17.95 6.65 -18.55 6.3 -17.8" fill="#b4e0ff" fill-rule="evenodd" stroke="none"/>
    <path d="M10.05 -15.25 L10.0 -15.2 9.9 -15.45 9.95 -15.45 10.05 -15.25" fill="#b4e0ff" fill-rule="evenodd" stroke="none"/>
    <path d="M10.3 -15.9 L9.85 -15.8 Q9.4 -15.85 9.4 -16.25 9.4 -16.65 9.9 -16.5 L10.35 -16.15 10.3 -15.9" fill="#b4e0ff" fill-rule="evenodd" stroke="none"/>
    <path d="M-7.3 7.85 L-8.25 9.4 -9.6 10.9 Q-9.65 9.9 -7.5 7.6 L-7.3 7.85" fill="#b4e0ff" fill-rule="evenodd" stroke="none"/>
    <path d="M1.25 16.2 L1.2 16.35 0.6 14.7 0.4 13.15 0.4 12.95 0.8 13.0 1.25 16.2" fill="#b4e0ff" fill-rule="evenodd" stroke="none"/>
    <path d="M11.0 15.9 L10.95 16.0 Q8.2 14.3 6.7 11.3 7.8 11.85 9.45 13.7 11.0 15.45 11.0 15.75 L11.0 15.9" fill="#b4e0ff" fill-rule="evenodd" stroke="none"/>
    <path d="M13.85 3.85 Q13.4 3.85 13.05 3.45 L12.8 3.0 12.85 2.85 13.55 3.1 Q14.1 3.4 14.3 3.65 L13.85 3.85" fill="#b4e0ff" fill-rule="evenodd" stroke="none"/>
    <path d="M15.0 -1.65 L14.05 -1.65 Q13.7 -1.7 13.6 -1.9 L13.6 -2.1 Q13.6 -2.55 14.85 -2.55 L15.3 -2.05 15.0 -1.65" fill="#b4e0ff" fill-rule="evenodd" stroke="none"/>
    <path d="M-8.1 -10.1 L-8.25 -10.05 Q-8.65 -10.05 -10.55 -12.85 L-12.35 -15.7 -12.3 -15.85 -12.15 -15.9 Q-9.65 -13.15 -8.1 -10.1" fill="#1e88d2" fill-rule="evenodd" stroke="none"/>
    <path d="M-10.5 -6.7 L-10.8 -6.6 Q-11.8 -6.6 -12.35 -7.4 -12.35 -7.9 -11.4 -7.6 -10.45 -7.3 -10.45 -6.85 L-10.5 -6.7" fill="#1e88d2" fill-rule="evenodd" stroke="none"/>
    <path d="M-8.4 6.55 Q-8.4 6.8 -9.55 8.5 -10.8 10.35 -11.35 10.35 L-11.65 10.3 -11.7 10.0 Q-11.7 9.7 -10.45 8.15 L-8.45 6.25 -8.4 6.55" fill="#1e88d2" fill-rule="evenodd" stroke="none"/>
    <path d="M-6.0 12.3 Q-6.0 13.0 -6.5 13.0 -6.9 13.0 -6.9 12.5 -6.9 11.65 -6.05 12.0 L-6.0 12.3" fill="#1e88d2" fill-rule="evenodd" stroke="none"/>
  </g>
</svg>
