<?xml version="1.0" encoding="UTF-8" standalone="no"?>
<svg xmlns:ffdec="https://www.free-decompiler.com/flash" xmlns:xlink="http://www.w3.org/1999/xlink" ffdec:objectType="shape" height="40.15px" width="43.85px" xmlns="http://www.w3.org/2000/svg">
  <g transform="matrix(1.0, 0.0, 0.0, 1.0, 22.4, 22.8)">
    <path d="M18.55 -4.6 Q13.05 -1.7 12.85 0.3 12.6 2.2 21.45 10.15 10.9 2.8 6.95 7.05 3.2 11.2 4.2 17.35 2.05 11.45 0.2 10.5 -1.55 9.55 -6.0 16.75 -6.05 10.05 -6.9 6.05 -7.8 1.95 -22.4 7.55 -13.9 2.0 -12.65 -1.1 -11.55 -4.15 -19.6 -7.8 -9.6 -4.75 -7.7 -8.15 -5.8 -11.65 -11.3 -21.25 -5.1 -11.9 -2.05 -10.65 1.05 -9.5 2.45 -22.8 2.6 -6.75 14.45 -17.45 0.8 -1.3 18.55 -4.6" fill="#c6c6c6" fill-opacity="0.47058824" fill-rule="evenodd" stroke="none"/>
    <path d="M-2.25 -6.7 Q-3.15 -7.55 -3.5 -8.95 -3.85 -10.4 -3.45 -11.55 -3.0 -12.7 -2.05 -12.95 -1.15 -13.15 -0.3 -12.3 0.6 -11.45 0.95 -10.0 1.3 -8.6 0.9 -7.45 0.5 -6.3 -0.4 -6.1 -1.35 -5.85 -2.25 -6.7" fill="#7b7b7b" fill-rule="evenodd" stroke="none"/>
    <path d="M-7.4 -1.6 L-9.65 -1.75 Q-10.9 -2.25 -11.5 -3.3 -12.05 -4.3 -11.65 -5.3 -11.3 -6.25 -10.25 -6.65 L-7.9 -6.5 Q-6.7 -6.0 -6.15 -4.95 -5.55 -3.9 -5.9 -2.95 -6.3 -1.95 -7.4 -1.6" fill="#7b7b7b" fill-rule="evenodd" stroke="none"/>
    <path d="M-8.95 6.25 Q-10.3 6.35 -11.0 5.55 -11.65 4.7 -11.25 3.4 -10.85 2.1 -9.6 1.1 -8.35 0.1 -7.0 -0.05 -5.65 -0.15 -5.0 0.7 -4.3 1.5 -4.7 2.8 -5.1 4.15 -6.35 5.15 -7.6 6.15 -8.95 6.25" fill="#7b7b7b" fill-rule="evenodd" stroke="none"/>
    <path d="M3.3 -4.1 Q1.7 -4.15 0.8 -5.55 -0.1 -6.9 0.25 -8.75 0.7 -10.55 2.2 -11.7 3.65 -12.9 5.3 -12.75 6.95 -12.6 7.85 -11.25 8.75 -9.85 8.35 -8.1 7.95 -6.3 6.5 -5.1 5.0 -3.95 3.3 -4.1" fill="#7b7b7b" fill-rule="evenodd" stroke="none"/>
    <path d="M5.3 -0.9 Q4.05 -1.4 3.7 -2.6 3.3 -3.8 4.05 -5.0 4.8 -6.1 6.25 -6.55 L8.95 -6.5 Q10.2 -5.95 10.6 -4.75 10.95 -3.55 10.2 -2.4 9.5 -1.2 8.05 -0.75 L5.3 -0.9" fill="#7b7b7b" fill-rule="evenodd" stroke="none"/>
    <path d="M-2.55 11.3 Q-3.65 11.2 -4.35 10.3 -5.0 9.45 -4.9 8.4 -4.8 7.3 -4.0 6.65 -3.15 6.0 -2.05 6.1 -1.0 6.25 -0.35 7.1 0.35 8.0 0.3 9.0 0.2 10.15 -0.65 10.8 -1.45 11.45 -2.55 11.3" fill="#7b7b7b" fill-rule="evenodd" stroke="none"/>
    <path d="M2.85 10.1 Q1.25 9.9 0.2 8.6 -0.8 7.35 -0.65 5.7 -0.5 4.15 0.75 3.15 2.0 2.15 3.6 2.25 5.2 2.5 6.2 3.75 7.25 5.05 7.1 6.65 6.95 8.3 5.7 9.3 4.45 10.3 2.85 10.1" fill="#7b7b7b" fill-rule="evenodd" stroke="none"/>
    <path d="M7.7 5.4 Q6.35 5.15 5.35 3.9 4.35 2.7 4.35 1.25 4.4 -0.1 5.35 -0.9 6.35 -1.65 7.7 -1.4 9.05 -1.05 10.05 0.15 11.05 1.4 11.05 2.75 11.0 4.15 10.0 4.9 9.05 5.7 7.7 5.4" fill="#7b7b7b" fill-rule="evenodd" stroke="none"/>
    <path d="M-2.9 -7.75 Q-3.05 -6.7 -3.95 -6.05 -4.8 -5.4 -5.9 -5.55 -6.95 -5.7 -7.55 -6.55 -8.2 -7.4 -8.0 -8.45 -7.8 -9.45 -6.95 -10.1 -6.05 -10.75 -5.0 -10.65 -4.0 -10.5 -3.35 -9.65 -2.75 -8.8 -2.9 -7.75" fill="#7b7b7b" fill-rule="evenodd" stroke="none"/>
    <path d="M-2.25 6.65 Q-5.45 6.35 -7.45 3.85 -9.45 1.35 -9.1 -1.85 -8.75 -5.05 -6.25 -7.1 -3.75 -9.1 -0.55 -8.7 2.65 -8.4 4.65 -5.9 6.65 -3.4 6.3 -0.2 5.95 2.95 3.45 4.95 0.95 7.0 -2.25 6.65" fill="#7b7b7b" fill-rule="evenodd" stroke="none"/>
    <path d="M15.3 -9.65 L16.55 -9.55 17.35 -8.55 Q17.5 -7.85 17.3 -7.2 L16.65 -6.6 16.55 -5.65 15.6 -4.9 14.35 -5.0 Q13.75 -5.35 13.6 -6.05 13.4 -6.6 13.55 -7.05 L13.3 -7.1 Q12.75 -7.45 12.55 -8.2 12.35 -8.85 12.6 -9.45 12.9 -10.1 13.5 -10.25 L14.75 -10.1 15.3 -9.65" fill="#7b6d5e" fill-rule="evenodd" stroke="none"/>
    <path d="M-11.65 7.35 Q-12.0 6.9 -11.95 6.3 -11.9 5.75 -11.5 5.4 L-10.5 5.15 Q-9.95 5.25 -9.6 5.7 -9.25 6.1 -9.3 6.7 -9.35 7.25 -9.8 7.55 -10.2 7.9 -10.75 7.85 -11.3 7.75 -11.65 7.35" fill="#7b6d5e" fill-rule="evenodd" stroke="none"/>
    <path d="M-10.9 9.55 Q-11.25 9.55 -11.5 9.2 L-11.75 8.5 -11.35 7.85 -10.7 7.65 -10.05 8.0 Q-9.8 8.35 -9.85 8.7 -9.85 9.15 -10.15 9.4 L-10.9 9.55" fill="#7b7b7b" fill-rule="evenodd" stroke="none"/>
    <path d="M-10.2 -7.45 Q-10.75 -7.95 -10.95 -8.8 -11.15 -9.65 -10.9 -10.35 L-10.15 -11.15 Q-9.55 -11.3 -9.05 -10.8 -8.5 -10.3 -8.3 -9.45 -8.1 -8.6 -8.35 -7.9 -8.55 -7.2 -9.15 -7.05 -9.7 -6.9 -10.2 -7.45" fill="#7b7b7b" fill-rule="evenodd" stroke="none"/>
    <path d="M-5.2 8.25 Q-6.3 8.15 -7.0 7.25 -7.65 6.4 -7.55 5.35 -7.45 4.25 -6.65 3.6 -5.8 2.95 -4.7 3.05 -3.65 3.2 -3.0 4.05 -2.3 4.95 -2.35 5.95 -2.45 7.1 -3.3 7.75 -4.1 8.4 -5.2 8.25" fill="#7b7b7b" fill-rule="evenodd" stroke="none"/>
    <path d="M-10.9 0.25 Q-11.0 -0.85 -9.95 -1.7 -8.9 -2.55 -7.3 -2.7 -5.7 -2.85 -4.55 -2.2 -3.35 -1.55 -3.25 -0.45 -3.15 0.6 -4.2 1.45 -5.25 2.3 -6.85 2.45 -8.45 2.6 -9.6 1.95 -10.8 1.3 -10.9 0.25" fill="#7b7b7b" fill-rule="evenodd" stroke="none"/>
    <path d="M-3.2 -9.3 L-4.5 -9.85 Q-5.5 -9.95 -6.4 -9.3 -7.25 -8.65 -7.45 -7.6 -7.55 -6.75 -7.2 -6.05 L-7.65 -6.55 Q-8.2 -7.35 -8.1 -8.4 -7.9 -9.45 -7.0 -10.1 -6.15 -10.75 -5.15 -10.65 -4.0 -10.45 -3.45 -9.6 L-3.2 -9.3" fill="#4d4d4d" fill-rule="evenodd" stroke="none"/>
    <path d="M-6.15 -1.55 Q-6.65 -0.8 -6.35 0.25 -5.8 1.95 -4.65 2.55 L-3.75 2.95 Q-5.2 3.0 -6.3 2.4 -7.45 1.8 -7.55 0.7 -7.65 -0.35 -6.65 -1.25 L-6.15 -1.55" fill="#4d4d4d" fill-rule="evenodd" stroke="none"/>
    <path d="M-3.95 4.6 L-3.6 5.9 Q-3.05 6.75 -2.05 7.05 L-0.1 6.8 Q0.6 6.4 0.9 5.65 L0.8 6.3 Q0.5 7.25 -0.3 7.8 L-2.3 8.05 Q-3.3 7.75 -3.8 6.9 -4.35 5.95 -4.05 4.95 L-3.95 4.6" fill="#4d4d4d" fill-rule="evenodd" stroke="none"/>
    <path d="M-8.85 -9.9 L-9.3 -11.0 -9.0 -10.8 Q-8.5 -10.25 -8.3 -9.4 -8.05 -8.55 -8.25 -7.95 -8.65 -7.2 -9.15 -7.1 -9.7 -6.95 -10.2 -7.45 L-10.75 -8.25 -9.6 -7.7 Q-8.85 -7.5 -8.65 -8.3 -8.45 -9.1 -8.85 -9.9" fill="#4d4d4d" fill-rule="evenodd" stroke="none"/>
    <path d="M-8.45 -1.6 L-8.1 -1.5 -9.7 -1.75 Q-10.9 -2.2 -11.5 -3.25 -12.05 -4.25 -11.75 -5.3 -11.35 -6.3 -10.25 -6.65 -9.35 -6.95 -8.2 -6.65 L-9.05 -6.5 Q-10.1 -6.15 -10.45 -5.2 -10.8 -4.15 -10.3 -3.1 -9.65 -2.1 -8.45 -1.6" fill="#4d4d4d" fill-rule="evenodd" stroke="none"/>
    <path d="M7.35 -7.25 Q7.8 -9.0 6.85 -10.4 5.95 -11.8 4.3 -11.9 3.0 -12.05 1.8 -11.25 L2.25 -11.7 Q3.7 -12.85 5.35 -12.7 6.95 -12.6 7.85 -11.2 8.85 -9.8 8.35 -8.1 8.0 -6.3 6.55 -5.1 L6.05 -4.7 Q7.05 -5.8 7.35 -7.25" fill="#4d4d4d" fill-rule="evenodd" stroke="none"/>
    <path d="M8.6 -0.8 L8.4 -1.05 Q9.25 -0.7 9.95 0.15 10.95 1.4 10.95 2.8 10.95 4.15 9.95 4.9 9.0 5.7 7.6 5.45 L7.0 5.25 8.5 4.6 Q9.4 4.0 9.8 2.55 10.15 1.1 8.6 -0.8" fill="#4d4d4d" fill-rule="evenodd" stroke="none"/>
    <path d="M10.55 -4.7 Q10.95 -3.5 10.15 -2.4 9.45 -1.2 7.95 -0.75 L5.55 -0.7 6.45 -0.95 Q7.9 -1.35 8.65 -2.55 9.4 -3.7 9.0 -4.9 8.7 -6.15 7.4 -6.7 L7.2 -6.75 8.85 -6.5 Q10.15 -5.95 10.55 -4.7" fill="#4d4d4d" fill-rule="evenodd" stroke="none"/>
    <path d="M-8.2 5.6 Q-7.05 5.5 -6.0 4.8 L-6.4 5.1 Q-7.65 6.1 -8.95 6.2 -10.3 6.4 -11.0 5.6 -11.7 4.7 -11.25 3.35 -10.85 2.1 -9.6 1.1 L-9.15 0.85 Q-10.15 1.7 -10.5 2.75 -10.9 4.05 -10.2 4.95 -9.5 5.75 -8.2 5.6" fill="#4d4d4d" fill-rule="evenodd" stroke="none"/>
    <path d="M-0.55 9.85 Q0.05 9.4 0.25 8.65 L0.25 9.0 Q0.25 10.1 -0.6 10.75 -1.45 11.45 -2.6 11.25 -3.65 11.2 -4.35 10.3 -5.05 9.45 -4.95 8.35 L-4.8 7.9 Q-4.75 8.7 -4.2 9.4 -3.5 10.3 -2.45 10.35 -1.35 10.55 -0.55 9.85" fill="#4d4d4d" fill-rule="evenodd" stroke="none"/>
    <path d="M-5.55 -2.7 Q-6.2 -3.5 -6.1 -4.5 -6.0 -5.45 -5.25 -6.0 -4.5 -6.6 -3.55 -6.55 -2.6 -6.4 -1.95 -5.6 -1.35 -4.85 -1.4 -3.9 -1.5 -2.9 -2.25 -2.3 -3.0 -1.75 -3.95 -1.85 -4.95 -1.95 -5.55 -2.7" fill="#4d4d4d" fill-rule="evenodd" stroke="none"/>
    <path d="M-2.2 -3.2 Q-2.8 -3.2 -3.15 -3.65 -3.55 -4.15 -3.45 -4.75 -3.35 -5.3 -2.85 -5.7 L-1.75 -6.1 Q-1.15 -6.1 -0.75 -5.6 -0.4 -5.15 -0.5 -4.55 -0.6 -3.9 -1.1 -3.5 -1.6 -3.1 -2.2 -3.2" fill="#4d4d4d" fill-rule="evenodd" stroke="none"/>
    <path d="M-1.3 6.5 Q-2.15 6.45 -2.6 5.8 -3.1 5.2 -2.95 4.45 -2.85 3.65 -2.25 3.1 -1.6 2.6 -0.8 2.65 0.0 2.7 0.5 3.3 0.95 3.95 0.85 4.7 0.75 5.55 0.1 6.05 -0.5 6.6 -1.3 6.5" fill="#4d4d4d" fill-rule="evenodd" stroke="none"/>
    <path d="M1.65 6.1 Q0.8 6.05 0.35 5.4 -0.15 4.8 0.0 4.05 0.1 3.25 0.7 2.7 1.35 2.2 2.15 2.25 2.95 2.3 3.45 2.9 3.9 3.55 3.8 4.3 3.7 5.15 3.05 5.65 2.45 6.2 1.65 6.1" fill="#4d4d4d" fill-rule="evenodd" stroke="none"/>
    <path d="M-0.25 5.45 Q-1.25 5.35 -1.95 4.5 -2.65 3.6 -2.6 2.5 -2.5 1.45 -1.65 0.75 -0.8 0.05 0.3 0.2 1.4 0.3 2.1 1.2 2.8 2.05 2.65 3.15 2.6 4.2 1.75 4.9 0.9 5.6 -0.25 5.45" fill="#7b7b7b" fill-rule="evenodd" stroke="none"/>
    <path d="M-5.1 -1.1 Q-5.8 -2.0 -5.75 -3.1 -5.65 -4.15 -4.8 -4.85 -3.95 -5.55 -2.85 -5.4 -1.75 -5.3 -1.05 -4.4 -0.35 -3.55 -0.5 -2.45 -0.55 -1.4 -1.4 -0.7 -2.25 0.0 -3.4 -0.15 -4.4 -0.25 -5.1 -1.1" fill="#7b7b7b" fill-rule="evenodd" stroke="none"/>
    <path d="M5.4 -3.5 Q6.3 -2.9 6.5 -1.8 6.7 -0.7 6.0 0.2 5.4 1.15 4.35 1.35 L4.0 1.4 5.3 0.3 Q6.0 -0.55 5.8 -1.65 5.6 -2.75 4.7 -3.4 3.95 -3.95 3.15 -3.85 L3.45 -4.0 Q4.5 -4.2 5.4 -3.5" fill="#4d4d4d" fill-rule="evenodd" stroke="none"/>
    <path d="M-0.6 -9.85 Q0.15 -10.5 1.1 -10.3 2.05 -10.1 2.55 -9.25 3.05 -8.35 2.85 -7.3 L2.8 -6.95 2.45 -8.55 Q1.95 -9.4 1.0 -9.6 0.05 -9.8 -0.7 -9.15 L-1.6 -7.8 -1.6 -8.2 Q-1.4 -9.25 -0.6 -9.85" fill="#4d4d4d" fill-rule="evenodd" stroke="none"/>
  </g>
</svg>
