<?xml version="1.0" encoding="UTF-8" standalone="no"?>
<svg xmlns:ffdec="https://www.free-decompiler.com/flash" xmlns:xlink="http://www.w3.org/1999/xlink" ffdec:objectType="shape" height="43.2px" width="43.45px" xmlns="http://www.w3.org/2000/svg">
  <g transform="matrix(1.0, 0.0, 0.0, 1.0, 21.6, 21.35)">
    <path d="M18.15 3.4 Q18.95 4.4 18.8 5.75 18.65 7.0 17.65 7.8 L16.4 8.45 16.1 9.2 15.65 9.6 15.7 9.8 Q16.05 11.05 15.4 12.15 14.75 13.3 13.55 13.65 L11.5 13.55 Q11.35 15.05 10.25 15.9 9.15 16.8 7.75 16.55 L7.1 16.45 6.5 17.1 Q5.25 18.15 3.6 17.85 L2.35 17.55 Q2.25 18.9 1.2 19.75 0.15 20.6 -1.3 20.35 -2.55 20.2 -3.45 19.25 L-3.75 19.7 -4.7 19.9 Q-5.25 19.9 -5.6 19.45 L-5.85 18.5 -5.8 18.1 -5.9 18.15 Q-7.35 17.95 -8.2 16.85 -8.95 15.95 -9.0 14.85 L-9.15 15.0 Q-9.65 15.4 -10.2 15.35 -10.85 15.25 -11.2 14.8 -11.6 14.3 -11.5 13.7 L-11.35 13.1 -12.3 13.15 Q-13.75 12.95 -14.7 11.85 -15.55 10.75 -15.4 9.3 L-15.4 9.2 -16.5 8.4 Q-17.15 7.65 -17.05 6.65 L-16.8 5.8 -17.05 5.65 Q-18.1 4.6 -18.25 2.95 L-18.25 1.7 -19.15 0.6 Q-19.55 -0.35 -19.2 -1.35 -18.8 -2.35 -17.9 -2.8 L-15.85 -2.85 Q-14.8 -2.35 -14.35 -1.4 L-14.3 -1.25 Q-13.35 -1.1 -12.5 -0.4 -11.7 0.25 -11.4 1.15 L-11.4 0.95 -11.0 0.2 -10.2 0.0 Q-9.75 0.05 -9.45 0.4 -9.15 0.75 -9.2 1.2 -9.25 1.7 -9.6 2.0 L-10.4 2.15 Q-10.85 2.15 -11.15 1.8 L-11.25 1.7 -11.15 2.3 Q-11.0 3.95 -11.95 5.15 L-12.45 5.7 -12.2 6.2 -11.95 6.2 -11.65 5.6 -10.8 5.4 Q-10.35 5.4 -10.05 5.8 -9.8 6.15 -9.85 6.6 L-9.9 6.8 -9.25 7.45 -8.85 8.05 -8.0 7.1 Q-7.05 6.3 -5.8 6.5 -4.55 6.65 -3.75 7.6 -2.95 8.55 -3.15 9.8 -3.2 10.8 -4.0 11.6 L-2.8 12.55 -2.6 12.9 Q-2.45 12.2 -1.9 11.75 -1.2 11.2 -0.35 11.3 0.2 11.35 0.7 11.75 1.0 11.2 1.5 10.8 L2.4 10.3 Q2.15 9.6 2.2 8.8 2.35 7.45 3.4 6.6 4.5 5.7 5.9 5.85 7.05 6.05 7.9 6.95 7.8 5.7 8.4 4.7 9.0 3.6 10.15 3.15 L10.55 3.05 10.15 2.15 9.95 0.85 Q8.35 0.65 7.25 -0.75 6.05 -2.15 6.15 -3.95 L6.45 -5.05 Q5.75 -5.45 5.25 -6.15 L4.5 -7.4 4.45 -6.6 Q4.3 -5.3 3.3 -4.55 2.35 -3.75 1.1 -3.9 -0.15 -3.95 -0.9 -4.95 -1.5 -5.65 -1.6 -6.6 L-1.8 -6.45 Q-2.45 -5.95 -3.3 -6.05 L-3.8 -6.2 -3.9 -6.1 Q-5.05 -5.2 -6.35 -4.95 -5.95 -4.15 -6.05 -3.15 -6.1 -1.65 -7.2 -0.75 -8.3 0.1 -9.7 -0.1 -11.1 -0.3 -12.1 -1.5 L-13.45 -1.3 Q-14.3 -1.4 -14.8 -2.1 -15.35 -2.85 -15.25 -3.75 -15.1 -4.65 -14.4 -5.2 L-15.45 -5.3 Q-16.15 -5.6 -16.3 -6.2 -16.45 -6.75 -15.95 -7.4 L-14.6 -8.05 Q-13.8 -8.3 -13.1 -8.05 -12.4 -7.75 -12.25 -7.2 L-12.25 -6.75 -12.1 -6.85 -12.0 -6.95 Q-13.45 -8.8 -13.2 -11.2 -12.9 -13.55 -11.05 -15.0 -9.2 -16.5 -6.9 -16.25 -4.45 -16.0 -3.0 -14.15 L-2.5 -14.75 Q-1.7 -15.35 -0.8 -15.2 L0.1 -14.85 Q0.75 -15.45 1.65 -15.7 3.1 -16.1 4.35 -15.25 L5.4 -14.2 5.7 -14.9 Q5.95 -15.2 6.35 -15.3 6.75 -15.35 6.95 -15.0 7.3 -14.7 7.3 -14.2 L7.15 -13.5 9.25 -13.75 Q11.25 -13.5 12.5 -12.0 13.8 -10.45 13.6 -8.5 L13.1 -6.8 13.9 -6.1 14.6 -4.85 15.2 -5.2 Q15.55 -5.25 15.8 -4.9 L16.15 -4.1 15.85 -3.15 15.65 -2.95 16.1 -2.8 Q17.6 -1.95 18.15 -0.3 18.7 1.3 17.9 2.8 L17.8 2.95 18.15 3.4 M15.4 -7.95 L15.15 -7.2 14.7 -6.9 Q14.4 -6.9 14.15 -7.15 L13.95 -7.75 14.15 -8.45 Q14.35 -8.8 14.7 -8.8 L15.15 -8.6 15.4 -7.95 M13.5 7.7 L13.55 7.75 13.5 7.65 13.5 7.7 M9.35 8.85 L8.85 8.55 8.95 9.65 8.85 9.85 Q9.4 9.95 9.8 10.35 L10.25 9.25 9.35 8.85 M-2.3 -15.05 L-2.95 -14.85 -3.45 -15.2 -3.65 -15.75 -3.25 -16.35 -2.65 -16.45 -2.1 -16.2 -1.95 -15.55 Q-2.0 -15.25 -2.3 -15.05 M4.1 -8.35 L4.15 -8.2 4.15 -8.4 4.1 -8.35 M-1.85 -10.0 L-1.85 -9.75 -1.35 -9.3 -1.0 -8.7 -0.5 -9.25 0.05 -9.55 -0.65 -10.85 -1.55 -10.85 -1.8 -10.9 Q-1.75 -10.4 -1.85 -10.0 M-16.2 -3.45 L-16.8 -3.25 -17.35 -3.6 -17.55 -4.2 -17.25 -4.75 -16.65 -4.95 -16.05 -4.65 -15.9 -4.0 -16.2 -3.45 M-18.2 8.2 Q-17.85 7.9 -17.4 7.95 -16.85 8.0 -16.55 8.4 -16.25 8.75 -16.3 9.3 -16.35 9.75 -16.7 10.05 L-17.6 10.3 -18.35 9.85 -18.7 8.95 -18.2 8.2" fill="#120d00" fill-opacity="0.2" fill-rule="evenodd" stroke="none"/>
    <path d="M1.15 -12.9 Q-0.3 -13.8 -0.75 -15.5 -1.2 -17.2 -0.45 -18.75 0.35 -20.15 1.9 -20.5 3.45 -20.9 4.8 -20.0 6.25 -19.0 6.7 -17.3 7.15 -15.6 6.4 -14.15 5.65 -12.7 4.1 -12.3 2.55 -11.95 1.15 -12.9" fill="#c6c6c6" fill-opacity="0.5019608" fill-rule="evenodd" stroke="none"/>
    <path d="M-16.6 0.35 L-18.7 0.4 Q-19.85 -0.05 -20.4 -1.2 -20.85 -2.25 -20.45 -3.35 -20.05 -4.5 -19.0 -4.95 -17.9 -5.4 -16.75 -4.95 -15.65 -4.5 -15.2 -3.4 -14.7 -2.3 -15.1 -1.15 -15.5 -0.05 -16.6 0.35" fill="#c6c6c6" fill-opacity="0.5019608" fill-rule="evenodd" stroke="none"/>
    <path d="M-11.8 -3.6 Q-13.35 -3.8 -14.45 -5.2 -15.6 -6.6 -15.6 -8.3 -15.5 -9.95 -14.3 -10.9 -13.1 -11.85 -11.55 -11.6 -9.9 -11.3 -8.75 -9.9 -7.65 -8.5 -7.75 -6.9 -7.75 -5.2 -8.95 -4.25 -10.15 -3.3 -11.8 -3.6" fill="#c6c6c6" fill-opacity="0.5019608" fill-rule="evenodd" stroke="none"/>
    <path d="M11.05 -6.9 Q8.95 -7.1 7.55 -8.8 6.2 -10.5 6.35 -12.6 6.55 -14.7 8.2 -16.0 9.85 -17.35 11.95 -17.1 14.1 -16.85 15.45 -15.15 16.85 -13.45 16.65 -11.4 16.5 -9.3 14.85 -7.95 13.2 -6.65 11.05 -6.9" fill="#c6c6c6" fill-opacity="0.5019608" fill-rule="evenodd" stroke="none"/>
    <path d="M13.85 3.1 Q12.2 2.3 11.65 0.5 11.1 -1.3 11.95 -3.0 12.85 -4.6 14.65 -5.2 L18.15 -4.95 Q19.8 -4.05 20.35 -2.25 20.9 -0.45 20.05 1.15 19.15 2.85 17.35 3.4 15.55 4.0 13.85 3.1" fill="#c6c6c6" fill-opacity="0.5019608" fill-rule="evenodd" stroke="none"/>
    <path d="M4.5 17.65 Q2.75 17.45 1.6 16.05 0.4 14.6 0.6 12.8 0.75 11.05 2.15 9.9 3.55 8.8 5.3 9.0 7.1 9.25 8.3 10.7 9.45 12.1 9.2 13.85 9.1 15.65 7.7 16.75 6.3 17.9 4.5 17.65" fill="#c6c6c6" fill-opacity="0.5019608" fill-rule="evenodd" stroke="none"/>
    <path d="M9.05 18.05 Q7.55 17.9 6.55 16.65 5.55 15.45 5.7 13.85 5.8 12.35 7.0 11.4 8.2 10.4 9.75 10.6 11.3 10.8 12.3 12.0 13.3 13.25 13.1 14.8 12.95 16.35 11.75 17.35 10.55 18.3 9.05 18.05" fill="#c6c6c6" fill-opacity="0.5019608" fill-rule="evenodd" stroke="none"/>
    <path d="M13.3 8.05 L10.75 7.8 Q9.6 7.1 9.25 5.75 8.95 4.45 9.65 3.2 10.35 1.95 11.65 1.5 12.95 1.15 14.1 1.85 15.35 2.5 15.7 3.8 16.05 5.15 15.35 6.4 14.65 7.65 13.3 8.05" fill="#c6c6c6" fill-opacity="0.5019608" fill-rule="evenodd" stroke="none"/>
    <path d="M-11.3 -5.35 Q-11.5 -4.4 -12.3 -3.8 -13.1 -3.2 -14.1 -3.3 -15.05 -3.45 -15.65 -4.25 -16.25 -5.05 -16.1 -6.0 -15.9 -7.0 -15.1 -7.6 -14.3 -8.2 -13.3 -8.05 -12.35 -7.95 -11.75 -7.15 -11.15 -6.35 -11.3 -5.35" fill="#c6c6c6" fill-opacity="0.5019608" fill-rule="evenodd" stroke="none"/>
    <path d="M-9.9 -8.85 Q-12.5 -9.15 -14.1 -11.15 -15.7 -13.15 -15.4 -15.75 -15.15 -18.3 -13.15 -19.9 -11.1 -21.55 -8.55 -21.3 -5.95 -21.0 -4.35 -19.0 -2.75 -17.0 -3.05 -14.4 -3.3 -11.85 -5.35 -10.2 -7.35 -8.6 -9.9 -8.85" fill="#c6c6c6" fill-opacity="0.5019608" fill-rule="evenodd" stroke="none"/>
    <path d="M-11.45 6.35 Q-11.95 6.3 -12.25 5.9 L-12.55 5.05 -12.1 4.25 Q-11.7 3.9 -11.25 4.0 -10.75 4.05 -10.45 4.45 -10.15 4.85 -10.15 5.3 -10.2 5.8 -10.6 6.15 L-11.45 6.35" fill="#c6c6c6" fill-opacity="0.5019608" fill-rule="evenodd" stroke="none"/>
    <path d="M-10.6 14.85 L-11.65 14.25 Q-12.1 13.75 -12.05 13.05 -11.95 12.4 -11.45 12.0 -10.95 11.6 -10.3 11.65 L-9.2 12.25 Q-8.8 12.8 -8.85 13.45 -8.95 14.1 -9.45 14.5 -9.95 14.9 -10.6 14.85" fill="#c6c6c6" fill-opacity="0.5019608" fill-rule="evenodd" stroke="none"/>
    <path d="M-17.05 -9.0 Q-17.8 -9.3 -17.95 -9.95 -18.1 -10.6 -17.55 -11.2 -17.05 -11.8 -16.1 -12.0 L-14.45 -11.95 Q-13.7 -11.65 -13.55 -11.0 -13.4 -10.35 -13.95 -9.75 -14.5 -9.15 -15.4 -8.9 L-17.05 -9.0" fill="#c6c6c6" fill-opacity="0.5019608" fill-rule="evenodd" stroke="none"/>
    <path d="M-1.7 21.8 Q-3.2 21.65 -4.2 20.45 -5.15 19.25 -5.0 17.65 -4.8 16.2 -3.65 15.25 -2.45 14.3 -1.0 14.45 0.55 14.65 1.5 15.85 2.5 17.05 2.3 18.6 2.2 20.15 1.0 21.1 -0.15 22.05 -1.7 21.8" fill="#c6c6c6" fill-opacity="0.5019608" fill-rule="evenodd" stroke="none"/>
    <path d="M-20.15 3.35 Q-21.4 2.25 -21.6 0.45 -21.75 -1.3 -20.7 -2.7 -19.7 -4.0 -18.1 -4.15 -16.5 -4.3 -15.2 -3.2 -13.95 -2.05 -13.8 -0.3 -13.6 1.5 -14.65 2.85 -15.7 4.25 -17.3 4.4 -18.9 4.55 -20.15 3.35" fill="#c6c6c6" fill-opacity="0.5019608" fill-rule="evenodd" stroke="none"/>
    <path d="M1.7 -6.1 Q0.35 -6.25 -0.5 -7.35 -1.35 -8.4 -1.2 -9.75 -1.05 -11.1 0.05 -11.95 1.1 -12.85 2.45 -12.7 3.85 -12.55 4.7 -11.5 5.55 -10.4 5.35 -9.05 5.2 -7.7 4.15 -6.8 3.05 -5.95 1.7 -6.1" fill="#c6c6c6" fill-opacity="0.5019608" fill-rule="evenodd" stroke="none"/>
    <path d="M18.05 7.6 Q16.65 7.45 15.75 6.35 14.9 5.25 15.0 3.8 15.15 2.45 16.25 1.55 17.35 0.65 18.8 0.75 20.25 0.95 21.1 2.05 22.0 3.15 21.85 4.55 21.65 5.95 20.55 6.85 19.45 7.75 18.05 7.6" fill="#c6c6c6" fill-opacity="0.5019608" fill-rule="evenodd" stroke="none"/>
    <path d="M-15.65 8.25 Q-16.75 8.15 -17.45 7.25 -18.1 6.4 -18.0 5.3 -17.9 4.2 -17.05 3.55 -16.2 2.85 -15.05 2.95 -13.95 3.05 -13.3 3.9 -12.6 4.8 -12.7 5.9 -12.85 7.0 -13.7 7.7 -14.55 8.35 -15.65 8.25" fill="#c6c6c6" fill-opacity="0.5019608" fill-rule="evenodd" stroke="none"/>
    <path d="M-15.85 12.65 Q-17.4 12.45 -18.4 11.25 -19.35 10.0 -19.2 8.45 -19.0 6.8 -17.75 5.85 -16.55 4.85 -14.95 5.05 -13.4 5.2 -12.45 6.45 -11.45 7.65 -11.6 9.25 -11.8 10.8 -13.0 11.8 -14.25 12.75 -15.85 12.65" fill="#c6c6c6" fill-opacity="0.5019608" fill-rule="evenodd" stroke="none"/>
    <path d="M-0.55 -10.4 Q-0.65 -9.5 -1.4 -8.95 -2.15 -8.4 -3.1 -8.5 -3.95 -8.6 -4.5 -9.35 -5.05 -10.05 -4.9 -10.95 -4.75 -11.9 -4.0 -12.45 -3.25 -13.0 -2.35 -12.85 -1.45 -12.7 -0.9 -12.0 -0.35 -11.25 -0.55 -10.4" fill="#c6c6c6" fill-opacity="0.5019608" fill-rule="evenodd" stroke="none"/>
    <path d="M1.7 -15.85 Q1.5 -14.9 0.7 -14.3 -0.1 -13.7 -1.1 -13.8 -2.05 -13.95 -2.65 -14.75 -3.25 -15.55 -3.1 -16.5 -2.9 -17.5 -2.1 -18.1 -1.3 -18.7 -0.3 -18.55 0.65 -18.45 1.25 -17.65 1.85 -16.85 1.7 -15.85" fill="#c6c6c6" fill-opacity="0.5019608" fill-rule="evenodd" stroke="none"/>
    <path d="M13.9 -1.6 Q12.0 -1.8 10.7 -3.35 9.4 -4.9 9.55 -6.9 9.7 -8.8 11.25 -10.05 12.75 -11.25 14.7 -11.05 16.65 -10.75 17.95 -9.2 19.25 -7.65 19.05 -5.75 18.95 -3.8 17.45 -2.6 15.9 -1.35 13.9 -1.6" fill="#c6c6c6" fill-opacity="0.5019608" fill-rule="evenodd" stroke="none"/>
    <path d="M15.35 13.0 L12.8 12.75 Q11.65 12.05 11.3 10.7 11.0 9.4 11.7 8.15 12.4 6.9 13.7 6.45 15.0 6.1 16.15 6.8 17.4 7.45 17.75 8.75 18.1 10.1 17.4 11.35 16.7 12.6 15.35 13.0" fill="#c6c6c6" fill-opacity="0.5019608" fill-rule="evenodd" stroke="none"/>
    <path d="M6.25 11.8 Q4.75 11.65 3.75 10.45 2.8 9.25 2.95 7.65 3.15 6.2 4.3 5.25 5.5 4.3 6.95 4.45 8.5 4.65 9.45 5.85 10.45 7.05 10.25 8.6 10.15 10.15 8.95 11.1 7.8 12.05 6.25 11.8" fill="#c6c6c6" fill-opacity="0.5019608" fill-rule="evenodd" stroke="none"/>
    <path d="M-0.35 14.85 Q-1.25 14.75 -1.85 14.05 -2.4 13.3 -2.3 12.4 -2.2 11.5 -1.45 10.9 -0.75 10.35 0.15 10.4 1.05 10.5 1.6 11.25 2.2 11.95 2.1 12.85 2.0 13.8 1.3 14.35 0.55 14.95 -0.35 14.85" fill="#c6c6c6" fill-opacity="0.5019608" fill-rule="evenodd" stroke="none"/>
    <path d="M-9.4 13.35 Q-10.35 13.25 -10.95 12.5 -11.55 11.75 -11.5 10.75 -11.35 9.85 -10.6 9.25 -9.85 8.65 -8.9 8.7 -7.9 8.8 -7.3 9.55 -6.7 10.3 -6.8 11.3 -6.95 12.25 -7.7 12.85 -8.45 13.45 -9.4 13.35" fill="#c6c6c6" fill-opacity="0.5019608" fill-rule="evenodd" stroke="none"/>
    <path d="M-7.4 20.1 Q-8.95 19.9 -9.9 18.7 -10.85 17.5 -10.7 15.95 -10.55 14.4 -9.3 13.45 -8.1 12.45 -6.55 12.65 -5.0 12.8 -4.05 14.0 -3.1 15.2 -3.25 16.8 -3.4 18.3 -4.6 19.3 -5.85 20.25 -7.4 20.1" fill="#c6c6c6" fill-opacity="0.5019608" fill-rule="evenodd" stroke="none"/>
    <path d="M-10.8 0.45 Q-11.3 0.4 -11.6 0.0 L-11.9 -0.85 Q-11.85 -1.35 -11.45 -1.65 L-10.6 -1.9 Q-10.1 -1.85 -9.8 -1.45 L-9.5 -0.6 Q-9.55 -0.1 -9.95 0.25 -10.35 0.55 -10.8 0.45" fill="#c6c6c6" fill-opacity="0.5019608" fill-rule="evenodd" stroke="none"/>
    <path d="M-6.55 11.7 Q-7.9 11.55 -8.75 10.45 -9.6 9.4 -9.45 8.05 -9.3 6.7 -8.2 5.85 -7.15 4.95 -5.8 5.1 -4.4 5.25 -3.55 6.3 -2.7 7.4 -2.9 8.75 -3.05 10.1 -4.1 11.0 -5.2 11.85 -6.55 11.7" fill="#c6c6c6" fill-opacity="0.5019608" fill-rule="evenodd" stroke="none"/>
    <path d="M-18.7 9.3 L-19.55 8.85 Q-19.9 8.45 -19.85 7.9 L-19.35 7.05 Q-18.95 6.7 -18.45 6.8 -17.9 6.85 -17.55 7.25 -17.2 7.7 -17.3 8.2 -17.35 8.7 -17.75 9.05 L-18.7 9.3" fill="#c6c6c6" fill-opacity="0.5019608" fill-rule="evenodd" stroke="none"/>
    <path d="M-17.9 -5.5 Q-18.25 -5.55 -18.5 -5.85 L-18.7 -6.5 -18.35 -7.1 -17.7 -7.3 Q-17.35 -7.3 -17.1 -7.0 -16.85 -6.7 -16.9 -6.3 -16.9 -5.9 -17.2 -5.65 L-17.9 -5.5" fill="#c6c6c6" fill-opacity="0.5019608" fill-rule="evenodd" stroke="none"/>
    <path d="M-1.6 -18.9 Q-1.65 -18.55 -2.0 -18.35 -2.3 -18.1 -2.65 -18.15 L-3.3 -18.5 -3.4 -19.15 -3.05 -19.8 -2.35 -19.9 Q-2.0 -19.9 -1.8 -19.6 -1.55 -19.3 -1.6 -18.9" fill="#c6c6c6" fill-opacity="0.5019608" fill-rule="evenodd" stroke="none"/>
    <path d="M-4.6 19.85 Q-5.15 19.75 -5.55 19.3 L-5.9 18.25 Q-5.85 17.7 -5.4 17.35 -4.95 17.0 -4.4 17.05 -3.75 17.15 -3.4 17.6 -3.0 18.05 -3.1 18.65 -3.15 19.2 -3.6 19.55 -4.05 19.9 -4.6 19.85" fill="#c6c6c6" fill-opacity="0.5019608" fill-rule="evenodd" stroke="none"/>
    <path d="M17.15 -9.85 L16.65 -9.45 Q16.3 -9.45 16.05 -9.7 15.8 -10.0 15.8 -10.45 L16.05 -11.15 16.6 -11.5 17.15 -11.3 17.35 -10.6 17.15 -9.85" fill="#c6c6c6" fill-opacity="0.5019608" fill-rule="evenodd" stroke="none"/>
    <path d="M17.85 -5.4 L17.2 -4.95 Q16.8 -4.9 16.4 -5.25 16.15 -5.6 16.15 -6.15 L16.4 -7.15 Q16.75 -7.55 17.15 -7.6 17.6 -7.65 17.85 -7.3 L18.15 -6.4 17.85 -5.4" fill="#c6c6c6" fill-opacity="0.5019608" fill-rule="evenodd" stroke="none"/>
    <path d="M18.1 8.2 L17.45 8.65 Q17.05 8.7 16.65 8.35 16.4 8.0 16.4 7.45 16.4 6.9 16.65 6.45 L17.4 6.0 Q17.85 5.95 18.1 6.3 L18.4 7.2 18.1 8.2" fill="#c6c6c6" fill-opacity="0.5019608" fill-rule="evenodd" stroke="none"/>
    <path d="M8.2 -16.45 L7.55 -16.0 Q7.15 -15.95 6.75 -16.3 6.5 -16.65 6.5 -17.2 L6.75 -18.2 7.5 -18.65 Q7.95 -18.7 8.2 -18.35 L8.5 -17.45 8.2 -16.45" fill="#c6c6c6" fill-opacity="0.5019608" fill-rule="evenodd" stroke="none"/>
  </g>
</svg>
