<?xml version="1.0" encoding="UTF-8" standalone="no"?>
<svg xmlns:ffdec="https://www.free-decompiler.com/flash" xmlns:xlink="http://www.w3.org/1999/xlink" ffdec:objectType="shape" height="44.0px" width="45.75px" xmlns="http://www.w3.org/2000/svg">
  <g transform="matrix(1.0, 0.0, 0.0, 1.0, 22.85, 22.05)">
    <path d="M18.0 2.45 Q18.35 2.9 18.3 3.5 18.2 4.15 17.7 4.55 17.2 4.95 16.5 4.9 15.95 4.9 15.6 4.45 15.2 3.95 15.25 3.3 15.35 2.65 15.85 2.25 16.35 1.85 17.05 1.9 17.6 1.95 18.0 2.45 M18.05 -1.85 Q18.25 -1.1 17.85 -0.4 17.4 0.3 16.6 0.6 15.8 0.9 15.05 0.6 14.35 0.25 14.15 -0.55 13.9 -1.35 14.3 -2.1 L15.5 -3.1 17.1 -3.05 Q17.85 -2.65 18.05 -1.85 M15.5 -9.45 Q15.55 -9.05 15.25 -8.75 L14.8 -8.35 Q14.45 -8.35 14.25 -8.55 L14.05 -9.2 14.25 -9.95 14.85 -10.3 15.35 -10.1 15.5 -9.45 M11.35 -10.5 L10.5 -10.35 Q10.0 -10.35 9.7 -10.75 9.4 -11.15 9.45 -11.65 9.5 -12.1 9.85 -12.35 10.2 -12.65 10.7 -12.6 11.2 -12.6 11.5 -12.2 L11.75 -11.3 11.35 -10.5 M10.8 -7.15 Q11.5 -7.7 12.35 -7.7 13.2 -7.65 13.7 -6.95 14.25 -6.3 14.2 -5.55 14.0 -4.65 13.35 -4.1 12.65 -3.55 11.85 -3.65 10.95 -3.65 10.4 -4.3 9.9 -5.0 10.0 -5.85 10.15 -6.6 10.8 -7.15 M15.85 -4.6 Q15.6 -4.2 15.15 -4.1 14.75 -4.05 14.5 -4.4 14.2 -4.75 14.2 -5.25 14.2 -5.75 14.5 -6.15 14.8 -6.55 15.2 -6.65 15.65 -6.7 15.85 -6.35 L16.2 -5.5 Q16.2 -5.0 15.85 -4.6 M16.0 7.25 L15.6 8.2 14.95 8.65 Q14.55 8.75 14.3 8.4 14.0 8.05 14.0 7.55 L14.0 7.45 13.8 7.95 12.6 8.95 11.15 8.85 Q10.45 8.5 10.3 7.75 10.1 7.0 10.6 6.25 11.0 5.55 11.75 5.25 L13.2 5.4 Q13.85 5.8 14.05 6.5 L14.1 7.05 14.25 6.6 15.0 6.15 Q15.45 6.05 15.65 6.45 16.0 6.7 16.0 7.25 M12.3 13.1 L10.75 12.95 Q10.1 12.6 9.85 11.85 9.7 11.1 10.15 10.4 10.55 9.7 11.3 9.45 L12.75 9.6 Q13.45 10.0 13.7 10.7 13.85 11.45 13.45 12.15 13.05 12.8 12.3 13.1 M7.05 15.5 Q6.8 15.2 6.85 14.7 L7.3 14.0 Q7.65 13.75 8.05 13.75 8.5 13.85 8.75 14.15 9.05 14.5 8.95 14.95 L8.55 15.6 7.75 15.9 Q7.35 15.85 7.05 15.5 M6.15 13.65 Q5.5 14.15 4.7 14.1 3.9 14.05 3.4 13.4 2.9 12.8 3.05 12.0 3.15 11.2 3.8 10.7 4.4 10.2 5.25 10.25 6.0 10.3 6.5 10.9 7.0 11.55 6.9 12.35 6.75 13.15 6.15 13.65 M3.35 16.25 Q4.05 16.3 4.45 16.85 4.85 17.35 4.85 18.05 4.7 18.7 4.1 19.15 L2.95 19.55 Q2.2 19.45 1.8 18.95 1.4 18.4 1.45 17.75 1.55 17.1 2.1 16.65 2.7 16.2 3.35 16.25 M0.1 16.95 Q0.45 17.45 0.3 17.95 0.25 18.6 -0.25 19.0 L-1.35 19.3 Q-1.9 19.3 -2.25 18.8 -2.65 18.35 -2.55 17.8 -2.45 17.2 -2.0 16.85 L-0.9 16.45 Q-0.3 16.5 0.1 16.95 M-1.75 14.55 L-1.85 14.0 -1.55 13.5 -1.0 13.3 Q-0.7 13.35 -0.5 13.6 -0.3 13.85 -0.4 14.1 -0.4 14.45 -0.65 14.65 L-1.25 14.8 -1.75 14.55 M-5.85 16.9 Q-6.4 16.9 -6.7 16.5 -7.0 16.1 -6.95 15.6 -6.85 15.1 -6.45 14.75 L-5.5 14.45 Q-5.0 14.5 -4.7 14.9 -4.4 15.3 -4.4 15.75 -4.5 16.3 -4.95 16.65 L-5.85 16.9 M-9.35 17.4 Q-9.85 17.8 -10.45 17.8 -11.05 17.75 -11.4 17.3 -11.7 16.9 -11.6 16.35 -11.5 15.7 -11.0 15.3 -10.55 14.95 -9.95 15.0 -9.4 15.05 -9.1 15.45 -8.75 15.9 -8.8 16.45 -8.9 17.05 -9.35 17.4 M-13.35 15.7 Q-13.75 15.75 -14.0 15.4 L-14.2 14.7 -13.8 14.05 -13.1 13.8 Q-12.7 13.85 -12.45 14.15 -12.2 14.5 -12.25 14.8 -12.3 15.25 -12.6 15.5 L-13.35 15.7 M-14.7 11.3 Q-15.4 11.85 -16.25 11.75 -17.1 11.75 -17.6 11.1 -18.15 10.4 -18.05 9.55 -17.9 8.7 -17.2 8.15 -16.45 7.55 -15.6 7.6 -14.7 7.65 -14.15 8.35 -13.65 9.0 -13.8 9.8 -13.95 10.7 -14.7 11.3 M-16.4 12.95 Q-16.4 12.55 -16.05 12.25 L-15.3 12.05 Q-14.85 12.05 -14.6 12.4 -14.35 12.7 -14.45 13.15 -14.45 13.5 -14.8 13.8 -15.15 14.1 -15.55 14.05 L-16.2 13.7 -16.4 12.95 M-6.7 20.05 Q-7.15 20.05 -7.5 19.65 -7.85 19.2 -7.8 18.7 -7.7 18.05 -7.25 17.75 -6.8 17.35 -6.25 17.45 -5.75 17.5 -5.4 17.95 -5.05 18.35 -5.15 18.8 -5.2 19.4 -5.65 19.8 L-6.7 20.05 M7.0 -14.6 Q6.75 -14.25 6.35 -14.15 5.9 -14.05 5.65 -14.4 5.4 -14.75 5.4 -15.25 L5.65 -16.15 Q6.0 -16.6 6.4 -16.65 6.85 -16.75 7.05 -16.35 L7.35 -15.55 Q7.35 -15.05 7.0 -14.6 M4.35 -17.3 Q5.1 -16.85 5.2 -16.05 5.45 -15.3 4.95 -14.6 4.5 -13.9 3.7 -13.7 L2.15 -13.85 Q1.45 -14.2 1.3 -15.0 1.1 -15.8 1.5 -16.5 2.0 -17.2 2.8 -17.5 L4.35 -17.3 M-2.65 -16.05 Q-2.95 -15.8 -3.35 -15.8 -3.65 -15.85 -3.85 -16.15 L-4.05 -16.7 -3.6 -17.35 -3.0 -17.45 -2.45 -17.2 Q-2.2 -16.95 -2.25 -16.6 L-2.65 -16.05 M-3.9 -14.15 Q-3.65 -15.15 -2.85 -15.8 -2.05 -16.4 -1.1 -16.25 -0.15 -16.15 0.4 -15.45 0.9 -14.7 0.7 -13.8 0.5 -12.85 -0.35 -12.25 -1.1 -11.65 -2.1 -11.75 -2.95 -11.8 -3.45 -12.5 -4.0 -13.25 -3.9 -14.15 M-5.8 -11.4 Q-6.4 -10.9 -7.05 -10.95 L-8.15 -11.55 Q-8.6 -12.1 -8.45 -12.8 L-7.75 -13.95 -6.55 -14.35 Q-5.8 -14.35 -5.35 -13.8 -4.95 -13.3 -5.1 -12.5 -5.2 -11.85 -5.8 -11.4 M-10.3 -12.35 Q-9.15 -12.4 -8.4 -11.6 -7.65 -10.9 -7.6 -9.8 -7.55 -8.75 -8.3 -8.05 -9.05 -7.3 -10.05 -7.3 -11.05 -7.3 -11.85 -8.05 -12.65 -8.85 -12.7 -9.85 -12.75 -10.85 -12.0 -11.6 -11.25 -12.3 -10.3 -12.35 M0.75 -6.7 Q0.3 -6.7 0.05 -7.05 L-0.15 -7.8 Q-0.1 -8.3 0.3 -8.6 L1.1 -8.8 Q1.55 -8.8 1.8 -8.45 L2.0 -7.7 1.6 -6.95 Q1.2 -6.65 0.75 -6.7 M-3.75 -9.15 Q-4.05 -8.9 -4.4 -8.9 -4.8 -8.9 -5.0 -9.15 L-5.1 -9.8 -4.7 -10.35 -4.05 -10.55 Q-3.75 -10.55 -3.6 -10.25 -3.35 -10.0 -3.45 -9.65 -3.45 -9.3 -3.75 -9.15 M-11.6 -0.2 Q-11.1 -0.2 -10.8 0.2 -10.5 0.55 -10.6 1.0 -10.65 1.5 -11.05 1.8 L-11.9 2.0 Q-12.4 2.05 -12.7 1.7 -13.0 1.3 -12.9 0.8 -12.85 0.35 -12.45 0.05 L-11.6 -0.2 M-15.3 -0.55 Q-16.1 -0.65 -16.65 -1.35 -17.15 -2.0 -17.1 -3.05 -16.9 -4.05 -16.15 -4.75 -15.4 -5.45 -14.65 -5.5 -13.7 -5.45 -13.15 -4.75 -12.6 -4.05 -12.85 -3.0 -12.95 -2.05 -13.65 -1.3 -14.4 -0.55 -15.3 -0.55 M-16.55 0.7 Q-15.75 0.9 -15.45 1.5 -15.2 2.1 -15.4 2.7 -15.7 3.3 -16.35 3.6 L-17.25 3.7 Q-17.2 4.3 -17.5 4.75 -16.95 4.75 -16.7 5.1 -16.35 5.5 -16.45 6.0 L-16.95 6.85 Q-17.4 7.2 -17.9 7.15 -18.4 7.15 -18.75 6.75 L-18.95 5.9 -19.2 5.9 Q-20.05 6.0 -20.7 5.4 -21.3 4.9 -21.4 3.9 -21.45 3.0 -20.85 2.2 -20.3 1.5 -19.45 1.4 L-18.65 1.4 Q-18.45 0.9 -17.85 0.65 L-16.55 0.7 M-12.45 5.35 Q-11.95 5.35 -11.65 5.75 -11.35 6.1 -11.5 6.55 -11.5 7.05 -11.9 7.35 L-12.8 7.55 -13.5 7.25 -13.75 6.35 -13.3 5.6 Q-12.9 5.3 -12.45 5.35 M-15.9 -8.3 L-14.3 -8.35 Q-13.6 -8.1 -13.45 -7.55 -13.35 -6.9 -13.85 -6.3 -14.4 -5.75 -15.3 -5.5 L-16.9 -5.45 Q-17.6 -5.7 -17.75 -6.35 -17.8 -6.95 -17.3 -7.55 L-15.9 -8.3 M-17.7 -3.5 L-18.35 -3.35 Q-18.7 -3.4 -18.95 -3.65 L-19.1 -4.25 -18.75 -4.8 -18.1 -5.05 Q-17.75 -5.0 -17.55 -4.75 -17.3 -4.5 -17.35 -4.15 -17.45 -3.75 -17.7 -3.5 M-18.6 8.7 Q-18.25 9.1 -18.35 9.6 -18.45 10.1 -18.85 10.45 -19.25 10.75 -19.75 10.7 L-20.55 10.25 -20.8 9.4 Q-20.75 8.85 -20.35 8.55 -19.95 8.2 -19.4 8.3 -18.9 8.3 -18.6 8.7" fill="#171000" fill-opacity="0.3019608" fill-rule="evenodd" stroke="none"/>
    <path d="M3.65 -17.45 Q2.8 -17.9 2.6 -18.85 2.35 -19.75 2.8 -20.6 3.3 -21.35 4.2 -21.6 L5.95 -21.4 Q6.8 -20.85 7.05 -19.95 7.25 -19.0 6.8 -18.25 6.3 -17.35 5.35 -17.15 4.45 -16.9 3.65 -17.45" fill="#c6c6c6" fill-opacity="0.5803922" fill-rule="evenodd" stroke="none"/>
    <path d="M-16.95 2.1 L-18.5 2.05 -19.7 1.0 Q-20.1 0.25 -19.85 -0.45 -19.6 -1.15 -18.85 -1.35 L-17.25 -1.3 Q-16.45 -0.95 -16.1 -0.25 -15.75 0.45 -16.0 1.15 -16.25 1.85 -16.95 2.1" fill="#c6c6c6" fill-opacity="0.5803922" fill-rule="evenodd" stroke="none"/>
    <path d="M-10.35 -10.4 Q-11.5 -10.4 -12.45 -11.3 -13.4 -12.25 -13.5 -13.5 -13.5 -14.65 -12.7 -15.5 -11.9 -16.3 -10.75 -16.3 -9.55 -16.2 -8.6 -15.25 -7.65 -14.35 -7.6 -13.2 -7.5 -11.95 -8.3 -11.15 -9.1 -10.3 -10.35 -10.4" fill="#c6c6c6" fill-opacity="0.5803922" fill-rule="evenodd" stroke="none"/>
    <path d="M13.25 -12.95 L12.3 -13.5 Q11.95 -13.95 11.95 -14.5 12.0 -15.05 12.4 -15.35 12.8 -15.7 13.35 -15.65 L14.3 -15.05 14.65 -14.1 Q14.65 -13.5 14.25 -13.15 L13.25 -12.95" fill="#c6c6c6" fill-opacity="0.5803922" fill-rule="evenodd" stroke="none"/>
    <path d="M19.0 0.0 Q18.15 -0.4 17.85 -1.35 17.6 -2.25 18.05 -3.1 18.5 -3.95 19.4 -4.25 L21.2 -4.1 Q22.05 -3.65 22.3 -2.75 22.6 -1.8 22.15 -1.0 21.7 -0.15 20.75 0.15 L19.0 0.0" fill="#c6c6c6" fill-opacity="0.5803922" fill-rule="evenodd" stroke="none"/>
    <path d="M5.9 21.7 Q5.1 21.6 4.6 20.95 4.1 20.3 4.15 19.5 4.25 18.7 4.85 18.2 5.45 17.7 6.25 17.8 7.1 17.9 7.6 18.55 8.1 19.2 8.0 20.0 7.95 20.8 7.35 21.3 6.75 21.8 5.9 21.7" fill="#c6c6c6" fill-opacity="0.5803922" fill-rule="evenodd" stroke="none"/>
    <path d="M11.3 17.65 Q10.85 17.65 10.5 17.25 10.2 16.8 10.2 16.3 10.3 15.8 10.7 15.45 L11.55 15.25 Q12.05 15.25 12.35 15.7 12.7 16.1 12.65 16.6 L12.25 17.4 11.3 17.65" fill="#c6c6c6" fill-opacity="0.5803922" fill-rule="evenodd" stroke="none"/>
    <path d="M16.6 9.75 L14.9 9.55 Q14.15 9.1 13.9 8.25 13.75 7.35 14.2 6.55 14.65 5.7 15.5 5.4 16.4 5.2 17.15 5.65 17.95 6.1 18.2 6.9 18.4 7.8 17.95 8.65 L16.6 9.75" fill="#c6c6c6" fill-opacity="0.5803922" fill-rule="evenodd" stroke="none"/>
    <path d="M-13.3 -5.35 Q-13.3 -4.3 -14.15 -3.4 -14.95 -2.6 -16.0 -2.65 -16.95 -2.7 -17.6 -3.55 -18.25 -4.45 -18.2 -5.65 -18.05 -6.8 -17.25 -7.65 -16.45 -8.45 -15.55 -8.35 -14.45 -8.35 -13.8 -7.45 -13.15 -6.6 -13.3 -5.35" fill="#c6c6c6" fill-opacity="0.5803922" fill-rule="evenodd" stroke="none"/>
    <path d="M-7.0 -14.45 Q-7.8 -14.6 -8.3 -15.25 -8.8 -15.9 -8.7 -16.7 -8.6 -17.5 -7.95 -18.05 -7.35 -18.55 -6.55 -18.45 -5.7 -18.4 -5.2 -17.75 -4.7 -17.1 -4.85 -16.2 -4.95 -15.4 -5.55 -14.9 -6.2 -14.35 -7.0 -14.45" fill="#c6c6c6" fill-opacity="0.5803922" fill-rule="evenodd" stroke="none"/>
    <path d="M-12.65 7.05 L-13.55 6.55 Q-13.9 6.15 -13.85 5.55 -13.85 5.0 -13.4 4.7 -13.0 4.35 -12.45 4.4 -11.9 4.5 -11.55 4.9 -11.2 5.35 -11.25 5.9 -11.3 6.45 -11.7 6.8 L-12.65 7.05" fill="#c6c6c6" fill-opacity="0.5803922" fill-rule="evenodd" stroke="none"/>
    <path d="M-12.95 16.55 Q-13.4 16.5 -13.7 16.1 L-14.0 15.3 -13.6 14.55 Q-13.25 14.25 -12.8 14.3 -12.3 14.35 -12.0 14.7 -11.7 15.1 -11.75 15.55 -11.8 16.0 -12.15 16.3 -12.5 16.6 -12.95 16.55" fill="#c6c6c6" fill-opacity="0.5803922" fill-rule="evenodd" stroke="none"/>
    <path d="M-18.05 -8.55 Q-18.85 -8.9 -19.05 -9.6 -19.2 -10.3 -18.65 -10.95 -18.05 -11.65 -17.05 -11.9 L-15.2 -11.8 Q-14.35 -11.5 -14.2 -10.8 -14.0 -10.1 -14.6 -9.4 -15.2 -8.75 -16.25 -8.5 L-18.05 -8.55" fill="#c6c6c6" fill-opacity="0.5803922" fill-rule="evenodd" stroke="none"/>
    <path d="M1.0 21.3 Q0.3 21.25 -0.15 20.7 -0.6 20.15 -0.5 19.45 -0.45 18.75 0.1 18.3 0.6 17.9 1.3 18.0 1.95 18.1 2.4 18.65 2.85 19.2 2.8 19.85 2.7 20.55 2.2 20.95 1.65 21.4 1.0 21.3" fill="#c6c6c6" fill-opacity="0.5803922" fill-rule="evenodd" stroke="none"/>
    <path d="M-21.95 4.1 Q-22.75 3.4 -22.85 2.3 -22.95 1.15 -22.3 0.35 -21.65 -0.5 -20.65 -0.6 -19.65 -0.7 -18.85 0.0 -18.05 0.7 -17.95 1.85 -17.85 2.95 -18.5 3.75 -19.15 4.65 -20.15 4.75 -21.15 4.85 -21.95 4.1" fill="#c6c6c6" fill-opacity="0.5803922" fill-rule="evenodd" stroke="none"/>
    <path d="M2.25 -9.15 Q1.75 -9.15 1.4 -9.6 1.05 -10.0 1.15 -10.5 1.15 -11.0 1.6 -11.35 L2.55 -11.6 Q3.0 -11.6 3.35 -11.2 3.7 -10.75 3.65 -10.25 3.6 -9.75 3.2 -9.4 2.75 -9.05 2.25 -9.15" fill="#c6c6c6" fill-opacity="0.5803922" fill-rule="evenodd" stroke="none"/>
    <path d="M20.95 5.2 L19.75 4.55 Q19.3 4.0 19.4 3.3 19.45 2.55 20.0 2.1 20.6 1.65 21.35 1.7 22.05 1.8 22.5 2.35 23.0 2.9 22.9 3.6 22.8 4.35 22.2 4.8 21.65 5.25 20.95 5.2" fill="#c6c6c6" fill-opacity="0.5803922" fill-rule="evenodd" stroke="none"/>
    <path d="M-18.6 6.2 Q-19.15 6.2 -19.55 5.75 -19.9 5.25 -19.85 4.65 -19.8 4.05 -19.35 3.7 -18.9 3.3 -18.25 3.4 -17.7 3.45 -17.35 3.95 -16.95 4.4 -17.0 4.95 -17.1 5.55 -17.55 5.95 -18.0 6.3 -18.6 6.2" fill="#c6c6c6" fill-opacity="0.5803922" fill-rule="evenodd" stroke="none"/>
    <path d="M-16.5 11.8 Q-17.5 11.7 -18.15 10.9 -18.8 10.1 -18.7 9.1 -18.6 8.1 -17.8 7.45 -17.0 6.8 -15.95 6.9 -14.95 7.0 -14.3 7.8 -13.65 8.6 -13.75 9.6 -13.9 10.65 -14.7 11.3 -15.5 11.95 -16.5 11.8" fill="#c6c6c6" fill-opacity="0.5803922" fill-rule="evenodd" stroke="none"/>
    <path d="M-2.75 -12.8 Q-2.75 -12.4 -3.1 -12.15 -3.45 -11.9 -3.85 -11.95 L-4.5 -12.35 Q-4.75 -12.65 -4.65 -13.05 L-4.25 -13.75 -3.55 -13.9 -2.9 -13.55 Q-2.65 -13.2 -2.75 -12.8" fill="#c6c6c6" fill-opacity="0.5803922" fill-rule="evenodd" stroke="none"/>
    <path d="M1.85 -17.55 Q1.65 -16.45 0.75 -15.8 -0.15 -15.15 -1.25 -15.3 -2.3 -15.45 -2.95 -16.3 -3.6 -17.2 -3.45 -18.25 -3.25 -19.35 -2.35 -20.0 -1.45 -20.65 -0.35 -20.5 0.75 -20.4 1.4 -19.5 2.05 -18.65 1.85 -17.55" fill="#c6c6c6" fill-opacity="0.5803922" fill-rule="evenodd" stroke="none"/>
    <path d="M15.15 -5.05 Q14.15 -5.15 13.5 -5.9 12.85 -6.7 12.95 -7.7 13.05 -8.6 13.8 -9.25 14.55 -9.85 15.55 -9.75 16.5 -9.65 17.15 -8.85 17.8 -8.1 17.75 -7.1 17.65 -6.15 16.9 -5.55 16.15 -4.9 15.15 -5.05" fill="#c6c6c6" fill-opacity="0.5803922" fill-rule="evenodd" stroke="none"/>
    <path d="M16.4 14.6 Q15.55 14.9 14.7 14.4 13.9 13.95 13.6 13.05 13.35 12.15 13.8 11.35 14.25 10.6 15.1 10.4 L16.8 10.6 Q17.65 11.1 17.9 11.95 18.2 12.85 17.75 13.6 17.3 14.4 16.4 14.6" fill="#c6c6c6" fill-opacity="0.5803922" fill-rule="evenodd" stroke="none"/>
    <path d="M7.7 15.5 Q6.8 15.4 6.2 14.65 5.6 13.9 5.65 12.95 5.8 12.05 6.5 11.45 7.25 10.9 8.15 10.95 9.1 11.1 9.7 11.85 10.3 12.6 10.2 13.5 10.15 14.5 9.4 15.05 8.7 15.65 7.7 15.5" fill="#c6c6c6" fill-opacity="0.5803922" fill-rule="evenodd" stroke="none"/>
    <path d="M1.0 16.0 L0.4 15.65 0.2 15.05 0.5 14.45 1.15 14.3 1.75 14.6 1.95 15.25 1.6 15.8 1.0 16.0" fill="#c6c6c6" fill-opacity="0.5803922" fill-rule="evenodd" stroke="none"/>
    <path d="M-15.65 14.45 Q-16.15 14.45 -16.45 14.05 -16.75 13.7 -16.7 13.15 L-16.3 12.4 Q-15.9 12.1 -15.35 12.1 L-14.6 12.55 Q-14.3 12.95 -14.3 13.4 -14.4 13.95 -14.8 14.25 -15.15 14.55 -15.65 14.45" fill="#c6c6c6" fill-opacity="0.5803922" fill-rule="evenodd" stroke="none"/>
    <path d="M-4.3 18.2 Q-4.9 18.1 -5.25 17.65 L-5.6 16.6 Q-5.5 16.0 -5.05 15.6 L-4.0 15.3 Q-3.4 15.35 -3.0 15.85 -2.65 16.3 -2.7 16.9 -2.75 17.5 -3.25 17.85 -3.7 18.25 -4.3 18.2" fill="#c6c6c6" fill-opacity="0.5803922" fill-rule="evenodd" stroke="none"/>
    <path d="M-11.9 0.5 L-12.8 0.0 Q-13.15 -0.4 -13.1 -1.0 L-12.65 -1.85 -11.7 -2.15 Q-11.15 -2.05 -10.8 -1.65 -10.45 -1.2 -10.5 -0.65 -10.55 -0.1 -10.95 0.25 L-11.9 0.5" fill="#c6c6c6" fill-opacity="0.5803922" fill-rule="evenodd" stroke="none"/>
    <path d="M-9.45 19.05 Q-10.15 19.0 -10.6 18.45 -11.0 17.95 -10.9 17.25 -10.85 16.6 -10.3 16.2 -9.8 15.75 -9.1 15.8 -8.45 15.9 -8.05 16.4 -7.6 16.95 -7.65 17.6 -7.8 18.25 -8.3 18.7 -8.85 19.1 -9.45 19.05" fill="#c6c6c6" fill-opacity="0.5803922" fill-rule="evenodd" stroke="none"/>
    <path d="M-20.6 10.3 Q-21.2 10.25 -21.6 9.75 -21.95 9.3 -21.85 8.7 -21.85 8.15 -21.4 7.8 -20.95 7.4 -20.3 7.45 -19.75 7.55 -19.4 8.0 -19.0 8.5 -19.05 9.05 -19.15 9.65 -19.6 10.05 L-20.6 10.3" fill="#c6c6c6" fill-opacity="0.5803922" fill-rule="evenodd" stroke="none"/>
    <path d="M-19.7 -6.15 Q-20.15 -6.15 -20.4 -6.5 L-20.6 -7.25 -20.25 -7.95 -19.5 -8.1 Q-19.1 -8.1 -18.85 -7.75 L-18.6 -7.0 Q-18.65 -6.6 -18.95 -6.35 -19.3 -6.05 -19.7 -6.15" fill="#c6c6c6" fill-opacity="0.5803922" fill-rule="evenodd" stroke="none"/>
    <path d="M-1.75 -20.9 Q-1.85 -20.5 -2.2 -20.25 -2.55 -20.0 -2.95 -20.05 L-3.55 -20.45 -3.8 -21.15 -3.35 -21.85 -2.6 -22.0 Q-2.15 -22.0 -1.9 -21.65 -1.65 -21.35 -1.75 -20.9" fill="#c6c6c6" fill-opacity="0.5803922" fill-rule="evenodd" stroke="none"/>
    <path d="M-5.05 21.95 Q-5.7 21.9 -6.1 21.4 -6.5 20.9 -6.45 20.2 L-5.9 19.2 Q-5.45 18.8 -4.8 18.85 L-3.75 19.5 Q-3.35 20.0 -3.4 20.6 -3.5 21.25 -3.95 21.65 -4.45 22.05 -5.05 21.95" fill="#c6c6c6" fill-opacity="0.5803922" fill-rule="evenodd" stroke="none"/>
    <path d="M18.95 -10.85 L18.35 -10.4 Q18.0 -10.4 17.75 -10.7 17.5 -11.05 17.5 -11.5 L17.75 -12.3 Q18.0 -12.65 18.35 -12.65 L18.95 -12.45 19.2 -11.65 18.95 -10.85" fill="#c6c6c6" fill-opacity="0.5803922" fill-rule="evenodd" stroke="none"/>
    <path d="M19.8 -6.0 Q19.45 -5.55 19.0 -5.5 18.5 -5.45 18.2 -5.8 17.85 -6.25 17.8 -6.85 17.8 -7.45 18.15 -7.9 18.45 -8.35 18.95 -8.4 19.4 -8.45 19.75 -8.1 L20.05 -7.05 Q20.1 -6.45 19.8 -6.0" fill="#c6c6c6" fill-opacity="0.5803922" fill-rule="evenodd" stroke="none"/>
    <path d="M20.1 9.05 L19.3 9.55 Q18.8 9.6 18.5 9.25 18.15 8.8 18.1 8.2 18.1 7.6 18.45 7.15 18.75 6.7 19.25 6.65 19.7 6.6 20.05 6.95 L20.35 8.0 Q20.4 8.6 20.1 9.05" fill="#c6c6c6" fill-opacity="0.5803922" fill-rule="evenodd" stroke="none"/>
    <path d="M9.15 -18.1 Q8.8 -17.65 8.35 -17.6 7.85 -17.55 7.55 -17.9 7.2 -18.35 7.15 -18.95 7.15 -19.55 7.5 -20.0 7.8 -20.45 8.3 -20.5 8.75 -20.55 9.1 -20.2 L9.4 -19.15 Q9.45 -18.55 9.15 -18.1" fill="#c6c6c6" fill-opacity="0.5803922" fill-rule="evenodd" stroke="none"/>
  </g>
</svg>
