<?xml version="1.0" encoding="UTF-8" standalone="no"?>
<svg xmlns:ffdec="https://www.free-decompiler.com/flash" xmlns:xlink="http://www.w3.org/1999/xlink" ffdec:objectType="shape" height="42.9px" width="45.4px" xmlns="http://www.w3.org/2000/svg">
  <g transform="matrix(1.0, 0.0, 0.0, 1.0, 22.3, 21.5)">
    <path d="M16.65 -3.45 L17.4 -2.6 Q17.55 -2.05 17.25 -1.6 L17.2 -1.6 Q17.0 -1.1 16.35 -0.9 L15.3 -0.95 Q14.85 -1.2 14.65 -1.8 L14.6 -1.8 Q14.4 -2.35 14.7 -2.9 L14.7 -2.85 15.6 -3.55 15.55 -3.5 16.6 -3.45 16.65 -3.45 M16.95 1.35 L17.6 1.75 17.8 2.4 17.45 3.05 16.7 3.25 16.1 2.9 Q15.85 2.55 15.85 2.2 L16.25 1.55 16.9 1.4 16.95 1.35 M14.65 -10.05 L14.6 -9.7 14.45 -9.65 14.3 -9.65 14.3 -10.0 Q14.25 -10.25 14.35 -10.4 L14.45 -10.5 14.55 -10.5 14.65 -10.15 14.65 -10.05 M10.45 -11.7 L10.35 -11.7 Q10.15 -11.75 10.0 -11.95 9.8 -12.15 9.85 -12.45 L9.95 -12.85 10.35 -12.85 10.85 -12.65 10.95 -12.2 10.95 -12.1 10.8 -11.75 10.45 -11.7 M11.1 -7.75 Q11.55 -8.15 12.1 -8.1 L12.2 -8.05 Q12.75 -8.0 13.15 -7.5 L13.55 -6.5 13.55 -6.4 Q13.5 -5.85 13.0 -5.5 12.55 -5.1 11.95 -5.25 L11.9 -5.2 Q11.3 -5.2 10.9 -5.7 10.5 -6.2 10.55 -6.85 10.6 -7.4 11.1 -7.75 M14.95 -5.5 L14.75 -5.6 14.55 -6.15 14.7 -6.7 Q14.85 -6.9 15.1 -6.95 L15.15 -6.9 15.2 -6.8 15.4 -6.3 15.25 -5.7 14.95 -5.5 M15.45 5.4 L15.5 5.5 15.7 5.95 15.55 6.6 15.25 6.8 15.05 6.7 14.85 6.15 14.8 5.9 14.85 5.85 15.0 5.55 14.95 5.6 15.35 5.35 15.45 5.4 M13.75 6.35 L12.9 7.0 11.95 6.9 11.95 6.85 Q11.45 6.6 11.3 6.1 L11.35 6.15 Q11.25 5.55 11.5 5.1 L11.5 5.0 Q11.8 4.55 12.25 4.4 L12.25 4.35 13.2 4.45 13.85 5.3 13.9 5.7 13.95 5.85 13.85 5.95 13.75 6.35 M13.7 9.3 Q13.85 9.85 13.6 10.35 L12.8 10.95 11.75 10.85 11.75 10.8 11.1 10.0 Q11.0 9.45 11.2 9.0 L11.25 9.1 Q11.5 8.55 12.05 8.45 L13.05 8.55 13.0 8.6 Q13.55 8.9 13.75 9.4 L13.7 9.3 M8.95 12.45 L9.25 12.6 9.4 13.05 9.2 13.35 8.85 13.5 8.45 13.2 8.35 12.9 8.35 12.85 8.55 12.55 8.9 12.4 8.95 12.45 M5.85 11.65 Q5.3 11.6 4.95 11.1 4.55 10.65 4.6 10.1 4.65 9.55 5.1 9.25 5.5 8.9 6.1 8.95 6.65 9.0 7.05 9.45 7.4 9.95 7.35 10.5 L6.85 11.4 5.85 11.65 M4.55 14.65 L4.55 14.6 Q5.0 14.7 5.3 15.1 L5.55 15.85 5.6 15.95 5.15 16.6 Q4.8 16.9 4.4 16.9 L4.35 16.85 3.65 16.4 Q3.35 16.0 3.35 15.6 3.4 15.15 3.75 14.85 4.1 14.6 4.55 14.65 M1.15 15.0 L1.3 15.65 1.3 15.7 1.0 16.25 0.4 16.45 0.3 16.45 -0.2 16.1 -0.4 15.45 Q-0.45 15.1 -0.15 14.85 L0.55 14.65 Q0.9 14.7 1.15 15.0 M0.5 11.85 L0.5 11.95 0.45 12.05 0.35 12.1 0.25 12.05 0.1 12.0 0.1 11.9 0.05 11.85 0.2 11.7 0.3 11.65 0.45 11.75 0.5 11.85 M-4.05 13.95 L-4.55 13.7 -4.7 13.15 -4.4 12.7 -3.9 12.55 -3.45 12.8 -3.25 13.35 -3.55 13.8 -4.05 13.95 M-7.7 14.45 L-8.35 14.65 Q-8.7 14.6 -8.9 14.35 L-9.1 13.7 Q-9.1 13.35 -8.75 13.15 L-8.15 12.9 Q-7.75 12.95 -7.55 13.25 -7.35 13.5 -7.4 13.85 L-7.7 14.45 M-11.15 12.55 L-11.25 12.55 -11.5 12.4 -11.6 12.05 -11.45 11.75 -11.15 11.65 Q-11.0 11.7 -10.85 11.85 L-10.75 12.15 -10.9 12.45 -11.15 12.55 M-12.35 7.25 L-12.95 8.3 Q-13.45 8.7 -14.05 8.6 -14.7 8.55 -15.05 8.1 -15.5 7.6 -15.4 6.95 -15.35 6.35 -14.85 5.95 -14.35 5.55 -13.7 5.6 -13.1 5.65 -12.65 6.15 -12.3 6.6 -12.35 7.25 M-13.8 10.25 L-13.6 9.95 -13.3 9.9 -13.3 9.85 Q-13.05 9.85 -12.9 10.05 -12.8 10.2 -12.85 10.4 L-12.8 10.5 -12.95 10.7 -13.3 10.85 -13.35 10.8 -13.65 10.65 -13.8 10.25 M-4.7 16.95 L-5.2 16.7 -5.4 16.1 -5.1 15.55 -4.6 15.45 -4.55 15.45 -4.05 15.75 -3.85 16.3 -3.85 16.35 -4.1 16.8 -4.7 16.95 M6.7 -16.35 L6.5 -15.7 6.2 -15.5 6.0 -15.6 5.8 -16.2 Q5.8 -16.5 5.95 -16.7 L6.3 -16.95 6.4 -16.9 6.5 -16.8 6.7 -16.35 M2.9 -17.9 L3.0 -17.85 3.95 -17.7 4.0 -17.65 4.65 -16.8 4.65 -16.75 Q4.8 -16.2 4.55 -15.75 L4.5 -15.7 Q4.25 -15.35 3.65 -15.2 L3.6 -15.15 2.55 -15.25 Q2.1 -15.6 1.9 -16.15 L1.9 -16.2 2.05 -17.2 2.9 -17.9 M-0.95 -16.85 Q-0.25 -16.8 0.15 -16.2 0.55 -15.65 0.45 -14.95 0.3 -14.3 -0.3 -13.85 -0.85 -13.4 -1.55 -13.55 -2.2 -13.6 -2.55 -14.15 -2.95 -14.75 -2.95 -15.4 L-2.95 -15.35 Q-2.8 -16.1 -2.25 -16.55 L-0.95 -16.85 M-2.55 -18.05 L-2.55 -17.8 -2.65 -17.65 -2.7 -17.6 -2.9 -17.5 -3.1 -17.65 -3.15 -17.75 -3.0 -18.1 -2.9 -18.15 -2.7 -18.1 -2.55 -18.05 M-5.05 -13.95 Q-5.05 -13.55 -5.45 -13.25 -5.8 -12.95 -6.2 -12.95 L-6.25 -12.95 Q-6.7 -13.05 -6.95 -13.4 L-7.2 -14.2 -7.25 -14.25 -6.75 -15.05 -6.05 -15.25 -6.0 -15.25 Q-5.5 -15.25 -5.15 -14.85 -4.9 -14.5 -5.05 -13.95 M-9.4 -13.45 L-9.4 -13.4 Q-8.55 -13.4 -7.95 -12.8 L-7.95 -12.75 Q-7.3 -12.25 -7.25 -11.35 -7.2 -10.6 -7.75 -10.05 -8.25 -9.6 -8.95 -9.6 L-9.0 -9.55 Q-9.75 -9.6 -10.4 -10.2 -11.05 -10.85 -11.1 -11.65 -11.2 -12.4 -10.65 -12.9 -10.1 -13.45 -9.4 -13.45 M1.5 -9.65 L1.8 -9.45 1.95 -9.05 1.7 -8.7 1.3 -8.55 0.95 -8.75 0.85 -9.15 1.0 -9.55 1.5 -9.65 M-3.3 -11.2 L-3.3 -11.05 -3.4 -11.0 -3.45 -11.0 -3.7 -10.85 -3.75 -10.9 -3.8 -10.9 -3.9 -11.15 -3.9 -11.2 -3.8 -11.45 -3.6 -11.45 -3.45 -11.45 -3.4 -11.35 -3.35 -11.35 -3.3 -11.2 M-12.0 -4.95 Q-12.0 -4.25 -12.5 -3.75 L-12.55 -3.75 Q-13.0 -3.25 -13.65 -3.25 -14.2 -3.3 -14.6 -3.8 L-14.65 -3.85 Q-15.0 -4.45 -15.0 -5.25 -14.85 -6.0 -14.35 -6.5 L-13.3 -7.0 Q-12.6 -6.95 -12.25 -6.45 -11.8 -5.9 -11.95 -5.05 L-12.0 -4.95 M-10.85 -1.3 L-10.65 -1.7 -10.3 -1.75 -10.2 -1.75 Q-9.95 -1.75 -9.8 -1.55 L-9.7 -1.15 -9.75 -1.05 -9.9 -0.75 -10.3 -0.6 -10.35 -0.6 -10.7 -0.85 -10.85 -1.2 -10.85 -1.3 M-15.85 -1.2 L-15.0 -1.1 Q-14.45 -0.95 -14.25 -0.55 L-14.15 0.2 -14.2 0.25 -14.65 0.7 -14.75 0.75 -15.25 0.75 -15.55 0.8 -15.75 1.0 -15.85 1.25 -16.0 2.0 -16.05 2.3 -15.9 2.65 -15.65 2.7 -15.2 2.95 -15.05 3.45 Q-15.1 3.75 -15.3 3.9 L-15.8 4.1 -16.25 3.8 -16.4 3.35 -16.5 3.05 -16.7 2.8 -17.0 2.8 -17.2 2.85 Q-17.8 2.9 -18.25 2.4 L-18.25 2.35 -18.8 1.3 Q-18.9 0.6 -18.45 -0.05 -18.1 -0.5 -17.5 -0.5 L-17.5 -0.55 -16.9 -0.55 -16.65 -0.55 -16.35 -0.8 Q-16.25 -1.1 -15.85 -1.2 M-10.3 4.2 L-10.3 4.25 -10.55 4.6 -10.9 4.75 -11.0 4.7 -11.35 4.5 -11.5 4.1 -11.5 4.05 -11.3 3.65 -10.9 3.55 -10.8 3.6 Q-10.55 3.55 -10.4 3.75 L-10.3 4.2 M-14.5 -9.75 L-14.45 -9.8 Q-13.75 -10.0 -13.2 -9.8 L-12.7 -9.3 Q-12.65 -8.95 -12.95 -8.6 -13.35 -8.2 -14.0 -8.0 -14.7 -7.85 -15.25 -8.0 L-15.75 -8.55 -15.5 -9.25 Q-15.1 -9.65 -14.5 -9.75 M-16.85 -6.6 L-16.6 -6.7 -16.4 -6.6 -16.3 -6.3 -16.45 -6.1 -16.65 -6.05 -16.9 -6.2 -16.95 -6.45 -16.85 -6.6 M-17.9 7.15 L-18.1 6.65 -17.8 6.2 -17.35 6.05 Q-17.05 6.1 -16.9 6.35 L-16.7 6.85 -16.95 7.3 -17.45 7.5 -17.45 7.45 -17.9 7.15" fill="#171000" fill-opacity="0.05882353" fill-rule="evenodd" stroke="none"/>
    <path d="M4.1 -18.35 Q3.75 -18.5 3.7 -18.85 3.6 -19.15 3.8 -19.4 3.95 -19.65 4.25 -19.7 L4.85 -19.65 5.2 -19.2 5.15 -18.6 4.65 -18.25 4.1 -18.35" fill="#c6c6c6" fill-opacity="0.2" fill-rule="evenodd" stroke="none"/>
    <path d="M-16.55 2.05 L-18.05 2.0 -19.2 0.95 Q-19.6 0.3 -19.35 -0.4 L-18.4 -1.35 -16.85 -1.25 Q-16.05 -0.95 -15.75 -0.25 -15.3 0.45 -15.55 1.1 -15.8 1.8 -16.55 2.05" fill="#c6c6c6" fill-opacity="0.2" fill-rule="evenodd" stroke="none"/>
    <path d="M-10.1 -11.4 Q-10.75 -11.4 -11.2 -11.85 -11.7 -12.35 -11.75 -13.0 -11.75 -13.6 -11.35 -14.0 -10.9 -14.45 -10.35 -14.45 -9.7 -14.4 -9.2 -13.9 -8.75 -13.45 -8.7 -12.85 -8.6 -12.2 -9.05 -11.75 -9.45 -11.35 -10.1 -11.4" fill="#c6c6c6" fill-opacity="0.2" fill-rule="evenodd" stroke="none"/>
    <path d="M12.85 -12.6 L11.95 -13.1 Q11.55 -13.55 11.6 -14.15 11.6 -14.65 12.0 -15.0 L12.95 -15.25 13.9 -14.65 Q14.25 -14.2 14.2 -13.7 14.2 -13.15 13.8 -12.85 L12.85 -12.6" fill="#c6c6c6" fill-opacity="0.2" fill-rule="evenodd" stroke="none"/>
    <path d="M19.8 -0.1 Q19.2 -0.55 18.9 -1.45 18.65 -2.3 18.85 -3.1 19.1 -3.85 19.75 -4.05 20.35 -4.25 21.0 -3.75 21.65 -3.25 21.9 -2.4 22.2 -1.5 21.95 -0.75 21.7 0.0 21.1 0.2 20.45 0.4 19.8 -0.1" fill="#c6c6c6" fill-opacity="0.2" fill-rule="evenodd" stroke="none"/>
    <path d="M5.7 21.2 L4.45 20.5 Q3.95 19.85 4.0 19.05 4.1 18.3 4.7 17.85 5.3 17.35 6.1 17.4 6.85 17.5 7.35 18.15 7.85 18.75 7.8 19.55 7.7 20.35 7.1 20.85 6.5 21.3 5.7 21.2" fill="#c6c6c6" fill-opacity="0.2" fill-rule="evenodd" stroke="none"/>
    <path d="M11.0 17.25 Q10.55 17.2 10.2 16.8 9.9 16.4 9.9 15.9 10.0 15.4 10.35 15.1 10.75 14.8 11.2 14.85 11.7 14.95 12.0 15.35 12.35 15.75 12.3 16.2 12.3 16.7 11.9 17.0 L11.0 17.25" fill="#c6c6c6" fill-opacity="0.2" fill-rule="evenodd" stroke="none"/>
    <path d="M16.7 10.8 L15.1 10.6 Q14.3 10.2 14.05 9.3 13.9 8.45 14.35 7.65 14.8 6.85 15.6 6.55 L17.25 6.75 Q18.0 7.2 18.25 8.05 18.45 8.9 18.0 9.7 17.55 10.5 16.7 10.8" fill="#c6c6c6" fill-opacity="0.2" fill-rule="evenodd" stroke="none"/>
    <path d="M-13.95 -5.35 Q-13.95 -4.6 -14.5 -4.1 -15.0 -3.6 -15.65 -3.65 -16.25 -3.65 -16.7 -4.15 -17.05 -4.75 -17.05 -5.5 -16.95 -6.25 -16.45 -6.75 -15.9 -7.3 -15.35 -7.2 -14.6 -7.2 -14.25 -6.65 -13.8 -6.1 -13.95 -5.35" fill="#c6c6c6" fill-opacity="0.2" fill-rule="evenodd" stroke="none"/>
    <path d="M-6.85 -14.15 Q-7.65 -14.25 -8.15 -14.85 -8.6 -15.5 -8.5 -16.3 -8.4 -17.1 -7.8 -17.6 -7.15 -18.1 -6.4 -18.0 -5.6 -17.9 -5.15 -17.25 -4.65 -16.65 -4.75 -15.85 -4.8 -15.05 -5.45 -14.55 -6.05 -14.05 -6.85 -14.15" fill="#c6c6c6" fill-opacity="0.2" fill-rule="evenodd" stroke="none"/>
    <path d="M-12.4 6.8 L-13.25 6.35 Q-13.6 5.95 -13.55 5.4 -13.5 4.9 -13.1 4.55 -12.7 4.25 -12.15 4.3 -11.6 4.35 -11.25 4.75 -10.9 5.2 -11.0 5.7 -11.05 6.3 -11.45 6.6 L-12.4 6.8" fill="#c6c6c6" fill-opacity="0.2" fill-rule="evenodd" stroke="none"/>
    <path d="M-12.65 16.1 L-13.4 15.7 -13.65 14.9 -13.3 14.15 -12.5 13.95 Q-12.05 14.0 -11.75 14.35 -11.45 14.7 -11.5 15.15 -11.55 15.6 -11.9 15.85 -12.2 16.15 -12.65 16.1" fill="#c6c6c6" fill-opacity="0.2" fill-rule="evenodd" stroke="none"/>
    <path d="M-17.7 -8.35 Q-18.45 -8.6 -18.65 -9.3 -18.8 -10.0 -18.25 -10.7 -17.7 -11.3 -16.7 -11.55 L-14.85 -11.5 Q-14.05 -11.15 -13.9 -10.45 -13.7 -9.75 -14.3 -9.15 -14.9 -8.5 -15.9 -8.25 L-17.7 -8.35" fill="#c6c6c6" fill-opacity="0.2" fill-rule="evenodd" stroke="none"/>
    <path d="M1.0 20.75 L-0.1 20.15 Q-0.55 19.65 -0.5 18.95 -0.45 18.3 0.1 17.85 0.6 17.45 1.25 17.5 1.95 17.6 2.4 18.1 2.85 18.65 2.75 19.3 2.7 20.0 2.2 20.4 1.65 20.85 1.0 20.75" fill="#c6c6c6" fill-opacity="0.2" fill-rule="evenodd" stroke="none"/>
    <path d="M-21.45 3.95 Q-22.2 3.35 -22.3 2.25 -22.4 1.15 -21.75 0.3 -21.15 -0.5 -20.15 -0.6 -19.2 -0.7 -18.4 0.0 -17.65 0.7 -17.55 1.8 -17.45 2.9 -18.1 3.65 -18.7 4.5 -19.65 4.6 -20.65 4.7 -21.45 3.95" fill="#c6c6c6" fill-opacity="0.2" fill-rule="evenodd" stroke="none"/>
    <path d="M2.15 -9.6 Q1.9 -9.6 1.8 -9.75 L1.7 -10.15 1.85 -10.45 2.25 -10.6 2.6 -10.4 2.7 -10.05 2.5 -9.65 2.15 -9.6" fill="#c6c6c6" fill-opacity="0.2" fill-rule="evenodd" stroke="none"/>
    <path d="M21.2 5.25 Q20.5 5.2 20.05 4.65 19.6 4.1 19.7 3.35 19.75 2.65 20.3 2.2 20.85 1.75 21.6 1.85 22.3 1.9 22.75 2.45 23.2 3.0 23.1 3.75 23.0 4.45 22.45 4.9 21.9 5.35 21.2 5.25" fill="#c6c6c6" fill-opacity="0.2" fill-rule="evenodd" stroke="none"/>
    <path d="M-18.2 6.1 Q-18.8 6.0 -19.15 5.55 L-19.4 4.55 Q-19.35 4.0 -18.9 3.6 -18.45 3.25 -17.85 3.3 L-16.95 3.8 Q-16.6 4.25 -16.65 4.85 -16.7 5.4 -17.15 5.75 -17.6 6.15 -18.2 6.1" fill="#c6c6c6" fill-opacity="0.2" fill-rule="evenodd" stroke="none"/>
    <path d="M-16.1 10.6 L-17.15 10.05 Q-17.55 9.55 -17.5 8.85 -17.45 8.2 -16.9 7.8 -16.4 7.4 -15.75 7.45 -15.1 7.55 -14.7 8.05 -14.3 8.55 -14.35 9.2 -14.4 9.9 -14.9 10.3 -15.45 10.7 -16.1 10.6" fill="#c6c6c6" fill-opacity="0.2" fill-rule="evenodd" stroke="none"/>
    <path d="M-2.75 -12.45 Q-2.75 -12.05 -3.1 -11.8 L-3.85 -11.65 Q-4.25 -11.65 -4.5 -12.0 L-4.65 -12.75 -4.25 -13.35 -3.55 -13.55 -2.9 -13.2 Q-2.65 -12.85 -2.75 -12.45" fill="#c6c6c6" fill-opacity="0.2" fill-rule="evenodd" stroke="none"/>
    <path d="M0.45 -17.2 Q0.4 -16.6 -0.1 -16.25 -0.55 -15.9 -1.15 -15.95 L-2.1 -16.55 Q-2.4 -17.0 -2.3 -17.5 L-1.75 -18.5 -0.7 -18.75 Q-0.1 -18.7 0.2 -18.25 L0.45 -17.2" fill="#c6c6c6" fill-opacity="0.2" fill-rule="evenodd" stroke="none"/>
    <path d="M17.15 -6.0 Q16.35 -6.2 15.7 -6.95 15.1 -7.7 15.05 -8.55 15.0 -9.35 15.5 -9.8 L16.9 -10.05 Q17.7 -9.8 18.3 -9.05 18.95 -8.3 19.0 -7.5 19.05 -6.6 18.5 -6.2 18.0 -5.75 17.15 -6.0" fill="#c6c6c6" fill-opacity="0.2" fill-rule="evenodd" stroke="none"/>
    <path d="M14.5 12.85 L13.8 12.8 13.3 12.2 Q13.2 11.85 13.4 11.5 13.6 11.15 13.95 11.05 L14.7 11.2 15.15 11.7 15.1 12.45 14.5 12.85" fill="#c6c6c6" fill-opacity="0.2" fill-rule="evenodd" stroke="none"/>
    <path d="M7.7 15.0 Q7.2 14.95 6.9 14.6 6.6 14.25 6.7 13.75 6.75 13.25 7.15 12.95 7.55 12.65 8.0 12.7 8.5 12.75 8.8 13.1 9.1 13.45 9.0 13.95 L8.55 14.7 7.7 15.0" fill="#c6c6c6" fill-opacity="0.2" fill-rule="evenodd" stroke="none"/>
    <path d="M0.9 15.65 L0.3 15.3 0.15 14.7 0.45 14.1 1.05 13.95 1.6 14.25 1.8 14.9 1.5 15.4 0.9 15.65" fill="#c6c6c6" fill-opacity="0.2" fill-rule="evenodd" stroke="none"/>
    <path d="M-15.25 14.1 Q-15.75 14.05 -16.05 13.7 L-16.3 12.85 Q-16.25 12.4 -15.9 12.1 L-15.05 11.85 Q-14.55 11.85 -14.25 12.25 -13.95 12.6 -14.0 13.1 -14.05 13.6 -14.45 13.9 L-15.25 14.1" fill="#c6c6c6" fill-opacity="0.2" fill-rule="evenodd" stroke="none"/>
    <path d="M-4.25 17.75 L-5.2 17.25 Q-5.55 16.8 -5.5 16.2 -5.45 15.65 -5.0 15.25 L-3.95 14.95 Q-3.35 15.05 -3.0 15.5 -2.65 15.95 -2.7 16.5 -2.75 17.1 -3.2 17.45 -3.65 17.85 -4.25 17.75" fill="#c6c6c6" fill-opacity="0.2" fill-rule="evenodd" stroke="none"/>
    <path d="M-11.7 0.45 Q-12.2 0.45 -12.55 0.0 -12.9 -0.4 -12.85 -0.95 -12.8 -1.45 -12.4 -1.8 -12.0 -2.1 -11.45 -2.05 -10.9 -2.0 -10.55 -1.6 -10.2 -1.15 -10.3 -0.65 -10.35 -0.05 -10.75 0.25 L-11.7 0.45" fill="#c6c6c6" fill-opacity="0.2" fill-rule="evenodd" stroke="none"/>
    <path d="M-9.3 18.6 Q-9.95 18.55 -10.35 18.05 L-10.7 16.85 Q-10.65 16.2 -10.1 15.8 -9.6 15.4 -8.95 15.45 -8.3 15.5 -7.9 16.05 -7.5 16.55 -7.55 17.2 -7.6 17.85 -8.1 18.25 L-9.3 18.6" fill="#c6c6c6" fill-opacity="0.2" fill-rule="evenodd" stroke="none"/>
    <path d="M-20.15 10.05 L-21.05 9.55 -21.4 8.5 Q-21.35 7.95 -20.9 7.6 -20.45 7.2 -19.9 7.25 L-18.95 7.85 Q-18.6 8.3 -18.65 8.8 -18.7 9.35 -19.15 9.75 -19.6 10.1 -20.15 10.05" fill="#c6c6c6" fill-opacity="0.2" fill-rule="evenodd" stroke="none"/>
    <path d="M-19.25 -5.95 Q-19.7 -6.0 -19.95 -6.3 L-20.15 -7.05 -19.8 -7.75 -19.1 -7.9 -18.45 -7.55 Q-18.2 -7.25 -18.2 -6.8 -18.2 -6.45 -18.55 -6.2 -18.85 -5.95 -19.25 -5.95" fill="#c6c6c6" fill-opacity="0.2" fill-rule="evenodd" stroke="none"/>
    <path d="M-1.75 -20.35 L-2.15 -19.75 -2.9 -19.5 -3.5 -19.9 -3.7 -20.6 -3.3 -21.3 -2.55 -21.45 Q-2.15 -21.45 -1.9 -21.1 -1.7 -20.8 -1.75 -20.35" fill="#c6c6c6" fill-opacity="0.2" fill-rule="evenodd" stroke="none"/>
    <path d="M-5.0 21.4 Q-5.65 21.35 -6.05 20.85 -6.45 20.35 -6.35 19.7 -6.35 19.1 -5.85 18.7 -5.35 18.3 -4.75 18.4 -4.15 18.45 -3.75 18.95 -3.35 19.45 -3.4 20.1 -3.45 20.7 -3.95 21.1 -4.45 21.5 -5.0 21.4" fill="#c6c6c6" fill-opacity="0.2" fill-rule="evenodd" stroke="none"/>
    <path d="M18.45 -10.6 L17.85 -10.15 Q17.5 -10.15 17.25 -10.45 L17.05 -11.2 Q17.0 -11.65 17.2 -12.0 17.45 -12.35 17.8 -12.35 L18.4 -12.15 18.7 -11.35 18.45 -10.6" fill="#c6c6c6" fill-opacity="0.2" fill-rule="evenodd" stroke="none"/>
    <path d="M19.2 -5.8 L18.4 -5.3 Q17.95 -5.25 17.65 -5.65 17.35 -6.05 17.35 -6.65 17.35 -7.25 17.65 -7.65 L18.35 -8.15 Q18.85 -8.2 19.2 -7.8 L19.5 -6.85 19.2 -5.8" fill="#c6c6c6" fill-opacity="0.2" fill-rule="evenodd" stroke="none"/>
    <path d="M19.5 8.8 Q19.2 9.25 18.7 9.3 18.25 9.35 17.95 8.95 17.65 8.55 17.65 7.95 17.65 7.35 17.95 6.95 L18.65 6.45 Q19.15 6.4 19.5 6.8 L19.8 7.75 19.5 8.8" fill="#c6c6c6" fill-opacity="0.2" fill-rule="evenodd" stroke="none"/>
    <path d="M8.8 -17.7 L8.0 -17.2 Q7.55 -17.15 7.25 -17.55 6.95 -17.95 6.95 -18.55 6.95 -19.15 7.25 -19.55 7.5 -20.0 7.95 -20.05 8.45 -20.1 8.8 -19.7 L9.1 -18.75 8.8 -17.7" fill="#c6c6c6" fill-opacity="0.2" fill-rule="evenodd" stroke="none"/>
  </g>
</svg>
