<?xml version="1.0" encoding="UTF-8" standalone="no"?>
<svg xmlns:ffdec="https://www.free-decompiler.com/flash" xmlns:xlink="http://www.w3.org/1999/xlink" ffdec:objectType="shape" height="10.8px" width="12.7px" xmlns="http://www.w3.org/2000/svg">
  <g transform="matrix(1.0, 0.0, 0.0, 1.0, 5.65, 5.15)">
    <path d="M7.05 3.4 Q3.8 1.15 2.6 2.45 1.4 3.75 1.7 5.65 1.05 3.8 0.5 3.5 -0.1 3.2 -1.5 5.45 -1.15 2.6 -1.7 1.85 -2.15 1.1 -5.35 1.5 -3.9 0.9 -3.55 -0.1 -3.15 -1.05 -5.65 -2.2 L-1.9 -2.4 Q-1.35 -3.05 -2.65 -5.0 -1.2 -3.45 -0.55 -3.45 0.2 -3.35 0.85 -5.15 1.2 -1.8 3.8 -4.0 2.95 -0.9 5.5 -1.2 3.9 -0.4 3.9 0.25 3.9 0.9 7.05 3.4" fill="#fce225" fill-opacity="0.47058824" fill-rule="evenodd" stroke="none"/>
    <path d="M5.85 2.9 Q3.2 1.05 2.2 2.1 1.2 3.2 1.5 4.8 0.9 3.2 0.5 3.0 0.05 2.75 -1.1 4.6 -0.85 2.25 -1.3 1.6 -1.7 1.0 -4.3 1.35 -3.15 0.85 -2.8 0.05 -2.5 -0.7 -4.6 -1.65 L-1.45 -1.85 Q-1.05 -2.4 -2.1 -4.0 -0.9 -2.75 -0.35 -2.7 0.2 -2.65 0.8 -4.1 1.05 -1.4 2.8 -2.7 2.5 -0.6 4.6 -0.9 3.3 -0.2 3.25 0.3 3.25 0.8 5.85 2.9" fill="#f5a226" fill-rule="evenodd" stroke="none"/>
    <path d="M3.5 1.8 Q2.0 0.75 1.5 1.35 0.95 1.95 1.1 2.8 L0.55 1.85 Q0.3 1.75 -0.35 2.75 -0.2 1.45 -0.45 1.1 L-2.1 0.9 Q-1.4 0.65 -1.25 0.25 -1.1 -0.2 -2.25 -0.7 L-0.55 -0.8 Q-0.25 -1.1 -0.9 -1.95 L0.1 -1.25 0.7 -2.05 Q0.85 -0.55 1.8 -1.3 1.65 -0.1 2.8 -0.3 L2.05 0.4 3.5 1.8" fill="#db0000" fill-rule="evenodd" stroke="none"/>
  </g>
</svg>
