<?xml version="1.0" encoding="UTF-8" standalone="no"?>
<svg xmlns:ffdec="https://www.free-decompiler.com/flash" xmlns:xlink="http://www.w3.org/1999/xlink" ffdec:objectType="shape" height="16.6px" width="19.7px" xmlns="http://www.w3.org/2000/svg">
  <g transform="matrix(1.0, 0.0, 0.0, 1.0, 9.1, 8.1)">
    <path d="M10.6 5.1 Q5.5 1.55 3.65 3.55 1.75 5.55 2.3 8.5 1.25 5.65 0.4 5.2 -0.45 4.8 -2.6 8.25 -2.15 3.8 -2.9 2.65 -3.65 1.45 -8.55 2.1 -6.35 1.15 -5.8 -0.3 -5.25 -1.8 -9.1 -3.55 -4.1 -2.95 -3.25 -3.9 -2.4 -4.9 -4.4 -7.95 -2.15 -5.5 -1.1 -5.45 -0.05 -5.4 0.95 -8.1 1.55 -3.05 5.5 -6.4 4.2 -1.55 8.15 -2.1 5.75 -0.8 5.7 0.2 5.7 1.1 10.6 5.1" fill="#fce225" fill-opacity="0.47058824" fill-rule="evenodd" stroke="none"/>
    <path d="M8.8 4.3 Q4.65 1.35 3.1 3.05 1.55 4.65 2.05 7.1 1.2 4.75 0.45 4.4 -0.3 4.0 -2.05 6.9 -1.65 3.25 -2.25 2.25 -2.9 1.35 -6.9 1.85 -5.1 1.05 -4.65 -0.15 -4.2 -1.4 -7.35 -2.8 L-2.55 -3.1 Q-1.85 -3.9 -3.5 -6.4 -1.65 -4.45 -0.8 -4.35 0.05 -4.35 0.9 -6.55 1.4 -2.4 4.05 -4.4 3.6 -1.2 6.8 -1.6 4.8 -0.55 4.8 0.25 4.8 1.05 8.8 4.3" fill="#f5a226" fill-rule="evenodd" stroke="none"/>
    <path d="M1.9 1.55 Q1.0 2.5 1.45 4.2 0.95 2.9 0.55 2.65 0.15 2.45 -0.9 4.1 -0.05 1.95 -1.05 1.25 L-3.45 1.2 Q-2.55 0.7 -2.3 -0.15 -1.95 -1.1 -4.3 -1.65 L-1.15 -1.55 Q-0.8 -2.0 -1.9 -3.65 -0.65 -2.25 -0.2 -2.3 0.3 -2.2 0.75 -3.5 1.0 -1.15 2.9 -2.75 1.6 -0.6 4.1 -0.7 2.8 -0.35 2.85 0.2 2.85 0.65 4.9 2.35 2.65 0.7 1.9 1.55" fill="#db0000" fill-rule="evenodd" stroke="none"/>
  </g>
</svg>
