<?xml version="1.0" encoding="UTF-8" standalone="no"?>
<svg xmlns:ffdec="https://www.free-decompiler.com/flash" xmlns:xlink="http://www.w3.org/1999/xlink" ffdec:objectType="shape" height="27.75px" width="32.8px" xmlns="http://www.w3.org/2000/svg">
  <g transform="matrix(1.0, 0.0, 0.0, 1.0, 15.6, 13.85)">
    <path d="M17.2 8.15 Q8.75 2.25 5.65 5.65 2.55 8.95 3.45 13.9 1.65 9.15 0.2 8.4 -1.25 7.65 -4.8 13.4 -4.0 6.05 -5.3 4.15 -6.55 2.15 -14.7 3.2 -11.05 1.65 -10.1 -0.85 -9.2 -3.3 -15.6 -6.2 -7.25 -5.25 -5.9 -6.85 -4.45 -8.45 -7.8 -13.55 -4.1 -9.55 -2.35 -9.4 -0.55 -9.3 1.15 -13.85 2.1 -5.4 8.75 -10.95 6.55 -2.95 13.1 -3.8 9.05 -1.7 9.05 -0.05 9.0 1.6 17.2 8.15" fill="#fce225" fill-opacity="0.47058824" fill-rule="evenodd" stroke="none"/>
    <path d="M5.45 4.4 Q2.3 7.4 2.85 10.7 1.3 7.2 0.15 6.7 -0.9 6.1 -3.8 10.7 -3.15 4.95 -4.75 2.95 -6.25 1.1 -11.05 2.0 -8.45 1.3 -7.75 -0.35 -7.05 -2.25 -10.95 -4.5 L-4.35 -4.75 Q-3.1 -6.2 -4.45 -9.3 -2.9 -7.2 -1.6 -7.1 -0.15 -7.1 1.05 -11.2 1.85 -3.3 7.2 -8.55 4.6 -3.25 10.55 -3.0 7.3 -1.3 7.25 -0.05 7.3 0.95 11.6 4.35 7.75 2.1 5.45 4.4" fill="#f5a226" fill-rule="evenodd" stroke="none"/>
    <path d="M2.85 2.25 Q1.85 3.8 2.4 6.4 1.15 4.2 0.5 3.9 -0.1 3.55 -1.7 6.05 -1.2 3.4 -2.3 2.2 -3.4 0.95 -6.5 1.05 -4.3 0.75 -3.85 -0.5 -3.35 -2.0 -6.95 -2.85 L-2.15 -2.7 Q-1.6 -3.35 -3.2 -5.95 L-0.55 -3.9 Q0.15 -3.75 0.85 -5.7 1.3 -2.0 5.2 -5.9 2.15 -1.25 6.8 -1.5 4.1 -0.8 4.15 0.0 4.15 0.7 7.25 3.4 3.8 0.8 2.85 2.25" fill="#db0000" fill-rule="evenodd" stroke="none"/>
  </g>
</svg>
