<?xml version="1.0" encoding="UTF-8" standalone="no"?>
<svg xmlns:ffdec="https://www.free-decompiler.com/flash" xmlns:xlink="http://www.w3.org/1999/xlink" ffdec:objectType="shape" height="30.05px" width="35.5px" xmlns="http://www.w3.org/2000/svg">
  <g transform="matrix(1.0, 0.0, 0.0, 1.0, 17.0, 15.05)">
    <path d="M18.5 8.8 Q9.35 2.4 6.0 6.1 2.65 9.7 3.65 15.0 1.7 9.85 0.1 9.1 -1.45 8.25 -5.25 14.5 -4.5 6.5 -5.85 4.45 -7.15 2.3 -15.95 3.45 -12.05 1.7 -11.05 -0.95 -10.05 -3.55 -17.0 -6.75 -8.0 -5.7 -6.45 -7.45 -4.9 -9.15 -8.6 -14.7 -4.5 -10.35 -2.65 -10.2 -0.75 -10.1 1.15 -15.05 2.2 -5.85 9.35 -11.85 7.0 -3.2 14.1 -4.15 9.7 -1.85 9.7 -0.1 9.65 1.7 18.5 8.8" fill="#fce225" fill-opacity="0.47058824" fill-rule="evenodd" stroke="none"/>
    <path d="M12.55 -3.6 Q8.7 -1.55 8.65 0.0 8.65 1.15 12.9 4.9 8.95 2.2 5.55 4.75 2.55 6.85 3.05 11.85 2.5 9.4 0.95 8.55 -1.2 7.4 -4.6 12.95 -3.3 5.6 -5.05 3.4 -6.7 1.15 -12.7 2.4 -8.9 1.25 -9.6 -1.8 -10.25 -5.0 -13.5 -5.75 -6.85 -5.15 -5.65 -6.55 -4.3 -8.0 -7.5 -12.95 -3.9 -9.1 -2.25 -8.95 -0.55 -8.9 1.1 -13.3 2.05 -5.1 8.35 -10.45 6.3 -2.8 12.55 -3.6" fill="#f5a226" fill-rule="evenodd" stroke="none"/>
    <path d="M3.3 2.7 Q2.1 4.6 2.75 7.85 1.2 5.05 0.4 4.8 -0.3 4.3 -2.25 7.35 -1.7 4.1 -3.05 2.65 -4.4 1.1 -8.25 1.25 -5.55 0.85 -4.95 -0.7 -4.35 -2.55 -8.85 -3.65 L-2.85 -3.45 Q-2.15 -4.25 -4.2 -7.55 -1.75 -5.2 -0.9 -4.95 0.0 -4.7 0.85 -7.15 1.4 -2.65 6.25 -7.4 2.45 -1.65 8.3 -1.95 4.85 -1.1 4.95 -0.15 4.95 0.8 8.8 4.15 4.55 0.9 3.3 2.7" fill="#db0000" fill-rule="evenodd" stroke="none"/>
  </g>
</svg>
