<?xml version="1.0" encoding="UTF-8" standalone="no"?>
<svg xmlns:ffdec="https://www.free-decompiler.com/flash" xmlns:xlink="http://www.w3.org/1999/xlink" ffdec:objectType="shape" height="31.65px" width="37.4px" xmlns="http://www.w3.org/2000/svg">
  <g transform="matrix(1.0, 0.0, 0.0, 1.0, 17.85, 15.95)">
    <path d="M19.55 9.15 Q9.95 2.45 6.4 6.3 2.85 10.05 3.9 15.7 1.9 10.25 0.2 9.45 -1.4 8.6 -5.45 15.15 -4.6 6.75 -6.1 4.55 -7.5 2.3 -16.8 3.55 -12.6 1.75 -11.6 -1.1 -10.55 -3.85 -17.85 -7.2 -8.35 -6.15 -6.75 -7.95 -5.15 -9.75 -9.0 -15.55 -4.7 -11.0 -2.75 -10.85 -0.7 -10.75 1.25 -15.95 2.35 -6.25 9.85 -12.6 7.45 -3.45 14.95 -4.45 10.3 -2.05 10.25 -0.2 10.25 1.65 19.55 9.15" fill="#f5a226" fill-opacity="0.7294118" fill-rule="evenodd" stroke="none"/>
    <path d="M4.25 3.4 Q2.65 5.8 3.5 10.1 1.5 6.4 0.4 6.05 -0.5 5.4 -3.0 9.4 -2.35 5.15 -4.05 3.25 -5.85 1.2 -10.85 1.4 -7.3 0.9 -6.55 -1.1 -5.8 -3.55 -11.6 -4.95 L-3.8 -4.7 Q-2.9 -5.7 -5.55 -10.0 -2.45 -6.95 -1.2 -6.65 -0.05 -6.35 1.0 -9.5 1.7 -3.65 8.0 -9.85 3.15 -2.4 10.7 -2.75 6.25 -1.55 6.3 -0.35 6.35 0.85 11.45 5.2 5.8 0.95 4.25 3.4" fill="#f55e26" fill-rule="evenodd" stroke="none"/>
  </g>
</svg>
