<?xml version="1.0" encoding="UTF-8" standalone="no"?>
<svg xmlns:ffdec="https://www.free-decompiler.com/flash" xmlns:xlink="http://www.w3.org/1999/xlink" ffdec:objectType="shape" height="41.6px" width="45.5px" xmlns="http://www.w3.org/2000/svg">
  <g transform="matrix(1.0, 0.0, 0.0, 1.0, 23.2, 23.6)">
    <path d="M19.3 -4.75 Q13.6 -1.7 13.35 0.3 13.1 2.3 22.3 10.55 11.35 2.9 7.25 7.35 3.3 11.65 4.4 18.0 2.15 11.85 0.25 10.9 -1.55 9.9 -6.15 17.4 -6.25 10.45 -7.15 6.25 -8.05 2.0 -23.2 7.85 -14.35 2.1 -13.15 -1.15 -11.95 -4.3 -20.3 -8.1 -9.9 -4.9 -7.95 -8.45 -5.95 -12.05 -11.7 -22.0 -5.25 -12.35 -2.1 -11.0 1.1 -9.8 2.6 -23.6 2.75 -7.0 15.05 -18.1 0.85 -1.35 19.3 -4.75" fill="#ffffff" fill-opacity="0.4392157" fill-rule="evenodd" stroke="none"/>
    <path d="M-2.55 -8.2 Q-3.55 -9.15 -3.95 -10.8 -4.35 -12.45 -3.9 -13.85 -3.4 -15.1 -2.35 -15.4 -1.25 -15.65 -0.25 -14.7 0.8 -13.7 1.2 -12.05 1.6 -10.4 1.1 -9.05 0.65 -7.75 -0.45 -7.5 -1.5 -7.2 -2.55 -8.2" fill="#c6c6c6" fill-rule="evenodd" stroke="none"/>
    <path d="M-11.3 -1.45 Q-12.7 -2.0 -13.4 -3.25 -14.1 -4.45 -13.65 -5.6 -13.25 -6.75 -12.0 -7.15 L-9.3 -7.0 Q-7.9 -6.4 -7.25 -5.25 -6.55 -4.05 -6.95 -2.9 -7.4 -1.75 -8.65 -1.35 L-11.3 -1.45" fill="#c6c6c6" fill-rule="evenodd" stroke="none"/>
    <path d="M-10.1 9.4 Q-11.85 9.3 -13.0 7.9 -14.15 6.45 -13.95 4.6 -13.65 2.85 -12.2 1.7 -10.75 0.5 -9.0 0.65 -7.2 0.85 -6.05 2.3 -4.9 3.7 -5.15 5.45 -5.3 7.25 -6.75 8.45 -8.2 9.6 -10.1 9.4" fill="#c6c6c6" fill-rule="evenodd" stroke="none"/>
    <path d="M3.85 -4.2 Q1.95 -4.35 0.9 -5.95 -0.15 -7.55 0.35 -9.65 0.8 -11.65 2.5 -13.05 4.2 -14.4 6.15 -14.35 8.05 -14.15 9.1 -12.55 10.15 -10.95 9.65 -8.9 9.2 -6.8 7.5 -5.45 5.8 -4.05 3.85 -4.2" fill="#c6c6c6" fill-rule="evenodd" stroke="none"/>
    <path d="M6.35 0.65 Q4.85 -0.1 4.35 -1.8 3.8 -3.45 4.6 -5.05 5.45 -6.55 7.1 -7.05 8.75 -7.6 10.3 -6.8 11.8 -5.95 12.35 -4.3 12.85 -2.6 12.05 -1.1 11.25 0.45 9.6 1.0 7.95 1.5 6.35 0.65" fill="#c6c6c6" fill-rule="evenodd" stroke="none"/>
    <path d="M-3.0 13.6 Q-4.2 13.45 -5.0 12.45 -5.8 11.45 -5.75 10.25 -5.6 9.0 -4.65 8.2 -3.65 7.45 -2.45 7.6 -1.15 7.75 -0.35 8.75 0.45 9.75 0.3 10.95 0.2 12.25 -0.8 13.0 -1.75 13.8 -3.0 13.6" fill="#c6c6c6" fill-rule="evenodd" stroke="none"/>
    <path d="M3.2 12.15 Q1.4 12.0 0.15 10.5 -1.05 9.0 -0.9 7.05 -0.65 5.25 0.8 4.1 2.25 2.9 4.05 3.1 5.9 3.4 7.1 4.9 8.35 6.4 8.15 8.2 8.0 10.1 6.55 11.3 5.1 12.45 3.2 12.15" fill="#c6c6c6" fill-rule="evenodd" stroke="none"/>
    <path d="M8.8 6.85 Q7.25 6.55 6.1 5.1 4.95 3.7 4.95 2.05 5.0 0.45 6.15 -0.45 7.25 -1.35 8.8 -1.05 10.35 -0.65 11.5 0.75 12.65 2.2 12.65 3.75 12.65 5.35 11.55 6.25 10.4 7.15 8.8 6.85" fill="#c6c6c6" fill-rule="evenodd" stroke="none"/>
    <path d="M-3.45 -8.45 Q-3.6 -7.25 -4.65 -6.5 -5.65 -5.75 -6.95 -5.9 -8.15 -6.1 -8.85 -7.05 -9.6 -8.05 -9.4 -9.25 -9.15 -10.5 -8.15 -11.25 -7.1 -12.0 -5.9 -11.8 -4.7 -11.65 -3.95 -10.65 -3.25 -9.7 -3.45 -8.45" fill="#c6c6c6" fill-rule="evenodd" stroke="none"/>
    <path d="M-5.35 -0.8 Q-7.15 -0.95 -8.25 -2.35 -9.4 -3.8 -9.2 -5.55 -9.0 -7.35 -7.6 -8.5 -6.2 -9.6 -4.4 -9.4 -2.6 -9.25 -1.45 -7.8 -0.35 -6.4 -0.55 -4.65 -0.75 -2.85 -2.15 -1.75 -3.55 -0.6 -5.35 -0.8" fill="#c6c6c6" fill-rule="evenodd" stroke="none"/>
    <path d="M18.8 -10.15 L19.55 -10.05 20.0 -9.5 19.95 -8.75 19.6 -8.4 19.55 -7.9 19.0 -7.45 18.3 -7.5 17.85 -8.1 Q17.75 -8.4 17.8 -8.65 L17.65 -8.75 17.25 -9.3 17.25 -10.05 17.8 -10.5 18.5 -10.4 18.8 -10.15" fill="#c6c6c6" fill-rule="evenodd" stroke="none"/>
    <path d="M-13.55 8.8 L-14.1 8.5 -14.3 7.85 -14.0 7.3 -13.4 7.1 -12.85 7.45 -12.65 8.05 -12.95 8.6 -13.55 8.8" fill="#c6c6c6" fill-rule="evenodd" stroke="none"/>
    <path d="M-12.7 11.6 Q-13.15 11.55 -13.45 11.2 L-13.7 10.35 -13.3 9.65 Q-12.95 9.35 -12.5 9.4 -12.05 9.45 -11.75 9.85 -11.45 10.2 -11.5 10.65 -11.55 11.1 -11.9 11.4 L-12.7 11.6" fill="#c6c6c6" fill-rule="evenodd" stroke="none"/>
    <path d="M-13.6 -10.55 Q-13.7 -11.0 -13.35 -11.45 L-12.3 -12.0 -11.15 -11.95 Q-10.6 -11.75 -10.5 -11.3 -10.4 -10.85 -10.75 -10.4 -11.15 -10.0 -11.8 -9.85 L-12.95 -9.9 -13.6 -10.55" fill="#d9d9d9" fill-rule="evenodd" stroke="none"/>
    <path d="M-6.1 10.15 Q-7.3 10.0 -8.1 9.0 -8.9 8.0 -8.85 6.8 -8.7 5.55 -7.75 4.75 -6.75 4.0 -5.55 4.15 -4.25 4.3 -3.45 5.3 -2.65 6.3 -2.8 7.5 -2.9 8.8 -3.9 9.55 -4.85 10.35 -6.1 10.15" fill="#c6c6c6" fill-rule="evenodd" stroke="none"/>
    <path d="M-11.3 2.9 Q-12.65 2.2 -12.8 0.95 -12.9 -0.3 -11.7 -1.35 -10.45 -2.3 -8.6 -2.45 -6.75 -2.65 -5.4 -1.9 -4.0 -1.15 -3.9 0.1 -3.75 1.35 -5.0 2.35 -6.2 3.3 -8.05 3.5 -9.9 3.65 -11.3 2.9" fill="#c6c6c6" fill-rule="evenodd" stroke="none"/>
    <path d="M20.1 -10.25 Q19.95 -10.25 19.85 -10.35 L19.75 -10.7 19.85 -11.0 20.2 -11.05 20.5 -10.9 20.55 -10.6 20.4 -10.35 20.1 -10.25" fill="#c6c6c6" fill-rule="evenodd" stroke="none"/>
    <path d="M0.85 -3.4 Q-0.3 -3.55 -1.05 -4.5 -1.8 -5.4 -1.65 -6.55 -1.5 -7.75 -0.55 -8.5 0.35 -9.2 1.5 -9.1 2.65 -8.95 3.4 -8.05 4.15 -7.1 4.0 -5.95 3.9 -4.75 3.0 -4.05 2.05 -3.3 0.85 -3.4" fill="#c6c6c6" fill-rule="evenodd" stroke="none"/>
    <path d="M5.2 2.6 Q4.05 2.45 3.3 1.5 2.55 0.6 2.7 -0.55 2.85 -1.75 3.8 -2.5 4.7 -3.2 5.85 -3.1 7.0 -2.95 7.75 -2.05 8.5 -1.1 8.35 0.05 8.25 1.25 7.35 1.95 6.4 2.7 5.2 2.6" fill="#9c9c9c" fill-rule="evenodd" stroke="none"/>
    <path d="M-1.9 9.6 Q-3.05 9.45 -3.8 8.5 -4.55 7.6 -4.4 6.45 -4.25 5.25 -3.3 4.5 -2.4 3.8 -1.25 3.9 -0.1 4.05 0.65 4.95 1.4 5.9 1.25 7.05 1.15 8.25 0.25 8.95 -0.7 9.7 -1.9 9.6" fill="#c6c6c6" fill-rule="evenodd" stroke="none"/>
    <path d="M-5.05 5.65 Q-6.2 5.5 -6.95 4.55 -7.7 3.65 -7.55 2.5 -7.4 1.3 -6.45 0.55 -5.55 -0.15 -4.4 -0.05 -3.25 0.1 -2.5 1.0 -1.75 1.95 -1.9 3.1 -2.0 4.3 -2.9 5.0 -3.85 5.75 -5.05 5.65" fill="#c6c6c6" fill-rule="evenodd" stroke="none"/>
    <path d="M-7.3 -5.3 L-8.75 -6.25 -11.4 -6.4 Q-12.65 -6.0 -13.05 -4.85 -13.45 -3.7 -12.8 -2.55 L-12.7 -2.3 -13.4 -3.25 Q-14.05 -4.45 -13.6 -5.6 -13.25 -6.75 -12.0 -7.15 L-9.35 -7.0 Q-8.05 -6.5 -7.3 -5.3" fill="#878787" fill-rule="evenodd" stroke="none"/>
    <path d="M-1.45 -7.85 Q-0.3 -6.45 -0.55 -4.6 -0.75 -2.8 -2.15 -1.7 -3.0 -1.0 -4.55 -1.7 -3.6 -1.95 -2.85 -2.6 -1.45 -3.7 -1.25 -5.5 -1.1 -7.05 -1.85 -8.25 L-1.45 -7.85" fill="#878787" fill-rule="evenodd" stroke="none"/>
    <path d="M1.15 -9.35 L0.85 -11.35 Q0.65 -12.75 -0.4 -13.6 -1.45 -14.55 -2.55 -14.1 -3.65 -13.7 -4.1 -12.4 L-4.2 -12.1 -4.0 -13.8 Q-3.5 -15.1 -2.45 -15.35 -1.35 -15.65 -0.35 -14.65 0.8 -13.65 1.15 -12.0 1.45 -10.5 1.15 -9.35" fill="#9c9c9c" fill-rule="evenodd" stroke="none"/>
    <path d="M-3.7 -10.3 Q-4.4 -10.8 -5.35 -10.95 -6.45 -11.15 -7.5 -10.35 -8.55 -9.65 -8.75 -8.45 -8.9 -7.4 -8.45 -6.55 L-8.85 -7.05 Q-9.6 -8.0 -9.4 -9.3 -9.2 -10.5 -8.15 -11.2 -7.15 -12.0 -6.0 -11.8 -4.7 -11.6 -3.95 -10.7 L-3.7 -10.3" fill="#878787" fill-rule="evenodd" stroke="none"/>
    <path d="M-0.65 11.65 Q0.05 11.1 0.3 10.4 L0.25 11.05 Q0.1 12.3 -0.85 13.05 -1.8 13.85 -3.0 13.65 -4.25 13.55 -5.05 12.55 -5.9 11.5 -5.75 10.25 L-5.6 9.5 Q-5.5 10.35 -4.9 11.1 -4.1 12.1 -2.85 12.25 -1.65 12.4 -0.65 11.65" fill="#878787" fill-rule="evenodd" stroke="none"/>
    <path d="M-9.1 3.45 Q-10.35 3.4 -11.3 2.95 -12.65 2.15 -12.85 0.9 -12.95 -0.4 -11.7 -1.3 -10.45 -2.3 -8.65 -2.5 L-7.0 -2.35 -8.0 -2.45 Q-9.85 -2.2 -10.7 -1.2 -11.55 -0.2 -11.45 1.1 -11.3 2.3 -10.6 2.85 L-9.1 3.45" fill="#878787" fill-rule="evenodd" stroke="none"/>
    <path d="M-5.45 -2.9 Q-6.6 -3.0 -7.35 -3.95 -8.1 -4.85 -7.95 -6.05 -7.9 -7.15 -7.05 -7.85 -6.15 -8.6 -4.95 -8.45 -3.85 -8.3 -3.1 -7.4 -2.35 -6.45 -2.45 -5.3 -2.55 -4.15 -3.45 -3.4 -4.3 -2.7 -5.45 -2.9" fill="#d9d9d9" fill-rule="evenodd" stroke="none"/>
    <path d="M8.6 -8.1 Q9.15 -10.1 8.1 -11.65 7.05 -13.25 5.05 -13.4 3.45 -13.55 2.05 -12.6 L2.5 -13.0 Q4.25 -14.4 6.1 -14.25 8.05 -14.05 9.1 -12.45 10.15 -10.9 9.65 -8.9 9.15 -6.75 7.45 -5.35 L6.9 -4.95 Q8.2 -6.2 8.6 -8.1" fill="#9c9c9c" fill-rule="evenodd" stroke="none"/>
    <path d="M-4.8 -6.95 Q-5.6 -7.05 -6.1 -7.7 -6.65 -8.35 -6.55 -9.15 -6.55 -9.95 -5.9 -10.45 -5.3 -10.95 -4.45 -10.85 -3.65 -10.75 -3.1 -10.1 -2.6 -9.45 -2.7 -8.65 -2.75 -7.85 -3.35 -7.35 -4.0 -6.85 -4.8 -6.95" fill="#d9d9d9" fill-rule="evenodd" stroke="none"/>
    <path d="M-0.25 -8.3 Q-0.8 -8.95 -0.7 -9.75 -0.7 -10.55 -0.05 -11.05 0.55 -11.55 1.4 -11.45 2.2 -11.35 2.75 -10.7 3.25 -10.05 3.15 -9.25 3.1 -8.45 2.5 -7.95 1.85 -7.45 1.05 -7.55 0.25 -7.65 -0.25 -8.3" fill="#d9d9d9" fill-rule="evenodd" stroke="none"/>
    <path d="M2.9 -4.0 Q2.0 -3.25 0.85 -3.4 -0.35 -3.55 -1.1 -4.45 L-1.25 -4.65 -0.5 -5.25 Q0.15 -4.75 1.0 -4.65 2.15 -4.55 3.05 -5.25 3.7 -5.8 3.95 -6.5 L4.0 -5.9 Q3.85 -4.75 2.9 -4.0" fill="#9c9c9c" fill-rule="evenodd" stroke="none"/>
    <path d="M-10.8 -10.45 Q-11.1 -10.0 -11.8 -9.9 L-12.95 -9.95 Q-13.45 -10.05 -13.5 -10.55 L-13.55 -10.6 -13.5 -10.65 -12.15 -10.25 Q-11.45 -10.25 -11.15 -10.85 L-11.0 -11.9 Q-10.55 -11.7 -10.45 -11.3 -10.4 -10.8 -10.8 -10.45" fill="#878787" fill-rule="evenodd" stroke="none"/>
    <path d="M-12.5 9.4 Q-12.0 9.45 -11.7 9.8 -11.4 10.15 -11.5 10.65 -11.55 11.05 -11.9 11.35 L-12.15 11.55 -11.9 10.95 Q-11.85 10.5 -12.15 10.15 -12.45 9.8 -12.9 9.7 L-13.5 9.85 -13.3 9.6 -12.5 9.4" fill="#878787" fill-rule="evenodd" stroke="none"/>
    <path d="M4.6 -7.85 Q3.5 -8.0 2.85 -8.8 2.2 -9.65 2.35 -10.65 2.4 -11.65 3.15 -12.3 3.95 -12.9 5.0 -12.8 6.0 -12.65 6.65 -11.8 7.3 -11.0 7.25 -10.0 7.15 -8.95 6.35 -8.35 5.6 -7.7 4.6 -7.85" fill="#d9d9d9" fill-rule="evenodd" stroke="none"/>
    <path d="M9.3 -6.9 L8.35 -7.25 10.35 -6.8 Q11.85 -6.0 12.35 -4.3 12.8 -2.6 12.05 -1.1 11.25 0.45 9.6 1.0 L7.45 1.05 8.6 0.85 Q10.25 0.35 11.05 -1.2 11.8 -2.75 11.3 -4.4 10.85 -6.1 9.3 -6.9" fill="#9c9c9c" fill-rule="evenodd" stroke="none"/>
    <path d="M1.15 7.55 Q1.05 6.7 0.5 6.0 -0.25 5.05 -1.45 4.95 -2.6 4.85 -3.5 5.6 -4.2 6.15 -4.45 6.95 L-4.45 6.35 Q-4.35 5.25 -3.4 4.5 -2.5 3.75 -1.3 3.85 -0.15 4.0 0.6 4.95 1.35 5.85 1.2 7.0 L1.15 7.55" fill="#878787" fill-rule="evenodd" stroke="none"/>
    <path d="M-1.4 10.15 Q-2.35 10.05 -2.95 9.3 -3.55 8.55 -3.45 7.65 -3.35 6.7 -2.65 6.15 -1.95 5.6 -1.0 5.7 -0.15 5.85 0.45 6.6 1.05 7.35 1.05 8.2 0.9 9.15 0.2 9.7 -0.5 10.25 -1.4 10.15" fill="#d9d9d9" fill-rule="evenodd" stroke="none"/>
    <path d="M-4.15 8.6 Q-4.85 8.55 -5.3 8.0 -5.7 7.5 -5.6 6.8 -5.55 6.15 -5.05 5.75 -4.55 5.35 -3.9 5.4 -3.25 5.5 -2.85 6.0 -2.4 6.55 -2.45 7.2 -2.5 7.9 -3.0 8.3 -3.5 8.7 -4.15 8.6" fill="#d9d9d9" fill-rule="evenodd" stroke="none"/>
    <path d="M-7.6 3.0 Q-8.75 2.9 -9.5 1.95 -10.25 1.05 -10.1 -0.15 -10.05 -1.25 -9.2 -1.95 -8.3 -2.7 -7.1 -2.55 -6.0 -2.4 -5.25 -1.5 -4.5 -0.55 -4.6 0.6 -4.7 1.75 -5.6 2.5 -6.45 3.2 -7.6 3.0" fill="#d9d9d9" fill-rule="evenodd" stroke="none"/>
    <path d="M-5.15 4.05 Q-5.95 3.9 -6.5 3.3 -7.0 2.65 -6.9 1.85 -6.9 1.05 -6.25 0.55 -5.65 0.05 -4.8 0.15 -4.05 0.25 -3.55 0.9 -3.0 1.5 -3.05 2.35 -3.15 3.15 -3.75 3.65 -4.4 4.15 -5.15 4.05" fill="#d9d9d9" fill-rule="evenodd" stroke="none"/>
    <path d="M-7.55 6.0 Q-8.35 5.85 -8.9 5.25 -9.4 4.6 -9.3 3.8 -9.3 3.0 -8.65 2.5 -8.05 2.0 -7.2 2.1 -6.45 2.2 -5.95 2.85 -5.4 3.45 -5.45 4.3 -5.55 5.1 -6.15 5.6 -6.8 6.1 -7.55 6.0" fill="#d9d9d9" fill-rule="evenodd" stroke="none"/>
    <path d="M-6.8 8.5 Q-8.2 9.65 -10.0 9.45 -11.85 9.3 -13.0 7.85 -14.1 6.45 -13.85 4.65 -13.65 2.9 -12.25 1.75 L-11.95 1.5 Q-13.1 2.55 -13.25 4.15 -13.5 6.0 -12.4 7.4 -11.25 8.85 -9.4 8.95 -7.75 9.15 -6.5 8.25 L-6.8 8.5" fill="#878787" fill-rule="evenodd" stroke="none"/>
    <path d="M4.15 1.4 Q5.15 2.3 5.9 2.6 L5.15 2.55 Q4.0 2.45 3.25 1.5 2.55 0.6 2.6 -0.6 2.75 -1.75 3.7 -2.5 L4.0 -2.65 3.35 -0.9 Q3.1 0.4 4.15 1.4" fill="#878787" fill-rule="evenodd" stroke="none"/>
    <path d="M4.45 0.7 Q3.75 -0.15 3.7 -1.1 3.6 -2.1 4.25 -2.6 L5.8 -2.8 Q6.7 -2.55 7.4 -1.7 8.1 -0.8 8.2 0.15 8.25 1.1 7.65 1.6 L6.1 1.85 Q5.15 1.6 4.45 0.7" fill="#c6c6c6" fill-rule="evenodd" stroke="none"/>
    <path d="M7.75 -0.3 Q7.1 -0.45 6.65 -1.05 6.15 -1.65 6.15 -2.3 6.1 -2.9 6.5 -3.25 L7.6 -3.4 8.65 -2.65 9.2 -1.4 Q9.2 -0.8 8.75 -0.45 8.35 -0.1 7.75 -0.3" fill="#c6c6c6" fill-rule="evenodd" stroke="none"/>
    <path d="M7.1 4.95 Q8.3 6.4 8.1 8.2 7.95 10.1 6.45 11.3 5.05 12.45 3.15 12.15 1.35 12.0 0.15 10.55 L-0.15 10.15 Q1.0 11.25 2.55 11.4 4.45 11.65 5.85 10.5 7.35 9.3 7.5 7.45 7.7 5.85 6.75 4.55 L7.1 4.95" fill="#9c9c9c" fill-rule="evenodd" stroke="none"/>
  </g>
</svg>
