<?xml version="1.0" encoding="UTF-8" standalone="no"?>
<svg xmlns:ffdec="https://www.free-decompiler.com/flash" xmlns:xlink="http://www.w3.org/1999/xlink" ffdec:objectType="shape" height="53.25px" width="50.65px" xmlns="http://www.w3.org/2000/svg">
  <g transform="matrix(1.0, 0.0, 0.0, 1.0, 26.6, 29.1)">
    <path d="M2.05 -2.2 L1.7 -2.65 1.45 -2.7 1.15 -2.45 Q0.2 -1.65 -1.05 -1.75 -2.05 -1.9 -2.75 -2.45 L-2.85 -2.1 -2.9 -1.65 Q-3.15 -0.4 -4.3 0.3 -5.05 0.75 -5.8 0.8 L-6.4 1.0 -6.15 1.85 -6.1 1.85 Q-5.0 2.0 -4.35 2.95 -3.75 3.9 -4.0 4.95 L-4.1 5.5 -4.25 6.0 -3.35 6.0 -3.25 6.05 -2.15 6.2 -1.5 6.55 -1.2 6.2 Q0.2 5.1 1.9 5.2 2.4 4.8 3.15 4.85 L3.35 4.85 3.3 4.55 2.35 4.2 1.9 3.8 1.7 3.7 1.5 3.45 Q0.7 2.45 0.85 1.2 1.0 -0.1 1.95 -0.85 L2.3 -1.1 2.3 -1.95 2.05 -2.2 M8.55 -8.1 Q8.45 -6.9 7.8 -5.95 L8.95 -5.65 Q10.55 -4.95 11.0 -3.45 11.5 -1.95 10.5 -0.6 9.85 0.55 8.65 1.15 L10.2 2.55 10.35 2.7 10.65 3.0 Q11.7 4.3 11.5 5.95 L11.45 6.4 Q11.25 7.35 10.65 8.1 L10.0 8.7 9.2 9.0 7.4 9.1 6.55 8.8 6.65 10.65 Q6.5 12.65 4.95 13.9 3.35 15.15 1.4 14.9 -0.4 14.7 -1.65 13.25 L-1.7 13.6 Q-1.75 14.95 -2.8 15.8 -3.85 16.65 -5.2 16.4 -6.5 16.3 -7.35 15.2 -8.2 14.15 -8.1 12.8 L-8.9 12.75 Q-10.15 12.6 -10.85 11.65 -11.55 10.8 -11.45 9.75 -12.3 10.15 -13.1 10.15 -14.8 10.3 -15.65 9.3 -16.45 8.25 -15.95 6.6 -15.55 5.5 -14.65 4.55 -15.55 3.85 -15.65 2.8 -15.8 1.8 -15.05 1.05 L-14.55 0.35 -14.25 0.25 -15.8 -0.9 -15.65 -0.7 -15.5 -0.5 -16.4 -1.3 Q-17.3 -2.3 -17.0 -3.65 -16.75 -4.85 -15.55 -5.45 L-15.4 -5.55 -14.85 -5.8 -14.45 -5.9 -14.3 -5.95 -13.75 -5.95 -13.25 -5.95 -12.95 -5.9 -12.7 -5.85 -11.65 -5.45 -11.55 -5.4 -11.45 -5.6 -11.5 -5.7 Q-12.3 -6.7 -12.15 -8.0 L-12.1 -8.05 Q-11.85 -9.35 -10.75 -10.15 L-10.75 -10.2 Q-9.7 -11.0 -8.4 -10.75 L-7.55 -10.5 Q-6.8 -10.25 -6.3 -9.6 L-6.45 -10.75 Q-6.95 -11.5 -6.85 -12.5 -6.65 -13.55 -5.75 -14.2 -4.85 -14.9 -3.85 -14.65 -2.7 -14.5 -2.05 -13.65 L-1.8 -13.25 -1.9 -13.35 Q-1.15 -12.35 -0.75 -10.9 L-0.7 -10.6 0.7 -12.05 1.1 -12.35 1.4 -12.65 Q3.0 -13.9 4.8 -13.65 6.65 -13.4 7.85 -11.7 8.95 -10.05 8.55 -8.1" fill="#120d00" fill-opacity="0.3019608" fill-rule="evenodd" stroke="none"/>
    <path d="M22.8 -6.55 Q13.6 -1.7 13.35 0.3 13.1 2.3 22.3 10.55 13.95 4.5 8.65 8.1 3.3 11.65 8.15 24.15 3.35 15.0 0.9 12.45 -1.55 9.9 -9.1 20.7 -6.9 13.0 -7.45 7.5 -8.05 2.0 -26.6 10.6 -14.35 2.1 -13.15 -1.15 -11.95 -4.3 -23.35 -10.25 -11.7 -7.1 -9.05 -9.85 -6.45 -12.65 -9.05 -17.25 L-11.7 -22.0 -8.75 -17.8 Q-5.85 -13.75 -2.75 -12.6 0.35 -11.5 2.85 -29.1 2.75 -7.0 18.75 -19.95 -0.3 -3.55 22.8 -6.55" fill="#ffffff" fill-opacity="0.4392157" fill-rule="evenodd" stroke="none"/>
    <path d="M-2.9 -9.3 Q-4.1 -10.4 -4.6 -12.35 -5.05 -14.3 -4.5 -15.85 -3.95 -17.35 -2.7 -17.65 -1.45 -17.95 -0.25 -16.9 1.0 -15.75 1.45 -13.8 1.95 -11.85 1.35 -10.35 0.75 -8.75 -0.5 -8.45 -1.75 -8.15 -2.9 -9.3" fill="#c6c6c6" fill-rule="evenodd" stroke="none"/>
    <path d="M-9.95 -1.4 L-13.05 -1.55 Q-14.65 -2.25 -15.45 -3.65 -16.2 -5.0 -15.75 -6.35 -15.25 -7.7 -13.8 -8.2 L-10.7 -7.95 Q-9.05 -7.3 -8.3 -5.95 -7.5 -4.55 -8.0 -3.2 -8.45 -1.85 -9.95 -1.4" fill="#c6c6c6" fill-rule="evenodd" stroke="none"/>
    <path d="M-11.95 9.2 Q-13.8 9.4 -14.7 8.25 -15.6 7.1 -15.05 5.35 -14.5 3.65 -12.85 2.3 -11.15 0.95 -9.3 0.75 -7.5 0.6 -6.6 1.75 -5.7 2.9 -6.2 4.6 -6.75 6.35 -8.45 7.7 -10.1 9.05 -11.95 9.2" fill="#c6c6c6" fill-rule="evenodd" stroke="none"/>
    <path d="M4.55 -4.75 Q2.4 -4.95 1.2 -6.8 -0.05 -8.65 0.45 -11.05 1.0 -13.45 3.0 -15.05 5.0 -16.6 7.25 -16.5 9.45 -16.3 10.7 -14.45 11.9 -12.6 11.35 -10.2 10.85 -7.75 8.85 -6.2 6.85 -4.6 4.55 -4.75" fill="#c6c6c6" fill-rule="evenodd" stroke="none"/>
    <path d="M4.95 -2.75 Q4.45 -4.4 5.45 -5.95 6.45 -7.5 8.4 -8.1 L12.05 -8.0 Q13.75 -7.3 14.25 -5.65 14.75 -4.0 13.75 -2.45 12.8 -0.9 10.85 -0.3 L7.15 -0.4 Q5.45 -1.1 4.95 -2.75" fill="#c6c6c6" fill-rule="evenodd" stroke="none"/>
    <path d="M-3.4 16.05 Q-4.8 15.9 -5.75 14.75 -6.7 13.6 -6.55 12.1 -6.4 10.65 -5.25 9.75 -4.15 8.85 -2.7 9.05 -1.25 9.25 -0.3 10.4 0.65 11.55 0.45 13.0 0.35 14.45 -0.75 15.35 -1.9 16.25 -3.4 16.05" fill="#c6c6c6" fill-rule="evenodd" stroke="none"/>
    <path d="M3.8 14.3 Q1.65 14.05 0.25 12.3 -1.15 10.6 -0.95 8.4 -0.7 6.25 0.95 4.9 2.65 3.55 4.8 3.8 6.95 4.1 8.35 5.8 9.75 7.55 9.55 9.7 9.35 11.9 7.65 13.25 6.0 14.6 3.8 14.3" fill="#c6c6c6" fill-rule="evenodd" stroke="none"/>
    <path d="M10.35 8.0 Q8.5 7.65 7.15 5.95 5.85 4.35 5.85 2.4 5.95 0.6 7.25 -0.45 8.55 -1.5 10.35 -1.2 12.15 -0.7 13.45 0.9 14.8 2.6 14.85 4.4 14.8 6.3 13.5 7.35 12.2 8.4 10.35 8.0" fill="#c6c6c6" fill-rule="evenodd" stroke="none"/>
    <path d="M-3.9 -9.7 Q-4.15 -8.25 -5.3 -7.4 -6.5 -6.5 -7.95 -6.7 -9.35 -6.9 -10.2 -8.0 -11.05 -9.15 -10.85 -10.55 -10.6 -12.0 -9.4 -12.9 -8.25 -13.75 -6.8 -13.55 -5.35 -13.4 -4.5 -12.25 -3.65 -11.15 -3.9 -9.7" fill="#c6c6c6" fill-rule="evenodd" stroke="none"/>
    <path d="M-6.15 -0.8 Q-8.25 -1.0 -9.55 -2.6 -10.85 -4.25 -10.65 -6.35 -10.4 -8.45 -8.75 -9.75 -7.1 -11.05 -5.05 -10.85 -2.95 -10.65 -1.65 -9.0 -0.35 -7.4 -0.55 -5.3 -0.75 -3.2 -2.4 -1.9 -4.05 -0.6 -6.15 -0.8" fill="#c6c6c6" fill-rule="evenodd" stroke="none"/>
    <path d="M21.9 -11.55 L22.75 -11.5 23.25 -10.85 23.2 -9.95 22.8 -9.55 22.7 -9.0 Q22.5 -8.55 22.1 -8.45 L21.25 -8.5 Q20.9 -8.75 20.8 -9.15 L20.75 -9.8 20.6 -9.9 20.1 -10.6 Q19.95 -11.05 20.15 -11.45 L20.75 -12.0 21.55 -11.9 21.9 -11.55" fill="#c6c6c6" fill-rule="evenodd" stroke="none"/>
    <path d="M-15.6 10.45 Q-16.05 10.35 -16.3 10.05 L-16.5 9.35 -16.15 8.7 Q-15.85 8.45 -15.45 8.5 -15.05 8.5 -14.8 8.85 -14.55 9.15 -14.55 9.6 L-14.95 10.2 -15.6 10.45" fill="#c6c6c6" fill-rule="evenodd" stroke="none"/>
    <path d="M-14.55 13.65 Q-15.1 13.55 -15.45 13.1 -15.8 12.7 -15.75 12.2 -15.7 11.65 -15.25 11.3 L-14.35 11.05 Q-13.85 11.1 -13.5 11.5 -13.15 11.95 -13.15 12.5 -13.2 13.05 -13.6 13.35 -14.05 13.7 -14.55 13.65" fill="#c6c6c6" fill-rule="evenodd" stroke="none"/>
    <path d="M-14.9 -11.4 Q-15.5 -11.6 -15.6 -12.15 -15.75 -12.65 -15.35 -13.2 L-14.1 -13.85 -12.8 -13.8 Q-12.15 -13.5 -12.0 -13.0 -11.9 -12.45 -12.35 -12.0 -12.75 -11.5 -13.5 -11.35 L-14.9 -11.4" fill="#c6c6c6" fill-rule="evenodd" stroke="none"/>
    <path d="M-7.05 12.0 Q-8.45 11.85 -9.4 10.7 -10.35 9.55 -10.2 8.05 -10.05 6.6 -8.9 5.7 -7.8 4.8 -6.35 5.0 -4.9 5.2 -3.95 6.35 -3.0 7.5 -3.2 8.95 -3.3 10.4 -4.4 11.3 -5.55 12.2 -7.05 12.0" fill="#c6c6c6" fill-rule="evenodd" stroke="none"/>
    <path d="M-14.75 1.15 Q-14.85 -0.3 -13.45 -1.45 -12.05 -2.55 -9.9 -2.75 -7.75 -2.95 -6.15 -2.1 -4.5 -1.25 -4.4 0.2 -4.25 1.65 -5.7 2.8 -7.1 4.0 -9.25 4.2 -11.4 4.4 -13.0 3.45 -14.6 2.6 -14.75 1.15" fill="#c6c6c6" fill-rule="evenodd" stroke="none"/>
    <path d="M23.5 -11.8 L23.15 -11.95 23.05 -12.3 23.2 -12.65 23.6 -12.75 23.9 -12.6 24.05 -12.25 23.8 -11.9 23.5 -11.8" fill="#c6c6c6" fill-rule="evenodd" stroke="none"/>
    <path d="M1.1 -3.8 Q-0.25 -3.95 -1.1 -5.05 -1.95 -6.1 -1.8 -7.45 -1.65 -8.8 -0.6 -9.65 0.5 -10.55 1.85 -10.4 3.2 -10.25 4.05 -9.2 4.9 -8.1 4.75 -6.75 4.65 -5.4 3.55 -4.5 2.5 -3.65 1.1 -3.8" fill="#c6c6c6" fill-rule="evenodd" stroke="none"/>
    <path d="M6.15 3.1 Q4.8 2.95 3.95 1.85 3.1 0.8 3.25 -0.55 3.4 -1.9 4.45 -2.75 5.55 -3.65 6.9 -3.5 8.25 -3.35 9.1 -2.3 9.95 -1.2 9.8 0.15 9.7 1.5 8.6 2.4 7.55 3.25 6.15 3.1" fill="#c6c6c6" fill-rule="evenodd" stroke="none"/>
    <path d="M-2.05 11.25 Q-3.4 11.1 -4.25 10.0 -5.1 8.95 -4.95 7.6 -4.8 6.25 -3.75 5.4 -2.65 4.5 -1.3 4.65 0.05 4.8 0.9 5.85 1.75 6.95 1.6 8.3 1.5 9.65 0.4 10.55 -0.65 11.4 -2.05 11.25" fill="#c6c6c6" fill-rule="evenodd" stroke="none"/>
    <path d="M-5.75 6.7 Q-7.1 6.55 -7.95 5.45 -8.8 4.4 -8.65 3.05 -8.5 1.7 -7.45 0.85 -6.35 -0.05 -5.0 0.1 -3.65 0.25 -2.8 1.3 -1.95 2.4 -2.1 3.75 -2.2 5.1 -3.3 6.0 -4.35 6.85 -5.75 6.7" fill="#c6c6c6" fill-rule="evenodd" stroke="none"/>
    <path d="M-9.3 -7.0 Q-10.05 -7.5 -11.05 -7.65 -12.6 -7.95 -13.9 -7.2 -15.2 -6.45 -15.4 -5.1 -15.65 -3.7 -14.75 -2.6 L-14.6 -2.4 -15.5 -3.25 Q-16.45 -4.35 -16.2 -5.75 -15.95 -7.1 -14.7 -7.85 -13.4 -8.6 -11.8 -8.3 -10.25 -8.05 -9.3 -7.0" fill="#878787" fill-rule="evenodd" stroke="none"/>
    <path d="M13.95 1.4 Q15.1 2.8 14.85 4.65 14.65 6.45 13.25 7.55 12.4 8.25 10.85 7.55 11.8 7.3 12.55 6.65 13.95 5.55 14.15 3.75 14.3 2.2 13.55 1.0 L13.95 1.4" fill="#878787" fill-rule="evenodd" stroke="none"/>
    <path d="M0.35 -16.3 Q-0.35 -16.85 -1.3 -17.0 -2.35 -17.2 -3.35 -16.5 -4.3 -15.8 -4.5 -14.65 -4.6 -13.65 -4.15 -12.8 L-4.55 -13.3 Q-5.3 -14.25 -5.15 -15.5 -4.95 -16.65 -4.0 -17.35 -3.05 -18.05 -1.95 -17.85 -0.65 -17.65 0.1 -16.75 L0.35 -16.3" fill="#878787" fill-rule="evenodd" stroke="none"/>
    <path d="M10.55 -9.85 Q10.95 -12.0 9.75 -13.75 8.55 -15.55 6.45 -15.9 4.7 -16.15 3.3 -15.2 L3.75 -15.65 Q5.5 -17.05 7.5 -16.75 9.55 -16.35 10.75 -14.55 11.95 -12.8 11.6 -10.65 11.25 -8.35 9.55 -6.95 L9.0 -6.55 Q10.25 -7.8 10.55 -9.85" fill="#878787" fill-rule="evenodd" stroke="none"/>
    <path d="M-5.6 -1.7 Q-4.25 -1.4 -2.95 -2.15 -1.7 -2.95 -1.4 -4.3 -1.15 -5.45 -1.7 -6.4 L-1.45 -6.1 Q-0.6 -4.95 -0.9 -3.6 -1.2 -2.25 -2.45 -1.45 -3.75 -0.7 -5.1 -1.05 -6.65 -1.3 -7.45 -2.45 L-7.7 -2.75 Q-6.95 -1.95 -5.6 -1.7" fill="#878787" fill-rule="evenodd" stroke="none"/>
    <path d="M-2.65 4.05 Q-2.4 2.85 -3.1 1.8 -3.75 0.8 -4.95 0.65 -5.9 0.5 -6.7 1.05 L-6.45 0.8 Q-5.5 0.05 -4.35 0.2 -3.2 0.35 -2.5 1.35 -1.85 2.35 -2.05 3.6 -2.25 4.85 -3.25 5.65 L-3.5 5.85 Q-2.8 5.2 -2.65 4.05" fill="#878787" fill-rule="evenodd" stroke="none"/>
    <path d="M6.9 2.5 Q8.0 2.65 8.9 2.1 L8.55 2.4 Q7.5 3.25 6.15 3.1 4.7 2.95 3.85 1.9 3.0 0.85 3.2 -0.55 3.4 -1.9 4.45 -2.75 L4.8 -3.0 Q4.1 -2.2 3.95 -1.15 3.75 0.25 4.6 1.3 5.45 2.35 6.9 2.5" fill="#878787" fill-rule="evenodd" stroke="none"/>
    <path d="M-4.35 -11.85 Q-5.05 -12.6 -6.2 -12.7 -7.6 -12.95 -8.8 -12.05 -9.95 -11.15 -10.25 -9.65 -10.4 -8.5 -9.85 -7.45 L-10.25 -8.0 Q-11.1 -9.15 -10.9 -10.5 -10.65 -12.0 -9.45 -12.9 -8.25 -13.8 -6.85 -13.5 -5.4 -13.4 -4.55 -12.25 L-4.35 -11.85" fill="#878787" fill-rule="evenodd" stroke="none"/>
    <path d="M5.1 -7.75 Q4.65 -7.25 4.55 -6.45 4.4 -5.5 5.05 -4.65 5.65 -3.9 6.65 -3.75 7.5 -3.65 8.2 -4.1 L7.85 -3.75 Q7.05 -3.2 6.1 -3.25 5.1 -3.4 4.5 -4.2 3.85 -5.05 4.0 -6.0 4.05 -7.0 4.85 -7.6 L5.1 -7.75" fill="#878787" fill-rule="evenodd" stroke="none"/>
    <path d="M-8.65 6.45 Q-9.25 7.1 -9.35 8.1 -9.6 9.25 -8.8 10.3 -8.0 11.25 -6.7 11.5 -5.65 11.65 -4.7 11.1 L-5.2 11.5 Q-6.25 12.2 -7.4 12.05 -8.7 11.85 -9.5 10.85 -10.35 9.85 -10.1 8.65 -9.95 7.4 -8.95 6.7 L-8.65 6.45" fill="#878787" fill-rule="evenodd" stroke="none"/>
    <path d="M7.65 13.35 Q5.95 14.65 3.75 14.4 1.6 14.15 0.2 12.4 L-0.2 11.85 Q1.1 13.1 2.9 13.3 5.1 13.55 6.8 12.25 8.5 10.85 8.65 8.7 8.85 6.85 7.9 5.35 L8.35 5.85 Q9.75 7.6 9.5 9.8 9.35 11.95 7.65 13.35" fill="#878787" fill-rule="evenodd" stroke="none"/>
    <path d="M0.0 4.95 Q1.05 5.35 1.45 6.45 1.9 7.45 1.45 8.55 L1.3 8.85 Q1.55 7.95 1.15 7.1 0.8 6.0 -0.25 5.6 L-2.3 5.65 Q-3.2 6.0 -3.65 6.8 L-3.5 6.5 Q-3.05 5.4 -2.0 5.0 L0.0 4.95" fill="#878787" fill-rule="evenodd" stroke="none"/>
    <path d="M-12.2 3.65 L-10.4 4.25 Q-11.85 4.15 -13.05 3.5 -14.65 2.7 -14.75 1.2 -14.9 -0.25 -13.55 -1.4 -12.05 -2.5 -9.95 -2.7 L-7.85 -2.65 -9.1 -2.65 Q-11.25 -2.45 -12.7 -1.35 -14.05 -0.15 -13.9 1.3 -13.8 2.75 -12.2 3.65" fill="#878787" fill-rule="evenodd" stroke="none"/>
    <path d="M6.95 -12.8 Q8.05 -12.6 8.75 -11.75 9.45 -10.85 9.4 -9.75 9.25 -8.6 8.4 -7.9 7.5 -7.2 6.4 -7.3 5.2 -7.45 4.5 -8.35 3.8 -9.2 3.95 -10.35 4.0 -11.5 4.9 -12.2 5.75 -12.9 6.95 -12.8" fill="#d9d9d9" fill-rule="evenodd" stroke="none"/>
    <path d="M5.4 -14.9 Q6.25 -14.75 6.8 -14.1 7.3 -13.45 7.25 -12.6 7.15 -11.7 6.5 -11.15 5.85 -10.65 5.0 -10.75 4.1 -10.85 3.6 -11.5 3.05 -12.15 3.15 -13.05 3.2 -13.95 3.85 -14.45 4.5 -15.0 5.4 -14.9" fill="#d9d9d9" fill-rule="evenodd" stroke="none"/>
    <path d="M-1.55 -16.0 Q-0.7 -15.85 -0.15 -15.2 0.35 -14.55 0.3 -13.7 0.2 -12.8 -0.45 -12.25 -1.1 -11.75 -1.95 -11.85 -2.85 -11.95 -3.35 -12.6 -3.9 -13.25 -3.8 -14.15 -3.75 -15.05 -3.1 -15.55 -2.45 -16.1 -1.55 -16.0" fill="#d9d9d9" fill-rule="evenodd" stroke="none"/>
    <path d="M-5.3 -7.45 Q-4.3 -7.15 -3.55 -6.25 -2.85 -5.35 -2.75 -4.3 -2.7 -3.25 -3.35 -2.7 -4.0 -2.2 -5.0 -2.45 -6.05 -2.75 -6.75 -3.65 -7.5 -4.55 -7.55 -5.6 -7.6 -6.7 -6.95 -7.2 -6.3 -7.75 -5.3 -7.45" fill="#d9d9d9" fill-rule="evenodd" stroke="none"/>
    <path d="M-3.45 -9.45 L-2.0 -8.35 Q-1.4 -7.6 -1.35 -6.8 -1.25 -5.95 -1.75 -5.5 L-3.1 -5.35 Q-3.9 -5.6 -4.5 -6.35 -5.1 -7.1 -5.2 -8.0 -5.3 -8.85 -4.75 -9.25 L-3.45 -9.45" fill="#d9d9d9" fill-rule="evenodd" stroke="none"/>
    <path d="M-9.85 -4.7 Q-9.0 -4.55 -8.45 -3.9 -7.95 -3.25 -8.0 -2.4 -8.1 -1.5 -8.75 -0.95 -9.4 -0.45 -10.25 -0.55 -11.15 -0.65 -11.65 -1.3 -12.2 -1.95 -12.1 -2.85 -12.05 -3.75 -11.4 -4.25 -10.75 -4.8 -9.85 -4.7" fill="#d9d9d9" fill-rule="evenodd" stroke="none"/>
    <path d="M-7.7 -1.9 Q-6.65 -1.75 -6.0 -0.95 -5.35 -0.15 -5.45 0.9 -5.55 1.95 -6.35 2.6 -7.15 3.25 -8.2 3.1 -9.25 3.0 -9.9 2.2 -10.55 1.4 -10.45 0.3 -10.35 -0.7 -9.55 -1.35 -8.75 -2.0 -7.7 -1.9" fill="#d9d9d9" fill-rule="evenodd" stroke="none"/>
    <path d="M-0.8 5.55 Q0.25 5.7 0.9 6.5 1.55 7.3 1.45 8.35 1.35 9.4 0.55 10.05 -0.25 10.7 -1.3 10.55 -2.35 10.45 -3.0 9.65 -3.65 8.85 -3.55 7.75 -3.45 6.75 -2.65 6.1 -1.85 5.45 -0.8 5.55" fill="#d9d9d9" fill-rule="evenodd" stroke="none"/>
    <path d="M-8.4 1.85 Q-7.35 2.0 -6.7 2.8 -6.05 3.6 -6.15 4.65 -6.25 5.7 -7.05 6.35 -7.85 7.0 -8.9 6.85 -9.95 6.75 -10.6 5.95 -11.25 5.15 -11.15 4.05 -11.05 3.05 -10.25 2.4 -9.45 1.75 -8.4 1.85" fill="#d9d9d9" fill-rule="evenodd" stroke="none"/>
    <path d="M7.35 -2.4 Q8.4 -2.25 9.05 -1.45 9.7 -0.65 9.6 0.4 9.5 1.45 8.7 2.1 7.9 2.75 6.85 2.6 5.8 2.5 5.15 1.7 4.5 0.9 4.6 -0.2 4.7 -1.2 5.5 -1.85 6.3 -2.5 7.35 -2.4" fill="#d9d9d9" fill-rule="evenodd" stroke="none"/>
    <path d="M9.0 -4.35 Q9.95 -4.35 10.45 -3.75 10.95 -3.1 10.75 -2.2 10.5 -1.3 9.7 -0.65 8.9 0.0 8.0 0.0 7.05 0.05 6.55 -0.6 6.05 -1.2 6.25 -2.15 6.45 -3.1 7.25 -3.75 8.05 -4.4 9.0 -4.35" fill="#d9d9d9" fill-rule="evenodd" stroke="none"/>
    <path d="M3.7 5.4 Q3.6 4.45 4.2 3.9 4.75 3.35 5.65 3.45 6.65 3.55 7.4 4.3 8.1 5.0 8.15 5.95 8.3 6.9 7.75 7.45 7.15 8.0 6.2 7.9 5.25 7.8 4.55 7.1 3.8 6.35 3.7 5.4" fill="#d9d9d9" fill-rule="evenodd" stroke="none"/>
    <path d="M1.55 6.3 Q1.45 5.35 2.05 4.8 2.6 4.25 3.5 4.35 4.5 4.45 5.25 5.2 5.95 5.9 6.0 6.85 6.15 7.8 5.6 8.35 5.0 8.9 4.05 8.8 3.1 8.7 2.4 8.0 1.65 7.25 1.55 6.3" fill="#d9d9d9" fill-rule="evenodd" stroke="none"/>
    <path d="M2.65 -12.55 Q3.75 -12.35 4.45 -11.5 5.15 -10.6 5.1 -9.5 4.95 -8.35 4.1 -7.65 3.2 -6.95 2.1 -7.05 0.9 -7.2 0.2 -8.1 -0.5 -8.95 -0.35 -10.1 -0.3 -11.25 0.6 -11.95 1.45 -12.65 2.65 -12.55" fill="#d9d9d9" fill-rule="evenodd" stroke="none"/>
  </g>
</svg>
