<?xml version="1.0" encoding="UTF-8" standalone="no"?>
<svg xmlns:ffdec="https://www.free-decompiler.com/flash" xmlns:xlink="http://www.w3.org/1999/xlink" ffdec:objectType="shape" height="40.6px" width="42.55px" xmlns="http://www.w3.org/2000/svg">
  <g transform="matrix(1.0, 0.0, 0.0, 1.0, 21.4, 20.35)">
    <path d="M18.05 -1.85 Q18.25 -1.1 17.85 -0.4 17.4 0.3 16.6 0.6 15.8 0.9 15.05 0.6 14.35 0.25 14.15 -0.55 13.9 -1.35 14.3 -2.1 L15.5 -3.1 17.1 -3.05 Q17.85 -2.65 18.05 -1.85 M18.0 2.45 Q18.35 2.9 18.3 3.5 18.2 4.15 17.7 4.55 17.2 4.95 16.5 4.9 15.95 4.9 15.6 4.45 15.2 3.95 15.25 3.3 15.35 2.65 15.85 2.25 16.35 1.85 17.05 1.9 17.6 1.95 18.0 2.45 M15.35 -10.1 L15.5 -9.45 Q15.55 -9.05 15.25 -8.75 L14.8 -8.35 Q14.45 -8.35 14.25 -8.55 L14.05 -9.2 14.25 -9.95 14.85 -10.3 15.35 -10.1 M10.5 -10.35 Q10.0 -10.35 9.7 -10.75 9.4 -11.15 9.45 -11.65 9.5 -12.1 9.85 -12.35 10.2 -12.65 10.7 -12.6 11.2 -12.6 11.5 -12.2 L11.75 -11.3 11.35 -10.5 10.5 -10.35 M12.35 -7.7 Q13.2 -7.65 13.7 -6.95 14.25 -6.3 14.2 -5.55 14.0 -4.65 13.35 -4.1 12.65 -3.55 11.85 -3.65 10.95 -3.65 10.4 -4.3 9.9 -5.0 10.0 -5.85 10.15 -6.6 10.8 -7.15 11.5 -7.7 12.35 -7.7 M15.85 -4.6 Q15.6 -4.2 15.15 -4.1 14.75 -4.05 14.5 -4.4 14.2 -4.75 14.2 -5.25 14.2 -5.75 14.5 -6.15 14.8 -6.55 15.2 -6.65 15.65 -6.7 15.85 -6.35 L16.2 -5.5 Q16.2 -5.0 15.85 -4.6 M16.0 7.25 L15.6 8.2 14.95 8.65 Q14.55 8.75 14.3 8.4 14.0 8.05 14.0 7.55 L14.0 7.45 13.8 7.95 12.6 8.95 11.15 8.85 Q10.45 8.5 10.3 7.75 10.1 7.0 10.6 6.25 11.0 5.55 11.75 5.25 L13.2 5.4 Q13.85 5.8 14.05 6.5 L14.1 7.05 14.25 6.6 15.0 6.15 Q15.45 6.05 15.65 6.45 16.0 6.7 16.0 7.25 M13.45 12.15 Q13.05 12.8 12.3 13.1 L10.75 12.95 Q10.1 12.6 9.85 11.85 9.7 11.1 10.15 10.4 10.55 9.7 11.3 9.45 L12.75 9.6 Q13.45 10.0 13.7 10.7 13.85 11.45 13.45 12.15 M7.05 15.5 Q6.8 15.2 6.85 14.7 L7.3 14.0 Q7.65 13.75 8.05 13.75 8.5 13.85 8.75 14.15 9.05 14.5 8.95 14.95 L8.55 15.6 7.75 15.9 Q7.35 15.85 7.05 15.5 M4.7 14.1 Q3.9 14.05 3.4 13.4 2.9 12.8 3.05 12.0 3.15 11.2 3.8 10.7 4.4 10.2 5.25 10.25 6.0 10.3 6.5 10.9 7.0 11.55 6.9 12.35 6.75 13.15 6.15 13.65 5.5 14.15 4.7 14.1 M3.35 16.25 Q4.05 16.3 4.45 16.85 4.85 17.35 4.85 18.05 4.7 18.7 4.1 19.15 L2.95 19.55 Q2.2 19.45 1.8 18.95 1.4 18.4 1.45 17.75 1.55 17.1 2.1 16.65 2.7 16.2 3.35 16.25 M-0.9 16.45 Q-0.3 16.5 0.1 16.95 0.45 17.45 0.3 17.95 0.25 18.6 -0.25 19.0 L-1.35 19.3 Q-1.9 19.3 -2.25 18.8 -2.65 18.35 -2.55 17.8 -2.45 17.2 -2.0 16.85 L-0.9 16.45 M-1.75 14.55 L-1.85 14.0 -1.55 13.5 -1.0 13.3 Q-0.7 13.35 -0.5 13.6 -0.3 13.85 -0.4 14.1 -0.4 14.45 -0.65 14.65 L-1.25 14.8 -1.75 14.55 M-5.85 16.9 Q-6.4 16.9 -6.7 16.5 -7.0 16.1 -6.95 15.6 -6.85 15.1 -6.45 14.75 L-5.5 14.45 Q-5.0 14.5 -4.7 14.9 -4.4 15.3 -4.4 15.75 -4.5 16.3 -4.95 16.65 L-5.85 16.9 M-9.35 17.4 Q-9.85 17.8 -10.45 17.8 -11.05 17.75 -11.4 17.3 -11.7 16.9 -11.6 16.35 -11.5 15.7 -11.0 15.3 -10.55 14.95 -9.95 15.0 -9.4 15.05 -9.1 15.45 -8.75 15.9 -8.8 16.45 -8.9 17.05 -9.35 17.4 M-13.35 15.7 Q-13.75 15.75 -14.0 15.4 L-14.2 14.7 -13.8 14.05 -13.1 13.8 Q-12.7 13.85 -12.45 14.15 -12.2 14.5 -12.25 14.8 -12.3 15.25 -12.6 15.5 L-13.35 15.7 M-14.7 11.3 Q-15.4 11.85 -16.25 11.75 -17.1 11.75 -17.6 11.1 -18.15 10.4 -18.05 9.55 -17.9 8.7 -17.2 8.15 -16.45 7.55 -15.6 7.6 -14.7 7.65 -14.15 8.35 -13.65 9.0 -13.8 9.8 -13.95 10.7 -14.7 11.3 M-16.4 12.95 Q-16.4 12.55 -16.05 12.25 L-15.3 12.05 Q-14.85 12.05 -14.6 12.4 -14.35 12.7 -14.45 13.15 -14.45 13.5 -14.8 13.8 -15.15 14.1 -15.55 14.05 L-16.2 13.7 -16.4 12.95 M-6.7 20.05 Q-7.15 20.05 -7.5 19.65 -7.85 19.2 -7.8 18.7 -7.7 18.05 -7.25 17.75 -6.8 17.35 -6.25 17.45 -5.75 17.5 -5.4 17.95 -5.05 18.35 -5.15 18.8 -5.2 19.4 -5.65 19.8 L-6.7 20.05 M7.05 -16.35 L7.35 -15.55 Q7.35 -15.05 7.0 -14.6 6.75 -14.25 6.35 -14.15 5.9 -14.05 5.65 -14.4 5.4 -14.75 5.4 -15.25 L5.65 -16.15 Q6.0 -16.6 6.4 -16.65 6.85 -16.75 7.05 -16.35 M4.35 -17.3 Q5.1 -16.85 5.2 -16.05 5.45 -15.3 4.95 -14.6 4.5 -13.9 3.7 -13.7 L2.15 -13.85 Q1.45 -14.2 1.3 -15.0 1.1 -15.8 1.5 -16.5 2.0 -17.2 2.8 -17.5 L4.35 -17.3 M-2.65 -16.05 Q-2.95 -15.8 -3.35 -15.8 -3.65 -15.85 -3.85 -16.15 L-4.05 -16.7 -3.6 -17.35 -3.0 -17.45 -2.45 -17.2 Q-2.2 -16.95 -2.25 -16.6 L-2.65 -16.05 M-3.9 -14.15 Q-3.65 -15.15 -2.85 -15.8 -2.05 -16.4 -1.1 -16.25 -0.15 -16.15 0.4 -15.45 0.9 -14.7 0.7 -13.8 0.5 -12.85 -0.35 -12.25 -1.1 -11.65 -2.1 -11.75 -2.95 -11.8 -3.45 -12.5 -4.0 -13.25 -3.9 -14.15 M-5.1 -12.5 Q-5.2 -11.85 -5.8 -11.4 -6.4 -10.9 -7.05 -10.95 L-8.15 -11.55 Q-8.6 -12.1 -8.45 -12.8 L-7.75 -13.95 -6.55 -14.35 Q-5.8 -14.35 -5.35 -13.8 -4.95 -13.3 -5.1 -12.5 M-10.3 -12.35 Q-9.15 -12.4 -8.4 -11.6 -7.65 -10.9 -7.6 -9.8 -7.55 -8.75 -8.3 -8.05 -9.05 -7.3 -10.05 -7.3 -11.05 -7.3 -11.85 -8.05 -12.65 -8.85 -12.7 -9.85 -12.75 -10.85 -12.0 -11.6 -11.25 -12.3 -10.3 -12.35 M0.75 -6.7 Q0.3 -6.7 0.05 -7.05 L-0.15 -7.8 Q-0.1 -8.3 0.3 -8.6 L1.1 -8.8 Q1.55 -8.8 1.8 -8.45 L2.0 -7.7 1.6 -6.95 Q1.2 -6.65 0.75 -6.7 M-3.75 -9.15 Q-4.05 -8.9 -4.4 -8.9 -4.8 -8.9 -5.0 -9.15 L-5.1 -9.8 -4.7 -10.35 -4.05 -10.55 Q-3.75 -10.55 -3.6 -10.25 -3.35 -10.0 -3.45 -9.65 -3.45 -9.3 -3.75 -9.15 M-11.6 -0.2 Q-11.1 -0.2 -10.8 0.2 -10.5 0.55 -10.6 1.0 -10.65 1.5 -11.05 1.8 L-11.9 2.0 Q-12.4 2.05 -12.7 1.7 -13.0 1.3 -12.9 0.8 -12.85 0.35 -12.45 0.05 L-11.6 -0.2 M-16.65 -1.35 Q-17.15 -2.0 -17.1 -3.05 -16.9 -4.05 -16.15 -4.75 -15.4 -5.45 -14.65 -5.5 -13.7 -5.45 -13.15 -4.75 -12.6 -4.05 -12.85 -3.0 -12.95 -2.05 -13.65 -1.3 -14.4 -0.55 -15.3 -0.55 -16.1 -0.65 -16.65 -1.35 M-17.85 0.65 L-16.55 0.7 Q-15.75 0.9 -15.45 1.5 -15.2 2.1 -15.4 2.7 -15.7 3.3 -16.35 3.6 L-17.25 3.7 Q-17.2 4.3 -17.5 4.75 -16.95 4.75 -16.7 5.1 -16.35 5.5 -16.45 6.0 L-16.95 6.85 Q-17.4 7.2 -17.9 7.15 -18.4 7.15 -18.75 6.75 L-18.95 5.9 -19.2 5.9 Q-20.05 6.0 -20.7 5.4 -21.3 4.9 -21.4 3.9 -21.45 3.0 -20.85 2.2 -20.3 1.5 -19.45 1.4 L-18.65 1.4 Q-18.45 0.9 -17.85 0.65 M-13.3 5.6 Q-12.9 5.3 -12.45 5.35 -11.95 5.35 -11.65 5.75 -11.35 6.1 -11.5 6.55 -11.5 7.05 -11.9 7.35 L-12.8 7.55 -13.5 7.25 -13.75 6.35 -13.3 5.6 M-15.9 -8.3 L-14.3 -8.35 Q-13.6 -8.1 -13.45 -7.55 -13.35 -6.9 -13.85 -6.3 -14.4 -5.75 -15.3 -5.5 L-16.9 -5.45 Q-17.6 -5.7 -17.75 -6.35 -17.8 -6.95 -17.3 -7.55 L-15.9 -8.3 M-17.7 -3.5 L-18.35 -3.35 Q-18.7 -3.4 -18.95 -3.65 L-19.1 -4.25 -18.75 -4.8 -18.1 -5.05 Q-17.75 -5.0 -17.55 -4.75 -17.3 -4.5 -17.35 -4.15 -17.45 -3.75 -17.7 -3.5 M-18.6 8.7 Q-18.25 9.1 -18.35 9.6 -18.45 10.1 -18.85 10.45 -19.25 10.75 -19.75 10.7 L-20.55 10.25 -20.8 9.4 Q-20.75 8.85 -20.35 8.55 -19.95 8.2 -19.4 8.3 -18.9 8.3 -18.6 8.7" fill="#171000" fill-opacity="0.3019608" fill-rule="evenodd" stroke="none"/>
    <path d="M3.3 -16.15 Q2.55 -16.55 2.35 -17.4 2.1 -18.25 2.55 -19.05 3.0 -19.75 3.85 -19.95 L5.45 -19.75 Q6.2 -19.25 6.45 -18.4 6.65 -17.55 6.2 -16.85 5.8 -16.05 4.95 -15.85 4.1 -15.65 3.3 -16.15" fill="#c6c6c6" fill-rule="evenodd" stroke="none"/>
    <path d="M-15.65 1.9 Q-16.35 2.2 -17.1 1.9 -17.85 1.6 -18.2 0.9 -18.55 0.25 -18.3 -0.35 -18.1 -1.0 -17.4 -1.25 L-15.95 -1.2 -14.85 -0.25 Q-14.5 0.45 -14.7 1.1 -14.95 1.7 -15.65 1.9" fill="#c6c6c6" fill-rule="evenodd" stroke="none"/>
    <path d="M-9.5 -9.6 Q-10.6 -9.6 -11.45 -10.45 -12.3 -11.3 -12.4 -12.45 -12.45 -13.5 -11.75 -14.25 -11.0 -15.05 -9.9 -15.0 -8.75 -14.95 -7.9 -14.1 -7.05 -13.25 -7.0 -12.15 -6.9 -11.05 -7.65 -10.25 -8.35 -9.5 -9.5 -9.6" fill="#c6c6c6" fill-rule="evenodd" stroke="none"/>
    <path d="M12.2 -11.9 Q11.7 -12.0 11.35 -12.4 11.0 -12.85 11.05 -13.35 11.05 -13.9 11.4 -14.2 11.8 -14.5 12.3 -14.4 12.85 -14.3 13.2 -13.85 13.55 -13.45 13.45 -12.95 13.45 -12.45 13.05 -12.15 12.7 -11.85 12.2 -11.9" fill="#c6c6c6" fill-rule="evenodd" stroke="none"/>
    <path d="M17.55 0.0 Q16.8 -0.35 16.5 -1.2 16.25 -2.05 16.65 -2.85 17.1 -3.65 17.95 -3.9 L19.55 -3.75 Q20.35 -3.35 20.6 -2.5 20.9 -1.65 20.45 -0.9 20.05 -0.1 19.2 0.15 L17.55 0.0" fill="#c6c6c6" fill-rule="evenodd" stroke="none"/>
    <path d="M5.45 20.0 Q4.7 19.95 4.25 19.35 3.75 18.8 3.8 18.0 3.9 17.3 4.5 16.85 5.05 16.4 5.75 16.45 6.5 16.6 7.0 17.15 7.45 17.75 7.4 18.45 7.35 19.25 6.8 19.7 6.2 20.15 5.45 20.0" fill="#c6c6c6" fill-rule="evenodd" stroke="none"/>
    <path d="M10.45 16.35 L9.7 15.9 Q9.4 15.5 9.4 15.05 9.5 14.6 9.85 14.3 10.2 14.0 10.65 14.05 11.15 14.1 11.45 14.5 11.75 14.85 11.7 15.35 L11.3 16.1 Q10.95 16.4 10.45 16.35" fill="#c6c6c6" fill-rule="evenodd" stroke="none"/>
    <path d="M15.35 9.0 L13.8 8.8 Q13.05 8.4 12.85 7.6 12.7 6.8 13.1 6.05 13.55 5.3 14.3 5.0 L15.85 5.2 Q16.6 5.65 16.8 6.4 17.0 7.25 16.55 8.0 16.15 8.75 15.35 9.0" fill="#c6c6c6" fill-rule="evenodd" stroke="none"/>
    <path d="M-12.3 -5.0 Q-12.3 -3.95 -13.05 -3.2 -13.8 -2.45 -14.75 -2.5 -15.65 -2.55 -16.25 -3.3 -16.8 -4.1 -16.8 -5.2 -16.65 -6.3 -15.9 -7.1 -15.2 -7.85 -14.35 -7.7 -13.3 -7.7 -12.75 -6.9 -12.1 -6.1 -12.3 -5.0" fill="#c6c6c6" fill-rule="evenodd" stroke="none"/>
    <path d="M-6.45 -13.4 Q-7.2 -13.45 -7.7 -14.05 -8.15 -14.65 -8.0 -15.45 -7.95 -16.2 -7.35 -16.65 -6.75 -17.15 -6.0 -17.05 -5.25 -16.95 -4.8 -16.35 -4.3 -15.75 -4.45 -15.0 -4.5 -14.25 -5.1 -13.75 -5.7 -13.3 -6.45 -13.4" fill="#c6c6c6" fill-rule="evenodd" stroke="none"/>
    <path d="M-11.7 6.55 Q-12.2 6.45 -12.5 6.05 -12.85 5.65 -12.8 5.15 L-12.4 4.35 Q-12.0 4.05 -11.45 4.05 -11.0 4.15 -10.65 4.55 -10.35 4.95 -10.35 5.45 -10.45 5.95 -10.85 6.25 -11.2 6.55 -11.7 6.55" fill="#c6c6c6" fill-rule="evenodd" stroke="none"/>
    <path d="M-11.95 15.3 L-12.65 14.85 -12.9 14.15 -12.5 13.45 Q-12.2 13.15 -11.8 13.25 -11.35 13.3 -11.05 13.6 -10.8 13.95 -10.85 14.4 L-11.2 15.1 -11.95 15.3" fill="#c6c6c6" fill-rule="evenodd" stroke="none"/>
    <path d="M-16.65 -7.9 Q-17.45 -8.2 -17.6 -8.85 -17.75 -9.5 -17.2 -10.15 -16.65 -10.75 -15.7 -11.0 L-14.0 -10.95 Q-13.25 -10.6 -13.1 -9.95 -12.95 -9.3 -13.45 -8.7 -14.0 -8.05 -14.95 -7.85 L-16.65 -7.9" fill="#c6c6c6" fill-rule="evenodd" stroke="none"/>
    <path d="M0.95 19.65 Q0.3 19.55 -0.1 19.05 -0.5 18.55 -0.45 17.95 -0.35 17.3 0.1 16.9 0.6 16.5 1.2 16.6 1.85 16.65 2.25 17.15 2.65 17.65 2.6 18.3 2.55 18.9 2.05 19.3 1.6 19.7 0.95 19.65" fill="#c6c6c6" fill-rule="evenodd" stroke="none"/>
    <path d="M-20.25 3.8 Q-20.95 3.15 -21.05 2.1 -21.15 1.1 -20.55 0.3 -20.0 -0.5 -19.05 -0.55 -18.1 -0.65 -17.35 0.0 -16.65 0.7 -16.55 1.7 -16.45 2.75 -17.05 3.5 -17.6 4.25 -18.55 4.35 -19.5 4.4 -20.25 3.8" fill="#c6c6c6" fill-rule="evenodd" stroke="none"/>
    <path d="M2.0 -8.4 Q1.55 -8.45 1.25 -8.85 0.95 -9.2 1.0 -9.7 L1.45 -10.45 2.3 -10.75 3.05 -10.3 3.3 -9.45 Q3.3 -8.95 2.9 -8.65 2.55 -8.35 2.0 -8.4" fill="#c6c6c6" fill-rule="evenodd" stroke="none"/>
    <path d="M19.35 4.8 L18.25 4.2 Q17.8 3.7 17.9 3.0 17.95 2.35 18.5 1.95 19.0 1.5 19.7 1.55 20.35 1.65 20.8 2.15 21.2 2.7 21.15 3.35 21.05 4.0 20.55 4.45 L19.35 4.8" fill="#c6c6c6" fill-rule="evenodd" stroke="none"/>
    <path d="M-17.15 5.7 Q-17.7 5.65 -18.05 5.25 L-18.3 4.25 Q-18.25 3.75 -17.8 3.4 -17.4 3.05 -16.85 3.1 -16.35 3.15 -16.0 3.6 -15.65 4.0 -15.7 4.55 -15.75 5.1 -16.15 5.45 L-17.15 5.7" fill="#c6c6c6" fill-rule="evenodd" stroke="none"/>
    <path d="M-15.2 10.85 Q-16.15 10.8 -16.75 10.05 -17.35 9.35 -17.2 8.35 -17.15 7.45 -16.4 6.85 -15.65 6.25 -14.7 6.35 -13.75 6.5 -13.15 7.2 -12.55 7.95 -12.7 8.85 -12.8 9.8 -13.55 10.4 -14.3 11.0 -15.2 10.85" fill="#c6c6c6" fill-rule="evenodd" stroke="none"/>
    <path d="M-2.45 -11.8 Q-2.55 -11.45 -2.85 -11.2 -3.15 -10.95 -3.55 -11.0 -3.9 -11.05 -4.15 -11.35 L-4.3 -12.0 -3.95 -12.65 -3.2 -12.8 -2.65 -12.45 Q-2.4 -12.15 -2.45 -11.8" fill="#c6c6c6" fill-rule="evenodd" stroke="none"/>
    <path d="M1.7 -16.2 Q1.55 -15.2 0.7 -14.6 -0.15 -13.95 -1.15 -14.1 -2.15 -14.25 -2.7 -15.05 -3.3 -15.85 -3.2 -16.85 -3.0 -17.8 -2.15 -18.45 -1.3 -19.05 -0.35 -18.95 0.7 -18.8 1.3 -18.0 1.85 -17.2 1.7 -16.2" fill="#c6c6c6" fill-rule="evenodd" stroke="none"/>
    <path d="M13.95 -4.6 Q13.05 -4.7 12.45 -5.45 11.85 -6.15 11.9 -7.05 12.0 -7.95 12.7 -8.5 13.4 -9.1 14.3 -8.95 15.25 -8.85 15.85 -8.15 16.45 -7.4 16.35 -6.5 16.25 -5.65 15.55 -5.05 14.85 -4.5 13.95 -4.6" fill="#c6c6c6" fill-rule="evenodd" stroke="none"/>
    <path d="M15.15 13.5 L13.55 13.25 Q12.8 12.85 12.5 12.0 12.35 11.25 12.75 10.5 13.2 9.8 13.9 9.5 14.75 9.4 15.5 9.8 16.3 10.25 16.55 11.0 16.8 11.85 16.35 12.55 15.95 13.3 15.15 13.5" fill="#c6c6c6" fill-rule="evenodd" stroke="none"/>
    <path d="M7.1 14.35 Q6.3 14.2 5.75 13.5 5.15 12.8 5.25 11.95 5.35 11.1 6.0 10.6 6.7 10.05 7.55 10.1 8.35 10.25 8.95 10.95 9.5 11.65 9.4 12.5 9.35 13.35 8.65 13.9 8.0 14.4 7.1 14.35" fill="#c6c6c6" fill-rule="evenodd" stroke="none"/>
    <path d="M0.9 14.8 Q0.55 14.75 0.35 14.5 L0.2 13.95 Q0.2 13.6 0.45 13.4 L1.05 13.25 Q1.4 13.25 1.6 13.5 L1.75 14.1 1.45 14.65 0.9 14.8" fill="#c6c6c6" fill-rule="evenodd" stroke="none"/>
    <path d="M-14.4 13.4 L-15.15 13.0 -15.35 12.2 -14.95 11.45 Q-14.6 11.15 -14.15 11.2 -13.7 11.25 -13.45 11.6 -13.15 11.95 -13.2 12.4 -13.25 12.85 -13.6 13.15 -13.95 13.45 -14.4 13.4" fill="#c6c6c6" fill-rule="evenodd" stroke="none"/>
    <path d="M-4.0 16.75 L-4.85 16.25 Q-5.2 15.85 -5.15 15.3 -5.1 14.8 -4.65 14.45 -4.25 14.1 -3.7 14.15 -3.15 14.2 -2.8 14.6 -2.45 15.05 -2.55 15.6 -2.6 16.15 -3.0 16.5 L-4.0 16.75" fill="#c6c6c6" fill-rule="evenodd" stroke="none"/>
    <path d="M-11.0 0.5 L-11.8 0.0 Q-12.15 -0.4 -12.1 -0.9 L-11.7 -1.7 -10.75 -2.0 -9.95 -1.5 Q-9.65 -1.1 -9.65 -0.6 -9.75 -0.1 -10.15 0.2 -10.5 0.5 -11.0 0.5" fill="#c6c6c6" fill-rule="evenodd" stroke="none"/>
    <path d="M-8.75 17.6 Q-9.4 17.5 -9.75 17.05 L-10.1 15.95 Q-10.0 15.3 -9.55 14.9 -9.05 14.5 -8.45 14.6 -7.8 14.65 -7.4 15.15 -7.05 15.6 -7.1 16.25 -7.2 16.85 -7.7 17.25 -8.15 17.65 -8.75 17.6" fill="#c6c6c6" fill-rule="evenodd" stroke="none"/>
    <path d="M-19.05 9.5 Q-19.55 9.45 -19.9 9.0 -20.25 8.55 -20.2 8.05 L-19.75 7.15 Q-19.3 6.85 -18.8 6.9 -18.25 6.95 -17.9 7.4 -17.55 7.85 -17.65 8.35 -17.65 8.95 -18.1 9.25 L-19.05 9.5" fill="#c6c6c6" fill-rule="evenodd" stroke="none"/>
    <path d="M-18.2 -5.65 Q-18.6 -5.7 -18.85 -6.0 L-19.05 -6.7 -18.7 -7.3 -18.0 -7.5 -17.4 -7.15 -17.15 -6.45 Q-17.2 -6.05 -17.5 -5.8 L-18.2 -5.65" fill="#c6c6c6" fill-rule="evenodd" stroke="none"/>
    <path d="M-1.6 -19.3 L-2.0 -18.7 -2.7 -18.5 Q-3.05 -18.55 -3.3 -18.85 L-3.5 -19.55 -3.1 -20.15 -2.4 -20.35 Q-2.0 -20.25 -1.8 -19.95 -1.55 -19.65 -1.6 -19.3" fill="#c6c6c6" fill-rule="evenodd" stroke="none"/>
    <path d="M-4.7 20.25 Q-5.3 20.15 -5.65 19.7 L-6.0 18.65 Q-5.9 18.05 -5.45 17.7 L-4.45 17.4 Q-3.85 17.45 -3.45 17.95 -3.1 18.4 -3.15 19.0 -3.2 19.6 -3.65 19.95 -4.1 20.3 -4.7 20.25" fill="#c6c6c6" fill-rule="evenodd" stroke="none"/>
    <path d="M17.5 -9.95 L16.95 -9.6 Q16.6 -9.6 16.4 -9.85 16.15 -10.2 16.15 -10.6 16.1 -11.05 16.35 -11.35 16.55 -11.7 16.9 -11.7 L17.45 -11.45 17.75 -10.75 17.5 -9.95" fill="#c6c6c6" fill-rule="evenodd" stroke="none"/>
    <path d="M18.25 -5.55 L17.5 -5.05 Q17.1 -5.0 16.75 -5.35 16.5 -5.75 16.5 -6.3 16.45 -6.85 16.7 -7.25 17.05 -7.7 17.45 -7.75 L18.2 -7.45 18.55 -6.5 18.25 -5.55" fill="#c6c6c6" fill-rule="evenodd" stroke="none"/>
    <path d="M18.5 8.3 L17.75 8.8 Q17.35 8.85 17.0 8.5 L16.75 7.55 Q16.7 7.0 16.95 6.6 17.3 6.15 17.7 6.1 18.15 6.05 18.45 6.4 L18.8 7.35 18.5 8.3" fill="#c6c6c6" fill-rule="evenodd" stroke="none"/>
    <path d="M8.4 -16.75 L7.65 -16.25 Q7.25 -16.2 6.9 -16.55 6.65 -16.95 6.65 -17.5 6.6 -18.05 6.85 -18.45 7.2 -18.9 7.6 -18.95 8.05 -19.0 8.35 -18.65 L8.7 -17.7 8.4 -16.75" fill="#c6c6c6" fill-rule="evenodd" stroke="none"/>
  </g>
</svg>
