<?xml version="1.0" encoding="UTF-8" standalone="no"?>
<svg xmlns:ffdec="https://www.free-decompiler.com/flash" xmlns:xlink="http://www.w3.org/1999/xlink" ffdec:objectType="shape" height="36.45px" width="38.65px" xmlns="http://www.w3.org/2000/svg">
  <g transform="matrix(1.0, 0.0, 0.0, 1.0, 18.95, 18.25)">
    <path d="M13.6 -1.25 L14.25 -0.5 Q14.35 0.0 14.1 0.4 L14.1 0.45 13.35 1.05 12.4 0.9 11.85 0.2 11.8 0.2 Q11.65 -0.3 11.85 -0.75 L11.85 -0.7 Q12.15 -1.1 12.65 -1.35 L12.6 -1.3 13.5 -1.25 13.6 -1.25 M13.85 2.95 L14.4 3.25 14.6 3.85 14.3 4.45 13.65 4.6 Q13.35 4.6 13.15 4.3 L12.9 3.7 13.25 3.15 13.8 2.95 13.85 2.95 M11.85 -7.05 L11.75 -6.75 11.65 -6.65 11.55 -6.65 11.5 -6.95 11.6 -7.35 11.7 -7.4 11.8 -7.4 11.85 -7.05 M8.2 -8.45 L8.05 -8.45 Q7.85 -8.5 7.75 -8.7 7.55 -8.9 7.6 -9.15 L7.75 -9.45 8.05 -9.5 8.5 -9.3 8.6 -8.9 8.6 -8.8 8.5 -8.5 8.2 -8.45 M8.75 -5.05 L9.6 -5.25 9.7 -5.3 Q10.15 -5.2 10.5 -4.75 L10.85 -3.9 10.85 -3.85 Q10.8 -3.35 10.4 -3.0 10.0 -2.7 9.5 -2.75 L9.45 -2.75 Q8.9 -2.8 8.55 -3.2 8.2 -3.65 8.25 -4.2 8.3 -4.7 8.75 -5.05 M12.1 -3.05 L11.95 -3.15 11.75 -3.6 11.9 -4.1 12.2 -4.3 12.25 -4.25 12.3 -4.15 12.5 -3.8 12.35 -3.2 12.1 -3.05 M12.55 6.6 L12.75 6.95 12.6 7.55 12.35 7.7 12.2 7.6 12.0 7.15 11.95 6.95 12.0 6.9 12.15 6.65 Q12.25 6.5 12.45 6.45 L12.5 6.5 12.55 6.6 M11.05 7.35 L10.35 7.9 10.3 7.95 9.45 7.8 9.4 7.75 8.9 7.1 8.9 7.15 Q8.85 6.65 9.1 6.2 L9.1 6.15 9.75 5.6 9.7 5.6 10.55 5.7 Q11.05 6.0 11.15 6.45 L11.15 6.75 11.2 6.9 11.15 7.0 11.05 7.35 M11.0 9.9 Q11.2 10.4 10.9 10.85 L10.25 11.4 9.3 11.3 9.25 11.25 8.7 10.55 Q8.6 10.05 8.85 9.65 L8.85 9.7 Q9.05 9.25 9.55 9.15 L10.45 9.25 10.4 9.3 11.05 10.0 11.0 9.9 M6.85 12.65 L7.1 12.8 7.25 13.15 7.05 13.45 6.75 13.55 6.4 13.35 6.3 13.05 6.5 12.75 6.8 12.65 6.85 12.65 M4.15 12.0 Q3.65 11.9 3.3 11.5 3.0 11.1 3.05 10.65 3.1 10.1 3.5 9.8 L4.35 9.6 Q4.85 9.65 5.15 10.05 5.5 10.45 5.45 10.95 L5.0 11.7 4.15 12.0 M2.95 14.6 L3.0 14.55 Q3.4 14.65 3.65 15.0 L3.9 15.65 3.9 15.75 3.5 16.3 2.9 16.55 2.85 16.5 Q2.45 16.45 2.2 16.15 L1.95 15.4 Q2.0 15.05 2.3 14.8 2.6 14.55 2.95 14.6 M-0.55 14.6 Q-0.2 14.65 0.0 14.9 L0.15 15.45 0.15 15.5 -0.1 16.0 -0.65 16.15 -0.7 16.15 -1.2 15.85 -1.35 15.25 -1.1 14.8 -0.55 14.6 M-0.55 12.2 L-0.6 12.35 -0.65 12.35 -0.8 12.35 -0.9 12.3 -0.95 12.2 -0.9 12.1 -0.85 12.05 -0.7 11.95 -0.6 12.05 -0.55 12.2 M-4.5 14.0 L-4.95 13.75 -5.05 13.3 -4.85 12.9 -4.4 12.75 -4.0 13.0 Q-3.85 13.2 -3.85 13.45 L-4.05 13.85 -4.5 14.0 M-7.75 14.35 L-8.25 14.55 -8.8 14.3 -8.9 13.75 -8.65 13.2 -8.1 13.1 Q-7.8 13.1 -7.6 13.35 -7.4 13.6 -7.45 13.9 L-7.75 14.35 M-10.75 12.75 L-10.8 12.75 -11.05 12.6 -11.15 12.3 -11.0 12.05 -10.7 12.0 -10.45 12.15 -10.35 12.4 -10.5 12.65 -10.75 12.75 M-12.3 9.0 Q-12.75 9.35 -13.3 9.3 -13.85 9.25 -14.2 8.85 L-14.45 7.85 Q-14.4 7.3 -13.95 6.95 L-12.95 6.65 Q-12.45 6.7 -12.1 7.15 -11.75 7.55 -11.8 8.1 -11.85 8.65 -12.3 9.0 M-13.05 10.75 L-12.85 10.45 -12.65 10.4 -12.6 10.4 Q-12.4 10.4 -12.3 10.55 L-12.2 10.9 -12.25 10.9 -12.35 11.15 -12.65 11.25 -12.95 11.05 -13.05 10.75 M-5.1 16.6 L-5.5 16.35 -5.7 15.85 -5.45 15.4 -4.95 15.3 -4.95 15.25 Q-4.7 15.3 -4.5 15.55 -4.3 15.75 -4.35 16.0 L-4.35 16.1 -4.6 16.45 -5.1 16.6 M4.7 -12.95 L4.85 -12.55 4.7 -11.95 4.45 -11.8 Q4.3 -11.8 4.25 -11.9 L4.1 -12.35 4.2 -12.85 4.55 -13.05 4.65 -13.0 4.7 -12.95 M1.55 -13.85 L1.65 -13.9 2.45 -13.75 2.45 -13.7 3.05 -12.95 3.1 -12.85 2.95 -12.05 2.9 -12.0 Q2.7 -11.65 2.2 -11.5 L2.15 -11.5 1.25 -11.55 0.7 -12.35 0.7 -12.4 Q0.6 -12.9 0.8 -13.25 1.05 -13.7 1.55 -13.85 M-1.75 -12.95 Q-1.2 -12.9 -0.8 -12.4 -0.5 -11.95 -0.6 -11.3 -0.7 -10.7 -1.2 -10.35 L-2.35 -10.05 Q-2.9 -10.1 -3.2 -10.6 -3.55 -11.1 -3.55 -11.7 L-3.55 -11.65 Q-3.45 -12.3 -2.95 -12.7 L-1.8 -12.95 -1.75 -12.95 M-3.2 -13.95 L-3.15 -13.8 -3.3 -13.65 -3.35 -13.65 -3.5 -13.55 -3.7 -13.65 -3.8 -13.75 -3.6 -14.05 -3.55 -14.05 -3.35 -14.05 -3.2 -13.95 M-5.4 -10.45 Q-5.4 -10.05 -5.75 -9.8 L-6.4 -9.5 -6.45 -9.55 -7.05 -9.95 -7.3 -10.65 -7.3 -10.7 -6.9 -11.35 -6.25 -11.55 -6.2 -11.55 Q-5.8 -11.55 -5.5 -11.2 -5.25 -10.9 -5.4 -10.45 M-9.15 -10.0 L-9.2 -9.95 Q-8.5 -9.95 -7.95 -9.4 L-7.9 -9.35 Q-7.4 -8.9 -7.35 -8.2 -7.3 -7.5 -7.75 -7.05 -8.15 -6.6 -8.8 -6.6 L-8.8 -6.55 Q-9.5 -6.65 -10.05 -7.15 -10.65 -7.75 -10.7 -8.45 -10.8 -9.1 -10.3 -9.5 L-9.15 -10.0 M0.3 -6.65 L0.6 -6.5 0.7 -6.15 0.55 -5.85 0.15 -5.7 -0.15 -5.9 -0.25 -6.2 -0.05 -6.55 0.3 -6.65 M-3.85 -8.0 L-3.85 -7.9 -3.95 -7.85 -4.0 -7.8 -4.2 -7.75 -4.3 -7.75 -4.3 -7.8 -4.4 -8.0 -4.4 -8.05 -4.35 -8.2 -4.15 -8.3 -3.95 -8.25 -3.9 -8.2 -3.9 -8.15 -3.85 -8.0 M-11.45 -2.55 Q-11.45 -1.95 -11.95 -1.5 -12.35 -1.1 -12.9 -1.05 -13.4 -1.15 -13.75 -1.55 L-13.75 -1.6 Q-14.15 -2.1 -14.1 -2.8 L-13.55 -3.95 -12.65 -4.35 Q-12.0 -4.3 -11.7 -3.85 -11.3 -3.35 -11.45 -2.65 L-11.45 -2.55 M-9.9 0.25 Q-9.65 0.25 -9.55 0.4 L-9.45 0.8 -9.5 0.85 -9.65 1.15 -10.0 1.25 -10.05 1.25 -10.4 1.05 -10.5 0.7 -10.5 0.6 -10.35 0.3 -10.0 0.2 -9.9 0.25 M-14.85 0.7 L-14.1 0.8 -13.45 1.3 -13.35 1.95 -13.4 2.0 -13.8 2.4 -13.9 2.45 -14.3 2.45 -14.6 2.5 -14.8 2.65 -14.85 2.9 -15.0 3.55 -15.0 3.8 -14.9 4.1 -14.65 4.15 -14.25 4.35 -14.15 4.8 -14.35 5.2 -14.85 5.35 -15.2 5.1 -15.35 4.7 -15.4 4.4 -15.55 4.25 -15.85 4.25 -16.05 4.25 -16.95 3.9 -16.95 3.85 -17.45 2.9 Q-17.5 2.3 -17.15 1.75 -16.85 1.35 -16.3 1.3 L-16.25 1.3 -15.8 1.25 -15.55 1.3 -15.3 1.05 -14.85 0.7 M-10.0 5.45 L-10.05 5.5 -10.2 5.8 -10.55 5.9 -10.6 5.9 -10.9 5.7 -11.05 5.35 -11.0 5.3 -10.85 4.95 -10.5 4.9 -10.45 4.9 Q-10.25 4.85 -10.1 5.05 L-10.0 5.45 M-13.65 -6.8 L-12.55 -6.8 -12.1 -6.35 Q-12.0 -6.05 -12.3 -5.75 -12.7 -5.4 -13.2 -5.25 L-14.3 -5.2 -14.75 -5.75 -14.6 -6.3 -14.55 -6.35 -13.65 -6.8 M-15.75 -4.05 L-15.5 -4.1 -15.35 -4.0 -15.25 -3.8 -15.35 -3.55 -15.55 -3.55 Q-15.65 -3.55 -15.75 -3.65 L-15.8 -3.85 -15.75 -4.05 M-16.65 8.0 L-16.8 7.6 -16.55 7.2 -16.15 7.05 -15.75 7.3 Q-15.55 7.5 -15.6 7.75 L-15.8 8.15 -16.25 8.35 -16.25 8.3 -16.65 8.0" fill="#171000" fill-opacity="0.3019608" fill-rule="evenodd" stroke="none"/>
    <path d="M3.5 -15.6 L3.25 -16.0 3.25 -16.5 3.65 -16.8 4.15 -16.7 4.5 -16.3 4.4 -15.8 4.0 -15.55 3.5 -15.6" fill="#c6c6c6" fill-rule="evenodd" stroke="none"/>
    <path d="M-14.1 1.7 Q-14.7 1.95 -15.35 1.7 -16.0 1.45 -16.35 0.8 -16.65 0.2 -16.45 -0.35 -16.2 -0.95 -15.6 -1.15 L-14.3 -1.1 Q-13.65 -0.85 -13.35 -0.25 -13.0 0.35 -13.25 0.95 -13.45 1.5 -14.1 1.7" fill="#c6c6c6" fill-rule="evenodd" stroke="none"/>
    <path d="M-8.55 -9.65 Q-9.05 -9.65 -9.5 -10.1 -9.9 -10.5 -9.95 -11.0 L-9.6 -11.9 Q-9.25 -12.3 -8.75 -12.25 -8.2 -12.25 -7.8 -11.85 -7.35 -11.4 -7.35 -10.9 -7.3 -10.35 -7.65 -9.95 -8.0 -9.6 -8.55 -9.65" fill="#c6c6c6" fill-rule="evenodd" stroke="none"/>
    <path d="M10.95 -10.7 Q10.5 -10.75 10.2 -11.15 9.85 -11.55 9.9 -12.0 9.95 -12.45 10.3 -12.7 10.6 -13.0 11.05 -12.95 11.5 -12.9 11.85 -12.5 L12.1 -11.65 11.8 -10.9 10.95 -10.7" fill="#c6c6c6" fill-rule="evenodd" stroke="none"/>
    <path d="M16.9 -0.1 Q16.4 -0.5 16.15 -1.3 15.9 -2.05 16.1 -2.7 16.3 -3.3 16.8 -3.45 L17.9 -3.25 18.7 -2.05 Q18.95 -1.25 18.7 -0.65 18.5 0.0 17.95 0.2 17.45 0.35 16.9 -0.1" fill="#c6c6c6" fill-rule="evenodd" stroke="none"/>
    <path d="M4.9 18.05 Q4.3 17.95 3.85 17.4 3.4 16.9 3.45 16.25 3.5 15.6 4.0 15.15 4.55 14.75 5.2 14.8 5.85 14.9 6.3 15.4 6.75 15.95 6.65 16.6 6.65 17.3 6.1 17.7 5.6 18.15 4.9 18.05" fill="#c6c6c6" fill-rule="evenodd" stroke="none"/>
    <path d="M9.4 14.7 Q8.95 14.6 8.7 14.25 8.45 13.95 8.5 13.55 8.5 13.1 8.85 12.85 L9.6 12.65 Q10.0 12.7 10.25 13.0 L10.5 13.8 10.15 14.45 9.4 14.7" fill="#c6c6c6" fill-rule="evenodd" stroke="none"/>
    <path d="M14.25 9.15 L12.85 9.0 Q12.2 8.65 12.05 7.9 11.85 7.2 12.25 6.5 12.65 5.8 13.35 5.6 L14.7 5.75 Q15.35 6.15 15.55 6.85 15.75 7.55 15.35 8.25 L14.25 9.15" fill="#c6c6c6" fill-rule="evenodd" stroke="none"/>
    <path d="M-11.8 -4.5 Q-11.8 -3.9 -12.25 -3.5 -12.7 -3.05 -13.25 -3.1 -13.75 -3.1 -14.1 -3.55 -14.45 -4.0 -14.45 -4.7 L-13.9 -5.75 Q-13.5 -6.2 -13.0 -6.15 -12.4 -6.15 -12.1 -5.7 -11.7 -5.25 -11.8 -4.5" fill="#c6c6c6" fill-rule="evenodd" stroke="none"/>
    <path d="M-5.8 -12.05 Q-6.5 -12.1 -6.9 -12.65 -7.3 -13.2 -7.2 -13.9 -7.15 -14.55 -6.6 -14.95 -6.05 -15.4 -5.4 -15.35 L-4.3 -14.7 Q-3.9 -14.15 -4.0 -13.5 -4.05 -12.8 -4.6 -12.35 -5.15 -11.95 -5.8 -12.05" fill="#c6c6c6" fill-rule="evenodd" stroke="none"/>
    <path d="M-10.5 5.85 L-11.25 5.4 -11.5 4.6 Q-11.45 4.15 -11.1 3.85 L-10.3 3.65 Q-9.85 3.7 -9.55 4.05 -9.25 4.45 -9.3 4.9 -9.35 5.35 -9.7 5.6 -10.05 5.9 -10.5 5.85" fill="#c6c6c6" fill-rule="evenodd" stroke="none"/>
    <path d="M-10.75 13.7 Q-11.15 13.7 -11.4 13.4 L-11.6 12.65 -11.25 12.05 -10.6 11.85 Q-10.25 11.9 -10.0 12.25 L-9.75 12.9 -10.1 13.5 -10.75 13.7" fill="#c6c6c6" fill-rule="evenodd" stroke="none"/>
    <path d="M-14.95 -7.1 Q-15.65 -7.35 -15.8 -7.95 -15.95 -8.5 -15.45 -9.1 -15.0 -9.65 -14.15 -9.85 L-12.6 -9.8 Q-11.9 -9.5 -11.75 -8.95 -11.6 -8.35 -12.1 -7.8 -12.6 -7.2 -13.45 -7.0 L-14.95 -7.1" fill="#c6c6c6" fill-rule="evenodd" stroke="none"/>
    <path d="M0.85 17.65 L-0.05 17.15 -0.4 16.1 Q-0.35 15.55 0.1 15.15 0.55 14.8 1.1 14.85 L2.05 15.4 Q2.4 15.85 2.35 16.4 2.3 17.0 1.85 17.35 1.4 17.75 0.85 17.65" fill="#c6c6c6" fill-rule="evenodd" stroke="none"/>
    <path d="M-18.2 3.4 Q-18.85 2.8 -18.95 1.9 -19.0 1.0 -18.5 0.25 -17.95 -0.4 -17.1 -0.5 -16.3 -0.55 -15.65 0.0 -14.95 0.65 -14.9 1.55 -14.8 2.45 -15.35 3.15 -15.9 3.85 -16.7 3.9 -17.55 4.0 -18.2 3.4" fill="#c6c6c6" fill-rule="evenodd" stroke="none"/>
    <path d="M1.85 -8.1 L1.6 -8.3 1.5 -8.6 1.65 -8.9 2.0 -9.0 2.3 -8.8 2.35 -8.5 2.2 -8.25 1.85 -8.1" fill="#c6c6c6" fill-rule="evenodd" stroke="none"/>
    <path d="M18.1 4.45 Q17.45 4.4 17.1 3.95 16.7 3.5 16.8 2.85 16.85 2.25 17.3 1.9 17.8 1.5 18.4 1.6 19.0 1.65 19.4 2.1 19.75 2.55 19.7 3.2 19.65 3.8 19.15 4.2 L18.1 4.45" fill="#c6c6c6" fill-rule="evenodd" stroke="none"/>
    <path d="M-15.4 5.15 Q-15.9 5.15 -16.25 4.75 -16.55 4.4 -16.45 3.85 -16.4 3.4 -16.0 3.1 -15.6 2.75 -15.15 2.8 -14.7 2.9 -14.4 3.25 -14.05 3.65 -14.1 4.1 -14.15 4.6 -14.55 4.95 L-15.4 5.15" fill="#c6c6c6" fill-rule="evenodd" stroke="none"/>
    <path d="M-13.7 9.0 Q-14.25 8.95 -14.6 8.5 -14.95 8.1 -14.9 7.55 L-14.4 6.6 Q-13.95 6.25 -13.4 6.35 -12.85 6.4 -12.5 6.8 -12.15 7.25 -12.2 7.8 -12.25 8.35 -12.7 8.7 -13.1 9.05 -13.7 9.0" fill="#c6c6c6" fill-rule="evenodd" stroke="none"/>
    <path d="M-2.25 -10.6 L-2.55 -10.05 -3.2 -9.9 Q-3.55 -9.9 -3.75 -10.2 L-3.9 -10.8 -3.55 -11.35 -2.95 -11.5 Q-2.6 -11.45 -2.4 -11.2 L-2.25 -10.6" fill="#c6c6c6" fill-rule="evenodd" stroke="none"/>
    <path d="M0.5 -14.6 L0.0 -13.8 Q-0.4 -13.5 -0.9 -13.55 -1.45 -13.6 -1.7 -14.0 -2.0 -14.4 -1.9 -14.9 L-1.4 -15.7 -0.5 -15.95 0.3 -15.45 0.5 -14.6" fill="#c6c6c6" fill-rule="evenodd" stroke="none"/>
    <path d="M14.65 -5.1 Q13.95 -5.25 13.4 -5.9 12.9 -6.55 12.85 -7.3 12.8 -8.0 13.3 -8.35 L14.4 -8.55 Q15.15 -8.35 15.65 -7.7 16.2 -7.05 16.2 -6.35 16.3 -5.65 15.85 -5.25 L14.65 -5.1" fill="#c6c6c6" fill-rule="evenodd" stroke="none"/>
    <path d="M12.4 11.0 L11.75 10.9 11.35 10.4 Q11.25 10.1 11.4 9.8 L11.9 9.4 12.5 9.5 12.95 10.0 12.85 10.6 12.4 11.0" fill="#c6c6c6" fill-rule="evenodd" stroke="none"/>
    <path d="M6.6 12.75 L5.95 12.4 Q5.7 12.1 5.75 11.7 L6.1 11.0 6.9 10.8 Q7.25 10.8 7.5 11.1 L7.75 11.85 7.3 12.5 6.6 12.75" fill="#c6c6c6" fill-rule="evenodd" stroke="none"/>
    <path d="M0.8 13.25 Q0.5 13.25 0.35 13.05 L0.15 12.5 0.45 12.0 0.95 11.85 Q1.25 11.9 1.45 12.15 L1.6 12.6 1.35 13.15 0.8 13.25" fill="#c6c6c6" fill-rule="evenodd" stroke="none"/>
    <path d="M-13.0 12.0 Q-13.35 12.0 -13.6 11.65 L-13.85 10.95 -13.5 10.25 -12.75 10.05 Q-12.3 10.1 -12.05 10.4 -11.8 10.75 -11.9 11.1 -11.9 11.55 -12.25 11.8 L-13.0 12.0" fill="#c6c6c6" fill-rule="evenodd" stroke="none"/>
    <path d="M-3.6 15.1 Q-4.1 15.05 -4.4 14.65 L-4.65 13.8 -4.25 12.95 Q-3.85 12.65 -3.3 12.7 -2.85 12.75 -2.55 13.15 -2.25 13.55 -2.25 14.0 L-2.75 14.85 Q-3.1 15.15 -3.6 15.1" fill="#c6c6c6" fill-rule="evenodd" stroke="none"/>
    <path d="M-9.9 0.45 L-10.65 0.0 -10.9 -0.8 -10.5 -1.55 -9.7 -1.75 Q-9.25 -1.7 -8.95 -1.35 -8.65 -0.95 -8.7 -0.5 -8.75 -0.05 -9.1 0.2 -9.45 0.5 -9.9 0.45" fill="#c6c6c6" fill-rule="evenodd" stroke="none"/>
    <path d="M-7.9 15.8 L-8.8 15.3 Q-9.15 14.9 -9.1 14.3 L-8.6 13.4 -7.6 13.1 -6.7 13.6 Q-6.35 14.05 -6.4 14.6 -6.45 15.15 -6.9 15.5 -7.3 15.85 -7.9 15.8" fill="#c6c6c6" fill-rule="evenodd" stroke="none"/>
    <path d="M-17.1 8.55 L-17.9 8.1 -18.15 7.2 -17.75 6.45 Q-17.35 6.15 -16.85 6.15 -16.4 6.25 -16.1 6.65 -15.75 7.0 -15.8 7.5 -15.85 8.0 -16.25 8.3 -16.6 8.6 -17.1 8.55" fill="#c6c6c6" fill-rule="evenodd" stroke="none"/>
    <path d="M-16.3 -5.05 Q-16.65 -5.05 -16.9 -5.35 L-17.1 -6.0 -16.8 -6.55 -16.2 -6.75 -15.6 -6.4 Q-15.35 -6.1 -15.4 -5.8 -15.45 -5.45 -15.7 -5.25 -16.0 -5.0 -16.3 -5.05" fill="#c6c6c6" fill-rule="evenodd" stroke="none"/>
    <path d="M-1.45 -17.3 Q-1.5 -16.95 -1.8 -16.75 L-2.45 -16.6 -3.0 -16.95 -3.15 -17.55 -2.75 -18.1 -2.15 -18.25 Q-1.8 -18.2 -1.6 -17.95 L-1.45 -17.3" fill="#c6c6c6" fill-rule="evenodd" stroke="none"/>
    <path d="M-4.2 18.15 Q-4.75 18.15 -5.05 17.7 -5.4 17.3 -5.35 16.75 -5.35 16.25 -4.9 15.9 -4.5 15.55 -4.0 15.65 -3.45 15.7 -3.1 16.1 -2.8 16.55 -2.85 17.05 -2.85 17.6 -3.25 17.95 -3.7 18.3 -4.2 18.15" fill="#c6c6c6" fill-rule="evenodd" stroke="none"/>
    <path d="M15.7 -9.0 L15.2 -8.65 Q14.9 -8.65 14.7 -8.9 14.5 -9.15 14.5 -9.55 L14.7 -10.2 15.2 -10.5 15.7 -10.3 15.9 -9.7 15.7 -9.0" fill="#c6c6c6" fill-rule="evenodd" stroke="none"/>
    <path d="M16.4 -4.95 L15.75 -4.55 Q15.35 -4.5 15.05 -4.8 L14.75 -5.65 Q14.75 -6.15 15.0 -6.5 15.3 -6.9 15.7 -6.95 16.1 -7.0 16.35 -6.65 L16.6 -5.85 16.4 -4.95" fill="#c6c6c6" fill-rule="evenodd" stroke="none"/>
    <path d="M16.65 7.5 L16.0 7.9 Q15.6 7.95 15.3 7.65 L15.0 6.8 Q15.0 6.3 15.25 5.95 L15.95 5.5 Q16.35 5.45 16.6 5.8 L16.85 6.6 16.65 7.5" fill="#c6c6c6" fill-rule="evenodd" stroke="none"/>
    <path d="M7.55 -15.05 Q7.3 -14.7 6.9 -14.65 6.5 -14.6 6.2 -14.9 L5.9 -15.75 6.15 -16.6 6.85 -17.05 Q7.25 -17.1 7.5 -16.75 L7.75 -15.95 7.55 -15.05" fill="#c6c6c6" fill-rule="evenodd" stroke="none"/>
  </g>
</svg>
