<?xml version="1.0" encoding="UTF-8" standalone="no"?>
<svg xmlns:ffdec="https://www.free-decompiler.com/flash" xmlns:xlink="http://www.w3.org/1999/xlink" ffdec:objectType="shape" height="8.85px" width="10.7px" xmlns="http://www.w3.org/2000/svg">
  <g transform="matrix(1.0, 0.0, 0.0, 1.0, 4.3, 4.0)">
    <path d="M6.4 -2.25 Q3.15 -1.3 3.4 0.2 3.6 1.65 5.05 2.45 L2.95 2.15 Q2.5 2.35 3.25 4.45 1.5 2.75 0.75 2.65 0.0 2.6 -1.4 4.85 -1.05 3.6 -1.5 2.9 -1.95 2.15 -4.0 3.2 -2.05 1.25 -2.15 0.55 -2.3 -0.15 -4.3 -0.3 -2.5 -0.45 -2.1 -0.85 -1.7 -1.3 -2.5 -2.65 -0.15 -1.2 -0.2 -4.0 1.4 -1.8 2.5 -3.65 2.2 -2.2 2.65 -1.85 L6.4 -2.25" fill="#fce225" fill-opacity="0.47058824" fill-rule="evenodd" stroke="none"/>
    <path d="M3.0 0.2 Q3.15 1.4 4.35 2.05 L2.65 1.8 Q2.25 2.0 2.85 3.7 1.45 2.3 0.85 2.25 0.2 2.15 -0.95 4.05 -0.65 3.0 -1.0 2.4 -1.4 1.8 -3.05 2.65 -1.45 1.05 -1.55 0.5 -1.65 -0.05 -3.3 -0.2 -1.85 -0.3 -1.5 -0.65 -1.2 -1.0 -1.85 -2.15 0.1 -0.9 0.15 -2.75 1.35 -1.45 2.3 -2.95 2.05 -1.75 2.35 -1.45 L5.45 -1.8 Q2.8 -1.0 3.0 0.2" fill="#f5a226" fill-rule="evenodd" stroke="none"/>
    <path d="M1.95 -2.1 Q1.6 -1.2 1.85 -1.0 L4.05 -1.15 Q2.1 -0.65 2.25 0.2 2.35 1.1 3.5 1.65 L2.25 1.45 Q1.95 1.55 2.4 2.85 1.6 1.45 0.7 1.65 -0.15 1.8 -0.4 3.0 -0.3 2.3 -0.6 1.75 -1.0 1.15 -2.4 2.2 -0.85 0.9 -0.9 0.5 -1.0 0.1 -2.4 -0.05 -1.1 -0.15 -0.85 -0.4 -0.6 -0.65 -1.1 -1.45 0.3 -0.55 0.25 -2.35 0.85 -0.65 1.95 -2.1" fill="#f55e26" fill-rule="evenodd" stroke="none"/>
  </g>
</svg>
