<?xml version="1.0" encoding="UTF-8" standalone="no"?>
<svg xmlns:ffdec="https://www.free-decompiler.com/flash" xmlns:xlink="http://www.w3.org/1999/xlink" ffdec:objectType="shape" height="16.3px" width="19.55px" xmlns="http://www.w3.org/2000/svg">
  <g transform="matrix(1.0, 0.0, 0.0, 1.0, 8.7, 7.75)">
    <path d="M10.85 -4.5 Q4.95 -2.75 5.35 -0.05 5.75 2.65 8.4 4.1 5.5 3.1 4.6 3.55 3.7 3.9 5.05 7.75 1.9 4.65 0.5 4.5 -0.85 4.35 -3.45 8.55 -2.8 6.2 -3.6 4.9 -4.4 3.55 -8.2 5.4 -4.6 1.9 -4.8 0.65 -5.05 -0.65 -8.7 -0.95 -5.4 -1.2 -4.7 -1.95 -4.0 -2.75 -5.45 -5.3 -1.1 -2.55 -1.25 -7.75 1.7 -3.7 3.75 -7.1 3.2 -4.4 3.95 -3.8 4.7 -3.15 10.85 -4.5" fill="#fce225" fill-opacity="0.47058824" fill-rule="evenodd" stroke="none"/>
    <path d="M4.5 -0.4 Q4.15 1.05 7.1 3.45 4.7 2.65 4.0 3.0 3.25 3.3 4.35 6.45 1.75 3.85 0.65 3.75 -0.5 3.65 -2.95 7.05 -2.1 5.2 -2.75 4.1 -3.4 3.0 -6.5 4.55 -3.6 1.65 -3.75 0.6 -3.95 -0.45 -6.95 -0.7 -4.25 -0.9 -3.65 -1.55 -3.05 -2.2 -4.25 -4.25 -0.7 -2.05 -0.6 -5.35 1.6 -2.95 3.3 -5.75 2.85 -3.55 3.45 -3.05 L6.6 -3.25 Q4.85 -1.85 4.5 -0.4" fill="#f5a226" fill-rule="evenodd" stroke="none"/>
    <path d="M2.5 -4.0 Q1.9 -2.15 2.35 -1.8 2.8 -1.45 5.65 -2.6 3.25 -1.1 3.25 -0.1 3.25 0.85 4.9 2.3 L2.95 2.05 Q2.5 2.2 3.15 4.25 1.9 2.05 0.55 2.35 -0.65 2.55 -1.5 4.25 -1.1 3.2 -1.5 2.5 -2.15 1.6 -4.1 3.05 -1.95 1.25 -2.3 0.55 -2.7 -0.15 -4.45 -0.7 L-2.1 -0.9 Q-1.7 -1.3 -2.8 -2.85 -0.05 -1.1 -0.15 -4.4 0.8 -1.25 2.5 -4.0" fill="#f55e26" fill-rule="evenodd" stroke="none"/>
  </g>
</svg>
