<?xml version="1.0" encoding="UTF-8" standalone="no"?>
<svg xmlns:ffdec="https://www.free-decompiler.com/flash" xmlns:xlink="http://www.w3.org/1999/xlink" ffdec:objectType="shape" height="27.1px" width="32.55px" xmlns="http://www.w3.org/2000/svg">
  <g transform="matrix(1.0, 0.0, 0.0, 1.0, 15.2, 13.1)">
    <path d="M17.35 -7.7 Q7.5 -4.85 8.2 -0.3 8.85 4.2 13.25 6.55 8.4 4.95 6.95 5.65 5.45 6.3 7.7 12.65 2.45 7.5 0.15 7.25 -2.15 7.0 -6.45 14.0 -5.4 10.15 -6.7 7.9 -8.05 5.65 -14.35 8.8 -8.4 2.95 -8.75 0.85 -9.1 -1.25 -15.2 -1.85 -9.7 -2.25 -8.55 -3.5 -7.35 -4.85 -9.8 -9.05 -2.6 -4.5 -2.8 -13.1 2.1 -6.4 5.55 -12.05 4.65 -7.55 5.9 -6.5 7.15 -5.45 17.35 -7.7" fill="#fce225" fill-opacity="0.47058824" fill-rule="evenodd" stroke="none"/>
    <path d="M7.1 -0.95 Q7.5 3.45 10.4 5.05 6.75 4.05 5.65 4.65 4.5 5.1 6.2 10.25 2.15 6.1 -0.4 6.15 -2.8 6.15 -5.05 10.4 -4.0 7.95 -4.85 6.4 -5.85 4.65 -10.1 6.25 -5.9 2.8 -6.15 1.0 -6.45 -0.9 -9.75 -1.75 -7.15 -1.7 -6.25 -2.7 -5.35 -3.8 -7.75 -7.3 -1.1 -2.95 -1.85 -10.4 0.65 -5.05 4.55 -9.55 3.8 -5.95 4.8 -5.15 5.6 -4.5 10.95 -5.75 6.8 -4.15 7.1 -0.95" fill="#f5a226" fill-rule="evenodd" stroke="none"/>
    <path d="M3.15 -5.8 Q2.3 -3.2 2.95 -2.7 3.55 -2.2 7.6 -3.85 4.2 -1.75 4.2 -0.3 4.2 1.0 6.5 3.05 4.4 2.35 3.75 2.7 3.15 2.9 4.05 5.8 2.3 2.7 0.4 3.15 -1.3 3.4 -2.5 5.8 -1.95 4.35 -2.5 3.35 -3.4 2.1 -6.15 4.1 -3.15 1.6 -3.65 0.6 -4.2 -0.4 -6.65 -1.15 L-3.35 -1.45 Q-2.8 -2.0 -4.35 -4.2 -0.45 -1.75 -0.6 -6.4 0.75 -1.95 3.15 -5.8" fill="#f55e26" fill-rule="evenodd" stroke="none"/>
    <path d="M8.05 1.3 L7.2 1.0 7.45 0.25 8.35 0.4 8.05 1.3 M8.2 0.25 L7.6 0.0 8.1 -2.35 9.2 -2.0 8.2 0.25 M5.35 1.0 L4.55 1.25 3.05 -0.95 3.9 1.55 3.15 1.8 1.95 -1.45 3.35 -1.95 4.5 -0.1 4.35 -2.3 5.65 -2.8 6.75 0.55 6.0 0.85 5.1 -1.65 5.35 1.0 M-2.65 1.3 L-2.25 0.95 Q-2.1 0.6 -2.3 0.05 -2.45 -0.45 -2.75 -0.6 L-3.35 -0.6 -3.8 -0.25 Q-3.95 0.0 -3.7 0.55 L-3.25 1.25 -2.65 1.3 M-3.6 -1.35 L-2.2 -1.4 Q-1.55 -1.2 -1.25 -0.35 L-1.1 0.7 Q-1.15 1.15 -1.55 1.5 -1.8 1.85 -2.35 2.0 L-3.4 2.2 -3.65 2.15 -3.4 2.35 -3.25 2.95 -3.5 3.5 -2.85 3.4 -2.25 3.85 -2.1 4.4 -2.2 4.9 -2.45 5.2 -2.9 5.55 -4.6 6.75 -6.8 3.5 -4.95 2.25 Q-4.45 1.9 -4.0 2.0 L-3.7 2.1 -4.2 1.85 -4.8 0.95 Q-5.0 0.1 -4.8 -0.55 -4.45 -1.1 -3.6 -1.35 M-4.55 3.8 L-4.2 3.5 -4.3 3.25 -4.5 3.05 -4.9 3.2 -5.3 3.55 -4.95 4.2 -4.55 3.8 M-4.55 4.75 L-4.15 5.4 -3.55 5.1 -3.25 4.7 -3.3 4.4 Q-3.4 4.2 -3.6 4.25 L-4.05 4.4 -4.55 4.75 M0.15 0.35 L1.8 0.3 Q2.5 0.6 2.85 1.55 L2.95 2.8 2.5 3.7 1.55 4.25 0.35 4.45 -0.6 4.05 -1.25 2.95 Q-1.55 2.1 -1.25 1.3 -0.9 0.65 0.15 0.35 M0.5 3.4 L1.2 3.45 1.65 2.95 1.6 2.0 1.1 1.25 0.45 1.25 Q0.0 1.3 -0.1 1.6 L-0.05 2.55 0.5 3.4" fill="#5d0101" fill-rule="evenodd" stroke="none"/>
    <path d="M-4.25 1.35 Q-3.75 1.35 -3.65 1.7 -3.4 2.0 -3.45 2.3 L-3.7 2.8 -3.0 2.7 -2.45 3.15 Q-2.3 3.4 -2.3 3.7 -2.2 3.95 -2.35 4.2 L-2.65 4.5 -3.1 4.95 -4.8 6.05 -7.05 2.8 -5.15 1.55 -4.25 1.35 M-4.7 2.35 L-5.1 2.55 -5.5 2.85 -5.15 3.5 -4.75 3.15 -4.35 2.75 -4.5 2.6 -4.7 2.35 M-4.25 3.7 L-4.75 4.05 -4.3 4.7 -3.7 4.35 -3.45 4.0 -3.5 3.7 Q-3.65 3.55 -3.75 3.55 -3.95 3.45 -4.25 3.7" fill="#ffffff" fill-rule="evenodd" stroke="none"/>
    <path d="M2.65 0.85 L2.8 2.05 2.35 2.95 1.35 3.55 0.15 3.7 -0.75 3.35 -1.4 2.3 Q-1.75 1.4 -1.4 0.65 -1.05 -0.05 -0.05 -0.35 L1.6 -0.45 Q2.35 -0.15 2.65 0.85 M0.9 0.55 Q0.6 0.4 0.25 0.55 L-0.3 0.95 Q-0.45 1.25 -0.2 1.85 0.0 2.45 0.3 2.65 L1.0 2.75 1.5 2.3 1.45 1.3 0.9 0.55" fill="#ffffff" fill-rule="evenodd" stroke="none"/>
    <path d="M-4.95 -1.25 Q-4.65 -1.8 -3.8 -2.1 L-2.35 -2.15 Q-1.7 -1.9 -1.45 -1.05 L-1.3 0.0 Q-1.35 0.4 -1.7 0.8 L-2.55 1.3 -3.6 1.45 -4.4 1.1 -4.95 0.2 Q-5.25 -0.6 -4.95 -1.25 M-3.95 -0.2 L-3.45 0.55 -2.9 0.6 -2.4 0.2 Q-2.3 -0.1 -2.5 -0.65 L-2.95 -1.3 -3.55 -1.3 -4.0 -0.95 -3.95 -0.2" fill="#ffffff" fill-rule="evenodd" stroke="none"/>
    <path d="M4.9 -2.3 L5.15 0.35 4.4 0.6 2.9 -1.65 3.75 0.85 2.95 1.1 1.8 -2.2 3.15 -2.65 4.35 -0.8 4.15 -3.0 5.45 -3.45 6.6 -0.15 5.8 0.15 4.9 -2.3" fill="#ffffff" fill-rule="evenodd" stroke="none"/>
    <path d="M8.95 -2.7 L8.7 -1.95 8.0 -0.5 7.4 -0.65 7.7 -2.3 7.95 -3.05 8.95 -2.7 M6.95 0.35 L7.25 -0.45 8.15 -0.2 7.85 0.6 6.95 0.35" fill="#ffffff" fill-rule="evenodd" stroke="none"/>
  </g>
</svg>
