<?xml version="1.0" encoding="UTF-8" standalone="no"?>
<svg xmlns:ffdec="https://www.free-decompiler.com/flash" xmlns:xlink="http://www.w3.org/1999/xlink" ffdec:objectType="shape" height="29.35px" width="35.25px" xmlns="http://www.w3.org/2000/svg">
  <g transform="matrix(1.0, 0.0, 0.0, 1.0, 16.5, 14.15)">
    <path d="M18.75 -8.3 Q8.05 -5.2 8.8 -0.25 9.5 4.6 14.25 7.15 9.05 5.4 7.45 6.2 5.85 6.85 8.25 13.75 2.6 8.15 0.1 7.9 -2.4 7.6 -7.05 15.2 -5.9 11.05 -7.35 8.6 -8.8 6.2 -15.6 9.6 -9.15 3.2 -9.55 0.95 -9.9 -1.35 -16.5 -1.95 -10.6 -2.4 -9.3 -3.75 -8.05 -5.2 -10.7 -9.75 -2.85 -4.8 -3.1 -14.15 2.2 -6.85 5.9 -13.0 4.95 -8.15 6.3 -7.0 7.65 -5.9 18.75 -8.3" fill="#fce225" fill-opacity="0.47058824" fill-rule="evenodd" stroke="none"/>
    <path d="M5.35 -11.45 Q4.5 -7.2 5.65 -6.15 L12.15 -6.4 Q7.55 -5.0 7.4 -0.75 7.2 2.85 11.4 5.6 9.15 4.5 7.5 5.2 5.25 6.15 7.45 12.25 2.55 6.7 -0.25 6.65 -3.05 6.55 -5.8 12.0 -4.35 8.35 -7.2 6.9 -10.05 5.4 -12.7 7.5 -8.05 2.7 -8.35 0.9 -8.65 -1.1 -14.55 -1.65 -9.25 -2.1 -8.15 -3.3 -7.05 -4.55 -9.4 -8.6 -2.45 -4.2 -2.65 -12.5 2.05 -6.05 5.35 -11.45" fill="#f5a226" fill-rule="evenodd" stroke="none"/>
    <path d="M-8.05 1.45 Q-7.2 1.5 -6.85 2.1 -6.45 2.75 -6.55 3.3 -6.6 3.75 -7.0 4.3 L-5.65 4.1 -4.55 4.9 Q-4.25 5.45 -4.25 5.95 -4.15 6.5 -4.45 7.05 -4.45 7.3 -4.95 7.6 L-5.8 8.4 -9.15 10.55 -13.4 4.3 -9.75 1.9 Q-8.8 1.25 -8.05 1.45 M-9.7 3.75 L-10.55 4.4 -9.8 5.6 Q-9.25 5.35 -8.95 4.95 -8.45 4.7 -8.3 4.2 L-8.55 3.85 Q-8.65 3.45 -8.95 3.4 L-9.7 3.75 M-8.05 6.05 L-9.05 6.7 -8.15 8.0 -7.05 7.3 -6.5 6.6 Q-6.45 6.3 -6.65 6.1 -6.9 5.7 -7.15 5.8 -7.5 5.55 -8.05 6.05" fill="#5d0101" fill-rule="evenodd" stroke="none"/>
    <path d="M3.25 -6.65 Q2.3 -3.7 3.05 -3.15 3.75 -2.6 8.3 -4.4 4.45 -2.0 4.45 -0.45 4.45 1.1 7.1 3.4 4.7 2.6 4.0 3.0 3.25 3.25 4.3 6.5 2.3 3.0 0.15 3.45 -1.75 3.8 -3.1 6.5 -2.45 4.8 -3.1 3.7 -4.15 2.25 -7.25 4.6 -3.8 1.7 -4.35 0.6 -5.0 -0.5 -7.8 -1.4 L-4.05 -1.7 Q-3.4 -2.35 -5.15 -4.8 -0.8 -2.0 -0.95 -7.3 0.55 -2.25 3.25 -6.65" fill="#f55e26" fill-rule="evenodd" stroke="none"/>
    <path d="M0.25 1.15 Q-0.15 0.95 -0.65 1.15 -1.15 1.25 -1.35 1.65 -1.55 2.05 -1.25 2.85 L-0.55 3.95 0.35 4.05 Q0.85 3.85 1.05 3.45 1.25 2.95 0.95 2.15 0.65 1.35 0.25 1.15 M2.55 1.55 Q2.85 2.45 2.75 3.15 2.65 3.75 2.15 4.35 L0.85 5.15 -0.75 5.35 Q-1.45 5.25 -1.95 4.85 -2.55 4.35 -2.85 3.45 -3.25 2.25 -2.85 1.25 -2.35 0.35 -1.05 -0.05 L1.15 -0.15 Q2.15 0.25 2.55 1.55" fill="#5d0101" fill-rule="evenodd" stroke="none"/>
    <path d="M-8.15 -1.9 Q-7.55 -2.9 -6.1 -3.35 L-3.6 -3.5 Q-2.5 -3.05 -2.05 -1.55 -1.7 -0.55 -1.8 0.25 L-2.5 1.6 Q-3.05 2.15 -3.95 2.5 L-5.75 2.75 Q-6.55 2.6 -7.1 2.15 -7.8 1.6 -8.15 0.6 -8.6 -0.75 -8.15 -1.9 M-5.65 -2.0 L-6.45 -1.45 Q-6.65 -1.0 -6.35 -0.1 L-5.55 1.15 -4.5 1.25 -3.75 0.6 Q-3.5 0.0 -3.85 -0.9 -4.2 -1.8 -4.65 -2.0 -5.1 -2.25 -5.65 -2.0" fill="#5d0101" fill-rule="evenodd" stroke="none"/>
    <path d="M7.05 -2.4 L7.5 2.15 6.2 2.6 3.6 -1.2 5.1 3.0 3.7 3.45 1.75 -2.15 4.05 -2.95 6.1 0.2 5.75 -3.6 Q6.95 -3.9 8.05 -4.35 L10.0 1.3 8.6 1.85 7.05 -2.4" fill="#5d0101" fill-rule="evenodd" stroke="none"/>
    <path d="M11.9 -5.15 L11.55 -3.95 10.5 -1.7 9.5 -2.05 9.95 -4.5 10.35 -5.7 11.9 -5.15 M8.8 -0.45 L9.3 -1.75 Q9.95 -1.45 10.7 -1.3 L10.2 -0.05 8.8 -0.45" fill="#5d0101" fill-rule="evenodd" stroke="none"/>
    <path d="M-8.2 0.4 Q-7.35 0.45 -7.0 1.05 -6.6 1.7 -6.7 2.25 -6.75 2.7 -7.15 3.25 L-5.8 3.05 -4.7 3.85 Q-4.4 4.4 -4.4 4.9 -4.3 5.45 -4.6 6.0 L-5.1 6.55 -5.95 7.35 -9.3 9.5 -13.55 3.25 -9.9 0.85 Q-8.95 0.2 -8.2 0.4 M-9.1 2.35 L-9.85 2.7 -10.7 3.35 -9.95 4.55 -9.1 3.9 Q-8.6 3.65 -8.45 3.15 L-8.7 2.8 Q-8.8 2.4 -9.1 2.35 M-8.2 5.0 L-9.2 5.65 -8.3 6.95 -7.2 6.25 -6.65 5.55 Q-6.6 5.25 -6.8 5.05 -7.05 4.65 -7.3 4.75 -7.65 4.5 -8.2 5.0" fill="#ffffff" fill-rule="evenodd" stroke="none"/>
    <path d="M2.45 0.55 Q2.75 1.45 2.65 2.15 2.55 2.75 2.05 3.35 L0.75 4.15 -0.85 4.35 Q-1.55 4.25 -2.05 3.85 L-2.95 2.45 Q-3.35 1.25 -2.95 0.25 -2.45 -0.65 -1.15 -1.05 L1.05 -1.15 Q2.05 -0.75 2.45 0.55 M0.15 0.15 Q-0.25 -0.05 -0.75 0.15 L-1.45 0.65 Q-1.65 1.05 -1.35 1.85 L-0.65 2.95 0.25 3.05 0.95 2.45 Q1.15 1.95 0.85 1.15 0.55 0.35 0.15 0.15" fill="#ffffff" fill-rule="evenodd" stroke="none"/>
    <path d="M-7.2 1.05 L-8.25 -0.5 Q-8.7 -1.85 -8.25 -3.0 -7.65 -4.0 -6.2 -4.45 L-3.7 -4.6 Q-2.6 -4.15 -2.15 -2.65 -1.8 -1.65 -1.9 -0.85 -2.05 -0.2 -2.6 0.5 -3.15 1.05 -4.05 1.4 L-5.85 1.65 -7.2 1.05 M-4.6 0.15 Q-4.05 -0.05 -3.85 -0.5 -3.6 -1.1 -3.95 -2.0 -4.3 -2.9 -4.75 -3.1 -5.2 -3.35 -5.75 -3.1 L-6.55 -2.55 Q-6.75 -2.1 -6.45 -1.2 -6.1 -0.3 -5.65 0.05 L-4.6 0.15" fill="#ffffff" fill-rule="evenodd" stroke="none"/>
    <path d="M7.05 -3.4 L7.5 1.15 6.2 1.6 3.6 -2.2 5.1 2.0 3.7 2.45 1.75 -3.15 4.05 -3.95 6.1 -0.8 5.75 -4.6 Q6.95 -4.9 8.05 -5.35 L10.0 0.3 8.6 0.85 7.05 -3.4" fill="#ffffff" fill-rule="evenodd" stroke="none"/>
    <path d="M11.9 -5.85 L11.55 -4.65 10.5 -2.4 9.5 -2.75 9.95 -5.2 10.35 -6.4 11.9 -5.85 M8.8 -1.15 L9.3 -2.45 Q9.95 -2.15 10.7 -2.0 L10.2 -0.75 8.8 -1.15" fill="#ffffff" fill-rule="evenodd" stroke="none"/>
  </g>
</svg>
