<?xml version="1.0" encoding="UTF-8" standalone="no"?>
<svg xmlns:ffdec="https://www.free-decompiler.com/flash" xmlns:xlink="http://www.w3.org/1999/xlink" ffdec:objectType="shape" height="30.9px" width="37.1px" xmlns="http://www.w3.org/2000/svg">
  <g transform="matrix(1.0, 0.0, 0.0, 1.0, 17.45, 15.05)">
    <path d="M19.65 -8.9 Q8.4 -5.6 9.2 -0.4 9.9 4.7 14.95 7.4 9.45 5.55 7.75 6.35 6.1 7.1 8.65 14.35 2.65 8.45 0.0 8.2 -2.6 7.9 -7.5 15.85 -6.3 11.45 -7.8 8.9 -9.3 6.35 -16.5 9.95 -9.7 3.25 -10.1 0.85 -10.5 -1.55 -17.45 -2.2 -11.25 -2.65 -9.85 -4.1 -8.5 -5.6 -11.3 -10.4 -3.1 -5.2 -3.35 -15.05 2.25 -7.35 6.15 -13.85 5.15 -8.7 6.55 -7.55 8.0 -6.35 19.65 -8.9" fill="#f5a226" fill-opacity="0.7294118" fill-rule="evenodd" stroke="none"/>
    <path d="M7.4 -0.75 Q7.2 2.85 11.4 5.6 9.15 4.5 7.5 5.2 5.25 6.15 7.45 12.25 2.55 6.7 -0.25 6.65 -3.05 6.55 -5.8 12.0 -4.35 8.35 -7.2 6.9 -10.05 5.4 -12.7 7.5 -8.05 2.7 -8.35 0.9 -8.65 -1.1 -14.55 -1.65 -9.25 -2.1 -8.15 -3.3 -7.05 -4.55 -9.4 -8.6 -2.45 -4.2 -2.65 -12.5 2.05 -6.05 5.35 -11.45 4.5 -7.2 5.65 -6.15 L12.15 -6.4 Q7.55 -5.0 7.4 -0.75" fill="#f5a226" fill-rule="evenodd" stroke="none"/>
    <path d="M3.65 -7.6 Q2.55 -4.25 3.4 -3.6 4.2 -3.0 9.35 -5.05 5.0 -2.35 5.0 -0.55 5.0 1.2 8.0 3.8 5.3 2.9 4.45 3.35 3.65 3.65 4.85 7.35 2.55 3.35 0.1 3.9 -2.05 4.3 -3.6 7.35 -2.85 5.45 -3.6 4.2 -4.8 2.55 -8.3 5.2 -4.4 1.9 -5.05 0.65 -5.8 -0.6 -8.95 -1.6 -5.5 -1.25 -4.7 -2.0 -3.95 -2.7 -5.95 -5.5 -0.95 -2.35 -1.15 -8.35 0.55 -2.6 3.65 -7.6" fill="#f55e26" fill-rule="evenodd" stroke="none"/>
    <path d="M12.8 -3.7 L11.8 -1.65 10.95 -1.95 11.4 -4.25 11.75 -5.4 13.15 -4.85 12.8 -3.7 M8.8 -5.05 L10.35 -0.55 10.75 -1.65 12.05 -1.3 11.6 -0.05 10.35 -0.4 10.95 1.25 9.35 1.85 7.7 -2.85 8.2 2.2 6.7 2.75 3.8 -1.55 5.5 3.2 3.9 3.7 1.8 -2.6 4.35 -3.45 6.6 0.05 6.25 -4.2 8.8 -5.05 M-3.6 -3.35 Q-2.45 -2.9 -2.05 -1.45 -1.75 -0.6 -1.75 0.05 L-1.0 -0.25 1.5 -0.35 Q2.7 0.1 3.1 1.6 L3.35 3.45 2.7 4.8 Q2.1 5.4 1.2 5.7 L-0.65 5.95 -2.05 5.4 Q-2.7 4.8 -3.05 3.8 L-3.3 2.3 -3.95 2.6 -5.8 2.85 Q-6.55 2.75 -7.1 2.25 -7.8 1.7 -8.15 0.7 -8.55 -0.65 -8.15 -1.75 -7.55 -2.8 -6.1 -3.25 L-3.6 -3.35 M-3.85 -0.75 Q-4.2 -1.65 -4.6 -1.9 -5.1 -2.15 -5.65 -1.9 L-6.45 -1.35 Q-6.7 -0.9 -6.3 0.0 L-5.55 1.25 -4.55 1.35 Q-3.95 1.15 -3.7 0.7 -3.5 0.1 -3.85 -0.75 M-7.15 5.0 L-5.75 4.75 Q-5.0 5.0 -4.55 5.65 -4.25 6.15 -4.25 6.75 -4.05 7.35 -4.35 7.9 L-4.95 8.45 -5.85 9.3 -9.45 11.6 -13.95 5.0 -10.1 2.45 Q-9.05 1.65 -8.3 1.9 -7.35 1.95 -7.05 2.65 -6.55 3.3 -6.7 3.95 -6.7 4.4 -7.15 5.0 M-0.5 1.15 Q-1.1 1.25 -1.35 1.7 -1.6 2.15 -1.25 3.1 L-0.45 4.35 0.6 4.45 1.35 3.8 Q1.6 3.2 1.25 2.25 0.95 1.35 0.5 1.15 0.0 0.9 -0.5 1.15 M-7.35 6.6 Q-7.7 6.35 -8.35 6.8 L-9.35 7.55 -8.35 8.95 -7.2 8.2 Q-6.7 7.7 -6.7 7.4 -6.55 7.1 -6.8 6.85 -7.05 6.45 -7.35 6.6 M-8.75 4.5 Q-8.85 4.05 -9.2 4.05 L-10.0 4.35 -10.9 5.1 -10.1 6.35 -9.2 5.7 -8.5 4.9 -8.75 4.5" fill="#5d0101" fill-rule="evenodd" stroke="none"/>
    <path d="M-8.45 0.4 Q-7.55 0.5 -7.2 1.15 -6.75 1.75 -6.85 2.4 -6.9 2.9 -7.4 3.45 L-5.9 3.2 Q-5.25 3.45 -4.75 4.15 -4.45 4.65 -4.45 5.25 -4.3 5.85 -4.6 6.35 L-5.2 7.0 -6.05 7.8 -9.65 10.1 -14.2 3.45 -10.3 0.9 Q-9.25 0.15 -8.45 0.4 M-9.45 2.5 L-10.2 2.85 -11.1 3.55 -10.35 4.8 Q-9.75 4.55 -9.45 4.15 -8.95 3.85 -8.75 3.35 L-9.0 2.95 Q-9.1 2.55 -9.45 2.5 M-8.55 5.25 L-9.55 6.0 -8.55 7.4 -7.45 6.65 Q-6.9 6.2 -6.85 5.85 L-7.0 5.3 Q-7.25 4.9 -7.55 5.0 -7.95 4.8 -8.55 5.25" fill="#ffffff" fill-rule="evenodd" stroke="none"/>
    <path d="M2.95 0.55 Q3.3 1.55 3.15 2.35 L2.5 3.75 Q1.9 4.3 1.0 4.65 L-0.85 4.9 -2.2 4.3 Q-2.9 3.75 -3.25 2.7 -3.7 1.35 -3.25 0.2 -2.7 -0.85 -1.2 -1.3 L1.35 -1.4 Q2.5 -0.95 2.95 0.55 M0.3 0.1 Q-0.15 -0.15 -0.75 0.1 -1.3 0.2 -1.55 0.65 -1.75 1.1 -1.4 2.0 -1.05 2.95 -0.6 3.3 L0.4 3.4 Q1.0 3.15 1.2 2.7 1.45 2.15 1.1 1.2 0.75 0.3 0.3 0.1" fill="#ffffff" fill-rule="evenodd" stroke="none"/>
    <path d="M-7.2 1.05 L-8.25 -0.5 Q-8.7 -1.85 -8.25 -3.0 -7.65 -4.0 -6.2 -4.45 L-3.7 -4.6 Q-2.6 -4.15 -2.15 -2.65 -1.8 -1.65 -1.9 -0.85 -2.05 -0.2 -2.6 0.5 -3.15 1.05 -4.05 1.4 L-5.85 1.65 -7.2 1.05 M-4.6 0.15 Q-4.05 -0.05 -3.85 -0.5 -3.6 -1.1 -3.95 -2.0 -4.3 -2.9 -4.75 -3.1 -5.2 -3.35 -5.75 -3.1 L-6.55 -2.55 Q-6.75 -2.1 -6.45 -1.2 -6.1 -0.3 -5.65 0.05 L-4.6 0.15" fill="#ffffff" fill-rule="evenodd" stroke="none"/>
    <path d="M7.6 -4.1 L8.1 0.95 6.65 1.45 3.75 -2.8 5.45 1.9 3.9 2.4 1.7 -3.9 Q3.05 -4.25 4.25 -4.75 L6.55 -1.2 6.15 -5.45 8.7 -6.3 10.9 0.0 9.3 0.6 7.6 -4.1" fill="#ffffff" fill-rule="evenodd" stroke="none"/>
    <path d="M13.1 -5.8 L12.75 -4.7 11.75 -2.55 10.9 -2.9 11.3 -5.2 11.7 -6.3 Q12.35 -6.0 13.1 -5.8 M10.25 -1.45 L10.65 -2.6 11.95 -2.2 11.5 -1.05 10.25 -1.45" fill="#ffffff" fill-rule="evenodd" stroke="none"/>
  </g>
</svg>
