<?xml version="1.0" encoding="UTF-8" standalone="no"?>
<svg xmlns:ffdec="https://www.free-decompiler.com/flash" xmlns:xlink="http://www.w3.org/1999/xlink" ffdec:objectType="shape" height="37.25px" width="40.9px" xmlns="http://www.w3.org/2000/svg">
  <g transform="matrix(1.0, 0.0, 0.0, 1.0, 21.25, 16.5)">
    <path d="M9.2 -0.4 Q9.95 4.7 14.95 7.4 9.5 5.55 7.75 6.35 6.1 7.05 8.65 14.35 3.85 10.6 1.0 9.9 -1.9 9.05 -7.2 20.75 -6.25 11.5 -7.8 8.9 -9.3 6.35 -16.45 9.95 -10.8 3.95 -11.3 1.65 -11.85 -0.7 -21.25 -3.55 -11.25 -2.65 -9.9 -4.1 -8.5 -5.6 -12.9 -12.45 -3.05 -5.2 -3.3 -16.5 2.25 -7.35 7.55 -15.25 6.45 -9.7 7.7 -8.4 8.95 -7.1 19.65 -8.9 8.4 -5.6 9.2 -0.4" fill="#fce225" fill-opacity="0.47058824" fill-rule="evenodd" stroke="none"/>
    <path d="M7.85 -0.3 Q7.65 3.5 12.05 6.4 9.7 5.25 7.95 5.95 5.6 6.95 7.9 13.4 2.75 7.55 -0.2 7.5 -3.15 7.4 -6.0 13.1 -4.5 9.3 -7.5 7.75 -10.45 6.2 -13.25 8.4 -8.35 3.35 -8.7 1.45 -9.0 -0.65 -15.2 -1.2 -9.65 -1.7 -8.5 -2.95 -7.3 -4.25 -9.8 -8.5 -2.5 -3.9 -2.7 -12.6 2.25 -5.85 5.7 -11.5 4.8 -7.05 6.0 -5.95 L12.85 -6.2 Q8.0 -4.75 7.85 -0.3" fill="#f5a226" fill-rule="evenodd" stroke="none"/>
    <path d="M-5.45 0.3 Q-6.6 0.5 -7.9 -0.15 -9.3 -0.75 -9.95 -1.85 -10.55 -2.85 -10.1 -3.7 -9.7 -4.6 -8.55 -4.8 -7.35 -4.9 -5.95 -4.3 -4.65 -3.65 -4.05 -2.65 -3.35 -1.65 -3.8 -0.75 -4.2 0.1 -5.45 0.3" fill="#484037" fill-rule="evenodd" stroke="none"/>
    <path d="M-4.45 4.7 Q-4.8 5.8 -5.9 6.45 -7.0 7.15 -8.2 6.95 -9.35 6.8 -9.9 5.9 -10.4 5.0 -10.05 3.9 -9.65 2.8 -8.55 2.1 -7.45 1.45 -6.3 1.65 -5.1 1.75 -4.6 2.65 -4.05 3.55 -4.45 4.7" fill="#484037" fill-rule="evenodd" stroke="none"/>
    <path d="M-0.75 9.5 Q-1.65 10.6 -3.0 10.6 -4.35 10.6 -5.35 9.5 -6.25 8.35 -6.25 6.75 -6.25 5.15 -5.35 4.05 -4.35 2.9 -3.0 2.9 -1.65 2.9 -0.75 4.05 0.2 5.15 0.2 6.75 0.2 8.35 -0.75 9.5" fill="#484037" fill-rule="evenodd" stroke="none"/>
    <path d="M-0.7 -2.2 Q-1.8 -0.95 -3.45 -1.1 -5.1 -1.25 -6.25 -2.75 -7.35 -4.15 -7.35 -6.05 -7.35 -7.95 -6.25 -9.15 -5.1 -10.35 -3.45 -10.2 -1.8 -10.05 -0.7 -8.6 0.45 -7.2 0.45 -5.3 0.45 -3.4 -0.7 -2.2" fill="#484037" fill-rule="evenodd" stroke="none"/>
    <path d="M1.05 -1.8 Q-0.1 -2.3 -0.55 -3.6 -0.95 -4.95 -0.4 -6.35 0.15 -7.75 1.3 -8.35 L3.7 -8.55 Q4.9 -8.1 5.3 -6.8 5.8 -5.5 5.25 -4.1 4.7 -2.7 3.45 -2.05 2.25 -1.35 1.05 -1.8" fill="#484037" fill-rule="evenodd" stroke="none"/>
    <path d="M4.15 10.25 Q3.4 11.0 2.25 11.0 1.15 11.0 0.35 10.25 -0.4 9.5 -0.4 8.4 -0.4 7.35 0.35 6.6 1.15 5.85 2.25 5.85 3.4 5.85 4.15 6.6 4.9 7.35 4.9 8.4 4.9 9.5 4.15 10.25" fill="#484037" fill-rule="evenodd" stroke="none"/>
    <path d="M7.85 6.0 Q6.7 7.1 5.05 7.1 3.4 7.1 2.2 6.0 1.1 4.85 1.1 3.25 1.1 1.65 2.2 0.55 3.4 -0.6 5.05 -0.6 6.7 -0.6 7.85 0.55 9.05 1.65 9.05 3.25 9.05 4.85 7.85 6.0" fill="#484037" fill-rule="evenodd" stroke="none"/>
    <path d="M9.6 0.25 Q8.55 1.15 6.95 1.15 5.4 1.15 4.3 0.25 3.25 -0.65 3.25 -1.9 3.25 -3.15 4.3 -4.0 5.4 -4.85 6.95 -4.85 8.55 -4.85 9.6 -4.0 10.65 -3.15 10.65 -1.9 10.65 -0.65 9.6 0.25" fill="#484037" fill-rule="evenodd" stroke="none"/>
    <path d="M-5.3 -0.9 Q-4.55 -0.15 -4.6 0.95 -4.65 2.05 -5.45 2.8 -6.2 3.5 -7.25 3.45 -8.3 3.4 -9.0 2.65 -9.7 1.85 -9.65 0.75 -9.6 -0.35 -8.85 -1.05 -8.1 -1.8 -7.05 -1.75 -6.0 -1.7 -5.3 -0.9" fill="#484037" fill-rule="evenodd" stroke="none"/>
    <path d="M11.05 -2.85 L11.75 -2.6 12.75 -4.65 12.9 -5.2 13.1 -5.15 12.75 -4.0 11.9 -2.25 10.95 -2.5 11.05 -2.85 M7.75 -3.05 L7.65 -4.15 9.3 0.55 10.65 0.05 10.9 0.7 9.3 1.3 7.75 -3.05 M10.75 -0.6 L10.5 -1.35 11.55 -1.0 11.8 -1.65 11.95 -1.6 11.55 -0.35 10.75 -0.6 M6.45 -1.35 L6.15 -4.75 6.25 -4.75 6.55 -1.25 6.45 -1.35 M1.95 -3.2 L3.85 2.35 5.2 2.0 5.45 2.65 3.85 3.15 1.75 -3.15 1.95 -3.2 M4.35 -1.2 L3.75 -2.85 6.65 1.45 8.05 0.95 8.1 1.65 6.65 2.2 4.35 -1.2 M-3.8 -0.7 L-3.95 -1.3 Q-4.3 -2.2 -4.7 -2.4 -5.2 -2.65 -5.8 -2.4 -6.3 -2.3 -6.55 -1.9 L-6.6 -1.75 Q-6.75 -2.3 -6.55 -2.6 L-5.8 -3.15 Q-5.2 -3.35 -4.7 -3.15 L-3.95 -2.0 Q-3.65 -1.25 -3.8 -0.7 M3.15 2.35 L3.15 3.15 2.5 4.5 Q1.9 5.1 1.0 5.4 L-0.8 5.65 -2.25 5.1 Q-2.9 4.5 -3.25 3.5 L-3.4 1.8 -4.05 2.1 -5.9 2.3 Q-6.45 2.25 -6.85 2.0 L-7.2 1.15 -7.35 0.95 -7.2 1.0 Q-6.7 1.5 -5.9 1.6 L-4.05 1.35 -3.4 1.05 -3.4 1.8 -3.25 2.75 Q-2.9 3.75 -2.25 4.35 L-0.8 4.85 1.0 4.6 Q1.9 4.35 2.5 3.75 L3.15 2.35 M-6.85 2.6 L-6.85 3.2 -6.85 3.25 -7.35 3.45 -6.85 2.6 M-4.45 6.05 Q-4.25 6.6 -4.55 7.1 L-5.15 7.7 -6.05 8.55 -9.65 10.85 -14.15 4.2 -13.8 3.95 -9.65 10.05 -6.05 7.75 -5.15 6.95 -4.55 6.35 -4.45 6.05 M-8.15 0.4 L-8.3 0.2 -8.45 -1.45 -8.3 -0.55 -7.65 0.6 -8.15 0.4 M1.25 2.55 L1.1 1.95 Q0.8 1.05 0.3 0.85 -0.15 0.6 -0.7 0.85 L-1.55 1.45 -1.55 1.55 -1.55 0.65 -0.7 0.05 Q-0.15 -0.15 0.3 0.05 0.8 0.3 1.1 1.2 L1.25 2.55 M-6.9 6.15 L-6.95 6.1 Q-7.2 5.7 -7.5 5.8 -7.85 5.55 -8.5 6.05 L-9.15 6.5 -9.5 6.0 -8.5 5.3 Q-7.85 4.8 -7.5 5.05 -7.2 4.9 -6.95 5.35 -6.75 5.55 -6.85 5.85 L-6.9 6.15 M-10.75 4.1 L-11.05 3.55 -10.15 2.8 -9.4 2.5 Q-9.05 2.5 -8.95 2.95 L-8.7 3.4 -8.95 3.75 Q-9.05 3.25 -9.4 3.25 L-10.15 3.55 -10.75 4.1" fill="#930000" fill-rule="evenodd" stroke="none"/>
    <path d="M12.9 -5.2 L12.75 -4.65 11.75 -2.6 11.05 -2.85 10.9 -2.9 11.3 -5.2 11.7 -6.35 13.1 -5.8 12.9 -5.2 M10.95 -2.5 L11.9 -2.25 11.95 -2.25 11.8 -1.65 11.55 -1.0 10.5 -1.35 10.75 -0.6 10.9 -0.05 10.65 0.05 9.3 0.55 7.65 -4.15 7.75 -3.05 8.1 0.9 8.05 0.95 6.65 1.45 3.75 -2.85 4.35 -1.2 5.45 1.9 5.2 2.0 3.85 2.35 1.95 -3.2 1.75 -3.9 4.3 -4.75 6.45 -1.35 6.55 -1.25 6.25 -4.75 6.15 -5.5 8.7 -6.35 10.35 -1.65 10.65 -2.6 10.95 -2.5 M-3.8 -0.7 Q-3.65 -1.25 -3.95 -2.0 L-4.7 -3.15 Q-5.2 -3.35 -5.8 -3.15 L-6.55 -2.6 Q-6.75 -2.3 -6.6 -1.75 L-6.45 -1.25 Q-6.1 -0.35 -5.65 0.0 L-4.65 0.1 Q-4.05 -0.1 -3.85 -0.55 L-3.8 -0.7 M-8.45 -1.45 L-8.3 -3.0 Q-7.7 -4.0 -6.2 -4.5 L-3.7 -4.6 Q-2.6 -4.15 -2.2 -2.7 -1.8 -1.7 -1.9 -1.0 L-1.15 -1.3 1.3 -1.4 Q2.5 -0.95 2.9 0.55 L3.15 2.3 3.15 2.35 2.5 3.75 Q1.9 4.35 1.0 4.6 L-0.8 4.85 -2.25 4.35 Q-2.9 3.75 -3.25 2.75 L-3.4 1.8 -3.4 1.05 -4.05 1.35 -5.9 1.6 Q-6.7 1.5 -7.2 1.0 L-7.35 0.95 -7.2 1.15 -6.85 2.0 -6.85 2.45 -6.85 2.6 -7.35 3.45 -6.85 3.25 -5.9 3.2 -4.7 4.1 Q-4.45 4.6 -4.45 5.2 -4.3 5.65 -4.45 6.05 L-4.55 6.35 -5.15 6.95 -6.05 7.75 -9.65 10.05 -13.8 3.95 -14.15 3.45 -10.3 0.9 Q-9.2 0.1 -8.45 0.35 L-8.15 0.4 -7.65 0.6 -8.3 -0.55 -8.45 -1.45 M1.25 2.55 L1.1 1.2 Q0.8 0.3 0.3 0.05 -0.15 -0.15 -0.7 0.05 L-1.55 0.65 -1.55 1.55 -1.4 2.0 -0.65 3.25 0.45 3.4 1.2 2.75 1.25 2.55 M-9.15 6.5 L-8.5 7.4 -7.4 6.65 -6.9 6.15 -6.85 5.85 Q-6.75 5.55 -6.95 5.35 -7.2 4.9 -7.5 5.05 -7.85 4.8 -8.5 5.3 L-9.5 6.0 -9.15 6.5 M-8.95 3.75 L-8.7 3.4 -8.95 2.95 Q-9.05 2.5 -9.4 2.5 L-10.15 2.8 -11.05 3.55 -10.75 4.1 -10.3 4.8 -9.4 4.15 -8.95 3.75" fill="#ffffff" fill-rule="evenodd" stroke="none"/>
    <path d="M4.0 6.1 Q2.25 7.7 -0.15 7.7 -2.6 7.7 -4.3 6.1 -6.05 4.5 -6.05 2.25 -6.05 0.0 -4.3 -1.6 -2.6 -3.2 -0.15 -3.2 2.25 -3.2 4.0 -1.6 5.7 0.0 5.7 2.25 5.7 4.5 4.0 6.1" fill="#484037" fill-rule="evenodd" stroke="none"/>
    <path d="M-1.1 14.1 L-1.85 13.85 -2.45 13.05 -2.5 12.15 -2.05 11.75 Q-1.65 11.75 -1.25 12.05 L-0.65 12.85 Q-0.45 13.3 -0.55 13.7 L-1.1 14.1" fill="#484037" fill-rule="evenodd" stroke="none"/>
    <path d="M1.75 -9.35 Q1.2 -9.3 0.6 -9.75 0.0 -10.2 -0.3 -10.9 -0.6 -11.55 -0.4 -12.1 -0.2 -12.65 0.3 -12.75 0.85 -12.75 1.5 -12.3 L2.35 -11.15 Q2.7 -10.5 2.5 -9.95 2.3 -9.45 1.75 -9.35" fill="#484037" fill-rule="evenodd" stroke="none"/>
    <path d="M3.5 -11.1 Q3.15 -11.05 2.75 -11.35 L2.15 -12.15 Q1.95 -12.65 2.1 -13.05 L2.55 -13.45 3.35 -13.15 3.95 -12.35 4.05 -11.5 3.5 -11.1" fill="#484037" fill-rule="evenodd" stroke="none"/>
    <path d="M-4.5 -0.4 Q-3.35 -1.45 -1.8 -1.45 L-0.6 -1.3 Q-1.45 -1.05 -2.1 -0.4 -3.25 0.6 -3.25 2.1 -3.25 3.55 -2.1 4.55 -1.45 5.2 -0.6 5.45 L-1.8 5.65 Q-3.35 5.65 -4.5 4.55 -5.6 3.55 -5.6 2.1 -5.6 0.6 -4.5 -0.4" fill="#72675a" fill-rule="evenodd" stroke="none"/>
    <path d="M-0.05 -4.0 Q-0.25 -5.5 -1.05 -6.6 -2.0 -8.05 -3.5 -8.15 -4.95 -8.35 -5.95 -7.15 -6.75 -6.2 -6.9 -4.75 L-6.95 -5.55 Q-6.95 -7.45 -5.95 -8.6 -4.95 -9.8 -3.5 -9.65 -2.0 -9.5 -1.05 -8.1 0.0 -6.65 0.0 -4.75 L-0.05 -4.0" fill="#72675a" fill-rule="evenodd" stroke="none"/>
    <path d="M7.85 6.0 Q6.7 7.1 5.05 7.1 3.4 7.1 2.2 6.0 1.1 4.85 1.1 3.25 1.1 1.65 2.2 0.55 3.4 -0.6 5.05 -0.6 6.7 -0.6 7.85 0.55 9.05 1.65 9.05 3.25 9.05 4.85 7.85 6.0" fill="#484037" fill-rule="evenodd" stroke="none"/>
    <path d="M-6.45 6.05 Q-6.3 7.2 -5.6 8.05 -4.65 9.2 -3.25 9.2 -1.95 9.2 -1.0 8.05 -0.3 7.2 -0.15 6.05 L-0.05 6.75 Q-0.05 8.35 -1.0 9.5 -1.95 10.6 -3.25 10.6 -4.65 10.6 -5.6 9.5 -6.55 8.35 -6.55 6.75 L-6.45 6.05" fill="#72675a" fill-rule="evenodd" stroke="none"/>
  </g>
</svg>
