<?xml version="1.0" encoding="UTF-8" standalone="no"?>
<svg xmlns:ffdec="https://www.free-decompiler.com/flash" xmlns:xlink="http://www.w3.org/1999/xlink" ffdec:objectType="shape" height="44.4px" width="45.0px" xmlns="http://www.w3.org/2000/svg">
  <g transform="matrix(1.0, 0.0, 0.0, 1.0, 23.3, 21.65)">
    <path d="M8.35 -16.8 Q7.2 -10.7 8.55 -9.3 9.9 -7.85 21.7 -9.8 9.3 -6.2 10.2 -0.45 11.05 5.1 16.45 8.1 10.5 6.1 8.6 6.95 6.75 7.7 9.6 15.7 4.35 11.55 0.65 9.7 -3.05 7.8 -7.85 22.75 -6.85 12.6 -8.5 9.7 -10.15 6.95 -18.05 10.9 -9.4 5.05 -10.9 1.45 -12.4 -2.25 -23.3 -3.95 -12.2 -2.95 -9.3 -4.55 -6.45 -6.2 -15.9 -15.7 -3.3 -5.75 -4.25 -21.65 -0.2 -0.9 8.35 -16.8" fill="#fce225" fill-opacity="0.47058824" fill-rule="evenodd" stroke="none"/>
    <path d="M-6.35 -1.9 Q-7.55 -1.7 -8.9 -2.35 -10.2 -2.95 -10.85 -4.0 -11.5 -5.05 -11.1 -5.95 -10.65 -6.8 -9.5 -6.95 -8.25 -7.1 -6.95 -6.5 -5.6 -5.85 -5.0 -4.85 -4.3 -3.8 -4.75 -2.95 -5.15 -2.05 -6.35 -1.9" fill="#7b6d5e" fill-rule="evenodd" stroke="none"/>
    <path d="M-5.6 5.3 Q-6.0 6.4 -7.1 7.0 -8.25 7.65 -9.45 7.45 -10.65 7.25 -11.2 6.35 -11.7 5.45 -11.3 4.4 -10.9 3.3 -9.75 2.65 -8.65 2.05 -7.45 2.25 -6.25 2.4 -5.75 3.3 -5.2 4.2 -5.6 5.3" fill="#7b6d5e" fill-rule="evenodd" stroke="none"/>
    <path d="M-0.45 11.45 Q-1.2 12.55 -2.3 12.55 -3.35 12.55 -4.1 11.45 -4.85 10.3 -4.85 8.7 -4.85 7.1 -4.1 6.0 -3.35 4.85 -2.3 4.85 -1.2 4.85 -0.45 6.0 0.3 7.1 0.3 8.7 0.3 10.3 -0.45 11.45" fill="#7b6d5e" fill-rule="evenodd" stroke="none"/>
    <path d="M-0.75 -4.6 Q-1.85 -3.35 -3.5 -3.5 -5.15 -3.65 -6.3 -5.15 -7.4 -6.55 -7.4 -8.45 -7.4 -10.35 -6.3 -11.55 -5.15 -12.75 -3.5 -12.6 -1.85 -12.45 -0.75 -11.0 0.4 -9.6 0.4 -7.7 0.4 -5.8 -0.75 -4.6" fill="#7b6d5e" fill-rule="evenodd" stroke="none"/>
    <path d="M2.95 -4.15 Q1.75 -3.45 0.55 -3.9 -0.6 -4.4 -1.05 -5.7 -1.45 -7.05 -0.9 -8.45 -0.35 -9.85 0.8 -10.45 L3.2 -10.65 Q4.4 -10.2 4.8 -8.9 5.3 -7.6 4.75 -6.2 4.2 -4.8 2.95 -4.15" fill="#7b6d5e" fill-rule="evenodd" stroke="none"/>
    <path d="M7.5 9.65 Q6.75 10.4 5.6 10.4 4.5 10.4 3.7 9.65 2.95 8.9 2.95 7.8 2.95 6.75 3.7 6.0 4.5 5.25 5.6 5.25 6.75 5.25 7.5 6.0 8.25 6.75 8.25 7.8 8.25 8.9 7.5 9.65" fill="#7b6d5e" fill-rule="evenodd" stroke="none"/>
    <path d="M9.9 4.7 Q8.75 5.8 7.1 5.8 5.45 5.8 4.25 4.7 3.15 3.55 3.15 1.95 3.15 0.35 4.25 -0.75 5.45 -1.9 7.1 -1.9 8.75 -1.9 9.9 -0.75 11.1 0.35 11.1 1.95 11.1 3.55 9.9 4.7" fill="#7b6d5e" fill-rule="evenodd" stroke="none"/>
    <path d="M9.3 -2.0 Q8.25 -1.1 6.65 -1.1 5.1 -1.1 4.0 -2.0 2.95 -2.9 2.95 -4.15 2.95 -5.4 4.0 -6.25 5.1 -7.1 6.65 -7.1 8.25 -7.1 9.3 -6.25 10.35 -5.4 10.35 -4.15 10.35 -2.9 9.3 -2.0" fill="#7b6d5e" fill-rule="evenodd" stroke="none"/>
    <path d="M-7.6 -2.0 Q-6.85 -1.25 -6.9 -0.15 -6.95 0.95 -7.75 1.7 -8.5 2.4 -9.55 2.35 -10.6 2.3 -11.3 1.55 -12.0 0.75 -11.95 -0.35 -11.9 -1.45 -11.15 -2.15 -10.4 -2.9 -9.35 -2.85 -8.3 -2.8 -7.6 -2.0" fill="#7b6d5e" fill-rule="evenodd" stroke="none"/>
    <path d="M4.1 6.45 Q1.8 8.75 -1.4 8.75 -4.6 8.75 -6.85 6.45 -9.1 4.2 -9.1 1.0 -9.1 -2.2 -6.85 -4.5 -4.6 -6.75 -1.4 -6.75 1.8 -6.75 4.1 -4.5 6.35 -2.2 6.35 1.0 6.35 4.2 4.1 6.45" fill="#7b6d5e" fill-rule="evenodd" stroke="none"/>
    <path d="M2.4 -17.45 Q2.6 -18.05 3.25 -18.35 3.85 -18.6 4.5 -18.35 L5.5 -17.45 5.65 -16.55 6.25 -15.9 Q6.45 -15.25 6.25 -14.7 6.0 -14.1 5.4 -13.8 L4.1 -13.85 Q3.55 -14.05 3.35 -14.45 L3.1 -14.3 1.8 -14.4 Q1.15 -14.6 0.85 -15.2 0.55 -15.85 0.8 -16.45 1.0 -17.05 1.65 -17.35 L2.4 -17.45" fill="#7b6d5e" fill-rule="evenodd" stroke="none"/>
    <path d="M-0.35 13.95 Q-0.75 14.3 -1.3 14.3 L-2.3 13.95 -2.65 13.0 Q-2.65 12.45 -2.3 12.05 -1.85 11.65 -1.3 11.65 -0.75 11.65 -0.35 12.05 0.05 12.45 0.05 13.0 0.05 13.55 -0.35 13.95" fill="#7b6d5e" fill-rule="evenodd" stroke="none"/>
    <path d="M0.9 15.05 L0.25 15.3 -0.45 15.05 -0.75 14.35 -0.45 13.7 Q-0.15 13.4 0.25 13.4 0.65 13.4 0.9 13.7 L1.2 14.35 0.9 15.05" fill="#7b6d5e" fill-rule="evenodd" stroke="none"/>
    <path d="M-11.95 3.85 L-13.4 3.6 Q-14.2 3.2 -14.65 2.6 -14.95 1.95 -14.75 1.45 -14.5 0.95 -13.8 0.85 -13.05 0.7 -12.25 1.1 -11.5 1.45 -11.1 2.1 -10.75 2.7 -11.0 3.2 -11.2 3.7 -11.95 3.85" fill="#7b6d5e" fill-rule="evenodd" stroke="none"/>
    <path d="M3.5 9.85 Q2.75 10.6 1.6 10.6 0.5 10.6 -0.3 9.85 -1.05 9.1 -1.05 8.0 -1.05 6.95 -0.3 6.2 0.5 5.45 1.6 5.45 2.75 5.45 3.5 6.2 4.25 6.95 4.25 8.0 4.25 9.1 3.5 9.85" fill="#7b6d5e" fill-rule="evenodd" stroke="none"/>
    <path d="M-4.25 9.35 L-6.35 9.3 Q-7.25 8.7 -7.3 7.3 -7.25 6.0 -6.35 4.65 -5.5 3.3 -4.25 2.75 L-2.1 2.9 Q-1.2 3.5 -1.2 4.8 -1.2 6.15 -2.05 7.5 -2.95 8.85 -4.25 9.35" fill="#7b6d5e" fill-rule="evenodd" stroke="none"/>
    <path d="M-8.95 -2.8 L-10.15 -2.15 Q-10.9 -1.4 -10.95 -0.35 -11.0 0.8 -10.3 1.6 L-8.95 2.35 -9.6 2.35 Q-10.6 2.3 -11.3 1.6 -12.0 0.8 -11.95 -0.35 -11.9 -1.4 -11.2 -2.15 -10.35 -2.9 -9.35 -2.85 L-8.95 -2.8" fill="#665645" fill-rule="evenodd" stroke="none"/>
    <path d="M-4.8 4.4 Q-4.5 5.2 -3.5 5.65 L-0.6 5.75 0.25 5.35 Q-0.65 6.45 -1.75 6.95 L-3.9 6.85 Q-4.8 6.3 -4.85 4.9 L-4.8 4.4" fill="#665645" fill-rule="evenodd" stroke="none"/>
    <path d="M1.4 6.45 Q1.9 6.9 2.65 7.0 3.6 7.2 4.45 6.55 5.4 5.9 5.55 4.9 5.6 4.05 5.3 3.35 L5.7 3.85 Q6.25 4.7 6.15 5.7 6.0 6.7 5.05 7.35 4.25 7.95 3.3 7.8 2.15 7.65 1.6 6.8 L1.4 6.45" fill="#665645" fill-rule="evenodd" stroke="none"/>
    <path d="M-12.95 1.2 L-14.1 0.9 -13.8 0.8 -12.25 1.05 Q-11.4 1.45 -11.05 2.0 -10.7 2.75 -10.95 3.2 -11.2 3.75 -11.9 3.8 L-12.9 3.75 -11.7 3.2 Q-11.05 2.75 -11.6 2.1 -12.15 1.45 -12.95 1.2" fill="#665645" fill-rule="evenodd" stroke="none"/>
    <path d="M-6.25 6.1 L-5.9 5.95 -7.15 7.0 Q-8.3 7.65 -9.45 7.45 -10.6 7.25 -11.2 6.35 -11.7 5.45 -11.3 4.4 -10.95 3.45 -10.05 2.8 L-10.4 3.5 Q-10.8 4.55 -10.3 5.45 -9.7 6.35 -8.55 6.6 -7.4 6.75 -6.25 6.1" fill="#665645" fill-rule="evenodd" stroke="none"/>
    <path d="M-0.75 -9.75 Q-1.8 -11.2 -3.5 -11.3 -5.15 -11.5 -6.25 -10.3 -7.2 -9.35 -7.35 -7.85 L-7.4 -8.5 Q-7.4 -10.4 -6.25 -11.6 -5.15 -12.8 -3.5 -12.6 -1.8 -12.5 -0.75 -11.05 0.45 -9.65 0.45 -7.75 L0.45 -7.1 Q0.2 -8.6 -0.75 -9.75" fill="#665645" fill-rule="evenodd" stroke="none"/>
    <path d="M9.2 -3.2 Q9.3 -4.3 8.4 -5.5 7.55 -6.7 5.1 -6.7 L4.75 -6.7 6.65 -7.1 Q8.25 -7.1 9.3 -6.25 10.35 -5.4 10.35 -4.15 10.35 -2.9 9.3 -2.0 L8.8 -1.6 9.2 -3.2" fill="#665645" fill-rule="evenodd" stroke="none"/>
    <path d="M3.2 -10.65 Q4.4 -10.2 4.8 -8.9 5.3 -7.55 4.7 -6.15 4.2 -4.9 3.2 -4.25 L3.6 -5.1 Q4.2 -6.5 3.75 -7.8 3.35 -9.1 2.15 -9.6 L-0.3 -9.4 -0.45 -9.3 0.8 -10.45 3.2 -10.65" fill="#665645" fill-rule="evenodd" stroke="none"/>
    <path d="M-0.45 10.45 Q0.2 9.5 0.3 8.25 L0.3 8.7 Q0.3 10.3 -0.45 11.45 -1.15 12.55 -2.25 12.55 -3.35 12.55 -4.15 11.45 -4.85 10.3 -4.85 8.7 L-4.8 8.25 Q-4.7 9.5 -4.15 10.45 -3.35 11.55 -2.25 11.55 -1.15 11.55 -0.45 10.45" fill="#665645" fill-rule="evenodd" stroke="none"/>
    <path d="M7.65 7.1 Q7.65 6.35 7.25 5.75 L7.45 6.0 Q8.3 6.7 8.3 7.75 8.3 8.85 7.45 9.6 6.75 10.35 5.65 10.35 4.5 10.35 3.75 9.6 L3.45 9.25 Q4.1 9.7 5.0 9.7 6.1 9.7 6.8 8.95 7.65 8.2 7.65 7.1" fill="#665645" fill-rule="evenodd" stroke="none"/>
    <path d="M-3.65 2.45 Q-4.3 3.15 -5.3 3.15 -6.3 3.15 -7.05 2.45 -7.7 1.8 -7.7 0.85 -7.7 -0.1 -7.05 -0.8 -6.3 -1.45 -5.3 -1.45 -4.3 -1.45 -3.65 -0.8 -2.95 -0.1 -2.95 0.85 -2.95 1.8 -3.65 2.45" fill="#958574" fill-rule="evenodd" stroke="none"/>
    <path d="M-3.55 0.25 Q-3.95 0.7 -4.55 0.7 -5.15 0.7 -5.55 0.25 -5.95 -0.15 -5.95 -0.8 -5.95 -1.45 -5.55 -1.95 -5.15 -2.35 -4.55 -2.35 -3.95 -2.35 -3.55 -1.95 -3.15 -1.45 -3.15 -0.8 -3.15 -0.15 -3.55 0.25" fill="#958574" fill-rule="evenodd" stroke="none"/>
    <path d="M4.55 5.65 Q4.0 6.25 3.2 6.25 2.45 6.25 1.9 5.65 1.3 5.1 1.3 4.25 1.3 3.45 1.9 2.85 2.45 2.3 3.2 2.3 4.0 2.3 4.55 2.85 5.1 3.45 5.1 4.25 5.1 5.1 4.55 5.65" fill="#958574" fill-rule="evenodd" stroke="none"/>
    <path d="M6.1 3.1 Q5.55 3.7 4.75 3.7 4.0 3.7 3.45 3.1 2.85 2.55 2.85 1.7 2.85 0.9 3.45 0.3 4.0 -0.25 4.75 -0.25 5.55 -0.25 6.1 0.3 6.65 0.9 6.65 1.7 6.65 2.55 6.1 3.1" fill="#958574" fill-rule="evenodd" stroke="none"/>
    <path d="M4.4 4.15 Q3.65 4.9 2.55 4.9 1.4 4.9 0.6 4.15 -0.15 3.4 -0.15 2.3 -0.15 1.25 0.6 0.45 1.4 -0.3 2.55 -0.3 3.65 -0.3 4.4 0.45 5.2 1.25 5.2 2.3 5.2 3.4 4.4 4.15" fill="#7b6d5e" fill-rule="evenodd" stroke="none"/>
    <path d="M-1.95 3.1 Q-2.7 3.85 -3.8 3.85 -4.95 3.85 -5.75 3.1 -6.5 2.35 -6.5 1.25 -6.5 0.2 -5.75 -0.6 -4.95 -1.35 -3.8 -1.35 -2.7 -1.35 -1.95 -0.6 -1.15 0.2 -1.15 1.25 -1.15 2.35 -1.95 3.1" fill="#7b6d5e" fill-rule="evenodd" stroke="none"/>
    <path d="M0.9 -5.85 L2.95 -5.6 Q3.95 -5.05 4.2 -4.0 4.55 -2.95 4.0 -2.05 L3.85 -1.7 Q4.15 -2.5 3.85 -3.4 3.6 -4.4 2.6 -4.95 L0.55 -5.25 Q-0.3 -5.0 -0.75 -4.3 L-0.65 -4.7 Q-0.1 -5.6 0.9 -5.85" fill="#665645" fill-rule="evenodd" stroke="none"/>
    <path d="M-7.75 -5.15 Q-7.75 -6.15 -7.0 -6.75 -6.25 -7.4 -5.25 -7.2 -4.25 -7.05 -3.55 -6.25 L-3.35 -6.0 Q-3.9 -6.55 -4.8 -6.65 -5.75 -6.85 -6.5 -6.2 -7.25 -5.6 -7.3 -4.6 -7.25 -3.75 -6.8 -3.1 L-7.05 -3.3 Q-7.75 -4.1 -7.75 -5.15" fill="#665645" fill-rule="evenodd" stroke="none"/>
  </g>
</svg>
