<?xml version="1.0" encoding="UTF-8" standalone="no"?>
<svg xmlns:ffdec="https://www.free-decompiler.com/flash" xmlns:xlink="http://www.w3.org/1999/xlink" ffdec:objectType="shape" height="46.05px" width="46.65px" xmlns="http://www.w3.org/2000/svg">
  <g transform="matrix(1.0, 0.0, 0.0, 1.0, 24.15, 22.5)">
    <path d="M8.7 -17.45 Q7.45 -11.1 8.85 -9.65 10.25 -8.2 22.5 -10.2 9.65 -6.45 10.6 -0.5 11.45 5.25 17.1 8.4 10.9 6.3 8.9 7.15 7.0 7.95 9.95 16.25 4.5 11.95 0.7 10.05 -3.15 8.1 -8.15 23.55 -7.1 13.05 -8.8 10.05 -10.55 7.15 -18.7 11.3 -9.75 5.2 -11.3 1.45 -12.85 -2.35 -24.15 -4.1 -12.65 -3.1 -9.6 -4.75 -6.65 -6.45 -16.5 -16.3 -3.4 -5.95 -4.4 -22.5 -0.25 -0.95 8.7 -17.45" fill="#ffffff" fill-opacity="0.4392157" fill-rule="evenodd" stroke="none"/>
    <path d="M-7.7 -2.6 Q-9.1 -2.3 -10.65 -3.05 -12.2 -3.8 -12.95 -5.05 -13.7 -6.25 -13.2 -7.25 -12.75 -8.25 -11.35 -8.45 -9.95 -8.65 -8.4 -7.9 -6.85 -7.15 -6.1 -6.0 -5.35 -4.75 -5.8 -3.75 -6.3 -2.75 -7.7 -2.6" fill="#ad9d78" fill-rule="evenodd" stroke="none"/>
    <path d="M-6.15 6.45 Q-6.6 7.7 -7.9 8.4 -9.25 9.15 -10.6 8.9 -11.95 8.7 -12.6 7.65 -13.25 6.6 -12.75 5.35 -12.3 4.15 -10.95 3.4 -9.65 2.7 -8.3 2.9 -6.95 3.1 -6.3 4.15 -5.65 5.2 -6.15 6.45" fill="#ad9d78" fill-rule="evenodd" stroke="none"/>
    <path d="M1.35 14.3 Q0.15 15.65 -1.7 15.65 -3.5 15.65 -4.8 14.3 -6.05 13.0 -6.05 11.15 -6.05 9.3 -4.8 8.0 -3.5 6.7 -1.7 6.7 0.15 6.7 1.35 8.0 2.65 9.3 2.65 11.15 2.65 13.0 1.35 14.3" fill="#ad9d78" fill-rule="evenodd" stroke="none"/>
    <path d="M-0.55 -5.1 Q-1.85 -3.65 -3.75 -3.85 -5.65 -4.05 -7.0 -5.7 -8.3 -7.4 -8.3 -9.6 -8.3 -11.75 -7.0 -13.15 -5.65 -14.6 -3.75 -14.4 -1.85 -14.2 -0.55 -12.55 0.8 -10.85 0.8 -8.7 0.8 -6.5 -0.55 -5.1" fill="#ad9d78" fill-rule="evenodd" stroke="none"/>
    <path d="M4.8 -4.0 Q3.25 -3.3 1.6 -3.95 0.0 -4.6 -0.75 -6.2 -1.4 -7.8 -0.75 -9.4 -0.1 -11.0 1.45 -11.7 3.1 -12.4 4.7 -11.75 6.35 -11.1 7.0 -9.5 7.7 -7.9 7.05 -6.3 6.4 -4.7 4.8 -4.0" fill="#ad9d78" fill-rule="evenodd" stroke="none"/>
    <path d="M9.0 11.45 Q8.15 12.35 6.85 12.35 5.6 12.35 4.65 11.45 3.8 10.6 3.8 9.35 3.8 8.1 4.65 7.25 5.6 6.35 6.85 6.35 8.15 6.35 9.0 7.25 9.95 8.1 9.95 9.35 9.95 10.6 9.0 11.45" fill="#ad9d78" fill-rule="evenodd" stroke="none"/>
    <path d="M11.8 5.7 Q10.5 7.05 8.6 7.05 6.65 7.05 5.3 5.7 3.95 4.4 3.95 2.55 3.95 0.7 5.3 -0.6 6.65 -1.9 8.6 -1.9 10.5 -1.9 11.8 -0.6 13.2 0.7 13.2 2.55 13.2 4.4 11.8 5.7" fill="#ad9d78" fill-rule="evenodd" stroke="none"/>
    <path d="M11.15 -2.05 Q9.9 -1.0 8.05 -1.0 6.25 -1.0 4.95 -2.05 3.8 -3.05 3.8 -4.5 3.8 -5.95 4.95 -7.0 6.25 -7.95 8.05 -7.95 9.9 -7.95 11.15 -7.0 12.4 -5.95 12.4 -4.5 12.4 -3.05 11.15 -2.05" fill="#ad9d78" fill-rule="evenodd" stroke="none"/>
    <path d="M-8.5 -2.05 Q-7.65 -1.1 -7.7 0.15 -7.75 1.4 -8.7 2.3 -9.55 3.1 -10.75 3.05 -12.0 3.0 -12.85 2.15 -13.65 1.15 -13.6 -0.1 -13.55 -1.35 -12.65 -2.2 -11.8 -3.1 -10.55 -3.05 -9.35 -3.0 -8.5 -2.05" fill="#ad9d78" fill-rule="evenodd" stroke="none"/>
    <path d="M-3.65 4.25 Q-4.95 5.55 -6.75 5.55 -8.55 5.55 -9.8 4.25 -11.1 3.0 -11.1 1.15 -11.1 -0.65 -9.8 -1.9 -8.55 -3.2 -6.75 -3.2 -4.95 -3.2 -3.65 -1.9 -2.4 -0.65 -2.4 1.15 -2.4 3.0 -3.65 4.25" fill="#ad9d78" fill-rule="evenodd" stroke="none"/>
    <path d="M4.2 -20.45 L4.7 -20.95 5.4 -20.95 6.0 -20.45 6.05 -19.95 6.4 -19.6 6.4 -18.9 5.9 -18.35 5.15 -18.4 4.75 -18.75 4.6 -18.7 Q4.25 -18.55 3.85 -18.7 L3.3 -19.2 Q3.15 -19.55 3.3 -19.9 3.4 -20.25 3.8 -20.4 L4.2 -20.45" fill="#ad9d78" fill-rule="evenodd" stroke="none"/>
    <path d="M-1.35 16.65 L-1.95 16.9 -2.55 16.65 -2.75 16.1 -2.55 15.5 Q-2.3 15.25 -1.95 15.25 -1.55 15.25 -1.35 15.5 -1.1 15.75 -1.1 16.1 L-1.35 16.65" fill="#ad9d78" fill-rule="evenodd" stroke="none"/>
    <path d="M1.4 17.7 Q1.1 18.05 0.6 18.05 0.15 18.05 -0.2 17.7 L-0.5 16.95 -0.2 16.15 Q0.15 15.85 0.6 15.85 1.1 15.85 1.4 16.15 1.75 16.5 1.75 16.95 1.75 17.4 1.4 17.7" fill="#ad9d78" fill-rule="evenodd" stroke="none"/>
    <path d="M-16.4 4.5 Q-16.85 4.3 -16.95 3.7 -17.05 3.2 -16.8 2.6 -16.5 2.0 -16.0 1.7 L-15.05 1.6 Q-14.65 1.8 -14.55 2.4 -14.45 2.95 -14.75 3.55 -15.0 4.15 -15.5 4.4 L-16.4 4.5" fill="#ad9d78" fill-rule="evenodd" stroke="none"/>
    <path d="M4.35 11.7 Q3.5 12.6 2.2 12.6 0.95 12.6 0.0 11.7 -0.85 10.85 -0.85 9.6 -0.85 8.35 0.0 7.5 0.95 6.6 2.2 6.6 3.5 6.6 4.35 7.5 5.3 8.35 5.3 9.6 5.3 10.85 4.35 11.7" fill="#ad9d78" fill-rule="evenodd" stroke="none"/>
    <path d="M-4.55 11.15 L-7.0 11.1 Q-8.05 10.4 -8.1 8.8 -8.05 7.25 -7.05 5.7 -6.0 4.15 -4.6 3.5 L-2.05 3.65 Q-1.0 4.35 -1.05 5.85 -1.0 7.45 -2.05 9.0 -3.05 10.55 -4.55 11.15" fill="#ad9d78" fill-rule="evenodd" stroke="none"/>
    <path d="M4.95 -21.55 L4.65 -21.45 4.35 -21.55 Q4.2 -21.65 4.2 -21.85 L4.35 -22.15 4.65 -22.25 4.95 -22.15 5.05 -21.85 4.95 -21.55" fill="#ad9d78" fill-rule="evenodd" stroke="none"/>
    <path d="M-1.8 -2.25 Q-2.65 -1.4 -3.85 -1.4 -5.0 -1.4 -5.85 -2.25 -6.65 -3.1 -6.65 -4.25 -6.65 -5.45 -5.85 -6.25 -5.0 -7.1 -3.85 -7.1 -2.65 -7.1 -1.8 -6.25 -1.0 -5.45 -1.0 -4.25 -1.0 -3.1 -1.8 -2.25" fill="#ad9d78" fill-rule="evenodd" stroke="none"/>
    <path d="M5.55 -1.9 Q4.7 -1.05 3.5 -1.05 2.35 -1.05 1.5 -1.9 0.7 -2.75 0.7 -3.9 0.7 -5.1 1.5 -5.9 2.35 -6.75 3.5 -6.75 4.7 -6.75 5.55 -5.9 6.35 -5.1 6.35 -3.9 6.35 -2.75 5.55 -1.9" fill="#ad9d78" fill-rule="evenodd" stroke="none"/>
    <path d="M6.55 8.0 Q5.7 8.85 4.5 8.85 3.35 8.85 2.5 8.0 1.7 7.15 1.7 6.0 1.7 4.8 2.5 4.0 3.35 3.15 4.5 3.15 5.7 3.15 6.55 4.0 7.35 4.8 7.35 6.0 7.35 7.15 6.55 8.0" fill="#ad9d78" fill-rule="evenodd" stroke="none"/>
    <path d="M1.5 8.0 Q0.65 8.85 -0.55 8.85 -1.7 8.85 -2.55 8.0 -3.35 7.15 -3.35 6.0 -3.35 4.8 -2.55 4.0 -1.7 3.15 -0.55 3.15 0.65 3.15 1.5 4.0 2.3 4.8 2.3 6.0 2.3 7.15 1.5 8.0" fill="#ad9d78" fill-rule="evenodd" stroke="none"/>
    <path d="M-8.45 2.9 Q-9.3 2.95 -10.05 3.45 -11.35 4.15 -11.85 5.4 -12.3 6.6 -11.65 7.65 -11.0 8.7 -9.7 8.95 L-9.45 9.0 -10.65 8.95 Q-11.95 8.7 -12.6 7.65 -13.25 6.6 -12.8 5.4 -12.3 4.15 -11.0 3.45 -9.75 2.75 -8.45 2.9" fill="#80714f" fill-rule="evenodd" stroke="none"/>
    <path d="M-6.75 -3.25 Q-4.9 -3.25 -3.65 -1.95 -2.35 -0.65 -2.35 1.15 -2.35 2.25 -3.9 3.05 -3.5 2.15 -3.5 1.15 -3.5 -0.65 -4.8 -1.95 -5.85 -3.0 -7.25 -3.2 L-6.75 -3.25" fill="#8c7d5a" fill-rule="evenodd" stroke="none"/>
    <path d="M-6.25 -6.2 L-8.0 -7.3 Q-9.2 -8.0 -10.6 -7.7 -11.95 -7.45 -12.3 -6.35 -12.65 -5.2 -11.95 -4.0 L-11.75 -3.8 -12.95 -5.05 Q-13.65 -6.2 -13.2 -7.2 -12.7 -8.2 -11.35 -8.4 -9.9 -8.65 -8.35 -7.85 -6.95 -7.2 -6.25 -6.2" fill="#8c7d5a" fill-rule="evenodd" stroke="none"/>
    <path d="M-10.05 -3.0 Q-10.9 -2.85 -11.6 -2.2 -12.4 -1.4 -12.5 -0.1 -12.55 1.15 -11.75 2.1 L-10.1 3.05 -10.75 3.05 Q-11.95 3.05 -12.85 2.1 -13.6 1.15 -13.55 -0.1 -13.5 -1.4 -12.65 -2.2 -11.7 -3.05 -10.55 -3.05 L-10.05 -3.0" fill="#8c7d5a" fill-rule="evenodd" stroke="none"/>
    <path d="M8.95 8.35 Q8.95 7.45 8.55 6.8 L9.05 7.25 Q9.95 8.1 9.95 9.35 9.95 10.6 9.05 11.45 8.2 12.3 6.9 12.3 5.6 12.3 4.7 11.45 L4.2 10.85 Q4.95 11.3 5.85 11.3 7.2 11.3 8.05 10.45 8.95 9.6 8.95 8.35" fill="#8c7d5a" fill-rule="evenodd" stroke="none"/>
    <path d="M-4.15 10.6 L-2.7 9.85 Q-3.55 10.7 -4.5 11.15 L-7.05 11.1 Q-8.1 10.35 -8.05 8.85 -8.05 7.25 -7.05 5.7 L-5.95 4.5 -6.6 5.3 Q-7.65 6.8 -7.35 8.1 -7.1 9.4 -6.05 10.15 -4.95 10.8 -4.15 10.6" fill="#8c7d5a" fill-rule="evenodd" stroke="none"/>
    <path d="M-5.4 2.95 Q-6.2 3.8 -7.4 3.8 -8.55 3.8 -9.4 2.95 -10.25 2.2 -10.25 1.05 -10.25 -0.05 -9.4 -0.9 -8.55 -1.65 -7.4 -1.65 -6.2 -1.65 -5.4 -0.9 -4.55 -0.05 -4.55 1.05 -4.55 2.2 -5.4 2.95" fill="#bbae90" fill-rule="evenodd" stroke="none"/>
    <path d="M-0.6 -11.25 Q-1.8 -12.9 -3.7 -13.1 -5.6 -13.25 -6.95 -11.85 -8.1 -10.65 -8.2 -8.95 L-8.3 -9.6 Q-8.3 -11.8 -6.95 -13.15 -5.6 -14.55 -3.7 -14.4 -1.8 -14.2 -0.6 -12.55 0.8 -10.85 0.8 -8.65 L0.8 -8.0 Q0.6 -9.75 -0.6 -11.25" fill="#8c7d5a" fill-rule="evenodd" stroke="none"/>
    <path d="M-8.1 -0.05 Q-8.65 0.55 -9.5 0.55 -10.35 0.55 -10.9 -0.05 -11.5 -0.6 -11.5 -1.4 -11.5 -2.2 -10.9 -2.75 -10.35 -3.3 -9.5 -3.3 -8.65 -3.3 -8.1 -2.75 -7.5 -2.2 -7.5 -1.4 -7.5 -0.6 -8.1 -0.05" fill="#bbae90" fill-rule="evenodd" stroke="none"/>
    <path d="M-4.95 -4.95 Q-5.5 -4.35 -6.35 -4.35 -7.2 -4.35 -7.75 -4.95 -8.35 -5.5 -8.35 -6.3 -8.35 -7.1 -7.75 -7.65 -7.2 -8.2 -6.35 -8.2 -5.5 -8.2 -4.95 -7.65 -4.35 -7.1 -4.35 -6.3 -4.35 -5.5 -4.95 -4.95" fill="#bbae90" fill-rule="evenodd" stroke="none"/>
    <path d="M-1.0 -4.25 Q-1.0 -3.05 -1.8 -2.25 -2.65 -1.4 -3.85 -1.4 L-4.05 -1.4 -4.05 -2.35 Q-3.3 -2.55 -2.7 -3.15 -1.9 -3.95 -1.9 -5.15 -1.9 -5.95 -2.3 -6.65 L-1.8 -6.25 Q-1.0 -5.45 -1.0 -4.25" fill="#8c7d5a" fill-rule="evenodd" stroke="none"/>
    <path d="M-14.6 2.35 Q-14.5 2.9 -14.8 3.5 L-15.55 4.4 -16.4 4.45 -16.45 4.45 -16.45 4.4 -15.3 3.55 Q-14.85 3.05 -15.15 2.45 L-15.85 1.65 -15.05 1.6 Q-14.6 1.85 -14.6 2.35" fill="#8c7d5a" fill-rule="evenodd" stroke="none"/>
    <path d="M-0.2 16.15 Q0.15 15.8 0.6 15.8 1.1 15.8 1.35 16.15 1.75 16.45 1.75 16.95 L1.75 17.25 1.35 16.7 Q1.1 16.35 0.6 16.35 0.15 16.35 -0.2 16.7 L-0.45 17.25 -0.5 16.95 -0.2 16.15" fill="#8c7d5a" fill-rule="evenodd" stroke="none"/>
    <path d="M-2.95 -7.95 Q-3.7 -7.2 -4.75 -7.2 -5.8 -7.2 -6.55 -7.95 -7.25 -8.6 -7.25 -9.6 -7.25 -10.6 -6.55 -11.35 -5.8 -12.05 -4.75 -12.05 -3.7 -12.05 -2.95 -11.35 -2.2 -10.6 -2.2 -9.6 -2.2 -8.6 -2.95 -7.95" fill="#bbae90" fill-rule="evenodd" stroke="none"/>
    <path d="M0.8 -11.05 L-0.1 -10.55 Q0.5 -11.35 1.5 -11.8 3.05 -12.45 4.7 -11.8 6.3 -11.15 7.0 -9.6 7.7 -8.0 7.05 -6.35 6.65 -5.25 5.8 -4.6 L6.35 -5.6 Q7.0 -7.3 6.3 -8.9 5.6 -10.4 4.0 -11.05 2.3 -11.7 0.8 -11.05" fill="#8c7d5a" fill-rule="evenodd" stroke="none"/>
    <path d="M6.9 4.4 Q6.15 3.9 5.3 3.9 4.1 3.9 3.25 4.75 2.45 5.55 2.45 6.75 2.45 7.65 2.9 8.35 L2.5 8.0 Q1.65 7.15 1.65 6.0 1.65 4.8 2.5 3.95 3.35 3.15 4.5 3.15 5.7 3.15 6.55 3.95 L6.9 4.4" fill="#8c7d5a" fill-rule="evenodd" stroke="none"/>
    <path d="M7.35 8.0 Q6.7 8.65 5.75 8.65 4.8 8.65 4.1 8.0 3.45 7.35 3.45 6.45 3.45 5.55 4.1 4.9 4.8 4.3 5.75 4.3 6.7 4.3 7.35 4.9 8.0 5.55 8.0 6.45 8.0 7.35 7.35 8.0" fill="#bbae90" fill-rule="evenodd" stroke="none"/>
    <path d="M4.35 9.2 Q3.9 9.7 3.2 9.7 2.5 9.7 2.05 9.2 1.55 8.8 1.55 8.15 1.55 7.5 2.05 7.0 2.5 6.55 3.2 6.55 3.9 6.55 4.35 7.0 4.85 7.5 4.85 8.15 4.85 8.8 4.35 9.2" fill="#bbae90" fill-rule="evenodd" stroke="none"/>
    <path d="M-2.15 8.35 Q-2.95 9.2 -4.15 9.2 -5.3 9.2 -6.15 8.35 -7.0 7.6 -7.0 6.45 -7.0 5.35 -6.15 4.5 -5.3 3.75 -4.15 3.75 -2.95 3.75 -2.15 4.5 -1.3 5.35 -1.3 6.45 -1.3 7.6 -2.15 8.35" fill="#bbae90" fill-rule="evenodd" stroke="none"/>
    <path d="M0.2 7.1 Q-0.4 7.65 -1.2 7.65 -2.05 7.65 -2.6 7.1 -3.2 6.55 -3.2 5.75 -3.2 5.0 -2.6 4.4 -2.05 3.85 -1.2 3.85 -0.4 3.85 0.2 4.4 0.75 5.0 0.75 5.75 0.75 6.55 0.2 7.1" fill="#bbae90" fill-rule="evenodd" stroke="none"/>
    <path d="M0.2 10.2 Q-0.4 10.75 -1.2 10.75 -2.05 10.75 -2.6 10.2 -3.2 9.65 -3.2 8.85 -3.2 8.1 -2.6 7.5 -2.05 6.95 -1.2 6.95 -0.4 6.95 0.2 7.5 0.75 8.1 0.75 8.85 0.75 9.65 0.2 10.2" fill="#bbae90" fill-rule="evenodd" stroke="none"/>
    <path d="M2.7 11.15 Q2.7 12.95 1.35 14.3 0.15 15.6 -1.7 15.6 -3.5 15.6 -4.8 14.3 -6.05 12.95 -6.05 11.15 L-6.05 10.8 Q-5.9 12.3 -4.8 13.5 -3.5 14.8 -1.7 14.8 0.15 14.8 1.35 13.5 2.55 12.3 2.7 10.8 L2.7 11.15" fill="#8c7d5a" fill-rule="evenodd" stroke="none"/>
    <path d="M4.0 -1.85 L6.0 -2.4 5.5 -1.9 Q4.7 -1.05 3.5 -1.05 2.3 -1.05 1.5 -1.9 0.65 -2.7 0.65 -3.9 L0.7 -4.25 1.75 -2.65 Q2.55 -1.6 4.0 -1.85" fill="#8c7d5a" fill-rule="evenodd" stroke="none"/>
    <path d="M5.55 -3.0 Q4.8 -2.45 3.65 -2.45 2.55 -2.45 1.75 -3.0 1.0 -3.55 1.0 -4.35 1.0 -5.1 1.75 -5.7 2.55 -6.25 3.65 -6.25 4.8 -6.25 5.55 -5.7 6.35 -5.1 6.35 -4.35 6.35 -3.55 5.55 -3.0" fill="#bbae90" fill-rule="evenodd" stroke="none"/>
    <path d="M4.9 -5.65 Q4.4 -5.3 3.65 -5.3 2.9 -5.3 2.35 -5.65 1.8 -6.05 1.8 -6.55 1.8 -7.1 2.35 -7.5 L3.65 -7.85 Q4.4 -7.85 4.9 -7.5 5.45 -7.1 5.45 -6.55 5.45 -6.05 4.9 -5.65" fill="#bbae90" fill-rule="evenodd" stroke="none"/>
    <path d="M8.6 -1.95 Q10.5 -1.95 11.8 -0.65 13.15 0.65 13.15 2.55 13.15 4.4 11.8 5.7 10.5 7.0 8.6 7.0 L8.1 7.0 Q9.65 6.8 10.8 5.7 12.15 4.4 12.15 2.55 12.15 0.65 10.8 -0.65 9.65 -1.75 8.1 -1.9 L8.6 -1.95" fill="#8c7d5a" fill-rule="evenodd" stroke="none"/>
  </g>
</svg>
