<?xml version="1.0" encoding="UTF-8" standalone="no"?>
<svg xmlns:ffdec="https://www.free-decompiler.com/flash" xmlns:xlink="http://www.w3.org/1999/xlink" ffdec:objectType="shape" height="45.9px" width="97.65px" xmlns="http://www.w3.org/2000/svg">
  <g transform="matrix(1.0, 0.0, 0.0, 1.0, -149.75, -286.75)">
    <path d="M228.9 307.4 L229.35 307.85 229.65 307.95 228.9 307.4 M228.35 305.6 L228.35 305.7 233.4 309.15 235.6 310.15 232.45 308.0 234.1 308.9 231.75 307.3 Q230.0 306.2 228.35 305.6 M159.35 321.8 L159.05 321.1 159.1 323.8 159.35 321.8 M159.4 316.95 L159.35 317.2 159.55 317.2 159.6 317.2 159.4 316.95 M182.5 323.1 L182.05 322.1 Q182.05 320.25 183.45 320.95 183.5 318.3 185.7 320.45 L186.4 321.2 186.95 320.9 186.35 319.9 Q186.35 316.95 189.1 319.7 L190.45 318.95 189.85 317.85 Q189.85 315.75 191.05 316.4 L191.05 316.3 Q191.05 313.4 193.85 316.1 L194.3 316.55 194.75 316.3 194.25 315.2 Q194.25 312.55 196.05 314.0 196.15 312.05 197.5 312.55 L197.5 312.5 Q197.5 310.95 198.4 311.0 198.4 309.65 199.85 309.65 L201.25 310.05 Q201.3 309.55 201.8 309.65 201.95 306.9 205.3 309.55 L205.35 309.45 204.45 308.6 Q204.45 308.0 204.8 307.9 205.1 307.05 206.15 307.05 L207.1 307.3 Q207.2 306.8 207.7 306.8 208.3 306.8 209.5 307.9 L210.15 307.7 209.5 307.25 209.6 307.2 210.35 307.65 210.4 307.6 209.35 306.9 209.4 306.75 209.5 306.8 209.35 306.65 Q209.35 304.25 211.55 305.5 L211.6 305.45 213.25 306.65 213.45 306.45 213.6 306.9 214.0 306.8 212.75 305.75 212.85 305.7 212.85 305.5 212.1 305.05 212.95 305.35 213.25 304.75 213.25 304.65 213.35 304.6 213.35 304.65 215.45 304.9 215.5 304.75 Q216.2 305.05 217.75 306.05 L217.8 306.05 217.9 306.2 218.05 306.25 218.35 306.45 218.55 306.45 218.05 305.95 218.05 305.85 217.35 305.25 217.55 305.1 219.3 306.45 219.55 306.45 217.55 304.9 217.65 304.85 218.0 305.1 218.1 305.05 218.45 305.25 218.35 305.2 Q218.35 303.9 219.8 303.9 220.7 303.9 222.6 305.25 L222.6 304.9 222.4 304.65 222.6 304.8 Q222.95 302.4 226.75 305.5 L227.45 306.1 229.1 306.95 228.6 306.55 228.7 306.5 230.55 307.7 Q228.05 305.75 228.05 305.5 L228.1 305.35 228.45 305.35 233.95 308.5 231.7 306.9 231.8 306.75 232.7 307.3 232.05 306.8 232.15 306.7 234.65 308.45 Q235.05 306.2 239.9 310.15 L243.7 313.45 Q239.6 306.3 230.95 303.8 213.55 298.6 200.4 307.9 187.45 317.1 178.55 320.15 170.5 322.95 167.65 318.7 L167.25 319.65 167.05 322.1 167.9 322.4 169.15 323.35 Q169.35 321.45 171.25 322.95 173.15 324.4 173.3 325.7 L174.25 325.65 173.3 323.95 Q173.3 321.8 175.4 323.1 L175.85 323.45 Q176.15 321.85 178.25 323.25 179.0 323.7 179.45 324.25 178.75 323.25 178.75 322.85 178.75 320.55 180.95 322.15 L182.25 323.2 182.5 323.1 M181.15 297.2 L180.6 297.7 180.7 298.1 180.65 298.35 181.2 302.0 Q181.45 299.95 181.15 297.2 M153.25 292.3 Q153.65 291.8 154.35 291.85 155.65 291.9 155.65 293.15 L155.4 294.3 155.95 295.3 156.4 295.2 Q157.6 295.15 157.7 296.5 158.45 296.4 160.0 297.9 L160.7 298.65 161.45 298.5 Q162.95 298.3 163.4 300.05 L163.7 303.45 163.6 304.15 163.8 305.75 Q163.95 304.25 164.6 303.4 L164.85 302.85 Q165.75 300.75 166.0 300.4 L166.3 300.2 166.8 300.0 167.8 300.2 Q168.7 300.5 169.95 301.45 L170.1 301.6 170.5 301.4 169.4 300.05 Q169.45 298.8 170.8 298.8 171.25 298.8 172.2 299.7 172.45 298.25 174.15 299.15 L174.4 299.0 Q174.45 298.1 174.85 297.9 L174.25 297.15 Q174.25 294.9 176.5 296.25 L176.35 295.95 Q176.4 294.7 177.75 294.7 L178.05 294.75 Q178.1 293.1 179.65 293.75 L179.9 293.85 180.65 293.7 180.4 292.3 Q180.75 289.95 181.8 289.15 179.7 288.7 177.5 291.2 174.15 295.0 172.1 296.1 169.4 297.6 166.8 297.9 164.2 297.95 163.8 301.25 L163.55 299.1 Q163.3 297.4 160.5 296.5 157.8 295.55 156.2 291.4 154.6 287.3 149.75 286.75 151.1 288.55 150.6 291.35 152.1 291.6 153.25 292.3 M150.25 292.4 L150.4 292.5 150.35 292.3 150.25 292.4 M247.4 331.9 L247.35 331.7 247.4 332.65 247.4 331.9" fill="#935828" fill-rule="evenodd" stroke="none"/>
  </g>
</svg>
