<?xml version="1.0" encoding="UTF-8" standalone="no"?>
<svg xmlns:ffdec="https://www.free-decompiler.com/flash" xmlns:xlink="http://www.w3.org/1999/xlink" ffdec:objectType="shape" height="46.8px" width="35.05px" xmlns="http://www.w3.org/2000/svg">
  <g transform="matrix(1.0, 0.0, 0.0, 1.0, 19.6, 25.95)">
    <path d="M-0.15 -2.4 L-0.7 -2.4 -0.9 -2.25 -0.9 -1.85 Q-0.9 -0.6 -1.75 0.3 -2.45 0.95 -3.3 1.15 L-3.15 1.5 -2.8 1.8 Q-2.0 2.8 -2.2 4.15 -2.25 4.95 -2.7 5.6 L-2.95 6.2 Q-2.55 6.3 -2.15 6.55 L-2.1 6.5 Q-1.25 5.75 -0.15 5.85 0.95 5.95 1.7 6.8 L2.0 7.2 2.3 7.7 Q2.5 7.25 2.85 6.95 L2.95 6.9 3.8 6.1 4.45 5.9 4.4 5.45 Q4.4 3.65 5.55 2.35 5.5 1.7 6.05 1.15 L6.2 1.0 5.9 0.9 5.05 1.4 4.45 1.55 4.2 1.55 3.9 1.55 Q2.65 1.55 1.75 0.65 0.85 -0.2 0.85 -1.45 L0.9 -1.9 0.2 -2.4 -0.15 -2.4 M-0.6 -11.15 L0.55 -9.2 Q1.0 -9.65 1.5 -9.9 3.0 -10.75 4.5 -10.2 5.95 -9.6 6.4 -8.0 6.85 -6.75 6.6 -5.4 L8.65 -5.75 8.85 -5.75 9.3 -5.8 Q11.0 -5.8 12.15 -4.65 L12.4 -4.35 Q13.1 -3.55 13.25 -2.65 L13.35 -1.8 13.1 -0.95 Q12.8 -0.15 11.95 0.5 L11.25 1.0 12.75 2.1 Q14.2 3.45 14.2 5.45 14.2 7.45 12.75 8.85 11.45 10.1 9.6 10.2 L9.8 10.45 Q10.8 11.35 10.8 12.7 10.8 14.0 9.8 14.95 8.9 15.85 7.5 15.85 6.15 15.85 5.15 14.95 L4.6 15.55 Q3.75 16.4 2.55 16.35 1.45 16.3 0.7 15.6 L0.0 17.2 Q-0.95 18.55 -2.25 18.55 -3.6 18.55 -4.55 17.2 -5.2 16.15 -5.35 14.85 -6.5 15.1 -7.35 14.55 -8.2 14.0 -8.35 12.95 L-8.5 12.15 -8.45 11.85 Q-9.4 12.3 -10.3 12.35 L-10.05 12.35 -9.85 12.35 -11.0 12.55 Q-12.3 12.6 -13.2 11.6 -14.0 10.6 -13.75 9.3 L-13.7 9.1 -13.55 8.5 -13.4 8.15 -13.3 8.0 -12.95 7.55 -12.65 7.15 -12.45 7.0 -12.25 6.85 -11.25 6.25 -11.15 6.15 -11.2 6.0 -11.35 6.0 Q-12.65 5.95 -13.5 5.0 L-13.55 4.95 Q-14.45 3.95 -14.4 2.65 L-14.4 2.6 Q-14.35 1.25 -13.4 0.4 L-12.65 -0.15 -11.15 -0.55 -12.15 -1.1 Q-13.05 -1.25 -13.75 -1.9 -14.45 -2.75 -14.4 -3.8 -14.35 -4.95 -13.55 -5.6 -12.7 -6.35 -11.65 -6.35 L-11.2 -6.35 -11.25 -6.3 Q-10.05 -6.3 -8.7 -5.7 L-8.4 -5.55 -8.7 -7.5 -8.65 -8.0 -8.7 -8.45 Q-8.7 -10.45 -7.35 -11.7 -5.95 -13.0 -3.9 -12.85 -1.95 -12.65 -0.6 -11.15" fill="#120d00" fill-opacity="0.3019608" fill-rule="evenodd" stroke="none"/>
    <path d="M-8.8 -2.95 Q-10.35 -2.75 -12.15 -3.6 -13.95 -4.4 -14.9 -5.85 -15.7 -7.25 -15.15 -8.4 -14.6 -9.55 -13.0 -9.85 -11.3 -10.0 -9.5 -9.2 -7.7 -8.35 -6.9 -6.95 -6.0 -5.5 -6.55 -4.35 -7.1 -3.2 -8.8 -2.95" fill="#ad9d78" fill-rule="evenodd" stroke="none"/>
    <path d="M-7.05 7.5 Q-7.55 8.95 -9.1 9.8 -10.65 10.65 -12.3 10.4 -13.8 10.1 -14.55 8.85 -15.3 7.65 -14.8 6.25 -14.2 4.8 -12.65 3.95 -11.1 3.1 -9.55 3.35 -7.95 3.6 -7.2 4.8 -6.45 6.05 -7.05 7.5" fill="#ad9d78" fill-rule="evenodd" stroke="none"/>
    <path d="M-0.05 15.7 Q-1.05 17.2 -2.5 17.2 -3.95 17.2 -5.0 15.7 -5.95 14.2 -5.95 12.0 -5.95 9.85 -5.0 8.35 -3.95 6.8 -2.5 6.8 -1.05 6.8 -0.05 8.35 1.0 9.85 1.0 12.0 1.0 14.2 -0.05 15.7" fill="#ad9d78" fill-rule="evenodd" stroke="none"/>
    <path d="M-0.55 -5.95 Q-2.05 -4.3 -4.25 -4.55 -6.45 -4.75 -8.0 -6.7 -9.5 -8.65 -9.5 -11.2 -9.5 -13.75 -8.0 -15.35 -6.45 -17.0 -4.25 -16.8 -2.05 -16.55 -0.55 -14.6 1.05 -12.7 1.05 -10.15 1.05 -7.6 -0.55 -5.95" fill="#ad9d78" fill-rule="evenodd" stroke="none"/>
    <path d="M4.45 -5.3 Q2.85 -4.35 1.25 -5.0 -0.35 -5.6 -0.9 -7.4 -1.5 -9.15 -0.75 -11.05 0.0 -12.95 1.6 -13.8 3.25 -14.7 4.85 -14.1 6.45 -13.45 6.95 -11.7 7.6 -9.95 6.85 -8.05 6.1 -6.15 4.45 -5.3" fill="#ad9d78" fill-rule="evenodd" stroke="none"/>
    <path d="M10.65 13.25 Q9.65 14.25 8.15 14.25 6.65 14.25 5.6 13.25 4.6 12.25 4.6 10.8 4.6 9.35 5.6 8.35 6.65 7.35 8.15 7.35 9.65 7.35 10.65 8.35 11.75 9.35 11.75 10.8 11.75 12.25 10.65 13.25" fill="#ad9d78" fill-rule="evenodd" stroke="none"/>
    <path d="M13.85 6.6 Q12.35 8.1 10.1 8.1 7.85 8.1 6.25 6.6 4.75 5.1 4.75 2.9 4.75 0.75 6.25 -0.75 7.85 -2.3 10.1 -2.3 12.35 -2.3 13.85 -0.75 15.45 0.75 15.45 2.9 15.45 5.1 13.85 6.6" fill="#ad9d78" fill-rule="evenodd" stroke="none"/>
    <path d="M13.0 -2.45 Q11.6 -1.25 9.4 -1.25 7.35 -1.25 5.85 -2.45 4.45 -3.65 4.45 -5.3 4.45 -7.0 5.85 -8.2 7.35 -9.3 9.4 -9.3 11.6 -9.3 13.0 -8.2 14.45 -7.0 14.45 -5.3 14.45 -3.65 13.0 -2.45" fill="#ad9d78" fill-rule="evenodd" stroke="none"/>
    <path d="M-9.75 -2.4 Q-8.8 -1.35 -8.85 0.1 -8.9 1.6 -9.95 2.6 -11.0 3.55 -12.4 3.5 -13.85 3.45 -14.8 2.4 -15.75 1.3 -15.7 -0.2 -15.65 -1.65 -14.6 -2.6 -13.55 -3.6 -12.1 -3.55 -10.7 -3.5 -9.75 -2.4" fill="#ad9d78" fill-rule="evenodd" stroke="none"/>
    <path d="M-4.15 4.85 Q-5.65 6.35 -7.7 6.35 -9.8 6.35 -11.3 4.85 -12.75 3.4 -12.75 1.3 -12.75 -0.8 -11.3 -2.3 -9.8 -3.8 -7.7 -3.8 -5.65 -3.8 -4.15 -2.3 -2.65 -0.8 -2.65 1.3 -2.65 3.4 -4.15 4.85" fill="#ad9d78" fill-rule="evenodd" stroke="none"/>
    <path d="M5.0 -23.8 Q5.15 -24.2 5.6 -24.35 6.0 -24.55 6.4 -24.35 L7.1 -23.8 7.15 -23.2 7.55 -22.75 7.55 -21.95 7.0 -21.35 6.15 -21.4 5.65 -21.8 5.45 -21.7 4.6 -21.75 4.0 -22.3 Q3.8 -22.75 3.95 -23.1 4.1 -23.5 4.55 -23.7 L5.0 -23.8" fill="#ad9d78" fill-rule="evenodd" stroke="none"/>
    <path d="M-1.4 19.3 L-2.1 19.6 -2.8 19.3 -3.05 18.65 -2.8 17.95 Q-2.5 17.65 -2.1 17.65 -1.65 17.65 -1.4 17.95 -1.1 18.25 -1.1 18.65 -1.1 19.0 -1.4 19.3" fill="#ad9d78" fill-rule="evenodd" stroke="none"/>
    <path d="M1.75 20.45 Q1.35 20.85 0.8 20.85 0.25 20.85 -0.1 20.45 -0.5 20.1 -0.5 19.55 -0.5 19.05 -0.1 18.65 0.25 18.3 0.8 18.3 1.35 18.3 1.75 18.65 2.15 19.05 2.15 19.55 2.15 20.1 1.75 20.45" fill="#ad9d78" fill-rule="evenodd" stroke="none"/>
    <path d="M-17.9 5.0 L-18.95 5.15 Q-19.45 4.9 -19.55 4.25 -19.65 3.6 -19.35 2.95 L-18.45 1.9 -17.35 1.8 Q-16.9 2.0 -16.8 2.65 -16.65 3.35 -17.0 4.05 -17.3 4.7 -17.9 5.0" fill="#ad9d78" fill-rule="evenodd" stroke="none"/>
    <path d="M5.2 13.55 Q4.2 14.55 2.7 14.55 1.2 14.55 0.15 13.55 -0.85 12.55 -0.85 11.1 -0.85 9.65 0.15 8.65 1.2 7.65 2.7 7.65 4.2 7.65 5.2 8.65 6.3 9.65 6.3 11.1 6.3 12.55 5.2 13.55" fill="#ad9d78" fill-rule="evenodd" stroke="none"/>
    <path d="M-5.15 12.9 L-8.05 12.85 Q-9.25 12.05 -9.25 10.15 -9.25 8.35 -8.1 6.55 -6.9 4.75 -5.2 4.05 L-2.3 4.15 Q-1.1 4.95 -1.1 6.8 -1.1 8.6 -2.3 10.4 -3.45 12.2 -5.15 12.9" fill="#ad9d78" fill-rule="evenodd" stroke="none"/>
    <path d="M5.85 -25.1 L5.5 -25.0 5.15 -25.1 5.0 -25.45 5.15 -25.8 5.5 -25.95 5.85 -25.8 6.0 -25.45 5.85 -25.1" fill="#ad9d78" fill-rule="evenodd" stroke="none"/>
    <path d="M-1.95 -2.7 Q-2.9 -1.7 -4.3 -1.7 -5.65 -1.7 -6.6 -2.7 -7.6 -3.65 -7.6 -5.0 -7.6 -6.4 -6.6 -7.35 -5.65 -8.35 -4.3 -8.35 -2.9 -8.35 -1.95 -7.35 -1.0 -6.4 -1.0 -5.0 -1.0 -3.65 -1.95 -2.7" fill="#ad9d78" fill-rule="evenodd" stroke="none"/>
    <path d="M6.55 -2.3 Q5.6 -1.3 4.2 -1.3 2.85 -1.3 1.9 -2.3 0.9 -3.25 0.9 -4.6 0.9 -6.0 1.9 -6.95 2.85 -7.95 4.2 -7.95 5.6 -7.95 6.55 -6.95 7.5 -6.0 7.5 -4.6 7.5 -3.25 6.55 -2.3" fill="#ad9d78" fill-rule="evenodd" stroke="none"/>
    <path d="M7.75 9.2 Q6.8 10.2 5.4 10.2 4.05 10.2 3.1 9.2 2.1 8.25 2.1 6.9 2.1 5.5 3.1 4.55 4.05 3.55 5.4 3.55 6.8 3.55 7.75 4.55 8.7 5.5 8.7 6.9 8.7 8.25 7.75 9.2" fill="#ad9d78" fill-rule="evenodd" stroke="none"/>
    <path d="M1.9 9.2 Q0.95 10.2 -0.45 10.2 -1.8 10.2 -2.75 9.2 -3.75 8.25 -3.75 6.9 -3.75 5.5 -2.75 4.55 -1.8 3.55 -0.45 3.55 0.95 3.55 1.9 4.55 2.85 5.5 2.85 6.9 2.85 8.25 1.9 9.2" fill="#ad9d78" fill-rule="evenodd" stroke="none"/>
    <path d="M-11.0 3.45 L-12.6 4.4 Q-13.8 5.45 -14.0 6.9 -14.25 8.35 -13.4 9.4 -12.45 10.5 -11.0 10.45 L-10.75 10.45 -12.0 10.65 Q-13.45 10.7 -14.4 9.6 -15.25 8.55 -15.0 7.1 -14.8 5.65 -13.6 4.6 -12.4 3.55 -11.0 3.45" fill="#80714f" fill-rule="evenodd" stroke="none"/>
    <path d="M10.1 -9.35 Q11.95 -9.35 13.2 -8.05 14.5 -6.75 14.5 -4.95 14.5 -3.85 12.95 -3.05 13.35 -3.95 13.35 -4.95 13.35 -6.75 12.05 -8.05 11.0 -9.1 9.6 -9.3 L10.1 -9.35" fill="#8c7d5a" fill-rule="evenodd" stroke="none"/>
    <path d="M-12.2 -9.9 Q-13.05 -9.75 -13.75 -9.1 -14.55 -8.4 -14.65 -7.15 -14.7 -6.0 -13.9 -5.1 -13.2 -4.35 -12.25 -4.2 L-12.9 -4.2 Q-14.1 -4.2 -15.0 -5.1 -15.75 -6.0 -15.7 -7.15 -15.65 -8.4 -14.8 -9.1 -13.85 -9.95 -12.7 -9.95 L-12.2 -9.9" fill="#8c7d5a" fill-rule="evenodd" stroke="none"/>
    <path d="M-0.7 -13.85 Q-2.15 -15.5 -4.3 -15.7 -6.5 -15.85 -8.05 -14.45 -9.3 -13.25 -9.45 -11.55 L-9.5 -12.2 Q-9.5 -14.4 -8.05 -15.75 -6.5 -17.15 -4.3 -17.0 -2.15 -16.8 -0.7 -15.15 0.85 -13.45 0.85 -11.25 L0.85 -10.6 Q0.65 -12.35 -0.7 -13.85" fill="#8c7d5a" fill-rule="evenodd" stroke="none"/>
    <path d="M-4.55 3.85 Q-3.45 2.95 -3.2 1.5 -3.05 0.05 -3.95 -1.1 -4.65 -2.0 -5.75 -2.15 L-5.35 -2.2 Q-3.9 -2.1 -3.1 -1.05 -2.2 0.05 -2.4 1.5 -2.6 3.0 -3.7 3.9 -4.9 4.9 -6.3 4.85 L-6.7 4.8 Q-5.55 4.7 -4.55 3.85" fill="#8c7d5a" fill-rule="evenodd" stroke="none"/>
    <path d="M1.8 5.15 Q1.0 4.2 -0.2 4.1 -1.4 4.0 -2.3 4.8 -3.0 5.45 -3.1 6.45 L-3.15 6.05 Q-3.15 4.85 -2.3 4.05 -1.4 3.25 -0.2 3.35 1.0 3.45 1.8 4.4 2.7 5.35 2.7 6.6 L2.7 6.95 Q2.6 5.95 1.8 5.15" fill="#8c7d5a" fill-rule="evenodd" stroke="none"/>
    <path d="M6.6 -3.25 Q7.35 -4.0 7.55 -5.1 L7.55 -4.6 Q7.55 -3.25 6.6 -2.3 5.6 -1.3 4.2 -1.3 2.85 -1.3 1.9 -2.3 0.95 -3.25 0.95 -4.6 L1.0 -5.1 Q1.15 -4.0 1.9 -3.25 2.85 -2.25 4.2 -2.25 5.6 -2.25 6.6 -3.25" fill="#8c7d5a" fill-rule="evenodd" stroke="none"/>
    <path d="M-11.65 -3.55 Q-12.65 -3.45 -13.5 -2.6 -14.55 -1.65 -14.6 -0.15 -14.65 1.3 -13.65 2.45 -12.85 3.3 -11.65 3.5 L-12.35 3.5 Q-13.8 3.45 -14.75 2.45 -15.75 1.3 -15.7 -0.15 -15.6 -1.65 -14.55 -2.6 -13.5 -3.65 -12.05 -3.6 L-11.65 -3.55" fill="#8c7d5a" fill-rule="evenodd" stroke="none"/>
    <path d="M-2.55 -8.25 Q-2.5 -7.6 -1.9 -7.0 -1.2 -6.3 -0.2 -6.3 0.8 -6.25 1.5 -7.0 2.1 -7.55 2.25 -8.35 L2.25 -7.9 Q2.2 -6.9 1.55 -6.3 0.8 -5.55 -0.2 -5.6 -1.2 -5.55 -1.85 -6.3 -2.65 -7.0 -2.6 -8.0 L-2.55 -8.25" fill="#8c7d5a" fill-rule="evenodd" stroke="none"/>
    <path d="M-0.1 11.4 Q0.0 12.25 0.7 13.0 1.5 13.85 2.75 13.9 4.05 13.9 5.05 13.0 5.85 12.25 6.0 11.25 L6.0 11.85 Q5.95 13.1 5.0 13.9 4.05 14.85 2.75 14.8 1.5 14.75 0.65 13.9 -0.2 13.0 -0.15 11.75 L-0.1 11.4" fill="#8c7d5a" fill-rule="evenodd" stroke="none"/>
    <path d="M15.45 2.9 Q15.45 5.05 13.85 6.6 12.35 8.1 10.1 8.1 L9.45 8.1 Q11.2 7.9 12.5 6.6 14.1 5.05 14.1 2.9 14.1 0.7 12.5 -0.75 11.2 -2.05 9.45 -2.25 L10.1 -2.3 Q12.35 -2.3 13.85 -0.75 15.45 0.7 15.45 2.9" fill="#8c7d5a" fill-rule="evenodd" stroke="none"/>
    <path d="M4.1 3.65 L6.15 3.5 Q7.25 3.8 7.8 4.8 L7.95 5.1 Q7.4 4.35 6.5 4.1 L4.45 4.3 Q3.45 4.8 3.2 5.9 2.9 6.8 3.3 7.65 L3.1 7.35 Q2.55 6.35 2.85 5.3 3.1 4.15 4.1 3.65" fill="#8c7d5a" fill-rule="evenodd" stroke="none"/>
    <path d="M-4.55 12.3 Q-3.65 11.9 -2.95 11.3 -3.9 12.4 -5.15 12.9 L-8.0 12.8 Q-9.2 11.95 -9.3 10.2 -9.2 8.35 -8.05 6.6 L-6.7 5.0 -7.45 6.0 Q-8.65 7.75 -8.7 9.6 -8.65 11.35 -7.4 12.2 L-4.55 12.3" fill="#8c7d5a" fill-rule="evenodd" stroke="none"/>
    <path d="M-5.3 -12.9 Q-4.5 -13.65 -3.35 -13.65 -2.25 -13.65 -1.4 -12.9 -0.6 -12.05 -0.6 -10.95 -0.6 -9.8 -1.4 -9.05 -2.25 -8.2 -3.35 -8.2 -4.5 -8.2 -5.3 -9.05 -6.15 -9.8 -6.15 -10.95 -6.15 -12.05 -5.3 -12.9" fill="#bbae90" fill-rule="evenodd" stroke="none"/>
    <path d="M-7.95 -13.05 Q-7.3 -13.6 -6.45 -13.6 -5.6 -13.6 -5.0 -13.05 -4.35 -12.4 -4.35 -11.55 -4.35 -10.7 -5.0 -10.1 -5.6 -9.45 -6.45 -9.45 -7.3 -9.45 -7.95 -10.1 -8.6 -10.7 -8.6 -11.55 -8.6 -12.4 -7.95 -13.05" fill="#bbae90" fill-rule="evenodd" stroke="none"/>
    <path d="M-13.15 -8.3 Q-12.5 -8.85 -11.65 -8.85 -10.8 -8.85 -10.2 -8.3 -9.55 -7.65 -9.55 -6.8 -9.55 -5.95 -10.2 -5.35 -10.8 -4.7 -11.65 -4.7 -12.5 -4.7 -13.15 -5.35 -13.8 -5.95 -13.8 -6.8 -13.8 -7.65 -13.15 -8.3" fill="#bbae90" fill-rule="evenodd" stroke="none"/>
    <path d="M-8.85 0.0 Q-7.95 -0.55 -6.8 -0.55 -5.65 -0.55 -4.8 0.0 -3.95 0.65 -3.95 1.5 -3.95 2.35 -4.8 2.95 -5.65 3.6 -6.8 3.6 -7.95 3.6 -8.85 2.95 -9.7 2.35 -9.7 1.5 -9.7 0.65 -8.85 0.0" fill="#bbae90" fill-rule="evenodd" stroke="none"/>
    <path d="M-9.15 -2.65 L-7.5 -3.1 Q-6.5 -3.1 -5.8 -2.65 -5.05 -2.15 -5.05 -1.5 -5.05 -0.85 -5.8 -0.4 -6.5 0.1 -7.5 0.1 -8.45 0.1 -9.15 -0.4 -9.9 -0.85 -9.9 -1.5 -9.9 -2.15 -9.15 -2.65" fill="#bbae90" fill-rule="evenodd" stroke="none"/>
    <path d="M-9.55 5.25 Q-8.9 4.7 -8.05 4.7 -7.2 4.7 -6.6 5.25 -5.95 5.9 -5.95 6.75 -5.95 7.6 -6.6 8.2 -7.2 8.85 -8.05 8.85 -8.9 8.85 -9.55 8.2 -10.2 7.6 -10.2 6.75 -10.2 5.9 -9.55 5.25" fill="#bbae90" fill-rule="evenodd" stroke="none"/>
    <path d="M-6.05 5.4 Q-5.3 4.7 -4.25 4.7 -3.25 4.7 -2.45 5.4 -1.7 6.15 -1.7 7.2 -1.7 8.2 -2.45 8.95 -3.25 9.7 -4.25 9.7 -5.3 9.7 -6.05 8.95 -6.8 8.2 -6.8 7.2 -6.8 6.15 -6.05 5.4" fill="#bbae90" fill-rule="evenodd" stroke="none"/>
    <path d="M4.1 4.7 Q4.85 4.0 5.9 4.0 6.9 4.0 7.7 4.7 8.45 5.45 8.45 6.5 8.45 7.5 7.7 8.25 6.9 9.0 5.9 9.0 4.85 9.0 4.1 8.25 3.35 7.5 3.35 6.5 3.35 5.45 4.1 4.7" fill="#bbae90" fill-rule="evenodd" stroke="none"/>
    <path d="M-3.55 8.3 Q-2.8 7.6 -1.75 7.6 -0.75 7.6 0.05 8.3 0.8 9.05 0.8 10.1 0.8 11.1 0.05 11.85 -0.75 12.6 -1.75 12.6 -2.8 12.6 -3.55 11.85 -4.3 11.1 -4.3 10.1 -4.3 9.05 -3.55 8.3" fill="#bbae90" fill-rule="evenodd" stroke="none"/>
    <path d="M3.0 -6.65 Q3.75 -7.35 4.8 -7.35 5.8 -7.35 6.6 -6.65 7.35 -5.9 7.35 -4.85 7.35 -3.85 6.6 -3.1 5.8 -2.35 4.8 -2.35 3.75 -2.35 3.0 -3.1 2.25 -3.85 2.25 -4.85 2.25 -5.9 3.0 -6.65" fill="#bbae90" fill-rule="evenodd" stroke="none"/>
    <path d="M2.55 -9.15 Q3.1 -9.85 3.9 -9.85 4.7 -9.85 5.3 -9.15 5.9 -8.4 5.9 -7.35 5.9 -6.35 5.3 -5.6 4.7 -4.85 3.9 -4.85 3.1 -4.85 2.55 -5.6 1.95 -6.35 1.95 -7.35 1.95 -8.4 2.55 -9.15" fill="#bbae90" fill-rule="evenodd" stroke="none"/>
    <path d="M6.85 1.0 Q6.1 0.5 6.0 -0.3 5.9 -1.1 6.55 -1.75 7.25 -2.45 8.25 -2.55 9.3 -2.65 10.05 -2.1 10.85 -1.6 10.95 -0.8 11.05 0.0 10.35 0.65 9.7 1.3 8.65 1.4 7.65 1.5 6.85 1.0" fill="#bbae90" fill-rule="evenodd" stroke="none"/>
    <path d="M6.15 3.3 Q5.4 2.8 5.3 2.0 5.2 1.2 5.85 0.55 6.55 -0.15 7.55 -0.25 8.6 -0.35 9.35 0.2 10.15 0.7 10.25 1.5 10.35 2.3 9.65 2.95 9.0 3.6 7.95 3.7 6.95 3.8 6.15 3.3" fill="#bbae90" fill-rule="evenodd" stroke="none"/>
    <path d="M-7.8 -9.35 Q-7.0 -10.1 -5.85 -10.1 -4.75 -10.1 -3.9 -9.35 -3.1 -8.5 -3.1 -7.4 -3.1 -6.25 -3.9 -5.5 -4.75 -4.65 -5.85 -4.65 -7.0 -4.65 -7.8 -5.5 -8.65 -6.25 -8.65 -7.4 -8.65 -8.5 -7.8 -9.35" fill="#bbae90" fill-rule="evenodd" stroke="none"/>
  </g>
</svg>
