<?xml version="1.0" encoding="UTF-8" standalone="no"?>
<svg xmlns:ffdec="https://www.free-decompiler.com/flash" xmlns:xlink="http://www.w3.org/1999/xlink" ffdec:objectType="shape" height="39.2px" width="39.0px" xmlns="http://www.w3.org/2000/svg">
  <g transform="matrix(1.0, 0.0, 0.0, 1.0, 19.4, 18.15)">
    <path d="M14.25 -11.45 Q15.55 -11.45 16.5 -10.5 17.4 -9.6 17.4 -8.3 L17.1 -6.9 17.55 -6.2 17.55 -5.6 17.7 -5.55 Q18.85 -5.0 19.35 -3.8 19.85 -2.6 19.35 -1.4 18.95 -0.35 18.0 0.15 19.05 1.15 19.05 2.55 19.05 3.95 18.0 4.95 L17.55 5.35 17.65 6.2 Q17.65 7.85 16.45 8.95 L15.4 9.75 Q16.35 10.65 16.35 12.0 16.35 13.35 15.3 14.35 14.4 15.25 13.1 15.3 L13.2 15.85 Q13.2 16.35 12.8 16.75 L11.9 17.1 Q11.35 17.1 11.0 16.75 L10.75 16.45 10.65 16.55 Q9.65 17.55 8.25 17.55 7.05 17.55 6.2 16.9 L6.2 17.15 Q6.2 17.75 5.8 18.15 5.35 18.6 4.75 18.6 4.1 18.6 3.7 18.15 L3.35 17.65 2.75 18.4 Q1.7 19.45 0.25 19.45 -1.15 19.45 -2.2 18.4 L-2.25 18.35 -3.55 18.7 Q-4.55 18.7 -5.25 18.0 L-5.75 17.3 -6.05 17.35 Q-7.55 17.6 -8.9 16.7 L-9.85 15.9 -11.25 15.9 Q-12.3 15.6 -12.85 14.7 -13.4 13.75 -13.15 12.75 -12.85 11.7 -11.9 11.15 -10.9 10.65 -9.85 10.9 L-9.7 10.95 Q-9.0 10.25 -7.9 10.05 L-6.0 10.2 -6.15 10.05 -6.5 9.3 Q-6.5 8.85 -6.15 8.55 -5.85 8.2 -5.35 8.2 -4.9 8.2 -4.6 8.55 -4.25 8.85 -4.25 9.3 -4.25 9.75 -4.6 10.05 -4.9 10.4 -5.35 10.4 L-5.5 10.4 -4.95 10.7 Q-3.6 11.6 -3.25 13.15 L-3.1 13.85 Q-2.85 13.85 -2.6 14.0 L-2.45 13.8 -2.7 13.15 Q-2.7 12.7 -2.35 12.4 -2.05 12.05 -1.55 12.05 -1.1 12.05 -0.8 12.4 L-0.65 12.55 0.25 12.45 1.0 12.55 0.75 11.3 Q0.75 10.05 1.65 9.15 2.55 8.25 3.8 8.25 5.05 8.25 5.9 9.15 6.65 9.9 6.8 10.95 L8.25 10.65 8.7 10.7 Q8.2 10.1 8.2 9.4 8.2 8.55 8.8 7.95 9.2 7.55 9.8 7.4 L9.6 6.2 9.75 5.15 8.5 4.4 Q7.5 3.4 7.5 2.05 7.5 0.65 8.5 -0.3 9.35 -1.15 10.6 -1.25 9.6 -1.9 9.15 -3.0 8.65 -4.2 9.05 -5.35 L9.25 -5.75 8.3 -6.0 7.15 -6.65 Q5.95 -5.55 4.2 -5.5 2.35 -5.45 1.05 -6.7 L0.35 -7.6 -1.25 -7.35 -2.75 -7.55 -2.1 -7.0 Q-1.2 -6.1 -1.2 -4.85 -1.2 -3.6 -2.1 -2.7 -2.95 -1.8 -4.2 -1.8 -5.15 -1.8 -5.9 -2.3 L-5.9 -2.05 Q-5.95 -1.2 -6.55 -0.65 L-7.0 -0.3 -7.0 -0.2 Q-7.0 1.25 -7.6 2.45 -6.7 2.65 -6.0 3.3 -4.85 4.3 -4.85 5.7 -4.85 7.1 -5.95 8.1 -7.0 9.05 -8.5 9.1 -8.65 9.75 -9.2 10.25 -9.8 10.85 -10.7 10.8 -11.6 10.75 -12.25 10.15 -12.85 9.4 -12.85 8.55 L-13.6 9.3 -14.8 9.4 Q-15.35 9.15 -15.5 8.4 -15.6 7.7 -15.2 6.95 L-14.25 5.75 -13.05 5.65 -12.7 5.9 -12.7 5.7 -12.7 5.55 Q-15.05 5.55 -16.75 3.85 -18.4 2.15 -18.4 -0.2 -18.4 -2.55 -16.75 -4.25 -15.05 -5.95 -12.7 -5.95 L-12.85 -6.75 Q-12.8 -7.7 -12.1 -8.3 -11.7 -8.7 -11.25 -8.8 -11.35 -9.7 -10.95 -10.55 -10.35 -11.9 -8.9 -12.35 L-7.45 -12.55 -7.8 -13.15 -7.7 -13.95 Q-7.5 -14.3 -7.1 -14.25 L-6.25 -14.0 -5.8 -13.45 Q-5.5 -14.45 -4.7 -15.25 -3.25 -16.6 -1.25 -16.65 0.75 -16.7 2.1 -15.35 L3.15 -13.9 4.2 -14.05 5.6 -13.85 5.7 -14.5 Q5.9 -14.85 6.3 -14.8 L7.15 -14.55 7.7 -13.75 7.75 -13.5 8.15 -13.75 Q9.75 -14.4 11.35 -13.75 12.95 -13.15 13.6 -11.6 L13.7 -11.4 14.25 -11.45 M3.7 -16.35 L4.1 -15.75 4.05 -15.2 3.55 -14.9 Q3.25 -14.95 2.95 -15.15 2.65 -15.4 2.5 -15.75 2.4 -16.1 2.6 -16.35 2.75 -16.6 3.05 -16.6 L3.7 -16.35 M14.7 -5.1 L14.75 -5.15 14.65 -5.15 14.7 -5.1 M13.0 -1.15 L12.45 -0.95 13.35 -0.3 13.5 -0.15 Q13.9 -0.5 14.45 -0.6 L13.85 -1.6 13.0 -1.15 M-12.95 -7.05 L-13.15 -6.45 Q-13.4 -6.25 -13.75 -6.25 L-14.3 -6.45 -14.55 -7.15 -14.25 -7.65 -13.7 -7.9 -13.1 -7.65 -12.95 -7.05 M-3.7 -7.85 L-3.5 -7.8 -3.7 -7.9 -3.7 -7.85 M-9.2 -5.0 L-9.35 -4.85 -8.7 -4.25 -8.55 -4.1 -7.85 -4.2 -7.15 -4.05 -7.25 -4.85 -7.2 -5.45 -8.65 -5.7 -9.2 -5.0 M-12.6 11.05 L-12.85 11.6 -13.45 11.85 -14.05 11.6 -14.3 11.05 -14.05 10.45 Q-13.8 10.2 -13.45 10.2 -13.1 10.2 -12.85 10.45 -12.6 10.7 -12.6 11.05 M-4.8 19.9 Q-4.8 19.45 -4.45 19.1 -4.1 18.75 -3.6 18.75 -3.1 18.75 -2.75 19.1 -2.4 19.45 -2.4 19.9 -2.4 20.4 -2.75 20.75 L-3.6 21.05 Q-4.1 21.05 -4.45 20.75 L-4.8 19.9" fill="#120d00" fill-opacity="0.3019608" fill-rule="evenodd" stroke="none"/>
    <path d="M-7.0 -7.15 L-9.95 -7.35 Q-11.4 -8.0 -12.0 -9.35 -12.55 -10.75 -11.95 -12.05 -11.35 -13.4 -9.9 -13.85 L-6.95 -13.7 Q-5.45 -13.05 -4.9 -11.65 -4.3 -10.25 -4.9 -8.9 -5.5 -7.6 -7.0 -7.15" fill="#ad9d78" fill-rule="evenodd" stroke="none"/>
    <path d="M-8.95 12.55 Q-9.2 13.6 -10.2 14.1 -11.15 14.65 -12.25 14.4 -13.3 14.1 -13.85 13.2 -14.4 12.25 -14.15 11.25 -13.85 10.2 -12.9 9.65 -11.9 9.15 -10.85 9.4 -9.75 9.7 -9.2 10.65 -8.65 11.55 -8.95 12.55" fill="#ad9d78" fill-rule="evenodd" stroke="none"/>
    <path d="M-6.95 6.6 Q-8.05 7.6 -9.7 7.6 -11.35 7.6 -12.5 6.6 -13.7 5.6 -13.7 4.2 -13.7 2.8 -12.55 1.8 -11.4 0.8 -9.75 0.8 -8.1 0.8 -7.0 1.8 -5.85 2.8 -5.85 4.2 -5.85 5.6 -6.95 6.6" fill="#ad9d78" fill-rule="evenodd" stroke="none"/>
    <path d="M1.1 -10.25 Q-0.25 -8.9 -2.25 -8.85 -4.25 -8.8 -5.7 -10.15 -7.05 -11.5 -7.05 -13.45 -7.05 -15.4 -5.7 -16.75 -4.25 -18.1 -2.25 -18.15 -0.25 -18.2 1.1 -16.85 2.5 -15.5 2.5 -13.55 2.5 -11.6 1.1 -10.25" fill="#ad9d78" fill-rule="evenodd" stroke="none"/>
    <path d="M10.45 -7.55 L7.3 -7.5 Q5.7 -8.15 5.0 -9.7 4.4 -11.3 5.0 -12.95 5.65 -14.55 7.15 -15.25 8.75 -15.9 10.35 -15.25 11.95 -14.65 12.6 -13.1 13.3 -11.5 12.65 -9.9 12.05 -8.25 10.45 -7.55" fill="#ad9d78" fill-rule="evenodd" stroke="none"/>
    <path d="M15.45 7.45 Q14.3 8.6 12.6 8.6 10.95 8.6 9.75 7.45 8.6 6.35 8.6 4.7 8.6 3.05 9.75 1.95 10.95 0.8 12.6 0.8 14.3 0.8 15.45 1.95 16.65 3.05 16.65 4.7 16.65 6.35 15.45 7.45" fill="#ad9d78" fill-rule="evenodd" stroke="none"/>
    <path d="M17.0 3.45 Q16.0 4.45 14.55 4.45 13.1 4.45 12.05 3.45 11.05 2.45 11.05 1.05 11.05 -0.35 12.05 -1.35 13.1 -2.3 14.55 -2.3 16.0 -2.3 17.0 -1.35 18.05 -0.35 18.05 1.05 18.05 2.45 17.0 3.45" fill="#ad9d78" fill-rule="evenodd" stroke="none"/>
    <path d="M13.65 -4.3 Q13.2 -3.1 12.0 -2.65 L9.7 -2.7 Q8.65 -3.3 8.15 -4.5 7.65 -5.7 8.05 -6.85 8.55 -8.0 9.7 -8.45 10.9 -8.9 12.0 -8.45 13.15 -7.9 13.65 -6.7 14.15 -5.5 13.65 -4.3" fill="#ad9d78" fill-rule="evenodd" stroke="none"/>
    <path d="M-10.05 5.55 Q-9.45 6.25 -9.5 7.2 -9.5 8.1 -10.2 8.75 -10.8 9.35 -11.7 9.3 -12.6 9.25 -13.25 8.65 -13.85 7.9 -13.85 7.0 -13.8 6.05 -13.1 5.45 -12.45 4.8 -11.55 4.85 -10.65 4.9 -10.05 5.55" fill="#ad9d78" fill-rule="evenodd" stroke="none"/>
    <path d="M-9.7 2.35 Q-11.35 4.05 -13.7 4.05 -16.05 4.05 -17.75 2.35 -19.4 0.65 -19.4 -1.7 -19.4 -4.05 -17.75 -5.75 -16.05 -7.45 -13.7 -7.45 -11.35 -7.45 -9.7 -5.75 -8.0 -4.05 -8.0 -1.7 -8.0 0.65 -9.7 2.35" fill="#ad9d78" fill-rule="evenodd" stroke="none"/>
    <path d="M-1.8 12.4 Q-2.1 12.75 -2.55 12.75 -3.05 12.75 -3.35 12.4 L-3.7 11.65 -3.35 10.9 Q-3.05 10.55 -2.55 10.55 -2.1 10.55 -1.8 10.9 -1.45 11.2 -1.45 11.65 -1.45 12.1 -1.8 12.4" fill="#ad9d78" fill-rule="evenodd" stroke="none"/>
    <path d="M4.8 16.65 Q4.35 17.1 3.75 17.1 3.1 17.1 2.7 16.65 2.25 16.25 2.25 15.65 2.25 15.05 2.7 14.65 3.1 14.2 3.75 14.2 4.35 14.2 4.8 14.65 5.2 15.05 5.2 15.65 5.2 16.25 4.8 16.65" fill="#ad9d78" fill-rule="evenodd" stroke="none"/>
    <path d="M-14.6 7.8 L-15.8 7.9 Q-16.35 7.65 -16.5 6.9 -16.6 6.2 -16.2 5.45 -15.85 4.65 -15.25 4.25 L-14.05 4.15 Q-13.5 4.4 -13.35 5.15 -13.25 5.85 -13.6 6.65 L-14.6 7.8" fill="#ad9d78" fill-rule="evenodd" stroke="none"/>
    <path d="M14.3 12.85 Q13.35 13.8 11.9 13.8 10.45 13.8 9.45 12.85 8.45 11.85 8.45 10.5 8.45 9.1 9.45 8.15 10.45 7.15 11.9 7.15 13.35 7.15 14.3 8.15 15.35 9.1 15.35 10.5 15.35 11.85 14.3 12.85" fill="#ad9d78" fill-rule="evenodd" stroke="none"/>
    <path d="M-7.05 15.85 Q-8.55 16.1 -9.9 15.2 -11.3 14.3 -11.7 12.75 -12.05 11.3 -11.25 10.05 -10.4 8.8 -8.9 8.55 -7.35 8.3 -5.95 9.2 -4.6 10.1 -4.25 11.65 -3.85 13.15 -4.7 14.4 -5.5 15.65 -7.05 15.85" fill="#ad9d78" fill-rule="evenodd" stroke="none"/>
    <path d="M-3.1 -4.2 Q-3.95 -3.3 -5.2 -3.3 -6.45 -3.3 -7.35 -4.2 -8.25 -5.1 -8.25 -6.35 -8.25 -7.6 -7.35 -8.5 -6.45 -9.4 -5.2 -9.4 -3.95 -9.4 -3.1 -8.5 -2.2 -7.6 -2.2 -6.35 -2.2 -5.1 -3.1 -4.2" fill="#ad9d78" fill-rule="evenodd" stroke="none"/>
    <path d="M15.5 -7.55 Q14.55 -6.65 13.25 -6.65 11.95 -6.65 11.05 -7.55 10.1 -8.5 10.1 -9.8 10.1 -11.1 11.05 -12.0 11.95 -12.95 13.25 -12.95 14.55 -12.95 15.5 -12.0 16.4 -11.1 16.4 -9.8 16.4 -8.5 15.5 -7.55" fill="#ad9d78" fill-rule="evenodd" stroke="none"/>
    <path d="M-2.8 16.5 Q-3.55 17.2 -4.55 17.2 -5.55 17.2 -6.25 16.5 -7.0 15.75 -7.0 14.75 -7.0 13.75 -6.25 13.05 -5.55 12.3 -4.55 12.3 -3.55 12.3 -2.8 13.05 -2.1 13.75 -2.1 14.75 -2.1 15.75 -2.8 16.5" fill="#ad9d78" fill-rule="evenodd" stroke="none"/>
    <path d="M1.75 16.9 Q0.7 17.95 -0.75 17.95 -2.15 17.95 -3.2 16.9 -4.2 15.9 -4.2 14.45 -4.2 13.0 -3.2 11.95 -2.15 10.95 -0.75 10.95 0.7 10.95 1.75 11.95 2.75 13.0 2.75 14.45 2.75 15.9 1.75 16.9" fill="#ad9d78" fill-rule="evenodd" stroke="none"/>
    <path d="M-7.4 -5.05 Q-6.9 -4.4 -6.9 -3.55 -6.95 -2.7 -7.55 -2.15 -8.15 -1.55 -9.0 -1.6 -9.8 -1.65 -10.4 -2.25 -10.9 -2.9 -10.85 -3.75 -10.85 -4.6 -10.25 -5.15 -9.65 -5.75 -8.85 -5.7 -8.0 -5.65 -7.4 -5.05" fill="#ad9d78" fill-rule="evenodd" stroke="none"/>
    <path d="M-10.05 -9.7 Q-9.45 -9.0 -9.5 -8.05 -9.5 -7.15 -10.2 -6.5 -10.8 -5.9 -11.7 -5.95 -12.6 -6.0 -13.25 -6.6 -13.85 -7.35 -13.85 -8.25 -13.8 -9.2 -13.1 -9.8 -12.45 -10.45 -11.55 -10.4 -10.65 -10.35 -10.05 -9.7" fill="#ad9d78" fill-rule="evenodd" stroke="none"/>
    <path d="M6.3 -8.3 Q5.05 -7.05 3.2 -7.0 1.35 -6.95 0.05 -8.2 -1.2 -9.45 -1.2 -11.25 -1.2 -13.0 0.05 -14.25 1.35 -15.5 3.2 -15.55 5.05 -15.6 6.3 -14.35 7.6 -13.1 7.6 -11.35 7.6 -9.55 6.3 -8.3" fill="#ad9d78" fill-rule="evenodd" stroke="none"/>
    <path d="M18.35 -2.9 Q17.9 -1.7 16.7 -1.25 L14.4 -1.3 Q13.35 -1.9 12.85 -3.1 12.35 -4.3 12.75 -5.45 13.25 -6.6 14.4 -7.05 15.6 -7.5 16.7 -7.05 17.85 -6.5 18.35 -5.3 18.85 -4.1 18.35 -2.9" fill="#ad9d78" fill-rule="evenodd" stroke="none"/>
    <path d="M12.35 2.9 Q11.4 3.85 9.95 3.85 8.5 3.85 7.5 2.9 6.5 1.9 6.5 0.55 6.5 -0.85 7.5 -1.8 8.5 -2.8 9.95 -2.8 11.4 -2.8 12.35 -1.8 13.4 -0.85 13.4 0.55 13.4 1.9 12.35 2.9" fill="#ad9d78" fill-rule="evenodd" stroke="none"/>
    <path d="M10.65 9.3 Q10.1 9.9 9.25 9.9 8.4 9.9 7.8 9.3 7.2 8.7 7.2 7.9 7.2 7.05 7.8 6.45 8.4 5.85 9.25 5.85 10.1 5.85 10.65 6.45 11.25 7.05 11.25 7.9 11.25 8.7 10.65 9.3" fill="#ad9d78" fill-rule="evenodd" stroke="none"/>
    <path d="M4.4 14.95 Q3.8 15.6 2.9 15.6 2.0 15.6 1.4 14.95 0.75 14.35 0.75 13.45 0.75 12.55 1.4 11.95 2.0 11.3 2.9 11.3 3.8 11.3 4.4 11.95 5.05 12.55 5.05 13.45 5.05 14.35 4.4 14.95" fill="#ad9d78" fill-rule="evenodd" stroke="none"/>
    <path d="M9.65 15.05 Q8.65 16.05 7.25 16.05 5.8 16.05 4.8 15.05 3.8 14.0 3.8 12.6 3.8 11.2 4.8 10.15 5.8 9.15 7.25 9.15 8.65 9.15 9.65 10.15 10.65 11.2 10.65 12.6 10.65 14.0 9.65 15.05" fill="#ad9d78" fill-rule="evenodd" stroke="none"/>
    <path d="M-5.6 8.55 Q-5.9 8.9 -6.35 8.9 L-7.15 8.55 Q-7.5 8.25 -7.5 7.8 -7.5 7.35 -7.15 7.05 -6.85 6.7 -6.35 6.7 -5.9 6.7 -5.6 7.05 -5.25 7.35 -5.25 7.8 -5.25 8.25 -5.6 8.55" fill="#ad9d78" fill-rule="evenodd" stroke="none"/>
    <path d="M4.9 11.95 Q4.05 12.85 2.8 12.85 1.55 12.85 0.65 11.95 -0.25 11.05 -0.25 9.8 -0.25 8.55 0.65 7.65 1.55 6.75 2.8 6.75 4.05 6.75 4.9 7.65 5.8 8.55 5.8 9.8 5.8 11.05 4.9 11.95" fill="#ad9d78" fill-rule="evenodd" stroke="none"/>
    <path d="M-3.75 19.25 L-4.6 19.55 Q-5.1 19.55 -5.45 19.25 L-5.8 18.4 Q-5.8 17.95 -5.45 17.6 -5.1 17.25 -4.6 17.25 -4.1 17.25 -3.75 17.6 -3.4 17.95 -3.4 18.4 -3.4 18.9 -3.75 19.25" fill="#ad9d78" fill-rule="evenodd" stroke="none"/>
    <path d="M-13.85 10.1 L-14.45 10.35 -15.05 10.1 -15.3 9.55 -15.05 8.95 Q-14.8 8.7 -14.45 8.7 -14.1 8.7 -13.85 8.95 -13.6 9.2 -13.6 9.55 L-13.85 10.1" fill="#ad9d78" fill-rule="evenodd" stroke="none"/>
    <path d="M-14.1 -9.15 L-13.95 -8.55 -14.15 -7.95 -14.75 -7.75 -15.3 -7.95 -15.55 -8.65 Q-15.5 -9.0 -15.25 -9.15 L-14.7 -9.4 Q-14.35 -9.4 -14.1 -9.15" fill="#ad9d78" fill-rule="evenodd" stroke="none"/>
    <path d="M11.8 15.25 Q11.45 15.6 10.9 15.6 10.35 15.6 10.0 15.25 9.6 14.85 9.6 14.35 9.6 13.8 10.0 13.45 10.35 13.1 10.9 13.1 11.45 13.1 11.8 13.45 12.2 13.8 12.2 14.35 12.2 14.85 11.8 15.25" fill="#ad9d78" fill-rule="evenodd" stroke="none"/>
    <path d="M3.1 -17.25 L3.05 -16.7 2.55 -16.4 1.95 -16.65 Q1.65 -16.9 1.5 -17.25 1.4 -17.6 1.6 -17.85 1.75 -18.1 2.05 -18.1 L2.7 -17.85 3.1 -17.25" fill="#ad9d78" fill-rule="evenodd" stroke="none"/>
    <path d="M6.7 -15.25 L6.6 -14.5 Q6.4 -14.15 6.0 -14.15 L5.15 -14.45 4.6 -15.2 Q4.5 -15.65 4.7 -16.0 4.9 -16.35 5.3 -16.3 L6.15 -16.05 6.7 -15.25" fill="#ad9d78" fill-rule="evenodd" stroke="none"/>
    <path d="M16.55 -7.7 L16.45 -6.95 15.85 -6.6 Q15.4 -6.6 15.0 -6.9 14.6 -7.2 14.45 -7.65 14.35 -8.1 14.55 -8.45 14.75 -8.8 15.15 -8.75 15.6 -8.8 16.0 -8.5 L16.55 -7.7" fill="#ad9d78" fill-rule="evenodd" stroke="none"/>
    <path d="M-6.7 -14.7 Q-6.6 -14.3 -6.8 -13.95 L-7.4 -13.6 Q-7.85 -13.6 -8.25 -13.9 L-8.8 -14.65 -8.7 -15.45 Q-8.5 -15.8 -8.1 -15.75 L-7.25 -15.5 Q-6.85 -15.2 -6.7 -14.7" fill="#ad9d78" fill-rule="evenodd" stroke="none"/>
  </g>
</svg>
