<?xml version="1.0" encoding="UTF-8" standalone="no"?>
<svg xmlns:ffdec="https://www.free-decompiler.com/flash" xmlns:xlink="http://www.w3.org/1999/xlink" ffdec:objectType="shape" height="37.65px" width="34.9px" xmlns="http://www.w3.org/2000/svg">
  <g transform="matrix(1.0, 0.0, 0.0, 1.0, 16.5, 18.1)">
    <path d="M11.9 -9.0 Q12.4 -9.0 12.75 -8.65 13.15 -8.25 13.15 -7.75 13.15 -7.2 12.75 -6.85 12.4 -6.5 11.9 -6.5 11.4 -6.5 11.0 -6.85 10.6 -7.2 10.6 -7.75 10.6 -8.25 11.0 -8.65 11.4 -9.0 11.9 -9.0 M9.0 -11.2 Q9.65 -10.95 9.85 -10.3 10.1 -9.7 9.85 -9.05 9.65 -8.4 9.0 -8.1 8.4 -7.85 7.75 -8.1 7.1 -8.3 6.8 -8.95 6.55 -9.55 6.8 -10.2 7.05 -10.85 7.65 -11.15 L9.0 -11.2 M2.5 -13.4 L2.85 -12.9 2.8 -12.4 2.35 -12.15 Q2.1 -12.2 1.85 -12.4 L1.45 -12.9 Q1.35 -13.2 1.55 -13.4 L1.95 -13.65 2.5 -13.4 M-0.55 -11.35 Q-0.55 -11.0 -0.9 -10.75 -1.15 -10.45 -1.6 -10.45 -2.0 -10.45 -2.3 -10.75 L-2.6 -11.35 -2.3 -12.0 -1.6 -12.25 -0.9 -12.0 Q-0.55 -11.75 -0.55 -11.35 M1.45 -9.35 Q1.45 -10.05 1.95 -10.55 2.45 -11.05 3.2 -11.05 3.9 -11.05 4.4 -10.6 4.9 -10.1 4.9 -9.4 4.9 -8.7 4.4 -8.2 3.9 -7.65 3.2 -7.65 2.45 -7.65 1.95 -8.15 1.45 -8.65 1.45 -9.35 M5.95 -11.15 L5.85 -10.5 5.35 -10.2 Q4.95 -10.2 4.6 -10.45 4.25 -10.75 4.15 -11.1 4.05 -11.5 4.25 -11.8 4.4 -12.1 4.75 -12.1 L5.5 -11.85 5.95 -11.15 M14.0 -5.3 L14.5 -4.6 14.4 -3.95 13.9 -3.65 Q13.5 -3.65 13.15 -3.95 L13.1 -3.95 13.35 -3.6 Q13.6 -2.95 13.35 -2.3 13.1 -1.7 12.45 -1.5 11.85 -1.25 11.25 -1.5 10.7 -1.8 10.4 -2.45 10.15 -3.05 10.4 -3.65 10.65 -4.25 11.25 -4.5 11.9 -4.7 12.45 -4.5 L12.85 -4.25 Q12.7 -4.4 12.7 -4.6 L12.75 -5.25 Q12.95 -5.55 13.3 -5.55 L14.0 -5.3 M15.95 -0.05 Q15.7 0.55 15.05 0.8 14.45 1.05 13.8 0.8 13.25 0.55 13.0 -0.05 12.75 -0.65 13.0 -1.3 13.3 -1.85 13.9 -2.1 L15.15 -2.15 Q15.75 -1.9 15.95 -1.3 16.25 -0.65 15.95 -0.05 M14.75 4.4 L14.1 4.15 13.9 3.55 14.1 2.9 14.75 2.65 Q15.15 2.65 15.4 2.9 L15.65 3.55 15.4 4.15 14.75 4.4 M13.05 4.05 Q13.05 4.7 12.55 5.2 12.05 5.65 11.4 5.65 10.7 5.65 10.2 5.2 9.75 4.7 9.75 4.05 9.75 3.4 10.2 2.9 10.7 2.45 11.4 2.45 12.05 2.45 12.55 2.9 13.05 3.4 13.05 4.05 M13.25 7.1 Q13.7 6.7 14.3 6.7 14.85 6.7 15.3 7.1 15.65 7.5 15.65 8.1 L15.3 9.05 Q14.85 9.45 14.3 9.45 13.7 9.45 13.25 9.05 12.85 8.65 12.85 8.1 12.85 7.5 13.25 7.1 M11.95 9.5 Q12.45 9.5 12.75 9.85 13.15 10.2 13.15 10.75 13.15 11.2 12.75 11.55 L11.95 11.9 Q11.4 11.9 11.05 11.55 10.75 11.2 10.75 10.75 10.75 10.2 11.05 9.85 11.4 9.5 11.95 9.5 M9.35 9.45 L8.9 9.2 Q8.75 9.05 8.75 8.8 8.75 8.5 8.9 8.35 L9.35 8.15 9.75 8.35 10.0 8.8 9.75 9.2 9.35 9.45 M8.7 13.2 L7.95 13.5 Q7.5 13.5 7.2 13.2 6.9 12.9 6.9 12.45 6.9 12.05 7.2 11.7 7.5 11.4 7.95 11.4 L8.7 11.7 9.0 12.45 8.7 13.2 M7.15 15.65 Q7.15 16.15 6.8 16.5 6.45 16.85 5.95 16.85 5.5 16.85 5.15 16.5 4.8 16.15 4.8 15.65 4.8 15.15 5.15 14.8 5.5 14.45 5.95 14.45 6.45 14.45 6.8 14.8 7.15 15.15 7.15 15.65 M3.8 17.25 Q3.6 17.55 3.25 17.55 2.9 17.55 2.6 17.25 L2.4 16.7 2.6 16.15 3.25 15.95 3.8 16.15 4.05 16.7 3.8 17.25 M0.05 15.85 Q0.05 16.6 -0.45 17.1 -0.95 17.6 -1.65 17.6 -2.4 17.6 -2.95 17.1 -3.45 16.6 -3.45 15.85 -3.45 15.1 -2.95 14.6 -2.4 14.05 -1.65 14.05 -0.95 14.05 -0.45 14.6 0.05 15.1 0.05 15.85 M0.25 17.8 L0.0 17.2 0.25 16.6 Q0.5 16.35 0.85 16.35 1.2 16.35 1.45 16.6 L1.7 17.2 1.45 17.8 0.85 18.05 0.25 17.8 M10.4 15.3 L9.6 15.6 8.8 15.3 Q8.45 14.95 8.45 14.5 8.45 14.0 8.8 13.7 9.1 13.4 9.6 13.4 10.1 13.4 10.4 13.7 10.75 14.0 10.75 14.5 L10.4 15.3 M-5.65 -10.7 Q-5.55 -10.35 -5.75 -10.05 -5.9 -9.75 -6.25 -9.75 L-7.0 -10.0 Q-7.35 -10.25 -7.5 -10.65 L-7.4 -11.35 Q-7.2 -11.65 -6.85 -11.6 L-6.15 -11.4 -5.65 -10.7 M-8.95 -10.35 L-7.65 -10.3 Q-7.0 -10.05 -6.8 -9.4 -6.55 -8.8 -6.85 -8.15 -7.15 -7.5 -7.8 -7.25 L-9.1 -7.3 Q-9.7 -7.6 -9.95 -8.2 L-9.9 -9.5 Q-9.6 -10.15 -8.95 -10.35 M-11.95 -5.35 Q-11.95 -5.05 -12.1 -4.85 L-12.65 -4.65 Q-12.95 -4.65 -13.1 -4.85 L-13.35 -5.45 -13.05 -5.9 Q-12.9 -6.1 -12.6 -6.1 L-12.05 -5.9 -11.95 -5.35 M-11.35 -3.65 Q-11.85 -4.3 -11.85 -5.1 -11.8 -5.9 -11.2 -6.45 -10.65 -7.0 -9.85 -6.95 -9.1 -6.9 -8.55 -6.35 -8.05 -5.75 -8.1 -4.9 -8.1 -4.15 -8.7 -3.6 -9.2 -3.05 -10.0 -3.1 -10.75 -3.15 -11.35 -3.65 M-10.85 -2.05 Q-10.45 -1.65 -10.45 -1.05 -10.45 -0.45 -10.85 -0.05 -11.3 0.3 -11.85 0.3 -12.45 0.3 -12.9 -0.1 -13.3 -0.55 -13.3 -1.15 -13.3 -1.75 -12.9 -2.1 L-11.85 -2.55 Q-11.3 -2.55 -10.85 -2.05 M-13.55 1.25 Q-13.0 0.55 -12.05 0.45 -11.1 0.3 -10.4 0.85 -9.65 1.35 -9.55 2.2 -9.45 3.0 -10.05 3.6 -10.6 4.25 -11.5 4.4 -12.45 4.5 -13.2 4.0 -13.9 3.55 -14.0 2.7 -14.05 1.9 -13.55 1.25 M-3.7 -2.8 L-4.35 -2.55 Q-4.7 -2.55 -4.95 -2.8 L-5.25 -3.45 -4.95 -4.1 -4.35 -4.35 -3.7 -4.1 -3.45 -3.45 Q-3.45 -3.05 -3.7 -2.8 M-7.85 -1.2 L-8.05 -0.65 Q-8.2 -0.45 -8.5 -0.45 -8.8 -0.5 -9.0 -0.7 L-9.2 -1.25 -8.95 -1.7 -8.5 -1.9 -8.0 -1.65 -7.85 -1.2 M-6.05 8.15 Q-5.8 7.85 -5.35 7.85 -4.95 7.85 -4.7 8.15 -4.4 8.45 -4.4 8.8 -4.4 9.2 -4.7 9.45 -4.95 9.75 -5.35 9.75 -5.8 9.75 -6.05 9.45 L-6.35 8.8 -6.05 8.15 M-8.3 10.3 Q-8.8 10.75 -9.55 10.75 -10.3 10.75 -11.0 10.15 -11.55 9.55 -11.65 8.75 -11.75 7.9 -11.3 7.45 -10.75 6.8 -10.0 6.85 -9.2 6.85 -8.6 7.55 -8.0 8.1 -7.9 8.9 -7.8 9.75 -8.3 10.3 M-8.15 11.7 Q-7.55 11.35 -7.0 11.45 -6.45 11.6 -6.2 12.05 -5.9 12.5 -6.1 13.0 L-6.5 13.65 -5.9 14.3 Q-5.6 14.0 -5.2 14.0 -4.8 14.0 -4.5 14.3 -4.2 14.65 -4.2 15.05 -4.2 15.5 -4.5 15.8 -4.8 16.1 -5.2 16.1 L-5.9 15.8 -6.05 15.95 Q-6.45 16.6 -7.2 16.65 -7.9 16.8 -8.6 16.35 -9.25 15.95 -9.45 15.15 -9.65 14.45 -9.25 13.85 L-8.8 13.35 Q-9.05 13.0 -8.85 12.5 -8.7 12.0 -8.15 11.7 M-1.4 11.5 Q-1.1 11.75 -1.1 12.15 -1.1 12.55 -1.4 12.8 -1.65 13.1 -2.05 13.1 L-2.75 12.8 -3.05 12.15 Q-3.05 11.75 -2.75 11.5 -2.5 11.2 -2.05 11.2 -1.65 11.2 -1.4 11.5 M-13.9 6.8 Q-13.6 6.1 -13.05 5.75 L-12.05 5.65 Q-11.55 5.85 -11.4 6.5 -11.35 7.15 -11.65 7.8 L-12.5 8.8 -13.55 8.9 Q-14.05 8.7 -14.15 8.05 -14.25 7.45 -13.9 6.8 M-11.65 10.35 L-11.85 10.8 -12.4 11.05 -12.9 10.8 -13.1 10.35 -12.9 9.8 -12.4 9.6 Q-12.05 9.6 -11.85 9.8 L-11.65 10.35 M-3.85 17.0 Q-3.4 17.0 -3.1 17.3 -2.8 17.6 -2.8 18.0 -2.8 18.45 -3.1 18.75 L-3.85 19.0 -4.55 18.75 -4.9 18.0 Q-4.9 17.6 -4.55 17.3 -4.25 17.0 -3.85 17.0" fill="#171000" fill-opacity="0.3019608" fill-rule="evenodd" stroke="none"/>
    <path d="M-9.15 -10.75 L-10.65 -10.8 Q-11.35 -11.15 -11.65 -11.85 -11.9 -12.6 -11.6 -13.35 -11.25 -14.05 -10.5 -14.3 L-9.0 -14.25 Q-8.25 -13.95 -8.0 -13.2 -7.75 -12.5 -8.1 -11.8 -8.4 -11.05 -9.15 -10.75" fill="#ad9d78" fill-rule="evenodd" stroke="none"/>
    <path d="M-7.2 12.65 Q-7.35 13.2 -8.0 13.6 L-9.35 13.85 -10.3 13.15 Q-10.6 12.65 -10.4 12.05 -10.2 11.45 -9.55 11.1 -8.9 10.7 -8.25 10.85 -7.6 11.0 -7.3 11.5 -6.95 12.05 -7.2 12.65" fill="#ad9d78" fill-rule="evenodd" stroke="none"/>
    <path d="M-11.75 1.8 Q-12.4 2.55 -13.45 2.7 -14.55 2.8 -15.4 2.25 -16.2 1.7 -16.3 0.75 -16.4 -0.2 -15.8 -0.95 -15.15 -1.75 -14.05 -1.85 -13.0 -2.0 -12.15 -1.4 -11.3 -0.8 -11.2 0.15 -11.1 1.1 -11.75 1.8" fill="#ad9d78" fill-rule="evenodd" stroke="none"/>
    <path d="M-1.2 -14.75 Q-1.5 -14.4 -2.0 -14.4 -2.5 -14.4 -2.85 -14.75 -3.2 -15.05 -3.2 -15.45 L-2.85 -16.2 -2.0 -16.5 Q-1.5 -16.5 -1.2 -16.2 -0.8 -15.9 -0.8 -15.45 -0.8 -15.05 -1.2 -14.75" fill="#ad9d78" fill-rule="evenodd" stroke="none"/>
    <path d="M10.2 -11.7 Q9.5 -11.4 8.75 -11.7 8.0 -11.95 7.65 -12.7 7.4 -13.4 7.65 -14.15 7.95 -14.9 8.65 -15.25 L10.2 -15.3 Q10.95 -15.0 11.2 -14.25 11.5 -13.55 11.2 -12.8 10.95 -12.05 10.2 -11.7" fill="#ad9d78" fill-rule="evenodd" stroke="none"/>
    <path d="M17.45 8.05 L16.3 8.5 Q15.6 8.5 15.1 8.05 14.65 7.6 14.65 6.95 14.65 6.25 15.1 5.8 15.6 5.35 16.3 5.35 16.95 5.35 17.45 5.8 17.9 6.25 17.9 6.95 17.9 7.6 17.45 8.05" fill="#ad9d78" fill-rule="evenodd" stroke="none"/>
    <path d="M17.6 2.4 Q17.3 2.7 16.85 2.7 16.45 2.7 16.1 2.4 15.85 2.1 15.85 1.7 15.85 1.3 16.1 1.0 16.45 0.7 16.85 0.7 17.3 0.7 17.6 1.0 L17.9 1.7 17.6 2.4" fill="#ad9d78" fill-rule="evenodd" stroke="none"/>
    <path d="M15.2 -5.05 Q14.95 -4.35 14.2 -4.1 13.5 -3.8 12.8 -4.1 12.15 -4.45 11.85 -5.2 11.55 -5.9 11.8 -6.6 12.1 -7.25 12.8 -7.55 13.55 -7.8 14.2 -7.55 14.9 -7.2 15.2 -6.5 15.5 -5.75 15.2 -5.05" fill="#ad9d78" fill-rule="evenodd" stroke="none"/>
    <path d="M-10.1 6.35 Q-9.4 6.95 -9.3 7.9 -9.15 8.85 -9.75 9.5 -10.3 10.05 -11.2 10.05 -12.05 10.0 -12.85 9.35 -13.5 8.65 -13.6 7.7 -13.7 6.75 -13.2 6.2 -12.6 5.5 -11.7 5.55 -10.8 5.55 -10.1 6.35" fill="#ad9d78" fill-rule="evenodd" stroke="none"/>
    <path d="M-12.7 -2.45 Q-13.2 -2.0 -13.85 -2.0 -14.55 -2.0 -15.05 -2.5 -15.5 -3.0 -15.5 -3.7 L-15.05 -4.8 Q-14.55 -5.3 -13.85 -5.3 -13.2 -5.3 -12.7 -4.75 -12.25 -4.3 -12.25 -3.6 -12.25 -2.9 -12.7 -2.45" fill="#ad9d78" fill-rule="evenodd" stroke="none"/>
    <path d="M-1.8 12.4 Q-2.1 12.75 -2.55 12.75 -3.05 12.75 -3.35 12.4 L-3.7 11.65 -3.35 10.9 Q-3.05 10.55 -2.55 10.55 -2.1 10.55 -1.8 10.9 -1.45 11.2 -1.45 11.65 -1.45 12.1 -1.8 12.4" fill="#ad9d78" fill-rule="evenodd" stroke="none"/>
    <path d="M4.2 17.55 L3.55 17.85 2.85 17.55 2.6 16.9 2.85 16.25 3.55 16.0 Q3.95 16.0 4.2 16.25 L4.5 16.9 4.2 17.55" fill="#ad9d78" fill-rule="evenodd" stroke="none"/>
    <path d="M-14.6 7.8 L-15.8 7.9 Q-16.35 7.65 -16.5 6.9 -16.6 6.2 -16.2 5.45 -15.85 4.65 -15.25 4.25 L-14.05 4.15 Q-13.5 4.4 -13.35 5.15 -13.25 5.85 -13.6 6.65 L-14.6 7.8" fill="#ad9d78" fill-rule="evenodd" stroke="none"/>
    <path d="M14.55 10.95 Q14.2 11.35 13.6 11.35 13.0 11.35 12.6 10.95 12.2 10.55 12.2 10.0 12.2 9.4 12.6 9.0 13.0 8.6 13.6 8.6 14.2 8.6 14.55 9.0 L15.0 10.0 14.55 10.95" fill="#ad9d78" fill-rule="evenodd" stroke="none"/>
    <path d="M-8.5 16.85 Q-9.3 17.0 -10.1 16.5 -10.85 16.0 -11.1 15.1 -11.3 14.3 -10.85 13.6 -10.4 12.85 -9.5 12.75 -8.65 12.65 -7.9 13.15 -7.1 13.65 -6.9 14.5 -6.7 15.3 -7.15 16.05 -7.6 16.75 -8.5 16.85" fill="#ad9d78" fill-rule="evenodd" stroke="none"/>
    <path d="M-4.45 -5.6 Q-4.75 -5.3 -5.2 -5.3 -5.6 -5.3 -5.9 -5.6 -6.25 -5.9 -6.25 -6.35 L-5.9 -7.1 -5.2 -7.4 Q-4.75 -7.4 -4.45 -7.1 -4.15 -6.75 -4.15 -6.35 -4.15 -5.9 -4.45 -5.6" fill="#ad9d78" fill-rule="evenodd" stroke="none"/>
    <path d="M14.55 -10.25 Q14.15 -9.85 13.55 -9.85 12.95 -9.85 12.5 -10.25 12.05 -10.7 12.05 -11.3 12.05 -11.9 12.5 -12.35 12.95 -12.75 13.55 -12.75 14.15 -12.75 14.55 -12.35 15.0 -11.9 15.0 -11.3 15.0 -10.7 14.55 -10.25" fill="#ad9d78" fill-rule="evenodd" stroke="none"/>
    <path d="M-5.35 15.85 Q-5.7 16.2 -6.2 16.2 -6.65 16.2 -7.0 15.85 L-7.35 15.0 Q-7.35 14.5 -7.0 14.15 -6.65 13.8 -6.2 13.8 -5.7 13.8 -5.35 14.15 -5.0 14.5 -5.0 15.0 -5.0 15.5 -5.35 15.85" fill="#ad9d78" fill-rule="evenodd" stroke="none"/>
    <path d="M-0.7 17.35 Q-1.25 17.95 -2.1 17.95 -2.95 17.95 -3.55 17.35 -4.15 16.75 -4.15 15.9 -4.15 15.05 -3.55 14.45 -2.95 13.85 -2.1 13.85 -1.25 13.85 -0.7 14.45 -0.1 15.05 -0.1 15.9 -0.1 16.75 -0.7 17.35" fill="#ad9d78" fill-rule="evenodd" stroke="none"/>
    <path d="M-9.4 -4.3 Q-9.15 -4.1 -9.2 -3.75 -9.2 -3.4 -9.45 -3.15 -9.65 -2.9 -10.0 -2.9 L-10.55 -3.2 -10.8 -3.8 -10.5 -4.35 -9.95 -4.55 -9.4 -4.3" fill="#ad9d78" fill-rule="evenodd" stroke="none"/>
    <path d="M-10.05 -9.7 Q-9.45 -9.0 -9.5 -8.05 -9.5 -7.15 -10.2 -6.5 -10.8 -5.9 -11.7 -5.95 -12.6 -6.0 -13.25 -6.6 -13.85 -7.35 -13.85 -8.25 -13.8 -9.2 -13.1 -9.8 -12.45 -10.45 -11.55 -10.4 -10.65 -10.35 -10.05 -9.7" fill="#ad9d78" fill-rule="evenodd" stroke="none"/>
    <path d="M4.9 -11.85 Q4.35 -11.2 3.5 -11.2 2.65 -11.2 2.05 -11.8 1.5 -12.35 1.5 -13.15 1.5 -13.95 2.05 -14.55 2.65 -15.1 3.5 -15.1 4.35 -15.1 4.9 -14.6 5.5 -14.0 5.5 -13.2 5.5 -12.4 4.9 -11.85" fill="#ad9d78" fill-rule="evenodd" stroke="none"/>
    <path d="M18.25 -2.45 L17.2 -1.45 Q16.5 -1.15 15.75 -1.45 15.1 -1.75 14.8 -2.45 14.55 -3.15 14.8 -3.85 15.15 -4.5 15.85 -4.8 L17.3 -4.85 Q18.0 -4.55 18.25 -3.85 18.55 -3.15 18.25 -2.45" fill="#ad9d78" fill-rule="evenodd" stroke="none"/>
    <path d="M14.3 3.6 Q13.75 4.15 12.95 4.15 12.15 4.15 11.6 3.6 11.05 3.05 11.05 2.3 11.05 1.55 11.6 1.0 12.15 0.45 12.95 0.45 13.75 0.45 14.3 1.0 14.85 1.55 14.85 2.3 14.85 3.05 14.3 3.6" fill="#ad9d78" fill-rule="evenodd" stroke="none"/>
    <path d="M11.1 8.25 L10.6 8.5 10.1 8.25 9.9 7.75 10.1 7.25 Q10.3 7.05 10.6 7.05 L11.1 7.25 11.35 7.75 11.1 8.25" fill="#ad9d78" fill-rule="evenodd" stroke="none"/>
    <path d="M1.5 18.15 L0.8 18.45 Q0.4 18.45 0.1 18.15 L-0.2 17.45 0.1 16.8 Q0.4 16.5 0.8 16.5 1.2 16.5 1.5 16.8 L1.8 17.45 1.5 18.15" fill="#ad9d78" fill-rule="evenodd" stroke="none"/>
    <path d="M9.85 12.85 Q9.5 13.2 9.0 13.2 8.5 13.2 8.15 12.85 7.8 12.5 7.8 12.0 7.8 11.5 8.15 11.15 8.5 10.8 9.0 10.8 9.5 10.8 9.85 11.15 10.2 11.5 10.2 12.0 10.2 12.5 9.85 12.85" fill="#ad9d78" fill-rule="evenodd" stroke="none"/>
    <path d="M-5.6 8.55 Q-5.9 8.9 -6.35 8.9 L-7.15 8.55 Q-7.5 8.25 -7.5 7.8 -7.5 7.35 -7.15 7.05 -6.85 6.7 -6.35 6.7 -5.9 6.7 -5.6 7.05 -5.25 7.35 -5.25 7.8 -5.25 8.25 -5.6 8.55" fill="#ad9d78" fill-rule="evenodd" stroke="none"/>
    <path d="M7.65 16.65 Q7.25 17.05 6.7 17.05 6.15 17.05 5.75 16.65 5.35 16.25 5.35 15.65 5.35 15.1 5.75 14.7 6.15 14.3 6.7 14.3 7.25 14.3 7.65 14.7 8.05 15.1 8.05 15.65 8.05 16.25 7.65 16.65" fill="#ad9d78" fill-rule="evenodd" stroke="none"/>
    <path d="M-3.75 19.25 L-4.6 19.55 Q-5.1 19.55 -5.45 19.25 L-5.8 18.4 Q-5.8 17.95 -5.45 17.6 -5.1 17.25 -4.6 17.25 -4.1 17.25 -3.75 17.6 -3.4 17.95 -3.4 18.4 -3.4 18.9 -3.75 19.25" fill="#ad9d78" fill-rule="evenodd" stroke="none"/>
    <path d="M-13.85 10.1 L-14.45 10.35 -15.05 10.1 -15.3 9.55 -15.05 8.95 Q-14.8 8.7 -14.45 8.7 -14.1 8.7 -13.85 8.95 -13.6 9.2 -13.6 9.55 L-13.85 10.1" fill="#ad9d78" fill-rule="evenodd" stroke="none"/>
    <path d="M-14.1 -9.15 L-13.95 -8.55 -14.15 -7.95 -14.75 -7.75 -15.3 -7.95 -15.55 -8.65 Q-15.5 -9.0 -15.25 -9.15 L-14.7 -9.4 Q-14.35 -9.4 -14.1 -9.15" fill="#ad9d78" fill-rule="evenodd" stroke="none"/>
    <path d="M11.8 15.25 Q11.45 15.6 10.9 15.6 10.35 15.6 10.0 15.25 9.6 14.85 9.6 14.35 9.6 13.8 10.0 13.45 10.35 13.1 10.9 13.1 11.45 13.1 11.8 13.45 12.2 13.8 12.2 14.35 12.2 14.85 11.8 15.25" fill="#ad9d78" fill-rule="evenodd" stroke="none"/>
    <path d="M3.1 -17.25 L3.05 -16.7 2.55 -16.4 1.95 -16.65 Q1.65 -16.9 1.5 -17.25 1.4 -17.6 1.6 -17.85 1.75 -18.1 2.05 -18.1 L2.7 -17.85 3.1 -17.25" fill="#ad9d78" fill-rule="evenodd" stroke="none"/>
    <path d="M6.7 -15.25 L6.6 -14.5 Q6.4 -14.15 6.0 -14.15 L5.15 -14.45 4.6 -15.2 Q4.5 -15.65 4.7 -16.0 4.9 -16.35 5.3 -16.3 L6.15 -16.05 6.7 -15.25" fill="#ad9d78" fill-rule="evenodd" stroke="none"/>
    <path d="M16.55 -7.7 L16.45 -6.95 15.85 -6.6 Q15.4 -6.6 15.0 -6.9 14.6 -7.2 14.45 -7.65 14.35 -8.1 14.55 -8.45 14.75 -8.8 15.15 -8.75 15.6 -8.8 16.0 -8.5 L16.55 -7.7" fill="#ad9d78" fill-rule="evenodd" stroke="none"/>
    <path d="M-6.7 -14.7 Q-6.6 -14.3 -6.8 -13.95 L-7.4 -13.6 Q-7.85 -13.6 -8.25 -13.9 L-8.8 -14.65 -8.7 -15.45 Q-8.5 -15.8 -8.1 -15.75 L-7.25 -15.5 Q-6.85 -15.2 -6.7 -14.7" fill="#ad9d78" fill-rule="evenodd" stroke="none"/>
  </g>
</svg>
