<?xml version="1.0" encoding="UTF-8" standalone="no"?>
<svg xmlns:ffdec="https://www.free-decompiler.com/flash" xmlns:xlink="http://www.w3.org/1999/xlink" ffdec:objectType="shape" height="37.65px" width="34.4px" xmlns="http://www.w3.org/2000/svg">
  <g transform="matrix(1.0, 0.0, 0.0, 1.0, 16.5, 18.1)">
    <path d="M7.85 -10.8 L8.85 -10.8 9.45 -10.15 Q9.65 -9.7 9.45 -9.15 L8.8 -8.5 Q8.4 -8.3 7.9 -8.5 L7.85 -8.5 Q7.4 -8.65 7.15 -9.15 L7.2 -9.1 Q7.05 -9.55 7.2 -10.1 L7.2 -10.05 7.8 -10.75 7.85 -10.8 M11.3 -8.35 L11.9 -8.55 12.45 -8.35 12.7 -7.75 12.45 -7.15 Q12.25 -6.9 11.9 -6.9 L11.3 -7.15 Q11.05 -7.4 11.05 -7.75 L11.3 -8.3 11.3 -8.35 M2.25 -13.05 L2.45 -12.75 2.45 -12.65 2.35 -12.6 2.1 -12.75 1.9 -13.05 1.9 -13.15 1.95 -13.2 2.25 -13.05 M-1.15 -11.1 L-1.2 -11.0 Q-1.35 -10.85 -1.6 -10.85 L-2.0 -11.05 -2.2 -11.35 -2.0 -11.65 -1.6 -11.8 -1.2 -11.7 -1.15 -11.65 -1.0 -11.35 -1.15 -11.1 M1.9 -9.35 Q1.9 -9.85 2.25 -10.2 L2.25 -10.25 Q2.6 -10.6 3.2 -10.6 L4.1 -10.3 4.15 -10.25 4.5 -9.4 Q4.5 -8.85 4.1 -8.5 3.7 -8.1 3.2 -8.1 2.6 -8.1 2.25 -8.5 1.9 -8.8 1.9 -9.35 M5.55 -10.75 Q5.45 -10.65 5.35 -10.65 5.1 -10.65 4.9 -10.8 L4.55 -11.2 4.6 -11.6 4.7 -11.65 4.8 -11.65 5.2 -11.5 5.55 -11.05 5.55 -10.75 M13.25 -5.1 L13.35 -5.1 13.75 -4.95 14.1 -4.5 14.05 -4.2 13.9 -4.1 13.4 -4.25 13.25 -4.35 13.2 -4.45 13.1 -4.7 13.1 -4.65 Q13.05 -4.9 13.15 -5.05 L13.25 -5.1 M12.95 -3.4 L12.95 -2.5 12.95 -2.45 12.35 -1.9 12.3 -1.9 Q11.85 -1.7 11.4 -1.9 L11.45 -1.9 10.85 -2.6 10.8 -2.65 Q10.65 -3.05 10.8 -3.5 L10.75 -3.5 11.4 -4.05 Q11.9 -4.25 12.35 -4.05 L12.6 -3.9 12.7 -3.8 12.75 -3.7 12.95 -3.4 M15.0 -1.75 L15.6 -1.1 15.6 -0.25 14.95 0.4 14.9 0.4 Q14.45 0.6 14.0 0.4 L13.35 -0.25 13.4 -0.2 Q13.25 -0.65 13.4 -1.1 L14.05 -1.7 14.05 -1.65 15.0 -1.7 15.0 -1.75 M14.45 3.25 L14.75 3.1 Q15.0 3.1 15.1 3.25 L15.25 3.55 15.1 3.85 14.75 3.95 14.45 3.9 14.4 3.85 14.35 3.55 14.4 3.25 14.45 3.25 M12.25 4.85 L11.4 5.2 Q10.85 5.2 10.5 4.85 10.15 4.55 10.15 4.05 10.15 3.55 10.5 3.25 10.85 2.9 11.4 2.9 11.9 2.9 12.25 3.25 12.6 3.55 12.6 4.05 12.6 4.55 12.25 4.85 M13.55 7.45 L13.55 7.4 Q13.85 7.15 14.3 7.15 14.65 7.15 15.0 7.4 L15.0 7.45 15.25 8.1 15.0 8.75 14.3 9.0 13.55 8.75 13.3 8.1 Q13.3 7.7 13.55 7.45 M11.95 9.95 L12.45 10.15 12.5 10.2 12.7 10.75 12.5 11.25 12.45 11.3 11.95 11.45 Q11.6 11.45 11.4 11.25 L11.15 10.75 11.4 10.15 Q11.6 9.95 11.95 9.95 M9.45 8.65 L9.5 8.7 9.55 8.8 9.5 8.85 9.45 8.95 9.35 9.0 9.25 8.95 9.2 8.9 9.15 8.8 9.2 8.65 9.35 8.6 9.45 8.65 M8.4 12.9 L7.95 13.05 7.5 12.9 7.35 12.45 Q7.35 12.2 7.5 12.05 L7.95 11.85 8.4 12.05 8.55 12.45 8.4 12.9 M6.7 15.65 L6.5 16.2 5.95 16.4 Q5.65 16.4 5.45 16.2 L5.2 15.65 Q5.2 15.3 5.45 15.1 L5.95 14.9 6.5 15.1 6.7 15.65 M3.55 16.95 L3.5 17.0 3.25 17.1 2.9 16.95 2.85 16.7 2.9 16.45 3.25 16.35 3.5 16.45 3.6 16.7 3.55 16.95 M-0.75 14.9 Q-0.35 15.3 -0.35 15.85 -0.35 16.4 -0.75 16.8 -1.15 17.2 -1.65 17.2 -2.25 17.2 -2.6 16.8 -3.0 16.4 -3.0 15.85 -3.0 15.3 -2.6 14.9 -2.25 14.5 -1.65 14.5 -1.15 14.5 -0.75 14.9 M0.55 17.5 L0.4 17.2 0.55 16.95 Q0.65 16.8 0.85 16.8 L1.15 16.95 1.2 16.95 1.3 17.2 1.2 17.5 1.15 17.5 0.85 17.6 0.55 17.5 M10.1 14.95 L9.6 15.15 Q9.3 15.15 9.1 14.95 L8.9 14.5 9.1 14.05 9.1 14.0 Q9.3 13.85 9.6 13.85 L10.1 14.0 10.1 14.05 10.3 14.5 10.1 14.95 M-6.85 -11.15 L-6.4 -11.05 -6.05 -10.55 -6.1 -10.25 -6.25 -10.15 -6.75 -10.35 -7.05 -10.75 -7.0 -11.1 -6.9 -11.15 -6.85 -11.15 M-9.5 -9.3 L-9.45 -9.35 -8.8 -9.9 Q-8.3 -10.15 -7.85 -9.9 L-7.8 -9.85 Q-7.35 -9.7 -7.2 -9.25 L-7.2 -9.2 Q-7.05 -8.8 -7.25 -8.35 L-7.25 -8.3 Q-7.5 -7.85 -7.9 -7.65 L-8.85 -7.7 -8.9 -7.7 -9.5 -8.35 Q-9.7 -8.8 -9.5 -9.3 M-10.9 -6.15 Q-10.45 -6.55 -9.85 -6.55 -9.3 -6.5 -8.85 -6.05 -8.5 -5.55 -8.5 -4.9 -8.5 -4.3 -9.0 -3.9 -9.4 -3.5 -9.95 -3.55 -10.6 -3.6 -11.05 -3.95 L-11.0 -3.95 Q-11.4 -4.45 -11.4 -5.05 -11.4 -5.7 -10.9 -6.1 L-10.9 -6.15 M-12.6 -5.65 L-12.4 -5.55 -12.4 -5.4 -12.4 -5.35 -12.4 -5.15 -12.65 -5.1 -12.75 -5.1 -12.9 -5.4 -12.85 -5.5 -12.7 -5.6 -12.6 -5.65 M-11.15 -1.75 L-10.9 -1.05 -11.1 -0.35 -11.15 -0.35 Q-11.45 -0.1 -11.85 -0.1 L-12.55 -0.35 -12.6 -0.4 -12.85 -1.15 -12.6 -1.75 -12.6 -1.8 -11.85 -2.1 Q-11.45 -2.1 -11.15 -1.75 M-13.2 1.5 L-13.2 1.55 Q-12.75 0.95 -12.0 0.9 L-11.95 0.9 Q-11.25 0.75 -10.65 1.2 -10.1 1.6 -10.0 2.25 -9.95 2.85 -10.35 3.3 L-10.35 3.35 Q-10.8 3.85 -11.55 3.95 -12.4 4.05 -12.95 3.65 -13.5 3.3 -13.55 2.65 -13.6 2.0 -13.2 1.5 M-4.65 -3.8 L-4.35 -3.95 -4.0 -3.8 -3.9 -3.45 -4.0 -3.1 Q-4.15 -2.95 -4.35 -2.95 -4.55 -2.95 -4.65 -3.1 L-4.85 -3.45 -4.65 -3.8 M-8.35 -1.4 L-8.25 -1.3 -8.25 -1.25 -8.25 -1.2 -8.35 -1.0 -8.4 -0.95 -8.45 -0.9 Q-8.55 -0.9 -8.65 -1.0 L-8.7 -1.0 -8.8 -1.2 -8.7 -1.35 -8.6 -1.45 -8.5 -1.45 -8.35 -1.4 M-8.85 7.9 Q-8.4 8.3 -8.35 8.95 L-8.35 9.0 Q-8.25 9.55 -8.6 10.0 -8.95 10.35 -9.5 10.35 L-9.55 10.35 Q-10.15 10.3 -10.7 9.8 L-11.2 8.7 Q-11.25 8.1 -10.95 7.75 -10.6 7.25 -10.0 7.3 -9.4 7.3 -8.9 7.85 L-8.85 7.9 M-5.7 8.45 L-5.35 8.3 Q-5.2 8.3 -5.0 8.45 L-4.95 8.5 -4.85 8.8 -4.95 9.15 -5.0 9.2 -5.35 9.35 -5.7 9.2 -5.75 9.15 -5.9 8.8 -5.75 8.5 -5.7 8.45 M-8.45 12.65 Q-8.35 12.3 -7.9 12.05 L-7.1 11.9 Q-6.75 12.0 -6.55 12.25 L-6.55 12.3 Q-6.35 12.55 -6.5 12.85 L-6.5 12.95 -6.75 13.3 -6.85 13.5 -6.85 13.75 -6.75 14.0 -6.3 14.5 -6.15 14.7 -5.85 14.75 -5.6 14.65 -5.2 14.45 Q-4.95 14.45 -4.8 14.65 L-4.6 15.05 -4.8 15.5 -5.2 15.65 -5.6 15.5 Q-5.75 15.35 -5.9 15.35 L-6.15 15.4 -6.3 15.6 -6.4 15.75 Q-6.7 16.2 -7.25 16.25 L-7.3 16.25 -8.35 16.0 -9.05 15.05 Q-9.15 14.55 -8.85 14.1 L-8.85 14.05 -8.55 13.7 -8.4 13.5 -8.45 13.2 -8.45 12.65 M-1.7 11.8 L-1.65 11.85 -1.55 12.15 -1.65 12.5 -1.7 12.55 -2.05 12.7 -2.4 12.55 -2.45 12.5 -2.6 12.15 -2.45 11.85 -2.4 11.8 -2.05 11.65 Q-1.9 11.65 -1.7 11.8 M-13.5 7.0 L-13.5 6.95 -12.8 6.15 -12.2 6.05 Q-11.95 6.15 -11.85 6.6 -11.8 7.1 -12.05 7.65 L-12.7 8.45 -13.35 8.5 -13.7 8.0 -13.7 7.95 -13.5 7.0 M-12.7 10.35 L-12.6 10.1 -12.4 10.05 -12.15 10.1 -12.05 10.35 -12.15 10.5 -12.4 10.6 -12.6 10.5 -12.7 10.35 M-3.85 18.55 L-4.25 18.45 -4.45 18.0 -4.25 17.6 -3.85 17.45 Q-3.6 17.45 -3.4 17.6 L-3.25 18.0 -3.35 18.45 -3.4 18.45 -3.85 18.55" fill="#171000" fill-opacity="0.3019608" fill-rule="evenodd" stroke="none"/>
    <path d="M-9.65 -11.95 L-10.15 -11.9 -10.45 -12.3 -10.5 -12.8 -10.1 -13.1 -9.6 -13.1 -9.3 -12.75 Q-9.15 -12.5 -9.3 -12.25 -9.4 -12.0 -9.65 -11.95" fill="#ad9d78" fill-rule="evenodd" stroke="none"/>
    <path d="M-7.2 12.65 Q-7.35 13.2 -8.0 13.6 L-9.35 13.85 -10.3 13.15 Q-10.6 12.65 -10.4 12.05 -10.2 11.45 -9.55 11.1 -8.9 10.7 -8.25 10.85 -7.6 11.0 -7.3 11.5 -6.95 12.05 -7.2 12.65" fill="#ad9d78" fill-rule="evenodd" stroke="none"/>
    <path d="M-12.6 1.15 Q-12.95 1.55 -13.55 1.6 L-14.5 1.4 -15.05 0.55 Q-15.1 0.05 -14.75 -0.3 L-13.85 -0.8 -12.85 -0.55 Q-12.4 -0.25 -12.35 0.25 -12.25 0.75 -12.6 1.15" fill="#ad9d78" fill-rule="evenodd" stroke="none"/>
    <path d="M-1.2 -14.75 Q-1.5 -14.4 -2.0 -14.4 -2.5 -14.4 -2.85 -14.75 -3.2 -15.05 -3.2 -15.45 L-2.85 -16.2 -2.0 -16.5 Q-1.5 -16.5 -1.2 -16.2 -0.8 -15.9 -0.8 -15.45 -0.8 -15.05 -1.2 -14.75" fill="#ad9d78" fill-rule="evenodd" stroke="none"/>
    <path d="M10.85 -12.7 L9.45 -12.8 Q8.7 -13.05 8.3 -13.7 7.95 -14.2 8.15 -14.7 8.35 -15.25 9.0 -15.45 L10.4 -15.3 11.55 -14.45 Q11.9 -13.9 11.7 -13.35 11.5 -12.85 10.85 -12.7" fill="#ad9d78" fill-rule="evenodd" stroke="none"/>
    <path d="M17.45 8.05 L16.3 8.5 Q15.6 8.5 15.1 8.05 14.65 7.6 14.65 6.95 14.65 6.25 15.1 5.8 15.6 5.35 16.3 5.35 16.95 5.35 17.45 5.8 17.9 6.25 17.9 6.95 17.9 7.6 17.45 8.05" fill="#ad9d78" fill-rule="evenodd" stroke="none"/>
    <path d="M17.6 2.4 Q17.3 2.7 16.85 2.7 16.45 2.7 16.1 2.4 15.85 2.1 15.85 1.7 15.85 1.3 16.1 1.0 16.45 0.7 16.85 0.7 17.3 0.7 17.6 1.0 L17.9 1.7 17.6 2.4" fill="#ad9d78" fill-rule="evenodd" stroke="none"/>
    <path d="M16.35 -4.75 Q16.1 -4.05 15.35 -3.8 14.65 -3.5 13.95 -3.8 13.3 -4.15 13.0 -4.9 12.7 -5.6 12.95 -6.3 13.25 -6.95 13.95 -7.25 14.7 -7.5 15.35 -7.25 16.05 -6.9 16.35 -6.2 16.65 -5.45 16.35 -4.75" fill="#ad9d78" fill-rule="evenodd" stroke="none"/>
    <path d="M-10.6 6.95 Q-10.15 7.3 -10.1 7.95 -10.0 8.55 -10.4 8.95 -10.75 9.35 -11.3 9.35 -11.9 9.3 -12.4 8.9 L-12.9 7.8 Q-12.95 7.2 -12.6 6.85 -12.25 6.4 -11.65 6.45 -11.1 6.45 -10.6 6.95" fill="#ad9d78" fill-rule="evenodd" stroke="none"/>
    <path d="M-12.7 -2.45 Q-13.2 -2.0 -13.85 -2.0 -14.55 -2.0 -15.05 -2.5 -15.5 -3.0 -15.5 -3.7 L-15.05 -4.8 Q-14.55 -5.3 -13.85 -5.3 -13.2 -5.3 -12.7 -4.75 -12.25 -4.3 -12.25 -3.6 -12.25 -2.9 -12.7 -2.45" fill="#ad9d78" fill-rule="evenodd" stroke="none"/>
    <path d="M-1.8 12.4 Q-2.1 12.75 -2.55 12.75 -3.05 12.75 -3.35 12.4 L-3.7 11.65 -3.35 10.9 Q-3.05 10.55 -2.55 10.55 -2.1 10.55 -1.8 10.9 -1.45 11.2 -1.45 11.65 -1.45 12.1 -1.8 12.4" fill="#ad9d78" fill-rule="evenodd" stroke="none"/>
    <path d="M4.2 17.55 L3.55 17.85 2.85 17.55 2.6 16.9 2.85 16.25 3.55 16.0 Q3.95 16.0 4.2 16.25 L4.5 16.9 4.2 17.55" fill="#ad9d78" fill-rule="evenodd" stroke="none"/>
    <path d="M-14.6 7.8 L-15.8 7.9 Q-16.35 7.65 -16.5 6.9 -16.6 6.2 -16.2 5.45 -15.85 4.65 -15.25 4.25 L-14.05 4.15 Q-13.5 4.4 -13.35 5.15 -13.25 5.85 -13.6 6.65 L-14.6 7.8" fill="#ad9d78" fill-rule="evenodd" stroke="none"/>
    <path d="M14.55 10.95 Q14.2 11.35 13.6 11.35 13.0 11.35 12.6 10.95 12.2 10.55 12.2 10.0 12.2 9.4 12.6 9.0 13.0 8.6 13.6 8.6 14.2 8.6 14.55 9.0 L15.0 10.0 14.55 10.95" fill="#ad9d78" fill-rule="evenodd" stroke="none"/>
    <path d="M-8.5 16.85 Q-9.3 17.0 -10.1 16.5 -10.85 16.0 -11.1 15.1 -11.3 14.3 -10.85 13.6 -10.4 12.85 -9.5 12.75 -8.65 12.65 -7.9 13.15 -7.1 13.65 -6.9 14.5 -6.7 15.3 -7.15 16.05 -7.6 16.75 -8.5 16.85" fill="#ad9d78" fill-rule="evenodd" stroke="none"/>
    <path d="M-4.9 -6.0 Q-5.0 -5.9 -5.2 -5.9 L-5.5 -6.0 -5.6 -6.3 -5.5 -6.6 -5.2 -6.75 -4.9 -6.6 -4.75 -6.3 -4.9 -6.0" fill="#ad9d78" fill-rule="evenodd" stroke="none"/>
    <path d="M15.1 -10.7 Q14.7 -10.3 14.1 -10.3 13.5 -10.3 13.05 -10.7 12.6 -11.15 12.6 -11.75 12.6 -12.35 13.05 -12.8 13.5 -13.2 14.1 -13.2 14.7 -13.2 15.1 -12.8 L15.55 -11.75 Q15.55 -11.15 15.1 -10.7" fill="#ad9d78" fill-rule="evenodd" stroke="none"/>
    <path d="M-5.35 15.85 Q-5.7 16.2 -6.2 16.2 -6.65 16.2 -7.0 15.85 L-7.35 15.0 Q-7.35 14.5 -7.0 14.15 -6.65 13.8 -6.2 13.8 -5.7 13.8 -5.35 14.15 -5.0 14.5 -5.0 15.0 -5.0 15.5 -5.35 15.85" fill="#ad9d78" fill-rule="evenodd" stroke="none"/>
    <path d="M-1.25 16.9 Q-1.65 17.3 -2.2 17.3 -2.75 17.3 -3.15 16.9 -3.55 16.5 -3.55 15.95 -3.55 15.35 -3.15 14.95 -2.75 14.55 -2.2 14.55 -1.65 14.55 -1.25 14.95 -0.85 15.35 -0.85 15.95 -0.85 16.5 -1.25 16.9" fill="#ad9d78" fill-rule="evenodd" stroke="none"/>
    <path d="M-9.4 -4.3 Q-9.15 -4.1 -9.2 -3.75 -9.2 -3.4 -9.45 -3.15 -9.65 -2.9 -10.0 -2.9 L-10.55 -3.2 -10.8 -3.8 -10.5 -4.35 -9.95 -4.55 -9.4 -4.3" fill="#ad9d78" fill-rule="evenodd" stroke="none"/>
    <path d="M-10.85 -8.95 Q-10.5 -8.6 -10.5 -8.1 -10.55 -7.6 -10.9 -7.25 -11.25 -6.9 -11.75 -6.95 -12.2 -6.95 -12.55 -7.35 -12.9 -7.7 -12.85 -8.2 -12.85 -8.7 -12.5 -9.05 L-11.65 -9.35 -10.85 -8.95" fill="#ad9d78" fill-rule="evenodd" stroke="none"/>
    <path d="M5.5 -14.05 Q4.95 -13.6 4.1 -13.6 3.25 -13.6 2.65 -14.0 2.1 -14.45 2.1 -15.0 2.1 -15.6 2.65 -16.0 3.25 -16.45 4.1 -16.45 4.95 -16.45 5.5 -16.05 6.1 -15.65 6.1 -15.05 6.1 -14.5 5.5 -14.05" fill="#ad9d78" fill-rule="evenodd" stroke="none"/>
    <path d="M16.6 -2.15 L16.15 -1.75 15.5 -1.7 15.1 -2.2 15.1 -2.75 15.55 -3.2 16.2 -3.2 16.65 -2.8 16.6 -2.15" fill="#ad9d78" fill-rule="evenodd" stroke="none"/>
    <path d="M14.35 3.4 Q14.1 3.7 13.7 3.7 L13.0 3.4 Q12.7 3.1 12.7 2.7 12.7 2.3 13.0 2.0 13.3 1.7 13.7 1.7 14.1 1.7 14.35 2.0 L14.65 2.7 14.35 3.4" fill="#ad9d78" fill-rule="evenodd" stroke="none"/>
    <path d="M11.1 8.25 L10.6 8.5 10.1 8.25 9.9 7.75 10.1 7.25 Q10.3 7.05 10.6 7.05 L11.1 7.25 11.35 7.75 11.1 8.25" fill="#ad9d78" fill-rule="evenodd" stroke="none"/>
    <path d="M1.5 18.15 L0.8 18.45 Q0.4 18.45 0.1 18.15 L-0.2 17.45 0.1 16.8 Q0.4 16.5 0.8 16.5 1.2 16.5 1.5 16.8 L1.8 17.45 1.5 18.15" fill="#ad9d78" fill-rule="evenodd" stroke="none"/>
    <path d="M9.85 12.85 Q9.5 13.2 9.0 13.2 8.5 13.2 8.15 12.85 7.8 12.5 7.8 12.0 7.8 11.5 8.15 11.15 8.5 10.8 9.0 10.8 9.5 10.8 9.85 11.15 10.2 11.5 10.2 12.0 10.2 12.5 9.85 12.85" fill="#ad9d78" fill-rule="evenodd" stroke="none"/>
    <path d="M-5.6 8.55 Q-5.9 8.9 -6.35 8.9 L-7.15 8.55 Q-7.5 8.25 -7.5 7.8 -7.5 7.35 -7.15 7.05 -6.85 6.7 -6.35 6.7 -5.9 6.7 -5.6 7.05 -5.25 7.35 -5.25 7.8 -5.25 8.25 -5.6 8.55" fill="#ad9d78" fill-rule="evenodd" stroke="none"/>
    <path d="M7.65 16.65 Q7.25 17.05 6.7 17.05 6.15 17.05 5.75 16.65 5.35 16.25 5.35 15.65 5.35 15.1 5.75 14.7 6.15 14.3 6.7 14.3 7.25 14.3 7.65 14.7 8.05 15.1 8.05 15.65 8.05 16.25 7.65 16.65" fill="#ad9d78" fill-rule="evenodd" stroke="none"/>
    <path d="M-3.75 19.25 L-4.6 19.55 Q-5.1 19.55 -5.45 19.25 L-5.8 18.4 Q-5.8 17.95 -5.45 17.6 -5.1 17.25 -4.6 17.25 -4.1 17.25 -3.75 17.6 -3.4 17.95 -3.4 18.4 -3.4 18.9 -3.75 19.25" fill="#ad9d78" fill-rule="evenodd" stroke="none"/>
    <path d="M-13.85 10.1 L-14.45 10.35 -15.05 10.1 -15.3 9.55 -15.05 8.95 Q-14.8 8.7 -14.45 8.7 -14.1 8.7 -13.85 8.95 -13.6 9.2 -13.6 9.55 L-13.85 10.1" fill="#ad9d78" fill-rule="evenodd" stroke="none"/>
    <path d="M-14.1 -9.15 L-13.95 -8.55 -14.15 -7.95 -14.75 -7.75 -15.3 -7.95 -15.55 -8.65 Q-15.5 -9.0 -15.25 -9.15 L-14.7 -9.4 Q-14.35 -9.4 -14.1 -9.15" fill="#ad9d78" fill-rule="evenodd" stroke="none"/>
    <path d="M11.8 15.25 Q11.45 15.6 10.9 15.6 10.35 15.6 10.0 15.25 9.6 14.85 9.6 14.35 9.6 13.8 10.0 13.45 10.35 13.1 10.9 13.1 11.45 13.1 11.8 13.45 12.2 13.8 12.2 14.35 12.2 14.85 11.8 15.25" fill="#ad9d78" fill-rule="evenodd" stroke="none"/>
    <path d="M3.1 -17.25 L3.05 -16.7 2.55 -16.4 1.95 -16.65 Q1.65 -16.9 1.5 -17.25 1.4 -17.6 1.6 -17.85 1.75 -18.1 2.05 -18.1 L2.7 -17.85 3.1 -17.25" fill="#ad9d78" fill-rule="evenodd" stroke="none"/>
    <path d="M6.7 -15.25 L6.6 -14.5 Q6.4 -14.15 6.0 -14.15 L5.15 -14.45 4.6 -15.2 Q4.5 -15.65 4.7 -16.0 4.9 -16.35 5.3 -16.3 L6.15 -16.05 6.7 -15.25" fill="#ad9d78" fill-rule="evenodd" stroke="none"/>
    <path d="M16.55 -7.7 L16.45 -6.95 15.85 -6.6 Q15.4 -6.6 15.0 -6.9 14.6 -7.2 14.45 -7.65 14.35 -8.1 14.55 -8.45 14.75 -8.8 15.15 -8.75 15.6 -8.8 16.0 -8.5 L16.55 -7.7" fill="#ad9d78" fill-rule="evenodd" stroke="none"/>
    <path d="M-6.7 -14.7 Q-6.6 -14.3 -6.8 -13.95 L-7.4 -13.6 Q-7.85 -13.6 -8.25 -13.9 L-8.8 -14.65 -8.7 -15.45 Q-8.5 -15.8 -8.1 -15.75 L-7.25 -15.5 Q-6.85 -15.2 -6.7 -14.7" fill="#ad9d78" fill-rule="evenodd" stroke="none"/>
  </g>
</svg>
