<?xml version="1.0" encoding="UTF-8" standalone="no"?>
<svg xmlns:ffdec="https://www.free-decompiler.com/flash" xmlns:xlink="http://www.w3.org/1999/xlink" ffdec:objectType="shape" height="31.7px" width="72.35px" xmlns="http://www.w3.org/2000/svg">
  <g transform="matrix(1.0, 0.0, 0.0, 1.0, -417.5, -70.2)">
    <path d="M429.25 89.15 Q431.65 89.55 432.05 90.3 429.7 91.7 423.3 93.9 419.65 95.15 419.65 97.25 419.65 98.45 423.1 99.95 427.65 101.9 434.8 101.9 L438.2 101.75 440.55 101.4 442.4 101.0 444.05 100.65 446.5 100.8 448.85 101.05 456.9 101.05 Q461.45 100.7 462.85 99.55 463.3 99.2 463.65 97.75 L476.45 96.25 Q478.35 95.75 478.35 94.3 478.35 93.35 477.75 92.95 477.0 92.45 473.9 91.6 L486.5 89.3 Q489.85 88.7 489.85 87.35 489.85 85.05 482.85 83.55 475.95 82.0 475.95 80.65 475.95 80.2 480.1 79.25 484.3 78.3 484.3 76.4 484.3 75.0 482.15 74.05 479.95 73.1 474.25 71.95 461.1 69.35 453.3 70.65 451.2 71.0 448.8 71.85 L446.1 72.55 Q445.4 72.55 445.15 72.25 L439.85 71.9 Q434.5 71.9 432.35 73.25 431.25 73.95 431.25 74.7 431.25 75.55 432.35 76.45 L434.8 78.1 Q431.9 79.05 421.55 81.4 417.5 82.25 417.5 84.55 417.5 87.5 424.3 88.45 L429.25 89.15" fill="#8fa1a1" fill-rule="evenodd" stroke="none"/>
  </g>
</svg>
