<?xml version="1.0" encoding="UTF-8" standalone="no"?>
<svg xmlns:ffdec="https://www.free-decompiler.com/flash" xmlns:xlink="http://www.w3.org/1999/xlink" ffdec:objectType="shape" height="7.65px" width="44.05px" xmlns="http://www.w3.org/2000/svg">
  <g transform="matrix(1.0, 0.0, 0.0, 1.0, -107.6, -196.5)">
    <path d="M145.6 203.65 Q141.75 202.4 137.7 201.65 L135.55 201.7 135.65 202.0 Q136.05 202.45 136.55 202.7 136.95 202.9 136.45 203.4 134.9 203.95 132.8 202.75 131.55 202.05 130.25 202.3 L130.25 202.35 Q131.4 203.75 132.85 203.55 129.95 204.5 127.35 202.7 124.75 200.85 124.65 202.45 124.55 204.05 124.1 204.15 123.65 204.25 121.9 202.7 120.05 201.1 117.2 202.7 114.35 204.3 109.8 202.35 108.05 201.6 107.6 200.15 L117.9 200.85 Q119.95 200.9 121.85 199.95 123.55 199.15 124.95 198.0 126.3 196.9 126.95 198.3 126.8 197.35 127.25 196.95 127.7 196.6 128.15 196.55 L128.75 196.5 129.85 196.9 Q130.75 197.2 131.3 198.1 132.9 196.85 136.15 198.75 139.4 200.65 143.7 201.7 L151.65 202.2 Q148.0 204.45 145.6 203.65" fill="#ffffff" fill-rule="evenodd" stroke="none"/>
  </g>
</svg>
