<?xml version="1.0" encoding="UTF-8" standalone="no"?>
<svg xmlns:ffdec="https://www.free-decompiler.com/flash" xmlns:xlink="http://www.w3.org/1999/xlink" ffdec:objectType="shape" height="59.6px" width="59.6px" xmlns="http://www.w3.org/2000/svg">
  <g transform="matrix(1.0, 0.0, 0.0, 1.0, 29.8, 29.8)">
    <path d="M29.8 0.0 Q29.8 12.35 21.05 21.05 12.4 29.8 0.0 29.8 -12.35 29.8 -21.1 21.05 -29.8 12.35 -29.8 0.0 -29.8 -12.35 -21.1 -21.1 -12.35 -29.8 0.0 -29.8 12.4 -29.8 21.05 -21.1 29.8 -12.35 29.8 0.0" fill="#5a6374" fill-opacity="0.9882353" fill-rule="evenodd" stroke="none"/>
    <path d="M26.7 0.05 Q26.7 11.15 18.9 18.9 11.1 26.75 0.05 26.75 -11.0 26.75 -18.85 18.9 -26.6 11.15 -26.6 0.05 -26.6 -11.0 -18.85 -18.85 -11.0 -26.6 0.05 -26.6 11.1 -26.6 18.9 -18.85 26.7 -11.0 26.7 0.05" fill="#25b6d9" fill-opacity="0.9882353" fill-rule="evenodd" stroke="none"/>
    <path d="M26.25 0.0 Q26.25 10.9 18.55 18.6 10.9 26.3 0.0 26.3 -10.9 26.3 -18.65 18.6 -26.3 10.9 -26.3 0.0 -26.3 -10.9 -18.65 -18.6 -10.9 -26.25 0.0 -26.25 10.9 -26.25 18.55 -18.6 26.25 -10.9 26.25 0.0" fill="url(#gradient0)" fill-rule="evenodd" stroke="none"/>
    <path d="M27.65 -11.25 Q25.4 -16.45 21.05 -20.8 12.4 -29.5 0.0 -29.5 -12.35 -29.5 -21.1 -20.8 -25.4 -16.45 -27.6 -11.25 -25.5 -16.75 -21.1 -21.15 -12.35 -29.8 0.0 -29.8 12.4 -29.8 21.05 -21.15 25.45 -16.75 27.65 -11.25" fill="#999999" fill-opacity="0.9882353" fill-rule="evenodd" stroke="none"/>
    <path d="M18.55 19.45 Q10.95 27.15 0.0 27.15 -10.9 27.15 -18.6 19.45 -24.4 13.65 -25.8 6.05 -24.25 13.45 -18.6 19.05 -10.9 26.75 0.0 26.75 10.95 26.75 18.55 19.05 24.2 13.45 25.8 6.05 24.35 13.65 18.55 19.45" fill="#d2f6ff" fill-opacity="0.9882353" fill-rule="evenodd" stroke="none"/>
    <path d="M22.8 -8.25 L21.8 4.35 19.8 4.3 19.7 -8.35 22.8 -8.25 M13.1 -8.3 L14.55 -2.15 15.7 -8.5 18.05 -8.25 15.85 1.7 15.85 9.05 13.4 8.95 13.4 2.6 10.6 -8.3 13.1 -8.3 M9.55 0.25 L9.55 1.1 Q9.55 4.75 9.05 6.7 8.5 8.9 6.1 9.05 L6.1 9.1 5.05 9.15 2.75 8.85 2.95 -8.25 4.55 -8.45 5.9 -8.3 Q8.3 -8.2 8.9 -6.05 9.5 -3.9 9.55 0.25 M5.25 -5.7 L5.2 6.6 6.05 6.45 Q6.75 6.3 6.9 4.8 L7.0 0.25 6.8 -4.1 Q6.65 -5.6 5.85 -5.7 L5.25 -5.7 M19.35 7.65 Q19.35 6.3 20.65 6.3 L20.7 6.3 Q21.95 6.3 21.95 7.65 L21.95 7.8 Q21.9 9.2 20.8 9.2 L20.6 9.2 Q19.35 9.1 19.35 7.75 L19.35 7.65 M-1.3 -8.35 L1.1 8.55 -1.15 8.7 -1.5 6.25 -3.65 6.3 -3.9 9.15 -6.35 9.15 -4.2 -8.1 -1.3 -8.35 M-18.05 -8.2 Q-15.85 -7.55 -15.65 -2.4 -15.7 0.65 -17.25 1.9 L-15.05 8.85 -17.45 9.1 -19.4 2.8 -20.0 2.8 -20.0 8.95 -22.4 8.9 -22.4 -8.2 -20.25 -8.3 -18.05 -8.2 M-10.55 -2.2 L-8.15 -2.15 -8.3 0.6 -10.65 0.6 -10.7 6.1 -7.6 6.15 -7.7 8.95 -13.15 8.9 -12.9 -8.3 -7.65 -8.25 -7.6 -5.6 -10.55 -5.6 -10.55 -2.2 M-18.3 -5.15 Q-18.7 -6.35 -20.0 -6.1 L-20.0 0.35 Q-19.1 0.25 -18.7 -0.15 -18.15 -0.6 -18.1 -2.6 L-18.3 -5.15 M-3.35 3.85 L-1.9 3.85 -2.8 -1.95 -3.35 3.85" fill="#ffffff" fill-opacity="0.9882353" fill-rule="evenodd" stroke="none"/>
  </g>
  <defs>
    <radialGradient cx="0" cy="0" gradientTransform="matrix(0.0327, 0.0, 0.0, 0.0327, 0.0, 0.0)" gradientUnits="userSpaceOnUse" id="gradient0" r="819.2" spreadMethod="pad">
      <stop offset="0.8627450980392157" stop-color="#58ddff"/>
      <stop offset="0.9294117647058824" stop-color="#24b3d7"/>
    </radialGradient>
  </defs>
</svg>
