<?xml version="1.0" encoding="UTF-8" standalone="no"?>
<svg xmlns:ffdec="https://www.free-decompiler.com/flash" xmlns:xlink="http://www.w3.org/1999/xlink" ffdec:objectType="shape" height="4.95px" width="24.95px" xmlns="http://www.w3.org/2000/svg">
  <g transform="matrix(1.0, 0.0, 0.0, 1.0, -130.85, -197.6)">
    <path d="M155.5 200.3 L155.65 200.35 155.8 200.5 155.75 200.65 155.65 200.75 150.65 202.05 147.75 202.55 Q144.2 202.55 138.7 200.25 133.3 198.05 132.3 198.05 L131.65 198.15 131.2 198.25 131.0 198.3 130.9 198.15 130.9 198.0 131.0 197.85 131.55 197.7 131.55 197.65 132.3 197.6 Q133.35 197.6 138.9 199.85 144.3 202.1 147.75 202.1 L150.55 201.65 155.5 200.3" fill="#806340" fill-opacity="0.96862745" fill-rule="evenodd" stroke="none"/>
  </g>
</svg>
