<?xml version="1.0" encoding="UTF-8" standalone="no"?>
<svg xmlns:ffdec="https://www.free-decompiler.com/flash" xmlns:xlink="http://www.w3.org/1999/xlink" ffdec:objectType="shape" height="3.0px" width="16.7px" xmlns="http://www.w3.org/2000/svg">
  <g transform="matrix(1.0, 0.0, 0.0, 1.0, -130.65, -201.0)">
    <path d="M147.15 203.55 L147.3 203.65 147.35 203.8 147.25 203.95 147.1 204.0 Q143.15 203.6 140.05 202.4 137.05 201.2 136.25 201.55 L135.85 201.75 135.9 201.75 135.9 201.8 136.8 202.6 136.95 203.2 Q136.9 203.45 136.5 203.55 L135.65 203.8 133.25 203.3 Q131.15 202.6 130.7 202.0 L130.65 201.85 130.75 201.7 130.9 201.65 131.05 201.75 Q131.45 202.25 133.35 202.85 L135.65 203.35 136.3 203.15 136.35 203.15 136.5 203.05 136.4 202.9 135.65 202.2 Q135.2 201.95 135.45 201.6 135.55 201.35 136.05 201.15 136.95 200.65 140.2 201.95 143.25 203.15 147.15 203.55" fill="#806340" fill-opacity="0.96862745" fill-rule="evenodd" stroke="none"/>
  </g>
</svg>
