<?xml version="1.0" encoding="UTF-8" standalone="no"?>
<svg xmlns:ffdec="https://www.free-decompiler.com/flash" xmlns:xlink="http://www.w3.org/1999/xlink" ffdec:objectType="shape" height="2.4px" width="13.85px" xmlns="http://www.w3.org/2000/svg">
  <g transform="matrix(1.0, 0.0, 0.0, 1.0, -119.4, -201.75)">
    <path d="M119.5 202.9 L119.45 202.75 119.45 202.55 119.8 202.15 Q120.25 201.85 120.75 201.85 121.3 201.8 122.75 202.75 123.95 203.55 124.45 203.55 124.75 203.55 124.75 202.9 124.75 201.7 125.5 201.75 126.3 201.7 128.35 203.0 130.15 204.15 132.95 203.45 L133.1 203.45 133.25 203.6 133.2 203.75 133.05 203.85 Q130.05 204.65 128.1 203.4 126.2 202.2 125.5 202.2 125.2 202.25 125.2 202.9 125.2 204.1 124.45 204.05 123.85 204.05 122.5 203.15 121.2 202.3 120.75 202.3 120.35 202.3 120.1 202.55 L119.85 202.8 119.7 202.9 119.5 202.9" fill="#806340" fill-opacity="0.96862745" fill-rule="evenodd" stroke="none"/>
  </g>
</svg>
