<?xml version="1.0" encoding="UTF-8" standalone="no"?>
<svg xmlns:ffdec="https://www.free-decompiler.com/flash" xmlns:xlink="http://www.w3.org/1999/xlink" ffdec:objectType="shape" height="67.5px" width="79.6px" xmlns="http://www.w3.org/2000/svg">
  <g transform="matrix(1.0, 0.0, 0.0, 1.0, 196.55, 116.35)">
    <path d="M-173.55 -111.25 L-173.5 -114.35 M-175.25 -99.1 Q-174.5 -101.95 -174.1 -105.15 M-180.0 -88.05 Q-178.4 -90.5 -177.2 -93.35 M-188.3 -79.2 L-185.1 -82.25 -183.85 -83.4 M-194.55 -68.95 Q-193.95 -71.6 -192.1 -74.45 M-190.85 -58.25 Q-193.3 -60.35 -194.25 -63.0 M-180.25 -53.25 Q-183.5 -54.1 -186.05 -55.25 M-168.45 -51.25 L-174.35 -51.95 M-144.7 -51.45 L-150.65 -51.05 M-132.95 -52.8 L-138.8 -52.05 M-130.9 -52.65 L-132.3 -52.6 M-118.95 -54.1 L-124.9 -53.15 M-156.6 -50.85 Q-159.65 -50.8 -162.5 -50.9" fill="none" stroke="#ffffff" stroke-linecap="round" stroke-linejoin="round" stroke-opacity="0.96862745" stroke-width="4.0"/>
  </g>
</svg>
