<?xml version="1.0" encoding="UTF-8" standalone="no"?>
<svg xmlns:ffdec="https://www.free-decompiler.com/flash" xmlns:xlink="http://www.w3.org/1999/xlink" ffdec:objectType="shape" height="67.5px" width="123.25px" xmlns="http://www.w3.org/2000/svg">
  <g transform="matrix(1.0, 0.0, 0.0, 1.0, 196.6, 116.35)">
    <path d="M-173.6 -110.6 L-173.5 -114.35 M-180.2 -87.75 Q-178.55 -90.15 -177.3 -92.95 M-188.45 -79.0 L-185.1 -82.25 -184.05 -83.2 M-194.6 -68.65 Q-194.05 -71.4 -192.2 -74.3 M-190.7 -58.05 Q-193.15 -60.1 -194.2 -62.75 M-180.1 -53.2 Q-183.2 -54.0 -185.65 -55.05 M-168.45 -51.25 L-174.35 -51.95 M-175.35 -98.65 Q-174.6 -101.5 -174.15 -104.65 M-109.0 -56.4 L-114.75 -54.95 M-97.7 -60.1 Q-100.3 -58.95 -103.3 -58.05 M-87.45 -66.4 L-88.45 -65.5 -92.35 -62.85 M-80.4 -76.0 L-81.95 -73.2 -83.45 -70.75 M-144.7 -51.45 L-150.65 -51.05 M-132.95 -52.8 L-138.8 -52.05 M-120.55 -53.8 L-126.55 -53.0 M-75.35 -87.0 L-77.8 -81.4 M-156.6 -50.85 Q-159.65 -50.8 -162.5 -50.9" fill="none" stroke="#ffffff" stroke-linecap="round" stroke-linejoin="round" stroke-opacity="0.96862745" stroke-width="4.0"/>
  </g>
</svg>
