<?xml version="1.0" encoding="UTF-8" standalone="no"?>
<svg xmlns:ffdec="https://www.free-decompiler.com/flash" xmlns:xlink="http://www.w3.org/1999/xlink" ffdec:objectType="shape" height="99.05px" width="188.4px" xmlns="http://www.w3.org/2000/svg">
  <g transform="matrix(1.0, 0.0, 0.0, 1.0, 196.6, 147.9)">
    <path d="M-173.6 -110.6 L-173.5 -114.35 M-180.2 -87.75 Q-178.55 -90.15 -177.3 -92.95 M-188.45 -79.0 L-185.1 -82.25 -184.05 -83.2 M-194.6 -68.65 Q-194.05 -71.4 -192.2 -74.3 M-190.7 -58.05 Q-193.15 -60.1 -194.2 -62.75 M-180.1 -53.2 Q-183.2 -54.0 -185.65 -55.05 M-168.45 -51.25 L-174.35 -51.95 M-175.35 -98.65 Q-174.6 -101.5 -174.15 -104.65 M-66.75 -107.0 L-69.45 -101.7 M-59.9 -117.65 L-63.3 -112.65 M-52.3 -127.2 L-56.2 -122.55 M-43.65 -135.7 L-48.15 -131.6 M-33.5 -142.45 L-38.8 -139.4 M-22.0 -145.9 Q-24.95 -145.6 -27.9 -144.7 M-10.2 -144.7 L-16.0 -145.9 M-111.2 -55.85 L-116.95 -54.5 M-99.75 -59.25 Q-101.6 -58.55 -103.6 -57.95 L-105.45 -57.4 M-89.2 -64.9 L-94.3 -61.7 M-81.65 -73.8 L-81.95 -73.2 Q-82.9 -71.45 -84.15 -69.85 L-84.75 -69.15 M-144.7 -51.45 L-150.65 -51.05 M-132.95 -52.8 L-138.8 -52.05 M-122.9 -53.45 L-128.85 -52.8 M-76.35 -84.7 L-78.85 -79.2 M-71.85 -96.25 L-73.25 -92.55 -74.05 -90.3 M-156.6 -50.85 Q-159.65 -50.8 -162.5 -50.9" fill="none" stroke="#ffffff" stroke-linecap="round" stroke-linejoin="round" stroke-opacity="0.96862745" stroke-width="4.0"/>
  </g>
</svg>
