<?xml version="1.0" encoding="UTF-8" standalone="no"?>
<svg xmlns:ffdec="https://www.free-decompiler.com/flash" xmlns:xlink="http://www.w3.org/1999/xlink" ffdec:objectType="shape" height="99.2px" width="235.9px" xmlns="http://www.w3.org/2000/svg">
  <g transform="matrix(1.0, 0.0, 0.0, 1.0, 196.6, 148.05)">
    <path d="M8.45 -133.45 L3.65 -137.15 M17.45 -125.4 L13.05 -129.5 M25.6 -116.55 L21.65 -121.1 M32.4 -106.65 L29.2 -111.75 M37.3 -95.75 L35.15 -101.35 M-173.6 -110.6 L-173.5 -114.35 M-180.2 -87.75 Q-178.55 -90.15 -177.3 -92.95 M-188.45 -79.0 L-185.1 -82.25 -184.05 -83.2 M-194.6 -68.65 Q-194.05 -71.4 -192.2 -74.3 M-190.7 -58.05 Q-193.15 -60.1 -194.2 -62.75 M-180.1 -53.2 Q-183.2 -54.0 -185.65 -55.05 M-168.45 -51.25 L-174.35 -51.95 M-175.35 -98.65 Q-174.6 -101.5 -174.15 -104.65 M-68.1 -104.5 L-70.6 -99.2 M-61.3 -115.65 L-64.3 -111.2 -65.2 -109.7 M-54.05 -125.15 L-57.8 -120.45 M-45.7 -133.95 L-50.0 -129.7 M-24.75 -145.5 Q-27.65 -144.95 -30.55 -143.8 M-12.85 -145.4 L-18.75 -146.05 M-1.75 -140.9 Q-4.4 -142.5 -7.1 -143.55 M-36.0 -141.15 Q-38.55 -139.7 -41.1 -137.8 M-114.05 -55.1 L-119.85 -53.9 M-102.4 -58.35 L-103.6 -57.95 -108.25 -56.55 M-91.6 -63.25 Q-94.0 -61.75 -96.85 -60.45 M-83.0 -71.45 L-84.15 -69.85 -86.75 -66.95 M-125.8 -53.05 L-131.9 -52.6 M-144.7 -51.45 L-150.65 -51.05 M-132.95 -52.8 L-138.8 -52.05 M-77.5 -82.1 L-80.1 -76.75 M-72.85 -93.75 L-73.25 -92.55 Q-74.1 -90.1 -75.1 -87.6 M-156.6 -50.85 Q-159.65 -50.8 -162.5 -50.9" fill="none" stroke="#ffffff" stroke-linecap="round" stroke-linejoin="round" stroke-opacity="0.96862745" stroke-width="4.0"/>
  </g>
</svg>
