<?xml version="1.0" encoding="UTF-8" standalone="no"?>
<svg xmlns:ffdec="https://www.free-decompiler.com/flash" xmlns:xlink="http://www.w3.org/1999/xlink" ffdec:objectType="shape" height="111.8px" width="239.55px" xmlns="http://www.w3.org/2000/svg">
  <g transform="matrix(1.0, 0.0, 0.0, 1.0, 196.6, 148.05)">
    <path d="M6.35 -135.1 L2.65 -137.95 0.85 -139.2 M15.45 -127.3 L11.05 -131.2 M23.8 -118.7 L19.75 -123.1 M30.95 -109.05 L27.55 -114.0 M40.9 -62.45 L40.9 -68.5 M39.4 -86.8 L38.25 -92.7 M39.55 -50.35 L40.1 -54.7 40.35 -56.35 M40.0 -38.25 Q39.25 -40.65 39.2 -44.25 M40.65 -74.5 L40.1 -80.55 M36.4 -98.4 L33.95 -103.85 M-173.6 -110.6 L-173.5 -114.35 M-180.2 -87.75 Q-178.55 -90.15 -177.3 -92.95 M-188.45 -79.0 L-185.1 -82.25 -184.05 -83.2 M-194.6 -68.65 Q-194.05 -71.4 -192.2 -74.3 M-190.7 -58.05 Q-193.15 -60.1 -194.2 -62.75 M-180.1 -53.2 Q-183.2 -54.0 -185.65 -55.05 M-168.45 -51.25 L-174.35 -51.95 M-175.35 -98.65 Q-174.6 -101.5 -174.15 -104.65 M-62.8 -113.55 L-64.3 -111.2 -66.65 -107.2 M-55.6 -123.15 L-59.3 -118.45 M-47.45 -132.15 L-51.7 -127.75 M-27.15 -144.9 Q-29.95 -144.1 -32.75 -142.75 M-15.35 -145.8 L-21.25 -145.95 M-4.15 -142.2 Q-6.85 -143.6 -9.55 -144.5 M-38.05 -139.8 Q-40.5 -138.2 -42.95 -136.2 M-105.3 -57.45 L-111.0 -55.9 M-94.15 -61.8 Q-96.65 -60.45 -99.6 -59.35 M-84.65 -69.25 Q-86.3 -67.25 -88.45 -65.5 L-89.05 -65.05 M-128.6 -52.8 L-132.3 -52.6 M-144.7 -51.45 L-150.65 -51.05 M-132.95 -52.8 L-138.8 -52.05 M-116.75 -54.55 L-122.7 -53.5 M-74.0 -90.45 L-76.25 -84.85 M-78.75 -79.4 L-81.5 -74.0 M-69.4 -101.85 L-71.8 -96.35 M-156.6 -50.85 Q-159.65 -50.8 -162.5 -50.9" fill="none" stroke="#ffffff" stroke-linecap="round" stroke-linejoin="round" stroke-opacity="0.96862745" stroke-width="4.0"/>
  </g>
</svg>
