<?xml version="1.0" encoding="UTF-8" standalone="no"?>
<svg xmlns:ffdec="https://www.free-decompiler.com/flash" xmlns:xlink="http://www.w3.org/1999/xlink" ffdec:objectType="shape" height="150.7px" width="239.55px" xmlns="http://www.w3.org/2000/svg">
  <g transform="matrix(1.0, 0.0, 0.0, 1.0, 196.6, 148.05)">
    <path d="M3.95 -136.95 L2.65 -137.95 -1.45 -140.75 M13.2 -129.35 L8.6 -133.25 M21.85 -120.9 L17.65 -125.2 M29.35 -111.5 L25.8 -116.3 M35.25 -101.0 L32.55 -106.4 M40.95 -65.4 L40.8 -71.45 M38.9 -89.6 Q38.35 -92.5 37.4 -95.4 M40.4 -77.45 L39.8 -83.5 M39.8 -52.9 L40.1 -54.7 40.65 -59.3 M39.4 -40.8 Q39.05 -43.4 39.25 -46.85 M39.15 -29.4 Q40.25 -32.85 40.4 -35.15 M34.7 -18.6 L37.1 -23.95 M28.75 -8.75 Q30.85 -10.75 32.05 -13.15 M18.55 -3.05 Q21.55 -4.05 23.95 -5.35 M7.05 -0.4 L12.8 -1.45 M-173.6 -110.6 L-173.5 -114.35 M-180.2 -87.75 Q-178.55 -90.15 -177.3 -92.95 M-188.45 -79.0 L-185.1 -82.25 -184.05 -83.2 M-194.6 -68.65 Q-194.05 -71.4 -192.2 -74.3 M-190.7 -58.05 Q-193.15 -60.1 -194.2 -62.75 M-180.1 -53.2 Q-183.2 -54.0 -185.65 -55.05 M-168.45 -51.25 L-174.35 -51.95 M-175.35 -98.65 Q-174.6 -101.5 -174.15 -104.65 M-65.1 -109.9 L-68.0 -104.7 M-57.5 -120.95 L-61.0 -116.05 M-49.65 -130.1 L-53.7 -125.6 M-40.55 -138.1 L-45.25 -134.3 M-29.95 -144.05 Q-32.7 -143.0 -35.45 -141.45 M-18.15 -146.05 L-24.15 -145.65 M-6.65 -143.4 Q-9.45 -144.6 -12.25 -145.25 M-108.05 -56.65 L-113.8 -55.2 M-96.75 -60.55 L-102.4 -58.35 M-86.65 -67.1 L-88.45 -65.5 -91.45 -63.4 M-80.05 -76.8 L-81.95 -73.2 -82.9 -71.6 M-131.7 -52.6 L-132.3 -52.6 M-144.7 -51.45 L-150.65 -51.05 M-132.95 -52.8 L-138.8 -52.05 M-119.65 -54.0 L-125.6 -53.1 M-75.05 -87.8 L-77.45 -82.25 M-70.6 -99.35 L-72.8 -93.85 M-156.6 -50.85 Q-159.65 -50.8 -162.5 -50.9 M-4.7 0.65 L1.15 0.25" fill="none" stroke="#ffffff" stroke-linecap="round" stroke-linejoin="round" stroke-opacity="0.96862745" stroke-width="4.0"/>
  </g>
</svg>
