<?xml version="1.0" encoding="UTF-8" standalone="no"?>
<svg xmlns:ffdec="https://www.free-decompiler.com/flash" xmlns:xlink="http://www.w3.org/1999/xlink" ffdec:objectType="shape" height="119.55px" width="216.0px" xmlns="http://www.w3.org/2000/svg">
  <g transform="matrix(1.0, 0.0, 0.0, 1.0, -9.55, 0.0)">
    <path d="M167.75 20.8 Q174.65 18.8 182.3 22.0 189.85 25.15 185.65 43.7 182.05 53.15 206.8 62.3 231.55 71.45 223.65 98.65 215.7 125.8 188.85 117.65 L33.65 117.85 Q13.25 111.45 18.7 105.85 24.1 100.2 15.9 98.3 7.7 96.4 10.1 89.65 12.45 82.85 13.85 74.4 15.25 65.9 27.15 64.85 38.8 60.7 41.85 58.25 44.9 55.7 43.45 45.65 42.0 35.55 47.3 32.3 52.65 29.1 61.05 27.25 69.45 25.4 75.85 17.7 82.2 9.95 88.6 4.9 94.95 -0.2 106.25 4.8 117.5 9.8 130.35 1.65 139.45 -2.15 146.15 2.7 152.85 7.5 157.15 16.75 160.8 22.8 167.75 20.8" fill="#aedefa" fill-opacity="0.9882353" fill-rule="evenodd" stroke="none"/>
  </g>
</svg>
