<?xml version="1.0" encoding="UTF-8" standalone="no"?>
<svg xmlns:ffdec="https://www.free-decompiler.com/flash" xmlns:xlink="http://www.w3.org/1999/xlink" ffdec:objectType="shape" height="150.85px" width="239.5px" xmlns="http://www.w3.org/2000/svg">
  <g transform="matrix(1.0, 0.0, 0.0, 1.0, 196.6, 148.0)">
    <path d="M11.95 -130.5 L7.3 -134.35 M20.55 -122.25 L16.35 -126.5 M28.25 -113.05 L24.55 -117.75 M34.45 -102.75 L31.55 -108.05 M40.9 -67.2 L40.65 -73.2 M38.55 -91.4 L36.8 -97.15 M40.2 -79.2 L39.6 -85.15 M39.25 -42.7 Q39.1 -45.35 39.4 -48.8 M39.6 -31.15 Q40.65 -34.85 40.35 -36.95 M35.5 -20.25 L37.75 -25.6 M30.8 -11.05 L32.05 -13.15 32.95 -14.95 M21.2 -4.05 Q24.15 -5.3 26.4 -6.9 M9.9 -0.8 L15.6 -2.1 M40.2 -55.05 L40.8 -61.15 M-173.6 -110.6 L-173.5 -114.35 M-180.2 -87.75 Q-178.55 -90.15 -177.3 -92.95 M-188.45 -79.0 L-185.1 -82.25 -184.05 -83.2 M-194.6 -68.65 Q-194.05 -71.4 -192.2 -74.3 M-190.7 -58.05 Q-193.15 -60.1 -194.2 -62.75 M-180.1 -53.2 Q-183.2 -54.0 -185.65 -55.05 M-168.45 -51.25 L-174.35 -51.95 M-175.35 -98.65 Q-174.6 -101.5 -174.15 -104.65 M-66.0 -108.3 L-68.85 -103.0 M-58.6 -119.35 L-62.2 -114.35 M-50.9 -128.75 L-54.9 -124.2 M-42.0 -137.0 L-46.6 -133.05 M-31.6 -143.3 Q-34.3 -142.15 -37.0 -140.5 M-19.85 -146.0 L-25.85 -145.2 M-8.25 -144.0 Q-11.1 -145.05 -13.95 -145.55 M-109.75 -56.2 L-115.5 -54.8 M-98.45 -59.8 L-103.6 -57.95 -104.1 -57.85 M-88.05 -65.9 L-88.45 -65.5 Q-90.5 -63.85 -93.0 -62.45 M-80.95 -75.0 L-81.95 -73.2 -83.85 -70.25 M-144.7 -51.45 L-150.65 -51.05 M-132.95 -52.8 L-138.8 -52.05 M-121.35 -53.7 L-127.25 -52.9 M-75.75 -86.05 L-78.25 -80.5 M-71.35 -97.55 L-73.25 -92.55 -73.55 -91.75 M-48.45 -2.85 L-45.75 -1.5 -42.9 -1.2 M-59.7 -7.65 L-54.0 -5.35 M-37.05 -0.6 L-31.2 -0.05 M-156.6 -50.85 Q-159.65 -50.8 -162.5 -50.9 M-13.65 0.8 L-7.75 0.8 M-25.35 0.35 L-19.5 0.65 M1.95 -138.45 L-2.95 -141.55 M-1.85 0.55 L4.05 0.05" fill="none" stroke="#ffffff" stroke-linecap="round" stroke-linejoin="round" stroke-opacity="0.96862745" stroke-width="4.0"/>
  </g>
</svg>
