<?xml version="1.0" encoding="UTF-8" standalone="no"?>
<svg xmlns:ffdec="https://www.free-decompiler.com/flash" xmlns:xlink="http://www.w3.org/1999/xlink" ffdec:objectType="shape" height="150.65px" width="239.5px" xmlns="http://www.w3.org/2000/svg">
  <g transform="matrix(1.0, 0.0, 0.0, 1.0, 196.6, 147.9)">
    <path d="M10.05 -132.05 L5.4 -135.85 M19.0 -123.85 L14.6 -128.05 M26.95 -114.8 L23.1 -119.45 M33.5 -104.7 L30.45 -109.9 M40.85 -69.45 L40.6 -75.45 M40.05 -81.45 L39.4 -86.7 39.25 -87.7 M40.15 -33.25 Q40.7 -36.3 40.1 -37.95 L39.85 -38.8 M36.4 -22.25 L38.55 -27.7 M32.05 -13.15 L33.9 -16.9 M23.3 -5.0 Q26.15 -6.45 28.2 -8.3 M12.1 -1.25 L17.85 -2.75 M40.45 -57.3 L40.9 -63.4 M39.2 -44.9 Q39.2 -47.6 39.6 -50.9 M38.0 -93.55 L36.05 -99.25 M-173.6 -110.6 L-173.5 -114.35 M-180.2 -87.75 Q-178.55 -90.15 -177.3 -92.95 M-188.45 -79.0 L-185.1 -82.25 -184.05 -83.2 M-194.6 -68.65 Q-194.05 -71.4 -192.2 -74.3 M-190.7 -58.05 Q-193.15 -60.1 -194.2 -62.75 M-180.1 -53.2 Q-183.2 -54.0 -185.65 -55.05 M-168.45 -51.25 L-174.35 -51.95 M-175.35 -98.65 Q-174.6 -101.5 -174.15 -104.65 M-67.1 -106.4 L-69.8 -101.1 M-59.9 -117.6 L-63.3 -112.6 M-52.3 -127.15 L-56.2 -122.5 M-43.7 -135.65 L-48.2 -131.55 M-33.55 -142.45 Q-36.2 -141.15 -38.85 -139.35 M-22.05 -145.9 Q-25.0 -145.6 -27.95 -144.7 M-10.25 -144.75 L-16.05 -145.9 M-111.95 -55.65 L-117.7 -54.35 M-100.5 -59.0 L-103.6 -57.95 -106.15 -57.2 M-89.75 -64.5 Q-92.1 -62.8 -94.95 -61.35 M-81.95 -73.2 Q-82.9 -71.45 -84.15 -69.85 L-85.2 -68.6 M-123.65 -53.35 L-129.65 -52.75 M-144.7 -51.45 L-150.65 -51.05 M-132.95 -52.8 L-138.8 -52.05 M-128.1 -12.6 L-122.2 -13.85 M-139.6 -9.2 L-133.9 -11.05 M-150.7 -4.8 L-145.2 -7.15 M-92.25 -15.35 L-86.25 -14.65 M-104.25 -15.75 L-98.25 -15.7 M-116.3 -14.8 L-110.3 -15.45 M-76.55 -84.15 Q-77.75 -81.45 -79.1 -78.7 M-72.15 -95.65 L-73.25 -92.55 -74.3 -89.65 M-46.05 -1.6 L-45.75 -1.5 -40.75 -0.95 M-56.9 -6.55 L-51.25 -4.15 M-68.45 -10.6 L-62.7 -8.75 M-80.25 -13.6 L-74.35 -12.25 M-156.6 -50.85 Q-159.65 -50.8 -162.5 -50.9 M-11.45 0.75 L-5.55 0.65 M-23.2 0.4 L-17.35 0.65 M0.15 -139.7 Q-2.35 -141.35 -4.85 -142.6 M0.35 0.35 L6.25 -0.25 M-34.9 -0.4 L-29.05 0.05" fill="none" stroke="#ffffff" stroke-linecap="round" stroke-linejoin="round" stroke-opacity="0.96862745" stroke-width="4.0"/>
  </g>
</svg>
