<?xml version="1.0" encoding="UTF-8" standalone="no"?>
<svg xmlns:ffdec="https://www.free-decompiler.com/flash" xmlns:xlink="http://www.w3.org/1999/xlink" ffdec:objectType="shape" height="200.55px" width="253.1px" xmlns="http://www.w3.org/2000/svg">
  <g transform="matrix(1.0, 0.0, 0.0, 1.0, 210.2, 148.05)">
    <path d="M8.15 -133.55 L3.4 -137.35 M17.1 -125.7 L12.7 -129.75 M25.25 -116.9 L21.3 -121.4 M32.15 -106.95 L28.9 -112.05 M40.7 -59.9 L40.9 -66.0 M39.75 -84.05 L39.4 -86.7 38.8 -90.15 M40.4 -35.85 L40.1 -37.95 Q39.6 -39.45 39.35 -41.4 M37.35 -24.55 L39.35 -30.05 M32.45 -13.85 L35.0 -19.15 M25.45 -6.25 Q28.15 -7.95 30.0 -10.1 M14.5 -1.8 L20.1 -3.55 M40.75 -72.05 L40.35 -78.05 M39.25 -47.5 Q39.4 -50.2 39.9 -53.4 M37.2 -96.0 L34.95 -101.6 M-173.6 -110.6 L-173.5 -114.35 M-180.2 -87.75 Q-178.55 -90.15 -177.3 -92.95 M-188.45 -79.0 L-185.1 -82.25 -184.05 -83.2 M-194.6 -68.65 Q-194.05 -71.4 -192.2 -74.3 M-190.7 -58.05 Q-193.15 -60.1 -194.2 -62.75 M-180.1 -53.2 Q-183.2 -54.0 -185.65 -55.05 M-168.45 -51.25 L-174.35 -51.95 M-175.35 -98.65 Q-174.6 -101.5 -174.15 -104.65 M-61.1 -115.85 L-64.3 -111.2 -65.4 -109.4 M-53.85 -125.35 L-57.6 -120.65 M-45.55 -134.1 L-49.85 -129.85 M-24.55 -145.55 Q-27.45 -145.0 -30.35 -143.9 M-12.65 -145.35 L-18.55 -146.05 M-1.85 -141.0 Q-4.45 -142.55 -7.05 -143.6 M-35.8 -141.3 Q-38.35 -139.85 -40.9 -137.95 M-114.35 -55.05 L-120.15 -53.9 M-102.75 -58.25 L-103.6 -57.95 -108.6 -56.5 M-91.9 -63.05 Q-94.3 -61.55 -97.2 -60.3 M-83.2 -71.15 L-84.15 -69.85 -87.0 -66.75 M-126.1 -53.05 L-132.2 -52.6 M-144.7 -51.45 L-150.65 -51.05 M-132.95 -52.8 L-138.8 -52.05 M-137.15 -10.1 L-131.45 -11.8 M-148.25 -5.9 L-142.75 -8.15 M-158.95 -0.75 L-153.65 -3.45 M-89.75 -15.05 L-83.75 -14.2 M-101.75 -15.8 L-95.75 -15.6 M-113.75 -15.2 L-107.75 -15.65 M-125.65 -13.25 L-119.75 -14.4 M-77.7 -81.65 L-80.4 -76.15 M-72.9 -93.55 L-73.25 -92.55 -75.25 -87.25 M-54.85 -5.7 L-49.35 -3.25 M-66.15 -9.9 L-60.45 -7.95 M-77.85 -13.05 L-71.95 -11.6 M-44.15 -1.3 L-38.25 -0.65 M-68.3 -104.15 L-70.8 -98.85 M-156.6 -50.85 Q-159.65 -50.8 -162.5 -50.9 M-8.85 0.8 L-2.95 0.6 M-20.65 0.65 L-14.75 0.8 M-169.25 5.25 L-164.15 2.15 M-178.7 12.7 L-174.2 8.8 M-187.45 21.1 L-183.15 16.8 M-195.5 30.15 L-191.65 25.65 M-202.45 39.9 L-199.1 34.9 M-208.2 50.5 L-205.5 45.1 M2.9 0.15 L8.75 -0.6 M-32.4 -0.1 L-26.5 0.35" fill="none" stroke="#ffffff" stroke-linecap="round" stroke-linejoin="round" stroke-opacity="0.96862745" stroke-width="4.0"/>
  </g>
</svg>
