<?xml version="1.0" encoding="UTF-8" standalone="no"?>
<svg xmlns:ffdec="https://www.free-decompiler.com/flash" xmlns:xlink="http://www.w3.org/1999/xlink" ffdec:objectType="shape" height="267.55px" width="259.65px" xmlns="http://www.w3.org/2000/svg">
  <g transform="matrix(1.0, 0.0, 0.0, 1.0, 216.75, 148.05)">
    <path d="M5.4 -135.85 L2.65 -137.95 0.15 -139.7 M14.6 -128.05 L10.05 -132.05 M23.1 -119.45 L19.0 -123.85 M30.45 -109.9 L26.95 -114.8 M36.05 -99.25 L33.5 -104.7 M40.9 -63.4 L40.85 -69.45 M39.25 -87.7 L38.0 -93.55 M39.6 -50.9 L40.1 -54.7 40.45 -57.3 M39.85 -38.8 Q39.2 -41.3 39.2 -44.9 M38.55 -27.7 Q39.7 -30.9 40.15 -33.25 M33.9 -16.9 L36.4 -22.25 M28.2 -8.3 Q30.6 -10.4 32.0 -13.05 M17.85 -2.75 Q20.85 -3.75 23.3 -5.0 M6.25 -0.25 L12.1 -1.25 M40.6 -75.45 L40.05 -81.45 M-173.6 -110.6 L-173.5 -114.35 M-180.2 -87.75 Q-178.55 -90.15 -177.3 -92.95 M-188.45 -79.0 L-185.1 -82.25 -184.05 -83.2 M-194.6 -68.65 Q-194.05 -71.4 -192.2 -74.3 M-190.7 -58.05 Q-193.15 -60.1 -194.2 -62.75 M-180.1 -53.2 Q-183.2 -54.0 -185.65 -55.05 M-168.45 -51.25 L-174.35 -51.95 M-175.35 -98.65 Q-174.6 -101.5 -174.15 -104.65 M-63.3 -112.6 L-64.3 -111.2 -67.1 -106.4 M-56.2 -122.5 L-59.9 -117.6 M-48.2 -131.55 L-52.3 -127.15 M-27.95 -144.7 Q-30.75 -143.85 -33.55 -142.45 M-16.05 -145.9 Q-19.05 -146.2 -22.05 -145.9 M-4.85 -142.6 Q-7.55 -143.95 -10.25 -144.75 M-38.85 -139.35 L-43.7 -135.65 M-106.15 -57.2 L-111.95 -55.65 M-94.95 -61.35 Q-97.5 -60.1 -100.5 -59.0 M-85.2 -68.6 L-88.45 -65.5 -89.75 -64.5 M-129.65 -52.75 L-132.3 -52.6 M-144.7 -51.45 L-150.65 -51.05 M-132.95 -52.8 L-138.8 -52.05 M-133.8 -11.15 L-128.0 -12.7 M-145.1 -7.2 L-139.5 -9.3 M-155.95 -2.3 L-150.6 -4.85 M-98.2 -15.7 L-92.2 -15.3 M-110.2 -15.5 L-104.2 -15.75 M-117.7 -54.35 L-123.65 -53.35 M-122.1 -13.95 L-116.2 -14.9 M-74.3 -89.65 L-76.55 -84.15 M-51.25 -4.15 L-46.05 -1.6 M-62.7 -8.75 L-56.9 -6.55 M-74.3 -12.2 L-68.45 -10.6 M-40.75 -0.95 L-34.9 -0.4 M-79.1 -78.7 L-81.85 -73.4 M-69.8 -101.1 L-72.15 -95.65 M-86.2 -14.6 L-80.2 -13.55 M-156.6 -50.85 Q-159.65 -50.8 -162.5 -50.9 M-17.35 0.65 L-11.45 0.75 M-29.05 0.05 L-23.2 0.4 M-176.2 10.55 L-171.95 7.0 -171.35 6.6 M-185.05 18.7 L-180.75 14.6 M-193.75 28.15 L-189.7 23.5 -189.2 23.0 M-201.0 37.65 L-197.5 32.8 M-207.05 48.05 L-204.2 42.75 M-211.55 59.1 L-209.5 53.45 M-214.15 70.8 L-213.1 64.9 M-214.7 82.7 L-214.7 76.75 M-213.2 94.45 L-214.2 88.6 M-209.9 105.75 L-211.75 100.15 M-207.35 117.5 L-207.45 117.0 -208.45 111.55 M-166.35 3.45 Q-163.8 1.9 -161.25 0.5 M-5.55 0.65 L0.35 0.35" fill="none" stroke="#ffffff" stroke-linecap="round" stroke-linejoin="round" stroke-opacity="0.96862745" stroke-width="4.0"/>
  </g>
</svg>
