<?xml version="1.0" encoding="UTF-8" standalone="no"?>
<svg xmlns:ffdec="https://www.free-decompiler.com/flash" xmlns:xlink="http://www.w3.org/1999/xlink" ffdec:objectType="shape" height="328.4px" width="390.45px" xmlns="http://www.w3.org/2000/svg">
  <g transform="matrix(1.0, 0.0, 0.0, 1.0, 173.65, 164.25)">
    <path d="M134.6 -162.25 L128.75 -162.0 M146.3 -161.9 L140.45 -162.2 M157.8 -160.8 L152.05 -161.4 M111.6 -158.7 Q108.65 -157.55 106.3 -156.05 M110.75 -109.6 L113.4 -104.35 M104.8 -119.75 L107.85 -114.75 M98.4 -129.6 L98.55 -129.0 101.55 -124.65 M97.25 -141.55 Q96.95 -138.75 97.3 -135.55 M101.8 -152.2 Q100.3 -150.5 99.3 -148.5 L98.75 -147.4 M122.95 -161.45 L117.2 -160.4 M70.1 -11.4 Q68.9 -8.65 68.1 -5.7 M76.2 -21.55 Q74.35 -19.2 72.85 -16.7 M110.2 -54.9 Q108.75 -52.35 106.9 -49.9 M115.9 -64.55 L113.2 -61.05 112.9 -60.35 M119.85 -75.75 Q119.5 -72.65 118.5 -69.9 M119.15 -87.6 Q119.75 -84.55 119.95 -81.7 M115.75 -98.9 L117.7 -93.35 M94.3 -37.15 Q92.1 -35.4 89.7 -33.7 M103.05 -45.25 L98.85 -41.0 M84.55 -29.95 Q82.2 -28.05 80.15 -26.0 M169.05 -156.75 Q166.55 -158.2 163.7 -159.45 M178.25 -149.1 L174.0 -153.3 M183.85 -138.6 Q182.95 -141.5 181.55 -144.15 M185.25 -126.85 Q185.3 -129.95 185.0 -132.8 M184.85 -115.1 Q184.65 -117.4 184.6 -119.65 L184.8 -120.95 M186.45 -103.15 Q185.9 -106.15 185.5 -109.1 M189.1 -91.65 Q188.3 -94.55 187.65 -97.4 M192.65 -80.3 L190.8 -85.95 M196.85 -69.25 L194.65 -74.75 M201.5 -58.85 L199.35 -63.3 199.15 -63.8 M211.35 -38.1 L209.9 -41.5 209.05 -43.25 M213.55 -26.25 Q213.4 -29.35 212.9 -32.2 M212.75 -14.4 L213.45 -20.3 M209.9 -2.9 L211.5 -8.55 M206.5 -48.45 L204.0 -53.65 M206.85 8.7 L208.0 2.7 M205.55 20.85 L206.05 14.8 M205.65 33.15 Q205.45 30.15 205.4 27.1 M207.25 45.05 L206.25 39.1 M210.35 56.6 L208.6 50.85 M214.8 67.55 L212.4 62.15 M84.8 81.25 Q84.45 84.25 83.65 87.1 M84.7 69.25 L85.15 75.2 M82.0 57.7 L83.6 63.4 M71.8 35.95 L74.0 41.55 M68.35 24.3 L69.9 30.2 M66.4 12.25 Q66.6 15.2 67.1 18.3 M66.85 0.15 Q66.4 3.1 66.3 6.2 M76.45 47.0 L79.15 52.45 M51.35 142.25 Q49.05 144.3 46.75 145.75 M59.15 133.75 L55.45 138.2 M65.65 124.25 L62.55 129.1 M71.4 114.15 L69.85 117.0 69.6 117.5 68.6 119.25 M76.7 103.5 L74.1 108.9 M7.5 120.65 L6.1 117.5 5.85 117.0 4.95 115.25 M12.55 132.0 L11.85 131.0 9.9 126.1 M19.9 141.35 L16.0 136.85 M29.8 148.15 Q27.15 147.15 24.5 145.3 M41.55 148.25 Q38.6 149.25 35.7 149.25 M81.5 92.65 L79.1 98.15 M-34.95 89.55 L-40.1 92.7 M-23.35 87.65 Q-26.3 87.25 -29.3 87.7 M-12.55 92.15 Q-15.05 90.35 -17.65 89.25 M-97.25 145.45 L-103.3 146.25 M-86.85 139.75 Q-89.15 141.8 -91.7 143.2 M-153.8 161.65 L-159.75 162.15 M-142.2 159.4 L-147.95 160.7 M-130.9 155.85 L-136.5 157.75 M-119.95 151.35 L-125.4 153.7 M-109.25 146.25 L-114.55 148.85 M-71.4 121.4 L-75.35 126.05 M-62.95 112.2 L-67.05 116.6 M-54.35 103.95 L-58.75 108.05 M-79.2 130.8 L-82.7 135.3 M-45.05 96.2 L-49.8 100.0 M-4.25 100.35 Q-6.15 97.95 -8.1 96.0 M-165.65 162.05 L-171.65 161.3 M2.2 110.1 L-0.85 105.1" fill="none" stroke="#aa5730" stroke-linecap="round" stroke-linejoin="round" stroke-opacity="0.96862745" stroke-width="4.0"/>
  </g>
</svg>
