<?xml version="1.0" encoding="UTF-8" standalone="no"?>
<svg xmlns:ffdec="https://www.free-decompiler.com/flash" xmlns:xlink="http://www.w3.org/1999/xlink" ffdec:objectType="shape" height="310.9px" width="259.65px" xmlns="http://www.w3.org/2000/svg">
  <g transform="matrix(1.0, 0.0, 0.0, 1.0, 216.75, 148.05)">
    <path d="M3.55 -137.25 L2.65 -137.95 -2.05 -141.1 M12.75 -129.8 L8.2 -133.6 M21.25 -121.5 L17.05 -125.8 M28.85 -112.15 L25.2 -117.0 M34.9 -101.75 L32.1 -107.05 M40.9 -66.15 L40.75 -72.15 M38.75 -90.35 Q38.15 -93.25 37.15 -96.15 M40.35 -78.2 L39.7 -84.2 M39.9 -53.55 L40.1 -54.7 40.7 -60.05 M39.35 -41.6 Q39.05 -44.2 39.3 -47.65 M39.35 -30.2 Q40.4 -33.7 40.4 -35.9 M35.05 -19.35 L37.4 -24.75 M30.05 -10.15 Q31.25 -11.55 32.05 -13.15 L32.5 -14.05 M20.25 -3.6 Q23.25 -4.8 25.55 -6.3 M8.9 -0.6 L14.65 -1.8 M-173.6 -110.6 L-173.5 -114.35 M-180.2 -87.75 Q-178.55 -90.15 -177.3 -92.95 M-188.45 -79.0 L-185.1 -82.25 -184.05 -83.2 M-194.6 -68.65 Q-194.05 -71.4 -192.2 -74.3 M-190.7 -58.05 Q-193.15 -60.1 -194.2 -62.75 M-180.1 -53.2 Q-183.2 -54.0 -185.65 -55.05 M-168.45 -51.25 L-174.35 -51.95 M-175.35 -98.65 Q-174.6 -101.5 -174.15 -104.65 M-65.5 -109.2 L-68.35 -104.0 M-57.8 -120.45 L-61.3 -115.65 M-50.0 -129.7 L-54.05 -125.15 M-41.1 -137.8 L-45.7 -133.95 M-30.55 -143.8 Q-33.3 -142.75 -36.05 -141.15 M-18.75 -146.05 L-24.75 -145.5 M-7.25 -143.65 Q-10.05 -144.8 -12.85 -145.4 M-108.8 -56.45 L-114.55 -55.0 M-97.35 -60.2 Q-99.95 -59.1 -102.9 -58.15 M-87.2 -66.6 L-88.45 -65.5 Q-90.1 -64.15 -92.05 -62.95 M-80.45 -76.0 L-81.95 -73.2 Q-82.55 -72.05 -83.3 -71.0 M-144.7 -51.45 L-150.65 -51.05 M-132.95 -52.8 L-138.8 -52.05 M-131.2 -11.85 L-125.4 -13.25 M-142.55 -8.25 L-136.9 -10.2 M-153.45 -3.55 L-148.05 -6.0 M-95.5 -15.55 L-89.45 -15.0 M-107.5 -15.6 L-101.5 -15.75 M-119.5 -14.35 L-113.5 -15.15 M-120.35 -53.85 L-126.35 -53.0 M-75.3 -87.1 Q-76.4 -84.35 -77.75 -81.55 M-70.9 -98.65 L-73.05 -93.15 M-49.1 -3.15 L-45.75 -1.5 -43.95 -1.3 M-60.2 -7.85 L-54.6 -5.6 M-71.65 -11.55 L-65.85 -9.8 M-38.05 -0.65 L-32.2 -0.1 M-83.45 -14.15 L-77.55 -13.0 M-156.6 -50.85 Q-159.65 -50.8 -162.5 -50.9 M-14.6 0.8 L-8.7 0.8 M-26.35 0.35 L-20.5 0.65 M-174.2 8.8 L-171.95 7.0 -169.05 5.15 M-183.0 16.7 L-178.65 12.7 M-191.85 25.9 L-189.7 23.5 -187.25 20.95 M-199.35 35.3 L-195.8 30.6 M-205.75 45.5 L-202.75 40.3 M-210.65 56.45 L-208.4 50.9 M-213.75 68.0 L-212.45 62.15 M-214.75 79.9 L-214.5 73.95 M-213.7 91.8 L-214.45 85.9 M-193.95 148.3 L-197.55 143.45 M-207.9 114.75 L-208.9 108.55 M-204.9 127.05 L-206.5 121.15 M-184.95 156.2 L-189.8 152.6 M-173.95 160.85 Q-176.9 160.1 -179.6 158.95 M-200.5 138.25 L-202.95 132.75 M-210.8 103.25 L-212.45 97.6 M-2.8 0.6 L3.1 0.15 M-163.95 2.05 L-158.75 -0.85" fill="none" stroke="#ffffff" stroke-linecap="round" stroke-linejoin="round" stroke-opacity="0.96862745" stroke-width="4.0"/>
  </g>
</svg>
