<?xml version="1.0" encoding="UTF-8" standalone="no"?>
<svg xmlns:ffdec="https://www.free-decompiler.com/flash" xmlns:xlink="http://www.w3.org/1999/xlink" ffdec:objectType="shape" height="233.8px" width="121.7px" xmlns="http://www.w3.org/2000/svg">
  <g transform="matrix(1.0, 0.0, 0.0, 1.0, -95.1, 164.25)">
    <path d="M134.6 -162.25 L128.75 -162.0 M146.3 -161.9 L140.45 -162.2 M157.8 -160.8 L152.05 -161.4 M111.6 -158.7 Q108.65 -157.55 106.3 -156.05 M110.75 -109.6 L113.4 -104.35 M104.8 -119.75 L107.85 -114.75 M98.4 -129.6 L98.55 -129.0 101.55 -124.65 M97.25 -141.55 Q96.95 -138.75 97.3 -135.55 M101.8 -152.2 Q100.3 -150.5 99.3 -148.5 L98.75 -147.4 M122.95 -161.45 L117.2 -160.4 M110.3 -55.0 L107.05 -50.0 M115.9 -64.55 L113.2 -61.05 112.9 -60.35 M119.85 -75.75 Q119.5 -72.65 118.5 -69.9 M119.15 -87.6 Q119.75 -84.55 119.95 -81.7 M115.75 -98.9 L117.7 -93.35 M103.25 -45.4 L99.0 -41.15 M169.05 -156.75 Q166.55 -158.2 163.7 -159.45 M178.25 -149.1 L174.0 -153.3 M183.85 -138.6 Q182.95 -141.5 181.55 -144.15 M185.25 -126.85 Q185.3 -129.95 185.0 -132.8 M184.85 -115.1 Q184.65 -117.4 184.6 -119.65 L184.8 -120.95 M186.45 -103.15 Q185.9 -106.15 185.5 -109.1 M189.1 -91.65 Q188.3 -94.55 187.65 -97.4 M192.65 -80.3 L190.8 -85.95 M196.85 -69.25 L194.65 -74.75 M201.5 -58.85 L199.35 -63.3 199.15 -63.8 M211.35 -38.1 L209.9 -41.5 209.05 -43.25 M213.55 -26.25 Q213.4 -29.35 212.9 -32.2 M212.75 -14.4 L213.45 -20.3 M209.9 -2.9 L211.5 -8.55 M206.5 -48.45 L204.0 -53.65 M206.85 8.7 L208.0 2.7 M205.55 20.85 L206.05 14.8 M205.65 33.15 Q205.45 30.15 205.4 27.1 M207.25 45.05 L206.25 39.1 M210.35 56.6 L208.6 50.85 M214.8 67.55 L212.4 62.15" fill="none" stroke="#aa5730" stroke-linecap="round" stroke-linejoin="round" stroke-opacity="0.96862745" stroke-width="4.0"/>
  </g>
</svg>
