<?xml version="1.0" encoding="UTF-8" standalone="no"?>
<svg xmlns:ffdec="https://www.free-decompiler.com/flash" xmlns:xlink="http://www.w3.org/1999/xlink" ffdec:objectType="shape" height="312.05px" width="315.35px" xmlns="http://www.w3.org/2000/svg">
  <g transform="matrix(1.0, 0.0, 0.0, 1.0, 216.8, 147.95)">
    <path d="M11.2 -131.1 L6.55 -134.95 M19.8 -123.0 L15.6 -127.2 M27.55 -113.9 L23.8 -118.6 M33.95 -103.7 L30.95 -108.9 M40.95 -68.4 L40.65 -74.4 M38.25 -92.5 L36.4 -98.25 M40.1 -80.45 L39.45 -86.3 M39.9 -32.25 Q40.75 -36.05 40.1 -37.95 M35.95 -21.25 L38.15 -26.7 M31.5 -12.1 L32.05 -13.15 33.45 -15.95 M22.3 -4.55 Q25.25 -5.9 27.45 -7.65 M11.05 -1.1 L16.75 -2.5 M71.2 -13.8 Q69.85 -11.1 68.85 -8.25 M77.95 -23.65 Q75.95 -21.4 74.3 -19.0 M40.35 -56.25 L40.9 -62.35 M39.2 -43.85 Q39.1 -46.5 39.45 -49.8 M86.75 -31.65 Q84.3 -29.85 82.15 -27.9 M96.55 -38.95 L91.75 -35.15 M82.5 89.95 L82.2 90.85 80.2 95.55 M85.1 78.5 Q84.95 81.6 84.35 84.5 M84.2 66.5 L85.0 72.45 M80.8 55.5 L82.0 57.7 82.9 60.7 M70.95 33.25 L73.05 38.95 M67.75 21.5 L68.15 23.5 69.15 27.45 M66.3 9.55 Q66.4 12.5 66.8 15.55 M75.4 44.55 L78.0 50.05 M53.3 140.45 L48.9 144.25 M60.8 131.65 L57.2 136.2 M67.1 121.95 L64.05 126.9 M72.6 111.7 L69.85 117.0 M77.8 101.0 L75.25 106.45 M3.55 112.55 L0.65 107.5 M8.65 123.2 L6.3 117.85 M14.05 134.25 L11.85 131.0 10.95 128.75 M21.95 143.3 L17.75 139.05 M32.45 148.9 Q29.65 148.35 26.9 146.85 M43.95 147.25 Q41.15 148.6 38.4 149.05 M67.3 -2.45 Q66.7 0.45 66.45 3.5 M-173.6 -110.6 L-173.5 -114.35 M-180.2 -87.75 Q-178.55 -90.15 -177.3 -92.95 M-188.45 -79.0 L-185.1 -82.25 -184.05 -83.2 M-194.6 -68.65 Q-194.05 -71.4 -192.2 -74.3 M-190.7 -58.05 Q-193.15 -60.1 -194.2 -62.75 M-180.1 -53.2 Q-183.2 -54.0 -185.65 -55.05 M-168.45 -51.25 L-174.35 -51.95 M-175.35 -98.65 Q-174.6 -101.5 -174.15 -104.65 M-66.6 -107.3 L-69.4 -101.95 M-58.9 -118.9 L-62.5 -113.85 M-51.4 -128.15 L-55.3 -123.6 M-42.6 -136.45 L-47.2 -132.45 M-32.4 -142.9 Q-35.05 -141.7 -37.7 -140.0 M-20.85 -145.95 Q-23.8 -145.75 -26.75 -144.95 M-9.25 -144.4 Q-12.1 -145.35 -14.95 -145.75 M-110.85 -55.9 L-116.6 -54.55 M-99.45 -59.35 Q-101.45 -58.6 -103.6 -57.95 L-105.1 -57.45 M-88.95 -65.1 Q-91.25 -63.35 -94.1 -61.85 M-81.45 -74.2 L-81.95 -73.2 Q-82.9 -71.45 -84.15 -69.85 L-84.55 -69.35 M-122.55 -53.5 L-128.5 -52.8 M-144.7 -51.45 L-150.65 -51.05 M-132.95 -52.8 L-138.8 -52.05 M-128.95 -12.35 L-123.05 -13.65 M-140.45 -8.9 L-134.75 -10.75 M-151.55 -4.4 L-146.05 -6.75 M-93.1 -15.3 L-87.1 -14.65 M-105.1 -15.65 L-99.1 -15.65 M-117.15 -14.65 L-111.15 -15.3 M-76.2 -85.05 L-78.7 -79.6 M-71.8 -96.45 L-73.25 -92.55 -73.95 -90.65 M-46.85 -2.05 L-45.75 -1.5 -41.8 -1.05 M-57.9 -6.9 L-52.3 -4.55 M-69.3 -10.9 L-63.6 -9.05 M-35.95 -0.5 L-30.1 -0.05 M-81.1 -13.7 L-75.2 -12.45 M-156.6 -50.85 Q-159.65 -50.8 -162.5 -50.9 M-12.5 0.7 L-6.6 0.65 M-24.25 0.35 L-18.4 0.6 M-42.75 94.5 L-47.55 98.1 M-32.65 88.55 L-34.15 89.05 -37.7 91.15 M-20.55 88.2 Q-23.5 87.4 -26.55 87.5 M-10.35 93.95 Q-12.7 91.9 -15.1 90.5 M-94.6 144.6 Q-97.35 145.65 -100.4 146.05 M-84.85 137.8 Q-86.95 140.05 -89.3 141.7 M-153.2 161.55 L-159.05 162.1 M-141.8 159.3 L-147.5 160.6 M-130.7 155.75 L-136.2 157.65 M-119.9 151.3 L-125.3 153.6 M-109.25 146.25 L-114.55 148.85 M-77.3 128.4 L-81.0 133.1 M-69.5 119.25 L-73.45 123.8 M-61.1 110.3 L-65.35 114.7 M-52.2 102.0 L-56.7 106.05 M-2.55 102.65 L-6.2 98.05 M-172.4 7.4 L-171.95 7.0 -167.25 4.0 M-181.45 15.25 L-177.1 11.3 M-190.4 24.3 L-189.7 23.5 -185.75 19.4 M-198.05 33.6 L-194.35 28.85 M-213.35 65.8 L-211.85 60.0 M-214.8 77.75 L-214.35 71.75 M-214.05 89.7 L-214.7 83.75 M-204.6 43.55 L-201.5 38.5 M-209.85 54.3 L-207.45 48.85 M-195.5 146.35 Q-197.25 144.0 -198.8 141.3 M-208.25 112.6 L-208.9 108.35 -209.55 106.75 M-205.55 124.75 L-207.05 118.85 M-186.95 154.75 L-191.5 150.9 M-176.45 160.05 L-181.9 157.85 M-164.9 162.1 L-170.7 161.45 M-201.55 135.95 L-203.8 130.35 M-211.45 101.2 L-213.0 95.5 M-162.15 1.0 L-156.95 -1.8 M1.05 -139.1 L-3.85 -142.1 M-0.7 0.35 L5.2 -0.2" fill="none" stroke="#ffffff" stroke-linecap="round" stroke-linejoin="round" stroke-opacity="0.96862745" stroke-width="4.0"/>
  </g>
</svg>
