<?xml version="1.0" encoding="UTF-8" standalone="no"?>
<svg xmlns:ffdec="https://www.free-decompiler.com/flash" xmlns:xlink="http://www.w3.org/1999/xlink" ffdec:objectType="shape" height="312.05px" width="338.75px" xmlns="http://www.w3.org/2000/svg">
  <g transform="matrix(1.0, 0.0, 0.0, 1.0, 216.8, 147.95)">
    <path d="M11.2 -131.1 L6.55 -134.95 M19.8 -123.0 L15.6 -127.2 M27.55 -113.9 L23.8 -118.6 M33.95 -103.7 L30.95 -108.9 M40.95 -68.4 L40.65 -74.4 M38.25 -92.5 L36.4 -98.25 M40.1 -80.45 L39.45 -86.3 M39.9 -32.25 Q40.75 -36.05 40.1 -37.95 M35.95 -21.25 L38.15 -26.7 M31.5 -12.1 L32.05 -13.15 33.45 -15.95 M22.3 -4.55 Q25.25 -5.9 27.45 -7.65 M11.05 -1.1 L16.75 -2.5 M70.2 -11.55 Q69.0 -8.8 68.15 -5.9 M76.4 -21.7 Q74.5 -19.35 72.95 -16.8 M40.35 -56.25 L40.9 -62.35 M39.2 -43.85 Q39.1 -46.5 39.45 -49.8 M110.4 -55.15 L107.15 -50.15 M116.5 -65.5 Q115.1 -63.15 113.2 -61.05 L113.0 -60.55 M119.95 -76.9 Q119.7 -73.8 118.85 -71.0 M118.95 -88.75 Q119.6 -85.7 119.85 -82.85 M94.55 -37.35 L90.05 -33.95 M103.3 -45.5 Q101.35 -43.3 99.05 -41.2 M84.75 -30.1 L80.35 -26.15 M84.85 80.95 Q84.5 84.15 83.65 87.1 M84.65 69.0 L85.1 74.95 M82.0 57.7 L83.55 63.15 M71.75 35.7 L73.95 41.3 M68.25 24.1 L69.85 29.95 M66.45 12.0 L67.1 18.0 M76.4 46.75 L79.05 52.2 M51.55 142.1 Q49.25 144.15 46.95 145.6 M59.35 133.55 L55.65 138.0 M65.8 124.05 L62.7 128.9 M71.45 114.05 L69.85 117.0 69.6 117.5 68.7 119.05 M76.75 103.3 L74.15 108.75 M7.65 120.9 L6.1 117.5 5.85 117.0 5.05 115.45 M12.55 132.0 L11.85 131.0 9.95 126.35 M19.95 141.4 L16.0 136.9 M29.9 148.15 Q27.2 147.2 24.5 145.3 M41.7 148.2 Q38.75 149.2 35.85 149.2 M81.6 92.35 L79.2 97.85 M66.9 -0.05 Q66.45 2.9 66.35 6.0 M-173.6 -110.6 L-173.5 -114.35 M-180.2 -87.75 Q-178.55 -90.15 -177.3 -92.95 M-188.45 -79.0 L-185.1 -82.25 -184.05 -83.2 M-194.6 -68.65 Q-194.05 -71.4 -192.2 -74.3 M-190.7 -58.05 Q-193.15 -60.1 -194.2 -62.75 M-180.1 -53.2 Q-183.2 -54.0 -185.65 -55.05 M-168.45 -51.25 L-174.35 -51.95 M-175.35 -98.65 Q-174.6 -101.5 -174.15 -104.65 M-66.6 -107.3 L-69.4 -101.95 M-58.9 -118.9 L-62.5 -113.85 M-51.4 -128.15 L-55.3 -123.6 M-42.6 -136.45 L-47.2 -132.45 M-32.4 -142.9 Q-35.05 -141.7 -37.7 -140.0 M-20.85 -145.95 Q-23.8 -145.75 -26.75 -144.95 M-9.25 -144.4 Q-12.1 -145.35 -14.95 -145.75 M-110.85 -55.9 L-116.6 -54.55 M-99.45 -59.35 Q-101.45 -58.6 -103.6 -57.95 L-105.1 -57.45 M-88.95 -65.1 Q-91.25 -63.35 -94.1 -61.85 M-81.45 -74.2 L-81.95 -73.2 Q-82.9 -71.45 -84.15 -69.85 L-84.55 -69.35 M-122.55 -53.5 L-128.5 -52.8 M-144.7 -51.45 L-150.65 -51.05 M-132.95 -52.8 L-138.8 -52.05 M-128.95 -12.35 L-123.05 -13.65 M-140.45 -8.9 L-134.75 -10.75 M-151.55 -4.4 L-146.05 -6.75 M-93.1 -15.3 L-87.1 -14.65 M-105.1 -15.65 L-99.1 -15.65 M-117.15 -14.65 L-111.15 -15.3 M-76.2 -85.05 L-78.7 -79.6 M-71.8 -96.45 L-73.25 -92.55 -73.95 -90.65 M-46.85 -2.05 L-45.75 -1.5 -41.8 -1.05 M-57.9 -6.9 L-52.3 -4.55 M-69.3 -10.9 L-63.6 -9.05 M-35.95 -0.5 L-30.1 -0.05 M-81.1 -13.7 L-75.2 -12.45 M-156.6 -50.85 Q-159.65 -50.8 -162.5 -50.9 M-12.5 0.7 L-6.6 0.65 M-24.25 0.35 L-18.4 0.6 M-34.75 89.35 L-39.9 92.5 M-23.15 87.7 Q-26.1 87.3 -29.1 87.75 M-12.4 92.35 Q-14.9 90.5 -17.45 89.35 M-96.95 145.4 L-103.05 146.3 M-86.6 139.6 Q-88.9 141.65 -91.4 143.1 M-153.2 161.55 L-159.05 162.1 M-141.8 159.3 L-147.5 160.6 M-130.7 155.75 L-136.2 157.65 M-119.9 151.3 L-125.3 153.6 M-109.25 146.25 L-114.55 148.85 M-71.2 121.2 L-75.1 125.75 M-62.8 111.95 L-67.15 116.6 M-54.2 103.75 L-58.6 107.8 M-78.9 130.45 L-82.6 135.2 M-44.85 96.0 L-49.6 99.8 M-4.15 100.55 Q-6.05 98.15 -8.0 96.2 M-172.4 7.4 L-171.95 7.0 -167.25 4.0 M-181.45 15.25 L-177.1 11.3 M-190.4 24.3 L-189.7 23.5 -185.75 19.4 M-198.05 33.6 L-194.35 28.85 M-213.35 65.8 L-211.85 60.0 M-214.8 77.75 L-214.35 71.75 M-214.05 89.7 L-214.7 83.75 M-204.6 43.55 L-201.5 38.5 M-209.85 54.3 L-207.45 48.85 M-195.5 146.35 Q-197.25 144.0 -198.8 141.3 M-208.25 112.6 L-208.9 108.35 -209.55 106.75 M-205.55 124.75 L-207.05 118.85 M-186.95 154.75 L-191.5 150.9 M-176.45 160.05 L-181.9 157.85 M-164.9 162.1 L-170.7 161.45 M-201.55 135.95 L-203.8 130.35 M-211.45 101.2 L-213.0 95.5 M-162.15 1.0 L-156.95 -1.8 M1.05 -139.1 L-3.85 -142.1 M-0.7 0.35 L5.2 -0.2 M2.3 110.3 L-0.75 105.3" fill="none" stroke="#ffffff" stroke-linecap="round" stroke-linejoin="round" stroke-opacity="0.96862745" stroke-width="4.0"/>
  </g>
</svg>
