<?xml version="1.0" encoding="UTF-8" standalone="no"?>
<svg xmlns:ffdec="https://www.free-decompiler.com/flash" xmlns:xlink="http://www.w3.org/1999/xlink" ffdec:objectType="shape" height="192.5px" width="34.2px" xmlns="http://www.w3.org/2000/svg">
  <g transform="matrix(1.0, 0.0, 0.0, 1.0, -182.6, 122.95)">
    <path d="M184.85 -115.1 Q184.65 -117.4 184.6 -119.65 L184.8 -120.95 M186.45 -103.15 Q185.9 -106.15 185.5 -109.1 M189.1 -91.65 Q188.3 -94.55 187.65 -97.4 M192.65 -80.3 L190.8 -85.95 M196.85 -69.25 L194.65 -74.75 M201.5 -58.85 L199.35 -63.3 199.15 -63.8 M211.35 -38.1 L209.9 -41.5 209.05 -43.25 M213.55 -26.25 Q213.4 -29.35 212.9 -32.2 M212.75 -14.4 L213.45 -20.3 M209.9 -2.9 L211.5 -8.55 M206.5 -48.45 L204.0 -53.65 M206.85 8.7 L208.0 2.7 M205.55 20.85 L206.05 14.8 M205.65 33.15 Q205.45 30.15 205.4 27.1 M207.25 45.05 L206.25 39.1 M210.35 56.6 L208.6 50.85 M214.8 67.55 L212.4 62.15" fill="none" stroke="#aa5730" stroke-linecap="round" stroke-linejoin="round" stroke-opacity="0.96862745" stroke-width="4.0"/>
  </g>
</svg>
