<?xml version="1.0" encoding="UTF-8" standalone="no"?>
<svg xmlns:ffdec="https://www.free-decompiler.com/flash" xmlns:xlink="http://www.w3.org/1999/xlink" ffdec:objectType="shape" height="328.4px" width="404.0px" xmlns="http://www.w3.org/2000/svg">
  <g transform="matrix(1.0, 0.0, 0.0, 1.0, 216.8, 164.3)">
    <path d="M-173.6 -110.6 L-173.5 -114.35 M-180.2 -87.75 Q-178.55 -90.15 -177.3 -92.95 M-188.45 -79.0 L-185.1 -82.25 -184.05 -83.2 M-194.6 -68.65 Q-194.05 -71.4 -192.2 -74.3 M-190.7 -58.05 Q-193.15 -60.1 -194.2 -62.75 M-180.1 -53.2 Q-183.2 -54.0 -185.65 -55.05 M-168.45 -51.25 L-174.35 -51.95 M-175.35 -98.65 Q-174.6 -101.5 -174.15 -104.65 M-66.6 -107.3 L-69.4 -101.95 M-58.9 -118.9 L-62.5 -113.85 M-51.4 -128.15 L-55.3 -123.6 M-42.6 -136.45 L-47.2 -132.45 M-32.4 -142.9 Q-35.05 -141.7 -37.7 -140.0 M-20.85 -145.95 Q-23.8 -145.75 -26.75 -144.95 M-9.25 -144.4 Q-12.1 -145.35 -14.95 -145.75 M-110.85 -55.9 L-116.6 -54.55 M-99.45 -59.35 Q-101.45 -58.6 -103.6 -57.95 L-105.1 -57.45 M-88.95 -65.1 Q-91.25 -63.35 -94.1 -61.85 M-81.45 -74.2 L-81.95 -73.2 Q-82.9 -71.45 -84.15 -69.85 L-84.55 -69.35 M-144.7 -51.45 L-150.65 -51.05 M-132.95 -52.8 L-138.8 -52.05 M-122.55 -53.5 L-128.5 -52.8 M-128.95 -12.35 L-123.05 -13.65 M-140.45 -8.9 L-134.75 -10.75 M-151.55 -4.4 L-146.05 -6.75 M-93.1 -15.3 L-87.1 -14.65 M-105.1 -15.65 L-99.1 -15.65 M-117.15 -14.65 L-111.15 -15.3 M-76.2 -85.05 L-78.7 -79.6 M-71.8 -96.45 L-73.25 -92.55 -73.95 -90.65 M-46.85 -2.05 L-45.75 -1.5 -41.8 -1.05 M-57.9 -6.9 L-52.3 -4.55 M-69.3 -10.9 L-63.6 -9.05 M-35.95 -0.5 L-30.1 -0.05 M-81.1 -13.7 L-75.2 -12.45 M-156.6 -50.85 Q-159.65 -50.8 -162.5 -50.9 M130.7 -162.15 L124.9 -161.7 M142.35 -162.15 L136.55 -162.3 M153.95 -161.25 L148.2 -161.75 M165.6 -158.6 L161.45 -160.35 159.75 -160.55 M108.05 -157.05 Q105.3 -155.55 103.25 -153.65 M119.15 -160.8 L113.5 -159.35 M112.55 -106.05 L115.0 -100.7 M106.9 -116.35 L109.85 -111.25 M100.5 -126.25 L103.75 -121.35 M97.2 -137.5 Q97.3 -134.65 97.95 -131.55 M99.5 -148.8 L99.3 -148.5 Q98.15 -146.2 97.6 -143.55 M11.2 -131.1 L6.55 -134.95 M19.8 -123.0 L15.6 -127.2 M27.55 -113.9 L23.8 -118.6 M33.95 -103.7 L30.95 -108.9 M40.95 -68.4 L40.65 -74.4 M38.25 -92.5 L36.4 -98.25 M40.1 -80.45 L39.45 -86.3 M39.9 -32.25 Q40.75 -36.05 40.1 -37.95 M35.95 -21.25 L38.15 -26.7 M31.5 -12.1 L32.05 -13.15 33.45 -15.95 M22.3 -4.55 Q25.25 -5.9 27.45 -7.65 M11.05 -1.1 L16.75 -2.5 M68.65 -7.65 Q67.7 -4.8 67.15 -1.8 M73.85 -18.35 Q72.2 -15.85 70.9 -13.2 M40.35 -56.25 L40.9 -62.35 M39.2 -43.85 Q39.1 -46.5 39.45 -49.8 M113.5 -61.35 L113.2 -61.05 111.25 -56.7 M119.05 -71.75 Q118.3 -68.85 116.9 -66.25 M119.75 -83.65 Q120.1 -80.55 119.95 -77.7 M117.1 -95.15 L118.75 -89.5 M90.9 -34.55 L89.3 -33.45 86.1 -31.2 M100.2 -42.25 L95.65 -38.25 M108.1 -51.5 L104.4 -46.7 M81.55 -27.35 L77.45 -23.1 M175.55 -152.0 L170.75 -155.75 M182.45 -142.35 Q181.25 -145.1 179.5 -147.5 M185.2 -130.75 Q185.0 -133.85 184.35 -136.65 M1.05 -139.1 L-3.85 -142.1 M84.1 85.3 L83.65 87.1 83.55 87.45 82.2 90.75 M85.05 73.25 Q85.25 76.3 85.05 79.25 M83.1 61.45 L84.4 67.3 M73.3 39.75 L75.7 45.35 M69.4 28.25 L71.2 34.05 M66.8 16.35 L67.95 22.5 M66.4 4.2 Q66.2 7.15 66.3 10.25 M48.25 144.75 Q45.75 146.55 43.25 147.65 M56.7 136.75 L52.7 141.0 M63.6 127.5 L60.3 132.2 M69.6 117.5 L66.7 122.55 M74.85 107.2 L72.15 112.65 M5.85 117.0 L3.2 111.85 M10.65 128.05 L8.35 122.5 M17.2 138.4 L13.55 133.6 M26.2 146.4 Q23.75 144.95 21.35 142.75 M37.6 149.2 L31.65 148.75 M79.9 96.3 L77.45 101.75 M78.3 50.75 L81.2 56.2 M-12.5 0.7 L-6.6 0.65 M-24.25 0.35 L-18.4 0.6 M-27.3 87.55 Q-30.25 87.75 -33.25 88.75 M-15.8 90.15 Q-18.5 88.7 -21.3 88.05 M-6.65 97.5 Q-8.75 95.2 -10.9 93.45 M-38.4 91.6 Q-40.9 93.2 -43.4 95.0 M-101.15 146.15 L-105.8 146.25 M-89.95 142.15 Q-92.45 143.85 -95.25 144.85 M-81.7 134.0 L-82.7 135.3 -85.4 138.35 M-153.2 161.55 L-159.05 162.1 M-141.8 159.3 L-147.5 160.6 M-130.7 155.75 L-136.2 157.65 M-119.9 151.3 L-125.3 153.6 M-109.25 146.25 L-114.55 148.85 M-74.0 124.45 L-77.85 129.15 M-65.7 115.1 L-67.45 117.0 -67.9 117.5 -70.0 119.85 M-57.3 106.65 L-61.6 110.9 M-48.2 98.65 L-52.85 102.55 M-172.4 7.4 L-171.95 7.0 -167.25 4.0 M-181.45 15.25 L-177.1 11.3 M-190.4 24.3 L-189.7 23.5 -185.75 19.4 M-198.05 33.6 L-194.35 28.85 M-213.35 65.8 L-211.85 60.0 M-214.8 77.75 L-214.35 71.75 M-214.05 89.7 L-214.7 83.75 M-204.6 43.55 L-201.5 38.5 M-209.85 54.3 L-207.45 48.85 M-195.5 146.35 Q-197.25 144.0 -198.8 141.3 M-208.25 112.6 L-208.9 108.35 -209.55 106.75 M-205.55 124.75 L-207.05 118.85 M-186.95 154.75 L-191.5 150.9 M-176.45 160.05 L-181.9 157.85 M-164.9 162.1 L-170.7 161.45 M-201.55 135.95 L-203.8 130.35 M-211.45 101.2 L-213.0 95.5 M0.25 106.85 Q-1.35 104.25 -3.0 102.0 M-0.7 0.35 L5.2 -0.2 M-162.15 1.0 L-156.95 -1.8" fill="none" stroke="#ffffff" stroke-linecap="round" stroke-linejoin="round" stroke-opacity="0.96862745" stroke-width="4.0"/>
  </g>
</svg>
