<?xml version="1.0" encoding="UTF-8" standalone="no"?>
<svg xmlns:ffdec="https://www.free-decompiler.com/flash" xmlns:xlink="http://www.w3.org/1999/xlink" ffdec:objectType="shape" height="328.35px" width="432.4px" xmlns="http://www.w3.org/2000/svg">
  <g transform="matrix(1.0, 0.0, 0.0, 1.0, 216.8, 164.25)">
    <path d="M-173.6 -110.6 L-173.5 -114.35 M-180.2 -87.75 Q-178.55 -90.15 -177.3 -92.95 M-188.45 -79.0 L-185.1 -82.25 -184.05 -83.2 M-194.6 -68.65 Q-194.05 -71.4 -192.2 -74.3 M-190.7 -58.05 Q-193.15 -60.1 -194.2 -62.75 M-180.1 -53.2 Q-183.2 -54.0 -185.65 -55.05 M-168.45 -51.25 L-174.35 -51.95 M-175.35 -98.65 Q-174.6 -101.5 -174.15 -104.65 M-66.6 -107.3 L-69.4 -101.95 M-58.9 -118.9 L-62.5 -113.85 M-51.4 -128.15 L-55.3 -123.6 M-42.6 -136.45 L-47.2 -132.45 M-32.4 -142.9 Q-35.05 -141.7 -37.7 -140.0 M-20.85 -145.95 Q-23.8 -145.75 -26.75 -144.95 M-9.25 -144.4 Q-12.1 -145.35 -14.95 -145.75 M-110.85 -55.9 L-116.6 -54.55 M-99.45 -59.35 Q-101.45 -58.6 -103.6 -57.95 L-105.1 -57.45 M-88.95 -65.1 Q-91.25 -63.35 -94.1 -61.85 M-81.45 -74.2 L-81.95 -73.2 Q-82.9 -71.45 -84.15 -69.85 L-84.55 -69.35 M-144.7 -51.45 L-150.65 -51.05 M-132.95 -52.8 L-138.8 -52.05 M-122.55 -53.5 L-128.5 -52.8 M-128.95 -12.35 L-123.05 -13.65 M-140.45 -8.9 L-134.75 -10.75 M-151.55 -4.4 L-146.05 -6.75 M-93.1 -15.3 L-87.1 -14.65 M-105.1 -15.65 L-99.1 -15.65 M-117.15 -14.65 L-111.15 -15.3 M-76.2 -85.05 L-78.7 -79.6 M-71.8 -96.45 L-73.25 -92.55 -73.95 -90.65 M-46.85 -2.05 L-45.75 -1.5 -41.8 -1.05 M-57.9 -6.9 L-52.3 -4.55 M-69.3 -10.9 L-63.6 -9.05 M-35.95 -0.5 L-30.1 -0.05 M-81.1 -13.7 L-75.2 -12.45 M-156.6 -50.85 Q-159.65 -50.8 -162.5 -50.9 M136.5 -162.25 L130.65 -162.1 M148.15 -161.75 L142.3 -162.1 M159.65 -160.55 L153.9 -161.25 M103.15 -153.55 Q100.9 -151.4 99.5 -148.8 M113.35 -159.25 Q110.4 -158.25 107.95 -156.95 M109.9 -111.15 L112.6 -105.95 M103.85 -121.25 L107.0 -116.25 M98.0 -131.35 L98.55 -129.0 100.6 -126.15 M97.55 -143.4 Q97.0 -140.55 97.15 -137.3 M124.85 -161.65 L119.05 -160.75 M11.2 -131.1 L6.55 -134.95 M19.8 -123.0 L15.6 -127.2 M27.55 -113.9 L23.8 -118.6 M33.95 -103.7 L30.95 -108.9 M40.95 -68.4 L40.65 -74.4 M38.25 -92.5 L36.4 -98.25 M40.1 -80.45 L39.45 -86.3 M39.9 -32.25 Q40.75 -36.05 40.1 -37.95 M35.95 -21.25 L38.15 -26.7 M31.5 -12.1 L32.05 -13.15 33.45 -15.95 M22.3 -4.55 Q25.25 -5.9 27.45 -7.65 M11.05 -1.1 L16.75 -2.5 M70.9 -13.05 Q69.6 -10.35 68.65 -7.45 M77.4 -23.0 Q75.45 -20.7 73.85 -18.25 M40.35 -56.25 L40.9 -62.35 M39.2 -43.85 Q39.1 -46.5 39.45 -49.8 M111.15 -56.6 Q109.8 -53.95 108.05 -51.4 M116.75 -66.05 Q115.3 -63.45 113.3 -61.15 M120.0 -77.5 Q119.8 -74.4 119.0 -71.6 M118.8 -89.3 Q119.5 -86.25 119.8 -83.45 M86.0 -31.1 Q83.6 -29.25 81.5 -27.25 M95.6 -38.2 L90.8 -34.55 M104.3 -46.6 L100.15 -42.2 M115.05 -100.55 L117.15 -95.0 M170.65 -155.75 L165.5 -158.6 M179.45 -147.55 L178.75 -148.5 175.45 -152.05 M184.3 -136.85 Q183.6 -139.85 182.4 -142.5 M185.2 -125.05 Q185.35 -128.1 185.15 -130.95 M185.0 -113.3 L184.6 -119.25 M186.75 -101.45 L185.7 -107.3 M189.6 -89.9 Q188.75 -92.8 188.05 -95.65 M193.25 -78.6 L191.35 -84.25 M197.55 -67.5 L195.35 -73.05 M212.25 -35.25 L210.2 -40.8 M213.6 -23.45 Q213.65 -26.5 213.35 -29.35 M212.25 -11.7 L213.2 -17.55 M209.1 -0.35 L210.85 -6.0 M202.5 -56.8 L200.0 -61.95 M207.65 -46.15 L205.1 -51.4 M1.05 -139.1 L-3.85 -142.1 M206.4 11.5 L207.4 5.5 M85.0 79.3 Q84.75 82.4 84.1 85.35 M84.4 67.4 L85.05 73.35 M81.25 56.4 L82.0 57.7 83.15 61.55 M71.25 34.25 L73.4 39.95 M67.95 22.7 L68.15 23.5 69.4 28.45 M66.35 10.45 Q66.45 13.45 66.9 16.55 M75.8 45.55 L78.35 50.9 M52.6 141.15 Q50.35 143.25 48.15 144.8 M60.2 132.4 L56.6 136.95 M66.6 122.75 L63.5 127.7 M72.15 112.7 L69.85 117.0 69.6 117.5 M77.45 101.85 L74.85 107.3 M3.1 111.75 L0.15 106.75 M8.3 122.3 L6.1 117.5 5.85 117.0 M13.45 133.4 L11.85 131.0 10.6 127.85 M21.15 142.55 Q19.1 140.65 17.05 138.15 M31.45 148.65 Q28.7 147.9 25.95 146.25 M43.1 147.65 Q40.25 148.85 37.4 149.1 M82.2 90.85 L79.85 96.4 M-12.5 0.7 L-6.6 0.65 M-24.25 0.35 L-18.4 0.6 M-43.5 95.05 L-48.35 98.75 M-33.45 88.8 L-34.15 89.05 -38.5 91.65 M-21.5 87.95 L-27.5 87.55 M-11.05 93.35 Q-13.45 91.35 -15.95 90.05 M-95.3 144.85 Q-98.1 145.85 -101.15 146.15 M-85.5 138.45 Q-87.65 140.65 -90.05 142.25 M-153.2 161.55 L-159.05 162.1 M-141.8 159.3 L-147.5 160.6 M-130.7 155.75 L-136.2 157.65 M-119.9 151.3 L-125.3 153.6 M-109.25 146.25 L-114.55 148.85 M-70.1 119.95 L-74.05 124.5 M-61.75 110.95 L-65.75 115.15 M-53.0 102.65 L-57.45 106.7 M-77.9 129.15 L-81.7 134.0 M-3.1 101.9 L-6.8 97.4 M-172.4 7.4 L-171.95 7.0 -167.25 4.0 M-181.45 15.25 L-177.1 11.3 M-190.4 24.3 L-189.7 23.5 -185.75 19.4 M-198.05 33.6 L-194.35 28.85 M-213.35 65.8 L-211.85 60.0 M-214.8 77.75 L-214.35 71.75 M-214.05 89.7 L-214.7 83.75 M-204.6 43.55 L-201.5 38.5 M-209.85 54.3 L-207.45 48.85 M-195.5 146.35 Q-197.25 144.0 -198.8 141.3 M-208.25 112.6 L-208.9 108.35 -209.55 106.75 M-205.55 124.75 L-207.05 118.85 M-186.95 154.75 L-191.5 150.9 M-176.45 160.05 L-181.9 157.85 M-164.9 162.1 L-170.7 161.45 M-201.55 135.95 L-203.8 130.35 M-211.45 101.2 L-213.0 95.5 M67.15 -1.6 Q66.6 1.3 66.4 4.4 M-0.7 0.35 L5.2 -0.2 M-162.15 1.0 L-156.95 -1.8" fill="none" stroke="#ffffff" stroke-linecap="round" stroke-linejoin="round" stroke-opacity="0.96862745" stroke-width="4.0"/>
  </g>
</svg>
