<?xml version="1.0" encoding="UTF-8" standalone="no"?>
<svg xmlns:ffdec="https://www.free-decompiler.com/flash" xmlns:xlink="http://www.w3.org/1999/xlink" ffdec:objectType="shape" height="50.5px" width="89.85px" xmlns="http://www.w3.org/2000/svg">
  <g transform="matrix(1.0, 0.0, 0.0, 1.0, -11.1, -2.25)">
    <path d="M100.75 6.55 L99.9 36.0 98.05 37.15 100.05 38.55 100.85 43.7 100.9 46.15 100.8 47.25 100.9 47.25 Q100.7 50.95 98.45 52.2 L90.3 52.75 81.05 52.6 70.25 51.9 60.75 51.7 24.45 52.65 Q18.35 52.75 15.45 51.2 L14.4 50.95 Q12.75 50.45 11.75 49.7 L11.75 13.0 Q12.05 11.75 11.25 9.15 10.45 6.5 14.6 3.7 53.5 0.8 91.15 3.7 93.7 4.2 95.45 4.8 L97.1 4.8 Q99.6 5.55 100.75 6.55" fill="#1e0101" fill-opacity="0.36078432" fill-rule="evenodd" stroke="none"/>
  </g>
</svg>
