<?xml version="1.0" encoding="UTF-8" standalone="no"?>
<svg xmlns:ffdec="https://www.free-decompiler.com/flash" xmlns:xlink="http://www.w3.org/1999/xlink" ffdec:objectType="shape" height="48.0px" width="85.25px" xmlns="http://www.w3.org/2000/svg">
  <g transform="matrix(1.0, 0.0, 0.0, 1.0, -13.25, -2.4)">
    <path d="M98.25 4.2 L97.45 33.65 95.65 34.8 Q96.8 35.3 97.6 36.2 L98.4 41.35 98.45 43.8 98.3 44.9 98.45 44.9 Q98.2 48.6 96.05 49.85 L88.3 50.4 79.5 50.25 69.2 49.55 60.1 49.35 25.45 50.3 Q14.95 50.45 14.55 45.35 L14.45 44.9 14.7 44.9 14.55 44.2 14.45 43.8 Q11.6 30.65 15.5 7.7 L16.25 5.4 Q16.6 2.7 20.25 2.4 L20.25 2.45 94.8 2.45 Q97.15 3.2 98.25 4.2" fill="url(#gradient0)" fill-rule="evenodd" stroke="none"/>
  </g>
  <defs>
    <linearGradient gradientTransform="matrix(0.052, 0.0, 0.0, 0.0307, 55.85, 25.3)" gradientUnits="userSpaceOnUse" id="gradient0" spreadMethod="pad" x1="-819.2" x2="819.2">
      <stop offset="0.0" stop-color="#231204"/>
      <stop offset="0.5568627450980392" stop-color="#4f2909"/>
      <stop offset="1.0" stop-color="#7e491e"/>
    </linearGradient>
  </defs>
</svg>
