<?xml version="1.0" encoding="UTF-8" standalone="no"?>
<svg xmlns:ffdec="https://www.free-decompiler.com/flash" xmlns:xlink="http://www.w3.org/1999/xlink" ffdec:objectType="shape" height="44.2px" width="85.2px" xmlns="http://www.w3.org/2000/svg">
  <g transform="matrix(1.0, 0.0, 0.0, 1.0, -10.45, -5.2)">
    <path d="M94.95 19.95 L74.9 18.5 Q65.85 17.25 65.7 15.75 65.85 14.2 74.9 12.95 L95.25 11.55 94.95 19.95 M94.75 29.9 Q77.55 29.7 64.3 25.6 47.15 20.3 31.1 20.3 L10.85 21.65 11.1 19.15 11.2 19.15 29.45 17.75 Q45.85 17.0 63.2 21.6 77.55 25.35 94.8 25.7 L94.75 29.9 M94.6 33.7 L92.8 34.8 93.25 35.0 Q76.05 35.1 61.25 39.05 41.9 44.2 31.3 44.5 L11.8 43.85 11.65 43.85 10.95 39.55 28.05 40.45 Q44.1 40.45 55.4 37.9 67.0 35.3 66.95 31.6 67.0 27.85 55.4 25.3 44.1 22.75 28.05 22.75 L10.75 23.65 10.8 22.2 10.95 22.2 31.1 20.9 Q46.95 20.9 63.9 26.15 77.3 30.3 94.65 30.5 L94.6 33.7" fill="#c58c3f" fill-rule="evenodd" stroke="none"/>
    <path d="M95.35 7.55 Q80.25 8.05 69.8 10.1 58.25 12.35 58.4 15.45 58.25 18.55 69.8 20.85 80.05 22.85 94.9 23.4 L94.9 25.05 Q77.75 24.8 63.6 21.05 45.95 16.4 29.35 17.15 L11.15 18.5 11.95 12.15 26.8 12.85 Q43.3 13.5 66.3 8.9 79.95 6.15 95.4 5.2 L95.35 7.55" fill="url(#gradient0)" fill-rule="evenodd" stroke="none"/>
    <path d="M66.0 31.6 Q65.85 34.95 55.0 37.35 43.85 39.85 28.05 39.85 L11.0 38.95 10.85 38.95 10.65 36.45 28.15 37.3 Q41.5 37.3 50.9 35.8 60.7 34.25 60.6 31.9 60.7 29.6 50.9 28.05 41.5 26.55 28.15 26.55 L10.5 27.4 10.65 24.25 10.8 24.25 28.05 23.35 Q43.85 23.35 55.0 25.85 65.85 28.2 66.0 31.6" fill="url(#gradient1)" fill-rule="evenodd" stroke="none"/>
    <path d="M59.6 31.9 Q59.55 33.8 50.6 35.2 L28.15 36.65 10.75 35.85 10.55 35.85 Q10.35 32.15 10.5 27.95 L10.55 27.95 28.15 27.15 Q41.35 27.15 50.6 28.65 59.55 30.05 59.6 31.9" fill="url(#gradient2)" fill-rule="evenodd" stroke="none"/>
    <path d="M76.6 49.2 L66.35 48.55 57.25 48.3 Q41.85 48.95 22.55 49.3 18.45 49.35 15.85 48.6 12.1 47.45 11.75 44.5 L31.3 45.1 Q42.1 44.75 61.6 39.65 76.45 35.65 93.7 35.6 L94.15 35.6 94.75 36.2 95.55 41.35 Q96.05 47.2 93.25 48.8 L85.45 49.4 76.6 49.2" fill="url(#gradient3)" fill-rule="evenodd" stroke="none"/>
    <path d="M94.9 22.75 Q80.3 22.25 70.15 20.3 59.4 18.2 59.35 15.45 59.4 12.75 70.15 10.65 80.35 8.65 95.35 8.15 L95.25 10.95 74.65 12.4 Q64.65 13.75 64.75 15.75 64.65 17.7 74.65 19.1 L94.95 20.6 94.9 22.75" fill="url(#gradient4)" fill-rule="evenodd" stroke="none"/>
  </g>
  <defs>
    <linearGradient gradientTransform="matrix(0.1171, -0.0083, 0.0022, 0.012, 23.8, 17.35)" gradientUnits="userSpaceOnUse" id="gradient0" spreadMethod="pad" x1="-819.2" x2="819.2">
      <stop offset="0.0" stop-color="#b17536"/>
      <stop offset="1.0" stop-color="#ce9744"/>
    </linearGradient>
    <linearGradient gradientTransform="matrix(0.0339, 0.0028, -0.0025, 0.0102, 37.8, 31.1)" gradientUnits="userSpaceOnUse" id="gradient1" spreadMethod="pad" x1="-819.2" x2="819.2">
      <stop offset="0.0" stop-color="#b17536"/>
      <stop offset="1.0" stop-color="#ce9744"/>
    </linearGradient>
    <linearGradient gradientTransform="matrix(0.0203, 0.0129, -0.0079, 0.0041, 34.95, 31.55)" gradientUnits="userSpaceOnUse" id="gradient2" spreadMethod="pad" x1="-819.2" x2="819.2">
      <stop offset="0.0" stop-color="#b17536"/>
      <stop offset="1.0" stop-color="#ce9744"/>
    </linearGradient>
    <linearGradient gradientTransform="matrix(-0.1366, 0.017, -0.0032, -0.0099, 64.1, 30.9)" gradientUnits="userSpaceOnUse" id="gradient3" spreadMethod="pad" x1="-819.2" x2="819.2">
      <stop offset="0.0" stop-color="#b17536"/>
      <stop offset="1.0" stop-color="#ce9744"/>
    </linearGradient>
    <linearGradient gradientTransform="matrix(0.0377, 0.0, 0.0, 0.0089, 69.8, 15.3)" gradientUnits="userSpaceOnUse" id="gradient4" spreadMethod="pad" x1="-819.2" x2="819.2">
      <stop offset="0.0" stop-color="#b17536"/>
      <stop offset="1.0" stop-color="#ce9744"/>
    </linearGradient>
  </defs>
</svg>
