<?xml version="1.0" encoding="UTF-8" standalone="no"?>
<svg xmlns:ffdec="https://www.free-decompiler.com/flash" xmlns:xlink="http://www.w3.org/1999/xlink" ffdec:objectType="shape" height="43.4px" width="85.1px" xmlns="http://www.w3.org/2000/svg">
  <g transform="matrix(1.0, 0.0, 0.0, 1.0, -10.55, -1.6)">
    <path d="M95.3 25.55 Q77.9 25.2 63.35 21.4 46.0 16.85 29.6 17.6 L11.3 18.95 11.3 18.3 29.6 16.95 Q46.25 16.2 63.8 20.85 77.95 24.55 95.05 24.85 L95.0 25.5 95.3 25.55 M95.55 5.0 Q80.2 5.95 66.6 8.65 43.55 13.3 27.1 12.65 L12.2 11.95 12.3 11.35 27.1 12.05 Q43.35 12.65 66.05 8.1 79.9 5.35 95.65 4.45 L95.55 5.0 M95.5 7.95 Q80.7 8.45 70.45 10.4 59.7 12.55 59.7 15.25 59.7 18.05 70.45 20.1 80.55 22.1 95.05 22.65 L95.05 23.15 Q80.2 22.6 69.95 20.6 58.35 18.3 58.5 15.25 58.35 12.2 69.95 9.95 80.4 7.95 95.5 7.4 L95.5 7.95 M95.45 11.3 L75.15 12.75 Q66.1 13.95 65.95 15.55 66.1 17.15 75.15 18.35 L95.2 19.85 95.15 20.3 74.8 18.8 Q64.7 17.45 64.9 15.55 64.7 13.65 74.8 12.2 L95.45 10.8 95.45 11.3 M94.85 30.35 Q77.45 30.1 64.05 26.0 47.1 20.75 31.35 20.75 L11.05 22.05 11.05 21.4 31.35 20.1 Q47.35 20.1 64.55 25.4 77.75 29.5 94.95 29.7 L94.85 30.35 M94.35 35.4 Q76.8 35.4 61.8 39.4 42.3 44.6 31.55 44.95 L12.0 44.25 11.9 44.1 11.85 43.65 31.45 44.25 Q42.1 44.0 61.45 38.85 76.2 34.9 93.45 34.85 93.95 35.05 94.35 35.4 M70.95 1.6 L74.85 1.6 66.25 3.2 Q43.2 7.75 26.3 6.45 L13.4 5.5 13.55 5.05 13.65 4.95 26.35 5.9 Q42.95 7.15 65.65 2.65 L70.95 1.6 M60.85 31.75 Q60.9 34.05 51.1 35.55 41.7 37.05 28.35 37.05 L10.8 36.25 10.8 35.7 28.35 36.5 Q41.55 36.5 50.85 35.0 59.75 33.6 59.85 31.75 59.75 29.8 50.85 28.45 41.55 26.95 28.35 26.95 L10.7 27.8 10.7 27.15 28.35 26.4 Q41.7 26.4 51.1 27.85 60.9 29.4 60.85 31.75 M67.1 31.4 Q67.25 35.1 55.55 37.7 44.3 40.25 28.35 40.25 L11.15 39.35 11.05 38.8 28.35 39.7 Q44.05 39.7 55.25 37.15 66.1 34.75 66.15 31.4 66.1 28.0 55.25 25.65 44.05 23.15 28.35 23.15 L10.55 24.1 10.9 24.05 10.9 23.45 28.35 22.6 Q44.3 22.6 55.55 25.1 67.25 27.7 67.1 31.4" fill="#ae7528" fill-rule="evenodd" stroke="none"/>
  </g>
</svg>
