<?xml version="1.0" encoding="UTF-8" standalone="no"?>
<svg xmlns:ffdec="https://www.free-decompiler.com/flash" xmlns:xlink="http://www.w3.org/1999/xlink" ffdec:objectType="shape" height="26.6px" width="49.65px" xmlns="http://www.w3.org/2000/svg">
  <g transform="matrix(1.0, 0.0, 0.0, 1.0, -29.0, -11.95)">
    <path d="M64.45 21.8 L60.85 22.25 60.6 18.55 Q60.3 16.2 59.2 16.15 58.1 16.3 57.8 18.65 57.55 20.9 57.55 25.3 57.55 29.7 57.8 32.0 58.1 34.25 59.2 34.45 60.3 34.35 60.6 32.05 L60.85 28.3 64.45 28.4 Q64.3 32.55 63.6 35.0 62.65 38.4 59.1 38.5 55.45 38.25 54.6 34.95 53.7 31.65 53.7 25.3 53.7 18.95 54.55 15.65 55.4 12.3 59.05 12.1 L59.05 12.05 Q62.65 12.2 63.6 15.55 64.25 17.95 64.45 21.8 M78.55 12.3 L74.75 25.1 78.65 37.9 74.75 38.3 71.4 26.3 71.2 38.4 67.45 38.4 67.85 11.95 71.65 12.0 71.45 23.8 74.7 11.95 78.55 12.3 M48.65 12.0 L52.3 37.7 48.85 37.8 48.3 34.15 45.05 34.25 44.7 38.55 41.0 38.55 44.15 12.4 48.65 12.0 M47.8 30.5 L46.4 21.7 45.5 30.5 47.8 30.5 M32.1 12.15 Q35.15 12.15 36.25 12.8 38.8 13.9 38.9 18.2 39.05 22.15 36.55 24.45 39.1 26.25 39.2 30.25 39.2 36.4 36.0 37.7 34.65 38.3 32.65 38.35 L32.3 38.35 29.05 38.1 29.0 12.3 31.1 12.2 32.1 12.15 M32.65 16.4 L32.7 23.25 Q34.05 23.4 34.75 22.15 35.3 21.1 35.2 19.7 35.2 18.05 34.7 17.3 34.2 16.55 33.35 16.4 L32.8 16.4 32.65 16.4 M32.7 35.05 Q34.4 35.0 35.2 33.55 35.5 32.7 35.45 30.55 35.4 28.4 34.65 27.65 34.05 27.1 32.7 27.0 L32.7 35.05" fill="#672208" fill-rule="evenodd" stroke="none"/>
  </g>
</svg>
