<?xml version="1.0" encoding="UTF-8" standalone="no"?>
<svg xmlns:ffdec="https://www.free-decompiler.com/flash" xmlns:xlink="http://www.w3.org/1999/xlink" ffdec:objectType="shape" height="34.65px" width="49.65px" xmlns="http://www.w3.org/2000/svg">
  <g transform="matrix(1.0, 0.0, 0.0, 1.0, 0.0, 8.05)">
    <path d="M7.25 -7.2 Q9.8 -5.75 9.9 -0.1 10.05 5.1 7.55 8.15 10.1 10.5 10.2 15.75 10.2 23.85 7.0 25.55 5.65 26.35 3.65 26.4 L3.3 26.4 0.05 26.1 0.0 -7.85 2.1 -7.95 3.1 -8.05 Q6.15 -8.05 7.25 -7.2 M4.35 -2.45 L3.8 -2.45 3.65 -2.45 3.7 6.55 Q5.05 6.75 5.75 5.1 6.3 3.75 6.2 1.9 6.2 -0.3 5.7 -1.25 5.2 -2.25 4.35 -2.45 M42.45 11.85 L45.7 0.0 49.55 0.35 45.75 13.15 49.65 25.95 45.75 26.35 42.4 14.35 42.2 26.45 38.45 26.45 38.85 0.0 42.65 0.05 42.45 11.85 M35.45 9.85 L31.85 10.3 31.6 6.6 Q31.3 4.25 30.2 4.2 29.1 4.35 28.8 6.7 28.55 8.95 28.55 13.35 28.55 17.75 28.8 20.05 29.1 22.3 30.2 22.5 31.3 22.4 31.6 20.1 L31.85 16.35 35.45 16.45 Q35.3 20.6 34.6 23.05 33.65 26.45 30.1 26.55 26.45 26.3 25.6 23.0 24.7 19.7 24.7 13.35 24.7 7.0 25.55 3.7 26.4 0.35 30.05 0.15 L30.05 0.1 Q33.65 0.25 34.6 3.6 35.25 6.0 35.45 9.85 M19.65 0.05 L23.3 25.75 19.85 25.85 19.3 22.2 16.05 22.3 15.7 26.6 12.0 26.6 15.15 0.45 19.65 0.05 M3.7 11.5 L3.7 22.05 Q5.4 22.0 6.2 20.1 6.5 19.0 6.45 16.15 6.4 13.35 5.65 12.35 5.05 11.6 3.7 11.5 M18.8 18.55 L17.4 9.75 16.5 18.55 18.8 18.55" fill="#672208" fill-rule="evenodd" stroke="none"/>
  </g>
</svg>
