<?xml version="1.0" encoding="UTF-8" standalone="no"?>
<svg xmlns:ffdec="https://www.free-decompiler.com/flash" xmlns:xlink="http://www.w3.org/1999/xlink" ffdec:objectType="shape" height="31.75px" width="49.65px" xmlns="http://www.w3.org/2000/svg">
  <g transform="matrix(1.0, 0.0, 0.0, 1.0, 0.0, 5.15)">
    <path d="M19.65 -5.15 L23.3 25.6 19.85 25.7 19.3 21.35 16.05 21.45 15.7 26.6 12.0 26.6 15.15 -4.65 19.65 -5.15 M45.7 0.0 L49.55 0.35 45.75 13.15 49.65 25.95 45.75 26.35 42.4 14.35 42.2 26.45 38.45 26.45 38.85 0.0 42.65 0.05 42.45 11.85 45.7 0.0 M31.85 10.3 L31.6 6.6 Q31.3 4.25 30.2 4.2 29.1 4.35 28.8 6.7 28.55 8.95 28.55 13.35 28.55 17.75 28.8 20.05 29.1 22.3 30.2 22.5 31.3 22.4 31.6 20.1 L31.85 16.35 35.45 16.45 Q35.3 20.6 34.6 23.05 33.65 26.45 30.1 26.55 26.45 26.3 25.6 23.0 24.7 19.7 24.7 13.35 24.7 7.0 25.55 3.7 26.4 0.35 30.05 0.15 L30.05 0.1 Q33.65 0.25 34.6 3.6 35.25 6.0 35.45 9.85 L31.85 10.3 M3.65 4.45 L3.7 11.3 Q5.05 11.45 5.75 10.2 6.3 9.15 6.2 7.75 6.2 6.1 5.7 5.35 5.2 4.6 4.35 4.45 L3.8 4.45 3.65 4.45 M2.1 0.25 L3.1 0.2 Q6.15 0.2 7.25 0.85 9.8 1.95 9.9 6.25 10.05 10.2 7.55 12.5 10.1 14.3 10.2 18.3 10.2 24.45 7.0 25.75 5.65 26.35 3.65 26.4 L3.3 26.4 0.05 26.15 0.0 0.35 2.1 0.25 M3.7 15.05 L3.7 23.1 Q5.4 23.05 6.2 21.6 6.5 20.75 6.45 18.6 6.4 16.45 5.65 15.7 5.05 15.15 3.7 15.05 M18.8 17.0 L17.4 6.45 16.5 17.0 18.8 17.0" fill="#672208" fill-rule="evenodd" stroke="none"/>
  </g>
</svg>
