<?xml version="1.0" encoding="UTF-8" standalone="no"?>
<svg xmlns:ffdec="https://www.free-decompiler.com/flash" xmlns:xlink="http://www.w3.org/1999/xlink" ffdec:objectType="shape" height="31.75px" width="49.65px" xmlns="http://www.w3.org/2000/svg">
  <g transform="matrix(1.0, 0.0, 0.0, 1.0, 0.0, 5.15)">
    <path d="M34.6 -0.95 Q35.25 1.95 35.45 6.55 L31.85 7.05 31.6 2.65 Q31.3 -0.15 30.2 -0.25 29.1 -0.05 28.8 2.75 28.55 5.45 28.55 10.7 28.55 16.0 28.8 18.75 29.1 21.4 30.2 21.65 31.3 21.55 31.6 18.8 L31.85 14.3 35.45 14.4 Q35.3 19.4 34.6 22.3 33.65 26.4 30.1 26.5 26.45 26.2 25.6 22.25 24.7 18.3 24.7 10.7 24.7 3.1 25.55 -0.85 26.4 -4.85 30.05 -5.05 L30.05 -5.15 Q33.65 -4.95 34.6 -0.95 M49.55 0.35 L45.75 13.15 49.65 25.95 45.75 26.35 42.4 14.35 42.2 26.45 38.45 26.45 38.85 0.0 42.65 0.05 42.45 11.85 45.7 0.0 49.55 0.35 M19.65 0.05 L23.3 25.75 19.85 25.85 19.3 22.2 16.05 22.3 15.7 26.6 12.0 26.6 15.15 0.45 19.65 0.05 M3.8 4.45 L3.65 4.45 3.7 11.3 Q5.05 11.45 5.75 10.2 6.3 9.15 6.2 7.75 6.2 6.1 5.7 5.35 5.2 4.6 4.35 4.45 L3.8 4.45 M3.1 0.2 Q6.15 0.2 7.25 0.85 9.8 1.95 9.9 6.25 10.05 10.2 7.55 12.5 10.1 14.3 10.2 18.3 10.2 24.45 7.0 25.75 5.65 26.35 3.65 26.4 L3.3 26.4 0.05 26.15 0.0 0.35 2.1 0.25 3.1 0.2 M3.7 23.1 Q5.4 23.05 6.2 21.6 6.5 20.75 6.45 18.6 6.4 16.45 5.65 15.7 5.05 15.15 3.7 15.05 L3.7 23.1 M18.8 18.55 L17.4 9.75 16.5 18.55 18.8 18.55" fill="#672208" fill-rule="evenodd" stroke="none"/>
  </g>
</svg>
