<?xml version="1.0" encoding="UTF-8" standalone="no"?>
<svg xmlns:ffdec="https://www.free-decompiler.com/flash" xmlns:xlink="http://www.w3.org/1999/xlink" ffdec:objectType="shape" height="52.15px" width="95.6px" xmlns="http://www.w3.org/2000/svg">
  <g transform="matrix(1.0, 0.0, 0.0, 1.0, -8.55, -1.35)">
    <path d="M98.4 5.55 L100.1 5.55 Q102.75 6.3 103.95 7.3 L103.05 36.75 101.1 37.9 Q102.35 38.4 103.2 39.3 L104.05 44.45 104.1 46.9 104.0 48.0 104.1 48.0 Q103.9 51.7 101.55 52.95 L92.95 53.5 83.25 53.35 71.95 52.65 61.95 52.45 23.85 53.4 Q17.45 53.5 14.45 51.95 L13.3 51.7 Q11.6 51.2 10.55 50.45 L10.55 15.0 11.95 12.6 13.25 8.75 15.45 4.35 Q55.25 1.6 93.85 4.45 L98.4 5.55" fill="#1e0101" fill-opacity="0.36078432" fill-rule="evenodd" stroke="none"/>
    <path d="M100.15 4.2 L99.3 33.65 97.45 34.8 Q98.65 35.3 99.45 36.2 L100.3 41.35 100.35 43.8 100.2 44.9 100.35 44.9 Q100.1 48.6 97.85 49.85 L89.75 50.4 80.55 50.25 69.8 49.55 60.35 49.35 24.2 50.3 Q13.25 50.45 12.85 45.35 L12.75 44.9 13.0 44.9 12.85 44.2 12.75 43.8 Q9.75 30.65 13.85 7.7 L14.6 5.4 Q14.95 2.7 18.8 2.4 L18.8 2.45 96.55 2.45 Q99.0 3.2 100.15 4.2" fill="url(#gradient0)" fill-rule="evenodd" stroke="none"/>
    <path d="M97.45 3.85 L96.6 33.5 94.75 34.6 96.7 35.95 97.6 41.15 Q98.05 47.05 95.15 48.6 L87.0 49.25 77.85 49.0 67.1 48.4 57.65 48.1 Q41.55 48.7 21.45 49.1 10.55 49.3 10.1 44.1 7.0 30.85 11.1 7.4 L11.9 5.05 Q12.0 2.5 13.1 1.35 L90.6 1.35 Q95.7 2.3 97.45 3.85" fill="#c58c3f" fill-rule="evenodd" stroke="none"/>
    <path d="M96.7 19.95 L75.8 18.5 Q66.35 17.25 66.15 15.75 66.35 14.2 75.8 12.95 L97.0 11.55 96.7 19.95 M96.35 33.7 L94.45 34.8 94.9 35.0 Q76.95 35.1 61.55 39.05 41.4 44.2 30.3 44.5 L10.0 43.85 9.8 43.85 Q9.35 41.85 9.05 39.55 L26.95 40.45 Q43.65 40.45 55.4 37.9 67.55 35.3 67.45 31.6 67.55 27.85 55.4 25.3 43.65 22.75 26.95 22.75 L8.85 23.65 8.95 22.2 9.05 22.2 30.1 20.9 Q46.6 20.9 64.3 26.15 78.25 30.3 96.4 30.5 L96.35 33.7 M96.45 29.9 Q78.55 29.7 64.75 25.6 46.8 20.3 30.1 20.3 L8.95 21.65 9.2 19.15 9.35 19.15 28.35 17.75 Q45.45 17.0 63.55 21.6 78.55 25.35 96.55 25.7 L96.45 29.9" fill="#c58c3f" fill-rule="evenodd" stroke="none"/>
    <path d="M97.1 7.55 Q81.35 8.05 70.45 10.1 58.4 12.35 58.6 15.45 58.4 18.55 70.45 20.85 81.15 22.85 96.65 23.4 L96.65 25.05 Q78.75 24.8 64.0 21.05 45.6 16.4 28.3 17.15 L9.25 18.5 10.1 12.15 25.6 12.85 Q42.8 13.5 66.8 8.9 81.05 6.15 97.15 5.2 L97.1 7.55" fill="url(#gradient1)" fill-rule="evenodd" stroke="none"/>
    <path d="M66.5 31.6 Q66.35 34.95 55.05 37.35 43.4 39.85 26.95 39.85 L9.15 38.95 8.95 38.95 8.75 36.45 27.0 37.3 Q40.9 37.3 50.75 35.8 61.0 34.25 60.85 31.9 61.0 29.6 50.75 28.05 40.9 26.55 27.0 26.55 L8.6 27.4 8.75 24.25 8.95 24.25 26.95 23.35 Q43.4 23.35 55.05 25.85 66.35 28.2 66.5 31.6" fill="url(#gradient2)" fill-rule="evenodd" stroke="none"/>
    <path d="M59.85 31.9 Q59.75 33.8 50.45 35.2 40.8 36.65 27.0 36.65 L8.85 35.85 8.7 35.85 Q8.45 32.15 8.6 27.95 L8.7 27.95 27.0 27.15 Q40.8 27.15 50.45 28.65 59.75 30.05 59.85 31.9" fill="url(#gradient3)" fill-rule="evenodd" stroke="none"/>
    <path d="M77.55 49.2 L66.9 48.55 57.35 48.3 Q41.3 48.95 21.2 49.3 L14.2 48.6 Q10.3 47.45 9.9 44.5 L30.3 45.1 Q41.55 44.75 61.9 39.65 77.4 35.65 95.4 35.6 L95.9 35.6 96.45 36.2 97.3 41.35 Q97.8 47.2 94.9 48.8 L86.8 49.4 77.55 49.2" fill="url(#gradient4)" fill-rule="evenodd" stroke="none"/>
    <path d="M97.0 10.95 L75.5 12.4 Q65.05 13.75 65.2 15.75 65.05 17.7 75.5 19.1 L96.7 20.6 96.65 22.75 Q81.4 22.25 70.8 20.3 59.65 18.2 59.55 15.45 59.65 12.75 70.8 10.65 81.45 8.65 97.1 8.15 L97.0 10.95" fill="url(#gradient5)" fill-rule="evenodd" stroke="none"/>
    <path d="M96.75 25.5 L97.05 25.55 Q78.9 25.2 63.7 21.4 45.65 16.85 28.55 17.6 L9.45 18.95 9.45 18.3 28.55 16.95 Q45.9 16.2 64.2 20.85 79.0 24.55 96.8 24.85 L96.75 25.5 M97.35 5.0 Q81.3 5.95 67.15 8.65 43.1 13.3 25.9 12.65 L10.35 11.95 10.45 11.35 25.9 12.05 Q42.85 12.65 66.55 8.1 81.0 5.35 97.45 4.45 L97.35 5.0 M96.8 23.15 Q81.3 22.6 70.6 20.6 58.55 18.3 58.7 15.25 58.55 12.2 70.6 9.95 81.5 7.95 97.3 7.4 L97.3 7.95 Q81.85 8.45 71.15 10.4 59.9 12.55 59.9 15.25 59.9 18.05 71.15 20.1 81.7 22.1 96.8 22.65 L96.8 23.15 M96.9 20.3 L75.65 18.8 Q65.15 17.45 65.35 15.55 65.15 13.65 75.65 12.2 L97.2 10.8 97.2 11.3 76.05 12.75 Q66.6 13.95 66.45 15.55 66.6 17.15 76.05 18.35 L96.95 19.85 96.9 20.3 M96.6 30.35 Q78.4 30.1 64.5 26.0 46.8 20.75 30.35 20.75 L9.15 22.05 9.15 21.4 30.35 20.1 Q47.05 20.1 64.95 25.4 78.75 29.5 96.7 29.7 L96.6 30.35 M96.05 35.4 Q77.75 35.4 62.1 39.4 41.8 44.6 30.55 44.95 L10.15 44.25 10.1 44.1 10.0 43.65 30.5 44.25 Q41.55 44.0 61.7 38.85 77.15 34.9 95.1 34.85 95.65 35.05 96.05 35.4 M71.65 1.6 L75.75 1.6 66.75 3.2 Q42.7 7.75 25.05 6.45 L11.65 5.5 11.8 5.05 11.9 4.95 25.15 5.9 Q42.45 7.15 66.15 2.65 L71.65 1.6 M61.1 31.75 Q61.15 34.05 50.95 35.55 41.15 37.05 27.25 37.05 L8.95 36.25 8.9 35.7 27.25 36.5 Q41.0 36.5 50.7 35.0 59.95 33.6 60.05 31.75 59.95 29.8 50.7 28.45 41.0 26.95 27.25 26.95 L8.8 27.8 8.8 27.15 27.25 26.4 Q41.15 26.4 50.95 27.85 61.15 29.4 61.1 31.75 M67.65 31.4 Q67.8 35.1 55.6 37.7 43.85 40.25 27.2 40.25 L9.25 39.35 9.15 38.8 27.2 39.7 Q43.6 39.7 55.3 37.15 66.6 34.75 66.65 31.4 66.6 28.0 55.3 25.65 43.6 23.15 27.2 23.15 L8.65 24.1 9.05 24.05 9.05 23.45 27.2 22.6 Q43.85 22.6 55.6 25.1 67.8 27.7 67.65 31.4" fill="#ae7528" fill-rule="evenodd" stroke="none"/>
  </g>
  <defs>
    <linearGradient gradientTransform="matrix(0.0542, 0.0, 0.0, 0.0307, 55.9, 25.3)" gradientUnits="userSpaceOnUse" id="gradient0" spreadMethod="pad" x1="-819.2" x2="819.2">
      <stop offset="0.0" stop-color="#231204"/>
      <stop offset="0.5568627450980392" stop-color="#4f2909"/>
      <stop offset="1.0" stop-color="#7e491e"/>
    </linearGradient>
    <linearGradient gradientTransform="matrix(0.1221, -0.0083, 0.0023, 0.012, 22.45, 17.35)" gradientUnits="userSpaceOnUse" id="gradient1" spreadMethod="pad" x1="-819.2" x2="819.2">
      <stop offset="0.0" stop-color="#b17536"/>
      <stop offset="1.0" stop-color="#ce9744"/>
    </linearGradient>
    <linearGradient gradientTransform="matrix(0.0353, 0.0028, -0.0026, 0.0102, 37.1, 31.1)" gradientUnits="userSpaceOnUse" id="gradient2" spreadMethod="pad" x1="-819.2" x2="819.2">
      <stop offset="0.0" stop-color="#b17536"/>
      <stop offset="1.0" stop-color="#ce9744"/>
    </linearGradient>
    <linearGradient gradientTransform="matrix(0.0212, 0.0129, -0.0082, 0.0041, 34.1, 31.55)" gradientUnits="userSpaceOnUse" id="gradient3" spreadMethod="pad" x1="-819.2" x2="819.2">
      <stop offset="0.0" stop-color="#b17536"/>
      <stop offset="1.0" stop-color="#ce9744"/>
    </linearGradient>
    <linearGradient gradientTransform="matrix(-0.1425, 0.017, -0.0033, -0.0099, 64.5, 30.9)" gradientUnits="userSpaceOnUse" id="gradient4" spreadMethod="pad" x1="-819.2" x2="819.2">
      <stop offset="0.0" stop-color="#b17536"/>
      <stop offset="1.0" stop-color="#ce9744"/>
    </linearGradient>
    <linearGradient gradientTransform="matrix(0.0393, 0.0, 0.0, 0.0089, 70.45, 15.3)" gradientUnits="userSpaceOnUse" id="gradient5" spreadMethod="pad" x1="-819.2" x2="819.2">
      <stop offset="0.0" stop-color="#b17536"/>
      <stop offset="1.0" stop-color="#ce9744"/>
    </linearGradient>
  </defs>
</svg>
