<?xml version="1.0" encoding="UTF-8" standalone="no"?>
<svg xmlns:ffdec="https://www.free-decompiler.com/flash" xmlns:xlink="http://www.w3.org/1999/xlink" ffdec:objectType="shape" height="32.9px" width="58.65px" xmlns="http://www.w3.org/2000/svg">
  <g transform="matrix(1.0, 0.0, 0.0, 1.0, 0.0, 6.65)">
    <path d="M9.75 -2.3 Q10.4 0.65 10.6 5.4 L7.05 6.0 6.8 1.4 Q6.5 -1.5 5.4 -1.6 4.3 -1.4 4.05 1.45 3.8 4.35 3.8 9.75 3.8 15.25 4.05 18.1 4.3 20.9 5.4 21.15 6.5 21.05 6.8 18.15 L7.05 13.45 10.6 13.65 Q10.45 18.75 9.75 21.85 8.85 26.0 5.3 26.2 1.7 25.9 0.85 21.8 0.0 17.65 0.0 9.75 0.0 1.9 0.85 -2.25 1.7 -6.35 5.3 -6.65 8.85 -6.5 9.75 -2.3 M54.15 0.35 Q57.5 1.3 57.8 8.95 57.65 13.5 55.4 15.35 L58.65 25.7 55.05 26.15 52.15 16.7 51.3 16.75 51.3 25.95 47.65 25.85 47.7 0.35 50.9 0.1 54.15 0.35 M51.3 3.4 L51.25 13.05 Q52.6 12.9 53.2 12.35 53.95 11.65 54.1 8.6 54.05 5.7 53.8 4.85 53.2 3.0 51.3 3.4 M42.2 25.5 L41.65 21.9 38.45 22.0 38.1 26.2 34.45 26.25 37.6 0.4 42.0 0.0 45.6 25.4 42.2 25.5 M33.2 4.2 L28.75 4.25 28.7 9.3 32.25 9.35 32.15 13.4 28.6 13.4 28.55 21.7 33.15 21.75 33.0 25.95 24.85 25.85 25.25 0.15 33.1 0.2 33.2 4.2 M38.9 18.3 L41.15 18.3 39.75 9.6 38.9 18.3 M16.95 0.2 L16.9 21.95 21.95 21.5 22.05 25.5 13.4 25.85 13.5 0.15 16.95 0.2" fill="#672208" fill-rule="evenodd" stroke="none"/>
  </g>
</svg>
