<?xml version="1.0" encoding="UTF-8" standalone="no"?>
<svg xmlns:ffdec="https://www.free-decompiler.com/flash" xmlns:xlink="http://www.w3.org/1999/xlink" ffdec:objectType="shape" height="32.5px" width="58.65px" xmlns="http://www.w3.org/2000/svg">
  <g transform="matrix(1.0, 0.0, 0.0, 1.0, 0.0, 6.25)">
    <path d="M51.3 -2.1 L51.25 9.9 Q52.6 9.7 53.2 9.0 53.95 8.15 54.1 4.35 54.05 0.75 53.8 -0.3 53.2 -2.6 51.3 -2.1 M50.9 -6.25 L54.15 -5.9 Q57.5 -4.75 57.8 4.8 57.65 10.45 55.4 12.75 L58.65 25.6 55.05 26.15 52.15 14.4 51.3 14.5 51.3 25.95 47.65 25.8 47.7 -5.9 50.9 -6.25 M42.2 25.5 L41.65 21.9 38.45 22.0 38.1 26.2 34.45 26.25 37.6 0.4 42.0 0.0 45.6 25.4 42.2 25.5 M33.2 4.2 L28.75 4.25 28.7 9.3 32.25 9.35 32.15 13.4 28.6 13.4 28.55 21.7 33.15 21.75 33.0 25.95 24.85 25.85 25.25 0.15 33.1 0.2 33.2 4.2 M38.9 18.3 L41.15 18.3 39.75 9.6 38.9 18.3 M16.95 0.2 L16.9 21.95 21.95 21.5 22.05 25.5 13.4 25.85 13.5 0.15 16.95 0.2 M4.05 6.55 Q3.8 8.85 3.8 13.15 3.8 17.5 4.05 19.75 4.3 22.0 5.4 22.2 6.5 22.1 6.8 19.8 L7.05 16.1 10.6 16.25 Q10.45 20.3 9.75 22.75 8.85 26.05 5.3 26.2 1.7 25.95 0.85 22.7 0.0 19.45 0.0 13.15 0.0 6.9 0.85 3.6 1.7 0.35 5.3 0.1 8.85 0.2 9.75 3.55 10.4 5.9 10.6 9.7 L7.05 10.15 6.8 6.5 Q6.5 4.2 5.4 4.15 4.3 4.3 4.05 6.55" fill="#672208" fill-rule="evenodd" stroke="none"/>
  </g>
</svg>
