<?xml version="1.0" encoding="UTF-8" standalone="no"?>
<svg xmlns:ffdec="https://www.free-decompiler.com/flash" xmlns:xlink="http://www.w3.org/1999/xlink" ffdec:objectType="shape" height="33.7px" width="94.45px" xmlns="http://www.w3.org/2000/svg">
  <g transform="matrix(1.0, 0.0, 0.0, 1.0, -94.2, -106.05)">
    <path d="M176.05 124.0 Q176.05 125.85 172.3 126.75 168.45 127.7 168.45 128.65 168.45 130.9 178.55 131.4 188.65 131.9 188.65 134.1 188.65 135.4 183.45 136.75 L177.8 138.0 166.7 138.0 163.35 137.15 159.3 137.2 149.75 138.85 143.5 138.85 138.45 138.1 134.45 138.95 130.35 139.75 Q128.35 139.75 126.7 138.85 125.1 137.95 123.35 137.95 L117.6 138.4 Q114.15 138.4 113.15 137.15 L112.7 135.85 113.05 133.95 101.65 133.3 Q99.6 132.75 99.6 131.25 99.6 129.95 101.55 129.55 105.5 128.9 109.05 127.25 L109.1 126.95 Q109.1 126.65 107.15 126.25 L104.2 125.6 100.5 125.55 95.6 123.85 Q94.2 123.15 94.2 121.9 94.2 120.55 95.55 119.45 97.0 118.15 99.85 117.75 102.55 117.35 104.6 115.7 106.45 114.25 108.45 114.2 L112.4 114.05 Q118.75 113.45 120.75 110.9 L122.15 108.75 Q123.0 107.55 124.35 106.9 128.2 104.95 134.8 107.6 138.25 108.95 142.85 111.35 L146.15 112.6 152.95 113.6 Q157.5 113.9 159.7 115.0 161.0 115.65 161.85 117.0 L162.1 118.05 Q162.15 118.6 162.5 118.9 163.6 119.7 170.7 120.35 174.35 120.7 175.5 121.85 176.05 122.5 176.05 124.0" fill="#8fa1a1" fill-rule="evenodd" stroke="none"/>
  </g>
</svg>
