<?xml version="1.0" encoding="UTF-8" standalone="no"?>
<svg xmlns:ffdec="https://www.free-decompiler.com/flash" xmlns:xlink="http://www.w3.org/1999/xlink" ffdec:objectType="shape" height="37.7px" width="81.05px" xmlns="http://www.w3.org/2000/svg">
  <g transform="matrix(1.0, 0.0, 0.0, 1.0, -92.55, -175.65)">
    <path d="M167.9 196.35 Q167.9 198.25 165.3 200.85 162.35 203.8 158.2 205.2 151.45 207.5 145.85 211.1 142.45 213.35 137.8 213.35 131.75 213.35 128.2 209.6 124.7 205.8 112.4 207.7 100.15 209.6 96.35 206.55 92.55 203.5 92.55 201.55 92.55 196.85 101.7 195.1 L108.75 193.95 Q112.4 193.3 113.45 192.45 112.2 189.95 110.35 189.1 108.85 188.45 108.85 187.55 108.85 185.5 112.1 182.65 116.45 178.9 123.15 178.9 L129.6 179.55 136.85 180.2 Q140.35 180.2 142.65 178.95 L145.85 176.65 Q149.4 174.2 158.2 177.85 161.5 179.5 165.3 179.45 168.9 179.4 171.45 180.8 172.15 181.2 172.9 182.55 173.6 183.9 173.6 184.5 173.6 186.6 171.15 188.0 168.5 189.55 162.1 190.8 L160.65 191.0 166.55 194.15 Q167.9 194.85 167.9 196.35" fill="#8fa1a1" fill-rule="evenodd" stroke="none"/>
  </g>
</svg>
