<?xml version="1.0" encoding="UTF-8" standalone="no"?>
<svg xmlns:ffdec="https://www.free-decompiler.com/flash" xmlns:xlink="http://www.w3.org/1999/xlink" ffdec:objectType="shape" height="31.7px" width="72.35px" xmlns="http://www.w3.org/2000/svg">
  <g transform="matrix(1.0, 0.0, 0.0, 1.0, -212.65, -227.7)">
    <path d="M273.25 246.65 Q270.85 247.05 270.45 247.8 272.8 249.2 279.2 251.4 282.85 252.65 282.85 254.75 282.85 255.95 279.4 257.45 274.85 259.4 267.7 259.4 L264.3 259.25 261.95 258.9 260.1 258.5 258.45 258.15 256.0 258.3 253.65 258.55 245.6 258.55 Q241.05 258.2 239.65 257.05 239.2 256.7 238.85 255.25 L226.05 253.75 Q224.15 253.25 224.15 251.8 224.15 250.85 224.75 250.45 225.5 249.95 228.6 249.1 L216.0 246.8 Q212.65 246.2 212.65 244.85 212.65 242.55 219.65 241.05 226.55 239.5 226.55 238.15 226.55 237.7 222.4 236.75 218.2 235.8 218.2 233.9 218.2 232.5 220.35 231.55 222.55 230.6 228.25 229.45 241.4 226.85 249.2 228.15 251.3 228.5 253.7 229.35 L256.4 230.05 257.35 229.75 262.65 229.4 Q268.0 229.4 270.15 230.75 271.25 231.45 271.25 232.2 271.25 233.05 270.15 233.95 L267.7 235.6 Q270.6 236.55 280.95 238.9 285.0 239.75 285.0 242.05 285.0 245.0 278.2 245.95 L273.25 246.65" fill="#8fa1a1" fill-rule="evenodd" stroke="none"/>
  </g>
</svg>
