<?xml version="1.0" encoding="UTF-8" standalone="no"?>
<svg xmlns:ffdec="https://www.free-decompiler.com/flash" xmlns:xlink="http://www.w3.org/1999/xlink" ffdec:objectType="shape" height="37.7px" width="81.05px" xmlns="http://www.w3.org/2000/svg">
  <g transform="matrix(1.0, 0.0, 0.0, 1.0, -315.5, -384.55)">
    <path d="M390.85 405.25 Q390.85 407.15 388.25 409.75 385.3 412.7 381.15 414.1 374.4 416.4 368.8 420.0 365.4 422.25 360.75 422.25 354.7 422.25 351.15 418.5 347.65 414.7 335.35 416.6 323.1 418.5 319.3 415.45 315.5 412.4 315.5 410.45 315.5 405.75 324.65 404.0 L331.7 402.85 Q335.35 402.2 336.4 401.35 335.15 398.85 333.3 398.0 331.8 397.35 331.8 396.45 331.8 394.4 335.05 391.55 339.4 387.8 346.1 387.8 L352.55 388.45 359.8 389.1 Q363.3 389.1 365.6 387.85 L368.8 385.55 Q372.35 383.1 381.15 386.75 384.45 388.4 388.25 388.35 391.85 388.3 394.4 389.7 395.1 390.1 395.85 391.45 L396.55 393.4 Q396.55 395.5 394.1 396.9 391.45 398.45 385.05 399.7 L383.6 399.9 Q386.65 401.75 389.5 403.05 390.85 403.75 390.85 405.25" fill="#8fa1a1" fill-rule="evenodd" stroke="none"/>
  </g>
</svg>
