<?xml version="1.0" encoding="UTF-8" standalone="no"?>
<svg xmlns:ffdec="https://www.free-decompiler.com/flash" xmlns:xlink="http://www.w3.org/1999/xlink" ffdec:objectType="shape" height="31.7px" width="72.35px" xmlns="http://www.w3.org/2000/svg">
  <g transform="matrix(1.0, 0.0, 0.0, 1.0, -504.9, -309.1)">
    <path d="M516.65 328.05 Q519.05 328.45 519.45 329.2 517.1 330.6 510.7 332.8 507.05 334.05 507.05 336.15 507.05 337.35 510.5 338.85 515.05 340.8 522.2 340.8 L525.6 340.65 527.95 340.3 529.8 339.9 531.45 339.55 533.9 339.7 536.25 339.95 544.3 339.95 Q548.85 339.6 550.25 338.45 550.7 338.1 551.05 336.65 L563.85 335.15 Q565.75 334.65 565.75 333.2 565.75 332.25 565.15 331.85 564.4 331.35 561.3 330.5 L573.9 328.2 Q577.25 327.6 577.25 326.25 577.25 323.95 570.25 322.45 563.35 320.9 563.35 319.55 563.35 319.1 567.5 318.15 571.7 317.2 571.7 315.3 571.7 313.9 569.55 312.95 567.35 312.0 561.65 310.85 548.5 308.25 540.7 309.55 538.6 309.9 536.2 310.75 L533.5 311.45 Q532.8 311.45 532.55 311.15 L527.25 310.8 Q521.9 310.8 519.75 312.15 518.65 312.85 518.65 313.6 518.65 314.45 519.75 315.35 520.5 316.0 522.2 317.0 L508.95 320.3 Q504.9 321.15 504.9 323.45 504.9 326.4 511.7 327.35 L516.65 328.05" fill="#8fa1a1" fill-rule="evenodd" stroke="none"/>
  </g>
</svg>
