<?xml version="1.0" encoding="UTF-8" standalone="no"?>
<svg xmlns:ffdec="https://www.free-decompiler.com/flash" xmlns:xlink="http://www.w3.org/1999/xlink" ffdec:objectType="shape" height="99.85px" width="222.45px" xmlns="http://www.w3.org/2000/svg">
  <g transform="matrix(1.0, 0.0, 0.0, 1.0, 116.9, 44.35)">
    <path d="M-107.3 -26.85 Q-106.9 -31.25 -104.35 -33.4 L38.8 -33.4 56.7 -35.4 63.9 -34.85 48.95 -33.4 79.8 -33.4 Q85.95 -32.45 90.1 -31.25 L94.0 -31.25 Q99.85 -30.05 102.65 -28.2 L100.55 25.15 96.1 27.3 Q98.95 28.2 100.95 29.85 L102.95 39.05 Q103.35 41.6 103.05 43.6 L102.65 45.45 103.05 45.45 Q102.55 52.3 97.2 54.55 L77.8 55.5 Q69.4 55.6 56.05 55.2 L30.5 54.0 7.9 53.6 Q-30.3 54.7 -78.0 55.35 -94.2 55.5 -100.6 52.0 L-101.4 51.9 Q-104.75 51.1 -107.0 49.85 -111.05 47.75 -111.55 44.4 L-111.3 44.4 -111.55 44.15 Q-111.55 43.75 -111.85 43.35 -112.65 40.65 -113.05 37.6 L-113.45 35.55 -113.7 34.5 -114.25 29.95 -114.35 28.9 Q-114.9 22.1 -114.65 14.6 L-114.65 13.4 -114.25 7.9 -114.9 7.9 -114.25 7.8 -114.1 7.8 -114.1 7.25 -114.1 6.7 -113.95 4.15 -113.7 4.15 -113.7 3.65 -113.7 2.95 -113.15 -1.45 -113.05 -1.45 -113.05 -2.65 -111.05 -14.15 -110.9 -14.15 -110.65 -15.2 -110.5 -15.2 -109.0 -22.3 Q-108.2 -24.05 -107.55 -25.75 L-107.8 -25.75 -107.55 -26.55 -107.3 -26.85" fill="#000000" fill-opacity="0.2" fill-rule="evenodd" stroke="none"/>
    <path d="M105.0 -39.15 L102.9 14.2 98.4 16.25 Q101.3 17.15 103.25 18.8 L105.35 28.1 Q105.7 30.55 105.45 32.6 L105.1 34.55 105.45 34.55 Q104.9 41.3 99.45 43.55 L79.75 44.55 Q71.1 44.65 57.5 44.25 L31.4 43.0 8.45 42.6 Q-30.5 43.75 -79.2 44.35 -105.7 44.65 -106.75 35.35 L-107.0 34.55 -106.4 34.55 -106.75 33.3 -107.0 32.6 Q-114.25 8.8 -104.35 -32.8 L-102.5 -37.0 Q-101.55 -41.9 -92.35 -42.4 L-92.35 -42.3 96.25 -42.3 Q102.25 -40.95 105.0 -39.15" fill="url(#gradient0)" fill-rule="evenodd" stroke="none"/>
    <path d="M98.4 -39.75 L96.35 13.9 91.85 15.95 Q94.6 16.85 96.7 18.4 L98.75 27.8 Q99.9 38.4 92.9 41.3 L73.15 42.4 Q64.5 42.5 50.9 42.0 L24.85 40.9 1.9 40.35 Q-37.1 41.5 -85.9 42.2 -112.3 42.5 -113.3 33.1 -120.95 9.1 -110.9 -33.3 L-109.05 -37.6 Q-108.85 -42.2 -106.05 -44.35 L81.8 -44.35 Q94.15 -42.6 98.4 -39.75" fill="#c58c3f" fill-rule="evenodd" stroke="none"/>
    <path d="M-115.6 -2.9 L-71.9 -4.5 Q-31.9 -4.5 -3.75 0.0 23.7 4.3 24.05 10.4 23.7 16.5 -3.75 20.85 -31.9 25.4 -71.9 25.4 L-115.05 23.8 -115.4 23.8 -115.95 19.25 -71.75 20.75 Q-37.9 20.75 -14.15 18.0 10.7 15.2 10.35 11.0 10.7 6.85 -14.15 4.0 -37.9 1.3 -71.75 1.3 L-116.35 2.8 -115.95 -2.85 -115.6 -2.9" fill="url(#gradient1)" fill-rule="evenodd" stroke="none"/>
    <path d="M-116.15 3.85 L-71.75 2.35 Q-38.3 2.35 -14.9 5.1 7.8 7.6 7.95 11.0 7.8 14.45 -14.9 16.95 -38.3 19.6 -71.75 19.6 L-115.8 18.15 -116.15 18.15 Q-116.7 11.5 -116.35 3.85 L-116.15 3.85" fill="url(#gradient2)" fill-rule="evenodd" stroke="none"/>
    <path d="M-102.8 41.2 Q-112.3 39.15 -113.2 33.75 -88.2 35.35 -63.7 34.9 -36.45 34.3 12.9 25.0 50.55 17.8 94.25 17.7 L95.3 17.7 96.8 18.8 98.8 28.15 Q100.1 38.7 92.95 41.6 L73.2 42.65 Q64.6 42.8 50.9 42.35 L24.95 41.15 1.95 40.7 Q-37.0 41.85 -85.8 42.5 -96.2 42.6 -102.8 41.2" fill="url(#gradient3)" fill-rule="evenodd" stroke="none"/>
    <path d="M-114.5 -12.1 L-68.45 -14.6 Q-26.95 -16.0 16.9 -7.7 53.3 -0.85 96.95 -0.25 L96.8 7.35 Q53.3 7.0 19.85 -0.4 -23.65 -10.0 -64.25 -10.0 L-115.4 -7.6 -114.85 -12.1 -114.5 -12.1 M-115.6 -6.55 L-115.25 -6.55 -64.25 -8.9 Q-24.2 -8.9 18.75 0.6 52.55 8.05 96.6 8.45 L96.4 14.2 91.85 16.25 92.95 16.65 Q49.45 16.8 12.0 23.95 -36.8 33.25 -63.7 33.75 -88.2 34.2 -113.05 32.6 L-113.4 32.6 Q-114.5 28.95 -115.25 24.85 L-71.9 26.45 Q-31.35 26.45 -2.85 21.9 26.6 17.2 26.4 10.4 26.6 3.65 -2.85 -1.0 -31.35 -5.55 -71.9 -5.55 L-115.8 -3.95 -115.6 -6.55 M97.35 -10.65 Q67.55 -11.2 46.5 -13.25 23.7 -15.55 23.3 -18.25 23.7 -21.1 46.5 -23.3 L98.05 -25.9 97.35 -10.65" fill="#c58c3f" fill-rule="evenodd" stroke="none"/>
    <path d="M97.15 -5.55 Q60.25 -6.5 34.45 -10.05 7.4 -13.85 7.25 -18.8 7.4 -23.65 34.45 -27.45 60.4 -31.15 98.25 -32.05 L98.05 -26.95 45.95 -24.35 Q20.55 -21.85 20.95 -18.25 20.55 -14.7 45.95 -12.2 L97.35 -9.5 97.15 -5.55" fill="url(#gradient4)" fill-rule="evenodd" stroke="none"/>
    <path d="M-112.65 -24.8 L-75.0 -23.5 Q-33.35 -22.4 24.75 -30.65 59.3 -35.6 98.45 -37.35 L98.25 -33.1 Q60.05 -32.2 33.75 -28.55 4.5 -24.45 4.85 -18.8 4.5 -13.15 33.75 -9.05 59.7 -5.4 97.15 -4.4 L97.15 -1.4 Q53.85 -1.9 18.0 -8.7 -26.6 -17.15 -68.6 -15.75 L-114.7 -13.25 -112.65 -24.8" fill="url(#gradient5)" fill-rule="evenodd" stroke="none"/>
    <path d="M96.8 -0.6 L97.5 -0.5 Q53.45 -1.1 16.65 -7.95 -27.15 -16.25 -68.7 -14.9 L-114.95 -12.45 -114.95 -13.6 -68.7 -16.05 Q-26.6 -17.35 17.8 -9.0 53.65 -2.25 96.9 -1.75 L96.8 -0.6 M98.2 -37.7 Q59.35 -35.95 24.95 -31.05 -33.4 -22.7 -75.05 -23.8 L-112.75 -25.15 -112.5 -26.15 -75.05 -24.95 Q-34.0 -23.8 23.45 -32.1 58.5 -37.1 98.4 -38.7 L98.2 -37.7 M96.9 -4.8 Q59.35 -5.8 33.4 -9.4 4.1 -13.6 4.45 -19.1 4.1 -24.6 33.4 -28.7 59.8 -32.4 98.1 -33.3 L98.1 -32.4 Q60.6 -31.45 34.65 -27.9 7.45 -24.0 7.45 -19.1 7.45 -14.1 34.65 -10.3 60.25 -6.75 96.9 -5.7 L96.9 -4.8 M97.15 -10.0 Q66.95 -10.5 45.6 -12.65 20.1 -15.1 20.55 -18.6 20.1 -22.05 45.6 -24.6 L97.85 -27.15 97.85 -26.25 46.5 -23.7 Q23.7 -21.45 23.25 -18.6 23.7 -15.75 46.5 -13.5 67.5 -11.45 97.25 -10.85 L97.15 -10.0 M96.35 8.2 Q52.3 7.75 18.5 0.3 -24.4 -9.2 -64.3 -9.2 L-115.65 -6.85 -115.65 -7.95 -64.3 -10.3 Q-23.85 -10.3 19.65 -0.7 53.1 6.65 96.6 7.05 L96.35 8.2 M95.1 17.4 Q50.7 17.4 12.75 24.65 -36.5 34.05 -63.75 34.65 -88.4 35.05 -113.2 33.4 L-113.45 33.1 -113.65 32.3 Q-88.65 33.95 -63.95 33.4 -37.1 32.9 11.8 23.6 49.2 16.45 92.75 16.35 94.05 16.75 95.1 17.4 M35.9 -43.85 L45.85 -43.85 24.05 -40.95 Q-34.3 -32.7 -77.1 -35.05 L-109.65 -36.8 -109.3 -37.6 -109.05 -37.8 -76.9 -36.05 Q-34.9 -33.8 22.55 -42.0 L35.9 -43.85 M10.3 10.75 Q10.45 14.9 -14.35 17.7 -38.15 20.35 -71.8 20.35 L-116.2 18.9 -116.3 17.9 -71.8 19.3 Q-38.45 19.3 -14.95 16.65 7.55 14.1 7.75 10.75 7.55 7.25 -14.95 4.8 -38.45 2.05 -71.8 2.05 L-116.55 3.6 -116.55 2.45 -71.8 1.05 Q-38.15 1.05 -14.35 3.7 10.45 6.55 10.3 10.75 M26.25 10.1 Q26.55 16.85 -3.05 21.55 -31.55 26.15 -71.9 26.15 L-115.4 24.55 -115.65 23.5 -71.9 25.15 Q-32.15 25.15 -3.75 20.55 23.7 16.15 23.8 10.1 23.7 4.0 -3.75 -0.3 -32.15 -4.8 -71.9 -4.8 L-116.9 -3.05 -116.0 -3.15 -116.0 -4.3 -71.9 -5.8 Q-31.55 -5.8 -3.05 -1.3 26.55 3.4 26.25 10.1" fill="#ae7528" fill-rule="evenodd" stroke="none"/>
  </g>
  <defs>
    <linearGradient gradientTransform="matrix(0.1315, 0.0, 0.0, 0.0556, -2.25, -0.9)" gradientUnits="userSpaceOnUse" id="gradient0" spreadMethod="pad" x1="-819.2" x2="819.2">
      <stop offset="0.0" stop-color="#231204"/>
      <stop offset="0.5568627450980392" stop-color="#4f2909"/>
      <stop offset="1.0" stop-color="#7e491e"/>
    </linearGradient>
    <linearGradient gradientTransform="matrix(0.0857, 0.005, -0.0062, 0.0185, -47.25, 9.55)" gradientUnits="userSpaceOnUse" id="gradient1" spreadMethod="pad" x1="-819.2" x2="819.2">
      <stop offset="0.0" stop-color="#b17536"/>
      <stop offset="1.0" stop-color="#ce9744"/>
    </linearGradient>
    <linearGradient gradientTransform="matrix(0.0513, 0.0235, -0.0199, 0.0074, -54.55, 10.35)" gradientUnits="userSpaceOnUse" id="gradient2" spreadMethod="pad" x1="-819.2" x2="819.2">
      <stop offset="0.0" stop-color="#b17536"/>
      <stop offset="1.0" stop-color="#ce9744"/>
    </linearGradient>
    <linearGradient gradientTransform="matrix(-0.3455, 0.0308, -0.008, -0.0179, 19.3, 9.2)" gradientUnits="userSpaceOnUse" id="gradient3" spreadMethod="pad" x1="-819.2" x2="819.2">
      <stop offset="0.0" stop-color="#b17536"/>
      <stop offset="1.0" stop-color="#ce9744"/>
    </linearGradient>
    <linearGradient gradientTransform="matrix(0.0953, 0.0, 0.0, 0.0162, 33.75, -19.1)" gradientUnits="userSpaceOnUse" id="gradient4" spreadMethod="pad" x1="-819.2" x2="819.2">
      <stop offset="0.0" stop-color="#b17536"/>
      <stop offset="1.0" stop-color="#ce9744"/>
    </linearGradient>
    <linearGradient gradientTransform="matrix(0.2961, -0.015, 0.0056, 0.0217, -82.7, -15.4)" gradientUnits="userSpaceOnUse" id="gradient5" spreadMethod="pad" x1="-819.2" x2="819.2">
      <stop offset="0.0" stop-color="#b17536"/>
      <stop offset="1.0" stop-color="#ce9744"/>
    </linearGradient>
  </defs>
</svg>
