<?xml version="1.0" encoding="UTF-8" standalone="no"?>
<svg xmlns:ffdec="https://www.free-decompiler.com/flash" xmlns:xlink="http://www.w3.org/1999/xlink" ffdec:objectType="shape" height="33.3px" width="56.1px" xmlns="http://www.w3.org/2000/svg">
  <g transform="matrix(1.0, 0.0, 0.0, 1.0, 14.6, 2.1)">
    <path d="M0.55 1.85 L5.9 -1.35 Q7.75 -2.5 11.1 -1.9 14.1 -1.35 16.4 -0.35 26.0 -4.55 31.35 4.7 36.75 13.9 40.2 17.7 43.65 21.45 37.8 22.8 31.85 24.15 28.75 26.35 L25.8 28.75 Q21.25 33.1 15.15 29.7 10.25 27.0 4.85 27.4 L-6.8 26.95 Q-17.3 26.4 -13.7 23.05 -10.15 19.65 -6.1 17.4 -2.0 15.1 -3.45 13.95 L-4.7 10.8 Q-5.2 9.15 -4.1 6.5 -3.0 3.85 0.55 1.85" fill="#85532d" fill-rule="evenodd" stroke="none"/>
  </g>
</svg>
