<?xml version="1.0" encoding="UTF-8" standalone="no"?>
<svg xmlns:ffdec="https://www.free-decompiler.com/flash" xmlns:xlink="http://www.w3.org/1999/xlink" ffdec:objectType="shape" height="28.45px" width="38.4px" xmlns="http://www.w3.org/2000/svg">
  <g transform="matrix(1.0, 0.0, 0.0, 1.0, 3.5, 0.2)">
    <path d="M8.1 -0.2 Q12.9 -0.1 17.2 2.15 L18.45 2.25 Q22.2 1.1 25.7 1.35 27.8 1.55 28.5 3.65 30.6 9.9 34.5 15.25 35.15 16.1 34.8 17.25 33.3 21.8 28.35 22.0 24.5 22.15 25.6 24.0 26.7 25.85 22.35 27.55 17.9 29.15 15.75 27.05 13.55 24.95 10.85 23.85 8.1 22.75 4.1 24.2 0.0 25.6 -2.5 22.05 -5.0 18.55 -1.1 15.75 2.8 12.95 -0.95 10.1 -4.65 7.25 0.8 3.9 L8.1 -0.2" fill="#af8858" fill-rule="evenodd" stroke="none"/>
  </g>
</svg>
