<?xml version="1.0" encoding="UTF-8" standalone="no"?>
<svg xmlns:ffdec="https://www.free-decompiler.com/flash" xmlns:xlink="http://www.w3.org/1999/xlink" ffdec:objectType="shape" height="8.15px" width="46.85px" xmlns="http://www.w3.org/2000/svg">
  <g transform="matrix(1.0, 0.0, 0.0, 1.0, 0.65, -25.7)">
    <path d="M39.75 33.35 Q35.65 32.0 31.4 31.2 L29.1 31.25 29.15 31.55 30.15 32.3 Q30.6 32.5 30.05 33.05 28.4 33.65 26.15 32.35 24.85 31.6 23.45 31.9 L23.45 31.95 Q24.65 33.4 26.25 33.2 23.1 34.25 20.35 32.3 17.6 30.35 17.5 32.05 17.4 33.7 16.9 33.85 16.45 33.95 14.55 32.3 12.65 30.6 9.6 32.3 6.55 34.0 1.75 31.95 -0.15 31.15 -0.65 29.6 L10.35 30.35 Q12.5 30.4 14.5 29.4 L17.8 27.35 Q19.25 26.1 19.95 27.65 19.75 26.6 20.3 26.2 20.75 25.8 21.25 25.75 L21.85 25.75 23.0 26.1 Q24.0 26.5 24.6 27.4 26.25 26.05 29.75 28.1 33.2 30.1 37.75 31.25 L46.2 31.75 Q42.3 34.15 39.75 33.35" fill="#ffffff" fill-rule="evenodd" stroke="none"/>
  </g>
</svg>
