<?xml version="1.0" encoding="UTF-8" standalone="no"?>
<svg xmlns:ffdec="https://www.free-decompiler.com/flash" xmlns:xlink="http://www.w3.org/1999/xlink" ffdec:objectType="shape" height="5.3px" width="26.5px" xmlns="http://www.w3.org/2000/svg">
  <g transform="matrix(1.0, 0.0, 0.0, 1.0, -24.1, -26.85)">
    <path d="M50.3 29.8 L50.5 29.8 50.6 29.95 50.6 30.1 50.45 30.25 45.15 31.65 42.1 32.15 Q38.3 32.15 32.45 29.75 26.7 27.35 25.65 27.35 L24.95 27.45 24.45 27.6 24.3 27.6 24.15 27.5 24.15 27.3 24.25 27.15 24.85 27.0 24.85 26.95 25.65 26.85 Q26.75 26.85 32.65 29.3 38.4 31.65 42.1 31.65 L45.0 31.2 50.3 29.8" fill="#806340" fill-opacity="0.96862745" fill-rule="evenodd" stroke="none"/>
  </g>
</svg>
