<?xml version="1.0" encoding="UTF-8" standalone="no"?>
<svg xmlns:ffdec="https://www.free-decompiler.com/flash" xmlns:xlink="http://www.w3.org/1999/xlink" ffdec:objectType="shape" height="3.2px" width="17.75px" xmlns="http://www.w3.org/2000/svg">
  <g transform="matrix(1.0, 0.0, 0.0, 1.0, -23.85, -30.5)">
    <path d="M41.4 33.2 L41.55 33.3 41.6 33.5 41.55 33.65 41.35 33.7 Q37.15 33.3 33.85 32.0 30.7 30.7 29.85 31.1 29.55 31.2 29.4 31.35 L29.45 31.35 29.5 31.35 30.4 32.2 30.6 32.85 30.1 33.25 29.2 33.5 26.65 32.95 Q24.4 32.2 23.9 31.6 L23.85 31.4 23.95 31.25 24.15 31.2 24.3 31.3 Q24.75 31.85 26.75 32.45 L29.2 33.0 29.9 32.8 29.95 32.8 30.1 32.7 30.0 32.5 29.2 31.75 Q28.7 31.5 29.0 31.15 29.1 30.9 29.65 30.65 30.6 30.15 34.05 31.5 37.25 32.8 41.4 33.2" fill="#806340" fill-opacity="0.96862745" fill-rule="evenodd" stroke="none"/>
  </g>
</svg>
