<?xml version="1.0" encoding="UTF-8" standalone="no"?>
<svg xmlns:ffdec="https://www.free-decompiler.com/flash" xmlns:xlink="http://www.w3.org/1999/xlink" ffdec:objectType="shape" height="36.85px" width="62.1px" xmlns="http://www.w3.org/2000/svg">
  <g transform="matrix(1.0, 0.0, 0.0, 1.0, 17.6, 3.9)">
    <path d="M-0.85 0.5 L5.1 -3.05 Q7.15 -4.35 10.85 -3.65 14.15 -3.1 16.7 -1.95 27.3 -6.6 33.25 3.6 39.2 13.85 43.05 18.0 46.9 22.2 40.4 23.7 33.8 25.2 30.35 27.6 L27.1 30.25 Q22.05 35.05 15.3 31.3 9.85 28.3 3.9 28.75 L-8.95 28.25 Q-20.6 27.65 -16.6 23.95 -12.65 20.2 -8.15 17.7 -3.65 15.15 -5.25 13.9 -6.1 12.25 -6.6 10.4 -7.2 8.55 -5.95 5.65 -4.75 2.7 -0.85 0.5" fill="#693308" fill-rule="evenodd" stroke="none"/>
  </g>
</svg>
