<?xml version="1.0" encoding="UTF-8" standalone="no"?>
<svg xmlns:ffdec="https://www.free-decompiler.com/flash" xmlns:xlink="http://www.w3.org/1999/xlink" ffdec:objectType="shape" height="31.5px" width="42.5px" xmlns="http://www.w3.org/2000/svg">
  <g transform="matrix(1.0, 0.0, 0.0, 1.0, 5.3, 1.75)">
    <path d="M7.5 -1.75 Q12.85 -1.65 17.6 0.85 L18.95 0.95 Q23.15 -0.35 27.0 0.0 29.3 0.15 30.1 2.5 32.45 9.4 36.75 15.35 37.45 16.3 37.05 17.55 35.45 22.6 29.95 22.85 25.7 23.0 26.9 25.05 28.15 27.1 23.3 28.95 18.4 30.75 15.95 28.4 13.55 26.05 10.55 24.9 7.5 23.65 3.05 25.25 -1.45 26.8 -4.2 22.9 -7.0 19.0 -2.7 15.9 1.6 12.8 -2.5 9.65 -6.6 6.5 -0.55 2.8 5.45 -0.95 7.5 -1.75" fill="#af8858" fill-rule="evenodd" stroke="none"/>
  </g>
</svg>
