<?xml version="1.0" encoding="UTF-8" standalone="no"?>
<svg xmlns:ffdec="https://www.free-decompiler.com/flash" xmlns:xlink="http://www.w3.org/1999/xlink" ffdec:objectType="shape" height="2.6px" width="14.7px" xmlns="http://www.w3.org/2000/svg">
  <g transform="matrix(1.0, 0.0, 0.0, 1.0, -11.95, -31.3)">
    <path d="M12.4 32.4 L12.25 32.55 12.05 32.5 11.95 32.35 12.0 32.15 12.35 31.75 Q12.8 31.4 13.35 31.4 13.95 31.4 15.45 32.35 16.75 33.2 17.3 33.25 17.6 33.2 17.6 32.5 17.6 31.25 18.4 31.3 19.25 31.25 21.4 32.65 23.35 33.85 26.35 33.1 L26.5 33.1 26.65 33.25 26.6 33.45 26.45 33.55 Q23.25 34.4 21.15 33.05 19.15 31.8 18.4 31.75 18.1 31.8 18.1 32.5 L18.1 32.55 Q18.1 33.75 17.3 33.7 16.65 33.75 15.2 32.8 13.85 31.9 13.35 31.9 L12.65 32.15 12.4 32.4" fill="#806340" fill-opacity="0.96862745" fill-rule="evenodd" stroke="none"/>
  </g>
</svg>
