<?xml version="1.0" encoding="UTF-8" standalone="no"?>
<svg xmlns:ffdec="https://www.free-decompiler.com/flash" xmlns:xlink="http://www.w3.org/1999/xlink" ffdec:objectType="shape" height="32.3px" width="54.5px" xmlns="http://www.w3.org/2000/svg">
  <g transform="matrix(1.0, 0.0, 0.0, 1.0, -0.25, -0.6)">
    <path d="M14.95 4.4 L20.15 1.35 Q22.0 0.2 25.25 0.8 28.1 1.3 30.35 2.3 39.65 -1.8 44.9 7.15 50.1 16.15 53.5 19.8 56.85 23.45 51.15 24.8 45.4 26.1 42.35 28.25 40.8 29.3 39.5 30.55 35.05 34.75 29.15 31.5 24.35 28.85 19.15 29.2 L7.85 28.8 Q-2.35 28.25 1.1 25.0 4.6 21.75 8.55 19.5 12.5 17.3 11.1 16.2 10.35 14.75 9.9 13.15 9.4 11.5 10.45 8.95 11.55 6.35 14.95 4.4" fill="#85532d" fill-rule="evenodd" stroke="none"/>
  </g>
</svg>
