<?xml version="1.0" encoding="UTF-8" standalone="no"?>
<svg xmlns:ffdec="https://www.free-decompiler.com/flash" xmlns:xlink="http://www.w3.org/1999/xlink" ffdec:objectType="shape" height="27.6px" width="37.3px" xmlns="http://www.w3.org/2000/svg">
  <g transform="matrix(1.0, 0.0, 0.0, 1.0, -11.1, -2.25)">
    <path d="M22.35 2.25 Q27.05 2.35 31.2 4.5 L32.4 4.6 Q36.05 3.5 39.45 3.75 41.5 3.9 42.2 5.95 44.25 12.05 48.0 17.25 48.6 18.1 48.3 19.15 46.85 23.6 42.05 23.8 38.3 23.95 39.4 25.75 40.45 27.55 36.2 29.15 31.9 30.75 29.8 28.7 27.65 26.65 25.0 25.6 22.35 24.55 18.45 25.9 14.5 27.3 12.05 23.85 9.6 20.45 13.4 17.7 17.2 15.0 13.55 12.25 9.95 9.5 15.25 6.25 20.55 2.95 22.35 2.25" fill="#af8858" fill-rule="evenodd" stroke="none"/>
  </g>
</svg>
