<?xml version="1.0" encoding="UTF-8" standalone="no"?>
<svg xmlns:ffdec="https://www.free-decompiler.com/flash" xmlns:xlink="http://www.w3.org/1999/xlink" ffdec:objectType="shape" height="35.95px" width="60.6px" xmlns="http://www.w3.org/2000/svg">
  <g transform="matrix(1.0, 0.0, 0.0, 1.0, 2.8, 1.2)">
    <path d="M13.6 3.05 L19.4 -0.4 Q21.4 -1.65 25.0 -1.0 28.2 -0.45 30.7 0.65 41.05 -3.85 46.85 6.1 52.65 16.1 56.4 20.15 60.15 24.2 53.8 25.7 47.4 27.15 44.05 29.5 L40.85 32.1 Q35.95 36.8 29.35 33.15 24.05 30.2 18.25 30.6 L5.65 30.15 Q-5.65 29.55 -1.8 25.95 2.05 22.3 6.45 19.85 10.85 17.35 9.3 16.1 8.45 14.5 7.95 12.75 7.4 10.9 8.6 8.1 9.8 5.2 13.6 3.05" fill="#693308" fill-rule="evenodd" stroke="none"/>
  </g>
</svg>
