<?xml version="1.0" encoding="UTF-8" standalone="no"?>
<svg xmlns:ffdec="https://www.free-decompiler.com/flash" xmlns:xlink="http://www.w3.org/1999/xlink" ffdec:objectType="shape" height="30.7px" width="41.45px" xmlns="http://www.w3.org/2000/svg">
  <g transform="matrix(1.0, 0.0, 0.0, 1.0, -9.3, -0.65)">
    <path d="M21.85 0.65 Q27.0 0.8 31.65 3.2 L33.0 3.3 Q37.05 2.05 40.85 2.35 43.1 2.55 43.85 4.8 46.15 11.55 50.35 17.35 51.0 18.3 50.65 19.5 49.05 24.4 43.7 24.65 39.55 24.8 40.75 26.8 41.95 28.8 37.2 30.6 32.4 32.35 30.05 30.05 27.7 27.8 24.8 26.65 21.85 25.45 17.5 27.0 13.1 28.55 10.4 24.7 7.65 20.9 11.85 17.85 16.1 14.85 12.05 11.8 8.05 8.7 13.95 5.1 19.85 1.45 21.85 0.65" fill="#af8858" fill-rule="evenodd" stroke="none"/>
  </g>
</svg>
