<?xml version="1.0" encoding="UTF-8" standalone="no"?>
<svg xmlns:ffdec="https://www.free-decompiler.com/flash" xmlns:xlink="http://www.w3.org/1999/xlink" ffdec:objectType="shape" height="38.15px" width="51.6px" xmlns="http://www.w3.org/2000/svg">
  <g transform="matrix(1.0, 0.0, 0.0, 1.0, -0.6, -0.2)">
    <path d="M41.55 5.95 L43.05 8.0 46.8 14.55 Q49.4 19.6 51.25 21.85 53.05 24.1 51.45 25.7 49.85 27.3 46.8 28.1 43.8 28.95 40.2 31.3 36.65 33.6 31.55 33.75 26.4 33.85 24.7 35.65 19.95 40.9 15.3 35.9 11.35 31.7 12.15 25.9 12.75 21.95 5.85 19.4 -1.05 16.85 1.1 12.25 3.2 7.6 9.15 5.15 15.0 2.75 20.35 1.3 L26.7 0.5 29.65 0.2 35.85 0.45 Q38.3 0.5 39.8 3.0 L41.55 5.95" fill="#85532d" fill-rule="evenodd" stroke="none"/>
  </g>
</svg>
