<?xml version="1.0" encoding="UTF-8" standalone="no"?>
<svg xmlns:ffdec="https://www.free-decompiler.com/flash" xmlns:xlink="http://www.w3.org/1999/xlink" ffdec:objectType="shape" height="25.5px" width="41.85px" xmlns="http://www.w3.org/2000/svg">
  <g transform="matrix(1.0, 0.0, 0.0, 1.0, 0.0, 0.0)">
    <path d="M33.85 6.55 L35.75 6.65 Q38.55 7.35 38.55 9.5 L38.1 11.05 37.05 12.15 Q38.65 12.5 37.9 14.05 L38.95 14.2 Q41.85 15.0 41.85 16.95 41.85 17.65 41.15 18.65 40.5 19.65 39.65 19.95 39.5 21.75 37.95 23.1 36.45 24.45 34.1 22.8 33.8 25.6 31.6 25.5 29.4 25.45 28.7 24.65 L27.8 23.65 Q26.4 25.0 25.05 24.7 23.65 24.45 23.6 23.95 23.55 23.65 22.45 23.4 21.45 24.6 18.1 24.6 15.3 24.6 14.4 23.95 L13.4 22.75 Q12.8 23.35 9.6 24.35 6.4 25.25 2.3 22.7 -1.85 20.15 2.2 14.85 L1.55 14.5 Q-0.7 13.3 0.3 10.15 1.25 6.9 5.2 6.9 L6.35 6.95 Q6.4 6.2 7.75 4.25 8.6 3.05 11.3 3.5 12.35 1.35 14.3 0.75 19.45 -0.85 22.25 1.0 L23.85 2.1 Q24.8 0.9 26.15 0.9 27.6 0.9 28.8 3.9 L30.7 3.65 Q32.05 3.5 33.85 6.55" fill="#f0e2b9" fill-opacity="0.9882353" fill-rule="evenodd" stroke="none"/>
    <path d="M30.8 4.6 Q31.3 4.8 32.45 6.85 L33.25 7.5 34.25 7.55 35.4 7.65 Q36.9 8.05 37.05 9.1 L36.75 10.05 36.8 10.0 36.4 10.45 Q35.95 10.65 35.75 11.1 35.5 11.5 35.55 12.0 35.6 12.45 35.95 12.8 L36.5 13.2 Q36.3 13.6 36.4 14.05 36.5 14.55 36.95 14.9 37.4 15.25 37.95 15.25 L38.6 15.35 Q40.25 15.8 40.45 16.7 L40.0 17.65 40.0 17.6 39.2 18.3 Q38.75 18.45 38.5 18.8 38.2 19.15 38.2 19.6 38.05 20.9 36.95 21.85 36.2 22.35 35.0 21.5 L33.95 21.2 Q33.4 21.25 33.0 21.65 32.6 22.0 32.5 22.55 32.35 23.85 31.55 23.95 L29.65 23.6 28.9 22.7 Q28.6 22.3 28.2 22.15 L27.3 22.1 Q26.85 22.15 26.55 22.5 25.8 23.25 25.15 23.2 L25.1 23.2 24.8 23.25 Q24.65 22.35 22.5 21.85 L21.7 21.9 21.0 22.35 Q20.15 23.0 17.7 23.0 L14.95 22.7 13.95 21.55 Q13.45 21.15 12.85 21.15 12.25 21.15 11.85 21.6 L8.6 22.8 Q5.9 23.5 2.4 21.3 1.0 20.5 0.95 19.25 1.0 17.65 2.7 15.45 L3.0 14.6 2.8 13.75 Q2.55 13.35 2.1 13.2 L1.5 12.9 Q0.35 12.1 0.95 10.15 1.7 7.95 4.5 7.95 L5.55 8.0 6.35 7.85 7.0 7.35 7.25 6.55 Q7.4 6.05 8.4 4.6 L10.5 4.45 11.45 4.3 12.15 3.6 Q12.9 2.05 14.3 1.6 18.75 0.25 21.1 1.65 21.95 2.15 22.6 2.7 23.1 3.1 23.75 3.05 24.35 2.95 24.75 2.5 25.25 1.85 25.95 1.8 26.45 2.05 27.2 3.95 27.4 4.45 27.95 4.75 L29.0 4.85 30.8 4.6" fill="#fcf0cb" fill-opacity="0.9882353" fill-rule="evenodd" stroke="none"/>
    <path d="M26.3 17.55 L26.35 17.5 26.9 17.05 Q27.45 17.8 27.85 17.8 L29.3 17.15 30.05 16.15 30.05 16.1 30.4 16.4 31.3 17.0 31.35 17.3 Q31.65 18.0 32.75 18.0 33.8 18.0 34.5 17.2 34.85 18.0 35.7 18.0 36.7 18.0 37.4 17.25 L37.85 17.35 Q39.2 17.35 39.2 16.3 L39.0 15.45 Q40.7 16.0 40.85 17.15 L40.35 18.35 39.3 19.25 38.85 19.6 38.65 20.1 Q38.5 21.6 37.3 22.7 36.25 23.45 34.7 22.35 L34.05 22.15 33.4 22.45 33.1 23.05 Q32.9 24.85 31.65 24.9 30.0 24.85 29.45 24.35 L28.65 23.45 28.2 23.1 27.6 23.05 Q27.3 23.1 27.1 23.3 26.15 24.25 25.25 24.15 24.7 24.0 24.6 24.15 24.75 23.25 22.7 22.8 L22.15 22.8 Q21.85 22.9 21.7 23.1 20.8 23.95 18.1 23.95 L15.15 23.6 14.1 22.35 13.4 22.1 Q13.0 22.1 12.7 22.4 12.15 22.85 9.3 23.75 L9.35 23.75 Q6.5 24.5 2.8 22.2 1.25 21.2 1.2 19.7 1.2 17.95 3.0 15.6 L3.2 15.05 3.05 14.45 2.65 14.1 2.05 13.8 Q0.5 12.85 1.25 10.45 L1.35 10.15 1.35 10.35 Q1.35 11.2 1.9 11.85 2.75 12.9 4.7 12.6 4.8 13.6 5.1 14.0 L5.7 14.55 Q5.8 16.2 6.9 16.2 7.8 16.2 8.3 15.85 L8.4 16.4 Q8.7 17.45 9.75 17.45 L9.9 17.45 10.2 17.65 Q10.9 17.65 11.3 17.15 L11.8 16.7 12.05 16.85 12.05 17.0 Q12.4 18.0 13.45 18.0 14.15 18.0 14.65 17.15 L15.0 16.05 14.95 15.85 Q15.7 15.75 16.1 15.2 L16.2 15.45 Q16.7 16.5 18.25 16.5 19.4 16.5 20.2 15.4 L20.3 15.95 Q20.75 17.0 21.85 17.0 L23.0 16.75 23.25 17.65 Q23.75 18.65 24.9 18.65 L26.3 17.55" fill="#d7caa7" fill-opacity="0.9882353" fill-rule="evenodd" stroke="none"/>
  </g>
</svg>
