<?xml version="1.0" encoding="UTF-8" standalone="no"?>
<svg xmlns:ffdec="https://www.free-decompiler.com/flash" xmlns:xlink="http://www.w3.org/1999/xlink" ffdec:objectType="shape" height="42.95px" width="58.15px" xmlns="http://www.w3.org/2000/svg">
  <g transform="matrix(1.0, 0.0, 0.0, 1.0, 2.7, 2.25)">
    <path d="M43.45 4.2 L45.1 6.55 Q46.35 8.2 49.35 13.9 52.25 19.65 54.35 22.15 56.4 24.7 54.6 26.45 52.8 28.25 49.35 29.2 45.95 30.15 41.9 32.8 37.9 35.4 32.15 35.5 26.35 35.65 24.45 37.7 19.1 43.6 13.9 37.95 9.45 33.25 10.35 26.65 11.0 22.2 3.25 19.35 -4.55 16.5 -2.15 11.35 0.25 6.1 6.95 3.35 13.55 0.65 19.6 -1.05 L26.7 -1.9 30.0 -2.2 37.0 -1.95 Q39.8 -1.9 41.45 0.9 L43.45 4.2" fill="#693308" fill-rule="evenodd" stroke="none"/>
  </g>
</svg>
