<?xml version="1.0" encoding="UTF-8" standalone="no"?>
<svg xmlns:ffdec="https://www.free-decompiler.com/flash" xmlns:xlink="http://www.w3.org/1999/xlink" ffdec:objectType="shape" height="47.7px" width="49.55px" xmlns="http://www.w3.org/2000/svg">
  <g transform="matrix(1.0, 0.0, 0.0, 1.0, -0.65, -1.15)">
    <path d="M36.0 7.9 Q40.4 13.1 44.15 14.25 47.9 15.4 49.8 20.6 51.7 25.75 44.7 29.55 37.7 33.3 34.85 34.3 25.1 37.95 17.95 46.25 16.7 47.75 14.8 48.5 11.4 49.75 9.5 46.65 5.55 40.3 5.15 32.6 5.1 31.6 4.3 30.85 -2.0 25.35 2.5 18.95 2.75 18.6 3.3 18.4 10.75 15.4 12.35 7.35 12.5 6.35 13.2 5.45 16.35 1.5 21.4 1.15 30.25 1.05 36.0 7.9" fill="#85532d" fill-rule="evenodd" stroke="none"/>
  </g>
</svg>
