<?xml version="1.0" encoding="UTF-8" standalone="no"?>
<svg xmlns:ffdec="https://www.free-decompiler.com/flash" xmlns:xlink="http://www.w3.org/1999/xlink" ffdec:objectType="shape" height="41.7px" width="43.3px" xmlns="http://www.w3.org/2000/svg">
  <g transform="matrix(1.0, 0.0, 0.0, 1.0, -3.35, -3.95)">
    <path d="M34.0 10.35 Q36.85 14.75 42.65 16.1 48.5 17.4 45.75 24.5 43.0 31.6 34.85 32.3 26.7 33.0 22.05 39.35 17.4 45.65 12.3 45.65 11.1 45.35 9.9 42.25 8.7 39.1 9.9 34.05 11.05 29.0 8.0 27.3 0.75 25.35 4.75 19.1 6.15 16.95 8.8 16.45 10.95 16.1 12.95 9.85 14.85 3.6 21.05 3.95 31.15 5.95 34.0 10.35" fill="#af8858" fill-rule="evenodd" stroke="none"/>
  </g>
</svg>
