<?xml version="1.0" encoding="UTF-8" standalone="no"?>
<svg xmlns:ffdec="https://www.free-decompiler.com/flash" xmlns:xlink="http://www.w3.org/1999/xlink" ffdec:objectType="shape" height="51.5px" width="55.6px" xmlns="http://www.w3.org/2000/svg">
  <g transform="matrix(1.0, 0.0, 0.0, 1.0, 2.4, 0.75)">
    <path d="M37.25 6.5 Q42.25 12.15 46.45 13.4 50.65 14.65 52.75 20.25 54.9 25.8 47.05 29.9 39.15 33.95 36.0 35.05 25.05 38.95 17.05 47.9 15.6 49.55 13.5 50.35 9.7 51.7 7.6 48.35 3.15 41.5 2.7 33.2 2.65 32.15 1.7 31.35 -5.35 25.4 -0.25 18.45 0.0 18.1 0.65 17.85 9.0 14.65 10.75 5.95 10.95 4.85 11.75 3.9 15.25 -0.4 20.9 -0.75 30.8 -0.85 37.25 6.5" fill="#693308" fill-rule="evenodd" stroke="none"/>
  </g>
</svg>
