<?xml version="1.0" encoding="UTF-8" standalone="no"?>
<svg xmlns:ffdec="https://www.free-decompiler.com/flash" xmlns:xlink="http://www.w3.org/1999/xlink" ffdec:objectType="shape" height="45.05px" width="48.5px" xmlns="http://www.w3.org/2000/svg">
  <g transform="matrix(1.0, 0.0, 0.0, 1.0, -0.7, -2.25)">
    <path d="M35.1 9.15 Q38.25 13.9 44.8 15.35 51.3 16.8 48.25 24.45 45.15 32.15 36.05 32.9 26.9 33.6 21.65 40.45 16.45 47.3 10.75 47.3 9.4 46.95 8.05 43.6 6.75 40.2 8.05 34.75 9.35 29.3 5.95 27.5 -2.2 25.35 2.25 18.6 3.85 16.25 6.85 15.75 9.25 15.35 11.45 8.65 13.6 1.9 20.55 2.25 31.9 4.4 35.1 9.15" fill="#af8858" fill-rule="evenodd" stroke="none"/>
  </g>
</svg>
