<?xml version="1.0" encoding="UTF-8" standalone="no"?>
<svg xmlns:ffdec="https://www.free-decompiler.com/flash" xmlns:xlink="http://www.w3.org/1999/xlink" ffdec:objectType="shape" height="37.95px" width="644.05px" xmlns="http://www.w3.org/2000/svg">
  <g transform="matrix(1.0, 0.0, 0.0, 1.0, 2.1, -77.95)">
    <path d="M582.0 98.25 Q583.75 95.9 584.15 93.35 594.0 101.15 601.5 101.15 606.85 101.15 609.9 97.5 612.5 94.45 612.5 90.4 L613.65 90.5 617.0 93.55 Q628.35 103.25 637.6 103.25 640.05 103.25 641.95 102.45 L641.7 113.55 641.75 114.05 Q637.3 116.8 630.0 114.8 L595.75 115.9 63.55 114.8 Q5.5 112.6 2.0 110.25 1.45 110.25 -0.05 106.4 -1.55 102.55 -2.0 100.0 L-2.1 96.45 11.55 82.4 13.8 84.75 Q24.9 95.9 38.55 95.9 43.8 95.9 47.0 92.75 49.2 90.55 49.8 87.65 57.25 89.6 64.05 89.6 68.75 89.6 71.9 86.6 75.0 83.6 75.05 79.3 100.65 92.75 112.6 92.75 119.0 92.75 122.05 88.55 123.45 86.7 123.9 84.6 L129.65 87.15 Q140.55 91.8 151.45 94.9 162.25 98.0 167.45 98.0 172.6 98.0 175.75 94.35 178.35 91.3 178.35 87.85 201.3 99.05 211.8 99.05 217.2 99.05 220.1 94.6 221.4 92.65 221.9 90.75 245.05 101.15 254.6 101.15 260.95 101.15 263.95 97.0 266.0 94.15 266.0 90.65 266.0 87.85 255.05 81.35 252.55 79.85 249.9 78.45 L255.2 78.45 261.2 82.65 Q268.6 87.45 275.0 89.95 287.2 99.05 296.85 99.05 301.95 99.05 305.1 95.4 307.75 92.3 307.75 88.7 307.75 86.8 300.25 80.35 L300.15 80.3 306.95 81.9 Q308.15 82.15 323.75 88.8 337.8 94.85 344.9 94.85 347.75 94.85 350.0 93.75 353.85 93.5 356.55 91.1 L369.8 96.85 Q382.7 102.2 385.6 102.2 387.05 102.2 390.8 99.85 394.55 97.5 395.05 97.5 395.8 97.5 400.6 99.35 405.4 101.15 407.9 101.15 414.45 101.15 417.35 97.0 418.45 95.45 419.0 93.5 L425.25 93.8 Q432.6 93.8 435.85 89.95 438.2 87.15 438.2 82.55 L437.95 79.9 444.0 84.5 Q466.5 101.15 478.4 101.15 482.7 101.15 485.5 98.95 489.4 98.4 491.95 95.4 494.55 92.35 494.55 88.7 494.55 86.3 486.25 79.2 L484.75 77.95 488.2 77.95 490.3 80.0 Q495.0 84.3 500.6 88.35 516.85 100.1 528.0 100.1 532.9 100.1 535.9 96.45 537.7 94.2 538.2 91.7 543.7 93.8 550.45 93.8 L552.25 93.75 Q564.5 102.2 573.95 102.2 579.05 102.2 582.0 98.25" fill="#4d2e20" fill-rule="evenodd" stroke="none"/>
  </g>
</svg>
