<?xml version="1.0" encoding="UTF-8" standalone="no"?>
<svg xmlns:ffdec="https://www.free-decompiler.com/flash" xmlns:xlink="http://www.w3.org/1999/xlink" ffdec:objectType="shape" height="32.4px" width="33.3px" xmlns="http://www.w3.org/2000/svg">
  <g transform="matrix(1.0, 0.0, 0.0, 1.0, -3.3, -4.65)">
    <path d="M5.25 18.3 Q8.7 14.75 8.65 10.3 8.6 5.75 11.75 4.75 17.15 4.25 20.2 7.0 23.2 9.7 25.4 9.65 34.25 9.6 36.3 17.55 37.45 21.95 33.8 25.95 31.25 28.75 27.0 30.0 25.15 31.45 24.1 33.65 23.05 35.8 20.1 36.75 17.15 37.75 15.5 35.25 13.8 32.75 10.4 31.85 7.0 30.95 4.45 26.35 1.85 21.8 5.25 18.3" fill="#af8858" fill-rule="evenodd" stroke="none"/>
  </g>
</svg>
