<?xml version="1.0" encoding="UTF-8" standalone="no"?>
<svg xmlns:ffdec="https://www.free-decompiler.com/flash" xmlns:xlink="http://www.w3.org/1999/xlink" ffdec:objectType="shape" height="37.15px" width="38.15px" xmlns="http://www.w3.org/2000/svg">
  <g transform="matrix(1.0, 0.0, 0.0, 1.0, -1.3, -2.45)">
    <path d="M3.55 18.05 Q7.45 14.0 7.45 8.85 7.4 3.7 11.0 2.55 17.15 1.95 20.65 5.05 24.15 8.2 26.65 8.15 36.8 8.05 39.15 17.2 40.45 22.25 36.3 26.85 33.35 30.05 28.5 31.5 26.4 33.15 25.15 35.65 23.95 38.1 20.6 39.25 17.2 40.4 15.3 37.5 13.35 34.6 9.45 33.6 5.5 32.55 2.6 27.3 -0.4 22.05 3.55 18.05" fill="#af8858" fill-rule="evenodd" stroke="none"/>
  </g>
</svg>
