<?xml version="1.0" encoding="UTF-8" standalone="no"?>
<svg xmlns:ffdec="https://www.free-decompiler.com/flash" xmlns:xlink="http://www.w3.org/1999/xlink" ffdec:objectType="shape" height="49.15px" width="54.15px" xmlns="http://www.w3.org/2000/svg">
  <g transform="matrix(1.0, 0.0, 0.0, 1.0, -0.75, -1.0)">
    <path d="M13.25 2.95 Q16.15 1.25 19.35 1.0 32.65 0.95 38.5 12.7 L41.65 19.1 Q45.45 27.2 52.4 33.05 L54.6 35.45 Q56.2 37.35 49.3 38.4 42.4 39.35 36.2 40.75 33.1 42.1 30.3 43.85 26.55 46.2 22.95 49.05 20.35 51.1 17.05 49.4 L12.7 46.95 Q10.45 45.55 7.8 46.15 L4.5 46.4 Q2.9 46.25 1.65 44.6 0.35 42.95 2.95 41.2 5.55 39.5 5.4 36.6 5.2 33.6 3.8 32.0 2.4 30.3 1.5 25.7 0.6 21.1 0.8 16.35 0.95 11.6 4.6 10.85 6.1 10.6 7.4 9.9 11.85 8.25 11.6 6.2 11.3 4.1 13.25 2.95" fill="#85532d" fill-rule="evenodd" stroke="none"/>
  </g>
</svg>
