<?xml version="1.0" encoding="UTF-8" standalone="no"?>
<svg xmlns:ffdec="https://www.free-decompiler.com/flash" xmlns:xlink="http://www.w3.org/1999/xlink" ffdec:objectType="shape" height="40.2px" width="642.0px" xmlns="http://www.w3.org/2000/svg">
  <g transform="matrix(1.0, 0.0, 0.0, 1.0, 0.0, -4.25)">
    <path d="M639.2 40.6 Q634.7 36.9 630.1 33.5 615.1 22.45 606.1 20.65 597.9 18.95 595.9 25.4 586.3 18.35 580.1 16.95 570.15 14.8 570.15 27.8 570.15 28.5 573.65 32.1 561.85 25.15 554.25 23.75 543.8 21.8 542.3 30.7 L541.85 30.45 Q537.35 28.05 536.25 28.05 533.6 28.05 529.2 31.35 L525.1 34.65 Q520.35 34.65 514.35 32.4 508.35 30.15 506.1 30.15 501.3 30.15 498.7 31.9 496.85 33.15 494.65 36.75 493.4 36.55 486.45 32.7 479.9 29.1 476.8 29.1 L476.35 29.1 Q468.5 25.7 462.4 24.2 450.7 21.3 447.4 25.95 L447.15 25.95 Q443.15 25.95 440.0 29.25 438.15 31.2 436.25 34.9 L426.7 32.0 Q420.8 30.15 420.0 30.15 414.35 30.15 407.85 37.3 404.5 41.0 402.95 43.6 L397.95 40.2 Q388.2 33.5 382.65 30.65 365.05 21.55 364.85 36.9 L364.75 37.0 362.65 40.75 361.45 40.0 Q345.75 28.05 338.35 24.55 325.2 18.25 325.2 33.2 L329.8 37.8 Q314.6 31.0 304.85 29.55 296.7 28.35 293.3 31.1 282.85 24.95 275.95 23.6 264.7 21.4 264.7 32.55 264.7 33.4 272.4 40.45 L269.25 38.8 Q260.7 34.35 255.8 34.35 250.55 34.35 247.3 38.75 L244.1 44.45 236.65 42.2 231.35 40.55 Q230.25 40.55 226.75 42.25 L223.5 43.95 Q222.6 43.95 210.0 35.5 197.35 27.0 193.85 27.0 187.3 27.0 184.7 32.65 183.95 34.35 183.5 36.7 L183.05 38.95 Q177.5 37.15 164.55 31.45 156.85 28.05 151.05 28.05 146.65 28.05 142.85 30.85 139.85 33.6 139.1 33.6 136.65 33.6 130.1 29.1 120.65 22.6 118.5 21.45 111.85 17.75 108.45 19.35 106.2 20.4 105.15 23.75 97.2 19.1 91.6 18.15 81.2 16.3 81.2 28.05 L83.25 30.2 82.3 29.6 Q47.25 7.35 45.85 25.2 L45.8 25.2 Q41.95 25.45 38.4 29.5 L37.4 30.7 34.3 28.7 Q21.85 20.9 14.25 20.65 5.1 20.35 5.1 31.2 5.1 34.6 6.3 36.4 L6.55 36.75 Q3.0 37.55 1.0 40.5 L0.0 42.3 0.0 4.25 642.0 4.25 642.0 41.85 639.2 40.6" fill="#69422f" fill-rule="evenodd" stroke="none"/>
  </g>
</svg>
