<?xml version="1.0" encoding="UTF-8" standalone="no"?>
<svg xmlns:ffdec="https://www.free-decompiler.com/flash" xmlns:xlink="http://www.w3.org/1999/xlink" ffdec:objectType="shape" height="43.55px" width="42.05px" xmlns="http://www.w3.org/2000/svg">
  <g transform="matrix(1.0, 0.0, 0.0, 1.0, -3.3, -4.0)">
    <path d="M14.15 9.95 L14.15 9.7 14.1 9.0 Q14.0 8.0 14.35 7.15 14.8 6.0 15.55 5.05 16.05 4.35 16.75 4.3 31.9 2.3 37.3 14.3 40.05 20.4 40.55 27.5 42.1 28.25 44.5 31.9 46.95 35.55 42.15 36.35 37.4 37.1 32.7 38.85 27.95 40.65 26.4 43.65 23.35 49.65 19.65 46.45 15.9 43.25 13.7 43.5 3.95 43.65 6.7 37.9 9.45 32.1 8.2 30.4 6.95 28.6 3.9 20.3 0.8 11.95 14.15 10.4 L14.15 9.95" fill="#af8858" fill-rule="evenodd" stroke="none"/>
  </g>
</svg>
