<?xml version="1.0" encoding="UTF-8" standalone="no"?>
<svg xmlns:ffdec="https://www.free-decompiler.com/flash" xmlns:xlink="http://www.w3.org/1999/xlink" ffdec:objectType="shape" height="53.45px" width="58.9px" xmlns="http://www.w3.org/2000/svg">
  <g transform="matrix(1.0, 0.0, 0.0, 1.0, 1.65, 1.15)">
    <path d="M12.0 0.95 Q15.1 -0.9 18.6 -1.15 33.05 -1.2 39.4 11.55 L42.85 18.55 Q47.0 27.35 54.55 33.7 L56.9 36.3 Q58.65 38.4 51.15 39.5 43.65 40.55 36.9 42.1 33.55 43.55 30.5 45.45 26.45 48.0 22.5 51.1 19.7 53.35 16.1 51.45 L11.35 48.8 Q8.9 47.25 6.05 47.95 L2.4 48.2 Q0.7 48.0 -0.65 46.25 -2.05 44.45 0.75 42.55 3.6 40.7 3.4 37.55 3.25 34.3 1.7 32.5 0.15 30.7 -0.85 25.7 -1.8 20.7 -1.6 15.55 -1.4 10.35 2.55 9.55 4.15 9.25 5.6 8.55 10.45 6.7 10.15 4.45 9.85 2.2 12.0 0.95" fill="#693308" fill-rule="evenodd" stroke="none"/>
  </g>
</svg>
