<?xml version="1.0" encoding="UTF-8" standalone="no"?>
<svg xmlns:ffdec="https://www.free-decompiler.com/flash" xmlns:xlink="http://www.w3.org/1999/xlink" ffdec:objectType="shape" height="47.35px" width="45.75px" xmlns="http://www.w3.org/2000/svg">
  <g transform="matrix(1.0, 0.0, 0.0, 1.0, -1.1, -2.15)">
    <path d="M12.95 8.55 L12.95 8.3 12.9 7.55 Q12.75 6.45 13.15 5.55 13.65 4.3 14.45 3.25 15.0 2.5 15.75 2.45 32.25 0.25 38.15 13.3 41.1 19.9 41.65 27.7 43.3 28.5 45.95 32.45 48.6 36.45 43.4 37.3 38.2 38.1 33.1 40.0 27.95 41.95 26.25 45.25 22.95 51.75 18.9 48.3 14.85 44.8 12.45 45.05 1.85 45.25 4.8 39.0 7.8 32.7 6.45 30.8 5.1 28.85 1.75 19.8 -1.6 10.75 12.95 9.05 L12.95 8.55" fill="#af8858" fill-rule="evenodd" stroke="none"/>
  </g>
</svg>
