<?xml version="1.0" encoding="UTF-8" standalone="no"?>
<svg xmlns:ffdec="https://www.free-decompiler.com/flash" xmlns:xlink="http://www.w3.org/1999/xlink" ffdec:objectType="shape" height="31.25px" width="30.05px" xmlns="http://www.w3.org/2000/svg">
  <g transform="matrix(1.0, 0.0, 0.0, 1.0, -0.9, -5.2)">
    <path d="M9.05 9.05 Q13.95 9.65 17.45 6.85 21.0 4.1 23.7 5.95 27.4 9.95 27.1 14.0 26.8 18.05 28.1 19.8 33.6 26.8 28.5 33.25 25.75 36.8 20.35 36.4 16.55 36.0 13.0 33.4 10.75 32.85 8.35 33.4 5.95 33.8 3.45 32.1 0.85 30.35 1.8 27.5 2.8 24.65 1.45 21.4 0.05 18.15 2.15 13.3 4.15 8.45 9.05 9.05" fill="#af8858" fill-rule="evenodd" stroke="none"/>
  </g>
</svg>
