<?xml version="1.0" encoding="UTF-8" standalone="no"?>
<svg xmlns:ffdec="https://www.free-decompiler.com/flash" xmlns:xlink="http://www.w3.org/1999/xlink" ffdec:objectType="shape" height="33.8px" width="32.6px" xmlns="http://www.w3.org/2000/svg">
  <g transform="matrix(1.0, 0.0, 0.0, 1.0, 0.35, -3.65)">
    <path d="M8.45 7.8 Q13.75 8.45 17.6 5.4 21.45 2.45 24.4 4.5 28.4 8.75 28.05 13.2 27.7 17.6 29.15 19.4 35.1 27.0 29.6 34.0 26.55 37.85 20.75 37.4 16.55 37.0 12.75 34.25 10.3 33.6 7.75 34.15 5.15 34.65 2.4 32.75 -0.4 30.9 0.65 27.8 1.7 24.7 0.2 21.2 -1.25 17.65 1.0 12.45 3.15 7.15 8.45 7.8" fill="#af8858" fill-rule="evenodd" stroke="none"/>
  </g>
</svg>
