<?xml version="1.0" encoding="UTF-8" standalone="no"?>
<svg xmlns:ffdec="https://www.free-decompiler.com/flash" xmlns:xlink="http://www.w3.org/1999/xlink" ffdec:objectType="shape" height="44.9px" width="46.0px" xmlns="http://www.w3.org/2000/svg">
  <g transform="matrix(1.0, 0.0, 0.0, 1.0, -0.6, -1.5)">
    <path d="M37.55 4.3 L42.95 8.15 Q44.95 9.45 44.75 12.65 44.6 15.45 43.6 17.85 51.25 25.15 39.5 32.7 27.8 40.25 23.2 44.45 18.65 48.65 15.7 43.8 12.65 38.9 9.0 36.75 7.2 35.7 5.2 34.85 -1.75 32.05 1.8 25.6 3.5 22.45 3.3 16.4 L2.6 13.55 Q1.15 7.0 6.15 4.1 11.25 1.15 15.7 3.25 20.15 5.25 20.05 4.3 21.95 3.2 24.1 2.25 26.4 1.3 30.25 1.55 34.15 1.75 37.55 4.3" fill="#85532d" fill-rule="evenodd" stroke="none"/>
  </g>
</svg>
