<?xml version="1.0" encoding="UTF-8" standalone="no"?>
<svg xmlns:ffdec="https://www.free-decompiler.com/flash" xmlns:xlink="http://www.w3.org/1999/xlink" ffdec:objectType="shape" height="36.2px" width="38.55px" xmlns="http://www.w3.org/2000/svg">
  <g transform="matrix(1.0, 0.0, 0.0, 1.0, -4.3, -3.1)">
    <path d="M41.6 10.3 Q42.4 14.65 40.1 19.1 39.8 19.7 40.25 20.25 42.55 23.3 42.85 26.55 43.0 28.45 40.2 29.7 31.95 33.4 25.3 38.5 24.25 39.3 22.6 39.3 16.0 39.35 14.8 35.0 13.85 31.55 11.45 33.1 9.1 34.65 6.0 31.2 2.9 27.75 5.45 25.15 7.9 22.6 8.9 19.8 9.85 17.1 7.15 13.9 4.35 10.7 8.8 7.4 13.2 4.1 17.85 6.75 22.45 9.4 25.65 5.25 28.9 1.05 34.55 5.0 40.25 8.9 41.6 10.3" fill="#af8858" fill-rule="evenodd" stroke="none"/>
  </g>
</svg>
