<?xml version="1.0" encoding="UTF-8" standalone="no"?>
<svg xmlns:ffdec="https://www.free-decompiler.com/flash" xmlns:xlink="http://www.w3.org/1999/xlink" ffdec:objectType="shape" height="49.8px" width="51.05px" xmlns="http://www.w3.org/2000/svg">
  <g transform="matrix(1.0, 0.0, 0.0, 1.0, 1.9, 0.95)">
    <path d="M39.05 2.1 L45.1 6.4 Q47.3 7.9 47.0 11.4 46.9 14.5 45.85 17.15 54.25 25.25 41.25 33.65 28.25 41.95 23.15 46.65 18.15 51.35 14.8 45.9 11.5 40.5 7.45 38.15 5.4 36.95 3.2 36.0 -4.45 32.9 -0.6 25.75 1.35 22.25 1.1 15.55 L0.35 12.35 Q-1.3 5.15 4.25 1.9 9.9 -1.35 14.85 0.95 19.8 3.25 19.7 2.15 21.75 0.9 24.2 -0.1 26.7 -1.15 30.95 -0.9 35.3 -0.7 39.05 2.1" fill="#693308" fill-rule="evenodd" stroke="none"/>
  </g>
</svg>
