<?xml version="1.0" encoding="UTF-8" standalone="no"?>
<svg xmlns:ffdec="https://www.free-decompiler.com/flash" xmlns:xlink="http://www.w3.org/1999/xlink" ffdec:objectType="shape" height="40.15px" width="42.75px" xmlns="http://www.w3.org/2000/svg">
  <g transform="matrix(1.0, 0.0, 0.0, 1.0, -2.2, -0.85)">
    <path d="M43.6 8.85 Q44.5 13.65 41.95 18.65 41.6 19.3 42.05 19.85 44.65 23.25 44.95 26.85 45.15 28.95 42.05 30.35 32.95 34.5 25.5 40.1 24.3 40.95 22.5 41.0 15.2 41.05 13.85 36.2 12.8 32.45 10.2 34.15 7.55 35.85 4.1 32.05 0.65 28.2 3.45 25.35 6.25 22.5 7.3 19.4 8.4 16.35 5.35 12.8 2.3 9.3 7.25 5.6 12.1 1.95 17.2 4.9 22.35 7.9 25.9 3.25 29.45 -1.4 35.8 2.9 42.15 7.25 43.6 8.85" fill="#af8858" fill-rule="evenodd" stroke="none"/>
  </g>
</svg>
