<?xml version="1.0" encoding="UTF-8" standalone="no"?>
<svg xmlns:ffdec="https://www.free-decompiler.com/flash" xmlns:xlink="http://www.w3.org/1999/xlink" ffdec:objectType="shape" height="37.5px" width="38.95px" xmlns="http://www.w3.org/2000/svg">
  <g transform="matrix(1.0, 0.0, 0.0, 1.0, -7.2, -3.55)">
    <path d="M41.2 29.8 Q37.15 33.3 36.4 36.15 35.55 39.05 31.5 40.65 27.4 42.25 22.45 37.2 L15.25 29.55 10.5 23.8 Q8.0 20.6 7.35 16.55 6.65 12.55 9.1 11.0 14.05 7.85 20.25 7.25 21.05 7.2 21.6 6.55 25.8 1.6 31.15 4.8 L31.6 5.4 Q34.25 10.95 40.75 11.85 41.6 12.0 42.35 12.45 45.65 14.7 46.1 18.5 46.5 25.2 41.2 29.8" fill="#85532d" fill-rule="evenodd" stroke="none"/>
  </g>
</svg>
