<?xml version="1.0" encoding="UTF-8" standalone="no"?>
<svg xmlns:ffdec="https://www.free-decompiler.com/flash" xmlns:xlink="http://www.w3.org/1999/xlink" ffdec:objectType="shape" height="32.7px" width="34.3px" xmlns="http://www.w3.org/2000/svg">
  <g transform="matrix(1.0, 0.0, 0.0, 1.0, -9.05, -5.5)">
    <path d="M38.65 28.3 Q35.25 30.55 34.35 35.05 33.55 39.5 27.75 37.65 21.9 35.8 20.05 31.8 18.2 27.8 12.95 24.45 7.7 21.15 9.55 13.1 9.75 12.1 12.2 11.1 L18.8 10.85 Q22.9 11.5 24.15 9.2 25.45 3.65 30.65 6.45 32.45 7.4 32.85 9.45 33.25 11.05 38.3 12.35 43.45 13.6 43.35 18.3 42.1 26.0 38.65 28.3" fill="#af8858" fill-rule="evenodd" stroke="none"/>
  </g>
</svg>
