<?xml version="1.0" encoding="UTF-8" standalone="no"?>
<svg xmlns:ffdec="https://www.free-decompiler.com/flash" xmlns:xlink="http://www.w3.org/1999/xlink" ffdec:objectType="shape" height="44.6px" width="46.25px" xmlns="http://www.w3.org/2000/svg">
  <g transform="matrix(1.0, 0.0, 0.0, 1.0, -3.55, 0.0)">
    <path d="M43.95 31.2 Q39.15 35.4 38.2 38.8 37.25 42.2 32.4 44.15 27.6 46.05 21.7 40.1 L13.05 30.95 7.4 24.05 Q4.5 20.25 3.7 15.45 2.9 10.75 5.8 8.85 11.7 5.1 19.05 4.4 19.95 4.35 20.65 3.55 25.65 -2.3 32.0 1.55 L32.55 2.2 Q35.7 8.8 43.45 9.85 44.45 10.05 45.3 10.6 49.25 13.3 49.75 17.75 50.25 25.7 43.95 31.2" fill="#693308" fill-rule="evenodd" stroke="none"/>
  </g>
</svg>
