<?xml version="1.0" encoding="UTF-8" standalone="no"?>
<svg xmlns:ffdec="https://www.free-decompiler.com/flash" xmlns:xlink="http://www.w3.org/1999/xlink" ffdec:objectType="shape" height="38.85px" width="40.75px" xmlns="http://www.w3.org/2000/svg">
  <g transform="matrix(1.0, 0.0, 0.0, 1.0, -5.75, -2.35)">
    <path d="M40.9 29.45 Q36.9 32.15 35.85 37.45 34.8 42.75 27.9 40.55 21.0 38.4 18.75 33.65 16.6 28.85 10.35 24.9 4.1 20.95 6.3 11.35 6.55 10.2 9.45 9.05 L17.3 8.7 Q22.15 9.55 23.6 6.75 25.2 0.1 31.4 3.45 33.5 4.6 34.05 7.0 34.5 8.95 40.55 10.5 46.55 11.95 46.5 17.5 45.05 26.75 40.9 29.45" fill="#af8858" fill-rule="evenodd" stroke="none"/>
  </g>
</svg>
