<?xml version="1.0" encoding="UTF-8" standalone="no"?>
<svg xmlns:ffdec="https://www.free-decompiler.com/flash" xmlns:xlink="http://www.w3.org/1999/xlink" ffdec:objectType="shape" height="39.6px" width="55.7px" xmlns="http://www.w3.org/2000/svg">
  <g transform="matrix(1.0, 0.0, 0.0, 1.0, 0.65, 0.2)">
    <path d="M33.7 38.3 Q32.15 40.05 29.9 39.0 27.7 38.0 25.75 37.35 L20.95 36.8 Q18.15 36.8 11.95 34.5 5.8 32.2 2.45 31.6 -0.8 31.0 -0.65 28.9 -0.45 26.7 1.65 24.3 3.75 21.85 5.15 18.05 6.65 14.2 11.1 11.1 15.55 8.0 15.7 5.6 15.95 -1.05 23.95 -0.05 30.6 0.8 34.3 5.65 36.75 8.95 44.8 6.8 52.9 4.7 54.5 9.4 56.15 14.15 52.7 19.45 49.2 24.75 45.6 28.95 L40.5 33.3 Q37.7 35.65 38.1 35.2 34.7 37.25 33.7 38.3" fill="#85532d" fill-rule="evenodd" stroke="none"/>
  </g>
</svg>
