<?xml version="1.0" encoding="UTF-8" standalone="no"?>
<svg xmlns:ffdec="https://www.free-decompiler.com/flash" xmlns:xlink="http://www.w3.org/1999/xlink" ffdec:objectType="shape" height="37.95px" width="644.05px" xmlns="http://www.w3.org/2000/svg">
  <g transform="matrix(1.0, 0.0, 0.0, 1.0, 1.35, -189.95)">
    <path d="M582.75 210.25 Q584.5 207.9 584.9 205.35 594.75 213.15 602.25 213.15 607.6 213.15 610.65 209.5 613.25 206.45 613.25 202.4 L614.4 202.5 617.75 205.55 Q629.1 215.25 638.35 215.25 640.8 215.25 642.7 214.45 L642.45 225.55 642.5 226.05 Q638.05 228.8 630.75 226.8 L596.5 227.9 64.3 226.8 Q6.25 224.6 2.75 222.25 2.2 222.25 0.7 218.4 -0.8 214.55 -1.25 212.0 L-1.35 208.45 12.3 194.4 14.55 196.75 Q25.65 207.9 39.3 207.9 44.55 207.9 47.75 204.75 49.95 202.55 50.55 199.65 58.0 201.6 64.8 201.6 69.5 201.6 72.65 198.6 75.75 195.6 75.8 191.3 101.4 204.75 113.35 204.75 119.75 204.75 122.8 200.55 124.2 198.7 124.65 196.6 L130.4 199.15 Q141.3 203.8 152.2 206.9 163.0 210.0 168.2 210.0 173.35 210.0 176.5 206.35 179.1 203.3 179.1 199.85 202.05 211.05 212.55 211.05 217.95 211.05 220.85 206.6 222.15 204.65 222.65 202.75 245.8 213.15 255.35 213.15 261.7 213.15 264.7 209.0 266.75 206.15 266.75 202.65 266.75 199.85 255.8 193.35 L250.65 190.45 255.95 190.45 Q258.7 192.55 261.95 194.65 269.35 199.45 275.75 201.95 287.95 211.05 297.6 211.05 302.7 211.05 305.85 207.4 308.5 204.3 308.5 200.7 308.5 198.8 301.0 192.35 L300.9 192.3 307.7 193.9 Q308.9 194.15 324.5 200.8 338.55 206.85 345.65 206.85 348.5 206.85 350.75 205.75 354.6 205.5 357.3 203.1 L370.55 208.85 Q383.45 214.2 386.35 214.2 387.8 214.2 391.55 211.85 395.3 209.5 395.8 209.5 396.55 209.5 401.35 211.35 406.15 213.15 408.65 213.15 415.2 213.15 418.1 209.0 419.2 207.45 419.75 205.5 L426.0 205.8 Q433.35 205.8 436.6 201.95 438.95 199.15 438.95 194.55 L438.7 191.9 444.75 196.5 Q467.25 213.15 479.15 213.15 483.45 213.15 486.25 210.95 490.15 210.4 492.7 207.4 495.3 204.35 495.3 200.7 495.3 198.3 487.0 191.2 L485.5 189.95 488.95 189.95 491.05 192.0 Q495.75 196.3 501.35 200.35 517.6 212.1 528.75 212.1 533.65 212.1 536.65 208.45 538.45 206.2 538.95 203.7 544.45 205.8 551.2 205.8 L553.0 205.75 Q565.25 214.2 574.7 214.2 579.8 214.2 582.75 210.25" fill="#4d2e20" fill-rule="evenodd" stroke="none"/>
  </g>
</svg>
