<?xml version="1.0" encoding="UTF-8" standalone="no"?>
<svg xmlns:ffdec="https://www.free-decompiler.com/flash" xmlns:xlink="http://www.w3.org/1999/xlink" ffdec:objectType="shape" height="42.95px" width="60.3px" xmlns="http://www.w3.org/2000/svg">
  <g transform="matrix(1.0, 0.0, 0.0, 1.0, 3.0, 1.85)">
    <path d="M34.2 39.85 Q32.5 41.8 30.1 40.65 27.7 39.5 25.6 38.85 23.5 38.25 20.4 38.2 17.4 38.2 10.7 35.75 4.0 33.25 0.4 32.6 -3.2 31.9 -3.0 29.65 -2.75 27.3 -0.5 24.65 1.85 22.05 3.3 17.9 4.9 13.75 9.75 10.4 14.6 7.1 14.75 4.5 15.05 -2.75 23.65 -1.7 30.85 -0.8 34.85 4.5 37.55 8.1 46.25 5.75 55.05 3.45 56.7 8.6 58.55 13.7 54.75 19.45 51.05 25.15 47.1 29.8 L41.6 34.4 39.0 36.5 Q35.25 38.75 34.2 39.85" fill="#693308" fill-rule="evenodd" stroke="none"/>
  </g>
</svg>
