<?xml version="1.0" encoding="UTF-8" standalone="no"?>
<svg xmlns:ffdec="https://www.free-decompiler.com/flash" xmlns:xlink="http://www.w3.org/1999/xlink" ffdec:objectType="shape" height="39.65px" width="66.85px" xmlns="http://www.w3.org/2000/svg">
  <g transform="matrix(1.0, 0.0, 0.0, 1.0, 0.0, 0.4)">
    <path d="M18.05 4.3 L24.45 0.5 Q26.65 -0.9 30.65 -0.15 34.2 0.45 36.95 1.65 48.35 -3.35 54.75 7.65 61.2 18.65 65.3 23.15 69.45 27.65 62.45 29.25 55.4 30.9 51.65 33.5 49.8 34.8 48.15 36.3 42.7 41.5 35.45 37.5 29.6 34.25 23.2 34.7 L9.3 34.2 Q-3.2 33.55 1.1 29.55 5.35 25.55 10.2 22.8 15.0 20.1 13.3 18.7 12.4 16.95 11.85 15.0 11.25 12.95 12.55 9.85 13.85 6.65 18.05 4.3" fill="#85532d" fill-rule="evenodd" stroke="none"/>
  </g>
</svg>
