<?xml version="1.0" encoding="UTF-8" standalone="no"?>
<svg xmlns:ffdec="https://www.free-decompiler.com/flash" xmlns:xlink="http://www.w3.org/1999/xlink" ffdec:objectType="shape" height="33.85px" width="45.75px" xmlns="http://www.w3.org/2000/svg">
  <g transform="matrix(1.0, 0.0, 0.0, 1.0, -13.2, -1.85)">
    <path d="M27.0 1.85 Q32.75 1.95 37.85 4.65 L39.35 4.75 Q43.8 3.35 48.0 3.7 50.5 3.9 51.35 6.4 53.85 13.85 58.5 20.25 59.25 21.3 58.8 22.6 57.05 28.05 51.15 28.3 46.55 28.5 47.9 30.7 49.2 32.9 43.95 34.85 38.7 36.8 36.1 34.3 33.5 31.75 30.25 30.5 27.0 29.2 22.2 30.9 17.4 32.6 14.4 28.35 11.4 24.15 16.0 20.8 20.65 17.5 16.2 14.1 11.8 10.7 18.3 6.7 24.8 2.7 27.0 1.85" fill="#af8858" fill-rule="evenodd" stroke="none"/>
  </g>
</svg>
