<?xml version="1.0" encoding="UTF-8" standalone="no"?>
<svg xmlns:ffdec="https://www.free-decompiler.com/flash" xmlns:xlink="http://www.w3.org/1999/xlink" ffdec:objectType="shape" height="42.45px" width="71.55px" xmlns="http://www.w3.org/2000/svg">
  <g transform="matrix(1.0, 0.0, 0.0, 1.0, 2.35, 1.8)">
    <path d="M16.95 3.25 L23.85 -0.8 Q26.2 -2.3 30.45 -1.5 34.25 -0.85 37.2 0.45 49.4 -4.9 56.3 6.85 63.15 18.65 67.55 23.45 72.0 28.25 64.5 29.95 56.9 31.7 52.95 34.5 L49.2 37.5 Q43.35 43.1 35.6 38.75 29.35 35.3 22.5 35.8 L7.65 35.25 Q-5.75 34.55 -1.15 30.3 3.35 25.95 8.55 23.05 13.75 20.15 11.9 18.7 10.9 16.8 10.35 14.7 9.7 12.5 11.1 9.2 12.5 5.75 16.95 3.25" fill="#693308" fill-rule="evenodd" stroke="none"/>
  </g>
</svg>
