<?xml version="1.0" encoding="UTF-8" standalone="no"?>
<svg xmlns:ffdec="https://www.free-decompiler.com/flash" xmlns:xlink="http://www.w3.org/1999/xlink" ffdec:objectType="shape" height="36.2px" width="48.95px" xmlns="http://www.w3.org/2000/svg">
  <g transform="matrix(1.0, 0.0, 0.0, 1.0, -11.75, -0.65)">
    <path d="M26.55 0.65 Q32.65 0.75 38.15 3.6 L39.7 3.75 Q44.5 2.25 49.0 2.6 51.65 2.8 52.55 5.5 55.25 13.45 60.25 20.3 61.0 21.45 60.55 22.85 58.7 28.7 52.35 28.95 47.45 29.15 48.85 31.5 50.3 33.85 44.7 35.95 39.05 38.05 36.3 35.35 33.5 32.65 30.0 31.3 26.55 29.9 21.4 31.7 16.2 33.55 13.05 29.0 9.8 24.5 14.75 20.95 19.75 17.35 15.0 13.75 10.25 10.1 17.2 5.85 24.2 1.55 26.55 0.65" fill="#af8858" fill-rule="evenodd" stroke="none"/>
  </g>
</svg>
