<?xml version="1.0" encoding="UTF-8" standalone="no"?>
<svg xmlns:ffdec="https://www.free-decompiler.com/flash" xmlns:xlink="http://www.w3.org/1999/xlink" ffdec:objectType="shape" height="40.2px" width="642.0px" xmlns="http://www.w3.org/2000/svg">
  <g transform="matrix(1.0, 0.0, 0.0, 1.0, -0.75, -116.25)">
    <path d="M639.95 152.6 Q635.45 148.9 630.85 145.5 615.85 134.45 606.85 132.65 598.65 130.95 596.65 137.4 587.05 130.35 580.85 128.95 570.9 126.8 570.9 139.8 570.9 140.5 574.4 144.1 562.6 137.15 555.0 135.75 544.55 133.8 543.05 142.7 L542.6 142.45 Q538.1 140.05 537.0 140.05 534.35 140.05 529.95 143.35 L525.85 146.65 Q521.1 146.65 515.1 144.4 509.1 142.15 506.85 142.15 502.05 142.15 499.45 143.9 497.6 145.15 495.4 148.75 494.15 148.55 487.2 144.7 480.65 141.1 477.55 141.1 L477.1 141.1 Q469.25 137.7 463.15 136.2 451.45 133.3 448.15 137.95 L447.9 137.95 Q443.9 137.95 440.75 141.25 438.9 143.2 437.0 146.9 L427.45 144.0 Q421.55 142.15 420.75 142.15 415.1 142.15 408.6 149.3 405.25 153.0 403.7 155.6 L398.7 152.2 Q388.95 145.5 383.4 142.65 365.8 133.55 365.6 148.9 L365.5 149.0 363.4 152.75 362.2 152.0 Q346.5 140.05 339.1 136.55 325.95 130.25 325.95 145.2 L330.55 149.8 Q315.35 143.0 305.6 141.55 297.45 140.35 294.05 143.1 283.6 136.95 276.7 135.6 265.45 133.4 265.45 144.55 265.45 145.4 273.15 152.45 L270.0 150.8 Q261.45 146.35 256.55 146.35 251.3 146.35 248.05 150.75 L244.85 156.45 237.4 154.2 232.1 152.55 Q231.0 152.55 227.5 154.25 L224.25 155.95 Q223.35 155.95 210.75 147.5 198.1 139.0 194.6 139.0 188.05 139.0 185.45 144.65 184.7 146.35 184.25 148.7 L183.8 150.95 Q178.25 149.15 165.3 143.45 157.6 140.05 151.8 140.05 147.4 140.05 143.6 142.85 140.6 145.6 139.85 145.6 137.4 145.6 130.85 141.1 L119.25 133.45 Q112.6 129.75 109.2 131.35 106.95 132.4 105.9 135.75 97.95 131.1 92.35 130.15 81.95 128.3 81.95 140.05 L84.0 142.2 83.05 141.6 Q48.0 119.35 46.6 137.2 L46.55 137.2 Q42.7 137.45 39.15 141.5 L38.15 142.7 35.05 140.7 Q22.6 132.9 15.0 132.65 5.85 132.35 5.85 143.2 5.85 146.6 7.05 148.4 L7.3 148.75 Q3.75 149.55 1.75 152.5 L0.75 154.3 0.75 116.25 642.75 116.25 642.75 153.85 639.95 152.6" fill="#69422f" fill-rule="evenodd" stroke="none"/>
  </g>
</svg>
