<?xml version="1.0" encoding="UTF-8" standalone="no"?>
<svg xmlns:ffdec="https://www.free-decompiler.com/flash" xmlns:xlink="http://www.w3.org/1999/xlink" ffdec:objectType="shape" height="34.2px" width="46.25px" xmlns="http://www.w3.org/2000/svg">
  <g transform="matrix(1.0, 0.0, 0.0, 1.0, 0.0, 0.0)">
    <path d="M36.7 5.15 L38.0 7.0 Q39.0 8.3 41.4 12.85 43.7 17.4 45.35 19.4 47.0 21.4 45.55 22.85 44.15 24.25 41.4 25.0 38.7 25.75 35.45 27.85 32.3 29.95 27.7 30.05 23.1 30.15 21.55 31.8 17.35 36.5 13.15 32.0 9.65 28.25 10.35 23.0 10.9 19.45 4.7 17.2 -1.45 14.9 0.45 10.8 2.35 6.65 7.65 4.45 12.9 2.3 17.7 0.95 L23.35 0.3 26.0 0.0 31.55 0.25 Q33.8 0.3 35.1 2.5 L36.7 5.15" fill="#85532d" fill-rule="evenodd" stroke="none"/>
  </g>
</svg>
