<?xml version="1.0" encoding="UTF-8" standalone="no"?>
<svg xmlns:ffdec="https://www.free-decompiler.com/flash" xmlns:xlink="http://www.w3.org/1999/xlink" ffdec:objectType="shape" height="36.3px" width="49.15px" xmlns="http://www.w3.org/2000/svg">
  <g transform="matrix(1.0, 0.0, 0.0, 1.0, 1.45, 1.0)">
    <path d="M37.55 4.45 L38.95 6.4 Q40.0 7.8 42.55 12.65 45.0 17.45 46.75 19.6 48.5 21.75 46.95 23.25 45.45 24.75 42.55 25.55 39.65 26.35 36.25 28.6 32.85 30.8 28.0 30.9 23.1 31.0 21.45 32.75 17.0 37.75 12.55 32.95 8.8 29.0 9.55 23.4 10.15 19.65 3.55 17.25 -3.0 14.85 -1.0 10.45 1.05 6.0 6.7 3.7 12.25 1.4 17.35 0.0 L23.4 -0.7 26.2 -1.0 32.1 -0.8 Q34.45 -0.7 35.85 1.65 L37.55 4.45" fill="#693308" fill-rule="evenodd" stroke="none"/>
  </g>
</svg>
