<?xml version="1.0" encoding="UTF-8" standalone="no"?>
<svg xmlns:ffdec="https://www.free-decompiler.com/flash" xmlns:xlink="http://www.w3.org/1999/xlink" ffdec:objectType="shape" height="49.3px" width="70.45px" xmlns="http://www.w3.org/2000/svg">
  <g transform="matrix(1.0, 0.0, 0.0, 1.0, 0.4, 0.0)">
    <path d="M39.5 0.25 Q42.2 -0.65 43.85 1.85 L47.25 6.15 Q48.9 7.95 51.85 9.7 54.8 11.5 59.9 17.7 64.85 23.95 68.0 26.65 71.05 29.4 69.6 31.5 68.0 33.55 64.3 34.85 60.6 36.05 56.75 39.2 52.85 42.3 46.2 42.75 39.6 43.2 37.95 45.6 33.5 52.5 25.8 46.45 19.4 41.45 18.55 34.0 18.0 29.0 8.25 26.3 -1.55 23.45 -0.25 17.5 1.0 11.55 7.9 8.15 14.75 4.8 21.25 2.55 L29.2 1.25 32.95 0.7 39.5 0.25" fill="#85532d" fill-rule="evenodd" stroke="none"/>
  </g>
</svg>
