<?xml version="1.0" encoding="UTF-8" standalone="no"?>
<svg xmlns:ffdec="https://www.free-decompiler.com/flash" xmlns:xlink="http://www.w3.org/1999/xlink" ffdec:objectType="shape" height="52.1px" width="74.65px" xmlns="http://www.w3.org/2000/svg">
  <g transform="matrix(1.0, 0.0, 0.0, 1.0, 2.5, 1.35)">
    <path d="M39.75 -1.1 Q42.6 -2.05 44.4 0.6 L47.95 5.15 Q49.7 7.0 52.85 8.9 55.95 10.8 61.3 17.4 66.65 23.95 69.95 26.85 73.25 29.75 71.55 31.95 69.9 34.2 66.0 35.55 62.1 36.8 58.0 40.15 53.9 43.4 46.85 43.9 39.85 44.35 38.15 46.9 33.4 54.15 25.25 47.8 18.45 42.5 17.6 34.65 17.0 29.35 6.65 26.45 -3.7 23.5 -2.35 17.2 -1.05 10.85 6.3 7.25 13.6 3.7 20.4 1.35 L28.85 -0.05 32.8 -0.6 39.75 -1.1" fill="#693308" fill-rule="evenodd" stroke="none"/>
  </g>
</svg>
