<?xml version="1.0" encoding="UTF-8" standalone="no"?>
<svg xmlns:ffdec="https://www.free-decompiler.com/flash" xmlns:xlink="http://www.w3.org/1999/xlink" ffdec:objectType="shape" height="51.2px" width="52.6px" xmlns="http://www.w3.org/2000/svg">
  <g transform="matrix(1.0, 0.0, 0.0, 1.0, -5.45, -6.75)">
    <path d="M8.5 28.3 Q13.95 22.7 13.9 15.6 13.85 8.5 18.8 6.9 27.3 6.1 32.1 10.4 36.95 14.7 40.35 14.65 54.4 14.5 57.65 27.1 59.4 34.05 53.7 40.4 49.6 44.85 42.9 46.8 40.0 49.1 38.35 52.55 36.6 55.9 32.0 57.5 27.35 59.05 24.7 55.1 22.05 51.1 16.65 49.7 11.25 48.3 7.2 41.05 3.1 33.8 8.5 28.3" fill="#af8858" fill-rule="evenodd" stroke="none"/>
  </g>
</svg>
