<?xml version="1.0" encoding="UTF-8" standalone="no"?>
<svg xmlns:ffdec="https://www.free-decompiler.com/flash" xmlns:xlink="http://www.w3.org/1999/xlink" ffdec:objectType="shape" height="55.95px" width="57.5px" xmlns="http://www.w3.org/2000/svg">
  <g transform="matrix(1.0, 0.0, 0.0, 1.0, -3.1, -4.5)">
    <path d="M6.5 28.0 Q12.4 21.9 12.35 14.15 12.3 6.35 17.7 4.65 27.0 3.75 32.25 8.45 37.55 13.2 41.3 13.1 56.65 12.95 60.15 26.75 62.1 34.3 55.85 41.25 51.35 46.1 44.05 48.25 40.9 50.75 39.1 54.5 37.2 58.25 32.15 59.95 27.05 61.65 24.2 57.35 21.25 52.95 15.4 51.45 9.45 49.9 5.05 41.95 0.55 34.05 6.5 28.0" fill="#af8858" fill-rule="evenodd" stroke="none"/>
  </g>
</svg>
