<?xml version="1.0" encoding="UTF-8" standalone="no"?>
<svg xmlns:ffdec="https://www.free-decompiler.com/flash" xmlns:xlink="http://www.w3.org/1999/xlink" ffdec:objectType="shape" height="49.15px" width="54.15px" xmlns="http://www.w3.org/2000/svg">
  <g transform="matrix(1.0, 0.0, 0.0, 1.0, -0.3, -0.5)">
    <path d="M12.8 2.45 Q15.7 0.75 18.9 0.5 32.2 0.45 38.05 12.2 L41.2 18.6 Q45.0 26.7 51.95 32.55 L54.15 34.95 Q55.75 36.85 48.85 37.9 41.95 38.85 35.75 40.25 32.65 41.6 29.85 43.35 26.1 45.7 22.5 48.55 19.9 50.6 16.6 48.9 L12.25 46.45 Q10.0 45.05 7.35 45.65 L4.05 45.9 Q2.45 45.75 1.2 44.1 -0.1 42.45 2.5 40.7 5.1 39.0 4.95 36.1 4.75 33.1 3.35 31.5 1.95 29.8 1.05 25.2 0.15 20.6 0.35 15.85 0.5 11.1 4.15 10.35 5.65 10.1 6.95 9.4 11.4 7.75 11.15 5.7 10.85 3.6 12.8 2.45" fill="#85532d" fill-rule="evenodd" stroke="none"/>
  </g>
</svg>
