<?xml version="1.0" encoding="UTF-8" standalone="no"?>
<svg xmlns:ffdec="https://www.free-decompiler.com/flash" xmlns:xlink="http://www.w3.org/1999/xlink" ffdec:objectType="shape" height="43.55px" width="42.05px" xmlns="http://www.w3.org/2000/svg">
  <g transform="matrix(1.0, 0.0, 0.0, 1.0, -2.75, -3.85)">
    <path d="M13.6 9.8 L13.6 9.55 13.55 8.85 Q13.45 7.85 13.8 7.0 14.25 5.85 15.0 4.9 15.5 4.2 16.2 4.15 31.35 2.15 36.75 14.15 39.5 20.25 40.0 27.35 41.55 28.1 43.95 31.75 46.4 35.4 41.6 36.2 36.85 36.95 32.15 38.7 27.4 40.5 25.85 43.5 22.8 49.5 19.1 46.3 15.35 43.1 13.15 43.35 3.4 43.5 6.15 37.75 8.9 31.95 7.65 30.25 6.4 28.45 3.35 20.15 0.25 11.8 13.6 10.25 L13.6 9.8" fill="#af8858" fill-rule="evenodd" stroke="none"/>
  </g>
</svg>
