<?xml version="1.0" encoding="UTF-8" standalone="no"?>
<svg xmlns:ffdec="https://www.free-decompiler.com/flash" xmlns:xlink="http://www.w3.org/1999/xlink" ffdec:objectType="shape" height="51.6px" width="56.85px" xmlns="http://www.w3.org/2000/svg">
  <g transform="matrix(1.0, 0.0, 0.0, 1.0, 1.05, 0.7)">
    <path d="M12.1 1.35 Q15.15 -0.45 18.5 -0.7 32.45 -0.75 38.6 11.55 L41.9 18.3 Q45.9 26.8 53.2 32.95 L55.5 35.45 Q57.15 37.45 49.95 38.55 42.7 39.6 36.15 41.05 32.95 42.45 30.0 44.3 26.1 46.75 22.3 49.75 19.55 51.9 16.1 50.1 L11.5 47.5 Q9.15 46.05 6.4 46.7 L2.9 46.95 Q1.2 46.8 -0.1 45.05 -1.45 43.35 1.3 41.5 4.0 39.7 3.85 36.65 3.65 33.55 2.2 31.8 0.7 30.05 -0.25 25.2 -1.2 20.4 -1.0 15.45 -0.8 10.45 3.0 9.65 4.55 9.35 5.95 8.65 10.65 6.9 10.35 4.75 10.05 2.55 12.1 1.35" fill="#693308" fill-rule="evenodd" stroke="none"/>
  </g>
</svg>
