<?xml version="1.0" encoding="UTF-8" standalone="no"?>
<svg xmlns:ffdec="https://www.free-decompiler.com/flash" xmlns:xlink="http://www.w3.org/1999/xlink" ffdec:objectType="shape" height="45.7px" width="44.1px" xmlns="http://www.w3.org/2000/svg">
  <g transform="matrix(1.0, 0.0, 0.0, 1.0, -1.55, -2.8)">
    <path d="M12.9 9.0 L12.9 8.75 12.85 8.05 Q12.75 7.0 13.15 6.1 13.6 4.9 14.4 3.9 14.9 3.15 15.65 3.1 31.55 1.0 37.25 13.6 40.1 19.95 40.65 27.45 42.25 28.25 44.8 32.1 47.3 35.9 42.3 36.75 37.3 37.5 32.35 39.35 27.4 41.25 25.75 44.4 22.55 50.7 18.7 47.35 14.75 44.0 12.45 44.25 2.2 44.4 5.05 38.4 7.95 32.3 6.65 30.5 5.35 28.6 2.15 19.9 -1.1 11.15 12.9 9.5 L12.9 9.0" fill="#af8858" fill-rule="evenodd" stroke="none"/>
  </g>
</svg>
