<?xml version="1.0" encoding="UTF-8" standalone="no"?>
<svg xmlns:ffdec="https://www.free-decompiler.com/flash" xmlns:xlink="http://www.w3.org/1999/xlink" ffdec:objectType="shape" height="37.9px" width="52.95px" xmlns="http://www.w3.org/2000/svg">
  <g transform="matrix(1.0, 0.0, 0.0, 1.0, -0.8, 0.3)">
    <path d="M35.25 36.3 Q33.95 38.2 31.65 37.35 29.4 36.5 27.45 36.1 25.5 35.8 22.7 36.05 19.95 36.3 13.7 34.6 7.45 32.95 4.1 32.7 0.85 32.45 0.8 30.3 0.8 28.2 2.6 25.65 4.45 23.05 5.45 19.2 6.55 15.25 10.6 11.85 14.7 8.4 14.6 6.05 14.25 -0.55 22.15 -0.3 28.7 -0.1 32.75 4.35 35.5 7.3 43.15 4.45 50.85 1.6 52.85 6.1 54.95 10.55 52.05 16.05 49.2 21.55 46.05 26.05 L41.45 30.7 39.3 32.85 Q36.15 35.15 35.25 36.3" fill="#85532d" fill-rule="evenodd" stroke="none"/>
  </g>
</svg>
