<?xml version="1.0" encoding="UTF-8" standalone="no"?>
<svg xmlns:ffdec="https://www.free-decompiler.com/flash" xmlns:xlink="http://www.w3.org/1999/xlink" ffdec:objectType="shape" height="37.95px" width="644.05px" xmlns="http://www.w3.org/2000/svg">
  <g transform="matrix(1.0, 0.0, 0.0, 1.0, 3.0, -304.55)">
    <path d="M581.1 324.85 Q582.85 322.5 583.25 319.95 593.1 327.75 600.6 327.75 605.95 327.75 609.0 324.1 611.6 321.05 611.6 317.0 L612.75 317.1 616.1 320.15 Q627.45 329.85 636.7 329.85 639.15 329.85 641.05 329.05 L640.8 340.15 640.85 340.65 Q636.4 343.4 629.1 341.4 L594.85 342.5 62.65 341.4 Q4.6 339.2 1.1 336.85 0.55 336.85 -0.95 333.0 -2.45 329.15 -2.9 326.6 L-3.0 323.05 10.65 309.0 12.9 311.35 Q24.0 322.5 37.65 322.5 42.9 322.5 46.1 319.35 48.3 317.15 48.9 314.25 56.35 316.2 63.15 316.2 67.85 316.2 71.0 313.2 74.1 310.2 74.15 305.9 99.75 319.35 111.7 319.35 118.1 319.35 121.15 315.15 122.55 313.3 123.0 311.2 L128.75 313.75 Q139.65 318.4 150.55 321.5 161.35 324.6 166.55 324.6 171.7 324.6 174.85 320.95 177.45 317.9 177.45 314.45 200.4 325.65 210.9 325.65 216.3 325.65 219.2 321.2 220.5 319.25 221.0 317.35 244.15 327.75 253.7 327.75 260.05 327.75 263.05 323.6 265.1 320.75 265.1 317.25 265.1 314.45 254.15 307.95 251.65 306.45 249.0 305.05 L254.3 305.05 Q257.05 307.15 260.3 309.25 267.7 314.05 274.1 316.55 286.3 325.65 295.95 325.65 301.05 325.65 304.2 322.0 306.85 318.9 306.85 315.3 306.85 313.4 299.35 306.95 L299.25 306.9 306.05 308.5 Q307.25 308.75 322.85 315.4 336.9 321.45 344.0 321.45 346.85 321.45 349.1 320.35 352.95 320.1 355.65 317.7 L368.9 323.45 Q381.8 328.8 384.7 328.8 386.15 328.8 389.9 326.45 393.65 324.1 394.15 324.1 394.9 324.1 399.7 325.95 404.5 327.75 407.0 327.75 413.55 327.75 416.45 323.6 417.55 322.05 418.1 320.1 L424.35 320.4 Q431.7 320.4 434.95 316.55 437.3 313.75 437.3 309.15 L437.05 306.5 443.1 311.1 Q465.6 327.75 477.5 327.75 481.8 327.75 484.6 325.55 488.5 325.0 491.05 322.0 493.65 318.95 493.65 315.3 493.65 312.9 485.35 305.8 L483.85 304.55 487.3 304.55 489.4 306.6 Q494.1 310.9 499.7 314.95 515.95 326.7 527.1 326.7 532.0 326.7 535.0 323.05 536.8 320.8 537.3 318.3 542.8 320.4 549.55 320.4 L551.35 320.35 Q563.6 328.8 573.05 328.8 578.15 328.8 581.1 324.85" fill="#4d2e20" fill-rule="evenodd" stroke="none"/>
  </g>
</svg>
