<?xml version="1.0" encoding="UTF-8" standalone="no"?>
<svg xmlns:ffdec="https://www.free-decompiler.com/flash" xmlns:xlink="http://www.w3.org/1999/xlink" ffdec:objectType="shape" height="40.1px" width="56.0px" xmlns="http://www.w3.org/2000/svg">
  <g transform="matrix(1.0, 0.0, 0.0, 1.0, 0.75, 1.4)">
    <path d="M35.7 37.3 Q34.3 39.3 31.9 38.4 L27.4 37.15 Q25.35 36.8 22.4 37.05 19.55 37.3 12.85 35.6 6.25 33.85 2.75 33.55 -0.7 33.25 -0.75 31.0 -0.7 28.8 1.2 26.05 3.1 23.35 4.2 19.2 5.3 15.1 9.65 11.45 14.0 7.8 13.85 5.35 13.5 -1.65 21.8 -1.4 28.8 -1.2 33.1 3.5 36.0 6.65 44.1 3.65 52.25 0.65 54.35 5.35 56.55 10.1 53.45 15.95 50.45 21.75 47.1 26.5 L42.3 31.4 40.0 33.65 Q36.65 36.15 35.7 37.3" fill="#693308" fill-rule="evenodd" stroke="none"/>
  </g>
</svg>
