<?xml version="1.0" encoding="UTF-8" standalone="no"?>
<svg xmlns:ffdec="https://www.free-decompiler.com/flash" xmlns:xlink="http://www.w3.org/1999/xlink" ffdec:objectType="shape" height="60.5px" width="65.65px" xmlns="http://www.w3.org/2000/svg">
  <g transform="matrix(1.0, 0.0, 0.0, 1.0, -0.55, 0.2)">
    <path d="M56.0 52.9 L48.9 58.85 Q46.5 61.05 42.0 59.95 38.0 59.1 34.85 57.3 22.25 65.15 14.7 48.4 7.15 31.7 2.35 24.85 -2.45 18.1 5.4 15.45 13.25 12.9 17.35 8.8 L21.2 4.4 Q27.1 -3.65 35.45 2.4 39.45 5.35 48.2 6.6 L52.5 6.35 Q62.3 6.15 65.05 13.2 67.85 20.35 63.7 25.55 59.45 30.7 60.9 30.75 61.95 33.4 62.65 36.45 63.35 39.55 62.0 44.3 60.6 49.25 56.0 52.9" fill="#85532d" fill-rule="evenodd" stroke="none"/>
  </g>
</svg>
