<?xml version="1.0" encoding="UTF-8" standalone="no"?>
<svg xmlns:ffdec="https://www.free-decompiler.com/flash" xmlns:xlink="http://www.w3.org/1999/xlink" ffdec:objectType="shape" height="51.65px" width="51.25px" xmlns="http://www.w3.org/2000/svg">
  <g transform="matrix(1.0, 0.0, 0.0, 1.0, -9.55, -5.3)">
    <path d="M46.05 56.95 Q39.6 56.85 33.75 52.85 L32.1 52.7 Q27.1 54.95 22.4 54.5 19.65 54.2 18.6 50.4 15.55 39.05 10.15 29.3 9.25 27.75 9.7 25.7 11.5 17.35 18.1 16.9 23.25 16.5 21.7 13.15 20.15 9.8 25.95 6.65 31.8 3.6 34.8 7.4 37.75 11.2 41.5 13.1 45.2 15.1 50.5 12.35 55.9 9.7 59.35 16.1 62.9 22.5 57.75 27.7 52.65 32.9 57.75 37.95 62.85 43.1 55.65 49.3 48.5 55.6 46.05 56.95" fill="#af8858" fill-rule="evenodd" stroke="none"/>
  </g>
</svg>
