<?xml version="1.0" encoding="UTF-8" standalone="no"?>
<svg xmlns:ffdec="https://www.free-decompiler.com/flash" xmlns:xlink="http://www.w3.org/1999/xlink" ffdec:objectType="shape" height="64.7px" width="69.8px" xmlns="http://www.w3.org/2000/svg">
  <g transform="matrix(1.0, 0.0, 0.0, 1.0, 1.55, 2.3)">
    <path d="M57.4 54.5 L49.9 60.85 Q47.3 63.15 42.5 62.05 38.3 61.1 34.95 59.15 21.45 67.6 13.45 49.65 5.45 31.8 0.35 24.5 -4.7 17.25 3.55 14.45 11.95 11.65 16.35 7.3 L20.4 2.65 Q26.7 -6.0 35.55 0.5 39.8 3.6 49.15 4.95 L53.7 4.75 Q64.15 4.5 67.05 12.05 70.05 19.7 65.55 25.2 61.15 30.75 62.65 30.8 63.75 33.65 64.5 36.9 65.25 40.15 63.85 45.3 62.35 50.55 57.4 54.5" fill="#693308" fill-rule="evenodd" stroke="none"/>
  </g>
</svg>
