<?xml version="1.0" encoding="UTF-8" standalone="no"?>
<svg xmlns:ffdec="https://www.free-decompiler.com/flash" xmlns:xlink="http://www.w3.org/1999/xlink" ffdec:objectType="shape" height="40.2px" width="642.0px" xmlns="http://www.w3.org/2000/svg">
  <g transform="matrix(1.0, 0.0, 0.0, 1.0, 0.9, -230.85)">
    <path d="M638.3 267.2 L629.2 260.1 Q614.2 249.05 605.2 247.25 597.0 245.55 595.0 252.0 585.4 244.95 579.2 243.55 569.25 241.4 569.25 254.4 569.25 255.1 572.75 258.7 560.95 251.75 553.35 250.35 542.9 248.4 541.4 257.3 L540.95 257.05 Q536.45 254.65 535.35 254.65 532.7 254.65 528.3 257.95 L524.2 261.25 Q519.45 261.25 513.45 259.0 507.45 256.75 505.2 256.75 500.4 256.75 497.8 258.5 495.95 259.75 493.75 263.35 492.5 263.15 485.55 259.3 479.0 255.7 475.9 255.7 L475.45 255.7 Q467.6 252.3 461.5 250.8 449.8 247.9 446.5 252.55 L446.25 252.55 Q442.25 252.55 439.1 255.85 437.25 257.8 435.35 261.5 L425.8 258.6 Q419.9 256.75 419.1 256.75 413.45 256.75 406.95 263.9 403.6 267.6 402.05 270.2 L397.05 266.8 Q387.3 260.1 381.75 257.25 364.15 248.15 363.95 263.5 L363.85 263.6 361.75 267.35 360.55 266.6 Q344.85 254.65 337.45 251.15 324.3 244.85 324.3 259.8 L328.9 264.4 Q313.7 257.6 303.95 256.15 295.8 254.95 292.4 257.7 281.95 251.55 275.05 250.2 263.8 248.0 263.8 259.15 263.8 260.0 271.5 267.05 L268.35 265.4 Q259.8 260.95 254.9 260.95 249.65 260.95 246.4 265.35 L243.2 271.05 235.75 268.8 230.45 267.15 Q229.35 267.15 225.85 268.85 L222.6 270.55 Q221.7 270.55 209.1 262.1 196.45 253.6 192.95 253.6 186.4 253.6 183.8 259.25 183.05 260.95 182.6 263.3 L182.15 265.55 Q176.6 263.75 163.65 258.05 155.95 254.65 150.15 254.65 145.75 254.65 141.95 257.45 138.95 260.2 138.2 260.2 135.75 260.2 129.2 255.7 119.75 249.2 117.6 248.05 110.95 244.35 107.55 245.95 105.3 247.0 104.25 250.35 96.3 245.7 90.7 244.75 80.3 242.9 80.3 254.65 L82.35 256.8 81.4 256.2 Q46.35 233.95 44.95 251.8 L44.9 251.8 Q41.05 252.05 37.5 256.1 L36.5 257.3 33.4 255.3 Q20.95 247.5 13.35 247.25 4.2 246.95 4.2 257.8 4.2 261.2 5.4 263.0 L5.65 263.35 Q2.1 264.15 0.1 267.1 L-0.9 268.9 -0.9 230.85 641.1 230.85 641.1 268.45 638.3 267.2" fill="#69422f" fill-rule="evenodd" stroke="none"/>
  </g>
</svg>
