<?xml version="1.0" encoding="UTF-8" standalone="no"?>
<svg xmlns:ffdec="https://www.free-decompiler.com/flash" xmlns:xlink="http://www.w3.org/1999/xlink" ffdec:objectType="shape" height="55.2px" width="54.6px" xmlns="http://www.w3.org/2000/svg">
  <g transform="matrix(1.0, 0.0, 0.0, 1.0, -8.0, -3.6)">
    <path d="M46.8 58.8 Q39.95 58.7 33.8 54.45 L32.05 54.3 Q26.7 56.7 21.7 56.15 18.75 55.9 17.65 51.85 14.35 39.7 8.6 29.3 7.7 27.6 8.2 25.4 10.1 16.5 17.15 16.0 22.6 15.6 20.95 11.95 19.3 8.4 25.45 5.05 31.7 1.8 34.9 5.85 38.05 9.95 42.0 12.0 45.9 14.05 51.6 11.15 57.35 8.3 61.05 15.1 64.8 22.0 59.35 27.55 53.9 33.1 59.3 38.5 64.75 44.0 57.05 50.65 49.45 57.35 46.8 58.8" fill="#af8858" fill-rule="evenodd" stroke="none"/>
  </g>
</svg>
