<?xml version="1.0" encoding="UTF-8" standalone="no"?>
<svg xmlns:ffdec="https://www.free-decompiler.com/flash" xmlns:xlink="http://www.w3.org/1999/xlink" ffdec:objectType="shape" height="37.75px" width="38.8px" xmlns="http://www.w3.org/2000/svg">
  <g transform="matrix(1.0, 0.0, 0.0, 1.0, -3.8, -4.75)">
    <path d="M6.05 20.65 Q10.05 16.5 10.05 11.3 10.0 6.05 13.65 4.85 19.9 4.25 23.45 7.45 27.0 10.6 29.55 10.6 39.9 10.45 42.3 19.75 43.6 24.9 39.4 29.55 36.35 32.85 31.4 34.3 29.3 35.95 28.05 38.5 26.8 41.0 23.4 42.15 19.95 43.35 18.0 40.4 16.05 37.45 12.1 36.4 8.1 35.4 5.1 30.05 2.1 24.7 6.05 20.65" fill="#af8858" fill-rule="evenodd" stroke="none"/>
  </g>
</svg>
