<?xml version="1.0" encoding="UTF-8" standalone="no"?>
<svg xmlns:ffdec="https://www.free-decompiler.com/flash" xmlns:xlink="http://www.w3.org/1999/xlink" ffdec:objectType="shape" height="43.45px" width="44.65px" xmlns="http://www.w3.org/2000/svg">
  <g transform="matrix(1.0, 0.0, 0.0, 1.0, -1.0, -2.1)">
    <path d="M8.15 9.6 Q8.1 3.55 12.3 2.2 19.55 1.55 23.6 5.2 27.7 8.85 30.65 8.8 42.55 8.65 45.3 19.35 46.8 25.25 41.95 30.65 38.45 34.4 32.8 36.1 30.35 38.0 28.9 40.95 27.45 43.8 23.55 45.15 19.6 46.5 17.35 43.15 15.05 39.75 10.5 38.55 5.9 37.35 2.5 31.2 -1.0 25.05 3.6 20.35 8.2 15.65 8.15 9.6" fill="#af8858" fill-rule="evenodd" stroke="none"/>
  </g>
</svg>
