<?xml version="1.0" encoding="UTF-8" standalone="no"?>
<svg xmlns:ffdec="https://www.free-decompiler.com/flash" xmlns:xlink="http://www.w3.org/1999/xlink" ffdec:objectType="shape" height="32.4px" width="31.25px" xmlns="http://www.w3.org/2000/svg">
  <g transform="matrix(1.0, 0.0, 0.0, 1.0, -2.8, -3.8)">
    <path d="M11.25 7.8 Q16.3 8.35 20.0 5.55 23.7 2.6 26.5 4.6 30.35 8.65 30.05 12.95 29.7 17.15 31.1 18.95 36.8 26.2 31.55 32.95 28.6 36.6 23.0 36.15 19.05 35.8 15.35 33.1 13.0 32.5 10.55 33.05 8.1 33.5 5.45 31.75 2.75 29.9 3.75 26.95 4.75 24.0 3.35 20.6 1.95 17.2 4.05 12.2 6.2 7.15 11.25 7.8" fill="#af8858" fill-rule="evenodd" stroke="none"/>
  </g>
</svg>
