<?xml version="1.0" encoding="UTF-8" standalone="no"?>
<svg xmlns:ffdec="https://www.free-decompiler.com/flash" xmlns:xlink="http://www.w3.org/1999/xlink" ffdec:objectType="shape" height="35.25px" width="33.95px" xmlns="http://www.w3.org/2000/svg">
  <g transform="matrix(1.0, 0.0, 0.0, 1.0, -1.35, -2.5)">
    <path d="M10.55 6.8 Q16.05 7.5 20.05 4.35 24.05 1.25 27.1 3.4 31.25 7.85 30.9 12.45 30.6 17.05 32.1 18.95 38.3 26.85 32.55 34.15 29.4 38.2 23.35 37.7 19.05 37.25 15.0 34.35 12.45 33.7 9.75 34.25 7.1 34.8 4.2 32.85 1.3 30.9 2.4 27.7 3.5 24.45 1.95 20.8 0.45 17.05 2.8 11.65 5.1 6.15 10.55 6.8" fill="#af8858" fill-rule="evenodd" stroke="none"/>
  </g>
</svg>
