<?xml version="1.0" encoding="UTF-8" standalone="no"?>
<svg xmlns:ffdec="https://www.free-decompiler.com/flash" xmlns:xlink="http://www.w3.org/1999/xlink" ffdec:objectType="shape" height="60.5px" width="65.65px" xmlns="http://www.w3.org/2000/svg">
  <g transform="matrix(1.0, 0.0, 0.0, 1.0, 0.45, 0.0)">
    <path d="M55.0 53.1 L47.9 59.05 Q45.5 61.25 41.0 60.15 37.0 59.3 33.85 57.5 21.25 65.35 13.7 48.6 6.15 31.9 1.35 25.05 -3.45 18.3 4.4 15.65 12.25 13.1 16.35 9.0 L20.2 4.6 Q26.1 -3.45 34.45 2.6 38.45 5.55 47.2 6.8 L51.5 6.55 Q61.3 6.35 64.05 13.4 66.85 20.55 62.7 25.75 58.45 30.9 59.9 30.95 60.95 33.6 61.65 36.65 62.35 39.75 61.0 44.5 59.6 49.45 55.0 53.1" fill="#85532d" fill-rule="evenodd" stroke="none"/>
  </g>
</svg>
