<?xml version="1.0" encoding="UTF-8" standalone="no"?>
<svg xmlns:ffdec="https://www.free-decompiler.com/flash" xmlns:xlink="http://www.w3.org/1999/xlink" ffdec:objectType="shape" height="51.65px" width="51.25px" xmlns="http://www.w3.org/2000/svg">
  <g transform="matrix(1.0, 0.0, 0.0, 1.0, -8.55, -5.3)">
    <path d="M45.05 56.95 Q38.6 56.85 32.75 52.9 32.0 52.35 31.1 52.7 26.1 54.95 21.4 54.5 18.65 54.2 17.6 50.4 14.55 39.05 9.15 29.35 8.25 27.8 8.7 25.7 10.5 17.35 17.1 16.9 22.25 16.5 20.7 13.15 19.15 9.8 24.95 6.65 30.8 3.6 33.8 7.4 36.75 11.2 40.5 13.1 44.2 15.1 49.5 12.35 54.9 9.7 58.35 16.15 61.9 22.5 56.75 27.7 51.65 32.9 56.75 37.95 61.85 43.1 54.65 49.3 47.5 55.6 45.05 56.95" fill="#af8858" fill-rule="evenodd" stroke="none"/>
  </g>
</svg>
