<?xml version="1.0" encoding="UTF-8" standalone="no"?>
<svg xmlns:ffdec="https://www.free-decompiler.com/flash" xmlns:xlink="http://www.w3.org/1999/xlink" ffdec:objectType="shape" height="64.35px" width="69.85px" xmlns="http://www.w3.org/2000/svg">
  <g transform="matrix(1.0, 0.0, 0.0, 1.0, 2.55, 1.9)">
    <path d="M56.45 54.6 L48.95 60.85 Q46.35 63.25 41.55 62.1 37.35 61.15 33.95 59.25 20.5 67.55 12.5 49.8 4.5 32.0 -0.6 24.75 -5.7 17.55 2.6 14.75 11.0 12.0 15.4 7.65 L19.45 2.95 Q25.75 -5.6 34.6 0.85 38.85 3.95 48.2 5.3 L52.75 5.1 Q63.2 4.8 66.1 12.35 69.1 19.95 64.6 25.45 60.2 30.95 61.7 31.0 62.8 33.85 63.55 37.05 64.3 40.3 62.9 45.45 61.4 50.65 56.45 54.6" fill="#693308" fill-rule="evenodd" stroke="none"/>
  </g>
</svg>
