<?xml version="1.0" encoding="UTF-8" standalone="no"?>
<svg xmlns:ffdec="https://www.free-decompiler.com/flash" xmlns:xlink="http://www.w3.org/1999/xlink" ffdec:objectType="shape" height="54.9px" width="54.6px" xmlns="http://www.w3.org/2000/svg">
  <g transform="matrix(1.0, 0.0, 0.0, 1.0, -7.0, -3.7)">
    <path d="M45.8 58.6 Q38.95 58.5 32.8 54.25 L31.05 54.15 Q25.7 56.5 20.7 56.0 17.75 55.7 16.65 51.6 13.35 39.55 7.6 29.25 6.7 27.55 7.2 25.4 9.1 16.5 16.15 16.0 21.6 15.6 19.95 12.0 18.3 8.45 24.45 5.15 30.7 1.9 33.9 5.95 37.05 10.0 41.0 12.0 44.9 14.05 50.6 11.2 56.35 8.3 60.05 15.15 63.8 22.0 58.35 27.5 52.9 33.05 58.3 38.4 63.75 43.85 56.05 50.5 48.45 57.2 45.8 58.6" fill="#af8858" fill-rule="evenodd" stroke="none"/>
  </g>
</svg>
