<?xml version="1.0" encoding="UTF-8" standalone="no"?>
<svg xmlns:ffdec="https://www.free-decompiler.com/flash" xmlns:xlink="http://www.w3.org/1999/xlink" ffdec:objectType="shape" height="35.65px" width="50.15px" xmlns="http://www.w3.org/2000/svg">
  <g transform="matrix(1.0, 0.0, 0.0, 1.0, -4.1, -2.45)">
    <path d="M35.05 37.1 Q33.65 38.7 31.6 37.75 29.65 36.8 27.9 36.3 L23.55 35.75 Q21.05 35.75 15.45 33.7 9.95 31.6 6.9 31.1 3.95 30.55 4.1 28.65 4.3 26.7 6.2 24.5 8.1 22.35 9.35 18.85 10.65 15.45 14.7 12.6 18.7 9.85 18.85 7.7 19.1 1.65 26.25 2.6 32.25 3.3 35.6 7.75 37.8 10.7 45.05 8.75 52.35 6.85 53.75 11.15 55.25 15.4 52.15 20.15 49.05 24.9 45.75 28.7 L41.2 32.55 39.0 34.35 Q35.9 36.2 35.05 37.1" fill="#85532d" fill-rule="evenodd" stroke="none"/>
  </g>
</svg>
