<?xml version="1.0" encoding="UTF-8" standalone="no"?>
<svg xmlns:ffdec="https://www.free-decompiler.com/flash" xmlns:xlink="http://www.w3.org/1999/xlink" ffdec:objectType="shape" height="35.65px" width="50.15px" xmlns="http://www.w3.org/2000/svg">
  <g transform="matrix(1.0, 0.0, 0.0, 1.0, -2.75, -2.0)">
    <path d="M33.7 36.65 Q32.3 38.25 30.25 37.3 28.3 36.35 26.55 35.85 L22.2 35.3 Q19.7 35.3 14.1 33.25 8.6 31.15 5.55 30.65 2.6 30.1 2.75 28.2 2.95 26.25 4.85 24.05 6.75 21.9 8.0 18.4 9.3 15.0 13.35 12.15 17.35 9.4 17.5 7.25 17.75 1.2 24.9 2.15 30.9 2.85 34.25 7.3 36.45 10.25 43.7 8.3 51.0 6.4 52.4 10.7 53.9 14.95 50.8 19.7 47.7 24.45 44.4 28.25 L39.85 32.1 37.65 33.9 Q34.55 35.75 33.7 36.65" fill="#85532d" fill-rule="evenodd" stroke="none"/>
  </g>
</svg>
