<?xml version="1.0" encoding="UTF-8" standalone="no"?>
<svg xmlns:ffdec="https://www.free-decompiler.com/flash" xmlns:xlink="http://www.w3.org/1999/xlink" ffdec:objectType="shape" height="37.95px" width="644.05px" xmlns="http://www.w3.org/2000/svg">
  <g transform="matrix(1.0, 0.0, 0.0, 1.0, 3.0, -419.75)">
    <path d="M581.1 440.05 Q582.85 437.7 583.25 435.15 593.1 442.95 600.6 442.95 605.95 442.95 609.0 439.3 611.6 436.25 611.6 432.2 L612.75 432.3 616.1 435.35 Q627.45 445.05 636.7 445.05 639.15 445.05 641.05 444.25 L640.8 455.35 640.85 455.85 Q636.4 458.6 629.1 456.6 L594.85 457.7 62.65 456.6 Q4.6 454.4 1.1 452.05 0.55 452.05 -0.95 448.2 -2.45 444.35 -2.9 441.8 L-3.0 438.25 10.65 424.2 12.9 426.55 Q24.0 437.7 37.65 437.7 42.9 437.7 46.1 434.55 48.3 432.35 48.9 429.45 56.35 431.4 63.15 431.4 67.85 431.4 71.0 428.4 74.1 425.4 74.15 421.1 99.75 434.55 111.7 434.55 118.1 434.55 121.15 430.35 122.55 428.5 123.0 426.4 L128.75 428.95 Q139.65 433.6 150.55 436.7 161.35 439.8 166.55 439.8 171.7 439.8 174.85 436.15 177.45 433.1 177.45 429.65 200.4 440.85 210.9 440.85 216.3 440.85 219.2 436.4 220.5 434.45 221.0 432.55 244.15 442.95 253.7 442.95 260.05 442.95 263.05 438.8 265.1 435.95 265.1 432.45 265.1 429.65 254.15 423.15 251.65 421.65 249.0 420.25 L254.3 420.25 Q257.05 422.35 260.3 424.45 267.7 429.25 274.1 431.75 286.3 440.85 295.95 440.85 301.05 440.85 304.2 437.2 306.85 434.1 306.85 430.5 306.85 428.6 299.35 422.15 L299.25 422.1 306.05 423.7 Q307.25 423.95 322.85 430.6 336.9 436.65 344.0 436.65 346.85 436.65 349.1 435.55 352.95 435.3 355.65 432.9 L368.9 438.65 Q381.8 444.0 384.7 444.0 386.15 444.0 389.9 441.65 393.65 439.3 394.15 439.3 394.9 439.3 399.7 441.15 404.5 442.95 407.0 442.95 413.55 442.95 416.45 438.8 417.55 437.25 418.1 435.3 L424.35 435.6 Q431.7 435.6 434.95 431.75 437.3 428.95 437.3 424.35 L437.05 421.7 443.1 426.3 Q465.6 442.95 477.5 442.95 481.8 442.95 484.6 440.75 488.5 440.2 491.05 437.2 493.65 434.15 493.65 430.5 493.65 428.1 485.35 421.0 L483.85 419.75 487.3 419.75 489.4 421.8 Q494.1 426.1 499.7 430.15 515.95 441.9 527.1 441.9 532.0 441.9 535.0 438.25 536.8 436.0 537.3 433.5 542.8 435.6 549.55 435.6 L551.35 435.55 Q563.6 444.0 573.05 444.0 578.15 444.0 581.1 440.05" fill="#4d2e20" fill-rule="evenodd" stroke="none"/>
  </g>
</svg>
