<?xml version="1.0" encoding="UTF-8" standalone="no"?>
<svg xmlns:ffdec="https://www.free-decompiler.com/flash" xmlns:xlink="http://www.w3.org/1999/xlink" ffdec:objectType="shape" height="38.6px" width="54.2px" xmlns="http://www.w3.org/2000/svg">
  <g transform="matrix(1.0, 0.0, 0.0, 1.0, -0.75, -0.55)">
    <path d="M34.15 38.05 Q32.65 39.8 30.5 38.75 L26.45 37.15 21.8 36.65 Q19.05 36.6 13.0 34.35 7.0 32.15 3.75 31.55 0.6 30.95 0.75 28.9 0.95 26.8 3.0 24.45 5.05 22.1 6.4 18.35 7.8 14.6 12.2 11.6 16.55 8.6 16.65 6.3 16.95 -0.3 24.7 0.7 31.15 1.5 34.75 6.25 37.15 9.5 45.05 7.4 52.9 5.3 54.45 9.95 56.05 14.55 52.65 19.75 49.3 24.85 45.8 29.0 L40.85 33.15 38.5 35.05 Q35.1 37.05 34.15 38.05" fill="#693308" fill-rule="evenodd" stroke="none"/>
  </g>
</svg>
