<?xml version="1.0" encoding="UTF-8" standalone="no"?>
<svg xmlns:ffdec="https://www.free-decompiler.com/flash" xmlns:xlink="http://www.w3.org/1999/xlink" ffdec:objectType="shape" height="40.95px" width="44.45px" xmlns="http://www.w3.org/2000/svg">
  <g transform="matrix(1.0, 0.0, 0.0, 1.0, 0.0, -0.35)">
    <path d="M37.55 36.3 L32.7 40.3 Q31.05 41.8 28.0 41.05 25.3 40.45 23.2 39.25 14.6 44.6 9.5 33.25 4.45 21.95 1.25 17.35 -2.0 12.7 3.3 10.95 8.65 9.2 11.45 6.4 L14.05 3.5 Q18.1 -2.0 23.65 2.1 26.4 4.1 32.3 4.95 L35.2 4.8 Q41.85 4.65 43.7 9.4 45.6 14.3 42.75 17.75 39.85 21.25 40.85 21.3 L42.05 25.15 Q42.5 27.25 41.6 30.5 40.65 33.8 37.55 36.3" fill="#85532d" fill-rule="evenodd" stroke="none"/>
  </g>
</svg>
