<?xml version="1.0" encoding="UTF-8" standalone="no"?>
<svg xmlns:ffdec="https://www.free-decompiler.com/flash" xmlns:xlink="http://www.w3.org/1999/xlink" ffdec:objectType="shape" height="34.9px" width="34.7px" xmlns="http://www.w3.org/2000/svg">
  <g transform="matrix(1.0, 0.0, 0.0, 1.0, -6.05, -4.1)">
    <path d="M30.75 39.0 Q26.4 38.95 22.45 36.25 L21.3 36.15 Q17.9 37.65 14.75 37.35 12.85 37.15 12.15 34.6 10.1 26.9 6.45 20.3 5.85 19.25 6.2 17.85 7.4 12.2 11.9 11.9 15.4 11.6 14.35 9.35 13.3 7.1 17.2 5.0 21.15 2.95 23.15 5.5 25.2 8.05 27.7 9.3 30.2 10.7 33.85 8.85 37.45 7.0 39.8 11.4 42.15 15.7 38.7 19.2 35.25 22.7 38.7 26.15 42.1 29.65 37.25 33.85 32.35 38.1 30.75 39.0" fill="#af8858" fill-rule="evenodd" stroke="none"/>
  </g>
</svg>
