<?xml version="1.0" encoding="UTF-8" standalone="no"?>
<svg xmlns:ffdec="https://www.free-decompiler.com/flash" xmlns:xlink="http://www.w3.org/1999/xlink" ffdec:objectType="shape" height="43.5px" width="47.25px" xmlns="http://www.w3.org/2000/svg">
  <g transform="matrix(1.0, 0.0, 0.0, 1.0, 1.4, 0.9)">
    <path d="M33.4 41.6 Q31.65 43.15 28.35 42.35 25.5 41.75 23.25 40.45 14.15 46.15 8.75 34.05 3.35 22.05 -0.1 17.1 -3.55 12.2 2.15 10.35 7.8 8.5 10.75 5.55 L13.5 2.4 Q17.8 -3.4 23.75 0.95 26.65 3.1 32.95 4.0 L36.05 3.85 Q43.1 3.65 45.05 8.75 47.05 13.85 44.0 17.6 41.0 21.3 42.05 21.35 L43.3 25.45 Q43.8 27.65 42.8 31.15 41.85 34.65 38.45 37.35 L33.4 41.6" fill="#562c27" fill-rule="evenodd" stroke="none"/>
  </g>
</svg>
