<?xml version="1.0" encoding="UTF-8" standalone="no"?>
<svg xmlns:ffdec="https://www.free-decompiler.com/flash" xmlns:xlink="http://www.w3.org/1999/xlink" ffdec:objectType="shape" height="37.15px" width="36.85px" xmlns="http://www.w3.org/2000/svg">
  <g transform="matrix(1.0, 0.0, 0.0, 1.0, -5.1, -3.0)">
    <path d="M31.25 40.15 Q26.65 40.15 22.45 37.25 L21.25 37.1 Q17.65 38.7 14.25 38.35 12.25 38.2 11.5 35.45 9.35 27.3 5.5 20.3 4.85 19.15 5.2 17.7 6.5 11.65 11.25 11.3 14.9 11.05 13.85 8.6 12.75 6.25 16.9 3.95 21.1 1.8 23.25 4.5 25.4 7.3 28.1 8.65 30.7 10.05 34.55 8.1 38.45 6.2 40.9 10.8 43.45 15.4 39.75 19.1 36.1 22.85 39.75 26.5 43.35 30.2 38.2 34.7 33.05 39.2 31.25 40.15" fill="#af8858" fill-rule="evenodd" stroke="none"/>
  </g>
</svg>
