<?xml version="1.0" encoding="UTF-8" standalone="no"?>
<svg xmlns:ffdec="https://www.free-decompiler.com/flash" xmlns:xlink="http://www.w3.org/1999/xlink" ffdec:objectType="shape" height="40.2px" width="642.0px" xmlns="http://www.w3.org/2000/svg">
  <g transform="matrix(1.0, 0.0, 0.0, 1.0, 0.9, -346.05)">
    <path d="M638.3 382.4 L629.2 375.3 Q614.2 364.25 605.2 362.45 597.0 360.75 595.0 367.2 585.4 360.15 579.2 358.75 569.25 356.6 569.25 369.6 569.25 370.3 572.75 373.9 560.95 366.95 553.35 365.55 542.9 363.6 541.4 372.5 L540.95 372.25 Q536.45 369.85 535.35 369.85 532.7 369.85 528.3 373.15 L524.2 376.45 Q519.45 376.45 513.45 374.2 507.45 371.95 505.2 371.95 500.4 371.95 497.8 373.7 495.95 374.95 493.75 378.55 492.5 378.35 485.55 374.5 479.0 370.9 475.9 370.9 L475.45 370.9 Q467.6 367.5 461.5 366.0 449.8 363.1 446.5 367.75 L446.25 367.75 Q442.25 367.75 439.1 371.05 437.25 373.0 435.35 376.7 L425.8 373.8 Q419.9 371.95 419.1 371.95 413.45 371.95 406.95 379.1 403.6 382.8 402.05 385.4 L397.05 382.0 Q387.3 375.3 381.75 372.45 364.15 363.35 363.95 378.7 L363.85 378.8 361.75 382.55 360.55 381.8 Q344.85 369.85 337.45 366.35 324.3 360.05 324.3 375.0 L328.9 379.6 Q313.7 372.8 303.95 371.35 295.8 370.15 292.4 372.9 281.95 366.75 275.05 365.4 263.8 363.2 263.8 374.35 263.8 375.2 271.5 382.25 L268.35 380.6 Q259.8 376.15 254.9 376.15 249.65 376.15 246.4 380.55 L243.2 386.25 235.75 384.0 230.45 382.35 Q229.35 382.35 225.85 384.05 L222.6 385.75 Q221.7 385.75 209.1 377.3 196.45 368.8 192.95 368.8 186.4 368.8 183.8 374.45 183.05 376.15 182.6 378.5 L182.15 380.75 Q176.6 378.95 163.65 373.25 155.95 369.85 150.15 369.85 145.75 369.85 141.95 372.65 138.95 375.4 138.2 375.4 135.75 375.4 129.2 370.9 119.75 364.4 117.6 363.25 110.95 359.55 107.55 361.15 105.3 362.2 104.25 365.55 96.3 360.9 90.7 359.95 80.3 358.1 80.3 369.85 L82.35 372.0 81.4 371.4 Q46.35 349.15 44.95 367.0 L44.9 367.0 Q41.05 367.25 37.5 371.3 L36.5 372.5 33.4 370.5 Q20.95 362.7 13.35 362.45 4.2 362.15 4.2 373.0 4.2 376.4 5.4 378.2 L5.65 378.55 Q2.1 379.35 0.1 382.3 L-0.9 384.1 -0.9 346.05 641.1 346.05 641.1 383.65 638.3 382.4" fill="#69422f" fill-rule="evenodd" stroke="none"/>
  </g>
</svg>
