<?xml version="1.0" encoding="UTF-8" standalone="no"?>
<svg xmlns:ffdec="https://www.free-decompiler.com/flash" xmlns:xlink="http://www.w3.org/1999/xlink" ffdec:objectType="shape" height="35.95px" width="36.95px" xmlns="http://www.w3.org/2000/svg">
  <g transform="matrix(1.0, 0.0, 0.0, 1.0, -3.05, -4.05)">
    <path d="M5.2 19.15 Q9.0 15.25 9.0 10.3 8.95 5.25 12.45 4.15 18.4 3.6 21.8 6.6 25.15 9.65 27.6 9.6 37.45 9.5 39.7 18.35 40.95 23.25 36.95 27.65 34.05 30.8 29.35 32.2 27.35 33.8 26.15 36.2 24.95 38.6 21.7 39.7 18.45 40.8 16.6 38.0 14.7 35.2 10.95 34.2 7.15 33.2 4.3 28.15 1.4 23.05 5.2 19.15" fill="#af8858" fill-rule="evenodd" stroke="none"/>
  </g>
</svg>
