<?xml version="1.0" encoding="UTF-8" standalone="no"?>
<svg xmlns:ffdec="https://www.free-decompiler.com/flash" xmlns:xlink="http://www.w3.org/1999/xlink" ffdec:objectType="shape" height="40.3px" width="41.5px" xmlns="http://www.w3.org/2000/svg">
  <g transform="matrix(1.0, 0.0, 0.0, 1.0, -0.9, -2.05)">
    <path d="M3.35 19.0 Q7.6 14.6 7.55 9.0 7.5 3.35 11.45 2.15 18.15 1.5 21.95 4.9 25.75 8.3 28.45 8.25 39.5 8.1 42.05 18.05 43.45 23.55 38.95 28.5 35.7 32.05 30.45 33.6 28.15 35.4 26.85 38.1 25.5 40.8 21.85 42.0 18.2 43.25 16.1 40.15 14.0 37.0 9.75 35.85 5.5 34.75 2.3 29.05 -0.95 23.35 3.35 19.0" fill="#af8858" fill-rule="evenodd" stroke="none"/>
  </g>
</svg>
