<?xml version="1.0" encoding="UTF-8" standalone="no"?>
<svg xmlns:ffdec="https://www.free-decompiler.com/flash" xmlns:xlink="http://www.w3.org/1999/xlink" ffdec:objectType="shape" height="32.75px" width="34.45px" xmlns="http://www.w3.org/2000/svg">
  <g transform="matrix(1.0, 0.0, 0.0, 1.0, -1.0, -2.25)">
    <path d="M33.0 13.4 Q31.65 18.65 34.2 22.9 36.7 27.25 34.25 29.95 29.4 33.45 24.9 32.5 20.5 31.6 18.45 32.8 10.0 37.85 3.55 31.3 0.1 27.75 1.3 21.9 2.25 17.75 5.6 14.2 6.55 11.8 6.4 9.1 6.25 6.45 8.5 3.9 10.75 1.3 13.75 2.75 16.8 4.25 20.55 3.2 24.35 2.2 29.35 5.15 34.35 8.15 33.0 13.4" fill="#af8858" fill-rule="evenodd" stroke="none"/>
  </g>
</svg>
