<?xml version="1.0" encoding="UTF-8" standalone="no"?>
<svg xmlns:ffdec="https://www.free-decompiler.com/flash" xmlns:xlink="http://www.w3.org/1999/xlink" ffdec:objectType="shape" height="38.0px" width="40.0px" xmlns="http://www.w3.org/2000/svg">
  <g transform="matrix(1.0, 0.0, 0.0, 1.0, 1.9, -0.3)">
    <path d="M35.25 13.2 Q33.65 19.35 36.6 24.35 39.55 29.3 36.65 32.45 31.0 36.5 25.85 35.4 20.75 34.3 18.3 35.75 8.5 41.55 1.1 34.05 -2.95 29.85 -1.55 23.1 -0.45 18.25 3.45 14.15 4.55 11.35 4.35 8.3 4.2 5.2 6.8 2.2 9.4 -0.8 12.85 0.9 16.4 2.65 20.75 1.5 25.15 0.25 30.95 3.75 36.8 7.15 35.25 13.2" fill="#af8858" fill-rule="evenodd" stroke="none"/>
  </g>
</svg>
