<?xml version="1.0" encoding="UTF-8" standalone="no"?>
<svg xmlns:ffdec="https://www.free-decompiler.com/flash" xmlns:xlink="http://www.w3.org/1999/xlink" ffdec:objectType="shape" height="49.1px" width="50.3px" xmlns="http://www.w3.org/2000/svg">
  <g transform="matrix(1.0, 0.0, 0.0, 1.0, 0.25, 0.0)">
    <path d="M40.1 3.0 L46.0 7.25 Q48.2 8.7 47.95 12.15 47.85 15.25 46.75 17.85 55.1 25.85 42.3 34.1 29.4 42.3 24.45 46.95 19.45 51.55 16.2 46.25 12.9 40.9 8.95 38.5 L4.75 36.4 Q-2.8 33.35 1.0 26.35 2.9 22.9 2.65 16.25 L1.9 13.1 Q0.3 6.0 5.75 2.85 11.35 -0.4 16.2 1.85 21.15 4.1 20.95 3.05 23.05 1.8 25.45 0.8 27.9 -0.2 32.1 0.05 36.35 0.2 40.1 3.0" fill="#85532d" fill-rule="evenodd" stroke="none"/>
  </g>
</svg>
