<?xml version="1.0" encoding="UTF-8" standalone="no"?>
<svg xmlns:ffdec="https://www.free-decompiler.com/flash" xmlns:xlink="http://www.w3.org/1999/xlink" ffdec:objectType="shape" height="39.6px" width="42.15px" xmlns="http://www.w3.org/2000/svg">
  <g transform="matrix(1.0, 0.0, 0.0, 1.0, -3.75, -2.05)">
    <path d="M44.55 9.95 Q45.45 14.65 42.95 19.6 42.6 20.25 43.05 20.8 45.6 24.15 45.9 27.7 46.05 29.75 43.0 31.1 34.05 35.2 26.8 40.75 25.55 41.65 23.85 41.65 16.55 41.7 15.25 36.9 14.2 33.2 11.6 34.9 9.05 36.55 5.65 32.8 2.25 29.0 5.0 26.2 7.75 23.4 8.8 20.35 9.85 17.35 6.85 13.85 3.85 10.35 8.7 6.75 13.5 3.15 18.6 6.05 23.6 8.95 27.1 4.4 30.65 -0.15 36.9 4.1 43.1 8.35 44.55 9.95" fill="#af8858" fill-rule="evenodd" stroke="none"/>
  </g>
</svg>
