<?xml version="1.0" encoding="UTF-8" standalone="no"?>
<svg xmlns:ffdec="https://www.free-decompiler.com/flash" xmlns:xlink="http://www.w3.org/1999/xlink" ffdec:objectType="shape" height="52.95px" width="54.25px" xmlns="http://www.w3.org/2000/svg">
  <g transform="matrix(1.0, 0.0, 0.0, 1.0, 2.25, 1.95)">
    <path d="M41.3 1.4 L47.7 5.95 Q50.0 7.45 49.75 11.25 49.55 14.5 48.45 17.35 57.45 25.95 43.6 34.85 29.75 43.75 24.4 48.7 19.05 53.65 15.5 47.95 12.0 42.15 7.65 39.65 5.5 38.35 3.15 37.35 -4.95 34.05 -0.85 26.45 1.2 22.75 1.0 15.65 L0.1 12.3 Q-1.6 4.55 4.3 1.15 10.25 -2.35 15.55 0.1 20.8 2.5 20.65 1.4 22.9 0.1 25.5 -1.0 28.15 -2.1 32.65 -1.9 37.25 -1.6 41.3 1.4" fill="#562c27" fill-rule="evenodd" stroke="none"/>
  </g>
</svg>
