<?xml version="1.0" encoding="UTF-8" standalone="no"?>
<svg xmlns:ffdec="https://www.free-decompiler.com/flash" xmlns:xlink="http://www.w3.org/1999/xlink" ffdec:objectType="shape" height="42.65px" width="45.4px" xmlns="http://www.w3.org/2000/svg">
  <g transform="matrix(1.0, 0.0, 0.0, 1.0, -2.1, -0.3)">
    <path d="M46.05 8.8 Q47.0 13.9 44.3 19.15 43.95 19.85 44.45 20.55 47.2 24.1 47.5 27.9 47.7 30.15 44.4 31.65 34.75 36.0 26.85 41.95 25.55 42.95 23.7 42.95 15.9 43.0 14.5 37.85 13.3 33.9 10.55 35.7 7.8 37.45 4.15 33.45 0.5 29.35 3.4 26.35 6.35 23.3 7.5 20.0 8.65 16.8 5.45 13.05 2.2 9.25 7.4 5.4 12.6 1.45 18.05 4.6 23.45 7.7 27.25 2.85 31.1 -2.05 37.8 2.55 44.5 7.1 46.05 8.8" fill="#af8858" fill-rule="evenodd" stroke="none"/>
  </g>
</svg>
