<?xml version="1.0" encoding="UTF-8" standalone="no"?>
<svg xmlns:ffdec="https://www.free-decompiler.com/flash" xmlns:xlink="http://www.w3.org/1999/xlink" ffdec:objectType="shape" height="30.75px" width="39.15px" xmlns="http://www.w3.org/2000/svg">
  <g transform="matrix(1.0, 0.0, 0.0, 1.0, 0.35, -1.2)">
    <path d="M35.7 1.7 L38.75 2.8 38.8 2.8 38.8 26.35 38.7 26.4 37.7 26.65 36.65 26.6 36.5 26.5 34.8 25.6 34.05 24.6 33.2 23.9 31.25 23.45 28.9 24.15 24.2 27.65 24.05 27.8 22.0 29.2 18.15 31.15 17.9 31.25 14.5 31.95 14.35 31.95 11.05 31.6 10.85 31.55 8.0 30.45 7.8 30.35 5.55 28.95 3.7 27.2 2.5 25.1 4.0 25.4 4.4 25.4 5.65 25.7 8.95 25.6 11.95 24.35 14.65 22.0 12.65 22.8 10.75 22.95 6.95 21.45 3.2 17.4 -0.35 10.7 6.9 14.8 12.75 16.0 15.2 15.55 17.35 14.4 19.15 12.45 22.15 7.0 23.75 4.85 23.8 4.75 27.85 1.85 28.05 1.8 32.85 1.2 32.9 1.2 35.65 1.7 35.7 1.7" fill="#d90000" fill-rule="evenodd" stroke="none"/>
  </g>
</svg>
