<?xml version="1.0" encoding="UTF-8" standalone="no"?>
<svg xmlns:ffdec="https://www.free-decompiler.com/flash" xmlns:xlink="http://www.w3.org/1999/xlink" ffdec:objectType="shape" height="23.95px" width="5.95px" xmlns="http://www.w3.org/2000/svg">
  <g transform="matrix(1.0, 0.0, 0.0, 1.0, -29.4, -1.3)">
    <path d="M31.95 2.55 L31.9 2.5 30.15 1.55 30.1 1.5 32.65 1.3 35.1 1.6 35.15 1.8 35.1 12.5 34.65 8.5 33.5 5.0 33.5 4.95 31.95 2.55 M30.35 23.2 L30.6 22.9 31.45 22.1 33.2 19.85 34.5 17.2 35.35 14.2 34.7 25.15 34.55 25.05 34.5 25.25 34.05 24.65 33.5 24.15 32.3 23.6 30.95 23.55 29.4 24.0 30.35 23.2" fill="#9f0000" fill-rule="evenodd" stroke="none"/>
  </g>
</svg>
