<?xml version="1.0" encoding="UTF-8" standalone="no"?>
<svg xmlns:ffdec="https://www.free-decompiler.com/flash" xmlns:xlink="http://www.w3.org/1999/xlink" ffdec:objectType="shape" height="30.1px" width="38.75px" xmlns="http://www.w3.org/2000/svg">
  <g transform="matrix(1.0, 0.0, 0.0, 1.0, -0.05, -1.05)">
    <path d="M35.8 1.65 L38.75 2.8 38.8 2.8 38.8 26.35 38.7 26.4 37.7 26.65 37.6 26.65 36.7 26.55 34.85 25.5 34.0 24.55 33.45 24.1 33.15 23.9 31.2 23.4 28.85 23.95 21.8 28.65 17.65 30.55 14.2 31.15 14.1 31.15 10.75 30.75 10.55 30.7 7.75 29.5 5.4 27.9 3.65 26.1 2.45 24.0 3.5 23.95 3.8 23.9 5.05 24.2 8.3 24.35 11.35 23.25 14.2 21.25 12.25 21.85 10.4 21.9 6.8 20.35 3.2 16.4 2.15 14.55 0.05 9.85 3.75 12.25 7.15 13.9 7.95 14.15 12.9 15.15 14.0 15.05 15.3 14.75 17.45 13.7 18.05 13.2 19.3 11.9 22.4 6.65 24.0 4.55 24.1 4.45 28.1 1.65 28.3 1.6 33.0 1.05 33.05 1.05 35.75 1.65 35.8 1.65" fill="#d90000" fill-rule="evenodd" stroke="none"/>
  </g>
</svg>
