<?xml version="1.0" encoding="UTF-8" standalone="no"?>
<svg xmlns:ffdec="https://www.free-decompiler.com/flash" xmlns:xlink="http://www.w3.org/1999/xlink" ffdec:objectType="shape" height="23.95px" width="5.9px" xmlns="http://www.w3.org/2000/svg">
  <g transform="matrix(1.0, 0.0, 0.0, 1.0, -29.45, -1.15)">
    <path d="M35.1 1.45 L35.2 1.7 35.1 12.0 34.65 8.35 34.65 8.3 33.5 4.8 33.5 4.75 31.9 2.4 31.85 2.3 30.15 1.4 30.15 1.35 32.65 1.15 35.1 1.45 M30.35 22.9 L31.35 22.0 33.15 19.8 34.5 17.2 35.35 14.25 34.7 25.1 34.45 24.9 34.35 25.1 34.0 24.6 33.45 24.1 32.25 23.55 30.95 23.5 29.45 23.85 30.25 23.15 30.35 22.9" fill="#9f0000" fill-rule="evenodd" stroke="none"/>
  </g>
</svg>
