<?xml version="1.0" encoding="UTF-8" standalone="no"?>
<svg xmlns:ffdec="https://www.free-decompiler.com/flash" xmlns:xlink="http://www.w3.org/1999/xlink" ffdec:objectType="shape" height="8.15px" width="14.2px" xmlns="http://www.w3.org/2000/svg">
  <g transform="matrix(1.0, 0.0, 0.0, 1.0, -5.05, -16.5)">
    <path d="M6.8 24.5 L7.15 24.45 7.3 24.5 6.8 24.5 M9.35 21.65 L7.05 20.55 5.05 18.55 7.2 19.4 9.2 19.9 12.8 19.95 16.0 18.75 16.25 18.6 19.25 16.5 16.45 20.8 13.55 23.45 10.4 24.65 7.3 24.5 8.8 24.3 10.65 23.7 10.7 23.65 12.45 22.65 14.15 21.25 12.8 21.7 11.7 21.85 11.4 21.85 9.35 21.65" fill="#9f0000" fill-rule="evenodd" stroke="none"/>
  </g>
</svg>
