<?xml version="1.0" encoding="UTF-8" standalone="no"?>
<svg xmlns:ffdec="https://www.free-decompiler.com/flash" xmlns:xlink="http://www.w3.org/1999/xlink" ffdec:objectType="shape" height="29.4px" width="38.4px" xmlns="http://www.w3.org/2000/svg">
  <g transform="matrix(1.0, 0.0, 0.0, 1.0, -0.4, -0.95)">
    <path d="M35.85 1.6 L38.75 2.8 38.8 2.8 38.8 26.3 38.7 26.4 37.7 26.6 37.6 26.6 36.7 26.5 36.5 26.4 34.9 25.4 34.0 24.5 33.15 23.9 32.2 23.55 31.2 23.35 29.55 23.55 28.85 23.75 26.9 24.7 21.6 28.1 17.65 29.8 13.95 30.35 13.8 30.35 10.5 29.9 7.55 28.55 5.3 26.85 4.55 26.15 3.6 24.95 2.4 22.9 3.05 22.55 3.25 22.4 4.45 22.75 7.65 23.05 8.8 22.85 10.75 22.2 13.75 20.45 11.85 20.9 10.1 20.85 9.05 20.45 6.65 19.2 5.05 17.7 3.25 15.4 2.25 13.65 0.4 9.05 4.05 11.4 7.4 13.0 8.15 13.25 13.05 14.25 14.15 14.2 15.4 13.95 17.55 13.0 18.15 12.6 19.4 11.3 22.65 6.3 24.3 4.25 24.35 4.15 28.3 1.45 28.5 1.4 33.15 0.95 33.2 0.95 35.85 1.6" fill="#d90000" fill-rule="evenodd" stroke="none"/>
  </g>
</svg>
