<?xml version="1.0" encoding="UTF-8" standalone="no"?>
<svg xmlns:ffdec="https://www.free-decompiler.com/flash" xmlns:xlink="http://www.w3.org/1999/xlink" ffdec:objectType="shape" height="24.05px" width="5.85px" xmlns="http://www.w3.org/2000/svg">
  <g transform="matrix(1.0, 0.0, 0.0, 1.0, -29.5, -1.0)">
    <path d="M33.45 4.6 L31.9 2.2 31.85 2.15 30.1 1.2 30.15 1.2 32.7 1.0 35.1 1.35 35.2 1.55 35.1 12.45 35.0 10.2 34.65 8.15 33.5 4.65 33.45 4.6 M30.1 22.9 L30.6 22.55 31.3 21.9 33.1 19.75 33.3 19.45 34.5 17.2 35.35 14.25 34.7 25.05 34.3 24.8 34.2 24.9 33.95 24.5 33.35 24.05 32.2 23.55 30.95 23.45 29.5 23.7 30.15 23.15 30.1 22.9" fill="#9f0000" fill-rule="evenodd" stroke="none"/>
  </g>
</svg>
