<?xml version="1.0" encoding="UTF-8" standalone="no"?>
<svg xmlns:ffdec="https://www.free-decompiler.com/flash" xmlns:xlink="http://www.w3.org/1999/xlink" ffdec:objectType="shape" height="7.25px" width="14.65px" xmlns="http://www.w3.org/2000/svg">
  <g transform="matrix(1.0, 0.0, 0.0, 1.0, -4.7, -16.2)">
    <path d="M6.3 23.15 L6.45 23.1 6.7 23.15 6.3 23.15 M4.7 17.2 L4.7 17.15 8.65 18.8 8.9 18.85 12.45 19.15 12.55 19.1 15.8 18.2 19.35 16.2 17.75 18.5 16.1 20.3 13.9 22.05 12.95 22.6 10.55 23.3 9.65 23.45 6.7 23.15 8.25 23.0 10.15 22.55 11.95 21.65 13.7 20.45 12.5 20.75 12.35 20.8 10.95 20.85 8.9 20.5 6.7 19.25 6.2 18.85 4.7 17.2" fill="#9f0000" fill-rule="evenodd" stroke="none"/>
  </g>
</svg>
