<?xml version="1.0" encoding="UTF-8" standalone="no"?>
<svg xmlns:ffdec="https://www.free-decompiler.com/flash" xmlns:xlink="http://www.w3.org/1999/xlink" ffdec:objectType="shape" height="24.1px" width="5.8px" xmlns="http://www.w3.org/2000/svg">
  <g transform="matrix(1.0, 0.0, 0.0, 1.0, -29.55, -0.9)">
    <path d="M35.1 1.25 L35.25 1.4 35.1 12.25 34.65 7.95 33.5 4.45 33.45 4.4 31.9 2.05 30.1 1.05 32.7 0.9 35.1 1.25 M30.0 23.1 L29.85 22.9 31.2 21.8 33.05 19.7 33.25 19.4 34.45 17.2 34.55 17.05 35.35 14.25 34.7 25.0 34.2 24.65 34.05 24.7 33.85 24.4 33.3 24.0 32.2 23.55 30.95 23.4 29.55 23.5 30.0 23.1" fill="#9f0000" fill-rule="evenodd" stroke="none"/>
  </g>
</svg>
