<?xml version="1.0" encoding="UTF-8" standalone="no"?>
<svg xmlns:ffdec="https://www.free-decompiler.com/flash" xmlns:xlink="http://www.w3.org/1999/xlink" ffdec:objectType="shape" height="28.1px" width="37.65px" xmlns="http://www.w3.org/2000/svg">
  <g transform="matrix(1.0, 0.0, 0.0, 1.0, -1.15, -0.7)">
    <path d="M36.05 1.45 L38.75 2.8 38.8 2.85 38.8 26.3 38.75 26.4 37.75 26.55 37.65 26.55 36.55 26.3 33.45 24.05 33.1 23.85 32.2 23.45 31.2 23.3 29.55 23.25 28.8 23.4 26.7 24.05 21.15 27.0 20.35 27.35 17.1 28.4 16.85 28.45 13.4 28.8 13.25 28.8 9.8 28.1 6.95 26.5 5.0 24.75 4.3 24.0 2.25 20.7 2.05 19.35 4.85 20.35 6.4 20.55 7.55 20.55 12.85 18.9 11.05 19.0 9.45 18.7 8.5 18.35 6.4 17.0 4.85 15.65 2.35 11.8 1.6 9.6 1.15 7.4 7.85 11.25 8.6 11.5 13.3 12.5 14.35 12.6 15.55 12.35 18.4 11.3 20.9 8.8 23.15 5.55 24.9 3.6 28.8 1.1 29.0 1.0 33.5 0.7 36.0 1.45 36.05 1.45" fill="#d90000" fill-rule="evenodd" stroke="none"/>
  </g>
</svg>
