<?xml version="1.0" encoding="UTF-8" standalone="no"?>
<svg xmlns:ffdec="https://www.free-decompiler.com/flash" xmlns:xlink="http://www.w3.org/1999/xlink" ffdec:objectType="shape" height="24.2px" width="5.8px" xmlns="http://www.w3.org/2000/svg">
  <g transform="matrix(1.0, 0.0, 0.0, 1.0, -29.55, -0.75)">
    <path d="M31.45 0.8 L31.75 0.75 33.25 0.8 35.05 1.15 35.3 1.3 35.1 12.1 35.0 9.85 34.65 7.8 34.65 7.75 33.45 4.3 33.45 4.25 31.85 1.9 31.8 1.85 30.1 0.9 31.45 0.8 M29.9 23.1 L29.6 22.9 31.45 21.35 33.0 19.65 34.45 17.2 35.35 14.3 34.75 24.95 34.1 24.5 33.95 24.5 33.8 24.3 33.25 23.95 32.15 23.55 29.55 23.35 29.9 23.1" fill="#9f0000" fill-rule="evenodd" stroke="none"/>
  </g>
</svg>
