<?xml version="1.0" encoding="UTF-8" standalone="no"?>
<svg xmlns:ffdec="https://www.free-decompiler.com/flash" xmlns:xlink="http://www.w3.org/1999/xlink" ffdec:objectType="shape" height="6.7px" width="15.3px" xmlns="http://www.w3.org/2000/svg">
  <g transform="matrix(1.0, 0.0, 0.0, 1.0, -4.15, -14.5)">
    <path d="M6.3 15.85 L8.05 16.7 11.9 17.5 12.0 17.5 15.5 17.1 15.85 17.0 19.45 15.65 16.25 18.8 12.85 20.65 11.7 20.9 9.15 21.2 8.25 21.15 5.05 20.4 5.3 20.45 9.05 20.25 12.85 18.9 11.6 19.0 11.45 19.0 10.05 18.85 7.5 17.9 5.95 16.75 5.5 16.35 4.15 14.5 4.2 14.55 6.05 15.75 6.3 15.85" fill="#9f0000" fill-rule="evenodd" stroke="none"/>
  </g>
</svg>
