<?xml version="1.0" encoding="UTF-8" standalone="no"?>
<svg xmlns:ffdec="https://www.free-decompiler.com/flash" xmlns:xlink="http://www.w3.org/1999/xlink" ffdec:objectType="shape" height="27.4px" width="37.35px" xmlns="http://www.w3.org/2000/svg">
  <g transform="matrix(1.0, 0.0, 0.0, 1.0, -1.45, -0.6)">
    <path d="M36.1 1.4 L36.15 1.4 38.75 2.8 38.8 2.85 38.8 26.25 38.75 26.4 37.75 26.55 37.65 26.55 36.6 26.25 33.45 24.0 32.15 23.45 29.5 23.05 26.65 23.7 20.1 26.8 16.85 27.7 16.6 27.75 13.1 28.0 12.95 28.0 9.5 27.25 6.75 25.55 4.2 22.95 3.35 21.65 1.45 17.85 4.25 19.05 6.95 19.35 12.4 18.15 10.25 18.0 8.2 17.3 4.75 14.65 2.4 10.85 1.75 8.75 1.5 6.55 5.35 9.0 8.8 10.65 14.45 11.8 18.5 10.7 21.1 8.3 21.65 7.5 25.2 3.3 29.2 0.8 33.65 0.6 36.1 1.4" fill="#d90000" fill-rule="evenodd" stroke="none"/>
  </g>
</svg>
