<?xml version="1.0" encoding="UTF-8" standalone="no"?>
<svg xmlns:ffdec="https://www.free-decompiler.com/flash" xmlns:xlink="http://www.w3.org/1999/xlink" ffdec:objectType="shape" height="24.3px" width="6.0px" xmlns="http://www.w3.org/2000/svg">
  <g transform="matrix(1.0, 0.0, 0.0, 1.0, -29.35, -0.6)">
    <path d="M31.45 0.65 L31.75 0.6 33.3 0.65 35.05 1.05 35.3 1.15 35.1 11.9 35.0 9.65 34.65 7.6 33.45 4.1 33.45 4.05 31.85 1.7 31.8 1.65 30.05 0.75 30.2 0.75 31.45 0.65 M29.8 23.05 L29.35 22.9 31.4 21.25 32.95 19.6 33.15 19.35 34.45 17.15 34.5 17.05 35.35 14.3 34.75 24.9 33.95 24.35 33.8 24.3 33.7 24.2 32.6 23.65 32.1 23.5 29.6 23.2 29.8 23.05" fill="#9f0000" fill-rule="evenodd" stroke="none"/>
  </g>
</svg>
