<?xml version="1.0" encoding="UTF-8" standalone="no"?>
<svg xmlns:ffdec="https://www.free-decompiler.com/flash" xmlns:xlink="http://www.w3.org/1999/xlink" ffdec:objectType="shape" height="27.0px" width="37.95px" xmlns="http://www.w3.org/2000/svg">
  <g transform="matrix(1.0, 0.0, 0.0, 1.0, -0.85, -0.25)">
    <path d="M26.7 2.0 Q29.35 0.1 32.3 0.25 35.25 0.4 38.8 2.8 L38.8 26.4 37.3 26.45 35.9 25.8 34.65 24.85 Q32.25 22.9 29.5 22.9 26.75 22.9 23.2 24.8 21.1 25.9 18.7 26.55 L13.9 27.25 Q11.45 27.25 9.25 26.4 7.35 25.55 5.65 23.75 3.95 21.95 2.7 19.9 L0.85 16.3 Q2.7 17.6 4.5 17.95 L8.15 18.15 11.95 17.35 Q9.05 17.2 6.7 15.5 4.35 13.85 3.05 11.25 1.7 8.7 1.85 5.75 7.2 9.45 11.05 10.45 14.9 11.45 17.45 10.55 19.95 9.7 21.25 7.8 24.0 3.95 26.7 2.0" fill="#d90000" fill-rule="evenodd" stroke="none"/>
  </g>
</svg>
