<?xml version="1.0" encoding="UTF-8" standalone="no"?>
<svg xmlns:ffdec="https://www.free-decompiler.com/flash" xmlns:xlink="http://www.w3.org/1999/xlink" ffdec:objectType="shape" height="25.4px" width="37.3px" xmlns="http://www.w3.org/2000/svg">
  <g transform="matrix(1.0, 0.0, 0.0, 1.0, -1.5, -1.1)">
    <path d="M38.8 3.6 L38.8 26.2 37.8 26.5 36.8 26.25 33.6 24.4 32.35 23.85 29.8 23.3 27.0 23.45 26.75 23.5 17.05 26.15 13.5 26.25 10.15 25.6 7.45 24.15 4.95 22.05 1.5 17.6 4.05 18.2 6.7 18.15 7.15 18.0 12.5 16.75 10.5 16.4 8.6 15.7 5.3 13.45 3.0 10.45 2.35 8.8 2.05 7.05 8.75 9.5 14.1 9.95 18.0 8.95 18.05 8.9 20.8 6.9 23.05 4.65 23.35 4.45 25.15 3.0 29.3 1.1 29.8 1.15 33.65 1.1 33.8 1.15 36.05 1.7 38.65 2.85 38.8 3.6" fill="#d90000" fill-rule="evenodd" stroke="none"/>
  </g>
</svg>
