<?xml version="1.0" encoding="UTF-8" standalone="no"?>
<svg xmlns:ffdec="https://www.free-decompiler.com/flash" xmlns:xlink="http://www.w3.org/1999/xlink" ffdec:objectType="shape" height="24.9px" width="36.65px" xmlns="http://www.w3.org/2000/svg">
  <g transform="matrix(1.0, 0.0, 0.0, 1.0, -2.15, -1.6)">
    <path d="M33.65 1.7 L38.55 2.85 38.8 3.45 38.8 26.05 38.0 26.5 36.95 26.3 32.55 24.25 30.1 23.65 27.2 23.55 23.0 24.3 22.85 24.35 17.8 25.2 14.35 25.25 11.05 24.8 8.35 23.7 5.8 22.2 2.15 18.9 4.55 18.7 4.9 18.55 7.1 18.1 7.55 17.85 13.1 16.1 11.15 15.75 9.3 15.1 6.0 13.25 3.55 10.9 2.75 9.65 2.25 8.35 8.45 9.2 13.55 8.95 17.45 7.8 17.5 7.75 23.05 3.95 25.0 2.9 29.15 1.6 32.65 1.75 33.65 1.7" fill="#d90000" fill-rule="evenodd" stroke="none"/>
  </g>
</svg>
