<?xml version="1.0" encoding="UTF-8" standalone="no"?>
<svg xmlns:ffdec="https://www.free-decompiler.com/flash" xmlns:xlink="http://www.w3.org/1999/xlink" ffdec:objectType="shape" height="6.05px" width="14.95px" xmlns="http://www.w3.org/2000/svg">
  <g transform="matrix(1.0, 0.0, 0.0, 1.0, -5.15, -12.4)">
    <path d="M8.2 14.85 L8.05 14.8 6.25 13.5 5.25 12.4 6.5 12.85 6.8 12.9 8.4 13.45 8.7 13.5 12.35 14.4 13.5 14.4 16.25 14.7 20.1 14.5 19.7 15.2 16.65 16.9 16.4 17.0 12.85 18.15 9.3 18.4 9.05 18.45 5.2 17.95 5.15 17.95 8.6 17.45 12.05 16.5 11.2 16.2 10.5 15.85 10.3 15.8 8.2 14.85" fill="#9f0000" fill-rule="evenodd" stroke="none"/>
  </g>
</svg>
