<?xml version="1.0" encoding="UTF-8" standalone="no"?>
<svg xmlns:ffdec="https://www.free-decompiler.com/flash" xmlns:xlink="http://www.w3.org/1999/xlink" ffdec:objectType="shape" height="24.35px" width="36.3px" xmlns="http://www.w3.org/2000/svg">
  <g transform="matrix(1.0, 0.0, 0.0, 1.0, -2.5, -2.1)">
    <path d="M33.5 2.3 L38.4 2.9 38.8 3.35 38.8 25.9 38.15 26.45 37.15 26.4 34.3 25.35 33.95 25.15 32.75 24.7 31.75 24.5 30.35 24.05 27.85 23.65 15.15 24.3 11.95 24.0 9.8 23.4 9.25 23.3 6.7 22.35 2.8 20.2 5.05 19.15 5.35 18.95 7.55 18.0 7.95 17.75 13.65 15.5 10.0 14.55 6.7 13.1 4.1 11.4 3.15 10.55 2.5 9.7 8.15 8.9 9.85 8.4 13.05 7.95 14.35 7.4 16.85 6.65 16.9 6.65 22.45 3.65 24.8 2.8 29.05 2.1 29.5 2.2 32.45 2.35 33.5 2.3" fill="#d90000" fill-rule="evenodd" stroke="none"/>
  </g>
</svg>
