<?xml version="1.0" encoding="UTF-8" standalone="no"?>
<svg xmlns:ffdec="https://www.free-decompiler.com/flash" xmlns:xlink="http://www.w3.org/1999/xlink" ffdec:objectType="shape" height="23.85px" width="36.1px" xmlns="http://www.w3.org/2000/svg">
  <g transform="matrix(1.0, 0.0, 0.0, 1.0, -2.7, -2.6)">
    <path d="M37.35 2.85 L38.25 2.95 38.8 3.2 38.8 25.75 38.3 26.45 37.35 26.45 34.45 25.7 34.15 25.55 32.95 25.15 31.95 24.95 30.65 24.4 29.45 24.15 28.3 23.75 28.1 23.7 24.2 23.15 24.05 23.2 12.85 23.2 10.7 22.9 10.15 22.9 3.45 21.45 5.85 19.35 7.95 17.95 8.35 17.6 14.25 14.85 10.7 14.0 8.2 13.1 7.4 12.9 3.55 11.45 2.7 11.0 5.75 9.4 7.85 8.6 9.4 7.8 12.55 6.9 13.8 6.3 16.3 5.5 16.35 5.5 22.5 3.05 24.6 2.75 28.9 2.6 29.35 2.7 32.3 3.0 33.2 2.9 37.35 2.85" fill="#d90000" fill-rule="evenodd" stroke="none"/>
  </g>
</svg>
