<?xml version="1.0" encoding="UTF-8" standalone="no"?>
<svg xmlns:ffdec="https://www.free-decompiler.com/flash" xmlns:xlink="http://www.w3.org/1999/xlink" ffdec:objectType="shape" height="23.9px" width="35.9px" xmlns="http://www.w3.org/2000/svg">
  <g transform="matrix(1.0, 0.0, 0.0, 1.0, -2.9, -2.6)">
    <path d="M32.15 3.6 L35.45 3.2 35.65 3.2 37.25 2.95 38.15 2.95 38.8 3.05 38.8 25.6 38.45 26.4 37.75 26.5 36.8 26.45 34.65 26.1 34.3 25.95 32.2 25.4 29.8 24.4 28.7 23.8 28.55 23.75 27.35 23.25 24.85 22.6 24.7 22.6 21.75 22.3 14.65 22.3 13.75 22.4 4.1 22.75 6.3 19.75 8.75 17.5 14.8 14.25 13.4 13.9 13.1 13.85 11.9 13.5 11.35 13.4 8.9 12.75 8.05 12.7 5.8 12.35 2.9 12.3 5.6 9.65 9.0 7.2 12.0 5.9 13.25 5.2 15.7 4.35 15.75 4.35 20.35 2.85 22.25 2.6 28.75 3.1 29.25 3.25 32.15 3.6" fill="#d90000" fill-rule="evenodd" stroke="none"/>
  </g>
</svg>
