<?xml version="1.0" encoding="UTF-8" standalone="no"?>
<svg xmlns:ffdec="https://www.free-decompiler.com/flash" xmlns:xlink="http://www.w3.org/1999/xlink" ffdec:objectType="shape" height="136.75px" width="206.75px" xmlns="http://www.w3.org/2000/svg">
  <g transform="matrix(1.0, 0.0, 0.0, 1.0, -1.15, -3.9)">
    <path d="M29.15 77.2 Q35.5 71.85 46.2 72.0 56.85 72.1 59.6 76.05 62.3 80.0 62.85 88.45 63.45 96.95 57.6 102.5 51.75 108.0 43.25 108.0 34.75 108.0 28.75 102.7 22.8 97.4 22.8 89.95 22.8 82.45 29.15 77.2" fill="#b6b8bb" fill-opacity="0.9882353" fill-rule="evenodd" stroke="none"/>
    <path d="M27.55 80.4 L30.15 77.3 Q31.35 75.95 33.2 74.65 36.4 73.1 38.7 73.2 40.3 73.3 41.0 74.2 L41.0 74.25 Q40.3 73.7 39.15 73.65 36.85 73.55 33.65 75.1 31.8 76.4 30.6 77.75 L28.0 80.85 Q26.15 83.35 26.0 84.4 L25.5 84.25 25.5 84.1 Q25.5 83.15 27.55 80.4" fill="#252627" fill-opacity="0.9882353" fill-rule="evenodd" stroke="none"/>
    <path d="M27.55 80.4 L30.15 77.3 Q31.35 75.95 33.2 74.65 36.4 73.1 38.7 73.2 40.3 73.3 41.0 74.2 L41.0 74.45 Q41.0 75.5 39.55 75.85 37.4 76.4 36.35 77.2 33.9 79.0 32.35 80.85 L30.2 84.35 29.95 84.85 28.2 84.65 25.5 84.25 25.5 84.1 Q25.5 83.15 27.55 80.4" fill="#54585d" fill-opacity="0.9882353" fill-rule="evenodd" stroke="none"/>
    <path d="M85.85 14.9 L91.6 73.0 78.3 73.0 78.3 13.95 85.85 14.9" fill="#90a0af" fill-opacity="0.9882353" fill-rule="evenodd" stroke="none"/>
    <path d="M80.1 14.35 L80.25 14.2 85.85 14.9 91.6 73.0 82.4 73.0 Q83.35 71.15 83.95 67.35 L84.6 59.55 84.15 58.0 83.7 56.7 84.4 54.6 85.05 51.65 85.0 50.6 Q84.75 49.7 83.9 49.35 L84.65 47.8 84.75 46.65 Q84.75 45.35 84.25 44.9 83.75 44.5 83.75 43.3 83.75 42.6 84.85 40.75 85.95 38.9 85.95 38.05 85.95 37.25 85.5 36.7 84.7 35.7 82.8 35.95 L82.8 35.85 84.05 33.8 Q84.6 32.65 84.6 31.8 84.6 31.0 84.1 30.15 83.4 28.95 82.2 28.9 L83.85 26.7 Q84.45 25.9 84.45 24.85 84.45 23.8 84.05 23.4 83.5 22.8 81.3 22.0 L81.35 21.9 83.05 19.8 Q83.4 19.35 83.4 18.2 83.4 16.9 82.9 16.2 82.2 15.2 80.1 14.35 M78.75 17.6 Q79.65 17.85 79.95 18.15 L79.3 19.05 78.45 19.9 78.3 19.45 78.3 17.55 78.75 17.6" fill="#6a7b8a" fill-opacity="0.9882353" fill-rule="evenodd" stroke="none"/>
    <path d="M93.25 63.1 L78.2 48.1 Q84.5 40.2 93.4 40.1 97.4 52.4 93.25 63.1" fill="#6a7b8a" fill-opacity="0.9882353" fill-rule="evenodd" stroke="none"/>
    <path d="M93.4 40.1 L93.45 40.05 Q101.8 40.95 106.0 49.4 L105.05 63.3 93.45 63.3 93.25 63.1 Q97.4 52.4 93.4 40.1" fill="#3a4f62" fill-opacity="0.9882353" fill-rule="evenodd" stroke="none"/>
    <path d="M192.75 126.75 L155.45 135.4 67.8 114.6 Q65.0 102.6 72.0 98.75 69.85 95.75 68.85 96.5 63.85 80.6 67.55 63.15 66.95 64.4 68.1 60.2 69.2 55.95 71.6 52.9 L74.0 50.4 Q76.1 48.55 79.15 46.7 84.3 43.55 93.15 46.25 112.3 50.8 127.4 62.15 L133.45 81.75 166.05 93.85 192.75 126.75" fill="#8193a3" fill-opacity="0.9882353" fill-rule="evenodd" stroke="none"/>
    <path d="M161.65 100.6 L161.25 101.1 161.15 101.0 161.0 100.9 161.75 100.45 161.65 100.6 M165.45 97.4 L164.95 96.1 Q164.35 95.35 162.95 95.05 L160.75 94.85 Q158.9 94.6 158.3 93.8 157.8 93.2 156.7 93.35 155.7 93.5 155.0 94.05 154.35 94.5 153.65 95.45 147.85 91.7 144.85 91.7 142.8 91.7 141.0 92.85 139.3 94.15 138.45 94.5 138.35 92.4 137.75 90.9 136.6 88.0 132.4 88.0 130.8 88.0 128.7 88.8 126.6 89.6 125.9 89.6 L125.3 89.35 125.15 88.9 Q124.95 87.7 125.3 85.15 L125.65 81.65 126.7 79.35 Q126.7 78.25 125.7 78.4 125.3 78.5 124.95 78.9 L124.9 78.75 126.2 76.35 Q126.2 73.7 123.95 76.75 L123.7 77.15 123.45 76.9 126.5 71.7 Q126.5 68.25 121.95 75.7 L121.9 75.8 121.25 75.4 121.3 75.3 124.2 71.05 126.2 68.2 Q126.2 66.3 124.7 67.5 L124.2 67.95 124.6 67.05 Q124.6 66.45 124.0 66.15 L124.7 64.9 124.55 64.3 Q125.55 63.05 126.7 61.85 L127.4 62.15 133.45 81.75 Q149.75 84.8 166.05 93.85 L192.75 126.75 187.25 128.05 177.4 116.75 175.05 113.9 Q175.65 112.6 175.65 111.95 172.35 104.5 169.65 103.55 L170.1 101.15 Q170.15 99.7 168.95 98.95 167.95 98.3 166.55 98.1 165.6 97.95 165.45 97.4" fill="#6a7b8a" fill-opacity="0.9882353" fill-rule="evenodd" stroke="none"/>
    <path d="M196.3 121.4 Q192.45 124.75 186.9 124.75 181.4 124.75 177.45 121.4 173.6 118.15 173.6 113.45 173.6 108.75 177.45 105.4 181.4 102.15 186.9 102.15 192.45 102.15 196.3 105.4 200.2 108.75 200.2 113.45 200.2 118.15 196.3 121.4" fill="#dee2e2" fill-opacity="0.9882353" fill-rule="evenodd" stroke="none"/>
    <path d="M83.45 61.35 Q78.8 60.6 78.8 63.0 78.8 63.95 80.25 64.65 80.4 65.95 82.1 66.35 L83.35 66.05 84.15 66.05 84.55 68.7 Q79.5 68.3 79.5 70.15 79.5 70.65 81.05 71.45 L81.0 71.9 81.2 72.95 Q81.65 74.0 82.85 74.0 L85.3 73.95 85.35 74.25 Q80.8 73.6 80.8 75.8 80.8 76.75 82.0 77.5 81.55 78.0 81.55 78.95 81.55 79.55 81.85 80.1 L82.35 80.7 Q81.4 81.4 81.4 82.45 81.4 82.95 81.7 83.45 82.15 84.3 83.25 84.3 L83.65 84.3 Q83.2 84.6 83.2 85.35 83.2 85.95 83.5 86.25 L84.0 86.6 83.95 86.75 Q81.8 86.55 81.75 88.65 79.55 88.9 79.55 90.9 79.55 91.55 80.95 92.3 79.7 92.8 79.7 94.3 79.7 95.3 81.3 96.3 L81.35 96.3 Q81.0 96.75 81.0 97.3 81.0 98.25 82.3 99.05 81.65 99.55 81.65 100.35 81.65 101.85 83.2 102.35 L89.6 102.95 92.25 121.3 71.35 116.35 68.05 104.15 72.85 101.4 Q70.55 96.85 69.4 92.05 L70.35 91.45 Q71.85 90.4 71.85 89.9 71.85 87.8 69.1 88.35 L69.75 87.9 Q71.2 86.7 71.2 85.8 71.2 83.4 68.4 84.55 L68.4 84.45 69.5 83.9 Q70.15 83.4 70.15 82.65 70.15 81.15 68.35 81.0 L68.4 80.1 Q70.7 77.5 70.7 76.7 70.7 73.85 68.45 75.65 L68.5 72.05 70.4 69.65 Q70.4 67.05 68.55 68.3 L68.65 64.05 70.25 62.15 Q70.25 60.05 68.7 60.7 L68.7 59.95 69.55 58.7 Q70.15 58.55 70.45 58.05 L70.7 56.95 70.7 56.8 70.85 56.3 70.6 54.8 73.9 51.5 78.75 46.6 78.85 47.15 Q79.35 48.1 80.6 48.15 80.1 48.75 80.1 49.75 L80.3 50.85 80.35 50.9 Q79.9 51.45 79.9 52.15 79.9 52.7 80.3 53.25 80.9 54.15 82.1 54.15 L82.4 54.15 82.5 54.9 Q78.2 54.45 78.2 56.85 78.2 57.65 79.25 57.95 L83.05 58.8 83.45 61.35" fill="#a4afb8" fill-opacity="0.9882353" fill-rule="evenodd" stroke="none"/>
    <path d="M207.9 116.4 L207.05 119.55 Q205.7 124.65 205.7 125.8 L204.65 132.25 41.65 130.75 1.15 84.05 Q43.05 80.2 81.7 91.05 L81.9 91.65 Q82.3 92.65 82.75 96.6 83.5 100.35 85.5 101.55 124.6 102.35 180.35 111.8 L207.9 116.4" fill="#505e6b" fill-opacity="0.9882353" fill-rule="evenodd" stroke="none"/>
    <path d="M30.75 98.3 L30.9 97.45 Q32.15 97.8 34.1 99.55 L33.9 100.2 Q33.9 100.55 34.25 101.0 L35.1 101.95 35.55 102.95 Q36.0 103.75 36.75 103.75 37.65 103.75 38.15 102.1 L37.95 101.65 Q37.8 100.05 35.75 97.75 35.95 94.3 37.1 94.05 38.25 93.8 39.6 94.8 40.8 96.25 42.5 97.45 L42.5 97.5 Q43.1 98.65 44.6 98.6 46.05 98.5 45.85 98.1 L45.3 97.15 44.95 96.45 44.9 96.35 Q44.15 94.95 43.8 95.25 43.45 95.5 43.55 95.15 L43.5 94.35 43.15 91.7 Q44.3 92.1 47.6 95.15 50.9 98.2 50.95 99.55 50.95 100.9 49.6 102.15 L45.4 104.7 Q44.05 105.35 41.95 107.2 39.8 108.7 36.6 108.7 34.9 108.7 33.9 107.9 L32.8 105.2 31.65 101.6 30.75 98.3" fill="#2c3843" fill-opacity="0.9882353" fill-rule="evenodd" stroke="none"/>
    <path d="M137.75 90.05 Q139.15 91.9 139.15 94.5 139.15 97.05 137.75 98.85 136.4 100.75 134.45 100.75 132.55 100.75 131.1 98.85 129.75 97.05 129.75 94.5 129.75 91.9 131.1 90.05 132.55 88.25 134.45 88.25 136.4 88.25 137.75 90.05" fill="#546677" fill-opacity="0.9882353" fill-rule="evenodd" stroke="none"/>
    <path d="M138.3 89.85 Q139.7 91.7 139.7 94.3 139.7 96.85 138.3 98.65 136.95 100.55 135.0 100.55 133.1 100.55 131.65 98.65 130.3 96.85 130.3 94.3 130.3 91.7 131.65 89.85 133.1 88.05 135.0 88.05 136.95 88.05 138.3 89.85" fill="#afbfcd" fill-opacity="0.9882353" fill-rule="evenodd" stroke="none"/>
    <path d="M18.6 69.05 L36.25 76.0 Q34.25 77.1 32.4 79.75 L16.8 73.6 Q16.9 70.8 18.6 69.05" fill="#34383c" fill-rule="evenodd" stroke="none"/>
    <path d="M24.3 100.9 L25.05 101.0 24.95 101.1 24.3 100.9 M33.2 107.75 L33.25 107.7 33.45 107.75 33.2 107.75 M46.6 123.7 L46.85 123.7 47.2 123.8 46.6 123.7 M41.45 117.0 L41.25 116.9 41.5 116.95 41.45 117.0 M1.15 84.05 Q4.2 85.1 7.0 86.6 L13.25 89.95 Q12.75 90.75 12.75 91.65 12.75 93.95 15.55 95.6 18.2 97.15 21.7 97.2 L20.85 98.15 Q20.4 98.95 20.4 99.95 20.4 101.05 21.55 102.3 22.85 103.75 24.55 103.75 L27.1 103.2 27.45 103.35 27.2 103.95 Q25.4 104.85 25.4 106.25 25.4 108.2 26.25 109.55 27.85 112.05 32.1 112.05 L32.6 112.05 Q32.25 112.75 32.25 113.55 32.25 117.2 36.15 119.65 L39.0 121.0 38.95 121.15 Q38.95 122.2 42.1 122.9 L41.9 123.65 Q41.9 125.2 43.05 125.95 L42.65 125.95 Q41.9 126.1 41.9 127.25 41.9 129.25 47.45 130.3 L49.45 130.6 49.0 130.75 41.65 130.7 55.7 139.65 32.25 140.35 Q12.75 114.95 1.15 84.05" fill="#66717b" fill-opacity="0.9882353" fill-rule="evenodd" stroke="none"/>
    <path d="M204.8 131.2 L204.35 133.9 203.65 138.4 32.75 140.65 31.65 139.2 24.05 129.6 Q22.35 127.35 20.6 124.15 87.75 116.95 204.8 131.2" fill="#aa2424" fill-opacity="0.9882353" fill-rule="evenodd" stroke="none"/>
    <path d="M91.1 13.4 Q91.1 17.35 88.3 20.1 85.55 22.9 81.6 22.9 77.65 22.9 74.85 20.1 72.1 17.35 72.1 13.4 72.1 9.45 74.85 6.65 77.65 3.9 81.6 3.9 85.55 3.9 88.3 6.65 91.1 9.45 91.1 13.4" fill="#b9c2c1" fill-opacity="0.9882353" fill-rule="evenodd" stroke="none"/>
    <path d="M57.35 96.55 L57.4 96.55 Q60.1 97.1 60.25 100.85 L60.25 100.95 Q60.2 101.9 59.75 102.85 L57.9 105.55 Q56.1 107.75 56.35 108.85 L59.6 108.95 59.65 110.95 54.05 110.6 53.9 108.75 Q53.9 107.35 54.25 106.85 54.9 105.4 56.45 103.4 57.95 101.25 58.05 100.4 57.8 99.1 57.3 98.9 56.1 98.8 56.15 100.7 L53.9 100.25 53.9 100.15 Q53.9 99.1 54.25 98.0 54.7 96.4 56.45 96.45 L57.35 96.55 M70.75 98.85 L69.7 111.6 67.9 111.4 68.45 101.5 67.7 101.65 67.7 99.9 69.3 98.6 70.75 98.85 M74.25 99.3 Q76.3 99.75 76.15 103.0 L76.15 103.05 75.6 104.7 74.05 107.05 Q72.45 109.0 72.65 109.95 L75.1 109.95 75.05 111.75 70.75 111.45 70.75 109.9 Q70.8 108.6 71.15 108.2 71.75 106.95 73.1 105.25 74.35 103.4 74.5 102.65 74.4 101.45 74.1 101.35 73.1 101.2 73.0 102.95 L71.3 102.6 71.3 102.45 Q71.35 101.55 71.8 100.55 72.35 98.95 74.2 99.3 L74.25 99.3 M62.75 104.65 Q62.6 106.85 62.8 108.1 62.85 109.2 63.55 109.35 64.1 109.25 64.4 108.2 L64.75 104.85 64.75 101.4 Q64.55 100.1 63.95 99.95 63.3 99.9 63.1 101.1 62.8 102.25 62.75 104.65 M63.45 111.25 Q61.35 111.1 60.95 109.45 60.45 107.65 60.5 104.4 60.6 100.95 61.25 99.25 61.85 97.4 64.15 97.8 66.2 98.2 66.65 100.05 67.0 101.8 66.85 105.1 66.65 108.2 66.15 109.8 65.45 111.2 63.45 111.25" fill="#e2e0e0" fill-opacity="0.9882353" fill-rule="evenodd" stroke="none"/>
    <path d="M118.7 71.15 Q117.85 69.95 116.4 70.0 115.0 70.05 114.0 71.55 113.05 73.0 113.1 75.0 113.15 77.05 114.2 78.5 115.3 79.9 116.75 79.85 118.15 79.8 119.05 78.3 119.95 76.75 119.75 74.55 119.55 72.3 118.7 71.15 M112.2 69.85 Q113.7 67.65 115.85 67.55 118.05 67.5 119.65 69.6 121.3 71.75 121.4 74.85 121.5 77.95 120.05 80.2 118.55 82.45 116.35 82.5 114.2 82.6 112.6 80.45 110.95 78.3 110.85 75.2 110.75 72.1 112.2 69.85" fill="#8c130f" fill-opacity="0.9882353" fill-rule="evenodd" stroke="none"/>
    <path d="M120.05 71.35 Q119.0 69.95 117.55 70.0 116.15 70.05 115.15 71.55 114.2 73.0 114.25 75.0 114.3 77.05 115.35 78.5 116.45 79.9 117.85 79.85 119.3 79.8 120.25 78.3 121.2 76.85 121.15 74.8 121.1 72.8 120.05 71.35 M113.35 69.85 Q114.85 67.65 117.0 67.55 119.2 67.5 120.8 69.6 122.45 71.75 122.55 74.85 122.65 77.95 121.2 80.2 119.7 82.45 117.5 82.5 115.35 82.6 113.75 80.45 112.1 78.3 112.0 75.2 111.9 72.1 113.35 69.85" fill="#b62823" fill-opacity="0.9882353" fill-rule="evenodd" stroke="none"/>
    <path d="M88.25 9.95 Q88.25 12.8 85.9 15.1 83.6 17.4 80.3 17.85 77.05 18.25 74.7 16.5 72.4 14.8 72.4 11.95 72.4 9.05 74.7 6.75 77.05 4.45 80.3 4.05 83.6 3.6 85.9 5.35 88.25 7.05 88.25 9.95" fill="#dee2e2" fill-opacity="0.9882353" fill-rule="evenodd" stroke="none"/>
    <path d="M90.55 12.85 Q90.55 9.1 88.05 6.4 L88.3 6.65 Q91.1 9.45 91.1 13.4 91.1 17.35 88.3 20.1 85.55 22.9 81.6 22.9 77.65 22.9 74.85 20.1 L74.6 19.85 Q77.3 22.35 81.05 22.35 85.0 22.35 87.75 19.55 90.55 16.8 90.55 12.85" fill="#dee2e2" fill-opacity="0.9882353" fill-rule="evenodd" stroke="none"/>
    <path d="M90.75 60.5 Q96.95 61.6 104.7 63.95 L104.7 75.5 Q97.0 73.5 90.75 72.7 L90.75 60.5 M67.55 65.45 Q71.35 57.75 87.8 60.0 L87.8 72.4 86.35 72.3 Q73.15 71.5 66.05 77.75 L67.55 65.45" fill="#357cbb" fill-opacity="0.9882353" fill-rule="evenodd" stroke="none"/>
    <path d="M104.7 75.5 L104.7 63.95 Q96.95 61.6 90.75 60.5 L90.75 58.95 Q96.95 60.05 104.7 62.4 L105.95 62.75 105.95 75.8 104.7 75.5 M67.55 65.45 L67.55 63.9 Q71.15 56.55 86.35 58.3 L86.7 58.35 87.8 58.5 87.8 60.0 Q71.35 57.75 67.55 65.45" fill="#083b69" fill-opacity="0.9882353" fill-rule="evenodd" stroke="none"/>
    <path d="M110.75 74.9 L110.75 73.95 Q112.5 72.6 114.4 73.95 L114.4 74.9 Q111.75 74.25 110.75 74.9" fill="#eeeeee" fill-opacity="0.9882353" fill-rule="evenodd" stroke="none"/>
    <path d="M122.6 74.95 L122.6 76.15 119.6 76.15 119.6 74.95 Q120.9 73.9 122.6 74.95" fill="#eeeeee" fill-opacity="0.9882353" fill-rule="evenodd" stroke="none"/>
    <path d="M137.15 91.65 Q138.05 92.9 138.05 94.6 138.05 96.3 137.15 97.45 136.25 98.7 134.95 98.7 133.7 98.7 132.75 97.45 131.9 96.3 131.9 94.6 131.9 92.9 132.75 91.65 133.7 90.5 134.95 90.5 136.25 90.5 137.15 91.65" fill="#6a7b8a" fill-opacity="0.9882353" fill-rule="evenodd" stroke="none"/>
    <path d="M137.6 91.5 Q138.5 92.75 138.5 94.45 138.5 96.15 137.6 97.3 136.7 98.55 135.4 98.55 134.15 98.55 133.2 97.3 132.35 96.15 132.35 94.45 132.35 92.75 133.2 91.5 134.15 90.35 135.4 90.35 136.7 90.35 137.6 91.5" fill="#357cbb" fill-opacity="0.9882353" fill-rule="evenodd" stroke="none"/>
    <path d="M137.6 91.5 L138.2 92.65 135.8 95.3 133.65 97.8 133.2 97.3 Q132.35 96.15 132.35 94.45 L132.4 93.95 136.6 90.65 137.6 91.5" fill="#a1d3ff" fill-opacity="0.9882353" fill-rule="evenodd" stroke="none"/>
    <path d="M127.4 62.15 L132.85 79.8 132.15 79.8 127.4 64.4 Q112.3 53.05 93.15 48.5 84.3 45.8 79.15 48.95 76.1 50.8 74.0 52.65 L71.6 55.15 Q69.2 58.2 68.1 62.45 L67.55 64.55 67.55 63.15 Q66.95 64.4 68.1 60.2 69.2 55.95 71.6 52.9 L74.0 50.4 Q76.1 48.55 79.15 46.7 84.3 43.55 93.15 46.25 112.3 50.8 127.4 62.15" fill="#566470" fill-opacity="0.9882353" fill-rule="evenodd" stroke="none"/>
    <path d="M136.75 91.5 Q136.0 90.55 135.0 90.4 L135.4 90.35 Q136.7 90.35 137.6 91.5 138.5 92.75 138.5 94.45 138.5 96.15 137.6 97.3 136.7 98.55 135.4 98.55 L135.0 98.55 Q136.0 98.35 136.75 97.3 137.65 96.15 137.65 94.45 137.65 92.75 136.75 91.5" fill="#14436d" fill-opacity="0.9882353" fill-rule="evenodd" stroke="none"/>
    <path d="M76.25 60.25 L76.65 60.25 Q76.4 64.4 76.3 69.0 L76.1 72.85 74.0 73.4 Q74.75 69.15 74.3 60.85 75.85 62.55 76.25 60.25 M96.3 73.6 L94.9 73.35 95.55 71.0 97.15 66.0 96.3 73.6 M102.0 61.6 L102.0 62.3 Q102.0 66.55 102.5 74.95 L100.45 74.45 101.3 65.65 101.95 61.6 102.0 61.6" fill="#77b8f0" fill-opacity="0.9882353" fill-rule="evenodd" stroke="none"/>
    <path d="M152.95 92.75 Q154.35 94.6 154.35 97.2 154.35 99.75 152.95 101.55 151.6 103.45 149.65 103.45 147.75 103.45 146.3 101.55 144.95 99.75 144.95 97.2 144.95 94.6 146.3 92.75 147.75 90.95 149.65 90.95 151.6 90.95 152.95 92.75" fill="#546677" fill-opacity="0.9882353" fill-rule="evenodd" stroke="none"/>
    <path d="M153.5 92.55 Q154.9 94.4 154.9 97.0 154.9 99.55 153.5 101.35 152.15 103.25 150.2 103.25 148.3 103.25 146.85 101.35 145.5 99.55 145.5 97.0 145.5 94.4 146.85 92.55 148.3 90.75 150.2 90.75 152.15 90.75 153.5 92.55" fill="#afbfcd" fill-opacity="0.9882353" fill-rule="evenodd" stroke="none"/>
    <path d="M152.35 94.35 Q153.25 95.6 153.25 97.3 153.25 99.0 152.35 100.15 151.45 101.4 150.15 101.4 148.9 101.4 147.95 100.15 147.1 99.0 147.1 97.3 147.1 95.6 147.95 94.35 148.9 93.2 150.15 93.2 151.45 93.2 152.35 94.35" fill="#6a7b8a" fill-opacity="0.9882353" fill-rule="evenodd" stroke="none"/>
    <path d="M152.8 94.2 Q153.7 95.45 153.7 97.15 153.7 98.85 152.8 100.0 151.9 101.25 150.6 101.25 149.35 101.25 148.4 100.0 147.55 98.85 147.55 97.15 147.55 95.45 148.4 94.2 149.35 93.05 150.6 93.05 151.9 93.05 152.8 94.2" fill="#357cbb" fill-opacity="0.9882353" fill-rule="evenodd" stroke="none"/>
    <path d="M152.8 94.2 L153.4 95.35 151.0 98.0 148.85 100.5 148.4 100.0 Q147.55 98.85 147.55 97.15 L147.6 96.65 151.8 93.35 Q152.35 93.6 152.8 94.2" fill="#a1d3ff" fill-opacity="0.9882353" fill-rule="evenodd" stroke="none"/>
    <path d="M151.95 94.2 Q151.2 93.25 150.2 93.1 L150.6 93.05 Q151.9 93.05 152.8 94.2 153.7 95.45 153.7 97.15 153.7 98.85 152.8 100.0 151.9 101.25 150.6 101.25 L150.2 101.25 Q151.2 101.05 151.95 100.0 152.85 98.85 152.85 97.15 152.85 95.45 151.95 94.2" fill="#14436d" fill-opacity="0.9882353" fill-rule="evenodd" stroke="none"/>
    <path d="M74.45 28.1 Q82.8 28.05 92.95 22.95 94.95 19.5 93.65 17.3 L71.85 24.5 Q71.3 28.25 74.45 28.1" fill="#90a0af" fill-opacity="0.9882353" fill-rule="evenodd" stroke="none"/>
    <path d="M18.4 71.95 L34.05 78.1 33.3 78.8 32.6 79.4 18.0 73.45 18.4 71.95" fill="#272727" fill-opacity="0.9882353" fill-rule="evenodd" stroke="none"/>
    <path d="M18.65 69.35 L34.95 75.95 34.2 76.65 34.2 76.7 Q30.65 75.2 17.7 70.35 L18.65 69.35" fill="#878c93" fill-opacity="0.9882353" fill-rule="evenodd" stroke="none"/>
    <path d="M160.2 88.25 Q161.05 93.05 156.0 95.6 142.3 90.0 129.7 81.5 122.85 69.25 136.8 68.3 147.35 71.75 157.15 78.0 L155.65 78.0 160.2 88.25" fill="#31475b" fill-opacity="0.5019608" fill-rule="evenodd" stroke="none"/>
    <path d="M130.8 78.55 Q123.95 66.3 137.9 65.35 152.05 69.95 164.8 79.6 163.9 88.4 157.7 92.9 143.65 87.25 130.8 78.55" fill="#8193a3" fill-opacity="0.9882353" fill-rule="evenodd" stroke="none"/>
    <path d="M132.0 66.6 Q130.3 69.35 134.05 75.0 146.9 83.7 160.95 89.35 L161.45 89.0 Q160.05 90.8 158.1 92.2 144.05 86.55 131.2 77.85 127.1 70.55 132.0 66.6 M132.2 66.05 L132.1 66.25 Q131.65 66.3 132.2 66.05" fill="#667685" fill-opacity="0.9882353" fill-rule="evenodd" stroke="none"/>
    <path d="M164.4 81.75 Q162.0 80.55 156.95 77.35 156.25 77.25 154.0 75.7 152.9 75.0 149.85 73.7 L147.0 72.6 146.9 72.6 143.25 70.55 Q137.5 67.45 132.3 67.35 L131.6 67.15 Q133.85 66.0 137.7 65.75 151.85 70.35 164.6 80.0 L164.4 81.75 M158.75 91.95 L158.6 92.5 158.0 92.95 158.75 91.95 M160.6 82.1 L161.3 82.55 161.5 82.75 160.6 82.1 M164.35 81.95 Q163.6 81.45 164.35 81.85 L164.35 81.95" fill="#98acbd" fill-opacity="0.9882353" fill-rule="evenodd" stroke="none"/>
    <path d="M37.35 89.0 Q39.4 89.0 40.85 90.45 42.35 91.95 42.35 94.0 42.35 96.05 40.85 97.5 39.4 99.0 37.35 99.0 35.3 99.0 33.8 97.5 32.35 96.05 32.35 94.0 32.35 91.95 33.8 90.45 35.3 89.0 37.35 89.0" fill="#728191" fill-opacity="0.9882353" fill-rule="evenodd" stroke="none"/>
    <path d="M37.95 91.55 Q39.15 91.55 40.0 92.45 40.9 93.4 40.9 94.65 40.9 95.9 40.0 96.8 39.15 97.75 37.95 97.75 36.75 97.75 35.85 96.8 35.0 95.9 35.0 94.65 35.0 93.4 35.85 92.45 36.75 91.55 37.95 91.55" fill="#363e46" fill-opacity="0.9882353" fill-rule="evenodd" stroke="none"/>
    <path d="M30.75 96.7 L30.9 95.85 Q32.15 96.2 34.1 97.95 L33.9 98.6 Q33.9 98.95 34.25 99.4 L35.1 100.35 35.55 101.35 Q36.0 102.15 36.75 102.15 37.65 102.15 38.15 100.5 L37.95 100.05 Q37.8 98.45 35.75 96.15 35.05 93.05 36.65 92.65 38.25 92.2 39.6 93.2 40.8 94.65 42.5 95.85 L42.5 95.9 Q43.1 97.05 44.6 97.0 46.05 96.9 45.85 96.5 L45.3 95.55 44.95 94.85 44.9 94.75 Q44.15 93.35 43.8 93.65 43.45 93.9 43.55 93.55 L43.5 92.75 43.15 90.1 Q44.3 90.5 47.6 93.55 50.9 96.6 50.95 97.95 50.95 99.3 49.6 100.55 L45.4 103.1 Q44.05 103.75 41.95 105.6 39.8 107.1 36.6 107.1 34.9 107.1 33.9 106.3 L32.8 103.6 31.65 100.0 30.75 96.7" fill="#737f8a" fill-opacity="0.9882353" fill-rule="evenodd" stroke="none"/>
    <path d="M108.5 96.0 Q108.5 95.7 108.15 95.7 L107.65 95.9 107.65 96.55 107.9 96.6 108.25 96.4 108.5 96.0 M109.45 96.65 L109.3 97.3 Q109.05 97.8 108.4 97.8 107.65 97.8 107.4 97.1 L107.25 96.4 Q107.25 95.35 108.35 95.45 109.45 95.55 109.45 96.65" fill="#566470" fill-rule="evenodd" stroke="none"/>
    <path d="M108.5 96.0 L108.25 96.4 107.9 96.6 107.65 96.55 107.65 95.9 108.15 95.7 Q108.5 95.7 108.5 96.0" fill="#a4aeb7" fill-rule="evenodd" stroke="none"/>
    <path d="M108.9 90.6 L108.75 91.25 Q108.5 91.75 107.85 91.75 107.1 91.75 106.85 91.05 L106.7 90.35 Q106.7 89.3 107.8 89.4 108.9 89.5 108.9 90.6 M107.95 89.95 Q107.95 89.65 107.6 89.65 107.3 89.65 107.1 89.85 L107.1 90.5 107.35 90.55 107.7 90.35 107.95 89.95" fill="#566470" fill-rule="evenodd" stroke="none"/>
    <path d="M107.95 89.95 L107.7 90.35 107.35 90.55 107.1 90.5 107.1 89.85 Q107.3 89.65 107.6 89.65 107.95 89.65 107.95 89.95" fill="#a4aeb7" fill-rule="evenodd" stroke="none"/>
    <path d="M107.65 83.85 Q107.65 83.55 107.3 83.55 L106.8 83.75 106.8 84.4 107.05 84.45 107.4 84.25 107.65 83.85 M108.6 84.5 L108.45 85.15 Q108.2 85.65 107.55 85.65 106.8 85.65 106.55 84.95 L106.4 84.25 Q106.4 83.2 107.5 83.3 108.6 83.4 108.6 84.5" fill="#566470" fill-rule="evenodd" stroke="none"/>
    <path d="M107.65 83.85 L107.4 84.25 107.05 84.45 106.8 84.4 106.8 83.75 107.3 83.55 Q107.65 83.55 107.65 83.85" fill="#a4aeb7" fill-rule="evenodd" stroke="none"/>
    <path d="M109.85 99.65 L109.7 100.3 Q109.45 100.8 108.8 100.8 108.05 100.8 107.8 100.1 L107.65 99.4 Q107.65 98.35 108.75 98.45 109.85 98.55 109.85 99.65 M108.9 99.0 L108.55 98.7 108.05 98.9 108.05 99.55 108.3 99.6 108.65 99.4 108.9 99.0" fill="#566470" fill-rule="evenodd" stroke="none"/>
    <path d="M108.9 99.0 L108.65 99.4 108.3 99.6 108.05 99.55 108.05 98.9 108.55 98.7 108.9 99.0" fill="#a4aeb7" fill-rule="evenodd" stroke="none"/>
    <path d="M32.85 97.55 L33.0 97.05 34.1 97.95 33.9 98.6 Q33.9 98.95 34.25 99.4 L35.1 100.35 35.45 101.1 Q34.85 100.95 34.5 100.3 L34.05 99.3 33.2 98.35 Q32.85 97.9 32.85 97.55 M39.3 92.95 L39.6 93.2 40.05 93.7 39.3 92.95 M43.85 93.65 L43.8 93.65 Q43.45 93.9 43.55 93.55 L43.6 93.2 43.85 93.65" fill="#6f7a85" fill-opacity="0.9882353" fill-rule="evenodd" stroke="none"/>
    <path d="M48.05 93.95 Q50.9 96.7 50.95 97.95 50.95 99.3 49.6 100.55 L45.4 103.1 Q44.05 103.75 41.95 105.6 39.8 107.1 36.6 107.1 34.9 107.1 33.9 106.3 L33.65 105.75 35.55 106.05 Q38.75 106.05 40.9 104.55 43.0 102.7 44.35 102.05 47.15 100.7 48.55 99.5 49.9 98.25 49.9 96.9 49.85 95.9 48.05 93.95" fill="#545e66" fill-opacity="0.9882353" fill-rule="evenodd" stroke="none"/>
    <path d="M36.6 93.85 L36.7 93.5 37.25 93.35 Q37.9 93.35 40.5 96.0 43.1 98.6 44.1 98.6 L45.2 98.2 46.2 97.6 46.75 97.2 47.6 96.7 Q47.75 96.55 47.85 96.5 L47.05 98.35 Q46.25 100.25 45.05 100.25 44.25 100.35 43.1 100.95 41.9 101.55 41.9 101.9 L40.55 103.2 Q39.15 104.25 38.55 104.25 L37.15 103.95 36.7 103.45 36.95 103.15 38.2 102.75 Q38.85 102.6 39.25 101.6 L39.65 100.15 38.1 96.85 36.6 93.85" fill="#8f98a1" fill-opacity="0.9882353" fill-rule="evenodd" stroke="none"/>
    <path d="M43.85 90.75 Q44.4 90.75 44.5 91.45 L45.0 93.2 46.1 95.7 46.05 95.8 45.9 95.85 Q45.6 95.85 45.0 94.8 L44.1 93.4 43.75 93.45 Q43.45 93.15 43.45 92.25 L43.5 90.8 43.85 90.75" fill="#8f98a1" fill-opacity="0.9882353" fill-rule="evenodd" stroke="none"/>
    <path d="M31.25 96.85 Q31.25 95.85 32.55 96.75 33.85 97.65 33.85 98.65 L33.75 99.15 34.4 100.6 34.4 100.85 34.35 100.9 Q33.7 100.5 32.5 98.95 31.25 97.35 31.25 96.85" fill="#8f98a1" fill-opacity="0.9882353" fill-rule="evenodd" stroke="none"/>
    <path d="M36.45 91.25 Q34.45 91.9 34.45 93.6 L34.3 94.05 33.75 94.35 Q33.2 94.35 33.05 93.8 L32.95 93.2 Q32.95 91.15 35.7 89.85 38.4 88.55 38.4 90.2 38.4 90.6 36.45 91.25" fill="#8f98a1" fill-opacity="0.9882353" fill-rule="evenodd" stroke="none"/>
    <path d="M91.1 18.15 L93.65 17.3 Q94.95 19.5 92.95 22.95 82.8 28.05 74.45 28.1 L73.45 28.05 Q81.0 27.45 90.0 22.95 91.65 20.15 91.1 18.15" fill="#6a7b8a" fill-opacity="0.9882353" fill-rule="evenodd" stroke="none"/>
  </g>
</svg>
