<?xml version="1.0" encoding="UTF-8" standalone="no"?>
<svg xmlns:ffdec="https://www.free-decompiler.com/flash" xmlns:xlink="http://www.w3.org/1999/xlink" ffdec:objectType="shape" height="25.5px" width="35.5px" xmlns="http://www.w3.org/2000/svg">
  <g transform="matrix(1.0, 0.0, 0.0, 1.0, -3.3, -1.35)">
    <path d="M24.2 20.8 L19.1 20.35 15.45 20.8 Q13.55 21.2 11.15 22.25 8.75 23.3 5.35 25.35 6.4 21.55 7.9 19.25 9.45 17.0 11.45 15.6 13.5 14.2 16.0 13.0 L12.3 12.2 8.1 12.55 Q5.85 13.15 3.3 14.95 4.35 11.5 6.15 8.6 7.9 5.75 10.65 3.9 13.4 2.0 17.35 1.45 20.4 1.15 23.05 2.05 25.65 2.9 27.85 3.9 30.05 4.85 31.85 4.85 L34.3 4.3 36.4 3.45 38.8 2.8 38.8 26.4 36.5 26.85 33.4 26.55 Q31.8 26.15 30.5 24.9 L27.65 22.35 Q26.2 21.3 24.2 20.8" fill="#d90000" fill-rule="evenodd" stroke="none"/>
  </g>
</svg>
