<?xml version="1.0" encoding="UTF-8" standalone="no"?>
<svg xmlns:ffdec="https://www.free-decompiler.com/flash" xmlns:xlink="http://www.w3.org/1999/xlink" ffdec:objectType="shape" height="23.95px" width="36.45px" xmlns="http://www.w3.org/2000/svg">
  <g transform="matrix(1.0, 0.0, 0.0, 1.0, -2.35, -2.5)">
    <path d="M2.35 12.6 L2.45 12.65 2.35 12.7 2.35 12.6 M38.75 2.8 L38.8 2.85 38.8 26.4 38.2 26.45 38.0 26.45 37.05 26.35 34.85 25.85 32.95 25.15 32.35 25.0 31.8 24.75 29.8 24.25 29.4 24.1 27.25 23.65 24.7 23.55 24.35 23.6 18.2 23.85 17.25 23.7 5.2 22.9 3.25 22.5 5.85 20.15 8.55 18.35 14.65 15.25 11.7 14.6 11.3 14.55 8.55 13.85 8.15 13.8 5.4 13.15 5.2 13.15 2.45 12.65 3.9 11.45 9.25 8.0 20.4 3.1 22.05 2.7 26.4 2.5 32.15 2.9 35.65 2.55 38.75 2.8" fill="#d90000" fill-rule="evenodd" stroke="none"/>
  </g>
</svg>
