<?xml version="1.0" encoding="UTF-8" standalone="no"?>
<svg xmlns:ffdec="https://www.free-decompiler.com/flash" xmlns:xlink="http://www.w3.org/1999/xlink" ffdec:objectType="shape" height="24.55px" width="37.0px" xmlns="http://www.w3.org/2000/svg">
  <g transform="matrix(1.0, 0.0, 0.0, 1.0, -1.8, -1.9)">
    <path d="M1.8 11.5 L1.9 11.55 1.9 11.6 1.8 11.5 M38.75 2.8 L38.8 2.85 38.8 26.4 38.15 26.45 37.35 26.3 32.8 24.5 32.15 24.35 31.6 24.15 30.45 23.95 27.75 23.9 19.45 25.5 17.3 25.55 13.25 24.9 12.25 24.85 6.55 23.3 4.05 22.2 2.2 21.1 4.9 20.1 5.2 19.95 7.65 19.1 8.05 18.9 10.7 18.0 14.05 16.35 14.0 16.35 10.5 15.65 7.7 14.7 7.3 14.6 4.6 13.25 4.4 13.2 1.9 11.55 12.85 8.1 20.8 3.9 22.55 3.15 26.55 2.15 29.0 1.95 29.4 2.0 31.8 1.9 32.3 1.95 35.9 1.9 38.75 2.8" fill="#d90000" fill-rule="evenodd" stroke="none"/>
  </g>
</svg>
