<?xml version="1.0" encoding="UTF-8" standalone="no"?>
<svg xmlns:ffdec="https://www.free-decompiler.com/flash" xmlns:xlink="http://www.w3.org/1999/xlink" ffdec:objectType="shape" height="26.35px" width="37.65px" xmlns="http://www.w3.org/2000/svg">
  <g transform="matrix(1.0, 0.0, 0.0, 1.0, -1.15, -0.95)">
    <path d="M35.95 1.25 L36.1 1.25 38.75 2.8 38.8 2.85 38.8 26.4 38.15 26.4 37.3 26.15 36.95 25.95 32.65 23.9 31.4 23.55 30.2 23.45 27.25 23.95 21.0 26.6 18.65 27.15 16.4 27.3 11.15 26.15 8.85 25.25 5.35 23.4 2.85 21.55 1.15 19.7 7.15 19.55 10.15 18.9 13.4 17.5 13.35 17.45 11.75 17.25 9.7 16.75 6.45 15.35 3.8 13.4 3.65 13.25 1.25 10.4 1.4 10.45 5.85 10.4 13.55 9.45 15.9 8.5 17.55 7.5 22.65 3.75 26.7 1.8 31.95 0.95 32.45 1.0 34.35 1.0 35.95 1.25" fill="#d90000" fill-rule="evenodd" stroke="none"/>
  </g>
</svg>
