<?xml version="1.0" encoding="UTF-8" standalone="no"?>
<svg xmlns:ffdec="https://www.free-decompiler.com/flash" xmlns:xlink="http://www.w3.org/1999/xlink" ffdec:objectType="shape" height="29.0px" width="38.7px" xmlns="http://www.w3.org/2000/svg">
  <g transform="matrix(1.0, 0.0, 0.0, 1.0, -0.1, 0.0)">
    <path d="M35.15 0.25 Q36.3 0.55 37.15 1.2 L38.8 2.8 38.8 26.4 Q38.0 26.6 36.55 25.6 L33.4 23.65 Q31.65 22.7 29.9 22.95 27.5 23.5 25.9 24.5 24.25 25.45 22.95 26.45 L20.3 28.1 Q18.55 28.8 17.05 28.95 L13.9 28.75 Q12.25 28.4 10.1 27.5 8.15 26.7 6.1 25.15 4.05 23.6 2.45 21.75 0.8 19.9 0.1 18.25 2.5 19.35 4.6 19.8 L8.6 19.95 Q10.6 19.65 12.75 18.6 8.6 18.4 5.6 16.15 2.55 13.9 0.65 9.25 5.0 10.4 8.05 10.8 L13.25 10.95 Q15.3 10.7 16.6 9.95 18.25 9.0 19.75 7.45 L22.95 4.3 Q24.65 2.65 26.85 1.45 29.1 0.3 32.1 0.05 L35.15 0.25" fill="#d90000" fill-rule="evenodd" stroke="none"/>
  </g>
</svg>
