<?xml version="1.0" encoding="UTF-8" standalone="no"?>
<svg xmlns:ffdec="https://www.free-decompiler.com/flash" xmlns:xlink="http://www.w3.org/1999/xlink" ffdec:objectType="shape" height="27.7px" width="37.45px" xmlns="http://www.w3.org/2000/svg">
  <g transform="matrix(1.0, 0.0, 0.0, 1.0, -1.35, -0.55)">
    <path d="M34.45 0.55 L36.15 0.9 38.7 2.8 38.8 3.45 38.8 26.25 38.75 26.4 38.1 26.4 32.6 23.6 31.3 23.25 30.05 23.2 27.05 23.95 20.85 27.15 19.1 27.7 18.5 27.95 16.3 28.25 11.2 27.3 8.3 26.0 5.35 23.85 2.85 21.25 1.35 18.8 3.15 19.45 4.85 19.8 7.8 19.9 10.65 19.3 13.75 17.95 11.95 17.8 11.75 17.75 9.9 17.45 6.8 16.25 6.65 16.15 4.5 14.35 3.8 13.6 1.5 9.6 4.5 10.3 4.55 10.3 7.2 10.7 11.45 10.75 14.55 10.3 16.75 9.35 18.3 8.25 23.15 4.05 27.0 1.8 29.35 1.05 29.5 1.05 32.1 0.6 34.45 0.55" fill="#d90000" fill-rule="evenodd" stroke="none"/>
  </g>
</svg>
