<?xml version="1.0" encoding="UTF-8" standalone="no"?>
<svg xmlns:ffdec="https://www.free-decompiler.com/flash" xmlns:xlink="http://www.w3.org/1999/xlink" ffdec:objectType="shape" height="26.55px" width="36.4px" xmlns="http://www.w3.org/2000/svg">
  <g transform="matrix(1.0, 0.0, 0.0, 1.0, -2.4, -0.95)">
    <path d="M36.05 1.2 L38.05 2.3 38.65 2.75 38.8 3.35 38.8 26.3 38.75 26.4 38.1 26.4 37.65 26.3 32.65 23.95 31.35 23.6 31.3 23.6 30.15 23.5 27.35 23.9 21.45 26.2 21.25 26.25 19.15 27.05 17.1 27.5 12.35 27.1 12.1 27.05 9.55 26.1 6.55 24.25 4.1 21.8 4.05 21.7 2.6 19.3 4.2 19.85 5.5 20.05 6.15 20.05 9.0 19.8 11.7 18.85 14.75 17.25 11.15 17.05 7.85 16.2 7.7 16.15 5.5 14.65 4.75 13.95 2.4 9.95 5.35 10.6 5.4 10.6 7.5 10.8 8.0 10.8 11.95 10.5 14.85 9.8 16.95 8.7 18.45 7.6 19.15 6.9 23.3 3.8 27.1 2.1 29.4 1.6 29.55 1.6 34.45 0.95 36.05 1.2" fill="#d90000" fill-rule="evenodd" stroke="none"/>
  </g>
</svg>
