<?xml version="1.0" encoding="UTF-8" standalone="no"?>
<svg xmlns:ffdec="https://www.free-decompiler.com/flash" xmlns:xlink="http://www.w3.org/1999/xlink" ffdec:objectType="shape" height="25.5px" width="35.55px" xmlns="http://www.w3.org/2000/svg">
  <g transform="matrix(1.0, 0.0, 0.0, 1.0, -3.25, -1.4)">
    <path d="M38.8 3.3 L38.8 26.3 38.75 26.4 38.1 26.45 37.3 26.25 32.7 24.3 31.45 23.95 31.35 23.95 30.3 23.75 29.6 23.8 28.85 23.75 25.65 24.25 23.95 24.75 23.85 24.75 22.85 24.95 22.05 25.3 21.85 25.35 17.9 26.75 13.25 26.9 12.15 26.7 10.75 26.25 8.55 25.1 6.9 23.85 5.25 22.2 3.8 19.85 5.5 20.35 6.85 20.4 7.45 20.35 9.75 19.8 10.2 19.65 12.75 18.4 14.4 17.3 15.8 16.6 13.9 16.55 13.75 16.6 11.95 16.6 8.95 16.2 8.75 16.2 6.45 14.95 5.7 14.25 5.05 13.35 3.25 10.3 6.2 10.9 6.25 10.9 8.3 11.0 12.0 10.4 15.15 9.3 15.85 8.8 17.1 8.1 17.6 7.6 22.8 3.85 23.5 3.55 27.2 2.4 29.45 2.15 29.6 2.15 34.4 1.4 36.0 1.5 38.0 2.3 38.55 2.75 38.8 3.3" fill="#d90000" fill-rule="evenodd" stroke="none"/>
  </g>
</svg>
