<?xml version="1.0" encoding="UTF-8" standalone="no"?>
<svg xmlns:ffdec="https://www.free-decompiler.com/flash" xmlns:xlink="http://www.w3.org/1999/xlink" ffdec:objectType="shape" height="24.35px" width="32.95px" xmlns="http://www.w3.org/2000/svg">
  <g transform="matrix(1.0, 0.0, 0.0, 1.0, -5.85, -2.3)">
    <path d="M38.35 2.65 L38.8 3.1 38.8 26.35 38.7 26.4 38.1 26.5 37.35 26.5 36.65 26.4 33.35 25.5 32.85 25.3 31.65 24.95 31.6 24.95 25.6 22.5 25.5 22.5 24.65 22.3 23.85 22.5 23.65 22.5 21.15 23.9 20.35 24.5 16.85 26.3 16.7 26.4 15.7 26.55 15.35 26.65 13.0 26.4 11.4 25.7 10.5 25.1 8.85 23.6 7.55 21.4 9.35 21.8 10.8 21.55 13.45 19.65 15.9 17.05 16.05 16.85 17.35 15.5 18.8 14.65 16.9 14.75 16.75 14.8 15.2 15.2 15.0 15.3 12.1 16.2 10.75 16.25 9.4 15.85 7.8 14.35 5.85 11.35 8.7 11.8 8.75 11.8 10.75 11.6 13.75 9.8 14.15 9.5 16.05 7.75 16.6 7.1 17.6 6.2 18.0 5.7 19.6 4.4 21.75 3.2 23.35 2.75 25.95 3.0 27.55 3.35 28.4 3.65 29.6 3.75 29.75 3.8 31.4 3.6 32.2 3.3 32.75 3.2 34.05 2.8 34.3 2.7 35.75 2.35 36.2 2.3 37.75 2.3 38.35 2.65" fill="#d90000" fill-rule="evenodd" stroke="none"/>
  </g>
</svg>
