<?xml version="1.0" encoding="UTF-8" standalone="no"?>
<svg xmlns:ffdec="https://www.free-decompiler.com/flash" xmlns:xlink="http://www.w3.org/1999/xlink" ffdec:objectType="shape" height="89.8px" width="8.2px" xmlns="http://www.w3.org/2000/svg">
  <g transform="matrix(1.0, 0.0, 0.0, 1.0, -645.65, -387.6)">
    <path d="M651.85 387.6 L651.4 398.9 Q651.4 401.25 652.65 411.05 653.85 420.85 653.85 430.95 653.85 434.45 650.25 450.0 L646.6 464.95 Q646.6 465.95 647.35 473.15 L647.25 477.1 645.75 477.4 645.65 476.8 646.05 474.9 646.4 473.0 Q645.65 465.95 645.65 464.95 L649.25 450.4 Q652.8 435.8 652.8 426.15 652.8 423.25 652.1 417.0 651.4 410.7 651.4 407.8 650.65 399.9 650.65 398.9 L651.5 387.6 651.85 387.6" fill="#704c20" fill-rule="evenodd" stroke="none"/>
  </g>
</svg>
