<?xml version="1.0" encoding="UTF-8" standalone="no"?>
<svg xmlns:ffdec="https://www.free-decompiler.com/flash" xmlns:xlink="http://www.w3.org/1999/xlink" ffdec:objectType="shape" height="6.15px" width="12.45px" xmlns="http://www.w3.org/2000/svg">
  <g transform="matrix(1.0, 0.0, 0.0, 1.0, -13.15, -12.8)">
    <path d="M13.55 14.05 L13.6 14.1 13.55 14.1 13.55 14.05 M22.75 13.3 L23.1 13.5 25.6 14.2 24.5 14.85 23.6 15.2 23.15 15.5 21.25 16.15 19.85 16.95 18.0 17.55 16.4 18.3 14.75 18.75 13.15 18.95 15.05 17.15 16.7 15.95 16.8 15.95 18.85 14.65 18.7 14.65 18.3 14.7 16.85 14.75 15.15 14.55 13.6 14.1 14.95 13.45 16.4 13.0 19.5 12.8 19.7 12.85 22.75 13.3" fill="#9f0000" fill-rule="evenodd" stroke="none"/>
  </g>
</svg>
