<?xml version="1.0" encoding="UTF-8" standalone="no"?>
<svg xmlns:ffdec="https://www.free-decompiler.com/flash" xmlns:xlink="http://www.w3.org/1999/xlink" ffdec:objectType="shape" height="24.45px" width="32.1px" xmlns="http://www.w3.org/2000/svg">
  <g transform="matrix(1.0, 0.0, 0.0, 1.0, -6.7, -2.3)">
    <path d="M35.7 2.65 L36.1 2.55 37.7 2.3 38.8 3.0 38.8 26.35 38.7 26.4 38.15 26.55 36.7 26.5 33.4 25.85 31.75 25.3 31.65 25.3 30.2 24.6 26.1 21.8 26.05 21.75 25.2 21.4 24.25 21.6 22.95 22.25 22.55 22.6 21.9 23.05 21.15 23.75 17.8 26.2 16.9 26.55 16.55 26.65 15.55 26.75 15.0 26.75 14.2 26.65 13.4 26.4 11.7 25.55 10.05 24.05 8.75 21.9 10.65 22.3 10.95 22.25 12.15 21.9 14.65 19.6 18.35 14.95 19.8 13.95 17.9 14.15 16.2 14.75 16.05 14.85 13.15 16.2 13.0 16.2 11.8 16.45 10.35 16.1 8.7 14.7 6.7 11.7 9.55 12.15 9.6 12.1 11.55 11.8 14.35 9.65 16.35 7.25 16.8 6.55 18.15 5.05 19.7 3.75 21.9 2.7 23.55 2.35 27.65 3.65 28.5 4.1 29.65 4.3 29.8 4.35 31.4 4.15 35.7 2.65" fill="#d90000" fill-rule="evenodd" stroke="none"/>
  </g>
</svg>
