<?xml version="1.0" encoding="UTF-8" standalone="no"?>
<svg xmlns:ffdec="https://www.free-decompiler.com/flash" xmlns:xlink="http://www.w3.org/1999/xlink" ffdec:objectType="shape" height="23.65px" width="5.1px" xmlns="http://www.w3.org/2000/svg">
  <g transform="matrix(1.0, 0.0, 0.0, 1.0, -30.4, -2.65)">
    <path d="M34.25 3.2 L34.3 3.15 35.5 2.65 35.3 11.8 35.25 12.05 35.1 9.35 34.95 8.4 34.35 6.65 34.2 6.4 32.8 5.05 31.65 4.2 31.8 3.95 34.25 3.2 M33.7 19.2 L35.3 13.0 35.0 26.3 34.9 26.3 34.85 26.25 34.5 26.2 33.5 25.95 32.6 25.5 32.15 25.35 30.4 24.05 32.35 21.9 32.4 21.9 33.7 19.2" fill="#9f0000" fill-rule="evenodd" stroke="none"/>
  </g>
</svg>
