<?xml version="1.0" encoding="UTF-8" standalone="no"?>
<svg xmlns:ffdec="https://www.free-decompiler.com/flash" xmlns:xlink="http://www.w3.org/1999/xlink" ffdec:objectType="shape" height="24.95px" width="31.25px" xmlns="http://www.w3.org/2000/svg">
  <g transform="matrix(1.0, 0.0, 0.0, 1.0, -7.55, -2.0)">
    <path d="M38.8 2.95 L38.8 26.35 38.7 26.4 38.15 26.55 37.35 26.65 36.7 26.65 33.45 26.15 31.8 25.65 31.75 25.65 30.35 24.8 26.6 21.0 25.8 20.55 25.0 20.65 24.85 20.65 23.6 21.3 22.6 22.2 21.95 23.0 18.95 26.05 17.75 26.65 16.25 26.95 14.6 26.75 12.9 25.95 11.35 24.6 11.3 24.55 10.0 22.4 11.95 22.8 13.45 22.3 16.2 19.05 18.0 16.15 18.1 15.9 19.35 14.35 20.8 13.3 18.9 13.55 18.75 13.6 17.25 14.3 17.05 14.45 14.1 16.25 12.85 16.65 11.35 16.4 9.65 15.05 7.55 12.05 10.35 12.45 10.4 12.4 12.35 11.95 14.95 9.45 17.05 6.0 18.3 4.4 19.85 3.1 22.05 2.15 23.7 2.0 26.3 3.1 28.55 4.55 29.85 4.9 31.45 4.7 32.8 4.25 35.6 2.9 37.6 2.35 38.25 2.6 38.8 2.95" fill="#d90000" fill-rule="evenodd" stroke="none"/>
  </g>
</svg>
