<?xml version="1.0" encoding="UTF-8" standalone="no"?>
<svg xmlns:ffdec="https://www.free-decompiler.com/flash" xmlns:xlink="http://www.w3.org/1999/xlink" ffdec:objectType="shape" height="26.4px" width="29.5px" xmlns="http://www.w3.org/2000/svg">
  <g transform="matrix(1.0, 0.0, 0.0, 1.0, -9.3, -1.05)">
    <path d="M34.65 4.1 L36.95 2.5 Q37.95 1.95 38.8 2.8 L38.8 26.4 37.45 26.8 35.95 26.95 33.55 26.85 Q31.7 26.6 30.65 25.25 29.65 23.85 29.0 22.2 L27.7 19.5 Q27.1 18.4 26.05 18.75 24.75 19.35 24.05 20.55 L22.75 23.15 21.25 25.7 Q20.35 26.85 18.65 27.3 L16.4 27.25 Q15.25 26.95 14.2 26.0 13.15 25.05 12.5 23.45 14.75 24.35 16.1 23.05 17.4 21.75 18.3 19.4 L20.2 14.95 Q21.2 12.8 22.8 12.0 20.75 11.95 19.25 13.4 L16.35 16.15 Q14.95 17.45 13.3 17.0 11.65 16.55 9.3 12.75 12.45 13.55 13.95 12.35 15.45 11.2 16.1 9.05 16.75 6.95 17.55 4.9 18.3 2.85 20.05 1.85 22.55 0.65 24.05 1.25 25.55 1.85 26.6 3.15 L28.7 5.4 Q29.8 6.35 31.55 5.85 33.3 5.2 34.65 4.1" fill="#d90000" fill-rule="evenodd" stroke="none"/>
  </g>
</svg>
