<?xml version="1.0" encoding="UTF-8" standalone="no"?>
<svg xmlns:ffdec="https://www.free-decompiler.com/flash" xmlns:xlink="http://www.w3.org/1999/xlink" ffdec:objectType="shape" height="26.1px" width="30.7px" xmlns="http://www.w3.org/2000/svg">
  <g transform="matrix(1.0, 0.0, 0.0, 1.0, -8.1, -1.1)">
    <path d="M38.7 2.75 L38.8 3.2 38.8 26.4 37.9 26.7 36.7 26.95 33.35 26.8 31.7 26.2 30.45 25.05 26.95 19.65 26.1 19.05 25.15 19.05 24.05 19.7 23.95 19.75 23.25 20.45 23.0 20.75 21.05 23.95 19.7 25.7 18.5 26.6 16.95 27.15 16.5 27.2 15.2 27.15 13.45 26.6 11.75 25.35 11.65 25.15 10.45 23.25 12.5 23.45 14.1 22.75 16.6 19.45 18.65 15.1 19.95 13.4 21.35 12.4 21.4 12.35 19.5 12.6 19.5 12.65 17.8 13.55 14.75 15.8 13.3 16.35 11.9 16.2 11.75 16.2 10.05 14.8 10.0 14.65 8.1 11.75 10.85 12.05 12.75 11.55 14.85 9.2 15.2 8.7 18.2 3.2 19.7 1.95 21.95 1.1 22.05 1.1 23.7 1.2 23.85 1.25 26.3 2.8 28.6 4.7 28.75 4.8 29.9 5.25 31.45 5.25 32.7 4.9 33.85 4.4 33.9 4.4 37.4 2.25 38.7 2.75" fill="#d90000" fill-rule="evenodd" stroke="none"/>
  </g>
</svg>
