<?xml version="1.0" encoding="UTF-8" standalone="no"?>
<svg xmlns:ffdec="https://www.free-decompiler.com/flash" xmlns:xlink="http://www.w3.org/1999/xlink" ffdec:objectType="shape" height="25.9px" width="31.95px" xmlns="http://www.w3.org/2000/svg">
  <g transform="matrix(1.0, 0.0, 0.0, 1.0, -6.85, -1.1)">
    <path d="M38.8 3.1 L38.8 26.4 37.7 26.75 36.95 26.9 34.1 26.85 33.2 26.75 31.55 26.1 30.25 24.9 27.65 21.3 26.45 20.05 26.15 19.8 25.25 19.35 24.3 19.35 24.25 19.4 22.95 20.0 21.95 20.95 19.75 24.1 18.15 25.7 17.95 25.85 16.85 26.45 15.2 26.95 14.35 27.0 13.45 26.9 11.8 26.5 11.6 26.4 9.8 25.15 8.4 23.1 10.45 23.15 12.1 22.5 14.25 20.3 14.85 19.5 16.9 15.65 17.9 14.3 18.5 13.7 20.0 12.75 20.0 12.7 18.1 12.9 16.35 13.65 16.35 13.7 13.5 15.3 13.15 15.4 11.7 15.65 10.4 15.4 10.25 15.35 8.7 13.85 6.85 10.7 9.65 11.05 11.4 10.75 11.6 10.7 13.9 8.8 14.35 8.35 16.65 4.95 16.85 4.75 17.9 3.35 19.4 2.1 19.95 1.8 21.55 1.15 21.65 1.1 23.3 1.1 23.5 1.15 26.5 2.65 28.5 4.05 29.8 4.55 31.35 4.65 32.05 4.5 32.6 4.45 33.75 4.2 33.8 4.2 34.8 3.8 37.4 2.2 37.5 2.2 38.65 2.7 38.8 3.1" fill="#d90000" fill-rule="evenodd" stroke="none"/>
  </g>
</svg>
