<?xml version="1.0" encoding="UTF-8" standalone="no"?>
<svg xmlns:ffdec="https://www.free-decompiler.com/flash" xmlns:xlink="http://www.w3.org/1999/xlink" ffdec:objectType="shape" height="23.3px" width="5.15px" xmlns="http://www.w3.org/2000/svg">
  <g transform="matrix(1.0, 0.0, 0.0, 1.0, -30.25, -3.65)">
    <path d="M34.1 4.2 L34.4 4.1 35.0 3.7 35.4 3.65 35.2 12.3 35.15 12.6 35.15 11.65 34.85 9.05 34.1 7.15 31.9 4.85 32.05 4.6 34.1 4.2 M33.6 19.9 L33.6 19.85 35.2 13.6 34.9 26.85 34.85 26.85 34.8 26.95 34.65 26.85 33.35 26.8 33.25 26.75 31.9 26.25 31.85 26.25 30.25 24.75 30.9 24.05 30.9 24.0 32.2 22.6 33.6 19.9" fill="#9f0000" fill-rule="evenodd" stroke="none"/>
  </g>
</svg>
