<?xml version="1.0" encoding="UTF-8" standalone="no"?>
<svg xmlns:ffdec="https://www.free-decompiler.com/flash" xmlns:xlink="http://www.w3.org/1999/xlink" ffdec:objectType="shape" height="25.9px" width="33.15px" xmlns="http://www.w3.org/2000/svg">
  <g transform="matrix(1.0, 0.0, 0.0, 1.0, -5.65, -1.0)">
    <path d="M34.8 3.7 L37.35 2.1 37.45 2.1 38.6 2.7 38.8 3.05 38.8 26.4 36.9 26.9 33.95 26.85 33.05 26.7 32.45 26.5 31.35 25.95 31.2 25.85 30.05 24.7 29.25 23.6 27.1 21.25 25.7 20.15 24.35 19.65 23.4 19.65 23.35 19.7 22.1 20.2 22.0 20.25 21.15 20.9 18.4 24.25 16.4 25.85 15.2 26.35 13.5 26.75 12.6 26.8 11.65 26.7 9.95 26.3 9.75 26.2 7.9 25.0 7.75 24.85 6.4 22.9 8.45 22.8 10.1 22.25 12.45 20.3 14.25 17.9 15.3 15.8 16.45 14.5 17.1 13.95 18.6 13.05 16.7 13.2 11.9 15.0 10.15 15.0 8.85 14.55 8.75 14.5 7.3 12.9 7.2 12.75 5.65 9.7 8.45 10.1 10.2 9.95 10.4 9.9 13.0 8.4 13.45 8.0 16.2 5.0 16.4 4.85 17.55 3.45 19.05 2.2 21.3 1.1 22.95 1.0 25.8 2.0 28.4 3.35 29.7 3.85 31.25 4.05 32.0 4.0 32.55 4.05 33.75 4.05 34.8 3.7" fill="#d90000" fill-rule="evenodd" stroke="none"/>
  </g>
</svg>
