<?xml version="1.0" encoding="UTF-8" standalone="no"?>
<svg xmlns:ffdec="https://www.free-decompiler.com/flash" xmlns:xlink="http://www.w3.org/1999/xlink" ffdec:objectType="shape" height="25.95px" width="34.45px" xmlns="http://www.w3.org/2000/svg">
  <g transform="matrix(1.0, 0.0, 0.0, 1.0, -4.35, -0.95)">
    <path d="M37.45 2.0 L38.55 2.65 38.8 2.95 38.8 26.4 36.85 26.9 33.8 26.85 32.25 26.5 31.0 25.75 26.6 21.15 24.95 20.25 23.5 19.95 22.5 20.0 22.45 20.0 21.0 20.5 20.15 21.1 19.8 21.4 17.1 24.4 15.05 25.7 14.85 25.85 13.05 26.4 11.3 26.6 8.15 26.1 7.9 26.0 5.95 24.85 5.75 24.7 4.35 22.7 6.4 22.5 8.05 21.95 8.45 21.75 10.7 20.3 12.6 18.05 13.75 15.9 14.95 14.75 17.25 13.4 17.2 13.4 15.3 13.5 10.3 14.7 9.95 14.65 8.55 14.3 7.3 13.75 7.2 13.65 5.8 11.8 4.45 8.7 7.25 9.1 9.0 9.1 9.2 9.05 12.1 8.0 12.55 7.7 18.7 2.3 19.25 1.95 20.9 1.1 22.55 0.95 22.75 0.95 29.6 3.15 31.15 3.45 31.9 3.5 32.45 3.65 33.6 3.85 33.65 3.85 34.75 3.65 37.3 2.05 37.45 2.0" fill="#d90000" fill-rule="evenodd" stroke="none"/>
  </g>
</svg>
