<?xml version="1.0" encoding="UTF-8" standalone="no"?>
<svg xmlns:ffdec="https://www.free-decompiler.com/flash" xmlns:xlink="http://www.w3.org/1999/xlink" ffdec:objectType="shape" height="23.5px" width="5.25px" xmlns="http://www.w3.org/2000/svg">
  <g transform="matrix(1.0, 0.0, 0.0, 1.0, -30.15, -3.4)">
    <path d="M35.4 3.75 L35.2 12.65 35.15 12.25 35.15 11.3 34.95 9.7 34.15 7.3 33.85 6.7 32.05 3.95 32.1 3.65 34.2 3.85 35.2 3.4 35.4 3.75 M33.55 19.95 L33.55 19.9 35.2 13.6 34.9 26.85 34.75 26.85 34.7 26.9 34.65 26.85 33.25 26.8 31.85 26.25 31.8 26.25 30.15 24.85 31.5 23.4 31.5 23.35 32.15 22.65 33.55 19.95" fill="#9f0000" fill-rule="evenodd" stroke="none"/>
  </g>
</svg>
