<?xml version="1.0" encoding="UTF-8" standalone="no"?>
<svg xmlns:ffdec="https://www.free-decompiler.com/flash" xmlns:xlink="http://www.w3.org/1999/xlink" ffdec:objectType="shape" height="26.05px" width="36.5px" xmlns="http://www.w3.org/2000/svg">
  <g transform="matrix(1.0, 0.0, 0.0, 1.0, -2.3, -0.85)">
    <path d="M37.4 1.9 L38.45 2.6 38.8 2.9 38.8 26.4 37.8 26.75 37.6 26.75 36.8 26.9 33.65 26.85 32.1 26.45 30.95 25.75 28.7 23.25 26.1 21.05 24.2 20.35 23.75 20.35 22.6 20.25 21.6 20.3 21.55 20.3 20.05 20.75 18.75 21.6 15.75 24.55 13.25 25.85 10.05 26.4 9.55 26.4 6.3 25.9 3.8 24.55 2.3 22.5 6.5 21.55 8.95 20.3 11.0 18.15 12.2 16.05 13.5 14.95 14.25 14.5 15.9 13.75 13.9 13.8 8.7 14.4 5.75 12.95 5.65 12.85 4.5 11.0 3.25 7.65 7.85 8.25 8.05 8.25 11.15 7.65 15.6 4.95 16.85 3.7 18.9 2.05 20.4 1.15 20.5 1.1 22.15 0.85 22.35 0.85 25.8 1.35 28.2 2.0 28.35 2.0 31.05 2.85 31.8 3.0 33.55 3.65 34.7 3.6 37.25 1.95 37.4 1.9" fill="#d90000" fill-rule="evenodd" stroke="none"/>
  </g>
</svg>
