<?xml version="1.0" encoding="UTF-8" standalone="no"?>
<svg xmlns:ffdec="https://www.free-decompiler.com/flash" xmlns:xlink="http://www.w3.org/1999/xlink" ffdec:objectType="shape" height="23.75px" width="5.4px" xmlns="http://www.w3.org/2000/svg">
  <g transform="matrix(1.0, 0.0, 0.0, 1.0, -29.9, -2.45)">
    <path d="M33.5 2.75 L34.05 2.9 35.25 2.7 35.3 2.8 35.15 12.85 34.85 9.25 34.8 9.05 33.9 6.45 33.7 6.15 32.75 4.45 32.5 3.85 31.55 2.45 33.5 2.75 M35.25 13.8 L34.85 25.7 34.7 26.15 34.7 26.2 34.45 26.2 34.15 26.15 34.0 26.1 33.15 25.95 32.65 25.75 31.7 25.5 31.25 25.25 29.9 24.65 31.9 22.65 32.0 22.4 33.4 20.0 35.25 13.8" fill="#9f0000" fill-rule="evenodd" stroke="none"/>
  </g>
</svg>
