<?xml version="1.0" encoding="UTF-8" standalone="no"?>
<svg xmlns:ffdec="https://www.free-decompiler.com/flash" xmlns:xlink="http://www.w3.org/1999/xlink" ffdec:objectType="shape" height="26.95px" width="37.95px" xmlns="http://www.w3.org/2000/svg">
  <g transform="matrix(1.0, 0.0, 0.0, 1.0, -0.85, -1.85)">
    <path d="M38.1 2.3 L38.8 3.4 38.8 26.4 37.75 26.7 37.65 26.7 36.75 26.8 36.6 26.8 34.6 26.35 33.85 26.0 33.55 25.8 32.55 25.35 32.4 25.3 28.75 23.75 28.5 23.7 26.0 23.45 25.75 23.45 23.85 23.75 23.65 23.85 21.4 24.5 21.35 24.55 19.95 25.05 18.8 25.65 17.5 26.6 14.9 28.05 14.2 28.3 12.1 28.7 10.75 28.8 8.3 28.55 5.15 27.65 4.75 27.45 2.75 26.1 2.65 26.0 1.3 24.0 5.35 23.8 7.7 23.15 8.8 22.6 10.0 21.7 12.7 19.05 14.65 17.9 11.25 18.4 7.7 17.75 6.7 17.3 3.85 14.85 3.75 14.75 0.85 8.75 5.65 10.5 9.5 11.05 13.05 10.6 15.15 9.9 16.95 8.6 18.65 6.9 18.8 6.7 20.2 5.2 21.7 4.1 24.55 2.65 27.5 1.95 28.55 1.85 32.9 2.4 33.4 2.6 34.7 2.7 37.85 2.2 38.1 2.3" fill="#d90000" fill-rule="evenodd" stroke="none"/>
  </g>
</svg>
