<?xml version="1.0" encoding="UTF-8" standalone="no"?>
<svg xmlns:ffdec="https://www.free-decompiler.com/flash" xmlns:xlink="http://www.w3.org/1999/xlink" ffdec:objectType="shape" height="23.65px" width="5.45px" xmlns="http://www.w3.org/2000/svg">
  <g transform="matrix(1.0, 0.0, 0.0, 1.0, -29.8, -2.25)">
    <path d="M33.35 2.5 L33.9 2.65 35.2 2.5 35.25 2.55 35.15 12.85 35.05 10.7 34.8 9.15 34.75 8.95 33.85 6.3 33.7 5.95 32.35 3.6 31.25 2.25 33.35 2.5 M31.9 22.4 L33.35 20.0 33.45 19.8 35.25 13.9 34.8 25.65 34.6 25.9 34.55 25.9 34.05 25.75 33.95 25.75 33.05 25.55 32.55 25.35 31.65 25.15 31.2 24.95 29.8 24.55 31.75 22.6 31.9 22.4" fill="#9f0000" fill-rule="evenodd" stroke="none"/>
  </g>
</svg>
