<?xml version="1.0" encoding="UTF-8" standalone="no"?>
<svg xmlns:ffdec="https://www.free-decompiler.com/flash" xmlns:xlink="http://www.w3.org/1999/xlink" ffdec:objectType="shape" height="9.2px" width="13.0px" xmlns="http://www.w3.org/2000/svg">
  <g transform="matrix(1.0, 0.0, 0.0, 1.0, -7.55, -13.4)">
    <path d="M9.25 22.6 L9.15 22.55 11.15 20.55 11.45 20.1 12.65 18.9 12.65 18.75 12.7 18.65 12.75 18.3 12.3 18.3 10.6 18.1 7.55 17.1 11.15 16.25 11.35 16.15 14.35 15.85 14.85 15.7 17.35 15.15 17.9 14.95 19.25 14.3 20.55 13.4 19.65 15.85 19.05 16.95 18.45 17.75 16.45 19.85 15.8 20.35 12.95 21.85 9.35 22.5 9.25 22.6" fill="#9f0000" fill-rule="evenodd" stroke="none"/>
  </g>
</svg>
