<?xml version="1.0" encoding="UTF-8" standalone="no"?>
<svg xmlns:ffdec="https://www.free-decompiler.com/flash" xmlns:xlink="http://www.w3.org/1999/xlink" ffdec:objectType="shape" height="27.8px" width="38.3px" xmlns="http://www.w3.org/2000/svg">
  <g transform="matrix(1.0, 0.0, 0.0, 1.0, -0.5, -1.9)">
    <path d="M31.2 1.95 L32.85 2.15 33.35 2.3 34.7 2.45 35.45 2.35 38.05 2.35 38.25 2.45 38.8 3.6 38.8 26.4 37.75 26.7 36.6 26.75 34.65 26.15 33.95 25.75 33.65 25.5 32.7 25.0 31.15 24.4 30.85 24.25 28.8 23.9 28.55 23.95 26.05 24.2 25.8 24.25 24.0 24.85 23.8 24.95 21.6 25.8 21.55 25.85 19.05 27.0 17.7 27.9 15.05 29.2 14.35 29.4 12.25 29.7 10.3 29.65 7.65 29.15 5.35 28.3 5.0 28.1 3.0 26.65 2.95 26.6 1.6 24.55 5.45 24.65 5.6 24.6 7.9 24.1 9.0 23.65 10.2 22.85 12.95 20.35 14.75 19.1 13.0 19.6 11.2 19.8 7.55 18.95 6.55 18.35 3.65 15.75 3.55 15.6 0.5 9.45 Q2.35 10.3 4.2 11.1 L7.55 12.1 9.25 12.3 12.95 12.15 15.1 11.5 15.15 11.5 17.0 10.2 18.75 8.45 18.9 8.2 21.6 5.2 24.3 3.25 24.5 3.15 28.3 1.9 31.2 1.95" fill="#d90000" fill-rule="evenodd" stroke="none"/>
  </g>
</svg>
