<?xml version="1.0" encoding="UTF-8" standalone="no"?>
<svg xmlns:ffdec="https://www.free-decompiler.com/flash" xmlns:xlink="http://www.w3.org/1999/xlink" ffdec:objectType="shape" height="9.45px" width="13.2px" xmlns="http://www.w3.org/2000/svg">
  <g transform="matrix(1.0, 0.0, 0.0, 1.0, -7.0, -14.25)">
    <path d="M9.15 17.85 L10.8 17.7 11.05 17.65 14.1 17.3 14.55 17.1 17.1 16.35 18.95 15.25 20.2 14.25 18.7 17.9 18.1 18.75 16.15 21.0 15.55 21.55 12.65 23.1 9.45 23.6 9.4 23.65 9.2 23.7 9.0 23.7 9.45 23.6 10.25 23.0 13.25 19.85 13.05 19.9 12.95 19.95 12.7 19.95 12.2 19.7 11.8 19.7 10.05 19.4 9.5 19.25 7.0 18.1 9.0 17.9 9.15 17.85" fill="#9f0000" fill-rule="evenodd" stroke="none"/>
  </g>
</svg>
