<?xml version="1.0" encoding="UTF-8" standalone="no"?>
<svg xmlns:ffdec="https://www.free-decompiler.com/flash" xmlns:xlink="http://www.w3.org/1999/xlink" ffdec:objectType="shape" height="28.8px" width="38.7px" xmlns="http://www.w3.org/2000/svg">
  <g transform="matrix(1.0, 0.0, 0.0, 1.0, -0.1, -1.85)">
    <path d="M38.45 2.55 L38.8 3.8 38.8 26.4 37.75 26.7 36.65 26.75 34.7 26.0 34.05 25.5 33.8 25.2 32.85 24.65 31.0 24.0 28.85 24.05 25.85 25.1 24.15 25.95 23.9 26.05 17.95 29.2 15.15 30.35 14.5 30.55 11.0 30.65 7.85 29.9 5.2 28.75 3.3 27.25 3.2 27.15 1.95 25.1 3.9 25.4 5.8 25.45 8.1 25.05 9.2 24.75 12.0 22.8 12.05 22.7 14.8 20.35 13.05 21.0 11.15 21.2 7.4 20.15 6.45 19.45 3.4 16.5 0.1 10.1 3.85 12.05 7.25 13.3 12.85 13.75 15.1 13.15 15.15 13.1 17.1 11.85 18.85 10.0 19.0 9.75 21.5 6.3 24.05 3.85 28.1 1.95 32.8 1.85 33.35 2.0 34.7 2.15 35.5 2.15 38.2 2.45 38.45 2.55" fill="#d90000" fill-rule="evenodd" stroke="none"/>
  </g>
</svg>
