<?xml version="1.0" encoding="UTF-8" standalone="no"?>
<svg xmlns:ffdec="https://www.free-decompiler.com/flash" xmlns:xlink="http://www.w3.org/1999/xlink" ffdec:objectType="shape" height="23.6px" width="5.75px" xmlns="http://www.w3.org/2000/svg">
  <g transform="matrix(1.0, 0.0, 0.0, 1.0, -29.55, -1.95)">
    <path d="M33.7 5.9 L33.6 5.5 32.15 3.15 30.7 1.95 33.0 1.95 33.65 2.05 35.05 2.05 35.2 2.15 35.15 12.95 35.1 12.8 35.05 10.9 34.65 8.7 33.7 5.9 M35.3 14.1 L34.75 25.55 34.35 25.3 34.3 25.3 34.15 25.2 33.75 25.0 32.95 24.7 32.45 24.45 31.05 24.25 29.55 24.35 31.7 22.3 33.25 20.05 33.35 19.85 34.5 17.05 35.3 14.1" fill="#9f0000" fill-rule="evenodd" stroke="none"/>
  </g>
</svg>
