<?xml version="1.0" encoding="UTF-8" standalone="no"?>
<svg xmlns:ffdec="https://www.free-decompiler.com/flash" xmlns:xlink="http://www.w3.org/1999/xlink" ffdec:objectType="shape" height="9.7px" width="13.4px" xmlns="http://www.w3.org/2000/svg">
  <g transform="matrix(1.0, 0.0, 0.0, 1.0, -6.5, -15.15)">
    <path d="M6.5 19.15 L10.45 19.15 10.7 19.1 13.8 18.75 14.3 18.5 16.85 17.5 19.85 15.15 19.9 15.15 19.2 17.05 17.8 19.75 15.9 22.15 15.3 22.75 12.4 24.4 9.35 24.75 9.1 24.85 8.6 24.85 9.35 24.75 9.55 24.7 10.05 24.45 10.75 24.0 12.3 22.6 12.65 22.15 13.85 20.85 13.4 21.0 13.25 21.1 12.65 21.25 11.7 21.1 11.25 21.1 8.9 20.5 6.5 19.15" fill="#9f0000" fill-rule="evenodd" stroke="none"/>
  </g>
</svg>
