<?xml version="1.0" encoding="UTF-8" standalone="no"?>
<svg xmlns:ffdec="https://www.free-decompiler.com/flash" xmlns:xlink="http://www.w3.org/1999/xlink" ffdec:objectType="shape" height="441.65px" width="535.45px" xmlns="http://www.w3.org/2000/svg">
  <g transform="matrix(1.0, 0.0, 0.0, 1.0, -60.5, -30.25)">
    <path d="M526.0 31.5 Q526.35 35.9 528.1 35.9 529.3 35.9 529.85 30.9 561.55 32.25 586.4 36.25 580.4 108.55 587.3 189.75 L589.4 217.6 584.85 218.4 Q576.4 220.0 568.1 220.4 L556.95 220.4 556.4 220.7 Q556.2 220.9 556.2 221.4 556.2 222.6 561.0 224.55 566.8 226.8 573.75 226.8 L576.4 226.65 578.7 226.35 586.75 226.2 588.2 225.6 589.9 225.8 Q598.25 351.3 595.1 465.6 L404.1 462.9 294.7 469.05 Q162.4 479.75 60.5 450.15 L66.55 233.5 66.9 37.1 Q229.4 49.5 361.35 37.0 L389.45 35.15 Q468.65 28.65 526.0 30.75 L526.0 31.5" fill="#3f0909" fill-opacity="0.38039216" fill-rule="evenodd" stroke="none"/>
  </g>
</svg>
