<?xml version="1.0" encoding="UTF-8" standalone="no"?>
<svg xmlns:ffdec="https://www.free-decompiler.com/flash" xmlns:xlink="http://www.w3.org/1999/xlink" ffdec:objectType="shape" height="32.5px" width="39.05px" xmlns="http://www.w3.org/2000/svg">
  <g transform="matrix(1.0, 0.0, 0.0, 1.0, 1.0, 1.0)">
    <path d="M32.85 3.4 Q34.25 4.6 37.05 5.25 30.25 14.5 24.0 20.35 27.65 24.55 33.55 28.95 33.15 31.75 27.05 29.55 23.4 28.25 18.9 24.6 L18.7 24.75 15.6 26.75 Q5.7 32.45 0.0 28.9 6.55 25.0 12.8 19.1 L11.95 18.2 Q3.0 9.05 3.0 6.05 L8.3 2.65 Q10.7 1.2 11.35 0.0 L16.4 9.05 18.7 12.95 Q26.65 3.9 27.8 0.25 L32.85 3.4" fill="#693308" fill-rule="evenodd" stroke="none"/>
    <path d="M32.85 3.4 L27.8 0.25 Q26.65 3.9 18.7 12.95 L16.4 9.05 11.35 0.0 Q10.7 1.2 8.3 2.65 L3.0 6.05 Q3.0 9.05 11.95 18.2 L12.8 19.1 Q6.55 25.0 0.0 28.9 5.7 32.45 15.6 26.75 L18.7 24.75 18.9 24.6 Q23.4 28.25 27.05 29.55 33.15 31.75 33.55 28.95 27.65 24.55 24.0 20.35 30.25 14.5 37.05 5.25 34.25 4.6 32.85 3.4 Z" fill="none" stroke="#a3612d" stroke-linecap="round" stroke-linejoin="round" stroke-width="2.0"/>
  </g>
</svg>
