<?xml version="1.0" encoding="UTF-8" standalone="no"?>
<svg xmlns:ffdec="https://www.free-decompiler.com/flash" xmlns:xlink="http://www.w3.org/1999/xlink" ffdec:objectType="shape" height="22.55px" width="158.5px" xmlns="http://www.w3.org/2000/svg">
  <g transform="matrix(1.0, 0.0, 0.0, 1.0, -69.25, -54.55)">
    <path d="M192.65 58.3 L192.5 62.35 195.5 62.4 195.4 65.75 192.45 65.75 192.4 72.5 196.2 72.55 196.1 75.95 189.4 75.9 189.7 54.9 196.15 54.95 196.25 58.25 192.65 58.3 M185.35 55.2 L182.6 76.25 179.85 76.4 176.35 55.35 179.3 55.0 181.3 67.85 182.5 54.9 185.35 55.2 M173.85 58.15 L170.25 58.5 170.5 62.55 173.4 62.35 173.55 65.75 170.7 65.95 171.1 72.65 174.9 72.4 175.0 75.85 168.35 76.25 167.15 55.35 173.5 54.9 173.85 58.15 M202.15 55.15 L204.85 55.45 203.45 73.05 207.5 73.0 207.35 76.25 200.35 76.0 202.15 55.15 M164.8 75.45 L157.75 76.15 156.7 55.25 159.5 55.15 160.45 72.8 164.5 72.2 164.8 75.45 M226.9 69.4 Q225.65 71.55 223.65 71.55 220.9 71.55 219.5 70.05 L218.7 68.6 Q218.7 64.05 223.2 64.05 225.0 64.05 226.35 64.9 227.75 65.8 227.75 67.05 227.75 67.9 226.9 69.4 M114.0 72.3 L114.05 75.55 107.0 75.9 107.1 54.9 109.9 54.95 109.85 72.7 114.0 72.3 M119.6 62.5 L122.5 62.35 122.65 65.7 119.8 65.9 120.25 72.6 124.0 72.35 124.1 75.8 117.45 76.2 116.25 55.3 122.6 54.85 122.95 58.1 119.35 58.45 119.6 62.5 M102.55 58.05 L98.9 58.35 99.2 62.4 102.1 62.25 102.25 65.6 99.4 65.8 99.85 72.5 103.6 72.3 103.8 75.65 97.1 76.15 95.8 55.3 102.15 54.75 102.55 58.05 M87.9 55.95 Q90.5 55.8 91.45 58.4 92.25 60.35 92.65 62.75 L89.75 63.15 89.3 61.0 Q88.9 59.2 88.25 59.15 87.4 59.4 87.35 61.25 87.2 62.75 89.4 64.6 91.65 66.45 92.55 67.65 93.3 69.05 93.45 70.65 93.6 72.15 93.2 73.85 92.85 76.65 90.15 77.1 87.3 77.3 86.25 74.7 85.5 72.85 85.1 70.85 L87.9 70.1 88.4 72.0 Q88.8 73.9 89.75 73.85 90.3 73.65 90.35 71.8 90.6 69.7 88.5 68.1 86.45 66.45 85.65 65.0 84.3 63.25 84.3 60.75 L84.55 59.1 Q84.95 56.45 87.9 55.95 M144.85 58.45 L142.3 58.25 141.2 76.05 138.25 75.65 139.35 58.05 136.75 57.85 137.0 54.55 144.9 55.15 144.85 58.45 M130.65 54.9 Q133.6 54.95 134.3 57.75 134.8 59.6 135.0 62.7 L132.1 63.1 131.9 60.1 Q131.7 58.25 130.75 58.2 129.85 58.35 129.65 60.15 L129.45 65.55 129.65 70.95 Q129.85 72.75 130.75 72.85 131.7 72.8 131.9 70.95 L132.1 67.9 135.0 68.05 Q134.85 71.4 134.35 73.35 133.6 76.05 130.7 76.15 127.75 75.95 127.05 73.3 126.4 70.65 126.4 65.55 L126.35 65.55 Q126.35 60.45 127.05 57.8 127.75 55.15 130.65 54.9 M74.45 72.0 Q70.65 72.0 69.6 69.75 L69.25 67.35 Q69.25 63.9 73.55 63.35 77.9 62.75 77.9 66.25 L77.6 69.35 Q76.85 72.0 74.45 72.0" fill="#693308" fill-rule="evenodd" stroke="none"/>
  </g>
</svg>
