<?xml version="1.0" encoding="UTF-8" standalone="no"?>
<svg xmlns:ffdec="https://www.free-decompiler.com/flash" xmlns:xlink="http://www.w3.org/1999/xlink" ffdec:objectType="shape" height="58.2px" width="90.35px" xmlns="http://www.w3.org/2000/svg">
  <g transform="matrix(1.0, 0.0, 0.0, 1.0, -329.2, -43.45)">
    <path d="M417.55 91.9 L417.75 91.9 418.3 91.9 418.65 91.95 419.1 91.85 419.55 91.9 Q419.45 92.15 419.15 92.15 L418.5 92.35 418.45 92.5 418.3 92.55 417.8 92.75 Q414.4 94.05 410.6 92.8 407.5 91.7 404.45 91.4 L404.4 91.2 404.45 90.95 404.5 90.85 404.75 90.8 405.1 90.65 405.15 90.6 405.25 90.45 406.65 90.35 414.2 91.95 417.05 91.8 417.55 91.9 M417.25 95.05 L417.25 95.2 417.25 95.4 417.25 95.55 417.2 95.65 417.0 95.75 Q412.55 95.75 408.0 95.9 406.85 95.95 405.75 96.35 402.6 97.4 399.4 97.55 393.6 97.8 387.9 99.25 L383.45 99.05 Q379.25 97.4 374.7 97.95 373.95 98.05 373.5 97.55 374.3 96.75 375.9 96.75 L381.7 97.35 Q387.5 98.65 393.5 96.95 L396.0 96.55 Q402.2 96.1 408.35 94.4 L409.35 94.15 414.2 94.4 416.8 94.8 Q417.05 94.8 417.25 95.05 M341.9 60.2 L341.55 59.8 341.25 59.25 341.25 58.95 Q342.5 59.05 343.95 59.65 L345.25 59.6 348.75 58.15 Q352.35 58.0 352.45 61.2 L352.1 61.4 352.3 61.75 Q356.3 62.6 360.2 63.8 L360.85 63.05 365.05 58.35 Q364.3 57.35 363.25 56.7 L362.1 56.0 359.7 55.15 359.7 54.95 359.7 54.9 359.75 54.8 360.0 54.55 360.15 54.5 360.85 54.3 361.4 54.15 362.05 53.95 368.4 53.55 370.6 49.95 373.0 46.35 Q371.6 46.1 370.35 46.7 368.25 48.75 365.5 48.35 364.85 48.25 364.4 47.7 L363.9 47.35 363.75 47.2 363.35 47.1 363.3 47.1 361.65 47.05 361.6 47.1 361.55 47.1 361.15 47.1 361.0 46.95 360.95 46.9 360.95 46.85 361.0 46.7 Q361.6 46.2 362.5 46.25 L362.05 46.05 361.8 46.0 361.65 46.0 361.4 46.05 360.6 46.3 Q362.5 44.65 364.75 45.35 365.3 45.45 365.85 45.85 366.35 46.25 367.15 46.05 368.45 45.6 369.45 44.5 369.85 43.95 370.45 43.65 L370.7 43.55 370.8 43.55 370.95 43.5 372.9 43.75 Q373.25 43.8 373.55 44.0 L373.75 44.1 373.95 44.1 374.1 44.3 374.2 44.4 374.8 44.8 374.85 44.95 374.95 45.0 375.05 45.25 375.15 45.35 375.05 45.45 375.05 45.5 375.0 45.7 374.95 45.65 374.95 46.0 375.0 46.05 375.05 46.85 375.05 46.95 375.65 53.2 378.95 53.25 388.6 53.25 393.85 53.75 393.85 55.55 393.8 55.85 393.0 56.0 393.3 56.45 393.4 56.5 393.45 56.65 Q394.65 57.75 395.5 59.2 399.45 62.0 402.6 65.65 L405.05 68.5 406.55 69.85 407.05 70.2 407.2 70.45 407.05 70.7 Q406.95 70.95 406.55 70.9 402.95 67.85 399.8 64.15 L396.6 60.75 396.75 61.1 396.8 61.2 396.8 61.35 397.4 62.35 397.95 63.25 398.35 64.7 398.95 66.0 398.95 66.15 398.95 66.4 Q399.35 68.35 399.35 70.3 399.35 72.35 397.85 73.5 L397.75 73.65 397.7 73.8 Q397.1 74.3 396.6 74.95 L395.7 77.0 394.9 78.45 395.2 78.15 395.35 78.1 395.35 78.05 395.75 77.9 Q396.6 77.3 397.5 76.85 397.95 76.65 398.35 76.55 L401.75 74.9 Q402.5 74.35 403.35 74.0 L403.45 74.05 404.7 73.4 405.1 73.25 Q406.35 72.3 407.8 71.8 L407.65 71.75 407.65 71.65 407.65 71.45 Q407.85 71.3 408.0 71.3 L408.1 71.3 Q408.5 71.35 408.75 71.5 L409.1 71.75 409.35 71.9 409.6 72.15 409.8 72.4 410.25 72.65 410.35 72.75 410.4 72.95 410.4 73.0 410.35 73.15 410.35 73.25 410.25 73.25 409.7 73.4 409.15 73.0 409.1 72.95 408.95 73.0 408.35 73.25 407.6 73.45 404.05 75.35 Q403.0 78.35 399.0 79.95 396.85 80.9 394.9 82.4 L394.1 82.95 399.15 90.15 Q400.0 91.45 399.0 92.5 394.95 97.0 388.0 95.55 L381.7 94.85 381.6 94.85 381.5 95.05 381.15 95.05 381.15 94.85 379.25 94.85 379.25 94.9 379.05 94.9 378.95 94.9 378.45 94.9 377.15 95.5 376.65 95.5 376.6 95.05 373.95 95.5 366.05 95.85 362.65 95.75 362.4 95.95 361.4 96.05 361.4 95.85 Q358.7 96.15 356.45 97.35 352.7 99.15 348.95 98.95 L348.1 99.95 349.05 100.0 349.75 99.9 349.8 99.75 349.95 99.7 351.3 99.45 350.85 99.8 350.55 99.9 350.35 100.2 350.0 100.75 346.7 101.0 Q345.05 101.85 342.75 101.6 338.0 100.85 333.55 99.15 331.05 98.3 329.45 96.15 L329.35 95.85 329.2 95.65 329.2 94.4 Q329.2 94.05 329.55 94.05 329.95 94.35 329.85 95.05 L329.85 95.4 Q333.0 97.95 337.15 98.95 L336.6 98.7 336.45 98.6 336.45 98.45 336.6 98.25 336.8 98.2 337.15 98.3 337.45 98.4 340.05 98.95 Q339.55 98.85 339.2 98.4 L338.5 98.2 334.55 97.25 333.35 96.7 333.25 96.6 333.25 96.4 333.25 96.15 333.25 96.1 333.55 95.95 333.55 95.85 333.65 95.85 333.85 95.85 336.1 96.25 336.2 96.15 336.4 96.35 343.15 97.35 343.3 97.35 342.7 97.1 342.7 97.0 342.35 96.5 342.4 96.5 341.85 95.55 341.75 95.55 341.55 95.1 341.5 95.1 341.45 95.05 341.45 95.0 341.4 94.85 342.35 94.15 342.05 94.0 342.05 93.85 342.15 93.8 342.6 93.85 342.8 93.85 343.15 93.6 342.05 93.55 341.0 94.2 340.7 93.4 340.7 93.35 340.65 93.35 340.6 92.8 340.6 92.7 340.45 92.7 340.45 92.45 340.45 92.05 340.55 91.85 340.45 91.85 340.7 90.85 340.85 90.85 341.5 89.75 341.45 89.75 341.75 89.25 341.85 89.25 341.95 89.15 341.75 89.1 342.05 88.7 342.15 88.7 342.25 88.5 342.7 88.0 342.6 88.0 342.6 87.8 342.7 87.8 342.8 87.7 343.1 86.5 342.75 86.4 342.7 86.3 342.6 86.2 342.5 86.1 342.75 86.1 343.0 86.15 342.95 85.8 342.95 85.25 344.0 83.35 343.55 83.45 343.45 83.4 343.65 82.5 344.3 82.05 Q344.5 80.4 344.15 78.75 L344.0 78.7 343.95 78.65 343.85 78.55 343.85 78.5 343.85 78.35 343.85 78.3 344.0 78.25 343.85 76.55 341.25 75.05 340.0 74.3 342.4 71.1 Q343.45 68.9 343.45 65.55 L343.45 63.7 Q343.35 62.25 342.8 62.25 L342.7 62.25 342.4 61.9 Q341.55 61.4 341.45 60.35 L341.5 60.3 341.55 60.3 341.85 60.25 341.95 60.25 341.9 60.2 M344.6 62.2 Q344.25 62.25 344.05 61.7 L344.25 66.6 Q344.0 69.4 342.4 71.9 L341.25 73.25 Q343.4 74.25 345.35 75.55 L347.9 75.1 349.35 74.9 352.7 75.55 Q353.0 73.5 352.25 71.7 352.05 71.75 351.9 71.9 L351.6 71.75 351.6 71.7 352.0 71.3 352.0 71.15 Q351.45 70.0 351.65 68.7 352.05 65.95 351.7 63.3 L351.15 63.0 Q343.8 61.15 344.4 61.6 344.9 62.05 344.6 62.2 M351.2 61.55 L351.7 61.7 Q351.7 61.5 351.85 61.35 349.15 60.1 346.35 61.3 L349.8 61.95 350.45 62.15 350.6 61.95 350.6 61.8 350.8 61.75 351.2 61.55 M353.55 70.85 L353.2 70.9 353.1 71.1 353.95 74.2 Q354.15 75.35 353.8 75.9 358.45 77.2 363.8 79.75 366.25 78.75 364.35 78.1 362.4 77.4 362.0 77.0 L361.6 76.55 361.6 76.35 361.6 76.1 361.6 76.0 362.0 75.5 362.5 75.3 362.75 75.25 363.25 75.35 363.3 75.25 363.7 74.7 363.75 74.55 363.75 74.35 364.3 73.5 364.75 72.95 364.8 72.8 364.85 72.6 365.15 72.15 365.2 72.1 365.4 71.55 Q365.0 69.55 364.0 67.65 L363.35 66.25 359.95 65.5 357.35 67.75 353.55 70.85 M353.0 70.5 L358.8 65.2 352.85 63.7 Q353.35 66.15 352.75 68.75 352.55 69.6 352.85 70.5 L352.9 70.65 353.0 70.5 M349.55 77.65 L349.6 77.6 350.35 77.5 348.95 77.3 348.65 77.5 349.1 77.6 349.55 77.65 M351.45 77.65 L351.25 77.65 351.15 77.7 351.15 77.85 351.45 77.95 352.0 77.95 351.7 77.65 351.45 77.65 M347.15 76.6 L347.9 76.65 348.05 76.6 348.1 76.6 347.2 76.55 347.05 76.55 347.15 76.6 M348.2 79.65 L348.45 79.65 348.65 79.6 348.4 79.6 348.2 79.65 M347.6 78.1 L347.6 78.15 347.65 78.25 347.9 78.1 347.6 78.1 M346.35 79.3 L346.3 79.3 345.05 79.4 345.55 80.4 346.7 79.65 346.55 79.35 346.35 79.3 M347.4 81.5 L348.65 80.9 348.05 80.9 347.0 81.5 347.4 81.5 M349.1 79.2 L349.55 79.3 349.55 79.15 349.3 79.1 349.1 79.2 M349.75 81.55 L349.9 81.55 349.9 81.5 349.75 81.55 M353.1 77.6 L356.05 79.0 354.2 78.05 353.1 77.4 353.1 77.6 M352.95 77.25 L352.75 77.1 352.85 77.3 353.1 77.4 352.95 77.3 352.95 77.25 M354.25 79.85 L356.25 80.8 353.75 79.55 353.4 79.35 353.5 79.65 354.2 80.0 354.2 79.85 354.25 79.85 M352.3 78.7 L352.3 78.65 352.1 78.65 351.8 78.95 352.05 78.95 352.5 78.8 352.5 78.75 352.3 78.7 M353.4 78.7 L354.0 78.95 353.4 78.65 353.4 78.7 M352.05 81.05 L351.65 81.55 352.25 81.55 352.35 81.1 352.05 81.05 M353.4 80.45 L353.85 80.7 353.4 80.4 353.4 80.45 M353.35 80.85 L353.6 80.9 353.75 81.0 353.75 81.25 353.7 81.3 354.15 81.55 354.35 81.45 354.25 81.35 354.15 81.25 Q353.75 80.9 353.35 80.8 L353.35 80.85 M354.8 81.9 L355.0 81.75 354.8 81.65 354.6 81.85 354.8 81.9 M353.5 79.85 L353.5 80.2 357.75 82.15 355.05 80.8 353.5 79.85 M357.3 80.2 L359.75 81.45 363.3 82.9 363.8 83.15 366.45 83.95 367.15 84.25 367.15 84.6 363.45 83.55 364.35 84.0 364.55 84.0 364.65 84.0 364.75 84.05 364.85 84.25 364.95 84.45 364.95 84.6 366.05 84.9 364.85 84.7 364.8 84.8 365.0 84.85 Q366.05 85.1 367.0 85.5 L367.1 85.3 367.2 85.15 367.4 85.1 367.6 85.25 367.7 85.3 367.7 85.35 367.8 85.45 367.95 85.45 367.95 85.55 368.0 85.8 368.0 85.9 367.95 85.95 367.95 86.5 Q368.2 86.5 368.2 86.65 L367.95 86.6 367.8 87.2 367.75 87.5 369.9 88.1 369.95 86.65 Q370.1 86.2 370.45 86.1 L370.55 86.15 370.6 86.2 370.7 86.4 370.7 86.5 370.9 86.5 370.95 86.5 371.0 86.55 371.1 86.55 371.1 86.65 371.2 86.75 371.35 86.65 371.65 86.8 371.75 86.85 371.65 86.95 371.55 87.15 Q371.35 87.5 371.3 88.2 L371.3 88.45 371.8 88.5 373.55 89.05 373.7 89.1 Q373.55 88.7 373.75 88.3 L373.95 87.7 374.2 87.4 Q374.3 87.25 374.4 87.25 L374.55 87.35 374.75 87.5 374.8 87.5 375.0 87.5 375.05 87.5 375.25 87.4 375.35 87.4 375.35 87.25 375.55 87.4 375.65 87.5 375.65 87.6 375.05 88.55 374.8 89.05 374.75 89.25 Q382.65 90.6 390.4 88.5 L390.95 88.05 391.15 88.0 391.1 87.85 391.05 87.8 391.05 87.5 Q390.4 88.25 389.45 88.2 L389.4 88.2 Q389.15 87.85 389.35 87.6 L388.7 87.8 388.5 88.0 387.25 89.05 386.85 88.95 Q386.6 88.65 386.8 88.45 L386.5 88.45 386.4 88.3 385.55 88.75 385.15 88.85 384.95 88.7 384.9 88.65 384.8 88.45 384.8 88.3 384.45 88.3 383.9 88.65 383.65 88.75 Q383.4 88.75 383.25 88.55 L383.2 88.45 383.2 88.2 383.3 88.0 Q383.3 87.85 383.45 87.85 L382.8 88.2 381.8 88.3 381.7 88.0 381.8 87.6 382.15 87.4 382.05 87.25 381.15 87.6 380.9 87.5 Q380.65 87.4 380.75 87.2 L380.75 87.15 380.5 87.25 378.8 87.45 Q378.45 87.25 378.45 87.0 L378.45 86.65 377.25 86.8 376.75 86.5 376.65 86.4 372.3 86.3 Q371.75 86.3 371.4 85.8 L371.4 85.45 371.45 85.1 Q368.6 84.2 365.8 82.8 L365.7 82.9 364.75 82.6 365.2 82.9 365.15 83.0 365.2 83.0 365.15 83.1 365.15 83.15 365.0 83.25 361.55 81.95 360.7 81.55 359.85 81.25 358.3 80.6 357.8 80.4 357.3 80.2 M344.85 78.45 L344.85 78.7 345.25 78.45 345.1 78.35 344.85 78.45 M343.95 79.4 L344.0 79.4 344.05 79.6 344.0 79.65 343.95 79.65 343.95 79.4 M345.05 83.0 L345.05 83.1 345.35 83.0 345.85 83.1 345.9 83.0 345.35 82.95 345.1 82.95 345.05 83.0 M344.85 83.65 L345.15 83.4 344.9 83.35 344.85 83.65 M344.25 85.65 L344.15 85.8 344.25 85.8 344.8 85.35 344.65 85.3 344.25 85.65 M344.6 84.95 L345.15 84.95 345.95 84.6 345.1 84.45 344.5 84.7 344.6 84.95 M344.0 86.2 L345.1 86.35 345.3 86.2 345.15 86.2 344.0 86.1 344.0 86.2 M343.95 86.55 Q343.85 86.95 344.05 87.2 344.25 86.85 344.6 86.65 L344.25 86.6 343.95 86.55 M342.25 89.75 L342.05 89.9 341.75 90.25 341.9 90.25 342.3 90.25 343.2 89.8 342.25 89.75 M343.75 88.7 L344.45 88.7 346.0 88.2 344.2 88.1 343.75 88.65 343.75 88.7 M344.25 91.1 L344.6 90.85 344.4 90.85 Q343.75 91.1 343.2 91.45 L343.65 91.5 344.25 91.1 M341.95 92.05 L341.75 92.1 341.1 92.45 342.05 92.5 342.7 92.1 342.6 92.1 341.95 92.05 M342.9 93.1 L343.95 93.15 343.95 93.1 342.9 93.0 342.9 93.1 M344.8 92.65 L345.35 92.3 344.2 92.25 Q343.85 92.35 343.6 92.55 L344.8 92.65 M345.1 94.15 L345.75 94.25 346.2 93.95 344.6 93.8 344.2 94.05 344.8 94.15 345.1 94.15 M341.55 90.6 L341.65 90.55 341.65 90.4 341.55 90.6 M341.5 92.8 L340.7 92.75 340.7 92.8 341.45 92.9 341.5 92.8 M339.6 96.1 L340.0 95.85 340.4 96.4 340.05 96.6 339.85 96.5 339.8 96.5 339.7 96.35 339.6 96.15 339.6 96.1 M344.3 95.2 L343.55 95.05 342.95 94.9 342.8 95.0 344.25 95.2 344.3 95.2 M343.45 94.5 L343.95 94.65 343.45 94.45 343.45 94.5 M342.05 95.45 L342.75 95.85 343.0 96.05 343.45 95.7 343.3 95.7 343.15 95.65 342.15 95.4 342.05 95.45 M344.05 96.5 L345.1 96.95 345.9 97.15 346.75 96.6 345.25 96.5 344.25 96.4 344.05 96.5 M355.3 82.15 L357.85 83.2 358.6 83.45 358.6 83.25 357.3 82.7 355.5 82.1 355.3 82.15 M355.65 85.45 L355.5 85.55 355.7 85.55 355.65 85.45 M356.6 85.05 L356.75 85.7 357.6 85.95 356.95 85.95 356.95 86.15 356.8 86.3 356.8 86.5 357.1 86.5 357.1 86.55 357.2 86.6 357.2 86.65 357.15 86.65 357.15 86.75 357.1 86.8 357.1 86.85 356.75 87.15 356.75 87.2 358.45 87.4 359.15 87.6 357.45 87.7 356.75 87.65 356.95 87.8 358.05 88.1 358.05 88.3 357.95 88.3 357.75 88.3 357.45 88.3 358.3 89.25 360.0 89.5 360.8 89.7 360.1 87.7 360.1 87.6 360.2 87.5 360.5 87.8 360.55 87.85 360.55 88.0 360.7 88.2 Q361.65 89.95 361.35 91.85 L361.65 91.85 362.2 89.75 362.45 88.25 362.5 88.2 362.7 88.2 362.75 88.2 362.75 89.55 362.85 90.15 362.5 91.45 363.3 90.65 363.3 90.6 363.3 88.7 363.35 88.65 363.45 88.55 363.7 89.05 363.7 89.1 363.8 89.05 364.1 89.15 364.15 89.25 364.35 89.75 364.8 89.3 365.7 88.65 364.35 88.2 356.9 85.1 356.7 85.05 356.6 85.05 M355.1 84.95 L354.4 85.5 354.6 85.5 355.25 84.95 355.1 84.95 M355.5 86.0 L355.5 86.1 355.4 86.2 355.45 86.2 355.65 86.2 355.9 86.2 355.95 86.2 355.9 86.0 355.5 86.0 M355.0 82.5 L355.5 83.1 358.4 84.05 358.4 84.0 358.45 83.95 357.3 83.45 355.05 82.5 355.0 82.5 M353.85 83.85 L353.8 83.95 353.5 84.05 353.7 84.05 353.8 84.0 353.95 83.95 354.15 83.85 353.85 83.85 M352.85 82.4 L351.9 82.55 351.65 82.7 352.35 82.75 352.85 82.4 M352.0 84.85 L351.45 85.3 352.3 84.85 352.0 84.85 M353.35 85.25 L353.95 84.9 353.7 84.9 353.35 85.15 353.35 85.25 M353.75 85.95 L353.55 86.1 353.55 86.15 353.8 86.15 354.0 85.95 353.75 85.95 M354.8 86.55 Q354.45 86.65 354.2 86.8 L354.9 86.55 354.8 86.55 M354.7 87.0 L355.3 86.55 355.1 86.55 Q354.7 86.75 354.4 87.0 L354.7 87.0 M353.95 87.4 L353.7 87.6 353.95 87.6 354.15 87.45 353.95 87.4 M352.35 88.55 L353.0 88.25 352.65 88.25 351.65 88.7 351.5 88.65 351.45 88.55 351.3 88.45 351.45 88.25 351.3 88.25 350.15 88.85 351.8 88.9 352.35 88.55 M352.35 89.5 L351.7 89.75 352.0 89.8 352.35 89.5 M353.55 89.55 L353.1 89.9 353.55 89.9 353.6 89.8 354.0 89.55 353.55 89.55 M354.85 88.95 L355.95 88.25 355.25 88.25 354.35 88.95 354.85 88.95 M356.1 86.85 L355.85 87.0 356.1 86.95 356.1 86.85 M356.7 89.1 L356.45 88.7 356.05 89.05 356.7 89.1 M356.15 90.1 L357.45 90.2 357.6 90.2 357.2 89.75 357.15 89.75 356.5 89.75 356.45 89.8 356.15 90.1 M349.4 85.95 L349.75 85.95 350.2 86.0 350.65 85.7 349.8 85.65 349.4 85.8 349.4 85.95 M349.25 84.8 L349.3 85.1 350.1 84.85 349.25 84.8 M348.65 84.8 L347.85 85.1 348.95 85.1 348.95 84.8 348.65 84.8 M350.15 82.05 L349.05 81.95 348.95 82.05 350.15 82.05 M347.6 83.75 L347.15 83.8 347.65 83.8 347.85 83.75 347.6 83.75 M346.2 85.9 L346.75 85.65 346.85 85.75 347.0 85.8 347.0 85.95 347.35 85.95 Q347.7 85.7 348.1 85.55 L347.35 85.5 346.7 85.5 345.5 85.9 346.2 85.9 M347.8 87.4 L348.3 87.15 346.7 87.0 346.55 87.0 345.1 87.5 347.6 87.5 347.8 87.4 M347.6 86.55 L348.5 86.6 348.75 86.65 348.75 86.4 348.0 86.4 347.6 86.55 M346.1 90.0 L345.35 90.35 345.55 90.35 346.15 90.0 346.1 90.0 M347.9 88.2 L347.85 88.2 Q347.6 88.3 347.4 88.5 L347.9 88.2 M349.55 86.4 L349.4 86.4 349.4 86.5 Q349.5 86.4 349.55 86.4 M348.65 88.65 Q348.7 88.55 348.9 88.5 L348.9 88.45 348.65 88.65 M349.7 89.6 L350.3 89.7 Q350.45 89.5 350.75 89.4 L349.6 89.4 349.7 89.6 M348.75 89.55 L348.95 89.55 348.95 89.5 348.75 89.55 M347.8 90.1 L347.15 90.4 347.7 90.45 348.5 90.55 349.1 90.25 349.05 90.1 347.8 90.1 M350.85 90.2 L350.1 90.65 351.15 90.8 351.15 90.75 351.5 90.25 350.85 90.2 M349.8 91.9 L349.95 91.95 351.15 91.3 349.75 91.2 349.8 91.9 M349.15 91.1 L348.05 91.8 349.15 91.85 349.15 91.1 M349.75 93.8 L350.1 93.8 350.35 93.55 349.75 93.55 349.75 93.8 M349.15 93.5 L348.75 93.4 348.45 93.6 349.15 93.75 349.15 93.5 M349.75 93.0 L350.85 93.1 351.4 92.75 350.35 92.7 349.75 92.95 349.75 93.0 M351.2 93.6 L350.8 93.85 351.3 93.95 351.7 93.75 351.85 93.6 351.65 93.6 351.2 93.6 M347.35 91.05 L346.2 91.0 345.1 91.7 346.4 91.7 347.55 91.05 347.35 91.05 M345.35 93.35 L345.55 93.35 347.05 93.5 347.25 93.35 346.3 93.35 345.5 93.3 345.35 93.35 M347.65 94.15 L347.55 94.2 347.6 94.2 347.85 94.15 347.65 94.15 M346.4 92.75 L348.1 92.9 348.65 92.55 347.0 92.45 346.4 92.75 M348.25 95.55 L346.2 95.4 346.15 95.45 347.35 95.55 348.3 95.65 348.45 95.55 348.25 95.55 M347.6 94.4 L347.6 94.45 347.85 94.45 349.05 94.7 349.1 94.25 348.05 94.15 347.65 94.35 347.6 94.4 M348.25 96.9 L348.1 97.0 348.1 97.1 347.55 97.45 347.85 97.45 349.55 96.95 348.45 96.8 348.25 96.9 M350.15 94.4 L349.9 94.5 349.8 94.5 349.75 94.7 349.6 94.5 349.6 94.8 349.95 94.8 Q350.2 94.5 350.55 94.4 L350.15 94.4 M350.0 95.7 L350.0 95.85 351.5 96.05 351.8 95.9 350.85 95.75 350.1 95.7 350.0 95.7 M350.55 97.4 L352.3 97.1 351.25 97.0 350.55 97.4 M357.95 90.85 L356.55 90.65 356.55 90.85 356.5 91.0 356.15 91.3 356.25 91.3 356.95 90.85 357.15 90.85 357.3 90.85 357.4 90.85 357.45 91.05 357.55 91.4 357.55 91.45 358.65 91.5 358.25 90.85 357.95 90.85 M357.1 91.9 L356.25 92.65 356.95 92.7 357.2 92.55 358.05 91.95 357.1 91.9 M355.45 90.6 L354.7 91.1 355.05 91.1 355.95 90.6 355.45 90.6 M355.5 93.1 L355.0 93.55 355.75 93.6 356.3 93.2 355.5 93.1 M357.3 93.8 L357.8 93.35 357.4 93.35 357.2 93.55 356.95 93.75 357.2 93.75 357.3 93.8 M356.5 94.0 L355.9 94.4 356.35 94.45 356.95 94.05 356.5 94.0 M353.7 91.0 L354.15 90.65 353.55 91.0 353.7 91.0 M354.15 91.6 L353.15 92.25 353.5 92.3 354.45 91.65 354.15 91.6 M352.75 91.45 L352.65 91.5 352.0 92.15 352.1 92.15 353.1 91.45 352.75 91.45 M352.5 90.35 L351.7 90.85 352.0 90.85 Q352.3 90.65 352.65 90.6 L352.85 90.35 352.5 90.35 M351.8 93.2 L352.3 93.3 352.85 92.8 352.35 92.8 351.8 93.2 M353.1 94.15 L353.55 93.8 353.5 93.8 352.9 94.15 353.1 94.15 M353.95 94.85 L354.0 94.8 353.5 94.8 353.2 94.9 353.1 95.05 353.5 95.05 353.75 94.9 353.95 94.85 M353.95 96.1 L353.5 96.1 Q353.35 96.15 353.15 96.35 L353.1 96.35 352.95 96.35 353.5 96.5 353.0 96.6 353.5 96.75 354.15 96.55 354.05 96.5 353.95 96.35 353.95 96.15 354.05 96.1 353.95 96.1 M354.7 94.35 L355.25 93.95 354.55 93.85 Q354.25 94.05 354.05 94.2 L354.7 94.35 M352.3 94.5 L352.0 94.5 351.4 94.9 352.1 95.0 352.55 94.65 352.3 94.5 M355.9 94.9 L355.25 94.85 354.7 95.2 355.25 95.3 355.9 94.9 M357.3 94.65 L358.05 94.05 358.4 93.6 357.2 94.65 357.3 94.65 M356.75 95.0 L356.5 95.3 356.8 95.0 356.75 95.0 M392.1 57.05 L391.05 56.2 390.9 56.05 390.5 56.0 385.3 55.55 Q380.65 55.4 375.9 55.55 L376.75 66.15 377.35 74.3 377.5 74.1 377.9 73.4 378.65 71.35 378.85 70.4 378.85 69.95 378.95 69.85 379.05 69.85 379.2 69.95 Q379.25 71.65 378.45 73.2 L377.35 75.05 377.5 77.2 378.15 76.75 Q379.65 75.75 380.25 74.1 L380.5 72.35 380.15 70.4 380.15 70.1 380.15 69.95 380.15 69.85 380.3 69.85 Q381.1 71.35 380.9 73.15 380.85 74.95 379.5 76.2 378.6 77.1 377.5 77.6 L377.55 79.15 383.7 80.25 383.9 80.35 383.95 80.25 384.05 80.35 Q386.65 79.5 387.85 77.1 388.7 75.5 389.05 73.65 389.45 72.1 389.45 70.4 L389.15 67.45 388.9 65.95 388.95 65.85 389.0 65.95 389.25 66.4 389.4 66.65 389.75 69.95 389.55 73.35 Q389.25 75.1 388.55 76.6 387.9 78.1 386.8 79.2 L384.9 80.4 387.1 79.6 Q388.95 78.75 390.1 77.0 L390.85 75.3 391.05 75.1 391.05 75.05 391.1 74.95 391.15 75.05 391.3 75.1 391.3 75.25 391.05 76.0 390.9 76.45 Q390.1 78.3 388.4 79.5 387.1 80.4 385.55 80.65 386.5 80.9 387.45 81.3 L389.25 79.95 Q391.15 78.7 391.9 76.6 392.55 75.05 392.4 73.25 L392.0 70.2 391.55 68.6 391.35 68.1 391.3 67.95 391.15 67.75 391.3 67.55 391.35 67.55 Q392.15 68.9 392.4 70.3 L392.55 71.15 392.85 73.5 392.85 74.85 392.85 75.25 392.4 76.6 Q391.8 78.7 390.1 80.05 L387.9 81.5 388.9 81.9 390.05 81.45 390.4 80.8 Q390.9 80.0 391.7 79.5 393.6 78.25 394.65 76.45 L394.0 77.2 393.4 77.4 393.9 76.8 394.3 76.35 394.85 76.2 395.35 75.55 396.45 73.05 Q397.25 70.7 397.2 68.35 L397.4 71.3 397.5 70.85 397.6 70.8 397.6 69.15 397.6 67.3 397.5 67.2 397.4 67.1 397.4 66.9 397.4 66.65 397.4 66.5 396.85 64.75 Q396.65 63.85 396.05 63.1 L396.0 62.8 395.7 62.25 Q395.05 60.65 394.05 59.65 L392.75 57.9 392.2 57.35 392.1 57.05 M373.75 45.05 L373.95 45.0 374.0 45.0 373.55 44.85 373.7 44.95 373.75 45.05 M373.95 46.85 L373.35 46.55 373.1 47.55 369.5 53.5 374.3 53.25 374.6 53.25 374.3 48.45 374.35 47.2 374.2 47.1 373.95 46.85 M366.65 56.2 L366.85 55.95 364.95 56.1 364.65 56.2 365.85 57.3 366.65 56.2 M363.8 65.0 L364.35 65.15 364.4 65.5 364.45 65.55 364.45 65.75 364.45 65.85 Q365.6 67.45 366.3 69.4 366.9 68.05 366.9 66.65 L366.9 64.8 366.9 64.55 366.9 64.15 366.85 64.1 366.75 63.9 366.75 62.85 366.7 61.75 366.65 61.55 366.55 61.5 366.5 61.3 366.5 61.15 366.5 60.9 366.5 60.85 366.3 60.65 366.3 60.55 366.3 60.3 365.7 59.15 363.55 61.75 361.35 64.1 362.9 64.7 362.9 64.65 363.15 64.45 363.35 64.5 363.8 65.0 M367.15 59.45 Q367.75 60.55 368.0 61.95 L368.05 62.55 368.05 63.1 368.0 63.45 368.35 65.4 368.05 67.55 368.0 67.75 368.0 68.1 367.95 68.4 367.85 68.55 367.8 69.2 367.6 69.85 367.55 69.95 367.55 70.05 367.55 70.25 367.2 70.9 367.15 71.35 367.1 71.5 366.95 71.9 367.1 72.95 Q367.3 74.65 366.75 76.2 L368.65 76.75 368.7 76.65 368.7 76.75 375.2 78.65 375.8 78.75 376.65 79.0 376.5 76.0 Q375.4 77.1 374.1 77.2 L373.5 77.1 373.5 77.05 373.55 77.0 Q375.35 76.6 376.5 75.5 L376.25 72.0 375.65 66.7 374.8 55.55 367.95 55.95 366.45 58.15 367.15 59.45 M384.15 69.75 Q384.8 71.3 384.8 73.0 384.8 74.85 383.75 76.2 382.8 77.5 381.2 78.55 L381.15 78.55 380.7 78.75 380.45 78.7 380.45 78.65 380.35 78.55 380.35 78.5 380.45 78.5 382.65 76.85 383.9 75.25 Q384.3 74.35 384.3 73.5 L384.15 70.8 384.05 69.75 384.1 69.65 384.15 69.75 M381.6 69.0 L381.6 68.9 381.7 68.8 381.8 68.8 Q382.8 70.25 382.8 71.95 L382.75 73.7 Q382.0 75.55 380.55 76.95 L379.9 77.65 379.65 77.95 379.3 77.95 379.3 78.05 379.25 78.05 378.95 78.05 378.85 77.95 379.2 77.7 379.25 77.65 Q380.85 76.25 381.8 74.5 382.55 73.35 382.55 72.1 382.35 70.65 381.75 69.4 L381.6 69.0 M375.55 81.35 Q372.15 80.2 365.4 78.8 366.35 79.95 364.55 80.05 L367.2 81.5 Q372.25 84.1 376.5 84.8 L376.65 81.75 375.55 81.35 M381.7 78.9 L381.6 78.75 381.55 78.75 381.6 78.7 Q384.35 78.1 385.55 75.6 L385.95 74.55 Q386.15 73.35 385.8 72.15 L385.8 71.65 385.95 71.65 386.15 71.9 386.15 71.95 Q386.7 73.6 386.25 75.25 385.65 77.05 384.1 78.15 383.05 78.9 381.7 78.9 M364.95 75.1 L364.8 75.35 364.45 75.7 365.45 75.95 365.6 74.25 365.5 74.3 365.15 74.85 365.0 74.95 364.95 75.1 M363.25 81.55 L358.8 79.6 362.6 81.45 363.25 81.55 M365.2 85.45 L366.55 86.0 366.65 85.95 366.55 85.9 366.35 85.8 366.3 85.8 365.3 85.45 365.2 85.45 M366.5 86.4 L364.65 85.95 364.6 86.3 364.55 86.4 364.4 86.5 366.45 87.15 Q366.35 86.75 366.5 86.4 M366.3 89.4 L366.45 89.3 366.5 89.3 366.65 89.4 366.7 89.5 366.75 89.6 366.9 89.8 367.35 89.5 367.4 89.55 367.5 89.55 367.6 89.6 367.7 89.75 367.7 90.1 368.0 90.55 369.5 89.95 369.65 89.95 369.65 90.0 369.65 90.15 369.65 90.2 369.65 90.35 369.45 90.45 369.5 90.45 369.65 90.55 369.7 90.85 370.35 90.65 370.3 90.25 370.35 90.2 370.45 90.15 370.7 90.6 370.75 90.65 370.75 90.75 370.9 90.8 370.9 91.0 371.0 91.45 372.2 91.0 372.05 90.85 372.0 90.75 371.85 90.55 371.75 90.45 371.6 90.4 371.6 90.25 366.3 88.85 365.45 89.6 365.8 90.4 365.8 90.45 366.45 90.1 366.3 89.5 366.3 89.4 M361.85 85.1 L361.85 85.3 361.65 85.55 363.25 86.15 363.25 85.95 363.3 85.95 363.45 85.65 363.1 85.5 361.85 85.1 M364.35 84.05 L362.1 83.4 364.35 84.2 364.35 84.05 M359.25 83.75 L361.2 84.4 361.25 84.3 360.4 84.0 359.3 83.55 359.25 83.75 M359.15 84.4 L359.7 84.8 361.0 85.3 361.0 84.85 359.15 84.2 359.15 84.4 M358.65 89.8 L359.05 90.35 360.8 90.6 360.85 90.65 360.85 90.55 360.8 89.9 359.5 89.8 358.65 89.8 M363.75 91.95 L364.0 91.7 364.0 91.0 363.8 91.1 363.75 91.95 M364.65 92.1 L365.3 91.8 365.3 91.6 364.95 91.85 364.65 92.1 M364.65 91.3 L365.2 90.85 365.15 90.4 365.05 90.0 364.55 90.45 364.65 91.3 M363.9 90.15 L363.8 89.6 363.8 90.2 363.9 90.15 M362.75 92.1 L362.75 92.25 362.6 92.25 361.65 92.9 361.35 93.4 361.35 93.5 361.25 93.55 360.75 94.15 360.8 94.15 362.9 92.55 363.1 91.85 362.75 92.1 M362.85 93.95 L363.5 93.55 363.55 93.5 363.75 93.15 363.25 93.4 362.85 93.95 M365.0 94.05 L365.2 93.6 364.35 94.05 365.0 94.05 M364.4 93.0 L365.4 92.45 365.3 92.25 364.45 92.75 364.4 93.0 M360.85 90.85 L359.35 90.95 359.65 91.65 360.8 91.7 360.8 91.45 360.85 90.85 M358.4 91.95 L358.4 92.1 358.45 92.15 358.5 92.25 358.45 92.25 358.45 92.45 358.45 92.5 358.05 92.8 358.6 92.8 358.8 92.7 358.8 92.05 358.4 91.95 M360.0 93.85 L360.2 93.55 360.0 93.55 360.0 93.85 M361.35 92.25 L361.2 92.55 361.4 92.35 Q361.45 92.25 361.55 92.25 L361.35 92.25 M360.2 92.7 L360.35 92.75 360.4 92.75 360.5 92.8 360.55 92.8 360.75 92.15 359.85 92.1 359.95 92.8 360.1 92.75 360.15 92.7 360.2 92.7 M370.05 91.8 L369.95 91.9 370.5 91.7 370.45 91.45 370.05 91.8 M368.45 91.45 L369.1 91.1 369.1 90.8 369.2 90.6 368.35 91.2 368.45 91.45 M368.65 93.2 L368.55 93.85 Q368.85 93.65 369.25 93.55 L369.4 92.9 368.65 93.2 M369.9 93.2 L370.7 92.8 370.6 92.3 369.9 92.65 369.9 93.2 M371.2 92.55 L372.65 91.7 372.65 91.6 372.05 91.7 371.2 92.1 371.2 92.55 M367.1 90.4 L367.2 90.85 367.55 90.75 367.5 90.6 367.35 90.25 367.1 90.4 M366.7 91.6 L366.1 91.85 366.1 91.95 366.7 91.65 366.7 91.6 M367.8 91.6 Q367.55 91.7 367.35 91.95 L367.85 91.7 367.8 91.6 M366.55 90.75 L366.05 91.1 366.05 91.45 Q366.3 91.3 366.65 91.1 L366.55 90.8 366.55 90.75 M366.55 92.95 L366.05 93.2 365.9 93.65 366.45 93.35 366.55 92.95 M367.95 92.25 L367.3 92.55 367.2 92.8 367.95 92.35 367.95 92.25 M367.15 94.0 L367.8 93.95 367.95 93.6 367.15 94.0 M384.5 83.75 L377.55 82.05 377.5 84.9 Q381.0 85.15 383.9 84.0 L384.5 83.75 M377.55 91.45 L377.55 91.6 377.6 91.45 377.9 91.45 378.35 91.65 379.2 91.3 377.25 91.1 377.25 91.2 377.3 91.4 377.55 91.45 M376.75 91.05 L376.5 91.05 376.3 91.45 376.25 91.45 376.3 91.5 376.75 91.4 376.75 91.05 M375.05 90.85 L374.95 90.85 374.8 91.05 375.05 90.95 375.05 90.85 M377.9 92.8 L377.95 92.95 Q378.2 92.8 378.55 92.7 L378.45 92.65 378.2 92.75 377.9 92.8 M372.8 90.8 L373.45 90.6 372.3 90.4 372.8 90.8 M372.45 93.8 L372.65 93.8 372.85 93.65 372.45 93.8 M373.75 93.2 L373.55 93.35 373.75 93.3 373.75 93.2 M383.4 91.8 L383.3 91.7 382.75 92.15 382.85 92.3 383.5 91.95 383.45 91.9 383.4 91.85 383.4 91.8 M384.05 91.8 L385.3 91.3 383.85 91.4 383.65 91.5 384.05 91.8 M382.2 92.45 L381.4 92.8 382.25 92.55 382.2 92.45 M381.5 91.5 L381.4 91.45 380.55 91.4 380.3 91.6 380.65 91.85 381.5 91.5 M379.9 91.85 L379.0 92.3 379.2 92.5 380.1 92.05 379.9 91.9 379.9 91.85 M379.45 93.1 L379.85 92.8 379.4 93.0 379.45 93.1 M378.75 93.3 L378.1 93.6 378.55 93.6 378.8 93.4 378.75 93.3 M392.15 84.65 L391.95 84.25 Q391.6 84.3 391.3 84.6 L391.35 84.6 391.5 84.6 391.5 84.7 391.5 84.9 391.8 84.8 392.15 84.65 M392.0 84.95 L392.3 84.85 392.2 84.85 392.1 84.85 392.0 84.95 M391.75 83.75 L389.4 84.7 389.4 84.85 389.35 84.85 389.35 84.9 391.9 84.0 391.75 83.75 M394.5 87.8 L394.65 87.8 394.75 87.85 394.9 88.1 394.9 88.2 394.1 88.95 394.45 89.55 394.85 89.4 395.4 89.15 395.4 89.05 395.35 88.95 395.3 88.95 395.2 88.9 395.2 88.95 395.15 88.95 395.15 88.9 395.15 88.85 395.15 88.75 395.3 88.75 395.4 88.75 395.4 88.85 395.5 88.9 395.55 88.9 395.7 89.1 396.2 88.95 396.15 88.85 396.05 88.7 394.65 87.35 Q394.65 87.25 394.5 87.25 L394.0 87.8 393.8 88.1 393.7 88.2 394.5 87.8 M389.55 85.15 L389.15 85.3 389.15 85.45 389.55 85.15 M386.5 85.65 L387.0 85.5 387.1 85.35 386.9 85.45 386.7 85.5 386.65 85.55 386.5 85.55 386.5 85.65 M385.4 87.5 L385.35 87.5 384.75 88.05 385.15 88.0 385.65 87.5 385.4 87.5 M385.65 87.45 L385.75 87.35 385.55 87.45 385.65 87.45 M385.95 87.25 L386.05 87.25 386.25 87.15 385.95 87.25 M390.45 90.55 L390.85 90.25 390.75 90.15 390.5 90.15 389.75 90.45 389.9 90.75 390.45 90.55 M389.15 90.75 L389.05 90.75 389.05 90.8 389.0 90.85 388.8 91.05 388.6 91.2 389.55 90.85 389.45 90.6 Q389.25 90.6 389.15 90.75 M388.2 92.05 L388.15 92.1 388.4 92.05 388.6 91.85 388.2 92.05 M387.5 92.55 L387.5 92.5 386.5 93.0 386.5 93.15 387.5 92.55 M396.05 90.85 L396.05 90.95 395.15 92.5 Q394.95 92.55 394.9 92.75 L395.35 92.65 396.45 91.7 396.55 90.4 396.05 90.85 M362.3 99.15 L365.7 98.05 370.7 98.5 372.25 98.8 372.65 98.85 372.65 99.05 372.7 99.15 372.65 99.25 372.6 99.35 Q366.9 98.3 361.35 100.0 L356.05 100.2 353.15 99.7 353.0 99.65 352.85 99.45 352.7 99.35 360.55 99.45 362.3 99.15 M347.0 99.25 Q344.25 99.65 341.55 99.3 L345.75 99.8 347.0 99.25 M340.05 98.95 L340.25 99.05 340.15 98.95 340.05 98.95" fill="#6a3409" fill-rule="evenodd" stroke="none"/>
    <path d="M344.6 62.2 Q344.9 62.05 344.4 61.6 343.8 61.15 351.15 63.0 L351.7 63.3 Q352.05 65.95 351.65 68.7 351.45 70.0 352.0 71.15 L352.0 71.3 351.6 71.7 351.6 71.75 351.9 71.9 Q352.05 71.75 352.25 71.7 353.0 73.5 352.7 75.55 L349.35 74.9 347.9 75.1 345.35 75.55 Q343.4 74.25 341.25 73.25 L342.4 71.9 Q344.0 69.4 344.25 66.6 L344.05 61.7 Q344.25 62.25 344.6 62.2 M353.0 70.5 L352.9 70.65 352.85 70.5 Q352.55 69.6 352.75 68.75 353.35 66.15 352.85 63.7 L358.8 65.2 353.0 70.5 M353.55 70.85 L357.35 67.75 359.95 65.5 363.35 66.25 364.0 67.65 Q365.0 69.55 365.4 71.55 L365.2 72.1 365.15 72.15 364.85 72.6 364.8 72.8 364.75 72.95 364.3 73.5 363.75 74.35 363.75 74.55 363.7 74.7 363.3 75.25 363.25 75.35 362.75 75.25 362.5 75.3 362.0 75.5 361.6 76.0 361.6 76.1 361.6 76.35 361.6 76.55 362.0 77.0 Q362.4 77.4 364.35 78.1 366.25 78.75 363.8 79.75 358.45 77.2 353.8 75.9 354.15 75.35 353.95 74.2 L353.1 71.1 353.2 70.9 353.55 70.85 M392.1 57.05 L392.2 57.35 392.75 57.9 394.05 59.65 Q395.05 60.65 395.7 62.25 L396.0 62.8 396.05 63.1 Q396.65 63.85 396.85 64.75 L397.4 66.5 397.4 66.65 397.4 66.9 397.4 67.1 397.5 67.2 397.6 67.3 397.6 69.15 397.6 70.8 397.5 70.85 397.4 71.3 397.2 68.35 Q397.25 70.7 396.45 73.05 L395.35 75.55 394.85 76.2 394.3 76.35 393.9 76.8 393.4 77.4 394.0 77.2 394.65 76.45 Q393.6 78.25 391.7 79.5 390.9 80.0 390.4 80.8 L390.05 81.45 388.9 81.9 387.9 81.5 390.1 80.05 Q391.8 78.7 392.4 76.6 L392.85 75.25 392.85 74.85 392.85 73.5 392.55 71.15 392.4 70.3 Q392.15 68.9 391.35 67.55 L391.3 67.55 391.15 67.75 391.3 67.95 391.35 68.1 391.55 68.6 392.0 70.2 392.4 73.25 Q392.55 75.05 391.9 76.6 391.15 78.7 389.25 79.95 L387.45 81.3 Q386.5 80.9 385.55 80.65 387.1 80.4 388.4 79.5 390.1 78.3 390.9 76.45 L391.05 76.0 391.3 75.25 391.3 75.1 391.15 75.05 391.1 74.95 391.05 75.05 391.05 75.1 390.85 75.3 390.1 77.0 Q388.95 78.75 387.1 79.6 L384.9 80.4 386.8 79.2 Q387.9 78.1 388.55 76.6 389.25 75.1 389.55 73.35 L389.75 69.95 389.4 66.65 389.25 66.4 389.0 65.95 388.95 65.85 388.9 65.95 389.15 67.45 389.45 70.4 Q389.45 72.1 389.05 73.65 388.7 75.5 387.85 77.1 386.65 79.5 384.05 80.35 L383.95 80.25 383.9 80.35 383.7 80.25 377.55 79.15 377.5 77.6 Q378.6 77.1 379.5 76.2 380.85 74.95 380.9 73.15 381.1 71.35 380.3 69.85 L380.15 69.85 380.15 69.95 380.15 70.1 380.15 70.4 380.5 72.35 380.25 74.1 Q379.65 75.75 378.15 76.75 L377.5 77.2 377.35 75.05 378.45 73.2 Q379.25 71.65 379.2 69.95 L379.05 69.85 378.95 69.85 378.85 69.95 378.85 70.4 378.65 71.35 377.9 73.4 377.5 74.1 377.35 74.3 376.75 66.15 375.9 55.55 Q380.65 55.4 385.3 55.55 L390.5 56.0 390.9 56.05 391.05 56.2 392.1 57.05 M381.6 69.0 L381.75 69.4 Q382.35 70.65 382.55 72.1 382.55 73.35 381.8 74.5 380.85 76.25 379.25 77.65 L379.2 77.7 378.85 77.95 378.95 78.05 379.25 78.05 379.3 78.05 379.3 77.95 379.65 77.95 379.9 77.65 380.55 76.95 Q382.0 75.55 382.75 73.7 L382.8 71.95 Q382.8 70.25 381.8 68.8 L381.7 68.8 381.6 68.9 381.6 69.0 M384.15 69.75 L384.1 69.65 384.05 69.75 384.15 70.8 384.3 73.5 Q384.3 74.35 383.9 75.25 L382.65 76.85 380.45 78.5 380.35 78.5 380.35 78.55 380.45 78.65 380.45 78.7 380.7 78.75 381.15 78.55 381.2 78.55 Q382.8 77.5 383.75 76.2 384.8 74.85 384.8 73.0 384.8 71.3 384.15 69.75 M367.15 59.45 L366.45 58.15 367.95 55.95 374.8 55.55 375.65 66.7 376.25 72.0 376.5 75.5 Q375.35 76.6 373.55 77.0 L373.5 77.05 373.5 77.1 374.1 77.2 Q375.4 77.1 376.5 76.0 L376.65 79.0 375.8 78.75 375.2 78.65 368.7 76.75 368.7 76.65 368.65 76.75 366.75 76.2 Q367.3 74.65 367.1 72.95 L366.95 71.9 367.1 71.5 367.15 71.35 367.2 70.9 367.55 70.25 367.55 70.05 367.55 69.95 367.6 69.85 367.8 69.2 367.85 68.55 367.95 68.4 368.0 68.1 368.0 67.75 368.05 67.55 368.35 65.4 368.0 63.45 368.05 63.1 368.05 62.55 368.0 61.95 Q367.75 60.55 367.15 59.45 M381.7 78.9 Q383.05 78.9 384.1 78.15 385.65 77.05 386.25 75.25 386.7 73.6 386.15 71.95 L386.15 71.9 385.95 71.65 385.8 71.65 385.8 72.15 Q386.15 73.35 385.95 74.55 L385.55 75.6 Q384.35 78.1 381.6 78.7 L381.55 78.75 381.6 78.75 381.7 78.9" fill="#ffffff" fill-rule="evenodd" stroke="none"/>
  </g>
</svg>
