<?xml version="1.0" encoding="UTF-8" standalone="no"?>
<svg xmlns:ffdec="https://www.free-decompiler.com/flash" xmlns:xlink="http://www.w3.org/1999/xlink" ffdec:objectType="shape" height="117.05px" width="165.1px" xmlns="http://www.w3.org/2000/svg">
  <g transform="matrix(1.0, 0.0, 0.0, 1.0, 0.0, 0.0)">
    <path d="M86.6 30.05 Q89.45 25.15 91.0 20.3 91.85 17.3 93.05 14.35 L96.15 25.85 Q98.8 34.7 106.05 40.45 L108.15 42.0 Q103.75 42.75 99.8 40.6 L103.4 47.6 Q105.95 52.35 110.9 56.5 L112.0 57.45 Q109.0 58.1 105.95 56.6 L100.5 53.55 Q101.55 56.45 103.5 58.6 L109.25 64.55 Q111.7 66.85 118.35 70.25 107.6 70.0 103.0 68.3 104.35 75.25 118.85 84.95 L106.05 85.55 Q109.65 91.1 120.1 98.05 102.3 100.8 94.65 93.7 88.95 88.5 82.25 90.95 79.8 91.9 77.3 92.45 69.2 94.15 61.25 93.4 L56.2 94.2 Q53.65 94.45 61.5 91.05 69.3 87.65 72.5 85.15 74.05 84.0 76.4 79.3 L76.0 79.35 Q67.95 81.05 60.0 80.3 59.6 79.8 60.0 79.35 61.9 77.1 64.5 76.0 68.1 74.55 71.25 72.05 73.6 70.25 75.45 67.75 73.75 68.7 71.9 69.3 66.7 71.0 62.15 69.15 62.05 68.8 62.3 68.65 66.0 66.55 69.9 64.0 72.8 62.1 74.95 59.1 L78.2 54.2 76.55 54.65 Q73.0 55.9 69.4 55.15 L74.7 50.9 Q80.8 45.55 84.75 40.25 78.8 42.5 75.0 42.4 L75.9 41.75 Q77.85 40.5 80.7 37.65 83.6 34.8 86.6 30.05" fill="#3c1505" fill-rule="evenodd" stroke="none"/>
    <path d="M18.0 28.95 Q20.1 23.7 20.7 18.7 L21.7 12.45 26.75 23.2 Q30.8 31.5 38.95 35.9 L41.35 37.2 Q37.1 38.6 32.85 37.15 L37.6 43.45 Q40.9 47.65 46.45 51.0 L47.75 51.7 41.65 51.9 Q38.65 51.05 35.75 49.85 37.25 52.5 39.5 54.25 L46.2 59.1 Q49.05 61.05 56.2 63.3 L40.65 63.95 Q43.2 70.55 59.05 77.65 42.0 83.3 33.3 77.7 26.75 73.5 20.6 77.05 18.35 78.4 15.95 79.35 8.25 82.4 0.35 83.05 -0.2 82.6 0.15 82.05 1.6 79.6 4.05 78.0 7.3 75.95 10.0 73.0 12.05 70.8 13.45 68.05 L10.2 70.15 Q5.35 72.7 0.55 71.7 0.35 71.3 0.6 71.15 L7.3 65.3 Q9.85 62.9 11.45 59.6 L13.9 54.15 12.35 54.95 Q9.0 56.75 5.3 56.6 L9.85 51.55 Q15.0 45.25 17.9 39.35 12.45 42.6 8.7 43.1 L9.5 42.35 Q11.15 40.8 13.55 37.45 15.95 34.15 18.0 28.95" fill="#3c1505" fill-rule="evenodd" stroke="none"/>
    <path d="M64.8 38.7 Q68.15 43.3 70.45 45.45 L71.55 46.5 Q66.3 45.75 58.7 41.3 62.8 49.55 70.0 58.35 73.8 63.0 76.3 65.3 71.15 65.5 66.5 63.0 L64.35 61.9 68.0 70.8 Q70.1 75.8 75.95 80.35 79.9 83.4 85.4 86.35 L85.6 86.65 Q73.4 86.2 69.5 84.15 67.15 82.9 65.0 81.25 66.95 85.05 69.75 88.15 73.45 92.25 87.5 100.65 L93.35 104.2 Q63.15 102.6 50.75 97.6 37.75 102.65 7.6 104.2 L13.4 100.65 Q27.45 92.25 31.15 88.15 34.0 85.05 35.95 81.25 L31.4 84.15 Q25.75 87.2 14.05 85.0 18.5 82.65 22.7 79.1 27.1 75.25 31.05 70.5 34.95 65.8 36.55 61.9 35.7 62.3 34.4 63.0 29.75 65.5 24.6 65.3 27.1 63.0 30.9 58.35 38.1 49.55 42.2 41.3 34.6 45.75 29.35 46.5 L30.45 45.45 Q32.8 43.3 36.1 38.7 39.4 34.05 42.25 26.85 44.65 20.85 49.85 0.0 56.25 21.0 58.65 26.85 61.5 34.05 64.8 38.7" fill="#5d240d" fill-rule="evenodd" stroke="none"/>
    <path d="M148.95 47.45 Q151.4 52.55 153.3 55.1 L154.2 56.35 Q149.2 54.65 142.5 48.9 145.05 57.75 150.5 67.7 153.4 73.0 155.4 75.7 150.35 74.95 146.25 71.65 L144.3 70.15 146.25 79.55 Q147.4 84.85 152.4 90.4 155.7 94.15 160.55 98.05 L160.7 98.4 Q148.75 95.75 145.3 93.0 143.2 91.3 141.4 89.3 142.65 93.4 144.8 96.95 147.75 101.65 160.0 112.45 L165.1 117.05 Q135.75 110.0 124.45 102.8 110.75 105.35 80.8 101.45 L87.2 99.0 Q102.45 93.3 106.85 89.9 110.25 87.45 112.8 84.05 110.4 85.25 107.85 86.05 101.75 88.0 90.65 83.75 95.45 82.25 100.2 79.5 105.25 76.55 109.95 72.6 114.7 68.65 116.95 65.1 L114.65 65.8 Q109.65 67.4 104.6 66.3 107.5 64.5 112.1 60.55 120.75 53.25 126.25 45.85 118.0 48.9 112.7 48.7 L114.0 47.85 Q116.65 46.1 120.7 42.2 124.85 38.25 128.95 31.7 132.4 26.25 141.3 6.65 143.8 28.5 145.05 34.65 146.55 42.3 148.95 47.45" fill="#5d240d" fill-rule="evenodd" stroke="none"/>
  </g>
</svg>
