<?xml version="1.0" encoding="UTF-8" standalone="no"?>
<svg xmlns:ffdec="https://www.free-decompiler.com/flash" xmlns:xlink="http://www.w3.org/1999/xlink" ffdec:objectType="shape" height="442.6px" width="564.35px" xmlns="http://www.w3.org/2000/svg">
  <g transform="matrix(1.0, 0.0, 0.0, 1.0, -34.85, -21.1)">
    <path d="M240.1 73.1 L241.05 71.55 Q242.65 68.9 243.65 68.7 L251.45 69.3 274.65 70.2 Q285.45 70.2 291.1 68.95 293.75 68.35 298.95 66.05 308.7 61.65 333.55 61.35 336.6 62.3 351.35 68.45 365.85 74.1 371.35 74.1 L388.0 70.5 Q404.5 66.95 419.4 66.95 427.85 66.95 433.15 71.6 L434.5 70.25 Q437.75 67.3 439.85 67.9 442.3 68.6 442.3 74.15 442.3 75.0 441.3 77.2 L443.15 77.3 Q450.7 69.2 455.85 69.2 459.4 69.2 462.3 72.85 465.2 76.55 466.55 76.55 467.85 76.55 474.15 73.65 480.5 70.75 485.75 70.75 489.25 70.75 491.5 72.6 L493.7 75.0 Q505.85 74.0 511.35 72.1 515.45 70.75 523.5 70.75 L525.45 68.6 Q527.9 66.1 530.25 64.7 538.05 60.3 544.0 67.9 545.85 70.35 548.1 74.9 550.6 80.0 550.6 81.9 550.6 83.9 548.85 88.95 547.0 94.0 547.0 97.5 L550.25 108.1 Q553.4 119.7 553.4 125.3 553.4 130.75 552.0 135.1 550.6 139.45 550.6 141.95 550.6 144.95 552.75 152.6 554.85 160.2 554.85 170.05 554.85 176.95 552.0 189.9 550.05 198.85 549.45 204.7 L549.5 210.85 Q550.05 213.1 537.55 221.6 525.1 230.1 535.6 234.6 546.15 239.15 551.7 245.95 L552.7 249.15 554.25 255.95 555.9 263.75 Q556.65 268.25 558.85 278.45 560.6 287.6 560.6 292.75 L559.85 300.05 559.15 307.35 560.9 317.25 Q562.65 327.05 562.65 331.0 562.65 334.9 562.15 336.45 561.7 337.65 560.85 338.45 563.3 343.6 564.7 352.55 L565.9 364.25 Q567.0 374.4 567.0 377.8 567.0 382.3 562.5 387.2 563.4 388.7 563.4 393.7 563.4 400.75 562.05 404.65 559.2 413.2 550.6 413.2 547.65 413.2 541.95 408.25 L535.4 401.95 535.3 401.95 532.95 405.4 Q531.35 407.15 529.25 407.15 L517.7 405.2 Q505.55 402.6 500.75 399.4 495.35 395.85 492.55 395.2 490.8 394.75 488.4 395.6 482.15 397.9 471.0 394.5 L449.75 394.45 Q448.0 393.95 444.8 390.85 L441.6 387.85 Q439.25 387.85 429.5 392.6 419.7 397.35 414.5 397.35 403.7 397.35 399.1 393.15 L398.95 393.05 387.8 393.85 Q384.65 393.85 363.9 400.15 343.15 406.4 332.95 406.4 326.2 406.4 308.95 400.4 292.05 394.4 292.05 392.55 292.05 388.25 318.1 382.25 L329.8 379.8 280.8 378.95 Q269.1 386.5 259.9 393.95 253.35 399.3 245.25 406.75 239.3 411.9 234.35 413.65 228.4 415.75 217.2 415.75 195.05 415.75 181.85 408.6 170.25 402.3 168.35 392.5 168.35 392.0 167.85 391.7 161.7 395.35 139.8 397.0 L120.6 397.95 Q115.7 401.25 108.8 405.35 66.9 430.1 65.65 406.0 L64.45 379.0 Q64.45 378.1 65.5 376.0 L64.05 376.0 Q69.25 361.85 71.55 354.45 76.8 337.95 80.05 321.65 L78.75 320.45 Q75.45 316.9 75.45 310.75 75.45 305.3 79.65 295.7 L84.8 284.85 85.05 280.6 81.5 281.65 76.25 282.4 Q70.4 282.4 68.95 277.8 68.5 276.3 68.5 274.55 L68.65 272.95 Q68.65 265.05 76.2 253.65 78.05 250.85 82.05 245.7 79.4 232.85 79.4 226.0 79.4 215.25 83.9 190.95 88.35 166.65 88.35 158.7 88.35 145.05 84.65 126.15 80.1 122.05 75.95 106.4 72.05 91.65 72.05 83.0 72.05 77.5 75.25 71.4 79.85 62.5 88.5 62.5 93.7 62.5 96.35 65.05 L99.1 68.05 101.1 66.2 Q102.85 65.1 106.2 65.1 109.45 65.1 124.05 71.85 L126.7 73.05 133.6 73.6 155.0 75.1 156.95 75.15 157.0 74.95 Q158.1 72.1 159.6 69.8 164.4 62.5 172.45 62.5 176.9 62.5 203.65 71.2 L204.85 71.6 Q199.95 73.1 194.05 76.0 L200.3 76.0 Q202.05 74.3 205.95 71.95 L214.35 74.65 236.65 73.8 238.6 73.8 239.6 73.8 239.65 73.8 240.9 73.75 241.0 73.15 241.45 72.45 240.1 73.1 M334.45 391.25 Q329.0 393.35 324.45 394.45 L328.05 394.8 332.65 394.95 Q340.8 394.95 351.85 392.15 357.45 390.75 361.8 389.25 L353.7 388.9 338.3 392.2 Q335.95 392.2 334.45 391.25 M554.4 313.6 L555.1 319.6 555.2 318.25 Q555.2 317.35 554.4 313.6 M488.75 415.6 L483.9 414.25 508.65 415.8 488.75 415.6" fill="#dbc18f" fill-rule="evenodd" stroke="none"/>
    <path d="M592.9 220.35 L593.15 224.15 592.65 224.25 593.1 224.15 592.9 220.35 M598.65 456.85 L598.55 461.6 598.5 461.6 598.65 456.85 M41.6 123.8 L41.55 118.85 41.65 118.85 41.6 123.8 M529.85 38.3 L529.95 37.25 529.85 38.4 529.85 38.3 M531.45 21.9 L535.15 22.1 531.7 21.95 531.45 21.9 M572.5 69.85 Q575.75 74.45 575.75 77.15 575.75 82.35 572.2 94.3 L571.25 97.8 Q576.65 95.25 576.65 105.4 576.65 107.55 569.2 117.9 568.9 122.45 567.6 127.2 576.65 119.3 576.65 132.25 L575.4 135.2 Q578.25 136.2 578.25 144.4 578.25 146.05 568.25 160.3 569.2 162.95 569.2 165.2 569.2 168.0 567.75 171.3 L566.95 173.35 Q578.25 163.65 578.25 179.45 578.25 183.25 567.95 194.5 570.15 192.8 571.9 192.3 574.35 190.7 575.55 192.95 577.45 194.9 577.45 201.1 577.45 202.2 574.4 206.6 L570.4 215.5 Q567.7 221.0 553.2 224.4 560.3 229.6 572.35 239.7 L571.35 240.75 Q573.35 242.25 573.35 247.55 573.35 248.9 568.75 254.1 571.7 254.3 571.7 261.45 571.7 263.3 568.0 270.05 569.2 269.45 570.75 269.45 573.35 269.5 575.3 271.3 577.45 273.2 577.45 276.05 577.45 278.75 574.15 295.4 574.15 300.25 574.95 311.15 575.75 322.05 575.75 329.4 575.75 336.0 579.55 347.25 583.2 358.5 583.2 363.3 583.2 371.0 578.25 382.15 573.35 393.2 573.35 394.05 573.35 396.85 576.25 399.9 579.1 402.9 579.1 407.05 579.1 409.95 571.7 423.7 563.6 438.65 559.35 438.65 554.15 438.65 546.95 435.25 L542.5 432.8 535.55 433.4 Q533.15 434.3 528.9 434.3 L521.65 433.8 Q520.95 433.6 519.8 432.4 L515.7 432.0 498.9 432.8 489.45 433.45 Q479.2 433.45 476.3 430.15 475.35 429.15 475.3 427.9 L475.4 427.5 472.8 427.2 Q463.9 434.3 460.25 434.3 455.8 434.3 454.1 431.05 453.3 429.4 453.3 427.45 L454.85 425.65 Q452.1 425.65 450.4 424.5 L446.9 424.1 446.5 424.55 Q440.4 432.55 438.45 432.55 434.3 432.55 432.75 429.35 431.9 427.7 431.9 425.75 431.9 424.45 432.95 422.45 L431.9 422.3 Q431.65 425.3 429.25 427.05 427.7 428.1 425.2 428.85 L423.65 429.95 421.0 429.6 414.2 429.95 Q405.15 429.95 402.8 426.2 L402.8 426.15 Q400.35 427.35 399.1 427.35 396.95 427.35 395.45 426.55 L392.45 429.55 Q389.25 432.55 385.55 432.55 381.85 432.55 379.85 430.65 L377.7 430.85 Q373.55 430.85 371.85 427.55 L371.75 427.1 Q350.0 437.8 327.75 434.5 L324.0 434.5 322.35 436.5 Q319.4 439.5 315.6 439.5 311.9 439.5 310.3 436.25 L309.7 434.5 288.65 434.5 Q287.05 435.5 280.6 436.3 L270.4 436.9 Q261.1 436.9 258.05 433.45 257.45 432.65 257.15 431.6 L255.6 432.6 Q239.95 442.95 231.75 442.95 228.45 442.95 226.85 440.5 221.55 443.85 217.4 443.85 212.6 443.85 210.85 440.55 L210.0 437.5 Q208.6 438.65 207.9 438.65 205.6 438.65 204.1 437.35 191.15 446.45 187.8 446.45 183.65 446.45 182.0 443.15 L181.2 439.9 Q181.2 438.95 185.65 434.85 L183.8 435.25 168.85 447.3 Q164.8 447.3 163.15 444.05 L162.35 440.8 Q139.8 446.85 126.5 449.9 L100.2 449.9 Q70.85 444.0 58.8 437.5 46.35 430.85 46.35 420.55 46.35 414.6 50.9 386.75 L55.75 357.8 61.25 326.5 64.45 308.15 64.45 295.25 Q63.15 291.2 57.55 279.65 53.75 271.75 53.75 264.7 53.75 258.2 55.35 248.85 L58.65 232.2 Q59.0 230.9 58.65 228.2 L58.2 223.5 Q57.95 217.7 61.8 215.95 L62.45 215.7 Q61.25 212.4 60.3 208.55 L59.5 205.1 Q59.5 198.35 63.2 187.8 L66.75 178.65 66.9 177.6 Q66.45 176.4 62.8 170.0 58.65 162.85 58.65 156.7 58.65 143.7 62.4 133.05 63.95 128.85 65.75 125.45 65.05 124.45 64.65 123.0 L64.45 118.4 Q64.45 114.1 64.65 113.35 L67.3 105.4 Q61.8 106.4 59.1 104.1 57.05 102.35 57.05 99.35 L57.85 88.95 Q57.85 86.9 60.65 77.15 L62.55 70.75 59.5 61.65 Q59.5 57.4 62.85 54.25 65.85 51.45 70.2 50.55 L73.5 50.25 Q77.35 49.05 82.95 49.7 88.85 50.5 93.4 52.8 94.45 53.35 95.3 53.9 99.4 54.35 99.8 59.35 L103.1 58.65 103.1 58.5 Q103.1 53.7 104.5 52.5 105.85 51.4 110.1 52.1 L119.45 53.8 Q123.0 53.2 124.9 54.65 L141.3 55.6 143.6 55.7 Q159.6 48.85 159.85 59.95 L164.8 62.7 166.15 63.6 Q175.85 60.05 182.3 59.3 190.9 58.3 191.8 62.7 L193.55 61.9 Q206.65 56.05 214.45 55.75 223.5 55.4 224.0 62.8 L228.05 61.15 Q241.1 56.15 250.3 55.4 261.2 54.5 264.25 60.1 L279.6 61.05 Q281.1 61.3 282.2 61.85 295.4 52.1 303.75 52.1 307.7 52.1 309.6 54.5 L311.15 56.85 326.2 55.15 Q342.5 52.8 349.5 49.9 359.9 45.75 369.45 45.55 375.3 45.4 388.8 46.05 398.3 46.05 406.0 49.0 413.75 51.9 415.25 51.9 417.3 51.9 433.25 45.1 449.25 38.25 454.75 38.95 460.25 39.7 459.95 44.45 459.65 49.2 463.8 63.95 468.3 46.7 474.4 46.4 L481.25 46.05 Q488.35 46.05 495.8 49.2 L503.25 52.3 508.65 51.35 Q513.05 50.4 516.3 45.7 519.55 41.0 522.2 44.35 524.8 47.7 527.75 62.1 530.05 68.55 534.9 44.6 552.25 36.25 561.05 37.2 570.9 38.15 570.9 55.0 L570.05 59.9 Q569.2 63.75 569.2 64.8 569.2 65.3 572.5 69.85 M204.85 71.6 L203.65 71.2 Q176.9 62.5 172.45 62.5 164.4 62.5 159.6 69.8 158.1 72.1 157.0 74.95 L156.95 75.15 155.0 75.1 133.6 73.6 126.7 73.05 124.05 71.85 Q109.45 65.1 106.2 65.1 102.85 65.1 101.1 66.2 L99.1 68.05 96.35 65.05 Q93.7 62.5 88.5 62.5 79.85 62.5 75.25 71.4 72.05 77.5 72.05 83.0 72.05 91.65 75.95 106.4 80.1 122.05 84.65 126.15 88.35 145.05 88.35 158.7 88.35 166.65 83.9 190.95 79.4 215.25 79.4 226.0 79.4 232.85 82.05 245.7 78.05 250.85 76.2 253.65 68.65 265.05 68.65 272.95 L68.5 274.55 Q68.5 276.3 68.95 277.8 70.4 282.4 76.25 282.4 L81.5 281.65 85.05 280.6 84.8 284.85 79.65 295.7 Q75.45 305.3 75.45 310.75 75.45 316.9 78.75 320.45 L80.05 321.65 Q76.8 337.95 71.55 354.45 69.25 361.85 64.05 376.0 L65.5 376.0 Q64.45 378.1 64.45 379.0 L65.65 406.0 Q66.9 430.1 108.8 405.35 115.7 401.25 120.6 397.95 L139.8 397.0 Q161.7 395.35 167.85 391.7 168.35 392.0 168.35 392.5 170.25 402.3 181.85 408.6 195.05 415.75 217.2 415.75 228.4 415.75 234.35 413.65 239.3 411.9 245.25 406.75 253.35 399.3 259.9 393.95 269.1 386.5 280.8 378.95 L329.8 379.8 318.1 382.25 Q292.05 388.25 292.05 392.55 292.05 394.4 308.95 400.4 326.2 406.4 332.95 406.4 343.15 406.4 363.9 400.15 384.65 393.85 387.8 393.85 L398.95 393.05 399.1 393.15 Q403.7 397.35 414.5 397.35 419.7 397.35 429.5 392.6 439.25 387.85 441.6 387.85 L444.8 390.85 Q448.0 393.95 449.75 394.45 L471.0 394.5 Q482.15 397.9 488.4 395.6 490.8 394.75 492.55 395.2 495.35 395.85 500.75 399.4 505.55 402.6 517.7 405.2 L529.25 407.15 Q531.35 407.15 532.95 405.4 L535.3 401.95 535.4 401.95 541.95 408.25 Q547.65 413.2 550.6 413.2 559.2 413.2 562.05 404.65 563.4 400.75 563.4 393.7 563.4 388.7 562.5 387.2 567.0 382.3 567.0 377.8 567.0 374.4 565.9 364.25 L564.7 352.55 Q563.3 343.6 560.85 338.45 561.7 337.65 562.15 336.45 562.65 334.9 562.65 331.0 562.65 327.05 560.9 317.25 L559.15 307.35 559.85 300.05 560.6 292.75 Q560.6 287.6 558.85 278.45 556.65 268.25 555.9 263.75 L554.25 255.95 552.7 249.15 551.7 245.95 Q546.15 239.15 535.6 234.6 525.1 230.1 537.55 221.6 550.05 213.1 549.5 210.85 L549.45 204.7 Q550.05 198.85 552.0 189.9 554.85 176.95 554.85 170.05 554.85 160.2 552.75 152.6 550.6 144.95 550.6 141.95 550.6 139.45 552.0 135.1 553.4 130.75 553.4 125.3 553.4 119.7 550.25 108.1 L547.0 97.5 Q547.0 94.0 548.85 88.95 550.6 83.9 550.6 81.9 550.6 80.0 548.1 74.9 545.85 70.35 544.0 67.9 538.05 60.3 530.25 64.7 527.9 66.1 525.45 68.6 L523.5 70.75 Q515.45 70.75 511.35 72.1 505.85 74.0 493.7 75.0 L491.5 72.6 Q489.25 70.75 485.75 70.75 480.5 70.75 474.15 73.65 467.85 76.55 466.55 76.55 465.2 76.55 462.3 72.85 459.4 69.2 455.85 69.2 450.7 69.2 443.15 77.3 L441.3 77.2 Q442.3 75.0 442.3 74.15 442.3 68.6 439.85 67.9 437.75 67.3 434.5 70.25 L433.15 71.6 Q427.85 66.95 419.4 66.95 404.5 66.95 388.0 70.5 L371.35 74.1 Q365.85 74.1 351.35 68.45 336.6 62.3 333.55 61.35 308.7 61.65 298.95 66.05 293.75 68.35 291.1 68.95 285.45 70.2 274.65 70.2 L251.45 69.3 243.65 68.7 Q242.65 68.9 241.05 71.55 L240.1 73.1 238.6 73.8 236.65 73.8 214.35 74.65 205.95 71.95 Q206.7 71.5 207.5 71.0 L208.15 70.65 204.85 71.6 M239.65 73.8 L239.6 73.8 238.6 73.8 239.65 73.8 M61.6 112.0 L61.65 111.65 61.6 112.3 61.6 112.0 M308.65 421.2 L307.1 421.3 308.65 421.3 308.65 421.2 M219.3 428.95 L218.6 429.05 217.25 430.45 218.6 429.45 219.3 428.95 M512.5 418.0 L531.05 420.05 522.95 418.75 512.3 416.7 512.5 418.0 M488.75 415.6 L508.65 415.8 483.9 414.25 488.75 415.6" fill="#d5b67e" fill-rule="evenodd" stroke="none"/>
    <path d="M334.45 391.25 Q335.95 392.2 338.3 392.2 L353.7 388.9 361.8 389.25 Q357.45 390.75 351.85 392.15 340.8 394.95 332.65 394.95 L328.05 394.8 324.45 394.45 Q329.0 393.35 334.45 391.25" fill="#bf8b38" fill-opacity="0.1882353" fill-rule="evenodd" stroke="none"/>
    <path d="M535.15 22.1 Q560.85 23.25 582.15 26.2 L588.5 27.1 588.95 27.15 588.7 30.15 586.25 76.15 Q585.0 126.4 589.9 180.6 L590.0 182.0 590.1 183.3 592.9 220.35 593.1 224.15 592.65 224.25 585.1 225.55 584.8 225.6 Q576.45 227.15 568.15 227.6 L563.6 227.6 563.15 227.8 566.45 228.3 Q574.55 229.0 593.55 226.25 L594.9 250.35 597.25 301.3 Q600.25 381.55 598.65 456.85 L598.5 461.6 Q519.2 449.9 423.7 449.9 L398.0 450.1 281.75 459.9 281.7 459.9 Q232.3 463.7 187.65 463.7 108.05 463.7 43.65 451.75 L42.85 451.6 42.05 451.45 41.25 451.3 40.45 451.15 39.65 451.0 38.85 450.85 38.05 450.7 37.25 450.55 36.45 450.4 35.65 450.25 34.85 450.05 41.55 235.85 45.95 233.2 41.6 231.1 41.6 123.8 41.65 118.85 41.65 118.4 47.1 115.15 Q41.05 116.8 41.65 107.95 L41.8 27.95 Q212.9 40.35 351.85 27.85 L381.45 26.0 Q464.2 19.6 524.25 21.6 L530.55 21.8 Q529.95 22.75 529.1 25.45 528.3 28.0 529.85 38.3 L529.85 38.4 529.95 37.25 529.95 36.9 530.4 27.5 531.2 21.9 531.4 21.9 531.45 21.9 531.7 21.95 535.15 22.1 M572.5 69.85 Q569.2 65.3 569.2 64.8 569.2 63.75 570.05 59.9 L570.9 55.0 Q570.9 38.15 561.05 37.2 552.25 36.25 534.9 44.6 530.05 68.55 527.75 62.1 524.8 47.7 522.2 44.35 519.55 41.0 516.3 45.7 513.05 50.4 508.65 51.35 L503.25 52.3 495.8 49.2 Q488.35 46.05 481.25 46.05 L474.4 46.4 Q468.3 46.7 463.8 63.95 459.65 49.2 459.95 44.45 460.25 39.7 454.75 38.95 449.25 38.25 433.25 45.1 417.3 51.9 415.25 51.9 413.75 51.9 406.0 49.0 398.3 46.05 388.8 46.05 375.3 45.4 369.45 45.55 359.9 45.75 349.5 49.9 342.5 52.8 326.2 55.15 L311.15 56.85 309.6 54.5 Q307.7 52.1 303.75 52.1 295.4 52.1 282.2 61.85 281.1 61.3 279.6 61.05 L264.25 60.1 Q261.2 54.5 250.3 55.4 241.1 56.15 228.05 61.15 L224.0 62.8 Q223.5 55.4 214.45 55.75 206.65 56.05 193.55 61.9 L191.8 62.7 Q190.9 58.3 182.3 59.3 175.85 60.05 166.15 63.6 L164.8 62.7 159.85 59.95 Q159.6 48.85 143.6 55.7 L141.3 55.6 124.9 54.65 Q123.0 53.2 119.45 53.8 L110.1 52.1 Q105.85 51.4 104.5 52.5 103.1 53.7 103.1 58.5 L103.1 58.65 99.8 59.35 Q99.4 54.35 95.3 53.9 94.45 53.35 93.4 52.8 88.85 50.5 82.95 49.7 77.35 49.05 73.5 50.25 L70.2 50.55 Q65.85 51.45 62.85 54.25 59.5 57.4 59.5 61.65 L62.55 70.75 60.65 77.15 Q57.85 86.9 57.85 88.95 L57.05 99.35 Q57.05 102.35 59.1 104.1 61.8 106.4 67.3 105.4 L64.65 113.35 Q64.45 114.1 64.45 118.4 L64.65 123.0 Q65.05 124.45 65.75 125.45 63.95 128.85 62.4 133.05 58.65 143.7 58.65 156.7 58.65 162.85 62.8 170.0 66.45 176.4 66.9 177.6 L66.75 178.65 63.2 187.8 Q59.5 198.35 59.5 205.1 L60.3 208.55 Q61.25 212.4 62.45 215.7 L61.8 215.95 Q57.95 217.7 58.2 223.5 L58.65 228.2 Q59.0 230.9 58.65 232.2 L55.35 248.85 Q53.75 258.2 53.75 264.7 53.75 271.75 57.55 279.65 63.15 291.2 64.45 295.25 L64.45 308.15 61.25 326.5 55.75 357.8 50.9 386.75 Q46.35 414.6 46.35 420.55 46.35 430.85 58.8 437.5 70.85 444.0 100.2 449.9 L126.5 449.9 Q139.8 446.85 162.35 440.8 L163.15 444.05 Q164.8 447.3 168.85 447.3 L183.8 435.25 185.65 434.85 Q181.2 438.95 181.2 439.9 L182.0 443.15 Q183.65 446.45 187.8 446.45 191.15 446.45 204.1 437.35 205.6 438.65 207.9 438.65 208.6 438.65 210.0 437.5 L210.85 440.55 Q212.6 443.85 217.4 443.85 221.55 443.85 226.85 440.5 228.45 442.95 231.75 442.95 239.95 442.95 255.6 432.6 L257.15 431.6 Q257.45 432.65 258.05 433.45 261.1 436.9 270.4 436.9 L280.6 436.3 Q287.05 435.5 288.65 434.5 L309.7 434.5 310.3 436.25 Q311.9 439.5 315.6 439.5 319.4 439.5 322.35 436.5 L324.0 434.5 327.75 434.5 Q350.0 437.8 371.75 427.1 L371.85 427.55 Q373.55 430.85 377.7 430.85 L379.85 430.65 Q381.85 432.55 385.55 432.55 389.25 432.55 392.45 429.55 L395.45 426.55 Q396.95 427.35 399.1 427.35 400.35 427.35 402.8 426.15 L402.8 426.2 Q405.15 429.95 414.2 429.95 L421.0 429.6 423.65 429.95 425.2 428.85 Q427.7 428.1 429.25 427.05 431.65 425.3 431.9 422.3 L432.95 422.45 Q431.9 424.45 431.9 425.75 431.9 427.7 432.75 429.35 434.3 432.55 438.45 432.55 440.4 432.55 446.5 424.55 L446.9 424.1 450.4 424.5 Q452.1 425.65 454.85 425.65 L453.3 427.45 Q453.3 429.4 454.1 431.05 455.8 434.3 460.25 434.3 463.9 434.3 472.8 427.2 L475.4 427.5 475.3 427.9 Q475.35 429.15 476.3 430.15 479.2 433.45 489.45 433.45 L498.9 432.8 515.7 432.0 519.8 432.4 Q520.95 433.6 521.65 433.8 L528.9 434.3 Q533.15 434.3 535.55 433.4 L542.5 432.8 546.95 435.25 Q554.15 438.65 559.35 438.65 563.6 438.65 571.7 423.7 579.1 409.95 579.1 407.05 579.1 402.9 576.25 399.9 573.35 396.85 573.35 394.05 573.35 393.2 578.25 382.15 583.2 371.0 583.2 363.3 583.2 358.5 579.55 347.25 575.75 336.0 575.75 329.4 575.75 322.05 574.95 311.15 574.15 300.25 574.15 295.4 577.45 278.75 577.45 276.05 577.45 273.2 575.3 271.3 573.35 269.5 570.75 269.45 569.2 269.45 568.0 270.05 571.7 263.3 571.7 261.45 571.7 254.3 568.75 254.1 573.35 248.9 573.35 247.55 573.35 242.25 571.35 240.75 L572.35 239.7 Q560.3 229.6 553.2 224.4 567.7 221.0 570.4 215.5 L574.4 206.6 Q577.45 202.2 577.45 201.1 577.45 194.9 575.55 192.95 574.35 190.7 571.9 192.3 570.15 192.8 567.95 194.5 578.25 183.25 578.25 179.45 578.25 163.65 566.95 173.35 L567.75 171.3 Q569.2 168.0 569.2 165.2 569.2 162.95 568.25 160.3 578.25 146.05 578.25 144.4 578.25 136.2 575.4 135.2 L576.65 132.25 Q576.65 119.3 567.6 127.2 568.9 122.45 569.2 117.9 576.65 107.55 576.65 105.4 576.65 95.25 571.25 97.8 L572.2 94.3 Q575.75 82.35 575.75 77.15 575.75 74.45 572.5 69.85 M529.25 41.45 L528.2 43.1 Q528.85 42.95 529.25 41.45 M61.6 112.0 L61.25 114.0 61.5 113.25 61.6 112.4 61.6 112.3 61.65 111.65 61.6 112.0" fill="#c79f5d" fill-rule="evenodd" stroke="none"/>
    <path d="M204.85 71.6 L208.15 70.65 207.5 71.0 Q206.7 71.5 205.95 71.95 202.05 74.3 200.3 76.0 L194.05 76.0 Q199.95 73.1 204.85 71.6 M238.6 73.8 L240.1 73.1 241.45 72.45 241.0 73.15 240.9 73.75 239.65 73.8 238.6 73.8 M554.4 313.6 Q555.2 317.35 555.2 318.25 L555.1 319.6 554.4 313.6 M219.3 428.95 L218.6 429.45 217.25 430.45 218.6 429.05 219.3 428.95 M308.65 421.2 L308.65 421.3 307.1 421.3 308.65 421.2 M512.5 418.0 L512.3 416.7 522.95 418.75 531.05 420.05 512.5 418.0" fill="#b68435" fill-opacity="0.4509804" fill-rule="evenodd" stroke="none"/>
  </g>
</svg>
