<?xml version="1.0" encoding="UTF-8" standalone="no"?>
<svg xmlns:ffdec="https://www.free-decompiler.com/flash" xmlns:xlink="http://www.w3.org/1999/xlink" ffdec:objectType="shape" height="416.85px" width="444.4px" xmlns="http://www.w3.org/2000/svg">
  <g transform="matrix(1.0, 0.0, 0.0, 1.0, 0.0, 0.0)">
    <path d="M121.25 181.0 L121.25 172.95 179.95 158.1 Q183.45 161.35 179.75 166.3 L179.2 166.45 121.25 181.0 M171.6 159.2 L178.35 157.4 179.0 157.4 171.6 159.2 M179.95 167.15 Q183.45 170.4 179.75 175.35 L179.4 175.45 121.25 190.05 121.25 182.0 179.95 167.15 M179.95 176.0 Q183.45 179.25 179.75 184.2 L179.25 184.35 121.25 198.9 121.25 190.85 179.95 176.0 M179.95 185.0 Q183.45 188.25 179.75 193.2 L179.35 193.3 121.25 207.9 121.25 199.85 179.95 185.0 M179.95 193.9 Q183.45 197.15 179.75 202.1 L179.25 202.25 121.25 216.8 121.25 208.75 179.95 193.9 M179.95 202.9 Q183.45 206.15 179.75 211.1 L121.25 225.8 121.25 217.75 179.95 202.9" fill="#4d1e0b" fill-rule="evenodd" stroke="none"/>
    <path d="M121.25 182.0 L121.25 181.0 179.2 166.45 179.8 167.05 179.95 167.15 121.25 182.0 M121.25 172.95 L121.25 171.95 171.6 159.2 179.0 157.4 179.2 157.35 179.8 158.0 179.95 158.1 121.25 172.95 M179.4 175.45 L179.8 175.9 179.95 176.0 121.25 190.85 121.25 190.05 179.4 175.45 M179.25 184.35 L179.8 184.9 179.95 185.0 121.25 199.85 121.25 198.9 179.25 184.35 M179.35 193.3 L179.8 193.8 179.95 193.9 121.25 208.75 121.25 207.9 179.35 193.3 M179.25 202.25 L179.8 202.8 179.95 202.9 121.25 217.75 121.25 216.8 179.25 202.25" fill="#381405" fill-rule="evenodd" stroke="none"/>
    <path d="M123.95 218.6 Q123.05 217.15 121.85 217.05 120.7 216.95 119.8 218.25 118.95 219.55 118.95 221.5 118.95 223.45 119.8 224.95 120.7 226.35 121.85 226.45 123.05 226.55 123.95 225.3 124.8 223.95 124.8 222.0 124.8 220.05 123.95 218.6" fill="#72361d" fill-rule="evenodd" stroke="none"/>
    <path d="M128.85 213.9 L128.25 304.1 116.35 303.45 116.95 213.25 128.85 213.9" fill="#431908" fill-rule="evenodd" stroke="none"/>
    <path d="M123.95 209.6 Q123.05 208.15 121.85 208.05 120.7 207.95 119.8 209.25 118.95 210.55 118.95 212.5 118.95 214.45 119.8 215.95 120.7 217.35 121.85 217.45 123.05 217.55 123.95 216.3 124.8 214.95 124.8 213.0 124.8 211.05 123.95 209.6" fill="#72361d" fill-rule="evenodd" stroke="none"/>
    <path d="M123.95 200.7 Q123.05 199.25 121.85 199.15 120.7 199.05 119.8 200.35 118.95 201.65 118.95 203.6 118.95 205.55 119.8 207.05 120.7 208.45 121.85 208.55 123.05 208.65 123.95 207.4 124.8 206.05 124.8 204.1 124.8 202.15 123.95 200.7" fill="#72361d" fill-rule="evenodd" stroke="none"/>
    <path d="M123.95 191.7 Q123.05 190.25 121.85 190.15 120.7 190.05 119.8 191.35 118.95 192.65 118.95 194.6 118.95 196.55 119.8 198.05 120.7 199.45 121.85 199.55 123.05 199.65 123.95 198.4 124.8 197.05 124.8 195.1 124.8 193.15 123.95 191.7" fill="#72361d" fill-rule="evenodd" stroke="none"/>
    <path d="M123.95 182.85 Q123.05 181.4 121.85 181.3 120.7 181.2 119.8 182.5 118.95 183.8 118.95 185.75 118.95 187.7 119.8 189.2 120.7 190.6 121.85 190.7 123.05 190.8 123.95 189.55 124.8 188.2 124.8 186.25 124.8 184.3 123.95 182.85" fill="#72361d" fill-rule="evenodd" stroke="none"/>
    <path d="M123.95 173.8 Q123.05 172.35 121.85 172.25 120.7 172.15 119.8 173.45 118.95 174.75 118.95 176.7 118.95 178.65 119.8 180.15 120.7 181.55 121.85 181.65 123.05 181.75 123.95 180.5 124.8 179.15 124.8 177.2 124.8 175.25 123.95 173.8" fill="#72361d" fill-rule="evenodd" stroke="none"/>
    <path d="M319.2 350.05 Q319.8 330.0 341.25 325.8 L346.2 324.8 Q367.15 320.4 386.75 310.4 406.6 300.35 427.05 291.6 433.25 289.0 439.0 286.1 L439.55 286.15 440.75 286.5 441.5 286.85 441.25 305.4 Q440.95 315.8 441.3 326.1 441.65 336.35 443.55 346.3 445.45 356.5 443.15 366.6 L442.8 367.1 Q419.05 370.45 395.75 377.6 380.05 382.4 381.05 368.15 375.15 368.05 367.75 371.3 360.05 374.7 352.85 371.55 352.2 370.55 352.2 369.3 352.15 367.45 352.85 365.75 L354.45 362.25 356.5 358.3 357.1 356.95 357.1 356.55 356.95 356.1 356.7 355.65 356.5 355.25 356.2 354.8 355.65 354.35 Q337.9 355.0 321.1 351.2 320.05 350.95 319.2 350.05" fill="#ffb35f" fill-opacity="0.07058824" fill-rule="evenodd" stroke="none"/>
    <path d="M281.65 403.6 Q278.25 413.6 248.35 409.7 218.45 405.75 209.2 395.05 199.9 384.3 163.6 396.15 127.3 408.0 121.35 403.55 115.4 399.05 118.75 393.75 122.1 388.4 108.25 383.65 100.5 380.95 95.3 374.65 86.0 363.35 71.75 370.05 67.8 371.9 64.85 368.9 56.5 360.55 54.4 348.7 53.95 346.25 51.45 345.3 36.75 339.55 20.55 338.6 15.0 338.25 9.55 336.85 4.5 335.5 0.15 332.95 -0.25 330.55 0.6 328.35 1.85 325.15 4.05 322.55 L5.7 320.5 Q8.15 317.05 12.2 315.25 16.7 313.25 21.4 311.4 25.65 309.75 29.8 307.6 L30.5 307.4 34.5 307.45 Q35.7 307.5 36.65 308.15 37.9 309.05 38.7 310.4 L40.0 312.9 Q54.7 305.05 68.65 315.1 72.35 317.75 76.55 319.6 92.9 326.9 111.2 326.5 114.25 326.45 136.4 334.8 158.5 343.1 179.05 355.0 199.6 366.9 209.25 366.35 218.9 365.75 235.65 360.2 252.4 354.65 292.05 344.8 331.65 334.95 371.1 321.6 410.55 308.25 376.8 327.8 343.05 347.35 343.3 352.3 343.9 365.6 343.3 378.55 343.2 380.75 341.15 381.9 328.9 388.75 303.25 384.25 277.6 379.75 281.35 386.7 285.05 393.6 281.65 403.6" fill="#ffa33c" fill-opacity="0.07058824" fill-rule="evenodd" stroke="none"/>
    <path d="M220.55 276.55 L220.55 286.95 219.7 277.45 219.65 277.4 220.55 276.55 M218.25 364.25 Q214.55 367.25 209.6 365.15 L210.05 356.85 210.6 331.3 Q210.7 318.4 210.95 305.5 211.2 292.75 209.65 280.35 L209.5 280.15 209.2 279.95 209.0 279.9 208.35 279.9 Q209.85 279.9 211.55 278.9 213.75 279.6 215.55 280.8 216.65 279.45 217.6 279.05 L217.9 278.65 217.7 279.0 Q217.3 290.6 217.45 302.5 L217.6 328.5 217.7 354.75 217.85 364.55 218.25 364.25 M207.2 331.2 L207.2 304.85 207.35 316.6 207.2 331.2 M207.2 283.6 L207.2 279.75 208.3 279.9 208.05 280.0 207.8 280.2 207.2 283.6" fill="#461906" fill-rule="evenodd" stroke="none"/>
    <path d="M207.2 279.75 L207.2 278.8 213.4 265.25 220.55 276.55 219.65 277.4 218.15 277.35 218.15 277.4 218.15 277.5 217.9 278.65 217.6 279.05 Q216.65 279.45 215.55 280.8 213.75 279.6 211.55 278.9 209.85 279.9 208.35 279.9 L208.3 279.9 207.2 279.75" fill="#54220d" fill-rule="evenodd" stroke="none"/>
    <path d="M220.55 286.95 L220.55 361.65 218.25 364.25 217.85 364.55 217.7 354.75 217.6 328.5 217.45 302.5 Q217.3 290.6 217.7 279.0 L217.9 278.65 218.15 277.5 218.15 277.4 218.15 277.35 219.65 277.4 219.7 277.45 220.55 286.95 M209.6 365.15 L208.55 364.65 207.45 364.05 207.2 363.9 207.2 331.2 207.35 316.6 207.2 304.85 207.2 283.6 207.8 280.2 208.05 280.0 208.3 279.9 208.35 279.9 209.0 279.9 209.2 279.95 209.5 280.15 209.65 280.35 Q211.2 292.75 210.95 305.5 210.7 318.4 210.6 331.3 L210.05 356.85 209.6 365.15" fill="#3c1505" fill-rule="evenodd" stroke="none"/>
    <path d="M18.05 224.8 L18.05 224.0 25.05 215.05 30.9 223.9 36.05 218.4 41.7 228.05 46.7 221.85 52.85 231.0 58.05 224.65 64.25 233.85 69.75 228.15 75.8 238.2 81.1 231.85 87.65 241.3 93.35 235.55 99.7 245.85 105.85 238.65 113.05 248.85 118.8 242.25 125.7 252.15 131.85 246.25 138.65 256.95 144.6 250.35 151.95 260.5 158.3 254.45 165.5 265.5 172.4 257.95 180.05 268.4 186.8 262.3 194.0 273.25 201.25 265.05 212.7 279.5 Q211.15 280.55 208.9 279.25 208.5 280.65 208.0 280.7 206.35 280.65 204.6 281.6 201.75 279.5 198.2 277.85 L197.05 277.95 198.0 279.3 197.5 279.45 196.55 278.1 Q196.25 278.15 196.25 278.3 L196.1 279.3 196.45 279.4 194.25 278.2 Q193.85 279.45 193.4 279.35 L191.65 279.2 190.05 279.45 Q187.3 276.7 183.85 274.2 L183.45 274.15 183.45 272.95 183.3 272.85 Q181.85 273.8 179.7 272.35 L179.45 272.95 Q179.2 273.75 178.85 273.75 178.1 273.6 177.45 273.75 176.45 273.9 175.6 274.35 172.9 272.1 169.5 270.25 L168.5 270.2 169.0 270.95 Q167.55 271.6 165.5 269.9 165.1 271.15 164.65 271.05 L163.25 270.9 161.5 271.2 155.55 266.1 155.15 266.05 155.15 264.9 155.05 264.8 Q153.65 265.7 151.6 264.35 L151.4 264.9 150.8 265.65 149.4 265.75 Q148.5 265.85 147.7 266.3 145.25 264.2 142.3 262.5 L142.2 262.45 142.2 262.35 142.05 262.25 141.9 262.3 Q141.2 262.55 140.4 262.3 L140.25 262.25 138.65 261.25 138.45 261.9 137.9 262.45 135.9 262.3 134.85 262.55 Q132.3 259.95 129.15 257.65 L128.85 257.55 128.85 256.45 128.75 256.35 Q127.4 257.25 125.4 255.9 L125.2 256.45 124.65 257.2 123.35 257.3 Q122.5 257.4 121.7 257.9 119.25 255.75 116.15 253.95 L115.75 254.0 115.7 254.0 115.7 253.95 115.7 252.65 115.6 252.5 Q114.25 253.4 112.4 252.15 L111.85 253.35 111.65 253.45 Q111.0 253.3 110.45 253.45 109.55 253.55 108.75 254.05 106.35 251.95 103.35 250.25 L102.45 250.25 102.9 251.0 Q101.6 251.6 99.7 250.0 99.35 251.2 99.0 251.15 L97.75 251.0 Q96.9 250.9 96.15 251.3 93.8 248.8 90.85 246.6 L90.55 246.55 90.55 245.45 90.45 245.35 87.95 245.3 87.5 245.05 87.35 244.95 87.2 245.35 87.15 245.5 86.65 246.25 86.45 246.25 85.4 246.35 Q84.6 246.45 83.9 246.9 81.65 244.9 78.95 243.35 L78.95 243.25 78.85 243.2 Q78.75 243.15 78.7 243.25 L77.2 243.2 75.8 242.25 75.55 242.9 75.15 243.35 73.4 243.3 72.4 243.55 Q70.15 241.15 67.35 239.0 L67.05 238.95 67.05 237.85 66.95 237.8 Q65.7 238.65 64.0 237.45 L63.8 237.95 63.45 238.6 63.15 237.95 62.85 238.1 62.85 238.65 63.1 238.65 62.1 238.75 Q61.35 238.9 60.65 239.35 58.45 237.35 55.75 235.75 L55.55 235.75 55.55 234.9 55.45 234.85 Q54.3 235.7 52.55 234.5 L52.2 235.35 51.85 235.75 50.6 235.85 Q49.9 235.95 49.25 236.4 47.15 234.45 44.65 233.0 L44.65 232.9 44.55 232.85 Q44.45 232.8 44.45 232.9 L43.05 232.85 41.7 231.95 41.5 232.6 41.1 233.1 39.45 232.95 38.5 233.25 Q36.4 230.9 33.8 228.9 L33.5 228.8 33.5 227.8 33.4 227.7 32.9 228.0 31.4 227.85 30.65 227.4 30.45 227.9 30.0 228.6 28.9 228.7 Q28.15 228.8 27.45 229.25 25.4 227.35 22.85 225.85 20.25 226.0 18.05 224.8" fill="#54220d" fill-rule="evenodd" stroke="none"/>
    <path d="M212.7 279.5 L212.85 279.55 212.7 365.05 Q210.5 366.1 207.85 366.1 L208.35 360.55 Q209.6 347.55 209.25 334.3 L208.5 308.05 Q208.1 294.6 205.15 282.35 L205.0 282.45 Q203.1 294.45 204.25 307.1 205.45 320.0 205.85 333.05 206.25 346.2 204.55 359.0 L203.9 365.5 Q202.05 365.0 200.1 364.15 L198.0 363.1 198.0 363.8 197.3 363.95 Q197.25 352.2 197.7 340.55 198.3 326.35 198.25 311.95 198.2 297.8 196.55 284.05 L196.4 283.85 196.1 283.65 195.75 283.45 195.75 283.5 195.35 283.65 Q195.15 283.7 195.05 283.85 L194.85 284.05 Q193.95 297.55 194.45 311.3 194.95 325.5 194.3 339.45 193.7 351.55 193.5 363.7 L193.9 363.8 Q190.25 363.05 185.65 359.95 L183.55 358.35 183.7 350.8 183.45 325.7 Q183.3 313.15 183.65 300.6 183.95 288.35 182.05 276.65 L182.1 276.4 182.15 276.2 182.2 275.95 182.2 275.75 182.2 275.55 182.15 275.3 182.05 275.1 181.9 274.9 181.55 274.65 181.1 274.45 180.55 274.3 180.55 274.35 180.1 274.4 179.85 274.55 179.55 274.75 179.3 274.95 179.15 275.15 Q179.8 287.4 179.75 300.05 L179.75 325.15 179.4 350.2 179.25 357.05 Q175.7 356.9 171.3 354.55 L169.0 353.25 169.0 353.4 168.35 353.55 168.5 351.0 Q169.45 337.8 169.45 324.4 L169.3 297.55 Q169.15 284.5 167.15 271.85 L166.95 271.6 166.65 271.45 166.1 271.25 166.05 271.3 165.65 271.35 165.35 271.5 165.1 271.7 164.9 271.9 Q164.45 277.85 164.8 283.9 165.7 297.05 165.8 310.3 165.95 323.65 165.45 336.9 L164.5 353.35 165.4 353.55 Q162.2 353.0 158.25 350.4 L158.45 337.85 Q158.65 323.2 159.1 308.6 159.55 293.95 160.6 279.4 161.05 272.95 157.65 268.75 L157.65 268.8 157.3 268.9 156.95 269.0 156.7 269.2 Q157.0 283.0 156.25 297.15 155.45 311.55 155.3 325.95 155.15 336.85 154.6 347.65 L153.5 346.8 Q149.35 347.7 143.55 344.65 L142.0 343.7 Q142.4 324.2 142.95 304.7 143.55 283.45 142.3 262.5 145.25 264.2 147.7 266.3 148.5 265.85 149.4 265.75 L150.8 265.65 151.4 264.9 151.6 264.35 Q153.65 265.7 155.05 264.8 L155.15 264.9 155.15 266.05 155.55 266.1 161.5 271.2 163.25 270.9 164.65 271.05 Q165.1 271.15 165.5 269.9 167.55 271.6 169.0 270.95 L168.5 270.2 169.5 270.25 Q172.9 272.1 175.6 274.35 176.45 273.9 177.45 273.75 178.1 273.6 178.85 273.75 179.2 273.75 179.45 272.95 L179.7 272.35 Q181.85 273.8 183.3 272.85 L183.45 272.95 183.45 274.15 183.85 274.2 Q187.3 276.7 190.05 279.45 L191.65 279.2 193.4 279.35 Q193.85 279.45 194.25 278.2 L196.45 279.4 196.6 279.45 197.0 279.5 197.5 279.45 198.0 279.3 197.05 277.95 198.2 277.85 Q201.75 279.5 204.6 281.6 206.35 280.65 208.0 280.7 208.5 280.65 208.9 279.25 211.15 280.55 212.7 279.5 M138.1 342.85 Q134.85 342.15 130.8 339.3 L129.25 338.15 129.95 338.65 131.25 318.9 132.0 302.75 Q132.6 281.3 131.6 260.2 L131.45 260.0 131.15 259.8 130.75 259.65 130.3 259.55 130.3 259.6 129.85 259.65 129.7 259.7 129.45 259.85 129.2 260.05 Q128.05 269.05 128.3 278.35 128.6 287.55 128.1 296.65 L126.0 336.7 Q122.45 337.0 117.75 334.5 L113.75 331.85 Q109.9 332.55 104.85 329.8 L102.9 328.6 102.9 328.8 102.45 328.9 102.85 328.8 Q103.0 322.2 103.3 315.6 103.9 302.75 103.8 289.85 L103.8 264.1 Q103.85 257.1 101.5 251.55 L101.2 251.8 Q99.65 263.45 100.05 275.75 100.5 288.6 100.25 301.5 100.05 314.4 99.0 327.2 L98.9 328.8 Q95.95 328.1 92.4 325.5 L91.45 324.8 91.6 324.85 91.45 315.75 90.75 287.4 Q90.2 273.25 90.0 259.05 89.9 255.4 90.1 251.85 90.3 247.95 88.4 245.55 L87.95 245.3 90.45 245.35 90.55 245.45 90.55 246.55 90.85 246.6 Q93.8 248.8 96.15 251.3 96.9 250.9 97.75 251.0 L99.0 251.15 Q99.35 251.2 99.7 250.0 101.6 251.6 102.9 251.0 L102.45 250.25 103.35 250.25 Q106.35 251.95 108.75 254.05 109.55 253.55 110.45 253.45 111.0 253.3 111.65 253.45 L111.85 253.35 112.4 252.15 Q114.25 253.4 115.6 252.5 L115.7 252.65 115.7 253.95 115.2 253.45 Q114.65 253.5 114.55 253.9 112.25 262.15 112.6 271.25 112.95 280.85 112.9 290.45 L112.6 309.65 Q112.35 319.35 114.9 327.65 116.85 320.85 116.6 312.9 116.25 303.3 116.25 293.7 L116.15 274.5 Q116.05 267.25 117.05 260.2 117.65 256.2 115.75 254.0 L116.15 253.95 Q119.25 255.75 121.7 257.9 122.5 257.4 123.35 257.3 L124.65 257.2 125.2 256.45 125.4 255.9 Q127.4 257.25 128.75 256.35 L128.85 256.45 128.85 257.55 129.15 257.65 Q132.3 259.95 134.85 262.55 L135.9 262.3 137.9 262.45 138.45 261.9 138.65 261.25 140.25 262.25 140.4 262.3 139.45 304.25 138.1 342.85 M88.5 322.9 Q84.95 323.55 80.2 321.0 L77.8 319.5 Q76.05 319.75 73.95 319.05 L74.4 312.15 75.4 289.45 76.5 266.75 Q77.15 255.1 75.05 244.35 73.55 249.8 73.4 256.3 L72.6 278.95 71.15 301.65 69.9 316.95 68.85 316.2 65.6 313.55 64.05 313.8 Q64.7 309.4 65.0 304.85 L66.4 283.45 Q67.2 272.7 67.1 261.9 67.05 251.25 66.5 240.7 L66.35 240.55 66.1 240.3 65.75 240.15 Q65.55 240.2 65.5 240.3 64.3 250.05 64.25 260.15 64.15 270.75 63.4 281.25 L61.75 302.65 60.85 313.4 61.55 313.6 Q59.5 313.15 57.1 311.85 L56.05 311.25 56.25 302.45 56.15 280.0 Q56.0 268.75 56.45 257.55 56.95 245.95 54.7 235.55 53.6 236.0 53.55 237.35 L52.85 260.05 Q52.6 271.45 52.7 282.95 52.8 294.35 52.5 305.65 L52.35 310.05 Q49.45 310.1 45.85 308.15 L45.15 307.7 45.35 300.35 45.05 278.1 Q44.75 266.95 44.85 255.85 44.9 244.45 42.8 234.1 40.85 240.45 40.95 248.05 L41.35 270.95 Q41.65 282.4 41.5 293.9 L41.05 306.65 Q38.4 306.05 35.15 303.65 L34.25 302.95 Q35.35 295.7 35.35 288.0 L35.35 267.7 35.15 247.4 Q34.9 237.45 32.9 228.0 L33.4 227.7 33.5 227.8 33.5 228.8 33.8 228.9 Q36.4 230.9 38.5 233.25 L39.45 232.95 41.1 233.1 41.5 232.6 41.7 231.95 43.05 232.85 44.45 232.9 Q44.45 232.8 44.55 232.85 L44.65 232.9 44.65 233.0 Q47.15 234.45 49.25 236.4 49.9 235.95 50.6 235.85 L51.85 235.75 52.2 235.35 52.55 234.5 Q54.3 235.7 55.45 234.85 L55.55 234.9 55.55 235.75 55.75 235.75 Q58.45 237.35 60.65 239.35 61.35 238.9 62.1 238.75 L63.1 238.65 63.3 238.7 63.45 238.6 63.8 237.95 64.0 237.45 Q65.7 238.65 66.95 237.8 L67.05 237.85 67.05 238.95 67.35 239.0 Q70.15 241.15 72.4 243.55 L73.4 243.3 75.15 243.35 75.55 242.9 75.8 242.25 77.2 243.2 78.7 243.25 Q78.75 243.15 78.85 243.2 L78.95 243.25 78.95 243.35 Q81.65 244.9 83.9 246.9 84.6 246.45 85.4 246.35 L86.45 246.25 Q86.35 259.45 86.8 272.85 L87.7 300.55 88.15 322.95 88.5 322.9 M30.2 301.4 Q27.5 301.4 24.2 299.55 21.3 297.95 18.05 295.0 L18.05 224.8 Q20.25 226.0 22.85 225.85 25.4 227.35 27.45 229.25 28.15 228.8 28.9 228.7 L30.0 228.6 30.45 227.9 30.65 227.4 31.4 227.85 31.25 227.95 31.0 228.15 30.8 228.35 30.75 228.8 31.45 249.3 Q31.8 259.6 31.8 270.05 31.85 280.35 31.4 290.55 31.2 295.65 30.3 300.7 L30.2 301.4 M87.2 245.35 L87.35 244.95 87.5 245.05 87.4 245.05 87.35 245.05 87.2 245.35 M117.85 258.1 Q117.5 258.05 117.55 258.4 L117.65 258.75 117.9 258.8 118.0 258.55 117.85 258.1" fill="#461906" fill-rule="evenodd" stroke="none"/>
    <path d="M207.85 366.1 L206.05 365.95 203.9 365.5 204.55 359.0 Q206.25 346.2 205.85 333.05 205.45 320.0 204.25 307.1 203.1 294.45 205.0 282.45 L205.15 282.35 Q208.1 294.6 208.5 308.05 L209.25 334.3 Q209.6 347.55 208.35 360.55 L207.85 366.1 M197.3 363.95 L195.2 364.0 194.7 363.95 194.55 363.95 193.9 363.8 193.5 363.7 Q193.7 351.55 194.3 339.45 194.95 325.5 194.45 311.3 193.95 297.55 194.85 284.05 L195.05 283.85 Q195.15 283.7 195.35 283.65 L195.75 283.5 195.75 283.45 196.1 283.65 196.4 283.85 196.55 284.05 Q198.2 297.8 198.25 311.95 198.3 326.35 197.7 340.55 197.25 352.2 197.3 363.95 M183.55 358.35 L182.75 357.7 182.0 357.05 181.75 356.85 179.25 357.05 179.4 350.2 179.75 325.15 179.75 300.05 Q179.8 287.4 179.15 275.15 L179.3 274.95 179.55 274.75 179.85 274.55 180.1 274.4 180.55 274.35 180.55 274.3 181.1 274.45 181.55 274.65 181.9 274.9 182.05 275.1 182.15 275.3 182.2 275.55 182.2 275.75 182.2 275.95 182.15 276.2 182.1 276.4 182.05 276.65 Q183.95 288.35 183.65 300.6 183.3 313.15 183.45 325.7 L183.7 350.8 183.55 358.35 M168.35 353.55 L167.9 353.6 165.4 353.55 164.5 353.35 165.45 336.9 Q165.95 323.65 165.8 310.3 165.7 297.05 164.8 283.9 164.45 277.85 164.9 271.9 L165.1 271.7 165.35 271.5 165.65 271.35 166.05 271.3 166.1 271.25 166.65 271.45 166.95 271.6 167.15 271.85 Q169.15 284.5 169.3 297.55 L169.45 324.4 Q169.45 337.8 168.5 351.0 L168.35 353.55 M158.25 350.4 L157.3 349.75 154.6 347.65 Q155.15 336.85 155.3 325.95 155.45 311.55 156.25 297.15 157.0 283.0 156.7 269.2 L156.95 269.0 157.3 268.9 157.65 268.8 157.65 268.75 Q161.05 272.95 160.6 279.4 159.55 293.95 159.1 308.6 158.65 323.2 158.45 337.85 L158.25 350.4 M142.0 343.7 L142.0 343.75 141.45 343.4 140.9 343.05 140.55 343.1 139.35 343.05 138.1 342.9 138.1 342.85 139.45 304.25 140.4 262.3 Q141.2 262.55 141.9 262.3 L142.05 262.25 142.2 262.35 142.2 262.45 142.3 262.5 Q143.55 283.45 142.95 304.7 142.4 324.2 142.0 343.7 M129.25 338.15 L127.25 336.5 126.0 336.7 128.1 296.65 Q128.6 287.55 128.3 278.35 128.05 269.05 129.2 260.05 L129.45 259.85 129.7 259.7 129.85 259.65 130.3 259.6 130.3 259.55 130.75 259.65 131.15 259.8 131.45 260.0 131.6 260.2 Q132.6 281.3 132.0 302.75 L131.25 318.9 129.95 338.65 129.25 338.15 M102.45 328.9 L98.9 328.8 99.0 327.2 Q100.05 314.4 100.25 301.5 100.5 288.6 100.05 275.75 99.65 263.45 101.2 251.8 L101.5 251.55 Q103.85 257.1 103.8 264.1 L103.8 289.85 Q103.9 302.75 103.3 315.6 103.0 322.2 102.85 328.8 L102.45 328.9 M91.45 324.8 L89.55 323.2 89.25 322.95 89.1 322.8 88.5 322.9 88.15 322.95 87.7 300.55 86.8 272.85 Q86.35 259.45 86.45 246.25 L86.65 246.25 87.15 245.5 87.2 245.35 87.35 245.05 87.4 245.05 87.5 245.05 87.95 245.3 88.4 245.55 Q90.3 247.95 90.1 251.85 89.9 255.4 90.0 259.05 90.2 273.25 90.75 287.4 L91.45 315.75 91.6 324.85 91.45 324.8 M73.95 319.05 Q72.05 318.35 69.9 316.95 L71.15 301.65 72.6 278.95 73.4 256.3 Q73.55 249.8 75.05 244.35 77.15 255.1 76.5 266.75 L75.4 289.45 74.4 312.15 73.95 319.05 M64.05 313.8 L61.55 313.6 60.85 313.4 61.75 302.65 63.4 281.25 Q64.15 270.75 64.25 260.15 64.3 250.05 65.5 240.3 65.55 240.2 65.75 240.15 L66.1 240.3 66.35 240.55 66.5 240.7 Q67.05 251.25 67.1 261.9 67.2 272.7 66.4 283.45 L65.0 304.85 Q64.7 309.4 64.05 313.8 M56.05 311.25 L54.0 309.85 52.35 310.05 52.5 305.65 Q52.8 294.35 52.7 282.95 52.6 271.45 52.85 260.05 L53.55 237.35 Q53.6 236.0 54.7 235.55 56.95 245.95 56.45 257.55 56.0 268.75 56.15 280.0 L56.25 302.45 56.05 311.25 M45.15 307.7 L44.1 307.05 43.75 306.85 43.6 306.75 43.0 306.8 41.05 306.65 41.5 293.9 Q41.65 282.4 41.35 270.95 L40.95 248.05 Q40.85 240.45 42.8 234.1 44.9 244.45 44.85 255.85 44.75 266.95 45.05 278.1 L45.35 300.35 45.15 307.7 M34.25 302.95 L32.15 301.1 30.2 301.4 30.3 300.7 Q31.2 295.65 31.4 290.55 31.85 280.35 31.8 270.05 31.8 259.6 31.45 249.3 L30.75 228.8 30.8 228.35 31.0 228.15 31.25 227.95 31.4 227.85 32.9 228.0 Q34.9 237.45 35.15 247.4 L35.35 267.7 35.35 288.0 Q35.35 295.7 34.25 302.95 M63.1 238.65 L62.85 238.65 62.85 238.1 63.15 237.95 63.45 238.6 63.3 238.7 63.1 238.65 M115.7 253.95 L115.7 254.0 115.75 254.0 Q117.65 256.2 117.05 260.2 116.05 267.25 116.15 274.5 L116.25 293.7 Q116.25 303.3 116.6 312.9 116.85 320.85 114.9 327.65 112.35 319.35 112.6 309.65 L112.9 290.45 Q112.95 280.85 112.6 271.25 112.25 262.15 114.55 253.9 114.65 253.5 115.2 253.45 L115.7 253.95 M196.45 279.4 L196.1 279.3 196.25 278.3 Q196.25 278.15 196.55 278.1 L197.5 279.45 197.0 279.5 196.6 279.45 196.45 279.4 M117.85 258.1 L118.0 258.55 117.9 258.8 117.65 258.75 117.55 258.4 Q117.5 258.05 117.85 258.1" fill="#3c1505" fill-rule="evenodd" stroke="none"/>
    <path d="M402.45 178.7 L403.2 270.25 413.65 272.05 412.9 180.5 402.45 178.7" fill="#431908" fill-rule="evenodd" stroke="none"/>
    <path d="M294.75 178.75 L294.4 269.15 304.95 270.0 305.3 179.6 294.75 178.75" fill="#431908" fill-rule="evenodd" stroke="none"/>
    <path d="M347.35 166.1 L347.35 158.05 288.65 143.2 Q285.15 146.45 288.85 151.4 L289.4 151.55 347.35 166.1 M297.0 144.3 L290.25 142.5 289.6 142.5 297.0 144.3 M288.65 152.25 Q285.15 155.5 288.85 160.45 L289.2 160.55 347.35 175.15 347.35 167.1 288.65 152.25 M288.65 161.1 Q285.15 164.35 288.85 169.3 L289.35 169.45 347.35 184.0 347.35 175.95 288.65 161.1 M288.65 170.1 Q285.15 173.35 288.85 178.3 L289.25 178.4 347.35 193.0 347.35 184.95 288.65 170.1 M288.65 179.0 Q285.15 182.25 288.85 187.2 L289.35 187.35 347.35 201.9 347.35 193.85 288.65 179.0 M288.65 188.0 Q285.15 191.25 288.85 196.2 L347.35 210.9 347.35 202.85 288.65 188.0" fill="#4d1e0b" fill-rule="evenodd" stroke="none"/>
    <path d="M347.35 167.1 L347.35 166.1 289.4 151.55 288.8 152.15 288.65 152.25 347.35 167.1 M347.35 158.05 L347.35 157.05 297.0 144.3 289.6 142.5 289.4 142.45 288.8 143.1 288.65 143.2 347.35 158.05 M289.2 160.55 L288.8 161.0 288.65 161.1 347.35 175.95 347.35 175.15 289.2 160.55 M289.35 169.45 L288.8 170.0 288.65 170.1 347.35 184.95 347.35 184.0 289.35 169.45 M289.25 178.4 L288.8 178.9 288.65 179.0 347.35 193.85 347.35 193.0 289.25 178.4 M289.35 187.35 L288.8 187.9 288.65 188.0 347.35 202.85 347.35 201.9 289.35 187.35" fill="#381405" fill-rule="evenodd" stroke="none"/>
    <path d="M344.65 203.7 Q345.55 202.25 346.75 202.15 347.9 202.05 348.8 203.35 349.65 204.65 349.65 206.6 349.65 208.55 348.8 210.05 347.9 211.45 346.75 211.55 345.55 211.65 344.65 210.4 343.8 209.05 343.8 207.1 343.8 205.15 344.65 203.7" fill="#72361d" fill-rule="evenodd" stroke="none"/>
    <path d="M339.75 199.0 L340.35 289.2 352.25 288.55 351.65 198.35 339.75 199.0" fill="#431908" fill-rule="evenodd" stroke="none"/>
    <path d="M344.65 194.7 Q345.55 193.25 346.75 193.15 347.9 193.05 348.8 194.35 349.65 195.65 349.65 197.6 349.65 199.55 348.8 201.05 347.9 202.45 346.75 202.55 345.55 202.65 344.65 201.4 343.8 200.05 343.8 198.1 343.8 196.15 344.65 194.7" fill="#72361d" fill-rule="evenodd" stroke="none"/>
    <path d="M344.65 185.8 Q345.55 184.35 346.75 184.25 347.9 184.15 348.8 185.45 349.65 186.75 349.65 188.7 349.65 190.65 348.8 192.15 347.9 193.55 346.75 193.65 345.55 193.75 344.65 192.5 343.8 191.15 343.8 189.2 343.8 187.25 344.65 185.8" fill="#72361d" fill-rule="evenodd" stroke="none"/>
    <path d="M344.65 176.8 Q345.55 175.35 346.75 175.25 347.9 175.15 348.8 176.45 349.65 177.75 349.65 179.7 349.65 181.65 348.8 183.15 347.9 184.55 346.75 184.65 345.55 184.75 344.65 183.5 343.8 182.15 343.8 180.2 343.8 178.25 344.65 176.8" fill="#72361d" fill-rule="evenodd" stroke="none"/>
    <path d="M344.65 167.95 Q345.55 166.5 346.75 166.4 347.9 166.3 348.8 167.6 349.65 168.9 349.65 170.85 349.65 172.8 348.8 174.3 347.9 175.7 346.75 175.8 345.55 175.9 344.65 174.65 343.8 173.3 343.8 171.35 343.8 169.4 344.65 167.95" fill="#72361d" fill-rule="evenodd" stroke="none"/>
    <path d="M344.65 158.9 Q345.55 157.45 346.75 157.35 347.9 157.25 348.8 158.55 349.65 159.85 349.65 161.8 349.65 163.75 348.8 165.25 347.9 166.65 346.75 166.75 345.55 166.85 344.65 165.6 343.8 164.25 343.8 162.3 343.8 160.35 344.65 158.9" fill="#72361d" fill-rule="evenodd" stroke="none"/>
    <path d="M418.75 184.2 L417.95 184.2 338.7 203.4 Q335.7 209.4 339.35 212.25 L419.5 193.1 Q424.0 187.55 418.75 184.2" fill="#4d1e0b" fill-rule="evenodd" stroke="none"/>
    <path d="M338.9 204.3 L419.7 184.9 418.85 184.15 338.05 203.55 338.9 204.3" fill="#381405" fill-rule="evenodd" stroke="none"/>
    <path d="M341.5 204.55 Q340.6 203.1 339.4 203.0 338.25 202.9 337.35 204.2 336.5 205.5 336.5 207.45 336.5 209.4 337.35 210.9 338.25 212.3 339.4 212.4 340.6 212.5 341.5 211.25 342.35 209.9 342.35 207.95 342.35 206.0 341.5 204.55" fill="#72361d" fill-rule="evenodd" stroke="none"/>
    <path d="M418.75 175.2 L417.95 175.2 338.7 194.4 Q335.7 200.4 339.35 203.25 L419.5 184.1 Q424.0 178.55 418.75 175.2" fill="#4d1e0b" fill-rule="evenodd" stroke="none"/>
    <path d="M338.9 195.3 L419.7 175.9 418.85 175.15 338.05 194.55 338.9 195.3" fill="#381405" fill-rule="evenodd" stroke="none"/>
    <path d="M341.5 195.55 Q340.6 194.1 339.4 194.0 338.25 193.9 337.35 195.2 336.5 196.5 336.5 198.45 336.5 200.4 337.35 201.9 338.25 203.3 339.4 203.4 340.6 203.5 341.5 202.25 342.35 200.9 342.35 198.95 342.35 197.0 341.5 195.55" fill="#72361d" fill-rule="evenodd" stroke="none"/>
    <path d="M418.75 166.3 L417.95 166.3 338.7 185.5 Q335.7 191.5 339.35 194.35 L419.5 175.2 Q424.0 169.65 418.75 166.3" fill="#4d1e0b" fill-rule="evenodd" stroke="none"/>
    <path d="M338.9 186.4 L419.7 167.0 418.85 166.25 338.05 185.65 338.9 186.4" fill="#381405" fill-rule="evenodd" stroke="none"/>
    <path d="M341.5 186.65 Q340.6 185.2 339.4 185.1 338.25 185.0 337.35 186.3 336.5 187.6 336.5 189.55 336.5 191.5 337.35 193.0 338.25 194.4 339.4 194.5 340.6 194.6 341.5 193.35 342.35 192.0 342.35 190.05 342.35 188.1 341.5 186.65" fill="#72361d" fill-rule="evenodd" stroke="none"/>
    <path d="M418.75 157.3 L417.95 157.3 338.7 176.5 Q335.7 182.5 339.35 185.35 L419.5 166.2 Q424.0 160.65 418.75 157.3" fill="#4d1e0b" fill-rule="evenodd" stroke="none"/>
    <path d="M338.9 177.4 L419.7 158.0 418.85 157.25 338.05 176.65 338.9 177.4" fill="#381405" fill-rule="evenodd" stroke="none"/>
    <path d="M341.5 177.65 Q340.6 176.2 339.4 176.1 338.25 176.0 337.35 177.3 336.5 178.6 336.5 180.55 336.5 182.5 337.35 184.0 338.25 185.4 339.4 185.5 340.6 185.6 341.5 184.35 342.35 183.0 342.35 181.05 342.35 179.1 341.5 177.65" fill="#72361d" fill-rule="evenodd" stroke="none"/>
    <path d="M418.75 148.45 L417.95 148.45 338.7 167.65 Q335.7 173.65 339.35 176.5 L419.5 157.35 Q424.0 151.8 418.75 148.45" fill="#4d1e0b" fill-rule="evenodd" stroke="none"/>
    <path d="M338.9 168.55 L419.7 149.15 418.85 148.4 338.05 167.8 338.9 168.55" fill="#381405" fill-rule="evenodd" stroke="none"/>
    <path d="M341.5 168.8 Q340.6 167.35 339.4 167.25 338.25 167.15 337.35 168.45 336.5 169.75 336.5 171.7 336.5 173.65 337.35 175.15 338.25 176.55 339.4 176.65 340.6 176.75 341.5 175.5 342.35 174.15 342.35 172.2 342.35 170.25 341.5 168.8" fill="#72361d" fill-rule="evenodd" stroke="none"/>
    <path d="M418.75 139.4 L417.95 139.4 338.7 158.6 Q335.7 164.6 339.35 167.45 L419.5 148.3 Q424.0 142.75 418.75 139.4" fill="#4d1e0b" fill-rule="evenodd" stroke="none"/>
    <path d="M389.9 153.05 L389.9 183.85 404.55 180.35 404.55 149.55 389.9 153.05" fill="#381405" fill-rule="evenodd" stroke="none"/>
    <path d="M410.0 142.4 L409.75 142.9 Q409.2 144.35 409.2 146.3 409.2 148.25 409.75 149.6 410.05 150.3 410.4 150.6 L410.55 150.7 Q410.25 150.9 410.0 151.45 L409.75 151.95 Q409.2 153.4 409.2 155.35 409.2 157.3 409.75 158.65 L410.35 159.6 410.45 159.65 410.0 160.3 409.75 160.8 Q409.2 162.25 409.2 164.2 409.2 166.15 409.75 167.5 L410.35 168.45 410.55 168.6 410.0 169.3 409.75 169.8 Q409.2 171.25 409.2 173.2 409.2 175.15 409.75 176.5 L410.35 177.5 410.45 177.55 410.0 178.2 409.75 178.7 Q409.2 180.15 409.2 182.1 409.2 184.05 409.75 185.4 L410.35 186.35 410.55 186.5 410.0 187.2 409.75 187.7 Q409.2 189.15 409.2 191.1 409.2 193.05 409.75 194.4 410.05 195.1 410.4 195.4 L411.4 195.55 412.05 194.9 413.05 195.8 416.45 196.25 Q416.9 196.7 417.45 196.55 418.2 196.3 418.75 194.75 419.3 193.15 419.3 191.2 419.3 189.25 418.75 188.05 L418.0 187.2 418.75 185.75 Q419.3 184.15 419.3 182.2 419.3 180.25 418.75 179.05 L418.05 178.2 418.75 176.85 Q419.3 175.25 419.3 173.3 419.3 171.35 418.75 170.15 L418.0 169.3 418.75 167.85 Q419.3 166.25 419.3 164.3 419.3 162.35 418.75 161.15 L418.1 160.3 418.75 159.0 Q419.3 157.4 419.3 155.45 419.3 153.5 418.75 152.3 418.4 151.55 417.95 151.4 L418.75 149.95 Q419.3 148.35 419.3 146.4 419.3 144.45 418.75 143.25 418.2 142.1 417.45 142.35 L417.15 142.5 410.7 141.55 Q410.3 141.8 410.0 142.4" fill="#381405" fill-rule="evenodd" stroke="none"/>
    <path d="M338.9 159.5 L419.7 140.1 418.85 139.35 338.05 158.75 338.9 159.5" fill="#381405" fill-rule="evenodd" stroke="none"/>
    <path d="M346.9 158.3 L346.55 158.75 Q345.7 160.05 345.7 162.0 345.7 163.95 346.55 165.45 L347.55 166.55 347.8 166.7 346.9 167.35 346.55 167.8 Q345.7 169.1 345.7 171.05 345.7 173.0 346.55 174.5 L347.45 175.55 347.6 175.65 346.9 176.2 346.55 176.65 Q345.7 177.95 345.7 179.9 345.7 181.85 346.55 183.35 L347.45 184.4 347.75 184.6 Q347.3 184.75 346.9 185.2 L346.55 185.65 Q345.7 186.95 345.7 188.9 345.7 190.85 346.55 192.35 L347.5 193.45 347.65 193.55 Q347.25 193.7 346.9 194.1 L346.55 194.55 Q345.7 195.85 345.7 197.8 345.7 199.75 346.55 201.25 L347.45 202.3 347.75 202.5 Q347.3 202.65 346.9 203.1 L346.55 203.55 Q345.7 204.85 345.7 206.8 345.7 208.75 346.55 210.25 L347.55 211.35 349.1 211.75 350.15 211.25 351.65 212.35 356.95 213.6 Q357.65 214.15 358.5 214.1 359.65 214.0 360.55 212.6 361.4 211.1 361.4 209.15 361.4 207.2 360.55 205.9 360.0 205.1 359.35 204.85 L360.55 203.6 Q361.4 202.1 361.4 200.15 361.4 198.2 360.55 196.9 360.05 196.15 359.45 195.9 L360.55 194.7 Q361.4 193.2 361.4 191.25 361.4 189.3 360.55 188.0 360.0 187.2 359.35 186.95 L360.55 185.7 Q361.4 184.2 361.4 182.25 361.4 180.3 360.55 179.0 L359.5 178.0 360.55 176.85 Q361.4 175.35 361.4 173.4 361.4 171.45 360.55 170.15 359.95 169.3 359.3 169.05 L360.55 167.8 Q361.4 166.3 361.4 164.35 361.4 162.4 360.55 161.1 359.65 159.8 358.5 159.9 L358.0 160.0 348.0 157.6 Q347.4 157.75 346.9 158.3" fill="#381405" fill-rule="evenodd" stroke="none"/>
    <path d="M341.5 159.75 Q340.6 158.3 339.4 158.2 338.25 158.1 337.35 159.4 336.5 160.7 336.5 162.65 336.5 164.6 337.35 166.1 338.25 167.5 339.4 167.6 340.6 167.7 341.5 166.45 342.35 165.1 342.35 163.15 342.35 161.2 341.5 159.75" fill="#72361d" fill-rule="evenodd" stroke="none"/>
    <path d="M348.85 166.55 L349.1 166.7 348.2 167.35 358.25 169.75 358.95 169.2 358.3 168.8 358.25 168.8 348.85 166.55 M348.75 175.55 L348.9 175.65 348.2 176.2 358.25 178.6 358.75 178.15 358.25 177.8 348.75 175.55 M348.75 184.4 L349.05 184.6 348.2 185.2 358.25 187.6 Q358.55 187.25 358.9 187.1 L358.2 186.65 348.75 184.4 M348.8 193.45 L348.95 193.55 348.2 194.1 358.25 196.5 Q358.5 196.2 358.8 196.05 L358.25 195.7 348.8 193.45 M348.75 202.3 L349.05 202.5 348.2 203.1 358.25 205.5 Q358.55 205.15 358.9 205.0 L358.2 204.55 348.75 202.3 M359.3 160.0 L349.3 157.6 Q348.7 157.75 348.2 158.3 L358.25 160.7 Q358.75 160.2 359.3 160.0" fill="#381405" fill-rule="evenodd" stroke="none"/>
    <path d="M348.2 167.35 L347.85 167.8 Q347.0 169.1 347.0 171.05 347.0 173.0 347.85 174.5 L348.75 175.55 358.25 177.8 357.7 177.2 Q356.85 175.85 356.85 173.9 356.85 171.95 357.7 170.5 L358.25 169.75 348.2 167.35 M348.2 176.2 L347.85 176.65 Q347.0 177.95 347.0 179.9 347.0 181.85 347.85 183.35 L348.75 184.4 358.2 186.65 357.7 186.05 Q356.85 184.7 356.85 182.75 356.85 180.8 357.7 179.35 L358.25 178.6 348.2 176.2 M348.2 185.2 L347.85 185.65 Q347.0 186.95 347.0 188.9 347.0 190.85 347.85 192.35 L348.8 193.45 358.25 195.7 357.7 195.05 Q356.85 193.7 356.85 191.75 356.85 189.8 357.7 188.35 L358.25 187.6 348.2 185.2 M348.2 194.1 L347.85 194.55 Q347.0 195.85 347.0 197.8 347.0 199.75 347.85 201.25 L348.75 202.3 358.2 204.55 357.7 203.95 Q356.85 202.6 356.85 200.65 356.85 198.7 357.7 197.25 L358.25 196.5 348.2 194.1 M348.2 203.1 L347.85 203.55 Q347.0 204.85 347.0 206.8 347.0 208.75 347.85 210.25 348.3 211.0 348.85 211.35 L350.4 211.75 351.45 211.25 352.95 212.35 358.25 213.6 357.7 212.95 Q356.85 211.6 356.85 209.65 356.85 207.7 357.7 206.25 L358.25 205.5 348.2 203.1 M348.2 158.3 L347.85 158.75 Q347.0 160.05 347.0 162.0 347.0 163.95 347.85 165.45 L348.85 166.55 358.25 168.8 358.2 168.8 357.7 168.15 Q356.85 166.8 356.85 164.85 356.85 162.9 357.7 161.45 L358.25 160.7 348.2 158.3" fill="#4d1e0b" fill-rule="evenodd" stroke="none"/>
    <path d="M358.25 213.6 Q358.95 214.15 359.8 214.1 360.95 214.0 361.85 212.6 362.7 211.1 362.7 209.15 362.7 207.2 361.85 205.9 361.3 205.1 360.65 204.85 L361.85 203.6 Q362.7 202.1 362.7 200.15 362.7 198.2 361.85 196.9 L360.75 195.9 361.85 194.7 Q362.7 193.2 362.7 191.25 362.7 189.3 361.85 188.0 361.3 187.2 360.65 186.95 L361.85 185.7 Q362.7 184.2 362.7 182.25 362.7 180.3 361.85 179.0 L360.8 178.0 361.85 176.85 Q362.7 175.35 362.7 173.4 362.7 171.45 361.85 170.15 L360.6 169.05 361.85 167.8 Q362.7 166.3 362.7 164.35 362.7 162.4 361.85 161.1 360.95 159.8 359.8 159.9 L359.3 160.0 Q358.75 160.2 358.25 160.7 L357.7 161.45 Q356.85 162.9 356.85 164.85 356.85 166.8 357.7 168.15 L358.2 168.8 358.25 168.8 358.3 168.8 358.95 169.2 358.25 169.75 357.7 170.5 Q356.85 171.95 356.85 173.9 356.85 175.85 357.7 177.2 L358.25 177.8 358.75 178.15 358.25 178.6 357.7 179.35 Q356.85 180.8 356.85 182.75 356.85 184.7 357.7 186.05 L358.2 186.65 358.9 187.1 Q358.55 187.25 358.25 187.6 L357.7 188.35 Q356.85 189.8 356.85 191.75 356.85 193.7 357.7 195.05 L358.25 195.7 358.8 196.05 Q358.5 196.2 358.25 196.5 L357.7 197.25 Q356.85 198.7 356.85 200.65 356.85 202.6 357.7 203.95 L358.2 204.55 358.9 205.0 Q358.55 205.15 358.25 205.5 L357.7 206.25 Q356.85 207.7 356.85 209.65 356.85 211.6 357.7 212.95 L358.25 213.6" fill="#72361d" fill-rule="evenodd" stroke="none"/>
    <path d="M353.15 158.6 L355.55 85.25 281.45 141.3 353.15 158.6" fill="#4d1e0b" fill-rule="evenodd" stroke="none"/>
    <path d="M346.45 158.4 L427.25 138.9 355.4 85.1 346.45 158.4" fill="#431908" fill-rule="evenodd" stroke="none"/>
    <path d="M352.55 86.9 L343.35 156.2 347.0 158.75 351.1 157.9 358.55 87.4 359.1 87.1 355.5 84.45 352.55 86.9" fill="#62331f" fill-rule="evenodd" stroke="none"/>
    <path d="M354.0 89.2 L424.0 140.6 Q426.5 139.75 428.85 139.0 L356.9 85.3 354.0 89.2" fill="#62331f" fill-rule="evenodd" stroke="none"/>
    <path d="M390.5 152.45 L390.5 183.25 405.15 179.75 405.15 148.95 390.5 152.45" fill="#62331f" fill-rule="evenodd" stroke="none"/>
    <path d="M392.2 153.95 L392.2 180.5 403.4 177.55 403.4 151.05 392.2 153.95" fill="#381405" fill-rule="evenodd" stroke="none"/>
    <path d="M392.2 155.05 L401.7 152.6 401.4 176.3 403.4 177.55 403.4 151.05 392.2 153.95 392.2 155.05" fill="#250c02" fill-rule="evenodd" stroke="none"/>
    <path d="M362.6 160.0 L362.6 190.8 377.25 187.3 377.25 156.5 362.6 160.0" fill="#381405" fill-rule="evenodd" stroke="none"/>
    <path d="M363.2 159.4 L363.2 190.2 377.85 186.7 377.85 155.9 363.2 159.4" fill="#62331f" fill-rule="evenodd" stroke="none"/>
    <path d="M364.9 160.9 L364.9 187.45 376.1 184.5 376.1 158.0 364.9 160.9" fill="#381405" fill-rule="evenodd" stroke="none"/>
    <path d="M364.9 162.0 L374.4 159.55 374.1 183.25 376.1 184.5 376.1 158.0 364.9 160.9 364.9 162.0" fill="#250c02" fill-rule="evenodd" stroke="none"/>
    <path d="M411.35 151.2 L411.6 151.4 411.85 151.55 Q411.45 151.7 411.1 152.1 L416.8 153.55 417.45 153.0 416.85 152.6 416.7 152.6 411.35 151.2 M411.3 160.2 L411.5 160.4 411.65 160.5 411.15 160.95 416.8 162.4 417.25 161.95 416.8 161.6 411.3 160.2 M411.3 169.05 L411.5 169.25 411.8 169.45 411.1 169.95 416.8 171.4 417.4 170.9 416.75 170.45 411.3 169.05 M411.35 178.1 L411.55 178.3 411.7 178.4 411.1 178.85 416.8 180.3 417.3 179.85 416.8 179.5 411.35 178.1 M411.3 186.95 L411.5 187.15 411.8 187.35 411.1 187.85 416.8 189.3 417.4 188.8 416.75 188.35 411.3 186.95 M417.55 143.9 L412.0 142.45 Q411.55 142.6 411.1 143.05 L416.8 144.5 417.55 143.9" fill="#381405" fill-rule="evenodd" stroke="none"/>
    <path d="M411.1 143.05 L411.0 143.15 410.7 143.6 Q409.9 144.9 409.9 146.85 409.9 148.8 410.7 150.3 L411.35 151.2 416.7 152.6 416.3 151.95 Q415.55 150.6 415.55 148.65 415.55 146.7 416.3 145.25 L416.8 144.5 411.1 143.05 M411.1 152.1 L411.0 152.2 410.7 152.65 Q409.9 153.95 409.9 155.9 409.9 157.85 410.7 159.35 L411.3 160.2 416.8 161.6 416.3 161.0 Q415.55 159.65 415.55 157.7 415.55 155.75 416.3 154.3 L416.8 153.55 411.1 152.1 M411.15 160.95 L411.0 161.05 410.7 161.5 Q409.9 162.8 409.9 164.75 409.9 166.7 410.7 168.2 L411.3 169.05 416.75 170.45 416.3 169.85 Q415.55 168.5 415.55 166.55 415.55 164.6 416.3 163.15 L416.8 162.4 411.15 160.95 M411.1 169.95 L411.0 170.05 410.7 170.5 Q409.9 171.8 409.9 173.75 409.9 175.7 410.7 177.2 L411.35 178.1 416.8 179.5 416.3 178.85 Q415.55 177.5 415.55 175.55 415.55 173.6 416.3 172.15 L416.8 171.4 411.1 169.95 M411.1 178.85 L411.0 178.95 410.7 179.4 Q409.9 180.7 409.9 182.65 409.9 184.6 410.7 186.1 L411.3 186.95 416.75 188.35 416.3 187.75 Q415.55 186.4 415.55 184.45 415.55 182.5 416.3 181.05 L416.8 180.3 411.1 178.85 M411.1 187.85 L411.0 187.95 410.7 188.4 Q409.9 189.7 409.9 191.65 409.9 193.6 410.7 195.1 L410.7 195.15 411.95 196.15 416.8 197.4 416.3 196.75 Q415.55 195.4 415.55 193.45 415.55 191.5 416.3 190.05 L416.8 189.3 411.1 187.85" fill="#4d1e0b" fill-rule="evenodd" stroke="none"/>
    <path d="M416.8 197.4 L417.2 197.7 418.1 197.9 418.2 197.9 Q419.25 197.8 420.1 196.4 420.85 194.9 420.85 192.95 420.85 191.0 420.1 189.7 419.6 188.9 419.0 188.65 L420.1 187.4 Q420.85 185.9 420.85 183.95 420.85 182.0 420.1 180.7 L419.1 179.7 420.1 178.5 Q420.85 177.0 420.85 175.05 420.85 173.1 420.1 171.8 419.6 171.0 419.0 170.75 L420.1 169.5 Q420.85 168.0 420.85 166.05 420.85 164.1 420.1 162.8 L419.15 161.8 420.1 160.65 Q420.85 159.15 420.85 157.2 420.85 155.25 420.1 153.95 L418.95 152.85 420.1 151.6 Q420.85 150.1 420.85 148.15 420.85 146.2 420.1 144.9 L419.75 144.5 Q419.1 143.6 418.2 143.7 L417.75 143.8 417.55 143.9 416.8 144.5 416.3 145.25 Q415.55 146.7 415.55 148.65 415.55 150.6 416.3 151.95 L416.7 152.6 416.85 152.6 417.45 153.0 416.8 153.55 416.3 154.3 Q415.55 155.75 415.55 157.7 415.55 159.65 416.3 161.0 L416.8 161.6 417.25 161.95 416.8 162.4 416.3 163.15 Q415.55 164.6 415.55 166.55 415.55 168.5 416.3 169.85 L416.75 170.45 417.4 170.9 416.8 171.4 416.3 172.15 Q415.55 173.6 415.55 175.55 415.55 177.5 416.3 178.85 L416.8 179.5 417.3 179.85 416.8 180.3 416.3 181.05 Q415.55 182.5 415.55 184.45 415.55 186.4 416.3 187.75 L416.75 188.35 417.4 188.8 416.8 189.3 416.3 190.05 Q415.55 191.5 415.55 193.45 415.55 195.4 416.3 196.75 L416.8 197.4" fill="#72361d" fill-rule="evenodd" stroke="none"/>
    <path d="M354.65 89.3 L284.65 140.7 279.8 139.1 351.75 85.4 354.65 89.3" fill="#62331f" fill-rule="evenodd" stroke="none"/>
    <path d="M296.4 145.35 L296.65 145.85 Q297.2 147.25 297.2 149.15 297.2 151.1 296.65 152.4 L296.0 153.4 295.85 153.5 296.4 154.25 296.65 154.7 Q297.2 156.15 297.2 158.05 297.2 160.0 296.65 161.3 L296.05 162.25 295.95 162.3 296.4 162.9 296.65 163.4 Q297.2 164.85 297.2 166.75 297.2 168.65 296.65 170.0 L296.05 170.95 295.85 171.05 296.4 171.75 296.65 172.25 Q297.2 173.7 297.2 175.6 297.2 177.5 296.65 178.85 L296.05 179.8 295.95 179.85 296.4 180.5 296.65 181.0 Q297.2 182.45 297.2 184.35 297.2 186.25 296.65 187.6 L296.05 188.5 295.85 188.65 296.4 189.35 296.65 189.85 Q297.2 191.25 297.2 193.2 297.2 195.1 296.65 196.4 L296.0 197.4 295.0 197.55 294.35 196.9 293.35 197.8 289.95 198.2 Q289.5 198.65 288.95 198.5 288.2 198.25 287.65 196.75 287.1 195.15 287.1 193.25 287.1 191.3 287.65 190.15 288.0 189.45 288.4 189.3 L287.65 187.9 Q287.1 186.3 287.1 184.4 287.1 182.5 287.65 181.3 287.95 180.65 288.35 180.45 287.95 180.05 287.65 179.15 287.1 177.55 287.1 175.65 287.1 173.75 287.65 172.55 288.0 171.9 288.4 171.75 L287.65 170.3 Q287.1 168.75 287.1 166.8 287.1 164.9 287.65 163.7 L288.3 162.9 287.65 161.6 Q287.1 160.05 287.1 158.1 287.1 156.2 287.65 155.05 288.0 154.3 288.45 154.15 288.0 153.7 287.65 152.7 287.1 151.15 287.1 149.25 287.1 147.3 287.65 146.15 288.2 145.0 288.95 145.25 L289.25 145.4 295.7 144.5 296.4 145.35" fill="#381405" fill-rule="evenodd" stroke="none"/>
    <path d="M288.85 145.85 L294.4 144.4 Q294.85 144.55 295.3 145.0 L289.6 146.45 288.85 145.85 M295.05 153.15 L294.8 153.35 294.55 153.5 295.3 154.05 289.6 155.5 288.95 154.95 289.55 154.55 289.7 154.55 295.05 153.15 M295.1 162.15 L294.9 162.35 294.75 162.45 Q295.0 162.6 295.25 162.9 L289.6 164.35 289.15 163.9 289.6 163.55 295.1 162.15 M295.1 171.0 L294.9 171.2 294.6 171.4 295.3 171.9 289.6 173.35 289.0 172.85 289.65 172.4 295.1 171.0 M295.05 180.05 L294.85 180.25 294.7 180.35 295.3 180.8 289.6 182.25 289.1 181.8 289.6 181.45 295.05 180.05 M295.1 188.9 L294.9 189.1 294.6 189.3 295.3 189.8 289.6 191.25 289.0 190.75 289.65 190.3 295.1 188.9" fill="#381405" fill-rule="evenodd" stroke="none"/>
    <path d="M295.3 145.0 L295.4 145.1 295.7 145.55 Q296.5 146.85 296.5 148.8 296.5 150.75 295.7 152.25 L295.05 153.15 289.7 154.55 290.1 153.9 Q290.85 152.55 290.85 150.6 290.85 148.65 290.1 147.2 L289.6 146.45 295.3 145.0 M295.3 154.05 L295.4 154.15 295.7 154.6 Q296.5 155.9 296.5 157.85 296.5 159.8 295.7 161.3 L295.1 162.15 289.6 163.55 290.1 162.95 Q290.85 161.6 290.85 159.65 290.85 157.7 290.1 156.25 L289.6 155.5 295.3 154.05 M295.25 162.9 L295.4 163.0 295.7 163.45 Q296.5 164.75 296.5 166.7 296.5 168.65 295.7 170.15 L295.1 171.0 289.65 172.4 290.1 171.8 Q290.85 170.45 290.85 168.5 290.85 166.55 290.1 165.1 L289.6 164.35 295.25 162.9 M295.3 171.9 L295.4 172.0 295.7 172.45 Q296.5 173.75 296.5 175.7 296.5 177.65 295.7 179.15 L295.05 180.05 289.6 181.45 290.1 180.8 Q290.85 179.45 290.85 177.5 290.85 175.55 290.1 174.1 L289.6 173.35 295.3 171.9 M295.3 180.8 L295.4 180.9 295.7 181.35 Q296.5 182.65 296.5 184.6 296.5 186.55 295.7 188.05 L295.1 188.9 289.65 190.3 290.1 189.7 Q290.85 188.35 290.85 186.4 290.85 184.45 290.1 183.0 L289.6 182.25 295.3 180.8 M295.3 189.8 L295.4 189.9 295.7 190.35 Q296.5 191.65 296.5 193.6 296.5 195.55 295.7 197.05 L295.7 197.1 294.45 198.1 289.6 199.35 290.1 198.7 Q290.85 197.35 290.85 195.4 290.85 193.45 290.1 192.0 L289.6 191.25 295.3 189.8" fill="#4d1e0b" fill-rule="evenodd" stroke="none"/>
    <path d="M289.6 199.35 L289.2 199.65 288.3 199.85 288.2 199.85 Q287.15 199.75 286.3 198.35 285.55 196.85 285.55 194.9 285.55 192.95 286.3 191.65 286.8 190.85 287.4 190.6 286.8 190.2 286.3 189.35 285.55 187.85 285.55 185.9 285.55 183.95 286.3 182.65 286.75 181.9 287.3 181.65 L286.3 180.45 Q285.55 178.95 285.55 177.0 285.55 175.05 286.3 173.75 286.8 172.95 287.4 172.7 286.8 172.3 286.3 171.45 285.55 169.95 285.55 168.0 285.55 166.05 286.3 164.75 L287.25 163.75 286.3 162.6 Q285.55 161.1 285.55 159.15 285.55 157.2 286.3 155.9 286.85 155.05 287.45 154.8 286.85 154.45 286.3 153.55 285.55 152.05 285.55 150.1 285.55 148.15 286.3 146.85 L286.65 146.45 Q287.3 145.55 288.2 145.65 L288.65 145.75 288.85 145.85 289.6 146.45 290.1 147.2 Q290.85 148.65 290.85 150.6 290.85 152.55 290.1 153.9 L289.7 154.55 289.55 154.55 288.95 154.95 289.6 155.5 290.1 156.25 Q290.85 157.7 290.85 159.65 290.85 161.6 290.1 162.95 L289.6 163.55 289.15 163.9 289.6 164.35 290.1 165.1 Q290.85 166.55 290.85 168.5 290.85 170.45 290.1 171.8 L289.65 172.4 289.0 172.85 289.6 173.35 290.1 174.1 Q290.85 175.55 290.85 177.5 290.85 179.45 290.1 180.8 L289.6 181.45 289.1 181.8 289.6 182.25 290.1 183.0 Q290.85 184.45 290.85 186.4 290.85 188.35 290.1 189.7 L289.65 190.3 289.0 190.75 289.6 191.25 290.1 192.0 Q290.85 193.45 290.85 195.4 290.85 197.35 290.1 198.7 L289.6 199.35" fill="#72361d" fill-rule="evenodd" stroke="none"/>
    <path d="M393.8 238.75 Q392.9 240.2 391.6 239.7 L391.05 241.3 Q390.15 241.7 389.1 243.05 387.4 242.0 385.4 241.5 383.2 242.85 381.45 242.6 L381.3 242.6 381.3 241.7 Q380.35 242.85 379.2 242.4 L378.65 244.05 Q377.7 244.35 376.7 245.75 374.95 244.75 372.9 244.25 370.75 245.6 368.95 245.4 L368.75 245.35 368.8 244.45 Q367.9 245.45 366.65 245.05 L366.15 246.7 Q365.2 247.1 364.1 248.5 362.3 247.45 360.3 246.95 358.05 248.3 356.2 248.05 L356.1 248.05 356.05 248.05 356.05 247.75 356.05 247.7 356.1 247.15 356.0 247.3 Q355.1 248.3 353.9 247.85 L353.65 248.95 353.35 249.5 Q352.4 249.9 351.4 251.25 349.6 250.25 347.45 249.8 346.0 250.65 344.8 250.85 L344.75 250.4 344.75 250.25 344.7 249.9 344.65 249.65 344.35 249.5 Q344.2 249.35 344.0 249.3 L343.55 249.2 349.35 236.75 356.2 246.9 362.2 234.05 368.95 244.15 374.8 231.45 381.4 241.5 387.25 228.75 393.8 238.75 M393.7 239.9 L393.7 239.55 393.8 239.3 399.55 226.7 405.6 236.05 411.4 223.25 417.8 233.15 Q416.95 234.5 415.6 234.0 L415.1 235.65 Q414.2 235.95 413.2 237.3 411.55 236.3 409.55 235.8 407.6 237.0 406.1 236.9 L406.05 236.9 405.85 236.9 405.55 236.9 405.55 237.25 Q404.95 237.7 404.25 237.65 L403.8 237.55 Q403.6 238.95 403.3 239.15 402.4 239.5 401.4 240.85 399.75 239.85 397.7 239.35 395.8 240.6 394.15 240.45 L393.8 240.4 393.7 240.4 393.7 239.9 M331.05 252.35 Q330.05 253.8 328.65 253.3 328.4 254.75 328.05 255.0 327.1 255.35 326.0 256.8 324.2 255.7 322.0 255.25 319.65 256.65 317.8 256.4 L317.65 256.4 317.65 255.45 Q316.75 256.65 315.4 256.2 L314.85 257.95 Q313.8 258.3 312.75 259.7 310.95 258.7 308.75 258.15 306.4 259.55 304.55 259.45 L304.5 259.45 304.3 259.4 304.3 258.45 304.25 258.45 Q303.65 259.15 302.9 259.2 L302.05 259.05 Q301.85 260.5 301.5 260.8 300.45 261.1 299.4 262.55 297.5 261.5 295.3 261.05 292.85 262.45 290.95 262.2 L290.8 262.2 290.8 261.25 Q289.8 262.5 288.45 262.05 288.2 263.55 287.85 263.8 286.9 264.15 285.75 265.6 283.85 264.55 281.6 264.1 279.3 265.45 277.45 265.25 L277.25 265.25 277.05 265.25 277.05 265.45 Q276.15 266.3 274.9 265.95 274.7 267.45 274.35 267.7 273.35 268.1 272.2 269.55 270.3 268.45 268.0 268.0 266.5 268.9 265.15 269.15 L265.0 268.05 264.75 267.85 264.5 267.7 263.95 267.5 263.95 267.55 263.65 267.6 270.0 254.45 277.05 264.35 277.05 264.3 283.6 250.65 290.9 261.05 297.25 247.75 304.45 258.1 310.65 244.95 317.75 255.25 324.0 242.1 331.05 252.35 M330.9 254.05 L330.9 253.15 331.0 252.9 337.15 239.85 343.45 249.15 343.05 249.25 342.75 249.35 342.45 249.55 342.25 249.75 342.1 249.95 342.05 251.1 341.75 251.05 341.2 252.7 Q340.2 253.0 339.2 254.4 337.3 253.4 335.25 252.95 333.5 254.0 332.0 254.1 L331.95 254.1 331.0 254.05 330.9 254.05 M263.45 267.45 L263.3 267.65 Q262.6 268.55 261.55 268.55 L260.9 268.4 Q260.7 269.95 260.35 270.15 259.35 270.6 258.15 272.0 256.15 271.0 253.8 270.5 251.4 271.9 249.4 271.7 L249.3 271.7 249.15 271.7 249.15 270.85 249.15 270.75 249.1 270.8 Q248.3 271.75 247.3 271.65 L246.75 271.55 Q246.5 273.0 246.15 273.3 245.1 273.7 243.9 275.15 241.95 274.1 239.55 273.65 237.1 275.1 235.05 274.9 L234.85 274.85 234.85 273.9 Q233.85 275.0 232.4 274.6 232.2 276.1 231.85 276.35 230.75 276.75 229.55 278.25 227.6 277.2 225.2 276.7 222.55 278.25 220.4 277.95 L220.4 277.0 227.2 262.85 235.0 273.55 241.6 259.9 249.25 270.5 255.9 256.9 263.45 267.45 M263.65 267.6 L263.35 268.25 263.45 268.0 263.65 267.6 M429.8 231.05 Q428.9 232.45 427.6 231.95 427.4 233.3 427.1 233.5 426.25 233.85 425.25 235.2 423.6 234.2 421.6 233.7 L420.4 234.35 420.25 233.2 419.9 233.0 419.25 232.75 419.25 232.8 418.75 232.9 418.45 233.05 418.35 233.15 418.25 232.75 417.75 234.75 417.7 234.75 417.7 234.7 417.7 233.9 417.75 233.7 423.45 221.2 429.8 231.05" fill="#54220d" fill-rule="evenodd" stroke="none"/>
    <path d="M356.1 248.05 L356.2 248.05 Q358.05 248.3 360.3 246.95 362.3 247.45 364.1 248.5 365.2 247.1 366.15 246.7 L366.65 245.05 Q367.9 245.45 368.8 244.45 L368.75 245.35 368.95 245.4 Q370.75 245.6 372.9 244.25 374.95 244.75 376.7 245.75 377.7 244.35 378.65 244.05 L379.2 242.4 Q380.35 242.85 381.3 241.7 L381.3 242.6 381.45 242.6 Q383.2 242.85 385.4 241.5 387.4 242.0 389.1 243.05 390.15 241.7 391.05 241.3 L391.6 239.7 Q392.9 240.2 393.8 238.75 L393.8 239.3 393.7 239.55 393.7 239.9 393.3 239.75 393.25 239.8 392.75 239.9 392.6 239.95 392.3 240.15 392.0 240.35 Q391.05 246.05 391.15 252.0 L391.15 279.1 Q391.0 292.6 391.0 306.15 L391.0 318.95 Q387.3 322.0 381.6 320.5 L381.95 320.6 381.85 317.95 Q381.45 302.0 381.9 286.1 382.4 270.15 383.35 254.25 383.8 247.25 380.45 242.65 L380.45 242.7 379.95 242.75 379.8 242.8 379.45 243.0 Q378.5 257.85 378.15 273.35 377.75 289.15 377.5 304.95 377.35 314.2 377.5 323.4 374.15 325.65 369.9 324.25 L369.8 312.7 369.45 299.25 Q369.25 285.75 370.0 272.25 370.7 259.0 369.9 245.95 L369.65 245.75 369.35 245.55 368.8 245.4 368.4 245.5 368.05 245.6 Q365.9 254.75 366.05 264.8 366.2 274.9 366.5 285.0 366.85 298.5 366.05 312.0 365.65 318.85 365.55 325.65 L365.55 325.85 Q361.6 328.5 355.65 326.7 355.45 313.35 355.65 300.0 355.8 286.6 356.55 273.25 357.25 260.55 356.1 248.05 M344.8 250.85 Q346.0 250.65 347.45 249.8 349.6 250.25 351.4 251.25 352.4 249.9 353.35 249.5 L353.65 248.95 Q352.95 256.7 352.65 264.65 352.1 278.15 351.9 291.8 351.75 305.5 352.2 319.2 L352.4 329.85 Q349.35 331.95 345.4 331.0 L345.8 318.0 Q346.4 303.45 346.45 288.8 346.5 274.15 344.95 259.75 344.45 255.35 341.85 252.75 L341.3 252.9 341.05 253.1 340.8 253.3 Q342.2 267.35 342.5 281.65 342.8 296.05 342.5 310.45 L341.9 331.9 Q337.95 335.4 331.85 334.05 L331.85 332.8 Q331.95 319.6 332.8 306.45 333.65 293.35 333.55 280.1 333.45 267.1 332.3 254.35 L332.1 254.2 332.0 254.1 Q333.5 254.0 335.25 252.95 337.3 253.4 339.2 254.4 340.2 253.0 341.2 252.7 L341.75 251.05 342.05 251.1 342.8 251.05 343.1 250.95 343.2 250.95 343.2 250.9 343.35 250.9 344.1 250.95 344.75 250.85 344.8 250.85 M356.0 247.3 L356.1 247.15 356.05 247.7 356.0 247.3 M394.15 240.45 Q395.8 240.6 397.7 239.35 399.75 239.85 401.4 240.85 402.4 239.5 403.3 239.15 403.6 238.95 403.8 237.55 L404.25 237.65 Q403.75 251.45 404.0 265.4 L404.5 294.75 Q404.65 304.25 405.3 313.75 L405.25 313.7 405.2 314.15 Q401.6 319.25 395.35 318.2 L395.1 293.85 Q394.75 280.35 395.25 266.75 395.7 253.45 394.55 240.5 L394.15 240.45 M406.1 236.9 Q407.6 237.0 409.55 235.8 411.55 236.3 413.2 237.3 414.2 235.95 415.1 235.65 L415.6 234.0 Q416.95 234.5 417.8 233.15 L417.75 233.7 417.7 233.9 417.7 234.7 417.55 234.65 417.05 234.75 416.75 234.9 416.4 235.15 Q415.2 241.65 415.2 248.55 415.15 261.2 414.65 273.85 414.2 286.45 414.55 299.15 L414.6 312.65 Q412.35 314.25 409.5 314.35 L409.25 306.65 408.65 277.05 Q408.35 262.1 408.55 247.2 408.65 241.1 406.1 236.9 M304.55 259.45 Q306.4 259.55 308.75 258.15 310.95 258.7 312.75 259.7 313.8 258.3 314.85 257.95 L315.4 256.2 Q316.75 256.65 317.65 255.45 L317.65 256.4 317.8 256.4 Q319.65 256.65 322.0 255.25 324.2 255.7 326.0 256.8 327.1 255.35 328.05 255.0 328.4 254.75 328.65 253.3 330.05 253.8 331.05 252.35 L331.0 252.9 330.9 253.15 330.9 254.05 Q328.9 258.85 329.2 264.95 329.95 278.25 329.7 291.7 329.45 305.1 328.35 318.4 327.6 327.05 327.4 335.8 L328.5 335.05 Q325.3 337.6 320.8 337.25 L320.6 329.85 Q320.0 317.6 320.0 305.35 L319.8 280.65 Q319.6 268.65 318.1 256.95 L317.85 256.75 317.6 256.6 317.05 256.4 317.05 256.45 316.55 256.6 316.2 256.75 315.95 256.95 Q315.5 268.7 315.9 280.65 316.3 292.9 316.3 305.15 L316.25 329.85 316.45 337.5 Q312.2 342.65 306.05 340.8 L306.35 335.2 Q307.15 322.4 307.15 309.45 L306.95 283.7 Q306.75 271.35 305.0 259.45 L304.55 259.45 M265.15 269.15 Q266.5 268.9 268.0 268.0 270.3 268.45 272.2 269.55 273.35 268.1 274.35 267.7 274.7 267.45 274.9 265.95 276.15 266.3 277.05 265.45 L277.05 265.25 277.25 265.25 277.45 265.25 Q279.3 265.45 281.6 264.1 283.85 264.55 285.75 265.6 286.9 264.15 287.85 263.8 288.2 263.55 288.45 262.05 289.8 262.5 290.8 261.25 L290.8 262.2 290.95 262.2 Q292.85 262.45 295.3 261.05 297.5 261.5 299.4 262.55 300.45 261.1 301.5 260.8 301.85 260.5 302.05 259.05 L302.9 259.2 Q302.35 271.4 302.85 283.9 303.4 296.65 303.4 309.45 303.4 322.4 302.35 335.2 L302.05 341.85 Q298.45 344.75 293.2 344.0 292.8 323.8 293.15 303.6 293.45 283.15 291.1 263.15 L290.9 262.95 290.65 262.8 290.1 262.6 290.1 262.65 289.7 262.7 289.45 262.8 289.15 263.0 Q288.2 265.35 288.35 267.95 289.2 284.85 289.15 301.8 289.0 322.5 289.15 343.05 L289.15 344.95 Q285.45 349.0 280.25 348.05 L280.25 338.9 Q279.85 326.7 279.9 314.4 L279.8 289.9 Q279.65 277.9 278.05 266.2 L277.85 266.0 277.55 265.85 277.05 265.65 277.0 265.7 276.5 265.85 276.15 266.05 275.95 266.2 Q275.5 278.0 275.95 290.1 276.4 302.3 276.35 314.6 L276.05 339.1 Q275.95 344.0 276.15 348.8 272.25 352.9 266.05 352.05 L266.15 344.3 Q266.05 331.4 265.5 318.55 264.9 305.75 265.2 292.85 265.5 280.8 263.8 269.2 L265.15 269.15 M263.3 267.65 L263.45 267.45 263.45 267.75 263.4 267.7 263.3 267.65 M220.4 277.95 Q222.55 278.25 225.2 276.7 227.6 277.2 229.55 278.25 230.75 276.75 231.85 276.35 232.2 276.1 232.4 274.6 233.85 275.0 234.85 273.9 L234.85 274.85 235.05 274.9 Q237.1 275.1 239.55 273.65 241.95 274.1 243.9 275.15 245.1 273.7 246.15 273.3 246.5 273.0 246.75 271.55 L247.3 271.65 Q247.05 282.6 247.5 293.75 248.0 305.8 248.1 317.8 248.2 329.9 247.8 341.9 247.6 347.9 247.0 353.9 L246.9 356.85 Q244.3 359.2 241.15 359.45 238.55 359.65 235.7 358.6 L235.45 345.8 Q235.35 333.9 236.15 322.1 236.95 310.35 236.65 298.4 236.35 286.75 234.9 275.35 L234.7 275.15 234.4 274.95 234.0 274.8 234.0 274.85 233.65 274.9 233.6 274.9 233.4 275.1 233.2 275.25 Q232.4 281.45 232.7 288.15 233.15 300.0 232.75 312.0 232.35 323.9 232.45 335.9 232.6 347.9 231.3 359.8 L231.2 361.2 Q229.15 362.35 226.65 362.6 223.75 362.8 220.4 361.85 L220.4 277.95 M249.1 270.8 L249.15 270.75 249.15 270.85 249.1 270.8 M249.4 271.7 Q251.4 271.9 253.8 270.5 256.15 271.0 258.15 272.0 259.35 270.6 260.35 270.15 260.7 269.95 260.9 268.4 L261.55 268.55 Q261.15 274.1 261.4 279.9 261.95 292.6 262.0 305.45 262.05 318.2 262.6 330.95 262.9 337.35 262.55 343.8 L262.3 351.8 263.1 350.9 Q258.65 356.4 251.0 354.95 L251.35 342.4 251.45 318.3 251.15 294.2 Q251.0 282.75 249.4 271.7 M420.4 234.35 L421.6 233.7 Q423.6 234.2 425.25 235.2 426.25 233.85 427.1 233.5 427.4 233.3 427.6 231.95 428.9 232.45 429.8 231.05 L428.8 307.7 Q425.3 312.65 419.2 311.55 L419.1 309.2 Q418.65 296.7 418.8 284.15 419.0 271.75 419.55 259.35 420.1 247.2 418.85 235.3 L418.55 235.05 Q418.4 234.9 418.2 234.85 L418.05 234.8 418.3 234.8 418.8 234.8 420.4 234.35" fill="#461906" fill-rule="evenodd" stroke="none"/>
    <path d="M356.1 248.05 Q357.25 260.55 356.55 273.25 355.8 286.6 355.65 300.0 355.45 313.35 355.65 326.7 L355.5 326.65 Q354.05 328.7 352.4 329.85 L352.2 319.2 Q351.75 305.5 351.9 291.8 352.1 278.15 352.65 264.65 352.95 256.7 353.65 248.95 L353.9 247.85 Q355.1 248.3 356.0 247.3 L356.05 247.7 356.05 247.75 356.05 248.05 356.1 248.05 M365.55 325.85 L365.55 325.65 Q365.65 318.85 366.05 312.0 366.85 298.5 366.5 285.0 366.2 274.9 366.05 264.8 365.9 254.75 368.05 245.6 L368.4 245.5 368.8 245.4 369.35 245.55 369.65 245.75 369.9 245.95 Q370.7 259.0 370.0 272.25 369.25 285.75 369.45 299.25 L369.8 312.7 369.9 324.25 368.05 323.45 366.55 325.1 365.55 325.85 M377.5 323.4 Q377.35 314.2 377.5 304.95 377.75 289.15 378.15 273.35 378.5 257.85 379.45 243.0 L379.8 242.8 379.95 242.75 380.45 242.7 380.45 242.65 Q383.8 247.25 383.35 254.25 382.4 270.15 381.9 286.1 381.45 302.0 381.85 317.95 L381.95 320.6 381.6 320.5 380.6 320.2 Q379.15 322.25 377.5 323.4 M391.0 318.95 L391.0 306.15 Q391.0 292.6 391.15 279.1 L391.15 252.0 Q391.05 246.05 392.0 240.35 L392.3 240.15 392.6 239.95 392.75 239.9 393.25 239.8 393.3 239.75 393.7 239.9 393.7 240.4 393.8 240.4 394.15 240.45 394.55 240.5 Q395.7 253.45 395.25 266.75 394.75 280.35 395.1 293.85 L395.35 318.2 392.95 317.55 392.95 316.9 391.0 318.95 M343.55 249.2 L344.0 249.3 Q344.2 249.35 344.35 249.5 L344.65 249.65 344.7 249.9 344.75 250.25 344.75 250.4 344.8 250.85 344.75 250.85 344.1 250.95 343.35 250.9 343.2 250.9 343.2 250.95 343.1 250.95 342.8 251.05 342.05 251.1 342.1 249.95 342.25 249.75 342.45 249.55 342.75 249.35 343.05 249.25 343.45 249.15 343.55 249.25 343.55 249.2 M405.3 313.75 Q404.65 304.25 404.5 294.75 L404.0 265.4 Q403.75 251.45 404.25 237.65 404.95 237.7 405.55 237.25 L405.55 236.9 405.85 236.9 406.05 236.9 406.1 236.9 Q408.65 241.1 408.55 247.2 408.35 262.1 408.65 277.05 L409.25 306.65 409.5 314.35 405.3 313.75 M304.55 259.45 L305.0 259.45 Q306.75 271.35 306.95 283.7 L307.15 309.45 Q307.15 322.4 306.35 335.2 L306.05 340.8 304.15 340.1 303.9 340.0 303.9 339.95 303.75 340.1 302.95 341.05 302.05 341.85 302.35 335.2 Q303.4 322.4 303.4 309.45 303.4 296.65 302.85 283.9 302.35 271.4 302.9 259.2 303.65 259.15 304.25 258.45 L304.3 258.45 304.3 259.4 304.5 259.45 304.55 259.45 M316.45 337.5 L316.25 329.85 316.3 305.15 Q316.3 292.9 315.9 280.65 315.5 268.7 315.95 256.95 L316.2 256.75 316.55 256.6 317.05 256.45 317.05 256.4 317.6 256.6 317.85 256.75 318.1 256.95 Q319.6 268.65 319.8 280.65 L320.0 305.35 Q320.0 317.6 320.6 329.85 L320.8 337.25 317.4 336.55 317.2 336.5 316.45 337.5 M328.5 335.05 L327.4 335.8 Q327.6 327.05 328.35 318.4 329.45 305.1 329.7 291.7 329.95 278.25 329.2 264.95 328.9 258.85 330.9 254.05 L331.0 254.05 331.95 254.1 332.0 254.1 332.1 254.2 332.3 254.35 Q333.45 267.1 333.55 280.1 333.65 293.35 332.8 306.45 331.95 319.6 331.85 332.8 L331.85 334.05 330.45 333.65 330.45 332.95 330.1 333.4 328.5 335.05 M263.65 267.6 L263.95 267.55 263.95 267.5 264.5 267.7 264.75 267.85 265.0 268.05 265.15 269.15 263.8 269.2 Q265.5 280.8 265.2 292.85 264.9 305.75 265.5 318.55 266.05 331.4 266.15 344.3 L266.05 352.05 263.2 351.4 263.2 350.75 263.1 350.9 262.3 351.8 262.55 343.8 Q262.9 337.35 262.6 330.95 262.05 318.2 262.0 305.45 261.95 292.6 261.4 279.9 261.15 274.1 261.55 268.55 262.6 268.55 263.3 267.65 L263.4 267.7 263.45 267.75 263.45 268.0 263.35 268.25 263.65 267.6 M341.9 331.9 L342.5 310.45 Q342.8 296.05 342.5 281.65 342.2 267.35 340.8 253.3 L341.05 253.1 341.3 252.9 341.85 252.75 Q344.45 255.35 344.95 259.75 346.5 274.15 346.45 288.8 346.4 303.45 345.8 318.0 L345.4 331.0 343.35 330.3 342.45 331.35 341.9 331.9 M276.15 348.8 Q275.95 344.0 276.05 339.1 L276.35 314.6 Q276.4 302.3 275.95 290.1 275.5 278.0 275.95 266.2 L276.15 266.05 276.5 265.85 277.0 265.7 277.05 265.65 277.55 265.85 277.85 266.0 278.05 266.2 Q279.65 277.9 279.8 289.9 L279.9 314.4 Q279.85 326.7 280.25 338.9 L280.25 348.05 277.2 347.1 277.2 347.55 276.15 348.8 M289.15 344.95 L289.15 343.05 Q289.0 322.5 289.15 301.8 289.2 284.85 288.35 267.95 288.2 265.35 289.15 263.0 L289.45 262.8 289.7 262.7 290.1 262.65 290.1 262.6 290.65 262.8 290.9 262.95 291.1 263.15 Q293.45 283.15 293.15 303.6 292.8 323.8 293.2 344.0 L290.6 343.4 290.45 343.35 289.15 344.95 M247.3 271.65 Q248.3 271.75 249.1 270.8 L249.15 270.85 249.15 271.7 249.3 271.7 249.4 271.7 Q251.0 282.75 251.15 294.2 L251.45 318.3 251.35 342.4 251.0 354.95 249.0 354.45 246.9 356.85 247.0 353.9 Q247.6 347.9 247.8 341.9 248.2 329.9 248.1 317.8 248.0 305.8 247.5 293.75 247.05 282.6 247.3 271.65 M417.7 234.7 L417.7 234.75 417.75 234.75 418.25 232.75 418.35 233.15 418.45 233.05 418.75 232.9 419.25 232.8 419.25 232.75 419.9 233.0 420.25 233.2 420.4 234.35 418.8 234.8 418.3 234.8 418.05 234.8 418.2 234.85 Q418.4 234.9 418.55 235.05 L418.85 235.3 Q420.1 247.2 419.55 259.35 419.0 271.75 418.8 284.15 418.65 296.7 419.1 309.2 L419.2 311.55 419.05 311.5 417.0 311.0 416.85 310.95 416.85 310.3 414.6 312.65 414.55 299.15 Q414.2 286.45 414.65 273.85 415.15 261.2 415.2 248.55 415.2 241.65 416.4 235.15 L416.75 234.9 417.05 234.75 417.55 234.65 417.7 234.7 M231.2 361.2 L231.3 359.8 Q232.6 347.9 232.45 335.9 232.35 323.9 232.75 312.0 233.15 300.0 232.7 288.15 232.4 281.45 233.2 275.25 L233.4 275.1 233.6 274.9 233.65 274.9 234.0 274.85 234.0 274.8 234.4 274.95 234.7 275.15 234.9 275.35 Q236.35 286.75 236.65 298.4 236.95 310.35 236.15 322.1 235.35 333.9 235.45 345.8 L235.7 358.6 234.75 358.2 234.75 358.15 Q233.2 360.1 231.2 361.2" fill="#3c1505" fill-rule="evenodd" stroke="none"/>
    <path d="M49.85 199.1 L50.65 199.1 129.9 218.3 Q132.9 224.3 129.25 227.15 L49.1 208.0 Q44.6 202.45 49.85 199.1" fill="#4d1e0b" fill-rule="evenodd" stroke="none"/>
    <path d="M129.7 219.2 L48.9 199.8 49.75 199.05 130.55 218.45 129.7 219.2" fill="#381405" fill-rule="evenodd" stroke="none"/>
    <path d="M127.1 219.45 Q128.0 218.0 129.2 217.9 130.35 217.8 131.25 219.1 132.1 220.4 132.1 222.35 132.1 224.3 131.25 225.8 130.35 227.2 129.2 227.3 128.0 227.4 127.1 226.15 126.25 224.8 126.25 222.85 126.25 220.9 127.1 219.45" fill="#72361d" fill-rule="evenodd" stroke="none"/>
    <path d="M49.85 190.1 L50.65 190.1 129.9 209.3 Q132.9 215.3 129.25 218.15 L49.1 199.0 Q44.6 193.45 49.85 190.1" fill="#4d1e0b" fill-rule="evenodd" stroke="none"/>
    <path d="M129.7 210.2 L48.9 190.8 49.75 190.05 130.55 209.45 129.7 210.2" fill="#381405" fill-rule="evenodd" stroke="none"/>
    <path d="M127.1 210.45 Q128.0 209.0 129.2 208.9 130.35 208.8 131.25 210.1 132.1 211.4 132.1 213.35 132.1 215.3 131.25 216.8 130.35 218.2 129.2 218.3 128.0 218.4 127.1 217.15 126.25 215.8 126.25 213.85 126.25 211.9 127.1 210.45" fill="#72361d" fill-rule="evenodd" stroke="none"/>
    <path d="M49.85 181.2 L50.65 181.2 129.9 200.4 Q132.9 206.4 129.25 209.25 L49.1 190.1 Q44.6 184.55 49.85 181.2" fill="#4d1e0b" fill-rule="evenodd" stroke="none"/>
    <path d="M129.7 201.3 L48.9 181.9 49.75 181.15 130.55 200.55 129.7 201.3" fill="#381405" fill-rule="evenodd" stroke="none"/>
    <path d="M127.1 201.55 Q128.0 200.1 129.2 200.0 130.35 199.9 131.25 201.2 132.1 202.5 132.1 204.45 132.1 206.4 131.25 207.9 130.35 209.3 129.2 209.4 128.0 209.5 127.1 208.25 126.25 206.9 126.25 204.95 126.25 203.0 127.1 201.55" fill="#72361d" fill-rule="evenodd" stroke="none"/>
    <path d="M49.85 172.2 L50.65 172.2 129.9 191.4 Q132.9 197.4 129.25 200.25 L49.1 181.1 Q44.6 175.55 49.85 172.2" fill="#4d1e0b" fill-rule="evenodd" stroke="none"/>
    <path d="M129.7 192.3 L48.9 172.9 49.75 172.15 130.55 191.55 129.7 192.3" fill="#381405" fill-rule="evenodd" stroke="none"/>
    <path d="M127.1 192.55 Q128.0 191.1 129.2 191.0 130.35 190.9 131.25 192.2 132.1 193.5 132.1 195.45 132.1 197.4 131.25 198.9 130.35 200.3 129.2 200.4 128.0 200.5 127.1 199.25 126.25 197.9 126.25 195.95 126.25 194.0 127.1 192.55" fill="#72361d" fill-rule="evenodd" stroke="none"/>
    <path d="M49.85 163.35 L50.65 163.35 129.9 182.55 Q132.9 188.55 129.25 191.4 L49.1 172.25 Q44.6 166.7 49.85 163.35" fill="#4d1e0b" fill-rule="evenodd" stroke="none"/>
    <path d="M129.7 183.45 L48.9 164.05 49.75 163.3 130.55 182.7 129.7 183.45" fill="#381405" fill-rule="evenodd" stroke="none"/>
    <path d="M127.1 183.7 Q128.0 182.25 129.2 182.15 130.35 182.05 131.25 183.35 132.1 184.65 132.1 186.6 132.1 188.55 131.25 190.05 130.35 191.45 129.2 191.55 128.0 191.65 127.1 190.4 126.25 189.05 126.25 187.1 126.25 185.15 127.1 183.7" fill="#72361d" fill-rule="evenodd" stroke="none"/>
    <path d="M49.85 154.3 L50.65 154.3 129.9 173.5 Q132.9 179.5 129.25 182.35 L49.1 163.2 Q44.6 157.65 49.85 154.3" fill="#4d1e0b" fill-rule="evenodd" stroke="none"/>
    <path d="M78.7 167.95 L78.7 198.75 64.05 195.25 64.05 164.45 78.7 167.95" fill="#381405" fill-rule="evenodd" stroke="none"/>
    <path d="M129.7 174.4 L48.9 155.0 49.75 154.25 130.55 173.65 129.7 174.4" fill="#381405" fill-rule="evenodd" stroke="none"/>
    <path d="M121.7 173.2 L122.05 173.65 Q122.9 174.95 122.9 176.9 122.9 178.85 122.05 180.35 L121.05 181.45 Q120.9 181.55 120.8 181.6 121.25 181.75 121.7 182.25 L122.05 182.7 Q122.9 184.0 122.9 185.95 122.9 187.9 122.05 189.4 L121.15 190.45 121.0 190.55 121.7 191.1 122.05 191.55 Q122.9 192.85 122.9 194.8 122.9 196.75 122.05 198.25 L121.15 199.3 120.85 199.5 121.7 200.1 122.05 200.55 Q122.9 201.85 122.9 203.8 122.9 205.75 122.05 207.25 L121.1 208.35 120.95 208.45 121.7 209.0 122.05 209.45 Q122.9 210.75 122.9 212.7 122.9 214.65 122.05 216.15 L121.15 217.2 120.85 217.4 121.7 218.0 122.05 218.45 Q122.9 219.75 122.9 221.7 122.9 223.65 122.05 225.15 L121.05 226.25 119.5 226.65 118.45 226.15 116.95 227.25 111.65 228.5 Q110.95 229.05 110.1 229.0 108.95 228.9 108.05 227.5 107.2 226.0 107.2 224.05 107.2 222.1 108.05 220.8 108.6 220.0 109.25 219.75 L108.05 218.5 Q107.2 217.0 107.2 215.05 107.2 213.1 108.05 211.8 108.55 211.05 109.15 210.8 L108.05 209.6 Q107.2 208.1 107.2 206.15 107.2 204.2 108.05 202.9 108.6 202.1 109.25 201.85 L108.05 200.6 Q107.2 199.1 107.2 197.15 107.2 195.2 108.05 193.9 L109.1 192.9 108.05 191.75 Q107.2 190.25 107.2 188.3 107.2 186.35 108.05 185.05 108.65 184.2 109.3 183.95 108.65 183.6 108.05 182.7 107.2 181.2 107.2 179.25 107.2 177.3 108.05 176.0 108.95 174.7 110.1 174.8 L110.6 174.9 120.6 172.5 Q121.2 172.65 121.7 173.2" fill="#381405" fill-rule="evenodd" stroke="none"/>
    <path d="M127.1 174.65 Q128.0 173.2 129.2 173.1 130.35 173.0 131.25 174.3 132.1 175.6 132.1 177.55 132.1 179.5 131.25 181.0 130.35 182.4 129.2 182.5 128.0 182.6 127.1 181.35 126.25 180.0 126.25 178.05 126.25 176.1 127.1 174.65" fill="#72361d" fill-rule="evenodd" stroke="none"/>
    <path d="M119.75 181.45 L119.5 181.6 Q119.95 181.75 120.4 182.25 L110.35 184.65 109.65 184.1 110.3 183.7 110.35 183.7 119.75 181.45 M119.85 190.45 L119.7 190.55 120.4 191.1 110.35 193.5 109.85 193.05 110.35 192.7 119.85 190.45 M119.85 199.3 L119.55 199.5 120.4 200.1 110.35 202.5 109.7 202.0 110.4 201.55 119.85 199.3 M119.8 208.35 L119.65 208.45 120.4 209.0 110.35 211.4 109.8 210.95 110.35 210.6 119.8 208.35 M119.85 217.2 L119.55 217.4 120.4 218.0 110.35 220.4 109.7 219.9 110.4 219.45 119.85 217.2 M109.3 174.9 L119.3 172.5 Q119.9 172.65 120.4 173.2 L110.35 175.6 Q109.85 175.1 109.3 174.9" fill="#381405" fill-rule="evenodd" stroke="none"/>
    <path d="M120.4 182.25 L120.75 182.7 Q121.6 184.0 121.6 185.95 121.6 187.9 120.75 189.4 L119.85 190.45 110.35 192.7 110.9 192.1 Q111.75 190.75 111.75 188.8 111.75 186.85 110.9 185.4 L110.35 184.65 120.4 182.25 M120.4 191.1 L120.75 191.55 Q121.6 192.85 121.6 194.8 121.6 196.75 120.75 198.25 L119.85 199.3 110.4 201.55 110.9 200.95 Q111.75 199.6 111.75 197.65 111.75 195.7 110.9 194.25 L110.35 193.5 120.4 191.1 M120.4 200.1 L120.75 200.55 Q121.6 201.85 121.6 203.8 121.6 205.75 120.75 207.25 L119.8 208.35 110.35 210.6 110.9 209.95 Q111.75 208.6 111.75 206.65 111.75 204.7 110.9 203.25 L110.35 202.5 120.4 200.1 M120.4 209.0 L120.75 209.45 Q121.6 210.75 121.6 212.7 121.6 214.65 120.75 216.15 L119.85 217.2 110.4 219.45 110.9 218.85 Q111.75 217.5 111.75 215.55 111.75 213.6 110.9 212.15 L110.35 211.4 120.4 209.0 M120.4 218.0 L120.75 218.45 Q121.6 219.75 121.6 221.7 121.6 223.65 120.75 225.15 L119.75 226.25 118.2 226.65 117.15 226.15 115.65 227.25 110.35 228.5 110.9 227.85 Q111.75 226.5 111.75 224.55 111.75 222.6 110.9 221.15 L110.35 220.4 120.4 218.0 M120.4 173.2 L120.75 173.65 Q121.6 174.95 121.6 176.9 121.6 178.85 120.75 180.35 L119.75 181.45 110.35 183.7 110.4 183.7 110.9 183.05 Q111.75 181.7 111.75 179.75 111.75 177.8 110.9 176.35 L110.35 175.6 120.4 173.2" fill="#4d1e0b" fill-rule="evenodd" stroke="none"/>
    <path d="M110.35 228.5 Q109.65 229.05 108.8 229.0 107.65 228.9 106.75 227.5 105.9 226.0 105.9 224.05 105.9 222.1 106.75 220.8 107.3 220.0 107.95 219.75 L106.75 218.5 Q105.9 217.0 105.9 215.05 105.9 213.1 106.75 211.8 107.25 211.05 107.85 210.8 L106.75 209.6 Q105.9 208.1 105.9 206.15 105.9 204.2 106.75 202.9 107.3 202.1 107.95 201.85 L106.75 200.6 Q105.9 199.1 105.9 197.15 105.9 195.2 106.75 193.9 L107.8 192.9 106.75 191.75 Q105.9 190.25 105.9 188.3 105.9 186.35 106.75 185.05 107.35 184.2 108.0 183.95 107.35 183.6 106.75 182.7 105.9 181.2 105.9 179.25 105.9 177.3 106.75 176.0 107.65 174.7 108.8 174.8 L109.3 174.9 Q109.85 175.1 110.35 175.6 L110.9 176.35 Q111.75 177.8 111.75 179.75 111.75 181.7 110.9 183.05 L110.4 183.7 110.35 183.7 110.3 183.7 109.65 184.1 110.35 184.65 110.9 185.4 Q111.75 186.85 111.75 188.8 111.75 190.75 110.9 192.1 L110.35 192.7 109.85 193.05 110.35 193.5 110.9 194.25 Q111.75 195.7 111.75 197.65 111.75 199.6 110.9 200.95 L110.4 201.55 109.7 202.0 110.35 202.5 110.9 203.25 Q111.75 204.7 111.75 206.65 111.75 208.6 110.9 209.95 L110.35 210.6 109.8 210.95 110.35 211.4 110.9 212.15 Q111.75 213.6 111.75 215.55 111.75 217.5 110.9 218.85 L110.4 219.45 109.7 219.9 110.35 220.4 110.9 221.15 Q111.75 222.6 111.75 224.55 111.75 226.5 110.9 227.85 L110.35 228.5" fill="#72361d" fill-rule="evenodd" stroke="none"/>
    <path d="M115.45 173.5 L113.05 100.15 187.15 156.2 115.45 173.5" fill="#4d1e0b" fill-rule="evenodd" stroke="none"/>
    <path d="M122.15 173.3 L41.35 153.8 113.2 100.0 122.15 173.3" fill="#431908" fill-rule="evenodd" stroke="none"/>
    <path d="M116.05 101.8 L125.25 171.1 121.6 173.65 117.5 172.8 110.05 102.3 109.5 102.0 113.1 99.35 116.05 101.8" fill="#62331f" fill-rule="evenodd" stroke="none"/>
    <path d="M114.6 104.1 L44.6 155.5 39.75 153.9 111.7 100.2 114.6 104.1" fill="#62331f" fill-rule="evenodd" stroke="none"/>
    <path d="M78.1 167.35 L78.1 198.15 63.45 194.65 63.45 163.85 78.1 167.35" fill="#62331f" fill-rule="evenodd" stroke="none"/>
    <path d="M76.4 168.85 L76.4 195.4 65.2 192.45 65.2 165.95 76.4 168.85" fill="#381405" fill-rule="evenodd" stroke="none"/>
    <path d="M76.4 169.95 L66.9 167.5 67.2 191.2 65.2 192.45 65.2 165.95 76.4 168.85 76.4 169.95" fill="#250c02" fill-rule="evenodd" stroke="none"/>
    <path d="M106.0 174.9 L106.0 205.7 91.35 202.2 91.35 171.4 106.0 174.9" fill="#381405" fill-rule="evenodd" stroke="none"/>
    <path d="M105.4 174.3 L105.4 205.1 90.75 201.6 90.75 170.8 105.4 174.3" fill="#62331f" fill-rule="evenodd" stroke="none"/>
    <path d="M103.7 175.8 L103.7 202.35 92.5 199.4 92.5 172.9 103.7 175.8" fill="#381405" fill-rule="evenodd" stroke="none"/>
    <path d="M103.7 176.9 L94.2 174.45 94.5 198.15 92.5 199.4 92.5 172.9 103.7 175.8 103.7 176.9" fill="#250c02" fill-rule="evenodd" stroke="none"/>
    <path d="M113.95 104.2 L183.95 155.6 188.8 154.0 116.85 100.3 113.95 104.2" fill="#62331f" fill-rule="evenodd" stroke="none"/>
    <path d="M173.15 159.45 L172.9 159.95 Q172.35 161.35 172.35 163.25 172.35 165.2 172.9 166.5 L173.55 167.5 173.7 167.6 173.15 168.35 172.9 168.8 Q172.35 170.25 172.35 172.15 172.35 174.1 172.9 175.4 L173.5 176.35 173.6 176.4 173.15 177.0 172.9 177.5 Q172.35 178.95 172.35 180.85 172.35 182.75 172.9 184.1 L173.5 185.05 173.7 185.15 173.15 185.85 172.9 186.35 Q172.35 187.8 172.35 189.7 172.35 191.6 172.9 192.95 L173.5 193.9 173.6 193.95 173.15 194.6 172.9 195.1 Q172.35 196.55 172.35 198.45 172.35 200.35 172.9 201.7 L173.5 202.6 173.7 202.75 173.15 203.45 172.9 203.95 Q172.35 205.35 172.35 207.3 172.35 209.2 172.9 210.5 L173.55 211.5 174.55 211.65 175.2 211.0 176.2 211.9 179.6 212.3 Q180.05 212.75 180.6 212.6 181.35 212.35 181.9 210.85 182.45 209.25 182.45 207.35 182.45 205.4 181.9 204.25 L181.15 203.4 181.9 202.0 Q182.45 200.4 182.45 198.5 182.45 196.6 181.9 195.4 L181.2 194.55 181.9 193.25 Q182.45 191.65 182.45 189.75 182.45 187.85 181.9 186.65 L181.15 185.85 181.9 184.4 Q182.45 182.85 182.45 180.9 182.45 179.0 181.9 177.8 L181.25 177.0 181.9 175.7 Q182.45 174.15 182.45 172.2 182.45 170.3 181.9 169.15 L181.1 168.25 181.9 166.8 Q182.45 165.25 182.45 163.35 182.45 161.4 181.9 160.25 181.35 159.1 180.6 159.35 L180.3 159.5 173.85 158.6 Q173.45 158.85 173.15 159.45" fill="#381405" fill-rule="evenodd" stroke="none"/>
    <path d="M179.95 160.55 L174.25 159.1 Q174.7 158.65 175.15 158.5 L180.7 159.95 179.95 160.55 M174.5 167.25 L179.85 168.65 180.0 168.65 180.6 169.05 Q180.3 169.25 179.95 169.6 L174.25 168.15 175.0 167.6 174.75 167.45 174.5 167.25 M179.95 177.65 L180.4 178.0 179.95 178.45 174.3 177.0 174.8 176.55 174.65 176.45 174.45 176.25 179.95 177.65 M179.9 186.5 L180.55 186.95 179.95 187.45 174.25 186.0 174.95 185.5 174.65 185.3 174.45 185.1 179.9 186.5 M179.95 195.55 L180.45 195.9 179.95 196.35 174.25 194.9 174.85 194.45 174.7 194.35 174.5 194.15 179.95 195.55 M179.9 204.4 L180.55 204.85 179.95 205.35 174.25 203.9 174.95 203.4 174.65 203.2 174.45 203.0 179.9 204.4" fill="#381405" fill-rule="evenodd" stroke="none"/>
    <path d="M179.95 160.55 L179.45 161.3 Q178.7 162.75 178.7 164.7 178.7 166.65 179.45 168.0 L179.85 168.65 174.5 167.25 173.85 166.35 Q173.05 164.85 173.05 162.9 173.05 160.95 173.85 159.65 L174.15 159.2 174.25 159.1 179.95 160.55 M179.95 169.6 L179.45 170.35 Q178.7 171.8 178.7 173.75 178.7 175.7 179.45 177.05 L179.95 177.65 174.45 176.25 173.85 175.4 Q173.05 173.9 173.05 171.95 173.05 170.0 173.85 168.7 L174.15 168.25 174.25 168.15 179.95 169.6 M179.95 178.45 L179.45 179.2 Q178.7 180.65 178.7 182.6 178.7 184.55 179.45 185.9 L179.9 186.5 174.45 185.1 173.85 184.25 Q173.05 182.75 173.05 180.8 173.05 178.85 173.85 177.55 L174.15 177.1 174.3 177.0 179.95 178.45 M179.95 187.45 L179.45 188.2 Q178.7 189.65 178.7 191.6 178.7 193.55 179.45 194.9 L179.95 195.55 174.5 194.15 173.85 193.25 Q173.05 191.75 173.05 189.8 173.05 187.85 173.85 186.55 L174.15 186.1 174.25 186.0 179.95 187.45 M179.95 196.35 L179.45 197.1 Q178.7 198.55 178.7 200.5 178.7 202.45 179.45 203.8 L179.9 204.4 174.45 203.0 173.85 202.15 Q173.05 200.65 173.05 198.7 173.05 196.75 173.85 195.45 L174.15 195.0 174.25 194.9 179.95 196.35 M179.95 205.35 L179.45 206.1 Q178.7 207.55 178.7 209.5 178.7 211.45 179.45 212.8 L179.95 213.45 175.1 212.2 173.85 211.2 173.85 211.15 Q173.05 209.65 173.05 207.7 173.05 205.75 173.85 204.45 L174.15 204.0 174.25 203.9 179.95 205.35" fill="#4d1e0b" fill-rule="evenodd" stroke="none"/>
    <path d="M179.85 168.65 L179.45 168.0 Q178.7 166.65 178.7 164.7 178.7 162.75 179.45 161.3 L179.95 160.55 180.7 159.95 180.9 159.85 181.35 159.75 Q182.25 159.65 182.9 160.55 L183.25 160.95 Q184.0 162.25 184.0 164.2 184.0 166.15 183.25 167.65 L182.1 168.9 183.25 170.0 Q184.0 171.3 184.0 173.25 184.0 175.2 183.25 176.7 L182.3 177.85 183.25 178.85 Q184.0 180.15 184.0 182.1 184.0 184.05 183.25 185.55 L182.15 186.8 Q182.75 187.05 183.25 187.85 184.0 189.15 184.0 191.1 184.0 193.05 183.25 194.55 L182.25 195.75 183.25 196.75 Q184.0 198.05 184.0 200.0 184.0 201.95 183.25 203.45 L182.15 204.7 Q182.75 204.95 183.25 205.75 184.0 207.05 184.0 209.0 184.0 210.95 183.25 212.45 182.4 213.85 181.35 213.95 L181.25 213.95 180.35 213.75 179.95 213.45 179.45 212.8 Q178.7 211.45 178.7 209.5 178.7 207.55 179.45 206.1 L179.95 205.35 180.55 204.85 179.9 204.4 179.45 203.8 Q178.7 202.45 178.7 200.5 178.7 198.55 179.45 197.1 L179.95 196.35 180.45 195.9 179.95 195.55 179.45 194.9 Q178.7 193.55 178.7 191.6 178.7 189.65 179.45 188.2 L179.95 187.45 180.55 186.95 179.9 186.5 179.45 185.9 Q178.7 184.55 178.7 182.6 178.7 180.65 179.45 179.2 L179.95 178.45 180.4 178.0 179.95 177.65 179.45 177.05 Q178.7 175.7 178.7 173.75 178.7 171.8 179.45 170.35 L179.95 169.6 Q180.3 169.25 180.6 169.05 L180.0 168.65 179.85 168.65" fill="#72361d" fill-rule="evenodd" stroke="none"/>
    <path d="M59.25 156.75 L59.5 157.25 Q60.05 158.7 60.05 160.65 60.05 162.6 59.5 163.95 L58.85 164.95 58.7 165.05 59.25 165.8 59.5 166.3 Q60.05 167.75 60.05 169.7 60.05 171.65 59.5 173.0 L58.9 173.95 58.8 174.0 59.25 174.65 59.5 175.15 Q60.05 176.6 60.05 178.55 60.05 180.5 59.5 181.85 L58.9 182.8 58.7 182.95 59.25 183.65 59.5 184.15 Q60.05 185.6 60.05 187.55 60.05 189.5 59.5 190.85 L58.9 191.85 58.8 191.9 59.25 192.55 59.5 193.05 Q60.05 194.5 60.05 196.45 60.05 198.4 59.5 199.75 L58.9 200.7 58.7 200.85 59.25 201.55 59.5 202.05 Q60.05 203.5 60.05 205.45 60.05 207.4 59.5 208.75 L58.85 209.75 57.85 209.9 57.2 209.25 56.2 210.15 52.8 210.6 Q52.35 211.05 51.8 210.9 51.05 210.65 50.5 209.1 49.95 207.5 49.95 205.55 49.95 203.6 50.5 202.4 50.85 201.7 51.25 201.55 L50.5 200.1 Q49.95 198.5 49.95 196.55 49.95 194.6 50.5 193.4 50.8 192.75 51.2 192.55 50.8 192.1 50.5 191.2 49.95 189.6 49.95 187.65 49.95 185.7 50.5 184.5 50.85 183.8 51.25 183.65 L50.5 182.2 Q49.95 180.6 49.95 178.65 49.95 176.7 50.5 175.5 50.8 174.9 51.15 174.65 L50.5 173.35 Q49.95 171.75 49.95 169.8 49.95 167.85 50.5 166.65 50.85 165.9 51.3 165.75 50.85 165.3 50.5 164.3 49.95 162.7 49.95 160.75 49.95 158.8 50.5 157.6 51.05 156.45 51.8 156.7 L52.1 156.85 58.55 155.9 59.25 156.75" fill="#381405" fill-rule="evenodd" stroke="none"/>
    <path d="M51.7 158.25 L57.25 156.8 Q57.7 156.95 58.15 157.4 L52.45 158.85 51.7 158.25 M57.9 165.55 L57.65 165.75 57.4 165.9 58.15 166.45 52.45 167.9 51.8 167.35 52.4 166.95 52.55 166.95 57.9 165.55 M57.95 174.55 L57.75 174.75 57.6 174.85 58.1 175.3 52.45 176.75 52.0 176.3 52.45 175.95 57.95 174.55 M57.95 183.4 L57.75 183.6 57.45 183.8 58.15 184.3 52.45 185.75 51.85 185.25 52.5 184.8 57.95 183.4 M57.9 192.45 L57.7 192.65 57.55 192.75 Q57.85 192.85 58.15 193.2 L52.45 194.65 51.95 194.2 52.45 193.85 57.9 192.45 M57.95 201.3 L57.75 201.5 57.45 201.7 58.15 202.2 52.45 203.65 51.85 203.15 52.5 202.7 57.95 201.3" fill="#381405" fill-rule="evenodd" stroke="none"/>
    <path d="M58.15 157.4 L58.25 157.5 58.55 157.95 Q59.35 159.25 59.35 161.2 59.35 163.15 58.55 164.65 L57.9 165.55 52.55 166.95 52.95 166.3 Q53.7 164.95 53.7 163.0 53.7 161.05 52.95 159.6 L52.45 158.85 58.15 157.4 M58.15 166.45 L58.25 166.55 58.55 167.0 Q59.35 168.3 59.35 170.25 59.35 172.2 58.55 173.7 L57.95 174.55 52.45 175.95 52.95 175.35 Q53.7 174.0 53.7 172.05 53.7 170.1 52.95 168.65 L52.45 167.9 58.15 166.45 M58.1 175.3 L58.25 175.4 58.55 175.85 Q59.35 177.15 59.35 179.1 59.35 181.05 58.55 182.55 L57.95 183.4 52.5 184.8 52.95 184.2 Q53.7 182.85 53.7 180.9 53.7 178.95 52.95 177.5 L52.45 176.75 58.1 175.3 M58.15 184.3 L58.25 184.4 58.55 184.85 Q59.35 186.15 59.35 188.1 59.35 190.05 58.55 191.55 L57.9 192.45 52.45 193.85 52.95 193.2 Q53.7 191.85 53.7 189.9 53.7 187.95 52.95 186.5 L52.45 185.75 58.15 184.3 M58.15 193.2 L58.25 193.3 58.55 193.75 Q59.35 195.05 59.35 197.0 59.35 198.95 58.55 200.45 L57.95 201.3 52.5 202.7 52.95 202.1 Q53.7 200.75 53.7 198.8 53.7 196.85 52.95 195.4 L52.45 194.65 58.15 193.2 M58.15 202.2 L58.25 202.3 58.55 202.75 Q59.35 204.05 59.35 206.0 59.35 207.95 58.55 209.45 L58.55 209.5 57.3 210.5 52.45 211.75 52.95 211.1 Q53.7 209.75 53.7 207.8 53.7 205.85 52.95 204.4 L52.45 203.65 58.15 202.2" fill="#4d1e0b" fill-rule="evenodd" stroke="none"/>
    <path d="M52.45 211.75 L52.05 212.05 51.15 212.25 51.05 212.25 Q50.0 212.15 49.15 210.75 48.4 209.25 48.4 207.3 48.4 205.35 49.15 204.05 49.65 203.25 50.25 203.0 L49.15 201.75 Q48.4 200.25 48.4 198.3 48.4 196.35 49.15 195.05 49.6 194.3 50.15 194.05 49.6 193.65 49.15 192.85 48.4 191.35 48.4 189.4 48.4 187.45 49.15 186.15 49.65 185.35 50.25 185.1 L49.15 183.85 Q48.4 182.35 48.4 180.4 48.4 178.45 49.15 177.15 L50.1 176.15 49.15 175.0 Q48.4 173.5 48.4 171.55 48.4 169.6 49.15 168.3 49.7 167.45 50.3 167.2 L49.15 165.95 Q48.4 164.45 48.4 162.5 48.4 160.55 49.15 159.25 L49.5 158.85 Q50.15 157.95 51.05 158.05 L51.5 158.15 51.7 158.25 52.45 158.85 52.95 159.6 Q53.7 161.05 53.7 163.0 53.7 164.95 52.95 166.3 L52.55 166.95 52.4 166.95 51.8 167.35 52.45 167.9 52.95 168.65 Q53.7 170.1 53.7 172.05 53.7 174.0 52.95 175.35 L52.45 175.95 52.0 176.3 52.45 176.75 52.95 177.5 Q53.7 178.95 53.7 180.9 53.7 182.85 52.95 184.2 L52.5 184.8 51.85 185.25 52.45 185.75 52.95 186.5 Q53.7 187.95 53.7 189.9 53.7 191.85 52.95 193.2 L52.45 193.85 51.95 194.2 52.45 194.65 52.95 195.4 Q53.7 196.85 53.7 198.8 53.7 200.75 52.95 202.1 L52.5 202.7 51.85 203.15 52.45 203.65 52.95 204.4 Q53.7 205.85 53.7 207.8 53.7 209.75 52.95 211.1 L52.45 211.75" fill="#72361d" fill-rule="evenodd" stroke="none"/>
    <path d="M434.55 14.8 L434.55 410.55 Q434.55 416.85 428.1 416.85 L23.0 416.85 Q16.55 416.85 16.55 410.55 L16.55 14.8 Q16.55 8.5 23.0 8.5 L428.1 8.5 Q434.55 8.5 434.55 14.8" fill="url(#gradient0)" fill-rule="evenodd" stroke="none"/>
    <path d="M427.85 0.0 L427.85 11.7 375.1 11.7 373.3 13.7 Q370.4 17.6 369.7 22.75 L369.7 36.05 Q369.7 45.95 361.9 45.95 L89.25 45.95 Q81.4 45.95 81.4 36.05 L81.4 22.75 Q80.75 17.6 77.85 13.7 L76.05 11.7 17.6 11.7 16.65 11.75 16.65 0.0 17.6 0.0 427.85 0.0" fill="#170500" fill-opacity="0.43137255" fill-rule="evenodd" stroke="none"/>
  </g>
  <defs>
    <radialGradient cx="0" cy="0" gradientTransform="matrix(0.3541, 0.0, 0.0, 0.3541, 225.55, 212.7)" gradientUnits="userSpaceOnUse" id="gradient0" r="819.2" spreadMethod="pad">
      <stop offset="0.29411764705882354" stop-color="#9a6b37" stop-opacity="0.31764707"/>
      <stop offset="0.9294117647058824" stop-color="#100800"/>
    </radialGradient>
  </defs>
</svg>
