<?xml version="1.0" encoding="UTF-8" standalone="no"?>
<svg xmlns:ffdec="https://www.free-decompiler.com/flash" xmlns:xlink="http://www.w3.org/1999/xlink" ffdec:objectType="shape" height="431.85px" width="442.05px" xmlns="http://www.w3.org/2000/svg">
  <g transform="matrix(1.0, 0.0, 0.0, 1.0, -0.15, 0.05)">
    <path d="M81.85 9.0 Q76.55 13.15 68.5 10.95 59.85 8.6 50.65 9.05 L48.15 8.9 Q34.7 6.8 21.4 6.9 15.3 6.95 11.15 11.05 8.95 13.25 7.55 15.9 L6.1 17.65 Q5.25 17.1 4.95 15.95 L4.75 15.1 Q4.65 14.2 5.0 13.35 5.5 12.15 6.25 11.1 L7.65 9.4 7.9 9.0 8.05 8.75 9.55 6.95 Q10.95 5.2 13.0 4.4 14.95 3.55 16.95 2.95 L22.65 1.55 37.65 3.1 52.75 4.65 64.7 5.7 69.5 6.15 80.55 7.7 Q81.65 7.9 81.85 9.0" fill="#5d4c48" fill-opacity="0.2901961" fill-rule="evenodd" stroke="none"/>
    <path d="M423.7 0.05 Q442.15 0.05 442.15 18.05 L442.15 413.8 Q442.15 431.8 423.7 431.8 L18.6 431.8 Q0.15 431.8 0.15 413.8 L0.15 18.05 Q0.15 0.05 18.6 0.05 L423.7 0.05 M430.15 18.05 Q430.15 11.75 423.7 11.75 L18.6 11.75 Q12.15 11.75 12.15 18.05 L12.15 413.8 Q12.15 420.1 18.6 420.1 L423.7 420.1 Q430.15 420.1 430.15 413.8 L430.15 18.05" fill="#7a633a" fill-rule="evenodd" stroke="none"/>
    <path d="M0.15 413.8 L0.15 412.9 Q0.6 430.0 18.6 430.0 L423.7 430.0 Q441.7 430.0 442.15 412.9 L442.15 413.8 Q442.15 431.8 423.7 431.8 L18.6 431.8 Q0.15 431.8 0.15 413.8 M430.15 17.85 Q430.05 11.75 423.7 11.75 L18.6 11.75 Q12.25 11.75 12.15 17.85 L12.15 16.25 Q12.15 9.95 18.6 9.95 L423.7 9.95 Q430.15 9.95 430.15 16.25 L430.15 17.85" fill="#543b0f" fill-rule="evenodd" stroke="none"/>
    <path d="M12.15 414.2 Q12.35 420.1 18.6 420.1 L423.7 420.1 Q429.95 420.1 430.15 414.2 L430.15 415.35 Q430.15 421.65 423.7 421.65 L18.6 421.65 Q12.15 421.65 12.15 415.35 L12.15 414.2 M442.15 18.05 L442.15 18.85 Q441.75 1.6 423.7 1.6 L18.6 1.6 Q0.55 1.6 0.15 18.85 L0.15 18.05 Q0.15 0.05 18.6 0.05 L423.7 0.05 Q442.15 0.05 442.15 18.05" fill="#9a855e" fill-rule="evenodd" stroke="none"/>
    <path d="M431.15 18.45 L431.15 414.2 Q431.15 420.5 424.65 420.5 L16.55 420.5 Q10.05 420.5 10.05 414.2 L10.05 18.45 Q10.05 12.6 15.7 12.2 12.15 13.4 12.15 18.05 L12.15 413.8 Q12.15 420.1 18.6 420.1 L423.7 420.1 Q430.15 420.1 430.15 413.8 L430.15 18.05 Q430.15 13.95 427.45 12.55 431.15 13.7 431.15 18.45 M424.65 0.45 L16.55 0.45 12.05 0.75 Q14.95 0.05 18.6 0.05 L423.7 0.05 Q429.35 0.05 433.3 1.75 429.6 0.45 424.65 0.45" fill="#9a855e" fill-rule="evenodd" stroke="none"/>
    <path d="M365.05 13.75 Q362.2 17.65 361.55 22.8 L361.55 36.1 Q361.55 46.0 353.95 46.0 L88.35 46.0 Q80.75 46.0 80.75 36.1 L80.75 22.8 Q80.1 17.65 77.25 13.75 74.15 9.55 69.95 8.9 L69.95 8.85 80.75 8.85 81.95 8.7 Q83.75 5.05 88.35 5.05 L353.95 5.05 Q358.55 5.05 360.4 8.7 L361.55 8.85 372.35 8.85 372.35 8.9 Q368.15 9.55 365.05 13.75" fill="#7a633a" fill-rule="evenodd" stroke="none"/>
    <path d="M242.35 13.8 Q201.65 19.9 189.55 24.95 179.85 29.05 173.35 21.7 172.3 20.45 172.1 18.8 171.55 13.15 167.1 9.65 L158.65 10.0 156.8 10.25 Q153.2 10.95 152.2 7.65 152.05 7.05 152.25 6.55 152.7 5.6 153.75 5.5 L153.9 5.35 154.0 5.25 154.15 5.0 154.4 4.7 155.1 4.4 156.05 4.25 156.1 4.1 156.3 3.85 156.55 3.6 Q156.95 3.25 157.5 3.25 158.1 3.25 158.55 3.7 L158.9 4.2 159.0 4.3 159.1 4.35 159.3 4.35 159.55 4.3 159.75 4.2 Q160.4 3.65 161.2 3.6 L164.65 2.9 Q166.4 2.45 167.05 4.0 L167.1 4.55 167.2 4.65 167.45 4.8 167.75 4.9 168.4 5.0 168.75 5.05 169.3 5.1 169.5 5.0 169.85 4.6 170.3 3.95 Q170.85 3.3 171.7 3.25 172.65 3.2 173.1 3.95 L173.4 4.5 173.6 4.5 175.7 4.0 177.85 2.85 Q179.1 2.05 180.5 1.5 L181.2 1.35 Q186.3 1.7 189.9 5.55 192.55 8.5 196.5 6.8 203.1 3.9 210.15 2.8 218.7 1.5 222.05 4.65 225.4 7.75 254.2 7.75 283.0 7.7 242.35 13.8" fill="#693434" fill-opacity="0.21176471" fill-rule="evenodd" stroke="none"/>
    <path d="M289.5 4.45 Q294.1 3.65 298.6 5.0 L308.05 7.7 Q310.1 8.25 310.65 10.5 315.35 11.25 315.45 15.7 315.5 19.35 311.9 20.55 291.6 27.35 269.7 25.6 L263.8 26.1 Q254.4 28.35 248.25 22.0 241.85 25.9 235.6 23.0 233.5 22.05 234.45 19.9 238.0 11.6 247.85 8.9 L269.05 3.35 274.3 2.5 Q279.4 2.15 284.1 3.95 286.6 4.95 289.5 4.45" fill="#5d4c48" fill-opacity="0.2901961" fill-rule="evenodd" stroke="none"/>
    <path d="M371.5 3.4 L373.45 3.6 374.4 3.75 375.95 3.9 Q376.7 6.45 372.95 6.8 368.75 7.15 364.8 8.85 360.05 10.85 355.85 13.5 L352.45 15.9 Q348.1 19.4 342.65 17.4 342.1 17.2 341.5 17.6 L330.35 24.55 Q329.5 25.05 328.4 24.85 325.7 24.35 324.05 22.0 322.05 19.25 318.6 21.05 308.2 26.4 296.7 25.75 295.25 25.65 294.1 24.65 290.65 21.6 288.1 17.65 286.1 14.65 282.4 13.75 281.7 13.6 282.1 12.85 284.1 9.0 288.75 8.65 293.9 8.3 298.55 10.9 301.1 12.35 304.05 12.6 310.25 13.15 316.25 11.2 L319.15 10.6 335.45 8.2 335.55 8.05 335.7 7.9 335.85 7.75 336.05 7.65 336.2 7.6 336.45 7.6 336.85 7.7 337.1 7.85 337.35 8.1 337.45 8.25 337.6 8.35 337.7 8.5 Q341.3 9.35 344.75 8.1 349.15 6.5 353.75 5.5 L357.75 4.55 Q362.3 3.35 367.0 3.45 L368.45 3.3 371.15 3.35 371.5 3.4" fill="#9a855e" fill-opacity="0.2901961" fill-rule="evenodd" stroke="none"/>
    <path d="M129.45 15.75 Q130.2 16.3 131.15 16.1 137.25 15.1 139.7 19.85 141.2 22.65 139.55 25.35 138.25 27.35 136.2 28.8 125.1 36.35 111.8 35.35 107.85 35.05 105.25 32.1 L102.7 32.6 Q97.55 34.2 96.15 28.8 L95.2 25.45 Q94.55 23.2 92.85 21.6 L88.25 16.9 Q85.35 13.65 81.75 11.75 79.95 10.8 78.9 8.95 77.7 6.8 80.15 6.0 83.15 4.95 86.2 4.45 95.3 2.9 102.95 6.8 105.4 8.05 107.25 10.15 110.45 13.8 115.85 12.75 123.45 11.25 129.45 15.75" fill="#9a855e" fill-opacity="0.2901961" fill-rule="evenodd" stroke="none"/>
    <path d="M363.8 12.15 Q364.7 10.9 365.7 10.0 L369.15 10.0 Q366.9 11.25 365.05 13.75 362.2 17.65 361.55 22.8 L361.55 36.1 Q361.55 46.0 353.95 46.0 L88.35 46.0 Q80.75 46.0 80.75 36.1 L80.75 22.8 Q80.1 17.65 77.25 13.75 75.4 11.25 73.15 10.0 L76.85 10.0 78.75 12.15 Q81.55 16.05 82.2 21.2 L82.2 34.5 Q82.2 44.4 89.75 44.4 L352.8 44.4 Q360.3 44.4 360.3 34.5 L360.3 21.2 Q360.95 16.05 363.8 12.15 M359.1 6.9 L359.35 7.15 359.2 7.1 359.1 6.9" fill="#543b0f" fill-rule="evenodd" stroke="none"/>
    <path d="M442.2 6.6 L442.2 17.85 Q442.2 24.5 435.9 24.5 L425.25 24.5 Q418.95 24.5 418.95 17.85 L418.95 6.6 Q418.95 0.0 425.25 0.0 L435.9 0.0 Q442.2 0.0 442.2 6.6" fill="#7a633a" fill-rule="evenodd" stroke="none"/>
    <path d="M421.75 0.7 Q423.15 -0.05 425.25 -0.05 L435.9 -0.05 Q441.45 -0.05 442.1 5.1 440.85 1.7 434.9 1.45 L419.4 1.65 421.75 0.6 421.75 0.7" fill="#9a855e" fill-rule="evenodd" stroke="none"/>
    <path d="M92.9 7.0 Q95.3 8.65 96.45 11.8 97.45 14.55 99.65 16.55 L104.95 21.6 Q105.2 21.8 105.1 22.25 104.0 26.25 101.1 29.2 99.7 30.65 97.85 29.7 L96.8 31.4 96.0 33.65 95.2 35.9 Q94.7 37.15 93.6 37.65 L92.85 37.85 Q91.0 40.95 88.25 42.95 87.6 43.45 87.45 42.7 87.05 40.8 87.15 38.85 87.35 34.4 88.8 30.25 90.25 26.2 89.9 21.95 89.55 17.25 89.75 12.65 89.9 8.75 92.9 7.0 M92.25 23.0 L92.15 23.25 92.15 23.4 92.3 23.2 92.25 23.0 M90.6 27.35 L90.55 27.55 90.45 27.8 90.45 28.0 90.45 28.1 90.5 27.95 90.6 27.7 90.65 27.5 90.7 27.25 90.7 27.1 90.6 27.35 M99.85 20.55 L100.1 20.85 100.5 21.25 100.75 21.7 100.8 21.9 101.6 22.25 102.05 22.5 102.5 22.7 102.65 22.6 Q102.8 22.05 102.3 21.75 L100.8 20.9 100.1 20.45 99.55 20.1 99.85 20.55 M97.8 18.7 L97.9 18.8 98.15 18.9 98.2 18.85 98.15 18.75 98.05 18.65 98.0 18.55 97.8 18.4 97.7 18.35 97.65 18.35 97.65 18.4 97.7 18.5 97.75 18.6 97.8 18.7 M98.75 26.45 L98.65 26.7 Q99.0 26.85 99.2 26.4 L99.5 25.95 99.8 25.5 Q99.95 25.25 99.75 25.15 L99.55 25.1 99.4 25.45 99.2 25.8 98.95 26.15 98.75 26.45 M89.35 33.45 L89.25 34.0 89.2 34.55 89.1 35.1 89.05 35.45 89.15 35.25 89.25 35.05 89.4 34.85 89.55 34.5 89.7 34.25 89.6 33.95 89.5 33.6 89.45 33.25 89.45 32.9 89.4 32.9 89.35 33.45" fill="#9a855e" fill-opacity="0.2901961" fill-rule="evenodd" stroke="none"/>
    <path d="M11.75 6.8 L12.3 6.95 Q12.5 6.95 12.65 7.1 L12.8 7.25 12.95 7.5 Q6.45 15.15 8.45 25.55 9.6 31.55 9.25 37.75 8.75 47.75 7.7 57.6 6.6 67.55 7.6 77.5 8.0 81.55 5.4 84.45 1.9 81.25 2.15 75.35 2.6 65.1 3.85 55.0 L5.2 44.85 Q6.6 34.6 5.2 24.4 3.75 14.3 10.2 7.4 10.75 6.8 11.4 6.75 L11.75 6.8" fill="#9a855e" fill-opacity="0.2901961" fill-rule="evenodd" stroke="none"/>
    <path d="M6.55 52.1 Q6.15 65.5 7.35 78.7 7.8 83.6 7.65 88.5 L6.95 115.05 Q6.65 128.4 7.25 141.8 L6.9 143.6 6.55 143.85 6.4 143.9 5.2 143.6 4.95 143.45 Q4.1 130.45 4.55 117.4 L5.25 90.85 Q5.45 80.9 3.9 71.15 1.8 57.7 3.65 44.25 4.05 40.95 5.7 38.9 6.75 45.0 6.55 52.1" fill="#5d4c48" fill-opacity="0.2901961" fill-rule="evenodd" stroke="none"/>
    <path d="M369.45 2.55 Q371.85 3.65 369.15 5.65 360.4 12.2 359.1 22.9 358.55 27.45 357.5 31.9 356.5 36.05 356.7 38.25 356.9 40.45 354.5 40.9 L346.6 42.5 Q341.1 43.65 337.1 43.15 L336.8 43.1 Q330.3 42.95 324.45 40.7 324.2 40.6 324.4 40.3 325.45 38.8 327.5 38.35 333.55 36.95 339.3 34.5 L340.5 34.05 Q343.55 32.9 343.75 29.45 343.85 28.2 344.2 27.05 345.4 22.7 344.35 18.2 343.55 14.8 345.75 12.35 346.2 11.8 346.95 11.95 349.35 12.4 349.95 14.85 L350.15 14.3 350.4 13.15 350.85 12.3 Q351.2 11.8 351.75 11.65 L353.1 11.6 355.95 8.3 359.7 4.95 Q362.0 3.1 365.0 2.85 L369.45 2.55" fill="#5d4c48" fill-opacity="0.2901961" fill-rule="evenodd" stroke="none"/>
    <path d="M160.55 9.25 L160.7 9.4 160.2 9.45 159.8 9.4 159.45 9.35 Q159.05 9.3 158.75 9.05 L158.8 8.9 158.8 8.85 159.1 8.85 159.45 8.9 159.8 9.0 160.15 9.05 160.55 9.25" fill="#5d4c48" fill-opacity="0.2901961" fill-rule="evenodd" stroke="none"/>
    <path d="M435.4 344.5 L435.45 344.5 435.6 344.55 435.75 344.65 435.8 344.75 Q435.35 350.9 435.85 357.2 L436.8 369.85 Q437.2 376.2 436.45 382.5 435.75 388.65 434.05 394.35 L433.9 394.4 433.65 394.3 433.4 394.15 433.3 394.05 Q433.95 387.9 434.9 381.7 435.6 377.1 435.4 372.35 435.15 366.05 434.5 359.75 433.9 353.55 434.65 347.35 L435.05 344.7 435.1 344.6 435.2 344.55 435.25 344.55 435.4 344.5" fill="#ffb35f" fill-opacity="0.07058824" fill-rule="evenodd" stroke="none"/>
    <path d="M6.25 7.7 Q9.15 4.8 13.35 3.95 L22.45 2.5 Q26.6 1.4 28.6 4.4 29.05 5.1 28.45 5.55 27.2 6.5 25.75 7.1 20.75 9.2 15.1 9.5 11.0 9.75 8.3 12.4 6.55 14.1 5.95 16.45 5.15 19.6 3.25 21.9 3.0 22.25 2.65 21.9 1.05 20.45 1.3 18.0 1.85 12.05 6.25 7.7" fill="#583232" fill-opacity="0.34117648" fill-rule="evenodd" stroke="none"/>
    <path d="M418.95 17.85 L418.95 10.05 419.75 10.05 419.75 17.05 Q419.75 23.7 426.05 23.7 L430.85 23.7 430.85 24.5 425.25 24.5 Q418.95 24.5 418.95 17.85" fill="#543b0f" fill-rule="evenodd" stroke="none"/>
    <path d="M204.8 420.45 L205.2 420.65 205.45 420.9 205.55 421.05 205.8 421.05 206.6 421.0 207.75 421.15 207.95 421.3 208.0 421.55 207.9 421.75 207.35 422.1 206.6 422.3 205.7 422.4 Q189.2 426.85 171.3 425.85 L166.85 426.3 Q141.6 432.75 115.1 429.0 90.0 425.45 64.2 427.2 L51.75 427.7 51.6 427.45 51.55 427.25 51.5 427.0 51.5 426.75 51.5 426.5 51.5 426.25 Q61.05 422.05 72.7 423.1 L74.8 423.1 Q95.8 421.25 116.25 424.8 L125.1 425.8 Q148.7 427.2 171.25 421.3 175.45 420.2 179.75 420.65 190.75 421.8 201.8 420.55 L204.2 420.25 204.8 420.45" fill="#693434" fill-opacity="0.21176471" fill-rule="evenodd" stroke="none"/>
    <path d="M430.9 421.65 L437.3 418.55 Q443.15 420.35 437.85 424.65 436.7 425.6 435.05 425.75 430.45 426.25 426.0 427.8 423.5 428.7 420.7 429.0 407.7 430.35 394.7 428.65 391.7 428.3 388.75 428.65 381.75 429.55 375.0 428.95 367.0 428.2 359.0 429.2 350.6 430.25 343.2 428.2 342.55 428.05 342.95 427.15 L343.15 426.95 343.8 426.55 346.8 425.8 347.8 425.55 Q330.35 424.55 313.35 424.8 311.7 424.8 311.85 423.55 337.45 420.3 363.15 423.95 L365.05 424.1 Q396.05 423.65 426.75 422.7 428.85 422.6 430.9 421.65" fill="#ffb35f" fill-opacity="0.07058824" fill-rule="evenodd" stroke="none"/>
    <path d="M430.8 422.45 L433.7 422.1 Q438.5 423.15 434.35 425.2 429.3 427.7 423.45 427.25 L419.8 427.2 Q403.95 428.1 388.25 426.35 380.05 425.45 372.0 426.8 L371.25 426.85 Q354.95 425.85 339.0 427.8 L332.1 427.55 Q323.05 425.9 313.85 425.6 313.4 425.55 313.4 425.05 L313.4 424.85 313.5 424.65 313.6 424.5 313.8 424.35 313.9 424.3 Q327.15 422.9 340.3 424.15 L343.1 424.1 Q356.1 422.35 369.3 423.1 L372.9 423.15 Q394.25 422.6 415.4 423.05 L430.8 422.45" fill="#583232" fill-opacity="0.34117648" fill-rule="evenodd" stroke="none"/>
    <path d="M223.4 426.25 Q222.45 425.25 223.7 424.45 226.5 422.85 229.85 422.85 L242.0 422.35 Q250.65 422.75 258.6 424.9 259.25 425.1 258.9 425.8 256.55 430.4 250.65 428.7 249.15 428.25 247.5 428.15 238.55 427.65 229.65 428.35 225.75 428.7 223.4 426.25" fill="#583232" fill-opacity="0.34117648" fill-rule="evenodd" stroke="none"/>
    <path d="M7.1 400.5 Q9.3 401.2 9.9 403.65 10.5 406.3 9.15 408.65 8.35 410.0 7.9 411.4 6.4 415.9 10.35 418.75 11.8 419.85 13.55 420.4 20.6 422.75 28.05 423.75 30.05 424.05 30.35 425.65 30.4 426.15 29.9 426.35 26.45 427.65 22.45 427.0 17.4 426.15 12.5 424.75 8.35 423.55 5.3 420.5 L3.15 418.2 Q0.95 415.85 2.25 413.05 3.65 409.95 4.65 406.65 5.1 405.15 5.15 403.55 5.25 401.35 7.1 400.5" fill="#583232" fill-opacity="0.34117648" fill-rule="evenodd" stroke="none"/>
    <path d="M432.25 9.9 L432.0 9.8 432.25 9.9" fill="#583232" fill-opacity="0.34117648" fill-rule="evenodd" stroke="none"/>
    <path d="M430.3 18.75 Q429.3 18.1 437.2 15.7 L438.15 15.35 438.25 31.75 438.55 53.5 Q438.7 65.45 437.9 77.1 437.15 88.2 434.85 98.4 L434.3 98.45 433.5 98.25 433.05 97.95 432.8 97.6 Q432.1 89.55 432.15 81.6 432.25 71.55 432.8 61.75 433.3 51.7 434.55 42.0 435.85 31.9 432.5 22.15 L431.45 19.45 430.3 18.75" fill="#9a855e" fill-opacity="0.2901961" fill-rule="evenodd" stroke="none"/>
    <path d="M323.9 34.45 Q323.9 42.0 317.75 42.0 L124.7 42.0 Q118.55 42.0 118.55 34.45 L118.55 14.7 Q118.55 7.15 124.7 7.15 L317.75 7.15 Q323.9 7.15 323.9 14.7 L323.9 34.45" fill="#543b0f" fill-rule="evenodd" stroke="none"/>
    <path d="M323.9 32.85 Q323.9 40.4 317.75 40.4 L124.7 40.4 Q118.55 40.4 118.55 32.85 L118.55 13.1 Q118.55 5.55 124.7 5.55 L317.75 5.55 Q323.9 5.55 323.9 13.1 L323.9 32.85" fill="#bf8639" fill-rule="evenodd" stroke="none"/>
    <path d="M323.9 11.1 L323.9 12.85 Q323.75 6.9 317.75 6.9 L124.75 6.9 Q118.75 6.9 118.6 12.85 L118.6 11.1 Q118.6 4.9 124.75 4.9 L317.75 4.9 Q323.9 4.9 323.9 11.1" fill="#e0a04a" fill-rule="evenodd" stroke="none"/>
    <path d="M319.55 25.25 Q318.65 26.15 317.35 26.15 316.05 26.15 315.15 25.25 314.25 24.35 314.25 23.05 314.25 21.75 315.15 20.85 316.05 19.95 317.35 19.95 318.65 19.95 319.55 20.85 320.45 21.75 320.45 23.05 320.45 24.35 319.55 25.25" fill="#794d10" fill-rule="evenodd" stroke="none"/>
    <path d="M127.05 25.25 Q126.15 26.15 124.85 26.15 123.55 26.15 122.65 25.25 121.75 24.35 121.75 23.05 121.75 21.75 122.65 20.85 123.55 19.95 124.85 19.95 126.15 19.95 127.05 20.85 127.95 21.75 127.95 23.05 127.95 24.35 127.05 25.25" fill="#794d10" fill-rule="evenodd" stroke="none"/>
    <path d="M267.05 20.25 L269.7 20.3 269.6 23.25 267.05 23.25 266.95 29.35 270.35 29.4 270.25 32.45 264.25 32.4 264.55 13.5 270.3 13.55 270.4 16.5 267.15 16.55 267.05 20.25 M263.4 24.65 L263.4 24.75 Q263.4 28.05 262.75 30.1 262.1 32.55 259.5 32.65 L259.5 32.6 Q256.9 32.45 256.25 30.05 255.6 27.65 255.6 23.1 L255.6 22.9 Q255.6 18.4 256.2 16.05 256.8 13.7 259.45 13.5 262.05 13.6 262.7 16.05 L263.1 17.85 260.6 18.65 260.55 18.2 Q260.35 16.5 259.55 16.45 258.75 16.6 258.55 18.25 L258.35 23.1 258.55 27.9 Q258.75 29.55 259.55 29.7 260.4 29.6 260.6 27.95 L260.85 23.7 259.45 23.65 259.2 21.1 263.25 21.05 263.4 24.65 M276.9 24.65 L279.3 32.25 276.7 32.6 274.55 25.65 273.9 25.7 273.95 32.45 271.25 32.35 271.25 13.7 273.6 13.5 276.0 13.7 Q278.45 14.35 278.7 20.0 278.55 23.3 276.9 24.65 M273.9 23.0 Q274.9 22.9 275.35 22.5 275.85 22.0 275.95 19.75 275.95 17.6 275.75 16.95 275.3 15.65 273.9 15.9 L273.9 23.0 M245.65 23.05 Q245.65 27.65 245.0 30.1 244.35 32.55 241.75 32.65 L241.75 32.6 Q239.1 32.45 238.5 30.05 237.85 27.65 237.85 23.05 237.85 18.45 238.5 16.05 239.15 13.65 241.75 13.5 244.35 13.6 245.0 16.0 245.7 18.45 245.7 23.05 L245.65 23.05 M251.95 23.25 L251.85 13.5 254.5 13.4 254.6 32.4 252.1 32.4 249.0 22.45 249.2 32.2 246.55 32.25 246.6 13.85 249.1 13.75 251.95 23.25 M280.3 27.35 L280.2 13.45 283.6 13.55 282.5 27.4 280.3 27.35 M281.3 29.5 Q282.7 29.55 282.7 31.0 L282.7 31.15 Q282.6 32.7 281.35 32.7 L281.2 32.7 Q279.8 32.6 279.8 31.1 L279.8 31.0 Q279.85 29.5 281.25 29.5 L281.3 29.5 M231.95 13.5 L234.35 13.7 Q236.8 14.35 237.05 20.0 236.9 23.3 235.25 24.65 L237.65 32.25 235.05 32.6 232.9 25.65 232.25 25.7 232.3 32.45 229.6 32.35 229.6 13.7 231.95 13.5 M232.25 23.0 L233.7 22.5 Q234.2 22.0 234.3 19.75 234.3 17.6 234.1 16.95 233.65 15.65 232.25 15.9 L232.25 23.0 M228.9 16.4 L226.6 16.4 226.55 32.45 223.9 32.3 223.95 16.4 221.6 16.35 221.65 13.4 228.75 13.45 228.9 16.4 M241.85 16.45 Q241.0 16.55 240.8 18.2 L240.6 23.05 240.8 27.9 Q241.0 29.55 241.85 29.65 L241.85 29.7 Q242.65 29.6 242.85 27.9 L243.05 23.05 242.85 18.2 Q242.65 16.5 241.85 16.45 M205.05 23.25 L204.95 29.35 208.35 29.4 208.25 32.45 202.25 32.4 202.55 13.5 208.3 13.55 208.4 16.5 205.15 16.55 205.05 20.25 207.7 20.3 207.6 23.25 205.05 23.25 M217.55 13.45 Q219.9 13.55 220.55 15.95 221.05 17.75 221.2 20.0 L218.55 20.1 218.4 18.15 Q218.2 16.45 217.6 16.4 216.8 16.5 216.6 18.15 216.35 19.5 218.15 21.35 220.0 23.2 220.7 24.4 221.25 25.7 221.25 27.15 221.25 28.5 220.75 30.0 220.15 32.4 217.7 32.6 215.15 32.55 214.4 30.1 L213.7 26.55 216.3 26.15 216.6 27.9 Q216.8 29.6 217.6 29.65 218.2 29.5 218.35 27.85 218.75 26.05 217.1 24.4 215.35 22.7 214.75 21.4 213.75 19.65 213.95 17.45 L214.3 16.0 Q214.9 13.65 217.55 13.45 M185.65 18.2 L185.45 23.05 185.65 27.9 Q185.85 29.55 186.7 29.65 L186.7 29.7 Q187.5 29.6 187.7 27.9 L187.9 23.05 187.7 18.2 Q187.5 16.5 186.7 16.45 185.85 16.55 185.65 18.2 M186.6 13.5 Q189.2 13.6 189.85 16.0 190.55 18.45 190.55 23.05 L190.5 23.05 Q190.5 27.65 189.85 30.1 189.2 32.55 186.6 32.65 L186.6 32.6 Q183.95 32.45 183.35 30.05 182.7 27.65 182.7 23.05 182.7 18.45 183.35 16.05 184.0 13.65 186.6 13.5 M200.9 13.4 L201.6 32.45 199.1 32.6 198.75 22.9 197.55 29.95 195.3 30.2 193.85 22.55 193.55 32.55 190.9 32.55 191.55 13.45 194.75 13.45 196.3 23.0 197.75 13.45 200.9 13.4 M166.7 17.9 Q166.8 20.8 165.0 22.45 166.85 23.75 166.9 26.65 166.9 31.1 164.6 32.05 L162.2 32.5 161.9 32.5 159.55 32.3 159.55 13.65 161.05 13.6 161.8 13.55 164.75 14.0 Q166.6 14.8 166.7 17.9 M162.7 16.65 L162.3 16.6 162.15 16.65 162.2 21.6 Q163.2 21.7 163.7 20.8 L164.05 19.05 Q164.0 17.8 163.65 17.3 163.3 16.75 162.7 16.65 M170.65 20.25 L173.3 20.3 173.2 23.25 170.65 23.25 170.55 29.35 173.95 29.4 173.85 32.45 167.85 32.4 168.15 13.5 173.9 13.55 174.0 16.5 170.75 16.55 170.65 20.25 M177.35 18.25 L177.15 23.1 177.35 27.9 Q177.55 29.55 178.4 29.7 179.2 29.6 179.4 27.95 L179.55 25.25 182.2 25.3 Q182.05 28.3 181.55 30.1 180.9 32.55 178.3 32.65 L178.3 32.6 Q175.65 32.45 175.05 30.05 174.4 27.65 174.4 23.1 174.4 18.45 175.05 16.1 175.65 13.7 178.3 13.5 180.9 13.6 181.55 16.05 182.0 17.75 182.15 20.55 L179.55 20.85 179.4 18.2 Q179.2 16.5 178.4 16.45 177.55 16.6 177.35 18.25 M163.65 24.8 Q163.2 24.4 162.2 24.3 L162.2 30.1 Q163.45 30.1 164.05 29.05 L164.2 26.9 Q164.15 25.3 163.65 24.8" fill="#4a1c00" fill-rule="evenodd" stroke="none"/>
  </g>
</svg>
