<?xml version="1.0" encoding="UTF-8" standalone="no"?>
<svg xmlns:ffdec="https://www.free-decompiler.com/flash" xmlns:xlink="http://www.w3.org/1999/xlink" ffdec:objectType="shape" height="197.4px" width="242.45px" xmlns="http://www.w3.org/2000/svg">
  <g transform="matrix(1.0, 0.0, 0.0, 1.0, -169.45, -124.1)">
    <path d="M197.15 148.9 Q178.05 165.7 178.0 189.5 178.0 196.4 178.9 243.05 L179.95 310.05 172.95 310.1 171.9 243.2 Q171.0 196.4 171.0 189.5 170.95 162.6 192.55 143.65 213.85 124.9 243.95 124.85 L243.95 131.85 Q216.55 131.8 197.15 148.9" fill="#120801" fill-opacity="0.4117647" fill-rule="evenodd" stroke="none"/>
    <path d="M411.9 156.8 L411.9 238.8 404.6 238.8 404.6 156.8 411.9 156.8" fill="#120801" fill-opacity="0.4117647" fill-rule="evenodd" stroke="none"/>
    <path d="M410.95 156.8 L410.95 238.8 403.65 238.8 403.65 156.8 410.95 156.8" fill="#bf8639" fill-rule="evenodd" stroke="none"/>
    <path d="M169.45 188.75 Q169.4 161.85 191.0 142.9 212.3 124.15 242.4 124.1 L242.4 131.1 Q215.0 131.05 195.6 148.15 176.5 164.95 176.45 188.75 176.45 195.65 177.35 242.3 L178.4 309.3 171.4 309.35 170.35 242.45 Q169.45 195.65 169.45 188.75" fill="#bf8639" fill-rule="evenodd" stroke="none"/>
    <path d="M272.05 168.25 L272.05 321.5 264.75 321.5 264.75 168.25 272.05 168.25" fill="#120801" fill-opacity="0.4117647" fill-rule="evenodd" stroke="none"/>
    <path d="M271.1 168.25 L271.1 321.5 263.8 321.5 263.8 168.25 271.1 168.25" fill="#bf8639" fill-rule="evenodd" stroke="none"/>
  </g>
</svg>
