<?xml version="1.0" encoding="UTF-8" standalone="no"?>
<svg xmlns:ffdec="https://www.free-decompiler.com/flash" xmlns:xlink="http://www.w3.org/1999/xlink" ffdec:objectType="shape" height="60.35px" width="60.8px" xmlns="http://www.w3.org/2000/svg">
  <g transform="matrix(1.0, 0.0, 0.0, 1.0, 0.0, 0.0)">
    <path d="M60.15 43.4 L60.75 49.5 60.8 52.45 60.7 53.8 60.8 53.8 Q60.65 58.2 59.1 59.65 58.55 60.25 53.55 60.35 L47.25 60.15 39.9 59.35 33.4 59.05 8.7 60.25 Q1.2 60.4 0.95 54.25 L0.85 53.8 1.0 53.8 0.95 52.95 0.85 52.45 Q-1.2 36.85 1.6 9.55 L2.1 6.75 Q2.4 3.3 5.35 3.15 9.75 2.1 19.4 1.4 56.2 -1.6 60.65 5.35 L60.05 40.4 58.8 41.75 Q59.6 42.35 60.15 43.4" fill="url(#gradient0)" fill-rule="evenodd" stroke="none"/>
    <path d="M59.0 49.3 Q59.3 56.25 57.35 58.15 56.85 58.75 52.0 58.85 L45.9 58.65 38.75 57.85 32.45 57.55 8.5 58.75 Q1.25 58.95 1.0 52.75 -1.1 37.0 1.65 9.1 L2.15 6.3 Q2.4 2.85 5.25 2.65 9.5 1.65 18.9 0.95 54.6 -2.1 58.9 4.9 L58.3 40.15 57.1 41.5 Q57.85 42.05 58.4 43.15 L59.0 49.3" fill="#c58c3f" fill-rule="evenodd" stroke="none"/>
    <path d="M0.3 28.9 Q5.7 27.85 12.25 27.85 23.2 27.85 30.9 30.8 38.4 33.65 38.5 37.65 38.4 41.65 30.9 44.5 23.2 47.5 12.25 47.5 L0.45 46.45 0.35 46.45 0.2 43.45 12.3 44.45 Q21.55 44.45 28.05 42.65 34.85 40.8 34.75 38.05 34.85 35.3 28.05 33.45 21.55 31.65 12.3 31.65 L0.1 32.65 0.2 28.95 0.3 28.9" fill="url(#gradient1)" fill-rule="evenodd" stroke="none"/>
    <path d="M0.15 33.35 L12.3 32.35 Q21.45 32.35 27.85 34.15 34.05 35.8 34.1 38.05 34.05 40.3 27.85 41.95 21.45 43.7 12.3 43.7 L0.25 42.75 0.15 42.75 Q0.0 38.35 0.1 33.35 L0.15 33.35" fill="url(#gradient2)" fill-rule="evenodd" stroke="none"/>
    <path d="M3.8 57.9 Q1.2 56.55 0.95 53.0 L14.5 53.75 Q21.95 53.35 35.45 47.25 45.75 42.5 57.7 42.45 L58.0 42.45 58.4 43.15 58.95 49.3 Q59.3 56.25 57.35 58.15 56.85 58.75 51.95 58.85 L45.85 58.65 38.75 57.85 32.45 57.55 8.45 58.75 Q5.6 58.8 3.8 57.9" fill="url(#gradient3)" fill-rule="evenodd" stroke="none"/>
    <path d="M0.6 22.85 Q6.65 21.7 13.2 21.2 24.55 20.3 36.55 25.75 46.5 30.25 58.45 30.65 L58.4 35.65 Q46.5 35.4 37.35 30.55 25.45 24.25 14.35 24.25 8.45 24.25 0.35 25.8 L0.5 22.85 0.6 22.85 M0.3 26.5 L0.4 26.5 Q8.5 24.95 14.35 24.95 25.3 24.95 37.05 31.2 46.3 36.1 58.35 36.35 L58.3 40.15 57.05 41.5 57.35 41.75 Q45.45 41.85 35.2 46.55 21.85 52.65 14.5 53.0 L1.0 52.25 0.9 52.25 0.4 47.15 12.25 48.2 Q23.35 48.2 31.15 45.2 39.2 42.1 39.15 37.65 39.2 33.2 31.15 30.15 23.35 27.15 12.25 27.15 L0.25 28.2 0.3 26.5 M58.55 23.8 Q50.4 23.45 44.65 22.1 38.4 20.6 38.3 18.8 38.4 16.95 44.65 15.5 50.45 14.15 58.75 13.8 L58.55 23.8" fill="#c58c3f" fill-rule="evenodd" stroke="none"/>
    <path d="M58.5 27.15 Q48.4 26.55 41.35 24.2 33.95 21.7 33.9 18.45 33.95 15.25 41.35 12.75 48.45 10.35 58.8 9.75 L58.75 13.1 Q50.35 13.45 44.5 14.8 37.55 16.45 37.65 18.8 37.55 21.15 44.5 22.8 50.3 24.15 58.55 24.55 L58.5 27.15" fill="url(#gradient4)" fill-rule="evenodd" stroke="none"/>
    <path d="M1.1 14.5 L11.4 15.35 Q22.8 16.1 38.7 10.65 48.15 7.4 58.85 6.25 L58.8 9.05 Q48.35 9.65 41.15 12.05 33.15 14.75 33.25 18.45 33.15 22.15 41.15 24.85 48.25 27.25 58.5 27.9 L58.5 29.9 Q46.65 29.55 36.85 25.1 24.65 19.55 13.15 20.45 L0.55 22.1 1.1 14.5" fill="url(#gradient5)" fill-rule="evenodd" stroke="none"/>
    <path d="M2.0 6.85 L2.1 6.3 2.15 6.15 10.95 7.3 Q22.45 8.8 38.15 3.4 42.9 1.75 47.9 0.55 L49.9 0.85 Q44.05 2.15 38.55 4.05 22.6 9.55 10.9 8.0 L2.0 6.85 M0.55 22.1 L13.2 20.45 Q24.7 19.6 36.85 25.1 46.65 29.55 58.5 29.9 L58.45 30.6 58.65 30.65 Q46.6 30.3 36.55 25.75 24.55 20.3 13.2 21.2 L0.55 22.85 0.55 22.1 M1.2 13.8 L11.45 14.65 Q22.7 15.35 38.4 9.95 48.0 6.65 58.9 5.55 L58.85 6.25 Q48.2 7.4 38.8 10.6 22.85 16.1 11.45 15.35 L1.15 14.5 1.2 13.8 M0.35 25.8 Q8.5 24.25 14.4 24.25 25.45 24.25 37.35 30.55 46.5 35.4 58.4 35.65 L58.35 36.35 Q46.3 36.1 37.05 31.2 25.3 24.95 14.4 24.95 8.45 24.95 0.35 26.5 L0.35 25.8 M0.25 28.2 Q5.7 27.15 12.3 27.15 23.35 27.15 31.15 30.15 39.25 33.2 39.15 37.65 39.25 42.1 31.15 45.2 23.35 48.2 12.3 48.2 L0.4 47.15 0.35 46.45 Q5.75 47.5 12.3 47.5 23.2 47.5 30.95 44.5 38.45 41.65 38.5 37.65 38.45 33.65 30.95 30.8 23.2 27.85 12.3 27.85 5.55 27.85 0.0 29.0 L0.25 28.9 0.25 28.2 M0.1 32.65 L12.35 31.65 Q21.55 31.65 28.05 33.45 34.85 35.3 34.8 38.05 34.85 40.8 28.05 42.65 21.55 44.4 12.35 44.4 L0.2 43.45 0.15 42.75 12.35 43.7 Q21.45 43.7 27.9 41.95 34.05 40.3 34.1 38.05 34.05 35.8 27.9 34.15 21.45 32.35 12.35 32.35 L0.1 33.35 0.1 32.65 M0.95 52.75 L0.9 52.25 14.5 53.0 Q21.85 52.65 35.2 46.55 45.45 41.85 57.35 41.75 L58.0 42.45 Q45.85 42.45 35.45 47.2 22.0 53.35 14.55 53.75 L1.0 53.0 0.95 52.75 M58.8 9.7 Q48.55 10.3 41.45 12.65 34.0 15.2 34.0 18.45 34.0 21.75 41.45 24.25 48.45 26.6 58.5 27.25 L58.5 27.85 Q48.2 27.2 41.1 24.8 33.1 22.05 33.2 18.45 33.1 14.85 41.1 12.15 48.35 9.7 58.8 9.1 L58.8 9.7 M58.75 13.75 Q50.5 14.1 44.7 15.4 38.45 16.9 38.35 18.8 38.45 20.7 44.7 22.15 50.45 23.5 58.6 23.9 L58.55 24.45 Q50.3 24.1 44.45 22.7 37.5 21.05 37.6 18.8 37.5 16.5 44.45 14.85 50.35 13.5 58.75 13.15 L58.75 13.75" fill="#ae7528" fill-rule="evenodd" stroke="none"/>
  </g>
  <defs>
    <linearGradient gradientTransform="matrix(0.0371, 0.0, 0.0, 0.0365, 30.4, 30.45)" gradientUnits="userSpaceOnUse" id="gradient0" spreadMethod="pad" x1="-819.2" x2="819.2">
      <stop offset="0.0" stop-color="#231204"/>
      <stop offset="0.5568627450980392" stop-color="#4f2909"/>
      <stop offset="1.0" stop-color="#693408"/>
    </linearGradient>
    <linearGradient gradientTransform="matrix(0.0234, 0.0033, -0.0017, 0.0121, 19.0, 37.1)" gradientUnits="userSpaceOnUse" id="gradient1" spreadMethod="pad" x1="-819.2" x2="819.2">
      <stop offset="0.0" stop-color="#b17536"/>
      <stop offset="1.0" stop-color="#ce9744"/>
    </linearGradient>
    <linearGradient gradientTransform="matrix(0.014, 0.0154, -0.0054, 0.0049, 17.0, 37.6)" gradientUnits="userSpaceOnUse" id="gradient2" spreadMethod="pad" x1="-819.2" x2="819.2">
      <stop offset="0.0" stop-color="#b17536"/>
      <stop offset="1.0" stop-color="#ce9744"/>
    </linearGradient>
    <linearGradient gradientTransform="matrix(-0.0945, 0.0202, -0.0022, -0.0117, 37.2, 36.85)" gradientUnits="userSpaceOnUse" id="gradient3" spreadMethod="pad" x1="-819.2" x2="819.2">
      <stop offset="0.0" stop-color="#b17536"/>
      <stop offset="1.0" stop-color="#ce9744"/>
    </linearGradient>
    <linearGradient gradientTransform="matrix(0.0261, 0.0, 0.0, 0.0106, 41.15, 18.25)" gradientUnits="userSpaceOnUse" id="gradient4" spreadMethod="pad" x1="-819.2" x2="819.2">
      <stop offset="0.0" stop-color="#b17536"/>
      <stop offset="1.0" stop-color="#ce9744"/>
    </linearGradient>
    <linearGradient gradientTransform="matrix(0.081, -0.0098, 0.0015, 0.0142, 9.3, 20.7)" gradientUnits="userSpaceOnUse" id="gradient5" spreadMethod="pad" x1="-819.2" x2="819.2">
      <stop offset="0.0" stop-color="#b17536"/>
      <stop offset="1.0" stop-color="#ce9744"/>
    </linearGradient>
  </defs>
</svg>
