<?xml version="1.0" encoding="UTF-8" standalone="no"?>
<svg xmlns:ffdec="https://www.free-decompiler.com/flash" xmlns:xlink="http://www.w3.org/1999/xlink" ffdec:objectType="shape" height="59.75px" width="65.65px" xmlns="http://www.w3.org/2000/svg">
  <g transform="matrix(1.0, 0.0, 0.0, 1.0, 2.15, 3.95)">
    <path d="M1.0 -3.9 Q1.6 -3.8 1.65 -3.4 L3.9 2.6 Q4.05 3.0 3.6 3.5 L2.7 4.15 1.5 4.25 0.75 3.75 -1.45 -2.25 Q-1.65 -2.7 -1.25 -3.15 L-0.2 -3.8 1.0 -3.9" fill="#000000" fill-rule="evenodd" stroke="none"/>
    <path d="M2.2 -2.0 Q3.65 -1.95 4.8 -0.75 L5.0 -0.5 5.05 -0.45 8.35 2.85 8.4 2.85 Q9.5 3.9 9.55 5.45 L9.55 5.5 9.5 6.6 9.5 6.65 9.55 6.75 11.1 8.25 11.25 8.3 11.35 8.25 12.85 7.95 12.95 7.95 Q14.45 8.0 15.6 9.2 L15.75 9.4 15.8 9.45 19.15 12.8 19.2 12.8 Q20.3 13.85 20.35 15.35 L20.35 15.4 20.2 16.95 20.2 17.05 20.25 17.15 25.3 22.1 25.35 22.1 Q26.0 22.65 26.0 23.55 26.0 24.4 25.4 25.0 L25.4 25.05 25.35 25.1 Q24.75 25.7 23.9 25.7 22.95 25.7 22.4 25.1 L22.35 25.05 17.15 20.05 17.05 20.0 16.95 20.0 16.1 20.05 16.05 20.05 Q14.65 20.05 13.5 18.9 L9.85 15.25 Q8.8 14.2 8.65 12.8 L8.65 12.7 8.65 11.9 8.65 11.8 8.6 11.7 6.85 10.05 6.75 10.0 6.6 10.0 5.35 10.15 5.3 10.15 Q3.9 10.15 2.75 9.0 L-0.95 5.35 Q-1.95 4.3 -2.15 2.85 L-2.15 2.8 -2.15 2.7 Q-2.25 1.2 -1.35 0.15 L-1.2 0.0 -1.15 -0.05 -0.55 -0.75 -0.55 -0.7 -0.5 -0.8 -0.45 -0.85 Q0.55 -2.0 2.1 -2.0 L2.2 -2.0 M4.45 5.3 L4.55 5.25 4.7 5.0 4.75 4.95 4.8 4.95 4.85 4.8 4.8 4.65 2.3 2.15 Q2.2 2.05 2.15 2.1 L2.0 2.15 1.8 2.35 1.75 2.4 1.75 2.5 1.85 2.8 1.95 3.0 2.0 3.05 4.25 5.25 4.35 5.3 4.45 5.3 M16.45 15.45 L14.15 13.15 14.05 13.1 13.95 13.15 13.85 13.2 13.6 13.5 13.55 13.65 13.6 13.8 15.8 15.95 15.75 16.0 15.7 16.1 15.7 16.15 15.75 16.25 15.8 16.3 15.85 16.35 16.0 16.3 16.1 16.25 16.2 16.25 16.35 16.2 16.4 16.05 16.4 15.95 16.35 15.9 16.25 15.9 16.25 15.8 16.35 15.9 16.45 15.8 16.55 15.65 16.45 15.45" fill="#000000" fill-rule="evenodd" stroke="none"/>
    <path d="M63.15 48.0 Q63.6 48.4 63.45 48.8 L61.6 55.2 Q61.5 55.65 60.85 55.7 L59.55 55.65 Q58.8 55.4 58.4 55.0 57.9 54.5 57.95 54.15 L59.8 47.75 Q59.85 47.3 60.55 47.15 L61.9 47.25 Q62.7 47.5 63.15 48.0" fill="#000000" fill-rule="evenodd" stroke="none"/>
    <path d="M42.5 29.15 L42.55 29.2 45.9 32.55 45.95 32.55 Q47.05 33.6 47.1 35.1 L47.1 35.15 47.05 36.25 47.05 36.3 47.1 36.45 48.6 37.95 48.75 38.0 48.85 37.95 50.4 37.65 50.5 37.65 Q51.95 37.7 53.1 38.9 L53.25 39.1 53.3 39.15 56.65 42.5 56.7 42.5 Q57.8 43.55 57.85 45.05 L57.85 45.1 57.7 46.6 57.7 46.7 57.75 46.85 62.85 51.8 62.9 51.8 Q63.5 52.3 63.5 53.25 63.5 54.1 62.95 54.65 L62.95 54.7 62.9 54.75 Q62.25 55.4 61.4 55.4 60.5 55.4 59.9 54.75 L59.85 54.7 54.7 49.75 54.55 49.7 54.45 49.7 53.65 49.75 53.6 49.75 Q52.15 49.75 51.0 48.6 L47.35 44.95 Q46.3 43.9 46.15 42.5 L46.15 42.4 46.15 41.6 46.15 41.5 46.1 41.4 44.4 39.7 44.3 39.65 44.1 39.65 42.85 39.8 42.8 39.8 Q41.4 39.8 40.25 38.65 L36.6 35.0 Q35.55 33.95 35.4 32.55 L35.4 32.5 35.4 32.4 Q35.3 30.9 36.2 29.85 L36.35 29.7 36.4 29.65 36.95 28.95 36.95 29.0 37.0 28.9 37.05 28.85 Q38.05 27.7 39.6 27.7 L39.75 27.7 Q41.2 27.75 42.35 28.95 L42.5 29.15 M42.25 34.7 L42.3 34.65 42.35 34.65 42.4 34.5 42.35 34.35 39.85 31.85 39.7 31.8 39.5 31.85 39.3 32.05 39.25 32.1 39.25 32.2 39.35 32.5 39.45 32.65 39.5 32.7 41.75 34.9 41.85 34.95 42.0 34.95 42.1 34.9 42.25 34.7 M51.1 43.15 L51.05 43.35 51.1 43.5 53.35 45.7 53.2 45.8 53.15 45.85 53.1 45.95 53.1 46.1 53.2 46.15 53.35 46.2 53.95 45.95 54.0 45.85 54.0 45.7 53.9 45.55 54.0 45.45 54.05 45.3 54.0 45.15 51.7 42.85 51.6 42.8 51.5 42.85 51.4 42.9 51.1 43.15" fill="#000000" fill-rule="evenodd" stroke="none"/>
    <path d="M21.1 16.45 Q24.55 14.5 28.45 15.35 L31.1 15.9 Q35.15 16.75 37.4 19.9 L37.45 19.95 37.55 19.95 Q39.8 23.15 39.0 27.0 L38.25 30.6 38.25 30.8 38.45 30.9 38.6 30.95 38.95 31.1 38.95 31.15 39.0 31.15 39.05 31.15 39.25 31.4 39.95 32.55 40.0 32.6 40.15 33.05 40.1 33.1 39.9 37.85 39.75 38.5 39.6 39.4 39.2 41.1 39.15 41.35 Q38.0 45.4 35.6 49.3 L35.6 49.35 35.55 49.4 35.3 49.7 35.3 49.75 Q20.8 58.3 11.1 44.6 L11.1 44.55 11.05 44.4 10.95 44.25 10.9 44.15 10.95 44.1 Q10.25 40.05 10.85 36.2 L10.9 36.1 10.9 35.7 10.9 35.65 Q11.4 32.35 12.65 29.15 L12.85 28.95 14.75 26.55 14.85 26.5 14.9 26.45 15.3 26.15 15.35 26.15 15.45 26.1 15.75 26.1 15.85 26.1 15.95 25.9 16.7 22.3 Q17.45 18.55 21.0 16.45 L21.1 16.45 M24.15 21.85 Q23.25 22.5 23.0 23.65 L22.25 27.25 22.3 27.45 22.45 27.55 31.7 29.5 31.9 29.5 32.0 29.3 32.75 25.7 Q33.0 24.45 32.15 23.25 31.35 22.1 29.85 21.8 L27.2 21.25 Q25.85 20.95 24.7 21.55 L24.55 21.65 24.25 21.8 24.15 21.85" fill="#000000" fill-rule="evenodd" stroke="none"/>
    <path d="M13.3 12.45 L13.25 12.45 13.25 12.4 12.7 12.1 12.6 12.15 12.8 12.35 Q13.2 12.65 13.2 13.25 L12.85 14.1 Q12.5 14.55 11.95 14.55 L11.9 14.55 15.4 18.0 16.0 18.25 16.05 18.25 16.3 18.2 16.4 18.15 17.15 17.25 17.25 16.8 17.25 16.75 16.9 16.05 13.3 12.45 M1.9 2.15 L1.55 2.35 0.9 3.1 0.7 3.7 Q0.75 4.15 1.1 4.5 L1.05 4.5 4.65 8.05 5.0 8.25 4.8 7.65 Q4.8 7.1 5.2 6.7 5.55 6.35 6.1 6.35 L6.35 6.4 6.15 6.1 2.55 2.5 2.5 2.5 2.5 2.45 1.9 2.15 M0.0 0.9 Q0.75 0.0 1.95 0.0 L2.05 0.0 Q3.2 0.05 4.1 1.0 L4.05 1.0 7.65 4.6 Q8.55 5.45 8.6 6.65 L8.4 8.05 11.0 10.6 Q11.7 9.95 12.75 9.95 L12.8 9.95 Q13.95 10.0 14.9 10.95 L14.85 10.95 18.45 14.55 Q19.3 15.35 19.4 16.6 19.5 17.6 18.95 18.35 L24.6 23.85 Q25.0 24.15 25.0 24.75 25.0 25.25 24.65 25.6 24.3 26.05 23.75 26.05 23.2 26.05 22.85 25.65 L17.15 20.2 16.0 20.4 15.95 20.4 Q14.85 20.4 13.95 19.5 L10.3 15.85 Q9.45 15.0 9.35 13.85 L9.35 13.8 9.45 12.65 6.75 10.05 5.2 10.45 5.15 10.45 Q4.05 10.45 3.2 9.55 L-0.5 5.9 Q-1.3 5.1 -1.4 3.95 L-1.4 3.9 Q-1.55 2.65 -0.85 1.85 L-0.8 1.85 -0.05 0.95 0.0 0.9" fill="#2a1102" fill-opacity="0.4509804" fill-rule="evenodd" stroke="none"/>
    <path d="M2.7 1.3 L2.65 1.3 2.65 1.25 2.05 0.95 Q1.85 0.95 1.7 1.1 L1.75 1.1 1.0 1.9 Q0.85 2.15 0.85 2.5 L1.25 3.25 1.2 3.25 4.8 6.85 5.35 7.1 5.45 7.1 5.7 7.05 5.75 7.0 6.5 6.15 6.5 6.1 6.6 5.6 6.6 5.55 6.3 4.9 2.7 1.3 M2.1 -1.2 L2.2 -1.2 Q3.35 -1.15 4.25 -0.2 L4.2 -0.2 7.8 3.4 Q8.7 4.25 8.75 5.45 8.85 6.75 8.1 7.55 L7.35 8.4 7.4 8.3 Q6.65 9.3 5.35 9.25 L5.3 9.25 Q4.2 9.25 3.3 8.35 L-0.35 4.7 Q-1.15 3.85 -1.3 2.7 L-1.3 2.65 Q-1.35 1.45 -0.7 0.6 L-0.65 0.6 0.1 -0.25 0.15 -0.35 Q0.9 -1.2 2.1 -1.2" fill="url(#gradient0)" fill-rule="evenodd" stroke="none"/>
    <path d="M1.4 1.45 L1.0 1.9 Q0.85 2.15 0.85 2.5 L1.25 3.25 1.2 3.25 4.8 6.85 5.35 7.1 5.45 7.1 5.65 7.05 5.3 7.45 5.2 7.5 4.95 7.6 4.9 7.6 4.3 7.35 0.7 3.75 0.75 3.75 0.4 2.95 Q0.4 2.6 0.55 2.35 L1.25 1.6 1.3 1.55 1.4 1.45 M6.95 8.8 L6.9 8.8 6.95 8.8" fill="#91999c" fill-rule="evenodd" stroke="none"/>
    <path d="M0.0 -0.15 L0.15 -0.35 Q0.9 -1.2 2.1 -1.2 L2.2 -1.2 Q3.35 -1.15 4.25 -0.2 L4.2 -0.2 7.8 3.4 Q8.7 4.25 8.75 5.45 8.85 6.75 8.1 7.55 L7.35 8.4 7.4 8.3 6.95 8.8 7.6 8.0 Q8.4 7.2 8.25 5.9 8.2 4.7 7.3 3.85 L3.7 0.25 3.75 0.25 Q2.85 -0.7 1.7 -0.7 L1.6 -0.7 Q0.65 -0.7 0.0 -0.15" fill="#bbbbbb" fill-rule="evenodd" stroke="none"/>
    <path d="M13.45 11.25 L13.4 11.25 13.4 11.2 12.8 10.9 Q12.6 10.9 12.45 11.05 L12.5 11.05 11.75 11.85 Q11.6 12.1 11.6 12.45 L12.0 13.2 11.95 13.2 15.55 16.8 16.1 17.05 16.2 17.05 16.45 17.0 16.5 16.95 17.25 16.1 17.25 16.05 17.35 15.55 17.35 15.5 17.05 14.85 13.45 11.25 M10.85 9.7 L10.9 9.6 Q11.65 8.75 12.85 8.75 L12.95 8.75 Q14.1 8.8 15.0 9.75 L14.95 9.75 18.55 13.35 Q19.45 14.2 19.5 15.4 19.6 16.7 18.85 17.5 L18.1 18.35 18.15 18.25 Q17.4 19.25 16.1 19.2 L16.05 19.2 Q14.95 19.2 14.05 18.3 L10.4 14.65 Q9.6 13.8 9.45 12.65 L9.45 12.6 Q9.4 11.4 10.05 10.55 L10.1 10.55 10.85 9.7" fill="url(#gradient1)" fill-rule="evenodd" stroke="none"/>
    <path d="M17.7 18.75 L17.65 18.75 17.7 18.75" fill="#91999c" fill-rule="evenodd" stroke="none"/>
    <path d="M10.75 9.8 L10.9 9.6 Q11.65 8.75 12.85 8.75 L12.95 8.75 Q14.1 8.8 15.0 9.75 L14.95 9.75 18.55 13.35 Q19.45 14.2 19.5 15.4 19.6 16.7 18.85 17.5 L18.1 18.35 18.15 18.25 17.7 18.75 18.35 17.95 Q19.15 17.15 19.0 15.85 18.95 14.65 18.05 13.8 L14.45 10.2 14.5 10.2 Q13.6 9.25 12.45 9.25 L12.35 9.25 Q11.4 9.25 10.75 9.8 M12.15 11.4 L11.75 11.85 Q11.6 12.1 11.6 12.45 L12.0 13.2 11.95 13.2 15.55 16.8 16.1 17.05 16.2 17.05 16.4 17.0 16.05 17.4 15.95 17.45 15.7 17.55 15.65 17.55 15.05 17.3 11.45 13.7 11.5 13.7 11.15 12.9 Q11.15 12.55 11.3 12.3 L12.0 11.55 12.05 11.5 12.15 11.4" fill="#bbbbbb" fill-rule="evenodd" stroke="none"/>
    <path d="M6.2 5.1 Q6.75 5.1 7.1 5.5 L12.95 11.1 Q13.35 11.45 13.35 12.0 L13.0 12.9 12.1 13.3 Q11.55 13.3 11.15 12.95 L5.35 7.35 Q4.95 6.95 4.95 6.45 4.95 5.9 5.35 5.5 5.65 5.1 6.2 5.1" fill="url(#gradient2)" fill-rule="evenodd" stroke="none"/>
    <path d="M14.65 28.55 L39.0 33.15 Q39.25 41.5 34.6 48.9 21.05 57.05 11.85 44.05 10.6 35.85 14.65 28.55" fill="url(#gradient3)" fill-rule="evenodd" stroke="none"/>
    <path d="M25.75 36.05 Q27.1 36.35 27.85 37.45 28.55 38.55 28.25 39.8 28.0 41.1 26.9 41.85 L26.2 42.15 26.55 47.4 26.5 47.55 26.35 47.7 26.2 47.7 20.6 46.5 20.45 46.45 20.4 46.25 20.35 46.1 22.85 41.45 22.35 40.9 Q21.6 39.75 21.85 38.45 22.15 37.2 23.3 36.5 24.4 35.8 25.75 36.05" fill="#ffe7d9" fill-rule="evenodd" stroke="none"/>
    <path d="M13.55 29.65 L15.55 27.2 38.35 32.0 39.0 33.1 Q39.1 37.25 38.05 41.15 38.4 38.65 38.3 34.6 L15.0 29.6 Q12.5 33.3 11.8 35.85 12.3 32.65 13.55 29.65" fill="#723d1e" fill-rule="evenodd" stroke="none"/>
    <path d="M33.25 30.9 L33.45 30.45 Q35.2 31.2 37.0 30.45 L37.25 30.9 Q35.2 31.75 33.25 30.9" fill="#2c1100" fill-rule="evenodd" stroke="none"/>
    <path d="M17.65 22.5 Q18.35 19.2 21.5 17.35 24.55 15.55 28.2 16.35 L30.8 16.9 Q34.5 17.65 36.6 20.55 38.65 23.45 37.9 26.8 L36.85 31.75 36.7 32.6 36.55 33.05 Q34.4 33.45 32.5 32.2 L32.6 30.85 33.65 25.9 Q34.0 24.25 32.95 22.7 31.9 21.25 30.0 20.85 L27.4 20.3 Q25.5 19.9 23.95 20.8 L23.9 20.8 Q22.3 21.75 21.95 23.4 L20.9 28.35 20.55 29.65 Q18.4 30.3 16.45 28.8 L16.5 28.3 16.6 27.45 17.65 22.5" fill="url(#gradient4)" fill-rule="evenodd" stroke="none"/>
    <path d="M30.45 45.85 L29.4 46.05 Q28.75 45.9 28.35 45.4 28.1 44.95 28.25 44.35 28.35 43.7 28.8 43.3 L30.0 43.2 30.9 43.75 Q31.2 44.3 31.1 44.95 L30.45 45.85" fill="#c77d4f" fill-rule="evenodd" stroke="none"/>
    <path d="M17.65 43.75 L16.6 43.1 Q16.35 42.65 16.5 42.05 16.6 41.4 17.05 41.0 L18.25 40.9 Q18.85 41.0 19.15 41.45 19.45 42.0 19.35 42.65 L18.7 43.55 17.65 43.75" fill="#c77d4f" fill-rule="evenodd" stroke="none"/>
    <path d="M27.55 39.95 Q27.3 41.0 26.4 41.6 L25.65 41.95 25.95 47.05 21.0 46.0 23.35 41.5 22.75 40.85 Q22.15 39.95 22.4 38.9 22.65 37.8 23.55 37.2 24.45 36.6 25.55 36.8 26.6 37.05 27.2 37.95 27.8 38.85 27.55 39.95" fill="#000000" fill-rule="evenodd" stroke="none"/>
    <path d="M18.3 30.15 L27.65 32.15 30.9 32.85 32.85 33.2 33.75 33.45 34.1 33.5 36.65 34.2 Q37.1 34.35 36.8 34.45 L31.8 33.55 27.0 32.55 19.45 30.85 18.75 30.7 14.65 29.65 15.0 29.65 16.0 29.75 16.75 29.9 18.3 30.15" fill="#ffe7d9" fill-rule="evenodd" stroke="none"/>
    <path d="M23.6 19.55 L23.65 19.55 Q25.35 18.7 27.45 19.15 L30.35 19.75 Q32.45 20.2 33.7 21.7 34.95 23.2 34.7 25.6 L33.3 32.8 32.45 32.4 32.45 32.35 32.55 32.25 32.5 32.2 33.9 25.6 33.7 24.3 Q33.5 23.45 32.95 22.7 31.9 21.25 30.0 20.85 L27.4 20.3 Q25.5 19.9 23.95 20.8 L23.9 20.8 Q22.3 21.75 21.95 23.4 L20.9 28.35 20.55 29.65 19.35 29.85 19.65 29.5 21.55 22.2 Q21.9 20.5 23.6 19.55" fill="#582d11" fill-rule="evenodd" stroke="none"/>
    <path d="M18.0 16.6 Q18.55 16.6 18.9 17.0 L24.75 22.6 Q25.15 22.95 25.15 23.5 L24.8 24.4 Q24.4 24.8 23.9 24.8 23.35 24.8 22.95 24.45 L17.15 18.85 Q16.75 18.45 16.75 17.95 16.75 17.4 17.15 17.0 17.45 16.6 18.0 16.6" fill="url(#gradient5)" fill-rule="evenodd" stroke="none"/>
    <path d="M16.05 28.9 L16.4 28.4 Q18.25 29.75 20.6 29.3 L20.75 29.9 Q18.15 30.4 16.05 28.9" fill="#2c1100" fill-rule="evenodd" stroke="none"/>
    <path d="M30.55 45.5 Q30.1 45.8 29.5 45.7 L28.45 45.05 Q28.2 44.6 28.35 44.0 28.45 43.35 28.9 42.95 L30.1 42.85 Q30.7 42.95 31.0 43.4 31.3 43.95 31.2 44.6 L30.55 45.5" fill="#2c1100" fill-rule="evenodd" stroke="none"/>
    <path d="M18.75 43.15 Q18.3 43.45 17.7 43.35 17.05 43.2 16.65 42.7 16.4 42.25 16.55 41.65 16.65 41.0 17.1 40.6 L18.3 40.5 19.2 41.05 Q19.5 41.6 19.4 42.25 L18.75 43.15" fill="#2c1100" fill-rule="evenodd" stroke="none"/>
    <path d="M62.55 48.55 Q62.85 48.9 62.7 49.2 L61.25 54.5 Q61.1 54.9 60.65 54.95 L59.8 54.95 Q59.3 54.8 59.0 54.45 L58.7 53.8 60.25 48.5 Q60.3 48.15 60.8 47.95 L61.75 48.05 62.55 48.55" fill="url(#gradient6)" fill-rule="evenodd" stroke="none"/>
    <path d="M50.25 41.85 L50.15 41.9 50.35 42.1 Q50.75 42.4 50.75 43.0 L50.4 43.85 Q50.05 44.3 49.5 44.3 L49.45 44.3 52.95 47.75 53.55 48.0 53.6 48.0 53.85 47.95 53.95 47.9 54.7 47.0 54.8 46.55 54.8 46.5 54.45 45.8 50.85 42.2 50.8 42.2 50.8 42.15 50.25 41.85 M39.45 31.9 Q39.25 31.9 39.1 32.1 L38.45 32.85 38.25 33.45 Q38.3 33.9 38.65 34.25 L38.6 34.25 42.2 37.8 42.55 38.0 42.35 37.4 Q42.35 36.85 42.75 36.45 43.1 36.1 43.65 36.1 L43.9 36.15 43.7 35.85 40.1 32.25 40.05 32.25 40.05 32.2 39.45 31.9 M37.55 30.65 Q38.3 29.75 39.5 29.75 L39.6 29.75 Q40.75 29.8 41.65 30.75 L41.6 30.75 45.2 34.35 Q46.1 35.2 46.15 36.4 L45.95 37.8 48.55 40.35 Q49.25 39.7 50.3 39.7 L50.35 39.7 Q51.5 39.75 52.45 40.7 L52.4 40.7 56.0 44.3 Q56.85 45.1 56.95 46.35 57.05 47.35 56.5 48.1 L62.15 53.6 Q62.55 53.9 62.55 54.5 62.55 55.0 62.2 55.35 61.85 55.8 61.3 55.8 60.75 55.8 60.4 55.4 L54.7 49.95 53.55 50.15 53.5 50.15 Q52.4 50.15 51.5 49.25 L47.85 45.6 Q47.0 44.75 46.9 43.6 L46.9 43.55 47.0 42.4 44.3 39.8 42.75 40.2 42.7 40.2 Q41.6 40.2 40.75 39.3 L37.05 35.65 Q36.25 34.85 36.15 33.7 L36.15 33.65 Q36.0 32.4 36.7 31.6 L36.75 31.6 37.5 30.7 37.55 30.65" fill="#2a1102" fill-opacity="0.4509804" fill-rule="evenodd" stroke="none"/>
    <path d="M38.5 31.65 Q38.35 31.9 38.35 32.25 L38.75 33.0 38.7 33.0 42.3 36.6 42.85 36.85 42.95 36.85 43.2 36.8 43.25 36.75 44.0 35.9 44.0 35.85 44.1 35.35 44.1 35.3 43.8 34.65 40.2 31.05 40.15 31.05 40.15 31.0 39.55 30.7 39.2 30.85 39.25 30.85 38.5 31.65 M39.6 28.55 L39.7 28.55 Q40.85 28.6 41.75 29.55 L41.7 29.55 45.3 33.15 Q46.2 34.0 46.25 35.2 46.35 36.5 45.6 37.3 L44.85 38.15 44.9 38.05 Q44.15 39.05 42.85 39.0 L42.8 39.0 Q41.7 39.0 40.8 38.1 L37.15 34.45 Q36.35 33.6 36.2 32.45 L36.2 32.4 Q36.15 31.2 36.8 30.35 L36.85 30.35 37.6 29.5 37.65 29.4 Q38.4 28.55 39.6 28.55" fill="url(#gradient7)" fill-rule="evenodd" stroke="none"/>
    <path d="M38.9 31.2 L38.5 31.65 Q38.35 31.9 38.35 32.25 L38.75 33.0 38.7 33.0 42.3 36.6 42.85 36.85 42.95 36.85 43.15 36.8 42.8 37.2 42.7 37.25 42.45 37.35 42.4 37.35 41.8 37.1 38.2 33.5 38.25 33.5 Q37.95 33.15 37.9 32.7 37.9 32.35 38.05 32.1 L38.75 31.35 38.8 31.3 38.9 31.2 M44.45 38.55 L44.4 38.55 44.45 38.55" fill="#91999c" fill-rule="evenodd" stroke="none"/>
    <path d="M37.5 29.6 L37.65 29.4 Q38.4 28.55 39.6 28.55 L39.7 28.55 Q40.85 28.6 41.75 29.55 L41.7 29.55 45.3 33.15 Q46.2 34.0 46.25 35.2 46.35 36.5 45.6 37.3 L44.85 38.15 44.9 38.05 44.45 38.55 45.1 37.75 Q45.9 36.95 45.75 35.65 45.7 34.45 44.8 33.6 L41.2 30.0 41.25 30.0 Q40.35 29.05 39.2 29.05 L39.1 29.05 Q38.15 29.05 37.5 29.6" fill="#bbbbbb" fill-rule="evenodd" stroke="none"/>
    <path d="M49.25 41.55 Q49.1 41.8 49.1 42.15 L49.5 42.9 49.45 42.9 53.05 46.5 53.6 46.75 53.7 46.75 53.95 46.7 54.0 46.65 54.75 45.8 54.75 45.75 54.85 45.25 54.85 45.2 54.55 44.55 50.95 40.95 50.9 40.95 50.9 40.9 50.3 40.6 Q50.1 40.6 49.95 40.75 L50.0 40.75 49.25 41.55 M48.35 39.4 L48.4 39.3 Q49.15 38.45 50.35 38.45 L50.45 38.45 Q51.6 38.5 52.5 39.45 L52.45 39.45 56.05 43.05 Q56.95 43.9 57.0 45.1 57.1 46.4 56.35 47.2 L55.6 48.05 55.65 47.95 Q54.9 48.95 53.6 48.9 L53.55 48.9 Q52.45 48.9 51.55 48.0 L47.9 44.35 Q47.1 43.5 46.95 42.35 L46.95 42.3 Q46.9 41.1 47.55 40.25 L47.6 40.25 48.35 39.4" fill="url(#gradient8)" fill-rule="evenodd" stroke="none"/>
    <path d="M55.2 48.45 L55.15 48.45 55.2 48.45" fill="#91999c" fill-rule="evenodd" stroke="none"/>
    <path d="M48.25 39.5 L48.4 39.3 Q49.15 38.45 50.35 38.45 L50.45 38.45 Q51.6 38.5 52.5 39.45 L52.45 39.45 56.05 43.05 Q56.95 43.9 57.0 45.1 57.1 46.4 56.35 47.2 L55.6 48.05 55.65 47.95 55.2 48.45 55.85 47.65 Q56.65 46.85 56.5 45.55 56.45 44.35 55.55 43.5 L51.95 39.9 52.0 39.9 Q51.1 38.95 49.95 38.95 L49.85 38.95 Q48.9 38.95 48.25 39.5 M49.65 41.1 L49.25 41.55 Q49.1 41.8 49.1 42.15 L49.5 42.9 49.45 42.9 53.05 46.5 53.6 46.75 53.7 46.75 53.9 46.7 53.55 47.1 53.45 47.15 53.2 47.25 53.15 47.25 52.55 47.0 48.95 43.4 49.0 43.4 48.65 42.6 Q48.65 42.25 48.8 42.0 L49.5 41.25 49.55 41.2 49.65 41.1" fill="#bbbbbb" fill-rule="evenodd" stroke="none"/>
    <path d="M43.7 34.85 Q44.25 34.85 44.6 35.25 L50.45 40.85 Q50.85 41.2 50.85 41.75 L50.5 42.65 Q50.1 43.05 49.6 43.05 49.05 43.05 48.65 42.7 L42.85 37.1 42.45 36.2 Q42.45 35.65 42.85 35.25 43.15 34.85 43.7 34.85" fill="url(#gradient9)" fill-rule="evenodd" stroke="none"/>
    <path d="M55.55 46.35 Q56.1 46.35 56.45 46.75 L62.3 52.35 Q62.7 52.7 62.7 53.25 L62.35 54.15 Q61.95 54.55 61.45 54.55 60.9 54.55 60.5 54.2 L54.7 48.6 Q54.3 48.2 54.3 47.7 54.3 47.15 54.7 46.75 55.0 46.35 55.55 46.35" fill="url(#gradient10)" fill-rule="evenodd" stroke="none"/>
    <path d="M31.5 26.9 Q32.0 26.7 32.5 26.9 L39.95 30.1 40.6 30.85 Q40.8 31.3 40.6 31.75 L39.9 32.45 Q39.4 32.65 38.9 32.45 L31.45 29.25 Q30.95 29.05 30.8 28.55 30.6 28.05 30.8 27.55 31.0 27.1 31.5 26.9" fill="url(#gradient11)" fill-rule="evenodd" stroke="none"/>
    <path d="M11.95 44.0 Q11.2 39.3 12.2 34.95 11.45 38.95 12.1 43.25 21.25 56.25 34.85 48.1 37.55 43.85 38.6 39.2 37.55 44.2 34.7 48.85 21.1 57.0 11.95 44.0" fill="#9a582e" fill-rule="evenodd" stroke="none"/>
    <path d="M1.0 -3.35 L1.5 -2.9 3.45 2.25 Q3.55 2.6 3.25 2.95 L2.5 3.5 1.6 3.55 1.0 3.15 -0.85 -2.05 Q-1.05 -2.4 -0.8 -2.75 L0.05 -3.3 1.0 -3.35" fill="url(#gradient12)" fill-rule="evenodd" stroke="none"/>
  </g>
  <defs>
    <radialGradient cx="0" cy="0" gradientTransform="matrix(0.0055, 0.0053, -0.0029, 0.0029, 3.9, 3.85)" gradientUnits="userSpaceOnUse" id="gradient0" r="819.2" spreadMethod="pad">
      <stop offset="0.30980392156862746" stop-color="#3b4a4f"/>
      <stop offset="0.9058823529411765" stop-color="#6f787b"/>
    </radialGradient>
    <radialGradient cx="0" cy="0" gradientTransform="matrix(0.0055, 0.0053, -0.0029, 0.0029, 14.65, 13.8)" gradientUnits="userSpaceOnUse" id="gradient1" r="819.2" spreadMethod="pad">
      <stop offset="0.30980392156862746" stop-color="#3b4a4f"/>
      <stop offset="0.9058823529411765" stop-color="#6f787b"/>
    </radialGradient>
    <radialGradient cx="0" cy="0" gradientTransform="matrix(9.0E-4, -0.001, 0.0067, 0.0058, 8.1, 9.5)" gradientUnits="userSpaceOnUse" id="gradient2" r="819.2" spreadMethod="pad">
      <stop offset="0.30980392156862746" stop-color="#3b4a4f"/>
      <stop offset="0.9058823529411765" stop-color="#8e9ca1"/>
    </radialGradient>
    <linearGradient gradientTransform="matrix(0.006, -0.0094, 0.0101, 0.0072, 24.4, 41.1)" gradientUnits="userSpaceOnUse" id="gradient3" spreadMethod="pad" x1="-819.2" x2="819.2">
      <stop offset="0.30196078431372547" stop-color="#3a1b08"/>
      <stop offset="0.9058823529411765" stop-color="#663211"/>
    </linearGradient>
    <linearGradient gradientTransform="matrix(0.0032, -0.0077, 0.0085, 0.0035, 27.8, 24.05)" gradientUnits="userSpaceOnUse" id="gradient4" spreadMethod="pad" x1="-819.2" x2="819.2">
      <stop offset="0.24313725490196078" stop-color="#43220d"/>
      <stop offset="0.9058823529411765" stop-color="#a16641"/>
    </linearGradient>
    <radialGradient cx="0" cy="0" gradientTransform="matrix(9.0E-4, -0.001, 0.0067, 0.0058, 19.9, 21.0)" gradientUnits="userSpaceOnUse" id="gradient5" r="819.2" spreadMethod="pad">
      <stop offset="0.30980392156862746" stop-color="#3b4a4f"/>
      <stop offset="0.9058823529411765" stop-color="#6f787b"/>
    </radialGradient>
    <radialGradient cx="0" cy="0" gradientTransform="matrix(0.0013, 3.0E-4, -0.0012, 0.0059, 59.95, 50.9)" gradientUnits="userSpaceOnUse" id="gradient6" r="819.2" spreadMethod="pad">
      <stop offset="0.30980392156862746" stop-color="#3b4a4f"/>
      <stop offset="0.9058823529411765" stop-color="#8e9ca1"/>
    </radialGradient>
    <radialGradient cx="0" cy="0" gradientTransform="matrix(0.0055, 0.0053, -0.0029, 0.0029, 41.4, 33.6)" gradientUnits="userSpaceOnUse" id="gradient7" r="819.2" spreadMethod="pad">
      <stop offset="0.30980392156862746" stop-color="#3b4a4f"/>
      <stop offset="0.9058823529411765" stop-color="#6f787b"/>
    </radialGradient>
    <radialGradient cx="0" cy="0" gradientTransform="matrix(0.0055, 0.0053, -0.0029, 0.0029, 52.15, 43.5)" gradientUnits="userSpaceOnUse" id="gradient8" r="819.2" spreadMethod="pad">
      <stop offset="0.30980392156862746" stop-color="#3b4a4f"/>
      <stop offset="0.9058823529411765" stop-color="#6f787b"/>
    </radialGradient>
    <radialGradient cx="0" cy="0" gradientTransform="matrix(9.0E-4, -0.001, 0.0067, 0.0058, 45.6, 39.25)" gradientUnits="userSpaceOnUse" id="gradient9" r="819.2" spreadMethod="pad">
      <stop offset="0.30980392156862746" stop-color="#3b4a4f"/>
      <stop offset="0.9058823529411765" stop-color="#8e9ca1"/>
    </radialGradient>
    <radialGradient cx="0" cy="0" gradientTransform="matrix(9.0E-4, -0.001, 0.0067, 0.0058, 57.45, 50.75)" gradientUnits="userSpaceOnUse" id="gradient10" r="819.2" spreadMethod="pad">
      <stop offset="0.30980392156862746" stop-color="#3b4a4f"/>
      <stop offset="0.9058823529411765" stop-color="#6f787b"/>
    </radialGradient>
    <radialGradient cx="0" cy="0" gradientTransform="matrix(5.0E-4, -0.0012, 0.0084, 0.0031, 34.85, 30.35)" gradientUnits="userSpaceOnUse" id="gradient11" r="819.2" spreadMethod="pad">
      <stop offset="0.30980392156862746" stop-color="#3b4a4f"/>
      <stop offset="0.9058823529411765" stop-color="#8c9ca1"/>
    </radialGradient>
    <radialGradient cx="0" cy="0" gradientTransform="matrix(0.0012, -5.0E-4, 0.0025, 0.0055, 0.25, 0.05)" gradientUnits="userSpaceOnUse" id="gradient12" r="819.2" spreadMethod="pad">
      <stop offset="0.30980392156862746" stop-color="#3b4a4f"/>
      <stop offset="0.9058823529411765" stop-color="#8e9ca1"/>
    </radialGradient>
  </defs>
</svg>
