<?xml version="1.0" encoding="UTF-8" standalone="no"?>
<svg xmlns:ffdec="https://www.free-decompiler.com/flash" xmlns:xlink="http://www.w3.org/1999/xlink" ffdec:objectType="shape" height="124.35px" width="132.0px" xmlns="http://www.w3.org/2000/svg">
  <g transform="matrix(1.0, 0.0, 0.0, 1.0, -8.85, -11.35)">
    <path d="M137.2 62.25 L137.2 29.8 Q137.2 19.55 127.75 19.55 L94.4 19.55 Q84.9 19.55 84.9 29.8 L84.9 62.25 Q84.9 72.55 94.4 72.55 L127.75 72.55 Q137.2 72.55 137.2 62.25 M140.85 29.8 L140.85 62.25 Q140.85 76.5 127.75 76.5 L94.4 76.5 Q81.25 76.5 81.25 62.25 L81.25 29.8 Q81.25 15.6 94.4 15.6 L127.75 15.6 Q140.85 15.6 140.85 29.8" fill="#ffbd64" fill-rule="evenodd" stroke="none"/>
    <path d="M140.05 27.25 L140.05 59.7 Q140.05 73.95 126.95 73.95 L93.6 73.95 Q80.45 73.95 80.45 59.7 L80.45 27.25 Q80.45 13.05 93.6 13.05 L126.95 13.05 Q140.05 13.05 140.05 27.25 M136.4 59.7 L136.4 27.25 Q136.4 17.0 126.95 17.0 L93.6 17.0 Q84.1 17.0 84.1 27.25 L84.1 59.7 Q84.1 70.0 93.6 70.0 L126.95 70.0 Q136.4 70.0 136.4 59.7" fill="#6d3000" fill-rule="evenodd" stroke="none"/>
    <path d="M86.7 49.8 L86.65 50.05 86.7 50.1 88.8 51.9 88.85 51.95 Q90.15 53.45 92.1 56.7 L95.0 61.3 Q97.6 64.85 97.85 71.1 98.15 78.35 98.8 80.65 L99.35 83.6 99.6 86.4 Q99.6 88.35 98.35 89.7 97.55 90.55 96.3 91.0 L95.7 91.9 Q95.0 92.65 93.4 92.6 L92.55 92.3 92.4 92.15 Q91.75 92.7 91.1 92.55 L89.45 92.3 89.3 92.25 89.35 92.15 Q88.8 92.15 88.4 91.8 87.95 91.4 87.9 90.85 L87.8 90.15 87.8 89.7 88.3 88.25 88.0 88.25 Q86.5 88.25 86.2 87.65 85.8 87.25 85.75 86.75 L87.0 101.0 86.75 100.5 86.85 103.05 Q90.3 111.95 89.75 118.75 L90.25 120.4 90.3 120.45 90.3 121.85 Q92.1 124.55 93.55 127.75 L93.55 127.8 Q94.0 128.95 93.8 130.15 93.25 133.05 90.2 134.0 L90.25 134.0 Q84.85 135.75 83.05 131.25 L82.75 130.45 82.6 130.05 81.6 125.6 81.4 125.45 Q81.0 125.1 80.95 124.6 L80.9 123.9 Q79.1 121.7 79.75 119.0 L79.85 118.55 Q78.4 114.15 76.75 110.45 L76.75 110.5 76.2 109.3 75.6 109.3 65.4 109.2 65.0 109.15 63.85 108.75 61.75 107.9 61.65 108.7 61.9 108.95 62.15 109.8 62.15 109.85 62.15 110.15 61.15 115.1 60.85 115.75 60.25 116.2 60.1 116.25 59.25 118.55 58.8 119.2 58.3 119.65 57.85 120.75 58.15 121.35 58.0 122.3 56.9 124.3 Q57.45 125.85 56.75 129.95 L56.15 130.95 Q51.75 134.05 47.9 135.15 L47.05 135.35 47.0 135.4 43.4 135.65 Q41.1 135.3 40.95 133.55 L40.95 133.5 Q40.4 131.4 42.9 129.1 L42.95 129.05 46.35 125.45 46.4 125.4 46.6 125.2 46.55 125.2 Q47.1 124.45 47.85 122.7 L48.6 115.75 48.45 115.45 Q47.3 112.6 48.4 109.4 L48.45 109.3 Q48.65 108.75 49.15 108.5 L49.35 108.4 49.5 107.1 49.05 106.55 Q48.65 106.05 48.7 105.5 48.75 104.9 49.2 104.5 49.45 104.25 49.8 104.15 L50.45 98.1 50.45 98.0 Q50.25 94.85 50.7 92.95 L50.7 93.05 50.85 92.0 Q51.4 88.4 53.1 79.25 L53.5 77.05 53.75 76.4 53.8 76.5 53.75 69.75 53.35 69.5 Q52.9 69.1 52.85 68.55 L52.8 68.35 52.5 68.45 51.1 68.8 50.55 69.55 49.65 69.85 49.2 69.85 Q48.65 69.85 48.25 69.5 L37.85 72.1 Q36.4 74.55 32.65 74.35 31.15 74.3 30.7 73.35 L30.5 73.1 30.45 73.0 Q28.8 71.65 28.05 69.05 L27.35 66.75 23.85 68.35 Q23.25 68.55 22.7 68.35 22.1 68.15 21.85 67.6 L21.1 66.0 Q20.85 65.4 21.05 64.85 21.25 64.25 21.85 64.0 L26.15 62.0 25.65 60.75 25.6 60.75 25.5 60.45 25.1 59.55 25.1 59.5 18.8 44.7 9.25 22.3 Q9.05 21.9 9.15 21.5 L10.2 14.25 Q10.25 13.65 10.7 13.3 11.1 12.95 11.65 12.95 L11.75 12.95 12.7 13.35 18.2 18.15 18.6 18.7 35.1 57.85 40.75 55.3 41.9 55.25 42.7 56.05 43.35 57.4 46.25 55.95 46.55 55.85 47.95 54.0 51.05 49.1 Q50.65 48.05 51.2 46.85 51.65 45.6 53.6 44.25 L53.55 44.3 55.8 42.55 Q54.95 37.25 55.2 33.2 55.55 27.45 57.05 23.0 L57.0 23.05 Q58.25 18.3 65.9 13.35 L66.55 13.1 67.2 13.2 Q71.0 14.5 74.15 18.75 77.3 22.9 77.85 25.55 78.5 28.15 78.7 37.2 L78.5 41.55 82.35 44.45 86.6 49.0 86.7 49.8 M82.5 63.3 L82.75 65.25 82.85 66.55 Q83.7 73.15 84.7 76.0 84.15 76.1 84.25 76.15 L84.5 76.4 84.75 77.05 85.75 84.8 85.75 84.95 85.75 85.8 Q86.0 84.85 86.9 83.3 87.75 81.65 88.5 80.7 L85.05 69.45 84.95 69.0 84.95 68.35 84.7 67.5 84.65 66.05 82.6 63.4 82.5 63.3" fill="#ffbd64" fill-rule="evenodd" stroke="none"/>
    <path d="M86.45 48.2 L86.4 48.45 86.45 48.5 88.55 50.3 88.6 50.35 Q89.9 51.85 91.85 55.1 L94.75 59.7 Q97.35 63.25 97.6 69.5 97.9 76.75 98.55 79.05 L99.1 82.0 99.35 84.8 Q99.35 86.75 98.1 88.1 97.3 88.95 96.05 89.4 L95.45 90.3 Q94.75 91.05 93.15 91.0 92.65 91.0 92.3 90.7 L92.15 90.55 Q91.5 91.1 90.85 90.95 L89.2 90.7 89.05 90.65 89.1 90.55 Q88.55 90.55 88.15 90.2 87.7 89.8 87.65 89.25 L87.55 88.55 87.55 88.1 88.05 86.65 87.75 86.65 Q86.25 86.65 85.95 86.05 85.55 85.65 85.5 85.15 L86.75 99.4 86.5 98.9 86.6 101.45 Q90.05 110.35 89.5 117.15 L90.0 118.8 90.05 118.85 90.05 120.25 Q91.85 122.95 93.3 126.15 L93.3 126.2 Q93.75 127.35 93.55 128.55 93.0 131.45 89.95 132.4 L90.0 132.4 Q84.6 134.15 82.8 129.65 L82.5 128.85 82.35 128.45 81.35 124.0 81.15 123.85 Q80.75 123.5 80.7 123.0 L80.65 122.3 Q78.85 120.1 79.5 117.4 L79.6 116.95 Q78.15 112.55 76.5 108.85 L76.5 108.9 75.95 107.7 75.35 107.7 65.15 107.6 64.75 107.55 63.6 107.15 61.5 106.3 61.4 107.1 61.65 107.35 61.9 108.2 61.9 108.25 61.9 108.55 60.9 113.5 60.6 114.15 60.0 114.6 59.85 114.65 59.0 116.95 58.55 117.6 Q58.25 117.8 58.05 118.05 L57.6 119.15 57.9 119.75 57.75 120.7 56.65 122.7 Q57.2 124.25 56.5 128.35 L55.9 129.35 Q51.5 132.45 47.65 133.55 L46.8 133.75 46.75 133.8 43.15 134.05 Q40.85 133.7 40.7 131.95 L40.7 131.9 Q40.15 129.8 42.65 127.5 L42.7 127.45 46.1 123.85 46.15 123.8 46.35 123.6 46.3 123.6 47.6 121.1 48.35 114.15 48.2 113.85 Q47.05 111.0 48.15 107.8 L48.2 107.7 Q48.4 107.15 48.9 106.9 L49.1 106.8 49.25 105.5 48.8 104.95 Q48.4 104.45 48.45 103.9 48.5 103.3 48.95 102.9 49.2 102.65 49.55 102.55 L50.2 96.5 50.2 96.4 Q50.0 93.25 50.45 91.35 L50.45 91.45 50.6 90.4 Q51.15 86.8 52.85 77.65 L53.25 75.45 53.5 74.8 53.55 74.9 53.5 68.15 53.1 67.9 Q52.65 67.5 52.6 66.95 L52.55 66.75 52.25 66.85 50.85 67.2 50.3 67.95 49.4 68.25 48.95 68.25 Q48.4 68.25 48.0 67.9 L37.6 70.5 Q36.15 72.95 32.4 72.75 30.9 72.7 30.45 71.75 L30.25 71.5 30.2 71.4 Q28.55 70.05 27.8 67.45 L27.1 65.15 23.6 66.75 Q23.0 66.95 22.45 66.75 21.85 66.55 21.6 66.0 L20.85 64.4 Q20.6 63.8 20.8 63.25 21.0 62.65 21.6 62.4 L25.9 60.4 25.4 59.15 25.35 59.15 25.25 58.85 24.85 57.95 24.85 57.9 18.55 43.1 9.0 20.7 Q8.8 20.3 8.9 19.9 L9.95 12.65 Q10.0 12.05 10.45 11.7 10.85 11.35 11.4 11.35 L11.5 11.35 12.45 11.75 17.95 16.55 18.35 17.1 34.85 56.25 40.5 53.7 41.65 53.65 42.45 54.45 43.1 55.8 46.0 54.35 46.3 54.25 47.7 52.4 50.8 47.5 Q50.4 46.45 50.95 45.25 51.4 44.0 53.35 42.65 L53.3 42.7 55.55 40.95 Q54.7 35.65 54.95 31.6 55.3 25.85 56.8 21.4 L56.75 21.45 Q58.0 16.7 65.65 11.75 L66.3 11.5 66.95 11.6 Q70.75 12.9 73.9 17.15 77.05 21.3 77.6 23.95 78.25 26.55 78.45 35.6 L78.25 39.95 Q80.4 41.35 82.1 42.85 L86.35 47.4 86.45 48.2 M82.25 61.7 L82.5 63.65 82.6 64.95 Q83.45 71.55 84.45 74.4 83.9 74.5 84.0 74.55 L84.25 74.8 84.5 75.45 85.5 83.2 85.5 83.35 85.5 84.2 86.65 81.7 Q87.5 80.05 88.25 79.1 L84.8 67.85 84.7 67.4 84.7 66.75 84.45 65.9 84.4 64.45 82.35 61.8 82.25 61.7" fill="#6d3000" fill-rule="evenodd" stroke="none"/>
    <path d="M51.7 96.35 L60.15 98.05 Q60.65 108.8 57.6 116.4 56.25 117.5 55.6 118.6 55.65 119.35 56.4 120.0 L54.6 123.1 49.0 122.2 51.7 96.35" fill="#000000" fill-rule="evenodd" stroke="none"/>
    <path d="M72.95 99.45 L74.2 98.05 82.6 96.2 Q89.45 110.0 87.7 119.25 L82.2 122.8 81.8 118.95 Q78.05 106.65 72.95 99.45" fill="#000000" fill-rule="evenodd" stroke="none"/>
    <path d="M61.3 49.45 L52.75 63.8 Q51.55 64.4 50.35 64.95 L45.55 58.5 54.1 45.15 61.3 49.45" fill="#000000" fill-opacity="0.92941177" fill-rule="evenodd" stroke="none"/>
    <path d="M95.6 74.5 L89.45 74.9 88.9 75.5 84.85 60.2 93.0 60.4 95.6 74.5" fill="#000000" fill-rule="evenodd" stroke="none"/>
    <path d="M91.7 59.4 Q94.5 60.3 94.6 63.75 L94.6 65.5 Q94.55 66.65 93.2 66.3 91.4 65.85 92.0 63.65 92.15 63.15 91.75 62.7 91.55 62.45 91.3 62.7 90.7 63.25 90.05 62.7 89.05 63.45 87.7 63.05 L87.25 62.95 87.4 63.05 87.95 63.35 88.15 63.5 Q86.9 66.0 85.7 63.2 L85.7 62.55 Q86.3 59.7 87.9 61.45 L89.75 61.2 90.7 61.0 90.6 60.55 Q90.6 59.5 91.7 59.4" fill="#000000" fill-rule="evenodd" stroke="none"/>
    <path d="M108.45 27.7 L114.35 25.7 115.05 41.6 129.1 41.6 129.1 48.15 115.05 48.15 115.05 62.35 108.45 62.35 106.95 59.95 108.45 48.15 94.4 48.15 92.75 44.75 94.4 41.6 108.45 41.6 108.45 27.7" fill="#ffbd64" fill-rule="evenodd" stroke="none"/>
    <path d="M93.05 60.1 L86.4 63.45 86.15 64.3 76.45 51.8 80.35 45.55 82.9 47.3 Q89.55 51.9 93.05 60.1" fill="#000000" fill-rule="evenodd" stroke="none"/>
    <path d="M65.8 42.7 Q65.15 50.55 66.9 52.65 62.85 71.6 69.4 75.9 68.3 75.9 67.6 76.6 65.45 78.8 59.45 79.7 55.25 74.6 54.25 68.15 53.25 61.65 54.8 54.25 54.6 53.05 55.95 49.5 54.25 45.65 58.4 42.7 L65.8 42.7" fill="#a61313" fill-rule="evenodd" stroke="none"/>
    <path d="M65.8 42.7 L78.6 42.7 Q82.5 45.9 82.3 50.6 82.15 53.5 80.35 59.45 81.25 64.4 81.1 66.25 81.7 68.0 81.6 72.75 79.8 69.35 80.95 74.7 79.35 86.5 75.65 79.25 72.8 76.85 70.85 76.2 70.0 76.45 69.4 75.9 62.85 71.6 66.9 52.65 65.15 50.55 65.8 42.7" fill="#000000" fill-rule="evenodd" stroke="none"/>
    <path d="M76.95 35.6 Q77.1 44.5 72.9 47.2 68.65 49.85 65.25 47.4 61.8 44.9 59.0 41.05 58.55 40.45 57.4 42.75 56.15 36.35 56.45 31.7 56.8 26.15 58.2 21.85 59.45 17.55 66.45 13.0 69.85 14.2 72.7 18.05 75.6 21.85 76.1 24.25 76.75 26.7 76.95 35.6" fill="#727272" fill-rule="evenodd" stroke="none"/>
    <path d="M76.0 40.35 Q82.1 43.9 84.95 48.2 61.95 63.2 52.55 47.55 51.2 46.0 54.2 43.85 L58.1 40.85 74.45 35.0 76.0 40.35" fill="#727272" fill-rule="evenodd" stroke="none"/>
    <path d="M68.95 26.65 L70.65 26.75 71.1 28.4 71.05 35.55 Q70.7 39.4 69.35 41.3 67.9 43.2 66.15 42.9 L63.5 42.6 Q62.6 42.55 60.95 40.8 59.3 39.1 59.2 34.7 L58.95 29.45 Q58.9 27.65 59.4 27.1 59.8 26.45 60.85 27.1 L68.95 26.65" fill="#ffaf7e" fill-rule="evenodd" stroke="none"/>
    <path d="M63.4 35.5 L67.35 35.7 Q68.4 36.0 68.55 37.15 L68.6 39.05 Q68.5 39.8 68.7 40.8 68.9 42.05 67.95 42.45 L67.9 42.55 67.85 42.6 67.75 42.7 67.65 42.8 Q65.45 44.0 62.95 43.05 62.1 42.7 61.55 42.0 60.7 40.95 60.9 39.25 L61.1 37.9 61.05 37.8 61.0 37.7 61.0 37.65 60.95 37.55 60.95 37.4 60.95 37.3 60.95 37.2 Q61.1 36.35 61.75 35.9 62.5 35.4 63.4 35.5" fill="#a35518" fill-rule="evenodd" stroke="none"/>
    <path d="M60.55 29.4 L60.75 29.3 Q62.75 29.0 63.55 30.45 63.95 31.2 63.7 31.95 63.15 33.85 61.1 33.5 60.35 33.35 60.05 32.6 59.6 31.45 59.8 29.1 60.15 29.9 60.55 29.4" fill="#e5865a" fill-rule="evenodd" stroke="none"/>
    <path d="M56.15 71.25 Q55.85 73.0 56.15 71.35 L56.15 71.25 M68.2 74.5 Q67.55 77.9 66.4 76.05 64.4 97.3 65.2 106.1 60.25 104.55 52.0 99.7 51.3 94.4 51.9 91.65 52.45 87.75 55.5 71.45 L55.8 70.85 Q62.4 75.15 68.2 74.5" fill="#000000" fill-rule="evenodd" stroke="none"/>
    <path d="M68.2 74.5 Q74.6 75.3 81.1 70.55 84.05 71.8 85.15 103.8 84.4 103.85 83.65 104.45 L82.4 101.15 Q82.55 105.95 77.85 106.15 L65.2 106.1 Q64.4 97.3 66.4 76.05 67.55 77.9 68.2 74.5" fill="#a61313" fill-rule="evenodd" stroke="none"/>
    <path d="M80.95 93.2 L81.45 99.35 Q83.2 99.95 83.55 102.15 L83.3 103.3 Q82.2 103.85 81.7 102.65 L80.55 102.6 80.55 102.75 Q80.55 103.35 80.0 103.55 L79.4 103.6 Q78.1 96.2 79.25 88.3 79.85 84.25 80.95 80.85 80.5 87.2 80.95 93.2" fill="#d41919" fill-rule="evenodd" stroke="none"/>
    <path d="M34.3 58.8 Q31.35 60.65 28.45 62.6 L27.15 59.45 10.4 20.1 11.45 12.85 16.95 17.65 34.3 58.8" fill="#cdcdcd" fill-rule="evenodd" stroke="none"/>
    <path d="M33.85 62.05 L46.65 55.7 Q52.9 61.4 51.9 65.4 L36.25 69.3 33.85 62.05" fill="#727272" fill-rule="evenodd" stroke="none"/>
    <path d="M73.7 71.65 L73.7 92.4 Q72.5 94.35 70.45 92.4 L72.8 71.65 73.7 71.65" fill="#000000" fill-rule="evenodd" stroke="none"/>
    <path d="M75.4 71.8 Q77.05 83.4 80.55 90.0 L80.0 92.45 77.2 92.15 72.7 70.5 75.9 69.8 75.4 71.8" fill="#000000" fill-rule="evenodd" stroke="none"/>
    <path d="M49.6 108.2 Q54.8 109.5 60.4 108.2 L59.4 113.2 58.15 113.6 Q54.25 115.05 49.6 113.3 48.65 110.9 49.6 108.2" fill="#000000" fill-rule="evenodd" stroke="none"/>
    <path d="M52.6 107.35 L49.95 104.0 54.8 104.0 54.8 107.1 52.6 107.35" fill="#000000" fill-rule="evenodd" stroke="none"/>
    <path d="M50.75 116.65 Q50.65 121.5 51.15 121.15 52.95 120.05 53.45 120.8 53.8 121.25 57.6 114.95 54.6 122.45 55.05 122.9 55.75 123.8 55.0 128.1 50.45 131.35 46.45 132.3 42.45 133.15 42.15 131.65 41.9 130.2 43.7 128.55 L47.45 124.55 Q48.8 122.95 50.75 116.65" fill="#000000" fill-rule="evenodd" stroke="none"/>
    <path d="M12.2 13.55 L11.2 20.0 29.45 63.95 27.15 59.45 10.35 20.1 11.4 12.85 12.2 13.55" fill="#727272" fill-rule="evenodd" stroke="none"/>
    <path d="M32.35 60.15 L31.4 60.55 13.4 16.9 32.35 60.15" fill="#999999" fill-rule="evenodd" stroke="none"/>
    <path d="M13.95 15.9 L14.35 16.55 16.2 18.4 Q16.9 19.25 16.55 20.35 L19.5 27.15 Q20.45 29.65 21.0 32.15 19.35 30.1 18.35 26.85 L17.0 22.9 Q16.5 22.75 16.45 22.25 L16.4 21.6 16.35 21.55 15.8 21.4 Q15.6 20.95 15.75 20.45 L15.75 19.7 15.7 19.7 14.5 18.85 16.35 24.3 Q17.25 26.5 17.2 28.6 16.25 27.75 15.65 26.25 L14.8 24.05 14.45 23.9 14.3 23.75 14.25 23.3 14.15 22.65 14.15 22.55 Q14.0 22.65 14.0 22.9 13.95 23.35 13.55 23.45 13.1 23.45 13.1 23.0 L13.1 22.45 Q12.1 20.65 12.15 18.65 L12.15 18.3 11.95 17.1 Q11.85 15.5 12.45 14.45 L13.95 15.9 M14.45 18.8 L14.35 18.65 13.7 17.75 13.75 18.0 13.8 18.45 13.85 18.6 13.9 18.65 14.45 18.8" fill="#ffffff" fill-rule="evenodd" stroke="none"/>
    <path d="M22.2 63.75 L41.1 55.05 41.85 56.65 22.95 65.35 22.2 63.75" fill="#9a0000" fill-rule="evenodd" stroke="none"/>
    <path d="M97.0 79.35 L89.95 79.65 85.9 66.4 95.15 63.65 97.0 79.35" fill="#727272" fill-rule="evenodd" stroke="none"/>
    <path d="M81.15 116.45 L86.6 115.25 89.25 126.9 83.8 128.1 81.15 116.45" fill="#000000" fill-rule="evenodd" stroke="none"/>
    <path d="M82.55 116.15 L82.15 117.55 Q85.15 118.35 85.35 122.0 L85.25 126.45 Q85.15 127.05 84.7 126.6 83.0 125.05 82.75 122.65 L82.45 122.05 Q80.4 120.15 80.95 117.7 L81.95 113.6 Q83.0 114.6 82.55 116.15" fill="#000000" fill-rule="evenodd" stroke="none"/>
    <path d="M87.1 115.75 Q88.1 117.3 88.55 119.15 88.75 120.05 88.1 120.85 90.15 121.8 88.0 123.25 L87.5 124.0 Q89.45 124.15 89.3 126.35 L89.0 127.65 88.2 127.7 88.1 127.65 87.9 126.25 87.9 125.3 Q87.3 125.9 86.25 125.7 85.8 124.6 86.3 123.5 L87.05 122.25 Q86.2 121.35 86.95 120.25 L87.6 119.0 Q86.8 118.05 86.6 116.85 86.5 116.05 87.1 115.75" fill="#000000" fill-rule="evenodd" stroke="none"/>
    <path d="M82.7 123.2 Q85.25 124.75 87.4 125.7 L88.9 125.55 88.9 125.5 87.7 122.2 Q86.95 120.75 88.1 120.15 90.3 123.1 91.9 126.75 L92.05 128.25 Q91.65 130.3 89.5 130.95 85.55 132.25 84.15 129.05 83.85 128.35 82.7 123.2" fill="#000000" fill-rule="evenodd" stroke="none"/>
    <path d="M28.45 64.25 Q28.95 65.2 28.9 64.65 L28.45 64.25 M29.7 61.55 L33.3 60.3 Q35.1 60.95 36.55 62.5 37.35 63.4 36.6 64.3 37.45 64.35 37.7 65.3 37.9 66.1 37.5 66.75 37.85 67.2 37.75 67.8 37.6 68.75 36.6 69.1 35.65 71.4 32.45 71.25 31.35 71.2 31.65 70.0 31.7 69.75 31.15 70.25 29.85 69.15 29.25 67.05 L28.3 64.05 Q26.9 62.3 29.7 61.55" fill="#000000" fill-rule="evenodd" stroke="none"/>
    <path d="M38.3 61.45 Q41.1 59.3 44.15 58.25 L46.25 57.05 47.45 58.25 Q47.65 58.65 47.45 59.1 L46.9 59.2 46.85 59.2 46.75 59.35 46.5 59.6 43.7 59.35 43.65 59.4 43.65 59.75 43.4 60.25 Q42.9 60.3 42.9 59.85 L42.75 59.65 39.2 61.25 38.3 61.45" fill="#cccccc" fill-rule="evenodd" stroke="none"/>
    <path d="M90.45 75.0 L91.35 78.05 93.25 78.3 93.3 78.35 Q91.1 80.5 90.35 77.45 L88.35 69.6 Q88.2 69.1 88.6 69.0 89.75 71.85 90.45 75.0" fill="#cccccc" fill-rule="evenodd" stroke="none"/>
    <path d="M58.5 44.2 L58.4 44.55 58.35 44.65 Q59.4 45.35 59.75 46.5 60.0 47.5 59.3 48.3 L59.55 48.6 59.75 48.75 59.85 48.95 59.85 49.05 Q57.8 52.0 55.4 49.3 L54.15 48.4 54.75 45.65 Q55.25 44.0 56.75 43.4 L57.7 43.5 Q58.1 43.3 58.4 43.65 L58.5 44.0 58.5 44.2 M57.65 48.95 L57.5 48.4 57.05 49.05 57.15 49.35 Q57.65 49.55 57.65 48.95" fill="#939393" fill-rule="evenodd" stroke="none"/>
    <path d="M61.15 18.1 Q62.7 15.9 65.35 15.3 66.65 16.8 67.2 19.2 67.4 20.35 68.15 21.25 69.25 22.55 67.5 22.35 65.6 22.5 63.7 23.25 62.35 23.8 62.5 22.25 L61.8 22.2 61.35 22.35 Q60.7 23.5 60.5 24.85 60.3 25.95 59.3 25.5 58.8 21.55 61.15 18.1" fill="#939393" fill-rule="evenodd" stroke="none"/>
    <path d="M65.45 16.75 L65.2 17.65 65.1 17.75 64.7 17.95 Q63.45 17.2 64.35 15.95 64.7 15.45 65.2 15.3 66.05 15.8 65.45 16.75" fill="#939393" fill-rule="evenodd" stroke="none"/>
    <path d="M62.35 56.3 Q63.0 59.25 63.0 62.5 62.95 64.85 62.0 66.9 61.5 68.0 60.5 67.1 L60.05 66.65 Q59.1 67.1 58.6 66.25 L58.5 66.05 Q57.5 66.55 57.35 65.45 L57.3 64.6 57.3 64.35 Q55.55 62.05 56.5 58.7 L56.55 57.55 Q56.15 54.7 57.15 52.8 59.05 54.35 61.75 55.5 L62.35 56.3" fill="#d41919" fill-rule="evenodd" stroke="none"/>
    <path d="M31.7 64.25 L29.95 64.4 Q30.45 63.35 31.85 62.75 32.85 62.3 33.8 62.0 34.05 63.2 31.7 64.25" fill="#333333" fill-rule="evenodd" stroke="none"/>
    <path d="M34.1 65.8 L32.1 65.55 Q33.45 64.75 35.05 64.1 L35.65 63.85 Q36.45 65.15 34.1 65.8" fill="#333333" fill-rule="evenodd" stroke="none"/>
    <path d="M34.55 68.7 Q33.65 69.0 33.25 68.3 33.95 67.35 35.25 67.05 L35.9 66.9 Q36.75 68.0 34.55 68.7" fill="#333333" fill-rule="evenodd" stroke="none"/>
    <path d="M59.4 28.55 L59.4 28.4 59.45 28.2 59.5 28.1 Q59.6 27.95 59.8 28.0 L59.95 28.05 60.1 28.15 60.2 28.25 60.25 28.4 60.4 28.6 61.25 28.75 62.25 28.95 62.7 29.2 62.75 29.25 63.2 29.6 63.2 29.7 63.15 29.8 63.15 29.85 63.0 30.05 63.0 30.15 62.95 30.25 62.85 30.35 Q62.1 30.8 61.25 30.35 L60.3 29.85 59.85 29.6 59.5 29.3 59.5 29.15 59.45 28.85 59.4 28.55" fill="#623b1c" fill-rule="evenodd" stroke="none"/>
    <path d="M69.65 31.25 L69.05 33.15 Q68.65 34.05 66.65 33.45 64.6 32.85 65.2 30.55 65.75 28.25 67.7 29.3 69.2 29.2 69.35 28.65 L69.65 31.25" fill="#e5865a" fill-rule="evenodd" stroke="none"/>
    <path d="M69.15 28.7 L69.15 28.55 69.1 28.35 69.05 28.25 68.75 28.15 68.6 28.2 68.45 28.3 68.35 28.4 68.3 28.55 68.15 28.75 67.3 28.9 66.3 29.1 Q66.05 29.2 65.85 29.35 L65.8 29.4 Q65.45 29.45 65.35 29.75 L65.35 29.85 65.4 29.95 65.4 30.0 65.55 30.2 65.55 30.3 65.6 30.4 65.7 30.5 Q66.45 30.95 67.3 30.5 L68.25 30.0 68.7 29.75 69.05 29.45 69.05 29.3 69.1 29.0 69.15 28.7" fill="#623b1c" fill-rule="evenodd" stroke="none"/>
    <path d="M65.0 30.7 Q65.3 31.15 65.25 31.85 L65.05 33.45 64.9 32.8 64.7 31.75 65.0 30.7 M65.3 34.55 L65.75 35.0 Q66.6 35.65 65.75 36.05 L65.65 36.1 63.3 35.95 62.8 35.6 Q62.8 35.15 63.25 35.0 L65.3 34.75 65.4 34.7 65.3 34.55" fill="#e5865a" fill-rule="evenodd" stroke="none"/>
    <path d="M63.7 33.05 L65.15 33.05 65.35 34.05 65.7 35.0 65.7 35.05 63.8 35.15 Q63.1 34.7 63.45 33.9 L63.7 33.05" fill="#fab290" fill-rule="evenodd" stroke="none"/>
    <path d="M71.9 36.6 L71.9 38.15 71.8 39.75 71.75 41.35 Q71.0 43.7 68.75 44.7 64.5 46.6 61.6 43.35 L60.7 42.45 60.7 42.35 60.7 42.25 60.7 42.2 60.75 42.1 60.75 42.0 60.8 41.9 Q62.4 41.9 64.3 42.65 66.95 43.65 68.8 41.6 70.2 39.95 70.75 37.9 L71.25 35.55 71.55 35.1 71.9 36.6" fill="#4d4d4d" fill-rule="evenodd" stroke="none"/>
    <path d="M66.6 38.35 L66.75 38.4 66.9 38.45 67.0 38.55 67.05 38.65 Q66.65 39.15 65.9 39.3 L63.55 39.2 63.15 39.05 62.8 38.7 62.8 38.55 Q63.2 38.25 63.65 38.4 L64.45 38.65 65.75 38.6 65.85 38.6 66.3 38.45 66.5 38.35 66.6 38.35" fill="#623b1c" fill-rule="evenodd" stroke="none"/>
    <path d="M91.3 79.15 L91.45 79.05 92.15 78.75 92.35 78.7 92.65 78.65 92.65 78.6 95.5 78.75 Q97.25 79.15 97.3 81.1 97.35 82.7 97.7 84.15 98.15 85.9 96.9 86.9 L96.45 87.1 96.45 87.25 96.4 87.4 96.35 87.55 96.25 87.8 96.2 87.95 96.15 88.05 96.0 88.2 95.8 88.35 95.7 88.4 95.1 88.35 94.85 88.25 94.7 88.15 94.6 88.15 94.6 88.25 94.6 88.4 94.6 88.65 94.5 88.95 94.4 89.1 94.25 89.25 93.9 89.4 93.2 89.5 93.0 89.35 92.75 89.1 92.7 88.55 92.85 87.75 92.9 86.45 92.9 85.85 92.7 86.3 91.5 88.75 90.95 89.4 90.85 89.45 89.8 89.4 89.55 89.3 89.25 89.05 89.1 88.9 89.05 88.75 89.05 88.65 89.0 88.35 Q88.95 88.0 89.2 87.75 L89.7 87.2 90.3 85.9 90.5 84.6 90.55 83.9 90.5 83.95 90.35 84.05 89.55 84.55 89.0 84.75 88.1 85.15 Q87.5 85.35 87.05 84.85 L86.95 84.7 86.95 84.15 87.25 83.5 87.95 81.95 Q88.3 80.95 89.1 80.25 L89.95 79.3 90.15 79.2 90.35 79.15 90.6 79.2 90.9 79.25 91.1 79.35 91.15 79.3 91.3 79.15" fill="#000000" fill-rule="evenodd" stroke="none"/>
    <path d="M75.15 54.0 Q71.75 55.2 68.15 55.65 63.75 56.15 59.8 54.5 56.9 53.25 56.3 50.55 58.75 53.75 63.4 54.25 69.35 54.85 74.7 52.5 L77.25 51.4 Q79.8 50.35 81.8 48.5 82.85 47.55 84.0 46.95 84.4 48.5 82.55 49.95 79.25 52.6 75.15 54.0" fill="#626262" fill-rule="evenodd" stroke="none"/>
    <path d="M38.2 67.85 L38.15 67.75 38.1 67.65 38.1 67.55 38.1 67.45 38.15 67.25 38.15 67.1 Q40.35 65.9 42.9 65.55 45.05 65.2 46.9 64.25 L48.0 63.95 48.0 63.85 48.0 63.75 48.05 63.65 48.1 63.6 48.25 63.5 48.3 63.4 48.35 63.3 48.35 63.2 48.35 63.1 48.35 62.9 48.35 62.75 48.4 62.55 48.4 62.45 48.5 62.35 48.6 62.3 48.75 62.2 48.95 62.1 49.15 62.05 49.15 61.95 49.25 61.85 49.3 61.8 49.75 61.55 49.8 61.5 49.8 61.4 49.8 61.3 49.8 61.2 49.8 61.1 49.8 61.05 49.85 60.95 49.95 60.85 50.15 60.75 50.35 60.7 50.45 60.7 50.7 60.75 50.85 60.85 51.1 61.4 51.35 62.15 51.7 62.9 52.1 63.55 52.25 63.85 Q50.0 65.5 46.9 66.1 L41.0 67.4 38.2 67.85" fill="#515151" fill-rule="evenodd" stroke="none"/>
    <path d="M87.95 52.45 L89.75 55.55 91.6 58.6 Q92.65 60.1 92.9 61.95 L93.2 62.4 93.3 62.7 93.2 63.25 93.0 63.9 92.85 64.4 92.1 64.1 Q91.3 64.4 91.05 64.8 L91.0 64.6 91.0 64.4 91.0 64.25 91.0 63.95 91.1 63.55 91.25 63.3 91.4 63.1 Q90.25 62.9 90.3 61.65 90.3 60.35 89.6 59.25 L88.2 56.65 86.8 54.25 86.1 53.35 82.95 53.35 Q82.35 53.35 82.35 52.75 82.35 51.5 83.55 51.0 L85.1 50.65 Q87.0 50.9 87.95 52.45" fill="#2c2a2a" fill-rule="evenodd" stroke="none"/>
    <path d="M62.35 29.9 L62.55 29.95 62.7 30.1 62.95 30.45 63.05 30.9 62.85 31.45 62.6 31.95 62.55 32.1 62.5 32.2 62.4 32.3 62.0 32.4 61.4 32.3 61.3 32.2 61.2 32.1 61.1 31.85 60.75 31.5 60.4 31.0 60.4 30.55 60.5 30.45 60.75 30.35 61.6 30.0 61.9 29.9 62.35 29.9" fill="#482604" fill-rule="evenodd" stroke="none"/>
    <path d="M68.25 30.25 L68.35 30.3 68.45 30.6 68.3 31.15 67.8 31.65 67.65 31.9 67.35 32.35 66.9 32.55 Q66.25 32.5 65.95 31.9 L65.8 31.35 65.75 31.0 65.8 30.9 65.9 30.8 66.0 30.7 66.1 30.65 66.15 30.65 66.35 30.55 66.4 30.45 66.4 30.4 66.5 30.3 66.65 30.2 66.75 30.15 66.95 30.1 67.2 30.15 67.35 30.15 67.7 30.1 67.7 30.05 67.85 30.1 68.1 30.15 68.25 30.25" fill="#482604" fill-rule="evenodd" stroke="none"/>
    <path d="M59.35 26.85 Q60.3 25.6 61.9 26.3 64.9 27.65 67.7 26.25 L68.05 26.05 69.8 25.9 70.2 25.85 70.35 25.9 70.4 25.9 70.6 25.95 70.75 26.0 71.5 27.6 71.75 29.55 71.9 31.5 71.95 33.45 71.75 33.6 Q71.3 33.3 71.25 32.65 L71.1 31.5 71.0 30.15 71.0 28.85 70.9 28.45 70.75 28.3 70.65 28.2 70.55 28.1 70.4 27.9 70.25 27.65 70.2 27.55 Q66.75 28.05 63.2 27.5 61.8 27.25 60.5 26.65 L60.35 26.75 60.25 26.85 60.15 26.95 60.0 27.05 59.45 27.0 59.4 26.95 59.35 26.85" fill="#4d4d4d" fill-rule="evenodd" stroke="none"/>
    <path d="M77.5 51.45 Q79.25 50.15 81.3 49.25 79.85 51.45 77.1 52.5 74.55 53.45 71.9 53.9 L68.1 54.3 62.35 54.35 60.35 54.1 Q60.05 53.7 59.5 53.65 L58.7 53.35 57.95 52.95 Q57.6 52.75 57.55 52.35 L57.25 51.95 Q62.4 54.35 68.8 53.65 L73.05 52.75 75.5 52.25 Q76.6 52.15 77.5 51.45" fill="#4d4d4d" fill-rule="evenodd" stroke="none"/>
    <path d="M107.1 25.75 L113.7 25.75 113.7 39.65 127.75 39.65 127.75 46.2 113.7 46.2 113.7 60.4 107.1 60.4 107.1 46.2 93.05 46.2 93.05 39.65 107.1 39.65 107.1 25.75" fill="#6d3000" fill-rule="evenodd" stroke="none"/>
  </g>
</svg>
