<?xml version="1.0" encoding="UTF-8" standalone="no"?>
<svg xmlns:ffdec="https://www.free-decompiler.com/flash" xmlns:xlink="http://www.w3.org/1999/xlink" ffdec:objectType="shape" height="430.35px" width="537.4px" xmlns="http://www.w3.org/2000/svg">
  <g transform="matrix(1.0, 0.0, 0.0, 1.0, -46.65, -28.35)">
    <path d="M571.65 67.9 L571.2 79.15 567.95 79.15 568.3 68.0 569.3 50.9 569.3 50.85 572.6 50.85 Q572.05 59.3 571.65 67.9 M574.85 233.95 L576.4 233.85 578.05 233.7 578.5 241.15 578.65 243.9 578.75 245.85 579.6 259.8 576.3 259.8 575.55 245.8 575.55 245.75 575.45 243.85 575.3 241.1 574.85 233.95 M570.9 104.5 Q570.85 118.15 571.3 132.1 L568.1 132.1 Q567.6 118.15 567.6 104.45 L570.9 104.45 570.9 104.5 M572.65 160.25 L574.5 184.2 574.9 188.5 571.55 188.5 571.55 188.45 571.35 185.7 571.4 185.75 571.25 184.3 Q570.2 172.15 569.45 160.2 L572.65 160.2 572.65 160.25 M580.95 289.0 L582.15 323.45 578.95 323.45 577.7 288.95 580.95 288.95 580.95 289.0 M582.75 348.9 L583.05 378.35 579.9 378.35 579.55 348.9 582.75 348.9 M583.0 399.25 L582.7 427.3 579.55 427.3 579.9 399.25 583.0 399.25 M98.4 42.3 L67.2 40.35 67.15 40.35 67.15 36.7 98.4 38.65 98.4 42.3 M56.55 58.8 L56.5 81.15 54.1 81.15 54.15 58.8 56.55 58.8 M56.45 115.75 L56.4 139.65 54.0 139.65 54.05 115.55 54.75 115.6 56.45 115.75 M56.35 174.35 L56.3 215.05 53.9 215.05 53.95 174.35 56.35 174.35 M55.3 249.65 L54.3 286.4 52.0 286.4 53.0 249.65 55.3 249.65 M53.25 325.55 L52.15 365.7 49.8 365.7 50.9 325.55 53.25 325.55 M313.65 451.35 L313.65 447.95 347.65 445.0 347.65 448.4 313.65 451.35 M281.15 454.1 L239.4 456.65 239.4 453.3 239.45 453.3 281.2 450.7 281.2 454.1 281.15 454.1 M198.35 457.65 Q177.8 457.75 158.3 457.0 L158.25 457.0 158.25 453.75 Q177.8 454.5 198.35 454.35 L198.35 457.65 M115.3 451.05 L115.3 454.2 Q94.15 452.2 74.4 449.1 L74.3 449.1 74.3 445.95 Q94.1 449.1 115.25 451.05 L115.3 451.05 M51.05 405.9 L50.25 434.65 47.9 434.65 48.7 405.9 51.05 405.9 M512.2 442.7 L546.4 444.6 546.4 448.1 512.25 446.1 512.2 446.1 512.2 442.7 M480.35 445.0 Q463.0 444.55 445.1 444.4 L445.1 441.05 Q463.0 441.15 480.35 441.6 L480.35 445.0 M416.65 444.35 L391.9 444.6 391.85 444.6 381.35 445.5 381.35 442.1 391.65 441.25 391.7 441.25 416.65 440.95 416.65 444.35" fill="#e5e5e5" fill-opacity="0.96862745" fill-rule="evenodd" stroke="none"/>
    <path d="M530.25 30.8 L553.3 32.8 553.3 36.15 530.1 34.2 530.25 30.8 M525.6 30.55 L525.8 31.75 526.0 33.95 519.7 33.65 519.65 33.65 519.65 30.25 525.6 30.55 M488.2 29.45 L488.2 32.85 476.05 32.85 455.5 33.2 455.5 29.75 476.05 29.45 488.2 29.45 M426.75 34.25 L392.35 36.3 392.35 32.85 392.4 32.85 426.75 30.8 426.75 34.25 M363.5 34.75 L371.05 34.3 371.05 37.7 363.45 38.15 361.05 38.3 351.8 38.95 348.25 39.25 345.1 39.55 340.15 40.0 340.15 36.55 340.2 36.55 345.2 36.1 348.1 35.85 351.9 35.55 361.15 34.9 363.5 34.75 M317.3 41.7 L311.9 42.05 301.1 42.75 300.75 42.8 292.8 43.2 289.4 43.45 289.4 40.0 292.85 39.8 300.8 39.35 300.9 39.35 301.1 39.3 301.15 39.3 311.95 38.65 317.3 38.3 317.3 41.7 M254.45 41.25 L263.65 41.0 263.65 44.45 254.45 44.7 242.1 45.05 233.2 45.2 233.2 41.65 233.25 41.65 242.1 41.55 254.45 41.25 M210.3 41.8 L210.3 45.4 185.1 45.25 185.1 41.65 210.3 41.8 M127.3 40.1 L157.7 41.15 157.7 44.7 127.35 43.7 127.3 43.7 127.3 40.1" fill="#e7e7e7" fill-opacity="0.96862745" fill-rule="evenodd" stroke="none"/>
    <path d="M530.1 34.2 L553.3 36.15 553.3 32.8 530.25 30.8 530.3 29.8 553.35 31.75 571.8 34.2 574.85 34.6 574.6 37.95 573.6 50.9 572.6 68.0 572.2 79.2 572.1 82.5 Q571.9 90.65 571.85 99.05 L571.85 99.1 571.85 101.0 571.85 101.05 571.85 104.45 Q571.8 118.15 572.3 132.1 572.7 146.05 573.65 160.2 574.4 172.0 575.5 184.1 L575.85 188.45 575.85 188.5 576.25 194.1 576.25 194.15 576.55 198.35 577.0 203.85 578.0 218.6 578.2 221.4 578.55 226.65 573.45 227.25 573.05 221.45 572.85 218.65 571.8 203.95 571.35 198.4 571.1 194.2 570.6 188.55 570.25 184.35 570.15 182.9 570.2 182.95 568.45 160.25 Q567.55 146.1 567.1 132.15 566.65 118.2 566.65 104.5 L566.65 104.45 566.65 101.0 566.65 99.05 566.85 82.45 566.95 79.15 567.35 67.9 Q567.75 59.3 568.3 50.85 L569.15 39.15 553.3 37.2 530.05 35.25 530.1 34.2 M571.65 67.9 Q572.05 59.3 572.6 50.85 L569.3 50.85 569.3 50.9 568.3 68.0 567.95 79.15 571.2 79.15 571.65 67.9 M526.0 33.95 L526.0 35.05 519.65 34.7 518.3 34.65 518.25 34.65 515.8 34.5 507.7 34.2 488.2 33.9 476.05 33.9 455.5 34.2 449.65 34.35 445.9 34.5 445.85 34.5 440.95 34.7 433.2 35.0 426.8 35.3 392.4 37.35 376.4 38.5 376.2 38.5 375.35 38.55 375.3 38.55 371.1 38.7 363.5 39.15 361.15 39.3 351.9 40.0 348.35 40.3 345.2 40.6 340.2 41.0 317.35 42.75 311.95 43.1 301.15 43.8 301.1 43.8 300.9 43.85 300.8 43.85 292.85 44.25 289.4 44.45 272.2 45.2 272.15 45.2 268.05 45.35 268.0 45.35 263.7 45.5 254.45 45.75 242.1 46.05 233.2 46.2 230.1 46.25 224.15 46.3 219.15 46.35 210.3 46.4 185.1 46.25 178.1 46.15 166.35 45.95 157.7 45.75 127.3 44.7 98.4 43.35 67.15 41.35 57.5 40.7 57.5 115.1 Q57.35 115.6 56.45 115.75 L57.4 115.85 57.25 215.05 51.05 440.85 69.7 444.25 74.4 444.95 Q94.15 448.05 115.35 450.05 L118.15 450.3 158.3 452.75 Q177.8 453.45 198.35 453.3 218.4 453.2 239.4 452.3 L281.2 449.7 281.3 449.7 391.55 440.2 391.7 440.2 416.65 439.95 Q431.1 439.9 445.1 440.0 463.0 440.1 480.4 440.55 L512.25 441.7 546.45 443.6 578.2 446.0 578.55 427.3 578.9 399.25 578.9 378.35 578.55 348.9 578.0 323.5 576.75 289.0 575.4 259.85 574.6 245.85 574.45 243.9 574.3 241.15 573.9 234.0 574.85 233.95 575.3 241.1 575.45 243.85 575.55 245.75 575.55 245.8 576.3 259.8 579.6 259.8 578.75 245.85 578.65 243.9 578.5 241.15 578.05 233.7 578.7 233.55 579.0 233.55 579.5 241.1 579.65 243.85 579.75 245.8 580.55 259.8 581.9 288.95 583.1 323.45 583.7 348.9 584.05 378.35 584.0 399.25 583.65 427.3 583.15 448.4 583.15 452.05 579.65 451.75 546.4 449.15 512.2 447.15 480.35 446.0 Q463.0 445.55 445.1 445.4 431.1 445.3 416.65 445.35 L391.95 445.6 282.5 455.0 281.25 455.1 239.45 457.65 Q218.4 458.55 198.35 458.7 177.8 458.8 158.25 458.05 L118.05 455.45 115.25 455.2 Q94.05 453.2 74.25 450.1 L69.55 449.35 49.35 445.5 46.65 445.05 52.95 215.05 53.1 115.75 52.8 115.7 53.2 34.75 56.7 34.95 67.2 35.7 98.45 37.65 127.35 39.05 157.75 40.15 166.35 40.35 178.1 40.55 185.1 40.65 210.3 40.8 219.15 40.8 224.15 40.75 230.1 40.7 233.2 40.65 242.1 40.55 254.45 40.25 263.65 40.0 268.0 39.85 272.15 39.7 289.4 38.95 292.8 38.75 300.75 38.35 301.1 38.3 311.9 37.65 317.3 37.3 340.1 35.55 345.1 35.1 345.15 35.1 348.0 34.85 348.05 34.85 351.85 34.5 361.1 33.85 363.45 33.7 371.05 33.3 375.25 33.15 375.95 33.05 392.35 31.8 426.75 29.8 433.15 29.55 440.9 29.15 445.85 29.0 449.6 28.85 455.5 28.7 476.05 28.4 488.2 28.4 Q498.3 28.45 507.75 28.75 L515.85 29.0 518.35 29.1 519.7 29.2 525.45 29.55 525.6 30.55 519.65 30.25 519.65 33.65 519.7 33.65 526.0 33.95 M488.2 29.45 L476.05 29.45 455.5 29.75 455.5 33.2 476.05 32.85 488.2 32.85 488.2 29.45 M572.65 160.25 L572.65 160.2 569.45 160.2 Q570.2 172.15 571.25 184.3 L571.4 185.75 571.35 185.7 571.55 188.45 571.55 188.5 574.9 188.5 574.5 184.2 572.65 160.25 M570.9 104.5 L570.9 104.45 567.6 104.45 Q567.6 118.15 568.1 132.1 L571.3 132.1 Q570.85 118.15 570.9 104.5 M317.3 41.7 L317.3 38.3 311.95 38.65 301.15 39.3 301.1 39.3 300.9 39.35 300.8 39.35 292.85 39.8 289.4 40.0 289.4 43.45 292.8 43.2 300.75 42.8 301.1 42.75 311.9 42.05 317.3 41.7 M363.5 34.75 L361.15 34.9 351.9 35.55 348.1 35.85 345.2 36.1 340.2 36.55 340.15 36.55 340.15 40.0 345.1 39.55 348.25 39.25 351.8 38.95 361.05 38.3 363.45 38.15 371.05 37.7 371.05 34.3 363.5 34.75 M426.75 34.25 L426.75 30.8 392.4 32.85 392.35 32.85 392.35 36.3 426.75 34.25 M583.0 399.25 L579.9 399.25 579.55 427.3 582.7 427.3 583.0 399.25 M582.75 348.9 L579.55 348.9 579.9 378.35 583.05 378.35 582.75 348.9 M580.95 289.0 L580.95 288.95 577.7 288.95 578.95 323.45 582.15 323.45 580.95 289.0 M254.45 41.25 L242.1 41.55 233.25 41.65 233.2 41.65 233.2 45.2 242.1 45.05 254.45 44.7 263.65 44.45 263.65 41.0 254.45 41.25 M210.3 41.8 L185.1 41.65 185.1 45.25 210.3 45.4 210.3 41.8 M127.3 40.1 L127.3 43.7 127.35 43.7 157.7 44.7 157.7 41.15 127.3 40.1 M53.25 325.55 L50.9 325.55 49.8 365.7 52.15 365.7 53.25 325.55 M55.3 249.65 L53.0 249.65 52.0 286.4 54.3 286.4 55.3 249.65 M56.35 174.35 L53.95 174.35 53.9 215.05 56.3 215.05 56.35 174.35 M56.45 115.75 L54.75 115.6 54.05 115.55 54.0 139.65 56.4 139.65 56.45 115.75 M56.55 58.8 L54.15 58.8 54.1 81.15 56.5 81.15 56.55 58.8 M98.4 42.3 L98.4 38.65 67.15 36.7 67.15 40.35 67.2 40.35 98.4 42.3 M313.65 451.35 L347.65 448.4 347.65 445.0 313.65 447.95 313.65 451.35 M416.65 444.35 L416.65 440.95 391.7 441.25 391.65 441.25 381.35 442.1 381.35 445.5 391.85 444.6 391.9 444.6 416.65 444.35 M480.35 445.0 L480.35 441.6 Q463.0 441.15 445.1 441.05 L445.1 444.4 Q463.0 444.55 480.35 445.0 M512.2 442.7 L512.2 446.1 512.25 446.1 546.4 448.1 546.4 444.6 512.2 442.7 M51.05 405.9 L48.7 405.9 47.9 434.65 50.25 434.65 51.05 405.9 M115.3 451.05 L115.25 451.05 Q94.1 449.1 74.3 445.95 L74.3 449.1 74.4 449.1 Q94.15 452.2 115.3 454.2 L115.3 451.05 M198.35 457.65 L198.35 454.35 Q177.8 454.5 158.25 453.75 L158.25 457.0 158.3 457.0 Q177.8 457.75 198.35 457.65 M281.15 454.1 L281.2 454.1 281.2 450.7 239.45 453.3 239.4 453.3 239.4 456.65 281.15 454.1" fill="#462f2d" fill-rule="evenodd" stroke="none"/>
  </g>
</svg>
