<?xml version="1.0" encoding="UTF-8" standalone="no"?>
<svg xmlns:ffdec="https://www.free-decompiler.com/flash" xmlns:xlink="http://www.w3.org/1999/xlink" ffdec:objectType="shape" height="62.35px" width="70.7px" xmlns="http://www.w3.org/2000/svg">
  <g transform="matrix(1.0, 0.0, 0.0, 1.0, -3.3, -6.85)">
    <path d="M74.0 15.65 L74.0 32.7 Q74.0 40.15 67.1 40.15 L49.6 40.15 Q42.7 40.15 42.7 32.7 L42.7 15.65 Q42.7 8.2 49.6 8.2 L67.1 8.2 Q74.0 8.2 74.0 15.65 M72.1 32.7 L72.1 15.65 Q72.1 10.25 67.1 10.25 L49.6 10.25 Q44.6 10.25 44.6 15.65 L44.6 32.7 Q44.6 38.1 49.6 38.1 L67.1 38.1 Q72.1 38.1 72.1 32.7" fill="#ffbd64" fill-rule="evenodd" stroke="none"/>
    <path d="M71.65 31.35 L71.65 14.3 Q71.65 8.9 66.65 8.9 L49.15 8.9 Q44.15 8.9 44.15 14.3 L44.15 31.35 Q44.15 36.75 49.15 36.75 L66.65 36.75 Q71.65 36.75 71.65 31.35 M73.55 14.3 L73.55 31.35 Q73.55 38.8 66.65 38.8 L49.15 38.8 Q42.25 38.8 42.25 31.35 L42.25 14.3 Q42.25 6.85 49.15 6.85 L66.65 6.85 Q73.55 6.85 73.55 14.3" fill="#6d3000" fill-rule="evenodd" stroke="none"/>
    <path d="M56.95 14.55 L60.05 13.5 60.4 21.85 67.8 21.85 67.8 25.3 60.4 25.3 60.4 32.75 56.95 32.75 56.15 31.5 56.95 25.3 49.6 25.3 48.7 23.5 49.6 21.85 56.95 21.85 56.95 14.55" fill="#ffbd64" fill-rule="evenodd" stroke="none"/>
    <path d="M50.75 25.9 L50.75 26.0 50.75 26.05 51.7 26.85 53.15 29.0 54.45 31.05 Q55.6 32.6 55.75 35.4 55.85 38.6 56.15 39.65 L56.4 40.95 56.5 42.2 Q56.5 43.05 55.95 43.65 L55.05 44.25 54.75 44.65 Q54.45 45.0 53.75 44.95 L53.35 44.85 53.3 44.75 52.7 44.95 52.0 44.85 51.9 44.8 51.95 44.75 51.5 44.6 51.3 44.2 51.25 43.85 51.25 43.65 51.45 43.05 51.35 43.05 Q50.65 43.05 50.55 42.75 L50.35 42.35 50.9 48.7 50.8 48.5 50.85 49.6 Q52.35 53.6 52.1 56.6 L52.35 57.35 52.35 58.0 53.8 60.6 53.8 60.65 53.9 61.7 Q53.7 62.95 52.3 63.4 L52.35 63.4 Q49.95 64.15 49.15 62.15 L49.0 61.8 48.95 61.65 48.5 59.65 48.4 59.6 48.2 59.2 48.2 58.9 Q47.4 57.9 47.65 56.7 L47.7 56.5 46.35 52.9 46.35 52.95 46.1 52.4 45.8 52.4 41.25 52.35 41.1 52.35 40.6 52.15 39.65 51.75 39.6 52.15 39.7 52.25 39.85 52.6 39.85 52.65 39.85 52.8 39.4 55.0 39.25 55.25 39.0 55.45 38.9 55.5 38.55 56.5 38.35 56.8 38.1 57.0 37.9 57.5 38.05 57.75 38.0 58.2 37.5 59.05 Q37.75 59.75 37.4 61.6 L37.15 62.05 Q35.2 63.4 33.5 63.9 L33.1 64.0 31.45 64.15 Q30.45 63.95 30.4 63.2 L30.4 63.15 Q30.15 62.25 31.25 61.2 L32.8 59.6 32.8 59.55 32.9 59.5 33.45 58.35 33.8 55.25 33.7 55.15 Q33.2 53.85 33.7 52.45 L33.7 52.4 Q33.8 52.15 34.05 52.05 L34.1 52.0 34.2 51.4 34.0 51.15 33.85 50.7 34.05 50.25 34.3 50.1 34.6 47.4 34.6 47.35 Q34.5 45.95 34.7 45.1 L34.7 45.15 34.8 44.7 35.8 39.0 35.95 38.05 36.1 37.75 36.1 37.8 36.1 34.8 35.9 34.7 35.7 34.25 35.65 34.15 35.55 34.2 34.9 34.35 34.65 34.7 34.75 34.4 Q35.2 32.75 34.9 31.05 L34.5 28.0 34.15 26.75 34.9 25.6 Q34.7 25.15 34.95 24.6 35.15 24.05 36.0 23.45 L37.0 22.7 Q36.6 20.3 36.75 18.5 36.9 15.95 37.55 14.0 38.1 11.9 41.5 9.7 L41.8 9.55 42.05 9.6 Q43.75 10.2 45.15 12.1 46.55 13.95 46.8 15.1 47.1 16.25 47.2 20.3 L47.1 22.25 48.8 23.55 50.7 25.55 50.75 25.9 M48.9 31.9 L49.0 32.8 49.05 33.35 49.85 37.55 49.65 37.65 49.8 37.75 49.9 38.05 50.35 41.5 50.35 41.55 50.35 41.95 50.85 40.8 51.55 39.65 50.05 34.65 50.0 34.45 50.0 34.15 49.85 33.8 49.85 33.15 48.95 31.95 48.9 31.9 M27.55 36.8 L27.8 36.3 28.25 36.55 27.55 36.8" fill="#ffbd64" fill-rule="evenodd" stroke="none"/>
    <path d="M50.7 25.2 L50.7 25.3 50.7 25.35 51.65 26.15 53.1 28.3 54.4 30.35 Q55.55 31.9 55.7 34.7 55.8 37.9 56.1 38.95 L56.35 40.25 56.45 41.5 Q56.45 42.35 55.9 42.95 L55.0 43.55 54.7 43.95 Q54.4 44.3 53.7 44.25 L53.3 44.15 53.25 44.05 52.65 44.25 51.95 44.15 51.85 44.1 51.9 44.05 51.45 43.9 51.25 43.5 51.2 43.15 51.2 42.95 51.4 42.35 51.3 42.35 Q50.6 42.35 50.5 42.05 L50.3 41.65 50.85 48.0 50.75 47.8 50.8 48.9 Q52.3 52.9 52.05 55.9 L52.3 56.65 52.3 57.3 53.75 59.9 53.75 59.95 53.85 61.0 Q53.65 62.25 52.25 62.7 L52.3 62.7 Q49.9 63.45 49.1 61.45 L48.95 61.1 48.9 60.95 48.45 58.95 48.35 58.9 48.15 58.5 48.15 58.2 Q47.35 57.2 47.6 56.0 L47.65 55.8 46.3 52.2 46.3 52.25 46.05 51.7 45.75 51.7 41.2 51.65 41.05 51.65 40.55 51.45 39.6 51.05 39.55 51.45 39.65 51.55 39.8 51.9 39.8 51.95 39.8 52.1 39.35 54.3 39.2 54.55 38.95 54.75 38.85 54.8 38.5 55.8 38.3 56.1 38.05 56.3 37.85 56.8 38.0 57.05 37.95 57.5 37.45 58.35 Q37.7 59.05 37.35 60.9 L37.1 61.35 Q35.15 62.7 33.45 63.2 L33.05 63.3 31.4 63.45 Q30.4 63.25 30.35 62.5 L30.35 62.45 Q30.1 61.55 31.2 60.5 L32.75 58.9 32.75 58.85 32.85 58.8 33.4 57.65 33.75 54.55 33.65 54.45 Q33.15 53.15 33.65 51.75 L33.65 51.7 Q33.75 51.45 34.0 51.35 L34.05 51.3 34.15 50.7 33.95 50.45 33.8 50.0 34.0 49.55 34.25 49.4 34.55 46.7 34.55 46.65 Q34.45 45.25 34.65 44.4 L34.65 44.45 34.75 44.0 35.75 38.3 35.9 37.35 36.05 37.05 36.05 37.1 36.05 34.1 35.85 34.0 35.65 33.55 35.6 33.45 35.5 33.5 34.9 33.65 Q35.1 32.35 34.85 31.0 L34.45 27.95 Q34.35 26.9 30.15 30.55 L34.85 24.9 Q34.65 24.45 34.9 23.9 35.1 23.35 35.95 22.75 L36.95 22.0 Q36.55 19.6 36.7 17.8 36.85 15.25 37.5 13.3 38.05 11.2 41.45 9.0 L41.75 8.85 42.0 8.9 Q43.7 9.5 45.1 11.4 46.5 13.25 46.75 14.4 47.05 15.55 47.15 19.6 L47.05 21.55 48.75 22.85 50.65 24.85 50.7 25.2 M48.85 31.2 L48.95 32.1 49.0 32.65 49.8 36.85 49.6 36.95 49.75 37.05 49.85 37.35 50.3 40.8 50.3 40.85 50.3 41.25 Q50.4 40.8 50.8 40.1 L51.5 38.95 50.0 33.95 49.95 33.75 49.95 33.45 49.8 33.1 49.8 32.45 48.9 31.25 48.85 31.2" fill="#6d3000" fill-rule="evenodd" stroke="none"/>
    <path d="M35.3 46.65 L39.05 47.45 Q39.25 52.2 37.95 55.6 37.3 56.1 37.0 56.55 L37.35 57.2 36.55 58.6 34.1 58.15 35.3 46.65" fill="#000000" fill-rule="evenodd" stroke="none"/>
    <path d="M44.7 47.95 L45.25 47.35 49.0 46.55 Q52.0 52.7 51.25 56.8 L48.8 58.3 48.6 56.65 Q46.9 51.2 44.7 47.95" fill="#000000" fill-rule="evenodd" stroke="none"/>
    <path d="M39.55 25.7 L35.75 32.1 35.05 32.45 34.9 31.0 Q34.65 29.4 30.5 29.65 34.45 27.4 34.3 27.0 L36.35 23.8 39.55 25.7" fill="#000000" fill-opacity="0.92941177" fill-rule="evenodd" stroke="none"/>
    <path d="M54.85 36.9 L52.05 37.05 51.8 37.35 50.0 30.55 53.65 30.6 54.85 36.9" fill="#000000" fill-rule="evenodd" stroke="none"/>
    <path d="M53.1 30.25 Q54.35 30.65 54.4 32.2 L54.4 33.0 Q54.35 33.5 53.75 33.35 52.95 33.15 53.25 32.15 L53.1 31.75 Q53.05 31.6 52.9 31.75 52.65 31.95 52.35 31.75 L51.3 31.9 51.1 31.85 51.2 31.9 51.45 32.0 51.5 32.1 Q50.95 33.2 50.45 31.95 L50.45 31.65 Q50.7 30.4 51.4 31.15 L52.25 31.05 52.65 30.95 52.6 30.75 Q52.6 30.3 53.1 30.25" fill="#000000" fill-rule="evenodd" stroke="none"/>
    <path d="M53.65 30.5 L50.65 31.95 50.55 32.35 46.25 26.8 48.0 24.0 49.1 24.8 Q52.1 26.8 53.65 30.5" fill="#000000" fill-rule="evenodd" stroke="none"/>
    <path d="M41.55 22.7 Q41.25 26.2 42.05 27.15 40.25 35.55 43.15 37.5 42.65 37.5 42.35 37.8 41.4 38.75 38.75 39.15 36.85 36.9 36.4 34.05 35.95 31.15 36.65 27.85 36.55 27.3 37.15 25.75 36.4 24.0 38.25 22.7 L41.55 22.7" fill="#a61313" fill-rule="evenodd" stroke="none"/>
    <path d="M41.55 22.7 L47.25 22.7 Q49.0 24.15 48.9 26.2 48.85 27.5 48.05 30.15 L48.4 33.2 48.6 36.1 Q47.8 34.55 48.3 36.95 47.6 42.2 45.95 38.95 44.7 37.9 43.8 37.6 L43.15 37.5 Q40.25 35.55 42.05 27.15 41.25 26.2 41.55 22.7" fill="#000000" fill-rule="evenodd" stroke="none"/>
    <path d="M46.45 19.6 Q46.5 23.55 44.65 24.75 L41.25 24.85 Q39.7 23.75 38.4 22.0 38.25 21.75 37.75 22.7 37.15 19.9 37.3 17.8 37.45 15.35 38.05 13.4 38.65 11.55 41.75 9.5 43.25 10.05 44.55 11.75 45.8 13.5 46.05 14.55 L46.45 19.6" fill="#727272" fill-rule="evenodd" stroke="none"/>
    <path d="M46.05 21.7 Q48.75 23.3 50.0 25.2 39.75 31.9 35.6 24.9 35.0 24.25 36.35 23.25 L38.05 21.9 45.35 19.3 46.05 21.7" fill="#727272" fill-rule="evenodd" stroke="none"/>
    <path d="M42.85 15.6 Q43.45 15.35 43.6 15.6 L43.8 16.35 43.8 19.5 Q43.65 21.25 43.0 22.1 42.4 22.95 41.65 22.8 L40.45 22.65 Q40.05 22.65 39.3 21.9 38.55 21.15 38.55 19.15 L38.45 16.85 Q38.4 16.05 38.6 15.8 38.8 15.5 39.25 15.8 L42.85 15.6" fill="#ffaf7e" fill-rule="evenodd" stroke="none"/>
    <path d="M40.4 19.5 L42.15 19.55 Q42.65 19.7 42.7 20.2 L42.7 21.05 42.75 21.85 Q42.85 22.4 42.45 22.55 L42.4 22.6 42.4 22.65 42.35 22.7 42.3 22.75 40.2 22.85 Q39.8 22.7 39.6 22.35 39.2 21.9 39.3 21.15 L39.4 20.55 39.35 20.5 39.35 20.45 39.3 20.4 39.3 20.35 39.3 20.3 39.3 20.25 Q39.4 19.85 39.65 19.65 L40.4 19.5" fill="#a35518" fill-rule="evenodd" stroke="none"/>
    <path d="M39.2 16.8 L39.3 16.75 Q40.2 16.6 40.55 17.25 L40.6 17.9 Q40.4 18.75 39.45 18.6 L39.0 18.2 Q38.8 17.7 38.9 16.65 39.05 17.0 39.2 16.8" fill="#e5865a" fill-rule="evenodd" stroke="none"/>
    <path d="M37.25 35.45 L37.25 35.4 Q37.15 36.2 37.25 35.45 M42.65 36.85 Q42.35 38.35 41.85 37.55 40.95 47.0 41.3 50.95 39.1 50.25 35.4 48.1 35.1 45.7 35.35 44.5 L36.95 35.5 37.1 35.25 Q40.05 37.15 42.65 36.85" fill="#000000" fill-rule="evenodd" stroke="none"/>
    <path d="M41.3 50.95 Q40.95 47.0 41.85 37.55 42.35 38.35 42.65 36.85 45.5 37.2 48.4 35.1 49.7 35.65 50.2 49.9 49.85 49.9 49.5 50.2 L48.95 48.7 Q49.0 50.85 46.95 50.95 L41.3 50.95" fill="#a61313" fill-rule="evenodd" stroke="none"/>
    <path d="M48.25 45.2 L48.45 47.9 Q49.25 48.2 49.4 49.15 L49.25 49.7 Q48.8 49.9 48.55 49.4 L48.05 49.35 48.05 49.45 47.8 49.8 47.55 49.8 Q46.95 46.5 47.45 43.0 47.75 41.2 48.25 39.7 48.0 42.5 48.25 45.2" fill="#d41919" fill-rule="evenodd" stroke="none"/>
    <path d="M35.0 32.9 L34.9 31.0 34.85 30.5 Q35.65 31.8 35.35 32.8 L35.0 32.9" fill="#727272" fill-rule="evenodd" stroke="none"/>
    <path d="M45.1 35.6 L45.1 44.85 Q44.55 45.7 43.65 44.85 L44.7 35.6 45.1 35.6" fill="#000000" fill-rule="evenodd" stroke="none"/>
    <path d="M45.9 35.65 Q46.55 40.85 48.15 43.75 L47.9 44.9 46.65 44.7 44.65 35.1 46.05 34.75 45.9 35.65" fill="#000000" fill-rule="evenodd" stroke="none"/>
    <path d="M34.3 51.85 Q36.6 52.45 39.1 51.85 L38.65 54.1 38.1 54.25 34.3 54.15 Q33.9 53.05 34.3 51.85" fill="#000000" fill-rule="evenodd" stroke="none"/>
    <path d="M35.65 51.5 L34.45 50.0 36.6 50.0 36.6 51.4 35.65 51.5" fill="#000000" fill-rule="evenodd" stroke="none"/>
    <path d="M32.95 62.65 Q31.15 63.05 31.05 62.4 30.9 61.75 31.7 61.0 L33.4 59.2 Q34.0 58.5 34.85 55.65 34.8 57.85 35.05 57.7 35.85 57.2 36.1 57.55 L37.9 54.95 Q36.6 58.25 36.8 58.45 37.1 58.85 36.7 60.8 34.7 62.25 32.95 62.65" fill="#000000" fill-rule="evenodd" stroke="none"/>
    <path d="M55.4 39.0 L52.25 39.15 50.45 33.25 54.65 32.0 55.4 39.0" fill="#727272" fill-rule="evenodd" stroke="none"/>
    <path d="M48.3 55.55 L50.75 55.0 51.9 60.2 49.45 60.75 48.3 55.55" fill="#000000" fill-rule="evenodd" stroke="none"/>
    <path d="M48.95 55.45 L48.75 56.05 Q50.1 56.4 50.15 58.05 L50.15 60.0 Q50.1 60.3 49.9 60.1 49.15 59.4 49.0 58.3 L48.9 58.05 Q47.95 57.2 48.2 56.1 L48.65 54.3 Q49.15 54.75 48.95 55.45" fill="#000000" fill-rule="evenodd" stroke="none"/>
    <path d="M51.0 55.25 L51.6 56.75 Q51.7 57.15 51.4 57.55 52.35 57.95 51.4 58.6 L51.15 58.95 Q52.0 59.0 51.95 60.0 L51.8 60.55 51.45 60.6 51.4 60.55 51.35 59.95 51.35 59.5 50.6 59.7 Q50.4 59.2 50.6 58.7 L50.95 58.15 Q50.6 57.75 50.9 57.25 L51.2 56.7 50.75 55.75 Q50.7 55.4 51.0 55.25" fill="#000000" fill-rule="evenodd" stroke="none"/>
    <path d="M49.15 58.6 L51.2 59.7 51.9 59.65 51.35 58.15 Q51.0 57.5 51.5 57.25 52.5 58.55 53.2 60.2 L53.25 60.85 Q53.1 61.75 52.15 62.05 50.4 62.65 49.75 61.2 L49.15 58.6" fill="#000000" fill-rule="evenodd" stroke="none"/>
    <path d="M52.5 37.1 L52.9 38.45 53.75 38.6 Q52.8 39.55 52.45 38.2 L51.55 34.7 51.65 34.45 52.5 37.1" fill="#cccccc" fill-rule="evenodd" stroke="none"/>
    <path d="M38.25 23.45 L38.2 23.6 38.15 23.65 Q38.65 23.95 38.8 24.45 38.9 24.9 38.6 25.25 L38.7 25.4 38.8 25.45 38.85 25.55 38.85 25.6 Q37.9 26.9 36.85 25.7 L36.3 25.3 36.55 24.1 Q36.8 23.35 37.45 23.1 L37.9 23.1 38.2 23.2 38.25 23.35 38.25 23.45 M37.85 25.55 L37.8 25.3 37.6 25.6 37.65 25.75 37.85 25.55" fill="#939393" fill-rule="evenodd" stroke="none"/>
    <path d="M39.5 11.85 Q40.2 10.9 41.35 10.65 41.95 11.3 42.2 12.35 42.25 12.9 42.6 13.3 43.1 13.85 42.3 13.75 L40.6 14.15 Q40.0 14.4 40.1 13.7 L39.8 13.7 39.6 13.75 39.2 14.9 Q39.1 15.35 38.65 15.15 38.45 13.4 39.5 11.85" fill="#939393" fill-rule="evenodd" stroke="none"/>
    <path d="M41.4 11.25 L41.3 11.65 41.25 11.7 41.05 11.8 Q40.5 11.45 40.9 10.9 L41.3 10.65 Q41.65 10.85 41.4 11.25" fill="#939393" fill-rule="evenodd" stroke="none"/>
    <path d="M40.0 28.9 L40.3 31.65 Q40.3 32.7 39.85 33.6 39.65 34.1 39.2 33.7 L39.0 33.5 Q38.6 33.7 38.35 33.3 L38.3 33.2 Q37.85 33.45 37.8 32.95 L37.75 32.6 37.75 32.45 Q37.0 31.45 37.4 29.95 L37.45 29.45 Q37.25 28.15 37.7 27.3 38.55 28.0 39.75 28.5 L40.0 28.9" fill="#d41919" fill-rule="evenodd" stroke="none"/>
    <path d="M38.65 16.45 L38.65 16.4 38.65 16.3 38.7 16.25 38.8 16.2 38.9 16.25 38.95 16.3 39.0 16.35 39.0 16.4 39.1 16.5 39.45 16.55 39.9 16.65 40.1 16.75 40.15 16.75 40.35 16.95 40.3 17.0 40.3 17.05 40.25 17.15 40.2 17.2 40.15 17.25 Q39.85 17.45 39.45 17.25 L39.05 17.05 38.85 16.95 38.7 16.8 38.7 16.75 38.65 16.6 38.65 16.45" fill="#623b1c" fill-rule="evenodd" stroke="none"/>
    <path d="M43.3 17.6 L43.0 18.45 41.95 18.6 Q41.05 18.3 41.3 17.3 41.55 16.25 42.4 16.75 43.05 16.7 43.15 16.45 L43.3 17.6" fill="#e5865a" fill-rule="evenodd" stroke="none"/>
    <path d="M43.0 16.5 L43.0 16.45 43.0 16.35 42.95 16.3 42.85 16.25 42.75 16.3 42.7 16.35 42.65 16.4 42.65 16.45 42.55 16.55 42.2 16.6 41.75 16.7 41.55 16.8 41.5 16.8 41.3 17.0 41.35 17.05 41.35 17.1 41.4 17.2 41.45 17.25 41.5 17.3 Q41.8 17.5 42.2 17.3 L42.6 17.1 42.8 17.0 42.95 16.85 42.95 16.8 43.0 16.65 43.0 16.5" fill="#623b1c" fill-rule="evenodd" stroke="none"/>
    <path d="M41.2 17.5 L41.3 18.0 41.25 18.7 41.15 18.4 41.05 17.95 41.2 17.5 M41.35 19.2 L41.55 19.4 Q41.9 19.7 41.55 19.85 L41.5 19.9 40.45 19.8 40.2 19.65 40.4 19.4 41.35 19.3 41.4 19.25 41.35 19.2" fill="#e5865a" fill-rule="evenodd" stroke="none"/>
    <path d="M40.6 18.55 L41.25 18.55 41.35 19.0 41.5 19.4 40.65 19.45 Q40.35 19.25 40.5 18.9 L40.6 18.55" fill="#fab290" fill-rule="evenodd" stroke="none"/>
    <path d="M44.3 20.1 L44.3 20.8 44.25 21.5 44.2 22.25 Q43.9 23.25 42.85 23.7 41.0 24.55 39.7 23.1 L39.3 22.7 39.3 22.65 39.3 22.6 39.3 22.55 39.3 22.5 39.35 22.45 40.9 22.8 Q42.05 23.25 42.9 22.35 L43.75 20.7 44.0 19.65 44.1 19.45 44.3 20.1" fill="#4d4d4d" fill-rule="evenodd" stroke="none"/>
    <path d="M41.9 20.85 L41.95 20.85 42.0 20.85 42.05 20.9 42.1 20.95 41.55 21.25 40.5 21.2 40.35 21.15 40.2 21.0 40.2 20.9 40.55 20.85 40.9 20.95 41.5 20.95 41.55 20.95 41.75 20.85 41.85 20.85 41.9 20.85" fill="#623b1c" fill-rule="evenodd" stroke="none"/>
    <path d="M52.85 39.0 L52.95 38.95 53.25 38.8 53.35 38.8 53.45 38.75 54.75 38.8 Q55.5 39.0 55.55 39.85 L55.7 41.2 Q55.9 42.0 55.35 42.45 L55.15 42.55 55.15 42.6 55.15 42.65 55.1 42.75 55.1 42.85 55.05 42.9 55.05 42.95 54.95 43.0 54.9 43.1 54.85 43.1 54.55 43.1 54.45 43.05 54.4 43.0 54.35 43.0 54.35 43.05 54.35 43.1 54.35 43.2 54.3 43.35 54.25 43.4 54.2 43.5 54.05 43.55 53.7 43.6 53.65 43.55 53.5 43.4 53.5 43.15 53.55 42.8 53.6 42.25 53.6 41.95 53.5 42.15 52.95 43.25 52.7 43.55 52.65 43.55 52.2 43.55 52.1 43.5 51.95 43.4 51.9 43.35 51.85 43.25 51.85 43.2 51.85 43.1 51.95 42.8 52.15 42.55 52.45 42.0 52.5 41.4 52.55 41.1 52.5 41.1 52.45 41.15 52.1 41.4 51.85 41.5 51.45 41.65 Q51.2 41.75 51.0 41.5 L50.95 41.45 50.95 41.2 51.05 40.9 51.4 40.25 51.9 39.5 52.25 39.05 52.35 39.0 52.45 39.0 52.55 39.0 52.7 39.05 52.8 39.1 52.8 39.05 52.85 39.0" fill="#000000" fill-rule="evenodd" stroke="none"/>
    <path d="M42.6 28.6 Q40.65 28.8 38.9 28.1 37.6 27.5 37.35 26.3 38.4 27.75 40.5 27.95 43.15 28.25 45.55 27.2 L46.65 26.7 48.7 25.4 49.65 24.7 Q49.85 25.4 49.0 26.05 47.55 27.25 45.75 27.85 L42.6 28.6" fill="#626262" fill-rule="evenodd" stroke="none"/>
    <path d="M35.0 31.15 L35.1 31.5 35.3 31.8 35.45 32.1 35.5 32.25 35.05 32.6 34.9 31.05 34.9 30.9 35.0 31.15" fill="#515151" fill-rule="evenodd" stroke="none"/>
    <path d="M51.45 27.15 L52.25 28.55 53.05 29.9 53.65 31.4 53.75 31.6 53.8 31.75 53.75 31.95 53.7 32.25 53.6 32.5 53.3 32.35 Q52.9 32.5 52.8 32.65 L52.8 32.6 52.8 32.5 52.8 32.4 52.8 32.3 52.85 32.1 52.9 32.0 52.95 31.9 Q52.45 31.8 52.45 31.25 L52.15 30.2 51.55 29.05 50.9 27.95 50.6 27.55 49.2 27.55 48.95 27.3 Q48.95 26.75 49.45 26.5 L50.15 26.35 Q51.0 26.5 51.45 27.15" fill="#2c2a2a" fill-rule="evenodd" stroke="none"/>
    <path d="M40.0 17.15 L40.1 17.15 40.2 17.2 40.3 17.35 40.35 17.55 40.25 17.8 40.15 18.05 40.1 18.1 40.1 18.15 40.05 18.2 39.85 18.25 39.6 18.2 39.55 18.15 39.5 18.1 39.45 18.0 39.3 17.85 39.15 17.6 39.15 17.4 39.2 17.35 39.3 17.35 39.7 17.15 39.8 17.15 40.0 17.15" fill="#482604" fill-rule="evenodd" stroke="none"/>
    <path d="M42.65 17.3 L42.7 17.3 42.75 17.45 42.65 17.7 42.45 17.9 42.4 18.0 42.25 18.2 42.05 18.3 41.65 18.0 41.55 17.75 41.55 17.6 41.55 17.55 41.6 17.55 41.65 17.5 41.7 17.45 41.8 17.4 41.85 17.35 41.85 17.3 41.95 17.25 42.0 17.25 42.05 17.2 42.2 17.25 42.25 17.25 42.4 17.2 42.45 17.2 42.6 17.25 42.65 17.3" fill="#482604" fill-rule="evenodd" stroke="none"/>
    <path d="M38.65 15.7 Q39.05 15.15 39.8 15.45 41.1 16.05 42.35 15.45 L42.5 15.35 43.3 15.3 43.45 15.25 43.55 15.3 43.65 15.3 43.7 15.3 44.05 16.05 44.15 16.9 44.25 17.75 44.25 18.65 44.15 18.7 43.95 18.3 43.85 17.75 43.85 17.15 43.85 16.6 43.8 16.4 43.7 16.35 43.65 16.3 43.65 16.25 43.55 16.15 43.5 16.05 43.45 16.0 Q41.95 16.25 40.35 16.0 L39.15 15.6 39.1 15.65 39.05 15.7 39.0 15.75 38.95 15.8 38.7 15.75 38.65 15.75 38.65 15.7" fill="#4d4d4d" fill-rule="evenodd" stroke="none"/>
    <path d="M46.7 26.65 Q47.5 26.1 48.4 25.7 47.75 26.65 46.55 27.1 L44.25 27.75 42.55 27.9 40.0 27.95 39.1 27.85 38.7 27.65 38.35 27.5 38.0 27.3 37.85 27.05 37.7 26.9 Q40.0 27.95 42.85 27.65 L44.75 27.25 45.85 27.0 46.7 26.65" fill="#4d4d4d" fill-rule="evenodd" stroke="none"/>
    <path d="M56.25 13.5 L59.7 13.5 59.7 20.8 67.1 20.8 67.1 24.25 59.7 24.25 59.7 31.7 56.25 31.7 56.25 24.25 48.9 24.25 48.9 20.8 56.25 20.8 56.25 13.5" fill="#6d3000" fill-rule="evenodd" stroke="none"/>
    <path d="M37.9 30.95 L37.9 31.05 37.9 31.1 38.85 31.9 40.3 34.05 41.6 36.1 Q42.75 37.65 42.9 40.45 43.0 43.65 43.3 44.7 L43.55 46.0 43.65 47.25 Q43.65 48.1 43.1 48.7 L42.2 49.3 41.9 49.7 Q41.6 50.05 40.9 50.0 L40.5 49.9 40.45 49.8 39.85 50.0 39.15 49.9 39.05 49.85 39.1 49.8 38.65 49.65 38.45 49.25 38.4 48.9 38.4 48.7 38.6 48.1 38.5 48.1 Q37.8 48.1 37.7 47.8 L37.5 47.4 38.05 53.75 37.95 53.55 38.0 54.65 Q39.5 58.65 39.25 61.65 L39.5 62.4 39.5 63.05 40.95 65.65 40.95 65.7 41.05 66.75 Q40.85 68.0 39.45 68.45 L39.5 68.45 Q37.1 69.2 36.3 67.2 L36.15 66.85 36.1 66.7 35.65 64.7 35.55 64.65 35.35 64.25 35.35 63.95 Q34.55 62.95 34.8 61.75 L34.85 61.55 33.5 57.95 33.5 58.0 33.25 57.45 32.95 57.45 28.4 57.4 28.25 57.4 27.75 57.2 26.8 56.8 26.75 57.2 26.85 57.3 27.0 57.65 27.0 57.7 27.0 57.85 26.55 60.05 26.4 60.3 26.15 60.5 26.05 60.55 25.7 61.55 25.5 61.85 25.25 62.05 25.05 62.55 25.2 62.8 25.15 63.25 24.65 64.1 Q24.9 64.8 24.55 66.65 L24.3 67.1 Q22.35 68.45 20.65 68.95 L20.25 69.05 18.6 69.2 Q17.6 69.0 17.55 68.25 L17.55 68.2 Q17.3 67.3 18.4 66.25 L19.95 64.65 19.95 64.6 20.05 64.55 20.6 63.4 20.95 60.3 20.85 60.2 Q20.35 58.9 20.85 57.5 L20.85 57.45 Q20.95 57.2 21.2 57.1 L21.25 57.05 21.35 56.45 21.15 56.2 21.0 55.75 21.2 55.3 21.45 55.15 21.75 52.45 21.75 52.4 Q21.65 51.0 21.85 50.15 L21.85 50.2 21.95 49.75 22.95 44.05 23.1 43.1 23.25 42.8 23.25 42.85 23.25 39.85 23.05 39.75 22.85 39.3 22.8 39.2 22.7 39.25 22.05 39.4 21.8 39.75 21.4 39.9 21.2 39.9 20.8 39.75 16.15 40.9 Q15.5 42.0 13.85 41.9 13.15 41.85 12.95 41.45 L12.9 41.35 12.85 41.3 Q12.1 40.7 11.8 39.55 L11.45 38.5 9.9 39.2 9.4 39.2 9.0 38.9 8.7 38.15 8.65 37.65 Q8.75 37.4 9.0 37.3 L10.95 36.4 10.7 35.85 10.65 35.7 10.45 35.3 7.65 28.7 3.4 18.7 3.35 18.35 3.85 15.15 4.05 14.7 Q4.25 14.55 4.5 14.55 L4.95 14.75 7.4 16.85 7.55 17.1 14.9 34.55 17.45 33.4 17.95 33.4 18.3 33.75 18.6 34.35 19.9 33.7 20.05 33.65 20.65 32.85 22.05 30.65 Q21.85 30.2 22.1 29.65 22.3 29.1 23.15 28.5 L24.15 27.75 Q23.75 25.35 23.9 23.55 24.05 21.0 24.7 19.05 25.25 16.95 28.65 14.75 L28.95 14.6 29.2 14.65 Q30.9 15.25 32.3 17.15 33.7 19.0 33.95 20.15 34.25 21.3 34.35 25.35 L34.25 27.3 35.95 28.6 37.85 30.6 37.9 30.95 M36.05 36.95 L36.15 37.85 36.2 38.4 37.0 42.6 36.8 42.7 36.95 42.8 37.05 43.1 37.5 46.55 37.5 46.6 37.5 47.0 38.0 45.85 38.7 44.7 37.2 39.7 37.15 39.5 37.15 39.2 37.0 38.85 37.0 38.2 36.1 37.0 36.05 36.95" fill="#ffbd64" fill-rule="evenodd" stroke="none"/>
    <path d="M37.85 30.25 L37.85 30.35 37.85 30.4 38.8 31.2 40.25 33.35 41.55 35.4 Q42.7 36.95 42.85 39.75 42.95 42.95 43.25 44.0 L43.5 45.3 43.6 46.55 Q43.6 47.4 43.05 48.0 L42.15 48.6 41.85 49.0 Q41.55 49.35 40.85 49.3 L40.45 49.2 40.4 49.1 39.8 49.3 39.1 49.2 39.0 49.15 39.05 49.1 38.6 48.95 38.4 48.55 38.35 48.2 38.35 48.0 38.55 47.4 38.45 47.4 37.65 47.1 37.45 46.7 38.0 53.05 37.9 52.85 37.95 53.95 Q39.45 57.95 39.2 60.95 L39.45 61.7 39.45 62.35 40.9 64.95 40.9 65.0 41.0 66.05 Q40.8 67.3 39.4 67.75 L39.45 67.75 Q37.05 68.5 36.25 66.5 L36.1 66.15 36.05 66.0 35.6 64.0 35.5 63.95 35.3 63.55 35.3 63.25 Q34.5 62.25 34.75 61.05 L34.8 60.85 33.45 57.25 33.45 57.3 33.2 56.75 32.9 56.75 28.35 56.7 28.2 56.7 27.7 56.5 26.75 56.1 26.7 56.5 26.8 56.6 26.95 56.95 26.95 57.0 26.95 57.15 26.5 59.35 26.35 59.6 26.1 59.8 26.0 59.85 25.65 60.85 25.45 61.15 25.2 61.35 25.0 61.85 25.15 62.1 25.1 62.55 24.6 63.4 Q24.85 64.1 24.5 65.95 L24.25 66.4 Q22.3 67.75 20.6 68.25 L20.2 68.35 18.55 68.5 Q17.55 68.3 17.5 67.55 L17.5 67.5 Q17.25 66.6 18.35 65.55 L19.9 63.95 19.9 63.9 20.0 63.85 20.55 62.7 20.9 59.6 20.8 59.5 Q20.3 58.2 20.8 56.8 L20.8 56.75 Q20.9 56.5 21.15 56.4 L21.2 56.35 21.3 55.75 21.1 55.5 20.95 55.05 21.15 54.6 21.4 54.45 21.7 51.75 21.7 51.7 Q21.6 50.3 21.8 49.45 L21.8 49.5 21.9 49.05 22.9 43.35 23.05 42.4 23.2 42.1 23.2 42.15 23.2 39.15 23.0 39.05 22.8 38.6 22.75 38.5 22.65 38.55 22.0 38.7 21.75 39.05 21.35 39.2 21.15 39.2 Q20.9 39.2 20.75 39.05 L16.1 40.2 Q15.45 41.3 13.8 41.2 13.1 41.15 12.9 40.75 L12.85 40.65 12.8 40.6 Q12.05 40.0 11.75 38.85 L11.4 37.8 9.85 38.5 9.35 38.5 8.95 38.2 8.65 37.45 8.6 36.95 Q8.7 36.7 8.95 36.6 L10.9 35.7 10.65 35.15 10.6 35.0 10.4 34.6 7.6 28.0 3.35 18.0 3.3 17.65 3.8 14.45 4.0 14.0 Q4.2 13.85 4.45 13.85 L4.9 14.05 7.35 16.15 7.5 16.4 14.85 33.85 17.4 32.7 17.9 32.7 18.25 33.05 18.55 33.65 19.85 33.0 20.0 32.95 20.6 32.15 22.0 29.95 Q21.8 29.5 22.05 28.95 22.25 28.4 23.1 27.8 L24.1 27.05 Q23.7 24.65 23.85 22.85 24.0 20.3 24.65 18.35 25.2 16.25 28.6 14.05 L28.9 13.9 29.15 13.95 Q30.85 14.55 32.25 16.45 33.65 18.3 33.9 19.45 34.2 20.6 34.3 24.65 L34.2 26.6 35.9 27.9 37.8 29.9 37.85 30.25 M36.0 36.25 L36.1 37.15 36.15 37.7 36.95 41.9 36.75 42.0 36.9 42.1 37.0 42.4 37.45 45.85 37.45 45.9 37.45 46.3 Q37.55 45.85 37.95 45.15 L38.65 44.0 37.15 39.0 37.1 38.8 37.1 38.5 36.95 38.15 36.95 37.5 36.05 36.3 36.0 36.25" fill="#6d3000" fill-rule="evenodd" stroke="none"/>
    <path d="M22.45 51.7 L26.2 52.5 Q26.4 57.25 25.1 60.65 24.45 61.15 24.15 61.6 L24.5 62.25 23.7 63.65 21.25 63.2 22.45 51.7" fill="#000000" fill-rule="evenodd" stroke="none"/>
    <path d="M31.85 53.05 L32.4 52.45 36.15 51.65 Q39.15 57.8 38.4 61.9 L35.95 63.4 35.75 61.75 Q34.05 56.3 31.85 53.05" fill="#000000" fill-rule="evenodd" stroke="none"/>
    <path d="M26.7 30.8 L22.9 37.2 21.85 37.7 19.7 34.85 23.5 28.9 26.7 30.8" fill="#000000" fill-opacity="0.92941177" fill-rule="evenodd" stroke="none"/>
    <path d="M42.0 42.0 L39.2 42.15 38.95 42.45 37.15 35.65 40.8 35.7 42.0 42.0" fill="#000000" fill-rule="evenodd" stroke="none"/>
    <path d="M40.25 35.3 Q41.5 35.7 41.55 37.25 L41.55 38.05 Q41.5 38.55 40.9 38.4 40.1 38.2 40.4 37.2 L40.25 36.8 Q40.2 36.65 40.05 36.8 39.8 37.0 39.5 36.8 L38.45 36.95 38.25 36.9 38.35 36.95 38.6 37.05 38.65 37.15 Q38.1 38.25 37.6 37.0 L37.6 36.7 Q37.85 35.45 38.55 36.2 L39.4 36.1 39.8 36.0 39.75 35.8 Q39.75 35.35 40.25 35.3" fill="#000000" fill-rule="evenodd" stroke="none"/>
    <path d="M40.8 35.55 L37.8 37.0 37.7 37.4 33.4 31.85 35.15 29.05 36.25 29.85 Q39.25 31.85 40.8 35.55" fill="#000000" fill-rule="evenodd" stroke="none"/>
    <path d="M28.7 27.8 Q28.4 31.3 29.2 32.25 27.4 40.65 30.3 42.6 29.8 42.6 29.5 42.9 28.55 43.85 25.9 44.25 24.0 42.0 23.55 39.15 23.1 36.25 23.8 32.95 23.7 32.4 24.3 30.85 23.55 29.1 25.4 27.8 L28.7 27.8" fill="#a61313" fill-rule="evenodd" stroke="none"/>
    <path d="M30.3 42.6 Q27.4 40.65 29.2 32.25 28.4 31.3 28.7 27.8 L34.4 27.8 Q36.15 29.25 36.05 31.3 36.0 32.6 35.2 35.25 L35.55 38.3 35.75 41.2 Q34.95 39.65 35.45 42.05 34.75 47.3 33.1 44.05 31.85 43.0 30.95 42.7 L30.3 42.6" fill="#000000" fill-rule="evenodd" stroke="none"/>
    <path d="M33.6 24.65 Q33.65 28.6 31.8 29.8 L28.4 29.9 Q26.85 28.8 25.55 27.05 25.4 26.8 24.9 27.75 24.3 24.95 24.45 22.85 24.6 20.4 25.2 18.45 25.8 16.6 28.9 14.55 30.4 15.1 31.7 16.8 32.95 18.55 33.2 19.6 L33.6 24.65" fill="#727272" fill-rule="evenodd" stroke="none"/>
    <path d="M33.25 26.8 Q35.95 28.4 37.2 30.3 26.95 37.0 22.8 30.0 22.2 29.35 23.55 28.35 L25.25 27.0 32.55 24.4 33.25 26.8" fill="#727272" fill-rule="evenodd" stroke="none"/>
    <path d="M30.0 20.65 Q30.6 20.4 30.75 20.65 L30.95 21.4 30.95 24.55 Q30.8 26.3 30.15 27.15 29.55 28.0 28.8 27.85 L27.6 27.7 Q27.2 27.7 26.45 26.95 25.7 26.2 25.7 24.2 L25.6 21.9 Q25.55 21.1 25.75 20.85 25.95 20.55 26.4 20.85 L30.0 20.65" fill="#ffaf7e" fill-rule="evenodd" stroke="none"/>
    <path d="M27.6 24.6 L29.35 24.65 Q29.85 24.8 29.9 25.3 L29.9 26.15 29.95 26.95 Q30.05 27.5 29.65 27.65 L29.6 27.7 29.6 27.75 29.55 27.8 29.5 27.85 27.4 27.95 26.8 27.45 Q26.4 27.0 26.5 26.25 L26.6 25.65 26.55 25.6 26.55 25.55 26.5 25.5 26.5 25.45 26.5 25.4 26.5 25.35 Q26.6 24.95 26.85 24.75 L27.6 24.6" fill="#a35518" fill-rule="evenodd" stroke="none"/>
    <path d="M26.35 21.85 L26.45 21.8 Q27.35 21.65 27.7 22.3 27.9 22.65 27.75 22.95 27.55 23.8 26.6 23.65 L26.15 23.25 Q25.95 22.75 26.05 21.7 26.2 22.05 26.35 21.85" fill="#e5865a" fill-rule="evenodd" stroke="none"/>
    <path d="M29.8 41.95 Q29.5 43.45 29.0 42.65 28.1 52.1 28.45 56.05 26.25 55.35 22.55 53.2 22.25 50.8 22.5 49.6 L24.1 40.6 24.25 40.35 Q27.2 42.25 29.8 41.95 M24.4 40.5 Q24.3 41.3 24.4 40.55 L24.4 40.5" fill="#000000" fill-rule="evenodd" stroke="none"/>
    <path d="M28.45 56.05 Q28.1 52.1 29.0 42.65 29.5 43.45 29.8 41.95 32.65 42.3 35.55 40.2 36.85 40.75 37.35 55.0 37.0 55.0 36.65 55.3 L36.1 53.8 Q36.15 55.95 34.1 56.05 L28.45 56.05" fill="#a61313" fill-rule="evenodd" stroke="none"/>
    <path d="M35.4 50.25 L35.6 52.95 Q36.4 53.25 36.55 54.2 L36.4 54.75 Q35.95 54.95 35.7 54.45 L35.2 54.4 35.2 54.5 34.95 54.85 34.7 54.85 Q34.1 51.55 34.6 48.05 L35.4 44.75 Q35.15 47.55 35.4 50.25" fill="#d41919" fill-rule="evenodd" stroke="none"/>
    <path d="M14.65 35.05 L12.05 36.75 11.5 35.3 4.05 17.8 Q4.2 16.2 4.5 14.55 L6.9 16.7 14.65 35.05" fill="#cdcdcd" fill-rule="evenodd" stroke="none"/>
    <path d="M14.5 36.4 L20.2 33.6 Q22.95 36.15 22.5 37.9 L15.55 39.65 14.5 36.4" fill="#727272" fill-rule="evenodd" stroke="none"/>
    <path d="M32.25 40.7 L32.25 49.95 Q31.7 50.8 30.8 49.95 L31.85 40.7 32.25 40.7" fill="#000000" fill-rule="evenodd" stroke="none"/>
    <path d="M33.05 40.7 Q33.7 45.9 35.3 48.8 L35.05 49.95 33.8 49.75 31.8 40.15 33.2 39.8 33.05 40.7" fill="#000000" fill-rule="evenodd" stroke="none"/>
    <path d="M21.45 56.9 Q23.75 57.5 26.25 56.9 L25.8 59.15 25.25 59.3 21.45 59.2 Q21.05 58.1 21.45 56.9" fill="#000000" fill-rule="evenodd" stroke="none"/>
    <path d="M22.8 56.55 L21.6 55.05 23.75 55.05 23.75 56.45 22.8 56.55" fill="#000000" fill-rule="evenodd" stroke="none"/>
    <path d="M23.85 65.85 Q21.85 67.3 20.1 67.7 18.3 68.1 18.2 67.45 18.05 66.8 18.85 66.05 L20.55 64.25 Q21.15 63.55 22.0 60.7 21.95 62.9 22.2 62.75 23.0 62.25 23.25 62.6 L25.05 60.0 Q23.75 63.3 23.95 63.5 24.25 63.9 23.85 65.85" fill="#000000" fill-rule="evenodd" stroke="none"/>
    <path d="M4.8 14.8 L4.4 17.65 12.5 37.25 11.5 35.25 4.0 17.7 4.45 14.55 4.8 14.8" fill="#727272" fill-rule="evenodd" stroke="none"/>
    <path d="M13.8 35.6 L13.4 35.75 5.35 16.3 13.8 35.6" fill="#999999" fill-rule="evenodd" stroke="none"/>
    <path d="M5.6 15.9 L5.75 16.15 6.6 17.0 Q6.9 17.35 6.75 17.85 L8.05 20.9 8.75 23.1 Q8.0 22.2 7.6 20.75 L6.95 18.95 6.7 18.7 6.7 18.4 6.45 18.3 Q6.35 18.15 6.4 17.85 L6.4 17.55 6.35 17.55 5.85 17.15 6.65 19.6 Q7.05 20.6 7.05 21.5 L6.35 20.5 6.0 19.5 5.85 19.45 5.75 19.35 5.7 19.15 5.7 18.85 5.7 18.8 5.65 18.95 5.4 19.25 5.25 19.0 5.2 18.75 Q4.8 18.0 4.8 17.1 L4.8 16.9 4.7 16.45 Q4.7 15.65 4.95 15.25 L5.6 15.9 M5.55 17.0 L5.55 17.1 5.6 17.1 5.85 17.15 5.8 17.1 5.5 16.7 5.5 16.8 5.55 17.0" fill="#ffffff" fill-rule="evenodd" stroke="none"/>
    <path d="M9.25 37.2 L17.7 33.3 18.0 34.0 9.55 37.9 9.25 37.2" fill="#9a0000" fill-rule="evenodd" stroke="none"/>
    <path d="M42.55 44.1 L39.4 44.25 37.6 38.35 41.8 37.1 42.55 44.1" fill="#727272" fill-rule="evenodd" stroke="none"/>
    <path d="M35.45 60.6 L37.9 60.05 39.05 65.25 36.6 65.8 35.45 60.6" fill="#000000" fill-rule="evenodd" stroke="none"/>
    <path d="M36.1 60.5 L35.9 61.1 Q37.25 61.45 37.3 63.1 L37.3 65.05 Q37.25 65.35 37.05 65.15 36.3 64.45 36.15 63.35 L36.05 63.1 Q35.1 62.25 35.35 61.15 L35.8 59.35 Q36.3 59.8 36.1 60.5" fill="#000000" fill-rule="evenodd" stroke="none"/>
    <path d="M38.15 60.3 L38.75 61.8 Q38.85 62.2 38.55 62.6 39.5 63.0 38.55 63.65 38.35 63.75 38.3 64.0 39.15 64.05 39.1 65.05 L38.95 65.6 38.6 65.65 38.55 65.6 38.5 65.0 38.5 64.55 Q38.2 64.85 37.75 64.75 37.55 64.25 37.75 63.75 L38.1 63.2 Q37.75 62.8 38.05 62.3 L38.35 61.75 37.9 60.8 Q37.85 60.45 38.15 60.3" fill="#000000" fill-rule="evenodd" stroke="none"/>
    <path d="M36.3 63.7 L38.35 64.8 39.05 64.75 38.5 63.25 Q38.15 62.6 38.65 62.35 39.65 63.65 40.35 65.3 L40.4 65.95 Q40.25 66.85 39.3 67.15 37.55 67.75 36.9 66.3 L36.3 63.7" fill="#000000" fill-rule="evenodd" stroke="none"/>
    <path d="M12.65 36.25 L14.25 35.7 15.7 36.7 Q16.05 37.1 15.7 37.5 16.1 37.5 16.2 37.95 L16.1 38.6 16.2 39.05 Q16.15 39.45 15.7 39.65 15.3 40.65 13.85 40.6 13.35 40.55 13.5 40.05 13.5 39.9 13.25 40.15 12.7 39.65 12.45 38.7 L12.0 37.4 Q11.4 36.6 12.65 36.25 M12.05 37.45 L12.25 37.65 12.05 37.45" fill="#000000" fill-rule="evenodd" stroke="none"/>
    <path d="M16.45 36.2 Q17.7 35.25 19.05 34.8 L20.0 34.25 20.55 34.8 20.55 35.2 20.3 35.2 20.25 35.2 20.2 35.3 20.1 35.4 18.85 35.3 18.85 35.45 18.75 35.7 18.5 35.5 18.45 35.4 16.85 36.15 16.45 36.2" fill="#cccccc" fill-rule="evenodd" stroke="none"/>
    <path d="M39.65 42.2 L40.05 43.55 40.9 43.7 Q39.95 44.65 39.6 43.3 L38.7 39.8 Q38.65 39.6 38.8 39.55 L39.65 42.2" fill="#cccccc" fill-rule="evenodd" stroke="none"/>
    <path d="M25.4 28.55 L25.35 28.7 25.3 28.75 25.95 29.55 Q26.05 30.0 25.75 30.35 L25.85 30.5 25.95 30.55 26.0 30.65 26.0 30.7 Q25.05 32.0 24.0 30.8 L23.45 30.4 23.7 29.2 Q23.95 28.45 24.6 28.2 L25.05 28.2 25.35 28.3 25.4 28.45 25.4 28.55 M25.0 30.65 L24.95 30.4 24.75 30.7 24.8 30.85 25.0 30.65" fill="#939393" fill-rule="evenodd" stroke="none"/>
    <path d="M26.65 16.9 Q27.35 15.95 28.5 15.7 29.1 16.35 29.35 17.4 29.4 17.95 29.75 18.35 30.25 18.9 29.45 18.8 L27.75 19.2 Q27.15 19.45 27.25 18.75 L26.95 18.75 26.75 18.8 26.35 19.95 Q26.25 20.4 25.8 20.2 25.6 18.45 26.65 16.9" fill="#939393" fill-rule="evenodd" stroke="none"/>
    <path d="M28.55 16.3 L28.45 16.7 28.4 16.75 28.2 16.85 Q27.65 16.5 28.05 15.95 28.2 15.75 28.45 15.7 28.8 15.9 28.55 16.3" fill="#939393" fill-rule="evenodd" stroke="none"/>
    <path d="M24.9 37.5 Q24.15 36.5 24.55 35.0 L24.6 34.5 Q24.4 33.2 24.85 32.35 L26.9 33.55 27.15 33.95 27.45 36.7 Q27.45 37.75 27.0 38.65 26.8 39.15 26.35 38.75 L26.15 38.55 Q25.75 38.75 25.5 38.35 L25.45 38.25 Q25.0 38.5 24.95 38.0 L24.9 37.65 24.9 37.5" fill="#d41919" fill-rule="evenodd" stroke="none"/>
    <path d="M13.5 37.45 L12.75 37.55 Q12.95 37.05 13.6 36.8 L14.45 36.45 Q14.55 37.0 13.5 37.45" fill="#333333" fill-rule="evenodd" stroke="none"/>
    <path d="M14.6 38.15 L13.7 38.05 15.0 37.4 15.3 37.3 Q15.65 37.85 14.6 38.15" fill="#333333" fill-rule="evenodd" stroke="none"/>
    <path d="M14.8 39.45 Q14.4 39.6 14.2 39.25 14.5 38.85 15.1 38.7 L15.4 38.65 Q15.75 39.15 14.8 39.45" fill="#333333" fill-rule="evenodd" stroke="none"/>
    <path d="M25.8 21.5 L25.8 21.45 25.8 21.35 25.85 21.3 25.95 21.25 26.05 21.3 26.1 21.35 26.15 21.4 26.15 21.45 26.25 21.55 26.6 21.6 27.05 21.7 27.25 21.8 27.3 21.8 27.5 22.0 27.45 22.05 27.45 22.1 27.4 22.2 27.35 22.25 27.3 22.3 Q27.0 22.5 26.6 22.3 L26.2 22.1 26.0 22.0 25.85 21.85 25.85 21.8 25.8 21.65 25.8 21.5" fill="#623b1c" fill-rule="evenodd" stroke="none"/>
    <path d="M30.45 22.65 L30.15 23.5 29.1 23.65 Q28.2 23.35 28.45 22.35 28.7 21.3 29.55 21.8 30.2 21.75 30.3 21.5 L30.45 22.65" fill="#e5865a" fill-rule="evenodd" stroke="none"/>
    <path d="M30.15 21.55 L30.15 21.5 30.15 21.4 30.1 21.35 30.0 21.3 29.9 21.35 29.85 21.4 29.8 21.45 29.8 21.5 29.7 21.6 29.35 21.65 28.9 21.75 28.7 21.85 28.65 21.85 28.45 22.05 28.5 22.1 28.5 22.15 28.55 22.25 28.6 22.3 28.65 22.35 Q28.95 22.55 29.35 22.35 L29.75 22.15 29.95 22.05 30.1 21.9 30.1 21.85 30.15 21.7 30.15 21.55" fill="#623b1c" fill-rule="evenodd" stroke="none"/>
    <path d="M28.35 22.55 L28.45 23.05 28.4 23.75 28.3 23.45 28.2 23.0 28.35 22.55 M28.5 24.35 L28.55 24.3 28.5 24.25 28.7 24.45 Q29.05 24.75 28.7 24.9 L28.65 24.95 27.6 24.85 27.35 24.7 27.55 24.45 28.5 24.35" fill="#e5865a" fill-rule="evenodd" stroke="none"/>
    <path d="M27.75 23.6 L28.4 23.6 28.5 24.05 28.65 24.45 27.8 24.5 Q27.5 24.3 27.65 23.95 L27.75 23.6" fill="#fab290" fill-rule="evenodd" stroke="none"/>
    <path d="M31.45 25.15 L31.45 25.85 31.4 26.55 31.35 27.3 Q31.05 28.3 30.0 28.75 28.15 29.6 26.85 28.15 L26.45 27.75 26.45 27.7 26.45 27.65 26.45 27.6 26.45 27.55 26.5 27.5 28.05 27.85 Q29.2 28.3 30.05 27.4 L30.9 25.75 31.15 24.7 31.25 24.5 31.45 25.15" fill="#4d4d4d" fill-rule="evenodd" stroke="none"/>
    <path d="M29.05 25.95 L29.1 25.95 29.15 25.95 29.2 26.0 29.25 26.05 Q29.05 26.3 28.7 26.35 L27.65 26.3 27.5 26.25 27.35 26.1 27.35 26.0 27.7 25.95 28.05 26.05 28.65 26.05 28.7 26.05 28.9 25.95 29.0 25.95 29.05 25.95" fill="#623b1c" fill-rule="evenodd" stroke="none"/>
    <path d="M40.0 44.05 L40.1 44.0 40.4 43.85 40.5 43.85 40.6 43.8 41.9 43.85 Q42.65 44.05 42.7 44.9 L42.85 46.25 Q43.05 47.05 42.5 47.5 L42.3 47.6 42.3 47.65 42.3 47.7 42.25 47.8 42.25 47.9 42.2 47.95 42.2 48.0 42.1 48.05 42.05 48.15 42.0 48.15 41.7 48.15 41.6 48.1 41.55 48.05 41.5 48.05 41.5 48.1 41.5 48.15 41.5 48.25 41.45 48.4 41.4 48.45 41.35 48.55 41.2 48.6 40.85 48.65 40.8 48.6 40.65 48.45 40.65 48.2 40.7 47.85 40.75 47.3 40.75 47.0 40.65 47.2 40.1 48.3 39.85 48.6 39.8 48.6 39.35 48.6 39.25 48.55 39.1 48.45 39.05 48.4 39.0 48.3 39.0 48.25 39.0 48.15 39.1 47.85 39.3 47.6 39.6 47.05 39.65 46.45 39.7 46.15 39.65 46.15 39.6 46.2 39.25 46.45 39.0 46.55 38.6 46.7 38.15 46.55 38.1 46.5 38.1 46.25 38.2 45.95 38.55 45.3 39.05 44.55 39.4 44.1 39.5 44.05 39.6 44.05 39.7 44.05 39.85 44.1 39.95 44.15 39.95 44.1 40.0 44.05" fill="#000000" fill-rule="evenodd" stroke="none"/>
    <path d="M32.9 32.9 L29.75 33.65 Q27.8 33.85 26.05 33.15 24.75 32.55 24.5 31.35 25.55 32.8 27.65 33.0 30.3 33.3 32.7 32.25 L33.8 31.75 35.85 30.45 36.8 29.75 Q37.0 30.45 36.15 31.1 34.7 32.3 32.9 32.9" fill="#626262" fill-rule="evenodd" stroke="none"/>
    <path d="M16.4 39.05 L16.35 39.0 16.35 38.95 16.35 38.9 16.4 38.8 16.4 38.75 Q17.35 38.2 18.5 38.05 L20.3 37.45 20.8 37.35 20.8 37.3 20.8 37.25 20.8 37.2 20.85 37.2 20.9 37.15 20.9 37.1 20.95 37.05 20.95 37.0 20.95 36.95 20.95 36.85 20.95 36.8 20.95 36.7 20.95 36.65 21.0 36.6 21.05 36.6 21.1 36.55 21.2 36.5 21.3 36.5 21.3 36.45 21.35 36.4 21.55 36.25 21.6 36.25 21.6 36.2 21.6 36.15 21.6 36.1 21.6 36.05 21.6 36.0 21.65 35.95 21.75 35.9 21.85 35.9 22.0 35.9 22.05 35.95 22.15 36.2 22.25 36.55 22.45 36.85 22.6 37.15 22.65 37.3 Q21.65 38.05 20.3 38.3 L17.65 38.85 16.4 39.05" fill="#515151" fill-rule="evenodd" stroke="none"/>
    <path d="M38.6 32.2 L39.4 33.6 40.2 34.95 40.8 36.45 40.9 36.65 40.95 36.8 40.9 37.0 40.85 37.3 40.75 37.55 40.45 37.4 39.95 37.7 39.95 37.65 39.95 37.55 39.95 37.45 39.95 37.35 40.0 37.15 40.05 37.05 40.1 36.95 Q39.6 36.85 39.6 36.3 L39.3 35.25 38.7 34.1 38.05 33.0 37.75 32.6 36.35 32.6 36.1 32.35 Q36.1 31.8 36.6 31.55 L37.3 31.4 Q38.15 31.55 38.6 32.2" fill="#2c2a2a" fill-rule="evenodd" stroke="none"/>
    <path d="M27.15 22.2 L27.25 22.2 27.35 22.25 27.45 22.4 27.5 22.6 27.4 22.85 27.3 23.1 27.25 23.15 27.25 23.2 27.2 23.25 27.0 23.3 26.75 23.25 26.7 23.2 26.65 23.15 26.6 23.05 26.45 22.9 26.3 22.65 26.3 22.45 26.35 22.4 26.45 22.4 26.85 22.2 26.95 22.2 27.15 22.2" fill="#482604" fill-rule="evenodd" stroke="none"/>
    <path d="M29.8 22.35 L29.85 22.35 29.9 22.5 29.8 22.75 29.6 22.95 29.55 23.05 29.4 23.25 29.2 23.35 28.8 23.05 28.7 22.8 28.7 22.65 28.7 22.6 28.75 22.6 28.8 22.55 28.85 22.5 28.95 22.45 29.0 22.4 29.0 22.35 29.1 22.3 29.15 22.3 29.2 22.25 29.35 22.3 29.4 22.3 29.55 22.25 29.6 22.25 29.75 22.3 29.8 22.35" fill="#482604" fill-rule="evenodd" stroke="none"/>
    <path d="M25.8 20.75 Q26.2 20.2 26.95 20.5 28.25 21.1 29.5 20.5 L29.65 20.4 30.45 20.35 30.6 20.3 30.7 20.35 30.8 20.35 30.85 20.35 31.2 21.1 31.3 21.95 31.4 22.8 31.4 23.7 31.3 23.75 31.1 23.35 31.0 22.8 31.0 22.2 31.0 21.65 30.95 21.45 30.85 21.4 30.8 21.35 30.8 21.3 30.7 21.2 30.65 21.1 30.6 21.05 Q29.1 21.3 27.5 21.05 L26.3 20.65 26.25 20.7 26.2 20.75 26.15 20.8 26.1 20.85 25.85 20.8 25.8 20.8 25.8 20.75" fill="#4d4d4d" fill-rule="evenodd" stroke="none"/>
    <path d="M33.85 31.7 Q34.65 31.15 35.55 30.75 34.9 31.7 33.7 32.15 L31.4 32.8 29.7 32.95 27.15 33.0 26.25 32.9 25.85 32.7 25.5 32.55 25.15 32.35 25.0 32.1 24.85 31.95 Q27.15 33.0 30.0 32.7 L31.9 32.3 33.0 32.05 33.85 31.7" fill="#4d4d4d" fill-rule="evenodd" stroke="none"/>
  </g>
</svg>
