<?xml version="1.0" encoding="UTF-8" standalone="no"?>
<svg xmlns:ffdec="https://www.free-decompiler.com/flash" xmlns:xlink="http://www.w3.org/1999/xlink" ffdec:objectType="shape" height="91.25px" width="124.75px" xmlns="http://www.w3.org/2000/svg">
  <g transform="matrix(1.0, 0.0, 0.0, 1.0, -8.8, -20.65)">
    <path d="M81.55 87.25 Q91.6 86.85 100.95 88.65 L106.3 90.9 106.9 91.2 Q110.7 92.95 113.75 94.6 L114.15 94.8 Q115.85 94.3 127.55 96.25 134.25 97.25 133.45 100.45 132.65 103.65 130.6 104.5 L127.75 105.55 126.7 105.8 126.5 105.8 122.95 106.2 121.75 106.2 121.7 106.2 119.2 106.0 114.0 105.5 Q113.6 107.0 111.2 107.05 L105.65 107.15 Q101.6 107.2 98.05 109.1 89.6 113.65 80.1 110.85 73.75 108.95 67.7 106.4 62.9 104.4 57.85 106.2 53.1 107.85 48.5 109.95 40.55 113.55 33.25 108.9 29.6 106.6 25.35 106.75 20.1 106.9 15.1 108.35 12.75 109.0 10.45 106.7 8.15 104.4 9.95 101.8 11.05 100.15 14.85 96.8 15.2 98.65 17.15 98.3 L17.15 98.25 17.5 98.15 17.7 98.05 17.95 98.0 18.6 97.8 22.1 97.3 22.2 97.4 Q22.3 97.3 22.45 97.3 L24.1 97.15 24.7 96.45 24.95 96.35 31.2 94.05 38.95 91.2 Q44.5 89.2 49.35 85.05 54.15 80.85 65.55 86.0 71.5 87.65 81.55 87.25" fill="#faca89" fill-rule="evenodd" stroke="none"/>
    <path d="M81.55 86.25 Q91.6 85.85 100.95 87.65 L106.3 89.9 106.9 90.2 Q110.7 91.95 113.75 93.6 L114.15 93.8 Q115.85 93.3 127.55 95.25 134.25 96.25 133.45 99.45 132.65 102.65 130.6 103.5 L127.75 104.55 126.7 104.8 126.5 104.8 122.95 105.2 121.75 105.2 121.7 105.2 119.2 105.0 114.0 104.5 Q113.6 106.0 111.2 106.05 L105.65 106.15 Q101.6 106.2 98.05 108.1 89.6 112.65 80.1 109.85 73.75 107.95 67.7 105.4 62.9 103.4 57.85 105.2 53.1 106.85 48.5 108.95 40.55 112.55 33.25 107.9 29.6 105.6 25.35 105.75 20.1 105.9 15.1 107.35 12.75 108.0 10.45 105.7 8.15 103.4 9.05 100.5 9.9 97.6 15.6 94.2 15.2 97.65 17.15 97.3 L17.15 97.25 17.5 97.15 17.7 97.05 17.95 97.0 18.6 96.8 22.1 96.3 22.2 96.4 Q22.3 96.3 22.45 96.3 L24.1 96.15 24.7 95.45 24.95 95.35 31.2 93.05 38.95 90.2 Q44.5 88.2 49.35 84.05 54.15 79.85 65.55 85.0 71.5 86.65 81.55 86.25" fill="#5f330e" fill-rule="evenodd" stroke="none"/>
    <path d="M124.05 45.35 Q128.4 48.9 129.25 54.65 129.7 57.95 128.2 60.3 L127.5 60.95 126.55 60.95 125.85 60.3 122.45 55.65 120.9 54.45 121.9 56.35 Q123.8 60.55 123.1 64.85 122.15 70.3 117.8 71.2 L116.95 71.1 116.25 70.4 Q116.0 69.95 116.05 69.45 116.8 62.7 113.0 57.85 110.9 60.3 108.1 68.45 L108.6 66.5 Q107.55 69.65 106.9 72.75 105.25 80.1 106.4 87.1 L106.75 87.2 106.8 87.25 Q121.95 94.15 125.2 99.15 125.5 99.6 125.45 100.2 L125.0 101.15 Q124.6 101.55 124.1 101.55 L14.35 101.55 13.55 101.3 13.05 100.55 13.0 99.65 Q13.15 99.2 13.45 98.9 L15.9 97.0 15.85 97.05 Q19.45 94.3 24.1 92.75 28.8 91.1 30.55 91.15 32.35 91.1 35.5 89.75 L35.55 88.95 Q43.8 87.8 51.35 83.55 L52.8 82.45 69.35 83.05 Q86.05 84.3 94.7 83.15 L94.25 81.8 Q94.95 67.25 103.0 54.8 101.85 55.45 100.9 56.45 L100.7 56.65 Q95.95 59.8 96.85 63.6 97.05 64.15 96.85 64.65 L96.15 65.45 95.15 65.6 Q94.4 65.5 93.15 64.15 91.05 62.05 91.5 57.75 91.65 56.05 92.25 54.45 88.75 56.8 87.85 59.95 L87.25 60.8 86.3 61.05 Q85.75 61.0 85.45 60.65 85.05 60.25 85.0 59.75 83.65 51.15 92.45 44.75 L92.4 44.75 94.1 43.65 94.0 43.65 Q93.45 43.65 93.05 43.3 92.65 42.9 92.55 42.4 92.45 41.8 92.7 41.3 94.1 38.45 98.25 36.65 L98.2 36.65 Q102.4 34.65 104.3 35.7 L104.25 35.7 Q107.15 36.9 108.45 38.9 109.7 37.75 111.4 37.2 L111.45 37.2 Q115.35 36.2 119.2 38.9 121.3 40.4 122.2 42.6 122.45 43.15 122.3 43.7 L122.05 44.1 124.05 45.35" fill="#faca89" fill-rule="evenodd" stroke="none"/>
    <path d="M87.15 44.05 L87.45 44.9 88.9 45.2 88.95 45.25 Q93.65 46.65 96.05 51.05 L96.0 51.05 Q97.45 53.6 96.95 56.1 L96.45 56.95 95.5 57.3 Q94.95 57.3 94.55 57.0 92.6 55.55 90.4 54.3 L87.2 54.15 88.1 54.95 Q90.9 57.75 91.65 61.55 92.45 66.4 89.05 68.65 L88.15 68.9 Q87.65 68.85 87.25 68.55 86.85 68.25 86.75 67.75 85.8 63.75 83.35 61.3 86.0 66.6 86.95 73.2 87.65 78.05 87.2 82.6 L87.15 82.85 87.0 83.3 87.0 83.5 87.0 83.55 Q87.1 84.5 86.7 85.45 L86.6 85.65 86.55 85.7 86.1 86.2 85.25 86.65 85.0 87.2 84.95 87.25 85.05 87.1 85.0 87.25 84.5 87.8 Q82.75 89.05 81.4 88.0 L80.6 88.05 Q79.45 88.05 78.8 87.0 78.0 86.05 78.15 83.3 78.75 72.55 74.8 62.8 74.45 64.05 74.4 65.4 L74.4 65.7 Q73.25 70.75 75.9 72.45 L76.55 73.2 Q76.75 73.65 76.6 74.15 L76.05 74.95 Q75.4 75.55 73.75 75.55 71.15 75.65 68.85 72.6 66.6 69.6 66.6 65.25 66.6 63.8 66.85 62.45 63.55 66.3 63.75 69.95 L63.5 70.9 62.7 71.5 61.7 71.45 Q61.2 71.2 60.95 70.75 57.35 64.25 62.65 55.9 L63.5 54.65 63.05 54.65 Q62.45 54.5 62.1 54.05 61.75 53.55 61.85 52.95 62.2 50.15 64.95 47.15 67.85 44.05 69.85 44.2 72.7 44.2 74.45 45.5 74.95 44.85 75.6 44.3 L75.65 44.25 Q79.0 41.4 83.2 41.95 L83.2 42.0 Q85.75 42.3 87.15 44.05" fill="#5f330e" fill-rule="evenodd" stroke="none"/>
    <path d="M122.3 42.5 L122.05 42.9 124.05 44.15 Q128.4 47.7 129.25 53.45 129.7 56.75 128.2 59.1 L127.5 59.75 126.55 59.75 125.85 59.1 122.45 54.45 120.9 53.25 121.9 55.15 Q123.8 59.35 123.1 63.65 122.15 69.1 117.8 70.0 L116.95 69.9 116.25 69.2 Q116.0 68.75 116.05 68.25 116.8 61.5 113.0 56.65 110.9 59.1 108.1 67.25 L108.6 65.3 Q107.55 68.45 106.9 71.55 105.25 78.9 106.4 85.9 L106.75 86.0 106.8 86.05 Q121.95 92.95 125.2 97.95 125.5 98.4 125.45 99.0 L125.0 99.95 Q124.6 100.35 124.1 100.35 L14.35 100.35 13.55 100.1 13.05 99.35 13.0 98.45 Q13.15 98.0 13.45 97.7 L15.9 95.8 15.85 95.85 Q16.8 95.1 13.35 97.4 15.7 94.45 15.05 94.35 20.7 91.15 25.55 89.9 30.4 88.6 36.65 87.45 37.05 87.35 35.85 86.5 39.65 86.2 44.9 82.15 50.1 78.1 54.15 77.65 58.15 77.2 64.4 80.25 70.7 83.25 79.9 81.0 L78.6 81.6 Q83.5 82.55 84.95 81.0 L93.4 81.65 Q95.1 65.85 103.0 53.6 101.85 54.25 100.9 55.25 L100.7 55.45 Q95.95 58.6 96.85 62.4 97.05 62.95 96.85 63.45 L96.15 64.25 95.15 64.4 Q94.4 64.3 93.15 62.95 91.05 60.85 91.5 56.55 91.65 54.85 92.25 53.25 88.75 55.6 87.85 58.75 L87.25 59.6 86.3 59.85 Q85.75 59.8 85.45 59.45 85.05 59.05 85.0 58.55 83.65 49.95 92.45 43.55 L92.4 43.55 94.1 42.45 94.0 42.45 Q93.45 42.45 93.05 42.1 92.65 41.7 92.55 41.2 92.45 40.6 92.7 40.1 94.1 37.25 98.25 35.45 L98.2 35.45 Q102.4 33.45 104.3 34.5 L104.25 34.5 Q107.15 35.7 108.45 37.7 109.7 36.55 111.4 36.0 L111.45 36.0 Q115.35 35.0 119.2 37.7 121.3 39.2 122.2 41.4 122.45 41.95 122.3 42.5" fill="#5f330e" fill-rule="evenodd" stroke="none"/>
    <path d="M29.55 48.35 L29.55 48.25 29.45 48.1 29.55 48.35 M63.55 38.1 L63.45 38.1 63.5 38.1 63.75 37.45 63.6 38.05 64.05 37.7 63.55 38.1 M60.45 25.2 L62.65 23.4 Q62.85 25.5 61.6 30.8 60.3 35.95 58.4 38.0 L58.3 38.05 Q56.15 41.2 53.45 42.25 L54.25 42.3 54.25 42.35 Q56.9 42.45 62.75 38.6 L62.35 42.0 Q61.95 44.7 59.85 46.95 L59.75 47.05 Q57.5 49.2 54.15 50.9 47.05 54.5 36.55 47.85 L36.55 47.8 Q34.9 46.65 33.6 46.3 L33.25 46.25 32.75 46.1 32.65 46.0 Q30.75 45.7 29.9 47.65 L29.15 49.4 37.85 90.35 Q37.95 90.9 37.65 91.4 37.2 91.85 36.7 91.9 L33.7 92.55 Q33.2 92.55 32.65 92.25 32.15 91.95 32.1 91.4 L23.65 50.05 Q23.35 49.75 18.6 24.85 L18.65 24.75 Q18.85 24.3 19.2 24.1 25.9 19.75 31.35 20.9 36.9 21.95 41.05 28.4 44.25 33.4 48.9 32.95 53.95 32.1 60.45 25.2" fill="#5f330e" fill-rule="evenodd" stroke="none"/>
    <path d="M27.1 45.45 L26.9 45.75 26.2 46.4 25.35 46.7 24.5 46.65 24.3 46.55 33.5 92.0 36.55 91.5 27.2 45.35 27.1 45.45" fill="#b8730d" fill-rule="evenodd" stroke="none"/>
    <path d="M47.75 40.65 Q48.85 41.7 50.2 42.5 L51.1 42.9 54.1 43.6 Q57.45 43.8 60.95 41.6 60.55 43.95 58.65 45.9 56.65 48.05 53.45 49.6 46.9 52.8 37.25 46.55 35.1 45.0 34.3 45.15 L31.9 45.55 Q30.1 48.8 29.65 48.8 27.05 51.8 24.7 49.2 L24.8 48.9 24.65 48.85 24.5 48.95 19.9 25.15 Q32.2 17.2 39.75 29.05 47.4 40.75 61.4 26.1 59.7 33.35 57.15 37.05 53.2 42.7 47.75 40.65" fill="url(#gradient0)" fill-rule="evenodd" stroke="none"/>
    <path d="M109.0 49.9 Q110.25 48.4 112.8 53.55 110.25 57.2 108.3 61.5 106.3 65.75 105.0 72.85 103.55 80.0 105.35 88.1 L105.4 88.35 106.0 90.35 Q106.25 91.5 105.15 91.8 103.75 90.95 103.1 89.1 L101.95 86.2 102.7 89.7 Q103.4 92.15 101.1 92.2 L100.7 91.75 100.4 90.9 Q96.2 94.7 95.75 88.1 94.35 68.55 105.45 52.55 106.7 50.75 108.15 49.4 L109.0 49.9" fill="#c67707" fill-rule="evenodd" stroke="none"/>
    <path d="M129.1 101.4 Q121.9 102.35 115.6 98.05 114.15 97.05 112.6 97.75 111.15 98.35 109.7 99.05 107.0 100.3 104.25 99.05 L102.15 97.9 Q98.2 95.2 95.35 98.9 92.8 102.15 88.55 103.1 L85.9 102.8 Q81.0 100.65 76.1 102.45 L74.15 102.3 Q70.9 100.5 67.35 99.35 L64.2 98.7 Q54.75 98.05 46.4 102.3 L45.7 102.35 39.75 102.55 38.45 102.9 Q35.15 102.95 32.95 99.9 31.0 97.15 27.85 98.55 22.2 101.05 16.15 100.45 L15.1 99.6 Q14.35 99.05 14.6 98.65 L15.25 97.5 16.95 95.75 18.45 94.65 18.9 94.4 19.15 94.2 18.6 94.3 19.3 94.1 19.7 93.95 20.45 93.75 20.5 93.7 34.15 89.4 38.95 87.7 Q44.5 85.7 49.35 81.55 54.15 77.35 65.55 82.5 71.5 84.15 81.55 83.75 91.6 83.35 100.95 85.15 L106.3 87.4 106.9 87.7 Q110.7 89.45 113.75 91.1 L115.05 91.85 Q118.9 94.0 121.25 95.9 L126.25 96.1 Q130.45 96.1 129.85 99.75 129.7 100.8 129.1 101.4" fill="#fad14c" fill-rule="evenodd" stroke="none"/>
    <path d="M18.6 94.3 L19.15 94.2 18.9 94.4 18.45 94.65 16.95 95.75 15.25 97.5 14.6 98.65 Q14.35 99.05 15.1 99.6 L16.15 100.45 Q22.2 101.05 27.85 98.55 31.0 97.15 32.95 99.9 35.15 102.95 38.45 102.9 L39.75 102.55 45.7 102.35 46.4 102.3 Q54.75 98.05 64.2 98.7 L67.35 99.35 Q70.9 100.5 74.15 102.3 L76.1 102.45 Q81.0 100.65 85.9 102.8 L88.55 103.1 Q92.8 102.15 95.35 98.9 98.2 95.2 102.15 97.9 L104.25 99.05 Q107.0 100.3 109.7 99.05 111.15 98.35 112.6 97.75 114.15 97.05 115.6 98.05 121.9 102.35 129.1 101.4 L127.75 102.05 126.7 102.3 126.5 102.3 122.95 102.7 121.75 102.7 121.7 102.7 119.2 102.5 114.0 102.0 Q113.6 103.5 111.2 103.55 L105.65 103.65 Q101.6 103.7 98.05 105.6 89.6 110.15 80.1 107.35 73.75 105.45 67.7 102.9 62.9 100.9 57.85 102.7 53.1 104.35 48.5 106.45 40.55 110.05 33.25 105.4 29.6 103.1 25.35 103.25 20.1 103.4 15.1 104.85 12.75 105.5 11.45 103.6 10.5 102.15 11.3 100.4 13.05 96.45 17.15 94.8 L17.15 94.75 17.5 94.65 17.7 94.55 17.95 94.5 18.6 94.3" fill="#dea20c" fill-rule="evenodd" stroke="none"/>
    <path d="M110.5 46.55 L109.4 49.15 103.1 48.4 Q99.1 47.7 93.35 50.7 87.6 53.7 86.3 58.25 85.3 50.65 93.2 44.85 101.05 39.05 110.05 45.95 L110.5 46.55" fill="#129c08" fill-rule="evenodd" stroke="none"/>
    <path d="M123.15 45.4 Q127.0 48.6 127.75 53.6 128.1 56.25 126.95 58.2 L123.5 53.35 Q121.55 50.85 117.5 50.9 L110.1 51.65 109.85 51.5 Q109.75 50.85 110.05 50.25 110.5 49.4 110.4 48.5 110.35 47.75 110.6 46.95 L109.85 47.2 109.2 47.8 Q108.85 48.5 108.3 48.4 110.95 42.95 117.6 43.2 120.55 43.4 123.15 45.4" fill="#129c08" fill-rule="evenodd" stroke="none"/>
    <path d="M105.0 44.4 Q104.85 44.7 105.2 44.55 L105.15 44.45 105.0 44.4 M105.7 45.95 L104.4 47.1 Q104.5 42.35 102.2 40.9 99.95 39.5 98.75 39.5 97.55 39.45 95.9 40.2 L94.05 40.85 Q95.25 38.5 98.85 36.85 102.2 35.25 103.8 35.95 107.35 37.5 107.95 40.4 L108.75 45.25 108.5 45.25 Q106.5 45.45 105.7 45.95" fill="#129c08" fill-rule="evenodd" stroke="none"/>
    <path d="M110.55 48.0 Q112.0 49.25 112.4 50.25 L106.5 50.65 Q102.7 51.2 99.85 54.1 94.05 57.9 95.45 62.8 L94.1 61.75 Q92.55 60.1 92.9 56.65 93.25 52.75 96.05 49.75 99.9 45.5 105.25 45.8 L111.05 46.85 Q111.15 47.35 110.55 48.0" fill="#129c08" fill-rule="evenodd" stroke="none"/>
    <path d="M108.4 47.65 Q116.45 46.95 120.6 55.85 122.3 59.55 121.65 63.35 120.95 67.7 117.55 68.45 118.75 57.2 108.5 50.65 109.3 51.35 106.05 49.8 L106.2 49.65 Q107.2 49.0 107.25 49.25 L107.0 48.25 107.3 47.75 108.4 47.65" fill="#129c08" fill-rule="evenodd" stroke="none"/>
    <path d="M111.7 37.55 Q115.15 36.7 118.4 39.0 120.15 40.2 120.85 42.05 L116.65 41.65 Q114.4 41.65 112.95 44.35 111.45 47.15 110.55 49.8 L110.4 49.8 109.7 49.0 Q109.4 48.25 108.8 47.85 L108.0 46.85 107.85 47.5 108.0 48.25 Q108.2 48.85 108.0 49.2 105.65 44.4 108.4 40.05 109.55 38.2 111.7 37.55" fill="#129c08" fill-rule="evenodd" stroke="none"/>
    <path d="M104.4 53.45 L105.2 52.9 Q106.8 55.65 110.6 56.85 L110.3 57.8 Q106.15 56.45 104.4 53.45" fill="#7e4a01" fill-rule="evenodd" stroke="none"/>
    <path d="M101.95 57.7 L102.75 57.15 Q104.35 59.9 108.85 61.6 L108.55 62.55 Q103.7 60.7 101.95 57.7" fill="#7e4a01" fill-rule="evenodd" stroke="none"/>
    <path d="M99.55 62.2 L100.35 61.65 Q101.95 64.35 106.95 65.55 L106.75 66.55 Q101.3 65.25 99.55 62.2" fill="#7e4a01" fill-rule="evenodd" stroke="none"/>
    <path d="M97.75 66.95 L98.55 66.4 Q100.0 68.9 105.4 70.3 L105.2 71.25 Q99.35 69.8 97.75 66.95" fill="#7e4a01" fill-rule="evenodd" stroke="none"/>
    <path d="M96.25 73.25 L96.95 72.6 Q99.9 76.25 105.15 75.45 L105.3 76.45 Q99.55 77.35 96.25 73.25" fill="#7e4a01" fill-rule="evenodd" stroke="none"/>
    <path d="M95.1 80.2 L95.6 79.4 Q99.85 82.6 104.7 81.4 L104.95 82.35 Q99.65 83.7 95.1 80.2" fill="#7e4a01" fill-rule="evenodd" stroke="none"/>
    <path d="M85.45 82.8 L85.5 83.65 85.5 83.9 Q82.55 83.6 79.15 84.0 80.25 72.1 76.05 61.95 74.95 59.35 74.2 56.7 L74.65 56.6 75.5 56.95 Q75.5 55.85 76.5 55.6 L77.7 55.25 78.1 55.4 78.5 55.7 78.55 55.85 78.6 56.2 78.65 56.7 Q84.05 63.65 85.45 73.4 86.15 78.1 85.7 82.45 L85.45 82.8" fill="#c67707" fill-rule="evenodd" stroke="none"/>
    <path d="M78.6 52.0 L78.45 54.5 73.05 56.1 Q69.6 56.95 65.75 61.4 61.95 65.85 62.25 70.05 59.15 64.2 63.9 56.7 68.6 49.2 78.0 51.65 L78.6 52.0" fill="#129c08" fill-rule="evenodd" stroke="none"/>
    <path d="M88.5 46.65 Q92.6 47.9 94.7 51.75 95.85 53.8 95.45 55.8 L91.15 53.0 85.6 53.15 Q82.25 54.6 79.7 56.35 L79.5 56.3 Q79.15 55.85 79.25 55.2 79.35 54.35 79.0 53.65 L78.75 52.35 78.2 52.8 77.85 53.5 Q77.75 54.2 77.3 54.3 77.75 48.9 83.35 46.8 L88.5 46.65" fill="#129c08" fill-rule="evenodd" stroke="none"/>
    <path d="M74.4 53.25 L73.65 54.6 Q72.3 50.65 70.05 50.3 67.75 49.95 66.8 50.35 65.8 50.75 64.65 51.95 L63.3 53.15 Q63.65 50.75 66.05 48.15 68.35 45.7 69.85 45.7 73.2 45.7 74.6 47.9 L76.65 51.55 76.45 51.65 Q74.9 52.5 74.4 53.25 M73.55 52.2 L73.5 52.1 73.35 52.15 Q73.3 52.45 73.55 52.2" fill="#129c08" fill-rule="evenodd" stroke="none"/>
    <path d="M76.1 54.3 L78.5 54.5 Q77.05 55.9 75.05 58.75 73.05 61.65 72.9 65.35 71.5 71.7 75.15 73.75 L73.75 74.05 Q71.8 74.05 70.05 71.7 68.1 69.05 68.1 65.25 68.1 60.0 71.55 56.55 L75.75 53.3 Q76.1 53.5 76.1 54.3" fill="#129c08" fill-rule="evenodd" stroke="none"/>
    <path d="M74.6 53.6 Q80.95 50.2 87.05 56.0 89.5 58.45 90.15 61.8 90.8 65.6 88.2 67.4 85.95 57.8 75.6 56.05 77.25 56.4 76.4 56.5 L72.75 57.3 Q72.8 56.9 73.4 56.0 74.05 55.15 74.15 55.25 L73.65 54.6 73.75 54.1 Q74.15 53.8 74.6 53.6" fill="#129c08" fill-rule="evenodd" stroke="none"/>
    <path d="M76.6 45.4 Q79.45 43.0 83.0 43.45 84.9 43.7 85.95 45.0 84.0 45.7 82.05 46.75 80.0 47.8 79.35 50.95 78.65 54.15 78.5 57.0 L78.35 57.15 Q77.9 57.15 77.55 56.75 77.05 56.2 76.45 56.1 75.9 56.05 75.45 55.65 L75.45 56.3 75.75 56.9 Q76.15 57.3 76.0 57.7 72.75 54.6 74.15 49.3 74.8 47.05 76.6 45.4" fill="#129c08" fill-rule="evenodd" stroke="none"/>
    <path d="M85.75 78.65 Q85.7 79.15 85.95 79.4 82.75 82.05 79.45 81.1 79.6 80.5 79.4 79.95 82.65 81.05 85.85 78.15 L85.75 78.65 M84.45 69.4 L84.4 69.55 Q84.3 70.15 84.6 70.55 81.45 72.7 78.55 71.95 L78.5 71.6 78.4 70.8 Q81.3 71.7 84.45 69.4 M85.85 73.65 L85.75 74.0 Q85.5 74.55 85.5 75.25 82.5 77.45 79.45 76.55 79.6 76.0 79.4 75.45 82.65 76.5 85.85 73.65 M83.6 65.9 L83.75 66.15 Q81.2 68.25 78.0 67.8 L77.75 66.7 Q80.95 67.25 83.4 65.0 L83.6 65.9 M81.35 60.7 L82.05 61.4 Q79.9 63.9 76.6 63.95 L76.15 63.35 76.15 62.85 Q79.35 62.95 81.35 60.7" fill="#7e4a01" fill-rule="evenodd" stroke="none"/>
    <path d="M72.05 51.7 L72.15 51.8 Q72.5 52.6 71.65 52.6 69.4 52.7 67.5 53.65 66.55 54.15 65.95 54.9 64.35 56.85 63.4 59.25 62.45 61.6 62.3 64.15 L61.8 66.9 Q61.25 66.35 61.3 65.15 L61.3 63.95 Q61.35 62.0 61.75 60.15 62.3 57.65 63.65 55.5 65.6 52.3 69.2 51.45 L69.95 51.45 70.1 51.45 71.4 51.45 Q71.75 51.5 72.05 51.7" fill="#60a31e" fill-rule="evenodd" stroke="none"/>
    <path d="M88.15 56.8 Q89.65 59.55 89.95 62.65 90.2 64.8 89.8 66.95 89.65 67.8 89.0 68.15 88.8 66.7 88.75 64.85 88.75 62.6 88.2 60.4 87.4 57.35 85.25 54.95 82.4 51.85 78.25 50.5 77.65 50.3 78.4 50.25 81.5 50.5 84.1 52.3 86.65 54.15 88.15 56.8" fill="#63bf08" fill-rule="evenodd" stroke="none"/>
    <path d="M85.75 45.45 L87.15 45.55 88.5 45.9 89.75 46.55 Q90.3 46.95 90.75 47.45 L90.75 47.55 90.75 47.65 90.75 47.7 90.7 47.8 90.65 47.9 90.6 48.0 90.45 48.1 Q89.1 48.0 87.75 47.2 86.3 46.35 84.75 46.55 81.85 46.9 79.65 48.65 L78.5 49.75 Q77.4 50.95 76.2 51.0 76.15 50.45 76.55 50.05 L78.4 48.15 Q79.3 47.15 80.65 46.6 82.05 46.05 83.5 45.8 L85.75 45.45" fill="#63bf08" fill-rule="evenodd" stroke="none"/>
    <path d="M105.0 44.7 L106.25 44.9 Q106.9 45.15 107.4 45.55 L108.45 46.45 Q109.0 46.95 108.9 47.65 L108.85 47.85 Q107.4 47.95 106.1 46.7 105.4 46.05 104.5 46.1 100.3 46.2 97.45 49.1 L96.05 50.95 Q94.85 52.95 94.1 55.0 L93.55 57.1 Q92.8 55.9 93.3 54.25 93.75 52.7 94.5 51.25 L95.6 49.65 Q96.75 48.2 98.25 47.0 100.9 44.9 104.45 44.7 L105.0 44.7" fill="#63bf08" fill-rule="evenodd" stroke="none"/>
    <path d="M111.25 45.75 Q114.25 47.45 116.55 50.0 118.9 52.55 120.3 55.7 121.7 58.9 121.9 62.4 122.05 66.0 119.65 68.65 L119.35 68.7 119.25 68.8 119.2 68.9 119.1 68.95 118.95 69.0 119.0 68.9 119.05 68.8 119.15 68.75 119.2 68.6 119.3 68.55 119.25 68.45 119.25 68.35 119.25 68.25 119.3 68.15 Q120.4 66.15 120.55 63.8 120.65 61.1 120.0 58.65 119.1 55.2 116.7 52.4 L111.15 46.0 Q110.9 45.75 111.25 45.75" fill="#63bf08" fill-rule="evenodd" stroke="none"/>
    <path d="M109.0 39.45 Q110.0 38.1 111.6 37.55 L112.7 37.55 113.8 37.7 114.75 37.9 115.8 38.15 116.0 38.4 Q115.7 38.9 115.0 38.8 112.6 38.45 110.6 39.4 110.05 39.65 109.8 40.15 L109.15 41.3 Q108.55 42.55 108.4 43.9 L108.0 44.85 107.95 44.85 107.65 44.85 107.55 44.75 Q107.4 44.6 107.4 44.3 L107.45 43.4 107.65 42.25 107.75 41.8 107.95 41.05 Q108.4 40.2 109.0 39.45" fill="#63bf08" fill-rule="evenodd" stroke="none"/>
    <path d="M124.5 46.85 Q125.4 48.25 125.8 49.8 L125.8 49.9 Q124.9 49.9 124.25 48.65 123.4 47.05 122.1 45.9 118.5 42.65 114.7 44.6 113.65 45.1 112.8 45.95 L112.1 46.3 111.85 46.2 111.7 46.15 111.6 46.05 111.55 45.95 111.6 45.6 Q111.7 45.05 112.15 44.6 L113.0 43.9 114.05 43.05 Q114.65 42.45 115.5 42.25 L116.3 42.05 Q117.9 42.15 119.4 42.8 120.9 43.5 122.3 44.5 123.65 45.45 124.5 46.85" fill="#63bf08" fill-rule="evenodd" stroke="none"/>
    <path d="M102.0 40.2 L102.15 40.3 102.3 40.4 102.35 40.5 102.35 40.6 102.25 40.65 102.0 40.65 101.7 40.45 101.55 40.3 101.55 40.2 101.6 40.15 101.75 40.1 101.8 40.1 102.0 40.2" fill="#63bf08" fill-rule="evenodd" stroke="none"/>
    <path d="M98.55 39.0 L100.95 39.85 Q102.2 40.3 103.3 41.15 104.35 42.0 104.7 43.35 105.05 44.65 104.35 45.75 L104.2 45.85 103.85 44.7 103.65 43.6 Q103.4 42.7 102.65 42.1 101.2 40.9 99.4 40.25 L98.3 39.75 98.25 39.65 98.25 39.45 98.25 39.25 98.25 39.2 98.3 39.1 98.4 39.05 98.55 39.0" fill="#63bf08" fill-rule="evenodd" stroke="none"/>
    <path d="M69.75 48.3 L69.9 48.0 70.1 47.95 70.45 47.85 71.55 47.8 71.7 47.75 73.4 48.3 Q74.25 48.6 74.9 49.15 L76.15 50.4 Q76.7 51.15 76.7 52.0 L76.65 52.1 Q75.9 52.55 75.55 51.65 L74.8 50.45 Q73.6 49.3 71.95 49.0 L69.8 48.4 69.75 48.3" fill="#63bf08" fill-rule="evenodd" stroke="none"/>
    <path d="M76.45 52.25 L73.7 54.95 Q72.4 56.3 71.5 57.95 70.6 59.7 70.1 61.6 69.65 63.5 69.65 65.5 L69.55 65.7 69.6 65.75 69.6 65.85 69.6 65.95 69.65 66.05 69.7 66.25 69.7 66.4 69.75 66.5 69.75 66.6 69.65 66.55 69.6 66.45 69.55 66.35 69.55 66.25 69.5 66.1 69.45 65.9 69.45 65.8 69.45 65.7 69.25 65.6 69.15 65.5 Q69.05 64.15 69.2 62.85 69.35 61.2 69.85 59.65 70.45 57.7 71.55 56.0 73.2 53.55 75.6 52.05 L75.8 51.95 75.9 51.95 76.15 52.0 76.3 52.05 76.4 52.15 76.45 52.25" fill="#63bf08" fill-rule="evenodd" stroke="none"/>
    <path d="M82.5 57.0 L82.5 57.15 82.4 57.25 82.3 57.35 82.25 57.4 82.15 57.45 82.0 57.45 81.75 57.4 80.8 56.4 79.65 55.25 Q78.65 54.4 77.35 54.0 75.6 53.5 75.95 52.55 L76.05 52.5 77.9 52.9 79.7 53.95 81.3 55.3 Q82.15 56.0 82.5 57.0" fill="#63bf08" fill-rule="evenodd" stroke="none"/>
    <path d="M100.6 48.15 L101.45 47.4 Q102.4 46.5 103.65 46.1 L105.7 45.55 106.5 45.6 106.7 45.7 106.9 45.9 107.0 46.1 106.95 46.25 106.85 46.35 106.8 46.45 106.7 46.55 106.65 46.6 Q104.65 46.8 102.85 47.7 L102.2 48.1 101.0 49.25 Q100.35 49.9 99.85 50.7 L99.25 51.35 99.2 51.4 99.1 51.35 99.05 51.25 99.0 51.05 99.0 50.8 99.0 50.7 99.0 50.55 99.15 50.45 99.25 50.35 99.3 50.2 99.3 50.1 99.3 50.0 99.35 49.9 99.35 49.75 100.15 48.75 100.6 48.15" fill="#63bf08" fill-rule="evenodd" stroke="none"/>
    <path d="M76.2 51.2 L76.35 51.25 76.5 51.4 76.6 51.6 74.75 53.25 73.15 54.45 71.5 56.1 69.9 57.7 69.75 57.8 69.35 57.75 69.2 57.7 69.1 57.6 69.0 57.45 Q69.2 56.55 69.8 55.85 L71.1 54.5 72.7 52.9 Q73.8 51.85 75.25 51.25 L75.85 51.1 76.05 51.15 76.2 51.2" fill="#63bf08" fill-rule="evenodd" stroke="none"/>
    <path d="M107.3 46.3 L107.2 46.2 107.1 46.1 107.1 45.95 107.05 45.85 107.45 44.7 108.15 43.6 Q108.75 42.65 109.6 42.0 110.85 41.0 112.35 41.05 L112.65 41.05 111.55 42.15 110.0 43.35 108.7 44.8 107.7 46.25 107.55 46.4 107.3 46.3" fill="#63bf08" fill-rule="evenodd" stroke="none"/>
    <path d="M121.55 48.45 Q121.3 48.95 120.85 48.6 L118.95 47.1 Q117.8 46.2 116.4 46.3 114.35 46.4 112.7 45.8 L112.65 45.65 112.65 45.55 112.8 45.35 113.2 45.15 114.2 44.9 114.6 44.8 Q115.6 44.65 116.6 44.8 117.65 44.95 118.55 45.45 L120.3 46.65 121.55 48.25 121.55 48.45" fill="#63bf08" fill-rule="evenodd" stroke="none"/>
    <path d="M99.3 42.2 L100.9 42.25 101.9 42.45 Q102.3 42.55 102.6 42.8 L102.85 43.1 102.85 43.2 Q102.75 43.85 102.15 43.75 L98.05 44.05 Q97.45 44.25 97.05 44.7 L96.6 44.65 96.5 44.6 96.4 44.45 96.35 44.35 96.35 44.25 96.55 43.9 97.25 43.25 Q97.65 42.75 98.2 42.5 L99.3 42.2" fill="#63bf08" fill-rule="evenodd" stroke="none"/>
    <path d="M32.7 30.85 L33.85 29.35 35.75 45.0 35.3 44.8 Q34.4 44.55 31.0 46.1 29.95 37.8 32.45 32.1 L32.7 30.85" fill="url(#gradient1)" fill-rule="evenodd" stroke="none"/>
  </g>
  <defs>
    <linearGradient gradientTransform="matrix(0.0194, -4.0E-4, 5.0E-4, 0.0245, 42.75, 35.55)" gradientUnits="userSpaceOnUse" id="gradient0" spreadMethod="pad" x1="-819.2" x2="819.2">
      <stop offset="0.23137254901960785" stop-color="#d91919"/>
      <stop offset="0.8941176470588236" stop-color="#8e0000"/>
    </linearGradient>
    <linearGradient gradientTransform="matrix(-0.009, 2.0E-4, -2.0E-4, -0.0081, 29.15, 40.85)" gradientUnits="userSpaceOnUse" id="gradient1" spreadMethod="pad" x1="-819.2" x2="819.2">
      <stop offset="0.23137254901960785" stop-color="#d91919"/>
      <stop offset="0.5215686274509804" stop-color="#8e0000"/>
      <stop offset="0.9764705882352941" stop-color="#d91919"/>
    </linearGradient>
  </defs>
</svg>
