<?xml version="1.0" encoding="UTF-8" standalone="no"?>
<svg xmlns:ffdec="https://www.free-decompiler.com/flash" xmlns:xlink="http://www.w3.org/1999/xlink" ffdec:objectType="shape" height="301.25px" width="401.55px" xmlns="http://www.w3.org/2000/svg">
  <g transform="matrix(1.0, 0.0, 0.0, 1.0, -125.35, -76.2)">
    <path d="M143.4 148.75 Q146.3 144.1 149.85 139.8 148.55 143.05 143.4 148.75 M333.0 375.7 Q343.35 375.7 350.85 377.4 338.75 377.7 326.75 376.75 L333.0 375.7 M525.15 191.1 Q525.15 190.45 525.85 188.45 526.9 194.55 526.9 200.45 525.15 194.3 525.15 191.1 M516.25 161.85 L514.95 167.65 Q512.9 175.3 512.9 186.65 512.9 202.45 519.75 218.95 L522.35 225.05 524.25 239.0 Q524.75 241.95 524.35 244.65 521.7 249.4 515.9 255.05 L507.1 263.4 Q502.1 268.25 499.85 271.7 497.5 275.25 495.5 280.8 L492.3 290.6 491.6 292.8 488.15 296.45 Q479.7 305.6 470.5 313.75 L451.75 323.55 Q429.95 334.7 425.0 340.2 L415.25 353.35 402.3 361.7 Q390.15 369.45 376.95 373.4 L374.7 372.75 Q373.35 372.3 366.25 368.85 354.5 363.25 333.0 363.25 326.85 363.25 318.25 365.4 L301.6 370.1 294.85 371.9 291.95 371.2 Q264.7 365.05 236.85 363.5 L218.6 361.4 211.5 354.5 Q206.45 349.55 203.5 348.35 196.05 345.5 183.95 345.3 L169.35 345.4 Q163.0 340.85 158.2 334.2 151.05 324.15 144.9 313.55 144.2 310.05 142.85 306.25 140.9 300.65 135.8 290.15 130.5 279.25 128.65 274.1 125.35 265.1 125.35 257.7 125.35 251.25 129.85 241.6 134.35 231.95 134.35 224.05 134.35 220.85 132.7 210.9 131.1 200.95 131.1 198.35 131.1 196.7 134.3 185.85 137.6 174.55 139.25 171.75 141.55 167.8 151.65 157.9 160.6 149.15 161.9 144.8 166.65 128.6 178.1 115.85 L182.2 113.65 Q193.4 107.55 201.75 106.5 217.15 104.65 224.1 102.6 232.15 100.15 236.4 95.5 L243.5 86.45 Q246.5 82.45 250.55 79.9 L255.8 76.55 Q256.8 76.05 258.35 76.25 265.8 77.25 278.55 76.45 290.05 78.8 300.9 85.3 325.15 99.95 353.15 102.2 L408.55 103.9 409.0 103.9 Q423.95 122.9 436.8 116.25 L464.95 116.25 472.2 118.5 Q493.0 130.15 507.9 149.15 512.65 155.2 516.25 161.85" fill="#e5cb99" fill-rule="evenodd" stroke="none"/>
  </g>
</svg>
