<?xml version="1.0" encoding="UTF-8" standalone="no"?>
<svg xmlns:ffdec="https://www.free-decompiler.com/flash" xmlns:xlink="http://www.w3.org/1999/xlink" ffdec:objectType="shape" height="124.3px" width="126.15px" xmlns="http://www.w3.org/2000/svg">
  <g transform="matrix(1.0, 0.0, 0.0, 1.0, -9.05, -11.6)">
    <path d="M132.75 93.25 Q133.75 96.0 131.7 98.55 120.5 111.9 108.55 113.95 96.45 115.95 92.1 120.0 87.85 124.1 78.6 121.3 69.3 118.45 63.15 118.9 L42.65 119.55 Q28.3 119.75 30.65 114.55 32.25 110.75 40.6 108.55 45.75 105.4 40.4 104.9 27.6 97.5 38.3 96.55 L56.35 94.65 69.25 92.75 112.65 84.75 Q124.9 82.1 119.6 91.35 131.75 90.55 132.75 93.25" fill="#e7ab5b" fill-rule="evenodd" stroke="none"/>
    <path d="M114.5 16.35 Q114.6 17.0 113.15 19.35 L110.9 22.35 110.8 22.45 Q108.35 24.9 105.15 24.9 L105.1 24.9 Q103.05 24.95 100.7 23.3 L100.5 23.25 Q99.15 22.35 98.45 22.2 97.6 22.4 97.05 23.5 L96.95 23.65 Q95.95 25.8 93.65 26.55 L93.65 29.3 119.1 35.95 119.45 36.15 119.55 36.55 119.45 37.0 Q111.25 46.85 110.35 53.7 L127.75 58.45 128.15 58.7 128.2 59.1 126.7 73.45 126.6 73.75 126.35 73.95 Q123.95 75.25 121.6 76.5 123.3 77.65 123.3 79.75 123.3 81.65 121.5 84.5 L131.45 84.1 Q133.5 84.5 134.4 85.5 135.4 86.55 135.15 88.25 134.2 93.75 132.1 96.4 L132.1 96.45 Q120.75 110.15 108.55 112.15 96.75 114.1 92.5 118.1 88.05 122.5 78.3 119.6 69.1 116.7 63.1 117.15 L42.55 117.8 Q35.15 117.95 32.75 116.9 30.35 115.85 28.95 114.35 27.6 112.85 28.5 109.4 29.4 105.95 38.85 102.35 33.3 99.45 32.9 97.5 32.45 96.05 34.15 95.15 35.35 94.35 38.2 93.95 L41.85 93.45 Q41.7 92.9 41.7 92.35 L34.7 89.0 Q33.55 88.8 33.0 88.35 32.25 87.7 32.45 86.75 32.55 85.3 35.15 82.9 L35.45 82.75 35.7 82.7 Q40.75 83.1 43.6 83.8 44.9 80.8 47.15 77.3 46.5 77.1 46.1 76.55 34.0 60.35 51.35 40.4 L51.35 40.3 Q51.7 39.95 52.25 39.8 52.7 39.55 53.35 39.8 L59.1 41.45 Q60.7 32.1 68.8 23.7 69.05 23.25 69.65 23.1 70.15 22.85 70.75 23.1 L70.7 23.1 86.15 27.2 86.15 16.45 Q86.15 15.7 86.7 15.1 87.3 14.5 88.1 14.5 L91.7 14.5 Q92.35 14.5 92.95 14.95 L93.2 15.15 Q93.85 15.55 94.45 15.55 95.35 15.55 96.05 15.05 L96.35 14.95 Q97.95 13.8 100.0 13.8 101.25 13.75 103.45 15.15 L103.75 15.3 105.7 16.55 Q106.55 16.75 108.85 15.6 110.75 14.7 112.8 11.6 112.1 15.55 112.15 15.9 L112.1 16.15 112.3 16.0 Q113.0 15.5 113.4 15.5 L114.15 15.6 Q114.45 15.8 114.5 16.35 M42.3 103.8 L42.35 103.6 Q42.25 103.3 40.85 103.1 L42.3 103.8 M56.65 85.1 Q60.4 83.45 64.2 82.05 L55.0 79.5 Q55.6 82.55 56.65 85.1" fill="#64350d" fill-rule="evenodd" stroke="none"/>
    <path d="M57.55 96.7 L50.15 100.65 46.25 90.95 Q49.45 86.7 57.55 85.15 L57.55 96.7" fill="#cd7531" fill-rule="evenodd" stroke="none"/>
    <path d="M119.35 86.3 Q131.5 85.45 132.5 88.2 133.5 91.05 131.4 93.55 120.25 107.1 108.25 109.15 96.15 111.15 91.9 115.3 87.6 119.4 78.35 116.6 69.0 113.75 62.9 114.2 L42.4 114.85 Q28.0 115.05 30.4 109.8 32.0 105.95 40.35 103.75 45.45 100.55 40.1 100.0 29.8 97.55 40.4 94.25 49.05 91.5 58.15 89.75 L68.95 87.7 112.35 79.65 Q124.6 76.95 119.35 86.3" fill="#46a5db" fill-rule="evenodd" stroke="none"/>
    <path d="M46.6 91.55 Q68.95 81.55 92.05 75.1 L111.75 80.1 66.35 96.5 46.6 91.55" fill="#cd7531" fill-rule="evenodd" stroke="none"/>
    <path d="M57.55 97.2 L50.15 101.15 46.25 91.45 Q49.45 87.2 57.55 85.65 L57.55 97.2" fill="#723505" fill-rule="evenodd" stroke="none"/>
    <path d="M111.75 80.75 L66.35 97.15 46.6 92.2 Q68.95 82.2 92.05 75.75 L105.65 80.25 111.75 80.75" fill="#723505" fill-rule="evenodd" stroke="none"/>
    <path d="M51.8 93.7 Q63.2 86.95 92.65 78.15 L110.1 81.6 69.85 98.75 51.8 93.7" fill="#4d2101" fill-rule="evenodd" stroke="none"/>
    <path d="M107.65 70.5 L89.9 78.35 94.55 62.1 109.3 54.85 107.65 70.5" fill="#723505" fill-rule="evenodd" stroke="none"/>
    <path d="M126.0 60.3 L111.65 67.4 95.45 62.7 109.8 55.6 126.0 60.3" fill="#93501c" fill-rule="evenodd" stroke="none"/>
    <path d="M105.5 82.8 L92.6 78.25 99.4 62.05 110.4 65.9 105.5 82.8" fill="#7b3f11" fill-rule="evenodd" stroke="none"/>
    <path d="M95.45 77.15 L110.55 81.7 70.3 98.85 52.25 93.8 Q63.65 87.05 93.1 78.25 L95.45 77.15" fill="#93501c" fill-rule="evenodd" stroke="none"/>
    <path d="M112.2 76.95 L110.15 92.1 Q89.5 106.1 64.75 107.35 L64.1 94.85 Q86.05 91.5 107.15 79.95 L112.2 76.95" fill="#cd7531" fill-rule="evenodd" stroke="none"/>
    <path d="M69.75 90.35 L69.75 103.8 63.1 107.5 Q50.25 104.2 46.45 94.35 L45.85 89.6 Q57.75 92.35 69.1 89.8 L69.75 90.35" fill="#cd7531" fill-rule="evenodd" stroke="none"/>
    <path d="M110.15 92.9 Q89.75 106.7 67.8 109.5 L64.75 109.55 64.1 95.65 Q91.9 90.45 112.2 77.75 L110.15 92.9" fill="#723505" fill-rule="evenodd" stroke="none"/>
    <path d="M45.85 90.35 Q58.15 93.15 69.8 90.35 L69.8 104.6 64.95 109.65 Q47.25 109.35 46.45 95.15 L45.85 90.35" fill="#723505" fill-rule="evenodd" stroke="none"/>
    <path d="M35.35 87.7 Q39.55 90.75 44.9 92.25 46.0 92.6 47.0 93.1 48.6 93.95 49.3 93.1 L49.45 93.2 48.05 94.05 35.15 88.6 35.35 87.7 M49.9 92.5 Q48.45 91.6 46.75 90.95 L35.75 86.75 35.6 86.75 36.1 84.6 49.75 90.05 Q50.35 91.5 49.9 92.5" fill="#723505" fill-rule="evenodd" stroke="none"/>
    <path d="M35.35 87.7 L35.6 86.75 35.75 86.75 46.75 90.95 Q48.45 91.6 49.9 92.5 L49.45 93.2 49.3 93.1 Q48.6 93.95 47.0 93.1 46.0 92.6 44.9 92.25 39.55 90.75 35.35 87.7" fill="#642f06" fill-rule="evenodd" stroke="none"/>
    <path d="M37.2 85.45 Q37.35 86.25 37.0 87.15 L36.15 88.45 Q35.6 89.0 35.1 88.8 34.6 88.65 34.5 87.85 34.4 87.15 34.7 86.3 35.05 85.4 35.55 84.85 36.15 84.45 36.65 84.6 37.15 84.8 37.2 85.45" fill="#9f541a" fill-rule="evenodd" stroke="none"/>
    <path d="M82.9 93.35 L82.95 94.3 83.2 97.5 Q81.35 98.5 79.55 98.95 L79.55 94.35 Q81.35 94.3 82.9 93.35" fill="#461e00" fill-rule="evenodd" stroke="none"/>
    <path d="M79.55 98.95 Q81.35 98.5 83.2 97.5 L82.95 94.3 82.9 93.35 83.2 93.15 83.45 92.9 83.45 97.7 Q81.6 99.0 79.55 99.2 L79.55 98.95" fill="#cd7531" fill-rule="evenodd" stroke="none"/>
    <path d="M111.05 86.9 L111.15 87.05 111.05 87.15 Q94.5 98.15 73.85 102.65 54.65 105.25 46.9 97.6 L46.9 97.45 46.9 97.3 47.05 97.3 47.2 97.3 Q54.8 104.8 73.75 102.3 94.3 97.85 110.85 86.85 L111.0 86.85 111.05 86.9" fill="#461e00" fill-rule="evenodd" stroke="none"/>
    <path d="M90.7 90.45 L90.75 91.4 91.0 94.6 Q89.15 95.6 87.35 96.05 L87.35 91.45 Q89.15 91.4 90.7 90.45" fill="#461e00" fill-rule="evenodd" stroke="none"/>
    <path d="M90.7 90.45 L91.0 90.25 91.25 90.0 91.25 94.8 Q89.4 96.1 87.35 96.3 L87.35 96.05 Q89.15 95.6 91.0 94.6 L90.75 91.4 90.7 90.45" fill="#cd7531" fill-rule="evenodd" stroke="none"/>
    <path d="M98.0 87.7 L98.05 88.65 98.3 91.85 Q96.45 92.85 94.65 93.3 L94.65 88.7 Q96.45 88.65 98.0 87.7" fill="#461e00" fill-rule="evenodd" stroke="none"/>
    <path d="M94.65 93.3 Q96.45 92.85 98.3 91.85 L98.05 88.65 98.0 87.7 98.3 87.5 98.55 87.25 98.55 92.05 Q96.7 93.35 94.65 93.55 L94.65 93.3" fill="#cd7531" fill-rule="evenodd" stroke="none"/>
    <path d="M111.4 82.55 L111.45 82.7 111.4 82.8 Q94.0 93.65 73.35 98.15 58.45 100.0 47.05 95.7 L47.0 95.55 47.0 95.4 47.05 95.35 47.2 95.35 Q58.45 99.55 73.3 97.8 93.85 93.35 111.15 82.5 L111.3 82.5 111.4 82.55" fill="#461e00" fill-rule="evenodd" stroke="none"/>
    <path d="M110.55 90.35 L110.55 90.8 Q94.15 101.5 73.85 105.95 55.15 108.5 47.15 99.85 L47.15 99.3 Q54.95 108.1 73.75 105.6 94.15 101.2 110.55 90.35" fill="#461e00" fill-rule="evenodd" stroke="none"/>
    <path d="M125.75 59.75 L124.35 73.65 106.35 83.25 111.35 66.25 125.75 59.75" fill="#723505" fill-rule="evenodd" stroke="none"/>
    <path d="M122.15 64.25 L122.15 67.05 113.75 70.8 113.75 68.0 122.15 64.25" fill="#461e00" fill-rule="evenodd" stroke="none"/>
    <path d="M92.25 16.95 L92.25 82.15 88.65 82.15 88.65 16.95 92.25 16.95" fill="#8c4b18" fill-rule="evenodd" stroke="none"/>
    <path d="M89.55 17.2 L89.55 82.4 89.0 82.4 89.0 17.2 89.55 17.2" fill="#af7446" fill-rule="evenodd" stroke="none"/>
    <path d="M92.15 17.05 L92.15 82.25 91.25 82.25 91.25 17.05 92.15 17.05" fill="#723a0e" fill-rule="evenodd" stroke="none"/>
    <path d="M110.45 76.35 L66.55 64.5 Q54.0 43.0 70.7 25.45 L115.95 37.8 Q100.75 57.0 110.45 76.35" fill="url(#gradient0)" fill-rule="evenodd" stroke="none"/>
    <path d="M69.1 63.95 Q63.05 48.65 76.0 26.65 L81.55 28.4 Q68.35 48.9 75.7 66.05 L69.1 63.95" fill="url(#gradient1)" fill-rule="evenodd" stroke="none"/>
    <path d="M102.15 34.1 Q89.85 55.7 97.2 73.3 L90.6 71.2 Q84.55 55.45 96.5 32.5 L102.15 34.1" fill="url(#gradient2)" fill-rule="evenodd" stroke="none"/>
    <path d="M71.7 35.45 L71.7 90.5 68.1 90.5 68.1 35.45 71.7 35.45" fill="#8c4b18" fill-rule="evenodd" stroke="none"/>
    <path d="M69.15 35.8 L69.15 90.85 68.6 90.85 68.6 35.8 69.15 35.8" fill="#af7446" fill-rule="evenodd" stroke="none"/>
    <path d="M81.25 38.7 Q83.15 37.3 84.75 37.3 87.3 37.3 89.05 39.15 L90.8 41.5 89.65 40.4 Q89.15 39.9 88.05 39.9 L87.3 39.9 86.7 40.55 Q88.75 40.9 89.95 44.95 89.35 44.75 87.3 43.3 85.6 42.15 84.55 42.15 83.85 42.15 82.25 43.35 80.65 44.5 79.75 44.5 78.2 44.5 76.95 43.65 75.75 42.75 74.15 42.75 73.0 42.75 71.7 43.5 L71.3 43.75 71.3 35.2 Q74.0 35.5 74.9 37.55 76.15 40.0 78.05 40.0 79.25 40.0 81.25 38.7" fill="#c40303" fill-rule="evenodd" stroke="none"/>
    <path d="M71.65 35.7 L71.65 90.75 70.75 90.75 70.75 35.7 71.65 35.7" fill="#723a0e" fill-rule="evenodd" stroke="none"/>
    <path d="M48.15 76.05 Q37.1 60.9 53.25 42.2 L92.1 53.05 Q78.95 70.45 88.05 87.15 L48.15 76.05" fill="url(#gradient3)" fill-rule="evenodd" stroke="none"/>
    <path d="M102.05 22.05 Q103.95 23.45 105.55 23.45 108.1 23.45 109.85 21.6 L111.6 19.25 110.45 20.35 Q109.95 20.85 108.85 20.85 L108.1 20.85 107.5 20.2 Q109.55 19.85 110.75 15.8 110.15 16.0 108.1 17.45 106.4 18.6 105.35 18.6 104.65 18.6 103.05 17.4 101.45 16.25 100.55 16.25 99.0 16.25 97.75 17.1 96.55 18.0 94.95 18.0 93.8 18.0 92.5 17.25 L92.1 17.0 92.1 25.55 Q94.8 25.25 95.7 23.2 96.95 20.75 98.85 20.75 100.05 20.75 102.05 22.05" fill="#c40303" fill-rule="evenodd" stroke="none"/>
    <path d="M58.55 78.95 L51.95 77.15 Q45.9 63.45 58.85 43.8 L64.4 45.3 Q51.2 63.65 58.55 78.95" fill="url(#gradient4)" fill-rule="evenodd" stroke="none"/>
    <path d="M80.25 49.75 Q67.95 68.55 75.3 83.85 L68.7 82.05 Q62.65 68.35 74.6 48.4 L80.25 49.75" fill="url(#gradient5)" fill-rule="evenodd" stroke="none"/>
    <path d="M68.55 35.9 L67.95 35.5 Q67.95 35.3 68.55 35.15 L69.9 35.0 71.2 35.15 Q71.8 35.3 71.8 35.5 L71.2 35.9 69.9 36.05 68.55 35.9" fill="#af7446" fill-rule="evenodd" stroke="none"/>
    <path d="M116.05 92.75 L120.2 93.25 Q124.4 94.95 107.55 97.7 110.15 98.45 110.4 98.85 L110.3 99.0 108.65 99.6 Q103.6 99.45 102.05 101.85 L100.9 104.15 Q100.2 105.5 99.05 106.1 94.1 106.1 90.1 107.35 89.0 107.7 86.45 109.2 84.55 110.25 83.1 109.95 L81.0 109.8 76.15 110.0 Q76.5 111.7 74.15 112.25 73.4 112.25 73.3 111.7 73.2 111.1 72.45 111.1 71.7 111.1 70.4 111.85 69.1 112.6 68.35 112.6 L64.6 112.1 Q62.3 111.95 59.7 113.85 L59.25 113.75 Q59.0 113.7 59.0 112.75 59.0 111.85 57.95 111.85 L55.7 112.0 48.9 112.6 Q47.85 113.25 45.9 113.0 43.45 112.75 46.15 109.8 41.95 109.55 42.85 108.1 44.1 106.1 47.55 106.1 46.45 105.3 46.7 105.2 L46.4 104.45 Q46.05 103.5 46.4 102.6 46.6 101.9 47.3 101.75 49.35 101.85 52.8 106.75 56.3 109.8 64.75 109.8 69.1 109.8 71.85 108.85 74.6 107.95 76.35 107.95 82.5 107.95 94.65 102.7 107.55 97.1 111.85 91.65 122.65 87.75 116.05 92.75" fill="#2f82b1" fill-rule="evenodd" stroke="none"/>
    <path d="M44.35 95.0 Q42.05 87.85 52.05 74.2 53.3 93.05 65.7 97.65 49.15 100.05 44.35 95.0" fill="url(#gradient6)" fill-rule="evenodd" stroke="none"/>
    <path d="M115.05 91.75 L119.2 92.25 Q123.4 93.95 106.55 96.7 109.15 97.45 109.4 97.85 L109.3 98.0 107.65 98.6 Q102.6 98.45 101.05 100.85 L99.9 103.15 Q99.2 104.5 98.05 105.1 93.1 105.1 89.1 106.35 88.0 106.7 85.45 108.2 83.55 109.25 82.1 108.95 L80.0 108.8 75.15 109.0 Q75.5 110.7 73.15 111.25 72.4 111.25 72.3 110.7 72.2 110.1 71.45 110.1 70.7 110.1 69.4 110.85 68.1 111.6 67.35 111.6 L63.6 111.1 Q61.3 110.95 58.7 112.85 L58.25 112.75 Q58.0 112.7 58.0 111.75 58.0 110.85 56.95 110.85 L54.7 111.0 47.9 111.6 Q46.85 112.25 44.9 112.0 42.45 111.75 45.15 108.8 40.95 108.55 41.85 107.1 43.1 105.1 46.55 105.1 45.45 104.3 45.7 104.2 L45.4 103.45 Q45.05 102.5 45.4 101.6 45.6 100.9 46.3 100.75 48.35 100.85 51.8 105.75 55.3 108.8 63.75 108.8 68.1 108.8 70.85 107.85 73.6 106.95 75.35 106.95 81.5 106.95 93.65 101.7 105.7 96.5 110.3 91.35 111.4 85.3 111.25 82.4 121.15 87.15 115.05 91.75" fill="#ffffff" fill-rule="evenodd" stroke="none"/>
    <path d="M55.6 127.35 L54.3 129.05 20.95 126.85 Q20.05 126.8 19.4 126.15 18.7 125.5 18.55 124.65 L17.05 113.85 22.2 113.1 23.45 121.75 54.65 123.85 55.6 127.35" fill="#64350d" fill-rule="evenodd" stroke="none"/>
    <path d="M45.15 134.45 L43.9 135.9 13.5 133.6 Q12.6 133.55 11.95 132.9 11.25 132.3 11.1 131.4 L9.05 117.8 14.2 117.0 16.0 128.6 44.25 130.7 45.15 134.45" fill="#64350d" fill-rule="evenodd" stroke="none"/>
    <path d="M55.7 122.4 L55.35 127.6 22.0 125.4 Q21.1 125.35 20.45 124.7 19.75 124.05 19.6 123.2 L18.1 112.4 23.25 111.65 24.5 120.3 55.7 122.4" fill="#ffcc00" fill-rule="evenodd" stroke="none"/>
    <path d="M45.3 129.25 L44.95 134.45 14.55 132.15 Q13.65 132.1 13.0 131.45 12.3 130.85 12.15 129.95 L10.1 116.35 15.25 115.55 17.05 127.15 45.3 129.25" fill="#ffcc00" fill-rule="evenodd" stroke="none"/>
    <path d="M14.55 132.15 Q13.65 132.1 13.0 131.45 12.3 130.85 12.15 129.95 L11.7 126.8 16.55 123.7 17.05 127.15 22.75 127.55 Q17.0 131.25 15.0 132.2 L14.55 132.15 M24.35 119.1 L24.5 120.3 33.35 120.95 34.0 121.15 33.35 121.0 Q26.85 124.0 24.45 125.6 L22.0 125.4 Q21.1 125.35 20.45 124.7 19.75 124.05 19.6 123.2 L19.4 121.65 Q19.95 121.25 24.35 119.1 M24.25 118.45 Q23.3 118.5 24.15 117.8 L24.25 118.45" fill="#ffff33" fill-rule="evenodd" stroke="none"/>
    <path d="M55.45 126.45 L55.35 127.6 22.0 125.4 Q21.1 125.35 20.45 124.7 19.75 124.05 19.6 123.2 L18.1 112.4 19.35 112.25 20.7 122.1 Q20.85 122.95 21.55 123.6 22.2 124.25 23.1 124.3 L55.45 126.45 M45.05 133.3 L44.95 134.45 14.55 132.15 Q13.65 132.1 13.0 131.45 12.3 130.85 12.15 129.95 L10.1 116.35 11.35 116.15 13.25 128.85 Q13.4 129.75 14.1 130.35 14.75 131.0 15.65 131.05 L45.05 133.3" fill="#ffff33" fill-rule="evenodd" stroke="none"/>
  </g>
  <defs>
    <linearGradient gradientTransform="matrix(-0.0061, 0.0269, -0.033, -0.0075, 90.1, 51.2)" gradientUnits="userSpaceOnUse" id="gradient0" spreadMethod="pad" x1="-819.2" x2="819.2">
      <stop offset="0.0" stop-color="#dbb366"/>
      <stop offset="0.11764705882352941" stop-color="#e0b96f"/>
      <stop offset="0.2196078431372549" stop-color="#efce90"/>
      <stop offset="0.7215686274509804" stop-color="#c69b4a"/>
      <stop offset="1.0" stop-color="#e5b65e"/>
    </linearGradient>
    <linearGradient gradientTransform="matrix(-0.0044, 0.0222, -0.0211, -0.0052, 75.15, 46.6)" gradientUnits="userSpaceOnUse" id="gradient1" spreadMethod="pad" x1="-819.2" x2="819.2">
      <stop offset="0.00392156862745098" stop-color="#a92b2b"/>
      <stop offset="0.1803921568627451" stop-color="#9f3838"/>
      <stop offset="0.6235294117647059" stop-color="#8e2828"/>
      <stop offset="1.0" stop-color="#9c1e1e"/>
    </linearGradient>
    <linearGradient gradientTransform="matrix(-0.0044, 0.0229, -0.0211, -0.0053, 96.65, 53.35)" gradientUnits="userSpaceOnUse" id="gradient2" spreadMethod="pad" x1="-819.2" x2="819.2">
      <stop offset="0.00392156862745098" stop-color="#a92b2b"/>
      <stop offset="0.1803921568627451" stop-color="#c14343"/>
      <stop offset="0.6196078431372549" stop-color="#a33030"/>
      <stop offset="1.0" stop-color="#9c1e1e"/>
    </linearGradient>
    <linearGradient gradientTransform="matrix(-0.0066, 0.0215, -0.0262, -0.008, 66.55, 64.65)" gradientUnits="userSpaceOnUse" id="gradient3" spreadMethod="pad" x1="-819.2" x2="819.2">
      <stop offset="0.0" stop-color="#dbb366"/>
      <stop offset="0.22745098039215686" stop-color="#ffedcd"/>
      <stop offset="0.6470588235294118" stop-color="#f0d094"/>
      <stop offset="0.7607843137254902" stop-color="#debb7a"/>
      <stop offset="1.0" stop-color="#e5b65e"/>
    </linearGradient>
    <linearGradient gradientTransform="matrix(-0.0044, 0.0199, -0.0211, -0.0046, 58.0, 61.6)" gradientUnits="userSpaceOnUse" id="gradient4" spreadMethod="pad" x1="-819.2" x2="819.2">
      <stop offset="0.00392156862745098" stop-color="#a92b2b"/>
      <stop offset="0.1803921568627451" stop-color="#c14343"/>
      <stop offset="0.6823529411764706" stop-color="#c94b4b"/>
      <stop offset="1.0" stop-color="#9c1e1e"/>
    </linearGradient>
    <linearGradient gradientTransform="matrix(-0.0044, 0.0199, -0.0211, -0.0046, 74.75, 66.5)" gradientUnits="userSpaceOnUse" id="gradient5" spreadMethod="pad" x1="-819.2" x2="819.2">
      <stop offset="0.00392156862745098" stop-color="#a92b2b"/>
      <stop offset="0.1803921568627451" stop-color="#c14343"/>
      <stop offset="0.6823529411764706" stop-color="#c94b4b"/>
      <stop offset="1.0" stop-color="#9c1e1e"/>
    </linearGradient>
    <linearGradient gradientTransform="matrix(-0.0025, 0.0143, -0.0107, -0.0019, 54.15, 87.5)" gradientUnits="userSpaceOnUse" id="gradient6" spreadMethod="pad" x1="-819.2" x2="819.2">
      <stop offset="0.0" stop-color="#e8bd6b"/>
      <stop offset="0.2196078431372549" stop-color="#fffcf7"/>
      <stop offset="1.0" stop-color="#e5b65e"/>
    </linearGradient>
  </defs>
</svg>
