<?xml version="1.0" encoding="UTF-8" standalone="no"?>
<svg xmlns:ffdec="https://www.free-decompiler.com/flash" xmlns:xlink="http://www.w3.org/1999/xlink" ffdec:objectType="shape" height="89.95px" width="86.1px" xmlns="http://www.w3.org/2000/svg">
  <g transform="matrix(1.0, 0.0, 0.0, 1.0, -22.75, -38.45)">
    <path d="M56.8 49.15 L55.5 49.0 Q54.95 48.85 54.95 48.65 54.95 48.4 55.5 48.25 L56.8 48.1 58.05 48.25 Q58.6 48.4 58.6 48.65 L58.05 49.0 56.8 49.15" fill="#af7446" fill-rule="evenodd" stroke="none"/>
    <path d="M104.75 94.55 Q108.3 102.55 108.85 110.2 L108.65 111.05 108.0 111.65 107.1 111.8 102.35 111.05 Q83.1 133.45 49.05 124.8 L48.15 124.2 Q47.85 123.7 47.95 123.1 48.0 122.5 48.5 122.15 L49.55 121.85 Q75.6 124.2 91.6 109.25 L89.25 108.9 88.3 108.3 Q87.9 107.75 88.05 107.15 88.1 106.55 88.65 106.2 96.1 100.9 102.25 94.15 102.6 93.75 103.1 93.7 L104.05 93.85 104.75 94.55" fill="#64350d" fill-rule="evenodd" stroke="none"/>
    <path d="M60.7 41.1 Q55.35 49.15 53.4 55.8 L52.9 56.55 52.05 56.85 51.15 56.65 46.35 53.6 Q28.2 66.55 27.1 92.7 L26.7 93.7 Q26.3 94.1 25.75 94.15 25.15 94.2 24.7 93.85 24.25 93.5 24.15 92.95 18.3 64.25 36.65 47.5 L34.6 46.2 Q34.1 45.85 33.95 45.3 33.8 44.7 34.1 44.2 34.35 43.65 34.95 43.5 46.65 39.65 59.5 38.45 L60.6 38.75 Q61.05 39.1 61.15 39.7 L60.9 40.8 60.7 41.1" fill="#64350d" fill-rule="evenodd" stroke="none"/>
    <path d="M42.85 125.2 L42.9 125.7 43.05 127.5 41.05 128.25 41.05 125.75 42.85 125.2" fill="#461e00" fill-rule="evenodd" stroke="none"/>
    <path d="M41.05 128.25 L43.05 127.5 42.9 125.7 42.85 125.2 43.05 125.1 43.15 124.95 43.15 127.6 Q42.15 128.3 41.05 128.4 L41.05 128.25" fill="#cd7531" fill-rule="evenodd" stroke="none"/>
    <path d="M27.55 96.9 L26.8 96.85 26.5 96.6 26.8 96.4 27.55 96.3 28.25 96.4 28.6 96.6 28.25 96.85 27.55 96.9" fill="#af7446" fill-rule="evenodd" stroke="none"/>
    <path d="M40.35 46.3 L48.8 50.2 Q26.8 63.4 25.6 92.65 19.55 62.85 40.35 46.3" fill="#ffcc00" fill-rule="evenodd" stroke="none"/>
    <path d="M96.75 106.05 L98.85 106.35 104.3 106.15 Q85.3 132.45 49.4 123.35 79.7 126.05 96.75 106.05" fill="#ffcc00" fill-rule="evenodd" stroke="none"/>
    <path d="M59.45 40.25 Q53.95 48.55 51.95 55.35 L35.4 44.9 Q46.95 41.15 59.65 39.95 L59.45 40.25" fill="#ffcc00" fill-rule="evenodd" stroke="none"/>
  </g>
</svg>
