<?xml version="1.0" encoding="UTF-8" standalone="no"?>
<svg xmlns:ffdec="https://www.free-decompiler.com/flash" xmlns:xlink="http://www.w3.org/1999/xlink" ffdec:objectType="shape" height="54.65px" width="51.85px" xmlns="http://www.w3.org/2000/svg">
  <g transform="matrix(1.0, 0.0, 0.0, 1.0, 0.0, 0.0)">
    <path d="M42.85 45.45 Q31.5 53.05 19.25 54.55 L17.65 54.6 17.6 54.65 Q7.75 54.5 7.35 46.7 L7.0 44.05 Q13.85 45.6 20.35 44.05 L20.35 46.35 Q33.85 43.4 44.0 37.15 L42.85 45.45" fill="#eebb78" fill-rule="evenodd" stroke="none"/>
    <path d="M42.85 44.7 Q31.5 52.3 19.25 53.8 L17.65 53.85 17.6 53.9 Q7.75 53.75 7.35 45.95 L7.0 43.3 Q13.85 44.85 20.35 43.3 L20.35 45.6 Q33.85 42.65 44.0 36.4 L42.85 44.7" fill="#4f2602" fill-rule="evenodd" stroke="none"/>
    <path d="M11.35 33.25 Q12.0 42.95 18.25 45.35 L18.7 45.75 18.8 46.25 18.6 46.75 18.1 47.0 Q8.45 48.4 5.7 45.3 L5.5 44.95 Q4.0 40.75 9.85 32.8 L10.25 32.5 10.75 32.5 11.2 32.8 11.35 33.25" fill="#64350d" fill-rule="evenodd" stroke="none"/>
    <path d="M9.35 42.75 L8.55 44.85 1.05 41.25 Q-1.2 40.95 1.45 38.5 L7.9 40.8 10.3 40.6 10.4 40.95 Q21.75 36.0 33.5 32.75 L40.95 35.15 44.3 35.45 19.4 44.45 10.25 42.15 10.1 42.3 9.35 42.75" fill="#64350d" fill-rule="evenodd" stroke="none"/>
    <path d="M32.2 1.0 L32.7 1.2 32.75 1.25 33.7 1.55 Q34.35 1.55 34.8 1.2 L34.85 1.2 Q35.7 0.6 36.75 0.6 37.4 0.55 38.55 1.35 L38.6 1.35 39.75 2.05 Q40.25 2.3 41.75 1.55 43.1 0.9 43.35 0.0 L43.05 1.25 42.75 2.2 42.85 2.55 43.7 1.75 44.35 1.65 43.7 3.1 42.4 4.75 Q41.2 5.95 39.55 5.95 38.5 6.0 37.2 5.1 36.35 4.55 35.85 4.5 35.2 4.55 34.8 5.4 L34.8 5.45 Q34.25 6.65 32.9 7.0 L32.9 9.0 47.1 12.75 Q42.3 18.6 42.0 22.55 39.85 27.9 42.85 34.0 L42.9 34.5 42.55 34.95 42.05 35.0 32.9 32.55 32.9 37.45 32.7 37.95 32.2 38.2 30.25 38.2 Q29.95 38.2 29.75 37.95 L29.65 37.85 30.6 39.85 30.6 40.4 30.3 40.85 29.75 40.9 7.9 34.85 7.5 34.55 Q1.05 25.85 10.3 15.1 L10.7 14.85 11.1 14.85 14.65 15.85 Q15.4 10.65 19.9 5.9 20.0 5.7 20.2 5.7 L20.6 5.7 29.5 8.1 29.5 1.7 29.75 1.2 30.25 1.0 32.2 1.0 M29.5 37.45 L29.5 31.6 28.7 31.4 Q28.4 34.5 29.5 37.55 L29.5 37.45" fill="#64350d" fill-rule="evenodd" stroke="none"/>
    <path d="M13.45 39.2 L13.45 45.55 9.4 47.75 7.25 42.4 Q9.0 40.1 13.45 39.2" fill="#cd7531" fill-rule="evenodd" stroke="none"/>
    <path d="M7.45 42.8 Q19.7 37.35 32.35 33.9 L43.15 36.6 18.25 45.6 7.45 42.8" fill="#cd7531" fill-rule="evenodd" stroke="none"/>
    <path d="M13.45 39.5 L13.45 45.85 9.4 48.05 7.25 42.7 Q9.0 40.4 13.45 39.5" fill="#723505" fill-rule="evenodd" stroke="none"/>
    <path d="M43.15 36.85 L18.25 45.85 7.45 43.05 Q19.7 37.6 32.35 34.15 L39.8 36.55 43.15 36.85" fill="#723505" fill-rule="evenodd" stroke="none"/>
    <path d="M10.3 43.9 Q16.55 40.25 32.7 35.4 L42.25 37.3 20.2 46.7 10.3 43.9" fill="#4d2101" fill-rule="evenodd" stroke="none"/>
    <path d="M51.05 33.0 L41.2 38.3 43.8 29.45 35.2 26.95 40.9 22.1 51.85 25.1 51.05 33.0" fill="#64350d" fill-rule="evenodd" stroke="none"/>
    <path d="M41.8 22.65 L40.9 31.25 31.15 35.55 33.7 26.65 41.8 22.65" fill="#723505" fill-rule="evenodd" stroke="none"/>
    <path d="M51.05 25.65 L43.15 29.5 34.25 26.9 42.15 23.05 51.05 25.65" fill="#93501c" fill-rule="evenodd" stroke="none"/>
    <path d="M42.4 28.75 L39.75 38.05 32.65 35.55 36.35 26.65 42.4 28.75" fill="#7b3f11" fill-rule="evenodd" stroke="none"/>
    <path d="M34.25 34.95 L42.5 37.45 20.45 46.85 10.55 44.05 Q16.8 40.4 32.95 35.55 L34.25 34.95" fill="#93501c" fill-rule="evenodd" stroke="none"/>
    <path d="M43.4 34.85 L42.3 43.15 Q30.95 50.8 17.35 51.5 L17.05 44.65 Q29.05 42.8 40.65 36.5 L43.4 34.85" fill="#cd7531" fill-rule="evenodd" stroke="none"/>
    <path d="M20.15 49.55 L16.5 51.55 Q9.45 49.75 7.35 44.35 L7.0 41.75 Q13.55 43.25 19.75 41.9 L20.15 42.2 20.15 49.55" fill="#cd7531" fill-rule="evenodd" stroke="none"/>
    <path d="M42.3 43.55 Q31.1 51.15 19.05 52.65 L17.35 52.7 17.05 45.05 Q32.25 42.2 43.4 35.25 L42.3 43.55" fill="#723505" fill-rule="evenodd" stroke="none"/>
    <path d="M20.15 42.15 L20.15 49.95 17.45 52.75 Q7.75 52.6 7.35 44.8 L7.0 42.15 Q13.75 43.7 20.15 42.15" fill="#723505" fill-rule="evenodd" stroke="none"/>
    <path d="M9.25 43.35 Q8.45 42.85 7.5 42.5 L1.5 40.2 1.4 40.2 1.7 39.05 9.15 42.0 Q9.5 42.8 9.25 43.35 M1.25 40.7 Q3.6 42.4 6.5 43.25 7.1 43.4 7.65 43.7 8.55 44.15 8.9 43.7 L9.0 43.75 8.25 44.2 1.15 41.2 1.25 40.7" fill="#723505" fill-rule="evenodd" stroke="none"/>
    <path d="M1.4 40.2 L1.5 40.2 7.5 42.5 Q8.45 42.85 9.25 43.35 L9.0 43.75 8.9 43.7 Q8.55 44.15 7.65 43.7 7.1 43.4 6.5 43.25 3.6 42.4 1.25 40.7 L1.4 40.2" fill="#642f06" fill-rule="evenodd" stroke="none"/>
    <path d="M1.3 38.6 Q1.55 38.7 1.6 39.1 L1.5 40.0 1.0 40.7 Q0.7 41.0 0.45 40.9 0.2 40.8 0.1 40.4 L0.2 39.55 0.7 38.8 Q1.05 38.5 1.3 38.6" fill="#9f541a" fill-rule="evenodd" stroke="none"/>
    <path d="M27.3 43.8 L27.35 44.3 27.5 46.1 25.5 46.85 25.5 44.35 Q26.5 44.3 27.3 43.8" fill="#461e00" fill-rule="evenodd" stroke="none"/>
    <path d="M25.5 46.85 L27.5 46.1 27.35 44.3 27.3 43.8 27.5 43.7 27.6 43.55 27.6 46.2 Q26.6 46.9 25.5 47.0 L25.5 46.85" fill="#cd7531" fill-rule="evenodd" stroke="none"/>
    <path d="M42.75 40.25 L42.8 40.3 42.8 40.4 Q33.7 46.45 22.35 48.95 11.85 50.35 7.6 46.15 L7.6 46.1 7.6 46.0 7.7 46.0 7.75 46.0 Q11.9 50.1 22.3 48.7 33.6 46.3 42.65 40.25 L42.75 40.25" fill="#461e00" fill-rule="evenodd" stroke="none"/>
    <path d="M31.65 42.2 L31.7 42.7 31.85 44.5 29.85 45.25 29.85 42.75 Q30.85 42.7 31.65 42.2" fill="#461e00" fill-rule="evenodd" stroke="none"/>
    <path d="M31.65 42.2 L31.85 42.1 31.95 41.95 31.95 44.6 Q30.95 45.3 29.85 45.4 L29.85 45.25 31.85 44.5 31.7 42.7 31.65 42.2" fill="#cd7531" fill-rule="evenodd" stroke="none"/>
    <path d="M42.9 37.85 L42.95 37.9 43.0 38.0 42.95 38.05 Q33.45 44.0 22.1 46.45 13.95 47.45 7.7 45.1 L7.65 45.05 7.65 44.95 7.7 44.9 7.75 44.9 Q13.95 47.2 22.05 46.25 33.35 43.8 42.8 37.85 L42.9 37.85" fill="#461e00" fill-rule="evenodd" stroke="none"/>
    <path d="M42.5 42.2 L42.5 42.45 Q33.5 48.3 22.35 50.75 12.15 52.1 7.75 47.4 L7.75 47.1 Q12.0 51.9 22.3 50.5 33.5 48.15 42.5 42.2" fill="#461e00" fill-rule="evenodd" stroke="none"/>
    <path d="M42.9 29.0 L50.8 25.4 50.05 33.05 40.15 38.3 42.9 29.0" fill="#723505" fill-rule="evenodd" stroke="none"/>
    <path d="M48.85 27.8 L48.85 29.35 44.25 31.4 44.25 29.85 48.85 27.8" fill="#461e00" fill-rule="evenodd" stroke="none"/>
    <path d="M32.45 1.9 L32.45 37.65 30.45 37.65 30.45 1.9 32.45 1.9" fill="#8c4b18" fill-rule="evenodd" stroke="none"/>
    <path d="M31.0 2.1 L31.0 37.85 30.7 37.85 30.7 2.1 31.0 2.1" fill="#af7446" fill-rule="evenodd" stroke="none"/>
    <path d="M32.4 1.95 L32.4 37.7 31.9 37.7 31.9 1.95 32.4 1.95" fill="#723a0e" fill-rule="evenodd" stroke="none"/>
    <path d="M42.45 34.5 L18.4 28.0 Q11.5 16.25 20.65 6.6 L45.45 13.4 Q37.1 23.9 42.45 34.5" fill="url(#gradient0)" fill-rule="evenodd" stroke="none"/>
    <path d="M23.4 28.7 L19.75 27.6 Q16.45 19.2 23.55 7.15 L26.6 8.1 Q19.35 19.35 23.4 28.7" fill="url(#gradient1)" fill-rule="evenodd" stroke="none"/>
    <path d="M34.8 10.35 L37.9 11.2 Q31.15 23.05 35.2 32.7 L31.55 31.55 Q28.25 22.9 34.8 10.35" fill="url(#gradient2)" fill-rule="evenodd" stroke="none"/>
    <path d="M21.2 12.1 L21.2 42.25 19.2 42.25 19.2 12.1 21.2 12.1" fill="#8c4b18" fill-rule="evenodd" stroke="none"/>
    <path d="M19.85 12.2 L19.85 42.35 19.55 42.35 19.55 12.2 19.85 12.2" fill="#af7446" fill-rule="evenodd" stroke="none"/>
    <path d="M24.65 14.55 Q25.35 14.55 26.45 13.85 27.5 13.1 28.35 13.1 29.75 13.1 30.7 14.1 L31.65 15.4 31.05 14.75 Q30.75 14.5 30.15 14.5 L29.75 14.5 29.4 14.85 Q30.55 15.05 31.2 17.25 L29.75 16.35 Q28.8 15.7 28.25 15.7 27.85 15.7 27.0 16.4 26.1 17.0 25.6 17.0 24.75 17.0 24.1 16.55 23.4 16.05 22.55 16.05 21.9 16.05 21.2 16.45 L21.0 16.6 21.0 11.9 Q22.45 12.05 22.95 13.2 23.6 14.55 24.65 14.55" fill="#c40303" fill-rule="evenodd" stroke="none"/>
    <path d="M21.2 12.2 L21.2 42.35 20.7 42.35 20.7 12.2 21.2 12.2" fill="#723a0e" fill-rule="evenodd" stroke="none"/>
    <path d="M30.15 40.4 L8.25 34.35 Q2.25 26.05 11.1 15.75 L32.4 21.7 Q25.15 31.3 30.15 40.4" fill="url(#gradient3)" fill-rule="evenodd" stroke="none"/>
    <path d="M36.15 3.95 Q36.85 3.95 37.95 4.65 39.0 5.4 39.85 5.4 41.25 5.4 42.2 4.4 L43.15 3.1 42.55 3.75 41.65 4.0 41.25 4.0 40.9 3.65 Q42.05 3.45 42.7 1.25 42.4 1.35 41.25 2.15 L39.75 2.8 Q39.35 2.8 38.5 2.1 37.6 1.5 37.1 1.5 36.25 1.5 35.6 1.95 L34.05 2.45 Q33.4 2.45 32.7 2.05 L32.5 1.9 32.5 6.6 Q33.95 6.45 34.45 5.3 35.1 3.95 36.15 3.95" fill="#c40303" fill-rule="evenodd" stroke="none"/>
    <path d="M17.2 17.5 Q9.95 27.55 14.0 35.95 L10.35 34.95 Q7.05 27.4 14.15 16.65 L17.2 17.5" fill="url(#gradient4)" fill-rule="evenodd" stroke="none"/>
    <path d="M22.8 19.15 L25.9 19.9 Q19.15 30.2 23.2 38.6 L19.55 37.6 Q16.25 30.05 22.8 19.15" fill="url(#gradient5)" fill-rule="evenodd" stroke="none"/>
    <path d="M6.3 44.7 Q5.0 40.8 10.5 33.3 11.2 43.65 18.0 46.15 8.9 47.45 6.3 44.7" fill="url(#gradient6)" fill-rule="evenodd" stroke="none"/>
  </g>
  <defs>
    <linearGradient gradientTransform="matrix(-0.0034, 0.0148, -0.0181, -0.0041, 31.3, 20.7)" gradientUnits="userSpaceOnUse" id="gradient0" spreadMethod="pad" x1="-819.2" x2="819.2">
      <stop offset="0.0" stop-color="#dbb366"/>
      <stop offset="0.11764705882352941" stop-color="#e0b96f"/>
      <stop offset="0.2196078431372549" stop-color="#efce90"/>
      <stop offset="0.7215686274509804" stop-color="#c69b4a"/>
      <stop offset="1.0" stop-color="#e5b65e"/>
    </linearGradient>
    <linearGradient gradientTransform="matrix(-0.0024, 0.0122, -0.0116, -0.0028, 23.1, 18.05)" gradientUnits="userSpaceOnUse" id="gradient1" spreadMethod="pad" x1="-819.2" x2="819.2">
      <stop offset="0.00392156862745098" stop-color="#a92b2b"/>
      <stop offset="0.1803921568627451" stop-color="#9f3838"/>
      <stop offset="0.6235294117647059" stop-color="#8e2828"/>
      <stop offset="1.0" stop-color="#9c1e1e"/>
    </linearGradient>
    <linearGradient gradientTransform="matrix(-0.0024, 0.0125, -0.0116, -0.0029, 34.9, 21.75)" gradientUnits="userSpaceOnUse" id="gradient2" spreadMethod="pad" x1="-819.2" x2="819.2">
      <stop offset="0.00392156862745098" stop-color="#a92b2b"/>
      <stop offset="0.1803921568627451" stop-color="#c14343"/>
      <stop offset="0.6196078431372549" stop-color="#a33030"/>
      <stop offset="1.0" stop-color="#9c1e1e"/>
    </linearGradient>
    <linearGradient gradientTransform="matrix(-0.0036, 0.0118, -0.0144, -0.0044, 18.4, 28.1)" gradientUnits="userSpaceOnUse" id="gradient3" spreadMethod="pad" x1="-819.2" x2="819.2">
      <stop offset="0.0" stop-color="#dbb366"/>
      <stop offset="0.22745098039215686" stop-color="#ffedcd"/>
      <stop offset="0.6470588235294118" stop-color="#f0d094"/>
      <stop offset="0.7607843137254902" stop-color="#debb7a"/>
      <stop offset="1.0" stop-color="#e5b65e"/>
    </linearGradient>
    <linearGradient gradientTransform="matrix(-0.0024, 0.0109, -0.0116, -0.0025, 13.7, 26.4)" gradientUnits="userSpaceOnUse" id="gradient4" spreadMethod="pad" x1="-819.2" x2="819.2">
      <stop offset="0.00392156862745098" stop-color="#a92b2b"/>
      <stop offset="0.1803921568627451" stop-color="#c14343"/>
      <stop offset="0.6823529411764706" stop-color="#c94b4b"/>
      <stop offset="1.0" stop-color="#9c1e1e"/>
    </linearGradient>
    <linearGradient gradientTransform="matrix(-0.0024, 0.0109, -0.0116, -0.0025, 22.9, 29.05)" gradientUnits="userSpaceOnUse" id="gradient5" spreadMethod="pad" x1="-819.2" x2="819.2">
      <stop offset="0.00392156862745098" stop-color="#a92b2b"/>
      <stop offset="0.1803921568627451" stop-color="#c14343"/>
      <stop offset="0.6823529411764706" stop-color="#c94b4b"/>
      <stop offset="1.0" stop-color="#9c1e1e"/>
    </linearGradient>
    <linearGradient gradientTransform="matrix(-0.0014, 0.0079, -0.0059, -0.001, 11.65, 40.6)" gradientUnits="userSpaceOnUse" id="gradient6" spreadMethod="pad" x1="-819.2" x2="819.2">
      <stop offset="0.0" stop-color="#e8bd6b"/>
      <stop offset="0.2196078431372549" stop-color="#fffcf7"/>
      <stop offset="1.0" stop-color="#e5b65e"/>
    </linearGradient>
  </defs>
</svg>
