<?xml version="1.0" encoding="UTF-8" standalone="no"?>
<svg xmlns:ffdec="https://www.free-decompiler.com/flash" xmlns:xlink="http://www.w3.org/1999/xlink" ffdec:objectType="shape" height="55.2px" width="35.85px" xmlns="http://www.w3.org/2000/svg">
  <g transform="matrix(1.0, 0.0, 0.0, 1.0, -4.15, 0.6)">
    <path d="M31.6 54.6 L29.7 54.6 29.6 54.45 31.6 54.6" fill="#85532d" fill-rule="evenodd" stroke="none"/>
    <path d="M37.5 28.15 Q30.2 45.6 26.55 50.4 23.15 46.9 21.05 40.55 16.0 44.9 13.45 44.75 11.7 44.65 5.2 39.65 10.1 35.45 6.1 27.85 3.9 23.7 4.2 18.9 4.55 13.45 8.15 8.45 12.45 2.55 16.65 0.55 21.4 -1.7 27.15 0.5 36.5 4.3 39.05 11.45 41.5 18.4 37.5 28.15" fill="#6a3409" fill-rule="evenodd" stroke="none"/>
  </g>
</svg>
