<?xml version="1.0" encoding="UTF-8" standalone="no"?>
<svg xmlns:ffdec="https://www.free-decompiler.com/flash" xmlns:xlink="http://www.w3.org/1999/xlink" ffdec:objectType="shape" height="104.6px" width="91.7px" xmlns="http://www.w3.org/2000/svg">
  <g transform="matrix(1.0, 0.0, 0.0, 1.0, -50.35, -5.7)">
    <path d="M86.7 86.0 Q110.5 80.75 128.45 69.75 L127.3 83.75 Q106.35 97.85 84.7 100.5 L82.0 100.55 81.9 100.65 Q64.45 100.35 63.7 86.6 L63.05 82.0 Q75.2 84.7 86.7 82.0 L86.7 86.0" fill="#e5a856" fill-rule="evenodd" stroke="none"/>
    <path d="M86.7 85.05 Q110.5 79.8 128.45 68.8 L126.45 83.5 Q106.35 96.9 84.7 99.55 L82.0 99.6 81.9 99.7 Q64.45 99.4 63.7 85.65 L63.05 81.05 Q75.2 83.75 86.7 81.05 L86.7 85.05" fill="#511c08" fill-rule="evenodd" stroke="none"/>
    <path d="M70.5 63.75 Q71.65 80.85 82.75 85.15 L83.5 85.85 Q83.8 86.2 83.7 86.7 L83.35 87.6 Q82.95 88.0 82.45 88.05 65.4 90.5 60.55 85.0 L60.15 84.4 Q57.55 77.0 67.85 62.95 68.15 62.6 68.6 62.45 68.95 62.3 69.5 62.45 L70.25 62.95 70.5 63.75" fill="#511c08" fill-rule="evenodd" stroke="none"/>
    <path d="M122.8 67.2 L128.7 67.7 84.75 83.6 68.6 79.55 68.35 79.8 Q67.9 80.3 67.0 80.65 L64.7 85.1 51.8 79.05 Q48.4 77.4 53.1 73.1 L64.5 77.15 68.65 76.8 68.85 77.4 Q88.95 68.65 109.65 62.9 L122.8 67.2" fill="#511c08" fill-rule="evenodd" stroke="none"/>
    <path d="M107.35 6.85 Q107.85 6.85 108.25 7.25 L108.4 7.3 Q109.2 7.85 110.0 7.85 111.15 7.85 112.0 7.25 L112.05 7.25 Q113.55 6.15 115.4 6.15 116.55 6.1 118.55 7.5 L118.65 7.5 120.65 8.75 Q121.6 9.15 124.8 7.1 L126.5 5.7 126.55 7.35 126.0 9.0 126.15 9.65 Q126.5 8.95 127.65 8.2 128.75 7.45 128.85 8.0 128.85 8.55 127.65 10.6 L125.35 13.5 125.4 13.5 Q123.25 15.65 120.35 15.65 118.45 15.75 116.25 14.1 L116.25 14.15 Q114.7 13.15 113.8 13.05 112.7 13.2 112.0 14.65 L111.9 14.7 Q110.95 16.85 108.65 17.5 L108.65 21.05 133.7 27.65 Q125.2 37.95 124.65 44.9 120.85 54.4 126.15 65.1 126.45 65.55 126.25 66.05 L125.65 66.85 124.7 66.95 108.65 62.6 108.65 71.25 Q108.65 71.75 108.25 72.15 107.85 72.55 107.35 72.55 L103.9 72.55 Q103.35 72.55 103.0 72.15 L102.85 71.95 Q103.5 73.75 104.5 75.5 L104.6 76.45 104.0 77.2 103.05 77.35 64.45 66.65 Q64.0 66.5 63.75 66.15 52.35 50.75 68.75 31.75 69.0 31.5 69.35 31.35 L70.05 31.35 76.35 33.15 Q77.65 23.9 85.65 15.55 85.85 15.2 86.2 15.15 L86.85 15.15 102.6 19.4 102.6 8.15 Q102.6 7.6 103.0 7.25 103.35 6.85 103.9 6.85 L107.35 6.85 M102.6 71.25 L102.6 60.95 101.15 60.55 Q100.65 66.0 102.6 71.4 L102.6 71.25" fill="#511c08" fill-rule="evenodd" stroke="none"/>
    <path d="M74.1 74.3 L74.1 85.5 66.95 89.35 63.15 79.95 Q66.3 75.8 74.1 74.3" fill="#cd7531" fill-rule="evenodd" stroke="none"/>
    <path d="M63.55 80.7 Q85.15 71.05 107.5 64.85 L126.6 69.65 82.65 85.55 63.55 80.7" fill="#cd7531" fill-rule="evenodd" stroke="none"/>
    <path d="M74.1 74.85 L74.1 86.05 66.95 89.9 63.15 80.5 Q66.3 76.35 74.1 74.85" fill="#723505" fill-rule="evenodd" stroke="none"/>
    <path d="M126.6 70.05 L82.65 85.95 63.55 81.1 Q85.15 71.45 107.5 65.25 L120.7 69.6 126.6 70.05" fill="#723505" fill-rule="evenodd" stroke="none"/>
    <path d="M68.6 82.6 Q79.65 76.1 108.15 67.6 L125.05 70.9 86.1 87.5 68.6 82.6" fill="#4d2101" fill-rule="evenodd" stroke="none"/>
    <path d="M140.6 63.4 L123.25 72.7 127.8 57.15 112.7 52.7 122.75 44.15 142.05 49.5 140.6 63.4" fill="#511c08" fill-rule="evenodd" stroke="none"/>
    <path d="M124.3 45.1 L122.7 60.25 105.5 67.85 110.0 52.15 124.3 45.1" fill="#723505" fill-rule="evenodd" stroke="none"/>
    <path d="M140.5 50.3 L126.6 57.1 110.9 52.55 124.8 45.75 140.5 50.3" fill="#93501c" fill-rule="evenodd" stroke="none"/>
    <path d="M125.35 55.85 L120.65 72.2 108.1 67.85 114.7 52.15 125.35 55.85" fill="#7b3f11" fill-rule="evenodd" stroke="none"/>
    <path d="M110.85 66.75 L125.45 71.15 86.5 87.75 69.0 82.85 Q80.05 76.35 108.55 67.85 L110.85 66.75" fill="#93501c" fill-rule="evenodd" stroke="none"/>
    <path d="M127.05 66.6 L125.05 81.25 Q105.1 94.8 81.1 96.0 L80.5 83.9 Q101.75 80.65 122.2 69.45 L127.05 66.6" fill="#cd7531" fill-rule="evenodd" stroke="none"/>
    <path d="M86.0 92.55 L79.55 96.1 Q67.1 92.95 63.4 83.4 L62.8 78.8 Q74.35 81.45 85.3 79.0 L86.0 79.55 86.0 92.55" fill="#cd7531" fill-rule="evenodd" stroke="none"/>
    <path d="M125.05 82.0 Q105.3 95.4 84.05 98.05 L81.1 98.1 80.5 84.65 Q107.35 79.6 127.05 67.3 L125.05 82.0" fill="#723505" fill-rule="evenodd" stroke="none"/>
    <path d="M86.0 79.55 L86.0 93.3 81.3 98.2 Q64.15 97.9 63.4 84.15 L62.8 79.55 Q74.7 82.25 86.0 79.55" fill="#723505" fill-rule="evenodd" stroke="none"/>
    <path d="M52.65 76.95 Q56.75 79.9 61.9 81.4 L63.9 82.2 Q65.45 83.0 66.15 82.2 L66.3 82.3 64.95 83.1 52.45 77.85 52.65 76.95 M66.75 81.6 Q65.3 80.7 63.7 80.15 L53.05 76.05 52.9 76.05 53.4 74.0 66.6 79.25 Q67.15 80.65 66.75 81.6" fill="#723505" fill-rule="evenodd" stroke="none"/>
    <path d="M52.65 76.95 L52.9 76.05 53.05 76.05 63.7 80.15 Q65.3 80.7 66.75 81.6 L66.3 82.3 66.15 82.2 Q65.45 83.0 63.9 82.2 L61.9 81.4 Q56.75 79.9 52.65 76.95" fill="#642f06" fill-rule="evenodd" stroke="none"/>
    <path d="M53.65 73.8 Q54.15 73.95 54.25 74.65 L54.1 76.25 53.2 77.55 Q52.7 78.0 52.2 77.85 51.75 77.65 51.6 76.95 51.5 76.25 51.85 75.4 52.15 74.55 52.65 74.05 53.2 73.6 53.65 73.8" fill="#9f541a" fill-rule="evenodd" stroke="none"/>
    <path d="M98.7 82.45 L98.8 83.35 99.0 86.45 Q97.2 87.4 95.45 87.85 L95.45 83.4 Q97.2 83.35 98.7 82.45" fill="#461e00" fill-rule="evenodd" stroke="none"/>
    <path d="M98.7 82.45 L99.0 82.2 99.2 82.0 99.2 86.65 Q97.45 87.9 95.45 88.05 L95.45 87.85 Q97.2 87.4 99.0 86.45 L98.8 83.35 98.7 82.45" fill="#cd7531" fill-rule="evenodd" stroke="none"/>
    <path d="M125.9 76.15 L125.95 76.2 126.05 76.35 125.95 76.45 Q109.9 87.1 89.9 91.45 71.3 94.0 63.85 86.55 L63.85 86.45 63.85 86.3 64.0 86.3 64.15 86.3 Q71.45 93.55 89.85 91.1 109.75 86.8 125.75 76.15 L125.9 76.15" fill="#461e00" fill-rule="evenodd" stroke="none"/>
    <path d="M106.4 79.65 L106.5 80.55 106.7 83.65 103.15 85.05 103.15 80.6 Q104.9 80.55 106.4 79.65" fill="#461e00" fill-rule="evenodd" stroke="none"/>
    <path d="M103.15 85.05 L106.7 83.65 106.5 80.55 106.4 79.65 106.7 79.4 106.9 79.2 106.9 83.85 Q105.15 85.1 103.15 85.25 L103.15 85.05" fill="#cd7531" fill-rule="evenodd" stroke="none"/>
    <path d="M113.3 76.95 L113.4 77.85 113.6 80.95 Q111.8 81.9 110.05 82.35 L110.05 77.9 Q111.8 77.85 113.3 76.95" fill="#461e00" fill-rule="evenodd" stroke="none"/>
    <path d="M113.3 76.95 L113.6 76.7 113.8 76.5 113.8 81.15 Q112.05 82.4 110.05 82.55 L110.05 82.35 Q111.8 81.9 113.6 80.95 L113.4 77.85 113.3 76.95" fill="#cd7531" fill-rule="evenodd" stroke="none"/>
    <path d="M126.2 71.9 L126.25 72.0 126.35 72.15 126.25 72.2 Q109.45 82.7 89.45 87.1 75.0 88.85 64.0 84.7 L63.9 84.55 63.9 84.45 64.0 84.35 64.15 84.35 Q75.0 88.4 89.4 86.7 109.3 82.45 126.05 71.9 L126.2 71.9" fill="#461e00" fill-rule="evenodd" stroke="none"/>
    <path d="M125.45 79.55 L125.45 80.0 Q109.6 90.35 89.9 94.65 71.85 97.1 64.05 88.7 L64.05 88.2 Q71.6 96.7 89.85 94.25 109.6 90.05 125.45 79.55" fill="#461e00" fill-rule="evenodd" stroke="none"/>
    <path d="M126.3 56.2 L140.2 49.9 138.8 63.4 121.4 72.65 126.3 56.2" fill="#723505" fill-rule="evenodd" stroke="none"/>
    <path d="M136.7 54.15 L136.7 56.85 128.55 60.45 128.55 57.75 136.7 54.15" fill="#461e00" fill-rule="evenodd" stroke="none"/>
    <path d="M107.7 8.45 L107.7 71.55 104.2 71.55 104.2 8.45 107.7 8.45" fill="#8c4b18" fill-rule="evenodd" stroke="none"/>
    <path d="M105.2 8.75 L105.2 71.85 104.7 71.85 104.7 8.75 105.2 8.75" fill="#af7446" fill-rule="evenodd" stroke="none"/>
    <path d="M107.65 8.6 L107.65 71.7 106.75 71.7 106.75 8.6 107.65 8.6" fill="#723a0e" fill-rule="evenodd" stroke="none"/>
    <path d="M125.35 66.0 L82.85 54.5 Q70.7 33.7 86.85 16.7 L130.7 28.7 Q115.95 47.25 125.35 66.0" fill="url(#gradient0)" fill-rule="evenodd" stroke="none"/>
    <path d="M91.8 55.85 L85.45 53.85 Q79.6 39.05 92.1 17.75 L97.5 19.4 Q84.7 39.3 91.8 55.85" fill="url(#gradient1)" fill-rule="evenodd" stroke="none"/>
    <path d="M111.9 23.35 L117.35 24.9 Q105.45 45.85 112.55 62.85 L106.2 60.8 Q100.35 45.6 111.9 23.35" fill="url(#gradient2)" fill-rule="evenodd" stroke="none"/>
    <path d="M87.85 26.4 L87.85 79.7 84.35 79.7 84.35 26.4 87.85 26.4" fill="#8c4b18" fill-rule="evenodd" stroke="none"/>
    <path d="M85.5 26.6 L85.5 79.9 85.0 79.9 85.0 26.6 85.5 26.6" fill="#af7446" fill-rule="evenodd" stroke="none"/>
    <path d="M94.0 30.7 Q95.2 30.7 97.15 29.45 99.0 28.15 100.55 28.15 103.0 28.15 104.7 29.9 105.55 30.8 106.4 32.2 L105.25 31.1 Q104.75 30.65 103.7 30.65 L103.0 30.65 102.4 31.25 Q104.4 31.6 105.55 35.55 104.95 35.3 103.0 33.9 101.35 32.8 100.3 32.8 99.65 32.8 98.1 33.95 96.55 35.1 95.65 35.1 94.15 35.1 93.0 34.25 91.8 33.4 90.25 33.4 89.15 33.4 87.85 34.1 L87.5 34.35 87.5 26.05 Q90.1 26.35 91.0 28.35 92.15 30.7 94.0 30.7" fill="#c40303" fill-rule="evenodd" stroke="none"/>
    <path d="M87.85 26.6 L87.85 79.9 86.95 79.9 86.95 26.6 87.85 26.6" fill="#723a0e" fill-rule="evenodd" stroke="none"/>
    <path d="M103.65 76.45 L65.0 65.7 Q54.35 51.05 70.0 32.9 L107.6 43.4 Q94.85 60.3 103.65 76.45" fill="url(#gradient3)" fill-rule="evenodd" stroke="none"/>
    <path d="M114.25 12.05 Q115.45 12.05 117.4 13.3 119.25 14.6 120.8 14.6 123.25 14.6 124.95 12.85 L126.65 10.55 125.5 11.65 123.95 12.1 123.25 12.1 122.65 11.5 Q124.65 11.15 125.8 7.2 125.2 7.45 123.25 8.85 121.6 9.95 120.55 9.95 119.9 9.95 118.35 8.8 116.8 7.65 115.9 7.65 114.4 7.65 113.25 8.5 112.05 9.35 110.5 9.35 109.4 9.35 108.1 8.65 L107.75 8.4 107.75 16.7 Q110.35 16.4 111.25 14.4 112.4 12.05 114.25 12.05" fill="#c40303" fill-rule="evenodd" stroke="none"/>
    <path d="M80.8 35.95 Q68.0 53.7 75.1 68.5 L68.75 66.75 Q62.9 53.5 75.4 34.45 L80.8 35.95" fill="url(#gradient4)" fill-rule="evenodd" stroke="none"/>
    <path d="M90.75 38.8 L96.2 40.15 Q84.3 58.35 91.4 73.15 L85.05 71.4 Q79.2 58.15 90.75 38.8" fill="url(#gradient5)" fill-rule="evenodd" stroke="none"/>
    <path d="M86.25 26.95 L84.95 26.8 84.4 26.45 84.95 26.1 86.25 25.95 87.55 26.1 88.1 26.45 87.55 26.8 86.25 26.95" fill="#af7446" fill-rule="evenodd" stroke="none"/>
    <path d="M61.55 84.0 Q59.35 77.1 69.05 63.85 70.25 82.15 82.2 86.55 66.25 88.85 61.55 84.0" fill="url(#gradient6)" fill-rule="evenodd" stroke="none"/>
    <path d="M89.5 107.4 Q97.1 102.05 103.35 95.15 106.8 102.9 107.35 110.3 L89.5 107.4" fill="#ffcc00" fill-rule="evenodd" stroke="none"/>
  </g>
  <defs>
    <linearGradient gradientTransform="matrix(-0.0059, 0.026, -0.032, -0.0072, 105.65, 41.65)" gradientUnits="userSpaceOnUse" id="gradient0" spreadMethod="pad" x1="-819.2" x2="819.2">
      <stop offset="0.0" stop-color="#dbb366"/>
      <stop offset="0.11764705882352941" stop-color="#e0b96f"/>
      <stop offset="0.2196078431372549" stop-color="#efce90"/>
      <stop offset="0.7215686274509804" stop-color="#c69b4a"/>
      <stop offset="1.0" stop-color="#e5b65e"/>
    </linearGradient>
    <linearGradient gradientTransform="matrix(-0.0042, 0.0215, -0.0205, -0.005, 91.25, 37.05)" gradientUnits="userSpaceOnUse" id="gradient1" spreadMethod="pad" x1="-819.2" x2="819.2">
      <stop offset="0.00392156862745098" stop-color="#a92b2b"/>
      <stop offset="0.1803921568627451" stop-color="#9f3838"/>
      <stop offset="0.6235294117647059" stop-color="#8e2828"/>
      <stop offset="1.0" stop-color="#9c1e1e"/>
    </linearGradient>
    <linearGradient gradientTransform="matrix(-0.0042, 0.0221, -0.0205, -0.0051, 112.0, 43.55)" gradientUnits="userSpaceOnUse" id="gradient2" spreadMethod="pad" x1="-819.2" x2="819.2">
      <stop offset="0.00392156862745098" stop-color="#a92b2b"/>
      <stop offset="0.1803921568627451" stop-color="#c14343"/>
      <stop offset="0.6196078431372549" stop-color="#a33030"/>
      <stop offset="1.0" stop-color="#9c1e1e"/>
    </linearGradient>
    <linearGradient gradientTransform="matrix(-0.0064, 0.0208, -0.0254, -0.0078, 82.85, 54.65)" gradientUnits="userSpaceOnUse" id="gradient3" spreadMethod="pad" x1="-819.2" x2="819.2">
      <stop offset="0.0" stop-color="#dbb366"/>
      <stop offset="0.22745098039215686" stop-color="#ffedcd"/>
      <stop offset="0.6470588235294118" stop-color="#f0d094"/>
      <stop offset="0.7607843137254902" stop-color="#debb7a"/>
      <stop offset="1.0" stop-color="#e5b65e"/>
    </linearGradient>
    <linearGradient gradientTransform="matrix(-0.0042, 0.0193, -0.0205, -0.0045, 74.55, 51.7)" gradientUnits="userSpaceOnUse" id="gradient4" spreadMethod="pad" x1="-819.2" x2="819.2">
      <stop offset="0.00392156862745098" stop-color="#a92b2b"/>
      <stop offset="0.1803921568627451" stop-color="#c14343"/>
      <stop offset="0.6823529411764706" stop-color="#c94b4b"/>
      <stop offset="1.0" stop-color="#9c1e1e"/>
    </linearGradient>
    <linearGradient gradientTransform="matrix(-0.0042, 0.0193, -0.0205, -0.0045, 90.85, 56.35)" gradientUnits="userSpaceOnUse" id="gradient5" spreadMethod="pad" x1="-819.2" x2="819.2">
      <stop offset="0.00392156862745098" stop-color="#a92b2b"/>
      <stop offset="0.1803921568627451" stop-color="#c14343"/>
      <stop offset="0.6823529411764706" stop-color="#c94b4b"/>
      <stop offset="1.0" stop-color="#9c1e1e"/>
    </linearGradient>
    <linearGradient gradientTransform="matrix(-0.0024, 0.0139, -0.0104, -0.0018, 71.05, 76.7)" gradientUnits="userSpaceOnUse" id="gradient6" spreadMethod="pad" x1="-819.2" x2="819.2">
      <stop offset="0.0" stop-color="#e8bd6b"/>
      <stop offset="0.2196078431372549" stop-color="#fffcf7"/>
      <stop offset="1.0" stop-color="#e5b65e"/>
    </linearGradient>
  </defs>
</svg>
