<?xml version="1.0" encoding="UTF-8" standalone="no"?>
<svg xmlns:ffdec="https://www.free-decompiler.com/flash" xmlns:xlink="http://www.w3.org/1999/xlink" ffdec:objectType="shape" height="136.0px" width="113.3px" xmlns="http://www.w3.org/2000/svg">
  <g transform="matrix(1.0, 0.0, 0.0, 1.0, -25.35, -5.0)">
    <path d="M50.8 134.85 L40.9 134.85 37.6 133.35 Q33.95 131.55 36.75 128.6 37.65 128.85 37.25 129.65 37.0 130.15 37.25 130.5 39.75 131.65 42.35 132.6 46.45 134.0 50.8 134.85 M51.25 137.45 L51.25 135.0 58.8 135.95 Q59.95 136.0 60.6 136.95 L51.25 137.45" fill="#723505" fill-rule="evenodd" stroke="none"/>
    <path d="M84.0 127.25 Q83.8 127.2 84.05 127.1 84.4 127.45 84.0 127.25" fill="#cd7531" fill-rule="evenodd" stroke="none"/>
    <path d="M137.35 45.2 Q139.0 46.8 138.55 48.8 138.95 50.5 137.4 52.5 L137.35 52.5 Q134.1 56.45 130.1 58.3 L130.05 58.35 Q125.9 60.15 121.05 59.25 L120.95 59.2 88.4 51.55 79.75 55.55 79.7 55.55 79.05 55.8 78.55 56.0 78.5 56.0 78.45 56.05 78.35 56.1 77.25 56.6 77.25 56.65 Q65.45 62.05 54.6 65.6 L52.8 69.3 52.85 69.3 Q48.5 77.15 41.9 77.05 35.4 77.15 30.45 69.35 25.95 62.1 25.65 51.75 25.3 41.35 29.35 34.1 L30.95 31.6 29.85 31.15 Q26.25 29.6 26.0 27.8 L26.0 27.2 Q26.05 26.45 26.4 25.75 27.55 20.4 41.7 19.85 44.6 19.55 57.4 22.9 L58.05 23.0 58.4 23.2 60.3 23.7 Q63.2 22.2 67.4 21.75 L68.25 21.65 68.35 21.65 70.0 21.55 77.2 21.85 77.5 21.9 81.0 22.75 Q82.7 23.3 84.0 24.2 L87.1 23.45 Q87.35 23.3 87.45 23.3 L88.3 23.25 Q92.9 22.4 97.6 21.0 99.6 19.6 99.8 18.5 99.85 12.35 101.35 9.7 L101.4 9.65 Q103.2 6.55 107.05 6.25 L107.15 6.25 Q109.3 6.2 110.65 7.35 L110.7 7.4 Q111.85 8.1 112.5 9.55 L112.65 9.95 112.7 10.0 112.8 10.15 113.0 10.6 113.05 11.3 114.0 19.15 114.1 19.95 114.4 20.8 114.45 21.15 114.45 21.3 114.3 22.0 114.25 22.1 114.5 24.95 114.55 25.15 114.7 26.05 114.65 26.8 114.65 27.2 114.55 27.9 112.9 30.45 112.7 30.65 112.45 30.85 112.25 31.0 111.8 31.3 110.25 32.35 110.15 32.45 109.7 32.85 109.8 32.75 107.1 35.5 117.15 38.4 117.2 38.4 118.2 38.5 118.95 38.9 119.15 39.0 132.75 42.85 132.8 42.9 Q136.0 43.85 137.35 45.2" fill="#e7ab5b" fill-rule="evenodd" stroke="none"/>
    <path d="M137.1 43.95 Q138.75 45.55 138.3 47.55 138.7 49.25 137.15 51.25 L137.1 51.25 Q133.85 55.2 129.85 57.05 L129.8 57.1 Q125.65 58.9 120.8 58.0 L120.7 57.95 88.15 50.3 79.5 54.3 79.45 54.3 78.8 54.55 78.3 54.75 78.25 54.75 78.2 54.8 78.1 54.85 77.0 55.35 77.0 55.4 Q65.2 60.8 54.35 64.35 L52.55 68.05 52.6 68.05 Q48.25 75.9 41.65 75.8 35.15 75.9 30.2 68.1 25.7 60.85 25.4 50.5 25.05 40.1 29.1 32.85 L30.7 30.35 29.6 29.9 Q26.0 28.35 25.75 26.55 L25.75 25.95 Q25.8 25.2 26.15 24.5 27.3 19.15 41.45 18.6 44.35 18.3 57.15 21.65 L57.8 21.75 58.15 21.95 60.05 22.45 Q62.95 20.95 67.15 20.5 L68.0 20.4 68.1 20.4 69.75 20.3 76.95 20.6 77.25 20.65 80.75 21.5 Q82.45 22.05 83.75 22.95 L86.85 22.2 87.2 22.05 88.05 22.0 Q92.65 21.15 97.35 19.75 99.35 18.35 99.55 17.25 99.6 11.1 101.1 8.45 L101.15 8.4 Q102.95 5.3 106.8 5.0 L106.9 5.0 Q109.05 4.95 110.4 6.1 L110.45 6.15 Q111.6 6.85 112.25 8.3 L112.4 8.7 112.45 8.75 112.55 8.9 112.75 9.35 112.8 10.05 113.75 17.9 113.85 18.7 114.15 19.55 114.2 19.9 114.2 20.05 114.05 20.75 114.0 20.85 114.25 23.7 114.3 23.9 114.45 24.8 114.4 25.55 114.4 25.95 114.3 26.65 112.65 29.2 112.45 29.4 112.2 29.6 112.0 29.75 111.55 30.05 110.0 31.1 109.9 31.2 109.45 31.6 109.55 31.5 106.85 34.25 116.9 37.15 116.95 37.15 117.95 37.25 118.7 37.65 118.9 37.75 132.5 41.6 132.55 41.65 Q135.75 42.6 137.1 43.95" fill="#79471d" fill-rule="evenodd" stroke="none"/>
    <path d="M27.2 26.15 Q27.85 21.4 41.25 20.85 L42.55 20.9 Q49.5 21.5 80.3 30.65 L93.75 33.45 68.85 42.35 50.9 38.25 Q49.65 37.2 42.55 33.95 L30.2 28.5 Q27.5 27.35 27.2 26.15" fill="#203f64" fill-rule="evenodd" stroke="none"/>
    <path d="M110.7 9.45 Q111.4 12.35 112.4 25.7 111.4 28.0 109.6 28.75 107.7 29.35 105.7 29.35 103.7 29.35 102.4 26.1 101.7 24.45 94.25 23.2 101.05 19.95 101.05 17.25 101.1 11.6 102.4 9.15 103.85 6.75 106.9 6.5 109.9 6.45 110.7 9.45" fill="#e5f1ff" fill-rule="evenodd" stroke="none"/>
    <path d="M111.2 9.8 Q111.9 12.7 112.9 26.05 111.9 28.35 110.1 29.1 L106.2 29.7 Q104.2 29.7 102.9 26.45 102.2 24.8 94.75 23.55 101.55 20.3 101.55 17.6 101.6 11.95 102.9 9.5 104.35 7.1 107.4 6.85 110.4 6.8 111.2 9.8" fill="#6e829a" fill-rule="evenodd" stroke="none"/>
    <path d="M27.5 25.35 Q28.15 20.6 41.55 20.1 46.45 19.7 80.6 29.85 L94.05 32.65 69.15 41.55 51.2 37.4 Q49.15 35.7 30.45 27.65 27.75 26.55 27.5 25.35" fill="url(#gradient0)" fill-rule="evenodd" stroke="none"/>
    <path d="M90.6 118.55 Q99.3 117.95 100.0 119.9 100.7 121.95 99.25 123.75 91.25 133.4 82.7 134.85 74.05 136.3 71.0 139.25 67.95 142.2 61.35 140.15 54.7 138.15 50.35 138.5 L35.7 138.9 Q25.45 139.1 27.15 135.3 28.3 132.6 34.2 131.0 37.9 128.7 34.05 128.3 26.7 126.6 34.3 124.25 40.45 122.25 46.95 121.0 L54.65 119.55 85.65 113.8 Q94.35 111.9 90.6 118.55" fill="#e7ab5b" fill-rule="evenodd" stroke="none"/>
    <path d="M90.8 117.6 Q99.5 117.0 100.2 118.95 100.9 121.0 99.45 122.8 91.45 132.45 82.9 133.9 74.25 135.35 71.2 138.3 68.15 141.25 61.55 139.2 54.9 137.2 50.55 137.55 L35.9 137.95 Q25.65 138.15 27.35 134.35 28.5 131.65 34.4 130.05 38.1 127.75 34.25 127.35 26.9 125.65 34.5 123.3 40.65 121.3 47.15 120.05 L54.85 118.6 85.85 112.85 Q94.55 110.95 90.8 117.6" fill="#79471d" fill-rule="evenodd" stroke="none"/>
    <path d="M77.6 53.4 L76.35 54.0 Q63.5 59.9 51.75 63.6 30.4 62.85 34.9 40.6 36.25 37.1 40.35 35.5 44.55 33.9 45.3 33.65 L87.4 23.6 87.6 23.55 Q96.25 22.15 105.15 18.55 L111.7 27.3 110.85 28.3 Q104.35 34.0 98.95 40.2 90.7 48.8 77.6 53.4" fill="#6e829a" fill-rule="evenodd" stroke="none"/>
    <path d="M57.35 23.2 L57.85 23.65 Q44.5 25.1 38.75 31.95 L38.6 32.0 38.35 31.95 38.25 31.75 38.3 31.55 Q44.1 24.7 57.3 23.15 L57.35 23.2" fill="#364e6b" fill-rule="evenodd" stroke="none"/>
    <path d="M81.9 25.45 Q85.55 27.05 86.05 28.35 L77.15 31.6 68.3 34.5 Q62.0 36.6 56.75 35.8 51.5 34.95 52.7 32.15 52.2 29.2 81.25 23.55 83.1 24.5 81.9 25.45" fill="#000000" fill-rule="evenodd" stroke="none"/>
    <path d="M98.95 36.75 Q90.7 45.3 77.6 49.95 L76.35 50.5 Q63.5 56.45 51.75 60.1 31.65 59.4 34.5 39.65 36.6 51.0 51.75 51.55 63.5 47.85 76.35 41.95 L77.6 41.35 Q90.7 36.75 98.95 28.15 111.55 26.7 111.8 17.95 L111.55 14.75 Q114.1 25.45 111.35 28.35 L98.95 36.75" fill="#577395" fill-rule="evenodd" stroke="none"/>
    <path d="M89.75 41.3 L98.95 31.65 Q107.7 28.35 110.85 26.15 112.6 25.55 112.8 24.15 L112.95 25.05 111.7 27.3 110.85 28.3 Q104.35 34.0 98.95 40.2 90.7 48.8 77.6 53.4 L76.35 54.0 Q63.5 59.9 51.75 63.6 31.65 62.9 34.5 43.15 36.6 54.5 51.75 55.0 54.15 58.7 71.5 50.55 88.8 42.35 89.75 41.3" fill="#3d516b" fill-rule="evenodd" stroke="none"/>
    <path d="M62.8 42.35 Q63.55 46.1 62.85 49.95 63.4 51.65 64.6 50.4 83.5 43.15 99.25 34.75 99.65 30.3 98.9 28.35 98.9 26.65 97.35 27.55 81.55 34.95 64.4 40.85 62.6 41.6 62.8 42.35 Z" fill="none" stroke="#364e6b" stroke-linecap="round" stroke-linejoin="round" stroke-width="0.5"/>
    <path d="M134.65 48.95 Q131.6 52.6 127.95 54.3 124.15 56.0 119.75 55.15 L70.8 44.65 Q68.5 43.45 69.45 41.75 79.0 34.65 92.65 32.2 L130.75 43.1 Q137.6 45.15 134.65 48.95" fill="#243c58" fill-rule="evenodd" stroke="none"/>
    <path d="M77.6 53.4 L76.35 54.0 Q63.5 59.9 51.75 63.6 41.8 63.25 37.45 58.2 41.85 62.05 50.5 62.3 62.25 58.65 75.1 52.75 L76.35 52.15 Q89.45 47.55 97.7 38.95 102.4 33.55 111.15 28.0 L110.85 28.3 Q104.35 34.0 98.95 40.2 90.7 48.8 77.6 53.4 M34.5 43.15 Q35.2 47.0 37.4 49.6 35.35 47.75 34.25 45.2 34.3 44.15 34.5 43.15" fill="#778595" fill-rule="evenodd" stroke="none"/>
    <path d="M132.05 44.45 Q138.9 46.55 135.95 50.3 132.9 53.95 129.2 55.7 125.45 57.35 121.05 56.5 L70.6 44.65 Q70.9 44.35 70.75 43.1 80.25 36.0 94.0 33.55 L116.25 39.95 116.55 40.0 132.05 44.45" fill="#203f64" fill-rule="evenodd" stroke="none"/>
    <path d="M69.8 21.8 Q76.05 21.45 80.25 22.9 84.5 24.35 85.7 27.6 79.95 29.85 77.2 30.7 L68.15 33.35 Q61.85 35.15 57.45 34.3 53.05 33.45 53.55 32.25 52.9 31.35 54.4 29.1 56.1 26.35 59.85 24.25 63.5 22.05 69.8 21.8" fill="#cccccc" fill-rule="evenodd" stroke="none"/>
    <path d="M59.6 24.7 Q64.6 25.3 66.15 33.7" fill="none" stroke="#727272" stroke-linecap="round" stroke-linejoin="round" stroke-width="0.5"/>
    <path d="M117.75 58.95 Q118.2 58.35 118.05 57.65 118.0 56.9 117.45 56.45 L103.05 43.4 Q101.35 41.05 99.6 41.75 98.0 41.75 96.85 44.45 L87.25 66.0 86.05 65.9 Q86.45 70.65 88.3 70.3 L90.9 69.85 95.55 68.1 Q98.65 85.2 82.2 91.35 81.65 91.55 81.3 92.0 80.95 92.45 80.9 93.05 L80.85 93.6 80.85 94.15 Q82.9 95.7 81.8 94.75 101.4 93.05 108.5 84.15 115.55 75.7 112.3 61.8 L116.55 60.15 117.45 59.4 117.75 58.95 M77.7 94.65 L80.1 94.55 79.15 94.5 77.7 94.65" fill="#e7ab5b" fill-rule="evenodd" stroke="none"/>
    <path d="M94.0 32.15 L132.1 43.05 Q138.9 45.15 136.0 48.9 132.9 52.55 129.25 54.25 125.45 56.0 121.05 55.1 L70.65 43.3 Q79.85 34.6 94.0 32.15" fill="url(#gradient1)" fill-rule="evenodd" stroke="none"/>
    <path d="M116.4 58.2 L116.7 57.75 Q117.15 57.15 117.0 56.45 116.95 55.7 116.4 55.25 L102.0 42.2 Q100.3 39.85 98.55 40.55 96.95 40.55 95.8 43.25 L86.2 64.8 Q86.0 65.3 86.05 65.9 86.6 69.3 89.35 68.75 L89.85 68.65 94.5 66.9 Q97.6 84.0 81.15 90.15 80.6 90.35 80.25 90.8 79.9 91.25 79.85 91.85 L79.8 92.4 Q79.75 93.0 80.05 93.55 80.4 94.0 80.9 94.3 L82.05 94.5 Q100.35 91.85 107.45 82.95 114.5 74.5 111.25 60.6 L115.5 58.95 116.4 58.2" fill="#79471d" fill-rule="evenodd" stroke="none"/>
    <path d="M97.5 57.75 L108.5 57.75 Q117.55 87.35 81.8 92.5 L81.8 91.95 Q101.85 84.45 95.4 62.3 97.55 58.25 97.5 57.75" fill="#70c926" fill-rule="evenodd" stroke="none"/>
    <path d="M51.2 38.3 Q54.45 42.8 54.65 49.25 54.85 55.65 51.9 60.2 49.05 64.7 44.8 64.7 40.55 64.7 37.3 60.2 34.15 55.65 33.95 49.25 33.75 42.8 36.6 38.3 39.55 33.75 43.8 33.75 48.05 33.75 51.2 38.3" fill="#3d516b" fill-rule="evenodd" stroke="none"/>
    <path d="M46.5 123.05 L41.25 125.85 38.45 118.95 Q40.75 115.9 46.5 114.8 L46.5 123.05" fill="#cd7531" fill-rule="evenodd" stroke="none"/>
    <path d="M90.65 115.65 Q99.35 115.05 100.05 117.0 100.75 119.05 99.3 120.85 91.3 130.5 82.75 131.95 74.1 133.4 71.05 136.35 68.0 139.3 61.4 137.25 54.75 135.25 50.4 135.6 L35.75 136.0 Q25.5 136.2 27.2 132.4 28.35 129.7 34.25 128.1 37.95 125.8 34.1 125.4 26.75 123.7 34.35 121.35 40.5 119.35 47.0 118.1 L54.7 116.65 85.7 110.9 Q94.4 109.0 90.65 115.65" fill="#46a5db" fill-rule="evenodd" stroke="none"/>
    <path d="M38.75 119.4 Q54.7 112.25 71.15 107.75 L85.25 111.25 52.85 122.95 38.75 119.4" fill="#cd7531" fill-rule="evenodd" stroke="none"/>
    <path d="M46.5 123.4 L41.25 126.2 38.45 119.3 Q40.75 116.25 46.5 115.15 L46.5 123.4" fill="#723505" fill-rule="evenodd" stroke="none"/>
    <path d="M85.25 111.65 L52.85 123.35 38.75 119.8 Q54.7 112.65 71.15 108.15 L80.9 111.3 85.25 111.65" fill="#723505" fill-rule="evenodd" stroke="none"/>
    <path d="M42.45 120.85 Q50.55 116.05 71.6 109.75 L84.05 112.25 55.3 124.45 42.45 120.85" fill="#4d2101" fill-rule="evenodd" stroke="none"/>
    <path d="M82.35 104.3 L69.65 109.9 72.95 98.3 83.5 93.15 82.35 104.3" fill="#723505" fill-rule="evenodd" stroke="none"/>
    <path d="M95.35 97.0 L85.1 102.0 73.55 98.6 83.8 93.6 95.35 97.0" fill="#93501c" fill-rule="evenodd" stroke="none"/>
    <path d="M80.8 113.15 L71.55 109.9 76.4 98.35 84.25 101.1 80.8 113.15" fill="#7b3f11" fill-rule="evenodd" stroke="none"/>
    <path d="M42.8 121.0 Q50.9 116.2 71.95 109.9 L84.4 112.4 55.65 124.6 42.8 121.0" fill="#93501c" fill-rule="evenodd" stroke="none"/>
    <path d="M85.6 109.0 L84.1 119.8 Q69.35 129.8 51.7 130.65 L51.25 121.75 Q66.9 119.35 82.0 111.1 L85.6 109.0" fill="#cd7531" fill-rule="evenodd" stroke="none"/>
    <path d="M55.3 128.15 L50.55 130.75 Q41.35 128.45 38.65 121.4 L38.2 118.0 Q46.7 119.95 54.8 118.15 L55.3 118.55 55.3 128.15" fill="#cd7531" fill-rule="evenodd" stroke="none"/>
    <path d="M84.1 120.35 Q69.55 130.25 53.85 132.2 L51.7 132.25 51.25 122.3 Q71.05 118.6 85.6 109.55 L84.1 120.35" fill="#723505" fill-rule="evenodd" stroke="none"/>
    <path d="M38.2 118.5 Q47.0 120.5 55.35 118.5 L55.35 128.65 51.85 132.3 Q39.2 132.05 38.65 121.9 L38.2 118.5" fill="#723505" fill-rule="evenodd" stroke="none"/>
    <path d="M30.75 116.65 Q33.75 118.8 37.55 119.9 L39.0 120.5 Q40.15 121.1 40.65 120.5 L40.75 120.55 Q40.45 120.95 39.8 121.15 L30.55 117.3 30.75 116.65 M41.1 120.05 Q40.05 119.4 38.85 119.0 L31.0 116.0 30.9 116.0 31.25 114.45 41.0 118.35 Q41.4 119.35 41.1 120.05" fill="#723505" fill-rule="evenodd" stroke="none"/>
    <path d="M30.75 116.65 L30.9 116.0 31.0 116.0 38.85 119.0 Q40.05 119.4 41.1 120.05 L40.75 120.55 40.65 120.5 Q40.15 121.1 39.0 120.5 L37.55 119.9 Q33.75 118.8 30.75 116.65" fill="#642f06" fill-rule="evenodd" stroke="none"/>
    <path d="M32.05 115.0 L31.95 116.15 31.3 117.15 Q30.9 117.5 30.55 117.35 30.2 117.25 30.15 116.7 30.05 116.2 30.3 115.55 30.5 114.9 30.9 114.55 31.3 114.25 31.65 114.35 32.0 114.5 32.05 115.0" fill="#9f541a" fill-rule="evenodd" stroke="none"/>
    <path d="M64.6 120.65 L64.7 121.3 64.85 123.6 62.2 124.65 62.2 121.35 Q63.55 121.3 64.6 120.65" fill="#461e00" fill-rule="evenodd" stroke="none"/>
    <path d="M62.2 124.65 L64.85 123.6 64.7 121.3 64.6 120.65 64.85 120.5 65.0 120.3 65.0 123.75 Q63.7 124.7 62.2 124.8 L62.2 124.65" fill="#cd7531" fill-rule="evenodd" stroke="none"/>
    <path d="M84.75 116.1 L84.8 116.2 84.75 116.25 Q72.9 124.1 58.2 127.35 44.5 129.2 38.95 123.75 L38.95 123.6 38.95 123.5 39.1 123.5 39.2 123.5 Q44.6 128.85 58.15 127.05 72.8 123.9 84.6 116.05 L84.7 116.05 84.75 116.1" fill="#461e00" fill-rule="evenodd" stroke="none"/>
    <path d="M70.25 118.6 L70.35 119.25 70.5 121.55 67.85 122.6 67.85 119.3 Q69.2 119.25 70.25 118.6" fill="#461e00" fill-rule="evenodd" stroke="none"/>
    <path d="M70.25 118.6 L70.5 118.45 70.65 118.25 70.65 121.7 Q69.35 122.65 67.85 122.75 L67.85 122.6 70.5 121.55 70.35 119.25 70.25 118.6" fill="#cd7531" fill-rule="evenodd" stroke="none"/>
    <path d="M75.45 116.6 L75.55 117.25 75.7 119.55 73.05 120.6 73.05 117.3 Q74.4 117.25 75.45 116.6" fill="#461e00" fill-rule="evenodd" stroke="none"/>
    <path d="M73.05 120.6 L75.7 119.55 75.55 117.25 75.45 116.6 75.7 116.45 75.85 116.25 75.85 119.7 Q74.55 120.65 73.05 120.75 L73.05 120.6" fill="#cd7531" fill-rule="evenodd" stroke="none"/>
    <path d="M85.0 113.0 L85.05 113.1 85.0 113.15 Q72.6 120.9 57.85 124.1 47.2 125.4 39.1 122.35 L39.0 122.25 39.0 122.15 39.1 122.1 39.2 122.1 Q47.2 125.1 57.8 123.85 72.5 120.7 84.8 112.9 L84.95 112.9 85.0 113.0" fill="#461e00" fill-rule="evenodd" stroke="none"/>
    <path d="M84.4 118.55 L84.4 118.85 Q72.7 126.5 58.2 129.7 44.85 131.5 39.15 125.3 L39.15 124.95 Q44.7 131.2 58.15 129.4 72.7 126.3 84.4 118.55" fill="#461e00" fill-rule="evenodd" stroke="none"/>
    <path d="M95.2 96.65 L94.2 106.6 81.35 113.4 84.95 101.3 95.2 96.65" fill="#723505" fill-rule="evenodd" stroke="none"/>
    <path d="M92.65 99.9 L92.65 101.9 86.65 104.5 86.65 102.5 92.65 99.9" fill="#461e00" fill-rule="evenodd" stroke="none"/>
    <path d="M71.3 66.1 L71.3 112.6 68.75 112.6 68.75 66.1 71.3 66.1" fill="#8c4b18" fill-rule="evenodd" stroke="none"/>
    <path d="M69.4 66.35 L69.4 112.85 69.05 112.85 69.05 66.35 69.4 66.35" fill="#af7446" fill-rule="evenodd" stroke="none"/>
    <path d="M71.25 66.2 L71.25 112.7 70.6 112.7 70.6 66.2 71.25 66.2" fill="#723a0e" fill-rule="evenodd" stroke="none"/>
    <path d="M84.3 108.55 L53.0 100.1 Q44.05 84.75 55.95 72.2 L88.25 81.05 Q77.4 94.75 84.3 108.55" fill="url(#gradient2)" fill-rule="evenodd" stroke="none"/>
    <path d="M84.05 46.4 Q90.15 38.45 104.75 35.45" fill="none" stroke="#364e6b" stroke-linecap="round" stroke-linejoin="round" stroke-width="0.5"/>
    <path d="M97.3 49.85 L97.2 49.7 97.25 49.45 Q103.25 41.7 117.25 38.6 L118.1 39.0 Q103.7 41.95 97.7 49.8 L97.55 49.95 97.3 49.85" fill="#364e6b" fill-rule="evenodd" stroke="none"/>
    <path d="M50.2 33.55 Q54.6 40.5 54.95 50.45 55.25 60.35 51.25 67.3 47.4 74.3 41.65 74.3 35.9 74.3 31.45 67.3 27.2 60.35 26.9 50.45 26.55 40.5 30.4 33.55 34.35 26.55 40.1 26.55 45.85 26.55 50.2 33.55" fill="#ffffff" fill-opacity="0.72156864" fill-rule="evenodd" stroke="none"/>
    <path d="M107.3 10.7 L107.45 10.65 111.1 9.25 111.2 9.55 111.3 9.8 107.8 11.05 107.8 21.35 112.4 19.7 112.55 19.7 112.7 19.9 112.7 20.05 112.55 20.25 107.65 22.05 107.45 22.05 107.3 21.95 107.25 21.75 107.25 10.85 107.3 10.7" fill="#364e6b" fill-rule="evenodd" stroke="none"/>
    <path d="M67.15 22.25 L67.4 22.1 67.75 21.85 Q73.85 22.75 74.3 31.65 L74.3 31.75 73.85 31.9 73.75 31.7 Q73.25 23.1 67.4 22.35 L67.15 22.25" fill="#727272" fill-rule="evenodd" stroke="none"/>
    <path d="M81.0 29.55 L80.9 29.7 80.75 29.75 80.5 29.7 80.4 29.6 Q80.05 23.9 76.7 22.05 L78.0 22.3 Q80.7 24.4 81.0 29.55" fill="#727272" fill-rule="evenodd" stroke="none"/>
    <path d="M66.0 23.0 Q67.6 22.7 68.3 23.0 L68.3 23.2 Q61.1 23.1 57.15 28.5 L57.15 28.55 56.2 29.55 55.65 28.75 55.65 28.7 55.75 28.55 55.8 28.5 Q59.1 23.4 65.85 23.0 L66.0 23.0" fill="#ffffff" fill-rule="evenodd" stroke="none"/>
    <path d="M32.45 49.2 Q34.25 46.95 37.15 45.75 40.9 46.1 41.15 50.05 41.4 54.0 38.75 54.25 36.1 54.5 33.35 52.95 30.6 51.35 32.45 49.2" fill="#c41b1b" fill-rule="evenodd" stroke="none"/>
    <path d="M50.25 46.2 Q49.1 40.65 46.7 34.8 44.7 29.95 39.95 29.3 40.15 29.0 40.6 28.8 41.15 28.45 41.8 28.5 48.25 31.95 49.85 39.35 50.6 42.85 50.25 46.2" fill="#ffffff" fill-rule="evenodd" stroke="none"/>
    <path d="M54.8 99.65 Q50.5 88.7 59.75 73.05 L63.7 74.25 Q54.25 88.9 59.5 101.1 L54.8 99.65" fill="url(#gradient3)" fill-rule="evenodd" stroke="none"/>
    <path d="M33.9 41.95 Q34.3 40.35 34.95 38.8 35.35 37.75 36.25 37.3 L34.95 40.45 Q34.6 41.4 33.9 41.95" fill="#ffffff" fill-rule="evenodd" stroke="none"/>
    <path d="M50.25 57.95 L50.85 53.6 Q52.45 59.65 49.3 65.45 47.6 68.45 44.8 69.0 49.45 64.5 50.25 57.95" fill="#ffffff" fill-rule="evenodd" stroke="none"/>
    <path d="M28.75 46.05 Q28.05 50.95 30.05 55.6 L31.7 60.2 Q28.3 56.35 27.95 50.45 27.8 47.95 28.75 46.05" fill="#ffffff" fill-rule="evenodd" stroke="none"/>
    <path d="M42.25 39.0 L42.55 39.0 Q49.35 48.5 46.15 60.2 45.1 63.85 42.2 65.75 40.3 67.0 38.95 66.15 45.0 63.6 45.95 56.55 47.1 48.55 43.85 41.4 43.1 39.9 41.75 39.2 L42.25 39.0" fill="#999999" fill-rule="evenodd" stroke="none"/>
    <path d="M33.0 48.1 Q32.45 47.25 32.55 45.75 32.95 40.35 35.75 35.65 36.45 34.5 37.45 33.7 34.15 37.75 33.5 43.05 L33.0 48.1" fill="#999999" fill-rule="evenodd" stroke="none"/>
    <path d="M78.4 78.35 Q69.6 93.8 74.85 106.35 L70.15 104.85 Q65.85 93.6 74.35 77.2 L78.4 78.35" fill="url(#gradient4)" fill-rule="evenodd" stroke="none"/>
    <path d="M56.65 79.35 L56.65 118.65 54.1 118.65 54.1 79.35 56.65 79.35" fill="#8c4b18" fill-rule="evenodd" stroke="none"/>
    <path d="M54.75 79.55 L54.75 118.85 54.4 118.85 54.4 79.55 54.75 79.55" fill="#af7446" fill-rule="evenodd" stroke="none"/>
    <path d="M63.45 81.6 Q64.8 80.6 65.95 80.6 67.75 80.6 69.0 81.9 L70.3 83.6 69.45 82.8 Q69.05 82.45 68.3 82.45 L67.75 82.45 67.35 82.9 Q68.8 83.15 69.65 86.05 L67.75 84.85 Q66.55 84.05 65.8 84.05 65.3 84.05 64.15 84.9 63.0 85.75 62.35 85.75 61.25 85.75 60.4 85.15 59.5 84.45 58.4 84.45 57.55 84.45 56.65 85.0 L56.35 85.2 56.35 79.05 Q58.25 79.3 58.9 80.75 59.8 82.5 61.15 82.5 62.05 82.5 63.45 81.6" fill="#c40303" fill-rule="evenodd" stroke="none"/>
    <path d="M56.65 79.45 L56.65 118.75 56.0 118.75 56.0 79.45 56.65 79.45" fill="#723a0e" fill-rule="evenodd" stroke="none"/>
    <path d="M39.85 108.35 Q32.0 97.55 43.5 84.15 L71.25 91.9 Q61.85 104.35 68.35 116.25 L39.85 108.35" fill="url(#gradient5)" fill-rule="evenodd" stroke="none"/>
    <path d="M78.35 69.7 Q79.7 70.7 80.85 70.7 82.65 70.7 83.9 69.4 L85.2 67.7 84.35 68.5 Q83.95 68.85 83.2 68.85 L82.65 68.85 82.25 68.4 Q83.7 68.15 84.55 65.25 84.15 65.4 82.65 66.45 81.45 67.25 80.7 67.25 80.2 67.25 79.05 66.4 77.9 65.55 77.25 65.55 76.15 65.55 75.3 66.15 74.4 66.85 73.3 66.85 72.45 66.85 71.55 66.3 L71.25 66.1 71.25 72.25 Q73.15 72.0 73.8 70.55 74.7 68.8 76.05 68.8 76.95 68.8 78.35 69.7" fill="#c40303" fill-rule="evenodd" stroke="none"/>
    <path d="M47.25 110.4 L42.55 109.1 Q38.25 99.35 47.5 85.3 L51.45 86.4 Q42.0 99.5 47.25 110.4" fill="url(#gradient6)" fill-rule="evenodd" stroke="none"/>
    <path d="M62.75 89.45 Q53.95 102.9 59.2 113.8 L54.5 112.5 Q50.2 102.75 58.7 88.5 L62.75 89.45" fill="url(#gradient7)" fill-rule="evenodd" stroke="none"/>
    <path d="M39.85 87.2 L39.5 86.95 Q39.5 86.8 39.85 86.7 L40.75 86.6 41.6 86.7 Q42.0 86.8 42.0 86.95 L41.6 87.2 40.75 87.3 39.85 87.2" fill="#af7446" fill-rule="evenodd" stroke="none"/>
    <path d="M88.35 120.25 L91.3 120.6 Q94.3 121.8 82.3 123.8 84.15 124.3 84.3 124.6 L84.25 124.7 83.05 125.15 Q79.45 125.05 78.35 126.7 L77.55 128.35 Q77.05 129.35 76.25 129.8 72.7 129.8 69.85 130.65 L67.25 131.95 Q65.85 132.75 64.85 132.5 L63.35 132.4 59.85 132.55 Q60.15 133.75 58.45 134.15 57.9 134.15 57.85 133.75 57.8 133.35 57.25 133.35 56.7 133.35 55.75 133.85 L54.3 134.4 51.6 134.05 Q50.0 133.95 48.1 135.3 L47.8 135.25 Q47.65 135.2 47.65 134.55 47.65 133.85 46.85 133.85 L45.3 134.0 40.45 134.4 38.3 134.7 Q36.55 134.55 38.45 132.4 35.45 132.25 36.1 131.2 37.0 129.8 39.45 129.8 L38.85 129.15 38.65 128.6 Q38.4 127.9 38.65 127.25 38.8 126.8 39.3 126.65 40.75 126.7 43.2 130.2 45.7 132.4 51.75 132.4 L56.8 131.75 Q58.75 131.1 60.0 131.1 64.4 131.1 73.05 127.3 82.3 123.35 85.35 119.45 93.05 116.7 88.35 120.25" fill="#2f82b1" fill-rule="evenodd" stroke="none"/>
    <path d="M37.1 121.85 Q35.45 116.75 42.6 107.0 43.5 120.45 52.35 123.75 40.55 125.45 37.1 121.85" fill="url(#gradient8)" fill-rule="evenodd" stroke="none"/>
    <path d="M87.6 119.55 L90.55 119.9 Q93.55 121.1 81.55 123.1 83.4 123.6 83.55 123.9 L83.5 124.0 82.3 124.45 Q78.7 124.35 77.6 126.0 L76.8 127.65 Q76.3 128.65 75.5 129.1 71.95 129.1 69.1 129.95 68.3 130.25 66.5 131.25 65.1 132.05 64.1 131.8 L62.6 131.7 59.1 131.85 Q59.4 133.05 57.7 133.45 57.15 133.45 57.1 133.05 57.05 132.65 56.5 132.65 55.95 132.65 55.0 133.15 54.1 133.7 53.55 133.7 L50.85 133.35 Q49.25 133.25 47.35 134.6 L47.05 134.55 Q46.9 134.5 46.9 133.85 46.9 133.15 46.1 133.15 L44.55 133.3 39.7 133.7 37.55 134.0 Q35.8 133.85 37.7 131.7 34.7 131.55 35.35 130.5 36.25 129.1 38.7 129.1 L38.1 128.45 37.9 127.9 Q37.65 127.2 37.9 126.55 38.05 126.1 38.55 125.95 40.0 126.0 42.45 129.5 44.95 131.7 51.0 131.7 L56.05 131.05 Q58.0 130.4 59.25 130.4 63.65 130.4 72.3 126.6 80.95 122.9 84.2 119.25 85.0 114.95 84.85 112.85 91.95 116.25 87.6 119.55" fill="#ffffff" fill-rule="evenodd" stroke="none"/>
    <path d="M100.55 43.4 Q98.95 41.0 97.65 44.0 L88.1 65.55 Q88.25 66.85 89.25 66.75 L114.9 57.1 115.2 56.65 100.55 43.4" fill="#70c926" fill-rule="evenodd" stroke="none"/>
  </g>
  <defs>
    <linearGradient gradientTransform="matrix(0.0035, -0.0087, 0.0375, 0.0152, 60.25, 31.55)" gradientUnits="userSpaceOnUse" id="gradient0" spreadMethod="pad" x1="-819.2" x2="819.2">
      <stop offset="0.0196078431372549" stop-color="#6e829a"/>
      <stop offset="0.4235294117647059" stop-color="#9eb2c9"/>
      <stop offset="0.9372549019607843" stop-color="#6e829a"/>
    </linearGradient>
    <linearGradient gradientTransform="matrix(0.0038, -0.0159, 0.0138, 0.0032, 106.95, 40.45)" gradientUnits="userSpaceOnUse" id="gradient1" spreadMethod="pad" x1="-819.2" x2="819.2">
      <stop offset="0.0196078431372549" stop-color="#6e829a"/>
      <stop offset="0.4235294117647059" stop-color="#9eb2c9"/>
      <stop offset="0.9372549019607843" stop-color="#6e829a"/>
    </linearGradient>
    <linearGradient gradientTransform="matrix(-0.0044, 0.0192, -0.0236, -0.0053, 69.8, 90.6)" gradientUnits="userSpaceOnUse" id="gradient2" spreadMethod="pad" x1="-819.2" x2="819.2">
      <stop offset="0.0" stop-color="#dbb366"/>
      <stop offset="0.11764705882352941" stop-color="#e0b96f"/>
      <stop offset="0.2196078431372549" stop-color="#efce90"/>
      <stop offset="0.7215686274509804" stop-color="#c69b4a"/>
      <stop offset="1.0" stop-color="#e5b65e"/>
    </linearGradient>
    <linearGradient gradientTransform="matrix(-0.0031, 0.0159, -0.0151, -0.0037, 59.15, 87.25)" gradientUnits="userSpaceOnUse" id="gradient3" spreadMethod="pad" x1="-819.2" x2="819.2">
      <stop offset="0.00392156862745098" stop-color="#a92b2b"/>
      <stop offset="0.1803921568627451" stop-color="#9f3838"/>
      <stop offset="0.6235294117647059" stop-color="#8e2828"/>
      <stop offset="1.0" stop-color="#9c1e1e"/>
    </linearGradient>
    <linearGradient gradientTransform="matrix(-0.0031, 0.0163, -0.0151, -0.0038, 74.5, 92.1)" gradientUnits="userSpaceOnUse" id="gradient4" spreadMethod="pad" x1="-819.2" x2="819.2">
      <stop offset="0.00392156862745098" stop-color="#a92b2b"/>
      <stop offset="0.1803921568627451" stop-color="#c14343"/>
      <stop offset="0.6196078431372549" stop-color="#a33030"/>
      <stop offset="1.0" stop-color="#9c1e1e"/>
    </linearGradient>
    <linearGradient gradientTransform="matrix(-0.0047, 0.0153, -0.0187, -0.0057, 53.0, 100.2)" gradientUnits="userSpaceOnUse" id="gradient5" spreadMethod="pad" x1="-819.2" x2="819.2">
      <stop offset="0.0" stop-color="#dbb366"/>
      <stop offset="0.22745098039215686" stop-color="#ffedcd"/>
      <stop offset="0.6470588235294118" stop-color="#f0d094"/>
      <stop offset="0.7607843137254902" stop-color="#debb7a"/>
      <stop offset="1.0" stop-color="#e5b65e"/>
    </linearGradient>
    <linearGradient gradientTransform="matrix(-0.0031, 0.0142, -0.0151, -0.0033, 46.9, 98.0)" gradientUnits="userSpaceOnUse" id="gradient6" spreadMethod="pad" x1="-819.2" x2="819.2">
      <stop offset="0.00392156862745098" stop-color="#a92b2b"/>
      <stop offset="0.1803921568627451" stop-color="#c14343"/>
      <stop offset="0.6823529411764706" stop-color="#c94b4b"/>
      <stop offset="1.0" stop-color="#9c1e1e"/>
    </linearGradient>
    <linearGradient gradientTransform="matrix(-0.0031, 0.0142, -0.0151, -0.0033, 58.85, 101.4)" gradientUnits="userSpaceOnUse" id="gradient7" spreadMethod="pad" x1="-819.2" x2="819.2">
      <stop offset="0.00392156862745098" stop-color="#a92b2b"/>
      <stop offset="0.1803921568627451" stop-color="#c14343"/>
      <stop offset="0.6823529411764706" stop-color="#c94b4b"/>
      <stop offset="1.0" stop-color="#9c1e1e"/>
    </linearGradient>
    <linearGradient gradientTransform="matrix(-0.0018, 0.0102, -0.0076, -0.0013, 44.1, 116.5)" gradientUnits="userSpaceOnUse" id="gradient8" spreadMethod="pad" x1="-819.2" x2="819.2">
      <stop offset="0.0" stop-color="#e8bd6b"/>
      <stop offset="0.2196078431372549" stop-color="#fffcf7"/>
      <stop offset="1.0" stop-color="#e5b65e"/>
    </linearGradient>
  </defs>
</svg>
