<?xml version="1.0" encoding="UTF-8" standalone="no"?>
<svg xmlns:ffdec="https://www.free-decompiler.com/flash" xmlns:xlink="http://www.w3.org/1999/xlink" ffdec:objectType="shape" height="61.15px" width="23.0px" xmlns="http://www.w3.org/2000/svg">
  <g transform="matrix(1.0, 0.0, 0.0, 1.0, -1.05, -30.6)">
    <path d="M8.7 30.6 Q15.95 37.65 18.35 40.6 L17.45 41.75 Q15.65 44.1 21.3 50.4 26.95 56.7 20.9 63.15 14.8 69.6 17.7 77.65 20.6 85.65 13.35 89.75 6.1 93.85 2.4 89.45 -0.75 85.7 3.5 82.05 L4.0 82.65 Q2.65 83.7 3.15 84.8 4.45 90.4 10.2 86.5 15.95 82.6 11.85 75.5 7.75 68.35 11.6 64.85 15.45 61.3 15.85 58.0 16.15 54.3 9.05 46.9 1.9 39.45 6.65 33.6 L8.7 30.6" fill="#6a3409" fill-rule="evenodd" stroke="none"/>
  </g>
</svg>
