<?xml version="1.0" encoding="UTF-8" standalone="no"?>
<svg xmlns:ffdec="https://www.free-decompiler.com/flash" xmlns:xlink="http://www.w3.org/1999/xlink" ffdec:objectType="shape" height="101.55px" width="117.6px" xmlns="http://www.w3.org/2000/svg">
  <g transform="matrix(1.0, 0.0, 0.0, 1.0, -12.65, -25.3)">
    <path d="M55.5 49.0 Q54.95 48.85 54.95 48.65 54.95 48.4 55.5 48.25 L56.8 48.1 58.05 48.25 Q58.6 48.4 58.6 48.65 L58.05 49.0 56.8 49.15 55.5 49.0" fill="#af7446" fill-rule="evenodd" stroke="none"/>
    <path d="M114.55 96.1 Q99.65 107.25 78.6 107.25 L75.35 107.15 83.7 119.95 85.35 121.8 Q85.95 122.6 85.95 123.6 85.95 124.6 85.25 125.35 L85.25 125.3 Q84.55 126.05 83.55 126.15 50.8 128.25 23.8 124.1 L22.55 123.55 21.8 122.6 21.8 122.2 22.3 115.45 22.3 114.6 Q22.3 114.0 22.55 113.5 22.9 112.7 23.65 112.35 L23.85 112.2 Q21.15 109.55 18.65 106.1 10.3 95.0 13.6 80.0 14.35 76.35 15.85 73.1 L15.85 73.15 Q17.95 67.5 22.05 62.8 L22.15 62.55 25.3 59.2 25.45 59.05 28.25 56.35 Q31.65 45.7 43.1 37.7 L43.2 37.6 Q58.35 26.85 79.35 27.05 100.35 27.3 115.0 38.1 130.35 49.45 130.25 65.5 130.25 68.9 129.6 72.1 128.1 86.0 114.55 96.1" fill="#face79" fill-rule="evenodd" stroke="none"/>
    <path d="M114.55 94.35 Q99.65 105.5 78.6 105.5 L75.35 105.4 83.7 118.2 85.35 120.05 Q85.95 120.85 85.95 121.85 85.95 122.85 85.25 123.6 L85.25 123.55 Q84.55 124.3 83.55 124.4 50.8 126.5 23.8 122.35 L22.55 121.8 21.8 120.85 21.8 120.45 22.3 113.7 22.3 112.85 Q22.3 112.25 22.55 111.75 22.9 110.95 23.65 110.6 L23.85 110.45 Q21.15 107.8 18.65 104.35 10.3 93.25 13.6 78.25 14.35 74.6 15.85 71.35 L15.85 71.4 Q17.95 65.75 22.05 61.05 L22.15 60.8 25.3 57.45 25.45 57.3 28.25 54.6 Q31.65 43.95 43.1 35.95 L43.2 35.85 Q58.35 25.1 79.35 25.3 100.35 25.55 115.0 36.35 130.35 47.7 130.25 63.75 130.25 67.15 129.6 70.35 128.1 84.25 114.55 94.35" fill="#663c02" fill-rule="evenodd" stroke="none"/>
    <path d="M33.1 55.5 Q47.35 46.35 59.55 46.4 56.6 47.95 53.8 49.85 46.25 54.95 41.9 61.55 37.85 67.6 36.05 75.4 33.95 84.5 43.85 94.0 47.75 97.8 54.1 101.7 58.1 99.95 62.1 98.25 L82.95 121.5 Q50.55 123.6 23.8 119.45 22.95 117.1 24.15 114.3 L29.55 112.05 Q24.85 108.55 20.35 102.55 12.75 92.35 15.8 78.5 18.75 64.65 33.1 55.5" fill="#62340f" fill-rule="evenodd" stroke="none"/>
    <path d="M36.75 73.6 Q34.65 82.7 44.6 92.25 48.95 96.45 56.3 100.8 L37.0 113.9 Q28.75 110.95 21.15 100.75 13.5 90.55 16.55 76.75 19.5 62.9 33.85 53.75 48.1 44.6 60.3 44.65 L54.55 48.05 Q47.05 53.15 42.6 59.8 38.55 65.85 36.75 73.6" fill="#469a00" fill-rule="evenodd" stroke="none"/>
    <path d="M126.75 66.45 Q126.75 81.45 112.5 92.0 98.3 102.6 78.2 102.6 58.1 102.6 43.85 92.0 29.6 81.45 29.6 66.45 29.6 51.45 43.85 40.85 58.1 30.3 78.2 30.3 98.3 30.3 112.5 40.85 126.75 51.45 126.75 66.45" fill="#637c83" fill-rule="evenodd" stroke="none"/>
    <path d="M31.15 65.55 Q28.3 74.3 37.05 83.6 45.75 92.9 56.9 96.3 47.9 102.0 38.85 107.65 30.65 104.95 23.15 95.35 15.7 85.8 19.0 72.8 22.2 59.85 36.75 51.25 51.15 42.65 63.35 42.7 60.35 44.15 57.55 45.9 49.9 50.7 41.95 53.7 34.0 56.7 31.15 65.55" fill="#646363" fill-rule="evenodd" stroke="none"/>
    <path d="M30.0 66.7 Q27.15 75.45 35.9 84.75 44.6 94.05 55.75 97.45 L37.7 108.8 Q29.5 106.1 22.0 96.5 14.55 86.95 17.85 73.95 21.05 61.0 35.6 52.4 50.0 43.8 62.2 43.85 59.2 45.3 56.4 47.05 48.75 51.85 40.8 54.85 32.85 57.85 30.0 66.7" fill="url(#gradient0)" fill-rule="evenodd" stroke="none"/>
    <path d="M113.05 38.25 Q127.25 48.7 127.25 63.55 127.25 78.5 112.85 89.1 98.3 99.75 77.9 99.75 57.3 99.7 42.95 88.95 28.5 78.25 29.0 63.1 29.45 48.1 44.35 37.75 58.85 27.5 78.95 27.7 98.95 27.9 113.05 38.25 M126.15 63.55 Q126.15 49.25 112.4 39.1 98.55 29.0 78.95 28.8 59.15 28.6 44.95 38.6 30.55 48.65 30.1 63.15 29.65 77.7 43.6 88.1 57.7 98.6 77.9 98.65 97.9 98.65 112.2 88.2 126.15 77.95 126.15 63.55" fill="#2d4046" fill-rule="evenodd" stroke="none"/>
    <path d="M125.05 61.7 Q125.05 75.8 111.2 85.75 97.2 95.95 77.45 95.95 57.55 95.85 43.7 85.65 29.85 75.5 30.35 61.25 30.75 47.1 45.0 37.35 59.05 27.6 78.5 27.8 97.8 27.95 111.45 37.8 125.05 47.7 125.05 61.7" fill="#c6c6c6" fill-rule="evenodd" stroke="none"/>
    <path d="M117.0 60.8 Q116.8 72.15 105.7 80.65 94.35 89.25 78.1 89.9 61.4 90.55 49.6 82.45 37.55 74.2 37.9 62.05 38.3 49.9 50.8 41.4 62.95 33.15 79.4 33.3 95.4 33.35 106.35 41.45 117.15 49.45 117.0 60.8" fill="#163d48" fill-rule="evenodd" stroke="none"/>
    <path d="M51.1 95.65 L63.35 89.6 71.75 102.4 62.75 102.4 62.75 96.5 53.65 96.5 Q53.35 95.9 51.1 95.65" fill="#646363" fill-rule="evenodd" stroke="none"/>
    <path d="M116.3 60.55 Q116.15 71.4 105.25 79.55 94.1 87.75 78.2 88.35 61.8 88.95 50.2 81.25 38.4 73.4 38.75 61.75 39.15 50.2 51.4 42.1 63.3 34.2 79.45 34.3 95.1 34.4 105.9 42.1 116.45 49.75 116.3 60.55" fill="#d5e1fa" fill-rule="evenodd" stroke="none"/>
    <path d="M116.3 60.55 Q116.15 71.4 105.25 79.55 94.1 87.75 78.2 88.35 61.8 88.95 50.2 81.25 38.4 73.4 38.75 61.75 39.15 50.2 51.4 42.1 63.3 34.2 79.45 34.3 95.1 34.4 105.9 42.1 116.45 49.75 116.3 60.55 Z" fill="none" stroke="#ffffff" stroke-linecap="round" stroke-linejoin="round" stroke-width="0.5"/>
    <path d="M49.3 52.95 Q65.5 35.6 93.3 42.15 L77.9 58.7 49.3 52.95" fill="url(#gradient1)" fill-rule="evenodd" stroke="none"/>
    <path d="M24.9 112.6 L62.75 96.55 82.4 121.55 Q52.65 122.05 24.5 117.75 23.65 115.3 24.9 112.6" fill="#469a00" fill-rule="evenodd" stroke="none"/>
    <path d="M24.5 112.6 L62.75 91.4 82.3 121.25 24.5 112.6" fill="#70c926" fill-rule="evenodd" stroke="none"/>
    <path d="M72.7 65.9 L69.85 64.4 94.1 41.3 72.7 65.9" fill="#666666" fill-rule="evenodd" stroke="none"/>
    <path d="M82.05 36.15 L81.8 38.3 80.3 38.25 80.6 36.1 82.05 36.15 M97.95 42.3 L98.15 42.15 96.9 41.6 98.75 39.8 99.95 40.3 100.2 40.1 97.95 42.3 M111.2 49.55 L111.5 49.95 108.7 50.95 108.4 50.55 108.05 50.05 110.85 49.05 111.2 49.55 M63.9 40.95 L63.3 41.2 62.05 39.35 62.65 39.1 63.35 38.85 64.6 40.7 63.9 40.95 M44.5 60.15 L44.35 61.2 41.25 61.1 41.45 60.05 44.5 60.15 M44.3 72.65 L47.1 71.65 47.45 72.15 47.75 72.55 44.95 73.55 44.65 73.15 44.3 72.65 M48.45 47.5 L50.95 48.65 50.1 49.55 47.6 48.4 48.45 47.5 M74.0 84.45 L75.4 84.45 75.1 86.6 73.65 86.55 74.0 84.45 M92.55 81.45 L93.85 83.35 93.15 83.6 92.55 83.85 91.25 81.95 91.85 81.7 92.55 81.45 M55.9 82.4 L57.7 80.65 58.9 81.15 59.15 81.0 57.15 82.95 55.9 82.4 M104.65 74.25 L105.5 73.4 108.05 74.5 107.2 75.35 104.65 74.25 M111.25 62.85 L111.4 61.85 114.5 61.95 114.35 62.95 111.25 62.85" fill="#000000" fill-rule="evenodd" stroke="none"/>
    <path d="M65.5 37.75 L66.75 40.1 M88.35 36.9 L87.45 38.95 M83.95 38.5 L84.5 36.4 M95.5 38.65 L94.0 40.55 M92.4 37.75 L91.2 39.8 M106.65 48.5 L109.3 47.3 M105.0 46.75 L107.45 45.4 M70.2 39.25 L69.4 36.95 M77.2 38.35 L77.15 36.2 M74.1 38.6 L73.75 36.5 M99.85 43.1 L101.85 41.4 M102.45 44.7 L104.7 43.2 M41.7 58.35 L44.75 58.6 M44.15 63.15 L41.05 63.3 M45.1 67.95 L42.05 68.6 M46.15 70.3 L43.25 71.1 M44.35 65.3 L41.25 65.7 M44.1 52.85 L46.95 53.55 M45.6 50.65 L48.3 51.55 M42.65 55.7 L45.55 56.2 M52.35 43.75 L54.8 45.5 M49.95 46.05 L52.3 47.4 M56.0 41.85 L57.95 43.65 M59.0 40.6 L60.55 42.35 M67.15 85.9 L68.05 83.8 M78.45 86.6 L78.4 84.45 M71.0 86.4 L71.55 84.3 M82.05 86.25 L81.65 84.15 M86.2 85.6 L85.5 83.55 M90.0 84.6 L88.95 82.7 M53.75 81.45 L55.8 79.75 M48.2 77.45 L50.65 76.1 M50.9 79.7 L53.2 78.15 M46.25 75.55 L48.95 74.35 M63.1 85.0 L64.35 83.05 M59.95 84.15 L61.45 82.2 M110.5 54.85 L113.5 54.2 M94.8 80.55 L96.35 82.35 M100.55 77.45 L102.7 78.95 M103.1 75.6 L105.45 76.9 M97.5 79.25 L99.35 80.9 M107.0 71.55 L109.7 72.45 M108.4 69.5 L111.25 70.25 M109.75 66.95 L112.75 67.4 M110.75 64.5 L113.75 64.75 M111.45 59.6 L114.5 59.45 M111.2 57.45 L114.25 57.1 M109.4 52.5 L112.35 51.65" fill="none" stroke="#000000" stroke-linecap="butt" stroke-linejoin="round" stroke-width="0.8"/>
    <path d="M77.05 56.75 Q78.4 56.75 79.4 57.4 80.5 58.15 80.5 59.05 80.5 59.95 79.4 60.65 78.4 61.35 77.05 61.35 75.65 61.35 74.55 60.65 73.55 59.95 73.55 59.05 73.55 58.15 74.55 57.4 75.65 56.75 77.05 56.75" fill="#000000" fill-rule="evenodd" stroke="none"/>
    <path d="M49.95 52.9 L85.25 58.95 83.4 62.1 49.95 52.9" fill="#000000" fill-rule="evenodd" stroke="none"/>
    <path d="M55.55 43.5 Q63.9 38.2 75.7 37.8 87.5 37.35 94.65 41.65 101.75 46.0 103.35 51.25 95.8 49.6 86.65 49.8 71.4 50.25 60.7 55.95 52.75 60.25 50.75 65.6 47.15 61.5 47.15 56.3 47.3 48.85 55.55 43.5" fill="url(#gradient2)" fill-rule="evenodd" stroke="none"/>
    <path d="M54.15 53.85 L54.1 53.85 Q60.4 47.95 70.75 45.85 60.95 48.5 55.35 53.9 L54.15 53.85 M52.95 53.35 L51.55 53.35 Q58.5 45.5 72.35 43.55 59.0 46.25 52.95 53.35 M68.85 48.5 Q61.95 50.7 58.25 54.55 L57.55 54.25 Q61.45 50.1 68.85 48.5" fill="#b63f29" fill-rule="evenodd" stroke="none"/>
    <path d="M17.7 74.6 Q16.3 85.15 21.05 92.2 25.7 99.25 31.0 103.0 36.2 106.75 36.25 107.6 L29.25 111.8 72.6 119.85 24.5 112.6 34.15 107.3 Q27.85 103.95 22.05 96.5 14.8 87.2 17.7 74.6" fill="#7aee1a" fill-opacity="0.9411765" fill-rule="evenodd" stroke="none"/>
    <path d="M105.1 79.4 Q94.0 87.55 78.15 88.2 61.85 88.75 50.35 81.1 38.6 73.35 38.95 61.8 39.35 50.3 51.5 42.25 63.35 34.45 79.4 34.55 95.05 34.65 105.75 42.3 116.2 49.85 116.05 60.55 115.9 71.35 105.1 79.4" fill="url(#gradient3)" fill-rule="evenodd" stroke="none"/>
  </g>
  <defs>
    <linearGradient gradientTransform="matrix(-0.0054, -0.0131, 0.0328, -0.0135, 42.75, 72.85)" gradientUnits="userSpaceOnUse" id="gradient0" spreadMethod="pad" x1="-819.2" x2="819.2">
      <stop offset="0.09019607843137255" stop-color="#70c926" stop-opacity="0.98039216"/>
      <stop offset="0.9294117647058824" stop-color="#4b9a09" stop-opacity="0.9764706"/>
    </linearGradient>
    <linearGradient gradientTransform="matrix(0.0269, 0.0, 0.0, 0.0104, 71.25, 48.85)" gradientUnits="userSpaceOnUse" id="gradient1" spreadMethod="pad" x1="-819.2" x2="819.2">
      <stop offset="0.36470588235294116" stop-color="#e53919"/>
      <stop offset="0.9058823529411765" stop-color="#ff8069"/>
    </linearGradient>
    <linearGradient gradientTransform="matrix(0.0057, 0.0129, -0.0225, 0.0087, 72.25, 48.75)" gradientUnits="userSpaceOnUse" id="gradient2" spreadMethod="pad" x1="-819.2" x2="819.2">
      <stop offset="0.14901960784313725" stop-color="#ffffff" stop-opacity="0.98039216"/>
      <stop offset="0.8980392156862745" stop-color="#ffffff" stop-opacity="0.019607844"/>
    </linearGradient>
    <radialGradient cx="0" cy="0" gradientTransform="matrix(0.0492, 0.0, 0.0, 0.0361, 77.0, 60.4)" gradientUnits="userSpaceOnUse" id="gradient3" r="819.2" spreadMethod="pad">
      <stop offset="0.6705882352941176" stop-color="#000000" stop-opacity="0.0"/>
      <stop offset="1.0" stop-color="#000000" stop-opacity="0.6784314"/>
    </radialGradient>
  </defs>
</svg>
