<?xml version="1.0" encoding="UTF-8" standalone="no"?>
<svg xmlns:ffdec="https://www.free-decompiler.com/flash" xmlns:xlink="http://www.w3.org/1999/xlink" ffdec:objectType="shape" height="102.55px" width="98.85px" xmlns="http://www.w3.org/2000/svg">
  <g transform="matrix(1.0, 0.0, 0.0, 1.0, -25.6, -19.7)">
    <path d="M56.8 49.15 L55.5 49.0 Q54.95 48.85 54.95 48.65 54.95 48.4 55.5 48.25 L56.8 48.1 58.05 48.25 Q58.6 48.4 58.6 48.65 L58.05 49.0 56.8 49.15" fill="#af7446" fill-rule="evenodd" stroke="none"/>
    <path d="M48.0 77.1 Q49.1 93.8 59.95 98.0 L60.65 98.65 Q60.95 99.0 60.9 99.5 L60.5 100.4 59.65 100.85 Q43.0 103.2 38.25 97.85 L37.9 97.3 Q35.35 90.05 45.4 76.3 45.7 75.95 46.15 75.8 46.5 75.65 47.0 75.8 L47.7 76.3 48.0 77.1" fill="#64350d" fill-rule="evenodd" stroke="none"/>
    <path d="M29.95 92.15 Q26.8 89.4 30.95 86.1 L42.05 90.05 46.15 89.7 46.35 90.3 Q65.95 81.8 86.2 76.15 L99.05 80.35 104.8 80.85 61.85 96.4 46.1 92.4 45.85 92.65 44.55 93.45 43.2 97.05 29.95 92.15" fill="#64350d" fill-rule="evenodd" stroke="none"/>
    <path d="M121.5 99.4 Q110.9 112.2 99.6 114.1 88.15 116.05 84.05 119.95 80.05 123.85 71.25 121.15 62.45 118.45 56.65 118.9 L37.3 119.5 Q23.7 119.7 25.9 114.75 27.45 111.1 35.3 109.0 40.2 105.95 35.1 105.45 23.05 98.4 33.15 97.45 L50.2 95.7 62.4 93.8 103.5 86.2 Q115.05 83.65 110.05 92.5 121.55 91.7 122.5 94.3 123.4 97.0 121.5 99.4" fill="#e7ab5b" fill-rule="evenodd" stroke="none"/>
    <path d="M83.95 21.35 Q84.45 21.35 84.8 21.75 L84.95 21.8 Q85.75 22.35 86.55 22.35 87.65 22.35 88.45 21.75 L88.5 21.75 Q90.0 20.7 91.8 20.7 92.9 20.65 94.9 22.0 L94.95 22.0 Q96.0 22.8 96.95 23.25 97.85 23.6 100.4 22.35 102.75 21.2 103.2 19.7 L102.7 21.85 102.15 23.5 102.3 24.1 Q102.6 23.4 103.75 22.65 104.85 21.95 104.9 22.5 104.9 23.05 103.75 25.0 102.5 26.95 101.5 27.85 L101.55 27.85 Q99.45 29.95 96.6 29.95 94.75 30.05 92.6 28.45 L92.6 28.5 Q91.1 27.5 90.25 27.45 89.15 27.55 88.45 29.0 L88.4 29.05 Q87.45 31.15 85.15 31.75 L85.15 35.25 109.65 41.65 Q101.4 51.75 100.85 58.55 97.1 67.85 102.3 78.3 102.55 78.7 102.35 79.2 L101.8 79.95 100.9 80.1 85.15 75.8 85.15 84.3 Q85.15 84.8 84.8 85.15 84.45 85.55 83.95 85.55 L80.55 85.55 Q80.05 85.55 79.65 85.15 L79.55 84.95 Q80.15 86.7 81.15 88.45 81.35 88.85 81.2 89.35 L80.65 90.1 79.75 90.25 42.0 79.8 41.3 79.3 Q30.15 64.25 46.2 45.7 46.45 45.45 46.8 45.3 L47.5 45.3 53.6 47.05 Q54.9 38.0 62.7 29.85 L63.25 29.5 Q63.6 29.35 63.9 29.5 L79.3 33.6 79.3 22.6 Q79.3 22.1 79.65 21.75 80.05 21.35 80.55 21.35 L83.95 21.35 M79.3 84.3 L79.3 74.2 77.85 73.85 Q77.4 79.15 79.3 84.4 L79.3 84.3" fill="#64350d" fill-rule="evenodd" stroke="none"/>
    <path d="M124.4 90.6 Q123.6 95.7 121.7 98.1 111.1 110.9 99.75 112.8 88.35 114.75 84.25 118.65 80.2 122.55 71.45 119.85 62.65 117.15 56.85 117.6 L37.45 118.2 Q23.85 118.4 26.1 113.45 27.65 109.8 35.5 107.7 40.4 104.65 35.3 104.15 23.5 98.2 33.45 96.8 L50.4 94.45 62.6 92.5 103.65 84.9 Q102.5 79.7 110.8 79.55 115.5 81.4 110.85 88.0 125.2 85.55 124.4 90.6" fill="#64350d" fill-rule="evenodd" stroke="none"/>
    <path d="M51.6 87.45 L51.6 98.4 44.6 102.15 40.9 92.95 Q43.95 88.95 51.6 87.45" fill="#cd7531" fill-rule="evenodd" stroke="none"/>
    <path d="M110.15 88.6 Q121.65 87.85 122.6 90.45 123.5 93.1 121.55 95.5 111.0 108.3 99.65 110.25 88.25 112.15 84.2 116.05 80.15 119.95 71.4 117.25 62.55 114.6 56.75 115.0 L37.4 115.6 Q23.8 115.8 26.05 110.85 27.55 107.2 35.45 105.1 40.25 102.1 35.2 101.55 25.45 99.25 35.5 96.15 43.65 93.55 52.3 91.9 L62.5 89.95 103.55 82.35 Q115.15 79.8 110.15 88.6" fill="#46a5db" fill-rule="evenodd" stroke="none"/>
    <path d="M41.35 93.55 Q62.5 84.1 84.3 78.05 L103.0 82.75 60.0 98.3 41.35 93.55" fill="#cd7531" fill-rule="evenodd" stroke="none"/>
    <path d="M51.6 88.0 L51.6 98.95 44.6 102.7 40.9 93.5 Q43.95 89.5 51.6 88.0" fill="#723505" fill-rule="evenodd" stroke="none"/>
    <path d="M103.0 83.35 L60.0 98.9 41.35 94.15 Q62.5 84.7 84.3 78.65 L97.2 82.85 103.0 83.35" fill="#723505" fill-rule="evenodd" stroke="none"/>
    <path d="M46.15 95.55 Q56.95 89.2 84.8 80.9 L101.3 84.15 63.25 100.35 46.15 95.55" fill="#4d2101" fill-rule="evenodd" stroke="none"/>
    <path d="M116.4 76.6 L99.45 85.7 103.9 70.5 89.15 66.15 98.95 57.8 117.85 63.0 116.4 76.6" fill="#64350d" fill-rule="evenodd" stroke="none"/>
    <path d="M100.65 58.75 L99.05 73.55 82.3 81.0 86.65 65.6 100.65 58.75" fill="#723505" fill-rule="evenodd" stroke="none"/>
    <path d="M116.35 64.0 L102.8 70.7 87.5 66.25 101.05 59.55 116.35 64.0" fill="#93501c" fill-rule="evenodd" stroke="none"/>
    <path d="M101.55 69.3 L96.95 85.3 84.75 81.05 91.15 65.7 101.55 69.3" fill="#7b3f11" fill-rule="evenodd" stroke="none"/>
    <path d="M87.6 79.95 L101.85 84.3 63.8 100.5 46.7 95.7 Q57.5 89.35 85.35 81.05 86.4 80.5 87.6 79.95" fill="#93501c" fill-rule="evenodd" stroke="none"/>
    <path d="M103.4 79.8 L101.45 94.1 Q81.95 107.35 58.5 108.5 L57.9 96.7 Q78.7 93.55 98.65 82.6 L103.4 79.8" fill="#cd7531" fill-rule="evenodd" stroke="none"/>
    <path d="M63.3 105.2 L57.0 108.65 Q44.85 105.55 41.2 96.2 L40.65 91.75 Q51.9 94.35 62.6 91.95 L63.3 92.45 63.3 105.2" fill="#cd7531" fill-rule="evenodd" stroke="none"/>
    <path d="M101.45 94.85 Q82.15 107.95 61.4 110.55 L58.5 110.6 57.9 97.45 Q84.2 92.55 103.4 80.5 L101.45 94.85" fill="#723505" fill-rule="evenodd" stroke="none"/>
    <path d="M63.25 92.45 L63.25 105.9 58.65 110.7 Q41.9 110.4 41.15 96.95 L40.6 92.45 Q52.2 95.1 63.25 92.45" fill="#723505" fill-rule="evenodd" stroke="none"/>
    <path d="M30.75 89.95 Q34.7 92.8 39.75 94.25 L41.7 95.05 Q43.25 95.85 43.9 95.05 L44.05 95.15 Q43.6 95.65 42.75 95.95 L30.5 90.8 30.75 89.95 M44.45 94.5 Q43.1 93.6 41.5 93.05 L31.1 89.05 30.95 89.05 31.45 87.05 44.35 92.15 Q44.9 93.55 44.45 94.5" fill="#723505" fill-rule="evenodd" stroke="none"/>
    <path d="M30.75 89.95 L30.95 89.05 31.1 89.05 41.5 93.05 Q43.1 93.6 44.45 94.5 L44.05 95.15 43.9 95.05 Q43.25 95.85 41.7 95.05 L39.75 94.25 Q34.7 92.8 30.75 89.95" fill="#642f06" fill-rule="evenodd" stroke="none"/>
    <path d="M31.85 86.9 Q32.3 87.1 32.4 87.75 L32.25 89.25 Q31.95 90.1 31.4 90.55 30.85 91.05 30.4 90.85 29.95 90.7 29.85 90.0 29.75 89.3 30.05 88.45 30.35 87.65 30.85 87.2 31.4 86.75 31.85 86.9" fill="#9f541a" fill-rule="evenodd" stroke="none"/>
    <path d="M75.6 95.25 L75.65 96.1 75.9 99.15 72.4 100.5 72.4 96.15 Q74.15 96.1 75.6 95.25" fill="#461e00" fill-rule="evenodd" stroke="none"/>
    <path d="M75.6 95.25 L75.9 95.0 76.1 94.8 76.1 99.35 Q74.35 100.6 72.4 100.7 L72.4 100.5 75.9 99.15 75.65 96.1 75.6 95.25" fill="#cd7531" fill-rule="evenodd" stroke="none"/>
    <path d="M102.25 89.15 L102.35 89.2 102.4 89.35 102.35 89.4 Q86.65 99.85 67.1 104.1 48.95 106.55 41.65 99.35 L41.65 99.2 41.65 99.05 41.8 99.05 41.95 99.05 Q49.1 106.15 67.05 103.75 86.5 99.55 102.1 89.15 L102.25 89.15" fill="#461e00" fill-rule="evenodd" stroke="none"/>
    <path d="M83.1 92.55 L83.15 93.4 83.4 96.45 Q81.65 97.35 79.9 97.8 L79.9 93.45 Q81.65 93.4 83.1 92.55" fill="#461e00" fill-rule="evenodd" stroke="none"/>
    <path d="M79.9 97.8 Q81.65 97.35 83.4 96.45 L83.15 93.4 83.1 92.55 83.4 92.3 83.6 92.1 83.6 96.65 Q81.85 97.9 79.9 98.0 L79.9 97.8" fill="#cd7531" fill-rule="evenodd" stroke="none"/>
    <path d="M89.9 90.0 L89.95 90.85 90.2 93.9 Q88.45 94.8 86.7 95.25 L86.7 90.9 Q88.45 90.85 89.9 90.0" fill="#461e00" fill-rule="evenodd" stroke="none"/>
    <path d="M89.9 90.0 L90.2 89.75 90.4 89.55 90.4 94.1 Q88.65 95.35 86.7 95.45 L86.7 95.25 Q88.45 94.8 90.2 93.9 L89.95 90.85 89.9 90.0" fill="#cd7531" fill-rule="evenodd" stroke="none"/>
    <path d="M102.55 85.0 L102.6 85.1 102.7 85.2 102.6 85.3 Q86.2 95.55 66.65 99.85 52.55 101.55 41.8 97.5 L41.7 97.4 41.7 97.25 41.8 97.15 41.95 97.15 Q52.55 101.15 66.6 99.45 86.05 95.3 102.4 85.0 L102.55 85.0" fill="#461e00" fill-rule="evenodd" stroke="none"/>
    <path d="M101.85 92.45 L101.85 92.9 Q86.35 103.0 67.1 107.2 49.45 109.6 41.85 101.45 L41.85 100.9 Q49.25 109.25 67.05 106.85 86.35 102.75 101.85 92.45" fill="#461e00" fill-rule="evenodd" stroke="none"/>
    <path d="M102.5 69.65 L116.15 63.5 Q115.4 70.05 114.8 76.65 L97.8 85.75 102.5 69.65" fill="#723505" fill-rule="evenodd" stroke="none"/>
    <path d="M112.7 67.75 L112.7 70.4 104.75 73.9 104.75 71.25 112.7 67.75" fill="#461e00" fill-rule="evenodd" stroke="none"/>
    <path d="M84.5 23.0 L84.5 84.65 81.1 84.65 81.1 23.0 84.5 23.0" fill="#8c4b18" fill-rule="evenodd" stroke="none"/>
    <path d="M81.95 23.25 L81.95 84.9 81.5 84.9 81.5 23.25 81.95 23.25" fill="#af7446" fill-rule="evenodd" stroke="none"/>
    <path d="M84.5 23.05 L84.5 84.7 83.65 84.7 83.65 23.05 84.5 23.05" fill="#723a0e" fill-rule="evenodd" stroke="none"/>
    <path d="M101.75 79.2 L60.25 68.0 Q48.4 47.7 64.15 31.05 L106.95 42.75 Q92.55 60.9 101.75 79.2" fill="url(#gradient0)" fill-rule="evenodd" stroke="none"/>
    <path d="M68.85 69.5 L62.6 67.55 Q56.9 53.05 69.15 32.25 L74.4 33.9 Q61.9 53.3 68.85 69.5" fill="url(#gradient1)" fill-rule="evenodd" stroke="none"/>
    <path d="M88.45 37.7 L93.8 39.2 Q82.15 59.65 89.1 76.3 L82.85 74.3 Q77.15 59.4 88.45 37.7" fill="url(#gradient2)" fill-rule="evenodd" stroke="none"/>
    <path d="M65.1 40.55 L65.1 92.6 61.7 92.6 61.7 40.55 65.1 40.55" fill="#8c4b18" fill-rule="evenodd" stroke="none"/>
    <path d="M62.6 40.85 L62.6 92.9 62.15 92.9 62.15 40.85 62.6 40.85" fill="#af7446" fill-rule="evenodd" stroke="none"/>
    <path d="M70.95 44.75 Q72.15 44.75 74.0 43.5 75.8 42.2 77.35 42.2 79.7 42.2 81.4 43.95 L83.05 46.2 81.95 45.1 Q81.45 44.7 80.45 44.7 L79.7 44.7 79.15 45.25 Q81.1 45.6 82.25 49.45 81.7 49.25 79.7 47.85 78.15 46.75 77.1 46.75 76.45 46.75 74.95 47.95 73.45 49.0 72.55 49.0 71.1 49.0 69.95 48.2 68.8 47.35 67.3 47.35 66.2 47.35 64.95 48.1 L64.6 48.3 64.6 40.2 Q67.15 40.5 68.0 42.45 69.15 44.75 70.95 44.75" fill="url(#gradient3)" fill-rule="evenodd" stroke="none"/>
    <path d="M65.05 40.8 L65.05 92.85 64.2 92.85 64.2 40.8 65.05 40.8" fill="#723a0e" fill-rule="evenodd" stroke="none"/>
    <path d="M47.65 46.9 L84.4 57.15 Q71.95 73.65 80.55 89.4 L42.8 78.95 Q32.4 64.6 47.65 46.9" fill="url(#gradient4)" fill-rule="evenodd" stroke="none"/>
    <path d="M90.7 26.55 Q91.9 26.55 93.75 27.8 95.55 29.1 97.1 29.1 99.45 29.1 101.15 27.35 L102.8 25.1 101.7 26.2 Q101.2 26.6 100.2 26.6 L99.45 26.6 98.9 26.05 Q100.85 25.7 102.0 21.85 101.45 22.05 99.45 23.45 97.9 24.55 96.85 24.55 96.2 24.55 94.7 23.35 93.2 22.3 92.3 22.3 90.85 22.3 89.7 23.1 88.55 23.95 87.05 23.95 85.95 23.95 84.7 23.2 L84.35 23.0 84.35 31.1 Q86.9 30.8 87.75 28.85 88.9 26.55 90.7 26.55" fill="url(#gradient5)" fill-rule="evenodd" stroke="none"/>
    <path d="M58.2 49.85 Q45.7 67.2 52.65 81.7 L46.4 79.95 Q40.7 67.0 52.95 48.4 L58.2 49.85" fill="url(#gradient6)" fill-rule="evenodd" stroke="none"/>
    <path d="M67.9 52.65 L73.25 53.95 Q61.6 71.75 68.55 86.25 L62.3 84.5 Q56.6 71.55 67.9 52.65" fill="url(#gradient7)" fill-rule="evenodd" stroke="none"/>
    <path d="M63.35 41.1 L62.1 40.95 61.55 40.6 62.1 40.25 63.35 40.1 64.65 40.25 65.15 40.6 64.65 40.95 63.35 41.1" fill="#af7446" fill-rule="evenodd" stroke="none"/>
    <path d="M107.0 94.65 L110.9 95.15 Q114.9 96.75 98.95 99.35 101.4 100.1 101.65 100.45 L101.55 100.6 100.0 101.15 Q95.2 101.0 93.75 103.25 L92.65 105.45 Q92.0 106.75 90.95 107.3 86.25 107.3 82.45 108.45 81.4 108.85 79.0 110.2 77.2 111.2 75.8 110.95 L73.85 110.8 69.25 111.0 Q69.6 112.6 67.35 113.1 66.65 113.1 66.55 112.6 66.5 112.0 65.75 112.0 65.05 112.0 63.8 112.75 62.6 113.45 61.85 113.45 L58.3 112.95 Q56.15 112.8 53.7 114.6 L53.25 114.55 Q53.05 114.5 53.05 113.6 53.05 112.75 52.0 112.75 L49.95 112.9 43.5 113.45 Q42.5 114.05 40.65 113.85 38.35 113.6 40.9 110.8 36.9 110.55 37.8 109.2 38.95 107.3 42.2 107.3 L41.4 106.45 41.1 105.75 Q40.8 104.85 41.1 104.0 41.3 103.35 41.95 103.2 43.9 103.25 47.2 107.9 50.5 110.8 58.45 110.8 62.6 110.8 65.2 109.9 67.8 109.05 69.45 109.05 75.25 109.05 86.75 104.05 98.95 98.8 103.0 93.65 113.2 89.95 107.0 94.65" fill="#2f82b1" fill-rule="evenodd" stroke="none"/>
    <path d="M39.2 96.8 Q37.05 90.05 46.55 77.15 47.65 95.0 59.4 99.35 43.75 101.55 39.2 96.8" fill="url(#gradient8)" fill-rule="evenodd" stroke="none"/>
    <path d="M106.1 93.75 L110.0 94.25 Q114.0 95.85 98.05 98.45 100.5 99.2 100.75 99.55 L100.65 99.7 99.1 100.25 Q94.3 100.1 92.85 102.35 L91.75 104.55 Q91.1 105.85 90.05 106.4 85.35 106.4 81.55 107.55 80.5 107.95 78.1 109.3 76.3 110.3 74.9 110.05 L72.95 109.9 68.35 110.1 Q68.7 111.7 66.45 112.2 65.75 112.2 65.65 111.7 65.6 111.1 64.85 111.1 64.15 111.1 62.9 111.85 61.7 112.55 60.95 112.55 L57.4 112.05 Q55.25 111.9 52.8 113.7 L52.35 113.65 Q52.15 113.6 52.15 112.7 52.15 111.85 51.1 111.85 L49.05 112.0 42.6 112.55 Q41.6 113.15 39.75 112.95 37.45 112.7 40.0 109.9 36.0 109.65 36.9 108.3 38.05 106.4 41.3 106.4 40.25 105.6 40.5 105.55 L40.2 104.85 Q39.9 103.95 40.2 103.1 40.4 102.45 41.05 102.3 43.0 102.35 46.3 107.0 49.6 109.9 57.55 109.9 61.7 109.9 64.3 109.0 66.9 108.15 68.55 108.15 74.35 108.15 85.85 103.15 97.25 98.25 101.6 93.4 102.6 87.7 102.5 84.95 111.9 89.4 106.1 93.75" fill="#ffffff" fill-rule="evenodd" stroke="none"/>
  </g>
  <defs>
    <linearGradient gradientTransform="matrix(-0.0028, 0.0159, -0.0119, -0.0021, -333.6, -11.2)" gradientUnits="userSpaceOnUse" id="gradient0" spreadMethod="pad" x1="-819.2" x2="819.2">
      <stop offset="0.2196078431372549" stop-color="#fffcf7"/>
      <stop offset="1.0" stop-color="#a8a8a8"/>
    </linearGradient>
    <linearGradient gradientTransform="matrix(-0.0041, 0.021, -0.02, -0.0049, 68.35, 51.1)" gradientUnits="userSpaceOnUse" id="gradient1" spreadMethod="pad" x1="-819.2" x2="819.2">
      <stop offset="0.050980392156862744" stop-color="#020000"/>
      <stop offset="0.3411764705882353" stop-color="#534d43"/>
      <stop offset="0.6823529411764706" stop-color="#6b6457"/>
      <stop offset="1.0" stop-color="#000000"/>
    </linearGradient>
    <linearGradient gradientTransform="matrix(-0.0041, 0.0216, -0.02, -0.005, 88.6, 57.45)" gradientUnits="userSpaceOnUse" id="gradient2" spreadMethod="pad" x1="-819.2" x2="819.2">
      <stop offset="0.050980392156862744" stop-color="#020000"/>
      <stop offset="0.3411764705882353" stop-color="#534d43"/>
      <stop offset="0.6823529411764706" stop-color="#6b6457"/>
      <stop offset="1.0" stop-color="#000000"/>
    </linearGradient>
    <linearGradient gradientTransform="matrix(-0.0041, 0.0188, -0.02, -0.0044, 51.6, 64.7)" gradientUnits="userSpaceOnUse" id="gradient3" spreadMethod="pad" x1="-819.2" x2="819.2">
      <stop offset="0.050980392156862744" stop-color="#020000"/>
      <stop offset="0.3411764705882353" stop-color="#534d43"/>
      <stop offset="0.6823529411764706" stop-color="#6b6457"/>
      <stop offset="1.0" stop-color="#000000"/>
    </linearGradient>
    <linearGradient gradientTransform="matrix(-0.0028, 0.0159, -0.0119, -0.0021, -333.6, -11.2)" gradientUnits="userSpaceOnUse" id="gradient4" spreadMethod="pad" x1="-819.2" x2="819.2">
      <stop offset="0.2196078431372549" stop-color="#fffcf7"/>
      <stop offset="1.0" stop-color="#a8a8a8"/>
    </linearGradient>
    <linearGradient gradientTransform="matrix(-0.0041, -0.0188, -0.02, 0.0044, 71.35, 6.6)" gradientUnits="userSpaceOnUse" id="gradient5" spreadMethod="pad" x1="-819.2" x2="819.2">
      <stop offset="0.050980392156862744" stop-color="#020000"/>
      <stop offset="0.3411764705882353" stop-color="#534d43"/>
      <stop offset="0.6823529411764706" stop-color="#6b6457"/>
      <stop offset="1.0" stop-color="#000000"/>
    </linearGradient>
    <linearGradient gradientTransform="matrix(-0.0041, 0.0188, -0.02, -0.0044, 52.15, 65.25)" gradientUnits="userSpaceOnUse" id="gradient6" spreadMethod="pad" x1="-819.2" x2="819.2">
      <stop offset="0.050980392156862744" stop-color="#020000"/>
      <stop offset="0.3411764705882353" stop-color="#534d43"/>
      <stop offset="0.6823529411764706" stop-color="#6b6457"/>
      <stop offset="1.0" stop-color="#000000"/>
    </linearGradient>
    <linearGradient gradientTransform="matrix(-0.0041, 0.0188, -0.02, -0.0044, 68.05, 69.8)" gradientUnits="userSpaceOnUse" id="gradient7" spreadMethod="pad" x1="-819.2" x2="819.2">
      <stop offset="0.050980392156862744" stop-color="#020000"/>
      <stop offset="0.3411764705882353" stop-color="#534d43"/>
      <stop offset="0.6823529411764706" stop-color="#6b6457"/>
      <stop offset="1.0" stop-color="#000000"/>
    </linearGradient>
    <linearGradient gradientTransform="matrix(-0.0024, 0.0135, -0.0101, -0.0018, 48.45, 89.75)" gradientUnits="userSpaceOnUse" id="gradient8" spreadMethod="pad" x1="-819.2" x2="819.2">
      <stop offset="0.2196078431372549" stop-color="#fffcf7"/>
      <stop offset="1.0" stop-color="#a8a8a8"/>
    </linearGradient>
  </defs>
</svg>
