<?xml version="1.0" encoding="UTF-8" standalone="no"?>
<svg xmlns:ffdec="https://www.free-decompiler.com/flash" xmlns:xlink="http://www.w3.org/1999/xlink" ffdec:objectType="shape" height="102.65px" width="102.65px" xmlns="http://www.w3.org/2000/svg">
  <g transform="matrix(1.0, 0.0, 0.0, 1.0, -12.0, -12.05)">
    <path d="M108.35 63.35 Q108.35 44.7 95.2 31.55 82.0 18.35 63.35 18.35 44.7 18.35 31.5 31.55 18.3 44.7 18.3 63.35 18.3 82.0 31.5 95.2 44.7 108.4 63.35 108.4 82.0 108.4 95.2 95.2 108.35 82.0 108.35 63.35 M99.65 27.1 Q114.65 42.1 114.65 63.35 114.65 84.6 99.65 99.65 84.6 114.7 63.35 114.7 42.1 114.7 27.05 99.65 12.0 84.6 12.0 63.35 12.0 42.1 27.05 27.1 42.1 12.05 63.35 12.05 84.6 12.05 99.65 27.1" fill="#c40101" fill-rule="evenodd" stroke="none"/>
    <path d="M59.35 59.35 Q60.95 57.7 63.3 57.7 65.6 57.7 67.25 59.35 68.9 61.0 68.9 63.35 68.9 65.65 67.25 67.3 65.6 68.95 63.3 68.95 60.95 68.95 59.35 67.3 57.65 65.65 57.65 63.35 57.65 61.0 59.35 59.35" fill="#c40101" fill-rule="evenodd" stroke="none"/>
    <path d="M91.7 87.85 L100.2 96.35 95.95 100.6 87.45 92.1 Q87.85 87.7 91.7 87.85" fill="#c40101" fill-rule="evenodd" stroke="none"/>
    <path d="M34.45 39.1 L26.55 31.2 30.8 26.95 38.8 35.35 Q38.2 39.95 34.45 39.1" fill="#c40101" fill-rule="evenodd" stroke="none"/>
    <path d="M39.65 91.5 L29.7 101.45 25.45 97.2 35.4 87.25 Q39.5 87.05 39.65 91.5" fill="#c40101" fill-rule="evenodd" stroke="none"/>
    <path d="M87.25 35.1 L96.85 25.5 101.1 29.75 91.5 39.35 Q87.3 39.55 87.25 35.1" fill="#c40101" fill-rule="evenodd" stroke="none"/>
  </g>
</svg>
