<?xml version="1.0" encoding="UTF-8" standalone="no"?>
<svg xmlns:ffdec="https://www.free-decompiler.com/flash" xmlns:xlink="http://www.w3.org/1999/xlink" ffdec:objectType="shape" height="43.85px" width="23.6px" xmlns="http://www.w3.org/2000/svg">
  <g transform="matrix(1.0, 0.0, 0.0, 1.0, -22.05, -38.3)">
    <path d="M23.15 41.05 Q23.4 39.25 24.4 38.3 22.9 43.1 23.15 41.05 M41.5 81.05 Q34.7 83.8 33.65 79.75 32.6 75.65 35.75 75.1 L36.5 75.05 Q36.15 75.25 35.8 76.55 35.4 77.85 37.05 78.1 L38.4 78.05 Q44.0 73.95 38.2 68.5 32.4 63.0 26.85 61.45 22.95 60.35 22.3 56.3 21.35 51.0 24.35 38.65 23.25 48.4 31.35 53.55 39.65 58.75 44.0 68.55 48.3 78.3 41.5 81.05" fill="#6a3409" fill-rule="evenodd" stroke="none"/>
  </g>
</svg>
