<?xml version="1.0" encoding="UTF-8" standalone="no"?>
<svg xmlns:ffdec="https://www.free-decompiler.com/flash" xmlns:xlink="http://www.w3.org/1999/xlink" ffdec:objectType="shape" height="51.5px" width="51.6px" xmlns="http://www.w3.org/2000/svg">
  <g transform="matrix(1.0, 0.0, 0.0, 1.0, 0.0, 0.0)">
    <path d="M43.0 7.65 Q50.3 14.95 50.3 25.35 50.3 33.0 46.4 39.05 L5.15 41.25 Q0.0 33.0 0.0 25.35 0.0 14.95 7.5 7.65 14.75 0.2 25.15 0.2 35.55 0.2 43.0 7.65" fill="#705006" fill-rule="evenodd" stroke="none"/>
    <path d="M8.6 8.65 Q15.9 1.2 26.25 1.2 36.65 1.2 44.1 8.65 51.4 15.95 51.4 26.35 51.4 36.75 44.1 44.2 36.65 51.5 26.25 51.5 15.9 51.5 8.6 44.2 1.1 36.75 1.1 26.35 1.1 15.95 8.6 8.65" fill="#9a6007" fill-rule="evenodd" stroke="none"/>
    <path d="M8.8 7.45 Q16.1 0.0 26.45 0.0 36.85 0.0 44.3 7.45 51.6 14.75 51.6 25.15 51.6 35.55 44.3 43.0 36.85 50.3 26.45 50.3 16.1 50.3 8.8 43.0 1.3 35.55 1.3 25.15 1.3 14.75 8.8 7.45" fill="url(#gradient0)" fill-rule="evenodd" stroke="none"/>
    <path d="M7.45 25.25 Q7.45 33.2 13.15 38.8 18.75 44.5 26.7 44.5 34.65 44.5 40.35 38.8 45.95 33.2 45.95 25.25 45.95 17.3 40.35 11.55 34.65 6.0 26.7 6.0 18.75 6.0 13.15 11.55 7.45 17.3 7.45 25.25" fill="#935010" fill-rule="evenodd" stroke="none"/>
    <path d="M8.65 25.2 Q8.65 32.55 13.95 37.75 19.15 43.05 26.5 43.05 33.9 43.05 39.2 37.75 44.4 32.55 44.4 25.2 44.4 17.8 39.2 12.5 33.9 7.3 26.5 7.3 19.15 7.3 13.95 12.5 8.65 17.8 8.65 25.2" fill="#ec3806" fill-rule="evenodd" stroke="none"/>
    <path d="M11.9 24.45 Q11.9 26.45 16.2 27.85 L38.55 27.85 Q41.7 26.45 41.7 24.45 41.7 18.25 37.45 13.8 33.0 9.5 26.8 9.5 20.75 9.5 16.35 13.8 11.9 18.25 11.9 24.45" fill="url(#gradient1)" fill-rule="evenodd" stroke="none"/>
  </g>
  <defs>
    <linearGradient gradientTransform="matrix(-0.0214, -0.0331, 0.0258, -0.0167, 32.45, 40.9)" gradientUnits="userSpaceOnUse" id="gradient0" spreadMethod="pad" x1="-819.2" x2="819.2">
      <stop offset="0.0" stop-color="#d48500"/>
      <stop offset="1.0" stop-color="#f8f290"/>
    </linearGradient>
    <linearGradient gradientTransform="matrix(7.0E-4, 0.0115, 0.0181, -0.0011, 26.45, 19.15)" gradientUnits="userSpaceOnUse" id="gradient1" spreadMethod="pad" x1="-819.2" x2="819.2">
      <stop offset="0.0" stop-color="#ffffff" stop-opacity="0.5294118"/>
      <stop offset="1.0" stop-color="#ffffff" stop-opacity="0.0"/>
    </linearGradient>
  </defs>
</svg>
