<?xml version="1.0" encoding="UTF-8" standalone="no"?>
<svg xmlns:ffdec="https://www.free-decompiler.com/flash" xmlns:xlink="http://www.w3.org/1999/xlink" ffdec:objectType="shape" height="79.75px" width="119.75px" xmlns="http://www.w3.org/2000/svg">
  <g transform="matrix(1.0, 0.0, 0.0, 1.0, 0.0, 0.0)">
    <path d="M119.75 65.95 Q119.25 70.3 100.85 74.65 82.4 78.85 60.35 79.65 38.25 80.35 20.15 75.65 2.0 70.95 1.15 63.25 L1.35 62.7 Q4.45 63.35 16.15 61.5 40.85 57.65 62.7 56.7 84.55 55.75 102.35 58.7 120.2 61.6 119.75 65.95" fill="url(#gradient0)" fill-rule="evenodd" stroke="none"/>
    <path d="M60.85 34.4 L89.75 34.7 90.0 38.3 89.3 38.9 86.95 39.35 Q72.55 41.6 61.35 38.9 L61.0 38.6 60.85 34.4" fill="url(#gradient1)" fill-rule="evenodd" stroke="none"/>
    <path d="M89.1 34.6 Q89.1 35.25 84.9 35.7 L74.85 36.1 64.7 35.7 Q60.6 35.25 60.6 34.6 60.6 33.95 64.7 33.55 L74.85 33.1 84.9 33.55 Q89.1 33.95 89.1 34.6" fill="#e0bf79" fill-rule="evenodd" stroke="none"/>
    <path d="M60.85 28.9 L89.75 29.2 90.0 32.8 89.3 33.4 86.95 33.85 Q72.55 36.1 61.35 33.4 L61.0 33.1 60.85 28.9" fill="url(#gradient2)" fill-rule="evenodd" stroke="none"/>
    <path d="M89.1 29.35 Q89.1 30.0 84.9 30.45 L74.85 30.85 64.7 30.45 Q60.6 30.0 60.6 29.35 60.6 28.7 64.7 28.3 L74.85 27.85 84.9 28.3 Q89.1 28.7 89.1 29.35" fill="#e0bf79" fill-rule="evenodd" stroke="none"/>
    <path d="M85.95 29.2 Q71.3 31.45 60.0 28.6 L59.85 24.25 88.75 24.55 89.0 28.6 85.95 29.2" fill="url(#gradient3)" fill-rule="evenodd" stroke="none"/>
    <path d="M88.1 24.6 Q88.1 25.25 83.9 25.7 L73.85 26.1 63.7 25.7 Q59.6 25.25 59.6 24.6 59.6 23.95 63.7 23.55 L73.85 23.1 83.9 23.55 Q88.1 23.95 88.1 24.6" fill="#e0bf79" fill-rule="evenodd" stroke="none"/>
    <path d="M84.4 25.3 Q84.55 25.15 84.65 25.3 L84.75 25.55 84.65 25.8 84.55 25.9 Q72.25 27.3 64.25 26.3 L64.0 26.15 64.0 25.9 64.1 25.65 64.35 25.65 Q72.25 26.55 84.4 25.3" fill="#f9cf7b" fill-rule="evenodd" stroke="none"/>
    <path d="M55.95 42.95 L55.95 39.05 Q57.6 40.6 60.65 40.0 L71.95 39.05 Q78.5 39.05 83.1 40.0 85.55 40.45 87.45 39.15 87.55 40.0 87.8 39.4 L87.9 43.3 Q87.65 44.45 81.45 45.85 75.1 47.15 69.0 46.7 62.75 46.2 59.35 45.05 55.85 43.85 55.95 42.95" fill="url(#gradient4)" fill-rule="evenodd" stroke="none"/>
    <path d="M71.95 36.15 Q78.5 36.15 83.1 37.1 87.8 38.05 87.8 39.45 87.8 40.85 83.1 41.8 L71.95 42.75 60.65 41.8 Q56.05 40.85 56.05 39.45 56.05 38.05 60.65 37.1 L71.95 36.15" fill="url(#gradient5)" fill-rule="evenodd" stroke="none"/>
    <path d="M58.25 39.95 L61.45 40.85 Q67.75 42.65 75.65 42.05 L85.4 41.1 Q80.8 42.4 75.4 42.75 65.3 43.2 58.35 40.15 L58.25 39.95" fill="#ffe7b8" fill-rule="evenodd" stroke="none"/>
    <path d="M60.85 20.5 L89.75 20.8 90.0 24.4 89.3 25.0 86.95 25.45 Q72.55 27.7 61.35 25.0 L61.0 24.7 60.85 20.5" fill="url(#gradient6)" fill-rule="evenodd" stroke="none"/>
    <path d="M89.1 20.7 Q89.1 21.35 84.9 21.8 L74.85 22.2 64.7 21.8 Q60.6 21.35 60.6 20.7 60.6 20.05 64.7 19.65 L74.85 19.2 84.9 19.65 Q89.1 20.05 89.1 20.7" fill="#e0bf79" fill-rule="evenodd" stroke="none"/>
    <path d="M59.85 15.75 L88.75 16.05 89.0 19.65 88.3 20.25 85.95 20.7 Q71.55 22.95 60.35 20.25 L60.0 19.95 59.85 15.75" fill="url(#gradient7)" fill-rule="evenodd" stroke="none"/>
    <path d="M89.1 16.2 Q89.1 16.85 84.9 17.3 L74.85 17.7 64.7 17.3 Q60.6 16.85 60.6 16.2 60.6 15.55 64.7 15.15 L74.85 14.7 84.9 15.15 Q89.1 15.55 89.1 16.2" fill="#e0bf79" fill-rule="evenodd" stroke="none"/>
    <path d="M86.45 15.3 Q71.8 17.55 60.5 14.7 L60.35 10.35 89.25 10.65 89.5 14.7 86.45 15.3" fill="url(#gradient8)" fill-rule="evenodd" stroke="none"/>
    <path d="M89.1 10.3 Q89.1 10.95 84.9 11.4 L74.85 11.8 64.7 11.4 Q60.6 10.95 60.6 10.3 60.6 9.65 64.7 9.25 L74.85 8.8 84.9 9.25 Q89.1 9.65 89.1 10.3" fill="#e0bf79" fill-rule="evenodd" stroke="none"/>
    <path d="M84.9 11.0 Q85.05 10.85 85.15 11.0 L85.25 11.25 85.15 11.5 85.05 11.6 Q72.75 13.0 64.75 12.0 L64.5 11.85 64.5 11.6 64.6 11.35 64.85 11.35 Q72.75 12.25 84.9 11.0" fill="#f9cf7b" fill-rule="evenodd" stroke="none"/>
    <path d="M88.8 20.2 Q89.45 20.35 89.45 20.6 L89.45 20.75 Q89.05 21.25 85.3 21.75 L75.15 22.1 65.0 21.75 Q61.9 21.35 61.25 20.85 L61.0 20.6 Q61.0 20.5 61.15 20.5 L61.25 20.35 Q72.3 23.0 86.45 20.6 L88.7 20.2 88.8 20.2" fill="url(#gradient9)" fill-rule="evenodd" stroke="none"/>
    <path d="M64.4 25.75 L64.4 25.6 68.8 26.25 64.65 25.85 64.4 25.75" fill="url(#gradient10)" fill-rule="evenodd" stroke="none"/>
    <path d="M60.15 24.25 Q60.25 24.0 60.75 23.85 L60.75 24.25 60.15 24.25 M60.9 24.25 L60.9 23.85 61.0 23.85 61.0 24.25 60.9 24.25" fill="url(#gradient11)" fill-rule="evenodd" stroke="none"/>
    <path d="M89.45 34.5 L89.8 34.5 90.05 38.15 Q89.7 38.4 89.3 38.75 L87.95 39.0 Q87.55 37.65 83.2 36.9 78.65 35.9 72.05 35.9 L61.0 36.9 60.9 34.25 61.15 34.25 Q61.0 34.25 61.0 34.4 61.0 35.0 65.0 35.5 L75.15 35.9 85.3 35.5 Q89.05 35.0 89.45 34.5" fill="url(#gradient12)" fill-rule="evenodd" stroke="none"/>
    <path d="M87.95 33.75 Q89.45 34.0 89.45 34.4 L89.45 34.5 Q89.05 35.0 85.3 35.5 L75.15 35.9 65.0 35.5 Q61.0 35.0 61.0 34.4 61.0 34.25 61.15 34.25 61.25 34.0 62.4 33.75 73.15 36.15 86.95 33.9 L87.95 33.75" fill="url(#gradient13)" fill-rule="evenodd" stroke="none"/>
    <path d="M58.4 40.0 L58.25 39.9 61.5 40.75 Q67.8 42.5 75.65 41.9 L84.2 41.25 83.8 41.4 Q79.95 42.4 75.4 42.65 L66.75 42.4 Q62.15 41.65 58.4 40.0 M84.7 41.25 L84.3 41.25 84.95 41.25 84.7 41.25" fill="url(#gradient14)" fill-rule="evenodd" stroke="none"/>
    <path d="M62.4 33.75 L61.25 33.5 60.9 33.15 60.75 20.2 60.4 19.85 60.25 15.7 60.9 15.7 60.0 14.45 Q60.75 13.2 60.4 10.45 L86.7 15.1 86.95 15.1 Q89.2 15.35 89.2 15.85 L89.2 15.95 89.45 19.6 88.8 20.2 88.7 20.2 86.45 20.6 Q72.3 23.0 61.25 20.35 L61.15 20.35 61.0 20.2 61.0 20.5 61.15 20.5 Q61.0 20.5 61.0 20.6 L61.25 20.85 Q61.9 21.35 65.0 21.75 L75.15 22.1 85.3 21.75 Q89.05 21.25 89.45 20.75 L89.8 20.75 90.05 24.35 89.3 25.0 87.05 25.35 79.2 26.35 Q80.05 27.0 78.55 28.0 73.4 31.1 86.2 29.1 L88.55 28.75 89.05 29.1 89.05 29.25 89.7 29.25 89.95 32.9 89.2 33.5 87.95 33.75 86.95 33.9 Q73.15 36.15 62.4 33.75 M87.95 39.0 L87.95 39.25 Q88.2 41.9 88.05 43.0 87.8 44.3 81.55 45.65 75.3 46.9 69.15 46.4 62.9 46.05 59.5 44.8 56.0 43.65 56.15 42.65 L56.15 38.75 56.4 39.0 Q56.75 37.65 60.75 36.9 L61.0 36.9 72.05 35.9 Q78.65 35.9 83.2 36.9 87.55 37.65 87.95 39.0 M64.4 25.75 L64.65 25.85 68.8 26.25 64.4 25.6 64.4 25.75 M60.9 24.25 L61.0 24.25 61.0 23.85 60.9 23.85 60.9 24.25 M58.4 40.0 Q62.15 41.65 66.75 42.4 L75.4 42.65 Q79.95 42.4 83.8 41.4 L84.2 41.25 75.65 41.9 Q67.8 42.5 61.5 40.75 L58.25 39.9 58.4 40.0 M84.7 41.25 L84.95 41.25 84.3 41.25 84.7 41.25" fill="url(#gradient15)" fill-rule="evenodd" stroke="none"/>
    <path d="M58.55 37.75 L58.55 33.85 Q60.2 35.4 63.25 34.8 L74.55 33.85 Q81.1 33.85 85.7 34.8 88.15 35.25 90.05 33.95 90.15 34.8 90.4 34.2 L90.5 38.1 Q90.25 39.25 84.05 40.65 77.7 41.95 71.6 41.5 65.35 41.0 61.95 39.85 58.45 38.65 58.55 37.75" fill="url(#gradient16)" fill-rule="evenodd" stroke="none"/>
    <path d="M74.55 31.1 Q81.1 31.1 85.7 32.05 90.4 33.0 90.4 34.4 90.4 35.8 85.7 36.75 L74.55 37.7 63.25 36.75 Q58.65 35.8 58.65 34.4 58.65 33.0 63.25 32.05 L74.55 31.1" fill="url(#gradient17)" fill-rule="evenodd" stroke="none"/>
    <path d="M60.85 34.9 L64.05 35.8 Q70.35 37.6 78.25 37.0 L88.0 36.05 Q83.4 37.35 78.0 37.7 67.9 38.15 60.95 35.1 L60.85 34.9" fill="#ffe7b8" fill-rule="evenodd" stroke="none"/>
    <path d="M56.8 32.5 L56.8 28.6 Q58.45 30.15 61.5 29.55 66.2 28.6 72.8 28.6 79.35 28.6 83.95 29.55 86.4 30.0 88.3 28.7 88.4 29.55 88.65 28.95 L88.75 32.85 Q88.5 34.0 82.3 35.4 75.95 36.7 69.85 36.25 63.6 35.75 60.2 34.6 56.7 33.4 56.8 32.5" fill="url(#gradient18)" fill-rule="evenodd" stroke="none"/>
    <path d="M72.8 25.6 Q79.35 25.6 83.95 26.55 88.65 27.5 88.65 28.9 88.65 30.3 83.95 31.25 L72.8 32.2 61.5 31.25 Q56.9 30.3 56.9 28.9 56.9 27.5 61.5 26.55 66.2 25.6 72.8 25.6" fill="url(#gradient19)" fill-rule="evenodd" stroke="none"/>
    <path d="M58.1 29.65 L61.3 30.55 Q67.6 32.35 75.5 31.75 L85.25 30.8 Q80.65 32.1 75.25 32.45 65.15 32.9 58.2 29.85 L58.1 29.65" fill="#ffe7b8" fill-rule="evenodd" stroke="none"/>
    <path d="M61.15 40.8 L61.15 36.7 Q62.9 38.3 66.15 37.7 71.15 36.7 78.2 36.7 L90.1 37.7 Q92.7 38.2 94.7 36.8 94.85 37.7 95.1 37.05 95.35 39.95 95.2 41.2 94.95 42.45 88.3 43.95 81.55 45.35 75.05 44.85 68.4 44.35 64.75 43.1 61.0 41.8 61.15 40.8" fill="url(#gradient20)" fill-rule="evenodd" stroke="none"/>
    <path d="M78.2 33.55 L90.1 34.55 Q95.1 35.55 95.1 37.05 95.1 38.55 90.1 39.55 L78.2 40.55 Q71.15 40.55 66.15 39.55 61.25 38.55 61.25 37.05 61.25 35.55 66.15 34.55 71.15 33.55 78.2 33.55" fill="url(#gradient21)" fill-rule="evenodd" stroke="none"/>
    <path d="M62.4 38.2 L65.75 39.2 Q72.5 41.1 80.9 40.45 L91.3 39.45 Q86.45 40.85 80.65 41.2 69.9 41.7 62.5 38.45 L62.4 38.2" fill="#ffe7b8" fill-rule="evenodd" stroke="none"/>
    <path d="M90.7 72.55 Q82.8 74.8 75.3 74.0 67.5 73.2 63.4 71.25 60.65 69.9 59.6 68.75 L59.1 61.6 62.4 62.8 63.65 62.8 98.6 61.6 Q98.85 66.35 98.7 68.2 98.45 70.2 90.7 72.55" fill="url(#gradient22)" fill-rule="evenodd" stroke="none"/>
    <path d="M65.15 66.5 Q59.35 64.25 59.35 61.5 59.35 58.75 65.0 56.95 70.8 55.15 78.95 55.15 87.1 55.15 92.8 56.95 98.6 58.75 98.6 61.5 98.6 64.25 92.9 66.5 87.1 68.55 78.95 68.8 70.8 68.55 65.15 66.5" fill="#c78f3a" fill-rule="evenodd" stroke="none"/>
    <path d="M75.4 69.3 Q78.9 69.6 82.3 69.3 78.3 70.9 75.4 69.3 M82.65 68.85 L82.4 68.55 82.65 68.7 82.65 68.85" fill="#ffecc6" fill-rule="evenodd" stroke="none"/>
    <path d="M91.4 68.65 L92.0 68.5 Q92.25 68.2 92.5 68.75 L92.75 69.15 93.15 69.85 Q92.75 70.3 92.9 70.75 92.4 71.05 92.4 71.25 L91.9 71.75 91.25 71.85 89.5 72.3 89.4 69.1 91.4 68.65 M87.0 69.7 Q87.25 70.8 87.0 72.0 L88.9 71.6 Q88.75 71.75 89.0 72.3 L85.95 72.8 85.9 69.85 87.0 69.7 M84.9 72.25 L84.3 72.9 Q83.8 72.9 83.3 73.25 L82.3 73.05 Q81.55 73.1 81.25 72.65 80.85 72.15 81.0 71.7 81.1 70.7 81.6 70.45 82.25 69.95 83.25 70.05 L84.75 70.15 Q85.25 70.4 85.25 71.45 84.9 71.65 84.9 72.25 M83.25 70.75 Q82.75 70.65 82.65 70.95 82.25 71.1 82.25 71.55 82.25 72.0 82.65 72.35 L83.25 72.6 83.75 72.25 83.9 71.45 83.9 70.85 83.25 70.75 M78.5 70.9 L77.75 71.0 77.5 71.7 77.75 72.5 78.6 72.75 79.05 72.85 Q79.0 72.5 79.35 72.5 L79.35 72.15 78.6 72.15 Q78.35 71.95 78.6 71.6 L80.35 71.7 80.55 73.1 79.55 73.3 78.65 73.55 77.55 73.2 76.85 72.5 Q76.6 72.05 76.75 71.7 L76.75 70.8 Q77.1 70.35 77.5 70.2 L78.35 70.2 Q79.35 70.1 79.35 70.45 L80.0 70.7 80.5 71.25 Q79.6 71.0 79.1 71.25 L79.0 71.0 78.5 70.9 M90.65 69.45 Q90.9 70.1 90.65 71.15 90.75 70.9 90.9 71.05 L91.4 71.15 91.65 70.8 91.65 70.1 91.65 69.45 Q91.25 69.3 90.9 69.45 L90.65 69.45 M73.75 69.95 L73.8 73.35 72.65 73.35 72.6 71.05 72.1 71.4 71.5 71.65 71.5 70.85 Q72.0 70.6 72.35 70.5 L72.75 69.95 73.75 69.95" fill="#c78f3a" fill-rule="evenodd" stroke="none"/>
    <path d="M68.75 65.45 Q64.45 63.75 64.45 61.75 64.45 59.75 68.65 58.4 72.9 57.05 78.9 57.05 84.95 57.05 89.1 58.4 93.4 59.75 93.4 61.75 93.4 63.75 89.2 65.45 84.95 66.95 78.9 67.1 72.9 66.95 68.75 65.45" fill="#dba450" fill-rule="evenodd" stroke="none"/>
    <path d="M92.1 65.55 Q84.2 67.7 76.7 66.95 68.9 66.2 64.8 64.3 62.05 63.05 61.0 61.95 L60.5 55.15 63.8 56.3 65.05 56.3 100.0 55.15 Q100.25 59.65 100.1 61.45 99.85 63.3 92.1 65.55" fill="url(#gradient23)" fill-rule="evenodd" stroke="none"/>
    <path d="M65.9 59.2 Q60.1 57.3 60.1 55.0 60.1 52.7 65.75 51.2 71.55 49.65 79.7 49.65 87.85 49.65 93.55 51.2 99.35 52.7 99.35 55.0 99.35 57.3 93.65 59.2 87.85 60.9 79.7 61.1 71.55 60.9 65.9 59.2" fill="#c78f3a" fill-rule="evenodd" stroke="none"/>
    <path d="M76.8 61.7 Q80.3 61.95 83.7 61.7 79.7 63.05 76.8 61.7 M84.05 61.3 L83.8 61.05 84.05 61.2 84.05 61.3" fill="#ffecc6" fill-rule="evenodd" stroke="none"/>
    <path d="M93.0 60.85 L93.6 60.7 Q93.85 60.35 94.1 60.95 L94.35 61.45 94.75 62.2 Q94.35 62.7 94.5 63.2 94.0 63.45 94.0 63.7 L93.55 64.25 92.9 64.35 91.15 64.85 91.0 61.35 93.0 60.85 M88.6 62.0 Q88.85 63.25 88.65 64.55 L90.55 64.15 Q90.4 64.3 90.65 64.85 L87.55 65.4 87.5 62.15 88.6 62.0 M86.55 64.8 L85.9 65.55 Q85.4 65.55 84.9 65.9 L83.9 65.7 Q83.15 65.7 82.9 65.2 82.5 64.7 82.65 64.2 82.7 63.05 83.2 62.8 83.85 62.3 84.85 62.4 L86.35 62.5 Q86.85 62.75 86.9 63.9 86.55 64.15 86.55 64.8 M84.85 63.15 Q84.35 63.0 84.25 63.4 83.85 63.55 83.9 64.1 83.9 64.6 84.3 64.9 L84.9 65.15 85.4 64.8 85.55 63.9 85.5 63.25 84.85 63.15 M80.1 63.3 L79.35 63.45 79.15 64.2 79.4 65.1 Q79.65 65.45 80.25 65.35 L80.65 65.45 Q80.65 65.1 81.0 65.1 L81.0 64.7 80.25 64.7 Q80.0 64.45 80.25 64.1 L82.0 64.2 Q81.9 64.6 82.15 65.7 81.4 65.7 81.15 65.95 L80.25 66.2 Q79.25 66.1 79.15 65.85 L78.5 65.1 Q78.25 64.6 78.4 64.2 L78.35 63.2 79.1 62.55 79.95 62.55 Q80.95 62.45 80.95 62.8 L81.6 63.05 82.1 63.7 Q81.2 63.45 80.7 63.7 L80.6 63.45 80.1 63.3 M92.25 61.7 Q92.5 62.45 92.25 63.6 92.35 63.35 92.5 63.45 92.75 63.45 93.0 63.6 L93.25 63.2 93.25 62.45 93.25 61.7 92.5 61.7 92.25 61.7 M75.35 62.25 L75.4 66.0 74.25 66.0 74.2 63.5 73.7 63.85 73.15 64.15 73.1 63.25 73.95 62.85 74.35 62.25 75.35 62.25" fill="#c78f3a" fill-rule="evenodd" stroke="none"/>
    <path d="M70.4 57.4 Q66.1 56.35 66.1 55.05 66.1 53.8 70.3 52.95 L80.55 52.1 90.75 52.95 Q95.05 53.8 95.05 55.05 95.05 56.35 90.85 57.4 L80.55 58.45 70.4 57.4" fill="#dba450" fill-rule="evenodd" stroke="none"/>
    <path d="M100.6 54.2 Q100.35 56.05 92.6 58.3 84.7 60.45 77.2 59.7 69.4 58.95 65.3 57.05 62.55 55.8 61.5 54.7 L61.0 47.9 64.3 49.05 65.55 49.05 100.5 47.9 Q100.75 52.4 100.6 54.2" fill="url(#gradient24)" fill-rule="evenodd" stroke="none"/>
    <path d="M66.9 52.2 Q61.1 50.3 61.1 48.0 61.1 45.7 66.75 44.2 72.55 42.65 80.7 42.65 88.85 42.65 94.55 44.2 100.35 45.7 100.35 48.0 100.35 50.3 94.65 52.2 88.85 53.9 80.7 54.1 72.55 53.9 66.9 52.2" fill="#c78f3a" fill-rule="evenodd" stroke="none"/>
    <path d="M84.55 54.05 L84.3 53.8 84.55 53.95 84.55 54.05 M77.3 54.45 Q80.8 54.7 84.2 54.45 80.2 55.8 77.3 54.45" fill="#ffecc6" fill-rule="evenodd" stroke="none"/>
    <path d="M93.0 53.7 L93.6 53.55 Q93.85 53.2 94.1 53.8 L94.35 54.3 94.75 55.05 Q94.35 55.55 94.5 56.05 94.0 56.3 94.0 56.55 L93.55 57.1 92.9 57.2 91.15 57.7 91.0 54.2 93.0 53.7 M86.9 56.75 Q86.55 57.0 86.55 57.65 L85.9 58.4 Q85.4 58.4 84.9 58.75 L83.9 58.55 Q83.15 58.55 82.9 58.05 82.5 57.55 82.65 57.05 82.7 55.9 83.2 55.65 83.85 55.15 84.85 55.25 L86.35 55.35 Q86.85 55.6 86.9 56.75 M88.6 54.85 Q88.85 56.1 88.65 57.4 L90.55 57.0 Q90.4 57.15 90.65 57.7 L87.55 58.25 87.5 55.0 88.6 54.85 M84.85 56.0 Q84.35 55.85 84.25 56.25 83.85 56.4 83.9 56.95 83.9 57.45 84.3 57.75 L84.9 58.0 85.4 57.65 85.55 56.75 85.5 56.1 84.85 56.0 M80.1 56.15 L79.35 56.3 79.15 57.05 79.4 57.95 Q79.65 58.3 80.25 58.2 L80.65 58.3 Q80.65 57.95 81.0 57.95 L81.0 57.55 80.25 57.55 Q80.0 57.3 80.25 56.95 L82.0 57.05 Q81.9 57.45 82.15 58.55 81.4 58.55 81.15 58.8 L80.25 59.05 Q79.25 58.95 79.15 58.7 L78.5 57.95 Q78.25 57.45 78.4 57.05 L78.35 56.05 79.1 55.4 79.95 55.4 Q80.95 55.3 80.95 55.65 L81.6 55.9 82.1 56.55 Q81.2 56.3 80.7 56.55 L80.6 56.3 80.1 56.15 M92.25 54.55 Q92.5 55.3 92.25 56.45 92.35 56.2 92.5 56.3 92.75 56.3 93.0 56.45 L93.25 56.05 93.25 55.3 93.25 54.55 92.5 54.55 92.25 54.55 M75.35 55.1 L75.4 58.85 74.25 58.85 74.2 56.35 73.7 56.7 73.15 57.0 73.1 56.1 73.95 55.7 74.35 55.1 75.35 55.1" fill="#c78f3a" fill-rule="evenodd" stroke="none"/>
    <path d="M71.0 50.0 Q66.7 48.95 66.7 47.65 66.7 46.4 70.9 45.55 L81.15 44.7 91.35 45.55 Q95.65 46.4 95.65 47.65 95.65 48.95 91.45 50.0 L81.15 51.05 71.0 50.0" fill="#dba450" fill-rule="evenodd" stroke="none"/>
    <path d="M90.05 53.4 Q99.85 51.55 100.6 48.8 L100.6 54.15 99.95 55.15 99.95 55.4 100.1 61.3 Q99.95 62.05 98.7 62.95 L98.7 68.2 Q98.45 70.2 90.7 72.6 82.8 74.85 75.3 74.1 67.5 73.2 63.4 71.2 60.65 69.95 59.65 68.7 L59.15 61.7 59.25 61.8 Q59.25 60.3 60.9 59.2 L60.5 55.05 60.65 55.15 Q60.75 54.4 61.5 53.8 L61.15 48.8 Q69.75 56.65 90.05 53.4" fill="url(#gradient25)" fill-rule="evenodd" stroke="none"/>
    <path d="M62.15 35.9 L62.15 31.8 Q63.9 33.4 67.15 32.8 L79.2 31.8 91.1 32.8 Q93.7 33.3 95.7 31.9 95.85 32.8 96.1 32.15 96.35 35.05 96.2 36.3 95.95 37.55 89.3 39.05 82.55 40.45 76.05 39.95 69.4 39.45 65.75 38.2 62.0 36.9 62.15 35.9" fill="url(#gradient26)" fill-rule="evenodd" stroke="none"/>
    <path d="M79.2 28.3 L91.1 29.3 Q96.1 30.3 96.1 31.8 96.1 33.3 91.1 34.3 L79.2 35.3 67.15 34.3 Q62.25 33.3 62.25 31.8 62.25 30.3 67.15 29.3 L79.2 28.3" fill="url(#gradient27)" fill-rule="evenodd" stroke="none"/>
    <path d="M64.05 33.3 L67.4 34.3 Q74.15 36.2 82.55 35.55 L92.95 34.55 Q88.1 35.95 82.3 36.3 71.55 36.8 64.15 33.55 L64.05 33.3" fill="#ffe7b8" fill-rule="evenodd" stroke="none"/>
    <path d="M61.65 31.4 L61.65 27.3 Q63.4 28.9 66.65 28.3 71.65 27.3 78.7 27.3 L90.6 28.3 Q93.2 28.8 95.2 27.4 95.35 28.3 95.6 27.65 95.85 30.55 95.7 31.8 95.45 33.05 88.8 34.55 82.05 35.95 75.55 35.45 68.9 34.95 65.25 33.7 61.5 32.4 61.65 31.4" fill="url(#gradient28)" fill-rule="evenodd" stroke="none"/>
    <path d="M78.7 24.05 L90.6 25.05 Q95.6 26.05 95.6 27.55 95.6 29.05 90.6 30.05 L78.7 31.05 Q71.65 31.05 66.65 30.05 61.75 29.05 61.75 27.55 61.75 26.05 66.65 25.05 71.65 24.05 78.7 24.05" fill="url(#gradient29)" fill-rule="evenodd" stroke="none"/>
    <path d="M62.65 28.05 L66.0 29.05 Q72.75 30.95 81.15 30.3 L91.55 29.3 Q86.7 30.7 80.9 31.05 70.15 31.55 62.75 28.3 L62.65 28.05" fill="#ffe7b8" fill-rule="evenodd" stroke="none"/>
    <path d="M32.2 10.65 Q32.45 10.3 34.3 10.05 L34.3 10.3 34.7 10.65 Q47.35 13.4 63.5 11.05 L64.0 11.05 Q63.5 11.55 59.35 11.9 L48.1 12.3 36.7 11.9 Q32.05 11.4 32.05 10.8 32.05 10.65 32.2 10.65 M34.45 6.15 Q34.55 5.9 35.8 5.65 L35.8 6.15 Q48.6 9.05 65.0 6.65 L66.25 6.55 Q65.6 7.05 61.6 7.4 L50.35 7.8 38.95 7.4 Q34.3 6.9 34.3 6.3 34.3 6.15 34.45 6.15 M35.8 1.75 Q35.8 1.0 40.45 0.5 L51.85 0.0 63.1 0.5 Q67.9 1.0 67.9 1.75 L67.75 2.0 Q67.15 2.65 63.1 3.0 L51.85 3.5 50.85 3.5 50.85 3.4 50.7 3.25 50.45 3.15 45.85 2.9 Q45.7 2.75 45.7 2.9 L45.6 3.15 Q45.45 3.25 45.6 3.4 L40.45 3.0 Q35.8 2.5 35.8 1.75" fill="#e0bf79" fill-rule="evenodd" stroke="none"/>
    <path d="M63.35 16.9 L63.15 16.95 62.75 17.05 63.35 16.9 M62.75 17.05 Q58.4 18.2 53.35 18.55 45.7 18.95 39.95 17.3 L39.75 17.25 36.3 15.9 37.05 16.05 37.45 16.1 39.45 16.65 Q45.7 18.45 53.6 17.8 L62.75 17.05 M63.95 21.5 L63.75 21.55 63.35 21.55 63.95 21.5 M63.2 21.6 L62.85 21.7 Q59.0 22.7 54.5 22.95 L45.85 22.7 Q41.2 21.95 37.45 20.3 L37.3 20.2 37.8 20.35 37.95 20.4 38.05 20.45 38.3 20.45 41.3 21.3 41.45 21.3 Q47.35 22.8 54.75 22.2 L63.2 21.6 M34.75 28.05 L31.55 26.8 31.45 26.7 34.7 27.55 38.45 28.45 Q43.2 29.2 48.85 28.7 L58.0 27.95 58.6 27.8 58.3 27.9 Q53.8 29.1 48.6 29.45 L37.3 28.7 35.2 28.2 34.8 28.05 34.75 28.05 M42.85 32.95 L53.7 33.35 62.85 32.6 63.5 32.45 Q58.85 33.7 53.45 34.1 45.85 34.45 40.05 32.85 L40.0 32.85 39.95 32.8 39.75 32.75 39.85 32.75 42.85 32.95 M43.6 47.6 L43.6 47.1 Q49.2 48.35 56.25 47.85 L65.55 47.15 65.25 47.25 64.85 47.25 64.35 47.35 Q60.5 48.35 56.0 48.6 L47.35 48.35 43.6 47.6 M61.25 37.0 L61.0 37.1 60.6 37.1 60.1 37.2 Q56.25 38.2 51.7 38.45 L43.1 38.2 Q38.45 37.45 34.7 35.85 L34.55 35.7 37.8 36.6 Q44.1 38.35 51.95 37.7 L57.75 37.35 61.25 37.0 M39.3 41.6 Q45.6 43.35 53.45 42.75 L62.6 42.0 63.25 41.85 Q58.6 43.1 53.2 43.5 45.6 43.85 39.8 42.25 L39.45 42.1 39.3 42.1 36.2 40.85 36.05 40.75 36.1 40.75 36.3 40.85 38.7 41.5 39.3 41.6" fill="#ffe7b8" fill-rule="evenodd" stroke="none"/>
    <path d="M60.6 52.0 Q65.5 53.65 65.6 56.15 L65.6 56.25 Q65.6 58.65 61.1 60.75 L59.85 61.25 Q55.1 62.9 48.7 63.4 L49.35 63.15 Q45.95 63.4 42.45 63.15 L42.85 63.4 Q36.7 62.9 32.2 61.25 L29.65 60.15 Q27.15 58.9 26.55 57.4 26.3 56.9 26.3 56.25 L26.3 56.0 26.15 55.75 Q25.8 55.25 25.9 54.75 26.05 53.65 26.55 53.4 27.15 52.9 28.15 52.9 28.65 52.75 29.15 52.9 30.3 52.25 32.05 51.6 36.95 50.1 43.7 50.0 L45.95 49.85 Q54.1 49.85 59.75 51.6 L60.6 52.0 M0.1 57.0 Q0.25 54.5 5.0 52.75 6.0 53.65 8.0 54.5 5.6 55.65 5.6 57.15 5.6 59.15 9.9 60.9 14.0 62.4 20.05 62.5 L26.3 62.0 26.55 61.75 26.65 63.15 Q27.65 64.4 30.45 65.65 L31.3 66.05 Q32.3 67.15 34.8 68.15 38.95 69.65 44.95 69.8 50.95 69.65 55.35 68.15 L57.5 67.15 57.75 67.05 Q62.5 65.65 64.35 64.25 64.35 67.05 58.6 69.3 54.25 70.8 48.45 71.4 L44.7 71.55 Q36.55 71.3 30.95 69.3 25.05 67.05 25.05 64.25 L25.05 63.9 23.55 64.15 19.8 64.25 Q11.65 64.0 6.0 62.0 0.1 59.75 0.1 57.0 M4.1 45.6 Q4.5 43.35 9.9 42.0 15.65 40.45 23.8 40.45 L34.95 41.35 37.55 42.0 Q42.95 43.35 43.45 45.5 L43.45 45.65 43.45 45.85 43.35 46.6 43.1 47.0 42.85 47.35 42.45 47.75 Q41.05 48.85 37.95 50.0 L37.7 50.0 30.05 51.5 23.8 51.85 13.65 51.0 10.0 50.0 Q4.1 48.1 4.1 45.85 L4.1 45.6 M9.65 45.6 Q9.65 46.85 13.9 48.0 L24.05 49.0 34.45 48.0 Q38.55 46.85 38.55 45.6 38.55 44.35 34.3 43.5 30.05 42.6 24.05 42.6 L13.75 43.5 Q9.65 44.35 9.65 45.6 M35.95 53.15 Q31.8 54.4 31.8 56.4 31.8 58.4 36.05 60.15 40.2 61.65 46.2 61.75 52.2 61.65 56.6 60.15 60.75 58.4 60.75 56.4 60.75 54.4 56.5 53.15 52.2 51.75 46.2 51.75 40.2 51.75 35.95 53.15 M27.3 51.35 L27.55 51.6 27.55 51.5 27.3 51.35 M22.4 53.15 Q22.65 53.0 23.3 53.15 24.3 53.0 24.3 53.4 L24.9 53.65 25.4 54.25 Q24.55 54.0 24.05 54.25 L23.9 54.0 23.4 53.9 22.65 54.0 22.4 54.75 22.65 55.65 Q22.9 56.0 23.55 55.9 L23.9 56.0 Q23.9 55.65 24.3 55.65 L24.3 55.25 23.55 55.25 Q23.3 55.0 23.55 54.65 L25.3 54.75 Q25.15 55.15 25.4 56.25 24.65 56.25 24.4 56.5 23.8 56.65 23.55 56.75 L22.4 56.4 21.8 55.65 Q21.55 55.15 21.65 54.75 L21.65 53.75 22.4 53.15 M25.05 65.3 L25.3 68.15 24.3 68.4 23.3 68.15 Q22.55 68.15 22.3 67.8 21.9 67.3 22.05 66.9 22.05 65.8 22.55 65.55 23.15 65.15 24.15 65.3 L25.05 65.3 M23.55 64.15 L23.55 64.0 23.3 63.9 23.55 64.15 M20.3 65.4 L20.3 65.55 20.9 65.8 21.55 66.4 Q20.55 66.15 20.15 66.4 L19.9 66.15 19.4 66.05 18.65 66.15 18.55 66.9 18.8 67.65 Q19.05 68.05 19.65 67.9 19.65 67.8 20.05 68.05 20.05 67.65 20.4 67.65 L20.4 67.3 19.65 67.3 Q19.4 67.05 19.65 66.8 L21.4 66.9 Q21.3 67.15 21.55 68.15 20.8 68.15 20.55 68.4 L19.65 68.65 Q18.65 68.55 18.55 68.3 L17.9 67.65 Q17.65 67.15 17.75 66.9 L17.65 65.9 18.4 65.4 19.3 65.4 20.3 65.4 M24.15 65.9 Q23.65 65.8 23.55 66.15 23.3 66.3 23.3 66.8 23.3 67.15 23.65 67.55 L24.3 67.8 24.8 67.4 24.9 66.65 24.8 66.05 Q24.3 65.8 24.15 65.9 M38.7 66.15 L38.55 65.3 39.45 64.9 39.8 64.4 40.8 64.4 40.95 67.8 39.8 67.8 39.7 65.55 39.3 65.9 38.7 66.15 M38.05 73.9 L37.45 74.15 37.3 73.3 Q37.8 73.05 38.2 72.9 L38.55 72.4 39.55 72.4 39.7 75.8 38.55 75.8 38.45 73.55 38.05 73.9 M17.0 54.4 L16.4 54.65 16.4 53.75 17.25 53.4 17.65 52.75 18.65 52.75 18.65 56.5 17.5 56.5 17.5 54.0 17.0 54.4 M14.65 65.15 L14.75 68.55 13.65 68.55 13.5 66.3 13.15 66.65 12.5 66.9 12.4 66.05 13.25 65.65 13.65 65.15 14.65 65.15 M50.35 64.55 L51.85 64.65 Q52.35 64.8 52.45 65.9 52.1 66.15 52.1 66.65 L51.45 67.4 50.45 67.65 49.45 67.4 Q48.7 67.4 48.45 67.05 48.1 66.55 48.2 66.15 48.2 65.05 48.7 64.8 49.35 64.4 50.35 64.55 M49.7 62.5 L49.45 62.4 49.7 62.65 49.7 62.5 M47.7 65.65 Q46.7 65.4 46.35 65.65 L46.1 65.4 45.6 65.3 44.85 65.4 44.7 66.15 44.95 66.9 Q45.2 67.3 45.85 67.15 45.85 67.05 46.2 67.3 46.2 66.9 46.6 66.9 L46.6 66.55 45.85 66.55 Q45.6 66.3 45.85 66.05 L47.6 66.15 Q47.45 66.4 47.7 67.4 L46.7 67.65 45.85 67.9 44.7 67.55 44.1 66.9 Q43.85 66.4 43.95 66.15 L43.85 65.15 Q44.2 64.8 44.6 64.65 L45.45 64.65 Q46.45 64.55 46.45 64.8 L47.1 65.05 47.7 65.65 M49.7 65.4 Q49.45 65.55 49.45 66.05 L49.85 66.8 50.45 67.05 50.95 66.65 51.1 65.9 50.95 65.3 50.35 65.15 Q49.85 65.05 49.7 65.4 M45.2 72.65 L45.2 72.8 45.85 73.05 46.45 73.65 Q45.45 73.4 45.1 73.65 L44.85 73.4 44.35 73.3 43.6 73.4 43.45 74.15 43.7 74.9 Q43.95 75.3 44.6 75.15 L44.95 75.3 Q44.95 74.9 45.35 74.9 L45.35 74.55 44.6 74.55 Q44.35 74.3 44.6 74.05 L46.35 74.15 Q46.2 74.4 46.45 75.4 L45.45 75.65 44.6 75.9 43.45 75.55 42.85 74.9 Q42.6 74.4 42.7 74.15 L42.6 73.15 43.35 72.65 44.2 72.65 45.2 72.65 M47.45 72.8 Q48.1 72.4 49.1 72.55 L50.6 72.65 Q51.1 72.8 51.2 73.9 50.85 74.15 50.85 74.65 L50.2 75.4 49.2 75.65 48.2 75.4 Q47.45 75.4 47.2 75.05 46.85 74.55 46.95 74.15 46.95 73.05 47.45 72.8 M49.1 73.15 Q48.6 73.05 48.45 73.4 48.2 73.55 48.2 74.05 L48.6 74.8 49.2 75.05 49.7 74.65 49.85 73.9 49.7 73.3 49.1 73.15 M48.45 71.3 Q48.35 71.15 48.2 71.15 L48.45 71.4 48.45 71.3 M58.75 63.75 L58.0 63.75 57.75 63.75 Q58.0 64.5 57.9 65.45 L58.1 65.4 58.6 65.55 Q58.6 65.15 58.75 65.15 L58.75 64.55 58.75 63.75 M60.25 64.25 Q59.85 64.65 60.0 65.15 L59.6 65.65 59.1 66.05 58.5 66.15 56.75 66.65 56.5 63.4 58.5 63.0 59.1 62.9 Q59.35 62.5 59.6 63.15 L59.85 63.5 60.25 64.25 M56.25 66.65 L53.1 67.3 52.95 64.25 54.1 64.15 Q54.35 65.3 54.25 66.4 L56.1 66.05 Q56.0 66.05 56.25 66.65 M52.85 72.15 Q53.1 73.3 52.95 74.4 L54.85 74.05 Q54.75 74.05 55.0 74.65 L51.85 75.3 51.7 72.3 52.85 72.15 M57.85 70.9 Q58.1 70.55 58.35 71.15 L58.6 71.55 59.0 72.3 Q58.6 72.65 58.75 73.15 L58.35 73.65 57.85 74.05 57.25 74.15 55.5 74.65 55.25 71.4 57.25 71.05 57.85 70.9 M57.5 71.8 Q57.1 71.65 56.75 71.8 L56.5 71.8 Q56.75 72.5 56.65 73.45 L56.85 73.4 57.35 73.55 Q57.35 73.15 57.5 73.15 L57.5 72.55 57.5 71.8" fill="#c78f3a" fill-rule="evenodd" stroke="none"/>
    <path d="M9.65 45.6 Q9.65 44.35 13.75 43.5 L24.05 42.6 Q30.05 42.6 34.3 43.5 38.55 44.35 38.55 45.6 38.55 46.85 34.45 48.0 L24.05 49.0 13.9 48.0 Q9.65 46.85 9.65 45.6 M35.95 53.15 Q40.2 51.75 46.2 51.75 52.2 51.75 56.5 53.15 60.75 54.4 60.75 56.4 60.75 58.4 56.6 60.15 52.2 61.65 46.2 61.75 40.2 61.65 36.05 60.15 31.8 58.4 31.8 56.4 31.8 54.4 35.95 53.15 M26.3 57.4 L26.55 61.75 26.3 62.0 20.05 62.5 Q14.0 62.4 9.9 60.9 5.6 59.15 5.6 57.15 5.6 55.65 8.0 54.5 L8.25 54.65 Q12.4 56.5 20.15 57.25 L26.3 57.4 M31.3 66.05 Q35.3 67.8 42.35 68.55 49.7 69.3 57.5 67.15 L55.35 68.15 Q50.95 69.65 44.95 69.8 38.95 69.65 34.8 68.15 32.3 67.15 31.3 66.05" fill="#dba450" fill-rule="evenodd" stroke="none"/>
    <path d="M27.3 51.35 L27.55 51.5 27.55 51.6 27.3 51.35 M42.85 63.4 L42.45 63.15 Q45.95 63.4 49.35 63.15 L48.7 63.4 Q45.35 64.55 42.85 63.4 M20.3 52.0 Q23.8 52.25 27.15 52.0 23.15 53.4 20.3 52.0 M23.55 64.15 L23.3 63.9 23.55 64.0 23.55 64.15 M18.4 65.4 Q17.25 65.3 16.25 64.65 19.8 64.9 23.15 64.65 21.65 65.3 20.3 65.4 L19.3 65.4 18.4 65.4 M49.7 62.5 L49.7 62.65 49.45 62.4 49.7 62.5 M43.35 72.65 Q42.2 72.55 41.2 71.9 44.7 72.15 48.1 71.9 L45.2 72.65 44.2 72.65 43.35 72.65 M48.45 71.3 L48.45 71.4 48.2 71.15 Q48.35 71.15 48.45 71.3" fill="#ffecc6" fill-rule="evenodd" stroke="none"/>
    <path d="M67.75 2.0 L68.15 2.0 68.4 6.15 66.65 6.4 66.25 6.55 65.0 6.65 Q48.6 9.05 35.8 6.15 L35.8 5.65 35.7 1.75 35.8 1.75 Q35.8 2.5 40.45 3.0 L45.6 3.4 Q45.45 3.25 45.6 3.15 L45.7 2.9 Q45.7 2.75 45.85 2.9 L50.45 3.15 50.7 3.25 50.85 3.4 50.85 3.5 51.85 3.5 63.1 3.0 Q67.15 2.65 67.75 2.0" fill="url(#gradient30)" fill-rule="evenodd" stroke="none"/>
    <path d="M66.65 6.4 L66.9 10.05 66.15 10.65 64.35 10.9 Q64.2 11.0 64.0 11.05 L63.5 11.05 Q47.35 13.4 34.7 10.65 L34.3 10.3 34.3 10.05 34.2 6.15 34.45 6.15 Q34.3 6.15 34.3 6.3 34.3 6.9 38.95 7.4 L50.35 7.8 61.6 7.4 Q65.6 7.05 66.25 6.55 L66.65 6.4" fill="url(#gradient31)" fill-rule="evenodd" stroke="none"/>
    <path d="M64.35 10.9 L64.6 13.15 64.6 14.55 63.85 15.15 61.25 15.55 Q48.2 17.5 37.45 16.1 L37.05 16.05 36.3 15.9 36.2 15.9 35.55 15.8 35.05 15.65 32.45 15.15 32.05 14.8 31.95 10.65 32.2 10.65 Q32.05 10.65 32.05 10.8 32.05 11.4 36.7 11.9 L48.1 12.3 59.35 11.9 Q63.5 11.55 64.0 11.05 64.2 11.0 64.35 10.9" fill="url(#gradient32)" fill-rule="evenodd" stroke="none"/>
    <path d="M66.75 14.9 L66.9 18.7 66.75 18.95 Q66.0 20.05 60.35 21.3 54.1 22.55 47.95 22.05 L41.45 21.3 41.3 21.3 38.3 20.45 38.05 20.45 37.95 20.4 37.8 20.35 Q36.15 19.65 35.45 19.2 34.95 18.7 34.95 18.3 L35.05 15.65 35.55 15.8 Q36.55 16.55 39.55 17.2 L39.75 17.25 39.95 17.3 Q45.7 18.95 53.35 18.55 58.4 18.2 62.75 17.05 L63.15 16.95 63.35 16.9 Q66.75 16.05 66.75 14.9" fill="url(#gradient33)" fill-rule="evenodd" stroke="none"/>
    <path d="M64.6 13.15 Q66.65 13.8 66.75 14.8 L66.75 14.9 Q66.75 16.05 63.35 16.9 L62.75 17.05 53.6 17.8 Q45.7 18.45 39.45 16.65 L37.45 16.1 Q48.2 17.5 61.25 15.55 L63.85 15.15 64.6 14.55 64.6 13.15 M39.75 17.25 L39.55 17.2 Q36.55 16.55 35.55 15.8 L36.2 15.9 36.3 15.9 39.75 17.25" fill="url(#gradient34)" fill-rule="evenodd" stroke="none"/>
    <path d="M66.75 18.95 L67.0 19.45 67.0 19.55 Q67.0 20.55 64.5 21.3 64.35 21.3 64.35 21.45 L63.95 21.5 63.35 21.55 63.2 21.6 54.75 22.2 Q47.35 22.8 41.45 21.3 L47.95 22.05 Q54.1 22.55 60.35 21.3 66.0 20.05 66.75 18.95 M35.45 19.3 L35.45 19.2 Q36.15 19.65 37.8 20.35 L37.3 20.2 37.45 20.3 Q41.2 21.95 45.85 22.7 L39.8 21.8 Q35.3 20.95 35.3 19.55 35.3 19.45 35.45 19.3" fill="url(#gradient35)" fill-rule="evenodd" stroke="none"/>
    <path d="M67.0 19.55 L67.15 23.3 Q66.9 24.45 62.0 25.7 L60.6 25.95 Q54.35 27.2 48.2 26.7 41.95 26.3 38.55 25.05 35.8 24.2 35.3 23.3 L35.2 22.95 35.2 19.05 35.45 19.3 Q35.3 19.45 35.3 19.55 35.3 20.95 39.8 21.8 L45.85 22.7 54.5 22.95 Q59.0 22.7 62.85 21.7 L63.2 21.6 63.35 21.55 63.75 21.55 63.95 21.5 64.35 21.45 Q64.35 21.3 64.5 21.3 67.0 20.55 67.0 19.55" fill="url(#gradient36)" fill-rule="evenodd" stroke="none"/>
    <path d="M62.0 25.7 L62.0 25.8 Q62.0 26.8 59.35 27.55 L58.3 27.9 58.6 27.8 58.0 27.95 48.85 28.7 Q43.2 29.2 38.45 28.45 L34.7 27.55 31.45 26.7 31.55 26.8 34.75 28.05 Q30.3 27.2 30.3 25.8 L30.45 25.55 Q30.8 24.2 34.8 23.45 L35.3 23.3 Q35.8 24.2 38.55 25.05 41.95 26.3 48.2 26.7 54.35 27.2 60.6 25.95 L62.0 25.7" fill="url(#gradient37)" fill-rule="evenodd" stroke="none"/>
    <path d="M62.0 25.8 L62.1 28.05 62.1 29.6 Q61.85 30.85 55.6 32.2 49.35 33.45 43.2 32.95 L42.85 32.95 39.85 32.75 39.7 32.7 39.55 32.7 39.05 32.6 35.2 31.85 33.55 31.35 Q30.05 30.2 30.2 29.2 L30.2 25.3 30.45 25.55 30.3 25.8 Q30.3 27.2 34.75 28.05 L34.8 28.05 35.2 28.2 37.3 28.7 48.6 29.45 Q53.8 29.1 58.3 27.9 L59.35 27.55 Q62.0 26.8 62.0 25.8" fill="url(#gradient38)" fill-rule="evenodd" stroke="none"/>
    <path d="M62.1 28.05 Q66.65 28.95 66.9 30.35 L66.9 30.45 Q66.9 31.6 63.5 32.45 L62.85 32.6 53.7 33.35 42.85 32.95 43.2 32.95 Q49.35 33.45 55.6 32.2 61.85 30.85 62.1 29.6 L62.1 28.05" fill="url(#gradient39)" fill-rule="evenodd" stroke="none"/>
    <path d="M66.9 30.45 Q67.15 33.1 67.0 34.2 66.9 34.95 64.35 35.85 L63.6 36.1 60.5 36.85 57.75 37.35 51.95 37.7 48.1 37.6 Q41.8 37.2 38.45 35.95 34.95 34.85 35.05 33.85 L35.2 33.2 35.2 31.85 39.05 32.6 39.55 32.7 39.7 32.7 39.85 32.75 39.75 32.75 39.95 32.8 40.0 32.85 40.05 32.85 Q45.85 34.45 53.45 34.1 58.85 33.7 63.5 32.45 66.9 31.6 66.9 30.45" fill="url(#gradient40)" fill-rule="evenodd" stroke="none"/>
    <path d="M64.5 38.1 Q66.5 38.7 66.65 39.7 L66.65 39.85 Q66.65 41.0 63.25 41.85 L62.6 42.0 53.45 42.75 Q45.6 43.35 39.3 41.6 L45.45 42.25 Q51.6 42.75 57.85 41.5 64.1 40.1 64.35 38.85 L64.5 38.1 M36.1 40.75 L36.05 40.75 36.2 40.85 39.3 42.1 Q35.8 41.35 35.2 40.35 L35.8 40.6 36.1 40.75" fill="url(#gradient41)" fill-rule="evenodd" stroke="none"/>
    <path d="M64.35 35.85 Q64.35 37.2 64.5 38.1 L64.35 38.85 Q64.1 40.1 57.85 41.5 51.6 42.75 45.45 42.25 L39.3 41.6 38.7 41.5 36.3 40.85 36.1 40.75 35.8 40.6 35.2 40.35 34.95 40.35 Q32.3 39.35 32.45 38.45 L32.45 34.6 32.7 34.85 32.55 35.1 Q32.55 36.45 37.05 37.35 L43.1 38.2 51.7 38.45 Q56.25 38.2 60.1 37.2 L60.6 37.1 61.0 37.1 61.25 37.0 61.6 36.95 Q61.6 36.85 61.75 36.85 L63.6 36.1 64.35 35.85" fill="url(#gradient42)" fill-rule="evenodd" stroke="none"/>
    <path d="M66.65 39.85 Q66.9 42.5 66.75 43.6 L66.75 43.75 Q66.4 44.85 60.25 46.25 54.0 47.5 47.85 47.0 L43.6 46.6 43.45 45.65 43.45 45.5 Q42.95 43.35 37.55 42.0 L34.95 41.35 34.95 40.35 35.2 40.35 Q35.8 41.35 39.3 42.1 L39.45 42.1 39.8 42.25 Q45.6 43.85 53.2 43.5 58.6 43.1 63.25 41.85 66.65 41.0 66.65 39.85" fill="url(#gradient43)" fill-rule="evenodd" stroke="none"/>
    <path d="M66.75 43.75 Q68.4 44.25 68.5 45.1 L68.5 45.25 Q68.5 46.25 66.0 47.0 L65.9 47.1 65.55 47.15 56.25 47.85 Q49.2 48.35 43.6 47.1 L43.6 46.6 47.85 47.0 Q54.0 47.5 60.25 46.25 66.4 44.85 66.75 43.75 M43.6 47.85 L43.6 47.6 47.35 48.35 43.6 47.85" fill="url(#gradient44)" fill-rule="evenodd" stroke="none"/>
    <path d="M68.5 45.25 L68.65 49.0 Q68.4 50.25 62.1 51.6 L60.6 52.0 59.75 51.6 Q54.1 49.85 45.95 49.85 L43.7 50.0 43.6 47.85 47.35 48.35 56.0 48.6 Q60.5 48.35 64.35 47.35 L64.85 47.25 65.25 47.25 65.55 47.15 65.9 47.1 66.0 47.0 Q68.5 46.25 68.5 45.25" fill="url(#gradient45)" fill-rule="evenodd" stroke="none"/>
    <path d="M32.7 34.85 Q32.95 33.85 35.2 33.2 L35.05 33.85 Q34.95 34.85 38.45 35.95 41.8 37.2 48.1 37.6 L51.95 37.7 Q44.1 38.35 37.8 36.6 L34.55 35.7 34.7 35.85 Q38.45 37.45 43.1 38.2 L37.05 37.35 Q32.55 36.45 32.55 35.1 L32.7 34.85 M61.25 37.0 L57.75 37.35 60.5 36.85 63.6 36.1 61.75 36.85 Q61.6 36.85 61.6 36.95 L61.25 37.0" fill="url(#gradient46)" fill-rule="evenodd" stroke="none"/>
    <path d="M65.6 56.25 L65.75 62.65 Q65.6 63.4 64.35 64.25 62.5 65.65 57.75 67.05 L57.5 67.15 Q49.7 69.3 42.35 68.55 35.3 67.8 31.3 66.05 L30.45 65.65 Q27.65 64.4 26.65 63.15 L26.55 61.75 26.3 57.4 26.15 56.15 26.3 56.25 Q26.3 56.9 26.55 57.4 27.15 58.9 29.65 60.15 L32.2 61.25 Q36.7 62.9 42.85 63.4 45.35 64.55 48.7 63.4 55.1 62.9 59.85 61.25 L61.1 60.75 Q65.6 58.65 65.6 56.25 M38.7 66.15 L39.3 65.9 39.7 65.55 39.8 67.8 40.95 67.8 40.8 64.4 39.8 64.4 39.45 64.9 38.55 65.3 38.7 66.15 M50.35 64.55 Q49.35 64.4 48.7 64.8 48.2 65.05 48.2 66.15 48.1 66.55 48.45 67.05 48.7 67.4 49.45 67.4 L50.45 67.65 51.45 67.4 52.1 66.65 Q52.1 66.15 52.45 65.9 52.35 64.8 51.85 64.65 L50.35 64.55 M49.7 65.4 Q49.85 65.05 50.35 65.15 L50.95 65.3 51.1 65.9 50.95 66.65 50.45 67.05 49.85 66.8 49.45 66.05 Q49.45 65.55 49.7 65.4 M47.7 65.65 L47.1 65.05 46.45 64.8 Q46.45 64.55 45.45 64.65 L44.6 64.65 Q44.2 64.8 43.85 65.15 L43.95 66.15 Q43.85 66.4 44.1 66.9 L44.7 67.55 45.85 67.9 46.7 67.65 47.7 67.4 Q47.45 66.4 47.6 66.15 L45.85 66.05 Q45.6 66.3 45.85 66.55 L46.6 66.55 46.6 66.9 Q46.2 66.9 46.2 67.3 45.85 67.05 45.85 67.15 45.2 67.3 44.95 66.9 L44.7 66.15 44.85 65.4 45.6 65.3 46.1 65.4 46.35 65.65 Q46.7 65.4 47.7 65.65 M56.25 66.65 Q56.0 66.05 56.1 66.05 L54.25 66.4 Q54.35 65.3 54.1 64.15 L52.95 64.25 53.1 67.3 56.25 66.65 M60.25 64.25 L59.85 63.5 59.6 63.15 Q59.35 62.5 59.1 62.9 L58.5 63.0 56.5 63.4 56.75 66.65 58.5 66.15 59.1 66.05 59.6 65.65 60.0 65.15 Q59.85 64.65 60.25 64.25 M58.75 63.75 L58.75 64.55 58.75 65.15 Q58.6 65.15 58.6 65.55 L58.1 65.4 57.9 65.45 Q58.0 64.5 57.75 63.75 L58.0 63.75 58.75 63.75" fill="url(#gradient47)" fill-rule="evenodd" stroke="none"/>
    <path d="M5.0 52.75 L4.5 52.25 4.0 45.5 4.1 45.6 4.1 45.85 Q4.1 48.1 10.0 50.0 L13.65 51.0 23.8 51.85 30.05 51.5 37.7 50.0 37.95 50.0 Q41.05 48.85 42.45 47.75 L42.85 47.35 43.1 47.0 43.35 46.6 43.45 45.85 43.45 45.65 43.6 46.6 43.6 47.1 43.6 47.6 43.6 47.85 43.7 50.0 Q36.95 50.1 32.05 51.6 30.3 52.25 29.15 52.9 28.65 52.75 28.15 52.9 27.15 52.9 26.55 53.4 26.05 53.65 25.9 54.75 25.8 55.25 26.15 55.75 L26.3 56.0 26.3 56.25 26.15 56.15 26.3 57.4 20.15 57.25 Q12.4 56.5 8.25 54.65 L8.0 54.5 Q6.0 53.65 5.0 52.75 M22.4 53.15 L21.65 53.75 21.65 54.75 Q21.55 55.15 21.8 55.65 L22.4 56.4 23.55 56.75 Q23.8 56.65 24.4 56.5 24.65 56.25 25.4 56.25 25.15 55.15 25.3 54.75 L23.55 54.65 Q23.3 55.0 23.55 55.25 L24.3 55.25 24.3 55.65 Q23.9 55.65 23.9 56.0 L23.55 55.9 Q22.9 56.0 22.65 55.65 L22.4 54.75 22.65 54.0 23.4 53.9 23.9 54.0 24.05 54.25 Q24.55 54.0 25.4 54.25 L24.9 53.65 24.3 53.4 Q24.3 53.0 23.3 53.15 22.65 53.0 22.4 53.15 M20.3 52.0 Q23.15 53.4 27.15 52.0 23.8 52.25 20.3 52.0 M17.0 54.4 L17.5 54.0 17.5 56.5 18.65 56.5 18.65 52.75 17.65 52.75 17.25 53.4 16.4 53.75 16.4 54.65 17.0 54.4" fill="url(#gradient48)" fill-rule="evenodd" stroke="none"/>
    <path d="M64.35 64.25 L64.5 70.65 Q64.25 72.65 56.5 75.05 48.6 77.3 41.05 76.55 33.3 75.8 29.15 73.8 26.4 72.4 25.4 71.3 L25.3 69.15 25.3 68.15 25.05 65.3 24.9 64.15 25.05 64.25 Q25.05 67.05 30.95 69.3 36.55 71.3 44.7 71.55 L48.45 71.4 Q54.25 70.8 58.6 69.3 64.35 67.05 64.35 64.25 M38.05 73.9 L38.45 73.55 38.55 75.8 39.7 75.8 39.55 72.4 38.55 72.4 38.2 72.9 Q37.8 73.05 37.3 73.3 L37.45 74.15 38.05 73.9 M43.35 72.65 L42.6 73.15 42.7 74.15 Q42.6 74.4 42.85 74.9 L43.45 75.55 44.6 75.9 45.45 75.65 46.45 75.4 Q46.2 74.4 46.35 74.15 L44.6 74.05 Q44.35 74.3 44.6 74.55 L45.35 74.55 45.35 74.9 Q44.95 74.9 44.95 75.3 L44.6 75.15 Q43.95 75.3 43.7 74.9 L43.45 74.15 43.6 73.4 44.35 73.3 44.85 73.4 45.1 73.65 Q45.45 73.4 46.45 73.65 L45.85 73.05 45.2 72.8 45.2 72.65 48.1 71.9 Q44.7 72.15 41.2 71.9 42.2 72.55 43.35 72.65 M49.1 73.15 L49.7 73.3 49.85 73.9 49.7 74.65 49.2 75.05 48.6 74.8 48.2 74.05 Q48.2 73.55 48.45 73.4 48.6 73.05 49.1 73.15 M47.45 72.8 Q46.95 73.05 46.95 74.15 46.85 74.55 47.2 75.05 47.45 75.4 48.2 75.4 L49.2 75.65 50.2 75.4 50.85 74.65 Q50.85 74.15 51.2 73.9 51.1 72.8 50.6 72.65 L49.1 72.55 Q48.1 72.4 47.45 72.8 M57.5 71.8 L57.5 72.55 57.5 73.15 Q57.35 73.15 57.35 73.55 L56.85 73.4 56.65 73.45 Q56.75 72.5 56.5 71.8 L56.75 71.8 Q57.1 71.65 57.5 71.8 M57.85 70.9 L57.25 71.05 55.25 71.4 55.5 74.65 57.25 74.15 57.85 74.05 58.35 73.65 58.75 73.15 Q58.6 72.65 59.0 72.3 L58.6 71.55 58.35 71.15 Q58.1 70.55 57.85 70.9 M52.85 72.15 L51.7 72.3 51.85 75.3 55.0 74.65 Q54.75 74.05 54.85 74.05 L52.95 74.4 Q53.1 73.3 52.85 72.15" fill="url(#gradient49)" fill-rule="evenodd" stroke="none"/>
    <path d="M25.3 69.15 Q20.65 69.8 16.15 69.3 8.4 68.4 4.25 66.4 1.5 65.15 0.5 63.9 L0.0 56.9 0.1 57.0 Q0.1 59.75 6.0 62.0 11.65 64.0 19.8 64.25 L23.55 64.15 25.05 63.9 25.05 64.25 24.9 64.15 25.05 65.3 24.15 65.3 Q23.15 65.15 22.55 65.55 22.05 65.8 22.05 66.9 21.9 67.3 22.3 67.8 22.55 68.15 23.3 68.15 L24.3 68.4 25.3 68.15 25.3 69.15 M18.4 65.4 L17.65 65.9 17.75 66.9 Q17.65 67.15 17.9 67.65 L18.55 68.3 Q18.65 68.55 19.65 68.65 L20.55 68.4 Q20.8 68.15 21.55 68.15 21.3 67.15 21.4 66.9 L19.65 66.8 Q19.4 67.05 19.65 67.3 L20.4 67.3 20.4 67.65 Q20.05 67.65 20.05 68.05 19.65 67.8 19.65 67.9 19.05 68.05 18.8 67.65 L18.55 66.9 18.65 66.15 19.4 66.05 19.9 66.15 20.15 66.4 Q20.55 66.15 21.55 66.4 L20.9 65.8 20.3 65.55 20.3 65.4 Q21.65 65.3 23.15 64.65 19.8 64.9 16.25 64.65 17.25 65.3 18.4 65.4 M24.15 65.9 Q24.3 65.8 24.8 66.05 L24.9 66.65 24.8 67.4 24.3 67.8 23.65 67.55 Q23.3 67.15 23.3 66.8 23.3 66.3 23.55 66.15 23.65 65.8 24.15 65.9 M14.65 65.15 L13.65 65.15 13.25 65.65 12.4 66.05 12.5 66.9 13.15 66.65 13.5 66.3 13.65 68.55 14.75 68.55 14.65 65.15" fill="url(#gradient50)" fill-rule="evenodd" stroke="none"/>
  </g>
  <defs>
    <linearGradient gradientTransform="matrix(0.0692, 1.0E-4, 0.0, 0.0123, 63.95, 67.75)" gradientUnits="userSpaceOnUse" id="gradient0" spreadMethod="pad" x1="-819.2" x2="819.2">
      <stop offset="0.0" stop-color="#000000" stop-opacity="0.6"/>
      <stop offset="0.9725490196078431" stop-color="#000000" stop-opacity="0.0"/>
    </linearGradient>
    <linearGradient gradientTransform="matrix(0.0174, 7.0E-4, -1.0E-4, 0.0021, 75.0, 36.65)" gradientUnits="userSpaceOnUse" id="gradient1" spreadMethod="pad" x1="-819.2" x2="819.2">
      <stop offset="0.0" stop-color="#c48140"/>
      <stop offset="0.25098039215686274" stop-color="#d9aa4f"/>
      <stop offset="0.7529411764705882" stop-color="#d19c4d"/>
      <stop offset="1.0" stop-color="#b16d24"/>
    </linearGradient>
    <linearGradient gradientTransform="matrix(0.0174, 7.0E-4, -1.0E-4, 0.0021, 75.0, 31.15)" gradientUnits="userSpaceOnUse" id="gradient2" spreadMethod="pad" x1="-819.2" x2="819.2">
      <stop offset="0.0" stop-color="#c48140"/>
      <stop offset="0.25098039215686274" stop-color="#d9aa4f"/>
      <stop offset="0.7529411764705882" stop-color="#d19c4d"/>
      <stop offset="1.0" stop-color="#b16d24"/>
    </linearGradient>
    <linearGradient gradientTransform="matrix(0.0174, 7.0E-4, -1.0E-4, 0.0021, 74.0, 26.5)" gradientUnits="userSpaceOnUse" id="gradient3" spreadMethod="pad" x1="-819.2" x2="819.2">
      <stop offset="0.0" stop-color="#c48140"/>
      <stop offset="0.25098039215686274" stop-color="#d9aa4f"/>
      <stop offset="0.7529411764705882" stop-color="#d19c4d"/>
      <stop offset="1.0" stop-color="#b16d24"/>
    </linearGradient>
    <linearGradient gradientTransform="matrix(0.0193, -7.0E-4, 2.0E-4, 0.004, 71.95, 42.45)" gradientUnits="userSpaceOnUse" id="gradient4" spreadMethod="pad" x1="-819.2" x2="819.2">
      <stop offset="0.29411764705882354" stop-color="#daa44e"/>
      <stop offset="0.9098039215686274" stop-color="#f5da8d"/>
    </linearGradient>
    <radialGradient cx="0" cy="0" fx="99.2" fy="0" gradientTransform="matrix(0.0377, 0.0, 0.0, 0.0277, 77.8, 39.55)" gradientUnits="userSpaceOnUse" id="gradient5" r="819.2" spreadMethod="pad">
      <stop offset="0.0" stop-color="#a7692e"/>
      <stop offset="0.22745098039215686" stop-color="#bf9235"/>
      <stop offset="0.5098039215686274" stop-color="#dbb055"/>
      <stop offset="0.9921568627450981" stop-color="#e7bd63"/>
    </radialGradient>
    <linearGradient gradientTransform="matrix(0.0174, 7.0E-4, -1.0E-4, 0.0021, 75.0, 22.75)" gradientUnits="userSpaceOnUse" id="gradient6" spreadMethod="pad" x1="-819.2" x2="819.2">
      <stop offset="0.0" stop-color="#c48140"/>
      <stop offset="0.25098039215686274" stop-color="#d9aa4f"/>
      <stop offset="0.7529411764705882" stop-color="#d19c4d"/>
      <stop offset="1.0" stop-color="#b16d24"/>
    </linearGradient>
    <linearGradient gradientTransform="matrix(0.0174, 7.0E-4, -1.0E-4, 0.0021, 74.0, 18.0)" gradientUnits="userSpaceOnUse" id="gradient7" spreadMethod="pad" x1="-819.2" x2="819.2">
      <stop offset="0.0" stop-color="#c48140"/>
      <stop offset="0.25098039215686274" stop-color="#d9aa4f"/>
      <stop offset="0.7529411764705882" stop-color="#d19c4d"/>
      <stop offset="1.0" stop-color="#b16d24"/>
    </linearGradient>
    <linearGradient gradientTransform="matrix(0.0174, 7.0E-4, -1.0E-4, 0.0021, 74.5, 12.6)" gradientUnits="userSpaceOnUse" id="gradient8" spreadMethod="pad" x1="-819.2" x2="819.2">
      <stop offset="0.0" stop-color="#c48140"/>
      <stop offset="0.25098039215686274" stop-color="#d9aa4f"/>
      <stop offset="0.7529411764705882" stop-color="#d19c4d"/>
      <stop offset="1.0" stop-color="#b16d24"/>
    </linearGradient>
    <linearGradient gradientTransform="matrix(0.0173, 0.0, 0.0, 0.0011, 75.15, 21.1)" gradientUnits="userSpaceOnUse" id="gradient9" spreadMethod="pad" x1="-819.2" x2="819.2">
      <stop offset="0.0" stop-color="#580e0a"/>
      <stop offset="0.4549019607843137" stop-color="#724211" stop-opacity="0.0"/>
    </linearGradient>
    <linearGradient gradientTransform="matrix(0.0027, 0.0, 0.0, 4.0E-4, 66.5, 25.85)" gradientUnits="userSpaceOnUse" id="gradient10" spreadMethod="pad" x1="-819.2" x2="819.2">
      <stop offset="0.0" stop-color="#580e0a"/>
      <stop offset="0.4549019607843137" stop-color="#724211" stop-opacity="0.0"/>
    </linearGradient>
    <linearGradient gradientTransform="matrix(5.0E-4, 0.0, 0.0, 2.0E-4, 60.5, 24.0)" gradientUnits="userSpaceOnUse" id="gradient11" spreadMethod="pad" x1="-819.2" x2="819.2">
      <stop offset="0.0" stop-color="#580e0a"/>
      <stop offset="0.4549019607843137" stop-color="#724211" stop-opacity="0.0"/>
    </linearGradient>
    <linearGradient gradientTransform="matrix(0.0174, 7.0E-4, -1.0E-4, 0.0021, 75.05, 36.5)" gradientUnits="userSpaceOnUse" id="gradient12" spreadMethod="pad" x1="-819.2" x2="819.2">
      <stop offset="0.0" stop-color="#580e0a"/>
      <stop offset="0.4549019607843137" stop-color="#724211" stop-opacity="0.0"/>
    </linearGradient>
    <linearGradient gradientTransform="matrix(0.0173, 0.0, 0.0, 0.0013, 75.15, 34.75)" gradientUnits="userSpaceOnUse" id="gradient13" spreadMethod="pad" x1="-819.2" x2="819.2">
      <stop offset="0.0" stop-color="#580e0a"/>
      <stop offset="0.4549019607843137" stop-color="#724211" stop-opacity="0.0"/>
    </linearGradient>
    <linearGradient gradientTransform="matrix(0.0165, 0.0, 0.0, 0.0018, 71.8, 41.25)" gradientUnits="userSpaceOnUse" id="gradient14" spreadMethod="pad" x1="-819.2" x2="819.2">
      <stop offset="0.0" stop-color="#580e0a"/>
      <stop offset="0.4549019607843137" stop-color="#724211" stop-opacity="0.0"/>
    </linearGradient>
    <linearGradient gradientTransform="matrix(0.0297, 0.0012, -1.0E-4, 0.0021, 81.95, 18.7)" gradientUnits="userSpaceOnUse" id="gradient15" spreadMethod="pad" x1="-819.2" x2="819.2">
      <stop offset="0.0" stop-color="#580e0a"/>
      <stop offset="0.4549019607843137" stop-color="#724211" stop-opacity="0.0"/>
    </linearGradient>
    <linearGradient gradientTransform="matrix(0.0193, -7.0E-4, 2.0E-4, 0.004, 74.55, 37.25)" gradientUnits="userSpaceOnUse" id="gradient16" spreadMethod="pad" x1="-819.2" x2="819.2">
      <stop offset="0.29411764705882354" stop-color="#daa44e"/>
      <stop offset="0.9098039215686274" stop-color="#f5da8d"/>
    </linearGradient>
    <radialGradient cx="0" cy="0" fx="99.2" fy="0" gradientTransform="matrix(0.0377, 0.0, 0.0, 0.0277, 80.4, 34.5)" gradientUnits="userSpaceOnUse" id="gradient17" r="819.2" spreadMethod="pad">
      <stop offset="0.0" stop-color="#a7692e"/>
      <stop offset="0.22745098039215686" stop-color="#bf9235"/>
      <stop offset="0.5098039215686274" stop-color="#dbb055"/>
      <stop offset="0.9921568627450981" stop-color="#e7bd63"/>
    </radialGradient>
    <linearGradient gradientTransform="matrix(0.0193, -7.0E-4, 2.0E-4, 0.004, 72.8, 32.0)" gradientUnits="userSpaceOnUse" id="gradient18" spreadMethod="pad" x1="-819.2" x2="819.2">
      <stop offset="0.29411764705882354" stop-color="#daa44e"/>
      <stop offset="0.9098039215686274" stop-color="#f5da8d"/>
    </linearGradient>
    <radialGradient cx="0" cy="0" fx="99.2" fy="0" gradientTransform="matrix(0.0377, 0.0, 0.0, 0.0277, 78.65, 29.0)" gradientUnits="userSpaceOnUse" id="gradient19" r="819.2" spreadMethod="pad">
      <stop offset="0.0" stop-color="#a7692e"/>
      <stop offset="0.22745098039215686" stop-color="#bf9235"/>
      <stop offset="0.5098039215686274" stop-color="#dbb055"/>
      <stop offset="0.9921568627450981" stop-color="#e7bd63"/>
    </radialGradient>
    <linearGradient gradientTransform="matrix(0.0206, -8.0E-4, 2.0E-4, 0.0043, 78.2, 40.3)" gradientUnits="userSpaceOnUse" id="gradient20" spreadMethod="pad" x1="-819.2" x2="819.2">
      <stop offset="0.29411764705882354" stop-color="#daa44e"/>
      <stop offset="0.9098039215686274" stop-color="#f5da8d"/>
    </linearGradient>
    <radialGradient cx="0" cy="0" fx="99.2" fy="0" gradientTransform="matrix(0.0402, 0.0, 0.0, 0.0295, 84.45, 37.15)" gradientUnits="userSpaceOnUse" id="gradient21" r="819.2" spreadMethod="pad">
      <stop offset="0.0" stop-color="#a7692e"/>
      <stop offset="0.22745098039215686" stop-color="#bf9235"/>
      <stop offset="0.5098039215686274" stop-color="#dbb055"/>
      <stop offset="0.9921568627450981" stop-color="#e7bd63"/>
    </radialGradient>
    <linearGradient gradientTransform="matrix(0.0239, -0.0013, 2.0E-4, 0.0069, 78.9, 66.75)" gradientUnits="userSpaceOnUse" id="gradient22" spreadMethod="pad" x1="-819.2" x2="819.2">
      <stop offset="0.29411764705882354" stop-color="#daa44e"/>
      <stop offset="0.9098039215686274" stop-color="#f5da8d"/>
    </linearGradient>
    <linearGradient gradientTransform="matrix(0.0239, -0.0012, 2.0E-4, 0.0065, 80.3, 60.05)" gradientUnits="userSpaceOnUse" id="gradient23" spreadMethod="pad" x1="-819.2" x2="819.2">
      <stop offset="0.29411764705882354" stop-color="#daa44e"/>
      <stop offset="0.9098039215686274" stop-color="#f5da8d"/>
    </linearGradient>
    <linearGradient gradientTransform="matrix(0.0239, -0.0012, 2.0E-4, 0.0065, 80.8, 52.8)" gradientUnits="userSpaceOnUse" id="gradient24" spreadMethod="pad" x1="-819.2" x2="819.2">
      <stop offset="0.29411764705882354" stop-color="#daa44e"/>
      <stop offset="0.9098039215686274" stop-color="#f5da8d"/>
    </linearGradient>
    <linearGradient gradientTransform="matrix(0.0253, 0.0, 0.0, 0.0191, 79.8, 58.55)" gradientUnits="userSpaceOnUse" id="gradient25" spreadMethod="pad" x1="-819.2" x2="819.2">
      <stop offset="0.0" stop-color="#580e0a"/>
      <stop offset="0.4549019607843137" stop-color="#724211" stop-opacity="0.0"/>
    </linearGradient>
    <linearGradient gradientTransform="matrix(0.0206, -8.0E-4, 2.0E-4, 0.0043, 79.2, 35.4)" gradientUnits="userSpaceOnUse" id="gradient26" spreadMethod="pad" x1="-819.2" x2="819.2">
      <stop offset="0.29411764705882354" stop-color="#daa44e"/>
      <stop offset="0.9098039215686274" stop-color="#f5da8d"/>
    </linearGradient>
    <radialGradient cx="0" cy="0" fx="99.2" fy="0" gradientTransform="matrix(0.0402, 0.0, 0.0, 0.0295, 85.45, 31.9)" gradientUnits="userSpaceOnUse" id="gradient27" r="819.2" spreadMethod="pad">
      <stop offset="0.0" stop-color="#a7692e"/>
      <stop offset="0.22745098039215686" stop-color="#bf9235"/>
      <stop offset="0.5098039215686274" stop-color="#dbb055"/>
      <stop offset="0.9921568627450981" stop-color="#e7bd63"/>
    </radialGradient>
    <linearGradient gradientTransform="matrix(0.0206, -8.0E-4, 2.0E-4, 0.0043, 78.7, 30.9)" gradientUnits="userSpaceOnUse" id="gradient28" spreadMethod="pad" x1="-819.2" x2="819.2">
      <stop offset="0.29411764705882354" stop-color="#daa44e"/>
      <stop offset="0.9098039215686274" stop-color="#f5da8d"/>
    </linearGradient>
    <radialGradient cx="0" cy="0" fx="99.2" fy="0" gradientTransform="matrix(0.0402, 0.0, 0.0, 0.0295, 84.95, 27.65)" gradientUnits="userSpaceOnUse" id="gradient29" r="819.2" spreadMethod="pad">
      <stop offset="0.0" stop-color="#a7692e"/>
      <stop offset="0.22745098039215686" stop-color="#bf9235"/>
      <stop offset="0.5098039215686274" stop-color="#dbb055"/>
      <stop offset="0.9921568627450981" stop-color="#e7bd63"/>
    </radialGradient>
    <linearGradient gradientTransform="matrix(0.0196, 7.0E-4, -1.0E-4, 0.0021, 51.6, 4.0)" gradientUnits="userSpaceOnUse" id="gradient30" spreadMethod="pad" x1="-819.2" x2="819.2">
      <stop offset="0.0" stop-color="#c48140"/>
      <stop offset="0.25098039215686274" stop-color="#d9aa4f"/>
      <stop offset="0.7529411764705882" stop-color="#d19c4d"/>
      <stop offset="1.0" stop-color="#b16d24"/>
    </linearGradient>
    <linearGradient gradientTransform="matrix(0.0196, 7.0E-4, -1.0E-4, 0.0021, 50.1, 8.4)" gradientUnits="userSpaceOnUse" id="gradient31" spreadMethod="pad" x1="-819.2" x2="819.2">
      <stop offset="0.0" stop-color="#c48140"/>
      <stop offset="0.25098039215686274" stop-color="#d9aa4f"/>
      <stop offset="0.7529411764705882" stop-color="#d19c4d"/>
      <stop offset="1.0" stop-color="#b16d24"/>
    </linearGradient>
    <linearGradient gradientTransform="matrix(0.0196, 7.0E-4, -1.0E-4, 0.0021, 47.85, 12.9)" gradientUnits="userSpaceOnUse" id="gradient32" spreadMethod="pad" x1="-819.2" x2="819.2">
      <stop offset="0.0" stop-color="#c48140"/>
      <stop offset="0.25098039215686274" stop-color="#d9aa4f"/>
      <stop offset="0.7529411764705882" stop-color="#d19c4d"/>
      <stop offset="1.0" stop-color="#b16d24"/>
    </linearGradient>
    <linearGradient gradientTransform="matrix(0.0193, -8.0E-4, 2.0E-4, 0.004, 50.85, 17.95)" gradientUnits="userSpaceOnUse" id="gradient33" spreadMethod="pad" x1="-819.2" x2="819.2">
      <stop offset="0.29411764705882354" stop-color="#daa44e"/>
      <stop offset="0.9098039215686274" stop-color="#f5da8d"/>
    </linearGradient>
    <radialGradient cx="0" cy="0" fx="99.2" fy="0" gradientTransform="matrix(0.0377, 0.0, 0.0, 0.0277, 56.75, 15.05)" gradientUnits="userSpaceOnUse" id="gradient34" r="819.2" spreadMethod="pad">
      <stop offset="0.0" stop-color="#a7692e"/>
      <stop offset="0.22745098039215686" stop-color="#bf9235"/>
      <stop offset="0.5098039215686274" stop-color="#dbb055"/>
      <stop offset="0.9921568627450981" stop-color="#e7bd63"/>
    </radialGradient>
    <radialGradient cx="0" cy="0" fx="99.2" fy="0" gradientTransform="matrix(0.0377, 0.0, 0.0, 0.0277, 57.0, 19.7)" gradientUnits="userSpaceOnUse" id="gradient35" r="819.2" spreadMethod="pad">
      <stop offset="0.0" stop-color="#a7692e"/>
      <stop offset="0.22745098039215686" stop-color="#bf9235"/>
      <stop offset="0.5098039215686274" stop-color="#dbb055"/>
      <stop offset="0.9921568627450981" stop-color="#e7bd63"/>
    </radialGradient>
    <linearGradient gradientTransform="matrix(0.0193, -8.0E-4, 2.0E-4, 0.004, 51.1, 22.55)" gradientUnits="userSpaceOnUse" id="gradient36" spreadMethod="pad" x1="-819.2" x2="819.2">
      <stop offset="0.29411764705882354" stop-color="#daa44e"/>
      <stop offset="0.9098039215686274" stop-color="#f5da8d"/>
    </linearGradient>
    <radialGradient cx="0" cy="0" fx="99.2" fy="0" gradientTransform="matrix(0.0377, 0.0, 0.0, 0.0277, 51.95, 25.95)" gradientUnits="userSpaceOnUse" id="gradient37" r="819.2" spreadMethod="pad">
      <stop offset="0.0" stop-color="#a7692e"/>
      <stop offset="0.22745098039215686" stop-color="#bf9235"/>
      <stop offset="0.5098039215686274" stop-color="#dbb055"/>
      <stop offset="0.9921568627450981" stop-color="#e7bd63"/>
    </radialGradient>
    <linearGradient gradientTransform="matrix(0.0193, -8.0E-4, 2.0E-4, 0.004, 46.1, 28.85)" gradientUnits="userSpaceOnUse" id="gradient38" spreadMethod="pad" x1="-819.2" x2="819.2">
      <stop offset="0.29411764705882354" stop-color="#daa44e"/>
      <stop offset="0.9098039215686274" stop-color="#f5da8d"/>
    </linearGradient>
    <radialGradient cx="0" cy="0" fx="99.2" fy="0" gradientTransform="matrix(0.0377, 0.0, 0.0, 0.0277, 56.85, 30.6)" gradientUnits="userSpaceOnUse" id="gradient39" r="819.2" spreadMethod="pad">
      <stop offset="0.0" stop-color="#a7692e"/>
      <stop offset="0.22745098039215686" stop-color="#bf9235"/>
      <stop offset="0.5098039215686274" stop-color="#dbb055"/>
      <stop offset="0.9921568627450981" stop-color="#e7bd63"/>
    </radialGradient>
    <linearGradient gradientTransform="matrix(0.0193, -8.0E-4, 2.0E-4, 0.004, 50.95, 33.45)" gradientUnits="userSpaceOnUse" id="gradient40" spreadMethod="pad" x1="-819.2" x2="819.2">
      <stop offset="0.29411764705882354" stop-color="#daa44e"/>
      <stop offset="0.9098039215686274" stop-color="#f5da8d"/>
    </linearGradient>
    <radialGradient cx="0" cy="0" fx="99.2" fy="0" gradientTransform="matrix(0.0377, 0.0, 0.0, 0.0277, 56.6, 39.95)" gradientUnits="userSpaceOnUse" id="gradient41" r="819.2" spreadMethod="pad">
      <stop offset="0.0" stop-color="#a7692e"/>
      <stop offset="0.22745098039215686" stop-color="#bf9235"/>
      <stop offset="0.5098039215686274" stop-color="#dbb055"/>
      <stop offset="0.9921568627450981" stop-color="#e7bd63"/>
    </radialGradient>
    <linearGradient gradientTransform="matrix(0.0193, -8.0E-4, 2.0E-4, 0.004, 48.35, 38.1)" gradientUnits="userSpaceOnUse" id="gradient42" spreadMethod="pad" x1="-819.2" x2="819.2">
      <stop offset="0.29411764705882354" stop-color="#daa44e"/>
      <stop offset="0.9098039215686274" stop-color="#f5da8d"/>
    </linearGradient>
    <linearGradient gradientTransform="matrix(0.0193, -8.0E-4, 2.0E-4, 0.004, 50.7, 42.85)" gradientUnits="userSpaceOnUse" id="gradient43" spreadMethod="pad" x1="-819.2" x2="819.2">
      <stop offset="0.29411764705882354" stop-color="#daa44e"/>
      <stop offset="0.9098039215686274" stop-color="#f5da8d"/>
    </linearGradient>
    <radialGradient cx="0" cy="0" fx="99.2" fy="0" gradientTransform="matrix(0.0377, 0.0, 0.0, 0.0277, 58.5, 45.35)" gradientUnits="userSpaceOnUse" id="gradient44" r="819.2" spreadMethod="pad">
      <stop offset="0.0" stop-color="#a7692e"/>
      <stop offset="0.22745098039215686" stop-color="#bf9235"/>
      <stop offset="0.5098039215686274" stop-color="#dbb055"/>
      <stop offset="0.9921568627450981" stop-color="#e7bd63"/>
    </radialGradient>
    <linearGradient gradientTransform="matrix(0.0193, -8.0E-4, 2.0E-4, 0.004, 52.6, 48.25)" gradientUnits="userSpaceOnUse" id="gradient45" spreadMethod="pad" x1="-819.2" x2="819.2">
      <stop offset="0.29411764705882354" stop-color="#daa44e"/>
      <stop offset="0.9098039215686274" stop-color="#f5da8d"/>
    </linearGradient>
    <radialGradient cx="0" cy="0" fx="99.2" fy="0" gradientTransform="matrix(0.0377, 0.0, 0.0, 0.0277, 54.25, 35.2)" gradientUnits="userSpaceOnUse" id="gradient46" r="819.2" spreadMethod="pad">
      <stop offset="0.0" stop-color="#a7692e"/>
      <stop offset="0.22745098039215686" stop-color="#bf9235"/>
      <stop offset="0.5098039215686274" stop-color="#dbb055"/>
      <stop offset="0.9921568627450981" stop-color="#e7bd63"/>
    </radialGradient>
    <linearGradient gradientTransform="matrix(0.0239, -0.0013, 2.0E-4, 0.0069, 45.95, 61.25)" gradientUnits="userSpaceOnUse" id="gradient47" spreadMethod="pad" x1="-819.2" x2="819.2">
      <stop offset="0.29411764705882354" stop-color="#daa44e"/>
      <stop offset="0.9098039215686274" stop-color="#f5da8d"/>
    </linearGradient>
    <linearGradient gradientTransform="matrix(0.0239, -0.0012, 2.0E-4, 0.0065, 23.8, 50.35)" gradientUnits="userSpaceOnUse" id="gradient48" spreadMethod="pad" x1="-819.2" x2="819.2">
      <stop offset="0.29411764705882354" stop-color="#daa44e"/>
      <stop offset="0.9098039215686274" stop-color="#f5da8d"/>
    </linearGradient>
    <linearGradient gradientTransform="matrix(0.0239, -0.0013, 2.0E-4, 0.0069, 44.7, 69.3)" gradientUnits="userSpaceOnUse" id="gradient49" spreadMethod="pad" x1="-819.2" x2="819.2">
      <stop offset="0.29411764705882354" stop-color="#daa44e"/>
      <stop offset="0.9098039215686274" stop-color="#f5da8d"/>
    </linearGradient>
    <linearGradient gradientTransform="matrix(0.0239, -0.0013, 2.0E-4, 0.0069, 19.8, 62.0)" gradientUnits="userSpaceOnUse" id="gradient50" spreadMethod="pad" x1="-819.2" x2="819.2">
      <stop offset="0.29411764705882354" stop-color="#daa44e"/>
      <stop offset="0.9098039215686274" stop-color="#f5da8d"/>
    </linearGradient>
  </defs>
</svg>
