<?xml version="1.0" encoding="UTF-8" standalone="no"?>
<svg xmlns:ffdec="https://www.free-decompiler.com/flash" xmlns:xlink="http://www.w3.org/1999/xlink" ffdec:objectType="shape" height="41.7px" width="18.65px" xmlns="http://www.w3.org/2000/svg">
  <g transform="matrix(1.0, 0.0, 0.0, 1.0, 0.0, -35.65)">
    <path d="M13.65 35.65 L14.2 36.0 14.25 35.95 14.6 35.8 17.5 37.85 Q19.05 39.15 18.5 40.9 L18.35 40.95 Q19.15 47.75 12.4 52.45 9.6 54.4 9.25 57.85 8.6 63.95 11.7 69.45 12.4 70.75 11.85 72.15 8.7 79.95 1.8 76.1 0.15 75.2 0.0 73.3 -0.25 68.55 3.75 69.45 4.2 69.55 4.05 70.1 3.55 71.7 3.5 73.25 7.5 73.65 6.7 69.1 6.25 66.85 4.95 64.85 -1.85 54.5 8.15 46.35 12.2 43.05 12.25 37.6 12.25 36.05 13.65 35.65 M8.8 67.75 Q9.3 69.6 9.05 71.4 8.85 72.95 7.95 74.3 10.05 72.9 9.8 70.35 9.65 68.8 8.8 67.75 M6.8 75.1 L5.85 75.6 7.25 74.95 7.6 74.55 7.55 74.6 6.8 75.1" fill="#6a3409" fill-rule="evenodd" stroke="none"/>
  </g>
</svg>
