<?xml version="1.0" encoding="UTF-8" standalone="no"?>
<svg xmlns:ffdec="https://www.free-decompiler.com/flash" xmlns:xlink="http://www.w3.org/1999/xlink" ffdec:objectType="shape" height="7.1px" width="7.1px" xmlns="http://www.w3.org/2000/svg">
  <g transform="matrix(1.0, 0.0, 0.0, 1.0, -3.6, -3.1)">
    <path d="M10.7 6.65 Q10.7 8.1 9.65 9.15 8.6 10.2 7.15 10.2 5.7 10.2 4.65 9.15 3.6 8.1 3.6 6.65 3.6 5.2 4.65 4.15 5.7 3.1 7.15 3.1 8.6 3.1 9.65 4.15 10.7 5.2 10.7 6.65" fill="url(#gradient0)" fill-rule="evenodd" stroke="none"/>
    <path d="M9.9 3.85 L10.15 4.4 9.95 4.9 8.25 6.7 9.9 8.45 10.1 9.0 9.85 9.5 9.3 9.7 Q8.95 9.7 8.75 9.5 L7.25 7.8 5.7 9.5 5.2 9.7 Q4.85 9.7 4.65 9.5 4.35 9.3 4.35 9.0 4.35 8.65 4.6 8.45 L6.2 6.7 4.5 4.9 4.35 4.35 4.6 3.8 5.15 3.6 Q5.45 3.6 5.7 3.9 L7.25 5.6 8.8 3.9 Q9.0 3.6 9.35 3.6 9.65 3.6 9.9 3.85" fill="#511600" fill-rule="evenodd" stroke="none"/>
  </g>
  <defs>
    <radialGradient cx="0" cy="0" gradientTransform="matrix(0.005, 0.0, 0.0, 0.005, 7.3, 6.35)" gradientUnits="userSpaceOnUse" id="gradient0" r="819.2" spreadMethod="pad">
      <stop offset="0.0" stop-color="#f0835a"/>
      <stop offset="1.0" stop-color="#f0835a" stop-opacity="0.0"/>
    </radialGradient>
  </defs>
</svg>
