<?xml version="1.0" encoding="UTF-8" standalone="no"?>
<svg xmlns:ffdec="https://www.free-decompiler.com/flash" xmlns:xlink="http://www.w3.org/1999/xlink" ffdec:objectType="shape" height="15.05px" width="14.55px" xmlns="http://www.w3.org/2000/svg">
  <g transform="matrix(1.0, 0.0, 0.0, 1.0, 0.0, 0.0)">
    <path d="M11.35 15.05 L3.2 15.05 Q0.0 15.05 0.0 11.7 L0.0 4.25 Q0.0 0.9 3.2 0.9 L11.35 0.9 Q14.55 0.9 14.55 4.25 L14.55 11.7 Q14.55 15.05 11.35 15.05" fill="#b89451" fill-rule="evenodd" stroke="none"/>
    <path d="M11.35 14.15 L3.2 14.15 Q0.0 14.15 0.0 10.8 L0.0 3.35 Q0.0 0.0 3.2 0.0 L11.35 0.0 Q14.55 0.0 14.55 3.35 L14.55 10.8 Q14.55 14.15 11.35 14.15" fill="#352405" fill-rule="evenodd" stroke="none"/>
    <path d="M10.95 13.65 L3.75 13.65 Q0.9 13.65 0.9 10.7 L0.9 4.1 Q0.9 1.15 3.75 1.15 L10.95 1.15 Q13.8 1.15 13.8 4.1 L13.8 10.7 Q13.8 13.65 10.95 13.65" fill="#850000" fill-rule="evenodd" stroke="none"/>
  </g>
</svg>
