<?xml version="1.0" encoding="UTF-8" standalone="no"?>
<svg xmlns:ffdec="https://www.free-decompiler.com/flash" xmlns:xlink="http://www.w3.org/1999/xlink" ffdec:objectType="shape" height="7.1px" width="7.1px" xmlns="http://www.w3.org/2000/svg">
  <g transform="matrix(1.0, 0.0, 0.0, 1.0, -3.6, -3.55)">
    <path d="M10.7 7.1 Q10.7 8.55 9.65 9.6 8.6 10.65 7.15 10.65 5.7 10.65 4.65 9.6 3.6 8.55 3.6 7.1 3.6 5.65 4.65 4.6 5.7 3.55 7.15 3.55 8.6 3.55 9.65 4.6 10.7 5.65 10.7 7.1" fill="url(#gradient0)" fill-rule="evenodd" stroke="none"/>
    <path d="M9.9 4.15 L10.15 4.7 9.95 5.2 8.25 7.0 9.9 8.75 10.1 9.3 9.85 9.8 9.3 10.0 Q8.95 10.0 8.75 9.8 L7.25 8.1 5.7 9.8 5.2 10.0 Q4.85 10.0 4.65 9.8 4.35 9.6 4.35 9.3 4.35 8.95 4.6 8.75 L6.2 7.0 4.5 5.2 4.35 4.65 4.6 4.1 5.15 3.9 Q5.45 3.9 5.7 4.2 L7.25 5.9 8.8 4.2 Q9.0 3.9 9.35 3.9 9.65 3.9 9.9 4.15" fill="#511600" fill-rule="evenodd" stroke="none"/>
  </g>
  <defs>
    <radialGradient cx="0" cy="0" gradientTransform="matrix(0.005, 0.0, 0.0, 0.005, 7.3, 6.8)" gradientUnits="userSpaceOnUse" id="gradient0" r="819.2" spreadMethod="pad">
      <stop offset="0.0" stop-color="#f0835a"/>
      <stop offset="1.0" stop-color="#f0835a" stop-opacity="0.0"/>
    </radialGradient>
  </defs>
</svg>
