<?xml version="1.0" encoding="UTF-8" standalone="no"?>
<svg xmlns:ffdec="https://www.free-decompiler.com/flash" xmlns:xlink="http://www.w3.org/1999/xlink" ffdec:objectType="shape" height="43.2px" width="101.8px" xmlns="http://www.w3.org/2000/svg">
  <g transform="matrix(1.0, 0.0, 0.0, 1.0, 1.55, -1.4)">
    <path d="M94.1 4.45 L95.95 4.45 Q97.65 3.1 100.05 5.9 L99.05 30.55 97.0 31.55 Q98.35 31.95 99.25 32.7 L100.15 37.0 100.2 39.05 100.1 40.0 100.2 40.0 Q100.0 43.1 97.45 44.15 L88.3 44.6 77.95 44.45 65.9 43.9 55.25 43.7 14.65 44.5 Q7.8 44.6 4.6 43.3 L3.4 43.1 Q1.55 42.65 0.45 42.05 L0.45 12.35 1.95 10.35 3.35 7.15 5.65 3.45 Q48.1 1.15 89.25 3.55 L94.1 4.45" fill="#1e0101" fill-opacity="0.36078432" fill-rule="evenodd" stroke="none"/>
    <path d="M97.85 3.75 L96.9 27.95 94.9 28.85 97.05 30.0 98.0 34.25 98.05 36.3 97.9 37.15 98.05 37.15 Q97.8 40.2 95.35 41.25 L86.55 41.7 76.55 41.55 64.9 41.0 54.6 40.8 15.35 41.6 Q3.45 41.75 3.0 37.55 L2.9 37.15 3.15 37.15 3.0 36.6 2.9 36.3 Q-0.35 25.5 4.1 6.65 L4.9 4.75 Q5.3 2.5 9.45 2.3 L93.9 2.3 Q96.6 2.95 97.85 3.75" fill="url(#gradient0)" fill-rule="evenodd" stroke="none"/>
    <path d="M94.9 3.5 L93.95 27.8 91.95 28.75 Q93.2 29.15 94.1 29.85 L95.05 34.1 Q95.55 38.9 92.4 40.2 L83.6 40.7 73.6 40.55 61.95 40.05 51.65 39.8 12.35 40.65 Q0.5 40.75 0.05 36.5 -3.35 25.6 1.15 6.4 L1.95 4.45 Q2.05 2.35 3.3 1.4 L87.45 1.4 Q93.0 2.2 94.9 3.5" fill="#c58c3f" fill-rule="evenodd" stroke="none"/>
    <path d="M-1.1 20.05 L18.45 19.35 Q36.4 19.35 49.0 21.35 61.3 23.35 61.45 26.1 61.3 28.85 49.0 30.8 36.4 32.9 18.45 32.9 L-0.85 32.15 -1.05 32.15 -1.25 30.1 18.55 30.8 44.35 29.55 Q55.45 28.25 55.3 26.35 55.45 24.45 44.35 23.2 L18.55 21.95 -1.45 22.65 -1.25 20.1 -1.1 20.05" fill="url(#gradient1)" fill-rule="evenodd" stroke="none"/>
    <path d="M-1.35 23.15 L18.55 22.45 44.0 23.7 Q54.15 24.8 54.25 26.35 54.15 27.9 44.0 29.05 L18.55 30.25 -1.2 29.6 -1.35 29.6 Q-1.6 26.6 -1.45 23.15 L-1.35 23.15" fill="url(#gradient2)" fill-rule="evenodd" stroke="none"/>
    <path d="M4.6 40.05 Q0.35 39.15 -0.05 36.7 11.15 37.4 22.15 37.2 34.35 36.9 56.45 32.7 73.3 29.45 92.9 29.4 L93.35 29.4 94.0 29.9 94.9 34.15 Q95.5 38.9 92.3 40.25 L83.45 40.7 73.45 40.6 61.85 40.05 51.55 39.8 12.25 40.65 4.6 40.05" fill="url(#gradient3)" fill-rule="evenodd" stroke="none"/>
    <path d="M-0.6 15.9 L20.0 14.75 Q38.6 14.15 58.25 17.9 74.55 21.0 94.1 21.25 L94.0 24.7 Q74.55 24.55 59.55 21.2 40.05 16.85 21.9 16.85 L-1.05 17.9 -0.8 15.9 -0.6 15.9 M-1.1 18.4 L-0.95 18.4 21.9 17.35 Q39.85 17.35 59.05 21.65 74.2 25.05 93.95 25.2 L93.85 27.8 91.8 28.75 92.3 28.9 Q72.8 29.0 56.05 32.25 34.2 36.45 22.15 36.7 11.15 36.9 0.05 36.15 L-0.15 36.15 -0.95 32.65 18.45 33.35 Q36.65 33.35 49.4 31.3 62.6 29.15 62.5 26.1 62.6 23.05 49.4 20.9 36.65 18.85 18.45 18.85 L-1.2 19.6 -1.1 18.4 M94.25 16.55 L71.5 15.35 Q61.3 14.35 61.1 13.1 61.3 11.8 71.5 10.8 L94.6 9.65 94.25 16.55" fill="#c58c3f" fill-rule="evenodd" stroke="none"/>
    <path d="M94.2 18.85 L66.1 16.8 Q54.0 15.1 53.9 12.85 54.0 10.65 66.1 8.9 77.75 7.25 94.7 6.85 L94.6 9.15 71.25 10.35 Q59.9 11.45 60.05 13.1 59.9 14.7 71.25 15.85 L94.25 17.05 94.2 18.85" fill="url(#gradient4)" fill-rule="evenodd" stroke="none"/>
    <path d="M0.2 10.15 L17.05 10.7 Q35.75 11.25 61.75 7.45 77.25 5.25 94.75 4.45 L94.7 6.35 Q77.55 6.8 65.8 8.45 52.7 10.3 52.85 12.85 52.7 15.4 65.8 17.25 77.4 18.9 94.2 19.35 L94.2 20.75 Q74.8 20.5 58.75 17.45 38.75 13.6 19.95 14.25 L-0.7 15.35 0.2 10.15" fill="url(#gradient5)" fill-rule="evenodd" stroke="none"/>
    <path d="M94.15 21.2 L94.5 21.25 Q74.75 21.0 58.25 17.9 38.65 14.15 20.05 14.75 L-0.65 15.85 -0.65 15.35 20.05 14.25 Q38.9 13.65 58.8 17.4 74.85 20.5 94.2 20.7 L94.15 21.2 M94.8 4.4 Q77.4 5.2 62.0 7.4 35.85 11.2 17.2 10.7 L0.3 10.1 0.4 9.65 17.2 10.2 Q35.6 10.7 61.3 6.95 77.0 4.7 94.9 3.95 L94.8 4.4 M94.2 19.3 Q77.4 18.85 65.75 17.25 52.65 15.35 52.8 12.85 52.65 10.35 65.75 8.5 77.6 6.8 94.75 6.4 L94.75 6.8 Q77.95 7.25 66.35 8.85 54.15 10.6 54.15 12.85 54.15 15.1 66.35 16.8 77.8 18.45 94.2 18.9 L94.2 19.3 M94.35 16.95 L71.25 15.75 Q59.8 14.65 60.05 13.05 59.8 11.5 71.25 10.35 L94.65 9.2 94.65 9.6 71.65 10.75 Q61.4 11.75 61.2 13.05 61.4 14.35 71.65 15.4 L94.4 16.6 94.35 16.95 M93.95 25.2 Q74.25 25.0 59.1 21.65 39.9 17.35 22.0 17.35 L-1.0 18.4 -1.0 17.9 22.0 16.8 Q40.15 16.8 59.6 21.2 74.6 24.5 94.05 24.7 L93.95 25.2 M93.4 29.4 Q73.5 29.4 56.5 32.65 34.45 36.95 22.25 37.2 11.2 37.4 0.1 36.65 L0.0 36.5 -0.1 36.15 Q11.1 36.9 22.15 36.65 34.2 36.4 56.1 32.2 72.85 28.95 92.35 28.9 L93.4 29.4 M66.9 1.65 L71.35 1.65 61.55 2.95 Q35.45 6.7 16.25 5.6 L1.7 4.8 1.85 4.45 1.95 4.35 16.4 5.15 Q35.2 6.15 60.9 2.45 L66.9 1.65 M55.45 26.35 Q55.5 28.25 44.35 29.5 L18.65 30.7 -1.25 30.05 -1.3 29.6 18.65 30.25 44.1 29.05 Q54.2 27.9 54.3 26.35 54.2 24.8 44.1 23.7 L18.65 22.45 -1.4 23.1 -1.4 22.6 18.65 21.95 44.35 23.15 Q55.5 24.45 55.45 26.35 M62.55 26.1 Q62.7 29.15 49.45 31.25 36.7 33.35 18.6 33.35 L-0.9 32.6 -1.0 32.15 18.6 32.9 Q36.4 32.9 49.15 30.8 61.4 28.8 61.45 26.1 61.4 23.3 49.15 21.35 36.4 19.3 18.6 19.3 L-1.55 20.1 -1.15 20.05 -1.15 19.55 18.6 18.85 Q36.7 18.85 49.45 20.9 62.7 23.05 62.55 26.1" fill="#ae7528" fill-rule="evenodd" stroke="none"/>
  </g>
  <defs>
    <linearGradient gradientTransform="matrix(0.0589, 0.0, 0.0, 0.0252, 49.8, 21.1)" gradientUnits="userSpaceOnUse" id="gradient0" spreadMethod="pad" x1="-819.2" x2="819.2">
      <stop offset="0.0" stop-color="#231204"/>
      <stop offset="0.5568627450980392" stop-color="#4f2909"/>
      <stop offset="1.0" stop-color="#693408"/>
    </linearGradient>
    <linearGradient gradientTransform="matrix(0.0384, 0.0023, -0.0028, 0.0084, 29.5, 25.7)" gradientUnits="userSpaceOnUse" id="gradient1" spreadMethod="pad" x1="-819.2" x2="819.2">
      <stop offset="0.0" stop-color="#b17536"/>
      <stop offset="1.0" stop-color="#ce9744"/>
    </linearGradient>
    <linearGradient gradientTransform="matrix(0.023, 0.0106, -0.0089, 0.0033, 26.25, 26.05)" gradientUnits="userSpaceOnUse" id="gradient2" spreadMethod="pad" x1="-819.2" x2="819.2">
      <stop offset="0.0" stop-color="#b17536"/>
      <stop offset="1.0" stop-color="#ce9744"/>
    </linearGradient>
    <linearGradient gradientTransform="matrix(-0.1548, 0.014, -0.0036, -0.0081, 59.3, 25.55)" gradientUnits="userSpaceOnUse" id="gradient3" spreadMethod="pad" x1="-819.2" x2="819.2">
      <stop offset="0.0" stop-color="#b17536"/>
      <stop offset="1.0" stop-color="#ce9744"/>
    </linearGradient>
    <linearGradient gradientTransform="matrix(0.0427, 0.0, 0.0, 0.0073, 65.8, 12.7)" gradientUnits="userSpaceOnUse" id="gradient4" spreadMethod="pad" x1="-819.2" x2="819.2">
      <stop offset="0.0" stop-color="#b17536"/>
      <stop offset="1.0" stop-color="#ce9744"/>
    </linearGradient>
    <linearGradient gradientTransform="matrix(0.1326, -0.0068, 0.0025, 0.0098, 13.65, 14.4)" gradientUnits="userSpaceOnUse" id="gradient5" spreadMethod="pad" x1="-819.2" x2="819.2">
      <stop offset="0.0" stop-color="#b17536"/>
      <stop offset="1.0" stop-color="#ce9744"/>
    </linearGradient>
  </defs>
</svg>
