<?xml version="1.0" encoding="UTF-8" standalone="no"?>
<svg xmlns:ffdec="https://www.free-decompiler.com/flash" xmlns:xlink="http://www.w3.org/1999/xlink" ffdec:objectType="shape" height="20.95px" width="71.65px" xmlns="http://www.w3.org/2000/svg">
  <g transform="matrix(1.0, 0.0, 0.0, 1.0, -10.45, -11.0)">
    <path d="M38.65 11.0 L38.8 31.65 36.05 31.65 32.65 20.8 32.8 31.5 30.05 31.5 30.05 11.45 32.8 11.45 35.9 21.7 35.75 11.15 38.65 11.0 M25.8 21.55 Q25.8 18.05 25.45 16.2 25.3 14.35 24.4 14.35 23.5 14.5 23.35 16.2 23.0 18.05 23.0 21.55 23.0 24.9 23.35 26.75 23.5 28.6 24.4 28.6 25.3 28.6 25.45 26.75 25.8 24.9 25.8 21.55 M28.55 21.55 Q28.55 26.45 27.75 29.05 27.15 31.8 24.25 31.8 21.5 31.65 20.75 29.05 20.1 26.45 20.1 21.4 20.1 16.5 20.75 13.9 21.5 11.3 24.4 11.15 27.15 11.3 27.9 13.9 28.55 16.5 28.55 21.55 M48.15 14.35 L45.7 14.2 45.7 31.65 42.75 31.5 42.75 14.2 40.3 14.2 40.3 11.0 48.0 11.0 48.15 14.35 M52.25 11.15 L52.55 31.8 49.8 31.95 49.5 11.15 52.25 11.15 M68.8 11.75 Q68.2 17.55 68.35 21.1 68.35 25.35 68.5 26.6 68.8 28.0 69.7 28.3 70.8 28.45 70.95 26.6 L71.25 21.4 70.8 11.3 73.55 11.15 Q74.15 16.2 74.15 20.5 L74.15 22.45 74.15 22.9 Q74.15 31.2 70.2 31.65 L69.4 31.65 Q67.1 31.65 66.2 29.5 65.45 27.05 65.45 22.15 L65.45 21.1 65.45 19.85 Q65.45 16.65 65.9 11.6 L68.8 11.75 M60.85 21.7 L60.7 11.15 63.6 11.0 63.75 31.65 61.0 31.65 57.6 20.8 57.8 31.5 55.0 31.5 55.0 11.45 57.8 11.45 60.85 21.7 M82.1 14.35 L78.6 14.35 78.6 18.5 81.35 18.5 81.35 21.7 78.45 21.7 78.45 28.3 82.1 28.3 81.95 31.65 75.55 31.65 75.85 11.15 81.95 11.15 82.1 14.35 M18.9 18.8 L16.0 19.1 15.85 16.2 Q15.7 14.35 14.75 14.35 13.85 14.5 13.7 16.35 13.4 18.05 13.4 21.55 13.4 24.9 13.7 26.75 13.85 28.6 14.75 28.6 L14.75 28.75 Q15.7 28.6 15.85 26.75 L16.0 23.85 18.9 24.0 Q18.75 27.2 18.3 29.05 17.5 31.8 14.6 31.8 11.85 31.65 11.1 29.05 10.45 26.45 10.45 21.55 10.45 16.5 11.1 13.9 11.85 11.3 14.6 11.15 17.5 11.3 18.15 13.9 18.75 15.75 18.9 18.8" fill="#662607" fill-rule="evenodd" stroke="none"/>
  </g>
</svg>
