<?xml version="1.0" encoding="UTF-8" standalone="no"?>
<svg xmlns:ffdec="https://www.free-decompiler.com/flash" xmlns:xlink="http://www.w3.org/1999/xlink" ffdec:objectType="shape" height="22.2px" width="63.1px" xmlns="http://www.w3.org/2000/svg">
  <g transform="matrix(1.0, 0.0, 0.0, 1.0, 0.0, 3.7)">
    <path d="M6.75 -0.8 Q7.3 1.2 7.45 4.45 L4.9 4.75 4.75 1.65 Q4.6 -0.35 3.8 -0.35 3.0 -0.15 2.85 1.8 2.6 3.6 2.6 7.35 2.6 10.95 2.85 12.95 3.0 14.9 3.8 14.9 L3.8 15.05 Q4.6 14.9 4.75 12.95 L4.9 9.85 7.45 9.95 6.9 15.35 Q6.2 18.35 3.65 18.35 1.25 18.15 0.55 15.35 0.0 12.6 0.0 7.35 0.0 2.0 0.55 -0.8 1.25 -3.6 3.65 -3.7 6.2 -3.6 6.75 -0.8 M63.1 2.95 L60.0 2.95 60.0 6.6 62.45 6.6 62.45 9.45 59.9 9.45 59.9 15.25 63.1 15.25 63.0 18.2 57.3 18.2 57.6 0.15 63.0 0.15 63.1 2.95 M53.15 0.25 L55.55 0.15 Q56.1 4.6 56.1 8.35 L56.1 10.1 56.1 10.5 Q56.1 17.8 52.6 18.2 L51.95 18.2 Q49.9 18.2 49.1 16.3 48.45 14.15 48.45 9.85 L48.45 8.9 48.45 7.8 Q48.45 5.0 48.85 0.55 L51.4 0.7 Q50.85 5.8 51.0 8.9 L51.1 13.75 Q51.4 14.95 52.2 15.25 53.15 15.4 53.3 13.75 L53.55 9.15 Q53.55 5.65 53.15 0.25 M44.4 9.45 L44.25 0.15 46.8 0.0 46.95 18.2 44.5 18.2 41.55 8.65 41.7 18.05 39.25 18.05 39.25 0.4 41.7 0.4 44.4 9.45 M36.85 0.15 L37.1 18.35 34.65 18.5 34.4 0.15 36.85 0.15 M31.05 2.85 L31.05 18.2 28.45 18.05 28.45 2.85 26.3 2.85 26.3 0.0 33.05 0.0 33.2 2.95 31.05 2.85 M24.85 0.0 L24.95 18.2 22.55 18.2 19.55 8.65 19.7 18.05 17.3 18.05 17.3 0.4 19.7 0.4 22.4 9.45 22.25 0.15 24.85 0.0 M13.25 4.6 Q13.1 2.95 12.3 2.95 11.5 3.1 11.35 4.6 11.1 6.2 11.1 9.3 11.1 12.25 11.35 13.9 11.5 15.5 12.3 15.5 13.1 15.5 13.25 13.9 L13.5 9.3 13.25 4.6 M15.95 9.3 Q15.95 13.6 15.25 15.9 14.7 18.35 12.15 18.35 9.75 18.2 9.05 15.9 8.5 13.6 8.5 9.15 8.5 4.85 9.05 2.55 9.75 0.25 12.3 0.15 14.7 0.25 15.4 2.55 15.95 4.85 15.95 9.3" fill="#672208" fill-rule="evenodd" stroke="none"/>
  </g>
</svg>
