<?xml version="1.0" encoding="UTF-8" standalone="no"?>
<svg xmlns:ffdec="https://www.free-decompiler.com/flash" xmlns:xlink="http://www.w3.org/1999/xlink" ffdec:objectType="shape" height="37.45px" width="33.35px" xmlns="http://www.w3.org/2000/svg">
  <g transform="matrix(1.0, 0.0, 0.0, 1.0, -15.6, -34.8)">
    <path d="M26.55 36.25 Q22.6 38.1 15.6 34.8 22.85 38.5 28.6 41.6 34.35 44.6 33.45 54.9 32.5 65.2 37.4 69.25 42.4 73.3 45.65 71.9 48.95 70.4 48.95 66.85 48.95 63.25 47.65 64.05 46.3 64.85 46.35 65.8 46.3 65.9 46.4 66.0 L46.55 66.1 46.85 66.5 47.2 66.85 Q44.9 69.25 42.65 66.3 39.0 61.35 41.1 55.2 41.8 53.25 41.7 51.25 41.25 40.3 31.4 36.1 L26.55 36.25" fill="#6a3409" fill-rule="evenodd" stroke="none"/>
  </g>
</svg>
