<?xml version="1.0" encoding="UTF-8" standalone="no"?>
<svg xmlns:ffdec="https://www.free-decompiler.com/flash" xmlns:xlink="http://www.w3.org/1999/xlink" ffdec:objectType="shape" height="31.0px" width="87.05px" xmlns="http://www.w3.org/2000/svg">
  <g transform="matrix(1.0, 0.0, 0.0, 1.0, 12.25, 4.05)">
    <path d="M15.75 -2.95 L15.95 -3.65 16.15 -3.75 18.9 -4.05 25.2 -3.45 31.9 -2.4 49.8 -0.6 55.7 0.1 53.75 -0.25 Q62.25 0.8 68.95 5.35 74.8 9.35 74.8 12.25 74.8 14.5 69.2 18.3 63.65 22.1 60.45 22.1 52.65 22.1 37.65 24.1 L17.8 26.95 17.2 26.85 17.2 26.75 19.2 25.65 Q20.8 24.6 20.8 23.75 L20.65 23.05 20.45 22.9 16.7 22.6 Q8.45 22.6 3.25 21.15 -2.65 19.5 -7.7 19.25 L-6.1 18.6 -0.3 15.35 Q1.25 14.3 1.25 13.5 1.25 12.3 -3.05 11.4 -9.75 9.95 -12.25 9.0 L-12.15 8.9 -3.7 8.1 Q0.95 7.8 1.85 6.35 L-1.95 5.95 Q-5.7 5.45 -7.3 4.5 -7.5 3.5 -2.1 2.05 L3.95 0.65 7.5 -0.8 Q9.9 -1.95 10.85 -1.95 11.8 -1.95 16.75 -0.05 L16.85 -0.25 Q16.85 -0.85 15.75 -2.95" fill="#023e5d" fill-opacity="0.6784314" fill-rule="evenodd" stroke="none"/>
  </g>
</svg>
