<?xml version="1.0" encoding="UTF-8" standalone="no"?>
<svg xmlns:ffdec="https://www.free-decompiler.com/flash" xmlns:xlink="http://www.w3.org/1999/xlink" ffdec:objectType="shape" height="44.5px" width="191.45px" xmlns="http://www.w3.org/2000/svg">
  <g transform="matrix(1.0, 0.0, 0.0, 1.0, -25.95, -111.25)">
    <path d="M215.6 126.05 Q210.15 129.75 195.2 129.8 180.2 129.8 190.85 136.0 203.45 142.0 187.95 144.8 158.8 145.8 158.55 151.4 158.25 157.1 136.05 155.35 113.7 153.55 89.1 154.1 64.5 154.6 67.85 149.4 71.2 144.15 46.25 137.5 21.25 130.85 43.5 122.8 13.3 110.3 35.05 111.95 56.8 113.55 70.25 111.25 129.15 121.25 195.2 113.7 202.85 114.1 210.25 118.3 220.95 122.45 215.6 126.05" fill="#5fa8ff" fill-opacity="0.9882353" fill-rule="evenodd" stroke="none"/>
  </g>
</svg>
