<?xml version="1.0" encoding="UTF-8" standalone="no"?>
<svg xmlns:ffdec="https://www.free-decompiler.com/flash" xmlns:xlink="http://www.w3.org/1999/xlink" ffdec:objectType="shape" height="18.1px" width="60.0px" xmlns="http://www.w3.org/2000/svg">
  <g transform="matrix(1.0, 0.0, 0.0, 1.0, 7.2, -2.35)">
    <path d="M52.8 10.45 Q52.8 14.6 44.55 17.5 36.3 20.45 24.65 20.45 16.95 20.45 10.75 19.2 L5.2 19.35 -1.65 19.05 Q-4.45 18.75 -4.45 18.3 -4.45 17.85 -1.95 16.9 0.3 15.9 -2.1 15.0 L-5.9 13.6 Q-7.2 13.15 -7.2 12.5 -7.2 11.85 -4.6 11.7 -2.1 11.5 -1.05 9.2 -0.7 8.55 -1.9 7.05 -3.8 6.6 -3.8 5.95 -3.8 5.3 -1.9 4.8 L2.25 4.35 Q3.4 3.85 9.05 3.35 L16.15 2.35 35.4 2.35 Q52.8 6.4 52.8 10.45" fill="#023e5d" fill-opacity="0.6784314" fill-rule="evenodd" stroke="none"/>
  </g>
</svg>
