<?xml version="1.0" encoding="UTF-8" standalone="no"?>
<svg xmlns:ffdec="https://www.free-decompiler.com/flash" xmlns:xlink="http://www.w3.org/1999/xlink" ffdec:objectType="shape" height="18.05px" width="21.15px" xmlns="http://www.w3.org/2000/svg">
  <g transform="matrix(1.0, 0.0, 0.0, 1.0, 0.0, 0.0)">
    <path d="M8.8 0.0 Q10.05 0.0 11.1 0.65 L11.2 0.6 13.6 0.4 Q14.85 0.75 15.5 1.75 L15.55 1.8 Q16.9 2.1 18.6 2.95 21.15 4.25 21.15 6.5 21.15 8.5 19.15 10.2 19.75 12.6 18.3 14.05 17.5 14.85 16.3 15.15 16.15 16.2 15.4 16.95 13.9 18.45 10.85 17.9 8.95 17.5 7.7 16.8 L5.4 16.95 Q4.15 16.65 3.5 15.55 3.1 14.95 3.05 14.35 L2.1 13.7 Q-0.2 11.9 0.0 9.7 0.2 7.75 1.9 6.4 1.6 5.65 1.8 4.85 2.1 3.7 3.2 3.15 L4.6 2.85 Q4.95 2.15 5.45 1.55 6.85 0.0 8.8 0.0" fill="#d2d2d2" fill-rule="evenodd" stroke="none"/>
  </g>
</svg>
