<?xml version="1.0" encoding="UTF-8" standalone="no"?>
<svg xmlns:ffdec="https://www.free-decompiler.com/flash" xmlns:xlink="http://www.w3.org/1999/xlink" ffdec:objectType="shape" height="21.25px" width="72.25px" xmlns="http://www.w3.org/2000/svg">
  <g transform="matrix(1.0, 0.0, 0.0, 1.0, -1.7, 0.05)">
    <path d="M73.95 19.5 L1.7 19.5 1.7 1.75 73.95 1.75 73.95 19.5" fill="#ffffff" fill-opacity="0.0" fill-rule="evenodd" stroke="none"/>
    <path d="M47.6 0.15 Q56.4 0.85 62.35 3.25 68.3 5.6 72.35 9.25 L72.9 10.45 72.95 10.45 72.95 10.6 72.35 11.85 Q68.3 15.5 64.9 17.05 57.25 20.6 47.8 21.15 L8.15 19.8 Q-1.5 10.05 8.95 1.0 38.75 -0.55 47.6 0.15" fill="#bcc7dd" fill-rule="evenodd" stroke="none"/>
    <path d="M70.2 9.45 Q70.6 10.0 70.65 10.5 L70.7 10.5 70.7 10.55 70.2 11.6 Q66.6 14.8 63.95 16.05 57.55 19.15 46.55 19.85 L8.15 18.5 Q0.6 10.55 8.5 2.25 L39.0 1.0 46.55 1.2 Q57.55 2.15 63.95 5.1 66.8 6.4 70.2 9.45" fill="#2b3136" fill-rule="evenodd" stroke="none"/>
    <path d="M15.45 13.75 L15.45 7.35 Q15.45 5.15 17.45 5.15 L35.75 5.15 Q37.75 5.15 37.75 7.35 L37.75 13.75 Q37.75 15.95 35.75 15.95 L17.45 15.95 Q15.45 15.95 15.45 13.75" fill="#030000" fill-rule="evenodd" stroke="none"/>
    <path d="M16.25 13.45 L16.25 7.45 Q16.25 5.4 18.25 5.4 L36.55 5.4 Q38.55 5.4 38.55 7.45 L38.55 13.45 Q38.55 15.5 36.55 15.5 L18.25 15.5 Q16.25 15.5 16.25 13.45" fill="#7b939f" fill-rule="evenodd" stroke="none"/>
    <path d="M23.45 7.45 Q23.45 5.4 25.45 5.4 L43.75 5.4 Q45.75 5.4 45.75 7.45 L45.75 13.55 Q45.75 15.6 43.75 15.6 L25.45 15.6 Q23.45 15.6 23.45 13.55 L23.45 7.45" fill="#383838" fill-opacity="0.9882353" fill-rule="evenodd" stroke="none"/>
    <path d="M26.3 6.55 Q26.3 3.85 28.2 3.85 L45.85 3.85 Q47.8 3.85 47.8 6.55 L47.8 14.55 Q47.8 17.3 45.85 17.3 L28.2 17.3 Q26.3 17.3 26.3 14.55 L26.3 6.55" fill="#030000" fill-rule="evenodd" stroke="none"/>
    <path d="M26.3 17.8 Q24.3 17.8 24.3 14.85 L24.3 6.2 Q24.3 3.2 26.3 3.2 L44.6 3.2 Q46.6 3.2 46.6 6.2 L46.6 14.85 Q46.6 17.8 44.6 17.8 L26.3 17.8" fill="#7b939f" fill-rule="evenodd" stroke="none"/>
    <path d="M27.25 7.35 Q27.25 5.45 28.75 5.45 L42.85 5.45 Q44.4 5.45 44.4 7.35 L44.4 13.0 Q44.4 14.95 42.85 14.95 L28.75 14.95 Q27.25 14.95 27.25 13.0 L27.25 7.35" fill="#000000" fill-opacity="0.5411765" fill-rule="evenodd" stroke="none"/>
    <path d="M29.9 7.75 Q29.9 5.95 31.2 5.95 L42.65 5.95 Q43.9 5.95 43.9 7.75 L43.9 12.95 Q43.9 14.75 42.65 14.75 L31.2 14.75 Q29.9 14.75 29.9 12.95 L29.9 7.75" fill="#003086" fill-opacity="0.9882353" fill-rule="evenodd" stroke="none"/>
    <path d="M44.15 9.55 L44.15 11.2 42.3 11.2 42.3 9.55 44.15 9.55" fill="#5a7a87" fill-rule="evenodd" stroke="none"/>
    <path d="M28.7 15.25 Q27.25 15.25 27.25 13.25 L27.25 7.35 Q27.25 5.35 28.7 5.35 L41.6 5.35 Q43.0 5.35 43.0 7.35 L43.0 13.25 Q43.0 15.25 41.6 15.25 L28.7 15.25" fill="url(#gradient0)" fill-rule="evenodd" stroke="none"/>
    <path d="M28.0 14.75 Q27.4 15.45 26.55 15.45 25.65 15.45 24.95 14.75 24.35 14.15 24.35 13.3 24.35 12.4 24.95 11.7 25.65 11.1 26.55 11.1 27.4 11.1 28.0 11.7 28.7 12.4 28.7 13.3 28.7 14.15 28.0 14.75" fill="#4d7a8c" fill-rule="evenodd" stroke="none"/>
    <path d="M28.45 14.7 Q27.9 15.4 27.0 15.4 26.1 15.4 25.4 14.7 24.85 14.1 24.85 13.25 24.85 12.35 25.4 11.65 26.1 11.05 27.0 11.05 27.9 11.05 28.45 11.65 29.15 12.35 29.15 13.25 29.15 14.1 28.45 14.7" fill="#ffffff" fill-rule="evenodd" stroke="none"/>
    <path d="M31.7 12.9 Q30.0 11.95 30.0 10.6 29.85 9.3 31.7 8.35 33.15 7.55 35.3 7.55 37.5 7.55 39.0 8.35 40.65 9.3 40.65 10.7 40.7 11.95 39.0 12.85 37.6 13.7 35.3 13.7 33.15 13.7 31.7 12.9" fill="#000000" fill-opacity="0.32941177" fill-rule="evenodd" stroke="none"/>
    <path d="M41.2 5.35 L41.6 5.35 Q43.0 5.35 43.0 7.35 L43.0 13.25 Q43.0 15.25 41.6 15.25 L41.2 15.25 Q42.55 15.2 42.55 13.25 L42.55 7.35 Q42.55 5.4 41.2 5.35" fill="#caebf7" fill-rule="evenodd" stroke="none"/>
    <path d="M18.55 9.05 L17.7 9.4 Q17.2 9.4 16.8 9.05 16.45 8.7 16.45 8.2 16.45 7.7 16.8 7.3 17.2 6.95 17.7 6.95 18.2 6.95 18.55 7.3 18.95 7.7 18.95 8.2 18.95 8.7 18.55 9.05" fill="#030000" fill-rule="evenodd" stroke="none"/>
    <path d="M12.2 7.85 Q11.85 8.2 11.35 8.2 10.85 8.2 10.45 7.85 10.1 7.5 10.1 7.0 10.1 6.5 10.45 6.1 10.85 5.75 11.35 5.75 11.85 5.75 12.2 6.1 12.6 6.5 12.6 7.0 12.6 7.5 12.2 7.85" fill="#030000" fill-rule="evenodd" stroke="none"/>
    <path d="M55.6 15.65 Q55.25 16.0 54.75 16.0 54.25 16.0 53.85 15.65 53.5 15.3 53.5 14.8 53.5 14.3 53.85 13.9 54.25 13.55 54.75 13.55 55.25 13.55 55.6 13.9 56.0 14.3 56.0 14.8 56.0 15.3 55.6 15.65" fill="#030000" fill-rule="evenodd" stroke="none"/>
    <path d="M36.7 7.4 Q38.5 7.4 39.7 8.2 41.05 9.15 41.05 10.55 41.1 11.8 39.7 12.7 38.55 13.55 36.7 13.55 34.95 13.55 33.75 12.75 32.35 11.8 32.35 10.45 32.25 9.15 33.75 8.2 34.95 7.4 36.7 7.4" fill="#dde6e9" fill-rule="evenodd" stroke="none"/>
    <path d="M31.25 10.45 Q31.15 9.15 32.65 8.2 33.85 7.4 35.6 7.4 37.4 7.4 38.6 8.2 39.95 9.15 39.95 10.55 40.0 11.8 38.6 12.7 37.45 13.55 35.6 13.55 33.85 13.55 32.65 12.75 31.25 11.8 31.25 10.45" fill="url(#gradient1)" fill-rule="evenodd" stroke="none"/>
    <path d="M37.65 8.2 Q36.6 7.5 35.15 7.45 L35.6 7.4 Q37.4 7.4 38.6 8.2 39.95 9.15 39.95 10.55 40.0 11.8 38.6 12.7 37.45 13.55 35.6 13.55 L35.15 13.55 Q36.65 13.45 37.65 12.7 39.05 11.8 39.0 10.55 39.0 9.15 37.65 8.2" fill="#b82d2d" fill-rule="evenodd" stroke="none"/>
    <path d="M32.6 12.05 Q31.55 11.35 31.55 10.4 31.5 9.45 32.6 8.75 33.45 8.15 34.75 8.15 36.05 8.15 36.95 8.75 37.9 9.45 37.9 10.45 37.95 11.35 36.95 12.05 36.1 12.65 34.75 12.65 33.45 12.65 32.6 12.05" fill="#000000" fill-rule="evenodd" stroke="none"/>
    <path d="M61.85 4.95 Q58.55 3.65 53.25 2.0 59.65 3.1 63.95 5.15 66.8 6.4 70.2 9.45 70.6 9.95 70.65 10.5 L70.7 10.5 70.7 10.55 70.2 11.55 Q66.6 14.75 63.95 16.1 59.0 18.45 51.25 19.4 55.65 18.7 59.85 16.7 65.6 13.9 67.65 12.3 69.7 10.7 69.5 9.95 65.15 6.25 61.85 4.95" fill="#030000" fill-rule="evenodd" stroke="none"/>
  </g>
  <defs>
    <linearGradient gradientTransform="matrix(0.0096, 0.0, 0.0, 0.006, 35.1, 10.3)" gradientUnits="userSpaceOnUse" id="gradient0" spreadMethod="pad" x1="-819.2" x2="819.2">
      <stop offset="0.0" stop-color="#44494d"/>
      <stop offset="1.0" stop-color="#778494"/>
    </linearGradient>
    <linearGradient gradientTransform="matrix(0.0053, 0.0, 0.0, 0.0038, 35.6, 10.45)" gradientUnits="userSpaceOnUse" id="gradient1" spreadMethod="pad" x1="-819.2" x2="819.2">
      <stop offset="0.0" stop-color="#5a8495"/>
      <stop offset="1.0" stop-color="#86b6c9"/>
    </linearGradient>
  </defs>
</svg>
