<?xml version="1.0" encoding="UTF-8" standalone="no"?>
<svg xmlns:ffdec="https://www.free-decompiler.com/flash" xmlns:xlink="http://www.w3.org/1999/xlink" ffdec:objectType="shape" height="20.6px" width="59.5px" xmlns="http://www.w3.org/2000/svg">
  <g transform="matrix(1.0, 0.0, 0.0, 1.0, -1.15, 0.0)">
    <path d="M49.0 3.85 Q56.3 6.6 60.5 10.4 L60.65 10.45 60.5 10.45 Q56.3 14.25 49.0 17.0 L45.55 17.9 41.7 18.15 31.65 18.15 Q21.25 17.85 9.5 16.05 6.4 15.75 4.1 14.7 2.8 14.1 1.95 12.95 0.6 10.7 1.6 8.75 3.0 6.0 9.5 4.85 21.25 3.05 31.65 2.8 L41.7 2.75 43.15 2.75 Q47.8 3.4 49.0 3.85" fill="#2e433c" fill-rule="evenodd" stroke="none"/>
    <path d="M48.55 4.2 Q55.7 6.7 59.85 10.25 L59.95 10.3 59.85 10.3 Q55.7 13.8 48.55 16.35 L45.15 17.2 41.4 17.45 31.5 17.45 Q21.3 17.15 9.8 15.5 6.7 15.2 4.5 14.25 3.2 13.7 2.35 12.65 1.05 10.5 2.0 8.7 3.4 6.15 9.8 5.1 21.3 3.4 31.5 3.2 L41.4 3.15 42.8 3.15 48.55 4.2" fill="#b6d7e6" fill-rule="evenodd" stroke="none"/>
    <path d="M47.3 4.9 Q54.2 7.15 58.15 10.3 L58.25 10.35 58.15 10.35 Q54.2 13.5 47.3 15.8 L44.05 16.55 40.45 16.75 30.9 16.75 10.05 15.0 Q7.1 14.75 4.95 13.9 3.75 13.4 2.9 12.45 1.7 10.55 2.6 8.95 3.95 6.65 10.05 5.7 L30.9 4.0 40.45 3.95 41.75 3.95 47.3 4.9" fill="#6c837b" fill-rule="evenodd" stroke="none"/>
    <path d="M9.55 14.35 Q9.2 14.75 8.75 14.75 8.3 14.75 7.95 14.35 7.65 14.05 7.65 13.55 7.65 13.1 7.95 12.7 8.3 12.4 8.75 12.4 9.2 12.4 9.55 12.7 L9.85 13.55 9.55 14.35" fill="#43575f" fill-rule="evenodd" stroke="none"/>
    <path d="M44.8 5.95 L44.55 6.5 44.0 6.75 39.9 6.75 39.6 6.6 39.5 6.35 39.5 5.55 39.6 5.25 39.9 5.15 44.0 5.15 44.55 5.35 44.8 5.95" fill="#383838" fill-rule="evenodd" stroke="none"/>
    <path d="M47.9 9.2 L52.65 9.2 52.65 10.25 48.2 10.25 48.2 10.6 48.2 10.7 48.2 11.15 52.65 11.15 52.65 12.25 47.8 12.25 47.35 12.85 Q46.4 13.7 45.15 13.7 L40.9 13.5 42.15 7.6 45.15 7.6 Q46.4 7.6 47.35 8.45 L47.9 9.2" fill="#2f4048" fill-rule="evenodd" stroke="none"/>
    <path d="M52.9 8.7 L52.9 9.75 43.95 9.75 43.95 8.7 52.9 8.7" fill="#251313" fill-rule="evenodd" stroke="none"/>
    <path d="M52.9 9.05 L52.9 9.3 43.95 9.3 43.95 9.05 52.9 9.05" fill="#7e7878" fill-rule="evenodd" stroke="none"/>
    <path d="M52.9 10.8 L52.9 11.85 43.95 11.85 43.95 10.8 52.9 10.8" fill="#251313" fill-rule="evenodd" stroke="none"/>
    <path d="M52.9 11.15 L52.9 11.4 43.95 11.4 43.95 11.15 52.9 11.15" fill="#7e7878" fill-rule="evenodd" stroke="none"/>
    <path d="M44.85 7.1 Q46.1 7.1 47.0 8.0 47.9 8.9 47.9 10.15 L47.9 10.25 Q47.9 11.5 47.0 12.35 46.1 13.25 44.85 13.25 L41.05 13.25 41.05 7.1 44.85 7.1" fill="#aecbd4" fill-rule="evenodd" stroke="none"/>
    <path d="M47.0 8.0 Q47.9 8.9 47.9 10.15 L47.9 10.25 Q47.9 11.5 47.0 12.35 L46.9 12.5 Q47.45 11.7 47.45 10.75 L47.45 10.65 Q47.45 9.4 46.55 8.5 45.65 7.6 44.4 7.6 L41.05 7.6 41.05 7.1 44.85 7.1 Q46.1 7.1 47.0 8.0" fill="#e0f6ff" fill-rule="evenodd" stroke="none"/>
    <path d="M44.3 5.8 L44.05 6.35 Q43.85 6.6 43.5 6.6 L39.4 6.6 39.1 6.45 39.0 6.2 39.0 5.4 39.1 5.1 Q39.2 5.0 39.4 5.0 L43.5 5.0 44.05 5.2 44.3 5.8" fill="#7ba5b6" fill-rule="evenodd" stroke="none"/>
    <path d="M36.15 5.0 Q39.05 5.0 39.05 8.55 L39.05 12.35 Q39.05 15.6 36.35 15.6 L21.3 15.1 Q19.1 10.85 21.25 5.6 28.4 4.0 36.15 5.0" fill="#95a8a9" fill-rule="evenodd" stroke="none"/>
    <path d="M34.7 5.9 Q37.6 5.9 37.95 8.35 38.55 10.8 38.05 11.8 37.6 14.65 34.9 14.65 L23.85 14.65 23.85 5.9 34.7 5.9" fill="#0e192e" fill-rule="evenodd" stroke="none"/>
    <path d="M34.15 5.9 Q37.05 5.9 37.4 8.35 38.0 10.8 37.5 11.8 37.05 14.65 34.35 14.65 L23.3 14.65 23.3 5.9 34.15 5.9" fill="#1d6598" fill-rule="evenodd" stroke="none"/>
    <path d="M34.6 11.55 L34.7 9.45 37.5 8.85 Q37.9 10.85 37.5 11.8 L37.4 12.35 34.6 11.55" fill="#91d6ff" fill-rule="evenodd" stroke="none"/>
    <path d="M21.95 14.65 L21.95 5.9 32.8 5.9 Q35.7 5.9 35.7 8.85 L35.7 11.95 Q35.7 14.65 33.0 14.65 L21.95 14.65" fill="#0e192e" fill-rule="evenodd" stroke="none"/>
    <path d="M21.6 14.65 L21.6 5.9 32.45 5.9 Q35.35 5.9 35.35 8.85 L35.35 11.95 Q35.35 14.65 32.65 14.65 L21.6 14.65" fill="#95a8a9" fill-rule="evenodd" stroke="none"/>
    <path d="M32.35 0.45 Q32.9 1.1 32.9 1.85 L32.9 18.75 Q32.9 19.6 32.35 20.05 31.9 20.6 31.1 20.6 L29.25 20.6 28.7 19.6 28.8 0.4 29.25 0.0 31.1 0.0 Q31.9 0.0 32.35 0.45" fill="#081e27" fill-opacity="0.52156866" fill-rule="evenodd" stroke="none"/>
    <path d="M9.55 7.9 Q9.2 8.3 8.75 8.3 8.3 8.3 7.95 7.9 7.65 7.6 7.65 7.1 7.65 6.65 7.95 6.25 8.3 5.95 8.75 5.95 9.2 5.95 9.55 6.25 L9.85 7.1 9.55 7.9" fill="#43575f" fill-rule="evenodd" stroke="none"/>
    <path d="M3.95 7.75 L5.2 8.7 Q3.8 10.55 5.3 12.35 L4.1 13.35 Q1.8 10.55 3.95 7.75" fill="#376172" fill-rule="evenodd" stroke="none"/>
    <path d="M44.8 15.0 L44.55 15.55 44.0 15.8 39.9 15.8 39.6 15.65 39.5 15.4 39.5 14.6 39.6 14.3 39.9 14.2 44.0 14.2 44.55 14.4 44.8 15.0" fill="#383838" fill-rule="evenodd" stroke="none"/>
    <path d="M44.3 15.1 L44.05 15.65 Q43.85 15.9 43.5 15.9 L39.4 15.9 39.1 15.75 39.0 15.5 39.0 14.7 39.1 14.4 Q39.2 14.3 39.4 14.3 L43.5 14.3 44.05 14.5 44.3 15.1" fill="#7ba5b6" fill-rule="evenodd" stroke="none"/>
    <path d="M28.8 20.0 L28.8 0.4 30.6 0.4 Q31.35 0.4 31.85 0.85 32.4 1.4 32.4 2.15 L32.4 18.2 Q32.4 19.0 31.85 19.45 31.35 20.0 30.6 20.0 L28.8 20.0" fill="#5c8b95" fill-rule="evenodd" stroke="none"/>
    <path d="M30.75 8.7 Q32.3 8.45 33.15 9.05 33.9 9.6 33.55 10.4 L32.75 11.25 30.95 11.3 28.55 11.0 Q27.5 10.6 27.5 10.1 27.5 9.55 28.25 9.15 29.1 8.85 30.75 8.7" fill="#a0cde0" fill-rule="evenodd" stroke="none"/>
    <path d="M31.8 0.85 Q32.35 1.4 32.35 2.15 L32.35 18.2 Q32.35 19.0 31.8 19.45 31.35 20.0 30.6 20.0 L29.95 20.0 Q30.65 20.0 31.1 19.45 31.65 19.0 31.65 18.2 L31.65 2.15 Q31.65 1.4 31.1 0.85 30.65 0.4 29.95 0.4 L30.6 0.4 Q31.35 0.4 31.8 0.85" fill="#a0cde0" fill-rule="evenodd" stroke="none"/>
    <path d="M31.65 10.9 L30.65 10.95 29.35 10.7 Q28.75 10.45 28.75 10.1 28.75 9.75 29.15 9.5 L30.55 9.15 Q31.4 9.0 31.85 9.45 32.3 9.8 32.05 10.3 L31.65 10.9" fill="#05719f" fill-rule="evenodd" stroke="none"/>
    <path d="M47.35 15.8 L44.1 16.5 40.45 16.75 39.65 16.75 42.45 16.5 45.7 15.8 Q52.55 13.5 56.6 10.3 52.55 7.15 45.7 4.9 L40.15 3.95 40.45 3.95 41.75 3.95 47.35 4.9 Q54.2 7.15 58.2 10.3 54.2 13.5 47.35 15.8" fill="#2e433c" fill-rule="evenodd" stroke="none"/>
    <path d="M49.55 7.9 Q49.2 8.3 48.75 8.3 48.3 8.3 47.95 7.9 47.65 7.6 47.65 7.1 47.65 6.65 47.95 6.25 48.3 5.95 48.75 5.95 49.2 5.95 49.55 6.25 L49.85 7.1 49.55 7.9" fill="#43575f" fill-rule="evenodd" stroke="none"/>
    <path d="M49.15 7.6 L48.7 7.8 48.25 7.6 48.1 7.15 Q48.1 6.9 48.25 6.65 48.45 6.5 48.7 6.5 L49.15 6.65 49.35 7.15 49.15 7.6" fill="#7613c2" fill-rule="evenodd" stroke="none"/>
    <path d="M2.2 9.1 L2.2 10.15 10.95 10.15 10.95 9.1 2.2 9.1" fill="#251313" fill-rule="evenodd" stroke="none"/>
    <path d="M2.2 10.6 L2.2 11.65 10.95 11.65 10.95 10.6 2.2 10.6" fill="#251313" fill-rule="evenodd" stroke="none"/>
    <path d="M9.85 7.2 Q8.65 7.2 7.8 8.1 6.9 8.95 6.9 10.2 L6.9 10.3 Q6.9 11.5 7.8 12.35 8.65 13.25 9.85 13.25 L13.6 13.25 13.6 7.2 9.85 7.2" fill="#aecbd4" fill-rule="evenodd" stroke="none"/>
    <path d="M10.3 7.7 L13.6 7.7 13.6 7.2 9.85 7.2 Q8.65 7.2 7.8 8.1 6.9 8.95 6.9 10.2 L6.9 10.3 Q6.9 11.5 7.8 12.35 L7.85 12.5 Q7.35 11.7 7.35 10.8 L7.35 10.65 Q7.35 9.45 8.2 8.6 9.1 7.7 10.3 7.7" fill="#e0f6ff" fill-rule="evenodd" stroke="none"/>
    <path d="M17.45 6.5 Q18.4 6.5 18.4 7.65 L18.4 13.35 Q18.4 14.5 17.45 14.5 L15.35 14.5 Q14.45 14.5 14.45 13.35 L14.45 7.65 Q14.45 6.5 15.35 6.5 L17.45 6.5" fill="#8ea2c6" fill-rule="evenodd" stroke="none"/>
    <path d="M17.1 13.85 L15.6 13.85 Q14.9 13.85 14.9 12.9 L14.9 8.2 Q14.9 7.2 15.6 7.2 L17.1 7.2 Q17.8 7.2 17.8 8.2 L17.8 12.9 Q17.8 13.85 17.1 13.85" fill="#376172" fill-rule="evenodd" stroke="none"/>
    <path d="M17.5 11.6 Q17.05 12.15 16.35 12.15 15.65 12.15 15.1 11.6 14.65 11.15 14.65 10.45 14.65 9.75 15.1 9.2 15.65 8.75 16.35 8.75 17.05 8.75 17.5 9.2 18.05 9.75 18.05 10.45 18.05 11.15 17.5 11.6" fill="#ffffff" fill-rule="evenodd" stroke="none"/>
  </g>
</svg>
