<?xml version="1.0" encoding="UTF-8" standalone="no"?>
<svg xmlns:ffdec="https://www.free-decompiler.com/flash" xmlns:xlink="http://www.w3.org/1999/xlink" ffdec:objectType="shape" height="4.9px" width="4.9px" xmlns="http://www.w3.org/2000/svg">
  <g transform="matrix(1.0, 0.0, 0.0, 1.0, -28.9, -7.65)">
    <path d="M31.8 10.85 L31.1 11.15 Q30.7 11.15 30.4 10.85 30.1 10.55 30.1 10.1 30.1 9.65 30.4 9.35 30.7 9.05 31.1 9.05 L31.8 9.35 32.1 10.1 31.8 10.85" fill="#cc0000" fill-rule="evenodd" stroke="none"/>
    <path d="M33.05 11.8 Q32.35 12.55 31.35 12.55 30.35 12.55 29.6 11.8 28.9 11.1 28.9 10.1 28.9 9.1 29.6 8.35 30.35 7.65 31.35 7.65 32.35 7.65 33.05 8.35 33.8 9.1 33.8 10.1 33.8 11.1 33.05 11.8" fill="url(#gradient0)" fill-rule="evenodd" stroke="none"/>
  </g>
  <defs>
    <radialGradient cx="0" cy="0" gradientTransform="matrix(0.0039, 0.0, 0.0, 0.0039, 31.35, 10.1)" gradientUnits="userSpaceOnUse" id="gradient0" r="819.2" spreadMethod="pad">
      <stop offset="0.0" stop-color="#ff0000"/>
      <stop offset="1.0" stop-color="#cc0000" stop-opacity="0.0"/>
    </radialGradient>
  </defs>
</svg>
