<?xml version="1.0" encoding="UTF-8" standalone="no"?>
<svg xmlns:ffdec="https://www.free-decompiler.com/flash" xmlns:xlink="http://www.w3.org/1999/xlink" ffdec:objectType="shape" height="39.95px" width="4.6px" xmlns="http://www.w3.org/2000/svg">
  <g transform="matrix(1.0, 0.0, 0.0, 1.0, 0.0, 0.0)">
    <path d="M2.65 0.0 L2.65 28.0 1.0 28.0 1.0 0.0 2.65 0.0" fill="#664410" fill-rule="evenodd" stroke="none"/>
    <path d="M2.05 0.05 L2.05 28.05 1.4 28.05 1.4 0.05 2.05 0.05" fill="#936015" fill-rule="evenodd" stroke="none"/>
    <path d="M0.55 37.4 L0.55 25.2 2.6 24.4 4.6 27.55 4.6 39.95 3.95 39.95 0.55 37.4" fill="#664410" fill-rule="evenodd" stroke="none"/>
    <path d="M2.05 24.4 L4.05 27.55 4.05 39.95 0.0 37.4 0.0 25.2 2.05 24.4" fill="#936015" fill-rule="evenodd" stroke="none"/>
    <path d="M2.75 34.1 Q2.45 36.55 2.45 39.0 1.85 37.55 2.3 35.8 L2.4 34.6 Q1.9 31.0 2.1 27.45 L2.75 32.9 2.75 34.1" fill="#664410" fill-rule="evenodd" stroke="none"/>
  </g>
</svg>
