<?xml version="1.0" encoding="UTF-8" standalone="no"?>
<svg xmlns:ffdec="https://www.free-decompiler.com/flash" xmlns:xlink="http://www.w3.org/1999/xlink" ffdec:objectType="shape" height="81.1px" width="106.3px" xmlns="http://www.w3.org/2000/svg">
  <g transform="matrix(1.0, 0.0, 0.0, 1.0, -4.85, 0.25)">
    <path d="M5.85 44.5 L5.85 36.1 Q13.05 32.3 22.6 29.55 52.3 25.3 79.5 30.35 93.4 32.75 105.15 39.95 93.3 47.0 79.5 49.45 52.3 54.45 22.6 50.25 12.2 47.9 5.85 44.5" fill="#aa772b" fill-rule="evenodd" stroke="none"/>
    <path d="M98.45 39.75 L98.45 40.35 Q87.55 46.1 75.25 48.25 51.7 52.55 26.05 48.95 14.25 46.35 8.45 42.05 L8.45 38.55 Q15.6 34.15 26.05 31.2 51.7 27.55 75.25 31.85 87.55 34.05 98.45 39.75" fill="#cb923d" fill-rule="evenodd" stroke="none"/>
    <path d="M83.0 41.55 L83.0 41.65 81.05 42.15 79.0 42.4 70.7 41.4 65.5 40.15 60.2 40.15 Q56.75 40.25 54.15 41.0 L49.7 42.15 45.1 42.15 Q42.85 41.65 37.7 39.4 33.7 37.6 29.0 37.45 L25.1 37.45 19.3 38.35 Q17.25 38.8 16.0 39.55 L15.85 39.45 15.8 39.25 19.95 37.8 25.25 36.85 29.0 36.85 Q34.0 37.1 38.2 38.95 43.45 41.25 45.2 41.65 L49.55 41.65 54.45 40.45 Q57.0 39.7 60.25 39.55 L65.45 39.55 71.7 40.9 79.0 41.7 82.1 41.35 83.0 41.55" fill="#703e18" fill-rule="evenodd" stroke="none"/>
    <path d="M98.45 39.8 L98.45 40.35 Q87.55 45.85 75.25 47.95 51.7 52.1 26.05 48.6 14.25 46.1 8.45 42.0 L8.45 38.6 Q15.6 34.4 26.05 31.55 51.7 28.05 75.25 32.2 87.55 34.3 98.45 39.8" fill="#93501c" fill-rule="evenodd" stroke="none"/>
    <path d="M90.45 33.2 Q85.1 31.6 79.5 30.65 52.3 25.8 22.6 29.9 13.0 32.55 5.8 36.25 L5.8 36.1 Q13.0 32.3 22.6 29.55 52.3 25.3 79.5 30.35 85.15 31.35 90.45 33.2 M79.5 49.15 Q86.7 47.95 93.5 45.75 86.7 48.15 79.5 49.45 52.3 54.45 22.6 50.25 12.15 47.9 5.8 44.45 L5.8 44.3 Q12.15 47.65 22.6 49.9 52.3 53.95 79.5 49.15" fill="#cb923d" fill-rule="evenodd" stroke="none"/>
    <path d="M15.1 35.45 L15.55 35.15 15.6 35.15 15.6 45.6 15.5 45.6 15.2 45.45 15.1 45.4 15.1 35.45 M26.75 31.45 L27.4 31.3 27.25 48.7 26.75 48.7 26.75 31.45 M32.65 31.1 Q32.95 30.95 33.2 30.75 L33.15 49.6 32.65 49.3 32.65 31.1 M20.7 33.3 L21.2 33.3 21.2 47.4 21.15 47.4 20.95 47.3 20.7 47.2 20.7 33.3 M45.65 30.55 L46.15 30.55 46.15 50.1 45.65 50.1 45.65 30.55 M38.85 30.4 L39.35 30.4 39.35 49.95 38.85 49.95 38.85 30.4 M71.0 31.55 L71.05 31.55 71.05 48.8 70.9 48.8 70.55 48.9 70.55 31.45 71.0 31.55 M57.55 30.55 L58.05 30.55 58.05 50.1 57.55 50.1 57.55 30.55 M64.65 30.85 L64.85 30.85 64.85 49.55 64.6 49.5 64.35 49.55 64.35 30.85 64.65 30.85 M76.45 32.2 L76.95 32.2 76.95 47.65 76.85 47.65 76.45 47.75 76.45 32.2 M88.1 35.6 L88.6 35.75 88.6 44.5 Q88.3 44.55 88.1 44.7 L88.1 35.6 M82.5 33.75 L83.0 33.95 83.0 46.35 82.5 46.45 82.5 33.75" fill="#4a2508" fill-rule="evenodd" stroke="none"/>
    <path d="M17.35 34.85 L17.1 35.7 Q16.8 36.45 16.8 37.25 16.8 38.6 17.25 39.7 L17.7 41.6 17.35 42.8 17.0 43.8 Q17.0 44.7 17.25 45.45 L17.25 45.75 17.05 45.8 Q16.85 45.8 16.75 44.9 L16.7 43.95 17.1 42.65 17.45 41.3 17.0 39.3 Q16.5 37.85 16.5 37.15 16.5 35.2 17.3 34.75 L17.35 34.85" fill="#6b3c17" fill-rule="evenodd" stroke="none"/>
    <path d="M19.85 34.5 L19.55 35.8 Q19.2 36.95 19.2 37.4 19.2 38.15 19.75 39.35 20.3 40.6 20.3 41.45 L20.05 42.9 19.75 44.75 Q19.75 45.3 20.35 46.3 L20.95 47.35 20.8 47.55 Q19.35 46.2 19.35 44.75 L19.45 43.8 19.55 43.05 19.95 41.3 19.45 39.45 Q18.9 38.1 18.9 37.4 18.9 36.5 19.2 35.65 L19.65 33.75 19.75 33.75 19.85 34.5" fill="#834c21" fill-rule="evenodd" stroke="none"/>
    <path d="M23.0 36.15 Q23.0 37.0 23.8 38.45 24.55 39.95 24.55 41.2 L24.35 42.8 24.1 44.35 24.3 46.65 24.2 47.6 23.95 46.7 24.0 45.8 23.8 44.05 24.0 42.6 24.15 41.15 Q24.15 40.2 23.35 38.65 22.55 37.05 22.55 36.15 22.55 34.95 22.7 34.5 22.9 33.85 23.65 33.0 L23.4 34.25 Q23.0 35.35 23.0 36.15" fill="#7b4317" fill-rule="evenodd" stroke="none"/>
    <path d="M26.2 32.1 L25.85 33.3 25.45 34.85 25.75 36.25 26.05 37.65 25.6 40.6 26.0 42.15 26.4 43.55 26.0 45.3 Q26.0 45.75 26.8 46.95 L26.6 47.2 Q26.35 47.2 25.95 46.25 L25.6 45.3 26.0 43.55 25.6 42.25 25.2 40.6 25.45 38.7 25.7 37.65 25.45 36.4 Q25.15 35.4 25.15 34.85 25.15 33.4 26.15 32.0 L26.2 32.1" fill="#7b4317" fill-rule="evenodd" stroke="none"/>
    <path d="M15.1 37.3 L14.4 38.0 Q13.7 38.55 13.7 39.6 13.7 40.55 14.5 41.5 L15.3 42.9 15.1 43.15 13.85 41.4 Q13.3 40.8 13.3 39.6 13.3 38.15 14.95 37.1 L15.1 37.3" fill="#7b4317" fill-rule="evenodd" stroke="none"/>
    <path d="M12.6 37.75 Q10.15 38.95 10.15 40.2 L10.6 40.9 11.15 41.6 11.85 42.3 14.45 42.65 Q15.1 42.65 15.1 43.0 L14.9 43.2 Q12.45 43.2 10.95 42.0 9.75 41.05 9.75 40.2 9.75 38.25 14.95 36.3 L15.05 36.5 12.6 37.75" fill="#7b4317" fill-rule="evenodd" stroke="none"/>
    <path d="M29.85 40.0 Q30.95 42.95 30.95 43.75 L30.55 45.2 Q30.1 46.65 30.1 47.25 L30.3 48.65 29.95 49.2 Q29.65 49.2 29.5 48.25 L29.4 47.3 Q29.4 46.15 29.85 45.0 L30.3 43.45 Q30.3 42.85 29.35 40.1 28.35 37.35 28.35 36.45 28.35 32.8 30.5 31.65 28.75 33.85 28.75 36.45 28.75 37.05 29.85 40.0" fill="#7b4317" fill-rule="evenodd" stroke="none"/>
    <path d="M31.9 33.85 Q30.85 35.7 30.85 37.7 30.85 39.4 31.75 40.95 32.6 42.5 32.6 43.7 L32.45 44.7 32.25 45.75 32.55 47.25 32.8 48.75 Q32.8 49.15 32.5 49.15 32.35 49.15 32.05 47.45 L31.75 45.75 31.95 44.6 32.1 43.7 Q32.1 42.5 31.25 41.0 30.35 39.5 30.35 37.65 L30.35 36.1 Q30.4 35.25 30.75 34.65 31.85 32.45 32.85 31.6 L32.9 31.85 31.9 33.85" fill="#7b4317" fill-rule="evenodd" stroke="none"/>
    <path d="M81.4 36.7 Q81.8 37.15 81.8 37.8 81.6 41.45 80.8 41.45 80.1 41.45 79.8 40.3 L79.6 38.95 Q79.6 37.6 80.25 36.9 80.95 36.1 81.4 36.7 M80.7 36.95 Q79.9 37.55 79.9 38.9 L79.95 39.65 80.35 40.4 80.8 41.05 81.45 37.8 Q81.45 36.3 80.7 36.95" fill="#7b4317" fill-rule="evenodd" stroke="none"/>
    <path d="M81.0 35.2 Q81.35 35.2 81.8 35.85 L82.4 36.9 82.7 38.9 Q82.7 39.9 82.3 41.4 81.7 43.4 80.85 43.4 79.85 43.4 79.2 41.35 78.75 39.85 78.75 39.0 78.75 38.0 79.2 36.85 79.85 35.2 81.0 35.2 M79.5 41.15 Q80.0 43.1 80.85 43.1 81.9 43.1 82.35 39.15 L82.1 37.35 81.15 35.65 Q79.15 36.0 79.15 38.9 79.15 39.8 79.5 41.15" fill="#7b4317" fill-rule="evenodd" stroke="none"/>
    <path d="M78.9 32.85 Q79.7 33.35 79.7 34.7 L78.95 36.6 Q78.15 38.1 78.15 39.7 78.15 41.15 79.6 42.8 L81.45 44.0 Q82.6 44.75 82.5 45.5 L82.35 45.65 Q82.0 45.65 81.95 45.3 L81.85 44.85 80.9 44.15 79.0 42.8 Q77.75 41.7 77.75 39.7 77.75 38.0 78.55 36.4 L79.35 34.45 Q79.35 33.8 78.8 33.1 L78.8 32.85 78.9 32.85" fill="#7b4317" fill-rule="evenodd" stroke="none"/>
    <path d="M77.15 41.8 Q77.15 43.2 78.6 44.65 79.9 45.9 80.05 46.8 L79.75 46.95 Q79.25 45.45 78.45 44.85 L77.45 43.8 Q76.85 43.05 76.85 42.6 L76.95 42.1 77.1 41.75 77.15 41.8" fill="#7b4317" fill-rule="evenodd" stroke="none"/>
    <path d="M86.55 35.4 Q85.55 36.35 85.55 37.55 L86.1 39.3 Q86.6 40.7 86.6 41.8 L86.3 43.0 Q86.0 43.65 86.0 44.15 L86.1 45.2 85.9 45.45 Q85.65 45.45 85.6 44.8 L85.6 44.15 Q85.6 43.4 85.9 42.8 L86.2 41.85 Q86.2 40.65 85.7 39.45 85.15 38.25 85.15 37.55 85.15 35.75 86.5 35.35 L86.55 35.4" fill="#7b4317" fill-rule="evenodd" stroke="none"/>
    <path d="M84.45 39.5 Q84.9 40.55 84.9 41.9 83.3 45.5 82.9 45.5 L82.65 45.35 82.65 45.2 Q82.65 44.9 83.55 43.5 84.45 42.1 84.45 41.25 84.45 40.3 83.95 39.15 L82.95 37.0 83.15 37.0 84.45 39.5" fill="#7b4317" fill-rule="evenodd" stroke="none"/>
    <path d="M88.7 38.0 L90.0 39.4 Q90.45 40.15 90.45 41.0 L90.0 42.4 Q89.4 43.55 88.5 43.55 L88.25 43.4 88.25 43.25 89.15 42.55 Q90.0 41.75 90.0 40.85 90.0 40.15 89.3 39.25 L88.55 38.25 Q88.55 38.1 88.7 38.0" fill="#7b4317" fill-rule="evenodd" stroke="none"/>
    <path d="M93.45 37.55 L93.05 38.5 Q92.6 39.55 92.6 40.35 92.6 41.0 93.1 41.8 L93.45 42.4 93.0 42.8 92.45 41.75 92.2 40.35 Q92.2 39.25 92.35 38.8 92.55 38.05 93.3 37.35 L93.45 37.55" fill="#7b4317" fill-rule="evenodd" stroke="none"/>
    <path d="M91.5 41.2 L91.85 42.7 91.75 43.15 91.35 43.2 91.5 42.7 91.15 41.35 Q90.8 40.65 90.8 39.7 90.8 38.25 91.55 37.4 91.1 38.9 91.1 39.7 L91.5 41.2" fill="#7b4317" fill-rule="evenodd" stroke="none"/>
    <path d="M74.7 32.75 L74.1 34.4 Q73.95 34.8 73.95 35.85 73.95 37.0 74.75 39.2 75.55 41.35 75.55 42.55 L74.9 46.25 75.35 48.0 74.85 48.15 74.6 47.35 74.4 46.3 Q74.4 45.6 74.75 44.4 L75.1 42.15 Q75.1 41.35 74.35 39.35 73.55 37.35 73.55 35.9 73.55 34.75 73.7 34.3 L74.6 32.65 74.7 32.75" fill="#69370f" fill-rule="evenodd" stroke="none"/>
    <path d="M21.85 33.85 L21.6 34.65 21.55 35.95 Q21.55 38.15 22.35 39.85 23.1 41.55 23.1 42.5 L22.75 46.1 22.95 46.9 23.15 47.75 22.95 48.0 Q22.75 48.0 22.5 47.05 L22.3 46.1 22.7 42.5 Q22.7 41.75 21.95 40.0 21.15 38.25 21.15 35.95 21.15 33.65 22.05 33.3 L22.1 33.4 21.85 33.85" fill="#69370f" fill-rule="evenodd" stroke="none"/>
    <path d="M37.15 37.25 L36.55 42.6 32.8 42.8 31.8 42.1 Q31.1 39.1 32.4 36.75 L37.15 37.25" fill="#7b4c0a" fill-rule="evenodd" stroke="none"/>
    <path d="M44.3 1.75 Q50.1 38.75 50.45 77.6 47.65 82.2 39.35 79.45 41.0 41.75 33.35 1.2 39.5 0.35 44.3 1.75" fill="#2e0703" fill-opacity="0.14901961" fill-rule="evenodd" stroke="none"/>
    <path d="M32.3 42.95 Q31.65 40.3 32.9 37.6 35.75 37.25 37.65 38.1 L37.05 43.45 Q34.7 43.95 32.3 42.95" fill="#b4703b" fill-rule="evenodd" stroke="none"/>
    <path d="M32.15 0.0 L34.6 -0.25 41.05 80.45 38.55 80.65 32.15 0.0" fill="url(#gradient0)" fill-rule="evenodd" stroke="none"/>
    <path d="M43.1 1.1 Q48.9 38.1 49.25 77.0 46.45 81.6 38.7 78.9 39.8 41.15 32.1 0.6 38.3 -0.3 43.1 1.1" fill="url(#gradient1)" fill-rule="evenodd" stroke="none"/>
    <path d="M37.8 0.5 Q43.95 42.3 44.1 79.8" fill="none" stroke="#a88434" stroke-linecap="round" stroke-linejoin="round" stroke-width="0.30000000000000004"/>
    <path d="M71.0 37.5 L70.65 41.75 67.7 42.05 66.85 41.5 Q66.2 39.15 67.2 37.25 L71.0 37.5" fill="#7b4c0a" fill-rule="evenodd" stroke="none"/>
    <path d="M75.85 9.45 Q81.6 38.75 83.05 69.75 80.95 73.5 74.25 71.6 74.4 41.45 67.1 9.3 71.95 8.45 75.85 9.45" fill="#2e0703" fill-opacity="0.14901961" fill-rule="evenodd" stroke="none"/>
    <path d="M67.45 42.4 Q66.85 40.35 67.8 38.15 L71.6 38.4 71.25 42.65 67.45 42.4" fill="#b4703b" fill-rule="evenodd" stroke="none"/>
    <path d="M66.6 8.75 L68.55 8.5 76.1 72.7 74.15 72.95 66.6 8.75" fill="url(#gradient2)" fill-rule="evenodd" stroke="none"/>
    <path d="M75.35 9.6 Q81.05 38.9 82.55 69.95 80.4 73.7 74.15 71.8 73.9 41.65 66.55 9.5 71.45 8.6 75.35 9.6" fill="url(#gradient3)" fill-rule="evenodd" stroke="none"/>
    <path d="M71.1 9.05 Q77.25 42.15 78.55 72.1" fill="none" stroke="#a88434" stroke-linecap="round" stroke-linejoin="round" stroke-width="0.30000000000000004"/>
    <path d="M111.1 40.4 L95.65 41.45 95.65 37.1 111.15 38.05 111.1 40.4" fill="#93501c" fill-rule="evenodd" stroke="none"/>
    <path d="M92.25 44.85 L87.35 46.35 87.35 33.4 92.0 34.75 92.25 44.85" fill="#7b4317" fill-rule="evenodd" stroke="none"/>
    <path d="M92.95 44.85 L88.05 46.35 88.05 33.4 92.7 34.75 92.95 44.85" fill="#aa772b" fill-rule="evenodd" stroke="none"/>
    <path d="M111.1 39.6 L95.65 39.95 95.65 38.55 111.15 38.85 111.1 39.6" fill="#b88a45" fill-rule="evenodd" stroke="none"/>
    <path d="M26.95 51.05 L27.05 51.1 25.25 50.9 24.65 50.8 4.85 48.8 4.85 30.95 26.95 28.65 26.8 28.8 27.0 29.4 27.2 29.95 27.0 30.05 23.35 31.5 23.6 48.45 26.95 49.1 26.95 51.05" fill="#935c09" fill-rule="evenodd" stroke="none"/>
    <path d="M27.0 29.4 L26.8 28.8 27.0 28.75 27.0 29.4" fill="#83540d" fill-rule="evenodd" stroke="none"/>
    <path d="M26.95 51.05 L26.95 49.1 23.6 48.45 23.35 31.5 27.0 30.05 27.0 51.05 26.95 51.05" fill="url(#gradient4)" fill-rule="evenodd" stroke="none"/>
    <path d="M5.2 33.3 L23.85 32.15 22.4 31.35 5.5 32.6 5.2 33.3" fill="#af712c" fill-rule="evenodd" stroke="none"/>
    <path d="M52.55 36.95 L52.55 38.35 Q51.65 37.3 51.7 35.6 51.7 34.85 52.05 34.4 L52.55 36.95" fill="#7b4317" fill-rule="evenodd" stroke="none"/>
    <path d="M51.65 30.5 L51.75 30.65 Q49.9 36.45 52.55 42.2 53.1 43.35 52.95 44.7 52.65 47.85 52.85 50.55 51.35 48.55 51.8 45.45 52.05 43.65 51.45 42.0 50.4 39.05 49.95 36.05 49.45 32.65 51.35 30.35 L51.65 30.5" fill="#7b4317" fill-rule="evenodd" stroke="none"/>
    <path d="M87.3 36.8 L86.65 37.0 86.45 36.9 85.95 36.85 Q85.65 36.95 85.6 37.25 L85.55 37.45 83.05 38.3 Q83.0 39.15 83.2 39.85 L83.2 40.1 83.3 40.3 Q83.7 41.2 84.45 41.85 L86.6 40.85 86.65 41.05 87.0 41.5 87.55 41.45 87.95 41.2 87.95 40.6 87.85 40.3 88.7 39.85 89.35 41.2 88.6 41.5 89.15 42.75 84.9 44.6 84.35 43.35 82.65 44.1 80.15 38.65 82.0 37.85 81.55 36.75 85.75 34.85 86.15 36.0 86.8 35.65 87.3 36.8" fill="#c47c44" fill-rule="evenodd" stroke="none"/>
    <path d="M94.85 35.85 L94.7 35.6 94.3 35.2 Q94.1 35.05 93.85 35.2 L92.25 35.8 92.7 36.9 94.9 36.0 95.25 36.9 93.1 37.8 93.05 38.15 92.75 38.6 92.25 38.5 92.0 38.35 88.7 39.85 87.85 40.3 87.95 40.6 87.95 41.2 87.55 41.45 87.0 41.5 86.65 41.05 86.6 40.85 84.45 41.85 Q83.7 41.2 83.3 40.3 L83.65 40.45 84.15 40.5 86.25 39.7 85.8 38.45 83.7 39.2 Q83.4 39.3 83.3 39.55 L83.2 39.85 Q83.0 39.15 83.05 38.3 L85.55 37.45 85.6 37.25 Q85.65 36.95 85.95 36.85 L86.45 36.9 86.65 37.0 87.3 36.8 90.8 35.55 90.85 35.35 Q90.95 35.05 91.2 35.0 L91.7 34.9 91.95 35.05 94.25 34.25 94.85 35.85 M87.0 37.9 L87.45 39.2 91.55 37.4 91.05 36.3 87.0 37.9" fill="#333333" fill-rule="evenodd" stroke="none"/>
    <path d="M94.9 36.0 L92.7 36.9 92.25 35.8 93.85 35.2 Q94.1 35.05 94.3 35.2 L94.7 35.6 94.85 35.85 94.95 35.95 94.9 36.0 M83.2 39.85 L83.3 39.55 Q83.4 39.3 83.7 39.2 L85.8 38.45 86.25 39.7 84.15 40.5 83.65 40.45 83.3 40.3 83.2 40.1 83.2 39.85 M87.0 37.9 L91.05 36.3 91.55 37.4 87.45 39.2 87.0 37.9" fill="#545454" fill-rule="evenodd" stroke="none"/>
    <path d="M54.45 30.05 L54.35 30.75 54.2 30.9 53.9 31.35 Q53.85 31.65 54.1 31.9 L54.3 32.05 54.0 34.8 55.55 35.3 55.8 35.4 56.05 35.4 58.0 35.05 58.0 32.55 58.2 32.5 58.8 32.45 59.0 31.9 58.9 31.4 Q58.7 31.2 58.35 31.15 L58.05 31.1 58.0 30.05 59.5 30.1 59.5 30.9 60.95 30.95 60.85 35.8 59.4 35.75 59.4 37.75 53.05 37.7 53.05 35.55 51.85 35.5 51.95 30.7 53.15 30.8 53.15 30.05 54.45 30.05" fill="#c47c44" fill-rule="evenodd" stroke="none"/>
    <path d="M56.85 22.45 L56.55 22.45 56.0 22.6 Q55.75 22.8 55.8 23.1 L55.7 24.85 56.9 24.9 57.0 22.45 58.0 22.5 57.95 24.9 58.25 25.15 58.55 25.6 58.25 26.1 58.0 26.3 58.0 30.05 58.05 31.1 58.35 31.15 Q58.7 31.2 58.9 31.4 L59.0 31.9 58.8 32.45 58.2 32.5 58.0 32.55 58.0 35.05 56.05 35.4 56.3 35.15 56.6 34.7 56.75 32.35 55.3 32.2 55.15 34.55 55.35 35.1 55.55 35.3 54.0 34.8 54.3 32.05 54.1 31.9 Q53.85 31.65 53.9 31.35 L54.2 30.9 54.35 30.75 54.45 30.05 54.75 26.15 54.6 26.0 Q54.35 25.75 54.45 25.5 L54.6 25.0 54.85 24.85 55.05 22.3 56.85 22.45 M55.4 30.8 L56.8 31.0 56.85 26.3 55.65 26.25 55.4 30.8" fill="#333333" fill-rule="evenodd" stroke="none"/>
    <path d="M57.0 22.45 L56.9 24.9 55.7 24.85 55.8 23.1 Q55.75 22.8 56.0 22.6 L56.55 22.45 56.85 22.45 57.0 22.4 57.0 22.45 M55.55 35.3 L55.35 35.1 55.15 34.55 55.3 32.2 56.75 32.35 56.6 34.7 56.3 35.15 56.05 35.4 55.8 35.4 55.55 35.3 M55.4 30.8 L55.65 26.25 56.85 26.3 56.8 31.0 55.4 30.8" fill="#545454" fill-rule="evenodd" stroke="none"/>
    <path d="M54.0 50.5 L53.95 49.8 53.8 49.65 53.5 49.2 53.7 48.65 53.9 48.55 53.6 45.9 55.15 45.35 55.4 45.3 55.6 45.25 57.5 45.65 57.5 48.05 57.75 48.05 58.25 48.2 58.45 48.7 58.35 49.15 57.85 49.45 57.55 49.45 57.45 50.5 58.95 50.4 58.9 49.65 60.35 49.6 60.25 44.9 58.85 44.9 58.85 43.0 52.7 43.05 52.7 45.1 51.5 45.15 51.6 49.9 52.8 49.75 52.8 50.5 54.0 50.5" fill="#c47c44" fill-rule="evenodd" stroke="none"/>
    <path d="M56.35 57.85 L56.1 57.8 55.55 57.65 Q55.3 57.5 55.35 57.15 L55.25 55.45 56.45 55.45 56.55 57.8 57.5 57.8 57.45 55.45 57.75 55.25 58.05 54.75 57.75 54.3 57.45 54.1 57.45 50.5 57.55 49.45 57.85 49.45 58.35 49.15 58.45 48.7 58.25 48.2 57.75 48.05 57.5 48.05 57.5 45.65 55.6 45.25 55.85 45.5 56.15 45.95 56.3 48.2 54.9 48.3 54.7 46.1 Q54.65 45.8 54.9 45.55 L55.15 45.35 53.6 45.9 53.9 48.55 53.7 48.65 53.5 49.2 53.8 49.65 53.95 49.8 54.0 50.5 54.35 54.2 54.2 54.35 Q53.95 54.6 54.05 54.8 54.0 55.15 54.2 55.35 L54.45 55.5 54.65 58.0 56.35 57.85 M54.95 49.75 L56.35 49.55 56.4 54.1 55.2 54.15 54.95 49.75" fill="#333333" fill-rule="evenodd" stroke="none"/>
    <path d="M56.55 57.8 L56.45 55.45 55.25 55.45 55.35 57.15 Q55.3 57.5 55.55 57.65 L56.1 57.8 56.35 57.85 56.5 57.9 56.55 57.8 M55.15 45.35 L54.9 45.55 Q54.65 45.8 54.7 46.1 L54.9 48.3 56.3 48.2 56.15 45.95 55.85 45.5 55.6 45.25 55.4 45.3 55.15 45.35 M54.95 49.75 L55.2 54.15 56.4 54.1 56.35 49.55 54.95 49.75" fill="#545454" fill-rule="evenodd" stroke="none"/>
    <path d="M7.05 47.35 L5.05 47.55 5.05 31.6 6.75 31.8 Q11.7 39.6 7.05 47.35" fill="#644009" fill-rule="evenodd" stroke="none"/>
    <path d="M23.9 48.65 L5.25 47.5 6.7 46.7 23.6 47.95 23.9 48.65" fill="#af712c" fill-rule="evenodd" stroke="none"/>
  </g>
  <defs>
    <linearGradient gradientTransform="matrix(0.0011, -1.0E-4, 0.0805, 0.9961, 18.3, -186.3)" gradientUnits="userSpaceOnUse" id="gradient0" spreadMethod="pad" x1="-819.2" x2="819.2">
      <stop offset="0.00784313725490196" stop-color="#6b3b13"/>
      <stop offset="0.5098039215686274" stop-color="#8c552a"/>
      <stop offset="1.0" stop-color="#93501c"/>
    </linearGradient>
    <linearGradient gradientTransform="matrix(0.0071, 0.0018, 0.0026, 0.0482, 43.9, 41.8)" gradientUnits="userSpaceOnUse" id="gradient1" spreadMethod="pad" x1="-819.2" x2="819.2">
      <stop offset="0.00784313725490196" stop-color="#e2ca8f"/>
      <stop offset="0.7098039215686275" stop-color="#d4bb85"/>
      <stop offset="1.0" stop-color="#9f8361"/>
    </linearGradient>
    <linearGradient gradientTransform="matrix(9.0E-4, -1.0E-4, 0.094, 0.7923, 49.95, -139.45)" gradientUnits="userSpaceOnUse" id="gradient2" spreadMethod="pad" x1="-819.2" x2="819.2">
      <stop offset="0.00784313725490196" stop-color="#6b3b13"/>
      <stop offset="0.5098039215686274" stop-color="#8c552a"/>
      <stop offset="1.0" stop-color="#93501c"/>
    </linearGradient>
    <linearGradient gradientTransform="matrix(0.0057, 0.0012, 0.0035, 0.0384, 77.2, 42.05)" gradientUnits="userSpaceOnUse" id="gradient3" spreadMethod="pad" x1="-819.2" x2="819.2">
      <stop offset="0.00784313725490196" stop-color="#e2ca8f"/>
      <stop offset="0.7098039215686275" stop-color="#d4bb85"/>
      <stop offset="1.0" stop-color="#9f8361"/>
    </linearGradient>
    <linearGradient gradientTransform="matrix(0.0, 0.0, 0.0, 0.0, 0.0, 0.0)" gradientUnits="userSpaceOnUse" id="gradient4" spreadMethod="pad" x1="-819.2" x2="819.2">
      <stop offset="0.0196078431372549" stop-color="#8a5124"/>
      <stop offset="1.0" stop-color="#743a0c"/>
    </linearGradient>
  </defs>
</svg>
