<?xml version="1.0" encoding="UTF-8" standalone="no"?>
<svg xmlns:ffdec="https://www.free-decompiler.com/flash" xmlns:xlink="http://www.w3.org/1999/xlink" ffdec:objectType="shape" height="7.1px" width="26.0px" xmlns="http://www.w3.org/2000/svg">
  <g transform="matrix(1.0, 0.0, 0.0, 1.0, -12.45, 3.7)">
    <path d="M17.45 0.15 Q20.7 -0.25 20.05 1.7 19.45 3.6 16.45 3.35 13.9 3.15 15.3 2.2 L13.95 1.85 12.45 1.65 Q12.55 1.35 15.0 0.95 12.55 0.35 14.15 0.05 L17.45 0.15" fill="#c1ebfb" fill-opacity="0.4392157" fill-rule="evenodd" stroke="none"/>
    <path d="M34.9 -2.55 L34.15 -2.75 Q33.75 -2.8 34.55 -3.05 L35.85 -3.65 Q38.9 -3.95 38.4 -2.65 37.85 -1.35 35.6 -1.5 33.35 -1.7 32.65 -2.3 L34.9 -2.55" fill="#c1ebfb" fill-opacity="0.4392157" fill-rule="evenodd" stroke="none"/>
  </g>
</svg>
