<?xml version="1.0" encoding="UTF-8" standalone="no"?>
<svg xmlns:ffdec="https://www.free-decompiler.com/flash" xmlns:xlink="http://www.w3.org/1999/xlink" ffdec:objectType="shape" height="3.55px" width="58.1px" xmlns="http://www.w3.org/2000/svg">
  <g transform="matrix(1.0, 0.0, 0.0, 1.0, -11.8, -82.3)">
    <path d="M16.8 85.55 Q20.05 85.95 19.4 84.0 18.8 82.1 15.8 82.35 13.25 82.55 14.65 83.5 13.2 83.65 13.3 83.85 L11.8 84.05 Q11.9 84.35 14.35 84.75 11.9 85.35 13.5 85.65 L16.8 85.55" fill="#c1ebfb" fill-opacity="0.4392157" fill-rule="evenodd" stroke="none"/>
    <path d="M34.25 83.75 L33.5 83.95 Q33.1 84.0 33.9 84.25 L35.2 84.85 Q38.25 85.15 37.75 83.85 37.2 82.55 34.95 82.7 32.7 82.9 32.0 83.5 L34.25 83.75" fill="#c1ebfb" fill-opacity="0.4392157" fill-rule="evenodd" stroke="none"/>
    <path d="M66.35 83.75 L65.6 83.95 Q65.2 84.0 66.0 84.25 L67.3 84.85 Q70.35 85.15 69.85 83.85 69.3 82.55 67.05 82.7 64.8 82.9 64.1 83.5 L66.35 83.75" fill="#c1ebfb" fill-opacity="0.4392157" fill-rule="evenodd" stroke="none"/>
  </g>
</svg>
