<?xml version="1.0" encoding="UTF-8" standalone="no"?>
<svg xmlns:ffdec="https://www.free-decompiler.com/flash" xmlns:xlink="http://www.w3.org/1999/xlink" ffdec:objectType="shape" height="96.15px" width="58.3px" xmlns="http://www.w3.org/2000/svg">
  <g transform="matrix(1.0, 0.0, 0.0, 1.0, -6.95, 6.85)">
    <path d="M64.15 -3.95 Q62.85 -1.6 57.4 -1.95 51.95 -2.3 50.2 -3.4 L55.65 -3.8 Q52.9 -4.2 54.85 -4.7 L59.65 -4.85 Q57.25 -5.4 58.05 -5.75 65.4 -6.3 64.15 -3.95" fill="#c1ebfb" fill-rule="evenodd" stroke="none"/>
    <path d="M18.85 -5.2 Q26.2 -6.15 24.8 -1.75 23.35 2.6 16.6 2.05 10.85 1.55 14.0 -0.65 10.8 -0.9 11.0 -1.35 7.4 -1.4 7.6 -1.85 7.85 -2.5 13.35 -3.4 7.8 -4.8 11.4 -5.4 L18.85 -5.2" fill="#c1ebfb" fill-rule="evenodd" stroke="none"/>
    <path d="M36.85 -6.65 Q44.2 -7.6 42.95 -3.7 41.65 0.15 36.2 -0.4 30.75 -1.0 29.0 -2.8 35.25 -2.95 34.45 -3.5 33.65 -4.05 32.7 -4.1 31.7 -4.15 33.65 -4.95 L36.85 -6.65" fill="#c1ebfb" fill-rule="evenodd" stroke="none"/>
    <path d="M18.2 88.65 Q25.55 89.6 24.15 85.2 22.7 80.85 15.95 81.4 10.2 81.9 13.35 84.1 10.15 84.35 10.35 84.8 6.75 84.85 6.95 85.3 7.2 85.95 12.7 86.85 7.15 88.25 10.75 88.85 L18.2 88.65" fill="#c1ebfb" fill-rule="evenodd" stroke="none"/>
    <path d="M36.35 88.6 Q43.7 89.55 42.45 85.65 41.15 81.8 35.7 82.35 30.25 82.95 28.5 84.75 34.75 84.9 33.95 85.45 33.15 86.0 32.2 86.05 31.2 86.1 33.15 86.9 35.1 87.75 36.35 88.6" fill="#c1ebfb" fill-rule="evenodd" stroke="none"/>
    <path d="M58.95 88.85 Q66.3 89.8 65.05 85.9 63.75 82.05 58.3 82.6 52.85 83.2 51.1 85.0 57.35 85.15 56.55 85.7 55.75 86.25 54.8 86.3 53.8 86.35 55.75 87.15 57.7 88.0 58.95 88.85" fill="#c1ebfb" fill-rule="evenodd" stroke="none"/>
  </g>
</svg>
