<?xml version="1.0" encoding="UTF-8" standalone="no"?>
<svg xmlns:ffdec="https://www.free-decompiler.com/flash" xmlns:xlink="http://www.w3.org/1999/xlink" ffdec:objectType="shape" height="17.1px" width="56.25px" xmlns="http://www.w3.org/2000/svg">
  <g transform="matrix(1.0, 0.0, 0.0, 1.0, 26.6, 9.4)">
    <path d="M15.4 5.8 Q0.3 9.3 -16.2 6.4 -22.0 4.75 -25.5 2.35 -27.65 -0.4 -25.5 -3.5 -21.5 -6.15 -16.2 -8.05 0.3 -11.05 15.4 -7.5 23.15 -5.85 29.65 -0.8 23.1 4.1 15.4 5.8" fill="#aa772b" fill-rule="evenodd" stroke="none"/>
    <path d="M25.95 -0.95 L25.95 -0.55 Q19.9 3.5 13.05 5.0 -0.05 8.0 -14.25 5.5 -20.85 3.65 -24.05 0.65 L-24.05 -1.8 Q-20.1 -4.85 -14.25 -6.9 -0.05 -9.45 13.05 -6.45 19.9 -4.95 25.95 -0.95" fill="#cb923d" fill-rule="evenodd" stroke="none"/>
    <path d="M17.35 0.3 L17.35 0.4 16.25 0.75 15.15 0.9 10.5 0.2 7.65 -0.65 4.7 -0.65 1.35 -0.1 -1.15 0.75 -3.7 0.75 Q-4.95 0.4 -7.8 -1.2 -10.0 -2.45 -12.65 -2.55 L-14.8 -2.55 -18.0 -1.95 Q-19.15 -1.6 -19.85 -1.1 L-19.95 -1.15 -19.95 -1.3 -17.65 -2.3 -14.7 -2.95 -12.65 -2.95 Q-9.85 -2.8 -7.55 -1.5 -4.6 0.1 -3.65 0.4 L-1.2 0.4 1.5 -0.45 4.7 -1.1 7.6 -1.1 11.1 -0.15 15.15 0.4 16.85 0.15 Q17.35 0.15 17.35 0.3" fill="#703e18" fill-rule="evenodd" stroke="none"/>
    <path d="M25.95 -0.9 L25.95 -0.55 Q19.9 3.3 13.05 4.8 -0.05 7.7 -14.25 5.25 -20.85 3.5 -24.05 0.6 L-24.05 -1.75 Q-20.1 -4.7 -14.25 -6.7 -0.05 -9.1 13.05 -6.2 19.9 -4.75 25.95 -0.9" fill="#93501c" fill-rule="evenodd" stroke="none"/>
    <path d="M14.35 -5.95 Q15.15 1.15 13.8 4.85 -2.55 7.5 -15.5 4.85 L-15.55 -5.95 Q-8.15 -9.25 13.2 -6.5 13.35 -6.0 14.15 -6.1 14.0 -5.8 14.35 -5.95" fill="#4d290e" fill-rule="evenodd" stroke="none"/>
    <path d="M21.5 -5.5 Q18.5 -6.65 15.4 -7.3 0.3 -10.7 -16.2 -7.85 -21.5 -6.0 -25.5 -3.4 L-25.5 -3.5 Q-21.5 -6.15 -16.2 -8.05 0.3 -11.05 15.4 -7.5 18.55 -6.8 21.5 -5.5 M15.4 5.6 Q19.4 4.8 23.2 3.25 19.4 4.9 15.4 5.8 0.3 9.3 -16.2 6.4 -22.0 4.75 -25.5 2.35 L-25.5 2.25 Q-22.0 4.55 -16.2 6.15 0.3 8.95 15.4 5.6" fill="#cb923d" fill-rule="evenodd" stroke="none"/>
    <path d="M-20.35 -3.95 L-20.1 -4.15 -20.1 3.15 -20.15 3.15 Q-20.2 3.05 -20.3 3.05 L-20.35 3.0 -20.35 -3.95 M-13.9 -6.75 L-13.5 -6.85 -13.6 5.3 -13.9 5.3 -13.9 -6.75 M-10.6 -7.0 L-10.3 -7.25 -10.35 5.95 -10.6 5.7 -10.6 -7.0 M-17.25 -5.45 L-16.95 -5.45 -16.95 4.4 -17.0 4.4 -17.1 4.3 -17.25 4.25 -17.25 -5.45 M-3.4 -7.35 L-3.1 -7.35 -3.1 6.3 -3.4 6.3 -3.4 -7.35 M-7.15 -7.5 L-6.9 -7.5 -6.9 6.15 -7.15 6.15 -7.15 -7.5 M10.7 -6.7 L10.7 5.35 10.65 5.35 10.45 5.45 10.45 -6.75 10.7 -6.7 M3.2 -7.35 L3.5 -7.35 3.5 6.3 3.2 6.3 3.2 -7.35 M7.15 -7.15 L7.3 -7.15 7.3 5.9 7.15 5.85 7.0 5.9 7.0 -7.15 7.15 -7.15 M13.7 -6.2 L14.0 -6.2 14.0 4.55 13.95 4.55 Q13.85 4.55 13.7 4.65 L13.7 -6.2 M20.2 -3.85 L20.45 -3.75 20.45 2.35 20.2 2.5 20.2 -3.85 M17.1 -5.15 L17.35 -5.0 17.35 3.65 17.1 3.75 17.1 -5.15" fill="#6b3c17" fill-rule="evenodd" stroke="none"/>
    <path d="M-19.1 -4.35 L-19.25 -3.8 -19.4 -2.7 -19.15 -1.0 -18.9 0.35 -19.1 1.2 -19.3 1.9 -19.15 3.05 -19.15 3.25 -19.25 3.3 -19.45 2.65 -19.45 2.0 -19.25 1.1 -19.05 0.15 -19.3 -1.25 -19.6 -2.75 Q-19.6 -4.15 -19.15 -4.45 L-19.1 -4.35" fill="#6b3c17" fill-rule="evenodd" stroke="none"/>
    <path d="M-17.7 -4.6 L-17.9 -3.7 -18.1 -2.6 -17.75 -1.25 Q-17.45 -0.35 -17.45 0.25 L-17.6 1.25 -17.75 2.55 -17.45 3.65 -17.1 4.35 -17.2 4.5 Q-18.0 3.55 -18.0 2.55 L-17.95 1.9 -17.9 1.35 -17.65 0.15 -17.95 -1.15 -18.25 -2.6 -18.1 -3.8 Q-17.9 -4.5 -17.85 -5.15 L-17.75 -5.15 -17.7 -4.6" fill="#834c21" fill-rule="evenodd" stroke="none"/>
    <path d="M-15.95 -3.45 L-15.5 -1.85 Q-15.1 -0.8 -15.1 0.05 L-15.2 1.2 -15.35 2.25 -15.25 3.85 -15.3 4.55 -15.45 3.9 -15.4 3.3 -15.5 2.05 -15.4 1.05 -15.35 0.05 -15.75 -1.7 -16.2 -3.45 -16.15 -4.6 -15.6 -5.65 -15.75 -4.8 -15.95 -3.45" fill="#7b4317" fill-rule="evenodd" stroke="none"/>
    <path d="M-14.2 -6.3 L-14.4 -5.45 -14.6 -4.35 -14.45 -3.4 -14.25 -2.4 -14.5 -0.35 -14.3 0.75 -14.1 1.7 -14.3 2.95 -13.85 4.1 -13.95 4.25 -14.35 3.6 -14.5 2.95 -14.3 1.7 -14.5 0.8 -14.75 -0.35 -14.6 -1.7 -14.45 -2.4 -14.6 -3.3 -14.75 -4.35 Q-14.75 -5.4 -14.2 -6.35 L-14.2 -6.3" fill="#7b4317" fill-rule="evenodd" stroke="none"/>
    <path d="M-20.35 -2.65 L-20.75 -2.15 Q-21.15 -1.8 -21.15 -1.05 L-20.7 0.25 -20.25 1.25 -20.35 1.45 -21.05 0.2 Q-21.35 -0.2 -21.35 -1.05 -21.35 -2.05 -20.45 -2.8 L-20.35 -2.65" fill="#7b4317" fill-rule="evenodd" stroke="none"/>
    <path d="M-21.75 -2.35 Q-23.1 -1.5 -23.1 -0.65 L-22.85 -0.15 -22.55 0.35 -22.15 0.85 -20.7 1.1 Q-20.35 1.1 -20.35 1.3 L-20.45 1.45 Q-21.85 1.45 -22.65 0.6 -23.35 -0.05 -23.35 -0.65 -23.35 -2.0 -20.45 -3.35 L-20.4 -3.2 -21.75 -2.35" fill="#7b4317" fill-rule="evenodd" stroke="none"/>
    <path d="M-12.15 -0.75 L-11.55 1.85 -11.75 2.85 -12.0 4.3 -11.9 5.25 Q-11.95 5.65 -12.1 5.65 L-12.35 5.0 -12.4 4.3 -12.15 2.7 -11.9 1.65 Q-11.9 1.2 -12.45 -0.7 L-13.0 -3.25 Q-13.0 -5.8 -11.8 -6.6 -12.75 -5.05 -12.75 -3.25 L-12.15 -0.75" fill="#7b4317" fill-rule="evenodd" stroke="none"/>
    <path d="M-11.0 -5.05 Q-11.6 -3.8 -11.6 -2.4 -11.6 -1.2 -11.1 -0.1 -10.65 0.95 -10.65 1.8 L-10.7 2.5 -10.85 3.25 -10.65 4.3 -10.5 5.35 -10.7 5.6 -10.95 4.45 -11.1 3.25 -11.0 2.45 -10.9 1.8 Q-10.9 0.95 -11.4 -0.1 -11.9 -1.1 -11.9 -2.4 L-11.9 -3.5 -11.65 -4.5 -10.5 -6.65 -10.45 -6.45 -11.0 -5.05" fill="#7b4317" fill-rule="evenodd" stroke="none"/>
    <path d="M16.7 -2.3 Q16.6 0.25 16.15 0.25 15.75 0.25 15.6 -0.55 15.45 -1.05 15.45 -1.5 15.45 -2.45 15.85 -2.95 16.2 -3.5 16.45 -3.1 L16.7 -2.3 M16.1 -2.9 Q15.65 -2.5 15.65 -1.55 L15.65 -1.0 15.9 -0.5 16.15 -0.05 16.5 -2.3 Q16.5 -3.35 16.1 -2.9" fill="#7b4317" fill-rule="evenodd" stroke="none"/>
    <path d="M16.25 -4.15 L16.7 -3.65 17.0 -2.95 17.2 -1.55 16.95 0.2 Q16.65 1.6 16.15 1.6 15.6 1.6 15.25 0.15 L15.0 -1.45 15.25 -2.95 Q15.6 -4.15 16.25 -4.15 M15.4 0.05 Q15.7 1.4 16.15 1.4 16.75 1.4 17.0 -1.35 L16.85 -2.6 16.35 -3.8 Q15.2 -3.55 15.2 -1.55 L15.4 0.05" fill="#7b4317" fill-rule="evenodd" stroke="none"/>
    <path d="M15.1 -5.75 Q15.5 -5.4 15.5 -4.5 L15.1 -3.15 Q14.65 -2.1 14.65 -1.0 14.65 0.05 15.45 1.2 L16.5 2.0 Q17.15 2.55 17.1 3.05 L17.0 3.15 16.75 2.95 16.7 2.6 16.2 2.1 Q15.75 1.85 15.15 1.2 14.45 0.4 14.45 -1.0 14.45 -2.15 14.9 -3.3 L15.35 -4.65 15.0 -5.6 15.0 -5.75 15.1 -5.75" fill="#7b4317" fill-rule="evenodd" stroke="none"/>
    <path d="M14.1 0.5 Q14.1 1.45 14.9 2.45 15.65 3.35 15.7 3.95 L15.55 4.1 14.85 2.6 14.25 1.9 13.95 1.05 14.0 0.7 14.1 0.45 14.1 0.5" fill="#7b4317" fill-rule="evenodd" stroke="none"/>
    <path d="M19.35 -4.0 Q18.75 -3.3 18.75 -2.5 L19.1 -1.25 19.35 0.5 19.2 1.3 19.0 2.1 19.1 2.85 18.95 3.05 18.8 2.6 18.8 2.1 Q18.8 1.6 18.95 1.2 L19.15 0.5 18.85 -1.15 Q18.55 -2.0 18.55 -2.5 18.55 -3.75 19.3 -4.0 L19.35 -4.0" fill="#7b4317" fill-rule="evenodd" stroke="none"/>
    <path d="M18.15 -1.1 L18.4 0.55 17.3 3.05 17.15 2.95 17.15 2.85 17.65 1.65 18.15 0.1 17.9 -1.35 17.35 -2.85 17.45 -2.85 18.15 -1.1" fill="#7b4317" fill-rule="evenodd" stroke="none"/>
    <path d="M20.5 -2.15 L21.25 -1.2 21.5 -0.1 21.25 0.9 Q20.9 1.7 20.4 1.7 L20.25 1.6 20.25 1.5 20.75 1.0 Q21.25 0.45 21.25 -0.2 L20.85 -1.3 20.45 -2.0 20.5 -2.15" fill="#7b4317" fill-rule="evenodd" stroke="none"/>
    <path d="M23.15 -2.5 L22.95 -1.8 22.7 -0.55 22.95 0.5 23.15 0.9 22.9 1.2 22.6 0.45 22.45 -0.55 22.55 -1.6 Q22.65 -2.15 23.1 -2.6 L23.15 -2.5" fill="#7b4317" fill-rule="evenodd" stroke="none"/>
    <path d="M22.2 1.45 L22.0 1.45 22.1 1.1 21.9 0.15 21.7 -1.0 Q21.7 -2.0 22.1 -2.6 L21.85 -1.0 22.1 0.05 22.25 1.1 22.2 1.45" fill="#7b4317" fill-rule="evenodd" stroke="none"/>
    <path d="M12.75 -5.85 L12.4 -4.7 12.35 -3.65 12.75 -1.35 13.2 1.0 12.85 3.6 13.1 4.8 Q12.9 4.8 12.85 4.9 L12.7 4.35 12.6 3.65 12.75 2.3 12.95 0.75 12.55 -1.25 Q12.1 -2.6 12.1 -3.65 L12.2 -4.75 12.7 -5.9 12.75 -5.85" fill="#69370f" fill-rule="evenodd" stroke="none"/>
    <path d="M13.0 5.1 L-13.9 5.1 -13.9 -6.45 13.0 -6.45 Q14.45 -0.35 13.0 5.1" fill="#b67615" fill-rule="evenodd" stroke="none"/>
    <path d="M-16.6 -5.05 L-16.75 -4.5 -16.75 -3.6 Q-16.75 -2.05 -16.35 -0.9 -15.9 0.3 -15.9 0.95 L-16.1 3.5 -16.0 4.05 -15.9 4.65 -16.0 4.8 -16.25 4.15 -16.35 3.5 -16.15 0.95 -16.55 -0.75 Q-17.0 -2.0 -17.0 -3.6 -17.0 -5.2 -16.5 -5.45 L-16.45 -5.4 -16.6 -5.05" fill="#69370f" fill-rule="evenodd" stroke="none"/>
    <path d="M13.75 -0.55 L13.75 -0.25 -13.95 -0.25 -13.95 -0.55 13.75 -0.55 M13.75 3.05 L13.75 3.3 -13.95 3.3 -13.95 3.05 13.75 3.05 M13.7 -3.8 L13.7 -3.5 -13.95 -3.5 -13.95 -3.8 13.7 -3.8" fill="#7e3710" fill-rule="evenodd" stroke="none"/>
    <path d="M6.85 -4.85 L5.85 -5.15 4.9 -5.15 4.15 -4.75 2.9 -4.45 0.9 -4.75 -0.25 -5.1 -1.05 -5.1 -3.5 -4.8 -4.7 -4.9 -4.7 -5.0 -4.25 -5.0 -1.1 -5.45 -0.05 -5.45 0.9 -5.1 3.15 -4.8 Q3.5 -4.8 4.15 -5.15 L4.9 -5.5 5.75 -5.5 6.9 -5.15 Q7.75 -4.85 8.25 -4.85 9.3 -4.85 10.3 -5.45 11.3 -6.1 12.0 -6.1 L13.05 -5.75 13.4 -5.2 13.3 -5.0 13.05 -5.35 Q12.7 -5.75 12.05 -5.75 11.45 -5.75 10.45 -5.1 9.45 -4.55 8.25 -4.55 L6.85 -4.85" fill="#9a620e" fill-rule="evenodd" stroke="none"/>
    <path d="M-2.1 1.9 L-0.35 2.3 1.15 2.7 0.6 2.7 -2.85 2.15 -4.1 2.1 -6.65 2.9 -7.6 2.9 Q-8.65 2.8 -9.9 1.65 -11.15 0.55 -12.6 0.4 L-13.7 0.4 -13.7 0.45 -13.75 0.45 -13.6 0.25 -12.6 0.25 Q-11.3 0.35 -10.0 1.35 -8.55 2.45 -7.8 2.6 L-6.5 2.6 -4.1 1.9 -2.1 1.9" fill="#9a620e" fill-rule="evenodd" stroke="none"/>
    <path d="M6.35 -2.6 L5.05 -2.6 Q3.65 -2.45 1.9 -1.5 L1.7 -1.5 1.7 -1.65 Q2.6 -2.25 3.25 -2.45 L5.2 -2.95 6.35 -2.95 8.0 -2.35 Q9.35 -1.9 9.65 -1.9 L11.05 -2.3 11.9 -2.85 12.1 -2.95 12.35 -2.95 Q13.55 -2.95 13.75 -2.5 L13.5 -2.45 12.9 -2.5 12.3 -2.65 11.25 -2.1 Q10.3 -1.55 9.65 -1.55 9.35 -1.55 8.0 -2.0 L6.35 -2.6" fill="#9a620e" fill-rule="evenodd" stroke="none"/>
    <path d="M-6.6 -4.6 Q-5.55 -4.2 -5.55 -3.95 L-5.65 -3.75 Q-7.15 -4.75 -8.2 -4.75 L-9.0 -4.5 Q-9.35 -4.25 -9.75 -4.25 L-10.85 -4.45 -11.55 -4.7 -12.25 -4.7 -13.2 -4.45 -13.85 -4.2 -14.0 -4.25 Q-13.9 -4.85 -12.25 -5.0 L-11.5 -5.0 -10.8 -4.75 -9.85 -4.6 -10.0 -4.6 Q-10.0 -4.35 -9.05 -4.8 L-8.15 -5.05 -6.6 -4.6" fill="#9a620e" fill-rule="evenodd" stroke="none"/>
    <path d="M-7.9 -0.95 L-8.55 -0.85 -9.5 -1.1 -9.9 -1.35 -10.75 -1.6 -11.95 -1.6 -13.85 -0.9 -13.95 -0.95 -14.0 -1.05 Q-14.0 -1.6 -11.85 -1.9 L-10.75 -1.9 -9.8 -1.65 -9.35 -1.35 -8.55 -1.2 -7.95 -1.3 -7.55 -1.45 -5.7 -0.7 Q-5.7 -0.55 -5.85 -0.55 L-7.5 -1.1 -7.9 -0.95" fill="#9a620e" fill-rule="evenodd" stroke="none"/>
    <path d="M10.0 1.95 L8.25 2.4 6.9 3.05 6.8 2.85 Q6.8 2.55 8.15 2.05 9.35 1.65 10.1 1.55 L11.1 1.55 12.35 2.25 13.35 3.1 13.35 3.25 13.1 3.25 Q12.2 2.25 11.1 1.95 L10.0 1.95" fill="#9a620e" fill-rule="evenodd" stroke="none"/>
  </g>
</svg>
