<?xml version="1.0" encoding="UTF-8" standalone="no"?>
<svg xmlns:ffdec="https://www.free-decompiler.com/flash" xmlns:xlink="http://www.w3.org/1999/xlink" ffdec:objectType="shape" height="34.05px" width="5.05px" xmlns="http://www.w3.org/2000/svg">
  <g transform="matrix(1.0, 0.0, 0.0, 1.0, -19.2, -99.75)">
    <path d="M23.25 99.95 L23.25 99.9 23.55 99.8 23.75 99.75 23.9 99.8 24.15 99.95 24.25 100.05 23.15 114.65 Q22.5 122.05 21.05 129.35 L20.9 129.75 20.75 130.85 20.65 131.25 20.2 131.55 20.0 131.65 19.4 133.7 19.25 133.8 Q19.1 132.75 19.55 131.65 L19.6 131.35 Q19.35 130.75 19.5 130.05 L19.65 129.5 Q19.8 125.8 20.3 122.0 L22.2 107.15 23.0 100.3 23.15 100.1 23.25 99.95" fill="#693308" fill-rule="evenodd" stroke="none"/>
  </g>
</svg>
