<?xml version="1.0" encoding="UTF-8" standalone="no"?>
<svg xmlns:ffdec="https://www.free-decompiler.com/flash" xmlns:xlink="http://www.w3.org/1999/xlink" ffdec:objectType="shape" height="62.35px" width="24.45px" xmlns="http://www.w3.org/2000/svg">
  <g transform="matrix(1.0, 0.0, 0.0, 1.0, 17.8, 31.2)">
    <path d="M-14.55 -25.4 Q-18.75 -24.85 -16.7 -27.35 -14.65 -29.8 -11.25 -29.5 -8.45 -29.15 -10.1 -27.55 L-8.15 -27.3 Q-8.3 -26.9 -11.4 -26.4 -8.25 -25.6 -10.3 -25.25 L-14.55 -25.4" fill="#c1ebfb" fill-opacity="0.0" fill-rule="evenodd" stroke="none"/>
    <path d="M2.25 -28.95 Q2.85 -28.55 3.5 -28.5 4.25 -28.5 2.85 -27.9 1.45 -27.3 0.55 -26.7 -4.7 -26.0 -3.8 -28.8 -2.9 -31.55 1.0 -31.15 4.9 -30.75 6.15 -29.45 1.7 -29.35 2.25 -28.95" fill="#c1ebfb" fill-opacity="0.0" fill-rule="evenodd" stroke="none"/>
    <path d="M-14.15 30.2 Q-18.5 30.75 -17.65 28.15 -16.8 25.6 -12.8 25.95 -9.4 26.25 -11.3 27.5 -9.4 27.65 -9.5 27.95 L-7.5 28.2 Q-7.65 28.6 -10.9 29.15 -7.6 29.95 -9.75 30.3 L-14.15 30.2" fill="#c1ebfb" fill-opacity="0.0" fill-rule="evenodd" stroke="none"/>
    <path d="M0.15 30.5 Q-5.45 31.2 -4.5 28.2 -3.5 25.25 0.65 25.7 4.8 26.15 6.15 27.55 1.35 27.65 2.0 28.05 2.6 28.5 3.3 28.55 4.05 28.55 2.6 29.2 1.1 29.85 0.15 30.5" fill="#c1ebfb" fill-opacity="0.0" fill-rule="evenodd" stroke="none"/>
    <path d="M0.15 30.5 Q-5.45 31.2 -4.5 28.2 -3.5 25.25 0.65 25.7 4.8 26.15 6.15 27.55 1.35 27.65 2.0 28.05 2.6 28.5 3.3 28.55 4.05 28.55 2.6 29.2 1.1 29.85 0.15 30.5 Z" fill="none" stroke="#ffffff" stroke-linecap="round" stroke-linejoin="round" stroke-opacity="0.0" stroke-width="1.0"/>
  </g>
</svg>
