<?xml version="1.0" encoding="UTF-8" standalone="no"?>
<svg xmlns:ffdec="https://www.free-decompiler.com/flash" xmlns:xlink="http://www.w3.org/1999/xlink" ffdec:objectType="shape" height="33.8px" width="40.8px" xmlns="http://www.w3.org/2000/svg">
  <g transform="matrix(1.0, 0.0, 0.0, 1.0, 2.7, -3.85)">
    <path d="M37.85 20.45 L38.1 20.5 37.95 20.55 32.75 22.05 32.7 22.05 26.05 23.25 22.8 25.25 22.5 25.25 16.55 30.15 19.0 30.6 19.0 30.5 21.05 31.1 21.4 31.2 21.25 31.25 21.3 31.25 19.05 31.9 15.65 32.45 13.7 32.5 7.75 37.4 Q7.65 37.6 7.2 37.65 L3.6 37.65 3.4 37.6 3.2 37.25 3.15 36.9 Q2.4 33.25 2.25 29.45 L2.2 28.5 0.4 30.05 -1.2 30.05 -1.2 30.0 -1.55 30.0 -0.5 25.4 -0.7 25.4 -0.7 25.1 -2.7 24.75 -2.7 20.95 -0.75 20.65 -0.75 20.55 -0.75 20.35 -2.7 20.05 -2.7 16.2 -0.8 15.95 -0.8 15.7 -0.4 15.7 -1.55 10.5 -1.2 10.5 -1.2 10.45 0.4 10.45 2.25 12.05 Q2.4 8.25 3.15 4.6 L3.2 4.25 3.4 3.9 3.6 3.85 7.2 3.85 Q7.65 3.9 7.75 4.1 L13.75 9.0 15.65 9.05 19.0 9.6 19.0 9.55 20.95 10.1 21.4 10.2 21.3 10.25 19.55 10.75 19.0 10.9 16.6 11.35 22.45 16.2 22.85 16.2 Q24.7 16.95 25.85 17.8 L32.7 18.95 32.75 18.95 37.85 20.45" fill="#010b10" fill-opacity="0.3019608" fill-rule="evenodd" stroke="none"/>
  </g>
</svg>
