<?xml version="1.0" encoding="UTF-8" standalone="no"?>
<svg xmlns:ffdec="https://www.free-decompiler.com/flash" xmlns:xlink="http://www.w3.org/1999/xlink" ffdec:objectType="shape" height="33.8px" width="40.8px" xmlns="http://www.w3.org/2000/svg">
  <g transform="matrix(1.0, 0.0, 0.0, 1.0, 0.3, -2.6)">
    <path d="M21.4 9.65 L18.15 10.2 13.45 10.35 Q10.2 10.2 8.4 9.0 10.75 7.9 13.5 7.65 L18.05 7.8 21.45 8.35 23.7 9.0 21.4 9.65" fill="#111111" fill-rule="evenodd" stroke="none"/>
    <path d="M9.2 9.0 Q11.25 8.25 13.55 7.85 L18.1 8.0 20.9 8.35 23.8 8.95 20.9 9.6 18.25 9.9 13.55 10.05 Q11.1 9.8 9.2 9.0" fill="url(#gradient0)" fill-rule="evenodd" stroke="none"/>
    <path d="M21.4 8.3 L23.7 8.95 21.4 9.65 21.4 8.3" fill="#000000" fill-rule="evenodd" stroke="none"/>
    <path d="M21.45 9.2 L21.4 9.2 18.85 9.35 15.7 9.1 15.7 8.8 Q16.85 8.65 15.45 8.5 L18.7 8.55 21.4 8.7 21.45 8.7 21.45 9.2" fill="#999999" fill-rule="evenodd" stroke="none"/>
    <path d="M21.45 9.2 L21.45 8.7 23.4 8.95 21.45 9.2" fill="#666565" fill-rule="evenodd" stroke="none"/>
    <path d="M18.05 31.2 L21.45 30.65 23.7 30.0 21.4 29.35 18.15 28.8 13.45 28.65 Q10.2 28.8 8.4 30.0 10.75 31.1 13.5 31.35 L18.05 31.2" fill="#111111" fill-rule="evenodd" stroke="none"/>
    <path d="M13.55 31.05 L18.1 30.9 20.9 30.55 23.8 29.95 20.9 29.3 18.25 29.0 13.55 28.85 Q11.1 29.1 9.2 29.9 11.25 30.65 13.55 31.05" fill="url(#gradient1)" fill-rule="evenodd" stroke="none"/>
    <path d="M21.4 30.6 L23.7 29.95 21.4 29.25 21.4 30.6" fill="#000000" fill-rule="evenodd" stroke="none"/>
    <path d="M21.45 29.75 L21.4 29.75 18.85 29.6 15.7 29.85 15.7 30.15 Q16.85 30.3 15.45 30.45 L18.7 30.4 21.4 30.25 21.45 30.25 21.45 29.75" fill="#999999" fill-rule="evenodd" stroke="none"/>
    <path d="M21.45 29.75 L21.45 30.25 23.4 30.0 21.45 29.75" fill="#666565" fill-rule="evenodd" stroke="none"/>
    <path d="M5.05 10.8 Q5.2 7.0 5.95 3.35 L6.0 3.0 6.2 2.65 6.4 2.6 10.0 2.6 Q10.45 2.65 10.55 2.85 L25.3 15.0 5.05 15.0 5.05 10.8 M10.0 36.4 L6.4 36.4 6.2 36.35 6.0 36.0 5.95 35.65 Q5.2 32.0 5.05 28.2 L5.05 24.0 25.3 24.0 10.55 36.15 Q10.45 36.35 10.0 36.4" fill="#ffffff" fill-rule="evenodd" stroke="none"/>
    <path d="M10.15 36.15 L24.9 24.0 4.65 24.0 4.65 28.2 Q4.8 32.0 5.55 35.65 L5.6 36.0 5.8 36.35 6.0 36.4 9.6 36.4 10.15 36.15" fill="url(#gradient2)" fill-rule="evenodd" stroke="none"/>
    <path d="M9.6 35.3 L22.85 23.1 6.05 23.35 6.05 23.4 Q5.95 26.75 6.15 29.75 6.3 32.65 6.6 35.25 L6.65 35.3 6.7 35.3 Q8.05 35.5 9.6 35.3 M9.55 35.15 L6.75 35.2 6.25 29.75 Q6.1 26.75 6.2 23.5 L22.55 23.25 9.55 35.15" fill="#2e2925" fill-rule="evenodd" stroke="none"/>
    <path d="M13.55 31.65 L13.6 31.6 13.6 31.55 13.55 31.5 6.4 31.5 6.35 31.55 6.3 31.6 6.35 31.6 6.4 31.65 13.55 31.65" fill="#2e2925" fill-rule="evenodd" stroke="none"/>
    <path d="M14.85 30.45 L14.9 30.4 14.85 30.35 6.25 30.35 6.2 30.35 6.2 30.4 6.2 30.45 6.25 30.45 14.85 30.45" fill="#2e2925" fill-rule="evenodd" stroke="none"/>
    <path d="M12.95 30.4 L13.0 30.45 13.05 30.4 13.05 28.2 13.05 28.15 13.0 28.1 12.95 28.15 12.95 28.2 12.95 30.4" fill="#2e2925" fill-rule="evenodd" stroke="none"/>
    <path d="M10.15 2.85 L24.9 15.0 4.65 15.0 4.65 10.8 Q4.8 7.0 5.55 3.35 L5.6 3.0 Q5.65 2.7 5.8 2.65 L6.0 2.6 9.6 2.6 Q10.05 2.65 10.15 2.85" fill="url(#gradient3)" fill-rule="evenodd" stroke="none"/>
    <path d="M9.55 3.85 L6.75 3.8 6.25 9.25 Q6.1 12.25 6.2 15.5 L22.55 15.75 9.55 3.85 M9.6 3.7 L22.85 15.9 6.05 15.65 6.05 15.6 Q5.95 12.25 6.15 9.25 6.3 6.35 6.6 3.75 L6.65 3.7 6.7 3.7 Q8.05 3.5 9.6 3.7" fill="#2e2925" fill-rule="evenodd" stroke="none"/>
    <path d="M25.25 14.95 Q35.1 19.05 25.2 24.0 L1.7 24.15 1.6 14.45 Q19.45 14.65 25.25 14.95" fill="#5b5b5b" fill-rule="evenodd" stroke="none"/>
    <path d="M22.2 21.4 L1.65 21.4 1.65 17.0 22.2 17.0 22.2 21.4" fill="#303030" fill-rule="evenodd" stroke="none"/>
    <path d="M1.65 17.6 L22.2 17.6 22.2 20.8 1.65 20.8 Q2.95 20.05 2.9 19.4 3.1 18.45 1.65 17.6" fill="#5b5b5b" fill-rule="evenodd" stroke="none"/>
    <path d="M27.3 16.4 L35.1 17.7 Q38.0 18.35 40.45 19.25 L35.1 20.8 27.7 22.1 16.9 22.5 Q9.4 22.15 5.15 19.25 10.55 16.65 16.9 16.0 L27.3 16.4" fill="#303030" fill-rule="evenodd" stroke="none"/>
    <path d="M6.95 19.35 Q11.6 17.55 16.95 16.65 L27.35 17.0 33.9 17.8 Q37.45 18.35 40.5 19.25 L33.9 20.7 27.75 21.45 16.95 21.75 Q11.3 21.2 6.95 19.35" fill="#5b5b5b" fill-rule="evenodd" stroke="none"/>
    <path d="M35.15 17.7 L40.45 19.25 35.15 20.8 35.15 17.7" fill="#000000" fill-rule="evenodd" stroke="none"/>
    <path d="M35.1 18.6 L39.7 19.2 35.1 19.95 35.1 18.6" fill="#4f4f4f" fill-rule="evenodd" stroke="none"/>
    <path d="M35.1 19.95 L29.25 20.45 22.0 19.7 22.0 18.8 28.9 18.0 35.1 18.6 35.1 19.95" fill="#b1b1b1" fill-rule="evenodd" stroke="none"/>
    <path d="M24.95 17.65 L29.45 17.8 Q32.75 18.3 32.8 19.25 32.8 20.2 29.4 20.7 L25.35 20.9 23.65 20.75 20.05 20.1 Q18.5 19.7 18.5 19.35 18.5 18.95 20.1 18.45 21.5 17.9 23.85 17.7 L24.95 17.65" fill="#000000" fill-rule="evenodd" stroke="none"/>
    <path d="M28.4 18.7 L30.5 19.05 Q30.7 19.3 29.45 19.5 L26.2 19.6 21.4 19.15 24.7 18.8 28.4 18.7" fill="url(#gradient4)" fill-rule="evenodd" stroke="none"/>
    <path d="M1.7 23.85 L-0.3 23.5 -0.3 19.7 1.7 19.4 1.7 23.85 M-0.3 14.95 L1.7 14.65 1.7 19.1 -0.3 18.8 -0.3 14.95" fill="#010101" fill-rule="evenodd" stroke="none"/>
    <path d="M4.7 11.4 L4.65 11.3 Q4.8 7.5 5.55 3.85 L6.25 4.35 Q5.85 5.95 5.45 10.05 5.1 14.15 4.7 11.4" fill="#111111" fill-rule="evenodd" stroke="none"/>
    <path d="M9.7 15.25 L2.55 15.35 1.2 9.2 2.8 9.2 9.6 15.05 9.7 15.25" fill="#badce9" fill-rule="evenodd" stroke="none"/>
    <path d="M3.15 15.35 L2.2 15.35 1.35 11.55 2.25 11.55 3.15 15.35" fill="#111111" fill-rule="evenodd" stroke="none"/>
    <path d="M3.15 15.35 L2.25 11.55 1.35 11.55 0.85 9.25 2.45 9.25 9.35 15.3 3.15 15.35" fill="url(#gradient5)" fill-rule="evenodd" stroke="none"/>
    <path d="M2.55 22.65 L1.2 28.8 2.8 28.8 9.7 22.75 2.55 22.65" fill="#badce9" fill-rule="evenodd" stroke="none"/>
    <path d="M1.35 26.45 L2.25 26.45 3.15 22.65 2.2 22.65 1.35 26.45" fill="#111111" fill-rule="evenodd" stroke="none"/>
    <path d="M3.15 22.65 L2.25 26.45 1.35 26.45 0.85 28.75 2.45 28.75 9.35 22.7 3.15 22.65" fill="url(#gradient6)" fill-rule="evenodd" stroke="none"/>
    <path d="M-0.3 22.65 L-0.3 20.7 1.65 20.7 1.65 22.65 -0.3 22.65 M-0.3 15.75 L1.65 15.75 1.65 17.85 -0.3 17.85 -0.3 15.75" fill="#333333" fill-rule="evenodd" stroke="none"/>
    <path d="M2.2 15.2 L9.15 15.1 9.5 15.45 2.2 15.5 2.2 15.2" fill="#111111" fill-rule="evenodd" stroke="none"/>
    <path d="M2.1 22.45 L9.45 22.5 9.45 22.8 2.1 22.75 2.1 22.45" fill="#111111" fill-rule="evenodd" stroke="none"/>
    <path d="M14.65 16.95 L14.7 16.9 14.75 16.9 14.85 16.95 14.85 17.0 Q14.45 19.4 14.9 21.6 L14.85 21.7 14.8 21.7 14.75 21.7 14.7 21.65 Q14.2 19.4 14.65 16.95" fill="#2e2925" fill-rule="evenodd" stroke="none"/>
    <path d="M12.2 17.5 L12.25 17.4 12.35 17.4 12.4 17.45 12.45 17.5 Q12.15 19.3 12.45 21.05 L12.45 21.15 12.4 21.2 12.3 21.15 12.25 21.1 Q11.95 19.3 12.2 17.5" fill="#2e2925" fill-rule="evenodd" stroke="none"/>
    <path d="M13.55 7.35 L13.6 7.4 13.6 7.45 13.55 7.5 6.4 7.5 6.35 7.45 6.3 7.4 6.35 7.4 6.4 7.35 13.55 7.35" fill="#2e2925" fill-rule="evenodd" stroke="none"/>
    <path d="M14.85 8.55 L14.9 8.6 14.85 8.65 6.25 8.65 6.2 8.65 6.2 8.6 6.2 8.55 6.25 8.55 14.85 8.55" fill="#2e2925" fill-rule="evenodd" stroke="none"/>
    <path d="M12.95 8.6 L13.0 8.55 13.05 8.6 13.05 10.8 13.05 10.85 13.0 10.9 12.95 10.85 12.95 10.8 12.95 8.6" fill="#2e2925" fill-rule="evenodd" stroke="none"/>
    <path d="M17.35 11.35 L17.4 11.4 17.4 11.45 17.35 11.5 6.15 11.5 6.1 11.45 6.1 11.4 6.15 11.35 17.35 11.35" fill="#2e2925" fill-rule="evenodd" stroke="none"/>
  </g>
  <defs>
    <linearGradient gradientTransform="matrix(0.0025, 0.0184, -0.0192, 0.0047, -62.4, 273.15)" gradientUnits="userSpaceOnUse" id="gradient0" spreadMethod="pad" x1="-819.2" x2="819.2">
      <stop offset="0.1843137254901961" stop-color="#435557"/>
      <stop offset="1.0" stop-color="#261a1c"/>
    </linearGradient>
    <linearGradient gradientTransform="matrix(0.0025, -0.0184, -0.0192, -0.0047, -62.4, -234.25)" gradientUnits="userSpaceOnUse" id="gradient1" spreadMethod="pad" x1="-819.2" x2="819.2">
      <stop offset="0.1843137254901961" stop-color="#435557"/>
      <stop offset="1.0" stop-color="#261a1c"/>
    </linearGradient>
    <linearGradient gradientTransform="matrix(3.0E-4, -0.008, -0.0123, -4.0E-4, 14.6, 30.15)" gradientUnits="userSpaceOnUse" id="gradient2" spreadMethod="pad" x1="-819.2" x2="819.2">
      <stop offset="0.1843137254901961" stop-color="#405456"/>
      <stop offset="1.0" stop-color="#261a1c"/>
    </linearGradient>
    <linearGradient gradientTransform="matrix(2.0E-4, 0.0066, -0.0118, 0.0017, 11.1, 10.1)" gradientUnits="userSpaceOnUse" id="gradient3" spreadMethod="pad" x1="-819.2" x2="819.2">
      <stop offset="0.1843137254901961" stop-color="#405456"/>
      <stop offset="1.0" stop-color="#261a1c"/>
    </linearGradient>
    <linearGradient gradientTransform="matrix(0.0051, 1.0E-4, -1.0E-4, 0.0066, 26.0, 19.1)" gradientUnits="userSpaceOnUse" id="gradient4" spreadMethod="pad" x1="-819.2" x2="819.2">
      <stop offset="0.0196078431372549" stop-color="#ffffff" stop-opacity="0.0"/>
      <stop offset="0.7019607843137254" stop-color="#ffffff" stop-opacity="0.7294118"/>
      <stop offset="1.0" stop-color="#ffffff" stop-opacity="0.21176471"/>
    </linearGradient>
    <linearGradient gradientTransform="matrix(0.0018, 0.0049, -0.0036, 0.0013, 5.0, 12.35)" gradientUnits="userSpaceOnUse" id="gradient5" spreadMethod="pad" x1="-819.2" x2="819.2">
      <stop offset="0.1843137254901961" stop-color="#74878a"/>
      <stop offset="1.0" stop-color="#261a1c"/>
    </linearGradient>
    <linearGradient gradientTransform="matrix(0.0018, -0.0049, -0.0036, -0.0013, 4.9, 25.65)" gradientUnits="userSpaceOnUse" id="gradient6" spreadMethod="pad" x1="-819.2" x2="819.2">
      <stop offset="0.1843137254901961" stop-color="#74878a"/>
      <stop offset="1.0" stop-color="#261a1c"/>
    </linearGradient>
  </defs>
</svg>
