<?xml version="1.0" encoding="UTF-8" standalone="no"?>
<svg xmlns:ffdec="https://www.free-decompiler.com/flash" xmlns:xlink="http://www.w3.org/1999/xlink" ffdec:objectType="shape" height="47.65px" width="70.3px" xmlns="http://www.w3.org/2000/svg">
  <g transform="matrix(1.0, 0.0, 0.0, 1.0, 0.0, 0.0)">
    <path d="M54.85 20.6 Q63.2 21.5 69.6 23.7 L70.3 23.9 70.25 23.95 70.3 23.95 Q63.55 26.25 55.35 27.15 L48.5 27.45 44.6 29.25 44.6 29.4 39.65 29.4 22.3 43.35 22.4 43.25 18.95 46.15 20.1 46.15 20.7 46.35 20.9 46.9 20.85 47.2 20.7 47.45 20.1 47.65 11.65 47.65 12.8 42.85 12.7 42.85 15.6 30.35 15.65 30.35 15.8 29.5 11.55 29.5 4.4 35.8 1.2 35.8 2.65 29.3 2.35 29.25 0.0 28.85 0.0 24.35 2.35 24.05 2.35 24.0 2.65 24.0 1.85 23.95 3.95 23.9 3.0 23.8 2.35 23.75 2.35 23.7 0.0 23.3 0.0 18.85 2.35 18.5 2.6 18.5 1.2 12.0 4.4 12.0 11.45 18.2 15.8 18.2 15.25 15.55 15.15 15.55 14.05 10.5 12.9 5.4 12.55 3.75 11.65 0.0 20.1 0.1 20.7 0.35 20.9 0.65 20.9 0.7 20.9 0.85 20.7 1.4 20.1 1.65 18.95 1.65 22.25 4.4 22.3 4.45 22.35 4.55 35.15 15.05 34.8 14.75 37.75 17.1 37.6 17.1 39.45 18.65 44.55 18.85 44.6 18.8 48.5 20.35 54.85 20.6" fill="#000000" fill-opacity="0.3019608" fill-rule="evenodd" stroke="none"/>
  </g>
</svg>
