<?xml version="1.0" encoding="UTF-8" standalone="no"?>
<svg xmlns:ffdec="https://www.free-decompiler.com/flash" xmlns:xlink="http://www.w3.org/1999/xlink" ffdec:objectType="shape" height="41.1px" width="3.55px" xmlns="http://www.w3.org/2000/svg">
  <g transform="matrix(1.0, 0.0, 0.0, 1.0, -27.65, -100.8)">
    <path d="M30.2 100.9 L30.45 100.8 30.8 100.8 Q31.45 104.1 31.1 107.65 30.35 115.0 29.85 122.4 29.4 129.75 29.4 137.05 29.4 138.1 28.95 139.0 L29.05 139.5 29.05 139.95 29.0 140.15 28.8 140.4 28.9 141.35 29.0 141.9 Q28.55 141.95 28.55 141.1 L28.55 140.5 28.45 140.4 28.4 140.3 28.3 140.2 28.2 139.45 28.15 139.0 28.1 138.9 28.0 138.8 27.9 138.7 Q27.4 131.75 27.95 124.7 28.5 117.05 29.5 109.45 30.05 105.3 30.0 101.15 L30.05 101.05 30.2 100.9" fill="#693308" fill-rule="evenodd" stroke="none"/>
  </g>
</svg>
