<?xml version="1.0" encoding="UTF-8" standalone="no"?>
<svg xmlns:ffdec="https://www.free-decompiler.com/flash" xmlns:xlink="http://www.w3.org/1999/xlink" ffdec:objectType="shape" height="49.5px" width="72.95px" xmlns="http://www.w3.org/2000/svg">
  <g transform="matrix(1.0, 0.0, 0.0, 1.0, -2.15, 0.0)">
    <path d="M46.5 28.75 L46.5 20.9 59.1 21.4 Q68.2 22.35 75.1 24.85 68.1 27.25 59.6 28.2 L46.5 28.75" fill="#558395" fill-rule="evenodd" stroke="none"/>
    <path d="M46.5 27.9 L46.5 21.65 59.1 22.05 Q68.2 22.8 75.1 24.8 68.1 26.7 59.6 27.45 L46.5 27.9" fill="#78b0c6" fill-rule="evenodd" stroke="none"/>
    <path d="M48.4 30.25 L48.2 29.85 48.2 19.65 48.45 19.5 53.35 21.5 53.35 28.1 48.35 30.4 48.4 30.25" fill="#78b0c6" fill-rule="evenodd" stroke="none"/>
    <path d="M22.7 0.1 L22.7 0.75 14.4 0.75 14.2 0.0 22.7 0.1 M14.35 49.0 L22.7 49.0 22.7 49.5 14.2 49.5 14.35 49.0" fill="#5891a8" fill-rule="evenodd" stroke="none"/>
    <path d="M22.7 0.75 L22.7 0.1 23.0 0.1 Q23.35 0.1 23.6 0.35 L23.8 0.65 23.8 0.75 23.8 0.9 23.6 1.45 23.0 1.7 22.7 1.7 22.7 0.75 M22.7 49.0 L22.7 47.9 23.0 47.9 Q23.35 47.9 23.6 48.15 L23.8 48.7 23.75 49.0 23.6 49.25 23.0 49.5 22.7 49.5 22.7 49.0" fill="#c64d1f" fill-rule="evenodd" stroke="none"/>
    <path d="M14.4 0.75 L22.7 0.75 22.7 1.7 21.8 1.7 44.65 20.65 19.0 20.9 14.4 0.75" fill="url(#gradient0)" fill-rule="evenodd" stroke="none"/>
    <path d="M14.35 49.0 L19.0 28.7 44.65 28.85 21.8 47.9 22.7 47.9 22.7 49.0 14.35 49.0" fill="url(#gradient1)" fill-rule="evenodd" stroke="none"/>
    <path d="M6.7 12.45 L18.4 22.75 6.25 22.85 4.0 12.45 6.7 12.45 M6.7 37.15 L4.0 37.15 6.25 26.75 18.4 26.85 6.7 37.15" fill="#0bffff" fill-rule="evenodd" stroke="none"/>
    <path d="M48.5 19.55 L48.45 30.5 21.7 30.7 21.6 18.95 Q41.85 19.2 48.5 19.55" fill="#78b0c6" fill-rule="evenodd" stroke="none"/>
    <path d="M7.2 22.85 L5.7 16.4 4.2 16.4 3.35 12.45 6.05 12.45 17.75 22.75 7.2 22.85 M4.15 33.5 L5.4 33.55 7.2 26.8 17.75 26.85 6.05 37.15 3.35 37.15 4.15 33.5" fill="#009999" fill-rule="evenodd" stroke="none"/>
    <path d="M4.2 16.4 L5.7 16.4 7.2 22.85 5.6 22.85 4.2 16.4 M4.15 33.5 L5.6 26.75 7.2 26.8 5.4 33.55 4.15 33.5" fill="#127b7b" fill-rule="evenodd" stroke="none"/>
    <path d="M4.55 24.95 L6.25 24.8 4.55 24.6 4.55 19.2 9.85 18.9 21.9 18.9 21.9 30.65 9.85 30.65 4.55 30.35 4.55 24.95" fill="#78b0c6" fill-rule="evenodd" stroke="none"/>
    <path d="M4.45 21.9 L4.45 20.9 Q11.65 19.85 18.9 21.45 L4.45 21.9" fill="#9acee2" fill-rule="evenodd" stroke="none"/>
    <path d="M34.8 31.45 L41.95 31.25 25.05 45.1 34.8 31.45 M25.25 4.55 L41.3 17.75 34.4 17.65 25.25 4.55" fill="#075979" fill-rule="evenodd" stroke="none"/>
    <path d="M52.1 22.9 Q53.1 25.0 52.1 26.7 44.85 25.2 32.7 24.85 46.05 24.6 52.1 22.9" fill="#5490a8" fill-rule="evenodd" stroke="none"/>
    <path d="M51.8 26.6 L47.45 25.1 Q49.9 24.35 51.8 23.4 52.0 25.0 51.8 26.6" fill="#2e718c" fill-rule="evenodd" stroke="none"/>
    <path d="M61.4 26.15 L52.6 25.25 52.6 24.15 61.0 23.2 74.15 24.7 61.4 26.15" fill="#badce9" fill-rule="evenodd" stroke="none"/>
    <path d="M63.3 26.4 L56.5 27.1 52.0 26.85 52.0 22.8 56.5 22.45 63.3 23.1 Q66.25 23.8 66.25 24.75 66.25 25.75 63.3 26.4" fill="#000000" fill-rule="evenodd" stroke="none"/>
    <path d="M56.3 26.45 L51.95 26.3 51.95 23.3 56.3 23.1 62.9 23.55 Q65.7 24.05 65.7 24.75 65.7 25.5 62.9 25.95 L56.3 26.45" fill="url(#gradient2)" fill-rule="evenodd" stroke="none"/>
    <path d="M57.75 25.25 L51.95 24.7 55.95 24.3 60.45 24.15 Q62.75 24.25 63.0 24.6 63.25 24.9 61.7 25.1 L57.75 25.25" fill="url(#gradient3)" fill-rule="evenodd" stroke="none"/>
    <path d="M35.45 32.0 L40.9 32.0 25.3 45.0 35.45 32.0 M35.05 16.9 L25.3 4.6 40.15 16.9 35.05 16.9" fill="#5594ad" fill-rule="evenodd" stroke="none"/>
    <path d="M23.15 22.9 Q24.15 25.0 23.15 26.7 15.9 25.2 3.75 24.85 17.1 24.6 23.15 22.9" fill="#5490a8" fill-rule="evenodd" stroke="none"/>
    <path d="M4.55 24.9 L4.55 26.1 Q13.2 25.6 22.25 26.1 14.0 24.45 4.55 24.9" fill="#33677b" fill-rule="evenodd" stroke="none"/>
    <path d="M4.55 24.65 L4.55 23.45 Q13.2 23.95 22.25 23.45 14.0 25.1 4.55 24.65" fill="#33677b" fill-rule="evenodd" stroke="none"/>
    <path d="M37.75 16.7 L28.05 7.05 39.5 16.8 37.75 16.7" fill="#d0f1ff" fill-rule="evenodd" stroke="none"/>
    <path d="M39.8 32.5 L38.05 32.6 28.35 42.25 39.8 32.5" fill="#d0f1ff" fill-rule="evenodd" stroke="none"/>
    <path d="M29.5 21.6 Q41.05 21.05 50.4 21.6 51.4 22.15 50.4 22.6 36.45 23.6 22.15 21.95 L29.5 21.6" fill="#b7e2f3" fill-rule="evenodd" stroke="none"/>
    <path d="M48.45 19.75 Q53.6 21.45 53.2 22.5 51.05 21.3 48.1 20.7 L24.85 19.8 Q36.35 19.35 48.2 19.7 L48.45 19.75" fill="#366d83" fill-rule="evenodd" stroke="none"/>
    <path d="M48.25 30.2 L53.2 27.4 47.8 28.8 26.75 30.0 48.0 30.25 48.25 30.2" fill="#366d83" fill-rule="evenodd" stroke="none"/>
    <path d="M29.5 27.0 Q41.05 26.45 50.4 27.0 51.4 27.55 50.4 28.0 36.45 29.0 22.15 27.35 L29.5 27.0" fill="#b7e2f3" fill-rule="evenodd" stroke="none"/>
    <path d="M4.55 24.95 L4.55 30.35 2.15 29.95 2.15 25.3 4.55 24.95 M2.15 24.2 L2.15 19.55 4.55 19.2 4.55 24.6 2.15 24.2" fill="#31150b" fill-rule="evenodd" stroke="none"/>
    <path d="M4.65 28.6 L4.65 27.6 19.1 28.15 4.65 28.6" fill="#9acee2" fill-rule="evenodd" stroke="none"/>
    <path d="M22.1 12.5 Q20.85 12.5 19.95 11.65 19.1 10.75 19.1 9.5 19.1 8.25 19.95 7.35 20.85 6.5 22.1 6.5 23.35 6.5 24.25 7.35 25.1 8.25 25.1 9.5 25.1 10.75 24.25 11.65 23.35 12.5 22.1 12.5" fill="#9acee2" fill-rule="evenodd" stroke="none"/>
    <path d="M22.1 12.5 Q20.85 12.5 19.95 11.65 19.1 10.75 19.1 9.5 19.1 8.25 19.95 7.35 20.85 6.5 22.1 6.5 23.35 6.5 24.25 7.35 25.1 8.25 25.1 9.5 25.1 10.75 24.25 11.65 23.35 12.5 22.1 12.5 Z" fill="none" stroke="#009999" stroke-linecap="butt" stroke-linejoin="round" stroke-width="1.0"/>
    <path d="M22.65 0.5 L22.65 1.0 14.45 0.9 14.35 0.4 22.65 0.5" fill="#d9f4ff" fill-rule="evenodd" stroke="none"/>
    <path d="M22.75 48.5 L22.75 49.0 14.55 48.9 14.55 48.4 22.75 48.5" fill="#d9f4ff" fill-rule="evenodd" stroke="none"/>
    <path d="M15.0 3.3 L16.05 3.55 19.1 16.15 17.85 16.15 15.0 3.3" fill="#9fbdb0" fill-rule="evenodd" stroke="none"/>
    <path d="M16.4 44.6 L19.4 31.5 18.3 31.5 15.3 44.5 16.4 44.6" fill="#9fbdb0" fill-rule="evenodd" stroke="none"/>
    <path d="M22.1 41.5 Q20.85 41.5 19.95 40.65 19.1 39.75 19.1 38.5 19.1 37.25 19.95 36.35 20.85 35.5 22.1 35.5 23.35 35.5 24.25 36.35 25.1 37.25 25.1 38.5 25.1 39.75 24.25 40.65 23.35 41.5 22.1 41.5" fill="#9acee2" fill-rule="evenodd" stroke="none"/>
    <path d="M22.1 41.5 Q20.85 41.5 19.95 40.65 19.1 39.75 19.1 38.5 19.1 37.25 19.95 36.35 20.85 35.5 22.1 35.5 23.35 35.5 24.25 36.35 25.1 37.25 25.1 38.5 25.1 39.75 24.25 40.65 23.35 41.5 22.1 41.5 Z" fill="none" stroke="#009999" stroke-linecap="butt" stroke-linejoin="round" stroke-width="1.0"/>
  </g>
  <defs>
    <linearGradient gradientTransform="matrix(0.0094, 0.0171, -0.0121, 0.0067, 27.05, 12.0)" gradientUnits="userSpaceOnUse" id="gradient0" spreadMethod="pad" x1="-819.2" x2="819.2">
      <stop offset="0.1843137254901961" stop-color="#78b0c6"/>
      <stop offset="1.0" stop-color="#497e93"/>
    </linearGradient>
    <linearGradient gradientTransform="matrix(0.0121, -0.0169, 0.0104, 0.0074, 26.2, 36.6)" gradientUnits="userSpaceOnUse" id="gradient1" spreadMethod="pad" x1="-819.2" x2="819.2">
      <stop offset="0.1843137254901961" stop-color="#78b0c6"/>
      <stop offset="1.0" stop-color="#497e93"/>
    </linearGradient>
    <linearGradient gradientTransform="matrix(0.0084, 0.0, 0.0, 0.0021, 58.8, 24.75)" gradientUnits="userSpaceOnUse" id="gradient2" spreadMethod="pad" x1="-819.2" x2="819.2">
      <stop offset="0.1843137254901961" stop-color="#000941"/>
      <stop offset="1.0" stop-color="#2034b1"/>
    </linearGradient>
    <linearGradient gradientTransform="matrix(0.0062, 2.0E-4, -2.0E-4, 0.008, 57.5, 24.65)" gradientUnits="userSpaceOnUse" id="gradient3" spreadMethod="pad" x1="-819.2" x2="819.2">
      <stop offset="0.0196078431372549" stop-color="#ffffff" stop-opacity="0.0"/>
      <stop offset="0.7019607843137254" stop-color="#ffffff" stop-opacity="0.7294118"/>
      <stop offset="1.0" stop-color="#ffffff" stop-opacity="0.21176471"/>
    </linearGradient>
  </defs>
</svg>
