<?xml version="1.0" encoding="UTF-8" standalone="no"?>
<svg xmlns:ffdec="https://www.free-decompiler.com/flash" xmlns:xlink="http://www.w3.org/1999/xlink" ffdec:objectType="shape" height="35.85px" width="40.0px" xmlns="http://www.w3.org/2000/svg">
  <g transform="matrix(1.0, 0.0, 0.0, 1.0, 0.0, 0.0)">
    <path d="M39.8 11.75 L40.0 12.95 39.45 17.85 40.0 22.65 39.8 23.85 39.25 24.35 Q38.9 24.35 38.65 23.85 L38.45 22.65 39.05 17.85 38.45 12.95 38.65 11.75 Q38.9 11.25 39.25 11.25 L39.8 11.75 M28.85 0.0 Q29.9 0.0 30.05 0.95 L30.2 2.45 30.15 2.45 31.15 14.25 32.5 14.3 33.5 14.35 34.25 14.4 35.15 14.45 35.15 14.1 35.85 14.1 36.25 14.15 Q38.4 14.4 38.4 15.85 L38.4 19.95 Q38.4 21.55 36.25 21.8 L35.85 21.8 35.15 21.8 35.15 21.5 34.1 21.55 33.75 21.6 31.15 21.7 30.15 33.45 30.2 33.45 30.05 34.9 Q29.9 35.85 28.85 35.85 L25.25 35.85 Q24.1 35.85 24.1 34.9 L23.85 32.25 23.8 31.35 23.75 31.1 22.9 21.6 12.75 20.65 10.65 20.45 10.45 22.65 Q10.3 23.5 9.65 24.2 9.05 24.8 8.35 24.8 L8.0 24.8 8.2 24.75 8.05 24.75 Q7.2 24.75 6.65 24.15 6.1 23.5 6.1 22.6 L6.1 19.3 5.2 18.8 4.55 18.8 1.35 18.55 Q0.0 18.3 0.0 17.9 0.0 17.6 1.35 17.35 L4.55 17.0 4.9 17.0 6.1 16.45 6.1 13.2 Q6.1 12.3 6.65 11.65 7.2 11.05 7.95 11.05 L8.4 11.1 Q9.1 11.15 9.65 11.75 10.4 12.35 10.5 13.25 L10.8 15.35 14.15 15.05 22.9 14.3 24.1 0.95 Q24.1 0.0 25.25 0.0 L28.85 0.0" fill="#000000" fill-opacity="0.23137255" fill-rule="evenodd" stroke="none"/>
  </g>
</svg>
