<?xml version="1.0" encoding="UTF-8" standalone="no"?>
<svg xmlns:ffdec="https://www.free-decompiler.com/flash" xmlns:xlink="http://www.w3.org/1999/xlink" ffdec:objectType="shape" height="35.35px" width="40.0px" xmlns="http://www.w3.org/2000/svg">
  <g transform="matrix(1.0, 0.0, 0.0, 1.0, 20.0, 18.0)">
    <path d="M10.9 1.5 L9.65 16.35 Q9.55 17.3 8.5 17.3 L4.9 17.3 Q3.75 17.3 3.75 16.35 L2.45 1.5 10.9 1.5 M4.9 -18.0 L8.5 -18.0 Q9.55 -18.0 9.65 -17.1 L10.9 -2.25 2.45 -2.25 3.75 -17.1 Q3.75 -18.0 4.9 -18.0" fill="#817f88" fill-rule="evenodd" stroke="none"/>
    <path d="M9.05 14.95 L9.8 14.95 9.65 16.35 Q9.55 17.3 8.5 17.3 L4.9 17.3 Q3.75 17.3 3.75 16.35 L3.4 11.95 Q5.8 14.95 9.05 14.95 M9.65 -17.1 L9.8 -15.65 9.05 -15.7 Q5.85 -15.7 3.4 -12.75 L3.75 -17.1 Q3.75 -18.0 4.9 -18.0 L8.5 -18.0 Q9.55 -18.0 9.65 -17.1" fill="#cfae00" fill-rule="evenodd" stroke="none"/>
    <path d="M-14.0 0.15 L-9.6 0.25 -10.0 4.3 Q-10.15 5.15 -10.8 5.75 -11.35 6.35 -12.1 6.35 -12.9 6.35 -13.45 5.75 -14.0 5.15 -14.0 4.25 L-14.0 0.15 M-10.8 -6.5 Q-10.1 -5.85 -9.95 -5.0 L-9.5 -1.45 -14.0 -1.45 -14.0 -5.0 Q-14.0 -5.85 -13.5 -6.5 -12.9 -7.1 -12.15 -7.1 -11.35 -7.1 -10.8 -6.5" fill="#817f88" fill-rule="evenodd" stroke="none"/>
    <path d="M-9.25 0.2 L-9.7 4.25 Q-9.8 5.1 -10.4 5.75 -11.05 6.35 -11.7 6.35 L-12.05 6.35 -11.1 5.75 Q-10.5 5.1 -10.35 4.25 L-9.95 0.2 -10.65 0.2 -9.25 0.2 M-9.15 -1.5 L-9.8 -1.5 -10.3 -5.0 Q-10.4 -5.9 -11.1 -6.5 -11.6 -7.0 -12.1 -7.05 L-11.8 -7.15 Q-11.05 -7.15 -10.4 -6.5 -9.75 -5.9 -9.6 -5.0 L-9.15 -1.5" fill="#1e3e4d" fill-rule="evenodd" stroke="none"/>
    <path d="M13.65 -3.85 Q16.65 -3.95 16.65 -2.25 L16.65 1.5 Q16.65 3.25 13.65 3.2 L-7.35 2.3 -10.65 1.95 Q-13.7 1.55 -16.2 -0.4 -14.2 -2.7 -6.0 -3.2 L13.65 -3.85" fill="#817f88" fill-rule="evenodd" stroke="none"/>
    <path d="M13.65 -3.85 Q16.65 -3.95 16.65 -2.25 L16.65 -1.85 Q16.65 -3.15 13.65 -3.05 4.1 -3.55 -6.0 -2.6 -14.2 -2.2 -16.2 -0.4 -14.2 -2.7 -6.0 -3.2 L13.65 -3.85 M13.65 2.35 Q16.65 2.45 16.65 1.15 L16.65 1.5 Q16.65 3.25 13.65 3.2 L-7.35 2.3 -10.65 1.95 Q-13.7 1.55 -16.2 -0.4 -13.7 1.15 -10.65 1.4 L-7.35 1.7 13.65 2.35" fill="#445466" fill-rule="evenodd" stroke="none"/>
    <path d="M-9.95 -0.35 Q-9.95 -0.7 -7.4 -0.95 L2.4 -2.25 1.3 1.15 -7.4 0.25 Q-9.95 -0.05 -9.95 -0.35" fill="#bab8c6" fill-rule="evenodd" stroke="none"/>
    <path d="M10.6 1.55 L10.6 1.5 11.15 1.5 9.95 16.35 Q9.8 17.2 9.05 17.3 L8.6 17.35 8.2 17.35 8.45 17.3 8.35 17.3 8.5 17.3 Q9.1 17.1 9.2 16.4 L10.4 1.55 10.6 1.55" fill="#223751" fill-rule="evenodd" stroke="none"/>
    <path d="M10.95 -2.25 L10.95 -2.2 10.4 -2.2 9.2 -17.05 Q9.1 -17.95 8.2 -17.95 L8.6 -17.95 8.65 -17.95 8.35 -18.0 8.8 -18.0 Q9.8 -18.0 9.95 -17.05 L11.15 -2.25 10.95 -2.25" fill="#1e3e4d" fill-rule="evenodd" stroke="none"/>
    <path d="M16.25 1.45 Q16.25 2.6 15.85 3.2 L12.2 3.15 Q5.1 3.0 -4.0 -0.45 4.75 -3.7 12.2 -3.9 L16.05 -3.85 16.25 -2.3 16.25 1.45" fill="#ee6611" fill-rule="evenodd" stroke="none"/>
    <path d="M16.25 1.0 Q16.25 2.25 12.2 2.25 6.1 2.1 -1.5 0.25 -4.1 -0.4 -1.5 -1.05 5.8 -2.8 12.2 -2.95 16.25 -2.95 16.25 -1.75 L16.25 1.0" fill="#ff904a" fill-rule="evenodd" stroke="none"/>
    <path d="M11.4 -1.5 Q12.3 -0.95 12.3 -0.3 12.3 0.25 11.4 0.9 L7.4 1.25 4.0 0.7 Q2.8 0.2 2.8 -0.3 2.8 -0.85 4.0 -1.25 L7.4 -1.85 11.4 -1.5" fill="#000000" fill-rule="evenodd" stroke="none"/>
    <path d="M10.5 -1.3 Q11.15 -0.9 11.15 -0.4 L10.5 0.55 7.5 0.8 4.95 0.35 Q4.05 0.0 4.05 -0.4 4.05 -0.8 4.95 -1.1 L7.5 -1.55 10.5 -1.3" fill="#989595" fill-rule="evenodd" stroke="none"/>
    <path d="M10.2 -1.0 L10.65 -0.75 Q10.65 -0.65 10.2 -0.5 L8.3 -0.45 6.65 -0.55 6.1 -0.75 6.65 -0.95 8.3 -1.05 10.2 -1.0" fill="#f5f5f5" fill-rule="evenodd" stroke="none"/>
    <path d="M-16.75 -1.0 L-13.0 -1.35 Q-11.05 -1.55 -11.0 -0.3 -11.05 0.35 -12.25 0.5 L-15.45 0.4 -18.7 0.1 Q-20.0 -0.05 -20.0 -0.35 -20.0 -0.7 -19.2 -0.8 L-16.75 -1.0" fill="#cfae00" fill-rule="evenodd" stroke="none"/>
    <path d="M17.3 0.45 L17.3 -1.25 Q19.2 -1.45 20.0 -0.35 19.2 0.6 17.3 0.45" fill="#b43917" fill-rule="evenodd" stroke="none"/>
    <path d="M17.9 -5.25 L18.1 -6.45 Q18.35 -6.95 18.7 -6.95 L19.2 -6.45 19.45 -5.25 18.85 -0.45 19.45 4.3 19.2 5.5 18.7 6.0 Q18.35 6.0 18.1 5.5 L17.9 4.3 18.5 -0.45 17.9 -5.25" fill="#ffcc66" fill-opacity="0.5019608" fill-rule="evenodd" stroke="none"/>
    <path d="M19.2 4.1 Q19.05 5.95 18.75 5.95 18.5 5.95 18.3 4.1 L18.1 -0.4 18.3 -4.9 Q18.5 -6.75 18.75 -6.75 19.05 -6.75 19.2 -4.9 L19.4 -0.4 19.2 4.1" fill="#ffffff" fill-opacity="0.4509804" fill-rule="evenodd" stroke="none"/>
    <path d="M15.75 -4.1 Q17.85 -3.85 17.85 -2.4 L17.85 1.65 Q17.85 3.2 15.75 3.45 L15.75 -4.1" fill="#ff7e00" fill-rule="evenodd" stroke="none"/>
    <path d="M15.75 -4.1 L15.75 3.45 15.3 3.45 14.65 3.45 14.65 -4.15 15.3 -4.15 15.75 -4.1" fill="#db5400" fill-rule="evenodd" stroke="none"/>
  </g>
</svg>
