<?xml version="1.0" encoding="UTF-8" standalone="no"?>
<svg xmlns:ffdec="https://www.free-decompiler.com/flash" xmlns:xlink="http://www.w3.org/1999/xlink" ffdec:objectType="shape" height="41.65px" width="17.95px" xmlns="http://www.w3.org/2000/svg">
  <g transform="matrix(1.0, 0.0, 0.0, 1.0, 0.0, -35.65)">
    <path d="M13.7 35.7 L13.65 35.9 13.9 36.4 Q13.35 36.8 13.35 37.25 13.35 37.65 15.1 39.8 L14.95 39.75 Q13.85 39.75 13.85 40.8 L14.15 41.45 13.4 41.75 12.9 41.5 Q12.6 41.5 12.25 41.75 11.8 42.05 11.8 42.5 L13.2 44.6 Q12.65 44.75 12.65 45.55 L12.75 45.75 Q12.0 45.9 12.0 46.9 12.0 47.15 13.3 48.6 L12.65 48.15 12.35 48.2 11.0 47.05 Q10.1 47.05 10.1 48.0 L10.7 48.95 Q10.15 49.0 10.0 49.55 L9.15 49.0 Q8.35 49.0 8.35 49.8 L10.0 51.9 Q8.15 50.05 7.65 50.05 6.75 50.05 6.75 50.9 L7.9 52.3 7.7 52.6 7.2 52.4 6.65 52.6 Q6.3 52.8 6.3 53.15 6.3 53.55 7.3 54.7 7.0 54.75 6.75 55.05 6.45 55.4 6.45 55.75 L6.5 55.9 6.25 55.8 Q5.8 55.8 5.45 56.1 5.1 56.4 5.1 56.85 5.1 57.3 6.05 58.5 L5.85 58.5 Q5.55 58.5 5.2 58.75 4.75 59.0 4.75 59.35 4.75 59.95 5.95 60.85 L5.65 61.0 Q5.3 61.2 5.3 61.55 L5.55 62.15 5.8 62.45 6.7 63.65 Q6.4 63.85 6.4 64.25 6.4 64.65 9.5 68.25 L9.85 68.65 9.2 68.35 8.8 67.75 8.95 68.3 8.9 68.3 Q8.7 67.85 8.15 67.85 L7.6 68.05 Q7.2 68.3 7.2 68.65 7.2 69.1 7.5 69.6 7.35 69.8 7.35 70.05 L8.85 72.2 Q8.45 72.25 8.15 72.55 7.85 72.85 7.85 73.2 L7.4 73.1 Q6.55 73.1 6.55 74.05 L6.6 74.5 Q6.35 74.75 6.35 75.15 L6.4 75.35 6.05 75.5 Q5.5 74.7 5.1 74.7 4.75 74.7 4.5 75.0 L4.35 75.25 Q4.05 74.45 3.5 74.45 2.7 74.45 2.7 74.9 L2.65 75.35 2.4 75.15 2.6 73.95 Q2.6 73.15 1.75 73.15 1.4 73.15 1.2 73.4 1.15 72.15 0.2 72.15 L0.0 72.2 0.05 72.0 Q0.1 71.3 0.3 70.8 1.05 68.85 3.75 69.45 4.2 69.55 4.05 70.1 3.55 71.7 3.5 73.25 7.5 73.65 6.7 69.1 6.25 66.85 4.95 64.85 -1.85 54.5 8.15 46.35 12.2 43.05 12.25 37.6 12.25 36.05 13.65 35.65 L13.7 35.7 M4.6 76.6 L4.6 76.5 4.7 76.6 4.6 76.6 M6.15 75.65 L6.1 75.55 6.4 75.45 6.95 76.8 7.25 77.2 6.85 77.3 6.65 76.8 6.15 75.65 M8.7 75.55 L8.45 74.7 8.45 74.6 8.9 75.3 8.85 75.75 8.7 75.55 M17.9 45.75 L17.35 45.05 17.95 45.65 17.9 45.75" fill="#8e5120" fill-rule="evenodd" stroke="none"/>
  </g>
</svg>
