<?xml version="1.0" encoding="UTF-8" standalone="no"?>
<svg xmlns:ffdec="https://www.free-decompiler.com/flash" xmlns:xlink="http://www.w3.org/1999/xlink" ffdec:objectType="shape" height="31.1px" width="30.0px" xmlns="http://www.w3.org/2000/svg">
  <g transform="matrix(1.0, 0.0, 0.0, 1.0, 0.0, 0.0)">
    <path d="M12.1 14.1 L12.1 14.05 9.9 14.3 12.1 16.45 12.1 14.1 M15.05 13.7 L12.75 13.95 12.75 14.1 12.75 16.35 15.05 13.7 M15.45 17.3 L15.4 17.1 15.4 13.9 12.8 16.95 15.45 17.3 M16.85 13.45 L16.05 13.55 16.05 13.75 16.05 17.1 16.05 17.35 16.85 17.45 16.85 13.45 M9.0 14.7 L7.0 16.25 9.0 16.5 9.0 14.7 M6.9 15.85 L8.65 14.45 6.9 14.65 6.9 15.85 M9.65 16.5 L9.65 16.6 11.95 16.85 9.65 14.55 9.65 16.5 M21.7 0.0 L21.9 0.0 Q23.4 0.0 24.4 1.15 25.5 2.35 25.5 4.1 L25.5 7.15 25.85 7.15 26.3 7.35 26.5 7.8 26.5 7.9 26.3 8.35 Q26.15 8.55 25.85 8.55 L25.5 8.55 25.5 11.45 27.4 11.45 27.4 14.75 28.4 14.75 27.95 11.4 28.15 10.3 28.65 9.9 Q28.95 9.9 29.15 10.3 L29.35 11.4 28.95 14.75 29.15 14.75 29.75 15.0 30.0 15.6 29.75 16.2 29.15 16.45 28.95 16.45 29.35 19.95 29.15 21.05 28.65 21.45 28.15 21.05 27.95 19.95 28.4 16.45 27.4 16.45 27.4 19.75 25.5 19.75 25.5 23.2 25.85 23.2 26.3 23.4 26.5 23.9 26.5 23.95 26.3 24.45 25.85 24.6 25.5 24.6 25.5 27.05 Q25.5 28.75 24.4 29.95 23.4 31.1 21.9 31.1 L21.7 31.1 21.6 31.1 Q20.3 31.0 19.35 29.95 18.35 28.75 18.35 27.0 L18.35 19.75 16.85 19.75 16.85 18.05 6.4 16.8 6.4 20.65 Q6.4 21.45 5.75 22.0 5.15 22.5 4.3 22.5 3.4 22.5 2.75 22.0 2.2 21.45 2.2 20.65 L2.9 16.25 1.25 16.25 0.4 16.0 0.0 15.4 Q0.0 15.05 0.4 14.8 L1.25 14.55 2.95 14.55 2.2 10.6 Q2.2 9.9 2.75 9.3 3.4 8.8 4.3 8.8 5.15 8.8 5.75 9.3 6.4 9.9 6.4 10.6 L6.4 14.15 6.55 14.05 6.7 14.1 16.85 12.85 16.85 11.45 18.35 11.45 18.35 4.1 Q18.35 2.35 19.35 1.15 20.3 0.1 21.6 0.0 L21.7 0.0" fill="#000000" fill-opacity="0.3019608" fill-rule="evenodd" stroke="none"/>
  </g>
</svg>
