<?xml version="1.0" encoding="UTF-8" standalone="no"?>
<svg xmlns:ffdec="https://www.free-decompiler.com/flash" xmlns:xlink="http://www.w3.org/1999/xlink" ffdec:objectType="shape" height="31.1px" width="30.0px" xmlns="http://www.w3.org/2000/svg">
  <g transform="matrix(1.0, 0.0, 0.0, 1.0, 15.0, 16.0)">
    <path d="M10.85 7.2 L11.3 7.4 11.5 7.9 11.5 7.95 11.3 8.45 10.85 8.6 7.85 8.6 7.4 8.45 7.2 7.95 7.2 7.9 7.4 7.4 Q7.55 7.2 7.85 7.2 L10.85 7.2 M10.85 -8.85 L11.3 -8.65 11.5 -8.2 11.5 -8.1 11.3 -7.65 Q11.15 -7.45 10.85 -7.45 L7.85 -7.45 Q7.55 -7.45 7.4 -7.65 L7.2 -8.1 7.2 -8.2 7.4 -8.65 Q7.55 -8.85 7.85 -8.85 L10.85 -8.85" fill="#8e5a0a" fill-rule="evenodd" stroke="none"/>
    <path d="M4.0 -3.4 L4.2 -3.35 4.35 -3.15 4.3 -2.9 Q4.15 -2.8 4.05 -2.8 L-9.75 -1.15 -9.75 -1.65 -9.65 -1.75 4.0 -3.4" fill="#4d0202" fill-rule="evenodd" stroke="none"/>
    <path d="M4.0 2.3 L4.2 2.25 4.35 2.05 4.3 1.8 4.05 1.7 -9.7 0.05 -9.75 0.65 4.0 2.3" fill="#4d0202" fill-rule="evenodd" stroke="none"/>
    <path d="M-8.45 -1.95 L-8.2 -1.85 -8.1 -1.65 -8.1 0.3 -8.2 0.55 -8.45 0.6 -8.65 0.55 -8.75 0.3 -8.75 -1.65 -8.65 -1.85 -8.45 -1.95" fill="#4d0202" fill-rule="evenodd" stroke="none"/>
    <path d="M-5.7 -1.95 L-5.45 -1.85 -5.35 -1.65 -5.35 0.5 -5.45 0.75 -5.7 0.8 -5.9 0.75 -6.0 0.5 -6.0 -1.65 -5.9 -1.85 -5.7 -1.95" fill="#4d0202" fill-rule="evenodd" stroke="none"/>
    <path d="M-2.6 -2.3 L-2.35 -2.15 -2.25 -1.9 -2.25 0.75 -2.35 1.05 -2.6 1.15 -2.8 1.05 -2.9 0.75 -2.9 -1.9 -2.8 -2.15 -2.6 -2.3" fill="#4d0202" fill-rule="evenodd" stroke="none"/>
    <path d="M0.7 -2.75 L0.95 -2.55 1.05 -2.25 1.05 1.1 0.95 1.5 0.7 1.6 0.5 1.5 0.4 1.1 0.4 -2.25 0.5 -2.55 0.7 -2.75" fill="#4d0202" fill-rule="evenodd" stroke="none"/>
    <path d="M0.65 -2.95 L0.8 -2.9 0.85 -2.75 0.8 -2.6 -2.35 1.1 -2.5 1.15 -2.65 1.1 -2.75 1.0 -2.7 0.85 0.5 -2.85 Q0.5 -2.95 0.65 -2.95" fill="#4d0202" fill-rule="evenodd" stroke="none"/>
    <path d="M-5.8 -1.95 L-5.7 -2.05 -5.6 -2.15 -5.45 -2.05 -2.6 0.75 -2.55 0.85 -2.6 1.0 -2.75 1.05 -2.9 1.0 -5.7 -1.8 -5.8 -1.95" fill="#4d0202" fill-rule="evenodd" stroke="none"/>
    <path d="M-5.6 -1.9 L-5.55 -1.75 -5.6 -1.6 -8.2 0.4 -8.35 0.45 -8.5 0.4 -8.5 0.25 -8.45 0.1 -5.85 -1.95 -5.7 -1.95 -5.6 -1.9" fill="#4d0202" fill-rule="evenodd" stroke="none"/>
    <path d="M-8.95 -6.7 Q-8.3 -6.1 -8.3 -5.4 L-8.3 4.65 Q-8.3 5.45 -8.95 6.0 -9.55 6.5 -10.4 6.5 -11.3 6.5 -11.95 6.0 -12.5 5.45 -12.5 4.65 L-11.65 -0.7 -12.5 -5.4 Q-12.5 -6.1 -11.95 -6.7 -11.3 -7.2 -10.4 -7.2 -9.55 -7.2 -8.95 -6.7" fill="#ffbd58" fill-rule="evenodd" stroke="none"/>
    <path d="M-9.25 -6.7 Q-8.6 -6.1 -8.6 -5.4 L-8.6 4.65 Q-8.6 5.45 -9.25 6.0 -9.85 6.5 -10.7 6.5 -11.6 6.5 -12.25 6.0 -12.8 5.45 -12.8 4.65 L-11.95 -0.7 -12.8 -5.4 Q-12.8 -6.1 -12.25 -6.7 -11.6 -7.2 -10.7 -7.2 -9.85 -7.2 -9.25 -6.7" fill="#d99937" fill-rule="evenodd" stroke="none"/>
    <path d="M-9.25 -6.7 Q-8.6 -6.1 -8.6 -5.4 L-8.6 4.65 Q-8.6 5.45 -9.25 6.0 -9.85 6.5 -10.7 6.5 -11.6 6.5 -12.25 6.0 -12.8 5.45 -12.8 4.65 L-11.95 -0.7 -12.8 -5.4 Q-12.8 -6.1 -12.25 -6.7 -11.6 -7.2 -10.7 -7.2 -9.85 -7.2 -9.25 -6.7" fill="#d99937" fill-rule="evenodd" stroke="none"/>
    <path d="M3.35 -2.45 L3.35 -11.9 Q3.35 -13.65 4.35 -14.85 5.4 -16.0 6.9 -16.0 8.4 -16.0 9.4 -14.85 10.5 -13.65 10.5 -11.9 L10.5 -2.45 3.35 -2.45 M10.5 1.55 L10.5 11.0 Q10.5 12.75 9.4 13.95 8.4 15.1 6.9 15.1 5.4 15.1 4.35 13.95 3.35 12.75 3.35 11.0 L3.35 1.55 10.5 1.55" fill="#d99937" fill-rule="evenodd" stroke="none"/>
    <path d="M6.55 -16.0 Q8.05 -16.0 9.05 -14.85 10.15 -13.65 10.15 -11.9 L10.15 -2.5 9.45 -2.5 9.45 -11.9 Q9.45 -13.65 8.35 -14.85 7.5 -15.9 6.25 -16.0 L6.55 -16.0 M10.15 1.6 L10.15 11.05 Q10.15 12.75 9.05 13.95 8.05 15.1 6.55 15.1 L6.25 15.1 Q7.5 15.0 8.35 13.95 9.45 12.75 9.45 11.05 L9.45 1.6 10.15 1.6" fill="#ffbd58" fill-rule="evenodd" stroke="none"/>
    <path d="M14.15 0.45 L11.5 0.45 10.9 0.2 Q10.65 -0.05 10.65 -0.4 L10.9 -1.0 11.5 -1.25 14.15 -1.25 14.75 -1.0 15.0 -0.4 14.75 0.2 14.15 0.45" fill="#936520" fill-rule="evenodd" stroke="none"/>
    <path d="M6.9 -16.0 Q8.4 -16.0 9.4 -14.85 10.5 -13.65 10.5 -11.9 L10.5 -2.5 9.8 -2.5 9.8 -11.9 Q9.8 -13.65 8.7 -14.85 7.85 -15.9 6.6 -16.0 L6.9 -16.0 M10.5 1.6 L10.5 11.05 Q10.5 12.75 9.4 13.95 8.4 15.1 6.9 15.1 L6.6 15.1 Q7.85 15.0 8.7 13.95 9.8 12.75 9.8 11.05 L9.8 1.6 10.5 1.6" fill="#724500" fill-rule="evenodd" stroke="none"/>
    <path d="M1.85 -4.55 L12.4 -4.55 12.4 3.75 1.85 3.75 1.85 -4.55" fill="#693514" fill-rule="evenodd" stroke="none"/>
    <path d="M10.8 -3.3 Q11.05 -0.3 10.8 2.5 7.1 2.8 3.45 2.5 3.05 -0.4 3.45 -3.3 7.25 -3.6 10.8 -3.3" fill="#a15423" fill-rule="evenodd" stroke="none"/>
    <path d="M-14.6 0.0 Q-15.0 -0.25 -15.0 -0.6 L-14.6 -1.2 -13.75 -1.45 -9.9 -1.45 -9.0 -1.2 -8.6 -0.6 Q-8.6 -0.25 -9.0 0.0 L-9.9 0.25 -13.75 0.25 -14.6 0.0" fill="#955900" fill-rule="evenodd" stroke="none"/>
    <path d="M12.95 -4.6 L13.15 -5.7 13.65 -6.1 Q13.95 -6.1 14.15 -5.7 L14.35 -4.6 13.85 -0.3 14.35 3.95 14.15 5.05 13.65 5.45 13.15 5.05 12.95 3.95 13.5 -0.3 12.95 -4.6" fill="#ffda5f" fill-opacity="0.6509804" fill-rule="evenodd" stroke="none"/>
    <path d="M13.95 3.85 L13.7 5.55 13.4 3.85 13.3 -0.15 13.4 -4.2 13.7 -5.85 13.95 -4.2 14.1 -0.15 13.95 3.85" fill="#ffffff" fill-rule="evenodd" stroke="none"/>
  </g>
</svg>
