<?xml version="1.0" encoding="UTF-8" standalone="no"?>
<svg xmlns:ffdec="https://www.free-decompiler.com/flash" xmlns:xlink="http://www.w3.org/1999/xlink" ffdec:objectType="shape" height="480.0px" width="640.0px" xmlns="http://www.w3.org/2000/svg">
  <g transform="matrix(1.0, 0.0, 0.0, 1.0, 0.0, 0.0)">
    <path d="M640.0 480.0 L0.0 480.0 0.0 0.0 640.0 0.0 640.0 480.0" fill="url(#gradient0)" fill-rule="evenodd" stroke="none"/>
    <path d="M417.75 183.85 L417.75 184.25 417.9 184.4 417.9 184.45 428.35 195.9 429.05 197.0 429.25 198.3 428.9 228.85 417.45 240.35 417.35 240.35 417.35 240.45 224.55 240.45 224.45 240.55 224.4 240.55 212.9 229.05 212.55 198.5 212.8 197.2 213.45 196.1 224.5 183.95 224.6 184.15 224.6 183.85 417.25 183.85 417.3 183.75 417.4 183.85 417.75 183.85" fill="#000000" fill-opacity="0.2" fill-rule="evenodd" stroke="none"/>
    <path d="M426.55 193.4 Q425.65 193.95 425.9 194.35 L425.9 224.6 Q422.85 228.55 419.2 232.0 L417.85 233.35 226.25 233.75 215.3 224.5 215.3 195.4 226.8 182.6 418.5 183.0 Q422.05 188.2 426.55 193.4" fill="#bba14b" fill-rule="evenodd" stroke="none"/>
    <path d="M357.15 191.65 Q373.95 194.85 373.6 200.2 372.0 210.55 355.3 210.0 338.55 209.45 318.05 210.0 297.55 210.55 281.35 209.55 266.6 208.65 266.9 201.8 267.0 199.75 267.6 197.15 268.2 194.55 277.75 192.55 287.3 190.5 304.4 190.35 321.45 190.15 357.1 191.65 L357.15 191.65" fill="#d3bc70" fill-rule="evenodd" stroke="none"/>
    <path d="M357.15 191.65 L357.1 191.65 Q321.45 190.15 304.4 190.35 287.3 190.5 277.75 192.55 268.2 194.55 267.6 197.15 267.0 199.75 266.9 201.8 266.6 208.65 281.35 209.55 297.55 210.55 318.05 210.0 338.55 209.45 355.3 210.0 372.0 210.55 373.6 200.2 373.95 194.85 357.15 191.65 M388.0 196.95 L388.7 198.75 389.15 199.75 389.05 200.85 Q389.05 202.1 389.8 204.05 389.45 207.4 387.8 210.05 382.65 212.8 371.25 215.0 350.2 219.0 328.7 220.0 L323.9 219.05 317.8 219.05 317.1 218.9 311.7 218.9 302.05 219.9 301.45 219.95 Q285.3 219.05 271.9 215.75 251.7 210.8 252.0 201.65 252.45 200.5 253.35 199.5 254.1 199.0 255.4 198.35 258.2 197.0 258.55 196.5 259.25 195.55 262.55 193.9 268.1 191.8 276.5 190.2 294.6 186.7 320.1 186.7 345.7 186.7 367.4 189.65 382.6 191.7 388.0 196.95" fill="#d3bc70" fill-opacity="0.32156864" fill-rule="evenodd" stroke="none"/>
    <path d="M417.3 229.45 L224.4 229.45 224.4 235.25 417.3 235.25 417.3 229.45" fill="#6e727b" fill-rule="evenodd" stroke="none"/>
    <path d="M417.3 229.65 L224.4 229.65 224.4 231.0 417.3 231.0 417.3 229.65" fill="#9498a1" fill-rule="evenodd" stroke="none"/>
    <path d="M417.45 230.15 L224.55 230.15 224.55 230.45 417.45 230.45 417.45 230.15" fill="#e7e7e7" fill-rule="evenodd" stroke="none"/>
    <path d="M417.3 233.35 L224.4 233.35 224.4 235.0 417.3 235.0 417.3 233.35" fill="#494c54" fill-rule="evenodd" stroke="none"/>
    <path d="M417.5 178.65 L224.35 178.65 224.35 184.15 417.5 184.15 417.5 178.65" fill="#6e727b" fill-rule="evenodd" stroke="none"/>
    <path d="M417.5 178.95 L224.35 178.95 224.35 180.25 417.5 180.25 417.5 178.95" fill="#9498a1" fill-rule="evenodd" stroke="none"/>
    <path d="M417.5 179.2 L224.35 179.2 224.35 179.5 417.5 179.5 417.5 179.2" fill="#e7e7e7" fill-rule="evenodd" stroke="none"/>
    <path d="M345.75 188.75 L337.6 188.2 327.15 188.15 318.3 187.5 311.4 186.8 303.55 186.75 302.8 186.6 285.15 186.55 273.3 185.85 264.8 185.4 258.75 185.35 254.2 185.0 246.6 185.0 244.0 185.2 241.45 185.35 236.0 185.4 Q228.8 185.25 225.1 188.15 L220.45 193.7 Q219.7 194.55 216.7 199.1 L216.7 194.6 228.2 181.8 419.9 182.2 Q423.1 186.85 427.05 191.55 L424.05 191.15 416.0 187.2 364.6 187.2 345.75 188.75" fill="#af8d39" fill-rule="evenodd" stroke="none"/>
    <path d="M417.5 182.15 L224.35 182.15 224.35 183.7 417.5 183.7 417.5 182.15" fill="#494c54" fill-rule="evenodd" stroke="none"/>
    <path d="M422.95 229.4 L428.75 223.65 428.9 223.4 428.95 223.1 429.1 191.8 429.0 191.75 428.75 191.45 426.3 188.45 419.25 180.6 417.55 178.9 417.75 178.55 428.8 190.7 429.45 191.8 429.7 193.1 429.35 223.65 417.9 235.15 417.8 235.15 417.7 234.95 422.95 229.4 M417.1 179.95 L421.5 184.9 427.85 191.95 427.65 222.7 427.15 223.25 417.0 233.3 416.3 231.8 425.9 221.8 425.45 222.15 425.65 221.95 426.1 221.55 426.25 221.45 426.4 221.3 426.6 220.7 426.2 192.45 426.3 192.4 426.35 192.35 416.55 182.15 415.95 182.15 417.1 179.95 M426.3 192.5 L426.4 192.55 426.4 192.45 426.3 192.5 M424.9 192.9 L424.9 192.95 424.9 193.1 424.55 193.3 424.45 193.2 424.55 193.4 424.45 193.35 424.6 193.6 424.05 192.9 415.65 183.8 415.85 183.8 415.85 183.75 416.1 183.65 424.85 192.85 424.9 192.8 424.9 192.9" fill="#6e727b" fill-rule="evenodd" stroke="none"/>
    <path d="M426.3 192.5 L426.4 192.45 426.4 192.55 426.3 192.5" fill="#60646b" fill-rule="evenodd" stroke="none"/>
    <path d="M426.2 192.45 L426.6 220.7 426.4 221.3 426.25 221.45 426.4 221.15 425.25 220.55 425.45 220.3 425.2 220.55 425.15 220.45 424.9 193.1 424.9 192.95 425.0 193.05 426.2 192.45" fill="#57595d" fill-rule="evenodd" stroke="none"/>
    <path d="M428.75 191.45 L429.0 191.75 429.1 191.8 428.95 223.1 428.9 223.4 428.75 223.65 422.95 229.4 428.9 223.25 Q428.8 223.25 428.65 219.5 L428.25 208.75 428.3 213.85 428.1 219.5 427.9 222.5 427.65 222.7 427.85 191.95 421.5 184.9 417.1 179.95 Q416.8 179.6 417.15 179.85 L417.45 179.2 420.5 182.55 428.55 191.6 428.75 191.45 M426.25 221.45 L426.1 221.55 425.65 221.95 425.45 222.15 425.9 221.8 416.3 231.8 415.9 230.85 Q421.05 225.8 425.25 220.55 L426.4 221.15 426.25 221.45 M417.0 233.3 L427.15 223.25 417.05 233.5 417.0 233.3 M424.9 192.95 L424.9 192.9 425.0 193.05 424.9 192.95 M424.55 193.4 L424.45 193.2 424.55 193.3 424.9 193.1 425.15 220.45 425.2 220.55 416.6 229.05 415.55 230.1 415.25 229.4 424.6 219.85 424.6 193.6 424.55 193.4" fill="#9498a1" fill-rule="evenodd" stroke="none"/>
    <path d="M428.75 191.45 L428.55 191.6 420.5 182.55 417.45 179.2 417.55 178.9 419.25 180.6 426.3 188.45 428.75 191.45 M415.9 230.85 L415.55 230.1 416.6 229.05 425.2 220.55 425.45 220.3 425.25 220.55 Q421.05 225.8 415.9 230.85" fill="#e7e7e7" fill-rule="evenodd" stroke="none"/>
    <path d="M427.65 222.7 L427.9 222.5 428.1 219.5 428.3 213.85 428.25 208.75 428.65 219.5 Q428.8 223.25 428.9 223.25 L422.95 229.4 417.7 234.95 417.05 233.5 427.15 223.25 427.65 222.7 M415.95 182.15 L416.55 182.15 426.35 192.35 426.3 192.4 426.2 192.45 425.0 193.05 424.9 192.9 424.9 192.8 424.85 192.85 416.1 183.65 415.85 183.75 415.7 183.5 415.35 183.35 415.95 182.15" fill="#4d525d" fill-rule="evenodd" stroke="none"/>
    <path d="M227.0 183.55 L227.0 184.0 218.15 193.65 218.1 220.05 227.45 229.6 227.15 230.3 226.1 229.25 217.55 220.65 217.85 193.15 217.7 193.2 217.85 193.1 217.85 193.0 217.85 193.05 227.0 183.55 M226.4 232.0 L225.75 233.5 215.55 223.45 215.05 222.9 214.85 192.15 225.25 179.4 226.7 182.1 216.4 192.55 216.5 192.65 216.35 192.65 216.35 192.75 216.5 192.65 216.1 220.9 216.35 221.5 216.45 221.6 216.6 221.75 217.1 222.15 217.3 222.35 216.8 222.0 226.4 232.0 M225.05 235.15 L224.9 235.35 224.85 235.35 213.35 223.85 213.0 193.3 213.25 192.0 Q213.5 191.4 213.9 190.9 L224.95 178.75 225.15 179.1 Q217.9 186.55 213.95 191.65 L213.75 191.95 213.65 191.85 213.5 192.25 213.65 192.25 213.75 223.3 213.8 223.6 213.95 223.85 219.75 229.6 225.05 235.15" fill="#6e727b" fill-rule="evenodd" stroke="none"/>
    <path d="M216.35 192.65 L216.5 192.65 216.35 192.75 216.35 192.65" fill="#60646b" fill-rule="evenodd" stroke="none"/>
    <path d="M216.5 192.65 L217.7 193.2 217.85 193.15 217.55 220.65 217.5 220.7 Q216.95 221.05 216.35 221.35 L216.45 221.6 216.35 221.5 216.1 220.9 216.5 192.65 M217.5 220.7 L217.3 220.5 217.5 220.7" fill="#57595d" fill-rule="evenodd" stroke="none"/>
    <path d="M226.8 231.0 L226.4 232.0 216.8 222.0 217.3 222.35 217.1 222.15 216.6 221.75 216.45 221.6 216.35 221.35 Q216.95 221.05 217.5 220.7 L217.55 220.65 226.1 229.25 217.5 220.7 Q221.65 226.0 226.8 231.0 M225.75 233.5 L225.65 233.7 Q221.6 230.0 215.55 223.45 L225.75 233.5 M213.95 191.65 L214.85 192.15 215.05 222.9 214.8 222.7 214.6 219.7 214.4 214.0 214.45 208.95 214.05 219.7 213.85 223.4 219.75 229.6 213.95 223.85 213.8 223.6 213.75 223.3 213.65 192.25 213.65 191.85 213.75 191.95 213.95 191.65" fill="#9498a1" fill-rule="evenodd" stroke="none"/>
    <path d="M227.15 230.3 L226.8 231.0 Q221.65 226.0 217.5 220.7 L217.3 220.5 217.5 220.7 226.1 229.25 227.15 230.3 M225.15 179.1 L225.25 179.4 214.85 192.15 213.95 191.65 Q217.9 186.55 225.15 179.1 M213.65 191.85 L213.65 192.25 213.5 192.25 213.65 191.85" fill="#e7e7e7" fill-rule="evenodd" stroke="none"/>
    <path d="M226.7 182.1 L227.1 183.45 227.0 183.25 227.0 183.55 217.85 193.05 217.85 193.0 217.85 193.1 217.7 193.2 216.5 192.65 216.4 192.55 226.7 182.1 M225.65 233.7 L225.05 235.15 219.75 229.6 213.85 223.4 214.05 219.7 214.45 208.95 214.4 214.0 214.6 219.7 214.8 222.7 215.05 222.9 215.55 223.45 Q221.6 230.0 225.65 233.7" fill="#4d525d" fill-rule="evenodd" stroke="none"/>
  </g>
  <defs>
    <radialGradient cx="0" cy="0" fx="9.600000000000001" fy="0" gradientTransform="matrix(0.4984, 0.0, 0.0, 0.4984, 317.95, 251.0)" gradientUnits="userSpaceOnUse" id="gradient0" r="819.2" spreadMethod="pad">
      <stop offset="0.6039215686274509" stop-color="#000000" stop-opacity="0.4"/>
      <stop offset="1.0" stop-color="#000000" stop-opacity="0.6901961"/>
    </radialGradient>
  </defs>
</svg>
