<?xml version="1.0" encoding="UTF-8" standalone="no"?>
<svg xmlns:ffdec="https://www.free-decompiler.com/flash" xmlns:xlink="http://www.w3.org/1999/xlink" ffdec:objectType="shape" height="19.0px" width="90.05px" xmlns="http://www.w3.org/2000/svg">
  <g transform="matrix(1.0, 0.0, 0.0, 1.0, -275.8, -191.6)">
    <path d="M341.1 191.7 Q341.65 196.3 341.65 200.15 L341.6 202.0 341.6 202.5 Q341.6 210.0 338.0 210.35 L337.4 210.35 Q335.2 210.35 334.4 208.5 333.65 206.2 333.65 201.7 L333.65 200.85 333.65 199.65 Q333.65 196.7 334.05 192.15 L336.75 192.35 Q336.3 197.55 336.4 200.85 336.35 204.6 336.55 205.8 336.75 207.0 337.6 207.3 338.55 207.4 338.75 205.75 L339.0 201.1 338.6 191.85 341.1 191.7 M330.45 191.7 L333.1 210.0 330.65 210.05 330.2 207.45 327.95 207.5 327.65 210.55 325.0 210.6 327.3 191.95 330.45 191.7 M342.7 195.6 L343.0 194.2 Q343.65 191.85 346.2 191.7 348.55 191.8 349.2 194.15 349.7 195.9 349.8 198.1 L347.25 198.2 347.1 196.3 Q346.9 194.6 346.3 194.55 345.5 194.65 345.35 196.3 345.05 197.65 346.85 199.5 348.65 201.3 349.3 202.5 349.85 203.75 349.85 205.15 L349.4 208.0 Q348.8 210.35 346.4 210.55 343.85 210.5 343.15 208.1 342.65 206.4 342.45 204.55 L345.05 204.25 345.3 205.95 Q345.5 207.55 346.25 207.6 346.9 207.5 347.05 205.9 347.45 204.1 345.75 202.45 344.1 200.8 343.5 199.5 342.45 197.75 342.7 195.6 M353.95 198.35 L356.55 198.4 356.45 201.35 353.9 201.35 353.85 207.3 357.15 207.35 357.05 210.4 351.2 210.3 351.45 191.75 357.1 191.8 357.2 194.65 354.05 194.7 353.95 198.35 M361.3 194.55 L361.1 207.85 362.05 207.6 Q362.8 207.45 363.05 205.9 L363.15 201.0 362.85 196.3 Q362.65 194.65 361.9 194.55 L361.3 194.55 M365.15 194.2 Q365.75 196.45 365.8 200.95 L365.85 200.95 365.85 201.9 Q365.85 205.8 365.3 207.95 364.7 210.3 362.15 210.45 L362.15 210.5 361.0 210.55 358.5 210.2 358.7 191.8 360.45 191.6 361.95 191.7 361.95 191.75 Q364.5 191.85 365.15 194.2 M329.85 204.85 L328.9 198.55 328.2 204.85 329.85 204.85 M278.75 196.4 Q278.55 198.0 278.6 201.15 L278.8 205.95 Q278.95 207.5 279.75 207.7 280.55 207.6 280.75 205.95 281.1 203.85 281.0 201.75 L279.65 201.7 279.4 199.2 283.35 199.2 283.5 202.7 283.5 202.85 Q283.5 206.05 282.9 208.1 282.25 210.45 279.7 210.55 277.1 210.4 276.45 208.05 275.85 205.65 275.8 201.15 L275.8 200.95 Q275.8 196.55 276.4 194.25 277.05 191.9 279.6 191.75 282.2 191.8 282.85 194.2 L283.2 196.0 280.75 196.75 280.7 196.35 Q280.5 194.65 279.7 194.6 278.95 194.75 278.75 196.4 M289.45 191.7 L292.05 210.0 289.6 210.05 289.2 207.45 286.9 207.5 286.6 210.55 284.0 210.6 286.25 191.95 289.45 191.7 M302.25 191.65 L302.9 210.35 300.45 210.55 300.1 200.95 298.9 207.95 296.7 208.2 295.25 200.65 295.0 210.45 292.35 210.45 293.0 191.65 296.15 191.7 297.7 201.1 299.15 191.7 302.25 191.65 M309.55 198.4 L309.45 201.35 306.9 201.35 306.85 207.3 310.15 207.35 310.05 210.4 304.2 210.3 304.45 191.75 310.1 191.8 310.2 194.65 307.0 194.7 306.95 198.35 309.55 198.4 M322.15 192.2 Q324.45 193.1 324.5 198.1 324.35 201.6 322.55 202.9 321.15 203.75 319.8 203.7 L319.85 210.35 317.15 210.3 317.2 191.95 319.5 191.75 319.8 191.75 322.15 192.2 M319.8 194.1 L319.8 201.05 Q320.75 201.0 321.15 200.6 321.75 200.05 321.85 197.85 L321.6 195.15 Q321.0 194.1 319.8 194.1 M288.8 204.85 L287.85 198.55 287.15 204.85 288.8 204.85" fill="#542b0e" fill-rule="evenodd" stroke="none"/>
  </g>
</svg>
