<?xml version="1.0" encoding="UTF-8" standalone="no"?>
<svg xmlns:ffdec="https://www.free-decompiler.com/flash" xmlns:xlink="http://www.w3.org/1999/xlink" ffdec:objectType="shape" height="30.4px" width="19.9px" xmlns="http://www.w3.org/2000/svg">
  <g transform="matrix(1.0, 0.0, 0.0, 1.0, -29.05, -41.85)">
    <path d="M40.35 68.9 Q41.3 70.2 42.0 70.2 L43.05 69.75 43.3 69.4 43.35 69.6 Q43.9 70.8 44.75 70.8 45.45 70.8 45.8 70.3 L46.1 69.4 46.05 68.7 Q46.65 68.7 47.05 68.25 L47.4 67.4 48.85 66.3 48.95 66.25 48.95 66.85 Q48.95 70.4 45.65 71.9 42.4 73.3 37.4 69.25 35.05 67.3 34.05 63.9 L35.15 65.75 Q36.95 68.3 38.4 68.3 L40.05 68.85 40.35 68.9 M40.45 58.15 L39.45 57.6 39.9 57.6 40.5 57.65 40.45 58.15 M29.05 41.85 L29.95 41.9 31.2 42.15 31.85 42.2 Q32.1 42.85 32.85 43.35 34.0 44.15 35.6 44.15 L36.05 44.15 36.9 44.5 37.1 45.0 Q36.7 45.05 36.3 45.35 L36.05 45.65 35.75 45.9 Q35.4 46.3 35.4 46.85 35.4 47.5 36.9 48.6 L37.1 48.9 37.25 49.05 35.65 53.5 35.2 54.65 Q34.1 55.05 34.1 56.2 L34.4 56.85 Q33.75 58.7 33.75 59.4 L33.55 61.6 Q33.1 58.65 33.45 54.9 34.3 45.0 29.05 41.85" fill="#8e5120" fill-rule="evenodd" stroke="none"/>
  </g>
</svg>
