<?xml version="1.0" encoding="UTF-8" standalone="no"?>
<svg xmlns:ffdec="https://www.free-decompiler.com/flash" xmlns:xlink="http://www.w3.org/1999/xlink" ffdec:objectType="shape" height="480.1px" width="645.85px" xmlns="http://www.w3.org/2000/svg">
  <g transform="matrix(1.0, 0.0, 0.0, 1.0, 1.75, 0.1)">
    <path d="M302.05 146.1 Q298.9 148.7 298.9 153.85 298.9 156.35 300.45 159.15 303.05 163.85 308.85 163.85 314.2 163.85 316.95 159.85 318.85 157.0 318.85 153.85 318.85 149.85 315.75 147.05 312.9 144.45 308.85 144.1 304.8 143.8 302.05 146.1 M640.0 480.0 L0.0 480.0 0.0 0.0 640.0 0.0 640.0 480.0" fill="#a8a891" fill-opacity="0.32941177" fill-rule="evenodd" stroke="none"/>
    <path d="M644.1 -0.1 L642.25 317.05 -1.75 317.05 0.1 -0.1 644.1 -0.1 M315.75 147.05 Q312.8 144.5 308.8 144.15 304.7 143.8 302.0 146.1 298.85 148.7 298.85 153.85 298.85 156.4 300.35 159.15 303.0 163.85 308.8 163.85 314.2 163.85 316.85 159.9 318.85 157.05 318.85 153.85 318.85 149.85 315.75 147.05" fill="url(#gradient0)" fill-rule="evenodd" stroke="none"/>
  </g>
  <defs>
    <linearGradient gradientTransform="matrix(0.0, 0.2115, -0.4214, 0.0, 339.9, 157.6)" gradientUnits="userSpaceOnUse" id="gradient0" spreadMethod="pad" x1="-819.2" x2="819.2">
      <stop offset="0.00784313725490196" stop-color="#2d89a2"/>
      <stop offset="1.0" stop-color="#d6e0d9"/>
    </linearGradient>
  </defs>
</svg>
