<?xml version="1.0" encoding="UTF-8" standalone="no"?>
<svg xmlns:ffdec="https://www.free-decompiler.com/flash" xmlns:xlink="http://www.w3.org/1999/xlink" ffdec:objectType="shape" height="101.75px" width="2097.95px" xmlns="http://www.w3.org/2000/svg">
  <g transform="matrix(1.0, 0.0, 0.0, 1.0, 866.8, -21.45)">
    <path d="M885.65 100.2 L885.7 99.9 886.15 99.75 885.65 100.2 M882.1 100.65 L882.0 100.6 882.15 100.55 882.1 100.65 M894.7 56.1 L894.0 56.55 893.35 56.7 Q892.7 56.95 892.35 57.45 L892.05 58.4 Q890.85 59.85 890.15 61.8 L888.75 62.1 Q887.35 62.05 886.95 63.3 L886.25 65.75 884.9 68.15 879.3 67.95 Q875.2 68.35 873.25 71.85 872.6 73.05 872.45 74.5 L872.35 74.6 871.25 74.9 Q870.7 75.1 870.35 75.5 869.95 76.0 869.95 76.65 869.95 77.4 870.45 77.9 866.7 79.35 864.85 83.15 L864.1 85.1 Q862.5 85.7 862.75 87.5 L863.3 89.4 863.3 90.45 862.9 90.5 Q861.1 90.5 861.35 92.15 861.6 94.05 862.7 95.7 L864.55 98.35 864.5 98.55 864.45 98.75 864.4 98.95 864.4 99.35 864.4 99.55 864.5 99.85 Q863.4 100.85 863.0 102.7 859.35 106.3 863.0 110.7 864.7 112.75 867.35 112.95 869.35 113.75 872.3 113.6 L874.65 113.2 Q875.5 114.95 877.0 116.35 885.1 124.1 891.35 113.6 L893.5 113.55 Q896.0 113.75 898.45 113.45 901.6 113.1 903.85 110.85 906.3 108.4 909.35 106.8 910.05 108.15 911.45 109.25 914.1 111.35 917.9 111.35 921.2 111.35 923.65 109.8 L923.8 109.9 Q928.6 113.4 934.55 111.3 938.35 118.05 944.1 113.8 949.6 116.35 956.2 113.6 L957.5 112.5 Q962.9 112.65 965.75 107.15 967.75 103.2 967.65 98.5 967.55 94.2 964.7 91.05 L961.45 87.6 Q962.25 80.95 958.65 75.45 956.35 72.05 953.4 69.35 953.0 68.2 952.4 67.6 L952.05 66.6 951.9 66.25 951.4 66.0 950.0 65.4 949.2 65.1 950.2 63.15 Q952.95 57.95 949.3 53.6 943.1 46.35 934.65 48.3 L934.25 48.0 929.4 44.6 Q928.05 43.7 926.45 43.95 922.85 45.0 919.4 47.0 915.85 49.0 913.5 51.65 908.6 50.45 904.05 48.1 901.35 47.95 898.95 49.15 896.55 50.35 895.35 52.65 894.5 54.25 894.7 56.1" fill="#d2d2bf" fill-rule="evenodd" stroke="none"/>
    <path d="M900.85 55.15 L900.95 55.25 900.85 55.1 900.85 55.15 M891.35 66.85 L889.85 65.1 889.35 66.85 889.3 66.85 Q888.75 68.75 887.5 70.25 L886.4 70.95 885.6 71.1 Q884.7 73.6 880.9 75.7 877.3 77.65 875.65 75.05 L875.65 75.15 875.4 76.0 Q874.85 77.15 874.15 77.3 L873.7 77.5 873.5 77.55 873.6 78.0 Q873.75 78.9 873.25 79.65 872.8 80.4 872.0 80.7 869.25 81.85 867.85 84.65 L867.2 86.3 866.6 87.25 866.0 87.75 866.3 88.7 866.5 89.9 866.5 90.8 Q866.55 91.75 865.9 92.5 L864.8 93.3 865.5 94.7 865.45 94.7 867.2 97.2 867.7 98.2 867.7 99.4 867.65 99.5 867.7 100.65 Q867.55 101.5 866.85 102.15 866.4 102.65 866.2 103.6 L865.45 104.9 Q863.6 106.9 865.65 109.4 L865.65 109.45 Q866.65 110.65 868.2 110.75 L868.95 110.95 872.75 111.35 874.7 111.05 876.4 111.3 Q877.25 111.65 877.65 112.45 878.3 113.8 879.45 114.85 882.3 117.65 884.75 117.35 887.4 116.65 889.8 112.65 L890.6 111.8 Q891.1 111.45 891.7 111.4 L894.3 111.35 Q896.6 111.5 898.75 111.3 L898.8 111.3 Q901.05 111.0 902.65 109.4 905.45 106.7 908.75 104.9 L910.7 104.7 Q911.75 105.0 912.25 106.0 L913.65 107.55 913.65 107.6 Q915.7 109.15 918.55 109.15 921.0 109.15 922.9 108.0 923.55 107.55 924.3 107.55 925.1 107.55 925.7 108.0 L925.85 108.15 925.95 108.2 Q929.7 110.9 934.3 109.25 935.2 108.9 936.05 109.25 936.95 109.6 937.4 110.4 938.7 112.65 940.15 113.15 941.5 113.35 943.15 112.05 943.75 111.65 944.45 111.6 L945.85 111.85 Q950.35 113.85 955.8 111.6 L955.9 111.55 955.95 111.45 956.95 110.65 Q957.5 110.3 958.2 110.3 962.05 110.3 964.1 106.4 965.8 102.95 965.7 98.95 965.6 95.6 963.4 93.15 L960.2 89.75 959.6 88.8 959.55 87.65 Q959.85 85.1 959.35 82.75 956.6 85.25 954.2 82.2 L953.55 81.15 Q950.65 82.25 946.9 82.35 943.4 82.45 942.55 79.35 939.7 68.7 949.0 70.95 L948.1 70.1 946.95 68.7 Q942.75 69.5 939.55 62.8 L938.75 60.9 Q937.65 60.7 936.65 60.0 931.05 62.95 927.1 54.9 L926.0 52.35 923.85 52.8 922.4 54.4 Q917.05 63.35 909.7 55.6 L908.05 53.7 907.0 52.55 Q906.65 54.85 904.6 55.6 L901.7 55.8 Q905.8 59.0 902.35 65.3 897.9 73.55 891.35 66.85 M885.95 97.65 L887.65 97.7 Q888.55 98.05 888.95 98.85 889.45 99.65 889.25 100.55 889.15 101.45 888.5 102.1 L888.1 102.4 Q887.35 103.15 886.3 103.15 885.4 103.15 884.75 102.65 L884.55 102.9 Q883.8 103.6 882.75 103.6 881.9 103.6 881.2 103.1 880.5 102.6 880.2 101.8 879.85 100.8 880.35 99.8 880.85 98.85 881.85 98.5 L882.8 98.35 Q883.55 98.35 884.2 98.8 L884.4 98.5 Q884.95 97.95 885.7 97.75 L885.95 97.65 M867.6 99.65 L867.65 99.55 867.65 99.5 867.6 99.65 M867.65 99.3 L867.65 99.1 867.55 99.4 867.6 99.4 867.65 99.3 M867.55 99.5 Q867.25 100.45 867.45 100.1 L867.55 99.8 867.55 99.65 867.55 99.5" fill="#c6c6ad" fill-rule="evenodd" stroke="none"/>
    <path d="M919.25 91.05 Q914.0 94.85 911.7 89.55 911.15 90.6 910.0 91.4 906.45 93.85 904.4 90.5 L904.15 90.15 902.8 90.25 902.6 90.25 Q903.15 91.6 901.4 93.15 900.35 94.15 899.5 93.75 L899.4 93.95 Q898.05 96.35 896.35 94.15 L895.9 93.4 895.45 93.9 Q894.45 95.0 893.55 94.65 L892.9 95.15 Q892.1 98.65 889.25 95.85 888.8 97.3 886.55 98.1 884.9 98.7 884.45 97.1 L884.35 96.85 Q883.55 96.95 882.7 95.75 L882.25 94.9 882.2 95.05 Q881.0 97.45 879.25 95.4 878.25 94.2 878.45 93.4 L878.2 93.15 878.0 93.05 877.75 93.45 874.75 93.4 874.65 93.3 874.35 93.45 874.3 93.5 Q873.05 95.75 871.45 93.95 870.75 94.55 870.05 94.5 L870.0 94.7 870.65 94.8 Q873.55 94.95 873.05 97.6 872.4 100.8 869.6 98.95 868.3 99.65 867.45 98.7 L867.45 99.0 Q867.3 99.85 866.6 100.45 866.1 101.0 865.95 101.9 865.75 102.65 865.2 103.25 863.3 105.25 865.35 107.75 L865.35 107.8 Q866.4 108.95 867.95 109.1 L868.7 109.25 Q870.3 109.85 872.45 109.7 L874.45 109.4 876.15 109.6 Q876.95 109.95 877.35 110.8 878.0 112.1 879.15 113.2 882.05 115.95 884.5 115.7 887.15 115.0 889.55 111.0 L890.3 110.15 Q890.85 109.8 891.4 109.75 L894.05 109.65 898.5 109.6 898.55 109.6 Q900.8 109.35 902.4 107.75 905.15 105.0 908.5 103.25 L910.45 103.05 Q911.5 103.35 912.0 104.3 912.45 105.2 913.4 105.9 L913.4 105.95 Q915.45 107.5 918.3 107.5 920.75 107.5 922.65 106.35 923.3 105.9 924.05 105.9 924.8 105.9 925.45 106.35 L925.6 106.45 925.7 106.5 Q929.4 109.25 934.05 107.55 L935.8 107.6 Q936.7 107.9 937.15 108.75 938.45 111.0 939.85 111.5 941.25 111.7 942.9 110.4 943.5 109.95 944.2 109.95 L945.55 110.2 Q950.05 112.2 955.55 109.95 L955.65 109.9 955.7 109.8 Q956.05 109.25 956.7 108.95 L957.95 108.65 Q961.8 108.65 963.8 104.7 965.5 101.3 965.45 97.3 965.35 93.95 963.1 91.5 L959.9 88.1 959.35 87.1 959.25 86.0 959.4 83.85 958.85 84.65 958.05 85.2 Q956.4 85.6 955.15 84.75 955.35 85.45 955.9 86.0 957.8 88.0 955.7 90.5 L955.7 90.55 Q954.7 91.7 953.15 91.85 L952.4 92.0 948.65 92.45 946.65 92.15 946.6 92.15 946.25 93.4 Q945.1 95.55 943.45 94.0 L941.95 95.95 Q939.05 98.7 936.6 98.45 933.95 97.75 931.55 93.75 931.25 93.2 930.75 92.9 930.25 92.55 929.7 92.5 L927.05 92.4 Q924.75 92.6 922.6 92.35 L922.55 92.35 Q920.7 92.15 919.25 91.05 M956.3 75.05 L956.45 75.15 956.5 75.15 956.35 74.85 956.3 75.05 M894.55 89.85 L895.25 90.25 895.2 90.1 894.9 89.6 894.55 89.85 M876.6 95.6 L877.15 95.9 Q880.6 98.0 877.05 99.8 875.2 100.8 874.25 99.1 872.4 95.75 876.6 95.6 M867.15 98.4 L867.2 98.35 867.15 98.3 Q867.05 98.7 867.15 98.4" fill="#b8b89f" fill-rule="evenodd" stroke="none"/>
    <path d="M522.0 107.55 L521.9 107.45 522.0 107.45 522.0 107.55 M524.9 107.15 L524.95 106.9 525.3 106.8 524.9 107.15 M532.4 70.7 Q532.1 70.85 531.8 71.1 L531.3 71.2 Q530.75 71.4 530.45 71.8 L530.2 72.6 Q529.2 73.8 528.65 75.4 L527.45 75.65 Q526.3 75.6 526.0 76.65 L525.4 78.65 Q525.05 79.8 524.3 80.65 L519.65 80.45 Q516.25 80.85 514.65 83.7 514.15 84.7 514.0 85.9 L513.95 86.0 513.0 86.25 Q512.55 86.4 512.25 86.7 511.9 87.15 511.9 87.7 511.9 88.3 512.35 88.75 509.25 89.9 507.75 93.05 L507.1 94.65 Q505.8 95.15 506.0 96.65 L506.45 98.2 506.45 99.1 506.1 99.1 Q504.6 99.15 504.8 100.5 505.05 102.05 505.9 103.45 L507.45 105.6 507.4 105.8 507.35 105.95 507.35 106.1 507.35 106.45 507.35 106.6 507.45 106.85 Q506.5 107.7 506.2 109.2 503.2 112.2 506.2 115.8 507.6 117.5 509.8 117.65 511.45 118.35 513.85 118.2 L515.85 117.9 Q516.5 119.35 517.75 120.5 524.45 126.9 529.65 118.2 L531.4 118.15 535.5 118.1 Q538.1 117.8 539.95 115.95 542.0 113.95 544.5 112.6 545.05 113.7 546.2 114.6 548.45 116.35 551.55 116.35 554.3 116.35 556.3 115.05 L556.45 115.15 Q560.4 118.05 565.3 116.3 568.45 121.9 573.2 118.35 577.75 120.5 583.2 118.2 L584.3 117.3 Q588.75 117.45 591.1 112.9 592.75 109.6 592.65 105.75 592.6 102.15 590.2 99.55 L587.55 96.75 Q588.25 91.25 585.25 86.7 583.35 83.9 580.9 81.65 L580.05 80.2 579.8 79.4 579.65 79.1 579.25 78.85 578.1 78.4 577.45 78.1 578.25 76.55 Q580.55 72.25 577.5 68.65 572.4 62.65 565.4 64.25 L565.1 64.0 561.05 61.15 Q559.95 60.45 558.65 60.65 555.65 61.55 552.8 63.15 549.85 64.85 547.9 67.0 543.85 66.05 540.1 64.1 537.9 63.95 535.9 64.95 533.9 65.95 532.9 67.85 532.2 69.15 532.4 70.7" fill="#d2d2bf" fill-rule="evenodd" stroke="none"/>
    <path d="M529.35 79.15 L528.1 77.7 527.7 79.15 527.65 79.15 Q527.2 80.7 526.2 81.95 L525.25 82.55 524.6 82.7 Q523.85 84.75 520.7 86.5 517.75 88.1 516.4 85.95 L516.4 86.0 516.15 86.75 Q515.75 87.65 515.1 87.8 L514.75 87.95 514.6 88.0 514.7 88.4 Q514.8 89.1 514.4 89.75 514.05 90.35 513.35 90.6 511.05 91.55 509.9 93.85 L509.4 95.25 508.9 96.05 508.4 96.45 508.65 97.2 508.8 98.2 508.8 98.95 Q508.85 99.75 508.3 100.35 507.9 100.85 507.4 101.0 L508.0 102.2 507.95 102.2 509.4 104.25 509.8 105.05 509.8 106.05 509.75 106.15 509.8 107.1 Q509.7 107.8 509.1 108.35 508.7 108.75 508.55 109.55 L507.95 110.6 Q506.4 112.3 508.1 114.35 508.95 115.35 510.25 115.45 L510.85 115.6 513.95 115.95 515.6 115.7 517.0 115.9 Q517.7 116.2 518.0 116.85 518.55 117.95 519.5 118.85 521.9 121.15 523.9 120.9 526.1 120.35 528.05 117.0 528.3 116.6 528.7 116.35 529.15 116.05 529.65 116.0 L531.8 115.95 535.5 115.9 Q537.35 115.7 538.7 114.35 541.0 112.1 543.75 110.6 L545.35 110.45 Q546.25 110.7 546.65 111.5 547.05 112.25 547.8 112.8 L547.8 112.85 Q549.5 114.1 551.85 114.1 553.85 114.1 555.4 113.2 555.95 112.8 556.6 112.8 557.25 112.8 557.75 113.2 L557.9 113.3 557.95 113.3 Q561.05 115.55 564.85 114.2 L566.3 114.25 Q567.05 114.5 567.45 115.15 568.5 117.0 569.7 117.45 570.8 117.6 572.2 116.55 572.7 116.2 573.25 116.15 L574.4 116.35 Q578.1 118.05 582.65 116.15 L582.7 116.1 582.75 116.05 583.55 115.35 Q584.05 115.05 584.6 115.1 587.8 115.1 589.45 111.85 590.9 109.0 590.8 105.7 590.75 102.95 588.9 100.9 L586.25 98.1 585.8 97.3 585.7 96.35 Q585.95 94.25 585.55 92.3 583.3 94.35 581.3 91.85 L580.75 90.95 Q578.35 91.9 575.25 92.0 572.35 92.05 571.65 89.5 569.3 80.7 577.05 82.55 L576.25 81.85 575.35 80.7 Q571.85 81.35 569.2 75.8 L568.5 74.25 Q567.6 74.05 566.8 73.5 562.15 75.95 558.9 69.3 L558.0 67.2 556.2 67.55 555.05 68.85 Q550.6 76.25 544.55 69.85 L543.15 68.3 542.3 67.35 Q542.0 69.25 540.3 69.85 L537.9 70.0 Q541.3 72.65 538.45 77.9 534.75 84.7 529.35 79.15 M537.2 69.5 L537.3 69.6 537.2 69.45 537.2 69.5 M524.9 104.65 L526.3 104.7 527.4 105.6 Q527.8 106.25 527.65 107.05 L527.0 108.3 526.65 108.55 Q526.05 109.15 525.2 109.15 524.45 109.15 523.9 108.75 L523.75 108.95 Q523.1 109.55 522.25 109.55 521.5 109.55 521.0 109.15 520.35 108.75 520.15 108.05 519.85 107.2 520.25 106.4 520.65 105.6 521.5 105.35 L522.3 105.2 Q522.9 105.2 523.45 105.6 L523.6 105.35 Q524.05 104.85 524.65 104.7 L524.9 104.65 M509.7 106.25 L509.75 106.2 509.75 106.15 509.7 106.25 509.7 106.15 509.6 106.65 509.7 106.4 509.7 106.25 M509.75 106.0 L509.75 105.85 509.7 106.05 509.7 106.1 509.75 106.0" fill="#c6c6ad" fill-rule="evenodd" stroke="none"/>
    <path d="M552.4 99.2 Q548.1 102.3 546.15 97.9 545.75 98.8 544.75 99.45 541.8 101.5 540.1 98.7 L539.95 98.4 538.8 98.5 538.65 98.5 Q539.1 99.6 537.65 100.9 536.8 101.7 536.1 101.4 L536.0 101.55 Q534.85 103.55 533.5 101.7 L533.1 101.1 532.75 101.55 Q531.9 102.45 531.2 102.15 L530.65 102.55 Q530.0 105.45 527.65 103.1 527.25 104.3 525.4 105.0 524.0 105.5 523.65 104.15 L523.6 103.95 Q522.9 104.05 522.2 103.05 L521.8 102.35 521.75 102.45 Q520.8 104.45 519.35 102.75 518.5 101.8 518.7 101.1 L518.5 100.9 518.3 100.8 518.1 101.15 515.6 101.1 515.55 101.0 515.3 101.15 515.25 101.2 Q514.2 103.05 512.9 101.55 512.35 102.05 511.75 102.05 L511.7 102.2 512.25 102.25 Q514.65 102.4 514.2 104.55 513.65 107.25 511.35 105.7 510.3 106.25 509.6 105.45 L509.6 105.75 Q509.45 106.45 508.9 106.95 508.5 107.4 508.35 108.15 L507.75 109.25 Q506.2 110.9 507.9 112.95 L507.9 113.0 Q508.7 114.0 510.0 114.1 L510.65 114.25 513.75 114.6 515.35 114.35 516.8 114.5 517.8 115.5 Q518.35 116.6 519.3 117.5 521.65 119.75 523.7 119.55 525.85 118.95 527.85 115.65 L528.5 114.95 Q528.95 114.65 529.4 114.65 L531.6 114.55 535.25 114.5 535.3 114.5 Q537.15 114.3 538.5 112.95 540.75 110.7 543.5 109.25 L545.15 109.1 Q546.0 109.35 546.4 110.15 L547.55 111.45 547.55 111.5 Q549.25 112.75 551.65 112.75 553.65 112.75 555.2 111.8 555.75 111.45 556.35 111.45 557.0 111.45 557.5 111.8 L557.65 111.9 557.75 111.95 Q560.8 114.2 564.65 112.8 L566.1 112.85 Q566.8 113.1 567.2 113.8 568.25 115.65 569.45 116.05 570.6 116.2 571.95 115.15 572.45 114.8 573.05 114.75 L574.15 115.0 Q577.9 116.65 582.4 114.75 L582.5 114.75 582.55 114.65 Q582.85 114.2 583.35 114.0 583.85 113.7 584.4 113.7 587.6 113.7 589.25 110.45 590.65 107.65 590.6 104.3 590.5 101.55 588.7 99.55 L586.05 96.7 585.55 95.9 Q585.4 95.45 585.5 95.0 L585.6 93.2 585.15 93.9 584.5 94.35 Q583.15 94.65 582.1 93.95 582.25 94.55 582.7 95.0 584.25 96.65 582.55 98.7 L582.55 98.75 Q581.75 99.7 580.45 99.85 L579.8 99.95 576.7 100.35 575.05 100.1 574.75 101.1 Q573.75 102.9 572.45 101.6 L571.15 103.25 Q568.8 105.5 566.75 105.3 564.6 104.7 562.6 101.4 L561.95 100.7 561.05 100.35 558.85 100.3 555.15 100.25 Q553.6 100.1 552.4 99.2 M583.05 85.95 L583.2 86.0 583.05 85.8 583.05 85.95 M532.0 98.15 L532.55 98.5 532.5 98.4 532.25 98.0 532.0 98.15 M517.15 102.95 L517.6 103.15 Q520.45 104.9 517.55 106.4 516.0 107.2 515.2 105.85 513.65 103.05 517.15 102.95 M509.35 105.25 L509.4 105.2 509.35 105.15 Q509.25 105.5 509.35 105.25" fill="#b8b89f" fill-rule="evenodd" stroke="none"/>
    <path d="M1207.15 58.75 Q1211.7 61.1 1213.9 65.15 1215.75 68.55 1215.55 72.25 1215.4 75.7 1217.7 77.3 1219.25 78.4 1222.95 79.1 1227.0 79.85 1228.25 80.45 1230.7 81.65 1230.7 84.4 1230.7 85.65 1229.6 87.35 1228.45 89.0 1228.45 90.1 L1229.8 92.6 Q1231.15 95.1 1231.15 97.3 1231.15 100.15 1229.55 102.85 1226.55 107.85 1219.35 107.85 1217.3 107.85 1216.5 107.0 1215.65 106.15 1215.2 106.15 L1214.35 106.55 1212.65 106.9 1207.95 106.45 Q1207.35 106.0 1207.1 106.0 L1205.65 105.8 1201.15 107.65 1199.65 108.75 Q1199.2 109.15 1196.9 109.15 1190.45 109.15 1188.7 104.3 1188.15 102.85 1187.9 96.7 L1187.85 96.65 1187.35 96.55 1185.65 96.95 1181.7 97.3 Q1175.4 97.3 1173.25 93.6 1172.3 91.95 1172.3 89.45 1172.3 88.9 1173.6 85.65 L1174.9 82.45 1174.6 80.75 1174.25 79.05 Q1174.05 78.4 1174.1 77.8 1174.2 76.55 1175.3 75.75 1178.4 73.45 1188.9 74.6 1190.95 73.0 1190.95 72.5 1190.95 67.25 1195.15 63.9 1197.35 58.4 1201.65 61.4 1203.5 59.15 1207.15 58.75" fill="#d6ddde" fill-rule="evenodd" stroke="none"/>
    <path d="M1208.25 61.65 L1208.35 64.95 1208.9 64.6 1209.65 64.45 Q1211.35 64.45 1211.6 66.65 L1211.8 70.3 Q1213.55 70.2 1213.75 71.65 L1213.6 73.75 Q1213.5 75.45 1214.75 76.05 1215.4 76.35 1215.75 77.35 1216.05 78.35 1216.55 78.55 L1217.65 78.65 Q1218.3 78.6 1218.95 79.0 L1219.35 79.3 1219.65 79.6 1221.45 80.7 Q1222.2 81.35 1223.3 83.15 L1224.2 82.8 Q1225.65 82.8 1226.1 84.75 L1226.3 86.85 1226.0 89.15 1225.1 90.25 Q1224.3 90.95 1226.45 91.2 1228.55 91.4 1227.0 93.05 L1224.65 95.0 Q1223.85 95.35 1223.9 95.4 1227.35 98.15 1223.6 96.65 1219.8 95.1 1215.5 94.8 1211.15 94.5 1207.15 93.2 1204.8 92.45 1204.95 91.5 1197.3 90.85 1195.0 90.15 1191.4 92.5 1185.95 87.3 L1185.05 87.4 Q1183.5 87.4 1182.45 86.35 L1181.45 85.1 1180.05 84.05 1178.65 83.05 Q1178.35 82.7 1178.2 81.9 L1177.85 80.65 1177.3 79.3 1177.25 78.35 Q1177.25 76.95 1179.95 75.85 1182.05 75.0 1183.05 75.0 1183.7 75.0 1184.2 75.8 1184.7 76.6 1186.15 76.6 1186.7 76.6 1187.45 77.1 L1188.1 77.55 Q1190.0 77.55 1190.8 76.1 L1191.65 74.65 1192.2 75.0 Q1192.8 74.6 1192.8 73.4 1196.0 64.05 1198.55 64.05 1199.6 64.05 1199.7 65.2 L1199.6 67.2 1199.65 67.25 1201.5 64.2 Q1202.75 62.35 1204.2 61.6 1207.95 59.6 1208.25 61.65 M1180.4 76.9 L1180.4 76.7 1180.15 76.7 1180.4 76.9 M1178.45 79.95 L1178.45 77.9 1178.1 77.9 1178.45 79.95 M1190.95 85.4 L1192.45 85.25 1191.2 85.25 1190.95 85.4" fill="#c6c6ad" fill-rule="evenodd" stroke="none"/>
    <path d="M1192.45 85.75 L1193.3 84.75 Q1194.4 88.7 1195.55 88.7 1196.6 88.7 1197.5 87.0 L1197.95 86.1 1198.9 86.3 Q1200.0 86.3 1200.55 85.55 L1201.05 86.05 1201.0 87.55 1201.15 88.8 Q1201.55 89.95 1202.9 89.95 1204.45 89.95 1204.75 88.45 L1204.8 86.25 1204.65 84.25 Q1205.35 83.45 1205.85 83.45 1206.3 84.05 1206.7 84.05 1207.2 84.05 1207.7 83.35 L1208.1 82.55 1208.15 82.6 1207.9 85.3 1207.9 86.0 Q1208.05 86.7 1208.85 86.7 L1209.3 86.6 1209.75 86.25 1209.75 86.35 1209.5 87.85 Q1209.65 88.75 1211.25 88.75 L1211.2 89.75 Q1211.3 90.55 1212.2 90.55 1212.85 90.55 1213.15 90.0 L1213.5 89.25 1213.5 89.35 1213.2 91.25 Q1213.15 92.6 1214.3 92.6 L1215.15 92.1 1215.55 91.45 1215.6 91.5 1215.4 93.1 Q1215.45 94.25 1216.5 94.25 1217.2 94.25 1217.65 93.4 L1218.0 92.35 1217.9 93.8 Q1218.05 94.9 1219.1 94.9 1220.0 94.9 1220.7 93.35 L1221.4 91.45 1221.4 91.5 1221.25 93.35 Q1221.3 94.8 1222.45 94.8 1223.15 94.8 1223.85 93.6 L1224.5 92.3 1224.55 92.35 1224.7 93.8 Q1225.05 95.0 1226.25 95.0 1227.15 95.0 1228.0 92.45 L1228.5 93.35 1228.5 93.3 Q1229.65 95.45 1229.65 97.3 1229.65 99.7 1228.35 102.0 L1228.3 102.1 Q1225.6 106.35 1219.35 106.35 L1217.6 106.0 1217.55 105.95 Q1216.1 104.5 1215.2 104.65 L1215.15 104.65 Q1214.7 104.7 1213.75 105.2 L1212.65 105.4 1208.8 105.25 Q1207.6 104.3 1207.0 104.5 L1206.5 104.55 1206.1 104.35 1206.05 104.35 1205.1 104.45 1200.6 106.3 1200.6 106.25 Q1199.95 106.45 1198.75 107.6 L1196.9 107.65 Q1191.6 107.65 1190.15 103.8 L1190.1 103.7 Q1189.6 102.2 1189.4 96.65 L1189.25 96.05 Q1189.15 95.05 1187.35 95.05 1186.1 95.05 1185.0 95.6 L1181.7 95.8 Q1176.4 95.8 1174.55 92.85 1173.8 91.5 1173.8 89.5 1173.85 89.05 1175.0 86.2 L1175.0 86.25 1176.4 82.35 1176.4 82.5 1176.35 81.85 1177.5 79.6 1177.5 80.0 Q1177.5 80.6 1177.8 81.1 1178.25 81.95 1179.35 81.95 L1179.5 81.95 1179.5 82.6 1179.7 83.7 Q1180.15 84.7 1181.35 84.7 1182.4 84.7 1183.1 83.4 1183.55 83.95 1184.45 83.95 L1184.5 83.95 Q1184.7 84.15 1185.1 84.15 1185.9 84.15 1186.45 83.05 L1187.0 81.65 1187.1 81.75 1187.1 83.85 1187.2 84.25 1187.15 84.85 1187.15 86.45 Q1187.4 87.55 1188.3 87.9 L1188.45 88.6 Q1188.9 89.6 1190.1 89.6 1191.05 89.6 1191.8 88.25 L1192.45 86.4 1192.45 85.75 M1200.05 78.85 L1200.1 78.9 1200.1 81.25 1199.1 81.05 1200.05 78.85" fill="#b8b89f" fill-rule="evenodd" stroke="none"/>
    <path d="M36.4 99.9 L36.3 99.8 36.4 99.8 36.4 99.9 M39.95 99.4 L40.0 99.1 40.45 98.95 39.95 99.4 M49.1 54.9 L48.4 55.35 47.75 55.5 Q47.1 55.7 46.75 56.25 46.45 56.7 46.4 57.2 45.2 58.65 44.5 60.65 L43.05 60.95 Q41.65 60.85 41.25 62.15 L40.55 64.6 Q40.1 66.0 39.2 67.05 L33.55 66.8 Q29.4 67.25 27.45 70.8 26.8 72.0 26.65 73.45 L26.55 73.55 25.4 73.9 Q24.85 74.05 24.5 74.45 24.1 75.0 24.1 75.65 24.1 76.4 24.6 76.9 20.8 78.35 19.0 82.2 L18.2 84.15 Q16.6 84.8 16.85 86.6 16.95 87.55 17.4 88.5 L17.4 89.6 16.95 89.6 Q15.15 89.65 15.4 91.3 15.65 93.2 16.75 94.85 L18.65 97.55 18.6 97.75 18.55 97.95 18.5 98.15 18.5 98.55 18.5 98.75 18.6 99.05 Q17.45 100.1 17.1 101.9 13.4 105.55 17.1 110.0 18.8 112.05 21.5 112.25 23.5 113.1 26.45 112.9 L28.85 112.55 Q29.7 114.3 31.2 115.75 39.4 123.55 45.75 112.9 L47.85 112.85 52.85 112.8 Q56.05 112.45 58.35 110.15 60.85 107.7 63.9 106.1 64.6 107.45 66.0 108.55 68.7 110.7 72.55 110.7 75.85 110.7 78.3 109.1 L78.5 109.2 Q83.3 112.75 89.3 110.6 93.2 117.45 98.95 113.15 104.55 115.75 111.2 112.9 L112.5 111.85 Q118.0 112.0 120.8 106.45 122.85 102.45 122.75 97.7 122.65 93.35 119.75 90.15 L116.5 86.7 Q117.35 80.0 113.65 74.45 111.35 71.0 108.4 68.3 L107.35 66.5 107.05 65.5 106.85 65.15 106.35 64.85 104.9 64.3 104.15 63.95 105.15 62.0 Q107.9 56.75 104.2 52.35 98.0 45.05 89.45 47.0 L89.05 46.7 84.15 43.25 Q82.8 42.35 81.15 42.6 77.55 43.7 74.05 45.65 70.45 47.75 68.05 50.4 63.1 49.2 58.55 46.8 55.8 46.65 53.4 47.85 50.95 49.05 49.75 51.4 48.9 53.0 49.1 54.9" fill="#d2d2bf" fill-rule="evenodd" stroke="none"/>
    <path d="M45.45 65.3 L43.9 63.55 43.4 65.3 43.35 65.3 Q42.8 67.2 41.55 68.7 L40.4 69.45 39.6 69.6 Q38.7 72.1 34.85 74.2 31.25 76.2 29.55 73.55 L29.55 73.65 29.3 74.55 Q28.75 75.7 28.0 75.85 L27.55 76.05 27.4 76.1 27.5 76.55 Q27.6 77.45 27.15 78.2 26.7 78.95 25.85 79.25 23.05 80.4 21.65 83.25 L21.05 84.9 20.4 85.9 19.8 86.4 20.1 87.35 20.3 88.55 20.3 89.45 Q20.35 90.45 19.7 91.2 L18.6 92.0 19.3 93.4 19.25 93.4 21.05 95.95 21.5 96.95 21.5 98.15 21.45 98.25 21.5 99.4 Q21.4 100.3 20.65 100.9 20.2 101.45 20.0 102.4 19.85 103.15 19.25 103.7 17.35 105.75 19.45 108.25 L19.45 108.3 Q20.45 109.5 22.05 109.65 L22.8 109.8 26.6 110.25 28.6 109.95 30.3 110.15 Q31.15 110.5 31.55 111.35 32.2 112.7 33.35 113.8 36.3 116.55 38.75 116.3 41.4 115.6 43.85 111.55 L44.65 110.7 Q45.15 110.35 45.75 110.3 L48.4 110.2 52.9 110.15 52.95 110.15 Q55.2 109.9 56.85 108.25 59.6 105.5 63.0 103.7 L64.95 103.55 Q66.05 103.85 66.5 104.8 67.0 105.7 67.95 106.4 L67.95 106.45 Q70.0 108.0 72.9 108.0 75.35 108.0 77.25 106.85 77.9 106.4 78.65 106.4 79.45 106.4 80.1 106.85 L80.25 107.0 80.35 107.0 Q84.1 109.75 88.8 108.1 L90.55 108.15 Q91.45 108.45 91.95 109.3 93.2 111.55 94.65 112.05 96.05 112.25 97.7 110.95 98.35 110.5 99.05 110.45 L100.4 110.75 Q104.95 112.75 110.5 110.45 L110.6 110.45 110.65 110.35 Q111.05 109.75 111.65 109.5 L112.95 109.2 Q116.8 109.2 118.85 105.2 120.6 101.75 120.5 97.7 120.4 94.35 118.15 91.85 L114.9 88.4 114.35 87.45 Q114.15 86.85 114.25 86.3 114.55 83.75 114.1 81.35 111.3 83.85 108.85 80.8 L108.2 79.7 Q105.3 80.85 101.5 80.95 97.95 81.05 97.1 77.9 94.25 67.15 103.65 69.4 L102.7 68.55 101.55 67.15 Q97.3 67.95 94.1 61.2 L93.25 59.3 Q92.15 59.05 91.15 58.35 85.5 61.35 81.5 53.25 L80.4 50.65 78.25 51.1 Q77.6 52.1 76.75 52.7 71.4 61.75 63.95 53.95 L62.25 52.05 61.2 50.85 Q60.85 53.2 58.8 53.95 L55.85 54.1 Q60.0 57.35 56.5 63.75 52.0 72.05 45.45 65.3 M55.0 53.5 L55.1 53.6 55.0 53.45 55.0 53.5 M39.95 96.4 L41.65 96.45 Q42.55 96.8 43.0 97.6 43.5 98.4 43.3 99.35 43.15 100.2 42.5 100.9 L42.1 101.2 Q41.35 101.95 40.3 101.95 39.4 101.95 38.75 101.45 L38.55 101.65 Q37.8 102.45 36.7 102.45 35.85 102.45 35.15 101.9 34.4 101.4 34.15 100.55 33.8 99.55 34.3 98.6 34.8 97.6 35.8 97.25 L36.75 97.1 Q37.5 97.1 38.2 97.55 L38.4 97.25 Q38.95 96.7 39.7 96.5 L39.95 96.4 M21.45 98.4 L21.45 98.3 21.45 98.25 21.45 98.4 M21.45 98.05 L21.45 97.85 21.4 98.15 21.45 98.2 21.45 98.05 M21.4 98.25 Q21.05 99.25 21.25 98.85 L21.4 98.6 21.4 98.4 21.4 98.25" fill="#c6c6ad" fill-rule="evenodd" stroke="none"/>
    <path d="M73.6 89.75 Q68.3 93.6 65.95 88.2 65.4 89.3 64.2 90.1 60.65 92.55 58.55 89.15 L58.35 88.8 56.95 88.9 56.8 88.9 Q57.3 90.25 55.55 91.85 54.5 92.85 53.65 92.45 L53.5 92.65 Q52.15 95.1 50.45 92.85 L50.0 92.1 49.55 92.6 Q48.5 93.7 47.65 93.35 L47.0 93.85 Q46.2 97.4 43.3 94.55 42.8 96.0 40.55 96.85 38.9 97.45 38.45 95.85 L38.35 95.55 Q37.5 95.7 36.7 94.45 L36.2 93.65 36.15 93.75 Q34.95 96.2 33.2 94.1 32.15 92.9 32.4 92.1 L32.1 91.85 31.9 91.75 31.7 92.15 28.65 92.1 28.55 92.0 28.25 92.15 28.2 92.2 Q26.9 94.45 25.3 92.65 24.6 93.3 23.9 93.25 L23.85 93.4 24.5 93.5 Q27.45 93.65 26.9 96.35 26.25 99.6 23.4 97.7 22.15 98.4 21.25 97.45 L21.25 97.75 Q21.1 98.6 20.4 99.25 19.9 99.75 19.75 100.7 L19.0 102.05 Q17.1 104.05 19.15 106.6 20.2 107.8 21.8 107.95 L22.55 108.15 26.35 108.55 28.3 108.25 30.05 108.5 Q30.9 108.85 31.3 109.65 31.95 111.0 33.1 112.1 36.0 114.9 38.5 114.65 41.15 113.9 43.55 109.85 L44.35 109.0 Q44.9 108.65 45.45 108.6 L48.15 108.55 52.65 108.5 52.7 108.5 Q54.95 108.2 56.55 106.6 59.35 103.85 62.7 102.05 L64.7 101.85 Q65.75 102.15 66.25 103.15 66.75 104.0 67.65 104.7 L67.65 104.75 Q69.75 106.3 72.6 106.3 75.1 106.3 77.0 105.15 77.65 104.7 78.4 104.7 79.2 104.7 79.8 105.15 L80.0 105.3 80.1 105.35 Q83.85 108.1 88.55 106.4 L90.3 106.45 Q91.2 106.75 91.65 107.6 92.95 109.85 94.4 110.4 95.8 110.55 97.45 109.3 98.1 108.85 98.8 108.8 L100.15 109.05 Q104.7 111.1 110.25 108.8 L110.3 108.75 110.35 108.65 Q110.75 108.1 111.4 107.8 111.95 107.45 112.65 107.5 116.55 107.5 118.6 103.55 120.3 100.1 120.2 96.0 120.15 92.65 117.9 90.2 L114.65 86.75 114.1 85.75 Q113.9 85.2 114.0 84.6 L114.1 82.45 113.55 83.3 Q113.2 83.75 112.75 83.8 111.1 84.2 109.85 83.35 110.05 84.1 110.6 84.6 112.5 86.65 110.4 89.15 L110.4 89.2 Q109.4 90.4 107.8 90.55 L107.05 90.7 103.25 91.15 101.25 90.85 101.2 90.85 100.85 92.1 Q99.65 94.3 98.05 92.7 L96.5 94.7 Q93.55 97.45 91.1 97.2 88.45 96.5 86.0 92.45 L85.2 91.6 84.1 91.2 81.45 91.1 Q79.15 91.3 76.95 91.05 L76.9 91.05 Q75.05 90.85 73.6 89.75 M111.0 73.55 L111.15 73.65 111.2 73.65 111.05 73.4 111.0 73.55 M48.6 88.5 L49.3 88.9 49.25 88.75 48.95 88.3 48.6 88.5 M30.5 94.35 Q30.75 94.4 31.05 94.6 34.55 96.7 30.95 98.6 29.05 99.55 28.15 97.85 26.25 94.45 30.5 94.35 M21.0 97.15 L21.05 97.1 21.0 97.05 Q20.85 97.45 21.0 97.15" fill="#b8b89f" fill-rule="evenodd" stroke="none"/>
    <path d="M-523.6 78.2 L-523.7 78.15 -523.55 78.1 -523.6 78.2 M-520.05 77.75 L-520.0 77.45 -519.55 77.3 -520.05 77.75 M-511.0 33.65 L-511.7 34.1 -512.35 34.25 -513.35 35.0 -513.65 35.95 Q-514.85 37.4 -515.55 39.35 L-516.95 39.65 Q-518.35 39.6 -518.75 40.85 L-519.45 43.3 Q-519.9 44.65 -520.8 45.7 L-526.4 45.5 Q-530.5 45.9 -532.45 49.4 -533.1 50.6 -533.25 52.05 L-533.35 52.15 -534.45 52.45 Q-535.0 52.65 -535.35 53.05 -535.75 53.55 -535.75 54.2 -535.75 54.95 -535.25 55.45 -539.0 56.9 -540.85 60.7 L-541.6 62.65 Q-543.2 63.25 -542.95 65.05 L-542.4 66.95 -542.4 68.0 -542.8 68.05 Q-544.6 68.05 -544.35 69.7 -544.1 71.6 -543.0 73.25 L-541.15 75.9 -541.2 76.1 -541.25 76.3 -541.3 76.5 -541.3 76.9 -541.3 77.1 -541.2 77.4 Q-542.3 78.4 -542.7 80.25 -546.35 83.85 -542.7 88.25 -541.0 90.3 -538.35 90.5 -536.35 91.3 -533.4 91.15 L-531.05 90.75 Q-530.2 92.5 -528.7 93.9 -520.6 101.65 -514.35 91.15 L-512.2 91.1 Q-509.7 91.3 -507.25 91.0 -504.1 90.65 -501.85 88.4 -499.4 85.95 -496.35 84.35 -495.65 85.7 -494.25 86.8 -491.6 88.9 -487.8 88.9 -484.5 88.9 -482.05 87.35 L-481.9 87.45 Q-477.1 90.95 -471.15 88.85 -467.35 95.6 -461.6 91.35 -456.1 93.9 -449.5 91.15 -448.7 90.8 -448.2 90.05 -442.8 90.2 -439.95 84.7 -437.95 80.75 -438.05 76.05 -438.15 71.75 -441.0 68.6 L-444.25 65.15 Q-443.45 58.5 -447.05 53.0 -449.35 49.6 -452.3 46.9 -452.7 45.75 -453.3 45.15 L-453.65 44.15 -453.8 43.8 -454.3 43.55 -455.7 42.95 -456.5 42.65 -455.5 40.7 Q-452.75 35.5 -456.4 31.15 -462.6 23.9 -471.05 25.85 L-471.45 25.55 -476.3 22.15 Q-477.65 21.25 -479.25 21.5 -482.85 22.55 -486.3 24.55 -489.85 26.55 -492.2 29.2 -497.1 28.0 -501.65 25.65 -504.35 25.5 -506.75 26.7 -509.15 27.9 -510.35 30.2 -511.2 31.8 -511.0 33.65" fill="#d2d2bf" fill-rule="evenodd" stroke="none"/>
    <path d="M-514.35 44.4 L-515.85 42.65 -516.35 44.4 -516.4 44.4 Q-516.95 46.3 -518.2 47.8 -518.65 48.3 -519.3 48.5 L-520.1 48.65 Q-521.0 51.15 -524.8 53.25 -528.4 55.2 -530.05 52.6 L-530.05 52.7 -530.3 53.55 Q-530.85 54.7 -531.55 54.85 L-532.0 55.05 -532.2 55.1 -532.1 55.55 Q-531.95 56.45 -532.45 57.2 -532.9 57.95 -533.7 58.25 -536.45 59.4 -537.85 62.2 L-538.5 63.85 -539.1 64.8 -539.7 65.3 -539.4 66.25 Q-539.15 66.8 -539.2 67.45 L-539.2 68.35 Q-539.15 69.3 -539.8 70.05 -540.3 70.6 -540.9 70.85 L-540.2 72.25 -540.25 72.25 -538.5 74.75 -538.0 75.75 Q-537.85 76.3 -538.0 76.95 L-538.05 77.05 Q-537.9 77.65 -538.0 78.2 -538.15 79.05 -538.85 79.7 L-539.5 81.15 Q-539.65 81.85 -540.25 82.45 -542.1 84.45 -540.05 86.95 L-540.05 87.0 Q-539.05 88.2 -537.5 88.3 L-536.75 88.5 -532.95 88.9 -531.0 88.6 -529.3 88.85 Q-528.45 89.2 -528.05 90.0 -527.4 91.35 -526.25 92.4 -523.4 95.2 -520.95 94.9 -518.3 94.2 -515.9 90.2 L-515.1 89.35 Q-514.6 89.0 -514.0 88.95 L-511.4 88.9 Q-509.1 89.05 -506.95 88.85 L-506.9 88.85 Q-504.65 88.55 -503.05 86.95 -500.25 84.25 -496.95 82.45 L-495.0 82.25 Q-493.95 82.55 -493.45 83.55 -492.95 84.4 -492.05 85.1 L-492.05 85.15 Q-490.0 86.7 -487.15 86.7 -484.7 86.7 -482.8 85.55 -482.15 85.1 -481.4 85.1 -480.6 85.1 -480.0 85.55 L-479.85 85.7 -479.75 85.75 Q-476.0 88.45 -471.4 86.8 -470.5 86.45 -469.65 86.8 -468.75 87.15 -468.3 87.95 -467.0 90.2 -465.55 90.7 -464.2 90.9 -462.55 89.6 -461.95 89.2 -461.25 89.15 L-459.85 89.4 Q-455.35 91.4 -449.9 89.15 L-449.8 89.1 -449.75 89.0 Q-449.35 88.45 -448.75 88.2 -448.2 87.85 -447.5 87.85 -443.65 87.85 -441.6 83.95 -439.9 80.5 -440.0 76.5 -440.1 73.15 -442.3 70.7 L-445.5 67.3 -446.1 66.35 -446.15 65.2 Q-445.85 62.65 -446.35 60.3 -449.1 62.8 -451.5 59.75 L-452.15 58.7 Q-455.05 59.8 -458.8 59.9 -462.3 60.0 -463.15 56.9 -466.0 46.25 -456.7 48.5 L-457.6 47.65 -458.75 46.25 Q-462.95 47.05 -466.15 40.35 L-466.95 38.45 Q-468.05 38.25 -469.05 37.55 -474.65 40.5 -478.6 32.45 L-479.7 29.9 -481.85 30.35 -483.3 31.95 Q-488.65 40.9 -496.0 33.15 L-497.65 31.25 -498.7 30.1 Q-499.05 32.4 -501.1 33.15 L-504.0 33.35 Q-499.9 36.55 -503.35 42.85 -507.8 51.1 -514.35 44.4 M-504.85 32.7 L-504.75 32.8 -504.85 32.65 -504.85 32.7 M-519.75 75.2 L-518.05 75.25 Q-517.15 75.6 -516.75 76.4 -516.25 77.2 -516.45 78.1 -516.55 79.0 -517.2 79.65 L-517.6 79.95 Q-518.35 80.7 -519.4 80.7 -520.3 80.7 -520.95 80.2 L-521.15 80.45 Q-521.9 81.15 -522.95 81.15 L-524.5 80.65 Q-525.2 80.15 -525.5 79.35 -525.85 78.35 -525.35 77.35 -524.85 76.4 -523.85 76.05 L-522.9 75.9 Q-522.15 75.9 -521.5 76.35 L-521.3 76.05 Q-520.75 75.5 -520.0 75.3 L-519.75 75.2 M-538.1 77.2 L-538.05 77.1 -538.05 77.05 -538.1 77.2 M-538.05 76.85 L-538.05 76.65 -538.15 76.95 -538.1 76.95 -538.05 76.85 M-538.15 77.05 L-538.25 77.65 -538.15 77.35 -538.15 77.2 -538.15 77.05" fill="#c6c6ad" fill-rule="evenodd" stroke="none"/>
    <path d="M-486.45 68.6 Q-491.7 72.4 -494.0 67.1 -494.55 68.15 -495.7 68.95 -499.25 71.4 -501.3 68.05 L-501.55 67.7 -502.9 67.8 -503.1 67.8 Q-502.55 69.15 -504.3 70.7 -505.35 71.7 -506.2 71.3 L-506.3 71.5 Q-507.65 73.9 -509.35 71.7 L-509.8 70.95 -510.25 71.45 Q-511.25 72.55 -512.15 72.2 L-512.8 72.7 Q-513.6 76.2 -516.45 73.4 -516.9 74.85 -519.15 75.65 -520.8 76.25 -521.25 74.65 L-521.35 74.4 Q-522.15 74.5 -523.0 73.3 L-523.45 72.45 -523.5 72.6 Q-524.7 75.0 -526.45 72.95 -527.45 71.75 -527.25 70.95 L-527.5 70.7 -527.7 70.6 -527.95 71.0 -530.95 70.95 -531.05 70.85 -531.35 71.0 -531.4 71.05 Q-532.65 73.3 -534.25 71.5 -534.95 72.1 -535.65 72.05 L-535.7 72.25 -535.05 72.35 Q-532.15 72.5 -532.65 75.15 -533.3 78.35 -536.1 76.5 -537.4 77.2 -538.25 76.25 L-538.25 76.55 Q-538.4 77.4 -539.1 78.0 -539.6 78.55 -539.75 79.45 -539.95 80.2 -540.5 80.8 -542.4 82.8 -540.35 85.3 L-540.35 85.35 Q-539.3 86.5 -537.75 86.65 L-537.0 86.8 -533.25 87.25 -531.25 86.95 -529.55 87.15 Q-528.75 87.5 -528.35 88.35 -527.7 89.65 -526.55 90.75 -523.65 93.5 -521.2 93.25 -518.55 92.55 -516.15 88.55 L-515.4 87.7 Q-514.85 87.35 -514.3 87.3 L-511.65 87.2 Q-509.4 87.4 -507.2 87.15 L-507.15 87.15 Q-504.9 86.9 -503.3 85.3 -500.55 82.55 -497.2 80.8 L-495.25 80.6 Q-494.2 80.9 -493.7 81.85 -493.25 82.75 -492.3 83.45 L-492.3 83.5 Q-490.25 85.05 -487.4 85.05 -484.95 85.05 -483.05 83.9 -482.4 83.45 -481.65 83.45 -480.9 83.45 -480.25 83.9 L-480.1 84.0 -480.0 84.05 Q-476.3 86.8 -471.65 85.1 L-469.9 85.15 Q-469.0 85.45 -468.55 86.3 -467.25 88.55 -465.85 89.05 -464.45 89.25 -462.8 87.95 -462.2 87.5 -461.5 87.5 L-460.15 87.75 Q-455.65 89.75 -450.15 87.5 L-450.05 87.45 -450.0 87.35 Q-449.65 86.8 -449.0 86.5 L-447.75 86.2 Q-443.9 86.2 -441.9 82.25 -440.2 78.85 -440.25 74.85 -440.35 71.5 -442.6 69.05 L-445.8 65.65 -446.35 64.65 -446.45 63.55 -446.3 61.4 -446.85 62.2 Q-447.2 62.65 -447.65 62.75 -449.3 63.15 -450.55 62.3 -450.35 63.0 -449.8 63.55 -447.9 65.55 -450.0 68.05 L-450.0 68.1 Q-451.0 69.25 -452.55 69.4 L-453.3 69.55 -457.05 70.0 -459.05 69.7 -459.1 69.7 Q-459.1 70.25 -459.45 70.95 -460.6 73.1 -462.25 71.55 L-463.75 73.5 Q-466.65 76.25 -469.1 76.0 -471.75 75.3 -474.15 71.3 -474.45 70.75 -474.95 70.45 -475.45 70.1 -476.0 70.05 L-478.65 69.95 Q-480.95 70.15 -483.1 69.9 L-483.15 69.9 Q-485.0 69.7 -486.45 68.6 M-449.4 52.6 L-449.25 52.7 -449.2 52.7 -449.35 52.4 -449.4 52.6 M-511.15 67.4 Q-510.8 67.55 -510.45 67.8 L-510.5 67.65 -510.8 67.15 -511.15 67.4 M-529.1 73.15 L-528.55 73.45 Q-525.1 75.55 -528.65 77.35 -530.5 78.35 -531.45 76.65 -533.3 73.3 -529.1 73.15 M-538.55 75.95 L-538.5 75.9 -538.55 75.85 Q-538.65 76.25 -538.55 75.95" fill="#b8b89f" fill-rule="evenodd" stroke="none"/>
    <path d="M-846.6 107.15 L-846.55 106.9 -846.2 106.8 -846.6 107.15 M-849.5 107.55 L-849.6 107.45 -849.5 107.45 -849.5 107.55 M-839.1 70.7 Q-839.4 70.85 -839.7 71.1 L-840.2 71.2 -841.05 71.8 -841.3 72.6 Q-842.3 73.8 -842.85 75.4 L-844.05 75.65 Q-845.2 75.6 -845.5 76.65 L-846.1 78.65 Q-846.45 79.8 -847.2 80.65 L-851.85 80.45 Q-855.25 80.85 -856.85 83.7 -857.35 84.7 -857.5 85.9 L-857.55 86.0 -858.5 86.25 Q-858.95 86.4 -859.25 86.7 -859.6 87.15 -859.6 87.7 L-859.15 88.75 Q-862.25 89.9 -863.75 93.05 L-864.4 94.65 Q-865.7 95.15 -865.5 96.65 L-865.05 98.2 -865.05 99.1 -865.4 99.1 Q-866.9 99.15 -866.7 100.5 -866.45 102.05 -865.6 103.45 L-864.05 105.6 -864.1 105.8 -864.15 105.95 -864.15 106.1 -864.15 106.45 -864.15 106.6 -864.05 106.85 Q-865.0 107.7 -865.3 109.2 -868.3 112.2 -865.3 115.8 -863.9 117.5 -861.7 117.65 -860.05 118.35 -857.65 118.2 L-855.65 117.9 Q-855.0 119.35 -853.75 120.5 -847.05 126.9 -841.85 118.2 L-840.1 118.15 -836.0 118.1 Q-833.4 117.8 -831.55 115.95 -829.5 113.95 -827.0 112.6 -826.45 113.7 -825.3 114.6 -823.05 116.35 -819.95 116.35 -817.2 116.35 -815.2 115.05 L-815.05 115.15 Q-811.1 118.05 -806.2 116.3 -803.05 121.9 -798.3 118.35 -793.75 120.5 -788.3 118.2 -787.6 117.95 -787.2 117.3 -782.75 117.45 -780.4 112.9 -778.75 109.6 -778.85 105.75 -778.9 102.15 -781.3 99.55 L-783.95 96.75 Q-783.25 91.25 -786.25 86.7 -788.15 83.9 -790.6 81.65 -790.95 80.7 -791.45 80.2 L-791.7 79.4 -791.85 79.1 -792.25 78.85 -793.4 78.4 -794.05 78.1 -793.25 76.55 Q-790.95 72.25 -794.0 68.65 -799.1 62.65 -806.1 64.25 L-806.4 64.0 -810.45 61.15 Q-811.55 60.45 -812.85 60.65 -815.85 61.55 -818.7 63.15 -821.65 64.85 -823.6 67.0 -827.65 66.05 -831.4 64.1 -833.6 63.95 -835.6 64.95 -837.6 65.95 -838.6 67.85 -839.3 69.15 -839.1 70.7" fill="#d2d2bf" fill-rule="evenodd" stroke="none"/>
    <path d="M-834.3 69.5 L-834.2 69.6 -834.3 69.45 -834.3 69.5 M-842.15 79.15 L-843.4 77.7 -843.8 79.15 -843.85 79.15 Q-844.3 80.7 -845.3 81.95 L-846.25 82.55 -846.9 82.7 Q-847.65 84.75 -850.8 86.5 -853.75 88.1 -855.1 85.95 L-855.1 86.0 -855.35 86.75 Q-855.75 87.65 -856.4 87.8 L-856.75 87.95 -856.9 88.0 -856.8 88.4 Q-856.7 89.1 -857.1 89.75 -857.45 90.35 -858.15 90.6 -860.45 91.55 -861.6 93.85 L-862.1 95.25 -862.6 96.05 -863.1 96.45 -862.85 97.2 Q-862.65 97.7 -862.7 98.2 L-862.7 98.95 Q-862.65 99.75 -863.2 100.35 L-864.1 101.0 -863.5 102.2 -863.55 102.2 -862.1 104.25 -861.7 105.05 -861.7 106.05 -861.75 106.15 Q-861.65 106.65 -861.7 107.1 -861.8 107.8 -862.4 108.35 L-862.95 109.55 Q-863.1 110.15 -863.55 110.6 -865.1 112.3 -863.4 114.35 -862.55 115.35 -861.25 115.45 L-860.65 115.6 -857.55 115.95 -855.9 115.7 -854.5 115.9 Q-853.8 116.2 -853.5 116.85 -852.95 117.95 -852.0 118.85 -849.6 121.15 -847.6 120.9 -845.4 120.35 -843.45 117.0 L-842.8 116.35 -841.85 116.0 -839.7 115.95 -836.0 115.9 Q-834.15 115.7 -832.8 114.35 -830.5 112.1 -827.75 110.6 L-826.15 110.45 Q-825.25 110.7 -824.85 111.5 L-823.7 112.8 -823.7 112.85 Q-822.0 114.1 -819.65 114.1 -817.65 114.1 -816.1 113.2 L-814.9 112.8 Q-814.25 112.8 -813.75 113.2 L-813.6 113.3 -813.55 113.3 Q-810.45 115.55 -806.65 114.2 L-805.2 114.25 Q-804.45 114.5 -804.05 115.15 -803.0 117.0 -801.8 117.45 -800.7 117.6 -799.3 116.55 -798.8 116.2 -798.25 116.15 L-797.1 116.35 Q-793.4 118.05 -788.85 116.15 L-788.8 116.1 -788.75 116.05 Q-788.45 115.55 -787.95 115.35 L-786.9 115.1 Q-783.7 115.1 -782.05 111.85 -780.6 109.0 -780.7 105.7 -780.75 102.95 -782.6 100.9 L-785.25 98.1 -785.7 97.3 -785.8 96.35 Q-785.55 94.25 -785.95 92.3 -788.2 94.35 -790.2 91.85 L-790.75 90.95 Q-793.15 91.9 -796.25 92.0 -799.15 92.05 -799.85 89.5 -802.2 80.7 -794.45 82.55 L-795.25 81.85 -796.15 80.7 Q-799.65 81.35 -802.3 75.8 L-803.0 74.25 Q-803.9 74.05 -804.7 73.5 -809.35 75.95 -812.6 69.3 L-813.5 67.2 -815.3 67.55 -816.45 68.85 Q-820.9 76.25 -826.95 69.85 L-828.35 68.3 -829.2 67.35 Q-829.5 69.25 -831.2 69.85 L-833.6 70.0 Q-830.2 72.65 -833.05 77.9 -836.75 84.7 -842.15 79.15 M-846.6 104.65 L-845.2 104.7 Q-844.5 104.95 -844.1 105.6 -843.7 106.25 -843.85 107.05 -843.95 107.75 -844.5 108.3 L-844.85 108.55 Q-845.45 109.15 -846.3 109.15 -847.05 109.15 -847.6 108.75 L-847.75 108.95 Q-848.4 109.55 -849.25 109.55 -850.0 109.55 -850.5 109.15 L-851.35 108.05 Q-851.65 107.2 -851.25 106.4 -850.85 105.6 -850.0 105.35 L-849.2 105.2 -848.05 105.6 -847.9 105.35 Q-847.45 104.85 -846.85 104.7 L-846.6 104.65 M-861.8 106.25 L-861.75 106.2 -861.75 106.15 -861.8 106.25 -861.8 106.15 -861.9 106.65 -861.8 106.4 -861.8 106.25 M-861.75 106.0 L-861.75 105.85 -861.8 106.05 -861.8 106.1 -861.75 106.0" fill="#c6c6ad" fill-rule="evenodd" stroke="none"/>
    <path d="M-819.1 99.2 Q-823.4 102.3 -825.35 97.9 -825.75 98.8 -826.75 99.45 -829.7 101.5 -831.4 98.7 L-831.55 98.4 -832.7 98.5 -832.85 98.5 Q-832.4 99.6 -833.85 100.9 -834.7 101.7 -835.4 101.4 L-835.5 101.55 Q-836.65 103.55 -838.0 101.7 L-838.4 101.1 -838.75 101.55 Q-839.6 102.45 -840.3 102.15 L-840.85 102.55 Q-841.5 105.45 -843.85 103.1 -844.25 104.3 -846.1 105.0 -847.5 105.5 -847.85 104.15 L-847.9 103.95 Q-848.6 104.05 -849.3 103.05 L-849.7 102.35 -849.75 102.45 Q-850.7 104.45 -852.15 102.75 -853.0 101.8 -852.8 101.1 L-853.0 100.9 -853.2 100.8 -853.4 101.15 -855.9 101.1 -855.95 101.0 -856.2 101.15 -856.25 101.2 Q-857.3 103.05 -858.6 101.55 -859.15 102.05 -859.75 102.05 L-859.8 102.2 -859.25 102.25 Q-856.85 102.4 -857.3 104.55 -857.85 107.25 -860.15 105.7 -861.2 106.25 -861.9 105.45 L-861.9 105.75 Q-862.05 106.45 -862.6 106.95 L-863.15 108.15 -863.75 109.25 Q-865.3 110.9 -863.6 112.95 L-863.6 113.0 Q-862.8 114.0 -861.5 114.1 L-860.85 114.25 -857.75 114.6 -856.15 114.35 -854.7 114.5 Q-854.05 114.8 -853.7 115.5 -853.15 116.6 -852.2 117.5 -849.85 119.75 -847.8 119.55 -845.65 118.95 -843.65 115.65 L-843.0 114.95 Q-842.55 114.65 -842.1 114.65 L-839.9 114.55 Q-838.05 114.7 -836.25 114.5 L-836.2 114.5 Q-834.35 114.3 -833.0 112.95 -830.75 110.7 -828.0 109.25 L-826.35 109.1 Q-825.5 109.35 -825.1 110.15 L-823.95 111.45 -823.95 111.5 Q-822.25 112.75 -819.85 112.75 -817.85 112.75 -816.3 111.8 -815.75 111.45 -815.15 111.45 -814.5 111.45 -814.0 111.8 L-813.85 111.9 -813.75 111.95 Q-810.7 114.2 -806.85 112.8 L-805.4 112.85 Q-804.7 113.1 -804.3 113.8 -803.25 115.65 -802.05 116.05 -800.9 116.2 -799.55 115.15 -799.05 114.8 -798.45 114.75 L-797.35 115.0 Q-793.6 116.65 -789.1 114.75 L-789.0 114.75 -788.95 114.65 -788.15 114.0 -787.1 113.7 Q-783.9 113.7 -782.25 110.45 -780.85 107.65 -780.9 104.3 -781.0 101.55 -782.8 99.55 L-785.45 96.7 -785.95 95.9 -786.0 95.0 -785.9 93.2 -786.35 93.9 -787.0 94.35 Q-788.35 94.65 -789.4 93.95 L-788.8 95.0 Q-787.25 96.65 -788.95 98.7 L-788.95 98.75 Q-789.75 99.7 -791.05 99.85 L-791.7 99.95 -794.8 100.35 -796.45 100.1 Q-796.45 100.5 -796.75 101.1 -797.75 102.9 -799.05 101.6 L-800.35 103.25 Q-802.7 105.5 -804.75 105.3 -806.9 104.7 -808.9 101.4 L-809.55 100.7 -810.45 100.35 -812.65 100.3 -816.35 100.25 Q-817.9 100.1 -819.1 99.2 M-788.45 85.95 L-788.3 86.0 -788.45 85.8 -788.45 85.95 M-839.5 98.15 L-838.95 98.5 -839.0 98.4 -839.25 98.0 -839.5 98.15 M-854.35 102.95 L-853.9 103.15 Q-851.05 104.9 -853.95 106.4 -855.5 107.2 -856.3 105.85 -857.85 103.05 -854.35 102.95 M-862.15 105.25 L-862.1 105.2 -862.15 105.15 Q-862.25 105.5 -862.15 105.25" fill="#b8b89f" fill-rule="evenodd" stroke="none"/>
    <path d="M-164.35 58.75 Q-159.8 61.1 -157.6 65.15 -155.75 68.55 -155.95 72.25 -156.1 75.7 -153.8 77.3 -152.25 78.4 -148.55 79.1 -144.5 79.85 -143.25 80.45 -140.8 81.65 -140.8 84.4 -140.8 85.65 -141.9 87.35 -143.05 89.0 -143.05 90.1 L-141.7 92.6 Q-140.35 95.1 -140.35 97.3 -140.35 100.15 -141.95 102.85 -144.95 107.85 -152.15 107.85 -154.2 107.85 -155.0 107.0 -155.85 106.15 -156.3 106.15 L-157.15 106.55 -158.85 106.9 -163.55 106.45 Q-164.15 106.0 -164.4 106.0 L-165.85 105.8 -170.35 107.65 -171.85 108.75 -174.6 109.15 Q-181.05 109.15 -182.8 104.3 -183.35 102.85 -183.6 96.7 L-183.65 96.65 -184.15 96.55 -185.85 96.95 -189.8 97.3 Q-196.1 97.3 -198.25 93.6 -199.2 91.95 -199.2 89.45 L-197.9 85.65 -196.6 82.45 -196.9 80.75 -197.25 79.05 -197.4 77.8 Q-197.3 76.55 -196.2 75.75 -193.1 73.45 -182.6 74.6 -180.55 73.0 -180.55 72.5 -180.55 67.25 -176.35 63.9 -174.15 58.4 -169.85 61.4 -168.0 59.15 -164.35 58.75" fill="#d6ddde" fill-rule="evenodd" stroke="none"/>
    <path d="M-163.25 61.65 L-163.15 64.95 -162.6 64.6 -161.85 64.45 Q-160.15 64.45 -159.9 66.65 L-159.7 70.3 Q-157.95 70.2 -157.75 71.65 -157.65 72.45 -157.9 73.75 -158.0 75.45 -156.75 76.05 -156.1 76.35 -155.75 77.35 -155.45 78.35 -154.95 78.55 L-153.85 78.65 Q-153.2 78.6 -152.55 79.0 L-152.15 79.3 -151.85 79.6 -150.05 80.7 Q-149.3 81.35 -148.2 83.15 L-147.3 82.8 Q-145.85 82.8 -145.4 84.75 -145.15 85.75 -145.2 86.85 -145.2 88.35 -145.5 89.15 L-146.4 90.25 Q-147.2 90.95 -145.05 91.2 -142.95 91.4 -144.5 93.05 -146.05 94.7 -146.85 95.0 L-147.6 95.4 Q-144.15 98.15 -147.9 96.65 -151.7 95.1 -156.0 94.8 -160.35 94.5 -164.35 93.2 -166.7 92.45 -166.55 91.5 L-176.5 90.15 Q-180.1 92.5 -185.55 87.3 L-186.45 87.4 Q-188.0 87.4 -189.05 86.35 L-190.05 85.1 Q-190.35 84.7 -191.45 84.05 L-192.85 83.05 -193.3 81.9 -193.65 80.65 -194.2 79.3 -194.25 78.35 Q-194.25 76.95 -191.55 75.85 -189.45 75.0 -188.45 75.0 -187.8 75.0 -187.3 75.8 -186.8 76.6 -185.35 76.6 -184.8 76.6 -184.05 77.1 L-183.4 77.55 Q-181.5 77.55 -180.7 76.1 L-179.85 74.65 Q-179.5 74.65 -179.3 75.0 -178.7 74.6 -178.7 73.4 -175.5 64.05 -172.95 64.05 -171.9 64.05 -171.8 65.2 L-171.9 67.2 -171.85 67.25 -170.0 64.2 Q-168.75 62.35 -167.3 61.6 -163.55 59.6 -163.25 61.65 M-191.35 76.7 L-191.1 76.9 -191.1 76.7 -191.35 76.7 M-193.05 77.9 L-193.4 77.9 -193.05 79.95 -193.05 77.9 M-180.55 85.4 L-179.05 85.25 -180.3 85.25 -180.55 85.4" fill="#c6c6ad" fill-rule="evenodd" stroke="none"/>
    <path d="M-179.05 86.4 L-179.05 85.75 -178.2 84.75 Q-177.1 88.7 -175.95 88.7 -174.9 88.7 -174.0 87.0 L-173.55 86.1 -172.6 86.3 Q-171.5 86.3 -170.95 85.55 L-170.45 86.05 -170.5 87.55 -170.35 88.8 Q-169.95 89.95 -168.6 89.95 -167.05 89.95 -166.75 88.45 L-166.7 86.25 Q-166.7 85.1 -166.85 84.25 -166.15 83.45 -165.65 83.45 -165.2 84.05 -164.8 84.05 -164.3 84.05 -163.8 83.35 L-163.4 82.55 -163.35 82.6 -163.6 85.3 -163.6 86.0 Q-163.45 86.7 -162.65 86.7 L-162.2 86.6 -161.75 86.25 -161.75 86.35 -162.0 87.85 Q-161.85 88.75 -160.25 88.75 L-160.3 89.75 Q-160.2 90.55 -159.3 90.55 -158.65 90.55 -158.35 90.0 L-158.0 89.25 -158.0 89.35 -158.3 91.25 Q-158.35 92.6 -157.2 92.6 L-156.35 92.1 -155.95 91.45 -155.9 91.5 -156.1 93.1 Q-156.05 94.25 -155.0 94.25 -154.3 94.25 -153.85 93.4 L-153.5 92.35 -153.6 93.8 Q-153.45 94.9 -152.4 94.9 -151.5 94.9 -150.8 93.35 L-150.1 91.45 -150.1 91.5 -150.25 93.35 Q-150.2 94.8 -149.05 94.8 -148.35 94.8 -147.65 93.6 L-147.0 92.3 -146.95 92.35 -146.8 93.8 Q-146.45 95.0 -145.25 95.0 -144.35 95.0 -143.5 92.45 L-143.0 93.35 -143.0 93.3 Q-141.85 95.45 -141.85 97.3 -141.85 99.7 -143.15 102.0 L-143.2 102.1 Q-145.9 106.35 -152.15 106.35 L-153.9 106.0 -153.95 105.95 Q-155.4 104.5 -156.3 104.65 L-156.35 104.65 -157.75 105.2 -158.85 105.4 -162.7 105.25 Q-163.9 104.3 -164.5 104.5 L-165.0 104.55 -165.4 104.35 -165.45 104.35 -166.4 104.45 -170.9 106.3 -170.9 106.25 Q-171.55 106.45 -172.75 107.6 L-174.6 107.65 Q-179.9 107.65 -181.35 103.8 L-181.4 103.7 Q-181.9 102.2 -182.1 96.65 -182.1 96.3 -182.25 96.05 -182.35 95.05 -184.15 95.05 -185.4 95.05 -186.5 95.6 L-189.8 95.8 Q-195.1 95.8 -196.95 92.85 -197.7 91.5 -197.7 89.5 L-196.5 86.2 -196.5 86.25 Q-195.15 83.0 -195.1 82.35 L-195.1 82.5 -195.15 81.85 Q-194.55 81.1 -194.0 79.6 L-194.0 80.0 -193.7 81.1 Q-193.25 81.95 -192.15 81.95 L-192.0 81.95 -192.0 82.6 -191.8 83.7 Q-191.35 84.7 -190.15 84.7 -189.1 84.7 -188.4 83.4 -187.95 83.95 -187.05 83.95 L-187.0 83.95 -186.4 84.15 Q-185.6 84.15 -185.05 83.05 L-184.5 81.65 -184.4 81.75 -184.4 83.85 -184.3 84.25 -184.35 84.85 -184.35 86.45 Q-184.1 87.55 -183.2 87.9 L-183.05 88.6 Q-182.6 89.6 -181.4 89.6 -180.45 89.6 -179.7 88.25 -179.05 87.15 -179.05 86.4 M-171.45 78.85 L-171.4 78.9 -171.4 81.25 Q-171.8 81.0 -172.4 81.05 L-171.45 78.85" fill="#b8b89f" fill-rule="evenodd" stroke="none"/>
  </g>
</svg>
