<?xml version="1.0" encoding="UTF-8" standalone="no"?>
<svg xmlns:ffdec="https://www.free-decompiler.com/flash" xmlns:xlink="http://www.w3.org/1999/xlink" ffdec:objectType="shape" height="168.7px" width="2201.7px" xmlns="http://www.w3.org/2000/svg">
  <g transform="matrix(1.0, 0.0, 0.0, 1.0, 1439.6, 0.0)">
    <path d="M761.75 54.05 Q763.4 60.4 757.1 64.6 754.7 66.15 752.1 66.2 L750.85 66.25 Q743.85 75.15 733.65 68.7 731.9 67.55 732.2 65.2 L730.7 65.4 730.25 65.75 728.75 66.7 727.5 67.75 Q723.85 71.15 720.15 68.3 718.95 67.45 718.75 65.9 L717.85 66.55 715.8 68.25 Q712.95 69.85 711.2 68.5 708.05 69.65 704.9 69.45 L704.7 69.45 703.6 71.4 Q701.6 74.35 698.7 74.35 696.35 74.35 694.55 72.4 L692.35 73.75 Q689.35 75.45 686.1 76.65 684.3 77.35 682.75 77.1 679.55 79.35 675.45 79.35 670.4 79.35 666.8 75.9 663.5 72.8 663.25 68.45 L663.15 68.5 Q660.05 71.85 655.6 71.85 651.2 71.85 648.05 68.5 L647.25 67.6 646.8 67.2 646.15 66.5 644.25 67.3 Q642.05 68.15 640.1 67.05 L639.7 66.8 Q638.45 67.95 636.8 68.95 634.45 71.95 631.5 74.2 626.6 77.65 620.6 77.25 618.2 77.15 616.05 75.85 L612.6 77.9 608.35 78.05 Q607.05 77.3 606.7 75.95 603.8 78.2 599.9 78.2 595.3 78.2 592.0 75.1 588.8 72.0 588.8 67.7 588.8 63.35 592.0 60.25 L593.3 59.25 592.85 58.1 592.0 57.35 Q588.8 54.3 588.8 49.95 588.8 45.65 592.0 42.55 594.7 40.0 598.35 39.6 598.6 35.0 601.55 31.6 604.9 28.0 609.55 28.0 612.0 28.0 614.1 29.05 615.0 26.5 616.9 24.4 620.65 20.35 625.95 20.35 629.55 20.35 632.45 22.3 632.7 18.4 635.25 15.55 638.1 12.4 642.1 12.4 646.15 12.4 649.0 15.55 650.2 16.9 650.95 18.5 653.25 15.25 656.55 15.25 L658.45 15.6 Q659.5 13.75 661.15 12.05 665.45 7.5 670.65 4.0 674.6 1.35 678.7 0.0 683.65 0.05 688.1 2.0 692.8 3.95 695.3 8.45 696.9 7.2 698.95 7.2 702.0 7.2 704.1 9.85 704.95 10.9 705.45 12.15 706.1 10.35 707.35 8.9 710.05 5.85 713.85 5.85 717.65 5.85 720.3 8.9 722.95 12.0 722.95 16.3 L722.75 18.75 725.75 18.35 Q729.6 18.35 732.3 20.65 735.05 22.95 735.05 26.25 L735.0 27.1 Q735.65 27.45 736.0 28.15 L736.1 28.35 Q737.1 28.55 738.0 29.0 741.0 26.1 743.55 28.95 746.15 31.85 749.75 33.9 751.25 34.75 751.25 36.35 L751.35 40.05 Q759.95 40.3 760.9 49.65 761.1 51.7 761.75 54.05 M698.35 47.95 L698.55 48.0 Q699.2 47.45 699.9 47.1 699.25 47.4 698.5 47.9 L698.35 47.95" fill="#d2d2bf" fill-rule="evenodd" stroke="none"/>
    <path d="M717.1 18.15 L717.0 19.45 Q716.55 21.3 717.45 23.0 718.3 24.65 720.05 25.35 721.75 26.1 723.6 25.65 L725.15 25.4 Q726.95 25.4 728.3 26.45 L728.35 26.55 Q729.05 27.15 729.2 28.05 L729.2 28.2 Q728.95 29.75 729.65 31.15 730.2 32.2 731.1 32.95 731.55 33.75 732.3 34.35 733.25 35.05 734.45 35.35 L735.2 35.6 Q736.65 36.3 738.3 36.0 L740.05 35.4 Q742.45 37.75 745.45 39.6 L745.45 41.7 Q745.4 43.9 746.95 45.5 748.45 47.1 750.6 47.15 754.6 47.45 755.05 52.0 755.3 54.5 756.05 57.25 L756.05 57.2 Q756.55 60.05 753.6 62.0 752.6 62.65 751.5 62.75 L749.8 62.85 Q748.75 62.9 747.8 63.45 746.8 63.95 746.15 64.8 742.25 69.45 736.9 66.6 736.75 65.25 735.95 64.1 734.75 62.35 732.8 61.9 730.5 61.25 727.9 62.5 L726.95 63.0 726.4 63.45 725.85 63.8 Q725.4 64.0 724.95 64.35 L723.4 65.65 723.3 65.7 723.1 65.85 Q722.75 64.9 722.0 64.15 720.85 62.85 719.2 62.55 717.5 62.25 716.05 62.9 714.65 63.45 713.55 64.65 L713.25 64.9 712.65 65.45 Q712.1 65.2 711.45 65.1 L708.8 65.35 Q706.7 66.1 704.65 66.0 L704.3 66.0 704.15 66.0 Q702.55 66.0 701.3 66.85 699.95 67.7 699.35 69.15 L698.75 70.15 698.7 70.25 698.1 70.9 697.85 70.65 Q696.5 69.15 694.45 68.95 692.4 68.7 690.8 70.0 L689.3 70.9 689.15 71.0 Q686.5 72.45 683.65 73.5 L683.6 73.55 683.05 73.75 680.95 73.8 Q679.9 74.0 679.0 74.65 677.25 75.95 674.85 75.9 671.9 75.9 669.85 73.95 L669.85 73.9 Q668.05 72.25 667.95 69.95 667.8 67.8 666.3 66.4 664.75 64.95 662.65 64.95 660.55 64.9 659.05 66.4 L658.7 66.7 Q657.2 68.35 655.05 68.4 652.85 68.35 651.35 66.7 L651.3 66.7 650.8 66.15 649.95 65.3 649.75 65.15 Q648.6 63.6 646.75 63.2 644.9 62.7 643.2 63.6 L641.95 64.2 Q641.7 64.0 641.45 63.9 640.0 63.2 638.35 63.4 636.8 63.6 635.55 64.75 L633.45 66.3 Q632.6 66.75 632.05 67.55 630.2 69.95 627.85 71.7 L627.75 71.8 Q624.45 74.1 620.4 73.8 L620.25 73.8 Q619.15 73.75 618.2 73.2 617.0 72.45 615.7 72.4 614.35 72.35 613.15 73.0 L610.25 74.55 609.2 73.55 Q607.75 72.5 606.05 72.5 604.3 72.5 602.85 73.6 601.35 74.8 599.3 74.75 596.8 74.75 595.05 73.1 593.5 71.55 593.5 69.5 593.55 67.45 595.05 65.9 L595.1 65.85 595.75 65.4 Q597.4 64.2 597.85 62.25 598.3 60.35 597.4 58.65 596.95 56.9 595.6 55.8 L595.05 55.4 Q593.5 53.85 593.5 51.8 593.55 49.75 595.05 48.2 L595.1 48.15 Q596.5 46.9 598.4 46.65 600.25 46.4 601.55 45.05 602.85 43.6 603.05 41.7 603.15 38.95 604.85 37.0 L604.9 36.95 Q606.6 35.1 608.95 35.05 610.15 35.05 611.15 35.6 612.5 36.25 614.05 36.15 615.6 35.95 616.8 35.0 617.95 34.05 618.5 32.65 619.05 31.1 620.2 29.8 L620.25 29.75 Q622.4 27.5 625.35 27.4 627.35 27.4 628.95 28.5 630.55 29.55 632.5 29.3 634.4 29.1 635.7 27.7 637.05 26.3 637.15 24.4 637.25 22.4 638.55 20.95 L638.6 20.9 Q639.85 19.55 641.5 19.5 643.2 19.55 644.5 20.9 L644.5 20.95 Q645.1 21.6 645.5 22.4 646.25 24.15 647.95 25.05 649.7 25.9 651.55 25.4 653.4 25.0 654.55 23.45 655.2 22.55 656.0 22.35 L656.25 22.4 659.65 22.3 Q661.4 21.7 662.35 20.1 663.2 18.75 664.4 17.5 668.25 13.4 673.0 10.2 675.9 8.25 678.95 7.1 682.3 7.3 685.4 8.65 L685.5 8.7 Q688.45 9.9 690.05 12.75 690.8 14.2 692.15 14.95 693.55 15.65 695.1 15.55 696.65 15.4 697.9 14.45 L698.4 14.3 Q698.95 14.4 699.4 15.0 L699.95 15.95 Q700.55 17.4 701.9 18.35 703.3 19.25 704.9 19.25 706.5 19.2 707.85 18.3 709.2 17.35 709.75 15.8 710.15 14.85 710.8 14.15 711.85 12.95 713.25 12.9 714.65 12.95 715.75 14.2 717.15 15.8 717.1 18.15 M649.55 64.95 L649.65 65.05 649.75 65.15 649.55 64.95" fill="#c6c6ad" fill-rule="evenodd" stroke="none"/>
    <path d="M706.8 48.15 L707.0 47.95 706.9 48.0 706.8 48.15 Q707.95 46.6 709.8 46.15 711.65 45.7 713.3 46.6 L714.6 47.2 Q714.85 47.0 715.05 46.9 716.55 46.15 718.15 46.4 719.75 46.6 720.95 47.75 L723.05 49.3 Q723.9 49.75 724.5 50.55 726.35 52.95 728.65 54.7 L728.75 54.75 Q732.1 57.1 736.15 56.8 L736.25 56.8 Q737.35 56.7 738.3 56.2 739.55 55.45 740.85 55.4 742.15 55.35 743.4 56.0 L746.3 57.55 747.35 56.55 Q748.75 55.5 750.5 55.5 752.25 55.5 753.65 56.6 754.65 57.35 755.95 57.6 756.3 60.4 753.4 62.3 752.4 62.95 751.3 63.05 L749.6 63.15 Q748.55 63.2 747.6 63.75 746.6 64.25 745.95 65.1 742.05 69.75 736.7 66.9 736.6 65.55 735.75 64.35 734.55 62.65 732.6 62.2 730.3 61.5 727.7 62.8 L726.75 63.3 726.2 63.75 Q725.9 63.95 725.65 64.1 725.2 64.3 724.75 64.65 L723.2 65.95 723.15 66.0 722.9 66.15 Q722.55 65.2 721.8 64.4 720.65 63.15 719.0 62.85 717.35 62.5 715.85 63.2 714.5 63.75 713.35 64.95 L713.05 65.2 712.45 65.75 711.25 65.35 708.6 65.65 704.45 66.25 704.1 66.25 703.95 66.25 Q702.35 66.25 701.1 67.15 699.75 68.0 699.15 69.45 L698.55 70.45 698.5 70.55 697.9 71.15 697.65 70.95 Q696.3 69.45 694.3 69.2 692.2 69.0 690.6 70.3 L689.1 71.15 688.95 71.3 Q686.3 72.75 683.45 73.8 L683.4 73.85 682.85 74.0 680.8 74.05 Q679.7 74.3 678.85 74.9 677.05 76.25 674.65 76.2 671.7 76.2 669.65 74.25 L669.65 74.2 Q667.85 72.55 667.75 70.2 667.6 68.1 666.1 66.7 664.55 65.25 662.5 65.25 660.35 65.2 658.85 66.7 L658.5 67.0 Q657.0 68.65 654.85 68.7 652.65 68.65 651.15 67.0 L651.1 67.0 650.6 66.45 649.75 65.6 649.55 65.4 Q648.4 63.9 646.55 63.45 644.7 63.0 643.0 63.9 L641.75 64.45 641.3 64.2 Q639.8 63.45 638.15 63.7 636.6 63.9 635.35 65.05 L633.25 66.6 Q632.4 67.05 631.85 67.85 630.0 70.2 627.65 72.0 L627.55 72.05 Q624.25 74.4 620.2 74.05 L620.05 74.05 618.0 73.5 Q616.8 72.75 615.5 72.7 614.15 72.65 612.95 73.3 611.5 73.95 610.05 74.85 L609.0 73.85 Q607.6 72.8 605.85 72.8 604.1 72.8 602.65 73.9 601.15 75.1 599.1 75.0 596.6 75.0 594.85 73.4 593.3 71.85 593.3 69.8 593.35 67.75 594.85 66.2 L594.9 66.15 595.55 65.7 Q597.2 64.45 597.65 62.5 598.1 60.6 597.2 58.95 596.75 57.2 595.4 56.1 L594.85 55.65 Q593.3 54.15 593.3 52.1 593.35 50.0 594.85 48.5 L594.9 48.45 Q596.3 47.2 598.2 46.95 600.05 46.7 601.35 45.35 L602.1 44.4 602.95 45.0 Q603.95 45.65 605.05 45.75 L606.75 45.85 Q607.8 45.9 608.75 46.45 609.75 46.95 610.35 47.8 614.25 52.45 619.65 49.6 619.75 48.25 620.6 47.05 621.75 45.35 623.7 44.9 626.05 44.2 628.6 45.5 L629.55 46.0 630.15 46.45 630.7 46.8 631.55 47.35 633.15 48.65 633.2 48.7 633.4 48.85 Q633.8 47.9 634.55 47.1 635.7 45.85 637.3 45.55 639.0 45.25 640.5 45.9 641.85 46.45 642.95 47.65 L643.3 47.9 643.85 48.45 645.05 48.05 Q646.45 47.85 647.7 48.35 649.8 49.1 651.9 48.95 L652.25 48.95 652.4 48.95 Q654.0 48.95 655.25 49.85 656.55 50.7 657.2 52.15 L657.8 53.15 657.85 53.25 658.4 53.85 658.7 53.65 Q660.05 52.15 662.05 51.9 664.1 51.7 665.75 53.0 L667.2 53.85 667.4 54.0 Q670.0 55.45 672.85 56.5 L672.9 56.55 673.5 56.7 675.55 56.8 Q676.6 57.0 677.5 57.6 679.3 58.95 681.65 58.9 684.65 58.9 686.7 56.95 L686.7 56.9 Q688.5 55.25 688.6 52.95 688.75 50.8 690.2 49.4 691.8 47.95 693.85 47.95 695.95 47.9 697.5 49.4 L697.8 49.7 Q699.35 51.35 701.5 51.4 703.65 51.35 705.2 49.7 L705.25 49.7 705.7 49.15 706.55 48.3 706.8 48.15 M649.55 65.4 L649.35 65.25 649.45 65.3 649.55 65.4" fill="#b8b89f" fill-rule="evenodd" stroke="none"/>
    <path d="M553.2 142.75 L553.3 142.65 553.15 142.65 553.2 142.75 M548.35 142.15 L548.3 141.7 547.7 141.55 548.35 142.15 M536.0 81.85 L536.95 82.5 537.85 82.7 Q538.7 82.95 539.15 83.7 L539.65 85.0 Q541.3 86.95 542.2 89.65 L544.15 90.05 Q546.05 89.95 546.6 91.65 L547.55 95.0 Q548.15 96.9 549.35 98.35 L557.05 98.0 Q562.65 98.6 565.3 103.35 566.15 105.05 566.4 106.95 L566.55 107.15 568.1 107.55 Q568.8 107.8 569.3 108.35 569.85 109.05 569.85 109.95 569.85 110.95 569.15 111.65 574.3 113.65 576.75 118.85 L577.8 121.5 Q580.0 122.35 579.65 124.75 579.5 126.1 578.9 127.35 L578.9 128.85 579.5 128.85 Q581.9 128.9 581.6 131.15 581.25 133.7 579.75 136.0 L577.2 139.6 577.3 139.9 577.35 140.15 577.4 140.4 577.4 140.95 577.4 141.2 577.25 141.7 Q578.8 143.05 579.3 145.5 584.3 150.45 579.3 156.45 577.0 159.25 573.35 159.55 570.6 160.65 566.65 160.4 L563.4 159.95 Q562.25 162.3 560.2 164.25 549.1 174.8 540.55 160.4 L537.65 160.35 Q534.2 160.65 530.85 160.25 526.55 159.8 523.45 156.7 520.1 153.35 515.95 151.15 515.0 153.0 513.1 154.5 509.45 157.4 504.25 157.4 499.75 157.4 496.4 155.25 L496.2 155.35 Q489.65 160.15 481.5 157.3 476.3 166.55 468.45 160.7 460.95 164.25 451.9 160.4 450.8 160.0 450.15 158.95 442.7 159.2 438.85 151.65 436.1 146.25 436.25 139.8 436.4 133.9 440.3 129.6 L444.75 124.9 Q443.6 115.85 448.6 108.3 451.7 103.65 455.7 100.0 456.3 98.4 457.15 97.55 457.2 96.9 457.55 96.2 L457.8 95.75 458.45 95.35 460.4 94.6 461.45 94.1 460.1 91.5 Q456.35 84.4 461.35 78.45 469.8 68.55 481.35 71.2 L481.9 70.75 Q486.35 67.45 488.55 66.1 490.4 64.9 492.55 65.2 497.5 66.7 502.2 69.4 507.1 72.15 510.3 75.75 517.0 74.15 523.2 70.95 526.9 70.7 530.15 72.35 533.45 73.95 535.1 77.1 536.25 79.3 536.0 81.85" fill="#d2d2bf" fill-rule="evenodd" stroke="none"/>
    <path d="M540.55 96.7 L542.65 94.3 543.3 96.7 543.35 96.7 Q544.15 99.3 545.8 101.3 L547.4 102.35 548.45 102.5 Q549.65 105.95 554.85 108.8 559.75 111.5 562.05 107.9 L562.05 108.0 562.4 109.2 Q563.1 110.8 564.15 111.0 L564.75 111.25 564.95 111.3 564.85 111.95 Q564.65 113.15 565.35 114.2 565.95 115.2 567.05 115.6 570.85 117.2 572.75 121.0 L573.6 123.3 574.45 124.6 575.25 125.25 574.85 126.55 Q574.5 127.35 574.55 128.2 L574.55 129.45 Q574.5 130.75 575.4 131.8 L576.9 132.85 575.9 134.75 576.0 134.75 573.6 138.2 Q573.1 138.8 572.95 139.55 572.75 140.35 572.95 141.2 L573.0 141.35 Q572.8 142.15 572.95 142.9 573.1 144.1 574.05 144.95 574.75 145.65 574.95 146.9 575.2 147.95 576.0 148.7 578.55 151.45 575.75 154.9 L575.75 154.95 Q574.35 156.55 572.2 156.75 L571.2 156.95 Q569.05 157.75 566.05 157.55 L563.35 157.15 Q562.15 156.85 561.0 157.45 559.9 157.95 559.35 159.05 558.45 160.85 556.9 162.35 552.95 166.15 549.6 165.75 546.0 164.8 542.7 159.3 L541.65 158.15 Q540.9 157.7 540.15 157.65 L536.55 157.5 Q533.45 157.75 530.45 157.45 L530.4 157.45 Q527.35 157.1 525.1 154.9 521.35 151.15 516.8 148.7 L514.1 148.5 Q512.65 148.9 512.0 150.2 511.35 151.4 510.1 152.35 L510.1 152.45 Q507.3 154.5 503.4 154.5 500.05 154.5 497.45 152.95 496.55 152.35 495.55 152.35 494.5 152.35 493.65 152.95 L493.4 153.15 493.3 153.2 Q488.2 156.9 481.85 154.65 L479.45 154.7 Q478.25 155.1 477.6 156.25 475.85 159.3 473.9 160.05 472.05 160.25 469.75 158.55 468.95 157.95 467.95 157.85 467.0 157.75 466.1 158.25 459.95 161.0 452.45 157.85 L452.35 157.8 452.3 157.7 Q451.75 156.9 450.9 156.55 450.15 156.1 449.2 156.15 443.9 156.15 441.15 150.75 438.8 146.1 438.95 140.6 439.05 136.05 442.1 132.7 L446.5 128.0 447.25 126.7 447.4 125.15 Q446.95 121.65 447.6 118.45 451.4 121.85 454.7 117.7 L455.6 116.2 Q459.55 117.8 464.7 117.9 469.45 118.0 470.6 113.75 474.5 99.25 461.75 102.3 L463.0 101.15 464.55 99.25 Q470.3 100.3 474.65 91.15 L475.8 88.55 Q477.3 88.3 478.7 87.3 486.35 91.4 491.7 80.4 L493.2 76.9 496.15 77.5 498.15 79.65 Q505.45 91.95 515.5 81.35 L517.75 78.75 519.2 77.15 Q519.65 80.3 522.5 81.35 L526.45 81.55 Q520.8 85.95 525.55 94.6 531.65 105.85 540.55 96.7 M527.65 80.75 L527.45 80.85 527.55 80.7 527.65 80.75 M548.0 138.85 L545.65 138.9 Q544.45 139.4 543.85 140.45 543.2 141.55 543.45 142.8 543.6 144.0 544.5 144.9 L545.05 145.3 Q546.05 146.3 547.5 146.3 548.7 146.3 549.6 145.65 L549.9 145.95 Q550.9 147.0 552.35 147.0 553.55 147.0 554.45 146.25 555.45 145.6 555.8 144.45 556.3 143.1 555.65 141.75 555.0 140.45 553.6 140.0 L552.3 139.8 Q551.25 139.8 550.35 140.4 L550.05 140.0 Q549.35 139.2 548.35 138.95 L548.0 138.85 M573.05 141.55 L573.0 141.4 573.0 141.35 573.05 141.55 M573.0 141.05 L573.0 140.8 573.1 141.2 573.05 141.25 573.0 141.05 M573.1 141.35 L573.3 142.15 573.1 141.75 573.1 141.55 573.1 141.35" fill="#c6c6ad" fill-rule="evenodd" stroke="none"/>
    <path d="M502.45 129.8 Q509.6 135.0 512.8 127.7 513.5 129.2 515.1 130.3 519.95 133.65 522.8 129.05 L523.1 128.55 524.95 128.65 525.2 128.65 Q524.45 130.5 526.85 132.7 528.3 134.0 529.45 133.45 L529.6 133.75 Q531.45 137.05 533.75 134.0 L534.4 133.0 535.0 133.7 Q536.35 135.2 537.55 134.7 L538.45 135.35 Q539.55 140.15 543.45 136.35 544.1 138.3 547.15 139.45 549.4 140.3 550.0 138.05 L550.15 137.7 Q551.25 137.9 552.4 136.2 L553.05 135.05 553.1 135.25 Q554.75 138.55 557.15 135.75 558.5 134.1 558.2 133.0 L558.55 132.7 558.85 132.5 559.15 133.05 Q561.2 136.05 563.3 133.0 L563.4 132.85 563.85 133.05 563.9 133.15 Q565.65 136.2 567.8 133.75 568.75 134.6 569.7 134.55 L569.75 134.75 568.85 134.9 Q564.9 135.15 565.65 138.7 566.55 143.15 570.35 140.6 572.1 141.55 573.3 140.2 L573.3 140.65 Q573.45 141.85 574.45 142.65 575.1 143.4 575.3 144.65 575.55 145.65 576.35 146.45 578.9 149.2 576.1 152.6 L576.1 152.65 Q574.75 154.3 572.55 154.45 L571.55 154.7 Q569.4 155.5 566.4 155.3 L563.7 154.9 Q562.5 154.6 561.4 155.2 560.25 155.65 559.7 156.8 558.8 158.6 557.25 160.1 553.3 163.85 549.95 163.5 546.35 162.55 543.05 157.05 542.65 156.3 542.0 155.9 541.25 155.4 540.5 155.35 L536.9 155.25 Q533.8 155.5 530.8 155.2 L530.75 155.2 Q527.7 154.8 525.5 152.6 521.7 148.9 517.15 146.45 L514.45 146.2 Q513.05 146.6 512.35 147.95 511.7 149.15 510.45 150.1 L510.45 150.15 Q507.65 152.25 503.75 152.25 500.4 152.25 497.85 150.7 496.95 150.1 495.9 150.1 494.85 150.1 494.0 150.7 L493.75 150.85 493.65 150.95 Q488.55 154.65 482.2 152.35 L479.8 152.45 Q478.6 152.85 477.95 154.0 476.25 157.05 474.25 157.75 472.4 158.0 470.1 156.25 469.3 155.65 468.35 155.6 467.35 155.5 466.45 155.95 460.3 158.7 452.85 155.6 L452.7 155.55 452.65 155.4 Q452.1 154.65 451.25 154.3 450.5 153.8 449.55 153.85 444.25 153.85 441.5 148.5 439.2 143.8 439.3 138.3 439.4 133.75 442.5 130.4 L446.85 125.75 447.6 124.4 447.75 122.85 447.55 119.95 448.35 121.05 Q448.8 121.65 449.4 121.8 451.65 122.35 453.35 121.2 453.05 122.15 452.35 122.85 449.8 125.6 452.6 129.05 L452.6 129.1 Q453.95 130.7 456.1 130.9 L457.15 131.1 Q459.3 131.9 462.3 131.7 L465.0 131.3 465.05 131.3 Q465.05 132.0 465.5 133.0 467.15 135.95 469.35 133.8 470.1 135.25 471.45 136.5 475.4 140.3 478.75 139.9 482.35 138.95 485.6 133.45 L486.7 132.3 Q487.4 131.85 488.2 131.8 L491.8 131.65 Q494.9 131.9 497.9 131.6 L497.95 131.6 Q500.45 131.3 502.45 129.8 M451.8 107.9 L451.55 108.0 451.5 108.0 451.75 107.65 451.8 107.9 M536.25 128.15 L535.3 128.65 535.35 128.5 535.75 127.85 536.25 128.15 M560.8 136.05 L560.0 136.4 Q555.3 139.25 560.1 141.75 562.7 143.1 563.95 140.8 566.55 136.2 560.8 136.05 M573.65 139.85 L573.6 139.75 573.65 139.7 Q573.85 140.3 573.65 139.85" fill="#b8b89f" fill-rule="evenodd" stroke="none"/>
    <path d="M224.9 109.75 L224.9 109.35 225.5 109.15 224.9 109.75 M220.3 110.35 L220.15 110.25 220.35 110.2 220.3 110.35 M236.6 52.6 L235.7 53.2 234.85 53.4 Q234.0 53.7 233.55 54.4 233.2 54.95 233.15 55.6 231.55 57.45 230.7 60.0 L228.85 60.35 Q227.05 60.3 226.55 61.9 L225.6 65.1 Q225.1 66.85 223.9 68.25 L216.6 67.95 Q211.35 68.5 208.8 73.0 208.0 74.6 207.8 76.45 L207.65 76.6 206.2 77.0 Q205.5 77.2 205.05 77.75 204.5 78.4 204.5 79.25 204.5 80.2 205.15 80.9 200.3 82.75 197.95 87.65 L196.95 90.15 Q194.9 91.0 195.2 93.3 195.4 94.55 195.9 95.75 L195.9 97.15 195.4 97.15 Q193.05 97.2 193.35 99.35 193.7 101.75 195.1 103.9 L197.5 107.35 197.45 107.6 197.4 107.85 197.35 108.1 197.35 108.65 197.35 108.85 197.5 109.3 Q196.0 110.6 195.55 112.95 190.85 117.65 195.55 123.3 197.7 125.95 201.15 126.25 203.75 127.3 207.55 127.05 L210.65 126.6 Q211.7 128.85 213.65 130.7 224.15 140.7 232.25 127.05 L235.0 127.0 Q238.25 127.25 241.45 126.9 245.5 126.45 248.45 123.5 251.65 120.35 255.55 118.3 256.45 120.05 258.25 121.45 261.75 124.2 266.65 124.2 270.9 124.2 274.05 122.15 L274.25 122.3 Q280.45 126.85 288.2 124.1 293.15 132.9 300.55 127.35 307.7 130.7 316.25 127.05 317.3 126.65 317.9 125.7 324.95 125.9 328.6 118.75 331.2 113.6 331.05 107.55 330.95 101.95 327.2 97.85 L323.05 93.4 Q324.1 84.8 319.4 77.7 316.45 73.3 312.65 69.8 312.05 68.3 311.3 67.5 L310.9 66.25 310.65 65.8 310.05 65.4 308.2 64.7 307.2 64.25 308.5 61.8 Q312.05 55.0 307.3 49.4 299.3 40.0 288.35 42.5 L287.8 42.1 281.55 37.7 Q279.8 36.55 277.7 36.85 273.05 38.25 268.6 40.8 263.95 43.45 260.95 46.85 254.6 45.3 248.7 42.3 245.2 42.1 242.1 43.6 239.0 45.15 237.4 48.15 236.3 50.2 236.6 52.6" fill="#d2d2bf" fill-rule="evenodd" stroke="none"/>
    <path d="M244.0 50.9 L244.15 51.0 244.05 50.8 244.0 50.9 M231.75 66.0 L229.75 63.75 229.15 66.0 229.1 66.0 Q228.35 68.45 226.75 70.4 L225.3 71.35 224.25 71.5 Q223.15 74.75 218.2 77.45 213.55 80.05 211.4 76.6 L211.4 76.75 211.05 77.85 Q210.35 79.35 209.4 79.55 L208.85 79.8 208.6 79.85 208.75 80.5 Q208.9 81.6 208.25 82.6 207.7 83.55 206.65 83.95 203.05 85.4 201.25 89.05 L200.45 91.2 199.65 92.45 198.85 93.05 199.25 94.3 Q199.6 95.05 199.55 95.85 L199.55 97.05 Q199.6 98.3 198.75 99.25 L197.35 100.25 198.25 102.1 198.2 102.1 200.45 105.3 201.05 106.6 Q201.25 107.35 201.05 108.15 L201.0 108.3 Q201.2 109.05 201.05 109.8 200.9 110.95 200.0 111.7 199.35 112.4 199.15 113.6 198.9 114.55 198.2 115.3 195.75 117.9 198.4 121.15 L198.4 121.2 Q199.7 122.75 201.75 122.9 L202.7 123.1 207.6 123.7 210.15 123.3 Q211.3 123.0 212.35 123.6 213.45 124.05 213.95 125.1 214.8 126.8 216.25 128.25 220.0 131.8 223.2 131.45 226.6 130.55 229.7 125.35 230.1 124.65 230.75 124.25 231.4 123.8 232.15 123.75 L235.55 123.65 Q238.5 123.85 241.35 123.6 L241.4 123.6 Q244.3 123.25 246.4 121.15 249.95 117.6 254.25 115.3 255.5 114.65 256.8 115.05 258.15 115.45 258.8 116.7 259.4 117.85 260.6 118.75 L260.6 118.8 Q263.3 120.8 266.95 120.8 270.15 120.8 272.6 119.3 273.45 118.75 274.4 118.75 275.4 118.75 276.2 119.3 L276.45 119.5 276.55 119.55 Q281.35 123.05 287.4 120.9 L289.65 120.95 Q290.8 121.35 291.4 122.45 293.05 125.35 294.9 126.0 296.7 126.25 298.85 124.6 299.65 124.05 300.55 123.95 301.45 123.85 302.3 124.3 308.15 126.9 315.2 123.95 L315.35 123.9 315.4 123.8 Q315.9 123.05 316.7 122.75 317.45 122.25 318.35 122.35 323.35 122.35 325.95 117.2 328.15 112.8 328.05 107.6 327.9 103.3 325.05 100.1 L320.9 95.7 320.15 94.45 Q319.95 93.7 320.05 92.95 320.45 89.65 319.8 86.6 316.25 89.85 313.1 85.9 L312.25 84.5 Q308.55 86.0 303.65 86.1 299.1 86.2 298.05 82.2 294.35 68.4 306.45 71.3 L305.25 70.2 303.75 68.4 Q298.3 69.4 294.2 60.75 L293.1 58.3 Q291.7 58.05 290.4 57.1 283.1 60.95 278.0 50.55 L276.6 47.25 273.8 47.8 Q273.05 49.05 271.95 49.85 265.05 61.5 255.5 51.45 L253.35 49.0 252.0 47.5 Q251.55 50.5 248.85 51.45 L245.15 51.65 Q250.45 55.8 246.0 64.05 240.2 74.7 231.75 66.0 M224.7 105.95 L226.95 106.0 Q228.05 106.45 228.65 107.45 229.25 108.5 229.05 109.7 228.85 110.8 228.0 111.65 L227.5 112.05 Q226.55 113.05 225.15 113.05 224.05 113.05 223.2 112.4 L222.9 112.7 Q221.95 113.65 220.6 113.65 219.45 113.65 218.6 112.95 217.65 112.35 217.3 111.25 216.85 109.95 217.45 108.7 218.1 107.45 219.4 107.0 L220.65 106.85 Q221.6 106.85 222.45 107.4 L222.75 107.0 Q223.4 106.3 224.4 106.05 L224.7 105.95 M200.95 108.5 L201.0 108.4 201.0 108.3 200.95 108.5 M201.0 108.05 L201.0 107.8 200.9 108.15 200.95 108.2 201.0 108.05 M200.9 108.3 Q200.5 109.55 200.75 109.05 L200.9 108.7 200.9 108.5 200.9 108.3" fill="#c6c6ad" fill-rule="evenodd" stroke="none"/>
    <path d="M267.85 97.4 Q261.05 102.3 258.05 95.4 257.4 96.8 255.85 97.85 251.25 101.0 248.6 96.65 L248.3 96.2 246.55 96.3 246.3 96.3 Q247.0 98.05 244.75 100.1 243.35 101.35 242.3 100.85 L242.15 101.1 Q240.35 104.25 238.2 101.35 L237.6 100.4 237.0 101.05 Q235.7 102.5 234.6 102.05 L233.75 102.65 Q232.7 107.2 229.05 103.55 228.4 105.45 225.5 106.5 223.35 107.3 222.8 105.2 L222.7 104.85 Q221.6 105.05 220.5 103.45 L219.9 102.35 219.85 102.55 Q218.3 105.65 216.05 103.0 214.75 101.45 215.0 100.4 L214.7 100.1 214.4 99.95 214.1 100.45 Q212.2 103.3 210.2 100.4 L210.1 100.25 209.7 100.45 209.65 100.55 Q208.0 103.45 205.95 101.1 205.05 101.9 204.15 101.85 L204.1 102.1 204.95 102.2 Q208.65 102.4 208.0 105.85 207.15 110.0 203.5 107.6 201.85 108.5 200.75 107.25 L200.75 107.65 Q200.55 108.8 199.65 109.55 199.05 110.25 198.8 111.45 198.6 112.4 197.85 113.15 195.4 115.75 198.05 119.0 L198.05 119.05 Q199.35 120.55 201.4 120.75 L202.4 120.95 Q204.4 121.7 207.25 121.55 L209.8 121.15 Q210.95 120.85 212.0 121.4 213.1 121.85 213.6 122.95 214.45 124.65 215.95 126.05 219.65 129.65 222.85 129.3 226.25 128.4 229.35 123.2 229.75 122.5 230.4 122.1 231.05 121.65 231.8 121.6 L235.2 121.5 Q238.15 121.7 241.0 121.4 L241.05 121.4 Q243.95 121.1 246.05 119.0 249.6 115.45 253.9 113.15 255.15 112.5 256.45 112.9 257.85 113.3 258.45 114.55 259.1 115.7 260.25 116.6 L260.25 116.65 Q262.95 118.65 266.6 118.65 269.8 118.65 272.25 117.15 273.1 116.6 274.05 116.6 275.05 116.6 275.85 117.15 L276.1 117.35 276.2 117.4 Q281.05 120.9 287.05 118.75 L289.3 118.8 Q290.45 119.2 291.05 120.3 292.7 123.2 294.6 123.85 296.35 124.1 298.5 122.45 299.3 121.85 300.2 121.8 301.1 121.7 301.95 122.15 307.8 124.75 314.9 121.8 L315.0 121.75 315.05 121.65 Q315.55 120.9 316.35 120.55 317.1 120.1 318.0 120.15 323.0 120.15 325.6 115.05 327.8 110.65 327.7 105.45 327.6 101.1 324.7 97.95 L320.55 93.5 319.8 92.25 Q319.6 91.55 319.7 90.8 L319.85 88.0 319.15 89.1 318.1 89.8 Q316.0 90.3 314.35 89.2 314.65 90.1 315.35 90.8 317.75 93.4 315.1 96.65 L315.1 96.7 Q313.8 98.25 311.75 98.4 L310.8 98.65 305.9 99.2 303.35 98.8 303.3 98.8 302.85 100.4 Q301.35 103.2 299.25 101.2 L297.25 103.75 Q293.5 107.3 290.35 106.95 286.9 106.05 283.8 100.85 L282.8 99.75 Q282.1 99.3 281.35 99.25 L277.95 99.15 Q275.0 99.35 272.2 99.1 L272.1 99.1 Q269.75 98.8 267.85 97.4 M315.85 76.6 L316.05 76.75 316.15 76.75 315.9 76.4 315.85 76.6 M235.85 95.8 L236.75 96.3 236.7 96.15 236.3 95.5 235.85 95.8 M212.6 103.3 L213.3 103.6 Q217.8 106.35 213.2 108.7 210.75 109.95 209.6 107.8 207.15 103.45 212.6 103.3 M200.4 106.9 L200.45 106.8 200.4 106.75 Q200.2 107.3 200.4 106.9" fill="#b8b89f" fill-rule="evenodd" stroke="none"/>
    <path d="M162.25 66.85 Q165.5 77.05 157.8 85.7 121.55 74.45 72.75 73.05 72.7 71.8 71.85 71.8 71.15 71.8 70.8 72.2 L70.65 72.5 Q70.2 72.6 69.65 72.95 36.95 71.8 0.0 66.75 -0.05 56.4 7.3 48.75 11.55 44.15 16.7 47.75 18.6 49.0 20.15 50.65 21.0 50.6 20.9 48.35 20.85 45.4 21.7 42.8 23.35 37.6 27.95 37.6 30.65 37.6 32.15 39.1 L33.75 41.2 Q34.7 36.6 36.6 34.75 38.05 33.25 40.5 33.25 43.25 33.25 44.85 35.25 46.75 33.15 48.95 31.9 47.8 30.6 47.8 29.3 47.8 25.65 53.25 24.85 L55.8 24.55 Q56.4 21.65 57.55 18.8 60.75 10.85 67.3 8.25 73.85 5.75 79.65 5.0 85.0 5.05 90.05 7.2 95.4 9.5 98.1 15.2 L98.6 16.15 99.85 16.05 Q104.55 16.55 107.95 20.4 L108.5 21.1 111.0 19.2 Q123.05 8.05 124.8 17.45 125.9 23.7 129.05 29.35 131.9 27.95 135.2 27.95 141.55 27.85 138.4 34.65 L137.7 35.9 138.3 35.9 141.45 36.2 Q142.55 36.6 143.15 37.8 143.85 39.1 143.85 40.75 143.85 42.95 143.2 45.05 L143.35 45.8 143.55 46.25 143.6 46.35 143.95 46.5 146.0 46.95 Q146.6 47.15 147.15 47.6 L147.8 48.4 Q148.2 48.95 148.2 49.65 L148.3 50.9 Q158.1 51.6 160.95 62.8 L162.25 66.75 162.25 66.85 M117.35 24.55 Q117.35 25.65 117.95 23.85 118.55 22.4 117.85 22.45 117.35 23.5 117.35 24.55 M102.15 22.1 L102.7 22.95 103.25 22.9 102.15 22.1 M102.15 62.05 L103.55 60.95 Q102.8 61.3 102.1 61.9 L101.9 62.0 102.15 62.05 M62.0 42.55 L61.95 42.55 61.95 42.7 62.0 42.55 M67.4 64.35 L68.0 64.0 67.95 62.95 67.4 64.35" fill="#d6ddde" fill-rule="evenodd" stroke="none"/>
    <path d="M162.25 66.85 L162.45 67.4 Q165.1 74.6 161.45 80.85 159.7 83.8 157.8 85.7 165.5 77.05 162.25 66.85 M72.75 73.05 Q121.55 74.45 157.8 85.7 150.8 92.65 141.1 86.15 139.1 84.85 139.35 82.05 138.45 81.85 137.2 82.7 135.6 83.8 134.3 85.2 130.4 89.3 126.2 85.95 124.85 84.9 124.5 83.1 124.05 83.3 123.55 83.85 122.65 85.2 121.4 85.95 117.0 88.65 114.75 84.35 113.7 82.25 113.95 79.7 L113.45 79.9 111.75 81.2 110.3 82.25 Q108.3 83.6 106.0 82.7 L105.45 82.4 Q100.9 87.2 95.7 90.75 93.1 92.45 90.15 93.85 86.2 95.8 84.75 91.55 82.45 94.25 79.45 96.0 L78.55 96.45 78.6 96.0 Q78.6 95.15 77.75 95.15 76.8 95.15 76.8 96.0 L76.95 96.5 77.2 96.8 75.5 96.7 75.95 96.35 76.15 95.75 Q76.15 94.9 75.3 94.9 L75.05 94.95 Q74.7 94.55 74.1 94.55 73.15 94.55 73.05 95.2 L72.3 94.35 Q73.25 94.35 73.25 93.45 73.25 92.85 72.75 92.6 L72.9 91.85 Q72.9 90.75 72.05 90.8 71.4 90.85 71.2 91.45 71.15 90.25 71.55 88.9 L70.8 88.65 Q70.6 88.1 69.55 87.6 L69.05 87.45 68.8 87.1 Q69.35 86.95 69.35 86.25 69.35 85.25 68.3 84.8 L67.85 84.7 67.85 84.55 68.2 84.3 68.4 83.75 68.25 82.9 68.45 82.55 68.65 81.7 68.45 81.05 69.25 80.4 69.6 79.6 69.6 79.25 Q70.45 79.25 70.45 78.2 L70.45 78.15 71.05 77.6 71.35 76.75 Q71.35 76.2 71.15 76.0 L72.25 74.95 Q72.75 74.1 72.75 73.15 L72.75 73.05 M69.65 72.95 L68.85 73.5 67.8 74.45 67.25 74.3 Q66.0 74.3 65.45 75.15 65.1 75.7 65.1 76.45 L65.1 76.6 60.05 79.8 Q54.65 83.25 41.1 79.55 38.2 87.3 28.15 90.75 13.75 95.85 5.1 83.5 1.65 78.85 0.65 72.85 0.05 69.7 0.0 66.75 36.95 71.8 69.65 72.95" fill="#b7c2c4" fill-rule="evenodd" stroke="none"/>
    <path d="M63.3 22.25 L63.25 22.15 63.95 20.85 63.3 22.25 M75.45 8.95 L75.7 9.15 75.45 9.45 75.45 8.95 M159.9 77.75 L159.1 79.45 158.5 80.45 156.45 79.2 Q157.8 79.1 159.9 77.75 M84.25 8.3 L83.75 9.15 Q83.4 9.6 83.55 10.05 L83.1 9.95 83.2 9.05 83.9 8.2 84.3 8.25 84.25 8.3 M92.35 11.95 L92.7 12.25 92.05 13.05 90.75 14.6 91.3 13.7 92.35 11.95 M122.9 22.2 L123.0 22.1 Q123.9 25.25 125.3 28.2 124.8 29.0 124.45 30.0 123.4 32.85 126.4 32.35 L127.75 31.8 128.2 32.0 130.25 31.9 Q131.75 31.1 133.5 30.9 L133.25 31.25 131.2 33.7 Q130.25 34.75 130.45 36.05 130.95 39.45 133.6 36.9 L135.0 35.5 135.0 36.35 Q135.1 37.4 135.9 38.1 136.65 38.7 137.7 38.7 L138.3 38.7 138.95 38.65 140.4 38.8 140.5 38.85 140.6 39.0 140.7 39.1 140.95 39.9 140.85 40.05 Q138.95 42.35 139.3 44.9 139.9 49.45 142.2 48.8 142.9 49.25 143.85 49.3 L145.1 49.6 145.15 49.6 145.2 49.65 145.45 49.9 145.5 51.25 Q145.65 52.2 146.4 52.9 L146.45 53.05 Q145.45 61.3 152.4 56.4 L153.5 55.65 Q155.1 56.75 156.3 58.65 154.65 60.65 153.65 63.45 151.75 69.1 157.6 68.75 L158.1 68.75 Q156.7 69.85 155.55 71.25 154.15 72.85 154.05 74.85 153.9 77.15 154.55 78.25 148.35 75.35 135.75 71.5 123.45 67.8 110.25 64.85 L85.45 59.85 75.95 59.85 Q62.35 60.9 52.8 62.8 47.4 63.9 39.7 65.95 L32.2 68.15 Q27.7 69.35 21.55 69.6 16.45 69.8 10.1 71.45 L3.5 72.75 3.4 72.35 Q2.35 67.3 3.15 62.8 L4.25 61.05 6.2 57.4 Q7.55 55.2 7.85 53.5 L9.0 54.85 Q12.0 57.65 13.5 53.95 L13.65 53.6 13.65 53.85 Q13.65 54.65 13.95 55.2 14.6 56.4 16.4 56.4 17.3 56.4 18.25 55.4 L19.15 56.3 19.5 56.9 19.65 56.95 20.5 56.9 20.75 56.55 22.1 55.8 23.0 55.85 23.35 55.65 23.75 54.85 24.15 54.35 Q25.3 55.8 27.35 55.8 29.85 55.8 30.6 53.4 L30.8 52.05 30.85 51.9 31.55 50.75 32.2 49.7 32.25 49.7 Q33.35 52.25 36.25 52.25 38.8 52.25 40.25 49.1 L40.55 48.5 Q39.5 48.0 38.9 47.25 L38.1 45.15 Q38.1 44.3 38.95 43.15 40.0 41.7 40.35 40.35 40.35 39.25 41.0 37.95 42.05 35.9 44.25 35.9 45.6 35.9 46.5 36.65 47.35 37.4 47.55 37.4 L49.5 36.6 50.8 36.45 52.1 36.3 Q52.35 36.15 53.45 35.55 L54.95 34.5 56.1 32.65 Q56.8 31.75 58.15 31.25 58.5 30.05 58.05 29.1 58.2 25.65 59.3 22.35 L59.35 22.3 Q58.7 23.9 59.25 25.25 L59.5 25.2 60.0 24.55 60.25 24.0 Q61.25 26.1 63.4 26.1 66.25 26.1 67.4 21.45 68.0 19.05 68.0 16.35 L67.95 14.35 68.3 13.7 Q70.3 14.8 70.75 11.8 L70.95 11.65 70.95 12.0 71.35 12.25 72.0 12.3 72.05 12.3 Q72.8 13.5 74.65 13.5 76.65 13.5 78.7 11.0 L79.6 10.05 80.05 11.8 Q81.1 13.65 83.7 13.65 85.55 13.65 87.15 12.3 L88.0 11.9 88.55 11.25 88.1 12.25 87.05 13.9 86.0 15.55 Q85.5 16.35 86.05 17.05 L86.25 17.1 87.05 17.05 87.25 16.75 87.6 16.35 87.95 16.0 Q88.2 15.55 88.3 15.65 L87.6 16.6 86.9 17.65 86.55 18.65 Q86.35 19.2 86.6 19.75 L88.15 19.7 89.4 18.55 90.5 17.5 90.1 18.3 89.25 19.7 88.45 21.0 Q87.85 21.75 88.5 22.4 89.05 22.75 89.7 22.4 L90.75 21.55 Q91.2 21.0 91.5 21.0 91.4 21.3 91.65 21.5 92.2 22.05 92.8 21.7 93.45 21.35 93.45 21.7 93.65 22.8 94.85 22.4 95.75 22.05 96.35 21.35 L97.5 20.1 97.4 20.4 97.15 20.95 96.95 21.35 96.85 21.75 97.05 22.45 97.2 22.55 97.7 22.75 98.4 22.7 98.1 23.35 97.55 24.05 97.4 24.65 97.55 25.25 97.75 25.4 Q99.25 25.75 100.2 24.15 L101.65 22.05 103.15 20.6 103.15 20.65 102.7 21.3 101.75 22.7 101.1 23.85 Q100.9 24.55 101.4 25.1 103.2 25.0 104.65 23.25 L105.55 22.1 106.05 22.45 106.35 22.8 Q106.95 23.65 108.0 23.85 L109.9 23.5 110.15 23.35 111.3 23.6 Q112.8 23.8 113.25 22.4 L113.3 20.85 Q114.9 19.4 116.3 18.45 L114.3 20.6 Q113.7 21.15 114.2 21.65 116.5 24.2 119.15 21.0 119.85 21.55 120.4 21.4 L120.55 21.85 Q121.45 24.0 122.9 22.2 M121.75 19.05 Q122.0 18.15 121.9 17.15 L122.0 17.95 122.2 19.05 122.0 19.0 121.75 19.05 M43.6 41.2 L43.8 41.25 Q44.45 41.25 44.7 40.7 44.45 40.55 43.65 41.1 L43.6 41.2 M75.2 32.35 Q75.4 32.0 75.0 31.95 L74.55 32.2 74.3 32.45 74.05 32.7 74.05 32.85 74.15 33.15 74.2 33.4 74.3 33.6 74.5 33.75 Q74.55 33.4 74.75 33.0 L75.2 32.35" fill="#c6c6ad" fill-rule="evenodd" stroke="none"/>
    <path d="M78.3 93.45 L78.2 93.3 78.45 93.3 78.55 93.3 78.3 93.45 M114.2 21.65 L114.75 22.1 113.25 22.4 113.3 20.85 Q114.9 19.4 116.3 18.45 L114.3 20.6 Q113.7 21.15 114.2 21.65 M125.7 39.35 L125.45 40.8 124.05 45.55 Q123.2 48.75 125.65 50.85 129.7 54.4 133.7 51.1 133.7 52.9 135.25 53.6 137.85 54.75 140.2 54.75 140.35 56.35 140.85 57.95 142.0 61.9 146.45 62.1 146.8 63.8 148.2 64.85 149.25 65.65 150.45 66.0 151.5 68.45 161.1 68.2 160.0 90.45 150.7 86.45 L150.25 86.5 150.35 86.3 Q144.4 88.3 145.05 86.2 145.75 84.1 144.0 83.7 L143.3 83.5 Q140.8 85.15 140.85 82.7 140.95 79.75 140.35 80.0 139.7 80.2 138.05 81.45 136.4 82.65 135.65 80.4 L135.6 80.4 132.95 82.6 132.35 82.45 Q131.05 82.4 131.05 83.65 L131.1 84.2 129.0 84.4 129.0 84.1 Q129.0 82.85 127.65 82.85 L127.4 82.9 127.3 82.6 Q127.25 82.4 125.05 82.05 126.95 81.6 126.55 81.15 125.9 80.5 125.1 80.4 L123.4 80.5 Q122.45 80.85 121.45 82.05 L121.25 82.35 119.95 83.6 Q118.9 84.2 118.2 84.2 L116.2 82.9 Q114.7 81.8 115.4 80.45 L115.85 79.35 115.5 79.1 115.5 79.05 115.5 78.95 Q115.5 77.55 114.3 77.55 113.65 77.55 113.35 77.95 112.15 77.4 111.9 77.6 L110.25 78.9 109.5 78.65 Q108.1 78.5 108.1 79.8 L108.15 80.2 107.05 80.1 Q106.2 79.55 105.3 80.5 L101.8 84.2 Q100.65 85.45 98.9 86.45 L98.55 86.3 Q96.85 85.65 96.85 87.35 L96.9 87.45 94.15 88.45 89.0 91.3 87.95 91.65 87.65 91.3 87.65 91.15 Q87.65 89.7 86.65 89.5 L86.2 89.15 Q85.3 88.6 84.3 88.8 83.4 88.95 82.85 89.5 L82.5 89.35 Q80.9 88.7 80.9 90.4 L81.2 91.25 79.65 92.55 79.75 92.05 Q79.75 90.8 78.45 90.75 77.15 90.7 77.15 91.95 77.15 92.65 77.55 93.0 L77.5 93.0 77.3 93.0 Q77.25 92.3 76.45 92.3 75.5 92.3 75.5 93.15 L75.6 93.6 75.65 93.7 75.0 93.2 74.9 93.2 74.75 93.05 74.85 92.5 Q74.85 91.65 74.1 91.65 73.9 90.75 74.2 89.7 L74.3 88.2 74.3 88.1 74.45 87.45 Q74.45 86.25 73.15 86.15 L72.45 86.25 72.2 86.15 Q71.3 85.85 70.9 85.0 L70.9 84.95 71.2 84.1 Q71.2 83.15 70.6 82.9 L70.8 82.25 70.85 82.1 72.65 77.65 Q73.2 77.6 73.2 77.05 L73.0 76.65 73.05 76.45 73.1 76.35 73.4 75.25 Q74.05 75.25 74.45 74.85 L74.75 74.05 Q74.65 73.05 74.05 72.95 L73.9 71.75 74.0 70.85 Q74.0 69.55 73.05 69.55 72.35 69.55 72.0 70.0 L71.75 70.5 Q70.7 70.95 69.0 72.35 67.95 73.15 64.1 74.6 64.85 75.5 63.0 76.75 60.2 78.55 58.6 77.5 L58.6 77.45 Q57.2 79.4 55.25 80.2 L55.65 78.95 Q55.65 77.0 53.85 78.0 52.15 78.9 52.05 80.8 L49.75 80.55 Q49.45 80.0 48.7 80.05 L48.25 80.15 46.4 79.65 Q46.1 78.7 45.2 78.65 44.5 78.6 44.2 79.05 L42.75 78.65 Q42.45 77.95 41.45 77.95 L40.65 78.1 40.55 78.1 Q40.15 77.65 39.35 77.7 37.85 77.75 37.85 79.2 L37.95 79.85 36.5 82.1 35.55 81.9 Q34.1 81.85 34.1 83.5 34.1 84.0 34.25 84.35 L30.1 86.95 Q29.85 86.1 28.7 86.05 27.2 86.05 27.2 87.75 L27.25 88.1 27.25 88.2 24.35 89.05 Q23.85 88.5 22.7 88.8 21.75 89.05 21.3 89.45 L19.7 89.45 Q19.45 89.15 19.0 89.1 L17.55 88.6 Q16.8 88.2 16.15 88.2 L15.1 88.45 12.85 87.25 10.7 85.65 9.85 84.85 Q10.4 84.55 10.4 83.75 10.4 82.95 7.15 81.25 L6.85 81.1 Q4.2 77.25 3.4 72.35 2.6 68.2 2.95 64.4 L6.1 61.95 6.05 63.1 6.2 63.95 Q6.6 64.8 7.65 64.8 9.35 64.8 9.5 63.2 L9.45 62.0 10.5 62.25 10.6 62.25 11.15 62.85 Q11.35 64.6 12.05 66.3 12.8 68.1 14.5 67.3 17.45 65.85 20.0 63.75 L21.0 63.9 Q22.6 63.9 24.0 61.7 L24.1 63.35 29.6 63.15 Q36.8 63.3 39.7 58.2 46.15 62.25 50.3 51.2 49.75 56.0 54.55 56.6 59.15 57.15 61.4 52.65 63.0 49.15 65.15 46.3 65.85 49.1 68.65 49.65 74.15 50.85 76.7 45.65 78.25 42.6 80.7 40.4 80.6 42.0 81.65 43.15 86.0 47.9 90.75 43.1 93.3 40.5 95.35 38.85 93.6 42.0 93.05 45.55 92.25 49.9 96.7 50.15 102.25 50.4 105.2 45.45 L104.55 47.6 Q103.55 51.05 106.2 52.85 113.1 57.4 118.05 49.7 121.6 44.35 125.7 39.35 M122.9 22.2 L123.0 22.1 124.6 26.65 Q123.15 27.55 121.95 28.6 L121.75 25.75 Q121.3 22.25 118.25 21.9 L119.15 21.0 Q119.85 21.55 120.4 21.4 L120.55 21.85 Q121.45 24.0 122.9 22.2 M121.75 19.05 Q122.0 18.15 121.9 17.15 L122.0 17.95 122.2 19.05 122.0 19.0 121.75 19.05" fill="#b8b89f" fill-rule="evenodd" stroke="none"/>
    <path d="M-676.5 54.05 Q-674.85 60.4 -681.15 64.6 -683.55 66.15 -686.15 66.2 L-687.4 66.25 Q-694.4 75.15 -704.6 68.7 -706.35 67.55 -706.05 65.2 L-707.55 65.4 -708.0 65.75 -709.5 66.7 -710.75 67.75 Q-714.4 71.15 -718.1 68.3 -719.3 67.45 -719.5 65.9 L-720.4 66.55 Q-721.3 67.6 -722.45 68.25 -725.3 69.85 -727.05 68.5 -730.2 69.65 -733.35 69.45 L-733.55 69.45 -734.65 71.4 Q-736.65 74.35 -739.55 74.35 -741.9 74.35 -743.7 72.4 L-745.9 73.75 Q-748.9 75.45 -752.15 76.65 -753.95 77.35 -755.5 77.1 -758.7 79.35 -762.8 79.35 -767.85 79.35 -771.45 75.9 -774.75 72.8 -775.0 68.45 L-775.1 68.5 Q-778.2 71.85 -782.65 71.85 -787.05 71.85 -790.2 68.5 L-791.0 67.6 -791.45 67.2 -792.1 66.5 -794.0 67.3 Q-796.2 68.15 -798.15 67.05 L-798.55 66.8 -801.45 68.95 Q-803.8 71.95 -806.75 74.2 -811.65 77.65 -817.65 77.25 -820.05 77.15 -822.2 75.85 -824.0 76.75 -825.65 77.9 L-829.9 78.05 Q-831.2 77.3 -831.55 75.95 -834.45 78.2 -838.35 78.2 -842.95 78.2 -846.25 75.1 -849.45 72.0 -849.45 67.7 -849.45 63.35 -846.25 60.25 L-844.95 59.25 -845.4 58.1 -846.25 57.35 Q-849.45 54.3 -849.45 49.95 -849.45 45.65 -846.25 42.55 -843.55 40.0 -839.9 39.6 -839.65 35.0 -836.7 31.6 -833.35 28.0 -828.7 28.0 -826.25 28.0 -824.15 29.05 -823.25 26.5 -821.35 24.4 -817.6 20.35 -812.3 20.35 -808.7 20.35 -805.8 22.3 -805.55 18.4 -803.0 15.55 -800.15 12.4 -796.15 12.4 -792.1 12.4 -789.25 15.55 -788.05 16.9 -787.3 18.5 -785.0 15.25 -781.7 15.25 -780.7 15.25 -779.8 15.6 -778.75 13.75 -777.1 12.05 -772.8 7.5 -767.6 4.0 -763.65 1.35 -759.55 0.0 -754.6 0.05 -750.15 2.0 -745.45 3.95 -742.95 8.45 -741.35 7.2 -739.3 7.2 -736.25 7.2 -734.15 9.85 -733.3 10.9 -732.8 12.15 -732.15 10.35 -730.9 8.9 -728.2 5.85 -724.4 5.85 -720.6 5.85 -717.95 8.9 -715.3 12.0 -715.3 16.3 L-715.5 18.75 -712.5 18.35 Q-708.65 18.35 -705.95 20.65 -703.2 22.95 -703.2 26.25 L-703.25 27.1 Q-702.6 27.45 -702.25 28.15 L-702.15 28.35 -700.25 29.0 Q-697.25 26.1 -694.7 28.95 -692.1 31.85 -688.5 33.9 -687.0 34.75 -687.0 36.35 L-686.9 40.05 Q-678.3 40.3 -677.35 49.65 L-676.5 54.05 M-739.9 47.95 L-739.7 48.0 -738.35 47.1 -739.75 47.9 -739.9 47.95" fill="#d2d2bf" fill-rule="evenodd" stroke="none"/>
    <path d="M-721.15 18.15 L-721.25 19.45 Q-721.7 21.3 -720.8 23.0 -719.95 24.65 -718.2 25.35 L-714.65 25.65 -713.1 25.4 Q-711.3 25.4 -709.95 26.45 L-709.9 26.55 Q-709.2 27.15 -709.05 28.05 L-709.05 28.2 Q-709.3 29.75 -708.6 31.15 L-707.15 32.95 -705.95 34.35 Q-705.0 35.05 -703.8 35.35 -703.45 35.4 -703.05 35.6 -701.6 36.3 -699.95 36.0 -699.0 35.85 -698.2 35.4 -695.8 37.75 -692.8 39.6 L-692.8 41.7 Q-692.85 43.9 -691.3 45.5 -689.8 47.1 -687.65 47.15 -683.65 47.45 -683.2 52.0 -682.95 54.5 -682.2 57.25 L-682.2 57.2 Q-681.7 60.05 -684.65 62.0 -685.65 62.65 -686.75 62.75 L-688.45 62.85 Q-689.5 62.9 -690.45 63.45 -691.45 63.95 -692.1 64.8 -696.0 69.45 -701.35 66.6 -701.5 65.25 -702.3 64.1 -703.5 62.35 -705.45 61.9 -707.75 61.25 -710.35 62.5 -710.85 62.7 -711.3 63.0 L-711.85 63.45 -712.4 63.8 Q-712.85 64.0 -713.3 64.35 -714.2 64.95 -714.85 65.65 L-714.95 65.7 -715.15 65.85 Q-715.5 64.9 -716.25 64.15 -717.4 62.85 -719.05 62.55 -720.75 62.25 -722.2 62.9 -723.6 63.45 -724.7 64.65 L-725.0 64.9 -725.6 65.45 Q-726.15 65.2 -726.8 65.1 L-729.45 65.35 Q-731.55 66.1 -733.6 66.0 L-733.95 66.0 -734.1 66.0 Q-735.7 66.0 -736.95 66.85 -738.3 67.7 -738.9 69.15 L-739.5 70.15 -739.55 70.25 -740.15 70.9 -740.4 70.65 Q-741.75 69.15 -743.8 68.95 -745.85 68.7 -747.45 70.0 L-748.95 70.9 -749.1 71.0 Q-751.75 72.45 -754.6 73.5 L-754.65 73.55 -755.2 73.75 -757.3 73.8 Q-758.35 74.0 -759.25 74.65 -761.0 75.95 -763.4 75.9 -766.35 75.9 -768.4 73.95 L-768.4 73.9 Q-770.2 72.25 -770.3 69.95 -770.45 67.8 -771.95 66.4 -773.5 64.95 -775.6 64.95 -777.7 64.9 -779.2 66.4 L-779.55 66.7 Q-781.05 68.35 -783.2 68.4 -785.4 68.35 -786.9 66.7 L-786.95 66.7 -787.45 66.15 -788.3 65.3 -788.5 65.15 Q-789.65 63.6 -791.5 63.2 -793.35 62.7 -795.05 63.6 L-796.3 64.2 -796.8 63.9 Q-798.25 63.2 -799.9 63.4 -801.45 63.6 -802.7 64.75 L-804.8 66.3 Q-805.65 66.75 -806.2 67.55 -808.05 69.95 -810.4 71.7 L-810.5 71.8 Q-813.8 74.1 -817.85 73.8 L-818.0 73.8 Q-819.1 73.75 -820.05 73.2 -821.25 72.45 -822.55 72.4 -823.9 72.35 -825.1 73.0 -826.6 73.7 -828.0 74.55 L-829.05 73.55 Q-830.5 72.5 -832.2 72.5 -833.95 72.5 -835.4 73.6 -836.9 74.8 -838.95 74.75 -841.45 74.75 -843.2 73.1 -844.75 71.55 -844.75 69.5 -844.7 67.45 -843.2 65.9 L-843.15 65.85 -842.5 65.4 Q-840.85 64.2 -840.4 62.25 -839.95 60.35 -840.85 58.65 -841.3 56.9 -842.65 55.8 L-843.2 55.4 Q-844.75 53.85 -844.75 51.8 -844.7 49.75 -843.2 48.2 L-843.15 48.15 Q-841.75 46.9 -839.85 46.65 -838.0 46.4 -836.7 45.05 -835.4 43.6 -835.2 41.7 -835.1 38.95 -833.4 37.0 L-833.35 36.95 Q-831.65 35.1 -829.3 35.05 -828.1 35.05 -827.1 35.6 -825.75 36.25 -824.2 36.15 -822.65 35.95 -821.45 35.0 -820.3 34.05 -819.75 32.65 -819.2 31.1 -818.05 29.8 L-818.0 29.75 Q-815.85 27.5 -812.9 27.4 -810.9 27.4 -809.3 28.5 -807.7 29.55 -805.75 29.3 -803.85 29.1 -802.55 27.7 -801.2 26.3 -801.1 24.4 -801.0 22.4 -799.7 20.95 L-799.65 20.9 Q-798.4 19.55 -796.75 19.5 -795.05 19.55 -793.75 20.9 L-793.75 20.95 Q-793.15 21.6 -792.75 22.4 -792.0 24.15 -790.3 25.05 -788.55 25.9 -786.7 25.4 -784.85 25.0 -783.7 23.45 -783.05 22.55 -782.25 22.35 L-782.0 22.4 -778.6 22.3 Q-776.85 21.7 -775.9 20.1 -775.05 18.75 -773.85 17.5 -770.0 13.4 -765.25 10.2 -762.35 8.25 -759.3 7.1 -755.95 7.3 -752.85 8.65 L-752.75 8.7 Q-749.8 9.9 -748.2 12.75 -747.45 14.2 -746.1 14.95 -744.7 15.65 -743.15 15.55 -741.6 15.4 -740.35 14.45 L-739.85 14.3 Q-739.3 14.4 -738.85 15.0 -738.5 15.4 -738.3 15.95 -737.7 17.4 -736.35 18.35 -734.95 19.25 -733.35 19.25 -731.75 19.2 -730.4 18.3 -729.05 17.35 -728.5 15.8 L-727.45 14.15 Q-726.4 12.95 -725.0 12.9 -723.6 12.95 -722.5 14.2 -721.1 15.8 -721.15 18.15 M-788.7 64.95 L-788.6 65.05 -788.5 65.15 -788.7 64.95" fill="#c6c6ad" fill-rule="evenodd" stroke="none"/>
    <path d="M-731.45 48.15 L-731.25 47.95 -731.35 48.0 -731.45 48.15 Q-730.3 46.6 -728.45 46.15 -726.6 45.7 -724.95 46.6 L-723.65 47.2 -723.2 46.9 Q-721.7 46.15 -720.1 46.4 -718.5 46.6 -717.3 47.75 L-715.2 49.3 Q-714.35 49.75 -713.75 50.55 -711.9 52.95 -709.6 54.7 L-709.5 54.75 Q-706.15 57.1 -702.1 56.8 L-702.0 56.8 Q-700.9 56.7 -699.95 56.2 -698.7 55.45 -697.4 55.4 -696.1 55.35 -694.85 56.0 -693.4 56.65 -691.95 57.55 L-690.9 56.55 Q-689.5 55.5 -687.75 55.5 -686.0 55.5 -684.6 56.6 -683.6 57.35 -682.3 57.6 -681.95 60.4 -684.85 62.3 -685.85 62.95 -686.95 63.05 L-688.65 63.15 Q-689.7 63.2 -690.65 63.75 -691.65 64.25 -692.3 65.1 -696.2 69.75 -701.55 66.9 -701.65 65.55 -702.5 64.35 -703.7 62.65 -705.65 62.2 -707.95 61.5 -710.55 62.8 L-711.5 63.3 -712.05 63.75 -712.6 64.1 -713.5 64.65 -715.05 65.95 -715.1 66.0 -715.35 66.15 Q-715.7 65.2 -716.45 64.4 -717.6 63.15 -719.25 62.85 -720.9 62.5 -722.4 63.2 -723.75 63.75 -724.9 64.95 L-725.2 65.2 -725.8 65.75 Q-726.35 65.5 -727.0 65.35 L-729.65 65.65 Q-731.75 66.35 -733.8 66.25 L-734.15 66.25 -734.3 66.25 Q-735.9 66.25 -737.15 67.15 -738.5 68.0 -739.1 69.45 L-739.7 70.45 -739.75 70.55 -740.35 71.15 -740.6 70.95 Q-741.95 69.45 -743.95 69.2 -746.05 69.0 -747.65 70.3 L-749.15 71.15 -749.3 71.3 Q-751.95 72.75 -754.8 73.8 L-754.85 73.85 -755.4 74.0 -757.45 74.05 Q-758.55 74.3 -759.4 74.9 -761.2 76.25 -763.6 76.2 -766.55 76.2 -768.6 74.25 L-768.6 74.2 Q-770.4 72.55 -770.5 70.2 -770.65 68.1 -772.15 66.7 -773.7 65.25 -775.75 65.25 -777.9 65.2 -779.4 66.7 L-779.75 67.0 Q-781.25 68.65 -783.4 68.7 -785.6 68.65 -787.1 67.0 L-787.15 67.0 -787.65 66.45 -788.5 65.6 -788.7 65.4 Q-789.85 63.9 -791.7 63.45 -793.55 63.0 -795.25 63.9 L-796.5 64.45 -796.95 64.2 Q-798.45 63.45 -800.1 63.7 -801.65 63.9 -802.9 65.05 L-805.0 66.6 Q-805.85 67.05 -806.4 67.85 -808.25 70.2 -810.6 72.0 L-810.7 72.05 Q-814.0 74.4 -818.05 74.05 L-818.2 74.05 Q-819.3 74.0 -820.25 73.5 -821.45 72.75 -822.75 72.7 -824.1 72.65 -825.3 73.3 -826.75 73.95 -828.2 74.85 L-829.25 73.85 Q-830.65 72.8 -832.4 72.8 -834.15 72.8 -835.6 73.9 -837.1 75.1 -839.15 75.0 -841.65 75.0 -843.4 73.4 -844.95 71.85 -844.95 69.8 -844.9 67.75 -843.4 66.2 L-843.35 66.15 -842.7 65.7 Q-841.05 64.45 -840.6 62.5 -840.15 60.6 -841.05 58.95 -841.5 57.2 -842.85 56.1 L-843.4 55.65 Q-844.95 54.15 -844.95 52.1 -844.9 50.0 -843.4 48.5 L-843.35 48.45 Q-841.95 47.2 -840.05 46.95 -838.2 46.7 -836.9 45.35 L-836.15 44.4 -835.3 45.0 Q-834.3 45.65 -833.2 45.75 L-831.5 45.85 Q-830.45 45.9 -829.5 46.45 -828.5 46.95 -827.9 47.8 -824.0 52.45 -818.6 49.6 -818.5 48.25 -817.65 47.05 -816.5 45.35 -814.55 44.9 -812.2 44.2 -809.65 45.5 -809.1 45.7 -808.7 46.0 L-808.1 46.45 -807.55 46.8 -806.7 47.35 Q-805.8 47.95 -805.1 48.65 L-805.05 48.7 -804.85 48.85 -803.7 47.1 Q-802.55 45.85 -800.95 45.55 -799.25 45.25 -797.75 45.9 -796.4 46.45 -795.3 47.65 L-794.95 47.9 -794.4 48.45 -793.2 48.05 Q-791.8 47.85 -790.55 48.35 -788.45 49.1 -786.35 48.95 L-786.0 48.95 -785.85 48.95 Q-784.25 48.95 -783.0 49.85 -781.7 50.7 -781.05 52.15 L-780.45 53.15 -780.4 53.25 -779.85 53.85 -779.55 53.65 Q-778.2 52.15 -776.2 51.9 -774.15 51.7 -772.5 53.0 L-771.05 53.85 -770.85 54.0 Q-768.25 55.45 -765.4 56.5 L-765.35 56.55 -764.75 56.7 -762.7 56.8 Q-761.65 57.0 -760.75 57.6 -758.95 58.95 -756.6 58.9 -753.6 58.9 -751.55 56.95 L-751.55 56.9 Q-749.75 55.25 -749.65 52.95 -749.5 50.8 -748.05 49.4 -746.45 47.95 -744.4 47.95 -742.3 47.9 -740.75 49.4 L-740.45 49.7 Q-738.9 51.35 -736.75 51.4 -734.6 51.35 -733.05 49.7 L-733.0 49.7 -732.55 49.15 -731.7 48.3 -731.45 48.15 M-788.9 65.25 L-788.8 65.3 -788.7 65.4 -788.9 65.25" fill="#b8b89f" fill-rule="evenodd" stroke="none"/>
    <path d="M-253.75 66.0 Q-252.95 64.65 -252.95 63.1 -252.95 61.35 -254.45 59.1 L-255.95 56.55 Q-255.95 55.7 -253.3 52.25 -250.7 48.8 -250.7 47.45 -250.7 46.0 -252.55 44.3 L-254.45 42.5 Q-254.45 37.0 -248.85 34.2 -245.8 32.65 -245.0 32.0 -243.25 30.5 -243.25 28.05 L-243.25 27.4 Q-241.7 26.35 -239.95 25.7 -238.45 25.75 -237.4 26.8 -236.15 28.05 -236.05 29.8 L-235.95 30.1 Q-237.05 21.7 -233.85 13.8 -230.65 5.85 -224.1 3.25 -217.55 0.75 -211.75 0.0 -206.4 0.05 -201.35 2.2 -196.0 4.5 -193.3 10.2 L-192.8 11.15 -191.55 11.05 Q-186.85 11.55 -183.45 15.4 L-182.9 16.1 -180.4 14.2 Q-168.35 3.05 -166.6 12.45 -165.5 18.7 -162.35 24.35 -159.5 22.95 -156.2 22.95 -149.85 22.85 -153.0 29.65 L-153.7 30.9 -153.1 30.9 Q-151.5 30.55 -149.95 31.2 -148.85 31.6 -148.25 32.8 -147.55 34.1 -147.55 35.75 -147.55 37.95 -148.2 40.05 L-148.05 40.8 -147.85 41.25 -147.8 41.35 -147.45 41.5 -145.4 41.95 -144.25 42.6 -143.6 43.4 Q-143.2 43.95 -143.2 44.65 L-143.1 45.9 Q-133.3 46.6 -130.45 57.8 L-129.15 61.75 -129.15 61.85 Q-125.9 72.05 -133.6 80.7 -169.85 69.45 -218.65 68.05 -218.7 66.8 -219.55 66.8 -220.25 66.8 -220.6 67.2 L-220.75 67.5 -221.75 67.95 -253.75 66.0 M-188.15 17.9 L-189.25 17.1 -188.7 17.95 -188.15 17.9 M-174.05 19.55 Q-174.05 20.65 -173.45 18.85 -172.85 17.4 -173.55 17.45 -174.05 18.5 -174.05 19.55 M-229.4 37.55 L-229.45 37.55 -229.45 37.7 -229.4 37.55 M-223.45 57.95 L-224.0 59.35 -223.4 59.0 -223.45 57.95 M-189.25 57.05 L-187.85 55.95 Q-188.6 56.3 -189.3 56.9 L-189.5 57.0 -189.25 57.05" fill="#d6ddde" fill-rule="evenodd" stroke="none"/>
    <path d="M-129.15 61.85 L-128.95 62.4 Q-126.3 69.6 -129.95 75.85 -137.95 89.45 -150.3 81.15 -152.3 79.85 -152.05 77.05 -152.95 76.85 -154.2 77.7 L-157.1 80.2 Q-161.0 84.3 -165.2 80.95 -166.55 79.9 -166.9 78.1 -167.35 78.3 -167.85 78.85 -168.75 80.2 -170.0 80.95 -174.4 83.65 -176.65 79.35 -177.7 77.25 -177.45 74.7 L-177.95 74.9 -179.65 76.2 -181.1 77.25 Q-183.1 78.6 -185.4 77.7 L-185.95 77.4 Q-190.5 82.2 -195.7 85.75 -198.3 87.45 -201.25 88.85 -205.2 90.8 -206.65 86.55 -208.95 89.25 -211.95 91.0 L-212.85 91.45 -212.8 91.0 Q-212.8 90.15 -213.65 90.15 -214.6 90.15 -214.6 91.0 L-214.45 91.5 -214.2 91.8 -215.9 91.7 -215.45 91.35 -215.25 90.75 Q-215.25 89.9 -216.1 89.9 L-216.35 89.95 Q-216.7 89.55 -217.3 89.55 -218.25 89.55 -218.35 90.2 L-219.1 89.35 Q-218.15 89.35 -218.15 88.45 -218.15 87.85 -218.65 87.6 -218.5 87.3 -218.5 86.85 -218.5 85.75 -219.35 85.8 -220.0 85.85 -220.2 86.45 L-219.85 83.9 -220.6 83.65 Q-220.8 83.1 -221.85 82.6 L-222.35 82.45 -222.6 82.1 Q-222.05 81.95 -222.05 81.25 -222.05 80.25 -223.1 79.8 L-223.55 79.7 -223.55 79.55 -223.2 79.3 -223.0 78.75 Q-223.0 78.2 -223.15 77.9 L-222.95 77.55 -222.75 76.7 -222.95 76.05 -222.15 75.4 -221.8 74.6 -221.8 74.25 Q-220.95 74.25 -220.95 73.2 L-220.95 73.15 -220.35 72.6 -220.05 71.75 Q-220.05 71.2 -220.25 71.0 L-219.15 69.95 Q-218.65 69.1 -218.65 68.15 L-218.65 68.05 Q-169.85 69.45 -133.6 80.7 -125.9 72.05 -129.15 61.85 M-221.75 67.95 Q-222.15 68.15 -222.55 68.5 L-223.6 69.45 Q-223.9 69.3 -224.15 69.3 -225.4 69.3 -225.95 70.15 -226.3 70.7 -226.3 71.45 L-226.3 71.6 -231.35 74.8 Q-236.3 77.95 -248.05 75.15 -254.7 71.7 -254.7 68.55 -254.7 67.45 -253.8 66.05 L-253.75 66.0 -221.75 67.95" fill="#b7c2c4" fill-rule="evenodd" stroke="none"/>
    <path d="M-239.15 32.45 L-239.05 32.3 -239.0 32.3 -239.2 32.65 -239.4 32.95 -239.5 33.0 -239.4 32.85 -239.35 32.75 -239.2 32.6 -239.15 32.45 M-131.5 72.75 L-132.3 74.45 -132.9 75.45 -134.95 74.2 Q-133.6 74.1 -131.5 72.75 M-216.4 26.95 L-216.85 27.2 -217.1 27.45 -217.35 27.7 -217.35 27.85 -217.25 28.15 -217.2 28.4 -217.1 28.6 -216.9 28.75 -216.65 28.0 -216.2 27.35 Q-216.0 27.0 -216.4 26.95 M-199.05 6.95 L-198.7 7.25 -199.35 8.05 -200.65 9.6 -200.1 8.7 -199.05 6.95 M-224.85 8.15 L-225.05 7.85 -225.25 7.7 -225.25 7.65 -225.15 7.25 -224.9 6.8 Q-224.8 6.65 -224.55 6.6 -224.65 7.45 -224.1 8.0 L-224.85 8.55 -224.85 8.4 -224.85 8.15 M-227.15 8.5 L-226.55 7.9 -228.15 10.85 Q-229.4 13.2 -231.0 15.45 L-231.15 15.7 -229.45 12.4 -227.15 8.5 M-169.2 14.05 L-169.4 14.0 -169.65 14.05 Q-169.4 13.15 -169.5 12.15 L-169.4 12.95 -169.2 14.05 M-147.55 44.3 L-146.3 44.6 -146.25 44.6 -146.2 44.65 -145.95 44.9 -145.9 46.25 Q-145.75 47.2 -145.0 47.9 L-144.95 48.05 Q-145.95 56.3 -139.0 51.4 L-137.9 50.65 Q-136.3 51.75 -135.1 53.65 -136.75 55.65 -137.75 58.45 -139.65 64.1 -133.8 63.75 L-133.3 63.75 -135.85 66.25 Q-137.25 67.85 -137.35 69.85 -137.5 72.15 -136.85 73.25 -143.05 70.35 -155.65 66.5 -167.95 62.8 -181.15 59.85 L-205.95 54.85 -215.45 54.85 Q-229.05 55.9 -238.6 57.8 -244.0 58.9 -251.7 60.95 L-253.25 61.35 Q-253.65 60.3 -254.45 59.1 L-255.95 56.55 Q-255.95 55.7 -253.3 52.25 -250.7 48.8 -250.7 47.45 -250.7 46.0 -252.55 44.3 L-253.85 43.15 -253.3 42.4 -252.8 41.3 -252.25 40.2 -251.95 40.25 -251.45 40.25 -251.4 40.2 Q-251.05 40.0 -251.0 39.55 L-250.7 38.7 -250.3 38.1 -249.8 38.05 -249.6 37.95 -249.05 37.05 -248.75 36.65 -248.15 36.0 -248.15 36.05 -248.05 36.5 Q-248.75 38.15 -249.05 39.9 L-248.8 40.0 -248.35 40.0 -248.15 39.9 -246.4 37.25 -246.2 37.0 -245.7 37.1 -243.55 32.6 -242.5 31.0 -242.55 31.55 -243.25 33.45 Q-243.75 34.55 -243.75 35.75 L-243.65 37.75 Q-242.7 38.15 -242.0 37.1 L-240.6 34.9 -239.5 33.15 -239.65 33.45 -240.05 34.25 -240.05 34.9 -239.85 35.15 -239.65 35.3 -239.05 35.3 -238.95 35.25 -238.7 35.1 -236.75 32.75 -236.35 32.85 -234.7 32.6 Q-233.9 32.15 -233.4 31.4 -233.1 30.55 -233.15 29.75 L-233.4 26.65 Q-232.8 25.25 -233.35 24.1 -233.2 20.65 -232.1 17.35 L-232.05 17.3 Q-232.7 18.9 -232.15 20.25 L-231.9 20.2 -231.4 19.55 -231.05 18.7 -230.8 18.35 Q-230.35 19.0 -229.65 18.8 L-228.75 18.25 -226.95 14.95 -224.45 10.85 -223.1 8.7 Q-221.1 9.8 -220.65 6.8 L-220.45 6.65 -220.45 7.0 -220.05 7.25 -219.4 7.3 -218.15 5.85 -216.85 3.9 -216.2 3.65 -215.5 4.3 -215.45 4.35 -215.8 5.15 -215.65 5.2 -214.95 5.4 -214.1 4.45 -213.75 4.25 -212.45 3.1 -212.75 3.75 -212.65 3.8 Q-213.7 4.95 -213.9 6.25 -212.75 6.4 -211.8 5.05 L-210.2 2.85 -209.3 2.9 -209.6 3.25 Q-210.65 4.45 -210.5 5.75 L-210.35 5.75 Q-209.25 5.6 -208.55 4.5 L-207.5 3.2 -207.1 3.25 -207.15 3.3 -207.65 4.15 Q-208.0 4.6 -207.85 5.05 -206.3 5.6 -205.25 4.15 L-205.0 3.8 -203.9 4.25 -204.35 4.95 Q-204.9 5.95 -204.9 7.0 -204.7 7.3 -204.3 7.3 -203.8 7.25 -203.4 6.9 L-202.85 6.25 -203.3 7.25 -204.35 8.9 -205.4 10.55 Q-205.9 11.35 -205.35 12.05 L-205.15 12.1 -204.35 12.05 -204.15 11.75 -203.8 11.35 -203.45 11.0 -203.1 10.65 -203.8 11.6 -204.5 12.65 -204.85 13.65 Q-205.05 14.2 -204.8 14.75 L-203.25 14.7 -202.0 13.55 -200.9 12.5 -201.3 13.3 -202.15 14.7 -202.95 16.0 Q-203.55 16.75 -202.9 17.4 -202.35 17.75 -201.7 17.4 L-200.65 16.55 -199.9 16.0 -199.75 16.5 Q-199.2 17.05 -198.6 16.7 -197.95 16.35 -197.95 16.7 -197.75 17.8 -196.55 17.4 -195.65 17.05 -195.05 16.35 L-193.9 15.1 -194.0 15.4 -194.25 15.95 -194.45 16.35 -194.55 16.75 -194.35 17.45 -194.2 17.55 -193.7 17.75 -193.0 17.7 -193.3 18.35 -193.85 19.05 -194.0 19.65 -193.85 20.25 -193.65 20.4 Q-192.15 20.75 -191.2 19.15 L-189.75 17.05 Q-188.9 16.0 -188.25 15.6 L-188.25 15.65 -188.7 16.3 -189.65 17.7 -190.3 18.85 Q-190.5 19.55 -190.0 20.1 -188.2 20.0 -186.75 18.25 L-185.85 17.1 -185.35 17.45 -185.05 17.8 Q-184.45 18.65 -183.4 18.85 L-181.5 18.5 Q-181.35 18.35 -181.25 18.35 L-180.1 18.6 Q-178.6 18.8 -178.15 17.4 -177.9 16.5 -178.1 15.85 -176.5 14.4 -175.1 13.45 L-177.1 15.6 Q-177.7 16.15 -177.2 16.65 -174.9 19.2 -172.25 16.0 -171.55 16.55 -171.0 16.4 L-170.85 16.85 Q-169.95 19.0 -168.5 17.2 L-168.4 17.1 Q-167.5 20.25 -166.1 23.2 L-166.95 25.0 Q-168.0 27.85 -165.0 27.35 L-163.65 26.8 -163.2 27.0 -161.15 26.9 Q-159.65 26.1 -157.9 25.9 L-158.15 26.25 -160.2 28.7 Q-161.15 29.75 -160.95 31.05 -160.45 34.45 -157.8 31.9 L-156.4 30.5 -156.4 31.35 Q-156.3 32.4 -155.5 33.1 -154.75 33.7 -153.7 33.7 L-153.1 33.7 -152.45 33.65 -151.0 33.8 -150.9 33.85 -150.8 34.0 -150.7 34.1 -150.45 34.9 -150.55 35.05 Q-152.45 37.35 -152.1 39.9 -151.5 44.45 -149.2 43.8 -148.5 44.25 -147.55 44.3" fill="#c6c6ad" fill-rule="evenodd" stroke="none"/>
    <path d="M-212.85 88.3 L-213.1 88.45 -213.2 88.3 -212.95 88.3 -212.85 88.3 M-169.2 14.05 L-169.4 14.0 -169.65 14.05 Q-169.4 13.15 -169.5 12.15 L-169.4 12.95 -169.2 14.05 M-171.0 16.4 L-170.85 16.85 Q-169.95 19.0 -168.5 17.2 L-168.4 17.1 -166.8 21.65 -169.45 23.6 -169.65 20.75 Q-170.1 17.25 -173.15 16.9 L-172.25 16.0 Q-171.55 16.55 -171.0 16.4 M-177.2 16.65 L-176.65 17.1 -178.15 17.4 Q-177.9 16.5 -178.1 15.85 -176.5 14.4 -175.1 13.45 L-177.1 15.6 Q-177.7 16.15 -177.2 16.65 M-144.95 57.1 Q-144.6 58.8 -143.2 59.85 -142.15 60.65 -140.95 61.0 -139.9 63.45 -130.3 63.2 -131.4 85.45 -140.7 81.45 L-141.15 81.5 -141.05 81.3 Q-147.0 83.3 -146.35 81.2 -145.65 79.1 -147.4 78.7 L-148.1 78.5 Q-150.6 80.15 -150.55 77.7 -150.45 74.75 -151.05 75.0 L-153.35 76.45 Q-155.0 77.65 -155.75 75.4 L-155.8 75.4 -158.45 77.6 -159.05 77.45 Q-160.35 77.4 -160.35 78.65 L-160.3 79.2 -162.4 79.4 -162.4 79.1 Q-162.4 77.85 -163.75 77.85 L-164.0 77.9 -164.1 77.6 -166.35 77.05 Q-164.45 76.6 -164.85 76.15 -165.5 75.5 -166.3 75.4 L-168.0 75.5 Q-168.95 75.85 -169.95 77.05 L-170.15 77.35 -171.45 78.6 Q-172.5 79.2 -173.2 79.2 L-175.2 77.9 Q-176.7 76.8 -176.0 75.45 L-175.55 74.35 -175.9 74.1 -175.9 74.05 -175.9 73.95 Q-175.9 72.55 -177.1 72.55 -177.75 72.55 -178.05 72.95 -179.25 72.4 -179.5 72.6 L-181.15 73.9 Q-181.5 73.7 -181.9 73.65 -183.3 73.5 -183.3 74.8 L-183.25 75.2 -184.35 75.1 Q-185.2 74.55 -186.1 75.5 L-189.6 79.2 -192.5 81.45 -192.85 81.3 Q-194.55 80.65 -194.55 82.35 L-194.5 82.45 -197.25 83.45 -202.4 86.3 -203.45 86.65 -203.75 86.3 -203.75 86.15 Q-203.75 84.7 -204.75 84.5 L-205.2 84.15 Q-206.1 83.6 -207.1 83.8 -208.0 83.95 -208.55 84.5 L-208.9 84.35 Q-210.5 83.7 -210.5 85.4 L-210.2 86.25 -211.75 87.55 -211.65 87.05 Q-211.65 85.8 -212.95 85.75 -214.25 85.7 -214.25 86.95 -214.25 87.65 -213.85 88.0 L-213.9 88.0 -214.1 88.0 Q-214.15 87.3 -214.95 87.3 -215.9 87.3 -215.9 88.15 L-215.8 88.6 -215.75 88.7 -216.4 88.2 -216.5 88.2 -216.65 88.05 -216.55 87.5 Q-216.55 86.65 -217.3 86.65 -217.5 85.75 -217.2 84.7 -217.0 83.95 -217.1 83.2 L-217.1 83.1 -216.95 82.45 Q-216.95 81.25 -218.25 81.15 L-218.95 81.25 -219.2 81.15 Q-220.1 80.85 -220.5 80.0 L-220.5 79.95 Q-220.2 79.5 -220.2 79.1 -220.2 78.15 -220.8 77.9 L-220.6 77.25 -220.55 77.1 -218.75 72.65 Q-218.2 72.6 -218.2 72.05 L-218.4 71.65 -218.35 71.45 -218.3 71.35 -218.0 70.25 Q-217.35 70.25 -216.95 69.85 -216.65 69.5 -216.65 69.05 -216.75 68.05 -217.35 67.95 L-217.5 66.75 -217.4 65.85 Q-217.4 64.55 -218.35 64.55 -219.05 64.55 -219.4 65.0 L-219.65 65.5 Q-220.7 65.95 -222.4 67.35 -223.45 68.15 -227.3 69.6 -226.55 70.5 -228.4 71.75 -231.2 73.55 -232.8 72.5 L-232.8 72.45 Q-234.2 74.4 -236.15 75.2 L-235.75 73.95 Q-235.75 72.0 -237.55 73.0 -239.25 73.9 -239.35 75.8 L-241.65 75.55 Q-241.95 75.0 -242.7 75.05 L-243.15 75.15 -245.0 74.65 Q-245.3 73.7 -246.2 73.65 -246.9 73.6 -247.2 74.05 L-248.65 73.65 Q-248.95 72.95 -249.95 72.95 L-250.75 73.1 -250.85 73.1 Q-251.2 72.7 -251.95 72.7 -254.7 70.55 -254.7 68.55 -254.7 67.45 -253.8 66.05 -252.95 64.7 -252.95 63.1 -252.95 61.35 -254.45 59.1 L-255.75 57.05 Q-253.15 55.8 -251.7 53.2 -245.25 57.25 -241.1 46.2 -241.65 51.0 -236.85 51.6 -232.25 52.15 -230.0 47.65 -228.4 44.15 -226.25 41.3 -225.55 44.1 -222.75 44.65 -217.25 45.85 -214.7 40.65 -213.15 37.6 -210.7 35.4 -210.8 37.0 -209.75 38.15 -205.4 42.9 -200.65 38.1 L-196.05 33.85 Q-197.8 37.0 -198.35 40.55 -199.15 44.9 -194.7 45.15 -189.15 45.4 -186.2 40.45 L-186.85 42.6 Q-187.85 46.05 -185.2 47.85 -178.3 52.4 -173.35 44.7 -169.8 39.35 -165.7 34.35 L-165.95 35.8 -167.35 40.55 Q-168.2 43.75 -165.75 45.85 -161.7 49.4 -157.7 46.1 -157.7 47.9 -156.15 48.6 -153.55 49.75 -151.2 49.75 -151.05 51.35 -150.55 52.95 -149.4 56.9 -144.95 57.1" fill="#b8b89f" fill-rule="evenodd" stroke="none"/>
    <path d="M-891.25 142.15 L-891.3 141.7 -891.9 141.55 -891.25 142.15 M-886.4 142.75 L-886.3 142.65 -886.45 142.65 -886.4 142.75 M-903.6 81.85 Q-903.1 82.1 -902.65 82.5 L-901.75 82.7 Q-900.9 82.95 -900.45 83.7 -900.05 84.3 -899.95 85.0 -898.3 86.95 -897.4 89.65 L-895.45 90.05 Q-893.55 89.95 -893.0 91.65 L-892.05 95.0 Q-891.45 96.9 -890.25 98.35 L-882.55 98.0 Q-876.95 98.6 -874.3 103.35 -873.45 105.05 -873.2 106.95 L-873.05 107.15 -871.5 107.55 Q-870.8 107.8 -870.3 108.35 -869.75 109.05 -869.75 109.95 -869.75 110.95 -870.45 111.65 -865.3 113.65 -862.85 118.85 L-861.8 121.5 Q-859.6 122.35 -859.95 124.75 -860.1 126.1 -860.7 127.35 L-860.7 128.85 -860.1 128.85 Q-857.7 128.9 -858.0 131.15 -858.35 133.7 -859.85 136.0 L-862.4 139.6 -862.3 139.9 -862.25 140.15 -862.2 140.4 -862.2 140.95 -862.2 141.2 -862.35 141.7 Q-860.8 143.05 -860.3 145.5 -855.3 150.45 -860.3 156.45 -862.6 159.25 -866.25 159.55 -869.0 160.65 -872.95 160.4 L-876.2 159.95 Q-877.35 162.3 -879.4 164.25 -890.5 174.8 -899.05 160.4 L-901.95 160.35 Q-905.4 160.65 -908.75 160.25 -913.05 159.8 -916.15 156.7 -919.5 153.35 -923.65 151.15 -924.6 153.0 -926.5 154.5 -930.15 157.4 -935.35 157.4 -939.85 157.4 -943.2 155.25 L-943.4 155.35 Q-949.95 160.15 -958.1 157.3 -963.3 166.55 -971.15 160.7 -978.65 164.25 -987.7 160.4 -988.8 160.0 -989.45 158.95 -996.9 159.2 -1000.75 151.65 -1003.5 146.25 -1003.35 139.8 -1003.2 133.9 -999.3 129.6 L-994.85 124.9 Q-996.0 115.85 -991.0 108.3 -987.9 103.65 -983.9 100.0 -983.3 98.4 -982.45 97.55 L-982.05 96.2 -981.8 95.75 -981.15 95.35 -979.2 94.6 -978.15 94.1 -979.5 91.5 Q-983.25 84.4 -978.25 78.45 -969.8 68.55 -958.25 71.2 L-957.7 70.75 Q-953.25 67.45 -951.05 66.1 -949.2 64.9 -947.05 65.2 -942.1 66.7 -937.4 69.4 -932.5 72.15 -929.3 75.75 -922.6 74.15 -916.4 70.95 -912.7 70.7 -909.45 72.35 -906.15 73.95 -904.5 77.1 -903.35 79.3 -903.6 81.85" fill="#d2d2bf" fill-rule="evenodd" stroke="none"/>
    <path d="M-911.95 80.75 L-912.15 80.85 -912.05 80.7 -911.95 80.75 M-899.05 96.7 L-896.95 94.3 -896.3 96.7 -896.25 96.7 Q-895.45 99.3 -893.8 101.3 -893.1 102.05 -892.2 102.35 L-891.15 102.5 Q-889.95 105.95 -884.75 108.8 -879.85 111.5 -877.55 107.9 L-877.55 108.0 -877.2 109.2 Q-876.5 110.8 -875.45 111.0 L-874.85 111.25 -874.65 111.3 -874.75 111.95 Q-874.95 113.15 -874.25 114.2 -873.65 115.2 -872.55 115.6 -868.75 117.2 -866.85 121.0 L-866.0 123.3 -865.15 124.6 -864.35 125.25 -864.75 126.55 Q-865.1 127.35 -865.05 128.2 L-865.05 129.45 Q-865.1 130.75 -864.2 131.8 L-862.7 132.85 -863.7 134.75 -863.6 134.75 -866.0 138.2 Q-866.5 138.8 -866.65 139.55 -866.85 140.35 -866.65 141.2 L-866.6 141.35 Q-866.8 142.15 -866.65 142.9 -866.5 144.1 -865.55 144.95 -864.85 145.65 -864.65 146.9 -864.4 147.95 -863.6 148.7 -861.05 151.45 -863.85 154.9 L-863.85 154.95 Q-865.25 156.55 -867.4 156.75 L-868.4 156.95 Q-870.55 157.75 -873.55 157.55 L-876.25 157.15 Q-877.45 156.85 -878.6 157.45 -879.7 157.95 -880.25 159.05 -881.15 160.85 -882.7 162.35 -886.65 166.15 -890.0 165.75 -893.6 164.8 -896.9 159.3 -897.3 158.6 -897.95 158.15 -898.7 157.7 -899.45 157.65 L-903.05 157.5 Q-906.15 157.75 -909.15 157.45 L-909.2 157.45 Q-912.25 157.1 -914.5 154.9 -918.25 151.15 -922.8 148.7 L-925.5 148.5 Q-926.95 148.9 -927.6 150.2 -928.25 151.4 -929.5 152.35 L-929.5 152.45 Q-932.3 154.5 -936.2 154.5 -939.55 154.5 -942.15 152.95 -943.05 152.35 -944.05 152.35 -945.1 152.35 -945.95 152.95 L-946.2 153.15 -946.3 153.2 Q-951.4 156.9 -957.75 154.65 L-960.15 154.7 Q-961.35 155.1 -962.0 156.25 -963.75 159.3 -965.7 160.05 -967.55 160.25 -969.85 158.55 -970.65 157.95 -971.65 157.85 -972.6 157.75 -973.5 158.25 -979.65 161.0 -987.15 157.85 L-987.25 157.8 -987.3 157.7 Q-987.85 156.9 -988.7 156.55 -989.45 156.1 -990.4 156.15 -995.7 156.15 -998.45 150.75 -1000.8 146.1 -1000.65 140.6 -1000.55 136.05 -997.5 132.7 L-993.1 128.0 Q-992.6 127.4 -992.35 126.7 -992.1 125.9 -992.2 125.15 -992.65 121.65 -992.0 118.45 -988.2 121.85 -984.9 117.7 L-984.0 116.2 Q-980.05 117.8 -974.9 117.9 -970.15 118.0 -969.0 113.75 -965.1 99.25 -977.85 102.3 L-976.6 101.15 -975.05 99.25 Q-969.3 100.3 -964.95 91.15 L-963.8 88.55 Q-962.3 88.3 -960.9 87.3 -953.25 91.4 -947.9 80.4 L-946.4 76.9 -943.45 77.5 -941.45 79.65 Q-934.15 91.95 -924.1 81.35 L-921.85 78.75 -920.4 77.15 Q-919.95 80.3 -917.1 81.35 L-913.15 81.55 Q-918.8 85.95 -914.05 94.6 -907.95 105.85 -899.05 96.7 M-891.6 138.85 L-893.95 138.9 Q-895.15 139.4 -895.75 140.45 -896.4 141.55 -896.15 142.8 -896.0 144.0 -895.1 144.9 L-894.55 145.3 Q-893.55 146.3 -892.1 146.3 -890.9 146.3 -890.0 145.65 L-889.7 145.95 Q-888.7 147.0 -887.25 147.0 -886.05 147.0 -885.15 146.25 -884.15 145.6 -883.8 144.45 -883.3 143.1 -883.95 141.75 -884.6 140.45 -886.0 140.0 L-887.3 139.8 Q-888.35 139.8 -889.25 140.4 L-889.55 140.0 Q-890.25 139.2 -891.25 138.95 L-891.6 138.85 M-866.55 141.55 L-866.6 141.4 -866.6 141.35 -866.55 141.55 M-866.6 141.05 L-866.6 140.8 -866.5 141.2 -866.55 141.25 -866.6 141.05 M-866.5 141.35 Q-866.05 142.65 -866.3 142.15 L-866.5 141.75 -866.5 141.55 -866.5 141.35" fill="#c6c6ad" fill-rule="evenodd" stroke="none"/>
    <path d="M-937.15 129.8 Q-930.0 135.0 -926.8 127.7 -926.1 129.2 -924.5 130.3 -919.65 133.65 -916.8 129.05 L-916.5 128.55 -914.65 128.65 -914.4 128.65 Q-915.15 130.5 -912.75 132.7 -911.3 134.0 -910.15 133.45 L-910.0 133.75 Q-908.15 137.05 -905.85 134.0 L-905.2 133.0 -904.6 133.7 Q-903.25 135.2 -902.05 134.7 L-901.15 135.35 Q-900.05 140.15 -896.15 136.35 -895.5 138.3 -892.45 139.45 -890.2 140.3 -889.6 138.05 L-889.45 137.7 Q-888.35 137.9 -887.2 136.2 L-886.55 135.05 -886.5 135.25 Q-884.85 138.55 -882.45 135.75 -881.1 134.1 -881.4 133.0 L-881.05 132.7 Q-880.9 132.55 -880.75 132.5 L-880.45 133.05 Q-878.4 136.05 -876.3 133.0 L-876.2 132.85 -875.75 133.05 -875.7 133.15 Q-873.95 136.2 -871.8 133.75 -870.85 134.6 -869.9 134.55 L-869.85 134.75 -870.75 134.9 Q-874.7 135.15 -873.95 138.7 -873.05 143.15 -869.25 140.6 -867.5 141.55 -866.3 140.2 L-866.3 140.65 Q-866.15 141.85 -865.15 142.65 -864.5 143.4 -864.3 144.65 -864.05 145.65 -863.25 146.45 -860.7 149.2 -863.5 152.6 L-863.5 152.65 Q-864.85 154.3 -867.05 154.45 L-868.05 154.7 Q-870.2 155.5 -873.2 155.3 L-875.9 154.9 Q-877.1 154.6 -878.2 155.2 -879.35 155.65 -879.9 156.8 -880.8 158.6 -882.35 160.1 -886.3 163.85 -889.65 163.5 -893.25 162.55 -896.55 157.05 -896.95 156.3 -897.6 155.9 -898.35 155.4 -899.1 155.35 L-902.7 155.25 Q-905.8 155.5 -908.8 155.2 L-908.85 155.2 Q-911.9 154.8 -914.1 152.6 -917.9 148.9 -922.45 146.45 L-925.15 146.2 Q-926.55 146.6 -927.25 147.95 -927.9 149.15 -929.15 150.1 L-929.15 150.15 Q-931.95 152.25 -935.85 152.25 -939.2 152.25 -941.75 150.7 -942.65 150.1 -943.7 150.1 -944.75 150.1 -945.6 150.7 L-945.85 150.85 -945.95 150.95 Q-951.05 154.65 -957.4 152.35 L-959.8 152.45 Q-961.0 152.85 -961.65 154.0 -963.35 157.05 -965.35 157.75 -967.2 158.0 -969.5 156.25 -970.3 155.65 -971.25 155.6 -972.25 155.5 -973.15 155.95 -979.3 158.7 -986.75 155.6 L-986.9 155.55 -986.95 155.4 Q-987.5 154.65 -988.35 154.3 -989.1 153.8 -990.05 153.85 -995.35 153.85 -998.1 148.5 -1000.4 143.8 -1000.3 138.3 -1000.2 133.75 -997.1 130.4 L-992.75 125.75 Q-992.2 125.15 -992.0 124.4 -991.75 123.65 -991.85 122.85 L-992.05 119.95 -991.25 121.05 Q-990.8 121.65 -990.2 121.8 -987.95 122.35 -986.25 121.2 L-987.25 122.85 Q-989.8 125.6 -987.0 129.05 L-987.0 129.1 Q-985.65 130.7 -983.5 130.9 L-982.45 131.1 Q-980.3 131.9 -977.3 131.7 L-974.6 131.3 -974.55 131.3 -974.1 133.0 Q-972.45 135.95 -970.25 133.8 -969.5 135.25 -968.15 136.5 -964.2 140.3 -960.85 139.9 -957.25 138.95 -954.0 133.45 L-952.9 132.3 -951.4 131.8 -947.8 131.65 Q-944.7 131.9 -941.7 131.6 L-941.65 131.6 Q-939.15 131.3 -937.15 129.8 M-987.8 107.9 L-988.05 108.0 -988.1 108.0 -987.85 107.65 -987.8 107.9 M-903.35 128.15 Q-903.9 128.35 -904.3 128.65 L-904.25 128.5 -903.85 127.85 -903.35 128.15 M-878.8 136.05 L-879.6 136.4 Q-884.3 139.25 -879.5 141.75 -876.9 143.1 -875.65 140.8 -873.05 136.2 -878.8 136.05 M-865.95 139.85 L-866.0 139.75 -865.95 139.7 Q-865.75 140.3 -865.95 139.85" fill="#b8b89f" fill-rule="evenodd" stroke="none"/>
    <path d="M-1277.35 66.85 Q-1274.1 77.05 -1281.8 85.7 -1318.05 74.45 -1366.85 73.05 -1366.9 71.8 -1367.75 71.8 -1368.45 71.8 -1368.8 72.2 L-1368.95 72.5 Q-1369.4 72.6 -1369.95 72.95 -1402.65 71.8 -1439.6 66.75 -1439.65 56.4 -1432.3 48.75 -1428.05 44.15 -1422.9 47.75 -1421.0 49.0 -1419.45 50.65 -1418.6 50.6 -1418.7 48.35 -1418.75 45.4 -1417.9 42.8 -1416.25 37.6 -1411.65 37.6 -1408.95 37.6 -1407.45 39.1 -1406.65 39.9 -1405.85 41.2 -1404.9 36.6 -1403.0 34.75 -1401.55 33.25 -1399.1 33.25 -1396.35 33.25 -1394.75 35.25 -1392.85 33.15 -1390.65 31.9 -1391.8 30.6 -1391.8 29.3 -1391.8 25.65 -1386.35 24.85 L-1383.8 24.55 Q-1383.2 21.65 -1382.05 18.8 -1378.85 10.85 -1372.3 8.25 -1365.75 5.75 -1359.95 5.0 -1354.6 5.05 -1349.55 7.2 -1344.2 9.5 -1341.5 15.2 L-1341.0 16.15 -1339.75 16.05 Q-1335.05 16.55 -1331.65 20.4 L-1331.1 21.1 -1328.6 19.2 Q-1316.55 8.05 -1314.8 17.45 -1313.7 23.7 -1310.55 29.35 -1307.7 27.95 -1304.4 27.95 -1298.05 27.85 -1301.2 34.65 L-1301.9 35.9 -1301.3 35.9 -1298.15 36.2 Q-1297.05 36.6 -1296.45 37.8 -1295.75 39.1 -1295.75 40.75 -1295.75 42.95 -1296.4 45.05 L-1296.25 45.8 -1296.05 46.25 -1296.0 46.35 -1295.65 46.5 -1293.6 46.95 Q-1293.0 47.15 -1292.45 47.6 L-1291.8 48.4 Q-1291.4 48.95 -1291.4 49.65 L-1291.3 50.9 Q-1281.5 51.6 -1278.65 62.8 L-1277.35 66.75 -1277.35 66.85 M-1321.75 22.45 Q-1322.25 23.5 -1322.25 24.55 -1322.25 25.65 -1321.65 23.85 -1321.05 22.4 -1321.75 22.45 M-1336.9 22.95 L-1336.35 22.9 -1337.45 22.1 -1336.9 22.95 M-1337.45 62.05 L-1336.05 60.95 -1337.5 61.9 -1337.7 62.0 -1337.45 62.05 M-1377.6 42.55 L-1377.65 42.55 -1377.65 42.7 -1377.6 42.55 M-1371.65 62.95 L-1372.2 64.35 -1371.6 64.0 -1371.65 62.95" fill="#d6ddde" fill-rule="evenodd" stroke="none"/>
    <path d="M-1277.35 66.85 L-1277.15 67.4 Q-1274.5 74.6 -1278.15 80.85 -1279.9 83.8 -1281.8 85.7 -1274.1 77.05 -1277.35 66.85 M-1366.85 73.05 Q-1318.05 74.45 -1281.8 85.7 -1288.8 92.65 -1298.5 86.15 -1300.5 84.85 -1300.25 82.05 -1301.15 81.85 -1302.4 82.7 -1304.0 83.8 -1305.3 85.2 -1309.2 89.3 -1313.4 85.95 -1314.75 84.9 -1315.1 83.1 L-1316.05 83.85 Q-1316.95 85.2 -1318.2 85.95 -1322.6 88.65 -1324.85 84.35 -1325.9 82.25 -1325.65 79.7 L-1326.15 79.9 -1327.85 81.2 -1329.3 82.25 Q-1331.3 83.6 -1333.6 82.7 L-1334.15 82.4 Q-1338.7 87.2 -1343.9 90.75 -1346.5 92.45 -1349.45 93.85 -1353.4 95.8 -1354.85 91.55 -1357.15 94.25 -1360.15 96.0 L-1361.05 96.45 -1361.0 96.0 Q-1361.0 95.15 -1361.85 95.15 -1362.8 95.15 -1362.8 96.0 L-1362.65 96.5 -1362.4 96.8 -1364.1 96.7 -1363.65 96.35 -1363.45 95.75 Q-1363.45 94.9 -1364.3 94.9 L-1364.55 94.95 Q-1364.9 94.55 -1365.5 94.55 -1366.45 94.55 -1366.55 95.2 L-1367.3 94.35 Q-1366.35 94.35 -1366.35 93.45 -1366.35 92.85 -1366.85 92.6 -1366.7 92.3 -1366.7 91.85 -1366.7 90.75 -1367.55 90.8 -1368.2 90.85 -1368.4 91.45 L-1368.05 88.9 -1368.8 88.65 Q-1369.0 88.1 -1370.05 87.6 L-1370.55 87.45 -1370.8 87.1 Q-1370.25 86.95 -1370.25 86.25 -1370.25 85.25 -1371.3 84.8 L-1371.75 84.7 -1371.75 84.55 -1371.4 84.3 -1371.2 83.75 Q-1371.2 83.2 -1371.35 82.9 L-1371.15 82.55 -1370.95 81.7 -1371.15 81.05 -1370.35 80.4 -1370.0 79.6 -1370.0 79.25 Q-1369.15 79.25 -1369.15 78.2 L-1369.15 78.15 -1368.55 77.6 -1368.25 76.75 -1368.45 76.0 -1367.35 74.95 Q-1366.85 74.1 -1366.85 73.15 L-1366.85 73.05 M-1369.95 72.95 L-1370.75 73.5 -1371.8 74.45 -1372.35 74.3 Q-1373.6 74.3 -1374.15 75.15 -1374.5 75.7 -1374.5 76.45 L-1374.5 76.6 -1379.55 79.8 Q-1384.95 83.25 -1398.5 79.55 -1401.4 87.3 -1411.45 90.75 -1425.85 95.85 -1434.5 83.5 -1437.95 78.85 -1438.95 72.85 -1439.55 69.7 -1439.6 66.75 -1402.65 71.8 -1369.95 72.95" fill="#b7c2c4" fill-rule="evenodd" stroke="none"/>
    <path d="M-1376.3 22.25 L-1376.35 22.15 -1375.65 20.85 -1376.3 22.25 M-1363.9 9.15 L-1364.15 9.45 -1364.15 8.95 -1363.9 9.15 M-1279.7 77.75 L-1280.5 79.45 -1281.1 80.45 -1283.15 79.2 Q-1281.8 79.1 -1279.7 77.75 M-1355.35 8.3 L-1355.85 9.15 Q-1356.2 9.6 -1356.05 10.05 L-1356.5 9.95 -1356.4 9.05 -1355.7 8.2 -1355.3 8.25 -1355.35 8.3 M-1347.25 11.95 L-1346.9 12.25 -1347.55 13.05 -1348.85 14.6 -1348.3 13.7 -1347.25 11.95 M-1316.7 22.2 L-1316.6 22.1 Q-1315.7 25.25 -1314.3 28.2 L-1315.15 30.0 Q-1316.2 32.85 -1313.2 32.35 L-1311.85 31.8 -1311.4 32.0 -1309.35 31.9 Q-1307.85 31.1 -1306.1 30.9 L-1306.35 31.25 -1308.4 33.7 Q-1309.35 34.75 -1309.15 36.05 -1308.65 39.45 -1306.0 36.9 L-1304.6 35.5 -1304.6 36.35 Q-1304.5 37.4 -1303.7 38.1 -1302.95 38.7 -1301.9 38.7 L-1301.3 38.7 -1300.65 38.65 -1299.2 38.8 -1299.1 38.85 -1299.0 39.0 -1298.9 39.1 -1298.65 39.9 -1298.75 40.05 Q-1300.65 42.35 -1300.3 44.9 -1299.7 49.45 -1297.4 48.8 L-1295.75 49.3 Q-1295.15 49.3 -1294.5 49.6 L-1294.45 49.6 -1294.4 49.65 -1294.15 49.9 -1294.1 51.25 Q-1293.95 52.2 -1293.2 52.9 L-1293.15 53.05 Q-1294.15 61.3 -1287.2 56.4 L-1286.1 55.65 Q-1284.5 56.75 -1283.3 58.65 -1284.95 60.65 -1285.95 63.45 -1287.85 69.1 -1282.0 68.75 L-1281.5 68.75 Q-1282.9 69.85 -1284.05 71.25 -1285.45 72.85 -1285.55 74.85 -1285.7 77.15 -1285.05 78.25 -1291.25 75.35 -1303.85 71.5 -1316.15 67.8 -1329.35 64.85 L-1354.15 59.85 -1363.65 59.85 Q-1377.25 60.9 -1386.8 62.8 -1392.2 63.9 -1399.9 65.95 L-1407.4 68.15 Q-1411.9 69.35 -1418.05 69.6 -1423.15 69.8 -1429.5 71.45 -1433.35 72.4 -1436.1 72.75 L-1436.2 72.35 Q-1437.25 67.3 -1436.45 62.8 -1435.85 62.25 -1435.35 61.05 L-1433.4 57.4 Q-1432.05 55.2 -1431.75 53.5 L-1430.6 54.85 Q-1427.6 57.65 -1426.1 53.95 L-1425.95 53.6 -1425.95 53.85 -1425.65 55.2 Q-1425.0 56.4 -1423.2 56.4 -1422.3 56.4 -1421.35 55.4 L-1420.45 56.3 -1420.1 56.9 -1419.95 56.95 -1419.1 56.9 -1418.85 56.55 Q-1418.15 56.4 -1417.5 55.8 L-1416.6 55.85 -1416.25 55.65 -1415.85 54.85 -1415.45 54.35 Q-1414.3 55.8 -1412.25 55.8 -1409.75 55.8 -1409.0 53.4 L-1408.8 52.05 -1408.75 51.9 -1408.05 50.75 -1407.4 49.7 -1407.35 49.7 Q-1406.25 52.25 -1403.35 52.25 -1400.8 52.25 -1399.35 49.1 L-1399.05 48.5 -1400.7 47.25 -1401.5 45.15 Q-1401.5 44.3 -1400.65 43.15 -1399.6 41.7 -1399.25 40.35 -1399.25 39.25 -1398.6 37.95 -1397.55 35.9 -1395.35 35.9 -1394.0 35.9 -1393.1 36.65 L-1392.05 37.4 -1390.1 36.6 -1388.8 36.45 -1387.5 36.3 -1386.15 35.55 Q-1385.0 34.95 -1384.65 34.5 L-1383.5 32.65 Q-1382.8 31.75 -1381.45 31.25 -1381.1 30.05 -1381.55 29.1 -1381.4 25.65 -1380.3 22.35 L-1380.25 22.3 Q-1380.9 23.9 -1380.35 25.25 L-1380.1 25.2 -1379.6 24.55 -1379.35 24.0 Q-1378.35 26.1 -1376.2 26.1 -1373.35 26.1 -1372.2 21.45 -1371.6 19.05 -1371.6 16.35 L-1371.65 14.35 -1371.3 13.7 Q-1369.3 14.8 -1368.85 11.8 L-1368.65 11.65 -1368.65 12.0 -1368.25 12.25 -1367.6 12.3 -1367.55 12.3 Q-1366.8 13.5 -1364.95 13.5 -1362.95 13.5 -1360.9 11.0 L-1360.0 10.05 -1359.55 11.8 Q-1358.5 13.65 -1355.9 13.65 -1354.05 13.65 -1352.45 12.3 L-1351.6 11.9 -1351.05 11.25 -1351.5 12.25 -1352.55 13.9 -1353.6 15.55 Q-1354.1 16.35 -1353.55 17.05 L-1353.35 17.1 -1352.55 17.05 -1352.35 16.75 -1352.0 16.35 -1351.65 16.0 -1351.3 15.65 -1352.0 16.6 -1352.7 17.65 -1353.05 18.65 Q-1353.25 19.2 -1353.0 19.75 L-1351.45 19.7 -1350.2 18.55 -1349.1 17.5 -1349.5 18.3 -1350.35 19.7 -1351.15 21.0 Q-1351.75 21.75 -1351.1 22.4 -1350.55 22.75 -1349.9 22.4 L-1348.85 21.55 -1348.1 21.0 -1347.95 21.5 Q-1347.4 22.05 -1346.8 21.7 -1346.15 21.35 -1346.15 21.7 -1345.95 22.8 -1344.75 22.4 -1343.85 22.05 -1343.25 21.35 L-1342.1 20.1 -1342.2 20.4 -1342.45 20.95 -1342.65 21.35 -1342.75 21.75 -1342.55 22.45 -1342.4 22.55 -1341.9 22.75 -1341.2 22.7 -1341.5 23.35 -1342.05 24.05 -1342.2 24.65 -1342.05 25.25 -1341.85 25.4 Q-1340.35 25.75 -1339.4 24.15 L-1337.95 22.05 -1336.45 20.6 -1336.45 20.65 -1336.9 21.3 -1337.85 22.7 -1338.5 23.85 Q-1338.7 24.55 -1338.2 25.1 -1336.4 25.0 -1334.95 23.25 L-1334.05 22.1 -1333.55 22.45 -1333.25 22.8 Q-1332.65 23.65 -1331.6 23.85 L-1329.7 23.5 -1329.45 23.35 -1328.3 23.6 Q-1326.8 23.8 -1326.35 22.4 -1326.1 21.5 -1326.3 20.85 -1324.7 19.4 -1323.3 18.45 L-1325.3 20.6 Q-1325.9 21.15 -1325.4 21.65 -1323.1 24.2 -1320.45 21.0 -1319.75 21.55 -1319.2 21.4 L-1319.05 21.85 Q-1318.15 24.0 -1316.7 22.2 M-1317.6 19.0 L-1317.85 19.05 Q-1317.6 18.15 -1317.7 17.15 L-1317.6 17.95 -1317.4 19.05 -1317.6 19.0 M-1396.0 41.2 L-1395.8 41.25 Q-1395.15 41.25 -1394.9 40.7 -1395.15 40.55 -1395.95 41.1 L-1396.0 41.2 M-1364.4 32.35 Q-1364.2 32.0 -1364.6 31.95 L-1365.05 32.2 -1365.3 32.45 -1365.55 32.7 -1365.55 32.85 -1365.45 33.15 -1365.4 33.4 -1365.3 33.6 -1365.1 33.75 -1364.85 33.0 -1364.4 32.35" fill="#c6c6ad" fill-rule="evenodd" stroke="none"/>
    <path d="M-1361.3 93.45 L-1361.4 93.3 -1361.15 93.3 -1361.05 93.3 -1361.3 93.45 M-1325.4 21.65 L-1324.85 22.1 -1326.35 22.4 Q-1326.1 21.5 -1326.3 20.85 -1324.7 19.4 -1323.3 18.45 L-1325.3 20.6 Q-1325.9 21.15 -1325.4 21.65 M-1313.9 39.35 L-1314.15 40.8 -1315.55 45.55 Q-1316.4 48.75 -1313.95 50.85 -1309.9 54.4 -1305.9 51.1 -1305.9 52.9 -1304.35 53.6 -1301.75 54.75 -1299.4 54.75 L-1298.75 57.95 Q-1297.6 61.9 -1293.15 62.1 -1292.8 63.8 -1291.4 64.85 -1290.35 65.65 -1289.15 66.0 -1288.1 68.45 -1278.5 68.2 -1279.6 90.45 -1288.9 86.45 L-1289.35 86.5 -1289.25 86.3 Q-1295.2 88.3 -1294.55 86.2 -1293.85 84.1 -1295.6 83.7 L-1296.3 83.5 Q-1298.8 85.15 -1298.75 82.7 -1298.65 79.75 -1299.25 80.0 L-1301.55 81.45 Q-1303.2 82.65 -1303.95 80.4 L-1304.0 80.4 -1306.65 82.6 -1307.25 82.45 Q-1308.55 82.4 -1308.55 83.65 L-1308.5 84.2 -1310.6 84.4 -1310.6 84.1 Q-1310.6 82.85 -1311.95 82.85 L-1312.2 82.9 -1312.3 82.6 Q-1312.35 82.4 -1314.55 82.05 -1312.65 81.6 -1313.05 81.15 -1313.7 80.5 -1314.5 80.4 L-1316.2 80.5 Q-1317.15 80.85 -1318.15 82.05 L-1318.35 82.35 -1319.65 83.6 Q-1320.7 84.2 -1321.4 84.2 L-1323.4 82.9 Q-1324.9 81.8 -1324.2 80.45 L-1323.75 79.35 -1324.1 79.1 -1324.1 79.05 -1324.1 78.95 Q-1324.1 77.55 -1325.3 77.55 -1325.95 77.55 -1326.25 77.95 -1327.45 77.4 -1327.7 77.6 L-1329.35 78.9 -1330.1 78.65 Q-1331.5 78.5 -1331.5 79.8 L-1331.45 80.2 -1332.55 80.1 Q-1333.4 79.55 -1334.3 80.5 L-1337.8 84.2 -1340.7 86.45 -1341.05 86.3 Q-1342.75 85.65 -1342.75 87.35 L-1342.7 87.45 -1345.45 88.45 -1350.6 91.3 -1351.65 91.65 -1351.95 91.3 -1351.95 91.15 Q-1351.95 89.7 -1352.95 89.5 L-1353.4 89.15 Q-1354.3 88.6 -1355.3 88.8 -1356.2 88.95 -1356.75 89.5 L-1357.1 89.35 Q-1358.7 88.7 -1358.7 90.4 L-1358.4 91.25 -1359.95 92.55 -1359.85 92.05 Q-1359.85 90.8 -1361.15 90.75 -1362.45 90.7 -1362.45 91.95 -1362.45 92.65 -1362.05 93.0 L-1362.1 93.0 -1362.3 93.0 Q-1362.35 92.3 -1363.15 92.3 -1364.1 92.3 -1364.1 93.15 L-1364.0 93.6 -1363.95 93.7 -1364.6 93.2 -1364.7 93.2 -1364.85 93.05 -1364.75 92.5 Q-1364.75 91.65 -1365.5 91.65 -1365.7 90.75 -1365.4 89.7 -1365.2 88.95 -1365.3 88.2 L-1365.3 88.1 -1365.15 87.45 Q-1365.15 86.25 -1366.45 86.15 L-1367.15 86.25 -1367.4 86.15 Q-1368.3 85.85 -1368.7 85.0 L-1368.7 84.95 Q-1368.4 84.5 -1368.4 84.1 -1368.4 83.15 -1369.0 82.9 L-1368.8 82.25 -1368.75 82.1 -1366.95 77.65 Q-1366.4 77.6 -1366.4 77.05 L-1366.6 76.65 -1366.55 76.45 -1366.5 76.35 -1366.2 75.25 Q-1365.55 75.25 -1365.15 74.85 -1364.85 74.5 -1364.85 74.05 -1364.95 73.05 -1365.55 72.95 L-1365.7 71.75 -1365.6 70.85 Q-1365.6 69.55 -1366.55 69.55 -1367.25 69.55 -1367.6 70.0 L-1367.85 70.5 Q-1368.9 70.95 -1370.6 72.35 -1371.65 73.15 -1375.5 74.6 -1374.75 75.5 -1376.6 76.75 -1379.4 78.55 -1381.0 77.5 L-1381.0 77.45 Q-1382.4 79.4 -1384.35 80.2 L-1383.95 78.95 Q-1383.95 77.0 -1385.75 78.0 -1387.45 78.9 -1387.55 80.8 L-1389.85 80.55 Q-1390.15 80.0 -1390.9 80.05 L-1391.35 80.15 -1393.2 79.65 Q-1393.5 78.7 -1394.4 78.65 -1395.1 78.6 -1395.4 79.05 L-1396.85 78.65 Q-1397.15 77.95 -1398.15 77.95 L-1398.95 78.1 -1399.05 78.1 Q-1399.45 77.65 -1400.25 77.7 -1401.75 77.75 -1401.75 79.2 L-1401.65 79.85 Q-1402.3 81.05 -1403.1 82.1 L-1404.05 81.9 Q-1405.5 81.85 -1405.5 83.5 L-1405.35 84.35 Q-1407.15 85.8 -1409.5 86.95 -1409.75 86.1 -1410.9 86.05 -1412.4 86.05 -1412.4 87.75 L-1412.35 88.1 -1412.35 88.2 -1415.25 89.05 Q-1415.75 88.5 -1416.9 88.8 -1417.85 89.05 -1418.3 89.45 L-1419.9 89.45 Q-1420.15 89.15 -1420.6 89.1 -1421.25 89.05 -1422.05 88.6 L-1423.45 88.2 -1424.5 88.45 -1426.75 87.25 -1428.9 85.65 -1429.75 84.85 Q-1429.2 84.55 -1429.2 83.75 -1429.2 82.95 -1432.45 81.25 L-1432.75 81.1 Q-1435.4 77.25 -1436.2 72.35 -1437.0 68.2 -1436.65 64.4 L-1433.5 61.95 -1433.55 63.1 -1433.4 63.95 Q-1433.0 64.8 -1431.95 64.8 -1430.25 64.8 -1430.1 63.2 L-1430.15 62.0 -1429.1 62.25 -1429.0 62.25 -1428.45 62.85 Q-1428.25 64.6 -1427.55 66.3 -1426.8 68.1 -1425.1 67.3 -1422.15 65.85 -1419.6 63.75 L-1418.6 63.9 Q-1417.0 63.9 -1415.6 61.7 L-1415.5 63.35 -1410.0 63.15 Q-1402.8 63.3 -1399.9 58.2 -1393.45 62.25 -1389.3 51.2 -1389.85 56.0 -1385.05 56.6 -1380.45 57.15 -1378.2 52.65 -1376.6 49.15 -1374.45 46.3 -1373.75 49.1 -1370.95 49.65 -1365.45 50.85 -1362.9 45.65 -1361.35 42.6 -1358.9 40.4 -1359.0 42.0 -1357.95 43.15 -1353.6 47.9 -1348.85 43.1 -1346.3 40.5 -1344.25 38.85 -1346.0 42.0 -1346.55 45.55 -1347.35 49.9 -1342.9 50.15 -1337.35 50.4 -1334.4 45.45 L-1335.05 47.6 Q-1336.05 51.05 -1333.4 52.85 -1326.5 57.4 -1321.55 49.7 -1318.0 44.35 -1313.9 39.35 M-1316.7 22.2 L-1316.6 22.1 -1315.0 26.65 Q-1316.45 27.55 -1317.65 28.6 L-1317.85 25.75 Q-1318.3 22.25 -1321.35 21.9 L-1320.45 21.0 Q-1319.75 21.55 -1319.2 21.4 L-1319.05 21.85 Q-1318.15 24.0 -1316.7 22.2 M-1317.4 19.05 L-1317.6 19.0 -1317.85 19.05 Q-1317.6 18.15 -1317.7 17.15 L-1317.6 17.95 -1317.4 19.05" fill="#b8b89f" fill-rule="evenodd" stroke="none"/>
  </g>
</svg>
