<?xml version="1.0" encoding="UTF-8" standalone="no"?>
<svg xmlns:ffdec="https://www.free-decompiler.com/flash" xmlns:xlink="http://www.w3.org/1999/xlink" ffdec:objectType="shape" height="50.7px" width="22.95px" xmlns="http://www.w3.org/2000/svg">
  <g transform="matrix(1.0, 0.0, 0.0, 1.0, -1.1, -41.05)">
    <path d="M3.5 82.05 L3.95 82.55 3.05 83.55 2.75 84.25 1.55 85.25 1.1 85.75 Q1.35 83.9 3.5 82.05 M18.05 41.05 L17.45 41.75 Q15.65 44.1 21.3 50.4 26.95 56.7 20.9 63.15 14.8 69.6 17.7 77.65 20.6 85.65 13.35 89.75 6.1 93.85 2.4 89.45 1.15 87.95 1.1 86.5 L1.1 86.55 1.35 86.85 1.9 87.05 2.35 86.85 2.45 86.8 2.3 87.85 2.4 88.2 Q2.4 89.0 3.3 89.0 L3.35 89.25 3.9 90.0 4.9 90.65 5.5 90.45 5.85 89.8 Q5.85 89.4 5.3 88.85 L4.7 87.9 4.65 87.6 5.5 88.05 5.9 88.85 Q6.35 89.45 6.85 89.45 L7.6 89.15 7.95 88.5 7.85 88.2 7.7 87.85 8.2 87.65 8.3 87.8 Q9.6 89.45 10.1 89.45 10.5 89.45 10.75 89.1 L10.95 88.5 10.9 88.2 11.0 88.2 11.6 87.95 11.9 87.3 11.75 86.6 12.05 86.6 Q13.0 86.6 13.2 86.0 L13.55 86.05 Q14.0 86.05 14.3 85.65 L14.6 84.9 14.75 84.9 15.45 84.6 15.7 83.95 15.3 83.25 Q14.9 82.95 14.45 82.95 L13.35 82.55 13.5 82.0 Q14.55 82.55 15.05 82.55 15.5 82.55 15.75 82.2 L15.95 81.65 Q15.95 80.95 15.05 80.55 L14.65 80.45 15.0 80.2 15.3 79.5 Q15.3 78.9 14.5 78.6 L13.25 78.1 13.0 77.9 12.95 77.8 Q14.4 78.6 15.15 78.6 16.15 78.6 16.15 77.55 16.15 77.2 15.0 76.7 L13.5 75.95 13.3 75.8 13.4 75.7 13.75 75.0 12.2 73.75 10.5 72.65 10.05 71.3 Q12.1 73.1 12.75 73.1 13.65 73.1 13.65 72.2 L13.3 71.7 13.4 71.2 13.15 70.45 13.9 70.65 14.65 70.4 14.95 69.75 15.3 69.15 Q15.3 68.4 14.75 68.15 L14.45 68.05 14.75 67.3 13.9 66.4 13.9 66.3 14.4 66.05 14.45 66.0 15.1 65.75 15.45 65.1 15.4 65.0 Q16.3 65.7 16.65 65.7 17.75 65.7 17.75 64.6 L17.2 64.0 Q16.7 63.65 16.45 63.6 L15.25 62.5 15.05 62.25 15.8 62.9 17.1 63.75 Q18.15 63.75 18.15 62.9 18.15 62.15 17.4 61.65 L17.0 61.4 17.2 60.9 Q18.05 61.8 18.4 61.8 18.8 61.8 19.1 61.45 L19.35 60.8 19.05 60.25 19.15 60.15 19.45 59.5 19.35 59.1 19.85 59.2 20.55 58.95 21.15 59.15 Q21.5 59.15 21.85 58.8 L22.1 58.25 21.45 57.4 20.65 56.8 20.05 56.35 20.05 56.3 20.15 56.4 20.75 56.6 21.4 56.3 21.7 55.65 Q21.7 54.85 20.5 54.05 L18.9 53.15 18.7 53.0 18.75 52.55 18.7 52.15 18.9 51.5 Q18.9 50.95 18.0 50.3 L17.9 50.25 18.0 49.5 16.6 48.4 17.1 47.25 Q17.1 46.75 15.05 44.85 L15.2 44.65 15.65 43.5 15.0 42.3 15.15 42.3 18.05 41.05" fill="#8e5120" fill-rule="evenodd" stroke="none"/>
  </g>
</svg>
