<?xml version="1.0" encoding="UTF-8" standalone="no"?>
<svg xmlns:ffdec="https://www.free-decompiler.com/flash" xmlns:xlink="http://www.w3.org/1999/xlink" ffdec:objectType="shape" height="227.15px" width="735.7px" xmlns="http://www.w3.org/2000/svg">
  <g transform="matrix(1.0, 0.0, 0.0, 1.0, 66.3, -292.1)">
    <path d="M379.7 308.6 Q386.25 311.35 393.8 311.7 398.55 311.9 402.75 309.55 414.5 302.95 427.9 301.25 436.9 303.25 445.35 306.95 453.8 310.65 462.75 308.75 469.4 307.3 475.7 307.9 469.8 311.9 458.4 326.3 447.0 340.65 368.3 338.95 289.55 337.2 215.7 344.05 155.6 349.6 224.4 307.6 L219.1 307.35 226.75 306.2 227.1 305.95 227.2 306.1 Q250.85 302.9 258.3 307.6 267.15 313.15 278.6 310.15 290.05 307.15 300.25 312.3 303.9 314.1 308.05 314.2 321.2 314.55 329.8 312.2 338.4 309.85 348.8 311.5 359.15 313.1 368.0 310.25 376.8 307.4 379.7 308.6" fill="#3b84b8" fill-rule="evenodd" stroke="none"/>
    <path d="M40.1 299.9 Q45.85 301.7 46.55 297.05 L217.0 298.5 Q222.2 298.25 225.1 293.75 232.6 303.35 238.5 292.1 236.85 296.65 244.65 298.35 246.8 298.85 248.9 295.45 256.15 301.25 259.4 295.45 264.8 299.9 274.6 298.9 L274.6 309.35 -7.8 318.05 -7.8 302.05 0.65 301.55 Q5.55 300.2 5.05 298.5 12.75 302.65 13.8 298.7 15.05 302.55 19.75 298.0 20.2 301.2 25.4 300.9 26.8 298.65 30.05 298.65 28.95 301.0 33.0 300.55 36.8 301.25 36.45 297.5 39.25 298.65 40.1 299.9" fill="#3b84b8" fill-rule="evenodd" stroke="none"/>
    <path d="M655.0 356.85 L-20.05 356.85 -20.4 306.65 Q181.85 307.2 383.95 302.0 L392.05 301.75 Q396.75 300.75 396.25 299.35 403.65 303.05 404.65 299.7 405.85 303.0 410.35 299.3 410.8 302.0 415.75 301.85 L599.4 304.85 Q604.4 304.75 607.15 301.05 614.4 309.25 620.0 300.0 618.4 303.8 625.9 305.4 627.95 305.9 631.15 300.7 635.55 307.8 654.65 306.65 L655.0 356.85" fill="#3b84b8" fill-rule="evenodd" stroke="none"/>
    <path d="M640.6 312.25 L640.6 491.6 -9.65 491.6 -9.65 312.25 640.6 312.25" fill="#3b84b8" fill-rule="evenodd" stroke="none"/>
    <path d="M645.4 502.75 L-23.7 502.75 -23.7 351.1 -17.8 352.75 -17.45 354.1 Q-16.25 358.2 -14.15 361.6 -7.75 372.1 4.05 372.1 13.1 372.1 23.55 364.2 24.8 368.25 27.05 371.55 34.6 382.85 50.55 382.85 64.4 382.85 75.65 375.5 77.6 379.2 80.7 382.35 90.85 392.6 108.8 392.6 120.45 392.6 132.8 384.9 L135.8 388.45 Q146.3 399.45 163.65 399.45 178.35 399.45 189.8 391.95 L195.9 392.55 198.45 395.4 Q206.6 403.35 222.4 403.35 238.05 403.35 249.9 396.4 L250.7 396.45 Q252.0 398.4 254.15 400.25 262.5 407.35 280.15 407.35 291.45 407.35 304.5 397.85 L310.45 397.85 Q319.95 407.35 331.05 407.35 346.15 407.35 358.9 396.8 L359.9 396.75 361.45 398.7 Q368.5 406.85 380.2 406.85 397.85 406.85 408.55 398.7 411.5 396.45 413.45 394.15 414.3 395.7 415.9 397.6 420.85 403.55 428.5 403.55 437.15 403.55 444.05 395.95 L447.6 391.5 Q448.25 392.75 449.5 393.65 454.2 396.9 465.55 397.35 476.9 397.8 482.45 394.3 488.0 390.75 491.75 384.6 496.95 392.35 511.55 391.3 526.1 390.25 532.2 383.45 538.3 376.65 535.05 380.75 541.8 390.15 550.85 390.15 564.9 390.15 575.35 381.65 582.35 375.95 584.15 370.15 587.45 371.35 591.4 371.35 606.05 371.35 612.7 366.45 L614.5 364.9 Q617.9 365.85 621.8 365.85 632.05 365.85 639.15 355.8 L641.5 352.2 645.4 351.1 645.4 502.75 M426.4 392.1 L427.85 391.95 426.7 392.35 426.4 392.1 M491.45 384.1 Q489.55 384.3 491.4 384.0 L491.45 384.1" fill="#2878b1" fill-opacity="0.49019608" fill-rule="evenodd" stroke="none"/>
    <path d="M645.4 519.25 L-23.7 519.25 -23.7 367.6 -17.8 369.25 -17.45 370.6 -13.1 384.25 Q-10.0 393.8 8.05 394.1 26.05 394.4 42.1 386.6 36.65 405.3 61.1 406.05 85.5 406.75 97.45 394.4 97.55 415.3 116.25 414.6 134.9 413.9 145.1 405.8 148.7 410.2 153.2 417.35 157.65 424.45 169.4 426.1 178.7 427.4 197.25 411.7 220.2 425.9 230.9 423.85 241.65 421.8 249.9 412.9 L250.7 412.95 Q252.0 414.9 254.15 416.75 262.5 423.85 280.15 423.85 291.45 423.85 304.5 414.35 L310.45 414.35 Q319.95 423.85 331.05 423.85 346.15 423.85 358.9 413.3 L359.9 413.25 361.45 415.2 Q368.5 423.35 380.2 423.35 397.85 423.35 408.55 415.2 411.5 412.95 413.45 410.65 414.3 412.2 415.9 414.1 420.85 420.05 439.85 420.35 451.6 420.55 457.05 414.5 464.25 416.5 467.9 418.8 471.5 421.1 479.5 414.4 487.5 407.65 484.4 402.9 497.05 415.35 508.8 415.85 520.45 416.35 533.1 392.75 537.75 409.3 550.4 408.55 563.0 407.75 566.3 404.55 L581.35 389.9 Q578.6 398.6 582.9 400.3 596.6 405.7 605.15 393.95 613.7 382.2 614.5 381.4 617.9 382.35 621.8 382.35 632.05 382.35 639.15 372.3 L641.5 368.7 645.4 367.6 645.4 519.25" fill="#2878b1" fill-rule="evenodd" stroke="none"/>
    <path d="M36.15 313.05 Q41.7 310.0 47.4 307.1 48.45 306.6 49.35 306.45 76.3 286.0 80.65 296.55 85.0 307.05 90.65 313.25 L92.6 315.0 Q97.8 319.1 95.0 327.15 88.75 344.9 88.7 363.35 67.3 357.7 43.0 357.15 23.75 356.75 5.2 353.4 L-13.8 350.25 Q-25.75 348.35 -32.7 348.05 -39.65 347.7 -34.75 332.6 -29.9 317.5 20.1 322.55 L24.35 325.6 26.1 326.15 Q26.4 325.15 27.2 324.5 28.4 323.55 29.2 322.3 L29.9 321.4 31.2 320.2 Q32.4 319.15 33.9 318.5 L34.7 314.85 Q35.05 313.7 36.15 313.05" fill="#216fa8" fill-rule="evenodd" stroke="none"/>
    <path d="M63.55 336.1 L74.85 334.4 86.3 334.0 Q96.2 335.35 105.05 330.25 107.75 328.65 110.95 328.05 129.7 324.3 148.3 321.15 151.9 320.55 155.25 318.9 168.85 312.25 182.65 305.95 193.0 301.2 203.6 304.9 207.05 306.1 210.95 305.75 220.8 304.8 229.85 301.35 231.8 301.2 235.05 301.45 235.0 302.05 235.4 302.6 236.05 303.45 237.1 303.15 L237.15 303.6 Q237.15 304.15 237.5 304.55 238.8 306.0 240.4 304.85 L241.55 303.9 242.95 304.45 Q240.45 306.35 245.25 312.4 L244.75 312.55 244.2 312.7 243.85 312.55 Q241.9 311.7 239.55 311.65 233.25 311.45 233.25 316.2 L228.35 317.35 Q223.4 318.35 229.9 324.35 L228.5 323.75 Q224.5 322.3 224.5 325.9 L224.6 327.05 224.6 327.1 224.6 327.3 Q223.9 326.9 222.95 326.75 L222.05 326.45 Q218.05 325.3 217.95 329.0 217.6 329.6 217.6 330.6 L217.6 330.65 Q214.95 330.8 214.95 333.35 214.95 334.1 215.4 334.8 216.0 335.8 217.25 336.0 217.5 338.45 215.35 341.1 213.15 343.7 208.9 344.45 204.65 345.2 187.3 344.2 169.9 343.2 154.15 356.45 194.45 363.8 142.65 366.85 142.0 365.5 140.9 364.45 138.75 362.4 135.6 362.15 132.45 361.95 130.25 363.6 127.8 365.5 127.8 368.9 L127.8 369.0 124.95 368.75 119.5 367.85 Q118.85 365.9 117.55 364.6 115.45 362.5 112.25 362.65 109.1 362.8 106.9 365.0 106.05 365.8 105.5 366.8 103.05 367.4 100.5 368.7 L93.0 372.3 83.4 369.85 Q81.0 364.05 73.6 362.75 69.5 362.0 66.05 363.25 64.0 363.95 63.2 365.1 L56.05 363.55 Q56.95 360.85 57.15 357.65 43.2 360.1 33.85 349.8 33.15 349.0 33.65 347.75 37.0 339.3 46.25 338.15 L63.55 336.1 M246.85 303.55 L247.4 303.05 247.5 302.95 247.6 302.95 247.85 303.6 246.85 303.55" fill="#2975ad" fill-rule="evenodd" stroke="none"/>
    <path d="M56.65 332.0 Q63.75 332.25 68.45 337.9 69.85 339.55 70.35 341.55 70.45 342.0 70.0 341.95 67.7 341.7 65.6 340.7 59.9 338.0 56.15 342.2 53.3 345.35 50.3 342.3 49.3 341.3 49.35 339.75 49.5 334.3 54.75 332.45 L56.65 332.0" fill="#5da7de" fill-rule="evenodd" stroke="none"/>
    <path d="M7.55 382.05 Q33.55 386.65 43.65 378.45 L43.8 378.35 Q40.85 383.0 36.45 386.2 27.2 392.95 7.55 382.05" fill="#1a649a" fill-rule="evenodd" stroke="none"/>
    <path d="M51.4 325.4 Q52.0 322.95 55.15 322.75 59.8 322.65 62.25 327.6 L64.35 332.1 Q65.1 333.85 64.15 335.1 L63.9 334.25 62.55 330.4 Q61.3 327.55 57.85 328.85 56.3 330.7 54.8 330.5 53.25 330.25 52.9 329.9 50.75 328.15 51.4 325.4" fill="#5da7de" fill-rule="evenodd" stroke="none"/>
    <path d="M454.65 495.0 Q457.7 492.9 457.3 490.9 457.8 492.5 463.45 493.75 L457.95 495.7 Q459.65 496.0 466.0 495.75 472.35 495.5 476.7 492.65 480.85 489.85 480.3 487.15 481.15 489.85 493.15 491.8 505.15 493.7 509.3 493.5 513.45 493.3 510.35 493.35 505.3 492.5 495.55 488.7 L497.9 488.6 Q504.25 488.35 508.6 485.5 512.75 482.7 512.2 480.0 513.05 482.7 525.05 484.65 537.05 486.55 541.2 486.35 545.35 486.15 542.25 486.2 536.1 485.15 523.05 479.75 509.75 474.2 510.1 473.3 L509.15 475.4 Q507.85 478.45 506.05 480.0 501.3 484.5 492.8 487.6 L491.15 486.9 Q477.85 481.35 478.2 480.45 L477.25 482.55 Q475.95 485.6 474.15 487.15 471.5 489.65 467.7 491.7 L465.35 490.7 Q455.5 486.6 455.75 485.95 L455.05 487.5 Q454.05 489.75 452.75 490.9 448.65 494.8 440.75 497.25 442.0 497.45 446.7 497.3 451.4 497.1 454.65 495.0" fill="#256da1" fill-rule="evenodd" stroke="none"/>
    <path d="M270.5 473.4 L268.8 467.7 268.55 466.3 268.75 466.05 Q280.75 467.25 287.9 464.95 295.0 462.65 300.2 461.45 301.25 463.5 312.45 468.65 L325.35 468.25 Q333.65 467.1 334.55 465.75 L334.55 465.8 Q336.45 468.55 341.65 463.75 345.2 460.45 348.6 460.95 352.0 461.4 356.0 464.5 360.0 467.55 370.0 469.1 380.0 470.65 389.05 465.05 384.7 471.65 386.2 474.1 391.8 483.3 381.1 487.0 370.5 490.7 352.7 487.85 334.9 484.9 330.75 486.7 322.15 490.55 312.6 488.8 310.4 488.45 308.25 489.45 L304.6 490.95 303.8 490.85 302.6 491.25 299.8 491.6 Q294.45 491.6 288.5 487.45 282.6 483.25 281.1 483.25 279.35 483.25 278.55 484.0 L277.3 484.7 Q275.05 484.7 272.95 480.25 272.0 478.2 270.5 473.4" fill="url(#gradient0)" fill-rule="evenodd" stroke="none"/>
    <path d="M254.15 329.35 L254.2 329.15 254.35 328.85 254.35 328.75 Q251.45 329.4 249.1 328.85 246.75 328.25 244.75 326.75 242.85 329.35 239.45 329.8 L237.2 330.05 Q240.35 331.85 243.95 329.65 L244.8 329.05 Q248.75 331.05 253.05 329.8 L254.15 329.35" fill="#1a649a" fill-rule="evenodd" stroke="none"/>
    <path d="M248.9 327.0 Q252.05 328.8 255.65 326.6 L256.5 326.05 Q260.45 328.0 264.75 326.75 L265.85 326.3 265.9 326.1 266.0 325.8 266.0 325.7 Q263.15 326.35 260.8 325.8 258.45 325.2 256.45 323.7 254.55 326.3 251.1 326.75 L248.9 327.0" fill="#2975ad" fill-rule="evenodd" stroke="none"/>
    <path d="M485.6 355.25 Q497.4 359.1 505.15 356.05 512.85 352.95 515.45 350.6 522.35 355.4 529.9 353.6 535.1 352.35 539.0 355.0 533.15 358.65 525.2 358.65 520.4 358.65 516.2 355.7 502.85 361.9 488.5 358.0 486.4 357.4 485.6 355.25" fill="#2975ad" fill-rule="evenodd" stroke="none"/>
    <path d="M659.45 317.85 Q648.4 323.7 637.65 325.65 626.85 327.6 622.65 329.05 633.7 339.95 615.1 342.4 601.5 344.2 588.1 347.1 578.0 349.25 568.0 353.15 565.65 354.05 563.1 353.95 508.8 351.9 458.5 333.75 445.5 329.05 458.55 324.95 491.2 314.8 525.65 310.8 L540.65 308.5 Q550.3 306.65 559.9 305.85 599.55 305.0 607.1 308.7 633.5 307.95 640.4 309.0 668.3 313.2 669.4 312.6 L659.45 317.85" fill="#216fa8" fill-rule="evenodd" stroke="none"/>
    <path d="M298.55 329.75 Q302.7 332.4 307.45 330.75 308.05 330.55 308.55 330.95 310.65 332.85 313.3 331.4 L313.8 331.5 Q312.55 333.4 309.95 332.95 308.85 332.8 308.0 332.1 L307.5 331.6 Q303.9 333.0 300.2 331.75 298.1 331.05 298.55 329.75" fill="#2975ad" fill-rule="evenodd" stroke="none"/>
    <path d="M381.6 324.9 Q378.45 328.1 374.1 327.25 372.2 326.9 370.65 325.85 L370.2 325.55 Q367.45 327.9 363.85 326.9 L363.75 326.75 Q366.9 326.4 369.65 324.8 370.85 324.15 372.25 325.05 376.2 327.55 379.8 324.45 L381.3 323.45 Q384.75 325.35 388.6 325.65 L393.25 326.4 393.5 326.6 Q387.85 328.95 382.75 325.6 L381.6 324.9" fill="#2975ad" fill-rule="evenodd" stroke="none"/>
    <path d="M326.8 320.9 Q332.9 324.5 338.05 320.0 341.35 321.9 345.1 322.5 L350.4 322.2 Q346.9 326.4 341.3 322.75 339.5 321.55 338.0 322.15 L335.7 323.05 Q330.1 325.2 325.4 321.55 321.5 323.85 317.2 322.95 316.8 322.9 316.5 322.55 321.2 322.05 326.1 320.75 L326.8 320.9" fill="#4b99d2" fill-rule="evenodd" stroke="none"/>
    <path d="M489.6 367.45 L489.95 367.75 Q481.6 371.25 474.05 366.3 L472.35 365.25 Q467.7 370.0 461.25 368.7 458.45 368.2 456.15 366.65 L455.5 366.2 Q451.45 369.7 446.1 368.2 L445.95 368.0 Q450.65 367.45 454.7 365.1 456.45 364.15 458.55 365.45 464.4 369.15 469.7 364.6 470.8 363.7 471.9 363.1 477.0 365.9 482.7 366.35 L489.6 367.45 M428.3 367.25 L436.15 366.8 Q430.95 373.0 422.7 367.6 420.0 365.85 417.8 366.75 L414.4 368.05 Q406.1 371.25 399.15 365.85 393.4 369.25 387.05 367.9 L386.0 367.3 Q392.95 366.6 400.2 364.65 L401.25 364.9 Q410.25 370.2 417.85 363.55 422.75 366.35 428.3 367.25" fill="#2975ad" fill-rule="evenodd" stroke="none"/>
    <path d="M26.15 317.25 Q22.1 319.55 17.5 316.7 L16.4 315.95 Q11.35 318.5 5.85 316.9 L4.4 316.3 4.35 316.1 4.2 315.7 4.2 315.55 Q7.9 316.4 10.9 315.7 13.9 314.95 16.5 313.0 18.9 316.3 23.3 316.9 L26.15 317.25" fill="#2975ad" fill-rule="evenodd" stroke="none"/>
    <path d="M621.55 320.0 Q616.25 323.05 610.2 319.3 L608.8 318.35 Q602.2 321.65 595.0 319.6 594.0 319.3 593.15 318.8 L593.05 318.5 592.85 318.0 592.85 317.8 Q597.65 318.95 601.6 318.0 605.55 317.0 608.9 314.5 612.1 318.8 617.8 319.6 L621.55 320.0 M612.65 323.6 L612.45 323.1 612.45 322.9 Q617.25 324.05 621.2 323.1 625.15 322.1 628.5 319.6 631.65 323.9 637.4 324.7 L641.15 325.1 Q635.8 328.1 629.8 324.4 L628.35 323.45 Q621.75 326.75 614.6 324.7 L612.75 323.9 612.65 323.6" fill="#206293" fill-rule="evenodd" stroke="none"/>
    <path d="M-9.2 492.95 Q-20.9 496.05 -19.1 505.05 -18.75 506.55 -16.85 506.7 10.6 508.7 37.5 506.35 L49.4 506.75 Q61.55 508.7 73.0 503.3 75.6 502.05 78.75 502.65 99.9 506.55 109.5 489.95 111.75 486.1 116.75 487.85 131.35 492.9 137.8 489.0 L149.45 481.75 Q154.55 478.4 132.2 475.2 109.85 472.0 93.85 463.95 78.75 467.5 66.3 477.8 63.95 479.75 61.2 478.35 53.0 474.0 44.55 475.15 42.8 475.4 41.75 477.1 36.05 485.8 27.85 481.45 22.2 478.55 16.4 480.15 12.1 481.35 8.55 484.15 0.7 490.35 -9.2 492.95" fill="url(#gradient1)" fill-rule="evenodd" stroke="none"/>
    <path d="M-48.15 456.85 Q-44.15 454.1 -44.65 451.5 -44.0 453.6 -36.65 455.2 L-43.8 457.75 Q-41.6 458.15 -33.3 457.8 -25.0 457.5 -19.3 453.75 -13.9 450.1 -14.6 446.6 -13.5 450.1 2.2 452.65 17.85 455.15 23.3 454.9 28.7 454.6 24.65 454.7 18.05 453.6 5.3 448.6 L8.4 448.5 Q16.7 448.15 22.35 444.45 27.8 440.75 27.1 437.25 28.2 440.75 43.85 443.3 59.55 445.8 65.0 445.55 70.4 445.3 66.35 445.35 58.3 443.95 41.25 436.9 23.9 429.65 24.35 428.5 L23.1 431.25 Q21.4 435.2 19.05 437.25 12.85 443.1 1.75 447.15 L-0.45 446.25 Q-17.8 439.0 -17.35 437.85 L-18.6 440.55 Q-20.3 444.55 -22.65 446.6 -26.1 449.85 -31.1 452.55 L-34.15 451.2 Q-47.0 445.85 -46.7 445.0 L-47.6 447.05 Q-48.9 450.0 -50.6 451.5 -55.95 456.6 -66.3 459.8 -64.65 460.05 -58.5 459.85 -52.4 459.6 -48.15 456.85" fill="#54a9e5" fill-rule="evenodd" stroke="none"/>
    <path d="M68.4 305.65 Q69.55 305.7 68.8 305.95 67.5 306.3 68.4 305.65" fill="#216fa8" fill-rule="evenodd" stroke="none"/>
    <path d="M60.75 313.95 Q56.65 316.25 52.05 313.4 L50.95 312.65 Q45.9 315.2 40.45 313.6 39.65 313.4 39.0 313.0 L38.95 312.8 38.8 312.4 38.8 312.25 Q42.45 313.1 45.45 312.4 48.5 311.65 51.05 309.7 53.5 313.0 57.85 313.6 L60.75 313.95" fill="#1b5f91" fill-rule="evenodd" stroke="none"/>
    <path d="M27.85 335.6 Q23.75 337.9 19.15 335.05 L18.05 334.3 Q13.0 336.85 7.55 335.25 L6.1 334.65 6.05 334.45 5.9 334.05 5.9 333.9 Q9.55 334.75 12.55 334.05 15.6 333.3 18.15 331.35 20.6 334.65 24.95 335.25 L27.85 335.6" fill="#1b5f91" fill-rule="evenodd" stroke="none"/>
    <path d="M267.3 465.9 Q286.9 467.85 300.2 452.2 L299.95 451.55 300.5 452.0 301.1 451.55 Q326.9 474.35 346.8 452.85 356.95 463.55 370.45 465.7 380.9 467.35 389.6 464.65 376.95 479.8 356.75 466.6 350.25 462.3 344.85 464.45 L336.55 467.7 Q316.35 475.45 299.4 462.3 285.3 470.6 269.8 467.35 268.35 467.15 267.3 465.9 M302.3 450.65 Q302.35 451.5 301.5 451.3 L302.3 450.65" fill="#4b99d2" fill-rule="evenodd" stroke="none"/>
    <path d="M297.55 360.3 Q291.85 363.55 285.3 359.5 L283.8 358.5 Q276.65 362.05 268.9 359.8 267.8 359.5 266.9 358.95 L266.8 358.65 266.6 358.1 266.6 357.85 276.05 358.1 Q280.3 357.0 283.95 354.3 287.35 358.95 293.55 359.8 L297.55 360.3 M288.05 364.45 L287.95 364.15 287.75 363.6 287.75 363.35 297.15 363.6 Q301.45 362.5 305.05 359.8 308.5 364.45 314.7 365.3 L318.7 365.75 Q312.95 369.05 306.45 365.0 L304.9 364.0 Q297.8 367.55 290.05 365.3 L288.05 364.45" fill="#2975ad" fill-rule="evenodd" stroke="none"/>
    <path d="M338.75 336.75 L339.05 337.05 Q331.3 340.25 324.25 335.65 L322.65 334.7 Q318.35 339.1 312.35 337.95 309.7 337.45 307.6 336.0 L306.95 335.6 Q303.15 338.85 298.2 337.45 L298.05 337.25 Q302.4 336.75 306.2 334.55 307.85 333.65 309.8 334.9 315.25 338.35 320.2 334.05 321.2 333.25 322.25 332.7 327.0 335.3 332.3 335.7 335.65 335.95 338.75 336.75" fill="#2975ad" fill-rule="evenodd" stroke="none"/>
    <path d="M281.6 336.55 L288.9 336.15 Q284.1 341.95 276.35 336.9 273.9 335.25 271.8 336.05 L268.65 337.3 Q260.9 340.25 254.45 335.25 249.05 338.4 243.15 337.15 242.6 337.1 242.15 336.6 248.65 335.95 255.4 334.15 L256.35 334.35 Q264.8 339.3 271.9 333.1 276.45 335.7 281.6 336.55" fill="#4b99d2" fill-rule="evenodd" stroke="none"/>
    <path d="M360.05 332.15 Q356.9 333.95 353.3 331.75 L352.45 331.2 Q348.5 333.15 344.2 331.9 L343.1 331.45 343.05 331.25 342.95 330.95 342.95 330.85 Q345.8 331.5 348.15 330.95 350.5 330.35 352.5 328.85 354.4 331.45 357.85 331.9 L360.05 332.15 M354.75 334.3 L354.6 334.0 354.6 333.9 Q357.5 334.55 359.85 334.0 362.2 333.4 364.2 331.9 366.1 334.5 369.5 334.95 L371.75 335.2 Q368.6 337.0 365.0 334.8 L364.15 334.2 Q360.2 336.2 355.9 334.95 L354.8 334.5 354.75 334.3" fill="#2975ad" fill-rule="evenodd" stroke="none"/>
    <path d="M397.95 338.45 Q393.9 340.75 389.3 337.9 L388.2 337.15 Q383.15 339.7 377.65 338.1 L376.2 337.5 376.15 337.3 376.0 336.9 376.0 336.75 Q379.7 337.6 382.7 336.9 385.7 336.15 388.3 334.2 390.7 337.5 395.1 338.1 L397.95 338.45 M391.15 341.2 L391.0 340.8 391.0 340.65 Q394.65 341.5 397.65 340.8 400.7 340.05 403.25 338.1 405.7 341.4 410.05 342.0 L412.95 342.35 Q408.85 344.65 404.25 341.8 L403.15 341.05 Q398.1 343.6 392.65 342.0 L391.2 341.4 391.15 341.2" fill="#2975ad" fill-rule="evenodd" stroke="none"/>
    <path d="M381.45 313.75 L388.2 313.35 Q383.75 318.75 376.55 314.05 374.25 312.55 372.35 313.3 L369.4 314.45 Q362.25 317.2 356.2 312.55 351.25 315.5 345.75 314.3 345.2 314.25 344.85 313.8 350.85 313.15 357.1 311.5 L358.0 311.7 Q365.8 316.3 372.4 310.55 376.65 313.0 381.45 313.75" fill="#2975ad" fill-rule="evenodd" stroke="none"/>
    <path d="M323.25 313.7 Q317.6 316.05 312.5 312.7 L311.35 312.0 Q308.2 315.2 303.85 314.35 301.95 314.0 300.4 312.95 L299.95 312.65 Q297.2 315.0 293.6 314.0 L293.5 313.85 Q296.65 313.5 299.4 311.9 300.6 311.25 302.0 312.15 305.95 314.65 309.55 311.55 L311.05 310.55 Q314.5 312.45 318.35 312.75 L323.0 313.5 323.25 313.7 M286.25 317.85 L285.55 318.25 Q281.25 319.15 277.35 316.85 272.65 320.5 267.05 318.35 L264.75 317.45 Q263.25 316.85 261.45 318.05 255.85 321.7 252.35 317.5 L257.65 317.8 Q261.4 317.2 264.7 315.3 269.85 319.8 275.95 316.2 L276.65 316.05 Q281.55 317.35 286.25 317.85" fill="#2975ad" fill-rule="evenodd" stroke="none"/>
    <path d="M186.3 383.7 Q178.75 388.05 157.4 379.3 183.35 383.9 193.45 375.75 L193.4 375.65 193.5 375.7 193.65 375.6 205.9 382.15 Q211.8 385.25 217.6 384.7 206.9 387.95 200.4 383.65 193.85 379.35 194.3 378.7 192.05 380.4 186.3 383.7" fill="#326d98" fill-rule="evenodd" stroke="none"/>
    <path d="M193.85 372.9 L202.25 378.6 Q210.75 384.1 217.45 384.45 207.1 385.25 200.6 380.95 194.05 376.65 194.5 376.0 L186.5 381.0 Q180.35 384.55 165.15 379.45 186.5 378.8 193.65 373.05 L193.6 372.95 193.7 373.0 193.85 372.9" fill="#9fc3de" fill-rule="evenodd" stroke="none"/>
    <path d="M480.1 374.05 Q485.85 377.4 502.2 370.7 482.35 374.2 474.6 368.0 L474.65 367.9 474.6 367.95 474.45 367.85 465.1 372.9 Q460.55 375.25 456.15 374.85 464.3 377.3 469.3 374.0 474.3 370.75 473.95 370.25 L480.1 374.05" fill="#326d98" fill-rule="evenodd" stroke="none"/>
    <path d="M474.3 365.8 L467.9 370.15 Q461.4 374.35 456.25 374.65 464.15 375.25 469.15 371.95 474.15 368.65 473.8 368.15 L479.95 372.0 Q484.65 374.7 496.25 370.8 479.95 370.3 474.45 365.9 L474.5 365.85 474.4 365.9 474.3 365.8" fill="#9fc3de" fill-rule="evenodd" stroke="none"/>
  </g>
  <defs>
    <linearGradient gradientTransform="matrix(0.0026, 0.0225, -0.0615, 0.0073, 316.7, 478.7)" gradientUnits="userSpaceOnUse" id="gradient0" spreadMethod="pad" x1="-819.2" x2="819.2">
      <stop offset="0.00784313725490196" stop-color="#3788c2"/>
      <stop offset="1.0" stop-color="#3788c2" stop-opacity="0.0"/>
    </linearGradient>
    <linearGradient gradientTransform="matrix(0.0043, 0.0293, 0.0801, -0.0116, 64.35, 491.9)" gradientUnits="userSpaceOnUse" id="gradient1" spreadMethod="pad" x1="-819.2" x2="819.2">
      <stop offset="0.00784313725490196" stop-color="#3788c2"/>
      <stop offset="1.0" stop-color="#3788c2" stop-opacity="0.0"/>
    </linearGradient>
  </defs>
</svg>
