<?xml version="1.0" encoding="UTF-8" standalone="no"?>
<svg xmlns:ffdec="https://www.free-decompiler.com/flash" xmlns:xlink="http://www.w3.org/1999/xlink" ffdec:objectType="shape" height="24.3px" width="102.85px" xmlns="http://www.w3.org/2000/svg">
  <g transform="matrix(1.0, 0.0, 0.0, 1.0, 0.0, 0.0)">
    <path d="M14.3 14.45 Q13.3 16.7 12.0 17.85 7.9 21.75 0.0 24.2 1.25 24.4 5.95 24.25 10.65 24.05 13.9 21.95 16.95 19.85 16.55 17.85 17.05 19.45 22.7 20.7 L17.2 22.65 Q18.9 22.95 25.25 22.7 31.6 22.45 35.95 19.6 40.1 16.8 39.55 14.1 40.4 16.8 52.4 18.75 64.4 20.65 68.55 20.45 72.7 20.25 69.6 20.3 64.55 19.45 54.8 15.65 L57.15 15.55 Q63.5 15.3 67.85 12.45 72.0 9.65 71.45 6.95 72.3 9.65 84.3 11.6 96.3 13.5 100.45 13.3 104.6 13.1 101.5 13.15 95.35 12.1 82.3 6.7 69.0 1.15 69.35 0.25 L68.4 2.35 Q67.1 5.4 65.3 6.95 60.55 11.45 52.05 14.55 L50.4 13.85 Q37.1 8.3 37.45 7.4 L36.5 9.5 Q35.2 12.55 33.4 14.1 30.75 16.6 26.95 18.65 L24.6 17.65 Q14.75 13.55 15.0 12.9 L14.3 14.45" fill="#256da1" fill-rule="evenodd" stroke="none"/>
  </g>
</svg>
