<?xml version="1.0" encoding="UTF-8" standalone="no"?>
<svg xmlns:ffdec="https://www.free-decompiler.com/flash" xmlns:xlink="http://www.w3.org/1999/xlink" ffdec:objectType="shape" height="49.8px" width="169.75px" xmlns="http://www.w3.org/2000/svg">
  <g transform="matrix(1.0, 0.0, 0.0, 1.0, 0.0, 0.0)">
    <path d="M27.9 26.35 Q20.05 32.55 10.15 35.15 -1.55 38.25 0.25 47.25 0.6 48.75 2.5 48.9 29.95 50.9 56.85 48.55 L68.75 48.95 Q80.9 50.9 92.35 45.5 94.95 44.25 98.1 44.85 119.25 48.75 128.85 32.15 131.1 28.3 136.1 30.05 150.7 35.1 157.15 31.2 L168.8 23.95 Q173.9 20.6 151.55 17.4 129.2 14.2 113.2 6.15 98.1 9.7 85.65 20.0 83.3 21.95 80.55 20.55 72.35 16.2 63.9 17.35 62.15 17.6 61.1 19.3 55.4 28.0 47.2 23.65 41.55 20.75 35.75 22.35 31.45 23.55 27.9 26.35" fill="url(#gradient0)" fill-rule="evenodd" stroke="none"/>
    <path d="M33.35 18.85 Q32.05 21.8 30.35 23.3 25.0 28.4 14.65 31.6 16.3 31.85 22.45 31.65 28.55 31.4 32.8 28.65 36.8 25.9 36.3 23.3 36.95 25.4 44.3 27.0 L37.15 29.55 Q39.35 29.95 47.65 29.6 55.95 29.3 61.65 25.55 67.05 21.9 66.35 18.4 67.45 21.9 83.15 24.45 98.8 26.95 104.25 26.7 109.65 26.4 105.6 26.5 99.0 25.4 86.25 20.4 L89.35 20.3 Q97.65 19.95 103.3 16.25 108.75 12.55 108.05 9.05 109.15 12.55 124.8 15.1 140.5 17.6 145.95 17.35 151.35 17.1 147.3 17.15 139.25 15.75 122.2 8.7 104.85 1.45 105.3 0.3 L104.05 3.05 Q102.35 7.0 100.0 9.05 93.8 14.9 82.7 18.95 L80.5 18.05 Q63.15 10.8 63.6 9.65 L62.35 12.35 Q60.65 16.35 58.3 18.4 54.85 21.65 49.85 24.35 L46.8 23.0 Q33.95 17.65 34.25 16.8 L33.35 18.85" fill="#54a9e5" fill-rule="evenodd" stroke="none"/>
  </g>
  <defs>
    <linearGradient gradientTransform="matrix(0.0043, 0.0293, 0.0801, -0.0116, 83.7, 34.1)" gradientUnits="userSpaceOnUse" id="gradient0" spreadMethod="pad" x1="-819.2" x2="819.2">
      <stop offset="0.00784313725490196" stop-color="#3788c2"/>
      <stop offset="1.0" stop-color="#3788c2" stop-opacity="0.0"/>
    </linearGradient>
  </defs>
</svg>
