<?xml version="1.0" encoding="UTF-8" standalone="no"?>
<svg xmlns:ffdec="https://www.free-decompiler.com/flash" xmlns:xlink="http://www.w3.org/1999/xlink" ffdec:objectType="shape" height="8.4px" width="14.7px" xmlns="http://www.w3.org/2000/svg">
  <g transform="matrix(1.0, 0.0, 0.0, 1.0, 0.0, 0.0)">
    <path d="M0.6 7.05 L3.8 5.25 6.65 5.1 8.95 6.15 8.9 5.65 Q8.35 3.2 10.15 1.8 12.1 0.4 14.15 0.25 L14.35 0.1 14.25 0.2 Q11.45 1.85 10.5 3.45 9.75 4.6 9.5 6.5 L9.5 7.2 Q8.15 6.4 6.0 6.15 L4.6 6.15 0.6 7.05" fill="#e7e0d8" fill-rule="evenodd" stroke="none"/>
    <path d="M14.25 0.2 L14.6 0.0 14.7 0.1 13.95 0.6 Q12.8 2.0 11.3 4.85 11.1 7.25 10.35 8.4 L9.25 8.15 9.0 8.2 8.6 8.0 5.95 7.15 2.15 7.35 0.0 7.55 0.0 7.4 0.25 7.3 0.2 7.15 0.6 7.05 4.6 6.15 6.0 6.15 Q8.15 6.4 9.5 7.2 L9.5 6.5 Q9.75 4.6 10.5 3.45 11.45 1.85 14.25 0.2" fill="#c6c6c6" fill-rule="evenodd" stroke="none"/>
  </g>
</svg>
