<?xml version="1.0" encoding="UTF-8" standalone="no"?>
<svg xmlns:ffdec="https://www.free-decompiler.com/flash" xmlns:xlink="http://www.w3.org/1999/xlink" ffdec:objectType="shape" height="18.1px" width="60.7px" xmlns="http://www.w3.org/2000/svg">
  <g transform="matrix(1.0, 0.0, 0.0, 1.0, -327.5, -190.95)">
    <path d="M386.55 202.95 Q384.35 206.25 383.15 206.85 380.7 208.05 377.95 206.05 378.95 204.35 377.65 206.5 370.75 202.2 365.5 201.55 L363.7 201.35 Q359.55 200.8 354.25 202.05 353.3 202.2 353.55 201.55 353.8 200.6 355.05 200.45 L362.25 199.8 Q358.0 198.3 352.05 199.0 342.35 199.9 333.4 201.35 344.4 196.45 362.75 195.2 354.65 192.7 347.7 193.8 357.35 190.6 362.9 191.0 368.9 191.4 372.9 192.4 376.95 193.45 382.85 196.55 388.7 199.65 386.55 202.95 M348.0 195.25 Q345.1 195.55 327.5 199.9 L345.25 194.6 Q348.65 193.5 348.0 195.25" fill="url(#gradient0)" fill-rule="evenodd" stroke="none"/>
    <path d="M380.95 201.8 L382.05 201.65 Q382.4 202.25 383.1 202.35 L384.55 202.45 385.25 202.0 385.4 201.7 385.65 201.6 Q386.4 201.4 386.15 200.7 385.9 199.6 385.3 198.75 384.7 197.8 383.7 197.3 382.0 196.5 380.2 197.35 378.9 197.95 378.1 199.1 377.2 200.45 378.5 201.4 378.75 201.65 379.15 201.7 L380.8 201.75 380.95 201.8 M382.75 198.25 L382.7 198.3 382.6 198.45 382.5 198.45 382.55 198.4 382.6 198.35 382.65 198.25 382.7 198.2 382.75 198.25 M383.85 201.35 L383.95 201.4 384.0 201.45 383.85 201.45 383.7 201.5 383.65 201.45 383.75 201.4 383.85 201.35 M382.15 200.65 L382.2 200.55 382.2 200.6 382.2 200.7 382.15 200.65 M386.05 204.8 L386.45 204.1 Q386.9 203.1 386.7 202.05 L386.65 202.05 386.55 202.0 386.5 202.0 386.45 202.05 386.2 202.5 385.7 203.9 385.45 203.9 385.3 204.0 385.2 204.1 385.15 204.15 384.95 204.25 384.75 204.45 384.7 204.65 384.65 204.8 Q384.45 204.5 384.1 204.7 L383.9 204.9 383.75 205.0 383.5 205.0 Q383.35 205.0 383.3 205.1 L383.1 205.3 383.05 205.35 382.7 205.15 382.85 204.9 383.05 204.3 Q382.8 204.35 382.7 204.7 L382.4 205.35 Q382.2 205.0 381.8 205.15 L381.5 205.45 381.35 205.6 381.15 205.15 380.7 205.05 380.55 205.1 Q380.65 204.85 380.4 204.7 379.95 204.3 379.65 204.7 L379.35 205.0 379.3 204.7 379.55 204.25 379.9 203.75 379.5 204.0 379.2 204.45 378.85 204.35 378.6 204.25 378.6 204.2 378.25 203.75 Q378.0 203.65 378.05 203.45 L378.2 202.9 378.2 202.75 378.4 202.25 378.15 202.4 377.85 202.05 377.15 202.1 Q377.1 201.9 376.85 202.0 375.8 202.25 376.0 203.5 L376.2 204.5 Q377.05 206.6 379.35 206.7 L379.75 207.1 Q380.05 207.1 380.15 206.9 L380.25 206.9 380.25 207.05 Q380.5 207.45 380.9 207.35 L381.0 207.25 381.2 207.6 Q381.4 208.0 381.8 207.75 L381.95 207.5 Q382.1 207.9 382.45 207.75 L382.5 207.75 383.3 207.9 384.4 207.45 384.9 207.15 385.7 206.5 Q386.75 205.55 387.15 204.25 L387.05 204.15 387.0 204.1 386.95 204.05 386.9 204.05 386.85 204.0 386.8 204.1 386.1 205.0 386.0 205.2 386.0 205.0 386.05 204.8 M388.0 200.4 Q388.6 202.25 387.3 205.1 386.2 207.55 384.1 208.5 382.55 209.25 381.5 209.0 371.25 205.9 376.75 197.7 378.0 195.85 380.45 195.75 383.1 195.7 384.3 196.45 387.35 198.35 388.0 200.4 M379.4 197.3 Q378.9 197.35 378.5 197.7 377.9 198.25 377.45 198.95 377.0 199.75 377.05 200.4 L377.45 199.85 377.5 199.85 377.6 199.85 377.6 199.65 377.7 199.55 377.75 199.45 377.85 199.45 378.3 198.7 379.15 197.9 379.8 197.1 379.4 197.3 M377.5 204.3 L377.55 204.25 377.55 204.3 377.65 204.35 377.5 204.75 377.4 204.5 377.5 204.3 M377.15 203.3 L377.2 203.35 377.15 203.5 377.1 203.65 377.1 203.95 376.9 203.7 376.85 203.5 376.9 203.45 377.1 203.35 377.15 203.3" fill="#48433d" fill-rule="evenodd" stroke="none"/>
    <path d="M382.75 198.25 L382.7 198.2 382.65 198.25 382.6 198.35 382.55 198.4 382.5 198.45 382.6 198.45 382.7 198.3 382.75 198.25 M380.8 201.75 L379.15 201.7 Q378.75 201.65 378.5 201.4 377.2 200.45 378.1 199.1 378.9 197.95 380.2 197.35 382.0 196.5 383.7 197.3 384.7 197.8 385.3 198.75 385.9 199.6 386.15 200.7 386.4 201.4 385.65 201.6 L385.4 201.7 385.25 202.0 384.55 202.45 383.1 202.35 Q382.4 202.25 382.05 201.65 L380.95 201.8 381.0 201.65 381.2 201.45 381.25 201.25 381.2 201.2 381.15 201.15 381.1 201.15 381.05 201.1 380.95 201.15 380.85 201.35 380.75 201.55 380.8 201.75 M383.85 201.35 L383.75 201.4 383.65 201.45 383.7 201.5 383.85 201.45 384.0 201.45 383.95 201.4 383.85 201.35 M381.45 200.25 L381.95 199.8 381.45 199.9 380.8 200.4 Q380.4 200.75 380.5 201.05 L380.9 200.65 381.45 200.25 M382.15 200.65 L382.2 200.7 382.2 200.6 382.2 200.55 382.15 200.65 M379.5 199.4 L378.9 199.8 Q378.55 200.2 378.85 200.4 L379.15 200.25 379.35 199.95 379.75 199.7 379.8 199.75 379.85 199.6 379.95 199.5 380.0 199.35 379.5 199.4" fill="#7b7874" fill-rule="evenodd" stroke="none"/>
    <path d="M377.65 204.35 L377.75 204.35 377.75 204.45 377.75 204.65 377.8 204.9 377.8 205.0 377.8 205.2 377.5 205.0 377.5 204.75 377.65 204.35" fill="#1e1b19" fill-rule="evenodd" stroke="none"/>
    <path d="M385.7 203.9 L386.2 202.5 386.45 202.05 386.5 202.0 386.55 202.0 386.65 202.05 386.7 202.05 Q386.9 203.1 386.45 204.1 L386.05 204.8 385.2 205.8 Q384.45 206.35 383.8 206.1 384.2 205.35 384.95 204.85 L385.55 204.15 385.7 203.9 M386.0 205.2 L386.1 205.0 386.8 204.1 386.85 204.0 386.9 204.05 386.95 204.05 387.0 204.1 387.05 204.15 387.15 204.25 Q386.75 205.55 385.7 206.5 L384.9 207.15 385.0 207.05 385.15 206.55 385.75 206.15 386.0 205.2 M384.4 207.45 L383.3 207.9 382.5 207.75 382.7 207.6 382.75 207.5 Q382.95 207.9 383.35 207.75 L383.65 207.45 383.75 207.1 Q384.0 207.55 384.4 207.45" fill="#3f3b37" fill-rule="evenodd" stroke="none"/>
    <path d="M386.05 204.8 L386.0 205.0 386.0 205.2 385.75 206.15 385.15 206.55 385.0 207.05 384.9 207.15 384.4 207.45 Q384.0 207.55 383.75 207.1 L383.65 207.45 383.35 207.75 Q382.95 207.9 382.75 207.5 L382.7 207.6 382.5 207.75 382.45 207.75 Q382.1 207.9 381.95 207.5 L381.8 207.75 Q381.4 208.0 381.2 207.6 L381.0 207.25 380.9 207.35 Q380.5 207.45 380.25 207.05 L380.25 206.9 380.15 206.9 Q380.05 207.1 379.75 207.1 L379.35 206.7 Q377.05 206.6 376.2 204.5 L376.0 203.5 Q375.8 202.25 376.85 202.0 377.1 201.9 377.15 202.1 L377.85 202.05 378.15 202.4 377.95 202.65 377.45 203.55 377.35 204.35 377.35 204.4 377.4 204.55 377.4 204.5 377.5 204.75 377.5 205.0 377.8 205.2 377.8 205.0 377.8 204.9 377.75 204.65 377.75 204.45 377.75 204.35 377.65 204.35 377.55 204.3 377.55 204.25 377.5 204.3 377.65 203.9 378.0 203.1 378.2 202.75 378.2 202.9 378.05 203.45 Q378.0 203.65 378.25 203.75 L378.6 204.2 378.6 204.25 378.85 204.35 379.2 204.45 379.1 204.6 Q378.85 204.95 378.95 205.25 L379.2 204.85 379.3 204.7 379.35 205.0 379.65 204.7 Q379.95 204.3 380.4 204.7 380.65 204.85 380.55 205.1 L380.7 205.05 381.15 205.15 381.35 205.6 381.5 205.45 381.8 205.15 Q382.2 205.0 382.4 205.35 L382.1 205.9 382.45 205.6 382.7 205.15 383.05 205.35 383.1 205.3 383.3 205.1 Q383.35 205.0 383.5 205.0 L383.75 205.0 383.9 204.9 384.1 204.7 Q384.45 204.5 384.65 204.8 L384.7 204.65 384.75 204.45 384.95 204.25 385.15 204.15 385.2 204.1 385.3 204.0 385.45 203.9 385.7 203.9 385.55 204.15 384.95 204.85 Q384.2 205.35 383.8 206.1 384.45 206.35 385.2 205.8 L386.05 204.8 M377.45 199.85 L377.05 200.4 Q377.0 199.75 377.45 198.95 377.9 198.25 378.5 197.7 378.9 197.35 379.4 197.3 L379.0 197.55 Q378.55 197.9 378.2 198.4 L377.6 199.3 377.6 199.5 377.5 199.7 377.45 199.85 M379.5 199.4 L380.0 199.35 379.95 199.5 379.85 199.6 379.8 199.75 379.75 199.7 379.35 199.95 379.15 200.25 378.85 200.4 Q378.55 200.2 378.9 199.8 L379.5 199.4 M377.15 203.3 L377.1 203.35 376.9 203.45 376.85 203.5 376.9 203.7 377.1 203.95 377.1 203.65 377.15 203.5 377.2 203.35 377.15 203.3" fill="#2a2623" fill-rule="evenodd" stroke="none"/>
    <path d="M380.95 201.8 L380.8 201.75 380.75 201.55 380.85 201.35 380.95 201.15 381.05 201.1 381.1 201.15 381.15 201.15 381.2 201.2 381.25 201.25 381.2 201.45 381.0 201.65 380.95 201.8 M381.45 200.25 L380.9 200.65 380.5 201.05 Q380.4 200.75 380.8 200.4 L381.45 199.9 381.95 199.8 381.45 200.25 M378.15 202.4 L378.4 202.25 378.2 202.75 378.0 203.1 377.65 203.9 377.5 204.3 377.4 204.5 377.4 204.55 377.35 204.4 377.35 204.35 377.45 203.55 377.95 202.65 378.15 202.4 M379.2 204.45 L379.5 204.0 379.9 203.75 379.55 204.25 379.3 204.7 379.2 204.85 378.95 205.25 Q378.85 204.95 379.1 204.6 L379.2 204.45 M382.4 205.35 L382.7 204.7 Q382.8 204.35 383.05 204.3 L382.85 204.9 382.7 205.15 382.45 205.6 382.1 205.9 382.4 205.35 M377.45 199.85 L377.5 199.7 377.6 199.5 377.6 199.3 378.2 198.4 Q378.55 197.9 379.0 197.55 L379.4 197.3 379.8 197.1 379.15 197.9 378.3 198.7 377.85 199.45 377.75 199.45 377.7 199.55 377.6 199.65 377.6 199.85 377.5 199.85 377.45 199.85" fill="#514c46" fill-rule="evenodd" stroke="none"/>
  </g>
  <defs>
    <linearGradient gradientTransform="matrix(0.0296, 0.0078, -0.003, 0.0112, 360.1, 198.5)" gradientUnits="userSpaceOnUse" id="gradient0" spreadMethod="pad" x1="-819.2" x2="819.2">
      <stop offset="0.00784313725490196" stop-color="#e5eef5" stop-opacity="0.18039216"/>
      <stop offset="1.0" stop-color="#ffffff" stop-opacity="0.7176471"/>
    </linearGradient>
  </defs>
</svg>
