<?xml version="1.0" encoding="UTF-8" standalone="no"?>
<svg xmlns:ffdec="https://www.free-decompiler.com/flash" xmlns:xlink="http://www.w3.org/1999/xlink" ffdec:objectType="shape" height="39.95px" width="22.65px" xmlns="http://www.w3.org/2000/svg">
  <g transform="matrix(1.0, 0.0, 0.0, 1.0, -17.35, 0.6)">
    <path d="M25.85 3.3 L25.9 3.5 25.45 3.0 25.3 2.75 25.85 3.3 M22.85 -0.1 L22.45 -0.15 22.05 0.15 21.8 0.5 21.85 0.75 20.5 -0.4 Q19.85 -0.4 19.8 0.3 L19.3 -0.15 18.75 0.1 18.5 0.6 17.35 0.25 Q21.8 -1.55 27.15 0.5 36.5 4.3 39.05 11.45 41.5 18.4 37.5 28.15 L32.6 39.35 32.75 38.3 32.8 38.1 33.05 37.05 33.25 36.35 33.4 35.7 33.5 35.0 33.75 33.35 34.1 33.55 34.65 33.3 34.9 32.65 34.05 31.4 34.05 31.2 34.15 30.55 34.3 30.85 34.45 31.25 Q34.65 31.55 35.05 31.55 35.5 31.55 35.7 30.8 L34.95 29.4 35.05 29.4 35.5 29.25 35.8 28.75 35.15 27.55 35.1 27.5 35.0 27.3 34.25 26.5 34.3 26.5 Q34.8 26.5 35.05 25.8 35.8 26.35 36.1 26.35 L36.65 26.05 36.85 25.55 36.1 24.7 35.5 24.05 35.5 24.0 35.75 23.45 35.1 22.4 35.1 22.25 35.05 22.0 Q36.05 23.0 36.55 23.0 L37.1 22.7 37.3 22.25 35.3 20.05 35.4 20.15 35.85 20.4 36.3 20.65 Q36.6 20.85 36.75 20.85 L37.1 20.9 37.65 20.6 37.85 20.1 37.7 19.75 35.5 18.3 Q35.3 18.3 34.15 17.35 35.45 18.35 36.0 18.35 36.25 18.35 36.5 18.15 L36.75 17.6 36.65 17.4 36.75 17.4 37.3 17.15 37.55 16.6 36.65 15.5 36.65 15.45 Q36.65 14.9 35.75 14.5 L35.1 14.25 35.1 14.2 35.45 14.25 36.2 13.95 36.35 14.0 Q37.25 14.0 37.25 13.25 L36.75 12.5 36.45 12.25 36.65 11.7 36.4 11.05 36.6 10.5 36.25 9.95 35.8 9.5 35.3 9.15 34.7 8.75 34.25 8.25 34.05 8.05 34.0 7.9 Q33.25 5.7 32.6 5.7 L32.2 5.9 31.9 5.6 31.65 5.35 30.65 3.15 30.4 3.1 Q30.1 3.1 29.9 3.35 L29.8 3.5 Q29.05 2.8 28.8 2.8 28.05 2.8 27.95 3.35 L27.55 2.95 27.05 2.45 26.85 1.95 Q26.6 1.35 26.15 1.35 L25.95 1.4 25.8 1.3 25.25 0.95 Q24.5 0.95 24.4 1.65 L24.05 1.15 22.85 -0.1" fill="#8e5120" fill-rule="evenodd" stroke="none"/>
  </g>
</svg>
