<?xml version="1.0" encoding="UTF-8" standalone="no"?>
<svg xmlns:ffdec="https://www.free-decompiler.com/flash" xmlns:xlink="http://www.w3.org/1999/xlink" ffdec:objectType="shape" height="8.9px" width="40.55px" xmlns="http://www.w3.org/2000/svg">
  <g transform="matrix(1.0, 0.0, 0.0, 1.0, 0.0, 0.0)">
    <path d="M34.2 8.5 Q31.0 9.95 22.95 6.15 14.9 2.35 3.0 6.65 L0.0 7.75 Q6.8 2.75 13.65 1.55 19.4 1.75 25.0 3.05 32.0 4.7 38.8 3.05 41.45 2.4 39.55 4.55 37.4 7.05 34.2 8.5" fill="#5da7de" fill-rule="evenodd" stroke="none"/>
    <path d="M37.25 0.15 L37.6 0.0 Q40.05 0.05 40.5 2.4 L40.45 3.85 Q40.1 5.25 38.7 4.5 37.4 3.85 36.0 3.8 34.75 4.1 33.7 5.25 31.25 7.75 23.75 4.05 20.3 2.3 17.75 1.95 L23.75 2.95 Q26.2 2.95 28.5 1.55 28.85 1.3 29.3 1.1 32.3 -0.15 35.5 0.5 36.4 0.7 37.25 0.15" fill="#c6e7ff" fill-rule="evenodd" stroke="none"/>
  </g>
</svg>
