<?xml version="1.0" encoding="UTF-8" standalone="no"?>
<svg xmlns:ffdec="https://www.free-decompiler.com/flash" xmlns:xlink="http://www.w3.org/1999/xlink" ffdec:objectType="shape" height="72.25px" width="84.7px" xmlns="http://www.w3.org/2000/svg">
  <g transform="matrix(1.0, 0.0, 0.0, 1.0, 0.0, -0.35)">
    <path d="M40.45 54.25 L39.85 54.7 Q39.95 52.9 41.8 51.45 43.35 50.3 45.2 49.85 L41.9 52.9 40.55 54.15 40.45 54.45 40.45 54.25" fill="#935415" fill-rule="evenodd" stroke="none"/>
    <path d="M60.0 43.05 Q63.6 42.05 66.05 44.25 67.95 45.9 65.75 47.05 L65.75 47.15 Q66.05 49.05 64.15 49.15 L61.2 49.4 61.2 49.55 Q60.8 50.6 59.5 50.6 59.1 50.6 58.75 50.85 57.65 53.35 53.9 54.45 L51.1 54.85 49.8 55.1 Q46.55 56.35 44.65 55.05 L44.55 55.0 Q43.35 55.6 42.3 56.4 41.2 57.25 40.8 55.9 35.05 58.45 35.35 56.0 35.65 53.5 40.0 49.9 44.35 46.3 54.1 44.0 L60.0 43.05 M58.7 47.25 Q59.15 47.4 60.35 46.8 L60.2 46.65 59.3 47.0 58.7 47.25" fill="#623609" fill-rule="evenodd" stroke="none"/>
    <path d="M72.0 27.05 Q71.5 28.45 70.55 29.35 L69.7 29.55 Q67.85 29.05 66.3 27.95 64.75 26.85 65.95 25.7 66.65 25.0 66.95 24.0 67.25 22.95 68.05 22.35 69.25 24.05 71.05 25.2 71.8 25.65 72.0 26.35 L72.0 27.05" fill="#9f6830" fill-rule="evenodd" stroke="none"/>
    <path d="M76.15 38.3 L74.25 35.95 Q74.25 30.9 79.5 34.0 81.25 35.05 83.05 36.7 84.7 38.2 84.7 38.55 84.7 40.65 80.5 40.65 78.45 40.65 76.15 38.3" fill="#b6793a" fill-rule="evenodd" stroke="none"/>
    <path d="M54.15 44.4 L54.5 43.15 Q56.8 35.25 59.25 31.25 L60.35 28.6 Q61.0 26.85 61.75 26.0 63.4 24.25 65.85 25.8 69.25 28.0 70.75 28.0 L71.65 27.75 72.55 27.5 Q74.1 27.5 75.15 29.0 L76.7 31.95 Q77.1 33.05 79.95 34.05 76.4 35.7 75.75 37.5 75.05 39.25 73.85 37.8 L71.35 34.5 71.7 34.1 71.8 34.55 Q71.9 35.0 72.4 34.9 L74.05 37.6 Q74.25 37.8 74.3 37.6 74.65 36.95 74.25 36.15 74.75 36.95 75.65 37.2 L75.7 37.15 75.45 36.2 76.0 36.45 76.05 36.45 Q76.05 34.95 75.05 33.6 74.3 32.65 74.15 31.45 73.85 29.5 72.8 28.15 72.4 28.55 72.75 29.35 73.1 30.15 72.4 30.8 71.7 31.4 70.5 31.2 L69.6 31.15 Q68.45 31.05 68.65 31.95 68.4 32.2 68.65 32.45 69.0 32.85 69.55 32.95 L69.2 33.7 68.5 34.4 67.7 34.2 Q66.9 34.15 67.1 35.05 L67.0 35.05 66.85 35.05 66.75 35.05 66.75 35.0 Q66.65 34.45 66.1 34.35 L65.45 34.4 Q65.2 34.5 65.2 34.75 65.1 36.25 64.5 37.45 L63.65 37.5 Q63.4 37.55 63.5 37.7 L64.25 38.85 63.5 39.05 Q63.25 39.1 63.1 39.25 62.35 40.1 64.0 40.45 L63.75 40.45 Q61.95 40.8 63.25 41.55 L62.25 41.75 61.95 42.0 Q61.85 43.15 63.25 43.65 L62.9 43.75 Q60.85 44.25 61.55 45.15 L60.8 45.4 Q60.35 45.55 60.7 45.9 L60.4 46.2 60.4 46.4 60.9 46.55 Q57.2 46.95 54.15 44.4 M70.65 34.3 Q68.6 34.6 67.05 38.65 L66.9 37.45 67.1 37.25 67.9 36.55 Q68.35 35.7 67.85 35.0 L68.1 35.05 68.85 35.0 70.3 33.4 70.6 34.15 70.65 34.3 M52.25 54.15 Q51.6 55.0 51.7 54.15 L52.25 54.15" fill="#dedede" fill-rule="evenodd" stroke="none"/>
    <path d="M64.7 45.4 L63.5 48.6 Q61.6 48.4 61.25 47.95 L60.8 48.6 Q59.35 50.35 58.3 50.35 56.5 50.35 53.0 52.85 L52.25 54.15 51.7 54.15 51.75 53.5 52.95 48.6 54.1 44.35 54.15 44.4 Q57.2 46.95 60.9 46.55 62.7 46.35 64.7 45.4" fill="#742929" fill-rule="evenodd" stroke="none"/>
    <path d="M71.35 34.5 L71.0 34.25 70.65 34.3 70.6 34.15 70.3 33.4 68.85 35.0 68.1 35.05 67.85 35.0 Q68.35 35.7 67.9 36.55 L67.1 37.25 66.9 37.45 67.05 38.65 66.55 40.0 66.5 40.1 64.7 45.4 Q62.7 46.35 60.9 46.55 L60.4 46.4 60.4 46.2 60.7 45.9 Q60.35 45.55 60.8 45.4 L61.55 45.15 Q60.85 44.25 62.9 43.75 L63.25 43.65 Q61.85 43.15 61.95 42.0 L62.25 41.75 63.25 41.55 Q61.95 40.8 63.75 40.45 L64.0 40.45 Q62.35 40.1 63.1 39.25 63.25 39.1 63.5 39.05 L64.25 38.85 63.5 37.7 Q63.4 37.55 63.65 37.5 L64.5 37.45 Q65.1 36.25 65.2 34.75 65.2 34.5 65.45 34.4 L66.1 34.35 Q66.65 34.45 66.75 35.0 L66.75 35.05 66.85 35.05 67.0 35.05 67.1 35.05 Q66.9 34.15 67.7 34.2 L68.5 34.4 69.2 33.7 69.55 32.95 Q69.0 32.85 68.65 32.45 68.4 32.2 68.65 31.95 68.45 31.05 69.6 31.15 L70.5 31.2 Q71.7 31.4 72.4 30.8 73.1 30.15 72.75 29.35 72.4 28.55 72.8 28.15 73.85 29.5 74.15 31.45 74.3 32.65 75.05 33.6 76.05 34.95 76.05 36.45 L76.0 36.45 75.45 36.2 75.7 37.15 75.65 37.2 Q74.75 36.95 74.25 36.15 74.65 36.95 74.3 37.6 74.25 37.8 74.05 37.6 L72.4 34.9 Q71.9 35.0 71.8 34.55 L71.7 34.1 71.35 34.5" fill="#bdbaba" fill-rule="evenodd" stroke="none"/>
    <path d="M68.05 34.4 L68.0 34.45 68.0 34.5 68.05 34.4 M68.15 34.25 Q68.35 33.85 68.7 33.85 69.1 33.85 69.1 34.3 L68.85 35.15 68.5 35.9 Q67.85 37.4 67.45 37.4 L66.9 37.1 Q66.5 36.75 66.6 36.4 L66.25 36.35 65.85 36.6 Q65.5 36.6 65.5 36.2 L65.6 35.85 65.3 35.4 Q65.3 35.1 65.45 35.0 L64.9 34.65 65.0 34.35 64.8 34.35 64.5 34.15 64.5 33.85 63.7 33.1 Q63.15 32.55 63.25 32.15 L62.85 31.7 Q62.85 31.45 63.15 31.05 L62.85 30.7 63.0 30.45 62.75 30.1 63.3 29.5 Q63.85 29.1 63.85 30.1 L64.0 30.25 64.0 30.75 Q64.45 30.8 64.6 31.15 L64.95 31.7 65.3 31.4 65.65 31.8 65.5 32.25 65.65 32.65 Q66.05 32.75 66.1 32.95 L66.1 33.4 67.25 33.15 67.6 33.45 67.8 33.35 Q68.2 33.35 68.2 33.8 L68.15 34.25" fill="#cdcdcd" fill-rule="evenodd" stroke="none"/>
    <path d="M57.05 34.05 L57.15 33.9 57.6 33.2 57.25 33.75 57.05 34.1 57.05 34.05 M58.1 33.6 L58.25 33.35 58.4 34.8 Q58.5 35.75 59.3 36.55 60.75 37.95 63.6 37.95 L66.25 37.4 Q67.3 36.85 67.6 36.85 L67.25 38.4 67.25 38.45 Q65.85 39.1 63.55 39.1 59.2 39.1 57.65 36.65 L57.2 35.0 58.1 33.6 M68.3 37.5 L68.35 37.35 68.35 37.45 68.3 37.7 68.3 37.5" fill="#426177" fill-rule="evenodd" stroke="none"/>
    <path d="M70.55 33.85 L70.15 34.4 Q68.5 34.05 67.55 35.25 66.9 36.55 66.65 36.55 66.2 36.55 66.0 36.2 L65.95 35.85 Q65.95 34.6 68.25 33.65 70.55 32.75 70.55 33.85" fill="#426177" fill-rule="evenodd" stroke="none"/>
    <path d="M68.9 32.2 Q67.0 32.2 65.95 33.1 65.05 33.85 65.15 34.7 L65.05 34.75 Q64.7 34.65 64.7 34.0 64.7 33.3 65.5 32.5 66.45 31.55 67.85 31.55 L68.9 31.6 68.9 32.2" fill="#426177" fill-rule="evenodd" stroke="none"/>
    <path d="M64.7 30.2 L63.4 31.45 63.05 31.4 62.95 31.1 Q62.95 30.15 65.2 29.45 67.45 28.8 67.45 29.6 L67.2 30.0 64.7 30.2" fill="#426177" fill-rule="evenodd" stroke="none"/>
    <path d="M60.65 33.55 L61.55 34.55 Q62.1 35.25 63.65 35.25 L65.0 35.05 Q65.6 35.05 65.6 35.5 65.6 36.1 63.95 36.1 L62.0 35.95 Q61.1 35.95 60.7 35.25 L59.65 34.2 59.05 33.35 58.75 32.3 Q58.75 31.6 59.05 31.6 L59.55 32.6 Q59.85 33.2 60.65 33.55" fill="#426177" fill-rule="evenodd" stroke="none"/>
    <path d="M59.95 30.35 L60.15 29.95 61.55 31.45 62.6 32.1 63.5 32.65 63.4 32.85 63.2 32.95 Q61.5 32.6 61.1 31.8 L60.55 31.05 59.95 30.35" fill="#426177" fill-rule="evenodd" stroke="none"/>
    <path d="M78.7 33.5 Q78.7 33.65 77.7 34.1 76.55 34.65 76.1 35.15 L74.95 36.7 74.8 36.7 74.75 36.55 Q74.75 35.45 76.75 34.05 78.7 32.65 78.7 33.5" fill="#426177" fill-rule="evenodd" stroke="none"/>
    <path d="M75.05 33.65 L74.85 34.1 Q74.2 34.6 73.65 35.4 L73.15 36.1 72.9 35.85 72.9 35.6 73.0 35.05 73.3 34.45 Q73.35 34.25 73.75 34.0 L74.35 33.45 Q74.75 32.6 75.25 32.35 L76.25 31.95 Q76.9 31.8 76.9 32.1 76.9 32.4 75.55 33.05 L75.05 33.65" fill="#426177" fill-rule="evenodd" stroke="none"/>
    <path d="M71.6 33.8 Q71.25 33.8 71.25 33.45 71.25 32.95 71.8 32.2 L72.65 31.2 Q73.25 30.3 74.6 29.85 75.9 29.35 75.9 30.05 L75.6 30.45 Q74.0 30.5 73.8 31.25 73.6 32.05 72.65 32.15 72.45 32.3 72.15 33.15 L71.6 33.8" fill="#426177" fill-rule="evenodd" stroke="none"/>
    <path d="M38.35 3.5 L55.75 52.6 50.25 54.5 32.85 5.4 38.35 3.5" fill="#77420d" fill-rule="evenodd" stroke="none"/>
    <path d="M34.75 7.15 L35.05 6.35 Q35.1 5.65 34.6 5.15 L34.2 4.85 35.65 4.2 35.95 4.5 36.0 5.1 Q36.1 6.25 37.0 6.5 L37.65 6.6 37.65 6.7 38.35 9.1 40.2 14.35 40.8 15.65 42.1 19.05 42.65 20.45 Q44.05 23.85 45.0 27.4 46.25 31.9 48.25 36.1 L49.5 40.1 Q50.3 43.0 53.55 48.9 56.75 54.8 53.45 53.45 L51.5 54.3 48.45 46.0 48.45 45.6 Q48.55 44.35 47.8 43.8 L47.7 43.95 47.7 44.0 47.35 43.05 47.35 42.65 Q47.55 41.55 46.85 41.15 46.75 41.15 46.7 41.25 L46.7 41.3 46.0 39.4 Q46.25 38.15 45.45 37.55 L45.35 37.65 40.25 23.95 40.25 23.65 40.25 22.75 Q40.45 21.6 39.65 21.25 L39.55 21.35 Q39.45 21.5 39.5 21.7 L38.4 18.95 38.45 18.65 Q38.45 17.4 37.7 16.85 L34.65 8.65 Q34.95 8.25 34.75 7.15" fill="#935415" fill-rule="evenodd" stroke="none"/>
    <path d="M45.3 71.7 L36.4 57.2 Q52.8 54.3 66.85 44.0 L68.9 62.15 Q61.25 72.05 45.3 71.7" fill="#77420d" fill-rule="evenodd" stroke="none"/>
    <path d="M66.5 50.9 Q69.15 51.25 67.1 53.65 67.8 53.5 67.25 54.1 65.55 55.95 61.3 58.3 57.05 60.65 51.0 62.15 44.95 63.65 41.9 62.9 38.85 62.15 40.6 60.85 L41.65 60.45 Q52.75 59.4 62.15 53.55 64.35 52.15 66.5 50.9" fill="#623609" fill-rule="evenodd" stroke="none"/>
    <path d="M66.15 44.25 L67.05 44.25 67.25 44.3 Q69.1 46.6 69.55 49.35 L69.65 49.4 Q67.1 52.65 61.35 56.0 51.8 61.5 43.4 61.95 L38.35 62.2 37.55 60.7 36.45 58.95 35.7 56.5 35.55 55.9 35.55 55.55 Q43.7 55.3 51.55 52.95 54.6 52.05 59.35 48.9 L64.75 45.0 Q65.4 44.25 66.15 44.25 M40.7 61.55 L39.9 61.5 39.9 61.55 40.7 61.55" fill="#935415" fill-rule="evenodd" stroke="none"/>
    <path d="M59.7 40.05 L63.3 40.45 64.55 40.3 65.2 40.15 Q66.5 40.15 66.5 40.75 66.5 41.1 65.0 41.45 L63.15 41.55 62.05 41.8 60.55 41.6 59.95 41.2 58.55 40.65 57.1 39.35 56.65 39.5 Q55.75 39.5 55.75 39.0 55.75 38.55 55.9 38.25 56.0 37.6 56.15 37.65 L56.55 37.9 56.8 37.75 57.5 38.25 58.3 39.2 Q59.15 39.35 59.7 40.05" fill="#426177" fill-rule="evenodd" stroke="none"/>
    <path d="M62.1 43.6 L63.9 43.25 65.25 43.05 Q65.95 43.05 65.9 43.6 65.9 43.95 64.5 44.35 L62.55 44.7 Q58.6 44.7 56.95 43.4 L55.5 42.65 54.95 42.35 55.0 42.2 55.4 41.1 Q56.0 41.2 56.85 42.0 57.45 42.55 58.4 42.85 L60.85 43.6 62.1 43.6" fill="#426177" fill-rule="evenodd" stroke="none"/>
    <path d="M67.25 44.3 Q69.15 46.65 69.55 49.4 L69.6 49.7 Q68.95 47.9 67.65 46.25 L67.45 46.2 66.55 46.2 Q65.8 46.2 65.15 46.95 L59.75 50.85 Q55.0 54.0 51.95 54.9 44.25 57.2 38.45 57.2 L36.25 57.5 Q34.05 56.35 35.9 55.55 43.85 55.25 51.55 52.95 54.6 52.05 59.35 48.9 L64.75 45.0 Q65.4 44.25 66.15 44.25 L67.05 44.25 67.25 44.3" fill="#a1682f" fill-rule="evenodd" stroke="none"/>
    <path d="M58.55 50.0 Q59.75 50.6 58.45 51.55 L56.5 52.85 Q52.25 55.25 47.4 55.9 L45.4 55.9 Q44.25 55.8 44.7 55.25 45.15 54.7 46.9 54.55 48.7 54.35 50.6 53.55 52.45 52.7 53.4 52.35 56.1 51.35 58.55 50.0" fill="#b4793e" fill-rule="evenodd" stroke="none"/>
    <path d="M75.7 41.7 Q72.8 42.5 69.9 40.15 67.05 37.95 65.0 35.1 L64.6 34.45 65.1 33.95 65.3 33.75 65.85 34.55 Q68.45 39.35 73.45 41.4 74.35 41.85 74.85 41.05 L75.05 41.25 75.7 41.7" fill="#b6793a" fill-rule="evenodd" stroke="none"/>
    <path d="M74.1 36.95 L74.05 36.95 74.05 37.0 74.1 36.95 M65.3 33.75 L66.4 32.55 Q66.95 32.2 68.35 31.55 L69.15 32.0 72.3 34.3 74.35 36.4 74.4 36.5 74.5 36.35 74.5 36.3 74.5 36.35 Q76.75 39.45 75.75 41.65 L75.9 41.7 75.7 41.7 75.05 41.25 74.85 41.05 Q74.35 41.85 73.45 41.4 68.45 39.35 65.85 34.55 L65.3 33.75" fill="#bf8244" fill-rule="evenodd" stroke="none"/>
    <path d="M21.1 14.3 L21.2 14.2 Q23.4 12.55 23.85 9.8 24.2 7.4 25.1 5.05 25.85 3.2 27.25 1.85 29.5 -0.35 32.6 0.7 35.05 1.55 37.3 2.9 38.7 3.75 39.3 2.0 44.25 16.3 46.35 25.1 44.95 22.15 42.45 22.7 39.95 23.2 40.45 26.95 L38.35 24.55 34.75 20.4 Q33.15 18.65 32.4 19.7 L32.15 20.1 Q31.45 21.5 31.5 23.7 L31.6 24.15 31.65 25.8 Q30.6 28.0 28.6 23.95 26.1 18.85 25.95 17.75 25.3 13.4 24.3 9.55 L24.05 9.65 24.0 9.7 23.75 11.05 Q23.45 13.35 21.3 14.5 L21.15 14.4 21.1 14.3 M31.95 18.95 L32.15 19.0 Q35.75 19.3 36.3 20.3 37.65 22.7 39.7 22.3 L39.7 21.8 38.85 20.1 38.4 19.1 38.35 18.7 Q39.45 18.15 39.05 17.05 38.7 16.05 37.8 15.3 L36.9 14.6 37.6 12.9 Q38.1 11.75 36.55 11.45 36.1 11.35 36.0 10.9 L37.1 10.25 Q39.85 9.1 37.25 8.0 L35.35 6.85 37.85 5.65 Q38.85 5.1 38.05 4.35 35.0 1.55 30.65 1.25 27.2 1.45 26.0 4.45 25.5 5.55 26.7 5.7 L26.8 5.6 26.95 5.5 27.05 5.4 27.2 5.35 27.4 5.3 28.2 6.35 28.4 7.9 28.5 8.8 28.65 10.1 28.7 10.45 29.35 17.15 Q29.35 17.55 29.65 17.85 30.5 19.85 30.9 19.75 L30.7 20.4 31.35 19.15 31.45 18.9 31.95 18.95" fill="#b92f00" fill-rule="evenodd" stroke="none"/>
    <path d="M21.1 14.3 L21.15 14.4 21.3 14.5 Q23.45 13.35 23.75 11.05 L24.0 9.7 24.05 9.65 24.3 9.55 Q25.3 13.4 25.95 17.75 26.1 18.85 28.6 23.95 30.6 28.0 31.65 25.8 L31.35 27.4 Q30.6 29.25 28.45 30.1 27.4 30.55 25.9 28.95 24.4 27.3 22.65 26.9 L20.05 26.45 Q19.25 26.4 18.8 25.7 18.2 24.8 18.2 23.4 L17.9 19.9 16.75 12.75 17.05 12.5 Q19.55 12.35 21.1 14.3 M32.4 17.95 Q32.75 18.4 32.15 18.9 32.05 18.7 32.4 17.95" fill="#a32a01" fill-rule="evenodd" stroke="none"/>
    <path d="M28.5 8.8 L28.4 7.9 28.2 6.35 27.4 5.3 27.2 5.35 27.05 5.4 26.95 5.5 26.8 5.6 26.7 5.7 Q25.5 5.55 26.0 4.45 27.2 1.45 30.65 1.25 35.0 1.55 38.05 4.35 38.85 5.1 37.85 5.65 L35.35 6.85 37.25 8.0 Q39.85 9.1 37.1 10.25 L36.0 10.9 Q36.1 11.35 36.55 11.45 38.1 11.75 37.6 12.9 L36.9 14.6 37.8 15.3 Q38.7 16.05 39.05 17.05 39.45 18.15 38.35 18.7 L38.4 19.1 38.85 20.1 39.7 21.8 39.7 22.3 Q37.65 22.7 36.3 20.3 35.75 19.3 32.15 19.0 L31.95 18.95 Q34.4 18.1 37.0 18.35 37.4 17.75 36.65 17.6 L32.85 17.25 33.0 17.0 33.0 16.65 32.6 16.3 32.65 16.25 32.8 16.1 33.6 15.3 33.65 14.85 33.65 14.75 Q34.3 14.7 34.35 14.1 34.35 13.5 33.85 13.1 L33.3 12.75 33.35 12.7 Q34.3 11.7 32.7 11.25 L30.55 11.3 Q31.3 10.3 32.55 10.0 33.15 9.85 32.85 9.35 32.4 8.7 32.0 8.6 L33.45 8.4 33.55 8.35 Q33.9 7.3 32.6 7.05 L30.1 7.1 31.1 6.35 Q32.3 5.8 31.8 4.9 L31.25 4.35 33.2 4.05 33.4 3.85 Q32.8 1.8 30.15 2.3 L29.8 2.35 29.0 2.5 Q27.65 2.7 27.0 3.85 26.1 5.45 28.2 4.95 L28.2 5.2 28.45 5.5 28.8 5.85 28.85 5.9 28.6 6.25 Q28.35 6.5 28.4 6.85 28.4 7.2 28.7 7.35 L28.4 7.95 28.4 8.0 28.5 8.8 M31.35 19.15 L30.7 20.4 30.9 19.75 Q30.5 19.85 29.65 17.85 29.35 17.55 29.35 17.15 L28.7 10.45 Q29.4 10.4 30.05 9.85 30.6 9.4 31.15 9.6 L31.05 9.65 30.1 10.3 Q29.45 11.05 29.3 12.0 L29.4 12.45 Q30.2 12.75 30.95 12.15 L32.5 12.0 Q31.6 12.0 30.8 12.35 29.6 12.85 29.4 14.1 29.2 15.2 30.15 15.45 L30.1 15.8 30.2 16.1 Q30.35 16.35 30.65 16.45 L30.55 16.75 30.65 18.05 30.8 18.8 30.85 18.9 31.35 19.15 M32.1 14.8 L32.15 14.8 31.75 15.1 31.4 15.2 31.45 15.15 Q31.6 14.95 31.85 14.9 L32.1 14.8 M32.5 13.75 L32.7 13.7 33.1 13.75 33.2 13.8 32.5 13.75" fill="#c93c0c" fill-rule="evenodd" stroke="none"/>
    <path d="M28.5 8.8 L28.4 8.0 28.4 7.95 28.7 7.35 Q28.4 7.2 28.4 6.85 28.35 6.5 28.6 6.25 L28.85 5.9 28.8 5.85 28.45 5.5 28.2 5.2 28.2 4.95 Q26.1 5.45 27.0 3.85 27.65 2.7 29.0 2.5 L29.8 2.35 30.15 2.3 Q32.8 1.8 33.4 3.85 L33.2 4.05 31.25 4.35 31.8 4.9 Q32.3 5.8 31.1 6.35 L30.1 7.1 32.6 7.05 Q33.9 7.3 33.55 8.35 L33.45 8.4 32.0 8.6 Q32.4 8.7 32.85 9.35 33.15 9.85 32.55 10.0 31.3 10.3 30.55 11.3 L32.7 11.25 Q34.3 11.7 33.35 12.7 L33.3 12.75 33.85 13.1 Q34.35 13.5 34.35 14.1 34.3 14.7 33.65 14.75 L33.65 14.85 33.6 15.3 32.8 16.1 32.65 16.25 32.6 16.3 33.0 16.65 33.0 17.0 32.85 17.25 36.65 17.6 Q37.4 17.75 37.0 18.35 34.4 18.1 31.95 18.95 L31.45 18.9 31.35 19.15 30.85 18.9 30.8 18.8 30.65 18.05 30.55 16.75 30.65 16.45 Q30.35 16.35 30.2 16.1 L30.1 15.8 30.15 15.45 Q29.2 15.2 29.4 14.1 29.6 12.85 30.8 12.35 31.6 12.0 32.5 12.0 L30.95 12.15 Q30.2 12.75 29.4 12.45 L29.3 12.0 Q29.45 11.05 30.1 10.3 L31.05 9.65 31.15 9.6 Q30.6 9.4 30.05 9.85 29.4 10.4 28.7 10.45 L28.65 10.1 28.5 8.8 M32.5 13.75 L33.2 13.8 33.1 13.75 32.7 13.7 32.5 13.75 M32.1 14.8 L31.85 14.9 Q31.6 14.95 31.45 15.15 L31.4 15.2 31.75 15.1 32.15 14.8 32.1 14.8 M32.4 17.95 Q32.05 18.7 32.15 18.9 32.75 18.4 32.4 17.95" fill="#d9430f" fill-rule="evenodd" stroke="none"/>
    <path d="M19.3 13.0 L22.0 16.35 Q24.6 19.65 23.95 26.75 21.7 26.5 20.55 28.25 19.15 30.25 19.7 34.3 20.2 38.3 17.85 40.85 12.45 46.6 1.1 41.05 10.55 41.3 12.3 38.85 L13.0 37.55 Q10.0 40.7 0.0 33.8 8.25 36.6 10.7 35.05 13.1 33.45 12.5 30.35 11.9 27.2 12.2 18.9 12.5 10.6 18.95 12.85 L19.3 13.0" fill="#b92f00" fill-rule="evenodd" stroke="none"/>
    <path d="M19.2 15.5 Q19.6 19.25 20.7 22.45 21.75 25.6 20.1 28.2 19.5 36.8 18.4 32.25 17.25 27.65 14.55 26.45 11.85 25.2 12.85 22.55 L13.15 19.85 13.05 19.8 Q12.55 17.85 12.85 15.9 13.2 13.6 15.65 12.75 18.8 11.7 19.2 15.5" fill="#c93c0c" fill-rule="evenodd" stroke="none"/>
    <path d="M14.35 20.1 L14.05 20.9 13.75 21.2 13.3 21.1 13.15 21.05 Q12.8 18.95 12.95 16.75 13.05 14.2 15.3 12.75 16.65 12.6 16.6 13.75 L16.3 14.75 16.35 14.9 Q16.95 15.2 17.35 15.75 L17.4 15.85 17.35 16.05 17.0 16.8 16.7 17.2 16.65 17.25 17.1 17.7 17.2 18.2 17.2 18.25 17.65 18.45 17.9 18.65 17.95 18.75 18.0 19.05 17.95 19.75 17.9 19.85 18.4 20.4 Q18.6 21.1 18.2 21.65 L18.1 21.85 18.1 21.9 18.2 22.1 18.4 22.45 18.45 22.5 Q19.25 22.4 19.6 23.15 19.85 23.85 19.5 24.45 21.05 25.05 20.6 26.85 20.15 28.5 18.85 28.55 L18.75 28.45 18.65 28.25 18.55 27.85 18.55 27.75 Q17.45 27.45 17.5 26.25 17.55 25.35 17.75 24.45 L17.75 24.35 17.75 24.3 17.45 24.25 Q17.0 24.4 16.75 24.05 L16.6 23.1 Q16.6 22.3 16.85 21.6 L17.0 21.3 16.8 21.1 15.65 20.95 15.6 21.05 14.95 21.2 14.65 21.05 14.6 20.95 14.55 20.65 14.55 20.05 14.55 19.95 14.35 20.1" fill="#d9430f" fill-rule="evenodd" stroke="none"/>
    <path d="M82.45 30.15 L82.55 30.25 82.3 31.15 81.95 31.85 Q81.1 31.6 81.55 30.8 L82.2 30.1 82.45 30.15" fill="#9f6830" fill-rule="evenodd" stroke="none"/>
    <path d="M83.0 40.3 Q81.4 40.5 79.75 40.25 L79.15 40.2 Q78.95 39.85 79.25 39.55 L79.55 39.3 79.8 39.25 80.05 39.15 80.1 39.0 80.2 38.85 80.4 38.8 81.75 39.5 82.5 39.65 Q83.3 39.7 83.0 40.3" fill="#9f6830" fill-rule="evenodd" stroke="none"/>
    <path d="M41.65 52.5 L39.75 54.45 Q40.05 52.75 41.8 51.5 43.6 50.2 45.6 49.25 45.7 50.3 44.1 50.95 42.75 51.5 41.65 52.5" fill="#77420d" fill-rule="evenodd" stroke="none"/>
    <path d="M45.1 54.15 Q44.9 54.5 44.6 54.4 45.0 53.05 46.2 52.15 47.5 51.15 49.15 50.7 L46.15 52.9 Q45.5 53.4 45.1 54.15" fill="#77420d" fill-rule="evenodd" stroke="none"/>
    <path d="M51.25 71.2 Q51.25 71.6 50.9 71.6 50.1 71.6 46.1 63.15 46.1 61.8 48.85 66.75 L51.25 71.2" fill="#623609" fill-rule="evenodd" stroke="none"/>
    <path d="M56.5 70.2 Q56.5 70.75 56.0 70.75 55.35 70.75 54.65 68.95 L53.6 66.1 Q51.45 61.8 51.45 61.5 51.45 60.7 52.5 62.2 L54.3 65.45 Q56.5 69.6 56.5 70.2" fill="#623609" fill-rule="evenodd" stroke="none"/>
    <path d="M62.25 68.1 Q61.4 68.1 59.95 63.5 L58.7 58.9 Q58.7 58.55 59.2 58.55 L62.45 67.55 Q62.45 68.1 62.25 68.1" fill="#623609" fill-rule="evenodd" stroke="none"/>
    <path d="M63.9 56.1 Q63.9 54.7 64.5 56.25 65.1 57.6 65.55 59.65 L67.4 64.35 66.75 64.8 Q65.9 64.2 64.9 60.45 L63.9 56.1" fill="#623609" fill-rule="evenodd" stroke="none"/>
    <path d="M47.25 64.95 Q48.95 68.3 50.6 71.0 50.6 71.4 50.2 71.4 L45.65 63.15 Q45.55 61.6 47.25 64.95" fill="#8c531b" fill-rule="evenodd" stroke="none"/>
    <path d="M55.45 71.05 Q55.15 71.05 54.4 69.15 L53.35 66.35 51.35 62.0 Q51.35 60.7 53.55 65.55 L55.7 70.75 55.45 71.05" fill="#8c531b" fill-rule="evenodd" stroke="none"/>
    <path d="M61.7 68.35 Q61.4 68.35 60.75 66.7 L59.8 64.1 59.0 61.75 58.45 59.85 58.6 59.55 59.5 61.75 60.25 63.9 62.0 68.1 Q62.0 68.35 61.7 68.35" fill="#8c531b" fill-rule="evenodd" stroke="none"/>
    <path d="M66.85 64.7 L66.6 65.0 Q66.25 65.0 63.95 57.1 L64.15 56.55 66.85 64.7" fill="#8c531b" fill-rule="evenodd" stroke="none"/>
    <path d="M61.9 65.95 L65.7 63.55 69.15 60.8 69.4 63.05 Q61.75 72.95 45.8 72.6 L44.35 70.25 45.6 70.3 Q49.6 70.3 57.6 67.9 59.7 67.25 61.9 65.95" fill="#643507" fill-rule="evenodd" stroke="none"/>
    <path d="M74.85 41.05 Q73.9 40.15 73.65 38.55 L73.6 38.0 73.7 37.55 74.05 37.0 74.05 36.95 74.1 36.9 74.15 36.9 74.15 36.85 74.35 36.85 74.35 36.8 74.4 36.75 74.45 36.7 74.5 36.55 74.5 36.45 74.5 36.3 Q74.85 35.55 75.35 34.95 76.7 32.95 80.15 30.85 L81.95 29.5 82.6 29.65 82.05 30.2 82.6 31.5 82.75 31.7 Q81.6 36.5 77.95 40.3 76.7 41.65 75.9 41.7 L75.05 41.25 74.9 40.95 74.85 41.0 74.85 41.05" fill="#bf8244" fill-rule="evenodd" stroke="none"/>
    <path d="M74.85 41.05 L74.85 41.0 74.9 40.95 75.05 41.25 74.85 41.05" fill="#b6793a" fill-rule="evenodd" stroke="none"/>
    <path d="M82.2 30.25 Q81.95 34.75 79.6 38.55 78.0 41.05 75.4 41.55 76.25 40.45 77.6 39.5 L78.45 38.65 Q80.85 35.3 81.0 32.9 81.1 30.5 81.35 30.75 81.55 30.95 81.85 30.55 L82.2 30.25" fill="#9f6830" fill-rule="evenodd" stroke="none"/>
  </g>
</svg>
