<?xml version="1.0" encoding="UTF-8" standalone="no"?>
<svg xmlns:ffdec="https://www.free-decompiler.com/flash" xmlns:xlink="http://www.w3.org/1999/xlink" ffdec:objectType="shape" height="21.25px" width="8.25px" xmlns="http://www.w3.org/2000/svg">
  <g transform="matrix(1.0, 0.0, 0.0, 1.0, 0.0, 0.0)">
    <path d="M6.7 4.5 L6.9 4.45 7.1 4.5 7.15 4.55 7.4 4.75 7.4 4.7 7.65 5.05 7.8 5.2 Q7.65 12.1 6.1 18.6 5.3 21.95 2.35 21.05 -0.6 20.05 0.15 16.85 1.0 13.55 3.3 9.7 4.1 8.35 4.0 6.4 5.95 5.3 6.7 4.5" fill="#bf8244" fill-rule="evenodd" stroke="none"/>
    <path d="M3.7 0.0 Q4.7 0.05 5.25 0.95 L5.75 1.95 Q6.5 1.75 6.95 2.25 L7.15 2.85 Q8.55 3.75 8.15 5.65 7.9 6.55 7.0 6.75 L5.05 7.1 Q3.9 7.25 3.5 6.7 3.05 6.1 3.05 5.4 3.05 4.7 3.6 3.9 L4.2 3.35 Q4.2 2.55 3.75 1.85 3.25 1.05 3.4 0.3 L3.7 0.0" fill="#bf8244" fill-rule="evenodd" stroke="none"/>
    <path d="M4.35 3.35 Q3.05 4.45 3.45 4.9 L4.05 5.7 Q4.3 6.05 3.9 6.6 3.6 7.05 3.35 6.6 3.2 6.35 3.4 6.05 L3.45 5.9 Q2.15 4.85 3.4 3.55 4.05 2.95 4.15 2.2 L4.2 2.15 4.5 2.9 4.35 3.35" fill="#9f6830" fill-rule="evenodd" stroke="none"/>
  </g>
</svg>
