<?xml version="1.0" encoding="UTF-8" standalone="no"?>
<svg xmlns:ffdec="https://www.free-decompiler.com/flash" xmlns:xlink="http://www.w3.org/1999/xlink" ffdec:objectType="shape" height="2.95px" width="7.55px" xmlns="http://www.w3.org/2000/svg">
  <g transform="matrix(1.0, 0.0, 0.0, 1.0, -15.65, -11.0)">
    <path d="M19.75 12.7 Q19.55 12.15 20.9 11.6 22.25 11.0 22.75 11.0 L23.15 11.2 Q23.35 11.4 22.7 12.4 22.0 13.35 21.0 13.3 19.95 13.25 19.75 12.7" fill="#463232" fill-rule="evenodd" stroke="none"/>
    <path d="M16.35 11.8 Q17.1 11.8 18.2 12.45 19.3 13.05 19.3 13.4 L19.0 13.8 Q18.5 13.8 18.35 13.95 L17.85 13.95 16.3 13.6 Q15.65 13.3 15.65 12.95 L15.65 12.7 16.05 12.4 15.95 12.1 Q15.95 11.8 16.35 11.8" fill="#463232" fill-rule="evenodd" stroke="none"/>
  </g>
</svg>
