<?xml version="1.0" encoding="UTF-8" standalone="no"?>
<svg xmlns:ffdec="https://www.free-decompiler.com/flash" xmlns:xlink="http://www.w3.org/1999/xlink" ffdec:objectType="shape" height="55.2px" width="27.45px" xmlns="http://www.w3.org/2000/svg">
  <g transform="matrix(1.0, 0.0, 0.0, 1.0, -4.15, 0.6)">
    <path d="M29.6 54.45 L31.6 54.6 29.7 54.6 29.6 54.45 M22.25 -0.15 L21.5 -0.5 Q20.9 -0.5 20.6 0.0 L20.4 0.55 20.35 0.55 19.25 1.15 18.7 0.9 Q17.5 0.9 17.5 2.0 L17.6 2.3 Q17.2 2.05 16.95 2.05 15.85 2.05 15.85 3.25 L16.05 3.65 15.9 3.75 15.2 3.35 Q14.1 3.35 14.1 4.55 L14.4 5.3 14.35 5.35 13.7 5.15 Q13.5 5.15 13.1 5.45 L12.65 6.05 12.35 5.85 Q11.9 5.85 11.55 6.15 11.15 6.45 11.15 6.95 11.15 7.3 11.45 7.75 10.95 7.45 10.6 7.45 10.1 7.45 9.8 7.9 9.5 8.25 9.5 8.65 9.3 8.7 9.15 8.9 8.85 9.2 8.85 9.65 L9.6 10.55 9.3 11.05 9.35 11.4 8.25 10.75 Q7.95 10.75 7.65 11.0 L7.35 11.4 7.2 11.85 Q7.2 12.25 8.5 13.45 L8.35 13.65 8.3 13.8 Q7.45 13.3 7.05 13.3 6.65 13.3 6.35 13.7 6.05 14.05 6.05 14.45 L8.25 16.45 8.15 16.9 Q6.8 15.95 6.4 15.95 L5.6 16.4 Q5.25 16.8 5.25 17.2 5.25 17.55 6.75 18.75 L7.9 19.85 7.9 21.1 7.5 21.3 6.1 20.2 Q5.65 20.2 5.3 20.5 4.85 20.8 4.85 21.3 4.85 22.05 7.0 23.9 L6.15 23.55 Q5.7 23.55 5.4 23.95 5.1 24.3 5.1 24.8 5.1 25.3 7.4 26.95 7.05 27.25 7.05 27.9 7.05 28.4 8.55 29.65 L8.55 29.7 Q8.55 30.05 10.7 32.0 L10.85 32.15 Q10.55 35.45 6.6 38.2 9.45 34.2 6.1 27.85 3.9 23.7 4.2 18.9 4.55 13.45 8.15 8.45 12.45 2.55 16.65 0.55 19.9 -1.0 23.6 -0.45 L22.25 -0.15" fill="#8e5120" fill-rule="evenodd" stroke="none"/>
  </g>
</svg>
