<?xml version="1.0" encoding="UTF-8" standalone="no"?>
<svg xmlns:ffdec="https://www.free-decompiler.com/flash" xmlns:xlink="http://www.w3.org/1999/xlink" ffdec:objectType="shape" height="27.3px" width="26.9px" xmlns="http://www.w3.org/2000/svg">
  <g transform="matrix(1.0, 0.0, 0.0, 1.0, 0.0, 0.0)">
    <path d="M12.95 5.45 L13.05 5.4 13.25 5.45 13.45 5.45 13.45 5.4 13.65 5.55 13.7 5.6 13.8 5.7 Q13.8 6.5 13.25 7.2 L12.3 8.7 11.45 9.6 11.3 9.9 11.2 9.95 10.85 9.95 10.6 9.8 10.7 9.75 10.7 9.7 10.85 9.6 11.05 9.65 Q11.5 9.1 11.6 8.35 11.65 7.55 12.1 6.8 L12.85 5.6 12.95 5.45" fill="#8a4c0f" fill-rule="evenodd" stroke="none"/>
    <path d="M20.15 9.65 L20.4 9.85 20.45 9.9 18.2 10.35 16.1 10.75 Q15.05 10.9 14.2 11.4 L17.45 11.7 20.5 11.05 Q22.0 10.65 22.7 11.65 17.95 13.3 12.75 12.5 L10.6 12.4 Q8.5 12.55 9.8 11.45 10.25 11.0 10.85 11.05 14.8 11.05 18.5 9.7 L19.95 9.5 20.05 9.6 20.15 9.65" fill="#8a4c0f" fill-rule="evenodd" stroke="none"/>
    <path d="M23.35 15.25 Q23.75 16.95 23.75 18.4 23.75 23.75 21.9 24.95 18.6 26.0 15.25 27.3 11.5 25.45 10.25 21.45 9.05 17.65 9.3 13.6 L9.5 12.6 Q9.7 11.85 9.4 11.4 20.15 6.95 22.4 8.4 23.2 8.95 23.15 10.45 L22.9 13.1 23.35 15.25 M10.7 20.9 L11.15 22.25 11.15 22.35 11.1 21.55 Q10.95 20.95 10.7 20.9 M14.05 25.7 L14.6 25.65 Q14.3 25.25 14.05 25.2 L14.05 25.7 M21.2 23.4 L19.85 24.0 20.55 23.8 21.2 23.4" fill="#bf8244" fill-rule="evenodd" stroke="none"/>
    <path d="M16.55 15.3 Q16.55 12.7 18.35 12.95 20.15 13.15 20.15 15.1 L19.7 16.05 Q19.1 16.6 18.15 16.6 17.05 16.6 16.7 16.0 16.55 15.75 16.55 15.3" fill="#9f662b" fill-rule="evenodd" stroke="none"/>
    <path d="M23.05 14.6 Q23.1 16.1 21.65 16.1 20.05 16.1 20.05 14.45 20.05 12.4 21.55 12.7 23.05 12.9 23.05 14.6" fill="#9f662b" fill-rule="evenodd" stroke="none"/>
    <path d="M25.15 8.3 Q23.75 10.3 22.1 9.75 L17.2 10.9 Q12.45 12.45 11.45 13.0 L9.1 14.5 9.05 14.6 9.0 14.6 Q2.75 13.85 0.15 6.8 -0.25 5.6 0.4 5.2 L1.9 5.15 7.15 4.95 Q15.7 4.6 20.4 1.95 25.1 -0.7 26.1 0.25 27.1 1.2 26.85 3.75 26.6 6.3 25.15 8.3" fill="#3f2205" fill-rule="evenodd" stroke="none"/>
    <path d="M16.55 14.65 Q16.55 12.05 18.35 12.3 20.15 12.5 20.15 14.45 L19.7 15.4 Q19.1 15.95 18.15 15.95 17.05 15.95 16.7 15.35 16.55 15.1 16.55 14.65" fill="#f3ccc4" fill-rule="evenodd" stroke="none"/>
    <path d="M23.05 13.95 Q23.1 15.45 21.65 15.45 20.05 15.45 20.05 13.8 20.05 11.75 21.55 12.05 23.05 12.25 23.05 13.95" fill="#f3ccc4" fill-rule="evenodd" stroke="none"/>
    <path d="M19.0 13.4 Q19.75 13.4 19.75 14.3 19.75 15.3 19.05 15.3 18.6 15.3 18.35 14.7 L18.25 14.3 Q18.25 13.45 19.0 13.4" fill="#5f4d49" fill-rule="evenodd" stroke="none"/>
    <path d="M22.1 13.0 Q22.7 13.1 22.7 13.75 22.65 14.65 22.3 14.65 21.75 14.65 21.55 14.2 L21.5 13.75 Q21.5 12.95 22.1 13.0" fill="#5f4d49" fill-rule="evenodd" stroke="none"/>
    <path d="M22.25 18.2 L22.7 18.25 23.45 18.4 Q23.85 18.4 24.0 18.7 L24.15 19.9 23.4 22.95 Q23.2 23.65 22.2 24.55 21.0 25.65 19.85 25.65 L18.9 25.55 Q17.75 25.55 17.4 24.05 17.25 23.45 17.25 22.35 L17.45 21.4 17.3 21.0 17.1 20.6 Q17.1 20.1 17.8 19.6 18.35 19.15 18.65 19.15 L19.3 18.75 22.1 18.4 22.25 18.2 M23.0 19.95 L20.85 20.2 19.25 20.3 18.9 20.45 19.8 22.2 20.65 22.2 22.3 22.0 22.35 22.0 23.05 20.3 23.0 19.95 M23.45 19.4 L23.4 19.2 23.35 19.2 23.45 19.4 M20.6 19.05 L20.5 19.05 20.5 19.1 20.6 19.05 M22.45 18.85 L22.45 18.9 22.5 18.9 22.45 18.85 M20.95 23.45 L20.8 23.45 20.6 23.5 20.95 23.45 M19.95 19.1 L19.8 19.25 20.0 19.1 19.95 19.1 M18.9 23.65 L18.85 23.5 18.9 23.65 M19.05 22.2 L18.6 22.2 18.2 22.7 Q18.7 22.25 19.05 22.2" fill="#463232" fill-rule="evenodd" stroke="none"/>
    <path d="M8.05 19.35 L7.8 18.35 Q7.8 16.6 9.7 16.6 11.6 16.6 11.6 18.15 11.3 20.3 9.7 20.3 8.5 20.3 8.05 19.35" fill="#bf8244" fill-rule="evenodd" stroke="none"/>
    <path d="M13.1 21.4 Q13.7 22.05 13.5 22.6 15.1 22.75 15.1 23.5 L14.95 23.9 13.85 24.0 13.0 24.2 11.6 23.1 10.65 22.0 Q10.65 21.35 10.95 20.65 11.3 19.65 11.95 20.3 L13.1 21.4" fill="#b6793a" fill-rule="evenodd" stroke="none"/>
    <path d="M11.25 18.8 L11.5 19.05 11.2 19.8 Q10.8 20.3 10.0 20.3 9.3 20.3 8.6 19.45 7.95 18.65 7.95 18.1 L8.2 17.35 Q8.55 16.75 9.15 16.75 9.65 16.75 10.05 17.3 L9.7 17.55 9.4 17.45 9.25 17.35 8.75 17.75 8.6 18.15 9.0 18.95 Q9.5 19.6 10.0 19.6 10.6 19.6 10.85 19.2 L11.25 18.8" fill="#b6793a" fill-rule="evenodd" stroke="none"/>
    <path d="M10.6 19.35 L10.25 19.6 Q9.85 19.6 9.85 19.35 L9.5 19.55 8.8 18.95 8.25 18.2 Q8.25 17.85 8.55 17.55 8.95 17.2 9.35 17.8 L9.9 17.9 9.95 18.3 Q10.4 18.3 10.75 19.0 L10.6 19.35" fill="#b6793a" fill-rule="evenodd" stroke="none"/>
    <path d="M11.75 15.6 L11.05 16.05 Q10.9 17.15 10.4 17.15 9.7 17.15 9.6 16.15 L9.6 15.1 9.6 14.3 Q9.5 13.75 10.25 13.65 L11.6 13.05 Q12.65 12.65 12.65 13.4 12.65 13.8 11.85 13.7 L11.85 14.05 12.1 14.95 11.75 15.6" fill="#b6793a" fill-rule="evenodd" stroke="none"/>
    <path d="M12.65 19.7 L12.65 19.75 13.1 19.55 13.55 19.8 13.55 20.15 13.7 20.1 Q14.05 20.1 14.05 20.55 L13.75 21.95 Q14.15 22.15 14.15 22.5 L14.05 22.9 14.35 23.2 14.6 23.7 14.5 24.15 Q14.95 24.25 14.95 24.95 15.65 24.8 15.85 25.15 L15.9 25.75 15.9 26.25 15.35 26.6 14.9 26.4 14.7 26.15 Q13.35 25.95 12.4 24.7 11.6 23.65 11.6 22.8 11.6 22.1 11.9 21.85 L12.6 20.8 12.6 20.75 11.45 22.0 11.05 21.65 Q11.05 21.3 11.95 19.8 12.8 18.35 12.8 19.3 L12.65 19.7 M13.05 21.9 L13.05 22.0 13.1 21.9 13.05 21.9 M13.45 23.35 L12.95 23.25 13.4 23.7 13.45 23.35 M12.9 22.55 L12.95 22.15 12.7 22.45 12.9 22.55" fill="#b6793a" fill-rule="evenodd" stroke="none"/>
    <path d="M14.55 19.5 Q14.75 19.15 14.8 19.85 L15.15 23.25 14.9 23.65 Q14.7 23.65 14.5 21.9 L14.35 20.1 14.55 19.5" fill="#b6793a" fill-rule="evenodd" stroke="none"/>
    <path d="M12.25 20.55 L12.2 19.95 12.3 19.1 Q12.6 18.5 12.8 19.05 L13.1 20.05 Q13.1 19.2 13.55 19.2 13.9 19.2 14.2 20.8 L14.35 20.75 14.7 22.95 14.6 23.2 14.45 23.3 Q14.1 23.3 14.05 22.5 L14.05 21.7 13.7 19.9 13.55 21.05 Q13.3 22.05 12.6 22.05 12.3 22.05 12.25 21.35 L12.25 20.55" fill="#b6793a" fill-rule="evenodd" stroke="none"/>
    <path d="M19.8 4.2 Q19.2 3.95 19.2 3.6 19.2 3.2 19.8 2.8 20.45 2.35 21.4 2.35 L22.2 2.55 22.8 2.7 24.95 1.15 Q26.05 0.2 26.05 2.45 L25.6 3.95 25.1 4.85 25.3 5.6 Q25.3 7.1 23.15 9.5 L21.1 9.5 Q19.95 9.5 19.35 9.85 L19.0 9.55 18.95 9.25 Q18.95 8.5 19.95 8.45 21.0 8.45 21.05 8.05 L21.15 7.25 21.35 6.55 20.9 5.7 20.4 4.95 Q20.4 4.4 19.8 4.2" fill="#54310f" fill-rule="evenodd" stroke="none"/>
    <path d="M22.9 20.45 L23.0 20.55 22.3 21.0 21.7 21.1 Q21.4 21.1 21.25 21.3 L20.4 21.3 Q19.65 21.2 19.65 20.8 L19.75 20.75 20.0 20.9 20.8 21.0 22.3 20.75 22.9 20.45" fill="#95311e" fill-rule="evenodd" stroke="none"/>
    <path d="M15.9 11.1 L15.55 11.9 14.95 12.35 14.7 12.55 13.2 13.2 Q12.15 13.7 11.35 14.5 L8.7 17.3 Q7.7 13.9 8.95 15.2 L8.7 14.4 Q10.3 12.6 13.15 11.75 L15.95 10.95 15.9 11.1" fill="#b10706" fill-rule="evenodd" stroke="none"/>
  </g>
</svg>
