<?xml version="1.0" encoding="UTF-8" standalone="no"?>
<svg xmlns:ffdec="https://www.free-decompiler.com/flash" xmlns:xlink="http://www.w3.org/1999/xlink" ffdec:objectType="shape" height="261.9px" width="220.8px" xmlns="http://www.w3.org/2000/svg">
  <g transform="matrix(1.0, 0.0, 0.0, 1.0, -11.4, -18.25)">
    <path d="M212.65 145.75 L216.45 157.25 217.25 159.95 Q220.2 169.55 222.55 178.7 L223.45 182.35 Q225.65 191.3 227.3 199.85 228.95 208.75 230.0 217.2 231.05 225.7 231.45 233.65 231.95 243.95 231.35 253.4 L226.7 258.05 M223.45 182.35 L212.6 204.05 M216.55 221.5 L227.3 199.85 M220.55 255.3 L231.45 233.65 M230.0 217.2 L219.2 238.9 M206.3 183.9 L217.4 162.15" fill="none" stroke="#495370" stroke-linecap="round" stroke-linejoin="round" stroke-width="1.0"/>
    <path d="M95.05 70.8 Q96.35 71.95 95.9 73.85 95.55 75.15 95.45 76.5 L103.35 79.05 103.4 78.65 103.75 77.0 104.15 76.25 104.35 75.05 104.55 74.85 104.7 74.75 105.0 74.65 Q105.9 75.35 105.6 76.8 L105.4 79.25 105.35 79.7 114.5 82.7 114.5 82.35 114.5 79.75 Q114.45 78.4 115.55 77.85 116.7 78.6 116.6 80.15 L116.6 82.85 116.6 83.4 135.8 89.6 141.55 91.45 145.9 92.9 145.9 91.75 Q146.15 90.1 145.9 88.4 145.7 87.0 146.75 86.35 147.85 87.5 147.85 89.2 L147.95 92.5 147.9 93.55 158.2 96.9 158.2 96.7 158.2 93.8 Q158.1 92.35 159.15 91.9 L159.45 92.0 159.65 92.1 Q160.05 93.25 160.0 94.55 L160.1 97.25 160.1 97.55 166.25 99.5 167.5 99.9 167.45 99.15 167.5 96.25 Q167.45 95.05 168.4 94.65 169.45 95.4 169.35 96.95 169.25 98.25 169.5 99.6 L169.45 100.55 176.9 103.0 177.7 103.25 178.0 103.4 177.85 102.75 177.7 100.25 Q177.7 99.4 178.05 98.65 L178.15 98.5 178.35 98.45 178.6 98.4 178.9 98.5 179.05 98.6 Q179.5 99.5 179.45 100.5 L179.55 102.65 179.5 103.8 Q185.75 105.6 185.2 103.65 L185.35 103.05 185.3 100.5 188.9 101.85 188.1 107.65 Q188.05 108.0 187.75 107.95 170.05 104.5 152.2 98.05 134.8 91.75 93.75 79.65 L93.5 79.6 91.2 78.9 Q80.6 75.8 70.45 71.2 69.6 70.5 69.7 69.1 70.05 65.1 71.5 61.3 L71.7 61.1 Q71.8 60.95 72.05 60.9 72.15 60.75 72.35 60.7 L72.75 60.65 73.35 60.8 73.75 61.0 74.0 61.25 Q74.55 62.25 74.1 63.4 L73.35 66.25 72.85 69.05 82.9 72.4 82.95 70.35 83.05 68.15 83.15 68.0 83.3 67.9 83.5 67.75 83.8 67.7 84.15 67.8 84.3 67.95 84.5 68.05 84.7 70.1 84.8 72.55 84.8 73.05 93.35 75.8 93.85 73.1 Q93.95 71.55 95.05 70.8" fill="#6d7f93" fill-rule="evenodd" stroke="none"/>
    <path d="M158.2 93.8 L158.25 93.1 158.25 94.65 158.2 93.8 M147.95 92.1 L147.95 92.35 147.9 92.3 147.95 92.1 M167.5 98.7 L167.5 98.55 167.5 98.7 M145.9 88.4 Q145.8 87.85 145.95 87.4 L146.05 89.45 145.9 88.4 M114.55 79.3 L114.55 80.45 114.5 79.75 114.55 79.3 M116.55 80.9 L116.6 79.4 116.6 80.15 116.55 80.9 M179.5 102.6 L179.55 102.5 179.55 102.65 179.5 102.6 M177.7 100.4 L177.7 100.25 177.75 99.85 177.75 100.3 177.7 100.4 M93.75 79.65 L93.5 79.6 91.2 78.9 Q80.6 75.8 70.45 71.2 69.6 70.5 69.7 69.1 L69.75 68.75 Q69.85 69.5 70.45 69.95 80.6 74.6 91.2 77.7 L93.5 78.4 93.75 78.45 Q134.8 90.5 152.2 96.85 170.05 103.25 187.75 106.75 L188.1 106.4 188.8 101.7 188.85 101.75 188.9 101.8 188.1 107.65 Q188.05 108.0 187.75 107.95 170.05 104.5 152.2 98.05 134.8 91.75 93.75 79.65" fill="#37424f" fill-rule="evenodd" stroke="none"/>
    <path d="M141.05 133.0 Q143.15 127.5 151.0 118.6 L167.15 99.8 Q175.35 89.65 171.2 95.35 176.15 93.3 176.05 95.1 157.8 118.1 146.95 130.8 L140.3 138.5 Q141.15 136.5 141.15 133.6 140.95 133.25 141.05 133.0" fill="#253241" fill-rule="evenodd" stroke="none"/>
    <path d="M131.1 18.25 L142.05 22.65 Q140.35 89.3 140.5 105.75 140.5 111.15 140.05 116.4 L139.05 116.65 Q136.85 116.95 134.4 115.55 130.0 113.0 125.1 113.9 120.8 114.65 116.8 123.15 116.1 109.25 117.65 101.75 118.6 97.2 119.1 92.45 121.45 73.5 124.5 54.65 127.4 36.2 130.75 18.75 130.8 18.4 131.1 18.25" fill="#516274" fill-rule="evenodd" stroke="none"/>
    <path d="M127.7 42.95 L128.7 42.9 Q128.25 43.55 128.45 44.7 128.65 45.8 129.15 46.45 L129.0 46.55 Q127.05 48.1 128.05 50.35 128.5 51.45 129.1 52.15 128.5 52.5 128.25 53.25 127.4 55.6 128.2 56.65 127.5 57.45 127.6 58.75 127.7 60.05 128.55 61.0 L128.15 61.4 Q127.5 62.2 127.45 63.2 127.4 64.05 127.8 64.8 L128.65 65.9 128.4 66.25 Q127.7 67.25 127.65 68.5 127.6 69.55 128.0 70.5 128.3 71.25 128.95 71.75 127.25 73.2 126.95 75.35 126.7 77.55 125.9 79.75 125.3 81.45 126.4 82.9 125.25 84.05 124.7 85.55 124.2 86.8 124.3 88.1 124.4 89.2 125.15 90.0 123.9 91.85 124.1 94.0 124.3 96.1 123.95 98.35 123.6 100.25 125.05 101.5 124.3 102.4 124.25 103.55 124.15 105.25 125.15 106.2 124.3 107.85 124.7 108.95 124.35 109.45 124.4 110.2 124.45 111.15 124.8 111.9 L124.7 115.85 Q121.1 117.55 117.9 124.5 L117.8 122.0 Q118.95 120.4 117.7 119.05 L117.65 115.05 Q118.65 113.75 117.7 112.6 117.8 109.3 118.2 106.65 120.35 104.4 118.75 102.8 L119.95 95.85 Q121.4 94.2 120.3 92.9 L120.95 87.85 121.55 87.0 Q122.65 84.7 121.55 83.65 123.35 69.8 125.55 56.05 L127.7 42.95" fill="#394858" fill-rule="evenodd" stroke="none"/>
    <path d="M133.25 19.1 L132.55 19.2 132.65 18.85 133.25 19.1 M136.2 29.1 L136.05 28.1 Q135.75 26.35 135.1 24.9 L136.4 20.4 139.7 20.95 139.65 23.2 Q139.2 23.35 138.9 23.75 137.5 25.5 138.05 26.65 L136.95 25.45 136.95 25.5 136.4 25.75 136.2 25.95 136.15 26.05 Q136.5 27.65 136.2 29.1 M138.1 26.85 Q138.45 27.45 139.55 27.9 L139.5 30.35 Q138.85 31.2 139.45 32.7 L139.35 37.4 139.1 37.65 Q138.65 36.55 137.8 35.65 137.75 34.2 138.1 32.8 138.5 30.85 138.5 28.85 138.55 27.7 138.1 26.85 M139.25 42.05 L139.2 46.3 138.25 47.0 138.45 46.75 Q138.35 44.7 139.1 42.5 L139.25 42.05 M139.1 51.8 L139.05 57.15 138.1 57.85 138.4 57.5 137.75 56.85 138.3 55.95 Q138.5 55.45 138.3 54.95 L137.6 54.15 Q138.8 53.05 139.1 51.8 M138.0 59.45 L138.35 60.3 139.0 61.1 138.9 67.6 138.5 67.85 138.35 67.55 Q137.5 66.2 136.2 65.8 L137.5 65.1 Q138.25 64.55 137.95 63.65 L137.25 62.35 137.95 61.4 138.05 60.5 Q138.0 60.05 137.6 59.7 L138.0 59.45 M138.0 69.05 Q137.95 69.75 138.4 70.7 L138.85 71.4 138.8 79.05 Q137.3 80.05 138.55 82.15 L138.7 82.4 138.65 89.65 138.65 91.35 138.65 91.55 Q136.2 92.4 137.55 95.1 138.1 96.15 138.7 96.4 L138.7 99.25 138.7 100.15 138.8 102.2 138.8 103.4 Q137.95 104.35 138.8 106.1 L138.7 108.85 Q138.4 109.35 138.4 110.05 137.45 109.8 136.4 109.05 L136.35 109.05 Q133.05 106.85 129.45 106.85 129.4 105.9 128.0 104.9 130.95 102.9 127.25 100.9 L125.95 101.35 126.1 97.3 Q129.8 95.65 126.25 93.25 L126.5 89.45 Q128.65 87.65 126.65 86.15 L126.9 82.25 128.55 82.25 Q129.95 82.2 130.05 80.9 130.4 77.4 127.3 77.2 L127.5 74.1 Q129.9 72.0 127.75 70.95 L127.85 69.75 128.55 69.65 Q130.0 69.45 130.05 68.15 130.2 65.65 128.35 64.95 L128.45 63.7 128.65 63.65 Q129.9 63.4 129.95 62.2 L129.65 60.4 Q130.1 59.95 130.2 59.1 130.5 57.1 129.3 56.25 L129.55 54.45 131.15 53.95 Q132.5 53.45 131.8 52.25 131.2 51.25 130.3 50.55 L130.4 50.55 Q131.65 50.5 131.7 49.3 131.75 47.5 130.7 46.45 L130.9 45.35 Q131.95 44.95 133.3 43.55 134.4 42.3 134.85 40.8 136.0 37.0 133.15 35.3 134.5 34.6 135.25 33.5 135.25 35.55 136.2 37.45 137.35 39.65 136.5 42.2 135.05 46.8 136.35 51.05 L135.35 52.8 Q134.35 54.15 133.6 55.7 132.9 57.0 133.9 58.1 L133.8 58.6 133.7 59.25 133.85 59.8 Q134.0 60.15 133.7 60.3 133.15 60.75 132.9 61.45 132.75 62.05 133.0 62.65 L133.6 63.65 Q132.85 64.05 132.8 64.85 132.75 65.7 133.1 66.4 L134.05 67.7 Q133.35 68.1 133.0 68.85 132.7 69.4 132.8 70.1 132.9 70.6 133.15 71.0 L132.8 71.45 132.75 72.1 132.85 72.75 133.15 73.2 Q132.5 73.75 132.3 74.5 132.05 75.1 132.2 75.7 L132.45 76.7 132.25 77.0 132.05 77.65 132.25 78.2 132.6 78.7 132.25 79.4 Q131.65 80.45 132.55 81.2 133.95 82.3 134.85 80.85 L135.5 80.7 Q137.5 80.55 137.55 78.7 137.6 77.8 137.3 77.15 L137.6 76.8 137.95 75.9 137.8 75.1 137.5 74.45 Q138.1 74.1 138.2 73.55 138.3 73.0 138.0 72.65 L137.3 71.8 137.45 71.45 137.6 71.0 137.5 70.4 137.3 69.9 137.05 69.75 136.55 69.45 136.7 69.45 137.65 69.2 138.0 69.05 M122.35 108.35 Q122.35 107.75 122.5 107.55 L122.5 108.3 122.35 108.35" fill="#68717b" fill-rule="evenodd" stroke="none"/>
    <path d="M136.2 29.1 Q136.5 27.65 136.15 26.05 L136.2 25.95 136.4 25.75 136.95 25.5 136.95 25.45 138.05 26.65 138.1 26.85 Q138.55 27.7 138.5 28.85 138.5 30.85 138.1 32.8 137.75 34.2 137.8 35.65 138.65 36.55 139.1 37.65 137.8 38.55 139.15 40.5 L139.3 40.7 139.25 42.05 139.1 42.5 Q138.35 44.7 138.45 46.75 L138.25 47.0 138.4 49.35 138.45 49.45 138.45 49.55 138.55 49.65 138.6 49.75 139.15 50.4 139.1 51.8 Q138.8 53.05 137.6 54.15 L138.3 54.95 Q138.5 55.45 138.3 55.95 L137.75 56.85 138.4 57.5 138.1 57.85 137.95 58.2 Q137.7 58.75 138.0 59.45 L137.6 59.7 Q138.0 60.05 138.05 60.5 L137.95 61.4 137.25 62.35 137.95 63.65 Q138.25 64.55 137.5 65.1 L136.2 65.8 Q137.5 66.2 138.35 67.55 L138.5 67.85 Q138.0 68.3 138.0 69.05 L137.65 69.2 136.7 69.45 136.55 69.45 137.05 69.75 137.3 69.9 137.5 70.4 137.6 71.0 137.45 71.45 137.3 71.8 138.0 72.65 Q138.3 73.0 138.2 73.55 138.1 74.1 137.5 74.45 L137.8 75.1 137.95 75.9 137.6 76.8 137.3 77.15 Q137.6 77.8 137.55 78.7 137.5 80.55 135.5 80.7 L134.85 80.85 Q133.95 82.3 132.55 81.2 131.65 80.45 132.25 79.4 L132.6 78.7 132.25 78.2 132.05 77.65 132.25 77.0 132.45 76.7 132.2 75.7 Q132.05 75.1 132.3 74.5 132.5 73.75 133.15 73.2 L132.85 72.75 132.75 72.1 132.8 71.45 133.15 71.0 Q132.9 70.6 132.8 70.1 132.7 69.4 133.0 68.85 133.35 68.1 134.05 67.7 L133.1 66.4 Q132.75 65.7 132.8 64.85 132.85 64.05 133.6 63.65 L133.0 62.65 Q132.75 62.05 132.9 61.45 133.15 60.75 133.7 60.3 134.0 60.15 133.85 59.8 L133.7 59.25 133.8 58.6 133.9 58.1 Q132.9 57.0 133.6 55.7 134.35 54.15 135.35 52.8 L136.35 51.05 Q135.05 46.8 136.5 42.2 137.35 39.65 136.2 37.45 135.25 35.55 135.25 33.5 L135.8 32.45 136.2 29.45 136.2 29.1" fill="#91969c" fill-rule="evenodd" stroke="none"/>
    <path d="M181.15 100.35 Q164.65 94.1 69.55 64.75 L70.4 61.85 71.15 61.2 Q71.6 60.8 72.2 60.75 L73.75 60.5 Q92.85 63.6 117.65 69.6 142.45 75.6 163.5 86.15 184.5 96.7 186.65 97.55 188.85 98.35 189.5 100.7 190.1 103.1 183.3 101.0 L181.15 100.35" fill="#516274" fill-rule="evenodd" stroke="none"/>
    <path d="M99.85 72.65 Q96.7 66.3 103.25 78.1 109.85 89.95 118.25 104.2 L124.15 114.35 Q123.55 113.95 123.15 115.3 122.35 120.25 119.25 114.75 114.2 105.6 108.95 96.75 L97.55 77.5 Q91.6 67.5 99.85 72.65" fill="#253241" fill-rule="evenodd" stroke="none"/>
    <path d="M99.85 73.6 L102.5 78.4 117.45 104.5 122.65 113.4 122.3 114.35 122.2 114.55 122.2 115.05 121.3 113.5 110.95 95.4 99.55 76.15 97.45 72.3 Q98.3 72.65 99.65 73.55 L99.85 73.6" fill="#5a7493" fill-rule="evenodd" stroke="none"/>
    <path d="M170.6 96.25 L167.45 99.95 Q159.3 110.15 151.4 119.0 144.0 127.25 141.85 132.5 L141.9 132.85 141.85 133.35 143.0 132.0 Q149.5 123.75 156.15 115.85 L170.6 98.75 173.25 95.3 Q172.35 95.5 170.9 96.15 L170.6 96.25" fill="#4a627e" fill-rule="evenodd" stroke="none"/>
    <path d="M163.05 119.0 L163.8 119.55 Q168.3 122.7 173.1 127.0 L173.45 165.0 172.2 162.95 Q170.95 160.85 171.9 158.35 L172.65 156.55 172.6 156.35 Q169.7 154.55 166.4 153.5 L163.8 152.75 163.05 152.55 159.15 151.3 Q154.75 149.95 150.2 150.15 L150.2 150.4 149.85 152.0 Q149.5 152.95 149.7 153.9 149.8 155.25 148.9 156.15 146.75 158.7 143.9 157.0 142.2 156.0 142.25 154.15 L142.15 152.9 142.05 153.25 Q142.15 154.4 141.45 155.45 139.45 158.3 136.4 156.65 134.45 155.75 134.2 153.75 L134.05 150.2 133.85 146.7 133.7 146.0 133.7 145.55 133.65 145.35 131.9 145.35 131.85 145.55 131.75 146.0 131.45 147.1 130.6 148.7 Q130.15 149.4 130.0 150.2 129.8 151.3 128.9 152.1 126.5 154.25 123.75 152.3 L123.6 152.55 122.6 153.55 121.85 154.15 121.0 154.4 Q119.2 155.0 117.75 153.75 117.15 153.25 116.75 152.3 L117.45 154.25 Q115.35 150.85 115.3 151.25 L115.2 152.0 114.95 153.15 114.3 154.25 113.1 155.45 111.8 156.15 111.05 156.55 111.05 156.95 111.05 157.4 111.0 157.7 110.9 158.0 110.8 158.45 110.7 158.8 110.4 159.25 110.2 159.6 109.8 160.0 109.15 160.4 109.05 160.85 109.05 162.7 108.9 165.0 Q108.85 166.85 107.55 168.1 104.95 170.8 101.85 169.75 L100.35 169.1 98.75 167.7 98.65 167.75 98.25 168.55 97.9 169.35 97.55 170.05 96.3 171.3 94.4 171.55 Q93.2 171.45 92.95 172.2 L92.95 172.65 92.95 173.75 92.95 174.95 92.95 176.1 Q92.9 177.0 92.5 177.65 91.85 178.7 90.55 179.25 L87.85 180.25 Q86.0 172.65 75.25 188.6 72.1 183.1 71.25 164.9 86.85 140.9 101.85 128.7 L106.6 125.15 Q114.4 118.55 121.85 114.95 134.35 108.8 145.75 111.15 153.95 112.8 163.05 119.0 M116.45 150.8 L116.35 150.15 Q116.1 150.25 116.65 151.9 L116.45 150.8 M89.3 185.8 L87.9 180.35 Q92.0 194.9 89.3 185.8" fill="#516274" fill-rule="evenodd" stroke="none"/>
    <path d="M163.05 119.0 L163.05 119.55 162.8 119.45 Q161.3 119.8 161.85 121.35 L162.0 121.75 Q161.75 122.05 161.85 122.65 L162.65 125.1 Q162.25 125.25 162.15 125.9 161.95 127.5 162.75 129.0 L163.05 129.45 163.05 130.5 Q162.75 130.8 162.7 131.2 162.6 132.55 163.05 133.85 L163.05 134.4 162.8 134.25 Q160.8 135.05 162.25 137.0 L163.05 138.25 163.05 138.4 Q162.2 138.85 162.6 140.2 L163.0 141.25 Q161.65 141.75 161.95 143.0 161.65 143.25 161.65 143.7 161.65 145.45 162.25 147.2 L161.5 146.5 Q160.55 146.6 160.65 147.5 L160.9 149.2 160.55 148.85 Q160.05 148.9 159.95 149.35 159.7 150.45 159.85 151.5 L159.15 151.3 Q154.75 149.95 150.2 150.15 L150.2 150.4 149.85 152.0 Q149.5 152.95 149.7 153.9 149.8 155.25 148.9 156.15 146.75 158.7 143.9 157.0 142.2 156.0 142.25 154.15 L142.15 152.9 142.05 153.25 Q142.15 154.4 141.45 155.45 139.45 158.3 136.4 156.65 134.45 155.75 134.2 153.75 L134.05 150.2 133.85 146.7 133.7 146.0 133.7 145.55 133.65 145.35 131.9 145.35 131.85 145.55 131.75 146.0 131.45 147.1 130.6 148.7 Q130.15 149.4 130.0 150.2 129.8 151.3 128.9 152.1 126.5 154.25 123.75 152.3 L123.6 152.55 122.6 153.55 121.85 154.15 121.0 154.4 Q119.2 155.0 117.75 153.75 117.15 153.25 116.75 152.3 L117.45 154.25 Q115.35 150.85 115.3 151.25 L115.2 152.0 114.95 153.15 114.3 154.25 113.1 155.45 111.8 156.15 111.05 156.55 111.05 156.95 111.05 157.4 111.0 157.7 110.9 158.0 110.8 158.45 110.7 158.8 110.4 159.25 110.2 159.6 109.8 160.0 109.15 160.4 109.05 160.85 109.05 162.7 108.9 165.0 Q108.85 166.85 107.55 168.1 104.95 170.8 101.85 169.75 L101.85 169.1 102.8 167.8 Q104.55 165.35 102.8 163.35 L102.8 163.3 102.8 163.05 102.8 162.95 102.75 162.9 102.75 162.8 102.75 162.7 102.7 162.65 103.35 161.75 Q103.7 161.1 103.4 160.45 L103.1 160.05 103.25 159.75 Q103.65 159.15 103.3 158.5 L102.65 157.9 102.85 157.55 Q103.45 156.8 103.5 155.9 103.55 155.0 102.7 154.7 L103.3 153.95 Q103.9 153.35 103.7 152.5 L103.7 152.4 103.75 152.25 Q104.4 151.5 104.35 150.65 104.35 149.65 103.3 149.5 L102.45 150.1 102.65 149.8 104.15 147.85 Q104.6 147.0 104.15 146.5 105.1 145.35 104.6 144.4 105.85 143.05 104.15 142.1 106.6 140.4 104.45 139.1 105.05 137.9 103.65 137.05 104.35 135.85 102.8 134.85 105.6 133.3 103.25 131.75 105.3 130.1 102.9 128.8 102.4 129.0 101.85 129.3 L101.85 128.7 106.6 125.15 Q114.4 118.55 121.85 114.95 134.35 108.8 145.75 111.15 153.95 112.8 163.05 119.0 M116.45 150.8 L116.35 150.15 Q116.1 150.25 116.65 151.9 L116.45 150.8" fill="#405469" fill-rule="evenodd" stroke="none"/>
    <path d="M125.2 115.4 L125.15 115.4 124.1 114.7 Q123.15 115.0 122.2 115.45 L122.15 115.5 121.85 115.4 121.85 114.95 Q134.35 108.8 145.75 111.15 154.25 112.85 163.8 119.55 L163.8 120.05 Q161.85 120.85 163.45 122.1 L163.8 122.3 163.8 122.45 162.95 122.05 162.55 122.15 Q161.45 122.8 162.3 123.65 L162.6 123.95 162.0 124.6 Q161.9 125.05 162.15 125.3 161.4 125.9 162.5 126.9 L163.2 127.5 162.45 128.35 Q160.7 129.2 162.5 130.55 L163.8 131.5 163.8 131.7 161.45 130.45 Q159.5 131.7 161.5 132.95 161.1 133.5 162.1 134.3 L163.8 135.65 163.8 136.15 Q162.8 135.4 161.75 134.8 159.85 135.55 161.45 136.95 L161.95 137.45 Q160.85 138.1 162.25 139.2 L163.8 140.5 163.8 142.6 162.3 141.75 Q161.3 141.9 161.4 142.8 159.95 143.7 161.7 145.05 L163.55 146.75 163.8 146.95 163.8 148.7 162.5 148.0 Q161.45 148.15 161.7 149.2 161.95 150.2 162.75 151.0 L163.8 151.7 163.8 152.75 159.15 151.3 Q154.75 149.95 150.2 150.15 L150.2 150.4 149.85 152.0 Q149.5 152.95 149.7 153.9 149.8 155.25 148.9 156.15 146.75 158.7 143.9 157.0 142.2 156.0 142.25 154.15 L142.15 152.9 142.05 153.25 Q142.15 154.4 141.45 155.45 139.45 158.3 136.4 156.65 134.45 155.75 134.2 153.75 L134.05 150.2 133.85 146.7 133.7 146.0 133.7 145.55 133.65 145.35 131.9 145.35 131.85 145.55 131.75 146.0 131.45 147.1 130.6 148.7 Q130.15 149.4 130.0 150.2 129.8 151.3 128.9 152.1 126.5 154.25 123.75 152.3 L123.75 152.4 123.75 151.9 124.2 151.45 Q125.85 149.8 124.9 148.7 125.0 147.85 123.9 147.05 L124.55 146.2 Q125.25 145.25 124.25 144.45 L124.95 144.2 Q127.6 143.1 125.35 141.75 L124.55 141.85 Q126.85 140.55 125.5 139.25 127.35 137.95 125.35 136.85 L124.45 137.1 124.45 136.95 Q125.35 136.85 126.4 136.2 128.45 134.85 126.0 134.2 L125.8 134.25 Q125.95 133.85 125.3 133.5 123.55 134.4 121.85 135.45 L121.85 134.75 124.4 133.75 Q127.15 132.95 125.05 131.7 L125.9 131.5 126.8 131.15 Q128.65 129.75 126.2 129.3 L124.7 129.55 125.15 129.3 Q126.5 128.6 125.35 127.9 L125.3 127.9 124.9 127.8 Q125.95 127.05 125.5 126.35 L125.0 125.95 125.05 125.9 Q126.05 125.4 125.55 124.95 L126.15 124.55 Q127.85 122.85 125.15 122.7 123.45 123.0 121.85 123.7 L121.85 123.6 Q122.85 123.0 123.95 122.55 126.45 121.25 124.5 120.25 124.95 119.85 124.25 119.45 L124.9 119.2 Q126.05 118.7 125.0 118.1 L123.7 118.5 123.75 118.45 124.85 117.9 Q126.2 117.3 125.1 116.65 L124.75 116.8 124.85 116.75 125.1 116.55 125.5 116.35 Q126.55 115.65 125.2 115.4 M122.2 140.75 L121.85 140.9 121.85 140.55 122.35 140.5 122.4 140.5 122.2 140.75" fill="#6d7e91" fill-rule="evenodd" stroke="none"/>
    <path d="M58.9 186.9 L58.95 186.55 Q59.3 179.8 64.3 174.95 66.65 172.7 69.45 171.4 83.45 168.1 76.85 178.95 70.2 189.8 60.95 189.05 60.05 188.9 59.45 187.95 L58.9 186.9" fill="#c0c2c4" fill-rule="evenodd" stroke="none"/>
    <path d="M86.25 172.0 L86.4 172.1 86.35 172.1 86.25 172.0 M90.55 175.3 Q95.6 180.4 95.6 187.5 95.6 194.85 90.25 200.1 84.85 205.3 77.25 205.3 71.45 205.3 73.0 214.05 L66.45 203.2 Q67.25 202.85 67.85 201.45 68.4 201.2 68.55 200.65 L68.7 199.55 68.7 198.45 68.65 197.65 Q72.8 195.35 76.6 192.45 81.2 188.85 84.25 183.9 86.3 180.45 87.75 176.55 89.6 177.6 90.35 175.75 L90.55 175.3 M59.6 192.4 Q59.25 191.15 59.05 189.8 L58.9 187.9 58.9 187.5 58.9 186.9 59.45 187.95 Q60.05 188.9 60.95 189.05 70.2 189.8 76.85 178.95 83.45 168.1 69.45 171.4 71.1 170.6 72.95 170.25 L77.25 169.75 81.7 170.25 Q83.0 171.95 83.65 177.6 84.25 183.15 76.45 187.3 68.7 191.45 64.4 191.95 L59.6 192.4" fill="#999c9f" fill-rule="evenodd" stroke="none"/>
    <path d="M81.7 170.25 Q84.15 170.8 86.25 172.0 L86.35 172.1 86.4 172.1 88.65 173.6 89.4 174.15 89.85 174.6 90.25 174.95 90.35 175.1 90.55 175.3 90.35 175.75 Q89.6 177.6 87.75 176.55 86.3 180.45 84.25 183.9 81.2 188.85 76.6 192.45 72.8 195.35 68.65 197.65 L68.7 198.45 68.7 199.55 68.55 200.65 Q68.4 201.2 67.85 201.45 67.25 202.85 66.45 203.2 L64.45 200.25 64.35 200.15 64.3 200.1 Q61.65 197.5 60.3 194.45 L59.85 193.3 59.5 192.45 59.6 192.4 64.4 191.95 Q68.7 191.45 76.45 187.3 84.25 183.15 83.65 177.6 83.0 171.95 81.7 170.25" fill="#818385" fill-rule="evenodd" stroke="none"/>
    <path d="M163.05 122.05 Q153.95 115.85 145.75 114.2 134.35 111.85 121.85 117.95 114.4 121.55 106.6 128.15 104.25 129.8 86.0 147.6 79.05 154.35 75.3 158.9 88.75 139.35 101.85 128.7 L106.6 125.15 Q114.4 118.55 121.85 114.95 134.35 108.8 145.75 111.15 153.95 112.8 163.05 119.0 L163.8 119.55 Q168.3 122.7 173.1 127.0 168.2 125.6 163.8 122.6 L163.05 122.05 M89.3 185.8 L88.55 183.0 88.65 183.0 Q91.75 194.0 89.3 185.8 M173.45 165.0 L173.45 163.7 173.45 165.0 M171.9 161.35 L171.75 161.95 Q171.3 160.45 171.75 158.85 L172.6 159.4 172.65 159.55 171.9 161.35" fill="#405366" fill-rule="evenodd" stroke="none"/>
    <path d="M156.2 152.15 L156.45 147.05 Q156.7 139.4 157.4 131.75 162.45 134.05 167.75 137.9 L167.75 158.65 Q162.85 153.9 156.2 152.15 M148.95 128.95 L152.45 129.9 Q152.1 132.8 152.05 135.9 L151.45 151.35 148.0 151.15 Q142.85 151.0 138.0 152.1 L137.85 137.05 Q137.85 132.8 138.35 128.6 L148.95 128.95 M97.7 153.25 L97.7 153.4 Q99.05 163.95 100.05 174.45 L95.3 179.3 Q92.1 182.6 88.15 184.7 L87.3 185.25 87.3 164.9 Q92.5 158.35 97.7 153.25 M132.8 137.45 L133.0 153.55 Q125.75 155.95 119.15 159.65 L119.05 140.35 119.15 136.05 Q126.35 131.55 133.1 129.65 132.75 133.45 132.8 137.45 M114.0 139.65 L114.0 142.65 114.25 162.65 Q109.25 165.95 104.75 170.0 L102.7 151.6 102.5 148.7 Q106.15 145.45 109.8 142.95 111.95 141.15 114.0 139.65 M92.5 203.6 L91.1 198.15 Q95.25 212.7 92.5 203.6" fill="#2d3e51" fill-rule="evenodd" stroke="none"/>
    <path d="M167.7 137.9 L167.7 138.3 Q163.15 135.15 158.7 133.15 158.0 140.8 157.8 148.45 L157.6 152.6 156.2 152.2 156.4 147.1 Q156.65 139.45 157.35 131.8 162.4 134.1 167.7 137.9 M97.65 153.25 L97.65 153.45 97.95 155.65 Q93.3 160.35 88.6 166.25 L88.6 184.5 88.15 184.75 87.25 185.25 87.25 164.9 Q92.5 158.35 97.65 153.25 M91.05 198.2 Q95.2 212.7 92.5 203.6 L91.05 198.2" fill="#203246" fill-rule="evenodd" stroke="none"/>
    <path d="M120.5 137.45 Q121.0 140.25 120.7 145.3 120.35 150.3 120.5 158.95 L119.15 159.65 119.0 140.35 Q119.0 138.2 119.15 136.1 126.3 131.55 133.05 129.65 L132.95 131.5 Q126.9 133.35 120.5 137.45 M113.95 139.65 L113.95 142.1 111.15 144.3 Q107.5 146.85 103.85 150.1 L104.0 152.95 105.85 169.1 104.7 170.0 102.65 151.6 102.5 148.75 Q106.15 145.5 109.8 142.95 L113.95 139.65 M152.05 132.55 Q151.05 130.95 147.95 130.3 L139.65 129.95 Q139.2 134.2 139.2 138.45 L139.3 151.9 137.95 152.15 137.85 137.1 Q137.85 132.85 138.3 128.6 L148.9 128.95 152.4 129.9 152.05 132.55" fill="#0e1823" fill-rule="evenodd" stroke="none"/>
    <path d="M33.3 256.9 L33.2 256.95 Q43.6 255.95 49.85 259.55 51.55 259.3 51.8 262.25 L50.85 262.2 Q37.45 268.9 15.6 276.35 11.95 280.4 11.5 280.15 11.1 279.95 12.1 275.25 13.1 270.5 17.8 265.2 22.45 259.85 28.05 258.1 31.25 257.1 33.3 256.9" fill="#e2e2e2" fill-rule="evenodd" stroke="none"/>
    <path d="M27.55 259.6 Q25.75 264.1 26.1 267.7 25.4 269.15 23.65 268.8 23.0 265.15 24.85 260.85 26.45 259.05 27.55 259.6" fill="#3f3326" fill-rule="evenodd" stroke="none"/>
    <path d="M20.85 263.3 Q19.05 267.8 19.4 271.4 18.7 272.85 16.95 272.5 16.3 268.85 18.15 264.55 19.75 262.75 20.85 263.3" fill="#3f3326" fill-rule="evenodd" stroke="none"/>
  </g>
</svg>
