<?xml version="1.0" encoding="UTF-8" standalone="no"?>
<svg xmlns:ffdec="https://www.free-decompiler.com/flash" xmlns:xlink="http://www.w3.org/1999/xlink" ffdec:objectType="shape" height="30.0px" width="44.85px" xmlns="http://www.w3.org/2000/svg">
  <g transform="matrix(1.0, 0.0, 0.0, 1.0, 22.4, 15.0)">
    <path d="M-2.45 -11.4 Q-2.35 -13.2 -3.3 -14.15 L-3.25 -14.15 Q-2.35 -13.7 -0.85 -10.8 L-0.45 -9.95 5.3 -6.25 Q5.1 -6.5 5.55 -6.7 L7.65 -6.55 Q9.1 -5.9 9.6 -4.15 L9.8 -3.35 9.5 -1.55 Q9.0 0.2 7.8 1.05 6.6 1.9 5.55 2.15 5.35 2.2 5.2 2.3 L6.2 2.0 Q7.25 2.2 8.15 1.5 9.4 0.6 9.9 -0.8 L9.95 -1.0 Q15.1 2.35 21.7 6.1 L20.65 4.1 18.05 2.3 10.0 -2.75 9.9 -3.25 21.75 4.4 Q23.9 8.25 19.65 9.65 L19.4 9.55 19.4 9.5 20.1 9.25 21.55 8.15 Q22.3 7.35 21.85 6.45 L21.75 6.55 21.55 7.4 19.9 8.7 19.6 8.75 Q19.1 8.7 18.95 8.95 L18.65 8.7 19.55 8.1 Q20.0 7.6 19.85 7.15 L19.75 7.25 19.4 7.7 18.95 7.95 18.1 8.25 16.4 7.1 11.75 4.4 Q9.45 3.05 6.95 2.05 L6.9 2.05 6.8 2.1 6.75 2.1 6.7 2.15 6.7 2.2 11.5 4.95 15.95 7.55 17.8 8.65 17.9 8.7 18.35 8.95 17.8 8.65 6.55 2.15 5.2 2.3 3.6 1.85 Q2.25 1.1 2.2 -0.1 L3.25 0.1 3.15 0.3 3.1 0.6 3.2 0.95 3.35 0.75 3.5 0.55 3.55 0.3 3.65 0.1 3.75 0.1 3.8 0.1 4.25 0.05 4.2 0.35 Q4.2 0.75 4.45 0.9 L4.45 0.45 4.5 -0.05 4.85 -0.25 4.95 -0.35 4.95 -0.3 5.05 0.55 5.45 1.25 5.4 0.7 5.2 -0.05 5.15 -0.4 Q7.1 -1.85 6.85 -3.95 L6.95 -4.05 Q7.1 -4.25 7.25 -4.25 7.65 -4.35 7.75 -4.6 L7.7 -4.75 7.6 -4.8 7.4 -4.8 7.15 -4.75 6.75 -4.45 6.6 -5.05 6.55 -5.05 6.6 -4.45 6.4 -5.0 -0.15 -9.1 -0.05 -7.8 6.45 -3.4 6.5 -3.35 Q6.15 -1.75 4.45 -0.8 L3.95 -0.65 2.95 -0.45 2.9 -0.45 Q3.5 -0.7 4.05 -1.05 4.9 -1.65 4.75 -2.4 L4.2 -1.9 Q3.4 -0.9 2.2 -0.85 0.8 -1.65 -2.0 -2.8 L-2.1 -2.85 -0.95 -2.1 -4.45 -4.0 -5.05 -4.0 -7.95 -4.2 Q-6.75 -4.05 -5.6 -4.85 -3.45 -6.25 -2.75 -8.7 -2.35 -10.1 -2.45 -11.4 M1.2 -4.9 L1.05 -4.75 0.8 -3.85 Q0.15 -2.95 -0.95 -2.85 L-0.05 -2.7 Q0.75 -2.95 1.05 -3.55 1.4 -4.3 1.2 -4.9 M-0.1 -4.4 Q0.35 -5.05 0.1 -5.7 L-0.1 -5.3 -0.75 -4.25 Q-1.35 -3.55 -2.25 -3.25 L-2.15 -3.2 -2.1 -3.15 -2.05 -3.1 Q-1.55 -3.1 -1.1 -3.4 -0.55 -3.75 -0.1 -4.4 M-3.35 -6.25 L-3.6 -6.05 -3.9 -5.8 -3.9 -5.75 -3.9 -5.65 -3.9 -5.6 -3.85 -5.55 -3.55 -5.6 -3.25 -5.9 Q-3.1 -6.15 -3.3 -6.25 L-3.35 -6.25 M-1.5 -5.1 L-2.7 -4.25 -1.85 -4.35 -1.0 -5.15 Q-0.55 -5.7 -0.7 -6.2 L-1.0 -5.8 -1.5 -5.1 M-0.9 -9.2 L-1.05 -8.15 Q-1.15 -7.45 -2.0 -6.25 -2.9 -5.1 -4.7 -4.45 L-4.75 -4.4 -4.75 -4.3 -4.7 -4.25 -4.7 -4.2 Q-3.8 -4.0 -3.0 -4.7 -1.9 -5.5 -1.3 -6.7 -0.6 -7.95 -0.9 -9.2 M3.8 -2.65 L3.7 -2.35 3.25 -2.1 Q2.35 -1.65 1.5 -1.5 1.75 -1.05 2.55 -1.25 L3.6 -1.95 Q4.15 -2.5 4.0 -3.1 L3.9 -2.95 3.8 -2.65 M0.35 -3.55 L0.65 -3.75 0.6 -4.0 0.35 -3.9 0.2 -3.7 0.1 -3.55 0.35 -3.55 M1.3 -3.1 L1.6 -3.4 1.75 -3.7 1.65 -3.8 1.55 -3.85 1.25 -3.6 1.0 -3.3 Q0.9 -3.15 1.05 -3.05 L1.3 -3.1 M2.75 -2.9 L2.7 -2.85 2.65 -2.65 2.6 -2.6 2.55 -2.5 2.6 -2.4 2.65 -2.35 2.7 -2.3 2.75 -2.3 3.0 -2.5 3.1 -2.7 3.05 -2.95 3.0 -2.95 2.9 -3.0 2.85 -3.0 2.8 -2.95 2.75 -2.95 2.75 -2.9 M2.5 -3.7 L2.25 -3.55 1.75 -2.65 1.45 -2.55 0.25 -2.35 0.75 -1.95 Q1.7 -1.7 2.2 -2.45 L2.65 -3.6 2.6 -3.65 2.55 -3.7 2.5 -3.7 M6.9 -6.7 L7.1 -6.35 Q8.15 -4.65 7.95 -2.6 7.65 -0.5 6.85 0.1 L5.85 0.75 Q7.25 0.9 8.5 -0.15 9.7 -1.2 9.65 -2.65 9.45 -4.3 8.5 -5.55 L8.5 -5.65 6.9 -6.7 M5.9 -5.9 L5.55 -6.15 5.5 -6.15 6.0 -5.8 5.9 -5.9 M5.9 -0.25 L5.7 -0.5 5.75 -0.25 5.85 0.1 Q6.0 0.4 6.25 0.3 L6.1 0.05 5.9 -0.25 M7.05 -0.5 L6.9 -0.75 6.65 -0.85 6.45 -1.05 6.35 -1.05 6.35 -0.8 6.65 -0.55 7.05 -0.5 M7.05 -2.2 L6.95 -2.2 6.85 -2.1 6.85 -2.05 Q6.9 -1.85 7.1 -1.8 L7.45 -1.65 7.65 -1.7 7.6 -1.9 7.35 -2.1 7.05 -2.2 M7.9 -3.1 L7.9 -3.15 7.65 -3.3 7.3 -3.3 7.2 -3.3 7.15 -3.3 7.15 -3.25 7.1 -3.2 7.1 -3.15 7.15 -3.05 Q7.55 -2.8 7.85 -3.05 L7.9 -3.1" fill="#4a2f2f" fill-rule="evenodd" stroke="none"/>
    <path d="M-2.45 -11.4 Q-2.55 -12.45 -3.0 -13.5 L-3.15 -13.35 Q-2.8 -12.0 -2.9 -10.6 -3.05 -8.1 -4.75 -6.25 -6.35 -4.45 -8.7 -4.5 L-8.65 -4.35 -8.05 -4.2 Q-8.9 -4.15 -9.6 -4.75 L-9.7 -4.8 -10.05 -5.25 Q-10.8 -6.2 -10.75 -7.85 -10.65 -9.9 -9.4 -12.0 -8.15 -13.95 -6.4 -14.7 -4.7 -15.4 -3.55 -14.4 L-3.3 -14.15 Q-2.35 -13.2 -2.45 -11.4 M-7.65 -6.4 Q-6.5 -6.9 -5.6 -8.2 -4.6 -9.6 -4.45 -11.25 L-4.4 -11.65 Q-4.45 -12.8 -5.05 -13.45 -5.85 -14.25 -7.1 -13.8 -8.3 -13.3 -9.35 -11.9 -10.35 -10.45 -10.5 -8.95 -10.7 -7.35 -9.9 -6.6 -9.15 -5.8 -7.85 -6.3 L-7.65 -6.4" fill="#543535" fill-rule="evenodd" stroke="none"/>
    <path d="M6.5 -3.35 L6.45 -3.4 -0.05 -7.8 -0.15 -9.1 6.4 -5.0 6.6 -4.45 6.6 -4.25 6.5 -4.15 6.4 -3.9 6.6 -3.85 6.5 -3.35 M9.95 -1.0 Q10.15 -1.75 10.0 -2.75 L18.05 2.3 20.65 4.1 21.7 6.1 Q15.1 2.35 9.95 -1.0" fill="#796161" fill-rule="evenodd" stroke="none"/>
    <path d="M-6.45 -13.95 L-6.5 -13.95 -8.35 -12.7 -9.15 -11.65 -9.4 -10.8 -8.55 -11.85 -7.35 -13.0 -5.95 -13.75 -5.95 -13.8 -6.1 -13.9 -6.3 -13.95 -6.45 -13.95 M-5.35 -12.9 L-5.5 -12.9 -6.05 -12.6 -6.3 -12.4 -6.05 -12.65 Q-6.95 -12.5 -7.5 -11.75 L-8.4 -10.35 Q-8.7 -9.85 -8.5 -9.35 L-8.35 -9.5 -8.2 -10.2 -8.15 -9.85 -7.4 -11.0 -6.8 -11.6 Q-6.55 -11.7 -6.35 -11.85 L-5.65 -12.3 -4.6 -12.45 -4.65 -12.65 Q-4.75 -12.85 -5.0 -12.85 L-5.35 -12.9 M-5.5 -13.4 L-5.8 -13.45 -6.15 -13.3 -7.3 -12.8 -7.5 -12.65 -8.35 -11.95 -8.95 -11.0 -9.0 -10.2 -8.7 -10.9 -8.35 -11.5 -8.3 -11.45 -8.15 -11.5 -8.65 -10.75 -8.8 -9.95 -8.5 -10.55 -8.05 -11.3 -7.75 -11.7 -7.35 -12.1 -6.4 -12.7 -5.05 -13.05 -5.2 -13.3 -5.5 -13.4 M-7.1 -11.7 L-7.0 -11.8 -7.1 -11.7 -7.6 -11.25 -7.1 -11.7 M-7.75 -10.25 L-7.75 -10.15 -7.7 -10.1 -7.7 -9.95 -7.65 -9.9 -7.0 -10.75 -6.15 -11.55 Q-5.5 -11.9 -5.65 -12.25 L-6.55 -11.7 -7.3 -10.9 -7.75 -10.25 M-4.4 -11.65 L-5.35 -11.7 Q-6.15 -11.7 -7.35 -9.95 -8.65 -8.2 -7.65 -6.4 L-7.85 -6.3 Q-9.15 -5.8 -9.9 -6.6 -10.7 -7.35 -10.5 -8.95 -10.35 -10.45 -9.35 -11.9 -8.3 -13.3 -7.1 -13.8 -5.85 -14.25 -5.05 -13.45 -4.45 -12.8 -4.4 -11.65" fill="#3f2a2a" fill-rule="evenodd" stroke="none"/>
    <path d="M-7.1 -11.7 L-6.85 -11.9 -7.0 -11.8 -7.1 -11.7 M-7.65 -6.4 Q-8.65 -8.2 -7.35 -9.95 -6.15 -11.7 -5.35 -11.7 L-4.4 -11.65 -4.45 -11.25 Q-4.6 -9.6 -5.6 -8.2 -6.5 -6.9 -7.65 -6.4" fill="#250202" fill-rule="evenodd" stroke="none"/>
    <path d="M6.9 -6.7 L8.5 -5.65 8.5 -5.55 Q9.45 -4.3 9.65 -2.65 9.7 -1.2 8.5 -0.15 7.25 0.9 5.85 0.75 L6.85 0.1 Q7.65 -0.5 7.95 -2.6 8.15 -4.65 7.1 -6.35 L6.9 -6.7" fill="#644747" fill-rule="evenodd" stroke="none"/>
    <path d="M-8.05 -4.2 L-8.65 -4.35 -8.7 -4.5 Q-6.35 -4.45 -4.75 -6.25 -3.05 -8.1 -2.9 -10.6 -2.8 -12.0 -3.15 -13.35 L-3.0 -13.5 Q-2.55 -12.45 -2.45 -11.4 -2.35 -10.1 -2.75 -8.7 -3.45 -6.25 -5.6 -4.85 -6.75 -4.05 -7.95 -4.2 L-8.05 -4.2 M9.8 -3.35 L9.8 -3.45 9.45 -4.9 9.9 -3.25 10.0 -2.75 Q10.15 -1.75 9.95 -1.0 L9.9 -0.8 Q9.4 0.6 8.15 1.5 7.25 2.2 6.2 2.0 L5.2 2.3 Q5.35 2.2 5.55 2.15 6.6 1.9 7.8 1.05 9.0 0.2 9.5 -1.55 L9.8 -3.35 M19.4 9.55 Q20.85 10.5 19.45 9.6 L19.25 9.5 18.8 9.35 18.8 9.2 18.55 9.1 18.35 8.95 17.9 8.7 17.8 8.65 15.95 7.55 11.5 4.95 6.7 2.2 6.7 2.15 6.75 2.1 6.8 2.1 6.9 2.05 6.95 2.05 Q9.45 3.05 11.75 4.4 L16.4 7.1 18.1 8.25 18.95 7.95 19.4 7.7 19.75 7.25 19.85 7.15 Q20.0 7.6 19.55 8.1 L18.65 8.7 18.95 8.95 Q19.1 8.7 19.6 8.75 L19.9 8.7 21.55 7.4 21.75 6.55 21.85 6.45 Q22.3 7.35 21.55 8.15 L20.1 9.25 19.4 9.5 19.4 9.55 M2.2 -0.1 L2.1 -0.2 -0.95 -2.1 -2.1 -2.85 -2.0 -2.8 Q0.8 -1.65 2.2 -0.85 3.4 -0.9 4.2 -1.9 L4.75 -2.4 Q4.9 -1.65 4.05 -1.05 3.5 -0.7 2.9 -0.45 L2.95 -0.45 3.95 -0.65 4.45 -0.8 Q6.15 -1.75 6.5 -3.35 L6.6 -3.85 6.4 -3.9 6.5 -4.15 6.6 -4.25 6.6 -4.45 6.55 -5.05 6.6 -5.05 6.75 -4.45 7.15 -4.75 7.4 -4.8 7.6 -4.8 7.7 -4.75 7.75 -4.6 Q7.65 -4.35 7.25 -4.25 7.1 -4.25 6.95 -4.05 L6.85 -3.95 Q7.1 -1.85 5.15 -0.4 L5.2 -0.05 5.4 0.7 5.45 1.25 5.05 0.55 4.95 -0.3 4.95 -0.35 4.85 -0.25 4.5 -0.05 4.45 0.45 4.45 0.9 Q4.2 0.75 4.2 0.35 L4.25 0.05 3.8 0.1 3.75 0.1 3.65 0.1 3.55 0.3 3.5 0.55 3.35 0.75 3.2 0.95 3.1 0.6 3.15 0.3 3.25 0.1 2.2 -0.1 M-0.9 -9.2 Q-0.6 -7.95 -1.3 -6.7 -1.9 -5.5 -3.0 -4.7 -3.8 -4.0 -4.7 -4.2 L-4.7 -4.25 -4.75 -4.3 -4.75 -4.4 -4.7 -4.45 Q-2.9 -5.1 -2.0 -6.25 -1.15 -7.45 -1.05 -8.15 L-0.9 -9.2 M-1.5 -5.1 L-1.0 -5.8 -0.7 -6.2 Q-0.55 -5.7 -1.0 -5.15 L-1.85 -4.35 -2.7 -4.25 -1.5 -5.1 M-3.35 -6.25 L-3.3 -6.25 Q-3.1 -6.15 -3.25 -5.9 L-3.55 -5.6 -3.85 -5.55 -3.9 -5.6 -3.9 -5.65 -3.9 -5.75 -3.9 -5.8 -3.6 -6.05 -3.35 -6.25 M-0.1 -4.4 Q-0.55 -3.75 -1.1 -3.4 -1.55 -3.1 -2.05 -3.1 L-2.1 -3.15 -2.15 -3.2 -2.25 -3.25 Q-1.35 -3.55 -0.75 -4.25 L-0.1 -5.3 0.1 -5.7 Q0.35 -5.05 -0.1 -4.4 M1.2 -4.9 Q1.4 -4.3 1.05 -3.55 0.75 -2.95 -0.05 -2.7 L-0.95 -2.85 Q0.15 -2.95 0.8 -3.85 L1.05 -4.75 1.2 -4.9 M-5.5 -13.4 L-5.2 -13.3 -5.05 -13.05 -6.4 -12.7 -7.35 -12.1 -7.75 -11.7 -8.05 -11.3 -8.5 -10.55 -8.8 -9.95 -8.65 -10.75 -8.15 -11.5 -8.3 -11.45 -8.35 -11.5 -8.7 -10.9 -9.0 -10.2 -8.95 -11.0 -8.35 -11.95 -7.5 -12.65 -7.3 -12.8 -6.15 -13.3 -5.8 -13.45 -5.5 -13.4 M-5.35 -12.9 L-5.0 -12.85 Q-4.75 -12.85 -4.65 -12.65 L-4.6 -12.45 -5.65 -12.3 -6.35 -11.85 Q-6.55 -11.7 -6.8 -11.6 L-7.4 -11.0 -8.15 -9.85 -8.2 -10.2 -8.35 -9.5 -8.5 -9.35 Q-8.7 -9.85 -8.4 -10.35 L-7.5 -11.75 Q-6.95 -12.5 -6.05 -12.65 L-6.3 -12.4 -6.05 -12.6 -5.5 -12.9 -5.35 -12.9 M-6.45 -13.95 L-6.3 -13.95 -6.1 -13.9 -5.95 -13.8 -5.95 -13.75 -7.35 -13.0 -8.55 -11.85 -9.4 -10.8 -9.15 -11.65 -8.35 -12.7 -6.5 -13.95 -6.45 -13.95 M-7.0 -11.8 L-6.85 -11.9 -7.1 -11.7 -7.6 -11.25 -7.1 -11.7 -7.0 -11.8 M-7.75 -10.25 L-7.3 -10.9 -6.55 -11.7 -5.65 -12.25 Q-5.5 -11.9 -6.15 -11.55 L-7.0 -10.75 -7.65 -9.9 -7.7 -9.95 -7.7 -10.1 -7.75 -10.15 -7.75 -10.25 M3.8 -2.65 L3.9 -2.95 4.0 -3.1 Q4.15 -2.5 3.6 -1.95 L2.55 -1.25 Q1.75 -1.05 1.5 -1.5 2.35 -1.65 3.25 -2.1 L3.7 -2.35 3.8 -2.65 M2.5 -3.7 L2.55 -3.7 2.6 -3.65 2.65 -3.6 2.2 -2.45 Q1.7 -1.7 0.75 -1.95 L0.25 -2.35 1.45 -2.55 1.75 -2.65 2.25 -3.55 2.5 -3.7 M2.75 -2.9 L2.75 -2.95 2.8 -2.95 2.85 -3.0 2.9 -3.0 3.0 -2.95 3.05 -2.95 3.1 -2.7 3.0 -2.5 2.75 -2.3 2.7 -2.3 2.65 -2.35 2.6 -2.4 2.55 -2.5 2.6 -2.6 2.65 -2.65 2.7 -2.85 2.75 -2.9 M1.3 -3.1 L1.05 -3.05 Q0.9 -3.15 1.0 -3.3 L1.25 -3.6 1.55 -3.85 1.65 -3.8 1.75 -3.7 1.6 -3.4 1.3 -3.1 M0.35 -3.55 L0.1 -3.55 0.2 -3.7 0.35 -3.9 0.6 -4.0 0.65 -3.75 0.35 -3.55 M7.9 -3.1 L7.85 -3.05 Q7.55 -2.8 7.15 -3.05 L7.1 -3.15 7.1 -3.2 7.15 -3.25 7.15 -3.3 7.2 -3.3 7.3 -3.3 7.65 -3.3 7.9 -3.15 7.9 -3.1 M7.05 -2.2 L7.35 -2.1 7.6 -1.9 7.65 -1.7 7.45 -1.65 7.1 -1.8 Q6.9 -1.85 6.85 -2.05 L6.85 -2.1 6.95 -2.2 7.05 -2.2 M7.05 -0.5 L6.65 -0.55 6.35 -0.8 6.35 -1.05 6.45 -1.05 6.65 -0.85 6.9 -0.75 7.05 -0.5 M5.9 -0.25 L6.1 0.05 6.25 0.3 Q6.0 0.4 5.85 0.1 L5.75 -0.25 5.7 -0.5 5.9 -0.25" fill="#311616" fill-rule="evenodd" stroke="none"/>
    <path d="M-14.1 -6.45 Q-14.0 -8.25 -14.95 -9.2 L-14.9 -9.2 Q-14.0 -8.75 -12.5 -5.85 L-12.1 -5.0 -6.35 -1.3 -6.1 -1.75 -4.0 -1.6 Q-2.55 -0.95 -2.05 0.8 L-1.85 1.6 Q-1.85 2.55 -2.15 3.4 -2.65 5.15 -3.85 6.0 -5.05 6.85 -6.1 7.1 L-6.45 7.25 -5.45 6.95 Q-4.4 7.15 -3.5 6.45 -2.25 5.55 -1.75 4.15 L-1.7 3.95 10.05 11.05 9.0 9.05 Q9.3 9.05 6.4 7.25 L-1.65 2.2 -1.75 1.7 10.1 9.35 Q12.25 13.2 8.0 14.6 L7.75 14.5 7.75 14.45 8.45 14.2 9.9 13.1 Q10.65 12.3 10.2 11.4 L10.1 11.5 9.9 12.35 Q9.3 13.2 8.25 13.65 L7.95 13.7 Q7.45 13.65 7.3 13.9 L7.0 13.65 7.9 13.05 Q8.35 12.55 8.2 12.1 L8.1 12.2 7.75 12.65 7.3 12.9 Q6.75 12.95 6.45 13.2 5.65 12.55 4.75 12.05 L0.1 9.35 Q-2.2 8.0 -4.7 7.0 L-4.75 7.0 -4.85 7.05 -4.9 7.05 -4.95 7.1 -4.95 7.15 Q-2.25 8.65 -0.15 9.9 L4.3 12.5 6.15 13.6 6.25 13.65 6.7 13.9 6.15 13.6 -5.1 7.1 -6.45 7.25 -8.05 6.8 Q-9.4 6.05 -9.45 4.85 L-8.4 5.05 -8.5 5.25 -8.55 5.55 -8.45 5.9 -8.3 5.7 -8.15 5.5 -8.1 5.25 -8.0 5.05 -7.9 5.05 -7.85 5.05 -7.4 5.0 -7.45 5.3 -7.2 5.85 -7.2 5.4 -7.15 4.9 -6.8 4.7 -6.7 4.6 -6.7 4.65 -6.6 5.5 -6.2 6.2 Q-6.1 5.95 -6.25 5.65 L-6.45 4.9 -6.5 4.55 Q-4.55 3.1 -4.8 1.0 L-4.7 0.9 -4.4 0.7 -3.9 0.35 -3.95 0.2 -4.05 0.15 -4.25 0.15 -4.5 0.2 -4.9 0.5 -5.05 -0.1 -5.1 -0.1 -5.05 0.5 -5.25 -0.05 -11.8 -4.15 -11.7 -2.85 -5.2 1.55 -5.15 1.6 Q-5.5 3.2 -7.2 4.15 L-7.7 4.3 -8.7 4.5 -8.75 4.5 -7.6 3.9 Q-6.75 3.3 -6.9 2.55 L-7.45 3.05 Q-8.25 4.05 -9.45 4.1 -10.85 3.3 -13.65 2.15 L-13.75 2.1 -12.6 2.85 -16.1 0.95 -16.7 0.95 -19.6 0.75 Q-18.4 0.9 -17.25 0.1 -15.1 -1.3 -14.4 -3.75 -14.0 -5.15 -14.1 -6.45 M-10.45 0.05 L-10.6 0.2 -10.85 1.1 Q-11.5 2.0 -12.6 2.1 L-11.7 2.25 Q-10.9 2.0 -10.6 1.4 -10.25 0.65 -10.45 0.05 M-11.75 0.55 Q-11.3 -0.1 -11.55 -0.75 L-11.75 -0.35 -12.4 0.7 Q-13.0 1.4 -13.9 1.7 L-13.8 1.75 -13.75 1.8 -13.7 1.85 -12.75 1.55 -11.75 0.55 M-13.15 -0.15 L-14.35 0.7 -13.5 0.6 -12.65 -0.2 Q-12.2 -0.75 -12.35 -1.25 L-12.65 -0.85 -13.15 -0.15 M-15.0 -1.3 L-15.25 -1.1 -15.55 -0.85 -15.55 -0.8 -15.55 -0.7 -15.55 -0.65 -15.5 -0.6 -15.2 -0.65 -14.9 -0.95 Q-14.75 -1.2 -14.95 -1.3 L-15.0 -1.3 M-12.55 -4.25 L-12.7 -3.2 Q-12.8 -2.5 -13.65 -1.3 -14.55 -0.15 -16.35 0.5 L-16.4 0.55 -16.4 0.65 -16.35 0.7 -16.35 0.75 Q-15.45 0.95 -14.65 0.25 -13.55 -0.55 -12.95 -1.75 -12.25 -3.0 -12.55 -4.25 M-7.65 1.85 L-7.75 2.0 -7.85 2.3 -7.95 2.6 -8.4 2.85 Q-9.3 3.3 -10.15 3.45 -9.9 3.9 -9.1 3.7 L-8.05 3.0 Q-7.5 2.45 -7.65 1.85 M-11.55 1.4 L-11.3 1.4 -11.0 1.2 Q-10.85 1.05 -11.05 0.95 L-11.3 1.05 -11.45 1.25 -11.55 1.4 M-10.35 1.85 L-10.05 1.55 -9.9 1.25 -10.0 1.15 -10.1 1.1 -10.4 1.35 -10.65 1.65 -10.6 1.9 -10.35 1.85 M-8.9 2.05 L-8.95 2.1 -9.0 2.3 -9.05 2.35 -9.1 2.45 -9.05 2.55 -9.0 2.6 -8.95 2.65 -8.9 2.65 -8.65 2.45 -8.55 2.25 -8.6 2.0 -8.65 2.0 -8.75 1.95 -8.8 1.95 -8.85 2.0 -8.9 2.0 -8.9 2.05 M-9.15 1.25 L-9.4 1.4 -9.9 2.3 -10.2 2.4 -11.4 2.6 -10.9 3.0 Q-9.95 3.25 -9.45 2.5 L-9.0 1.35 -9.05 1.3 -9.1 1.25 -9.15 1.25 M-4.75 -1.75 L-4.55 -1.4 Q-3.5 0.3 -3.7 2.35 -4.0 4.45 -4.8 5.05 L-5.8 5.7 Q-4.4 5.85 -3.15 4.8 -1.95 3.75 -2.0 2.3 -2.2 0.65 -3.15 -0.6 L-3.15 -0.7 -4.75 -1.75 M-5.75 -0.95 L-6.1 -1.2 -6.15 -1.2 -5.65 -0.85 -5.75 -0.95 M-5.75 4.7 L-5.95 4.45 -5.9 4.7 -5.8 5.05 Q-5.65 5.35 -5.4 5.25 L-5.55 5.0 -5.75 4.7 M-4.6 4.45 L-4.75 4.2 -5.0 4.1 -5.2 3.9 -5.3 3.9 -5.3 4.15 -5.0 4.4 -4.6 4.45 M-4.7 2.75 L-4.8 2.85 -4.8 2.9 -4.55 3.15 -4.2 3.3 -4.0 3.25 Q-3.95 3.1 -4.05 3.05 L-4.3 2.85 -4.6 2.75 -4.7 2.75 M-3.75 1.85 L-3.75 1.8 Q-3.85 1.65 -4.0 1.65 L-4.35 1.65 -4.45 1.65 -4.5 1.65 -4.5 1.7 -4.55 1.75 -4.55 1.8 -4.5 1.9 Q-4.1 2.15 -3.8 1.9 L-3.75 1.85" fill="#4a2f2f" fill-rule="evenodd" stroke="none"/>
    <path d="M-14.1 -6.45 Q-14.2 -7.5 -14.65 -8.55 L-14.8 -8.4 Q-14.45 -7.05 -14.55 -5.65 -14.7 -3.15 -16.4 -1.3 -18.0 0.5 -20.35 0.45 L-20.3 0.6 -19.7 0.75 Q-20.55 0.8 -21.25 0.2 L-21.35 0.15 -21.7 -0.3 Q-22.45 -1.25 -22.4 -2.9 -22.3 -4.95 -21.05 -7.05 -19.8 -9.0 -18.05 -9.75 -16.35 -10.45 -15.2 -9.45 L-14.95 -9.2 Q-14.0 -8.25 -14.1 -6.45 M-19.3 -1.45 Q-18.15 -1.95 -17.25 -3.25 -16.25 -4.65 -16.1 -6.3 L-16.05 -6.7 Q-16.1 -7.85 -16.7 -8.5 -17.5 -9.3 -18.75 -8.85 -19.95 -8.35 -21.0 -6.95 -22.0 -5.5 -22.15 -4.0 -22.35 -2.4 -21.55 -1.65 -20.8 -0.85 -19.5 -1.35 L-19.3 -1.45" fill="#543535" fill-rule="evenodd" stroke="none"/>
    <path d="M-5.15 1.6 L-5.2 1.55 -11.7 -2.85 -11.8 -4.15 -5.25 -0.05 -5.05 0.5 -5.05 0.7 -5.15 0.8 -5.25 1.05 -5.05 1.1 -5.15 1.6 M-1.7 3.95 Q-1.5 3.2 -1.65 2.2 L6.4 7.25 Q9.3 9.05 9.0 9.05 L10.05 11.05 -1.7 3.95" fill="#796161" fill-rule="evenodd" stroke="none"/>
    <path d="M-18.1 -9.0 L-18.15 -9.0 Q-19.25 -8.55 -20.0 -7.75 L-20.8 -6.7 -21.05 -5.85 -20.2 -6.9 -19.0 -8.05 -17.6 -8.8 -17.6 -8.85 Q-17.6 -8.95 -17.75 -8.95 L-17.95 -9.0 -18.1 -9.0 M-17.15 -8.45 L-17.45 -8.5 -17.8 -8.35 -18.95 -7.85 -19.15 -7.7 -20.0 -7.0 -20.6 -6.05 -20.65 -5.25 -20.35 -5.95 -20.0 -6.55 -19.95 -6.5 -19.8 -6.55 -20.3 -5.8 -20.45 -5.0 -20.15 -5.6 -19.7 -6.35 -19.4 -6.75 -19.0 -7.15 -18.05 -7.75 -16.7 -8.1 -16.85 -8.35 -17.15 -8.45 M-17.0 -7.95 L-17.15 -7.95 -17.7 -7.65 -17.95 -7.45 -17.7 -7.7 Q-18.6 -7.55 -19.15 -6.8 L-20.05 -5.4 Q-20.35 -4.9 -20.15 -4.4 L-20.0 -4.55 -19.85 -5.25 -19.8 -4.9 -19.05 -6.05 -18.45 -6.65 -18.0 -6.9 -17.3 -7.35 -16.25 -7.5 -16.3 -7.7 Q-16.4 -7.9 -16.65 -7.9 L-17.0 -7.95 M-18.75 -6.75 L-18.65 -6.85 -18.75 -6.75 -19.25 -6.3 -18.75 -6.75 M-19.4 -5.3 L-19.4 -5.2 -19.35 -5.15 -19.35 -5.0 -19.3 -4.95 -18.65 -5.8 -17.8 -6.6 Q-17.15 -6.95 -17.3 -7.3 L-18.2 -6.75 -18.95 -5.95 -19.4 -5.3 M-16.05 -6.7 L-17.0 -6.75 Q-17.8 -6.75 -19.0 -5.0 -20.3 -3.25 -19.3 -1.45 L-19.5 -1.35 Q-20.8 -0.85 -21.55 -1.65 -22.35 -2.4 -22.15 -4.0 -22.0 -5.5 -21.0 -6.95 -19.95 -8.35 -18.75 -8.85 -17.5 -9.3 -16.7 -8.5 -16.1 -7.85 -16.05 -6.7" fill="#3f2a2a" fill-rule="evenodd" stroke="none"/>
    <path d="M-18.75 -6.75 L-18.5 -6.95 -18.65 -6.85 -18.75 -6.75 M-16.05 -6.7 L-16.1 -6.3 Q-16.25 -4.65 -17.25 -3.25 -18.15 -1.95 -19.3 -1.45 -20.3 -3.25 -19.0 -5.0 -17.8 -6.75 -17.0 -6.75 L-16.05 -6.7" fill="#250202" fill-rule="evenodd" stroke="none"/>
    <path d="M-4.75 -1.75 L-3.15 -0.7 -3.15 -0.6 Q-2.2 0.65 -2.0 2.3 -1.95 3.75 -3.15 4.8 -4.4 5.85 -5.8 5.7 L-4.8 5.05 Q-4.0 4.45 -3.7 2.35 -3.5 0.3 -4.55 -1.4 L-4.75 -1.75" fill="#644747" fill-rule="evenodd" stroke="none"/>
    <path d="M-19.7 0.75 L-20.3 0.6 -20.35 0.45 Q-18.0 0.5 -16.4 -1.3 -14.7 -3.15 -14.55 -5.65 -14.45 -7.05 -14.8 -8.4 L-14.65 -8.55 Q-14.2 -7.5 -14.1 -6.45 -14.0 -5.15 -14.4 -3.75 -15.1 -1.3 -17.25 0.1 -18.4 0.9 -19.6 0.75 L-19.7 0.75 M-1.85 1.6 L-1.85 1.5 -2.2 0.05 -1.75 1.7 -1.65 2.2 Q-1.5 3.2 -1.7 3.95 L-1.75 4.15 Q-2.25 5.55 -3.5 6.45 -4.4 7.15 -5.45 6.95 L-6.45 7.25 -6.1 7.1 Q-5.05 6.85 -3.85 6.0 -2.65 5.15 -2.15 3.4 -1.85 2.55 -1.85 1.6 M7.75 14.5 Q9.2 15.45 7.8 14.55 L7.6 14.45 7.15 14.3 7.15 14.15 6.9 14.05 6.7 13.9 6.25 13.65 6.15 13.6 4.3 12.5 -0.15 9.9 Q-2.25 8.65 -4.95 7.15 L-4.95 7.1 -4.9 7.05 -4.85 7.05 -4.75 7.0 -4.7 7.0 Q-2.2 8.0 0.1 9.35 L4.75 12.05 Q5.65 12.55 6.45 13.2 6.75 12.95 7.3 12.9 L7.75 12.65 8.1 12.2 8.2 12.1 Q8.35 12.55 7.9 13.05 L7.0 13.65 7.3 13.9 Q7.45 13.65 7.95 13.7 L8.25 13.65 Q9.3 13.2 9.9 12.35 L10.1 11.5 10.2 11.4 Q10.65 12.3 9.9 13.1 L8.45 14.2 7.75 14.45 7.75 14.5 M-9.45 4.85 L-9.55 4.75 -12.6 2.85 -13.75 2.1 -13.65 2.15 Q-10.85 3.3 -9.45 4.1 -8.25 4.05 -7.45 3.05 L-6.9 2.55 Q-6.75 3.3 -7.6 3.9 L-8.75 4.5 -8.7 4.5 -7.7 4.3 -7.2 4.15 Q-5.5 3.2 -5.15 1.6 L-5.05 1.1 -5.25 1.05 -5.15 0.8 -5.05 0.7 -5.05 0.5 -5.1 -0.1 -5.05 -0.1 -4.9 0.5 -4.5 0.2 -4.25 0.15 -4.05 0.15 -3.95 0.2 -3.9 0.35 -4.4 0.7 -4.7 0.9 -4.8 1.0 Q-4.55 3.1 -6.5 4.55 L-6.45 4.9 -6.25 5.65 Q-6.1 5.95 -6.2 6.2 L-6.6 5.5 -6.7 4.65 -6.7 4.6 -6.8 4.7 -7.15 4.9 -7.2 5.4 -7.2 5.85 -7.45 5.3 -7.4 5.0 -7.85 5.05 -7.9 5.05 -8.0 5.05 -8.1 5.25 -8.15 5.5 -8.3 5.7 -8.45 5.9 -8.55 5.55 -8.5 5.25 -8.4 5.05 -9.45 4.85 M-12.55 -4.25 Q-12.25 -3.0 -12.95 -1.75 -13.55 -0.55 -14.65 0.25 -15.45 0.95 -16.35 0.75 L-16.35 0.7 -16.4 0.65 -16.4 0.55 -16.35 0.5 Q-14.55 -0.15 -13.65 -1.3 -12.8 -2.5 -12.7 -3.2 L-12.55 -4.25 M-15.0 -1.3 L-14.95 -1.3 Q-14.75 -1.2 -14.9 -0.95 L-15.2 -0.65 -15.5 -0.6 -15.55 -0.65 -15.55 -0.7 -15.55 -0.8 -15.55 -0.85 -15.25 -1.1 -15.0 -1.3 M-13.15 -0.15 L-12.65 -0.85 -12.35 -1.25 Q-12.2 -0.75 -12.65 -0.2 L-13.5 0.6 -14.35 0.7 -13.15 -0.15 M-11.75 0.55 L-12.75 1.55 -13.7 1.85 -13.75 1.8 -13.8 1.75 -13.9 1.7 Q-13.0 1.4 -12.4 0.7 L-11.75 -0.35 -11.55 -0.75 Q-11.3 -0.1 -11.75 0.55 M-10.45 0.05 Q-10.25 0.65 -10.6 1.4 -10.9 2.0 -11.7 2.25 L-12.6 2.1 Q-11.5 2.0 -10.85 1.1 L-10.6 0.2 -10.45 0.05 M-17.0 -7.95 L-16.65 -7.9 Q-16.4 -7.9 -16.3 -7.7 L-16.25 -7.5 -17.3 -7.35 -18.0 -6.9 -18.45 -6.65 -19.05 -6.05 -19.8 -4.9 -19.85 -5.25 -20.0 -4.55 -20.15 -4.4 Q-20.35 -4.9 -20.05 -5.4 L-19.15 -6.8 Q-18.6 -7.55 -17.7 -7.7 L-17.95 -7.45 -17.7 -7.65 -17.15 -7.95 -17.0 -7.95 M-17.15 -8.45 L-16.85 -8.35 -16.7 -8.1 -18.05 -7.75 -19.0 -7.15 -19.4 -6.75 -19.7 -6.35 -20.15 -5.6 -20.45 -5.0 -20.3 -5.8 -19.8 -6.55 -19.95 -6.5 -20.0 -6.55 -20.35 -5.95 -20.65 -5.25 -20.6 -6.05 -20.0 -7.0 -19.15 -7.7 -18.95 -7.85 -17.8 -8.35 -17.45 -8.5 -17.15 -8.45 M-18.1 -9.0 L-17.95 -9.0 -17.75 -8.95 Q-17.6 -8.95 -17.6 -8.85 L-17.6 -8.8 -19.0 -8.05 -20.2 -6.9 -21.05 -5.85 -20.8 -6.7 -20.0 -7.75 Q-19.25 -8.55 -18.15 -9.0 L-18.1 -9.0 M-18.65 -6.85 L-18.5 -6.95 -18.75 -6.75 -19.25 -6.3 -18.75 -6.75 -18.65 -6.85 M-19.4 -5.3 L-18.95 -5.95 -18.2 -6.75 -17.3 -7.3 Q-17.15 -6.95 -17.8 -6.6 L-18.65 -5.8 -19.3 -4.95 -19.35 -5.0 -19.35 -5.15 -19.4 -5.2 -19.4 -5.3 M-7.65 1.85 Q-7.5 2.45 -8.05 3.0 L-9.1 3.7 Q-9.9 3.9 -10.15 3.45 -9.3 3.3 -8.4 2.85 L-7.95 2.6 -7.85 2.3 -7.75 2.0 -7.65 1.85 M-9.15 1.25 L-9.1 1.25 -9.05 1.3 -9.0 1.35 -9.45 2.5 Q-9.95 3.25 -10.9 3.0 L-11.4 2.6 -10.2 2.4 -9.9 2.3 -9.4 1.4 -9.15 1.25 M-8.9 2.05 L-8.9 2.0 -8.85 2.0 -8.8 1.95 -8.75 1.95 -8.65 2.0 -8.6 2.0 -8.55 2.25 -8.65 2.45 -8.9 2.65 -8.95 2.65 -9.0 2.6 -9.05 2.55 -9.1 2.45 -9.05 2.35 -9.0 2.3 -8.95 2.1 -8.9 2.05 M-10.35 1.85 L-10.6 1.9 -10.65 1.65 -10.4 1.35 -10.1 1.1 -10.0 1.15 -9.9 1.25 -10.05 1.55 -10.35 1.85 M-11.55 1.4 L-11.45 1.25 -11.3 1.05 -11.05 0.95 Q-10.85 1.05 -11.0 1.2 L-11.3 1.4 -11.55 1.4 M-3.75 1.85 L-3.8 1.9 Q-4.1 2.15 -4.5 1.9 L-4.55 1.8 -4.55 1.75 -4.5 1.7 -4.5 1.65 -4.45 1.65 -4.35 1.65 -4.0 1.65 Q-3.85 1.65 -3.75 1.8 L-3.75 1.85 M-4.7 2.75 L-4.6 2.75 -4.3 2.85 -4.05 3.05 Q-3.95 3.1 -4.0 3.25 L-4.2 3.3 -4.55 3.15 -4.8 2.9 -4.8 2.85 -4.7 2.75 M-4.6 4.45 L-5.0 4.4 -5.3 4.15 -5.3 3.9 -5.2 3.9 -5.0 4.1 -4.75 4.2 -4.6 4.45 M-5.75 4.7 L-5.55 5.0 -5.4 5.25 Q-5.65 5.35 -5.8 5.05 L-5.9 4.7 -5.95 4.45 -5.75 4.7" fill="#311616" fill-rule="evenodd" stroke="none"/>
  </g>
</svg>
