<?xml version="1.0" encoding="UTF-8" standalone="no"?>
<svg xmlns:ffdec="https://www.free-decompiler.com/flash" xmlns:xlink="http://www.w3.org/1999/xlink" ffdec:objectType="shape" height="341.65px" width="235.6px" xmlns="http://www.w3.org/2000/svg">
  <g transform="matrix(1.0, 0.0, 0.0, 1.0, -5.95, 0.0)">
    <path d="M14.9 271.8 Q15.6 274.5 22.45 271.75 29.3 268.95 37.65 265.1 45.95 261.2 42.45 256.9 L46.55 257.9 Q49.5 258.6 50.8 260.1 51.3 260.05 51.05 260.45 51.7 261.25 51.8 262.3 L48.8 262.2 Q41.55 266.9 12.05 292.65 L11.45 282.3 Q11.15 279.6 12.1 275.2 12.8 271.85 15.15 268.3 14.35 270.0 14.9 271.8" fill="#bbbbbb" fill-rule="evenodd" stroke="none"/>
    <path d="M53.25 228.7 L53.8 228.6 53.3 228.4 53.7 217.9 53.2 218.45 Q49.95 217.4 53.2 213.95 57.2 207.95 61.3 202.55 L64.2 198.75 65.65 196.95 Q75.8 184.0 85.95 174.1 L92.95 167.6 Q103.95 158.0 114.95 152.0 123.15 147.5 131.4 144.95 152.65 138.35 174.0 145.0 187.95 149.3 201.85 159.25 L203.5 184.35 Q198.7 172.2 198.4 170.55 L117.7 280.2 37.8 280.2 28.6 254.25 Q33.35 245.6 41.1 233.75 L45.05 236.2 48.8 259.6 46.15 265.75 41.25 266.85 45.7 266.85 41.1 277.45 51.95 277.45 51.95 266.85 53.2 266.85 53.2 264.15 51.95 264.4 51.95 261.3 53.2 253.4 53.25 228.7" fill="#6d7f93" fill-rule="evenodd" stroke="none"/>
    <path d="M51.95 266.85 L51.95 277.45 41.1 277.45 45.7 266.85 51.95 266.85" fill="#43515f" fill-rule="evenodd" stroke="none"/>
    <path d="M41.1 233.75 Q41.7 232.85 42.75 232.1 L44.2 231.25 45.15 230.85 Q48.2 229.5 53.25 228.7 L53.2 253.4 51.95 261.3 51.95 264.4 46.15 265.75 48.8 259.6 45.05 236.2 41.1 233.75" fill="#445569" fill-rule="evenodd" stroke="none"/>
    <path d="M60.75 203.4 L61.3 202.55 64.2 198.75 64.35 199.3 60.75 203.4 M64.45 205.05 L65.0 204.45 65.6 204.8 65.35 204.95 65.1 204.8 64.45 205.05 M59.15 207.95 Q59.35 208.6 59.9 208.35 61.95 207.55 63.65 205.95 L63.45 206.3 63.35 206.95 Q61.8 208.55 60.45 210.5 59.15 212.6 61.25 213.4 62.95 214.05 63.75 212.45 L64.1 211.8 65.65 211.5 64.9 212.6 Q64.55 213.05 64.55 213.6 L62.45 215.7 Q60.45 217.85 61.9 220.0 62.4 220.75 63.1 220.25 L66.25 217.4 66.45 217.2 66.55 217.35 66.95 218.4 66.35 218.85 Q64.55 220.65 65.35 222.85 65.8 224.0 66.7 223.6 67.45 225.1 69.0 223.35 L68.35 224.4 Q67.95 225.05 68.3 225.7 68.6 226.3 69.2 226.35 L67.6 228.85 Q67.3 229.45 67.75 229.9 69.25 231.1 70.6 229.3 L69.45 231.25 Q68.75 232.4 68.35 233.6 67.8 235.25 69.5 235.4 L68.8 236.6 Q68.4 237.35 68.65 238.15 68.95 238.95 69.85 238.9 69.45 239.3 69.45 239.8 69.4 240.5 70.1 240.85 L71.1 240.9 Q70.35 242.3 70.05 243.8 69.6 246.0 71.75 245.0 L72.85 244.3 Q74.35 243.2 74.55 242.05 L77.15 253.05 64.2 280.2 44.2 280.2 44.2 277.45 51.95 277.45 51.95 266.85 53.2 266.85 53.2 264.15 51.95 264.4 51.95 261.3 53.2 253.4 53.25 228.7 53.8 228.6 53.3 228.4 53.7 217.9 53.2 218.45 Q49.95 217.4 53.2 213.95 56.2 209.45 59.3 205.3 58.7 206.6 59.15 207.95 M74.15 240.25 L74.15 240.35 74.1 240.25 74.15 240.25 M44.2 235.7 L45.05 236.2 48.8 259.6 46.15 265.75 44.2 266.2 44.2 235.7 M44.2 270.3 L44.2 266.85 45.7 266.85 44.2 270.3" fill="#596879" fill-rule="evenodd" stroke="none"/>
    <path d="M79.65 218.05 L77.65 217.15 77.75 216.1 82.75 210.7 Q83.9 209.5 85.2 209.8 L86.85 210.35" fill="none" stroke="#495370" stroke-linecap="round" stroke-linejoin="round" stroke-width="1.0"/>
    <path d="M89.6 170.7 L89.45 170.8 92.95 167.6 Q103.95 158.0 114.95 152.0 123.15 147.5 131.4 144.95 L133.25 144.95 Q132.25 145.4 132.0 146.65 131.95 147.0 132.3 147.05 L142.05 147.6 142.05 148.8 140.9 148.9 138.55 149.15 135.6 149.25 Q132.7 149.15 132.35 151.45 132.25 152.15 132.85 152.15 L139.25 151.95 Q138.55 152.45 138.4 153.5 138.3 154.15 138.85 154.2 137.2 154.5 137.05 155.95 136.4 156.3 136.45 157.1 136.6 159.65 139.05 158.55 141.05 157.65 143.9 158.1 L143.9 160.9 135.6 161.35 Q134.1 161.3 133.9 162.8 133.8 163.45 134.3 163.55 L139.55 164.15 Q137.95 164.5 136.4 165.4 134.2 166.85 135.8 168.6 136.35 169.2 136.85 168.6 138.1 167.4 139.85 167.15 141.45 166.95 142.75 167.6 L143.9 168.0 143.9 169.15 140.3 169.4 138.15 169.5 Q136.4 169.55 135.75 170.9 135.3 171.8 136.15 172.15 135.9 172.45 135.8 172.85 135.4 174.15 136.75 174.2 L138.05 174.25 137.8 174.25 Q137.45 174.25 137.05 174.5 136.3 175.05 136.7 175.8 137.8 177.65 140.5 177.45 142.15 177.4 143.45 178.2 L143.9 178.45 143.9 179.3 Q141.5 177.75 138.1 178.2 L137.45 178.55 Q135.95 180.55 138.45 181.05 L137.8 181.1 137.05 181.4 Q136.4 181.85 136.65 182.6 137.45 184.5 140.0 184.2 140.75 184.1 141.3 184.45 L143.9 184.5 143.9 185.4 142.8 185.25 Q142.3 185.25 141.85 185.8 L141.7 186.0 141.3 185.85 141.0 185.9 Q139.7 185.25 138.1 185.0 137.55 185.0 137.15 185.45 136.35 186.5 137.35 187.15 L140.35 189.0 142.35 189.35 143.9 190.15 143.9 192.7 Q142.25 189.4 138.25 189.7 L137.95 189.9 Q136.0 191.55 137.8 192.2 136.85 193.5 139.7 194.6 142.2 195.65 143.9 194.25 L143.9 241.8 103.5 241.8 102.35 237.95 Q99.6 230.05 97.45 222.0 100.75 220.4 98.15 218.6 L96.7 219.2 96.5 218.45 97.2 218.15 Q100.95 216.55 98.25 214.55 97.0 215.05 95.8 215.7 L95.4 214.25 97.0 213.25 Q99.95 211.5 98.75 209.85 99.25 208.7 97.75 207.7 L97.55 207.8 Q98.9 206.35 96.95 205.15 L96.6 205.35 Q97.05 204.3 95.6 203.25 L94.7 203.75 94.05 202.95 Q95.15 202.35 95.35 201.75 96.8 200.25 94.85 199.05 L92.5 200.2 92.4 199.8 92.45 199.7 Q95.15 198.2 93.75 196.8 94.25 196.2 94.15 195.75 95.35 194.4 93.4 193.2 L92.55 193.5 Q94.7 191.8 92.4 190.35 L91.8 190.65 91.65 190.4 Q94.05 188.45 91.65 186.95 L91.5 187.05 91.1 186.15 Q92.45 184.75 90.45 183.5 L89.8 183.7 89.75 183.35 Q91.15 182.15 90.6 181.15 L90.45 180.85 Q93.65 179.2 91.0 177.55 L90.55 177.75 Q93.4 176.15 90.9 174.6 89.7 175.1 88.55 175.7 L88.45 175.1 92.0 172.7 Q95.2 170.55 92.65 168.85 91.1 169.6 89.7 170.7 L89.6 170.7 M143.9 164.3 L142.8 164.05 143.9 163.85 143.9 164.3 M143.9 175.35 L142.65 174.9 143.05 175.0 143.9 175.15 143.9 175.35 M143.9 183.2 L142.5 181.9 143.9 181.9 143.9 183.2" fill="#546474" fill-rule="evenodd" stroke="none"/>
    <path d="M80.55 216.7 L80.7 216.8 80.65 216.8 80.55 216.7" fill="#999c9f" fill-rule="evenodd" stroke="none"/>
    <path d="M53.8 237.3 L53.75 237.15 53.85 237.1 53.8 237.3" fill="#818385" fill-rule="evenodd" stroke="none"/>
    <path d="M53.2 231.6 L53.25 231.25 Q53.55 224.5 58.55 219.65 60.9 217.4 63.7 216.1 77.7 212.8 71.1 223.65 64.45 234.5 55.2 233.75 54.3 233.6 53.7 232.65 L53.2 231.6" fill="#d9d9d9" fill-rule="evenodd" stroke="none"/>
    <path d="M63.7 216.1 Q65.35 215.3 67.25 214.95 L71.55 214.45 75.95 214.95 76.45 215.1 Q77.9 215.9 76.85 222.35 75.65 229.75 67.9 234.6 60.15 239.5 56.75 238.8 54.6 238.35 54.05 237.8 L53.8 237.3 53.85 237.1 53.35 234.5 53.2 232.6 53.2 232.25 53.2 231.6 53.7 232.65 Q54.3 233.6 55.2 233.75 64.45 234.5 71.1 223.65 77.7 212.8 63.7 216.1" fill="#bdbdbd" fill-rule="evenodd" stroke="none"/>
    <path d="M76.45 215.1 Q78.6 215.65 80.55 216.7 L80.65 216.8 80.7 216.8 82.9 218.3 83.65 218.85 84.15 219.3 84.5 219.65 84.6 219.8 84.85 220.0 Q89.9 225.1 89.9 232.25 89.9 239.55 84.5 244.8 79.15 250.0 71.55 250.0 65.75 250.0 67.3 258.75 62.95 251.45 61.95 250.65 60.95 249.85 60.25 248.55 L54.45 239.8 55.7 241.25 54.55 239.15 54.15 238.0 54.05 237.8 Q54.6 238.35 56.75 238.8 60.15 239.5 67.9 234.6 75.65 229.75 76.85 222.35 77.9 215.9 76.45 215.1" fill="#9f9f9f" fill-rule="evenodd" stroke="none"/>
    <path d="M155.45 159.8 L155.5 159.25 Q155.75 156.8 157.35 155.1 158.85 153.4 160.9 153.1 L161.8 153.05 162.55 153.1 Q164.7 153.35 166.3 155.15 167.8 156.95 168.1 159.35 167.75 157.15 166.35 155.6 164.75 153.75 162.65 153.55 L161.85 153.45 161.0 153.55 Q158.9 153.8 157.4 155.55 155.8 157.25 155.55 159.65 L155.5 160.4 155.45 159.8 M153.15 162.1 Q153.65 164.95 155.5 167.05 157.8 169.65 160.9 170.0 L161.8 170.0 162.55 170.0 Q165.75 169.7 168.05 167.15 170.35 164.6 170.65 161.0 L170.65 160.55 170.65 160.15 170.65 159.7 170.65 159.35 170.65 159.25 170.7 159.75 170.7 160.6 170.7 161.4 Q170.4 165.0 168.1 167.6 165.8 170.1 162.65 170.4 L161.85 170.4 161.0 170.4 Q157.85 170.05 155.55 167.45 153.55 165.15 153.15 162.1" fill="#415162" fill-rule="evenodd" stroke="none"/>
    <path d="M162.55 152.65 Q164.7 152.9 166.3 154.7 167.8 156.45 168.1 158.9 L168.1 159.35 Q167.8 156.95 166.3 155.15 164.7 153.35 162.55 153.1 L161.8 153.05 160.9 153.1 Q158.85 153.4 157.35 155.1 155.75 156.8 155.5 159.25 L155.45 159.8 155.45 159.6 155.5 158.75 Q155.75 156.35 157.35 154.65 158.85 152.95 160.9 152.65 L161.8 152.6 162.55 152.65 M153.0 159.8 L153.05 160.4 Q153.2 164.0 155.5 166.6 157.8 169.15 160.9 169.55 L161.8 169.55 162.55 169.55 Q165.75 169.25 168.05 166.7 170.35 164.1 170.65 160.55 L170.65 161.0 Q170.35 164.6 168.05 167.15 165.75 169.7 162.55 170.0 L161.8 170.0 160.9 170.0 Q157.8 169.65 155.5 167.05 153.65 164.95 153.15 162.1 L153.05 160.9 153.0 160.05 153.0 159.8" fill="#7e0505" fill-rule="evenodd" stroke="none"/>
    <path d="M162.55 149.8 L162.8 150.35 Q163.15 151.55 162.55 152.65 L161.8 152.6 160.9 152.65 Q161.4 151.45 161.1 150.3 L160.9 149.8 161.8 149.75 162.55 149.8 M168.1 158.9 Q169.45 158.55 170.55 158.9 L170.65 158.9 170.65 159.25 170.65 159.35 170.65 159.7 170.65 160.15 170.65 160.55 Q169.4 160.0 168.1 160.55 L168.1 160.15 168.1 159.7 168.1 159.35 168.1 158.9 M160.9 166.65 L161.8 166.7 162.55 166.65 162.55 169.55 161.8 169.55 160.9 169.55 160.9 166.65 M155.45 159.8 L155.5 160.4 153.05 160.4 153.0 159.8 153.0 159.6 153.05 158.75 155.5 158.75 155.45 159.6 155.45 159.8" fill="#f7d5d5" fill-rule="evenodd" stroke="none"/>
    <path d="M162.55 152.65 Q163.15 151.55 162.8 150.35 L162.55 149.8 Q165.75 150.05 168.05 152.7 170.35 155.3 170.65 158.9 L170.55 158.9 Q169.45 158.55 168.1 158.9 167.8 156.45 166.3 154.7 164.7 152.9 162.55 152.65 M160.9 149.8 L161.1 150.3 Q161.4 151.45 160.9 152.65 158.85 152.95 157.35 154.65 155.75 156.35 155.5 158.75 L153.05 158.75 Q153.2 155.15 155.5 152.6 157.8 150.1 160.9 149.8 M155.5 160.4 L155.5 160.45 Q155.75 162.8 157.35 164.65 158.85 166.35 160.9 166.65 L160.9 169.55 Q157.8 169.15 155.5 166.6 153.2 164.0 153.05 160.4 L155.5 160.4 M162.55 166.65 Q164.7 166.4 166.3 164.7 167.8 162.95 168.1 160.55 169.4 160.0 170.65 160.55 170.35 164.1 168.05 166.7 165.75 169.25 162.55 169.55 L162.55 166.65" fill="#a81a1a" fill-rule="evenodd" stroke="none"/>
    <path d="M126.25 154.25 L134.05 150.35 143.25 156.4 143.9 174.7 140.6 183.1 132.7 189.4 124.25 191.3 117.65 188.4 117.65 161.4 126.25 154.25" fill="#546272" fill-rule="evenodd" stroke="none"/>
    <path d="M133.75 150.6 L142.1 157.05 143.1 174.4 139.4 183.8 131.55 190.05 123.05 191.95 116.5 189.05 116.5 162.05 124.8 153.85 Q129.25 152.15 133.75 150.6" fill="#94a1af" fill-rule="evenodd" stroke="none"/>
    <path d="M149.7 165.25 L149.45 165.4 Q170.5 163.35 183.25 170.7 186.6 170.1 187.2 176.15 L185.25 176.05 Q158.1 189.6 113.7 204.7 106.4 212.9 105.45 212.45 104.6 211.95 106.7 202.45 108.7 192.85 118.2 182.05 127.6 171.25 139.05 167.7 145.55 165.6 149.7 165.25" fill="#e2e2e2" fill-rule="evenodd" stroke="none"/>
    <path d="M202.05 167.4 L212.7 145.7" fill="none" stroke="#495370" stroke-linecap="round" stroke-linejoin="round" stroke-width="1.0"/>
    <path d="M183.6 151.4 L183.95 148.75 Q192.9 152.8 201.85 159.25 L203.5 184.35 Q198.7 172.2 198.4 170.55 L177.55 198.9 178.9 188.8 179.4 184.9 180.1 184.1 Q181.6 181.85 179.95 180.9 L180.0 180.5 180.75 179.7 Q182.75 177.15 180.6 175.95 L180.65 175.5 Q181.25 175.35 181.95 174.5 183.55 172.65 182.65 171.55 183.9 169.15 181.8 168.4 L182.75 167.45 Q185.0 164.6 182.15 163.4 L182.25 162.65 Q182.9 162.45 183.45 161.55 185.15 158.75 182.8 157.9 L183.15 155.45 183.8 154.65 Q185.1 152.3 183.6 151.4" fill="#556679" fill-rule="evenodd" stroke="none"/>
    <path d="M240.35 250.9 Q241.4 249.2 241.55 250.05 L240.35 250.9 M157.7 311.25 Q161.15 221.85 202.4 165.85 223.85 199.9 230.35 254.05 205.8 286.2 201.25 329.2 180.15 321.75 154.15 341.55 L157.7 311.25" fill="#404c4f" fill-rule="evenodd" stroke="none"/>
    <path d="M42.4 269.15 L52.5 266.85 53.2 266.85 53.2 266.7 54.3 266.45 54.3 269.15 42.4 269.15 M50.85 218.35 L50.75 218.05 Q52.15 217.8 50.85 218.35 M97.1 164.15 Q106.0 156.9 114.95 152.0 123.15 147.5 131.4 144.95 152.65 138.35 174.0 145.0 179.9 146.8 185.85 149.65 L180.65 147.95 Q157.6 140.85 140.2 145.15 122.7 149.45 110.25 156.2 103.85 159.6 97.1 164.15" fill="#b0b8c2" fill-rule="evenodd" stroke="none"/>
    <path d="M185.7 172.5 Q186.85 174.15 187.15 176.2 L181.15 175.95 Q166.3 185.75 104.95 218.55 L105.35 216.85 Q104.75 211.35 106.65 202.45 108.1 195.7 112.9 188.45 111.2 191.8 112.3 195.55 113.75 201.1 127.65 195.45 141.5 189.75 158.45 181.95 175.1 174.2 168.45 165.7 175.55 166.8 176.4 167.4 182.45 168.85 185.15 171.85 186.25 171.75 185.7 172.5" fill="#bbbbbb" fill-rule="evenodd" stroke="none"/>
    <path d="M194.0 169.65 L202.3 166.05 Q169.35 228.7 156.7 341.15 99.4 324.4 16.3 320.75 20.75 310.75 5.95 292.3 89.7 214.95 194.0 169.65" fill="url(#gradient0)" fill-rule="evenodd" stroke="none"/>
    <path d="M22.9 289.4 Q20.85 286.4 22.5 281.35 24.1 276.25 36.85 267.3 49.6 258.35 52.9 255.65 56.5 252.7 60.6 250.85 53.9 261.25 52.35 262.9 57.8 260.4 62.55 262.2 63.25 262.45 62.55 263.1 60.1 265.45 57.1 267.3 61.8 267.7 58.7 271.2 L55.2 274.6 Q53.85 275.65 53.35 277.05 56.65 276.8 56.25 279.7 55.95 281.55 54.45 282.8 L53.55 283.7 53.55 283.9 53.55 284.05 53.6 284.3 53.6 284.65 53.65 285.0 53.65 285.2 Q58.6 284.05 62.3 287.35 63.8 288.7 62.1 289.8 L57.8 292.55 Q63.7 294.3 69.25 297.2 72.2 298.7 69.1 300.05 L66.55 300.35 64.8 300.2 Q69.6 300.75 72.5 303.9 73.25 304.7 72.15 305.35 L70.25 306.2 Q71.55 306.9 73.55 308.7 74.7 309.7 77.1 310.0 79.45 310.25 91.15 313.05 102.85 315.8 83.85 315.0 64.85 314.2 59.2 315.0 53.3 315.95 47.45 314.75 41.95 313.65 36.8 311.6 34.35 310.65 32.75 308.55 28.35 302.95 26.15 296.2 24.9 292.4 22.9 289.4" fill="#6d665f" fill-opacity="0.23921569" fill-rule="evenodd" stroke="none"/>
    <path d="M74.85 315.6 Q79.5 317.0 75.0 315.9 L73.7 315.6 74.85 315.6" fill="#696969" fill-opacity="0.6392157" fill-rule="evenodd" stroke="none"/>
    <path d="M37.85 267.95 Q36.35 269.25 37.2 270.45 L35.15 273.25 34.95 273.2 Q34.65 273.25 34.4 273.45 33.15 274.4 33.45 275.5 L30.55 279.05 30.45 279.0 30.25 279.05 Q28.55 279.9 28.9 280.95 23.8 286.8 27.95 290.65 L29.35 292.0 Q28.45 292.45 28.35 293.45 27.9 296.85 31.2 295.0 L31.25 295.0 31.65 295.95 38.15 292.35 Q30.45 296.8 30.4 297.5 30.3 299.65 31.3 299.9 L41.15 296.45 Q30.2 302.15 31.9 302.3 L32.85 302.3 Q33.4 304.1 34.8 306.2 L34.15 306.85 Q32.35 309.4 35.05 309.35 L35.25 309.9 Q35.75 310.75 36.5 310.95 35.35 314.4 39.35 313.15 39.35 315.05 41.7 314.15 L42.8 315.2 69.4 315.6 Q69.05 315.9 69.1 316.5 69.15 317.15 68.6 317.6 47.3 318.4 26.5 318.25 24.2 324.75 19.85 318.5 18.75 317.0 18.0 315.35 18.7 315.35 19.35 314.4 21.0 312.0 17.85 311.75 L17.25 312.0 16.85 312.3 16.2 309.55 17.0 308.95 Q19.25 306.7 15.95 306.0 L15.5 306.1 15.35 305.65 Q17.6 303.6 14.95 302.5 16.2 300.7 13.35 300.1 L12.85 300.25 12.6 300.35 11.4 298.1 Q13.45 295.85 10.4 294.55 L9.85 294.8 9.75 294.7 Q13.0 291.9 9.7 290.05 8.9 290.3 8.25 290.75 L8.2 290.65 23.55 277.25 Q30.85 271.15 38.8 265.9 L38.5 267.65 38.45 267.65 37.85 267.95" fill="#696969" fill-opacity="0.98039216" fill-rule="evenodd" stroke="none"/>
    <path d="M168.1 88.55 L176.25 93.1 Q153.55 85.4 82.45 63.45 99.1 66.35 121.45 71.5 149.0 77.85 168.1 88.55" fill="#69798a" fill-rule="evenodd" stroke="none"/>
    <path d="M99.05 42.25 L99.15 42.2 99.3 42.2 99.3 42.15 121.85 50.55 132.5 54.55 Q138.15 56.65 143.9 58.55 153.9 61.85 163.05 66.3 L162.85 66.45 Q160.8 66.95 158.6 65.9 157.3 65.25 155.9 64.75 L133.3 56.75 Q127.4 54.7 121.6 52.3 L116.3 50.25 Q107.35 47.2 98.75 43.25 L98.7 43.15 98.7 42.95 98.7 42.8 98.7 42.7 98.75 42.6 98.75 42.5 98.8 42.4 98.9 42.3 99.05 42.25" fill="#69798a" fill-rule="evenodd" stroke="none"/>
    <path d="M100.9 36.65 L101.0 36.6 101.15 36.6 101.15 36.55 123.7 44.95 134.35 48.95 145.75 53.0 Q154.95 56.05 163.45 60.05 L163.2 61.1 Q161.85 61.05 160.45 60.35 159.15 59.7 152.8 57.4 L138.0 52.15 125.2 47.35 118.2 44.7 Q109.2 41.6 100.6 37.7 L100.55 37.55 100.55 37.35 100.55 37.25 100.55 37.15 100.6 37.05 100.6 36.95 100.7 36.85 100.8 36.7 100.9 36.65" fill="#69798a" fill-rule="evenodd" stroke="none"/>
    <path d="M100.95 30.25 L101.05 30.2 101.2 30.2 101.2 30.15 123.75 38.55 134.4 42.55 145.8 46.55 Q155.8 49.85 164.95 54.3 L164.75 54.45 Q162.7 54.95 160.5 53.9 L152.85 51.0 138.05 45.7 Q129.6 42.7 125.25 40.95 120.8 39.15 118.2 38.25 109.25 35.2 100.65 31.25 L100.6 31.15 100.6 30.95 100.6 30.8 100.6 30.7 100.65 30.6 100.65 30.5 100.7 30.4 100.8 30.3 100.95 30.25" fill="#69798a" fill-rule="evenodd" stroke="none"/>
    <path d="M123.7 32.05 L134.35 36.05 145.75 40.05 Q155.75 43.35 164.9 47.8 L164.75 47.95 Q162.65 48.5 160.45 47.4 159.15 46.8 152.8 44.5 L138.0 39.2 125.2 34.45 118.2 31.8 Q110.1 29.0 102.4 25.55 L103.1 24.4 123.7 32.05" fill="#69798a" fill-rule="evenodd" stroke="none"/>
    <path d="M159.05 37.85 Q160.1 42.15 159.55 46.9 159.1 51.45 159.0 56.05 158.8 62.8 156.65 68.85 L156.3 68.9 Q155.45 68.05 155.95 66.6 156.5 65.0 156.65 63.25 157.5 54.15 157.95 44.95 158.2 41.15 159.05 37.85" fill="#69798a" fill-rule="evenodd" stroke="none"/>
    <path d="M154.65 41.15 Q154.4 43.4 154.4 45.75 154.35 54.9 153.25 63.9 153.05 65.8 152.25 67.45 L151.55 67.4 Q151.25 66.65 151.4 65.8 152.55 56.75 152.85 47.7 L152.85 39.7 Q152.8 38.05 153.7 37.2 154.95 38.7 154.65 41.15" fill="#69798a" fill-rule="evenodd" stroke="none"/>
    <path d="M149.1 34.85 Q150.2 36.7 149.8 39.4 149.4 41.6 149.4 43.95 149.35 53.25 148.1 62.2 147.75 64.1 147.05 65.8 146.85 66.5 146.5 65.85 145.85 65.0 146.05 63.75 147.55 54.85 147.65 45.7 147.75 40.1 149.0 34.95 L149.1 34.85" fill="#69798a" fill-rule="evenodd" stroke="none"/>
    <path d="M144.4 32.6 L144.6 32.65 144.75 32.7 Q145.05 41.65 144.1 50.65 143.3 57.8 141.75 64.65 L141.5 64.7 Q140.75 63.8 141.0 62.45 L141.75 58.0 Q143.0 49.1 143.3 39.9 143.4 36.3 144.05 32.8 L144.15 32.7 144.25 32.6 144.4 32.6" fill="#69798a" fill-rule="evenodd" stroke="none"/>
    <path d="M124.1 26.75 L124.9 26.25 125.15 26.4 Q125.3 34.6 124.45 42.9 123.65 50.15 122.1 57.05 122.05 57.35 121.85 57.1 121.1 56.2 121.35 54.85 L122.1 50.3 Q123.4 41.3 123.65 31.95 123.7 29.35 124.1 26.75 M129.1 28.2 Q129.55 28.0 130.0 28.5 L130.15 28.65 Q130.35 29.9 130.15 31.4 129.8 33.7 129.8 36.05 129.7 45.5 128.45 54.55 128.15 56.5 127.45 58.25 127.2 58.95 126.85 58.3 126.2 57.4 126.4 56.15 127.9 47.15 128.0 37.85 128.15 32.85 129.1 28.2 M139.25 30.7 L139.65 30.9 Q140.4 34.8 139.95 39.05 139.45 43.65 139.35 48.3 139.2 55.2 137.0 61.3 136.9 61.6 136.7 61.4 135.85 60.55 136.3 59.05 136.85 57.4 137.0 55.65 L138.35 37.1 Q138.55 33.7 139.25 30.7 M135.05 33.2 Q134.8 35.5 134.8 37.9 134.7 47.2 133.6 56.35 133.4 58.25 132.6 59.9 132.2 60.7 131.9 59.85 131.65 59.1 131.75 58.25 132.9 49.05 133.25 39.85 L133.25 31.7 Q133.2 30.0 134.1 29.15 135.3 30.7 135.05 33.2" fill="#69798a" fill-rule="evenodd" stroke="none"/>
    <path d="M120.0 24.0 L120.4 24.2 Q121.15 28.1 120.7 32.35 120.2 36.95 120.1 41.6 119.95 48.5 117.75 54.6 117.65 54.9 117.45 54.7 116.6 53.85 117.05 52.35 117.6 50.7 117.75 48.95 118.6 39.7 119.1 30.4 119.3 27.0 120.0 24.0 M114.85 22.45 Q116.2 19.95 115.9 24.0 115.55 28.05 115.5 34.3 115.45 40.5 114.35 49.65 114.15 51.55 113.35 53.2 L113.1 53.6 Q112.9 53.7 112.75 53.45 L112.65 53.15 Q112.4 52.4 112.5 51.55 113.65 42.35 113.9 35.55 L114.55 23.85 Q114.9 18.95 114.85 22.45 M109.85 21.5 Q110.3 21.3 110.75 21.75 L110.9 21.95 Q111.1 23.2 110.9 24.7 110.5 27.0 110.5 29.35 110.45 38.8 109.2 47.85 L108.3 51.4 107.2 50.85 Q107.05 50.25 107.15 49.45 108.65 40.45 108.75 31.15 108.85 26.15 109.85 21.5 M104.55 22.55 Q105.2 22.55 106.1 20.75 105.9 29.35 105.2 36.2 104.5 42.5 103.25 48.7 L102.15 48.0 102.85 43.6 Q104.15 34.6 104.4 25.25 L104.55 22.55" fill="#69798a" fill-rule="evenodd" stroke="none"/>
    <path d="M107.9 21.7 L107.35 21.65 107.05 21.6 Q105.55 21.45 104.35 24.1 103.05 26.75 101.8 34.5 100.45 42.2 100.75 43.7 101.0 45.2 101.6 46.05 L102.75 47.25 103.4 47.8 Q118.7 54.8 134.95 59.55 137.05 60.25 139.2 61.3 146.1 64.9 155.65 67.25 157.45 68.85 159.4 67.75 L160.0 67.15 Q162.4 61.6 162.65 55.5 162.8 51.5 163.5 47.4 164.15 43.25 161.55 41.95 L160.0 41.25 159.9 41.15 Q159.05 40.7 157.8 40.2 152.1 37.45 144.3 34.05 136.5 30.6 125.1 26.75 L119.65 24.55 Q115.0 22.35 109.95 21.95 L107.9 21.7 M102.05 24.15 Q104.5 18.25 109.9 19.85 121.6 21.1 133.95 26.5 146.25 31.9 155.65 35.45 164.95 38.9 165.35 43.05 165.85 47.15 164.85 55.0 163.75 62.9 162.7 67.15 161.65 71.45 156.3 70.25 151.0 68.9 140.35 65.3 L121.7 58.7 107.25 53.3 Q100.75 50.85 100.35 50.0 L99.15 49.25 Q97.95 48.5 98.75 39.3 99.55 30.05 102.05 24.15" fill="#516274" fill-rule="evenodd" stroke="none"/>
    <path d="M120.1 24.05 Q121.9 24.85 123.8 25.15 L124.3 25.25 128.5 27.0 134.95 29.3 141.2 31.4 Q149.4 34.4 157.2 38.3 158.1 38.8 159.1 39.1 161.5 39.85 163.15 41.35 L163.4 41.95 Q164.55 44.8 164.6 48.0 164.3 50.1 164.15 52.15 163.05 56.35 162.55 60.7 162.3 63.25 160.85 65.1 162.45 60.45 162.65 55.5 162.8 51.5 163.5 47.4 164.15 43.25 161.55 41.95 L160.0 41.25 159.9 41.15 Q159.05 40.7 157.8 40.2 152.1 37.45 144.3 34.05 136.5 30.6 125.1 26.75 L119.65 24.55 Q115.0 22.35 109.95 21.95 L107.9 21.7 107.35 21.65 107.05 21.6 106.25 21.75 106.6 21.3 108.2 21.2 108.8 21.05 108.85 21.05 109.1 21.05 Q114.7 21.7 120.1 24.05 M104.5 20.65 L104.55 20.7 Q103.9 21.55 103.45 22.8 100.95 28.7 100.15 37.9 99.35 47.1 100.5 47.85 L101.75 48.65 Q102.1 49.5 108.65 51.95 L123.05 57.3 141.75 63.9 Q152.4 67.55 157.7 68.85 L162.2 68.65 Q160.65 71.25 156.3 70.25 151.0 68.9 140.35 65.3 L121.7 58.7 107.25 53.3 Q100.75 50.85 100.35 50.0 L99.15 49.25 Q97.95 48.5 98.75 39.3 99.55 30.05 102.05 24.15 103.0 21.75 104.5 20.65" fill="#324354" fill-rule="evenodd" stroke="none"/>
    <path d="M154.3 213.2 Q154.3 218.75 150.7 222.7 147.1 226.6 142.0 226.6 136.9 226.6 133.3 222.7 129.7 218.75 129.7 213.2 129.7 207.7 133.3 203.75 136.9 199.8 142.0 199.8 147.1 199.8 150.7 203.75 154.3 207.7 154.3 213.2" fill="#4e5b64" fill-rule="evenodd" stroke="none"/>
    <path d="M172.85 188.85 Q176.8 186.05 180.05 182.95 180.9 182.2 199.05 168.6 189.55 189.6 183.9 201.1 178.05 213.05 174.85 226.25 168.55 251.95 164.9 277.8 162.85 292.25 161.05 308.25 159.25 324.25 155.45 317.6 151.6 310.9 150.0 300.4 142.85 303.55 138.85 297.75 136.05 293.8 135.0 288.95 L134.05 286.1 Q129.6 290.7 125.05 286.4 122.3 283.8 121.8 279.95 L121.55 279.1 Q114.5 283.55 109.25 277.4 106.7 274.35 107.1 270.05 93.9 264.75 101.8 249.75 104.9 243.7 109.15 238.65 112.8 234.35 115.9 229.2 119.55 223.1 125.65 226.7 128.55 223.0 130.05 218.75 133.2 210.2 140.15 213.75 141.6 214.55 141.35 216.4 143.0 214.65 144.7 211.2 146.9 206.65 150.95 203.45 153.25 201.65 155.9 203.2 157.3 200.75 159.0 198.45 161.9 194.6 166.55 193.3 L169.15 192.75 Q170.6 190.5 172.85 188.85" fill="#9a9a9a" fill-rule="evenodd" stroke="none"/>
    <path d="M159.35 317.5 Q182.65 311.7 202.6 317.0 L201.35 328.95 Q176.5 328.8 155.75 341.65 L159.35 317.5" fill="#540a0a" fill-rule="evenodd" stroke="none"/>
    <path d="M46.25 322.45 Q41.75 319.4 43.8 315.2 76.75 313.9 105.9 314.35 L121.1 314.75 159.75 317.1 Q159.8 318.4 158.75 325.25 L159.5 321.05 159.4 321.65 Q157.6 333.3 156.7 341.15 L156.05 341.0 Q139.5 336.25 121.1 332.5 L105.9 329.7 Q78.0 324.9 46.25 322.45" fill="#933030" fill-rule="evenodd" stroke="none"/>
    <path d="M43.8 315.2 Q41.75 319.4 46.25 322.45 L18.05 320.85 17.95 317.25 17.9 316.5 43.8 315.2" fill="#801e1e" fill-rule="evenodd" stroke="none"/>
    <path d="M122.55 329.35 L122.65 329.4 122.5 329.45 122.55 329.35 M125.35 316.7 L125.75 316.45 125.95 316.15 126.05 315.95 128.2 315.9 Q128.65 315.9 128.85 315.45 L128.95 315.05 159.75 317.1 Q159.8 318.4 158.75 325.25 L159.5 321.05 159.4 321.65 Q157.6 333.3 156.7 341.15 L156.05 341.0 Q139.5 336.25 121.1 332.5 L122.8 332.15 123.1 331.85 124.15 332.2 Q125.5 332.6 125.25 331.35 125.15 330.7 124.65 330.2 L124.35 330.0 125.0 330.2 127.45 330.05 Q127.8 329.85 127.55 329.45 126.35 328.0 124.4 327.3 L125.15 327.5 127.45 327.4 127.6 327.15 127.45 326.75 Q125.85 325.75 124.05 325.0 125.65 325.35 125.75 324.05 L125.7 323.95 125.1 323.4 125.0 323.05 Q124.45 322.3 123.6 321.9 L123.9 321.9 124.25 321.8 Q124.75 321.65 124.75 321.1 124.7 320.3 124.15 319.95 L124.25 319.95 124.75 319.8 124.95 319.45 125.05 319.05 124.8 318.45 125.35 318.25 125.85 317.95 125.9 317.45 Q125.8 316.9 125.35 316.7" fill="#b13030" fill-rule="evenodd" stroke="none"/>
    <path d="M151.75 27.95 Q150.7 29.3 148.75 28.45 135.25 22.2 120.95 19.6 119.8 19.35 118.65 18.6 116.0 16.95 116.85 13.9 117.75 10.55 118.15 6.95 118.65 2.75 121.4 0.55 135.05 0.85 145.8 5.4 156.55 9.9 156.4 15.1 156.25 22.7 151.75 27.95" fill="#43505d" fill-rule="evenodd" stroke="none"/>
    <path d="M157.4 14.55 Q157.25 22.15 152.75 27.4 151.7 28.75 149.75 27.9 136.25 21.65 121.95 19.05 120.8 18.8 119.65 18.05 117.0 16.4 117.85 13.35 118.75 10.0 119.15 6.4 119.65 2.2 122.4 0.0 136.05 0.3 146.8 4.85 157.55 9.35 157.4 14.55" fill="#516274" fill-rule="evenodd" stroke="none"/>
    <path d="M114.6 243.4 Q116.15 245.5 116.65 247.1 117.3 247.9 117.5 251.45 117.8 254.95 117.65 258.95 117.5 261.5 114.2 263.75 106.55 267.5 103.7 266.25 100.85 265.05 100.8 262.45 L100.65 259.75 104.05 256.7 106.35 257.4 106.55 259.45 Q107.1 260.7 108.85 260.3 110.3 259.55 111.15 257.4 L111.15 250.95 Q110.75 247.9 104.8 250.35 L102.65 249.9 104.6 245.35 Q110.75 243.1 111.15 239.6 L110.9 236.2 Q110.6 233.3 108.8 233.85 L108.8 233.8 Q107.1 234.5 106.55 236.8 106.15 238.1 106.2 239.8 L98.55 240.75 Q100.6 239.2 101.4 236.35 102.85 231.7 108.05 229.15 110.4 228.35 112.2 228.35 114.95 228.35 116.15 230.25 117.05 232.55 117.1 235.55 117.2 237.9 116.35 239.95 115.95 241.95 114.6 243.4 M96.4 234.7 L96.35 268.75 91.8 270.45 89.75 269.9 91.65 244.35 89.75 245.9 88.15 245.9 87.45 245.0 89.55 241.75 92.95 236.35 94.1 234.0 96.4 234.7" fill="#6b4242" fill-rule="evenodd" stroke="none"/>
    <path d="M87.5 245.15 L87.3 241.05 90.7 235.6 94.15 234.0 94.1 268.05 89.55 269.75 89.4 243.6 87.5 245.15" fill="#e2e2e2" fill-rule="evenodd" stroke="none"/>
    <path d="M114.85 234.8 Q114.95 237.15 114.1 239.2 113.5 242.05 111.15 243.65 113.55 243.6 114.4 246.4 115.05 247.2 115.25 250.7 115.55 254.25 115.4 258.2 115.25 260.8 111.95 263.05 104.3 266.75 101.45 265.55 98.6 264.3 98.55 261.75 L98.4 259.05 104.1 256.65 104.3 258.7 Q104.85 260.0 106.6 259.55 108.0 258.85 108.9 256.65 L108.9 250.25 Q108.5 247.2 102.55 249.6 L102.35 244.6 Q108.5 242.4 108.9 238.85 108.95 237.3 108.65 235.5 108.35 232.55 106.55 233.1 L106.55 233.05 Q104.85 233.8 104.3 236.1 103.9 237.35 103.95 239.05 L98.35 240.7 Q98.35 238.45 99.15 235.6 100.6 230.95 105.8 228.45 108.15 227.65 109.9 227.65 112.7 227.65 113.9 229.5 114.8 231.8 114.85 234.8" fill="#e2e2e2" fill-rule="evenodd" stroke="none"/>
    <path d="M210.5 201.6 L212.75 197.55 213.1 196.9 212.8 197.6 213.15 197.6 213.5 197.65 213.65 197.75 209.5 205.5 213.35 200.65 Q213.85 202.6 212.4 208.1 L211.6 210.25 209.95 216.3 210.8 215.1 Q211.35 214.3 211.95 213.85 211.7 216.85 210.5 220.05 210.95 222.3 209.7 225.5 L208.7 227.9 208.0 230.0 Q206.4 234.25 205.6 238.55 L205.35 239.6 206.3 237.9 208.9 233.25 Q209.55 231.8 210.3 230.8 L210.3 231.6 Q210.85 230.75 211.5 230.05 212.3 231.8 212.05 234.05 L212.8 233.55 208.95 245.7 209.8 244.4 210.85 242.45 Q211.4 241.55 212.4 241.75 L212.7 242.35 212.7 243.0 Q212.5 243.6 212.95 243.35 L213.35 243.05 213.65 243.3 213.9 243.45 214.05 243.8 214.1 243.95 Q211.9 251.9 209.2 259.7 206.35 268.3 204.15 277.0 202.8 282.55 199.75 287.45 L199.1 287.8 197.75 283.75 196.25 290.0 195.75 291.15 195.6 291.2 194.15 291.1 Q193.65 287.85 194.05 284.6 L194.0 283.45 193.9 284.0 Q193.35 286.85 193.25 289.8 193.1 292.35 191.95 294.65 L191.8 294.75 190.35 294.6 Q189.15 289.05 189.05 283.45 L188.95 293.45 Q186.7 290.3 186.9 285.5 L186.95 284.95 186.75 285.5 186.55 285.65 185.3 285.5 185.25 285.5 Q185.35 285.85 185.05 286.3 L185.0 286.35 183.5 292.3 183.15 294.65 Q184.05 295.0 183.95 296.35 L183.65 298.6 Q183.55 299.75 183.0 300.7 L182.3 300.5 182.25 300.75 181.95 300.35 Q179.4 299.25 179.35 295.25 178.65 295.0 178.85 294.05 L179.0 292.2 Q179.05 291.65 179.45 291.45 179.9 282.3 182.0 268.5 L182.1 268.65 182.25 268.85 Q183.4 263.25 185.0 257.65 191.0 237.1 200.35 217.9 205.3 207.95 210.55 198.75 L210.5 201.6 M196.9 247.8 L197.15 247.75 197.2 247.4 197.4 246.8 196.9 247.8 M187.4 275.8 L187.45 275.0 187.2 276.55 187.4 275.8 M189.35 268.25 L190.3 263.65 189.95 265.15 189.45 266.9 189.35 268.25 M196.15 275.75 L196.0 276.75 196.5 275.15 196.5 274.4 196.15 275.75 M195.25 288.8 L195.9 285.6 195.6 286.05 195.6 286.1 195.25 288.8 M185.25 285.45 L185.2 285.35 185.2 285.45 185.25 285.45" fill="#485154" fill-rule="evenodd" stroke="none"/>
    <path d="M185.55 99.9 Q188.55 101.75 189.0 99.65 L189.65 101.3 Q190.1 103.1 183.3 101.0 L181.15 100.35 Q164.65 94.1 69.55 64.75 L70.4 61.85 71.15 61.2 Q71.6 60.8 72.2 60.75 L72.3 60.75 71.8 62.45 169.55 93.75 Q182.5 98.1 185.55 99.9" fill="#253241" fill-rule="evenodd" stroke="none"/>
    <path d="M149.8 113.2 Q148.2 120.1 143.1 121.9 138.0 123.7 132.4 119.3 126.8 114.9 123.95 106.9 121.15 98.9 122.7 91.9 124.3 84.95 129.4 83.15 134.5 81.35 140.1 85.8 145.75 90.2 148.55 98.2 151.4 106.2 149.8 113.2" fill="#313131" fill-opacity="0.36862746" fill-rule="evenodd" stroke="none"/>
    <path d="M140.5 89.1 Q143.05 97.2 146.1 105.15 148.5 111.15 151.4 114.95 145.05 118.35 138.25 114.45 130.95 110.25 127.55 102.2 124.15 94.25 126.6 87.05 129.05 79.95 136.0 78.0 L136.6 77.85 140.5 89.1" fill="#969a9f" fill-rule="evenodd" stroke="none"/>
    <path d="M196.8 177.25 Q178.15 217.25 166.7 275.1 171.05 220.45 196.8 177.25" fill="#cdcdcd" fill-rule="evenodd" stroke="none"/>
    <path d="M155.3 213.6 Q155.3 219.15 151.7 223.1 148.1 227.0 143.0 227.0 137.9 227.0 134.3 223.1 130.7 219.15 130.7 213.6 130.7 208.1 134.3 204.15 137.9 200.2 143.0 200.2 148.1 200.2 151.7 204.15 155.3 208.1 155.3 213.6" fill="#6d7c87" fill-rule="evenodd" stroke="none"/>
    <path d="M148.05 212.65 Q148.05 215.75 146.0 218.0 143.95 220.25 141.05 220.25 138.2 220.25 136.15 218.0 134.1 215.75 134.1 212.65 134.1 209.5 136.15 207.3 138.2 205.05 141.05 205.05 143.95 205.05 146.0 207.3 148.05 209.5 148.05 212.65" fill="#4b5051" fill-rule="evenodd" stroke="none"/>
    <path d="M140.45 203.25 L137.9 204.35 Q136.5 204.95 135.55 206.1 L132.9 209.85 132.5 209.7 Q132.35 209.55 132.45 209.25 132.6 206.7 134.55 205.05 L134.6 205.05 Q136.2 203.75 138.0 203.0 L138.45 202.9 138.5 202.9 139.7 202.6 139.8 202.6 140.65 202.7 140.6 203.05 140.45 203.25" fill="#c9c9c9" fill-rule="evenodd" stroke="none"/>
    <path d="M145.85 218.2 Q145.3 217.85 145.0 217.0 L144.45 215.55 Q144.05 215.0 144.45 214.65 L145.05 215.85 145.7 217.1 145.85 218.2" fill="#a2a9aa" fill-rule="evenodd" stroke="none"/>
    <path d="M131.6 220.2 L131.85 220.75 131.95 221.45 131.9 222.0 Q131.5 221.95 131.5 221.4 L131.35 220.7 Q131.35 220.3 131.6 220.2" fill="#a2a9aa" fill-rule="evenodd" stroke="none"/>
    <path d="M138.2 231.9 Q137.8 231.75 137.7 231.1 L137.55 230.1 Q137.45 229.65 137.8 229.45 138.15 229.75 138.15 230.3 138.05 230.7 138.25 231.2 L138.2 231.9" fill="#a2a9aa" fill-rule="evenodd" stroke="none"/>
    <path d="M139.65 229.6 L139.8 229.65 139.9 230.05 139.95 230.7 140.05 231.25 140.05 231.3 Q139.45 231.7 139.25 230.95 L139.2 230.0 Q139.2 229.65 139.55 229.55 L139.65 229.6" fill="#a2a9aa" fill-rule="evenodd" stroke="none"/>
    <path d="M163.8 244.3 L163.25 246.0 163.0 247.4 162.95 247.45 162.85 247.55 162.65 247.7 162.55 247.85 Q162.15 247.2 162.5 246.2 L162.9 244.2 Q163.0 243.25 163.6 242.75 164.2 243.35 163.8 244.3" fill="#878584" fill-rule="evenodd" stroke="none"/>
    <path d="M159.5 265.9 L159.65 264.45 159.85 263.05 Q159.95 262.3 160.45 262.0 160.85 262.6 160.55 263.45 L160.05 265.0 159.5 265.9" fill="#878584" fill-rule="evenodd" stroke="none"/>
    <path d="M137.2 229.85 L137.0 230.85 136.8 231.45 Q136.3 231.3 136.5 230.6 L136.65 229.65 136.95 229.05 Q137.3 229.25 137.2 229.85" fill="#a2a9aa" fill-rule="evenodd" stroke="none"/>
    <path d="M138.25 229.85 Q138.6 230.05 138.5 230.45 L138.35 231.2 138.2 231.7 Q137.85 231.65 137.85 231.2 L137.85 230.55 137.95 229.95 138.0 229.95 138.0 229.9 138.2 229.9 138.25 229.85" fill="#a2a9aa" fill-rule="evenodd" stroke="none"/>
    <path d="M139.15 232.3 Q138.65 232.0 138.7 231.25 L138.95 230.05 Q139.0 229.55 139.35 229.3 139.65 229.7 139.5 230.35 L139.3 231.45 139.15 232.3" fill="#a2a9aa" fill-rule="evenodd" stroke="none"/>
    <path d="M138.8 232.2 Q138.25 232.05 138.35 231.4 L138.45 230.4 Q138.45 229.95 138.8 229.85 139.15 230.1 139.0 230.65 L138.95 231.55 Q139.05 231.95 138.8 232.2" fill="#a2a9aa" fill-rule="evenodd" stroke="none"/>
    <path d="M138.35 232.0 Q137.95 231.9 138.05 231.4 L138.15 230.7 138.35 230.35 Q138.65 230.45 138.6 230.9 L138.55 231.45 138.35 232.0" fill="#a2a9aa" fill-rule="evenodd" stroke="none"/>
    <path d="M148.45 206.9 Q148.05 206.6 148.0 206.0 L147.95 205.0 Q147.9 204.55 148.2 204.4 148.55 204.7 148.55 205.25 L148.65 206.2 Q148.8 206.65 148.45 206.9" fill="#a2a9aa" fill-rule="evenodd" stroke="none"/>
    <path d="M148.55 204.65 Q148.9 204.55 148.9 204.9 L148.9 205.4 149.05 205.85 149.05 205.6 149.15 205.25 149.05 204.9 149.05 204.75 149.15 204.7 149.2 204.65 149.45 204.55 149.55 204.6 149.65 204.65 149.9 205.3 150.2 206.1 150.05 206.85 149.7 206.75 Q149.55 206.7 149.55 206.85 L149.55 206.9 149.45 207.05 148.8 207.1 148.7 207.05 148.45 206.35 148.35 205.45 148.5 204.7 148.55 204.65" fill="#a2a9aa" fill-rule="evenodd" stroke="none"/>
    <path d="M149.15 208.35 L149.05 208.35 148.85 208.35 148.7 208.35 148.0 206.55 147.35 204.65 Q147.05 203.75 147.55 203.2 L148.45 204.95 149.05 206.9 Q149.45 207.65 149.15 208.35" fill="#a2a9aa" fill-rule="evenodd" stroke="none"/>
    <path d="M38.7 244.85 L38.9 244.65 39.1 244.45 Q39.8 243.95 40.85 244.2 41.95 244.5 42.8 245.45 L42.95 245.65 Q42.1 244.85 41.15 244.6 40.05 244.25 39.35 244.8 L39.1 244.95 38.95 245.25 Q38.45 245.85 38.5 246.9 38.55 247.85 39.15 248.8 L39.35 249.05 39.1 248.75 38.9 248.45 Q38.35 247.5 38.25 246.55 38.2 245.55 38.7 244.85 M44.3 245.45 L44.05 245.05 43.9 244.9 44.05 245.1 44.3 245.45 44.6 245.85 Q45.65 247.6 45.5 249.3 45.3 250.85 44.2 251.55 L43.95 251.7 43.65 251.85 41.15 251.6 Q39.9 251.0 38.95 249.8 L38.75 249.55 Q39.65 250.7 40.9 251.25 L43.4 251.5 43.65 251.35 43.95 251.25 Q45.05 250.5 45.2 248.95 45.3 247.2 44.3 245.45" fill="#415162" fill-rule="evenodd" stroke="none"/>
    <path d="M38.3 243.3 L38.65 243.6 39.1 244.45 38.9 244.65 38.7 244.85 38.15 244.05 37.85 243.8 38.1 243.55 38.3 243.3 M42.8 245.45 Q43.15 244.95 43.75 244.75 L43.75 244.7 43.85 244.8 43.9 244.9 44.05 245.05 44.3 245.45 Q43.6 245.6 43.3 246.15 L43.3 246.2 43.05 245.85 42.95 245.65 42.8 245.45 M38.9 248.45 L39.1 248.75 39.35 249.05 38.75 249.5 38.5 249.2 38.3 248.9 38.9 248.45 M43.95 251.25 L43.65 251.35 43.4 251.5 42.6 250.35 42.9 250.2 43.15 250.05 43.95 251.25" fill="#f7d5d5" fill-rule="evenodd" stroke="none"/>
    <path d="M39.1 244.45 L38.65 243.6 38.3 243.3 Q39.3 242.4 40.85 242.8 42.45 243.15 43.75 244.7 L43.75 244.75 Q43.15 244.95 42.8 245.45 41.95 244.5 40.85 244.2 39.8 243.95 39.1 244.45 M37.85 243.8 L38.15 244.05 38.7 244.85 Q38.2 245.55 38.25 246.55 38.35 247.5 38.9 248.45 L38.3 248.9 Q37.45 247.65 37.25 246.2 37.2 244.75 37.85 243.8 M38.75 249.5 L39.35 249.05 39.35 249.1 40.9 250.3 42.6 250.35 43.4 251.5 40.9 251.25 Q39.65 250.7 38.75 249.55 L38.75 249.5 M43.3 246.2 L43.3 246.15 Q43.6 245.6 44.3 245.45 45.3 247.2 45.2 248.95 45.05 250.5 43.95 251.25 L43.15 250.05 Q43.85 249.55 43.9 248.45 43.95 247.35 43.3 246.2" fill="#a81a1a" fill-rule="evenodd" stroke="none"/>
    <path d="M133.55 153.0 L133.25 153.75 Q133.0 154.05 132.55 154.05 L131.85 153.75 Q131.55 153.45 131.55 153.0 131.55 152.55 131.85 152.25 132.15 151.95 132.55 151.95 133.0 151.95 133.25 152.25 L133.55 153.0" fill="#546272" fill-rule="evenodd" stroke="none"/>
    <path d="M132.65 152.95 L132.5 153.35 132.15 153.5 Q131.95 153.5 131.85 153.35 L131.7 152.95 Q131.7 152.7 131.85 152.55 131.95 152.4 132.15 152.4 L132.5 152.55 132.65 152.95" fill="#c3c4c6" fill-rule="evenodd" stroke="none"/>
    <path d="M155.3 107.65 Q153.7 114.55 148.6 116.35 143.5 118.15 137.9 113.75 132.3 109.35 129.45 101.35 126.65 93.35 128.2 86.35 129.8 79.4 134.9 77.6 140.0 75.8 145.6 80.25 151.25 84.65 154.05 92.65 156.9 100.65 155.3 107.65" fill="#e2e2e2" fill-rule="evenodd" stroke="none"/>
    <path d="M139.45 168.6 Q134.3 179.9 135.05 187.15 133.65 190.1 130.1 189.35 128.7 182.0 133.5 171.15 135.75 169.65 139.45 168.6" fill="#3f3326" fill-rule="evenodd" stroke="none"/>
    <path d="M124.4 178.35 Q120.65 187.5 121.4 194.75 120.0 197.7 116.45 196.95 115.05 189.6 118.9 180.9 122.1 177.25 124.4 178.35" fill="#3f3326" fill-rule="evenodd" stroke="none"/>
  </g>
  <defs>
    <linearGradient gradientTransform="matrix(0.1367, 0.0, 0.0, 0.1078, 90.3, 254.35)" gradientUnits="userSpaceOnUse" id="gradient0" spreadMethod="pad" x1="-819.2" x2="819.2">
      <stop offset="0.0" stop-color="#6d6a66"/>
      <stop offset="1.0" stop-color="#9c9c9c"/>
    </linearGradient>
  </defs>
</svg>
