<?xml version="1.0" encoding="UTF-8" standalone="no"?>
<svg xmlns:ffdec="https://www.free-decompiler.com/flash" xmlns:xlink="http://www.w3.org/1999/xlink" ffdec:objectType="shape" height="325.45px" width="225.25px" xmlns="http://www.w3.org/2000/svg">
  <g transform="matrix(1.0, 0.0, 0.0, 1.0, -5.95, -4.85)">
    <path d="M130.25 12.8 L130.85 13.35 Q139.35 19.5 149.75 16.6 151.35 16.15 151.45 14.5 151.6 9.3 146.5 8.9 L139.15 8.2 133.5 7.25 Q128.15 8.1 130.25 12.8 M136.2 4.9 L149.4 7.15 Q150.75 7.35 151.6 8.45 155.8 13.9 151.0 18.4 149.5 19.8 147.35 20.0 135.85 20.95 128.0 13.1 127.15 12.2 127.45 10.8 128.7 4.25 136.2 4.9" fill="#516274" fill-rule="evenodd" stroke="none"/>
    <path d="M136.4 5.45 Q140.85 6.1 144.75 7.65 148.55 9.15 151.05 11.0 153.5 12.8 152.55 14.45 L152.55 14.5 Q152.45 19.35 150.05 23.05 149.9 23.5 149.35 23.65 148.85 23.8 145.85 21.8 141.15 19.0 135.9 18.15 L125.75 16.4 Q124.35 16.75 123.35 14.7 122.95 10.95 123.85 8.05 124.15 6.5 125.8 4.95 L136.4 5.45" fill="#6a7683" fill-rule="evenodd" stroke="none"/>
    <path d="M127.3 9.15 L126.95 9.0 Q126.15 8.6 126.6 7.75 126.8 7.35 127.2 7.3 L127.55 7.35 Q127.4 7.45 127.6 7.65 L127.85 8.0 127.9 8.25 127.75 8.5 127.4 8.7 127.05 8.95 127.3 9.15 M127.85 7.4 Q128.4 7.65 128.3 8.25 L128.3 8.15 127.85 7.4 M128.0 9.0 L127.6 9.15 127.75 9.1 128.0 9.0" fill="#43505d" fill-rule="evenodd" stroke="none"/>
    <path d="M127.55 7.35 L127.6 7.25 127.85 7.4 128.3 8.15 128.3 8.25 Q128.35 8.75 128.0 9.0 L127.75 9.1 127.6 9.15 127.3 9.15 127.05 8.95 127.4 8.7 127.75 8.5 127.9 8.25 127.85 8.0 127.6 7.65 Q127.4 7.45 127.55 7.35" fill="#2a343f" fill-rule="evenodd" stroke="none"/>
    <path d="M129.55 10.25 Q130.1 10.5 130.0 11.1 L130.0 11.0 129.55 10.25 M129.7 11.85 L129.3 12.0 129.45 11.95 129.7 11.85 M129.0 12.0 L128.65 11.85 Q127.85 11.45 128.3 10.6 L128.9 10.15 129.25 10.2 Q129.1 10.3 129.3 10.5 L129.55 10.85 129.6 11.1 129.45 11.35 129.1 11.55 Q128.9 11.6 128.75 11.8 L129.0 12.0" fill="#43505d" fill-rule="evenodd" stroke="none"/>
    <path d="M129.25 10.2 L129.3 10.1 129.55 10.25 130.0 11.0 130.0 11.1 Q130.05 11.6 129.7 11.85 L129.45 11.95 129.3 12.0 129.0 12.0 128.75 11.8 Q128.9 11.6 129.1 11.55 L129.45 11.35 129.6 11.1 129.55 10.85 129.3 10.5 Q129.1 10.3 129.25 10.2" fill="#2a343f" fill-rule="evenodd" stroke="none"/>
    <path d="M126.7 14.7 L126.35 14.55 Q125.55 14.15 126.0 13.3 126.2 12.9 126.6 12.85 L126.95 12.9 Q126.8 13.0 127.0 13.2 L127.25 13.55 127.3 13.8 127.15 14.05 126.8 14.25 126.45 14.5 126.7 14.7 M127.25 12.95 Q127.8 13.2 127.7 13.8 L127.7 13.7 127.25 12.95 M127.4 14.55 L127.0 14.7 127.15 14.65 127.4 14.55" fill="#43505d" fill-rule="evenodd" stroke="none"/>
    <path d="M126.95 12.9 L127.0 12.8 127.25 12.95 127.7 13.7 127.7 13.8 Q127.75 14.3 127.4 14.55 L127.15 14.65 127.0 14.7 126.7 14.7 126.45 14.5 126.8 14.25 127.15 14.05 127.3 13.8 127.25 13.55 127.0 13.2 Q126.8 13.0 126.95 12.9" fill="#2a343f" fill-rule="evenodd" stroke="none"/>
    <path d="M133.1 7.7 Q133.65 7.95 133.55 8.55 L133.55 8.45 133.1 7.7 M133.25 9.3 L132.85 9.45 133.0 9.4 133.25 9.3 M132.55 9.45 L132.2 9.3 Q131.4 8.9 131.85 8.05 132.05 7.65 132.45 7.6 L132.8 7.65 Q132.65 7.75 132.85 7.95 L133.1 8.3 133.15 8.55 133.0 8.8 132.65 9.0 132.3 9.25 132.55 9.45" fill="#43505d" fill-rule="evenodd" stroke="none"/>
    <path d="M132.8 7.65 L132.85 7.55 133.1 7.7 133.55 8.45 133.55 8.55 Q133.6 9.05 133.25 9.3 L133.0 9.4 132.85 9.45 132.55 9.45 132.3 9.25 132.65 9.0 133.0 8.8 133.15 8.55 133.1 8.3 132.85 7.95 Q132.65 7.75 132.8 7.65" fill="#2a343f" fill-rule="evenodd" stroke="none"/>
    <path d="M134.0 13.05 L133.65 12.9 Q132.85 12.5 133.3 11.65 133.5 11.25 133.9 11.2 L134.25 11.25 Q134.1 11.35 134.3 11.55 L134.55 11.9 134.6 12.15 134.45 12.4 134.1 12.6 Q133.9 12.65 133.75 12.85 L134.0 13.05 M134.55 11.3 Q135.1 11.55 135.0 12.15 L135.0 12.05 134.55 11.3 M134.7 12.9 L134.3 13.05 134.45 13.0 134.7 12.9" fill="#43505d" fill-rule="evenodd" stroke="none"/>
    <path d="M134.25 11.25 L134.3 11.15 134.55 11.3 135.0 12.05 135.0 12.15 Q135.05 12.65 134.7 12.9 L134.45 13.0 134.3 13.05 134.0 13.05 133.75 12.85 Q133.9 12.65 134.1 12.6 L134.45 12.4 134.6 12.15 134.55 11.9 134.3 11.55 Q134.1 11.35 134.25 11.25" fill="#2a343f" fill-rule="evenodd" stroke="none"/>
    <path d="M132.35 14.05 Q132.9 14.3 132.8 14.9 L132.8 14.8 132.35 14.05 M132.5 15.65 L132.1 15.8 132.25 15.75 132.5 15.65 M131.8 15.8 L131.45 15.65 Q130.65 15.25 131.1 14.4 L131.7 13.95 132.05 14.0 Q131.9 14.1 132.1 14.3 L132.35 14.65 132.4 14.9 132.25 15.15 131.9 15.35 131.55 15.6 131.8 15.8" fill="#43505d" fill-rule="evenodd" stroke="none"/>
    <path d="M132.05 14.0 L132.1 13.9 132.35 14.05 132.8 14.8 132.8 14.9 Q132.85 15.4 132.5 15.65 L132.25 15.75 132.1 15.8 131.8 15.8 131.55 15.6 131.9 15.35 132.25 15.15 132.4 14.9 132.35 14.65 132.1 14.3 Q131.9 14.1 132.05 14.0" fill="#2a343f" fill-rule="evenodd" stroke="none"/>
    <path d="M138.3 8.8 Q138.85 9.05 138.75 9.65 L138.75 9.55 138.3 8.8 M138.45 10.4 L138.05 10.55 138.2 10.5 138.45 10.4 M137.75 10.55 L137.4 10.4 Q136.6 10.0 137.05 9.15 137.25 8.75 137.65 8.7 L138.0 8.75 Q137.85 8.85 138.05 9.05 L138.3 9.4 138.35 9.65 138.2 9.9 137.85 10.1 Q137.65 10.15 137.5 10.35 L137.75 10.55" fill="#43505d" fill-rule="evenodd" stroke="none"/>
    <path d="M138.0 8.75 L138.05 8.65 138.3 8.8 138.75 9.55 138.75 9.65 Q138.8 10.15 138.45 10.4 L138.2 10.5 138.05 10.55 137.75 10.55 137.5 10.35 Q137.65 10.15 137.85 10.1 L138.2 9.9 138.35 9.65 138.3 9.4 138.05 9.05 Q137.85 8.85 138.0 8.75" fill="#2a343f" fill-rule="evenodd" stroke="none"/>
    <path d="M138.65 13.95 L138.3 13.8 Q137.5 13.4 137.95 12.55 138.15 12.15 138.55 12.1 L138.9 12.15 Q138.75 12.25 138.95 12.45 L139.2 12.8 139.25 13.05 139.1 13.3 138.75 13.5 Q138.55 13.55 138.4 13.75 L138.65 13.95 M139.2 12.2 Q139.75 12.45 139.65 13.05 L139.65 12.95 139.2 12.2 M139.35 13.8 L138.95 13.95 139.1 13.9 139.35 13.8" fill="#43505d" fill-rule="evenodd" stroke="none"/>
    <path d="M138.9 12.15 L138.95 12.05 139.2 12.2 139.65 12.95 139.65 13.05 Q139.7 13.55 139.35 13.8 L139.1 13.9 138.95 13.95 138.65 13.95 138.4 13.75 Q138.55 13.55 138.75 13.5 L139.1 13.3 139.25 13.05 139.2 12.8 138.95 12.45 Q138.75 12.25 138.9 12.15" fill="#2a343f" fill-rule="evenodd" stroke="none"/>
    <path d="M137.7 15.15 Q138.25 15.4 138.15 16.0 L138.15 15.9 137.7 15.15 M137.85 16.75 L137.45 16.9 137.6 16.85 137.85 16.75 M137.15 16.9 L136.8 16.75 Q136.0 16.35 136.45 15.5 136.65 15.1 137.05 15.05 L137.4 15.1 Q137.25 15.2 137.45 15.4 L137.7 15.75 137.75 16.0 137.6 16.25 137.25 16.45 Q137.05 16.5 136.9 16.7 L137.15 16.9" fill="#43505d" fill-rule="evenodd" stroke="none"/>
    <path d="M137.4 15.1 L137.45 15.0 137.7 15.15 138.15 15.9 138.15 16.0 Q138.2 16.5 137.85 16.75 L137.6 16.85 137.45 16.9 137.15 16.9 136.9 16.7 Q137.05 16.5 137.25 16.45 L137.6 16.25 137.75 16.0 137.7 15.75 137.45 15.4 Q137.25 15.2 137.4 15.1" fill="#2a343f" fill-rule="evenodd" stroke="none"/>
    <path d="M142.7 12.05 L142.35 11.9 Q141.55 11.5 142.0 10.65 142.2 10.25 142.6 10.2 L142.95 10.25 Q142.8 10.35 143.0 10.55 L143.25 10.9 143.3 11.15 143.15 11.4 142.8 11.6 142.45 11.85 142.7 12.05 M143.25 10.3 Q143.8 10.55 143.7 11.15 L143.7 11.05 143.25 10.3 M143.4 11.9 L143.0 12.05 143.15 12.0 143.4 11.9" fill="#43505d" fill-rule="evenodd" stroke="none"/>
    <path d="M142.95 10.25 L143.0 10.15 143.25 10.3 143.7 11.05 143.7 11.15 Q143.75 11.65 143.4 11.9 L143.15 12.0 143.0 12.05 142.7 12.05 142.45 11.85 142.8 11.6 143.15 11.4 143.3 11.15 143.25 10.9 143.0 10.55 Q142.8 10.35 142.95 10.25" fill="#2a343f" fill-rule="evenodd" stroke="none"/>
    <path d="M144.5 13.65 Q145.05 13.9 144.95 14.5 L144.95 14.4 144.5 13.65 M144.65 15.25 L144.25 15.4 144.4 15.35 144.65 15.25 M143.95 15.4 L143.6 15.25 Q142.8 14.85 143.25 14.0 143.45 13.6 143.85 13.55 L144.2 13.6 Q144.05 13.7 144.25 13.9 L144.5 14.25 144.55 14.5 144.4 14.75 144.05 14.95 143.7 15.2 143.95 15.4" fill="#43505d" fill-rule="evenodd" stroke="none"/>
    <path d="M144.2 13.6 L144.25 13.5 144.5 13.65 144.95 14.4 144.95 14.5 Q145.0 15.0 144.65 15.25 L144.4 15.35 144.25 15.4 143.95 15.4 143.7 15.2 144.05 14.95 144.4 14.75 144.55 14.5 144.5 14.25 144.25 13.9 Q144.05 13.7 144.2 13.6" fill="#2a343f" fill-rule="evenodd" stroke="none"/>
    <path d="M141.75 18.0 L141.4 17.85 Q140.6 17.45 141.05 16.6 141.25 16.2 141.65 16.15 L142.0 16.2 Q141.85 16.3 142.05 16.5 L142.3 16.85 142.35 17.1 142.2 17.35 141.85 17.55 Q141.65 17.6 141.5 17.8 L141.75 18.0 M142.3 16.25 Q142.85 16.5 142.75 17.1 L142.75 17.0 142.3 16.25 M142.45 17.85 L142.05 18.0 142.2 17.95 142.45 17.85" fill="#43505d" fill-rule="evenodd" stroke="none"/>
    <path d="M142.0 16.2 L142.05 16.1 142.3 16.25 142.75 17.0 142.75 17.1 Q142.8 17.6 142.45 17.85 L142.2 17.95 142.05 18.0 141.75 18.0 141.5 17.8 Q141.65 17.6 141.85 17.55 L142.2 17.35 142.35 17.1 142.3 16.85 142.05 16.5 Q141.85 16.3 142.0 16.2" fill="#2a343f" fill-rule="evenodd" stroke="none"/>
    <path d="M148.55 12.7 Q149.1 12.95 149.0 13.55 L149.0 13.45 148.55 12.7 M148.7 14.3 L148.3 14.45 148.45 14.4 148.7 14.3 M148.0 14.45 L147.65 14.3 Q146.85 13.9 147.3 13.05 L147.9 12.6 148.25 12.65 Q148.1 12.75 148.3 12.95 L148.55 13.3 148.6 13.55 148.45 13.8 148.1 14.0 Q147.9 14.05 147.75 14.25 L148.0 14.45" fill="#43505d" fill-rule="evenodd" stroke="none"/>
    <path d="M148.25 12.65 L148.3 12.55 148.55 12.7 149.0 13.45 149.0 13.55 Q149.05 14.05 148.7 14.3 L148.45 14.4 148.3 14.45 148.0 14.45 147.75 14.25 Q147.9 14.05 148.1 14.0 L148.45 13.8 148.6 13.55 148.55 13.3 148.3 12.95 Q148.1 12.75 148.25 12.65" fill="#2a343f" fill-rule="evenodd" stroke="none"/>
    <path d="M149.3 17.8 L148.95 17.65 Q148.15 17.25 148.6 16.4 148.8 16.0 149.2 15.95 L149.55 16.0 Q149.4 16.1 149.6 16.3 L149.85 16.65 149.9 16.9 149.75 17.15 149.4 17.35 149.05 17.6 149.3 17.8 M149.85 16.05 Q150.4 16.3 150.3 16.9 L150.3 16.8 149.85 16.05 M150.0 17.65 L149.6 17.8 149.75 17.75 150.0 17.65" fill="#43505d" fill-rule="evenodd" stroke="none"/>
    <path d="M149.55 16.0 L149.6 15.9 149.85 16.05 150.3 16.8 150.3 16.9 Q150.35 17.4 150.0 17.65 L149.75 17.75 149.6 17.8 149.3 17.8 149.05 17.6 149.4 17.35 149.75 17.15 149.9 16.9 149.85 16.65 149.6 16.3 Q149.4 16.1 149.55 16.0" fill="#2a343f" fill-rule="evenodd" stroke="none"/>
    <path d="M147.6 18.65 Q148.15 18.9 148.05 19.5 L148.05 19.4 147.6 18.65 M147.75 20.25 L147.35 20.4 147.5 20.35 147.75 20.25 M147.05 20.4 L146.7 20.25 Q145.9 19.85 146.35 19.0 146.55 18.6 146.95 18.55 L147.3 18.6 Q147.15 18.7 147.35 18.9 L147.6 19.25 147.65 19.5 147.5 19.75 147.15 19.95 146.8 20.2 147.05 20.4" fill="#43505d" fill-rule="evenodd" stroke="none"/>
    <path d="M147.3 18.6 L147.35 18.5 147.6 18.65 148.05 19.4 148.05 19.5 Q148.1 20.0 147.75 20.25 L147.5 20.35 147.35 20.4 147.05 20.4 146.8 20.2 147.15 19.95 147.5 19.75 147.65 19.5 147.6 19.25 147.35 18.9 Q147.15 18.7 147.3 18.6" fill="#2a343f" fill-rule="evenodd" stroke="none"/>
    <path d="M77.8 188.3 L75.8 187.4 75.9 186.35 80.9 180.95 Q82.05 179.75 83.35 180.05 L85.0 180.6" fill="none" stroke="#495370" stroke-linecap="round" stroke-linejoin="round" stroke-width="1.0"/>
    <path d="M77.85 193.1 L75.85 192.2 75.95 191.15 80.95 185.75 Q82.1 184.55 83.4 184.85 L85.05 185.4" fill="none" stroke="#495370" stroke-linecap="round" stroke-linejoin="round" stroke-width="1.0"/>
    <path d="M78.95 198.15 L76.95 197.25 77.05 196.2 82.05 190.8 Q83.2 189.6 84.5 189.9 L86.15 190.45" fill="none" stroke="#495370" stroke-linecap="round" stroke-linejoin="round" stroke-width="1.0"/>
    <path d="M79.0 202.9 L77.0 202.0 77.1 200.95 82.1 195.55 Q83.25 194.35 84.55 194.65 L86.2 195.2" fill="none" stroke="#495370" stroke-linecap="round" stroke-linejoin="round" stroke-width="1.0"/>
    <path d="M79.6 207.6 L77.6 206.7 77.7 205.65 82.7 200.25 Q83.85 199.05 85.15 199.35 L86.8 199.9" fill="none" stroke="#495370" stroke-linecap="round" stroke-linejoin="round" stroke-width="1.0"/>
    <path d="M79.65 212.45 L77.65 211.55 77.75 210.5 82.75 205.1 Q83.9 203.9 85.2 204.2 L86.85 204.75" fill="none" stroke="#495370" stroke-linecap="round" stroke-linejoin="round" stroke-width="1.0"/>
    <path d="M126.15 155.25 L125.85 156.0 125.15 156.3 Q124.75 156.3 124.45 156.0 124.15 155.7 124.15 155.25 124.15 154.8 124.45 154.5 124.75 154.2 125.15 154.2 125.6 154.2 125.85 154.5 L126.15 155.25" fill="#546272" fill-rule="evenodd" stroke="none"/>
    <path d="M125.25 155.25 L125.1 155.65 124.75 155.8 Q124.55 155.8 124.45 155.65 L124.3 155.25 124.45 154.85 Q124.55 154.7 124.75 154.7 L125.1 154.85 125.25 155.25" fill="#c3c4c6" fill-rule="evenodd" stroke="none"/>
    <path d="M119.05 162.35 L118.75 163.1 118.05 163.4 117.35 163.1 Q117.05 162.8 117.05 162.35 117.05 161.9 117.35 161.6 117.65 161.3 118.05 161.3 118.5 161.3 118.75 161.6 L119.05 162.35" fill="#546272" fill-rule="evenodd" stroke="none"/>
    <path d="M118.1 162.4 L117.95 162.8 117.6 162.95 117.3 162.8 117.15 162.4 Q117.15 162.15 117.3 162.0 117.4 161.85 117.6 161.85 L117.95 162.0 118.1 162.4" fill="#c3c4c6" fill-rule="evenodd" stroke="none"/>
    <path d="M213.25 242.95 L214.7 246.15 Q215.3 248.15 215.3 250.7 215.0 251.95 214.85 253.3 214.55 253.9 214.4 255.0 L213.25 257.5 Q212.5 258.9 211.5 258.9 212.15 259.9 211.95 262.25 L211.4 265.35 210.55 268.5 Q210.3 268.95 210.15 269.7 209.6 271.0 208.3 271.3 L206.45 270.75 205.7 270.35 Q204.4 269.6 203.9 268.55 202.8 266.2 203.2 264.4 L203.6 262.25 Q205.1 262.95 206.6 263.8 L206.35 265.25 Q206.25 266.2 207.0 266.95 L208.35 266.25 Q209.1 263.4 209.6 262.0 209.95 259.5 207.35 257.75 L208.25 253.6 Q210.95 256.2 211.9 253.9 L212.5 251.25 Q213.0 248.55 212.35 247.6 L212.45 247.55 Q211.6 246.5 210.9 248.15 210.45 248.75 210.15 250.4 L207.4 246.75 Q207.9 244.55 209.0 242.65 210.75 239.6 213.25 242.95 M200.85 233.25 L204.45 231.8 206.95 234.95 199.65 266.65 196.5 265.4 201.65 239.5 200.0 238.8 200.85 233.25" fill="#747a7b" fill-rule="evenodd" stroke="none"/>
    <path d="M6.65 293.15 L5.95 292.3 Q21.0 278.4 36.7 265.55 22.0 278.2 6.65 293.15 M194.0 169.65 L202.3 166.05 199.25 172.1 Q195.85 169.9 170.65 182.05 130.55 201.5 116.0 209.7 153.45 187.25 194.0 169.65" fill="#7e7e7e" fill-rule="evenodd" stroke="none"/>
    <path d="M136.5 78.5 Q140.95 77.4 145.7 81.2 151.05 85.35 153.7 92.9 156.4 100.5 154.85 107.1 153.4 113.7 148.55 115.4 L143.8 115.65 144.65 115.4 Q148.55 114.05 148.5 110.2 149.35 108.0 149.35 105.2 149.35 103.65 148.65 102.45 147.7 100.85 147.3 98.7 L147.05 97.0 146.5 95.4 145.2 93.75 Q144.25 92.6 144.1 91.95 L143.6 88.9 Q143.25 86.9 142.2 85.35 L140.2 82.5 Q138.85 79.0 136.5 78.5" fill="#c2c2c2" fill-rule="evenodd" stroke="none"/>
    <path d="M213.55 170.1 Q229.8 214.8 230.7 252.45" fill="none" stroke="#495370" stroke-linecap="round" stroke-linejoin="round" stroke-width="1.0"/>
    <path d="M162.35 166.85 L162.35 167.1 155.9 187.65 154.6 188.35 161.1 167.5 Q149.0 173.75 136.75 181.25 L130.9 201.05 129.55 201.8 135.4 182.05 Q130.4 185.1 125.5 188.4 L122.85 190.1 120.55 191.7 114.05 196.1 109.75 213.55 108.5 214.3 112.75 196.95 98.5 207.35 95.9 209.35 95.85 209.45 92.95 224.2 91.75 225.0 94.6 210.3 Q87.95 215.35 81.3 220.85 L78.15 234.25 Q77.5 234.6 76.9 235.1 L80.05 221.9 67.3 232.65 64.6 243.9 63.55 244.65 66.15 233.65 Q61.35 237.75 56.65 242.1 L56.6 242.15 54.4 251.55 53.35 252.35 55.5 243.1 47.0 250.95 45.2 258.7 44.15 259.5 45.95 252.0 38.2 259.4 38.2 259.6 36.8 265.45 35.8 266.35 37.15 260.4 29.75 267.75 28.7 272.2 27.65 273.1 28.65 268.9 20.3 277.35 20.35 277.6 19.85 279.85 18.9 280.65 19.5 278.2 7.95 290.4 6.15 291.65 Q17.6 279.05 29.0 267.55 L29.15 267.3 29.35 267.2 Q64.15 231.85 97.85 206.5 108.95 198.15 119.95 190.8 L122.3 189.2 124.9 187.5 Q157.35 166.25 189.25 153.4 L189.25 153.35 189.6 153.05 189.95 153.05 Q201.25 148.55 212.4 145.1 L212.7 146.1 Q201.4 149.6 190.0 154.2 183.55 166.95 180.25 175.85 L178.9 176.45 Q182.15 167.65 188.5 154.8 175.5 160.15 162.35 166.85" fill="#4d5b85" fill-rule="evenodd" stroke="none"/>
    <path d="M139.4 157.45 Q139.95 157.45 140.25 157.8 140.6 158.15 140.6 158.7 140.6 159.25 140.25 159.6 139.95 160.0 139.4 160.0 138.95 160.0 138.6 159.6 138.25 159.25 138.25 158.7 138.25 158.15 138.6 157.8 138.95 157.45 139.4 157.45 M139.5 158.65 L139.35 158.15 139.0 157.95 Q138.7 157.95 138.55 158.15 L138.45 158.65 138.55 159.15 Q138.7 159.35 139.0 159.35 L139.35 159.15 139.5 158.65" fill="#546272" fill-rule="evenodd" stroke="none"/>
    <path d="M139.5 158.65 L139.35 159.15 139.0 159.35 Q138.7 159.35 138.55 159.15 L138.45 158.65 138.55 158.15 Q138.7 157.95 139.0 157.95 L139.35 158.15 139.5 158.65" fill="#c3c4c6" fill-rule="evenodd" stroke="none"/>
    <path d="M162.85 143.35 Q163.4 143.35 163.7 143.7 164.05 144.05 164.05 144.6 164.05 145.15 163.7 145.5 163.4 145.9 162.85 145.9 162.4 145.9 162.05 145.5 161.7 145.15 161.7 144.6 161.7 144.05 162.05 143.7 162.4 143.35 162.85 143.35 M162.0 144.05 L161.9 144.55 162.0 145.05 Q162.15 145.25 162.45 145.25 L162.8 145.05 162.95 144.55 162.8 144.05 162.45 143.85 Q162.15 143.85 162.0 144.05" fill="#546272" fill-rule="evenodd" stroke="none"/>
    <path d="M162.0 144.05 Q162.15 143.85 162.45 143.85 L162.8 144.05 162.95 144.55 162.8 145.05 162.45 145.25 Q162.15 145.25 162.0 145.05 L161.9 144.55 162.0 144.05" fill="#c3c4c6" fill-rule="evenodd" stroke="none"/>
    <path d="M162.85 154.6 Q163.4 154.6 163.7 154.95 164.05 155.3 164.05 155.85 164.05 156.4 163.7 156.75 163.4 157.15 162.85 157.15 162.4 157.15 162.05 156.75 161.7 156.4 161.7 155.85 161.7 155.3 162.05 154.95 162.4 154.6 162.85 154.6 M162.0 155.3 L161.9 155.8 162.0 156.3 Q162.15 156.5 162.45 156.5 L162.8 156.3 162.95 155.8 162.8 155.3 162.45 155.1 Q162.15 155.1 162.0 155.3" fill="#546272" fill-rule="evenodd" stroke="none"/>
    <path d="M162.0 155.3 Q162.15 155.1 162.45 155.1 L162.8 155.3 162.95 155.8 162.8 156.3 162.45 156.5 Q162.15 156.5 162.0 156.3 L161.9 155.8 162.0 155.3" fill="#c3c4c6" fill-rule="evenodd" stroke="none"/>
    <path d="M162.85 162.05 Q163.4 162.05 163.7 162.4 164.05 162.75 164.05 163.3 164.05 163.85 163.7 164.2 163.4 164.6 162.85 164.6 162.4 164.6 162.05 164.2 161.7 163.85 161.7 163.3 161.7 162.75 162.05 162.4 162.4 162.05 162.85 162.05 M162.95 163.25 L162.8 162.75 162.45 162.55 Q162.15 162.55 162.0 162.75 L161.9 163.25 162.0 163.75 Q162.15 163.95 162.45 163.95 L162.8 163.75 162.95 163.25" fill="#546272" fill-rule="evenodd" stroke="none"/>
    <path d="M162.95 163.25 L162.8 163.75 162.45 163.95 Q162.15 163.95 162.0 163.75 L161.9 163.25 162.0 162.75 Q162.15 162.55 162.45 162.55 L162.8 162.75 162.95 163.25" fill="#c3c4c6" fill-rule="evenodd" stroke="none"/>
    <path d="M194.1 157.55 L194.55 157.35 194.9 157.55 195.05 158.05 194.9 158.55 194.55 158.75 194.1 158.55 194.0 158.05 194.1 157.55" fill="#c3c4c6" fill-rule="evenodd" stroke="none"/>
    <path d="M194.95 156.85 Q195.5 156.85 195.8 157.2 L196.15 158.1 195.8 159.0 Q195.5 159.4 194.95 159.4 194.5 159.4 194.15 159.0 193.8 158.65 193.8 158.1 193.8 157.55 194.15 157.2 194.5 156.85 194.95 156.85 M194.1 157.55 L194.0 158.05 194.1 158.55 194.55 158.75 194.9 158.55 195.05 158.05 194.9 157.55 194.55 157.35 194.1 157.55" fill="#455566" fill-rule="evenodd" stroke="none"/>
    <path d="M194.65 166.75 L195.0 166.95 195.15 167.45 195.0 167.9 194.65 168.15 194.2 167.9 194.1 167.45 194.2 166.95 Q194.35 166.75 194.65 166.75" fill="#c3c4c6" fill-rule="evenodd" stroke="none"/>
    <path d="M194.25 166.6 Q194.55 166.2 195.05 166.2 195.6 166.2 195.9 166.6 L196.2 167.5 195.9 168.4 Q195.6 168.75 195.05 168.75 194.55 168.75 194.25 168.4 193.9 168.05 193.9 167.5 193.9 166.95 194.25 166.6 M194.65 166.75 Q194.35 166.75 194.2 166.95 L194.1 167.45 194.2 167.9 194.65 168.15 195.0 167.9 195.15 167.45 195.0 166.95 194.65 166.75" fill="#455566" fill-rule="evenodd" stroke="none"/>
    <path d="M152.4 212.25 L152.65 212.4 152.35 212.3 152.4 212.25" fill="#071215" fill-opacity="0.5294118" fill-rule="evenodd" stroke="none"/>
    <path d="M152.3 212.4 L154.75 213.65 163.1 218.05 Q164.3 218.7 164.55 216.4 164.75 214.1 168.65 218.3 172.45 222.45 170.65 226.45 168.8 230.4 164.4 235.2 159.85 239.95 152.55 244.0 L152.4 244.05 Q145.25 247.65 140.95 249.45 L138.5 249.0 Q135.35 248.0 134.2 244.95 L131.8 238.3 Q129.95 233.55 130.5 228.7 130.65 227.15 132.1 226.8 133.25 226.5 134.5 227.15 L134.65 227.2 136.8 228.4 Q139.5 229.7 140.0 230.4 140.35 230.95 140.15 232.35 140.1 233.6 138.75 235.25 139.3 237.2 141.75 236.75 L141.95 236.7 144.35 235.5 145.7 234.3 Q146.55 230.5 145.2 228.05 143.9 225.55 138.6 211.75 144.15 223.8 144.85 223.75 148.25 223.75 150.85 226.1 153.55 228.65 157.3 229.35 160.05 227.9 160.15 227.2 160.3 226.55 159.75 225.95 159.2 225.25 157.05 224.0 153.75 226.55 152.8 224.25 151.8 221.95 150.9 218.6 149.9 215.3 149.8 213.35 149.6 211.4 152.3 212.4" fill="url(#gradient0)" fill-rule="evenodd" stroke="none"/>
    <path d="M147.6 202.0 L147.6 201.95 147.9 202.1 147.6 202.0 M143.4 222.85 Q140.6 220.25 137.25 215.8 133.85 211.3 135.1 209.35 136.3 207.3 139.1 208.1 141.9 208.95 145.2 213.55 146.6 215.65 148.15 216.95 144.7 219.55 143.4 222.85" fill="#12252a" fill-rule="evenodd" stroke="none"/>
    <path d="M150.7 205.1 L150.9 205.25 150.7 205.15 150.7 205.1 M139.4 205.3 L139.55 205.3 139.75 205.55 139.55 205.3 139.6 205.3 148.2 216.75 Q151.5 221.45 154.95 222.0 157.6 220.55 157.75 219.85 157.85 219.2 157.4 218.6 L154.85 216.75 Q151.7 219.25 150.85 217.0 150.0 214.75 149.1 211.45 148.25 208.15 148.2 206.2 148.1 204.25 150.6 205.25 151.5 205.7 152.9 206.45 L160.7 210.65 163.15 212.2 Q164.4 213.05 166.5 215.9 168.55 218.8 166.55 222.2 164.55 225.55 160.9 229.05 157.2 232.55 150.25 236.7 L150.0 236.85 Q143.25 240.65 139.15 242.35 L136.9 241.95 Q133.85 241.05 132.9 237.95 L130.75 231.45 Q129.05 226.75 129.65 221.9 129.85 220.35 131.3 220.0 L133.5 220.2 133.6 220.35 135.6 221.5 Q138.2 222.75 138.6 223.4 139.0 223.95 138.75 225.25 138.6 226.6 137.35 228.25 137.85 230.15 140.1 229.7 L140.3 229.65 142.65 228.4 143.95 227.2 Q143.7 224.8 140.9 219.7 L134.65 210.1 135.25 208.95 Q136.5 206.2 139.4 205.3" fill="#6f7779" fill-rule="evenodd" stroke="none"/>
    <path d="M166.65 215.85 Q168.7 218.75 166.7 222.15 164.7 225.5 161.1 229.0 157.4 232.5 150.4 236.65 L150.15 236.85 Q143.35 240.55 139.3 242.3 L137.05 241.95 Q134.65 241.2 133.5 239.0 134.6 240.2 136.2 240.75 L138.45 241.05 Q142.5 239.35 149.3 235.6 L149.6 235.4 Q156.5 231.25 160.2 227.75 163.85 224.25 165.85 220.9 167.7 217.8 166.15 215.2 L166.65 215.85 M138.75 223.35 Q139.15 223.9 138.95 225.25 138.8 226.55 137.5 228.2 136.95 227.9 136.7 226.95 137.9 225.3 138.1 224.05 L138.2 222.8 138.75 223.35 M155.05 216.65 Q151.9 219.25 151.0 216.95 L150.9 216.75 Q152.0 217.2 154.15 215.45 156.2 216.6 156.75 217.3 L157.1 218.1 Q156.4 217.5 155.05 216.65" fill="#889193" fill-rule="evenodd" stroke="none"/>
    <path d="M163.0 216.4 L162.9 216.4 Q163.75 217.75 162.9 219.4 L162.85 219.5 Q161.0 222.45 157.75 225.65 L157.7 225.75 Q154.2 229.05 147.55 233.0 L147.5 233.05 147.35 233.15 147.4 233.1 Q141.25 236.45 137.45 238.2 L136.7 238.05 136.6 238.05 Q135.1 237.5 134.5 235.9 L132.35 229.25 132.25 229.1 Q131.05 225.55 131.3 221.9 L133.1 222.95 133.25 223.0 Q134.25 223.45 134.7 223.75 L133.75 225.35 Q133.4 225.85 133.3 226.55 133.15 227.25 133.3 227.95 L133.3 227.9 Q134.45 232.45 139.5 231.4 L139.45 231.4 140.55 231.1 142.8 229.85 142.9 229.75 Q144.35 228.95 145.3 227.55 145.8 226.75 145.85 221.25 L145.85 219.95 Q148.95 222.95 153.3 223.7 154.25 223.9 155.2 223.4 159.65 220.9 159.5 219.1 159.85 217.35 158.55 215.65 L158.6 215.6 Q157.85 214.6 155.15 213.0 154.35 212.55 153.45 212.65 152.6 212.75 151.9 213.2 L150.8 209.55 150.75 209.5 150.8 209.5 150.8 209.45 150.45 207.9 158.05 212.0 158.1 212.05 160.2 213.35 160.3 213.45 Q161.25 214.1 162.9 216.4 L163.0 216.4 M150.25 204.35 L150.65 203.75 150.9 204.1 150.25 204.35" fill="#889193" fill-rule="evenodd" stroke="none"/>
    <path d="M149.3 227.3 Q148.65 227.15 148.6 226.3 148.5 225.6 148.65 224.95 148.75 224.45 149.15 224.35 L149.3 224.45 149.4 224.55 149.4 225.4 149.45 226.4 Q149.6 226.95 149.3 227.3" fill="#a2a9aa" fill-rule="evenodd" stroke="none"/>
    <path d="M142.9 219.85 L143.5 221.1 143.8 222.1 Q143.25 221.9 142.9 221.1 L142.15 219.7 Q141.65 219.05 142.15 218.75 L142.9 219.85" fill="#a2a9aa" fill-rule="evenodd" stroke="none"/>
    <path d="M148.1 227.75 Q148.0 228.7 147.1 229.45 L146.2 230.2 145.7 230.4 Q142.2 234.0 137.2 233.9 135.3 233.9 134.3 232.45 132.8 230.25 132.3 227.7 L132.0 225.55 Q131.95 224.45 132.65 223.9 L133.0 223.95 Q133.7 225.1 133.15 226.55 133.0 227.05 133.1 227.6 133.6 230.7 135.85 232.7 L136.65 233.0 Q139.35 233.55 141.9 232.25 143.5 231.45 144.7 230.15 146.4 228.3 147.15 225.85 147.15 225.75 147.3 225.8 148.05 226.55 148.1 227.75" fill="#a2a9aa" fill-rule="evenodd" stroke="none"/>
    <path d="M152.55 211.0 L152.65 211.0 Q158.5 212.65 160.25 218.2 160.9 220.25 159.55 221.95 158.15 223.85 156.25 223.25 155.9 223.15 156.2 222.8 L158.25 220.5 Q159.1 219.6 158.7 218.45 157.8 215.5 155.05 213.8 153.2 212.65 152.55 211.0" fill="#a2a9aa" fill-rule="evenodd" stroke="none"/>
    <path d="M136.5 233.3 L136.65 233.35 136.75 233.4 136.75 233.45 136.8 233.65 136.85 233.9 136.85 234.2 136.95 234.4 137.05 234.25 137.2 234.1 137.45 234.15 137.4 234.25 137.3 234.5 137.15 234.7 137.15 234.9 Q137.1 235.0 137.2 235.1 L137.35 235.45 Q137.45 235.7 137.6 235.55 L137.7 235.5 137.8 235.55 137.85 235.85 137.8 236.1 137.7 236.15 Q137.2 236.25 136.95 235.7 L136.55 235.0 136.5 234.85 136.5 234.8 136.45 234.8 136.3 234.85 136.05 234.85 Q135.8 234.65 135.9 234.35 L136.0 233.75 136.4 233.35 136.5 233.3" fill="#a2a9aa" fill-rule="evenodd" stroke="none"/>
    <path d="M139.0 234.8 L139.1 234.8 Q139.45 235.05 139.05 235.4 138.8 235.7 138.45 235.6 137.95 235.5 138.05 235.1 L138.15 235.0 138.35 234.9 138.6 235.0 138.8 234.9 139.0 234.8" fill="#a2a9aa" fill-rule="evenodd" stroke="none"/>
    <path d="M166.6 215.85 L166.95 216.35 Q165.05 213.75 163.85 213.05 162.5 212.1 161.45 211.5 L153.6 207.25 151.3 206.05 Q148.8 205.15 148.9 207.05 148.95 209.0 149.85 212.25 L151.55 217.85 150.95 216.95 Q150.05 214.7 149.25 211.35 148.35 208.1 148.3 206.15 148.2 204.25 150.7 205.15 L153.0 206.35 160.8 210.6 163.2 212.1 Q164.5 212.95 166.6 215.85 M150.8 205.05 L151.05 205.2 150.75 205.1 150.8 205.05 M141.0 219.6 Q139.5 217.05 138.95 215.3 139.5 217.05 142.25 221.5 144.9 225.85 144.65 228.0 L143.35 229.25 141.05 230.5 140.9 230.55 Q138.75 231.0 138.15 229.35 138.9 229.9 140.25 229.65 L140.45 229.6 142.75 228.35 144.05 227.1 Q143.85 224.75 141.0 219.6 M158.5 220.7 Q158.35 221.4 155.7 222.85 153.45 222.5 151.25 220.35 153.0 221.75 155.1 221.95 157.75 220.5 157.85 219.8 L157.8 219.1 158.1 219.4 Q158.6 220.1 158.5 220.7 M151.4 205.9 L151.4 205.95 151.65 206.05 151.4 205.9 M138.9 223.85 Q138.15 223.2 136.35 222.3 L134.35 221.15 134.25 221.1 Q133.1 220.45 132.05 220.8 130.55 221.2 130.0 225.65 129.85 226.4 129.85 227.1 129.5 224.5 129.8 221.85 129.95 220.3 131.4 219.9 132.45 219.6 133.65 220.2 L133.75 220.3 135.75 221.45 Q138.3 222.7 138.7 223.35 L138.9 223.85 M133.15 238.05 L134.25 240.15 Q133.45 239.2 133.05 237.95 L132.95 237.85 133.15 238.05" fill="#c9c9c9" fill-rule="evenodd" stroke="none"/>
    <path d="M145.95 207.3 L146.65 208.25 Q145.15 207.2 143.2 207.2 140.3 207.2 138.25 209.4 136.25 211.65 136.25 214.75 136.25 217.3 137.55 219.25 L136.15 218.0 Q134.15 215.75 134.15 212.65 134.15 209.55 136.15 207.3 138.2 205.05 141.05 205.05 143.95 205.05 145.95 207.3" fill="#000507" fill-opacity="0.36078432" fill-rule="evenodd" stroke="none"/>
    <path d="M68.55 195.25 Q69.0 195.25 69.25 195.6 L69.55 196.35 69.25 197.1 68.55 197.4 Q68.15 197.4 67.9 197.1 67.6 196.8 67.6 196.35 67.6 195.9 67.9 195.6 68.15 195.25 68.55 195.25 M68.65 196.3 L68.5 195.9 68.2 195.7 67.85 195.9 67.75 196.3 67.85 196.7 68.2 196.85 68.5 196.7 68.65 196.3" fill="#546272" fill-rule="evenodd" stroke="none"/>
    <path d="M68.65 196.3 L68.5 196.7 68.2 196.85 67.85 196.7 67.75 196.3 67.85 195.9 68.2 195.7 68.5 195.9 68.65 196.3" fill="#c3c4c6" fill-rule="evenodd" stroke="none"/>
    <path d="M69.05 202.0 Q69.5 202.0 69.75 202.35 L70.05 203.1 69.75 203.85 69.05 204.15 Q68.65 204.15 68.4 203.85 68.1 203.55 68.1 203.1 68.1 202.65 68.4 202.35 68.65 202.0 69.05 202.0 M69.15 203.05 L69.0 202.65 68.7 202.45 68.35 202.65 68.25 203.05 68.35 203.45 68.7 203.6 69.0 203.45 69.15 203.05" fill="#546272" fill-rule="evenodd" stroke="none"/>
    <path d="M69.15 203.05 L69.0 203.45 68.7 203.6 68.35 203.45 68.25 203.05 68.35 202.65 68.7 202.45 69.0 202.65 69.15 203.05" fill="#c3c4c6" fill-rule="evenodd" stroke="none"/>
    <path d="M69.95 207.65 Q70.4 207.65 70.65 208.0 L70.95 208.75 70.65 209.5 69.95 209.8 Q69.55 209.8 69.3 209.5 69.0 209.2 69.0 208.75 69.0 208.3 69.3 208.0 69.55 207.65 69.95 207.65 M70.05 208.7 L69.9 208.3 69.6 208.1 69.25 208.3 69.15 208.7 69.25 209.1 Q69.4 209.25 69.6 209.25 L69.9 209.1 70.05 208.7" fill="#546272" fill-rule="evenodd" stroke="none"/>
    <path d="M70.05 208.7 L69.9 209.1 69.6 209.25 Q69.4 209.25 69.25 209.1 L69.15 208.7 69.25 208.3 69.6 208.1 69.9 208.3 70.05 208.7" fill="#c3c4c6" fill-rule="evenodd" stroke="none"/>
    <path d="M184.4 163.95 L183.9 165.7 Q85.9 210.55 6.4 292.1 L6.35 291.7 Q85.25 209.7 184.4 163.95" fill="#4d5b85" fill-rule="evenodd" stroke="none"/>
    <path d="M198.7 330.25 L200.3 326.45 202.0 323.2 Q203.9 320.3 206.6 320.0 209.25 320.3 210.5 323.6 210.9 324.55 210.5 325.5 209.5 327.85 207.25 327.1 204.75 326.2 202.6 327.35 201.2 328.05 201.7 329.9 L198.7 330.3 198.7 330.25" fill="#89b5d4" fill-rule="evenodd" stroke="none"/>
  </g>
  <defs>
    <linearGradient gradientTransform="matrix(0.0021, 0.008, -0.024, 0.0069, 147.45, 240.2)" gradientUnits="userSpaceOnUse" id="gradient0" spreadMethod="pad" x1="-819.2" x2="819.2">
      <stop offset="0.1803921568627451" stop-color="#000000" stop-opacity="0.5294118"/>
      <stop offset="0.9921568627450981" stop-color="#000000" stop-opacity="0.21960784"/>
    </linearGradient>
  </defs>
</svg>
