<?xml version="1.0" encoding="UTF-8" standalone="no"?>
<svg xmlns:ffdec="https://www.free-decompiler.com/flash" xmlns:xlink="http://www.w3.org/1999/xlink" ffdec:objectType="shape" height="27.8px" width="42.6px" xmlns="http://www.w3.org/2000/svg">
  <g transform="matrix(1.0, 0.0, 0.0, 1.0, 0.0, 0.0)">
    <path d="M25.4 14.2 L25.35 14.35 25.4 14.3 25.4 14.2 M10.35 3.7 Q21.3 -3.7 33.05 3.9 38.0 7.2 41.2 27.75 38.5 16.25 38.4 18.05 L38.35 18.0 Q34.45 13.6 25.25 14.65 L24.85 15.5 Q24.35 16.35 22.9 17.4 21.5 18.35 19.55 17.8 18.6 17.5 17.15 15.75 17.15 17.85 16.7 18.5 15.75 19.85 11.6 18.95 9.4 18.45 7.45 16.2 5.35 13.95 5.95 10.7 6.6 7.4 7.65 6.25 L10.35 3.7" fill="#333333" fill-opacity="0.2901961" fill-rule="evenodd" stroke="none"/>
    <path d="M19.2 16.7 Q18.75 17.55 17.45 18.35 16.05 19.1 14.55 19.0 13.1 18.8 11.55 16.95 11.65 19.2 11.2 19.95 10.35 21.4 6.15 20.4 3.95 19.9 1.8 17.45 -0.35 15.0 0.1 11.5 0.5 7.95 1.55 6.7 L4.05 3.95 Q14.5 -4.05 26.7 4.2 38.4 12.05 41.55 26.2 L42.55 26.65 Q43.5 29.0 32.0 26.65 L31.45 26.25 Q31.8 25.15 33.55 24.05 34.5 13.75 19.5 14.55 19.55 15.7 19.2 16.7" fill="#609bc5" fill-rule="evenodd" stroke="none"/>
    <path d="M25.5 12.15 L27.3 12.45 Q30.65 13.65 32.75 16.45 34.15 18.3 34.5 20.45 35.0 22.9 34.4 25.3 34.25 26.25 33.25 25.75 32.95 25.65 33.15 25.4 34.2 23.7 33.9 21.6 33.35 18.45 30.9 16.45 29.75 15.45 28.4 15.2 L19.65 14.15 18.35 16.85 17.65 17.65 Q15.9 18.9 13.7 18.25 12.3 17.85 11.8 16.8 L11.9 16.75 14.6 16.3 Q15.65 16.3 16.6 15.6 L17.5 14.45 17.8 13.8 Q18.05 13.3 17.9 12.7 L17.9 12.6 18.1 12.35 18.15 12.35 Q19.1 12.35 19.6 11.7 L19.95 11.85 20.1 11.9 Q21.05 12.5 22.25 12.5 L23.95 12.05 24.05 12.1 24.7 12.25 25.35 12.15 25.5 12.15 M25.85 12.75 L25.8 12.75 25.9 12.8 25.95 12.85 26.1 12.85 26.0 12.8 25.95 12.75 25.85 12.75 M22.75 13.65 L22.55 13.65 22.75 13.7 22.85 13.7 23.35 13.75 22.75 13.65 M10.6 14.45 L10.45 14.05 10.6 14.15 10.6 14.45 M31.2 15.9 L31.6 16.1 31.3 15.85 31.0 15.65 30.65 15.35 Q30.6 15.6 30.9 15.7 L31.2 15.9" fill="#477ea6" fill-rule="evenodd" stroke="none"/>
    <path d="M17.9 1.45 Q19.1 1.8 20.65 2.9 L21.2 3.3 20.65 3.1 Q18.55 2.15 18.1 2.25 L17.45 2.45 17.05 2.95 16.95 3.2 15.25 3.8 Q14.65 3.7 14.25 4.45 L14.15 4.5 Q13.3 5.9 13.55 7.5 13.65 8.25 13.05 8.6 12.1 7.9 11.3 8.15 10.4 8.2 9.7 9.25 L9.55 9.5 Q9.4 10.0 9.55 10.55 L9.95 11.8 9.95 11.75 Q10.1 12.3 9.75 12.85 L9.7 12.9 9.5 13.8 9.4 15.1 Q9.3 15.45 8.8 15.4 L8.85 15.45 Q8.15 15.25 7.45 15.85 L7.15 16.2 7.05 16.65 Q7.05 17.8 6.45 18.65 3.15 18.9 1.5 16.25 L1.2 15.75 1.2 15.7 Q0.05 14.15 0.15 12.25 0.25 7.9 3.5 5.1 L3.5 5.15 4.45 4.4 Q8.8 1.65 14.1 1.15 L14.15 1.15 17.95 1.45 17.9 1.45" fill="#bad8ee" fill-rule="evenodd" stroke="none"/>
  </g>
</svg>
