<?xml version="1.0" encoding="UTF-8" standalone="no"?>
<svg xmlns:ffdec="https://www.free-decompiler.com/flash" xmlns:xlink="http://www.w3.org/1999/xlink" ffdec:objectType="shape" height="14.95px" width="29.35px" xmlns="http://www.w3.org/2000/svg">
  <g transform="matrix(1.0, 0.0, 0.0, 1.0, 0.0, 0.0)">
    <path d="M7.35 14.95 L6.35 14.65 3.75 14.5 Q6.55 14.3 7.35 14.95 M0.05 14.05 Q-0.35 13.1 2.0 10.15 5.55 5.65 7.35 4.3 13.15 -0.05 20.25 0.0 26.95 1.1 29.15 6.7 29.8 8.4 28.5 9.8 25.05 13.45 19.65 11.75 13.4 9.75 7.6 11.15 5.9 11.55 0.05 14.05" fill="#89b5d4" fill-rule="evenodd" stroke="none"/>
    <path d="M15.4 0.8 L19.6 0.1 Q24.1 -0.25 27.05 3.05 29.85 6.3 27.4 9.35 26.9 9.9 26.1 10.15 24.1 10.6 23.15 8.65 L22.8 7.9 22.5 7.3 Q20.25 6.75 18.35 5.1 18.0 4.75 17.35 4.85 L16.85 5.05 Q16.3 5.15 13.9 3.9 11.45 2.65 13.25 1.8 L15.4 0.8" fill="#bad8ee" fill-rule="evenodd" stroke="none"/>
  </g>
</svg>
