<?xml version="1.0" encoding="UTF-8" standalone="no"?>
<svg xmlns:ffdec="https://www.free-decompiler.com/flash" xmlns:xlink="http://www.w3.org/1999/xlink" ffdec:objectType="shape" height="153.35px" width="257.3px" xmlns="http://www.w3.org/2000/svg">
  <g transform="matrix(1.0, 0.0, 0.0, 1.0, -16.65, -17.65)">
    <path d="M182.55 126.65 L182.6 126.55 182.6 126.4 182.65 126.4 182.95 126.35 182.95 126.3 183.1 126.35 183.15 126.5 183.15 126.55 183.2 126.55 183.05 126.8 183.0 126.95 182.8 126.9 182.6 126.75 182.55 126.65" fill="#e0e0e0" fill-rule="evenodd" stroke="none"/>
    <path d="M255.05 102.9 L258.6 102.25 258.85 103.0 258.65 103.05 258.3 103.1 258.05 103.0 255.05 102.9 M208.35 117.75 L209.0 117.6 209.6 117.5 209.65 117.5 208.85 117.7 208.35 117.75" fill="#746969" fill-rule="evenodd" stroke="none"/>
    <path d="M261.75 112.25 L263.8 118.85 261.4 119.6 261.5 119.5 261.6 119.3 261.65 119.0 261.65 118.65 261.55 118.4 263.55 117.95 262.9 116.0 261.7 117.1 Q260.6 118.05 241.8 123.7 222.95 129.4 210.25 133.45 L185.45 141.0 Q177.35 143.3 166.95 144.85 156.6 146.35 152.5 137.25 L152.3 137.5 152.25 138.0 Q152.35 136.5 152.75 135.0 153.7 131.6 156.3 127.75 157.65 125.85 159.15 124.25 159.25 124.55 157.8 126.9 L157.1 128.4 Q156.05 130.05 156.45 131.55 L156.4 133.4 Q156.4 135.7 158.5 137.2 L159.25 137.65 162.15 138.8 162.95 139.05 Q168.2 140.15 180.15 137.4 L180.8 137.25 181.4 137.1 185.8 135.9 Q185.9 135.8 186.1 135.8 L186.55 135.7 Q203.55 130.9 234.7 121.5 259.1 114.2 261.75 112.25 M265.6 124.5 L265.8 125.35 Q241.5 134.6 220.45 140.7 198.5 148.6 181.55 152.35 174.45 153.95 169.05 153.05 151.65 149.55 152.15 138.65 152.15 141.95 153.55 144.3 158.4 149.7 166.25 150.8 176.05 152.15 182.3 150.4 L203.2 144.25 Q217.8 139.95 234.05 134.4 250.3 128.8 254.6 127.55 259.8 126.55 264.65 124.85 L265.6 124.5 M218.7 128.3 L213.95 130.1 Q210.7 131.15 208.0 132.65 L210.15 132.25 214.9 130.8 Q217.8 130.0 218.7 128.3" fill="#564f4f" fill-rule="evenodd" stroke="none"/>
    <path d="M259.55 105.25 L259.7 105.65 258.9 105.8 257.95 105.95 Q256.65 108.1 253.65 108.65 240.55 111.25 259.55 105.25 254.1 106.35 259.0 103.5 L259.15 104.0 259.25 104.35 259.55 105.25 M159.15 124.25 Q162.25 121.15 165.9 119.7 L166.1 119.6 166.3 119.5 166.4 119.5 166.6 119.45 166.85 119.35 166.9 119.3 255.05 102.9 258.05 103.0 258.3 103.1 258.65 103.05 258.85 103.0 258.9 103.0 259.0 103.5 Q226.2 108.9 219.4 110.8 212.5 112.6 200.85 114.85 L178.35 119.45 Q163.3 122.25 161.1 123.95 158.65 125.9 157.1 128.4 L157.8 126.9 Q159.25 124.55 159.15 124.25 M254.6 110.9 L250.85 111.95 249.25 112.35 Q250.6 111.35 252.35 110.9 L255.45 110.0 Q255.65 110.65 254.6 110.9 M252.75 109.8 L250.25 110.5 Q251.05 109.7 252.2 109.25 L255.15 108.6 Q255.55 109.3 254.4 109.4 L252.75 109.8 M256.25 113.25 L254.4 114.3 250.0 115.85 248.45 116.0 Q250.35 115.05 252.6 114.35 L256.1 113.1 256.15 113.2 256.25 113.25 M253.25 111.65 L253.3 111.75 253.35 111.75 Q252.15 112.65 250.5 113.15 L248.05 113.85 248.05 113.8 250.8 112.5 253.15 111.65 253.25 111.65 M253.85 113.3 L253.95 113.5 249.3 115.1 245.6 116.0 Q247.4 114.85 249.6 114.2 L253.1 113.2 253.6 113.15 253.85 113.3 M252.0 124.9 Q253.4 124.05 255.1 123.45 L257.55 122.65 Q257.6 123.35 256.5 123.7 L253.1 124.75 252.0 124.9 M251.1 123.6 Q253.4 122.7 255.7 122.1 255.25 122.75 254.05 123.15 251.3 124.05 248.7 125.3 L246.4 125.85 Q248.55 124.6 251.1 123.6 M251.0 122.9 Q251.9 122.2 253.05 121.6 254.2 121.1 255.3 120.85 L254.45 121.65 Q253.15 122.15 251.9 122.85 L251.0 122.9 M233.45 116.55 Q231.45 117.15 229.7 117.95 L227.9 118.05 231.25 116.7 Q232.75 116.1 234.25 115.8 234.25 116.3 233.45 116.55 M232.5 118.4 L229.3 119.3 228.05 119.5 Q229.45 118.85 231.05 118.35 L233.55 117.55 Q233.55 118.1 232.5 118.4 M234.1 119.0 Q234.05 119.6 233.0 119.85 L229.85 120.85 228.85 120.95 Q230.0 120.15 231.45 119.7 L234.1 119.0 M227.5 122.75 L232.0 121.25 236.05 119.95 Q235.85 120.5 234.8 120.75 232.25 121.35 229.85 122.35 228.6 122.95 227.5 122.75 M218.7 128.3 Q217.8 130.0 214.9 130.8 L210.15 132.25 208.0 132.65 Q210.7 131.15 213.95 130.1 L218.7 128.3 M256.35 124.3 L258.7 123.55 Q258.6 124.1 257.6 124.5 L256.55 124.9 253.3 125.7 253.35 125.65 Q254.65 124.8 256.35 124.3 M162.15 138.8 L159.25 137.65 158.5 137.2 Q157.7 135.85 157.55 133.85 157.35 131.45 158.75 130.05 158.4 132.85 159.85 135.3 L162.15 138.8 M175.65 130.75 L175.05 130.9 Q168.5 132.05 162.5 134.75 L161.1 134.7 Q165.75 131.3 171.75 130.25 L187.05 127.7 Q187.35 129.05 184.95 129.4 L177.25 130.45 175.65 130.75" fill="#5d5656" fill-rule="evenodd" stroke="none"/>
    <path d="M263.8 118.85 L265.6 124.5 264.65 124.85 Q259.8 126.55 254.6 127.55 250.3 128.8 234.05 134.4 217.8 139.95 203.2 144.25 L182.3 150.4 Q176.05 152.15 166.25 150.8 158.4 149.7 153.55 144.3 152.15 141.95 152.15 138.65 L152.25 138.0 152.3 137.5 152.5 137.25 Q156.6 146.35 166.95 144.85 177.35 143.3 185.45 141.0 L210.25 133.45 Q222.95 129.4 241.8 123.7 260.6 118.05 261.7 117.1 L262.9 116.0 263.55 117.95 261.55 118.4 261.65 118.65 261.65 119.0 261.6 119.3 261.5 119.5 261.4 119.6 263.8 118.85 M251.0 122.9 L251.9 122.85 Q253.15 122.15 254.45 121.65 L255.3 120.85 Q254.2 121.1 253.05 121.6 251.9 122.2 251.0 122.9 M251.1 123.6 Q248.55 124.6 246.4 125.85 L248.7 125.3 Q251.3 124.05 254.05 123.15 255.25 122.75 255.7 122.1 253.4 122.7 251.1 123.6 M252.0 124.9 L253.1 124.75 256.5 123.7 Q257.6 123.35 257.55 122.65 L255.1 123.45 Q253.4 124.05 252.0 124.9 M256.35 124.3 Q254.65 124.8 253.35 125.65 L253.3 125.7 256.55 124.9 257.6 124.5 Q258.6 124.1 258.7 123.55 L256.35 124.3" fill="#483f3f" fill-rule="evenodd" stroke="none"/>
    <path d="M164.0 125.2 Q164.25 124.05 169.55 122.6 174.85 121.05 177.95 121.25 181.0 121.65 175.65 124.0 L171.75 125.2 Q166.75 126.8 165.25 126.6 163.65 126.35 164.0 125.2" fill="#aaa2a2" fill-rule="evenodd" stroke="none"/>
    <path d="M186.1 135.8 Q185.9 135.8 185.8 135.9 L185.4 134.9 Q184.5 133.6 182.95 133.1 179.85 132.15 176.6 131.6 175.7 131.45 175.05 130.9 L175.65 130.75 Q177.1 131.65 179.05 131.7 182.8 131.85 185.25 134.35 186.05 135.1 186.1 135.8 M181.4 137.1 L180.8 137.25 180.15 137.4 Q179.35 137.15 178.5 136.7 175.65 135.25 172.65 134.4 L172.6 134.35 Q172.9 134.05 173.3 134.2 L176.3 135.4 178.75 136.35 181.4 137.1" fill="#855b1c" fill-rule="evenodd" stroke="none"/>
    <path d="M247.6 108.8 Q247.95 109.3 243.4 110.65 L231.6 113.85 214.3 118.25 Q204.3 120.7 195.45 122.2 186.6 123.65 179.05 125.7 L166.35 128.85 Q161.9 129.75 161.25 127.7 L161.15 126.85 161.15 126.5 Q161.5 124.85 164.3 123.5 L181.4 119.15 184.45 118.7 184.8 118.6 194.15 116.9 194.75 116.75 198.65 116.1 216.25 113.0 Q230.15 110.7 239.25 108.65 246.95 106.9 247.2 107.85 L247.15 108.1 247.15 108.25 247.6 108.8 M164.0 125.2 Q163.65 126.35 165.25 126.6 166.75 126.8 171.75 125.2 L175.65 124.0 Q181.0 121.65 177.95 121.25 174.85 121.05 169.55 122.6 164.25 124.05 164.0 125.2 M208.35 117.75 L208.85 117.7 209.65 117.5 209.6 117.5 209.0 117.6 208.35 117.75" fill="#8d8080" fill-rule="evenodd" stroke="none"/>
    <path d="M259.55 105.25 L260.25 105.05 259.55 105.25 Q240.55 111.25 253.65 108.65 256.65 108.1 257.95 105.95 L258.9 105.8 259.7 105.65 260.75 109.15 Q267.75 107.4 266.3 109.3 265.8 109.9 261.55 111.6 262.5 111.65 261.75 112.25 259.1 114.2 234.7 121.5 203.55 130.9 186.55 135.7 L186.1 135.8 Q186.05 135.1 185.25 134.35 182.8 131.85 179.05 131.7 177.1 131.65 175.65 130.75 L177.25 130.45 184.95 129.4 Q187.35 129.05 187.05 127.7 L171.75 130.25 Q165.75 131.3 161.1 134.7 L162.5 134.75 Q168.5 132.05 175.05 130.9 175.7 131.45 176.6 131.6 179.85 132.15 182.95 133.1 184.5 133.6 185.4 134.9 L185.8 135.9 181.4 137.1 178.75 136.35 176.3 135.4 173.3 134.2 Q172.9 134.05 172.6 134.35 L172.65 134.4 Q175.65 135.25 178.5 136.7 179.35 137.15 180.15 137.4 168.2 140.15 162.95 139.05 L162.15 138.8 159.85 135.3 Q158.4 132.85 158.75 130.05 157.35 131.45 157.55 133.85 157.7 135.85 158.5 137.2 156.4 135.7 156.4 133.4 L156.45 131.55 Q156.05 130.05 157.1 128.4 158.65 125.9 161.1 123.95 163.3 122.25 178.35 119.45 L200.85 114.85 Q212.5 112.6 219.4 110.8 226.2 108.9 259.0 103.5 L259.1 103.5 259.0 103.5 Q254.1 106.35 259.55 105.25 M247.6 108.8 L247.15 108.25 247.15 108.1 247.2 107.85 Q246.95 106.9 239.25 108.65 230.15 110.7 216.25 113.0 L198.65 116.1 194.75 116.75 194.15 116.9 184.8 118.6 184.45 118.7 181.4 119.15 164.3 123.5 Q161.5 124.85 161.15 126.5 L161.15 126.85 161.25 127.7 Q161.9 129.75 166.35 128.85 L179.05 125.7 Q186.6 123.65 195.45 122.2 204.3 120.7 214.3 118.25 L231.6 113.85 243.4 110.65 Q247.95 109.3 247.6 108.8 M253.85 113.3 L253.6 113.15 253.1 113.2 249.6 114.2 Q247.4 114.85 245.6 116.0 L249.3 115.1 253.95 113.5 253.85 113.3 M253.25 111.65 L253.15 111.65 250.8 112.5 248.05 113.8 248.05 113.85 250.5 113.15 Q252.15 112.65 253.35 111.75 L253.3 111.75 253.25 111.65 M256.25 113.25 L256.15 113.2 256.1 113.1 252.6 114.35 Q250.35 115.05 248.45 116.0 L250.0 115.85 254.4 114.3 256.25 113.25 M252.75 109.8 L254.4 109.4 Q255.55 109.3 255.15 108.6 L252.2 109.25 Q251.05 109.7 250.25 110.5 L252.75 109.8 M254.6 110.9 Q255.65 110.65 255.45 110.0 L252.35 110.9 Q250.6 111.35 249.25 112.35 L250.85 111.95 254.6 110.9 M227.5 122.75 Q228.6 122.95 229.85 122.35 232.25 121.35 234.8 120.75 235.85 120.5 236.05 119.95 L232.0 121.25 227.5 122.75 M234.1 119.0 L231.45 119.7 Q230.0 120.15 228.85 120.95 L229.85 120.85 233.0 119.85 Q234.05 119.6 234.1 119.0 M232.5 118.4 Q233.55 118.1 233.55 117.55 L231.05 118.35 Q229.45 118.85 228.05 119.5 L229.3 119.3 232.5 118.4 M233.45 116.55 Q234.25 116.3 234.25 115.8 232.75 116.1 231.25 116.7 L227.9 118.05 229.7 117.95 Q231.45 117.15 233.45 116.55" fill="#766767" fill-rule="evenodd" stroke="none"/>
    <path d="M255.0 100.05 L254.85 100.05 254.95 100.05 255.0 100.05" fill="#746969" fill-rule="evenodd" stroke="none"/>
    <path d="M260.25 102.35 L260.35 102.6 260.4 102.65 260.5 102.8 261.05 103.65 Q263.45 107.4 264.9 113.15 266.35 119.0 265.85 123.7 L265.1 123.3 Q265.0 122.85 264.7 122.55 264.05 122.05 263.45 121.9 263.55 121.3 263.05 120.9 L262.4 120.4 Q263.1 119.9 263.3 119.05 263.55 117.95 262.4 117.45 261.6 117.3 260.9 117.85 257.95 120.25 255.05 117.55 L254.35 117.15 254.55 117.75 254.05 115.85 Q253.25 112.75 253.1 110.1 L253.0 109.95 Q253.95 111.4 256.55 111.6 261.15 108.3 260.25 102.35 M266.05 127.85 L266.35 128.55 267.05 129.5 263.1 129.6 Q261.9 129.85 260.55 128.75 261.4 128.7 262.25 128.3 264.35 128.95 265.95 127.85 L266.05 127.85" fill="#564f4f" fill-rule="evenodd" stroke="none"/>
    <path d="M258.8 96.55 L259.2 96.2 259.4 96.15 259.7 96.2 259.9 96.4 259.9 96.65 Q259.55 98.5 260.2 100.3 L260.55 101.0 261.15 102.15 261.25 102.3 261.8 103.15 Q264.3 107.0 265.75 112.9 267.35 119.4 266.75 124.5 266.35 127.55 267.8 128.9 L267.3 128.35 266.85 128.4 266.35 128.55 266.05 127.85 Q265.7 126.8 265.75 125.45 L265.8 124.4 265.8 124.3 265.85 123.7 Q266.35 119.0 264.9 113.15 263.45 107.4 261.05 103.65 L260.5 102.8 260.4 102.65 260.35 102.6 260.25 102.35 259.7 101.45 259.35 100.6 Q258.85 99.3 258.85 97.9 259.7 97.4 259.35 96.85 L259.2 96.65 258.95 96.45 Q258.9 96.45 258.8 96.55 M261.0 130.15 L260.1 129.6 261.0 129.95 261.0 130.15 M252.2 110.45 L252.15 110.05 252.2 110.15 252.4 109.9 Q252.2 110.0 252.15 110.25 L252.2 110.45 M253.0 109.95 L253.1 110.1 253.05 110.1 253.0 110.05 253.0 109.95" fill="#49079a" fill-rule="evenodd" stroke="none"/>
    <path d="M266.35 128.55 L266.85 128.4 267.3 128.35 267.8 128.9 268.65 129.5 268.7 129.55 268.95 129.8 268.95 130.1 268.8 130.3 268.5 130.45 263.35 130.45 261.0 130.15 261.0 129.95 260.1 129.6 Q258.9 128.55 257.65 126.75 254.7 122.55 253.2 116.05 252.4 113.05 252.2 110.45 L252.15 110.25 Q252.2 110.0 252.4 109.9 L252.45 109.9 252.75 109.9 253.0 110.05 253.05 110.1 253.1 110.1 Q253.25 112.75 254.05 115.85 L254.55 117.75 256.0 121.8 256.05 121.95 256.15 122.1 256.25 122.4 256.6 123.1 256.9 123.65 257.5 124.85 258.05 125.75 258.4 126.25 Q259.45 127.9 260.55 128.75 261.9 129.85 263.1 129.6 L267.05 129.5 266.35 128.55" fill="#382b2b" fill-rule="evenodd" stroke="none"/>
    <path d="M258.8 96.55 Q258.9 96.45 258.95 96.45 L259.2 96.65 257.85 97.8 255.25 100.0 255.15 100.05 255.05 100.05 255.1 100.1 255.0 100.1 254.9 100.15 254.85 100.25 253.45 103.65 253.25 104.45 253.15 105.05 253.05 106.2 253.05 106.25 Q252.85 107.35 252.95 108.6 L253.0 109.95 253.0 110.05 252.75 109.9 252.45 109.9 252.4 109.9 252.2 110.15 252.15 110.05 252.1 108.65 252.1 106.1 252.15 106.15 252.25 104.95 252.35 104.3 252.35 104.25 252.55 103.3 252.55 103.25 254.1 99.8 254.15 99.65 254.4 99.5 254.65 99.25 254.7 99.3 254.8 99.25 Q254.85 99.15 254.95 99.2 L258.8 96.55 M259.35 96.85 Q259.7 97.4 258.85 97.9 L258.9 97.6 259.35 96.85 M255.2 99.15 L255.1 99.15 255.2 99.15 M255.0 100.05 L254.95 100.05 254.85 100.05 255.0 100.05" fill="#4a3d3d" fill-rule="evenodd" stroke="none"/>
    <path d="M265.85 123.7 L265.8 124.3 265.8 124.4 265.75 125.45 Q265.7 126.8 266.05 127.85 L265.95 127.85 Q264.35 128.95 262.25 128.3 261.4 128.7 260.55 128.75 259.45 127.9 258.4 126.25 L258.05 125.75 257.5 124.85 256.9 123.65 256.6 123.1 256.25 122.4 256.15 122.1 256.05 121.95 256.0 121.8 254.55 117.75 254.35 117.15 255.05 117.55 Q257.95 120.25 260.9 117.85 261.6 117.3 262.4 117.45 263.55 117.95 263.3 119.05 263.1 119.9 262.4 120.4 L263.05 120.9 Q263.55 121.3 263.45 121.9 264.05 122.05 264.7 122.55 265.0 122.85 265.1 123.3 L265.85 123.7" fill="#483f3f" fill-rule="evenodd" stroke="none"/>
    <path d="M259.2 96.65 L259.35 96.85 258.9 97.6 258.85 97.9 Q258.85 99.3 259.35 100.6 L259.7 101.45 260.25 102.35 Q261.15 108.3 256.55 111.6 253.95 111.4 253.0 109.95 L252.95 108.6 Q252.85 107.35 253.05 106.25 L253.05 106.2 253.15 105.05 253.25 104.45 253.45 103.65 254.85 100.25 254.9 100.15 255.0 100.1 255.1 100.1 255.05 100.05 255.15 100.05 255.25 100.0 257.85 97.8 259.2 96.65" fill="#766767" fill-rule="evenodd" stroke="none"/>
    <path d="M192.1 115.1 L192.0 115.65 192.0 116.35 192.05 118.5 Q192.3 129.15 195.7 137.8 L195.8 138.0 196.65 140.05 198.9 144.35 Q199.35 145.2 199.5 147.0 L199.35 147.25 Q198.65 147.35 196.9 148.25 L195.7 148.7 Q195.0 148.85 194.75 149.2 L194.15 148.35 192.25 145.2 Q190.95 142.8 189.95 140.2 L189.65 139.45 189.65 139.4 Q188.65 136.5 187.9 133.4 186.9 129.55 186.55 125.35 L186.5 125.2 Q186.05 120.7 186.2 115.85 L186.25 115.65 186.9 115.65 Q189.3 115.45 191.15 114.7 191.8 114.6 192.1 115.1" fill="#3a1717" fill-rule="evenodd" stroke="none"/>
    <path d="M190.25 113.95 L191.4 114.45 191.35 116.0 191.3 116.75 191.35 118.9 Q191.7 129.55 195.05 138.2 L195.15 138.35 196.0 140.45 198.25 144.75 199.25 146.4 199.8 147.3 Q200.15 148.15 199.3 148.95 L194.75 150.6 193.45 148.7 191.6 145.6 Q190.25 143.2 189.3 140.55 L188.95 139.8 188.95 139.75 Q187.95 136.9 187.2 133.8 186.25 129.9 185.85 125.7 L185.85 125.6 Q185.4 121.05 185.55 116.25 L185.55 115.6 186.5 115.3 189.8 113.95 190.25 113.95" fill="#4a2a2a" fill-rule="evenodd" stroke="none"/>
    <path d="M190.8 129.2 Q191.65 133.7 193.1 137.75 L193.15 137.95 193.15 138.05 193.45 138.8 193.1 138.05 191.85 139.55 Q190.7 140.65 189.1 140.5 L187.55 140.05 187.55 140.1 187.45 140.35 187.5 140.6 187.4 140.35 187.15 139.65 187.0 139.25 185.7 134.6 186.3 135.3 185.7 132.25 Q185.1 128.55 185.15 124.85 L185.2 124.9 Q185.55 129.05 186.35 133.25 L186.9 135.65 187.5 135.6 Q186.9 133.65 186.65 131.65 186.25 128.05 186.45 124.6 L186.45 124.55 187.4 132.85 187.9 135.5 188.95 135.15 188.25 132.15 Q187.75 129.55 187.7 126.95 187.7 125.95 188.0 125.3 188.2 129.45 189.15 133.6 L189.45 134.9 190.05 134.65 189.4 131.5 Q188.65 127.95 189.1 124.4 L189.2 124.4 Q189.3 128.55 190.2 132.7 L190.6 134.35 Q191.6 133.65 191.3 131.9 L190.8 129.25 190.8 129.2 M198.05 147.8 L198.6 148.65 198.7 149.25 198.25 149.6 193.9 151.2 193.1 151.25 192.0 149.6 192.3 150.0 Q194.6 150.15 196.65 149.0 198.0 148.3 198.05 147.8" fill="#412727" fill-rule="evenodd" stroke="none"/>
    <path d="M190.0 122.2 Q190.2 125.8 190.8 129.2 L190.8 129.25 191.3 131.9 Q191.6 133.65 190.6 134.35 L190.2 132.7 Q189.3 128.55 189.2 124.4 L189.1 124.4 Q188.65 127.95 189.4 131.5 L190.05 134.65 189.45 134.9 189.15 133.6 Q188.2 129.45 188.0 125.3 187.7 125.95 187.7 126.95 187.75 129.55 188.25 132.15 L188.95 135.15 187.9 135.5 187.4 132.85 186.45 124.55 186.45 124.6 Q186.25 128.05 186.65 131.65 186.9 133.65 187.5 135.6 L186.9 135.65 186.35 133.25 Q185.55 129.05 185.2 124.9 L185.15 124.85 Q185.1 128.55 185.7 132.25 L186.3 135.3 185.7 134.6 Q184.75 130.8 184.3 126.55 L184.35 126.4 184.15 124.15 186.6 123.7 189.8 122.95 190.0 122.6 190.0 122.2 M184.05 121.5 Q183.95 120.1 184.0 118.7 L184.0 118.95 184.05 121.5" fill="#664343" fill-rule="evenodd" stroke="none"/>
    <path d="M193.45 138.8 L193.55 139.05 193.6 139.2 194.45 141.3 196.7 145.6 197.7 147.25 198.05 147.8 Q198.0 148.3 196.65 149.0 194.6 150.15 192.3 150.0 L192.0 149.6 190.05 146.4 Q188.75 144.05 187.75 141.4 L187.5 140.65 187.5 140.6 187.45 140.35 187.55 140.1 187.55 140.05 189.1 140.5 Q190.7 140.65 191.85 139.55 L193.1 138.05 193.45 138.8" fill="#311a1a" fill-rule="evenodd" stroke="none"/>
    <path d="M184.0 118.6 Q184.0 118.25 184.25 118.4 L187.1 118.0 189.45 117.45 189.8 118.1 189.85 118.5 189.9 119.7 189.85 120.1 190.0 122.2 190.0 122.6 189.8 122.95 186.6 123.7 184.15 124.15 184.0 124.15 184.15 124.1 184.15 123.95 184.1 122.8 184.05 121.6 184.05 121.5 184.0 118.95 184.0 118.7 184.0 118.6" fill="#7e5151" fill-rule="evenodd" stroke="none"/>
    <path d="M184.0 118.6 L184.0 117.05 184.05 116.35 184.05 115.5 Q184.15 115.0 185.15 114.65 L189.5 114.0 Q189.85 114.0 189.9 114.15 L189.95 114.6 189.85 116.85 189.8 117.6 189.85 118.5 189.8 118.1 189.45 117.45 187.1 118.0 184.25 118.4 Q184.0 118.25 184.0 118.6" fill="#6c3d3d" fill-rule="evenodd" stroke="none"/>
    <path d="M259.55 97.55 Q260.35 96.25 261.6 95.9 L261.75 95.85 263.1 95.9 264.4 96.6 Q262.65 96.3 261.5 97.05 L261.45 96.8 261.75 96.65 262.0 96.6 262.75 96.15 262.65 96.0 262.55 96.0 261.85 96.2 261.6 96.3 261.25 96.4 261.2 96.4 261.0 96.45 Q260.1 96.85 259.55 97.55 M261.25 121.1 Q260.3 118.75 259.55 116.0 L259.5 115.8 259.3 114.85 Q257.55 107.7 258.2 102.15 258.3 100.95 258.55 100.05 258.45 100.6 258.65 101.1 L258.7 101.15 258.4 102.45 Q258.3 103.3 258.65 103.8 L259.0 101.65 259.2 100.7 259.1 100.8 259.7 99.95 Q258.8 102.75 258.95 106.55 259.0 110.85 260.2 116.25 261.5 121.7 263.2 124.3 L263.9 125.25 263.5 124.85 262.0 122.6 261.25 121.1" fill="#a1a1a1" fill-rule="evenodd" stroke="none"/>
    <path d="M258.55 100.05 Q258.9 98.5 259.55 97.55 260.1 96.85 261.0 96.45 L261.2 96.4 261.25 96.4 261.6 96.3 261.85 96.2 262.55 96.0 262.65 96.0 262.75 96.15 262.0 96.6 261.75 96.65 261.45 96.8 261.5 97.05 Q260.45 97.75 259.95 99.2 L259.7 99.95 259.1 100.8 259.2 100.7 259.0 101.65 258.65 103.8 Q258.3 103.3 258.4 102.45 L258.7 101.15 258.65 101.1 Q258.45 100.6 258.55 100.05" fill="#e0e0e0" fill-rule="evenodd" stroke="none"/>
    <path d="M263.1 95.9 Q265.2 96.45 267.45 99.8 270.65 104.4 272.4 111.55 274.15 118.7 273.45 124.3 272.85 129.85 270.1 130.5 267.4 131.2 264.2 126.65 262.5 124.2 261.25 121.1 L262.0 122.6 263.5 124.85 263.9 125.25 263.2 124.3 Q261.5 121.7 260.2 116.25 259.0 110.85 258.95 106.55 258.8 102.75 259.7 99.95 L259.95 99.2 Q260.45 97.75 261.5 97.05 262.65 96.3 264.4 96.6 L263.1 95.9" fill="#766767" fill-rule="evenodd" stroke="none"/>
    <path d="M261.05 106.3 Q261.05 104.6 261.2 103.1 261.65 98.5 263.75 98.0 265.9 97.45 268.4 101.3 269.55 103.1 270.55 105.35 268.7 106.7 267.0 108.35 267.3 108.05 266.8 109.45 266.15 110.8 264.75 111.15 263.3 111.45 262.65 110.05 L261.55 107.95 Q261.15 107.3 261.05 106.3 M271.75 108.8 L272.4 111.15 Q273.2 114.45 273.4 117.3 L273.25 117.4 270.9 121.45 270.65 120.5 Q270.35 119.7 269.5 119.55 L268.4 116.45 266.75 112.55 269.65 110.5 271.75 108.8 M272.55 125.3 Q271.85 126.55 270.8 126.8 269.9 127.0 268.95 126.4 L269.4 126.5 271.1 126.25 272.55 125.3" fill="#645858" fill-rule="evenodd" stroke="none"/>
    <path d="M273.45 120.75 L273.45 121.2 273.4 121.65 Q273.15 124.0 272.55 125.3 L271.1 126.25 269.4 126.5 268.95 126.4 268.45 126.05 267.0 124.7 267.0 124.6 266.75 124.3 266.5 124.0 266.45 123.9 266.3 123.65 266.2 123.45 Q263.65 119.6 262.2 113.65 L262.05 113.0 262.0 112.85 261.95 112.75 261.5 109.95 261.3 109.05 261.5 109.0 Q262.3 112.75 263.8 116.45 265.3 120.35 268.45 123.15 271.25 125.8 272.85 122.65 L273.4 121.1 273.45 120.75" fill="#483f3f" fill-rule="evenodd" stroke="none"/>
    <path d="M261.05 106.3 Q261.15 107.3 261.55 107.95 L262.65 110.05 Q263.3 111.45 264.75 111.15 266.15 110.8 266.8 109.45 267.3 108.05 267.0 108.35 268.7 106.7 270.55 105.35 L271.75 108.8 269.65 110.5 266.75 112.55 268.4 116.45 269.5 119.55 Q270.35 119.7 270.65 120.5 L270.9 121.45 273.25 117.4 273.4 117.3 Q273.6 119.05 273.45 120.75 L273.4 121.1 272.85 122.65 Q271.25 125.8 268.45 123.15 265.3 120.35 263.8 116.45 262.3 112.75 261.5 109.0 L261.3 109.05 261.5 109.95 261.05 106.3 M268.95 126.4 L268.9 126.4 268.3 126.05 267.0 124.7 268.45 126.05 268.95 126.4" fill="#584f4f" fill-rule="evenodd" stroke="none"/>
    <path d="M266.55 101.7 L266.8 101.5 268.35 101.6 Q269.05 101.75 269.4 102.15 L270.0 103.0 Q272.0 106.0 273.1 110.6 274.25 115.25 273.85 118.85 273.55 122.4 271.9 122.8 270.25 123.2 268.25 120.2 266.9 118.0 265.85 114.95 L266.05 115.4 Q265.55 112.65 265.35 109.9 L265.25 105.35 265.3 104.85 265.3 104.45 266.1 102.3 266.55 101.75 266.55 101.7" fill="#746969" fill-rule="evenodd" stroke="none"/>
    <path d="M266.55 101.7 L266.55 101.6 Q267.05 101.2 267.7 101.0 L267.6 100.8 267.4 100.75 266.4 101.05 266.15 100.65 Q265.65 100.85 265.25 101.3 265.75 100.55 266.45 100.4 267.8 100.05 269.4 102.15 269.05 101.75 268.35 101.6 L266.8 101.5 266.55 101.7 M264.5 103.85 L264.6 104.35 Q264.7 104.65 264.95 104.65 L264.7 104.45 Q264.45 105.7 264.95 106.75 265.05 105.75 265.3 104.85 L265.25 105.35 265.35 109.9 Q265.55 112.65 266.05 115.4 L265.85 114.95 265.3 113.0 265.25 112.95 265.2 112.75 265.15 112.55 Q264.05 107.95 264.4 104.35 L264.5 103.85" fill="#a1a1a1" fill-rule="evenodd" stroke="none"/>
    <path d="M265.25 101.3 Q265.65 100.85 266.15 100.65 L266.4 101.05 267.4 100.75 267.6 100.8 267.7 101.0 Q267.05 101.2 266.55 101.6 L266.55 101.7 266.55 101.75 266.1 102.3 265.3 104.45 265.3 104.85 Q265.05 105.75 264.95 106.75 264.45 105.7 264.7 104.45 L264.95 104.65 Q264.7 104.65 264.6 104.35 L264.5 103.85 264.45 103.8 Q264.7 102.2 265.25 101.3" fill="#e0e0e0" fill-rule="evenodd" stroke="none"/>
    <path d="M269.15 116.1 L269.15 116.0 Q268.65 113.55 269.2 111.05 269.6 108.85 271.75 109.05 L272.1 109.15 272.9 110.25 273.1 111.05 Q273.95 114.45 273.8 117.0 273.65 119.6 272.55 119.85 271.45 120.15 270.1 117.9 L269.15 116.1" fill="#43302f" fill-rule="evenodd" stroke="none"/>
    <path d="M269.15 116.1 Q268.45 114.4 267.9 112.3 L267.9 112.25 Q267.05 108.85 267.25 106.3 267.4 103.7 268.5 103.4 269.6 103.15 270.95 105.4 271.65 106.5 272.15 107.95 L272.9 110.25 272.1 109.15 271.75 109.05 Q269.6 108.85 269.2 111.05 268.65 113.55 269.15 116.0 L269.15 116.1" fill="#271b1b" fill-rule="evenodd" stroke="none"/>
    <path d="M237.3 106.75 L237.2 107.25 237.15 107.85 237.25 109.7 Q237.5 118.8 240.35 126.25 L240.45 126.4 241.2 128.2 243.1 131.85 Q243.5 132.55 243.65 134.1 L243.45 134.35 Q242.85 134.45 241.4 135.2 L240.35 135.55 Q239.75 135.7 239.5 136.0 L239.0 135.3 237.4 132.6 Q236.25 130.55 235.45 128.25 L235.2 127.65 235.2 127.6 Q234.25 125.15 233.65 122.45 232.85 119.15 232.5 115.55 L232.45 115.45 Q232.1 111.55 232.25 107.4 L232.2 107.3 232.8 107.25 Q234.9 107.1 236.45 106.4 236.95 106.3 237.3 106.75" fill="#3a1717" fill-rule="evenodd" stroke="none"/>
    <path d="M235.7 105.8 L236.65 106.2 236.6 107.55 236.6 108.2 236.65 110.05 Q236.9 119.1 239.8 126.55 L239.85 126.75 240.6 128.5 242.55 132.2 243.4 133.6 243.9 134.4 Q244.2 135.1 243.4 135.8 L239.55 137.25 238.45 135.6 236.85 132.9 Q235.7 130.85 234.85 128.55 L234.6 127.95 234.6 127.9 Q233.7 125.45 233.1 122.8 232.3 119.5 231.9 115.9 L231.9 115.75 Q231.5 111.9 231.65 107.7 L231.7 107.2 232.45 106.95 235.35 105.8 235.7 105.8" fill="#4a2a2a" fill-rule="evenodd" stroke="none"/>
    <path d="M236.2 118.85 Q236.9 122.7 238.1 126.25 L238.2 126.4 238.2 126.45 238.4 127.1 238.15 126.45 237.05 127.75 Q236.05 128.7 234.7 128.55 L233.35 128.15 233.4 128.2 233.3 128.4 233.3 128.6 233.25 128.4 233.0 127.85 232.9 127.5 231.8 123.5 232.7 124.35 232.2 122.35 Q231.75 120.2 231.65 118.25 L231.7 118.25 233.0 123.45 233.25 124.4 233.55 124.3 234.0 124.15 232.8 119.55 Q232.65 118.75 232.9 118.2 L234.3 122.7 234.65 123.9 234.95 123.75 234.5 122.05 Q234.15 120.35 234.45 119.0 234.75 121.05 235.35 123.05 L235.45 123.55 235.75 123.35 235.85 123.35 Q235.4 122.5 235.1 121.45 234.65 120.0 234.85 119.0 L235.75 121.9 236.1 123.1 235.9 123.35 Q236.9 122.7 236.55 121.2 L236.2 118.9 236.2 118.85 M242.35 134.8 L242.85 135.5 242.95 136.05 242.55 136.35 238.8 137.7 238.1 137.75 237.15 136.35 237.45 136.7 Q239.4 136.8 241.2 135.85 L242.35 134.8" fill="#412727" fill-rule="evenodd" stroke="none"/>
    <path d="M230.4 112.25 L230.35 109.9 230.35 110.05 230.4 112.25" fill="#664343" fill-rule="evenodd" stroke="none"/>
    <path d="M238.4 127.1 L238.5 127.3 238.6 127.45 239.3 129.25 241.25 132.9 242.1 134.3 242.35 134.8 241.2 135.85 Q239.4 136.8 237.45 136.7 L237.15 136.35 235.55 133.6 Q234.4 131.6 233.6 129.3 L233.25 128.65 233.3 128.6 233.3 128.4 233.4 128.2 233.35 128.15 234.7 128.55 Q236.05 128.7 237.05 127.75 L238.15 126.45 238.4 127.1" fill="#311a1a" fill-rule="evenodd" stroke="none"/>
    <path d="M230.35 109.8 Q230.35 109.45 230.55 109.6 L232.95 109.25 235.0 108.75 235.3 109.35 235.35 109.65 235.4 110.75 235.35 111.05 235.45 112.85 235.5 113.2 235.3 113.5 232.6 114.2 230.45 114.55 230.35 114.55 230.45 114.45 230.45 114.35 230.4 113.35 230.35 112.3 230.4 112.25 230.35 110.05 230.35 109.9 230.35 109.8" fill="#7e5151" fill-rule="evenodd" stroke="none"/>
    <path d="M230.35 109.8 L230.35 108.45 230.35 107.85 230.4 107.15 Q230.45 106.7 231.3 106.45 L235.05 105.8 Q235.3 105.8 235.4 105.95 L235.4 106.35 235.35 108.25 235.3 108.9 235.35 109.65 235.3 109.35 235.0 108.75 232.95 109.25 230.55 109.6 Q230.35 109.45 230.35 109.8 M235.45 112.85 Q235.65 115.9 236.2 118.85 L236.2 118.9 236.55 121.2 Q236.9 122.7 235.9 123.35 L236.1 123.1 235.75 121.9 234.85 119.0 Q234.65 120.0 235.1 121.45 235.4 122.5 235.85 123.35 L235.75 123.35 235.45 123.55 235.35 123.05 Q234.75 121.05 234.45 119.0 234.15 120.35 234.5 122.05 L234.95 123.75 234.65 123.9 234.3 122.7 232.9 118.2 Q232.65 118.75 232.8 119.55 L234.0 124.15 233.55 124.3 233.25 124.4 233.0 123.45 231.7 118.25 231.65 118.25 Q231.75 120.2 232.2 122.35 L232.7 124.35 231.8 123.5 Q230.95 120.2 230.6 116.6 L230.6 116.5 230.45 114.55 232.6 114.2 235.3 113.5 235.5 113.2 235.45 112.85" fill="#6c3d3d" fill-rule="evenodd" stroke="none"/>
    <path d="M107.7 126.55 L107.75 126.5 107.85 126.35 108.0 126.25 108.0 126.3 108.25 126.35 108.3 126.35 108.3 126.55 108.3 126.65 108.25 126.7 108.15 126.8 107.95 126.85 107.8 126.75 107.7 126.55" fill="#e0e0e0" fill-rule="evenodd" stroke="none"/>
    <path d="M35.55 102.9 L32.0 102.25 31.75 103.0 31.95 103.05 32.3 103.1 32.55 103.0 35.55 102.9 M82.25 117.75 L81.6 117.6 81.0 117.5 80.95 117.5 81.75 117.7 82.25 117.75" fill="#746969" fill-rule="evenodd" stroke="none"/>
    <path d="M28.85 112.25 L26.8 118.85 29.2 119.6 29.1 119.5 29.0 119.3 28.95 119.0 28.95 118.65 29.05 118.4 27.05 117.95 27.7 116.0 28.9 117.1 Q30.0 118.05 48.8 123.7 L80.35 133.45 105.15 141.0 Q113.25 143.3 123.65 144.85 134.0 146.35 138.1 137.25 L138.3 137.5 138.35 138.0 137.85 135.0 Q136.9 131.6 134.3 127.75 L131.45 124.25 Q131.35 124.55 132.8 126.9 L133.5 128.4 Q134.55 130.05 134.15 131.55 L134.2 133.4 Q134.2 135.7 132.1 137.2 L131.35 137.65 128.45 138.8 127.65 139.05 Q122.4 140.15 110.45 137.4 L109.8 137.25 109.2 137.1 104.8 135.9 104.5 135.8 104.05 135.7 Q87.05 130.9 55.9 121.5 31.5 114.2 28.85 112.25 M25.0 124.5 L24.8 125.35 Q49.1 134.6 70.15 140.7 92.1 148.6 109.05 152.35 116.15 153.95 121.55 153.05 138.95 149.55 138.45 138.65 138.45 141.95 137.05 144.3 132.2 149.7 124.35 150.8 114.55 152.15 108.3 150.4 L87.4 144.25 Q72.8 139.95 56.55 134.4 40.3 128.8 36.0 127.55 30.8 126.55 25.95 124.85 L25.0 124.5 M71.9 128.3 L76.65 130.1 Q79.9 131.15 82.6 132.65 L80.45 132.25 75.7 130.8 Q72.8 130.0 71.9 128.3" fill="#564f4f" fill-rule="evenodd" stroke="none"/>
    <path d="M31.05 105.25 L30.9 105.65 31.7 105.8 32.65 105.95 Q33.95 108.1 36.95 108.65 50.05 111.25 31.05 105.25 36.5 106.35 31.6 103.5 L31.45 104.0 31.35 104.35 31.05 105.25 M131.45 124.25 Q128.35 121.15 124.7 119.7 L124.5 119.6 124.3 119.5 124.2 119.5 124.0 119.45 123.75 119.35 123.7 119.3 35.55 102.9 32.55 103.0 32.3 103.1 31.95 103.05 31.75 103.0 31.7 103.0 31.6 103.5 Q64.4 108.9 71.2 110.8 78.1 112.6 89.75 114.85 L112.25 119.45 Q127.3 122.25 129.5 123.95 131.95 125.9 133.5 128.4 L132.8 126.9 Q131.35 124.55 131.45 124.25 M37.85 109.8 L40.35 110.5 Q39.55 109.7 38.4 109.25 L35.45 108.6 Q35.05 109.3 36.2 109.4 L37.85 109.8 M36.0 110.9 L39.75 111.95 41.35 112.35 Q40.0 111.35 38.25 110.9 L35.15 110.0 Q34.95 110.65 36.0 110.9 M34.45 113.2 L34.35 113.25 36.2 114.3 40.6 115.85 42.15 116.0 Q40.25 115.05 38.0 114.35 L34.5 113.1 34.45 113.2 M36.75 113.3 L36.65 113.5 41.3 115.1 Q43.15 115.75 45.0 116.0 43.2 114.85 41.0 114.2 L37.5 113.2 37.0 113.15 36.75 113.3 M37.3 111.75 L37.25 111.75 Q38.45 112.65 40.1 113.15 L42.55 113.85 42.55 113.8 Q41.25 113.05 39.8 112.5 L37.45 111.65 37.35 111.65 37.3 111.75 M39.6 122.9 L37.55 121.6 35.3 120.85 Q35.3 121.3 36.15 121.65 L38.7 122.85 39.6 122.9 M39.5 123.6 L34.9 122.1 Q35.35 122.75 36.55 123.15 39.3 124.05 41.9 125.3 L44.2 125.85 Q42.05 124.6 39.5 123.6 M38.6 124.9 Q37.2 124.05 35.5 123.45 L33.05 122.65 Q33.0 123.35 34.1 123.7 L37.5 124.75 38.6 124.9 M57.15 116.55 L60.9 117.95 62.7 118.05 59.35 116.7 56.35 115.8 Q56.35 116.3 57.15 116.55 M56.5 119.0 Q56.55 119.6 57.6 119.85 L60.75 120.85 61.75 120.95 Q60.6 120.15 59.15 119.7 L56.5 119.0 M58.1 118.4 L61.3 119.3 62.55 119.5 59.55 118.35 57.05 117.55 Q57.05 118.1 58.1 118.4 M63.1 122.75 L58.6 121.25 54.55 119.95 Q54.75 120.5 55.8 120.75 58.35 121.35 60.75 122.35 62.0 122.95 63.1 122.75 M71.9 128.3 Q72.8 130.0 75.7 130.8 L80.45 132.25 82.6 132.65 Q79.9 131.15 76.65 130.1 L71.9 128.3 M34.25 124.3 L31.9 123.55 Q32.0 124.1 33.0 124.5 L34.05 124.9 Q35.65 125.55 37.3 125.7 L37.25 125.65 Q35.95 124.8 34.25 124.3 M128.45 138.8 L131.35 137.65 132.1 137.2 Q132.9 135.85 133.05 133.85 133.25 131.45 131.85 130.05 132.2 132.85 130.75 135.3 L128.45 138.8 M114.95 130.75 L115.55 130.9 Q122.1 132.05 128.1 134.75 L129.5 134.7 Q124.85 131.3 118.85 130.25 L103.55 127.7 Q103.25 129.05 105.65 129.4 L113.35 130.45 114.95 130.75" fill="#5d5656" fill-rule="evenodd" stroke="none"/>
    <path d="M26.8 118.85 L25.0 124.5 25.95 124.85 Q30.8 126.55 36.0 127.55 40.3 128.8 56.55 134.4 72.8 139.95 87.4 144.25 L108.3 150.4 Q114.55 152.15 124.35 150.8 132.2 149.7 137.05 144.3 138.45 141.95 138.45 138.65 L138.35 138.0 138.3 137.5 138.1 137.25 Q134.0 146.35 123.65 144.85 113.25 143.3 105.15 141.0 L80.35 133.45 48.8 123.7 Q30.0 118.05 28.9 117.1 L27.7 116.0 27.05 117.95 29.05 118.4 28.95 118.65 28.95 119.0 29.0 119.3 29.1 119.5 29.2 119.6 26.8 118.85 M38.6 124.9 L37.5 124.75 34.1 123.7 Q33.0 123.35 33.05 122.65 L35.5 123.45 Q37.2 124.05 38.6 124.9 M39.5 123.6 Q42.05 124.6 44.2 125.85 L41.9 125.3 Q39.3 124.05 36.55 123.15 35.35 122.75 34.9 122.1 L39.5 123.6 M39.6 122.9 L38.7 122.85 36.15 121.65 Q35.3 121.3 35.3 120.85 L37.55 121.6 39.6 122.9 M34.25 124.3 Q35.95 124.8 37.25 125.65 L37.3 125.7 Q35.65 125.55 34.05 124.9 L33.0 124.5 Q32.0 124.1 31.9 123.55 L34.25 124.3" fill="#483f3f" fill-rule="evenodd" stroke="none"/>
    <path d="M126.6 125.2 Q126.35 124.05 121.05 122.6 115.75 121.05 112.65 121.25 109.6 121.65 114.95 124.0 L118.85 125.2 Q123.85 126.8 125.35 126.6 126.95 126.35 126.6 125.2" fill="#aaa2a2" fill-rule="evenodd" stroke="none"/>
    <path d="M104.5 135.8 L104.8 135.9 Q104.85 135.35 105.2 134.9 106.1 133.6 107.65 133.1 110.75 132.15 114.0 131.6 114.9 131.45 115.55 130.9 L114.95 130.75 Q113.5 131.65 111.55 131.7 107.8 131.85 105.35 134.35 104.55 135.1 104.5 135.8 M109.2 137.1 L109.8 137.25 110.45 137.4 112.1 136.7 Q114.95 135.25 117.95 134.4 L118.0 134.35 117.3 134.2 114.3 135.4 111.85 136.35 109.2 137.1" fill="#855b1c" fill-rule="evenodd" stroke="none"/>
    <path d="M43.0 108.8 Q42.65 109.3 47.2 110.65 L59.0 113.85 76.3 118.25 Q86.3 120.7 95.15 122.2 104.0 123.65 111.55 125.7 L124.25 128.85 Q128.7 129.75 129.35 127.7 L129.45 126.85 129.45 126.5 Q129.1 124.85 126.3 123.5 L109.2 119.15 106.15 118.7 105.8 118.6 96.45 116.9 95.85 116.75 91.95 116.1 74.35 113.0 51.35 108.65 Q43.65 106.9 43.4 107.85 L43.45 108.1 43.45 108.25 43.0 108.8 M126.6 125.2 Q126.95 126.35 125.35 126.6 123.85 126.8 118.85 125.2 L114.95 124.0 Q109.6 121.65 112.65 121.25 115.75 121.05 121.05 122.6 126.35 124.05 126.6 125.2 M82.25 117.75 L81.75 117.7 80.95 117.5 81.0 117.5 81.6 117.6 82.25 117.75" fill="#8d8080" fill-rule="evenodd" stroke="none"/>
    <path d="M31.05 105.25 L30.35 105.05 31.05 105.25 Q50.05 111.25 36.95 108.65 33.95 108.1 32.65 105.95 L31.7 105.8 30.9 105.65 29.85 109.15 Q22.85 107.4 24.3 109.3 24.8 109.9 29.05 111.6 28.1 111.65 28.85 112.25 31.5 114.2 55.9 121.5 87.05 130.9 104.05 135.7 L104.5 135.8 Q104.55 135.1 105.35 134.35 107.8 131.85 111.55 131.7 113.5 131.65 114.95 130.75 L113.35 130.45 105.65 129.4 Q103.25 129.05 103.55 127.7 L118.85 130.25 Q124.85 131.3 129.5 134.7 L128.1 134.75 Q122.1 132.05 115.55 130.9 114.9 131.45 114.0 131.6 110.75 132.15 107.65 133.1 106.1 133.6 105.2 134.9 104.85 135.35 104.8 135.9 L109.2 137.1 111.85 136.35 114.3 135.4 117.3 134.2 118.0 134.35 117.95 134.4 Q114.95 135.25 112.1 136.7 L110.45 137.4 Q122.4 140.15 127.65 139.05 L128.45 138.8 130.75 135.3 Q132.2 132.85 131.85 130.05 133.25 131.45 133.05 133.85 132.9 135.85 132.1 137.2 134.2 135.7 134.2 133.4 L134.15 131.55 Q134.55 130.05 133.5 128.4 131.95 125.9 129.5 123.95 127.3 122.25 112.25 119.45 L89.75 114.85 Q78.1 112.6 71.2 110.8 64.4 108.9 31.6 103.5 L31.5 103.5 31.6 103.5 Q36.5 106.35 31.05 105.25 M43.0 108.8 L43.45 108.25 43.45 108.1 43.4 107.85 Q43.65 106.9 51.35 108.65 L74.35 113.0 91.95 116.1 95.85 116.75 96.45 116.9 105.8 118.6 106.15 118.7 109.2 119.15 126.3 123.5 Q129.1 124.85 129.45 126.5 L129.45 126.85 129.35 127.7 Q128.7 129.75 124.25 128.85 L111.55 125.7 Q104.0 123.65 95.15 122.2 86.3 120.7 76.3 118.25 L59.0 113.85 47.2 110.65 Q42.65 109.3 43.0 108.8 M37.3 111.75 L37.35 111.65 37.45 111.65 39.8 112.5 Q41.25 113.05 42.55 113.8 L42.55 113.85 40.1 113.15 Q38.45 112.65 37.25 111.75 L37.3 111.75 M36.75 113.3 L37.0 113.15 37.5 113.2 41.0 114.2 Q43.2 114.85 45.0 116.0 43.15 115.75 41.3 115.1 L36.65 113.5 36.75 113.3 M34.45 113.2 L34.5 113.1 38.0 114.35 Q40.25 115.05 42.15 116.0 L40.6 115.85 36.2 114.3 34.35 113.25 34.45 113.2 M36.0 110.9 Q34.95 110.65 35.15 110.0 L38.25 110.9 Q40.0 111.35 41.35 112.35 L39.75 111.95 36.0 110.9 M37.85 109.8 L36.2 109.4 Q35.05 109.3 35.45 108.6 L38.4 109.25 Q39.55 109.7 40.35 110.5 L37.85 109.8 M63.1 122.75 Q62.0 122.95 60.75 122.35 58.35 121.35 55.8 120.75 54.75 120.5 54.55 119.95 L58.6 121.25 63.1 122.75 M58.1 118.4 Q57.05 118.1 57.05 117.55 L59.55 118.35 62.55 119.5 61.3 119.3 58.1 118.4 M56.5 119.0 L59.15 119.7 Q60.6 120.15 61.75 120.95 L60.75 120.85 57.6 119.85 Q56.55 119.6 56.5 119.0 M57.15 116.55 Q56.35 116.3 56.35 115.8 L59.35 116.7 62.7 118.05 60.9 117.95 57.15 116.55" fill="#766767" fill-rule="evenodd" stroke="none"/>
    <path d="M35.6 100.05 L35.75 100.05 35.65 100.05 35.6 100.05" fill="#746969" fill-rule="evenodd" stroke="none"/>
    <path d="M30.35 102.35 L30.25 102.6 30.2 102.65 30.1 102.8 29.55 103.65 Q27.15 107.4 25.7 113.15 24.25 119.0 24.75 123.7 L25.5 123.3 25.9 122.55 Q26.55 122.05 27.15 121.9 27.05 121.3 27.55 120.9 L28.2 120.4 Q27.5 119.9 27.3 119.05 27.05 117.95 28.2 117.45 29.0 117.3 29.7 117.85 32.65 120.25 35.55 117.55 35.85 117.25 36.25 117.15 L36.05 117.75 36.55 115.85 Q37.35 112.75 37.5 110.1 L37.6 109.95 Q36.65 111.4 34.05 111.6 29.45 108.3 30.35 102.35 M24.55 127.85 L24.25 128.55 23.55 129.5 27.5 129.6 Q28.7 129.85 30.05 128.75 L28.35 128.3 Q26.25 128.95 24.65 127.85 L24.55 127.85" fill="#564f4f" fill-rule="evenodd" stroke="none"/>
    <path d="M31.8 96.55 L31.4 96.2 31.2 96.15 30.9 96.2 30.7 96.4 30.7 96.65 Q31.05 98.5 30.4 100.3 L30.05 101.0 29.45 102.15 29.35 102.3 28.8 103.15 Q26.3 107.0 24.85 112.9 23.25 119.4 23.85 124.5 24.25 127.55 22.8 128.9 L23.3 128.35 23.75 128.4 24.25 128.55 24.55 127.85 Q24.9 126.8 24.85 125.45 L24.8 124.4 24.8 124.3 24.75 123.7 Q24.25 119.0 25.7 113.15 27.15 107.4 29.55 103.65 L30.1 102.8 30.2 102.65 30.25 102.6 30.35 102.35 30.9 101.45 31.25 100.6 Q31.75 99.3 31.75 97.9 30.9 97.4 31.25 96.85 L31.4 96.65 31.65 96.45 31.8 96.55 M29.6 130.15 L30.5 129.6 29.6 129.95 29.6 130.15 M38.4 110.45 L38.45 110.05 38.4 110.15 38.2 109.9 38.45 110.25 38.4 110.45 M37.6 109.95 L37.5 110.1 37.55 110.1 37.6 110.05 37.6 109.95" fill="#49079a" fill-rule="evenodd" stroke="none"/>
    <path d="M24.25 128.55 L23.75 128.4 23.3 128.35 22.8 128.9 21.95 129.5 21.9 129.55 21.65 129.8 21.65 130.1 21.8 130.3 22.1 130.45 27.25 130.45 29.6 130.15 29.6 129.95 30.5 129.6 32.95 126.75 Q35.9 122.55 37.4 116.05 38.2 113.05 38.4 110.45 L38.45 110.25 38.2 109.9 38.15 109.9 37.85 109.9 37.6 110.05 37.55 110.1 37.5 110.1 Q37.35 112.75 36.55 115.85 L36.05 117.75 34.6 121.8 34.55 121.95 34.45 122.1 34.35 122.4 34.0 123.1 33.7 123.65 33.1 124.85 32.55 125.75 32.2 126.25 Q31.15 127.9 30.05 128.75 28.7 129.85 27.5 129.6 L23.55 129.5 24.25 128.55" fill="#382b2b" fill-rule="evenodd" stroke="none"/>
    <path d="M31.8 96.55 L31.65 96.45 31.4 96.65 32.75 97.8 35.35 100.0 35.45 100.05 35.55 100.05 35.5 100.1 35.6 100.1 35.7 100.15 35.75 100.25 37.15 103.65 37.35 104.45 37.45 105.05 37.55 106.2 37.55 106.25 37.65 108.6 37.6 109.95 37.6 110.05 37.85 109.9 38.15 109.9 38.2 109.9 38.4 110.15 38.45 110.05 38.5 108.65 38.5 106.1 38.45 106.15 38.35 104.95 38.25 104.3 38.25 104.25 38.05 103.3 38.05 103.25 36.5 99.8 36.45 99.65 36.2 99.5 35.95 99.25 35.9 99.3 35.8 99.25 35.65 99.2 31.8 96.55 M31.25 96.85 Q30.9 97.4 31.75 97.9 L31.7 97.6 31.25 96.85 M35.4 99.15 L35.5 99.15 35.4 99.15 M35.6 100.05 L35.65 100.05 35.75 100.05 35.6 100.05" fill="#4a3d3d" fill-rule="evenodd" stroke="none"/>
    <path d="M24.75 123.7 L24.8 124.3 24.8 124.4 24.85 125.45 Q24.9 126.8 24.55 127.85 L24.65 127.85 Q26.25 128.95 28.35 128.3 L30.05 128.75 Q31.15 127.9 32.2 126.25 L32.55 125.75 33.1 124.85 33.7 123.65 34.0 123.1 34.35 122.4 34.45 122.1 34.55 121.95 34.6 121.8 36.05 117.75 36.25 117.15 Q35.85 117.25 35.55 117.55 32.65 120.25 29.7 117.85 29.0 117.3 28.2 117.45 27.05 117.95 27.3 119.05 27.5 119.9 28.2 120.4 L27.55 120.9 Q27.05 121.3 27.15 121.9 26.55 122.05 25.9 122.55 L25.5 123.3 24.75 123.7" fill="#483f3f" fill-rule="evenodd" stroke="none"/>
    <path d="M31.4 96.65 L31.25 96.85 31.7 97.6 31.75 97.9 Q31.75 99.3 31.25 100.6 L30.9 101.45 30.35 102.35 Q29.45 108.3 34.05 111.6 36.65 111.4 37.6 109.95 L37.65 108.6 37.55 106.25 37.55 106.2 37.45 105.05 37.35 104.45 37.15 103.65 35.75 100.25 35.7 100.15 35.6 100.1 35.5 100.1 35.55 100.05 35.45 100.05 35.35 100.0 32.75 97.8 31.4 96.65" fill="#766767" fill-rule="evenodd" stroke="none"/>
    <path d="M98.5 115.1 L98.6 115.65 98.6 116.35 98.55 118.5 Q98.3 129.15 94.9 137.8 L94.8 138.0 93.95 140.05 91.7 144.35 Q91.25 145.2 91.1 147.0 L91.25 147.25 Q91.95 147.35 93.7 148.25 L94.9 148.7 Q95.6 148.85 95.85 149.2 L96.45 148.35 98.35 145.2 100.65 140.2 100.95 139.45 100.95 139.4 102.7 133.4 Q103.7 129.55 104.05 125.35 L104.1 125.2 Q104.55 120.7 104.4 115.85 L104.35 115.65 103.7 115.65 Q101.3 115.45 99.45 114.7 98.8 114.6 98.5 115.1" fill="#3a1717" fill-rule="evenodd" stroke="none"/>
    <path d="M100.35 113.95 Q99.8 114.15 99.2 114.45 L99.25 116.0 99.3 116.75 99.25 118.9 Q98.9 129.55 95.55 138.2 L95.45 138.35 94.6 140.45 92.35 144.75 91.35 146.4 90.8 147.3 Q90.45 148.15 91.3 148.95 L95.85 150.6 97.15 148.7 99.0 145.6 Q100.35 143.2 101.3 140.55 L101.65 139.8 101.65 139.75 103.4 133.8 Q104.35 129.9 104.75 125.7 L104.75 125.6 Q105.2 121.05 105.05 116.25 L105.05 115.6 104.1 115.3 100.8 113.95 100.35 113.95" fill="#4a2a2a" fill-rule="evenodd" stroke="none"/>
    <path d="M99.8 129.2 Q98.95 133.7 97.5 137.75 L97.45 137.95 97.45 138.05 97.15 138.8 97.5 138.05 Q97.65 138.5 98.75 139.55 99.9 140.65 101.5 140.5 L103.05 140.05 103.05 140.1 103.15 140.35 103.1 140.6 103.2 140.35 103.45 139.65 103.6 139.25 104.9 134.6 104.3 135.3 104.9 132.25 Q105.5 128.55 105.45 124.85 L105.4 124.9 104.25 133.25 103.7 135.65 103.1 135.6 103.95 131.65 Q104.35 128.05 104.15 124.6 L104.15 124.55 103.2 132.85 102.7 135.5 101.65 135.15 102.35 132.15 Q102.85 129.55 102.9 126.95 L102.6 125.3 Q102.4 129.45 101.45 133.6 L101.15 134.9 100.55 134.65 101.2 131.5 Q101.95 127.95 101.5 124.4 L101.4 124.4 Q101.3 128.55 100.4 132.7 L100.0 134.35 Q99.0 133.65 99.3 131.9 L99.8 129.25 99.8 129.2 M92.55 147.8 L92.0 148.65 Q91.8 149.0 91.9 149.25 L92.35 149.6 96.7 151.2 97.5 151.25 98.6 149.6 98.3 150.0 Q96.0 150.15 93.95 149.0 92.6 148.3 92.55 147.8" fill="#412727" fill-rule="evenodd" stroke="none"/>
    <path d="M100.6 122.2 Q100.4 125.8 99.8 129.2 L99.8 129.25 99.3 131.9 Q99.0 133.65 100.0 134.35 L100.4 132.7 Q101.3 128.55 101.4 124.4 L101.5 124.4 Q101.95 127.95 101.2 131.5 L100.55 134.65 101.15 134.9 101.45 133.6 Q102.4 129.45 102.6 125.3 L102.9 126.95 Q102.85 129.55 102.35 132.15 L101.65 135.15 102.7 135.5 103.2 132.85 104.15 124.55 104.15 124.6 Q104.35 128.05 103.95 131.65 L103.1 135.6 103.7 135.65 104.25 133.25 105.4 124.9 105.45 124.85 Q105.5 128.55 104.9 132.25 L104.3 135.3 104.9 134.6 Q105.85 130.8 106.3 126.55 L106.25 126.4 106.45 124.15 104.0 123.7 100.8 122.95 100.6 122.6 100.6 122.2 M106.55 121.5 L106.6 118.7 106.6 118.95 Q106.4 120.3 106.55 121.5" fill="#664343" fill-rule="evenodd" stroke="none"/>
    <path d="M97.15 138.8 L97.05 139.05 97.0 139.2 96.15 141.3 93.9 145.6 92.9 147.25 92.55 147.8 Q92.6 148.3 93.95 149.0 96.0 150.15 98.3 150.0 L98.6 149.6 100.55 146.4 102.85 141.4 103.1 140.65 103.1 140.6 103.15 140.35 103.05 140.1 103.05 140.05 101.5 140.5 Q99.9 140.65 98.75 139.55 97.65 138.5 97.5 138.05 L97.15 138.8" fill="#311a1a" fill-rule="evenodd" stroke="none"/>
    <path d="M106.6 118.6 Q106.6 118.25 106.35 118.4 L103.5 118.0 101.15 117.45 Q100.9 117.75 100.8 118.1 L100.75 118.5 100.7 119.7 100.75 120.1 100.6 122.2 100.6 122.6 100.8 122.95 104.0 123.7 106.45 124.15 106.6 124.15 106.45 124.1 106.45 123.95 106.5 122.8 106.55 121.6 106.55 121.5 Q106.4 120.3 106.6 118.95 L106.6 118.7 106.6 118.6" fill="#7e5151" fill-rule="evenodd" stroke="none"/>
    <path d="M106.6 118.6 L106.6 117.05 106.55 116.35 106.55 115.5 Q106.45 115.0 105.45 114.65 L101.1 114.0 Q100.75 114.0 100.7 114.15 L100.65 114.6 100.75 116.85 100.8 117.6 100.75 118.5 100.8 118.1 Q100.9 117.75 101.15 117.45 L103.5 118.0 106.35 118.4 Q106.6 118.25 106.6 118.6" fill="#6c3d3d" fill-rule="evenodd" stroke="none"/>
    <path d="M31.55 97.55 Q30.75 96.25 29.5 95.9 L29.35 95.85 28.0 95.9 Q27.35 96.05 26.7 96.6 28.45 96.3 29.6 97.05 L29.65 96.8 29.35 96.65 29.1 96.6 Q28.65 96.5 28.35 96.15 L28.45 96.0 28.55 96.0 29.25 96.2 29.5 96.3 29.85 96.4 29.9 96.4 30.1 96.45 Q31.0 96.85 31.55 97.55 M29.85 121.1 L31.55 116.0 31.6 115.8 31.8 114.85 Q33.55 107.7 32.9 102.15 L32.55 100.05 32.45 101.1 32.4 101.15 32.7 102.45 Q32.8 103.3 32.45 103.8 L32.1 101.65 31.9 100.7 32.0 100.8 31.4 99.95 Q32.3 102.75 32.15 106.55 32.1 110.85 30.9 116.25 29.6 121.7 27.9 124.3 L27.2 125.25 27.6 124.85 29.1 122.6 29.85 121.1" fill="#a1a1a1" fill-rule="evenodd" stroke="none"/>
    <path d="M32.55 100.05 Q32.2 98.5 31.55 97.55 31.0 96.85 30.1 96.45 L29.9 96.4 29.85 96.4 29.5 96.3 29.25 96.2 28.55 96.0 28.45 96.0 28.35 96.15 Q28.65 96.5 29.1 96.6 L29.35 96.65 29.65 96.8 29.6 97.05 Q30.65 97.75 31.15 99.2 L31.4 99.95 32.0 100.8 31.9 100.7 32.1 101.65 32.45 103.8 Q32.8 103.3 32.7 102.45 L32.4 101.15 32.45 101.1 32.55 100.05" fill="#e0e0e0" fill-rule="evenodd" stroke="none"/>
    <path d="M28.0 95.9 Q25.9 96.45 23.65 99.8 20.45 104.4 18.7 111.55 16.95 118.7 17.65 124.3 18.25 129.85 21.0 130.5 23.7 131.2 26.9 126.65 28.6 124.2 29.85 121.1 L29.1 122.6 27.6 124.85 27.2 125.25 27.9 124.3 Q29.6 121.7 30.9 116.25 32.1 110.85 32.15 106.55 32.3 102.75 31.4 99.95 L31.15 99.2 Q30.65 97.75 29.6 97.05 28.45 96.3 26.7 96.6 27.35 96.05 28.0 95.9" fill="#766767" fill-rule="evenodd" stroke="none"/>
    <path d="M20.55 105.35 L24.1 108.35 Q23.8 108.05 24.3 109.45 24.95 110.8 26.35 111.15 27.8 111.45 28.45 110.05 L29.55 107.95 30.05 106.3 29.9 103.1 Q29.45 98.5 27.35 98.0 25.2 97.45 22.7 101.3 21.55 103.1 20.55 105.35 M17.7 117.3 L17.85 117.4 20.2 121.45 Q20.25 120.95 20.45 120.5 20.75 119.7 21.6 119.55 L22.7 116.45 24.35 112.55 21.45 110.5 19.35 108.8 18.7 111.15 Q17.9 114.45 17.7 117.3 M22.15 126.4 L21.7 126.5 20.0 126.25 Q19.2 125.9 18.55 125.3 19.25 126.55 20.3 126.8 21.2 127.0 22.15 126.4" fill="#645858" fill-rule="evenodd" stroke="none"/>
    <path d="M29.6 109.95 L29.8 109.05 29.6 109.0 Q28.8 112.75 27.3 116.45 25.8 120.35 22.65 123.15 19.85 125.8 18.25 122.65 L17.7 121.1 17.65 120.75 17.65 121.2 17.7 121.65 Q17.95 124.0 18.55 125.3 19.2 125.9 20.0 126.25 L21.7 126.5 22.15 126.4 22.65 126.05 24.1 124.7 24.1 124.6 24.35 124.3 24.6 124.0 24.65 123.9 24.8 123.65 24.9 123.45 Q27.45 119.6 28.9 113.65 L29.05 113.0 29.1 112.85 29.15 112.75 29.6 109.95" fill="#483f3f" fill-rule="evenodd" stroke="none"/>
    <path d="M30.05 106.3 L29.55 107.95 28.45 110.05 Q27.8 111.45 26.35 111.15 24.95 110.8 24.3 109.45 23.8 108.05 24.1 108.35 L20.55 105.35 19.35 108.8 21.45 110.5 24.35 112.55 22.7 116.45 21.6 119.55 Q20.75 119.7 20.45 120.5 20.25 120.95 20.2 121.45 L17.85 117.4 17.7 117.3 Q17.5 119.05 17.65 120.75 L17.7 121.1 18.25 122.65 Q19.85 125.8 22.65 123.15 25.8 120.35 27.3 116.45 28.8 112.75 29.6 109.0 L29.8 109.05 29.6 109.95 30.05 106.3 M24.1 124.7 L22.65 126.05 22.15 126.4 22.2 126.4 22.8 126.05 24.1 124.7" fill="#584f4f" fill-rule="evenodd" stroke="none"/>
    <path d="M21.2 102.15 L20.6 103.0 Q18.6 106.0 17.5 110.6 16.35 115.25 16.75 118.85 17.05 122.4 18.7 122.8 20.35 123.2 22.35 120.2 23.7 118.0 24.75 114.95 L24.55 115.4 25.25 109.9 25.35 105.35 25.3 104.85 25.3 104.45 24.5 102.3 24.05 101.75 24.05 101.7 23.8 101.5 22.25 101.6 Q21.55 101.75 21.2 102.15" fill="#746969" fill-rule="evenodd" stroke="none"/>
    <path d="M21.2 102.15 Q21.55 101.75 22.25 101.6 L23.8 101.5 24.05 101.7 24.05 101.6 22.9 101.0 23.0 100.8 23.2 100.75 24.2 101.05 24.45 100.65 Q24.95 100.85 25.35 101.3 24.85 100.55 24.15 100.4 22.8 100.05 21.2 102.15 M25.3 104.85 L25.35 105.35 25.25 109.9 24.55 115.4 24.75 114.95 25.3 113.0 25.35 112.95 25.4 112.75 25.45 112.55 Q26.55 107.95 26.2 104.35 L26.1 103.85 26.0 104.35 25.65 104.65 25.9 104.45 Q26.15 105.7 25.65 106.75 L25.3 104.85" fill="#a1a1a1" fill-rule="evenodd" stroke="none"/>
    <path d="M24.05 101.7 L24.05 101.75 24.5 102.3 25.3 104.45 25.3 104.85 25.65 106.75 Q26.15 105.7 25.9 104.45 L25.65 104.65 26.0 104.35 26.1 103.85 26.15 103.8 Q25.9 102.2 25.35 101.3 24.95 100.85 24.45 100.65 L24.2 101.05 23.2 100.75 23.0 100.8 22.9 101.0 24.05 101.6 24.05 101.7" fill="#e0e0e0" fill-rule="evenodd" stroke="none"/>
    <path d="M21.95 116.1 L21.95 116.0 Q22.45 113.55 21.9 111.05 21.5 108.85 19.35 109.05 L19.0 109.15 18.2 110.25 18.0 111.05 Q17.15 114.45 17.3 117.0 17.45 119.6 18.55 119.85 19.65 120.15 21.0 117.9 L21.95 116.1" fill="#43302f" fill-rule="evenodd" stroke="none"/>
    <path d="M18.2 110.25 L19.0 109.15 19.35 109.05 Q21.5 108.85 21.9 111.05 22.45 113.55 21.95 116.0 L21.95 116.1 23.2 112.3 23.2 112.25 Q24.05 108.85 23.85 106.3 23.7 103.7 22.6 103.4 21.5 103.15 20.15 105.4 19.45 106.5 18.95 107.95 L18.2 110.25" fill="#271b1b" fill-rule="evenodd" stroke="none"/>
    <path d="M52.8 106.75 L52.9 107.25 52.95 107.85 52.85 109.7 Q52.6 118.8 49.75 126.25 L49.65 126.4 48.9 128.2 47.0 131.85 Q46.6 132.55 46.45 134.1 L46.65 134.35 48.7 135.2 49.75 135.55 Q50.35 135.7 50.6 136.0 L51.1 135.3 52.7 132.6 54.65 128.25 54.9 127.65 54.9 127.6 56.45 122.45 Q57.25 119.15 57.6 115.55 L57.65 115.45 Q58.0 111.55 57.85 107.4 L57.9 107.3 57.3 107.25 Q55.2 107.1 53.65 106.4 53.15 106.3 52.8 106.75" fill="#3a1717" fill-rule="evenodd" stroke="none"/>
    <path d="M54.4 105.8 L53.45 106.2 53.5 107.55 53.5 108.2 53.45 110.05 Q53.2 119.1 50.3 126.55 L50.25 126.75 49.5 128.5 47.55 132.2 46.7 133.6 46.2 134.4 Q45.9 135.1 46.7 135.8 L50.55 137.25 51.65 135.6 53.25 132.9 55.25 128.55 55.5 127.95 55.5 127.9 57.0 122.8 Q57.8 119.5 58.2 115.9 L58.2 115.75 Q58.6 111.9 58.45 107.7 L58.4 107.2 57.65 106.95 54.75 105.8 54.4 105.8" fill="#4a2a2a" fill-rule="evenodd" stroke="none"/>
    <path d="M53.9 118.85 Q53.2 122.7 52.0 126.25 L51.9 126.4 51.9 126.45 51.7 127.1 51.95 126.45 53.05 127.75 Q54.05 128.7 55.4 128.55 L56.75 128.15 56.7 128.2 56.8 128.4 56.8 128.6 56.85 128.4 57.1 127.85 57.2 127.5 58.3 123.5 Q57.95 124.2 57.4 124.35 L57.9 122.35 58.45 118.25 58.4 118.25 57.1 123.45 56.85 124.4 56.55 124.3 56.1 124.15 57.3 119.55 Q57.45 118.75 57.2 118.2 L55.8 122.7 55.45 123.9 55.15 123.75 55.6 122.05 Q55.95 120.35 55.65 119.0 L54.75 123.05 54.65 123.55 54.35 123.35 54.25 123.35 55.0 121.45 Q55.45 120.0 55.25 119.0 L54.35 121.9 54.0 123.1 54.2 123.35 Q53.2 122.7 53.55 121.2 L53.9 118.9 53.9 118.85 M47.75 134.8 L47.25 135.5 47.15 136.05 47.55 136.35 51.3 137.7 52.0 137.75 52.95 136.35 52.65 136.7 Q50.7 136.8 48.9 135.85 47.8 135.25 47.75 134.8" fill="#412727" fill-rule="evenodd" stroke="none"/>
    <path d="M59.7 112.25 L59.75 109.9 59.75 110.05 59.7 112.25" fill="#664343" fill-rule="evenodd" stroke="none"/>
    <path d="M51.7 127.1 L51.6 127.3 51.5 127.45 50.8 129.25 48.85 132.9 48.0 134.3 47.75 134.8 Q47.8 135.25 48.9 135.85 50.7 136.8 52.65 136.7 L52.95 136.35 54.55 133.6 Q55.7 131.6 56.5 129.3 L56.85 128.65 56.8 128.6 56.8 128.4 56.7 128.2 56.75 128.15 55.4 128.55 Q54.05 128.7 53.05 127.75 L51.95 126.45 51.7 127.1" fill="#311a1a" fill-rule="evenodd" stroke="none"/>
    <path d="M59.75 109.8 Q59.75 109.45 59.55 109.6 L57.15 109.25 55.1 108.75 54.8 109.35 54.75 109.65 54.7 110.75 54.75 111.05 54.65 112.85 54.6 113.2 54.8 113.5 57.5 114.2 59.65 114.55 59.75 114.55 59.65 114.45 59.65 114.35 59.7 113.35 59.75 112.3 59.7 112.25 59.75 110.05 59.75 109.9 59.75 109.8" fill="#7e5151" fill-rule="evenodd" stroke="none"/>
    <path d="M59.75 109.8 L59.75 108.45 59.75 107.85 59.7 107.15 Q59.65 106.7 58.8 106.45 L55.05 105.8 Q54.8 105.8 54.7 105.95 L54.7 106.35 54.75 108.25 54.8 108.9 54.75 109.65 54.8 109.35 55.1 108.75 57.15 109.25 59.55 109.6 Q59.75 109.45 59.75 109.8 M54.65 112.85 L53.9 118.85 53.9 118.9 53.55 121.2 Q53.2 122.7 54.2 123.35 L54.0 123.1 54.35 121.9 55.25 119.0 Q55.45 120.0 55.0 121.45 L54.25 123.35 54.35 123.35 54.65 123.55 54.75 123.05 55.65 119.0 Q55.95 120.35 55.6 122.05 L55.15 123.75 55.45 123.9 55.8 122.7 57.2 118.2 Q57.45 118.75 57.3 119.55 L56.1 124.15 56.55 124.3 56.85 124.4 57.1 123.45 58.4 118.25 58.45 118.25 57.9 122.35 57.4 124.35 Q57.95 124.2 58.3 123.5 59.15 120.2 59.5 116.6 L59.5 116.5 59.65 114.55 57.5 114.2 54.8 113.5 54.6 113.2 54.65 112.85" fill="#6c3d3d" fill-rule="evenodd" stroke="none"/>
    <path d="M215.75 159.5 L208.1 169.15 99.9 169.2 85.2 166.5 76.1 154.8 Q74.05 87.5 74.55 19.9 L216.55 19.9 215.75 159.5" fill="#672f32" fill-rule="evenodd" stroke="none"/>
    <path d="M97.2 115.35 L97.3 115.3 97.35 115.3 97.1 116.1 95.95 117.25 94.95 117.6 95.25 117.3 95.95 116.65 96.6 116.05 97.2 115.35 M76.7 122.45 L77.5 121.85 78.0 121.5 78.15 121.45 Q78.35 122.0 77.8 122.3 L76.6 122.9 75.65 123.35 75.85 123.15 76.7 122.45 M101.2 112.0 L101.5 112.0 99.6 113.7 97.95 114.7 97.95 114.6 98.55 113.55 Q98.85 113.0 99.6 112.7 L100.45 112.3 101.2 112.0 M114.15 107.7 Q112.95 109.25 111.3 110.4 L106.95 113.2 Q104.95 114.3 103.9 114.05 L106.55 112.1 Q108.25 110.75 110.25 109.75 112.15 108.75 114.05 107.7 L114.15 107.7 M116.85 106.95 Q116.5 105.35 118.1 104.9 L121.3 103.8 124.6 102.65 Q124.6 103.0 123.05 103.85 120.5 105.15 118.1 106.7 115.3 108.45 116.85 106.95 M142.1 107.15 L142.1 106.8 Q142.25 106.4 142.55 106.1 L143.15 105.4 143.5 105.4 144.05 105.85 Q144.5 106.5 143.65 106.75 L142.1 107.15 M145.65 103.1 L145.6 103.1 Q147.6 98.35 148.55 98.05 L151.2 97.35 Q151.3 97.9 149.85 99.65 L148.2 101.5 147.15 102.9 146.1 103.9 146.05 103.7 145.95 103.4 145.65 103.1 M130.35 104.9 L130.6 104.9 130.55 104.95 129.45 105.6 128.5 106.0 128.6 105.9 128.95 105.55 129.55 105.2 130.35 104.9 M138.25 104.9 L137.15 105.0 137.7 104.65 139.5 103.7 140.8 103.05 142.1 102.45 142.65 102.4 Q142.25 103.35 141.3 103.8 L138.25 104.9 M143.95 100.35 Q144.4 100.0 144.6 101.1 L144.55 101.05 143.95 100.35 M161.55 105.95 L162.45 105.45 163.55 104.9 163.75 104.85 163.8 104.95 163.45 105.6 162.9 106.3 162.6 106.65 161.95 107.25 161.2 107.2 160.7 107.05 160.3 106.8 160.6 106.5 161.55 105.95 M168.0 99.4 L168.1 99.6 167.8 100.25 167.6 100.55 167.35 100.9 167.1 101.2 166.9 101.55 166.7 101.85 165.95 102.85 Q164.3 102.7 162.95 103.3 161.1 104.15 159.35 105.15 155.85 107.25 154.3 105.3 155.9 104.05 158.0 103.15 160.4 102.05 162.9 101.1 L168.0 99.4 M189.35 106.3 Q189.95 106.1 189.4 106.65 L187.4 108.55 185.3 110.4 Q182.7 112.15 182.05 110.8 L184.35 109.15 187.05 107.55 189.35 106.3 M180.5 106.5 L180.3 106.35 180.3 106.1 180.6 105.4 181.2 104.55 182.7 105.6 182.35 106.0 181.95 106.5 181.4 106.5 180.5 106.5 M179.1 104.25 L179.4 104.2 178.95 105.1 177.9 106.85 Q177.25 107.7 176.3 108.0 L173.9 107.8 173.95 107.5 Q174.4 106.65 175.5 106.15 L177.25 105.15 Q178.15 104.6 179.1 104.25 M215.95 123.1 L215.9 123.05 215.95 122.95 215.95 123.1 M210.1 118.35 L211.35 117.1 212.65 115.75 Q213.3 115.0 214.25 114.8 215.05 114.6 214.85 115.1 214.35 116.75 212.65 117.5 L210.1 118.35 M210.6 108.15 Q209.4 108.8 210.2 108.15 L211.05 107.5 211.2 107.45 Q211.3 107.75 210.6 108.15 M210.5 112.9 L210.8 112.9 211.15 113.05 210.2 114.15 Q209.25 114.65 209.35 114.15 L209.55 113.85 209.75 113.55 210.1 113.25 210.5 112.9 M206.2 110.45 L206.35 110.5 205.55 111.25 204.4 111.8 203.15 112.3 204.0 111.8 204.55 111.45 205.1 111.15 206.0 110.5 206.2 110.45 M191.7 110.85 L195.0 108.85 194.3 109.55 193.65 110.2 192.7 111.15 192.05 111.8 191.55 112.55 Q191.4 112.8 191.4 113.1 L191.45 113.75 Q192.15 114.7 192.65 113.75 192.95 113.15 193.6 112.75 L195.55 111.65 197.2 110.55 Q198.1 109.8 198.0 110.4 L197.85 110.7 197.55 111.35 197.2 112.0 197.05 112.35 197.0 112.7 197.0 113.0 197.0 113.3 197.0 113.65 197.0 113.95 197.1 114.25 197.35 114.6 197.65 114.9 Q199.65 116.3 202.1 115.4 L203.8 114.9 204.65 115.0 204.5 115.25 204.3 115.55 204.15 115.9 204.0 116.25 203.85 116.55 203.75 116.9 203.7 117.2 203.7 117.5 203.75 117.85 203.8 118.15 204.15 118.35 206.25 118.95 206.15 119.15 206.0 119.5 205.8 119.8 205.65 120.1 205.6 120.45 205.55 120.75 205.55 121.1 205.55 121.4 205.6 121.7 205.7 122.0 205.9 122.35 209.85 122.1 212.45 121.5 Q213.1 121.35 213.7 120.8 214.65 119.95 215.4 120.1 L215.1 120.45 214.5 121.1 214.05 121.7 213.45 122.7 213.2 123.4 213.1 124.0 213.2 124.6 213.4 125.25 213.75 125.6 214.1 125.8 215.55 126.2 215.85 126.35 215.95 126.5 215.75 159.5 208.1 169.15 99.9 169.2 85.2 166.5 76.1 154.8 75.8 143.1 75.35 125.4 Q77.2 124.45 79.2 123.65 84.25 121.65 89.05 118.55 93.25 115.85 97.0 113.95 L96.45 114.6 95.15 115.9 93.35 117.55 91.4 119.05 89.7 120.5 Q89.1 120.95 89.25 121.7 92.75 121.75 96.15 118.9 98.1 117.3 100.45 117.35 105.95 117.4 110.95 114.2 115.7 111.2 119.3 110.6 119.05 111.65 120.0 111.7 123.2 111.9 125.95 110.75 129.8 109.2 133.6 108.1 136.55 107.3 139.6 106.65 L139.55 106.95 139.45 107.3 139.4 107.6 139.4 107.9 139.4 108.2 139.4 108.55 139.4 108.85 139.4 109.25 139.5 109.55 141.8 109.65 Q143.0 108.8 144.5 108.6 L147.65 108.05 Q150.6 107.5 150.3 109.85 L151.2 110.15 Q152.8 110.2 154.35 109.45 155.85 108.7 157.45 108.75 158.85 108.85 160.2 109.45 L159.9 109.75 159.6 110.1 159.5 110.4 159.45 110.7 159.45 111.05 159.45 111.35 159.45 111.7 159.5 112.0 159.65 112.3 162.25 112.4 163.75 112.4 164.25 112.8 164.25 113.1 164.25 113.45 164.25 113.75 164.25 114.05 164.4 114.35 164.8 114.65 165.4 114.9 166.0 114.65 166.6 114.1 167.3 113.25 167.75 112.55 168.05 111.9 Q168.15 111.55 168.4 111.3 L169.05 110.6 169.5 110.95 Q170.9 111.95 172.45 111.15 173.95 110.3 175.55 109.55 L177.55 109.4 Q178.6 109.95 179.75 109.75 L178.35 110.7 176.4 111.8 Q175.2 112.35 174.1 113.25 173.5 113.7 173.25 114.3 173.05 114.85 173.4 115.25 L174.0 115.4 Q174.7 115.55 175.25 115.1 L176.0 114.55 177.35 113.8 178.4 113.35 178.8 113.3 179.05 113.55 Q183.05 115.15 187.05 113.55 189.4 112.6 191.7 110.85 M193.85 105.45 Q193.7 105.35 194.0 104.75 L194.1 104.7 Q195.5 104.9 194.85 105.3 L193.85 105.45 M198.85 106.95 Q199.1 106.7 199.0 107.0 L198.5 107.65 198.5 107.6 198.85 106.95" fill="#87393e" fill-rule="evenodd" stroke="none"/>
    <path d="M208.45 165.35 L82.85 165.35 82.85 165.05 208.45 165.05 208.45 165.35 M82.85 166.7 L208.45 166.7 208.45 168.65 82.85 168.65 82.85 166.7 M208.45 170.25 L208.45 170.7 82.85 170.7 82.85 170.25 208.45 170.25" fill="#6e727b" fill-rule="evenodd" stroke="none"/>
    <path d="M208.45 165.6 L83.15 165.6 83.15 165.9 208.45 165.9 208.45 166.7 82.85 166.7 82.85 165.35 208.45 165.35 208.45 165.6" fill="#9498a1" fill-rule="evenodd" stroke="none"/>
    <path d="M208.45 165.9 L83.15 165.9 83.15 165.6 208.45 165.6 208.45 165.9" fill="#e7e7e7" fill-rule="evenodd" stroke="none"/>
    <path d="M82.85 168.65 L208.45 168.65 208.45 170.25 82.85 170.25 82.85 168.65" fill="#494c54" fill-rule="evenodd" stroke="none"/>
    <path d="M73.6 18.05 L73.15 17.95 73.1 146.9 73.3 146.9 73.1 147.15 73.2 159.15 82.75 171.0 82.85 171.0 82.9 170.8 78.65 165.3 78.5 165.1 73.7 159.15 73.55 158.95 73.55 158.6 73.55 146.65 73.5 146.7 73.6 18.05 M83.5 169.1 L84.1 167.55 76.1 157.25 76.45 157.6 76.3 157.4 75.9 157.0 75.8 156.9 75.65 156.75 Q75.5 156.55 75.5 156.2 L75.65 146.55 75.6 146.6 75.75 18.1 74.9 18.15 74.65 18.15 74.55 146.75 74.5 146.7 74.6 158.2 75.05 158.75 83.5 169.1" fill="#6e727b" fill-rule="evenodd" stroke="none"/>
    <path d="M76.9 17.8 L75.75 18.1 75.6 146.6 75.65 146.55 75.5 156.2 Q75.5 156.55 75.65 156.75 L75.8 156.9 75.65 156.6 76.65 155.95 76.7 155.85 76.9 17.8 M76.65 155.95 L76.45 155.7 76.65 155.95" fill="#57595d" fill-rule="evenodd" stroke="none"/>
    <path d="M73.6 18.05 L73.5 146.7 73.55 146.65 73.55 158.6 73.55 158.95 73.7 159.15 78.5 165.1 73.6 158.75 73.8 154.9 74.15 147.65 74.1 149.1 74.25 154.9 74.4 158.0 74.6 158.2 74.5 146.7 74.55 146.75 74.65 18.15 73.6 18.05 M83.45 169.3 L83.5 169.1 75.05 158.75 78.65 163.55 83.45 169.3 M84.1 167.55 L84.35 166.55 84.3 166.45 Q81.3 162.8 78.65 159.0 L76.65 155.95 78.65 158.55 83.8 164.7 84.3 165.35 84.7 165.85 84.95 165.1 77.15 155.25 77.2 146.6 77.15 146.65 77.3 17.65 76.9 17.8 76.7 155.85 76.65 155.95 75.65 156.6 75.8 156.9 75.9 157.0 76.3 157.4 76.45 157.6 76.1 157.25 84.1 167.55 M74.05 146.9 L74.1 146.75 74.1 146.9 74.05 146.9" fill="#9498a1" fill-rule="evenodd" stroke="none"/>
    <path d="M84.35 166.55 L84.7 165.85 84.3 165.35 83.8 164.7 78.65 158.55 76.65 155.95 78.65 159.0 Q81.3 162.8 84.3 166.45 L84.35 166.55 M76.65 155.95 L76.45 155.7 76.65 155.95" fill="#e7e7e7" fill-rule="evenodd" stroke="none"/>
    <path d="M78.5 165.1 L78.65 165.3 82.9 170.8 83.45 169.3 78.65 163.55 75.05 158.75 74.6 158.2 74.4 158.0 74.25 154.9 74.1 149.1 74.15 147.65 73.8 154.9 73.6 158.75 78.5 165.1 M74.05 146.9 L74.1 146.9 74.1 146.75 74.05 146.9" fill="#4d525d" fill-rule="evenodd" stroke="none"/>
    <path d="M217.15 21.9 L217.2 157.7 217.25 157.65 217.2 157.9 216.75 158.5 208.3 168.85 207.7 167.3 215.7 157.0 215.35 157.4 215.5 157.15 215.9 156.75 216.0 156.65 216.1 156.5 216.25 155.95 216.15 146.7 216.2 146.7 216.05 22.2 217.15 21.9 M217.75 146.85 L217.7 146.75 217.7 146.7 217.75 146.7 217.75 146.85 M213.25 164.85 L218.05 158.95 218.25 158.7 218.25 158.35 218.45 135.55 218.7 147.55 218.6 158.95 209.0 170.75 208.9 170.55 213.15 165.0 213.25 164.85" fill="#6e727b" fill-rule="evenodd" stroke="none"/>
    <path d="M214.85 22.3 L216.05 22.2 216.2 146.7 216.15 146.7 216.25 155.95 216.1 156.5 216.0 156.65 216.1 156.35 215.15 155.7 215.35 155.45 215.1 155.7 215.05 155.6 214.85 22.3" fill="#57595d" fill-rule="evenodd" stroke="none"/>
    <path d="M217.15 21.9 Q217.85 21.7 218.55 21.3 L218.75 147.6 218.7 147.55 218.45 135.55 218.25 158.35 218.25 158.7 218.05 158.95 213.25 164.85 218.2 158.5 218.0 154.65 217.95 152.8 217.75 148.25 217.75 147.1 217.75 146.7 217.8 143.9 217.75 145.3 217.75 143.9 217.7 146.7 217.7 146.75 217.75 146.85 217.7 146.9 217.7 148.85 217.7 150.2 217.5 154.65 217.45 156.5 217.4 157.75 217.2 157.9 217.25 157.65 217.2 157.7 217.15 21.9 M208.35 169.05 L208.3 168.85 216.75 158.5 213.15 163.3 208.35 169.05 M207.7 167.3 L207.45 166.3 207.5 166.2 213.15 158.8 215.15 155.7 216.1 156.35 216.0 156.65 215.9 156.75 215.5 157.15 215.35 157.4 215.7 157.0 207.7 167.3 M207.1 165.6 L206.85 164.85 214.65 155.0 214.65 146.9 214.7 146.75 214.65 146.7 214.55 22.3 214.6 22.3 214.85 22.3 215.05 155.6 215.1 155.7 213.15 158.3 208.0 164.45 207.5 165.05 207.1 165.6" fill="#9498a1" fill-rule="evenodd" stroke="none"/>
    <path d="M207.45 166.3 L207.1 165.6 207.5 165.05 208.0 164.45 213.15 158.3 215.1 155.7 215.35 155.45 215.15 155.7 213.15 158.8 207.5 166.2 207.45 166.3" fill="#e7e7e7" fill-rule="evenodd" stroke="none"/>
    <path d="M217.2 157.9 L217.4 157.75 217.45 156.5 217.5 154.65 217.7 150.2 217.7 148.85 217.7 146.9 217.75 146.85 217.75 146.7 217.7 146.7 217.75 143.9 217.75 145.3 217.8 143.9 217.75 146.7 217.75 147.1 217.75 148.25 217.95 152.8 218.0 154.65 218.2 158.5 213.25 164.85 213.15 165.0 208.9 170.55 208.35 169.05 213.15 163.3 216.75 158.5 217.2 157.9" fill="#4d525d" fill-rule="evenodd" stroke="none"/>
    <path d="M209.8 129.0 L209.85 130.8 Q209.8 131.8 208.8 132.0 207.55 131.75 207.6 130.55 L207.8 128.75 Q207.9 127.9 208.8 127.85 L208.8 127.8 Q209.7 128.05 209.8 129.0" fill="#7b2b30" fill-rule="evenodd" stroke="none"/>
    <path d="M207.55 152.65 Q207.4 153.5 206.55 153.85 205.65 154.25 205.4 153.3 L205.4 153.0 205.45 152.8 205.7 152.25 206.25 151.75 206.6 151.65 Q207.75 151.65 207.55 152.65" fill="#7b2b30" fill-rule="evenodd" stroke="none"/>
    <path d="M88.45 142.0 Q87.7 142.55 87.65 143.5 L87.55 145.15 Q87.1 145.1 87.0 144.15 86.85 143.0 87.4 142.1 88.05 141.0 89.55 140.9 L88.45 142.0" fill="#7b2b30" fill-rule="evenodd" stroke="none"/>
    <path d="M85.2 126.65 Q85.05 127.15 85.15 127.75 L85.0 129.0 Q84.0 129.3 84.1 128.3 L84.05 127.05 Q83.95 126.35 84.65 126.2 L84.65 126.1 Q85.35 126.0 85.2 126.65" fill="#7b2b30" fill-rule="evenodd" stroke="none"/>
    <path d="M86.1 152.9 L86.9 153.6 Q87.55 153.95 87.4 154.5 86.45 155.15 85.4 154.15 84.8 153.55 84.75 152.7 84.75 152.25 85.05 152.0 L85.4 151.9 86.1 152.9" fill="#7b2b30" fill-rule="evenodd" stroke="none"/>
    <path d="M206.55 102.5 L206.5 104.55 Q206.45 105.4 206.7 106.4 205.4 106.05 204.95 104.35 204.55 103.1 204.45 101.8 204.3 100.8 205.4 100.8 206.5 101.25 206.55 102.5" fill="#87393e" fill-rule="evenodd" stroke="none"/>
    <path d="M203.15 101.6 L203.8 102.95 204.25 104.2 Q203.5 104.45 203.05 103.35 L202.3 101.8 Q201.7 100.85 202.3 100.4 L202.4 100.4 203.15 101.6" fill="#87393e" fill-rule="evenodd" stroke="none"/>
    <path d="M168.05 96.4 Q168.25 97.15 168.75 97.75 169.3 98.35 169.1 99.2 168.05 99.25 167.1 97.95 166.35 96.95 166.45 96.0 166.45 95.4 167.05 95.4 167.9 95.6 168.05 96.4" fill="#87393e" fill-rule="evenodd" stroke="none"/>
    <path d="M80.5 112.55 L80.35 115.85 Q80.35 117.25 79.75 118.4 78.5 117.6 78.7 115.4 L78.7 111.85 Q78.5 110.15 79.6 109.55 80.7 110.65 80.5 112.55" fill="#87393e" fill-rule="evenodd" stroke="none"/>
    <path d="M80.25 137.75 Q79.95 138.65 79.95 139.7 79.95 140.55 79.5 141.15 78.25 140.85 78.45 139.25 78.6 138.1 79.15 137.0 79.55 136.0 80.4 135.85 80.6 136.75 80.25 137.75" fill="#7b2b30" fill-rule="evenodd" stroke="none"/>
    <path d="M87.95 127.45 L88.55 130.7 Q88.95 132.25 88.1 133.5 86.1 132.85 86.3 130.3 L86.7 126.45 Q86.9 125.0 87.85 124.35 87.75 125.75 87.95 127.45" fill="#7b2b30" fill-rule="evenodd" stroke="none"/>
    <path d="M81.7 130.2 L81.75 132.5 Q81.35 133.05 80.85 132.5 L80.2 131.8 79.75 131.35 79.8 129.0 80.0 126.5 Q80.15 125.15 81.25 124.65 82.2 125.6 81.75 127.25 81.4 128.65 81.7 130.2" fill="#7b2b30" fill-rule="evenodd" stroke="none"/>
    <path d="M214.85 124.8 Q215.15 125.75 214.05 125.9 213.1 126.05 212.75 125.25 L212.75 125.0 212.8 124.75 213.15 124.3 Q213.4 124.15 213.7 124.05 214.6 123.95 214.85 124.8" fill="#7b2b30" fill-rule="evenodd" stroke="none"/>
    <path d="M212.4 143.75 Q212.85 144.3 212.95 145.0 L212.85 146.55 Q211.9 147.15 210.85 146.05 209.95 145.05 210.4 143.9 210.65 143.25 211.25 143.25 212.0 143.15 212.4 143.75" fill="#7b2b30" fill-rule="evenodd" stroke="none"/>
    <path d="M211.95 152.6 L211.65 153.75 211.3 154.75 Q210.85 154.6 210.45 154.15 209.85 153.5 210.2 152.6 210.5 151.8 211.25 151.65 212.1 151.85 211.95 152.6" fill="#7b2b30" fill-rule="evenodd" stroke="none"/>
    <path d="M211.85 156.95 Q211.85 157.6 211.15 157.85 210.2 158.25 209.95 157.25 L209.95 156.95 210.05 156.45 210.4 155.95 210.9 155.7 Q211.95 155.95 211.85 156.95" fill="#7b2b30" fill-rule="evenodd" stroke="none"/>
  </g>
</svg>
