<?xml version="1.0" encoding="UTF-8" standalone="no"?>
<svg xmlns:ffdec="https://www.free-decompiler.com/flash" xmlns:xlink="http://www.w3.org/1999/xlink" ffdec:objectType="shape" height="114.8px" width="292.65px" xmlns="http://www.w3.org/2000/svg">
  <g transform="matrix(1.0, 0.0, 0.0, 1.0, 0.0, 0.0)">
    <path d="M227.7 11.35 L227.7 105.3 223.35 103.6 Q210.7 100.95 201.8 97.75 190.4 96.15 188.9 94.9 L188.7 95.2 Q160.0 92.35 152.0 92.7 L138.9 93.4 131.7 94.0 Q128.05 94.3 123.8 93.25 L123.3 93.25 121.2 93.3 121.2 93.35 120.7 93.45 120.3 93.6 103.2 96.6 Q87.25 99.5 89.25 97.75 L86.85 99.5 80.7 101.4 72.25 103.8 72.25 13.45 72.9 12.3 Q88.3 7.15 107.05 5.85 L114.8 7.2 Q118.45 3.85 128.1 2.8 136.95 1.75 144.35 4.9 146.2 4.3 146.95 3.65 159.2 1.4 170.55 3.85 170.85 4.5 172.2 4.85 L172.6 3.9 194.9 4.4 195.0 4.65 Q195.45 5.7 195.5 6.8 L196.85 5.1 221.95 8.9 Q225.5 10.35 227.7 11.35 M123.0 93.0 L122.8 93.05 123.15 93.05 123.0 93.0" fill="#33140b" fill-opacity="0.30980393" fill-rule="evenodd" stroke="none"/>
    <path d="M283.5 26.45 Q284.55 26.9 285.3 27.7 292.9 28.6 292.65 41.35 L272.0 91.95 Q276.0 95.8 275.5 97.2 L274.7 99.3 Q266.55 115.45 264.65 114.75 256.6 113.45 237.5 105.5 230.65 104.15 223.35 101.05 210.7 98.4 201.8 95.2 190.4 93.6 188.9 92.35 L188.7 92.65 Q160.0 89.8 152.0 90.15 L138.9 90.85 131.7 91.45 Q128.05 91.75 123.8 90.7 L123.3 90.7 121.2 90.75 121.2 90.8 120.7 90.9 120.3 91.05 103.2 94.05 Q87.25 96.95 89.25 95.2 L86.85 96.95 80.7 98.85 50.2 107.3 Q47.1 108.95 40.35 111.1 33.5 113.3 27.75 112.05 21.95 110.8 17.5 103.7 13.0 96.55 6.3 77.05 -0.35 57.5 0.15 44.25 0.55 31.0 13.55 25.75 26.55 20.5 35.1 23.55 41.35 16.0 53.3 12.3 62.8 9.25 71.35 12.5 L72.9 9.75 Q88.3 4.6 107.05 3.3 L114.8 4.65 Q118.45 1.3 128.1 0.25 136.95 -0.8 144.35 2.35 146.2 1.75 146.95 1.1 159.2 -1.15 170.55 1.3 170.85 1.95 172.2 2.3 L172.6 1.35 194.9 1.85 195.0 2.1 Q195.45 3.15 195.5 4.25 L196.85 2.55 221.95 6.35 Q228.7 9.1 230.5 10.0 L232.15 9.6 259.05 16.2 Q261.75 18.35 263.15 20.45 264.7 20.05 266.65 20.45 272.15 21.5 274.2 22.45 L283.5 26.45 M122.8 90.5 L123.15 90.5 123.0 90.45 122.8 90.5" fill="#585065" fill-rule="evenodd" stroke="none"/>
    <path d="M59.55 32.55 L59.55 32.65 Q59.3 32.95 61.7 33.6 58.4 41.3 59.7 49.1 60.95 56.9 63.7 64.3 66.5 71.7 68.15 75.3 69.85 78.95 75.0 79.9 73.25 84.05 73.65 84.0 L73.7 84.05 Q76.7 83.0 75.7 76.2 74.65 69.45 71.3 57.1 67.85 44.7 65.3 38.3 62.7 32.0 59.55 32.55 M56.1 21.25 Q66.25 18.7 71.45 27.5 76.65 36.25 81.6 54.25 L81.55 54.25 Q87.5 70.55 87.5 83.15 87.5 95.75 76.3 96.7 L76.7 97.15 Q66.05 97.7 61.0 89.1 55.95 80.45 51.0 62.5 L51.1 62.5 Q46.2 44.65 46.15 34.75 46.05 24.7 56.15 21.3 L56.1 21.25" fill="#342a43" fill-rule="evenodd" stroke="none"/>
    <path d="M283.3 31.15 Q284.35 31.55 285.1 32.35 290.65 33.05 292.0 39.95 L279.45 70.8 Q261.5 66.15 230.65 56.5 199.8 46.9 161.3 46.05 122.75 45.15 123.3 46.65 L116.8 47.75 Q84.4 53.6 70.75 55.35 66.95 55.85 53.0 59.05 38.15 62.45 35.0 63.8 26.45 67.25 21.4 69.5 15.7 72.0 9.4 72.35 7.45 72.5 6.9 72.85 6.25 73.2 6.15 74.4 L3.45 65.55 0.3 49.25 0.1 46.8 Q1.45 35.25 13.35 30.4 21.25 27.2 27.8 27.1 30.25 28.25 33.15 27.7 L33.35 27.65 35.9 28.3 Q38.85 22.5 50.9 16.65 L51.8 16.5 52.9 16.05 53.4 15.85 Q57.25 14.85 60.85 14.85 L61.05 15.05 61.85 15.35 63.75 15.45 64.45 15.1 Q66.65 15.35 68.75 16.1 L68.85 16.2 69.2 16.55 Q69.85 17.1 70.55 16.85 L71.1 17.15 74.6 12.65 76.8 12.0 79.65 11.5 79.7 11.5 80.1 11.35 80.45 11.05 83.25 10.35 98.2 8.65 99.55 8.8 100.75 8.45 Q105.75 8.95 106.9 7.95 115.35 8.55 114.25 11.55 118.15 5.45 126.7 4.3 130.05 4.2 133.3 4.4 L134.85 4.15 Q139.9 4.75 144.15 7.0 145.95 6.4 146.75 5.75 152.15 4.0 156.4 3.35 L156.6 3.65 158.05 3.5 158.5 3.15 161.45 3.1 Q163.2 3.75 165.05 3.85 L165.25 3.85 167.75 4.55 168.0 4.8 168.95 5.15 169.75 5.1 172.55 6.0 Q181.9 4.05 187.15 4.6 L187.4 4.8 188.65 5.35 191.65 5.65 Q194.8 6.6 195.0 7.15 L195.2 8.0 197.75 7.0 206.25 7.25 210.2 7.75 211.3 7.9 211.35 8.0 211.5 8.45 211.65 8.4 211.8 8.35 211.9 8.3 212.05 8.25 Q213.75 9.7 216.1 9.95 218.65 10.15 221.0 11.15 222.3 11.7 223.4 11.6 L229.0 14.1 232.15 13.25 Q250.4 16.2 258.85 20.85 261.5 23.0 262.95 25.1 L268.05 24.9 Q271.6 25.0 274.1 26.3 279.1 27.85 283.3 31.15 M292.3 41.75 L280.35 71.0 280.3 71.0 292.3 41.65 292.3 41.75 M278.9 74.55 L279.5 73.1 278.9 74.55 M278.5 73.05 L278.05 74.2 Q274.95 72.85 278.5 73.05" fill="#665e72" fill-rule="evenodd" stroke="none"/>
    <path d="M29.0 34.0 Q33.1 35.3 37.7 41.75 42.35 48.15 44.65 55.6 L41.9 58.55 31.9 61.85 30.25 59.45 Q31.6 54.05 30.1 50.55 27.3 44.25 24.1 45.0 23.7 45.05 29.05 48.8 22.4 46.95 22.95 52.5 23.6 59.75 27.35 72.0 31.15 84.25 33.95 90.3 36.65 96.5 39.9 95.95 L39.9 96.0 Q43.0 94.75 41.75 88.05 41.05 83.95 37.4 79.5 L39.15 77.35 49.4 74.6 Q53.95 86.9 54.4 95.8 54.75 104.65 43.15 107.4 L43.15 107.35 Q32.8 109.85 27.5 101.4 22.25 92.95 16.7 75.25 L16.65 75.25 Q11.15 57.55 10.15 51.1 9.15 44.6 11.05 41.1 13.0 37.55 18.95 34.6 24.6 32.55 29.0 34.0" fill="#342a43" fill-rule="evenodd" stroke="none"/>
    <path d="M186.25 10.25 L184.2 85.75 180.55 86.6 172.1 85.75 168.6 84.1 161.75 49.55 161.0 42.65 159.65 85.1 150.1 84.45 146.4 81.85 148.35 81.2 153.05 7.5 158.5 4.9 162.45 7.45 164.35 10.05 172.5 46.5 174.3 7.15 185.0 7.45 186.25 10.25" fill="#342a43" fill-rule="evenodd" stroke="none"/>
    <path d="M187.8 9.45 L182.85 83.15 173.65 84.95 163.3 48.75 162.55 41.85 161.05 81.2 151.65 83.65 149.9 80.4 154.6 6.7 164.0 6.65 165.9 9.25 174.05 45.7 175.85 6.35 186.55 6.65 187.8 9.45" fill="#c66507" fill-rule="evenodd" stroke="none"/>
    <path d="M58.5 28.7 L58.5 28.8 Q55.35 30.15 56.4 36.75 57.35 43.4 60.8 55.8 64.2 68.15 66.75 74.4 69.3 80.6 72.55 80.2 L72.6 80.25 Q75.65 79.15 74.6 72.4 73.6 65.6 70.2 53.25 66.75 40.85 64.25 34.45 61.6 28.15 58.5 28.7 M80.45 50.4 Q85.4 68.3 85.35 78.45 85.4 88.65 75.5 91.8 L75.45 91.75 Q65.0 93.9 59.95 85.3 54.9 76.65 49.95 58.7 L50.0 58.7 Q45.1 40.8 45.05 30.9 44.95 20.85 55.05 17.45 L55.0 17.4 Q65.15 14.9 70.35 23.65 75.55 32.4 80.5 50.4 L80.45 50.4" fill="#c66507" fill-rule="evenodd" stroke="none"/>
    <path d="M34.75 35.4 Q38.6 41.55 42.5 52.15 L40.8 54.4 32.85 56.45 Q30.7 50.3 29.0 46.4 26.2 40.1 23.0 40.85 20.05 42.3 21.3 48.95 22.5 55.6 26.25 67.85 30.05 80.1 32.85 86.15 35.55 92.35 38.8 91.8 L38.8 91.85 Q41.9 90.6 40.65 83.9 39.95 79.8 35.4 75.7 L38.05 73.2 48.3 70.45 Q51.4 82.2 51.6 89.65 51.9 99.8 42.05 103.25 L42.05 103.2 Q31.7 105.7 26.4 97.25 21.15 88.8 15.6 71.1 L15.55 71.1 Q10.05 53.4 9.05 46.95 8.05 40.45 9.95 36.95 11.9 33.4 17.85 30.45 23.5 28.4 27.9 29.85 32.0 31.15 34.75 35.4" fill="#c66507" fill-rule="evenodd" stroke="none"/>
    <path d="M56.2 31.4 Q53.05 32.75 54.1 39.35 55.05 46.0 58.5 58.4 61.9 70.75 64.45 77.0 67.0 83.2 70.25 82.8 L70.3 82.85 Q73.35 81.75 72.3 75.0 71.3 68.2 67.9 55.85 64.45 43.45 61.95 37.05 59.3 30.75 56.2 31.3 L56.2 31.4 M78.15 53.0 Q83.1 70.9 83.05 81.05 83.1 91.25 73.2 94.4 L73.15 94.35 Q62.7 96.5 57.65 87.9 52.6 79.25 47.65 61.3 L47.7 61.3 Q42.8 43.4 42.75 33.5 42.65 23.45 52.75 20.05 L52.7 20.0 Q62.85 17.5 68.05 26.25 73.25 35.0 78.2 53.0 L78.15 53.0" fill="#db952c" fill-rule="evenodd" stroke="none"/>
    <path d="M16.45 32.2 Q26.45 29.45 32.0 38.05 35.85 44.15 39.75 54.8 L30.15 59.1 Q27.95 52.9 26.2 49.0 23.45 42.7 20.3 43.5 17.35 45.0 18.6 51.6 19.75 58.2 23.55 70.45 27.35 82.7 30.1 88.8 32.85 95.0 36.05 94.4 L36.1 94.45 Q39.1 93.3 37.9 86.55 37.15 82.3 35.35 75.85 L45.55 73.1 Q48.65 84.8 48.9 92.25 49.15 102.45 39.35 105.9 L39.35 105.85 Q28.95 108.35 23.7 99.9 18.45 91.45 12.9 73.75 L12.85 73.75 Q7.35 56.0 6.95 46.1 6.4 36.05 16.45 32.25 L16.45 32.2" fill="#db952c" fill-rule="evenodd" stroke="none"/>
    <path d="M207.9 12.65 L195.6 88.8 185.4 87.1 197.75 10.85 207.9 12.65" fill="#332420" fill-rule="evenodd" stroke="none"/>
    <path d="M240.65 20.7 L231.7 93.05 236.7 94.5 234.55 98.9 224.65 95.75 223.95 94.6 Q222.9 94.3 222.0 92.9 220.55 90.55 222.05 88.2 L222.45 87.75 222.65 86.45 222.2 85.45 Q221.75 84.75 221.65 84.0 L217.7 82.9 213.75 94.4 201.2 91.55 199.0 88.15 199.65 86.45 Q199.15 81.5 202.55 78.4 L204.35 73.6 Q204.65 70.95 206.0 68.85 L207.6 64.4 Q208.25 59.1 210.45 54.25 L211.05 52.7 Q213.2 46.6 215.75 40.8 L216.75 37.45 Q217.95 31.95 221.15 27.1 L222.8 22.5 Q223.0 18.75 224.95 15.75 L225.3 15.6 225.45 15.7 229.1 14.75 238.25 17.55 240.65 20.7 M223.65 69.7 L225.4 43.7 217.05 68.1 223.65 69.7" fill="#342a43" fill-rule="evenodd" stroke="none"/>
    <path d="M275.4 34.35 L247.9 89.9 262.2 94.4 264.65 98.0 257.85 105.35 236.4 100.2 233.85 96.35 240.2 81.65 Q240.7 78.55 241.35 75.55 242.1 72.15 244.9 70.6 L247.65 64.2 249.65 56.75 Q250.05 54.95 251.0 53.3 L254.35 47.7 255.95 44.9 256.45 43.6 Q257.6 40.75 257.95 37.7 258.35 34.65 260.75 33.6 L263.75 26.55 273.05 30.55 275.4 34.35" fill="#423654" fill-rule="evenodd" stroke="none"/>
    <path d="M242.55 17.2 L245.0 20.4 236.0 92.7 233.95 94.8 228.65 94.3 226.2 90.8 227.0 80.05 217.75 78.15 213.8 90.15 211.8 92.25 205.55 91.2 203.35 87.8 229.55 15.45 242.55 17.2 M229.75 43.4 L221.4 67.8 227.95 69.4 229.75 43.4" fill="#c66507" fill-rule="evenodd" stroke="none"/>
    <path d="M209.35 10.1 L212.15 13.3 197.05 86.25 189.8 87.8 187.95 85.8 199.2 8.3 209.35 10.1" fill="#c66507" fill-rule="evenodd" stroke="none"/>
    <path d="M147.65 24.35 Q149.15 30.7 150.0 37.2 151.25 45.9 151.0 54.75 L150.95 55.8 Q151.5 68.0 150.0 75.45 148.0 85.5 137.0 86.75 L137.0 86.7 Q125.55 86.9 122.0 77.5 118.5 68.15 116.7 49.6 L116.75 49.6 Q115.15 31.15 117.05 21.4 118.85 11.45 130.1 9.95 L130.1 9.9 Q140.4 9.3 144.4 17.45 146.7 20.5 147.65 24.35 M129.65 23.3 L129.65 23.35 Q128.4 27.45 128.5 31.85 128.5 33.8 128.1 35.7 127.6 38.4 128.45 41.2 128.85 42.6 128.65 43.95 L128.35 45.15 128.6 48.65 Q129.8 61.4 131.25 68.05 132.75 74.65 136.2 74.8 L136.2 74.85 Q139.65 74.3 139.9 67.5 140.15 60.6 139.05 47.85 137.85 35.05 136.4 28.35 134.95 21.6 131.55 21.65 L131.55 21.7 Q130.25 21.95 129.4 23.1 L129.45 23.15 129.65 23.3" fill="#342a43" fill-rule="evenodd" stroke="none"/>
    <path d="M84.2 14.3 L91.4 10.35 94.25 12.95 103.85 76.6 118.4 72.95 120.5 84.65 118.55 86.65 95.45 90.65 90.3 89.5 82.05 16.25 84.2 14.3" fill="#332420" fill-rule="evenodd" stroke="none"/>
    <path d="M148.15 42.7 Q149.85 61.25 147.8 71.25 145.85 81.3 134.85 82.55 L134.85 82.5 Q123.4 82.75 119.85 73.3 116.3 63.95 114.55 45.4 L114.6 45.4 Q112.95 26.95 114.85 17.2 116.7 7.25 127.9 5.75 L127.9 5.7 Q139.0 5.1 142.8 14.6 146.45 24.15 148.2 42.7 L148.15 42.7 M129.35 17.45 L129.35 17.5 Q125.85 18.3 125.65 24.95 125.3 31.7 126.45 44.45 127.6 57.25 129.1 63.85 130.5 70.45 134.05 70.65 L134.05 70.75 Q137.5 70.1 137.75 63.35 137.95 56.45 136.8 43.65 135.7 30.85 134.25 24.15 132.8 17.4 129.35 17.45" fill="#c66507" fill-rule="evenodd" stroke="none"/>
    <path d="M92.55 11.6 L92.8 11.8 94.75 12.15 Q96.65 12.45 97.5 25.8 98.35 39.1 100.05 46.25 101.65 53.4 102.35 63.05 102.9 72.6 108.1 72.1 113.35 71.5 115.2 70.5 118.05 69.05 118.85 71.9 L119.65 75.15 120.65 80.7 Q122.0 87.6 115.1 86.95 L108.7 86.55 108.3 86.4 Q108.45 83.05 112.95 83.65 L117.95 83.9 Q118.05 82.45 117.65 81.15 L116.95 78.05 Q116.6 76.65 115.75 75.35 111.25 78.05 104.85 76.0 103.1 75.45 103.9 73.7 100.1 70.8 100.15 65.55 100.35 53.3 97.35 41.7 96.6 38.85 96.5 35.85 96.15 23.95 91.35 13.15 91.05 12.45 91.45 11.85 L91.6 11.7 91.8 11.6 91.9 11.55 92.15 11.5 92.55 11.6" fill="#342a43" fill-rule="evenodd" stroke="none"/>
    <path d="M92.05 10.6 L101.65 74.25 116.2 70.6 118.3 82.3 116.35 84.3 93.05 87.15 79.5 13.95 82.0 11.95 92.05 10.6" fill="#c66507" fill-rule="evenodd" stroke="none"/>
    <path d="M280.5 34.8 L253.0 90.3 267.3 94.8 269.75 98.4 262.95 105.8 241.5 100.6 238.95 96.75 268.9 26.95 278.15 31.0 280.5 34.8" fill="#c66507" fill-rule="evenodd" stroke="none"/>
    <path d="M244.9 20.55 L238.35 96.05 228.5 94.1 229.35 83.35 220.1 81.5 216.15 93.45 205.7 91.15 231.9 18.8 244.9 20.55 M232.05 46.7 L223.75 71.1 230.3 72.75 232.05 46.7 M280.45 34.65 L255.3 93.95 269.6 98.45 265.2 109.45 241.2 100.4 271.15 30.6 280.45 34.65 M165.85 9.6 L175.2 48.45 177.05 9.1 187.75 9.35 184.0 85.9 173.85 85.25 163.7 44.55 162.2 83.95 151.55 83.6 155.75 9.45 165.85 9.6 M89.7 13.1 L99.35 76.75 113.9 73.1 116.0 84.75 90.75 89.65 79.65 14.4 89.7 13.1" fill="#db952c" fill-rule="evenodd" stroke="none"/>
    <path d="M146.9 74.05 Q145.05 84.05 134.75 85.35 L134.75 85.3 Q124.0 85.45 120.65 76.05 117.3 66.7 115.65 48.15 L115.7 48.15 Q114.1 29.65 115.85 19.95 117.55 10.0 128.15 8.5 L127.7 8.55 Q138.5 7.85 142.05 17.35 145.6 26.95 147.2 45.45 L147.15 45.45 Q148.75 64.05 146.9 74.05 M126.05 27.7 Q125.7 34.45 126.8 47.2 127.95 59.95 129.35 66.6 130.7 73.2 134.0 73.4 L134.0 73.45 Q137.25 72.9 137.45 66.05 137.6 59.2 136.55 46.4 135.45 33.65 134.05 26.95 132.7 20.2 129.5 20.25 L129.5 20.3 Q126.15 21.05 126.05 27.7" fill="#db952c" fill-rule="evenodd" stroke="none"/>
    <path d="M274.15 23.55 L283.45 27.6 Q284.5 28.0 285.25 28.85 292.85 29.75 292.6 42.5 L292.5 42.65 Q291.75 33.25 285.25 32.45 284.5 31.6 283.45 31.2 279.25 27.9 274.25 26.4 271.8 25.05 268.25 24.95 L263.05 25.15 Q261.7 23.1 259.0 20.95 250.55 16.3 232.3 13.35 L229.15 14.15 223.6 11.7 221.1 11.2 Q218.8 10.25 216.25 10.0 213.9 9.8 212.2 8.3 L212.0 8.35 211.9 8.4 211.8 8.45 211.65 8.5 211.5 8.1 211.45 8.0 197.9 7.05 Q196.1 7.65 195.35 8.1 L195.15 7.2 Q194.95 6.7 191.75 5.7 L188.8 5.45 Q188.1 5.25 187.5 4.85 L187.25 4.65 Q182.05 4.1 172.7 6.1 L169.9 5.2 169.1 5.25 Q168.55 5.2 168.1 4.85 L167.9 4.6 165.4 3.9 165.2 3.9 161.6 3.2 158.65 3.25 158.2 3.55 156.75 3.7 156.5 3.45 Q152.3 4.05 146.9 5.85 146.15 6.45 144.3 7.05 140.0 4.8 135.0 4.2 L133.4 4.5 Q130.2 4.25 126.85 4.4 118.3 5.5 114.4 11.65 115.5 8.6 107.0 8.05 105.9 9.05 100.9 8.5 L99.65 8.9 98.35 8.75 80.6 10.8 80.6 10.9 80.25 11.4 79.85 11.6 79.75 11.6 75.25 12.05 71.3 17.2 70.7 16.95 Q70.0 17.15 69.35 16.65 L68.95 16.3 68.85 16.2 Q66.75 15.45 64.6 15.2 L63.9 15.5 62.0 15.45 61.25 15.1 61.0 14.9 Q57.4 14.9 53.55 15.95 L53.05 16.15 51.95 16.55 51.1 16.75 Q39.0 22.6 36.05 28.35 L33.5 27.7 33.3 27.75 Q30.4 28.3 27.9 27.2 21.35 27.3 13.5 30.5 0.5 35.7 0.1 49.0 -0.05 47.1 0.1 45.4 0.5 32.1 13.5 26.9 26.5 21.65 35.05 24.7 41.3 17.1 53.25 13.4 62.75 10.4 71.3 13.6 L72.85 10.9 Q88.25 5.7 107.0 4.45 L114.75 5.75 Q118.4 2.45 128.05 1.35 136.9 0.35 144.3 3.45 146.15 2.85 146.9 2.25 159.15 -0.05 170.5 2.45 170.8 3.1 172.15 3.4 L172.55 2.5 194.85 3.0 194.95 3.25 Q195.4 4.25 195.45 5.4 L196.8 3.7 221.9 7.5 230.45 11.15 232.1 10.7 259.0 17.35 Q261.7 19.5 263.05 21.55 264.65 21.2 266.6 21.55 272.1 22.65 274.15 23.55" fill="#796d6a" fill-rule="evenodd" stroke="none"/>
    <path d="M274.2 22.45 L283.5 26.45 Q284.55 26.9 285.3 27.7 292.9 28.6 292.65 41.35 L292.6 41.5 Q291.8 32.1 285.3 31.3 284.55 30.5 283.5 30.05 L274.2 26.05 Q272.15 25.1 266.65 24.05 264.7 23.65 263.15 24.05 261.75 21.95 259.05 19.8 249.7 15.8 232.35 12.2 L229.2 13.05 220.1 9.0 196.85 6.15 195.5 7.85 Q195.45 6.75 195.0 5.7 L194.9 5.45 Q184.65 3.1 172.6 4.95 L172.4 5.35 Q172.0 4.5 165.85 3.0 159.7 1.55 146.95 4.7 146.2 5.35 144.35 5.95 136.95 2.8 128.1 3.85 118.45 4.9 114.8 8.25 L107.05 6.9 Q88.3 8.2 72.9 13.35 L71.35 16.1 Q62.8 12.85 53.3 15.9 41.35 19.6 35.1 27.15 26.55 24.1 13.55 29.35 0.55 34.6 0.15 47.85 L0.15 44.25 Q0.55 31.0 13.55 25.75 26.55 20.5 35.1 23.55 41.35 16.0 53.3 12.3 62.8 9.25 71.35 12.5 L72.9 9.75 Q88.3 4.6 107.05 3.3 L114.8 4.65 Q118.45 1.3 128.1 0.25 136.95 -0.8 144.35 2.35 146.2 1.75 146.95 1.1 159.2 -1.15 170.55 1.3 170.85 1.95 172.2 2.3 L172.6 1.35 194.9 1.85 195.0 2.1 Q195.45 3.15 195.5 4.25 L196.85 2.55 221.95 6.35 Q228.7 9.1 230.5 10.0 L232.15 9.6 259.05 16.2 Q261.75 18.35 263.15 20.45 264.7 20.05 266.65 20.45 272.15 21.5 274.2 22.45" fill="#423654" fill-rule="evenodd" stroke="none"/>
    <path d="M39.8 32.05 L39.4 32.5 Q38.7 32.7 38.5 32.0 38.3 31.35 38.9 31.1 L39.2 31.0 39.7 31.4 39.8 32.05" fill="#423654" fill-rule="evenodd" stroke="none"/>
    <path d="M41.5 25.0 Q41.3 24.2 42.15 24.1 43.35 24.4 42.55 25.3 41.75 26.1 41.5 25.0" fill="#423654" fill-rule="evenodd" stroke="none"/>
    <path d="M105.25 19.0 L105.8 19.15 106.15 19.35 106.5 19.75 106.75 20.15 106.75 20.4 106.7 20.55 106.6 21.0 106.3 21.4 106.1 21.65 105.75 21.75 104.4 21.55 104.15 21.4 103.95 21.2 103.85 20.75 103.8 20.15 104.05 19.55 104.3 19.35 Q104.45 19.2 104.65 19.15 L105.25 19.0" fill="#423654" fill-rule="evenodd" stroke="none"/>
    <path d="M109.75 14.6 L109.6 14.85 108.75 14.9 Q108.5 14.75 108.6 14.5 L108.65 14.3 108.7 14.2 109.15 13.95 109.45 14.05 109.6 14.2 109.7 14.5 109.75 14.6" fill="#423654" fill-rule="evenodd" stroke="none"/>
    <path d="M144.0 9.35 L143.85 9.8 Q143.2 10.45 142.6 9.7 L142.5 9.45 142.5 9.25 142.55 9.15 142.75 8.9 143.15 8.75 143.35 8.75 143.6 8.85 143.9 9.1 144.0 9.35" fill="#423654" fill-rule="evenodd" stroke="none"/>
    <path d="M151.3 10.55 L150.9 11.45 Q150.5 11.25 150.35 10.6 L150.15 9.5 Q150.2 8.85 150.8 8.8 151.45 8.95 151.45 9.6 L151.3 10.55" fill="#423654" fill-rule="evenodd" stroke="none"/>
    <path d="M211.85 13.45 L199.55 89.6 189.35 87.9 201.7 11.65 211.85 13.45" fill="#db952c" fill-rule="evenodd" stroke="none"/>
    <path d="M292.65 41.15 L272.7 90.1 272.0 89.45 292.65 38.9 292.65 41.15 M123.0 87.95 L123.15 88.0 122.8 88.0 123.0 87.95" fill="#332420" fill-rule="evenodd" stroke="none"/>
    <path d="M274.7 96.75 L275.2 95.45 Q275.7 96.45 275.5 97.0 L274.7 99.05 Q266.55 115.25 264.65 114.55 256.6 113.25 237.5 105.3 230.65 103.95 223.35 100.85 210.7 98.2 201.8 95.0 190.4 93.4 188.9 92.15 L188.7 92.45 Q160.0 89.6 152.0 89.95 L138.9 90.65 131.7 91.25 Q128.05 91.55 123.8 90.5 L123.3 90.5 121.2 90.55 121.2 90.6 120.7 90.7 120.3 90.85 103.2 93.85 Q87.25 96.75 89.25 95.0 L86.85 96.75 80.7 98.65 50.2 107.1 Q47.1 108.75 40.35 110.9 33.5 113.1 27.75 111.85 21.95 110.55 17.5 103.5 13.0 96.35 6.3 76.85 -0.2 57.8 0.15 44.75 0.4 57.15 6.3 74.5 13.0 94.0 17.5 101.15 21.95 108.25 27.9 109.9 33.9 111.45 40.55 109.0 47.15 106.55 50.2 104.75 52.15 104.55 63.35 99.3 66.5 102.45 74.95 99.05 L86.85 94.45 89.25 92.7 Q87.5 95.4 104.15 92.75 120.85 90.0 120.65 89.25 120.5 88.45 120.7 88.4 L121.2 88.25 121.2 88.2 123.3 88.15 123.8 88.15 Q128.05 89.25 131.3 89.3 L140.35 89.3 153.0 88.25 Q160.0 87.3 188.7 90.15 L188.9 89.85 Q190.1 93.1 201.8 92.7 203.9 93.45 205.15 95.15 218.0 99.6 223.35 98.55 230.4 103.9 237.5 103.0 256.35 113.25 264.65 112.25 266.55 112.95 274.7 96.75 M122.8 90.3 L123.15 90.3 123.0 90.25 122.8 90.3" fill="#342a43" fill-rule="evenodd" stroke="none"/>
    <path d="M244.9 20.35 L242.65 46.45 242.05 46.75 Q237.35 49.25 232.7 52.0 232.15 52.25 231.7 52.55 L232.05 46.5 230.85 50.1 Q228.2 51.15 225.65 52.75 228.25 51.0 230.45 49.1 L230.25 48.8 229.9 48.5 229.65 48.4 229.6 48.4 228.0 49.2 229.1 48.15 228.9 47.8 228.55 47.55 228.25 47.45 227.45 47.7 Q223.7 49.2 220.15 51.15 L231.9 18.6 244.9 20.35 M242.1 52.45 L241.9 52.4 Q239.35 53.7 236.85 55.3 L236.4 55.55 236.65 55.4 238.35 54.3 242.15 51.7 242.1 52.45 M269.4 55.8 L269.5 55.7 Q270.65 55.05 271.85 54.65 L271.9 54.65 271.65 55.15 270.5 55.65 269.4 55.8 M267.25 52.0 L267.1 51.75 266.9 51.5 266.6 51.4 Q264.0 52.2 261.5 53.5 L261.2 53.7 271.15 30.4 280.45 34.45 272.9 52.25 Q272.4 52.3 271.95 52.65 L270.8 53.4 268.0 54.6 266.35 55.3 268.25 53.6 268.05 53.35 267.85 53.15 267.6 53.0 263.65 55.1 260.65 56.8 259.85 56.85 259.95 56.5 261.5 55.8 Q262.6 55.4 263.0 54.55 265.4 53.35 267.25 52.0 M242.4 49.4 L237.75 52.55 235.4 54.1 237.45 51.8 237.35 51.55 242.5 48.45 242.4 49.4 M185.65 45.3 L185.3 45.2 Q184.65 45.3 184.15 45.75 L177.95 51.05 175.2 53.2 176.15 52.05 176.0 52.0 175.9 51.8 175.75 51.7 175.5 51.6 Q174.5 52.1 173.55 52.7 L179.85 46.9 179.6 46.55 179.35 46.3 179.05 46.2 Q175.85 48.15 173.0 50.75 L172.05 51.7 168.85 53.75 166.5 55.4 166.35 54.75 168.55 53.05 Q172.2 50.4 175.05 47.45 L175.2 48.25 175.35 45.55 176.7 44.25 176.5 43.95 176.2 43.65 175.9 43.55 175.45 43.85 177.05 8.9 187.75 9.15 185.95 45.6 185.9 45.55 185.65 45.3 M231.4 56.45 L231.6 56.35 232.25 56.1 231.4 56.55 231.4 56.45 M229.65 53.6 L228.05 54.45 228.05 54.4 227.95 54.3 227.8 54.15 227.65 54.05 227.4 54.0 226.9 54.25 230.2 52.05 229.65 53.6 M212.0 13.5 L206.4 48.4 Q203.9 49.2 201.8 51.2 L201.7 51.35 201.9 51.0 201.85 50.95 201.7 50.7 201.55 50.6 201.35 50.55 203.4 48.2 203.2 47.85 202.9 47.6 202.6 47.5 202.55 47.55 196.65 52.1 195.1 53.35 195.15 53.0 196.2 51.7 Q199.4 49.6 201.8 47.05 L201.6 46.75 201.35 46.5 201.0 46.35 201.0 46.4 Q198.2 47.85 195.7 49.75 L201.85 11.75 212.0 13.5 M161.35 53.15 L160.1 54.25 159.35 54.85 158.9 55.3 158.8 55.3 158.6 55.45 158.35 55.65 158.95 54.9 159.15 54.35 159.25 54.25 161.1 52.95 162.1 52.55 Q161.7 52.8 161.35 53.15 M153.15 55.6 L153.25 55.55 153.15 55.6 M156.6 56.15 L157.0 55.85 157.1 55.9 157.25 56.05 157.35 56.1 156.6 56.15 M157.95 51.1 L158.3 50.8 158.55 50.6 160.25 49.8 157.95 51.1 M160.65 47.9 L160.35 48.2 159.4 48.8 155.8 51.2 153.3 52.65 153.4 51.4 154.25 50.8 154.2 51.05 Q154.9 51.3 155.6 50.75 156.6 50.05 157.7 49.4 159.2 48.5 160.8 47.8 L160.65 47.9 M163.35 55.4 L162.75 55.8 162.6 55.8 Q162.9 55.55 163.35 55.2 L163.35 55.4 M163.45 51.25 L163.5 51.25 163.45 51.25 M177.9 53.75 L177.45 54.05 175.55 55.4 175.3 55.4 179.75 51.9 Q183.2 49.2 185.95 46.1 L185.85 48.0 Q182.35 49.95 179.25 52.6 L177.9 53.75 M174.95 47.25 L174.85 47.05 174.65 46.95 174.4 46.9 171.65 48.8 174.75 46.15 175.0 47.35 174.95 47.25 M183.55 52.85 L183.4 52.75 183.1 52.7 181.5 53.65 179.4 55.0 178.9 55.35 178.85 55.35 178.95 55.2 185.8 49.7 185.55 55.2 184.4 55.2 184.6 55.0 Q185.35 54.3 185.5 53.4 L185.4 53.35 185.25 53.15 185.1 53.0 184.85 52.95 Q184.1 53.3 183.5 54.0 L182.2 55.3 181.8 55.3 182.45 54.85 Q183.55 54.2 183.75 53.15 L183.65 53.05 183.55 52.85 M157.05 46.15 L156.9 46.05 156.6 45.95 Q155.55 46.4 154.45 47.2 L153.55 47.9 155.75 9.25 165.85 9.4 174.3 44.5 173.3 45.25 170.5 47.45 170.65 47.2 170.6 47.1 170.45 46.95 170.25 46.85 170.0 46.75 Q168.85 47.35 167.75 48.25 L165.2 50.25 165.1 49.95 166.6 48.65 166.45 48.35 Q166.3 48.2 166.15 48.15 L165.8 47.95 164.8 48.5 163.7 44.35 163.55 49.2 162.95 49.6 162.9 49.15 162.9 49.1 163.0 49.0 162.9 48.85 162.8 48.7 162.65 48.65 161.65 49.25 161.2 49.4 163.05 48.15 162.95 47.95 162.85 47.85 162.7 47.8 161.45 48.3 161.7 48.15 Q162.8 47.5 162.8 46.45 L162.75 46.4 Q162.05 46.2 161.3 46.65 L159.85 47.4 160.45 47.05 161.2 46.55 161.8 45.85 161.65 45.7 161.5 45.6 161.4 45.55 161.25 45.65 159.4 46.85 159.35 46.8 157.85 47.65 158.2 47.4 160.15 46.1 160.1 46.05 160.1 46.0 160.0 45.85 160.0 45.8 160.25 45.6 160.45 45.4 160.45 45.3 160.35 45.1 160.2 45.0 160.05 44.95 159.4 45.25 158.65 45.6 158.6 45.55 157.2 46.3 157.05 46.15 M147.1 45.3 L147.05 45.3 147.1 45.7 146.9 45.4 146.6 45.1 146.3 45.0 Q144.95 45.65 143.6 46.55 L139.9 49.3 137.75 50.55 137.35 50.8 Q139.55 49.05 141.25 47.05 L141.1 46.8 140.8 46.55 140.5 46.5 140.05 46.75 142.3 44.6 142.1 44.25 141.8 44.0 141.5 43.9 136.55 47.25 136.45 46.25 Q135.35 33.4 133.95 26.8 132.6 20.05 129.35 20.1 L129.35 20.15 Q126.1 20.9 125.95 27.55 125.65 33.6 126.55 44.85 L122.05 47.85 Q119.0 50.15 116.05 52.7 L115.55 47.9 115.6 47.9 Q114.05 29.55 115.8 19.75 117.45 10.0 127.7 8.35 138.4 7.75 142.0 17.25 145.5 26.8 147.1 45.3 M157.8 56.1 L157.85 56.05 157.8 56.1 M141.1 50.95 L141.9 50.3 140.65 51.3 141.1 50.95 M147.3 48.4 L146.7 48.85 146.55 48.65 146.25 48.3 145.9 48.0 145.35 47.85 Q144.85 47.9 144.35 48.3 L147.1 45.75 147.3 48.4 M147.75 56.35 L146.15 56.35 147.4 54.7 147.65 54.4 147.75 56.35 M224.65 51.1 L222.5 52.55 218.7 55.05 219.15 53.75 219.35 53.6 220.4 53.0 Q222.5 51.95 224.65 51.1 M223.35 56.3 L223.45 56.25 225.95 54.8 224.5 55.7 223.65 56.35 223.35 56.3 M205.75 52.4 L205.75 52.3 205.8 52.25 205.75 52.4 M204.35 55.4 L204.35 55.45 202.95 55.4 Q204.65 54.3 205.7 52.8 L205.4 54.4 204.35 55.4 M56.2 31.1 L56.2 31.2 Q53.05 32.55 54.1 39.15 54.9 44.85 57.6 54.75 L57.3 54.7 Q56.1 55.55 55.05 56.75 L55.3 55.0 55.2 54.9 55.0 54.75 54.7 54.7 54.5 54.7 54.3 54.9 54.1 54.8 53.8 54.7 52.95 55.3 52.7 55.15 Q50.95 55.8 49.45 56.95 L50.0 56.05 49.8 55.7 49.45 55.45 49.2 55.35 47.25 56.95 47.05 56.85 46.65 57.05 Q42.8 42.05 42.75 33.3 42.65 23.25 52.75 19.85 L52.7 19.8 Q62.85 17.3 68.05 26.05 73.25 34.8 78.2 52.8 L78.15 52.8 78.45 53.65 Q78.05 53.85 77.75 54.1 L77.55 53.9 77.25 53.6 77.0 53.5 Q74.7 54.8 72.85 56.75 L71.65 57.9 69.3 58.05 69.9 57.65 Q73.0 55.65 75.3 53.25 L75.1 52.85 74.8 52.65 74.5 52.55 Q71.85 53.9 69.35 55.7 L68.15 56.55 67.9 55.65 Q64.45 43.25 61.95 36.85 59.3 30.55 56.2 31.1 M89.7 12.9 L95.2 48.85 93.85 50.15 93.4 50.7 93.25 50.5 93.0 50.25 92.65 50.1 92.6 50.15 Q89.9 51.9 87.35 54.15 L90.0 51.2 89.75 50.85 89.45 50.6 89.1 50.5 Q87.35 51.4 85.85 53.0 L85.45 53.45 79.65 14.2 89.7 12.9 M87.75 56.35 L87.75 56.45 87.6 56.45 87.75 56.35 M76.45 57.6 L78.8 55.15 79.2 56.5 79.0 56.6 78.15 57.45 76.45 57.6 M57.35 58.45 L58.35 57.55 58.5 58.2 58.55 58.4 57.35 58.45 M138.3 53.25 L137.05 54.2 137.05 54.05 138.4 53.0 139.4 52.3 138.3 53.25 M127.2 52.7 L124.95 54.2 127.1 51.75 127.2 52.7 M124.0 50.75 L124.15 50.55 124.7 50.1 124.25 50.6 124.0 50.75 M16.75 32.15 Q26.8 29.4 32.3 37.95 35.7 43.4 39.15 52.3 L39.0 52.45 38.65 52.3 Q35.25 54.25 32.25 57.0 L31.8 57.5 29.85 57.3 26.55 49.0 Q23.8 42.7 20.6 43.45 17.65 44.9 18.9 51.55 L19.9 56.25 19.3 56.15 18.85 55.05 17.55 55.2 16.85 55.6 16.75 55.55 16.5 55.35 16.35 55.2 16.05 55.1 16.0 55.05 16.0 54.85 16.0 54.75 15.95 54.6 15.9 54.45 15.85 54.35 15.7 54.2 15.5 54.1 15.2 54.05 15.0 54.0 14.75 54.1 Q14.0 54.35 13.35 54.85 L13.05 55.05 12.35 54.85 10.75 54.3 10.6 54.25 10.55 54.2 10.25 54.0 9.9 53.85 9.75 53.95 9.5 53.75 10.7 52.6 10.4 52.1 9.9 51.9 9.45 51.85 8.0 52.8 Q7.4 49.05 7.3 46.05 6.75 36.05 16.8 32.2 L16.75 32.15 M40.05 54.75 L38.25 55.6 39.85 54.15 40.05 54.75" fill="#f0a535" fill-rule="evenodd" stroke="none"/>
    <path d="M158.2 11.15 L158.1 10.95 158.1 10.9 158.2 10.9 158.3 11.15 158.2 11.15 M164.5 10.5 L164.45 10.5 164.4 10.55 164.4 10.6 164.35 10.8 164.35 11.0 164.35 11.1 164.3 11.15 164.15 10.85 Q164.05 10.55 163.75 10.55 L163.55 10.7 163.55 10.75 163.5 10.85 163.5 10.9 163.5 11.0 163.5 11.05 163.45 11.0 163.4 10.9 163.35 10.85 163.35 10.8 163.3 10.75 163.0 10.7 162.85 10.8 162.8 10.85 162.8 10.8 Q162.7 10.55 162.4 10.6 L162.2 10.85 162.2 10.9 161.95 10.6 Q161.6 10.5 161.55 10.85 L161.55 11.05 161.45 10.9 161.4 10.8 161.4 10.75 161.35 10.7 161.35 10.6 161.25 10.55 161.15 10.5 161.05 10.55 160.9 10.6 160.85 10.75 160.85 10.85 160.6 10.55 160.2 10.6 160.15 10.85 159.9 10.6 159.65 10.6 Q159.55 10.6 159.5 10.7 L159.45 10.75 159.45 10.9 159.3 10.5 Q159.1 10.05 158.75 10.35 L158.65 10.6 158.5 10.35 158.3 10.05 Q158.2 9.9 157.95 9.9 L157.9 9.9 Q157.6 10.1 157.6 10.4 L157.6 10.75 157.55 10.5 157.35 10.2 Q157.3 10.05 157.1 10.05 L156.95 10.1 156.9 10.2 156.85 10.2 156.85 10.25 156.75 10.25 156.55 10.3 156.5 10.3 156.45 10.35 156.6 11.1 156.35 11.1 155.75 9.85 155.75 9.25 165.85 9.4 169.7 25.2 168.85 23.0 167.35 18.4 Q167.6 18.15 166.8 16.05 L165.25 11.9 165.1 11.25 165.05 11.25 164.9 10.85 164.85 10.55 164.65 10.45 164.5 10.5 M165.05 10.2 L165.2 10.25 Q165.75 10.6 165.25 10.05 L165.2 10.05 165.15 10.1 165.1 10.1 165.05 10.15 165.05 10.2 M187.3 11.05 Q186.95 10.1 185.75 10.15 184.6 10.1 183.7 10.55 L183.55 10.7 183.0 10.55 Q182.0 10.35 181.05 10.9 L180.9 10.9 180.6 10.7 179.95 10.6 179.75 10.3 179.5 10.0 179.2 9.8 178.95 9.85 178.85 10.0 178.75 10.05 178.7 10.15 178.0 9.6 177.8 9.65 177.7 9.75 177.6 9.8 177.5 10.4 177.4 10.4 177.35 10.4 177.25 10.45 177.2 10.55 177.1 10.8 177.0 10.8 177.05 8.9 187.75 9.15 184.0 85.7 183.85 85.7 187.45 11.05 187.3 11.05 M211.7 15.4 L211.65 14.9 Q211.55 14.0 211.15 13.35 L212.0 13.5 211.75 15.4 211.7 15.4 M206.6 12.9 L206.5 13.0 206.25 13.85 206.15 13.75 205.95 13.6 205.55 13.5 205.4 13.45 Q204.75 13.65 204.55 14.15 L203.95 14.05 204.0 13.9 203.95 13.8 203.7 13.4 203.25 13.15 202.95 13.05 Q202.25 13.2 202.1 13.75 L201.6 13.65 189.55 88.0 189.5 88.0 201.85 11.75 207.2 12.65 206.8 12.75 206.6 12.9 M207.9 13.0 L207.8 12.9 207.5 12.75 207.35 12.7 209.45 13.1 209.35 13.35 209.15 13.3 208.8 13.2 Q208.3 13.3 208.1 13.65 L207.9 13.0 M255.45 94.65 L255.6 95.0 255.45 94.7 255.45 94.65 M258.75 96.0 L258.15 95.6 Q257.85 95.35 257.6 95.45 L257.55 95.55 257.45 95.65 257.4 95.7 257.3 95.7 257.2 95.7 257.15 95.6 257.0 95.4 256.7 95.25 256.5 95.25 256.45 95.2 255.6 94.35 255.75 93.9 269.6 98.25 268.9 100.05 267.1 99.45 266.45 98.85 265.15 98.65 264.9 98.3 264.25 97.9 263.7 97.8 263.65 97.85 263.55 97.95 263.5 98.0 263.45 98.05 262.75 97.95 262.65 98.05 262.0 97.85 261.35 97.25 260.6 97.35 260.15 96.9 259.7 96.35 259.05 96.25 258.75 96.0 M229.45 74.05 L228.35 73.85 226.15 72.65 Q225.25 71.55 224.1 71.0 L230.2 72.55 230.1 73.95 229.45 74.05 M229.7 29.25 L229.75 29.45 230.15 30.75 229.8 31.55 229.7 29.25 M241.85 20.05 L242.0 20.85 241.85 20.7 Q241.35 20.95 241.3 21.25 L240.85 20.95 Q240.25 21.1 240.3 21.6 L239.3 20.35 Q238.75 20.55 238.8 21.1 L238.1 20.45 Q237.4 20.7 237.5 21.4 237.0 20.45 236.2 19.85 235.3 20.25 235.95 21.2 L236.45 22.2 235.95 22.2 235.55 20.85 235.5 20.7 235.35 20.65 235.15 20.6 234.9 20.65 234.8 20.7 234.7 20.85 Q234.45 21.5 234.75 22.1 L234.25 22.1 234.2 22.05 234.15 21.95 234.0 21.9 233.8 21.85 233.55 21.9 233.4 21.95 233.4 22.05 232.8 21.35 Q232.0 21.85 232.35 22.85 L231.9 22.45 Q231.05 22.8 231.5 23.85 L232.0 25.35 231.8 25.3 231.6 25.35 231.5 25.4 231.35 25.5 Q231.1 26.4 231.3 27.35 L231.35 27.55 231.0 28.55 230.65 26.7 230.55 26.65 230.45 26.55 230.25 26.45 Q229.35 27.45 229.65 29.0 L229.5 28.95 229.25 28.85 229.15 28.95 Q228.45 30.65 228.7 32.8 L228.8 34.05 228.2 35.6 228.05 34.2 228.0 34.15 227.8 34.05 227.6 34.0 Q226.65 35.3 226.9 37.45 L227.05 38.45 220.8 49.25 231.9 18.6 242.0 19.95 241.95 19.95 241.9 19.95 241.85 20.05 M244.45 24.95 L244.55 25.0 238.35 95.85 238.25 95.85 244.45 24.95 M244.65 22.55 L244.7 22.8 244.65 23.7 244.55 23.45 244.65 22.55 M244.5 20.6 L244.45 20.55 244.35 20.55 244.25 20.5 244.2 20.5 244.1 20.55 244.1 20.6 Q243.95 21.15 244.25 21.7 L244.55 22.25 244.1 22.25 244.0 21.9 Q243.75 20.95 243.1 20.35 L243.05 20.35 243.0 20.4 242.9 20.4 242.85 20.45 Q242.9 21.1 243.25 21.8 L243.45 22.25 243.3 22.25 243.15 22.0 243.1 21.85 242.1 19.95 244.7 20.35 Q244.6 20.85 244.85 21.35 L244.8 21.55 244.5 20.6 M272.75 32.55 L272.55 32.5 272.3 32.55 272.2 32.65 272.15 32.65 271.7 32.55 Q271.2 32.7 271.15 33.3 L270.85 34.25 270.25 35.45 270.1 36.0 Q269.05 36.85 269.05 38.15 L269.05 38.45 268.45 39.75 268.05 40.05 Q267.7 40.4 267.85 42.85 267.15 41.15 267.0 41.6 L265.8 44.55 Q264.7 46.4 263.9 48.65 L262.05 53.45 260.6 56.55 Q259.55 58.5 258.75 60.6 258.1 62.35 257.0 63.95 256.35 64.9 256.0 65.9 L253.45 71.6 271.15 30.4 280.45 34.45 279.8 36.05 279.7 35.95 Q279.0 35.05 278.05 35.4 L277.75 35.3 277.45 34.95 277.0 34.5 Q276.45 33.85 275.6 33.95 L275.4 33.75 274.95 33.6 274.8 33.6 274.55 33.3 Q274.3 32.9 273.95 33.05 L273.2 33.1 273.2 33.0 273.05 32.9 273.0 32.75 272.75 32.55 M147.05 45.3 Q148.6 63.05 147.0 73.05 148.2 63.35 146.8 47.15 L146.85 47.15 Q145.25 28.7 141.75 19.1 138.15 9.65 127.45 10.25 117.2 11.85 115.5 21.65 L115.45 22.0 115.8 19.75 Q117.45 10.0 127.7 8.35 138.4 7.75 142.0 17.25 145.5 26.8 147.1 45.3 L147.05 45.3 M223.45 72.8 L223.5 72.65 223.75 72.85 223.45 72.8 M125.95 27.55 Q125.6 34.2 126.7 47.0 127.8 59.8 129.2 66.4 130.6 73.0 133.9 73.25 L133.9 73.3 Q136.25 72.85 137.0 69.3 136.8 71.5 136.2 72.85 L136.05 72.75 Q135.8 72.75 135.75 72.9 L135.45 74.1 134.85 74.7 134.45 74.3 Q133.85 74.5 133.85 75.15 L133.6 75.15 133.6 75.1 133.5 75.1 Q133.3 74.45 132.8 74.15 132.65 74.15 132.6 74.25 L132.4 74.7 Q131.2 74.0 130.2 72.55 130.2 71.45 129.45 70.95 L129.25 71.0 128.9 70.2 128.9 70.05 Q129.1 68.95 128.3 68.45 128.2 68.45 128.15 68.55 L128.1 68.4 128.3 67.35 Q128.7 66.3 127.85 65.8 127.75 65.8 127.7 65.9 L127.45 66.45 126.95 64.9 127.0 64.8 127.2 63.5 Q127.6 62.25 126.75 61.65 L126.7 61.65 126.15 61.2 126.0 60.45 126.8 59.25 Q127.6 57.8 127.05 56.95 127.35 56.1 126.65 55.65 L126.3 55.8 Q126.55 55.0 125.9 54.65 L125.6 54.15 125.45 53.75 125.3 52.95 125.45 52.4 125.6 51.55 Q125.6 51.1 125.2 51.05 L125.15 50.35 125.45 49.65 Q125.9 48.95 125.15 48.7 L125.2 47.4 Q125.35 36.1 125.65 29.45 125.7 27.55 126.05 26.1 L125.95 27.55 M66.3 25.65 L66.25 25.7 65.25 24.65 65.1 23.35 65.0 23.25 64.8 23.15 64.45 23.1 63.85 23.4 62.8 22.7 62.65 22.45 62.5 22.35 62.35 22.25 62.05 22.2 61.9 22.25 60.6 21.75 60.45 21.25 60.25 21.15 60.1 21.05 59.8 20.95 59.1 21.35 58.75 21.3 58.6 20.9 58.45 20.8 58.3 20.65 57.95 20.6 Q57.35 20.65 57.25 21.15 L55.9 21.15 55.85 20.45 55.7 20.35 55.55 20.25 55.2 20.2 Q54.5 20.3 54.2 21.0 L54.1 21.35 52.5 21.7 52.3 21.65 52.3 21.7 Q51.8 21.75 51.6 22.05 50.35 22.55 49.25 23.2 L49.1 22.7 49.0 22.6 48.8 22.5 48.5 22.4 Q47.65 22.7 47.3 23.8 L47.25 24.1 47.15 24.0 47.0 23.9 46.65 23.85 Q45.7 24.4 45.15 25.55 L44.4 27.6 Q43.3 29.4 42.8 31.65 43.5 23.0 52.75 19.85 L52.7 19.8 Q62.85 17.3 68.05 26.05 72.45 33.45 76.65 47.45 L76.55 47.4 76.25 47.25 75.85 47.5 75.05 45.0 75.05 44.2 Q75.05 43.25 74.65 42.4 L74.55 42.25 74.35 42.15 74.1 42.1 73.25 39.9 73.25 39.75 73.05 38.25 72.95 38.15 72.75 38.05 72.5 37.95 72.0 36.65 72.1 35.95 Q72.2 35.15 71.95 34.45 L71.8 34.3 71.6 34.2 71.35 34.15 71.0 34.3 69.9 31.8 69.95 31.65 69.95 31.3 69.8 31.0 69.5 30.7 69.3 30.65 67.8 27.95 67.15 26.9 66.95 25.95 66.8 25.85 66.6 25.7 66.3 25.65 M80.8 15.85 Q80.3 15.6 79.95 15.85 L79.65 14.2 89.7 12.9 90.4 17.55 90.0 18.1 89.65 16.25 Q89.95 15.55 89.65 15.05 L89.8 14.85 89.95 14.65 89.95 14.55 89.95 14.5 89.95 14.4 89.9 14.3 89.65 14.15 89.5 14.1 89.4 14.05 89.0 14.3 88.6 14.75 88.55 14.85 88.35 14.9 88.2 14.75 Q87.65 14.45 87.2 14.9 L87.1 15.1 86.4 15.2 85.6 15.25 85.6 15.3 84.95 15.35 84.85 15.3 84.55 15.4 83.5 15.55 83.55 15.4 83.6 15.35 83.55 15.3 83.55 15.2 83.5 15.1 83.35 15.05 83.25 14.9 83.1 14.85 82.6 15.2 82.3 15.6 82.25 15.75 82.15 15.75 82.1 15.65 Q81.75 15.25 81.3 15.55 L80.8 15.85 M54.1 39.15 Q55.05 45.8 58.5 58.2 61.9 70.55 64.45 76.75 65.1 78.4 65.85 79.55 65.3 79.75 65.2 80.3 L65.15 80.7 64.3 78.9 64.3 78.85 64.25 77.55 64.1 76.6 63.9 76.5 63.75 76.4 63.45 76.3 63.3 76.35 Q61.0 70.25 58.25 60.05 54.8 47.7 53.8 41.05 53.3 37.7 53.85 35.7 53.75 37.15 54.1 39.15 M67.65 82.2 L67.6 82.2 67.4 82.1 67.1 82.0 66.95 82.0 66.45 82.15 66.55 81.55 66.7 80.8 67.85 81.95 67.65 82.2 M78.5 54.3 L78.55 54.05 Q80.6 61.65 81.7 67.85 L81.55 67.8 81.1 68.1 80.95 67.4 80.95 66.3 Q81.0 64.8 80.2 63.9 L79.7 61.8 79.75 60.95 79.6 58.65 79.45 58.55 79.3 58.45 78.95 58.4 78.9 58.45 78.5 56.8 78.5 54.3 M77.05 49.4 L77.05 48.65 77.85 51.4 77.75 51.35 77.15 51.85 77.1 51.6 77.05 49.4 M90.6 22.1 L90.95 20.95 91.15 22.35 90.75 23.25 90.6 22.1 M69.75 82.65 L69.6 82.9 Q69.45 83.8 68.8 84.4 L68.7 84.4 68.7 84.35 Q68.85 83.6 69.15 82.95 L69.2 82.5 69.75 82.65 M33.45 41.95 L33.75 42.7 33.7 42.7 33.4 42.15 33.45 41.95 M11.35 37.0 L11.55 36.75 11.65 36.5 11.55 36.9 11.35 37.0 M21.25 32.75 L21.15 32.7 21.05 32.65 Q20.9 32.7 20.7 32.85 L20.6 33.05 Q20.65 32.5 20.25 32.2 L20.2 32.2 20.05 32.35 19.95 32.4 19.95 32.45 19.9 33.3 19.9 33.45 19.85 33.45 19.75 33.0 19.7 32.9 19.65 32.9 19.55 32.85 19.5 32.85 19.45 32.9 19.35 32.9 19.3 33.0 19.25 33.5 18.9 33.55 18.9 32.45 18.85 32.4 18.8 32.4 18.65 32.35 18.55 32.4 Q18.25 32.75 18.25 33.25 L18.25 33.7 18.1 33.7 18.15 33.0 18.1 32.9 18.05 32.9 17.9 32.85 Q17.5 33.15 17.35 33.75 L17.35 33.85 16.45 34.05 16.5 34.1 16.2 34.25 16.15 34.15 15.9 33.95 15.6 33.85 15.45 33.85 Q14.75 33.9 14.6 34.65 L14.6 34.95 13.4 35.6 13.45 35.45 13.55 35.4 13.6 35.35 13.7 35.35 13.7 35.3 13.75 35.25 13.7 35.0 13.45 34.9 13.3 34.85 Q12.8 35.2 12.65 35.85 L12.6 36.1 12.4 36.25 12.5 35.75 12.45 35.7 12.4 35.6 12.35 35.6 12.25 35.55 12.0 35.7 12.05 35.55 12.0 35.5 11.95 35.4 11.9 35.4 11.8 35.35 Q11.3 35.65 11.05 36.3 L10.35 37.6 10.25 37.85 9.9 38.25 9.85 38.15 9.8 38.15 9.7 38.1 Q9.2 38.45 9.0 39.1 L8.85 39.55 8.8 39.6 8.75 39.6 8.7 39.65 8.4 40.45 8.05 41.35 8.0 41.65 Q7.55 42.65 7.35 43.8 7.95 35.6 16.8 32.2 L16.75 32.15 Q26.8 29.4 32.3 37.95 33.95 40.55 35.55 43.9 L35.55 45.2 35.3 44.8 35.3 44.5 35.25 43.95 35.1 43.9 34.95 43.85 34.9 43.9 34.55 42.6 Q34.15 41.4 33.4 40.7 L33.35 40.7 33.15 40.5 32.9 40.6 32.8 40.65 32.8 40.4 32.75 39.85 Q32.7 39.5 32.4 39.6 L32.25 39.65 32.2 39.75 32.15 39.85 32.2 39.35 32.2 38.95 32.05 38.6 31.85 38.6 31.75 38.6 31.75 38.4 31.65 38.15 31.3 38.1 31.25 38.1 31.05 38.35 31.05 38.4 31.0 38.35 31.0 38.2 31.05 37.6 31.0 37.15 30.95 37.1 30.85 37.1 30.75 37.05 30.65 37.1 30.6 37.1 30.55 37.15 30.5 37.4 30.5 37.75 30.45 37.7 30.45 36.65 30.4 36.6 30.35 36.6 30.25 36.5 30.1 36.6 30.05 36.6 30.0 36.65 29.9 37.1 29.75 36.95 29.75 36.85 29.7 36.8 29.65 36.8 29.55 36.75 28.5 35.9 28.5 35.15 28.45 35.05 28.4 35.05 28.3 35.0 28.25 35.0 28.2 35.05 28.15 34.85 27.9 34.75 27.8 34.7 27.8 34.55 27.8 34.35 27.75 34.3 27.75 34.25 27.65 34.2 27.2 34.25 27.15 34.25 27.15 34.15 27.1 34.05 27.0 34.0 26.9 33.95 26.85 34.0 26.7 33.9 26.65 33.9 26.65 33.8 26.55 33.7 26.5 33.6 26.45 33.6 26.25 33.6 26.15 33.6 26.15 33.55 26.15 33.45 26.15 33.4 26.1 33.35 26.1 33.3 25.55 33.25 25.4 33.4 25.4 33.35 25.35 33.25 25.25 33.2 25.1 33.15 25.05 33.15 25.0 33.2 24.95 33.2 24.9 33.25 24.85 33.3 24.8 33.3 24.7 33.25 24.5 33.4 24.5 33.35 24.55 32.5 24.5 32.45 24.4 32.45 24.3 32.4 24.25 32.4 24.2 32.45 24.15 32.45 24.1 32.5 23.9 33.3 23.85 33.7 23.65 33.6 23.65 33.5 23.65 33.35 23.75 32.45 23.65 32.4 23.6 32.4 23.5 32.35 23.45 32.35 23.4 32.4 23.35 32.4 23.3 32.45 23.1 33.3 23.1 33.4 23.05 33.4 22.95 33.5 22.8 33.45 22.75 33.3 22.7 33.2 22.45 33.0 22.1 33.05 22.1 32.9 22.1 32.85 22.05 32.8 22.05 32.75 22.0 32.7 21.45 32.75 21.3 32.85 21.25 32.75 M99.75 76.9 L99.75 76.45 100.4 76.3 99.75 76.9 M115.85 84.55 L115.85 84.6 115.85 84.55 M115.2 80.9 L115.2 80.45 115.25 80.2 115.35 80.95 115.25 80.95 115.2 80.9 M113.8 75.55 L113.65 74.8 113.4 74.85 113.3 74.25 113.25 74.2 113.15 74.15 112.95 74.1 112.75 74.15 112.65 74.2 112.55 74.25 112.35 75.1 111.65 75.3 111.6 74.6 111.55 74.55 111.45 74.45 111.2 74.4 111.2 74.45 111.05 74.5 110.95 74.55 110.5 75.6 110.05 75.7 110.1 75.3 110.1 75.2 109.95 75.1 109.85 75.05 109.65 75.0 Q109.05 75.15 108.95 75.85 L108.95 75.95 108.15 76.2 108.15 76.15 108.1 76.05 108.0 75.95 107.9 75.85 107.7 75.8 Q107.3 76.0 107.05 76.45 L105.85 76.75 105.9 76.5 Q106.1 75.9 105.9 75.25 L105.85 75.2 105.7 75.15 105.5 75.1 105.4 75.1 105.3 75.15 105.25 75.2 105.2 75.25 105.1 75.7 105.0 75.65 104.85 75.55 104.7 75.5 Q104.15 75.7 103.9 76.4 L103.55 77.35 102.95 77.45 102.95 77.3 102.9 77.25 102.75 77.15 102.65 77.05 102.5 77.0 Q101.85 77.2 101.6 77.8 L100.45 78.1 100.35 78.0 100.25 78.0 100.3 77.9 Q100.9 77.25 101.0 76.5 L100.95 76.4 100.85 76.3 100.75 76.25 100.7 76.25 113.9 72.9 115.15 79.75 114.9 79.55 114.75 79.5 114.7 79.5 114.6 79.5 114.55 79.5 114.5 79.4 114.45 79.2 114.35 78.6 114.35 78.2 114.35 77.75 114.2 77.45 114.15 77.4 114.1 77.4 113.95 76.6 113.95 76.55 114.0 75.95 113.95 75.65 113.9 75.6 113.8 75.55 M71.25 82.25 L71.1 82.2 Q71.95 81.55 72.3 80.25 72.2 82.05 71.65 83.1 L71.6 83.1 71.4 83.05 71.25 82.25 M36.55 46.05 L36.4 46.55 36.4 46.7 36.1 46.05 36.15 45.1 36.55 46.05 M37.05 47.85 L36.9 47.55 36.95 46.9 37.15 47.35 37.1 47.35 37.05 47.5 37.05 47.85 M38.2 50.05 L38.25 49.9 38.55 50.75 38.2 50.05 M38.05 49.55 L37.9 49.45 37.55 48.8 37.55 48.7 37.6 48.4 38.05 49.55 M39.4 55.05 L39.4 54.6 39.4 53.4 39.45 55.0 39.4 55.05 M49.1 95.0 L48.85 96.15 48.95 95.45 49.1 95.0 M49.0 90.3 L48.65 90.4 48.5 88.8 48.75 87.9 48.8 87.55 49.1 90.3 49.0 90.3 M35.45 95.95 L35.3 95.6 35.15 95.45 34.95 95.35 34.7 95.3 34.65 95.35 34.45 94.55 34.3 94.45 34.15 94.35 33.85 94.25 33.65 94.25 33.25 94.45 33.25 93.2 Q34.75 94.65 36.4 94.4 L36.4 94.45 Q37.8 93.85 38.35 92.2 38.25 95.45 36.15 96.35 L36.15 96.3 36.1 96.25 35.8 96.0 35.5 95.9 35.45 95.95 M45.75 75.5 L45.95 75.2 46.1 74.8 46.05 74.45 45.9 74.2 45.8 74.1 45.65 74.0 45.35 73.95 45.15 73.95 Q44.75 73.95 44.5 74.3 L44.45 74.45 44.15 74.35 43.95 74.4 Q43.55 74.55 43.5 74.9 L43.25 74.85 42.35 75.2 42.1 75.5 42.0 75.3 41.9 75.2 41.65 75.1 41.4 75.0 41.25 75.0 40.85 75.1 40.75 74.95 40.65 74.85 40.5 74.8 40.15 74.7 39.85 74.8 39.7 74.85 39.6 74.95 39.5 75.1 39.4 75.75 39.3 75.65 39.1 75.55 38.85 75.45 38.5 75.55 38.35 75.6 38.2 75.75 38.15 75.85 Q38.0 76.4 38.0 77.0 L38.0 77.05 37.6 77.15 37.45 76.6 37.3 76.55 37.15 76.45 36.85 76.35 36.7 76.35 Q36.15 76.45 36.0 76.9 L35.65 75.8 45.85 73.05 Q47.4 78.85 48.25 83.6 L47.7 83.9 47.65 83.7 47.6 82.5 47.35 81.0 47.2 80.9 47.05 80.8 45.75 75.5 M31.7 93.55 L30.55 91.5 31.0 90.7 31.1 90.15 32.8 92.8 32.6 92.75 Q31.95 92.85 31.7 93.55 M27.45 82.0 L27.55 81.5 Q29.1 85.8 30.45 88.7 29.8 88.75 29.6 89.3 L27.05 82.85 27.45 82.0 M23.5 72.15 L23.75 70.7 23.8 70.15 23.85 70.45 26.85 79.5 Q26.25 79.6 26.1 80.05 L23.55 72.3 23.5 72.15 M19.8 58.8 L19.95 56.55 22.35 65.35 Q22.2 65.7 22.2 66.25 L22.2 67.8 19.8 58.8 M18.9 51.55 L19.0 52.15 18.55 52.95 Q18.15 50.5 18.35 48.8 L18.55 47.95 Q18.5 49.45 18.9 51.55" fill="#ffc400" fill-rule="evenodd" stroke="none"/>
    <path d="M211.9 14.15 L204.45 12.9 204.5 12.75 204.6 12.25 212.0 13.5 211.9 14.15 M192.2 77.35 L192.15 77.25 192.1 77.2 192.0 77.15 191.8 77.1 191.65 77.15 191.6 77.2 191.55 77.25 Q191.4 77.8 191.6 78.35 L191.85 79.1 191.75 79.75 190.35 83.9 Q189.7 86.0 189.75 88.05 L189.5 88.0 192.0 72.75 192.45 74.7 192.55 75.05 192.2 77.35 M193.45 63.8 L193.55 64.65 193.9 66.5 193.8 67.35 193.65 66.9 193.6 66.85 193.5 66.8 193.3 66.7 193.2 66.8 193.1 66.8 193.05 66.85 Q192.85 67.5 193.1 68.25 L193.5 69.45 192.9 73.0 Q192.55 72.1 192.5 71.2 L192.4 71.15 192.35 71.1 192.25 71.0 193.45 63.8 M204.05 12.15 L203.55 12.7 202.65 12.55 202.5 13.65 202.35 13.75 Q201.45 14.4 201.9 15.1 L202.1 15.1 202.3 15.1 201.85 17.8 201.7 18.05 Q201.2 18.75 201.2 19.45 L201.35 19.5 201.55 19.6 201.55 19.65 201.45 19.85 201.25 20.35 201.0 20.9 201.05 21.4 201.25 21.5 199.55 32.0 199.35 32.15 Q198.65 32.85 199.0 33.55 L199.2 33.6 199.3 33.6 199.05 34.85 198.0 41.65 Q197.4 42.45 197.2 43.3 L197.35 43.4 197.65 43.45 197.55 44.25 197.4 44.35 Q197.05 44.8 197.15 45.25 L197.35 45.4 197.2 46.5 197.0 46.75 Q196.6 47.1 196.8 47.55 L196.9 47.65 197.0 47.7 196.8 48.9 196.45 49.35 Q196.05 49.9 196.1 50.45 L196.15 50.5 196.3 50.55 196.45 50.6 196.5 50.6 195.9 54.25 195.7 54.65 195.45 55.35 195.05 56.4 Q194.7 57.2 195.05 57.8 L195.3 57.8 195.35 57.8 194.3 64.35 194.05 63.3 194.0 63.25 193.9 63.2 193.75 63.1 193.6 63.2 193.55 63.25 201.85 11.75 204.05 12.15" fill="#ffc400" fill-rule="evenodd" stroke="none"/>
    <path d="M233.1 18.75 L229.15 30.15 Q228.55 30.5 228.65 31.45 L228.65 31.6 227.65 34.45 227.55 34.35 227.3 34.55 Q226.6 35.5 226.8 36.85 L226.6 37.5 226.35 37.3 Q225.85 37.35 225.75 37.8 225.45 38.85 225.65 39.85 L225.75 40.0 225.4 40.95 225.05 40.6 Q223.8 41.35 224.45 43.1 L224.55 43.4 224.25 44.25 223.8 43.85 Q222.6 44.35 222.8 45.95 222.95 46.65 223.25 47.15 L222.45 49.55 221.95 49.1 221.75 49.25 Q220.85 50.6 221.15 52.55 L221.25 52.85 220.55 54.9 220.0 54.4 219.85 54.4 219.6 54.7 Q219.4 56.15 219.6 57.65 L219.45 58.15 218.85 57.6 218.7 57.7 Q217.65 58.9 218.65 60.45 L218.4 61.05 217.65 60.35 Q217.45 60.35 217.35 60.5 216.7 61.9 217.6 63.4 L217.05 64.9 216.3 64.1 Q214.9 65.15 215.95 67.15 L216.15 67.55 215.6 69.2 214.85 68.5 Q214.65 68.5 214.55 68.7 213.9 70.05 214.8 71.5 L214.6 72.05 214.0 71.5 Q212.85 71.9 213.25 73.15 L213.9 74.15 213.75 74.6 212.9 73.7 212.5 73.95 Q211.8 74.95 212.55 76.25 L213.0 76.75 212.75 77.4 212.0 76.7 Q210.55 77.6 211.7 79.2 L212.0 79.55 211.55 80.9 210.9 80.35 Q209.6 80.85 210.25 82.15 L210.85 82.9 210.85 83.0 210.25 82.5 Q209.1 82.85 209.5 84.05 209.7 84.65 210.15 85.05 L209.65 86.35 209.05 85.75 Q208.8 85.8 208.7 86.0 208.25 87.3 208.9 88.55 L208.1 90.8 216.25 93.05 216.15 93.25 205.7 90.95 231.9 18.6 233.1 18.75 M243.25 95.55 L242.75 97.7 Q242.3 101.4 246.1 101.4 246.9 102.55 248.35 102.8 L251.55 102.9 265.4 108.85 265.2 109.25 241.2 100.2 243.25 95.55 M229.75 93.9 L238.4 95.65 238.35 95.85 228.5 93.9 229.35 83.15 221.25 81.55 221.3 81.3 230.55 83.15 229.75 93.9 M232.05 50.15 L232.05 50.45 Q232.05 51.35 232.5 52.15 L232.45 52.75 Q232.35 53.95 232.7 55.15 L232.7 55.45 232.65 55.45 232.45 56.1 232.55 56.7 232.6 56.85 232.6 57.15 Q232.3 57.35 232.25 57.7 L232.3 58.25 232.35 58.6 232.25 58.7 Q232.0 59.05 232.05 59.4 L232.25 60.2 232.35 60.6 232.35 60.75 232.3 60.8 Q231.85 61.25 231.9 61.9 L232.05 62.95 232.05 63.9 231.9 64.05 Q231.6 64.3 231.65 64.75 L231.65 65.45 231.65 65.85 231.6 65.9 Q231.3 66.15 231.3 66.5 L231.4 67.1 231.55 67.5 Q231.05 68.3 231.3 69.25 231.55 70.1 231.4 70.9 231.25 71.65 231.25 72.4 L231.25 72.45 230.35 72.25 231.8 51.05 232.05 50.15 M269.85 34.55 L269.85 36.45 267.15 42.9 266.8 43.55 266.8 43.8 265.8 46.05 264.95 47.0 Q264.05 48.0 264.1 49.55 L264.1 50.1 263.5 51.6 Q262.75 52.05 262.7 52.9 L262.65 53.65 261.7 55.85 261.25 56.05 Q259.2 57.0 259.3 59.35 259.35 60.55 258.7 61.55 257.9 62.85 257.65 64.4 255.75 65.6 255.45 67.9 L254.7 72.15 254.6 72.75 253.2 76.05 Q252.65 76.5 252.45 77.2 L251.65 79.05 251.15 80.15 Q249.75 80.65 249.5 82.1 249.2 83.7 248.3 85.05 247.55 86.2 247.25 87.55 246.35 87.95 246.1 88.85 L245.8 90.15 245.6 90.95 244.9 91.65 271.15 30.4 Q271.65 30.6 272.2 30.9 L271.35 32.85 Q269.95 33.1 269.85 34.55 M177.6 8.9 Q177.45 9.6 177.7 10.25 L177.65 10.3 Q177.25 10.75 177.35 11.35 177.5 12.15 178.1 12.5 L178.1 13.25 177.8 13.05 Q176.75 13.35 177.25 14.5 L177.9 15.8 177.95 15.9 177.95 16.55 177.45 16.1 Q177.25 16.1 177.2 16.25 176.6 17.55 177.5 19.0 L177.8 19.4 177.8 19.8 177.65 19.65 Q177.2 19.65 177.15 20.1 177.1 21.1 177.5 22.05 L177.7 22.35 177.65 22.8 177.6 22.75 Q177.35 22.75 177.2 23.0 176.7 23.85 177.25 24.85 L177.5 25.25 177.45 26.2 177.2 26.0 Q176.9 26.0 176.75 26.3 176.6 27.25 177.15 28.2 L177.35 28.5 177.3 30.25 176.75 29.7 176.45 29.95 Q176.15 31.35 176.95 32.8 L177.15 33.2 176.7 32.8 176.4 33.05 Q176.15 34.3 176.7 35.55 176.35 35.55 176.35 36.0 176.25 37.15 176.7 38.35 L176.95 38.65 176.9 39.2 176.8 39.15 Q176.5 39.15 176.45 39.5 176.3 40.55 176.75 41.5 L176.75 41.9 Q176.15 43.35 175.9 44.95 L175.8 45.65 175.45 43.95 177.05 8.9 177.6 8.9 M156.1 9.25 L155.9 9.7 Q155.85 10.55 156.1 11.45 L156.15 11.5 Q155.6 11.95 155.95 12.95 156.25 13.7 156.8 14.05 L156.75 14.85 Q156.45 14.9 156.35 15.15 155.65 16.25 156.45 17.55 155.95 17.6 155.8 18.1 155.5 19.2 156.1 20.3 L156.15 20.35 Q155.85 20.45 155.75 20.7 155.4 21.7 155.85 22.75 L156.2 23.3 156.2 23.95 155.95 24.25 Q155.6 25.35 156.05 26.45 L156.05 27.0 155.95 26.95 155.5 27.35 Q155.05 28.85 155.8 30.5 L155.75 31.7 155.55 31.85 Q154.5 33.25 155.6 34.85 L155.55 34.85 Q154.5 35.75 154.35 37.4 154.2 39.3 154.2 41.3 L154.3 44.85 Q153.5 46.25 154.7 47.1 154.05 47.4 154.15 48.25 L154.15 49.75 153.75 51.45 Q153.55 52.5 154.0 53.05 L153.8 52.95 153.3 53.25 155.75 9.25 156.1 9.25 M153.2 54.85 Q153.65 55.65 154.35 56.05 L154.3 56.9 153.7 56.4 Q153.3 56.45 153.05 56.75 L153.2 54.85 M164.8 48.65 L164.85 48.3 165.85 50.05 166.25 51.7 166.5 53.15 167.0 53.85 166.85 54.2 Q166.7 54.75 167.0 55.15 L167.85 56.45 167.95 56.6 Q167.55 56.8 167.7 57.45 168.0 58.5 168.7 59.4 L168.8 59.75 Q168.45 59.85 168.55 60.4 168.7 61.55 169.5 62.6 L169.5 62.7 Q169.25 62.75 169.25 62.95 169.25 64.3 170.2 65.35 L170.5 66.45 Q169.8 66.6 170.05 67.3 170.45 68.3 171.0 69.15 L170.85 69.2 Q170.5 69.25 170.55 69.65 170.75 71.2 171.85 72.45 L172.05 72.75 172.1 72.9 171.9 72.75 171.7 72.8 Q171.35 72.85 171.35 73.15 171.45 74.3 172.25 75.25 172.45 75.55 172.8 75.7 L172.9 76.05 172.7 75.85 Q172.05 75.9 172.2 76.55 172.6 77.9 173.55 79.1 L173.65 79.25 173.8 79.9 Q173.35 79.95 173.4 80.45 L173.7 81.65 173.55 81.55 173.3 81.6 Q173.1 81.65 173.05 81.75 L164.8 48.65 M153.0 58.25 L153.2 58.6 153.25 58.75 152.95 58.95 153.0 58.25 M153.9 83.5 L153.95 83.45 162.2 83.7 162.2 83.75 153.9 83.5 M152.3 70.15 Q152.8 70.95 153.5 71.35 L153.4 73.5 153.0 73.3 Q152.5 73.35 152.35 73.8 152.15 75.15 153.25 75.75 L153.2 77.4 152.85 77.25 Q152.25 77.3 152.2 77.85 152.1 79.05 153.0 79.7 L152.9 81.65 Q152.05 82.3 152.85 83.05 L152.8 83.4 153.25 83.4 153.35 83.45 151.55 83.4 152.3 70.15 M152.6 65.85 L152.6 65.9 Q153.0 66.7 153.75 66.9 L153.65 68.75 153.0 68.35 Q152.65 68.45 152.45 68.65 L152.6 65.85 M153.95 64.15 L152.85 63.1 152.75 63.2 152.85 60.65 153.0 61.1 Q153.35 61.9 154.05 62.25 L153.95 64.15 M173.85 85.05 L173.4 83.0 174.35 85.1 173.85 85.05 M176.2 85.2 L176.15 85.1 184.0 85.65 184.0 85.7 176.2 85.2 M80.9 14.2 L84.5 36.05 Q83.95 37.6 84.45 39.0 83.9 39.8 84.05 41.15 84.3 42.75 85.35 43.85 L85.85 44.25 86.0 45.25 Q84.35 46.85 86.3 48.6 84.95 50.35 87.05 52.1 L87.15 52.2 87.2 52.3 Q85.65 53.2 86.4 54.6 85.75 55.8 86.5 57.15 L87.2 58.15 Q87.15 59.25 87.85 60.15 L87.8 60.6 Q87.6 62.1 88.25 63.35 L88.85 64.2 88.65 64.65 Q87.95 66.65 89.4 68.05 L89.8 68.45 89.7 68.65 Q89.1 70.5 90.35 71.55 L90.6 73.05 Q89.9 73.7 90.2 75.05 90.5 76.5 91.15 76.65 L91.2 77.05 Q90.65 77.75 90.45 78.8 90.2 80.5 90.75 82.0 91.35 83.65 92.1 83.8 90.7 84.75 91.15 86.6 L91.05 86.8 Q90.65 87.95 91.25 88.85 L90.75 89.45 79.65 14.2 89.7 12.9 89.75 13.05 80.9 14.2 M100.55 76.55 L100.5 76.3 113.9 72.9 113.95 73.25 100.55 76.55" fill="#ffc400" fill-rule="evenodd" stroke="none"/>
  </g>
</svg>
