<?xml version="1.0" encoding="UTF-8" standalone="no"?>
<svg xmlns:ffdec="https://www.free-decompiler.com/flash" xmlns:xlink="http://www.w3.org/1999/xlink" ffdec:objectType="shape" height="100.95px" width="273.55px" xmlns="http://www.w3.org/2000/svg">
  <g transform="matrix(1.0, 0.0, 0.0, 1.0, -6.9, -8.5)">
    <path d="M280.45 34.65 L255.3 93.95 269.6 98.45 265.2 109.45 241.2 100.4 271.15 30.6 280.45 34.65 M177.05 9.1 L187.75 9.35 184.0 85.9 173.85 85.25 163.7 44.55 162.2 83.95 151.55 83.6 155.75 9.45 165.85 9.6 175.2 48.45 177.05 9.1 M189.35 87.9 L201.7 11.65 211.85 13.45 199.55 89.6 189.35 87.9 M216.15 93.45 L205.7 91.15 231.9 18.8 244.9 20.55 238.35 96.05 228.5 94.1 229.35 83.35 220.1 81.5 216.15 93.45 M230.3 72.75 L232.05 46.7 223.75 71.1 230.3 72.75 M147.15 45.45 Q148.75 64.05 146.9 74.05 145.05 84.05 134.75 85.35 L134.75 85.3 Q124.0 85.45 120.65 76.05 117.3 66.7 115.65 48.15 L115.7 48.15 Q114.1 29.65 115.85 19.95 117.55 10.1 127.9 8.55 138.55 7.95 142.05 17.35 145.6 26.95 147.2 45.45 L147.15 45.45 M129.5 20.3 Q126.15 21.05 126.05 27.7 125.7 34.45 126.8 47.2 127.95 59.95 129.35 66.6 130.7 73.2 134.0 73.4 L134.0 73.45 Q137.25 72.9 137.45 66.05 137.6 59.2 136.55 46.4 135.45 33.65 134.05 26.95 132.7 20.2 129.5 20.25 L129.5 20.3 M113.9 73.1 L116.0 84.75 90.75 89.65 79.65 14.4 89.7 13.1 99.35 76.75 113.9 73.1 M54.1 39.35 Q55.05 46.0 58.5 58.4 61.9 70.75 64.45 77.0 67.0 83.2 70.25 82.8 L70.3 82.85 Q73.35 81.75 72.3 75.0 71.3 68.2 67.9 55.85 64.45 43.45 61.95 37.05 59.3 30.75 56.2 31.3 L56.2 31.4 Q53.05 32.75 54.1 39.35 M52.7 20.0 Q62.85 17.5 68.05 26.25 73.25 35.0 78.2 53.0 L78.15 53.0 Q83.1 70.9 83.05 81.05 83.1 91.25 73.2 94.4 L73.15 94.35 Q62.7 96.5 57.65 87.9 52.6 79.25 47.65 61.3 L47.7 61.3 Q42.8 43.4 42.75 33.5 42.65 23.45 52.75 20.05 L52.7 20.0 M16.45 32.25 L16.45 32.2 Q26.45 29.45 32.0 38.05 35.85 44.15 39.75 54.8 L30.15 59.1 Q27.95 52.9 26.2 49.0 23.45 42.7 20.3 43.5 17.35 45.0 18.6 51.6 19.75 58.2 23.55 70.45 27.35 82.7 30.1 88.8 32.85 95.0 36.05 94.4 L36.1 94.45 Q39.1 93.3 37.9 86.55 37.15 82.3 35.35 75.85 L45.55 73.1 Q48.65 84.8 48.9 92.25 49.15 102.45 39.35 105.9 L39.35 105.85 Q28.95 108.35 23.7 99.9 18.45 91.45 12.9 73.75 L12.85 73.75 Q7.35 56.0 6.95 46.1 6.4 36.05 16.45 32.25" fill="url(#gradient0)" fill-rule="evenodd" stroke="none"/>
  </g>
  <defs>
    <linearGradient gradientTransform="matrix(-0.0405, -0.0235, 0.0097, -0.0168, 612.95, -365.2)" gradientUnits="userSpaceOnUse" id="gradient0" spreadMethod="pad" x1="-819.2" x2="819.2">
      <stop offset="0.011764705882352941" stop-color="#ffe053" stop-opacity="0.11764706"/>
      <stop offset="0.396078431372549" stop-color="#ffde43" stop-opacity="0.98039216"/>
      <stop offset="0.5333333333333333" stop-color="#fff0aa" stop-opacity="0.8862745"/>
      <stop offset="0.7490196078431373" stop-color="#ffde47" stop-opacity="0.7372549"/>
      <stop offset="1.0" stop-color="#ffe156" stop-opacity="0.019607844"/>
    </linearGradient>
  </defs>
</svg>
