<?xml version="1.0" encoding="UTF-8" standalone="no"?>
<svg xmlns:ffdec="https://www.free-decompiler.com/flash" xmlns:xlink="http://www.w3.org/1999/xlink" ffdec:objectType="shape" height="61.7px" width="109.0px" xmlns="http://www.w3.org/2000/svg">
  <g transform="matrix(1.0, 0.0, 0.0, 1.0, 0.0, 0.0)">
    <path d="M107.05 8.4 Q108.55 13.95 108.9 20.85 L108.8 21.35 108.45 21.8 107.95 21.95 99.95 22.2 99.25 21.95 Q98.85 21.65 98.85 21.2 L98.35 15.45 Q97.9 11.55 97.0 11.0 95.4 11.6 95.0 15.45 L95.0 15.6 Q94.3 19.25 99.4 24.3 L99.45 24.3 Q105.0 30.15 107.2 33.85 L107.3 33.95 Q109.0 38.05 109.0 42.6 109.0 46.85 107.45 51.55 L107.4 51.65 Q105.4 59.45 97.7 60.25 L97.3 60.3 Q88.65 60.05 86.35 52.0 84.8 46.65 84.1 40.9 84.05 40.45 84.3 40.15 L85.45 38.25 93.85 39.0 94.1 39.55 94.9 44.8 94.9 44.85 Q95.35 48.8 96.9 49.25 97.8 48.6 98.3 44.7 L98.35 44.6 Q99.4 39.6 94.6 34.95 89.25 29.8 87.3 25.6 L87.35 25.65 Q84.1 20.05 84.85 13.05 L84.9 13.0 Q85.15 11.15 85.9 8.6 87.95 0.65 96.75 0.05 L96.85 0.05 Q104.7 0.3 107.0 8.4 L107.05 8.4 M82.6 22.15 Q82.25 32.25 77.35 36.65 L84.5 59.1 84.5 59.7 84.2 60.15 83.7 60.4 75.7 61.4 74.95 61.25 74.55 60.7 68.1 39.85 68.15 59.9 68.0 60.4 67.65 60.8 67.15 60.9 59.05 60.65 58.35 60.35 58.1 59.9 51.8 60.1 51.05 59.9 50.7 59.25 49.7 52.05 44.35 52.3 43.6 60.75 43.3 61.4 42.6 61.65 34.55 61.7 34.0 61.55 33.6 61.15 33.5 60.6 40.4 3.1 40.7 2.5 Q40.95 2.25 41.35 2.2 L51.0 0.15 Q51.55 1.3 51.0 0.0 L52.0 1.55 52.35 2.15 58.0 42.5 58.0 2.9 59.05 0.75 59.15 0.75 59.15 0.7 59.15 0.75 60.45 0.85 66.25 1.35 73.7 1.95 73.75 1.95 Q81.8 4.05 82.6 22.05 L82.6 22.15 M71.65 13.2 Q70.8 10.35 68.1 10.55 L68.1 30.0 Q69.85 29.65 70.75 28.9 L70.75 28.95 Q72.1 27.45 72.35 21.3 L72.35 21.25 Q72.35 15.15 71.65 13.25 L71.65 13.2 M46.6 31.4 L45.5 42.05 48.3 42.1 46.6 31.4 M34.1 0.9 L34.5 1.35 34.6 1.9 31.6 59.4 Q30.15 60.15 29.9 60.45 L29.2 60.7 21.45 60.7 20.85 60.5 Q20.5 60.25 20.45 59.9 L16.55 39.25 Q16.3 49.2 13.25 59.85 L12.9 60.5 12.25 60.7 3.9 60.6 3.15 60.35 Q2.85 60.05 2.85 59.65 L0.0 2.1 Q0.0 1.7 0.3 1.4 0.55 1.0 1.0 1.0 L8.65 0.5 9.15 0.6 9.55 1.0 9.7 1.55 10.5 24.15 12.35 9.5 12.65 8.9 13.25 8.6 20.15 7.8 Q20.55 7.75 20.95 8.1 L21.3 8.75 23.35 25.45 24.5 1.75 Q24.5 1.35 24.8 1.1 25.1 0.75 25.5 0.75 L33.55 0.75 34.1 0.9" fill="#641a1f" fill-rule="evenodd" stroke="none"/>
  </g>
</svg>
