<?xml version="1.0" encoding="UTF-8" standalone="no"?>
<svg xmlns:ffdec="https://www.free-decompiler.com/flash" xmlns:xlink="http://www.w3.org/1999/xlink" ffdec:objectType="shape" height="59.55px" width="112.8px" xmlns="http://www.w3.org/2000/svg">
  <g transform="matrix(1.0, 0.0, 0.0, 1.0, 0.0, 0.0)">
    <path d="M101.25 20.05 L100.75 14.2 Q100.1 9.05 98.35 8.85 95.85 9.2 95.35 14.25 94.45 18.35 100.0 23.95 105.55 29.65 107.7 33.25 109.35 37.15 109.35 41.5 109.35 45.65 107.8 50.2 105.95 57.5 98.65 58.15 L98.65 58.2 Q90.8 58.0 88.65 50.6 87.2 45.35 86.45 39.65 L94.45 38.6 Q94.5 39.0 97.85 39.6 94.85 41.3 95.25 43.85 95.85 49.0 98.3 49.15 100.0 48.85 100.7 43.7 101.9 38.2 96.65 33.1 91.45 28.15 89.55 24.05 86.5 18.7 87.25 12.05 L88.2 7.75 Q90.15 0.55 98.15 0.0 105.3 0.25 107.4 7.55 108.9 13.0 109.25 19.8 L104.8 21.15 101.25 20.05 M74.8 1.8 Q82.2 3.95 82.9 21.0 82.55 31.1 77.55 35.2 L84.9 58.3 79.4 59.3 76.9 59.3 70.4 38.25 68.45 38.3 68.5 58.8 60.4 58.55 60.4 57.7 53.1 58.0 51.9 49.9 44.75 50.15 43.95 59.55 34.0 59.25 42.8 2.1 50.5 0.95 52.0 1.2 52.7 1.2 60.4 55.95 60.4 1.8 67.6 1.25 74.8 1.8 M68.45 8.55 L68.45 30.05 Q71.4 29.75 72.75 28.55 74.4 27.0 74.7 20.2 74.7 13.8 74.0 11.8 72.7 7.7 68.45 8.55 M34.9 0.7 L30.55 58.6 22.8 58.6 17.8 32.2 13.6 58.6 5.25 58.5 2.4 0.95 10.05 0.45 11.2 35.7 14.7 8.5 21.6 7.75 25.1 36.25 26.85 0.7 34.9 0.7 M50.8 42.0 L47.7 22.6 45.65 41.95 50.8 42.0" fill="#9a1000" fill-rule="evenodd" stroke="none"/>
    <path d="M110.85 8.55 Q112.35 14.05 112.7 20.85 L104.7 21.1 104.2 15.2 Q103.55 10.05 101.8 9.85 99.3 10.25 98.8 15.25 97.9 19.35 103.45 24.95 109.0 30.7 111.15 34.3 112.8 38.2 112.8 42.5 112.8 46.65 111.25 51.25 109.4 58.55 102.1 59.15 L102.1 59.2 Q94.25 59.0 92.1 51.65 90.65 46.35 89.9 40.65 L97.9 39.6 98.7 44.9 Q99.3 50.0 101.75 50.15 103.45 49.85 104.15 44.75 105.35 39.2 100.1 34.15 94.9 29.15 93.0 25.05 89.95 19.7 90.7 13.05 91.0 11.3 91.65 8.75 93.6 1.55 101.6 1.0 108.75 1.25 110.85 8.55 M70.95 8.4 L70.95 29.9 Q73.9 29.6 75.25 28.4 76.9 26.85 77.2 20.05 77.2 13.65 76.5 11.65 75.2 7.55 70.95 8.4 M77.3 1.65 Q84.7 3.8 85.4 20.85 85.05 30.95 80.05 35.05 L87.4 58.15 79.35 59.15 72.85 38.1 70.95 38.15 71.0 58.65 62.9 58.4 62.9 1.65 70.1 1.1 77.3 1.65 M32.55 0.8 L28.15 58.7 20.4 58.7 15.45 32.3 11.2 58.7 2.85 58.6 0.0 1.05 7.65 0.55 8.85 35.8 12.35 8.6 19.25 7.85 22.75 36.35 24.45 0.8 32.55 0.8 M50.8 0.9 L58.75 57.4 51.2 57.65 50.05 49.6 42.9 49.85 42.05 59.25 34.0 59.3 40.9 1.8 50.8 0.9 M48.9 41.7 L45.85 22.3 43.8 41.65 48.9 41.7" fill="#cd4200" fill-rule="evenodd" stroke="none"/>
    <path d="M110.85 8.55 Q111.9 12.35 112.4 16.75 110.2 18.2 109.25 19.6 L108.2 21.0 104.7 21.1 104.2 15.2 Q103.55 10.05 101.8 9.85 99.3 10.25 98.8 15.25 97.95 19.2 103.1 24.6 100.5 25.9 97.0 27.1 L94.65 27.9 93.0 25.05 Q89.95 19.7 90.7 13.05 91.0 11.3 91.65 8.75 93.6 1.55 101.6 1.0 108.75 1.25 110.85 8.55 M102.5 34.1 L102.9 33.9 102.6 34.15 102.5 34.1 M70.95 8.4 L70.95 29.9 Q73.9 29.6 75.25 28.4 76.9 26.85 77.2 20.05 77.2 13.65 76.5 11.65 75.2 7.55 70.95 8.4 M70.1 1.1 L77.3 1.65 Q84.7 3.8 85.4 20.85 85.2 26.85 83.35 30.8 L79.5 31.65 70.5 31.7 64.25 32.65 Q63.85 32.8 63.6 33.05 L62.9 33.05 62.9 1.65 70.1 1.1 M81.05 40.05 L80.85 40.2 80.6 40.35 80.15 40.35 79.9 40.1 81.05 40.05 M50.8 0.9 L55.35 33.3 53.0 33.3 52.65 33.35 52.65 33.05 52.4 32.65 Q51.85 31.95 51.0 32.25 L47.65 33.7 45.85 22.3 44.6 34.25 43.45 34.2 Q41.25 33.05 37.25 32.25 L40.9 1.8 50.8 0.9 M32.55 0.8 L30.25 31.1 27.4 30.8 23.05 30.15 24.45 0.8 32.55 0.8 M22.0 29.9 L18.35 28.95 18.35 28.05 Q17.25 27.45 16.3 28.2 L13.9 27.1 Q14.3 26.05 13.45 25.0 12.3 24.45 11.25 25.3 L11.05 25.5 10.3 25.0 10.25 24.95 12.35 8.6 19.25 7.85 22.0 29.9 M7.65 0.55 L8.5 23.85 6.35 22.55 6.4 22.35 Q6.75 21.35 5.8 20.85 5.05 21.0 4.4 21.4 L0.9 19.2 0.0 1.05 7.65 0.55" fill="#de591a" fill-rule="evenodd" stroke="none"/>
    <path d="M50.8 1.0 L41.4 3.3 39.55 19.2 38.8 19.2 40.9 1.8 50.8 0.9 50.8 1.0 M76.7 12.35 L77.0 13.15 Q77.55 14.75 77.7 19.2 L77.2 19.2 Q77.15 14.4 76.7 12.35 M77.8 3.15 L70.6 2.6 63.4 3.15 63.4 19.2 62.9 19.2 62.9 1.65 70.1 1.1 77.3 1.65 Q81.8 2.95 83.85 9.8 81.8 4.35 77.8 3.15 M104.6 19.2 L104.2 15.2 103.8 12.75 Q104.4 14.1 104.7 16.7 L105.0 19.2 104.6 19.2 M101.6 1.0 Q108.75 1.25 110.85 8.55 L110.9 8.65 Q108.55 2.7 102.1 2.5 94.1 3.05 92.15 10.3 91.5 12.8 91.2 14.6 90.95 16.95 91.2 19.2 L90.9 19.2 Q90.35 16.3 90.7 13.05 91.0 11.3 91.65 8.75 93.6 1.55 101.6 1.0 M19.45 9.4 L12.85 10.1 11.65 19.2 10.95 19.2 12.35 8.6 19.25 7.85 19.45 9.4 M7.65 0.55 L7.7 2.1 0.5 2.55 1.35 19.2 0.9 19.2 0.0 1.05 7.65 0.55 M32.45 2.3 L24.95 2.3 24.15 19.2 23.6 19.2 24.45 0.8 32.55 0.8 32.45 2.3" fill="#ff7433" fill-rule="evenodd" stroke="none"/>
    <path d="M101.75 3.0 Q107.25 3.4 108.9 9.1 110.1 13.5 110.6 18.9 L106.6 19.0 106.2 15.0 Q105.35 7.75 102.05 7.9 L101.55 7.9 Q97.5 8.05 96.75 15.0 95.55 19.9 102.0 26.35 L102.05 26.4 Q107.2 31.75 109.3 35.2 110.8 38.65 110.8 42.5 110.8 46.35 109.3 50.55 L109.25 50.75 Q107.8 56.6 101.95 57.1 L101.7 57.15 Q95.7 56.8 94.1 51.1 L94.1 51.15 Q92.85 46.85 92.2 42.4 L96.2 41.9 96.7 45.25 96.7 45.15 Q97.55 52.35 101.65 52.2 L102.1 52.2 Q105.2 52.1 106.1 45.2 107.7 38.65 101.55 32.7 L101.55 32.65 Q96.6 28.05 94.9 24.25 L94.8 24.05 Q92.05 19.25 92.7 13.3 93.0 11.6 93.65 9.25 L93.65 9.3 Q95.2 3.55 101.65 3.0 L101.75 3.0 M76.85 3.65 Q82.7 5.8 83.4 20.8 L83.4 20.85 83.4 20.95 Q83.0 29.75 78.75 33.45 78.25 33.85 78.1 34.5 77.9 35.05 78.1 35.65 L84.75 56.45 80.8 56.95 74.8 37.5 Q74.6 36.75 74.0 36.4 73.4 36.0 72.65 36.05 L71.05 36.1 Q70.5 36.05 70.0 36.35 69.45 36.6 69.2 37.1 68.9 37.6 68.9 38.15 L68.95 56.55 64.9 56.4 64.9 3.45 70.1 3.1 76.85 3.65 M68.9 8.4 L68.9 29.9 Q68.9 30.45 69.2 31.0 L70.1 31.75 71.15 31.95 Q74.9 31.55 76.65 29.9 L76.7 29.85 Q78.85 28.15 79.2 20.15 L79.2 20.05 Q79.2 13.2 78.4 11.05 L78.4 11.0 Q76.6 5.2 70.55 6.4 69.85 6.55 69.35 7.15 68.9 7.7 68.9 8.4 M49.05 3.1 L56.5 55.5 53.0 55.6 52.05 49.35 Q51.9 48.55 51.35 48.1 50.75 47.55 50.0 47.55 L42.85 47.85 Q42.0 47.9 41.5 48.4 40.9 48.9 40.85 49.7 L40.2 57.2 36.3 57.25 42.75 3.7 49.05 3.1 M30.35 2.8 L26.3 56.65 22.15 56.65 17.45 31.95 Q17.3 31.2 16.75 30.75 16.15 30.25 15.45 30.25 14.65 30.25 14.1 30.8 13.55 31.25 13.45 32.0 L9.5 56.65 4.75 56.6 2.15 2.95 5.75 2.7 6.8 35.9 Q6.8 36.65 7.4 37.2 7.9 37.8 8.75 37.85 9.55 37.9 10.15 37.35 10.75 36.8 10.85 36.05 L14.15 10.5 17.5 10.1 20.75 36.6 Q20.8 37.35 21.4 37.95 22.05 38.45 22.85 38.4 23.6 38.35 24.15 37.85 24.7 37.25 24.75 36.45 L26.4 2.8 30.35 2.8 M45.75 20.25 Q45.0 20.25 44.45 20.85 43.9 21.35 43.8 22.1 L41.75 41.45 Q41.7 42.0 41.95 42.55 42.2 43.05 42.75 43.35 L43.8 43.65 48.9 43.7 50.05 43.4 50.8 42.55 50.95 41.4 47.85 22.0 Q47.7 21.25 47.15 20.8 46.55 20.25 45.75 20.25" fill="#de591a" fill-opacity="0.0" fill-rule="evenodd" stroke="none"/>
  </g>
</svg>
