<?xml version="1.0" encoding="UTF-8" standalone="no"?>
<svg xmlns:ffdec="https://www.free-decompiler.com/flash" xmlns:xlink="http://www.w3.org/1999/xlink" ffdec:objectType="shape" height="53.55px" width="107.55px" xmlns="http://www.w3.org/2000/svg">
  <g transform="matrix(1.0, 0.0, 0.0, 1.0, 0.0, 0.0)">
    <path d="M105.7 6.05 L105.75 6.15 Q106.85 10.25 107.3 15.2 L104.35 15.3 104.0 11.75 Q103.05 4.05 99.4 4.2 L98.75 4.2 Q94.35 4.3 93.55 11.75 92.3 16.85 98.95 23.5 L99.0 23.55 Q104.05 28.8 106.15 32.2 L106.15 32.25 Q107.55 35.6 107.55 39.3 107.55 43.05 106.15 47.2 L106.1 47.4 Q104.7 52.95 99.2 53.4 L98.95 53.45 Q93.4 53.1 91.85 47.7 L91.8 47.6 Q90.7 43.75 90.1 39.65 L93.05 39.25 93.5 42.1 93.5 42.2 Q94.5 49.75 98.9 49.5 L98.95 49.5 99.5 49.5 Q102.9 49.45 103.9 42.05 L103.9 42.1 Q105.55 35.3 99.2 29.15 L99.2 29.1 Q94.4 24.55 92.65 20.85 L92.65 20.8 92.5 20.55 Q89.9 15.95 90.5 10.15 L91.4 6.3 91.4 6.2 Q92.9 0.8 99.0 0.35 104.15 0.7 105.7 6.05 M65.7 5.2 L65.7 26.7 Q65.7 27.45 66.1 28.1 66.45 28.7 67.15 29.0 L68.5 29.25 Q72.45 28.85 74.3 27.05 76.65 25.25 77.0 17.0 L77.0 16.95 77.0 16.85 Q77.0 9.85 76.2 7.7 L76.15 7.6 76.15 7.65 Q74.25 1.4 67.75 2.7 66.85 2.85 66.3 3.6 L66.25 3.6 Q65.7 4.3 65.7 5.2 M74.0 0.95 L73.95 0.95 Q79.5 3.05 80.15 17.55 L80.15 17.65 80.15 17.7 Q79.8 26.3 75.7 29.9 75.1 30.35 74.9 31.15 74.7 31.85 74.95 32.6 L81.4 52.8 78.45 53.2 72.6 34.1 Q72.3 33.25 71.6 32.75 70.85 32.25 69.9 32.35 L68.4 32.4 67.1 32.7 67.05 32.7 Q66.4 33.0 66.05 33.65 65.7 34.25 65.7 34.95 L65.75 52.8 62.7 52.75 62.7 0.7 67.4 0.45 74.0 0.95 M45.95 0.5 L53.15 51.8 50.7 51.9 49.85 46.05 Q49.7 45.1 48.95 44.5 48.2 43.8 47.25 43.85 L40.1 44.1 Q39.1 44.15 38.45 44.85 37.75 45.5 37.65 46.45 L37.05 53.5 34.2 53.55 40.5 1.0 45.95 0.5 M27.1 0.1 L23.15 52.95 19.85 52.95 15.25 28.65 Q15.05 27.75 14.35 27.15 L14.35 27.1 Q13.65 26.55 12.75 26.55 11.75 26.55 11.1 27.2 10.4 27.8 10.25 28.7 L6.4 52.95 2.6 52.9 0.0 0.25 2.55 0.0 3.6 32.7 Q3.65 33.65 4.35 34.4 5.0 35.1 6.05 35.15 7.0 35.2 7.75 34.55 8.5 33.9 8.65 32.95 L11.9 7.75 14.35 7.5 17.55 33.45 Q17.65 34.45 18.4 35.1 19.1 35.75 20.15 35.7 21.1 35.65 21.8 35.0 22.5 34.3 22.55 33.3 L24.2 0.1 27.1 0.1 M43.05 16.55 Q42.1 16.55 41.4 17.25 40.7 17.9 40.6 18.85 L38.55 38.2 Q38.5 38.9 38.8 39.55 39.1 40.2 39.75 40.55 40.35 40.95 41.1 40.95 L46.2 41.0 Q46.95 41.0 47.6 40.6 L48.55 39.55 Q48.85 38.85 48.75 38.1 L45.65 18.7 Q45.5 17.8 44.75 17.15 44.05 16.55 43.05 16.55" fill="#ff1212" fill-rule="evenodd" stroke="none"/>
  </g>
</svg>
