<?xml version="1.0" encoding="UTF-8" standalone="no"?>
<svg xmlns:ffdec="https://www.free-decompiler.com/flash" xmlns:xlink="http://www.w3.org/1999/xlink" ffdec:objectType="shape" height="76.7px" width="105.15px" xmlns="http://www.w3.org/2000/svg">
  <g transform="matrix(1.0, 0.0, 0.0, 1.0, -3.9, -32.75)">
    <path d="M81.65 79.2 Q81.95 78.85 84.3 84.25 86.65 89.65 93.5 93.9 100.4 98.15 104.0 98.45 L109.05 99.25 109.05 99.6 Q107.05 100.85 105.1 102.3 104.0 102.75 103.0 103.3 L99.95 103.6 90.0 104.9 84.05 105.75 Q83.1 106.45 66.95 107.65 L37.5 109.45 35.6 109.35 34.2 109.15 21.75 108.65 Q18.15 107.95 14.8 106.9 11.05 105.7 8.3 104.25 L5.4 102.25 3.9 99.8 Q16.65 92.15 20.85 88.5 L28.95 80.85 Q30.55 78.85 32.55 74.55 L39.6 59.95 Q43.2 52.5 61.95 39.9 L62.1 39.8 62.8 39.35 63.55 38.85 64.75 38.1 64.25 38.4 Q69.15 35.4 79.8 32.75 80.7 37.1 80.15 41.9 L79.3 50.05 Q78.95 53.35 79.2 55.0 78.8 55.3 78.8 55.8 L78.85 56.3 Q79.0 56.65 79.5 56.7 L79.65 57.1 79.85 59.2 78.95 59.7 79.35 59.9 79.9 59.95 79.95 59.95 80.25 63.2 79.85 63.3 80.1 63.5 80.25 63.5 80.4 65.05 78.95 65.2 80.4 65.45 80.45 65.45 80.7 68.65 80.8 69.85 80.45 69.9 78.95 70.15 78.95 70.3 80.35 70.5 80.85 70.5 81.15 73.8 79.55 73.85 79.5 73.8 79.4 74.1 79.5 74.5 79.6 74.5 81.2 74.5 81.65 79.2" fill="#204256" fill-rule="evenodd" stroke="none"/>
    <path d="M78.7 34.95 Q78.7 37.65 77.3 39.6 76.15 41.25 73.6 42.85 L68.1 45.75 Q64.0 47.85 61.45 49.4 57.95 51.55 50.25 57.35 L43.05 62.5 Q41.4 64.25 40.95 63.1 40.5 61.95 45.65 56.0 50.75 50.05 56.55 45.45 62.35 40.9 68.1 37.8 74.3 34.5 78.45 34.05 L78.55 34.3 78.7 34.95" fill="#3a596b" fill-rule="evenodd" stroke="none"/>
    <path d="M69.8 79.8 L73.7 80.3 Q77.8 81.1 78.85 83.6 79.45 85.0 85.05 92.3 87.85 96.0 100.8 100.4 90.5 100.0 90.3 100.4 89.95 101.05 94.7 101.5 L87.3 101.6 85.45 101.8 76.95 101.8 Q71.95 100.8 65.5 98.5 58.9 96.1 53.1 93.2 39.1 86.2 39.1 81.25 39.1 78.85 42.15 73.8 44.95 69.1 48.85 64.65 52.85 60.05 55.5 58.55 58.55 56.9 58.55 60.25 L56.75 63.8 Q54.95 67.05 54.95 69.3 54.95 74.65 58.2 77.1 60.6 78.9 65.65 79.45 L69.8 79.8" fill="#1f3643" fill-rule="evenodd" stroke="none"/>
    <path d="M17.55 96.6 Q16.7 96.8 16.25 97.3 L15.9 97.4 Q16.6 97.55 17.55 97.1 L18.55 96.4 17.55 96.6 M27.0 86.25 Q28.0 85.2 28.95 83.25 L30.45 79.75 Q31.5 77.15 32.6 75.75 34.25 73.65 34.25 77.45 34.25 78.3 33.3 80.35 32.35 82.35 32.35 83.3 23.65 101.7 13.85 101.7 11.95 101.7 11.4 100.5 L11.2 99.6 11.2 99.15 Q11.2 97.45 13.0 95.75 14.35 94.45 17.3 92.7 L22.5 89.7 Q25.45 87.85 27.0 86.25" fill="#1f3643" fill-rule="evenodd" stroke="none"/>
    <path d="M50.1 52.75 Q50.1 49.95 59.9 43.1 69.65 36.2 69.65 39.65 69.65 41.2 66.25 43.45 L60.75 46.95 Q57.8 49.25 51.35 52.45 L50.0 53.1 50.1 52.75" fill="#84a2b4" fill-rule="evenodd" stroke="none"/>
  </g>
</svg>
