<?xml version="1.0" encoding="UTF-8" standalone="no"?>
<svg xmlns:ffdec="https://www.free-decompiler.com/flash" xmlns:xlink="http://www.w3.org/1999/xlink" ffdec:objectType="shape" height="49.2px" width="200.6px" xmlns="http://www.w3.org/2000/svg">
  <g transform="matrix(1.0, 0.0, 0.0, 1.0, 12.15, -78.8)">
    <path d="M188.45 102.35 Q188.45 110.65 149.1 108.15 144.15 107.8 131.4 112.75 118.65 117.7 111.4 117.7 L95.9 116.85 Q88.7 116.85 80.4 122.2 72.65 128.0 64.3 128.0 59.35 128.0 51.05 122.65 43.3 117.7 37.75 117.7 36.05 117.7 29.45 120.15 22.8 122.65 15.55 122.65 8.35 122.65 0.6 119.3 -12.15 114.35 -12.15 104.05 -12.15 95.4 1.7 90.8 8.35 88.75 15.55 87.9 23.3 84.65 30.55 80.9 36.05 78.8 45.5 78.8 53.8 78.8 66.5 83.4 78.75 87.9 89.8 87.9 91.5 87.9 103.65 85.4 115.3 83.4 121.45 83.4 128.05 83.4 138.6 86.65 151.35 90.35 156.3 91.2 L174.05 94.15 Q188.45 97.4 188.45 102.35" fill="#7bd8e7" fill-opacity="0.36078432" fill-rule="evenodd" stroke="none"/>
    <path d="M63.7 87.1 Q70.35 91.2 82.55 94.95 94.75 99.05 106.4 90.8 117.5 82.55 141.85 95.35 163.45 101.15 131.9 100.7 118.05 100.7 111.4 107.75 98.65 117.65 92.0 112.3 85.35 106.9 76.45 116.4 66.5 126.35 50.4 117.65 33.8 109.4 19.4 114.75 5.0 120.55 -0.55 115.6 -6.65 110.65 -5.55 103.2 -4.45 96.15 21.05 91.2 32.15 82.55 51.0 82.95 56.5 82.95 63.7 87.1" fill="#ffffff" fill-rule="evenodd" stroke="none"/>
  </g>
</svg>
