<?xml version="1.0" encoding="UTF-8" standalone="no"?>
<svg xmlns:ffdec="https://www.free-decompiler.com/flash" xmlns:xlink="http://www.w3.org/1999/xlink" ffdec:objectType="shape" height="232.05px" width="169.35px" xmlns="http://www.w3.org/2000/svg">
  <g transform="matrix(1.0, 0.0, 0.0, 1.0, 0.0, 0.0)">
    <path d="M158.4 3.4 L167.3 13.8 169.0 226.25 1.95 226.15 Q1.65 183.8 2.7 141.35 L2.7 14.1 16.3 2.6 32.4 3.5 158.4 3.4 M87.9 100.85 L88.15 101.85 Q88.6 102.7 89.7 102.7 90.55 102.7 91.15 101.95 L91.65 100.75 Q91.65 98.95 89.8 98.95 87.9 98.95 87.9 100.85" fill="#744431" fill-rule="evenodd" stroke="none"/>
    <path d="M87.9 100.85 Q87.9 98.95 89.8 98.95 91.65 98.95 91.65 100.75 L91.15 101.95 Q90.55 102.7 89.7 102.7 88.6 102.7 88.15 101.85 L87.9 100.85" fill="#85523e" fill-rule="evenodd" stroke="none"/>
    <path d="M160.4 100.65 L158.9 101.15 Q159.45 100.5 160.4 100.65 M57.6 105.4 L57.8 105.25 56.4 106.6 56.25 106.55 57.6 105.4 M87.6 105.65 L87.55 105.45 87.45 105.6 87.25 105.55 Q91.2 102.65 95.1 101.2 L95.05 101.35 93.55 103.8 93.4 103.7 90.6 106.55 87.6 105.65 M46.7 100.5 L46.6 100.6 46.55 100.6 46.7 100.5 M15.0 88.35 L14.85 88.3 16.55 86.2 15.35 87.9 15.0 88.35 M84.5 101.6 L84.45 101.55 81.6 104.75 81.55 104.45 81.1 104.9 80.9 104.9 79.8 104.95 Q82.3 102.75 84.8 101.1 L84.7 101.25 84.5 101.6 M62.55 101.8 Q64.3 100.7 65.9 99.95 L65.95 100.05 Q65.35 101.4 63.35 104.15 L61.25 106.25 60.2 107.35 57.75 106.95 62.55 101.8 M158.4 3.4 L167.3 13.8 167.95 94.6 Q166.85 93.25 165.25 92.55 L165.35 92.2 165.25 91.75 164.9 91.7 Q164.6 91.8 164.15 92.15 L163.25 91.95 166.15 88.25 166.05 87.9 165.95 88.0 Q164.25 89.3 161.95 91.8 L159.35 91.85 162.45 87.5 Q161.1 88.4 158.3 91.95 L154.85 92.65 155.95 91.3 160.65 85.35 160.55 84.95 160.45 85.0 153.85 92.3 153.15 93.15 151.45 93.7 158.8 84.25 Q157.35 85.25 154.85 88.3 L150.95 93.1 150.05 94.2 146.45 95.65 147.3 94.65 156.8 83.0 Q152.4 87.35 146.7 94.45 L145.35 96.15 Q141.05 98.1 136.0 100.9 L136.3 100.55 145.3 90.5 141.6 94.35 145.95 88.55 Q142.3 92.25 134.2 100.85 L133.1 102.0 127.95 103.6 129.1 101.85 Q130.2 100.4 132.85 97.3 L136.7 92.55 Q133.25 95.55 128.8 101.2 L126.65 104.0 123.75 104.85 124.8 103.75 138.05 90.45 Q132.8 94.05 121.75 105.45 L119.9 105.95 119.6 106.05 123.7 99.95 Q122.45 101.35 120.45 104.4 L119.35 106.15 116.25 107.0 116.45 106.75 123.85 99.3 123.8 99.2 Q122.35 99.85 119.65 102.35 L115.65 106.3 114.55 107.45 111.45 108.2 112.4 107.25 Q117.8 101.65 117.8 101.1 L117.7 100.7 117.6 100.8 Q114.55 103.3 109.25 108.75 L104.35 109.75 106.15 108.05 Q111.8 102.7 111.8 102.0 L111.65 101.6 111.35 101.55 102.95 109.4 103.9 106.6 103.85 106.55 104.2 105.95 104.1 105.5 103.7 105.45 103.1 106.05 102.9 105.95 101.35 107.8 98.8 110.4 98.5 110.4 Q97.6 110.4 96.25 109.65 L96.4 109.35 96.1 108.9 96.05 108.8 99.55 104.95 99.15 104.6 94.6 108.6 93.2 107.8 94.85 106.3 Q98.95 102.7 105.2 100.7 L105.15 100.55 Q105.0 100.2 103.7 100.2 100.45 100.2 96.95 102.95 L95.75 103.95 96.9 102.2 93.8 105.35 95.05 103.75 Q96.15 102.15 96.15 100.85 L96.05 100.05 Q93.8 100.55 91.25 101.85 L91.65 100.75 Q91.65 98.95 89.8 98.95 87.9 98.95 87.9 100.85 L88.15 101.85 Q88.6 102.7 89.7 102.7 L87.0 104.4 85.8 105.3 83.5 105.0 Q85.85 101.6 85.85 100.7 L85.8 100.3 85.45 100.25 Q83.75 101.05 81.4 102.95 80.4 103.7 78.85 105.0 L78.3 105.05 Q80.95 101.05 80.95 100.45 L80.9 100.0 80.85 100.05 Q78.85 100.5 77.3 101.85 L77.55 101.95 Q79.35 100.45 80.65 100.35 L80.65 100.55 76.65 105.2 73.4 105.7 77.55 101.45 Q75.0 103.05 71.8 106.0 L71.45 106.1 71.4 106.05 71.35 106.1 70.75 106.2 69.3 106.5 70.3 104.8 Q74.55 100.75 74.55 100.15 L74.5 99.8 74.45 99.95 71.95 101.9 72.55 100.7 72.4 100.25 72.2 100.3 Q71.25 101.25 69.7 103.9 L66.3 107.1 63.25 107.5 63.0 107.5 63.55 106.95 62.75 107.2 62.1 107.45 63.65 105.45 68.55 100.15 68.55 99.95 66.1 101.7 66.7 100.0 66.6 99.45 65.65 99.2 Q63.75 99.2 58.3 103.65 L55.3 106.15 55.2 106.1 53.8 105.3 55.1 103.35 55.4 102.9 55.5 102.8 58.05 100.6 55.6 102.65 Q57.8 99.2 58.45 97.3 56.4 99.05 53.05 104.3 L52.85 104.65 52.6 104.45 52.45 103.05 52.25 104.2 50.75 103.0 50.5 102.8 51.7 101.8 50.5 102.1 53.05 99.05 52.95 98.5 Q51.2 99.8 49.1 101.85 L49.0 101.8 49.7 100.85 52.85 96.45 52.45 96.1 Q51.0 97.5 48.1 101.3 L47.7 101.1 49.6 98.45 51.65 95.8 51.55 95.45 51.3 95.45 47.0 100.15 47.0 99.95 46.6 99.95 46.2 100.05 46.2 99.95 46.9 98.9 48.1 97.2 47.95 96.75 47.55 96.7 Q46.6 97.65 44.75 99.95 L44.9 99.65 45.35 98.35 Q45.4 97.6 44.6 97.45 L43.25 98.9 43.2 98.85 42.55 99.35 42.0 99.25 42.1 99.05 41.9 99.2 41.25 99.1 43.0 96.9 45.9 93.05 45.85 92.7 45.8 92.8 Q44.0 93.8 40.4 98.3 L39.95 98.9 37.55 98.65 38.5 97.7 44.4 92.35 Q41.3 94.0 36.65 98.6 L36.0 98.55 36.7 97.5 36.45 97.6 38.3 95.25 Q37.35 95.65 34.7 98.5 L33.85 98.5 39.3 92.85 39.15 92.55 Q37.1 94.1 33.15 97.95 L32.65 98.45 31.9 98.35 Q33.9 95.1 36.7 91.75 35.8 92.35 32.35 96.95 L31.4 98.25 30.8 98.15 32.3 96.45 30.25 98.0 28.6 97.2 32.35 92.95 32.1 92.55 Q30.35 93.9 27.75 96.65 L26.85 95.8 30.55 91.2 30.3 91.2 26.7 95.0 26.85 94.8 26.1 95.1 25.8 94.8 26.35 94.1 Q30.45 89.5 30.45 89.0 L30.3 88.65 30.15 88.7 25.0 94.05 24.85 93.85 25.3 92.4 24.25 93.25 24.2 93.2 23.45 92.5 27.05 86.95 22.7 91.2 26.3 87.3 22.0 91.35 Q20.05 89.9 17.7 89.1 L20.85 85.85 20.7 85.7 Q19.15 86.9 17.1 88.9 L15.6 88.45 16.15 87.55 19.65 82.3 Q17.65 83.6 15.0 86.95 L14.05 88.15 9.95 87.85 Q4.65 87.85 2.7 89.2 L2.7 14.1 16.3 2.6 32.4 3.5 158.4 3.4" fill="#85523e" fill-rule="evenodd" stroke="none"/>
    <path d="M141.7 3.55 Q157.05 -1.4 163.1 11.5 164.8 15.2 165.3 19.4 166.85 31.7 166.5 36.35 166.15 41.0 164.95 38.0 164.4 36.6 160.85 37.2 160.15 38.35 158.75 39.05 156.05 40.45 156.45 38.35 L155.85 38.55 Q152.8 43.05 147.8 44.95 147.35 45.1 147.5 44.55 147.85 42.95 148.55 41.4 L146.6 42.2 Q144.3 44.8 142.45 47.8 139.9 51.8 136.4 51.5 135.8 51.5 135.85 50.75 133.2 54.1 131.25 51.5 L131.0 51.6 Q117.1 57.5 102.8 61.45 L100.75 62.2 Q94.35 64.85 89.05 61.2 L82.15 60.85 73.75 61.6 72.75 61.55 Q65.5 60.05 58.6 56.8 L58.5 56.75 48.6 53.85 Q46.4 55.6 43.8 55.05 L43.45 54.65 43.15 53.95 Q43.1 53.35 43.35 52.9 L43.4 52.3 Q41.1 53.65 39.4 51.35 39.0 50.8 38.9 50.2 L35.2 48.6 Q33.9 48.75 33.45 47.8 L32.6 47.4 Q30.75 49.0 28.4 48.9 27.25 48.9 27.6 47.65 L28.25 45.25 27.85 45.05 26.8 44.5 23.55 44.6 23.2 44.05 Q23.1 43.35 23.5 42.75 L23.6 42.6 22.5 41.85 21.9 41.9 Q21.3 41.95 20.95 41.5 20.65 41.1 20.75 40.6 L17.6 38.05 Q15.8 38.85 14.4 37.65 13.85 37.15 13.75 36.45 L13.7 36.15 13.7 35.85 13.7 35.6 Q11.65 35.6 10.1 33.9 L9.65 33.4 9.45 33.1 9.05 32.5 8.7 31.95 8.4 31.35 Q5.25 31.75 3.55 29.15 L3.45 28.9 3.3 25.7 3.25 21.4 Q2.9 15.3 5.5 10.05 7.85 5.25 11.85 2.45 L12.4 2.7 12.9 3.25 13.3 3.8 13.6 4.35 13.7 4.65 Q74.85 4.85 135.95 4.5 L141.05 3.75 141.7 3.55" fill="#936653" fill-rule="evenodd" stroke="none"/>
    <path d="M4.25 31.85 L6.75 27.85 Q9.1 24.1 8.15 28.7 7.2 33.35 4.25 31.85 3.85 31.85 3.5 30.8 L2.25 26.65 Q0.7 17.35 4.55 10.3 L6.05 8.4 Q10.05 4.4 14.35 1.45 L154.25 1.6 157.25 5.05 160.6 8.7 165.55 13.0 Q164.6 16.4 166.95 20.45 163.4 15.3 155.35 9.15 L153.8 9.1 153.55 8.95 153.05 9.05 148.35 8.95 148.35 8.9 144.15 8.8 144.1 8.85 140.85 8.8 140.85 8.75 134.3 8.65 118.35 7.8 111.15 8.25 108.65 8.2 106.65 8.4 Q92.95 9.95 79.45 7.8 L58.7 7.65 50.1 8.15 45.55 7.6 15.75 7.6 15.45 7.75 15.25 8.05 15.1 8.35 Q14.45 9.75 12.05 11.9 9.6 14.05 8.45 14.45 L7.5 14.75 7.55 14.7 7.5 14.65 7.5 14.75 7.3 17.05 Q7.1 19.25 4.7 29.75 L4.25 31.85 M147.85 8.1 Q146.95 8.5 148.25 8.65 L147.85 8.1" fill="#85523e" fill-rule="evenodd" stroke="none"/>
    <path d="M158.7 1.55 L160.05 3.35 11.75 3.35 11.75 1.55 158.7 1.55 M160.05 4.85 L160.05 5.25 11.75 5.25 11.75 4.85 160.05 4.85 M11.75 0.3 L11.75 0.0 157.65 0.0 157.85 0.3 11.75 0.3" fill="#6e727b" fill-rule="evenodd" stroke="none"/>
    <path d="M158.2 0.8 L158.7 1.55 11.75 1.55 11.75 0.3 157.85 0.3 158.0 0.55 12.1 0.55 12.1 0.8 158.2 0.8" fill="#9498a1" fill-rule="evenodd" stroke="none"/>
    <path d="M158.0 0.55 L158.2 0.8 12.1 0.8 12.1 0.55 158.0 0.55" fill="#e7e7e7" fill-rule="evenodd" stroke="none"/>
    <path d="M160.05 3.35 L160.05 4.85 11.75 4.85 11.75 3.35 160.05 3.35" fill="#494c54" fill-rule="evenodd" stroke="none"/>
    <path d="M11.8 0.85 L11.6 0.5 1.0 12.15 0.3 13.2 0.15 14.45 0.0 232.05 0.5 232.05 0.7 19.1 0.7 13.2 0.8 13.15 1.05 12.85 3.4 10.0 10.2 2.45 11.8 0.85 M1.7 232.05 L2.95 232.05 3.35 19.1 3.45 13.8 3.35 13.7 12.75 3.95 13.35 3.95 12.25 1.85 7.95 6.6 1.9 13.35 1.9 19.1 1.7 232.05 M5.05 14.9 L5.55 14.25 13.65 5.55 13.45 5.55 13.45 5.5 13.2 5.4 4.8 14.2 4.75 14.15 4.75 14.25 4.75 14.3 4.75 14.45 5.1 14.6 5.2 14.55 5.1 14.7 5.2 14.65 5.05 14.9 M3.3 13.9 L3.3 13.8 3.4 13.85 3.3 13.9" fill="#6e727b" fill-rule="evenodd" stroke="none"/>
    <path d="M3.3 13.9 L3.4 13.85 3.3 13.8 3.3 13.9" fill="#60646b" fill-rule="evenodd" stroke="none"/>
    <path d="M2.95 232.05 L4.3 232.05 4.75 14.45 4.75 14.3 4.65 14.4 3.45 13.8 3.35 19.1 2.95 232.05" fill="#57595d" fill-rule="evenodd" stroke="none"/>
    <path d="M0.5 232.05 L1.7 232.05 1.9 19.1 1.9 13.35 7.95 6.6 12.25 1.85 Q12.55 1.5 12.2 1.75 L11.9 1.15 8.95 4.35 1.25 13.0 1.05 12.85 0.8 13.15 0.7 13.2 0.7 19.1 0.5 232.05 M4.3 232.05 L4.75 232.05 5.05 14.9 5.1 14.7 5.2 14.55 5.1 14.6 4.75 14.45 4.3 232.05 M4.75 14.3 L4.75 14.25 4.65 14.4 4.75 14.3" fill="#9498a1" fill-rule="evenodd" stroke="none"/>
    <path d="M11.9 1.15 L11.8 0.85 10.2 2.45 3.4 10.0 1.05 12.85 1.25 13.0 8.95 4.35 11.9 1.15" fill="#e7e7e7" fill-rule="evenodd" stroke="none"/>
    <path d="M13.45 5.5 L13.6 5.25 13.9 5.1 13.35 3.95 12.75 3.95 3.35 13.7 3.45 13.8 4.65 14.4 4.75 14.25 4.75 14.15 4.8 14.2 13.2 5.4 13.45 5.5" fill="#4d525d" fill-rule="evenodd" stroke="none"/>
    <path d="M157.6 0.85 L157.8 0.5 168.4 12.15 169.1 13.2 169.25 14.45 169.05 43.5 168.7 19.1 168.7 13.2 168.6 13.15 168.35 12.85 166.0 10.0 159.2 2.45 157.6 0.85 M167.7 232.05 L166.45 232.05 166.05 19.1 165.95 13.8 166.05 13.7 156.65 3.95 156.05 3.95 157.15 1.85 161.45 6.6 167.5 13.35 167.5 19.1 167.7 232.05 M164.35 14.9 L163.85 14.25 155.75 5.55 155.95 5.55 155.95 5.5 156.2 5.4 164.6 14.2 164.65 14.15 164.65 14.25 164.65 14.3 164.65 14.45 164.3 14.6 164.2 14.55 164.3 14.7 164.2 14.65 164.35 14.9 M166.1 13.9 L166.1 13.8 166.0 13.85 166.1 13.9" fill="#6e727b" fill-rule="evenodd" stroke="none"/>
    <path d="M166.1 13.9 L166.0 13.85 166.1 13.8 166.1 13.9" fill="#60646b" fill-rule="evenodd" stroke="none"/>
    <path d="M166.45 232.05 L165.1 232.05 164.65 14.45 164.65 14.3 164.75 14.4 165.95 13.8 166.05 19.1 166.45 232.05" fill="#57595d" fill-rule="evenodd" stroke="none"/>
    <path d="M169.05 43.5 L169.05 51.65 169.35 232.05 167.7 232.05 167.5 19.1 167.5 13.35 161.45 6.6 157.15 1.85 Q156.85 1.5 157.2 1.75 L157.5 1.15 160.45 4.35 168.15 13.0 168.35 12.85 168.6 13.15 168.7 13.2 168.7 19.1 169.05 43.5 M165.1 232.05 L164.65 232.05 164.35 14.9 164.3 14.7 164.2 14.55 164.3 14.6 164.65 14.45 165.1 232.05 M164.65 14.3 L164.65 14.25 164.75 14.4 164.65 14.3" fill="#9498a1" fill-rule="evenodd" stroke="none"/>
    <path d="M157.5 1.15 L157.6 0.85 159.2 2.45 166.0 10.0 168.35 12.85 168.15 13.0 160.45 4.35 157.5 1.15" fill="#e7e7e7" fill-rule="evenodd" stroke="none"/>
    <path d="M155.95 5.5 L155.8 5.25 155.5 5.1 156.05 3.95 156.65 3.95 166.05 13.7 165.95 13.8 164.75 14.4 164.65 14.25 164.65 14.15 164.6 14.2 156.2 5.4 155.95 5.5" fill="#4d525d" fill-rule="evenodd" stroke="none"/>
    <path d="M29.25 45.2 Q28.85 46.35 28.7 47.55 28.6 48.75 27.8 49.25 26.85 48.45 27.25 46.85 L27.9 44.45 Q28.2 43.4 28.9 42.95 29.8 43.8 29.25 45.2" fill="#936653" fill-rule="evenodd" stroke="none"/>
    <path d="M28.9 33.95 Q29.05 34.25 28.8 34.3 L28.35 34.3 28.35 34.15 28.35 33.85 28.4 33.75 28.4 33.65 28.45 33.6 28.55 33.6 28.6 33.6 28.9 33.95" fill="#936653" fill-rule="evenodd" stroke="none"/>
    <path d="M34.85 26.95 L34.55 28.05 Q34.45 28.55 33.95 28.85 32.95 28.9 32.95 27.85 33.0 27.05 33.65 26.6 34.0 26.35 34.4 26.25 35.1 26.4 34.85 26.95" fill="#936653" fill-rule="evenodd" stroke="none"/>
    <path d="M134.6 50.2 L134.85 50.3 134.95 50.45 135.1 50.7 135.1 51.1 135.0 51.55 134.9 51.65 134.7 51.8 134.55 51.9 133.7 51.75 133.6 51.6 133.45 51.35 133.35 50.95 133.45 50.55 133.6 50.4 133.7 50.25 134.0 50.15 134.25 50.05 134.6 50.2" fill="#936653" fill-rule="evenodd" stroke="none"/>
    <path d="M26.25 32.75 L25.75 33.55 Q25.55 34.0 25.1 34.05 24.9 33.7 25.2 33.3 L25.65 32.5 26.05 32.05 26.25 32.0 Q26.6 32.3 26.25 32.75" fill="#936653" fill-rule="evenodd" stroke="none"/>
    <path d="M18.65 73.55 L19.0 73.65 19.3 73.9 19.5 74.2 19.05 75.7 18.75 77.65 Q18.65 78.65 17.95 79.25 L17.45 79.15 17.3 79.05 17.1 78.8 17.05 78.65 17.2 77.15 17.2 75.2 Q17.3 73.85 18.45 73.55 L18.65 73.55" fill="#936653" fill-rule="evenodd" stroke="none"/>
    <path d="M123.15 42.85 L122.85 43.05 122.0 43.05 121.85 42.9 121.85 42.8 122.6 42.5 122.8 42.4 Q123.45 42.45 123.15 42.85" fill="#4d5653" fill-rule="evenodd" stroke="none"/>
    <path d="M144.85 132.65 L144.6 133.6 144.15 134.05 Q143.75 133.85 143.85 133.4 L143.95 132.65 144.15 132.05 144.25 131.95 144.35 131.85 144.45 131.85 144.5 131.8 Q145.05 132.05 144.85 132.65" fill="#936653" fill-rule="evenodd" stroke="none"/>
    <path d="M42.45 37.45 L41.5 38.9 40.65 39.9 Q40.65 39.15 41.0 38.45 L41.65 36.95 42.45 35.8 Q43.05 36.5 42.45 37.45" fill="#726346" fill-rule="evenodd" stroke="none"/>
    <path d="M80.05 43.5 Q79.6 43.75 79.05 43.3 78.5 42.85 77.8 42.55 76.8 42.15 77.3 41.65 L78.4 42.2 79.45 42.75 Q79.95 43.05 80.05 43.5" fill="#4d5653" fill-rule="evenodd" stroke="none"/>
    <path d="M88.6 43.4 L87.95 44.75 87.25 45.65 Q87.15 45.1 87.4 44.5 L87.9 43.3 88.35 42.25 88.45 42.2 88.5 42.15 88.65 42.15 88.65 42.1 Q89.1 42.6 88.6 43.4" fill="#4d5653" fill-rule="evenodd" stroke="none"/>
    <path d="M29.0 45.9 L28.8 46.3 Q28.75 46.65 28.45 46.6 L28.55 46.3 28.7 45.85 28.85 45.45 29.0 45.4 Q29.3 45.6 29.0 45.9" fill="#936653" fill-rule="evenodd" stroke="none"/>
    <path d="M27.45 31.85 L27.65 32.0 27.95 32.9 27.45 33.95 26.65 34.8 26.6 34.85 25.95 34.55 25.5 34.0 25.45 33.75 Q25.45 33.35 25.75 33.1 L26.4 32.25 Q26.65 31.8 27.15 31.75 L27.45 31.85" fill="#936653" fill-rule="evenodd" stroke="none"/>
    <path d="M142.05 43.05 L142.25 43.15 Q142.35 45.2 141.95 47.2 L141.05 51.5 140.15 54.8 Q139.15 53.25 139.8 50.5 L140.6 45.9 Q140.8 44.0 141.75 42.9 L142.05 43.05" fill="#936653" fill-rule="evenodd" stroke="none"/>
    <path d="M127.3 46.05 Q127.35 46.55 126.85 46.65 L126.4 46.25 126.3 45.65 126.4 44.9 126.55 44.75 126.7 44.6 126.85 44.55 127.05 44.45 Q127.65 44.6 127.45 45.15 127.25 45.55 127.3 46.05" fill="#4d5653" fill-rule="evenodd" stroke="none"/>
    <path d="M145.4 51.65 L144.95 52.2 Q144.45 52.3 144.35 51.85 L144.35 51.7 144.55 51.45 144.8 51.2 145.0 51.15 Q145.45 51.25 145.4 51.65" fill="#936653" fill-rule="evenodd" stroke="none"/>
    <path d="M46.85 36.8 L46.5 37.8 Q46.4 38.4 45.85 38.35 45.55 37.9 45.85 37.4 L46.35 36.4 Q46.6 35.9 47.05 35.8 47.2 36.25 46.85 36.8" fill="#a39373" fill-rule="evenodd" stroke="none"/>
    <path d="M85.4 35.25 Q85.1 35.65 85.15 36.15 85.15 36.65 84.75 36.85 84.35 36.65 84.4 36.05 84.5 35.45 84.75 34.95 85.0 34.5 85.5 34.45 85.8 34.8 85.4 35.25" fill="#a39373" fill-rule="evenodd" stroke="none"/>
    <path d="M112.5 38.3 L112.25 38.9 111.85 38.5 111.8 37.9 Q111.75 37.35 112.3 37.3 L112.3 37.25 Q112.8 37.25 112.65 37.65 L112.5 38.3" fill="#a39373" fill-rule="evenodd" stroke="none"/>
    <path d="M143.35 54.8 L142.75 56.4 Q142.5 57.15 141.95 57.4 141.55 56.7 141.9 55.9 L142.45 54.35 Q142.6 53.55 143.25 53.25 143.8 53.8 143.35 54.8" fill="#936653" fill-rule="evenodd" stroke="none"/>
    <path d="M23.1 72.75 L23.7 69.9 Q23.9 68.5 25.05 68.2 25.45 68.85 25.45 69.65 L25.3 70.65 24.7 73.3 Q24.55 74.55 23.85 75.45 22.95 74.7 22.95 73.6 22.95 73.2 23.1 72.75" fill="#936653" fill-rule="evenodd" stroke="none"/>
    <path d="M150.45 93.0 L151.05 93.2 151.45 93.45 151.65 93.7 151.8 94.5 151.7 95.8 Q151.5 96.6 150.8 97.05 L150.55 97.2 Q149.25 97.5 148.8 96.15 148.4 95.0 148.85 94.05 149.2 93.35 150.0 93.1 L150.45 93.0" fill="#936653" fill-rule="evenodd" stroke="none"/>
    <path d="M142.85 114.8 L143.2 114.85 143.75 115.05 144.25 115.55 144.5 116.0 144.45 116.25 144.4 116.5 144.2 116.75 143.65 117.3 142.05 116.9 141.6 116.5 141.55 116.25 141.55 116.0 141.6 115.75 141.95 115.3 Q142.4 114.85 142.85 114.8" fill="#936653" fill-rule="evenodd" stroke="none"/>
    <path d="M119.75 119.1 L120.4 119.35 120.95 119.8 Q121.3 120.15 121.25 120.55 L121.2 120.85 121.1 121.1 120.75 121.6 120.3 122.05 119.2 121.8 118.6 121.4 Q118.25 121.1 118.3 120.65 L118.3 120.4 118.45 119.9 Q118.75 119.45 119.25 119.25 L119.75 119.1" fill="#936653" fill-rule="evenodd" stroke="none"/>
    <path d="M148.95 82.2 L149.45 82.7 149.7 83.2 149.75 83.45 149.55 83.9 148.7 84.6 147.5 84.55 147.35 84.3 147.2 84.0 147.05 83.5 147.0 83.0 147.1 82.75 147.35 82.5 147.6 82.25 147.95 82.1 148.35 81.95 148.95 82.2" fill="#936653" fill-rule="evenodd" stroke="none"/>
    <path d="M21.35 37.95 L21.7 38.25 21.8 38.45 21.95 38.7 Q21.65 39.9 20.75 40.9 19.95 41.8 19.45 42.9 18.75 44.5 17.3 43.7 16.65 42.65 17.4 41.55 L18.7 39.6 Q19.6 38.25 20.85 37.75 L21.35 37.95" fill="#936653" fill-rule="evenodd" stroke="none"/>
    <path d="M140.25 31.3 L140.1 31.0 Q139.8 30.55 139.95 30.0 140.1 29.35 140.7 29.1 L141.1 28.95 142.2 29.2 143.8 29.45 Q144.75 29.35 145.6 29.85 L146.05 30.25 Q146.05 30.75 145.65 31.1 L144.85 31.8 Q143.05 33.2 140.85 32.05 L140.25 31.3" fill="#936653" fill-rule="evenodd" stroke="none"/>
  </g>
</svg>
