<?xml version="1.0" encoding="UTF-8" standalone="no"?>
<svg xmlns:ffdec="https://www.free-decompiler.com/flash" xmlns:xlink="http://www.w3.org/1999/xlink" ffdec:objectType="shape" height="28.05px" width="48.05px" xmlns="http://www.w3.org/2000/svg">
  <g transform="matrix(1.0, 0.0, 0.0, 1.0, -17.5, -11.7)">
    <path d="M65.55 12.1 L62.0 27.85 62.05 39.45 58.15 39.4 58.15 29.3 53.65 12.0 57.7 11.95 60.0 21.75 61.8 11.7 65.55 12.1 M49.8 11.85 L53.6 38.85 50.0 38.95 49.4 35.1 46.05 35.2 45.65 39.7 41.8 39.75 45.1 12.3 49.8 11.85 M48.9 31.3 L47.4 22.05 46.45 31.25 48.9 31.3 M24.85 12.65 Q28.2 14.0 28.3 21.35 28.1 26.45 25.45 28.4 23.4 29.7 21.4 29.65 L21.4 39.4 17.5 39.3 17.55 12.2 20.95 11.95 21.35 11.95 Q23.45 12.0 24.85 12.65 M21.4 15.45 L21.35 25.7 Q22.8 25.55 23.45 24.95 24.2 24.25 24.35 21.0 24.35 17.9 24.05 17.0 23.15 15.45 21.4 15.45 M34.9 12.05 L34.9 35.2 40.25 34.7 40.35 38.95 31.15 39.3 31.25 11.95 34.9 12.05" fill="#672208" fill-rule="evenodd" stroke="none"/>
  </g>
</svg>
