<?xml version="1.0" encoding="UTF-8" standalone="no"?>
<svg xmlns:ffdec="https://www.free-decompiler.com/flash" xmlns:xlink="http://www.w3.org/1999/xlink" ffdec:objectType="shape" height="35.6px" width="48.05px" xmlns="http://www.w3.org/2000/svg">
  <g transform="matrix(1.0, 0.0, 0.0, 1.0, -17.5, -4.15)">
    <path d="M65.55 12.1 L62.0 27.85 62.05 39.45 58.15 39.4 58.15 29.3 53.65 12.0 57.7 11.95 60.0 21.75 61.8 11.7 65.55 12.1 M49.8 11.85 L53.6 38.85 50.0 38.95 49.4 35.1 46.05 35.2 45.65 39.7 41.8 39.75 45.1 12.3 49.8 11.85 M48.9 31.3 L47.4 22.05 46.45 31.25 48.9 31.3 M34.9 12.05 L34.9 35.2 40.25 34.7 40.35 38.95 31.15 39.3 31.25 11.95 34.9 12.05 M21.4 8.65 L21.35 21.8 Q22.8 21.6 23.45 20.85 24.2 19.95 24.35 15.75 24.35 11.8 24.05 10.65 23.15 8.65 21.4 8.65 M21.35 4.15 Q23.45 4.2 24.85 5.05 28.2 6.8 28.3 16.2 28.1 22.75 25.45 25.25 23.4 26.95 21.4 26.9 L21.4 39.4 17.5 39.25 17.55 4.45 20.95 4.15 21.35 4.15" fill="#672208" fill-rule="evenodd" stroke="none"/>
  </g>
</svg>
