<?xml version="1.0" encoding="UTF-8" standalone="no"?>
<svg xmlns:ffdec="https://www.free-decompiler.com/flash" xmlns:xlink="http://www.w3.org/1999/xlink" ffdec:objectType="shape" height="32.2px" width="48.05px" xmlns="http://www.w3.org/2000/svg">
  <g transform="matrix(1.0, 0.0, 0.0, 1.0, -17.5, -7.55)">
    <path d="M65.55 12.1 L62.0 27.85 62.05 39.45 58.15 39.4 58.15 29.3 53.65 12.0 57.7 11.95 60.0 21.75 61.8 11.7 65.55 12.1 M49.8 11.85 L53.6 38.85 50.0 38.95 49.4 35.1 46.05 35.2 45.65 39.7 41.8 39.75 45.1 12.3 49.8 11.85 M48.9 31.3 L47.4 22.05 46.45 31.25 48.9 31.3 M24.05 16.65 Q23.15 15.1 21.4 15.1 L21.35 25.45 Q22.8 25.3 23.45 24.7 24.2 24.0 24.35 20.7 24.35 17.55 24.05 16.65 M21.35 11.55 Q23.45 11.55 24.85 12.25 28.2 13.6 28.3 21.05 28.1 26.2 25.45 28.2 23.4 29.55 21.4 29.5 L21.4 39.4 17.5 39.25 17.55 11.75 20.95 11.55 21.35 11.55 M34.9 7.7 L34.9 34.55 40.25 33.95 40.35 38.9 31.15 39.3 31.25 7.55 34.9 7.7" fill="#672208" fill-rule="evenodd" stroke="none"/>
  </g>
</svg>
