<?xml version="1.0" encoding="UTF-8" standalone="no"?>
<svg xmlns:ffdec="https://www.free-decompiler.com/flash" xmlns:xlink="http://www.w3.org/1999/xlink" ffdec:objectType="shape" height="34.0px" width="73.75px" xmlns="http://www.w3.org/2000/svg">
  <g transform="matrix(1.0, 0.0, 0.0, 1.0, -1.1, -2.8)">
    <path d="M4.7 3.55 L53.1 3.55 59.15 2.8 61.6 3.0 56.55 3.55 66.95 3.55 70.45 4.35 71.75 4.35 Q73.75 4.8 74.65 5.5 L73.95 25.45 72.45 26.25 Q73.45 26.6 74.1 27.2 L74.75 30.65 74.8 32.35 74.7 33.05 74.8 33.05 Q74.6 35.6 72.8 36.45 L66.3 36.8 58.9 36.7 50.25 36.25 42.65 36.1 13.6 36.75 Q8.15 36.8 5.95 35.5 L5.7 35.45 Q4.55 35.15 3.8 34.7 2.45 33.9 2.25 32.65 L2.35 32.65 2.25 32.55 2.2 32.25 Q1.9 31.25 1.75 30.1 L1.6 29.35 1.55 28.95 1.35 27.25 1.3 26.85 Q1.1 24.3 1.2 21.5 L1.2 21.05 1.35 19.0 1.1 19.0 1.35 18.95 1.4 18.95 1.4 18.75 1.4 18.55 1.45 17.6 1.55 17.6 1.55 17.4 1.55 17.15 1.7 15.5 1.75 15.5 1.75 15.05 2.45 10.75 2.5 10.75 2.55 10.35 2.6 10.35 3.1 7.7 3.6 6.4 3.5 6.4 3.65 6.1 3.7 6.0 Q3.8 4.35 4.7 3.55" fill="#000000" fill-opacity="0.2" fill-rule="evenodd" stroke="none"/>
  </g>
</svg>
