<?xml version="1.0" encoding="UTF-8" standalone="no"?>
<svg xmlns:ffdec="https://www.free-decompiler.com/flash" xmlns:xlink="http://www.w3.org/1999/xlink" ffdec:objectType="shape" height="33.3px" width="73.75px" xmlns="http://www.w3.org/2000/svg">
  <g transform="matrix(1.0, 0.0, 0.0, 1.0, 0.0, 0.0)">
    <path d="M73.55 1.95 L72.85 21.9 71.35 22.7 Q72.3 23.05 72.95 23.65 L73.65 27.1 73.7 28.8 73.6 29.55 73.7 29.55 Q73.5 32.05 71.7 32.9 L65.2 33.3 57.8 33.15 49.15 32.7 41.55 32.55 12.5 33.2 Q3.7 33.3 3.35 29.85 L3.3 29.55 3.5 29.55 3.35 29.05 3.3 28.8 Q0.9 19.9 4.15 4.35 L4.8 2.75 Q5.1 0.95 8.15 0.75 L8.15 0.8 70.65 0.8 Q72.65 1.3 73.55 1.95" fill="url(#gradient0)" fill-rule="evenodd" stroke="none"/>
    <path d="M71.35 1.75 L70.7 21.8 69.2 22.55 Q70.1 22.9 70.8 23.5 L71.5 27.0 Q71.85 31.0 69.55 32.05 L63.0 32.45 55.6 32.3 47.0 31.9 39.35 31.7 10.3 32.4 Q1.55 32.5 1.2 29.0 -1.35 20.0 2.0 4.15 L2.6 2.55 Q2.7 0.8 3.6 0.0 L65.85 0.0 Q69.95 0.65 71.35 1.75" fill="#c58c3f" fill-rule="evenodd" stroke="none"/>
    <path d="M0.45 15.55 L14.9 14.95 Q28.2 14.95 37.5 16.6 46.6 18.25 46.75 20.5 46.6 22.8 37.5 24.4 28.2 26.1 14.9 26.1 L0.65 25.5 0.5 25.5 0.35 23.8 15.0 24.4 34.05 23.35 Q42.3 22.3 42.2 20.75 42.3 19.15 34.05 18.1 L15.0 17.1 0.2 17.65 0.35 15.55 0.45 15.55" fill="url(#gradient1)" fill-rule="evenodd" stroke="none"/>
    <path d="M0.25 18.05 L15.0 17.5 33.85 18.5 Q41.35 19.45 41.4 20.75 41.35 22.0 33.85 22.95 L15.0 23.95 0.4 23.4 0.25 23.4 Q0.1 20.9 0.2 18.05 L0.25 18.05" fill="url(#gradient2)" fill-rule="evenodd" stroke="none"/>
    <path d="M4.7 32.05 Q1.55 31.25 1.25 29.25 9.55 29.85 17.65 29.65 26.7 29.45 43.05 25.95 55.5 23.25 70.0 23.25 L70.35 23.25 70.85 23.65 71.5 27.15 Q71.95 31.1 69.55 32.2 L63.05 32.55 55.65 32.45 47.05 32.0 39.4 31.85 10.3 32.5 4.7 32.05" fill="url(#gradient3)" fill-rule="evenodd" stroke="none"/>
    <path d="M0.8 12.1 L16.1 11.15 Q29.85 10.65 44.35 13.75 56.4 16.3 70.9 16.5 L70.85 19.35 Q56.4 19.25 45.35 16.45 30.9 12.9 17.45 12.9 L0.5 13.75 0.7 12.1 0.8 12.1 M0.45 14.15 L0.55 14.15 17.45 13.3 Q30.75 13.3 44.95 16.85 56.2 19.6 70.8 19.75 L70.7 21.95 69.2 22.7 69.55 22.85 Q55.15 22.9 42.75 25.55 26.55 29.05 17.65 29.25 9.55 29.4 1.3 28.8 L1.15 28.8 0.55 25.9 14.9 26.5 Q28.35 26.5 37.8 24.8 47.6 23.05 47.5 20.5 47.6 17.95 37.8 16.25 28.35 14.55 14.9 14.55 L0.4 15.15 0.45 14.15 M71.0 12.6 L54.2 11.65 Q46.6 10.8 46.5 9.8 46.6 8.7 54.2 7.9 L71.25 6.95 71.0 12.6" fill="#c58c3f" fill-rule="evenodd" stroke="none"/>
    <path d="M70.95 14.55 L50.2 12.85 Q41.2 11.45 41.15 9.6 41.2 7.75 50.2 6.35 58.8 4.95 71.3 4.65 L71.25 6.55 54.0 7.5 Q45.6 8.45 45.7 9.8 45.6 11.1 54.0 12.05 L71.0 13.05 70.95 14.55" fill="url(#gradient4)" fill-rule="evenodd" stroke="none"/>
    <path d="M1.4 7.35 L13.9 7.8 Q27.7 8.25 46.95 5.15 58.4 3.3 71.4 2.65 L71.3 4.25 Q58.65 4.55 49.95 5.95 40.25 7.45 40.35 9.6 40.25 11.7 49.95 13.2 L70.95 14.95 70.95 16.1 Q56.6 15.9 44.75 13.35 29.95 10.2 16.0 10.7 L0.75 11.65 1.4 7.35" fill="url(#gradient5)" fill-rule="evenodd" stroke="none"/>
    <path d="M71.05 16.4 Q56.45 16.2 44.25 13.65 29.75 10.55 16.0 11.05 L0.65 11.95 0.65 11.55 16.0 10.6 Q29.95 10.1 44.65 13.25 56.55 15.75 70.85 15.95 L70.85 16.4 71.05 16.4 M71.3 2.5 Q58.4 3.15 47.0 5.0 27.7 8.1 13.9 7.7 L1.4 7.2 1.45 6.8 13.9 7.3 Q27.5 7.7 46.5 4.6 58.15 2.75 71.35 2.1 L71.3 2.5 M71.25 4.5 Q58.85 4.85 50.25 6.15 41.2 7.65 41.2 9.45 41.2 11.35 50.25 12.75 58.7 14.1 70.85 14.45 L70.85 14.8 Q58.4 14.45 49.8 13.1 40.1 11.55 40.2 9.45 40.1 7.4 49.8 5.85 58.55 4.5 71.25 4.15 L71.25 4.5 M71.2 6.8 L54.15 7.75 Q46.6 8.6 46.45 9.65 46.6 10.7 54.15 11.55 L71.0 12.55 70.95 12.85 53.85 11.85 Q45.4 10.95 45.55 9.65 45.4 8.35 53.85 7.4 L71.2 6.45 71.2 6.8 M70.7 19.65 Q56.1 19.5 44.9 16.75 30.65 13.15 17.45 13.15 L0.4 14.05 0.4 13.65 17.45 12.75 Q30.85 12.75 45.25 16.35 56.35 19.1 70.75 19.25 L70.7 19.65 M70.25 23.1 Q55.55 23.1 42.95 25.8 26.65 29.35 17.6 29.55 9.45 29.7 1.2 29.1 L1.15 29.0 1.05 28.7 Q9.35 29.3 17.55 29.1 26.45 28.9 42.65 25.45 55.05 22.75 69.5 22.75 L70.25 23.1 M50.65 0.2 L53.95 0.2 46.7 1.3 Q27.35 4.4 13.2 3.5 L2.4 2.85 2.5 2.55 2.6 2.45 13.25 3.1 Q27.2 3.95 46.2 0.9 L50.65 0.2 M42.15 20.6 Q42.2 22.2 34.0 23.2 L14.95 24.2 0.25 23.7 0.2 23.3 14.95 23.85 33.8 22.85 Q41.25 21.9 41.3 20.6 41.25 19.3 33.8 18.4 L14.95 17.4 0.1 17.95 0.1 17.55 14.95 17.0 34.0 18.0 Q42.2 19.05 42.15 20.6 M47.45 20.4 Q47.55 22.9 37.75 24.7 28.3 26.4 14.9 26.4 L0.5 25.8 0.4 25.4 14.9 26.0 Q28.1 26.0 37.5 24.3 46.6 22.65 46.65 20.4 46.6 18.1 37.5 16.5 28.1 14.8 14.9 14.8 L0.0 15.45 0.3 15.45 0.3 15.0 14.9 14.45 Q28.3 14.45 37.75 16.1 47.55 17.85 47.45 20.4" fill="#ae7528" fill-rule="evenodd" stroke="none"/>
    <path d="M56.4 12.3 Q56.15 13.45 57.75 15.1 59.35 16.7 59.95 17.75 60.45 18.9 60.45 20.15 L60.0 22.65 Q59.45 24.75 57.35 24.95 55.05 24.9 54.45 22.75 L53.85 19.6 56.1 19.3 56.35 20.85 Q56.55 22.3 57.25 22.35 57.75 22.25 57.9 20.8 58.25 19.2 56.8 17.75 55.3 16.3 54.75 15.1 53.85 13.55 54.05 11.65 L54.35 10.4 Q54.9 8.3 57.2 8.15 59.25 8.25 59.85 10.35 60.3 11.9 60.4 13.9 L58.1 13.95 57.95 12.25 Q57.75 10.8 57.25 10.7 L57.25 10.75 Q56.55 10.85 56.4 12.3 M50.7 10.75 L50.65 24.8 48.3 24.7 48.35 10.75 46.25 10.7 46.3 8.1 52.55 8.15 52.7 10.75 50.7 10.75 M44.3 8.2 L44.5 24.95 42.25 25.0 42.05 8.2 44.3 8.2 M36.3 10.7 L36.2 22.55 37.0 22.35 Q37.7 22.25 37.85 20.8 L38.0 16.45 37.75 12.25 Q37.6 10.85 36.85 10.75 L36.3 10.7 M39.75 10.4 Q40.35 12.45 40.4 16.4 L40.4 17.25 Q40.4 20.75 39.9 22.65 39.4 24.7 37.1 24.9 L36.1 24.95 33.85 24.65 34.05 8.25 35.6 8.1 36.9 8.2 Q39.2 8.3 39.75 10.4 M32.3 10.8 L29.45 10.85 29.4 14.1 31.7 14.15 31.65 16.75 29.35 16.75 29.35 22.1 32.3 22.1 32.2 24.8 26.95 24.75 27.2 8.2 32.25 8.25 32.3 10.8 M22.7 8.35 Q24.85 8.95 25.0 13.9 24.95 16.8 23.5 18.0 L25.6 24.65 23.3 24.95 21.4 18.85 20.85 18.9 20.85 24.8 18.5 24.75 18.55 8.35 20.6 8.2 22.7 8.35 M20.85 10.3 L20.85 16.5 Q21.7 16.45 22.1 16.05 22.55 15.65 22.65 13.65 22.65 11.8 22.45 11.25 22.1 10.05 20.85 10.3 M12.55 12.35 L12.35 16.6 12.55 20.85 Q12.7 22.3 13.4 22.4 14.1 22.35 14.3 20.85 L14.45 18.5 16.75 18.55 Q16.65 21.2 16.2 22.75 15.6 24.9 13.35 24.95 11.05 24.8 10.5 22.7 9.95 20.6 9.9 16.6 9.9 12.55 10.45 10.45 11.0 8.35 13.35 8.2 15.6 8.25 16.2 10.4 L16.75 14.4 14.45 14.65 14.3 12.3 Q14.1 10.85 13.4 10.8 12.7 10.9 12.55 12.35" fill="#672208" fill-rule="evenodd" stroke="none"/>
  </g>
  <defs>
    <linearGradient gradientTransform="matrix(0.0436, 0.0, 0.0, 0.0208, 38.0, 16.25)" gradientUnits="userSpaceOnUse" id="gradient0" spreadMethod="pad" x1="-819.2" x2="819.2">
      <stop offset="0.0" stop-color="#231204"/>
      <stop offset="0.5568627450980392" stop-color="#4f2909"/>
      <stop offset="1.0" stop-color="#7e491e"/>
    </linearGradient>
    <linearGradient gradientTransform="matrix(0.0284, 0.0019, -0.0021, 0.0069, 23.1, 20.2)" gradientUnits="userSpaceOnUse" id="gradient1" spreadMethod="pad" x1="-819.2" x2="819.2">
      <stop offset="0.0" stop-color="#b17536"/>
      <stop offset="1.0" stop-color="#ce9744"/>
    </linearGradient>
    <linearGradient gradientTransform="matrix(0.017, 0.0088, -0.0066, 0.0028, 20.7, 20.5)" gradientUnits="userSpaceOnUse" id="gradient2" spreadMethod="pad" x1="-819.2" x2="819.2">
      <stop offset="0.0" stop-color="#b17536"/>
      <stop offset="1.0" stop-color="#ce9744"/>
    </linearGradient>
    <linearGradient gradientTransform="matrix(-0.1145, 0.0115, -0.0026, -0.0067, 45.15, 20.05)" gradientUnits="userSpaceOnUse" id="gradient3" spreadMethod="pad" x1="-819.2" x2="819.2">
      <stop offset="0.0" stop-color="#b17536"/>
      <stop offset="1.0" stop-color="#ce9744"/>
    </linearGradient>
    <linearGradient gradientTransform="matrix(0.0316, 0.0, 0.0, 0.006, 49.95, 9.45)" gradientUnits="userSpaceOnUse" id="gradient4" spreadMethod="pad" x1="-819.2" x2="819.2">
      <stop offset="0.0" stop-color="#b17536"/>
      <stop offset="1.0" stop-color="#ce9744"/>
    </linearGradient>
    <linearGradient gradientTransform="matrix(0.0981, -0.0056, 0.0018, 0.0081, 11.35, 10.85)" gradientUnits="userSpaceOnUse" id="gradient5" spreadMethod="pad" x1="-819.2" x2="819.2">
      <stop offset="0.0" stop-color="#b17536"/>
      <stop offset="1.0" stop-color="#ce9744"/>
    </linearGradient>
  </defs>
</svg>
