<?xml version="1.0" encoding="UTF-8" standalone="no"?>
<svg xmlns:ffdec="https://www.free-decompiler.com/flash" xmlns:xlink="http://www.w3.org/1999/xlink" ffdec:objectType="shape" height="22.4px" width="50.55px" xmlns="http://www.w3.org/2000/svg">
  <g transform="matrix(1.0, 0.0, 0.0, 1.0, -2.65, -1.65)">
    <path d="M47.1 9.45 Q47.65 7.35 49.95 7.2 52.0 7.3 52.6 9.4 53.05 10.95 53.15 12.95 L50.85 13.0 50.7 11.3 Q50.5 9.85 50.0 9.75 L50.0 9.8 Q49.3 9.9 49.15 11.35 48.9 12.5 50.5 14.15 L52.7 16.8 Q53.2 17.95 53.2 19.2 L52.75 21.7 Q52.2 23.8 50.1 24.0 47.8 23.95 47.2 21.8 L46.6 18.65 48.85 18.35 49.1 19.9 Q49.3 21.35 50.0 21.4 50.5 21.3 50.65 19.85 51.0 18.25 49.55 16.8 48.05 15.35 47.5 14.15 46.6 12.6 46.8 10.7 L47.1 9.45 M45.45 9.8 L43.45 9.8 43.4 23.85 41.05 23.75 41.1 9.8 39.0 9.75 39.05 7.15 45.3 7.2 45.45 9.8 M37.05 7.25 L37.25 24.0 35.0 24.05 34.8 7.25 37.05 7.25 M29.05 9.75 L28.95 21.6 29.75 21.4 Q30.45 21.3 30.6 19.85 L30.75 15.5 30.5 11.3 Q30.35 9.9 29.6 9.8 L29.05 9.75 M28.35 7.15 L29.65 7.25 Q31.95 7.35 32.5 9.45 33.1 11.5 33.15 15.45 L33.15 16.3 Q33.15 19.8 32.65 21.7 32.15 23.75 29.85 23.95 L28.85 24.0 26.6 23.7 26.8 7.3 28.35 7.15 M22.2 9.9 L22.15 13.15 24.45 13.2 24.4 15.8 22.1 15.8 22.1 21.15 25.05 21.15 24.95 23.85 19.7 23.8 19.95 7.25 25.0 7.3 25.05 9.85 22.2 9.9 M13.6 9.35 L13.6 15.55 Q14.45 15.5 14.85 15.1 15.3 14.7 15.4 12.7 15.4 10.85 15.2 10.3 14.85 9.1 13.6 9.35 M15.45 7.4 Q17.6 8.0 17.75 12.95 17.7 15.85 16.25 17.05 L18.35 23.7 16.05 24.0 14.15 17.9 13.6 17.95 13.6 23.85 11.25 23.8 11.3 7.4 13.35 7.25 15.45 7.4 M9.5 9.95 L7.2 10.3 7.05 7.15 Q6.85 5.2 6.15 5.15 5.45 5.3 5.3 7.2 L5.1 12.9 5.3 18.55 Q5.45 20.5 6.15 20.6 6.85 20.55 7.05 18.55 L7.2 15.4 9.5 15.5 Q9.4 19.0 8.95 21.1 8.35 23.95 6.1 24.0 3.8 23.8 3.25 21.0 2.7 18.2 2.65 12.9 2.65 7.5 3.2 4.7 3.75 1.85 6.1 1.65 8.35 1.75 8.95 4.6 L9.5 9.95" fill="#672208" fill-rule="evenodd" stroke="none"/>
  </g>
</svg>
