<?xml version="1.0" encoding="UTF-8" standalone="no"?>
<svg xmlns:ffdec="https://www.free-decompiler.com/flash" xmlns:xlink="http://www.w3.org/1999/xlink" ffdec:objectType="shape" height="20.55px" width="50.55px" xmlns="http://www.w3.org/2000/svg">
  <g transform="matrix(1.0, 0.0, 0.0, 1.0, -2.65, -3.5)">
    <path d="M49.95 7.2 Q52.0 7.3 52.6 9.4 53.05 10.95 53.15 12.95 L50.85 13.0 50.7 11.3 Q50.5 9.85 50.0 9.75 L50.0 9.8 Q49.3 9.9 49.15 11.35 48.9 12.5 50.5 14.15 L52.7 16.8 Q53.2 17.95 53.2 19.2 L52.75 21.7 Q52.2 23.8 50.1 24.0 47.8 23.95 47.2 21.8 L46.6 18.65 48.85 18.35 49.1 19.9 Q49.3 21.35 50.0 21.4 50.5 21.3 50.65 19.85 51.0 18.25 49.55 16.8 48.05 15.35 47.5 14.15 46.6 12.6 46.8 10.7 L47.1 9.45 Q47.65 7.35 49.95 7.2 M43.45 9.8 L43.4 23.85 41.05 23.75 41.1 9.8 39.0 9.75 39.05 7.15 45.3 7.2 45.45 9.8 43.45 9.8 M37.05 7.25 L37.25 24.0 35.0 24.05 34.8 7.25 37.05 7.25 M29.05 9.75 L28.95 21.6 29.75 21.4 Q30.45 21.3 30.6 19.85 L30.75 15.5 30.5 11.3 Q30.35 9.9 29.6 9.8 L29.05 9.75 M29.65 7.25 Q31.95 7.35 32.5 9.45 33.1 11.5 33.15 15.45 L33.15 16.3 Q33.15 19.8 32.65 21.7 32.15 23.75 29.85 23.95 L28.85 24.0 26.6 23.7 26.8 7.3 28.35 7.15 29.65 7.25 M25.05 9.85 L22.2 9.9 22.15 13.15 24.45 13.2 24.4 15.8 22.1 15.8 22.1 21.15 25.05 21.15 24.95 23.85 19.7 23.8 19.95 7.25 25.0 7.3 25.05 9.85 M17.75 10.5 Q17.7 14.05 16.25 15.5 L18.35 23.65 16.05 24.0 14.15 16.55 13.6 16.6 13.6 23.85 11.25 23.8 11.3 3.7 13.35 3.5 15.45 3.7 Q17.6 4.45 17.75 10.5 M13.6 6.1 L13.6 13.7 Q14.45 13.6 14.85 13.15 15.3 12.65 15.4 10.2 15.4 7.95 15.2 7.25 14.85 5.8 13.6 6.1 M5.3 11.4 L5.1 15.65 5.3 19.9 Q5.45 21.35 6.15 21.45 6.85 21.4 7.05 19.9 L7.2 17.55 9.5 17.6 Q9.4 20.25 8.95 21.8 8.35 23.95 6.1 24.0 3.8 23.85 3.25 21.75 2.7 19.65 2.65 15.65 2.65 11.6 3.2 9.5 3.75 7.4 6.1 7.25 8.35 7.3 8.95 9.45 L9.5 13.45 7.2 13.7 7.05 11.35 Q6.85 9.9 6.15 9.85 5.45 9.95 5.3 11.4" fill="#672208" fill-rule="evenodd" stroke="none"/>
  </g>
</svg>
