<?xml version="1.0" encoding="UTF-8" standalone="no"?>
<svg xmlns:ffdec="https://www.free-decompiler.com/flash" xmlns:xlink="http://www.w3.org/1999/xlink" ffdec:objectType="shape" height="19.7px" width="50.55px" xmlns="http://www.w3.org/2000/svg">
  <g transform="matrix(1.0, 0.0, 0.0, 1.0, -2.65, -4.35)">
    <path d="M53.15 11.1 L50.85 11.15 50.7 9.15 Q50.5 7.45 50.0 7.35 L50.0 7.4 Q49.3 7.55 49.15 9.25 48.9 10.55 50.5 12.5 52.1 14.35 52.7 15.6 53.2 16.95 53.2 18.4 L52.75 21.35 Q52.2 23.8 50.1 24.0 47.8 23.95 47.2 21.45 L46.6 17.75 48.85 17.4 49.1 19.25 Q49.3 20.9 50.0 21.0 50.5 20.85 50.65 19.15 51.0 17.3 49.55 15.6 48.05 13.9 47.5 12.5 46.6 10.7 46.8 8.45 L47.1 7.0 Q47.65 4.55 49.95 4.35 52.0 4.5 52.6 6.95 53.05 8.75 53.15 11.1 M45.45 9.8 L43.45 9.8 43.4 23.85 41.05 23.75 41.1 9.8 39.0 9.75 39.05 7.15 45.3 7.2 45.45 9.8 M37.05 7.25 L37.25 24.0 35.0 24.05 34.8 7.25 37.05 7.25 M22.2 9.9 L22.15 13.15 24.45 13.2 24.4 15.8 22.1 15.8 22.1 21.15 25.05 21.15 24.95 23.85 19.7 23.8 19.95 7.25 25.0 7.3 25.05 9.85 22.2 9.9 M28.35 7.15 L29.65 7.25 Q31.95 7.35 32.5 9.45 33.1 11.5 33.15 15.45 L33.15 16.3 Q33.15 19.8 32.65 21.7 32.15 23.75 29.85 23.95 L28.85 24.0 26.6 23.7 26.8 7.3 28.35 7.15 M29.05 9.75 L28.95 21.6 29.75 21.4 Q30.45 21.3 30.6 19.85 L30.75 15.5 30.5 11.3 Q30.35 9.9 29.6 9.8 L29.05 9.75 M15.45 7.4 Q17.6 8.0 17.75 12.95 17.7 15.85 16.25 17.05 L18.35 23.7 16.05 24.0 14.15 17.9 13.6 17.95 13.6 23.85 11.25 23.8 11.3 7.4 13.35 7.25 15.45 7.4 M13.6 9.35 L13.6 15.55 Q14.45 15.5 14.85 15.1 15.3 14.7 15.4 12.7 15.4 10.85 15.2 10.3 14.85 9.1 13.6 9.35 M5.3 11.4 L5.1 15.65 5.3 19.9 Q5.45 21.35 6.15 21.45 6.85 21.4 7.05 19.9 L7.2 17.55 9.5 17.6 Q9.4 20.25 8.95 21.8 8.35 23.95 6.1 24.0 3.8 23.85 3.25 21.75 2.7 19.65 2.65 15.65 2.65 11.6 3.2 9.5 3.75 7.4 6.1 7.25 8.35 7.3 8.95 9.45 L9.5 13.45 7.2 13.7 7.05 11.35 Q6.85 9.9 6.15 9.85 5.45 9.95 5.3 11.4" fill="#672208" fill-rule="evenodd" stroke="none"/>
  </g>
</svg>
