<?xml version="1.0" encoding="UTF-8" standalone="no"?>
<svg xmlns:ffdec="https://www.free-decompiler.com/flash" xmlns:xlink="http://www.w3.org/1999/xlink" ffdec:objectType="shape" height="37.35px" width="83.2px" xmlns="http://www.w3.org/2000/svg">
  <g transform="matrix(1.0, 0.0, 0.0, 1.0, 4.75, 0.0)">
    <path d="M-1.15 6.55 Q-1.0 4.9 -0.05 4.1 L53.5 4.1 60.2 3.35 62.9 3.55 57.3 4.1 68.85 4.1 72.7 4.9 74.15 4.9 Q76.35 5.35 77.4 6.05 L76.6 26.0 74.95 26.8 Q76.0 27.15 76.75 27.75 L77.5 31.2 77.55 32.9 77.4 33.6 77.55 33.6 Q77.35 36.15 75.35 37.0 L68.1 37.35 59.95 37.25 50.4 36.8 41.95 36.65 9.8 37.3 Q3.75 37.35 1.35 36.05 L1.05 36.0 -1.05 35.25 Q-2.55 34.45 -2.75 33.2 L-2.65 33.2 -2.75 33.1 -2.85 32.8 -3.3 30.65 -3.45 29.9 -3.55 29.5 -3.75 27.8 -3.8 27.4 -3.9 22.05 -3.9 21.6 -3.75 19.55 -4.0 19.55 -3.75 19.5 -3.7 19.5 -3.7 19.3 -3.7 19.1 -3.65 18.15 -3.55 18.15 -3.55 17.95 -3.55 17.7 -3.35 16.05 -3.3 16.05 -3.3 15.6 -2.55 11.3 -2.5 11.3 -2.4 10.9 -2.35 10.9 -1.8 8.25 -1.25 6.95 -1.35 6.95 -1.25 6.65 -1.15 6.55" fill="#000000" fill-opacity="0.2" fill-rule="evenodd" stroke="none"/>
    <path d="M78.25 1.95 L77.5 21.9 75.8 22.7 Q76.9 23.05 77.6 23.65 L78.4 27.1 78.45 28.8 78.3 29.55 78.45 29.55 Q78.2 32.05 76.2 32.9 L68.8 33.3 60.5 33.15 50.75 32.7 42.15 32.55 9.35 33.2 Q-0.55 33.3 -0.95 29.85 L-1.05 29.55 -0.8 29.55 -0.95 29.05 -1.05 28.8 Q-3.75 19.9 -0.05 4.35 L0.65 2.75 Q1.0 0.95 4.45 0.75 L4.45 0.8 75.0 0.8 Q77.25 1.3 78.25 1.95" fill="url(#gradient0)" fill-rule="evenodd" stroke="none"/>
    <path d="M75.8 1.75 L75.05 21.8 73.35 22.55 Q74.4 22.9 75.15 23.5 L75.95 27.0 Q76.35 31.0 73.75 32.05 L66.35 32.45 58.05 32.3 48.3 31.9 39.7 31.7 6.85 32.4 Q-3.0 32.5 -3.4 29.0 -6.25 20.0 -2.5 4.15 L-1.8 2.55 Q-1.75 0.8 -0.7 0.0 L69.6 0.0 Q74.2 0.65 75.8 1.75" fill="#c58c3f" fill-rule="evenodd" stroke="none"/>
    <path d="M-4.25 15.55 L12.1 14.95 Q27.05 14.95 37.6 16.6 47.85 18.25 48.0 20.5 47.85 22.8 37.6 24.4 27.05 26.1 12.1 26.1 L-4.05 25.5 -4.2 25.5 -4.4 23.8 12.15 24.4 33.7 23.35 Q43.0 22.3 42.85 20.75 43.0 19.15 33.7 18.1 L12.15 17.1 -4.5 17.65 -4.4 15.55 -4.25 15.55" fill="url(#gradient1)" fill-rule="evenodd" stroke="none"/>
    <path d="M-4.45 18.05 L12.15 17.5 33.45 18.5 Q41.9 19.45 41.95 20.75 41.9 22.0 33.45 22.95 L12.15 23.95 -4.3 23.4 -4.45 23.4 Q-4.65 20.9 -4.5 18.05 L-4.45 18.05" fill="url(#gradient2)" fill-rule="evenodd" stroke="none"/>
    <path d="M0.55 32.05 Q-3.0 31.25 -3.35 29.25 6.0 29.85 15.15 29.65 25.35 29.45 43.8 25.95 57.9 23.25 74.25 23.25 L74.65 23.25 75.2 23.65 75.95 27.15 Q76.45 31.1 73.75 32.2 L66.4 32.55 58.05 32.45 48.35 32.0 39.7 31.85 6.9 32.5 0.55 32.05" fill="url(#gradient3)" fill-rule="evenodd" stroke="none"/>
    <path d="M-3.85 12.1 L13.4 11.15 Q28.9 10.65 45.3 13.75 58.95 16.3 75.25 16.5 L75.2 19.35 Q58.95 19.25 46.4 16.45 30.15 12.9 14.95 12.9 L-4.2 13.75 -4.0 12.1 -3.85 12.1 M-4.25 14.15 L-4.1 14.15 14.95 13.3 Q29.95 13.3 46.0 16.85 58.65 19.6 75.15 19.75 L75.05 21.95 73.35 22.7 73.75 22.85 Q57.5 22.9 43.5 25.55 25.2 29.05 15.15 29.25 6.0 29.4 -3.3 28.8 L-3.45 28.8 -4.1 25.9 12.1 26.5 Q27.25 26.5 37.95 24.8 48.95 23.05 48.9 20.5 48.95 17.95 37.95 16.25 27.25 14.55 12.1 14.55 L-4.3 15.15 -4.25 14.15 M75.4 12.6 L56.4 11.65 Q47.85 10.8 47.7 9.8 47.85 8.7 56.4 7.9 L75.7 6.95 75.4 12.6" fill="#c58c3f" fill-rule="evenodd" stroke="none"/>
    <path d="M75.35 14.55 L51.9 12.85 Q41.75 11.45 41.7 9.6 41.75 7.75 51.9 6.35 61.6 4.95 75.75 4.65 L75.7 6.55 56.2 7.5 Q46.7 8.45 46.85 9.8 46.7 11.1 56.2 12.05 L75.4 13.05 75.35 14.55" fill="url(#gradient4)" fill-rule="evenodd" stroke="none"/>
    <path d="M-3.15 7.35 L10.95 7.8 Q26.5 8.25 48.25 5.15 61.2 3.3 75.8 2.65 L75.75 4.25 Q61.45 4.55 51.6 5.95 40.65 7.45 40.8 9.6 40.65 11.7 51.6 13.2 L75.35 14.95 75.35 16.1 Q59.15 15.9 45.75 13.35 29.05 10.2 13.3 10.7 L-3.9 11.65 -3.15 7.35" fill="url(#gradient5)" fill-rule="evenodd" stroke="none"/>
    <path d="M75.2 16.4 L75.45 16.4 Q59.0 16.2 45.2 13.65 28.8 10.55 13.3 11.05 L-4.0 11.95 -4.0 11.55 13.3 10.6 Q29.05 10.1 45.65 13.25 59.05 15.75 75.25 15.95 L75.2 16.4 M75.7 2.5 Q61.2 3.15 48.3 5.0 26.5 8.1 10.9 7.7 L-3.2 7.2 -3.1 6.8 10.9 7.3 Q26.25 7.7 47.75 4.6 60.9 2.75 75.8 2.1 L75.7 2.5 M75.25 14.8 L51.45 13.1 Q40.5 11.55 40.65 9.45 40.5 7.4 51.45 5.85 L75.7 4.15 75.7 4.5 51.95 6.15 Q41.75 7.65 41.75 9.45 41.75 11.35 51.95 12.75 L75.25 14.45 75.25 14.8 M75.35 12.85 L56.05 11.85 Q46.5 10.95 46.7 9.65 46.5 8.35 56.05 7.4 L75.6 6.45 75.6 6.8 56.4 7.75 Q47.85 8.6 47.65 9.65 47.85 10.7 56.4 11.55 L75.35 12.55 75.35 12.85 M75.05 19.65 Q58.55 19.5 45.9 16.75 29.85 13.15 14.95 13.15 L-4.3 14.05 -4.3 13.65 14.95 12.75 Q30.05 12.75 46.35 16.35 58.85 19.1 75.1 19.25 L75.05 19.65 M74.55 23.1 Q57.95 23.1 43.75 25.8 25.3 29.35 15.15 29.55 5.9 29.7 -3.35 29.1 L-3.45 29.0 -3.55 28.7 Q5.8 29.3 15.05 29.1 25.1 28.9 43.4 25.45 57.4 22.75 73.7 22.75 L74.55 23.1 M52.4 0.2 L56.15 0.2 48.0 1.3 Q26.15 4.4 10.15 3.5 L-2.05 2.85 -1.9 2.55 -1.8 2.45 10.2 3.1 Q25.95 3.95 47.4 0.9 L52.4 0.2 M42.85 20.6 Q42.9 22.2 33.6 23.2 L12.1 24.2 -4.5 23.7 -4.55 23.3 12.1 23.85 33.4 22.85 Q41.8 21.9 41.9 20.6 41.8 19.3 33.4 18.4 L12.1 17.4 -4.6 17.95 -4.6 17.55 12.1 17.0 33.6 18.0 Q42.9 19.05 42.85 20.6 M48.8 20.4 Q48.95 22.9 37.85 24.7 27.2 26.4 12.1 26.4 L-4.2 25.8 -4.3 25.4 12.1 26.0 Q26.95 26.0 37.6 24.3 47.85 22.65 47.9 20.4 47.85 18.1 37.6 16.5 26.95 14.8 12.1 14.8 L-4.75 15.45 -4.4 15.45 -4.4 15.0 12.1 14.45 Q27.2 14.45 37.85 16.1 48.95 17.85 48.8 20.4" fill="#ae7528" fill-rule="evenodd" stroke="none"/>
  </g>
  <defs>
    <linearGradient gradientTransform="matrix(0.0492, 0.0, 0.0, 0.0208, 38.15, 16.25)" gradientUnits="userSpaceOnUse" id="gradient0" spreadMethod="pad" x1="-819.2" x2="819.2">
      <stop offset="0.0" stop-color="#231204"/>
      <stop offset="0.5568627450980392" stop-color="#4f2909"/>
      <stop offset="1.0" stop-color="#7e491e"/>
    </linearGradient>
    <linearGradient gradientTransform="matrix(0.0321, 0.0019, -0.0023, 0.0069, 21.3, 20.2)" gradientUnits="userSpaceOnUse" id="gradient1" spreadMethod="pad" x1="-819.2" x2="819.2">
      <stop offset="0.0" stop-color="#b17536"/>
      <stop offset="1.0" stop-color="#ce9744"/>
    </linearGradient>
    <linearGradient gradientTransform="matrix(0.0192, 0.0088, -0.0074, 0.0028, 18.6, 20.5)" gradientUnits="userSpaceOnUse" id="gradient2" spreadMethod="pad" x1="-819.2" x2="819.2">
      <stop offset="0.0" stop-color="#b17536"/>
      <stop offset="1.0" stop-color="#ce9744"/>
    </linearGradient>
    <linearGradient gradientTransform="matrix(-0.1293, 0.0115, -0.003, -0.0067, 46.2, 20.05)" gradientUnits="userSpaceOnUse" id="gradient3" spreadMethod="pad" x1="-819.2" x2="819.2">
      <stop offset="0.0" stop-color="#b17536"/>
      <stop offset="1.0" stop-color="#ce9744"/>
    </linearGradient>
    <linearGradient gradientTransform="matrix(0.0356, 0.0, 0.0, 0.006, 51.6, 9.45)" gradientUnits="userSpaceOnUse" id="gradient4" spreadMethod="pad" x1="-819.2" x2="819.2">
      <stop offset="0.0" stop-color="#b17536"/>
      <stop offset="1.0" stop-color="#ce9744"/>
    </linearGradient>
    <linearGradient gradientTransform="matrix(0.1108, -0.0056, 0.0021, 0.0081, 8.05, 10.85)" gradientUnits="userSpaceOnUse" id="gradient5" spreadMethod="pad" x1="-819.2" x2="819.2">
      <stop offset="0.0" stop-color="#b17536"/>
      <stop offset="1.0" stop-color="#ce9744"/>
    </linearGradient>
  </defs>
</svg>
