<?xml version="1.0" encoding="UTF-8" standalone="no"?>
<svg xmlns:ffdec="https://www.free-decompiler.com/flash" xmlns:xlink="http://www.w3.org/1999/xlink" ffdec:objectType="shape" height="35.7px" width="52.5px" xmlns="http://www.w3.org/2000/svg">
  <g transform="matrix(1.0, 0.0, 0.0, 1.0, -460.75, -372.05)">
    <path d="M465.4 372.2 L464.25 374.05 Q463.05 375.9 462.7 377.1 462.4 377.75 462.05 379.45 L461.5 382.05 461.55 382.2 461.25 384.5 Q460.85 387.35 462.5 391.15 463.45 393.45 466.15 398.05 L465.7 397.95 Q462.35 393.0 461.4 390.05 460.4 386.95 460.9 383.05 461.3 379.7 462.0 377.35 462.45 375.8 463.25 374.6 464.8 372.35 465.4 372.05 L465.4 372.2 M463.95 377.55 Q463.1 379.55 462.9 381.0 462.75 382.35 462.95 384.05 L463.15 385.65 463.0 385.75 Q462.4 384.55 462.35 383.35 L462.5 381.05 Q462.9 377.7 464.8 375.7 L464.85 375.85 463.95 377.55 M470.2 376.95 L469.45 378.25 468.45 380.05 467.9 381.7 467.7 383.2 Q467.5 384.7 467.9 386.3 468.2 387.45 469.2 389.85 L469.05 389.9 Q468.7 389.85 468.1 388.5 467.6 387.4 467.45 386.45 L467.05 384.6 467.2 383.25 Q467.45 381.25 468.05 379.9 468.7 378.25 470.1 376.8 L470.2 376.95 M466.55 376.05 L465.65 377.9 Q464.65 379.75 464.45 381.45 464.2 383.25 464.25 384.15 464.3 385.4 464.8 387.0 L464.75 387.1 464.7 387.15 Q464.25 387.1 464.05 386.1 L463.9 384.6 Q463.8 383.85 464.0 382.2 464.25 380.1 464.65 379.0 465.2 377.45 466.55 376.0 L466.55 376.05 M468.35 376.25 L467.55 377.0 Q466.6 377.85 466.25 379.1 465.75 380.7 465.55 382.1 L465.5 382.85 465.5 382.7 Q465.7 381.1 466.05 380.4 466.45 379.5 467.75 377.95 L467.85 378.1 467.0 379.55 Q466.15 381.0 466.0 382.4 465.75 384.2 466.2 386.3 L466.65 388.65 466.8 389.4 466.75 389.4 Q466.1 388.05 465.75 386.1 L465.65 385.75 465.75 386.8 465.75 387.05 465.6 387.1 Q465.15 387.05 465.1 384.45 L465.2 381.8 Q465.45 379.9 465.95 378.8 466.65 377.1 468.2 376.05 L468.35 376.25 M472.4 376.7 L471.3 378.55 Q470.2 380.45 469.95 382.4 469.7 384.6 470.15 386.8 470.55 388.6 471.75 391.4 L471.55 391.55 Q470.55 391.4 469.7 387.05 469.15 384.75 469.4 382.7 469.7 380.25 471.1 377.95 472.5 375.65 472.4 376.7 M503.45 381.25 L504.45 385.45 Q504.8 387.35 504.55 389.25 504.1 392.75 501.7 395.05 498.8 397.8 492.4 399.75 L492.3 399.6 Q498.4 396.8 500.9 394.6 503.65 392.25 504.05 389.15 504.25 387.35 504.1 385.45 503.9 383.2 503.3 381.8 L503.35 381.25 503.45 381.25 M506.05 383.25 Q507.2 386.1 507.4 387.7 507.5 389.0 507.2 391.55 506.8 394.6 502.65 398.15 497.85 402.2 491.9 402.85 L491.75 402.8 Q499.8 400.3 503.4 396.5 506.35 393.5 506.9 389.15 507.05 387.85 506.7 386.4 L505.9 383.3 506.05 383.25 M509.9 384.1 Q510.8 386.95 510.95 388.8 L510.7 392.9 Q510.2 396.8 504.4 401.9 497.3 408.15 489.4 407.2 L489.35 407.05 Q499.25 406.05 505.2 400.0 509.6 395.4 510.25 390.15 510.5 388.25 510.15 386.25 L509.7 384.25 509.75 384.1 509.9 384.1 M508.65 384.45 Q508.75 385.8 509.3 388.05 509.5 389.2 509.3 390.85 508.95 394.0 506.0 397.75 502.55 402.2 498.3 402.8 507.85 398.6 509.0 389.35 509.15 388.1 508.7 386.35 L508.3 384.7 Q508.35 384.3 508.65 384.45 M505.7 386.15 L505.8 386.15 506.15 388.2 506.2 389.9 506.0 390.9 505.25 391.95 505.15 391.8 Q505.5 391.55 505.7 389.9 L505.65 388.2 505.6 386.9 505.7 386.15 M513.25 390.3 L513.1 391.25 512.95 391.3 513.1 390.3 513.25 390.3 M510.75 398.2 Q507.85 402.45 506.6 403.55 503.2 406.4 496.2 407.75 L496.05 407.75 Q502.6 406.05 506.25 403.2 508.0 401.8 510.75 398.2 M502.55 395.45 Q502.35 397.2 498.35 399.05 494.45 400.8 490.25 401.2 L493.8 399.9 497.6 398.4 Q499.15 397.65 500.65 396.55 L502.5 395.1 502.55 395.45" fill="#693308" fill-rule="evenodd" stroke="none"/>
  </g>
</svg>
