<?xml version="1.0" encoding="UTF-8" standalone="no"?>
<svg xmlns:ffdec="https://www.free-decompiler.com/flash" xmlns:xlink="http://www.w3.org/1999/xlink" ffdec:objectType="shape" height="22.2px" width="62.35px" xmlns="http://www.w3.org/2000/svg">
  <g transform="matrix(1.0, 0.0, 0.0, 1.0, 0.0, 4.75)">
    <path d="M18.3 -4.75 L18.3 -4.7 18.95 -4.7 20.35 6.35 21.65 -4.7 24.5 -4.75 25.15 17.2 22.9 17.4 22.55 6.2 21.5 14.35 19.4 14.65 18.1 5.75 17.85 17.35 15.45 17.35 16.05 -4.75 18.3 -4.75 M62.35 17.25 L60.05 17.2 57.3 8.2 57.45 17.05 55.05 17.1 55.1 0.4 57.35 0.3 59.95 8.9 59.85 0.05 62.25 0.0 62.35 17.25 M53.25 4.0 L51.0 4.75 50.95 4.35 Q50.75 2.8 50.05 2.75 49.3 2.85 49.15 4.4 L48.95 8.75 49.15 13.15 Q49.35 14.65 50.05 14.75 50.8 14.7 51.0 13.2 L51.25 9.3 49.95 9.3 49.75 6.95 53.4 6.95 53.55 10.2 53.55 10.3 Q53.55 13.25 52.95 15.15 52.35 17.35 50.0 17.45 L50.0 17.4 Q47.6 17.25 47.05 15.1 46.5 12.95 46.45 8.75 L46.45 8.6 Q46.45 4.55 47.0 2.4 47.55 0.25 49.95 0.1 L49.95 0.05 Q52.3 0.15 52.9 2.35 L53.25 4.0 M44.5 0.05 L44.7 17.45 42.35 17.45 42.2 0.05 44.5 0.05 M37.45 6.4 L36.9 12.15 38.4 12.2 37.45 6.4 M30.65 3.25 Q30.1 2.3 29.0 2.25 L29.0 8.7 30.3 8.25 Q30.75 7.75 30.85 5.75 30.85 3.8 30.65 3.25 M33.3 5.95 Q33.2 9.15 31.55 10.35 30.25 11.2 29.0 11.15 L29.0 17.25 26.6 17.2 26.6 0.25 28.75 0.05 29.0 0.05 Q30.3 0.1 31.15 0.5 33.25 1.35 33.3 5.95 M38.95 0.0 L41.35 16.9 39.1 16.95 38.7 14.55 36.6 14.65 36.35 17.45 33.95 17.45 36.0 0.3 38.95 0.0 M11.1 6.4 L10.55 12.15 12.05 12.2 11.1 6.4 M3.65 2.75 Q2.9 2.85 2.7 4.4 2.55 5.9 2.55 8.75 2.55 11.65 2.7 13.15 2.9 14.65 3.65 14.75 4.35 14.7 4.55 13.2 L4.7 10.7 7.1 10.8 Q7.0 13.55 6.55 15.15 5.9 17.35 3.55 17.45 L3.55 17.4 Q1.15 17.25 0.6 15.1 0.05 12.95 0.05 8.75 L0.0 8.75 Q0.0 4.6 0.6 2.4 1.15 0.25 3.55 0.1 L3.55 0.05 Q5.9 0.15 6.5 2.35 6.95 3.95 7.05 6.45 L4.7 6.75 4.55 4.35 Q4.35 2.8 3.65 2.75 M7.6 17.45 L9.65 0.3 12.6 0.0 15.0 16.9 12.75 16.95 12.35 14.55 10.25 14.65 10.0 17.45 7.6 17.45" fill="#672208" fill-rule="evenodd" stroke="none"/>
  </g>
</svg>
