<?xml version="1.0" encoding="UTF-8" standalone="no"?>
<svg xmlns:ffdec="https://www.free-decompiler.com/flash" xmlns:xlink="http://www.w3.org/1999/xlink" ffdec:objectType="shape" height="63.55px" width="63.55px" xmlns="http://www.w3.org/2000/svg">
  <g transform="matrix(1.0, 0.0, 0.0, 1.0, -457.45, -353.15)">
    <path d="M460.3 386.95 Q459.5 374.95 467.4 365.9 475.25 356.8 487.2 356.0 499.15 355.15 508.3 363.05 517.35 370.95 518.15 382.95 519.0 394.9 511.15 403.95 503.15 413.0 491.2 413.85 479.25 414.65 470.25 406.8 461.15 398.9 460.3 386.95 M467.9 366.4 Q460.15 375.2 460.95 386.9 461.8 398.55 470.65 406.3 479.55 414.0 491.2 413.2 502.9 412.4 510.6 403.5 518.3 394.6 517.45 382.95 516.65 371.25 507.85 363.6 498.95 355.9 487.25 356.7 475.6 357.5 467.9 366.4 M465.8 364.55 Q457.3 374.2 458.2 387.1 459.1 399.95 468.85 408.35 478.5 416.8 491.35 415.9 504.25 415.0 512.7 405.3 521.1 395.65 520.2 382.8 519.3 369.9 509.65 361.5 499.95 353.05 487.05 353.95 474.2 354.85 465.8 364.55 M457.55 387.15 Q456.65 374.0 465.25 364.1 473.85 354.15 487.0 353.25 500.15 352.3 510.05 361.0 520.0 369.6 520.9 382.75 521.85 395.9 513.15 405.85 504.55 415.65 491.4 416.6 478.25 417.5 468.35 408.95 458.5 400.3 457.55 387.15" fill="#693308" fill-rule="evenodd" stroke="none"/>
    <path d="M460.3 386.95 Q461.15 398.9 470.25 406.8 479.25 414.65 491.2 413.85 503.15 413.0 511.15 403.95 519.0 394.9 518.15 382.95 517.35 370.95 508.3 363.05 499.15 355.15 487.2 356.0 475.25 356.8 467.4 365.9 459.5 374.95 460.3 386.95 M465.8 364.55 Q474.2 354.85 487.05 353.95 499.95 353.05 509.65 361.5 519.3 369.9 520.2 382.8 521.1 395.65 512.7 405.3 504.25 415.0 491.35 415.9 478.5 416.8 468.85 408.35 459.1 399.95 458.2 387.1 457.3 374.2 465.8 364.55" fill="#af8858" fill-rule="evenodd" stroke="none"/>
  </g>
</svg>
