<?xml version="1.0" encoding="UTF-8" standalone="no"?>
<svg xmlns:ffdec="https://www.free-decompiler.com/flash" xmlns:xlink="http://www.w3.org/1999/xlink" ffdec:objectType="shape" height="19.8px" width="79.65px" xmlns="http://www.w3.org/2000/svg">
  <g transform="matrix(1.0, 0.0, 0.0, 1.0, -0.8, -4.25)">
    <path d="M72.0 9.85 L69.1 9.9 69.05 13.15 71.35 13.2 71.3 15.8 69.05 15.8 69.0 21.15 71.95 21.15 71.85 23.85 66.6 23.8 66.85 7.25 71.9 7.3 72.0 9.85 M75.7 9.35 L75.7 15.55 Q76.55 15.5 76.95 15.1 77.4 14.65 77.5 12.7 77.5 10.85 77.3 10.3 76.95 9.1 75.7 9.35 M77.55 7.4 Q79.7 8.0 79.9 12.95 79.8 15.85 78.35 17.05 L80.45 23.7 78.15 24.0 76.25 17.9 75.7 17.95 75.7 23.85 73.35 23.8 73.4 7.4 75.45 7.25 77.55 7.4 M63.95 4.25 L66.2 4.55 64.05 15.65 64.1 23.9 61.75 23.85 61.75 16.7 59.05 4.45 61.5 4.45 62.85 11.35 63.95 4.25 M57.0 7.2 L59.3 23.5 57.1 23.6 56.8 21.25 54.75 21.3 54.5 24.05 52.15 24.05 54.15 7.45 57.0 7.2 M48.3 7.3 L48.3 21.3 51.55 21.0 51.6 23.55 46.0 23.8 46.1 7.25 48.3 7.3 M42.9 17.2 Q41.7 17.95 40.45 17.95 L40.45 23.85 38.1 23.8 38.15 7.4 40.2 7.25 40.45 7.25 42.55 7.65 Q44.6 8.5 44.65 12.95 44.5 16.05 42.9 17.2 M42.25 12.7 Q42.25 10.85 42.05 10.3 41.55 9.35 40.45 9.35 L40.45 15.55 Q41.3 15.5 41.7 15.1 42.15 14.65 42.25 12.7 M55.55 13.35 L55.0 18.95 56.45 18.95 55.55 13.35 M32.5 9.8 L30.5 9.8 30.45 23.85 28.1 23.75 28.15 9.8 26.05 9.75 26.1 7.15 32.35 7.15 32.5 9.8 M35.9 7.25 L36.1 24.0 33.85 24.05 33.65 7.25 35.9 7.25 M25.05 21.0 L25.1 23.55 19.5 23.8 19.6 7.25 21.8 7.3 21.8 21.3 25.05 21.0 M17.9 7.2 L18.35 14.75 18.35 16.4 18.35 16.8 Q18.35 23.5 15.1 23.8 L14.6 23.85 Q12.65 23.85 11.9 22.15 11.25 20.15 11.25 16.15 L11.25 15.35 11.3 15.35 11.25 14.3 Q11.25 11.7 11.65 7.65 L14.0 7.8 Q13.6 12.45 13.7 15.35 13.65 18.7 13.85 19.8 14.0 20.85 14.8 21.1 15.6 21.2 15.8 19.75 L16.05 15.6 15.65 7.35 17.9 7.2 M9.55 7.15 L10.2 23.85 8.0 24.0 7.65 15.45 6.65 21.65 4.65 21.9 3.35 15.15 3.1 23.95 0.8 23.95 1.35 7.15 4.15 7.2 5.55 15.55 6.8 7.2 9.55 7.15" fill="#672208" fill-rule="evenodd" stroke="none"/>
  </g>
</svg>
