<?xml version="1.0" encoding="UTF-8" standalone="no"?>
<svg xmlns:ffdec="https://www.free-decompiler.com/flash" xmlns:xlink="http://www.w3.org/1999/xlink" ffdec:objectType="shape" height="37.25px" width="108.0px" xmlns="http://www.w3.org/2000/svg">
  <g transform="matrix(1.0, 0.0, 0.0, 1.0, 15.4, 0.0)">
    <path d="M-10.1 2.85 L58.8 2.85 67.4 2.1 70.85 2.3 63.65 2.85 78.55 2.85 83.5 3.65 85.35 3.65 Q88.2 4.1 89.55 4.8 L88.5 24.75 86.4 25.55 Q87.75 25.9 88.7 26.5 L89.65 29.95 89.7 31.65 89.55 32.35 89.7 32.35 Q89.45 34.9 86.9 35.75 L77.55 36.1 67.1 36.0 54.8 35.55 43.9 35.4 7.5 35.85 -12.15 35.25 -12.4 35.15 Q-13.3 34.5 -13.4 33.4 L-13.45 31.95 -13.6 31.85 -13.7 31.55 -14.3 29.4 -14.5 28.65 -14.6 28.25 -14.85 26.55 -14.95 26.15 Q-15.2 23.6 -15.05 20.8 L-15.05 20.35 -14.85 18.3 -15.2 18.3 -14.85 18.25 -14.8 18.25 -14.8 18.05 -14.8 17.85 -14.75 16.9 -14.6 16.9 -14.6 16.7 -14.6 16.45 -14.35 14.8 -14.3 14.8 -14.3 14.35 -13.3 10.05 -13.25 10.05 -13.15 9.65 -13.05 9.65 -12.35 7.0 -11.65 5.7 -11.8 5.7 -11.65 5.4 -11.5 5.3 Q-11.35 3.65 -10.1 2.85 M-12.05 35.35 L-11.8 35.5 -12.25 35.25 -12.05 35.35" fill="#000000" fill-opacity="0.2" fill-rule="evenodd" stroke="none"/>
    <path d="M75.5 33.25 L75.5 33.3 75.25 33.3 75.25 33.25 75.5 33.25 M64.3 33.05 L56.85 32.8 56.85 0.8 64.3 0.8 64.3 33.05" fill="url(#gradient0)" fill-rule="evenodd" stroke="none"/>
    <path d="M56.85 32.8 L54.95 32.7 42.85 32.55 -3.25 33.2 -7.55 33.15 -7.55 0.8 56.85 0.8 56.85 32.8" fill="url(#gradient1)" fill-rule="evenodd" stroke="none"/>
    <path d="M82.9 0.8 L87.4 0.8 Q89.05 1.3 89.8 1.95 L89.25 21.9 88.05 22.7 89.35 23.65 89.9 27.1 89.95 28.8 89.85 29.55 89.95 29.55 Q89.75 32.05 88.3 32.9 L82.9 33.3 82.9 0.8 M82.4 33.3 L81.85 33.3 81.05 33.3 82.4 33.3" fill="url(#gradient2)" fill-rule="evenodd" stroke="none"/>
    <path d="M82.9 33.3 L82.4 33.3 81.05 33.3 75.5 33.25 75.25 33.25 70.45 33.15 64.3 33.05 64.3 0.8 82.9 0.8 82.9 33.3" fill="url(#gradient3)" fill-rule="evenodd" stroke="none"/>
    <path d="M-7.55 33.15 L-12.95 32.3 Q-14.8 31.1 -14.4 30.25 L-14.55 29.2 Q-15.35 22.25 -15.35 17.0 -15.35 11.5 -14.55 5.1 L-14.4 3.85 -13.85 2.75 -13.3 1.75 Q-12.3 0.9 -9.65 0.75 L-9.65 0.8 -7.55 0.8 -7.55 33.15" fill="url(#gradient4)" fill-rule="evenodd" stroke="none"/>
    <path d="M88.05 1.75 L87.0 21.8 84.8 22.55 Q86.15 22.9 87.2 23.5 L88.2 27.0 Q88.75 31.0 85.3 32.05 L75.6 32.45 64.65 32.3 51.85 31.9 40.6 31.7 -2.55 32.4 Q-11.3 32.45 -14.35 30.9 L-14.55 29.2 Q-15.35 22.25 -15.35 17.0 -15.35 11.5 -14.55 5.05 L-14.35 3.25 -13.95 2.55 Q-13.85 0.8 -12.45 0.0 L79.85 0.0 Q85.95 0.65 88.05 1.75" fill="#c58c3f" fill-rule="evenodd" stroke="none"/>
    <path d="M-15.4 17.55 L-15.4 17.0 -15.3 15.45 Q-6.35 14.95 4.35 14.95 L37.85 16.6 Q51.35 18.25 51.5 20.5 51.35 22.8 37.85 24.4 24.05 26.1 4.35 26.1 -6.05 26.1 -14.95 25.65 L-15.05 23.95 Q-6.4 24.4 4.45 24.4 L32.75 23.35 Q44.95 22.3 44.8 20.75 44.95 19.15 32.75 18.1 L4.45 17.1 Q-6.5 17.1 -15.4 17.55" fill="url(#gradient5)" fill-rule="evenodd" stroke="none"/>
    <path d="M4.45 17.5 L32.4 18.5 Q43.5 19.45 43.6 20.75 43.5 22.0 32.4 22.95 L4.45 23.95 Q-6.4 23.95 -15.15 23.5 L-15.4 17.95 Q-6.6 17.5 4.45 17.5" fill="url(#gradient6)" fill-rule="evenodd" stroke="none"/>
    <path d="M-14.4 31.0 L-14.6 29.3 Q-3.0 29.85 8.4 29.65 21.8 29.45 46.05 25.95 64.55 23.25 86.0 23.25 L86.55 23.25 87.25 23.65 88.25 27.15 Q88.9 31.1 85.4 32.2 L75.7 32.55 64.7 32.45 51.95 32.0 40.65 31.85 -2.45 32.5 -10.8 32.05 Q-13.15 31.65 -14.4 31.0" fill="url(#gradient7)" fill-rule="evenodd" stroke="none"/>
    <path d="M-15.3 15.05 L-15.3 14.05 8.15 13.3 Q27.8 13.3 48.9 16.85 65.55 19.6 87.2 19.75 L87.1 21.95 84.85 22.7 85.4 22.85 Q64.0 22.9 45.6 25.55 21.6 29.05 8.4 29.25 -3.0 29.4 -14.6 28.85 L-14.85 26.05 Q-6.15 26.5 4.35 26.5 L38.3 24.8 Q52.75 23.05 52.7 20.5 52.75 17.95 38.3 16.25 24.3 14.55 4.35 14.55 -6.35 14.55 -15.3 15.05 M-15.3 13.7 L-15.25 12.0 6.05 11.15 Q26.45 10.65 48.0 13.75 65.9 16.3 87.35 16.5 L87.25 19.35 Q65.9 19.25 49.45 16.45 28.05 12.9 8.15 12.9 L-15.3 13.7 M87.55 12.6 L62.55 11.65 Q51.35 10.8 51.15 9.8 51.35 8.7 62.55 7.9 L87.9 6.95 87.55 12.6" fill="#c58c3f" fill-rule="evenodd" stroke="none"/>
    <path d="M87.45 14.55 L56.65 12.85 Q43.35 11.45 43.25 9.6 43.35 7.75 56.65 6.35 L88.0 4.65 87.9 6.55 62.3 7.5 Q49.8 8.45 50.0 9.8 49.8 11.1 62.3 12.05 L87.55 13.05 87.45 14.55" fill="url(#gradient8)" fill-rule="evenodd" stroke="none"/>
    <path d="M-15.25 11.55 L-14.85 7.35 2.85 7.8 Q23.3 8.25 51.9 5.15 L88.1 2.65 88.0 4.25 56.3 5.95 Q41.9 7.45 42.1 9.6 41.9 11.7 56.3 13.2 L87.45 14.95 87.45 16.1 Q66.15 15.9 48.55 13.35 26.65 10.2 5.95 10.7 L-15.25 11.55" fill="url(#gradient9)" fill-rule="evenodd" stroke="none"/>
    <path d="M87.25 16.4 L87.55 16.4 Q65.9 16.2 47.85 13.65 26.3 10.55 5.9 11.05 L-15.2 11.85 -15.15 11.45 5.9 10.6 Q26.6 10.1 48.4 13.25 66.05 15.75 87.3 15.95 L87.25 16.4 M87.9 2.5 L51.9 5.0 Q23.25 8.1 2.8 7.7 L-14.8 7.25 -14.75 6.85 2.8 7.3 Q22.95 7.7 51.2 4.6 L88.05 2.1 87.9 2.5 M87.3 14.8 L56.05 13.1 Q41.65 11.55 41.85 9.45 41.65 7.4 56.05 5.85 L87.85 4.15 87.85 4.5 56.7 6.15 Q43.3 7.65 43.3 9.45 43.3 11.35 56.7 12.75 L87.3 14.45 87.3 14.8 M87.4 12.85 L62.05 11.85 Q49.55 10.95 49.75 9.65 49.55 8.35 62.05 7.4 L87.75 6.45 87.75 6.8 62.5 7.75 Q51.3 8.6 51.05 9.65 51.3 10.7 62.5 11.55 L87.45 12.55 87.4 12.85 M87.0 19.65 Q65.35 19.5 48.75 16.75 27.65 13.15 8.05 13.15 L-15.3 13.95 -15.25 13.5 8.05 12.75 Q27.95 12.75 49.3 16.35 65.75 19.1 87.1 19.25 L87.0 19.65 M86.4 23.1 Q64.55 23.1 45.9 25.8 21.7 29.35 8.35 29.55 -3.1 29.7 -14.55 29.2 L-14.65 28.75 Q-3.1 29.3 8.2 29.1 21.4 28.9 45.45 25.45 63.8 22.75 85.25 22.75 L86.4 23.1 M57.3 0.2 L62.2 0.2 51.45 1.3 Q22.8 4.4 1.75 3.5 L-14.25 2.85 -14.05 2.55 -13.95 2.45 1.85 3.1 Q22.5 3.95 50.75 0.9 L57.3 0.2 M44.7 20.6 Q44.8 22.2 32.6 23.2 L4.35 24.2 Q-6.4 24.2 -15.1 23.8 L-15.1 23.4 Q-6.4 23.85 4.35 23.85 L32.3 22.85 Q43.35 21.9 43.45 20.6 43.35 19.3 32.3 18.4 L4.35 17.4 Q-6.6 17.4 -15.35 17.85 L-15.35 17.4 Q-6.6 17.0 4.35 17.0 L32.6 18.0 Q44.8 19.05 44.7 20.6 M52.55 20.4 Q52.7 22.9 38.15 24.7 L4.3 26.4 Q-6.05 26.4 -14.9 25.95 L-14.9 25.55 Q-6.1 26.0 4.3 26.0 L37.8 24.3 Q51.3 22.65 51.35 20.4 51.3 18.1 37.8 16.5 23.85 14.8 4.3 14.8 -6.35 14.8 -15.3 15.3 L-15.3 14.9 Q-6.35 14.45 4.3 14.45 24.15 14.45 38.15 16.1 52.7 17.85 52.55 20.4" fill="#ae7528" fill-rule="evenodd" stroke="none"/>
    <path d="M70.6 8.3 L72.7 8.45 Q74.85 9.05 75.05 14.0 74.95 16.9 73.5 18.1 L75.6 24.75 73.3 25.05 71.4 18.95 70.85 19.0 70.85 24.9 68.5 24.85 68.55 8.45 70.6 8.3 M67.05 8.35 L67.15 10.9 64.25 10.95 64.2 14.2 66.5 14.25 66.45 16.85 64.2 16.85 64.15 22.2 67.1 22.2 67.0 24.9 61.75 24.85 62.0 8.3 67.05 8.35 M72.65 13.75 Q72.65 11.9 72.45 11.35 72.1 10.15 70.85 10.4 L70.85 16.6 Q71.7 16.55 72.1 16.15 72.55 15.7 72.65 13.75 M56.65 8.3 L58.0 14.2 59.1 8.15 61.35 8.4 59.2 17.9 59.25 24.95 56.9 24.9 56.9 18.8 54.2 8.3 56.65 8.3 M43.45 8.35 L43.45 22.35 46.7 22.05 46.75 24.6 41.15 24.85 41.25 8.3 43.45 8.35 M51.95 22.3 L49.9 22.35 49.65 25.1 47.3 25.1 49.3 8.5 52.15 8.25 54.45 24.55 52.25 24.65 51.95 22.3 M50.7 14.4 L50.15 20.0 51.6 20.0 50.7 14.4 M35.6 10.4 L35.6 16.6 Q36.45 16.55 36.85 16.15 37.3 15.7 37.4 13.75 37.4 11.9 37.2 11.35 36.7 10.4 35.6 10.4 M35.35 8.3 L35.6 8.3 37.7 8.7 Q39.75 9.55 39.8 14.0 39.65 17.1 38.05 18.25 36.85 19.0 35.6 19.0 L35.6 24.9 33.25 24.85 33.3 8.45 35.35 8.3 M27.5 8.2 L27.65 10.85 25.65 10.85 25.6 24.9 23.25 24.8 23.3 10.85 21.2 10.8 21.25 8.2 27.5 8.2 M31.05 8.3 L31.25 25.05 29.0 25.1 28.8 8.3 31.05 8.3 M16.95 8.35 L16.95 22.35 20.2 22.05 20.25 24.6 14.65 24.85 14.75 8.3 16.95 8.35 M13.05 8.25 L13.5 15.8 13.5 17.45 13.5 17.85 Q13.5 24.55 10.25 24.85 L9.75 24.9 Q7.8 24.9 7.05 23.2 6.4 21.2 6.4 17.2 L6.4 16.4 6.45 16.4 6.4 15.35 Q6.4 12.75 6.8 8.7 L9.15 8.85 Q8.75 13.5 8.85 16.4 8.8 19.75 9.0 20.85 9.15 21.9 9.95 22.15 10.75 22.25 10.95 20.8 L11.2 16.65 10.8 8.4 13.05 8.25 M4.7 8.2 L5.35 24.9 3.15 25.05 2.8 16.5 1.8 22.7 -0.2 22.95 -1.5 16.2 -1.75 25.0 -4.05 25.0 -3.5 8.2 -0.7 8.25 0.7 16.6 1.95 8.25 4.7 8.2" fill="#672208" fill-rule="evenodd" stroke="none"/>
    <path d="M89.65 5.85 Q90.95 9.1 87.6 14.25 M51.25 28.0 L43.2 32.55" fill="none" stroke="#461407" stroke-linecap="round" stroke-linejoin="round" stroke-width="1.0"/>
    <path d="M86.0 6.75 Q90.0 17.55 91.5 25.65 71.25 30.85 53.85 36.55 49.7 27.45 48.35 17.45 59.2 13.55 71.35 11.0 L86.0 6.75" fill="#e7b872" fill-rule="evenodd" stroke="none"/>
    <path d="M86.7 5.9 L86.8 6.0 92.55 25.75 92.5 26.1 82.7 29.6 Q72.9 33.0 61.6 35.35 L53.35 37.25 Q48.5 26.35 47.35 17.45 51.9 15.45 58.6 13.5 65.15 11.45 75.75 8.55 L86.45 5.7 86.7 5.9 M86.0 6.75 L71.35 11.0 Q59.2 13.55 48.35 17.45 49.7 27.45 53.85 36.55 71.25 30.85 91.5 25.65 90.0 17.55 86.0 6.75" fill="#3a0d01" fill-rule="evenodd" stroke="none"/>
    <path d="M76.75 12.6 L76.95 13.25 76.35 13.4 77.2 16.1 77.8 15.95 78.0 16.7 75.8 17.4 75.6 16.65 76.15 16.4 75.35 13.7 74.8 13.9 74.55 13.25 76.75 12.6 M72.75 13.75 L73.9 13.4 75.2 17.55 74.1 17.85 73.3 15.05 73.1 17.1 72.4 17.3 71.1 15.7 71.9 18.5 70.95 18.85 69.75 14.65 70.9 14.3 72.4 16.05 72.75 13.75 M68.55 17.25 L68.35 16.65 68.0 16.2 67.7 16.1 67.3 16.15 66.95 16.3 66.75 16.6 66.65 17.2 66.7 17.75 67.0 18.45 67.3 18.8 Q67.5 19.0 67.75 19.0 L68.05 18.95 68.4 18.75 68.6 18.4 68.75 17.9 68.55 17.25 M69.6 18.7 Q69.2 19.45 68.25 19.75 L66.65 19.55 Q65.95 19.15 65.65 18.1 65.4 17.1 65.8 16.35 66.1 15.6 67.05 15.35 L68.7 15.5 Q69.45 15.9 69.7 16.95 69.95 17.95 69.6 18.7 M85.4 11.25 L85.35 11.3 85.05 11.2 84.75 11.1 84.3 11.05 83.9 11.15 83.4 11.35 83.15 11.75 Q83.0 11.9 83.0 12.2 L83.1 12.85 Q83.35 13.55 83.85 13.8 84.3 14.0 84.95 13.8 L85.05 13.8 85.15 13.75 84.9 12.95 84.2 13.15 83.85 12.45 85.6 11.85 86.35 13.9 85.75 14.35 84.85 14.7 83.2 14.65 Q82.45 14.25 82.1 13.15 81.75 12.2 82.2 11.5 82.5 10.75 83.45 10.45 L84.35 10.3 85.1 10.4 85.4 11.25 M80.9 11.35 L82.25 15.45 81.2 15.75 78.75 13.3 79.65 16.2 78.75 16.5 77.4 12.4 78.65 11.95 80.7 13.95 79.9 11.65 80.9 11.35 M86.6 16.8 L88.6 22.75 87.25 23.2 83.6 19.7 85.0 23.95 83.7 24.35 81.75 18.35 83.45 17.8 86.4 20.65 85.25 17.25 86.6 16.8 M62.0 17.5 Q62.4 16.75 63.3 16.5 L63.75 16.35 64.2 16.3 64.5 16.35 64.75 16.4 65.05 17.4 65.0 17.4 64.75 17.3 64.4 17.2 64.05 17.15 63.7 17.25 63.3 17.35 63.0 17.7 62.8 18.25 Q62.75 18.6 62.85 18.95 L63.15 19.6 63.55 20.0 64.05 20.05 64.45 20.05 64.8 19.85 65.1 19.6 65.3 19.25 65.45 19.1 65.55 19.1 65.8 20.1 Q65.7 20.15 65.55 20.3 L65.3 20.5 64.9 20.75 64.45 20.95 62.8 20.8 Q62.1 20.3 61.8 19.25 L61.7 18.6 Q61.7 17.95 62.0 17.5 M67.7 22.6 L68.7 22.65 69.1 24.05 68.95 24.1 68.0 23.8 66.95 23.95 66.6 24.0 66.35 24.3 66.15 24.6 66.15 24.8 66.4 25.2 67.1 25.25 67.75 25.25 68.3 25.2 69.45 25.55 70.0 26.45 Q70.25 27.45 69.75 28.25 L68.0 29.35 66.75 29.6 65.7 29.55 65.3 28.0 65.45 28.0 66.55 28.3 67.7 28.3 68.0 28.05 68.3 27.85 68.55 27.6 68.55 27.25 68.2 26.85 67.75 26.8 67.15 26.85 66.45 26.85 Q65.65 26.8 65.25 26.5 64.85 26.15 64.7 25.5 64.4 24.65 64.95 23.9 65.6 23.1 66.6 22.8 L67.7 22.6 M78.45 20.4 L78.0 20.6 77.7 21.1 77.6 21.8 77.8 22.75 78.2 23.7 78.7 24.2 79.2 24.45 79.75 24.4 80.2 24.15 80.5 23.65 80.6 22.9 80.4 22.0 80.0 21.0 79.5 20.55 79.0 20.3 78.45 20.4 M81.85 21.55 Q82.35 23.0 81.85 24.1 81.4 25.15 80.1 25.6 78.8 26.0 77.7 25.3 76.8 24.7 76.3 23.25 75.85 21.85 76.35 20.65 76.8 19.65 78.1 19.25 L80.4 19.45 Q81.35 20.05 81.85 21.55 M73.85 22.95 L73.45 22.45 72.9 22.2 72.3 22.25 71.9 22.5 71.6 23.05 71.5 23.75 71.65 24.7 Q71.75 25.3 72.0 25.6 L72.45 26.2 73.0 26.4 73.55 26.3 74.0 26.1 74.3 25.6 74.45 24.85 74.25 23.9 73.85 22.95 M75.75 23.45 Q76.2 24.9 75.7 26.05 75.25 27.15 73.85 27.55 L71.5 27.3 Q70.55 26.65 70.1 25.2 69.7 23.75 70.15 22.6 70.65 21.5 72.0 21.1 73.3 20.7 74.3 21.35 75.3 21.95 75.75 23.45" fill="#3a0d01" fill-rule="evenodd" stroke="none"/>
    <path d="M51.25 21.2 Q50.65 19.05 52.55 18.55 L57.85 17.15 Q59.75 16.65 60.3 18.75 L63.4 30.15 Q63.95 32.2 62.05 32.7 L56.8 34.1 Q54.85 34.6 54.3 32.55 L51.25 21.2" fill="#3a0d01" fill-rule="evenodd" stroke="none"/>
    <path d="M59.8 19.7 L62.5 29.25 54.75 31.45 52.05 21.9 59.8 19.7" fill="#aaa8a6" fill-rule="evenodd" stroke="none"/>
    <path d="M59.9 30.8 L60.25 31.25 60.3 31.55 60.25 32.0 59.85 32.35 59.4 32.5 58.9 32.35 58.55 32.0 58.5 31.7 Q58.4 31.45 58.55 31.15 58.7 30.95 58.95 30.9 L59.4 30.75 59.9 30.8" fill="#aaa8a6" fill-rule="evenodd" stroke="none"/>
  </g>
  <defs>
    <linearGradient gradientTransform="matrix(0.0646, 0.0, 0.0, 0.0208, 38.55, 16.25)" gradientUnits="userSpaceOnUse" id="gradient0" spreadMethod="pad" x1="-819.2" x2="819.2">
      <stop offset="0.0" stop-color="#231204"/>
      <stop offset="0.5568627450980392" stop-color="#4f2909"/>
      <stop offset="1.0" stop-color="#7e491e"/>
    </linearGradient>
    <linearGradient gradientTransform="matrix(0.0692, 0.0, 0.0, 0.0208, 37.25, 16.25)" gradientUnits="userSpaceOnUse" id="gradient1" spreadMethod="pad" x1="-819.2" x2="819.2">
      <stop offset="0.0" stop-color="#231204"/>
      <stop offset="0.5568627450980392" stop-color="#4f2909"/>
      <stop offset="1.0" stop-color="#7e491e"/>
    </linearGradient>
    <linearGradient gradientTransform="matrix(0.0358, 0.0, 0.0, 0.0208, 60.6, 16.25)" gradientUnits="userSpaceOnUse" id="gradient2" spreadMethod="pad" x1="-819.2" x2="819.2">
      <stop offset="0.0" stop-color="#231204"/>
      <stop offset="0.5568627450980392" stop-color="#4f2909"/>
      <stop offset="1.0" stop-color="#7e491e"/>
    </linearGradient>
    <linearGradient gradientTransform="matrix(0.1098, 0.0, 0.0, 0.0208, 20.6, 16.25)" gradientUnits="userSpaceOnUse" id="gradient3" spreadMethod="pad" x1="-819.2" x2="819.2">
      <stop offset="0.0" stop-color="#231204"/>
      <stop offset="0.5568627450980392" stop-color="#4f2909"/>
      <stop offset="1.0" stop-color="#7e491e"/>
    </linearGradient>
    <linearGradient gradientTransform="matrix(0.055, 0.0, 0.0, 0.0208, 28.05, 16.25)" gradientUnits="userSpaceOnUse" id="gradient4" spreadMethod="pad" x1="-819.2" x2="819.2">
      <stop offset="0.0" stop-color="#231204"/>
      <stop offset="0.5568627450980392" stop-color="#4f2909"/>
      <stop offset="1.0" stop-color="#7e491e"/>
    </linearGradient>
    <linearGradient gradientTransform="matrix(0.0421, 0.0019, -0.0031, 0.0069, 16.5, 20.2)" gradientUnits="userSpaceOnUse" id="gradient5" spreadMethod="pad" x1="-819.2" x2="819.2">
      <stop offset="0.0" stop-color="#b17536"/>
      <stop offset="1.0" stop-color="#ce9744"/>
    </linearGradient>
    <linearGradient gradientTransform="matrix(0.0252, 0.0088, -0.0098, 0.0028, 12.9, 20.5)" gradientUnits="userSpaceOnUse" id="gradient6" spreadMethod="pad" x1="-819.2" x2="819.2">
      <stop offset="0.0" stop-color="#b17536"/>
      <stop offset="1.0" stop-color="#ce9744"/>
    </linearGradient>
    <linearGradient gradientTransform="matrix(-0.1698, 0.0115, -0.0039, -0.0067, 49.2, 20.05)" gradientUnits="userSpaceOnUse" id="gradient7" spreadMethod="pad" x1="-819.2" x2="819.2">
      <stop offset="0.0" stop-color="#b17536"/>
      <stop offset="1.0" stop-color="#ce9744"/>
    </linearGradient>
    <linearGradient gradientTransform="matrix(0.0468, 0.0, 0.0, 0.006, 56.3, 9.45)" gradientUnits="userSpaceOnUse" id="gradient8" spreadMethod="pad" x1="-819.2" x2="819.2">
      <stop offset="0.0" stop-color="#b17536"/>
      <stop offset="1.0" stop-color="#ce9744"/>
    </linearGradient>
    <linearGradient gradientTransform="matrix(0.1455, -0.0056, 0.0027, 0.0081, -0.95, 10.85)" gradientUnits="userSpaceOnUse" id="gradient9" spreadMethod="pad" x1="-819.2" x2="819.2">
      <stop offset="0.0" stop-color="#b17536"/>
      <stop offset="1.0" stop-color="#ce9744"/>
    </linearGradient>
  </defs>
</svg>
