<?xml version="1.0" encoding="UTF-8" standalone="no"?>
<svg xmlns:ffdec="https://www.free-decompiler.com/flash" xmlns:xlink="http://www.w3.org/1999/xlink" ffdec:objectType="shape" height="265.7px" width="194.95px" xmlns="http://www.w3.org/2000/svg">
  <g transform="matrix(1.0, 0.0, 0.0, 1.0, -13.0, 17.7)">
    <path d="M195.3 -14.1 L205.5 -2.2 207.45 241.4 15.9 241.3 Q15.55 192.75 16.75 144.05 L16.75 -1.85 32.35 -15.05 50.8 -14.0 195.3 -14.1 M114.45 97.65 Q114.45 98.25 114.75 98.75 115.25 99.75 116.5 99.75 117.5 99.75 118.15 98.9 118.75 98.15 118.75 97.5 118.75 95.45 116.6 95.45 114.45 95.45 114.45 97.65" fill="#744431" fill-rule="evenodd" stroke="none"/>
    <path d="M114.45 97.65 Q114.45 95.45 116.6 95.45 118.75 95.45 118.75 97.5 118.75 98.15 118.15 98.9 117.5 99.75 116.5 99.75 115.25 99.75 114.75 98.75 114.45 98.25 114.45 97.65" fill="#85523e" fill-rule="evenodd" stroke="none"/>
    <path d="M197.6 97.4 L195.9 98.0 Q196.55 97.25 197.6 97.4 M79.75 102.85 L79.95 102.7 78.35 104.25 78.2 104.2 79.75 102.85 M113.95 103.1 L113.75 103.05 Q118.25 99.7 122.75 98.05 L122.7 98.2 Q122.4 99.1 120.95 101.05 L120.8 100.9 117.6 104.2 114.15 103.15 114.1 102.9 113.95 103.1 M67.25 97.25 L67.15 97.35 67.05 97.35 67.25 97.25 M30.9 83.3 L30.7 83.25 32.65 80.85 31.3 82.8 30.9 83.3 M110.6 98.5 L110.55 98.45 107.25 102.1 107.2 101.75 106.7 102.3 106.45 102.3 105.2 102.35 Q108.05 99.8 110.95 97.95 L110.8 98.1 110.6 98.5 M85.4 98.75 Q87.45 97.45 89.25 96.6 L89.3 96.75 Q88.65 98.3 86.35 101.45 L83.95 103.85 82.75 105.1 79.9 104.65 85.4 98.75 M195.35 -14.1 L205.55 -2.15 206.3 90.5 Q205.0 88.95 203.2 88.15 L203.3 87.75 203.2 87.2 202.8 87.15 201.9 87.65 200.9 87.45 204.2 83.2 204.1 82.8 204.0 82.9 Q202.05 84.4 199.4 87.25 L196.4 87.35 199.95 82.35 Q198.4 83.35 195.2 87.45 L191.25 88.25 192.5 86.7 197.9 79.85 197.8 79.4 197.7 79.45 Q195.55 81.5 190.1 87.85 L189.3 88.8 187.35 89.45 195.8 78.6 Q194.1 79.75 191.25 83.25 L186.8 88.75 185.75 90.0 181.65 91.7 182.6 90.55 193.5 77.2 Q188.45 82.15 181.9 90.3 L180.35 92.25 Q175.45 94.5 169.65 97.7 L170.0 97.3 180.3 85.8 176.05 90.2 181.05 83.55 167.6 97.65 166.3 98.95 160.4 100.8 161.75 98.8 166.05 93.6 170.45 88.15 Q166.5 91.55 161.4 98.05 L158.9 101.25 155.6 102.25 156.8 100.95 172.0 85.7 Q165.95 89.85 153.3 102.9 L151.2 103.5 150.85 103.6 155.55 96.6 Q154.1 98.2 151.8 101.7 L150.55 103.7 147.0 104.7 147.25 104.4 155.7 95.85 155.65 95.75 Q154.0 96.5 150.9 99.35 L146.3 103.9 145.05 105.2 141.5 106.05 142.6 105.0 Q148.75 98.55 148.75 97.95 L148.65 97.45 148.55 97.6 Q145.05 100.45 138.95 106.7 L133.35 107.85 135.4 105.9 Q141.9 99.75 141.9 98.95 141.9 98.55 141.7 98.5 L141.4 98.45 Q138.7 100.75 131.75 107.45 L132.85 104.25 132.8 104.2 133.2 103.5 133.05 103.0 132.6 102.9 131.9 103.6 131.7 103.5 129.9 105.6 127.0 108.6 126.65 108.6 Q125.6 108.6 124.05 107.75 L124.25 107.4 123.9 106.9 123.85 106.75 127.85 102.35 127.4 101.95 Q125.1 103.7 122.15 106.55 L120.55 105.6 122.45 103.9 Q127.15 99.75 134.35 97.45 L134.25 97.3 Q134.1 96.9 132.6 96.9 128.9 96.9 124.85 100.05 L123.5 101.2 124.8 99.2 121.25 102.8 122.7 100.95 Q123.95 99.15 123.95 97.65 L123.85 96.75 Q121.25 97.3 118.35 98.8 L118.8 97.55 Q118.8 95.45 116.65 95.45 114.5 95.45 114.5 97.65 114.5 98.3 114.75 98.8 115.3 99.75 116.55 99.75 L113.45 101.7 112.1 102.75 109.45 102.4 Q112.15 98.5 112.15 97.45 L112.1 97.0 111.7 96.95 Q109.75 97.9 107.05 100.05 L104.1 102.4 103.5 102.45 Q106.5 97.9 106.5 97.2 L106.45 96.65 106.4 96.75 Q104.1 97.25 102.35 98.8 L102.6 98.9 Q104.7 97.2 106.15 97.05 L106.15 97.3 101.6 102.65 97.85 103.2 102.6 98.35 Q99.7 100.15 96.05 103.55 L95.65 103.65 95.55 103.6 95.5 103.65 94.8 103.8 93.15 104.1 94.3 102.2 Q99.2 97.55 99.2 96.85 L99.1 96.45 99.05 96.6 96.2 98.85 96.9 97.45 96.7 96.95 96.5 97.0 Q95.4 98.1 93.6 101.15 L89.7 104.8 86.2 105.25 85.95 105.25 86.55 104.65 85.65 104.95 84.9 105.2 86.7 102.9 92.3 96.85 92.3 96.6 89.5 98.6 90.2 96.65 90.05 96.05 Q89.7 95.75 88.95 95.75 86.8 95.75 80.55 100.85 L77.1 103.7 77.0 103.65 75.4 102.75 76.9 100.5 77.2 100.0 77.35 99.9 80.25 97.35 77.45 99.7 Q79.95 95.75 80.7 93.6 78.35 95.6 74.55 101.6 L74.3 102.0 74.0 101.75 73.85 100.15 73.6 101.5 71.9 100.1 71.6 99.9 73.0 98.75 71.6 99.1 74.55 95.6 74.4 94.95 Q72.4 96.45 70.0 98.8 L69.9 98.75 70.7 97.65 74.3 92.6 73.85 92.2 Q72.2 93.8 68.85 98.15 L68.4 97.95 Q68.8 97.05 70.55 94.9 L72.9 91.85 72.8 91.45 72.5 91.45 Q70.85 93.0 67.6 96.85 L67.6 96.6 67.15 96.6 66.65 96.75 66.65 96.6 67.45 95.4 68.85 93.45 68.7 92.95 68.2 92.9 65.0 96.6 65.2 96.25 Q65.65 95.6 65.7 94.8 65.75 93.9 64.85 93.75 L63.3 95.4 63.25 95.35 62.5 95.95 61.85 95.8 61.95 95.6 61.75 95.75 61.0 95.65 63.0 93.1 66.35 88.7 66.25 88.3 66.2 88.4 Q64.15 89.55 60.0 94.7 L59.5 95.4 56.75 95.1 57.85 94.05 Q62.05 90.0 64.6 87.9 61.05 89.8 55.7 95.05 L55.0 95.0 55.8 93.8 55.5 93.9 57.6 91.2 Q56.5 91.7 53.5 94.95 L52.5 94.95 58.75 88.45 58.6 88.15 Q56.25 89.9 51.7 94.3 L51.15 94.9 50.25 94.8 Q52.55 91.05 55.8 87.2 54.75 87.9 50.8 93.15 L49.7 94.65 49.0 94.55 50.75 92.6 Q50.05 92.95 48.4 94.4 L46.5 93.45 50.8 88.6 50.5 88.15 Q48.5 89.7 45.5 92.85 L44.5 91.85 48.75 86.6 48.45 86.6 44.3 90.95 44.5 90.7 43.6 91.05 43.3 90.7 43.9 89.9 Q48.6 84.65 48.6 84.05 L48.45 83.65 48.25 83.7 42.35 89.85 42.2 89.6 42.7 87.95 41.5 88.95 41.45 88.85 40.6 88.05 44.7 81.7 39.75 86.6 43.85 82.1 38.9 86.75 Q36.7 85.1 34.0 84.15 L37.6 80.45 37.45 80.25 33.3 83.95 31.6 83.45 32.2 82.4 Q34.45 78.75 36.25 76.4 33.95 77.85 30.9 81.7 L29.8 83.1 25.1 82.75 Q19.05 82.75 16.8 84.3 L16.8 -1.85 32.4 -15.0 50.85 -14.0 195.35 -14.1" fill="#85523e" fill-rule="evenodd" stroke="none"/>
    <path d="M176.2 -13.95 Q193.8 -19.6 200.7 -4.8 202.65 -0.55 203.25 4.25 205.0 18.35 204.6 23.7 204.2 29.0 202.85 25.6 202.2 23.95 198.15 24.65 197.35 26.0 195.75 26.8 192.65 28.4 193.1 26.0 L192.4 26.2 Q188.9 31.35 183.15 33.55 182.65 33.7 182.85 33.1 183.25 31.25 184.05 29.5 L181.8 30.4 Q179.15 33.35 177.05 36.8 174.1 41.4 170.1 41.05 169.4 41.05 169.45 40.2 166.45 44.05 164.2 41.05 L163.9 41.15 Q147.95 47.95 131.55 52.45 L129.2 53.35 Q121.9 56.35 115.8 52.2 L107.9 51.8 98.25 52.65 97.1 52.6 Q88.8 50.85 80.9 47.15 L80.8 47.1 Q75.0 45.6 69.4 43.75 66.9 45.75 63.9 45.15 L63.5 44.65 Q63.25 44.35 63.15 43.85 63.1 43.2 63.4 42.65 L63.45 41.95 Q60.8 43.5 58.85 40.9 58.4 40.25 58.3 39.55 L54.05 37.75 Q52.55 37.9 52.05 36.8 L51.1 36.35 Q48.95 38.2 46.25 38.1 44.95 38.1 45.35 36.65 L46.1 33.9 45.65 33.65 44.45 33.05 40.7 33.15 Q40.35 32.9 40.3 32.5 40.2 31.7 40.65 31.0 L40.75 30.85 39.5 30.0 38.8 30.05 Q38.1 30.1 37.7 29.6 37.35 29.15 37.5 28.55 L33.9 25.65 Q31.8 26.55 30.2 25.2 29.6 24.6 29.45 23.8 L29.4 23.45 29.4 23.1 29.4 22.85 Q27.05 22.85 25.3 20.9 L24.75 20.3 24.55 19.95 24.05 19.25 23.65 18.65 23.35 17.95 Q19.7 18.4 17.75 15.45 L17.65 15.15 17.5 11.45 17.4 6.55 Q17.0 -0.45 20.0 -6.45 22.7 -12.0 27.3 -15.2 L27.9 -14.9 28.5 -14.25 28.95 -13.65 29.3 -13.0 29.4 -12.65 Q99.5 -12.45 169.6 -12.85 172.55 -12.85 175.45 -13.7 L176.2 -13.95" fill="#936653" fill-rule="evenodd" stroke="none"/>
    <path d="M18.55 18.55 L21.45 13.95 Q24.15 9.65 23.05 14.95 21.95 20.25 18.55 18.55 18.1 18.55 17.7 17.35 16.5 13.85 16.3 12.6 14.5 1.9 18.9 -6.15 19.55 -7.25 20.65 -8.35 25.2 -12.95 30.15 -16.3 L190.55 -16.15 194.0 -12.2 197.85 -8.0 Q197.55 -7.95 203.55 -3.05 202.45 0.85 205.15 5.45 201.05 -0.45 191.85 -7.5 L190.05 -7.55 189.75 -7.7 189.2 -7.6 183.8 -7.7 183.8 -7.75 179.0 -7.9 178.95 -7.85 175.2 -7.9 175.2 -7.95 167.7 -8.05 149.4 -9.05 141.15 -8.5 138.3 -8.6 136.0 -8.35 Q120.3 -6.55 104.8 -9.05 L81.0 -9.2 71.15 -8.65 65.95 -9.25 31.75 -9.25 31.4 -9.1 31.2 -8.75 31.0 -8.4 Q30.25 -6.8 27.5 -4.35 24.7 -1.85 23.4 -1.4 L22.3 -1.05 22.35 -1.1 22.3 -1.2 22.3 -1.05 22.05 1.55 Q21.85 4.1 19.1 16.15 L18.55 18.55 M183.25 -8.7 Q182.2 -8.25 183.7 -8.05 L183.25 -8.7" fill="#85523e" fill-rule="evenodd" stroke="none"/>
    <path d="M195.3 -15.9 L196.85 -13.85 26.8 -13.85 26.8 -15.9 195.3 -15.9 M196.85 -12.15 L196.85 -11.65 26.8 -11.65 26.8 -12.15 196.85 -12.15 M26.8 -17.35 L26.8 -17.7 194.1 -17.7 194.3 -17.35 26.8 -17.35" fill="#6e727b" fill-rule="evenodd" stroke="none"/>
    <path d="M194.7 -16.8 L195.3 -15.9 26.8 -15.9 26.8 -17.35 194.3 -17.35 194.5 -17.05 27.2 -17.05 27.2 -16.8 194.7 -16.8" fill="#9498a1" fill-rule="evenodd" stroke="none"/>
    <path d="M194.5 -17.05 L194.7 -16.8 27.2 -16.8 27.2 -17.05 194.5 -17.05" fill="#e7e7e7" fill-rule="evenodd" stroke="none"/>
    <path d="M196.85 -13.85 L196.85 -12.15 26.8 -12.15 26.8 -13.85 196.85 -13.85" fill="#494c54" fill-rule="evenodd" stroke="none"/>
    <path d="M26.55 -17.15 L26.35 -17.55 14.15 -4.2 13.4 -3.0 13.15 -1.55 13.0 248.0 13.6 248.0 13.85 3.8 13.85 -3.0 13.95 -3.05 14.2 -3.35 16.9 -6.65 24.7 -15.3 26.55 -17.15 M15.0 248.0 L16.4 248.0 16.85 3.8 16.95 -2.25 16.85 -2.4 27.65 -13.55 28.35 -13.55 27.05 -16.0 22.15 -10.55 15.2 -2.8 15.2 3.8 15.0 248.0 M18.8 -1.0 L19.4 -1.8 28.65 -11.75 28.45 -11.75 28.45 -11.8 28.15 -11.95 18.5 -1.85 18.45 -1.9 18.45 -1.8 18.45 -1.7 18.45 -1.55 18.85 -1.35 18.95 -1.4 18.85 -1.25 18.95 -1.3 18.8 -1.0 M16.8 -2.15 L16.8 -2.25 16.9 -2.2 16.8 -2.15" fill="#6e727b" fill-rule="evenodd" stroke="none"/>
    <path d="M16.8 -2.15 L16.9 -2.2 16.8 -2.25 16.8 -2.15" fill="#60646b" fill-rule="evenodd" stroke="none"/>
    <path d="M16.4 248.0 L17.95 248.0 18.45 -1.55 18.45 -1.7 18.35 -1.6 16.95 -2.25 16.85 3.8 16.4 248.0" fill="#57595d" fill-rule="evenodd" stroke="none"/>
    <path d="M27.05 -16.0 Q27.4 -16.35 27.0 -16.1 L26.7 -16.8 23.3 -13.15 14.45 -3.2 14.2 -3.35 13.95 -3.05 13.85 -3.0 13.85 3.8 13.6 248.0 15.0 248.0 15.2 3.8 15.2 -2.8 22.15 -10.55 27.05 -16.0 M17.95 248.0 L18.45 248.0 18.8 -1.0 18.85 -1.25 18.95 -1.4 18.85 -1.35 18.45 -1.55 17.95 248.0 M18.45 -1.8 L18.35 -1.6 18.45 -1.7 18.45 -1.8" fill="#9498a1" fill-rule="evenodd" stroke="none"/>
    <path d="M26.7 -16.8 L26.55 -17.15 24.7 -15.3 16.9 -6.65 14.2 -3.35 14.45 -3.2 23.3 -13.15 26.7 -16.8" fill="#e7e7e7" fill-rule="evenodd" stroke="none"/>
    <path d="M28.45 -11.8 L28.6 -12.1 28.95 -12.25 28.35 -13.55 27.65 -13.55 16.85 -2.4 16.95 -2.25 18.35 -1.6 18.45 -1.8 18.45 -1.9 18.5 -1.85 28.15 -11.95 28.45 -11.8" fill="#4d525d" fill-rule="evenodd" stroke="none"/>
    <path d="M194.45 -17.15 L194.65 -17.55 206.85 -4.2 207.6 -3.0 207.85 -1.55 207.55 31.8 207.15 3.8 207.15 -3.0 207.05 -3.05 206.8 -3.35 204.1 -6.65 196.3 -15.3 194.45 -17.15 M206.0 248.0 L204.6 248.0 204.15 3.8 204.05 -2.25 204.15 -2.4 193.35 -13.55 192.65 -13.55 193.95 -16.0 198.85 -10.55 205.8 -2.8 205.8 3.8 206.0 248.0 M202.2 -1.0 L201.6 -1.8 192.35 -11.75 192.55 -11.75 192.55 -11.8 192.85 -11.95 202.5 -1.85 202.55 -1.9 202.55 -1.8 202.55 -1.7 202.55 -1.55 202.15 -1.35 202.05 -1.4 202.15 -1.25 202.05 -1.3 202.2 -1.0 M204.2 -2.15 L204.2 -2.25 204.1 -2.2 204.2 -2.15" fill="#6e727b" fill-rule="evenodd" stroke="none"/>
    <path d="M204.2 -2.15 L204.1 -2.2 204.2 -2.25 204.2 -2.15" fill="#60646b" fill-rule="evenodd" stroke="none"/>
    <path d="M204.6 248.0 L203.05 248.0 202.55 -1.55 202.55 -1.7 202.65 -1.6 204.05 -2.25 204.15 3.8 204.6 248.0" fill="#57595d" fill-rule="evenodd" stroke="none"/>
    <path d="M193.95 -16.0 Q193.6 -16.35 194.0 -16.1 L194.3 -16.8 197.7 -13.15 206.55 -3.2 206.8 -3.35 207.05 -3.05 207.15 -3.0 207.15 3.8 207.55 31.8 207.55 41.15 207.95 248.0 206.0 248.0 205.8 3.8 205.8 -2.8 198.85 -10.55 193.95 -16.0 M203.05 248.0 L202.55 248.0 202.2 -1.0 202.15 -1.25 202.05 -1.4 202.15 -1.35 202.55 -1.55 203.05 248.0 M202.55 -1.8 L202.65 -1.6 202.55 -1.7 202.55 -1.8" fill="#9498a1" fill-rule="evenodd" stroke="none"/>
    <path d="M194.3 -16.8 L194.45 -17.15 196.3 -15.3 204.1 -6.65 206.8 -3.35 206.55 -3.2 197.7 -13.15 194.3 -16.8" fill="#e7e7e7" fill-rule="evenodd" stroke="none"/>
    <path d="M192.55 -11.8 L192.4 -12.1 192.05 -12.25 192.65 -13.55 193.35 -13.55 204.15 -2.4 204.05 -2.25 202.65 -1.6 202.55 -1.8 202.55 -1.9 202.5 -1.85 192.85 -11.95 192.55 -11.8" fill="#4d525d" fill-rule="evenodd" stroke="none"/>
    <path d="M47.2 33.85 Q46.75 35.15 46.55 36.55 46.45 37.9 45.55 38.5 44.45 37.55 44.9 35.75 L45.65 33.0 Q46.0 31.75 46.8 31.25 47.85 32.25 47.2 33.85" fill="#936653" fill-rule="evenodd" stroke="none"/>
    <path d="M46.8 20.95 Q46.95 21.3 46.7 21.35 L46.15 21.35 46.15 21.15 46.15 20.8 46.25 20.7 46.25 20.6 46.3 20.55 46.4 20.55 46.45 20.55 46.8 20.95" fill="#936653" fill-rule="evenodd" stroke="none"/>
    <path d="M53.65 12.9 L53.3 14.15 52.6 15.1 Q51.45 15.15 51.45 13.95 51.5 13.0 52.25 12.5 52.65 12.2 53.1 12.1 53.9 12.3 53.65 12.9" fill="#936653" fill-rule="evenodd" stroke="none"/>
    <path d="M168.0 39.55 L168.3 39.65 168.4 39.85 168.6 40.15 168.6 40.6 168.45 41.1 168.35 41.2 168.1 41.4 167.95 41.5 166.95 41.35 166.85 41.15 166.7 40.85 166.55 40.4 166.7 39.95 166.85 39.8 166.95 39.6 167.3 39.5 167.6 39.4 168.0 39.55" fill="#936653" fill-rule="evenodd" stroke="none"/>
    <path d="M43.75 19.55 Q43.4 19.95 43.2 20.5 42.95 21.0 42.45 21.05 42.2 20.65 42.55 20.2 L43.1 19.25 43.55 18.75 43.75 18.7 Q44.15 19.05 43.75 19.55" fill="#936653" fill-rule="evenodd" stroke="none"/>
    <path d="M35.05 66.35 L35.45 66.45 35.8 66.75 36.0 67.1 35.5 68.8 35.15 71.05 Q35.05 72.2 34.25 72.9 L33.65 72.75 33.5 72.65 33.25 72.35 33.2 72.2 33.4 70.45 33.4 68.25 Q33.5 66.7 34.8 66.35 L35.05 66.35" fill="#936653" fill-rule="evenodd" stroke="none"/>
    <path d="M154.9 31.15 L154.55 31.35 153.55 31.35 153.4 31.2 153.4 31.05 154.25 30.75 154.45 30.6 Q155.2 30.65 154.9 31.15" fill="#85523e" fill-rule="evenodd" stroke="none"/>
    <path d="M179.8 134.1 L179.5 135.2 Q179.45 135.7 179.0 135.7 178.55 135.5 178.65 135.0 L178.75 134.1 179.0 133.45 179.1 133.3 179.2 133.2 179.35 133.2 179.4 133.15 Q180.0 133.45 179.8 134.1" fill="#936653" fill-rule="evenodd" stroke="none"/>
    <path d="M62.35 24.95 L61.25 26.6 60.3 27.75 Q60.3 26.9 60.7 26.1 L61.4 24.35 Q61.75 23.5 62.35 23.05 63.05 23.85 62.35 24.95" fill="#726346" fill-rule="evenodd" stroke="none"/>
    <path d="M105.45 31.85 Q104.95 32.15 104.3 31.65 103.7 31.15 102.85 30.8 101.75 30.35 102.3 29.75 L103.55 30.4 104.75 31.0 Q105.35 31.35 105.45 31.85" fill="#85523e" fill-rule="evenodd" stroke="none"/>
    <path d="M115.25 31.75 Q114.8 32.5 114.5 33.3 L113.7 34.35 Q113.6 33.7 113.9 33.0 L114.45 31.65 114.95 30.45 115.1 30.4 115.15 30.35 115.3 30.35 115.3 30.25 Q115.85 30.85 115.25 31.75" fill="#85523e" fill-rule="evenodd" stroke="none"/>
    <path d="M46.9 34.65 L46.7 35.1 46.3 35.45 46.4 35.1 46.55 34.55 46.75 34.1 46.9 34.05 Q47.25 34.3 46.9 34.65" fill="#936653" fill-rule="evenodd" stroke="none"/>
    <path d="M45.15 18.5 L45.35 18.7 Q45.7 19.15 45.7 19.7 45.6 20.4 45.15 20.9 L44.2 21.9 44.15 21.95 43.4 21.6 42.9 21.0 42.85 20.7 Q42.85 20.25 43.2 19.95 L43.95 18.95 Q44.2 18.45 44.8 18.4 L45.15 18.5" fill="#936653" fill-rule="evenodd" stroke="none"/>
    <path d="M176.55 31.35 L176.8 31.5 Q176.9 33.85 176.45 36.15 L175.4 41.05 174.35 44.85 Q173.2 43.05 173.95 39.9 L174.9 34.65 Q175.1 32.45 176.2 31.2 L176.55 31.35" fill="#936653" fill-rule="evenodd" stroke="none"/>
    <path d="M159.65 34.8 Q159.7 35.35 159.1 35.5 158.65 35.45 158.6 35.05 L158.5 34.35 158.6 33.5 158.75 33.3 158.95 33.15 159.1 33.1 159.35 32.95 Q160.05 33.15 159.8 33.75 159.6 34.2 159.65 34.8" fill="#85523e" fill-rule="evenodd" stroke="none"/>
    <path d="M180.4 41.25 Q180.35 41.7 179.9 41.85 179.35 42.0 179.2 41.45 L179.2 41.3 179.45 41.0 179.75 40.7 179.95 40.65 Q180.5 40.75 180.4 41.25" fill="#936653" fill-rule="evenodd" stroke="none"/>
    <path d="M67.4 24.2 L67.0 25.35 Q66.9 26.05 66.25 26.0 65.95 25.45 66.25 24.9 L66.85 23.75 Q67.15 23.15 67.65 23.05 67.8 23.55 67.4 24.2" fill="#a39373" fill-rule="evenodd" stroke="none"/>
    <path d="M111.6 22.45 Q111.3 22.9 111.35 23.45 111.35 24.05 110.9 24.25 110.4 24.05 110.45 23.35 110.6 22.65 110.9 22.1 111.15 21.55 111.75 21.5 112.1 21.9 111.6 22.45" fill="#a39373" fill-rule="evenodd" stroke="none"/>
    <path d="M142.7 25.9 L142.4 26.6 Q142.05 26.55 141.95 26.15 L141.9 25.45 Q141.85 24.85 142.45 24.8 L142.45 24.7 Q143.05 24.7 142.85 25.2 L142.7 25.9" fill="#a39373" fill-rule="evenodd" stroke="none"/>
    <path d="M178.05 44.85 Q177.65 45.7 177.4 46.7 177.1 47.55 176.45 47.85 176.0 47.05 176.4 46.1 L177.05 44.35 Q177.2 43.4 177.95 43.1 178.6 43.7 178.05 44.85" fill="#936653" fill-rule="evenodd" stroke="none"/>
    <path d="M40.2 65.4 L40.85 62.15 Q41.1 60.55 42.4 60.2 42.9 60.95 42.9 61.85 L42.7 63.0 42.0 66.05 Q41.85 67.5 41.05 68.5 40.0 67.65 40.0 66.4 L40.2 65.4" fill="#936653" fill-rule="evenodd" stroke="none"/>
    <path d="M186.2 88.65 L186.9 88.9 187.35 89.2 187.6 89.45 187.75 90.4 187.65 91.85 Q187.4 92.8 186.6 93.3 L186.35 93.5 Q184.85 93.8 184.3 92.25 183.85 90.95 184.4 89.85 184.8 89.05 185.7 88.8 L186.2 88.65" fill="#936653" fill-rule="evenodd" stroke="none"/>
    <path d="M177.5 113.65 L177.9 113.7 Q178.25 113.75 178.55 113.95 L179.1 114.5 179.4 115.05 179.35 115.3 179.25 115.6 179.05 115.9 178.4 116.5 176.6 116.05 176.05 115.6 176.0 115.3 176.0 115.05 176.05 114.75 176.45 114.25 Q177.0 113.7 177.5 113.65" fill="#936653" fill-rule="evenodd" stroke="none"/>
    <path d="M151.0 118.6 L151.75 118.9 152.4 119.4 Q152.8 119.8 152.75 120.25 L152.65 120.6 152.55 120.9 152.15 121.45 151.65 121.95 150.4 121.7 149.7 121.25 Q149.3 120.9 149.35 120.35 L149.35 120.1 149.5 119.5 Q149.85 119.0 150.45 118.75 L151.0 118.6" fill="#936653" fill-rule="evenodd" stroke="none"/>
    <path d="M184.5 76.3 L185.05 76.85 185.35 77.4 185.4 77.7 185.2 78.25 184.2 79.05 182.85 78.95 182.65 78.7 182.5 78.35 182.3 77.75 182.25 77.2 182.35 76.9 182.65 76.6 182.95 76.35 183.35 76.15 183.8 76.0 184.5 76.3" fill="#936653" fill-rule="evenodd" stroke="none"/>
    <path d="M38.2 25.55 L38.6 25.9 38.7 26.1 38.85 26.4 Q38.5 27.75 37.5 28.9 36.55 29.95 36.0 31.2 35.2 33.05 33.55 32.15 32.8 30.95 33.65 29.65 L35.15 27.45 Q36.15 25.9 37.6 25.3 L38.2 25.55" fill="#936653" fill-rule="evenodd" stroke="none"/>
    <path d="M174.5 17.9 L174.35 17.55 Q174.0 17.05 174.15 16.4 174.35 15.7 175.0 15.4 L175.45 15.2 176.75 15.5 178.55 15.8 Q179.65 15.7 180.65 16.25 L181.15 16.7 Q181.15 17.3 180.7 17.7 L179.75 18.5 Q177.7 20.1 175.2 18.8 L174.5 17.9" fill="#936653" fill-rule="evenodd" stroke="none"/>
    <path d="M51.4 118.6 L52.15 118.9 52.8 119.4 53.15 120.25 53.05 120.6 52.95 120.9 52.55 121.45 52.05 121.95 50.8 121.7 50.1 121.25 Q49.7 120.9 49.75 120.35 L49.75 120.1 49.9 119.5 Q50.25 119.0 50.85 118.75 L51.4 118.6" fill="#936653" fill-rule="evenodd" stroke="none"/>
    <path d="M195.9 -8.05 L196.3 -0.75 Q194.95 5.3 194.95 44.75 194.95 57.25 195.35 59.55 195.75 61.75 195.75 63.2 L195.35 70.35 Q195.0 75.5 195.0 78.3 L195.3 88.8 195.7 99.3 196.25 115.8 196.6 129.15 Q196.6 134.8 195.05 154.0 193.6 172.5 193.7 178.85 L192.3 178.75 182.85 177.65 165.6 178.35 148.9 179.1 145.35 178.5 143.2 177.85 Q142.35 177.85 140.55 178.5 L138.5 179.1 133.45 178.15 129.15 177.1 126.95 177.95 124.0 178.75 Q101.6 178.75 93.55 178.25 L84.25 177.7 78.15 178.1 59.85 179.35 48.5 180.1 41.6 175.85 36.45 173.05 Q34.95 172.5 32.35 168.7 29.75 164.9 29.8 159.25 29.85 153.6 29.0 147.45 L28.65 145.15 28.65 144.8 28.65 131.5 26.4 90.05 24.1 49.95 Q25.0 9.65 25.3 8.1 25.7 5.95 25.7 3.5 L25.4 1.4 25.1 -0.7 25.15 -6.3 27.15 -6.15 36.3 -6.9 56.15 -5.35 80.9 -3.85 91.05 -4.35 97.75 -4.8 103.7 -4.2 122.25 -3.55 157.4 -5.8 195.9 -8.05" fill="#150d01" fill-opacity="0.34117648" fill-rule="evenodd" stroke="none"/>
    <path d="M31.9 153.8 L29.5 150.3 29.15 146.2 Q29.25 142.4 30.3 138.05 L30.7 136.05 Q31.7 130.25 31.15 124.0 28.65 100.35 28.45 76.25 29.55 75.8 29.6 74.85 31.1 74.25 31.4 73.65 30.35 73.0 28.4 72.85 28.2 60.0 26.85 46.95 27.0 26.85 27.7 6.6 28.5 3.6 28.4 0.4 L28.15 -2.35 27.8 -3.75 Q28.05 -6.15 27.9 -8.5 L27.85 -9.35 29.65 -9.2 52.9 -8.15 63.05 -7.7 70.05 -7.35 Q82.25 -6.65 83.1 -7.0 L85.1 -7.45 93.3 -7.35 100.35 -7.55 115.75 -6.75 Q129.0 -6.4 137.85 -7.1 L152.5 -8.75 193.7 -11.1 194.0 -10.05 194.0 -9.9 Q194.9 -10.9 195.35 -10.55 L195.55 -10.05 194.75 -5.55 194.75 -5.25 194.25 -2.9 Q193.4 0.95 193.3 3.45 192.35 29.15 192.9 54.6 193.9 59.85 193.15 66.55 192.45 73.35 192.9 80.9 L194.0 118.05 194.25 126.25 Q193.7 133.25 193.3 142.4 192.45 162.65 191.85 167.75 L191.35 174.0 191.45 176.05 190.7 176.05 190.45 175.9 190.1 175.9 181.05 174.75 180.9 174.75 177.15 175.1 160.45 176.1 160.3 176.1 159.7 176.1 157.05 176.1 148.4 176.3 147.6 176.3 Q145.9 175.25 143.55 175.1 140.45 174.7 138.65 176.3 L137.3 176.3 Q134.85 175.35 132.4 174.75 127.35 173.5 123.8 175.95 L110.15 175.2 99.55 175.0 99.05 175.0 94.8 175.0 91.2 175.2 91.1 175.2 Q83.7 174.25 74.0 175.9 L51.85 177.3 47.6 172.25 Q48.1 172.25 49.45 173.5 50.85 174.75 53.6 175.05 56.35 175.4 62.65 173.85 L77.8 173.35 93.05 172.7 Q100.15 171.45 107.4 171.45 112.75 171.45 117.85 172.8 L123.05 173.3 Q126.15 172.8 129.15 171.55 133.75 169.45 138.45 171.55 L143.7 171.75 Q147.55 170.15 151.3 172.2 L151.55 172.2 154.3 171.75 Q158.1 169.15 161.6 171.1 L168.9 172.0 Q173.95 173.1 175.85 172.65 177.85 172.2 178.35 171.75 L184.1 171.15 188.1 171.35 Q187.85 160.7 189.45 149.8 190.4 142.95 188.1 137.2 186.8 134.0 188.25 134.15 189.7 134.4 189.8 121.55 189.95 108.6 191.45 101.25 193.05 94.1 191.1 83.6 189.1 73.05 189.55 57.4 189.65 46.35 189.25 35.5 188.8 26.0 190.0 16.45 191.05 5.5 190.75 -5.05 169.1 -6.4 152.3 -5.4 142.85 -4.7 133.1 -4.85 127.15 -4.9 121.45 -2.65 117.95 -1.25 114.05 -1.05 102.65 -0.3 85.3 -3.25 L80.1 -4.15 Q69.65 -2.65 58.9 -4.9 L48.55 -4.4 Q45.0 -4.2 45.0 -6.2 43.3 -4.35 40.1 -4.75 37.15 -5.05 34.15 -4.65 L31.9 -4.55 Q32.3 6.8 30.95 16.05 30.8 16.55 30.95 17.5 33.3 36.85 32.2 48.5 31.2 58.95 31.15 72.1 33.55 72.2 33.85 73.55 33.85 75.15 30.55 77.75 33.4 89.6 32.15 104.4 31.9 117.85 33.85 122.8 35.85 127.75 33.85 130.25 31.85 132.75 31.8 146.7 L31.9 153.8" fill="#b8802a" fill-rule="evenodd" stroke="none"/>
    <path d="M31.9 153.8 L31.8 146.7 Q31.85 132.75 33.85 130.25 35.85 127.75 33.85 122.8 31.9 117.85 32.15 104.4 33.4 89.6 30.55 77.75 33.85 75.15 33.85 73.55 33.55 72.2 31.15 72.1 31.2 58.95 32.2 48.5 33.3 36.85 30.95 17.5 30.8 16.55 30.95 16.05 32.3 6.8 31.9 -4.55 L34.15 -4.65 Q37.15 -5.05 40.1 -4.75 43.3 -4.35 45.0 -6.2 45.0 -4.2 48.55 -4.4 L58.9 -4.9 Q69.65 -2.65 80.1 -4.15 L85.3 -3.25 Q102.65 -0.3 114.05 -1.05 117.95 -1.25 121.45 -2.65 127.15 -4.9 133.1 -4.85 142.85 -4.7 152.3 -5.4 169.1 -6.4 190.75 -5.05 191.05 5.5 190.0 16.45 188.8 26.0 189.25 35.5 189.65 46.35 189.55 57.4 189.1 73.05 191.1 83.6 193.05 94.1 191.45 101.25 189.95 108.6 189.8 121.55 189.7 134.4 188.25 134.15 186.8 134.0 188.1 137.2 190.4 142.95 189.45 149.8 187.85 160.7 188.1 171.35 L184.1 171.15 178.35 171.75 Q177.85 172.2 175.85 172.65 173.95 173.1 168.9 172.0 L161.6 171.1 Q158.1 169.15 154.3 171.75 L151.55 172.2 151.3 172.2 Q147.55 170.15 143.7 171.75 L138.45 171.55 Q133.75 169.45 129.15 171.55 126.15 172.8 123.05 173.3 L117.85 172.8 Q112.75 171.45 107.4 171.45 100.15 171.45 93.05 172.7 L77.8 173.35 62.65 173.85 Q56.35 175.4 53.6 175.05 50.85 174.75 49.45 173.5 48.1 172.25 47.6 172.25 L46.15 170.65 43.5 167.7 51.7 168.3 Q58.15 169.05 62.6 164.2 77.0 169.65 85.9 166.35 94.9 163.0 116.65 166.35 138.35 169.8 149.85 165.95 161.35 162.05 167.65 167.5 169.4 168.8 181.75 166.6 182.5 165.55 183.05 164.05 183.25 162.6 182.7 144.75 182.1 126.6 184.85 120.35 187.75 114.0 187.75 97.0 187.75 79.9 184.3 64.05 180.7 48.2 185.55 20.45 190.15 -7.7 181.5 -1.2 L158.65 0.25 Q141.15 0.7 139.65 5.6 L124.85 3.95 Q114.0 2.95 102.6 4.25 91.15 5.55 61.3 2.2 31.4 -1.2 33.75 4.85 36.15 11.0 36.95 19.75 37.05 21.7 36.8 23.45 L36.35 24.7 Q35.65 25.95 35.35 27.25 34.6 30.0 34.4 32.7 36.8 37.35 38.25 42.6 L38.45 43.8 Q38.85 54.55 37.4 64.7 35.9 75.05 35.4 86.0 L33.7 100.9 Q35.6 104.95 36.25 109.1 37.5 116.5 38.3 124.25 39.0 130.75 41.4 136.6 43.3 140.9 40.9 144.65 L37.65 149.4 Q37.85 151.5 38.6 153.1 40.55 157.95 39.4 163.4 L36.5 160.3 31.9 153.8" fill="#cdae4f" fill-rule="evenodd" stroke="none"/>
    <path d="M194.0 -10.05 L193.7 -11.1 194.0 -11.1 194.0 -10.05 M39.4 163.4 Q40.55 157.95 38.6 153.1 37.85 151.5 37.65 149.4 L40.9 144.65 Q43.3 140.9 41.4 136.6 39.0 130.75 38.3 124.25 37.5 116.5 36.25 109.1 35.6 104.95 33.7 100.9 L35.4 86.0 Q35.9 75.05 37.4 64.7 38.85 54.55 38.45 43.8 L38.25 42.6 Q36.8 37.35 34.4 32.7 34.6 30.0 35.35 27.25 35.65 25.95 36.35 24.7 L36.8 23.45 Q37.05 21.7 36.95 19.75 36.15 11.0 33.75 4.85 31.4 -1.2 61.3 2.2 91.15 5.55 102.6 4.25 114.0 2.95 124.85 3.95 L139.65 5.6 Q141.15 0.7 158.65 0.25 L181.5 -1.2 Q190.15 -7.7 185.55 20.45 180.7 48.2 184.3 64.05 187.75 79.9 187.75 97.0 187.75 114.0 184.85 120.35 182.1 126.6 182.7 144.75 183.25 162.6 183.05 164.05 182.5 165.55 181.75 166.6 169.4 168.8 167.65 167.5 161.35 162.05 149.85 165.95 138.35 169.8 116.65 166.35 94.9 163.0 85.9 166.35 77.0 169.65 62.6 164.2 58.15 169.05 51.7 168.3 L43.5 167.7 39.4 163.4" fill="#dec884" fill-rule="evenodd" stroke="none"/>
    <path d="M47.15 150.2 Q44.7 153.9 51.3 176.65 32.55 171.45 29.15 152.65 31.3 152.9 30.35 150.25 L47.15 150.2" fill="#382c05" fill-opacity="0.30980393" fill-rule="evenodd" stroke="none"/>
    <path d="M52.5 177.7 Q29.95 174.25 29.1 149.05 35.85 154.65 42.95 151.95 41.25 161.55 52.2 176.85 L52.5 177.7" fill="#cdae4f" fill-rule="evenodd" stroke="none"/>
    <path d="M36.5 152.65 L36.15 153.05 36.3 152.6 36.5 152.65 M46.9 168.4 L46.5 168.45 46.75 168.2 46.9 168.4" fill="#cdae4f" fill-rule="evenodd" stroke="none"/>
    <path d="M52.5 177.7 Q29.15 174.1 28.9 147.4 29.75 149.6 31.0 150.45 L31.0 151.9 Q31.0 153.45 31.35 155.4 L31.3 156.75 Q31.3 162.05 33.95 165.7 35.5 167.9 37.65 168.95 39.35 170.55 41.55 171.6 L42.0 171.95 Q45.15 173.95 47.5 173.65 48.75 173.45 49.4 172.65 L52.2 176.85 52.5 177.7" fill="#a36d1b" fill-rule="evenodd" stroke="none"/>
  </g>
</svg>
