<?xml version="1.0" encoding="UTF-8" standalone="no"?>
<svg xmlns:ffdec="https://www.free-decompiler.com/flash" xmlns:xlink="http://www.w3.org/1999/xlink" ffdec:objectType="shape" height="16.35px" width="349.9px" xmlns="http://www.w3.org/2000/svg">
  <g transform="matrix(1.0, 0.0, 0.0, 1.0, 166.9, 0.0)">
    <path d="M172.1 4.3 Q188.6 7.8 180.1 15.5 L179.1 16.35 -154.9 16.35 -156.1 15.5 -160.1 12.95 Q-173.7 4.85 -160.05 6.15 -146.4 7.4 -139.85 5.0 L-129.4 0.95 Q-125.55 -0.7 -123.55 1.75 -121.6 4.2 -117.15 4.2 L-108.75 2.25 Q-100.9 0.3 -98.9 0.3 -96.95 0.3 -94.1 2.15 L-90.3 4.9 Q-88.3 6.6 -84.2 5.9 L-73.5 1.9 Q-63.6 -1.8 -61.7 1.7 L-60.1 3.45 Q-57.05 5.95 -53.7 7.05 L-50.1 7.75 -48.6 7.8 Q-45.3 7.8 -38.7 4.7 -32.15 1.55 -28.55 1.55 -24.75 1.55 -19.75 4.7 L-14.85 7.85 Q-10.45 7.85 -5.85 5.65 -1.25 3.4 1.0 3.4 3.4 3.4 5.2 4.3 9.7 5.25 12.35 6.55 21.9 6.9 27.05 5.0 L37.5 0.95 Q41.35 -0.7 43.35 1.75 45.3 4.2 49.75 4.2 L58.15 2.25 Q66.0 0.3 68.0 0.3 69.95 0.3 72.8 2.15 L76.6 4.9 Q78.35 6.35 81.65 6.05 L82.7 5.9 93.4 1.9 Q103.3 -1.8 105.2 1.7 L106.8 3.45 Q109.85 5.95 113.2 7.05 L116.8 7.75 118.3 7.8 Q121.6 7.8 128.2 4.7 134.75 1.55 138.35 1.55 142.15 1.55 147.15 4.7 L152.05 7.85 Q156.45 7.85 161.05 5.65 165.65 3.4 167.9 3.4 170.3 3.4 172.1 4.3" fill="#5fa8ff" fill-opacity="0.9882353" fill-rule="evenodd" stroke="none"/>
  </g>
</svg>
