<?xml version="1.0" encoding="UTF-8" standalone="no"?>
<svg xmlns:ffdec="https://www.free-decompiler.com/flash" xmlns:xlink="http://www.w3.org/1999/xlink" ffdec:objectType="shape" height="55.4px" width="50.8px" xmlns="http://www.w3.org/2000/svg">
  <g transform="matrix(1.0, 0.0, 0.0, 1.0, -463.8, -355.65)">
    <path d="M513.25 355.85 L513.4 355.65 496.8 382.45 489.45 383.25 513.25 355.85" fill="#a68e69" fill-rule="evenodd" stroke="none"/>
    <path d="M463.95 361.45 L489.2 383.25 489.05 375.8 489.0 375.8 489.0 375.7 513.25 355.85 489.45 383.25 496.8 382.45 497.0 382.35 514.45 405.2 489.2 383.35 489.2 383.55 489.2 383.6 489.15 383.35 489.15 383.3 489.3 387.2 489.35 390.8 489.35 390.95 465.1 410.9 488.9 383.3 481.55 384.25 481.4 384.25 463.95 361.45" fill="#562f0f" fill-rule="evenodd" stroke="none"/>
    <path d="M463.95 361.45 L463.8 361.35 489.0 375.8 489.05 375.8 489.2 383.25 463.95 361.45 M514.45 405.2 L514.6 405.3 489.35 390.8 489.3 387.2 489.2 383.55 489.2 383.35 514.45 405.2 M465.1 410.9 L464.95 411.05 481.55 384.25 488.9 383.3 465.1 410.9" fill="#af8858" fill-rule="evenodd" stroke="none"/>
  </g>
</svg>
