<?xml version="1.0" encoding="UTF-8" standalone="no"?>
<svg xmlns:ffdec="https://www.free-decompiler.com/flash" xmlns:xlink="http://www.w3.org/1999/xlink" ffdec:objectType="shape" height="15.2px" width="15.15px" xmlns="http://www.w3.org/2000/svg">
  <g transform="matrix(1.0, 0.0, 0.0, 1.0, -100.45, -98.75)">
    <path d="M110.8 108.25 L110.1 108.25 108.9 108.05 108.9 108.0 110.95 107.85 110.8 108.25" fill="#562907" fill-rule="evenodd" stroke="none"/>
    <path d="M107.7 101.65 L107.05 102.3 107.0 101.85 107.05 101.4 107.15 101.35 Q105.6 100.7 104.55 103.3 103.75 105.25 103.75 106.5 103.75 107.7 105.0 108.9 106.5 110.4 108.6 110.4 114.45 110.4 114.45 106.4 114.45 105.3 112.8 103.55 110.75 101.4 108.05 101.4 107.8 101.4 107.7 101.65 M107.25 101.05 Q111.05 101.05 113.2 102.95 115.05 104.6 115.05 106.9 115.05 108.1 113.9 109.3 112.15 110.95 108.55 110.95 105.7 110.95 104.25 108.95 103.2 107.7 103.2 106.5 103.2 101.05 107.25 101.05" fill="#562907" fill-rule="evenodd" stroke="none"/>
    <path d="M108.6 101.15 Q106.75 101.8 105.15 103.15 103.5 104.5 103.65 105.4 L103.55 105.6 103.1 105.1 103.0 106.2 Q103.0 107.7 104.3 109.45 106.1 111.9 109.15 111.9 111.9 111.9 113.5 108.95 L114.5 105.95 Q114.5 104.6 113.4 103.2 111.8 101.1 108.6 101.0 L108.6 101.15 M103.65 109.85 Q102.3 107.95 102.3 106.15 102.3 101.25 108.5 100.25 110.95 99.9 112.7 100.85 114.6 101.9 114.6 104.3 L115.0 105.95 Q115.0 107.5 114.0 109.45 112.35 112.6 109.15 112.6 105.55 112.6 103.65 109.85" fill="#562907" fill-rule="evenodd" stroke="none"/>
    <path d="M107.25 101.4 L105.95 101.15 Q104.3 101.15 103.45 103.9 103.0 105.3 102.65 107.45 102.3 106.4 102.3 104.45 102.3 102.9 103.7 101.65 105.35 100.25 107.25 101.35 L107.25 101.4" fill="#562907" fill-rule="evenodd" stroke="none"/>
    <path d="M105.85 99.75 Q103.9 101.25 102.95 103.55 102.05 105.85 102.7 107.6 L102.7 107.8 Q102.0 106.1 102.0 104.55 102.0 98.25 108.6 98.8 111.2 99.05 113.15 100.4 115.25 101.75 115.25 103.45 114.45 109.1 111.75 109.45 112.5 108.85 113.6 106.25 114.6 103.9 114.6 103.4 114.6 102.45 112.7 101.0 110.8 99.5 109.65 99.5 L105.85 99.75" fill="#562907" fill-rule="evenodd" stroke="none"/>
    <path d="M106.6 100.5 L106.15 101.05 Q106.85 98.95 109.3 99.35 111.15 99.6 112.8 100.85 113.85 101.8 114.05 102.6 L114.15 104.25 114.15 105.35 113.7 106.95 113.35 107.05 113.5 104.5 Q113.65 103.3 113.15 102.2 112.1 100.15 109.0 100.15 107.15 100.15 106.6 100.5" fill="#562907" fill-rule="evenodd" stroke="none"/>
    <path d="M109.55 100.25 Q105.05 98.95 103.4 102.55 102.6 104.3 102.65 106.5 102.65 107.45 104.05 108.95 105.5 110.5 106.7 110.95 L106.7 111.1 106.35 111.3 Q101.9 108.85 101.9 106.5 101.8 103.95 102.7 101.95 104.5 98.05 109.65 99.95 L109.55 100.25" fill="#562907" fill-rule="evenodd" stroke="none"/>
    <path d="M102.2 103.45 Q102.65 102.6 104.3 101.55 L103.0 103.9 Q102.65 104.5 102.65 105.65 102.65 106.45 103.2 108.05 103.7 109.7 104.3 110.75 L104.0 110.8 Q102.85 110.8 102.2 108.25 L101.9 105.65 Q101.9 104.05 102.2 103.45" fill="#562907" fill-rule="evenodd" stroke="none"/>
    <path d="M102.55 102.1 L101.6 106.4 Q101.6 107.0 102.95 109.15 L104.3 111.3 102.1 108.95 Q101.0 107.45 101.0 106.4 101.0 105.55 101.55 103.9 102.1 102.15 102.45 101.9 L102.55 102.1" fill="#562907" fill-rule="evenodd" stroke="none"/>
    <path d="M115.35 104.45 L115.6 106.35 Q115.6 108.8 114.45 109.85 L114.05 109.85 Q115.0 107.55 115.0 105.95 L114.6 102.65 114.8 102.55 115.35 104.45" fill="#562907" fill-rule="evenodd" stroke="none"/>
    <path d="M112.95 112.1 Q112.05 112.65 111.0 112.65 L110.75 112.6 Q111.05 112.3 111.7 112.05 112.4 111.75 112.85 112.05 L112.95 112.1" fill="#562907" fill-rule="evenodd" stroke="none"/>
    <path d="M109.85 113.15 L109.95 113.1 110.0 113.4 Q110.0 113.95 108.5 113.95 L106.9 113.7 106.5 113.15 106.9 113.35 107.45 113.5 109.85 113.15" fill="#562907" fill-rule="evenodd" stroke="none"/>
    <path d="M102.15 109.45 Q103.1 111.2 104.7 112.3 L104.7 112.4 Q103.45 112.7 102.05 110.45 100.85 108.5 100.85 107.6 100.85 106.9 101.35 106.6 101.3 107.95 102.15 109.45" fill="#562907" fill-rule="evenodd" stroke="none"/>
    <path d="M101.5 101.65 Q101.1 102.4 101.2 102.85 L101.0 103.0 100.8 102.45 Q100.8 102.05 101.1 101.4 101.5 100.6 101.9 100.6 L101.5 101.65" fill="#562907" fill-rule="evenodd" stroke="none"/>
    <path d="M101.2 103.4 Q101.0 103.65 101.0 103.15 101.0 101.8 101.85 100.8 103.1 99.35 105.8 99.15 103.15 99.5 102.15 101.05 101.65 101.9 101.2 103.4" fill="#562907" fill-rule="evenodd" stroke="none"/>
    <path d="M101.2 107.6 L100.8 107.6 Q100.45 106.15 100.45 105.6 100.45 104.9 101.0 103.25 101.6 101.5 102.1 101.05 100.4 104.05 101.2 107.6" fill="#562907" fill-rule="evenodd" stroke="none"/>
    <path d="M111.85 109.7 Q112.0 108.55 112.55 107.3 L112.95 105.65 112.9 103.55 Q112.7 102.35 111.85 101.35 L112.05 101.15 Q113.7 102.4 113.7 106.9 L113.5 108.3 112.25 109.85 111.85 109.7" fill="#562907" fill-rule="evenodd" stroke="none"/>
    <path d="M108.85 109.4 Q108.85 110.15 108.1 110.15 107.55 110.15 107.45 109.9 L107.4 109.45 Q107.4 108.75 108.1 108.75 108.85 108.75 108.85 109.4" fill="#dec884" fill-rule="evenodd" stroke="none"/>
  </g>
</svg>
