<?xml version="1.0" encoding="UTF-8" standalone="no"?>
<svg xmlns:ffdec="https://www.free-decompiler.com/flash" xmlns:xlink="http://www.w3.org/1999/xlink" ffdec:objectType="shape" height="121.2px" width="328.3px" xmlns="http://www.w3.org/2000/svg">
  <g transform="matrix(1.0, 0.0, 0.0, 1.0, 164.15, 60.6)">
    <path d="M34.6 -30.55 L34.65 -30.55 34.8 -30.45 Q40.4 -28.1 45.65 -23.65 L45.7 -23.6 45.75 -23.7 45.9 -23.85 45.95 -23.95 50.35 -29.2 50.45 -29.3 50.45 -29.35 Q74.9 -57.25 103.95 -54.9 L106.1 -55.1 106.3 -55.1 106.35 -55.1 Q137.05 -50.75 153.85 -26.85 L153.95 -26.7 154.0 -26.6 154.05 -26.55 Q158.4 -20.35 161.8 -12.8 L161.85 -12.65 161.8 -12.45 162.3 -10.25 162.3 -10.15 162.3 -10.1 Q172.3 37.2 128.95 60.6 169.55 35.8 158.45 -9.4 L157.8 -11.25 Q155.15 -18.6 151.0 -24.6 136.85 -44.95 105.45 -50.4 76.25 -54.55 52.2 -27.7 L47.75 -22.4 47.6 -22.15 47.55 -22.15 45.25 -19.2 43.25 -21.55 Q38.95 -26.15 33.6 -28.15 22.35 -32.5 6.45 -25.4 L5.2 -29.9 5.2 -30.0 5.05 -30.4 5.0 -30.55 Q-3.2 -55.5 -30.95 -57.3 L-31.0 -57.3 -31.05 -57.3 -32.0 -57.15 -34.7 -56.75 -38.25 -56.1 Q-47.95 -53.65 -56.75 -43.5 L-57.2 -43.0 -58.55 -41.4 -61.4 -43.5 -63.65 -45.0 Q-94.45 -65.55 -125.25 -50.6 L-125.5 -50.45 Q-132.8 -46.95 -140.05 -41.4 -154.6 -26.35 -158.55 -11.1 L-159.4 -6.95 Q-164.5 24.5 -124.2 56.5 -165.45 33.7 -164.1 -6.9 L-163.95 -7.75 -163.9 -7.85 -163.0 -12.1 -162.95 -12.25 -162.95 -12.35 -162.9 -12.4 Q-155.55 -42.55 -127.75 -54.8 L-127.5 -54.4 -126.8 -54.7 Q-93.75 -69.1 -62.05 -47.65 L-61.9 -47.55 -61.85 -47.55 -61.8 -47.5 -60.65 -46.7 -59.65 -45.95 -59.65 -45.9 -59.6 -45.95 Q-51.2 -56.85 -39.45 -59.6 L-39.4 -59.65 -39.0 -59.7 -34.95 -60.4 -32.45 -60.55 -32.2 -60.55 -32.05 -60.55 -31.05 -60.6 -30.95 -60.6 -30.7 -60.6 -30.65 -60.6 Q-24.05 -60.55 -16.55 -58.4 3.95 -48.05 6.95 -30.4 21.65 -35.8 34.35 -30.65 L34.6 -30.55" fill="#333333" fill-rule="evenodd" stroke="none"/>
  </g>
</svg>
