<?xml version="1.0" encoding="UTF-8" standalone="no"?>
<svg xmlns:ffdec="https://www.free-decompiler.com/flash" xmlns:xlink="http://www.w3.org/1999/xlink" ffdec:objectType="shape" height="87.65px" width="88.05px" xmlns="http://www.w3.org/2000/svg">
  <g transform="matrix(1.0, 0.0, 0.0, 1.0, -445.15, -340.4)">
    <path d="M445.4 387.3 L489.1 384.15 482.1 378.0 482.05 378.05 482.0 378.0 486.3 340.65 489.4 383.95 495.5 376.95 495.6 376.75 532.95 381.05 489.25 384.2 489.45 384.4 489.45 384.45 489.2 384.2 489.15 384.2 492.85 387.35 496.25 390.35 496.35 390.45 492.05 427.8 488.95 384.45 482.85 391.5 482.75 391.6 445.4 387.3" fill="#562f0f" fill-rule="evenodd" stroke="none"/>
    <path d="M445.4 387.3 L445.15 387.3 482.05 378.05 482.1 378.0 489.1 384.15 445.4 387.3 M486.3 340.65 L486.3 340.4 495.5 376.95 489.4 383.95 486.3 340.65 M532.95 381.05 L533.2 381.0 496.25 390.35 492.85 387.35 489.45 384.4 489.25 384.2 532.95 381.05 M492.05 427.8 L492.05 428.05 482.85 391.5 488.95 384.45 492.05 427.8" fill="#af8858" fill-rule="evenodd" stroke="none"/>
  </g>
</svg>
