<?xml version="1.0" encoding="UTF-8" standalone="no"?>
<svg xmlns:ffdec="https://www.free-decompiler.com/flash" xmlns:xlink="http://www.w3.org/1999/xlink" ffdec:objectType="shape" height="85.7px" width="62.75px" xmlns="http://www.w3.org/2000/svg">
  <g transform="matrix(1.0, 0.0, 0.0, 1.0, 29.3, 40.8)">
    <path d="M19.35 -23.55 L19.35 -23.75 Q19.75 -35.75 10.95 -37.8 3.55 -37.75 -1.2 -30.65 L-20.25 3.75 Q-29.4 20.35 -21.4 21.1 L7.8 21.1 7.7 34.6 Q8.95 40.5 13.85 40.1 20.45 40.45 20.35 31.9 L20.35 22.85 Q30.55 22.75 30.1 16.1 29.45 12.3 25.85 11.45 L19.25 11.45 19.35 -23.55 M9.6 -40.65 L9.85 -40.8 Q18.4 -41.0 22.3 -31.7 L22.2 8.0 22.7 8.7 Q33.95 9.45 33.45 17.6 31.35 25.55 22.45 25.45 L22.55 38.6 Q19.05 45.5 12.85 44.85 7.55 43.8 5.1 37.95 L5.1 25.95 5.0 25.45 -22.0 25.45 Q-31.7 23.3 -28.5 13.85 L-3.5 -32.4 Q0.65 -41.05 9.6 -40.65" fill="#ffffff" fill-rule="evenodd" stroke="none"/>
  </g>
</svg>
