<?xml version="1.0" encoding="UTF-8" standalone="no"?>
<svg xmlns:ffdec="https://www.free-decompiler.com/flash" xmlns:xlink="http://www.w3.org/1999/xlink" ffdec:objectType="shape" height="77.95px" width="55.25px" xmlns="http://www.w3.org/2000/svg">
  <g transform="matrix(1.0, 0.0, 0.0, 1.0, 25.15, 37.8)">
    <path d="M19.35 -23.75 L19.35 -23.55 19.25 11.45 25.85 11.45 Q29.45 12.3 30.1 16.1 30.55 22.75 20.35 22.85 L20.35 31.9 Q20.45 40.45 13.85 40.1 8.95 40.5 7.7 34.6 L7.8 21.1 -21.4 21.1 Q-29.4 20.35 -20.25 3.75 L-1.2 -30.65 Q3.55 -37.75 10.95 -37.8 19.75 -35.75 19.35 -23.75 M4.6 -17.5 L-8.9 8.6 4.6 8.85 4.6 -17.5" fill="#ffffff" fill-rule="evenodd" stroke="none"/>
  </g>
</svg>
