<?xml version="1.0" encoding="UTF-8" standalone="no"?>
<svg xmlns:ffdec="https://www.free-decompiler.com/flash" xmlns:xlink="http://www.w3.org/1999/xlink" ffdec:objectType="shape" height="64.6px" width="58.05px" xmlns="http://www.w3.org/2000/svg">
  <g transform="matrix(1.0, 0.0, 0.0, 1.0, 28.95, 30.95)">
    <path d="M21.1 -27.9 Q15.05 -28.2 13.3 -23.05 L0.5 14.2 -13.0 -20.8 Q-16.15 -29.55 -23.0 -27.65 -26.95 -25.25 -25.55 -19.95 L-5.4 27.7 Q0.7 32.85 6.45 26.7 L25.1 -17.15 Q29.3 -26.25 21.1 -27.9 M28.0 -16.4 L28.3 -16.25 10.5 25.65 10.25 26.35 Q7.2 33.8 -0.05 33.6 -7.3 34.25 -11.3 23.75 L-11.55 23.7 -28.15 -18.9 Q-30.7 -25.05 -25.3 -29.8 -17.85 -32.95 -12.8 -27.65 L-0.15 5.0 10.75 -26.0 Q13.8 -31.6 23.1 -30.75 31.3 -28.0 28.25 -17.15 L28.0 -16.4" fill="#ffffff" fill-rule="evenodd" stroke="none"/>
  </g>
</svg>
