<?xml version="1.0" encoding="UTF-8" standalone="no"?>
<svg xmlns:ffdec="https://www.free-decompiler.com/flash" xmlns:xlink="http://www.w3.org/1999/xlink" ffdec:objectType="shape" height="21.45px" width="92.9px" xmlns="http://www.w3.org/2000/svg">
  <g transform="matrix(1.0, 0.0, 0.0, 1.0, -31.05, -373.45)">
    <path d="M123.2 376.3 Q123.75 378.3 123.9 380.8 L121.0 380.9 120.8 378.75 Q120.55 376.85 119.95 376.75 119.05 376.9 118.8 378.75 118.5 380.25 120.55 382.3 122.6 384.35 123.3 385.7 123.95 387.1 123.95 388.7 123.95 390.2 123.4 391.9 122.75 394.6 120.05 394.8 L120.05 394.85 Q117.2 394.75 116.4 392.05 115.85 390.1 115.6 388.05 L118.5 387.65 118.8 389.6 Q119.05 391.45 119.95 391.55 120.55 391.4 120.75 389.55 121.2 387.5 119.35 385.65 117.4 383.85 116.75 382.3 115.6 380.4 115.9 377.95 L116.25 376.35 Q116.95 373.7 119.85 373.5 122.5 373.6 123.2 376.3 M110.5 376.95 L110.45 381.05 113.4 381.1 113.3 384.4 110.4 384.35 110.35 391.15 114.1 391.2 114.0 394.65 107.35 394.55 107.65 373.55 114.05 373.6 114.15 376.9 110.5 376.95 M90.35 373.55 Q93.25 373.65 94.0 376.35 94.75 379.05 94.75 384.2 94.75 389.35 94.0 392.05 93.25 394.75 90.35 394.85 87.4 394.6 86.75 391.95 86.0 389.3 86.0 384.2 L86.05 384.2 Q86.05 379.05 86.75 376.4 87.45 373.75 90.35 373.55 M90.45 376.85 Q89.55 376.95 89.35 378.8 89.1 380.65 89.1 384.2 89.1 387.7 89.35 389.6 89.55 391.4 90.45 391.55 91.35 391.45 91.55 389.6 L91.8 384.2 91.6 378.8 Q91.35 376.9 90.45 376.8 L90.45 376.85 M99.35 373.55 L102.0 373.75 Q104.75 374.55 105.0 380.8 104.85 384.45 103.05 386.0 L105.7 394.45 102.8 394.8 100.45 387.05 99.7 387.1 99.7 394.6 96.75 394.55 96.75 373.75 99.35 373.55 M101.7 377.4 Q101.25 375.95 99.7 376.2 L99.7 384.1 Q100.8 384.0 101.25 383.55 101.85 383.0 102.0 380.5 101.95 378.15 101.7 377.4 M83.75 376.35 Q84.25 378.3 84.4 381.4 L81.55 381.75 81.3 378.8 Q81.1 376.9 80.2 376.85 79.25 377.0 79.05 378.8 L78.85 384.25 79.05 389.6 Q79.25 391.4 80.2 391.55 81.1 391.5 81.35 389.65 L81.55 386.6 84.45 386.75 Q84.3 390.0 83.75 392.05 83.0 394.75 80.1 394.85 77.15 394.65 76.45 392.0 75.8 389.35 75.8 384.25 L75.75 384.25 Q75.75 379.05 76.45 376.4 77.15 373.75 80.1 373.55 82.95 373.65 83.75 376.35 M70.05 373.5 Q72.7 373.6 73.45 376.3 73.95 378.3 74.1 380.8 L71.2 380.9 71.0 378.75 Q70.8 376.85 70.15 376.75 69.25 376.9 69.0 378.75 68.7 380.25 70.8 382.3 72.8 384.35 73.55 385.7 74.15 387.1 74.15 388.7 74.15 390.2 73.6 391.9 72.95 394.6 70.25 394.8 L70.25 394.85 Q67.4 394.75 66.6 392.05 66.05 390.1 65.8 388.05 L68.7 387.65 69.0 389.6 Q69.25 391.45 70.15 391.55 70.8 391.4 70.95 389.55 71.4 387.5 69.55 385.65 67.65 383.85 66.95 382.3 65.8 380.4 66.1 377.95 L66.45 376.35 Q67.15 373.7 70.05 373.5 M53.4 373.6 L53.4 391.4 57.45 391.0 57.55 394.25 50.5 394.55 50.6 373.55 53.4 373.6 M48.55 394.25 L41.45 394.55 41.55 373.55 44.35 373.6 44.35 391.4 48.45 391.0 48.55 394.25 M37.3 373.5 L40.25 394.15 37.45 394.25 37.0 391.3 34.45 391.4 34.1 394.85 31.15 394.9 33.7 373.8 37.3 373.5 M36.6 388.4 L35.45 381.35 34.75 388.35 36.6 388.4" fill="#333333" fill-rule="evenodd" stroke="none"/>
    <path d="M113.9 373.65 L107.9 373.6 107.6 394.45 107.25 394.45 107.55 373.5 113.9 373.55 113.9 373.65 M113.3 381.0 L113.3 381.05 110.7 381.05 110.7 380.95 113.3 381.0 M119.7 373.45 L120.85 373.65 120.05 373.55 Q117.15 373.7 116.45 376.4 116.15 377.3 116.15 377.95 115.85 380.4 116.95 382.3 117.7 383.85 119.55 385.65 121.45 387.5 121.0 389.5 120.8 391.4 120.15 391.55 L119.85 391.5 Q120.5 391.25 120.65 389.45 121.1 387.4 119.2 385.6 117.35 383.75 116.65 382.25 115.5 380.3 115.8 377.85 L116.15 376.3 Q116.85 373.65 119.7 373.45 M120.05 376.8 L120.15 376.75 Q120.8 376.85 121.05 378.75 L121.25 380.8 120.9 380.8 120.75 378.65 Q120.5 377.15 120.05 376.8 M118.45 387.7 L115.85 388.05 Q116.1 390.15 116.65 392.0 117.25 394.1 119.05 394.65 116.95 394.2 116.3 391.95 115.75 390.05 115.5 387.95 L118.4 387.6 118.45 387.7 M101.6 377.3 Q101.35 376.45 100.7 376.2 101.6 376.3 101.95 377.4 102.2 378.15 102.25 380.5 102.1 383.0 101.5 383.55 101.0 384.0 99.95 384.1 L99.95 383.95 Q100.75 383.85 101.15 383.45 101.75 382.9 101.9 380.4 101.85 378.05 101.6 377.3 M114.0 391.1 L114.0 391.2 110.55 391.15 110.55 391.05 114.0 391.1 M97.0 373.75 L97.0 394.45 96.65 394.45 96.65 373.65 99.25 373.5 101.9 373.65 102.15 373.75 99.6 373.6 97.0 373.75 M80.4 376.85 L80.45 376.85 Q81.3 376.95 81.5 378.75 L81.75 381.65 81.45 381.7 81.2 378.7 Q81.0 377.2 80.4 376.85 M81.2 373.7 L80.35 373.6 Q77.4 373.75 76.7 376.45 75.95 379.05 75.95 384.25 L76.0 384.25 Q76.0 389.35 76.7 392.0 77.2 394.05 79.2 394.65 76.95 394.15 76.4 391.9 75.65 389.25 75.65 384.15 L75.6 384.15 Q75.6 379.0 76.4 376.35 77.05 373.65 80.0 373.5 L81.2 373.7 M90.7 376.85 L90.7 376.8 Q91.6 376.95 91.85 378.75 L92.0 384.15 91.8 389.6 Q91.6 391.45 90.7 391.55 L90.4 391.5 Q91.25 391.3 91.45 389.5 L91.7 384.1 91.5 378.7 Q91.3 377.2 90.7 376.85 M91.5 373.7 L90.6 373.6 Q87.7 373.75 86.95 376.45 86.3 379.05 86.3 384.15 L86.25 384.15 Q86.25 389.3 86.95 391.95 87.55 394.05 89.55 394.65 87.25 394.15 86.6 391.85 85.9 389.2 85.9 384.1 L85.95 384.1 Q85.95 379.0 86.6 376.35 87.35 373.65 90.25 373.5 L91.5 373.7 M100.35 387.15 L100.65 387.1 103.0 394.65 102.7 394.7 100.35 387.15 M84.3 386.7 L81.75 386.6 81.55 389.65 Q81.3 391.5 80.45 391.55 L80.2 391.5 Q80.95 391.3 81.2 389.55 L81.45 386.5 84.3 386.65 84.3 386.7 M70.25 376.8 L70.35 376.75 Q71.05 376.85 71.3 378.75 L71.45 380.8 71.1 380.8 70.95 378.65 Q70.75 377.15 70.25 376.8 M70.25 373.55 Q67.4 373.7 66.7 376.4 L66.35 377.95 Q66.05 380.4 67.2 382.3 67.85 383.85 69.75 385.65 71.65 387.5 71.2 389.5 71.05 391.4 70.35 391.55 L70.05 391.5 Q70.7 391.25 70.85 389.45 71.3 387.4 69.45 385.6 67.5 383.75 66.85 382.25 65.7 380.3 66.0 377.85 L66.35 376.3 Q67.05 373.65 69.95 373.45 L71.05 373.65 70.25 373.55 M68.65 387.7 L66.05 388.05 Q66.3 390.15 66.85 392.0 67.45 394.1 69.25 394.65 67.2 394.2 66.5 391.95 65.95 390.05 65.7 387.95 L68.6 387.6 68.65 387.7 M53.3 373.65 L50.85 373.6 50.75 394.45 50.4 394.45 50.5 373.5 53.3 373.55 53.3 373.65 M48.35 391.05 L44.6 391.4 44.6 391.3 48.35 390.95 48.35 391.05 M57.35 391.05 L53.65 391.4 53.65 391.3 57.35 390.95 57.35 391.05 M44.25 373.55 L44.25 373.65 41.8 373.6 41.7 394.45 41.35 394.45 41.45 373.5 44.25 373.55 M37.2 373.45 L37.25 373.6 33.95 373.85 31.45 394.8 31.05 394.8 33.6 373.75 37.2 373.45 M37.25 391.3 L37.65 394.15 37.35 394.15 36.95 391.35 37.25 391.3 M35.6 382.55 L35.7 381.3 36.85 388.4 34.95 388.35 34.95 388.25 36.5 388.3 35.6 382.55" fill="#808080" fill-rule="evenodd" stroke="none"/>
  </g>
</svg>
