<?xml version="1.0" encoding="UTF-8" standalone="no"?>
<svg xmlns:ffdec="https://www.free-decompiler.com/flash" xmlns:xlink="http://www.w3.org/1999/xlink" ffdec:objectType="shape" height="334.3px" width="334.3px" xmlns="http://www.w3.org/2000/svg">
  <g transform="matrix(1.0, 0.0, 0.0, 1.0, 167.15, 167.15)">
    <path d="M0.8 -0.75 L1.05 0.0 Q1.05 0.45 0.7 0.7 L0.15 0.95 28.1 167.15 -28.1 167.15 -0.15 0.95 Q-0.45 0.8 -0.8 0.6 L-1.05 -0.2 -0.65 -0.9 -0.15 -1.1 -28.1 -167.15 28.1 -167.15 0.2 -1.1 0.8 -0.75" fill="url(#gradient0)" fill-rule="evenodd" stroke="none"/>
    <path d="M0.6 -0.45 L0.8 -0.1 167.15 -28.1 167.15 28.1 0.8 0.15 0.5 0.6 -0.1 0.85 -0.65 0.55 -0.8 0.15 -167.15 28.1 -167.15 -28.1 -0.8 -0.15 -0.55 -0.6 0.05 -0.75 0.6 -0.45" fill="url(#gradient1)" fill-rule="evenodd" stroke="none"/>
    <path d="M0.5 -0.65 L98.35 -138.05 138.1 -98.3 0.7 -0.5 0.9 0.1 0.8 0.55 138.1 98.3 98.35 138.05 0.55 0.75 0.0 0.9 -0.5 0.7 -98.3 138.1 -138.05 98.35 -0.65 0.5 -0.8 0.0 -0.6 -0.45 -138.05 -98.35 -98.3 -138.1 -0.45 -0.6 0.15 -0.8 0.5 -0.65" fill="url(#gradient2)" fill-rule="evenodd" stroke="none"/>
  </g>
  <defs>
    <radialGradient cx="0" cy="0" gradientTransform="matrix(0.2069, 0.0, 0.0, 0.2069, 0.0, 0.0)" gradientUnits="userSpaceOnUse" id="gradient0" r="819.2" spreadMethod="pad">
      <stop offset="0.0" stop-color="#ffffff"/>
      <stop offset="1.0" stop-color="#ffffff" stop-opacity="0.0"/>
    </radialGradient>
    <radialGradient cx="0" cy="0" gradientTransform="matrix(0.2069, 0.0, 0.0, 0.2069, 0.0, 0.0)" gradientUnits="userSpaceOnUse" id="gradient1" r="819.2" spreadMethod="pad">
      <stop offset="0.0" stop-color="#ffffff"/>
      <stop offset="1.0" stop-color="#ffffff" stop-opacity="0.0"/>
    </radialGradient>
    <radialGradient cx="0" cy="0" gradientTransform="matrix(0.207, 0.0, 0.0, 0.207, 0.05, 0.0)" gradientUnits="userSpaceOnUse" id="gradient2" r="819.2" spreadMethod="pad">
      <stop offset="0.0" stop-color="#ffffff"/>
      <stop offset="1.0" stop-color="#ffffff" stop-opacity="0.0"/>
    </radialGradient>
  </defs>
</svg>
