<?xml version="1.0" encoding="UTF-8" standalone="no"?>
<svg xmlns:ffdec="https://www.free-decompiler.com/flash" xmlns:xlink="http://www.w3.org/1999/xlink" ffdec:objectType="shape" height="15.95px" width="50.7px" xmlns="http://www.w3.org/2000/svg">
  <g transform="matrix(1.0, 0.0, 0.0, 1.0, 25.35, 7.95)">
    <path d="M22.8 -5.4 Q24.85 -3.35 24.85 -0.5 L24.85 0.55 Q24.85 3.45 22.8 5.45 20.75 7.5 17.85 7.5 L-17.9 7.5 Q-20.8 7.5 -22.8 5.45 -24.85 3.45 -24.85 0.55 L-24.85 -0.5 Q-24.85 -3.35 -22.8 -5.4 -20.8 -7.45 -17.9 -7.45 L17.85 -7.45 Q20.75 -7.45 22.8 -5.4" fill="url(#gradient0)" fill-rule="evenodd" stroke="none"/>
    <path d="M22.8 -5.4 Q24.85 -3.35 24.85 -0.5 L24.85 0.55 Q24.85 3.45 22.8 5.45 20.75 7.5 17.85 7.5 L-17.9 7.5 Q-20.8 7.5 -22.8 5.45 -24.85 3.45 -24.85 0.55 L-24.85 -0.5 Q-24.85 -3.35 -22.8 -5.4 -20.8 -7.45 -17.9 -7.45 L17.85 -7.45 Q20.75 -7.45 22.8 -5.4 Z" fill="none" stroke="#ffffff" stroke-linecap="butt" stroke-linejoin="miter-clip" stroke-miterlimit="4.0" stroke-width="1.0"/>
  </g>
  <defs>
    <linearGradient gradientTransform="matrix(0.0, 0.0218, 0.0218, 0.0, 140.85, 5.95)" gradientUnits="userSpaceOnUse" id="gradient0" spreadMethod="pad" x1="-819.2" x2="819.2">
      <stop offset="0.0" stop-color="#4cb3de"/>
      <stop offset="1.0" stop-color="#1e7ea8"/>
    </linearGradient>
  </defs>
</svg>
