<?xml version="1.0" encoding="UTF-8" standalone="no"?>
<svg xmlns:ffdec="https://www.free-decompiler.com/flash" xmlns:xlink="http://www.w3.org/1999/xlink" ffdec:objectType="shape" height="10.8px" width="21.7px" xmlns="http://www.w3.org/2000/svg">
  <g transform="matrix(1.0, 0.0, 0.0, 1.0, 10.35, 5.05)">
    <path d="M0.05 -0.8 L0.35 -1.55 Q0.6 -1.95 1.2 -2.15 L2.65 -2.4 4.15 -2.15 Q4.7 -1.95 4.9 -1.45 L5.15 -0.15 5.15 0.75 5.15 1.5 5.3 2.4 5.4 2.95 5.2 3.35 4.7 3.55 4.3 3.35 3.8 2.75 2.8 3.35 1.7 3.55 0.7 3.35 0.05 2.75 -0.2 1.9 Q-0.2 1.3 0.2 0.9 0.55 0.45 1.2 0.3 L1.9 0.15 2.85 -0.05 3.7 -0.25 3.5 -1.1 Q3.25 -1.4 2.65 -1.4 L1.8 -1.2 1.3 -0.75 1.0 -0.35 0.65 -0.25 Q0.4 -0.25 0.25 -0.4 L0.05 -0.8 M6.75 -2.4 L7.2 -2.2 7.5 -1.6 8.7 2.0 9.9 -1.35 10.15 -2.0 10.4 -2.3 10.75 -2.4 11.05 -2.3 11.3 -2.05 11.35 -1.75 11.3 -1.45 11.2 -1.05 9.3 3.9 8.8 4.95 8.2 5.55 7.15 5.75 6.15 5.6 Q5.85 5.45 5.85 5.1 5.85 4.85 6.0 4.7 6.15 4.55 6.45 4.55 L6.7 4.6 6.95 4.6 7.3 4.55 7.6 4.3 7.85 3.75 7.95 3.4 6.2 -1.1 6.0 -1.7 6.1 -2.05 6.4 -2.3 6.75 -2.4 M3.7 0.6 L2.8 0.85 1.95 1.05 Q1.7 1.1 1.5 1.3 1.25 1.5 1.25 1.8 1.25 2.15 1.5 2.35 1.75 2.6 2.15 2.6 L3.0 2.4 3.5 1.95 3.7 0.85 3.7 0.6 M-8.4 -1.4 L-7.5 -2.15 -6.5 -2.35 -5.25 -2.05 Q-4.7 -1.7 -4.4 -1.0 -4.05 -0.35 -4.05 0.55 L-4.25 1.8 -4.75 2.75 -5.55 3.35 -6.5 3.55 -7.55 3.3 -8.4 2.55 -8.4 4.75 Q-8.4 5.75 -9.1 5.75 L-9.65 5.5 -9.75 4.75 -9.75 -1.55 -9.55 -2.15 -9.1 -2.4 Q-8.75 -2.4 -8.55 -2.15 -8.4 -1.95 -8.4 -1.55 L-8.4 -1.4 M-6.15 -1.05 L-6.9 -1.3 Q-7.5 -1.3 -7.9 -0.8 -8.3 -0.35 -8.3 0.6 -8.3 1.45 -7.9 1.95 -7.5 2.45 -6.9 2.45 L-6.2 2.2 -5.7 1.6 -5.5 0.55 -5.7 -0.45 Q-5.85 -0.85 -6.15 -1.05 M-2.7 -4.35 L-2.15 -4.55 Q-1.8 -4.55 -1.6 -4.35 L-1.4 -3.65 -1.4 2.7 -1.6 3.35 Q-1.8 3.55 -2.15 3.55 L-2.7 3.35 -2.9 2.7 -2.9 -3.65 -2.7 -4.35" fill="#000000" fill-opacity="0.32941177" fill-rule="evenodd" stroke="none"/>
    <path d="M2.05 -2.9 L3.55 -2.65 4.3 -1.95 4.55 -0.65 4.55 0.25 4.55 1.0 4.7 1.9 4.8 2.45 4.6 2.85 4.1 3.05 3.7 2.85 3.2 2.25 2.2 2.85 1.1 3.05 0.1 2.85 -0.55 2.25 -0.8 1.4 Q-0.8 0.8 -0.4 0.4 -0.05 -0.05 0.6 -0.2 L1.3 -0.35 2.25 -0.55 3.1 -0.75 2.9 -1.6 Q2.65 -1.9 2.05 -1.9 L1.2 -1.7 0.7 -1.25 0.4 -0.85 Q0.35 -0.75 0.05 -0.75 L-0.35 -0.9 -0.55 -1.3 -0.25 -2.05 Q0.0 -2.45 0.6 -2.65 L2.05 -2.9 M5.5 -2.55 L5.8 -2.8 6.15 -2.9 6.6 -2.7 6.9 -2.1 8.1 1.5 9.3 -1.85 9.55 -2.5 9.8 -2.8 10.15 -2.9 10.45 -2.8 10.7 -2.55 10.75 -2.25 10.7 -1.95 10.6 -1.55 8.7 3.4 8.2 4.45 7.6 5.05 6.55 5.25 5.55 5.1 Q5.25 4.95 5.25 4.6 5.25 4.35 5.4 4.2 5.55 4.05 5.85 4.05 L6.1 4.1 6.35 4.1 6.7 4.05 7.0 3.8 7.25 3.25 7.35 2.9 5.6 -1.6 5.4 -2.2 5.5 -2.55 M3.1 0.1 L2.2 0.35 1.35 0.55 0.9 0.8 Q0.65 1.0 0.65 1.3 L0.9 1.85 1.55 2.1 2.4 1.9 2.9 1.45 3.1 0.35 3.1 0.1 M-10.15 -2.65 L-9.7 -2.9 -9.15 -2.65 Q-9.0 -2.45 -9.0 -2.05 L-9.0 -1.9 -8.1 -2.65 -7.1 -2.85 -5.85 -2.55 Q-5.3 -2.2 -5.0 -1.5 -4.65 -0.85 -4.65 0.05 L-4.85 1.3 -5.35 2.25 -6.15 2.85 -7.1 3.05 -8.15 2.8 -9.0 2.05 -9.0 4.25 Q-9.0 5.25 -9.7 5.25 L-10.25 5.0 -10.35 4.25 -10.35 -2.05 -10.15 -2.65 M-7.5 -1.8 Q-8.1 -1.8 -8.5 -1.3 -8.9 -0.85 -8.9 0.1 -8.9 0.95 -8.5 1.45 -8.1 1.95 -7.5 1.95 -7.1 1.95 -6.8 1.7 L-6.3 1.1 -6.1 0.05 -6.3 -0.95 Q-6.45 -1.35 -6.75 -1.55 L-7.5 -1.8 M-3.3 -4.85 L-2.75 -5.05 -2.2 -4.85 -2.0 -4.15 -2.0 2.2 -2.2 2.85 -2.75 3.05 -3.3 2.85 -3.5 2.2 -3.5 -4.15 -3.3 -4.85" fill="#ffffff" fill-rule="evenodd" stroke="none"/>
  </g>
</svg>
