<?xml version="1.0" encoding="UTF-8" standalone="no"?>
<svg xmlns:ffdec="https://www.free-decompiler.com/flash" xmlns:xlink="http://www.w3.org/1999/xlink" ffdec:objectType="shape" height="16.6px" width="53.0px" xmlns="http://www.w3.org/2000/svg">
  <g transform="matrix(1.0, 0.0, 0.0, 1.0, 26.5, 8.3)">
    <path d="M23.9 5.7 Q21.7 7.8 18.7 7.8 L-18.7 7.8 Q-21.75 7.8 -23.85 5.7 -26.0 3.6 -26.0 0.55 L-26.0 -0.5 Q-26.0 -3.5 -23.85 -5.65 -21.75 -7.8 -18.7 -7.8 L18.7 -7.8 Q21.7 -7.8 23.9 -5.65 26.0 -3.5 26.0 -0.5 L26.0 0.55 Q26.0 3.6 23.9 5.7" fill="url(#gradient0)" fill-rule="evenodd" stroke="none"/>
    <path d="M23.9 5.7 Q21.7 7.8 18.7 7.8 L-18.7 7.8 Q-21.75 7.8 -23.85 5.7 -26.0 3.6 -26.0 0.55 L-26.0 -0.5 Q-26.0 -3.5 -23.85 -5.65 -21.75 -7.8 -18.7 -7.8 L18.7 -7.8 Q21.7 -7.8 23.9 -5.65 26.0 -3.5 26.0 -0.5 L26.0 0.55 Q26.0 3.6 23.9 5.7 Z" fill="none" stroke="#ffffff" stroke-linecap="butt" stroke-linejoin="miter-clip" stroke-miterlimit="4.0" stroke-width="1.0"/>
  </g>
  <defs>
    <linearGradient gradientTransform="matrix(0.0, 0.0132, 0.0133, 0.0, 57.85, 3.1)" gradientUnits="userSpaceOnUse" id="gradient0" spreadMethod="pad" x1="-819.2" x2="819.2">
      <stop offset="0.0" stop-color="#ff9900"/>
      <stop offset="1.0" stop-color="#cc0000"/>
    </linearGradient>
  </defs>
</svg>
