<?xml version="1.0" encoding="UTF-8" standalone="no"?>
<svg xmlns:ffdec="https://www.free-decompiler.com/flash" xmlns:xlink="http://www.w3.org/1999/xlink" ffdec:objectType="shape" height="480.05px" width="639.95px" xmlns="http://www.w3.org/2000/svg">
  <g transform="matrix(1.0, 0.0, 0.0, 1.0, 0.0, 0.0)">
    <path d="M23.9 3.95 L47.55 5.3 622.0 4.8 Q633.1 12.85 636.95 18.6 L639.0 104.9 Q636.35 110.0 637.0 113.6 L637.0 393.3 Q636.1 427.9 638.9 453.05 L639.0 453.7 639.05 454.35 639.2 455.5 639.35 455.95 638.85 456.0 Q634.95 460.75 622.5 474.15 L45.9 478.1 21.0 474.3 5.45 458.05 Q0.85 334.7 3.85 210.6 L3.85 21.1 23.9 3.95" fill="#744431" fill-rule="evenodd" stroke="none"/>
    <path d="M639.0 104.9 Q636.35 110.0 637.0 113.6 L637.0 192.1 632.35 184.15 631.2 184.3 631.15 184.1 Q631.05 184.05 631.05 185.15 631.05 186.25 635.85 194.35 L636.3 195.05 Q635.5 195.2 634.8 195.5 631.5 191.6 628.85 189.8 L628.5 190.95 632.25 196.55 Q629.5 197.8 626.75 199.8 L626.3 199.55 625.95 200.15 626.05 200.3 625.4 200.7 Q622.05 203.2 619.15 206.1 L614.7 199.4 614.2 199.55 618.25 207.1 615.35 210.4 606.05 198.7 605.45 198.7 Q607.9 204.0 613.55 211.1 L614.2 211.9 612.1 214.9 Q610.55 213.75 608.75 213.05 600.1 209.35 590.0 215.25 L579.9 202.85 579.15 203.0 588.35 216.25 585.75 218.0 584.2 219.3 573.15 204.6 572.45 204.75 Q571.75 205.0 571.75 206.05 571.75 207.75 581.45 221.6 L581.1 221.95 576.9 217.65 Q578.05 219.95 580.25 222.75 L578.2 224.85 Q575.75 222.5 572.65 221.15 564.45 217.65 554.9 222.8 549.85 216.6 547.8 215.8 547.65 216.15 547.65 216.75 L552.35 224.3 Q551.0 225.15 549.65 226.15 542.1 231.85 536.75 239.7 534.55 237.9 531.9 236.75 525.85 234.2 519.3 235.7 L518.1 233.3 Q514.35 226.0 511.55 221.85 510.95 221.85 510.85 222.25 L516.25 234.35 517.25 236.25 Q513.4 237.5 509.45 240.05 503.85 243.75 499.4 249.15 L497.75 249.45 Q491.95 241.25 480.75 241.25 L478.25 241.4 Q473.75 235.4 471.55 233.0 L471.0 233.0 Q471.8 235.0 474.95 238.9 L477.25 241.45 Q467.75 242.55 458.25 249.55 454.1 244.4 449.7 240.45 L449.35 241.1 455.85 251.4 453.8 253.1 Q451.25 255.3 449.05 257.65 L447.7 257.85 Q442.0 247.3 429.3 247.3 421.75 247.3 414.15 251.1 409.15 245.4 407.7 243.25 L406.45 243.4 406.4 243.1 Q406.3 243.05 406.3 244.2 406.3 245.55 411.85 252.3 407.1 255.0 402.35 259.15 L398.1 263.2 Q357.65 266.4 314.8 266.4 298.85 266.4 283.25 266.0 274.15 254.15 267.85 248.65 L267.75 248.4 267.7 249.4 Q267.7 250.65 276.95 262.3 L279.9 265.9 258.9 265.0 Q256.15 261.95 253.0 259.15 239.65 247.55 226.5 247.3 221.0 240.05 217.1 238.1 L223.55 247.45 Q212.25 248.45 207.2 258.65 204.55 255.75 201.5 253.1 197.5 249.55 193.35 247.05 188.0 237.7 183.55 236.5 185.1 239.9 187.45 243.95 181.25 241.4 175.2 241.25 L172.9 239.2 171.8 237.5 159.05 217.3 Q158.45 217.3 158.1 217.65 162.45 227.7 172.4 241.35 168.6 241.6 165.55 242.95 161.45 238.75 158.05 236.25 L158.05 235.9 158.0 236.9 Q158.0 237.7 163.3 244.1 159.45 246.4 156.9 250.45 153.65 246.1 149.65 242.85 146.45 238.5 142.4 233.7 L141.85 234.0 146.1 239.7 147.1 240.85 145.85 240.05 Q138.85 235.5 132.4 235.2 124.65 225.85 119.35 221.85 L129.6 235.2 Q126.4 235.5 123.45 236.75 120.75 237.9 118.55 239.7 113.25 231.85 105.65 226.15 97.55 220.0 90.25 219.8 L89.75 219.1 Q85.3 213.1 82.95 211.05 L82.95 211.2 89.05 219.8 Q85.7 219.9 82.65 221.15 79.55 222.5 77.15 224.85 73.65 221.1 69.55 218.0 56.95 208.6 46.55 213.05 44.8 213.75 43.25 214.9 37.8 206.6 29.9 200.7 17.3 191.3 6.9 195.7 5.3 196.45 3.85 197.35 L3.85 21.1 23.9 3.95 47.55 5.3 622.0 4.8 Q633.1 12.85 636.95 18.6 L639.0 104.9" fill="#7b4d3b" fill-rule="evenodd" stroke="none"/>
    <path d="M8.7 90.5 L9.45 92.45 Q7.35 94.75 6.3 97.3 L4.5 101.35 4.1 101.15 Q7.35 94.25 8.7 90.5 M127.55 127.0 L128.95 126.95 129.95 127.0 130.0 127.2 127.55 127.0 M132.55 127.5 L132.4 127.2 Q135.8 127.65 139.3 129.0 136.1 128.0 132.55 127.5 M99.7 120.25 L98.35 119.75 98.8 118.3 99.7 120.25 M342.05 130.3 L342.75 129.7 342.1 129.8 342.1 129.65 342.05 130.15 342.05 130.3 M316.55 134.55 L316.4 135.35 318.45 148.25 Q316.6 148.7 315.05 149.3 L311.65 151.05 Q328.45 148.4 334.45 146.2 331.85 142.7 329.8 140.5 L333.4 146.25 Q325.75 146.45 320.0 147.8 318.3 139.65 316.55 134.55 M625.7 82.95 L625.55 82.45 625.35 82.55 Q623.7 83.6 621.55 94.35 619.8 95.1 618.3 96.45 L617.25 97.6 616.85 97.65 Q615.35 98.0 614.0 98.7 L612.85 98.8 Q610.45 88.4 607.15 80.9 L607.0 80.95 Q606.8 81.05 606.8 81.55 606.8 82.9 610.45 99.0 L610.45 99.05 Q605.5 99.8 601.45 101.8 L601.1 101.55 Q599.15 100.65 596.45 102.5 594.1 104.0 592.6 106.25 591.35 98.85 589.65 93.3 L589.15 93.5 Q588.85 93.75 588.85 94.3 588.85 95.1 590.35 104.15 L591.15 108.9 Q590.55 110.35 590.2 111.9 589.6 112.75 589.15 113.7 L588.3 112.75 Q586.45 111.25 584.0 112.05 580.35 113.05 578.9 116.95 578.6 114.1 576.85 113.05 575.0 111.95 572.4 113.25 570.4 114.2 569.05 115.6 565.25 114.45 562.45 114.45 L557.85 114.8 546.25 102.5 545.95 102.55 Q545.6 102.7 545.6 103.2 L556.75 115.05 Q551.7 115.95 547.45 118.75 543.65 114.6 540.4 112.35 L545.95 119.8 543.35 122.0 Q541.35 123.9 539.9 125.95 L539.1 125.15 Q537.25 123.95 534.8 124.85 532.3 125.8 530.8 127.95 L529.85 126.95 529.05 126.5 Q531.4 123.65 534.45 121.3 531.05 123.4 528.5 126.3 527.0 125.8 525.15 126.3 521.25 127.35 519.65 130.8 L515.2 130.35 515.8 125.1 Q514.2 126.1 513.6 130.35 506.9 130.5 500.9 133.15 L502.35 120.4 502.2 119.9 502.1 119.95 Q501.35 122.1 499.7 133.7 L497.35 134.9 493.45 137.65 491.9 137.9 Q490.45 136.3 487.85 136.3 483.05 136.3 482.35 141.85 L481.4 141.85 Q480.05 139.25 476.3 139.0 471.95 138.65 470.8 141.85 L460.1 141.85 460.25 137.5 Q460.25 134.5 459.7 132.45 L458.95 132.45 458.0 142.2 Q451.6 143.55 444.65 145.85 L444.2 145.2 Q442.5 143.0 440.05 143.1 435.75 143.55 434.6 149.45 L430.0 151.1 Q429.6 149.1 428.3 147.75 426.6 145.95 424.3 146.1 420.3 146.4 419.05 150.4 L417.05 149.7 Q410.0 147.2 400.65 147.2 L398.4 147.25 Q402.25 138.05 402.25 137.15 L402.2 136.65 402.05 136.8 Q399.45 141.1 396.6 147.25 387.9 147.6 382.1 149.55 386.25 133.85 388.1 124.6 384.95 132.35 381.95 144.2 L380.6 150.05 Q378.7 150.75 377.15 151.65 374.95 152.95 373.3 154.75 L371.75 156.15 368.8 155.45 365.1 147.25 Q361.15 139.55 356.9 135.15 L356.8 135.0 356.75 135.5 Q356.75 136.5 362.15 146.25 L366.95 154.8 356.7 151.15 354.35 150.3 352.65 149.45 352.85 149.8 Q288.15 154.65 305.8 151.95 L293.1 147.95 289.65 146.95 283.65 138.65 283.4 138.85 288.5 146.7 Q279.6 144.25 270.9 143.75 267.3 139.35 263.6 136.0 L263.45 136.5 268.85 143.6 265.45 143.55 260.7 143.6 254.95 134.65 Q250.3 127.8 246.6 124.0 L246.6 123.9 246.55 124.3 258.8 143.7 247.9 144.85 Q246.25 139.4 244.9 136.5 L244.7 136.55 Q244.55 136.65 244.55 137.15 244.55 138.75 246.2 145.2 244.4 145.6 243.0 146.1 242.8 143.0 240.8 141.9 238.75 140.75 236.0 142.1 235.35 142.4 234.7 142.85 L233.1 131.85 232.6 132.15 232.4 132.85 Q232.4 136.85 233.15 143.95 230.9 145.9 229.85 148.8 L228.75 148.25 228.9 147.4 Q228.9 142.75 226.15 142.0 L224.8 141.85 219.55 120.1 219.3 120.1 Q218.95 120.25 218.95 120.75 218.95 122.45 223.55 142.0 221.95 142.35 220.15 143.4 L219.3 143.95 Q213.1 141.85 207.65 141.85 L204.5 142.05 Q203.65 129.85 191.05 143.85 L190.45 144.45 189.85 143.95 190.45 141.7 Q190.45 136.4 187.35 135.9 185.1 135.55 182.05 137.85 175.7 134.2 167.45 134.0 170.35 117.25 170.35 112.2 170.35 111.6 170.15 111.45 L169.65 111.25 168.95 111.4 Q168.75 113.9 165.05 133.9 L159.8 134.5 157.35 132.65 Q153.65 130.0 149.5 127.85 L139.8 110.0 138.7 110.0 138.6 111.0 Q141.35 118.25 145.25 125.85 L139.7 123.75 Q134.25 121.9 129.9 121.3 120.1 99.05 114.6 88.05 123.2 110.85 127.45 121.1 L122.0 121.3 Q121.1 121.45 120.3 121.75 120.2 116.1 116.8 116.05 115.7 116.05 114.5 116.6 110.75 110.1 108.7 108.1 110.55 112.7 112.9 117.45 111.1 118.45 109.05 120.4 L106.6 122.9 102.0 121.15 96.6 106.25 Q92.55 96.5 88.05 94.85 L95.9 111.9 Q93.5 111.75 89.8 115.1 L88.95 115.95 Q85.3 107.85 83.35 104.85 L82.5 105.0 86.7 115.7 Q82.75 114.55 79.1 113.9 L79.6 111.45 Q79.6 109.55 78.15 107.85 76.55 105.9 74.45 105.7 71.75 105.35 69.55 107.75 64.6 99.45 59.65 94.75 61.9 98.95 68.1 109.75 67.25 111.1 66.5 112.95 L62.55 113.4 62.25 113.25 Q64.35 108.6 64.35 107.35 64.35 105.25 62.9 103.35 61.35 101.35 59.25 101.15 56.75 100.95 54.65 103.15 43.95 81.4 36.85 69.35 43.65 85.2 53.15 105.0 52.5 105.85 52.0 106.9 46.75 104.05 41.75 102.3 L41.65 102.2 37.05 95.8 Q36.5 93.25 34.65 92.75 30.2 87.1 25.8 82.6 27.6 87.3 30.9 93.3 29.2 94.1 27.1 95.7 L23.85 98.55 21.85 98.5 19.25 98.55 Q20.85 95.0 20.85 93.95 20.85 84.2 14.15 88.5 12.35 89.65 11.0 90.95 L9.55 87.3 9.55 87.05 Q9.55 80.4 6.7 80.25 L6.55 79.9 5.7 80.05 5.65 79.9 5.55 80.45 Q4.8 80.7 3.85 81.25 L3.85 21.1 23.9 3.95 47.55 5.3 622.0 4.8 Q633.1 12.85 636.95 18.6 L638.55 86.75 636.65 86.55 Q632.95 86.45 630.2 89.45 628.5 90.25 627.15 91.8 L626.05 93.35 623.9 93.65 Q625.7 84.05 625.7 82.95" fill="#8e5b48" fill-rule="evenodd" stroke="none"/>
    <path d="M329.85 12.5 L324.05 10.7 324.05 10.75 317.9 12.0 329.85 12.5 M303.95 13.0 L303.3 12.55 302.55 12.25 Q301.7 12.25 301.1 12.9 L301.05 13.0 27.75 13.0 27.45 12.9 27.0 12.85 26.25 13.05 23.6 13.35 23.0 13.2 21.8 13.05 21.5 13.05 21.7 13.1 20.95 13.2 19.95 13.1 19.65 13.25 18.9 13.4 18.05 14.0 17.55 14.55 15.9 15.2 Q15.05 15.45 14.3 16.2 L12.85 17.45 10.05 20.2 7.6 22.25 Q6.85 22.25 6.85 21.45 6.85 20.25 8.45 19.05 L10.55 17.6 13.55 13.75 16.4 9.85 17.2 8.7 Q17.7 8.15 20.85 8.0 L26.3 7.85 619.8 7.55 620.15 7.8 Q620.35 7.5 620.8 7.65 621.55 8.0 622.7 9.75 623.55 11.0 626.95 14.0 L630.15 18.25 632.55 20.3 Q634.05 21.6 634.05 22.4 633.8 23.15 633.55 23.15 632.7 23.15 629.85 21.25 627.1 19.3 625.45 17.6 L623.35 15.95 Q622.3 15.35 622.0 14.85 L620.85 13.5 620.45 13.0 474.9 13.0 471.85 12.5 467.75 13.0 462.5 13.0 460.9 12.4 Q458.6 11.5 455.95 11.85 L450.5 12.25 444.95 13.0 Q408.15 15.35 371.9 14.25 L344.45 13.0 318.9 12.25 317.2 12.1 311.45 13.0 303.95 13.0" fill="#643c2d" fill-rule="evenodd" stroke="none"/>
    <path d="M625.55 101.15 Q624.25 104.3 623.4 105.25 L621.1 104.9 620.85 104.65 Q620.6 104.35 620.6 103.2 620.6 102.3 621.65 99.7 623.05 96.2 625.1 95.2 L626.3 95.7 Q626.8 96.15 626.8 97.45 L625.55 101.15 M420.4 183.05 Q420.7 182.95 420.7 183.95 420.7 185.5 419.9 190.5 L419.95 190.8 419.1 191.0 Q417.7 191.0 417.15 188.85 L416.85 186.5 Q416.85 184.6 417.05 184.15 417.65 183.15 420.05 183.3 L420.4 183.05 M605.35 180.05 Q607.05 180.05 607.05 181.9 607.05 182.75 606.55 183.65 606.15 184.55 605.8 184.55 603.95 184.55 603.45 183.3 603.4 182.05 603.5 180.95 603.65 179.95 605.35 180.05 M158.85 289.1 L158.85 291.35 158.6 291.6 157.5 291.7 Q155.65 291.7 155.1 290.65 L154.95 289.45 Q154.95 288.35 155.5 287.95 156.4 287.25 158.85 289.1 M214.6 400.7 Q215.6 401.45 217.0 403.35 218.85 405.75 219.8 408.1 219.65 408.65 214.6 400.7 M555.3 362.7 Q554.4 362.7 554.1 362.05 L554.1 361.35 Q554.1 359.65 555.45 359.7 556.8 359.7 556.8 361.2 556.8 362.7 555.3 362.7 M506.45 372.75 Q506.45 373.45 505.6 373.8 504.4 373.8 504.4 372.1 504.4 370.55 505.5 370.85 506.45 371.2 506.45 372.75 M40.75 166.15 Q38.65 166.15 38.2 164.85 L38.2 163.65 Q38.2 160.85 40.55 161.35 42.95 161.85 42.95 163.7 42.95 164.5 42.1 165.35 41.3 166.15 40.75 166.15 M61.9 192.95 Q61.9 191.95 62.55 191.5 L65.65 191.35 66.0 192.7 65.45 193.8 64.9 194.35 Q62.75 194.7 62.15 193.95 61.9 193.65 61.9 192.95 M88.75 239.5 L86.75 239.35 86.7 238.9 Q86.55 238.6 86.55 237.6 86.55 236.55 87.4 236.35 L89.55 236.4 89.9 238.2 88.75 239.5 M59.3 232.35 L58.8 233.3 57.95 233.3 57.6 233.2 57.55 232.55 Q57.55 231.9 57.95 231.8 L58.4 231.65 59.3 232.35 M64.8 294.45 Q66.4 296.2 66.4 297.65 66.4 299.2 66.15 298.35 L65.9 299.0 64.6 299.25 Q63.2 299.25 62.05 297.2 L60.8 294.65 61.05 292.85 Q63.0 292.3 64.8 294.45" fill="#936653" fill-rule="evenodd" stroke="none"/>
    <path d="M354.4 350.0 Q354.0 350.85 353.3 350.85 352.0 350.85 351.65 350.1 L351.6 349.15 Q351.6 347.8 353.2 347.3 354.75 346.9 354.75 348.5 L354.4 350.0 M290.2 437.2 L289.85 437.05 Q289.7 436.95 289.7 436.1 289.7 435.25 290.3 434.95 L290.85 434.75 Q291.5 434.95 291.9 435.9 L291.85 436.85 Q291.35 437.2 290.2 437.2 M300.95 408.1 Q300.75 408.45 300.05 408.45 299.05 408.45 297.95 407.25 L297.0 406.05 Q297.0 404.35 298.85 405.45 300.55 406.55 301.1 407.6 L300.95 408.1 M347.05 429.75 Q348.9 431.4 348.8 432.4 L348.9 432.75 Q348.8 433.05 348.1 433.05 347.4 433.05 346.0 431.2 L345.05 429.75 347.05 429.75 M373.75 406.55 Q372.4 406.55 371.9 405.7 L371.7 404.55 Q371.7 403.05 373.3 403.1 374.9 403.25 374.9 404.55 374.9 406.55 373.75 406.55 M380.1 435.45 Q380.75 435.45 382.45 436.9 L380.45 436.9 379.95 436.1 379.95 435.9 380.1 435.45" fill="#5d3524" fill-rule="evenodd" stroke="none"/>
    <path d="M623.2 474.5 L623.2 477.2 17.2 477.2 17.2 474.5 623.2 474.5 M623.2 479.4 L623.2 480.05 17.2 480.05 17.2 479.4 623.2 479.4 M623.2 472.65 L17.2 472.65 17.2 472.2 623.2 472.2 623.2 472.65" fill="#6e727b" fill-rule="evenodd" stroke="none"/>
    <path d="M623.2 474.5 L17.2 474.5 17.2 472.65 623.2 472.65 623.2 473.0 17.7 473.0 17.7 473.4 623.2 473.4 623.2 474.5" fill="#9498a1" fill-rule="evenodd" stroke="none"/>
    <path d="M623.2 473.4 L17.7 473.4 17.7 473.0 623.2 473.0 623.65 473.0 623.65 473.4 623.2 473.4" fill="#e7e7e7" fill-rule="evenodd" stroke="none"/>
    <path d="M17.2 477.2 L623.2 477.2 623.2 479.4 17.2 479.4 17.2 477.2" fill="#494c54" fill-rule="evenodd" stroke="none"/>
    <path d="M622.5 0.5 L622.75 0.0 638.4 17.35 639.4 18.9 639.7 20.75 Q639.45 42.45 639.35 64.1 L638.85 27.75 638.85 18.9 638.7 18.85 638.35 18.4 634.85 14.15 624.9 2.95 622.5 0.5 M639.9 447.3 L639.7 463.05 623.45 479.45 623.35 479.45 623.2 479.15 630.4 471.55 630.7 471.25 638.85 463.05 639.1 462.8 639.1 462.3 639.2 446.4 639.9 446.4 639.9 447.3 M622.2 476.8 L621.2 474.7 634.8 460.45 634.15 460.95 634.45 460.65 635.1 460.05 635.3 459.95 635.5 459.7 635.8 458.95 635.7 446.15 635.95 446.1 635.65 446.1 634.95 27.75 634.8 19.85 634.95 19.7 621.05 5.15 620.2 5.15 621.85 2.0 628.15 9.05 637.05 19.1 637.05 27.75 637.4 446.1 638.2 446.1 638.25 446.1 638.2 446.4 638.2 449.1 638.2 450.95 637.35 461.7 636.55 462.5 622.2 476.8 M632.45 21.45 L631.7 20.45 619.8 7.5 620.05 7.5 620.05 7.45 620.45 7.3 632.8 20.4 632.9 20.35 632.9 20.45 632.9 20.55 632.9 20.75 632.4 21.05 632.25 20.95 632.4 21.2 632.25 21.1 632.45 21.45 M635.0 20.0 L635.0 19.85 634.85 19.9 635.0 20.0" fill="#6e727b" fill-rule="evenodd" stroke="none"/>
    <path d="M635.0 20.0 L634.85 19.9 635.0 19.85 635.0 20.0" fill="#60646b" fill-rule="evenodd" stroke="none"/>
    <path d="M633.65 446.4 L635.7 446.15 635.8 458.95 635.5 459.7 635.3 459.95 635.5 459.5 633.9 458.65 634.15 458.3 633.8 458.65 633.75 458.5 633.65 446.4 M635.65 446.1 L633.65 446.3 632.9 20.75 632.9 20.55 633.05 20.7 Q633.95 20.25 634.8 19.85 L634.95 27.75 635.65 446.1" fill="#57595d" fill-rule="evenodd" stroke="none"/>
    <path d="M639.35 64.1 L639.35 76.2 639.95 447.4 639.9 447.3 639.9 446.4 639.2 446.4 639.1 462.3 639.1 462.8 638.85 463.05 630.7 471.25 639.05 462.5 Q638.9 462.5 638.7 457.15 L638.35 448.3 638.25 446.4 638.7 446.4 638.25 446.1 638.25 445.25 638.25 441.25 638.2 446.1 637.4 446.1 637.05 27.75 637.05 19.1 628.15 9.05 621.85 2.0 Q621.4 1.5 621.9 1.85 L622.35 0.95 626.65 5.7 638.05 18.6 638.35 18.4 638.7 18.85 638.85 18.9 638.85 27.75 639.35 64.1 M622.25 477.1 L622.2 476.8 636.55 462.5 630.4 469.1 622.25 477.1 M621.2 474.7 L620.7 473.35 620.85 473.2 630.4 462.85 633.9 458.65 635.5 459.5 635.3 459.95 635.1 460.05 634.45 460.65 634.15 460.95 634.8 460.45 621.2 474.7 M620.15 472.35 L619.7 471.25 632.95 457.65 632.95 446.4 633.65 446.4 633.75 458.5 633.8 458.65 630.4 462.2 621.7 470.75 620.85 471.6 620.15 472.35 M633.65 446.3 L632.95 446.1 632.45 21.45 632.4 21.2 632.25 20.95 632.4 21.05 632.9 20.75 633.65 446.3 M632.9 20.55 L632.9 20.45 633.05 20.7 632.9 20.55 M638.2 450.95 L637.9 457.15 637.65 461.45 637.35 461.7 638.2 450.95" fill="#9498a1" fill-rule="evenodd" stroke="none"/>
    <path d="M620.7 473.35 L620.15 472.35 620.85 471.6 621.7 470.75 630.4 462.2 633.8 458.65 634.15 458.3 633.9 458.65 630.4 462.85 620.85 473.2 620.7 473.35 M622.35 0.95 L622.5 0.5 624.9 2.95 634.85 14.15 638.35 18.4 638.05 18.6 626.65 5.7 622.35 0.95" fill="#e7e7e7" fill-rule="evenodd" stroke="none"/>
    <path d="M623.2 479.15 L622.25 477.1 630.4 469.1 636.55 462.5 637.35 461.7 637.65 461.45 637.9 457.15 638.2 450.95 638.2 449.1 638.2 446.4 638.25 446.4 638.35 448.3 638.7 457.15 Q638.9 462.5 639.05 462.5 L630.7 471.25 630.4 471.55 623.2 479.15 M620.05 7.45 L619.85 7.1 619.45 6.85 620.2 5.15 621.05 5.15 634.95 19.7 634.8 19.85 Q633.95 20.25 633.05 20.7 L632.9 20.45 632.9 20.35 632.8 20.4 620.45 7.3 620.05 7.45 M638.2 446.1 L638.25 441.25 638.25 445.25 638.25 446.1 638.2 446.1" fill="#4d525d" fill-rule="evenodd" stroke="none"/>
    <path d="M622.7 2.4 L622.7 5.1 17.2 5.1 17.2 2.4 622.7 2.4 M622.7 7.3 L622.7 7.95 17.2 7.95 17.2 7.3 622.7 7.3 M622.7 0.55 L17.2 0.55 17.2 0.1 622.7 0.1 622.7 0.55" fill="#6e727b" fill-rule="evenodd" stroke="none"/>
    <path d="M622.7 2.4 L17.2 2.4 17.2 0.55 622.7 0.55 622.7 0.9 17.65 0.9 17.65 1.3 622.7 1.3 622.7 2.4" fill="#9498a1" fill-rule="evenodd" stroke="none"/>
    <path d="M622.7 1.3 L17.65 1.3 17.65 0.9 622.7 0.9 623.2 0.9 623.2 1.3 622.7 1.3" fill="#e7e7e7" fill-rule="evenodd" stroke="none"/>
    <path d="M17.2 5.1 L622.7 5.1 622.7 7.3 17.2 7.3 17.2 5.1" fill="#494c54" fill-rule="evenodd" stroke="none"/>
    <path d="M17.4 0.55 L17.15 0.05 1.5 17.4 Q0.85 18.15 0.5 18.95 0.2 19.9 0.2 20.8 L0.0 446.15 0.35 446.15 0.0 446.45 0.2 463.1 16.45 479.5 16.55 479.5 16.7 479.2 9.5 471.6 9.2 471.3 1.05 463.1 0.8 462.85 0.8 462.35 0.8 445.8 0.7 445.85 1.05 27.8 1.05 18.95 1.2 18.9 1.55 18.45 Q3.05 16.45 5.05 14.2 9.2 9.2 15.0 3.0 L17.4 0.55 M17.7 476.85 L18.7 474.75 5.1 460.5 5.75 461.0 5.45 460.7 4.8 460.1 4.6 460.0 4.4 459.75 Q4.1 459.5 4.1 459.0 L4.3 445.65 4.25 445.75 4.95 27.8 5.1 19.9 4.95 19.75 18.85 5.2 19.7 5.2 18.05 2.05 11.75 9.1 2.85 19.15 2.85 27.8 2.5 445.95 2.4 445.85 2.55 461.75 3.35 462.55 17.7 476.85 M7.45 21.5 L8.2 20.5 20.1 7.55 19.85 7.55 19.85 7.5 19.45 7.35 7.1 20.45 7.0 20.4 7.0 20.5 7.0 20.6 7.0 20.8 7.5 21.1 7.65 21.0 7.5 21.25 7.65 21.15 7.45 21.5 M4.9 20.05 L4.9 19.9 5.05 19.95 4.9 20.05" fill="#6e727b" fill-rule="evenodd" stroke="none"/>
    <path d="M4.9 20.05 L5.05 19.95 4.9 19.9 4.9 20.05" fill="#60646b" fill-rule="evenodd" stroke="none"/>
    <path d="M5.1 19.9 L4.95 27.8 4.25 445.75 4.3 445.65 4.1 459.0 Q4.1 459.5 4.4 459.75 L4.6 460.0 4.4 459.55 Q5.15 459.1 6.0 458.7 L5.75 458.35 6.1 458.7 6.15 458.55 7.0 20.8 7.0 20.6 6.85 20.75 5.1 19.9" fill="#57595d" fill-rule="evenodd" stroke="none"/>
    <path d="M18.05 2.05 Q18.5 1.55 18.0 1.9 L17.55 1.0 13.25 5.75 Q9.7 9.55 1.85 18.65 L1.55 18.45 1.2 18.9 1.05 18.95 1.05 27.8 0.7 445.85 0.8 445.8 0.8 462.35 0.8 462.85 1.05 463.1 9.2 471.3 0.85 462.55 1.2 457.2 1.8 447.15 1.7 449.15 2.0 457.2 Q2.15 461.55 2.25 461.5 L2.55 461.75 2.4 445.85 2.5 445.95 2.85 27.8 2.85 19.15 11.75 9.1 18.05 2.05 M17.65 477.15 L17.7 476.85 3.35 462.55 9.5 469.15 Q14.1 473.95 17.65 477.15 M18.7 474.75 L19.2 473.4 19.05 473.25 Q13.95 468.2 9.5 462.9 L6.0 458.7 Q5.15 459.1 4.4 459.55 L4.6 460.0 4.8 460.1 5.45 460.7 5.75 461.0 5.1 460.5 18.7 474.75 M19.75 472.4 L20.2 471.3 6.95 457.7 7.0 445.75 6.95 445.8 7.45 21.5 7.5 21.25 7.65 21.0 7.5 21.1 7.0 20.8 6.15 458.55 6.1 458.7 9.5 462.25 18.2 470.8 19.05 471.65 19.75 472.4 M7.0 20.6 L7.0 20.5 6.85 20.75 7.0 20.6 M1.7 446.15 L1.65 446.15 1.7 445.95 1.7 446.15" fill="#9498a1" fill-rule="evenodd" stroke="none"/>
    <path d="M17.55 1.0 L17.4 0.55 15.0 3.0 Q9.2 9.2 5.05 14.2 3.05 16.45 1.55 18.45 L1.85 18.65 Q9.7 9.55 13.25 5.75 L17.55 1.0 M19.2 473.4 L19.75 472.4 19.05 471.65 18.2 470.8 9.5 462.25 6.1 458.7 5.75 458.35 6.0 458.7 9.5 462.9 Q13.95 468.2 19.05 473.25 L19.2 473.4" fill="#e7e7e7" fill-rule="evenodd" stroke="none"/>
    <path d="M16.7 479.2 L17.65 477.15 Q14.1 473.95 9.5 469.15 L3.35 462.55 2.55 461.75 2.25 461.5 Q2.15 461.55 2.0 457.2 L1.7 449.15 1.8 447.15 1.2 457.2 0.85 462.55 9.2 471.3 9.5 471.6 16.7 479.2 M19.85 7.5 L20.05 7.15 20.45 6.9 19.7 5.2 18.85 5.2 4.95 19.75 5.1 19.9 6.85 20.75 7.0 20.5 7.0 20.4 7.1 20.45 19.45 7.35 19.85 7.5 M1.7 446.15 L1.7 445.95 1.65 446.15 1.7 446.15" fill="#4d525d" fill-rule="evenodd" stroke="none"/>
    <path d="M522.75 39.2 Q524.65 38.3 525.8 38.3 523.55 40.0 521.35 40.5 L520.75 40.35 522.75 39.2 M523.45 68.8 L523.6 69.8 523.45 71.05 522.2 71.65 Q520.75 70.3 520.75 69.85 520.75 67.95 523.3 68.5 L523.45 68.8 M546.9 190.1 Q548.0 191.45 548.0 192.2 L547.75 193.0 Q547.75 193.95 549.45 199.9 L549.15 200.65 Q548.85 201.05 548.0 201.05 546.7 201.05 545.6 197.15 L544.85 193.0 Q544.85 191.45 546.9 190.1 M366.25 41.65 Q365.2 44.35 364.7 49.6 L364.2 57.6 Q364.2 58.1 363.75 58.4 362.75 56.3 362.05 51.1 361.35 45.85 362.65 44.9 L366.25 41.65 M301.4 90.1 Q301.6 90.45 300.95 92.3 L300.4 92.45 300.25 91.8 Q300.6 90.3 301.4 90.1 M321.85 104.0 Q322.75 103.7 323.5 100.55 L323.0 105.5 322.65 107.5 322.2 107.5 321.7 106.85 Q321.3 106.4 321.1 105.35 320.85 104.3 321.85 104.0 M173.4 44.05 Q173.0 44.9 173.0 47.4 L172.4 47.25 172.4 44.6 Q173.0 44.05 173.4 44.05 M43.15 18.05 Q40.25 23.25 40.95 25.0 L40.7 25.3 Q40.4 25.0 40.4 23.25 40.4 20.25 43.15 18.05 M135.55 149.7 L135.8 151.25 136.25 152.95 136.25 153.1 Q135.25 152.9 134.95 152.1 L134.95 149.7 135.55 149.7 M63.75 178.1 Q65.05 180.45 66.75 185.4 L69.3 192.85 68.8 193.15 Q63.95 183.4 63.35 178.1 L63.75 178.1 M55.6 260.85 L56.95 263.15 57.6 264.85 Q57.6 266.25 57.05 265.2 L55.95 263.8 Q55.05 262.5 55.05 261.7 55.05 260.85 55.2 260.85 L55.6 261.0 55.6 260.85" fill="#704635" fill-rule="evenodd" stroke="none"/>
    <path d="M268.85 13.75 Q271.3 16.45 271.4 19.1 270.6 18.9 269.35 16.9 268.2 15.05 268.2 14.4 268.2 13.9 268.55 13.85 L268.85 13.75 M387.9 18.8 Q388.55 19.2 388.55 19.8 L387.9 20.2 387.4 20.1 387.35 19.55 Q387.35 19.05 387.6 18.9 L387.9 18.8 M256.6 23.4 L257.6 24.25 257.3 24.5 256.5 23.9 Q256.35 23.75 256.35 23.4 L256.6 23.4 M187.3 19.95 L187.3 20.05 185.75 19.25 184.3 18.3 Q186.2 18.9 187.3 19.95" fill="#9c6651" fill-rule="evenodd" stroke="none"/>
    <path d="M610.55 27.65 L609.25 27.85 Q608.95 28.5 608.95 27.3 608.95 24.5 611.6 24.6 L611.75 24.6 611.9 25.4 611.45 26.65 610.55 27.65 M547.8 26.3 L545.1 28.5 544.25 28.3 Q543.9 28.0 543.9 27.25 543.9 24.8 546.55 22.65 549.1 20.55 549.1 23.9 549.1 25.1 547.8 26.3 M509.25 58.5 L501.25 65.85 Q500.4 59.15 509.35 57.75 L509.25 58.5 M495.9 107.25 L492.8 113.2 492.3 112.95 Q492.15 112.85 492.15 112.05 492.15 110.85 494.0 106.75 496.05 102.05 497.75 101.4 497.6 103.9 495.9 107.25 M358.05 33.35 L358.05 32.35 358.15 31.0 Q359.0 31.0 359.85 31.5 360.85 32.0 361.15 32.8 L361.0 33.5 360.8 34.0 359.75 34.2 Q358.4 34.2 358.05 33.35 M349.6 64.35 L349.45 65.45 349.55 65.65 348.9 65.8 Q348.25 65.8 346.2 62.45 344.35 59.45 344.35 59.85 344.35 55.9 347.0 58.45 349.6 61.0 349.6 64.35 M288.65 72.3 L288.45 73.25 287.75 73.55 284.0 71.35 Q281.0 69.4 281.0 68.05 281.0 64.65 284.85 66.35 288.65 68.0 288.65 72.3 M162.3 55.3 Q156.3 49.75 147.7 37.7 L148.2 37.55 152.65 42.5 Q156.4 46.6 156.4 47.85 L162.45 54.95 162.3 55.3 M106.65 35.65 Q106.65 37.3 105.75 38.2 L104.8 38.2 104.6 38.15 104.55 37.35 Q104.55 35.15 105.8 33.65 L106.6 34.35 106.65 35.65 M106.95 74.55 L105.25 76.75 104.7 76.75 105.75 75.25 Q106.5 74.55 106.95 74.55" fill="#9c6651" fill-rule="evenodd" stroke="none"/>
  </g>
</svg>
