<?xml version="1.0" encoding="UTF-8" standalone="no"?>
<svg xmlns:ffdec="https://www.free-decompiler.com/flash" xmlns:xlink="http://www.w3.org/1999/xlink" ffdec:objectType="shape" height="63.9px" width="117.35px" xmlns="http://www.w3.org/2000/svg">
  <g transform="matrix(1.0, 0.0, 0.0, 1.0, -29.15, 0.0)">
    <path d="M34.7 24.7 L34.7 24.65 34.8 24.1 34.85 24.1 35.65 20.1 36.4 18.1 36.25 18.1 36.45 17.7 36.55 17.55 Q36.75 15.05 38.15 13.9 L133.5 13.9 Q136.65 14.4 138.75 15.0 L140.8 15.0 Q143.9 15.75 145.25 16.8 L144.2 46.8 141.9 48.0 Q143.4 48.5 144.35 49.4 L145.45 54.6 145.5 57.15 145.3 58.25 145.5 58.25 Q145.2 62.0 142.45 63.3 L132.45 63.9 121.15 63.7 107.95 63.05 96.25 62.8 Q76.45 63.45 51.75 63.8 43.55 63.85 40.15 61.95 L39.65 61.9 Q34.8 60.7 34.3 57.65 L34.45 57.65 34.45 57.6 34.3 57.45 34.3 57.05 34.25 57.05 33.35 52.65 33.4 52.65 33.4 52.6 33.35 52.6 33.25 52.1 32.95 49.5 33.05 49.5 33.05 49.45 32.95 49.45 32.9 48.9 32.85 48.9 Q32.6 45.1 32.75 40.85 L32.75 40.2 32.75 40.15 32.95 37.05 32.6 37.1 33.05 37.0 33.05 36.75 33.05 36.4 33.05 36.35 33.15 35.0 33.25 35.0 33.25 34.4 33.25 34.35 33.55 31.85 33.65 31.85 33.65 31.8 33.6 31.8 33.6 31.2 33.65 31.2 34.6 24.7 34.7 24.7" fill="#1e0101" fill-opacity="0.36078432" fill-rule="evenodd" stroke="none"/>
    <path d="M146.2 3.5 L145.1 39.5 142.75 40.9 Q144.25 41.5 145.3 42.6 L146.4 48.9 146.45 51.9 146.25 53.2 146.45 53.2 Q146.15 57.75 143.3 59.3 L132.9 60.0 121.15 59.75 107.4 58.95 95.3 58.65 Q74.7 59.45 49.05 59.85 35.05 60.05 34.5 53.75 L34.4 53.2 34.7 53.2 34.5 52.4 34.4 51.9 Q30.55 35.85 35.8 7.75 L36.75 4.95 Q37.25 1.65 42.1 1.3 L42.1 1.35 141.55 1.35 Q144.75 2.25 146.2 3.5" fill="url(#gradient0)" fill-rule="evenodd" stroke="none"/>
    <path d="M142.75 3.1 L141.65 39.3 Q140.5 40.0 139.25 40.65 140.7 41.3 141.8 42.35 L142.9 48.65 Q143.5 55.85 139.8 57.75 L129.4 58.55 Q124.85 58.6 117.65 58.25 L103.9 57.5 91.8 57.15 45.5 58.4 Q31.6 58.6 31.05 52.25 27.0 36.05 32.3 7.45 L33.3 4.55 Q33.4 1.45 34.85 0.0 L133.95 0.0 Q140.5 1.15 142.75 3.1" fill="#c58c3f" fill-rule="evenodd" stroke="none"/>
    <path d="M29.7 27.75 L52.75 26.7 Q73.85 26.7 88.7 29.7 103.15 32.65 103.35 36.75 103.15 40.85 88.7 43.8 73.85 46.85 52.75 46.85 L30.0 45.8 29.8 45.8 29.5 42.7 52.85 43.75 Q70.7 43.75 83.2 41.9 96.3 40.0 96.15 37.15 96.3 34.35 83.2 32.45 70.7 30.6 52.85 30.6 L29.3 31.6 29.5 27.8 29.7 27.75" fill="url(#gradient1)" fill-rule="evenodd" stroke="none"/>
    <path d="M29.4 32.35 L52.85 31.3 Q70.5 31.3 82.85 33.15 94.8 34.85 94.9 37.15 94.8 39.5 82.85 41.15 70.5 42.95 52.85 42.95 L29.6 42.0 29.4 42.0 Q29.1 37.45 29.3 32.35 L29.4 32.35" fill="url(#gradient2)" fill-rule="evenodd" stroke="none"/>
    <path d="M36.45 57.55 Q31.45 56.15 30.95 52.5 L57.1 53.3 Q71.45 52.9 97.5 46.6 117.35 41.75 140.4 41.7 L140.95 41.7 141.75 42.4 142.8 48.7 Q143.45 55.85 139.7 57.8 L129.3 58.55 117.55 58.3 103.85 57.5 91.7 57.2 Q71.15 57.95 45.4 58.4 39.9 58.5 36.45 57.55" fill="url(#gradient3)" fill-rule="evenodd" stroke="none"/>
    <path d="M30.3 21.55 L54.6 19.85 Q76.45 18.95 99.6 24.55 118.8 29.15 141.85 29.55 L141.75 34.7 Q118.8 34.45 101.15 29.45 78.2 23.0 56.8 23.0 L29.8 24.6 30.1 21.55 30.3 21.55 M29.7 25.3 L29.9 25.3 56.8 23.7 Q77.9 23.7 100.55 30.15 118.4 35.15 141.65 35.4 L141.55 39.3 139.15 40.7 139.7 40.95 Q116.75 41.05 97.0 45.9 71.25 52.15 57.1 52.5 44.15 52.85 31.05 51.75 L30.85 51.75 Q30.3 49.3 29.9 46.5 L52.75 47.6 Q74.15 47.6 89.2 44.5 104.7 41.35 104.6 36.75 104.7 32.2 89.2 29.05 74.15 25.95 52.75 25.95 L29.6 27.05 29.7 25.3 M142.05 22.55 L115.2 20.8 Q103.15 19.25 103.0 17.4 103.15 15.5 115.2 14.0 L142.4 12.25 142.05 22.55" fill="#c58c3f" fill-rule="evenodd" stroke="none"/>
    <path d="M141.95 25.95 Q122.45 25.35 108.85 22.95 94.6 20.4 94.5 17.05 94.6 13.75 108.85 11.2 122.55 8.7 142.5 8.1 L142.4 11.55 114.95 13.3 Q101.55 15.0 101.7 17.4 101.55 19.8 114.95 21.5 L142.05 23.3 141.95 25.95" fill="url(#gradient4)" fill-rule="evenodd" stroke="none"/>
    <path d="M31.25 13.0 L51.1 13.85 Q73.1 14.6 103.75 9.05 121.95 5.7 142.6 4.5 L142.5 7.4 Q122.35 8.0 108.45 10.45 93.05 13.25 93.25 17.05 93.05 20.85 108.45 23.6 122.15 26.1 141.95 26.75 L141.95 28.8 Q119.1 28.45 100.2 23.85 76.65 18.15 54.5 19.1 L30.2 20.8 31.25 13.0" fill="url(#gradient5)" fill-rule="evenodd" stroke="none"/>
    <path d="M141.9 29.5 L142.25 29.55 Q119.0 29.15 99.6 24.55 76.5 18.95 54.6 19.85 L30.2 21.5 30.2 20.75 54.6 19.1 Q76.8 18.2 100.2 23.85 119.15 28.4 141.95 28.75 L141.9 29.5 M142.6 4.45 Q122.1 5.65 104.0 8.95 73.2 14.6 51.25 13.85 L31.35 12.95 31.45 12.25 51.25 13.1 Q72.9 13.85 103.2 8.25 121.7 4.9 142.75 3.75 L142.6 4.45 M141.95 26.65 Q122.1 26.0 108.4 23.55 92.95 20.75 93.15 17.0 92.95 13.3 108.4 10.55 122.35 8.05 142.55 7.45 L142.55 8.05 Q122.8 8.65 109.1 11.1 94.75 13.7 94.75 17.0 94.75 20.4 109.1 22.95 122.6 25.35 141.95 26.05 L141.95 26.65 M142.05 23.15 L114.85 21.35 Q101.4 19.7 101.65 17.35 101.4 15.0 114.85 13.3 L142.45 11.55 142.45 12.2 115.35 13.9 Q103.3 15.45 103.05 17.35 103.3 19.3 115.35 20.8 L142.1 22.6 142.05 23.15 M141.65 35.45 Q118.4 35.15 100.55 30.1 77.95 23.7 56.9 23.7 L29.8 25.3 29.8 24.55 56.9 22.95 Q78.25 22.95 101.2 29.45 118.8 34.4 141.75 34.65 L141.65 35.45 M140.95 41.65 Q117.55 41.65 97.55 46.55 71.55 52.9 57.2 53.3 L31.1 52.45 31.0 52.25 30.85 51.7 Q44.05 52.8 57.05 52.45 71.25 52.1 97.05 45.85 116.75 41.0 139.75 40.95 140.4 41.2 140.95 41.65 M109.75 0.35 L115.0 0.35 103.5 2.25 Q72.7 7.85 50.15 6.25 L33.0 5.1 33.15 4.55 33.3 4.4 50.25 5.55 Q72.4 7.1 102.7 1.55 L109.75 0.35 M96.25 37.15 Q96.3 40.0 83.25 41.85 70.7 43.65 52.95 43.65 L29.5 42.65 29.45 42.0 52.95 42.95 Q70.5 42.95 82.95 41.15 94.8 39.45 94.9 37.15 94.8 34.8 82.95 33.15 70.5 31.3 52.95 31.3 L29.35 32.35 29.35 31.55 52.95 30.6 Q70.7 30.6 83.25 32.4 96.3 34.35 96.25 37.15 M104.65 36.75 Q104.85 41.3 89.2 44.45 74.15 47.55 52.9 47.55 L29.95 46.45 29.8 45.75 52.9 46.9 Q73.85 46.9 88.85 43.75 103.3 40.8 103.35 36.75 103.3 32.6 88.85 29.7 73.85 26.65 52.9 26.65 L29.15 27.85 29.65 27.75 29.65 27.0 52.9 26.0 Q74.15 26.0 89.2 29.0 104.85 32.2 104.65 36.75" fill="#ae7528" fill-rule="evenodd" stroke="none"/>
  </g>
  <defs>
    <linearGradient gradientTransform="matrix(0.0694, 0.0, 0.0, 0.0375, 89.6, 29.3)" gradientUnits="userSpaceOnUse" id="gradient0" spreadMethod="pad" x1="-819.2" x2="819.2">
      <stop offset="0.0" stop-color="#231204"/>
      <stop offset="0.5568627450980392" stop-color="#4f2909"/>
      <stop offset="1.0" stop-color="#693408"/>
    </linearGradient>
    <linearGradient gradientTransform="matrix(0.0452, 0.0034, -0.0033, 0.0125, 65.75, 36.2)" gradientUnits="userSpaceOnUse" id="gradient1" spreadMethod="pad" x1="-819.2" x2="819.2">
      <stop offset="0.0" stop-color="#b17536"/>
      <stop offset="1.0" stop-color="#ce9744"/>
    </linearGradient>
    <linearGradient gradientTransform="matrix(0.0271, 0.0158, -0.0105, 0.005, 61.9, 36.7)" gradientUnits="userSpaceOnUse" id="gradient2" spreadMethod="pad" x1="-819.2" x2="819.2">
      <stop offset="0.0" stop-color="#b17536"/>
      <stop offset="1.0" stop-color="#ce9744"/>
    </linearGradient>
    <linearGradient gradientTransform="matrix(-0.1823, 0.0208, -0.0042, -0.0121, 100.85, 35.95)" gradientUnits="userSpaceOnUse" id="gradient3" spreadMethod="pad" x1="-819.2" x2="819.2">
      <stop offset="0.0" stop-color="#b17536"/>
      <stop offset="1.0" stop-color="#ce9744"/>
    </linearGradient>
    <linearGradient gradientTransform="matrix(0.0503, 0.0, 0.0, 0.0109, 108.45, 16.85)" gradientUnits="userSpaceOnUse" id="gradient4" spreadMethod="pad" x1="-819.2" x2="819.2">
      <stop offset="0.0" stop-color="#b17536"/>
      <stop offset="1.0" stop-color="#ce9744"/>
    </linearGradient>
    <linearGradient gradientTransform="matrix(0.1562, -0.0101, 0.0029, 0.0146, 47.05, 19.35)" gradientUnits="userSpaceOnUse" id="gradient5" spreadMethod="pad" x1="-819.2" x2="819.2">
      <stop offset="0.0" stop-color="#b17536"/>
      <stop offset="1.0" stop-color="#ce9744"/>
    </linearGradient>
  </defs>
</svg>
