<?xml version="1.0" encoding="UTF-8" standalone="no"?>
<svg xmlns:ffdec="https://www.free-decompiler.com/flash" xmlns:xlink="http://www.w3.org/1999/xlink" ffdec:objectType="shape" height="24.25px" width="81.15px" xmlns="http://www.w3.org/2000/svg">
  <g transform="matrix(1.0, 0.0, 0.0, 1.0, -14.3, 5.35)">
    <path d="M29.6 -1.25 L29.7 1.8 26.3 1.85 26.25 5.75 29.0 5.8 28.9 8.9 26.2 8.9 26.15 15.3 29.65 15.35 29.55 18.55 23.3 18.5 23.6 -1.3 29.6 -1.25 M17.05 -1.25 L17.05 15.5 20.9 15.15 21.0 18.2 14.3 18.45 14.4 -1.3 17.05 -1.25 M33.75 -5.25 L35.3 9.3 36.7 -5.35 39.4 -4.9 36.4 18.7 33.75 18.9 30.9 -4.95 33.75 -5.25 M47.45 -1.25 L47.55 1.8 44.15 1.85 44.1 5.75 46.85 5.8 46.75 8.9 44.05 8.9 44.0 15.3 47.5 15.35 47.4 18.55 41.15 18.5 41.45 -1.3 47.45 -1.25 M75.4 -1.4 L76.15 18.55 73.55 18.75 73.15 8.5 71.9 15.9 69.5 16.2 68.0 8.15 67.7 18.65 64.95 18.65 65.6 -1.4 68.2 -1.4 68.2 -1.35 68.95 -1.35 70.6 8.65 72.1 -1.35 75.4 -1.4 M52.45 -1.25 L52.45 15.5 56.3 15.15 56.4 18.2 49.7 18.45 49.8 -1.3 52.45 -1.25 M90.1 -1.3 L90.4 -1.3 92.95 -0.8 Q95.35 0.15 95.45 5.5 95.3 9.2 93.35 10.55 91.9 11.5 90.45 11.45 L90.45 18.55 87.65 18.45 87.65 -1.1 90.1 -1.3 M83.15 -1.4 L85.9 18.15 83.3 18.2 82.85 15.45 80.4 15.5 80.1 18.75 77.35 18.8 79.75 -1.05 83.15 -1.4 M92.35 2.35 Q91.7 1.25 90.45 1.2 L90.4 8.65 Q91.45 8.55 91.9 8.1 92.5 7.55 92.6 5.25 L92.35 2.35 M81.4 6.0 L80.75 12.65 82.5 12.65 81.4 6.0" fill="#672208" fill-rule="evenodd" stroke="none"/>
  </g>
</svg>
