<?xml version="1.0" encoding="UTF-8" standalone="no"?>
<svg xmlns:ffdec="https://www.free-decompiler.com/flash" xmlns:xlink="http://www.w3.org/1999/xlink" ffdec:objectType="shape" height="26.15px" width="81.15px" xmlns="http://www.w3.org/2000/svg">
  <g transform="matrix(1.0, 0.0, 0.0, 1.0, -14.3, 7.25)">
    <path d="M29.6 -1.25 L29.7 1.8 26.3 1.85 26.25 5.75 29.0 5.8 28.9 8.9 26.2 8.9 26.15 15.3 29.65 15.35 29.55 18.55 23.3 18.5 23.6 -1.3 29.6 -1.25 M17.05 -1.25 L17.05 15.5 20.9 15.15 21.0 18.2 14.3 18.45 14.4 -1.3 17.05 -1.25 M39.4 -1.0 L36.4 18.75 33.75 18.9 30.9 -1.05 33.75 -1.3 35.3 10.9 36.7 -1.4 39.4 -1.0 M47.45 -1.25 L47.55 1.8 44.15 1.85 44.1 5.75 46.85 5.8 46.75 8.9 44.05 8.9 44.0 15.3 47.5 15.35 47.4 18.55 41.15 18.5 41.45 -1.3 47.45 -1.25 M68.2 -1.4 L68.2 -1.35 68.95 -1.35 70.6 8.65 72.1 -1.35 75.4 -1.4 76.15 18.55 73.55 18.75 73.15 8.5 71.9 15.9 69.5 16.2 68.0 8.15 67.7 18.65 64.95 18.65 65.6 -1.4 68.2 -1.4 M52.45 -1.25 L52.45 15.5 56.3 15.15 56.4 18.2 49.7 18.45 49.8 -1.3 52.45 -1.25 M92.95 -6.6 Q95.35 -5.35 95.45 1.6 95.3 6.4 93.35 8.15 91.9 9.4 90.45 9.35 L90.45 18.55 87.65 18.45 87.65 -7.0 90.1 -7.25 90.4 -7.25 Q91.9 -7.25 92.95 -6.6 M90.45 -4.0 L90.4 5.7 Q91.45 5.55 91.9 5.0 92.5 4.25 92.6 1.25 L92.35 -2.5 Q91.7 -3.95 90.45 -4.0 M83.15 -1.4 L85.9 18.15 83.3 18.2 82.85 15.45 80.4 15.5 80.1 18.75 77.35 18.8 79.75 -1.05 83.15 -1.4 M81.4 6.0 L80.75 12.65 82.5 12.65 81.4 6.0" fill="#672208" fill-rule="evenodd" stroke="none"/>
  </g>
</svg>
