<?xml version="1.0" encoding="UTF-8" standalone="no"?>
<svg xmlns:ffdec="https://www.free-decompiler.com/flash" xmlns:xlink="http://www.w3.org/1999/xlink" ffdec:objectType="shape" height="63.5px" width="115.4px" xmlns="http://www.w3.org/2000/svg">
  <g transform="matrix(1.0, 0.0, 0.0, 1.0, -31.35, 0.0)">
    <path d="M35.2 26.25 L35.2 26.2 35.3 25.65 35.35 25.65 36.15 21.85 36.95 20.0 36.8 20.0 37.0 19.55 37.05 19.45 Q37.25 17.05 38.65 15.95 L134.0 15.95 139.2 17.0 141.25 17.0 Q144.35 17.75 145.7 18.7 L144.7 47.25 142.4 48.35 Q143.85 48.85 144.85 49.7 L145.9 54.65 145.95 57.1 145.75 58.1 145.95 58.1 Q145.65 61.7 142.95 62.95 L132.9 63.5 121.6 63.3 108.4 62.65 96.75 62.45 52.25 63.4 Q44.05 63.45 40.65 61.65 L40.15 61.55 Q35.3 60.45 34.8 57.55 L34.95 57.55 34.95 57.5 34.8 57.35 34.8 56.95 33.85 52.8 33.9 52.8 33.9 52.75 33.85 52.75 33.75 52.25 33.45 49.8 33.55 49.8 33.55 49.75 33.45 49.75 33.4 49.25 33.35 49.25 Q33.1 45.65 33.25 41.55 L33.25 41.0 33.25 40.95 33.45 37.95 33.1 38.0 33.55 37.9 33.55 37.7 33.55 37.35 33.65 36.0 33.75 36.0 33.75 35.45 33.75 35.4 34.05 33.05 34.15 33.05 34.15 33.0 34.1 33.0 34.1 32.4 34.15 32.4 35.1 26.25 35.2 26.25" fill="#1e0101" fill-opacity="0.36078432" fill-rule="evenodd" stroke="none"/>
    <path d="M146.45 3.5 L145.4 39.5 143.05 40.9 Q144.55 41.5 145.6 42.6 L146.65 48.9 146.7 51.9 146.55 53.2 146.7 53.2 Q146.4 57.75 143.6 59.3 L133.35 60.0 121.8 59.75 108.3 58.95 96.4 58.65 Q76.15 59.45 50.9 59.85 37.15 60.05 36.6 53.75 L36.5 53.2 36.8 53.2 36.6 52.4 36.5 51.9 Q32.75 35.85 37.85 7.75 L38.85 4.95 Q39.3 1.65 44.1 1.3 L44.1 1.35 141.95 1.35 Q145.05 2.25 146.45 3.5" fill="url(#gradient0)" fill-rule="evenodd" stroke="none"/>
    <path d="M143.05 3.1 L142.0 39.3 139.65 40.65 Q141.1 41.3 142.15 42.35 L143.25 48.65 Q143.85 55.85 140.2 57.75 L129.95 58.55 Q125.45 58.6 118.4 58.25 L104.9 57.5 93.0 57.15 47.45 58.4 Q33.75 58.6 33.2 52.25 29.25 36.05 34.45 7.45 L35.4 4.55 Q35.55 1.45 36.95 0.0 L134.45 0.0 Q140.85 1.15 143.05 3.1" fill="#c58c3f" fill-rule="evenodd" stroke="none"/>
    <path d="M32.3 27.75 L54.95 26.7 Q75.7 26.7 90.3 29.7 104.55 32.65 104.75 36.75 104.55 40.85 90.3 43.8 75.7 46.85 54.95 46.85 L32.55 45.8 32.35 45.8 32.1 42.7 55.05 43.75 Q72.6 43.75 84.9 41.9 97.8 40.0 97.6 37.15 97.8 34.35 84.9 32.45 72.6 30.6 55.05 30.6 L31.9 31.6 32.1 27.8 32.3 27.75" fill="url(#gradient1)" fill-rule="evenodd" stroke="none"/>
    <path d="M32.0 32.35 L55.05 31.3 Q72.4 31.3 84.55 33.15 96.3 34.85 96.4 37.15 96.3 39.5 84.55 41.15 72.4 42.95 55.05 42.95 L32.2 42.0 32.0 42.0 Q31.7 37.45 31.9 32.35 L32.0 32.35" fill="url(#gradient2)" fill-rule="evenodd" stroke="none"/>
    <path d="M38.9 57.55 Q34.0 56.15 33.5 52.5 L59.2 53.3 Q73.35 52.9 98.95 46.6 118.5 41.75 141.15 41.7 L141.7 41.7 142.45 42.4 143.5 48.7 Q144.2 55.85 140.5 57.8 L130.25 58.55 118.65 58.3 105.2 57.5 93.25 57.2 Q73.05 57.95 47.75 58.4 42.35 58.5 38.9 57.55" fill="url(#gradient3)" fill-rule="evenodd" stroke="none"/>
    <path d="M32.85 21.55 L56.75 19.85 Q78.25 18.95 101.05 24.55 119.9 29.15 142.55 29.55 L142.45 34.7 Q119.9 34.45 102.55 29.45 80.0 23.0 58.95 23.0 L32.35 24.6 32.65 21.55 32.85 21.55 M32.3 25.3 L32.45 25.3 58.95 23.7 Q79.7 23.7 102.0 30.15 119.5 35.15 142.4 35.4 L142.3 39.3 139.9 40.7 140.5 40.95 Q117.9 41.05 98.45 45.9 73.15 52.15 59.2 52.5 46.5 52.85 33.6 51.75 L33.4 51.75 Q32.85 49.3 32.45 46.5 L54.95 47.6 Q76.0 47.6 90.8 44.5 106.05 41.35 105.95 36.75 106.05 32.2 90.8 29.05 76.0 25.95 54.95 25.95 L32.2 27.05 32.3 25.3 M142.75 22.55 L116.4 20.8 Q104.55 19.25 104.35 17.4 104.55 15.5 116.4 14.0 L143.15 12.25 142.75 22.55" fill="#c58c3f" fill-rule="evenodd" stroke="none"/>
    <path d="M142.65 25.95 Q123.5 25.35 110.15 22.95 96.1 20.4 96.0 17.05 96.1 13.75 110.15 11.2 123.6 8.7 143.25 8.1 L143.15 11.55 116.1 13.3 Q102.95 15.0 103.1 17.4 102.95 19.8 116.1 21.5 L142.75 23.3 142.65 25.95" fill="url(#gradient4)" fill-rule="evenodd" stroke="none"/>
    <path d="M33.8 13.0 L53.35 13.85 Q74.95 14.6 105.1 9.05 123.05 5.7 143.3 4.5 L143.25 7.4 Q123.4 8.0 109.75 10.45 94.6 13.25 94.75 17.05 94.6 20.85 109.75 23.6 123.2 26.1 142.65 26.75 L142.65 28.8 Q120.2 28.45 101.6 23.85 78.45 18.15 56.65 19.1 L32.75 20.8 33.8 13.0" fill="url(#gradient5)" fill-rule="evenodd" stroke="none"/>
    <path d="M142.6 29.55 Q119.75 29.15 100.65 24.55 77.9 18.95 56.35 19.85 L32.35 21.5 32.35 20.75 56.35 19.1 Q78.2 18.2 101.25 23.85 119.85 28.4 142.3 28.75 L142.25 29.5 142.6 29.55 M142.95 4.45 Q122.8 5.65 104.95 8.95 74.65 14.6 53.05 13.85 L33.5 12.95 33.6 12.25 53.05 13.1 Q74.35 13.85 104.15 8.25 122.35 4.9 143.05 3.75 L142.95 4.45 M142.9 8.05 Q123.45 8.65 109.95 11.1 95.85 13.7 95.85 17.0 95.85 20.4 109.95 22.95 123.25 25.35 142.3 26.05 L142.3 26.65 Q122.8 26.0 109.3 23.55 94.1 20.75 94.3 17.0 94.1 13.3 109.3 10.55 123.0 8.05 142.9 7.45 L142.9 8.05 M142.75 12.2 L116.15 13.9 Q104.3 15.45 104.05 17.35 104.3 19.3 116.15 20.8 L142.45 22.6 142.4 23.15 115.65 21.35 Q102.45 19.7 102.65 17.35 102.45 15.0 115.65 13.3 L142.75 11.55 142.75 12.2 M142.0 35.45 Q119.15 35.15 101.6 30.1 79.35 23.7 58.65 23.7 L32.0 25.3 32.0 24.55 58.65 22.95 Q79.65 22.95 102.2 29.45 119.55 34.4 142.1 34.65 L142.0 35.45 M141.35 41.65 Q118.3 41.65 98.6 46.55 73.05 52.9 58.95 53.3 L33.25 52.45 33.15 52.25 33.05 51.7 Q46.0 52.8 58.8 52.45 72.75 52.1 98.15 45.85 117.5 41.0 140.15 40.95 L141.35 41.65 M110.65 0.35 L115.8 0.35 104.45 2.25 Q74.2 7.85 52.0 6.25 L35.1 5.1 35.3 4.55 35.4 4.4 52.1 5.55 Q73.9 7.1 103.7 1.55 L110.65 0.35 M97.35 37.15 Q97.4 40.0 84.55 41.85 72.2 43.65 54.75 43.65 L31.7 42.65 31.65 42.0 54.75 42.95 Q72.05 42.95 84.25 41.15 95.9 39.45 96.05 37.15 95.9 34.8 84.25 33.15 72.05 31.3 54.75 31.3 L31.55 32.35 31.55 31.55 54.75 30.6 Q72.2 30.6 84.55 32.4 97.4 34.35 97.35 37.15 M105.6 36.75 Q105.8 41.3 90.4 44.45 75.65 47.55 54.7 47.55 L32.15 46.45 32.0 45.75 54.7 46.9 Q75.35 46.9 90.05 43.75 104.3 40.8 104.35 36.75 104.3 32.6 90.05 29.7 75.35 26.65 54.7 26.65 L31.35 27.85 31.85 27.75 31.85 27.0 54.7 26.0 Q75.65 26.0 90.4 29.0 105.8 32.2 105.6 36.75" fill="#ae7528" fill-rule="evenodd" stroke="none"/>
  </g>
  <defs>
    <linearGradient gradientTransform="matrix(0.0682, 0.0, 0.0, 0.0375, 90.85, 29.3)" gradientUnits="userSpaceOnUse" id="gradient0" spreadMethod="pad" x1="-819.2" x2="819.2">
      <stop offset="0.0" stop-color="#231204"/>
      <stop offset="0.5568627450980392" stop-color="#4f2909"/>
      <stop offset="1.0" stop-color="#693408"/>
    </linearGradient>
    <linearGradient gradientTransform="matrix(0.0444, 0.0034, -0.0032, 0.0125, 67.75, 36.2)" gradientUnits="userSpaceOnUse" id="gradient1" spreadMethod="pad" x1="-819.2" x2="819.2">
      <stop offset="0.0" stop-color="#b17536"/>
      <stop offset="1.0" stop-color="#ce9744"/>
    </linearGradient>
    <linearGradient gradientTransform="matrix(0.0266, 0.0158, -0.0103, 0.005, 63.95, 36.7)" gradientUnits="userSpaceOnUse" id="gradient2" spreadMethod="pad" x1="-819.2" x2="819.2">
      <stop offset="0.0" stop-color="#b17536"/>
      <stop offset="1.0" stop-color="#ce9744"/>
    </linearGradient>
    <linearGradient gradientTransform="matrix(-0.1792, 0.0208, -0.0041, -0.0121, 102.25, 35.95)" gradientUnits="userSpaceOnUse" id="gradient3" spreadMethod="pad" x1="-819.2" x2="819.2">
      <stop offset="0.0" stop-color="#b17536"/>
      <stop offset="1.0" stop-color="#ce9744"/>
    </linearGradient>
    <linearGradient gradientTransform="matrix(0.0494, 0.0, 0.0, 0.0109, 109.75, 16.85)" gradientUnits="userSpaceOnUse" id="gradient4" spreadMethod="pad" x1="-819.2" x2="819.2">
      <stop offset="0.0" stop-color="#b17536"/>
      <stop offset="1.0" stop-color="#ce9744"/>
    </linearGradient>
    <linearGradient gradientTransform="matrix(0.1536, -0.0101, 0.0029, 0.0146, 49.35, 19.35)" gradientUnits="userSpaceOnUse" id="gradient5" spreadMethod="pad" x1="-819.2" x2="819.2">
      <stop offset="0.0" stop-color="#b17536"/>
      <stop offset="1.0" stop-color="#ce9744"/>
    </linearGradient>
  </defs>
</svg>
