<?xml version="1.0" encoding="UTF-8" standalone="no"?>
<svg xmlns:ffdec="https://www.free-decompiler.com/flash" xmlns:xlink="http://www.w3.org/1999/xlink" ffdec:objectType="shape" height="25.45px" width="53.95px" xmlns="http://www.w3.org/2000/svg">
  <g transform="matrix(1.0, 0.0, 0.0, 1.0, -27.15, 6.4)">
    <path d="M39.85 -1.0 Q39.35 4.7 39.45 8.3 39.4 12.45 39.6 13.8 39.8 15.1 40.85 15.4 L40.85 15.45 Q41.8 15.55 42.05 13.7 L42.35 8.6 41.85 -1.6 44.65 -1.75 Q45.2 3.35 45.2 7.6 L45.15 9.6 45.15 10.15 Q45.15 18.4 41.2 18.75 L40.55 18.8 Q38.15 18.8 37.2 16.7 36.45 14.25 36.45 9.3 L36.45 8.3 36.45 7.05 Q36.45 3.8 36.9 -1.2 L39.85 -1.0 M34.55 -3.1 Q35.1 -0.7 35.25 2.3 L32.4 2.4 32.2 -0.2 Q32.0 -2.4 31.35 -2.55 L31.35 -2.5 Q30.5 -2.35 30.25 -0.15 29.95 1.65 31.95 4.05 33.95 6.5 34.7 8.15 35.3 9.85 35.3 11.7 35.3 13.55 34.75 15.5 34.1 18.75 31.45 19.0 28.65 18.95 27.9 15.7 27.35 13.45 27.15 10.95 L29.95 10.45 30.25 12.75 Q30.45 15.05 31.35 15.1 31.95 14.9 32.15 12.7 32.6 10.25 30.75 8.1 28.9 5.9 28.25 4.15 27.15 1.8 27.4 -1.15 L27.75 -3.05 Q28.4 -6.15 31.3 -6.4 33.85 -6.25 34.55 -3.1 M80.95 -1.8 L81.1 1.45 78.65 1.45 78.6 18.8 75.7 18.65 75.75 1.45 73.2 1.35 73.25 -1.8 80.95 -1.8 M71.45 -1.7 L71.7 19.0 68.9 19.05 68.7 -1.7 71.45 -1.7 M59.9 -1.75 L61.6 8.6 63.15 -1.75 66.55 -1.8 67.3 18.8 64.6 19.0 64.2 8.45 62.95 16.1 60.45 16.4 58.9 8.05 58.6 18.9 55.75 18.9 56.4 -1.8 59.9 -1.75 M48.2 -1.6 L49.05 -1.65 Q51.4 -1.65 52.25 -1.15 54.25 -0.3 54.35 3.1 54.45 6.2 52.5 8.0 54.5 9.4 54.6 12.55 54.6 17.4 52.1 18.4 L49.45 18.9 49.15 18.9 46.65 18.7 46.6 -1.55 48.2 -1.6 M51.05 2.4 Q50.7 1.8 50.0 1.7 L49.55 1.7 49.45 1.7 49.5 7.05 Q50.55 7.15 51.1 6.2 51.5 5.4 51.45 4.3 51.45 3.0 51.05 2.4 M51.65 12.8 Q51.6 11.1 51.0 10.5 50.55 10.1 49.5 10.0 L49.5 16.3 Q50.85 16.3 51.45 15.15 L51.65 12.8" fill="#672208" fill-rule="evenodd" stroke="none"/>
  </g>
</svg>
