<?xml version="1.0" encoding="UTF-8" standalone="no"?>
<svg xmlns:ffdec="https://www.free-decompiler.com/flash" xmlns:xlink="http://www.w3.org/1999/xlink" ffdec:objectType="shape" height="26.2px" width="53.95px" xmlns="http://www.w3.org/2000/svg">
  <g transform="matrix(1.0, 0.0, 0.0, 1.0, -27.15, 7.15)">
    <path d="M39.85 -6.2 Q39.35 1.0 39.45 5.55 39.4 10.75 39.6 12.5 39.8 14.1 40.85 14.5 L40.85 14.55 Q41.8 14.7 42.05 12.35 L42.35 5.9 41.85 -6.95 44.65 -7.15 Q45.2 -0.7 45.2 4.65 L45.15 7.15 45.15 7.85 Q45.15 18.3 41.2 18.75 L40.55 18.8 Q38.15 18.8 37.2 16.15 36.45 13.05 36.45 6.8 L36.45 5.55 36.45 3.95 Q36.45 -0.15 36.9 -6.45 L39.85 -6.2 M80.95 -1.8 L81.1 1.45 78.65 1.45 78.6 18.8 75.7 18.65 75.75 1.45 73.2 1.35 73.25 -1.8 80.95 -1.8 M71.45 -1.7 L71.7 19.0 68.9 19.05 68.7 -1.7 71.45 -1.7 M66.55 -1.8 L67.3 18.8 64.6 19.0 64.2 8.45 62.95 16.1 60.45 16.4 58.9 8.05 58.6 18.9 55.75 18.9 56.4 -1.8 59.9 -1.75 61.6 8.6 63.15 -1.75 66.55 -1.8 M49.05 -1.65 Q51.4 -1.65 52.25 -1.15 54.25 -0.3 54.35 3.1 54.45 6.2 52.5 8.0 54.5 9.4 54.6 12.55 54.6 17.4 52.1 18.4 L49.45 18.9 49.15 18.9 46.65 18.7 46.6 -1.55 48.2 -1.6 49.05 -1.65 M51.05 2.4 Q50.7 1.8 50.0 1.7 L49.55 1.7 49.45 1.7 49.5 7.05 Q50.55 7.15 51.1 6.2 51.5 5.4 51.45 4.3 51.45 3.0 51.05 2.4 M51.65 12.8 Q51.6 11.1 51.0 10.5 50.55 10.1 49.5 10.0 L49.5 16.3 Q50.85 16.3 51.45 15.15 L51.65 12.8 M31.35 1.4 L31.35 1.45 Q30.5 1.55 30.25 3.35 29.95 4.8 31.95 6.8 33.95 8.8 34.7 10.15 35.3 11.5 35.3 13.05 35.3 14.55 34.75 16.15 34.1 18.8 31.45 19.0 28.65 18.95 27.9 16.3 27.35 14.45 27.15 12.4 L29.95 12.0 30.25 13.9 Q30.45 15.75 31.35 15.8 31.95 15.65 32.15 13.85 32.6 11.85 30.75 10.1 28.9 8.3 28.25 6.85 27.15 4.95 27.4 2.55 L27.75 1.0 Q28.4 -1.55 31.3 -1.75 33.85 -1.65 34.55 0.95 35.1 2.9 35.25 5.35 L32.4 5.45 32.2 3.3 Q32.0 1.5 31.35 1.4" fill="#672208" fill-rule="evenodd" stroke="none"/>
  </g>
</svg>
