<?xml version="1.0" encoding="UTF-8" standalone="no"?>
<svg xmlns:ffdec="https://www.free-decompiler.com/flash" xmlns:xlink="http://www.w3.org/1999/xlink" ffdec:objectType="shape" height="25.2px" width="53.95px" xmlns="http://www.w3.org/2000/svg">
  <g transform="matrix(1.0, 0.0, 0.0, 1.0, -27.15, 6.15)">
    <path d="M39.85 -1.0 Q39.35 4.7 39.45 8.3 39.4 12.45 39.6 13.8 39.8 15.1 40.85 15.4 L40.85 15.45 Q41.8 15.55 42.05 13.7 L42.35 8.6 41.85 -1.6 44.65 -1.75 Q45.2 3.35 45.2 7.6 L45.15 9.6 45.15 10.15 Q45.15 18.4 41.2 18.75 L40.55 18.8 Q38.15 18.8 37.2 16.7 36.45 14.25 36.45 9.3 L36.45 8.3 36.45 7.05 Q36.45 3.8 36.9 -1.2 L39.85 -1.0 M48.2 -6.1 L49.05 -6.15 Q51.4 -6.15 52.25 -5.55 54.25 -4.5 54.35 -0.35 54.45 3.4 52.5 5.6 54.5 7.3 54.6 11.15 54.6 17.05 52.1 18.3 L49.45 18.9 49.15 18.9 46.65 18.65 46.6 -6.05 48.2 -6.1 M49.55 -2.1 L49.45 -2.1 49.5 4.45 Q50.55 4.55 51.1 3.4 51.5 2.45 51.45 1.1 51.45 -0.5 51.05 -1.2 50.7 -1.95 50.0 -2.1 L49.55 -2.1 M59.9 -1.75 L61.6 8.6 63.15 -1.75 66.55 -1.8 67.3 18.8 64.6 19.0 64.2 8.45 62.95 16.1 60.45 16.4 58.9 8.05 58.6 18.9 55.75 18.9 56.4 -1.8 59.9 -1.75 M71.45 -1.7 L71.7 19.0 68.9 19.05 68.7 -1.7 71.45 -1.7 M80.95 -1.8 L81.1 1.45 78.65 1.45 78.6 18.8 75.7 18.65 75.75 1.45 73.2 1.35 73.25 -1.8 80.95 -1.8 M51.0 8.65 Q50.55 8.15 49.5 8.05 L49.5 15.7 Q50.85 15.7 51.45 14.3 L51.65 11.45 Q51.6 9.4 51.0 8.65 M31.35 1.45 Q30.5 1.55 30.25 3.35 29.95 4.8 31.95 6.8 33.95 8.8 34.7 10.15 35.3 11.5 35.3 13.05 35.3 14.55 34.75 16.15 34.1 18.8 31.45 19.0 28.65 18.95 27.9 16.3 27.35 14.45 27.15 12.4 L29.95 12.0 30.25 13.9 Q30.45 15.75 31.35 15.8 31.95 15.65 32.15 13.85 32.6 11.85 30.75 10.1 28.9 8.3 28.25 6.85 27.15 4.95 27.4 2.55 L27.75 1.0 Q28.4 -1.55 31.3 -1.75 33.85 -1.65 34.55 0.95 35.1 2.9 35.25 5.35 L32.4 5.45 32.2 3.3 Q32.0 1.5 31.35 1.4 L31.35 1.45" fill="#672208" fill-rule="evenodd" stroke="none"/>
  </g>
</svg>
