<?xml version="1.0" encoding="UTF-8" standalone="no"?>
<svg xmlns:ffdec="https://www.free-decompiler.com/flash" xmlns:xlink="http://www.w3.org/1999/xlink" ffdec:objectType="shape" height="27.35px" width="118.9px" xmlns="http://www.w3.org/2000/svg">
  <g transform="matrix(1.0, 0.0, 0.0, 1.0, -253.85, -394.55)">
    <path d="M371.8 398.1 Q372.5 400.65 372.7 403.85 L368.95 403.95 368.7 401.2 Q368.4 398.8 367.6 398.7 366.45 398.85 366.15 401.2 365.75 403.15 368.4 405.8 371.0 408.45 371.9 410.15 372.75 411.95 372.75 413.95 372.75 415.9 372.05 418.05 371.15 421.5 367.7 421.75 L367.7 421.85 Q364.05 421.7 363.05 418.25 362.35 415.8 362.05 413.15 L365.75 412.65 366.15 415.1 Q366.45 417.5 367.6 417.6 368.4 417.45 368.65 415.05 369.2 412.45 366.85 410.05 364.35 407.75 363.5 405.8 362.05 403.35 362.4 400.2 L362.85 398.2 Q363.75 394.8 367.45 394.55 370.85 394.65 371.8 398.1 M355.5 398.95 L355.45 404.15 359.2 404.2 359.1 408.5 355.4 408.45 355.3 417.1 360.1 417.2 359.95 421.6 351.5 421.45 351.85 394.6 360.05 394.65 360.15 398.85 355.5 398.95 M329.7 394.6 Q333.45 394.7 334.35 398.2 335.3 401.65 335.3 408.2 335.3 414.8 334.35 418.25 333.45 421.7 329.7 421.85 325.95 421.5 325.05 418.1 324.1 414.75 324.1 408.2 L324.2 408.2 Q324.2 401.65 325.05 398.25 326.0 394.85 329.7 394.6 M329.85 398.8 Q328.65 398.95 328.4 401.35 328.1 403.65 328.1 408.2 328.1 412.7 328.4 415.1 328.65 417.45 329.85 417.6 330.95 417.5 331.2 415.1 331.55 412.7 331.55 408.2 L331.3 401.25 Q330.95 398.85 329.85 398.75 L329.85 398.8 M341.25 394.6 L344.6 394.85 Q348.15 395.85 348.45 403.85 348.25 408.55 345.95 410.5 L349.35 421.35 345.65 421.75 342.6 411.9 341.65 411.95 341.65 421.5 337.9 421.45 337.9 394.85 341.25 394.6 M344.25 399.5 Q343.7 397.6 341.65 398.0 L341.65 408.05 Q343.05 407.95 343.7 407.35 344.45 406.65 344.6 403.45 L344.25 399.5 M321.2 398.2 Q321.85 400.65 322.05 404.6 L318.4 405.1 318.1 401.25 Q317.85 398.85 316.7 398.8 315.5 399.0 315.25 401.35 314.95 403.7 314.95 408.25 314.95 412.75 315.25 415.1 315.5 417.45 316.7 417.6 317.85 417.55 318.15 415.15 L318.4 411.25 322.1 411.45 Q321.9 415.65 321.2 418.25 320.3 421.7 316.55 421.85 312.8 421.6 311.9 418.2 311.05 414.8 311.05 408.25 L310.95 408.25 Q310.95 401.65 311.9 398.25 312.8 394.85 316.55 394.6 320.2 394.7 321.2 398.2 M303.65 394.55 Q307.05 394.65 308.0 398.1 308.7 400.65 308.9 403.85 L305.2 403.95 304.95 401.2 Q304.6 398.8 303.8 398.7 302.65 398.85 302.35 401.2 301.95 403.15 304.6 405.8 307.2 408.45 308.15 410.15 308.95 411.95 308.95 413.95 308.95 415.9 308.25 418.05 307.4 421.5 303.9 421.75 L303.9 421.85 Q300.25 421.7 299.25 418.25 298.6 415.8 298.25 413.15 L301.95 412.65 302.35 415.1 Q302.65 417.5 303.8 417.6 304.6 417.45 304.85 415.05 305.45 412.45 303.05 410.05 300.6 407.75 299.7 405.8 298.25 403.35 298.65 400.2 298.7 399.4 299.1 398.2 299.95 394.8 303.65 394.55 M282.35 394.65 L282.35 417.45 287.55 416.95 287.7 421.1 278.65 421.45 278.75 394.6 282.35 394.65 M276.1 421.1 L267.05 421.45 267.2 394.6 270.75 394.65 270.75 417.45 276.0 416.95 276.1 421.1 M261.7 394.55 L265.5 420.95 261.9 421.1 261.35 417.3 258.05 417.45 257.65 421.85 253.85 421.9 257.1 394.9 261.7 394.55 M260.85 413.6 L259.4 404.55 258.45 413.55 260.85 413.6" fill="#333333" fill-rule="evenodd" stroke="none"/>
    <path d="M360.05 394.8 L352.35 394.75 352.0 421.45 351.55 421.45 351.95 394.6 360.05 394.65 360.05 394.8 M359.25 404.2 L359.25 404.3 355.95 404.25 355.95 404.15 359.25 404.2 M367.5 394.55 L368.95 394.8 367.95 394.65 Q364.25 394.9 363.35 398.3 362.95 399.5 362.9 400.3 362.55 403.45 364.0 405.9 364.9 407.85 367.3 410.2 369.7 412.55 369.1 415.15 368.9 417.55 368.05 417.75 L367.65 417.65 Q368.5 417.35 368.7 415.0 369.3 412.45 366.85 410.1 364.45 407.75 363.55 405.8 362.1 403.35 362.5 400.2 L362.9 398.2 Q363.8 394.8 367.5 394.55 M367.95 398.85 L368.05 398.8 Q368.9 398.9 369.25 401.3 L369.45 404.0 369.0 404.0 368.8 401.2 Q368.55 399.3 367.95 398.85 M365.85 412.85 L362.55 413.25 Q362.85 415.95 363.55 418.35 364.35 421.0 366.65 421.7 364.0 421.15 363.1 418.25 362.4 415.85 362.1 413.15 L365.8 412.65 365.85 412.85 M344.3 399.5 Q343.95 398.35 343.15 398.05 344.3 398.2 344.75 399.6 345.05 400.55 345.15 403.55 344.9 406.8 344.15 407.45 343.5 408.05 342.2 408.15 L342.2 408.0 Q343.2 407.85 343.75 407.35 344.5 406.65 344.7 403.45 344.65 400.45 344.3 399.5 M360.15 417.15 L360.15 417.25 355.8 417.2 355.8 417.1 360.15 417.15 M338.4 394.95 L338.4 421.45 337.95 421.45 337.95 394.85 341.25 394.6 344.7 394.85 344.95 394.95 341.7 394.75 338.4 394.95 M317.1 398.9 L317.15 398.9 Q318.3 399.0 318.55 401.35 L318.9 405.05 318.45 405.1 318.15 401.25 Q317.9 399.35 317.1 398.9 M318.2 394.9 L317.05 394.75 Q313.25 394.95 312.4 398.35 311.45 401.75 311.45 408.4 L311.5 408.4 Q311.5 414.9 312.4 418.3 313.05 420.95 315.55 421.7 312.75 421.05 312.0 418.2 311.05 414.8 311.05 408.3 L311.0 408.3 Q311.0 401.65 312.0 398.25 312.85 394.85 316.65 394.6 L318.2 394.9 M330.35 398.9 L330.35 398.85 Q331.45 399.0 331.8 401.35 L332.0 408.3 331.75 415.25 Q331.45 417.6 330.35 417.75 L329.95 417.65 Q331.05 417.45 331.3 415.15 L331.6 408.15 331.35 401.25 Q331.1 399.4 330.35 398.9 M331.35 394.9 L330.2 394.75 Q326.5 394.95 325.55 398.35 324.65 401.75 324.65 408.3 L324.6 408.3 Q324.6 414.85 325.55 418.25 326.3 420.95 328.85 421.7 325.9 421.05 325.1 418.15 324.2 414.75 324.2 408.15 L324.25 408.15 Q324.25 401.65 325.1 398.25 326.05 394.85 329.75 394.6 L331.35 394.9 M342.7 412.1 L343.1 412.0 346.1 421.7 345.7 421.75 342.7 412.1 M322.15 411.55 L318.9 411.4 318.6 415.3 Q318.3 417.65 317.15 417.75 L316.85 417.65 Q317.85 417.45 318.2 415.2 L318.45 411.25 322.15 411.45 322.15 411.55 M304.15 398.85 L304.25 398.8 Q305.1 398.9 305.45 401.3 L305.65 404.0 305.25 404.0 305.0 401.2 Q304.75 399.3 304.15 398.85 M304.15 394.65 Q300.45 394.9 299.55 398.3 L299.1 400.3 Q298.75 403.45 300.2 405.9 301.05 407.85 303.5 410.2 305.9 412.55 305.35 415.15 305.1 417.55 304.25 417.75 L303.9 417.65 Q304.7 417.35 304.9 415.0 305.5 412.45 303.1 410.1 300.6 407.75 299.75 405.8 298.3 403.35 298.7 400.2 298.75 399.4 299.1 398.2 300.05 394.8 303.75 394.55 L305.1 394.8 304.15 394.65 M302.05 412.85 L298.75 413.25 Q299.05 415.95 299.75 418.35 300.55 421.0 302.85 421.7 300.2 421.15 299.35 418.25 298.65 415.85 298.3 413.15 L302.0 412.65 302.05 412.85 M282.4 394.8 L279.25 394.75 279.15 421.45 278.7 421.45 278.85 394.6 282.4 394.65 282.4 394.8 M276.05 417.1 L271.3 417.55 271.3 417.45 276.05 416.95 276.05 417.1 M287.6 417.1 L282.85 417.55 282.85 417.45 287.6 416.95 287.6 417.1 M270.85 394.8 L267.7 394.75 267.55 421.45 267.1 421.45 267.25 394.6 270.85 394.65 270.85 394.8 M261.8 394.55 L261.85 394.75 257.6 395.05 254.4 421.9 253.9 421.9 257.2 394.95 261.8 394.55 M261.85 417.45 L262.4 421.05 261.95 421.05 261.5 417.5 261.85 417.45 M259.7 406.2 L259.85 404.65 261.3 413.7 258.9 413.65 258.9 413.5 260.9 413.6 259.7 406.2" fill="#808080" fill-rule="evenodd" stroke="none"/>
  </g>
</svg>
