<?xml version="1.0" encoding="UTF-8" standalone="no"?>
<svg xmlns:ffdec="https://www.free-decompiler.com/flash" xmlns:xlink="http://www.w3.org/1999/xlink" ffdec:objectType="shape" height="281.2px" width="390.1px" xmlns="http://www.w3.org/2000/svg">
  <g transform="matrix(1.0, 0.0, 0.0, 1.0, -122.6, -78.7)">
    <path d="M291.3 357.05 L286.45 357.3 280.95 357.9 291.3 357.05 M465.1 276.35 L465.2 276.2 465.35 276.35 465.85 276.35 465.85 276.9 466.05 277.15 466.05 277.2 481.45 294.05 482.45 295.65 482.75 297.55 482.25 342.45 465.4 359.4 465.25 359.4 465.25 359.55 456.1 359.55 450.35 358.95 431.9 358.7 Q430.85 359.6 423.6 359.55 L411.3 359.45 Q406.3 359.3 405.35 359.55 L336.05 359.55 Q322.4 357.55 318.65 358.5 305.85 361.35 277.25 358.3 242.05 361.45 222.45 357.85 L221.9 357.85 220.0 357.85 221.05 357.85 213.7 357.85 203.75 359.55 181.85 359.55 181.7 359.65 181.65 359.65 164.75 342.75 164.2 297.85 Q164.2 296.9 164.6 295.95 L165.55 294.35 181.8 276.45 181.95 276.75 181.95 276.35 465.1 276.35" fill="#000000" fill-opacity="0.2" fill-rule="evenodd" stroke="none"/>
    <path d="M202.5 99.8 Q208.55 97.95 215.95 98.85 L217.0 99.0 217.05 99.0 221.2 99.7 Q228.0 101.35 235.95 104.8 L238.6 106.05 239.05 105.4 239.25 105.1 239.4 104.85 239.55 104.55 239.65 104.5 239.8 104.3 239.9 104.2 239.85 104.15 Q241.15 102.45 242.5 102.05 L242.4 101.95 242.55 102.0 242.65 102.0 244.5 102.2 245.5 102.95 245.9 103.25 246.45 104.05 246.55 104.15 Q267.95 138.95 288.6 175.55 L288.05 175.4 296.65 190.35 301.6 198.8 331.15 248.55 351.5 281.55 359.95 295.6 359.45 295.95 359.95 296.9 354.3 300.3 Q321.85 246.3 282.5 179.45 L281.75 179.15 281.0 178.9 Q280.85 178.75 280.7 178.75 L276.75 177.25 Q264.25 172.65 253.8 171.25 L248.8 170.65 248.4 170.65 Q235.15 169.85 225.75 174.85 230.8 186.6 234.1 199.95 L234.2 200.35 Q234.55 201.6 234.05 204.9 231.4 214.6 217.45 228.35 203.4 242.1 168.7 248.5 176.2 243.05 179.95 235.75 183.55 228.8 182.9 222.15 180.6 227.1 174.8 229.0 L165.3 231.85 Q154.75 234.3 139.45 223.65 L137.85 222.45 138.65 222.45 139.4 222.45 143.55 222.25 143.7 222.25 Q154.0 220.9 163.95 214.4 L167.3 211.95 169.05 210.5 173.35 206.75 176.05 204.15 176.95 203.3 178.4 201.65 183.05 196.45 183.2 196.1 183.35 196.1 Q183.4 195.7 183.55 195.7 L187.15 190.95 187.1 190.95 188.05 189.6 189.0 188.15 189.85 187.1 189.85 187.05 192.6 183.0 Q184.65 169.9 180.0 154.05 L180.1 145.6 Q180.0 144.65 180.4 142.7 L180.3 142.55 180.4 141.6 Q181.2 130.0 183.75 121.5 185.3 116.5 187.45 112.6 192.8 102.95 202.05 99.95 L202.3 99.85 202.5 99.8" fill="#0e0000" fill-opacity="0.2784314" fill-rule="evenodd" stroke="none"/>
    <path d="M396.5 89.55 L396.65 89.55 397.45 89.1 Q396.5 89.45 396.5 89.55 M410.2 87.4 L410.6 87.35 415.2 86.75 414.8 86.95 415.5 86.95 Q427.65 86.25 438.15 89.45 441.9 90.65 445.5 92.35 L445.6 92.4 Q450.7 95.2 455.0 99.4 L455.2 99.7 455.7 100.1 Q463.0 107.6 468.05 119.3 L468.3 119.75 Q458.95 140.1 447.2 160.55 451.95 174.05 459.4 182.2 472.75 196.9 496.8 196.9 L505.05 196.2 Q496.75 204.8 485.65 208.6 478.15 211.35 471.75 211.35 465.25 211.35 454.25 206.1 L450.65 204.1 Q453.75 214.2 461.65 221.3 465.95 225.15 470.8 227.3 L470.95 227.3 474.6 228.6 Q479.15 229.85 484.15 229.75 433.45 240.2 413.75 220.6 399.65 206.4 394.05 189.2 L394.25 188.6 Q393.0 177.2 398.15 171.85 394.0 170.55 389.3 170.0 L389.05 169.95 388.05 169.85 387.6 169.8 380.95 169.5 380.8 169.5 380.15 169.5 379.55 169.5 377.8 169.65 Q370.1 170.0 361.2 171.85 L357.45 172.65 357.4 172.75 342.75 200.35 295.7 290.05 293.65 293.85 291.65 292.85 292.2 291.9 288.3 289.8 Q290.8 284.55 294.1 278.65 L295.85 275.25 Q311.9 245.3 351.15 169.65 L350.25 169.35 393.45 89.9 Q394.7 88.8 397.35 89.0 L397.5 89.0 397.65 89.0 Q397.5 89.0 397.5 89.1 397.35 89.4 397.75 89.4 L401.75 88.8 402.0 88.8 403.7 88.5 408.95 87.65 410.2 87.4" fill="#0e0000" fill-opacity="0.2784314" fill-rule="evenodd" stroke="none"/>
    <path d="M430.7 145.5 L440.35 135.9 Q445.75 161.5 457.2 174.15 470.6 188.85 494.65 188.85 L502.85 188.15 Q494.5 196.7 483.5 200.6 475.95 203.25 469.55 203.25 463.1 203.25 452.1 198.0 L448.5 196.1 Q451.55 206.15 459.45 213.25 463.75 217.05 468.55 219.2 L468.7 219.2 472.45 220.5 Q477.0 221.85 481.95 221.7 431.25 232.2 411.6 212.5 397.45 198.35 391.85 181.1 399.85 158.85 416.7 158.95 422.5 157.05 426.15 152.2 427.8 150.0 429.1 147.1 L430.7 145.5 M431.3 90.85 L431.2 89.85 431.8 90.3 431.3 90.85" fill="url(#gradient0)" fill-rule="evenodd" stroke="none"/>
    <path d="M354.6 160.3 Q355.75 161.1 356.85 161.3 321.35 229.55 291.95 284.9 L286.15 281.8 Q289.3 275.05 293.8 267.25 310.85 236.75 351.15 157.4 L354.6 160.3" fill="#794f36" fill-rule="evenodd" stroke="none"/>
    <path d="M349.35 160.85 L349.55 160.95 351.35 162.0 288.15 282.85 286.15 281.8 293.65 267.25 Q309.8 237.1 349.35 160.85" fill="#69412a" fill-rule="evenodd" stroke="none"/>
    <path d="M390.1 96.85 L291.45 285.8 289.45 284.75 Q292.75 278.2 304.35 258.0 315.95 237.7 362.1 147.5 408.2 57.25 390.1 96.85" fill="#69412a" fill-rule="evenodd" stroke="none"/>
    <path d="M447.55 96.6 L447.8 96.85 448.3 97.3 Q455.55 104.8 460.65 116.55 L460.85 116.95 Q449.65 141.35 422.35 188.55 418.6 193.0 406.6 179.75 395.55 170.9 392.35 182.3 390.35 168.7 396.75 163.1 L445.55 94.75 447.55 96.6" fill="#384d00" fill-rule="evenodd" stroke="none"/>
    <path d="M386.9 161.85 L387.1 161.85 387.1 161.95 386.9 161.85 M396.55 163.95 Q393.85 162.65 397.7 164.3 L396.9 164.0 396.55 163.95 M375.65 161.6 L375.65 161.5 378.0 161.45 375.65 161.6" fill="#4e6908" fill-rule="evenodd" stroke="none"/>
    <path d="M355.3 164.65 Q357.95 158.9 361.05 153.3 365.35 145.7 369.95 138.9 L369.3 140.6 361.75 158.4 359.0 163.8 355.3 164.65" fill="#415804" fill-rule="evenodd" stroke="none"/>
    <path d="M386.55 96.1 Q384.6 99.4 383.0 102.85 L371.2 126.05 Q362.3 143.5 356.7 155.25 351.15 166.95 351.05 159.2 363.95 136.7 374.05 115.55 382.2 98.45 391.85 82.7 L392.55 83.0 393.1 83.35 386.55 96.1" fill="#53700a" fill-rule="evenodd" stroke="none"/>
    <path d="M413.3 78.95 L397.1 96.5 Q372.65 130.55 375.75 159.6 383.45 159.95 385.85 161.8 L385.45 161.75 378.8 161.45 378.65 161.45 378.0 161.45 Q375.0 161.05 367.2 161.2 L367.95 153.45 Q368.3 146.95 369.35 140.6 L369.3 140.6 369.95 138.9 Q365.35 145.7 361.05 153.3 357.95 158.9 355.3 164.65 L353.95 164.9 Q351.75 162.5 348.1 161.3 L391.3 81.85 Q392.55 80.8 395.15 81.0 L395.3 81.0 395.45 81.0 395.3 81.05 Q395.15 81.35 395.55 81.35 395.7 81.9 395.15 83.7 L394.75 84.85 Q392.65 89.9 389.2 95.0 L390.05 93.9 394.45 88.45 400.25 81.6 401.5 80.45 406.8 79.55 408.05 79.35 408.4 79.25 413.05 78.7 412.6 78.95 413.3 78.95 M394.35 81.5 L394.45 81.5 395.25 81.05 Q394.35 81.4 394.35 81.5 M386.55 96.1 L393.1 83.35 392.55 83.0 391.85 82.7 Q382.2 98.45 374.05 115.55 363.95 136.7 351.05 159.2 351.15 166.95 356.7 155.25 362.3 143.5 371.2 126.05 L383.0 102.85 Q384.6 99.4 386.55 96.1" fill="#517100" fill-rule="evenodd" stroke="none"/>
    <path d="M401.5 80.45 L400.25 81.6 394.45 88.45 390.05 93.9 389.2 95.0 Q392.65 89.9 394.75 84.85 L395.15 83.7 Q395.7 81.9 395.55 81.35 L399.55 80.8 399.8 80.7 401.5 80.45 M369.3 140.6 L369.35 140.6 Q368.3 146.95 367.95 153.45 L367.2 161.2 Q375.0 161.05 378.0 161.45 L375.65 161.5 375.65 161.6 Q367.9 161.95 359.0 163.8 L361.75 158.4 369.3 140.6" fill="#496600" fill-rule="evenodd" stroke="none"/>
    <path d="M413.3 78.95 Q425.45 78.15 435.95 81.4 439.75 82.6 443.3 84.3 L443.4 84.4 Q448.55 87.15 452.75 91.35 L453.05 91.65 453.55 92.05 Q460.8 99.55 465.9 111.3 L466.1 111.7 Q448.5 150.2 422.05 188.8 420.35 184.55 418.2 181.0 L417.85 180.45 414.7 176.1 413.3 174.5 412.25 173.4 Q408.2 169.25 403.0 166.55 400.45 165.25 397.7 164.3 393.85 162.65 396.55 163.95 392.1 162.5 387.1 161.95 L387.1 161.85 386.9 161.85 385.85 161.8 Q383.45 159.95 375.75 159.6 372.65 130.55 397.1 96.5 L413.3 78.95" fill="url(#gradient1)" fill-rule="evenodd" stroke="none"/>
    <path d="M352.65 162.3 L394.05 81.9" fill="none" stroke="#597b03" stroke-linecap="butt" stroke-linejoin="round" stroke-width="1.0"/>
    <path d="M178.2 191.6 Q176.0 191.2 177.05 190.45 184.4 184.65 179.2 190.5 L178.2 191.6" fill="#71b3d9" fill-rule="evenodd" stroke="none"/>
    <path d="M178.2 191.6 L177.4 192.55 177.05 192.9 177.05 194.15 177.65 193.55 177.05 194.65 177.65 203.05 Q178.65 206.45 182.35 203.25 180.9 211.0 173.25 213.55 165.6 216.1 163.8 216.45 153.15 218.85 137.9 208.25 L136.25 207.05 137.1 207.05 137.85 207.05 142.0 206.8 142.2 206.8 Q152.5 205.5 162.35 198.9 L165.7 196.5 167.5 195.05 171.8 191.35 174.5 188.7 175.4 187.8 176.85 186.2 176.85 187.8 177.05 187.8 177.05 190.45 Q176.0 191.2 178.2 191.6" fill="url(#gradient2)" fill-rule="evenodd" stroke="none"/>
    <path d="M244.25 101.5 Q305.8 206.6 352.75 284.9 L358.45 281.45 350.1 267.35 Q329.85 235.35 279.45 147.55 229.1 59.7 244.25 101.5" fill="#794f36" fill-rule="evenodd" stroke="none"/>
    <path d="M246.6 98.75 L356.5 281.3 358.4 280.15 349.95 266.15 Q330.1 233.9 278.25 146.9 226.5 60.0 246.6 98.75" fill="#69412a" fill-rule="evenodd" stroke="none"/>
    <path d="M182.0 180.3 L185.6 175.55 185.55 175.55 186.5 174.15 187.45 172.7 188.3 171.65 188.3 171.6 188.35 171.6 Q199.2 155.75 209.55 132.8 222.25 160.7 231.55 182.0 L232.1 183.2 232.65 184.9 Q233.0 186.15 232.5 189.45 229.85 199.2 215.9 212.95 201.9 226.65 167.15 233.1 174.65 227.65 178.4 220.3 182.1 213.25 181.25 206.5 178.85 207.5 177.2 205.0 L177.05 205.25 176.55 192.65 177.05 187.8 176.85 187.8 176.85 186.2 181.45 181.0 181.65 180.65 181.8 180.65 Q181.85 180.3 182.0 180.3" fill="url(#gradient3)" fill-rule="evenodd" stroke="none"/>
    <path d="M221.55 186.8 L221.55 186.85 221.55 186.8" fill="#276d95" fill-rule="evenodd" stroke="none"/>
    <path d="M221.8 186.65 L222.5 186.45 Q214.15 191.35 207.8 189.55 197.55 183.05 187.45 149.3 183.8 144.95 193.45 145.25 L199.75 144.4 200.1 144.35 201.95 143.95 205.8 164.85 Q208.55 179.4 215.4 184.0 219.4 186.7 221.25 186.8 L221.35 186.8 221.55 186.8 221.8 186.65 M221.55 186.8 L221.55 186.85 221.55 186.8" fill="#0b4869" fill-rule="evenodd" stroke="none"/>
    <path d="M201.95 143.95 Q212.65 141.05 209.4 133.1 L210.15 134.2 210.15 134.05 210.45 134.55 Q225.5 156.0 232.6 184.55 231.6 183.55 230.45 183.35 L229.15 183.25 228.3 183.45 228.25 183.45 Q227.2 183.75 226.1 184.45 L222.5 186.35 221.8 186.65 221.55 186.8 221.35 186.8 221.25 186.8 Q219.4 186.7 215.4 184.0 208.55 179.4 205.8 164.85 L201.95 143.95" fill="#165477" fill-rule="evenodd" stroke="none"/>
    <path d="M210.55 172.3 L210.25 172.75 210.5 172.3 210.55 172.3" fill="#4d8fb4" fill-rule="evenodd" stroke="none"/>
    <path d="M238.4 88.8 L238.3 88.75 Q239.6 87.0 240.95 86.65 251.95 102.55 261.9 120.75 271.85 138.9 284.15 160.35 284.7 160.05 285.15 160.0 283.0 160.4 280.95 164.0 L280.2 163.75 Q280.2 163.6 280.4 163.6 L278.8 160.3 Q277.1 156.9 274.6 153.05 L275.0 153.75 Q267.0 140.2 259.35 126.4 253.2 115.35 246.65 104.55 L238.4 88.8 M272.25 150.55 L272.35 150.7 272.2 150.55 272.25 150.55" fill="#4788ad" fill-rule="evenodd" stroke="none"/>
    <path d="M240.95 86.65 L240.85 86.5 241.0 86.6 241.05 86.6 242.95 86.8 243.95 87.5 244.3 87.85 244.95 88.6 245.0 88.65 Q266.4 123.5 287.05 160.15 L286.35 159.95 285.15 160.0 Q284.7 160.05 284.15 160.35 271.85 138.9 261.9 120.75 251.95 102.55 240.95 86.65" fill="#26729c" fill-rule="evenodd" stroke="none"/>
    <path d="M234.4 89.35 L237.05 90.6 237.5 89.95 237.7 89.6 239.95 94.05 248.95 109.9 Q254.4 119.65 255.55 122.6 L250.05 113.65 240.45 98.95 Q235.95 92.25 234.4 89.35 M238.05 89.15 L238.1 89.05 Q239.05 89.95 238.05 89.15" fill="#1d638a" fill-rule="evenodd" stroke="none"/>
    <path d="M178.85 127.3 L178.75 127.15 178.85 126.2 Q179.65 114.55 182.2 106.05 183.75 101.1 185.85 97.15 191.25 87.5 200.5 84.5 L200.7 84.45 201.0 84.4 Q207.0 82.5 214.45 83.4 L215.45 83.55 215.55 83.55 219.6 84.3 Q224.7 87.6 230.4 92.2 235.95 96.6 243.55 108.4 L251.35 120.1 252.05 121.15 255.4 126.05 255.4 126.15 255.55 126.35 Q258.55 131.6 261.85 139.8 267.2 153.05 258.0 155.6 260.0 155.85 262.8 156.75 269.15 158.9 275.25 161.8 262.75 157.2 252.25 155.8 L247.3 155.25 246.8 155.25 Q222.1 153.75 210.55 172.3 L210.5 172.3 210.25 172.75 209.95 173.2 Q208.8 175.25 207.75 178.1 197.55 173.75 190.5 161.3 183.45 148.9 178.85 127.3" fill="url(#gradient4)" fill-rule="evenodd" stroke="none"/>
    <path d="M219.6 84.3 Q226.45 85.9 234.4 89.35 235.95 92.25 240.45 98.95 L250.05 113.65 255.55 122.6 Q254.4 119.65 248.95 109.9 L239.95 94.05 237.7 89.6 237.85 89.4 238.05 89.15 Q239.05 89.95 238.1 89.05 L238.25 88.85 238.4 88.8 246.65 104.55 Q253.2 115.35 259.35 126.4 267.0 140.2 275.0 153.75 L274.6 153.05 Q277.1 156.9 278.8 160.3 L280.4 163.6 Q280.2 163.6 280.2 163.75 L279.45 163.45 279.15 163.3 275.25 161.8 Q269.15 158.9 262.8 156.75 260.0 155.85 258.0 155.6 267.2 153.05 261.85 139.8 258.55 131.6 255.55 126.35 L255.4 126.15 255.4 126.05 252.05 121.15 251.35 120.1 243.55 108.4 Q235.95 96.6 230.4 92.2 224.7 87.6 219.6 84.3 M207.75 178.1 L207.6 178.55 207.0 180.65 Q206.15 183.9 205.55 187.9 199.25 182.5 194.85 173.45 184.2 158.15 178.5 138.6 178.4 134.25 178.55 130.15 178.5 129.15 178.85 127.3 183.45 148.9 190.5 161.3 197.55 173.75 207.75 178.1 M272.25 150.55 L272.2 150.55 272.35 150.7 272.25 150.55" fill="#106fa3" fill-rule="evenodd" stroke="none"/>
    <path d="M177.25 205.25 L177.15 202.6 225.45 202.6 Q221.7 207.4 207.25 222.65 192.85 237.75 157.35 242.95 160.7 240.55 159.7 240.85 172.4 228.5 176.15 221.35 179.85 214.15 181.45 206.5 179.05 207.5 177.4 205.0 L177.25 205.25" fill="url(#gradient5)" fill-rule="evenodd" stroke="none"/>
    <path d="M240.95 222.4 L241.05 222.1 242.8 221.85 243.4 222.0 243.6 222.2 243.85 222.2 249.55 224.85 Q250.9 225.7 250.75 226.45 L250.6 227.35 273.15 238.45 273.2 238.5 273.5 238.65 273.85 238.85 273.9 238.95 274.1 239.15 274.4 239.35 Q278.85 242.8 281.95 248.3 283.45 251.1 284.65 254.3 286.75 260.7 286.75 265.75 286.75 267.7 286.4 269.5 L286.25 270.15 286.05 271.05 Q285.4 273.75 284.1 276.0 L286.75 277.25 286.9 277.3 286.95 277.9 287.35 280.05 287.35 280.2 287.45 280.3 287.45 280.45 288.0 283.55 288.9 285.95 289.05 286.25 289.1 286.3 289.9 288.6 Q291.85 296.65 288.9 301.75 286.25 306.15 281.5 308.5 L281.45 308.5 281.0 308.7 280.9 308.8 280.2 309.15 Q277.25 310.35 274.1 310.0 L274.05 310.0 Q271.65 309.7 269.1 308.6 L268.6 308.35 266.85 307.6 262.55 307.65 262.05 307.65 241.75 307.3 240.35 307.3 236.5 307.25 235.1 308.1 234.6 308.3 230.5 309.85 Q225.75 311.15 221.15 310.05 218.3 309.55 215.15 307.9 L212.9 306.35 Q212.7 322.25 212.15 336.85 L205.3 325.8 205.1 325.4 201.0 318.85 200.85 318.55 198.45 314.7 198.45 315.0 192.75 305.65 192.7 305.6 192.7 305.5 189.25 299.85 Q188.3 299.6 188.0 297.2 187.15 289.05 187.25 286.3 L187.3 276.7 Q187.95 262.85 189.8 247.05 L189.9 247.1 189.9 246.95 Q178.7 240.0 167.0 232.1 L166.95 232.1 165.05 233.65 164.05 233.35 159.45 230.0 159.05 229.45 159.05 229.3 158.5 228.9 Q157.7 227.65 158.35 226.75 L158.75 226.45 140.7 213.6 138.05 215.15 136.55 215.55 Q134.7 216.0 133.15 215.05 L125.95 213.05 125.6 212.75 125.6 212.65 125.2 212.4 Q121.65 210.4 122.95 202.45 L122.95 202.35 123.3 199.1 123.45 198.45 123.65 197.75 123.75 197.55 124.0 195.1 Q124.9 189.95 128.25 183.95 131.7 177.95 135.55 174.65 L136.7 173.7 136.8 173.7 136.85 173.6 138.45 172.65 140.85 170.75 Q143.9 168.2 146.25 167.4 L146.4 167.4 Q147.45 167.05 148.35 167.05 L150.25 167.5 150.45 167.6 Q151.3 168.1 151.9 168.95 L152.0 168.95 152.35 169.15 152.7 169.65 152.7 169.7 157.0 174.9 157.3 175.0 157.45 175.15 157.7 175.55 157.95 175.85 158.0 176.05 158.75 181.5 158.75 181.6 158.75 182.05 178.25 191.7 178.25 191.6 178.3 190.95 Q178.85 190.5 179.4 190.65 L179.4 190.45 180.9 190.15 181.45 190.3 181.6 190.45 181.8 190.45 186.75 192.75 Q187.85 193.45 187.7 194.15 L187.5 195.1 187.3 195.95 187.3 196.15 240.55 222.4 240.95 222.4 M302.6 277.95 L302.75 277.9 302.8 277.75 302.8 278.0 302.6 277.95 M334.5 277.9 L334.6 277.95 333.85 277.95 333.9 277.9 334.35 277.2 334.5 277.9 M334.4 276.75 L334.4 276.25 334.5 275.15 334.4 276.75 M321.2 277.75 L321.3 277.2 321.7 277.9 321.8 277.95 321.2 278.0 321.2 277.75" fill="#0e0000" fill-opacity="0.2784314" fill-rule="evenodd" stroke="none"/>
    <path d="M482.95 173.8 L483.3 173.6 483.45 173.6 Q484.0 172.75 484.85 172.25 L485.05 172.15 Q485.9 171.8 486.95 171.7 L488.95 172.05 489.05 172.05 Q491.4 172.85 494.45 175.4 L496.9 177.3 498.5 178.25 498.5 178.35 498.6 178.35 499.8 179.3 Q503.6 182.6 507.05 188.6 510.4 194.6 511.3 199.75 L511.65 202.2 511.65 202.4 511.85 203.1 512.0 203.75 512.35 207.0 512.35 207.1 Q513.65 215.05 510.1 217.05 L509.75 217.3 509.7 217.4 509.35 217.7 Q502.55 219.45 502.15 219.7 500.6 220.65 498.75 220.2 L497.25 219.8 Q496.0 219.25 494.6 218.25 L476.6 231.1 476.95 231.4 Q477.6 232.3 476.8 233.55 L476.25 233.95 476.25 234.1 475.85 234.65 471.25 238.0 470.25 238.3 468.35 236.75 468.3 236.75 Q456.6 244.65 445.5 251.6 L445.4 251.75 445.5 251.7 Q447.35 267.5 448.0 281.35 L448.05 290.95 Q448.15 293.7 447.3 301.85 447.0 304.25 446.05 304.5 L442.6 310.15 442.6 310.25 442.55 310.3 436.85 319.65 436.85 319.35 434.45 323.2 434.3 323.5 430.2 330.05 430.0 330.45 423.15 341.5 Q422.6 326.9 422.4 311.0 L420.15 312.55 Q417.0 314.2 414.2 314.7 409.55 315.8 404.8 314.5 402.5 313.85 400.7 312.95 L400.2 312.75 398.8 311.9 394.95 311.95 393.55 311.95 373.25 312.3 372.75 312.3 368.5 312.25 366.7 313.0 366.2 313.25 Q363.65 314.35 361.25 314.65 L361.2 314.65 Q358.05 315.0 355.1 313.8 L354.4 313.45 354.3 313.35 353.85 313.15 353.8 313.15 Q349.05 310.8 346.4 306.4 343.45 301.3 345.4 293.25 L346.2 290.95 346.25 290.9 346.4 290.6 347.35 288.2 347.85 285.1 347.85 284.95 347.95 284.85 347.95 284.7 Q348.05 283.55 348.4 282.55 L348.4 281.95 348.55 281.9 351.2 280.65 Q349.9 278.4 349.25 275.7 L349.05 274.8 348.9 274.15 Q348.55 272.35 348.55 270.4 348.55 265.35 350.65 258.95 351.85 255.75 353.35 252.95 356.45 247.45 360.9 244.0 L361.2 243.8 361.4 243.6 361.45 243.5 361.8 243.3 362.1 243.15 362.15 243.1 384.75 232.0 384.55 231.1 Q384.45 230.35 385.75 229.5 L391.45 226.85 391.7 226.85 391.9 226.65 392.5 226.5 394.25 226.75 394.35 227.05 394.8 227.05 448.05 200.8 448.0 200.6 447.8 199.75 447.6 198.8 Q447.45 198.1 448.55 197.4 L453.5 195.1 453.7 195.1 453.85 194.95 454.4 194.8 455.9 195.1 455.95 195.3 Q456.45 195.15 457.0 195.6 456.85 195.7 457.05 196.25 L457.05 196.35 476.55 186.7 476.55 186.25 476.55 186.15 477.3 180.7 477.4 180.5 477.6 180.2 Q477.65 179.95 477.85 179.8 L478.0 179.65 478.3 179.55 482.6 174.35 482.7 174.3 482.95 173.8" fill="#0e0000" fill-opacity="0.2784314" fill-rule="evenodd" stroke="none"/>
    <path d="M318.95 208.7 Q307.6 208.7 297.9 212.5 L319.1 263.7 341.4 213.0 Q331.1 208.7 318.95 208.7 M402.75 200.35 Q404.4 202.4 402.4 205.4 400.5 208.4 398.2 210.15 396.05 211.9 390.15 215.85 384.95 219.35 380.15 221.05 L380.4 221.35 380.9 222.1 381.05 222.55 381.15 223.9 381.15 224.1 381.05 224.7 Q380.75 225.85 379.8 226.65 L377.95 228.15 Q382.9 235.95 385.45 244.85 L385.75 244.75 Q386.45 244.6 386.95 244.75 L387.25 244.75 388.05 245.05 388.6 245.35 Q389.65 246.05 390.0 247.15 393.9 245.15 404.25 242.3 L412.1 240.35 415.9 240.65 Q419.75 241.55 420.5 244.0 L420.6 244.25 Q421.05 246.85 417.95 248.7 414.9 250.45 412.1 251.05 L402.3 252.45 Q396.1 253.1 391.05 252.6 L391.15 253.05 391.2 253.8 391.3 254.4 390.7 255.65 390.6 255.8 390.25 256.35 Q389.5 257.15 388.2 257.45 L387.7 257.6 387.9 263.1 387.7 269.25 374.85 269.25 375.15 263.2 Q375.15 240.6 358.7 224.65 353.4 219.5 347.45 216.0 L321.85 274.25 318.7 272.9 316.05 274.0 291.85 215.3 Q285.1 218.95 279.2 224.65 262.7 240.6 262.7 263.2 262.7 266.3 263.1 269.25 L250.1 269.25 249.9 263.1 Q249.9 243.5 260.05 228.0 L257.15 225.7 Q256.15 224.95 255.85 223.8 L255.7 223.3 255.8 223.0 Q255.7 222.3 255.85 221.75 L256.0 221.15 256.45 220.55 Q251.75 218.75 246.7 215.4 L238.65 209.65 Q236.3 207.95 234.4 204.95 232.5 201.95 234.15 199.9 L234.3 199.65 Q235.65 198.1 237.9 198.1 L239.0 198.15 239.15 198.25 Q242.05 198.7 243.5 200.2 L243.55 200.2 249.5 205.45 Q257.4 212.55 259.9 216.15 260.8 214.95 262.25 214.85 L262.85 214.85 263.75 214.85 264.05 214.95 264.95 215.55 267.85 217.85 266.75 219.35 270.1 215.85 Q276.9 209.2 284.65 204.9 L283.3 201.6 Q283.0 201.0 283.1 200.55 L283.0 200.25 283.15 199.3 283.35 198.75 Q283.8 197.4 285.1 196.8 282.25 193.4 277.35 184.0 L273.85 177.0 273.85 176.9 Q273.3 174.95 273.3 173.05 273.3 169.0 275.6 167.8 L275.85 167.65 Q278.3 166.6 280.7 169.25 283.1 171.75 284.25 174.55 L287.7 183.75 Q289.7 189.65 290.25 194.6 290.6 194.35 291.0 194.35 L291.5 194.3 292.85 194.5 293.05 194.6 293.65 194.8 Q294.65 195.35 295.1 196.5 L296.5 199.65 Q304.1 197.2 312.45 196.5 L312.45 193.4 Q312.45 192.8 312.7 192.25 L312.75 192.0 313.3 191.25 Q313.35 191.0 313.55 190.8 314.55 189.75 315.95 189.65 314.7 185.5 313.85 175.05 L313.45 167.0 Q313.7 165.0 314.45 163.25 316.1 159.6 318.7 159.4 L318.95 159.4 Q321.55 159.4 322.75 162.75 323.95 166.0 323.95 169.0 L323.5 178.85 Q322.95 184.95 321.55 189.65 L321.65 189.65 322.45 189.75 322.9 189.9 Q323.55 190.2 324.1 190.65 L324.25 190.8 324.7 191.25 Q325.35 192.1 325.35 193.4 L325.35 196.5 Q335.2 197.25 343.9 200.55 L345.35 197.5 346.1 196.6 346.15 196.3 Q346.6 196.0 347.0 195.85 L347.5 195.65 350.05 195.7 Q350.7 191.4 354.6 181.45 L357.55 174.4 357.65 174.1 357.65 174.0 Q358.7 172.35 360.2 171.1 363.15 168.55 365.7 169.45 L365.85 169.55 Q368.25 170.65 367.85 174.25 367.5 177.75 366.2 180.4 365.05 182.9 361.5 189.05 358.45 194.45 355.1 198.1 L355.2 198.15 355.85 198.45 356.25 198.85 357.05 200.05 357.05 200.2 357.35 200.75 Q357.5 201.9 356.95 203.0 L355.5 206.3 Q361.95 210.25 367.7 215.85 L369.85 218.0 371.9 216.45 Q372.4 216.0 372.95 215.9 L373.15 215.75 374.05 215.7 374.55 215.7 Q375.9 215.85 376.8 216.8 379.2 213.25 387.25 205.9 L393.35 200.7 393.45 200.65 Q395.1 199.65 396.95 199.2 400.9 198.25 402.6 200.1 L402.75 200.35" fill="#0e0000" fill-opacity="0.2784314" fill-rule="evenodd" stroke="none"/>
  </g>
  <defs>
    <radialGradient cx="0" cy="0" fx="9.600000000000001" fy="0" gradientTransform="matrix(0.0546, 0.0, 0.0, 0.0882, 432.6, 170.65)" gradientUnits="userSpaceOnUse" id="gradient0" r="819.2" spreadMethod="pad">
      <stop offset="0.43137254901960786" stop-color="#658a07"/>
      <stop offset="0.9372549019607843" stop-color="#486208"/>
    </radialGradient>
    <radialGradient cx="0" cy="0" fx="9.600000000000001" fy="0" gradientTransform="matrix(0.0442, 0.0217, -0.0623, 0.1273, 425.5, 127.1)" gradientUnits="userSpaceOnUse" id="gradient1" r="819.2" spreadMethod="pad">
      <stop offset="0.43137254901960786" stop-color="#769c0f"/>
      <stop offset="0.9372549019607843" stop-color="#517100"/>
    </radialGradient>
    <radialGradient cx="0" cy="0" fx="9.600000000000001" fy="0" gradientTransform="matrix(0.0165, -0.0623, 0.0448, 0.0118, 186.7, 205.6)" gradientUnits="userSpaceOnUse" id="gradient2" r="819.2" spreadMethod="pad">
      <stop offset="0.25098039215686274" stop-color="#5fb8eb"/>
      <stop offset="1.0" stop-color="#0e5e8e"/>
    </radialGradient>
    <radialGradient cx="0" cy="0" fx="9.600000000000001" fy="0" gradientTransform="matrix(0.0165, -0.0623, 0.0448, 0.0118, 186.7, 205.6)" gradientUnits="userSpaceOnUse" id="gradient3" r="819.2" spreadMethod="pad">
      <stop offset="0.25098039215686274" stop-color="#5fb8eb"/>
      <stop offset="1.0" stop-color="#0e5e8e"/>
    </radialGradient>
    <radialGradient cx="0" cy="0" gradientTransform="matrix(0.0435, -0.0201, 0.0374, 0.0808, 213.9, 118.45)" gradientUnits="userSpaceOnUse" id="gradient4" r="819.2" spreadMethod="pad">
      <stop offset="0.0" stop-color="#4ea6d6"/>
      <stop offset="1.0" stop-color="#1175b3"/>
    </radialGradient>
    <radialGradient cx="0" cy="0" fx="9.600000000000001" fy="0" gradientTransform="matrix(0.0165, -0.0623, 0.0448, 0.0118, 186.9, 205.6)" gradientUnits="userSpaceOnUse" id="gradient5" r="819.2" spreadMethod="pad">
      <stop offset="0.25098039215686274" stop-color="#5fb8eb"/>
      <stop offset="1.0" stop-color="#0e5e8e"/>
    </radialGradient>
  </defs>
</svg>
