<?xml version="1.0" encoding="UTF-8" standalone="no"?>
<svg xmlns:ffdec="https://www.free-decompiler.com/flash" xmlns:xlink="http://www.w3.org/1999/xlink" ffdec:objectType="shape" height="82.05px" width="133.75px" xmlns="http://www.w3.org/2000/svg">
  <g transform="matrix(1.0, 0.0, 0.0, 1.0, 0.0, 0.0)">
    <path d="M78.75 35.45 L78.5 35.3 58.9 80.1 63.25 82.05 82.85 37.25 82.5 37.1 62.9 81.8 61.9 81.35 81.5 36.65 81.1 36.45 61.5 81.15 60.5 80.7 80.1 36.0 79.75 35.85 60.15 80.55 59.15 80.15 78.75 35.45" fill="#a37530" fill-rule="evenodd" stroke="none"/>
    <path d="M82.5 37.1 L82.55 37.0 81.55 36.55 81.5 36.65 61.9 81.35 62.9 81.8 82.5 37.1 M79.75 35.85 L79.8 35.75 78.8 35.35 78.75 35.45 59.15 80.15 60.15 80.55 79.75 35.85" fill="#916017" fill-rule="evenodd" stroke="none"/>
    <path d="M81.1 36.45 L81.15 36.35 80.15 35.9 80.1 36.0 60.5 80.7 61.5 81.15 81.1 36.45" fill="#b7791c" fill-rule="evenodd" stroke="none"/>
    <path d="M44.55 35.0 L44.85 34.85 63.5 80.05 59.05 81.9 40.4 36.7 40.75 36.55 59.35 81.65 60.4 81.25 41.8 36.15 42.2 35.95 60.8 81.05 61.8 80.65 43.2 35.55 43.55 35.4 62.15 80.5 63.15 80.1 44.55 35.0" fill="#a37530" fill-rule="evenodd" stroke="none"/>
    <path d="M40.75 36.55 L40.7 36.45 41.75 36.05 41.8 36.15 60.4 81.25 59.35 81.65 40.75 36.55 M43.55 35.4 L43.5 35.3 44.5 34.9 44.55 35.0 63.15 80.1 62.15 80.5 43.55 35.4" fill="#916017" fill-rule="evenodd" stroke="none"/>
    <path d="M42.2 35.95 L42.15 35.85 43.15 35.45 43.2 35.55 61.8 80.65 60.8 81.05 42.2 35.95" fill="#b7791c" fill-rule="evenodd" stroke="none"/>
    <path d="M133.7 60.45 Q133.6 63.25 127.0 64.35 L118.25 64.95 Q116.05 64.35 115.85 63.75 L115.85 63.7 Q115.35 61.85 127.7 57.85 L130.45 58.05 Q133.2 58.7 133.7 60.45 M129.95 58.6 Q127.0 58.0 126.25 59.85 125.65 61.7 129.0 61.85 132.4 61.9 132.55 60.2 133.0 59.2 129.95 58.6" fill="#b7791c" fill-rule="evenodd" stroke="none"/>
    <path d="M133.7 60.45 L133.7 60.6 Q134.1 62.5 131.9 63.8 129.7 65.05 127.65 65.45 L120.7 66.45 Q115.65 67.0 111.8 66.45 L111.1 63.2 Q113.25 61.6 122.1 59.25 L127.65 57.85 127.7 57.85 Q115.35 61.85 115.85 63.7 L115.85 63.75 Q116.05 64.35 118.25 64.95 L127.0 64.35 Q133.6 63.25 133.7 60.45" fill="#a86308" fill-rule="evenodd" stroke="none"/>
    <path d="M129.95 58.6 Q133.0 59.2 132.55 60.2 132.4 61.9 129.0 61.85 125.65 61.7 126.25 59.85 127.0 58.0 129.95 58.6" fill="#dea551" fill-rule="evenodd" stroke="none"/>
    <path d="M112.6 67.65 L112.8 67.45 112.75 67.8 112.6 67.65 M112.05 69.25 Q111.5 69.85 110.65 70.0 L108.0 70.5 107.8 69.55 109.0 69.6 110.15 69.2 111.7 69.3 112.05 69.25 M107.65 68.7 L107.6 68.45 107.9 68.45 107.75 68.7 107.65 68.7" fill="#916017" fill-rule="evenodd" stroke="none"/>
    <path d="M110.2 65.75 L110.4 67.05 Q110.55 68.15 111.3 68.25 111.9 68.25 112.6 67.65 L112.75 67.8 112.35 68.75 112.3 68.85 112.05 69.25 111.7 69.3 110.15 69.2 109.0 69.6 107.8 69.55 107.65 68.7 107.75 68.7 107.9 68.45 107.6 68.45 107.35 67.25 107.4 67.2 Q107.4 65.7 109.3 65.55 L110.2 65.75" fill="#85560f" fill-rule="evenodd" stroke="none"/>
    <path d="M109.9 61.0 L109.8 61.1 Q109.5 61.55 109.85 63.75 L110.2 65.75 109.3 65.55 Q107.4 65.7 107.4 67.2 L107.35 67.25 106.25 61.45 108.9 60.95 109.7 60.95 109.9 61.0" fill="#a86308" fill-rule="evenodd" stroke="none"/>
    <path d="M112.8 67.45 L112.6 67.65 Q111.9 68.25 111.3 68.25 110.55 68.15 110.4 67.05 L110.2 65.75 109.85 63.75 Q109.5 61.55 109.8 61.1 L109.9 61.0 110.5 61.25 110.85 61.4 Q111.8 61.95 112.0 63.05 L112.75 66.9 112.8 67.45" fill="#b7791c" fill-rule="evenodd" stroke="none"/>
    <path d="M37.8 21.4 L37.9 20.1 Q37.9 17.85 35.45 11.65 32.95 5.5 30.2 6.05 L30.35 5.95 Q32.1 5.2 33.85 7.1 35.55 8.9 36.4 10.8 L38.9 17.5 Q40.3 21.7 40.65 25.2 L37.0 26.75 Q35.0 24.35 31.45 17.65 L28.9 12.55 28.9 12.5 32.7 18.5 32.25 17.85 33.3 20.2 37.4 26.55 40.0 25.45 39.8 25.1 37.9 20.95 37.8 21.4 M41.45 25.15 L41.2 25.0 41.55 25.0 41.45 25.15 M41.1 30.75 L41.1 30.65 Q41.15 30.5 41.3 30.55 L41.35 30.7 41.1 30.75 M41.8 30.45 L41.75 30.35 41.15 30.2 42.1 30.3 42.1 30.35 41.8 30.45 M43.3 29.8 L43.25 29.45 43.45 29.6 43.5 29.7 43.3 29.8" fill="#916017" fill-rule="evenodd" stroke="none"/>
    <path d="M38.05 32.05 L36.75 29.25 36.7 29.15 38.2 28.6 40.15 27.85 41.3 27.4 Q42.35 26.95 42.3 26.2 42.15 25.6 41.45 25.15 L41.55 25.0 42.55 25.15 42.7 25.2 43.05 25.35 43.2 25.65 Q43.55 26.45 43.4 27.15 L44.1 28.2 44.3 29.35 43.5 29.7 43.45 29.6 43.25 29.45 43.3 29.8 42.1 30.35 42.1 30.3 41.15 30.2 41.75 30.35 41.8 30.45 41.35 30.7 41.3 30.55 Q41.15 30.5 41.1 30.65 L41.1 30.75 38.05 32.05" fill="#85560f" fill-rule="evenodd" stroke="none"/>
    <path d="M30.2 6.05 Q32.95 5.5 35.45 11.65 37.9 17.85 37.9 20.1 L37.8 21.4 37.5 22.5 37.45 22.55 37.25 22.75 37.2 22.85 37.15 22.85 37.1 22.8 Q35.9 23.1 32.7 18.5 L28.9 12.5 Q28.55 11.1 28.55 9.75 28.6 6.9 30.2 6.05 M32.6 10.25 Q31.85 7.0 30.15 7.2 29.1 7.0 29.15 10.1 29.3 13.05 31.2 13.4 33.2 13.6 32.6 10.25" fill="#b7791c" fill-rule="evenodd" stroke="none"/>
    <path d="M37.8 21.4 L37.9 20.95 39.8 25.1 40.0 25.45 37.4 26.55 33.3 20.2 32.25 17.85 32.7 18.5 Q35.9 23.1 37.1 22.8 L37.15 22.85 37.2 22.85 37.25 22.75 37.45 22.55 37.5 22.5 37.8 21.4 M37.0 26.75 L40.65 25.2 41.2 25.0 41.45 25.15 Q42.15 25.6 42.3 26.2 42.35 26.95 41.3 27.4 L40.15 27.85 38.2 28.6 36.7 29.15 36.75 29.25 38.05 32.05 36.75 32.6 35.65 30.15 35.55 29.4 35.5 29.2 35.6 28.5 35.75 28.15 Q36.05 27.15 37.0 26.75 M44.3 29.35 L44.1 28.2 43.4 27.15 Q43.55 26.45 43.2 25.65 L43.05 25.35 Q43.8 25.7 44.15 26.55 L45.2 29.0 44.3 29.35" fill="#a86308" fill-rule="evenodd" stroke="none"/>
    <path d="M32.6 10.25 Q33.2 13.6 31.2 13.4 29.3 13.05 29.15 10.1 29.1 7.0 30.15 7.2 31.85 7.0 32.6 10.25" fill="#dea551" fill-rule="evenodd" stroke="none"/>
    <path d="M18.4 44.85 L18.1 45.15 18.45 44.85 18.4 44.85" fill="#916017" fill-rule="evenodd" stroke="none"/>
    <path d="M17.5 42.4 L17.5 42.35 Q17.7 42.05 17.35 41.75 L15.7 40.35 Q15.3 39.95 14.9 39.85 L14.0 40.0 13.95 40.05 13.85 40.0 12.15 39.85 9.75 39.05 9.95 39.25 10.85 39.85 Q10.65 40.0 10.8 40.1 13.55 42.0 16.65 43.45 L17.45 42.4 17.5 42.4 M19.45 48.5 L21.05 46.4 21.75 45.45 21.25 45.0 20.85 44.75 19.25 43.7 19.25 43.75 18.4 44.85 18.45 44.85 18.1 45.15 Q17.45 45.85 16.8 45.65 L16.85 45.7 Q17.55 46.9 18.7 47.95 L19.45 48.5" fill="#85560f" fill-rule="evenodd" stroke="none"/>
    <path d="M0.65 28.75 L0.35 29.5 Q0.95 31.1 2.1 33.0 3.3 34.9 7.15 36.55 11.0 38.15 12.2 37.85 13.4 37.55 11.0 34.9 10.05 31.4 3.25 27.65 1.65 27.65 0.65 28.75 M18.95 40.55 L18.9 40.6 17.5 42.4 17.45 42.4 16.65 43.45 16.5 43.65 16.15 44.1 16.15 44.85 Q16.1 45.35 16.75 45.65 L16.8 45.65 Q17.45 45.85 18.1 45.15 L18.4 44.85 19.25 43.75 19.25 43.7 19.6 43.25 20.45 42.15 20.6 41.95 21.45 40.55 21.7 39.8 21.7 39.65 21.05 39.6 20.65 39.65 Q19.6 39.7 18.95 40.55" fill="#b7791c" fill-rule="evenodd" stroke="none"/>
    <path d="M3.25 27.65 Q10.05 31.4 11.0 34.9 13.4 37.55 12.2 37.85 11.0 38.15 7.15 36.55 3.3 34.9 2.1 33.0 0.95 31.1 0.35 29.5 L0.65 28.75 0.55 28.9 Q-0.6 30.4 0.75 32.55 2.1 34.65 3.75 35.9 L9.5 40.0 Q13.15 42.4 16.5 43.65 L16.65 43.45 Q13.55 42.0 10.8 40.1 10.65 40.0 10.85 39.85 L9.95 39.25 9.75 39.05 12.15 39.85 13.85 40.0 13.95 40.05 14.0 40.0 14.9 39.85 Q15.3 39.95 15.7 40.35 L17.35 41.75 Q17.7 42.05 17.5 42.35 L17.5 42.4 18.9 40.6 18.95 40.55 Q17.2 38.0 11.55 32.9 L7.25 29.15 7.2 29.15 Q6.2 28.05 4.15 27.75 L4.0 27.7 3.25 27.65 M16.15 44.1 L16.05 44.5 Q15.95 44.95 16.0 45.45 L15.95 45.65 16.05 46.0 Q16.25 46.8 16.95 47.35 L19.05 49.0 19.45 48.5 18.7 47.95 Q17.55 46.9 16.85 45.7 L16.8 45.65 16.75 45.65 Q16.1 45.35 16.15 44.85 L16.15 44.1 M21.75 45.45 L22.35 44.7 22.85 44.1 24.65 41.75 22.55 40.1 21.9 39.7 21.7 39.65 21.7 39.8 21.45 40.55 20.6 41.95 20.45 42.15 19.6 43.25 19.25 43.7 20.85 44.75 21.25 45.0 21.75 45.45" fill="#a86308" fill-rule="evenodd" stroke="none"/>
    <path d="M60.95 0.0 Q63.65 0.6 63.5 7.25 63.3 13.85 62.4 15.95 61.4 18.05 60.8 18.1 L60.75 18.1 Q58.85 18.25 57.2 5.4 57.4 4.0 57.95 2.75 59.1 0.15 60.95 0.0 M60.45 1.05 Q59.55 0.45 58.4 3.3 57.25 6.1 58.95 7.15 60.65 8.15 61.4 4.85 62.1 1.5 60.45 1.05" fill="#b7791c" fill-rule="evenodd" stroke="none"/>
    <path d="M57.2 5.4 Q58.85 18.25 60.75 18.1 L60.8 18.1 Q61.4 18.05 62.4 15.95 63.3 13.85 63.5 7.25 63.65 0.6 60.95 0.0 L61.1 0.0 Q63.0 0.0 63.85 2.4 64.7 4.75 64.7 6.85 L64.35 13.9 Q63.95 18.9 62.65 22.6 L59.35 22.7 Q58.2 20.25 57.5 11.15 L57.2 5.45 57.2 5.4" fill="#a86308" fill-rule="evenodd" stroke="none"/>
    <path d="M60.45 1.05 Q62.1 1.5 61.4 4.85 60.65 8.15 58.95 7.15 57.25 6.1 58.4 3.3 59.55 0.45 60.45 1.05" fill="#dea551" fill-rule="evenodd" stroke="none"/>
    <path d="M63.8 21.95 L63.6 21.7 63.95 21.8 63.8 21.95 M65.2 22.75 Q65.7 23.4 65.7 24.3 L65.7 26.95 64.75 26.95 Q65.05 26.45 65.0 25.8 L64.8 24.6 Q65.2 23.95 65.2 23.1 L65.2 22.75 M63.9 26.95 L63.65 26.95 63.7 26.65 63.9 26.85 63.9 26.95" fill="#916017" fill-rule="evenodd" stroke="none"/>
    <path d="M61.45 23.9 L62.75 23.95 Q63.9 24.0 64.1 23.3 64.25 22.7 63.8 21.95 L63.95 21.8 64.8 22.35 64.9 22.45 65.2 22.75 65.2 23.1 Q65.2 23.95 64.8 24.6 L65.0 25.8 Q65.05 26.45 64.75 26.95 L63.9 26.95 63.9 26.85 63.7 26.65 63.65 26.95 62.4 26.95 62.35 26.9 Q60.9 26.65 61.1 24.75 61.15 24.15 61.45 23.9" fill="#85560f" fill-rule="evenodd" stroke="none"/>
    <path d="M56.7 23.3 L56.8 23.4 Q57.2 23.8 59.4 23.85 L61.45 23.9 Q61.15 24.15 61.1 24.75 60.9 26.65 62.35 26.9 L62.4 26.95 56.5 26.95 56.5 24.3 Q56.5 23.85 56.65 23.5 L56.7 23.3" fill="#a86308" fill-rule="evenodd" stroke="none"/>
    <path d="M63.6 21.7 L63.8 21.95 Q64.25 22.7 64.1 23.3 63.9 24.0 62.75 23.95 L61.45 23.9 59.4 23.85 Q57.2 23.8 56.8 23.4 L56.7 23.3 57.05 22.75 57.3 22.45 Q58.05 21.65 59.15 21.65 L63.05 21.65 63.6 21.7" fill="#b7791c" fill-rule="evenodd" stroke="none"/>
    <path d="M94.45 7.2 Q96.65 8.9 93.65 14.85 90.65 20.7 88.95 22.2 87.1 23.7 86.6 23.5 L86.55 23.45 Q84.75 22.8 88.8 10.5 89.55 9.25 90.6 8.4 92.75 6.55 94.45 7.2 M93.55 7.95 Q93.05 7.0 90.75 9.1 88.55 11.1 89.6 12.8 90.7 14.4 92.8 11.8 94.9 9.05 93.55 7.95" fill="#b7791c" fill-rule="evenodd" stroke="none"/>
    <path d="M93.55 7.95 Q94.9 9.05 92.8 11.8 90.7 14.4 89.6 12.8 88.55 11.1 90.75 9.1 93.05 7.0 93.55 7.95" fill="#dea551" fill-rule="evenodd" stroke="none"/>
    <path d="M94.45 7.2 L94.6 7.25 Q96.3 8.1 96.1 10.65 95.85 13.1 94.95 15.0 L91.6 21.2 Q89.1 25.6 86.3 28.3 L83.25 27.0 Q83.3 24.3 86.6 15.8 L88.8 10.55 88.8 10.5 Q84.75 22.8 86.55 23.45 L86.6 23.5 Q87.1 23.7 88.95 22.2 90.65 20.7 93.65 14.85 96.65 8.9 94.45 7.2" fill="#a86308" fill-rule="evenodd" stroke="none"/>
    <path d="M87.6 28.2 L87.5 27.95 87.8 28.15 87.6 28.2 M88.5 29.5 Q88.7 30.35 88.3 31.15 L87.15 33.55 86.3 33.15 87.0 32.25 87.35 31.05 88.35 29.85 88.5 29.5 M85.55 32.75 L85.3 32.65 85.5 32.45 85.6 32.7 85.55 32.75" fill="#916017" fill-rule="evenodd" stroke="none"/>
    <path d="M84.6 28.95 L85.8 29.55 Q86.85 30.1 87.3 29.55 87.7 29.1 87.6 28.2 L87.8 28.15 88.35 29.0 88.4 29.15 88.5 29.5 88.35 29.85 87.35 31.05 87.0 32.25 86.3 33.15 85.55 32.75 85.6 32.7 85.5 32.45 85.3 32.65 84.2 32.1 84.2 32.05 Q82.95 31.2 83.95 29.6 84.25 29.1 84.6 28.95" fill="#85560f" fill-rule="evenodd" stroke="none"/>
    <path d="M87.5 27.95 L87.6 28.2 Q87.7 29.1 87.3 29.55 86.85 30.1 85.8 29.55 L84.6 28.95 82.8 28.05 Q80.85 27.05 80.65 26.5 L80.65 26.35 81.15 26.0 81.5 25.9 83.55 25.95 87.05 27.65 87.5 27.95" fill="#b7791c" fill-rule="evenodd" stroke="none"/>
    <path d="M80.65 26.35 L80.65 26.5 Q80.85 27.05 82.8 28.05 L84.6 28.95 Q84.25 29.1 83.95 29.6 82.95 31.2 84.2 32.05 L84.2 32.1 78.85 29.6 80.0 27.2 80.5 26.55 80.65 26.35" fill="#a86308" fill-rule="evenodd" stroke="none"/>
    <path d="M120.85 29.1 Q122.05 31.65 116.7 35.55 111.35 39.45 109.15 40.05 L106.45 40.1 106.45 40.05 Q105.15 38.65 114.3 29.5 115.55 28.75 116.85 28.45 119.6 27.75 120.85 29.1 M116.7 29.15 Q113.8 29.95 114.0 31.95 114.2 33.85 117.35 32.45 120.35 30.95 119.75 29.35 119.65 28.3 116.7 29.15" fill="#b7791c" fill-rule="evenodd" stroke="none"/>
    <path d="M114.3 29.5 Q105.15 38.65 106.45 40.05 L106.45 40.1 109.15 40.05 Q111.35 39.45 116.7 35.55 122.05 31.65 120.85 29.1 L120.95 29.25 Q122.1 30.75 120.75 32.9 119.4 35.0 117.75 36.25 L112.0 40.35 Q107.8 43.1 104.05 44.35 L102.0 41.8 Q103.15 39.4 109.95 33.25 L114.25 29.5 114.3 29.5" fill="#a86308" fill-rule="evenodd" stroke="none"/>
    <path d="M116.7 29.15 Q119.65 28.3 119.75 29.35 120.35 30.95 117.35 32.45 114.2 33.85 114.0 31.95 113.8 29.95 116.7 29.15" fill="#dea551" fill-rule="evenodd" stroke="none"/>
    <path d="M105.3 45.05 L105.4 44.75 105.5 45.15 105.3 45.05 M101.4 48.25 L101.25 48.05 101.55 47.9 101.45 48.2 101.4 48.25" fill="#916017" fill-rule="evenodd" stroke="none"/>
    <path d="M102.3 44.4 L103.05 45.5 Q103.7 46.45 104.4 46.15 105.0 45.9 105.3 45.05 L105.5 45.15 105.55 46.1 105.6 46.3 105.5 46.65 105.25 46.9 Q104.55 47.4 103.8 47.5 L103.0 48.4 Q102.5 48.85 101.95 48.9 L101.4 48.25 101.45 48.2 101.55 47.9 101.25 48.05 100.5 47.05 100.5 46.95 Q99.85 45.65 101.45 44.7 101.95 44.3 102.3 44.4" fill="#85560f" fill-rule="evenodd" stroke="none"/>
    <path d="M99.85 40.3 L99.85 40.45 Q99.8 41.0 101.1 42.8 L102.3 44.4 Q101.95 44.3 101.45 44.7 99.85 45.65 100.5 46.95 L100.5 47.05 96.9 42.4 99.0 40.75 99.65 40.35 99.85 40.3 M105.5 46.65 Q105.3 47.45 104.6 48.0 L102.5 49.65 101.95 48.9 Q102.5 48.85 103.0 48.4 L103.8 47.5 Q104.55 47.4 105.25 46.9 L105.5 46.65" fill="#a86308" fill-rule="evenodd" stroke="none"/>
    <path d="M99.85 40.3 L100.5 40.25 100.9 40.3 Q102.0 40.35 102.65 41.25 L105.05 44.3 105.4 44.75 105.3 45.05 Q105.0 45.9 104.4 46.15 103.7 46.45 103.05 45.5 L102.3 44.4 101.1 42.8 Q99.8 41.0 99.85 40.45 L99.85 40.3" fill="#b7791c" fill-rule="evenodd" stroke="none"/>
    <path d="M110.25 78.45 L101.1 78.45 101.3 74.15 Q101.3 58.0 89.55 46.6 77.8 35.2 61.15 35.2 44.5 35.2 32.75 46.6 21.0 58.0 21.0 74.15 L21.25 78.45 12.0 78.45 11.8 74.1 Q11.8 54.3 26.25 40.3 40.7 26.3 61.1 26.3 81.55 26.3 96.0 40.3 110.4 54.3 110.4 74.1 L110.25 78.45" fill="#b7791c" fill-rule="evenodd" stroke="none"/>
    <path d="M108.6 61.45 L108.5 61.45 Q105.05 50.35 96.0 41.55 81.55 27.55 61.1 27.55 40.7 27.55 26.25 41.55 17.15 50.35 13.75 61.45 L13.65 61.45 Q16.9 49.9 26.25 40.85 40.7 26.85 61.1 26.85 81.55 26.85 96.0 40.85 105.35 49.9 108.6 61.45" fill="#c49754" fill-rule="evenodd" stroke="none"/>
    <path d="M104.05 77.8 L102.0 77.8 102.2 73.5 Q102.2 57.35 90.15 45.95 78.1 34.55 61.0 34.55 43.9 34.55 31.85 45.95 19.8 57.35 19.8 73.5 L20.05 77.8 18.0 77.8 17.85 74.35 Q17.85 57.15 30.45 45.0 43.1 32.9 61.0 32.9 78.9 32.9 91.5 45.0 104.2 57.15 104.2 74.35 L104.05 77.8" fill="#a86308" fill-rule="evenodd" stroke="none"/>
    <path d="M5.35 33.75 Q4.15 33.5 3.1 32.5 2.05 31.55 1.65 30.4 1.3 29.3 1.85 28.65 2.4 28.05 3.55 28.3 4.75 28.6 5.8 29.55 6.85 30.55 7.25 31.65 7.65 32.8 7.1 33.4 6.55 34.05 5.35 33.75" fill="#dea551" fill-rule="evenodd" stroke="none"/>
    <path d="M41.05 25.6 L41.2 25.65 Q41.65 27.3 39.6 28.05 L37.15 28.9 36.35 28.75 Q35.8 27.2 37.4 26.55 38.9 25.95 40.55 25.6 L41.05 25.6" fill="#b7791c" fill-rule="evenodd" stroke="none"/>
  </g>
</svg>
