<?xml version="1.0" encoding="UTF-8" standalone="no"?>
<svg xmlns:ffdec="https://www.free-decompiler.com/flash" xmlns:xlink="http://www.w3.org/1999/xlink" ffdec:objectType="shape" height="129.6px" width="137.95px" xmlns="http://www.w3.org/2000/svg">
  <g transform="matrix(1.0, 0.0, 0.0, 1.0, 0.0, 0.0)">
    <path d="M0.5 84.6 L0.6 84.65 0.0 84.65 0.05 84.6 0.35 84.05 0.5 84.6 M0.4 83.7 L0.4 83.35 0.5 82.5 0.4 83.7 M43.35 57.05 L43.25 57.2 43.05 57.2 42.8 57.1 42.75 57.05 42.75 56.95 42.7 56.8 42.75 56.7 43.05 56.55 43.05 56.5 43.2 56.55 43.35 56.65 43.35 56.7 43.4 56.8 43.35 57.05" fill="#e0e0e0" fill-rule="evenodd" stroke="none"/>
    <path d="M111.7 10.8 L115.25 9.05 115.7 9.75 115.55 9.85 115.2 10.05 114.9 10.0 111.7 10.8 M66.55 40.4 L67.2 40.1 67.8 39.8 67.9 39.8 67.05 40.25 66.55 40.4" fill="#746969" fill-rule="evenodd" stroke="none"/>
    <path d="M121.55 18.75 L125.7 25.1 123.4 26.6 123.45 26.45 123.5 26.25 123.5 25.9 123.35 25.55 123.2 25.3 125.15 24.25 123.9 22.35 122.95 23.9 Q122.05 25.2 103.8 36.8 85.5 48.4 73.25 56.55 60.95 64.7 49.15 71.95 41.25 76.8 30.7 81.5 20.15 86.2 13.1 77.8 L12.95 78.05 13.05 78.65 Q12.7 77.05 12.7 75.3 12.7 71.45 14.3 66.55 15.2 64.1 16.35 62.0 16.5 62.25 15.65 65.2 L15.35 67.05 Q14.7 69.1 15.6 70.5 L16.1 72.5 Q16.8 74.9 19.45 75.9 L20.4 76.2 23.85 76.5 24.75 76.5 Q30.65 76.2 42.5 69.65 L43.1 69.3 43.75 68.95 48.05 66.4 Q48.15 66.3 48.3 66.25 L48.75 66.0 95.65 36.6 Q119.3 21.6 121.55 18.75 M129.25 30.55 L129.75 31.35 Q106.75 48.45 86.25 61.2 65.3 76.1 48.4 85.1 41.4 88.95 35.4 89.55 15.85 91.05 13.2 79.35 14.15 82.8 16.35 84.95 23.1 89.2 31.7 88.05 42.55 86.55 48.65 82.8 L68.95 70.1 Q83.2 61.2 98.8 50.45 L118.5 37.1 Q123.7 34.45 128.4 31.2 L129.25 30.55 M80.7 48.55 L76.2 51.85 Q73.0 54.0 70.6 56.4 71.8 56.05 72.8 55.3 75.0 53.7 77.35 52.3 80.25 50.6 80.7 48.55" fill="#564f4f" fill-rule="evenodd" stroke="none"/>
    <path d="M116.05 10.25 L116.35 10.7 116.55 11.05 117.15 11.9 Q111.7 14.7 116.05 10.25 82.85 25.7 76.15 29.75 69.4 33.75 57.75 39.6 46.9 45.0 35.25 51.2 20.1 58.6 18.3 61.1 16.25 63.85 15.35 67.05 L15.65 65.2 Q16.5 62.25 16.35 62.0 18.7 57.75 22.1 55.15 L22.3 55.0 22.5 54.85 22.55 54.8 Q22.65 54.7 22.8 54.65 L23.0 54.5 23.05 54.45 111.7 10.8 114.9 10.0 115.2 10.05 115.55 9.85 115.7 9.75 115.75 9.75 116.05 10.25 M117.15 11.95 L117.4 12.3 116.65 12.75 115.65 13.2 Q114.9 15.8 111.9 17.3 98.75 23.95 117.15 11.95 M113.6 19.4 L109.95 21.65 108.35 22.5 Q109.5 21.05 111.2 20.05 L114.2 18.2 Q114.65 18.8 113.6 19.4 M111.3 18.8 L108.85 20.3 Q109.45 19.2 110.55 18.4 112.0 17.45 113.5 16.8 114.1 17.4 112.9 17.9 112.05 18.25 111.3 18.8 M116.0 21.4 Q115.45 22.35 114.4 23.1 L110.15 26.05 Q109.35 26.6 108.55 26.65 110.35 25.1 112.5 23.65 L115.8 21.3 115.9 21.35 116.0 21.4 M112.5 20.7 Q111.5 22.0 109.95 23.05 L107.5 24.5 107.45 24.45 110.05 22.25 112.3 20.6 112.4 20.6 112.45 20.65 112.5 20.7 M113.2 22.1 L113.45 22.15 113.65 22.35 109.2 25.4 105.55 27.5 Q107.1 25.75 109.25 24.4 L112.7 22.3 113.2 22.1 M114.95 35.05 L117.85 32.6 120.25 31.0 Q120.45 31.7 119.35 32.4 L116.1 34.55 114.95 35.05 M113.65 33.9 Q115.8 32.3 118.05 30.95 117.75 31.8 116.6 32.6 114.0 34.35 111.6 36.4 110.45 37.35 109.3 37.7 111.25 35.7 113.65 33.9 M113.3 33.2 Q114.05 32.15 115.15 31.2 116.15 30.35 117.25 29.75 117.4 30.25 116.6 30.85 L114.25 32.85 Q113.75 33.35 113.3 33.2 M92.8 31.7 L89.25 34.3 Q88.25 35.15 87.4 34.95 L90.55 32.5 93.45 30.65 Q93.65 31.2 92.8 31.7 M92.35 33.95 Q90.75 34.85 89.2 35.85 L87.95 36.4 90.8 34.3 93.25 32.7 Q93.4 33.35 92.35 33.95 M93.35 35.35 L90.3 37.35 89.2 37.7 Q90.25 36.55 91.6 35.65 L94.25 34.15 Q94.35 34.75 93.35 35.35 M88.35 40.1 L92.65 37.1 Q94.6 35.75 96.6 34.5 96.55 35.15 95.5 35.75 93.0 37.15 90.75 38.95 89.55 39.95 88.35 40.1 M80.7 48.55 Q80.25 50.6 77.35 52.3 75.0 53.7 72.8 55.3 71.8 56.05 70.6 56.4 73.0 54.0 76.2 51.85 L80.7 48.55 M119.4 33.1 Q120.55 32.3 121.65 31.6 121.75 32.25 120.8 32.95 L119.85 33.65 Q118.3 34.85 116.65 35.5 L116.6 35.45 Q117.75 34.15 119.4 33.1 M23.85 76.5 L20.4 76.2 19.45 75.9 Q18.2 74.75 17.45 72.65 16.55 70.15 17.6 68.3 18.05 71.3 20.35 73.5 L23.85 76.5 M35.7 64.0 Q35.4 64.1 35.15 64.25 28.55 67.5 22.95 72.1 22.2 72.75 21.45 72.5 25.45 67.5 31.45 64.6 L46.95 57.35 Q47.65 58.65 45.2 59.75 L37.35 63.2 35.7 64.0" fill="#5d5656" fill-rule="evenodd" stroke="none"/>
    <path d="M125.7 25.1 L129.25 30.55 128.4 31.2 Q123.7 34.45 118.5 37.1 L98.8 50.45 Q83.2 61.2 68.95 70.1 L48.65 82.8 Q42.55 86.55 31.7 88.05 23.1 89.2 16.35 84.95 14.15 82.8 13.2 79.35 L13.05 78.65 12.95 78.05 13.1 77.8 Q20.15 86.2 30.7 81.5 41.25 76.8 49.15 71.95 60.95 64.7 73.25 56.55 85.5 48.4 103.8 36.8 122.05 25.2 122.95 23.9 L123.9 22.35 125.15 24.25 123.2 25.3 123.35 25.55 123.5 25.9 123.5 26.25 123.45 26.45 123.4 26.6 125.7 25.1 M113.3 33.2 Q113.75 33.35 114.25 32.85 L116.6 30.85 Q117.4 30.25 117.25 29.75 116.15 30.35 115.15 31.2 114.05 32.15 113.3 33.2 M113.65 33.9 Q111.25 35.7 109.3 37.7 110.45 37.35 111.6 36.4 114.0 34.35 116.6 32.6 117.75 31.8 118.05 30.95 115.8 32.3 113.65 33.9 M114.95 35.05 L116.1 34.55 119.35 32.4 Q120.45 31.7 120.25 31.0 L117.85 32.6 114.95 35.05 M119.4 33.1 Q117.75 34.15 116.6 35.45 L116.65 35.5 Q118.3 34.85 119.85 33.65 L120.8 32.95 Q121.75 32.25 121.65 31.6 120.55 32.3 119.4 33.1" fill="#483f3f" fill-rule="evenodd" stroke="none"/>
    <path d="M21.7 61.55 Q21.65 60.25 26.85 57.1 32.0 53.9 35.35 53.15 38.7 52.7 33.7 56.85 L29.95 59.25 Q25.15 62.45 23.45 62.65 21.7 62.85 21.7 61.55" fill="#aaa2a2" fill-rule="evenodd" stroke="none"/>
    <path d="M48.3 66.25 Q48.15 66.3 48.05 66.4 L47.3 65.45 Q45.95 64.35 44.2 64.3 L37.0 64.55 35.15 64.25 Q35.4 64.1 35.7 64.0 37.55 64.5 39.6 64.0 43.6 63.0 47.0 64.9 48.0 65.45 48.3 66.25 M43.75 68.95 L43.1 69.3 42.5 69.65 40.55 69.45 33.65 68.75 33.55 68.7 Q33.75 68.3 34.3 68.35 L37.8 68.7 40.7 68.95 43.75 68.95" fill="#855b1c" fill-rule="evenodd" stroke="none"/>
    <path d="M105.5 19.25 Q106.05 19.7 101.65 22.45 L90.05 29.4 73.0 39.2 Q63.15 44.75 54.2 49.0 45.2 53.2 37.85 57.6 30.45 62.0 25.3 64.75 20.85 67.05 19.55 65.0 L19.2 64.15 19.1 63.75 Q18.95 61.95 21.55 59.65 37.35 50.5 38.4 50.0 L41.5 48.55 41.85 48.35 51.25 43.75 51.85 43.45 55.75 41.55 Q59.5 39.6 73.55 33.05 87.55 26.45 96.6 21.6 104.25 17.45 104.85 18.4 L104.85 18.7 104.9 18.8 105.5 19.25 M21.7 61.55 Q21.7 62.85 23.45 62.65 25.15 62.45 29.95 59.25 L33.7 56.85 Q38.7 52.7 35.35 53.15 32.0 53.9 26.85 57.1 21.65 60.25 21.7 61.55 M66.55 40.4 L67.05 40.25 67.9 39.8 67.8 39.8 67.2 40.1 66.55 40.4" fill="#8d8080" fill-rule="evenodd" stroke="none"/>
    <path d="M117.15 11.9 L117.8 11.55 117.15 11.95 Q98.75 23.95 111.9 17.3 114.9 15.8 115.65 13.2 L116.65 12.75 117.4 12.3 119.6 15.7 Q126.45 11.8 125.5 14.2 125.15 15.0 121.15 18.1 122.15 17.9 121.55 18.75 119.3 21.6 95.65 36.6 L48.75 66.0 48.3 66.25 Q48.0 65.45 47.0 64.9 43.6 63.0 39.6 64.0 37.55 64.5 35.7 64.0 L37.35 63.2 45.2 59.75 Q47.65 58.65 46.95 57.35 L31.45 64.6 Q25.45 67.5 21.45 72.5 22.2 72.75 22.95 72.1 28.55 67.5 35.15 64.25 L37.0 64.55 44.2 64.3 Q45.95 64.35 47.3 65.45 L48.05 66.4 43.75 68.95 40.7 68.95 37.8 68.7 34.3 68.35 Q33.75 68.3 33.55 68.7 L33.65 68.75 40.55 69.45 42.5 69.65 Q30.65 76.2 24.75 76.5 L23.85 76.5 20.35 73.5 Q18.05 71.3 17.6 68.3 16.55 70.15 17.45 72.65 18.2 74.75 19.45 75.9 16.8 74.9 16.1 72.5 L15.6 70.5 Q14.7 69.1 15.35 67.05 16.25 63.85 18.3 61.1 20.1 58.6 35.25 51.2 46.9 45.0 57.75 39.6 69.4 33.75 76.15 29.75 82.85 25.7 116.05 10.25 L116.15 10.2 116.05 10.25 Q111.7 14.7 117.15 11.9 M105.5 19.25 L104.9 18.8 104.85 18.7 104.85 18.4 Q104.25 17.45 96.6 21.6 87.55 26.45 73.55 33.05 59.5 39.6 55.75 41.55 L51.85 43.45 51.25 43.75 41.85 48.35 41.5 48.55 38.4 50.0 Q37.35 50.5 21.55 59.65 18.95 61.95 19.1 63.75 L19.2 64.15 19.55 65.0 Q20.85 67.05 25.3 64.75 30.45 62.0 37.85 57.6 45.2 53.2 54.2 49.0 63.15 44.75 73.0 39.2 L90.05 29.4 101.65 22.45 Q106.05 19.7 105.5 19.25 M113.2 22.1 L112.7 22.3 109.25 24.4 Q107.1 25.75 105.55 27.5 L109.2 25.4 113.65 22.35 113.45 22.15 113.2 22.1 M112.5 20.7 L112.45 20.65 112.4 20.6 112.3 20.6 110.05 22.25 107.45 24.45 107.5 24.5 109.95 23.05 Q111.5 22.0 112.5 20.7 M116.0 21.4 L115.9 21.35 115.8 21.3 112.5 23.65 Q110.35 25.1 108.55 26.65 109.35 26.6 110.15 26.05 L114.4 23.1 Q115.45 22.35 116.0 21.4 M111.3 18.8 Q112.05 18.25 112.9 17.9 114.1 17.4 113.5 16.8 112.0 17.45 110.55 18.4 109.45 19.2 108.85 20.3 L111.3 18.8 M113.6 19.4 Q114.65 18.8 114.2 18.2 L111.2 20.05 Q109.5 21.05 108.35 22.5 L109.95 21.65 113.6 19.4 M88.35 40.1 Q89.55 39.95 90.75 38.95 93.0 37.15 95.5 35.75 96.55 35.15 96.6 34.5 94.6 35.75 92.65 37.1 L88.35 40.1 M93.35 35.35 Q94.35 34.75 94.25 34.15 L91.6 35.65 Q90.25 36.55 89.2 37.7 L90.3 37.35 93.35 35.35 M92.35 33.95 Q93.4 33.35 93.25 32.7 L90.8 34.3 87.95 36.4 89.2 35.85 Q90.75 34.85 92.35 33.95 M92.8 31.7 Q93.65 31.2 93.45 30.65 L90.55 32.5 87.4 34.95 Q88.25 35.15 89.25 34.3 L92.8 31.7" fill="#766767" fill-rule="evenodd" stroke="none"/>
    <path d="M112.0 6.85 L111.85 6.9 111.95 6.85 112.0 6.85" fill="#746969" fill-rule="evenodd" stroke="none"/>
    <path d="M118.25 7.75 L118.45 7.95 118.5 8.0 118.6 8.1 118.65 8.15 119.45 8.85 Q123.15 12.15 126.4 17.8 129.65 23.6 130.6 28.75 L129.6 28.5 128.95 27.85 127.5 27.5 Q127.35 26.85 126.75 26.55 L125.9 26.25 Q126.5 25.5 126.45 24.55 126.4 23.3 125.05 23.1 124.1 23.15 123.55 23.95 121.15 27.4 117.25 25.4 L116.4 25.15 116.8 25.75 115.7 23.9 Q113.95 20.85 112.95 18.1 L112.85 17.95 Q114.3 19.15 117.05 18.65 120.95 13.8 118.25 7.75 M132.0 33.05 L132.5 33.7 133.55 34.5 Q129.7 35.55 129.4 35.75 L126.45 35.65 128.1 34.7 Q130.5 34.75 131.9 33.1 L132.0 33.05" fill="#564f4f" fill-rule="evenodd" stroke="none"/>
    <path d="M115.0 2.0 L115.3 1.55 115.55 1.4 115.85 1.4 Q115.95 1.4 116.1 1.55 L116.2 1.8 Q116.4 3.85 117.6 5.55 L118.15 6.25 119.15 7.25 119.3 7.4 120.1 8.1 Q123.95 11.45 127.25 17.3 130.85 23.7 131.7 29.3 132.25 32.6 134.2 33.65 L133.5 33.2 133.05 33.4 132.5 33.7 132.0 33.05 Q131.3 32.05 130.95 30.6 L130.7 29.45 130.7 29.35 130.6 28.75 Q129.65 23.6 126.4 17.8 123.15 12.15 119.45 8.85 L118.65 8.15 118.6 8.1 118.5 8.0 118.45 7.95 118.25 7.75 117.4 6.9 116.8 6.15 Q115.9 4.9 115.5 3.45 116.2 2.65 115.7 2.2 L115.5 2.0 115.15 1.85 115.0 2.0 M127.3 37.0 L126.2 36.65 127.25 36.8 127.3 37.0 M112.1 18.7 L111.95 18.3 112.05 18.4 112.15 18.1 112.05 18.55 112.1 18.7 M112.85 17.95 L112.95 18.1 112.9 18.1 112.85 18.1 112.85 17.95" fill="#49079a" fill-rule="evenodd" stroke="none"/>
    <path d="M132.5 33.7 L133.05 33.4 133.5 33.2 134.2 33.65 135.25 34.05 135.35 34.05 135.65 34.25 135.75 34.55 135.65 34.85 135.4 35.05 129.9 36.6 Q128.75 37.3 127.3 37.0 L127.25 36.8 126.2 36.65 Q124.6 35.95 122.75 34.4 118.4 30.8 114.85 24.4 113.15 21.4 112.1 18.7 L112.05 18.55 112.15 18.1 112.2 18.1 Q112.3 17.95 112.55 17.95 L112.85 18.1 112.9 18.1 112.95 18.1 Q113.95 20.85 115.7 23.9 L116.8 25.75 Q118.1 27.85 119.55 29.65 L119.65 29.75 119.8 29.95 120.0 30.2 120.55 30.85 121.0 31.35 122.05 32.4 122.9 33.2 123.4 33.65 Q125.05 35.05 126.45 35.65 L129.4 35.75 Q129.7 35.55 133.55 34.5 L132.5 33.7" fill="#382b2b" fill-rule="evenodd" stroke="none"/>
    <path d="M115.0 2.0 L115.15 1.85 115.5 2.0 114.35 3.6 112.25 6.75 112.15 6.8 112.05 6.85 112.1 6.85 112.05 6.95 111.95 7.0 111.95 7.1 111.4 11.15 111.45 12.0 111.55 12.7 111.75 13.95 111.75 14.0 112.4 16.55 112.85 17.95 112.85 18.1 112.55 17.95 Q112.3 17.95 112.2 18.1 L112.15 18.1 112.05 18.4 111.95 18.3 111.45 16.85 Q110.95 15.45 110.75 14.15 L110.8 14.2 110.55 12.85 110.45 12.15 110.45 12.1 110.4 11.05 110.4 11.0 110.95 6.85 111.0 6.7 111.2 6.45 111.4 6.15 111.45 6.1 111.5 6.05 111.7 5.95 115.0 2.0 M115.7 2.2 Q116.2 2.65 115.5 3.45 L115.4 3.1 115.7 2.2 M111.95 5.85 L111.85 5.9 111.95 5.85 M112.0 6.85 L111.95 6.85 111.85 6.9 112.0 6.85" fill="#4a3d3d" fill-rule="evenodd" stroke="none"/>
    <path d="M130.6 28.75 L130.7 29.35 130.7 29.45 130.95 30.6 Q131.3 32.05 132.0 33.05 L131.9 33.1 Q130.5 34.75 128.1 34.7 L126.45 35.65 Q125.05 35.05 123.4 33.65 L122.9 33.2 122.05 32.4 121.0 31.35 120.55 30.85 120.0 30.2 119.8 29.95 119.65 29.75 119.55 29.65 Q118.1 27.85 116.8 25.75 L116.4 25.15 117.25 25.4 Q121.15 27.4 123.55 23.95 124.1 23.15 125.05 23.1 126.4 23.3 126.45 24.55 126.5 25.5 125.9 26.25 L126.75 26.55 Q127.35 26.85 127.5 27.5 L128.95 27.85 129.6 28.5 130.6 28.75" fill="#483f3f" fill-rule="evenodd" stroke="none"/>
    <path d="M115.5 2.0 L115.7 2.2 115.4 3.1 115.5 3.45 Q115.9 4.9 116.8 6.15 L117.4 6.9 118.25 7.75 Q120.95 13.8 117.05 18.65 114.3 19.15 112.85 17.95 L112.4 16.55 111.75 14.0 111.75 13.95 111.55 12.7 111.45 12.0 111.4 11.15 111.95 7.1 111.95 7.0 112.05 6.95 112.1 6.85 112.05 6.85 112.15 6.8 112.25 6.75 114.35 3.6 115.5 2.0" fill="#766767" fill-rule="evenodd" stroke="none"/>
    <path d="M48.55 42.45 L48.6 43.05 48.8 43.85 49.5 46.1 Q52.95 57.3 59.15 65.5 L59.25 65.65 60.8 67.6 64.45 71.5 Q65.2 72.25 65.9 74.1 L65.75 74.4 Q65.05 74.75 63.5 76.2 L62.3 77.05 Q61.65 77.4 61.45 77.85 L60.6 77.15 57.65 74.35 Q55.55 72.2 53.7 69.7 L53.15 69.0 53.15 68.95 Q51.2 66.25 49.5 63.15 47.35 59.35 45.65 55.0 L45.6 54.85 Q43.8 50.2 42.5 45.0 L42.45 44.85 43.15 44.6 Q45.7 43.7 47.4 42.3 48.0 42.0 48.55 42.45" fill="#3a1717" fill-rule="evenodd" stroke="none"/>
    <path d="M46.25 41.8 L47.55 42.0 48.0 43.65 48.2 44.45 48.9 46.7 Q52.35 57.9 58.55 66.1 L58.65 66.25 60.2 68.2 63.85 72.1 65.4 73.55 66.3 74.35 Q66.9 75.15 66.2 76.25 L61.95 79.35 60.0 77.75 57.05 74.95 53.1 70.3 52.55 69.6 52.55 69.55 Q50.6 66.85 48.9 63.75 46.75 59.95 45.05 55.6 L45.0 55.45 Q43.2 50.8 41.9 45.6 L41.75 44.95 42.65 44.35 45.75 41.9 46.25 41.8" fill="#4a2a2a" fill-rule="evenodd" stroke="none"/>
    <path d="M51.35 57.8 Q53.55 62.35 56.3 66.25 L56.45 66.4 56.5 66.5 57.0 67.2 56.45 66.5 55.5 68.5 Q54.65 70.0 52.9 70.3 L51.1 70.3 51.15 70.35 Q51.05 70.5 51.1 70.6 L51.2 70.9 51.05 70.65 50.6 70.0 50.3 69.6 47.55 65.1 48.35 65.65 46.8 62.55 Q45.1 58.85 44.1 54.9 L44.15 54.9 Q45.75 59.2 47.8 63.4 L49.1 65.8 49.75 65.6 Q48.55 63.7 47.7 61.65 46.2 57.95 45.35 54.2 L45.35 54.15 Q46.95 58.45 48.85 62.7 L50.15 65.35 51.15 64.65 49.5 61.7 Q48.2 59.05 47.4 56.3 47.1 55.3 47.2 54.5 48.65 58.85 50.9 62.95 L51.65 64.25 52.15 63.8 50.55 60.7 Q48.7 57.1 48.15 53.25 L48.2 53.2 Q49.55 57.6 51.75 61.7 L52.65 63.35 Q53.5 62.25 52.65 60.55 L51.35 57.85 51.35 57.8 M64.55 75.35 L65.4 76.1 65.7 76.75 65.3 77.25 61.2 80.25 60.35 80.5 58.65 79.1 59.1 79.45 Q61.6 78.9 63.45 77.1 64.65 75.95 64.55 75.35" fill="#412727" fill-rule="evenodd" stroke="none"/>
    <path d="M48.4 50.6 Q49.7 54.35 51.35 57.8 L51.35 57.85 52.65 60.55 Q53.5 62.25 52.65 63.35 L51.75 61.7 Q49.55 57.6 48.2 53.2 L48.15 53.25 Q48.7 57.1 50.55 60.7 L52.15 63.8 51.65 64.25 50.9 62.95 Q48.65 58.85 47.2 54.5 47.1 55.3 47.4 56.3 48.2 59.05 49.5 61.7 L51.15 64.65 50.15 65.35 48.85 62.7 Q46.95 58.45 45.35 54.15 L45.35 54.2 Q46.2 57.95 47.7 61.65 48.55 63.7 49.75 65.6 L49.1 65.8 47.8 63.4 Q45.75 59.2 44.15 54.9 L44.1 54.9 Q45.1 58.85 46.8 62.55 L48.35 65.65 47.55 65.1 Q45.4 61.3 43.7 56.95 L43.65 56.8 42.8 54.45 45.3 53.25 48.45 51.45 48.55 51.05 48.4 50.6 M41.9 51.65 L41.0 48.7 41.1 48.95 Q41.7 50.3 41.9 51.65" fill="#664343" fill-rule="evenodd" stroke="none"/>
    <path d="M57.0 67.2 L57.2 67.45 57.3 67.6 58.85 69.55 62.5 73.45 64.05 74.9 64.55 75.35 Q64.65 75.95 63.45 77.1 61.6 78.9 59.1 79.45 L58.65 79.1 55.7 76.3 51.75 71.65 51.2 70.95 51.2 70.9 51.1 70.6 Q51.05 70.5 51.15 70.35 L51.1 70.3 52.9 70.3 Q54.65 70.0 55.5 68.5 L56.45 66.5 57.0 67.2" fill="#311a1a" fill-rule="evenodd" stroke="none"/>
    <path d="M41.0 48.6 Q40.9 48.2 41.15 48.3 L44.05 47.05 46.45 45.75 47.0 46.3 47.15 46.75 47.55 48.05 47.65 48.4 48.4 50.6 48.55 51.05 48.45 51.45 45.3 53.25 42.8 54.45 42.65 54.5 42.75 54.35 42.7 54.2 42.3 53.0 41.9 51.75 41.9 51.65 Q41.7 50.3 41.1 48.95 L41.0 48.7 41.0 48.6" fill="#7e5151" fill-rule="evenodd" stroke="none"/>
    <path d="M41.0 48.6 L40.55 46.95 40.35 46.2 40.15 45.3 Q40.05 44.7 41.05 44.1 43.25 43.1 45.45 42.05 L45.9 42.15 46.05 42.6 46.65 45.0 46.85 45.8 47.15 46.75 47.0 46.3 46.45 45.75 44.05 47.05 41.15 48.3 Q40.9 48.2 41.0 48.6" fill="#6c3d3d" fill-rule="evenodd" stroke="none"/>
    <path d="M115.0 2.8 Q115.4 1.1 116.65 0.4 L116.8 0.3 118.3 0.0 119.9 0.25 Q117.9 0.55 116.9 1.7 L116.75 1.45 117.1 1.15 117.35 1.0 118.0 0.3 117.85 0.25 117.75 0.25 Q117.4 0.4 117.05 0.7 L116.8 0.85 Q116.6 0.9 116.45 1.05 L116.4 1.1 116.25 1.15 Q115.4 1.9 115.0 2.8 M123.8 27.25 L120.5 22.3 120.4 22.1 119.9 21.2 Q115.9 14.1 114.9 8.05 L114.7 5.75 Q114.75 6.35 115.1 6.75 L115.15 6.85 115.25 8.25 Q115.4 9.25 115.9 9.7 L115.65 7.3 115.55 6.2 115.5 6.35 115.85 5.25 Q115.75 8.55 117.0 12.5 118.35 17.05 121.25 22.4 124.2 27.8 126.85 30.05 L127.85 30.9 127.3 30.55 125.0 28.65 123.8 27.25" fill="#a1a1a1" fill-rule="evenodd" stroke="none"/>
    <path d="M114.7 5.75 Q114.6 3.95 115.0 2.8 115.4 1.9 116.25 1.15 L116.4 1.1 116.45 1.05 Q116.6 0.9 116.8 0.85 L117.05 0.7 Q117.4 0.4 117.75 0.25 L117.85 0.25 118.0 0.3 117.35 1.0 117.1 1.15 116.75 1.45 116.9 1.7 Q115.95 2.7 115.9 4.4 115.8 4.85 115.85 5.25 L115.5 6.35 115.55 6.2 115.65 7.3 115.9 9.7 Q115.4 9.25 115.25 8.25 L115.15 6.85 115.1 6.75 Q114.75 6.35 114.7 5.75" fill="#e0e0e0" fill-rule="evenodd" stroke="none"/>
    <path d="M118.3 0.0 Q120.65 -0.05 124.05 2.85 128.8 6.75 132.8 13.85 136.75 20.9 137.7 27.0 138.7 33.1 136.0 34.65 133.3 36.15 128.55 32.2 126.05 30.1 123.8 27.25 L125.0 28.65 127.3 30.55 127.85 30.9 126.85 30.05 Q124.2 27.8 121.25 22.4 118.35 17.05 117.0 12.5 115.75 8.55 115.85 5.25 115.8 4.85 115.9 4.4 115.95 2.7 116.9 1.7 117.9 0.55 119.9 0.25 L118.3 0.0" fill="#766767" fill-rule="evenodd" stroke="none"/>
    <path d="M119.75 11.75 L118.9 8.4 Q118.05 3.35 120.15 2.15 122.25 1.0 126.05 4.35 127.85 5.9 129.55 7.95 127.95 9.95 126.6 12.2 126.85 11.8 126.75 13.5 126.5 15.1 125.1 15.9 123.7 16.65 122.5 15.35 L120.75 13.45 119.75 11.75 M131.85 11.25 L133.25 13.6 Q135.05 16.85 136.15 19.8 L136.0 19.95 Q135.55 22.5 134.7 24.95 L134.2 24.05 Q133.6 23.25 132.7 23.3 L130.6 20.45 127.65 16.75 130.1 13.7 131.85 11.25 M137.55 28.6 Q137.2 30.05 136.2 30.6 L134.1 30.85 134.6 30.75 Q135.7 30.6 136.35 29.95 L137.55 28.6" fill="#645858" fill-rule="evenodd" stroke="none"/>
    <path d="M137.15 23.4 L137.35 24.0 137.4 24.45 Q137.85 27.0 137.55 28.6 L136.35 29.95 Q135.7 30.6 134.6 30.75 L134.1 30.85 133.45 30.6 131.55 29.55 131.45 29.45 131.2 29.2 130.8 28.95 130.7 28.85 130.45 28.65 130.25 28.5 Q126.45 25.1 123.15 19.25 L122.8 18.6 122.7 18.45 122.65 18.35 121.3 15.55 120.85 14.65 121.05 14.5 Q123.0 18.3 125.6 21.8 128.45 25.45 132.55 27.45 136.4 29.45 137.1 25.65 L137.2 23.85 137.15 23.4" fill="#483f3f" fill-rule="evenodd" stroke="none"/>
    <path d="M119.75 11.75 L120.75 13.45 122.5 15.35 Q123.7 16.65 125.1 15.9 126.5 15.1 126.75 13.5 126.85 11.8 126.6 12.2 127.95 9.95 129.55 7.95 L131.85 11.25 130.1 13.7 127.65 16.75 130.6 20.45 132.7 23.3 Q133.6 23.25 134.2 24.05 L134.7 24.95 Q135.55 22.5 136.0 19.95 L136.15 19.8 137.15 23.4 137.2 23.85 137.1 25.65 Q136.4 29.45 132.55 27.45 128.45 25.45 125.6 21.8 123.0 18.3 121.05 14.5 L120.85 14.65 121.3 15.55 119.75 11.75 M134.1 30.85 L134.05 30.85 133.3 30.6 131.55 29.55 133.45 30.6 134.1 30.85" fill="#584f4f" fill-rule="evenodd" stroke="none"/>
    <path d="M124.1 5.45 L124.25 5.1 125.95 4.75 127.15 5.0 128.1 5.75 Q131.1 8.35 133.65 12.95 136.25 17.5 136.9 21.4 137.6 25.25 136.0 26.2 134.35 27.1 131.35 24.5 129.25 22.6 127.25 19.65 L127.55 20.1 Q126.25 17.35 125.25 14.45 124.45 12.25 123.8 9.65 L123.65 9.1 123.55 8.7 123.75 6.2 124.1 5.5 124.1 5.45" fill="#746969" fill-rule="evenodd" stroke="none"/>
    <path d="M124.1 5.45 L124.0 5.3 125.0 4.35 125.0 4.3 124.9 4.1 124.7 4.15 Q124.1 4.35 123.7 4.8 L123.3 4.4 122.6 5.35 Q122.85 4.45 123.5 4.1 124.85 3.3 127.15 5.0 L125.95 4.75 124.25 5.1 124.1 5.45 M122.5 8.35 L122.75 8.8 Q123.0 9.1 123.25 9.0 L122.9 8.95 Q123.0 10.25 123.85 11.25 L123.65 9.1 123.8 9.65 Q124.45 12.25 125.25 14.45 126.25 17.35 127.55 20.1 L127.25 19.65 126.1 17.75 126.05 17.7 125.95 17.55 125.85 17.35 Q123.3 12.75 122.55 8.85 L122.5 8.35" fill="#a1a1a1" fill-rule="evenodd" stroke="none"/>
    <path d="M122.6 5.35 L123.3 4.4 123.7 4.8 Q124.1 4.35 124.7 4.15 L124.9 4.1 125.0 4.3 125.0 4.35 124.0 5.3 124.1 5.45 124.1 5.5 123.75 6.2 123.55 8.7 123.65 9.1 123.85 11.25 Q123.0 10.25 122.9 8.95 L123.25 9.0 Q123.0 9.1 122.75 8.8 L122.5 8.35 122.5 8.3 Q122.2 6.4 122.55 5.35 L122.6 5.35" fill="#e0e0e0" fill-rule="evenodd" stroke="none"/>
    <path d="M130.8 19.55 L130.8 19.5 Q129.55 17.05 129.35 14.2 129.15 11.75 131.45 11.35 L131.9 11.35 133.1 12.25 133.55 13.0 Q135.45 16.35 136.0 19.2 136.6 21.95 135.5 22.55 134.45 23.15 132.35 21.25 L130.8 19.55" fill="#43302f" fill-rule="evenodd" stroke="none"/>
    <path d="M130.8 19.55 Q129.55 18.0 128.4 15.9 L128.35 15.85 Q126.5 12.5 125.85 9.75 125.3 6.9 126.35 6.3 127.45 5.7 129.5 7.7 130.6 8.7 131.6 10.05 L133.1 12.25 131.9 11.35 131.45 11.35 Q129.15 11.75 129.35 14.2 129.55 17.05 130.8 19.5 L130.8 19.55" fill="#271b1b" fill-rule="evenodd" stroke="none"/>
    <path d="M95.4 18.2 L95.45 18.75 95.65 19.4 96.25 21.35 Q99.2 30.95 104.5 37.95 L104.6 38.1 105.9 39.75 109.05 43.1 Q109.7 43.75 110.3 45.35 L110.15 45.6 108.25 47.15 107.2 47.85 106.45 48.55 105.75 47.95 103.2 45.55 99.85 41.55 99.35 40.95 99.35 40.9 96.25 35.95 Q94.4 32.7 92.95 28.95 L92.9 28.85 Q91.35 24.85 90.25 20.4 L90.2 20.25 90.8 20.05 Q92.95 19.3 94.45 18.1 L95.4 18.2" fill="#3a1717" fill-rule="evenodd" stroke="none"/>
    <path d="M93.45 17.65 L94.55 17.85 94.95 19.25 95.1 19.95 95.7 21.85 Q98.65 31.45 104.0 38.5 L104.05 38.6 105.4 40.3 108.55 43.6 109.85 44.85 110.65 45.55 Q111.15 46.25 110.55 47.2 L106.9 49.85 105.25 48.45 102.7 46.05 99.3 42.1 98.85 41.5 98.85 41.45 Q97.15 39.1 95.7 36.45 93.85 33.2 92.4 29.5 L92.35 29.35 Q90.85 25.35 89.7 20.9 L89.6 20.35 90.35 19.85 93.0 17.75 93.45 17.65" fill="#4a2a2a" fill-rule="evenodd" stroke="none"/>
    <path d="M97.8 31.35 Q99.7 35.25 102.05 38.6 L102.2 38.75 102.25 38.8 102.65 39.4 102.2 38.8 101.35 40.55 Q100.65 41.8 99.15 42.1 L97.6 42.1 97.65 42.1 97.6 42.35 97.7 42.6 97.55 42.4 97.15 41.8 96.9 41.5 Q95.65 39.65 94.55 37.6 95.15 38.2 95.8 38.2 L94.65 36.2 Q93.55 34.1 92.9 32.05 L92.95 32.05 95.85 37.2 96.35 38.1 96.6 37.9 97.1 37.6 94.45 33.1 Q94.05 32.25 94.15 31.65 L97.0 36.0 97.75 37.15 Q97.85 37.0 98.0 36.95 L96.95 35.25 Q96.15 33.55 96.05 32.05 L98.15 36.05 98.45 36.55 98.7 36.3 98.8 36.25 Q98.05 35.5 97.45 34.45 96.55 33.05 96.5 31.9 L98.3 34.75 99.05 35.9 98.85 36.2 Q99.7 35.25 98.95 33.7 L97.8 31.4 97.8 31.35 M109.15 46.4 L109.85 47.05 110.1 47.6 109.75 48.05 106.25 50.6 Q105.8 50.9 105.55 50.8 L104.05 49.6 104.45 49.9 Q106.6 49.45 108.2 47.9 109.2 46.9 109.15 46.4" fill="#412727" fill-rule="evenodd" stroke="none"/>
    <path d="M89.7 26.1 L88.95 23.55 89.05 23.8 89.7 26.1" fill="#664343" fill-rule="evenodd" stroke="none"/>
    <path d="M102.65 39.4 L102.85 39.65 102.9 39.75 104.25 41.45 107.35 44.8 108.7 46.0 109.15 46.4 Q109.2 46.9 108.2 47.9 106.6 49.45 104.45 49.9 L104.05 49.6 101.55 47.2 Q99.75 45.4 98.15 43.25 L97.7 42.65 97.7 42.6 97.6 42.35 97.65 42.1 97.6 42.1 99.15 42.1 Q100.65 41.8 101.35 40.55 L102.2 38.8 102.65 39.4" fill="#311a1a" fill-rule="evenodd" stroke="none"/>
    <path d="M88.95 23.5 Q88.85 23.15 89.1 23.25 L91.55 22.15 93.6 21.05 94.1 21.5 94.2 21.9 94.55 23.0 94.65 23.3 95.3 25.2 95.4 25.6 95.35 25.95 Q95.2 26.2 92.65 27.45 L90.5 28.5 90.35 28.55 90.45 28.4 90.4 28.3 90.05 27.25 89.7 26.2 89.7 26.1 89.05 23.8 88.95 23.55 88.95 23.5" fill="#7e5151" fill-rule="evenodd" stroke="none"/>
    <path d="M88.95 23.5 L88.55 22.05 88.4 21.45 88.2 20.65 Q88.15 20.15 89.0 19.65 L92.75 17.85 93.15 17.95 93.25 18.35 93.8 20.4 93.95 21.1 94.2 21.9 94.1 21.5 93.6 21.05 91.55 22.15 89.1 23.25 Q88.85 23.15 88.95 23.5 M95.3 25.2 Q96.4 28.4 97.8 31.35 L97.8 31.4 98.95 33.7 Q99.7 35.25 98.85 36.2 L99.05 35.9 98.3 34.75 96.5 31.9 Q96.55 33.05 97.45 34.45 98.05 35.5 98.8 36.25 L98.7 36.3 98.45 36.55 98.15 36.05 96.05 32.05 Q96.15 33.55 96.95 35.25 L98.0 36.95 Q97.85 37.0 97.75 37.15 L97.0 36.0 94.15 31.65 Q94.05 32.25 94.45 33.1 L97.1 37.6 96.6 37.9 96.35 38.1 95.85 37.2 92.95 32.05 92.9 32.05 Q93.55 34.1 94.65 36.2 L95.8 38.2 Q95.15 38.2 94.55 37.6 92.7 34.35 91.25 30.65 L91.2 30.5 90.5 28.5 92.65 27.45 Q95.2 26.2 95.35 25.95 L95.4 25.6 95.3 25.2" fill="#6c3d3d" fill-rule="evenodd" stroke="none"/>
    <path d="M86.95 58.65 L85.85 66.9 Q70.85 78.75 64.65 66.9 L52.3 56.55 Q67.5 54.45 72.7 55.2 75.7 65.35 82.4 60.7 84.65 59.65 86.95 58.65" fill="#000000" fill-opacity="0.32156864" fill-rule="evenodd" stroke="none"/>
    <path d="M70.95 56.55 Q72.2 56.65 72.35 57.2 L72.5 58.05 73.4 83.85 68.7 83.85 68.85 57.8 70.95 56.55" fill="#724a0f" fill-rule="evenodd" stroke="none"/>
    <path d="M70.95 56.55 L68.85 57.8 68.7 83.85 73.4 83.85 73.95 98.2 73.2 99.0 70.45 102.2 69.65 103.2 47.6 103.8 47.6 103.9 17.05 104.9 Q11.75 95.65 12.55 84.15 15.0 83.15 15.15 82.65 L34.15 82.4 36.25 82.35 37.1 59.2 41.5 56.6 Q55.4 55.55 68.7 56.25 L71.55 56.3 70.95 56.55" fill="#c49b5d" fill-rule="evenodd" stroke="none"/>
    <path d="M31.15 107.3 Q29.1 103.65 27.35 99.7 L24.0 91.8 24.05 91.8 28.6 100.8 30.5 104.8 31.55 107.3 31.15 107.3" fill="#724a0f" fill-rule="evenodd" stroke="none"/>
    <path d="M34.6 71.65 L34.5 71.6 34.55 71.6 34.6 71.65 M39.3 71.55 Q39.7 72.35 40.5 72.35 43.05 72.25 43.95 69.65 L44.05 68.9 Q44.0 66.5 42.0 66.7 41.1 66.8 40.3 67.45 L39.05 68.8 Q38.55 70.15 39.3 71.55 M41.65 66.4 Q43.45 65.95 44.15 67.95 44.95 70.55 43.05 71.9 41.3 73.25 39.4 72.45 38.6 72.15 38.5 71.0 38.3 68.25 40.4 67.0 L41.65 66.4 M69.0 65.5 Q66.45 65.3 62.35 63.15 58.3 60.95 52.6 62.05 46.9 63.15 41.95 64.9 L41.8 64.9 Q38.35 65.25 35.85 63.8 41.7 64.65 47.2 62.35 51.75 60.5 56.65 61.0 61.25 61.55 65.45 63.4 67.2 64.15 69.0 64.35 L69.0 65.5 M12.2 86.25 Q18.85 89.05 26.35 87.55 L36.65 85.45 Q44.8 85.15 52.7 87.85 57.05 89.4 61.55 88.7 L64.5 88.15 69.2 87.6 69.2 88.75 67.75 88.8 Q64.45 88.65 61.2 89.6 L59.3 89.8 Q51.9 89.3 44.6 86.9 42.0 86.05 39.35 86.25 32.85 86.65 26.45 87.9 20.6 89.05 14.8 88.15 13.0 87.9 12.15 86.55 L12.15 86.4 12.2 86.35 12.2 86.25 M69.15 86.5 L62.1 86.85 Q61.2 86.8 60.35 86.25 56.15 83.8 51.55 82.75 L47.45 82.55 39.45 83.55 Q37.55 83.85 36.0 82.7 L34.55 81.55 34.15 80.95 34.15 80.8 34.25 80.6 34.45 80.55 Q36.7 82.35 39.35 82.75 L43.2 82.45 Q50.25 80.25 56.85 83.75 59.8 85.3 62.85 86.1 L65.9 85.95 Q67.6 85.3 69.15 85.65 L69.15 86.5 M69.1 82.9 L65.6 82.7 62.35 82.1 Q59.8 81.75 58.85 79.25 58.75 78.95 59.05 78.75 62.35 76.9 66.15 77.15 L67.35 77.15 69.05 77.25 69.1 77.25 69.1 77.45 62.85 78.1 59.9 78.65 Q59.25 78.8 59.15 79.6 59.85 80.35 60.9 80.75 64.9 82.1 69.1 81.7 L69.1 82.9 M69.05 75.45 Q62.65 76.3 56.25 74.85 L54.65 74.65 40.05 75.2 Q38.5 75.35 37.05 74.55 L34.4 73.15 34.45 73.15 34.65 73.15 34.7 73.15 Q41.35 75.95 48.35 73.95 L48.6 73.95 Q55.65 73.35 62.45 74.9 L66.35 75.05 69.05 74.65 69.05 75.45 M69.05 73.3 L67.4 73.3 66.4 73.35 Q60.05 74.45 55.3 69.4 54.5 68.55 54.35 67.3 54.15 65.9 55.3 65.25 56.95 64.15 58.8 63.8 61.55 63.8 64.2 64.85 L65.4 65.25 Q66.85 65.65 68.0 66.5 L68.25 66.75 68.3 66.75 68.0 66.75 Q66.85 66.55 65.65 65.9 L64.4 65.45 60.65 64.55 Q57.75 64.05 55.3 66.05 54.1 67.05 55.15 68.25 L58.65 71.3 Q61.65 73.4 65.25 72.85 L67.55 72.65 69.05 72.45 69.05 73.3 M69.05 70.65 Q65.9 73.4 61.75 72.45 60.1 71.95 58.85 70.7 57.5 69.25 57.2 67.15 57.15 66.7 57.45 66.25 58.3 65.15 59.75 65.2 62.35 65.45 64.8 66.35 L68.7 67.95 66.85 67.6 66.05 67.25 65.25 66.95 Q62.1 65.55 58.75 65.9 57.55 66.05 57.55 67.45 L57.7 68.2 Q58.8 71.35 61.65 71.9 L66.5 71.65 67.5 71.15 Q68.25 70.4 69.05 70.05 L69.05 70.65 M41.0 92.4 L46.35 93.1 Q48.8 93.5 50.3 95.5 49.15 95.35 47.8 94.5 46.5 93.6 44.9 93.4 L40.85 93.2 Q38.55 93.45 37.9 95.7 37.75 96.2 38.1 96.6 L38.65 97.2 39.4 96.8 39.55 97.1 Q39.15 97.2 38.85 97.4 43.1 101.65 48.7 101.65 51.5 101.65 53.9 102.4 L47.15 102.7 Q42.0 101.9 38.35 97.65 L37.9 97.7 38.35 97.4 38.2 97.45 37.8 97.0 Q36.7 95.7 37.75 94.4 38.9 93.0 40.5 92.55 L41.0 92.4 M38.75 89.35 Q44.95 88.8 49.85 93.15 L49.75 93.3 48.15 92.2 Q41.85 88.8 35.0 90.25 L31.7 90.7 26.25 91.5 24.05 91.8 24.0 91.8 21.8 92.35 21.7 92.25 21.75 92.25 Q22.9 90.7 25.1 90.55 L25.8 90.55 28.45 90.6 28.8 90.55 28.45 90.5 30.65 90.1 30.7 90.0 30.95 90.0 34.95 89.6 38.75 89.35 M34.85 97.9 L35.05 98.1 Q33.2 96.9 31.15 96.0 L27.3 94.6 27.2 94.35 27.35 94.2 28.5 94.1 Q34.95 95.35 39.0 101.55 40.8 104.05 43.35 104.85 48.5 106.2 53.6 106.0 L54.2 106.05 Q48.5 107.5 43.3 105.25 L43.45 105.5 43.65 105.8 Q43.35 105.75 43.3 105.55 L43.25 105.2 Q41.55 104.5 39.95 103.35 38.4 102.2 37.3 100.5 36.15 98.7 34.55 97.65 L34.65 97.75 34.7 97.8 34.85 97.9 M47.7 94.75 L47.7 95.0 47.65 94.95 47.7 94.75 M53.2 105.3 L53.2 105.25 53.35 105.2 53.25 105.3 53.2 105.3" fill="#855b1c" fill-rule="evenodd" stroke="none"/>
    <path d="M69.0 64.35 Q67.2 64.15 65.45 63.4 61.25 61.55 56.65 61.0 51.75 60.5 47.2 62.35 41.7 64.65 35.85 63.8 38.35 65.25 41.8 64.9 L41.95 64.9 Q46.9 63.15 52.6 62.05 58.3 60.95 62.35 63.15 66.45 65.3 69.0 65.5 L69.05 70.05 Q68.25 70.4 67.5 71.15 L66.5 71.65 61.65 71.9 Q58.8 71.35 57.7 68.2 L57.55 67.45 Q57.55 66.05 58.75 65.9 62.1 65.55 65.25 66.95 L66.05 67.25 66.85 67.6 68.7 67.95 64.8 66.35 Q62.35 65.45 59.75 65.2 58.3 65.15 57.45 66.25 57.15 66.7 57.2 67.15 57.5 69.25 58.85 70.7 60.1 71.95 61.75 72.45 65.9 73.4 69.05 70.65 L69.05 72.45 67.55 72.65 65.25 72.85 Q61.65 73.4 58.65 71.3 L55.15 68.25 Q54.1 67.05 55.3 66.05 57.75 64.05 60.65 64.55 L64.4 65.45 65.65 65.9 Q66.85 66.55 68.0 66.75 L68.3 66.75 68.25 66.75 68.0 66.5 Q66.85 65.65 65.4 65.25 L64.2 64.85 Q61.55 63.8 58.8 63.8 56.95 64.15 55.3 65.25 54.15 65.9 54.35 67.3 54.5 68.55 55.3 69.4 60.05 74.45 66.4 73.35 L67.4 73.3 69.05 73.3 69.05 74.65 66.35 75.05 62.45 74.9 Q55.65 73.35 48.6 73.95 L48.35 73.95 Q41.35 75.95 34.7 73.15 L34.65 73.15 34.45 73.15 34.4 73.15 37.05 74.55 Q38.5 75.35 40.05 75.2 L54.65 74.65 56.25 74.85 Q62.65 76.3 69.05 75.45 L69.1 77.25 69.05 77.25 67.35 77.15 66.15 77.15 Q62.35 76.9 59.05 78.75 58.75 78.95 58.85 79.25 59.8 81.75 62.35 82.1 L65.6 82.7 69.1 82.9 69.15 85.65 Q67.6 85.3 65.9 85.95 L62.85 86.1 Q59.8 85.3 56.85 83.75 50.25 80.25 43.2 82.45 L39.35 82.75 Q36.7 82.35 34.45 80.55 L34.25 80.6 34.15 80.8 34.15 80.95 34.55 81.55 36.0 82.7 Q37.55 83.85 39.45 83.55 L47.45 82.55 51.55 82.75 Q56.15 83.8 60.35 86.25 61.2 86.8 62.1 86.85 L69.15 86.5 69.2 87.6 64.5 88.15 61.55 88.7 Q57.05 89.4 52.7 87.85 44.8 85.15 36.65 85.45 L26.35 87.55 Q18.85 89.05 12.2 86.25 L12.65 84.1 34.25 83.85 Q32.45 71.0 36.7 59.2 52.15 56.9 67.95 57.5 69.65 57.65 68.95 61.7 L69.0 64.35 M41.65 66.4 L40.4 67.0 Q38.3 68.25 38.5 71.0 38.6 72.15 39.4 72.45 41.3 73.25 43.05 71.9 44.95 70.55 44.15 67.95 43.45 65.95 41.65 66.4 M39.3 71.55 Q38.55 70.15 39.05 68.8 L40.3 67.45 Q41.1 66.8 42.0 66.7 44.0 66.5 44.05 68.9 L43.95 69.65 Q43.05 72.25 40.5 72.35 39.7 72.35 39.3 71.55 M34.6 71.65 L34.55 71.6 34.5 71.6 34.6 71.65 M69.1 77.45 L69.1 81.7 Q64.9 82.1 60.9 80.75 59.85 80.35 59.15 79.6 59.25 78.8 59.9 78.65 L62.85 78.1 69.1 77.45 M12.15 86.55 Q13.0 87.9 14.8 88.15 20.6 89.05 26.45 87.9 32.85 86.65 39.35 86.25 42.0 86.05 44.6 86.9 51.9 89.3 59.3 89.8 L61.2 89.6 Q64.45 88.65 67.75 88.8 L69.2 88.75 69.55 104.55 Q63.4 106.2 54.9 106.5 L59.15 106.7 54.9 106.9 54.6 106.9 48.1 107.05 47.05 107.05 31.55 107.3 30.5 104.8 28.6 100.8 24.05 91.8 24.0 91.8 27.35 99.7 Q29.1 103.65 31.15 107.3 L14.45 106.35 Q9.85 97.7 12.15 86.55 M53.2 105.3 L53.25 105.3 53.35 105.2 53.2 105.25 53.2 105.3 M47.7 94.75 L47.65 94.95 47.7 95.0 47.7 94.75 M34.85 97.9 L34.7 97.8 34.65 97.75 34.55 97.65 Q36.15 98.7 37.3 100.5 38.4 102.2 39.95 103.35 41.55 104.5 43.25 105.2 L43.3 105.55 Q43.35 105.75 43.65 105.8 L43.45 105.5 43.3 105.25 Q48.5 107.5 54.2 106.05 L53.6 106.0 Q48.5 106.2 43.35 104.85 40.8 104.05 39.0 101.55 34.95 95.35 28.5 94.1 L27.35 94.2 27.2 94.35 27.3 94.6 31.15 96.0 Q33.2 96.9 35.05 98.1 L34.85 97.9 M38.75 89.35 L34.95 89.6 30.95 90.0 30.7 90.0 30.65 90.1 28.45 90.5 28.8 90.55 28.45 90.6 25.8 90.55 25.1 90.55 Q22.9 90.7 21.75 92.25 L21.7 92.25 21.8 92.35 24.0 91.8 24.05 91.8 26.25 91.5 31.7 90.7 35.0 90.25 Q41.85 88.8 48.15 92.2 L49.75 93.3 49.85 93.15 Q44.95 88.8 38.75 89.35 M41.0 92.4 L40.5 92.55 Q38.9 93.0 37.75 94.4 36.7 95.7 37.8 97.0 L38.2 97.45 38.35 97.4 37.9 97.7 38.35 97.65 Q42.0 101.9 47.15 102.7 L53.9 102.4 Q51.5 101.65 48.7 101.65 43.1 101.65 38.85 97.4 39.15 97.2 39.55 97.1 L39.4 96.8 38.65 97.2 38.1 96.6 Q37.75 96.2 37.9 95.7 38.55 93.45 40.85 93.2 L44.9 93.4 Q46.5 93.6 47.8 94.5 49.15 95.35 50.3 95.5 48.8 93.5 46.35 93.1 L41.0 92.4" fill="#b7791c" fill-rule="evenodd" stroke="none"/>
    <path d="M86.25 67.75 L85.4 69.2 85.95 67.15 Q86.25 66.2 86.65 65.55 86.8 66.55 86.25 67.75 M84.85 66.55 Q84.45 67.7 83.75 68.2 84.0 66.5 84.75 64.8 L86.35 62.15 Q86.5 63.35 85.65 64.9 L84.85 66.55 M85.95 103.35 L85.75 103.65 Q85.55 101.15 85.6 97.95 L85.8 91.6 85.85 99.15 85.95 103.35 M82.95 108.1 L82.8 108.3 Q82.4 106.2 82.6 103.25 82.7 100.85 83.05 99.15 83.3 101.55 83.15 104.4 L82.95 108.1 M82.05 109.5 L81.85 109.9 81.8 105.7 Q81.75 102.05 81.95 99.15 L82.1 107.3 82.05 109.5 M80.45 112.1 L80.05 112.9 80.05 112.7 80.25 93.1 80.45 83.65 80.9 77.25 80.9 83.65 80.8 98.55 80.45 112.1 M78.25 115.65 L78.15 115.85 Q78.0 105.0 78.1 93.2 L78.25 83.65 78.45 78.5 78.65 83.65 78.65 97.35 78.25 115.65 M76.7 118.05 L76.1 119.15 76.2 117.25 76.7 111.0 Q76.9 114.55 76.7 118.05 M75.0 120.85 L74.85 121.15 74.75 105.5 Q74.55 94.4 74.7 83.65 L74.8 81.1 74.8 83.65 75.0 111.8 75.0 120.85 M73.35 123.6 L72.85 124.4 Q72.65 120.85 72.6 117.05 72.55 111.9 72.8 107.3 L73.25 119.45 73.35 123.6 M72.15 125.6 L71.55 126.5 71.55 125.6 71.4 113.15 Q71.2 101.55 72.2 90.6 71.75 102.45 72.1 114.75 L72.15 125.6 M83.8 78.85 L84.1 83.65 84.3 94.4 84.45 105.7 84.35 105.8 Q84.05 98.45 84.0 90.8 L83.95 83.65 83.8 78.85 M87.15 89.5 L87.35 93.9 87.25 97.55 Q86.95 95.65 86.95 93.0 86.9 90.8 87.15 89.5 M80.55 67.2 L80.8 69.65 80.85 71.8 Q80.4 70.85 80.25 69.35 80.1 68.0 80.55 67.2 M75.85 76.2 L75.85 76.25 75.8 76.2 75.85 76.2 M73.2 80.55 Q73.05 78.1 73.4 75.85 L73.7 83.65 73.95 99.25 73.85 118.35 73.85 119.95 Q73.6 107.05 73.5 93.6 L73.35 83.65 73.2 80.55 M75.9 102.75 Q75.9 97.95 76.05 93.6 L76.15 104.6 76.05 113.55 Q75.9 108.5 75.9 102.75" fill="#855b1c" fill-rule="evenodd" stroke="none"/>
    <path d="M84.85 66.55 L85.65 64.9 Q86.5 63.35 86.35 62.15 L84.75 64.8 Q84.0 66.5 83.75 68.2 84.45 67.7 84.85 66.55 M86.25 67.75 Q86.8 66.55 86.65 65.55 86.25 66.2 85.95 67.15 L85.4 69.2 86.25 67.75 M71.55 126.5 L69.6 129.6 Q68.8 108.5 68.9 83.65 L69.1 73.0 73.0 69.85 Q73.5 72.25 74.8 70.8 L86.65 61.05 Q88.1 73.15 88.55 83.65 L88.65 91.0 88.05 99.35 Q87.85 101.15 87.1 101.35 L85.95 103.35 85.85 99.15 85.8 91.6 85.6 97.95 Q85.55 101.15 85.75 103.65 L82.95 108.1 83.15 104.4 Q83.3 101.55 83.05 99.15 82.7 100.85 82.6 103.25 82.4 106.2 82.8 108.3 L82.05 109.5 82.1 107.3 81.95 99.15 Q81.75 102.05 81.8 105.7 L81.85 109.9 80.45 112.1 80.8 98.55 80.9 83.65 80.9 77.25 80.45 83.65 80.25 93.1 80.05 112.7 78.25 115.65 78.65 97.35 78.65 83.65 78.45 78.5 78.25 83.65 78.1 93.2 Q78.0 105.0 78.15 115.85 L76.7 118.05 Q76.9 114.55 76.7 111.0 L76.2 117.25 76.1 119.15 75.0 120.85 75.0 111.8 74.8 83.65 74.8 81.1 74.7 83.65 Q74.55 94.4 74.75 105.5 L74.85 121.15 73.35 123.6 73.25 119.45 72.8 107.3 Q72.55 111.9 72.6 117.05 72.65 120.85 72.85 124.4 L72.15 125.6 72.1 114.75 Q71.75 102.45 72.2 90.6 71.2 101.55 71.4 113.15 L71.55 125.6 71.55 126.5 M83.8 78.85 L83.95 83.65 84.0 90.8 Q84.05 98.45 84.35 105.8 L84.45 105.7 84.3 94.4 84.1 83.65 83.8 78.85 M75.85 76.2 L75.8 76.2 75.85 76.25 75.85 76.2 M80.55 67.2 Q80.1 68.0 80.25 69.35 80.4 70.85 80.85 71.8 L80.8 69.65 80.55 67.2 M87.15 89.5 Q86.9 90.8 86.95 93.0 86.95 95.65 87.25 97.55 L87.35 93.9 87.15 89.5 M73.2 80.55 L73.35 83.65 73.5 93.6 Q73.6 107.05 73.85 119.95 L73.85 118.35 73.95 99.25 73.7 83.65 73.4 75.85 Q73.05 78.1 73.2 80.55 M75.9 102.75 Q75.9 108.5 76.05 113.55 L76.15 104.6 76.05 93.6 Q75.9 97.95 75.9 102.75" fill="#824e02" fill-rule="evenodd" stroke="none"/>
    <path d="M56.75 82.4 L56.8 82.4 60.15 82.1 60.65 82.1 Q66.0 82.55 69.05 84.8 L69.05 104.25 67.95 104.95 Q63.9 107.15 60.4 106.65 L60.0 106.55 58.15 106.0 Q53.8 104.15 51.3 100.0 49.5 96.85 50.65 89.3 51.45 83.55 56.75 82.4" fill="#5d3903" fill-opacity="0.3019608" fill-rule="evenodd" stroke="none"/>
    <path d="M56.15 84.9 L55.95 85.0 55.75 85.55 Q55.9 87.55 58.0 85.9 57.85 86.2 58.1 86.35 L63.0 86.95 Q65.35 86.85 65.45 88.75 65.45 89.35 65.95 89.55 66.9 89.75 67.25 89.05 L66.6 88.6 Q68.75 88.15 68.45 87.3 71.95 89.95 72.2 95.05 L72.25 96.85 Q71.85 95.25 70.95 93.9 71.95 96.0 72.05 98.7 L72.1 99.5 71.7 101.55 Q71.85 99.5 71.1 97.55 71.6 99.6 71.1 102.0 L70.55 104.05 70.95 101.3 71.0 94.45 70.7 99.8 Q70.55 102.7 69.8 105.45 L67.35 107.45 Q63.3 109.65 59.8 109.15 L59.4 109.05 57.55 108.5 Q53.2 106.65 50.7 102.5 48.9 99.35 50.05 91.8 50.85 86.05 56.15 84.9" fill="#724a0f" fill-rule="evenodd" stroke="none"/>
    <path d="M56.15 84.9 L56.2 84.9 59.55 84.6 60.05 84.6 Q65.4 85.05 68.45 87.3 68.75 88.15 66.6 88.6 L67.25 89.05 Q66.9 89.75 65.95 89.55 65.45 89.35 65.45 88.75 65.35 86.85 63.0 86.95 L58.1 86.35 Q57.85 86.2 58.0 85.9 55.9 87.55 55.75 85.55 L55.95 85.0 56.15 84.9" fill="#c49b5d" fill-rule="evenodd" stroke="none"/>
    <path d="M72.25 96.85 L72.2 98.9 72.1 99.6 72.1 99.5 72.05 98.7 Q71.95 96.0 70.95 93.9 71.85 95.25 72.25 96.85 M71.7 101.55 Q71.1 103.65 70.05 105.15 L69.95 105.25 69.8 105.5 69.8 105.45 Q70.55 102.7 70.7 99.8 L71.0 94.45 70.95 101.3 70.55 104.05 71.1 102.0 Q71.6 99.6 71.1 97.55 71.85 99.5 71.7 101.55" fill="#855b1c" fill-rule="evenodd" stroke="none"/>
    <path d="M54.9 90.05 L53.3 91.5 51.25 93.05 Q48.6 94.45 47.15 96.8 48.55 95.05 50.65 93.75 53.15 92.3 54.9 90.05 M56.75 86.25 L55.7 87.1 55.25 87.8 55.4 87.75 Q55.7 87.2 56.35 86.85 56.95 86.4 56.8 86.2 L56.75 86.25 M63.75 86.25 Q61.85 87.25 60.15 88.65 L56.05 91.65 Q51.05 95.05 46.95 99.2 L48.8 97.6 Q50.5 95.95 55.0 92.95 L63.9 86.3 Q68.25 88.2 69.75 92.25 L67.85 93.65 68.25 93.3 68.15 93.2 67.7 93.05 Q58.6 93.0 54.05 100.75 52.7 102.95 53.0 105.05 L53.15 104.95 Q53.2 103.3 54.0 101.7 56.6 96.5 62.1 94.5 L63.6 94.15 67.8 93.7 67.45 93.95 62.1 98.05 50.75 106.8 Q48.95 105.45 47.9 103.65 L47.35 102.45 Q46.15 99.35 47.0 94.9 48.6 94.05 49.95 92.8 51.8 91.0 53.85 89.8 51.7 90.75 50.0 92.35 L47.0 94.75 47.25 93.45 Q48.8 87.2 56.8 84.65 60.85 85.0 63.75 86.25 M47.35 102.45 Q50.3 99.05 54.3 96.9 57.25 95.3 59.5 92.8 61.15 90.95 63.35 89.85 65.1 88.95 65.95 88.05 62.65 89.15 60.2 91.75 58.9 93.25 57.25 94.15 51.4 97.45 47.35 102.45 M50.8 106.8 Q56.35 103.35 60.05 100.2 63.75 97.0 65.95 95.55 L69.95 92.95 70.45 95.3 70.55 96.45 70.5 96.45 Q68.5 97.55 67.45 99.3 L66.1 100.6 Q62.2 102.6 59.8 106.05 60.65 105.1 61.6 104.3 L62.8 103.55 Q65.95 102.15 67.7 99.45 L68.25 98.95 70.55 97.35 70.55 99.8 65.95 103.15 Q61.85 106.15 58.2 109.3 59.35 109.1 60.6 108.1 L62.9 106.35 70.45 100.55 Q69.85 105.75 66.25 107.7 61.05 110.5 55.6 109.0 53.85 108.5 52.45 107.8 L52.7 107.6 53.55 106.95 56.75 104.8 58.65 102.85 Q59.8 101.45 61.45 100.9 65.25 99.75 67.55 96.55 L64.15 99.4 63.35 99.85 Q59.55 100.4 57.5 103.35 L56.4 104.4 Q53.8 105.7 52.05 107.65 L50.8 106.8" fill="#aa7e39" fill-rule="evenodd" stroke="none"/>
    <path d="M63.9 86.3 L55.0 92.95 Q50.5 95.95 48.8 97.6 L46.95 99.2 Q51.05 95.05 56.05 91.65 L60.15 88.65 Q61.85 87.25 63.75 86.25 L63.9 86.3 M50.75 106.8 L62.1 98.05 67.45 93.95 67.8 93.7 67.85 93.65 69.75 92.25 69.95 92.95 65.95 95.55 Q63.75 97.0 60.05 100.2 56.35 103.35 50.8 106.8 L50.75 106.8 M70.45 100.55 L62.9 106.35 60.6 108.1 Q59.35 109.1 58.2 109.3 61.85 106.15 65.95 103.15 L70.55 99.8 70.45 100.55" fill="#724a0f" fill-rule="evenodd" stroke="none"/>
    <path d="M56.75 86.25 L56.8 86.2 Q56.95 86.4 56.35 86.85 55.7 87.2 55.4 87.75 L55.25 87.8 55.7 87.1 56.75 86.25 M54.9 90.05 Q53.15 92.3 50.65 93.75 48.55 95.05 47.15 96.8 48.6 94.45 51.25 93.05 L53.3 91.5 54.9 90.05 M47.0 94.75 L50.0 92.35 Q51.7 90.75 53.85 89.8 51.8 91.0 49.95 92.8 48.6 94.05 47.0 94.9 L47.0 94.75 M47.35 102.45 Q51.4 97.45 57.25 94.15 58.9 93.25 60.2 91.75 62.65 89.15 65.95 88.05 65.1 88.95 63.35 89.85 61.15 90.95 59.5 92.8 57.25 95.3 54.3 96.9 50.3 99.05 47.35 102.45 M67.8 93.7 L63.6 94.15 62.1 94.5 Q56.6 96.5 54.0 101.7 53.2 103.3 53.15 104.95 L53.0 105.05 Q52.7 102.95 54.05 100.75 58.6 93.0 67.7 93.05 L68.15 93.2 68.25 93.3 67.85 93.65 67.8 93.7 M52.05 107.65 Q53.8 105.7 56.4 104.4 L57.5 103.35 Q59.55 100.4 63.35 99.85 L64.15 99.4 67.55 96.55 Q65.25 99.75 61.45 100.9 59.8 101.45 58.65 102.85 L56.75 104.8 53.55 106.95 52.7 107.6 52.45 107.8 52.05 107.65 M70.55 97.35 L68.25 98.95 67.7 99.45 Q65.95 102.15 62.8 103.55 L61.6 104.3 Q60.65 105.1 59.8 106.05 62.2 102.6 66.1 100.6 L67.45 99.3 Q68.5 97.55 70.5 96.45 L70.55 96.45 70.55 97.35" fill="#855b1c" fill-rule="evenodd" stroke="none"/>
    <path d="M60.5 100.2 Q59.7 101.1 58.55 101.1 57.4 101.1 56.6 100.2 55.8 99.4 55.8 98.2 55.8 97.0 56.6 96.1 57.4 95.25 58.55 95.25 59.7 95.25 60.5 96.1 61.3 97.0 61.3 98.2 61.3 99.4 60.5 100.2" fill="#5d3903" fill-opacity="0.6" fill-rule="evenodd" stroke="none"/>
    <path d="M18.0 83.65 L17.7 83.65 Q19.2 82.7 21.05 82.75 L21.55 82.75 Q26.9 83.2 29.95 85.45 36.15 98.55 29.95 104.9 L28.85 105.6 Q24.8 107.8 21.3 107.3 L20.9 107.2 19.05 106.65 Q14.7 104.8 12.2 102.0 9.65 99.15 10.65 92.5 11.6 85.85 18.0 83.65" fill="#5d3903" fill-opacity="0.3019608" fill-rule="evenodd" stroke="none"/>
    <path d="M21.1 85.2 Q21.0 85.45 21.2 85.5 L25.65 86.1 26.0 86.15 Q26.7 86.9 27.8 87.45 29.0 88.1 29.65 89.2 30.0 89.65 30.55 89.45 L30.95 89.3 31.0 88.65 30.5 87.55 Q33.75 90.0 33.6 97.2 33.5 104.35 28.25 107.05 23.05 109.8 19.3 107.75 15.5 105.7 13.15 101.7 11.4 98.8 12.3 95.2 14.25 87.8 21.1 85.2 M32.85 98.45 L31.9 101.45 Q31.0 103.75 29.8 105.7 L31.8 102.6 Q32.9 100.65 32.85 98.45" fill="#724a0f" fill-rule="evenodd" stroke="none"/>
    <path d="M30.5 87.55 L31.0 88.65 30.95 89.3 30.55 89.45 Q30.0 89.65 29.65 89.2 29.0 88.1 27.8 87.45 26.7 86.9 26.0 86.15 L25.65 86.1 21.2 85.5 Q21.0 85.45 21.1 85.2 L22.2 84.8 Q27.05 84.1 30.5 87.55" fill="#c49b5d" fill-rule="evenodd" stroke="none"/>
    <path d="M32.85 98.45 Q32.9 100.65 31.8 102.6 L29.8 105.7 Q31.0 103.75 31.9 101.45 L32.85 98.45" fill="#855b1c" fill-rule="evenodd" stroke="none"/>
    <path d="M10.9 91.0 Q13.05 86.25 20.15 84.5 22.8 84.7 24.9 85.4 L24.7 84.95 24.95 85.4 Q31.9 87.65 32.3 94.95 32.45 97.65 32.1 99.9 L29.3 93.8 Q27.6 89.85 25.35 86.15 L26.0 87.35 Q27.5 90.15 29.05 94.0 L30.9 99.05 Q31.35 100.15 32.0 100.6 L31.35 102.85 30.4 100.85 27.0 95.5 26.95 95.5 29.9 100.4 30.6 101.9 31.1 103.4 29.45 105.85 Q27.95 101.55 25.65 97.6 23.25 93.5 22.55 88.9 22.45 90.9 23.25 93.0 24.1 95.15 25.3 97.2 27.6 101.2 28.95 105.6 L29.15 106.1 27.45 107.35 27.05 107.6 Q24.7 103.15 22.65 98.25 20.05 91.85 17.1 85.65 16.85 85.7 17.2 86.45 L18.55 89.3 20.45 93.8 21.95 97.45 Q24.05 102.85 26.55 107.85 L26.15 108.0 24.45 105.05 Q23.3 103.05 21.3 102.4 20.8 102.6 20.85 103.15 L21.35 106.75 Q21.6 108.15 22.3 109.1 19.9 109.3 17.65 108.4 L17.15 108.15 17.45 108.3 14.85 101.7 10.9 91.0 M10.85 91.05 L15.85 105.0 17.0 108.15 16.75 107.95 16.65 107.95 Q13.05 106.1 11.05 102.75 8.75 98.9 10.3 92.75 10.5 91.85 10.85 91.05 M22.35 109.1 L22.45 109.05 22.2 108.15 21.45 105.15 Q21.2 104.0 21.3 102.8 L21.65 102.85 Q23.25 103.8 24.3 105.45 L26.15 108.0 Q24.15 108.85 22.35 109.1 M15.9 98.6 L17.6 102.55 Q18.55 104.5 18.9 106.65 19.05 107.85 19.55 108.55 L19.25 106.9 Q18.75 104.3 17.55 101.9 15.65 98.1 14.65 93.95 15.0 96.2 15.9 98.6 M18.1 98.65 L16.65 93.8 14.85 87.95 16.05 92.75 Q16.85 95.9 18.1 98.65 M19.45 101.85 L19.8 102.35 19.55 101.85 19.3 101.3 19.45 101.85" fill="#aa7e39" fill-rule="evenodd" stroke="none"/>
    <path d="M10.9 91.0 L14.85 101.7 17.45 108.3 17.15 108.15 17.0 108.15 15.85 105.0 10.85 91.05 10.9 91.0 M26.55 107.85 Q24.05 102.85 21.95 97.45 L20.45 93.8 18.55 89.3 17.2 86.45 Q16.85 85.7 17.1 85.65 20.05 91.85 22.65 98.25 24.7 103.15 27.05 107.6 L26.55 107.85 M32.0 100.6 Q31.35 100.15 30.9 99.05 L29.05 94.0 Q27.5 90.15 26.0 87.35 L25.35 86.15 Q27.6 89.85 29.3 93.8 L32.1 99.9 32.0 100.6" fill="#724a0f" fill-rule="evenodd" stroke="none"/>
    <path d="M22.3 109.1 Q21.6 108.15 21.35 106.75 L20.85 103.15 Q20.8 102.6 21.3 102.4 23.3 103.05 24.45 105.05 L26.15 108.0 24.3 105.45 Q23.25 103.8 21.65 102.85 L21.3 102.8 Q21.2 104.0 21.45 105.15 L22.2 108.15 22.45 109.05 22.35 109.1 22.3 109.1 M29.15 106.1 L28.95 105.6 Q27.6 101.2 25.3 97.2 24.1 95.15 23.25 93.0 22.45 90.9 22.55 88.9 23.25 93.5 25.65 97.6 27.95 101.55 29.45 105.85 L29.15 106.1 M31.1 103.4 L30.6 101.9 29.9 100.4 26.95 95.5 27.0 95.5 30.4 100.85 31.35 102.85 31.1 103.4 M15.9 98.6 Q15.0 96.2 14.65 93.95 15.65 98.1 17.55 101.9 18.75 104.3 19.25 106.9 L19.55 108.55 Q19.05 107.85 18.9 106.65 18.55 104.5 17.6 102.55 L15.9 98.6 M19.45 101.85 L19.3 101.3 19.55 101.85 19.8 102.35 19.45 101.85 M18.1 98.65 Q16.85 95.9 16.05 92.75 L14.85 87.95 16.65 93.8 18.1 98.65" fill="#855b1c" fill-rule="evenodd" stroke="none"/>
    <path d="M60.45 99.1 Q59.65 100.0 58.5 100.0 57.35 100.0 56.55 99.1 55.75 98.3 55.75 97.1 55.75 95.9 56.55 95.0 57.35 94.15 58.5 94.15 59.65 94.15 60.45 95.0 61.25 95.9 61.25 97.1 61.25 98.3 60.45 99.1" fill="#383838" fill-rule="evenodd" stroke="none"/>
    <path d="M59.6 98.7 Q58.95 99.4 58.1 99.4 57.2 99.4 56.55 98.7 55.95 98.05 55.95 97.15 55.95 96.25 56.55 95.55 57.2 94.9 58.1 94.9 58.95 94.9 59.6 95.55 60.2 96.25 60.2 97.15 60.2 98.05 59.6 98.7" fill="#585858" fill-rule="evenodd" stroke="none"/>
    <path d="M22.3 100.35 Q21.5 101.25 20.35 101.25 19.2 101.25 18.4 100.35 17.6 99.55 17.6 98.35 17.6 97.15 18.4 96.25 19.2 95.4 20.35 95.4 21.5 95.4 22.3 96.25 23.1 97.15 23.1 98.35 23.1 99.55 22.3 100.35" fill="#5d3903" fill-opacity="0.6" fill-rule="evenodd" stroke="none"/>
    <path d="M22.25 99.25 Q21.45 100.15 20.3 100.15 19.15 100.15 18.35 99.25 17.55 98.45 17.55 97.25 17.55 96.05 18.35 95.15 19.15 94.3 20.3 94.3 21.45 94.3 22.25 95.15 23.05 96.05 23.05 97.25 23.05 98.45 22.25 99.25" fill="#383838" fill-rule="evenodd" stroke="none"/>
    <path d="M21.4 98.85 Q20.75 99.55 19.9 99.55 19.0 99.55 18.35 98.85 17.75 98.2 17.75 97.3 17.75 96.4 18.35 95.7 19.0 95.05 19.9 95.05 20.75 95.05 21.4 95.7 22.0 96.4 22.0 97.3 22.0 98.2 21.4 98.85" fill="#585858" fill-rule="evenodd" stroke="none"/>
  </g>
</svg>
