<?xml version="1.0" encoding="UTF-8" standalone="no"?>
<svg xmlns:ffdec="https://www.free-decompiler.com/flash" xmlns:xlink="http://www.w3.org/1999/xlink" ffdec:objectType="shape" height="83.5px" width="317.9px" xmlns="http://www.w3.org/2000/svg">
  <g transform="matrix(1.0, 0.0, 0.0, 1.0, -159.5, -269.05)">
    <path d="M382.6 313.0 L382.25 312.75 Q382.25 312.6 382.6 312.45 L383.55 312.35 384.5 312.45 Q384.85 312.6 384.85 312.75 L384.5 313.0 383.55 313.1 382.6 313.0" fill="#af7446" fill-rule="evenodd" stroke="none"/>
    <path d="M471.45 290.5 Q470.15 291.3 470.5 291.9 L470.5 336.35 Q466.05 342.2 460.65 347.3 459.6 348.2 458.7 349.25 L177.05 349.85 160.95 336.25 160.95 293.45 177.9 274.7 459.65 275.2 Q464.85 282.9 471.45 290.5" fill="#bba14b" fill-rule="evenodd" stroke="none"/>
    <path d="M460.1 343.8 L176.5 343.8 176.5 352.35 460.1 352.35 460.1 343.8" fill="#6e727b" fill-rule="evenodd" stroke="none"/>
    <path d="M460.1 344.1 L176.5 344.1 176.5 346.1 460.1 346.1 460.1 344.1" fill="#9498a1" fill-rule="evenodd" stroke="none"/>
    <path d="M460.5 344.6 L176.9 344.6 176.9 345.05 460.5 345.05 460.5 344.6" fill="#e7e7e7" fill-rule="evenodd" stroke="none"/>
    <path d="M460.1 349.45 L176.5 349.45 176.5 351.8 460.1 351.8 460.1 349.45" fill="#494c54" fill-rule="evenodd" stroke="none"/>
    <path d="M460.55 269.55 L176.65 269.55 176.65 277.6 460.55 277.6 460.55 269.55" fill="#6e727b" fill-rule="evenodd" stroke="none"/>
    <path d="M460.55 269.2 L176.65 269.2 176.65 271.1 460.55 271.1 460.55 269.2" fill="#9498a1" fill-rule="evenodd" stroke="none"/>
    <path d="M461.5 270.6 L177.6 270.6 177.6 271.0 461.5 271.0 461.5 270.6" fill="#e7e7e7" fill-rule="evenodd" stroke="none"/>
    <path d="M460.55 274.55 L176.65 274.55 176.65 276.8 460.55 276.8 460.55 274.55" fill="#494c54" fill-rule="evenodd" stroke="none"/>
    <path d="M459.55 269.55 L459.85 269.05 476.1 286.95 Q476.75 287.7 477.05 288.55 477.4 289.5 477.4 290.45 L476.9 335.35 460.05 352.25 459.9 352.25 459.75 351.95 467.5 343.85 476.05 335.35 476.25 335.05 476.3 334.55 476.5 288.55 476.4 288.45 476.05 288.05 472.4 283.6 462.05 272.1 459.55 269.55 M458.7 349.55 L457.75 347.35 471.85 332.6 471.15 333.2 471.45 332.85 472.1 332.25 472.35 332.1 472.5 331.9 Q472.85 331.55 472.85 331.05 L472.3 289.5 472.4 289.4 472.45 289.35 458.05 274.35 457.2 274.35 458.9 271.1 465.4 278.45 474.7 288.75 474.4 334.0 473.7 334.8 458.7 349.55 M469.9 291.2 L469.15 290.15 456.75 276.75 457.05 276.75 457.05 276.7 457.45 276.55 470.3 290.1 470.35 290.0 470.35 290.15 470.35 290.25 470.35 290.45 469.8 290.75 469.7 290.65 469.8 290.9 469.7 290.8 469.9 291.2 M472.5 289.65 L472.5 289.5 472.4 289.55 472.4 289.6 472.5 289.65" fill="#6e727b" fill-rule="evenodd" stroke="none"/>
    <path d="M472.5 289.65 L472.4 289.6 472.4 289.55 472.5 289.5 472.5 289.65" fill="#60646b" fill-rule="evenodd" stroke="none"/>
    <path d="M472.3 289.5 L472.85 331.05 Q472.85 331.55 472.5 331.9 L472.35 332.1 472.5 331.7 470.85 330.75 471.15 330.4 470.8 330.75 470.75 330.65 470.35 290.45 470.35 290.25 470.5 290.35 472.3 289.5" fill="#57595d" fill-rule="evenodd" stroke="none"/>
    <path d="M476.05 288.05 L476.4 288.45 476.5 288.55 476.3 334.55 476.25 335.05 476.05 335.35 467.5 343.85 476.2 334.75 475.85 329.25 475.3 313.45 475.35 320.9 475.05 329.25 Q474.9 333.75 474.75 333.65 L474.4 334.0 474.7 288.75 465.4 278.45 458.9 271.1 Q458.4 270.6 458.95 271.0 L459.4 270.0 463.9 274.95 475.7 288.2 476.05 288.05 M458.8 349.85 L458.7 349.55 473.7 334.8 Q464.8 344.4 458.8 349.85 M457.75 347.35 L457.15 345.9 Q464.7 338.55 470.85 330.75 L472.5 331.7 472.35 332.1 472.1 332.25 471.45 332.85 471.15 333.2 471.85 332.6 457.75 347.35 M456.65 344.85 L456.15 343.85 469.95 329.8 469.9 291.2 469.8 290.9 469.7 290.65 469.8 290.75 470.35 290.45 470.75 330.65 470.8 330.75 Q464.1 337.8 458.2 343.3 L456.65 344.85 M470.35 290.25 L470.35 290.15 470.5 290.35 470.35 290.25" fill="#9498a1" fill-rule="evenodd" stroke="none"/>
    <path d="M459.55 269.55 L462.05 272.1 472.4 283.6 476.05 288.05 475.7 288.2 463.9 274.95 459.4 270.0 459.55 269.55 M457.15 345.9 L456.65 344.85 458.2 343.3 Q464.1 337.8 470.8 330.75 L471.15 330.4 470.85 330.75 Q464.7 338.55 457.15 345.9" fill="#e7e7e7" fill-rule="evenodd" stroke="none"/>
    <path d="M467.5 343.85 L459.75 351.95 458.8 349.85 Q464.8 344.4 473.7 334.8 L474.4 334.0 474.75 333.65 Q474.9 333.75 475.05 329.25 L475.35 320.9 475.3 313.45 475.85 329.25 476.2 334.75 467.5 343.85 M457.05 276.7 L456.8 276.35 456.35 276.1 457.2 274.35 458.05 274.35 472.45 289.35 472.4 289.4 472.3 289.5 470.5 290.35 470.35 290.15 470.35 290.0 470.3 290.1 457.45 276.55 457.05 276.7" fill="#4d525d" fill-rule="evenodd" stroke="none"/>
    <path d="M180.05 276.4 L180.05 277.05 167.05 291.25 167.0 330.1 180.75 344.15 180.3 345.15 178.75 343.6 166.2 330.95 166.6 290.5 166.4 290.65 166.6 290.45 166.6 290.3 166.65 290.4 180.05 276.4 M179.2 347.65 L178.2 349.85 163.25 335.1 162.5 334.3 162.2 289.0 177.55 270.3 179.65 274.3 164.45 289.65 164.65 289.75 164.65 289.85 164.05 331.35 Q164.05 331.85 164.4 332.2 L164.55 332.4 164.8 332.55 165.5 333.15 165.8 333.45 165.1 332.9 179.2 347.65 M177.2 352.25 L177.0 352.55 176.9 352.55 160.05 335.65 159.5 290.75 Q159.5 289.75 159.85 288.85 160.2 288.0 160.85 287.25 L177.05 269.35 177.35 269.85 Q166.7 280.85 160.9 288.35 L160.6 288.75 160.45 288.6 160.25 289.2 160.45 289.2 160.6 334.85 160.65 335.3 160.9 335.65 169.4 344.15 177.2 352.25 M164.4 289.75 L164.4 289.95 164.65 289.85 164.4 289.75" fill="#6e727b" fill-rule="evenodd" stroke="none"/>
    <path d="M164.4 289.75 L164.65 289.85 164.4 289.95 164.4 289.75" fill="#60646b" fill-rule="evenodd" stroke="none"/>
    <path d="M164.65 289.75 L166.4 290.65 166.6 290.5 166.2 330.95 166.15 331.05 165.8 330.7 166.05 331.05 164.4 332.0 164.55 332.4 164.4 332.2 Q164.05 331.85 164.05 331.35 L164.65 289.85 164.65 289.75" fill="#57595d" fill-rule="evenodd" stroke="none"/>
    <path d="M179.8 346.2 L179.2 347.65 165.1 332.9 165.8 333.45 165.5 333.15 164.8 332.55 164.55 332.4 164.4 332.0 166.05 331.05 Q172.25 338.85 179.8 346.2 M178.2 349.85 L178.1 350.1 Q172.1 344.7 163.25 335.1 L178.2 349.85 M166.15 331.05 L166.2 330.95 178.75 343.6 Q172.8 338.1 166.15 331.05 M160.9 288.35 L162.2 289.0 162.5 334.3 162.15 333.95 Q162.05 334.05 161.85 329.55 L161.6 321.2 161.65 313.7 161.05 329.55 160.7 335.05 169.4 344.15 160.9 335.65 160.65 335.3 160.6 334.85 160.45 289.2 160.45 288.6 160.6 288.75 160.9 288.35" fill="#9498a1" fill-rule="evenodd" stroke="none"/>
    <path d="M180.3 345.15 L179.8 346.2 Q172.25 338.85 166.05 331.05 L165.8 330.7 166.15 331.05 Q172.8 338.1 178.75 343.6 L180.3 345.15 M177.35 269.85 L177.55 270.3 162.2 289.0 160.9 288.35 Q166.7 280.85 177.35 269.85 M160.45 288.6 L160.45 289.2 160.25 289.2 160.45 288.6" fill="#e7e7e7" fill-rule="evenodd" stroke="none"/>
    <path d="M179.65 274.3 L180.25 276.25 180.05 275.95 180.05 276.4 166.65 290.4 166.6 290.3 166.6 290.45 166.4 290.65 164.65 289.75 164.45 289.65 179.65 274.3 M178.1 350.1 L177.2 352.25 169.4 344.15 160.7 335.05 161.05 329.55 161.65 313.7 161.6 321.2 161.85 329.55 Q162.05 334.05 162.15 333.95 L162.5 334.3 163.25 335.1 Q172.1 344.7 178.1 350.1" fill="#4d525d" fill-rule="evenodd" stroke="none"/>
    <path d="M371.35 292.45 Q396.1 297.2 395.55 305.0 396.1 312.85 371.35 317.55 348.8 321.9 316.9 321.9 285.1 321.9 262.55 317.55 237.85 312.85 238.4 305.0 237.85 297.2 262.55 292.45 285.1 288.15 316.9 288.15 348.8 288.15 371.3 292.45 L371.35 292.45" fill="#d3bc70" fill-rule="evenodd" stroke="none"/>
    <path d="M371.35 292.45 L371.3 292.45 Q348.8 288.15 316.9 288.15 285.1 288.15 262.55 292.45 237.85 297.2 238.4 305.0 237.85 312.85 262.55 317.55 285.1 321.9 316.9 321.9 348.8 321.9 371.35 317.55 396.1 312.85 395.55 305.0 396.1 297.2 371.35 292.45 M420.7 307.65 Q422.6 318.95 388.3 326.5 353.95 334.05 314.85 334.6 275.75 335.15 246.1 327.9 216.35 320.6 216.75 307.15 221.0 296.45 252.8 290.35 279.4 285.2 316.9 285.2 354.5 285.2 381.1 290.35 413.0 296.45 420.7 307.65" fill="#d3bc70" fill-opacity="0.32156864" fill-rule="evenodd" stroke="none"/>
  </g>
</svg>
